{
  "jsonPath": "Classical/Classical/Giuseppe Verdi/la-traviata-n6-scena-ed-aria.json",
  "path": "Classical\\Classical\\Giuseppe Verdi\\La Traviata - N6 Scena ed aria.mid",
  "name": "La Traviata - N6 Scena ed aria",
  "difficulty": "Advanced",
  "bpm": 60,
  "notes": [
    {
      "midi": 72,
      "hit": false,
      "t": 2000,
      "d": 250,
      "v": 127
    },
    {
      "midi": 67,
      "hit": false,
      "t": 2250,
      "d": 250,
      "v": 127
    },
    {
      "midi": 64,
      "hit": false,
      "t": 2500,
      "d": 250,
      "v": 127
    },
    {
      "midi": 67,
      "hit": false,
      "t": 2750,
      "d": 250,
      "v": 127
    },
    {
      "midi": 64,
      "hit": false,
      "t": 3000,
      "d": 250,
      "v": 127
    },
    {
      "midi": 67,
      "hit": false,
      "t": 3250,
      "d": 250,
      "v": 127
    },
    {
      "midi": 64,
      "hit": false,
      "t": 3500,
      "d": 250,
      "v": 127
    },
    {
      "midi": 74,
      "hit": false,
      "t": 3500,
      "d": 250,
      "v": 127
    },
    {
      "midi": 67,
      "hit": false,
      "t": 3750,
      "d": 250,
      "v": 127
    },
    {
      "midi": 72,
      "hit": false,
      "t": 3750,
      "d": 250,
      "v": 127
    },
    {
      "midi": 71,
      "hit": false,
      "t": 4000,
      "d": 250,
      "v": 127
    },
    {
      "midi": 65,
      "hit": false,
      "t": 4250,
      "d": 250,
      "v": 127
    },
    {
      "midi": 62,
      "hit": false,
      "t": 4500,
      "d": 250,
      "v": 127
    },
    {
      "midi": 65,
      "hit": false,
      "t": 4750,
      "d": 250,
      "v": 127
    },
    {
      "midi": 62,
      "hit": false,
      "t": 5000,
      "d": 250,
      "v": 127
    },
    {
      "midi": 65,
      "hit": false,
      "t": 5250,
      "d": 250,
      "v": 127
    },
    {
      "midi": 62,
      "hit": false,
      "t": 5500,
      "d": 250,
      "v": 127
    },
    {
      "midi": 72,
      "hit": false,
      "t": 5500,
      "d": 250,
      "v": 127
    },
    {
      "midi": 65,
      "hit": false,
      "t": 5750,
      "d": 250,
      "v": 127
    },
    {
      "midi": 71,
      "hit": false,
      "t": 5750,
      "d": 250,
      "v": 127
    },
    {
      "midi": 69,
      "hit": false,
      "t": 6000,
      "d": 250,
      "v": 127
    },
    {
      "midi": 64,
      "hit": false,
      "t": 6250,
      "d": 250,
      "v": 127
    },
    {
      "midi": 60,
      "hit": false,
      "t": 6500,
      "d": 250,
      "v": 127
    },
    {
      "midi": 64,
      "hit": false,
      "t": 6750,
      "d": 250,
      "v": 127
    },
    {
      "midi": 60,
      "hit": false,
      "t": 7000,
      "d": 250,
      "v": 127
    },
    {
      "midi": 64,
      "hit": false,
      "t": 7250,
      "d": 250,
      "v": 127
    },
    {
      "midi": 60,
      "hit": false,
      "t": 7500,
      "d": 250,
      "v": 127
    },
    {
      "midi": 71,
      "hit": false,
      "t": 7500,
      "d": 250,
      "v": 127
    },
    {
      "midi": 64,
      "hit": false,
      "t": 7750,
      "d": 250,
      "v": 127
    },
    {
      "midi": 69,
      "hit": false,
      "t": 7750,
      "d": 250,
      "v": 127
    },
    {
      "midi": 68,
      "hit": false,
      "t": 8000,
      "d": 500,
      "v": 127
    },
    {
      "midi": 59,
      "hit": false,
      "t": 8000,
      "d": 250,
      "v": 127
    },
    {
      "midi": 62,
      "hit": false,
      "t": 8250,
      "d": 250,
      "v": 127
    },
    {
      "midi": 71,
      "hit": false,
      "t": 8500,
      "d": 500,
      "v": 127
    },
    {
      "midi": 59,
      "hit": false,
      "t": 8500,
      "d": 250,
      "v": 127
    },
    {
      "midi": 62,
      "hit": false,
      "t": 8750,
      "d": 250,
      "v": 127
    },
    {
      "midi": 74,
      "hit": false,
      "t": 9000,
      "d": 500,
      "v": 127
    },
    {
      "midi": 59,
      "hit": false,
      "t": 9000,
      "d": 250,
      "v": 127
    },
    {
      "midi": 62,
      "hit": false,
      "t": 9250,
      "d": 250,
      "v": 127
    },
    {
      "midi": 77,
      "hit": false,
      "t": 9500,
      "d": 500,
      "v": 127
    },
    {
      "midi": 59,
      "hit": false,
      "t": 9500,
      "d": 250,
      "v": 127
    },
    {
      "midi": 62,
      "hit": false,
      "t": 9750,
      "d": 250,
      "v": 127
    },
    {
      "midi": 76,
      "hit": false,
      "t": 10000,
      "d": 500,
      "v": 127
    },
    {
      "midi": 56,
      "hit": false,
      "t": 10000,
      "d": 250,
      "v": 127
    },
    {
      "midi": 62,
      "hit": false,
      "t": 10250,
      "d": 250,
      "v": 127
    },
    {
      "midi": 74,
      "hit": false,
      "t": 10500,
      "d": 500,
      "v": 127
    },
    {
      "midi": 59,
      "hit": false,
      "t": 10500,
      "d": 250,
      "v": 127
    },
    {
      "midi": 62,
      "hit": false,
      "t": 10750,
      "d": 250,
      "v": 127
    },
    {
      "midi": 72,
      "hit": false,
      "t": 11000,
      "d": 500,
      "v": 127
    },
    {
      "midi": 52,
      "hit": false,
      "t": 11000,
      "d": 250,
      "v": 127
    },
    {
      "midi": 64,
      "hit": false,
      "t": 11250,
      "d": 250,
      "v": 127
    },
    {
      "midi": 71,
      "hit": false,
      "t": 11500,
      "d": 500,
      "v": 127
    },
    {
      "midi": 59,
      "hit": false,
      "t": 11500,
      "d": 250,
      "v": 127
    },
    {
      "midi": 64,
      "hit": false,
      "t": 11750,
      "d": 250,
      "v": 127
    },
    {
      "midi": 72,
      "hit": false,
      "t": 12000,
      "d": 500,
      "v": 127
    },
    {
      "midi": 57,
      "hit": false,
      "t": 12000,
      "d": 250,
      "v": 127
    },
    {
      "midi": 64,
      "hit": false,
      "t": 12250,
      "d": 250,
      "v": 127
    },
    {
      "midi": 76,
      "hit": false,
      "t": 12500,
      "d": 500,
      "v": 127
    },
    {
      "midi": 60,
      "hit": false,
      "t": 12500,
      "d": 250,
      "v": 127
    },
    {
      "midi": 64,
      "hit": false,
      "t": 12750,
      "d": 250,
      "v": 127
    },
    {
      "midi": 71,
      "hit": false,
      "t": 13000,
      "d": 500,
      "v": 127
    },
    {
      "midi": 55,
      "hit": false,
      "t": 13000,
      "d": 250,
      "v": 127
    },
    {
      "midi": 64,
      "hit": false,
      "t": 13250,
      "d": 250,
      "v": 127
    },
    {
      "midi": 76,
      "hit": false,
      "t": 13500,
      "d": 500,
      "v": 127
    },
    {
      "midi": 59,
      "hit": false,
      "t": 13500,
      "d": 250,
      "v": 127
    },
    {
      "midi": 64,
      "hit": false,
      "t": 13750,
      "d": 250,
      "v": 127
    },
    {
      "midi": 69,
      "hit": false,
      "t": 14000,
      "d": 500,
      "v": 127
    },
    {
      "midi": 53,
      "hit": false,
      "t": 14000,
      "d": 250,
      "v": 127
    },
    {
      "midi": 64,
      "hit": false,
      "t": 14250,
      "d": 250,
      "v": 127
    },
    {
      "midi": 71,
      "hit": false,
      "t": 14500,
      "d": 250,
      "v": 127
    },
    {
      "midi": 59,
      "hit": false,
      "t": 14500,
      "d": 250,
      "v": 127
    },
    {
      "midi": 72,
      "hit": false,
      "t": 14750,
      "d": 250,
      "v": 127
    },
    {
      "midi": 64,
      "hit": false,
      "t": 14750,
      "d": 250,
      "v": 127
    },
    {
      "midi": 71,
      "hit": false,
      "t": 15000,
      "d": 500,
      "v": 127
    },
    {
      "midi": 47,
      "hit": false,
      "t": 15000,
      "d": 250,
      "v": 127
    },
    {
      "midi": 63,
      "hit": false,
      "t": 15250,
      "d": 250,
      "v": 127
    },
    {
      "midi": 69,
      "hit": false,
      "t": 15500,
      "d": 500,
      "v": 127
    },
    {
      "midi": 57,
      "hit": false,
      "t": 15500,
      "d": 250,
      "v": 127
    },
    {
      "midi": 63,
      "hit": false,
      "t": 15750,
      "d": 250,
      "v": 127
    },
    {
      "midi": 68,
      "hit": false,
      "t": 16000,
      "d": 500,
      "v": 127
    },
    {
      "midi": 52,
      "hit": false,
      "t": 16000,
      "d": 250,
      "v": 127
    },
    {
      "midi": 64,
      "hit": false,
      "t": 16250,
      "d": 250,
      "v": 127
    },
    {
      "midi": 71,
      "hit": false,
      "t": 16500,
      "d": 500,
      "v": 127
    },
    {
      "midi": 59,
      "hit": false,
      "t": 16500,
      "d": 250,
      "v": 127
    },
    {
      "midi": 64,
      "hit": false,
      "t": 16750,
      "d": 250,
      "v": 127
    },
    {
      "midi": 76,
      "hit": false,
      "t": 17000,
      "d": 1000,
      "v": 127
    },
    {
      "midi": 59,
      "hit": false,
      "t": 17000,
      "d": 250,
      "v": 127
    },
    {
      "midi": 64,
      "hit": false,
      "t": 17250,
      "d": 250,
      "v": 127
    },
    {
      "midi": 59,
      "hit": false,
      "t": 17500,
      "d": 250,
      "v": 127
    },
    {
      "midi": 64,
      "hit": false,
      "t": 17750,
      "d": 250,
      "v": 127
    },
    {
      "midi": 72,
      "hit": false,
      "t": 18000,
      "d": 250,
      "v": 127
    },
    {
      "midi": 67,
      "hit": false,
      "t": 18250,
      "d": 250,
      "v": 127
    },
    {
      "midi": 64,
      "hit": false,
      "t": 18500,
      "d": 250,
      "v": 127
    },
    {
      "midi": 67,
      "hit": false,
      "t": 18750,
      "d": 250,
      "v": 127
    },
    {
      "midi": 64,
      "hit": false,
      "t": 19000,
      "d": 250,
      "v": 127
    },
    {
      "midi": 67,
      "hit": false,
      "t": 19250,
      "d": 250,
      "v": 127
    },
    {
      "midi": 64,
      "hit": false,
      "t": 19500,
      "d": 250,
      "v": 127
    },
    {
      "midi": 74,
      "hit": false,
      "t": 19500,
      "d": 250,
      "v": 127
    },
    {
      "midi": 67,
      "hit": false,
      "t": 19750,
      "d": 250,
      "v": 127
    },
    {
      "midi": 72,
      "hit": false,
      "t": 19750,
      "d": 250,
      "v": 127
    },
    {
      "midi": 71,
      "hit": false,
      "t": 20000,
      "d": 250,
      "v": 127
    },
    {
      "midi": 65,
      "hit": false,
      "t": 20250,
      "d": 250,
      "v": 127
    },
    {
      "midi": 62,
      "hit": false,
      "t": 20500,
      "d": 250,
      "v": 127
    },
    {
      "midi": 65,
      "hit": false,
      "t": 20750,
      "d": 250,
      "v": 127
    },
    {
      "midi": 62,
      "hit": false,
      "t": 21000,
      "d": 250,
      "v": 127
    },
    {
      "midi": 65,
      "hit": false,
      "t": 21250,
      "d": 250,
      "v": 127
    },
    {
      "midi": 62,
      "hit": false,
      "t": 21500,
      "d": 250,
      "v": 127
    },
    {
      "midi": 72,
      "hit": false,
      "t": 21500,
      "d": 250,
      "v": 127
    },
    {
      "midi": 65,
      "hit": false,
      "t": 21750,
      "d": 250,
      "v": 127
    },
    {
      "midi": 71,
      "hit": false,
      "t": 21750,
      "d": 250,
      "v": 127
    },
    {
      "midi": 69,
      "hit": false,
      "t": 22000,
      "d": 250,
      "v": 127
    },
    {
      "midi": 64,
      "hit": false,
      "t": 22250,
      "d": 250,
      "v": 127
    },
    {
      "midi": 60,
      "hit": false,
      "t": 22500,
      "d": 250,
      "v": 127
    },
    {
      "midi": 64,
      "hit": false,
      "t": 22750,
      "d": 250,
      "v": 127
    },
    {
      "midi": 60,
      "hit": false,
      "t": 23000,
      "d": 250,
      "v": 127
    },
    {
      "midi": 64,
      "hit": false,
      "t": 23250,
      "d": 250,
      "v": 127
    },
    {
      "midi": 60,
      "hit": false,
      "t": 23500,
      "d": 250,
      "v": 127
    },
    {
      "midi": 71,
      "hit": false,
      "t": 23500,
      "d": 250,
      "v": 127
    },
    {
      "midi": 64,
      "hit": false,
      "t": 23750,
      "d": 250,
      "v": 127
    },
    {
      "midi": 69,
      "hit": false,
      "t": 23750,
      "d": 250,
      "v": 127
    },
    {
      "midi": 68,
      "hit": false,
      "t": 24000,
      "d": 500,
      "v": 127
    },
    {
      "midi": 59,
      "hit": false,
      "t": 24000,
      "d": 250,
      "v": 127
    },
    {
      "midi": 62,
      "hit": false,
      "t": 24250,
      "d": 250,
      "v": 127
    },
    {
      "midi": 71,
      "hit": false,
      "t": 24500,
      "d": 500,
      "v": 127
    },
    {
      "midi": 59,
      "hit": false,
      "t": 24500,
      "d": 250,
      "v": 127
    },
    {
      "midi": 62,
      "hit": false,
      "t": 24750,
      "d": 250,
      "v": 127
    },
    {
      "midi": 74,
      "hit": false,
      "t": 25000,
      "d": 500,
      "v": 127
    },
    {
      "midi": 59,
      "hit": false,
      "t": 25000,
      "d": 250,
      "v": 127
    },
    {
      "midi": 62,
      "hit": false,
      "t": 25250,
      "d": 250,
      "v": 127
    },
    {
      "midi": 77,
      "hit": false,
      "t": 25500,
      "d": 500,
      "v": 127
    },
    {
      "midi": 59,
      "hit": false,
      "t": 25500,
      "d": 250,
      "v": 127
    },
    {
      "midi": 62,
      "hit": false,
      "t": 25750,
      "d": 250,
      "v": 127
    },
    {
      "midi": 76,
      "hit": false,
      "t": 26000,
      "d": 500,
      "v": 127
    },
    {
      "midi": 56,
      "hit": false,
      "t": 26000,
      "d": 250,
      "v": 127
    },
    {
      "midi": 62,
      "hit": false,
      "t": 26250,
      "d": 250,
      "v": 127
    },
    {
      "midi": 74,
      "hit": false,
      "t": 26500,
      "d": 500,
      "v": 127
    },
    {
      "midi": 59,
      "hit": false,
      "t": 26500,
      "d": 250,
      "v": 127
    },
    {
      "midi": 62,
      "hit": false,
      "t": 26750,
      "d": 250,
      "v": 127
    },
    {
      "midi": 72,
      "hit": false,
      "t": 27000,
      "d": 500,
      "v": 127
    },
    {
      "midi": 52,
      "hit": false,
      "t": 27000,
      "d": 250,
      "v": 127
    },
    {
      "midi": 64,
      "hit": false,
      "t": 27250,
      "d": 250,
      "v": 127
    },
    {
      "midi": 71,
      "hit": false,
      "t": 27500,
      "d": 500,
      "v": 127
    },
    {
      "midi": 59,
      "hit": false,
      "t": 27500,
      "d": 250,
      "v": 127
    },
    {
      "midi": 64,
      "hit": false,
      "t": 27750,
      "d": 250,
      "v": 127
    },
    {
      "midi": 72,
      "hit": false,
      "t": 28000,
      "d": 500,
      "v": 127
    },
    {
      "midi": 57,
      "hit": false,
      "t": 28000,
      "d": 250,
      "v": 127
    },
    {
      "midi": 64,
      "hit": false,
      "t": 28250,
      "d": 250,
      "v": 127
    },
    {
      "midi": 76,
      "hit": false,
      "t": 28500,
      "d": 500,
      "v": 127
    },
    {
      "midi": 60,
      "hit": false,
      "t": 28500,
      "d": 250,
      "v": 127
    },
    {
      "midi": 64,
      "hit": false,
      "t": 28750,
      "d": 250,
      "v": 127
    },
    {
      "midi": 71,
      "hit": false,
      "t": 29000,
      "d": 500,
      "v": 127
    },
    {
      "midi": 55,
      "hit": false,
      "t": 29000,
      "d": 250,
      "v": 127
    },
    {
      "midi": 64,
      "hit": false,
      "t": 29250,
      "d": 250,
      "v": 127
    },
    {
      "midi": 76,
      "hit": false,
      "t": 29500,
      "d": 500,
      "v": 127
    },
    {
      "midi": 59,
      "hit": false,
      "t": 29500,
      "d": 250,
      "v": 127
    },
    {
      "midi": 64,
      "hit": false,
      "t": 29750,
      "d": 250,
      "v": 127
    },
    {
      "midi": 69,
      "hit": false,
      "t": 30000,
      "d": 500,
      "v": 127
    },
    {
      "midi": 53,
      "hit": false,
      "t": 30000,
      "d": 250,
      "v": 127
    },
    {
      "midi": 64,
      "hit": false,
      "t": 30250,
      "d": 250,
      "v": 127
    },
    {
      "midi": 71,
      "hit": false,
      "t": 30500,
      "d": 250,
      "v": 127
    },
    {
      "midi": 59,
      "hit": false,
      "t": 30500,
      "d": 250,
      "v": 127
    },
    {
      "midi": 72,
      "hit": false,
      "t": 30750,
      "d": 250,
      "v": 127
    },
    {
      "midi": 64,
      "hit": false,
      "t": 30750,
      "d": 250,
      "v": 127
    },
    {
      "midi": 71,
      "hit": false,
      "t": 31000,
      "d": 500,
      "v": 127
    },
    {
      "midi": 47,
      "hit": false,
      "t": 31000,
      "d": 250,
      "v": 127
    },
    {
      "midi": 63,
      "hit": false,
      "t": 31250,
      "d": 250,
      "v": 127
    },
    {
      "midi": 69,
      "hit": false,
      "t": 31500,
      "d": 500,
      "v": 127
    },
    {
      "midi": 57,
      "hit": false,
      "t": 31500,
      "d": 250,
      "v": 127
    },
    {
      "midi": 63,
      "hit": false,
      "t": 31750,
      "d": 250,
      "v": 127
    },
    {
      "midi": 68,
      "hit": false,
      "t": 32000,
      "d": 500,
      "v": 127
    },
    {
      "midi": 52,
      "hit": false,
      "t": 32000,
      "d": 250,
      "v": 127
    },
    {
      "midi": 64,
      "hit": false,
      "t": 32250,
      "d": 250,
      "v": 127
    },
    {
      "midi": 71,
      "hit": false,
      "t": 32500,
      "d": 500,
      "v": 127
    },
    {
      "midi": 63,
      "hit": false,
      "t": 32500,
      "d": 250,
      "v": 127
    },
    {
      "midi": 64,
      "hit": false,
      "t": 32750,
      "d": 250,
      "v": 127
    },
    {
      "midi": 76,
      "hit": false,
      "t": 33000,
      "d": 1000,
      "v": 127
    },
    {
      "midi": 59,
      "hit": false,
      "t": 33000,
      "d": 250,
      "v": 127
    },
    {
      "midi": 64,
      "hit": false,
      "t": 33250,
      "d": 250,
      "v": 127
    },
    {
      "midi": 56,
      "hit": false,
      "t": 33500,
      "d": 250,
      "v": 127
    },
    {
      "midi": 64,
      "hit": false,
      "t": 33750,
      "d": 250,
      "v": 127
    },
    {
      "midi": 69,
      "hit": false,
      "t": 34000,
      "d": 500,
      "v": 127
    },
    {
      "midi": 52,
      "hit": false,
      "t": 34000,
      "d": 250,
      "v": 127
    },
    {
      "midi": 64,
      "hit": false,
      "t": 34250,
      "d": 250,
      "v": 127
    },
    {
      "midi": 72,
      "hit": false,
      "t": 34500,
      "d": 500,
      "v": 127
    },
    {
      "midi": 63,
      "hit": false,
      "t": 34500,
      "d": 250,
      "v": 127
    },
    {
      "midi": 64,
      "hit": false,
      "t": 34750,
      "d": 250,
      "v": 127
    },
    {
      "midi": 76,
      "hit": false,
      "t": 35000,
      "d": 1000,
      "v": 127
    },
    {
      "midi": 60,
      "hit": false,
      "t": 35000,
      "d": 250,
      "v": 127
    },
    {
      "midi": 64,
      "hit": false,
      "t": 35250,
      "d": 250,
      "v": 127
    },
    {
      "midi": 57,
      "hit": false,
      "t": 35500,
      "d": 250,
      "v": 127
    },
    {
      "midi": 64,
      "hit": false,
      "t": 35750,
      "d": 250,
      "v": 127
    },
    {
      "midi": 68,
      "hit": false,
      "t": 36000,
      "d": 500,
      "v": 127
    },
    {
      "midi": 52,
      "hit": false,
      "t": 36000,
      "d": 250,
      "v": 127
    },
    {
      "midi": 64,
      "hit": false,
      "t": 36250,
      "d": 250,
      "v": 127
    },
    {
      "midi": 71,
      "hit": false,
      "t": 36500,
      "d": 500,
      "v": 127
    },
    {
      "midi": 63,
      "hit": false,
      "t": 36500,
      "d": 250,
      "v": 127
    },
    {
      "midi": 64,
      "hit": false,
      "t": 36750,
      "d": 250,
      "v": 127
    },
    {
      "midi": 76,
      "hit": false,
      "t": 37000,
      "d": 1000,
      "v": 127
    },
    {
      "midi": 59,
      "hit": false,
      "t": 37000,
      "d": 250,
      "v": 127
    },
    {
      "midi": 64,
      "hit": false,
      "t": 37250,
      "d": 250,
      "v": 127
    },
    {
      "midi": 56,
      "hit": false,
      "t": 37500,
      "d": 250,
      "v": 127
    },
    {
      "midi": 64,
      "hit": false,
      "t": 37750,
      "d": 250,
      "v": 127
    },
    {
      "midi": 69,
      "hit": false,
      "t": 38000,
      "d": 500,
      "v": 127
    },
    {
      "midi": 52,
      "hit": false,
      "t": 38000,
      "d": 250,
      "v": 127
    },
    {
      "midi": 64,
      "hit": false,
      "t": 38250,
      "d": 250,
      "v": 127
    },
    {
      "midi": 72,
      "hit": false,
      "t": 38500,
      "d": 500,
      "v": 127
    },
    {
      "midi": 63,
      "hit": false,
      "t": 38500,
      "d": 250,
      "v": 127
    },
    {
      "midi": 64,
      "hit": false,
      "t": 38750,
      "d": 250,
      "v": 127
    },
    {
      "midi": 76,
      "hit": false,
      "t": 39000,
      "d": 1000,
      "v": 127
    },
    {
      "midi": 60,
      "hit": false,
      "t": 39000,
      "d": 250,
      "v": 127
    },
    {
      "midi": 64,
      "hit": false,
      "t": 39250,
      "d": 250,
      "v": 127
    },
    {
      "midi": 57,
      "hit": false,
      "t": 39500,
      "d": 250,
      "v": 127
    },
    {
      "midi": 64,
      "hit": false,
      "t": 39750,
      "d": 250,
      "v": 127
    },
    {
      "midi": 88,
      "hit": false,
      "t": 40000,
      "d": 500,
      "v": 127
    },
    {
      "midi": 52,
      "hit": false,
      "t": 40000,
      "d": 1000,
      "v": 127
    },
    {
      "midi": 56,
      "hit": false,
      "t": 40000,
      "d": 1000,
      "v": 127
    },
    {
      "midi": 59,
      "hit": false,
      "t": 40000,
      "d": 1000,
      "v": 127
    },
    {
      "midi": 89,
      "hit": false,
      "t": 40500,
      "d": 500,
      "v": 127
    },
    {
      "midi": 84,
      "hit": false,
      "t": 41000,
      "d": 500,
      "v": 127
    },
    {
      "midi": 57,
      "hit": false,
      "t": 41000,
      "d": 1000,
      "v": 127
    },
    {
      "midi": 60,
      "hit": false,
      "t": 41000,
      "d": 1000,
      "v": 127
    },
    {
      "midi": 86,
      "hit": false,
      "t": 41500,
      "d": 500,
      "v": 127
    },
    {
      "midi": 88,
      "hit": false,
      "t": 42000,
      "d": 500,
      "v": 127
    },
    {
      "midi": 52,
      "hit": false,
      "t": 42000,
      "d": 1000,
      "v": 127
    },
    {
      "midi": 56,
      "hit": false,
      "t": 42000,
      "d": 1000,
      "v": 127
    },
    {
      "midi": 59,
      "hit": false,
      "t": 42000,
      "d": 1000,
      "v": 127
    },
    {
      "midi": 89,
      "hit": false,
      "t": 42500,
      "d": 500,
      "v": 127
    },
    {
      "midi": 84,
      "hit": false,
      "t": 43000,
      "d": 500,
      "v": 127
    },
    {
      "midi": 57,
      "hit": false,
      "t": 43000,
      "d": 1000,
      "v": 127
    },
    {
      "midi": 60,
      "hit": false,
      "t": 43000,
      "d": 1000,
      "v": 127
    },
    {
      "midi": 86,
      "hit": false,
      "t": 43500,
      "d": 500,
      "v": 127
    },
    {
      "midi": 88,
      "hit": false,
      "t": 44000,
      "d": 500,
      "v": 127
    },
    {
      "midi": 52,
      "hit": false,
      "t": 44000,
      "d": 1000,
      "v": 127
    },
    {
      "midi": 56,
      "hit": false,
      "t": 44000,
      "d": 1000,
      "v": 127
    },
    {
      "midi": 59,
      "hit": false,
      "t": 44000,
      "d": 1000,
      "v": 127
    },
    {
      "midi": 89,
      "hit": false,
      "t": 44500,
      "d": 500,
      "v": 127
    },
    {
      "midi": 84,
      "hit": false,
      "t": 45000,
      "d": 500,
      "v": 127
    },
    {
      "midi": 57,
      "hit": false,
      "t": 45000,
      "d": 1000,
      "v": 127
    },
    {
      "midi": 60,
      "hit": false,
      "t": 45000,
      "d": 1000,
      "v": 127
    },
    {
      "midi": 86,
      "hit": false,
      "t": 45500,
      "d": 500,
      "v": 127
    },
    {
      "midi": 88,
      "hit": false,
      "t": 46000,
      "d": 500,
      "v": 127
    },
    {
      "midi": 52,
      "hit": false,
      "t": 46000,
      "d": 1000,
      "v": 127
    },
    {
      "midi": 56,
      "hit": false,
      "t": 46000,
      "d": 1000,
      "v": 127
    },
    {
      "midi": 59,
      "hit": false,
      "t": 46000,
      "d": 1000,
      "v": 127
    },
    {
      "midi": 89,
      "hit": false,
      "t": 46500,
      "d": 500,
      "v": 127
    },
    {
      "midi": 84,
      "hit": false,
      "t": 47000,
      "d": 500,
      "v": 127
    },
    {
      "midi": 57,
      "hit": false,
      "t": 47000,
      "d": 1000,
      "v": 127
    },
    {
      "midi": 60,
      "hit": false,
      "t": 47000,
      "d": 1000,
      "v": 127
    },
    {
      "midi": 86,
      "hit": false,
      "t": 47500,
      "d": 500,
      "v": 127
    },
    {
      "midi": 88,
      "hit": false,
      "t": 48000,
      "d": 1000,
      "v": 127
    },
    {
      "midi": 52,
      "hit": false,
      "t": 48000,
      "d": 1000,
      "v": 127
    },
    {
      "midi": 56,
      "hit": false,
      "t": 48000,
      "d": 1000,
      "v": 127
    },
    {
      "midi": 59,
      "hit": false,
      "t": 48000,
      "d": 1000,
      "v": 127
    },
    {
      "midi": 77,
      "hit": false,
      "t": 50000,
      "d": 1500,
      "v": 127
    },
    {
      "midi": 50,
      "hit": false,
      "t": 50000,
      "d": 2000,
      "v": 127
    },
    {
      "midi": 53,
      "hit": false,
      "t": 50000,
      "d": 2000,
      "v": 127
    },
    {
      "midi": 55,
      "hit": false,
      "t": 50000,
      "d": 2000,
      "v": 127
    },
    {
      "midi": 59,
      "hit": false,
      "t": 50000,
      "d": 2000,
      "v": 127
    },
    {
      "midi": 71,
      "hit": false,
      "t": 51500,
      "d": 500,
      "v": 127
    },
    {
      "midi": 72,
      "hit": false,
      "t": 52000,
      "d": 1000,
      "v": 127
    },
    {
      "midi": 48,
      "hit": false,
      "t": 52500,
      "d": 500,
      "v": 127
    },
    {
      "midi": 52,
      "hit": false,
      "t": 52500,
      "d": 500,
      "v": 127
    },
    {
      "midi": 55,
      "hit": false,
      "t": 52500,
      "d": 500,
      "v": 127
    },
    {
      "midi": 60,
      "hit": false,
      "t": 52500,
      "d": 500,
      "v": 127
    },
    {
      "midi": 48,
      "hit": false,
      "t": 53000,
      "d": 500,
      "v": 127
    },
    {
      "midi": 52,
      "hit": false,
      "t": 53000,
      "d": 500,
      "v": 127
    },
    {
      "midi": 55,
      "hit": false,
      "t": 53000,
      "d": 500,
      "v": 127
    },
    {
      "midi": 60,
      "hit": false,
      "t": 53000,
      "d": 500,
      "v": 127
    },
    {
      "midi": 48,
      "hit": false,
      "t": 53500,
      "d": 500,
      "v": 127
    },
    {
      "midi": 52,
      "hit": false,
      "t": 53500,
      "d": 500,
      "v": 127
    },
    {
      "midi": 55,
      "hit": false,
      "t": 53500,
      "d": 500,
      "v": 127
    },
    {
      "midi": 60,
      "hit": false,
      "t": 53500,
      "d": 500,
      "v": 127
    },
    {
      "midi": 50,
      "hit": false,
      "t": 54000,
      "d": 2000,
      "v": 127
    },
    {
      "midi": 53,
      "hit": false,
      "t": 54000,
      "d": 2000,
      "v": 127
    },
    {
      "midi": 55,
      "hit": false,
      "t": 54000,
      "d": 2000,
      "v": 127
    },
    {
      "midi": 59,
      "hit": false,
      "t": 54000,
      "d": 2000,
      "v": 127
    },
    {
      "midi": 77,
      "hit": false,
      "t": 54500,
      "d": 500,
      "v": 127
    },
    {
      "midi": 69,
      "hit": false,
      "t": 55000,
      "d": 500,
      "v": 127
    },
    {
      "midi": 71,
      "hit": false,
      "t": 55500,
      "d": 500,
      "v": 127
    },
    {
      "midi": 74,
      "hit": false,
      "t": 56000,
      "d": 500,
      "v": 127
    },
    {
      "midi": 72,
      "hit": false,
      "t": 56500,
      "d": 500,
      "v": 127
    },
    {
      "midi": 48,
      "hit": false,
      "t": 56500,
      "d": 500,
      "v": 127
    },
    {
      "midi": 52,
      "hit": false,
      "t": 56500,
      "d": 500,
      "v": 127
    },
    {
      "midi": 55,
      "hit": false,
      "t": 56500,
      "d": 500,
      "v": 127
    },
    {
      "midi": 60,
      "hit": false,
      "t": 56500,
      "d": 500,
      "v": 127
    },
    {
      "midi": 48,
      "hit": false,
      "t": 57000,
      "d": 500,
      "v": 127
    },
    {
      "midi": 52,
      "hit": false,
      "t": 57000,
      "d": 500,
      "v": 127
    },
    {
      "midi": 55,
      "hit": false,
      "t": 57000,
      "d": 500,
      "v": 127
    },
    {
      "midi": 60,
      "hit": false,
      "t": 57000,
      "d": 500,
      "v": 127
    },
    {
      "midi": 72,
      "hit": false,
      "t": 57500,
      "d": 500,
      "v": 127
    },
    {
      "midi": 48,
      "hit": false,
      "t": 57500,
      "d": 500,
      "v": 127
    },
    {
      "midi": 52,
      "hit": false,
      "t": 57500,
      "d": 500,
      "v": 127
    },
    {
      "midi": 55,
      "hit": false,
      "t": 57500,
      "d": 500,
      "v": 127
    },
    {
      "midi": 60,
      "hit": false,
      "t": 57500,
      "d": 500,
      "v": 127
    },
    {
      "midi": 71,
      "hit": false,
      "t": 58000,
      "d": 500,
      "v": 127
    },
    {
      "midi": 50,
      "hit": false,
      "t": 58000,
      "d": 2000,
      "v": 127
    },
    {
      "midi": 53,
      "hit": false,
      "t": 58000,
      "d": 2000,
      "v": 127
    },
    {
      "midi": 55,
      "hit": false,
      "t": 58000,
      "d": 2000,
      "v": 127
    },
    {
      "midi": 59,
      "hit": false,
      "t": 58000,
      "d": 2000,
      "v": 127
    },
    {
      "midi": 77,
      "hit": false,
      "t": 58500,
      "d": 500,
      "v": 127
    },
    {
      "midi": 69,
      "hit": false,
      "t": 59000,
      "d": 500,
      "v": 127
    },
    {
      "midi": 71,
      "hit": false,
      "t": 59500,
      "d": 500,
      "v": 127
    },
    {
      "midi": 74,
      "hit": false,
      "t": 60000,
      "d": 500,
      "v": 127
    },
    {
      "midi": 72,
      "hit": false,
      "t": 60500,
      "d": 500,
      "v": 127
    },
    {
      "midi": 48,
      "hit": false,
      "t": 60500,
      "d": 500,
      "v": 127
    },
    {
      "midi": 52,
      "hit": false,
      "t": 60500,
      "d": 500,
      "v": 127
    },
    {
      "midi": 55,
      "hit": false,
      "t": 60500,
      "d": 500,
      "v": 127
    },
    {
      "midi": 60,
      "hit": false,
      "t": 60500,
      "d": 500,
      "v": 127
    },
    {
      "midi": 48,
      "hit": false,
      "t": 61000,
      "d": 1000,
      "v": 127
    },
    {
      "midi": 52,
      "hit": false,
      "t": 61000,
      "d": 1000,
      "v": 127
    },
    {
      "midi": 55,
      "hit": false,
      "t": 61000,
      "d": 1000,
      "v": 127
    },
    {
      "midi": 58,
      "hit": false,
      "t": 61000,
      "d": 1000,
      "v": 127
    },
    {
      "midi": 60,
      "hit": false,
      "t": 61000,
      "d": 1000,
      "v": 127
    },
    {
      "midi": 70,
      "hit": false,
      "t": 61500,
      "d": 250,
      "v": 127
    },
    {
      "midi": 70,
      "hit": false,
      "t": 61750,
      "d": 250,
      "v": 127
    },
    {
      "midi": 74,
      "hit": false,
      "t": 62000,
      "d": 1000,
      "v": 127
    },
    {
      "midi": 72,
      "hit": false,
      "t": 63000,
      "d": 750,
      "v": 127
    },
    {
      "midi": 68,
      "hit": false,
      "t": 63750,
      "d": 250,
      "v": 127
    },
    {
      "midi": 69,
      "hit": false,
      "t": 64000,
      "d": 1000,
      "v": 127
    },
    {
      "midi": 57,
      "hit": false,
      "t": 65000,
      "d": 1000,
      "v": 127
    },
    {
      "midi": 60,
      "hit": false,
      "t": 65000,
      "d": 1000,
      "v": 127
    },
    {
      "midi": 65,
      "hit": false,
      "t": 65000,
      "d": 1000,
      "v": 127
    },
    {
      "midi": 53,
      "hit": false,
      "t": 65000,
      "d": 1000,
      "v": 127
    },
    {
      "midi": 77,
      "hit": false,
      "t": 66000,
      "d": 1000,
      "v": 127
    },
    {
      "midi": 77,
      "hit": false,
      "t": 67000,
      "d": 750,
      "v": 127
    },
    {
      "midi": 77,
      "hit": false,
      "t": 67750,
      "d": 250,
      "v": 127
    },
    {
      "midi": 77,
      "hit": false,
      "t": 68000,
      "d": 1000,
      "v": 127
    },
    {
      "midi": 56,
      "hit": false,
      "t": 68000,
      "d": 2000,
      "v": 127
    },
    {
      "midi": 61,
      "hit": false,
      "t": 68000,
      "d": 2000,
      "v": 127
    },
    {
      "midi": 65,
      "hit": false,
      "t": 68000,
      "d": 2000,
      "v": 127
    },
    {
      "midi": 77,
      "hit": false,
      "t": 69000,
      "d": 500,
      "v": 127
    },
    {
      "midi": 78,
      "hit": false,
      "t": 69500,
      "d": 500,
      "v": 127
    },
    {
      "midi": 77,
      "hit": false,
      "t": 70000,
      "d": 500,
      "v": 127
    },
    {
      "midi": 54,
      "hit": false,
      "t": 70000,
      "d": 2000,
      "v": 127
    },
    {
      "midi": 56,
      "hit": false,
      "t": 70000,
      "d": 2000,
      "v": 127
    },
    {
      "midi": 60,
      "hit": false,
      "t": 70000,
      "d": 2000,
      "v": 127
    },
    {
      "midi": 63,
      "hit": false,
      "t": 70000,
      "d": 2000,
      "v": 127
    },
    {
      "midi": 75,
      "hit": false,
      "t": 70500,
      "d": 500,
      "v": 127
    },
    {
      "midi": 70,
      "hit": false,
      "t": 71000,
      "d": 500,
      "v": 127
    },
    {
      "midi": 72,
      "hit": false,
      "t": 71500,
      "d": 500,
      "v": 127
    },
    {
      "midi": 75,
      "hit": false,
      "t": 72000,
      "d": 1000,
      "v": 127
    },
    {
      "midi": 53,
      "hit": false,
      "t": 72000,
      "d": 4000,
      "v": 127
    },
    {
      "midi": 56,
      "hit": false,
      "t": 72000,
      "d": 4000,
      "v": 127
    },
    {
      "midi": 61,
      "hit": false,
      "t": 72000,
      "d": 4000,
      "v": 127
    },
    {
      "midi": 73,
      "hit": false,
      "t": 73000,
      "d": 1000,
      "v": 127
    },
    {
      "midi": 73,
      "hit": false,
      "t": 75000,
      "d": 750,
      "v": 127
    },
    {
      "midi": 73,
      "hit": false,
      "t": 75750,
      "d": 250,
      "v": 127
    },
    {
      "midi": 73,
      "hit": false,
      "t": 76000,
      "d": 1000,
      "v": 127
    },
    {
      "midi": 52,
      "hit": false,
      "t": 76000,
      "d": 4000,
      "v": 127
    },
    {
      "midi": 56,
      "hit": false,
      "t": 76000,
      "d": 4000,
      "v": 127
    },
    {
      "midi": 61,
      "hit": false,
      "t": 76000,
      "d": 4000,
      "v": 127
    },
    {
      "midi": 73,
      "hit": false,
      "t": 77000,
      "d": 750,
      "v": 127
    },
    {
      "midi": 73,
      "hit": false,
      "t": 77750,
      "d": 250,
      "v": 127
    },
    {
      "midi": 73,
      "hit": false,
      "t": 78000,
      "d": 500,
      "v": 127
    },
    {
      "midi": 73,
      "hit": false,
      "t": 78500,
      "d": 500,
      "v": 127
    },
    {
      "midi": 73,
      "hit": false,
      "t": 79000,
      "d": 500,
      "v": 127
    },
    {
      "midi": 73,
      "hit": false,
      "t": 79500,
      "d": 500,
      "v": 127
    },
    {
      "midi": 72,
      "hit": false,
      "t": 80000,
      "d": 1000,
      "v": 127
    },
    {
      "midi": 51,
      "hit": false,
      "t": 80000,
      "d": 2000,
      "v": 127
    },
    {
      "midi": 56,
      "hit": false,
      "t": 80000,
      "d": 2000,
      "v": 127
    },
    {
      "midi": 60,
      "hit": false,
      "t": 80000,
      "d": 2000,
      "v": 127
    },
    {
      "midi": 72,
      "hit": false,
      "t": 81000,
      "d": 1000,
      "v": 127
    },
    {
      "midi": 70,
      "hit": false,
      "t": 82000,
      "d": 500,
      "v": 127
    },
    {
      "midi": 49,
      "hit": false,
      "t": 82000,
      "d": 2000,
      "v": 127
    },
    {
      "midi": 51,
      "hit": false,
      "t": 82000,
      "d": 2000,
      "v": 127
    },
    {
      "midi": 55,
      "hit": false,
      "t": 82000,
      "d": 2000,
      "v": 127
    },
    {
      "midi": 58,
      "hit": false,
      "t": 82000,
      "d": 2000,
      "v": 127
    },
    {
      "midi": 69,
      "hit": false,
      "t": 82500,
      "d": 250,
      "v": 127
    },
    {
      "midi": 70,
      "hit": false,
      "t": 82750,
      "d": 250,
      "v": 127
    },
    {
      "midi": 72,
      "hit": false,
      "t": 83000,
      "d": 500,
      "v": 127
    },
    {
      "midi": 73,
      "hit": false,
      "t": 83500,
      "d": 500,
      "v": 127
    },
    {
      "midi": 75,
      "hit": false,
      "t": 84000,
      "d": 2000,
      "v": 127
    },
    {
      "midi": 48,
      "hit": false,
      "t": 84000,
      "d": 4000,
      "v": 127
    },
    {
      "midi": 51,
      "hit": false,
      "t": 84000,
      "d": 4000,
      "v": 127
    },
    {
      "midi": 56,
      "hit": false,
      "t": 84000,
      "d": 4000,
      "v": 127
    },
    {
      "midi": 60,
      "hit": false,
      "t": 84000,
      "d": 4000,
      "v": 127
    },
    {
      "midi": 80,
      "hit": false,
      "t": 86000,
      "d": 2000,
      "v": 127
    },
    {
      "midi": 79,
      "hit": false,
      "t": 88000,
      "d": 500,
      "v": 127
    },
    {
      "midi": 49,
      "hit": false,
      "t": 88000,
      "d": 2000,
      "v": 127
    },
    {
      "midi": 53,
      "hit": false,
      "t": 88000,
      "d": 2000,
      "v": 127
    },
    {
      "midi": 56,
      "hit": false,
      "t": 88000,
      "d": 2000,
      "v": 127
    },
    {
      "midi": 61,
      "hit": false,
      "t": 88000,
      "d": 2000,
      "v": 127
    },
    {
      "midi": 77,
      "hit": false,
      "t": 88500,
      "d": 500,
      "v": 127
    },
    {
      "midi": 75,
      "hit": false,
      "t": 89000,
      "d": 500,
      "v": 127
    },
    {
      "midi": 73,
      "hit": false,
      "t": 89500,
      "d": 500,
      "v": 127
    },
    {
      "midi": 72,
      "hit": false,
      "t": 90000,
      "d": 500,
      "v": 127
    },
    {
      "midi": 70,
      "hit": false,
      "t": 90500,
      "d": 500,
      "v": 127
    },
    {
      "midi": 73,
      "hit": false,
      "t": 91000,
      "d": 500,
      "v": 127
    },
    {
      "midi": 77,
      "hit": false,
      "t": 91500,
      "d": 500,
      "v": 127
    },
    {
      "midi": 68,
      "hit": false,
      "t": 92000,
      "d": 1000,
      "v": 127
    },
    {
      "midi": 51,
      "hit": false,
      "t": 92000,
      "d": 2000,
      "v": 127
    },
    {
      "midi": 56,
      "hit": false,
      "t": 92000,
      "d": 2000,
      "v": 127
    },
    {
      "midi": 60,
      "hit": false,
      "t": 92000,
      "d": 2000,
      "v": 127
    },
    {
      "midi": 67,
      "hit": false,
      "t": 93000,
      "d": 500,
      "v": 127
    },
    {
      "midi": 68,
      "hit": false,
      "t": 93000,
      "d": 500,
      "v": 127
    },
    {
      "midi": 70,
      "hit": false,
      "t": 93000,
      "d": 500,
      "v": 127
    },
    {
      "midi": 68,
      "hit": false,
      "t": 93500,
      "d": 500,
      "v": 127
    },
    {
      "midi": 72,
      "hit": false,
      "t": 94000,
      "d": 1500,
      "v": 127
    },
    {
      "midi": 51,
      "hit": false,
      "t": 94000,
      "d": 2000,
      "v": 127
    },
    {
      "midi": 55,
      "hit": false,
      "t": 94000,
      "d": 2000,
      "v": 127
    },
    {
      "midi": 58,
      "hit": false,
      "t": 94000,
      "d": 2000,
      "v": 127
    },
    {
      "midi": 61,
      "hit": false,
      "t": 94000,
      "d": 2000,
      "v": 127
    },
    {
      "midi": 70,
      "hit": false,
      "t": 95500,
      "d": 500,
      "v": 127
    },
    {
      "midi": 68,
      "hit": false,
      "t": 96000,
      "d": 1000,
      "v": 127
    },
    {
      "midi": 56,
      "hit": false,
      "t": 96000,
      "d": 1000,
      "v": 127
    },
    {
      "midi": 60,
      "hit": false,
      "t": 96000,
      "d": 1000,
      "v": 127
    },
    {
      "midi": 63,
      "hit": false,
      "t": 97500,
      "d": 500,
      "v": 127
    },
    {
      "midi": 33,
      "hit": false,
      "t": 97500,
      "d": 500,
      "v": 127
    },
    {
      "midi": 45,
      "hit": false,
      "t": 97500,
      "d": 500,
      "v": 127
    },
    {
      "midi": 58,
      "hit": false,
      "t": 98000,
      "d": 1000,
      "v": 127
    },
    {
      "midi": 34,
      "hit": false,
      "t": 98000,
      "d": 1000,
      "v": 127
    },
    {
      "midi": 46,
      "hit": false,
      "t": 98000,
      "d": 1000,
      "v": 127
    },
    {
      "midi": 63,
      "hit": false,
      "t": 99500,
      "d": 500,
      "v": 127
    },
    {
      "midi": 35,
      "hit": false,
      "t": 99500,
      "d": 500,
      "v": 127
    },
    {
      "midi": 47,
      "hit": false,
      "t": 99500,
      "d": 500,
      "v": 127
    },
    {
      "midi": 58,
      "hit": false,
      "t": 100000,
      "d": 1000,
      "v": 127
    },
    {
      "midi": 34,
      "hit": false,
      "t": 100000,
      "d": 1000,
      "v": 127
    },
    {
      "midi": 46,
      "hit": false,
      "t": 100000,
      "d": 1000,
      "v": 127
    },
    {
      "midi": 53,
      "hit": false,
      "t": 102000,
      "d": 1000,
      "v": 127
    },
    {
      "midi": 56,
      "hit": false,
      "t": 102000,
      "d": 1000,
      "v": 127
    },
    {
      "midi": 62,
      "hit": false,
      "t": 102000,
      "d": 1000,
      "v": 127
    },
    {
      "midi": 34,
      "hit": false,
      "t": 102000,
      "d": 1000,
      "v": 127
    },
    {
      "midi": 46,
      "hit": false,
      "t": 102000,
      "d": 1000,
      "v": 127
    },
    {
      "midi": 51,
      "hit": false,
      "t": 104000,
      "d": 250,
      "v": 127
    },
    {
      "midi": 55,
      "hit": false,
      "t": 104250,
      "d": 250,
      "v": 127
    },
    {
      "midi": 58,
      "hit": false,
      "t": 104250,
      "d": 250,
      "v": 127
    },
    {
      "midi": 55,
      "hit": false,
      "t": 104500,
      "d": 250,
      "v": 127
    },
    {
      "midi": 58,
      "hit": false,
      "t": 104500,
      "d": 250,
      "v": 127
    },
    {
      "midi": 55,
      "hit": false,
      "t": 104750,
      "d": 250,
      "v": 127
    },
    {
      "midi": 58,
      "hit": false,
      "t": 104750,
      "d": 250,
      "v": 127
    },
    {
      "midi": 51,
      "hit": false,
      "t": 105000,
      "d": 250,
      "v": 127
    },
    {
      "midi": 55,
      "hit": false,
      "t": 105250,
      "d": 250,
      "v": 127
    },
    {
      "midi": 58,
      "hit": false,
      "t": 105250,
      "d": 250,
      "v": 127
    },
    {
      "midi": 55,
      "hit": false,
      "t": 105500,
      "d": 250,
      "v": 127
    },
    {
      "midi": 58,
      "hit": false,
      "t": 105500,
      "d": 250,
      "v": 127
    },
    {
      "midi": 55,
      "hit": false,
      "t": 105750,
      "d": 250,
      "v": 127
    },
    {
      "midi": 58,
      "hit": false,
      "t": 105750,
      "d": 250,
      "v": 127
    },
    {
      "midi": 51,
      "hit": false,
      "t": 106000,
      "d": 250,
      "v": 127
    },
    {
      "midi": 55,
      "hit": false,
      "t": 106250,
      "d": 250,
      "v": 127
    },
    {
      "midi": 58,
      "hit": false,
      "t": 106250,
      "d": 250,
      "v": 127
    },
    {
      "midi": 55,
      "hit": false,
      "t": 106500,
      "d": 250,
      "v": 127
    },
    {
      "midi": 58,
      "hit": false,
      "t": 106500,
      "d": 250,
      "v": 127
    },
    {
      "midi": 55,
      "hit": false,
      "t": 106750,
      "d": 250,
      "v": 127
    },
    {
      "midi": 58,
      "hit": false,
      "t": 106750,
      "d": 250,
      "v": 127
    },
    {
      "midi": 70,
      "hit": false,
      "t": 107000,
      "d": 1000,
      "v": 127
    },
    {
      "midi": 51,
      "hit": false,
      "t": 107000,
      "d": 250,
      "v": 127
    },
    {
      "midi": 55,
      "hit": false,
      "t": 107250,
      "d": 250,
      "v": 127
    },
    {
      "midi": 58,
      "hit": false,
      "t": 107250,
      "d": 250,
      "v": 127
    },
    {
      "midi": 55,
      "hit": false,
      "t": 107500,
      "d": 250,
      "v": 127
    },
    {
      "midi": 58,
      "hit": false,
      "t": 107500,
      "d": 250,
      "v": 127
    },
    {
      "midi": 55,
      "hit": false,
      "t": 107750,
      "d": 250,
      "v": 127
    },
    {
      "midi": 58,
      "hit": false,
      "t": 107750,
      "d": 250,
      "v": 127
    },
    {
      "midi": 67,
      "hit": false,
      "t": 108000,
      "d": 750,
      "v": 127
    },
    {
      "midi": 51,
      "hit": false,
      "t": 108000,
      "d": 250,
      "v": 127
    },
    {
      "midi": 55,
      "hit": false,
      "t": 108250,
      "d": 250,
      "v": 127
    },
    {
      "midi": 58,
      "hit": false,
      "t": 108250,
      "d": 250,
      "v": 127
    },
    {
      "midi": 55,
      "hit": false,
      "t": 108500,
      "d": 250,
      "v": 127
    },
    {
      "midi": 58,
      "hit": false,
      "t": 108500,
      "d": 250,
      "v": 127
    },
    {
      "midi": 70,
      "hit": false,
      "t": 108750,
      "d": 250,
      "v": 127
    },
    {
      "midi": 55,
      "hit": false,
      "t": 108750,
      "d": 250,
      "v": 127
    },
    {
      "midi": 58,
      "hit": false,
      "t": 108750,
      "d": 250,
      "v": 127
    },
    {
      "midi": 72,
      "hit": false,
      "t": 109000,
      "d": 750,
      "v": 127
    },
    {
      "midi": 51,
      "hit": false,
      "t": 109000,
      "d": 250,
      "v": 127
    },
    {
      "midi": 55,
      "hit": false,
      "t": 109250,
      "d": 250,
      "v": 127
    },
    {
      "midi": 58,
      "hit": false,
      "t": 109250,
      "d": 250,
      "v": 127
    },
    {
      "midi": 55,
      "hit": false,
      "t": 109500,
      "d": 250,
      "v": 127
    },
    {
      "midi": 58,
      "hit": false,
      "t": 109500,
      "d": 250,
      "v": 127
    },
    {
      "midi": 70,
      "hit": false,
      "t": 109750,
      "d": 250,
      "v": 127
    },
    {
      "midi": 55,
      "hit": false,
      "t": 109750,
      "d": 250,
      "v": 127
    },
    {
      "midi": 58,
      "hit": false,
      "t": 109750,
      "d": 250,
      "v": 127
    },
    {
      "midi": 67,
      "hit": false,
      "t": 110000,
      "d": 750,
      "v": 127
    },
    {
      "midi": 51,
      "hit": false,
      "t": 110000,
      "d": 250,
      "v": 127
    },
    {
      "midi": 55,
      "hit": false,
      "t": 110250,
      "d": 250,
      "v": 127
    },
    {
      "midi": 58,
      "hit": false,
      "t": 110250,
      "d": 250,
      "v": 127
    },
    {
      "midi": 55,
      "hit": false,
      "t": 110500,
      "d": 250,
      "v": 127
    },
    {
      "midi": 58,
      "hit": false,
      "t": 110500,
      "d": 250,
      "v": 127
    },
    {
      "midi": 68,
      "hit": false,
      "t": 110750,
      "d": 250,
      "v": 127
    },
    {
      "midi": 55,
      "hit": false,
      "t": 110750,
      "d": 250,
      "v": 127
    },
    {
      "midi": 58,
      "hit": false,
      "t": 110750,
      "d": 250,
      "v": 127
    },
    {
      "midi": 67,
      "hit": false,
      "t": 111000,
      "d": 1000,
      "v": 127
    },
    {
      "midi": 51,
      "hit": false,
      "t": 111000,
      "d": 250,
      "v": 127
    },
    {
      "midi": 55,
      "hit": false,
      "t": 111250,
      "d": 250,
      "v": 127
    },
    {
      "midi": 58,
      "hit": false,
      "t": 111250,
      "d": 250,
      "v": 127
    },
    {
      "midi": 55,
      "hit": false,
      "t": 111500,
      "d": 250,
      "v": 127
    },
    {
      "midi": 58,
      "hit": false,
      "t": 111500,
      "d": 250,
      "v": 127
    },
    {
      "midi": 55,
      "hit": false,
      "t": 111750,
      "d": 250,
      "v": 127
    },
    {
      "midi": 58,
      "hit": false,
      "t": 111750,
      "d": 250,
      "v": 127
    },
    {
      "midi": 51,
      "hit": false,
      "t": 112000,
      "d": 250,
      "v": 127
    },
    {
      "midi": 55,
      "hit": false,
      "t": 112250,
      "d": 250,
      "v": 127
    },
    {
      "midi": 58,
      "hit": false,
      "t": 112250,
      "d": 250,
      "v": 127
    },
    {
      "midi": 55,
      "hit": false,
      "t": 112500,
      "d": 250,
      "v": 127
    },
    {
      "midi": 59,
      "hit": false,
      "t": 112500,
      "d": 250,
      "v": 127
    },
    {
      "midi": 55,
      "hit": false,
      "t": 112750,
      "d": 250,
      "v": 127
    },
    {
      "midi": 60,
      "hit": false,
      "t": 112750,
      "d": 250,
      "v": 127
    },
    {
      "midi": 72,
      "hit": false,
      "t": 113000,
      "d": 1000,
      "v": 127
    },
    {
      "midi": 53,
      "hit": false,
      "t": 113000,
      "d": 250,
      "v": 127
    },
    {
      "midi": 56,
      "hit": false,
      "t": 113250,
      "d": 250,
      "v": 127
    },
    {
      "midi": 60,
      "hit": false,
      "t": 113250,
      "d": 250,
      "v": 127
    },
    {
      "midi": 56,
      "hit": false,
      "t": 113500,
      "d": 250,
      "v": 127
    },
    {
      "midi": 60,
      "hit": false,
      "t": 113500,
      "d": 250,
      "v": 127
    },
    {
      "midi": 56,
      "hit": false,
      "t": 113750,
      "d": 250,
      "v": 127
    },
    {
      "midi": 60,
      "hit": false,
      "t": 113750,
      "d": 250,
      "v": 127
    },
    {
      "midi": 68,
      "hit": false,
      "t": 114000,
      "d": 750,
      "v": 127
    },
    {
      "midi": 53,
      "hit": false,
      "t": 114000,
      "d": 250,
      "v": 127
    },
    {
      "midi": 56,
      "hit": false,
      "t": 114250,
      "d": 250,
      "v": 127
    },
    {
      "midi": 60,
      "hit": false,
      "t": 114250,
      "d": 250,
      "v": 127
    },
    {
      "midi": 56,
      "hit": false,
      "t": 114500,
      "d": 250,
      "v": 127
    },
    {
      "midi": 60,
      "hit": false,
      "t": 114500,
      "d": 250,
      "v": 127
    },
    {
      "midi": 72,
      "hit": false,
      "t": 114750,
      "d": 250,
      "v": 127
    },
    {
      "midi": 56,
      "hit": false,
      "t": 114750,
      "d": 250,
      "v": 127
    },
    {
      "midi": 60,
      "hit": false,
      "t": 114750,
      "d": 250,
      "v": 127
    },
    {
      "midi": 73,
      "hit": false,
      "t": 115000,
      "d": 750,
      "v": 127
    },
    {
      "midi": 53,
      "hit": false,
      "t": 115000,
      "d": 250,
      "v": 127
    },
    {
      "midi": 56,
      "hit": false,
      "t": 115250,
      "d": 250,
      "v": 127
    },
    {
      "midi": 60,
      "hit": false,
      "t": 115250,
      "d": 250,
      "v": 127
    },
    {
      "midi": 56,
      "hit": false,
      "t": 115500,
      "d": 250,
      "v": 127
    },
    {
      "midi": 60,
      "hit": false,
      "t": 115500,
      "d": 250,
      "v": 127
    },
    {
      "midi": 72,
      "hit": false,
      "t": 115750,
      "d": 250,
      "v": 127
    },
    {
      "midi": 56,
      "hit": false,
      "t": 115750,
      "d": 250,
      "v": 127
    },
    {
      "midi": 60,
      "hit": false,
      "t": 115750,
      "d": 250,
      "v": 127
    },
    {
      "midi": 68,
      "hit": false,
      "t": 116000,
      "d": 750,
      "v": 127
    },
    {
      "midi": 53,
      "hit": false,
      "t": 116000,
      "d": 250,
      "v": 127
    },
    {
      "midi": 56,
      "hit": false,
      "t": 116250,
      "d": 250,
      "v": 127
    },
    {
      "midi": 60,
      "hit": false,
      "t": 116250,
      "d": 250,
      "v": 127
    },
    {
      "midi": 56,
      "hit": false,
      "t": 116500,
      "d": 250,
      "v": 127
    },
    {
      "midi": 60,
      "hit": false,
      "t": 116500,
      "d": 250,
      "v": 127
    },
    {
      "midi": 70,
      "hit": false,
      "t": 116750,
      "d": 250,
      "v": 127
    },
    {
      "midi": 56,
      "hit": false,
      "t": 116750,
      "d": 250,
      "v": 127
    },
    {
      "midi": 60,
      "hit": false,
      "t": 116750,
      "d": 250,
      "v": 127
    },
    {
      "midi": 68,
      "hit": false,
      "t": 117000,
      "d": 1000,
      "v": 127
    },
    {
      "midi": 53,
      "hit": false,
      "t": 117000,
      "d": 250,
      "v": 127
    },
    {
      "midi": 56,
      "hit": false,
      "t": 117250,
      "d": 250,
      "v": 127
    },
    {
      "midi": 60,
      "hit": false,
      "t": 117250,
      "d": 250,
      "v": 127
    },
    {
      "midi": 56,
      "hit": false,
      "t": 117500,
      "d": 250,
      "v": 127
    },
    {
      "midi": 60,
      "hit": false,
      "t": 117500,
      "d": 250,
      "v": 127
    },
    {
      "midi": 56,
      "hit": false,
      "t": 117750,
      "d": 250,
      "v": 127
    },
    {
      "midi": 60,
      "hit": false,
      "t": 117750,
      "d": 250,
      "v": 127
    },
    {
      "midi": 53,
      "hit": false,
      "t": 118000,
      "d": 250,
      "v": 127
    },
    {
      "midi": 56,
      "hit": false,
      "t": 118250,
      "d": 250,
      "v": 127
    },
    {
      "midi": 60,
      "hit": false,
      "t": 118250,
      "d": 250,
      "v": 127
    },
    {
      "midi": 56,
      "hit": false,
      "t": 118500,
      "d": 250,
      "v": 127
    },
    {
      "midi": 61,
      "hit": false,
      "t": 118500,
      "d": 250,
      "v": 127
    },
    {
      "midi": 56,
      "hit": false,
      "t": 118750,
      "d": 250,
      "v": 127
    },
    {
      "midi": 62,
      "hit": false,
      "t": 118750,
      "d": 250,
      "v": 127
    },
    {
      "midi": 74,
      "hit": false,
      "t": 119000,
      "d": 1000,
      "v": 127
    },
    {
      "midi": 58,
      "hit": false,
      "t": 119000,
      "d": 250,
      "v": 127
    },
    {
      "midi": 62,
      "hit": false,
      "t": 119250,
      "d": 250,
      "v": 127
    },
    {
      "midi": 65,
      "hit": false,
      "t": 119250,
      "d": 250,
      "v": 127
    },
    {
      "midi": 62,
      "hit": false,
      "t": 119500,
      "d": 250,
      "v": 127
    },
    {
      "midi": 65,
      "hit": false,
      "t": 119500,
      "d": 250,
      "v": 127
    },
    {
      "midi": 62,
      "hit": false,
      "t": 119750,
      "d": 250,
      "v": 127
    },
    {
      "midi": 65,
      "hit": false,
      "t": 119750,
      "d": 250,
      "v": 127
    },
    {
      "midi": 74,
      "hit": false,
      "t": 120000,
      "d": 750,
      "v": 127
    },
    {
      "midi": 58,
      "hit": false,
      "t": 120000,
      "d": 250,
      "v": 127
    },
    {
      "midi": 62,
      "hit": false,
      "t": 120250,
      "d": 250,
      "v": 127
    },
    {
      "midi": 65,
      "hit": false,
      "t": 120250,
      "d": 250,
      "v": 127
    },
    {
      "midi": 62,
      "hit": false,
      "t": 120500,
      "d": 250,
      "v": 127
    },
    {
      "midi": 65,
      "hit": false,
      "t": 120500,
      "d": 250,
      "v": 127
    },
    {
      "midi": 74,
      "hit": false,
      "t": 120750,
      "d": 250,
      "v": 127
    },
    {
      "midi": 62,
      "hit": false,
      "t": 120750,
      "d": 250,
      "v": 127
    },
    {
      "midi": 65,
      "hit": false,
      "t": 120750,
      "d": 250,
      "v": 127
    },
    {
      "midi": 75,
      "hit": false,
      "t": 121000,
      "d": 750,
      "v": 127
    },
    {
      "midi": 55,
      "hit": false,
      "t": 121000,
      "d": 250,
      "v": 127
    },
    {
      "midi": 58,
      "hit": false,
      "t": 121250,
      "d": 250,
      "v": 127
    },
    {
      "midi": 63,
      "hit": false,
      "t": 121250,
      "d": 250,
      "v": 127
    },
    {
      "midi": 58,
      "hit": false,
      "t": 121500,
      "d": 250,
      "v": 127
    },
    {
      "midi": 63,
      "hit": false,
      "t": 121500,
      "d": 250,
      "v": 127
    },
    {
      "midi": 75,
      "hit": false,
      "t": 121750,
      "d": 250,
      "v": 127
    },
    {
      "midi": 58,
      "hit": false,
      "t": 121750,
      "d": 250,
      "v": 127
    },
    {
      "midi": 63,
      "hit": false,
      "t": 121750,
      "d": 250,
      "v": 127
    },
    {
      "midi": 72,
      "hit": false,
      "t": 122000,
      "d": 500,
      "v": 127
    },
    {
      "midi": 56,
      "hit": false,
      "t": 122000,
      "d": 250,
      "v": 127
    },
    {
      "midi": 60,
      "hit": false,
      "t": 122250,
      "d": 250,
      "v": 127
    },
    {
      "midi": 63,
      "hit": false,
      "t": 122250,
      "d": 250,
      "v": 127
    },
    {
      "midi": 74,
      "hit": false,
      "t": 122500,
      "d": 250,
      "v": 127
    },
    {
      "midi": 60,
      "hit": false,
      "t": 122500,
      "d": 250,
      "v": 127
    },
    {
      "midi": 63,
      "hit": false,
      "t": 122500,
      "d": 250,
      "v": 127
    },
    {
      "midi": 75,
      "hit": false,
      "t": 122750,
      "d": 250,
      "v": 127
    },
    {
      "midi": 60,
      "hit": false,
      "t": 122750,
      "d": 250,
      "v": 127
    },
    {
      "midi": 63,
      "hit": false,
      "t": 122750,
      "d": 250,
      "v": 127
    },
    {
      "midi": 77,
      "hit": false,
      "t": 123000,
      "d": 1500,
      "v": 127
    },
    {
      "midi": 56,
      "hit": false,
      "t": 123000,
      "d": 250,
      "v": 127
    },
    {
      "midi": 60,
      "hit": false,
      "t": 123250,
      "d": 250,
      "v": 127
    },
    {
      "midi": 65,
      "hit": false,
      "t": 123250,
      "d": 250,
      "v": 127
    },
    {
      "midi": 60,
      "hit": false,
      "t": 123500,
      "d": 250,
      "v": 127
    },
    {
      "midi": 65,
      "hit": false,
      "t": 123500,
      "d": 250,
      "v": 127
    },
    {
      "midi": 60,
      "hit": false,
      "t": 123750,
      "d": 250,
      "v": 127
    },
    {
      "midi": 65,
      "hit": false,
      "t": 123750,
      "d": 250,
      "v": 127
    },
    {
      "midi": 57,
      "hit": false,
      "t": 124000,
      "d": 250,
      "v": 127
    },
    {
      "midi": 60,
      "hit": false,
      "t": 124250,
      "d": 250,
      "v": 127
    },
    {
      "midi": 63,
      "hit": false,
      "t": 124250,
      "d": 250,
      "v": 127
    },
    {
      "midi": 66,
      "hit": false,
      "t": 124250,
      "d": 250,
      "v": 127
    },
    {
      "midi": 78,
      "hit": false,
      "t": 124500,
      "d": 500,
      "v": 127
    },
    {
      "midi": 60,
      "hit": false,
      "t": 124500,
      "d": 250,
      "v": 127
    },
    {
      "midi": 63,
      "hit": false,
      "t": 124500,
      "d": 250,
      "v": 127
    },
    {
      "midi": 66,
      "hit": false,
      "t": 124500,
      "d": 250,
      "v": 127
    },
    {
      "midi": 60,
      "hit": false,
      "t": 124750,
      "d": 250,
      "v": 127
    },
    {
      "midi": 63,
      "hit": false,
      "t": 124750,
      "d": 250,
      "v": 127
    },
    {
      "midi": 66,
      "hit": false,
      "t": 124750,
      "d": 250,
      "v": 127
    },
    {
      "midi": 79,
      "hit": false,
      "t": 125000,
      "d": 250,
      "v": 127
    },
    {
      "midi": 46,
      "hit": false,
      "t": 125000,
      "d": 250,
      "v": 127
    },
    {
      "midi": 74,
      "hit": false,
      "t": 125250,
      "d": 250,
      "v": 127
    },
    {
      "midi": 51,
      "hit": false,
      "t": 125250,
      "d": 250,
      "v": 127
    },
    {
      "midi": 55,
      "hit": false,
      "t": 125250,
      "d": 250,
      "v": 127
    },
    {
      "midi": 58,
      "hit": false,
      "t": 125250,
      "d": 250,
      "v": 127
    },
    {
      "midi": 75,
      "hit": false,
      "t": 125500,
      "d": 250,
      "v": 127
    },
    {
      "midi": 51,
      "hit": false,
      "t": 125500,
      "d": 250,
      "v": 127
    },
    {
      "midi": 55,
      "hit": false,
      "t": 125500,
      "d": 250,
      "v": 127
    },
    {
      "midi": 58,
      "hit": false,
      "t": 125500,
      "d": 250,
      "v": 127
    },
    {
      "midi": 72,
      "hit": false,
      "t": 125750,
      "d": 250,
      "v": 127
    },
    {
      "midi": 51,
      "hit": false,
      "t": 125750,
      "d": 250,
      "v": 127
    },
    {
      "midi": 55,
      "hit": false,
      "t": 125750,
      "d": 250,
      "v": 127
    },
    {
      "midi": 58,
      "hit": false,
      "t": 125750,
      "d": 250,
      "v": 127
    },
    {
      "midi": 70,
      "hit": false,
      "t": 126000,
      "d": 1000,
      "v": 127
    },
    {
      "midi": 46,
      "hit": false,
      "t": 126000,
      "d": 250,
      "v": 127
    },
    {
      "midi": 51,
      "hit": false,
      "t": 126250,
      "d": 250,
      "v": 127
    },
    {
      "midi": 55,
      "hit": false,
      "t": 126250,
      "d": 250,
      "v": 127
    },
    {
      "midi": 58,
      "hit": false,
      "t": 126250,
      "d": 250,
      "v": 127
    },
    {
      "midi": 51,
      "hit": false,
      "t": 126500,
      "d": 250,
      "v": 127
    },
    {
      "midi": 55,
      "hit": false,
      "t": 126500,
      "d": 250,
      "v": 127
    },
    {
      "midi": 58,
      "hit": false,
      "t": 126500,
      "d": 250,
      "v": 127
    },
    {
      "midi": 51,
      "hit": false,
      "t": 126750,
      "d": 250,
      "v": 127
    },
    {
      "midi": 55,
      "hit": false,
      "t": 126750,
      "d": 250,
      "v": 127
    },
    {
      "midi": 58,
      "hit": false,
      "t": 126750,
      "d": 250,
      "v": 127
    },
    {
      "midi": 72,
      "hit": false,
      "t": 127000,
      "d": 750,
      "v": 127
    },
    {
      "midi": 46,
      "hit": false,
      "t": 127000,
      "d": 250,
      "v": 127
    },
    {
      "midi": 53,
      "hit": false,
      "t": 127250,
      "d": 250,
      "v": 127
    },
    {
      "midi": 56,
      "hit": false,
      "t": 127250,
      "d": 250,
      "v": 127
    },
    {
      "midi": 58,
      "hit": false,
      "t": 127250,
      "d": 250,
      "v": 127
    },
    {
      "midi": 53,
      "hit": false,
      "t": 127500,
      "d": 250,
      "v": 127
    },
    {
      "midi": 56,
      "hit": false,
      "t": 127500,
      "d": 250,
      "v": 127
    },
    {
      "midi": 58,
      "hit": false,
      "t": 127500,
      "d": 250,
      "v": 127
    },
    {
      "midi": 74,
      "hit": false,
      "t": 127750,
      "d": 250,
      "v": 127
    },
    {
      "midi": 53,
      "hit": false,
      "t": 127750,
      "d": 250,
      "v": 127
    },
    {
      "midi": 56,
      "hit": false,
      "t": 127750,
      "d": 250,
      "v": 127
    },
    {
      "midi": 58,
      "hit": false,
      "t": 127750,
      "d": 250,
      "v": 127
    },
    {
      "midi": 75,
      "hit": false,
      "t": 128000,
      "d": 1000,
      "v": 127
    },
    {
      "midi": 51,
      "hit": false,
      "t": 128000,
      "d": 250,
      "v": 127
    },
    {
      "midi": 55,
      "hit": false,
      "t": 128250,
      "d": 250,
      "v": 127
    },
    {
      "midi": 58,
      "hit": false,
      "t": 128250,
      "d": 250,
      "v": 127
    },
    {
      "midi": 55,
      "hit": false,
      "t": 128500,
      "d": 250,
      "v": 127
    },
    {
      "midi": 58,
      "hit": false,
      "t": 128500,
      "d": 250,
      "v": 127
    },
    {
      "midi": 55,
      "hit": false,
      "t": 128750,
      "d": 250,
      "v": 127
    },
    {
      "midi": 58,
      "hit": false,
      "t": 128750,
      "d": 250,
      "v": 127
    },
    {
      "midi": 51,
      "hit": false,
      "t": 129000,
      "d": 250,
      "v": 127
    },
    {
      "midi": 55,
      "hit": false,
      "t": 129250,
      "d": 250,
      "v": 127
    },
    {
      "midi": 58,
      "hit": false,
      "t": 129250,
      "d": 250,
      "v": 127
    },
    {
      "midi": 55,
      "hit": false,
      "t": 129500,
      "d": 250,
      "v": 127
    },
    {
      "midi": 58,
      "hit": false,
      "t": 129500,
      "d": 250,
      "v": 127
    },
    {
      "midi": 55,
      "hit": false,
      "t": 129750,
      "d": 250,
      "v": 127
    },
    {
      "midi": 58,
      "hit": false,
      "t": 129750,
      "d": 250,
      "v": 127
    },
    {
      "midi": 51,
      "hit": false,
      "t": 130000,
      "d": 250,
      "v": 127
    },
    {
      "midi": 55,
      "hit": false,
      "t": 130250,
      "d": 250,
      "v": 127
    },
    {
      "midi": 58,
      "hit": false,
      "t": 130250,
      "d": 250,
      "v": 127
    },
    {
      "midi": 55,
      "hit": false,
      "t": 130500,
      "d": 250,
      "v": 127
    },
    {
      "midi": 58,
      "hit": false,
      "t": 130500,
      "d": 250,
      "v": 127
    },
    {
      "midi": 55,
      "hit": false,
      "t": 130750,
      "d": 250,
      "v": 127
    },
    {
      "midi": 58,
      "hit": false,
      "t": 130750,
      "d": 250,
      "v": 127
    },
    {
      "midi": 70,
      "hit": false,
      "t": 131000,
      "d": 1000,
      "v": 127
    },
    {
      "midi": 50,
      "hit": false,
      "t": 131000,
      "d": 250,
      "v": 127
    },
    {
      "midi": 53,
      "hit": false,
      "t": 131250,
      "d": 250,
      "v": 127
    },
    {
      "midi": 58,
      "hit": false,
      "t": 131250,
      "d": 250,
      "v": 127
    },
    {
      "midi": 53,
      "hit": false,
      "t": 131500,
      "d": 250,
      "v": 127
    },
    {
      "midi": 58,
      "hit": false,
      "t": 131500,
      "d": 250,
      "v": 127
    },
    {
      "midi": 53,
      "hit": false,
      "t": 131750,
      "d": 250,
      "v": 127
    },
    {
      "midi": 58,
      "hit": false,
      "t": 131750,
      "d": 250,
      "v": 127
    },
    {
      "midi": 70,
      "hit": false,
      "t": 132000,
      "d": 750,
      "v": 127
    },
    {
      "midi": 50,
      "hit": false,
      "t": 132000,
      "d": 250,
      "v": 127
    },
    {
      "midi": 53,
      "hit": false,
      "t": 132250,
      "d": 250,
      "v": 127
    },
    {
      "midi": 58,
      "hit": false,
      "t": 132250,
      "d": 250,
      "v": 127
    },
    {
      "midi": 53,
      "hit": false,
      "t": 132500,
      "d": 250,
      "v": 127
    },
    {
      "midi": 58,
      "hit": false,
      "t": 132500,
      "d": 250,
      "v": 127
    },
    {
      "midi": 70,
      "hit": false,
      "t": 132750,
      "d": 250,
      "v": 127
    },
    {
      "midi": 53,
      "hit": false,
      "t": 132750,
      "d": 250,
      "v": 127
    },
    {
      "midi": 58,
      "hit": false,
      "t": 132750,
      "d": 250,
      "v": 127
    },
    {
      "midi": 75,
      "hit": false,
      "t": 133000,
      "d": 250,
      "v": 127
    },
    {
      "midi": 48,
      "hit": false,
      "t": 133000,
      "d": 250,
      "v": 127
    },
    {
      "midi": 75,
      "hit": false,
      "t": 133250,
      "d": 250,
      "v": 127
    },
    {
      "midi": 51,
      "hit": false,
      "t": 133250,
      "d": 250,
      "v": 127
    },
    {
      "midi": 53,
      "hit": false,
      "t": 133250,
      "d": 250,
      "v": 127
    },
    {
      "midi": 57,
      "hit": false,
      "t": 133250,
      "d": 250,
      "v": 127
    },
    {
      "midi": 51,
      "hit": false,
      "t": 133500,
      "d": 250,
      "v": 127
    },
    {
      "midi": 53,
      "hit": false,
      "t": 133500,
      "d": 250,
      "v": 127
    },
    {
      "midi": 57,
      "hit": false,
      "t": 133500,
      "d": 250,
      "v": 127
    },
    {
      "midi": 51,
      "hit": false,
      "t": 133750,
      "d": 250,
      "v": 127
    },
    {
      "midi": 53,
      "hit": false,
      "t": 133750,
      "d": 250,
      "v": 127
    },
    {
      "midi": 57,
      "hit": false,
      "t": 133750,
      "d": 250,
      "v": 127
    },
    {
      "midi": 75,
      "hit": false,
      "t": 134000,
      "d": 750,
      "v": 127
    },
    {
      "midi": 46,
      "hit": false,
      "t": 134000,
      "d": 250,
      "v": 127
    },
    {
      "midi": 50,
      "hit": false,
      "t": 134250,
      "d": 250,
      "v": 127
    },
    {
      "midi": 53,
      "hit": false,
      "t": 134250,
      "d": 250,
      "v": 127
    },
    {
      "midi": 58,
      "hit": false,
      "t": 134250,
      "d": 250,
      "v": 127
    },
    {
      "midi": 50,
      "hit": false,
      "t": 134500,
      "d": 250,
      "v": 127
    },
    {
      "midi": 53,
      "hit": false,
      "t": 134500,
      "d": 250,
      "v": 127
    },
    {
      "midi": 58,
      "hit": false,
      "t": 134500,
      "d": 250,
      "v": 127
    },
    {
      "midi": 74,
      "hit": false,
      "t": 134750,
      "d": 250,
      "v": 127
    },
    {
      "midi": 50,
      "hit": false,
      "t": 134750,
      "d": 250,
      "v": 127
    },
    {
      "midi": 53,
      "hit": false,
      "t": 134750,
      "d": 250,
      "v": 127
    },
    {
      "midi": 58,
      "hit": false,
      "t": 134750,
      "d": 250,
      "v": 127
    },
    {
      "midi": 74,
      "hit": false,
      "t": 135000,
      "d": 1000,
      "v": 127
    },
    {
      "midi": 58,
      "hit": false,
      "t": 135000,
      "d": 250,
      "v": 127
    },
    {
      "midi": 62,
      "hit": false,
      "t": 135250,
      "d": 250,
      "v": 127
    },
    {
      "midi": 65,
      "hit": false,
      "t": 135250,
      "d": 250,
      "v": 127
    },
    {
      "midi": 62,
      "hit": false,
      "t": 135500,
      "d": 250,
      "v": 127
    },
    {
      "midi": 65,
      "hit": false,
      "t": 135500,
      "d": 250,
      "v": 127
    },
    {
      "midi": 62,
      "hit": false,
      "t": 135750,
      "d": 250,
      "v": 127
    },
    {
      "midi": 65,
      "hit": false,
      "t": 135750,
      "d": 250,
      "v": 127
    },
    {
      "midi": 56,
      "hit": false,
      "t": 136000,
      "d": 250,
      "v": 127
    },
    {
      "midi": 60,
      "hit": false,
      "t": 136250,
      "d": 250,
      "v": 127
    },
    {
      "midi": 62,
      "hit": false,
      "t": 136250,
      "d": 250,
      "v": 127
    },
    {
      "midi": 66,
      "hit": false,
      "t": 136250,
      "d": 250,
      "v": 127
    },
    {
      "midi": 60,
      "hit": false,
      "t": 136500,
      "d": 250,
      "v": 127
    },
    {
      "midi": 62,
      "hit": false,
      "t": 136500,
      "d": 250,
      "v": 127
    },
    {
      "midi": 66,
      "hit": false,
      "t": 136500,
      "d": 250,
      "v": 127
    },
    {
      "midi": 72,
      "hit": false,
      "t": 136750,
      "d": 250,
      "v": 127
    },
    {
      "midi": 60,
      "hit": false,
      "t": 136750,
      "d": 250,
      "v": 127
    },
    {
      "midi": 62,
      "hit": false,
      "t": 136750,
      "d": 250,
      "v": 127
    },
    {
      "midi": 66,
      "hit": false,
      "t": 136750,
      "d": 250,
      "v": 127
    },
    {
      "midi": 72,
      "hit": false,
      "t": 137000,
      "d": 1000,
      "v": 127
    },
    {
      "midi": 55,
      "hit": false,
      "t": 137000,
      "d": 250,
      "v": 127
    },
    {
      "midi": 59,
      "hit": false,
      "t": 137250,
      "d": 250,
      "v": 127
    },
    {
      "midi": 62,
      "hit": false,
      "t": 137250,
      "d": 250,
      "v": 127
    },
    {
      "midi": 67,
      "hit": false,
      "t": 137250,
      "d": 250,
      "v": 127
    },
    {
      "midi": 59,
      "hit": false,
      "t": 137500,
      "d": 250,
      "v": 127
    },
    {
      "midi": 62,
      "hit": false,
      "t": 137500,
      "d": 250,
      "v": 127
    },
    {
      "midi": 67,
      "hit": false,
      "t": 137500,
      "d": 250,
      "v": 127
    },
    {
      "midi": 59,
      "hit": false,
      "t": 137750,
      "d": 250,
      "v": 127
    },
    {
      "midi": 62,
      "hit": false,
      "t": 137750,
      "d": 250,
      "v": 127
    },
    {
      "midi": 67,
      "hit": false,
      "t": 137750,
      "d": 250,
      "v": 127
    },
    {
      "midi": 71,
      "hit": false,
      "t": 138000,
      "d": 250,
      "v": 127
    },
    {
      "midi": 55,
      "hit": false,
      "t": 138000,
      "d": 250,
      "v": 127
    },
    {
      "midi": 71,
      "hit": false,
      "t": 138250,
      "d": 250,
      "v": 127
    },
    {
      "midi": 59,
      "hit": false,
      "t": 138250,
      "d": 250,
      "v": 127
    },
    {
      "midi": 62,
      "hit": false,
      "t": 138250,
      "d": 250,
      "v": 127
    },
    {
      "midi": 67,
      "hit": false,
      "t": 138250,
      "d": 250,
      "v": 127
    },
    {
      "midi": 72,
      "hit": false,
      "t": 138500,
      "d": 250,
      "v": 127
    },
    {
      "midi": 59,
      "hit": false,
      "t": 138500,
      "d": 250,
      "v": 127
    },
    {
      "midi": 62,
      "hit": false,
      "t": 138500,
      "d": 250,
      "v": 127
    },
    {
      "midi": 67,
      "hit": false,
      "t": 138500,
      "d": 250,
      "v": 127
    },
    {
      "midi": 74,
      "hit": false,
      "t": 138750,
      "d": 250,
      "v": 127
    },
    {
      "midi": 59,
      "hit": false,
      "t": 138750,
      "d": 250,
      "v": 127
    },
    {
      "midi": 62,
      "hit": false,
      "t": 138750,
      "d": 250,
      "v": 127
    },
    {
      "midi": 67,
      "hit": false,
      "t": 138750,
      "d": 250,
      "v": 127
    },
    {
      "midi": 77,
      "hit": false,
      "t": 139000,
      "d": 750,
      "v": 127
    },
    {
      "midi": 55,
      "hit": false,
      "t": 139000,
      "d": 250,
      "v": 127
    },
    {
      "midi": 60,
      "hit": false,
      "t": 139250,
      "d": 250,
      "v": 127
    },
    {
      "midi": 63,
      "hit": false,
      "t": 139250,
      "d": 250,
      "v": 127
    },
    {
      "midi": 67,
      "hit": false,
      "t": 139250,
      "d": 250,
      "v": 127
    },
    {
      "midi": 60,
      "hit": false,
      "t": 139500,
      "d": 250,
      "v": 127
    },
    {
      "midi": 63,
      "hit": false,
      "t": 139500,
      "d": 250,
      "v": 127
    },
    {
      "midi": 67,
      "hit": false,
      "t": 139500,
      "d": 250,
      "v": 127
    },
    {
      "midi": 75,
      "hit": false,
      "t": 139750,
      "d": 250,
      "v": 127
    },
    {
      "midi": 60,
      "hit": false,
      "t": 139750,
      "d": 250,
      "v": 127
    },
    {
      "midi": 63,
      "hit": false,
      "t": 139750,
      "d": 250,
      "v": 127
    },
    {
      "midi": 67,
      "hit": false,
      "t": 139750,
      "d": 250,
      "v": 127
    },
    {
      "midi": 74,
      "hit": false,
      "t": 140000,
      "d": 3000,
      "v": 127
    },
    {
      "midi": 55,
      "hit": false,
      "t": 140000,
      "d": 250,
      "v": 127
    },
    {
      "midi": 59,
      "hit": false,
      "t": 140250,
      "d": 250,
      "v": 127
    },
    {
      "midi": 62,
      "hit": false,
      "t": 140250,
      "d": 250,
      "v": 127
    },
    {
      "midi": 67,
      "hit": false,
      "t": 140250,
      "d": 250,
      "v": 127
    },
    {
      "midi": 59,
      "hit": false,
      "t": 140500,
      "d": 250,
      "v": 127
    },
    {
      "midi": 62,
      "hit": false,
      "t": 140500,
      "d": 250,
      "v": 127
    },
    {
      "midi": 67,
      "hit": false,
      "t": 140500,
      "d": 250,
      "v": 127
    },
    {
      "midi": 59,
      "hit": false,
      "t": 140750,
      "d": 250,
      "v": 127
    },
    {
      "midi": 62,
      "hit": false,
      "t": 140750,
      "d": 250,
      "v": 127
    },
    {
      "midi": 67,
      "hit": false,
      "t": 140750,
      "d": 250,
      "v": 127
    },
    {
      "midi": 55,
      "hit": false,
      "t": 141000,
      "d": 250,
      "v": 127
    },
    {
      "midi": 59,
      "hit": false,
      "t": 141250,
      "d": 250,
      "v": 127
    },
    {
      "midi": 62,
      "hit": false,
      "t": 141250,
      "d": 250,
      "v": 127
    },
    {
      "midi": 67,
      "hit": false,
      "t": 141250,
      "d": 250,
      "v": 127
    },
    {
      "midi": 59,
      "hit": false,
      "t": 141500,
      "d": 250,
      "v": 127
    },
    {
      "midi": 62,
      "hit": false,
      "t": 141500,
      "d": 250,
      "v": 127
    },
    {
      "midi": 67,
      "hit": false,
      "t": 141500,
      "d": 250,
      "v": 127
    },
    {
      "midi": 59,
      "hit": false,
      "t": 141750,
      "d": 250,
      "v": 127
    },
    {
      "midi": 62,
      "hit": false,
      "t": 141750,
      "d": 250,
      "v": 127
    },
    {
      "midi": 67,
      "hit": false,
      "t": 141750,
      "d": 250,
      "v": 127
    },
    {
      "midi": 53,
      "hit": false,
      "t": 142000,
      "d": 250,
      "v": 127
    },
    {
      "midi": 58,
      "hit": false,
      "t": 142250,
      "d": 250,
      "v": 127
    },
    {
      "midi": 62,
      "hit": false,
      "t": 142250,
      "d": 250,
      "v": 127
    },
    {
      "midi": 68,
      "hit": false,
      "t": 142250,
      "d": 250,
      "v": 127
    },
    {
      "midi": 58,
      "hit": false,
      "t": 142500,
      "d": 250,
      "v": 127
    },
    {
      "midi": 62,
      "hit": false,
      "t": 142500,
      "d": 250,
      "v": 127
    },
    {
      "midi": 68,
      "hit": false,
      "t": 142500,
      "d": 250,
      "v": 127
    },
    {
      "midi": 58,
      "hit": false,
      "t": 142750,
      "d": 250,
      "v": 127
    },
    {
      "midi": 62,
      "hit": false,
      "t": 142750,
      "d": 250,
      "v": 127
    },
    {
      "midi": 68,
      "hit": false,
      "t": 142750,
      "d": 250,
      "v": 127
    },
    {
      "midi": 67,
      "hit": false,
      "t": 143000,
      "d": 1000,
      "v": 127
    },
    {
      "midi": 51,
      "hit": false,
      "t": 143000,
      "d": 250,
      "v": 127
    },
    {
      "midi": 55,
      "hit": false,
      "t": 143250,
      "d": 250,
      "v": 127
    },
    {
      "midi": 58,
      "hit": false,
      "t": 143250,
      "d": 250,
      "v": 127
    },
    {
      "midi": 63,
      "hit": false,
      "t": 143250,
      "d": 250,
      "v": 127
    },
    {
      "midi": 55,
      "hit": false,
      "t": 143500,
      "d": 250,
      "v": 127
    },
    {
      "midi": 58,
      "hit": false,
      "t": 143500,
      "d": 250,
      "v": 127
    },
    {
      "midi": 63,
      "hit": false,
      "t": 143500,
      "d": 250,
      "v": 127
    },
    {
      "midi": 55,
      "hit": false,
      "t": 143750,
      "d": 250,
      "v": 127
    },
    {
      "midi": 58,
      "hit": false,
      "t": 143750,
      "d": 250,
      "v": 127
    },
    {
      "midi": 63,
      "hit": false,
      "t": 143750,
      "d": 250,
      "v": 127
    },
    {
      "midi": 70,
      "hit": false,
      "t": 144000,
      "d": 750,
      "v": 127
    },
    {
      "midi": 50,
      "hit": false,
      "t": 144000,
      "d": 250,
      "v": 127
    },
    {
      "midi": 53,
      "hit": false,
      "t": 144250,
      "d": 250,
      "v": 127
    },
    {
      "midi": 58,
      "hit": false,
      "t": 144250,
      "d": 250,
      "v": 127
    },
    {
      "midi": 62,
      "hit": false,
      "t": 144250,
      "d": 250,
      "v": 127
    },
    {
      "midi": 53,
      "hit": false,
      "t": 144500,
      "d": 250,
      "v": 127
    },
    {
      "midi": 58,
      "hit": false,
      "t": 144500,
      "d": 250,
      "v": 127
    },
    {
      "midi": 62,
      "hit": false,
      "t": 144500,
      "d": 250,
      "v": 127
    },
    {
      "midi": 70,
      "hit": false,
      "t": 144750,
      "d": 250,
      "v": 127
    },
    {
      "midi": 53,
      "hit": false,
      "t": 144750,
      "d": 250,
      "v": 127
    },
    {
      "midi": 58,
      "hit": false,
      "t": 144750,
      "d": 250,
      "v": 127
    },
    {
      "midi": 62,
      "hit": false,
      "t": 144750,
      "d": 250,
      "v": 127
    },
    {
      "midi": 75,
      "hit": false,
      "t": 145000,
      "d": 750,
      "v": 127
    },
    {
      "midi": 48,
      "hit": false,
      "t": 145000,
      "d": 250,
      "v": 127
    },
    {
      "midi": 51,
      "hit": false,
      "t": 145250,
      "d": 250,
      "v": 127
    },
    {
      "midi": 55,
      "hit": false,
      "t": 145250,
      "d": 250,
      "v": 127
    },
    {
      "midi": 60,
      "hit": false,
      "t": 145250,
      "d": 250,
      "v": 127
    },
    {
      "midi": 51,
      "hit": false,
      "t": 145500,
      "d": 250,
      "v": 127
    },
    {
      "midi": 55,
      "hit": false,
      "t": 145500,
      "d": 250,
      "v": 127
    },
    {
      "midi": 60,
      "hit": false,
      "t": 145500,
      "d": 250,
      "v": 127
    },
    {
      "midi": 75,
      "hit": false,
      "t": 145750,
      "d": 250,
      "v": 127
    },
    {
      "midi": 51,
      "hit": false,
      "t": 145750,
      "d": 250,
      "v": 127
    },
    {
      "midi": 55,
      "hit": false,
      "t": 145750,
      "d": 250,
      "v": 127
    },
    {
      "midi": 60,
      "hit": false,
      "t": 145750,
      "d": 250,
      "v": 127
    },
    {
      "midi": 77,
      "hit": false,
      "t": 146000,
      "d": 1000,
      "v": 127
    },
    {
      "midi": 44,
      "hit": false,
      "t": 146000,
      "d": 250,
      "v": 127
    },
    {
      "midi": 56,
      "hit": false,
      "t": 146000,
      "d": 250,
      "v": 127
    },
    {
      "midi": 56,
      "hit": false,
      "t": 146250,
      "d": 250,
      "v": 127
    },
    {
      "midi": 60,
      "hit": false,
      "t": 146250,
      "d": 250,
      "v": 127
    },
    {
      "midi": 65,
      "hit": false,
      "t": 146250,
      "d": 250,
      "v": 127
    },
    {
      "midi": 56,
      "hit": false,
      "t": 146500,
      "d": 250,
      "v": 127
    },
    {
      "midi": 60,
      "hit": false,
      "t": 146500,
      "d": 250,
      "v": 127
    },
    {
      "midi": 65,
      "hit": false,
      "t": 146500,
      "d": 250,
      "v": 127
    },
    {
      "midi": 56,
      "hit": false,
      "t": 146750,
      "d": 250,
      "v": 127
    },
    {
      "midi": 60,
      "hit": false,
      "t": 146750,
      "d": 250,
      "v": 127
    },
    {
      "midi": 65,
      "hit": false,
      "t": 146750,
      "d": 250,
      "v": 127
    },
    {
      "midi": 79,
      "hit": false,
      "t": 147000,
      "d": 1000,
      "v": 127
    },
    {
      "midi": 48,
      "hit": false,
      "t": 147000,
      "d": 250,
      "v": 127
    },
    {
      "midi": 60,
      "hit": false,
      "t": 147000,
      "d": 250,
      "v": 127
    },
    {
      "midi": 55,
      "hit": false,
      "t": 147250,
      "d": 250,
      "v": 127
    },
    {
      "midi": 60,
      "hit": false,
      "t": 147250,
      "d": 250,
      "v": 127
    },
    {
      "midi": 64,
      "hit": false,
      "t": 147250,
      "d": 250,
      "v": 127
    },
    {
      "midi": 55,
      "hit": false,
      "t": 147500,
      "d": 250,
      "v": 127
    },
    {
      "midi": 60,
      "hit": false,
      "t": 147500,
      "d": 250,
      "v": 127
    },
    {
      "midi": 64,
      "hit": false,
      "t": 147500,
      "d": 250,
      "v": 127
    },
    {
      "midi": 55,
      "hit": false,
      "t": 147750,
      "d": 250,
      "v": 127
    },
    {
      "midi": 60,
      "hit": false,
      "t": 147750,
      "d": 250,
      "v": 127
    },
    {
      "midi": 64,
      "hit": false,
      "t": 147750,
      "d": 250,
      "v": 127
    },
    {
      "midi": 80,
      "hit": false,
      "t": 148000,
      "d": 750,
      "v": 127
    },
    {
      "midi": 53,
      "hit": false,
      "t": 148000,
      "d": 250,
      "v": 127
    },
    {
      "midi": 56,
      "hit": false,
      "t": 148250,
      "d": 250,
      "v": 127
    },
    {
      "midi": 60,
      "hit": false,
      "t": 148250,
      "d": 250,
      "v": 127
    },
    {
      "midi": 65,
      "hit": false,
      "t": 148250,
      "d": 250,
      "v": 127
    },
    {
      "midi": 56,
      "hit": false,
      "t": 148500,
      "d": 250,
      "v": 127
    },
    {
      "midi": 60,
      "hit": false,
      "t": 148500,
      "d": 250,
      "v": 127
    },
    {
      "midi": 65,
      "hit": false,
      "t": 148500,
      "d": 250,
      "v": 127
    },
    {
      "midi": 80,
      "hit": false,
      "t": 148750,
      "d": 250,
      "v": 127
    },
    {
      "midi": 56,
      "hit": false,
      "t": 148750,
      "d": 250,
      "v": 127
    },
    {
      "midi": 60,
      "hit": false,
      "t": 148750,
      "d": 250,
      "v": 127
    },
    {
      "midi": 65,
      "hit": false,
      "t": 148750,
      "d": 250,
      "v": 127
    },
    {
      "midi": 80,
      "hit": false,
      "t": 149000,
      "d": 1000,
      "v": 127
    },
    {
      "midi": 46,
      "hit": false,
      "t": 149000,
      "d": 250,
      "v": 127
    },
    {
      "midi": 51,
      "hit": false,
      "t": 149250,
      "d": 250,
      "v": 127
    },
    {
      "midi": 56,
      "hit": false,
      "t": 149250,
      "d": 250,
      "v": 127
    },
    {
      "midi": 51,
      "hit": false,
      "t": 149500,
      "d": 250,
      "v": 127
    },
    {
      "midi": 56,
      "hit": false,
      "t": 149500,
      "d": 250,
      "v": 127
    },
    {
      "midi": 51,
      "hit": false,
      "t": 149750,
      "d": 250,
      "v": 127
    },
    {
      "midi": 56,
      "hit": false,
      "t": 149750,
      "d": 250,
      "v": 127
    },
    {
      "midi": 46,
      "hit": false,
      "t": 150000,
      "d": 250,
      "v": 127
    },
    {
      "midi": 79,
      "hit": false,
      "t": 150250,
      "d": 250,
      "v": 127
    },
    {
      "midi": 51,
      "hit": false,
      "t": 150250,
      "d": 250,
      "v": 127
    },
    {
      "midi": 55,
      "hit": false,
      "t": 150250,
      "d": 250,
      "v": 127
    },
    {
      "midi": 74,
      "hit": false,
      "t": 150500,
      "d": 250,
      "v": 127
    },
    {
      "midi": 51,
      "hit": false,
      "t": 150500,
      "d": 250,
      "v": 127
    },
    {
      "midi": 55,
      "hit": false,
      "t": 150500,
      "d": 250,
      "v": 127
    },
    {
      "midi": 75,
      "hit": false,
      "t": 150750,
      "d": 250,
      "v": 127
    },
    {
      "midi": 51,
      "hit": false,
      "t": 150750,
      "d": 250,
      "v": 127
    },
    {
      "midi": 55,
      "hit": false,
      "t": 150750,
      "d": 250,
      "v": 127
    },
    {
      "midi": 77,
      "hit": false,
      "t": 151000,
      "d": 750,
      "v": 127
    },
    {
      "midi": 46,
      "hit": false,
      "t": 151000,
      "d": 250,
      "v": 127
    },
    {
      "midi": 51,
      "hit": false,
      "t": 151250,
      "d": 250,
      "v": 127
    },
    {
      "midi": 55,
      "hit": false,
      "t": 151250,
      "d": 250,
      "v": 127
    },
    {
      "midi": 51,
      "hit": false,
      "t": 151500,
      "d": 250,
      "v": 127
    },
    {
      "midi": 55,
      "hit": false,
      "t": 151500,
      "d": 250,
      "v": 127
    },
    {
      "midi": 75,
      "hit": false,
      "t": 151750,
      "d": 250,
      "v": 127
    },
    {
      "midi": 51,
      "hit": false,
      "t": 151750,
      "d": 250,
      "v": 127
    },
    {
      "midi": 55,
      "hit": false,
      "t": 151750,
      "d": 250,
      "v": 127
    },
    {
      "midi": 75,
      "hit": false,
      "t": 152000,
      "d": 1000,
      "v": 127
    },
    {
      "midi": 46,
      "hit": false,
      "t": 152000,
      "d": 250,
      "v": 127
    },
    {
      "midi": 51,
      "hit": false,
      "t": 152250,
      "d": 250,
      "v": 127
    },
    {
      "midi": 53,
      "hit": false,
      "t": 152250,
      "d": 250,
      "v": 127
    },
    {
      "midi": 56,
      "hit": false,
      "t": 152250,
      "d": 250,
      "v": 127
    },
    {
      "midi": 51,
      "hit": false,
      "t": 152500,
      "d": 250,
      "v": 127
    },
    {
      "midi": 53,
      "hit": false,
      "t": 152500,
      "d": 250,
      "v": 127
    },
    {
      "midi": 56,
      "hit": false,
      "t": 152500,
      "d": 250,
      "v": 127
    },
    {
      "midi": 51,
      "hit": false,
      "t": 152750,
      "d": 250,
      "v": 127
    },
    {
      "midi": 53,
      "hit": false,
      "t": 152750,
      "d": 250,
      "v": 127
    },
    {
      "midi": 56,
      "hit": false,
      "t": 152750,
      "d": 250,
      "v": 127
    },
    {
      "midi": 65,
      "hit": false,
      "t": 153000,
      "d": 250,
      "v": 127
    },
    {
      "midi": 46,
      "hit": false,
      "t": 153000,
      "d": 250,
      "v": 127
    },
    {
      "midi": 68,
      "hit": false,
      "t": 153250,
      "d": 250,
      "v": 127
    },
    {
      "midi": 50,
      "hit": false,
      "t": 153250,
      "d": 250,
      "v": 127
    },
    {
      "midi": 53,
      "hit": false,
      "t": 153250,
      "d": 250,
      "v": 127
    },
    {
      "midi": 56,
      "hit": false,
      "t": 153250,
      "d": 250,
      "v": 127
    },
    {
      "midi": 67,
      "hit": false,
      "t": 153500,
      "d": 250,
      "v": 127
    },
    {
      "midi": 50,
      "hit": false,
      "t": 153500,
      "d": 250,
      "v": 127
    },
    {
      "midi": 53,
      "hit": false,
      "t": 153500,
      "d": 250,
      "v": 127
    },
    {
      "midi": 56,
      "hit": false,
      "t": 153500,
      "d": 250,
      "v": 127
    },
    {
      "midi": 68,
      "hit": false,
      "t": 153750,
      "d": 250,
      "v": 127
    },
    {
      "midi": 50,
      "hit": false,
      "t": 153750,
      "d": 250,
      "v": 127
    },
    {
      "midi": 53,
      "hit": false,
      "t": 153750,
      "d": 250,
      "v": 127
    },
    {
      "midi": 56,
      "hit": false,
      "t": 153750,
      "d": 250,
      "v": 127
    },
    {
      "midi": 72,
      "hit": false,
      "t": 154000,
      "d": 750,
      "v": 127
    },
    {
      "midi": 46,
      "hit": false,
      "t": 154000,
      "d": 250,
      "v": 127
    },
    {
      "midi": 50,
      "hit": false,
      "t": 154250,
      "d": 250,
      "v": 127
    },
    {
      "midi": 53,
      "hit": false,
      "t": 154250,
      "d": 250,
      "v": 127
    },
    {
      "midi": 56,
      "hit": false,
      "t": 154250,
      "d": 250,
      "v": 127
    },
    {
      "midi": 50,
      "hit": false,
      "t": 154500,
      "d": 250,
      "v": 127
    },
    {
      "midi": 53,
      "hit": false,
      "t": 154500,
      "d": 250,
      "v": 127
    },
    {
      "midi": 56,
      "hit": false,
      "t": 154500,
      "d": 250,
      "v": 127
    },
    {
      "midi": 70,
      "hit": false,
      "t": 154750,
      "d": 250,
      "v": 127
    },
    {
      "midi": 50,
      "hit": false,
      "t": 154750,
      "d": 250,
      "v": 127
    },
    {
      "midi": 53,
      "hit": false,
      "t": 154750,
      "d": 250,
      "v": 127
    },
    {
      "midi": 56,
      "hit": false,
      "t": 154750,
      "d": 250,
      "v": 127
    },
    {
      "midi": 75,
      "hit": false,
      "t": 155000,
      "d": 1000,
      "v": 127
    },
    {
      "midi": 51,
      "hit": false,
      "t": 155000,
      "d": 250,
      "v": 127
    },
    {
      "midi": 58,
      "hit": false,
      "t": 155250,
      "d": 250,
      "v": 127
    },
    {
      "midi": 63,
      "hit": false,
      "t": 155250,
      "d": 250,
      "v": 127
    },
    {
      "midi": 67,
      "hit": false,
      "t": 155250,
      "d": 250,
      "v": 127
    },
    {
      "midi": 58,
      "hit": false,
      "t": 155500,
      "d": 250,
      "v": 127
    },
    {
      "midi": 63,
      "hit": false,
      "t": 155500,
      "d": 250,
      "v": 127
    },
    {
      "midi": 67,
      "hit": false,
      "t": 155500,
      "d": 250,
      "v": 127
    },
    {
      "midi": 58,
      "hit": false,
      "t": 155750,
      "d": 250,
      "v": 127
    },
    {
      "midi": 63,
      "hit": false,
      "t": 155750,
      "d": 250,
      "v": 127
    },
    {
      "midi": 67,
      "hit": false,
      "t": 155750,
      "d": 250,
      "v": 127
    },
    {
      "midi": 55,
      "hit": false,
      "t": 156000,
      "d": 250,
      "v": 127
    },
    {
      "midi": 70,
      "hit": false,
      "t": 156250,
      "d": 250,
      "v": 127
    },
    {
      "midi": 58,
      "hit": false,
      "t": 156250,
      "d": 250,
      "v": 127
    },
    {
      "midi": 63,
      "hit": false,
      "t": 156250,
      "d": 250,
      "v": 127
    },
    {
      "midi": 70,
      "hit": false,
      "t": 156500,
      "d": 250,
      "v": 127
    },
    {
      "midi": 58,
      "hit": false,
      "t": 156500,
      "d": 250,
      "v": 127
    },
    {
      "midi": 63,
      "hit": false,
      "t": 156500,
      "d": 250,
      "v": 127
    },
    {
      "midi": 70,
      "hit": false,
      "t": 156750,
      "d": 250,
      "v": 127
    },
    {
      "midi": 58,
      "hit": false,
      "t": 156750,
      "d": 250,
      "v": 127
    },
    {
      "midi": 63,
      "hit": false,
      "t": 156750,
      "d": 250,
      "v": 127
    },
    {
      "midi": 72,
      "hit": false,
      "t": 157000,
      "d": 250,
      "v": 127
    },
    {
      "midi": 53,
      "hit": false,
      "t": 157000,
      "d": 250,
      "v": 127
    },
    {
      "midi": 70,
      "hit": false,
      "t": 157250,
      "d": 250,
      "v": 127
    },
    {
      "midi": 58,
      "hit": false,
      "t": 157250,
      "d": 250,
      "v": 127
    },
    {
      "midi": 62,
      "hit": false,
      "t": 157250,
      "d": 250,
      "v": 127
    },
    {
      "midi": 68,
      "hit": false,
      "t": 157250,
      "d": 250,
      "v": 127
    },
    {
      "midi": 58,
      "hit": false,
      "t": 157500,
      "d": 250,
      "v": 127
    },
    {
      "midi": 62,
      "hit": false,
      "t": 157500,
      "d": 250,
      "v": 127
    },
    {
      "midi": 68,
      "hit": false,
      "t": 157500,
      "d": 250,
      "v": 127
    },
    {
      "midi": 58,
      "hit": false,
      "t": 157750,
      "d": 250,
      "v": 127
    },
    {
      "midi": 62,
      "hit": false,
      "t": 157750,
      "d": 250,
      "v": 127
    },
    {
      "midi": 68,
      "hit": false,
      "t": 157750,
      "d": 250,
      "v": 127
    },
    {
      "midi": 75,
      "hit": false,
      "t": 158000,
      "d": 750,
      "v": 127
    },
    {
      "midi": 51,
      "hit": false,
      "t": 158000,
      "d": 250,
      "v": 127
    },
    {
      "midi": 58,
      "hit": false,
      "t": 158250,
      "d": 250,
      "v": 127
    },
    {
      "midi": 63,
      "hit": false,
      "t": 158250,
      "d": 250,
      "v": 127
    },
    {
      "midi": 67,
      "hit": false,
      "t": 158250,
      "d": 250,
      "v": 127
    },
    {
      "midi": 58,
      "hit": false,
      "t": 158500,
      "d": 250,
      "v": 127
    },
    {
      "midi": 63,
      "hit": false,
      "t": 158500,
      "d": 250,
      "v": 127
    },
    {
      "midi": 67,
      "hit": false,
      "t": 158500,
      "d": 250,
      "v": 127
    },
    {
      "midi": 70,
      "hit": false,
      "t": 158750,
      "d": 250,
      "v": 127
    },
    {
      "midi": 58,
      "hit": false,
      "t": 158750,
      "d": 250,
      "v": 127
    },
    {
      "midi": 63,
      "hit": false,
      "t": 158750,
      "d": 250,
      "v": 127
    },
    {
      "midi": 67,
      "hit": false,
      "t": 158750,
      "d": 250,
      "v": 127
    },
    {
      "midi": 70,
      "hit": false,
      "t": 159000,
      "d": 250,
      "v": 127
    },
    {
      "midi": 55,
      "hit": false,
      "t": 159000,
      "d": 250,
      "v": 127
    },
    {
      "midi": 70,
      "hit": false,
      "t": 159250,
      "d": 250,
      "v": 127
    },
    {
      "midi": 58,
      "hit": false,
      "t": 159250,
      "d": 250,
      "v": 127
    },
    {
      "midi": 63,
      "hit": false,
      "t": 159250,
      "d": 250,
      "v": 127
    },
    {
      "midi": 70,
      "hit": false,
      "t": 159500,
      "d": 250,
      "v": 127
    },
    {
      "midi": 58,
      "hit": false,
      "t": 159500,
      "d": 250,
      "v": 127
    },
    {
      "midi": 63,
      "hit": false,
      "t": 159500,
      "d": 250,
      "v": 127
    },
    {
      "midi": 70,
      "hit": false,
      "t": 159750,
      "d": 250,
      "v": 127
    },
    {
      "midi": 58,
      "hit": false,
      "t": 159750,
      "d": 250,
      "v": 127
    },
    {
      "midi": 63,
      "hit": false,
      "t": 159750,
      "d": 250,
      "v": 127
    },
    {
      "midi": 72,
      "hit": false,
      "t": 160000,
      "d": 750,
      "v": 127
    },
    {
      "midi": 53,
      "hit": false,
      "t": 160000,
      "d": 250,
      "v": 127
    },
    {
      "midi": 58,
      "hit": false,
      "t": 160250,
      "d": 250,
      "v": 127
    },
    {
      "midi": 62,
      "hit": false,
      "t": 160250,
      "d": 250,
      "v": 127
    },
    {
      "midi": 68,
      "hit": false,
      "t": 160250,
      "d": 250,
      "v": 127
    },
    {
      "midi": 58,
      "hit": false,
      "t": 160500,
      "d": 250,
      "v": 127
    },
    {
      "midi": 62,
      "hit": false,
      "t": 160500,
      "d": 250,
      "v": 127
    },
    {
      "midi": 68,
      "hit": false,
      "t": 160500,
      "d": 250,
      "v": 127
    },
    {
      "midi": 70,
      "hit": false,
      "t": 160750,
      "d": 250,
      "v": 127
    },
    {
      "midi": 58,
      "hit": false,
      "t": 160750,
      "d": 250,
      "v": 127
    },
    {
      "midi": 62,
      "hit": false,
      "t": 160750,
      "d": 250,
      "v": 127
    },
    {
      "midi": 68,
      "hit": false,
      "t": 160750,
      "d": 250,
      "v": 127
    },
    {
      "midi": 67,
      "hit": false,
      "t": 161000,
      "d": 1000,
      "v": 127
    },
    {
      "midi": 70,
      "hit": false,
      "t": 161000,
      "d": 1000,
      "v": 127
    },
    {
      "midi": 51,
      "hit": false,
      "t": 161000,
      "d": 250,
      "v": 127
    },
    {
      "midi": 55,
      "hit": false,
      "t": 161250,
      "d": 250,
      "v": 127
    },
    {
      "midi": 58,
      "hit": false,
      "t": 161250,
      "d": 250,
      "v": 127
    },
    {
      "midi": 63,
      "hit": false,
      "t": 161250,
      "d": 250,
      "v": 127
    },
    {
      "midi": 55,
      "hit": false,
      "t": 161500,
      "d": 250,
      "v": 127
    },
    {
      "midi": 58,
      "hit": false,
      "t": 161500,
      "d": 250,
      "v": 127
    },
    {
      "midi": 63,
      "hit": false,
      "t": 161500,
      "d": 250,
      "v": 127
    },
    {
      "midi": 55,
      "hit": false,
      "t": 161750,
      "d": 250,
      "v": 127
    },
    {
      "midi": 58,
      "hit": false,
      "t": 161750,
      "d": 250,
      "v": 127
    },
    {
      "midi": 63,
      "hit": false,
      "t": 161750,
      "d": 250,
      "v": 127
    },
    {
      "midi": 66,
      "hit": false,
      "t": 162000,
      "d": 1000,
      "v": 127
    },
    {
      "midi": 69,
      "hit": false,
      "t": 162000,
      "d": 1000,
      "v": 127
    },
    {
      "midi": 48,
      "hit": false,
      "t": 162000,
      "d": 250,
      "v": 127
    },
    {
      "midi": 51,
      "hit": false,
      "t": 162250,
      "d": 250,
      "v": 127
    },
    {
      "midi": 57,
      "hit": false,
      "t": 162250,
      "d": 250,
      "v": 127
    },
    {
      "midi": 60,
      "hit": false,
      "t": 162250,
      "d": 250,
      "v": 127
    },
    {
      "midi": 51,
      "hit": false,
      "t": 162500,
      "d": 250,
      "v": 127
    },
    {
      "midi": 57,
      "hit": false,
      "t": 162500,
      "d": 250,
      "v": 127
    },
    {
      "midi": 60,
      "hit": false,
      "t": 162500,
      "d": 250,
      "v": 127
    },
    {
      "midi": 51,
      "hit": false,
      "t": 162750,
      "d": 250,
      "v": 127
    },
    {
      "midi": 57,
      "hit": false,
      "t": 162750,
      "d": 250,
      "v": 127
    },
    {
      "midi": 60,
      "hit": false,
      "t": 162750,
      "d": 250,
      "v": 127
    },
    {
      "midi": 65,
      "hit": false,
      "t": 163000,
      "d": 1000,
      "v": 127
    },
    {
      "midi": 68,
      "hit": false,
      "t": 163000,
      "d": 1000,
      "v": 127
    },
    {
      "midi": 50,
      "hit": false,
      "t": 163000,
      "d": 250,
      "v": 127
    },
    {
      "midi": 56,
      "hit": false,
      "t": 163250,
      "d": 250,
      "v": 127
    },
    {
      "midi": 59,
      "hit": false,
      "t": 163250,
      "d": 250,
      "v": 127
    },
    {
      "midi": 62,
      "hit": false,
      "t": 163250,
      "d": 250,
      "v": 127
    },
    {
      "midi": 56,
      "hit": false,
      "t": 163500,
      "d": 250,
      "v": 127
    },
    {
      "midi": 59,
      "hit": false,
      "t": 163500,
      "d": 250,
      "v": 127
    },
    {
      "midi": 62,
      "hit": false,
      "t": 163500,
      "d": 250,
      "v": 127
    },
    {
      "midi": 56,
      "hit": false,
      "t": 163750,
      "d": 250,
      "v": 127
    },
    {
      "midi": 59,
      "hit": false,
      "t": 163750,
      "d": 250,
      "v": 127
    },
    {
      "midi": 62,
      "hit": false,
      "t": 163750,
      "d": 250,
      "v": 127
    },
    {
      "midi": 67,
      "hit": false,
      "t": 164000,
      "d": 1000,
      "v": 127
    },
    {
      "midi": 51,
      "hit": false,
      "t": 164000,
      "d": 250,
      "v": 127
    },
    {
      "midi": 55,
      "hit": false,
      "t": 164250,
      "d": 250,
      "v": 127
    },
    {
      "midi": 58,
      "hit": false,
      "t": 164250,
      "d": 250,
      "v": 127
    },
    {
      "midi": 63,
      "hit": false,
      "t": 164250,
      "d": 250,
      "v": 127
    },
    {
      "midi": 55,
      "hit": false,
      "t": 164500,
      "d": 250,
      "v": 127
    },
    {
      "midi": 58,
      "hit": false,
      "t": 164500,
      "d": 250,
      "v": 127
    },
    {
      "midi": 63,
      "hit": false,
      "t": 164500,
      "d": 250,
      "v": 127
    },
    {
      "midi": 55,
      "hit": false,
      "t": 164750,
      "d": 250,
      "v": 127
    },
    {
      "midi": 58,
      "hit": false,
      "t": 164750,
      "d": 250,
      "v": 127
    },
    {
      "midi": 63,
      "hit": false,
      "t": 164750,
      "d": 250,
      "v": 127
    },
    {
      "midi": 70,
      "hit": false,
      "t": 165000,
      "d": 750,
      "v": 127
    },
    {
      "midi": 50,
      "hit": false,
      "t": 165000,
      "d": 250,
      "v": 127
    },
    {
      "midi": 53,
      "hit": false,
      "t": 165250,
      "d": 250,
      "v": 127
    },
    {
      "midi": 58,
      "hit": false,
      "t": 165250,
      "d": 250,
      "v": 127
    },
    {
      "midi": 62,
      "hit": false,
      "t": 165250,
      "d": 250,
      "v": 127
    },
    {
      "midi": 53,
      "hit": false,
      "t": 165500,
      "d": 250,
      "v": 127
    },
    {
      "midi": 58,
      "hit": false,
      "t": 165500,
      "d": 250,
      "v": 127
    },
    {
      "midi": 62,
      "hit": false,
      "t": 165500,
      "d": 250,
      "v": 127
    },
    {
      "midi": 70,
      "hit": false,
      "t": 165750,
      "d": 250,
      "v": 127
    },
    {
      "midi": 53,
      "hit": false,
      "t": 165750,
      "d": 250,
      "v": 127
    },
    {
      "midi": 58,
      "hit": false,
      "t": 165750,
      "d": 250,
      "v": 127
    },
    {
      "midi": 62,
      "hit": false,
      "t": 165750,
      "d": 250,
      "v": 127
    },
    {
      "midi": 75,
      "hit": false,
      "t": 166000,
      "d": 750,
      "v": 127
    },
    {
      "midi": 48,
      "hit": false,
      "t": 166000,
      "d": 250,
      "v": 127
    },
    {
      "midi": 51,
      "hit": false,
      "t": 166250,
      "d": 250,
      "v": 127
    },
    {
      "midi": 55,
      "hit": false,
      "t": 166250,
      "d": 250,
      "v": 127
    },
    {
      "midi": 60,
      "hit": false,
      "t": 166250,
      "d": 250,
      "v": 127
    },
    {
      "midi": 51,
      "hit": false,
      "t": 166500,
      "d": 250,
      "v": 127
    },
    {
      "midi": 55,
      "hit": false,
      "t": 166500,
      "d": 250,
      "v": 127
    },
    {
      "midi": 60,
      "hit": false,
      "t": 166500,
      "d": 250,
      "v": 127
    },
    {
      "midi": 75,
      "hit": false,
      "t": 166750,
      "d": 250,
      "v": 127
    },
    {
      "midi": 51,
      "hit": false,
      "t": 166750,
      "d": 250,
      "v": 127
    },
    {
      "midi": 55,
      "hit": false,
      "t": 166750,
      "d": 250,
      "v": 127
    },
    {
      "midi": 60,
      "hit": false,
      "t": 166750,
      "d": 250,
      "v": 127
    },
    {
      "midi": 77,
      "hit": false,
      "t": 167000,
      "d": 1000,
      "v": 127
    },
    {
      "midi": 44,
      "hit": false,
      "t": 167000,
      "d": 250,
      "v": 127
    },
    {
      "midi": 56,
      "hit": false,
      "t": 167000,
      "d": 250,
      "v": 127
    },
    {
      "midi": 56,
      "hit": false,
      "t": 167250,
      "d": 250,
      "v": 127
    },
    {
      "midi": 60,
      "hit": false,
      "t": 167250,
      "d": 250,
      "v": 127
    },
    {
      "midi": 65,
      "hit": false,
      "t": 167250,
      "d": 250,
      "v": 127
    },
    {
      "midi": 56,
      "hit": false,
      "t": 167500,
      "d": 250,
      "v": 127
    },
    {
      "midi": 60,
      "hit": false,
      "t": 167500,
      "d": 250,
      "v": 127
    },
    {
      "midi": 65,
      "hit": false,
      "t": 167500,
      "d": 250,
      "v": 127
    },
    {
      "midi": 56,
      "hit": false,
      "t": 167750,
      "d": 250,
      "v": 127
    },
    {
      "midi": 60,
      "hit": false,
      "t": 167750,
      "d": 250,
      "v": 127
    },
    {
      "midi": 65,
      "hit": false,
      "t": 167750,
      "d": 250,
      "v": 127
    },
    {
      "midi": 79,
      "hit": false,
      "t": 168000,
      "d": 1000,
      "v": 127
    },
    {
      "midi": 48,
      "hit": false,
      "t": 168000,
      "d": 250,
      "v": 127
    },
    {
      "midi": 60,
      "hit": false,
      "t": 168000,
      "d": 250,
      "v": 127
    },
    {
      "midi": 55,
      "hit": false,
      "t": 168250,
      "d": 250,
      "v": 127
    },
    {
      "midi": 60,
      "hit": false,
      "t": 168250,
      "d": 250,
      "v": 127
    },
    {
      "midi": 64,
      "hit": false,
      "t": 168250,
      "d": 250,
      "v": 127
    },
    {
      "midi": 55,
      "hit": false,
      "t": 168500,
      "d": 250,
      "v": 127
    },
    {
      "midi": 60,
      "hit": false,
      "t": 168500,
      "d": 250,
      "v": 127
    },
    {
      "midi": 64,
      "hit": false,
      "t": 168500,
      "d": 250,
      "v": 127
    },
    {
      "midi": 55,
      "hit": false,
      "t": 168750,
      "d": 250,
      "v": 127
    },
    {
      "midi": 60,
      "hit": false,
      "t": 168750,
      "d": 250,
      "v": 127
    },
    {
      "midi": 64,
      "hit": false,
      "t": 168750,
      "d": 250,
      "v": 127
    },
    {
      "midi": 80,
      "hit": false,
      "t": 169000,
      "d": 750,
      "v": 127
    },
    {
      "midi": 53,
      "hit": false,
      "t": 169000,
      "d": 250,
      "v": 127
    },
    {
      "midi": 56,
      "hit": false,
      "t": 169250,
      "d": 250,
      "v": 127
    },
    {
      "midi": 60,
      "hit": false,
      "t": 169250,
      "d": 250,
      "v": 127
    },
    {
      "midi": 65,
      "hit": false,
      "t": 169250,
      "d": 250,
      "v": 127
    },
    {
      "midi": 56,
      "hit": false,
      "t": 169500,
      "d": 250,
      "v": 127
    },
    {
      "midi": 60,
      "hit": false,
      "t": 169500,
      "d": 250,
      "v": 127
    },
    {
      "midi": 65,
      "hit": false,
      "t": 169500,
      "d": 250,
      "v": 127
    },
    {
      "midi": 80,
      "hit": false,
      "t": 169750,
      "d": 250,
      "v": 127
    },
    {
      "midi": 56,
      "hit": false,
      "t": 169750,
      "d": 250,
      "v": 127
    },
    {
      "midi": 60,
      "hit": false,
      "t": 169750,
      "d": 250,
      "v": 127
    },
    {
      "midi": 65,
      "hit": false,
      "t": 169750,
      "d": 250,
      "v": 127
    },
    {
      "midi": 80,
      "hit": false,
      "t": 170000,
      "d": 1000,
      "v": 127
    },
    {
      "midi": 46,
      "hit": false,
      "t": 170000,
      "d": 250,
      "v": 127
    },
    {
      "midi": 51,
      "hit": false,
      "t": 170250,
      "d": 250,
      "v": 127
    },
    {
      "midi": 56,
      "hit": false,
      "t": 170250,
      "d": 250,
      "v": 127
    },
    {
      "midi": 51,
      "hit": false,
      "t": 170500,
      "d": 250,
      "v": 127
    },
    {
      "midi": 56,
      "hit": false,
      "t": 170500,
      "d": 250,
      "v": 127
    },
    {
      "midi": 51,
      "hit": false,
      "t": 170750,
      "d": 250,
      "v": 127
    },
    {
      "midi": 56,
      "hit": false,
      "t": 170750,
      "d": 250,
      "v": 127
    },
    {
      "midi": 46,
      "hit": false,
      "t": 171000,
      "d": 250,
      "v": 127
    },
    {
      "midi": 79,
      "hit": false,
      "t": 171250,
      "d": 250,
      "v": 127
    },
    {
      "midi": 51,
      "hit": false,
      "t": 171250,
      "d": 250,
      "v": 127
    },
    {
      "midi": 55,
      "hit": false,
      "t": 171250,
      "d": 250,
      "v": 127
    },
    {
      "midi": 74,
      "hit": false,
      "t": 171500,
      "d": 250,
      "v": 127
    },
    {
      "midi": 51,
      "hit": false,
      "t": 171500,
      "d": 250,
      "v": 127
    },
    {
      "midi": 55,
      "hit": false,
      "t": 171500,
      "d": 250,
      "v": 127
    },
    {
      "midi": 75,
      "hit": false,
      "t": 171750,
      "d": 250,
      "v": 127
    },
    {
      "midi": 51,
      "hit": false,
      "t": 171750,
      "d": 250,
      "v": 127
    },
    {
      "midi": 55,
      "hit": false,
      "t": 171750,
      "d": 250,
      "v": 127
    },
    {
      "midi": 77,
      "hit": false,
      "t": 172000,
      "d": 750,
      "v": 127
    },
    {
      "midi": 46,
      "hit": false,
      "t": 172000,
      "d": 250,
      "v": 127
    },
    {
      "midi": 51,
      "hit": false,
      "t": 172250,
      "d": 250,
      "v": 127
    },
    {
      "midi": 55,
      "hit": false,
      "t": 172250,
      "d": 250,
      "v": 127
    },
    {
      "midi": 51,
      "hit": false,
      "t": 172500,
      "d": 250,
      "v": 127
    },
    {
      "midi": 55,
      "hit": false,
      "t": 172500,
      "d": 250,
      "v": 127
    },
    {
      "midi": 75,
      "hit": false,
      "t": 172750,
      "d": 250,
      "v": 127
    },
    {
      "midi": 51,
      "hit": false,
      "t": 172750,
      "d": 250,
      "v": 127
    },
    {
      "midi": 55,
      "hit": false,
      "t": 172750,
      "d": 250,
      "v": 127
    },
    {
      "midi": 75,
      "hit": false,
      "t": 173000,
      "d": 1000,
      "v": 127
    },
    {
      "midi": 46,
      "hit": false,
      "t": 173000,
      "d": 250,
      "v": 127
    },
    {
      "midi": 51,
      "hit": false,
      "t": 173250,
      "d": 250,
      "v": 127
    },
    {
      "midi": 53,
      "hit": false,
      "t": 173250,
      "d": 250,
      "v": 127
    },
    {
      "midi": 56,
      "hit": false,
      "t": 173250,
      "d": 250,
      "v": 127
    },
    {
      "midi": 51,
      "hit": false,
      "t": 173500,
      "d": 250,
      "v": 127
    },
    {
      "midi": 53,
      "hit": false,
      "t": 173500,
      "d": 250,
      "v": 127
    },
    {
      "midi": 56,
      "hit": false,
      "t": 173500,
      "d": 250,
      "v": 127
    },
    {
      "midi": 51,
      "hit": false,
      "t": 173750,
      "d": 250,
      "v": 127
    },
    {
      "midi": 53,
      "hit": false,
      "t": 173750,
      "d": 250,
      "v": 127
    },
    {
      "midi": 56,
      "hit": false,
      "t": 173750,
      "d": 250,
      "v": 127
    },
    {
      "midi": 65,
      "hit": false,
      "t": 174000,
      "d": 250,
      "v": 127
    },
    {
      "midi": 46,
      "hit": false,
      "t": 174000,
      "d": 250,
      "v": 127
    },
    {
      "midi": 68,
      "hit": false,
      "t": 174250,
      "d": 250,
      "v": 127
    },
    {
      "midi": 50,
      "hit": false,
      "t": 174250,
      "d": 250,
      "v": 127
    },
    {
      "midi": 53,
      "hit": false,
      "t": 174250,
      "d": 250,
      "v": 127
    },
    {
      "midi": 56,
      "hit": false,
      "t": 174250,
      "d": 250,
      "v": 127
    },
    {
      "midi": 67,
      "hit": false,
      "t": 174500,
      "d": 250,
      "v": 127
    },
    {
      "midi": 50,
      "hit": false,
      "t": 174500,
      "d": 250,
      "v": 127
    },
    {
      "midi": 53,
      "hit": false,
      "t": 174500,
      "d": 250,
      "v": 127
    },
    {
      "midi": 56,
      "hit": false,
      "t": 174500,
      "d": 250,
      "v": 127
    },
    {
      "midi": 68,
      "hit": false,
      "t": 174750,
      "d": 250,
      "v": 127
    },
    {
      "midi": 50,
      "hit": false,
      "t": 174750,
      "d": 250,
      "v": 127
    },
    {
      "midi": 53,
      "hit": false,
      "t": 174750,
      "d": 250,
      "v": 127
    },
    {
      "midi": 56,
      "hit": false,
      "t": 174750,
      "d": 250,
      "v": 127
    },
    {
      "midi": 72,
      "hit": false,
      "t": 175000,
      "d": 750,
      "v": 127
    },
    {
      "midi": 46,
      "hit": false,
      "t": 175000,
      "d": 250,
      "v": 127
    },
    {
      "midi": 50,
      "hit": false,
      "t": 175250,
      "d": 250,
      "v": 127
    },
    {
      "midi": 53,
      "hit": false,
      "t": 175250,
      "d": 250,
      "v": 127
    },
    {
      "midi": 56,
      "hit": false,
      "t": 175250,
      "d": 250,
      "v": 127
    },
    {
      "midi": 50,
      "hit": false,
      "t": 175500,
      "d": 250,
      "v": 127
    },
    {
      "midi": 53,
      "hit": false,
      "t": 175500,
      "d": 250,
      "v": 127
    },
    {
      "midi": 56,
      "hit": false,
      "t": 175500,
      "d": 250,
      "v": 127
    },
    {
      "midi": 70,
      "hit": false,
      "t": 175750,
      "d": 250,
      "v": 127
    },
    {
      "midi": 50,
      "hit": false,
      "t": 175750,
      "d": 250,
      "v": 127
    },
    {
      "midi": 53,
      "hit": false,
      "t": 175750,
      "d": 250,
      "v": 127
    },
    {
      "midi": 56,
      "hit": false,
      "t": 175750,
      "d": 250,
      "v": 127
    },
    {
      "midi": 75,
      "hit": false,
      "t": 176000,
      "d": 1000,
      "v": 127
    },
    {
      "midi": 51,
      "hit": false,
      "t": 176000,
      "d": 250,
      "v": 127
    },
    {
      "midi": 55,
      "hit": false,
      "t": 176250,
      "d": 250,
      "v": 127
    },
    {
      "midi": 58,
      "hit": false,
      "t": 176250,
      "d": 250,
      "v": 127
    },
    {
      "midi": 63,
      "hit": false,
      "t": 176250,
      "d": 250,
      "v": 127
    },
    {
      "midi": 55,
      "hit": false,
      "t": 176500,
      "d": 250,
      "v": 127
    },
    {
      "midi": 58,
      "hit": false,
      "t": 176500,
      "d": 250,
      "v": 127
    },
    {
      "midi": 63,
      "hit": false,
      "t": 176500,
      "d": 250,
      "v": 127
    },
    {
      "midi": 55,
      "hit": false,
      "t": 176750,
      "d": 250,
      "v": 127
    },
    {
      "midi": 58,
      "hit": false,
      "t": 176750,
      "d": 250,
      "v": 127
    },
    {
      "midi": 63,
      "hit": false,
      "t": 176750,
      "d": 250,
      "v": 127
    },
    {
      "midi": 51,
      "hit": false,
      "t": 177000,
      "d": 250,
      "v": 127
    },
    {
      "midi": 55,
      "hit": false,
      "t": 177250,
      "d": 250,
      "v": 127
    },
    {
      "midi": 58,
      "hit": false,
      "t": 177250,
      "d": 250,
      "v": 127
    },
    {
      "midi": 63,
      "hit": false,
      "t": 177250,
      "d": 250,
      "v": 127
    },
    {
      "midi": 55,
      "hit": false,
      "t": 177500,
      "d": 250,
      "v": 127
    },
    {
      "midi": 58,
      "hit": false,
      "t": 177500,
      "d": 250,
      "v": 127
    },
    {
      "midi": 63,
      "hit": false,
      "t": 177500,
      "d": 250,
      "v": 127
    },
    {
      "midi": 55,
      "hit": false,
      "t": 177750,
      "d": 250,
      "v": 127
    },
    {
      "midi": 58,
      "hit": false,
      "t": 177750,
      "d": 250,
      "v": 127
    },
    {
      "midi": 63,
      "hit": false,
      "t": 177750,
      "d": 250,
      "v": 127
    },
    {
      "midi": 51,
      "hit": false,
      "t": 178000,
      "d": 250,
      "v": 127
    },
    {
      "midi": 55,
      "hit": false,
      "t": 178250,
      "d": 250,
      "v": 127
    },
    {
      "midi": 58,
      "hit": false,
      "t": 178250,
      "d": 250,
      "v": 127
    },
    {
      "midi": 63,
      "hit": false,
      "t": 178250,
      "d": 250,
      "v": 127
    },
    {
      "midi": 55,
      "hit": false,
      "t": 178500,
      "d": 250,
      "v": 127
    },
    {
      "midi": 58,
      "hit": false,
      "t": 178500,
      "d": 250,
      "v": 127
    },
    {
      "midi": 63,
      "hit": false,
      "t": 178500,
      "d": 250,
      "v": 127
    },
    {
      "midi": 75,
      "hit": false,
      "t": 178750,
      "d": 250,
      "v": 127
    },
    {
      "midi": 55,
      "hit": false,
      "t": 178750,
      "d": 250,
      "v": 127
    },
    {
      "midi": 58,
      "hit": false,
      "t": 178750,
      "d": 250,
      "v": 127
    },
    {
      "midi": 63,
      "hit": false,
      "t": 178750,
      "d": 250,
      "v": 127
    },
    {
      "midi": 77,
      "hit": false,
      "t": 179000,
      "d": 2000,
      "v": 127
    },
    {
      "midi": 50,
      "hit": false,
      "t": 179000,
      "d": 250,
      "v": 127
    },
    {
      "midi": 53,
      "hit": false,
      "t": 179250,
      "d": 250,
      "v": 127
    },
    {
      "midi": 56,
      "hit": false,
      "t": 179250,
      "d": 250,
      "v": 127
    },
    {
      "midi": 53,
      "hit": false,
      "t": 179500,
      "d": 250,
      "v": 127
    },
    {
      "midi": 56,
      "hit": false,
      "t": 179500,
      "d": 250,
      "v": 127
    },
    {
      "midi": 49,
      "hit": false,
      "t": 179750,
      "d": 250,
      "v": 127
    },
    {
      "midi": 53,
      "hit": false,
      "t": 179750,
      "d": 250,
      "v": 127
    },
    {
      "midi": 56,
      "hit": false,
      "t": 179750,
      "d": 250,
      "v": 127
    },
    {
      "midi": 48,
      "hit": false,
      "t": 180000,
      "d": 250,
      "v": 127
    },
    {
      "midi": 53,
      "hit": false,
      "t": 180250,
      "d": 250,
      "v": 127
    },
    {
      "midi": 56,
      "hit": false,
      "t": 180250,
      "d": 250,
      "v": 127
    },
    {
      "midi": 53,
      "hit": false,
      "t": 180500,
      "d": 250,
      "v": 127
    },
    {
      "midi": 56,
      "hit": false,
      "t": 180500,
      "d": 250,
      "v": 127
    },
    {
      "midi": 47,
      "hit": false,
      "t": 180750,
      "d": 250,
      "v": 127
    },
    {
      "midi": 53,
      "hit": false,
      "t": 180750,
      "d": 250,
      "v": 127
    },
    {
      "midi": 56,
      "hit": false,
      "t": 180750,
      "d": 250,
      "v": 127
    },
    {
      "midi": 46,
      "hit": false,
      "t": 181000,
      "d": 250,
      "v": 127
    },
    {
      "midi": 53,
      "hit": false,
      "t": 181250,
      "d": 250,
      "v": 127
    },
    {
      "midi": 56,
      "hit": false,
      "t": 181250,
      "d": 250,
      "v": 127
    },
    {
      "midi": 70,
      "hit": false,
      "t": 181500,
      "d": 500,
      "v": 127
    },
    {
      "midi": 53,
      "hit": false,
      "t": 181500,
      "d": 250,
      "v": 127
    },
    {
      "midi": 56,
      "hit": false,
      "t": 181500,
      "d": 250,
      "v": 127
    },
    {
      "midi": 46,
      "hit": false,
      "t": 181750,
      "d": 250,
      "v": 127
    },
    {
      "midi": 53,
      "hit": false,
      "t": 181750,
      "d": 250,
      "v": 127
    },
    {
      "midi": 56,
      "hit": false,
      "t": 181750,
      "d": 250,
      "v": 127
    },
    {
      "midi": 75,
      "hit": false,
      "t": 182000,
      "d": 1000,
      "v": 127
    },
    {
      "midi": 51,
      "hit": false,
      "t": 182000,
      "d": 250,
      "v": 127
    },
    {
      "midi": 55,
      "hit": false,
      "t": 182250,
      "d": 250,
      "v": 127
    },
    {
      "midi": 58,
      "hit": false,
      "t": 182250,
      "d": 250,
      "v": 127
    },
    {
      "midi": 55,
      "hit": false,
      "t": 182500,
      "d": 250,
      "v": 127
    },
    {
      "midi": 58,
      "hit": false,
      "t": 182500,
      "d": 250,
      "v": 127
    },
    {
      "midi": 55,
      "hit": false,
      "t": 182750,
      "d": 250,
      "v": 127
    },
    {
      "midi": 58,
      "hit": false,
      "t": 182750,
      "d": 250,
      "v": 127
    },
    {
      "midi": 51,
      "hit": false,
      "t": 183000,
      "d": 250,
      "v": 127
    },
    {
      "midi": 55,
      "hit": false,
      "t": 183250,
      "d": 250,
      "v": 127
    },
    {
      "midi": 58,
      "hit": false,
      "t": 183250,
      "d": 250,
      "v": 127
    },
    {
      "midi": 55,
      "hit": false,
      "t": 183500,
      "d": 250,
      "v": 127
    },
    {
      "midi": 58,
      "hit": false,
      "t": 183500,
      "d": 250,
      "v": 127
    },
    {
      "midi": 55,
      "hit": false,
      "t": 183750,
      "d": 250,
      "v": 127
    },
    {
      "midi": 58,
      "hit": false,
      "t": 183750,
      "d": 250,
      "v": 127
    },
    {
      "midi": 51,
      "hit": false,
      "t": 184000,
      "d": 250,
      "v": 127
    },
    {
      "midi": 55,
      "hit": false,
      "t": 184250,
      "d": 250,
      "v": 127
    },
    {
      "midi": 58,
      "hit": false,
      "t": 184250,
      "d": 250,
      "v": 127
    },
    {
      "midi": 55,
      "hit": false,
      "t": 184500,
      "d": 250,
      "v": 127
    },
    {
      "midi": 58,
      "hit": false,
      "t": 184500,
      "d": 250,
      "v": 127
    },
    {
      "midi": 75,
      "hit": false,
      "t": 184750,
      "d": 250,
      "v": 127
    },
    {
      "midi": 55,
      "hit": false,
      "t": 184750,
      "d": 250,
      "v": 127
    },
    {
      "midi": 58,
      "hit": false,
      "t": 184750,
      "d": 250,
      "v": 127
    },
    {
      "midi": 77,
      "hit": false,
      "t": 185000,
      "d": 2000,
      "v": 127
    },
    {
      "midi": 50,
      "hit": false,
      "t": 185000,
      "d": 250,
      "v": 127
    },
    {
      "midi": 53,
      "hit": false,
      "t": 185250,
      "d": 250,
      "v": 127
    },
    {
      "midi": 56,
      "hit": false,
      "t": 185250,
      "d": 250,
      "v": 127
    },
    {
      "midi": 53,
      "hit": false,
      "t": 185500,
      "d": 250,
      "v": 127
    },
    {
      "midi": 56,
      "hit": false,
      "t": 185500,
      "d": 250,
      "v": 127
    },
    {
      "midi": 49,
      "hit": false,
      "t": 185750,
      "d": 250,
      "v": 127
    },
    {
      "midi": 53,
      "hit": false,
      "t": 185750,
      "d": 250,
      "v": 127
    },
    {
      "midi": 56,
      "hit": false,
      "t": 185750,
      "d": 250,
      "v": 127
    },
    {
      "midi": 48,
      "hit": false,
      "t": 186000,
      "d": 250,
      "v": 127
    },
    {
      "midi": 53,
      "hit": false,
      "t": 186250,
      "d": 250,
      "v": 127
    },
    {
      "midi": 56,
      "hit": false,
      "t": 186250,
      "d": 250,
      "v": 127
    },
    {
      "midi": 53,
      "hit": false,
      "t": 186500,
      "d": 250,
      "v": 127
    },
    {
      "midi": 56,
      "hit": false,
      "t": 186500,
      "d": 250,
      "v": 127
    },
    {
      "midi": 47,
      "hit": false,
      "t": 186750,
      "d": 250,
      "v": 127
    },
    {
      "midi": 53,
      "hit": false,
      "t": 186750,
      "d": 250,
      "v": 127
    },
    {
      "midi": 56,
      "hit": false,
      "t": 186750,
      "d": 250,
      "v": 127
    },
    {
      "midi": 46,
      "hit": false,
      "t": 187000,
      "d": 1000,
      "v": 127
    },
    {
      "midi": 53,
      "hit": false,
      "t": 187000,
      "d": 1000,
      "v": 127
    },
    {
      "midi": 56,
      "hit": false,
      "t": 187000,
      "d": 1000,
      "v": 127
    },
    {
      "midi": 75,
      "hit": false,
      "t": 187500,
      "d": 500,
      "v": 127
    },
    {
      "midi": 74,
      "hit": false,
      "t": 188000,
      "d": 500,
      "v": 127
    },
    {
      "midi": 72,
      "hit": false,
      "t": 188500,
      "d": 500,
      "v": 127
    },
    {
      "midi": 72,
      "hit": false,
      "t": 189000,
      "d": 750,
      "v": 127
    },
    {
      "midi": 70,
      "hit": false,
      "t": 189750,
      "d": 250,
      "v": 127
    },
    {
      "midi": 70,
      "hit": false,
      "t": 190000,
      "d": 750,
      "v": 127
    },
    {
      "midi": 68,
      "hit": false,
      "t": 190750,
      "d": 250,
      "v": 127
    },
    {
      "midi": 70,
      "hit": false,
      "t": 191000,
      "d": 250,
      "v": 127
    },
    {
      "midi": 74,
      "hit": false,
      "t": 191250,
      "d": 250,
      "v": 127
    },
    {
      "midi": 77,
      "hit": false,
      "t": 191500,
      "d": 250,
      "v": 127
    },
    {
      "midi": 79,
      "hit": false,
      "t": 191750,
      "d": 250,
      "v": 127
    },
    {
      "midi": 80,
      "hit": false,
      "t": 192000,
      "d": 1000,
      "v": 127
    },
    {
      "midi": 76,
      "hit": false,
      "t": 193250,
      "d": 250,
      "v": 127
    },
    {
      "midi": 77,
      "hit": false,
      "t": 193500,
      "d": 250,
      "v": 127
    },
    {
      "midi": 73,
      "hit": false,
      "t": 193750,
      "d": 250,
      "v": 127
    },
    {
      "midi": 74,
      "hit": false,
      "t": 194000,
      "d": 250,
      "v": 127
    },
    {
      "midi": 69,
      "hit": false,
      "t": 194250,
      "d": 250,
      "v": 127
    },
    {
      "midi": 70,
      "hit": false,
      "t": 194500,
      "d": 250,
      "v": 127
    },
    {
      "midi": 71,
      "hit": false,
      "t": 194750,
      "d": 250,
      "v": 127
    },
    {
      "midi": 74,
      "hit": false,
      "t": 195000,
      "d": 1000,
      "v": 127
    },
    {
      "midi": 72,
      "hit": false,
      "t": 196000,
      "d": 750,
      "v": 127
    },
    {
      "midi": 74,
      "hit": false,
      "t": 196750,
      "d": 250,
      "v": 127
    },
    {
      "midi": 73,
      "hit": false,
      "t": 197000,
      "d": 250,
      "v": 127
    },
    {
      "midi": 74,
      "hit": false,
      "t": 197250,
      "d": 250,
      "v": 127
    },
    {
      "midi": 79,
      "hit": false,
      "t": 197500,
      "d": 1500,
      "v": 127
    },
    {
      "midi": 77,
      "hit": false,
      "t": 199000,
      "d": 500,
      "v": 127
    },
    {
      "midi": 75,
      "hit": false,
      "t": 199500,
      "d": 500,
      "v": 127
    },
    {
      "midi": 51,
      "hit": false,
      "t": 199500,
      "d": 250,
      "v": 127
    },
    {
      "midi": 55,
      "hit": false,
      "t": 199750,
      "d": 250,
      "v": 127
    },
    {
      "midi": 58,
      "hit": false,
      "t": 199750,
      "d": 250,
      "v": 127
    },
    {
      "midi": 63,
      "hit": false,
      "t": 199750,
      "d": 250,
      "v": 127
    },
    {
      "midi": 55,
      "hit": false,
      "t": 200000,
      "d": 250,
      "v": 127
    },
    {
      "midi": 58,
      "hit": false,
      "t": 200000,
      "d": 250,
      "v": 127
    },
    {
      "midi": 63,
      "hit": false,
      "t": 200000,
      "d": 250,
      "v": 127
    },
    {
      "midi": 55,
      "hit": false,
      "t": 200250,
      "d": 250,
      "v": 127
    },
    {
      "midi": 58,
      "hit": false,
      "t": 200250,
      "d": 250,
      "v": 127
    },
    {
      "midi": 63,
      "hit": false,
      "t": 200250,
      "d": 250,
      "v": 127
    },
    {
      "midi": 51,
      "hit": false,
      "t": 200500,
      "d": 250,
      "v": 127
    },
    {
      "midi": 55,
      "hit": false,
      "t": 200750,
      "d": 250,
      "v": 127
    },
    {
      "midi": 58,
      "hit": false,
      "t": 200750,
      "d": 250,
      "v": 127
    },
    {
      "midi": 63,
      "hit": false,
      "t": 200750,
      "d": 250,
      "v": 127
    },
    {
      "midi": 55,
      "hit": false,
      "t": 201000,
      "d": 250,
      "v": 127
    },
    {
      "midi": 58,
      "hit": false,
      "t": 201000,
      "d": 250,
      "v": 127
    },
    {
      "midi": 63,
      "hit": false,
      "t": 201000,
      "d": 250,
      "v": 127
    },
    {
      "midi": 55,
      "hit": false,
      "t": 201250,
      "d": 250,
      "v": 127
    },
    {
      "midi": 58,
      "hit": false,
      "t": 201250,
      "d": 250,
      "v": 127
    },
    {
      "midi": 63,
      "hit": false,
      "t": 201250,
      "d": 250,
      "v": 127
    },
    {
      "midi": 51,
      "hit": false,
      "t": 201500,
      "d": 250,
      "v": 127
    },
    {
      "midi": 55,
      "hit": false,
      "t": 201750,
      "d": 250,
      "v": 127
    },
    {
      "midi": 58,
      "hit": false,
      "t": 201750,
      "d": 250,
      "v": 127
    },
    {
      "midi": 63,
      "hit": false,
      "t": 201750,
      "d": 250,
      "v": 127
    },
    {
      "midi": 55,
      "hit": false,
      "t": 202000,
      "d": 250,
      "v": 127
    },
    {
      "midi": 58,
      "hit": false,
      "t": 202000,
      "d": 250,
      "v": 127
    },
    {
      "midi": 63,
      "hit": false,
      "t": 202000,
      "d": 250,
      "v": 127
    },
    {
      "midi": 55,
      "hit": false,
      "t": 202250,
      "d": 250,
      "v": 127
    },
    {
      "midi": 58,
      "hit": false,
      "t": 202250,
      "d": 250,
      "v": 127
    },
    {
      "midi": 63,
      "hit": false,
      "t": 202250,
      "d": 250,
      "v": 127
    },
    {
      "midi": 51,
      "hit": false,
      "t": 202500,
      "d": 500,
      "v": 127
    },
    {
      "midi": 55,
      "hit": false,
      "t": 202500,
      "d": 500,
      "v": 127
    },
    {
      "midi": 58,
      "hit": false,
      "t": 202500,
      "d": 500,
      "v": 127
    },
    {
      "midi": 63,
      "hit": false,
      "t": 202500,
      "d": 500,
      "v": 127
    },
    {
      "midi": 43,
      "hit": false,
      "t": 205500,
      "d": 500,
      "v": 127
    },
    {
      "midi": 44,
      "hit": false,
      "t": 206000,
      "d": 500,
      "v": 127
    },
    {
      "midi": 43,
      "hit": false,
      "t": 206500,
      "d": 500,
      "v": 127
    },
    {
      "midi": 48,
      "hit": false,
      "t": 207000,
      "d": 500,
      "v": 127
    },
    {
      "midi": 47,
      "hit": false,
      "t": 207500,
      "d": 500,
      "v": 127
    },
    {
      "midi": 52,
      "hit": false,
      "t": 208000,
      "d": 500,
      "v": 127
    },
    {
      "midi": 50,
      "hit": false,
      "t": 208500,
      "d": 500,
      "v": 127
    },
    {
      "midi": 47,
      "hit": false,
      "t": 209000,
      "d": 500,
      "v": 127
    },
    {
      "midi": 67,
      "hit": false,
      "t": 209500,
      "d": 500,
      "v": 127
    },
    {
      "midi": 43,
      "hit": false,
      "t": 209500,
      "d": 500,
      "v": 127
    },
    {
      "midi": 68,
      "hit": false,
      "t": 210000,
      "d": 500,
      "v": 127
    },
    {
      "midi": 44,
      "hit": false,
      "t": 210000,
      "d": 500,
      "v": 127
    },
    {
      "midi": 67,
      "hit": false,
      "t": 210500,
      "d": 500,
      "v": 127
    },
    {
      "midi": 43,
      "hit": false,
      "t": 210500,
      "d": 500,
      "v": 127
    },
    {
      "midi": 72,
      "hit": false,
      "t": 211000,
      "d": 500,
      "v": 127
    },
    {
      "midi": 48,
      "hit": false,
      "t": 211000,
      "d": 500,
      "v": 127
    },
    {
      "midi": 71,
      "hit": false,
      "t": 211500,
      "d": 500,
      "v": 127
    },
    {
      "midi": 47,
      "hit": false,
      "t": 211500,
      "d": 500,
      "v": 127
    },
    {
      "midi": 76,
      "hit": false,
      "t": 212000,
      "d": 500,
      "v": 127
    },
    {
      "midi": 52,
      "hit": false,
      "t": 212000,
      "d": 500,
      "v": 127
    },
    {
      "midi": 74,
      "hit": false,
      "t": 212500,
      "d": 500,
      "v": 127
    },
    {
      "midi": 50,
      "hit": false,
      "t": 212500,
      "d": 500,
      "v": 127
    },
    {
      "midi": 71,
      "hit": false,
      "t": 213000,
      "d": 500,
      "v": 127
    },
    {
      "midi": 47,
      "hit": false,
      "t": 213000,
      "d": 500,
      "v": 127
    },
    {
      "midi": 67,
      "hit": false,
      "t": 213500,
      "d": 500,
      "v": 127
    },
    {
      "midi": 79,
      "hit": false,
      "t": 213500,
      "d": 500,
      "v": 127
    },
    {
      "midi": 43,
      "hit": false,
      "t": 213500,
      "d": 500,
      "v": 127
    },
    {
      "midi": 68,
      "hit": false,
      "t": 214000,
      "d": 500,
      "v": 127
    },
    {
      "midi": 80,
      "hit": false,
      "t": 214000,
      "d": 500,
      "v": 127
    },
    {
      "midi": 44,
      "hit": false,
      "t": 214000,
      "d": 500,
      "v": 127
    },
    {
      "midi": 67,
      "hit": false,
      "t": 214500,
      "d": 500,
      "v": 127
    },
    {
      "midi": 79,
      "hit": false,
      "t": 214500,
      "d": 500,
      "v": 127
    },
    {
      "midi": 43,
      "hit": false,
      "t": 214500,
      "d": 500,
      "v": 127
    },
    {
      "midi": 72,
      "hit": false,
      "t": 215000,
      "d": 500,
      "v": 127
    },
    {
      "midi": 84,
      "hit": false,
      "t": 215000,
      "d": 500,
      "v": 127
    },
    {
      "midi": 48,
      "hit": false,
      "t": 215000,
      "d": 500,
      "v": 127
    },
    {
      "midi": 71,
      "hit": false,
      "t": 215500,
      "d": 500,
      "v": 127
    },
    {
      "midi": 83,
      "hit": false,
      "t": 215500,
      "d": 500,
      "v": 127
    },
    {
      "midi": 47,
      "hit": false,
      "t": 215500,
      "d": 500,
      "v": 127
    },
    {
      "midi": 76,
      "hit": false,
      "t": 216000,
      "d": 500,
      "v": 127
    },
    {
      "midi": 88,
      "hit": false,
      "t": 216000,
      "d": 500,
      "v": 127
    },
    {
      "midi": 52,
      "hit": false,
      "t": 216000,
      "d": 500,
      "v": 127
    },
    {
      "midi": 74,
      "hit": false,
      "t": 216500,
      "d": 500,
      "v": 127
    },
    {
      "midi": 86,
      "hit": false,
      "t": 216500,
      "d": 500,
      "v": 127
    },
    {
      "midi": 50,
      "hit": false,
      "t": 216500,
      "d": 500,
      "v": 127
    },
    {
      "midi": 71,
      "hit": false,
      "t": 217000,
      "d": 500,
      "v": 127
    },
    {
      "midi": 83,
      "hit": false,
      "t": 217000,
      "d": 500,
      "v": 127
    },
    {
      "midi": 47,
      "hit": false,
      "t": 217000,
      "d": 500,
      "v": 127
    },
    {
      "midi": 67,
      "hit": false,
      "t": 217500,
      "d": 500,
      "v": 127
    },
    {
      "midi": 79,
      "hit": false,
      "t": 217500,
      "d": 500,
      "v": 127
    },
    {
      "midi": 43,
      "hit": false,
      "t": 217500,
      "d": 500,
      "v": 127
    },
    {
      "midi": 76,
      "hit": false,
      "t": 218000,
      "d": 500,
      "v": 127
    },
    {
      "midi": 88,
      "hit": false,
      "t": 218000,
      "d": 500,
      "v": 127
    },
    {
      "midi": 52,
      "hit": false,
      "t": 218000,
      "d": 500,
      "v": 127
    },
    {
      "midi": 74,
      "hit": false,
      "t": 218500,
      "d": 500,
      "v": 127
    },
    {
      "midi": 86,
      "hit": false,
      "t": 218500,
      "d": 500,
      "v": 127
    },
    {
      "midi": 50,
      "hit": false,
      "t": 218500,
      "d": 500,
      "v": 127
    },
    {
      "midi": 71,
      "hit": false,
      "t": 219000,
      "d": 500,
      "v": 127
    },
    {
      "midi": 83,
      "hit": false,
      "t": 219000,
      "d": 500,
      "v": 127
    },
    {
      "midi": 47,
      "hit": false,
      "t": 219000,
      "d": 500,
      "v": 127
    },
    {
      "midi": 67,
      "hit": false,
      "t": 219500,
      "d": 500,
      "v": 127
    },
    {
      "midi": 79,
      "hit": false,
      "t": 219500,
      "d": 500,
      "v": 127
    },
    {
      "midi": 43,
      "hit": false,
      "t": 219500,
      "d": 500,
      "v": 127
    },
    {
      "midi": 76,
      "hit": false,
      "t": 220000,
      "d": 500,
      "v": 127
    },
    {
      "midi": 88,
      "hit": false,
      "t": 220000,
      "d": 500,
      "v": 127
    },
    {
      "midi": 52,
      "hit": false,
      "t": 220000,
      "d": 500,
      "v": 127
    },
    {
      "midi": 74,
      "hit": false,
      "t": 220500,
      "d": 500,
      "v": 127
    },
    {
      "midi": 86,
      "hit": false,
      "t": 220500,
      "d": 500,
      "v": 127
    },
    {
      "midi": 50,
      "hit": false,
      "t": 220500,
      "d": 500,
      "v": 127
    },
    {
      "midi": 71,
      "hit": false,
      "t": 221000,
      "d": 500,
      "v": 127
    },
    {
      "midi": 83,
      "hit": false,
      "t": 221000,
      "d": 500,
      "v": 127
    },
    {
      "midi": 47,
      "hit": false,
      "t": 221000,
      "d": 500,
      "v": 127
    },
    {
      "midi": 67,
      "hit": false,
      "t": 221500,
      "d": 1000,
      "v": 127
    },
    {
      "midi": 79,
      "hit": false,
      "t": 221500,
      "d": 1000,
      "v": 127
    },
    {
      "midi": 43,
      "hit": false,
      "t": 221500,
      "d": 1000,
      "v": 127
    },
    {
      "midi": 62,
      "hit": false,
      "t": 223500,
      "d": 1500,
      "v": 127
    },
    {
      "midi": 41,
      "hit": false,
      "t": 223500,
      "d": 2000,
      "v": 127
    },
    {
      "midi": 53,
      "hit": false,
      "t": 223500,
      "d": 2000,
      "v": 127
    },
    {
      "midi": 57,
      "hit": false,
      "t": 223500,
      "d": 2000,
      "v": 127
    },
    {
      "midi": 63,
      "hit": false,
      "t": 225000,
      "d": 500,
      "v": 127
    },
    {
      "midi": 64,
      "hit": false,
      "t": 225500,
      "d": 1000,
      "v": 127
    },
    {
      "midi": 40,
      "hit": false,
      "t": 225500,
      "d": 1000,
      "v": 127
    },
    {
      "midi": 52,
      "hit": false,
      "t": 225500,
      "d": 1000,
      "v": 127
    },
    {
      "midi": 56,
      "hit": false,
      "t": 225500,
      "d": 1000,
      "v": 127
    },
    {
      "midi": 76,
      "hit": false,
      "t": 227500,
      "d": 1500,
      "v": 127
    },
    {
      "midi": 76,
      "hit": false,
      "t": 229000,
      "d": 500,
      "v": 127
    },
    {
      "midi": 64,
      "hit": false,
      "t": 229500,
      "d": 1000,
      "v": 127
    },
    {
      "midi": 60,
      "hit": false,
      "t": 229500,
      "d": 500,
      "v": 127
    },
    {
      "midi": 47,
      "hit": false,
      "t": 230000,
      "d": 500,
      "v": 127
    },
    {
      "midi": 48,
      "hit": false,
      "t": 230500,
      "d": 500,
      "v": 127
    },
    {
      "midi": 47,
      "hit": false,
      "t": 231000,
      "d": 250,
      "v": 127
    },
    {
      "midi": 64,
      "hit": false,
      "t": 231250,
      "d": 250,
      "v": 127
    },
    {
      "midi": 57,
      "hit": false,
      "t": 231250,
      "d": 250,
      "v": 127
    },
    {
      "midi": 60,
      "hit": false,
      "t": 231250,
      "d": 250,
      "v": 127
    },
    {
      "midi": 64,
      "hit": false,
      "t": 231500,
      "d": 1000,
      "v": 127
    },
    {
      "midi": 60,
      "hit": false,
      "t": 231500,
      "d": 500,
      "v": 127
    },
    {
      "midi": 47,
      "hit": false,
      "t": 232000,
      "d": 500,
      "v": 127
    },
    {
      "midi": 48,
      "hit": false,
      "t": 232500,
      "d": 500,
      "v": 127
    },
    {
      "midi": 45,
      "hit": false,
      "t": 233000,
      "d": 250,
      "v": 127
    },
    {
      "midi": 64,
      "hit": false,
      "t": 233250,
      "d": 250,
      "v": 127
    },
    {
      "midi": 57,
      "hit": false,
      "t": 233250,
      "d": 250,
      "v": 127
    },
    {
      "midi": 60,
      "hit": false,
      "t": 233250,
      "d": 250,
      "v": 127
    },
    {
      "midi": 62,
      "hit": false,
      "t": 233500,
      "d": 1000,
      "v": 127
    },
    {
      "midi": 64,
      "hit": false,
      "t": 233500,
      "d": 1000,
      "v": 127
    },
    {
      "midi": 59,
      "hit": false,
      "t": 233500,
      "d": 500,
      "v": 127
    },
    {
      "midi": 45,
      "hit": false,
      "t": 234000,
      "d": 500,
      "v": 127
    },
    {
      "midi": 47,
      "hit": false,
      "t": 234500,
      "d": 500,
      "v": 127
    },
    {
      "midi": 48,
      "hit": false,
      "t": 235000,
      "d": 250,
      "v": 127
    },
    {
      "midi": 62,
      "hit": false,
      "t": 235250,
      "d": 250,
      "v": 127
    },
    {
      "midi": 64,
      "hit": false,
      "t": 235250,
      "d": 250,
      "v": 127
    },
    {
      "midi": 56,
      "hit": false,
      "t": 235250,
      "d": 250,
      "v": 127
    },
    {
      "midi": 59,
      "hit": false,
      "t": 235250,
      "d": 250,
      "v": 127
    },
    {
      "midi": 62,
      "hit": false,
      "t": 235500,
      "d": 1000,
      "v": 127
    },
    {
      "midi": 64,
      "hit": false,
      "t": 235500,
      "d": 1000,
      "v": 127
    },
    {
      "midi": 59,
      "hit": false,
      "t": 235500,
      "d": 500,
      "v": 127
    },
    {
      "midi": 51,
      "hit": false,
      "t": 236000,
      "d": 500,
      "v": 127
    },
    {
      "midi": 52,
      "hit": false,
      "t": 236500,
      "d": 500,
      "v": 127
    },
    {
      "midi": 44,
      "hit": false,
      "t": 237000,
      "d": 250,
      "v": 127
    },
    {
      "midi": 62,
      "hit": false,
      "t": 237250,
      "d": 250,
      "v": 127
    },
    {
      "midi": 64,
      "hit": false,
      "t": 237250,
      "d": 250,
      "v": 127
    },
    {
      "midi": 56,
      "hit": false,
      "t": 237250,
      "d": 250,
      "v": 127
    },
    {
      "midi": 59,
      "hit": false,
      "t": 237250,
      "d": 250,
      "v": 127
    },
    {
      "midi": 64,
      "hit": false,
      "t": 237500,
      "d": 1000,
      "v": 127
    },
    {
      "midi": 60,
      "hit": false,
      "t": 237500,
      "d": 500,
      "v": 127
    },
    {
      "midi": 47,
      "hit": false,
      "t": 238000,
      "d": 500,
      "v": 127
    },
    {
      "midi": 48,
      "hit": false,
      "t": 238500,
      "d": 500,
      "v": 127
    },
    {
      "midi": 47,
      "hit": false,
      "t": 239000,
      "d": 250,
      "v": 127
    },
    {
      "midi": 64,
      "hit": false,
      "t": 239250,
      "d": 250,
      "v": 127
    },
    {
      "midi": 57,
      "hit": false,
      "t": 239250,
      "d": 250,
      "v": 127
    },
    {
      "midi": 60,
      "hit": false,
      "t": 239250,
      "d": 250,
      "v": 127
    },
    {
      "midi": 64,
      "hit": false,
      "t": 239500,
      "d": 1000,
      "v": 127
    },
    {
      "midi": 60,
      "hit": false,
      "t": 239500,
      "d": 500,
      "v": 127
    },
    {
      "midi": 47,
      "hit": false,
      "t": 240000,
      "d": 500,
      "v": 127
    },
    {
      "midi": 48,
      "hit": false,
      "t": 240500,
      "d": 500,
      "v": 127
    },
    {
      "midi": 45,
      "hit": false,
      "t": 241000,
      "d": 250,
      "v": 127
    },
    {
      "midi": 64,
      "hit": false,
      "t": 241250,
      "d": 250,
      "v": 127
    },
    {
      "midi": 57,
      "hit": false,
      "t": 241250,
      "d": 250,
      "v": 127
    },
    {
      "midi": 60,
      "hit": false,
      "t": 241250,
      "d": 250,
      "v": 127
    },
    {
      "midi": 63,
      "hit": false,
      "t": 241500,
      "d": 500,
      "v": 127
    },
    {
      "midi": 46,
      "hit": false,
      "t": 242000,
      "d": 500,
      "v": 127
    },
    {
      "midi": 47,
      "hit": false,
      "t": 242500,
      "d": 500,
      "v": 127
    },
    {
      "midi": 48,
      "hit": false,
      "t": 243000,
      "d": 250,
      "v": 127
    },
    {
      "midi": 54,
      "hit": false,
      "t": 243250,
      "d": 250,
      "v": 127
    },
    {
      "midi": 59,
      "hit": false,
      "t": 243250,
      "d": 250,
      "v": 127
    },
    {
      "midi": 63,
      "hit": false,
      "t": 243250,
      "d": 250,
      "v": 127
    },
    {
      "midi": 63,
      "hit": false,
      "t": 243500,
      "d": 500,
      "v": 127
    },
    {
      "midi": 45,
      "hit": false,
      "t": 244000,
      "d": 500,
      "v": 127
    },
    {
      "midi": 43,
      "hit": false,
      "t": 244500,
      "d": 500,
      "v": 127
    },
    {
      "midi": 42,
      "hit": false,
      "t": 245000,
      "d": 250,
      "v": 127
    },
    {
      "midi": 54,
      "hit": false,
      "t": 245250,
      "d": 250,
      "v": 127
    },
    {
      "midi": 59,
      "hit": false,
      "t": 245250,
      "d": 250,
      "v": 127
    },
    {
      "midi": 63,
      "hit": false,
      "t": 245250,
      "d": 250,
      "v": 127
    },
    {
      "midi": 64,
      "hit": false,
      "t": 245500,
      "d": 1000,
      "v": 127
    },
    {
      "midi": 59,
      "hit": false,
      "t": 245500,
      "d": 500,
      "v": 127
    },
    {
      "midi": 42,
      "hit": false,
      "t": 246000,
      "d": 500,
      "v": 127
    },
    {
      "midi": 43,
      "hit": false,
      "t": 246500,
      "d": 500,
      "v": 127
    },
    {
      "midi": 42,
      "hit": false,
      "t": 247000,
      "d": 250,
      "v": 127
    },
    {
      "midi": 64,
      "hit": false,
      "t": 247250,
      "d": 250,
      "v": 127
    },
    {
      "midi": 55,
      "hit": false,
      "t": 247250,
      "d": 250,
      "v": 127
    },
    {
      "midi": 59,
      "hit": false,
      "t": 247250,
      "d": 250,
      "v": 127
    },
    {
      "midi": 64,
      "hit": false,
      "t": 247500,
      "d": 1000,
      "v": 127
    },
    {
      "midi": 59,
      "hit": false,
      "t": 247500,
      "d": 500,
      "v": 127
    },
    {
      "midi": 42,
      "hit": false,
      "t": 248000,
      "d": 500,
      "v": 127
    },
    {
      "midi": 43,
      "hit": false,
      "t": 248500,
      "d": 500,
      "v": 127
    },
    {
      "midi": 44,
      "hit": false,
      "t": 249000,
      "d": 250,
      "v": 127
    },
    {
      "midi": 64,
      "hit": false,
      "t": 249250,
      "d": 250,
      "v": 127
    },
    {
      "midi": 55,
      "hit": false,
      "t": 249250,
      "d": 250,
      "v": 127
    },
    {
      "midi": 59,
      "hit": false,
      "t": 249250,
      "d": 250,
      "v": 127
    },
    {
      "midi": 61,
      "hit": false,
      "t": 249500,
      "d": 500,
      "v": 127
    },
    {
      "midi": 44,
      "hit": false,
      "t": 250000,
      "d": 500,
      "v": 127
    },
    {
      "midi": 45,
      "hit": false,
      "t": 250500,
      "d": 500,
      "v": 127
    },
    {
      "midi": 46,
      "hit": false,
      "t": 251000,
      "d": 250,
      "v": 127
    },
    {
      "midi": 52,
      "hit": false,
      "t": 251250,
      "d": 250,
      "v": 127
    },
    {
      "midi": 57,
      "hit": false,
      "t": 251250,
      "d": 250,
      "v": 127
    },
    {
      "midi": 61,
      "hit": false,
      "t": 251250,
      "d": 250,
      "v": 127
    },
    {
      "midi": 61,
      "hit": false,
      "t": 251500,
      "d": 500,
      "v": 127
    },
    {
      "midi": 43,
      "hit": false,
      "t": 252000,
      "d": 500,
      "v": 127
    },
    {
      "midi": 41,
      "hit": false,
      "t": 252500,
      "d": 500,
      "v": 127
    },
    {
      "midi": 40,
      "hit": false,
      "t": 253000,
      "d": 250,
      "v": 127
    },
    {
      "midi": 52,
      "hit": false,
      "t": 253250,
      "d": 250,
      "v": 127
    },
    {
      "midi": 57,
      "hit": false,
      "t": 253250,
      "d": 250,
      "v": 127
    },
    {
      "midi": 61,
      "hit": false,
      "t": 253250,
      "d": 250,
      "v": 127
    },
    {
      "midi": 62,
      "hit": false,
      "t": 253500,
      "d": 1000,
      "v": 127
    },
    {
      "midi": 57,
      "hit": false,
      "t": 253500,
      "d": 500,
      "v": 127
    },
    {
      "midi": 40,
      "hit": false,
      "t": 254000,
      "d": 500,
      "v": 127
    },
    {
      "midi": 41,
      "hit": false,
      "t": 254500,
      "d": 500,
      "v": 127
    },
    {
      "midi": 40,
      "hit": false,
      "t": 255000,
      "d": 250,
      "v": 127
    },
    {
      "midi": 62,
      "hit": false,
      "t": 255250,
      "d": 250,
      "v": 127
    },
    {
      "midi": 53,
      "hit": false,
      "t": 255250,
      "d": 250,
      "v": 127
    },
    {
      "midi": 57,
      "hit": false,
      "t": 255250,
      "d": 250,
      "v": 127
    },
    {
      "midi": 62,
      "hit": false,
      "t": 255500,
      "d": 1000,
      "v": 127
    },
    {
      "midi": 57,
      "hit": false,
      "t": 255500,
      "d": 500,
      "v": 127
    },
    {
      "midi": 40,
      "hit": false,
      "t": 256000,
      "d": 500,
      "v": 127
    },
    {
      "midi": 41,
      "hit": false,
      "t": 256500,
      "d": 500,
      "v": 127
    },
    {
      "midi": 42,
      "hit": false,
      "t": 257000,
      "d": 250,
      "v": 127
    },
    {
      "midi": 62,
      "hit": false,
      "t": 257250,
      "d": 250,
      "v": 127
    },
    {
      "midi": 53,
      "hit": false,
      "t": 257250,
      "d": 250,
      "v": 127
    },
    {
      "midi": 57,
      "hit": false,
      "t": 257250,
      "d": 250,
      "v": 127
    },
    {
      "midi": 59,
      "hit": false,
      "t": 257500,
      "d": 1000,
      "v": 127
    },
    {
      "midi": 62,
      "hit": false,
      "t": 257500,
      "d": 1000,
      "v": 127
    },
    {
      "midi": 55,
      "hit": false,
      "t": 257500,
      "d": 500,
      "v": 127
    },
    {
      "midi": 42,
      "hit": false,
      "t": 258000,
      "d": 500,
      "v": 127
    },
    {
      "midi": 43,
      "hit": false,
      "t": 258500,
      "d": 500,
      "v": 127
    },
    {
      "midi": 44,
      "hit": false,
      "t": 259000,
      "d": 250,
      "v": 127
    },
    {
      "midi": 59,
      "hit": false,
      "t": 259250,
      "d": 250,
      "v": 127
    },
    {
      "midi": 62,
      "hit": false,
      "t": 259250,
      "d": 250,
      "v": 127
    },
    {
      "midi": 55,
      "hit": false,
      "t": 259250,
      "d": 250,
      "v": 127
    },
    {
      "midi": 59,
      "hit": false,
      "t": 259500,
      "d": 1000,
      "v": 127
    },
    {
      "midi": 62,
      "hit": false,
      "t": 259500,
      "d": 1000,
      "v": 127
    },
    {
      "midi": 55,
      "hit": false,
      "t": 259500,
      "d": 500,
      "v": 127
    },
    {
      "midi": 41,
      "hit": false,
      "t": 260000,
      "d": 500,
      "v": 127
    },
    {
      "midi": 39,
      "hit": false,
      "t": 260500,
      "d": 500,
      "v": 127
    },
    {
      "midi": 38,
      "hit": false,
      "t": 261000,
      "d": 250,
      "v": 127
    },
    {
      "midi": 59,
      "hit": false,
      "t": 261250,
      "d": 250,
      "v": 127
    },
    {
      "midi": 62,
      "hit": false,
      "t": 261250,
      "d": 250,
      "v": 127
    },
    {
      "midi": 55,
      "hit": false,
      "t": 261250,
      "d": 250,
      "v": 127
    },
    {
      "midi": 60,
      "hit": false,
      "t": 261500,
      "d": 1000,
      "v": 127
    },
    {
      "midi": 63,
      "hit": false,
      "t": 261500,
      "d": 1000,
      "v": 127
    },
    {
      "midi": 55,
      "hit": false,
      "t": 261500,
      "d": 500,
      "v": 127
    },
    {
      "midi": 38,
      "hit": false,
      "t": 262000,
      "d": 500,
      "v": 127
    },
    {
      "midi": 39,
      "hit": false,
      "t": 262500,
      "d": 500,
      "v": 127
    },
    {
      "midi": 38,
      "hit": false,
      "t": 263000,
      "d": 250,
      "v": 127
    },
    {
      "midi": 60,
      "hit": false,
      "t": 263250,
      "d": 250,
      "v": 127
    },
    {
      "midi": 63,
      "hit": false,
      "t": 263250,
      "d": 250,
      "v": 127
    },
    {
      "midi": 55,
      "hit": false,
      "t": 263250,
      "d": 250,
      "v": 127
    },
    {
      "midi": 60,
      "hit": false,
      "t": 263500,
      "d": 1000,
      "v": 127
    },
    {
      "midi": 63,
      "hit": false,
      "t": 263500,
      "d": 1000,
      "v": 127
    },
    {
      "midi": 55,
      "hit": false,
      "t": 263500,
      "d": 500,
      "v": 127
    },
    {
      "midi": 38,
      "hit": false,
      "t": 264000,
      "d": 500,
      "v": 127
    },
    {
      "midi": 39,
      "hit": false,
      "t": 264500,
      "d": 500,
      "v": 127
    },
    {
      "midi": 36,
      "hit": false,
      "t": 265000,
      "d": 250,
      "v": 127
    },
    {
      "midi": 60,
      "hit": false,
      "t": 265250,
      "d": 250,
      "v": 127
    },
    {
      "midi": 63,
      "hit": false,
      "t": 265250,
      "d": 250,
      "v": 127
    },
    {
      "midi": 55,
      "hit": false,
      "t": 265250,
      "d": 250,
      "v": 127
    },
    {
      "midi": 60,
      "hit": false,
      "t": 265500,
      "d": 1000,
      "v": 127
    },
    {
      "midi": 62,
      "hit": false,
      "t": 265500,
      "d": 1000,
      "v": 127
    },
    {
      "midi": 66,
      "hit": false,
      "t": 265500,
      "d": 1000,
      "v": 127
    },
    {
      "midi": 44,
      "hit": false,
      "t": 265500,
      "d": 500,
      "v": 127
    },
    {
      "midi": 46,
      "hit": false,
      "t": 266000,
      "d": 500,
      "v": 127
    },
    {
      "midi": 48,
      "hit": false,
      "t": 266500,
      "d": 500,
      "v": 127
    },
    {
      "midi": 46,
      "hit": false,
      "t": 267000,
      "d": 500,
      "v": 127
    },
    {
      "midi": 60,
      "hit": false,
      "t": 267250,
      "d": 250,
      "v": 127
    },
    {
      "midi": 62,
      "hit": false,
      "t": 267250,
      "d": 250,
      "v": 127
    },
    {
      "midi": 66,
      "hit": false,
      "t": 267250,
      "d": 250,
      "v": 127
    },
    {
      "midi": 60,
      "hit": false,
      "t": 267500,
      "d": 1000,
      "v": 127
    },
    {
      "midi": 62,
      "hit": false,
      "t": 267500,
      "d": 1000,
      "v": 127
    },
    {
      "midi": 66,
      "hit": false,
      "t": 267500,
      "d": 1000,
      "v": 127
    },
    {
      "midi": 44,
      "hit": false,
      "t": 267500,
      "d": 500,
      "v": 127
    },
    {
      "midi": 46,
      "hit": false,
      "t": 268000,
      "d": 500,
      "v": 127
    },
    {
      "midi": 48,
      "hit": false,
      "t": 268500,
      "d": 500,
      "v": 127
    },
    {
      "midi": 44,
      "hit": false,
      "t": 269000,
      "d": 500,
      "v": 127
    },
    {
      "midi": 60,
      "hit": false,
      "t": 269250,
      "d": 250,
      "v": 127
    },
    {
      "midi": 62,
      "hit": false,
      "t": 269250,
      "d": 250,
      "v": 127
    },
    {
      "midi": 66,
      "hit": false,
      "t": 269250,
      "d": 250,
      "v": 127
    },
    {
      "midi": 59,
      "hit": false,
      "t": 269500,
      "d": 1000,
      "v": 127
    },
    {
      "midi": 62,
      "hit": false,
      "t": 269500,
      "d": 1000,
      "v": 127
    },
    {
      "midi": 67,
      "hit": false,
      "t": 269500,
      "d": 1000,
      "v": 127
    },
    {
      "midi": 43,
      "hit": false,
      "t": 269500,
      "d": 500,
      "v": 127
    },
    {
      "midi": 42,
      "hit": false,
      "t": 270000,
      "d": 500,
      "v": 127
    },
    {
      "midi": 43,
      "hit": false,
      "t": 270500,
      "d": 500,
      "v": 127
    },
    {
      "midi": 44,
      "hit": false,
      "t": 271000,
      "d": 500,
      "v": 127
    },
    {
      "midi": 59,
      "hit": false,
      "t": 271250,
      "d": 250,
      "v": 127
    },
    {
      "midi": 62,
      "hit": false,
      "t": 271250,
      "d": 250,
      "v": 127
    },
    {
      "midi": 67,
      "hit": false,
      "t": 271250,
      "d": 250,
      "v": 127
    },
    {
      "midi": 59,
      "hit": false,
      "t": 271500,
      "d": 1000,
      "v": 127
    },
    {
      "midi": 62,
      "hit": false,
      "t": 271500,
      "d": 1000,
      "v": 127
    },
    {
      "midi": 67,
      "hit": false,
      "t": 271500,
      "d": 1000,
      "v": 127
    },
    {
      "midi": 43,
      "hit": false,
      "t": 271500,
      "d": 500,
      "v": 127
    },
    {
      "midi": 41,
      "hit": false,
      "t": 272000,
      "d": 500,
      "v": 127
    },
    {
      "midi": 39,
      "hit": false,
      "t": 272500,
      "d": 500,
      "v": 127
    },
    {
      "midi": 38,
      "hit": false,
      "t": 273000,
      "d": 500,
      "v": 127
    },
    {
      "midi": 59,
      "hit": false,
      "t": 273250,
      "d": 250,
      "v": 127
    },
    {
      "midi": 62,
      "hit": false,
      "t": 273250,
      "d": 250,
      "v": 127
    },
    {
      "midi": 67,
      "hit": false,
      "t": 273250,
      "d": 250,
      "v": 127
    },
    {
      "midi": 60,
      "hit": false,
      "t": 273500,
      "d": 1000,
      "v": 127
    },
    {
      "midi": 63,
      "hit": false,
      "t": 273500,
      "d": 1000,
      "v": 127
    },
    {
      "midi": 67,
      "hit": false,
      "t": 273500,
      "d": 1000,
      "v": 127
    },
    {
      "midi": 36,
      "hit": false,
      "t": 273500,
      "d": 500,
      "v": 127
    },
    {
      "midi": 38,
      "hit": false,
      "t": 274000,
      "d": 500,
      "v": 127
    },
    {
      "midi": 39,
      "hit": false,
      "t": 274500,
      "d": 500,
      "v": 127
    },
    {
      "midi": 38,
      "hit": false,
      "t": 275000,
      "d": 500,
      "v": 127
    },
    {
      "midi": 60,
      "hit": false,
      "t": 275250,
      "d": 250,
      "v": 127
    },
    {
      "midi": 63,
      "hit": false,
      "t": 275250,
      "d": 250,
      "v": 127
    },
    {
      "midi": 67,
      "hit": false,
      "t": 275250,
      "d": 250,
      "v": 127
    },
    {
      "midi": 60,
      "hit": false,
      "t": 275500,
      "d": 1000,
      "v": 127
    },
    {
      "midi": 63,
      "hit": false,
      "t": 275500,
      "d": 1000,
      "v": 127
    },
    {
      "midi": 67,
      "hit": false,
      "t": 275500,
      "d": 1000,
      "v": 127
    },
    {
      "midi": 41,
      "hit": false,
      "t": 275500,
      "d": 500,
      "v": 127
    },
    {
      "midi": 39,
      "hit": false,
      "t": 276000,
      "d": 500,
      "v": 127
    },
    {
      "midi": 38,
      "hit": false,
      "t": 276500,
      "d": 500,
      "v": 127
    },
    {
      "midi": 36,
      "hit": false,
      "t": 277000,
      "d": 500,
      "v": 127
    },
    {
      "midi": 60,
      "hit": false,
      "t": 277250,
      "d": 250,
      "v": 127
    },
    {
      "midi": 63,
      "hit": false,
      "t": 277250,
      "d": 250,
      "v": 127
    },
    {
      "midi": 67,
      "hit": false,
      "t": 277250,
      "d": 250,
      "v": 127
    },
    {
      "midi": 59,
      "hit": false,
      "t": 277500,
      "d": 1000,
      "v": 127
    },
    {
      "midi": 62,
      "hit": false,
      "t": 277500,
      "d": 1000,
      "v": 127
    },
    {
      "midi": 67,
      "hit": false,
      "t": 277500,
      "d": 1000,
      "v": 127
    },
    {
      "midi": 43,
      "hit": false,
      "t": 277500,
      "d": 500,
      "v": 127
    },
    {
      "midi": 42,
      "hit": false,
      "t": 278000,
      "d": 500,
      "v": 127
    },
    {
      "midi": 43,
      "hit": false,
      "t": 278500,
      "d": 500,
      "v": 127
    },
    {
      "midi": 44,
      "hit": false,
      "t": 279000,
      "d": 500,
      "v": 127
    },
    {
      "midi": 59,
      "hit": false,
      "t": 279250,
      "d": 250,
      "v": 127
    },
    {
      "midi": 62,
      "hit": false,
      "t": 279250,
      "d": 250,
      "v": 127
    },
    {
      "midi": 67,
      "hit": false,
      "t": 279250,
      "d": 250,
      "v": 127
    },
    {
      "midi": 59,
      "hit": false,
      "t": 279500,
      "d": 1000,
      "v": 127
    },
    {
      "midi": 62,
      "hit": false,
      "t": 279500,
      "d": 1000,
      "v": 127
    },
    {
      "midi": 67,
      "hit": false,
      "t": 279500,
      "d": 1000,
      "v": 127
    },
    {
      "midi": 43,
      "hit": false,
      "t": 279500,
      "d": 500,
      "v": 127
    },
    {
      "midi": 41,
      "hit": false,
      "t": 280000,
      "d": 500,
      "v": 127
    },
    {
      "midi": 39,
      "hit": false,
      "t": 280500,
      "d": 500,
      "v": 127
    },
    {
      "midi": 38,
      "hit": false,
      "t": 281000,
      "d": 500,
      "v": 127
    },
    {
      "midi": 59,
      "hit": false,
      "t": 281250,
      "d": 250,
      "v": 127
    },
    {
      "midi": 62,
      "hit": false,
      "t": 281250,
      "d": 250,
      "v": 127
    },
    {
      "midi": 67,
      "hit": false,
      "t": 281250,
      "d": 250,
      "v": 127
    },
    {
      "midi": 60,
      "hit": false,
      "t": 281500,
      "d": 1000,
      "v": 127
    },
    {
      "midi": 63,
      "hit": false,
      "t": 281500,
      "d": 1000,
      "v": 127
    },
    {
      "midi": 67,
      "hit": false,
      "t": 281500,
      "d": 1000,
      "v": 127
    },
    {
      "midi": 36,
      "hit": false,
      "t": 281500,
      "d": 500,
      "v": 127
    },
    {
      "midi": 38,
      "hit": false,
      "t": 282000,
      "d": 500,
      "v": 127
    },
    {
      "midi": 39,
      "hit": false,
      "t": 282500,
      "d": 500,
      "v": 127
    },
    {
      "midi": 38,
      "hit": false,
      "t": 283000,
      "d": 500,
      "v": 127
    },
    {
      "midi": 60,
      "hit": false,
      "t": 283250,
      "d": 250,
      "v": 127
    },
    {
      "midi": 63,
      "hit": false,
      "t": 283250,
      "d": 250,
      "v": 127
    },
    {
      "midi": 67,
      "hit": false,
      "t": 283250,
      "d": 250,
      "v": 127
    },
    {
      "midi": 60,
      "hit": false,
      "t": 283500,
      "d": 1000,
      "v": 127
    },
    {
      "midi": 63,
      "hit": false,
      "t": 283500,
      "d": 1000,
      "v": 127
    },
    {
      "midi": 67,
      "hit": false,
      "t": 283500,
      "d": 1000,
      "v": 127
    },
    {
      "midi": 41,
      "hit": false,
      "t": 283500,
      "d": 500,
      "v": 127
    },
    {
      "midi": 39,
      "hit": false,
      "t": 284000,
      "d": 500,
      "v": 127
    },
    {
      "midi": 38,
      "hit": false,
      "t": 284500,
      "d": 500,
      "v": 127
    },
    {
      "midi": 36,
      "hit": false,
      "t": 285000,
      "d": 500,
      "v": 127
    },
    {
      "midi": 60,
      "hit": false,
      "t": 285250,
      "d": 250,
      "v": 127
    },
    {
      "midi": 63,
      "hit": false,
      "t": 285250,
      "d": 250,
      "v": 127
    },
    {
      "midi": 67,
      "hit": false,
      "t": 285250,
      "d": 250,
      "v": 127
    },
    {
      "midi": 71,
      "hit": false,
      "t": 285500,
      "d": 1000,
      "v": 127
    },
    {
      "midi": 74,
      "hit": false,
      "t": 285500,
      "d": 1000,
      "v": 127
    },
    {
      "midi": 79,
      "hit": false,
      "t": 285500,
      "d": 1000,
      "v": 127
    },
    {
      "midi": 43,
      "hit": false,
      "t": 285500,
      "d": 1500,
      "v": 127
    },
    {
      "midi": 47,
      "hit": false,
      "t": 285500,
      "d": 1500,
      "v": 127
    },
    {
      "midi": 50,
      "hit": false,
      "t": 285500,
      "d": 1500,
      "v": 127
    },
    {
      "midi": 55,
      "hit": false,
      "t": 285500,
      "d": 1500,
      "v": 127
    },
    {
      "midi": 67,
      "hit": false,
      "t": 286500,
      "d": 500,
      "v": 127
    },
    {
      "midi": 71,
      "hit": false,
      "t": 287500,
      "d": 1000,
      "v": 127
    },
    {
      "midi": 74,
      "hit": false,
      "t": 287500,
      "d": 1000,
      "v": 127
    },
    {
      "midi": 79,
      "hit": false,
      "t": 287500,
      "d": 1000,
      "v": 127
    },
    {
      "midi": 43,
      "hit": false,
      "t": 287500,
      "d": 2000,
      "v": 127
    },
    {
      "midi": 47,
      "hit": false,
      "t": 287500,
      "d": 2000,
      "v": 127
    },
    {
      "midi": 50,
      "hit": false,
      "t": 287500,
      "d": 2000,
      "v": 127
    },
    {
      "midi": 55,
      "hit": false,
      "t": 287500,
      "d": 2000,
      "v": 127
    },
    {
      "midi": 67,
      "hit": false,
      "t": 288500,
      "d": 1000,
      "v": 127
    },
    {
      "midi": 71,
      "hit": false,
      "t": 289500,
      "d": 750,
      "v": 127
    },
    {
      "midi": 74,
      "hit": false,
      "t": 289500,
      "d": 750,
      "v": 127
    },
    {
      "midi": 79,
      "hit": false,
      "t": 289500,
      "d": 750,
      "v": 127
    },
    {
      "midi": 43,
      "hit": false,
      "t": 289500,
      "d": 750,
      "v": 127
    },
    {
      "midi": 47,
      "hit": false,
      "t": 289500,
      "d": 750,
      "v": 127
    },
    {
      "midi": 50,
      "hit": false,
      "t": 289500,
      "d": 750,
      "v": 127
    },
    {
      "midi": 55,
      "hit": false,
      "t": 289500,
      "d": 750,
      "v": 127
    },
    {
      "midi": 67,
      "hit": false,
      "t": 290250,
      "d": 250,
      "v": 127
    },
    {
      "midi": 79,
      "hit": false,
      "t": 290250,
      "d": 250,
      "v": 127
    },
    {
      "midi": 43,
      "hit": false,
      "t": 290250,
      "d": 250,
      "v": 127
    },
    {
      "midi": 47,
      "hit": false,
      "t": 290250,
      "d": 250,
      "v": 127
    },
    {
      "midi": 50,
      "hit": false,
      "t": 290250,
      "d": 250,
      "v": 127
    },
    {
      "midi": 55,
      "hit": false,
      "t": 290250,
      "d": 250,
      "v": 127
    },
    {
      "midi": 67,
      "hit": false,
      "t": 290500,
      "d": 500,
      "v": 127
    },
    {
      "midi": 79,
      "hit": false,
      "t": 290500,
      "d": 500,
      "v": 127
    },
    {
      "midi": 43,
      "hit": false,
      "t": 290500,
      "d": 500,
      "v": 127
    },
    {
      "midi": 47,
      "hit": false,
      "t": 290500,
      "d": 500,
      "v": 127
    },
    {
      "midi": 50,
      "hit": false,
      "t": 290500,
      "d": 500,
      "v": 127
    },
    {
      "midi": 55,
      "hit": false,
      "t": 290500,
      "d": 500,
      "v": 127
    },
    {
      "midi": 71,
      "hit": false,
      "t": 291250,
      "d": 250,
      "v": 127
    },
    {
      "midi": 83,
      "hit": false,
      "t": 291250,
      "d": 250,
      "v": 127
    },
    {
      "midi": 43,
      "hit": false,
      "t": 291250,
      "d": 250,
      "v": 127
    },
    {
      "midi": 47,
      "hit": false,
      "t": 291250,
      "d": 250,
      "v": 127
    },
    {
      "midi": 50,
      "hit": false,
      "t": 291250,
      "d": 250,
      "v": 127
    },
    {
      "midi": 55,
      "hit": false,
      "t": 291250,
      "d": 250,
      "v": 127
    },
    {
      "midi": 71,
      "hit": false,
      "t": 291500,
      "d": 750,
      "v": 127
    },
    {
      "midi": 83,
      "hit": false,
      "t": 291500,
      "d": 750,
      "v": 127
    },
    {
      "midi": 43,
      "hit": false,
      "t": 291500,
      "d": 750,
      "v": 127
    },
    {
      "midi": 47,
      "hit": false,
      "t": 291500,
      "d": 750,
      "v": 127
    },
    {
      "midi": 50,
      "hit": false,
      "t": 291500,
      "d": 750,
      "v": 127
    },
    {
      "midi": 55,
      "hit": false,
      "t": 291500,
      "d": 750,
      "v": 127
    },
    {
      "midi": 74,
      "hit": false,
      "t": 292250,
      "d": 250,
      "v": 127
    },
    {
      "midi": 86,
      "hit": false,
      "t": 292250,
      "d": 250,
      "v": 127
    },
    {
      "midi": 43,
      "hit": false,
      "t": 292250,
      "d": 250,
      "v": 127
    },
    {
      "midi": 47,
      "hit": false,
      "t": 292250,
      "d": 250,
      "v": 127
    },
    {
      "midi": 50,
      "hit": false,
      "t": 292250,
      "d": 250,
      "v": 127
    },
    {
      "midi": 55,
      "hit": false,
      "t": 292250,
      "d": 250,
      "v": 127
    },
    {
      "midi": 74,
      "hit": false,
      "t": 292500,
      "d": 750,
      "v": 127
    },
    {
      "midi": 86,
      "hit": false,
      "t": 292500,
      "d": 750,
      "v": 127
    },
    {
      "midi": 43,
      "hit": false,
      "t": 292500,
      "d": 750,
      "v": 127
    },
    {
      "midi": 47,
      "hit": false,
      "t": 292500,
      "d": 750,
      "v": 127
    },
    {
      "midi": 50,
      "hit": false,
      "t": 292500,
      "d": 750,
      "v": 127
    },
    {
      "midi": 55,
      "hit": false,
      "t": 292500,
      "d": 750,
      "v": 127
    },
    {
      "midi": 77,
      "hit": false,
      "t": 293250,
      "d": 250,
      "v": 127
    },
    {
      "midi": 89,
      "hit": false,
      "t": 293250,
      "d": 250,
      "v": 127
    },
    {
      "midi": 43,
      "hit": false,
      "t": 293250,
      "d": 250,
      "v": 127
    },
    {
      "midi": 47,
      "hit": false,
      "t": 293250,
      "d": 250,
      "v": 127
    },
    {
      "midi": 50,
      "hit": false,
      "t": 293250,
      "d": 250,
      "v": 127
    },
    {
      "midi": 55,
      "hit": false,
      "t": 293250,
      "d": 250,
      "v": 127
    },
    {
      "midi": 77,
      "hit": false,
      "t": 293500,
      "d": 750,
      "v": 127
    },
    {
      "midi": 89,
      "hit": false,
      "t": 293500,
      "d": 750,
      "v": 127
    },
    {
      "midi": 43,
      "hit": false,
      "t": 293500,
      "d": 750,
      "v": 127
    },
    {
      "midi": 47,
      "hit": false,
      "t": 293500,
      "d": 750,
      "v": 127
    },
    {
      "midi": 50,
      "hit": false,
      "t": 293500,
      "d": 750,
      "v": 127
    },
    {
      "midi": 55,
      "hit": false,
      "t": 293500,
      "d": 750,
      "v": 127
    },
    {
      "midi": 67,
      "hit": false,
      "t": 294250,
      "d": 250,
      "v": 127
    },
    {
      "midi": 79,
      "hit": false,
      "t": 294250,
      "d": 250,
      "v": 127
    },
    {
      "midi": 43,
      "hit": false,
      "t": 294250,
      "d": 250,
      "v": 127
    },
    {
      "midi": 47,
      "hit": false,
      "t": 294250,
      "d": 250,
      "v": 127
    },
    {
      "midi": 50,
      "hit": false,
      "t": 294250,
      "d": 250,
      "v": 127
    },
    {
      "midi": 55,
      "hit": false,
      "t": 294250,
      "d": 250,
      "v": 127
    },
    {
      "midi": 67,
      "hit": false,
      "t": 294500,
      "d": 500,
      "v": 127
    },
    {
      "midi": 79,
      "hit": false,
      "t": 294500,
      "d": 500,
      "v": 127
    },
    {
      "midi": 43,
      "hit": false,
      "t": 294500,
      "d": 500,
      "v": 127
    },
    {
      "midi": 47,
      "hit": false,
      "t": 294500,
      "d": 500,
      "v": 127
    },
    {
      "midi": 50,
      "hit": false,
      "t": 294500,
      "d": 500,
      "v": 127
    },
    {
      "midi": 55,
      "hit": false,
      "t": 294500,
      "d": 500,
      "v": 127
    },
    {
      "midi": 71,
      "hit": false,
      "t": 295250,
      "d": 250,
      "v": 127
    },
    {
      "midi": 83,
      "hit": false,
      "t": 295250,
      "d": 250,
      "v": 127
    },
    {
      "midi": 43,
      "hit": false,
      "t": 295250,
      "d": 250,
      "v": 127
    },
    {
      "midi": 47,
      "hit": false,
      "t": 295250,
      "d": 250,
      "v": 127
    },
    {
      "midi": 50,
      "hit": false,
      "t": 295250,
      "d": 250,
      "v": 127
    },
    {
      "midi": 55,
      "hit": false,
      "t": 295250,
      "d": 250,
      "v": 127
    },
    {
      "midi": 71,
      "hit": false,
      "t": 295500,
      "d": 750,
      "v": 127
    },
    {
      "midi": 83,
      "hit": false,
      "t": 295500,
      "d": 750,
      "v": 127
    },
    {
      "midi": 43,
      "hit": false,
      "t": 295500,
      "d": 750,
      "v": 127
    },
    {
      "midi": 47,
      "hit": false,
      "t": 295500,
      "d": 750,
      "v": 127
    },
    {
      "midi": 50,
      "hit": false,
      "t": 295500,
      "d": 750,
      "v": 127
    },
    {
      "midi": 55,
      "hit": false,
      "t": 295500,
      "d": 750,
      "v": 127
    },
    {
      "midi": 74,
      "hit": false,
      "t": 296250,
      "d": 250,
      "v": 127
    },
    {
      "midi": 86,
      "hit": false,
      "t": 296250,
      "d": 250,
      "v": 127
    },
    {
      "midi": 43,
      "hit": false,
      "t": 296250,
      "d": 250,
      "v": 127
    },
    {
      "midi": 47,
      "hit": false,
      "t": 296250,
      "d": 250,
      "v": 127
    },
    {
      "midi": 50,
      "hit": false,
      "t": 296250,
      "d": 250,
      "v": 127
    },
    {
      "midi": 55,
      "hit": false,
      "t": 296250,
      "d": 250,
      "v": 127
    },
    {
      "midi": 74,
      "hit": false,
      "t": 296500,
      "d": 750,
      "v": 127
    },
    {
      "midi": 86,
      "hit": false,
      "t": 296500,
      "d": 750,
      "v": 127
    },
    {
      "midi": 43,
      "hit": false,
      "t": 296500,
      "d": 750,
      "v": 127
    },
    {
      "midi": 47,
      "hit": false,
      "t": 296500,
      "d": 750,
      "v": 127
    },
    {
      "midi": 50,
      "hit": false,
      "t": 296500,
      "d": 750,
      "v": 127
    },
    {
      "midi": 55,
      "hit": false,
      "t": 296500,
      "d": 750,
      "v": 127
    },
    {
      "midi": 77,
      "hit": false,
      "t": 297250,
      "d": 250,
      "v": 127
    },
    {
      "midi": 89,
      "hit": false,
      "t": 297250,
      "d": 250,
      "v": 127
    },
    {
      "midi": 43,
      "hit": false,
      "t": 297250,
      "d": 250,
      "v": 127
    },
    {
      "midi": 47,
      "hit": false,
      "t": 297250,
      "d": 250,
      "v": 127
    },
    {
      "midi": 50,
      "hit": false,
      "t": 297250,
      "d": 250,
      "v": 127
    },
    {
      "midi": 55,
      "hit": false,
      "t": 297250,
      "d": 250,
      "v": 127
    },
    {
      "midi": 77,
      "hit": false,
      "t": 297500,
      "d": 1500,
      "v": 127
    },
    {
      "midi": 89,
      "hit": false,
      "t": 297500,
      "d": 1500,
      "v": 127
    },
    {
      "midi": 43,
      "hit": false,
      "t": 297500,
      "d": 1500,
      "v": 127
    },
    {
      "midi": 47,
      "hit": false,
      "t": 297500,
      "d": 1500,
      "v": 127
    },
    {
      "midi": 50,
      "hit": false,
      "t": 297500,
      "d": 1500,
      "v": 127
    },
    {
      "midi": 55,
      "hit": false,
      "t": 297500,
      "d": 1500,
      "v": 127
    },
    {
      "midi": 55,
      "hit": false,
      "t": 301250,
      "d": 250,
      "v": 127
    },
    {
      "midi": 59,
      "hit": false,
      "t": 301250,
      "d": 250,
      "v": 127
    },
    {
      "midi": 62,
      "hit": false,
      "t": 301250,
      "d": 250,
      "v": 127
    },
    {
      "midi": 65,
      "hit": false,
      "t": 301250,
      "d": 250,
      "v": 127
    },
    {
      "midi": 31,
      "hit": false,
      "t": 301250,
      "d": 250,
      "v": 127
    },
    {
      "midi": 43,
      "hit": false,
      "t": 301250,
      "d": 250,
      "v": 127
    },
    {
      "midi": 55,
      "hit": false,
      "t": 301500,
      "d": 1500,
      "v": 127
    },
    {
      "midi": 59,
      "hit": false,
      "t": 301500,
      "d": 1500,
      "v": 127
    },
    {
      "midi": 62,
      "hit": false,
      "t": 301500,
      "d": 1500,
      "v": 127
    },
    {
      "midi": 65,
      "hit": false,
      "t": 301500,
      "d": 1500,
      "v": 127
    },
    {
      "midi": 31,
      "hit": false,
      "t": 301500,
      "d": 1500,
      "v": 127
    },
    {
      "midi": 43,
      "hit": false,
      "t": 301500,
      "d": 1500,
      "v": 127
    },
    {
      "midi": 55,
      "hit": false,
      "t": 305250,
      "d": 250,
      "v": 127
    },
    {
      "midi": 59,
      "hit": false,
      "t": 305250,
      "d": 250,
      "v": 127
    },
    {
      "midi": 62,
      "hit": false,
      "t": 305250,
      "d": 250,
      "v": 127
    },
    {
      "midi": 65,
      "hit": false,
      "t": 305250,
      "d": 250,
      "v": 127
    },
    {
      "midi": 31,
      "hit": false,
      "t": 305250,
      "d": 250,
      "v": 127
    },
    {
      "midi": 43,
      "hit": false,
      "t": 305250,
      "d": 250,
      "v": 127
    },
    {
      "midi": 55,
      "hit": false,
      "t": 305500,
      "d": 1500,
      "v": 127
    },
    {
      "midi": 59,
      "hit": false,
      "t": 305500,
      "d": 1500,
      "v": 127
    },
    {
      "midi": 62,
      "hit": false,
      "t": 305500,
      "d": 1500,
      "v": 127
    },
    {
      "midi": 65,
      "hit": false,
      "t": 305500,
      "d": 1500,
      "v": 127
    },
    {
      "midi": 31,
      "hit": false,
      "t": 305500,
      "d": 1500,
      "v": 127
    },
    {
      "midi": 43,
      "hit": false,
      "t": 305500,
      "d": 1500,
      "v": 127
    },
    {
      "midi": 48,
      "hit": false,
      "t": 309500,
      "d": 500,
      "v": 127
    },
    {
      "midi": 60,
      "hit": false,
      "t": 309500,
      "d": 500,
      "v": 127
    },
    {
      "midi": 55,
      "hit": false,
      "t": 310000,
      "d": 250,
      "v": 127
    },
    {
      "midi": 60,
      "hit": false,
      "t": 310000,
      "d": 250,
      "v": 127
    },
    {
      "midi": 64,
      "hit": false,
      "t": 310000,
      "d": 250,
      "v": 127
    },
    {
      "midi": 55,
      "hit": false,
      "t": 310250,
      "d": 250,
      "v": 127
    },
    {
      "midi": 60,
      "hit": false,
      "t": 310250,
      "d": 250,
      "v": 127
    },
    {
      "midi": 64,
      "hit": false,
      "t": 310250,
      "d": 250,
      "v": 127
    },
    {
      "midi": 55,
      "hit": false,
      "t": 310500,
      "d": 500,
      "v": 127
    },
    {
      "midi": 60,
      "hit": false,
      "t": 310500,
      "d": 500,
      "v": 127
    },
    {
      "midi": 64,
      "hit": false,
      "t": 310500,
      "d": 500,
      "v": 127
    },
    {
      "midi": 55,
      "hit": false,
      "t": 311000,
      "d": 500,
      "v": 127
    },
    {
      "midi": 60,
      "hit": false,
      "t": 311000,
      "d": 500,
      "v": 127
    },
    {
      "midi": 64,
      "hit": false,
      "t": 311000,
      "d": 500,
      "v": 127
    },
    {
      "midi": 55,
      "hit": false,
      "t": 311500,
      "d": 500,
      "v": 127
    },
    {
      "midi": 60,
      "hit": false,
      "t": 311500,
      "d": 500,
      "v": 127
    },
    {
      "midi": 64,
      "hit": false,
      "t": 311500,
      "d": 500,
      "v": 127
    },
    {
      "midi": 55,
      "hit": false,
      "t": 312000,
      "d": 500,
      "v": 127
    },
    {
      "midi": 60,
      "hit": false,
      "t": 312000,
      "d": 500,
      "v": 127
    },
    {
      "midi": 64,
      "hit": false,
      "t": 312000,
      "d": 500,
      "v": 127
    },
    {
      "midi": 55,
      "hit": false,
      "t": 312500,
      "d": 500,
      "v": 127
    },
    {
      "midi": 60,
      "hit": false,
      "t": 312500,
      "d": 500,
      "v": 127
    },
    {
      "midi": 64,
      "hit": false,
      "t": 312500,
      "d": 500,
      "v": 127
    },
    {
      "midi": 55,
      "hit": false,
      "t": 313000,
      "d": 500,
      "v": 127
    },
    {
      "midi": 60,
      "hit": false,
      "t": 313000,
      "d": 500,
      "v": 127
    },
    {
      "midi": 64,
      "hit": false,
      "t": 313000,
      "d": 500,
      "v": 127
    },
    {
      "midi": 66,
      "hit": false,
      "t": 313250,
      "d": 250,
      "v": 127
    },
    {
      "midi": 69,
      "hit": false,
      "t": 313250,
      "d": 250,
      "v": 127
    },
    {
      "midi": 67,
      "hit": false,
      "t": 313500,
      "d": 1000,
      "v": 127
    },
    {
      "midi": 48,
      "hit": false,
      "t": 313500,
      "d": 500,
      "v": 127
    },
    {
      "midi": 60,
      "hit": false,
      "t": 313500,
      "d": 500,
      "v": 127
    },
    {
      "midi": 55,
      "hit": false,
      "t": 314000,
      "d": 250,
      "v": 127
    },
    {
      "midi": 60,
      "hit": false,
      "t": 314000,
      "d": 250,
      "v": 127
    },
    {
      "midi": 64,
      "hit": false,
      "t": 314000,
      "d": 250,
      "v": 127
    },
    {
      "midi": 55,
      "hit": false,
      "t": 314250,
      "d": 250,
      "v": 127
    },
    {
      "midi": 60,
      "hit": false,
      "t": 314250,
      "d": 250,
      "v": 127
    },
    {
      "midi": 64,
      "hit": false,
      "t": 314250,
      "d": 250,
      "v": 127
    },
    {
      "midi": 55,
      "hit": false,
      "t": 314500,
      "d": 500,
      "v": 127
    },
    {
      "midi": 60,
      "hit": false,
      "t": 314500,
      "d": 500,
      "v": 127
    },
    {
      "midi": 64,
      "hit": false,
      "t": 314500,
      "d": 500,
      "v": 127
    },
    {
      "midi": 55,
      "hit": false,
      "t": 315000,
      "d": 500,
      "v": 127
    },
    {
      "midi": 60,
      "hit": false,
      "t": 315000,
      "d": 500,
      "v": 127
    },
    {
      "midi": 64,
      "hit": false,
      "t": 315000,
      "d": 500,
      "v": 127
    },
    {
      "midi": 71,
      "hit": false,
      "t": 315250,
      "d": 250,
      "v": 127
    },
    {
      "midi": 74,
      "hit": false,
      "t": 315250,
      "d": 250,
      "v": 127
    },
    {
      "midi": 72,
      "hit": false,
      "t": 315500,
      "d": 1000,
      "v": 127
    },
    {
      "midi": 55,
      "hit": false,
      "t": 315500,
      "d": 500,
      "v": 127
    },
    {
      "midi": 60,
      "hit": false,
      "t": 315500,
      "d": 500,
      "v": 127
    },
    {
      "midi": 64,
      "hit": false,
      "t": 315500,
      "d": 500,
      "v": 127
    },
    {
      "midi": 55,
      "hit": false,
      "t": 316000,
      "d": 500,
      "v": 127
    },
    {
      "midi": 60,
      "hit": false,
      "t": 316000,
      "d": 500,
      "v": 127
    },
    {
      "midi": 64,
      "hit": false,
      "t": 316000,
      "d": 500,
      "v": 127
    },
    {
      "midi": 74,
      "hit": false,
      "t": 316500,
      "d": 1000,
      "v": 127
    },
    {
      "midi": 56,
      "hit": false,
      "t": 316500,
      "d": 500,
      "v": 127
    },
    {
      "midi": 59,
      "hit": false,
      "t": 316500,
      "d": 500,
      "v": 127
    },
    {
      "midi": 62,
      "hit": false,
      "t": 316500,
      "d": 500,
      "v": 127
    },
    {
      "midi": 65,
      "hit": false,
      "t": 316500,
      "d": 500,
      "v": 127
    },
    {
      "midi": 56,
      "hit": false,
      "t": 317000,
      "d": 500,
      "v": 127
    },
    {
      "midi": 59,
      "hit": false,
      "t": 317000,
      "d": 500,
      "v": 127
    },
    {
      "midi": 62,
      "hit": false,
      "t": 317000,
      "d": 500,
      "v": 127
    },
    {
      "midi": 65,
      "hit": false,
      "t": 317000,
      "d": 500,
      "v": 127
    },
    {
      "midi": 76,
      "hit": false,
      "t": 317500,
      "d": 1000,
      "v": 127
    },
    {
      "midi": 48,
      "hit": false,
      "t": 317500,
      "d": 500,
      "v": 127
    },
    {
      "midi": 60,
      "hit": false,
      "t": 317500,
      "d": 500,
      "v": 127
    },
    {
      "midi": 55,
      "hit": false,
      "t": 318000,
      "d": 250,
      "v": 127
    },
    {
      "midi": 60,
      "hit": false,
      "t": 318000,
      "d": 250,
      "v": 127
    },
    {
      "midi": 64,
      "hit": false,
      "t": 318000,
      "d": 250,
      "v": 127
    },
    {
      "midi": 55,
      "hit": false,
      "t": 318250,
      "d": 250,
      "v": 127
    },
    {
      "midi": 60,
      "hit": false,
      "t": 318250,
      "d": 250,
      "v": 127
    },
    {
      "midi": 64,
      "hit": false,
      "t": 318250,
      "d": 250,
      "v": 127
    },
    {
      "midi": 76,
      "hit": false,
      "t": 318500,
      "d": 500,
      "v": 127
    },
    {
      "midi": 55,
      "hit": false,
      "t": 318500,
      "d": 500,
      "v": 127
    },
    {
      "midi": 60,
      "hit": false,
      "t": 318500,
      "d": 500,
      "v": 127
    },
    {
      "midi": 64,
      "hit": false,
      "t": 318500,
      "d": 500,
      "v": 127
    },
    {
      "midi": 55,
      "hit": false,
      "t": 319000,
      "d": 500,
      "v": 127
    },
    {
      "midi": 60,
      "hit": false,
      "t": 319000,
      "d": 500,
      "v": 127
    },
    {
      "midi": 64,
      "hit": false,
      "t": 319000,
      "d": 500,
      "v": 127
    },
    {
      "midi": 76,
      "hit": false,
      "t": 319500,
      "d": 1000,
      "v": 127
    },
    {
      "midi": 55,
      "hit": false,
      "t": 319500,
      "d": 500,
      "v": 127
    },
    {
      "midi": 60,
      "hit": false,
      "t": 319500,
      "d": 500,
      "v": 127
    },
    {
      "midi": 64,
      "hit": false,
      "t": 319500,
      "d": 500,
      "v": 127
    },
    {
      "midi": 55,
      "hit": false,
      "t": 320000,
      "d": 500,
      "v": 127
    },
    {
      "midi": 60,
      "hit": false,
      "t": 320000,
      "d": 500,
      "v": 127
    },
    {
      "midi": 64,
      "hit": false,
      "t": 320000,
      "d": 500,
      "v": 127
    },
    {
      "midi": 77,
      "hit": false,
      "t": 320500,
      "d": 500,
      "v": 127
    },
    {
      "midi": 55,
      "hit": false,
      "t": 320500,
      "d": 500,
      "v": 127
    },
    {
      "midi": 60,
      "hit": false,
      "t": 320500,
      "d": 500,
      "v": 127
    },
    {
      "midi": 64,
      "hit": false,
      "t": 320500,
      "d": 500,
      "v": 127
    },
    {
      "midi": 76,
      "hit": false,
      "t": 321000,
      "d": 250,
      "v": 127
    },
    {
      "midi": 55,
      "hit": false,
      "t": 321000,
      "d": 500,
      "v": 127
    },
    {
      "midi": 60,
      "hit": false,
      "t": 321000,
      "d": 500,
      "v": 127
    },
    {
      "midi": 64,
      "hit": false,
      "t": 321000,
      "d": 500,
      "v": 127
    },
    {
      "midi": 73,
      "hit": false,
      "t": 321250,
      "d": 250,
      "v": 127
    },
    {
      "midi": 74,
      "hit": false,
      "t": 321250,
      "d": 250,
      "v": 127
    },
    {
      "midi": 74,
      "hit": false,
      "t": 321500,
      "d": 1000,
      "v": 127
    },
    {
      "midi": 43,
      "hit": false,
      "t": 321500,
      "d": 500,
      "v": 127
    },
    {
      "midi": 55,
      "hit": false,
      "t": 321500,
      "d": 500,
      "v": 127
    },
    {
      "midi": 55,
      "hit": false,
      "t": 322000,
      "d": 250,
      "v": 127
    },
    {
      "midi": 59,
      "hit": false,
      "t": 322000,
      "d": 250,
      "v": 127
    },
    {
      "midi": 62,
      "hit": false,
      "t": 322000,
      "d": 250,
      "v": 127
    },
    {
      "midi": 65,
      "hit": false,
      "t": 322000,
      "d": 250,
      "v": 127
    },
    {
      "midi": 55,
      "hit": false,
      "t": 322250,
      "d": 250,
      "v": 127
    },
    {
      "midi": 59,
      "hit": false,
      "t": 322250,
      "d": 250,
      "v": 127
    },
    {
      "midi": 62,
      "hit": false,
      "t": 322250,
      "d": 250,
      "v": 127
    },
    {
      "midi": 65,
      "hit": false,
      "t": 322250,
      "d": 250,
      "v": 127
    },
    {
      "midi": 74,
      "hit": false,
      "t": 322500,
      "d": 500,
      "v": 127
    },
    {
      "midi": 55,
      "hit": false,
      "t": 322500,
      "d": 500,
      "v": 127
    },
    {
      "midi": 59,
      "hit": false,
      "t": 322500,
      "d": 500,
      "v": 127
    },
    {
      "midi": 62,
      "hit": false,
      "t": 322500,
      "d": 500,
      "v": 127
    },
    {
      "midi": 65,
      "hit": false,
      "t": 322500,
      "d": 500,
      "v": 127
    },
    {
      "midi": 55,
      "hit": false,
      "t": 323000,
      "d": 500,
      "v": 127
    },
    {
      "midi": 59,
      "hit": false,
      "t": 323000,
      "d": 500,
      "v": 127
    },
    {
      "midi": 62,
      "hit": false,
      "t": 323000,
      "d": 500,
      "v": 127
    },
    {
      "midi": 65,
      "hit": false,
      "t": 323000,
      "d": 500,
      "v": 127
    },
    {
      "midi": 74,
      "hit": false,
      "t": 323500,
      "d": 1000,
      "v": 127
    },
    {
      "midi": 55,
      "hit": false,
      "t": 323500,
      "d": 500,
      "v": 127
    },
    {
      "midi": 59,
      "hit": false,
      "t": 323500,
      "d": 500,
      "v": 127
    },
    {
      "midi": 62,
      "hit": false,
      "t": 323500,
      "d": 500,
      "v": 127
    },
    {
      "midi": 65,
      "hit": false,
      "t": 323500,
      "d": 500,
      "v": 127
    },
    {
      "midi": 55,
      "hit": false,
      "t": 324000,
      "d": 500,
      "v": 127
    },
    {
      "midi": 59,
      "hit": false,
      "t": 324000,
      "d": 500,
      "v": 127
    },
    {
      "midi": 62,
      "hit": false,
      "t": 324000,
      "d": 500,
      "v": 127
    },
    {
      "midi": 65,
      "hit": false,
      "t": 324000,
      "d": 500,
      "v": 127
    },
    {
      "midi": 76,
      "hit": false,
      "t": 324500,
      "d": 500,
      "v": 127
    },
    {
      "midi": 55,
      "hit": false,
      "t": 324500,
      "d": 500,
      "v": 127
    },
    {
      "midi": 59,
      "hit": false,
      "t": 324500,
      "d": 500,
      "v": 127
    },
    {
      "midi": 62,
      "hit": false,
      "t": 324500,
      "d": 500,
      "v": 127
    },
    {
      "midi": 65,
      "hit": false,
      "t": 324500,
      "d": 500,
      "v": 127
    },
    {
      "midi": 74,
      "hit": false,
      "t": 325000,
      "d": 250,
      "v": 127
    },
    {
      "midi": 55,
      "hit": false,
      "t": 325000,
      "d": 500,
      "v": 127
    },
    {
      "midi": 59,
      "hit": false,
      "t": 325000,
      "d": 500,
      "v": 127
    },
    {
      "midi": 62,
      "hit": false,
      "t": 325000,
      "d": 500,
      "v": 127
    },
    {
      "midi": 65,
      "hit": false,
      "t": 325000,
      "d": 500,
      "v": 127
    },
    {
      "midi": 71,
      "hit": false,
      "t": 325250,
      "d": 250,
      "v": 127
    },
    {
      "midi": 72,
      "hit": false,
      "t": 325250,
      "d": 250,
      "v": 127
    },
    {
      "midi": 74,
      "hit": false,
      "t": 325500,
      "d": 1500,
      "v": 127
    },
    {
      "midi": 48,
      "hit": false,
      "t": 325500,
      "d": 500,
      "v": 127
    },
    {
      "midi": 60,
      "hit": false,
      "t": 325500,
      "d": 500,
      "v": 127
    },
    {
      "midi": 55,
      "hit": false,
      "t": 326000,
      "d": 250,
      "v": 127
    },
    {
      "midi": 60,
      "hit": false,
      "t": 326000,
      "d": 250,
      "v": 127
    },
    {
      "midi": 64,
      "hit": false,
      "t": 326000,
      "d": 250,
      "v": 127
    },
    {
      "midi": 55,
      "hit": false,
      "t": 326250,
      "d": 250,
      "v": 127
    },
    {
      "midi": 60,
      "hit": false,
      "t": 326250,
      "d": 250,
      "v": 127
    },
    {
      "midi": 64,
      "hit": false,
      "t": 326250,
      "d": 250,
      "v": 127
    },
    {
      "midi": 55,
      "hit": false,
      "t": 326500,
      "d": 500,
      "v": 127
    },
    {
      "midi": 60,
      "hit": false,
      "t": 326500,
      "d": 500,
      "v": 127
    },
    {
      "midi": 64,
      "hit": false,
      "t": 326500,
      "d": 500,
      "v": 127
    },
    {
      "midi": 72,
      "hit": false,
      "t": 327000,
      "d": 500,
      "v": 127
    },
    {
      "midi": 55,
      "hit": false,
      "t": 327000,
      "d": 500,
      "v": 127
    },
    {
      "midi": 60,
      "hit": false,
      "t": 327000,
      "d": 500,
      "v": 127
    },
    {
      "midi": 64,
      "hit": false,
      "t": 327000,
      "d": 500,
      "v": 127
    },
    {
      "midi": 67,
      "hit": false,
      "t": 327500,
      "d": 1000,
      "v": 127
    },
    {
      "midi": 55,
      "hit": false,
      "t": 327500,
      "d": 500,
      "v": 127
    },
    {
      "midi": 60,
      "hit": false,
      "t": 327500,
      "d": 500,
      "v": 127
    },
    {
      "midi": 64,
      "hit": false,
      "t": 327500,
      "d": 500,
      "v": 127
    },
    {
      "midi": 55,
      "hit": false,
      "t": 328000,
      "d": 500,
      "v": 127
    },
    {
      "midi": 60,
      "hit": false,
      "t": 328000,
      "d": 500,
      "v": 127
    },
    {
      "midi": 64,
      "hit": false,
      "t": 328000,
      "d": 500,
      "v": 127
    },
    {
      "midi": 55,
      "hit": false,
      "t": 328500,
      "d": 500,
      "v": 127
    },
    {
      "midi": 60,
      "hit": false,
      "t": 328500,
      "d": 500,
      "v": 127
    },
    {
      "midi": 64,
      "hit": false,
      "t": 328500,
      "d": 500,
      "v": 127
    },
    {
      "midi": 55,
      "hit": false,
      "t": 329000,
      "d": 500,
      "v": 127
    },
    {
      "midi": 60,
      "hit": false,
      "t": 329000,
      "d": 500,
      "v": 127
    },
    {
      "midi": 64,
      "hit": false,
      "t": 329000,
      "d": 500,
      "v": 127
    },
    {
      "midi": 66,
      "hit": false,
      "t": 329250,
      "d": 250,
      "v": 127
    },
    {
      "midi": 69,
      "hit": false,
      "t": 329250,
      "d": 250,
      "v": 127
    },
    {
      "midi": 67,
      "hit": false,
      "t": 329500,
      "d": 1000,
      "v": 127
    },
    {
      "midi": 36,
      "hit": false,
      "t": 329500,
      "d": 500,
      "v": 127
    },
    {
      "midi": 48,
      "hit": false,
      "t": 329500,
      "d": 500,
      "v": 127
    },
    {
      "midi": 55,
      "hit": false,
      "t": 330000,
      "d": 250,
      "v": 127
    },
    {
      "midi": 60,
      "hit": false,
      "t": 330000,
      "d": 250,
      "v": 127
    },
    {
      "midi": 64,
      "hit": false,
      "t": 330000,
      "d": 250,
      "v": 127
    },
    {
      "midi": 55,
      "hit": false,
      "t": 330250,
      "d": 250,
      "v": 127
    },
    {
      "midi": 60,
      "hit": false,
      "t": 330250,
      "d": 250,
      "v": 127
    },
    {
      "midi": 64,
      "hit": false,
      "t": 330250,
      "d": 250,
      "v": 127
    },
    {
      "midi": 55,
      "hit": false,
      "t": 330500,
      "d": 500,
      "v": 127
    },
    {
      "midi": 60,
      "hit": false,
      "t": 330500,
      "d": 500,
      "v": 127
    },
    {
      "midi": 64,
      "hit": false,
      "t": 330500,
      "d": 500,
      "v": 127
    },
    {
      "midi": 55,
      "hit": false,
      "t": 331000,
      "d": 500,
      "v": 127
    },
    {
      "midi": 60,
      "hit": false,
      "t": 331000,
      "d": 500,
      "v": 127
    },
    {
      "midi": 64,
      "hit": false,
      "t": 331000,
      "d": 500,
      "v": 127
    },
    {
      "midi": 71,
      "hit": false,
      "t": 331250,
      "d": 250,
      "v": 127
    },
    {
      "midi": 74,
      "hit": false,
      "t": 331250,
      "d": 250,
      "v": 127
    },
    {
      "midi": 72,
      "hit": false,
      "t": 331500,
      "d": 1000,
      "v": 127
    },
    {
      "midi": 55,
      "hit": false,
      "t": 331500,
      "d": 500,
      "v": 127
    },
    {
      "midi": 60,
      "hit": false,
      "t": 331500,
      "d": 500,
      "v": 127
    },
    {
      "midi": 64,
      "hit": false,
      "t": 331500,
      "d": 500,
      "v": 127
    },
    {
      "midi": 55,
      "hit": false,
      "t": 332000,
      "d": 500,
      "v": 127
    },
    {
      "midi": 60,
      "hit": false,
      "t": 332000,
      "d": 500,
      "v": 127
    },
    {
      "midi": 64,
      "hit": false,
      "t": 332000,
      "d": 500,
      "v": 127
    },
    {
      "midi": 74,
      "hit": false,
      "t": 332500,
      "d": 1000,
      "v": 127
    },
    {
      "midi": 56,
      "hit": false,
      "t": 332500,
      "d": 500,
      "v": 127
    },
    {
      "midi": 59,
      "hit": false,
      "t": 332500,
      "d": 500,
      "v": 127
    },
    {
      "midi": 62,
      "hit": false,
      "t": 332500,
      "d": 500,
      "v": 127
    },
    {
      "midi": 65,
      "hit": false,
      "t": 332500,
      "d": 500,
      "v": 127
    },
    {
      "midi": 56,
      "hit": false,
      "t": 333000,
      "d": 500,
      "v": 127
    },
    {
      "midi": 59,
      "hit": false,
      "t": 333000,
      "d": 500,
      "v": 127
    },
    {
      "midi": 62,
      "hit": false,
      "t": 333000,
      "d": 500,
      "v": 127
    },
    {
      "midi": 65,
      "hit": false,
      "t": 333000,
      "d": 500,
      "v": 127
    },
    {
      "midi": 76,
      "hit": false,
      "t": 333500,
      "d": 1000,
      "v": 127
    },
    {
      "midi": 36,
      "hit": false,
      "t": 333500,
      "d": 500,
      "v": 127
    },
    {
      "midi": 48,
      "hit": false,
      "t": 333500,
      "d": 500,
      "v": 127
    },
    {
      "midi": 55,
      "hit": false,
      "t": 334000,
      "d": 250,
      "v": 127
    },
    {
      "midi": 60,
      "hit": false,
      "t": 334000,
      "d": 250,
      "v": 127
    },
    {
      "midi": 64,
      "hit": false,
      "t": 334000,
      "d": 250,
      "v": 127
    },
    {
      "midi": 55,
      "hit": false,
      "t": 334250,
      "d": 250,
      "v": 127
    },
    {
      "midi": 60,
      "hit": false,
      "t": 334250,
      "d": 250,
      "v": 127
    },
    {
      "midi": 64,
      "hit": false,
      "t": 334250,
      "d": 250,
      "v": 127
    },
    {
      "midi": 76,
      "hit": false,
      "t": 334500,
      "d": 500,
      "v": 127
    },
    {
      "midi": 55,
      "hit": false,
      "t": 334500,
      "d": 500,
      "v": 127
    },
    {
      "midi": 60,
      "hit": false,
      "t": 334500,
      "d": 500,
      "v": 127
    },
    {
      "midi": 64,
      "hit": false,
      "t": 334500,
      "d": 500,
      "v": 127
    },
    {
      "midi": 55,
      "hit": false,
      "t": 335000,
      "d": 500,
      "v": 127
    },
    {
      "midi": 60,
      "hit": false,
      "t": 335000,
      "d": 500,
      "v": 127
    },
    {
      "midi": 64,
      "hit": false,
      "t": 335000,
      "d": 500,
      "v": 127
    },
    {
      "midi": 76,
      "hit": false,
      "t": 335500,
      "d": 1000,
      "v": 127
    },
    {
      "midi": 48,
      "hit": false,
      "t": 335500,
      "d": 500,
      "v": 127
    },
    {
      "midi": 60,
      "hit": false,
      "t": 335500,
      "d": 500,
      "v": 127
    },
    {
      "midi": 55,
      "hit": false,
      "t": 336000,
      "d": 250,
      "v": 127
    },
    {
      "midi": 60,
      "hit": false,
      "t": 336000,
      "d": 250,
      "v": 127
    },
    {
      "midi": 64,
      "hit": false,
      "t": 336000,
      "d": 250,
      "v": 127
    },
    {
      "midi": 55,
      "hit": false,
      "t": 336250,
      "d": 250,
      "v": 127
    },
    {
      "midi": 60,
      "hit": false,
      "t": 336250,
      "d": 250,
      "v": 127
    },
    {
      "midi": 64,
      "hit": false,
      "t": 336250,
      "d": 250,
      "v": 127
    },
    {
      "midi": 77,
      "hit": false,
      "t": 336500,
      "d": 500,
      "v": 127
    },
    {
      "midi": 55,
      "hit": false,
      "t": 336500,
      "d": 500,
      "v": 127
    },
    {
      "midi": 60,
      "hit": false,
      "t": 336500,
      "d": 500,
      "v": 127
    },
    {
      "midi": 64,
      "hit": false,
      "t": 336500,
      "d": 500,
      "v": 127
    },
    {
      "midi": 76,
      "hit": false,
      "t": 337000,
      "d": 250,
      "v": 127
    },
    {
      "midi": 55,
      "hit": false,
      "t": 337000,
      "d": 500,
      "v": 127
    },
    {
      "midi": 60,
      "hit": false,
      "t": 337000,
      "d": 500,
      "v": 127
    },
    {
      "midi": 64,
      "hit": false,
      "t": 337000,
      "d": 500,
      "v": 127
    },
    {
      "midi": 73,
      "hit": false,
      "t": 337250,
      "d": 250,
      "v": 127
    },
    {
      "midi": 74,
      "hit": false,
      "t": 337250,
      "d": 250,
      "v": 127
    },
    {
      "midi": 74,
      "hit": false,
      "t": 337500,
      "d": 1000,
      "v": 127
    },
    {
      "midi": 43,
      "hit": false,
      "t": 337500,
      "d": 500,
      "v": 127
    },
    {
      "midi": 55,
      "hit": false,
      "t": 337500,
      "d": 500,
      "v": 127
    },
    {
      "midi": 55,
      "hit": false,
      "t": 338000,
      "d": 250,
      "v": 127
    },
    {
      "midi": 59,
      "hit": false,
      "t": 338000,
      "d": 250,
      "v": 127
    },
    {
      "midi": 62,
      "hit": false,
      "t": 338000,
      "d": 250,
      "v": 127
    },
    {
      "midi": 65,
      "hit": false,
      "t": 338000,
      "d": 250,
      "v": 127
    },
    {
      "midi": 55,
      "hit": false,
      "t": 338250,
      "d": 250,
      "v": 127
    },
    {
      "midi": 59,
      "hit": false,
      "t": 338250,
      "d": 250,
      "v": 127
    },
    {
      "midi": 62,
      "hit": false,
      "t": 338250,
      "d": 250,
      "v": 127
    },
    {
      "midi": 65,
      "hit": false,
      "t": 338250,
      "d": 250,
      "v": 127
    },
    {
      "midi": 74,
      "hit": false,
      "t": 338500,
      "d": 500,
      "v": 127
    },
    {
      "midi": 55,
      "hit": false,
      "t": 338500,
      "d": 500,
      "v": 127
    },
    {
      "midi": 59,
      "hit": false,
      "t": 338500,
      "d": 500,
      "v": 127
    },
    {
      "midi": 62,
      "hit": false,
      "t": 338500,
      "d": 500,
      "v": 127
    },
    {
      "midi": 65,
      "hit": false,
      "t": 338500,
      "d": 500,
      "v": 127
    },
    {
      "midi": 55,
      "hit": false,
      "t": 339000,
      "d": 500,
      "v": 127
    },
    {
      "midi": 59,
      "hit": false,
      "t": 339000,
      "d": 500,
      "v": 127
    },
    {
      "midi": 62,
      "hit": false,
      "t": 339000,
      "d": 500,
      "v": 127
    },
    {
      "midi": 65,
      "hit": false,
      "t": 339000,
      "d": 500,
      "v": 127
    },
    {
      "midi": 81,
      "hit": false,
      "t": 339500,
      "d": 1500,
      "v": 127
    },
    {
      "midi": 43,
      "hit": false,
      "t": 339500,
      "d": 500,
      "v": 127
    },
    {
      "midi": 55,
      "hit": false,
      "t": 339500,
      "d": 500,
      "v": 127
    },
    {
      "midi": 55,
      "hit": false,
      "t": 340000,
      "d": 250,
      "v": 127
    },
    {
      "midi": 59,
      "hit": false,
      "t": 340000,
      "d": 250,
      "v": 127
    },
    {
      "midi": 62,
      "hit": false,
      "t": 340000,
      "d": 250,
      "v": 127
    },
    {
      "midi": 65,
      "hit": false,
      "t": 340000,
      "d": 250,
      "v": 127
    },
    {
      "midi": 55,
      "hit": false,
      "t": 340250,
      "d": 250,
      "v": 127
    },
    {
      "midi": 59,
      "hit": false,
      "t": 340250,
      "d": 250,
      "v": 127
    },
    {
      "midi": 62,
      "hit": false,
      "t": 340250,
      "d": 250,
      "v": 127
    },
    {
      "midi": 65,
      "hit": false,
      "t": 340250,
      "d": 250,
      "v": 127
    },
    {
      "midi": 55,
      "hit": false,
      "t": 340500,
      "d": 500,
      "v": 127
    },
    {
      "midi": 59,
      "hit": false,
      "t": 340500,
      "d": 500,
      "v": 127
    },
    {
      "midi": 62,
      "hit": false,
      "t": 340500,
      "d": 500,
      "v": 127
    },
    {
      "midi": 65,
      "hit": false,
      "t": 340500,
      "d": 500,
      "v": 127
    },
    {
      "midi": 77,
      "hit": false,
      "t": 341000,
      "d": 250,
      "v": 127
    },
    {
      "midi": 79,
      "hit": false,
      "t": 341000,
      "d": 250,
      "v": 127
    },
    {
      "midi": 55,
      "hit": false,
      "t": 341000,
      "d": 500,
      "v": 127
    },
    {
      "midi": 59,
      "hit": false,
      "t": 341000,
      "d": 500,
      "v": 127
    },
    {
      "midi": 62,
      "hit": false,
      "t": 341000,
      "d": 500,
      "v": 127
    },
    {
      "midi": 65,
      "hit": false,
      "t": 341000,
      "d": 500,
      "v": 127
    },
    {
      "midi": 74,
      "hit": false,
      "t": 341250,
      "d": 250,
      "v": 127
    },
    {
      "midi": 76,
      "hit": false,
      "t": 341250,
      "d": 250,
      "v": 127
    },
    {
      "midi": 72,
      "hit": false,
      "t": 341500,
      "d": 1500,
      "v": 127
    },
    {
      "midi": 48,
      "hit": false,
      "t": 341500,
      "d": 500,
      "v": 127
    },
    {
      "midi": 60,
      "hit": false,
      "t": 341500,
      "d": 500,
      "v": 127
    },
    {
      "midi": 55,
      "hit": false,
      "t": 342000,
      "d": 250,
      "v": 127
    },
    {
      "midi": 60,
      "hit": false,
      "t": 342000,
      "d": 250,
      "v": 127
    },
    {
      "midi": 64,
      "hit": false,
      "t": 342000,
      "d": 250,
      "v": 127
    },
    {
      "midi": 55,
      "hit": false,
      "t": 342250,
      "d": 250,
      "v": 127
    },
    {
      "midi": 60,
      "hit": false,
      "t": 342250,
      "d": 250,
      "v": 127
    },
    {
      "midi": 64,
      "hit": false,
      "t": 342250,
      "d": 250,
      "v": 127
    },
    {
      "midi": 55,
      "hit": false,
      "t": 342500,
      "d": 500,
      "v": 127
    },
    {
      "midi": 60,
      "hit": false,
      "t": 342500,
      "d": 500,
      "v": 127
    },
    {
      "midi": 64,
      "hit": false,
      "t": 342500,
      "d": 500,
      "v": 127
    },
    {
      "midi": 55,
      "hit": false,
      "t": 343000,
      "d": 500,
      "v": 127
    },
    {
      "midi": 60,
      "hit": false,
      "t": 343000,
      "d": 500,
      "v": 127
    },
    {
      "midi": 64,
      "hit": false,
      "t": 343000,
      "d": 500,
      "v": 127
    },
    {
      "midi": 48,
      "hit": false,
      "t": 343500,
      "d": 500,
      "v": 127
    },
    {
      "midi": 60,
      "hit": false,
      "t": 343500,
      "d": 500,
      "v": 127
    },
    {
      "midi": 55,
      "hit": false,
      "t": 344000,
      "d": 250,
      "v": 127
    },
    {
      "midi": 60,
      "hit": false,
      "t": 344000,
      "d": 250,
      "v": 127
    },
    {
      "midi": 64,
      "hit": false,
      "t": 344000,
      "d": 250,
      "v": 127
    },
    {
      "midi": 55,
      "hit": false,
      "t": 344250,
      "d": 250,
      "v": 127
    },
    {
      "midi": 60,
      "hit": false,
      "t": 344250,
      "d": 250,
      "v": 127
    },
    {
      "midi": 64,
      "hit": false,
      "t": 344250,
      "d": 250,
      "v": 127
    },
    {
      "midi": 55,
      "hit": false,
      "t": 344500,
      "d": 500,
      "v": 127
    },
    {
      "midi": 60,
      "hit": false,
      "t": 344500,
      "d": 500,
      "v": 127
    },
    {
      "midi": 64,
      "hit": false,
      "t": 344500,
      "d": 500,
      "v": 127
    },
    {
      "midi": 55,
      "hit": false,
      "t": 345000,
      "d": 500,
      "v": 127
    },
    {
      "midi": 60,
      "hit": false,
      "t": 345000,
      "d": 500,
      "v": 127
    },
    {
      "midi": 64,
      "hit": false,
      "t": 345000,
      "d": 500,
      "v": 127
    },
    {
      "midi": 75,
      "hit": false,
      "t": 345250,
      "d": 250,
      "v": 127
    },
    {
      "midi": 77,
      "hit": false,
      "t": 345250,
      "d": 250,
      "v": 127
    },
    {
      "midi": 76,
      "hit": false,
      "t": 345500,
      "d": 1500,
      "v": 127
    },
    {
      "midi": 52,
      "hit": false,
      "t": 345500,
      "d": 500,
      "v": 127
    },
    {
      "midi": 56,
      "hit": false,
      "t": 346000,
      "d": 250,
      "v": 127
    },
    {
      "midi": 59,
      "hit": false,
      "t": 346000,
      "d": 250,
      "v": 127
    },
    {
      "midi": 64,
      "hit": false,
      "t": 346000,
      "d": 250,
      "v": 127
    },
    {
      "midi": 56,
      "hit": false,
      "t": 346250,
      "d": 250,
      "v": 127
    },
    {
      "midi": 59,
      "hit": false,
      "t": 346250,
      "d": 250,
      "v": 127
    },
    {
      "midi": 64,
      "hit": false,
      "t": 346250,
      "d": 250,
      "v": 127
    },
    {
      "midi": 56,
      "hit": false,
      "t": 346500,
      "d": 500,
      "v": 127
    },
    {
      "midi": 59,
      "hit": false,
      "t": 346500,
      "d": 500,
      "v": 127
    },
    {
      "midi": 64,
      "hit": false,
      "t": 346500,
      "d": 500,
      "v": 127
    },
    {
      "midi": 56,
      "hit": false,
      "t": 347000,
      "d": 500,
      "v": 127
    },
    {
      "midi": 59,
      "hit": false,
      "t": 347000,
      "d": 500,
      "v": 127
    },
    {
      "midi": 64,
      "hit": false,
      "t": 347000,
      "d": 500,
      "v": 127
    },
    {
      "midi": 77,
      "hit": false,
      "t": 347250,
      "d": 250,
      "v": 127
    },
    {
      "midi": 76,
      "hit": false,
      "t": 347500,
      "d": 750,
      "v": 127
    },
    {
      "midi": 57,
      "hit": false,
      "t": 347500,
      "d": 500,
      "v": 127
    },
    {
      "midi": 60,
      "hit": false,
      "t": 348000,
      "d": 250,
      "v": 127
    },
    {
      "midi": 64,
      "hit": false,
      "t": 348000,
      "d": 250,
      "v": 127
    },
    {
      "midi": 74,
      "hit": false,
      "t": 348250,
      "d": 250,
      "v": 127
    },
    {
      "midi": 60,
      "hit": false,
      "t": 348250,
      "d": 250,
      "v": 127
    },
    {
      "midi": 64,
      "hit": false,
      "t": 348250,
      "d": 250,
      "v": 127
    },
    {
      "midi": 72,
      "hit": false,
      "t": 348500,
      "d": 750,
      "v": 127
    },
    {
      "midi": 60,
      "hit": false,
      "t": 348500,
      "d": 500,
      "v": 127
    },
    {
      "midi": 64,
      "hit": false,
      "t": 348500,
      "d": 500,
      "v": 127
    },
    {
      "midi": 60,
      "hit": false,
      "t": 349000,
      "d": 500,
      "v": 127
    },
    {
      "midi": 64,
      "hit": false,
      "t": 349000,
      "d": 500,
      "v": 127
    },
    {
      "midi": 74,
      "hit": false,
      "t": 349250,
      "d": 250,
      "v": 127
    },
    {
      "midi": 76,
      "hit": false,
      "t": 349500,
      "d": 1500,
      "v": 127
    },
    {
      "midi": 52,
      "hit": false,
      "t": 349500,
      "d": 500,
      "v": 127
    },
    {
      "midi": 56,
      "hit": false,
      "t": 350000,
      "d": 250,
      "v": 127
    },
    {
      "midi": 59,
      "hit": false,
      "t": 350000,
      "d": 250,
      "v": 127
    },
    {
      "midi": 64,
      "hit": false,
      "t": 350000,
      "d": 250,
      "v": 127
    },
    {
      "midi": 56,
      "hit": false,
      "t": 350250,
      "d": 250,
      "v": 127
    },
    {
      "midi": 59,
      "hit": false,
      "t": 350250,
      "d": 250,
      "v": 127
    },
    {
      "midi": 64,
      "hit": false,
      "t": 350250,
      "d": 250,
      "v": 127
    },
    {
      "midi": 56,
      "hit": false,
      "t": 350500,
      "d": 500,
      "v": 127
    },
    {
      "midi": 59,
      "hit": false,
      "t": 350500,
      "d": 500,
      "v": 127
    },
    {
      "midi": 64,
      "hit": false,
      "t": 350500,
      "d": 500,
      "v": 127
    },
    {
      "midi": 74,
      "hit": false,
      "t": 351000,
      "d": 250,
      "v": 127
    },
    {
      "midi": 56,
      "hit": false,
      "t": 351000,
      "d": 500,
      "v": 127
    },
    {
      "midi": 59,
      "hit": false,
      "t": 351000,
      "d": 500,
      "v": 127
    },
    {
      "midi": 64,
      "hit": false,
      "t": 351000,
      "d": 500,
      "v": 127
    },
    {
      "midi": 72,
      "hit": false,
      "t": 351250,
      "d": 250,
      "v": 127
    },
    {
      "midi": 71,
      "hit": false,
      "t": 351500,
      "d": 1000,
      "v": 127
    },
    {
      "midi": 52,
      "hit": false,
      "t": 351500,
      "d": 500,
      "v": 127
    },
    {
      "midi": 56,
      "hit": false,
      "t": 352000,
      "d": 250,
      "v": 127
    },
    {
      "midi": 59,
      "hit": false,
      "t": 352000,
      "d": 250,
      "v": 127
    },
    {
      "midi": 64,
      "hit": false,
      "t": 352000,
      "d": 250,
      "v": 127
    },
    {
      "midi": 56,
      "hit": false,
      "t": 352250,
      "d": 250,
      "v": 127
    },
    {
      "midi": 59,
      "hit": false,
      "t": 352250,
      "d": 250,
      "v": 127
    },
    {
      "midi": 64,
      "hit": false,
      "t": 352250,
      "d": 250,
      "v": 127
    },
    {
      "midi": 56,
      "hit": false,
      "t": 352500,
      "d": 500,
      "v": 127
    },
    {
      "midi": 59,
      "hit": false,
      "t": 352500,
      "d": 500,
      "v": 127
    },
    {
      "midi": 64,
      "hit": false,
      "t": 352500,
      "d": 500,
      "v": 127
    },
    {
      "midi": 56,
      "hit": false,
      "t": 353000,
      "d": 500,
      "v": 127
    },
    {
      "midi": 59,
      "hit": false,
      "t": 353000,
      "d": 500,
      "v": 127
    },
    {
      "midi": 64,
      "hit": false,
      "t": 353000,
      "d": 500,
      "v": 127
    },
    {
      "midi": 75,
      "hit": false,
      "t": 353250,
      "d": 250,
      "v": 127
    },
    {
      "midi": 77,
      "hit": false,
      "t": 353250,
      "d": 250,
      "v": 127
    },
    {
      "midi": 76,
      "hit": false,
      "t": 353500,
      "d": 1500,
      "v": 127
    },
    {
      "midi": 52,
      "hit": false,
      "t": 353500,
      "d": 500,
      "v": 127
    },
    {
      "midi": 56,
      "hit": false,
      "t": 354000,
      "d": 250,
      "v": 127
    },
    {
      "midi": 59,
      "hit": false,
      "t": 354000,
      "d": 250,
      "v": 127
    },
    {
      "midi": 64,
      "hit": false,
      "t": 354000,
      "d": 250,
      "v": 127
    },
    {
      "midi": 56,
      "hit": false,
      "t": 354250,
      "d": 250,
      "v": 127
    },
    {
      "midi": 59,
      "hit": false,
      "t": 354250,
      "d": 250,
      "v": 127
    },
    {
      "midi": 64,
      "hit": false,
      "t": 354250,
      "d": 250,
      "v": 127
    },
    {
      "midi": 56,
      "hit": false,
      "t": 354500,
      "d": 500,
      "v": 127
    },
    {
      "midi": 59,
      "hit": false,
      "t": 354500,
      "d": 500,
      "v": 127
    },
    {
      "midi": 64,
      "hit": false,
      "t": 354500,
      "d": 500,
      "v": 127
    },
    {
      "midi": 56,
      "hit": false,
      "t": 355000,
      "d": 500,
      "v": 127
    },
    {
      "midi": 59,
      "hit": false,
      "t": 355000,
      "d": 500,
      "v": 127
    },
    {
      "midi": 64,
      "hit": false,
      "t": 355000,
      "d": 500,
      "v": 127
    },
    {
      "midi": 77,
      "hit": false,
      "t": 355250,
      "d": 250,
      "v": 127
    },
    {
      "midi": 76,
      "hit": false,
      "t": 355500,
      "d": 750,
      "v": 127
    },
    {
      "midi": 57,
      "hit": false,
      "t": 355500,
      "d": 500,
      "v": 127
    },
    {
      "midi": 60,
      "hit": false,
      "t": 356000,
      "d": 250,
      "v": 127
    },
    {
      "midi": 64,
      "hit": false,
      "t": 356000,
      "d": 250,
      "v": 127
    },
    {
      "midi": 74,
      "hit": false,
      "t": 356250,
      "d": 250,
      "v": 127
    },
    {
      "midi": 60,
      "hit": false,
      "t": 356250,
      "d": 250,
      "v": 127
    },
    {
      "midi": 64,
      "hit": false,
      "t": 356250,
      "d": 250,
      "v": 127
    },
    {
      "midi": 72,
      "hit": false,
      "t": 356500,
      "d": 750,
      "v": 127
    },
    {
      "midi": 60,
      "hit": false,
      "t": 356500,
      "d": 500,
      "v": 127
    },
    {
      "midi": 64,
      "hit": false,
      "t": 356500,
      "d": 500,
      "v": 127
    },
    {
      "midi": 60,
      "hit": false,
      "t": 357000,
      "d": 500,
      "v": 127
    },
    {
      "midi": 64,
      "hit": false,
      "t": 357000,
      "d": 500,
      "v": 127
    },
    {
      "midi": 74,
      "hit": false,
      "t": 357250,
      "d": 250,
      "v": 127
    },
    {
      "midi": 76,
      "hit": false,
      "t": 357500,
      "d": 1000,
      "v": 127
    },
    {
      "midi": 52,
      "hit": false,
      "t": 357500,
      "d": 500,
      "v": 127
    },
    {
      "midi": 56,
      "hit": false,
      "t": 358000,
      "d": 250,
      "v": 127
    },
    {
      "midi": 59,
      "hit": false,
      "t": 358000,
      "d": 250,
      "v": 127
    },
    {
      "midi": 64,
      "hit": false,
      "t": 358000,
      "d": 250,
      "v": 127
    },
    {
      "midi": 56,
      "hit": false,
      "t": 358250,
      "d": 250,
      "v": 127
    },
    {
      "midi": 59,
      "hit": false,
      "t": 358250,
      "d": 250,
      "v": 127
    },
    {
      "midi": 64,
      "hit": false,
      "t": 358250,
      "d": 250,
      "v": 127
    },
    {
      "midi": 76,
      "hit": false,
      "t": 358500,
      "d": 500,
      "v": 127
    },
    {
      "midi": 56,
      "hit": false,
      "t": 358500,
      "d": 500,
      "v": 127
    },
    {
      "midi": 59,
      "hit": false,
      "t": 358500,
      "d": 500,
      "v": 127
    },
    {
      "midi": 64,
      "hit": false,
      "t": 358500,
      "d": 500,
      "v": 127
    },
    {
      "midi": 56,
      "hit": false,
      "t": 359000,
      "d": 500,
      "v": 127
    },
    {
      "midi": 59,
      "hit": false,
      "t": 359000,
      "d": 500,
      "v": 127
    },
    {
      "midi": 64,
      "hit": false,
      "t": 359000,
      "d": 500,
      "v": 127
    },
    {
      "midi": 52,
      "hit": false,
      "t": 359500,
      "d": 500,
      "v": 127
    },
    {
      "midi": 56,
      "hit": false,
      "t": 360000,
      "d": 250,
      "v": 127
    },
    {
      "midi": 59,
      "hit": false,
      "t": 360000,
      "d": 250,
      "v": 127
    },
    {
      "midi": 64,
      "hit": false,
      "t": 360000,
      "d": 250,
      "v": 127
    },
    {
      "midi": 56,
      "hit": false,
      "t": 360250,
      "d": 250,
      "v": 127
    },
    {
      "midi": 59,
      "hit": false,
      "t": 360250,
      "d": 250,
      "v": 127
    },
    {
      "midi": 64,
      "hit": false,
      "t": 360250,
      "d": 250,
      "v": 127
    },
    {
      "midi": 56,
      "hit": false,
      "t": 360500,
      "d": 500,
      "v": 127
    },
    {
      "midi": 59,
      "hit": false,
      "t": 360500,
      "d": 500,
      "v": 127
    },
    {
      "midi": 64,
      "hit": false,
      "t": 360500,
      "d": 500,
      "v": 127
    },
    {
      "midi": 56,
      "hit": false,
      "t": 361000,
      "d": 500,
      "v": 127
    },
    {
      "midi": 59,
      "hit": false,
      "t": 361000,
      "d": 500,
      "v": 127
    },
    {
      "midi": 64,
      "hit": false,
      "t": 361000,
      "d": 500,
      "v": 127
    },
    {
      "midi": 66,
      "hit": false,
      "t": 361250,
      "d": 250,
      "v": 127
    },
    {
      "midi": 69,
      "hit": false,
      "t": 361250,
      "d": 250,
      "v": 127
    },
    {
      "midi": 67,
      "hit": false,
      "t": 361500,
      "d": 1500,
      "v": 127
    },
    {
      "midi": 36,
      "hit": false,
      "t": 361500,
      "d": 500,
      "v": 127
    },
    {
      "midi": 48,
      "hit": false,
      "t": 361500,
      "d": 500,
      "v": 127
    },
    {
      "midi": 55,
      "hit": false,
      "t": 362000,
      "d": 250,
      "v": 127
    },
    {
      "midi": 60,
      "hit": false,
      "t": 362000,
      "d": 250,
      "v": 127
    },
    {
      "midi": 64,
      "hit": false,
      "t": 362000,
      "d": 250,
      "v": 127
    },
    {
      "midi": 55,
      "hit": false,
      "t": 362250,
      "d": 250,
      "v": 127
    },
    {
      "midi": 60,
      "hit": false,
      "t": 362250,
      "d": 250,
      "v": 127
    },
    {
      "midi": 64,
      "hit": false,
      "t": 362250,
      "d": 250,
      "v": 127
    },
    {
      "midi": 55,
      "hit": false,
      "t": 362500,
      "d": 500,
      "v": 127
    },
    {
      "midi": 60,
      "hit": false,
      "t": 362500,
      "d": 500,
      "v": 127
    },
    {
      "midi": 64,
      "hit": false,
      "t": 362500,
      "d": 500,
      "v": 127
    },
    {
      "midi": 55,
      "hit": false,
      "t": 363000,
      "d": 500,
      "v": 127
    },
    {
      "midi": 60,
      "hit": false,
      "t": 363000,
      "d": 500,
      "v": 127
    },
    {
      "midi": 64,
      "hit": false,
      "t": 363000,
      "d": 500,
      "v": 127
    },
    {
      "midi": 71,
      "hit": false,
      "t": 363250,
      "d": 250,
      "v": 127
    },
    {
      "midi": 74,
      "hit": false,
      "t": 363250,
      "d": 250,
      "v": 127
    },
    {
      "midi": 72,
      "hit": false,
      "t": 363500,
      "d": 1000,
      "v": 127
    },
    {
      "midi": 55,
      "hit": false,
      "t": 363500,
      "d": 500,
      "v": 127
    },
    {
      "midi": 60,
      "hit": false,
      "t": 363500,
      "d": 500,
      "v": 127
    },
    {
      "midi": 64,
      "hit": false,
      "t": 363500,
      "d": 500,
      "v": 127
    },
    {
      "midi": 55,
      "hit": false,
      "t": 364000,
      "d": 500,
      "v": 127
    },
    {
      "midi": 60,
      "hit": false,
      "t": 364000,
      "d": 500,
      "v": 127
    },
    {
      "midi": 64,
      "hit": false,
      "t": 364000,
      "d": 500,
      "v": 127
    },
    {
      "midi": 74,
      "hit": false,
      "t": 364500,
      "d": 1000,
      "v": 127
    },
    {
      "midi": 56,
      "hit": false,
      "t": 364500,
      "d": 500,
      "v": 127
    },
    {
      "midi": 59,
      "hit": false,
      "t": 364500,
      "d": 500,
      "v": 127
    },
    {
      "midi": 62,
      "hit": false,
      "t": 364500,
      "d": 500,
      "v": 127
    },
    {
      "midi": 65,
      "hit": false,
      "t": 364500,
      "d": 500,
      "v": 127
    },
    {
      "midi": 56,
      "hit": false,
      "t": 365000,
      "d": 500,
      "v": 127
    },
    {
      "midi": 59,
      "hit": false,
      "t": 365000,
      "d": 500,
      "v": 127
    },
    {
      "midi": 62,
      "hit": false,
      "t": 365000,
      "d": 500,
      "v": 127
    },
    {
      "midi": 65,
      "hit": false,
      "t": 365000,
      "d": 500,
      "v": 127
    },
    {
      "midi": 76,
      "hit": false,
      "t": 365500,
      "d": 1000,
      "v": 127
    },
    {
      "midi": 36,
      "hit": false,
      "t": 365500,
      "d": 500,
      "v": 127
    },
    {
      "midi": 48,
      "hit": false,
      "t": 365500,
      "d": 500,
      "v": 127
    },
    {
      "midi": 55,
      "hit": false,
      "t": 366000,
      "d": 250,
      "v": 127
    },
    {
      "midi": 60,
      "hit": false,
      "t": 366000,
      "d": 250,
      "v": 127
    },
    {
      "midi": 64,
      "hit": false,
      "t": 366000,
      "d": 250,
      "v": 127
    },
    {
      "midi": 55,
      "hit": false,
      "t": 366250,
      "d": 250,
      "v": 127
    },
    {
      "midi": 60,
      "hit": false,
      "t": 366250,
      "d": 250,
      "v": 127
    },
    {
      "midi": 64,
      "hit": false,
      "t": 366250,
      "d": 250,
      "v": 127
    },
    {
      "midi": 76,
      "hit": false,
      "t": 366500,
      "d": 500,
      "v": 127
    },
    {
      "midi": 55,
      "hit": false,
      "t": 366500,
      "d": 500,
      "v": 127
    },
    {
      "midi": 60,
      "hit": false,
      "t": 366500,
      "d": 500,
      "v": 127
    },
    {
      "midi": 64,
      "hit": false,
      "t": 366500,
      "d": 500,
      "v": 127
    },
    {
      "midi": 55,
      "hit": false,
      "t": 367000,
      "d": 500,
      "v": 127
    },
    {
      "midi": 60,
      "hit": false,
      "t": 367000,
      "d": 500,
      "v": 127
    },
    {
      "midi": 64,
      "hit": false,
      "t": 367000,
      "d": 500,
      "v": 127
    },
    {
      "midi": 76,
      "hit": false,
      "t": 367500,
      "d": 1000,
      "v": 127
    },
    {
      "midi": 48,
      "hit": false,
      "t": 367500,
      "d": 500,
      "v": 127
    },
    {
      "midi": 60,
      "hit": false,
      "t": 367500,
      "d": 500,
      "v": 127
    },
    {
      "midi": 55,
      "hit": false,
      "t": 368000,
      "d": 250,
      "v": 127
    },
    {
      "midi": 60,
      "hit": false,
      "t": 368000,
      "d": 250,
      "v": 127
    },
    {
      "midi": 64,
      "hit": false,
      "t": 368000,
      "d": 250,
      "v": 127
    },
    {
      "midi": 55,
      "hit": false,
      "t": 368250,
      "d": 250,
      "v": 127
    },
    {
      "midi": 60,
      "hit": false,
      "t": 368250,
      "d": 250,
      "v": 127
    },
    {
      "midi": 64,
      "hit": false,
      "t": 368250,
      "d": 250,
      "v": 127
    },
    {
      "midi": 77,
      "hit": false,
      "t": 368500,
      "d": 500,
      "v": 127
    },
    {
      "midi": 55,
      "hit": false,
      "t": 368500,
      "d": 500,
      "v": 127
    },
    {
      "midi": 60,
      "hit": false,
      "t": 368500,
      "d": 500,
      "v": 127
    },
    {
      "midi": 64,
      "hit": false,
      "t": 368500,
      "d": 500,
      "v": 127
    },
    {
      "midi": 76,
      "hit": false,
      "t": 369000,
      "d": 250,
      "v": 127
    },
    {
      "midi": 55,
      "hit": false,
      "t": 369000,
      "d": 500,
      "v": 127
    },
    {
      "midi": 60,
      "hit": false,
      "t": 369000,
      "d": 500,
      "v": 127
    },
    {
      "midi": 64,
      "hit": false,
      "t": 369000,
      "d": 500,
      "v": 127
    },
    {
      "midi": 73,
      "hit": false,
      "t": 369250,
      "d": 250,
      "v": 127
    },
    {
      "midi": 74,
      "hit": false,
      "t": 369250,
      "d": 250,
      "v": 127
    },
    {
      "midi": 74,
      "hit": false,
      "t": 369500,
      "d": 1000,
      "v": 127
    },
    {
      "midi": 43,
      "hit": false,
      "t": 369500,
      "d": 500,
      "v": 127
    },
    {
      "midi": 55,
      "hit": false,
      "t": 369500,
      "d": 500,
      "v": 127
    },
    {
      "midi": 55,
      "hit": false,
      "t": 370000,
      "d": 250,
      "v": 127
    },
    {
      "midi": 59,
      "hit": false,
      "t": 370000,
      "d": 250,
      "v": 127
    },
    {
      "midi": 62,
      "hit": false,
      "t": 370000,
      "d": 250,
      "v": 127
    },
    {
      "midi": 65,
      "hit": false,
      "t": 370000,
      "d": 250,
      "v": 127
    },
    {
      "midi": 55,
      "hit": false,
      "t": 370250,
      "d": 250,
      "v": 127
    },
    {
      "midi": 59,
      "hit": false,
      "t": 370250,
      "d": 250,
      "v": 127
    },
    {
      "midi": 62,
      "hit": false,
      "t": 370250,
      "d": 250,
      "v": 127
    },
    {
      "midi": 65,
      "hit": false,
      "t": 370250,
      "d": 250,
      "v": 127
    },
    {
      "midi": 74,
      "hit": false,
      "t": 370500,
      "d": 500,
      "v": 127
    },
    {
      "midi": 55,
      "hit": false,
      "t": 370500,
      "d": 500,
      "v": 127
    },
    {
      "midi": 59,
      "hit": false,
      "t": 370500,
      "d": 500,
      "v": 127
    },
    {
      "midi": 62,
      "hit": false,
      "t": 370500,
      "d": 500,
      "v": 127
    },
    {
      "midi": 65,
      "hit": false,
      "t": 370500,
      "d": 500,
      "v": 127
    },
    {
      "midi": 55,
      "hit": false,
      "t": 371000,
      "d": 500,
      "v": 127
    },
    {
      "midi": 59,
      "hit": false,
      "t": 371000,
      "d": 500,
      "v": 127
    },
    {
      "midi": 62,
      "hit": false,
      "t": 371000,
      "d": 500,
      "v": 127
    },
    {
      "midi": 65,
      "hit": false,
      "t": 371000,
      "d": 500,
      "v": 127
    },
    {
      "midi": 81,
      "hit": false,
      "t": 371500,
      "d": 1500,
      "v": 127
    },
    {
      "midi": 43,
      "hit": false,
      "t": 371500,
      "d": 500,
      "v": 127
    },
    {
      "midi": 55,
      "hit": false,
      "t": 371500,
      "d": 500,
      "v": 127
    },
    {
      "midi": 55,
      "hit": false,
      "t": 372000,
      "d": 250,
      "v": 127
    },
    {
      "midi": 59,
      "hit": false,
      "t": 372000,
      "d": 250,
      "v": 127
    },
    {
      "midi": 62,
      "hit": false,
      "t": 372000,
      "d": 250,
      "v": 127
    },
    {
      "midi": 65,
      "hit": false,
      "t": 372000,
      "d": 250,
      "v": 127
    },
    {
      "midi": 55,
      "hit": false,
      "t": 372250,
      "d": 250,
      "v": 127
    },
    {
      "midi": 59,
      "hit": false,
      "t": 372250,
      "d": 250,
      "v": 127
    },
    {
      "midi": 62,
      "hit": false,
      "t": 372250,
      "d": 250,
      "v": 127
    },
    {
      "midi": 65,
      "hit": false,
      "t": 372250,
      "d": 250,
      "v": 127
    },
    {
      "midi": 55,
      "hit": false,
      "t": 372500,
      "d": 500,
      "v": 127
    },
    {
      "midi": 59,
      "hit": false,
      "t": 372500,
      "d": 500,
      "v": 127
    },
    {
      "midi": 62,
      "hit": false,
      "t": 372500,
      "d": 500,
      "v": 127
    },
    {
      "midi": 65,
      "hit": false,
      "t": 372500,
      "d": 500,
      "v": 127
    },
    {
      "midi": 77,
      "hit": false,
      "t": 373000,
      "d": 250,
      "v": 127
    },
    {
      "midi": 79,
      "hit": false,
      "t": 373000,
      "d": 250,
      "v": 127
    },
    {
      "midi": 55,
      "hit": false,
      "t": 373000,
      "d": 500,
      "v": 127
    },
    {
      "midi": 59,
      "hit": false,
      "t": 373000,
      "d": 500,
      "v": 127
    },
    {
      "midi": 62,
      "hit": false,
      "t": 373000,
      "d": 500,
      "v": 127
    },
    {
      "midi": 65,
      "hit": false,
      "t": 373000,
      "d": 500,
      "v": 127
    },
    {
      "midi": 74,
      "hit": false,
      "t": 373250,
      "d": 250,
      "v": 127
    },
    {
      "midi": 76,
      "hit": false,
      "t": 373250,
      "d": 250,
      "v": 127
    },
    {
      "midi": 72,
      "hit": false,
      "t": 373500,
      "d": 1000,
      "v": 127
    },
    {
      "midi": 48,
      "hit": false,
      "t": 373500,
      "d": 500,
      "v": 127
    },
    {
      "midi": 60,
      "hit": false,
      "t": 373500,
      "d": 500,
      "v": 127
    },
    {
      "midi": 55,
      "hit": false,
      "t": 374000,
      "d": 250,
      "v": 127
    },
    {
      "midi": 60,
      "hit": false,
      "t": 374000,
      "d": 250,
      "v": 127
    },
    {
      "midi": 64,
      "hit": false,
      "t": 374000,
      "d": 250,
      "v": 127
    },
    {
      "midi": 55,
      "hit": false,
      "t": 374250,
      "d": 250,
      "v": 127
    },
    {
      "midi": 60,
      "hit": false,
      "t": 374250,
      "d": 250,
      "v": 127
    },
    {
      "midi": 64,
      "hit": false,
      "t": 374250,
      "d": 250,
      "v": 127
    },
    {
      "midi": 55,
      "hit": false,
      "t": 374500,
      "d": 500,
      "v": 127
    },
    {
      "midi": 60,
      "hit": false,
      "t": 374500,
      "d": 500,
      "v": 127
    },
    {
      "midi": 64,
      "hit": false,
      "t": 374500,
      "d": 500,
      "v": 127
    },
    {
      "midi": 55,
      "hit": false,
      "t": 375000,
      "d": 500,
      "v": 127
    },
    {
      "midi": 60,
      "hit": false,
      "t": 375000,
      "d": 500,
      "v": 127
    },
    {
      "midi": 64,
      "hit": false,
      "t": 375000,
      "d": 500,
      "v": 127
    },
    {
      "midi": 71,
      "hit": false,
      "t": 375250,
      "d": 250,
      "v": 127
    },
    {
      "midi": 74,
      "hit": false,
      "t": 375250,
      "d": 250,
      "v": 127
    },
    {
      "midi": 72,
      "hit": false,
      "t": 375500,
      "d": 1500,
      "v": 127
    },
    {
      "midi": 52,
      "hit": false,
      "t": 375500,
      "d": 500,
      "v": 127
    },
    {
      "midi": 55,
      "hit": false,
      "t": 376000,
      "d": 500,
      "v": 127
    },
    {
      "midi": 58,
      "hit": false,
      "t": 376000,
      "d": 500,
      "v": 127
    },
    {
      "midi": 60,
      "hit": false,
      "t": 376000,
      "d": 500,
      "v": 127
    },
    {
      "midi": 48,
      "hit": false,
      "t": 376500,
      "d": 500,
      "v": 127
    },
    {
      "midi": 71,
      "hit": false,
      "t": 377000,
      "d": 250,
      "v": 127
    },
    {
      "midi": 55,
      "hit": false,
      "t": 377000,
      "d": 500,
      "v": 127
    },
    {
      "midi": 58,
      "hit": false,
      "t": 377000,
      "d": 500,
      "v": 127
    },
    {
      "midi": 60,
      "hit": false,
      "t": 377000,
      "d": 500,
      "v": 127
    },
    {
      "midi": 70,
      "hit": false,
      "t": 377250,
      "d": 250,
      "v": 127
    },
    {
      "midi": 69,
      "hit": false,
      "t": 377500,
      "d": 1000,
      "v": 127
    },
    {
      "midi": 53,
      "hit": false,
      "t": 377500,
      "d": 500,
      "v": 127
    },
    {
      "midi": 57,
      "hit": false,
      "t": 378000,
      "d": 250,
      "v": 127
    },
    {
      "midi": 60,
      "hit": false,
      "t": 378000,
      "d": 250,
      "v": 127
    },
    {
      "midi": 65,
      "hit": false,
      "t": 378000,
      "d": 250,
      "v": 127
    },
    {
      "midi": 57,
      "hit": false,
      "t": 378250,
      "d": 250,
      "v": 127
    },
    {
      "midi": 60,
      "hit": false,
      "t": 378250,
      "d": 250,
      "v": 127
    },
    {
      "midi": 65,
      "hit": false,
      "t": 378250,
      "d": 250,
      "v": 127
    },
    {
      "midi": 57,
      "hit": false,
      "t": 378500,
      "d": 500,
      "v": 127
    },
    {
      "midi": 60,
      "hit": false,
      "t": 378500,
      "d": 500,
      "v": 127
    },
    {
      "midi": 65,
      "hit": false,
      "t": 378500,
      "d": 500,
      "v": 127
    },
    {
      "midi": 57,
      "hit": false,
      "t": 379000,
      "d": 500,
      "v": 127
    },
    {
      "midi": 60,
      "hit": false,
      "t": 379000,
      "d": 500,
      "v": 127
    },
    {
      "midi": 65,
      "hit": false,
      "t": 379000,
      "d": 500,
      "v": 127
    },
    {
      "midi": 75,
      "hit": false,
      "t": 379250,
      "d": 250,
      "v": 127
    },
    {
      "midi": 77,
      "hit": false,
      "t": 379250,
      "d": 250,
      "v": 127
    },
    {
      "midi": 76,
      "hit": false,
      "t": 379500,
      "d": 1500,
      "v": 127
    },
    {
      "midi": 56,
      "hit": false,
      "t": 379500,
      "d": 500,
      "v": 127
    },
    {
      "midi": 59,
      "hit": false,
      "t": 380000,
      "d": 500,
      "v": 127
    },
    {
      "midi": 62,
      "hit": false,
      "t": 380000,
      "d": 500,
      "v": 127
    },
    {
      "midi": 64,
      "hit": false,
      "t": 380000,
      "d": 500,
      "v": 127
    },
    {
      "midi": 52,
      "hit": false,
      "t": 380500,
      "d": 500,
      "v": 127
    },
    {
      "midi": 75,
      "hit": false,
      "t": 381000,
      "d": 250,
      "v": 127
    },
    {
      "midi": 59,
      "hit": false,
      "t": 381000,
      "d": 500,
      "v": 127
    },
    {
      "midi": 62,
      "hit": false,
      "t": 381000,
      "d": 500,
      "v": 127
    },
    {
      "midi": 64,
      "hit": false,
      "t": 381000,
      "d": 500,
      "v": 127
    },
    {
      "midi": 74,
      "hit": false,
      "t": 381250,
      "d": 250,
      "v": 127
    },
    {
      "midi": 72,
      "hit": false,
      "t": 381500,
      "d": 1000,
      "v": 127
    },
    {
      "midi": 57,
      "hit": false,
      "t": 381500,
      "d": 500,
      "v": 127
    },
    {
      "midi": 60,
      "hit": false,
      "t": 382000,
      "d": 250,
      "v": 127
    },
    {
      "midi": 64,
      "hit": false,
      "t": 382000,
      "d": 250,
      "v": 127
    },
    {
      "midi": 60,
      "hit": false,
      "t": 382250,
      "d": 250,
      "v": 127
    },
    {
      "midi": 64,
      "hit": false,
      "t": 382250,
      "d": 250,
      "v": 127
    },
    {
      "midi": 60,
      "hit": false,
      "t": 382500,
      "d": 500,
      "v": 127
    },
    {
      "midi": 64,
      "hit": false,
      "t": 382500,
      "d": 500,
      "v": 127
    },
    {
      "midi": 60,
      "hit": false,
      "t": 383000,
      "d": 500,
      "v": 127
    },
    {
      "midi": 64,
      "hit": false,
      "t": 383000,
      "d": 500,
      "v": 127
    },
    {
      "midi": 78,
      "hit": false,
      "t": 383250,
      "d": 250,
      "v": 127
    },
    {
      "midi": 81,
      "hit": false,
      "t": 383250,
      "d": 250,
      "v": 127
    },
    {
      "midi": 79,
      "hit": false,
      "t": 383500,
      "d": 1000,
      "v": 127
    },
    {
      "midi": 59,
      "hit": false,
      "t": 383500,
      "d": 500,
      "v": 127
    },
    {
      "midi": 62,
      "hit": false,
      "t": 384000,
      "d": 500,
      "v": 127
    },
    {
      "midi": 67,
      "hit": false,
      "t": 384000,
      "d": 500,
      "v": 127
    },
    {
      "midi": 79,
      "hit": false,
      "t": 384500,
      "d": 1000,
      "v": 127
    },
    {
      "midi": 55,
      "hit": false,
      "t": 384500,
      "d": 500,
      "v": 127
    },
    {
      "midi": 59,
      "hit": false,
      "t": 385000,
      "d": 500,
      "v": 127
    },
    {
      "midi": 67,
      "hit": false,
      "t": 385000,
      "d": 500,
      "v": 127
    },
    {
      "midi": 81,
      "hit": false,
      "t": 385500,
      "d": 1500,
      "v": 127
    },
    {
      "midi": 48,
      "hit": false,
      "t": 385500,
      "d": 500,
      "v": 127
    },
    {
      "midi": 60,
      "hit": false,
      "t": 385500,
      "d": 500,
      "v": 127
    },
    {
      "midi": 60,
      "hit": false,
      "t": 386000,
      "d": 250,
      "v": 127
    },
    {
      "midi": 64,
      "hit": false,
      "t": 386000,
      "d": 250,
      "v": 127
    },
    {
      "midi": 60,
      "hit": false,
      "t": 386250,
      "d": 250,
      "v": 127
    },
    {
      "midi": 64,
      "hit": false,
      "t": 386250,
      "d": 250,
      "v": 127
    },
    {
      "midi": 60,
      "hit": false,
      "t": 386500,
      "d": 500,
      "v": 127
    },
    {
      "midi": 64,
      "hit": false,
      "t": 386500,
      "d": 500,
      "v": 127
    },
    {
      "midi": 79,
      "hit": false,
      "t": 387000,
      "d": 250,
      "v": 127
    },
    {
      "midi": 60,
      "hit": false,
      "t": 387000,
      "d": 500,
      "v": 127
    },
    {
      "midi": 64,
      "hit": false,
      "t": 387000,
      "d": 500,
      "v": 127
    },
    {
      "midi": 77,
      "hit": false,
      "t": 387250,
      "d": 250,
      "v": 127
    },
    {
      "midi": 76,
      "hit": false,
      "t": 387500,
      "d": 1500,
      "v": 127
    },
    {
      "midi": 44,
      "hit": false,
      "t": 387500,
      "d": 500,
      "v": 127
    },
    {
      "midi": 56,
      "hit": false,
      "t": 387500,
      "d": 500,
      "v": 127
    },
    {
      "midi": 56,
      "hit": false,
      "t": 388000,
      "d": 250,
      "v": 127
    },
    {
      "midi": 60,
      "hit": false,
      "t": 388000,
      "d": 250,
      "v": 127
    },
    {
      "midi": 65,
      "hit": false,
      "t": 388000,
      "d": 250,
      "v": 127
    },
    {
      "midi": 56,
      "hit": false,
      "t": 388250,
      "d": 250,
      "v": 127
    },
    {
      "midi": 60,
      "hit": false,
      "t": 388250,
      "d": 250,
      "v": 127
    },
    {
      "midi": 65,
      "hit": false,
      "t": 388250,
      "d": 250,
      "v": 127
    },
    {
      "midi": 56,
      "hit": false,
      "t": 388500,
      "d": 500,
      "v": 127
    },
    {
      "midi": 60,
      "hit": false,
      "t": 388500,
      "d": 500,
      "v": 127
    },
    {
      "midi": 65,
      "hit": false,
      "t": 388500,
      "d": 500,
      "v": 127
    },
    {
      "midi": 74,
      "hit": false,
      "t": 389000,
      "d": 250,
      "v": 127
    },
    {
      "midi": 56,
      "hit": false,
      "t": 389000,
      "d": 500,
      "v": 127
    },
    {
      "midi": 60,
      "hit": false,
      "t": 389000,
      "d": 500,
      "v": 127
    },
    {
      "midi": 65,
      "hit": false,
      "t": 389000,
      "d": 500,
      "v": 127
    },
    {
      "midi": 76,
      "hit": false,
      "t": 389250,
      "d": 250,
      "v": 127
    },
    {
      "midi": 72,
      "hit": false,
      "t": 389500,
      "d": 1500,
      "v": 127
    },
    {
      "midi": 43,
      "hit": false,
      "t": 389500,
      "d": 500,
      "v": 127
    },
    {
      "midi": 55,
      "hit": false,
      "t": 389500,
      "d": 500,
      "v": 127
    },
    {
      "midi": 55,
      "hit": false,
      "t": 390000,
      "d": 250,
      "v": 127
    },
    {
      "midi": 60,
      "hit": false,
      "t": 390000,
      "d": 250,
      "v": 127
    },
    {
      "midi": 64,
      "hit": false,
      "t": 390000,
      "d": 250,
      "v": 127
    },
    {
      "midi": 55,
      "hit": false,
      "t": 390250,
      "d": 250,
      "v": 127
    },
    {
      "midi": 60,
      "hit": false,
      "t": 390250,
      "d": 250,
      "v": 127
    },
    {
      "midi": 64,
      "hit": false,
      "t": 390250,
      "d": 250,
      "v": 127
    },
    {
      "midi": 55,
      "hit": false,
      "t": 390500,
      "d": 500,
      "v": 127
    },
    {
      "midi": 60,
      "hit": false,
      "t": 390500,
      "d": 500,
      "v": 127
    },
    {
      "midi": 64,
      "hit": false,
      "t": 390500,
      "d": 500,
      "v": 127
    },
    {
      "midi": 66,
      "hit": false,
      "t": 391000,
      "d": 250,
      "v": 127
    },
    {
      "midi": 55,
      "hit": false,
      "t": 391000,
      "d": 500,
      "v": 127
    },
    {
      "midi": 60,
      "hit": false,
      "t": 391000,
      "d": 500,
      "v": 127
    },
    {
      "midi": 64,
      "hit": false,
      "t": 391000,
      "d": 500,
      "v": 127
    },
    {
      "midi": 67,
      "hit": false,
      "t": 391250,
      "d": 250,
      "v": 127
    },
    {
      "midi": 69,
      "hit": false,
      "t": 391500,
      "d": 1500,
      "v": 127
    },
    {
      "midi": 43,
      "hit": false,
      "t": 391500,
      "d": 500,
      "v": 127
    },
    {
      "midi": 55,
      "hit": false,
      "t": 391500,
      "d": 500,
      "v": 127
    },
    {
      "midi": 53,
      "hit": false,
      "t": 392000,
      "d": 250,
      "v": 127
    },
    {
      "midi": 55,
      "hit": false,
      "t": 392000,
      "d": 250,
      "v": 127
    },
    {
      "midi": 59,
      "hit": false,
      "t": 392000,
      "d": 250,
      "v": 127
    },
    {
      "midi": 53,
      "hit": false,
      "t": 392250,
      "d": 250,
      "v": 127
    },
    {
      "midi": 55,
      "hit": false,
      "t": 392250,
      "d": 250,
      "v": 127
    },
    {
      "midi": 59,
      "hit": false,
      "t": 392250,
      "d": 250,
      "v": 127
    },
    {
      "midi": 53,
      "hit": false,
      "t": 392500,
      "d": 500,
      "v": 127
    },
    {
      "midi": 55,
      "hit": false,
      "t": 392500,
      "d": 500,
      "v": 127
    },
    {
      "midi": 59,
      "hit": false,
      "t": 392500,
      "d": 500,
      "v": 127
    },
    {
      "midi": 67,
      "hit": false,
      "t": 393000,
      "d": 250,
      "v": 127
    },
    {
      "midi": 53,
      "hit": false,
      "t": 393000,
      "d": 500,
      "v": 127
    },
    {
      "midi": 55,
      "hit": false,
      "t": 393000,
      "d": 500,
      "v": 127
    },
    {
      "midi": 59,
      "hit": false,
      "t": 393000,
      "d": 500,
      "v": 127
    },
    {
      "midi": 65,
      "hit": false,
      "t": 393250,
      "d": 250,
      "v": 127
    },
    {
      "midi": 64,
      "hit": false,
      "t": 393500,
      "d": 1000,
      "v": 127
    },
    {
      "midi": 48,
      "hit": false,
      "t": 393500,
      "d": 500,
      "v": 127
    },
    {
      "midi": 52,
      "hit": false,
      "t": 394000,
      "d": 250,
      "v": 127
    },
    {
      "midi": 55,
      "hit": false,
      "t": 394000,
      "d": 250,
      "v": 127
    },
    {
      "midi": 60,
      "hit": false,
      "t": 394000,
      "d": 250,
      "v": 127
    },
    {
      "midi": 52,
      "hit": false,
      "t": 394250,
      "d": 250,
      "v": 127
    },
    {
      "midi": 55,
      "hit": false,
      "t": 394250,
      "d": 250,
      "v": 127
    },
    {
      "midi": 60,
      "hit": false,
      "t": 394250,
      "d": 250,
      "v": 127
    },
    {
      "midi": 52,
      "hit": false,
      "t": 394500,
      "d": 500,
      "v": 127
    },
    {
      "midi": 55,
      "hit": false,
      "t": 394500,
      "d": 500,
      "v": 127
    },
    {
      "midi": 60,
      "hit": false,
      "t": 394500,
      "d": 500,
      "v": 127
    },
    {
      "midi": 52,
      "hit": false,
      "t": 395000,
      "d": 500,
      "v": 127
    },
    {
      "midi": 55,
      "hit": false,
      "t": 395000,
      "d": 500,
      "v": 127
    },
    {
      "midi": 60,
      "hit": false,
      "t": 395000,
      "d": 500,
      "v": 127
    },
    {
      "midi": 71,
      "hit": false,
      "t": 395250,
      "d": 250,
      "v": 127
    },
    {
      "midi": 74,
      "hit": false,
      "t": 395250,
      "d": 250,
      "v": 127
    },
    {
      "midi": 72,
      "hit": false,
      "t": 395500,
      "d": 1500,
      "v": 127
    },
    {
      "midi": 52,
      "hit": false,
      "t": 395500,
      "d": 500,
      "v": 127
    },
    {
      "midi": 55,
      "hit": false,
      "t": 396000,
      "d": 500,
      "v": 127
    },
    {
      "midi": 58,
      "hit": false,
      "t": 396000,
      "d": 500,
      "v": 127
    },
    {
      "midi": 60,
      "hit": false,
      "t": 396000,
      "d": 500,
      "v": 127
    },
    {
      "midi": 48,
      "hit": false,
      "t": 396500,
      "d": 500,
      "v": 127
    },
    {
      "midi": 71,
      "hit": false,
      "t": 397000,
      "d": 250,
      "v": 127
    },
    {
      "midi": 55,
      "hit": false,
      "t": 397000,
      "d": 500,
      "v": 127
    },
    {
      "midi": 58,
      "hit": false,
      "t": 397000,
      "d": 500,
      "v": 127
    },
    {
      "midi": 60,
      "hit": false,
      "t": 397000,
      "d": 500,
      "v": 127
    },
    {
      "midi": 70,
      "hit": false,
      "t": 397250,
      "d": 250,
      "v": 127
    },
    {
      "midi": 69,
      "hit": false,
      "t": 397500,
      "d": 1000,
      "v": 127
    },
    {
      "midi": 53,
      "hit": false,
      "t": 397500,
      "d": 500,
      "v": 127
    },
    {
      "midi": 60,
      "hit": false,
      "t": 398000,
      "d": 500,
      "v": 127
    },
    {
      "midi": 65,
      "hit": false,
      "t": 398000,
      "d": 500,
      "v": 127
    },
    {
      "midi": 57,
      "hit": false,
      "t": 398500,
      "d": 500,
      "v": 127
    },
    {
      "midi": 60,
      "hit": false,
      "t": 399000,
      "d": 500,
      "v": 127
    },
    {
      "midi": 65,
      "hit": false,
      "t": 399000,
      "d": 500,
      "v": 127
    },
    {
      "midi": 75,
      "hit": false,
      "t": 399250,
      "d": 250,
      "v": 127
    },
    {
      "midi": 77,
      "hit": false,
      "t": 399250,
      "d": 250,
      "v": 127
    },
    {
      "midi": 76,
      "hit": false,
      "t": 399500,
      "d": 1500,
      "v": 127
    },
    {
      "midi": 56,
      "hit": false,
      "t": 399500,
      "d": 500,
      "v": 127
    },
    {
      "midi": 59,
      "hit": false,
      "t": 400000,
      "d": 500,
      "v": 127
    },
    {
      "midi": 64,
      "hit": false,
      "t": 400000,
      "d": 500,
      "v": 127
    },
    {
      "midi": 52,
      "hit": false,
      "t": 400500,
      "d": 500,
      "v": 127
    },
    {
      "midi": 75,
      "hit": false,
      "t": 401000,
      "d": 250,
      "v": 127
    },
    {
      "midi": 56,
      "hit": false,
      "t": 401000,
      "d": 500,
      "v": 127
    },
    {
      "midi": 59,
      "hit": false,
      "t": 401000,
      "d": 500,
      "v": 127
    },
    {
      "midi": 64,
      "hit": false,
      "t": 401000,
      "d": 500,
      "v": 127
    },
    {
      "midi": 74,
      "hit": false,
      "t": 401250,
      "d": 250,
      "v": 127
    },
    {
      "midi": 72,
      "hit": false,
      "t": 401500,
      "d": 1000,
      "v": 127
    },
    {
      "midi": 57,
      "hit": false,
      "t": 401500,
      "d": 500,
      "v": 127
    },
    {
      "midi": 64,
      "hit": false,
      "t": 402000,
      "d": 500,
      "v": 127
    },
    {
      "midi": 60,
      "hit": false,
      "t": 402500,
      "d": 500,
      "v": 127
    },
    {
      "midi": 64,
      "hit": false,
      "t": 403000,
      "d": 500,
      "v": 127
    },
    {
      "midi": 78,
      "hit": false,
      "t": 403250,
      "d": 250,
      "v": 127
    },
    {
      "midi": 81,
      "hit": false,
      "t": 403250,
      "d": 250,
      "v": 127
    },
    {
      "midi": 79,
      "hit": false,
      "t": 403500,
      "d": 1500,
      "v": 127
    },
    {
      "midi": 59,
      "hit": false,
      "t": 403500,
      "d": 500,
      "v": 127
    },
    {
      "midi": 62,
      "hit": false,
      "t": 404000,
      "d": 500,
      "v": 127
    },
    {
      "midi": 67,
      "hit": false,
      "t": 404000,
      "d": 500,
      "v": 127
    },
    {
      "midi": 55,
      "hit": false,
      "t": 404500,
      "d": 500,
      "v": 127
    },
    {
      "midi": 78,
      "hit": false,
      "t": 405000,
      "d": 250,
      "v": 127
    },
    {
      "midi": 59,
      "hit": false,
      "t": 405000,
      "d": 500,
      "v": 127
    },
    {
      "midi": 62,
      "hit": false,
      "t": 405000,
      "d": 500,
      "v": 127
    },
    {
      "midi": 67,
      "hit": false,
      "t": 405000,
      "d": 500,
      "v": 127
    },
    {
      "midi": 77,
      "hit": false,
      "t": 405250,
      "d": 250,
      "v": 127
    },
    {
      "midi": 76,
      "hit": false,
      "t": 405500,
      "d": 1000,
      "v": 127
    },
    {
      "midi": 48,
      "hit": false,
      "t": 405500,
      "d": 500,
      "v": 127
    },
    {
      "midi": 60,
      "hit": false,
      "t": 405500,
      "d": 500,
      "v": 127
    },
    {
      "midi": 60,
      "hit": false,
      "t": 406000,
      "d": 500,
      "v": 127
    },
    {
      "midi": 64,
      "hit": false,
      "t": 406000,
      "d": 500,
      "v": 127
    },
    {
      "midi": 79,
      "hit": false,
      "t": 406500,
      "d": 500,
      "v": 127
    },
    {
      "midi": 48,
      "hit": false,
      "t": 406500,
      "d": 500,
      "v": 127
    },
    {
      "midi": 60,
      "hit": false,
      "t": 406500,
      "d": 500,
      "v": 127
    },
    {
      "midi": 60,
      "hit": false,
      "t": 407000,
      "d": 500,
      "v": 127
    },
    {
      "midi": 64,
      "hit": false,
      "t": 407000,
      "d": 500,
      "v": 127
    },
    {
      "midi": 81,
      "hit": false,
      "t": 407500,
      "d": 1000,
      "v": 127
    },
    {
      "midi": 48,
      "hit": false,
      "t": 407500,
      "d": 500,
      "v": 127
    },
    {
      "midi": 60,
      "hit": false,
      "t": 407500,
      "d": 500,
      "v": 127
    },
    {
      "midi": 60,
      "hit": false,
      "t": 408000,
      "d": 500,
      "v": 127
    },
    {
      "midi": 65,
      "hit": false,
      "t": 408000,
      "d": 500,
      "v": 127
    },
    {
      "midi": 82,
      "hit": false,
      "t": 408500,
      "d": 1000,
      "v": 127
    },
    {
      "midi": 48,
      "hit": false,
      "t": 408500,
      "d": 500,
      "v": 127
    },
    {
      "midi": 60,
      "hit": false,
      "t": 408500,
      "d": 500,
      "v": 127
    },
    {
      "midi": 60,
      "hit": false,
      "t": 409000,
      "d": 500,
      "v": 127
    },
    {
      "midi": 67,
      "hit": false,
      "t": 409000,
      "d": 500,
      "v": 127
    },
    {
      "midi": 82,
      "hit": false,
      "t": 409500,
      "d": 1500,
      "v": 127
    },
    {
      "midi": 53,
      "hit": false,
      "t": 409500,
      "d": 1000,
      "v": 127
    },
    {
      "midi": 60,
      "hit": false,
      "t": 409500,
      "d": 1000,
      "v": 127
    },
    {
      "midi": 65,
      "hit": false,
      "t": 409500,
      "d": 1000,
      "v": 127
    },
    {
      "midi": 81,
      "hit": false,
      "t": 411000,
      "d": 500,
      "v": 127
    },
    {
      "midi": 79,
      "hit": false,
      "t": 411500,
      "d": 500,
      "v": 127
    },
    {
      "midi": 77,
      "hit": false,
      "t": 412000,
      "d": 500,
      "v": 127
    },
    {
      "midi": 76,
      "hit": false,
      "t": 412500,
      "d": 500,
      "v": 127
    },
    {
      "midi": 74,
      "hit": false,
      "t": 413000,
      "d": 500,
      "v": 127
    },
    {
      "midi": 79,
      "hit": false,
      "t": 413500,
      "d": 500,
      "v": 127
    },
    {
      "midi": 67,
      "hit": false,
      "t": 414000,
      "d": 250,
      "v": 127
    },
    {
      "midi": 72,
      "hit": false,
      "t": 414000,
      "d": 250,
      "v": 127
    },
    {
      "midi": 76,
      "hit": false,
      "t": 414000,
      "d": 250,
      "v": 127
    },
    {
      "midi": 43,
      "hit": false,
      "t": 414000,
      "d": 250,
      "v": 127
    },
    {
      "midi": 48,
      "hit": false,
      "t": 414000,
      "d": 250,
      "v": 127
    },
    {
      "midi": 52,
      "hit": false,
      "t": 414000,
      "d": 250,
      "v": 127
    },
    {
      "midi": 55,
      "hit": false,
      "t": 414000,
      "d": 250,
      "v": 127
    },
    {
      "midi": 67,
      "hit": false,
      "t": 414250,
      "d": 250,
      "v": 127
    },
    {
      "midi": 72,
      "hit": false,
      "t": 414250,
      "d": 250,
      "v": 127
    },
    {
      "midi": 76,
      "hit": false,
      "t": 414250,
      "d": 250,
      "v": 127
    },
    {
      "midi": 43,
      "hit": false,
      "t": 414250,
      "d": 250,
      "v": 127
    },
    {
      "midi": 48,
      "hit": false,
      "t": 414250,
      "d": 250,
      "v": 127
    },
    {
      "midi": 52,
      "hit": false,
      "t": 414250,
      "d": 250,
      "v": 127
    },
    {
      "midi": 55,
      "hit": false,
      "t": 414250,
      "d": 250,
      "v": 127
    },
    {
      "midi": 67,
      "hit": false,
      "t": 414500,
      "d": 500,
      "v": 127
    },
    {
      "midi": 72,
      "hit": false,
      "t": 414500,
      "d": 500,
      "v": 127
    },
    {
      "midi": 76,
      "hit": false,
      "t": 414500,
      "d": 500,
      "v": 127
    },
    {
      "midi": 43,
      "hit": false,
      "t": 414500,
      "d": 500,
      "v": 127
    },
    {
      "midi": 48,
      "hit": false,
      "t": 414500,
      "d": 500,
      "v": 127
    },
    {
      "midi": 52,
      "hit": false,
      "t": 414500,
      "d": 500,
      "v": 127
    },
    {
      "midi": 55,
      "hit": false,
      "t": 414500,
      "d": 500,
      "v": 127
    },
    {
      "midi": 67,
      "hit": false,
      "t": 415000,
      "d": 500,
      "v": 127
    },
    {
      "midi": 72,
      "hit": false,
      "t": 415000,
      "d": 500,
      "v": 127
    },
    {
      "midi": 76,
      "hit": false,
      "t": 415000,
      "d": 500,
      "v": 127
    },
    {
      "midi": 43,
      "hit": false,
      "t": 415000,
      "d": 500,
      "v": 127
    },
    {
      "midi": 48,
      "hit": false,
      "t": 415000,
      "d": 500,
      "v": 127
    },
    {
      "midi": 52,
      "hit": false,
      "t": 415000,
      "d": 500,
      "v": 127
    },
    {
      "midi": 55,
      "hit": false,
      "t": 415000,
      "d": 500,
      "v": 127
    },
    {
      "midi": 67,
      "hit": false,
      "t": 415500,
      "d": 500,
      "v": 127
    },
    {
      "midi": 72,
      "hit": false,
      "t": 415500,
      "d": 500,
      "v": 127
    },
    {
      "midi": 76,
      "hit": false,
      "t": 415500,
      "d": 500,
      "v": 127
    },
    {
      "midi": 43,
      "hit": false,
      "t": 415500,
      "d": 500,
      "v": 127
    },
    {
      "midi": 48,
      "hit": false,
      "t": 415500,
      "d": 500,
      "v": 127
    },
    {
      "midi": 52,
      "hit": false,
      "t": 415500,
      "d": 500,
      "v": 127
    },
    {
      "midi": 55,
      "hit": false,
      "t": 415500,
      "d": 500,
      "v": 127
    },
    {
      "midi": 67,
      "hit": false,
      "t": 416000,
      "d": 500,
      "v": 127
    },
    {
      "midi": 72,
      "hit": false,
      "t": 416000,
      "d": 500,
      "v": 127
    },
    {
      "midi": 76,
      "hit": false,
      "t": 416000,
      "d": 500,
      "v": 127
    },
    {
      "midi": 43,
      "hit": false,
      "t": 416000,
      "d": 500,
      "v": 127
    },
    {
      "midi": 48,
      "hit": false,
      "t": 416000,
      "d": 500,
      "v": 127
    },
    {
      "midi": 52,
      "hit": false,
      "t": 416000,
      "d": 500,
      "v": 127
    },
    {
      "midi": 55,
      "hit": false,
      "t": 416000,
      "d": 500,
      "v": 127
    },
    {
      "midi": 67,
      "hit": false,
      "t": 416500,
      "d": 500,
      "v": 127
    },
    {
      "midi": 72,
      "hit": false,
      "t": 416500,
      "d": 500,
      "v": 127
    },
    {
      "midi": 76,
      "hit": false,
      "t": 416500,
      "d": 500,
      "v": 127
    },
    {
      "midi": 43,
      "hit": false,
      "t": 416500,
      "d": 500,
      "v": 127
    },
    {
      "midi": 48,
      "hit": false,
      "t": 416500,
      "d": 500,
      "v": 127
    },
    {
      "midi": 52,
      "hit": false,
      "t": 416500,
      "d": 500,
      "v": 127
    },
    {
      "midi": 55,
      "hit": false,
      "t": 416500,
      "d": 500,
      "v": 127
    },
    {
      "midi": 67,
      "hit": false,
      "t": 417000,
      "d": 500,
      "v": 127
    },
    {
      "midi": 72,
      "hit": false,
      "t": 417000,
      "d": 500,
      "v": 127
    },
    {
      "midi": 76,
      "hit": false,
      "t": 417000,
      "d": 500,
      "v": 127
    },
    {
      "midi": 79,
      "hit": false,
      "t": 417000,
      "d": 500,
      "v": 127
    },
    {
      "midi": 43,
      "hit": false,
      "t": 417000,
      "d": 500,
      "v": 127
    },
    {
      "midi": 48,
      "hit": false,
      "t": 417000,
      "d": 500,
      "v": 127
    },
    {
      "midi": 52,
      "hit": false,
      "t": 417000,
      "d": 500,
      "v": 127
    },
    {
      "midi": 55,
      "hit": false,
      "t": 417000,
      "d": 500,
      "v": 127
    },
    {
      "midi": 77,
      "hit": false,
      "t": 417500,
      "d": 1500,
      "v": 127
    },
    {
      "midi": 81,
      "hit": false,
      "t": 417500,
      "d": 1500,
      "v": 127
    },
    {
      "midi": 43,
      "hit": false,
      "t": 417500,
      "d": 1000,
      "v": 127
    },
    {
      "midi": 47,
      "hit": false,
      "t": 417500,
      "d": 1000,
      "v": 127
    },
    {
      "midi": 50,
      "hit": false,
      "t": 417500,
      "d": 1000,
      "v": 127
    },
    {
      "midi": 55,
      "hit": false,
      "t": 417500,
      "d": 1000,
      "v": 127
    },
    {
      "midi": 79,
      "hit": false,
      "t": 420000,
      "d": 500,
      "v": 127
    },
    {
      "midi": 77,
      "hit": false,
      "t": 420500,
      "d": 500,
      "v": 127
    },
    {
      "midi": 76,
      "hit": false,
      "t": 421000,
      "d": 500,
      "v": 127
    },
    {
      "midi": 73,
      "hit": false,
      "t": 421500,
      "d": 250,
      "v": 127
    },
    {
      "midi": 74,
      "hit": false,
      "t": 421750,
      "d": 250,
      "v": 127
    },
    {
      "midi": 77,
      "hit": false,
      "t": 422000,
      "d": 1000,
      "v": 127
    },
    {
      "midi": 76,
      "hit": false,
      "t": 423500,
      "d": 500,
      "v": 127
    },
    {
      "midi": 72,
      "hit": false,
      "t": 424000,
      "d": 500,
      "v": 127
    },
    {
      "midi": 36,
      "hit": false,
      "t": 424000,
      "d": 500,
      "v": 127
    },
    {
      "midi": 48,
      "hit": false,
      "t": 424000,
      "d": 500,
      "v": 127
    },
    {
      "midi": 72,
      "hit": false,
      "t": 424500,
      "d": 1000,
      "v": 127
    },
    {
      "midi": 75,
      "hit": false,
      "t": 424500,
      "d": 1000,
      "v": 127
    },
    {
      "midi": 79,
      "hit": false,
      "t": 424500,
      "d": 1000,
      "v": 127
    },
    {
      "midi": 84,
      "hit": false,
      "t": 424500,
      "d": 1000,
      "v": 127
    },
    {
      "midi": 38,
      "hit": false,
      "t": 424500,
      "d": 500,
      "v": 127
    },
    {
      "midi": 50,
      "hit": false,
      "t": 424500,
      "d": 500,
      "v": 127
    },
    {
      "midi": 39,
      "hit": false,
      "t": 425000,
      "d": 500,
      "v": 127
    },
    {
      "midi": 51,
      "hit": false,
      "t": 425000,
      "d": 500,
      "v": 127
    },
    {
      "midi": 72,
      "hit": false,
      "t": 425500,
      "d": 1000,
      "v": 127
    },
    {
      "midi": 75,
      "hit": false,
      "t": 425500,
      "d": 1000,
      "v": 127
    },
    {
      "midi": 79,
      "hit": false,
      "t": 425500,
      "d": 1000,
      "v": 127
    },
    {
      "midi": 84,
      "hit": false,
      "t": 425500,
      "d": 1000,
      "v": 127
    },
    {
      "midi": 41,
      "hit": false,
      "t": 425500,
      "d": 500,
      "v": 127
    },
    {
      "midi": 53,
      "hit": false,
      "t": 425500,
      "d": 500,
      "v": 127
    },
    {
      "midi": 43,
      "hit": false,
      "t": 426000,
      "d": 500,
      "v": 127
    },
    {
      "midi": 55,
      "hit": false,
      "t": 426000,
      "d": 500,
      "v": 127
    },
    {
      "midi": 72,
      "hit": false,
      "t": 426500,
      "d": 500,
      "v": 127
    },
    {
      "midi": 75,
      "hit": false,
      "t": 426500,
      "d": 500,
      "v": 127
    },
    {
      "midi": 79,
      "hit": false,
      "t": 426500,
      "d": 500,
      "v": 127
    },
    {
      "midi": 84,
      "hit": false,
      "t": 426500,
      "d": 500,
      "v": 127
    },
    {
      "midi": 45,
      "hit": false,
      "t": 426500,
      "d": 500,
      "v": 127
    },
    {
      "midi": 57,
      "hit": false,
      "t": 426500,
      "d": 500,
      "v": 127
    },
    {
      "midi": 47,
      "hit": false,
      "t": 427000,
      "d": 500,
      "v": 127
    },
    {
      "midi": 59,
      "hit": false,
      "t": 427000,
      "d": 500,
      "v": 127
    },
    {
      "midi": 72,
      "hit": false,
      "t": 427500,
      "d": 500,
      "v": 127
    },
    {
      "midi": 75,
      "hit": false,
      "t": 427500,
      "d": 500,
      "v": 127
    },
    {
      "midi": 79,
      "hit": false,
      "t": 427500,
      "d": 500,
      "v": 127
    },
    {
      "midi": 84,
      "hit": false,
      "t": 427500,
      "d": 500,
      "v": 127
    },
    {
      "midi": 48,
      "hit": false,
      "t": 427500,
      "d": 500,
      "v": 127
    },
    {
      "midi": 60,
      "hit": false,
      "t": 427500,
      "d": 500,
      "v": 127
    },
    {
      "midi": 84,
      "hit": false,
      "t": 428000,
      "d": 250,
      "v": 127
    },
    {
      "midi": 44,
      "hit": false,
      "t": 428000,
      "d": 1000,
      "v": 127
    },
    {
      "midi": 48,
      "hit": false,
      "t": 428000,
      "d": 1000,
      "v": 127
    },
    {
      "midi": 53,
      "hit": false,
      "t": 428000,
      "d": 1000,
      "v": 127
    },
    {
      "midi": 83,
      "hit": false,
      "t": 428250,
      "d": 250,
      "v": 127
    },
    {
      "midi": 84,
      "hit": false,
      "t": 428500,
      "d": 250,
      "v": 127
    },
    {
      "midi": 83,
      "hit": false,
      "t": 428750,
      "d": 250,
      "v": 127
    },
    {
      "midi": 84,
      "hit": false,
      "t": 429000,
      "d": 250,
      "v": 127
    },
    {
      "midi": 41,
      "hit": false,
      "t": 429000,
      "d": 1000,
      "v": 127
    },
    {
      "midi": 44,
      "hit": false,
      "t": 429000,
      "d": 1000,
      "v": 127
    },
    {
      "midi": 48,
      "hit": false,
      "t": 429000,
      "d": 1000,
      "v": 127
    },
    {
      "midi": 53,
      "hit": false,
      "t": 429000,
      "d": 1000,
      "v": 127
    },
    {
      "midi": 80,
      "hit": false,
      "t": 429250,
      "d": 250,
      "v": 127
    },
    {
      "midi": 77,
      "hit": false,
      "t": 429500,
      "d": 250,
      "v": 127
    },
    {
      "midi": 74,
      "hit": false,
      "t": 429750,
      "d": 250,
      "v": 127
    },
    {
      "midi": 72,
      "hit": false,
      "t": 430000,
      "d": 250,
      "v": 127
    },
    {
      "midi": 43,
      "hit": false,
      "t": 430000,
      "d": 1000,
      "v": 127
    },
    {
      "midi": 47,
      "hit": false,
      "t": 430000,
      "d": 1000,
      "v": 127
    },
    {
      "midi": 50,
      "hit": false,
      "t": 430000,
      "d": 1000,
      "v": 127
    },
    {
      "midi": 71,
      "hit": false,
      "t": 430250,
      "d": 250,
      "v": 127
    },
    {
      "midi": 74,
      "hit": false,
      "t": 430500,
      "d": 250,
      "v": 127
    },
    {
      "midi": 77,
      "hit": false,
      "t": 430750,
      "d": 250,
      "v": 127
    },
    {
      "midi": 80,
      "hit": false,
      "t": 431000,
      "d": 250,
      "v": 127
    },
    {
      "midi": 43,
      "hit": false,
      "t": 431000,
      "d": 1000,
      "v": 127
    },
    {
      "midi": 47,
      "hit": false,
      "t": 431000,
      "d": 1000,
      "v": 127
    },
    {
      "midi": 50,
      "hit": false,
      "t": 431000,
      "d": 1000,
      "v": 127
    },
    {
      "midi": 79,
      "hit": false,
      "t": 431250,
      "d": 250,
      "v": 127
    },
    {
      "midi": 80,
      "hit": false,
      "t": 431500,
      "d": 250,
      "v": 127
    },
    {
      "midi": 79,
      "hit": false,
      "t": 431750,
      "d": 250,
      "v": 127
    },
    {
      "midi": 72,
      "hit": false,
      "t": 432000,
      "d": 500,
      "v": 127
    },
    {
      "midi": 75,
      "hit": false,
      "t": 432000,
      "d": 500,
      "v": 127
    },
    {
      "midi": 79,
      "hit": false,
      "t": 432000,
      "d": 500,
      "v": 127
    },
    {
      "midi": 84,
      "hit": false,
      "t": 432000,
      "d": 500,
      "v": 127
    },
    {
      "midi": 36,
      "hit": false,
      "t": 432000,
      "d": 500,
      "v": 127
    },
    {
      "midi": 48,
      "hit": false,
      "t": 432000,
      "d": 500,
      "v": 127
    },
    {
      "midi": 72,
      "hit": false,
      "t": 432500,
      "d": 1000,
      "v": 127
    },
    {
      "midi": 75,
      "hit": false,
      "t": 432500,
      "d": 1000,
      "v": 127
    },
    {
      "midi": 79,
      "hit": false,
      "t": 432500,
      "d": 1000,
      "v": 127
    },
    {
      "midi": 84,
      "hit": false,
      "t": 432500,
      "d": 1000,
      "v": 127
    },
    {
      "midi": 38,
      "hit": false,
      "t": 432500,
      "d": 500,
      "v": 127
    },
    {
      "midi": 50,
      "hit": false,
      "t": 432500,
      "d": 500,
      "v": 127
    },
    {
      "midi": 39,
      "hit": false,
      "t": 433000,
      "d": 500,
      "v": 127
    },
    {
      "midi": 51,
      "hit": false,
      "t": 433000,
      "d": 500,
      "v": 127
    },
    {
      "midi": 72,
      "hit": false,
      "t": 433500,
      "d": 1000,
      "v": 127
    },
    {
      "midi": 75,
      "hit": false,
      "t": 433500,
      "d": 1000,
      "v": 127
    },
    {
      "midi": 79,
      "hit": false,
      "t": 433500,
      "d": 1000,
      "v": 127
    },
    {
      "midi": 84,
      "hit": false,
      "t": 433500,
      "d": 1000,
      "v": 127
    },
    {
      "midi": 41,
      "hit": false,
      "t": 433500,
      "d": 500,
      "v": 127
    },
    {
      "midi": 53,
      "hit": false,
      "t": 433500,
      "d": 500,
      "v": 127
    },
    {
      "midi": 43,
      "hit": false,
      "t": 434000,
      "d": 500,
      "v": 127
    },
    {
      "midi": 55,
      "hit": false,
      "t": 434000,
      "d": 500,
      "v": 127
    },
    {
      "midi": 72,
      "hit": false,
      "t": 434500,
      "d": 500,
      "v": 127
    },
    {
      "midi": 75,
      "hit": false,
      "t": 434500,
      "d": 500,
      "v": 127
    },
    {
      "midi": 79,
      "hit": false,
      "t": 434500,
      "d": 500,
      "v": 127
    },
    {
      "midi": 84,
      "hit": false,
      "t": 434500,
      "d": 500,
      "v": 127
    },
    {
      "midi": 45,
      "hit": false,
      "t": 434500,
      "d": 500,
      "v": 127
    },
    {
      "midi": 57,
      "hit": false,
      "t": 434500,
      "d": 500,
      "v": 127
    },
    {
      "midi": 47,
      "hit": false,
      "t": 435000,
      "d": 500,
      "v": 127
    },
    {
      "midi": 59,
      "hit": false,
      "t": 435000,
      "d": 500,
      "v": 127
    },
    {
      "midi": 72,
      "hit": false,
      "t": 435500,
      "d": 500,
      "v": 127
    },
    {
      "midi": 75,
      "hit": false,
      "t": 435500,
      "d": 500,
      "v": 127
    },
    {
      "midi": 79,
      "hit": false,
      "t": 435500,
      "d": 500,
      "v": 127
    },
    {
      "midi": 84,
      "hit": false,
      "t": 435500,
      "d": 500,
      "v": 127
    },
    {
      "midi": 48,
      "hit": false,
      "t": 435500,
      "d": 500,
      "v": 127
    },
    {
      "midi": 60,
      "hit": false,
      "t": 435500,
      "d": 500,
      "v": 127
    },
    {
      "midi": 84,
      "hit": false,
      "t": 436000,
      "d": 250,
      "v": 127
    },
    {
      "midi": 44,
      "hit": false,
      "t": 436000,
      "d": 1000,
      "v": 127
    },
    {
      "midi": 48,
      "hit": false,
      "t": 436000,
      "d": 1000,
      "v": 127
    },
    {
      "midi": 53,
      "hit": false,
      "t": 436000,
      "d": 1000,
      "v": 127
    },
    {
      "midi": 83,
      "hit": false,
      "t": 436250,
      "d": 250,
      "v": 127
    },
    {
      "midi": 84,
      "hit": false,
      "t": 436500,
      "d": 250,
      "v": 127
    },
    {
      "midi": 83,
      "hit": false,
      "t": 436750,
      "d": 250,
      "v": 127
    },
    {
      "midi": 84,
      "hit": false,
      "t": 437000,
      "d": 250,
      "v": 127
    },
    {
      "midi": 41,
      "hit": false,
      "t": 437000,
      "d": 1000,
      "v": 127
    },
    {
      "midi": 44,
      "hit": false,
      "t": 437000,
      "d": 1000,
      "v": 127
    },
    {
      "midi": 48,
      "hit": false,
      "t": 437000,
      "d": 1000,
      "v": 127
    },
    {
      "midi": 53,
      "hit": false,
      "t": 437000,
      "d": 1000,
      "v": 127
    },
    {
      "midi": 80,
      "hit": false,
      "t": 437250,
      "d": 250,
      "v": 127
    },
    {
      "midi": 77,
      "hit": false,
      "t": 437500,
      "d": 250,
      "v": 127
    },
    {
      "midi": 74,
      "hit": false,
      "t": 437750,
      "d": 250,
      "v": 127
    },
    {
      "midi": 72,
      "hit": false,
      "t": 438000,
      "d": 250,
      "v": 127
    },
    {
      "midi": 43,
      "hit": false,
      "t": 438000,
      "d": 1000,
      "v": 127
    },
    {
      "midi": 47,
      "hit": false,
      "t": 438000,
      "d": 1000,
      "v": 127
    },
    {
      "midi": 50,
      "hit": false,
      "t": 438000,
      "d": 1000,
      "v": 127
    },
    {
      "midi": 71,
      "hit": false,
      "t": 438250,
      "d": 250,
      "v": 127
    },
    {
      "midi": 74,
      "hit": false,
      "t": 438500,
      "d": 250,
      "v": 127
    },
    {
      "midi": 77,
      "hit": false,
      "t": 438750,
      "d": 250,
      "v": 127
    },
    {
      "midi": 80,
      "hit": false,
      "t": 439000,
      "d": 250,
      "v": 127
    },
    {
      "midi": 43,
      "hit": false,
      "t": 439000,
      "d": 1000,
      "v": 127
    },
    {
      "midi": 47,
      "hit": false,
      "t": 439000,
      "d": 1000,
      "v": 127
    },
    {
      "midi": 50,
      "hit": false,
      "t": 439000,
      "d": 1000,
      "v": 127
    },
    {
      "midi": 79,
      "hit": false,
      "t": 439250,
      "d": 250,
      "v": 127
    },
    {
      "midi": 80,
      "hit": false,
      "t": 439500,
      "d": 250,
      "v": 127
    },
    {
      "midi": 79,
      "hit": false,
      "t": 439750,
      "d": 250,
      "v": 127
    },
    {
      "midi": 78,
      "hit": false,
      "t": 440000,
      "d": 1000,
      "v": 127
    },
    {
      "midi": 45,
      "hit": false,
      "t": 440000,
      "d": 250,
      "v": 127
    },
    {
      "midi": 48,
      "hit": false,
      "t": 440000,
      "d": 250,
      "v": 127
    },
    {
      "midi": 51,
      "hit": false,
      "t": 440000,
      "d": 250,
      "v": 127
    },
    {
      "midi": 54,
      "hit": false,
      "t": 440250,
      "d": 250,
      "v": 127
    },
    {
      "midi": 45,
      "hit": false,
      "t": 440500,
      "d": 250,
      "v": 127
    },
    {
      "midi": 48,
      "hit": false,
      "t": 440500,
      "d": 250,
      "v": 127
    },
    {
      "midi": 51,
      "hit": false,
      "t": 440500,
      "d": 250,
      "v": 127
    },
    {
      "midi": 54,
      "hit": false,
      "t": 440750,
      "d": 250,
      "v": 127
    },
    {
      "midi": 45,
      "hit": false,
      "t": 441000,
      "d": 250,
      "v": 127
    },
    {
      "midi": 48,
      "hit": false,
      "t": 441000,
      "d": 250,
      "v": 127
    },
    {
      "midi": 51,
      "hit": false,
      "t": 441000,
      "d": 250,
      "v": 127
    },
    {
      "midi": 79,
      "hit": false,
      "t": 441250,
      "d": 250,
      "v": 127
    },
    {
      "midi": 54,
      "hit": false,
      "t": 441250,
      "d": 250,
      "v": 127
    },
    {
      "midi": 81,
      "hit": false,
      "t": 441500,
      "d": 250,
      "v": 127
    },
    {
      "midi": 45,
      "hit": false,
      "t": 441500,
      "d": 250,
      "v": 127
    },
    {
      "midi": 48,
      "hit": false,
      "t": 441500,
      "d": 250,
      "v": 127
    },
    {
      "midi": 51,
      "hit": false,
      "t": 441500,
      "d": 250,
      "v": 127
    },
    {
      "midi": 83,
      "hit": false,
      "t": 441750,
      "d": 250,
      "v": 127
    },
    {
      "midi": 54,
      "hit": false,
      "t": 441750,
      "d": 250,
      "v": 127
    },
    {
      "midi": 84,
      "hit": false,
      "t": 442000,
      "d": 1000,
      "v": 127
    },
    {
      "midi": 45,
      "hit": false,
      "t": 442000,
      "d": 250,
      "v": 127
    },
    {
      "midi": 48,
      "hit": false,
      "t": 442000,
      "d": 250,
      "v": 127
    },
    {
      "midi": 51,
      "hit": false,
      "t": 442000,
      "d": 250,
      "v": 127
    },
    {
      "midi": 54,
      "hit": false,
      "t": 442250,
      "d": 250,
      "v": 127
    },
    {
      "midi": 45,
      "hit": false,
      "t": 442500,
      "d": 250,
      "v": 127
    },
    {
      "midi": 48,
      "hit": false,
      "t": 442500,
      "d": 250,
      "v": 127
    },
    {
      "midi": 51,
      "hit": false,
      "t": 442500,
      "d": 250,
      "v": 127
    },
    {
      "midi": 54,
      "hit": false,
      "t": 442750,
      "d": 250,
      "v": 127
    },
    {
      "midi": 45,
      "hit": false,
      "t": 443000,
      "d": 250,
      "v": 127
    },
    {
      "midi": 48,
      "hit": false,
      "t": 443000,
      "d": 250,
      "v": 127
    },
    {
      "midi": 51,
      "hit": false,
      "t": 443000,
      "d": 250,
      "v": 127
    },
    {
      "midi": 83,
      "hit": false,
      "t": 443250,
      "d": 250,
      "v": 127
    },
    {
      "midi": 54,
      "hit": false,
      "t": 443250,
      "d": 250,
      "v": 127
    },
    {
      "midi": 84,
      "hit": false,
      "t": 443500,
      "d": 250,
      "v": 127
    },
    {
      "midi": 45,
      "hit": false,
      "t": 443500,
      "d": 250,
      "v": 127
    },
    {
      "midi": 48,
      "hit": false,
      "t": 443500,
      "d": 250,
      "v": 127
    },
    {
      "midi": 51,
      "hit": false,
      "t": 443500,
      "d": 250,
      "v": 127
    },
    {
      "midi": 86,
      "hit": false,
      "t": 443750,
      "d": 250,
      "v": 127
    },
    {
      "midi": 54,
      "hit": false,
      "t": 443750,
      "d": 250,
      "v": 127
    },
    {
      "midi": 87,
      "hit": false,
      "t": 444000,
      "d": 250,
      "v": 127
    },
    {
      "midi": 45,
      "hit": false,
      "t": 444000,
      "d": 250,
      "v": 127
    },
    {
      "midi": 48,
      "hit": false,
      "t": 444000,
      "d": 250,
      "v": 127
    },
    {
      "midi": 51,
      "hit": false,
      "t": 444000,
      "d": 250,
      "v": 127
    },
    {
      "midi": 83,
      "hit": false,
      "t": 444250,
      "d": 250,
      "v": 127
    },
    {
      "midi": 54,
      "hit": false,
      "t": 444250,
      "d": 250,
      "v": 127
    },
    {
      "midi": 84,
      "hit": false,
      "t": 444500,
      "d": 250,
      "v": 127
    },
    {
      "midi": 45,
      "hit": false,
      "t": 444500,
      "d": 250,
      "v": 127
    },
    {
      "midi": 48,
      "hit": false,
      "t": 444500,
      "d": 250,
      "v": 127
    },
    {
      "midi": 51,
      "hit": false,
      "t": 444500,
      "d": 250,
      "v": 127
    },
    {
      "midi": 86,
      "hit": false,
      "t": 444750,
      "d": 250,
      "v": 127
    },
    {
      "midi": 54,
      "hit": false,
      "t": 444750,
      "d": 250,
      "v": 127
    },
    {
      "midi": 87,
      "hit": false,
      "t": 445000,
      "d": 250,
      "v": 127
    },
    {
      "midi": 45,
      "hit": false,
      "t": 445000,
      "d": 250,
      "v": 127
    },
    {
      "midi": 48,
      "hit": false,
      "t": 445000,
      "d": 250,
      "v": 127
    },
    {
      "midi": 51,
      "hit": false,
      "t": 445000,
      "d": 250,
      "v": 127
    },
    {
      "midi": 83,
      "hit": false,
      "t": 445250,
      "d": 250,
      "v": 127
    },
    {
      "midi": 54,
      "hit": false,
      "t": 445250,
      "d": 250,
      "v": 127
    },
    {
      "midi": 84,
      "hit": false,
      "t": 445500,
      "d": 250,
      "v": 127
    },
    {
      "midi": 45,
      "hit": false,
      "t": 445500,
      "d": 250,
      "v": 127
    },
    {
      "midi": 48,
      "hit": false,
      "t": 445500,
      "d": 250,
      "v": 127
    },
    {
      "midi": 51,
      "hit": false,
      "t": 445500,
      "d": 250,
      "v": 127
    },
    {
      "midi": 86,
      "hit": false,
      "t": 445750,
      "d": 250,
      "v": 127
    },
    {
      "midi": 54,
      "hit": false,
      "t": 445750,
      "d": 250,
      "v": 127
    },
    {
      "midi": 87,
      "hit": false,
      "t": 446000,
      "d": 250,
      "v": 127
    },
    {
      "midi": 45,
      "hit": false,
      "t": 446000,
      "d": 250,
      "v": 127
    },
    {
      "midi": 48,
      "hit": false,
      "t": 446000,
      "d": 250,
      "v": 127
    },
    {
      "midi": 51,
      "hit": false,
      "t": 446000,
      "d": 250,
      "v": 127
    },
    {
      "midi": 83,
      "hit": false,
      "t": 446250,
      "d": 250,
      "v": 127
    },
    {
      "midi": 54,
      "hit": false,
      "t": 446250,
      "d": 250,
      "v": 127
    },
    {
      "midi": 84,
      "hit": false,
      "t": 446500,
      "d": 250,
      "v": 127
    },
    {
      "midi": 45,
      "hit": false,
      "t": 446500,
      "d": 250,
      "v": 127
    },
    {
      "midi": 48,
      "hit": false,
      "t": 446500,
      "d": 250,
      "v": 127
    },
    {
      "midi": 51,
      "hit": false,
      "t": 446500,
      "d": 250,
      "v": 127
    },
    {
      "midi": 86,
      "hit": false,
      "t": 446750,
      "d": 250,
      "v": 127
    },
    {
      "midi": 54,
      "hit": false,
      "t": 446750,
      "d": 250,
      "v": 127
    },
    {
      "midi": 87,
      "hit": false,
      "t": 447000,
      "d": 250,
      "v": 127
    },
    {
      "midi": 45,
      "hit": false,
      "t": 447000,
      "d": 250,
      "v": 127
    },
    {
      "midi": 48,
      "hit": false,
      "t": 447000,
      "d": 250,
      "v": 127
    },
    {
      "midi": 51,
      "hit": false,
      "t": 447000,
      "d": 250,
      "v": 127
    },
    {
      "midi": 88,
      "hit": false,
      "t": 447250,
      "d": 250,
      "v": 127
    },
    {
      "midi": 54,
      "hit": false,
      "t": 447250,
      "d": 250,
      "v": 127
    },
    {
      "midi": 89,
      "hit": false,
      "t": 447500,
      "d": 250,
      "v": 127
    },
    {
      "midi": 45,
      "hit": false,
      "t": 447500,
      "d": 250,
      "v": 127
    },
    {
      "midi": 48,
      "hit": false,
      "t": 447500,
      "d": 250,
      "v": 127
    },
    {
      "midi": 51,
      "hit": false,
      "t": 447500,
      "d": 250,
      "v": 127
    },
    {
      "midi": 90,
      "hit": false,
      "t": 447750,
      "d": 250,
      "v": 127
    },
    {
      "midi": 54,
      "hit": false,
      "t": 447750,
      "d": 250,
      "v": 127
    },
    {
      "midi": 91,
      "hit": false,
      "t": 448000,
      "d": 1000,
      "v": 127
    },
    {
      "midi": 43,
      "hit": false,
      "t": 448000,
      "d": 1000,
      "v": 127
    },
    {
      "midi": 48,
      "hit": false,
      "t": 448000,
      "d": 1000,
      "v": 127
    },
    {
      "midi": 51,
      "hit": false,
      "t": 448000,
      "d": 1000,
      "v": 127
    },
    {
      "midi": 55,
      "hit": false,
      "t": 448000,
      "d": 1000,
      "v": 127
    },
    {
      "midi": 79,
      "hit": false,
      "t": 449000,
      "d": 1000,
      "v": 127
    },
    {
      "midi": 84,
      "hit": false,
      "t": 449000,
      "d": 1000,
      "v": 127
    },
    {
      "midi": 87,
      "hit": false,
      "t": 449000,
      "d": 1000,
      "v": 127
    },
    {
      "midi": 91,
      "hit": false,
      "t": 449000,
      "d": 1000,
      "v": 127
    },
    {
      "midi": 43,
      "hit": false,
      "t": 449000,
      "d": 1000,
      "v": 127
    },
    {
      "midi": 48,
      "hit": false,
      "t": 449000,
      "d": 1000,
      "v": 127
    },
    {
      "midi": 51,
      "hit": false,
      "t": 449000,
      "d": 1000,
      "v": 127
    },
    {
      "midi": 55,
      "hit": false,
      "t": 449000,
      "d": 1000,
      "v": 127
    },
    {
      "midi": 79,
      "hit": false,
      "t": 450000,
      "d": 1000,
      "v": 127
    },
    {
      "midi": 84,
      "hit": false,
      "t": 450000,
      "d": 1000,
      "v": 127
    },
    {
      "midi": 87,
      "hit": false,
      "t": 450000,
      "d": 1000,
      "v": 127
    },
    {
      "midi": 91,
      "hit": false,
      "t": 450000,
      "d": 1000,
      "v": 127
    },
    {
      "midi": 43,
      "hit": false,
      "t": 450000,
      "d": 1000,
      "v": 127
    },
    {
      "midi": 48,
      "hit": false,
      "t": 450000,
      "d": 1000,
      "v": 127
    },
    {
      "midi": 51,
      "hit": false,
      "t": 450000,
      "d": 1000,
      "v": 127
    },
    {
      "midi": 55,
      "hit": false,
      "t": 450000,
      "d": 1000,
      "v": 127
    },
    {
      "midi": 79,
      "hit": false,
      "t": 451000,
      "d": 1000,
      "v": 127
    },
    {
      "midi": 84,
      "hit": false,
      "t": 451000,
      "d": 1000,
      "v": 127
    },
    {
      "midi": 87,
      "hit": false,
      "t": 451000,
      "d": 1000,
      "v": 127
    },
    {
      "midi": 91,
      "hit": false,
      "t": 451000,
      "d": 1000,
      "v": 127
    },
    {
      "midi": 43,
      "hit": false,
      "t": 451000,
      "d": 1000,
      "v": 127
    },
    {
      "midi": 48,
      "hit": false,
      "t": 451000,
      "d": 1000,
      "v": 127
    },
    {
      "midi": 51,
      "hit": false,
      "t": 451000,
      "d": 1000,
      "v": 127
    },
    {
      "midi": 55,
      "hit": false,
      "t": 451000,
      "d": 1000,
      "v": 127
    },
    {
      "midi": 79,
      "hit": false,
      "t": 452000,
      "d": 1000,
      "v": 127
    },
    {
      "midi": 84,
      "hit": false,
      "t": 452000,
      "d": 1000,
      "v": 127
    },
    {
      "midi": 87,
      "hit": false,
      "t": 452000,
      "d": 1000,
      "v": 127
    },
    {
      "midi": 91,
      "hit": false,
      "t": 452000,
      "d": 1000,
      "v": 127
    },
    {
      "midi": 43,
      "hit": false,
      "t": 452000,
      "d": 1000,
      "v": 127
    },
    {
      "midi": 48,
      "hit": false,
      "t": 452000,
      "d": 1000,
      "v": 127
    },
    {
      "midi": 51,
      "hit": false,
      "t": 452000,
      "d": 1000,
      "v": 127
    },
    {
      "midi": 55,
      "hit": false,
      "t": 452000,
      "d": 1000,
      "v": 127
    },
    {
      "midi": 67,
      "hit": false,
      "t": 454000,
      "d": 1000,
      "v": 127
    },
    {
      "midi": 71,
      "hit": false,
      "t": 454000,
      "d": 1000,
      "v": 127
    },
    {
      "midi": 74,
      "hit": false,
      "t": 454000,
      "d": 1000,
      "v": 127
    },
    {
      "midi": 79,
      "hit": false,
      "t": 454000,
      "d": 1000,
      "v": 127
    },
    {
      "midi": 43,
      "hit": false,
      "t": 454000,
      "d": 1000,
      "v": 127
    },
    {
      "midi": 47,
      "hit": false,
      "t": 454000,
      "d": 1000,
      "v": 127
    },
    {
      "midi": 50,
      "hit": false,
      "t": 454000,
      "d": 1000,
      "v": 127
    },
    {
      "midi": 55,
      "hit": false,
      "t": 454000,
      "d": 1000,
      "v": 127
    },
    {
      "midi": 48,
      "hit": false,
      "t": 456000,
      "d": 500,
      "v": 127
    },
    {
      "midi": 60,
      "hit": false,
      "t": 456000,
      "d": 500,
      "v": 127
    },
    {
      "midi": 55,
      "hit": false,
      "t": 456500,
      "d": 250,
      "v": 127
    },
    {
      "midi": 60,
      "hit": false,
      "t": 456500,
      "d": 250,
      "v": 127
    },
    {
      "midi": 64,
      "hit": false,
      "t": 456500,
      "d": 250,
      "v": 127
    },
    {
      "midi": 55,
      "hit": false,
      "t": 456750,
      "d": 250,
      "v": 127
    },
    {
      "midi": 60,
      "hit": false,
      "t": 456750,
      "d": 250,
      "v": 127
    },
    {
      "midi": 64,
      "hit": false,
      "t": 456750,
      "d": 250,
      "v": 127
    },
    {
      "midi": 55,
      "hit": false,
      "t": 457000,
      "d": 500,
      "v": 127
    },
    {
      "midi": 60,
      "hit": false,
      "t": 457000,
      "d": 500,
      "v": 127
    },
    {
      "midi": 64,
      "hit": false,
      "t": 457000,
      "d": 500,
      "v": 127
    },
    {
      "midi": 55,
      "hit": false,
      "t": 457500,
      "d": 500,
      "v": 127
    },
    {
      "midi": 60,
      "hit": false,
      "t": 457500,
      "d": 500,
      "v": 127
    },
    {
      "midi": 64,
      "hit": false,
      "t": 457500,
      "d": 500,
      "v": 127
    },
    {
      "midi": 55,
      "hit": false,
      "t": 458000,
      "d": 500,
      "v": 127
    },
    {
      "midi": 60,
      "hit": false,
      "t": 458000,
      "d": 500,
      "v": 127
    },
    {
      "midi": 64,
      "hit": false,
      "t": 458000,
      "d": 500,
      "v": 127
    },
    {
      "midi": 55,
      "hit": false,
      "t": 458500,
      "d": 500,
      "v": 127
    },
    {
      "midi": 60,
      "hit": false,
      "t": 458500,
      "d": 500,
      "v": 127
    },
    {
      "midi": 64,
      "hit": false,
      "t": 458500,
      "d": 500,
      "v": 127
    },
    {
      "midi": 55,
      "hit": false,
      "t": 459000,
      "d": 500,
      "v": 127
    },
    {
      "midi": 60,
      "hit": false,
      "t": 459000,
      "d": 500,
      "v": 127
    },
    {
      "midi": 64,
      "hit": false,
      "t": 459000,
      "d": 500,
      "v": 127
    },
    {
      "midi": 55,
      "hit": false,
      "t": 459500,
      "d": 500,
      "v": 127
    },
    {
      "midi": 60,
      "hit": false,
      "t": 459500,
      "d": 500,
      "v": 127
    },
    {
      "midi": 64,
      "hit": false,
      "t": 459500,
      "d": 500,
      "v": 127
    },
    {
      "midi": 66,
      "hit": false,
      "t": 459750,
      "d": 250,
      "v": 127
    },
    {
      "midi": 69,
      "hit": false,
      "t": 459750,
      "d": 250,
      "v": 127
    },
    {
      "midi": 67,
      "hit": false,
      "t": 460000,
      "d": 1000,
      "v": 127
    },
    {
      "midi": 48,
      "hit": false,
      "t": 460000,
      "d": 500,
      "v": 127
    },
    {
      "midi": 60,
      "hit": false,
      "t": 460000,
      "d": 500,
      "v": 127
    },
    {
      "midi": 55,
      "hit": false,
      "t": 460500,
      "d": 250,
      "v": 127
    },
    {
      "midi": 60,
      "hit": false,
      "t": 460500,
      "d": 250,
      "v": 127
    },
    {
      "midi": 64,
      "hit": false,
      "t": 460500,
      "d": 250,
      "v": 127
    },
    {
      "midi": 55,
      "hit": false,
      "t": 460750,
      "d": 250,
      "v": 127
    },
    {
      "midi": 60,
      "hit": false,
      "t": 460750,
      "d": 250,
      "v": 127
    },
    {
      "midi": 64,
      "hit": false,
      "t": 460750,
      "d": 250,
      "v": 127
    },
    {
      "midi": 55,
      "hit": false,
      "t": 461000,
      "d": 500,
      "v": 127
    },
    {
      "midi": 60,
      "hit": false,
      "t": 461000,
      "d": 500,
      "v": 127
    },
    {
      "midi": 64,
      "hit": false,
      "t": 461000,
      "d": 500,
      "v": 127
    },
    {
      "midi": 55,
      "hit": false,
      "t": 461500,
      "d": 500,
      "v": 127
    },
    {
      "midi": 60,
      "hit": false,
      "t": 461500,
      "d": 500,
      "v": 127
    },
    {
      "midi": 64,
      "hit": false,
      "t": 461500,
      "d": 500,
      "v": 127
    },
    {
      "midi": 71,
      "hit": false,
      "t": 461750,
      "d": 250,
      "v": 127
    },
    {
      "midi": 74,
      "hit": false,
      "t": 461750,
      "d": 250,
      "v": 127
    },
    {
      "midi": 72,
      "hit": false,
      "t": 462000,
      "d": 1000,
      "v": 127
    },
    {
      "midi": 55,
      "hit": false,
      "t": 462000,
      "d": 500,
      "v": 127
    },
    {
      "midi": 60,
      "hit": false,
      "t": 462000,
      "d": 500,
      "v": 127
    },
    {
      "midi": 64,
      "hit": false,
      "t": 462000,
      "d": 500,
      "v": 127
    },
    {
      "midi": 55,
      "hit": false,
      "t": 462500,
      "d": 500,
      "v": 127
    },
    {
      "midi": 60,
      "hit": false,
      "t": 462500,
      "d": 500,
      "v": 127
    },
    {
      "midi": 64,
      "hit": false,
      "t": 462500,
      "d": 500,
      "v": 127
    },
    {
      "midi": 74,
      "hit": false,
      "t": 463000,
      "d": 1000,
      "v": 127
    },
    {
      "midi": 56,
      "hit": false,
      "t": 463000,
      "d": 500,
      "v": 127
    },
    {
      "midi": 59,
      "hit": false,
      "t": 463000,
      "d": 500,
      "v": 127
    },
    {
      "midi": 62,
      "hit": false,
      "t": 463000,
      "d": 500,
      "v": 127
    },
    {
      "midi": 65,
      "hit": false,
      "t": 463000,
      "d": 500,
      "v": 127
    },
    {
      "midi": 56,
      "hit": false,
      "t": 463500,
      "d": 500,
      "v": 127
    },
    {
      "midi": 59,
      "hit": false,
      "t": 463500,
      "d": 500,
      "v": 127
    },
    {
      "midi": 62,
      "hit": false,
      "t": 463500,
      "d": 500,
      "v": 127
    },
    {
      "midi": 65,
      "hit": false,
      "t": 463500,
      "d": 500,
      "v": 127
    },
    {
      "midi": 76,
      "hit": false,
      "t": 464000,
      "d": 1000,
      "v": 127
    },
    {
      "midi": 48,
      "hit": false,
      "t": 464000,
      "d": 500,
      "v": 127
    },
    {
      "midi": 60,
      "hit": false,
      "t": 464000,
      "d": 500,
      "v": 127
    },
    {
      "midi": 55,
      "hit": false,
      "t": 464500,
      "d": 250,
      "v": 127
    },
    {
      "midi": 60,
      "hit": false,
      "t": 464500,
      "d": 250,
      "v": 127
    },
    {
      "midi": 64,
      "hit": false,
      "t": 464500,
      "d": 250,
      "v": 127
    },
    {
      "midi": 55,
      "hit": false,
      "t": 464750,
      "d": 250,
      "v": 127
    },
    {
      "midi": 60,
      "hit": false,
      "t": 464750,
      "d": 250,
      "v": 127
    },
    {
      "midi": 64,
      "hit": false,
      "t": 464750,
      "d": 250,
      "v": 127
    },
    {
      "midi": 76,
      "hit": false,
      "t": 465000,
      "d": 1000,
      "v": 127
    },
    {
      "midi": 55,
      "hit": false,
      "t": 465000,
      "d": 500,
      "v": 127
    },
    {
      "midi": 60,
      "hit": false,
      "t": 465000,
      "d": 500,
      "v": 127
    },
    {
      "midi": 64,
      "hit": false,
      "t": 465000,
      "d": 500,
      "v": 127
    },
    {
      "midi": 55,
      "hit": false,
      "t": 465500,
      "d": 500,
      "v": 127
    },
    {
      "midi": 60,
      "hit": false,
      "t": 465500,
      "d": 500,
      "v": 127
    },
    {
      "midi": 64,
      "hit": false,
      "t": 465500,
      "d": 500,
      "v": 127
    },
    {
      "midi": 76,
      "hit": false,
      "t": 466000,
      "d": 1000,
      "v": 127
    },
    {
      "midi": 55,
      "hit": false,
      "t": 466000,
      "d": 500,
      "v": 127
    },
    {
      "midi": 60,
      "hit": false,
      "t": 466000,
      "d": 500,
      "v": 127
    },
    {
      "midi": 64,
      "hit": false,
      "t": 466000,
      "d": 500,
      "v": 127
    },
    {
      "midi": 55,
      "hit": false,
      "t": 466500,
      "d": 500,
      "v": 127
    },
    {
      "midi": 60,
      "hit": false,
      "t": 466500,
      "d": 500,
      "v": 127
    },
    {
      "midi": 64,
      "hit": false,
      "t": 466500,
      "d": 500,
      "v": 127
    },
    {
      "midi": 77,
      "hit": false,
      "t": 467000,
      "d": 500,
      "v": 127
    },
    {
      "midi": 55,
      "hit": false,
      "t": 467000,
      "d": 500,
      "v": 127
    },
    {
      "midi": 60,
      "hit": false,
      "t": 467000,
      "d": 500,
      "v": 127
    },
    {
      "midi": 64,
      "hit": false,
      "t": 467000,
      "d": 500,
      "v": 127
    },
    {
      "midi": 76,
      "hit": false,
      "t": 467500,
      "d": 250,
      "v": 127
    },
    {
      "midi": 55,
      "hit": false,
      "t": 467500,
      "d": 500,
      "v": 127
    },
    {
      "midi": 60,
      "hit": false,
      "t": 467500,
      "d": 500,
      "v": 127
    },
    {
      "midi": 64,
      "hit": false,
      "t": 467500,
      "d": 500,
      "v": 127
    },
    {
      "midi": 73,
      "hit": false,
      "t": 467750,
      "d": 250,
      "v": 127
    },
    {
      "midi": 74,
      "hit": false,
      "t": 467750,
      "d": 250,
      "v": 127
    },
    {
      "midi": 74,
      "hit": false,
      "t": 468000,
      "d": 1000,
      "v": 127
    },
    {
      "midi": 43,
      "hit": false,
      "t": 468000,
      "d": 500,
      "v": 127
    },
    {
      "midi": 55,
      "hit": false,
      "t": 468000,
      "d": 500,
      "v": 127
    },
    {
      "midi": 55,
      "hit": false,
      "t": 468500,
      "d": 250,
      "v": 127
    },
    {
      "midi": 59,
      "hit": false,
      "t": 468500,
      "d": 250,
      "v": 127
    },
    {
      "midi": 62,
      "hit": false,
      "t": 468500,
      "d": 250,
      "v": 127
    },
    {
      "midi": 65,
      "hit": false,
      "t": 468500,
      "d": 250,
      "v": 127
    },
    {
      "midi": 55,
      "hit": false,
      "t": 468750,
      "d": 250,
      "v": 127
    },
    {
      "midi": 59,
      "hit": false,
      "t": 468750,
      "d": 250,
      "v": 127
    },
    {
      "midi": 62,
      "hit": false,
      "t": 468750,
      "d": 250,
      "v": 127
    },
    {
      "midi": 65,
      "hit": false,
      "t": 468750,
      "d": 250,
      "v": 127
    },
    {
      "midi": 74,
      "hit": false,
      "t": 469000,
      "d": 1000,
      "v": 127
    },
    {
      "midi": 55,
      "hit": false,
      "t": 469000,
      "d": 500,
      "v": 127
    },
    {
      "midi": 59,
      "hit": false,
      "t": 469000,
      "d": 500,
      "v": 127
    },
    {
      "midi": 62,
      "hit": false,
      "t": 469000,
      "d": 500,
      "v": 127
    },
    {
      "midi": 65,
      "hit": false,
      "t": 469000,
      "d": 500,
      "v": 127
    },
    {
      "midi": 55,
      "hit": false,
      "t": 469500,
      "d": 500,
      "v": 127
    },
    {
      "midi": 59,
      "hit": false,
      "t": 469500,
      "d": 500,
      "v": 127
    },
    {
      "midi": 62,
      "hit": false,
      "t": 469500,
      "d": 500,
      "v": 127
    },
    {
      "midi": 65,
      "hit": false,
      "t": 469500,
      "d": 500,
      "v": 127
    },
    {
      "midi": 74,
      "hit": false,
      "t": 470000,
      "d": 1000,
      "v": 127
    },
    {
      "midi": 55,
      "hit": false,
      "t": 470000,
      "d": 500,
      "v": 127
    },
    {
      "midi": 59,
      "hit": false,
      "t": 470000,
      "d": 500,
      "v": 127
    },
    {
      "midi": 62,
      "hit": false,
      "t": 470000,
      "d": 500,
      "v": 127
    },
    {
      "midi": 65,
      "hit": false,
      "t": 470000,
      "d": 500,
      "v": 127
    },
    {
      "midi": 55,
      "hit": false,
      "t": 470500,
      "d": 500,
      "v": 127
    },
    {
      "midi": 59,
      "hit": false,
      "t": 470500,
      "d": 500,
      "v": 127
    },
    {
      "midi": 62,
      "hit": false,
      "t": 470500,
      "d": 500,
      "v": 127
    },
    {
      "midi": 65,
      "hit": false,
      "t": 470500,
      "d": 500,
      "v": 127
    },
    {
      "midi": 76,
      "hit": false,
      "t": 471000,
      "d": 500,
      "v": 127
    },
    {
      "midi": 55,
      "hit": false,
      "t": 471000,
      "d": 500,
      "v": 127
    },
    {
      "midi": 59,
      "hit": false,
      "t": 471000,
      "d": 500,
      "v": 127
    },
    {
      "midi": 62,
      "hit": false,
      "t": 471000,
      "d": 500,
      "v": 127
    },
    {
      "midi": 65,
      "hit": false,
      "t": 471000,
      "d": 500,
      "v": 127
    },
    {
      "midi": 74,
      "hit": false,
      "t": 471500,
      "d": 250,
      "v": 127
    },
    {
      "midi": 55,
      "hit": false,
      "t": 471500,
      "d": 500,
      "v": 127
    },
    {
      "midi": 59,
      "hit": false,
      "t": 471500,
      "d": 500,
      "v": 127
    },
    {
      "midi": 62,
      "hit": false,
      "t": 471500,
      "d": 500,
      "v": 127
    },
    {
      "midi": 65,
      "hit": false,
      "t": 471500,
      "d": 500,
      "v": 127
    },
    {
      "midi": 71,
      "hit": false,
      "t": 471750,
      "d": 250,
      "v": 127
    },
    {
      "midi": 72,
      "hit": false,
      "t": 471750,
      "d": 250,
      "v": 127
    },
    {
      "midi": 74,
      "hit": false,
      "t": 472000,
      "d": 1500,
      "v": 127
    },
    {
      "midi": 48,
      "hit": false,
      "t": 472000,
      "d": 500,
      "v": 127
    },
    {
      "midi": 60,
      "hit": false,
      "t": 472000,
      "d": 500,
      "v": 127
    },
    {
      "midi": 55,
      "hit": false,
      "t": 472500,
      "d": 250,
      "v": 127
    },
    {
      "midi": 60,
      "hit": false,
      "t": 472500,
      "d": 250,
      "v": 127
    },
    {
      "midi": 64,
      "hit": false,
      "t": 472500,
      "d": 250,
      "v": 127
    },
    {
      "midi": 55,
      "hit": false,
      "t": 472750,
      "d": 250,
      "v": 127
    },
    {
      "midi": 60,
      "hit": false,
      "t": 472750,
      "d": 250,
      "v": 127
    },
    {
      "midi": 64,
      "hit": false,
      "t": 472750,
      "d": 250,
      "v": 127
    },
    {
      "midi": 55,
      "hit": false,
      "t": 473000,
      "d": 500,
      "v": 127
    },
    {
      "midi": 60,
      "hit": false,
      "t": 473000,
      "d": 500,
      "v": 127
    },
    {
      "midi": 64,
      "hit": false,
      "t": 473000,
      "d": 500,
      "v": 127
    },
    {
      "midi": 72,
      "hit": false,
      "t": 473500,
      "d": 500,
      "v": 127
    },
    {
      "midi": 55,
      "hit": false,
      "t": 473500,
      "d": 500,
      "v": 127
    },
    {
      "midi": 60,
      "hit": false,
      "t": 473500,
      "d": 500,
      "v": 127
    },
    {
      "midi": 64,
      "hit": false,
      "t": 473500,
      "d": 500,
      "v": 127
    },
    {
      "midi": 67,
      "hit": false,
      "t": 474000,
      "d": 1000,
      "v": 127
    },
    {
      "midi": 55,
      "hit": false,
      "t": 474000,
      "d": 500,
      "v": 127
    },
    {
      "midi": 60,
      "hit": false,
      "t": 474000,
      "d": 500,
      "v": 127
    },
    {
      "midi": 64,
      "hit": false,
      "t": 474000,
      "d": 500,
      "v": 127
    },
    {
      "midi": 55,
      "hit": false,
      "t": 474500,
      "d": 500,
      "v": 127
    },
    {
      "midi": 60,
      "hit": false,
      "t": 474500,
      "d": 500,
      "v": 127
    },
    {
      "midi": 64,
      "hit": false,
      "t": 474500,
      "d": 500,
      "v": 127
    },
    {
      "midi": 55,
      "hit": false,
      "t": 475000,
      "d": 500,
      "v": 127
    },
    {
      "midi": 60,
      "hit": false,
      "t": 475000,
      "d": 500,
      "v": 127
    },
    {
      "midi": 64,
      "hit": false,
      "t": 475000,
      "d": 500,
      "v": 127
    },
    {
      "midi": 55,
      "hit": false,
      "t": 475500,
      "d": 500,
      "v": 127
    },
    {
      "midi": 60,
      "hit": false,
      "t": 475500,
      "d": 500,
      "v": 127
    },
    {
      "midi": 64,
      "hit": false,
      "t": 475500,
      "d": 500,
      "v": 127
    },
    {
      "midi": 66,
      "hit": false,
      "t": 475750,
      "d": 250,
      "v": 127
    },
    {
      "midi": 69,
      "hit": false,
      "t": 475750,
      "d": 250,
      "v": 127
    },
    {
      "midi": 67,
      "hit": false,
      "t": 476000,
      "d": 1000,
      "v": 127
    },
    {
      "midi": 36,
      "hit": false,
      "t": 476000,
      "d": 500,
      "v": 127
    },
    {
      "midi": 48,
      "hit": false,
      "t": 476000,
      "d": 500,
      "v": 127
    },
    {
      "midi": 55,
      "hit": false,
      "t": 476500,
      "d": 250,
      "v": 127
    },
    {
      "midi": 60,
      "hit": false,
      "t": 476500,
      "d": 250,
      "v": 127
    },
    {
      "midi": 64,
      "hit": false,
      "t": 476500,
      "d": 250,
      "v": 127
    },
    {
      "midi": 55,
      "hit": false,
      "t": 476750,
      "d": 250,
      "v": 127
    },
    {
      "midi": 60,
      "hit": false,
      "t": 476750,
      "d": 250,
      "v": 127
    },
    {
      "midi": 64,
      "hit": false,
      "t": 476750,
      "d": 250,
      "v": 127
    },
    {
      "midi": 55,
      "hit": false,
      "t": 477000,
      "d": 500,
      "v": 127
    },
    {
      "midi": 60,
      "hit": false,
      "t": 477000,
      "d": 500,
      "v": 127
    },
    {
      "midi": 64,
      "hit": false,
      "t": 477000,
      "d": 500,
      "v": 127
    },
    {
      "midi": 55,
      "hit": false,
      "t": 477500,
      "d": 500,
      "v": 127
    },
    {
      "midi": 60,
      "hit": false,
      "t": 477500,
      "d": 500,
      "v": 127
    },
    {
      "midi": 64,
      "hit": false,
      "t": 477500,
      "d": 500,
      "v": 127
    },
    {
      "midi": 71,
      "hit": false,
      "t": 477750,
      "d": 250,
      "v": 127
    },
    {
      "midi": 74,
      "hit": false,
      "t": 477750,
      "d": 250,
      "v": 127
    },
    {
      "midi": 72,
      "hit": false,
      "t": 478000,
      "d": 1000,
      "v": 127
    },
    {
      "midi": 55,
      "hit": false,
      "t": 478000,
      "d": 500,
      "v": 127
    },
    {
      "midi": 60,
      "hit": false,
      "t": 478000,
      "d": 500,
      "v": 127
    },
    {
      "midi": 64,
      "hit": false,
      "t": 478000,
      "d": 500,
      "v": 127
    },
    {
      "midi": 55,
      "hit": false,
      "t": 478500,
      "d": 500,
      "v": 127
    },
    {
      "midi": 60,
      "hit": false,
      "t": 478500,
      "d": 500,
      "v": 127
    },
    {
      "midi": 64,
      "hit": false,
      "t": 478500,
      "d": 500,
      "v": 127
    },
    {
      "midi": 74,
      "hit": false,
      "t": 479000,
      "d": 1000,
      "v": 127
    },
    {
      "midi": 56,
      "hit": false,
      "t": 479000,
      "d": 500,
      "v": 127
    },
    {
      "midi": 59,
      "hit": false,
      "t": 479000,
      "d": 500,
      "v": 127
    },
    {
      "midi": 62,
      "hit": false,
      "t": 479000,
      "d": 500,
      "v": 127
    },
    {
      "midi": 65,
      "hit": false,
      "t": 479000,
      "d": 500,
      "v": 127
    },
    {
      "midi": 56,
      "hit": false,
      "t": 479500,
      "d": 500,
      "v": 127
    },
    {
      "midi": 59,
      "hit": false,
      "t": 479500,
      "d": 500,
      "v": 127
    },
    {
      "midi": 62,
      "hit": false,
      "t": 479500,
      "d": 500,
      "v": 127
    },
    {
      "midi": 65,
      "hit": false,
      "t": 479500,
      "d": 500,
      "v": 127
    },
    {
      "midi": 76,
      "hit": false,
      "t": 480000,
      "d": 1000,
      "v": 127
    },
    {
      "midi": 36,
      "hit": false,
      "t": 480000,
      "d": 500,
      "v": 127
    },
    {
      "midi": 48,
      "hit": false,
      "t": 480000,
      "d": 500,
      "v": 127
    },
    {
      "midi": 55,
      "hit": false,
      "t": 480500,
      "d": 250,
      "v": 127
    },
    {
      "midi": 60,
      "hit": false,
      "t": 480500,
      "d": 250,
      "v": 127
    },
    {
      "midi": 64,
      "hit": false,
      "t": 480500,
      "d": 250,
      "v": 127
    },
    {
      "midi": 55,
      "hit": false,
      "t": 480750,
      "d": 250,
      "v": 127
    },
    {
      "midi": 60,
      "hit": false,
      "t": 480750,
      "d": 250,
      "v": 127
    },
    {
      "midi": 64,
      "hit": false,
      "t": 480750,
      "d": 250,
      "v": 127
    },
    {
      "midi": 76,
      "hit": false,
      "t": 481000,
      "d": 1000,
      "v": 127
    },
    {
      "midi": 55,
      "hit": false,
      "t": 481000,
      "d": 500,
      "v": 127
    },
    {
      "midi": 60,
      "hit": false,
      "t": 481000,
      "d": 500,
      "v": 127
    },
    {
      "midi": 64,
      "hit": false,
      "t": 481000,
      "d": 500,
      "v": 127
    },
    {
      "midi": 55,
      "hit": false,
      "t": 481500,
      "d": 500,
      "v": 127
    },
    {
      "midi": 60,
      "hit": false,
      "t": 481500,
      "d": 500,
      "v": 127
    },
    {
      "midi": 64,
      "hit": false,
      "t": 481500,
      "d": 500,
      "v": 127
    },
    {
      "midi": 76,
      "hit": false,
      "t": 482000,
      "d": 1000,
      "v": 127
    },
    {
      "midi": 48,
      "hit": false,
      "t": 482000,
      "d": 500,
      "v": 127
    },
    {
      "midi": 60,
      "hit": false,
      "t": 482000,
      "d": 500,
      "v": 127
    },
    {
      "midi": 55,
      "hit": false,
      "t": 482500,
      "d": 250,
      "v": 127
    },
    {
      "midi": 60,
      "hit": false,
      "t": 482500,
      "d": 250,
      "v": 127
    },
    {
      "midi": 64,
      "hit": false,
      "t": 482500,
      "d": 250,
      "v": 127
    },
    {
      "midi": 55,
      "hit": false,
      "t": 482750,
      "d": 250,
      "v": 127
    },
    {
      "midi": 60,
      "hit": false,
      "t": 482750,
      "d": 250,
      "v": 127
    },
    {
      "midi": 64,
      "hit": false,
      "t": 482750,
      "d": 250,
      "v": 127
    },
    {
      "midi": 77,
      "hit": false,
      "t": 483000,
      "d": 500,
      "v": 127
    },
    {
      "midi": 55,
      "hit": false,
      "t": 483000,
      "d": 500,
      "v": 127
    },
    {
      "midi": 60,
      "hit": false,
      "t": 483000,
      "d": 500,
      "v": 127
    },
    {
      "midi": 64,
      "hit": false,
      "t": 483000,
      "d": 500,
      "v": 127
    },
    {
      "midi": 76,
      "hit": false,
      "t": 483500,
      "d": 250,
      "v": 127
    },
    {
      "midi": 55,
      "hit": false,
      "t": 483500,
      "d": 500,
      "v": 127
    },
    {
      "midi": 60,
      "hit": false,
      "t": 483500,
      "d": 500,
      "v": 127
    },
    {
      "midi": 64,
      "hit": false,
      "t": 483500,
      "d": 500,
      "v": 127
    },
    {
      "midi": 73,
      "hit": false,
      "t": 483750,
      "d": 250,
      "v": 127
    },
    {
      "midi": 74,
      "hit": false,
      "t": 483750,
      "d": 250,
      "v": 127
    },
    {
      "midi": 74,
      "hit": false,
      "t": 484000,
      "d": 1000,
      "v": 127
    },
    {
      "midi": 43,
      "hit": false,
      "t": 484000,
      "d": 500,
      "v": 127
    },
    {
      "midi": 55,
      "hit": false,
      "t": 484000,
      "d": 500,
      "v": 127
    },
    {
      "midi": 55,
      "hit": false,
      "t": 484500,
      "d": 250,
      "v": 127
    },
    {
      "midi": 59,
      "hit": false,
      "t": 484500,
      "d": 250,
      "v": 127
    },
    {
      "midi": 62,
      "hit": false,
      "t": 484500,
      "d": 250,
      "v": 127
    },
    {
      "midi": 65,
      "hit": false,
      "t": 484500,
      "d": 250,
      "v": 127
    },
    {
      "midi": 55,
      "hit": false,
      "t": 484750,
      "d": 250,
      "v": 127
    },
    {
      "midi": 59,
      "hit": false,
      "t": 484750,
      "d": 250,
      "v": 127
    },
    {
      "midi": 62,
      "hit": false,
      "t": 484750,
      "d": 250,
      "v": 127
    },
    {
      "midi": 65,
      "hit": false,
      "t": 484750,
      "d": 250,
      "v": 127
    },
    {
      "midi": 74,
      "hit": false,
      "t": 485000,
      "d": 1000,
      "v": 127
    },
    {
      "midi": 55,
      "hit": false,
      "t": 485000,
      "d": 500,
      "v": 127
    },
    {
      "midi": 59,
      "hit": false,
      "t": 485000,
      "d": 500,
      "v": 127
    },
    {
      "midi": 62,
      "hit": false,
      "t": 485000,
      "d": 500,
      "v": 127
    },
    {
      "midi": 65,
      "hit": false,
      "t": 485000,
      "d": 500,
      "v": 127
    },
    {
      "midi": 55,
      "hit": false,
      "t": 485500,
      "d": 500,
      "v": 127
    },
    {
      "midi": 59,
      "hit": false,
      "t": 485500,
      "d": 500,
      "v": 127
    },
    {
      "midi": 62,
      "hit": false,
      "t": 485500,
      "d": 500,
      "v": 127
    },
    {
      "midi": 65,
      "hit": false,
      "t": 485500,
      "d": 500,
      "v": 127
    },
    {
      "midi": 81,
      "hit": false,
      "t": 486000,
      "d": 1000,
      "v": 127
    },
    {
      "midi": 43,
      "hit": false,
      "t": 486000,
      "d": 500,
      "v": 127
    },
    {
      "midi": 55,
      "hit": false,
      "t": 486000,
      "d": 500,
      "v": 127
    },
    {
      "midi": 55,
      "hit": false,
      "t": 486500,
      "d": 250,
      "v": 127
    },
    {
      "midi": 59,
      "hit": false,
      "t": 486500,
      "d": 250,
      "v": 127
    },
    {
      "midi": 62,
      "hit": false,
      "t": 486500,
      "d": 250,
      "v": 127
    },
    {
      "midi": 65,
      "hit": false,
      "t": 486500,
      "d": 250,
      "v": 127
    },
    {
      "midi": 55,
      "hit": false,
      "t": 486750,
      "d": 250,
      "v": 127
    },
    {
      "midi": 59,
      "hit": false,
      "t": 486750,
      "d": 250,
      "v": 127
    },
    {
      "midi": 62,
      "hit": false,
      "t": 486750,
      "d": 250,
      "v": 127
    },
    {
      "midi": 65,
      "hit": false,
      "t": 486750,
      "d": 250,
      "v": 127
    },
    {
      "midi": 55,
      "hit": false,
      "t": 487000,
      "d": 500,
      "v": 127
    },
    {
      "midi": 59,
      "hit": false,
      "t": 487000,
      "d": 500,
      "v": 127
    },
    {
      "midi": 62,
      "hit": false,
      "t": 487000,
      "d": 500,
      "v": 127
    },
    {
      "midi": 65,
      "hit": false,
      "t": 487000,
      "d": 500,
      "v": 127
    },
    {
      "midi": 77,
      "hit": false,
      "t": 487500,
      "d": 250,
      "v": 127
    },
    {
      "midi": 79,
      "hit": false,
      "t": 487500,
      "d": 250,
      "v": 127
    },
    {
      "midi": 55,
      "hit": false,
      "t": 487500,
      "d": 500,
      "v": 127
    },
    {
      "midi": 59,
      "hit": false,
      "t": 487500,
      "d": 500,
      "v": 127
    },
    {
      "midi": 62,
      "hit": false,
      "t": 487500,
      "d": 500,
      "v": 127
    },
    {
      "midi": 65,
      "hit": false,
      "t": 487500,
      "d": 500,
      "v": 127
    },
    {
      "midi": 74,
      "hit": false,
      "t": 487750,
      "d": 250,
      "v": 127
    },
    {
      "midi": 76,
      "hit": false,
      "t": 487750,
      "d": 250,
      "v": 127
    },
    {
      "midi": 72,
      "hit": false,
      "t": 488000,
      "d": 2000,
      "v": 127
    },
    {
      "midi": 48,
      "hit": false,
      "t": 488000,
      "d": 500,
      "v": 127
    },
    {
      "midi": 60,
      "hit": false,
      "t": 488000,
      "d": 500,
      "v": 127
    },
    {
      "midi": 55,
      "hit": false,
      "t": 488500,
      "d": 250,
      "v": 127
    },
    {
      "midi": 60,
      "hit": false,
      "t": 488500,
      "d": 250,
      "v": 127
    },
    {
      "midi": 64,
      "hit": false,
      "t": 488500,
      "d": 250,
      "v": 127
    },
    {
      "midi": 55,
      "hit": false,
      "t": 488750,
      "d": 250,
      "v": 127
    },
    {
      "midi": 60,
      "hit": false,
      "t": 488750,
      "d": 250,
      "v": 127
    },
    {
      "midi": 64,
      "hit": false,
      "t": 488750,
      "d": 250,
      "v": 127
    },
    {
      "midi": 55,
      "hit": false,
      "t": 489000,
      "d": 500,
      "v": 127
    },
    {
      "midi": 60,
      "hit": false,
      "t": 489000,
      "d": 500,
      "v": 127
    },
    {
      "midi": 64,
      "hit": false,
      "t": 489000,
      "d": 500,
      "v": 127
    },
    {
      "midi": 55,
      "hit": false,
      "t": 489500,
      "d": 500,
      "v": 127
    },
    {
      "midi": 60,
      "hit": false,
      "t": 489500,
      "d": 500,
      "v": 127
    },
    {
      "midi": 64,
      "hit": false,
      "t": 489500,
      "d": 500,
      "v": 127
    },
    {
      "midi": 48,
      "hit": false,
      "t": 490000,
      "d": 500,
      "v": 127
    },
    {
      "midi": 60,
      "hit": false,
      "t": 490000,
      "d": 500,
      "v": 127
    },
    {
      "midi": 55,
      "hit": false,
      "t": 490500,
      "d": 250,
      "v": 127
    },
    {
      "midi": 60,
      "hit": false,
      "t": 490500,
      "d": 250,
      "v": 127
    },
    {
      "midi": 64,
      "hit": false,
      "t": 490500,
      "d": 250,
      "v": 127
    },
    {
      "midi": 55,
      "hit": false,
      "t": 490750,
      "d": 250,
      "v": 127
    },
    {
      "midi": 60,
      "hit": false,
      "t": 490750,
      "d": 250,
      "v": 127
    },
    {
      "midi": 64,
      "hit": false,
      "t": 490750,
      "d": 250,
      "v": 127
    },
    {
      "midi": 55,
      "hit": false,
      "t": 491000,
      "d": 500,
      "v": 127
    },
    {
      "midi": 60,
      "hit": false,
      "t": 491000,
      "d": 500,
      "v": 127
    },
    {
      "midi": 64,
      "hit": false,
      "t": 491000,
      "d": 500,
      "v": 127
    },
    {
      "midi": 55,
      "hit": false,
      "t": 491500,
      "d": 500,
      "v": 127
    },
    {
      "midi": 60,
      "hit": false,
      "t": 491500,
      "d": 500,
      "v": 127
    },
    {
      "midi": 64,
      "hit": false,
      "t": 491500,
      "d": 500,
      "v": 127
    },
    {
      "midi": 75,
      "hit": false,
      "t": 491750,
      "d": 250,
      "v": 127
    },
    {
      "midi": 77,
      "hit": false,
      "t": 491750,
      "d": 250,
      "v": 127
    },
    {
      "midi": 76,
      "hit": false,
      "t": 492000,
      "d": 1000,
      "v": 127
    },
    {
      "midi": 52,
      "hit": false,
      "t": 492000,
      "d": 500,
      "v": 127
    },
    {
      "midi": 56,
      "hit": false,
      "t": 492500,
      "d": 250,
      "v": 127
    },
    {
      "midi": 59,
      "hit": false,
      "t": 492500,
      "d": 250,
      "v": 127
    },
    {
      "midi": 64,
      "hit": false,
      "t": 492500,
      "d": 250,
      "v": 127
    },
    {
      "midi": 56,
      "hit": false,
      "t": 492750,
      "d": 250,
      "v": 127
    },
    {
      "midi": 59,
      "hit": false,
      "t": 492750,
      "d": 250,
      "v": 127
    },
    {
      "midi": 64,
      "hit": false,
      "t": 492750,
      "d": 250,
      "v": 127
    },
    {
      "midi": 56,
      "hit": false,
      "t": 493000,
      "d": 500,
      "v": 127
    },
    {
      "midi": 59,
      "hit": false,
      "t": 493000,
      "d": 500,
      "v": 127
    },
    {
      "midi": 64,
      "hit": false,
      "t": 493000,
      "d": 500,
      "v": 127
    },
    {
      "midi": 56,
      "hit": false,
      "t": 493500,
      "d": 500,
      "v": 127
    },
    {
      "midi": 59,
      "hit": false,
      "t": 493500,
      "d": 500,
      "v": 127
    },
    {
      "midi": 64,
      "hit": false,
      "t": 493500,
      "d": 500,
      "v": 127
    },
    {
      "midi": 77,
      "hit": false,
      "t": 493750,
      "d": 250,
      "v": 127
    },
    {
      "midi": 76,
      "hit": false,
      "t": 494000,
      "d": 750,
      "v": 127
    },
    {
      "midi": 57,
      "hit": false,
      "t": 494000,
      "d": 500,
      "v": 127
    },
    {
      "midi": 60,
      "hit": false,
      "t": 494500,
      "d": 250,
      "v": 127
    },
    {
      "midi": 64,
      "hit": false,
      "t": 494500,
      "d": 250,
      "v": 127
    },
    {
      "midi": 74,
      "hit": false,
      "t": 494750,
      "d": 250,
      "v": 127
    },
    {
      "midi": 60,
      "hit": false,
      "t": 494750,
      "d": 250,
      "v": 127
    },
    {
      "midi": 64,
      "hit": false,
      "t": 494750,
      "d": 250,
      "v": 127
    },
    {
      "midi": 72,
      "hit": false,
      "t": 495000,
      "d": 750,
      "v": 127
    },
    {
      "midi": 60,
      "hit": false,
      "t": 495000,
      "d": 500,
      "v": 127
    },
    {
      "midi": 64,
      "hit": false,
      "t": 495000,
      "d": 500,
      "v": 127
    },
    {
      "midi": 60,
      "hit": false,
      "t": 495500,
      "d": 500,
      "v": 127
    },
    {
      "midi": 64,
      "hit": false,
      "t": 495500,
      "d": 500,
      "v": 127
    },
    {
      "midi": 74,
      "hit": false,
      "t": 495750,
      "d": 250,
      "v": 127
    },
    {
      "midi": 76,
      "hit": false,
      "t": 496000,
      "d": 1500,
      "v": 127
    },
    {
      "midi": 52,
      "hit": false,
      "t": 496000,
      "d": 500,
      "v": 127
    },
    {
      "midi": 56,
      "hit": false,
      "t": 496500,
      "d": 250,
      "v": 127
    },
    {
      "midi": 59,
      "hit": false,
      "t": 496500,
      "d": 250,
      "v": 127
    },
    {
      "midi": 64,
      "hit": false,
      "t": 496500,
      "d": 250,
      "v": 127
    },
    {
      "midi": 56,
      "hit": false,
      "t": 496750,
      "d": 250,
      "v": 127
    },
    {
      "midi": 59,
      "hit": false,
      "t": 496750,
      "d": 250,
      "v": 127
    },
    {
      "midi": 64,
      "hit": false,
      "t": 496750,
      "d": 250,
      "v": 127
    },
    {
      "midi": 56,
      "hit": false,
      "t": 497000,
      "d": 500,
      "v": 127
    },
    {
      "midi": 59,
      "hit": false,
      "t": 497000,
      "d": 500,
      "v": 127
    },
    {
      "midi": 64,
      "hit": false,
      "t": 497000,
      "d": 500,
      "v": 127
    },
    {
      "midi": 74,
      "hit": false,
      "t": 497500,
      "d": 250,
      "v": 127
    },
    {
      "midi": 56,
      "hit": false,
      "t": 497500,
      "d": 500,
      "v": 127
    },
    {
      "midi": 59,
      "hit": false,
      "t": 497500,
      "d": 500,
      "v": 127
    },
    {
      "midi": 64,
      "hit": false,
      "t": 497500,
      "d": 500,
      "v": 127
    },
    {
      "midi": 72,
      "hit": false,
      "t": 497750,
      "d": 250,
      "v": 127
    },
    {
      "midi": 71,
      "hit": false,
      "t": 498000,
      "d": 1000,
      "v": 127
    },
    {
      "midi": 52,
      "hit": false,
      "t": 498000,
      "d": 500,
      "v": 127
    },
    {
      "midi": 56,
      "hit": false,
      "t": 498500,
      "d": 250,
      "v": 127
    },
    {
      "midi": 59,
      "hit": false,
      "t": 498500,
      "d": 250,
      "v": 127
    },
    {
      "midi": 64,
      "hit": false,
      "t": 498500,
      "d": 250,
      "v": 127
    },
    {
      "midi": 56,
      "hit": false,
      "t": 498750,
      "d": 250,
      "v": 127
    },
    {
      "midi": 59,
      "hit": false,
      "t": 498750,
      "d": 250,
      "v": 127
    },
    {
      "midi": 64,
      "hit": false,
      "t": 498750,
      "d": 250,
      "v": 127
    },
    {
      "midi": 56,
      "hit": false,
      "t": 499000,
      "d": 500,
      "v": 127
    },
    {
      "midi": 59,
      "hit": false,
      "t": 499000,
      "d": 500,
      "v": 127
    },
    {
      "midi": 64,
      "hit": false,
      "t": 499000,
      "d": 500,
      "v": 127
    },
    {
      "midi": 56,
      "hit": false,
      "t": 499500,
      "d": 500,
      "v": 127
    },
    {
      "midi": 59,
      "hit": false,
      "t": 499500,
      "d": 500,
      "v": 127
    },
    {
      "midi": 64,
      "hit": false,
      "t": 499500,
      "d": 500,
      "v": 127
    },
    {
      "midi": 75,
      "hit": false,
      "t": 499750,
      "d": 250,
      "v": 127
    },
    {
      "midi": 77,
      "hit": false,
      "t": 499750,
      "d": 250,
      "v": 127
    },
    {
      "midi": 76,
      "hit": false,
      "t": 500000,
      "d": 1000,
      "v": 127
    },
    {
      "midi": 52,
      "hit": false,
      "t": 500000,
      "d": 500,
      "v": 127
    },
    {
      "midi": 56,
      "hit": false,
      "t": 500500,
      "d": 250,
      "v": 127
    },
    {
      "midi": 59,
      "hit": false,
      "t": 500500,
      "d": 250,
      "v": 127
    },
    {
      "midi": 64,
      "hit": false,
      "t": 500500,
      "d": 250,
      "v": 127
    },
    {
      "midi": 56,
      "hit": false,
      "t": 500750,
      "d": 250,
      "v": 127
    },
    {
      "midi": 59,
      "hit": false,
      "t": 500750,
      "d": 250,
      "v": 127
    },
    {
      "midi": 64,
      "hit": false,
      "t": 500750,
      "d": 250,
      "v": 127
    },
    {
      "midi": 56,
      "hit": false,
      "t": 501000,
      "d": 500,
      "v": 127
    },
    {
      "midi": 59,
      "hit": false,
      "t": 501000,
      "d": 500,
      "v": 127
    },
    {
      "midi": 64,
      "hit": false,
      "t": 501000,
      "d": 500,
      "v": 127
    },
    {
      "midi": 56,
      "hit": false,
      "t": 501500,
      "d": 500,
      "v": 127
    },
    {
      "midi": 59,
      "hit": false,
      "t": 501500,
      "d": 500,
      "v": 127
    },
    {
      "midi": 64,
      "hit": false,
      "t": 501500,
      "d": 500,
      "v": 127
    },
    {
      "midi": 77,
      "hit": false,
      "t": 501750,
      "d": 250,
      "v": 127
    },
    {
      "midi": 76,
      "hit": false,
      "t": 502000,
      "d": 750,
      "v": 127
    },
    {
      "midi": 57,
      "hit": false,
      "t": 502000,
      "d": 500,
      "v": 127
    },
    {
      "midi": 60,
      "hit": false,
      "t": 502500,
      "d": 250,
      "v": 127
    },
    {
      "midi": 64,
      "hit": false,
      "t": 502500,
      "d": 250,
      "v": 127
    },
    {
      "midi": 74,
      "hit": false,
      "t": 502750,
      "d": 250,
      "v": 127
    },
    {
      "midi": 60,
      "hit": false,
      "t": 502750,
      "d": 250,
      "v": 127
    },
    {
      "midi": 64,
      "hit": false,
      "t": 502750,
      "d": 250,
      "v": 127
    },
    {
      "midi": 72,
      "hit": false,
      "t": 503000,
      "d": 750,
      "v": 127
    },
    {
      "midi": 60,
      "hit": false,
      "t": 503000,
      "d": 500,
      "v": 127
    },
    {
      "midi": 64,
      "hit": false,
      "t": 503000,
      "d": 500,
      "v": 127
    },
    {
      "midi": 60,
      "hit": false,
      "t": 503500,
      "d": 500,
      "v": 127
    },
    {
      "midi": 64,
      "hit": false,
      "t": 503500,
      "d": 500,
      "v": 127
    },
    {
      "midi": 74,
      "hit": false,
      "t": 503750,
      "d": 250,
      "v": 127
    },
    {
      "midi": 76,
      "hit": false,
      "t": 504000,
      "d": 1000,
      "v": 127
    },
    {
      "midi": 52,
      "hit": false,
      "t": 504000,
      "d": 500,
      "v": 127
    },
    {
      "midi": 56,
      "hit": false,
      "t": 504500,
      "d": 250,
      "v": 127
    },
    {
      "midi": 59,
      "hit": false,
      "t": 504500,
      "d": 250,
      "v": 127
    },
    {
      "midi": 64,
      "hit": false,
      "t": 504500,
      "d": 250,
      "v": 127
    },
    {
      "midi": 56,
      "hit": false,
      "t": 504750,
      "d": 250,
      "v": 127
    },
    {
      "midi": 59,
      "hit": false,
      "t": 504750,
      "d": 250,
      "v": 127
    },
    {
      "midi": 64,
      "hit": false,
      "t": 504750,
      "d": 250,
      "v": 127
    },
    {
      "midi": 76,
      "hit": false,
      "t": 505000,
      "d": 2000,
      "v": 127
    },
    {
      "midi": 56,
      "hit": false,
      "t": 505000,
      "d": 500,
      "v": 127
    },
    {
      "midi": 59,
      "hit": false,
      "t": 505000,
      "d": 500,
      "v": 127
    },
    {
      "midi": 64,
      "hit": false,
      "t": 505000,
      "d": 500,
      "v": 127
    },
    {
      "midi": 56,
      "hit": false,
      "t": 505500,
      "d": 500,
      "v": 127
    },
    {
      "midi": 59,
      "hit": false,
      "t": 505500,
      "d": 500,
      "v": 127
    },
    {
      "midi": 64,
      "hit": false,
      "t": 505500,
      "d": 500,
      "v": 127
    },
    {
      "midi": 52,
      "hit": false,
      "t": 506000,
      "d": 500,
      "v": 127
    },
    {
      "midi": 56,
      "hit": false,
      "t": 506500,
      "d": 250,
      "v": 127
    },
    {
      "midi": 59,
      "hit": false,
      "t": 506500,
      "d": 250,
      "v": 127
    },
    {
      "midi": 64,
      "hit": false,
      "t": 506500,
      "d": 250,
      "v": 127
    },
    {
      "midi": 56,
      "hit": false,
      "t": 506750,
      "d": 250,
      "v": 127
    },
    {
      "midi": 59,
      "hit": false,
      "t": 506750,
      "d": 250,
      "v": 127
    },
    {
      "midi": 64,
      "hit": false,
      "t": 506750,
      "d": 250,
      "v": 127
    },
    {
      "midi": 56,
      "hit": false,
      "t": 507000,
      "d": 500,
      "v": 127
    },
    {
      "midi": 59,
      "hit": false,
      "t": 507000,
      "d": 500,
      "v": 127
    },
    {
      "midi": 64,
      "hit": false,
      "t": 507000,
      "d": 500,
      "v": 127
    },
    {
      "midi": 56,
      "hit": false,
      "t": 507500,
      "d": 500,
      "v": 127
    },
    {
      "midi": 59,
      "hit": false,
      "t": 507500,
      "d": 500,
      "v": 127
    },
    {
      "midi": 64,
      "hit": false,
      "t": 507500,
      "d": 500,
      "v": 127
    },
    {
      "midi": 66,
      "hit": false,
      "t": 507750,
      "d": 250,
      "v": 127
    },
    {
      "midi": 69,
      "hit": false,
      "t": 507750,
      "d": 250,
      "v": 127
    },
    {
      "midi": 67,
      "hit": false,
      "t": 508000,
      "d": 1000,
      "v": 127
    },
    {
      "midi": 36,
      "hit": false,
      "t": 508000,
      "d": 500,
      "v": 127
    },
    {
      "midi": 48,
      "hit": false,
      "t": 508000,
      "d": 500,
      "v": 127
    },
    {
      "midi": 55,
      "hit": false,
      "t": 508500,
      "d": 250,
      "v": 127
    },
    {
      "midi": 60,
      "hit": false,
      "t": 508500,
      "d": 250,
      "v": 127
    },
    {
      "midi": 64,
      "hit": false,
      "t": 508500,
      "d": 250,
      "v": 127
    },
    {
      "midi": 55,
      "hit": false,
      "t": 508750,
      "d": 250,
      "v": 127
    },
    {
      "midi": 60,
      "hit": false,
      "t": 508750,
      "d": 250,
      "v": 127
    },
    {
      "midi": 64,
      "hit": false,
      "t": 508750,
      "d": 250,
      "v": 127
    },
    {
      "midi": 55,
      "hit": false,
      "t": 509000,
      "d": 500,
      "v": 127
    },
    {
      "midi": 60,
      "hit": false,
      "t": 509000,
      "d": 500,
      "v": 127
    },
    {
      "midi": 64,
      "hit": false,
      "t": 509000,
      "d": 500,
      "v": 127
    },
    {
      "midi": 55,
      "hit": false,
      "t": 509500,
      "d": 500,
      "v": 127
    },
    {
      "midi": 60,
      "hit": false,
      "t": 509500,
      "d": 500,
      "v": 127
    },
    {
      "midi": 64,
      "hit": false,
      "t": 509500,
      "d": 500,
      "v": 127
    },
    {
      "midi": 71,
      "hit": false,
      "t": 509750,
      "d": 250,
      "v": 127
    },
    {
      "midi": 74,
      "hit": false,
      "t": 509750,
      "d": 250,
      "v": 127
    },
    {
      "midi": 72,
      "hit": false,
      "t": 510000,
      "d": 1000,
      "v": 127
    },
    {
      "midi": 55,
      "hit": false,
      "t": 510000,
      "d": 500,
      "v": 127
    },
    {
      "midi": 60,
      "hit": false,
      "t": 510000,
      "d": 500,
      "v": 127
    },
    {
      "midi": 64,
      "hit": false,
      "t": 510000,
      "d": 500,
      "v": 127
    },
    {
      "midi": 55,
      "hit": false,
      "t": 510500,
      "d": 500,
      "v": 127
    },
    {
      "midi": 60,
      "hit": false,
      "t": 510500,
      "d": 500,
      "v": 127
    },
    {
      "midi": 64,
      "hit": false,
      "t": 510500,
      "d": 500,
      "v": 127
    },
    {
      "midi": 74,
      "hit": false,
      "t": 511000,
      "d": 1000,
      "v": 127
    },
    {
      "midi": 56,
      "hit": false,
      "t": 511000,
      "d": 500,
      "v": 127
    },
    {
      "midi": 59,
      "hit": false,
      "t": 511000,
      "d": 500,
      "v": 127
    },
    {
      "midi": 62,
      "hit": false,
      "t": 511000,
      "d": 500,
      "v": 127
    },
    {
      "midi": 65,
      "hit": false,
      "t": 511000,
      "d": 500,
      "v": 127
    },
    {
      "midi": 56,
      "hit": false,
      "t": 511500,
      "d": 500,
      "v": 127
    },
    {
      "midi": 59,
      "hit": false,
      "t": 511500,
      "d": 500,
      "v": 127
    },
    {
      "midi": 62,
      "hit": false,
      "t": 511500,
      "d": 500,
      "v": 127
    },
    {
      "midi": 65,
      "hit": false,
      "t": 511500,
      "d": 500,
      "v": 127
    },
    {
      "midi": 76,
      "hit": false,
      "t": 512000,
      "d": 1000,
      "v": 127
    },
    {
      "midi": 36,
      "hit": false,
      "t": 512000,
      "d": 500,
      "v": 127
    },
    {
      "midi": 48,
      "hit": false,
      "t": 512000,
      "d": 500,
      "v": 127
    },
    {
      "midi": 55,
      "hit": false,
      "t": 512500,
      "d": 250,
      "v": 127
    },
    {
      "midi": 60,
      "hit": false,
      "t": 512500,
      "d": 250,
      "v": 127
    },
    {
      "midi": 64,
      "hit": false,
      "t": 512500,
      "d": 250,
      "v": 127
    },
    {
      "midi": 55,
      "hit": false,
      "t": 512750,
      "d": 250,
      "v": 127
    },
    {
      "midi": 60,
      "hit": false,
      "t": 512750,
      "d": 250,
      "v": 127
    },
    {
      "midi": 64,
      "hit": false,
      "t": 512750,
      "d": 250,
      "v": 127
    },
    {
      "midi": 76,
      "hit": false,
      "t": 513000,
      "d": 1000,
      "v": 127
    },
    {
      "midi": 55,
      "hit": false,
      "t": 513000,
      "d": 500,
      "v": 127
    },
    {
      "midi": 60,
      "hit": false,
      "t": 513000,
      "d": 500,
      "v": 127
    },
    {
      "midi": 64,
      "hit": false,
      "t": 513000,
      "d": 500,
      "v": 127
    },
    {
      "midi": 55,
      "hit": false,
      "t": 513500,
      "d": 500,
      "v": 127
    },
    {
      "midi": 60,
      "hit": false,
      "t": 513500,
      "d": 500,
      "v": 127
    },
    {
      "midi": 64,
      "hit": false,
      "t": 513500,
      "d": 500,
      "v": 127
    },
    {
      "midi": 76,
      "hit": false,
      "t": 514000,
      "d": 1000,
      "v": 127
    },
    {
      "midi": 48,
      "hit": false,
      "t": 514000,
      "d": 500,
      "v": 127
    },
    {
      "midi": 60,
      "hit": false,
      "t": 514000,
      "d": 500,
      "v": 127
    },
    {
      "midi": 55,
      "hit": false,
      "t": 514500,
      "d": 250,
      "v": 127
    },
    {
      "midi": 60,
      "hit": false,
      "t": 514500,
      "d": 250,
      "v": 127
    },
    {
      "midi": 64,
      "hit": false,
      "t": 514500,
      "d": 250,
      "v": 127
    },
    {
      "midi": 55,
      "hit": false,
      "t": 514750,
      "d": 250,
      "v": 127
    },
    {
      "midi": 60,
      "hit": false,
      "t": 514750,
      "d": 250,
      "v": 127
    },
    {
      "midi": 64,
      "hit": false,
      "t": 514750,
      "d": 250,
      "v": 127
    },
    {
      "midi": 77,
      "hit": false,
      "t": 515000,
      "d": 500,
      "v": 127
    },
    {
      "midi": 55,
      "hit": false,
      "t": 515000,
      "d": 500,
      "v": 127
    },
    {
      "midi": 60,
      "hit": false,
      "t": 515000,
      "d": 500,
      "v": 127
    },
    {
      "midi": 64,
      "hit": false,
      "t": 515000,
      "d": 500,
      "v": 127
    },
    {
      "midi": 76,
      "hit": false,
      "t": 515500,
      "d": 250,
      "v": 127
    },
    {
      "midi": 55,
      "hit": false,
      "t": 515500,
      "d": 500,
      "v": 127
    },
    {
      "midi": 60,
      "hit": false,
      "t": 515500,
      "d": 500,
      "v": 127
    },
    {
      "midi": 64,
      "hit": false,
      "t": 515500,
      "d": 500,
      "v": 127
    },
    {
      "midi": 73,
      "hit": false,
      "t": 515750,
      "d": 250,
      "v": 127
    },
    {
      "midi": 74,
      "hit": false,
      "t": 515750,
      "d": 250,
      "v": 127
    },
    {
      "midi": 74,
      "hit": false,
      "t": 516000,
      "d": 1000,
      "v": 127
    },
    {
      "midi": 43,
      "hit": false,
      "t": 516000,
      "d": 500,
      "v": 127
    },
    {
      "midi": 55,
      "hit": false,
      "t": 516000,
      "d": 500,
      "v": 127
    },
    {
      "midi": 55,
      "hit": false,
      "t": 516500,
      "d": 250,
      "v": 127
    },
    {
      "midi": 59,
      "hit": false,
      "t": 516500,
      "d": 250,
      "v": 127
    },
    {
      "midi": 62,
      "hit": false,
      "t": 516500,
      "d": 250,
      "v": 127
    },
    {
      "midi": 65,
      "hit": false,
      "t": 516500,
      "d": 250,
      "v": 127
    },
    {
      "midi": 55,
      "hit": false,
      "t": 516750,
      "d": 250,
      "v": 127
    },
    {
      "midi": 59,
      "hit": false,
      "t": 516750,
      "d": 250,
      "v": 127
    },
    {
      "midi": 62,
      "hit": false,
      "t": 516750,
      "d": 250,
      "v": 127
    },
    {
      "midi": 65,
      "hit": false,
      "t": 516750,
      "d": 250,
      "v": 127
    },
    {
      "midi": 74,
      "hit": false,
      "t": 517000,
      "d": 1000,
      "v": 127
    },
    {
      "midi": 55,
      "hit": false,
      "t": 517000,
      "d": 500,
      "v": 127
    },
    {
      "midi": 59,
      "hit": false,
      "t": 517000,
      "d": 500,
      "v": 127
    },
    {
      "midi": 62,
      "hit": false,
      "t": 517000,
      "d": 500,
      "v": 127
    },
    {
      "midi": 65,
      "hit": false,
      "t": 517000,
      "d": 500,
      "v": 127
    },
    {
      "midi": 55,
      "hit": false,
      "t": 517500,
      "d": 500,
      "v": 127
    },
    {
      "midi": 59,
      "hit": false,
      "t": 517500,
      "d": 500,
      "v": 127
    },
    {
      "midi": 62,
      "hit": false,
      "t": 517500,
      "d": 500,
      "v": 127
    },
    {
      "midi": 65,
      "hit": false,
      "t": 517500,
      "d": 500,
      "v": 127
    },
    {
      "midi": 81,
      "hit": false,
      "t": 518000,
      "d": 1000,
      "v": 127
    },
    {
      "midi": 43,
      "hit": false,
      "t": 518000,
      "d": 500,
      "v": 127
    },
    {
      "midi": 55,
      "hit": false,
      "t": 518000,
      "d": 500,
      "v": 127
    },
    {
      "midi": 55,
      "hit": false,
      "t": 518500,
      "d": 250,
      "v": 127
    },
    {
      "midi": 59,
      "hit": false,
      "t": 518500,
      "d": 250,
      "v": 127
    },
    {
      "midi": 62,
      "hit": false,
      "t": 518500,
      "d": 250,
      "v": 127
    },
    {
      "midi": 65,
      "hit": false,
      "t": 518500,
      "d": 250,
      "v": 127
    },
    {
      "midi": 55,
      "hit": false,
      "t": 518750,
      "d": 250,
      "v": 127
    },
    {
      "midi": 59,
      "hit": false,
      "t": 518750,
      "d": 250,
      "v": 127
    },
    {
      "midi": 62,
      "hit": false,
      "t": 518750,
      "d": 250,
      "v": 127
    },
    {
      "midi": 65,
      "hit": false,
      "t": 518750,
      "d": 250,
      "v": 127
    },
    {
      "midi": 55,
      "hit": false,
      "t": 519000,
      "d": 500,
      "v": 127
    },
    {
      "midi": 59,
      "hit": false,
      "t": 519000,
      "d": 500,
      "v": 127
    },
    {
      "midi": 62,
      "hit": false,
      "t": 519000,
      "d": 500,
      "v": 127
    },
    {
      "midi": 65,
      "hit": false,
      "t": 519000,
      "d": 500,
      "v": 127
    },
    {
      "midi": 77,
      "hit": false,
      "t": 519500,
      "d": 250,
      "v": 127
    },
    {
      "midi": 79,
      "hit": false,
      "t": 519500,
      "d": 250,
      "v": 127
    },
    {
      "midi": 55,
      "hit": false,
      "t": 519500,
      "d": 500,
      "v": 127
    },
    {
      "midi": 59,
      "hit": false,
      "t": 519500,
      "d": 500,
      "v": 127
    },
    {
      "midi": 62,
      "hit": false,
      "t": 519500,
      "d": 500,
      "v": 127
    },
    {
      "midi": 65,
      "hit": false,
      "t": 519500,
      "d": 500,
      "v": 127
    },
    {
      "midi": 74,
      "hit": false,
      "t": 519750,
      "d": 250,
      "v": 127
    },
    {
      "midi": 76,
      "hit": false,
      "t": 519750,
      "d": 250,
      "v": 127
    },
    {
      "midi": 72,
      "hit": false,
      "t": 520000,
      "d": 1000,
      "v": 127
    },
    {
      "midi": 48,
      "hit": false,
      "t": 520000,
      "d": 500,
      "v": 127
    },
    {
      "midi": 60,
      "hit": false,
      "t": 520000,
      "d": 500,
      "v": 127
    },
    {
      "midi": 55,
      "hit": false,
      "t": 520500,
      "d": 250,
      "v": 127
    },
    {
      "midi": 60,
      "hit": false,
      "t": 520500,
      "d": 250,
      "v": 127
    },
    {
      "midi": 64,
      "hit": false,
      "t": 520500,
      "d": 250,
      "v": 127
    },
    {
      "midi": 55,
      "hit": false,
      "t": 520750,
      "d": 250,
      "v": 127
    },
    {
      "midi": 60,
      "hit": false,
      "t": 520750,
      "d": 250,
      "v": 127
    },
    {
      "midi": 64,
      "hit": false,
      "t": 520750,
      "d": 250,
      "v": 127
    },
    {
      "midi": 55,
      "hit": false,
      "t": 521000,
      "d": 500,
      "v": 127
    },
    {
      "midi": 60,
      "hit": false,
      "t": 521000,
      "d": 500,
      "v": 127
    },
    {
      "midi": 64,
      "hit": false,
      "t": 521000,
      "d": 500,
      "v": 127
    },
    {
      "midi": 55,
      "hit": false,
      "t": 521500,
      "d": 500,
      "v": 127
    },
    {
      "midi": 60,
      "hit": false,
      "t": 521500,
      "d": 500,
      "v": 127
    },
    {
      "midi": 64,
      "hit": false,
      "t": 521500,
      "d": 500,
      "v": 127
    },
    {
      "midi": 71,
      "hit": false,
      "t": 521750,
      "d": 250,
      "v": 127
    },
    {
      "midi": 74,
      "hit": false,
      "t": 521750,
      "d": 250,
      "v": 127
    },
    {
      "midi": 72,
      "hit": false,
      "t": 522000,
      "d": 1000,
      "v": 127
    },
    {
      "midi": 52,
      "hit": false,
      "t": 522000,
      "d": 500,
      "v": 127
    },
    {
      "midi": 55,
      "hit": false,
      "t": 522500,
      "d": 500,
      "v": 127
    },
    {
      "midi": 58,
      "hit": false,
      "t": 522500,
      "d": 500,
      "v": 127
    },
    {
      "midi": 60,
      "hit": false,
      "t": 522500,
      "d": 500,
      "v": 127
    },
    {
      "midi": 48,
      "hit": false,
      "t": 523000,
      "d": 500,
      "v": 127
    },
    {
      "midi": 71,
      "hit": false,
      "t": 523500,
      "d": 250,
      "v": 127
    },
    {
      "midi": 55,
      "hit": false,
      "t": 523500,
      "d": 500,
      "v": 127
    },
    {
      "midi": 58,
      "hit": false,
      "t": 523500,
      "d": 500,
      "v": 127
    },
    {
      "midi": 60,
      "hit": false,
      "t": 523500,
      "d": 500,
      "v": 127
    },
    {
      "midi": 70,
      "hit": false,
      "t": 523750,
      "d": 250,
      "v": 127
    },
    {
      "midi": 69,
      "hit": false,
      "t": 524000,
      "d": 1000,
      "v": 127
    },
    {
      "midi": 53,
      "hit": false,
      "t": 524000,
      "d": 500,
      "v": 127
    },
    {
      "midi": 57,
      "hit": false,
      "t": 524500,
      "d": 250,
      "v": 127
    },
    {
      "midi": 60,
      "hit": false,
      "t": 524500,
      "d": 250,
      "v": 127
    },
    {
      "midi": 65,
      "hit": false,
      "t": 524500,
      "d": 250,
      "v": 127
    },
    {
      "midi": 57,
      "hit": false,
      "t": 524750,
      "d": 250,
      "v": 127
    },
    {
      "midi": 60,
      "hit": false,
      "t": 524750,
      "d": 250,
      "v": 127
    },
    {
      "midi": 65,
      "hit": false,
      "t": 524750,
      "d": 250,
      "v": 127
    },
    {
      "midi": 57,
      "hit": false,
      "t": 525000,
      "d": 500,
      "v": 127
    },
    {
      "midi": 60,
      "hit": false,
      "t": 525000,
      "d": 500,
      "v": 127
    },
    {
      "midi": 65,
      "hit": false,
      "t": 525000,
      "d": 500,
      "v": 127
    },
    {
      "midi": 57,
      "hit": false,
      "t": 525500,
      "d": 500,
      "v": 127
    },
    {
      "midi": 60,
      "hit": false,
      "t": 525500,
      "d": 500,
      "v": 127
    },
    {
      "midi": 65,
      "hit": false,
      "t": 525500,
      "d": 500,
      "v": 127
    },
    {
      "midi": 75,
      "hit": false,
      "t": 525750,
      "d": 250,
      "v": 127
    },
    {
      "midi": 77,
      "hit": false,
      "t": 525750,
      "d": 250,
      "v": 127
    },
    {
      "midi": 76,
      "hit": false,
      "t": 526000,
      "d": 1000,
      "v": 127
    },
    {
      "midi": 56,
      "hit": false,
      "t": 526000,
      "d": 500,
      "v": 127
    },
    {
      "midi": 59,
      "hit": false,
      "t": 526500,
      "d": 500,
      "v": 127
    },
    {
      "midi": 62,
      "hit": false,
      "t": 526500,
      "d": 500,
      "v": 127
    },
    {
      "midi": 64,
      "hit": false,
      "t": 526500,
      "d": 500,
      "v": 127
    },
    {
      "midi": 52,
      "hit": false,
      "t": 527000,
      "d": 500,
      "v": 127
    },
    {
      "midi": 75,
      "hit": false,
      "t": 527500,
      "d": 250,
      "v": 127
    },
    {
      "midi": 59,
      "hit": false,
      "t": 527500,
      "d": 500,
      "v": 127
    },
    {
      "midi": 62,
      "hit": false,
      "t": 527500,
      "d": 500,
      "v": 127
    },
    {
      "midi": 64,
      "hit": false,
      "t": 527500,
      "d": 500,
      "v": 127
    },
    {
      "midi": 74,
      "hit": false,
      "t": 527750,
      "d": 250,
      "v": 127
    },
    {
      "midi": 72,
      "hit": false,
      "t": 528000,
      "d": 1000,
      "v": 127
    },
    {
      "midi": 57,
      "hit": false,
      "t": 528000,
      "d": 500,
      "v": 127
    },
    {
      "midi": 60,
      "hit": false,
      "t": 528500,
      "d": 250,
      "v": 127
    },
    {
      "midi": 64,
      "hit": false,
      "t": 528500,
      "d": 250,
      "v": 127
    },
    {
      "midi": 60,
      "hit": false,
      "t": 528750,
      "d": 250,
      "v": 127
    },
    {
      "midi": 64,
      "hit": false,
      "t": 528750,
      "d": 250,
      "v": 127
    },
    {
      "midi": 60,
      "hit": false,
      "t": 529000,
      "d": 500,
      "v": 127
    },
    {
      "midi": 64,
      "hit": false,
      "t": 529000,
      "d": 500,
      "v": 127
    },
    {
      "midi": 60,
      "hit": false,
      "t": 529500,
      "d": 500,
      "v": 127
    },
    {
      "midi": 64,
      "hit": false,
      "t": 529500,
      "d": 500,
      "v": 127
    },
    {
      "midi": 78,
      "hit": false,
      "t": 529750,
      "d": 250,
      "v": 127
    },
    {
      "midi": 81,
      "hit": false,
      "t": 529750,
      "d": 250,
      "v": 127
    },
    {
      "midi": 79,
      "hit": false,
      "t": 530000,
      "d": 1000,
      "v": 127
    },
    {
      "midi": 59,
      "hit": false,
      "t": 530000,
      "d": 500,
      "v": 127
    },
    {
      "midi": 62,
      "hit": false,
      "t": 530500,
      "d": 500,
      "v": 127
    },
    {
      "midi": 67,
      "hit": false,
      "t": 530500,
      "d": 500,
      "v": 127
    },
    {
      "midi": 79,
      "hit": false,
      "t": 531000,
      "d": 1000,
      "v": 127
    },
    {
      "midi": 55,
      "hit": false,
      "t": 531000,
      "d": 500,
      "v": 127
    },
    {
      "midi": 59,
      "hit": false,
      "t": 531500,
      "d": 500,
      "v": 127
    },
    {
      "midi": 67,
      "hit": false,
      "t": 531500,
      "d": 500,
      "v": 127
    },
    {
      "midi": 81,
      "hit": false,
      "t": 532000,
      "d": 1500,
      "v": 127
    },
    {
      "midi": 48,
      "hit": false,
      "t": 532000,
      "d": 500,
      "v": 127
    },
    {
      "midi": 60,
      "hit": false,
      "t": 532000,
      "d": 500,
      "v": 127
    },
    {
      "midi": 60,
      "hit": false,
      "t": 532500,
      "d": 250,
      "v": 127
    },
    {
      "midi": 64,
      "hit": false,
      "t": 532500,
      "d": 250,
      "v": 127
    },
    {
      "midi": 60,
      "hit": false,
      "t": 532750,
      "d": 250,
      "v": 127
    },
    {
      "midi": 64,
      "hit": false,
      "t": 532750,
      "d": 250,
      "v": 127
    },
    {
      "midi": 60,
      "hit": false,
      "t": 533000,
      "d": 500,
      "v": 127
    },
    {
      "midi": 64,
      "hit": false,
      "t": 533000,
      "d": 500,
      "v": 127
    },
    {
      "midi": 79,
      "hit": false,
      "t": 533500,
      "d": 250,
      "v": 127
    },
    {
      "midi": 60,
      "hit": false,
      "t": 533500,
      "d": 500,
      "v": 127
    },
    {
      "midi": 64,
      "hit": false,
      "t": 533500,
      "d": 500,
      "v": 127
    },
    {
      "midi": 77,
      "hit": false,
      "t": 533750,
      "d": 250,
      "v": 127
    },
    {
      "midi": 76,
      "hit": false,
      "t": 534000,
      "d": 1000,
      "v": 127
    },
    {
      "midi": 44,
      "hit": false,
      "t": 534000,
      "d": 500,
      "v": 127
    },
    {
      "midi": 56,
      "hit": false,
      "t": 534000,
      "d": 500,
      "v": 127
    },
    {
      "midi": 56,
      "hit": false,
      "t": 534500,
      "d": 250,
      "v": 127
    },
    {
      "midi": 60,
      "hit": false,
      "t": 534500,
      "d": 250,
      "v": 127
    },
    {
      "midi": 65,
      "hit": false,
      "t": 534500,
      "d": 250,
      "v": 127
    },
    {
      "midi": 56,
      "hit": false,
      "t": 534750,
      "d": 250,
      "v": 127
    },
    {
      "midi": 60,
      "hit": false,
      "t": 534750,
      "d": 250,
      "v": 127
    },
    {
      "midi": 65,
      "hit": false,
      "t": 534750,
      "d": 250,
      "v": 127
    },
    {
      "midi": 56,
      "hit": false,
      "t": 535000,
      "d": 500,
      "v": 127
    },
    {
      "midi": 60,
      "hit": false,
      "t": 535000,
      "d": 500,
      "v": 127
    },
    {
      "midi": 65,
      "hit": false,
      "t": 535000,
      "d": 500,
      "v": 127
    },
    {
      "midi": 74,
      "hit": false,
      "t": 535500,
      "d": 250,
      "v": 127
    },
    {
      "midi": 56,
      "hit": false,
      "t": 535500,
      "d": 500,
      "v": 127
    },
    {
      "midi": 60,
      "hit": false,
      "t": 535500,
      "d": 500,
      "v": 127
    },
    {
      "midi": 65,
      "hit": false,
      "t": 535500,
      "d": 500,
      "v": 127
    },
    {
      "midi": 76,
      "hit": false,
      "t": 535750,
      "d": 250,
      "v": 127
    },
    {
      "midi": 72,
      "hit": false,
      "t": 536000,
      "d": 1500,
      "v": 127
    },
    {
      "midi": 43,
      "hit": false,
      "t": 536000,
      "d": 500,
      "v": 127
    },
    {
      "midi": 55,
      "hit": false,
      "t": 536000,
      "d": 500,
      "v": 127
    },
    {
      "midi": 55,
      "hit": false,
      "t": 536500,
      "d": 250,
      "v": 127
    },
    {
      "midi": 60,
      "hit": false,
      "t": 536500,
      "d": 250,
      "v": 127
    },
    {
      "midi": 64,
      "hit": false,
      "t": 536500,
      "d": 250,
      "v": 127
    },
    {
      "midi": 55,
      "hit": false,
      "t": 536750,
      "d": 250,
      "v": 127
    },
    {
      "midi": 60,
      "hit": false,
      "t": 536750,
      "d": 250,
      "v": 127
    },
    {
      "midi": 64,
      "hit": false,
      "t": 536750,
      "d": 250,
      "v": 127
    },
    {
      "midi": 55,
      "hit": false,
      "t": 537000,
      "d": 500,
      "v": 127
    },
    {
      "midi": 60,
      "hit": false,
      "t": 537000,
      "d": 500,
      "v": 127
    },
    {
      "midi": 64,
      "hit": false,
      "t": 537000,
      "d": 500,
      "v": 127
    },
    {
      "midi": 66,
      "hit": false,
      "t": 537500,
      "d": 250,
      "v": 127
    },
    {
      "midi": 55,
      "hit": false,
      "t": 537500,
      "d": 500,
      "v": 127
    },
    {
      "midi": 60,
      "hit": false,
      "t": 537500,
      "d": 500,
      "v": 127
    },
    {
      "midi": 64,
      "hit": false,
      "t": 537500,
      "d": 500,
      "v": 127
    },
    {
      "midi": 67,
      "hit": false,
      "t": 537750,
      "d": 250,
      "v": 127
    },
    {
      "midi": 69,
      "hit": false,
      "t": 538000,
      "d": 1000,
      "v": 127
    },
    {
      "midi": 43,
      "hit": false,
      "t": 538000,
      "d": 500,
      "v": 127
    },
    {
      "midi": 55,
      "hit": false,
      "t": 538000,
      "d": 500,
      "v": 127
    },
    {
      "midi": 53,
      "hit": false,
      "t": 538500,
      "d": 250,
      "v": 127
    },
    {
      "midi": 55,
      "hit": false,
      "t": 538500,
      "d": 250,
      "v": 127
    },
    {
      "midi": 59,
      "hit": false,
      "t": 538500,
      "d": 250,
      "v": 127
    },
    {
      "midi": 53,
      "hit": false,
      "t": 538750,
      "d": 250,
      "v": 127
    },
    {
      "midi": 55,
      "hit": false,
      "t": 538750,
      "d": 250,
      "v": 127
    },
    {
      "midi": 59,
      "hit": false,
      "t": 538750,
      "d": 250,
      "v": 127
    },
    {
      "midi": 53,
      "hit": false,
      "t": 539000,
      "d": 500,
      "v": 127
    },
    {
      "midi": 55,
      "hit": false,
      "t": 539000,
      "d": 500,
      "v": 127
    },
    {
      "midi": 59,
      "hit": false,
      "t": 539000,
      "d": 500,
      "v": 127
    },
    {
      "midi": 67,
      "hit": false,
      "t": 539500,
      "d": 250,
      "v": 127
    },
    {
      "midi": 53,
      "hit": false,
      "t": 539500,
      "d": 500,
      "v": 127
    },
    {
      "midi": 55,
      "hit": false,
      "t": 539500,
      "d": 500,
      "v": 127
    },
    {
      "midi": 59,
      "hit": false,
      "t": 539500,
      "d": 500,
      "v": 127
    },
    {
      "midi": 65,
      "hit": false,
      "t": 539750,
      "d": 250,
      "v": 127
    },
    {
      "midi": 64,
      "hit": false,
      "t": 540000,
      "d": 1000,
      "v": 127
    },
    {
      "midi": 48,
      "hit": false,
      "t": 540000,
      "d": 500,
      "v": 127
    },
    {
      "midi": 52,
      "hit": false,
      "t": 540500,
      "d": 250,
      "v": 127
    },
    {
      "midi": 55,
      "hit": false,
      "t": 540500,
      "d": 250,
      "v": 127
    },
    {
      "midi": 60,
      "hit": false,
      "t": 540500,
      "d": 250,
      "v": 127
    },
    {
      "midi": 52,
      "hit": false,
      "t": 540750,
      "d": 250,
      "v": 127
    },
    {
      "midi": 55,
      "hit": false,
      "t": 540750,
      "d": 250,
      "v": 127
    },
    {
      "midi": 60,
      "hit": false,
      "t": 540750,
      "d": 250,
      "v": 127
    },
    {
      "midi": 52,
      "hit": false,
      "t": 541000,
      "d": 500,
      "v": 127
    },
    {
      "midi": 55,
      "hit": false,
      "t": 541000,
      "d": 500,
      "v": 127
    },
    {
      "midi": 60,
      "hit": false,
      "t": 541000,
      "d": 500,
      "v": 127
    },
    {
      "midi": 52,
      "hit": false,
      "t": 541500,
      "d": 500,
      "v": 127
    },
    {
      "midi": 55,
      "hit": false,
      "t": 541500,
      "d": 500,
      "v": 127
    },
    {
      "midi": 60,
      "hit": false,
      "t": 541500,
      "d": 500,
      "v": 127
    },
    {
      "midi": 71,
      "hit": false,
      "t": 541750,
      "d": 250,
      "v": 127
    },
    {
      "midi": 74,
      "hit": false,
      "t": 541750,
      "d": 250,
      "v": 127
    },
    {
      "midi": 72,
      "hit": false,
      "t": 542000,
      "d": 1000,
      "v": 127
    },
    {
      "midi": 52,
      "hit": false,
      "t": 542000,
      "d": 500,
      "v": 127
    },
    {
      "midi": 55,
      "hit": false,
      "t": 542500,
      "d": 500,
      "v": 127
    },
    {
      "midi": 58,
      "hit": false,
      "t": 542500,
      "d": 500,
      "v": 127
    },
    {
      "midi": 60,
      "hit": false,
      "t": 542500,
      "d": 500,
      "v": 127
    },
    {
      "midi": 48,
      "hit": false,
      "t": 543000,
      "d": 500,
      "v": 127
    },
    {
      "midi": 71,
      "hit": false,
      "t": 543500,
      "d": 250,
      "v": 127
    },
    {
      "midi": 55,
      "hit": false,
      "t": 543500,
      "d": 500,
      "v": 127
    },
    {
      "midi": 58,
      "hit": false,
      "t": 543500,
      "d": 500,
      "v": 127
    },
    {
      "midi": 60,
      "hit": false,
      "t": 543500,
      "d": 500,
      "v": 127
    },
    {
      "midi": 70,
      "hit": false,
      "t": 543750,
      "d": 250,
      "v": 127
    },
    {
      "midi": 69,
      "hit": false,
      "t": 544000,
      "d": 1000,
      "v": 127
    },
    {
      "midi": 53,
      "hit": false,
      "t": 544000,
      "d": 500,
      "v": 127
    },
    {
      "midi": 60,
      "hit": false,
      "t": 544500,
      "d": 500,
      "v": 127
    },
    {
      "midi": 65,
      "hit": false,
      "t": 544500,
      "d": 500,
      "v": 127
    },
    {
      "midi": 57,
      "hit": false,
      "t": 545000,
      "d": 500,
      "v": 127
    },
    {
      "midi": 60,
      "hit": false,
      "t": 545500,
      "d": 500,
      "v": 127
    },
    {
      "midi": 65,
      "hit": false,
      "t": 545500,
      "d": 500,
      "v": 127
    },
    {
      "midi": 75,
      "hit": false,
      "t": 545750,
      "d": 250,
      "v": 127
    },
    {
      "midi": 77,
      "hit": false,
      "t": 545750,
      "d": 250,
      "v": 127
    },
    {
      "midi": 76,
      "hit": false,
      "t": 546000,
      "d": 1000,
      "v": 127
    },
    {
      "midi": 56,
      "hit": false,
      "t": 546000,
      "d": 500,
      "v": 127
    },
    {
      "midi": 59,
      "hit": false,
      "t": 546500,
      "d": 500,
      "v": 127
    },
    {
      "midi": 64,
      "hit": false,
      "t": 546500,
      "d": 500,
      "v": 127
    },
    {
      "midi": 52,
      "hit": false,
      "t": 547000,
      "d": 500,
      "v": 127
    },
    {
      "midi": 75,
      "hit": false,
      "t": 547500,
      "d": 250,
      "v": 127
    },
    {
      "midi": 56,
      "hit": false,
      "t": 547500,
      "d": 500,
      "v": 127
    },
    {
      "midi": 59,
      "hit": false,
      "t": 547500,
      "d": 500,
      "v": 127
    },
    {
      "midi": 64,
      "hit": false,
      "t": 547500,
      "d": 500,
      "v": 127
    },
    {
      "midi": 74,
      "hit": false,
      "t": 547750,
      "d": 250,
      "v": 127
    },
    {
      "midi": 72,
      "hit": false,
      "t": 548000,
      "d": 1000,
      "v": 127
    },
    {
      "midi": 57,
      "hit": false,
      "t": 548000,
      "d": 500,
      "v": 127
    },
    {
      "midi": 64,
      "hit": false,
      "t": 548500,
      "d": 500,
      "v": 127
    },
    {
      "midi": 60,
      "hit": false,
      "t": 549000,
      "d": 500,
      "v": 127
    },
    {
      "midi": 64,
      "hit": false,
      "t": 549500,
      "d": 500,
      "v": 127
    },
    {
      "midi": 78,
      "hit": false,
      "t": 549750,
      "d": 250,
      "v": 127
    },
    {
      "midi": 81,
      "hit": false,
      "t": 549750,
      "d": 250,
      "v": 127
    },
    {
      "midi": 79,
      "hit": false,
      "t": 550000,
      "d": 1000,
      "v": 127
    },
    {
      "midi": 59,
      "hit": false,
      "t": 550000,
      "d": 500,
      "v": 127
    },
    {
      "midi": 62,
      "hit": false,
      "t": 550500,
      "d": 500,
      "v": 127
    },
    {
      "midi": 67,
      "hit": false,
      "t": 550500,
      "d": 500,
      "v": 127
    },
    {
      "midi": 55,
      "hit": false,
      "t": 551000,
      "d": 500,
      "v": 127
    },
    {
      "midi": 78,
      "hit": false,
      "t": 551500,
      "d": 250,
      "v": 127
    },
    {
      "midi": 59,
      "hit": false,
      "t": 551500,
      "d": 500,
      "v": 127
    },
    {
      "midi": 62,
      "hit": false,
      "t": 551500,
      "d": 500,
      "v": 127
    },
    {
      "midi": 67,
      "hit": false,
      "t": 551500,
      "d": 500,
      "v": 127
    },
    {
      "midi": 77,
      "hit": false,
      "t": 551750,
      "d": 250,
      "v": 127
    },
    {
      "midi": 76,
      "hit": false,
      "t": 552000,
      "d": 1000,
      "v": 127
    },
    {
      "midi": 48,
      "hit": false,
      "t": 552000,
      "d": 500,
      "v": 127
    },
    {
      "midi": 60,
      "hit": false,
      "t": 552000,
      "d": 500,
      "v": 127
    },
    {
      "midi": 60,
      "hit": false,
      "t": 552500,
      "d": 500,
      "v": 127
    },
    {
      "midi": 64,
      "hit": false,
      "t": 552500,
      "d": 500,
      "v": 127
    },
    {
      "midi": 79,
      "hit": false,
      "t": 553000,
      "d": 1000,
      "v": 127
    },
    {
      "midi": 48,
      "hit": false,
      "t": 553000,
      "d": 500,
      "v": 127
    },
    {
      "midi": 60,
      "hit": false,
      "t": 553000,
      "d": 500,
      "v": 127
    },
    {
      "midi": 60,
      "hit": false,
      "t": 553500,
      "d": 500,
      "v": 127
    },
    {
      "midi": 64,
      "hit": false,
      "t": 553500,
      "d": 500,
      "v": 127
    },
    {
      "midi": 81,
      "hit": false,
      "t": 554000,
      "d": 1000,
      "v": 127
    },
    {
      "midi": 48,
      "hit": false,
      "t": 554000,
      "d": 500,
      "v": 127
    },
    {
      "midi": 60,
      "hit": false,
      "t": 554000,
      "d": 500,
      "v": 127
    },
    {
      "midi": 60,
      "hit": false,
      "t": 554500,
      "d": 500,
      "v": 127
    },
    {
      "midi": 65,
      "hit": false,
      "t": 554500,
      "d": 500,
      "v": 127
    },
    {
      "midi": 82,
      "hit": false,
      "t": 555000,
      "d": 1000,
      "v": 127
    },
    {
      "midi": 48,
      "hit": false,
      "t": 555000,
      "d": 500,
      "v": 127
    },
    {
      "midi": 60,
      "hit": false,
      "t": 555000,
      "d": 500,
      "v": 127
    },
    {
      "midi": 60,
      "hit": false,
      "t": 555500,
      "d": 500,
      "v": 127
    },
    {
      "midi": 67,
      "hit": false,
      "t": 555500,
      "d": 500,
      "v": 127
    },
    {
      "midi": 82,
      "hit": false,
      "t": 556000,
      "d": 1500,
      "v": 127
    },
    {
      "midi": 53,
      "hit": false,
      "t": 556000,
      "d": 1000,
      "v": 127
    },
    {
      "midi": 60,
      "hit": false,
      "t": 556000,
      "d": 1000,
      "v": 127
    },
    {
      "midi": 65,
      "hit": false,
      "t": 556000,
      "d": 1000,
      "v": 127
    },
    {
      "midi": 81,
      "hit": false,
      "t": 557500,
      "d": 500,
      "v": 127
    },
    {
      "midi": 79,
      "hit": false,
      "t": 558000,
      "d": 500,
      "v": 127
    },
    {
      "midi": 77,
      "hit": false,
      "t": 558500,
      "d": 500,
      "v": 127
    },
    {
      "midi": 76,
      "hit": false,
      "t": 559000,
      "d": 500,
      "v": 127
    },
    {
      "midi": 74,
      "hit": false,
      "t": 559500,
      "d": 500,
      "v": 127
    },
    {
      "midi": 79,
      "hit": false,
      "t": 560000,
      "d": 500,
      "v": 127
    },
    {
      "midi": 67,
      "hit": false,
      "t": 560500,
      "d": 250,
      "v": 127
    },
    {
      "midi": 72,
      "hit": false,
      "t": 560500,
      "d": 250,
      "v": 127
    },
    {
      "midi": 76,
      "hit": false,
      "t": 560500,
      "d": 250,
      "v": 127
    },
    {
      "midi": 43,
      "hit": false,
      "t": 560500,
      "d": 250,
      "v": 127
    },
    {
      "midi": 48,
      "hit": false,
      "t": 560500,
      "d": 250,
      "v": 127
    },
    {
      "midi": 52,
      "hit": false,
      "t": 560500,
      "d": 250,
      "v": 127
    },
    {
      "midi": 55,
      "hit": false,
      "t": 560500,
      "d": 250,
      "v": 127
    },
    {
      "midi": 67,
      "hit": false,
      "t": 560750,
      "d": 250,
      "v": 127
    },
    {
      "midi": 72,
      "hit": false,
      "t": 560750,
      "d": 250,
      "v": 127
    },
    {
      "midi": 76,
      "hit": false,
      "t": 560750,
      "d": 250,
      "v": 127
    },
    {
      "midi": 43,
      "hit": false,
      "t": 560750,
      "d": 250,
      "v": 127
    },
    {
      "midi": 48,
      "hit": false,
      "t": 560750,
      "d": 250,
      "v": 127
    },
    {
      "midi": 52,
      "hit": false,
      "t": 560750,
      "d": 250,
      "v": 127
    },
    {
      "midi": 55,
      "hit": false,
      "t": 560750,
      "d": 250,
      "v": 127
    },
    {
      "midi": 67,
      "hit": false,
      "t": 561000,
      "d": 500,
      "v": 127
    },
    {
      "midi": 72,
      "hit": false,
      "t": 561000,
      "d": 500,
      "v": 127
    },
    {
      "midi": 76,
      "hit": false,
      "t": 561000,
      "d": 500,
      "v": 127
    },
    {
      "midi": 43,
      "hit": false,
      "t": 561000,
      "d": 500,
      "v": 127
    },
    {
      "midi": 48,
      "hit": false,
      "t": 561000,
      "d": 500,
      "v": 127
    },
    {
      "midi": 52,
      "hit": false,
      "t": 561000,
      "d": 500,
      "v": 127
    },
    {
      "midi": 55,
      "hit": false,
      "t": 561000,
      "d": 500,
      "v": 127
    },
    {
      "midi": 67,
      "hit": false,
      "t": 561500,
      "d": 500,
      "v": 127
    },
    {
      "midi": 72,
      "hit": false,
      "t": 561500,
      "d": 500,
      "v": 127
    },
    {
      "midi": 76,
      "hit": false,
      "t": 561500,
      "d": 500,
      "v": 127
    },
    {
      "midi": 43,
      "hit": false,
      "t": 561500,
      "d": 500,
      "v": 127
    },
    {
      "midi": 48,
      "hit": false,
      "t": 561500,
      "d": 500,
      "v": 127
    },
    {
      "midi": 52,
      "hit": false,
      "t": 561500,
      "d": 500,
      "v": 127
    },
    {
      "midi": 55,
      "hit": false,
      "t": 561500,
      "d": 500,
      "v": 127
    },
    {
      "midi": 67,
      "hit": false,
      "t": 562000,
      "d": 500,
      "v": 127
    },
    {
      "midi": 72,
      "hit": false,
      "t": 562000,
      "d": 500,
      "v": 127
    },
    {
      "midi": 76,
      "hit": false,
      "t": 562000,
      "d": 500,
      "v": 127
    },
    {
      "midi": 43,
      "hit": false,
      "t": 562000,
      "d": 500,
      "v": 127
    },
    {
      "midi": 48,
      "hit": false,
      "t": 562000,
      "d": 500,
      "v": 127
    },
    {
      "midi": 52,
      "hit": false,
      "t": 562000,
      "d": 500,
      "v": 127
    },
    {
      "midi": 55,
      "hit": false,
      "t": 562000,
      "d": 500,
      "v": 127
    },
    {
      "midi": 67,
      "hit": false,
      "t": 562500,
      "d": 500,
      "v": 127
    },
    {
      "midi": 72,
      "hit": false,
      "t": 562500,
      "d": 500,
      "v": 127
    },
    {
      "midi": 76,
      "hit": false,
      "t": 562500,
      "d": 500,
      "v": 127
    },
    {
      "midi": 43,
      "hit": false,
      "t": 562500,
      "d": 500,
      "v": 127
    },
    {
      "midi": 48,
      "hit": false,
      "t": 562500,
      "d": 500,
      "v": 127
    },
    {
      "midi": 52,
      "hit": false,
      "t": 562500,
      "d": 500,
      "v": 127
    },
    {
      "midi": 55,
      "hit": false,
      "t": 562500,
      "d": 500,
      "v": 127
    },
    {
      "midi": 67,
      "hit": false,
      "t": 563000,
      "d": 500,
      "v": 127
    },
    {
      "midi": 72,
      "hit": false,
      "t": 563000,
      "d": 500,
      "v": 127
    },
    {
      "midi": 76,
      "hit": false,
      "t": 563000,
      "d": 500,
      "v": 127
    },
    {
      "midi": 43,
      "hit": false,
      "t": 563000,
      "d": 500,
      "v": 127
    },
    {
      "midi": 48,
      "hit": false,
      "t": 563000,
      "d": 500,
      "v": 127
    },
    {
      "midi": 52,
      "hit": false,
      "t": 563000,
      "d": 500,
      "v": 127
    },
    {
      "midi": 55,
      "hit": false,
      "t": 563000,
      "d": 500,
      "v": 127
    },
    {
      "midi": 67,
      "hit": false,
      "t": 563500,
      "d": 500,
      "v": 127
    },
    {
      "midi": 72,
      "hit": false,
      "t": 563500,
      "d": 500,
      "v": 127
    },
    {
      "midi": 76,
      "hit": false,
      "t": 563500,
      "d": 500,
      "v": 127
    },
    {
      "midi": 79,
      "hit": false,
      "t": 563500,
      "d": 500,
      "v": 127
    },
    {
      "midi": 43,
      "hit": false,
      "t": 563500,
      "d": 500,
      "v": 127
    },
    {
      "midi": 48,
      "hit": false,
      "t": 563500,
      "d": 500,
      "v": 127
    },
    {
      "midi": 52,
      "hit": false,
      "t": 563500,
      "d": 500,
      "v": 127
    },
    {
      "midi": 55,
      "hit": false,
      "t": 563500,
      "d": 500,
      "v": 127
    },
    {
      "midi": 77,
      "hit": false,
      "t": 564000,
      "d": 2000,
      "v": 127
    },
    {
      "midi": 81,
      "hit": false,
      "t": 564000,
      "d": 2000,
      "v": 127
    },
    {
      "midi": 43,
      "hit": false,
      "t": 564000,
      "d": 1000,
      "v": 127
    },
    {
      "midi": 47,
      "hit": false,
      "t": 564000,
      "d": 1000,
      "v": 127
    },
    {
      "midi": 50,
      "hit": false,
      "t": 564000,
      "d": 1000,
      "v": 127
    },
    {
      "midi": 55,
      "hit": false,
      "t": 564000,
      "d": 1000,
      "v": 127
    },
    {
      "midi": 79,
      "hit": false,
      "t": 566500,
      "d": 500,
      "v": 127
    },
    {
      "midi": 77,
      "hit": false,
      "t": 567000,
      "d": 500,
      "v": 127
    },
    {
      "midi": 76,
      "hit": false,
      "t": 567500,
      "d": 500,
      "v": 127
    },
    {
      "midi": 73,
      "hit": false,
      "t": 568000,
      "d": 250,
      "v": 127
    },
    {
      "midi": 74,
      "hit": false,
      "t": 568250,
      "d": 250,
      "v": 127
    },
    {
      "midi": 77,
      "hit": false,
      "t": 568500,
      "d": 1500,
      "v": 127
    },
    {
      "midi": 76,
      "hit": false,
      "t": 570000,
      "d": 500,
      "v": 127
    },
    {
      "midi": 72,
      "hit": false,
      "t": 570500,
      "d": 500,
      "v": 127
    },
    {
      "midi": 36,
      "hit": false,
      "t": 570500,
      "d": 500,
      "v": 127
    },
    {
      "midi": 48,
      "hit": false,
      "t": 570500,
      "d": 500,
      "v": 127
    },
    {
      "midi": 84,
      "hit": false,
      "t": 571000,
      "d": 250,
      "v": 127
    },
    {
      "midi": 88,
      "hit": false,
      "t": 571000,
      "d": 250,
      "v": 127
    },
    {
      "midi": 36,
      "hit": false,
      "t": 571000,
      "d": 500,
      "v": 127
    },
    {
      "midi": 48,
      "hit": false,
      "t": 571000,
      "d": 500,
      "v": 127
    },
    {
      "midi": 76,
      "hit": false,
      "t": 571250,
      "d": 250,
      "v": 127
    },
    {
      "midi": 84,
      "hit": false,
      "t": 571500,
      "d": 250,
      "v": 127
    },
    {
      "midi": 88,
      "hit": false,
      "t": 571500,
      "d": 250,
      "v": 127
    },
    {
      "midi": 36,
      "hit": false,
      "t": 571500,
      "d": 500,
      "v": 127
    },
    {
      "midi": 48,
      "hit": false,
      "t": 571500,
      "d": 500,
      "v": 127
    },
    {
      "midi": 76,
      "hit": false,
      "t": 571750,
      "d": 250,
      "v": 127
    },
    {
      "midi": 84,
      "hit": false,
      "t": 572000,
      "d": 250,
      "v": 127
    },
    {
      "midi": 88,
      "hit": false,
      "t": 572000,
      "d": 250,
      "v": 127
    },
    {
      "midi": 36,
      "hit": false,
      "t": 572000,
      "d": 500,
      "v": 127
    },
    {
      "midi": 48,
      "hit": false,
      "t": 572000,
      "d": 500,
      "v": 127
    },
    {
      "midi": 76,
      "hit": false,
      "t": 572250,
      "d": 250,
      "v": 127
    },
    {
      "midi": 84,
      "hit": false,
      "t": 572500,
      "d": 1000,
      "v": 127
    },
    {
      "midi": 91,
      "hit": false,
      "t": 572500,
      "d": 1000,
      "v": 127
    },
    {
      "midi": 46,
      "hit": false,
      "t": 572500,
      "d": 500,
      "v": 127
    },
    {
      "midi": 58,
      "hit": false,
      "t": 572500,
      "d": 500,
      "v": 127
    },
    {
      "midi": 46,
      "hit": false,
      "t": 573000,
      "d": 500,
      "v": 127
    },
    {
      "midi": 58,
      "hit": false,
      "t": 573000,
      "d": 500,
      "v": 127
    },
    {
      "midi": 79,
      "hit": false,
      "t": 573500,
      "d": 1000,
      "v": 127
    },
    {
      "midi": 46,
      "hit": false,
      "t": 573500,
      "d": 500,
      "v": 127
    },
    {
      "midi": 58,
      "hit": false,
      "t": 573500,
      "d": 500,
      "v": 127
    },
    {
      "midi": 46,
      "hit": false,
      "t": 574000,
      "d": 500,
      "v": 127
    },
    {
      "midi": 58,
      "hit": false,
      "t": 574000,
      "d": 500,
      "v": 127
    },
    {
      "midi": 84,
      "hit": false,
      "t": 574500,
      "d": 500,
      "v": 127
    },
    {
      "midi": 90,
      "hit": false,
      "t": 574500,
      "d": 500,
      "v": 127
    },
    {
      "midi": 45,
      "hit": false,
      "t": 574500,
      "d": 500,
      "v": 127
    },
    {
      "midi": 57,
      "hit": false,
      "t": 574500,
      "d": 500,
      "v": 127
    },
    {
      "midi": 45,
      "hit": false,
      "t": 575000,
      "d": 500,
      "v": 127
    },
    {
      "midi": 57,
      "hit": false,
      "t": 575000,
      "d": 500,
      "v": 127
    },
    {
      "midi": 78,
      "hit": false,
      "t": 575500,
      "d": 1000,
      "v": 127
    },
    {
      "midi": 45,
      "hit": false,
      "t": 575500,
      "d": 500,
      "v": 127
    },
    {
      "midi": 57,
      "hit": false,
      "t": 575500,
      "d": 500,
      "v": 127
    },
    {
      "midi": 45,
      "hit": false,
      "t": 576000,
      "d": 500,
      "v": 127
    },
    {
      "midi": 57,
      "hit": false,
      "t": 576000,
      "d": 500,
      "v": 127
    },
    {
      "midi": 84,
      "hit": false,
      "t": 576500,
      "d": 1000,
      "v": 127
    },
    {
      "midi": 89,
      "hit": false,
      "t": 576500,
      "d": 1000,
      "v": 127
    },
    {
      "midi": 44,
      "hit": false,
      "t": 576500,
      "d": 500,
      "v": 127
    },
    {
      "midi": 56,
      "hit": false,
      "t": 576500,
      "d": 500,
      "v": 127
    },
    {
      "midi": 44,
      "hit": false,
      "t": 577000,
      "d": 500,
      "v": 127
    },
    {
      "midi": 56,
      "hit": false,
      "t": 577000,
      "d": 500,
      "v": 127
    },
    {
      "midi": 77,
      "hit": false,
      "t": 577500,
      "d": 1000,
      "v": 127
    },
    {
      "midi": 44,
      "hit": false,
      "t": 577500,
      "d": 500,
      "v": 127
    },
    {
      "midi": 56,
      "hit": false,
      "t": 577500,
      "d": 500,
      "v": 127
    },
    {
      "midi": 44,
      "hit": false,
      "t": 578000,
      "d": 500,
      "v": 127
    },
    {
      "midi": 56,
      "hit": false,
      "t": 578000,
      "d": 500,
      "v": 127
    },
    {
      "midi": 84,
      "hit": false,
      "t": 578500,
      "d": 250,
      "v": 127
    },
    {
      "midi": 88,
      "hit": false,
      "t": 578500,
      "d": 250,
      "v": 127
    },
    {
      "midi": 43,
      "hit": false,
      "t": 578500,
      "d": 500,
      "v": 127
    },
    {
      "midi": 55,
      "hit": false,
      "t": 578500,
      "d": 500,
      "v": 127
    },
    {
      "midi": 76,
      "hit": false,
      "t": 578750,
      "d": 250,
      "v": 127
    },
    {
      "midi": 84,
      "hit": false,
      "t": 579000,
      "d": 250,
      "v": 127
    },
    {
      "midi": 88,
      "hit": false,
      "t": 579000,
      "d": 250,
      "v": 127
    },
    {
      "midi": 43,
      "hit": false,
      "t": 579000,
      "d": 500,
      "v": 127
    },
    {
      "midi": 55,
      "hit": false,
      "t": 579000,
      "d": 500,
      "v": 127
    },
    {
      "midi": 76,
      "hit": false,
      "t": 579250,
      "d": 250,
      "v": 127
    },
    {
      "midi": 83,
      "hit": false,
      "t": 579500,
      "d": 250,
      "v": 127
    },
    {
      "midi": 87,
      "hit": false,
      "t": 579500,
      "d": 250,
      "v": 127
    },
    {
      "midi": 35,
      "hit": false,
      "t": 579500,
      "d": 500,
      "v": 127
    },
    {
      "midi": 47,
      "hit": false,
      "t": 579500,
      "d": 500,
      "v": 127
    },
    {
      "midi": 78,
      "hit": false,
      "t": 579750,
      "d": 250,
      "v": 127
    },
    {
      "midi": 83,
      "hit": false,
      "t": 580000,
      "d": 250,
      "v": 127
    },
    {
      "midi": 87,
      "hit": false,
      "t": 580000,
      "d": 250,
      "v": 127
    },
    {
      "midi": 35,
      "hit": false,
      "t": 580000,
      "d": 500,
      "v": 127
    },
    {
      "midi": 47,
      "hit": false,
      "t": 580000,
      "d": 500,
      "v": 127
    },
    {
      "midi": 78,
      "hit": false,
      "t": 580250,
      "d": 250,
      "v": 127
    },
    {
      "midi": 79,
      "hit": false,
      "t": 580500,
      "d": 250,
      "v": 127
    },
    {
      "midi": 83,
      "hit": false,
      "t": 580500,
      "d": 250,
      "v": 127
    },
    {
      "midi": 88,
      "hit": false,
      "t": 580500,
      "d": 250,
      "v": 127
    },
    {
      "midi": 40,
      "hit": false,
      "t": 580500,
      "d": 500,
      "v": 127
    },
    {
      "midi": 52,
      "hit": false,
      "t": 580500,
      "d": 500,
      "v": 127
    },
    {
      "midi": 76,
      "hit": false,
      "t": 580750,
      "d": 250,
      "v": 127
    },
    {
      "midi": 79,
      "hit": false,
      "t": 581000,
      "d": 250,
      "v": 127
    },
    {
      "midi": 83,
      "hit": false,
      "t": 581000,
      "d": 250,
      "v": 127
    },
    {
      "midi": 88,
      "hit": false,
      "t": 581000,
      "d": 250,
      "v": 127
    },
    {
      "midi": 40,
      "hit": false,
      "t": 581000,
      "d": 500,
      "v": 127
    },
    {
      "midi": 52,
      "hit": false,
      "t": 581000,
      "d": 500,
      "v": 127
    },
    {
      "midi": 76,
      "hit": false,
      "t": 581250,
      "d": 250,
      "v": 127
    },
    {
      "midi": 81,
      "hit": false,
      "t": 581500,
      "d": 250,
      "v": 127
    },
    {
      "midi": 89,
      "hit": false,
      "t": 581500,
      "d": 250,
      "v": 127
    },
    {
      "midi": 38,
      "hit": false,
      "t": 581500,
      "d": 500,
      "v": 127
    },
    {
      "midi": 50,
      "hit": false,
      "t": 581500,
      "d": 500,
      "v": 127
    },
    {
      "midi": 77,
      "hit": false,
      "t": 581750,
      "d": 250,
      "v": 127
    },
    {
      "midi": 81,
      "hit": false,
      "t": 582000,
      "d": 250,
      "v": 127
    },
    {
      "midi": 89,
      "hit": false,
      "t": 582000,
      "d": 250,
      "v": 127
    },
    {
      "midi": 38,
      "hit": false,
      "t": 582000,
      "d": 500,
      "v": 127
    },
    {
      "midi": 50,
      "hit": false,
      "t": 582000,
      "d": 500,
      "v": 127
    },
    {
      "midi": 77,
      "hit": false,
      "t": 582250,
      "d": 250,
      "v": 127
    },
    {
      "midi": 76,
      "hit": false,
      "t": 582500,
      "d": 500,
      "v": 127
    },
    {
      "midi": 88,
      "hit": false,
      "t": 582500,
      "d": 500,
      "v": 127
    },
    {
      "midi": 43,
      "hit": false,
      "t": 582500,
      "d": 500,
      "v": 127
    },
    {
      "midi": 48,
      "hit": false,
      "t": 582500,
      "d": 500,
      "v": 127
    },
    {
      "midi": 52,
      "hit": false,
      "t": 582500,
      "d": 500,
      "v": 127
    },
    {
      "midi": 55,
      "hit": false,
      "t": 583500,
      "d": 1000,
      "v": 127
    },
    {
      "midi": 67,
      "hit": false,
      "t": 584250,
      "d": 250,
      "v": 127
    },
    {
      "midi": 79,
      "hit": false,
      "t": 584250,
      "d": 250,
      "v": 127
    },
    {
      "midi": 76,
      "hit": false,
      "t": 584500,
      "d": 1500,
      "v": 127
    },
    {
      "midi": 88,
      "hit": false,
      "t": 584500,
      "d": 1500,
      "v": 127
    },
    {
      "midi": 43,
      "hit": false,
      "t": 584500,
      "d": 1000,
      "v": 127
    },
    {
      "midi": 47,
      "hit": false,
      "t": 584500,
      "d": 1000,
      "v": 127
    },
    {
      "midi": 50,
      "hit": false,
      "t": 584500,
      "d": 1000,
      "v": 127
    },
    {
      "midi": 55,
      "hit": false,
      "t": 585500,
      "d": 1000,
      "v": 127
    },
    {
      "midi": 74,
      "hit": false,
      "t": 586250,
      "d": 250,
      "v": 127
    },
    {
      "midi": 86,
      "hit": false,
      "t": 586250,
      "d": 250,
      "v": 127
    },
    {
      "midi": 72,
      "hit": false,
      "t": 586500,
      "d": 500,
      "v": 127
    },
    {
      "midi": 84,
      "hit": false,
      "t": 586500,
      "d": 500,
      "v": 127
    },
    {
      "midi": 48,
      "hit": false,
      "t": 586500,
      "d": 500,
      "v": 127
    },
    {
      "midi": 52,
      "hit": false,
      "t": 586500,
      "d": 500,
      "v": 127
    },
    {
      "midi": 55,
      "hit": false,
      "t": 586500,
      "d": 500,
      "v": 127
    },
    {
      "midi": 84,
      "hit": false,
      "t": 587000,
      "d": 250,
      "v": 127
    },
    {
      "midi": 88,
      "hit": false,
      "t": 587000,
      "d": 250,
      "v": 127
    },
    {
      "midi": 36,
      "hit": false,
      "t": 587000,
      "d": 500,
      "v": 127
    },
    {
      "midi": 48,
      "hit": false,
      "t": 587000,
      "d": 500,
      "v": 127
    },
    {
      "midi": 76,
      "hit": false,
      "t": 587250,
      "d": 250,
      "v": 127
    },
    {
      "midi": 84,
      "hit": false,
      "t": 587500,
      "d": 250,
      "v": 127
    },
    {
      "midi": 88,
      "hit": false,
      "t": 587500,
      "d": 250,
      "v": 127
    },
    {
      "midi": 36,
      "hit": false,
      "t": 587500,
      "d": 500,
      "v": 127
    },
    {
      "midi": 48,
      "hit": false,
      "t": 587500,
      "d": 500,
      "v": 127
    },
    {
      "midi": 76,
      "hit": false,
      "t": 587750,
      "d": 250,
      "v": 127
    },
    {
      "midi": 84,
      "hit": false,
      "t": 588000,
      "d": 250,
      "v": 127
    },
    {
      "midi": 88,
      "hit": false,
      "t": 588000,
      "d": 250,
      "v": 127
    },
    {
      "midi": 36,
      "hit": false,
      "t": 588000,
      "d": 500,
      "v": 127
    },
    {
      "midi": 48,
      "hit": false,
      "t": 588000,
      "d": 500,
      "v": 127
    },
    {
      "midi": 76,
      "hit": false,
      "t": 588250,
      "d": 250,
      "v": 127
    },
    {
      "midi": 84,
      "hit": false,
      "t": 588500,
      "d": 1000,
      "v": 127
    },
    {
      "midi": 91,
      "hit": false,
      "t": 588500,
      "d": 1000,
      "v": 127
    },
    {
      "midi": 46,
      "hit": false,
      "t": 588500,
      "d": 500,
      "v": 127
    },
    {
      "midi": 58,
      "hit": false,
      "t": 588500,
      "d": 500,
      "v": 127
    },
    {
      "midi": 46,
      "hit": false,
      "t": 589000,
      "d": 500,
      "v": 127
    },
    {
      "midi": 58,
      "hit": false,
      "t": 589000,
      "d": 500,
      "v": 127
    },
    {
      "midi": 79,
      "hit": false,
      "t": 589500,
      "d": 1000,
      "v": 127
    },
    {
      "midi": 46,
      "hit": false,
      "t": 589500,
      "d": 500,
      "v": 127
    },
    {
      "midi": 58,
      "hit": false,
      "t": 589500,
      "d": 500,
      "v": 127
    },
    {
      "midi": 46,
      "hit": false,
      "t": 590000,
      "d": 500,
      "v": 127
    },
    {
      "midi": 58,
      "hit": false,
      "t": 590000,
      "d": 500,
      "v": 127
    },
    {
      "midi": 84,
      "hit": false,
      "t": 590500,
      "d": 500,
      "v": 127
    },
    {
      "midi": 90,
      "hit": false,
      "t": 590500,
      "d": 500,
      "v": 127
    },
    {
      "midi": 45,
      "hit": false,
      "t": 590500,
      "d": 500,
      "v": 127
    },
    {
      "midi": 57,
      "hit": false,
      "t": 590500,
      "d": 500,
      "v": 127
    },
    {
      "midi": 78,
      "hit": false,
      "t": 591500,
      "d": 1000,
      "v": 127
    },
    {
      "midi": 84,
      "hit": false,
      "t": 592500,
      "d": 1000,
      "v": 127
    },
    {
      "midi": 89,
      "hit": false,
      "t": 592500,
      "d": 1000,
      "v": 127
    },
    {
      "midi": 44,
      "hit": false,
      "t": 592500,
      "d": 2000,
      "v": 127
    },
    {
      "midi": 56,
      "hit": false,
      "t": 592500,
      "d": 2000,
      "v": 127
    },
    {
      "midi": 77,
      "hit": false,
      "t": 593500,
      "d": 1000,
      "v": 127
    },
    {
      "midi": 84,
      "hit": false,
      "t": 594500,
      "d": 250,
      "v": 127
    },
    {
      "midi": 88,
      "hit": false,
      "t": 594500,
      "d": 250,
      "v": 127
    },
    {
      "midi": 43,
      "hit": false,
      "t": 594500,
      "d": 500,
      "v": 127
    },
    {
      "midi": 55,
      "hit": false,
      "t": 594500,
      "d": 500,
      "v": 127
    },
    {
      "midi": 76,
      "hit": false,
      "t": 594750,
      "d": 250,
      "v": 127
    },
    {
      "midi": 84,
      "hit": false,
      "t": 595000,
      "d": 250,
      "v": 127
    },
    {
      "midi": 88,
      "hit": false,
      "t": 595000,
      "d": 250,
      "v": 127
    },
    {
      "midi": 43,
      "hit": false,
      "t": 595000,
      "d": 500,
      "v": 127
    },
    {
      "midi": 55,
      "hit": false,
      "t": 595000,
      "d": 500,
      "v": 127
    },
    {
      "midi": 76,
      "hit": false,
      "t": 595250,
      "d": 250,
      "v": 127
    },
    {
      "midi": 83,
      "hit": false,
      "t": 595500,
      "d": 250,
      "v": 127
    },
    {
      "midi": 87,
      "hit": false,
      "t": 595500,
      "d": 250,
      "v": 127
    },
    {
      "midi": 35,
      "hit": false,
      "t": 595500,
      "d": 500,
      "v": 127
    },
    {
      "midi": 47,
      "hit": false,
      "t": 595500,
      "d": 500,
      "v": 127
    },
    {
      "midi": 78,
      "hit": false,
      "t": 595750,
      "d": 250,
      "v": 127
    },
    {
      "midi": 83,
      "hit": false,
      "t": 596000,
      "d": 250,
      "v": 127
    },
    {
      "midi": 87,
      "hit": false,
      "t": 596000,
      "d": 250,
      "v": 127
    },
    {
      "midi": 35,
      "hit": false,
      "t": 596000,
      "d": 500,
      "v": 127
    },
    {
      "midi": 47,
      "hit": false,
      "t": 596000,
      "d": 500,
      "v": 127
    },
    {
      "midi": 78,
      "hit": false,
      "t": 596250,
      "d": 250,
      "v": 127
    },
    {
      "midi": 79,
      "hit": false,
      "t": 596500,
      "d": 250,
      "v": 127
    },
    {
      "midi": 83,
      "hit": false,
      "t": 596500,
      "d": 250,
      "v": 127
    },
    {
      "midi": 88,
      "hit": false,
      "t": 596500,
      "d": 250,
      "v": 127
    },
    {
      "midi": 40,
      "hit": false,
      "t": 596500,
      "d": 500,
      "v": 127
    },
    {
      "midi": 52,
      "hit": false,
      "t": 596500,
      "d": 500,
      "v": 127
    },
    {
      "midi": 76,
      "hit": false,
      "t": 596750,
      "d": 250,
      "v": 127
    },
    {
      "midi": 79,
      "hit": false,
      "t": 597000,
      "d": 250,
      "v": 127
    },
    {
      "midi": 83,
      "hit": false,
      "t": 597000,
      "d": 250,
      "v": 127
    },
    {
      "midi": 88,
      "hit": false,
      "t": 597000,
      "d": 250,
      "v": 127
    },
    {
      "midi": 40,
      "hit": false,
      "t": 597000,
      "d": 500,
      "v": 127
    },
    {
      "midi": 52,
      "hit": false,
      "t": 597000,
      "d": 500,
      "v": 127
    },
    {
      "midi": 76,
      "hit": false,
      "t": 597250,
      "d": 250,
      "v": 127
    },
    {
      "midi": 81,
      "hit": false,
      "t": 597500,
      "d": 250,
      "v": 127
    },
    {
      "midi": 89,
      "hit": false,
      "t": 597500,
      "d": 250,
      "v": 127
    },
    {
      "midi": 38,
      "hit": false,
      "t": 597500,
      "d": 500,
      "v": 127
    },
    {
      "midi": 50,
      "hit": false,
      "t": 597500,
      "d": 500,
      "v": 127
    },
    {
      "midi": 77,
      "hit": false,
      "t": 597750,
      "d": 250,
      "v": 127
    },
    {
      "midi": 81,
      "hit": false,
      "t": 598000,
      "d": 250,
      "v": 127
    },
    {
      "midi": 89,
      "hit": false,
      "t": 598000,
      "d": 250,
      "v": 127
    },
    {
      "midi": 38,
      "hit": false,
      "t": 598000,
      "d": 500,
      "v": 127
    },
    {
      "midi": 50,
      "hit": false,
      "t": 598000,
      "d": 500,
      "v": 127
    },
    {
      "midi": 77,
      "hit": false,
      "t": 598250,
      "d": 250,
      "v": 127
    },
    {
      "midi": 76,
      "hit": false,
      "t": 598500,
      "d": 500,
      "v": 127
    },
    {
      "midi": 88,
      "hit": false,
      "t": 598500,
      "d": 500,
      "v": 127
    },
    {
      "midi": 43,
      "hit": false,
      "t": 598500,
      "d": 500,
      "v": 127
    },
    {
      "midi": 48,
      "hit": false,
      "t": 598500,
      "d": 500,
      "v": 127
    },
    {
      "midi": 52,
      "hit": false,
      "t": 598500,
      "d": 500,
      "v": 127
    },
    {
      "midi": 55,
      "hit": false,
      "t": 599500,
      "d": 1000,
      "v": 127
    },
    {
      "midi": 67,
      "hit": false,
      "t": 600250,
      "d": 250,
      "v": 127
    },
    {
      "midi": 79,
      "hit": false,
      "t": 600250,
      "d": 250,
      "v": 127
    },
    {
      "midi": 76,
      "hit": false,
      "t": 600500,
      "d": 1500,
      "v": 127
    },
    {
      "midi": 88,
      "hit": false,
      "t": 600500,
      "d": 1500,
      "v": 127
    },
    {
      "midi": 43,
      "hit": false,
      "t": 600500,
      "d": 1000,
      "v": 127
    },
    {
      "midi": 47,
      "hit": false,
      "t": 600500,
      "d": 1000,
      "v": 127
    },
    {
      "midi": 50,
      "hit": false,
      "t": 600500,
      "d": 1000,
      "v": 127
    },
    {
      "midi": 55,
      "hit": false,
      "t": 601500,
      "d": 1000,
      "v": 127
    },
    {
      "midi": 74,
      "hit": false,
      "t": 602250,
      "d": 250,
      "v": 127
    },
    {
      "midi": 86,
      "hit": false,
      "t": 602250,
      "d": 250,
      "v": 127
    },
    {
      "midi": 72,
      "hit": false,
      "t": 602500,
      "d": 500,
      "v": 127
    },
    {
      "midi": 84,
      "hit": false,
      "t": 602500,
      "d": 500,
      "v": 127
    },
    {
      "midi": 48,
      "hit": false,
      "t": 602500,
      "d": 500,
      "v": 127
    },
    {
      "midi": 52,
      "hit": false,
      "t": 602500,
      "d": 500,
      "v": 127
    },
    {
      "midi": 55,
      "hit": false,
      "t": 602500,
      "d": 500,
      "v": 127
    },
    {
      "midi": 77,
      "hit": false,
      "t": 603500,
      "d": 2000,
      "v": 127
    },
    {
      "midi": 89,
      "hit": false,
      "t": 603500,
      "d": 2000,
      "v": 127
    },
    {
      "midi": 56,
      "hit": false,
      "t": 603500,
      "d": 2000,
      "v": 127
    },
    {
      "midi": 60,
      "hit": false,
      "t": 603500,
      "d": 2000,
      "v": 127
    },
    {
      "midi": 62,
      "hit": false,
      "t": 603500,
      "d": 2000,
      "v": 127
    },
    {
      "midi": 71,
      "hit": false,
      "t": 605500,
      "d": 1000,
      "v": 127
    },
    {
      "midi": 83,
      "hit": false,
      "t": 605500,
      "d": 1000,
      "v": 127
    },
    {
      "midi": 55,
      "hit": false,
      "t": 605500,
      "d": 1000,
      "v": 127
    },
    {
      "midi": 59,
      "hit": false,
      "t": 605500,
      "d": 1000,
      "v": 127
    },
    {
      "midi": 62,
      "hit": false,
      "t": 605500,
      "d": 1000,
      "v": 127
    },
    {
      "midi": 72,
      "hit": false,
      "t": 606500,
      "d": 500,
      "v": 127
    },
    {
      "midi": 84,
      "hit": false,
      "t": 606500,
      "d": 500,
      "v": 127
    },
    {
      "midi": 48,
      "hit": false,
      "t": 606500,
      "d": 500,
      "v": 127
    },
    {
      "midi": 52,
      "hit": false,
      "t": 606500,
      "d": 500,
      "v": 127
    },
    {
      "midi": 55,
      "hit": false,
      "t": 606500,
      "d": 500,
      "v": 127
    },
    {
      "midi": 60,
      "hit": false,
      "t": 606500,
      "d": 500,
      "v": 127
    },
    {
      "midi": 77,
      "hit": false,
      "t": 607500,
      "d": 2000,
      "v": 127
    },
    {
      "midi": 89,
      "hit": false,
      "t": 607500,
      "d": 2000,
      "v": 127
    },
    {
      "midi": 56,
      "hit": false,
      "t": 607500,
      "d": 2000,
      "v": 127
    },
    {
      "midi": 60,
      "hit": false,
      "t": 607500,
      "d": 2000,
      "v": 127
    },
    {
      "midi": 62,
      "hit": false,
      "t": 607500,
      "d": 2000,
      "v": 127
    },
    {
      "midi": 71,
      "hit": false,
      "t": 609500,
      "d": 1000,
      "v": 127
    },
    {
      "midi": 83,
      "hit": false,
      "t": 609500,
      "d": 1000,
      "v": 127
    },
    {
      "midi": 55,
      "hit": false,
      "t": 609500,
      "d": 1000,
      "v": 127
    },
    {
      "midi": 59,
      "hit": false,
      "t": 609500,
      "d": 1000,
      "v": 127
    },
    {
      "midi": 62,
      "hit": false,
      "t": 609500,
      "d": 1000,
      "v": 127
    },
    {
      "midi": 72,
      "hit": false,
      "t": 610500,
      "d": 500,
      "v": 127
    },
    {
      "midi": 84,
      "hit": false,
      "t": 610500,
      "d": 500,
      "v": 127
    },
    {
      "midi": 48,
      "hit": false,
      "t": 610500,
      "d": 500,
      "v": 127
    },
    {
      "midi": 52,
      "hit": false,
      "t": 610500,
      "d": 500,
      "v": 127
    },
    {
      "midi": 55,
      "hit": false,
      "t": 610500,
      "d": 500,
      "v": 127
    },
    {
      "midi": 60,
      "hit": false,
      "t": 610500,
      "d": 500,
      "v": 127
    },
    {
      "midi": 79,
      "hit": false,
      "t": 611000,
      "d": 250,
      "v": 127
    },
    {
      "midi": 84,
      "hit": false,
      "t": 611000,
      "d": 250,
      "v": 127
    },
    {
      "midi": 48,
      "hit": false,
      "t": 611000,
      "d": 500,
      "v": 127
    },
    {
      "midi": 52,
      "hit": false,
      "t": 611000,
      "d": 500,
      "v": 127
    },
    {
      "midi": 55,
      "hit": false,
      "t": 611000,
      "d": 500,
      "v": 127
    },
    {
      "midi": 76,
      "hit": false,
      "t": 611250,
      "d": 250,
      "v": 127
    },
    {
      "midi": 79,
      "hit": false,
      "t": 611500,
      "d": 250,
      "v": 127
    },
    {
      "midi": 83,
      "hit": false,
      "t": 611500,
      "d": 250,
      "v": 127
    },
    {
      "midi": 43,
      "hit": false,
      "t": 611500,
      "d": 500,
      "v": 127
    },
    {
      "midi": 47,
      "hit": false,
      "t": 611500,
      "d": 500,
      "v": 127
    },
    {
      "midi": 50,
      "hit": false,
      "t": 611500,
      "d": 500,
      "v": 127
    },
    {
      "midi": 55,
      "hit": false,
      "t": 611500,
      "d": 500,
      "v": 127
    },
    {
      "midi": 74,
      "hit": false,
      "t": 611750,
      "d": 250,
      "v": 127
    },
    {
      "midi": 79,
      "hit": false,
      "t": 612000,
      "d": 250,
      "v": 127
    },
    {
      "midi": 83,
      "hit": false,
      "t": 612000,
      "d": 250,
      "v": 127
    },
    {
      "midi": 43,
      "hit": false,
      "t": 612000,
      "d": 500,
      "v": 127
    },
    {
      "midi": 47,
      "hit": false,
      "t": 612000,
      "d": 500,
      "v": 127
    },
    {
      "midi": 50,
      "hit": false,
      "t": 612000,
      "d": 500,
      "v": 127
    },
    {
      "midi": 55,
      "hit": false,
      "t": 612000,
      "d": 500,
      "v": 127
    },
    {
      "midi": 74,
      "hit": false,
      "t": 612250,
      "d": 250,
      "v": 127
    },
    {
      "midi": 79,
      "hit": false,
      "t": 612500,
      "d": 250,
      "v": 127
    },
    {
      "midi": 84,
      "hit": false,
      "t": 612500,
      "d": 250,
      "v": 127
    },
    {
      "midi": 48,
      "hit": false,
      "t": 612500,
      "d": 500,
      "v": 127
    },
    {
      "midi": 52,
      "hit": false,
      "t": 612500,
      "d": 500,
      "v": 127
    },
    {
      "midi": 55,
      "hit": false,
      "t": 612500,
      "d": 500,
      "v": 127
    },
    {
      "midi": 76,
      "hit": false,
      "t": 612750,
      "d": 250,
      "v": 127
    },
    {
      "midi": 79,
      "hit": false,
      "t": 613000,
      "d": 250,
      "v": 127
    },
    {
      "midi": 84,
      "hit": false,
      "t": 613000,
      "d": 250,
      "v": 127
    },
    {
      "midi": 48,
      "hit": false,
      "t": 613000,
      "d": 500,
      "v": 127
    },
    {
      "midi": 52,
      "hit": false,
      "t": 613000,
      "d": 500,
      "v": 127
    },
    {
      "midi": 55,
      "hit": false,
      "t": 613000,
      "d": 500,
      "v": 127
    },
    {
      "midi": 76,
      "hit": false,
      "t": 613250,
      "d": 250,
      "v": 127
    },
    {
      "midi": 79,
      "hit": false,
      "t": 613500,
      "d": 250,
      "v": 127
    },
    {
      "midi": 83,
      "hit": false,
      "t": 613500,
      "d": 250,
      "v": 127
    },
    {
      "midi": 43,
      "hit": false,
      "t": 613500,
      "d": 500,
      "v": 127
    },
    {
      "midi": 47,
      "hit": false,
      "t": 613500,
      "d": 500,
      "v": 127
    },
    {
      "midi": 50,
      "hit": false,
      "t": 613500,
      "d": 500,
      "v": 127
    },
    {
      "midi": 55,
      "hit": false,
      "t": 613500,
      "d": 500,
      "v": 127
    },
    {
      "midi": 74,
      "hit": false,
      "t": 613750,
      "d": 250,
      "v": 127
    },
    {
      "midi": 79,
      "hit": false,
      "t": 614000,
      "d": 250,
      "v": 127
    },
    {
      "midi": 83,
      "hit": false,
      "t": 614000,
      "d": 250,
      "v": 127
    },
    {
      "midi": 43,
      "hit": false,
      "t": 614000,
      "d": 500,
      "v": 127
    },
    {
      "midi": 47,
      "hit": false,
      "t": 614000,
      "d": 500,
      "v": 127
    },
    {
      "midi": 50,
      "hit": false,
      "t": 614000,
      "d": 500,
      "v": 127
    },
    {
      "midi": 55,
      "hit": false,
      "t": 614000,
      "d": 500,
      "v": 127
    },
    {
      "midi": 76,
      "hit": false,
      "t": 614250,
      "d": 250,
      "v": 127
    },
    {
      "midi": 79,
      "hit": false,
      "t": 614500,
      "d": 250,
      "v": 127
    },
    {
      "midi": 84,
      "hit": false,
      "t": 614500,
      "d": 250,
      "v": 127
    },
    {
      "midi": 48,
      "hit": false,
      "t": 614500,
      "d": 500,
      "v": 127
    },
    {
      "midi": 52,
      "hit": false,
      "t": 614500,
      "d": 500,
      "v": 127
    },
    {
      "midi": 55,
      "hit": false,
      "t": 614500,
      "d": 500,
      "v": 127
    },
    {
      "midi": 76,
      "hit": false,
      "t": 614750,
      "d": 250,
      "v": 127
    },
    {
      "midi": 79,
      "hit": false,
      "t": 615000,
      "d": 250,
      "v": 127
    },
    {
      "midi": 84,
      "hit": false,
      "t": 615000,
      "d": 250,
      "v": 127
    },
    {
      "midi": 48,
      "hit": false,
      "t": 615000,
      "d": 500,
      "v": 127
    },
    {
      "midi": 52,
      "hit": false,
      "t": 615000,
      "d": 500,
      "v": 127
    },
    {
      "midi": 55,
      "hit": false,
      "t": 615000,
      "d": 500,
      "v": 127
    },
    {
      "midi": 76,
      "hit": false,
      "t": 615250,
      "d": 250,
      "v": 127
    },
    {
      "midi": 79,
      "hit": false,
      "t": 615500,
      "d": 250,
      "v": 127
    },
    {
      "midi": 83,
      "hit": false,
      "t": 615500,
      "d": 250,
      "v": 127
    },
    {
      "midi": 43,
      "hit": false,
      "t": 615500,
      "d": 500,
      "v": 127
    },
    {
      "midi": 47,
      "hit": false,
      "t": 615500,
      "d": 500,
      "v": 127
    },
    {
      "midi": 50,
      "hit": false,
      "t": 615500,
      "d": 500,
      "v": 127
    },
    {
      "midi": 55,
      "hit": false,
      "t": 615500,
      "d": 500,
      "v": 127
    },
    {
      "midi": 74,
      "hit": false,
      "t": 615750,
      "d": 250,
      "v": 127
    },
    {
      "midi": 79,
      "hit": false,
      "t": 616000,
      "d": 250,
      "v": 127
    },
    {
      "midi": 83,
      "hit": false,
      "t": 616000,
      "d": 250,
      "v": 127
    },
    {
      "midi": 43,
      "hit": false,
      "t": 616000,
      "d": 500,
      "v": 127
    },
    {
      "midi": 47,
      "hit": false,
      "t": 616000,
      "d": 500,
      "v": 127
    },
    {
      "midi": 50,
      "hit": false,
      "t": 616000,
      "d": 500,
      "v": 127
    },
    {
      "midi": 55,
      "hit": false,
      "t": 616000,
      "d": 500,
      "v": 127
    },
    {
      "midi": 74,
      "hit": false,
      "t": 616250,
      "d": 250,
      "v": 127
    },
    {
      "midi": 79,
      "hit": false,
      "t": 616500,
      "d": 250,
      "v": 127
    },
    {
      "midi": 84,
      "hit": false,
      "t": 616500,
      "d": 250,
      "v": 127
    },
    {
      "midi": 48,
      "hit": false,
      "t": 616500,
      "d": 500,
      "v": 127
    },
    {
      "midi": 52,
      "hit": false,
      "t": 616500,
      "d": 500,
      "v": 127
    },
    {
      "midi": 55,
      "hit": false,
      "t": 616500,
      "d": 500,
      "v": 127
    },
    {
      "midi": 76,
      "hit": false,
      "t": 616750,
      "d": 250,
      "v": 127
    },
    {
      "midi": 79,
      "hit": false,
      "t": 617000,
      "d": 250,
      "v": 127
    },
    {
      "midi": 84,
      "hit": false,
      "t": 617000,
      "d": 250,
      "v": 127
    },
    {
      "midi": 48,
      "hit": false,
      "t": 617000,
      "d": 500,
      "v": 127
    },
    {
      "midi": 52,
      "hit": false,
      "t": 617000,
      "d": 500,
      "v": 127
    },
    {
      "midi": 55,
      "hit": false,
      "t": 617000,
      "d": 500,
      "v": 127
    },
    {
      "midi": 76,
      "hit": false,
      "t": 617250,
      "d": 250,
      "v": 127
    },
    {
      "midi": 79,
      "hit": false,
      "t": 617500,
      "d": 250,
      "v": 127
    },
    {
      "midi": 83,
      "hit": false,
      "t": 617500,
      "d": 250,
      "v": 127
    },
    {
      "midi": 43,
      "hit": false,
      "t": 617500,
      "d": 500,
      "v": 127
    },
    {
      "midi": 47,
      "hit": false,
      "t": 617500,
      "d": 500,
      "v": 127
    },
    {
      "midi": 50,
      "hit": false,
      "t": 617500,
      "d": 500,
      "v": 127
    },
    {
      "midi": 55,
      "hit": false,
      "t": 617500,
      "d": 500,
      "v": 127
    },
    {
      "midi": 74,
      "hit": false,
      "t": 617750,
      "d": 250,
      "v": 127
    },
    {
      "midi": 79,
      "hit": false,
      "t": 618000,
      "d": 250,
      "v": 127
    },
    {
      "midi": 83,
      "hit": false,
      "t": 618000,
      "d": 250,
      "v": 127
    },
    {
      "midi": 43,
      "hit": false,
      "t": 618000,
      "d": 500,
      "v": 127
    },
    {
      "midi": 47,
      "hit": false,
      "t": 618000,
      "d": 500,
      "v": 127
    },
    {
      "midi": 50,
      "hit": false,
      "t": 618000,
      "d": 500,
      "v": 127
    },
    {
      "midi": 55,
      "hit": false,
      "t": 618000,
      "d": 500,
      "v": 127
    },
    {
      "midi": 76,
      "hit": false,
      "t": 618250,
      "d": 250,
      "v": 127
    },
    {
      "midi": 76,
      "hit": false,
      "t": 618500,
      "d": 500,
      "v": 127
    },
    {
      "midi": 79,
      "hit": false,
      "t": 618500,
      "d": 500,
      "v": 127
    },
    {
      "midi": 84,
      "hit": false,
      "t": 618500,
      "d": 500,
      "v": 127
    },
    {
      "midi": 48,
      "hit": false,
      "t": 618500,
      "d": 500,
      "v": 127
    },
    {
      "midi": 52,
      "hit": false,
      "t": 618500,
      "d": 500,
      "v": 127
    },
    {
      "midi": 55,
      "hit": false,
      "t": 618500,
      "d": 500,
      "v": 127
    },
    {
      "midi": 83,
      "hit": false,
      "t": 619000,
      "d": 250,
      "v": 127
    },
    {
      "midi": 86,
      "hit": false,
      "t": 619250,
      "d": 250,
      "v": 127
    },
    {
      "midi": 84,
      "hit": false,
      "t": 619500,
      "d": 500,
      "v": 127
    },
    {
      "midi": 48,
      "hit": false,
      "t": 619500,
      "d": 1000,
      "v": 127
    },
    {
      "midi": 52,
      "hit": false,
      "t": 619500,
      "d": 1000,
      "v": 127
    },
    {
      "midi": 55,
      "hit": false,
      "t": 619500,
      "d": 1000,
      "v": 127
    },
    {
      "midi": 78,
      "hit": false,
      "t": 620000,
      "d": 250,
      "v": 127
    },
    {
      "midi": 81,
      "hit": false,
      "t": 620250,
      "d": 250,
      "v": 127
    },
    {
      "midi": 79,
      "hit": false,
      "t": 620500,
      "d": 500,
      "v": 127
    },
    {
      "midi": 48,
      "hit": false,
      "t": 620500,
      "d": 1000,
      "v": 127
    },
    {
      "midi": 52,
      "hit": false,
      "t": 620500,
      "d": 1000,
      "v": 127
    },
    {
      "midi": 55,
      "hit": false,
      "t": 620500,
      "d": 1000,
      "v": 127
    },
    {
      "midi": 75,
      "hit": false,
      "t": 621000,
      "d": 250,
      "v": 127
    },
    {
      "midi": 77,
      "hit": false,
      "t": 621250,
      "d": 250,
      "v": 127
    },
    {
      "midi": 76,
      "hit": false,
      "t": 621500,
      "d": 500,
      "v": 127
    },
    {
      "midi": 48,
      "hit": false,
      "t": 621500,
      "d": 1000,
      "v": 127
    },
    {
      "midi": 52,
      "hit": false,
      "t": 621500,
      "d": 1000,
      "v": 127
    },
    {
      "midi": 55,
      "hit": false,
      "t": 621500,
      "d": 1000,
      "v": 127
    },
    {
      "midi": 71,
      "hit": false,
      "t": 622000,
      "d": 250,
      "v": 127
    },
    {
      "midi": 74,
      "hit": false,
      "t": 622250,
      "d": 250,
      "v": 127
    },
    {
      "midi": 72,
      "hit": false,
      "t": 622500,
      "d": 500,
      "v": 127
    },
    {
      "midi": 48,
      "hit": false,
      "t": 622500,
      "d": 500,
      "v": 127
    },
    {
      "midi": 52,
      "hit": false,
      "t": 622500,
      "d": 500,
      "v": 127
    },
    {
      "midi": 55,
      "hit": false,
      "t": 622500,
      "d": 500,
      "v": 127
    },
    {
      "midi": 71,
      "hit": false,
      "t": 623000,
      "d": 250,
      "v": 127
    },
    {
      "midi": 74,
      "hit": false,
      "t": 623250,
      "d": 250,
      "v": 127
    },
    {
      "midi": 72,
      "hit": false,
      "t": 623500,
      "d": 500,
      "v": 127
    },
    {
      "midi": 48,
      "hit": false,
      "t": 623500,
      "d": 1000,
      "v": 127
    },
    {
      "midi": 52,
      "hit": false,
      "t": 623500,
      "d": 1000,
      "v": 127
    },
    {
      "midi": 55,
      "hit": false,
      "t": 623500,
      "d": 1000,
      "v": 127
    },
    {
      "midi": 66,
      "hit": false,
      "t": 624000,
      "d": 250,
      "v": 127
    },
    {
      "midi": 69,
      "hit": false,
      "t": 624250,
      "d": 250,
      "v": 127
    },
    {
      "midi": 67,
      "hit": false,
      "t": 624500,
      "d": 500,
      "v": 127
    },
    {
      "midi": 48,
      "hit": false,
      "t": 624500,
      "d": 1000,
      "v": 127
    },
    {
      "midi": 52,
      "hit": false,
      "t": 624500,
      "d": 1000,
      "v": 127
    },
    {
      "midi": 55,
      "hit": false,
      "t": 624500,
      "d": 1000,
      "v": 127
    },
    {
      "midi": 63,
      "hit": false,
      "t": 625000,
      "d": 250,
      "v": 127
    },
    {
      "midi": 65,
      "hit": false,
      "t": 625250,
      "d": 250,
      "v": 127
    },
    {
      "midi": 64,
      "hit": false,
      "t": 625500,
      "d": 500,
      "v": 127
    },
    {
      "midi": 48,
      "hit": false,
      "t": 625500,
      "d": 1000,
      "v": 127
    },
    {
      "midi": 52,
      "hit": false,
      "t": 625500,
      "d": 1000,
      "v": 127
    },
    {
      "midi": 55,
      "hit": false,
      "t": 625500,
      "d": 1000,
      "v": 127
    },
    {
      "midi": 59,
      "hit": false,
      "t": 626000,
      "d": 250,
      "v": 127
    },
    {
      "midi": 62,
      "hit": false,
      "t": 626250,
      "d": 250,
      "v": 127
    },
    {
      "midi": 60,
      "hit": false,
      "t": 626500,
      "d": 500,
      "v": 127
    },
    {
      "midi": 36,
      "hit": false,
      "t": 626500,
      "d": 500,
      "v": 127
    },
    {
      "midi": 48,
      "hit": false,
      "t": 626500,
      "d": 500,
      "v": 127
    },
    {
      "midi": 55,
      "hit": false,
      "t": 627500,
      "d": 1000,
      "v": 127
    },
    {
      "midi": 31,
      "hit": false,
      "t": 627500,
      "d": 1000,
      "v": 127
    },
    {
      "midi": 43,
      "hit": false,
      "t": 627500,
      "d": 1000,
      "v": 127
    },
    {
      "midi": 60,
      "hit": false,
      "t": 628500,
      "d": 1000,
      "v": 127
    },
    {
      "midi": 36,
      "hit": false,
      "t": 628500,
      "d": 1000,
      "v": 127
    },
    {
      "midi": 48,
      "hit": false,
      "t": 628500,
      "d": 1000,
      "v": 127
    },
    {
      "midi": 55,
      "hit": false,
      "t": 629500,
      "d": 1000,
      "v": 127
    },
    {
      "midi": 31,
      "hit": false,
      "t": 629500,
      "d": 1000,
      "v": 127
    },
    {
      "midi": 43,
      "hit": false,
      "t": 629500,
      "d": 1000,
      "v": 127
    },
    {
      "midi": 60,
      "hit": false,
      "t": 630500,
      "d": 500,
      "v": 127
    },
    {
      "midi": 36,
      "hit": false,
      "t": 630500,
      "d": 500,
      "v": 127
    },
    {
      "midi": 43,
      "hit": false,
      "t": 630500,
      "d": 500,
      "v": 127
    },
    {
      "midi": 48,
      "hit": false,
      "t": 630500,
      "d": 500,
      "v": 127
    },
    {
      "midi": 72,
      "hit": false,
      "t": 632500,
      "d": 1000,
      "v": 127
    },
    {
      "midi": 76,
      "hit": false,
      "t": 632500,
      "d": 1000,
      "v": 127
    },
    {
      "midi": 79,
      "hit": false,
      "t": 632500,
      "d": 1000,
      "v": 127
    },
    {
      "midi": 84,
      "hit": false,
      "t": 632500,
      "d": 1000,
      "v": 127
    },
    {
      "midi": 48,
      "hit": false,
      "t": 632500,
      "d": 1000,
      "v": 127
    },
    {
      "midi": 52,
      "hit": false,
      "t": 632500,
      "d": 1000,
      "v": 127
    },
    {
      "midi": 55,
      "hit": false,
      "t": 632500,
      "d": 1000,
      "v": 127
    },
    {
      "midi": 60,
      "hit": false,
      "t": 632500,
      "d": 1000,
      "v": 127
    },
    {
      "midi": 64,
      "hit": false,
      "t": 634500,
      "d": 500,
      "v": 127
    },
    {
      "midi": 67,
      "hit": false,
      "t": 634500,
      "d": 500,
      "v": 127
    },
    {
      "midi": 72,
      "hit": false,
      "t": 634500,
      "d": 500,
      "v": 127
    },
    {
      "midi": 36,
      "hit": false,
      "t": 634500,
      "d": 500,
      "v": 127
    },
    {
      "midi": 43,
      "hit": false,
      "t": 634500,
      "d": 500,
      "v": 127
    },
    {
      "midi": 48,
      "hit": false,
      "t": 634500,
      "d": 500,
      "v": 127
    },
    {
      "midi": 72,
      "hit": false,
      "t": 636500,
      "d": 1000,
      "v": 127
    },
    {
      "midi": 76,
      "hit": false,
      "t": 636500,
      "d": 1000,
      "v": 127
    },
    {
      "midi": 79,
      "hit": false,
      "t": 636500,
      "d": 1000,
      "v": 127
    },
    {
      "midi": 84,
      "hit": false,
      "t": 636500,
      "d": 1000,
      "v": 127
    },
    {
      "midi": 48,
      "hit": false,
      "t": 636500,
      "d": 1000,
      "v": 127
    },
    {
      "midi": 52,
      "hit": false,
      "t": 636500,
      "d": 1000,
      "v": 127
    },
    {
      "midi": 55,
      "hit": false,
      "t": 636500,
      "d": 1000,
      "v": 127
    },
    {
      "midi": 60,
      "hit": false,
      "t": 636500,
      "d": 1000,
      "v": 127
    },
    {
      "midi": 64,
      "hit": false,
      "t": 638500,
      "d": 500,
      "v": 127
    },
    {
      "midi": 67,
      "hit": false,
      "t": 638500,
      "d": 500,
      "v": 127
    },
    {
      "midi": 72,
      "hit": false,
      "t": 638500,
      "d": 500,
      "v": 127
    },
    {
      "midi": 36,
      "hit": false,
      "t": 638500,
      "d": 500,
      "v": 127
    },
    {
      "midi": 43,
      "hit": false,
      "t": 638500,
      "d": 500,
      "v": 127
    },
    {
      "midi": 48,
      "hit": false,
      "t": 638500,
      "d": 500,
      "v": 127
    },
    {
      "midi": 60,
      "hit": false,
      "t": 642250,
      "d": 250,
      "v": 127
    },
    {
      "midi": 36,
      "hit": false,
      "t": 642250,
      "d": 250,
      "v": 127
    },
    {
      "midi": 48,
      "hit": false,
      "t": 642250,
      "d": 250,
      "v": 127
    },
    {
      "midi": 60,
      "hit": false,
      "t": 642500,
      "d": 500,
      "v": 127
    },
    {
      "midi": 36,
      "hit": false,
      "t": 642500,
      "d": 500,
      "v": 127
    },
    {
      "midi": 48,
      "hit": false,
      "t": 642500,
      "d": 500,
      "v": 127
    },
    {
      "midi": 60,
      "hit": false,
      "t": 646250,
      "d": 250,
      "v": 127
    },
    {
      "midi": 36,
      "hit": false,
      "t": 646250,
      "d": 250,
      "v": 127
    },
    {
      "midi": 48,
      "hit": false,
      "t": 646250,
      "d": 250,
      "v": 127
    },
    {
      "midi": 60,
      "hit": false,
      "t": 646500,
      "d": 500,
      "v": 127
    },
    {
      "midi": 36,
      "hit": false,
      "t": 646500,
      "d": 500,
      "v": 127
    },
    {
      "midi": 48,
      "hit": false,
      "t": 646500,
      "d": 500,
      "v": 127
    }
  ]
}