{
  "jsonPath": "Unknown/Unknown/John Otway/delilah.json",
  "path": "Unknown\\Unknown\\John Otway\\Delilah.mid",
  "name": "Delilah",
  "difficulty": "Advanced",
  "bpm": 99.000099000099,
  "notes": [
    {
      "midi": 67,
      "hit": false,
      "t": 1818.1799999999998,
      "d": 31.565624999999955,
      "v": 94
    },
    {
      "midi": 69,
      "hit": false,
      "t": 1818.1799999999998,
      "d": 44.19187499999998,
      "v": 106
    },
    {
      "midi": 74,
      "hit": false,
      "t": 1818.1799999999998,
      "d": 44.19187499999998,
      "v": 102
    },
    {
      "midi": 70,
      "hit": false,
      "t": 1818.1799999999998,
      "d": 50.50499999999988,
      "v": 100
    },
    {
      "midi": 74,
      "hit": false,
      "t": 2121.2099999999996,
      "d": 25.252500000000055,
      "v": 86
    },
    {
      "midi": 67,
      "hit": false,
      "t": 2121.2099999999996,
      "d": 44.19187499999998,
      "v": 88
    },
    {
      "midi": 69,
      "hit": false,
      "t": 2121.2099999999996,
      "d": 44.19187499999998,
      "v": 100
    },
    {
      "midi": 70,
      "hit": false,
      "t": 2121.2099999999996,
      "d": 69.44437500000004,
      "v": 97
    },
    {
      "midi": 74,
      "hit": false,
      "t": 2424.24,
      "d": 25.252500000000055,
      "v": 86
    },
    {
      "midi": 67,
      "hit": false,
      "t": 2424.24,
      "d": 50.50500000000011,
      "v": 92
    },
    {
      "midi": 69,
      "hit": false,
      "t": 2424.24,
      "d": 50.50500000000011,
      "v": 104
    },
    {
      "midi": 70,
      "hit": false,
      "t": 2424.24,
      "d": 50.50500000000011,
      "v": 97
    },
    {
      "midi": 67,
      "hit": false,
      "t": 2727.27,
      "d": 44.19187499999998,
      "v": 92
    },
    {
      "midi": 74,
      "hit": false,
      "t": 2727.27,
      "d": 50.50500000000011,
      "v": 99
    },
    {
      "midi": 69,
      "hit": false,
      "t": 2727.27,
      "d": 69.44437500000004,
      "v": 104
    },
    {
      "midi": 70,
      "hit": false,
      "t": 2727.27,
      "d": 75.75750000000016,
      "v": 104
    },
    {
      "midi": 67,
      "hit": false,
      "t": 3030.3,
      "d": 44.19187499999998,
      "v": 83
    },
    {
      "midi": 74,
      "hit": false,
      "t": 3030.3,
      "d": 44.19187499999998,
      "v": 78
    },
    {
      "midi": 69,
      "hit": false,
      "t": 3030.3,
      "d": 69.44437500000004,
      "v": 94
    },
    {
      "midi": 70,
      "hit": false,
      "t": 3030.3,
      "d": 69.44437500000004,
      "v": 88
    },
    {
      "midi": 74,
      "hit": false,
      "t": 3333.3300000000004,
      "d": 44.19187499999998,
      "v": 85
    },
    {
      "midi": 67,
      "hit": false,
      "t": 3333.3300000000004,
      "d": 50.50500000000011,
      "v": 83
    },
    {
      "midi": 69,
      "hit": false,
      "t": 3333.3300000000004,
      "d": 50.50500000000011,
      "v": 97
    },
    {
      "midi": 70,
      "hit": false,
      "t": 3333.3300000000004,
      "d": 69.44437500000004,
      "v": 92
    },
    {
      "midi": 69,
      "hit": false,
      "t": 3636.3600000000006,
      "d": 50.50500000000011,
      "v": 104
    },
    {
      "midi": 67,
      "hit": false,
      "t": 3636.3600000000006,
      "d": 69.44437500000004,
      "v": 85
    },
    {
      "midi": 70,
      "hit": false,
      "t": 3636.3600000000006,
      "d": 69.44437500000004,
      "v": 92
    },
    {
      "midi": 74,
      "hit": false,
      "t": 3636.3600000000006,
      "d": 69.44437500000004,
      "v": 92
    },
    {
      "midi": 67,
      "hit": false,
      "t": 3939.390000000001,
      "d": 44.19187499999998,
      "v": 72
    },
    {
      "midi": 70,
      "hit": false,
      "t": 3939.390000000001,
      "d": 44.19187499999998,
      "v": 85
    },
    {
      "midi": 74,
      "hit": false,
      "t": 3939.390000000001,
      "d": 44.19187499999998,
      "v": 83
    },
    {
      "midi": 69,
      "hit": false,
      "t": 3939.390000000001,
      "d": 50.50500000000011,
      "v": 94
    },
    {
      "midi": 74,
      "hit": false,
      "t": 4242.420000000001,
      "d": 25.2524999999996,
      "v": 76
    },
    {
      "midi": 67,
      "hit": false,
      "t": 4242.420000000001,
      "d": 50.5049999999992,
      "v": 76
    },
    {
      "midi": 69,
      "hit": false,
      "t": 4242.420000000001,
      "d": 50.5049999999992,
      "v": 94
    },
    {
      "midi": 70,
      "hit": false,
      "t": 4242.420000000001,
      "d": 50.5049999999992,
      "v": 81
    },
    {
      "midi": 74,
      "hit": false,
      "t": 4545.45,
      "d": 44.19187500000044,
      "v": 85
    },
    {
      "midi": 67,
      "hit": false,
      "t": 4545.45,
      "d": 50.50500000000011,
      "v": 76
    },
    {
      "midi": 69,
      "hit": false,
      "t": 4545.45,
      "d": 50.50500000000011,
      "v": 95
    },
    {
      "midi": 70,
      "hit": false,
      "t": 4545.45,
      "d": 50.50500000000011,
      "v": 88
    },
    {
      "midi": 74,
      "hit": false,
      "t": 4848.48,
      "d": 44.19187500000044,
      "v": 85
    },
    {
      "midi": 69,
      "hit": false,
      "t": 4848.48,
      "d": 50.50500000000011,
      "v": 94
    },
    {
      "midi": 70,
      "hit": false,
      "t": 4848.48,
      "d": 50.50500000000011,
      "v": 85
    },
    {
      "midi": 67,
      "hit": false,
      "t": 4848.48,
      "d": 69.44437500000004,
      "v": 72
    },
    {
      "midi": 67,
      "hit": false,
      "t": 5151.509999999999,
      "d": 50.50500000000011,
      "v": 74
    },
    {
      "midi": 69,
      "hit": false,
      "t": 5151.509999999999,
      "d": 50.50500000000011,
      "v": 94
    },
    {
      "midi": 70,
      "hit": false,
      "t": 5151.509999999999,
      "d": 50.50500000000011,
      "v": 83
    },
    {
      "midi": 74,
      "hit": false,
      "t": 5151.509999999999,
      "d": 50.50500000000011,
      "v": 85
    },
    {
      "midi": 69,
      "hit": false,
      "t": 5454.539999999999,
      "d": 44.19187500000044,
      "v": 97
    },
    {
      "midi": 74,
      "hit": false,
      "t": 5454.539999999999,
      "d": 44.19187500000044,
      "v": 86
    },
    {
      "midi": 70,
      "hit": false,
      "t": 5454.539999999999,
      "d": 50.50500000000011,
      "v": 97
    },
    {
      "midi": 67,
      "hit": false,
      "t": 5454.539999999999,
      "d": 56.81812499999978,
      "v": 88
    },
    {
      "midi": 74,
      "hit": false,
      "t": 5757.569999999999,
      "d": 44.19187500000044,
      "v": 74
    },
    {
      "midi": 69,
      "hit": false,
      "t": 5757.569999999999,
      "d": 50.50500000000011,
      "v": 86
    },
    {
      "midi": 67,
      "hit": false,
      "t": 5757.569999999999,
      "d": 69.44437500000004,
      "v": 71
    },
    {
      "midi": 70,
      "hit": false,
      "t": 5757.569999999999,
      "d": 69.44437500000004,
      "v": 76
    },
    {
      "midi": 67,
      "hit": false,
      "t": 6060.5999999999985,
      "d": 44.19187500000044,
      "v": 81
    },
    {
      "midi": 69,
      "hit": false,
      "t": 6060.5999999999985,
      "d": 44.19187500000044,
      "v": 94
    },
    {
      "midi": 74,
      "hit": false,
      "t": 6060.5999999999985,
      "d": 44.19187500000044,
      "v": 78
    },
    {
      "midi": 70,
      "hit": false,
      "t": 6060.5999999999985,
      "d": 50.50500000000011,
      "v": 94
    },
    {
      "midi": 74,
      "hit": false,
      "t": 6363.629999999998,
      "d": 44.19187500000044,
      "v": 86
    },
    {
      "midi": 67,
      "hit": false,
      "t": 6363.629999999998,
      "d": 50.50500000000011,
      "v": 85
    },
    {
      "midi": 69,
      "hit": false,
      "t": 6363.629999999998,
      "d": 69.44437500000004,
      "v": 99
    },
    {
      "midi": 70,
      "hit": false,
      "t": 6363.629999999998,
      "d": 69.44437500000004,
      "v": 88
    },
    {
      "midi": 67,
      "hit": false,
      "t": 6666.659999999998,
      "d": 44.19187500000044,
      "v": 71
    },
    {
      "midi": 70,
      "hit": false,
      "t": 6666.659999999998,
      "d": 44.19187500000044,
      "v": 81
    },
    {
      "midi": 74,
      "hit": false,
      "t": 6666.659999999998,
      "d": 44.19187500000044,
      "v": 79
    },
    {
      "midi": 69,
      "hit": false,
      "t": 6666.659999999998,
      "d": 50.50500000000011,
      "v": 95
    },
    {
      "midi": 67,
      "hit": false,
      "t": 6969.689999999998,
      "d": 69.44437500000004,
      "v": 74
    },
    {
      "midi": 69,
      "hit": false,
      "t": 6969.689999999998,
      "d": 69.44437500000004,
      "v": 86
    },
    {
      "midi": 70,
      "hit": false,
      "t": 6969.689999999998,
      "d": 69.44437500000004,
      "v": 81
    },
    {
      "midi": 74,
      "hit": false,
      "t": 6969.689999999998,
      "d": 69.44437500000004,
      "v": 79
    },
    {
      "midi": 67,
      "hit": false,
      "t": 7272.7199999999975,
      "d": 44.19187500000044,
      "v": 83
    },
    {
      "midi": 69,
      "hit": false,
      "t": 7272.7199999999975,
      "d": 44.19187500000044,
      "v": 99
    },
    {
      "midi": 70,
      "hit": false,
      "t": 7272.7199999999975,
      "d": 44.19187500000044,
      "v": 92
    },
    {
      "midi": 74,
      "hit": false,
      "t": 7272.7199999999975,
      "d": 44.19187500000044,
      "v": 86
    },
    {
      "midi": 67,
      "hit": false,
      "t": 7575.749999999998,
      "d": 50.50500000000011,
      "v": 72
    },
    {
      "midi": 70,
      "hit": false,
      "t": 7575.749999999998,
      "d": 50.50500000000011,
      "v": 85
    },
    {
      "midi": 74,
      "hit": false,
      "t": 7575.749999999998,
      "d": 50.50500000000011,
      "v": 81
    },
    {
      "midi": 69,
      "hit": false,
      "t": 7575.749999999998,
      "d": 69.44437500000004,
      "v": 94
    },
    {
      "midi": 74,
      "hit": false,
      "t": 7878.779999999998,
      "d": 50.50500000000011,
      "v": 85
    },
    {
      "midi": 67,
      "hit": false,
      "t": 7878.779999999998,
      "d": 69.44437500000004,
      "v": 76
    },
    {
      "midi": 69,
      "hit": false,
      "t": 7878.779999999998,
      "d": 69.44437500000004,
      "v": 94
    },
    {
      "midi": 70,
      "hit": false,
      "t": 7878.779999999998,
      "d": 69.44437500000004,
      "v": 85
    },
    {
      "midi": 69,
      "hit": false,
      "t": 8181.809999999998,
      "d": 69.44437499999913,
      "v": 99
    },
    {
      "midi": 70,
      "hit": false,
      "t": 8181.809999999998,
      "d": 69.44437499999913,
      "v": 92
    },
    {
      "midi": 67,
      "hit": false,
      "t": 8181.809999999998,
      "d": 75.75749999999971,
      "v": 83
    },
    {
      "midi": 74,
      "hit": false,
      "t": 8181.809999999998,
      "d": 75.75749999999971,
      "v": 86
    },
    {
      "midi": 74,
      "hit": false,
      "t": 8484.839999999997,
      "d": 50.5049999999992,
      "v": 86
    },
    {
      "midi": 67,
      "hit": false,
      "t": 8484.839999999997,
      "d": 69.44437499999913,
      "v": 74
    },
    {
      "midi": 69,
      "hit": false,
      "t": 8484.839999999997,
      "d": 69.44437499999913,
      "v": 95
    },
    {
      "midi": 70,
      "hit": false,
      "t": 8484.839999999997,
      "d": 69.44437499999913,
      "v": 83
    },
    {
      "midi": 67,
      "hit": false,
      "t": 8787.869999999995,
      "d": 50.5049999999992,
      "v": 76
    },
    {
      "midi": 70,
      "hit": false,
      "t": 8787.869999999995,
      "d": 50.5049999999992,
      "v": 88
    },
    {
      "midi": 69,
      "hit": false,
      "t": 8787.869999999995,
      "d": 69.44437499999913,
      "v": 95
    },
    {
      "midi": 74,
      "hit": false,
      "t": 8787.869999999995,
      "d": 69.44437499999913,
      "v": 86
    },
    {
      "midi": 74,
      "hit": false,
      "t": 9090.899999999994,
      "d": 44.19187500000044,
      "v": 104
    },
    {
      "midi": 69,
      "hit": false,
      "t": 9090.899999999994,
      "d": 50.50500000000102,
      "v": 111
    },
    {
      "midi": 70,
      "hit": false,
      "t": 9090.899999999994,
      "d": 50.50500000000102,
      "v": 106
    },
    {
      "midi": 67,
      "hit": false,
      "t": 9090.899999999994,
      "d": 56.8181250000016,
      "v": 104
    },
    {
      "midi": 67,
      "hit": false,
      "t": 9393.929999999997,
      "d": 69.44437499999913,
      "v": 85
    },
    {
      "midi": 69,
      "hit": false,
      "t": 9393.929999999997,
      "d": 69.44437499999913,
      "v": 97
    },
    {
      "midi": 70,
      "hit": false,
      "t": 9393.929999999997,
      "d": 69.44437499999913,
      "v": 83
    },
    {
      "midi": 74,
      "hit": false,
      "t": 9393.929999999997,
      "d": 69.44437499999913,
      "v": 85
    },
    {
      "midi": 69,
      "hit": false,
      "t": 9696.959999999995,
      "d": 69.44437499999913,
      "v": 102
    },
    {
      "midi": 70,
      "hit": false,
      "t": 9696.959999999995,
      "d": 69.44437499999913,
      "v": 92
    },
    {
      "midi": 74,
      "hit": false,
      "t": 9696.959999999995,
      "d": 69.44437499999913,
      "v": 86
    },
    {
      "midi": 67,
      "hit": false,
      "t": 9696.959999999995,
      "d": 75.75749999999971,
      "v": 85
    },
    {
      "midi": 67,
      "hit": false,
      "t": 9999.989999999994,
      "d": 75.75749999999971,
      "v": 102
    },
    {
      "midi": 69,
      "hit": false,
      "t": 9999.989999999994,
      "d": 75.75749999999971,
      "v": 109
    },
    {
      "midi": 70,
      "hit": false,
      "t": 9999.989999999994,
      "d": 75.75749999999971,
      "v": 106
    },
    {
      "midi": 74,
      "hit": false,
      "t": 9999.989999999994,
      "d": 75.75749999999971,
      "v": 99
    },
    {
      "midi": 69,
      "hit": false,
      "t": 10303.019999999993,
      "d": 50.5049999999992,
      "v": 106
    },
    {
      "midi": 70,
      "hit": false,
      "t": 10303.019999999993,
      "d": 50.5049999999992,
      "v": 100
    },
    {
      "midi": 67,
      "hit": false,
      "t": 10303.019999999993,
      "d": 69.44437499999913,
      "v": 97
    },
    {
      "midi": 74,
      "hit": false,
      "t": 10303.019999999993,
      "d": 69.44437499999913,
      "v": 92
    },
    {
      "midi": 67,
      "hit": false,
      "t": 10606.049999999992,
      "d": 44.19187500000044,
      "v": 92
    },
    {
      "midi": 69,
      "hit": false,
      "t": 10606.049999999992,
      "d": 44.19187500000044,
      "v": 109
    },
    {
      "midi": 70,
      "hit": false,
      "t": 10606.049999999992,
      "d": 44.19187500000044,
      "v": 97
    },
    {
      "midi": 74,
      "hit": false,
      "t": 10606.049999999992,
      "d": 44.19187500000044,
      "v": 86
    },
    {
      "midi": 67,
      "hit": false,
      "t": 10909.079999999993,
      "d": 56.81812499999978,
      "v": 97
    },
    {
      "midi": 69,
      "hit": false,
      "t": 10909.079999999993,
      "d": 56.81812499999978,
      "v": 109
    },
    {
      "midi": 70,
      "hit": false,
      "t": 10909.079999999993,
      "d": 56.81812499999978,
      "v": 102
    },
    {
      "midi": 74,
      "hit": false,
      "t": 10909.079999999993,
      "d": 56.81812499999978,
      "v": 94
    },
    {
      "midi": 74,
      "hit": false,
      "t": 11212.109999999993,
      "d": 44.19187500000044,
      "v": 86
    },
    {
      "midi": 67,
      "hit": false,
      "t": 11212.109999999993,
      "d": 50.50500000000102,
      "v": 92
    },
    {
      "midi": 69,
      "hit": false,
      "t": 11212.109999999993,
      "d": 50.50500000000102,
      "v": 106
    },
    {
      "midi": 70,
      "hit": false,
      "t": 11212.109999999993,
      "d": 50.50500000000102,
      "v": 94
    },
    {
      "midi": 74,
      "hit": false,
      "t": 11515.139999999994,
      "d": 44.19187500000044,
      "v": 88
    },
    {
      "midi": 67,
      "hit": false,
      "t": 11515.139999999994,
      "d": 50.50500000000102,
      "v": 88
    },
    {
      "midi": 69,
      "hit": false,
      "t": 11515.139999999994,
      "d": 50.50500000000102,
      "v": 104
    },
    {
      "midi": 70,
      "hit": false,
      "t": 11515.139999999994,
      "d": 50.50500000000102,
      "v": 94
    },
    {
      "midi": 67,
      "hit": false,
      "t": 11818.169999999995,
      "d": 69.44437499999913,
      "v": 92
    },
    {
      "midi": 69,
      "hit": false,
      "t": 11818.169999999995,
      "d": 69.44437499999913,
      "v": 102
    },
    {
      "midi": 70,
      "hit": false,
      "t": 11818.169999999995,
      "d": 69.44437499999913,
      "v": 94
    },
    {
      "midi": 74,
      "hit": false,
      "t": 11818.169999999995,
      "d": 69.44437499999913,
      "v": 92
    },
    {
      "midi": 74,
      "hit": false,
      "t": 12121.199999999993,
      "d": 44.19187500000044,
      "v": 88
    },
    {
      "midi": 69,
      "hit": false,
      "t": 12121.199999999993,
      "d": 50.50500000000102,
      "v": 106
    },
    {
      "midi": 67,
      "hit": false,
      "t": 12121.199999999993,
      "d": 69.44437500000095,
      "v": 94
    },
    {
      "midi": 70,
      "hit": false,
      "t": 12121.199999999993,
      "d": 69.44437500000095,
      "v": 99
    },
    {
      "midi": 69,
      "hit": false,
      "t": 12424.229999999994,
      "d": 25.25250000000051,
      "v": 88
    },
    {
      "midi": 74,
      "hit": false,
      "t": 12424.229999999994,
      "d": 25.25250000000051,
      "v": 83
    },
    {
      "midi": 70,
      "hit": false,
      "t": 12424.229999999994,
      "d": 69.44437500000095,
      "v": 95
    },
    {
      "midi": 67,
      "hit": false,
      "t": 12424.229999999994,
      "d": 75.75750000000153,
      "v": 88
    },
    {
      "midi": 62,
      "hit": false,
      "t": 12727.259999999995,
      "d": 44.19187500000044,
      "v": 102
    },
    {
      "midi": 72,
      "hit": false,
      "t": 12727.259999999995,
      "d": 50.50500000000102,
      "v": 92
    },
    {
      "midi": 66,
      "hit": false,
      "t": 12727.259999999995,
      "d": 56.8181250000016,
      "v": 104
    },
    {
      "midi": 69,
      "hit": false,
      "t": 12727.259999999995,
      "d": 56.8181250000016,
      "v": 92
    },
    {
      "midi": 69,
      "hit": false,
      "t": 13030.289999999997,
      "d": 44.19187500000044,
      "v": 71
    },
    {
      "midi": 62,
      "hit": false,
      "t": 13030.289999999997,
      "d": 69.44437500000095,
      "v": 86
    },
    {
      "midi": 66,
      "hit": false,
      "t": 13030.289999999997,
      "d": 69.44437500000095,
      "v": 94
    },
    {
      "midi": 72,
      "hit": false,
      "t": 13030.289999999997,
      "d": 69.44437500000095,
      "v": 79
    },
    {
      "midi": 69,
      "hit": false,
      "t": 13333.319999999998,
      "d": 25.25250000000051,
      "v": 71
    },
    {
      "midi": 72,
      "hit": false,
      "t": 13333.319999999998,
      "d": 44.19187500000044,
      "v": 86
    },
    {
      "midi": 62,
      "hit": false,
      "t": 13333.319999999998,
      "d": 50.50500000000102,
      "v": 86
    },
    {
      "midi": 66,
      "hit": false,
      "t": 13333.319999999998,
      "d": 69.44437500000095,
      "v": 94
    },
    {
      "midi": 69,
      "hit": false,
      "t": 13636.349999999999,
      "d": 44.19187500000044,
      "v": 86
    },
    {
      "midi": 72,
      "hit": false,
      "t": 13636.349999999999,
      "d": 44.19187500000044,
      "v": 95
    },
    {
      "midi": 62,
      "hit": false,
      "t": 13636.349999999999,
      "d": 69.44437500000095,
      "v": 100
    },
    {
      "midi": 66,
      "hit": false,
      "t": 13636.349999999999,
      "d": 69.44437500000095,
      "v": 102
    },
    {
      "midi": 66,
      "hit": false,
      "t": 13939.38,
      "d": 50.5049999999992,
      "v": 97
    },
    {
      "midi": 69,
      "hit": false,
      "t": 13939.38,
      "d": 50.5049999999992,
      "v": 76
    },
    {
      "midi": 72,
      "hit": false,
      "t": 13939.38,
      "d": 50.5049999999992,
      "v": 86
    },
    {
      "midi": 62,
      "hit": false,
      "t": 13939.38,
      "d": 69.44437499999913,
      "v": 94
    },
    {
      "midi": 69,
      "hit": false,
      "t": 14242.409999999998,
      "d": 44.19187500000044,
      "v": 78
    },
    {
      "midi": 72,
      "hit": false,
      "t": 14242.409999999998,
      "d": 44.19187500000044,
      "v": 85
    },
    {
      "midi": 62,
      "hit": false,
      "t": 14242.409999999998,
      "d": 50.50500000000102,
      "v": 94
    },
    {
      "midi": 66,
      "hit": false,
      "t": 14242.409999999998,
      "d": 69.44437500000095,
      "v": 94
    },
    {
      "midi": 62,
      "hit": false,
      "t": 14545.439999999999,
      "d": 31.565624999999272,
      "v": 92
    },
    {
      "midi": 66,
      "hit": false,
      "t": 14545.439999999999,
      "d": 31.565624999999272,
      "v": 102
    },
    {
      "midi": 69,
      "hit": false,
      "t": 14545.439999999999,
      "d": 31.565624999999272,
      "v": 78
    },
    {
      "midi": 72,
      "hit": false,
      "t": 14545.439999999999,
      "d": 31.565624999999272,
      "v": 92
    },
    {
      "midi": 72,
      "hit": false,
      "t": 14848.469999999998,
      "d": 18.939374999999927,
      "v": 76
    },
    {
      "midi": 69,
      "hit": false,
      "t": 14848.469999999998,
      "d": 50.5049999999992,
      "v": 76
    },
    {
      "midi": 62,
      "hit": false,
      "t": 14848.469999999998,
      "d": 69.44437499999913,
      "v": 92
    },
    {
      "midi": 66,
      "hit": false,
      "t": 14848.469999999998,
      "d": 69.44437499999913,
      "v": 100
    },
    {
      "midi": 69,
      "hit": false,
      "t": 15151.499999999996,
      "d": 44.19187500000044,
      "v": 69
    },
    {
      "midi": 72,
      "hit": false,
      "t": 15151.499999999996,
      "d": 44.19187500000044,
      "v": 76
    },
    {
      "midi": 62,
      "hit": false,
      "t": 15151.499999999996,
      "d": 69.44437500000095,
      "v": 86
    },
    {
      "midi": 66,
      "hit": false,
      "t": 15151.499999999996,
      "d": 69.44437500000095,
      "v": 92
    },
    {
      "midi": 69,
      "hit": false,
      "t": 15454.529999999997,
      "d": 44.19187500000044,
      "v": 78
    },
    {
      "midi": 62,
      "hit": false,
      "t": 15454.529999999997,
      "d": 50.50500000000102,
      "v": 88
    },
    {
      "midi": 66,
      "hit": false,
      "t": 15454.529999999997,
      "d": 50.50500000000102,
      "v": 102
    },
    {
      "midi": 72,
      "hit": false,
      "t": 15454.529999999997,
      "d": 56.8181250000016,
      "v": 88
    },
    {
      "midi": 62,
      "hit": false,
      "t": 15757.56,
      "d": 50.5049999999992,
      "v": 92
    },
    {
      "midi": 66,
      "hit": false,
      "t": 15757.56,
      "d": 50.5049999999992,
      "v": 99
    },
    {
      "midi": 69,
      "hit": false,
      "t": 15757.56,
      "d": 50.5049999999992,
      "v": 76
    },
    {
      "midi": 72,
      "hit": false,
      "t": 15757.56,
      "d": 50.5049999999992,
      "v": 92
    },
    {
      "midi": 66,
      "hit": false,
      "t": 16060.589999999998,
      "d": 25.25250000000051,
      "v": 86
    },
    {
      "midi": 69,
      "hit": false,
      "t": 16060.589999999998,
      "d": 25.25250000000051,
      "v": 67
    },
    {
      "midi": 62,
      "hit": false,
      "t": 16060.589999999998,
      "d": 44.19187500000044,
      "v": 92
    },
    {
      "midi": 72,
      "hit": false,
      "t": 16060.589999999998,
      "d": 44.19187500000044,
      "v": 86
    },
    {
      "midi": 69,
      "hit": false,
      "t": 16363.619999999999,
      "d": 31.565624999999272,
      "v": 106
    },
    {
      "midi": 70,
      "hit": false,
      "t": 16363.619999999999,
      "d": 31.565624999999272,
      "v": 95
    },
    {
      "midi": 67,
      "hit": false,
      "t": 16363.619999999999,
      "d": 44.19187500000044,
      "v": 100
    },
    {
      "midi": 74,
      "hit": false,
      "t": 16363.619999999999,
      "d": 44.19187500000044,
      "v": 102
    },
    {
      "midi": 69,
      "hit": false,
      "t": 16666.649999999998,
      "d": 50.50500000000102,
      "v": 95
    },
    {
      "midi": 70,
      "hit": false,
      "t": 16666.649999999998,
      "d": 50.50500000000102,
      "v": 83
    },
    {
      "midi": 67,
      "hit": false,
      "t": 16666.649999999998,
      "d": 69.44437500000276,
      "v": 88
    },
    {
      "midi": 74,
      "hit": false,
      "t": 16666.649999999998,
      "d": 69.44437500000276,
      "v": 86
    },
    {
      "midi": 67,
      "hit": false,
      "t": 16969.68,
      "d": 50.50500000000102,
      "v": 86
    },
    {
      "midi": 69,
      "hit": false,
      "t": 16969.68,
      "d": 50.50500000000102,
      "v": 88
    },
    {
      "midi": 70,
      "hit": false,
      "t": 16969.68,
      "d": 50.50500000000102,
      "v": 79
    },
    {
      "midi": 74,
      "hit": false,
      "t": 16969.68,
      "d": 69.44437500000276,
      "v": 85
    },
    {
      "midi": 67,
      "hit": false,
      "t": 17272.710000000003,
      "d": 50.50500000000102,
      "v": 102
    },
    {
      "midi": 69,
      "hit": false,
      "t": 17272.710000000003,
      "d": 69.44437500000276,
      "v": 106
    },
    {
      "midi": 70,
      "hit": false,
      "t": 17272.710000000003,
      "d": 69.44437500000276,
      "v": 102
    },
    {
      "midi": 74,
      "hit": false,
      "t": 17272.710000000003,
      "d": 69.44437500000276,
      "v": 97
    },
    {
      "midi": 69,
      "hit": false,
      "t": 17575.740000000005,
      "d": 50.50500000000102,
      "v": 102
    },
    {
      "midi": 67,
      "hit": false,
      "t": 17575.740000000005,
      "d": 69.44437500000276,
      "v": 94
    },
    {
      "midi": 70,
      "hit": false,
      "t": 17575.740000000005,
      "d": 69.44437500000276,
      "v": 88
    },
    {
      "midi": 74,
      "hit": false,
      "t": 17575.740000000005,
      "d": 69.44437500000276,
      "v": 88
    },
    {
      "midi": 69,
      "hit": false,
      "t": 17878.770000000008,
      "d": 44.19187500000044,
      "v": 94
    },
    {
      "midi": 74,
      "hit": false,
      "t": 17878.770000000008,
      "d": 44.19187500000044,
      "v": 85
    },
    {
      "midi": 67,
      "hit": false,
      "t": 17878.770000000008,
      "d": 50.50500000000102,
      "v": 88
    },
    {
      "midi": 70,
      "hit": false,
      "t": 17878.770000000008,
      "d": 50.50500000000102,
      "v": 72
    },
    {
      "midi": 69,
      "hit": false,
      "t": 18181.80000000001,
      "d": 44.19187500000044,
      "v": 102
    },
    {
      "midi": 67,
      "hit": false,
      "t": 18181.80000000001,
      "d": 56.8181250000016,
      "v": 92
    },
    {
      "midi": 70,
      "hit": false,
      "t": 18181.80000000001,
      "d": 56.8181250000016,
      "v": 92
    },
    {
      "midi": 74,
      "hit": false,
      "t": 18181.80000000001,
      "d": 56.8181250000016,
      "v": 92
    },
    {
      "midi": 67,
      "hit": false,
      "t": 18484.830000000013,
      "d": 50.50500000000102,
      "v": 85
    },
    {
      "midi": 69,
      "hit": false,
      "t": 18484.830000000013,
      "d": 50.50500000000102,
      "v": 95
    },
    {
      "midi": 70,
      "hit": false,
      "t": 18484.830000000013,
      "d": 50.50500000000102,
      "v": 79
    },
    {
      "midi": 74,
      "hit": false,
      "t": 18484.830000000013,
      "d": 50.50500000000102,
      "v": 88
    },
    {
      "midi": 69,
      "hit": false,
      "t": 18787.860000000015,
      "d": 44.19187500000044,
      "v": 95
    },
    {
      "midi": 74,
      "hit": false,
      "t": 18787.860000000015,
      "d": 44.19187500000044,
      "v": 88
    },
    {
      "midi": 67,
      "hit": false,
      "t": 18787.860000000015,
      "d": 50.50500000000102,
      "v": 86
    },
    {
      "midi": 70,
      "hit": false,
      "t": 18787.860000000015,
      "d": 50.50500000000102,
      "v": 83
    },
    {
      "midi": 67,
      "hit": false,
      "t": 19090.890000000018,
      "d": 50.50500000000102,
      "v": 95
    },
    {
      "midi": 69,
      "hit": false,
      "t": 19090.890000000018,
      "d": 50.50500000000102,
      "v": 104
    },
    {
      "midi": 70,
      "hit": false,
      "t": 19090.890000000018,
      "d": 69.44437500000276,
      "v": 95
    },
    {
      "midi": 74,
      "hit": false,
      "t": 19090.890000000018,
      "d": 69.44437500000276,
      "v": 88
    },
    {
      "midi": 69,
      "hit": false,
      "t": 19393.92000000002,
      "d": 44.19187500000044,
      "v": 100
    },
    {
      "midi": 74,
      "hit": false,
      "t": 19393.92000000002,
      "d": 44.19187500000044,
      "v": 85
    },
    {
      "midi": 67,
      "hit": false,
      "t": 19393.92000000002,
      "d": 69.44437499999913,
      "v": 94
    },
    {
      "midi": 70,
      "hit": false,
      "t": 19393.92000000002,
      "d": 69.44437499999913,
      "v": 95
    },
    {
      "midi": 74,
      "hit": false,
      "t": 19696.95000000002,
      "d": 25.25249999999869,
      "v": 83
    },
    {
      "midi": 69,
      "hit": false,
      "t": 19696.95000000002,
      "d": 44.19187500000044,
      "v": 92
    },
    {
      "midi": 70,
      "hit": false,
      "t": 19696.95000000002,
      "d": 50.50500000000102,
      "v": 94
    },
    {
      "midi": 67,
      "hit": false,
      "t": 19696.95000000002,
      "d": 69.44437500000276,
      "v": 94
    },
    {
      "midi": 69,
      "hit": false,
      "t": 19999.98000000002,
      "d": 44.19187500000044,
      "v": 74
    },
    {
      "midi": 62,
      "hit": false,
      "t": 19999.98000000002,
      "d": 56.8181250000016,
      "v": 99
    },
    {
      "midi": 66,
      "hit": false,
      "t": 19999.98000000002,
      "d": 56.8181250000016,
      "v": 102
    },
    {
      "midi": 72,
      "hit": false,
      "t": 19999.98000000002,
      "d": 69.44437500000276,
      "v": 97
    },
    {
      "midi": 69,
      "hit": false,
      "t": 20303.010000000024,
      "d": 25.25249999999869,
      "v": 67
    },
    {
      "midi": 62,
      "hit": false,
      "t": 20303.010000000024,
      "d": 50.50499999999738,
      "v": 83
    },
    {
      "midi": 66,
      "hit": false,
      "t": 20303.010000000024,
      "d": 50.50499999999738,
      "v": 88
    },
    {
      "midi": 72,
      "hit": false,
      "t": 20303.010000000024,
      "d": 69.44437499999913,
      "v": 85
    },
    {
      "midi": 72,
      "hit": false,
      "t": 20606.040000000023,
      "d": 25.25249999999869,
      "v": 74
    },
    {
      "midi": 69,
      "hit": false,
      "t": 20606.040000000023,
      "d": 44.19187500000044,
      "v": 67
    },
    {
      "midi": 62,
      "hit": false,
      "t": 20606.040000000023,
      "d": 50.50500000000102,
      "v": 92
    },
    {
      "midi": 66,
      "hit": false,
      "t": 20606.040000000023,
      "d": 50.50500000000102,
      "v": 92
    },
    {
      "midi": 62,
      "hit": false,
      "t": 20909.070000000025,
      "d": 44.19187500000044,
      "v": 94
    },
    {
      "midi": 66,
      "hit": false,
      "t": 20909.070000000025,
      "d": 44.19187500000044,
      "v": 99
    },
    {
      "midi": 69,
      "hit": false,
      "t": 20909.070000000025,
      "d": 50.50500000000102,
      "v": 79
    },
    {
      "midi": 72,
      "hit": false,
      "t": 20909.070000000025,
      "d": 50.50500000000102,
      "v": 88
    },
    {
      "midi": 66,
      "hit": false,
      "t": 21212.100000000028,
      "d": 44.19187500000044,
      "v": 95
    },
    {
      "midi": 62,
      "hit": false,
      "t": 21212.100000000028,
      "d": 50.50500000000102,
      "v": 92
    },
    {
      "midi": 69,
      "hit": false,
      "t": 21212.100000000028,
      "d": 50.50500000000102,
      "v": 71
    },
    {
      "midi": 72,
      "hit": false,
      "t": 21212.100000000028,
      "d": 50.50500000000102,
      "v": 78
    },
    {
      "midi": 69,
      "hit": false,
      "t": 21515.13000000003,
      "d": 25.25249999999869,
      "v": 72
    },
    {
      "midi": 66,
      "hit": false,
      "t": 21515.13000000003,
      "d": 44.19187500000044,
      "v": 95
    },
    {
      "midi": 72,
      "hit": false,
      "t": 21515.13000000003,
      "d": 44.19187500000044,
      "v": 81
    },
    {
      "midi": 62,
      "hit": false,
      "t": 21515.13000000003,
      "d": 50.50500000000102,
      "v": 88
    },
    {
      "midi": 62,
      "hit": false,
      "t": 21818.160000000033,
      "d": 31.565624999999272,
      "v": 102
    },
    {
      "midi": 66,
      "hit": false,
      "t": 21818.160000000033,
      "d": 31.565624999999272,
      "v": 104
    },
    {
      "midi": 69,
      "hit": false,
      "t": 21818.160000000033,
      "d": 31.565624999999272,
      "v": 78
    },
    {
      "midi": 72,
      "hit": false,
      "t": 21818.160000000033,
      "d": 31.565624999999272,
      "v": 92
    },
    {
      "midi": 69,
      "hit": false,
      "t": 22121.19000000003,
      "d": 44.19187500000044,
      "v": 74
    },
    {
      "midi": 72,
      "hit": false,
      "t": 22121.19000000003,
      "d": 44.19187500000044,
      "v": 86
    },
    {
      "midi": 66,
      "hit": false,
      "t": 22121.19000000003,
      "d": 50.50500000000102,
      "v": 95
    },
    {
      "midi": 62,
      "hit": false,
      "t": 22121.19000000003,
      "d": 69.44437500000276,
      "v": 92
    },
    {
      "midi": 69,
      "hit": false,
      "t": 22424.220000000034,
      "d": 25.25249999999869,
      "v": 76
    },
    {
      "midi": 72,
      "hit": false,
      "t": 22424.220000000034,
      "d": 25.25249999999869,
      "v": 86
    },
    {
      "midi": 62,
      "hit": false,
      "t": 22424.220000000034,
      "d": 44.19187500000044,
      "v": 97
    },
    {
      "midi": 66,
      "hit": false,
      "t": 22424.220000000034,
      "d": 50.50500000000102,
      "v": 102
    },
    {
      "midi": 69,
      "hit": false,
      "t": 22727.250000000036,
      "d": 44.19187500000044,
      "v": 83
    },
    {
      "midi": 72,
      "hit": false,
      "t": 22727.250000000036,
      "d": 44.19187500000044,
      "v": 92
    },
    {
      "midi": 62,
      "hit": false,
      "t": 22727.250000000036,
      "d": 50.50500000000102,
      "v": 100
    },
    {
      "midi": 66,
      "hit": false,
      "t": 22727.250000000036,
      "d": 50.50500000000102,
      "v": 104
    },
    {
      "midi": 66,
      "hit": false,
      "t": 23030.28000000004,
      "d": 44.19187500000044,
      "v": 102
    },
    {
      "midi": 62,
      "hit": false,
      "t": 23030.28000000004,
      "d": 50.50500000000102,
      "v": 95
    },
    {
      "midi": 69,
      "hit": false,
      "t": 23030.28000000004,
      "d": 50.50500000000102,
      "v": 76
    },
    {
      "midi": 72,
      "hit": false,
      "t": 23030.28000000004,
      "d": 50.50500000000102,
      "v": 85
    },
    {
      "midi": 62,
      "hit": false,
      "t": 23333.31000000004,
      "d": 44.19187500000044,
      "v": 100
    },
    {
      "midi": 66,
      "hit": false,
      "t": 23333.31000000004,
      "d": 44.19187500000044,
      "v": 102
    },
    {
      "midi": 69,
      "hit": false,
      "t": 23333.31000000004,
      "d": 44.19187500000044,
      "v": 76
    },
    {
      "midi": 72,
      "hit": false,
      "t": 23333.31000000004,
      "d": 44.19187500000044,
      "v": 88
    },
    {
      "midi": 43,
      "hit": false,
      "t": 23636.34000000004,
      "d": 631.3125,
      "v": 120
    },
    {
      "midi": 62,
      "hit": false,
      "t": 23939.37000000004,
      "d": 606.0600000000013,
      "v": 109
    },
    {
      "midi": 55,
      "hit": false,
      "t": 23939.37000000004,
      "d": 624.999375000003,
      "v": 111
    },
    {
      "midi": 59,
      "hit": false,
      "t": 23939.37000000004,
      "d": 631.3125000000036,
      "v": 118
    },
    {
      "midi": 43,
      "hit": false,
      "t": 24545.43000000004,
      "d": 328.28250000000116,
      "v": 106
    },
    {
      "midi": 59,
      "hit": false,
      "t": 24848.460000000043,
      "d": 675.5043749999968,
      "v": 116
    },
    {
      "midi": 55,
      "hit": false,
      "t": 24848.460000000043,
      "d": 681.8174999999974,
      "v": 102
    },
    {
      "midi": 62,
      "hit": false,
      "t": 24848.460000000043,
      "d": 681.8174999999974,
      "v": 102
    },
    {
      "midi": 43,
      "hit": false,
      "t": 25151.49000000004,
      "d": 25.25249999999869,
      "v": 72
    },
    {
      "midi": 43,
      "hit": false,
      "t": 25454.52000000004,
      "d": 624.9993749999994,
      "v": 118
    },
    {
      "midi": 53,
      "hit": false,
      "t": 25757.55000000004,
      "d": 675.5043750000004,
      "v": 106
    },
    {
      "midi": 62,
      "hit": false,
      "t": 25757.55000000004,
      "d": 675.5043750000004,
      "v": 106
    },
    {
      "midi": 59,
      "hit": false,
      "t": 25757.55000000004,
      "d": 681.817500000001,
      "v": 113
    },
    {
      "midi": 43,
      "hit": false,
      "t": 26363.61000000004,
      "d": 303.02999999999884,
      "v": 116
    },
    {
      "midi": 59,
      "hit": false,
      "t": 26666.64000000004,
      "d": 303.02999999999884,
      "v": 113
    },
    {
      "midi": 53,
      "hit": false,
      "t": 26666.64000000004,
      "d": 321.9693750000006,
      "v": 102
    },
    {
      "midi": 62,
      "hit": false,
      "t": 26666.64000000004,
      "d": 328.28250000000116,
      "v": 102
    },
    {
      "midi": 43,
      "hit": false,
      "t": 26969.67000000004,
      "d": 252.52500000000146,
      "v": 106
    },
    {
      "midi": 36,
      "hit": false,
      "t": 27272.70000000004,
      "d": 763.8881249999977,
      "v": 97
    },
    {
      "midi": 55,
      "hit": false,
      "t": 27575.73000000004,
      "d": 675.5043749999968,
      "v": 88
    },
    {
      "midi": 63,
      "hit": false,
      "t": 27575.73000000004,
      "d": 675.5043749999968,
      "v": 100
    },
    {
      "midi": 60,
      "hit": false,
      "t": 27575.73000000004,
      "d": 681.8174999999974,
      "v": 111
    },
    {
      "midi": 36,
      "hit": false,
      "t": 28181.790000000037,
      "d": 372.47437499999796,
      "v": 97
    },
    {
      "midi": 55,
      "hit": false,
      "t": 28484.820000000036,
      "d": 681.817500000001,
      "v": 100
    },
    {
      "midi": 63,
      "hit": false,
      "t": 28484.820000000036,
      "d": 681.817500000001,
      "v": 106
    },
    {
      "midi": 60,
      "hit": false,
      "t": 28484.820000000036,
      "d": 700.7568750000028,
      "v": 111
    },
    {
      "midi": 36,
      "hit": false,
      "t": 28787.850000000035,
      "d": 18.939375000001746,
      "v": 67
    },
    {
      "midi": 36,
      "hit": false,
      "t": 29090.880000000037,
      "d": 700.7568750000028,
      "v": 102
    },
    {
      "midi": 55,
      "hit": false,
      "t": 29393.91000000004,
      "d": 523.989375000001,
      "v": 100
    },
    {
      "midi": 63,
      "hit": false,
      "t": 29393.91000000004,
      "d": 530.3025000000016,
      "v": 111
    },
    {
      "midi": 60,
      "hit": false,
      "t": 29393.91000000004,
      "d": 549.2418750000033,
      "v": 113
    },
    {
      "midi": 36,
      "hit": false,
      "t": 29999.970000000045,
      "d": 429.29249999999956,
      "v": 86
    },
    {
      "midi": 60,
      "hit": false,
      "t": 30303.000000000044,
      "d": 422.9793750000026,
      "v": 113
    },
    {
      "midi": 63,
      "hit": false,
      "t": 30303.000000000044,
      "d": 422.9793750000026,
      "v": 111
    },
    {
      "midi": 55,
      "hit": false,
      "t": 30303.000000000044,
      "d": 429.2925000000032,
      "v": 100
    },
    {
      "midi": 36,
      "hit": false,
      "t": 30606.030000000046,
      "d": 296.7168750000019,
      "v": 97
    },
    {
      "midi": 69,
      "hit": false,
      "t": 30909.06000000005,
      "d": 44.19187500000044,
      "v": 111
    },
    {
      "midi": 70,
      "hit": false,
      "t": 30909.06000000005,
      "d": 50.50500000000102,
      "v": 109
    },
    {
      "midi": 67,
      "hit": false,
      "t": 30909.06000000005,
      "d": 56.8181250000016,
      "v": 106
    },
    {
      "midi": 74,
      "hit": false,
      "t": 30909.06000000005,
      "d": 56.8181250000016,
      "v": 104
    },
    {
      "midi": 70,
      "hit": false,
      "t": 31212.09000000005,
      "d": 25.25249999999869,
      "v": 92
    },
    {
      "midi": 69,
      "hit": false,
      "t": 31212.09000000005,
      "d": 44.19187500000044,
      "v": 104
    },
    {
      "midi": 74,
      "hit": false,
      "t": 31212.09000000005,
      "d": 44.19187500000044,
      "v": 88
    },
    {
      "midi": 67,
      "hit": false,
      "t": 31212.09000000005,
      "d": 50.50500000000102,
      "v": 95
    },
    {
      "midi": 74,
      "hit": false,
      "t": 31515.120000000054,
      "d": 25.25249999999869,
      "v": 97
    },
    {
      "midi": 69,
      "hit": false,
      "t": 31515.120000000054,
      "d": 44.19187500000044,
      "v": 109
    },
    {
      "midi": 70,
      "hit": false,
      "t": 31515.120000000054,
      "d": 50.50500000000102,
      "v": 104
    },
    {
      "midi": 67,
      "hit": false,
      "t": 31515.120000000054,
      "d": 69.44437500000276,
      "v": 102
    },
    {
      "midi": 74,
      "hit": false,
      "t": 31818.150000000056,
      "d": 44.19187500000044,
      "v": 99
    },
    {
      "midi": 67,
      "hit": false,
      "t": 31818.150000000056,
      "d": 50.50500000000102,
      "v": 104
    },
    {
      "midi": 69,
      "hit": false,
      "t": 31818.150000000056,
      "d": 50.50500000000102,
      "v": 113
    },
    {
      "midi": 70,
      "hit": false,
      "t": 31818.150000000056,
      "d": 69.44437500000276,
      "v": 111
    },
    {
      "midi": 74,
      "hit": false,
      "t": 32121.18000000006,
      "d": 44.19187500000044,
      "v": 95
    },
    {
      "midi": 67,
      "hit": false,
      "t": 32121.18000000006,
      "d": 50.50500000000102,
      "v": 102
    },
    {
      "midi": 69,
      "hit": false,
      "t": 32121.18000000006,
      "d": 50.50500000000102,
      "v": 109
    },
    {
      "midi": 70,
      "hit": false,
      "t": 32121.18000000006,
      "d": 69.44437500000276,
      "v": 106
    },
    {
      "midi": 74,
      "hit": false,
      "t": 32424.21000000006,
      "d": 25.25249999999869,
      "v": 88
    },
    {
      "midi": 67,
      "hit": false,
      "t": 32424.21000000006,
      "d": 50.50499999999738,
      "v": 97
    },
    {
      "midi": 70,
      "hit": false,
      "t": 32424.21000000006,
      "d": 50.50499999999738,
      "v": 102
    },
    {
      "midi": 69,
      "hit": false,
      "t": 32424.21000000006,
      "d": 69.44437499999913,
      "v": 100
    },
    {
      "midi": 62,
      "hit": false,
      "t": 32727.24000000006,
      "d": 44.19187500000044,
      "v": 106
    },
    {
      "midi": 69,
      "hit": false,
      "t": 32727.24000000006,
      "d": 44.19187500000044,
      "v": 97
    },
    {
      "midi": 66,
      "hit": false,
      "t": 32727.24000000006,
      "d": 50.50500000000102,
      "v": 109
    },
    {
      "midi": 72,
      "hit": false,
      "t": 32727.24000000006,
      "d": 56.8181250000016,
      "v": 104
    },
    {
      "midi": 62,
      "hit": false,
      "t": 33030.27000000006,
      "d": 44.1918749999968,
      "v": 92
    },
    {
      "midi": 72,
      "hit": false,
      "t": 33030.27000000006,
      "d": 44.1918749999968,
      "v": 86
    },
    {
      "midi": 69,
      "hit": false,
      "t": 33030.27000000006,
      "d": 50.50499999999738,
      "v": 78
    },
    {
      "midi": 66,
      "hit": false,
      "t": 33030.27000000006,
      "d": 69.44437499999913,
      "v": 100
    },
    {
      "midi": 62,
      "hit": false,
      "t": 33333.30000000006,
      "d": 44.1918749999968,
      "v": 88
    },
    {
      "midi": 69,
      "hit": false,
      "t": 33333.30000000006,
      "d": 44.1918749999968,
      "v": 79
    },
    {
      "midi": 72,
      "hit": false,
      "t": 33333.30000000006,
      "d": 44.1918749999968,
      "v": 85
    },
    {
      "midi": 66,
      "hit": false,
      "t": 33333.30000000006,
      "d": 69.44437499999913,
      "v": 104
    },
    {
      "midi": 66,
      "hit": false,
      "t": 33636.33000000006,
      "d": 50.50499999999738,
      "v": 106
    },
    {
      "midi": 69,
      "hit": false,
      "t": 33636.33000000006,
      "d": 50.50499999999738,
      "v": 95
    },
    {
      "midi": 72,
      "hit": false,
      "t": 33636.33000000006,
      "d": 50.50499999999738,
      "v": 100
    },
    {
      "midi": 62,
      "hit": false,
      "t": 33636.33000000006,
      "d": 69.44437499999913,
      "v": 102
    },
    {
      "midi": 62,
      "hit": false,
      "t": 33939.36000000006,
      "d": 44.1918749999968,
      "v": 92
    },
    {
      "midi": 69,
      "hit": false,
      "t": 33939.36000000006,
      "d": 44.1918749999968,
      "v": 85
    },
    {
      "midi": 72,
      "hit": false,
      "t": 33939.36000000006,
      "d": 44.1918749999968,
      "v": 92
    },
    {
      "midi": 66,
      "hit": false,
      "t": 33939.36000000006,
      "d": 69.44437499999913,
      "v": 102
    },
    {
      "midi": 66,
      "hit": false,
      "t": 34242.39000000006,
      "d": 25.25250000000233,
      "v": 92
    },
    {
      "midi": 72,
      "hit": false,
      "t": 34242.39000000006,
      "d": 25.25250000000233,
      "v": 88
    },
    {
      "midi": 69,
      "hit": false,
      "t": 34242.39000000006,
      "d": 44.191875000004075,
      "v": 79
    },
    {
      "midi": 62,
      "hit": false,
      "t": 34242.39000000006,
      "d": 50.50500000000466,
      "v": 92
    },
    {
      "midi": 70,
      "hit": false,
      "t": 34545.420000000064,
      "d": 31.56562500000291,
      "v": 95
    },
    {
      "midi": 74,
      "hit": false,
      "t": 34545.420000000064,
      "d": 44.191875000004075,
      "v": 104
    },
    {
      "midi": 69,
      "hit": false,
      "t": 34545.420000000064,
      "d": 56.81812500000524,
      "v": 111
    },
    {
      "midi": 67,
      "hit": false,
      "t": 34545.420000000064,
      "d": 69.4443750000064,
      "v": 104
    },
    {
      "midi": 69,
      "hit": false,
      "t": 34848.45000000007,
      "d": 44.1918749999968,
      "v": 99
    },
    {
      "midi": 74,
      "hit": false,
      "t": 34848.45000000007,
      "d": 44.1918749999968,
      "v": 86
    },
    {
      "midi": 67,
      "hit": false,
      "t": 34848.45000000007,
      "d": 50.50499999999738,
      "v": 94
    },
    {
      "midi": 70,
      "hit": false,
      "t": 34848.45000000007,
      "d": 69.44437499999913,
      "v": 94
    },
    {
      "midi": 69,
      "hit": false,
      "t": 35151.48000000007,
      "d": 44.1918749999968,
      "v": 102
    },
    {
      "midi": 70,
      "hit": false,
      "t": 35151.48000000007,
      "d": 50.50499999999738,
      "v": 97
    },
    {
      "midi": 74,
      "hit": false,
      "t": 35151.48000000007,
      "d": 50.50499999999738,
      "v": 94
    },
    {
      "midi": 67,
      "hit": false,
      "t": 35151.48000000007,
      "d": 69.44437499999913,
      "v": 100
    },
    {
      "midi": 69,
      "hit": false,
      "t": 35454.51000000007,
      "d": 44.1918749999968,
      "v": 106
    },
    {
      "midi": 74,
      "hit": false,
      "t": 35454.51000000007,
      "d": 44.1918749999968,
      "v": 99
    },
    {
      "midi": 67,
      "hit": false,
      "t": 35454.51000000007,
      "d": 50.50499999999738,
      "v": 94
    },
    {
      "midi": 70,
      "hit": false,
      "t": 35454.51000000007,
      "d": 69.44437499999913,
      "v": 104
    },
    {
      "midi": 74,
      "hit": false,
      "t": 35757.540000000066,
      "d": 25.25250000000233,
      "v": 88
    },
    {
      "midi": 67,
      "hit": false,
      "t": 35757.540000000066,
      "d": 50.50500000000466,
      "v": 94
    },
    {
      "midi": 69,
      "hit": false,
      "t": 35757.540000000066,
      "d": 50.50500000000466,
      "v": 102
    },
    {
      "midi": 70,
      "hit": false,
      "t": 35757.540000000066,
      "d": 69.4443750000064,
      "v": 102
    },
    {
      "midi": 74,
      "hit": false,
      "t": 36060.57000000007,
      "d": 25.25250000000233,
      "v": 92
    },
    {
      "midi": 69,
      "hit": false,
      "t": 36060.57000000007,
      "d": 31.56562500000291,
      "v": 86
    },
    {
      "midi": 67,
      "hit": false,
      "t": 36060.57000000007,
      "d": 69.4443750000064,
      "v": 94
    },
    {
      "midi": 70,
      "hit": false,
      "t": 36060.57000000007,
      "d": 69.4443750000064,
      "v": 99
    },
    {
      "midi": 60,
      "hit": false,
      "t": 36363.60000000008,
      "d": 44.1918749999968,
      "v": 104
    },
    {
      "midi": 65,
      "hit": false,
      "t": 36363.60000000008,
      "d": 44.1918749999968,
      "v": 81
    },
    {
      "midi": 63,
      "hit": false,
      "t": 36363.60000000008,
      "d": 50.50499999999738,
      "v": 106
    },
    {
      "midi": 69,
      "hit": false,
      "t": 36363.60000000008,
      "d": 50.50499999999738,
      "v": 100
    },
    {
      "midi": 60,
      "hit": false,
      "t": 36666.63000000008,
      "d": 44.1918749999968,
      "v": 100
    },
    {
      "midi": 65,
      "hit": false,
      "t": 36666.63000000008,
      "d": 44.1918749999968,
      "v": 94
    },
    {
      "midi": 63,
      "hit": false,
      "t": 36666.63000000008,
      "d": 50.50499999999738,
      "v": 106
    },
    {
      "midi": 69,
      "hit": false,
      "t": 36666.63000000008,
      "d": 69.44437499999913,
      "v": 100
    },
    {
      "midi": 60,
      "hit": false,
      "t": 36969.660000000076,
      "d": 44.1918749999968,
      "v": 102
    },
    {
      "midi": 63,
      "hit": false,
      "t": 36969.660000000076,
      "d": 44.1918749999968,
      "v": 109
    },
    {
      "midi": 69,
      "hit": false,
      "t": 36969.660000000076,
      "d": 44.1918749999968,
      "v": 102
    },
    {
      "midi": 65,
      "hit": false,
      "t": 36969.660000000076,
      "d": 50.50499999999738,
      "v": 100
    },
    {
      "midi": 60,
      "hit": false,
      "t": 37272.690000000075,
      "d": 69.44437499999913,
      "v": 109
    },
    {
      "midi": 63,
      "hit": false,
      "t": 37272.690000000075,
      "d": 69.44437499999913,
      "v": 111
    },
    {
      "midi": 65,
      "hit": false,
      "t": 37272.690000000075,
      "d": 69.44437499999913,
      "v": 104
    },
    {
      "midi": 69,
      "hit": false,
      "t": 37272.690000000075,
      "d": 69.44437499999913,
      "v": 106
    },
    {
      "midi": 60,
      "hit": false,
      "t": 37575.720000000074,
      "d": 44.1918749999968,
      "v": 106
    },
    {
      "midi": 65,
      "hit": false,
      "t": 37575.720000000074,
      "d": 50.50499999999738,
      "v": 95
    },
    {
      "midi": 63,
      "hit": false,
      "t": 37575.720000000074,
      "d": 69.44437499999913,
      "v": 106
    },
    {
      "midi": 69,
      "hit": false,
      "t": 37575.720000000074,
      "d": 75.75749999999971,
      "v": 99
    },
    {
      "midi": 60,
      "hit": false,
      "t": 37878.75000000007,
      "d": 44.1918749999968,
      "v": 102
    },
    {
      "midi": 65,
      "hit": false,
      "t": 37878.75000000007,
      "d": 44.1918749999968,
      "v": 86
    },
    {
      "midi": 63,
      "hit": false,
      "t": 37878.75000000007,
      "d": 50.50499999999738,
      "v": 104
    },
    {
      "midi": 69,
      "hit": false,
      "t": 37878.75000000007,
      "d": 69.44437499999913,
      "v": 100
    },
    {
      "midi": 46,
      "hit": false,
      "t": 38181.78000000007,
      "d": 656.5650000000023,
      "v": 106
    },
    {
      "midi": 58,
      "hit": false,
      "t": 38484.81000000007,
      "d": 530.3025000000052,
      "v": 111
    },
    {
      "midi": 62,
      "hit": false,
      "t": 38484.81000000007,
      "d": 549.241875000007,
      "v": 100
    },
    {
      "midi": 53,
      "hit": false,
      "t": 38484.81000000007,
      "d": 555.5550000000076,
      "v": 106
    },
    {
      "midi": 46,
      "hit": false,
      "t": 39090.870000000075,
      "d": 252.52500000000146,
      "v": 92
    },
    {
      "midi": 62,
      "hit": false,
      "t": 39393.900000000074,
      "d": 479.7975000000006,
      "v": 94
    },
    {
      "midi": 58,
      "hit": false,
      "t": 39393.900000000074,
      "d": 498.7368750000023,
      "v": 109
    },
    {
      "midi": 53,
      "hit": false,
      "t": 39393.900000000074,
      "d": 574.494375000002,
      "v": 104
    },
    {
      "midi": 46,
      "hit": false,
      "t": 39999.96000000008,
      "d": 321.9693750000006,
      "v": 104
    },
    {
      "midi": 62,
      "hit": false,
      "t": 40302.99000000008,
      "d": 530.3025000000052,
      "v": 79
    },
    {
      "midi": 58,
      "hit": false,
      "t": 40302.99000000008,
      "d": 580.8075000000026,
      "v": 106
    },
    {
      "midi": 53,
      "hit": false,
      "t": 40302.99000000008,
      "d": 606.060000000005,
      "v": 95
    },
    {
      "midi": 46,
      "hit": false,
      "t": 40909.05000000008,
      "d": 277.7774999999965,
      "v": 104
    },
    {
      "midi": 58,
      "hit": false,
      "t": 41212.08000000008,
      "d": 328.28250000000116,
      "v": 106
    },
    {
      "midi": 53,
      "hit": false,
      "t": 41212.08000000008,
      "d": 372.47437499999796,
      "v": 97
    },
    {
      "midi": 62,
      "hit": false,
      "t": 41212.08000000008,
      "d": 372.47437499999796,
      "v": 92
    },
    {
      "midi": 46,
      "hit": false,
      "t": 41515.11000000008,
      "d": 290.4037499999977,
      "v": 102
    },
    {
      "midi": 41,
      "hit": false,
      "t": 41818.14000000008,
      "d": 328.28250000000116,
      "v": 102
    },
    {
      "midi": 63,
      "hit": false,
      "t": 42121.17000000008,
      "d": 580.8075000000026,
      "v": 97
    },
    {
      "midi": 57,
      "hit": false,
      "t": 42121.17000000008,
      "d": 606.060000000005,
      "v": 99
    },
    {
      "midi": 60,
      "hit": false,
      "t": 42121.17000000008,
      "d": 606.060000000005,
      "v": 104
    },
    {
      "midi": 65,
      "hit": false,
      "t": 42121.17000000008,
      "d": 606.060000000005,
      "v": 92
    },
    {
      "midi": 41,
      "hit": false,
      "t": 42727.23000000008,
      "d": 246.21187500000087,
      "v": 94
    },
    {
      "midi": 60,
      "hit": false,
      "t": 43030.26000000008,
      "d": 69.44437499999913,
      "v": 104
    },
    {
      "midi": 63,
      "hit": false,
      "t": 43030.26000000008,
      "d": 69.44437499999913,
      "v": 94
    },
    {
      "midi": 57,
      "hit": false,
      "t": 43030.26000000008,
      "d": 94.69687500000146,
      "v": 95
    },
    {
      "midi": 65,
      "hit": false,
      "t": 43030.26000000008,
      "d": 94.69687500000146,
      "v": 85
    },
    {
      "midi": 63,
      "hit": false,
      "t": 43333.29000000008,
      "d": 404.0400000000009,
      "v": 88
    },
    {
      "midi": 65,
      "hit": false,
      "t": 43333.29000000008,
      "d": 404.0400000000009,
      "v": 72
    },
    {
      "midi": 57,
      "hit": false,
      "t": 43333.29000000008,
      "d": 422.9793750000026,
      "v": 74
    },
    {
      "midi": 60,
      "hit": false,
      "t": 43333.29000000008,
      "d": 422.9793750000026,
      "v": 97
    },
    {
      "midi": 41,
      "hit": false,
      "t": 43636.32000000008,
      "d": 587.1206250000032,
      "v": 111
    },
    {
      "midi": 57,
      "hit": false,
      "t": 43939.350000000086,
      "d": 422.97937499999534,
      "v": 100
    },
    {
      "midi": 60,
      "hit": false,
      "t": 43939.350000000086,
      "d": 422.97937499999534,
      "v": 106
    },
    {
      "midi": 63,
      "hit": false,
      "t": 43939.350000000086,
      "d": 422.97937499999534,
      "v": 102
    },
    {
      "midi": 65,
      "hit": false,
      "t": 43939.350000000086,
      "d": 422.97937499999534,
      "v": 95
    },
    {
      "midi": 41,
      "hit": false,
      "t": 44545.41000000008,
      "d": 397.7268750000003,
      "v": 106
    },
    {
      "midi": 60,
      "hit": false,
      "t": 44848.44000000008,
      "d": 18.939375000001746,
      "v": 109
    },
    {
      "midi": 57,
      "hit": false,
      "t": 44848.44000000008,
      "d": 25.25250000000233,
      "v": 100
    },
    {
      "midi": 63,
      "hit": false,
      "t": 44848.44000000008,
      "d": 25.25250000000233,
      "v": 95
    },
    {
      "midi": 65,
      "hit": false,
      "t": 44848.44000000008,
      "d": 44.191875000004075,
      "v": 92
    },
    {
      "midi": 63,
      "hit": false,
      "t": 45151.47000000008,
      "d": 353.5349999999962,
      "v": 104
    },
    {
      "midi": 65,
      "hit": false,
      "t": 45151.47000000008,
      "d": 353.5349999999962,
      "v": 78
    },
    {
      "midi": 60,
      "hit": false,
      "t": 45151.47000000008,
      "d": 372.47437499999796,
      "v": 116
    },
    {
      "midi": 57,
      "hit": false,
      "t": 45151.47000000008,
      "d": 378.78749999999854,
      "v": 104
    },
    {
      "midi": 41,
      "hit": false,
      "t": 45454.50000000008,
      "d": 624.9993749999994,
      "v": 118
    },
    {
      "midi": 65,
      "hit": false,
      "t": 45757.53000000008,
      "d": 580.8075000000026,
      "v": 99
    },
    {
      "midi": 57,
      "hit": false,
      "t": 45757.53000000008,
      "d": 624.9993750000067,
      "v": 100
    },
    {
      "midi": 60,
      "hit": false,
      "t": 45757.53000000008,
      "d": 624.9993750000067,
      "v": 109
    },
    {
      "midi": 63,
      "hit": false,
      "t": 45757.53000000008,
      "d": 624.9993750000067,
      "v": 102
    },
    {
      "midi": 41,
      "hit": false,
      "t": 46363.590000000084,
      "d": 246.21187500000087,
      "v": 102
    },
    {
      "midi": 60,
      "hit": false,
      "t": 46666.62000000008,
      "d": 18.939375000001746,
      "v": 104
    },
    {
      "midi": 63,
      "hit": false,
      "t": 46666.62000000008,
      "d": 18.939375000001746,
      "v": 72
    },
    {
      "midi": 57,
      "hit": false,
      "t": 46666.62000000008,
      "d": 25.25250000000233,
      "v": 95
    },
    {
      "midi": 60,
      "hit": false,
      "t": 46969.65000000008,
      "d": 372.47437499999796,
      "v": 111
    },
    {
      "midi": 63,
      "hit": false,
      "t": 46969.65000000008,
      "d": 372.47437499999796,
      "v": 95
    },
    {
      "midi": 65,
      "hit": false,
      "t": 46969.65000000008,
      "d": 372.47437499999796,
      "v": 92
    },
    {
      "midi": 57,
      "hit": false,
      "t": 46969.65000000008,
      "d": 378.78749999999854,
      "v": 95
    },
    {
      "midi": 41,
      "hit": false,
      "t": 47272.68000000008,
      "d": 321.9693750000006,
      "v": 116
    },
    {
      "midi": 63,
      "hit": false,
      "t": 47575.71000000008,
      "d": 555.5550000000003,
      "v": 100
    },
    {
      "midi": 57,
      "hit": false,
      "t": 47575.71000000008,
      "d": 580.8075000000026,
      "v": 102
    },
    {
      "midi": 60,
      "hit": false,
      "t": 47575.71000000008,
      "d": 580.8075000000026,
      "v": 109
    },
    {
      "midi": 65,
      "hit": false,
      "t": 47575.71000000008,
      "d": 599.7468750000044,
      "v": 95
    },
    {
      "midi": 41,
      "hit": false,
      "t": 48181.770000000084,
      "d": 277.7774999999965,
      "v": 113
    },
    {
      "midi": 60,
      "hit": false,
      "t": 48484.80000000008,
      "d": 328.28250000000116,
      "v": 106
    },
    {
      "midi": 63,
      "hit": false,
      "t": 48484.80000000008,
      "d": 328.28250000000116,
      "v": 94
    },
    {
      "midi": 65,
      "hit": false,
      "t": 48484.80000000008,
      "d": 347.2218750000029,
      "v": 95
    },
    {
      "midi": 57,
      "hit": false,
      "t": 48484.80000000008,
      "d": 372.47437500000524,
      "v": 95
    },
    {
      "midi": 41,
      "hit": false,
      "t": 48787.83000000008,
      "d": 252.52500000000873,
      "v": 100
    },
    {
      "midi": 46,
      "hit": false,
      "t": 49090.86000000009,
      "d": 675.5043749999968,
      "v": 102
    },
    {
      "midi": 58,
      "hit": false,
      "t": 49393.89000000009,
      "d": 580.8074999999953,
      "v": 102
    },
    {
      "midi": 62,
      "hit": false,
      "t": 49393.89000000009,
      "d": 580.8074999999953,
      "v": 97
    },
    {
      "midi": 53,
      "hit": false,
      "t": 49393.89000000009,
      "d": 606.0599999999977,
      "v": 97
    },
    {
      "midi": 46,
      "hit": false,
      "t": 49999.950000000084,
      "d": 227.27249999999913,
      "v": 106
    },
    {
      "midi": 58,
      "hit": false,
      "t": 50302.98000000008,
      "d": 18.939375000001746,
      "v": 65
    },
    {
      "midi": 53,
      "hit": false,
      "t": 50302.98000000008,
      "d": 44.191875000004075,
      "v": 95
    },
    {
      "midi": 58,
      "hit": false,
      "t": 50606.01000000009,
      "d": 372.47437499999796,
      "v": 104
    },
    {
      "midi": 62,
      "hit": false,
      "t": 50606.01000000009,
      "d": 372.47437499999796,
      "v": 95
    },
    {
      "midi": 53,
      "hit": false,
      "t": 50606.01000000009,
      "d": 378.78749999999854,
      "v": 102
    },
    {
      "midi": 46,
      "hit": false,
      "t": 50909.04000000009,
      "d": 713.3831250000003,
      "v": 118
    },
    {
      "midi": 62,
      "hit": false,
      "t": 51212.07000000009,
      "d": 580.8075000000026,
      "v": 100
    },
    {
      "midi": 53,
      "hit": false,
      "t": 51212.07000000009,
      "d": 606.060000000005,
      "v": 100
    },
    {
      "midi": 58,
      "hit": false,
      "t": 51212.07000000009,
      "d": 606.060000000005,
      "v": 109
    },
    {
      "midi": 46,
      "hit": false,
      "t": 51818.13000000009,
      "d": 252.52500000000146,
      "v": 113
    },
    {
      "midi": 62,
      "hit": false,
      "t": 52121.16000000009,
      "d": 25.25250000000233,
      "v": 83
    },
    {
      "midi": 58,
      "hit": false,
      "t": 52121.16000000009,
      "d": 50.50500000000466,
      "v": 99
    },
    {
      "midi": 53,
      "hit": false,
      "t": 52121.16000000009,
      "d": 69.4443750000064,
      "v": 99
    },
    {
      "midi": 58,
      "hit": false,
      "t": 52424.1900000001,
      "d": 378.78749999999854,
      "v": 106
    },
    {
      "midi": 62,
      "hit": false,
      "t": 52424.1900000001,
      "d": 378.78749999999854,
      "v": 104
    },
    {
      "midi": 53,
      "hit": false,
      "t": 52424.1900000001,
      "d": 404.0400000000009,
      "v": 95
    },
    {
      "midi": 46,
      "hit": false,
      "t": 52727.220000000096,
      "d": 397.7268750000003,
      "v": 113
    },
    {
      "midi": 62,
      "hit": false,
      "t": 53030.250000000095,
      "d": 624.9993750000067,
      "v": 95
    },
    {
      "midi": 53,
      "hit": false,
      "t": 53030.250000000095,
      "d": 656.5650000000096,
      "v": 97
    },
    {
      "midi": 58,
      "hit": false,
      "t": 53030.250000000095,
      "d": 656.5650000000096,
      "v": 102
    },
    {
      "midi": 46,
      "hit": false,
      "t": 53636.3100000001,
      "d": 277.7775000000038,
      "v": 104
    },
    {
      "midi": 58,
      "hit": false,
      "t": 53939.340000000106,
      "d": 94.69687500000146,
      "v": 97
    },
    {
      "midi": 62,
      "hit": false,
      "t": 53939.340000000106,
      "d": 101.01000000000204,
      "v": 85
    },
    {
      "midi": 53,
      "hit": false,
      "t": 53939.340000000106,
      "d": 126.26250000000437,
      "v": 85
    },
    {
      "midi": 58,
      "hit": false,
      "t": 54242.37000000011,
      "d": 378.78749999999854,
      "v": 111
    },
    {
      "midi": 62,
      "hit": false,
      "t": 54242.37000000011,
      "d": 397.7268750000003,
      "v": 100
    },
    {
      "midi": 53,
      "hit": false,
      "t": 54242.37000000011,
      "d": 404.0400000000009,
      "v": 97
    },
    {
      "midi": 46,
      "hit": false,
      "t": 54545.40000000011,
      "d": 650.2518750000017,
      "v": 111
    },
    {
      "midi": 58,
      "hit": false,
      "t": 54848.43000000011,
      "d": 631.3125000000073,
      "v": 100
    },
    {
      "midi": 62,
      "hit": false,
      "t": 54848.43000000011,
      "d": 631.3125000000073,
      "v": 94
    },
    {
      "midi": 56,
      "hit": false,
      "t": 54848.43000000011,
      "d": 650.251875000009,
      "v": 109
    },
    {
      "midi": 53,
      "hit": false,
      "t": 54848.43000000011,
      "d": 681.8175000000119,
      "v": 97
    },
    {
      "midi": 46,
      "hit": false,
      "t": 55454.490000000114,
      "d": 252.52500000000873,
      "v": 100
    },
    {
      "midi": 56,
      "hit": false,
      "t": 55757.52000000012,
      "d": 404.0400000000009,
      "v": 104
    },
    {
      "midi": 58,
      "hit": false,
      "t": 55757.52000000012,
      "d": 422.9793750000026,
      "v": 100
    },
    {
      "midi": 53,
      "hit": false,
      "t": 55757.52000000012,
      "d": 429.2925000000032,
      "v": 95
    },
    {
      "midi": 62,
      "hit": false,
      "t": 55757.52000000012,
      "d": 429.2925000000032,
      "v": 97
    },
    {
      "midi": 46,
      "hit": false,
      "t": 56060.55000000012,
      "d": 271.4643750000032,
      "v": 104
    },
    {
      "midi": 39,
      "hit": false,
      "t": 56363.580000000125,
      "d": 574.494375000002,
      "v": 113
    },
    {
      "midi": 55,
      "hit": false,
      "t": 56666.610000000124,
      "d": 574.494375000002,
      "v": 100
    },
    {
      "midi": 58,
      "hit": false,
      "t": 56666.610000000124,
      "d": 580.8075000000026,
      "v": 113
    },
    {
      "midi": 63,
      "hit": false,
      "t": 56666.610000000124,
      "d": 606.060000000005,
      "v": 104
    },
    {
      "midi": 39,
      "hit": false,
      "t": 57272.67000000013,
      "d": 303.02999999999884,
      "v": 111
    },
    {
      "midi": 58,
      "hit": false,
      "t": 57575.70000000013,
      "d": 303.02999999999884,
      "v": 106
    },
    {
      "midi": 63,
      "hit": false,
      "t": 57575.70000000013,
      "d": 303.02999999999884,
      "v": 100
    },
    {
      "midi": 55,
      "hit": false,
      "t": 57575.70000000013,
      "d": 328.28250000000116,
      "v": 92
    },
    {
      "midi": 39,
      "hit": false,
      "t": 57878.73000000013,
      "d": 271.4643750000032,
      "v": 109
    },
    {
      "midi": 36,
      "hit": false,
      "t": 58181.76000000013,
      "d": 372.47437499999796,
      "v": 106
    },
    {
      "midi": 55,
      "hit": false,
      "t": 58484.79000000013,
      "d": 624.9993749999994,
      "v": 100
    },
    {
      "midi": 58,
      "hit": false,
      "t": 58484.79000000013,
      "d": 624.9993749999994,
      "v": 100
    },
    {
      "midi": 60,
      "hit": false,
      "t": 58484.79000000013,
      "d": 624.9993749999994,
      "v": 94
    },
    {
      "midi": 64,
      "hit": false,
      "t": 58484.79000000013,
      "d": 631.3125,
      "v": 92
    },
    {
      "midi": 36,
      "hit": false,
      "t": 59090.85000000013,
      "d": 277.7775000000038,
      "v": 111
    },
    {
      "midi": 55,
      "hit": false,
      "t": 59393.880000000136,
      "d": 631.3125,
      "v": 97
    },
    {
      "midi": 58,
      "hit": false,
      "t": 59393.880000000136,
      "d": 631.3125,
      "v": 100
    },
    {
      "midi": 60,
      "hit": false,
      "t": 59393.880000000136,
      "d": 631.3125,
      "v": 92
    },
    {
      "midi": 64,
      "hit": false,
      "t": 59393.880000000136,
      "d": 631.3125,
      "v": 95
    },
    {
      "midi": 46,
      "hit": false,
      "t": 59999.94000000013,
      "d": 208.33312500000466,
      "v": 98
    },
    {
      "midi": 58,
      "hit": false,
      "t": 60302.97000000014,
      "d": 650.2518749999945,
      "v": 100
    },
    {
      "midi": 53,
      "hit": false,
      "t": 60302.97000000014,
      "d": 675.5043749999968,
      "v": 95
    },
    {
      "midi": 62,
      "hit": false,
      "t": 60302.97000000014,
      "d": 675.5043749999968,
      "v": 99
    },
    {
      "midi": 46,
      "hit": false,
      "t": 60909.03000000014,
      "d": 271.4643749999959,
      "v": 106
    },
    {
      "midi": 58,
      "hit": false,
      "t": 61212.060000000136,
      "d": 296.71687499999825,
      "v": 102
    },
    {
      "midi": 53,
      "hit": false,
      "t": 61212.060000000136,
      "d": 321.9693750000006,
      "v": 95
    },
    {
      "midi": 62,
      "hit": false,
      "t": 61212.060000000136,
      "d": 328.28250000000116,
      "v": 94
    },
    {
      "midi": 46,
      "hit": false,
      "t": 61515.090000000135,
      "d": 246.21187500000087,
      "v": 78
    },
    {
      "midi": 41,
      "hit": false,
      "t": 61818.12000000013,
      "d": 738.6356249999953,
      "v": 97
    },
    {
      "midi": 63,
      "hit": false,
      "t": 62121.15000000013,
      "d": 624.9993749999994,
      "v": 100
    },
    {
      "midi": 57,
      "hit": false,
      "t": 62121.15000000013,
      "d": 631.3125,
      "v": 83
    },
    {
      "midi": 60,
      "hit": false,
      "t": 62121.15000000013,
      "d": 631.3125,
      "v": 104
    },
    {
      "midi": 41,
      "hit": false,
      "t": 62727.21000000013,
      "d": 328.28250000000116,
      "v": 104
    },
    {
      "midi": 63,
      "hit": false,
      "t": 63030.24000000013,
      "d": 347.22187499999563,
      "v": 102
    },
    {
      "midi": 60,
      "hit": false,
      "t": 63030.24000000013,
      "d": 353.5349999999962,
      "v": 109
    },
    {
      "midi": 57,
      "hit": false,
      "t": 63030.24000000013,
      "d": 397.726874999993,
      "v": 94
    },
    {
      "midi": 41,
      "hit": false,
      "t": 63333.27000000013,
      "d": 252.52499999999418,
      "v": 99
    },
    {
      "midi": 46,
      "hit": false,
      "t": 63636.30000000012,
      "d": 751.2618749999965,
      "v": 100
    },
    {
      "midi": 62,
      "hit": false,
      "t": 63939.33000000012,
      "d": 631.3125,
      "v": 95
    },
    {
      "midi": 53,
      "hit": false,
      "t": 63939.33000000012,
      "d": 681.8174999999974,
      "v": 95
    },
    {
      "midi": 58,
      "hit": false,
      "t": 63939.33000000012,
      "d": 681.8174999999974,
      "v": 104
    },
    {
      "midi": 46,
      "hit": false,
      "t": 64545.390000000116,
      "d": 303.02999999999884,
      "v": 106
    },
    {
      "midi": 58,
      "hit": false,
      "t": 64848.420000000115,
      "d": 347.22187499999563,
      "v": 97
    },
    {
      "midi": 62,
      "hit": false,
      "t": 64848.420000000115,
      "d": 372.47437499999796,
      "v": 86
    },
    {
      "midi": 53,
      "hit": false,
      "t": 64848.420000000115,
      "d": 378.78749999999854,
      "v": 76
    },
    {
      "midi": 46,
      "hit": false,
      "t": 65151.45000000011,
      "d": 101.01000000000204,
      "v": 95
    },
    {
      "midi": 60,
      "hit": false,
      "t": 65454.48000000011,
      "d": 1508.8368749999936,
      "v": 106
    },
    {
      "midi": 66,
      "hit": false,
      "t": 65454.48000000011,
      "d": 1508.8368749999936,
      "v": 111
    },
    {
      "midi": 62,
      "hit": false,
      "t": 65454.48000000011,
      "d": 1515.1499999999942,
      "v": 111
    },
    {
      "midi": 50,
      "hit": false,
      "t": 65454.48000000011,
      "d": 1540.4024999999965,
      "v": 120
    },
    {
      "midi": 74,
      "hit": false,
      "t": 67272.6600000001,
      "d": 44.191875000004075,
      "v": 104
    },
    {
      "midi": 69,
      "hit": false,
      "t": 67272.6600000001,
      "d": 50.50500000000466,
      "v": 111
    },
    {
      "midi": 67,
      "hit": false,
      "t": 67272.6600000001,
      "d": 69.4443750000064,
      "v": 104
    },
    {
      "midi": 70,
      "hit": false,
      "t": 67272.6600000001,
      "d": 69.4443750000064,
      "v": 106
    },
    {
      "midi": 74,
      "hit": false,
      "t": 67575.69000000012,
      "d": 50.50500000000466,
      "v": 85
    },
    {
      "midi": 67,
      "hit": false,
      "t": 67575.69000000012,
      "d": 69.4443750000064,
      "v": 85
    },
    {
      "midi": 70,
      "hit": false,
      "t": 67575.69000000012,
      "d": 69.4443750000064,
      "v": 83
    },
    {
      "midi": 69,
      "hit": false,
      "t": 67575.69000000012,
      "d": 75.75750000000698,
      "v": 97
    },
    {
      "midi": 67,
      "hit": false,
      "t": 67878.72000000013,
      "d": 75.75750000000698,
      "v": 85
    },
    {
      "midi": 69,
      "hit": false,
      "t": 67878.72000000013,
      "d": 75.75750000000698,
      "v": 102
    },
    {
      "midi": 70,
      "hit": false,
      "t": 67878.72000000013,
      "d": 75.75750000000698,
      "v": 92
    },
    {
      "midi": 74,
      "hit": false,
      "t": 67878.72000000013,
      "d": 75.75750000000698,
      "v": 86
    },
    {
      "midi": 67,
      "hit": false,
      "t": 68181.75000000015,
      "d": 69.4443750000064,
      "v": 102
    },
    {
      "midi": 69,
      "hit": false,
      "t": 68181.75000000015,
      "d": 69.4443750000064,
      "v": 109
    },
    {
      "midi": 70,
      "hit": false,
      "t": 68181.75000000015,
      "d": 69.4443750000064,
      "v": 106
    },
    {
      "midi": 74,
      "hit": false,
      "t": 68181.75000000015,
      "d": 75.75750000000698,
      "v": 99
    },
    {
      "midi": 69,
      "hit": false,
      "t": 68484.78000000016,
      "d": 50.50500000000466,
      "v": 106
    },
    {
      "midi": 67,
      "hit": false,
      "t": 68484.78000000016,
      "d": 69.4443750000064,
      "v": 97
    },
    {
      "midi": 70,
      "hit": false,
      "t": 68484.78000000016,
      "d": 69.4443750000064,
      "v": 100
    },
    {
      "midi": 74,
      "hit": false,
      "t": 68484.78000000016,
      "d": 69.4443750000064,
      "v": 92
    },
    {
      "midi": 67,
      "hit": false,
      "t": 68787.81000000017,
      "d": 50.50500000000466,
      "v": 92
    },
    {
      "midi": 69,
      "hit": false,
      "t": 68787.81000000017,
      "d": 50.50500000000466,
      "v": 109
    },
    {
      "midi": 70,
      "hit": false,
      "t": 68787.81000000017,
      "d": 50.50500000000466,
      "v": 97
    },
    {
      "midi": 74,
      "hit": false,
      "t": 68787.81000000017,
      "d": 50.50500000000466,
      "v": 86
    },
    {
      "midi": 69,
      "hit": false,
      "t": 69090.84000000017,
      "d": 50.50500000000466,
      "v": 109
    },
    {
      "midi": 70,
      "hit": false,
      "t": 69090.84000000017,
      "d": 50.50500000000466,
      "v": 102
    },
    {
      "midi": 67,
      "hit": false,
      "t": 69090.84000000017,
      "d": 56.81812500000524,
      "v": 97
    },
    {
      "midi": 74,
      "hit": false,
      "t": 69090.84000000017,
      "d": 69.4443750000064,
      "v": 94
    },
    {
      "midi": 74,
      "hit": false,
      "t": 69393.87000000018,
      "d": 44.191875000004075,
      "v": 86
    },
    {
      "midi": 67,
      "hit": false,
      "t": 69393.87000000018,
      "d": 50.50500000000466,
      "v": 92
    },
    {
      "midi": 69,
      "hit": false,
      "t": 69393.87000000018,
      "d": 50.50500000000466,
      "v": 106
    },
    {
      "midi": 70,
      "hit": false,
      "t": 69393.87000000018,
      "d": 50.50500000000466,
      "v": 94
    },
    {
      "midi": 74,
      "hit": false,
      "t": 69696.90000000018,
      "d": 44.191875000004075,
      "v": 88
    },
    {
      "midi": 67,
      "hit": false,
      "t": 69696.90000000018,
      "d": 50.50500000000466,
      "v": 88
    },
    {
      "midi": 69,
      "hit": false,
      "t": 69696.90000000018,
      "d": 50.50500000000466,
      "v": 104
    },
    {
      "midi": 70,
      "hit": false,
      "t": 69696.90000000018,
      "d": 69.4443750000064,
      "v": 94
    },
    {
      "midi": 69,
      "hit": false,
      "t": 69999.9300000002,
      "d": 50.50500000000466,
      "v": 102
    },
    {
      "midi": 67,
      "hit": false,
      "t": 69999.9300000002,
      "d": 69.4443750000064,
      "v": 92
    },
    {
      "midi": 70,
      "hit": false,
      "t": 69999.9300000002,
      "d": 75.75750000000698,
      "v": 94
    },
    {
      "midi": 74,
      "hit": false,
      "t": 69999.9300000002,
      "d": 75.75750000000698,
      "v": 92
    },
    {
      "midi": 69,
      "hit": false,
      "t": 70302.96000000021,
      "d": 44.191875000004075,
      "v": 106
    },
    {
      "midi": 74,
      "hit": false,
      "t": 70302.96000000021,
      "d": 44.191875000004075,
      "v": 88
    },
    {
      "midi": 70,
      "hit": false,
      "t": 70302.96000000021,
      "d": 50.50500000000466,
      "v": 99
    },
    {
      "midi": 67,
      "hit": false,
      "t": 70302.96000000021,
      "d": 69.4443750000064,
      "v": 94
    },
    {
      "midi": 69,
      "hit": false,
      "t": 70605.99000000022,
      "d": 25.25250000000233,
      "v": 88
    },
    {
      "midi": 74,
      "hit": false,
      "t": 70605.99000000022,
      "d": 25.25250000000233,
      "v": 83
    },
    {
      "midi": 70,
      "hit": false,
      "t": 70605.99000000022,
      "d": 50.50500000000466,
      "v": 95
    },
    {
      "midi": 67,
      "hit": false,
      "t": 70605.99000000022,
      "d": 69.4443750000064,
      "v": 88
    },
    {
      "midi": 62,
      "hit": false,
      "t": 70909.02000000024,
      "d": 44.191875000004075,
      "v": 102
    },
    {
      "midi": 66,
      "hit": false,
      "t": 70909.02000000024,
      "d": 56.81812500000524,
      "v": 104
    },
    {
      "midi": 69,
      "hit": false,
      "t": 70909.02000000024,
      "d": 56.81812500000524,
      "v": 92
    },
    {
      "midi": 72,
      "hit": false,
      "t": 70909.02000000024,
      "d": 56.81812500000524,
      "v": 92
    },
    {
      "midi": 69,
      "hit": false,
      "t": 71212.05000000024,
      "d": 44.191875000004075,
      "v": 71
    },
    {
      "midi": 62,
      "hit": false,
      "t": 71212.05000000024,
      "d": 50.50500000000466,
      "v": 86
    },
    {
      "midi": 72,
      "hit": false,
      "t": 71212.05000000024,
      "d": 50.50500000000466,
      "v": 79
    },
    {
      "midi": 66,
      "hit": false,
      "t": 71212.05000000024,
      "d": 69.4443750000064,
      "v": 94
    },
    {
      "midi": 69,
      "hit": false,
      "t": 71515.08000000025,
      "d": 25.25250000000233,
      "v": 71
    },
    {
      "midi": 72,
      "hit": false,
      "t": 71515.08000000025,
      "d": 44.191875000004075,
      "v": 86
    },
    {
      "midi": 62,
      "hit": false,
      "t": 71515.08000000025,
      "d": 50.50500000000466,
      "v": 86
    },
    {
      "midi": 66,
      "hit": false,
      "t": 71515.08000000025,
      "d": 69.4443750000064,
      "v": 94
    },
    {
      "midi": 69,
      "hit": false,
      "t": 71818.11000000026,
      "d": 44.191875000004075,
      "v": 86
    },
    {
      "midi": 72,
      "hit": false,
      "t": 71818.11000000026,
      "d": 44.191875000004075,
      "v": 95
    },
    {
      "midi": 62,
      "hit": false,
      "t": 71818.11000000026,
      "d": 50.50500000000466,
      "v": 100
    },
    {
      "midi": 66,
      "hit": false,
      "t": 71818.11000000026,
      "d": 50.50500000000466,
      "v": 102
    },
    {
      "midi": 69,
      "hit": false,
      "t": 72121.14000000026,
      "d": 44.191875000004075,
      "v": 76
    },
    {
      "midi": 72,
      "hit": false,
      "t": 72121.14000000026,
      "d": 44.191875000004075,
      "v": 86
    },
    {
      "midi": 66,
      "hit": false,
      "t": 72121.14000000026,
      "d": 50.50500000000466,
      "v": 97
    },
    {
      "midi": 62,
      "hit": false,
      "t": 72121.14000000026,
      "d": 69.4443750000064,
      "v": 94
    },
    {
      "midi": 72,
      "hit": false,
      "t": 72424.17000000027,
      "d": 44.191875000004075,
      "v": 85
    },
    {
      "midi": 62,
      "hit": false,
      "t": 72424.17000000027,
      "d": 50.50500000000466,
      "v": 94
    },
    {
      "midi": 66,
      "hit": false,
      "t": 72424.17000000027,
      "d": 50.50500000000466,
      "v": 94
    },
    {
      "midi": 69,
      "hit": false,
      "t": 72424.17000000027,
      "d": 50.50500000000466,
      "v": 78
    },
    {
      "midi": 62,
      "hit": false,
      "t": 72727.20000000027,
      "d": 31.56562500000291,
      "v": 92
    },
    {
      "midi": 66,
      "hit": false,
      "t": 72727.20000000027,
      "d": 31.56562500000291,
      "v": 102
    },
    {
      "midi": 69,
      "hit": false,
      "t": 72727.20000000027,
      "d": 31.56562500000291,
      "v": 78
    },
    {
      "midi": 72,
      "hit": false,
      "t": 72727.20000000027,
      "d": 31.56562500000291,
      "v": 92
    },
    {
      "midi": 72,
      "hit": false,
      "t": 73030.23000000027,
      "d": 25.25250000000233,
      "v": 76
    },
    {
      "midi": 69,
      "hit": false,
      "t": 73030.23000000027,
      "d": 50.50500000000466,
      "v": 76
    },
    {
      "midi": 62,
      "hit": false,
      "t": 73030.23000000027,
      "d": 69.4443750000064,
      "v": 92
    },
    {
      "midi": 66,
      "hit": false,
      "t": 73030.23000000027,
      "d": 69.4443750000064,
      "v": 100
    },
    {
      "midi": 69,
      "hit": false,
      "t": 73333.26000000029,
      "d": 25.25250000000233,
      "v": 69
    },
    {
      "midi": 72,
      "hit": false,
      "t": 73333.26000000029,
      "d": 44.191875000004075,
      "v": 76
    },
    {
      "midi": 62,
      "hit": false,
      "t": 73333.26000000029,
      "d": 69.4443750000064,
      "v": 86
    },
    {
      "midi": 66,
      "hit": false,
      "t": 73333.26000000029,
      "d": 69.4443750000064,
      "v": 92
    },
    {
      "midi": 69,
      "hit": false,
      "t": 73636.2900000003,
      "d": 44.191875000004075,
      "v": 78
    },
    {
      "midi": 62,
      "hit": false,
      "t": 73636.2900000003,
      "d": 50.50500000000466,
      "v": 88
    },
    {
      "midi": 66,
      "hit": false,
      "t": 73636.2900000003,
      "d": 50.50500000000466,
      "v": 102
    },
    {
      "midi": 72,
      "hit": false,
      "t": 73636.2900000003,
      "d": 50.50500000000466,
      "v": 88
    },
    {
      "midi": 62,
      "hit": false,
      "t": 73939.3200000003,
      "d": 50.50500000000466,
      "v": 92
    },
    {
      "midi": 66,
      "hit": false,
      "t": 73939.3200000003,
      "d": 50.50500000000466,
      "v": 99
    },
    {
      "midi": 69,
      "hit": false,
      "t": 73939.3200000003,
      "d": 56.81812500000524,
      "v": 76
    },
    {
      "midi": 72,
      "hit": false,
      "t": 73939.3200000003,
      "d": 69.4443750000064,
      "v": 92
    },
    {
      "midi": 66,
      "hit": false,
      "t": 74242.35000000031,
      "d": 25.25250000000233,
      "v": 86
    },
    {
      "midi": 69,
      "hit": false,
      "t": 74242.35000000031,
      "d": 25.25250000000233,
      "v": 67
    },
    {
      "midi": 62,
      "hit": false,
      "t": 74242.35000000031,
      "d": 44.191875000004075,
      "v": 92
    },
    {
      "midi": 72,
      "hit": false,
      "t": 74242.35000000031,
      "d": 44.191875000004075,
      "v": 86
    },
    {
      "midi": 69,
      "hit": false,
      "t": 74545.38000000031,
      "d": 31.56562500000291,
      "v": 106
    },
    {
      "midi": 70,
      "hit": false,
      "t": 74545.38000000031,
      "d": 31.56562500000291,
      "v": 95
    },
    {
      "midi": 67,
      "hit": false,
      "t": 74545.38000000031,
      "d": 44.191875000004075,
      "v": 100
    },
    {
      "midi": 74,
      "hit": false,
      "t": 74545.38000000031,
      "d": 44.191875000004075,
      "v": 102
    },
    {
      "midi": 67,
      "hit": false,
      "t": 74848.41000000031,
      "d": 50.50500000000466,
      "v": 88
    },
    {
      "midi": 69,
      "hit": false,
      "t": 74848.41000000031,
      "d": 50.50500000000466,
      "v": 95
    },
    {
      "midi": 70,
      "hit": false,
      "t": 74848.41000000031,
      "d": 50.50500000000466,
      "v": 83
    },
    {
      "midi": 74,
      "hit": false,
      "t": 74848.41000000031,
      "d": 50.50500000000466,
      "v": 86
    },
    {
      "midi": 69,
      "hit": false,
      "t": 75151.44000000031,
      "d": 50.50500000000466,
      "v": 88
    },
    {
      "midi": 70,
      "hit": false,
      "t": 75151.44000000031,
      "d": 50.50500000000466,
      "v": 79
    },
    {
      "midi": 67,
      "hit": false,
      "t": 75151.44000000031,
      "d": 69.4443750000064,
      "v": 86
    },
    {
      "midi": 74,
      "hit": false,
      "t": 75151.44000000031,
      "d": 75.75750000000698,
      "v": 85
    },
    {
      "midi": 67,
      "hit": false,
      "t": 75454.47000000032,
      "d": 69.4443750000064,
      "v": 102
    },
    {
      "midi": 69,
      "hit": false,
      "t": 75454.47000000032,
      "d": 69.4443750000064,
      "v": 106
    },
    {
      "midi": 70,
      "hit": false,
      "t": 75454.47000000032,
      "d": 69.4443750000064,
      "v": 102
    },
    {
      "midi": 74,
      "hit": false,
      "t": 75454.47000000032,
      "d": 69.4443750000064,
      "v": 97
    },
    {
      "midi": 67,
      "hit": false,
      "t": 75757.50000000033,
      "d": 50.50500000000466,
      "v": 94
    },
    {
      "midi": 69,
      "hit": false,
      "t": 75757.50000000033,
      "d": 50.50500000000466,
      "v": 102
    },
    {
      "midi": 70,
      "hit": false,
      "t": 75757.50000000033,
      "d": 50.50500000000466,
      "v": 88
    },
    {
      "midi": 74,
      "hit": false,
      "t": 75757.50000000033,
      "d": 50.50500000000466,
      "v": 88
    },
    {
      "midi": 69,
      "hit": false,
      "t": 76060.53000000033,
      "d": 44.191875000004075,
      "v": 94
    },
    {
      "midi": 74,
      "hit": false,
      "t": 76060.53000000033,
      "d": 44.191875000004075,
      "v": 85
    },
    {
      "midi": 70,
      "hit": false,
      "t": 76060.53000000033,
      "d": 50.50500000000466,
      "v": 72
    },
    {
      "midi": 67,
      "hit": false,
      "t": 76060.53000000033,
      "d": 69.4443750000064,
      "v": 88
    },
    {
      "midi": 69,
      "hit": false,
      "t": 76363.56000000035,
      "d": 44.191875000004075,
      "v": 102
    },
    {
      "midi": 67,
      "hit": false,
      "t": 76363.56000000035,
      "d": 56.81812500000524,
      "v": 92
    },
    {
      "midi": 70,
      "hit": false,
      "t": 76363.56000000035,
      "d": 56.81812500000524,
      "v": 92
    },
    {
      "midi": 74,
      "hit": false,
      "t": 76363.56000000035,
      "d": 56.81812500000524,
      "v": 92
    },
    {
      "midi": 69,
      "hit": false,
      "t": 76666.59000000035,
      "d": 44.191875000004075,
      "v": 95
    },
    {
      "midi": 67,
      "hit": false,
      "t": 76666.59000000035,
      "d": 69.4443750000064,
      "v": 85
    },
    {
      "midi": 70,
      "hit": false,
      "t": 76666.59000000035,
      "d": 69.4443750000064,
      "v": 79
    },
    {
      "midi": 74,
      "hit": false,
      "t": 76666.59000000035,
      "d": 69.4443750000064,
      "v": 88
    },
    {
      "midi": 70,
      "hit": false,
      "t": 76969.62000000036,
      "d": 44.191875000004075,
      "v": 83
    },
    {
      "midi": 74,
      "hit": false,
      "t": 76969.62000000036,
      "d": 44.191875000004075,
      "v": 88
    },
    {
      "midi": 69,
      "hit": false,
      "t": 76969.62000000036,
      "d": 50.50500000000466,
      "v": 95
    },
    {
      "midi": 67,
      "hit": false,
      "t": 76969.62000000036,
      "d": 69.4443750000064,
      "v": 86
    },
    {
      "midi": 67,
      "hit": false,
      "t": 77272.65000000037,
      "d": 50.50500000000466,
      "v": 95
    },
    {
      "midi": 69,
      "hit": false,
      "t": 77272.65000000037,
      "d": 50.50500000000466,
      "v": 104
    },
    {
      "midi": 70,
      "hit": false,
      "t": 77272.65000000037,
      "d": 50.50500000000466,
      "v": 95
    },
    {
      "midi": 74,
      "hit": false,
      "t": 77272.65000000037,
      "d": 69.4443750000064,
      "v": 88
    },
    {
      "midi": 74,
      "hit": false,
      "t": 77575.68000000039,
      "d": 44.191875000004075,
      "v": 85
    },
    {
      "midi": 69,
      "hit": false,
      "t": 77575.68000000039,
      "d": 50.50500000000466,
      "v": 100
    },
    {
      "midi": 67,
      "hit": false,
      "t": 77575.68000000039,
      "d": 69.4443750000064,
      "v": 94
    },
    {
      "midi": 70,
      "hit": false,
      "t": 77575.68000000039,
      "d": 69.4443750000064,
      "v": 95
    },
    {
      "midi": 74,
      "hit": false,
      "t": 77878.7100000004,
      "d": 25.25250000000233,
      "v": 83
    },
    {
      "midi": 69,
      "hit": false,
      "t": 77878.7100000004,
      "d": 50.50500000000466,
      "v": 92
    },
    {
      "midi": 67,
      "hit": false,
      "t": 77878.7100000004,
      "d": 69.4443750000064,
      "v": 94
    },
    {
      "midi": 70,
      "hit": false,
      "t": 77878.7100000004,
      "d": 69.4443750000064,
      "v": 94
    },
    {
      "midi": 69,
      "hit": false,
      "t": 78181.74000000041,
      "d": 44.191875000004075,
      "v": 74
    },
    {
      "midi": 66,
      "hit": false,
      "t": 78181.74000000041,
      "d": 50.50500000000466,
      "v": 102
    },
    {
      "midi": 62,
      "hit": false,
      "t": 78181.74000000041,
      "d": 56.81812500000524,
      "v": 99
    },
    {
      "midi": 72,
      "hit": false,
      "t": 78181.74000000041,
      "d": 69.4443750000064,
      "v": 97
    },
    {
      "midi": 69,
      "hit": false,
      "t": 78484.77000000043,
      "d": 25.25250000000233,
      "v": 67
    },
    {
      "midi": 62,
      "hit": false,
      "t": 78484.77000000043,
      "d": 69.4443750000064,
      "v": 83
    },
    {
      "midi": 66,
      "hit": false,
      "t": 78484.77000000043,
      "d": 69.4443750000064,
      "v": 88
    },
    {
      "midi": 72,
      "hit": false,
      "t": 78484.77000000043,
      "d": 69.4443750000064,
      "v": 85
    },
    {
      "midi": 69,
      "hit": false,
      "t": 78787.80000000044,
      "d": 25.25250000000233,
      "v": 67
    },
    {
      "midi": 72,
      "hit": false,
      "t": 78787.80000000044,
      "d": 44.191875000004075,
      "v": 74
    },
    {
      "midi": 62,
      "hit": false,
      "t": 78787.80000000044,
      "d": 69.4443750000064,
      "v": 92
    },
    {
      "midi": 66,
      "hit": false,
      "t": 78787.80000000044,
      "d": 69.4443750000064,
      "v": 92
    },
    {
      "midi": 62,
      "hit": false,
      "t": 79090.83000000045,
      "d": 44.191875000004075,
      "v": 94
    },
    {
      "midi": 66,
      "hit": false,
      "t": 79090.83000000045,
      "d": 44.191875000004075,
      "v": 99
    },
    {
      "midi": 69,
      "hit": false,
      "t": 79090.83000000045,
      "d": 50.50500000000466,
      "v": 79
    },
    {
      "midi": 72,
      "hit": false,
      "t": 79090.83000000045,
      "d": 50.50500000000466,
      "v": 88
    },
    {
      "midi": 62,
      "hit": false,
      "t": 79393.86000000045,
      "d": 44.191875000004075,
      "v": 92
    },
    {
      "midi": 66,
      "hit": false,
      "t": 79393.86000000045,
      "d": 44.191875000004075,
      "v": 95
    },
    {
      "midi": 72,
      "hit": false,
      "t": 79393.86000000045,
      "d": 44.191875000004075,
      "v": 78
    },
    {
      "midi": 69,
      "hit": false,
      "t": 79393.86000000045,
      "d": 50.50500000000466,
      "v": 71
    },
    {
      "midi": 69,
      "hit": false,
      "t": 79696.89000000045,
      "d": 25.25250000000233,
      "v": 72
    },
    {
      "midi": 66,
      "hit": false,
      "t": 79696.89000000045,
      "d": 44.191875000004075,
      "v": 95
    },
    {
      "midi": 72,
      "hit": false,
      "t": 79696.89000000045,
      "d": 44.191875000004075,
      "v": 81
    },
    {
      "midi": 62,
      "hit": false,
      "t": 79696.89000000045,
      "d": 50.50500000000466,
      "v": 88
    },
    {
      "midi": 62,
      "hit": false,
      "t": 79999.92000000045,
      "d": 31.56562500000291,
      "v": 102
    },
    {
      "midi": 66,
      "hit": false,
      "t": 79999.92000000045,
      "d": 31.56562500000291,
      "v": 104
    },
    {
      "midi": 69,
      "hit": false,
      "t": 79999.92000000045,
      "d": 31.56562500000291,
      "v": 78
    },
    {
      "midi": 72,
      "hit": false,
      "t": 79999.92000000045,
      "d": 31.56562500000291,
      "v": 92
    },
    {
      "midi": 72,
      "hit": false,
      "t": 80302.95000000045,
      "d": 44.191875000004075,
      "v": 86
    },
    {
      "midi": 62,
      "hit": false,
      "t": 80302.95000000045,
      "d": 50.50500000000466,
      "v": 92
    },
    {
      "midi": 66,
      "hit": false,
      "t": 80302.95000000045,
      "d": 50.50500000000466,
      "v": 95
    },
    {
      "midi": 69,
      "hit": false,
      "t": 80302.95000000045,
      "d": 50.50500000000466,
      "v": 74
    },
    {
      "midi": 69,
      "hit": false,
      "t": 80605.98000000045,
      "d": 44.191875000004075,
      "v": 76
    },
    {
      "midi": 72,
      "hit": false,
      "t": 80605.98000000045,
      "d": 44.191875000004075,
      "v": 86
    },
    {
      "midi": 62,
      "hit": false,
      "t": 80605.98000000045,
      "d": 50.50500000000466,
      "v": 97
    },
    {
      "midi": 66,
      "hit": false,
      "t": 80605.98000000045,
      "d": 69.4443750000064,
      "v": 102
    },
    {
      "midi": 69,
      "hit": false,
      "t": 80909.01000000046,
      "d": 44.191875000004075,
      "v": 83
    },
    {
      "midi": 72,
      "hit": false,
      "t": 80909.01000000046,
      "d": 44.191875000004075,
      "v": 92
    },
    {
      "midi": 62,
      "hit": false,
      "t": 80909.01000000046,
      "d": 50.50500000000466,
      "v": 100
    },
    {
      "midi": 66,
      "hit": false,
      "t": 80909.01000000046,
      "d": 50.50500000000466,
      "v": 104
    },
    {
      "midi": 62,
      "hit": false,
      "t": 81212.04000000046,
      "d": 44.191875000004075,
      "v": 95
    },
    {
      "midi": 66,
      "hit": false,
      "t": 81212.04000000046,
      "d": 44.191875000004075,
      "v": 102
    },
    {
      "midi": 72,
      "hit": false,
      "t": 81212.04000000046,
      "d": 44.191875000004075,
      "v": 85
    },
    {
      "midi": 69,
      "hit": false,
      "t": 81212.04000000046,
      "d": 50.50500000000466,
      "v": 76
    },
    {
      "midi": 62,
      "hit": false,
      "t": 81515.07000000046,
      "d": 25.25250000000233,
      "v": 100
    },
    {
      "midi": 66,
      "hit": false,
      "t": 81515.07000000046,
      "d": 44.191875000004075,
      "v": 102
    },
    {
      "midi": 69,
      "hit": false,
      "t": 81515.07000000046,
      "d": 44.191875000004075,
      "v": 76
    },
    {
      "midi": 72,
      "hit": false,
      "t": 81515.07000000046,
      "d": 44.191875000004075,
      "v": 88
    },
    {
      "midi": 43,
      "hit": false,
      "t": 81818.10000000046,
      "d": 631.3125,
      "v": 120
    },
    {
      "midi": 62,
      "hit": false,
      "t": 82121.13000000046,
      "d": 606.0599999999977,
      "v": 109
    },
    {
      "midi": 55,
      "hit": false,
      "t": 82121.13000000046,
      "d": 631.3125,
      "v": 111
    },
    {
      "midi": 59,
      "hit": false,
      "t": 82121.13000000046,
      "d": 650.2518750000017,
      "v": 118
    },
    {
      "midi": 43,
      "hit": false,
      "t": 82727.19000000045,
      "d": 328.28250000000116,
      "v": 106
    },
    {
      "midi": 59,
      "hit": false,
      "t": 83030.22000000045,
      "d": 675.5043750000041,
      "v": 116
    },
    {
      "midi": 55,
      "hit": false,
      "t": 83030.22000000045,
      "d": 681.8175000000047,
      "v": 102
    },
    {
      "midi": 62,
      "hit": false,
      "t": 83030.22000000045,
      "d": 681.8175000000047,
      "v": 102
    },
    {
      "midi": 43,
      "hit": false,
      "t": 83333.25000000045,
      "d": 18.939375000001746,
      "v": 72
    },
    {
      "midi": 43,
      "hit": false,
      "t": 83636.28000000045,
      "d": 624.999375000014,
      "v": 118
    },
    {
      "midi": 53,
      "hit": false,
      "t": 83939.31000000046,
      "d": 675.5043750000041,
      "v": 106
    },
    {
      "midi": 59,
      "hit": false,
      "t": 83939.31000000046,
      "d": 675.5043750000041,
      "v": 113
    },
    {
      "midi": 62,
      "hit": false,
      "t": 83939.31000000046,
      "d": 681.8175000000047,
      "v": 106
    },
    {
      "midi": 43,
      "hit": false,
      "t": 84545.37000000046,
      "d": 303.0300000000134,
      "v": 116
    },
    {
      "midi": 59,
      "hit": false,
      "t": 84848.40000000047,
      "d": 303.02999999999884,
      "v": 113
    },
    {
      "midi": 53,
      "hit": false,
      "t": 84848.40000000047,
      "d": 321.9693750000006,
      "v": 102
    },
    {
      "midi": 62,
      "hit": false,
      "t": 84848.40000000047,
      "d": 328.28250000000116,
      "v": 102
    },
    {
      "midi": 43,
      "hit": false,
      "t": 85151.43000000047,
      "d": 252.52500000000873,
      "v": 106
    },
    {
      "midi": 36,
      "hit": false,
      "t": 85454.46000000049,
      "d": 757.5749999999971,
      "v": 97
    },
    {
      "midi": 55,
      "hit": false,
      "t": 85757.49000000049,
      "d": 675.5043750000041,
      "v": 88
    },
    {
      "midi": 63,
      "hit": false,
      "t": 85757.49000000049,
      "d": 675.5043750000041,
      "v": 100
    },
    {
      "midi": 60,
      "hit": false,
      "t": 85757.49000000049,
      "d": 681.8175000000047,
      "v": 111
    },
    {
      "midi": 36,
      "hit": false,
      "t": 86363.55000000048,
      "d": 372.4743750000198,
      "v": 97
    },
    {
      "midi": 55,
      "hit": false,
      "t": 86666.5800000005,
      "d": 681.8175000000192,
      "v": 100
    },
    {
      "midi": 63,
      "hit": false,
      "t": 86666.5800000005,
      "d": 681.8175000000192,
      "v": 106
    },
    {
      "midi": 60,
      "hit": false,
      "t": 86666.5800000005,
      "d": 700.756875000021,
      "v": 111
    },
    {
      "midi": 36,
      "hit": false,
      "t": 86969.61000000051,
      "d": 18.939375000001746,
      "v": 67
    },
    {
      "midi": 36,
      "hit": false,
      "t": 87272.64000000051,
      "d": 700.7568750000064,
      "v": 102
    },
    {
      "midi": 55,
      "hit": false,
      "t": 87575.67000000052,
      "d": 523.9893749999901,
      "v": 100
    },
    {
      "midi": 63,
      "hit": false,
      "t": 87575.67000000052,
      "d": 530.3024999999907,
      "v": 111
    },
    {
      "midi": 60,
      "hit": false,
      "t": 87575.67000000052,
      "d": 555.554999999993,
      "v": 113
    },
    {
      "midi": 36,
      "hit": false,
      "t": 88181.73000000052,
      "d": 429.2924999999959,
      "v": 86
    },
    {
      "midi": 55,
      "hit": false,
      "t": 88484.76000000052,
      "d": 422.97937499999534,
      "v": 100
    },
    {
      "midi": 60,
      "hit": false,
      "t": 88484.76000000052,
      "d": 429.2924999999959,
      "v": 113
    },
    {
      "midi": 63,
      "hit": false,
      "t": 88484.76000000052,
      "d": 429.2924999999959,
      "v": 111
    },
    {
      "midi": 36,
      "hit": false,
      "t": 88787.79000000052,
      "d": 296.71687499999825,
      "v": 97
    },
    {
      "midi": 69,
      "hit": false,
      "t": 89090.82000000052,
      "d": 44.191875000004075,
      "v": 111
    },
    {
      "midi": 67,
      "hit": false,
      "t": 89090.82000000052,
      "d": 56.81812500000524,
      "v": 106
    },
    {
      "midi": 70,
      "hit": false,
      "t": 89090.82000000052,
      "d": 56.81812500000524,
      "v": 109
    },
    {
      "midi": 74,
      "hit": false,
      "t": 89090.82000000052,
      "d": 56.81812500000524,
      "v": 104
    },
    {
      "midi": 70,
      "hit": false,
      "t": 89393.85000000052,
      "d": 25.25250000000233,
      "v": 92
    },
    {
      "midi": 74,
      "hit": false,
      "t": 89393.85000000052,
      "d": 25.25250000000233,
      "v": 88
    },
    {
      "midi": 69,
      "hit": false,
      "t": 89393.85000000052,
      "d": 44.191875000004075,
      "v": 104
    },
    {
      "midi": 67,
      "hit": false,
      "t": 89393.85000000052,
      "d": 50.50500000000466,
      "v": 95
    },
    {
      "midi": 74,
      "hit": false,
      "t": 89696.88000000051,
      "d": 25.25250000000233,
      "v": 97
    },
    {
      "midi": 69,
      "hit": false,
      "t": 89696.88000000051,
      "d": 44.191875000004075,
      "v": 109
    },
    {
      "midi": 67,
      "hit": false,
      "t": 89696.88000000051,
      "d": 50.50500000000466,
      "v": 102
    },
    {
      "midi": 70,
      "hit": false,
      "t": 89696.88000000051,
      "d": 50.50500000000466,
      "v": 104
    },
    {
      "midi": 74,
      "hit": false,
      "t": 89999.91000000051,
      "d": 44.191875000004075,
      "v": 99
    },
    {
      "midi": 67,
      "hit": false,
      "t": 89999.91000000051,
      "d": 50.50500000000466,
      "v": 104
    },
    {
      "midi": 69,
      "hit": false,
      "t": 89999.91000000051,
      "d": 50.50500000000466,
      "v": 113
    },
    {
      "midi": 70,
      "hit": false,
      "t": 89999.91000000051,
      "d": 69.4443750000064,
      "v": 111
    },
    {
      "midi": 74,
      "hit": false,
      "t": 90302.94000000053,
      "d": 44.191875000004075,
      "v": 95
    },
    {
      "midi": 70,
      "hit": false,
      "t": 90302.94000000053,
      "d": 50.50500000000466,
      "v": 106
    },
    {
      "midi": 67,
      "hit": false,
      "t": 90302.94000000053,
      "d": 69.4443750000064,
      "v": 102
    },
    {
      "midi": 69,
      "hit": false,
      "t": 90302.94000000053,
      "d": 69.4443750000064,
      "v": 109
    },
    {
      "midi": 74,
      "hit": false,
      "t": 90605.97000000054,
      "d": 25.25250000000233,
      "v": 88
    },
    {
      "midi": 67,
      "hit": false,
      "t": 90605.97000000054,
      "d": 50.50500000000466,
      "v": 97
    },
    {
      "midi": 69,
      "hit": false,
      "t": 90605.97000000054,
      "d": 50.50500000000466,
      "v": 100
    },
    {
      "midi": 70,
      "hit": false,
      "t": 90605.97000000054,
      "d": 50.50500000000466,
      "v": 102
    },
    {
      "midi": 62,
      "hit": false,
      "t": 90909.00000000054,
      "d": 44.191875000004075,
      "v": 106
    },
    {
      "midi": 69,
      "hit": false,
      "t": 90909.00000000054,
      "d": 44.191875000004075,
      "v": 97
    },
    {
      "midi": 66,
      "hit": false,
      "t": 90909.00000000054,
      "d": 50.50500000000466,
      "v": 109
    },
    {
      "midi": 72,
      "hit": false,
      "t": 90909.00000000054,
      "d": 56.81812500000524,
      "v": 104
    },
    {
      "midi": 69,
      "hit": false,
      "t": 91212.03000000054,
      "d": 44.191875000004075,
      "v": 78
    },
    {
      "midi": 62,
      "hit": false,
      "t": 91212.03000000054,
      "d": 50.50500000000466,
      "v": 92
    },
    {
      "midi": 72,
      "hit": false,
      "t": 91212.03000000054,
      "d": 50.50500000000466,
      "v": 86
    },
    {
      "midi": 66,
      "hit": false,
      "t": 91212.03000000054,
      "d": 69.4443750000064,
      "v": 100
    },
    {
      "midi": 62,
      "hit": false,
      "t": 91515.06000000055,
      "d": 44.191875000004075,
      "v": 88
    },
    {
      "midi": 69,
      "hit": false,
      "t": 91515.06000000055,
      "d": 44.191875000004075,
      "v": 79
    },
    {
      "midi": 72,
      "hit": false,
      "t": 91515.06000000055,
      "d": 44.191875000004075,
      "v": 85
    },
    {
      "midi": 66,
      "hit": false,
      "t": 91515.06000000055,
      "d": 69.4443750000064,
      "v": 104
    },
    {
      "midi": 62,
      "hit": false,
      "t": 91818.09000000056,
      "d": 50.50500000000466,
      "v": 102
    },
    {
      "midi": 66,
      "hit": false,
      "t": 91818.09000000056,
      "d": 50.50500000000466,
      "v": 106
    },
    {
      "midi": 69,
      "hit": false,
      "t": 91818.09000000056,
      "d": 50.50500000000466,
      "v": 95
    },
    {
      "midi": 72,
      "hit": false,
      "t": 91818.09000000056,
      "d": 50.50500000000466,
      "v": 100
    },
    {
      "midi": 62,
      "hit": false,
      "t": 92121.12000000056,
      "d": 44.191875000004075,
      "v": 92
    },
    {
      "midi": 69,
      "hit": false,
      "t": 92121.12000000056,
      "d": 44.191875000004075,
      "v": 85
    },
    {
      "midi": 72,
      "hit": false,
      "t": 92121.12000000056,
      "d": 44.191875000004075,
      "v": 92
    },
    {
      "midi": 66,
      "hit": false,
      "t": 92121.12000000056,
      "d": 69.4443750000064,
      "v": 102
    },
    {
      "midi": 66,
      "hit": false,
      "t": 92424.15000000058,
      "d": 25.25250000000233,
      "v": 92
    },
    {
      "midi": 62,
      "hit": false,
      "t": 92424.15000000058,
      "d": 44.191875000004075,
      "v": 92
    },
    {
      "midi": 69,
      "hit": false,
      "t": 92424.15000000058,
      "d": 44.191875000004075,
      "v": 79
    },
    {
      "midi": 72,
      "hit": false,
      "t": 92424.15000000058,
      "d": 44.191875000004075,
      "v": 88
    },
    {
      "midi": 70,
      "hit": false,
      "t": 92727.18000000058,
      "d": 31.56562500000291,
      "v": 95
    },
    {
      "midi": 74,
      "hit": false,
      "t": 92727.18000000058,
      "d": 44.191875000004075,
      "v": 104
    },
    {
      "midi": 69,
      "hit": false,
      "t": 92727.18000000058,
      "d": 56.81812500000524,
      "v": 111
    },
    {
      "midi": 67,
      "hit": false,
      "t": 92727.18000000058,
      "d": 69.4443750000064,
      "v": 104
    },
    {
      "midi": 69,
      "hit": false,
      "t": 93030.21000000059,
      "d": 44.191875000004075,
      "v": 99
    },
    {
      "midi": 74,
      "hit": false,
      "t": 93030.21000000059,
      "d": 44.191875000004075,
      "v": 86
    },
    {
      "midi": 67,
      "hit": false,
      "t": 93030.21000000059,
      "d": 50.50500000000466,
      "v": 94
    },
    {
      "midi": 70,
      "hit": false,
      "t": 93030.21000000059,
      "d": 50.50500000000466,
      "v": 94
    },
    {
      "midi": 69,
      "hit": false,
      "t": 93333.24000000059,
      "d": 44.191875000004075,
      "v": 102
    },
    {
      "midi": 70,
      "hit": false,
      "t": 93333.24000000059,
      "d": 50.50500000000466,
      "v": 97
    },
    {
      "midi": 74,
      "hit": false,
      "t": 93333.24000000059,
      "d": 50.50500000000466,
      "v": 94
    },
    {
      "midi": 67,
      "hit": false,
      "t": 93333.24000000059,
      "d": 69.4443750000064,
      "v": 100
    },
    {
      "midi": 69,
      "hit": false,
      "t": 93636.2700000006,
      "d": 44.191875000004075,
      "v": 106
    },
    {
      "midi": 74,
      "hit": false,
      "t": 93636.2700000006,
      "d": 44.191875000004075,
      "v": 99
    },
    {
      "midi": 67,
      "hit": false,
      "t": 93636.2700000006,
      "d": 50.50500000000466,
      "v": 94
    },
    {
      "midi": 70,
      "hit": false,
      "t": 93636.2700000006,
      "d": 50.50500000000466,
      "v": 104
    },
    {
      "midi": 74,
      "hit": false,
      "t": 93939.3000000006,
      "d": 25.25250000000233,
      "v": 88
    },
    {
      "midi": 67,
      "hit": false,
      "t": 93939.3000000006,
      "d": 50.50500000000466,
      "v": 94
    },
    {
      "midi": 69,
      "hit": false,
      "t": 93939.3000000006,
      "d": 50.50500000000466,
      "v": 102
    },
    {
      "midi": 70,
      "hit": false,
      "t": 93939.3000000006,
      "d": 50.50500000000466,
      "v": 102
    },
    {
      "midi": 74,
      "hit": false,
      "t": 94242.3300000006,
      "d": 25.25250000000233,
      "v": 92
    },
    {
      "midi": 69,
      "hit": false,
      "t": 94242.3300000006,
      "d": 31.56562500000291,
      "v": 86
    },
    {
      "midi": 67,
      "hit": false,
      "t": 94242.3300000006,
      "d": 69.4443750000064,
      "v": 94
    },
    {
      "midi": 70,
      "hit": false,
      "t": 94242.3300000006,
      "d": 69.4443750000064,
      "v": 99
    },
    {
      "midi": 65,
      "hit": false,
      "t": 94545.36000000061,
      "d": 31.56562500000291,
      "v": 81
    },
    {
      "midi": 60,
      "hit": false,
      "t": 94545.36000000061,
      "d": 44.191875000004075,
      "v": 104
    },
    {
      "midi": 63,
      "hit": false,
      "t": 94545.36000000061,
      "d": 50.50500000000466,
      "v": 106
    },
    {
      "midi": 69,
      "hit": false,
      "t": 94545.36000000061,
      "d": 50.50500000000466,
      "v": 100
    },
    {
      "midi": 60,
      "hit": false,
      "t": 94848.39000000061,
      "d": 44.191875000004075,
      "v": 100
    },
    {
      "midi": 65,
      "hit": false,
      "t": 94848.39000000061,
      "d": 44.191875000004075,
      "v": 94
    },
    {
      "midi": 63,
      "hit": false,
      "t": 94848.39000000061,
      "d": 69.4443750000064,
      "v": 106
    },
    {
      "midi": 69,
      "hit": false,
      "t": 94848.39000000061,
      "d": 69.4443750000064,
      "v": 100
    },
    {
      "midi": 63,
      "hit": false,
      "t": 95151.42000000062,
      "d": 44.191875000004075,
      "v": 109
    },
    {
      "midi": 69,
      "hit": false,
      "t": 95151.42000000062,
      "d": 44.191875000004075,
      "v": 102
    },
    {
      "midi": 60,
      "hit": false,
      "t": 95151.42000000062,
      "d": 50.50500000000466,
      "v": 102
    },
    {
      "midi": 65,
      "hit": false,
      "t": 95151.42000000062,
      "d": 50.50500000000466,
      "v": 100
    },
    {
      "midi": 60,
      "hit": false,
      "t": 95454.45000000062,
      "d": 69.4443750000064,
      "v": 109
    },
    {
      "midi": 69,
      "hit": false,
      "t": 95454.45000000062,
      "d": 69.4443750000064,
      "v": 106
    },
    {
      "midi": 63,
      "hit": false,
      "t": 95454.45000000062,
      "d": 75.75750000000698,
      "v": 111
    },
    {
      "midi": 65,
      "hit": false,
      "t": 95454.45000000062,
      "d": 75.75750000000698,
      "v": 104
    },
    {
      "midi": 60,
      "hit": false,
      "t": 95757.48000000064,
      "d": 44.191875000004075,
      "v": 106
    },
    {
      "midi": 65,
      "hit": false,
      "t": 95757.48000000064,
      "d": 50.50500000000466,
      "v": 95
    },
    {
      "midi": 63,
      "hit": false,
      "t": 95757.48000000064,
      "d": 69.4443750000064,
      "v": 106
    },
    {
      "midi": 69,
      "hit": false,
      "t": 95757.48000000064,
      "d": 69.4443750000064,
      "v": 99
    },
    {
      "midi": 60,
      "hit": false,
      "t": 96060.51000000065,
      "d": 44.191875000004075,
      "v": 102
    },
    {
      "midi": 65,
      "hit": false,
      "t": 96060.51000000065,
      "d": 44.191875000004075,
      "v": 86
    },
    {
      "midi": 63,
      "hit": false,
      "t": 96060.51000000065,
      "d": 50.50500000000466,
      "v": 104
    },
    {
      "midi": 69,
      "hit": false,
      "t": 96060.51000000065,
      "d": 69.4443750000064,
      "v": 100
    },
    {
      "midi": 46,
      "hit": false,
      "t": 96363.54000000066,
      "d": 656.5650000000023,
      "v": 106
    },
    {
      "midi": 58,
      "hit": false,
      "t": 96666.57000000066,
      "d": 530.3025000000052,
      "v": 111
    },
    {
      "midi": 62,
      "hit": false,
      "t": 96666.57000000066,
      "d": 530.3025000000052,
      "v": 100
    },
    {
      "midi": 53,
      "hit": false,
      "t": 96666.57000000066,
      "d": 549.241875000007,
      "v": 106
    },
    {
      "midi": 46,
      "hit": false,
      "t": 97272.63000000067,
      "d": 252.52499999999418,
      "v": 92
    },
    {
      "midi": 62,
      "hit": false,
      "t": 97575.66000000067,
      "d": 479.7975000000006,
      "v": 94
    },
    {
      "midi": 58,
      "hit": false,
      "t": 97575.66000000067,
      "d": 498.7368750000023,
      "v": 109
    },
    {
      "midi": 53,
      "hit": false,
      "t": 97575.66000000067,
      "d": 574.4943750000093,
      "v": 104
    },
    {
      "midi": 46,
      "hit": false,
      "t": 98181.72000000069,
      "d": 321.9693750000006,
      "v": 104
    },
    {
      "midi": 62,
      "hit": false,
      "t": 98484.75000000068,
      "d": 530.3025000000052,
      "v": 79
    },
    {
      "midi": 58,
      "hit": false,
      "t": 98484.75000000068,
      "d": 599.7468750000116,
      "v": 106
    },
    {
      "midi": 53,
      "hit": false,
      "t": 98484.75000000068,
      "d": 624.999375000014,
      "v": 95
    },
    {
      "midi": 46,
      "hit": false,
      "t": 99090.8100000007,
      "d": 277.7774999999965,
      "v": 104
    },
    {
      "midi": 58,
      "hit": false,
      "t": 99393.8400000007,
      "d": 328.28250000000116,
      "v": 106
    },
    {
      "midi": 62,
      "hit": false,
      "t": 99393.8400000007,
      "d": 353.5350000000035,
      "v": 92
    },
    {
      "midi": 53,
      "hit": false,
      "t": 99393.8400000007,
      "d": 378.7875000000058,
      "v": 97
    },
    {
      "midi": 46,
      "hit": false,
      "t": 99696.8700000007,
      "d": 290.4037500000122,
      "v": 102
    },
    {
      "midi": 41,
      "hit": false,
      "t": 99999.9000000007,
      "d": 328.28250000000116,
      "v": 102
    },
    {
      "midi": 63,
      "hit": false,
      "t": 100302.9300000007,
      "d": 580.8074999999953,
      "v": 97
    },
    {
      "midi": 57,
      "hit": false,
      "t": 100302.9300000007,
      "d": 606.0599999999977,
      "v": 99
    },
    {
      "midi": 60,
      "hit": false,
      "t": 100302.9300000007,
      "d": 606.0599999999977,
      "v": 104
    },
    {
      "midi": 65,
      "hit": false,
      "t": 100302.9300000007,
      "d": 606.0599999999977,
      "v": 92
    },
    {
      "midi": 41,
      "hit": false,
      "t": 100908.9900000007,
      "d": 246.2118749999936,
      "v": 94
    },
    {
      "midi": 60,
      "hit": false,
      "t": 101212.0200000007,
      "d": 50.50500000000466,
      "v": 104
    },
    {
      "midi": 63,
      "hit": false,
      "t": 101212.0200000007,
      "d": 69.4443750000064,
      "v": 94
    },
    {
      "midi": 57,
      "hit": false,
      "t": 101212.0200000007,
      "d": 75.75750000000698,
      "v": 95
    },
    {
      "midi": 65,
      "hit": false,
      "t": 101212.0200000007,
      "d": 75.75750000000698,
      "v": 85
    },
    {
      "midi": 63,
      "hit": false,
      "t": 101515.05000000072,
      "d": 404.0399999999936,
      "v": 88
    },
    {
      "midi": 65,
      "hit": false,
      "t": 101515.05000000072,
      "d": 404.0399999999936,
      "v": 72
    },
    {
      "midi": 57,
      "hit": false,
      "t": 101515.05000000072,
      "d": 422.97937499999534,
      "v": 74
    },
    {
      "midi": 60,
      "hit": false,
      "t": 101515.05000000072,
      "d": 422.97937499999534,
      "v": 97
    },
    {
      "midi": 41,
      "hit": false,
      "t": 101818.08000000071,
      "d": 587.1206249999959,
      "v": 111
    },
    {
      "midi": 65,
      "hit": false,
      "t": 102121.11000000071,
      "d": 404.0399999999936,
      "v": 95
    },
    {
      "midi": 57,
      "hit": false,
      "t": 102121.11000000071,
      "d": 422.97937499999534,
      "v": 100
    },
    {
      "midi": 60,
      "hit": false,
      "t": 102121.11000000071,
      "d": 422.97937499999534,
      "v": 106
    },
    {
      "midi": 63,
      "hit": false,
      "t": 102121.11000000071,
      "d": 422.97937499999534,
      "v": 102
    },
    {
      "midi": 41,
      "hit": false,
      "t": 102727.17000000071,
      "d": 397.72687500000757,
      "v": 106
    },
    {
      "midi": 60,
      "hit": false,
      "t": 103030.20000000071,
      "d": 18.939375000001746,
      "v": 109
    },
    {
      "midi": 63,
      "hit": false,
      "t": 103030.20000000071,
      "d": 25.25250000000233,
      "v": 95
    },
    {
      "midi": 57,
      "hit": false,
      "t": 103030.20000000071,
      "d": 44.191875000004075,
      "v": 100
    },
    {
      "midi": 65,
      "hit": false,
      "t": 103030.20000000071,
      "d": 44.191875000004075,
      "v": 92
    },
    {
      "midi": 63,
      "hit": false,
      "t": 103333.23000000072,
      "d": 353.5350000000035,
      "v": 104
    },
    {
      "midi": 65,
      "hit": false,
      "t": 103333.23000000072,
      "d": 353.5350000000035,
      "v": 78
    },
    {
      "midi": 60,
      "hit": false,
      "t": 103333.23000000072,
      "d": 372.47437500000524,
      "v": 116
    },
    {
      "midi": 57,
      "hit": false,
      "t": 103333.23000000072,
      "d": 378.7875000000058,
      "v": 104
    },
    {
      "midi": 41,
      "hit": false,
      "t": 103636.26000000072,
      "d": 624.999375000014,
      "v": 118
    },
    {
      "midi": 65,
      "hit": false,
      "t": 103939.29000000074,
      "d": 580.8074999999953,
      "v": 99
    },
    {
      "midi": 63,
      "hit": false,
      "t": 103939.29000000074,
      "d": 606.0599999999977,
      "v": 102
    },
    {
      "midi": 57,
      "hit": false,
      "t": 103939.29000000074,
      "d": 624.9993749999994,
      "v": 100
    },
    {
      "midi": 60,
      "hit": false,
      "t": 103939.29000000074,
      "d": 624.9993749999994,
      "v": 109
    },
    {
      "midi": 41,
      "hit": false,
      "t": 104545.35000000073,
      "d": 246.21187500000815,
      "v": 102
    },
    {
      "midi": 57,
      "hit": false,
      "t": 104848.38000000075,
      "d": 18.939375000001746,
      "v": 95
    },
    {
      "midi": 60,
      "hit": false,
      "t": 104848.38000000075,
      "d": 18.939375000001746,
      "v": 104
    },
    {
      "midi": 63,
      "hit": false,
      "t": 104848.38000000075,
      "d": 18.939375000001746,
      "v": 72
    },
    {
      "midi": 60,
      "hit": false,
      "t": 105151.41000000075,
      "d": 372.47437500000524,
      "v": 111
    },
    {
      "midi": 63,
      "hit": false,
      "t": 105151.41000000075,
      "d": 372.47437500000524,
      "v": 95
    },
    {
      "midi": 65,
      "hit": false,
      "t": 105151.41000000075,
      "d": 372.47437500000524,
      "v": 92
    },
    {
      "midi": 57,
      "hit": false,
      "t": 105151.41000000075,
      "d": 378.7875000000058,
      "v": 95
    },
    {
      "midi": 41,
      "hit": false,
      "t": 105454.44000000074,
      "d": 321.96937500001513,
      "v": 116
    },
    {
      "midi": 63,
      "hit": false,
      "t": 105757.47000000076,
      "d": 555.5550000000076,
      "v": 100
    },
    {
      "midi": 57,
      "hit": false,
      "t": 105757.47000000076,
      "d": 580.8075000000099,
      "v": 102
    },
    {
      "midi": 60,
      "hit": false,
      "t": 105757.47000000076,
      "d": 580.8075000000099,
      "v": 109
    },
    {
      "midi": 65,
      "hit": false,
      "t": 105757.47000000076,
      "d": 580.8075000000099,
      "v": 95
    },
    {
      "midi": 41,
      "hit": false,
      "t": 106363.53000000077,
      "d": 277.7774999999965,
      "v": 113
    },
    {
      "midi": 60,
      "hit": false,
      "t": 106666.56000000077,
      "d": 328.28250000000116,
      "v": 106
    },
    {
      "midi": 63,
      "hit": false,
      "t": 106666.56000000077,
      "d": 328.28250000000116,
      "v": 94
    },
    {
      "midi": 65,
      "hit": false,
      "t": 106666.56000000077,
      "d": 347.2218750000029,
      "v": 95
    },
    {
      "midi": 57,
      "hit": false,
      "t": 106666.56000000077,
      "d": 372.47437500000524,
      "v": 95
    },
    {
      "midi": 41,
      "hit": false,
      "t": 106969.59000000077,
      "d": 252.52500000000873,
      "v": 100
    },
    {
      "midi": 46,
      "hit": false,
      "t": 107272.62000000078,
      "d": 675.5043750000041,
      "v": 102
    },
    {
      "midi": 58,
      "hit": false,
      "t": 107575.65000000078,
      "d": 599.7468750000116,
      "v": 102
    },
    {
      "midi": 62,
      "hit": false,
      "t": 107575.65000000078,
      "d": 599.7468750000116,
      "v": 97
    },
    {
      "midi": 53,
      "hit": false,
      "t": 107575.65000000078,
      "d": 624.999375000014,
      "v": 97
    },
    {
      "midi": 46,
      "hit": false,
      "t": 108181.71000000079,
      "d": 227.2725000000064,
      "v": 106
    },
    {
      "midi": 58,
      "hit": false,
      "t": 108484.7400000008,
      "d": 25.25250000000233,
      "v": 65
    },
    {
      "midi": 53,
      "hit": false,
      "t": 108484.7400000008,
      "d": 44.191875000004075,
      "v": 95
    },
    {
      "midi": 58,
      "hit": false,
      "t": 108787.7700000008,
      "d": 372.47437500000524,
      "v": 104
    },
    {
      "midi": 62,
      "hit": false,
      "t": 108787.7700000008,
      "d": 372.47437500000524,
      "v": 95
    },
    {
      "midi": 53,
      "hit": false,
      "t": 108787.7700000008,
      "d": 378.7875000000058,
      "v": 102
    },
    {
      "midi": 46,
      "hit": false,
      "t": 109090.8000000008,
      "d": 713.3831250000076,
      "v": 118
    },
    {
      "midi": 62,
      "hit": false,
      "t": 109393.83000000082,
      "d": 580.8074999999953,
      "v": 100
    },
    {
      "midi": 53,
      "hit": false,
      "t": 109393.83000000082,
      "d": 624.9993749999994,
      "v": 100
    },
    {
      "midi": 58,
      "hit": false,
      "t": 109393.83000000082,
      "d": 624.9993749999994,
      "v": 109
    },
    {
      "midi": 46,
      "hit": false,
      "t": 109999.89000000081,
      "d": 252.52500000000873,
      "v": 113
    },
    {
      "midi": 62,
      "hit": false,
      "t": 110302.92000000083,
      "d": 44.191875000004075,
      "v": 83
    },
    {
      "midi": 58,
      "hit": false,
      "t": 110302.92000000083,
      "d": 50.50500000000466,
      "v": 99
    },
    {
      "midi": 53,
      "hit": false,
      "t": 110302.92000000083,
      "d": 69.4443750000064,
      "v": 99
    },
    {
      "midi": 58,
      "hit": false,
      "t": 110605.95000000084,
      "d": 378.7875000000058,
      "v": 106
    },
    {
      "midi": 62,
      "hit": false,
      "t": 110605.95000000084,
      "d": 378.7875000000058,
      "v": 104
    },
    {
      "midi": 53,
      "hit": false,
      "t": 110605.95000000084,
      "d": 404.04000000000815,
      "v": 95
    },
    {
      "midi": 46,
      "hit": false,
      "t": 110908.98000000084,
      "d": 397.72687500000757,
      "v": 113
    },
    {
      "midi": 62,
      "hit": false,
      "t": 111212.01000000085,
      "d": 624.9993749999994,
      "v": 95
    },
    {
      "midi": 53,
      "hit": false,
      "t": 111212.01000000085,
      "d": 650.2518750000017,
      "v": 97
    },
    {
      "midi": 58,
      "hit": false,
      "t": 111212.01000000085,
      "d": 650.2518750000017,
      "v": 102
    },
    {
      "midi": 46,
      "hit": false,
      "t": 111818.07000000085,
      "d": 277.77750000001106,
      "v": 104
    },
    {
      "midi": 58,
      "hit": false,
      "t": 112121.10000000086,
      "d": 94.69687499999418,
      "v": 97
    },
    {
      "midi": 62,
      "hit": false,
      "t": 112121.10000000086,
      "d": 101.00999999999476,
      "v": 85
    },
    {
      "midi": 53,
      "hit": false,
      "t": 112121.10000000086,
      "d": 145.20187499999884,
      "v": 85
    },
    {
      "midi": 58,
      "hit": false,
      "t": 112424.13000000086,
      "d": 378.7875000000058,
      "v": 111
    },
    {
      "midi": 62,
      "hit": false,
      "t": 112424.13000000086,
      "d": 397.72687500000757,
      "v": 100
    },
    {
      "midi": 53,
      "hit": false,
      "t": 112424.13000000086,
      "d": 404.04000000000815,
      "v": 97
    },
    {
      "midi": 46,
      "hit": false,
      "t": 112727.16000000086,
      "d": 650.2518750000163,
      "v": 111
    },
    {
      "midi": 56,
      "hit": false,
      "t": 113030.19000000088,
      "d": 650.2518750000017,
      "v": 109
    },
    {
      "midi": 58,
      "hit": false,
      "t": 113030.19000000088,
      "d": 650.2518750000017,
      "v": 100
    },
    {
      "midi": 62,
      "hit": false,
      "t": 113030.19000000088,
      "d": 650.2518750000017,
      "v": 94
    },
    {
      "midi": 53,
      "hit": false,
      "t": 113030.19000000088,
      "d": 681.8175000000047,
      "v": 97
    },
    {
      "midi": 46,
      "hit": false,
      "t": 113636.25000000087,
      "d": 252.52500000000873,
      "v": 100
    },
    {
      "midi": 56,
      "hit": false,
      "t": 113939.28000000089,
      "d": 422.97937499999534,
      "v": 104
    },
    {
      "midi": 58,
      "hit": false,
      "t": 113939.28000000089,
      "d": 422.97937499999534,
      "v": 100
    },
    {
      "midi": 53,
      "hit": false,
      "t": 113939.28000000089,
      "d": 429.2924999999959,
      "v": 95
    },
    {
      "midi": 62,
      "hit": false,
      "t": 113939.28000000089,
      "d": 429.2924999999959,
      "v": 97
    },
    {
      "midi": 46,
      "hit": false,
      "t": 114242.31000000089,
      "d": 271.4643749999959,
      "v": 104
    },
    {
      "midi": 39,
      "hit": false,
      "t": 114545.34000000088,
      "d": 574.4943749999948,
      "v": 113
    },
    {
      "midi": 55,
      "hit": false,
      "t": 114848.37000000088,
      "d": 574.4943749999948,
      "v": 100
    },
    {
      "midi": 58,
      "hit": false,
      "t": 114848.37000000088,
      "d": 580.8074999999953,
      "v": 113
    },
    {
      "midi": 63,
      "hit": false,
      "t": 114848.37000000088,
      "d": 606.0599999999977,
      "v": 104
    },
    {
      "midi": 39,
      "hit": false,
      "t": 115454.43000000088,
      "d": 303.02999999999884,
      "v": 111
    },
    {
      "midi": 58,
      "hit": false,
      "t": 115757.46000000088,
      "d": 303.02999999999884,
      "v": 106
    },
    {
      "midi": 63,
      "hit": false,
      "t": 115757.46000000088,
      "d": 321.9693750000006,
      "v": 100
    },
    {
      "midi": 55,
      "hit": false,
      "t": 115757.46000000088,
      "d": 328.28250000000116,
      "v": 92
    },
    {
      "midi": 39,
      "hit": false,
      "t": 116060.49000000088,
      "d": 271.4643749999959,
      "v": 109
    },
    {
      "midi": 36,
      "hit": false,
      "t": 116363.52000000088,
      "d": 372.47437500000524,
      "v": 106
    },
    {
      "midi": 58,
      "hit": false,
      "t": 116666.55000000088,
      "d": 624.999375000014,
      "v": 100
    },
    {
      "midi": 60,
      "hit": false,
      "t": 116666.55000000088,
      "d": 624.999375000014,
      "v": 94
    },
    {
      "midi": 55,
      "hit": false,
      "t": 116666.55000000088,
      "d": 631.3125000000146,
      "v": 100
    },
    {
      "midi": 64,
      "hit": false,
      "t": 116666.55000000088,
      "d": 650.2518750000163,
      "v": 92
    },
    {
      "midi": 36,
      "hit": false,
      "t": 117272.61000000089,
      "d": 277.77750000001106,
      "v": 111
    },
    {
      "midi": 55,
      "hit": false,
      "t": 117575.6400000009,
      "d": 631.3125,
      "v": 97
    },
    {
      "midi": 58,
      "hit": false,
      "t": 117575.6400000009,
      "d": 631.3125,
      "v": 100
    },
    {
      "midi": 60,
      "hit": false,
      "t": 117575.6400000009,
      "d": 631.3125,
      "v": 92
    },
    {
      "midi": 64,
      "hit": false,
      "t": 117575.6400000009,
      "d": 631.3125,
      "v": 95
    },
    {
      "midi": 46,
      "hit": false,
      "t": 118181.7000000009,
      "d": 359.8481250000041,
      "v": 82
    },
    {
      "midi": 58,
      "hit": false,
      "t": 118484.7300000009,
      "d": 650.2518750000163,
      "v": 100
    },
    {
      "midi": 53,
      "hit": false,
      "t": 118484.7300000009,
      "d": 656.5650000000169,
      "v": 95
    },
    {
      "midi": 62,
      "hit": false,
      "t": 118484.7300000009,
      "d": 675.5043750000186,
      "v": 99
    },
    {
      "midi": 46,
      "hit": false,
      "t": 119090.79000000091,
      "d": 271.4643750000105,
      "v": 106
    },
    {
      "midi": 58,
      "hit": false,
      "t": 119393.82000000092,
      "d": 296.71687499999825,
      "v": 102
    },
    {
      "midi": 53,
      "hit": false,
      "t": 119393.82000000092,
      "d": 321.9693750000006,
      "v": 95
    },
    {
      "midi": 62,
      "hit": false,
      "t": 119393.82000000092,
      "d": 328.28250000000116,
      "v": 94
    },
    {
      "midi": 46,
      "hit": false,
      "t": 119696.85000000092,
      "d": 246.21187500000815,
      "v": 78
    },
    {
      "midi": 41,
      "hit": false,
      "t": 119999.88000000094,
      "d": 738.6356249999953,
      "v": 97
    },
    {
      "midi": 57,
      "hit": false,
      "t": 120302.91000000093,
      "d": 631.3125,
      "v": 77
    },
    {
      "midi": 60,
      "hit": false,
      "t": 120302.91000000093,
      "d": 631.3125,
      "v": 104
    },
    {
      "midi": 63,
      "hit": false,
      "t": 120302.91000000093,
      "d": 631.3125,
      "v": 100
    },
    {
      "midi": 41,
      "hit": false,
      "t": 120908.97000000093,
      "d": 328.28250000000116,
      "v": 104
    },
    {
      "midi": 60,
      "hit": false,
      "t": 121212.00000000093,
      "d": 347.2218750000029,
      "v": 109
    },
    {
      "midi": 63,
      "hit": false,
      "t": 121212.00000000093,
      "d": 347.2218750000029,
      "v": 102
    },
    {
      "midi": 57,
      "hit": false,
      "t": 121212.00000000093,
      "d": 378.7875000000058,
      "v": 94
    },
    {
      "midi": 41,
      "hit": false,
      "t": 121515.03000000093,
      "d": 246.21187500000815,
      "v": 99
    },
    {
      "midi": 46,
      "hit": false,
      "t": 121818.06000000094,
      "d": 751.2618749999965,
      "v": 100
    },
    {
      "midi": 62,
      "hit": false,
      "t": 122121.09000000094,
      "d": 631.3125,
      "v": 95
    },
    {
      "midi": 53,
      "hit": false,
      "t": 122121.09000000094,
      "d": 675.5043750000041,
      "v": 95
    },
    {
      "midi": 58,
      "hit": false,
      "t": 122121.09000000094,
      "d": 675.5043750000041,
      "v": 104
    },
    {
      "midi": 46,
      "hit": false,
      "t": 122727.15000000094,
      "d": 303.0300000000134,
      "v": 106
    },
    {
      "midi": 58,
      "hit": false,
      "t": 123030.18000000095,
      "d": 347.2218750000029,
      "v": 97
    },
    {
      "midi": 53,
      "hit": false,
      "t": 123030.18000000095,
      "d": 372.47437500000524,
      "v": 76
    },
    {
      "midi": 62,
      "hit": false,
      "t": 123030.18000000095,
      "d": 372.47437500000524,
      "v": 86
    },
    {
      "midi": 46,
      "hit": false,
      "t": 123333.21000000095,
      "d": 101.01000000000931,
      "v": 95
    },
    {
      "midi": 60,
      "hit": false,
      "t": 123636.24000000097,
      "d": 1508.8368749999936,
      "v": 106
    },
    {
      "midi": 66,
      "hit": false,
      "t": 123636.24000000097,
      "d": 1508.8368749999936,
      "v": 111
    },
    {
      "midi": 62,
      "hit": false,
      "t": 123636.24000000097,
      "d": 1521.4631249999948,
      "v": 111
    },
    {
      "midi": 50,
      "hit": false,
      "t": 123636.24000000097,
      "d": 1540.4024999999965,
      "v": 120
    },
    {
      "midi": 74,
      "hit": false,
      "t": 125454.42000000096,
      "d": 44.191875000004075,
      "v": 104
    },
    {
      "midi": 69,
      "hit": false,
      "t": 125454.42000000096,
      "d": 50.50500000000466,
      "v": 111
    },
    {
      "midi": 70,
      "hit": false,
      "t": 125454.42000000096,
      "d": 50.50500000000466,
      "v": 106
    },
    {
      "midi": 67,
      "hit": false,
      "t": 125454.42000000096,
      "d": 56.81812500000524,
      "v": 104
    },
    {
      "midi": 67,
      "hit": false,
      "t": 125757.45000000096,
      "d": 50.50500000000466,
      "v": 85
    },
    {
      "midi": 74,
      "hit": false,
      "t": 125757.45000000096,
      "d": 50.50500000000466,
      "v": 85
    },
    {
      "midi": 70,
      "hit": false,
      "t": 125757.45000000096,
      "d": 69.4443750000064,
      "v": 83
    },
    {
      "midi": 69,
      "hit": false,
      "t": 125757.45000000096,
      "d": 75.75750000000698,
      "v": 97
    },
    {
      "midi": 67,
      "hit": false,
      "t": 126060.48000000097,
      "d": 75.75750000000698,
      "v": 85
    },
    {
      "midi": 69,
      "hit": false,
      "t": 126060.48000000097,
      "d": 75.75750000000698,
      "v": 102
    },
    {
      "midi": 70,
      "hit": false,
      "t": 126060.48000000097,
      "d": 75.75750000000698,
      "v": 92
    },
    {
      "midi": 74,
      "hit": false,
      "t": 126060.48000000097,
      "d": 75.75750000000698,
      "v": 86
    },
    {
      "midi": 67,
      "hit": false,
      "t": 126363.51000000098,
      "d": 75.75750000000698,
      "v": 102
    },
    {
      "midi": 69,
      "hit": false,
      "t": 126363.51000000098,
      "d": 75.75750000000698,
      "v": 109
    },
    {
      "midi": 70,
      "hit": false,
      "t": 126363.51000000098,
      "d": 75.75750000000698,
      "v": 106
    },
    {
      "midi": 74,
      "hit": false,
      "t": 126363.51000000098,
      "d": 75.75750000000698,
      "v": 99
    },
    {
      "midi": 67,
      "hit": false,
      "t": 126666.540000001,
      "d": 50.50500000000466,
      "v": 97
    },
    {
      "midi": 69,
      "hit": false,
      "t": 126666.540000001,
      "d": 50.50500000000466,
      "v": 106
    },
    {
      "midi": 70,
      "hit": false,
      "t": 126666.540000001,
      "d": 50.50500000000466,
      "v": 100
    },
    {
      "midi": 74,
      "hit": false,
      "t": 126666.540000001,
      "d": 69.4443750000064,
      "v": 92
    },
    {
      "midi": 67,
      "hit": false,
      "t": 126969.57000000101,
      "d": 50.50500000000466,
      "v": 92
    },
    {
      "midi": 69,
      "hit": false,
      "t": 126969.57000000101,
      "d": 50.50500000000466,
      "v": 109
    },
    {
      "midi": 70,
      "hit": false,
      "t": 126969.57000000101,
      "d": 50.50500000000466,
      "v": 97
    },
    {
      "midi": 74,
      "hit": false,
      "t": 126969.57000000101,
      "d": 50.50500000000466,
      "v": 86
    },
    {
      "midi": 67,
      "hit": false,
      "t": 127272.60000000101,
      "d": 50.50500000000466,
      "v": 97
    },
    {
      "midi": 69,
      "hit": false,
      "t": 127272.60000000101,
      "d": 50.50500000000466,
      "v": 109
    },
    {
      "midi": 70,
      "hit": false,
      "t": 127272.60000000101,
      "d": 50.50500000000466,
      "v": 102
    },
    {
      "midi": 74,
      "hit": false,
      "t": 127272.60000000101,
      "d": 50.50500000000466,
      "v": 94
    },
    {
      "midi": 74,
      "hit": false,
      "t": 127575.63000000101,
      "d": 44.191875000004075,
      "v": 86
    },
    {
      "midi": 67,
      "hit": false,
      "t": 127575.63000000101,
      "d": 69.4443750000064,
      "v": 92
    },
    {
      "midi": 69,
      "hit": false,
      "t": 127575.63000000101,
      "d": 69.4443750000064,
      "v": 106
    },
    {
      "midi": 70,
      "hit": false,
      "t": 127575.63000000101,
      "d": 69.4443750000064,
      "v": 94
    },
    {
      "midi": 69,
      "hit": false,
      "t": 127878.66000000102,
      "d": 44.191875000004075,
      "v": 104
    },
    {
      "midi": 74,
      "hit": false,
      "t": 127878.66000000102,
      "d": 44.191875000004075,
      "v": 88
    },
    {
      "midi": 67,
      "hit": false,
      "t": 127878.66000000102,
      "d": 50.50500000000466,
      "v": 88
    },
    {
      "midi": 70,
      "hit": false,
      "t": 127878.66000000102,
      "d": 50.50500000000466,
      "v": 94
    },
    {
      "midi": 69,
      "hit": false,
      "t": 128181.69000000102,
      "d": 69.4443750000064,
      "v": 102
    },
    {
      "midi": 70,
      "hit": false,
      "t": 128181.69000000102,
      "d": 69.4443750000064,
      "v": 94
    },
    {
      "midi": 74,
      "hit": false,
      "t": 128181.69000000102,
      "d": 69.4443750000064,
      "v": 92
    },
    {
      "midi": 67,
      "hit": false,
      "t": 128181.69000000102,
      "d": 75.75750000000698,
      "v": 92
    },
    {
      "midi": 74,
      "hit": false,
      "t": 128484.72000000103,
      "d": 44.191875000004075,
      "v": 88
    },
    {
      "midi": 69,
      "hit": false,
      "t": 128484.72000000103,
      "d": 50.50500000000466,
      "v": 106
    },
    {
      "midi": 67,
      "hit": false,
      "t": 128484.72000000103,
      "d": 69.4443750000064,
      "v": 94
    },
    {
      "midi": 70,
      "hit": false,
      "t": 128484.72000000103,
      "d": 69.4443750000064,
      "v": 99
    },
    {
      "midi": 69,
      "hit": false,
      "t": 128787.75000000105,
      "d": 25.25250000000233,
      "v": 88
    },
    {
      "midi": 74,
      "hit": false,
      "t": 128787.75000000105,
      "d": 25.25250000000233,
      "v": 83
    },
    {
      "midi": 70,
      "hit": false,
      "t": 128787.75000000105,
      "d": 69.4443750000064,
      "v": 95
    },
    {
      "midi": 67,
      "hit": false,
      "t": 128787.75000000105,
      "d": 75.75750000000698,
      "v": 88
    },
    {
      "midi": 62,
      "hit": false,
      "t": 129090.78000000106,
      "d": 44.191875000004075,
      "v": 102
    },
    {
      "midi": 72,
      "hit": false,
      "t": 129090.78000000106,
      "d": 50.50500000000466,
      "v": 92
    },
    {
      "midi": 66,
      "hit": false,
      "t": 129090.78000000106,
      "d": 56.81812500000524,
      "v": 104
    },
    {
      "midi": 69,
      "hit": false,
      "t": 129090.78000000106,
      "d": 56.81812500000524,
      "v": 92
    },
    {
      "midi": 69,
      "hit": false,
      "t": 129393.81000000106,
      "d": 44.191875000004075,
      "v": 71
    },
    {
      "midi": 62,
      "hit": false,
      "t": 129393.81000000106,
      "d": 50.50500000000466,
      "v": 86
    },
    {
      "midi": 66,
      "hit": false,
      "t": 129393.81000000106,
      "d": 69.4443750000064,
      "v": 94
    },
    {
      "midi": 72,
      "hit": false,
      "t": 129393.81000000106,
      "d": 69.4443750000064,
      "v": 79
    },
    {
      "midi": 69,
      "hit": false,
      "t": 129696.84000000107,
      "d": 25.25250000000233,
      "v": 71
    },
    {
      "midi": 72,
      "hit": false,
      "t": 129696.84000000107,
      "d": 44.191875000004075,
      "v": 86
    },
    {
      "midi": 62,
      "hit": false,
      "t": 129696.84000000107,
      "d": 50.50500000000466,
      "v": 86
    },
    {
      "midi": 66,
      "hit": false,
      "t": 129696.84000000107,
      "d": 69.4443750000064,
      "v": 94
    },
    {
      "midi": 72,
      "hit": false,
      "t": 129999.87000000109,
      "d": 44.191875000004075,
      "v": 95
    },
    {
      "midi": 62,
      "hit": false,
      "t": 129999.87000000109,
      "d": 50.50500000000466,
      "v": 100
    },
    {
      "midi": 66,
      "hit": false,
      "t": 129999.87000000109,
      "d": 50.50500000000466,
      "v": 102
    },
    {
      "midi": 69,
      "hit": false,
      "t": 129999.87000000109,
      "d": 50.50500000000466,
      "v": 86
    },
    {
      "midi": 72,
      "hit": false,
      "t": 130302.90000000109,
      "d": 44.191875000004075,
      "v": 86
    },
    {
      "midi": 66,
      "hit": false,
      "t": 130302.90000000109,
      "d": 50.50500000000466,
      "v": 97
    },
    {
      "midi": 69,
      "hit": false,
      "t": 130302.90000000109,
      "d": 50.50500000000466,
      "v": 76
    },
    {
      "midi": 62,
      "hit": false,
      "t": 130302.90000000109,
      "d": 69.4443750000064,
      "v": 94
    },
    {
      "midi": 69,
      "hit": false,
      "t": 130605.9300000011,
      "d": 44.191875000004075,
      "v": 78
    },
    {
      "midi": 72,
      "hit": false,
      "t": 130605.9300000011,
      "d": 44.191875000004075,
      "v": 85
    },
    {
      "midi": 62,
      "hit": false,
      "t": 130605.9300000011,
      "d": 50.50500000000466,
      "v": 94
    },
    {
      "midi": 66,
      "hit": false,
      "t": 130605.9300000011,
      "d": 69.4443750000064,
      "v": 94
    },
    {
      "midi": 62,
      "hit": false,
      "t": 130908.96000000111,
      "d": 31.56562500000291,
      "v": 92
    },
    {
      "midi": 66,
      "hit": false,
      "t": 130908.96000000111,
      "d": 31.56562500000291,
      "v": 102
    },
    {
      "midi": 69,
      "hit": false,
      "t": 130908.96000000111,
      "d": 31.56562500000291,
      "v": 78
    },
    {
      "midi": 72,
      "hit": false,
      "t": 130908.96000000111,
      "d": 31.56562500000291,
      "v": 92
    },
    {
      "midi": 72,
      "hit": false,
      "t": 131211.99000000113,
      "d": 18.939374999987194,
      "v": 76
    },
    {
      "midi": 69,
      "hit": false,
      "t": 131211.99000000113,
      "d": 44.19187499998952,
      "v": 76
    },
    {
      "midi": 62,
      "hit": false,
      "t": 131211.99000000113,
      "d": 69.44437499999185,
      "v": 92
    },
    {
      "midi": 66,
      "hit": false,
      "t": 131211.99000000113,
      "d": 69.44437499999185,
      "v": 100
    },
    {
      "midi": 69,
      "hit": false,
      "t": 131515.02000000112,
      "d": 44.19187499998952,
      "v": 69
    },
    {
      "midi": 72,
      "hit": false,
      "t": 131515.02000000112,
      "d": 44.19187499998952,
      "v": 76
    },
    {
      "midi": 62,
      "hit": false,
      "t": 131515.02000000112,
      "d": 69.44437499999185,
      "v": 86
    },
    {
      "midi": 66,
      "hit": false,
      "t": 131515.02000000112,
      "d": 69.44437499999185,
      "v": 92
    },
    {
      "midi": 69,
      "hit": false,
      "t": 131818.05000000112,
      "d": 44.19187499998952,
      "v": 78
    },
    {
      "midi": 62,
      "hit": false,
      "t": 131818.05000000112,
      "d": 50.50499999997555,
      "v": 88
    },
    {
      "midi": 66,
      "hit": false,
      "t": 131818.05000000112,
      "d": 50.50499999997555,
      "v": 102
    },
    {
      "midi": 72,
      "hit": false,
      "t": 131818.05000000112,
      "d": 50.50499999997555,
      "v": 88
    },
    {
      "midi": 62,
      "hit": false,
      "t": 132121.0800000011,
      "d": 50.50500000000466,
      "v": 92
    },
    {
      "midi": 66,
      "hit": false,
      "t": 132121.0800000011,
      "d": 50.50500000000466,
      "v": 99
    },
    {
      "midi": 69,
      "hit": false,
      "t": 132121.0800000011,
      "d": 50.50500000000466,
      "v": 76
    },
    {
      "midi": 72,
      "hit": false,
      "t": 132121.0800000011,
      "d": 50.50500000000466,
      "v": 92
    },
    {
      "midi": 66,
      "hit": false,
      "t": 132424.1100000011,
      "d": 25.25250000000233,
      "v": 86
    },
    {
      "midi": 69,
      "hit": false,
      "t": 132424.1100000011,
      "d": 25.25250000000233,
      "v": 67
    },
    {
      "midi": 62,
      "hit": false,
      "t": 132424.1100000011,
      "d": 44.19187499998952,
      "v": 92
    },
    {
      "midi": 72,
      "hit": false,
      "t": 132424.1100000011,
      "d": 50.50499999997555,
      "v": 86
    },
    {
      "midi": 69,
      "hit": false,
      "t": 132727.14000000106,
      "d": 25.25250000000233,
      "v": 106
    },
    {
      "midi": 70,
      "hit": false,
      "t": 132727.14000000106,
      "d": 25.25250000000233,
      "v": 95
    },
    {
      "midi": 67,
      "hit": false,
      "t": 132727.14000000106,
      "d": 44.19187499998952,
      "v": 100
    },
    {
      "midi": 74,
      "hit": false,
      "t": 132727.14000000106,
      "d": 44.19187499998952,
      "v": 102
    },
    {
      "midi": 69,
      "hit": false,
      "t": 133030.17000000106,
      "d": 50.50500000000466,
      "v": 95
    },
    {
      "midi": 70,
      "hit": false,
      "t": 133030.17000000106,
      "d": 50.50500000000466,
      "v": 83
    },
    {
      "midi": 74,
      "hit": false,
      "t": 133030.17000000106,
      "d": 50.50500000000466,
      "v": 86
    },
    {
      "midi": 67,
      "hit": false,
      "t": 133030.17000000106,
      "d": 69.44437499999185,
      "v": 88
    },
    {
      "midi": 67,
      "hit": false,
      "t": 133333.20000000106,
      "d": 50.50500000000466,
      "v": 86
    },
    {
      "midi": 69,
      "hit": false,
      "t": 133333.20000000106,
      "d": 50.50500000000466,
      "v": 88
    },
    {
      "midi": 70,
      "hit": false,
      "t": 133333.20000000106,
      "d": 50.50500000000466,
      "v": 79
    },
    {
      "midi": 74,
      "hit": false,
      "t": 133333.20000000106,
      "d": 69.44437499999185,
      "v": 85
    },
    {
      "midi": 69,
      "hit": false,
      "t": 133636.23000000106,
      "d": 50.50500000000466,
      "v": 106
    },
    {
      "midi": 67,
      "hit": false,
      "t": 133636.23000000106,
      "d": 69.44437499999185,
      "v": 102
    },
    {
      "midi": 70,
      "hit": false,
      "t": 133636.23000000106,
      "d": 69.44437499999185,
      "v": 102
    },
    {
      "midi": 74,
      "hit": false,
      "t": 133636.23000000106,
      "d": 69.44437499999185,
      "v": 97
    },
    {
      "midi": 67,
      "hit": false,
      "t": 133939.26000000106,
      "d": 50.50500000000466,
      "v": 94
    },
    {
      "midi": 69,
      "hit": false,
      "t": 133939.26000000106,
      "d": 50.50500000000466,
      "v": 102
    },
    {
      "midi": 74,
      "hit": false,
      "t": 133939.26000000106,
      "d": 50.50500000000466,
      "v": 88
    },
    {
      "midi": 70,
      "hit": false,
      "t": 133939.26000000106,
      "d": 69.44437499999185,
      "v": 88
    },
    {
      "midi": 74,
      "hit": false,
      "t": 134242.29000000106,
      "d": 44.19187499998952,
      "v": 85
    },
    {
      "midi": 69,
      "hit": false,
      "t": 134242.29000000106,
      "d": 50.50499999997555,
      "v": 94
    },
    {
      "midi": 70,
      "hit": false,
      "t": 134242.29000000106,
      "d": 50.50499999997555,
      "v": 72
    },
    {
      "midi": 67,
      "hit": false,
      "t": 134242.29000000106,
      "d": 69.44437499996275,
      "v": 88
    },
    {
      "midi": 69,
      "hit": false,
      "t": 134545.32000000103,
      "d": 44.19187499998952,
      "v": 102
    },
    {
      "midi": 67,
      "hit": false,
      "t": 134545.32000000103,
      "d": 50.50499999997555,
      "v": 92
    },
    {
      "midi": 74,
      "hit": false,
      "t": 134545.32000000103,
      "d": 50.50499999997555,
      "v": 92
    },
    {
      "midi": 70,
      "hit": false,
      "t": 134545.32000000103,
      "d": 56.81812499996158,
      "v": 92
    },
    {
      "midi": 69,
      "hit": false,
      "t": 134848.350000001,
      "d": 50.50500000000466,
      "v": 95
    },
    {
      "midi": 74,
      "hit": false,
      "t": 134848.350000001,
      "d": 50.50500000000466,
      "v": 88
    },
    {
      "midi": 67,
      "hit": false,
      "t": 134848.350000001,
      "d": 69.44437499999185,
      "v": 85
    },
    {
      "midi": 70,
      "hit": false,
      "t": 134848.350000001,
      "d": 69.44437499999185,
      "v": 79
    },
    {
      "midi": 69,
      "hit": false,
      "t": 135151.380000001,
      "d": 44.19187499998952,
      "v": 95
    },
    {
      "midi": 70,
      "hit": false,
      "t": 135151.380000001,
      "d": 44.19187499998952,
      "v": 83
    },
    {
      "midi": 74,
      "hit": false,
      "t": 135151.380000001,
      "d": 44.19187499998952,
      "v": 88
    },
    {
      "midi": 67,
      "hit": false,
      "t": 135151.380000001,
      "d": 50.50499999997555,
      "v": 86
    },
    {
      "midi": 67,
      "hit": false,
      "t": 135454.41000000096,
      "d": 50.50500000000466,
      "v": 95
    },
    {
      "midi": 69,
      "hit": false,
      "t": 135454.41000000096,
      "d": 50.50500000000466,
      "v": 104
    },
    {
      "midi": 70,
      "hit": false,
      "t": 135454.41000000096,
      "d": 50.50500000000466,
      "v": 95
    },
    {
      "midi": 74,
      "hit": false,
      "t": 135454.41000000096,
      "d": 69.44437499999185,
      "v": 88
    },
    {
      "midi": 69,
      "hit": false,
      "t": 135757.44000000096,
      "d": 44.19187499998952,
      "v": 100
    },
    {
      "midi": 74,
      "hit": false,
      "t": 135757.44000000096,
      "d": 44.19187499998952,
      "v": 85
    },
    {
      "midi": 67,
      "hit": false,
      "t": 135757.44000000096,
      "d": 69.44437499999185,
      "v": 94
    },
    {
      "midi": 70,
      "hit": false,
      "t": 135757.44000000096,
      "d": 69.44437499999185,
      "v": 95
    },
    {
      "midi": 74,
      "hit": false,
      "t": 136060.47000000096,
      "d": 25.25250000000233,
      "v": 83
    },
    {
      "midi": 69,
      "hit": false,
      "t": 136060.47000000096,
      "d": 44.19187499998952,
      "v": 92
    },
    {
      "midi": 67,
      "hit": false,
      "t": 136060.47000000096,
      "d": 69.44437499999185,
      "v": 94
    },
    {
      "midi": 70,
      "hit": false,
      "t": 136060.47000000096,
      "d": 69.44437499999185,
      "v": 94
    },
    {
      "midi": 69,
      "hit": false,
      "t": 136363.50000000096,
      "d": 44.19187499998952,
      "v": 74
    },
    {
      "midi": 66,
      "hit": false,
      "t": 136363.50000000096,
      "d": 50.50499999997555,
      "v": 102
    },
    {
      "midi": 62,
      "hit": false,
      "t": 136363.50000000096,
      "d": 56.81812499996158,
      "v": 99
    },
    {
      "midi": 72,
      "hit": false,
      "t": 136363.50000000096,
      "d": 69.44437499996275,
      "v": 97
    },
    {
      "midi": 69,
      "hit": false,
      "t": 136666.53000000093,
      "d": 25.25250000000233,
      "v": 67
    },
    {
      "midi": 62,
      "hit": false,
      "t": 136666.53000000093,
      "d": 50.50500000000466,
      "v": 83
    },
    {
      "midi": 66,
      "hit": false,
      "t": 136666.53000000093,
      "d": 50.50500000000466,
      "v": 88
    },
    {
      "midi": 72,
      "hit": false,
      "t": 136666.53000000093,
      "d": 69.44437499999185,
      "v": 85
    },
    {
      "midi": 69,
      "hit": false,
      "t": 136969.56000000093,
      "d": 25.25250000000233,
      "v": 67
    },
    {
      "midi": 72,
      "hit": false,
      "t": 136969.56000000093,
      "d": 44.19187499998952,
      "v": 74
    },
    {
      "midi": 62,
      "hit": false,
      "t": 136969.56000000093,
      "d": 69.44437499999185,
      "v": 92
    },
    {
      "midi": 66,
      "hit": false,
      "t": 136969.56000000093,
      "d": 69.44437499999185,
      "v": 92
    },
    {
      "midi": 62,
      "hit": false,
      "t": 137272.59000000093,
      "d": 44.19187499998952,
      "v": 94
    },
    {
      "midi": 66,
      "hit": false,
      "t": 137272.59000000093,
      "d": 44.19187499998952,
      "v": 99
    },
    {
      "midi": 72,
      "hit": false,
      "t": 137272.59000000093,
      "d": 44.19187499998952,
      "v": 88
    },
    {
      "midi": 69,
      "hit": false,
      "t": 137272.59000000093,
      "d": 50.50499999997555,
      "v": 79
    },
    {
      "midi": 62,
      "hit": false,
      "t": 137575.6200000009,
      "d": 44.19187499998952,
      "v": 92
    },
    {
      "midi": 66,
      "hit": false,
      "t": 137575.6200000009,
      "d": 44.19187499998952,
      "v": 95
    },
    {
      "midi": 69,
      "hit": false,
      "t": 137575.6200000009,
      "d": 44.19187499998952,
      "v": 71
    },
    {
      "midi": 72,
      "hit": false,
      "t": 137575.6200000009,
      "d": 44.19187499998952,
      "v": 78
    },
    {
      "midi": 69,
      "hit": false,
      "t": 137878.6500000009,
      "d": 25.25250000000233,
      "v": 72
    },
    {
      "midi": 66,
      "hit": false,
      "t": 137878.6500000009,
      "d": 44.19187499998952,
      "v": 95
    },
    {
      "midi": 72,
      "hit": false,
      "t": 137878.6500000009,
      "d": 44.19187499998952,
      "v": 81
    },
    {
      "midi": 62,
      "hit": false,
      "t": 137878.6500000009,
      "d": 50.50499999997555,
      "v": 88
    },
    {
      "midi": 62,
      "hit": false,
      "t": 138181.68000000087,
      "d": 31.56562499998836,
      "v": 102
    },
    {
      "midi": 69,
      "hit": false,
      "t": 138181.68000000087,
      "d": 31.56562499998836,
      "v": 78
    },
    {
      "midi": 72,
      "hit": false,
      "t": 138181.68000000087,
      "d": 31.56562499998836,
      "v": 92
    },
    {
      "midi": 66,
      "hit": false,
      "t": 138181.68000000087,
      "d": 44.19187499998952,
      "v": 104
    },
    {
      "midi": 66,
      "hit": false,
      "t": 138484.71000000086,
      "d": 50.50500000000466,
      "v": 95
    },
    {
      "midi": 69,
      "hit": false,
      "t": 138484.71000000086,
      "d": 50.50500000000466,
      "v": 74
    },
    {
      "midi": 72,
      "hit": false,
      "t": 138484.71000000086,
      "d": 50.50500000000466,
      "v": 86
    },
    {
      "midi": 62,
      "hit": false,
      "t": 138484.71000000086,
      "d": 69.44437499999185,
      "v": 92
    },
    {
      "midi": 69,
      "hit": false,
      "t": 138787.74000000086,
      "d": 25.25250000000233,
      "v": 76
    },
    {
      "midi": 72,
      "hit": false,
      "t": 138787.74000000086,
      "d": 25.25250000000233,
      "v": 86
    },
    {
      "midi": 62,
      "hit": false,
      "t": 138787.74000000086,
      "d": 50.50500000000466,
      "v": 97
    },
    {
      "midi": 66,
      "hit": false,
      "t": 138787.74000000086,
      "d": 69.44437499999185,
      "v": 102
    },
    {
      "midi": 72,
      "hit": false,
      "t": 139090.77000000086,
      "d": 44.19187499998952,
      "v": 92
    },
    {
      "midi": 62,
      "hit": false,
      "t": 139090.77000000086,
      "d": 50.50499999997555,
      "v": 100
    },
    {
      "midi": 66,
      "hit": false,
      "t": 139090.77000000086,
      "d": 50.50499999997555,
      "v": 104
    },
    {
      "midi": 69,
      "hit": false,
      "t": 139090.77000000086,
      "d": 50.50499999997555,
      "v": 83
    },
    {
      "midi": 62,
      "hit": false,
      "t": 139393.80000000083,
      "d": 44.19187499998952,
      "v": 95
    },
    {
      "midi": 66,
      "hit": false,
      "t": 139393.80000000083,
      "d": 44.19187499998952,
      "v": 102
    },
    {
      "midi": 69,
      "hit": false,
      "t": 139393.80000000083,
      "d": 44.19187499998952,
      "v": 76
    },
    {
      "midi": 72,
      "hit": false,
      "t": 139393.80000000083,
      "d": 44.19187499998952,
      "v": 85
    },
    {
      "midi": 66,
      "hit": false,
      "t": 139696.83000000083,
      "d": 25.25250000000233,
      "v": 102
    },
    {
      "midi": 72,
      "hit": false,
      "t": 139696.83000000083,
      "d": 25.25250000000233,
      "v": 88
    },
    {
      "midi": 62,
      "hit": false,
      "t": 139696.83000000083,
      "d": 44.19187499998952,
      "v": 100
    },
    {
      "midi": 69,
      "hit": false,
      "t": 139696.83000000083,
      "d": 44.19187499998952,
      "v": 76
    },
    {
      "midi": 43,
      "hit": false,
      "t": 139999.86000000083,
      "d": 631.3125,
      "v": 120
    },
    {
      "midi": 62,
      "hit": false,
      "t": 140302.89000000083,
      "d": 606.0599999999977,
      "v": 109
    },
    {
      "midi": 55,
      "hit": false,
      "t": 140302.89000000083,
      "d": 631.3125,
      "v": 111
    },
    {
      "midi": 59,
      "hit": false,
      "t": 140302.89000000083,
      "d": 650.2518749999872,
      "v": 118
    },
    {
      "midi": 43,
      "hit": false,
      "t": 140908.95000000083,
      "d": 328.28250000000116,
      "v": 106
    },
    {
      "midi": 59,
      "hit": false,
      "t": 141211.98000000083,
      "d": 675.5043749999895,
      "v": 116
    },
    {
      "midi": 55,
      "hit": false,
      "t": 141211.98000000083,
      "d": 681.8174999999756,
      "v": 102
    },
    {
      "midi": 62,
      "hit": false,
      "t": 141211.98000000083,
      "d": 681.8174999999756,
      "v": 102
    },
    {
      "midi": 43,
      "hit": false,
      "t": 141515.01000000082,
      "d": 18.939374999987194,
      "v": 72
    },
    {
      "midi": 43,
      "hit": false,
      "t": 141818.04000000082,
      "d": 624.9993749999558,
      "v": 118
    },
    {
      "midi": 53,
      "hit": false,
      "t": 142121.0700000008,
      "d": 675.5043749999895,
      "v": 106
    },
    {
      "midi": 59,
      "hit": false,
      "t": 142121.0700000008,
      "d": 675.5043749999895,
      "v": 113
    },
    {
      "midi": 62,
      "hit": false,
      "t": 142121.0700000008,
      "d": 681.8174999999756,
      "v": 106
    },
    {
      "midi": 43,
      "hit": false,
      "t": 142727.1300000008,
      "d": 303.02999999996973,
      "v": 116
    },
    {
      "midi": 59,
      "hit": false,
      "t": 143030.16000000076,
      "d": 303.02999999999884,
      "v": 113
    },
    {
      "midi": 53,
      "hit": false,
      "t": 143030.16000000076,
      "d": 328.28250000000116,
      "v": 102
    },
    {
      "midi": 62,
      "hit": false,
      "t": 143030.16000000076,
      "d": 328.28250000000116,
      "v": 102
    },
    {
      "midi": 43,
      "hit": false,
      "t": 143333.19000000076,
      "d": 252.52499999999418,
      "v": 106
    },
    {
      "midi": 36,
      "hit": false,
      "t": 143636.22000000076,
      "d": 757.5750000000116,
      "v": 97
    },
    {
      "midi": 55,
      "hit": false,
      "t": 143939.25000000076,
      "d": 675.5043750000186,
      "v": 88
    },
    {
      "midi": 63,
      "hit": false,
      "t": 143939.25000000076,
      "d": 675.5043750000186,
      "v": 100
    },
    {
      "midi": 60,
      "hit": false,
      "t": 143939.25000000076,
      "d": 700.756875000021,
      "v": 111
    },
    {
      "midi": 36,
      "hit": false,
      "t": 144545.31000000078,
      "d": 378.7875000000058,
      "v": 97
    },
    {
      "midi": 55,
      "hit": false,
      "t": 144848.34000000078,
      "d": 681.8175000000047,
      "v": 100
    },
    {
      "midi": 63,
      "hit": false,
      "t": 144848.34000000078,
      "d": 681.8175000000047,
      "v": 106
    },
    {
      "midi": 60,
      "hit": false,
      "t": 144848.34000000078,
      "d": 700.7568749999919,
      "v": 111
    },
    {
      "midi": 36,
      "hit": false,
      "t": 145151.37000000078,
      "d": 18.939374999987194,
      "v": 67
    },
    {
      "midi": 36,
      "hit": false,
      "t": 145454.40000000078,
      "d": 700.7568749999919,
      "v": 102
    },
    {
      "midi": 55,
      "hit": false,
      "t": 145757.43000000078,
      "d": 523.9893750000047,
      "v": 100
    },
    {
      "midi": 63,
      "hit": false,
      "t": 145757.43000000078,
      "d": 530.3024999999907,
      "v": 111
    },
    {
      "midi": 60,
      "hit": false,
      "t": 145757.43000000078,
      "d": 549.2418749999779,
      "v": 113
    },
    {
      "midi": 36,
      "hit": false,
      "t": 146363.49000000075,
      "d": 429.2925000000105,
      "v": 86
    },
    {
      "midi": 55,
      "hit": false,
      "t": 146666.52000000075,
      "d": 422.97937499999534,
      "v": 100
    },
    {
      "midi": 60,
      "hit": false,
      "t": 146666.52000000075,
      "d": 422.97937499999534,
      "v": 113
    },
    {
      "midi": 63,
      "hit": false,
      "t": 146666.52000000075,
      "d": 422.97937499999534,
      "v": 111
    },
    {
      "midi": 36,
      "hit": false,
      "t": 146969.55000000075,
      "d": 296.7168749999837,
      "v": 97
    },
    {
      "midi": 69,
      "hit": false,
      "t": 147272.58000000071,
      "d": 44.19187499998952,
      "v": 111
    },
    {
      "midi": 67,
      "hit": false,
      "t": 147272.58000000071,
      "d": 56.81812499999069,
      "v": 106
    },
    {
      "midi": 74,
      "hit": false,
      "t": 147272.58000000071,
      "d": 56.81812499999069,
      "v": 104
    },
    {
      "midi": 70,
      "hit": false,
      "t": 147272.58000000071,
      "d": 69.44437499999185,
      "v": 109
    },
    {
      "midi": 70,
      "hit": false,
      "t": 147575.6100000007,
      "d": 25.25250000000233,
      "v": 92
    },
    {
      "midi": 74,
      "hit": false,
      "t": 147575.6100000007,
      "d": 25.25250000000233,
      "v": 88
    },
    {
      "midi": 69,
      "hit": false,
      "t": 147575.6100000007,
      "d": 44.19187499998952,
      "v": 104
    },
    {
      "midi": 67,
      "hit": false,
      "t": 147575.6100000007,
      "d": 50.50499999997555,
      "v": 95
    },
    {
      "midi": 74,
      "hit": false,
      "t": 147878.64000000068,
      "d": 25.25250000000233,
      "v": 97
    },
    {
      "midi": 69,
      "hit": false,
      "t": 147878.64000000068,
      "d": 44.19187499998952,
      "v": 109
    },
    {
      "midi": 67,
      "hit": false,
      "t": 147878.64000000068,
      "d": 69.44437499999185,
      "v": 102
    },
    {
      "midi": 70,
      "hit": false,
      "t": 147878.64000000068,
      "d": 69.44437499999185,
      "v": 104
    },
    {
      "midi": 74,
      "hit": false,
      "t": 148181.67000000068,
      "d": 44.19187499998952,
      "v": 99
    },
    {
      "midi": 67,
      "hit": false,
      "t": 148181.67000000068,
      "d": 50.50499999997555,
      "v": 104
    },
    {
      "midi": 69,
      "hit": false,
      "t": 148181.67000000068,
      "d": 50.50499999997555,
      "v": 113
    },
    {
      "midi": 70,
      "hit": false,
      "t": 148181.67000000068,
      "d": 69.44437499996275,
      "v": 111
    },
    {
      "midi": 74,
      "hit": false,
      "t": 148484.70000000065,
      "d": 44.19187499998952,
      "v": 95
    },
    {
      "midi": 67,
      "hit": false,
      "t": 148484.70000000065,
      "d": 50.50499999997555,
      "v": 102
    },
    {
      "midi": 69,
      "hit": false,
      "t": 148484.70000000065,
      "d": 69.44437499996275,
      "v": 109
    },
    {
      "midi": 70,
      "hit": false,
      "t": 148484.70000000065,
      "d": 69.44437499996275,
      "v": 106
    },
    {
      "midi": 74,
      "hit": false,
      "t": 148787.73000000062,
      "d": 25.25250000000233,
      "v": 88
    },
    {
      "midi": 67,
      "hit": false,
      "t": 148787.73000000062,
      "d": 50.50500000000466,
      "v": 97
    },
    {
      "midi": 69,
      "hit": false,
      "t": 148787.73000000062,
      "d": 50.50500000000466,
      "v": 100
    },
    {
      "midi": 70,
      "hit": false,
      "t": 148787.73000000062,
      "d": 50.50500000000466,
      "v": 102
    },
    {
      "midi": 62,
      "hit": false,
      "t": 149090.76000000062,
      "d": 44.19187499998952,
      "v": 106
    },
    {
      "midi": 69,
      "hit": false,
      "t": 149090.76000000062,
      "d": 44.19187499998952,
      "v": 97
    },
    {
      "midi": 66,
      "hit": false,
      "t": 149090.76000000062,
      "d": 69.44437499999185,
      "v": 109
    },
    {
      "midi": 72,
      "hit": false,
      "t": 149090.76000000062,
      "d": 69.44437499999185,
      "v": 104
    },
    {
      "midi": 62,
      "hit": false,
      "t": 149393.79000000062,
      "d": 44.19187499998952,
      "v": 92
    },
    {
      "midi": 69,
      "hit": false,
      "t": 149393.79000000062,
      "d": 44.19187499998952,
      "v": 78
    },
    {
      "midi": 72,
      "hit": false,
      "t": 149393.79000000062,
      "d": 44.19187499998952,
      "v": 86
    },
    {
      "midi": 66,
      "hit": false,
      "t": 149393.79000000062,
      "d": 69.44437499999185,
      "v": 100
    },
    {
      "midi": 62,
      "hit": false,
      "t": 149696.82000000062,
      "d": 44.19187499998952,
      "v": 88
    },
    {
      "midi": 69,
      "hit": false,
      "t": 149696.82000000062,
      "d": 44.19187499998952,
      "v": 79
    },
    {
      "midi": 72,
      "hit": false,
      "t": 149696.82000000062,
      "d": 44.19187499998952,
      "v": 85
    },
    {
      "midi": 66,
      "hit": false,
      "t": 149696.82000000062,
      "d": 50.50499999997555,
      "v": 104
    },
    {
      "midi": 62,
      "hit": false,
      "t": 149999.8500000006,
      "d": 50.50500000000466,
      "v": 102
    },
    {
      "midi": 69,
      "hit": false,
      "t": 149999.8500000006,
      "d": 50.50500000000466,
      "v": 95
    },
    {
      "midi": 66,
      "hit": false,
      "t": 149999.8500000006,
      "d": 69.44437499999185,
      "v": 106
    },
    {
      "midi": 72,
      "hit": false,
      "t": 149999.8500000006,
      "d": 69.44437499999185,
      "v": 100
    },
    {
      "midi": 69,
      "hit": false,
      "t": 150302.8800000006,
      "d": 44.19187499998952,
      "v": 85
    },
    {
      "midi": 72,
      "hit": false,
      "t": 150302.8800000006,
      "d": 44.19187499998952,
      "v": 92
    },
    {
      "midi": 62,
      "hit": false,
      "t": 150302.8800000006,
      "d": 50.50499999997555,
      "v": 92
    },
    {
      "midi": 66,
      "hit": false,
      "t": 150302.8800000006,
      "d": 69.44437499996275,
      "v": 102
    },
    {
      "midi": 66,
      "hit": false,
      "t": 150605.91000000056,
      "d": 25.25250000000233,
      "v": 92
    },
    {
      "midi": 72,
      "hit": false,
      "t": 150605.91000000056,
      "d": 25.25250000000233,
      "v": 88
    },
    {
      "midi": 62,
      "hit": false,
      "t": 150605.91000000056,
      "d": 44.19187499998952,
      "v": 92
    },
    {
      "midi": 69,
      "hit": false,
      "t": 150605.91000000056,
      "d": 44.19187499998952,
      "v": 79
    },
    {
      "midi": 70,
      "hit": false,
      "t": 150908.94000000056,
      "d": 31.56562499998836,
      "v": 95
    },
    {
      "midi": 74,
      "hit": false,
      "t": 150908.94000000056,
      "d": 44.19187499998952,
      "v": 104
    },
    {
      "midi": 69,
      "hit": false,
      "t": 150908.94000000056,
      "d": 56.81812499999069,
      "v": 111
    },
    {
      "midi": 67,
      "hit": false,
      "t": 150908.94000000056,
      "d": 69.44437499999185,
      "v": 104
    },
    {
      "midi": 69,
      "hit": false,
      "t": 151211.97000000055,
      "d": 44.19187499998952,
      "v": 99
    },
    {
      "midi": 74,
      "hit": false,
      "t": 151211.97000000055,
      "d": 44.19187499998952,
      "v": 86
    },
    {
      "midi": 70,
      "hit": false,
      "t": 151211.97000000055,
      "d": 50.50499999997555,
      "v": 94
    },
    {
      "midi": 67,
      "hit": false,
      "t": 151211.97000000055,
      "d": 69.44437499996275,
      "v": 94
    },
    {
      "midi": 69,
      "hit": false,
      "t": 151515.00000000052,
      "d": 44.19187499998952,
      "v": 102
    },
    {
      "midi": 74,
      "hit": false,
      "t": 151515.00000000052,
      "d": 44.19187499998952,
      "v": 94
    },
    {
      "midi": 70,
      "hit": false,
      "t": 151515.00000000052,
      "d": 50.50499999997555,
      "v": 97
    },
    {
      "midi": 67,
      "hit": false,
      "t": 151515.00000000052,
      "d": 69.44437499996275,
      "v": 100
    },
    {
      "midi": 69,
      "hit": false,
      "t": 151818.0300000005,
      "d": 44.19187499998952,
      "v": 106
    },
    {
      "midi": 74,
      "hit": false,
      "t": 151818.0300000005,
      "d": 44.19187499998952,
      "v": 99
    },
    {
      "midi": 67,
      "hit": false,
      "t": 151818.0300000005,
      "d": 50.50499999997555,
      "v": 94
    },
    {
      "midi": 70,
      "hit": false,
      "t": 151818.0300000005,
      "d": 50.50499999997555,
      "v": 104
    },
    {
      "midi": 74,
      "hit": false,
      "t": 152121.06000000046,
      "d": 25.25250000000233,
      "v": 88
    },
    {
      "midi": 67,
      "hit": false,
      "t": 152121.06000000046,
      "d": 69.44437499999185,
      "v": 94
    },
    {
      "midi": 69,
      "hit": false,
      "t": 152121.06000000046,
      "d": 69.44437499999185,
      "v": 102
    },
    {
      "midi": 70,
      "hit": false,
      "t": 152121.06000000046,
      "d": 69.44437499999185,
      "v": 102
    },
    {
      "midi": 69,
      "hit": false,
      "t": 152424.09000000046,
      "d": 25.25250000000233,
      "v": 86
    },
    {
      "midi": 74,
      "hit": false,
      "t": 152424.09000000046,
      "d": 25.25250000000233,
      "v": 92
    },
    {
      "midi": 67,
      "hit": false,
      "t": 152424.09000000046,
      "d": 69.44437499999185,
      "v": 94
    },
    {
      "midi": 70,
      "hit": false,
      "t": 152424.09000000046,
      "d": 69.44437499999185,
      "v": 99
    },
    {
      "midi": 60,
      "hit": false,
      "t": 152727.12000000046,
      "d": 44.19187499998952,
      "v": 104
    },
    {
      "midi": 65,
      "hit": false,
      "t": 152727.12000000046,
      "d": 44.19187499998952,
      "v": 81
    },
    {
      "midi": 63,
      "hit": false,
      "t": 152727.12000000046,
      "d": 50.50499999997555,
      "v": 106
    },
    {
      "midi": 69,
      "hit": false,
      "t": 152727.12000000046,
      "d": 50.50499999997555,
      "v": 100
    },
    {
      "midi": 60,
      "hit": false,
      "t": 153030.15000000043,
      "d": 44.19187499998952,
      "v": 100
    },
    {
      "midi": 65,
      "hit": false,
      "t": 153030.15000000043,
      "d": 44.19187499998952,
      "v": 94
    },
    {
      "midi": 69,
      "hit": false,
      "t": 153030.15000000043,
      "d": 50.50499999997555,
      "v": 100
    },
    {
      "midi": 63,
      "hit": false,
      "t": 153030.15000000043,
      "d": 69.44437499996275,
      "v": 106
    },
    {
      "midi": 63,
      "hit": false,
      "t": 153333.1800000004,
      "d": 44.19187499998952,
      "v": 109
    },
    {
      "midi": 69,
      "hit": false,
      "t": 153333.1800000004,
      "d": 44.19187499998952,
      "v": 102
    },
    {
      "midi": 60,
      "hit": false,
      "t": 153333.1800000004,
      "d": 50.50499999997555,
      "v": 102
    },
    {
      "midi": 65,
      "hit": false,
      "t": 153333.1800000004,
      "d": 50.50499999997555,
      "v": 100
    },
    {
      "midi": 69,
      "hit": false,
      "t": 153636.21000000037,
      "d": 69.44437499999185,
      "v": 106
    },
    {
      "midi": 60,
      "hit": false,
      "t": 153636.21000000037,
      "d": 75.75749999997788,
      "v": 109
    },
    {
      "midi": 63,
      "hit": false,
      "t": 153636.21000000037,
      "d": 75.75749999997788,
      "v": 111
    },
    {
      "midi": 65,
      "hit": false,
      "t": 153636.21000000037,
      "d": 75.75749999997788,
      "v": 104
    },
    {
      "midi": 60,
      "hit": false,
      "t": 153939.24000000034,
      "d": 44.19187499998952,
      "v": 106
    },
    {
      "midi": 65,
      "hit": false,
      "t": 153939.24000000034,
      "d": 50.50499999997555,
      "v": 95
    },
    {
      "midi": 63,
      "hit": false,
      "t": 153939.24000000034,
      "d": 69.44437499996275,
      "v": 106
    },
    {
      "midi": 69,
      "hit": false,
      "t": 153939.24000000034,
      "d": 69.44437499996275,
      "v": 99
    },
    {
      "midi": 60,
      "hit": false,
      "t": 154242.2700000003,
      "d": 44.19187499998952,
      "v": 102
    },
    {
      "midi": 65,
      "hit": false,
      "t": 154242.2700000003,
      "d": 44.19187499998952,
      "v": 86
    },
    {
      "midi": 63,
      "hit": false,
      "t": 154242.2700000003,
      "d": 50.50499999997555,
      "v": 104
    },
    {
      "midi": 69,
      "hit": false,
      "t": 154242.2700000003,
      "d": 69.44437499996275,
      "v": 100
    },
    {
      "midi": 46,
      "hit": false,
      "t": 154545.30000000028,
      "d": 656.5650000000023,
      "v": 106
    },
    {
      "midi": 58,
      "hit": false,
      "t": 154848.33000000028,
      "d": 549.241875000007,
      "v": 111
    },
    {
      "midi": 62,
      "hit": false,
      "t": 154848.33000000028,
      "d": 549.241875000007,
      "v": 100
    },
    {
      "midi": 53,
      "hit": false,
      "t": 154848.33000000028,
      "d": 555.554999999993,
      "v": 106
    },
    {
      "midi": 46,
      "hit": false,
      "t": 155454.39000000028,
      "d": 252.52499999999418,
      "v": 92
    },
    {
      "midi": 62,
      "hit": false,
      "t": 155757.42000000027,
      "d": 479.79749999998603,
      "v": 94
    },
    {
      "midi": 58,
      "hit": false,
      "t": 155757.42000000027,
      "d": 498.7368749999732,
      "v": 109
    },
    {
      "midi": 53,
      "hit": false,
      "t": 155757.42000000027,
      "d": 574.4943749999802,
      "v": 104
    },
    {
      "midi": 46,
      "hit": false,
      "t": 156363.48000000024,
      "d": 321.96937499998603,
      "v": 104
    },
    {
      "midi": 62,
      "hit": false,
      "t": 156666.51000000024,
      "d": 530.3024999999907,
      "v": 79
    },
    {
      "midi": 58,
      "hit": false,
      "t": 156666.51000000024,
      "d": 599.7468749999825,
      "v": 106
    },
    {
      "midi": 53,
      "hit": false,
      "t": 156666.51000000024,
      "d": 606.0599999999686,
      "v": 95
    },
    {
      "midi": 46,
      "hit": false,
      "t": 157272.5700000002,
      "d": 277.7774999999965,
      "v": 104
    },
    {
      "midi": 58,
      "hit": false,
      "t": 157575.6000000002,
      "d": 328.28250000000116,
      "v": 106
    },
    {
      "midi": 62,
      "hit": false,
      "t": 157575.6000000002,
      "d": 353.5350000000035,
      "v": 92
    },
    {
      "midi": 53,
      "hit": false,
      "t": 157575.6000000002,
      "d": 378.7875000000058,
      "v": 97
    },
    {
      "midi": 46,
      "hit": false,
      "t": 157878.6300000002,
      "d": 328.28250000000116,
      "v": 102
    },
    {
      "midi": 41,
      "hit": false,
      "t": 158181.6600000002,
      "d": 328.28250000000116,
      "v": 102
    },
    {
      "midi": 63,
      "hit": false,
      "t": 158484.6900000002,
      "d": 599.7468750000116,
      "v": 97
    },
    {
      "midi": 57,
      "hit": false,
      "t": 158484.6900000002,
      "d": 606.0599999999977,
      "v": 99
    },
    {
      "midi": 65,
      "hit": false,
      "t": 158484.6900000002,
      "d": 606.0599999999977,
      "v": 92
    },
    {
      "midi": 60,
      "hit": false,
      "t": 158484.6900000002,
      "d": 624.9993749999849,
      "v": 104
    },
    {
      "midi": 41,
      "hit": false,
      "t": 159090.7500000002,
      "d": 246.21187499997905,
      "v": 94
    },
    {
      "midi": 60,
      "hit": false,
      "t": 159393.78000000017,
      "d": 69.44437499999185,
      "v": 104
    },
    {
      "midi": 63,
      "hit": false,
      "t": 159393.78000000017,
      "d": 69.44437499999185,
      "v": 94
    },
    {
      "midi": 65,
      "hit": false,
      "t": 159393.78000000017,
      "d": 75.75749999997788,
      "v": 85
    },
    {
      "midi": 57,
      "hit": false,
      "t": 159393.78000000017,
      "d": 94.69687499996508,
      "v": 95
    },
    {
      "midi": 63,
      "hit": false,
      "t": 159696.81000000014,
      "d": 404.04000000000815,
      "v": 88
    },
    {
      "midi": 65,
      "hit": false,
      "t": 159696.81000000014,
      "d": 404.04000000000815,
      "v": 72
    },
    {
      "midi": 57,
      "hit": false,
      "t": 159696.81000000014,
      "d": 422.97937499999534,
      "v": 74
    },
    {
      "midi": 60,
      "hit": false,
      "t": 159696.81000000014,
      "d": 422.97937499999534,
      "v": 97
    },
    {
      "midi": 41,
      "hit": false,
      "t": 159999.84000000014,
      "d": 587.1206250000105,
      "v": 111
    },
    {
      "midi": 65,
      "hit": false,
      "t": 160302.87000000014,
      "d": 404.04000000000815,
      "v": 95
    },
    {
      "midi": 57,
      "hit": false,
      "t": 160302.87000000014,
      "d": 422.97937499999534,
      "v": 100
    },
    {
      "midi": 60,
      "hit": false,
      "t": 160302.87000000014,
      "d": 422.97937499999534,
      "v": 106
    },
    {
      "midi": 63,
      "hit": false,
      "t": 160302.87000000014,
      "d": 422.97937499999534,
      "v": 102
    },
    {
      "midi": 41,
      "hit": false,
      "t": 160908.93000000014,
      "d": 397.7268749999639,
      "v": 106
    },
    {
      "midi": 60,
      "hit": false,
      "t": 161211.96000000014,
      "d": 18.939374999987194,
      "v": 109
    },
    {
      "midi": 57,
      "hit": false,
      "t": 161211.96000000014,
      "d": 25.252499999973224,
      "v": 100
    },
    {
      "midi": 63,
      "hit": false,
      "t": 161211.96000000014,
      "d": 25.252499999973224,
      "v": 95
    },
    {
      "midi": 65,
      "hit": false,
      "t": 161211.96000000014,
      "d": 44.19187499996042,
      "v": 92
    },
    {
      "midi": 63,
      "hit": false,
      "t": 161514.9900000001,
      "d": 353.5350000000035,
      "v": 104
    },
    {
      "midi": 65,
      "hit": false,
      "t": 161514.9900000001,
      "d": 353.5350000000035,
      "v": 78
    },
    {
      "midi": 60,
      "hit": false,
      "t": 161514.9900000001,
      "d": 372.4743749999907,
      "v": 116
    },
    {
      "midi": 57,
      "hit": false,
      "t": 161514.9900000001,
      "d": 378.7874999999767,
      "v": 104
    },
    {
      "midi": 41,
      "hit": false,
      "t": 161818.0200000001,
      "d": 624.9993749999558,
      "v": 118
    },
    {
      "midi": 65,
      "hit": false,
      "t": 162121.05000000008,
      "d": 599.7468749999825,
      "v": 99
    },
    {
      "midi": 57,
      "hit": false,
      "t": 162121.05000000008,
      "d": 624.9993749999558,
      "v": 100
    },
    {
      "midi": 60,
      "hit": false,
      "t": 162121.05000000008,
      "d": 624.9993749999558,
      "v": 109
    },
    {
      "midi": 63,
      "hit": false,
      "t": 162121.05000000008,
      "d": 624.9993749999558,
      "v": 102
    },
    {
      "midi": 41,
      "hit": false,
      "t": 162727.11000000004,
      "d": 246.21187499997905,
      "v": 102
    },
    {
      "midi": 60,
      "hit": false,
      "t": 163030.14,
      "d": 18.939374999987194,
      "v": 104
    },
    {
      "midi": 57,
      "hit": false,
      "t": 163030.14,
      "d": 25.252499999973224,
      "v": 95
    },
    {
      "midi": 63,
      "hit": false,
      "t": 163030.14,
      "d": 25.252499999973224,
      "v": 72
    },
    {
      "midi": 60,
      "hit": false,
      "t": 163333.16999999998,
      "d": 372.4743749999907,
      "v": 111
    },
    {
      "midi": 63,
      "hit": false,
      "t": 163333.16999999998,
      "d": 372.4743749999907,
      "v": 95
    },
    {
      "midi": 65,
      "hit": false,
      "t": 163333.16999999998,
      "d": 372.4743749999907,
      "v": 92
    },
    {
      "midi": 57,
      "hit": false,
      "t": 163333.16999999998,
      "d": 378.7874999999767,
      "v": 95
    },
    {
      "midi": 41,
      "hit": false,
      "t": 163636.19999999998,
      "d": 321.9693749999569,
      "v": 116
    },
    {
      "midi": 63,
      "hit": false,
      "t": 163939.22999999995,
      "d": 555.554999999993,
      "v": 100
    },
    {
      "midi": 57,
      "hit": false,
      "t": 163939.22999999995,
      "d": 580.8074999999953,
      "v": 102
    },
    {
      "midi": 60,
      "hit": false,
      "t": 163939.22999999995,
      "d": 580.8074999999953,
      "v": 109
    },
    {
      "midi": 65,
      "hit": false,
      "t": 163939.22999999995,
      "d": 580.8074999999953,
      "v": 95
    },
    {
      "midi": 41,
      "hit": false,
      "t": 164545.28999999995,
      "d": 277.7774999999965,
      "v": 113
    },
    {
      "midi": 60,
      "hit": false,
      "t": 164848.31999999995,
      "d": 347.22187499998836,
      "v": 106
    },
    {
      "midi": 63,
      "hit": false,
      "t": 164848.31999999995,
      "d": 347.22187499998836,
      "v": 94
    },
    {
      "midi": 65,
      "hit": false,
      "t": 164848.31999999995,
      "d": 347.22187499998836,
      "v": 95
    },
    {
      "midi": 57,
      "hit": false,
      "t": 164848.31999999995,
      "d": 372.4743749999907,
      "v": 95
    },
    {
      "midi": 41,
      "hit": false,
      "t": 165151.34999999995,
      "d": 252.52499999999418,
      "v": 100
    },
    {
      "midi": 46,
      "hit": false,
      "t": 165454.37999999995,
      "d": 675.5043749999895,
      "v": 102
    },
    {
      "midi": 62,
      "hit": false,
      "t": 165757.40999999995,
      "d": 580.8074999999953,
      "v": 97
    },
    {
      "midi": 58,
      "hit": false,
      "t": 165757.40999999995,
      "d": 599.7468749999825,
      "v": 102
    },
    {
      "midi": 53,
      "hit": false,
      "t": 165757.40999999995,
      "d": 606.0599999999686,
      "v": 97
    },
    {
      "midi": 46,
      "hit": false,
      "t": 166363.4699999999,
      "d": 227.27249999999185,
      "v": 106
    },
    {
      "midi": 58,
      "hit": false,
      "t": 166666.4999999999,
      "d": 25.25250000000233,
      "v": 65
    },
    {
      "midi": 53,
      "hit": false,
      "t": 166666.4999999999,
      "d": 44.19187499998952,
      "v": 95
    },
    {
      "midi": 58,
      "hit": false,
      "t": 166969.5299999999,
      "d": 372.4743749999907,
      "v": 104
    },
    {
      "midi": 62,
      "hit": false,
      "t": 166969.5299999999,
      "d": 372.4743749999907,
      "v": 95
    },
    {
      "midi": 53,
      "hit": false,
      "t": 166969.5299999999,
      "d": 378.7874999999767,
      "v": 102
    },
    {
      "midi": 46,
      "hit": false,
      "t": 167272.5599999999,
      "d": 713.3831249999639,
      "v": 118
    },
    {
      "midi": 62,
      "hit": false,
      "t": 167575.58999999988,
      "d": 599.7468749999825,
      "v": 100
    },
    {
      "midi": 53,
      "hit": false,
      "t": 167575.58999999988,
      "d": 624.9993749999558,
      "v": 100
    },
    {
      "midi": 58,
      "hit": false,
      "t": 167575.58999999988,
      "d": 624.9993749999558,
      "v": 109
    },
    {
      "midi": 46,
      "hit": false,
      "t": 168181.64999999985,
      "d": 252.52499999999418,
      "v": 113
    },
    {
      "midi": 62,
      "hit": false,
      "t": 168484.67999999985,
      "d": 44.19187499998952,
      "v": 83
    },
    {
      "midi": 58,
      "hit": false,
      "t": 168484.67999999985,
      "d": 50.50499999997555,
      "v": 99
    },
    {
      "midi": 53,
      "hit": false,
      "t": 168484.67999999985,
      "d": 69.44437499996275,
      "v": 99
    },
    {
      "midi": 58,
      "hit": false,
      "t": 168787.70999999982,
      "d": 378.7875000000058,
      "v": 106
    },
    {
      "midi": 62,
      "hit": false,
      "t": 168787.70999999982,
      "d": 378.7875000000058,
      "v": 104
    },
    {
      "midi": 53,
      "hit": false,
      "t": 168787.70999999982,
      "d": 404.04000000000815,
      "v": 95
    },
    {
      "midi": 46,
      "hit": false,
      "t": 169090.73999999982,
      "d": 397.726874999993,
      "v": 113
    },
    {
      "midi": 62,
      "hit": false,
      "t": 169393.76999999981,
      "d": 624.9993749999849,
      "v": 95
    },
    {
      "midi": 53,
      "hit": false,
      "t": 169393.76999999981,
      "d": 656.5649999999732,
      "v": 97
    },
    {
      "midi": 58,
      "hit": false,
      "t": 169393.76999999981,
      "d": 656.5649999999732,
      "v": 102
    },
    {
      "midi": 46,
      "hit": false,
      "t": 169999.8299999998,
      "d": 277.7774999999674,
      "v": 104
    },
    {
      "midi": 58,
      "hit": false,
      "t": 170302.85999999978,
      "d": 101.01000000000931,
      "v": 97
    },
    {
      "midi": 62,
      "hit": false,
      "t": 170302.85999999978,
      "d": 101.01000000000931,
      "v": 85
    },
    {
      "midi": 53,
      "hit": false,
      "t": 170302.85999999978,
      "d": 145.20187499999884,
      "v": 85
    },
    {
      "midi": 58,
      "hit": false,
      "t": 170605.88999999978,
      "d": 378.7875000000058,
      "v": 111
    },
    {
      "midi": 62,
      "hit": false,
      "t": 170605.88999999978,
      "d": 397.726874999993,
      "v": 100
    },
    {
      "midi": 53,
      "hit": false,
      "t": 170605.88999999978,
      "d": 404.03999999997905,
      "v": 97
    },
    {
      "midi": 46,
      "hit": false,
      "t": 170908.91999999978,
      "d": 650.2518749999581,
      "v": 111
    },
    {
      "midi": 56,
      "hit": false,
      "t": 171211.94999999975,
      "d": 631.3125,
      "v": 109
    },
    {
      "midi": 58,
      "hit": false,
      "t": 171211.94999999975,
      "d": 631.3125,
      "v": 100
    },
    {
      "midi": 62,
      "hit": false,
      "t": 171211.94999999975,
      "d": 631.3125,
      "v": 94
    },
    {
      "midi": 53,
      "hit": false,
      "t": 171211.94999999975,
      "d": 681.8175000000047,
      "v": 97
    },
    {
      "midi": 46,
      "hit": false,
      "t": 171818.00999999975,
      "d": 252.52499999999418,
      "v": 100
    },
    {
      "midi": 56,
      "hit": false,
      "t": 172121.03999999975,
      "d": 404.04000000000815,
      "v": 104
    },
    {
      "midi": 58,
      "hit": false,
      "t": 172121.03999999975,
      "d": 422.97937499999534,
      "v": 100
    },
    {
      "midi": 53,
      "hit": false,
      "t": 172121.03999999975,
      "d": 429.2924999999814,
      "v": 95
    },
    {
      "midi": 62,
      "hit": false,
      "t": 172121.03999999975,
      "d": 429.2924999999814,
      "v": 97
    },
    {
      "midi": 46,
      "hit": false,
      "t": 172424.06999999975,
      "d": 271.4643749999814,
      "v": 104
    },
    {
      "midi": 39,
      "hit": false,
      "t": 172727.09999999971,
      "d": 574.4943750000093,
      "v": 113
    },
    {
      "midi": 55,
      "hit": false,
      "t": 173030.1299999997,
      "d": 574.4943750000093,
      "v": 100
    },
    {
      "midi": 58,
      "hit": false,
      "t": 173030.1299999997,
      "d": 580.8074999999953,
      "v": 113
    },
    {
      "midi": 63,
      "hit": false,
      "t": 173030.1299999997,
      "d": 606.0599999999977,
      "v": 104
    },
    {
      "midi": 39,
      "hit": false,
      "t": 173636.1899999997,
      "d": 303.02999999999884,
      "v": 111
    },
    {
      "midi": 58,
      "hit": false,
      "t": 173939.2199999997,
      "d": 303.02999999999884,
      "v": 106
    },
    {
      "midi": 63,
      "hit": false,
      "t": 173939.2199999997,
      "d": 321.96937499998603,
      "v": 100
    },
    {
      "midi": 55,
      "hit": false,
      "t": 173939.2199999997,
      "d": 328.28249999997206,
      "v": 92
    },
    {
      "midi": 39,
      "hit": false,
      "t": 174242.2499999997,
      "d": 277.7774999999674,
      "v": 109
    },
    {
      "midi": 36,
      "hit": false,
      "t": 174545.27999999968,
      "d": 372.4743749999907,
      "v": 106
    },
    {
      "midi": 55,
      "hit": false,
      "t": 174848.30999999968,
      "d": 624.9993749999849,
      "v": 100
    },
    {
      "midi": 60,
      "hit": false,
      "t": 174848.30999999968,
      "d": 624.9993749999849,
      "v": 94
    },
    {
      "midi": 58,
      "hit": false,
      "t": 174848.30999999968,
      "d": 631.3124999999709,
      "v": 100
    },
    {
      "midi": 64,
      "hit": false,
      "t": 174848.30999999968,
      "d": 650.2518749999581,
      "v": 92
    },
    {
      "midi": 36,
      "hit": false,
      "t": 175454.36999999968,
      "d": 277.7774999999674,
      "v": 111
    },
    {
      "midi": 55,
      "hit": false,
      "t": 175757.39999999964,
      "d": 631.3125,
      "v": 97
    },
    {
      "midi": 58,
      "hit": false,
      "t": 175757.39999999964,
      "d": 631.3125,
      "v": 100
    },
    {
      "midi": 60,
      "hit": false,
      "t": 175757.39999999964,
      "d": 631.3125,
      "v": 92
    },
    {
      "midi": 64,
      "hit": false,
      "t": 175757.39999999964,
      "d": 631.3125,
      "v": 95
    },
    {
      "midi": 46,
      "hit": false,
      "t": 176363.45999999964,
      "d": 359.8481249999895,
      "v": 91
    },
    {
      "midi": 58,
      "hit": false,
      "t": 176666.48999999964,
      "d": 650.2518749999872,
      "v": 100
    },
    {
      "midi": 53,
      "hit": false,
      "t": 176666.48999999964,
      "d": 675.5043749999895,
      "v": 95
    },
    {
      "midi": 62,
      "hit": false,
      "t": 176666.48999999964,
      "d": 675.5043749999895,
      "v": 99
    },
    {
      "midi": 46,
      "hit": false,
      "t": 177272.54999999964,
      "d": 271.4643749999814,
      "v": 106
    },
    {
      "midi": 58,
      "hit": false,
      "t": 177575.5799999996,
      "d": 296.7168750000128,
      "v": 102
    },
    {
      "midi": 53,
      "hit": false,
      "t": 177575.5799999996,
      "d": 321.96937499998603,
      "v": 95
    },
    {
      "midi": 62,
      "hit": false,
      "t": 177575.5799999996,
      "d": 321.96937499998603,
      "v": 94
    },
    {
      "midi": 46,
      "hit": false,
      "t": 177878.6099999996,
      "d": 246.21187499997905,
      "v": 78
    },
    {
      "midi": 41,
      "hit": false,
      "t": 178181.63999999958,
      "d": 732.3225000000093,
      "v": 97
    },
    {
      "midi": 57,
      "hit": false,
      "t": 178484.66999999958,
      "d": 631.3125,
      "v": 86
    },
    {
      "midi": 63,
      "hit": false,
      "t": 178484.66999999958,
      "d": 631.3125,
      "v": 100
    },
    {
      "midi": 60,
      "hit": false,
      "t": 178484.66999999958,
      "d": 650.2518749999872,
      "v": 104
    },
    {
      "midi": 41,
      "hit": false,
      "t": 179090.72999999957,
      "d": 328.28250000000116,
      "v": 104
    },
    {
      "midi": 63,
      "hit": false,
      "t": 179393.75999999957,
      "d": 347.22187499998836,
      "v": 102
    },
    {
      "midi": 60,
      "hit": false,
      "t": 179393.75999999957,
      "d": 353.5349999999744,
      "v": 109
    },
    {
      "midi": 57,
      "hit": false,
      "t": 179393.75999999957,
      "d": 378.7874999999767,
      "v": 94
    },
    {
      "midi": 41,
      "hit": false,
      "t": 179696.78999999957,
      "d": 246.21187499997905,
      "v": 99
    },
    {
      "midi": 46,
      "hit": false,
      "t": 179999.81999999954,
      "d": 751.2618749999965,
      "v": 100
    },
    {
      "midi": 62,
      "hit": false,
      "t": 180302.84999999954,
      "d": 631.3125,
      "v": 95
    },
    {
      "midi": 53,
      "hit": false,
      "t": 180302.84999999954,
      "d": 675.5043749999895,
      "v": 95
    },
    {
      "midi": 58,
      "hit": false,
      "t": 180302.84999999954,
      "d": 681.8174999999756,
      "v": 104
    },
    {
      "midi": 46,
      "hit": false,
      "t": 180908.90999999954,
      "d": 303.02999999996973,
      "v": 106
    },
    {
      "midi": 58,
      "hit": false,
      "t": 181211.9399999995,
      "d": 328.28250000000116,
      "v": 97
    },
    {
      "midi": 53,
      "hit": false,
      "t": 181211.9399999995,
      "d": 372.4743749999907,
      "v": 76
    },
    {
      "midi": 62,
      "hit": false,
      "t": 181211.9399999995,
      "d": 372.4743749999907,
      "v": 86
    },
    {
      "midi": 46,
      "hit": false,
      "t": 181514.9699999995,
      "d": 94.69687499999418,
      "v": 95
    },
    {
      "midi": 46,
      "hit": false,
      "t": 181817.9999999995,
      "d": 751.2618749999965,
      "v": 100
    },
    {
      "midi": 62,
      "hit": false,
      "t": 182121.0299999995,
      "d": 631.3125,
      "v": 95
    },
    {
      "midi": 53,
      "hit": false,
      "t": 182121.0299999995,
      "d": 675.5043749999895,
      "v": 95
    },
    {
      "midi": 58,
      "hit": false,
      "t": 182121.0299999995,
      "d": 675.5043749999895,
      "v": 104
    },
    {
      "midi": 46,
      "hit": false,
      "t": 182727.0899999995,
      "d": 303.02999999999884,
      "v": 106
    },
    {
      "midi": 58,
      "hit": false,
      "t": 183030.1199999995,
      "d": 347.22187499998836,
      "v": 97
    },
    {
      "midi": 62,
      "hit": false,
      "t": 183030.1199999995,
      "d": 372.4743749999907,
      "v": 86
    },
    {
      "midi": 53,
      "hit": false,
      "t": 183030.1199999995,
      "d": 378.7874999999767,
      "v": 76
    },
    {
      "midi": 46,
      "hit": false,
      "t": 183333.1499999995,
      "d": 94.69687499996508,
      "v": 95
    },
    {
      "midi": 43,
      "hit": false,
      "t": 183636.17999999947,
      "d": 650.2518749999872,
      "v": 113
    },
    {
      "midi": 55,
      "hit": false,
      "t": 183939.20999999947,
      "d": 650.2518749999872,
      "v": 97
    },
    {
      "midi": 58,
      "hit": false,
      "t": 183939.20999999947,
      "d": 675.5043749999895,
      "v": 104
    },
    {
      "midi": 62,
      "hit": false,
      "t": 183939.20999999947,
      "d": 675.5043749999895,
      "v": 102
    },
    {
      "midi": 43,
      "hit": false,
      "t": 184545.26999999947,
      "d": 353.5350000000035,
      "v": 76
    },
    {
      "midi": 58,
      "hit": false,
      "t": 184848.29999999946,
      "d": 252.52499999999418,
      "v": 102
    },
    {
      "midi": 55,
      "hit": false,
      "t": 184848.29999999946,
      "d": 303.02999999999884,
      "v": 99
    },
    {
      "midi": 62,
      "hit": false,
      "t": 184848.29999999946,
      "d": 328.28250000000116,
      "v": 97
    },
    {
      "midi": 43,
      "hit": false,
      "t": 185151.32999999946,
      "d": 227.27249999999185,
      "v": 95
    },
    {
      "midi": 38,
      "hit": false,
      "t": 185454.35999999946,
      "d": 726.0093749999942,
      "v": 99
    },
    {
      "midi": 62,
      "hit": false,
      "t": 185757.38999999946,
      "d": 681.8175000000047,
      "v": 109
    },
    {
      "midi": 66,
      "hit": false,
      "t": 185757.38999999946,
      "d": 681.8175000000047,
      "v": 102
    },
    {
      "midi": 60,
      "hit": false,
      "t": 185757.38999999946,
      "d": 700.7568749999919,
      "v": 97
    },
    {
      "midi": 38,
      "hit": false,
      "t": 186363.44999999946,
      "d": 277.7774999999965,
      "v": 99
    },
    {
      "midi": 60,
      "hit": false,
      "t": 186666.47999999946,
      "d": 347.22187499998836,
      "v": 94
    },
    {
      "midi": 66,
      "hit": false,
      "t": 186666.47999999946,
      "d": 347.22187499998836,
      "v": 104
    },
    {
      "midi": 62,
      "hit": false,
      "t": 186666.47999999946,
      "d": 353.5349999999744,
      "v": 109
    },
    {
      "midi": 38,
      "hit": false,
      "t": 186969.50999999946,
      "d": 296.7168749999837,
      "v": 106
    },
    {
      "midi": 43,
      "hit": false,
      "t": 187272.53999999943,
      "d": 757.5750000000116,
      "v": 106
    },
    {
      "midi": 58,
      "hit": false,
      "t": 187575.56999999942,
      "d": 700.756875000021,
      "v": 104
    },
    {
      "midi": 62,
      "hit": false,
      "t": 187575.56999999942,
      "d": 700.756875000021,
      "v": 76
    },
    {
      "midi": 55,
      "hit": false,
      "t": 187575.56999999942,
      "d": 707.070000000007,
      "v": 102
    },
    {
      "midi": 43,
      "hit": false,
      "t": 188181.62999999945,
      "d": 271.4643749999814,
      "v": 94
    },
    {
      "midi": 58,
      "hit": false,
      "t": 188484.65999999942,
      "d": 378.7875000000058,
      "v": 95
    },
    {
      "midi": 62,
      "hit": false,
      "t": 188484.65999999942,
      "d": 479.79750000001513,
      "v": 92
    },
    {
      "midi": 55,
      "hit": false,
      "t": 188484.65999999942,
      "d": 498.7368750000023,
      "v": 88
    },
    {
      "midi": 43,
      "hit": false,
      "t": 188787.68999999942,
      "d": 246.21187500000815,
      "v": 104
    },
    {
      "midi": 36,
      "hit": false,
      "t": 189090.71999999942,
      "d": 347.22187499998836,
      "v": 109
    },
    {
      "midi": 64,
      "hit": false,
      "t": 189393.74999999942,
      "d": 675.5043749999895,
      "v": 99
    },
    {
      "midi": 60,
      "hit": false,
      "t": 189393.74999999942,
      "d": 700.7568749999919,
      "v": 104
    },
    {
      "midi": 55,
      "hit": false,
      "t": 189393.74999999942,
      "d": 707.0699999999779,
      "v": 100
    },
    {
      "midi": 36,
      "hit": false,
      "t": 189999.80999999942,
      "d": 277.7774999999674,
      "v": 106
    },
    {
      "midi": 55,
      "hit": false,
      "t": 190302.83999999939,
      "d": 347.22187499998836,
      "v": 92
    },
    {
      "midi": 64,
      "hit": false,
      "t": 190302.83999999939,
      "d": 353.5349999999744,
      "v": 99
    },
    {
      "midi": 60,
      "hit": false,
      "t": 190302.83999999939,
      "d": 372.4743749999616,
      "v": 100
    },
    {
      "midi": 36,
      "hit": false,
      "t": 190605.86999999938,
      "d": 252.52499999996508,
      "v": 106
    },
    {
      "midi": 58,
      "hit": false,
      "t": 190908.89999999935,
      "d": 233.58562500000698,
      "v": 109
    },
    {
      "midi": 43,
      "hit": false,
      "t": 190908.89999999935,
      "d": 246.21187500000815,
      "v": 109
    },
    {
      "midi": 55,
      "hit": false,
      "t": 190908.89999999935,
      "d": 246.21187500000815,
      "v": 106
    },
    {
      "midi": 62,
      "hit": false,
      "t": 190908.89999999935,
      "d": 252.52499999999418,
      "v": 111
    }
  ]
}