{
  "jsonPath": "Pop/Austropop/Rainhard Fendrich/tango-korrupti.json",
  "path": "Pop\\Austropop\\Rainhard Fendrich\\Tango Korrupti.mid",
  "name": "Tango Korrupti",
  "difficulty": "Advanced",
  "bpm": 130.00914397645968,
  "notes": [
    {
      "midi": 48,
      "hit": false,
      "t": 3692.048,
      "d": 227.1474843750002,
      "v": 1
    },
    {
      "midi": 60,
      "hit": false,
      "t": 3692.048,
      "d": 227.1474843750002,
      "v": 1
    },
    {
      "midi": 45,
      "hit": false,
      "t": 3922.801,
      "d": 227.14748437499975,
      "v": 1
    },
    {
      "midi": 57,
      "hit": false,
      "t": 3922.801,
      "d": 227.14748437499975,
      "v": 1
    },
    {
      "midi": 48,
      "hit": false,
      "t": 4153.554,
      "d": 227.1474843750002,
      "v": 1
    },
    {
      "midi": 60,
      "hit": false,
      "t": 4153.554,
      "d": 227.1474843750002,
      "v": 1
    },
    {
      "midi": 45,
      "hit": false,
      "t": 4384.307000000001,
      "d": 227.1474843750002,
      "v": 1
    },
    {
      "midi": 57,
      "hit": false,
      "t": 4384.307000000001,
      "d": 227.1474843750002,
      "v": 1
    },
    {
      "midi": 48,
      "hit": false,
      "t": 4615.060000000001,
      "d": 227.1474843750002,
      "v": 1
    },
    {
      "midi": 60,
      "hit": false,
      "t": 4615.060000000001,
      "d": 227.1474843750002,
      "v": 1
    },
    {
      "midi": 69,
      "hit": false,
      "t": 4615.060000000001,
      "d": 227.1474843750002,
      "v": 1
    },
    {
      "midi": 45,
      "hit": false,
      "t": 4845.813000000002,
      "d": 227.1474843750002,
      "v": 1
    },
    {
      "midi": 57,
      "hit": false,
      "t": 4845.813000000002,
      "d": 227.1474843750002,
      "v": 1
    },
    {
      "midi": 64,
      "hit": false,
      "t": 4845.813000000002,
      "d": 227.1474843750002,
      "v": 1
    },
    {
      "midi": 48,
      "hit": false,
      "t": 5076.5660000000025,
      "d": 227.1474843750002,
      "v": 1
    },
    {
      "midi": 60,
      "hit": false,
      "t": 5076.5660000000025,
      "d": 227.1474843750002,
      "v": 1
    },
    {
      "midi": 64,
      "hit": false,
      "t": 5076.5660000000025,
      "d": 227.1474843750002,
      "v": 1
    },
    {
      "midi": 72,
      "hit": false,
      "t": 5076.5660000000025,
      "d": 227.1474843750002,
      "v": 1
    },
    {
      "midi": 45,
      "hit": false,
      "t": 5307.319000000003,
      "d": 342.5239843749996,
      "v": 1
    },
    {
      "midi": 57,
      "hit": false,
      "t": 5307.319000000003,
      "d": 342.5239843749996,
      "v": 1
    },
    {
      "midi": 60,
      "hit": false,
      "t": 5307.319000000003,
      "d": 342.5239843749996,
      "v": 1
    },
    {
      "midi": 69,
      "hit": false,
      "t": 5307.319000000003,
      "d": 342.5239843749996,
      "v": 1
    },
    {
      "midi": 61,
      "hit": false,
      "t": 59534.274,
      "d": 919.406484375002,
      "v": 1
    },
    {
      "midi": 62,
      "hit": false,
      "t": 60457.286,
      "d": 919.406484375002,
      "v": 1
    },
    {
      "midi": 61,
      "hit": false,
      "t": 61149.545,
      "d": 15.623901041668432,
      "v": 107
    },
    {
      "midi": 64,
      "hit": false,
      "t": 61149.545,
      "d": 15.623901041668432,
      "v": 106
    },
    {
      "midi": 61,
      "hit": false,
      "t": 61380.298,
      "d": 1611.6654843750002,
      "v": 1
    },
    {
      "midi": 61,
      "hit": false,
      "t": 61611.051,
      "d": 15.623901041668432,
      "v": 109
    },
    {
      "midi": 64,
      "hit": false,
      "t": 61611.051,
      "d": 15.623901041668432,
      "v": 103
    },
    {
      "midi": 62,
      "hit": false,
      "t": 61841.804000000004,
      "d": 15.623901041668432,
      "v": 104
    },
    {
      "midi": 66,
      "hit": false,
      "t": 61841.804000000004,
      "d": 15.623901041668432,
      "v": 103
    },
    {
      "midi": 61,
      "hit": false,
      "t": 62995.569,
      "d": 15.623901041668432,
      "v": 107
    },
    {
      "midi": 64,
      "hit": false,
      "t": 62995.569,
      "d": 15.623901041668432,
      "v": 104
    },
    {
      "midi": 61,
      "hit": false,
      "t": 63457.075000000004,
      "d": 15.623901041668432,
      "v": 103
    },
    {
      "midi": 64,
      "hit": false,
      "t": 63457.075000000004,
      "d": 15.623901041668432,
      "v": 104
    },
    {
      "midi": 62,
      "hit": false,
      "t": 63687.82800000001,
      "d": 15.623901041668432,
      "v": 103
    },
    {
      "midi": 66,
      "hit": false,
      "t": 63687.82800000001,
      "d": 15.623901041668432,
      "v": 108
    },
    {
      "midi": 62,
      "hit": false,
      "t": 63918.58100000001,
      "d": 15.623901041668432,
      "v": 108
    },
    {
      "midi": 66,
      "hit": false,
      "t": 63918.58100000001,
      "d": 15.623901041668432,
      "v": 108
    },
    {
      "midi": 61,
      "hit": false,
      "t": 64841.593000000015,
      "d": 15.623901041668432,
      "v": 109
    },
    {
      "midi": 64,
      "hit": false,
      "t": 64841.593000000015,
      "d": 15.623901041668432,
      "v": 105
    },
    {
      "midi": 61,
      "hit": false,
      "t": 65303.09900000002,
      "d": 15.623901041668432,
      "v": 107
    },
    {
      "midi": 64,
      "hit": false,
      "t": 65303.09900000002,
      "d": 15.623901041668432,
      "v": 110
    },
    {
      "midi": 62,
      "hit": false,
      "t": 65533.85200000002,
      "d": 15.623901041668432,
      "v": 104
    },
    {
      "midi": 66,
      "hit": false,
      "t": 65533.85200000002,
      "d": 15.623901041668432,
      "v": 105
    },
    {
      "midi": 62,
      "hit": false,
      "t": 65764.60500000003,
      "d": 15.623901041661156,
      "v": 107
    },
    {
      "midi": 66,
      "hit": false,
      "t": 65764.60500000003,
      "d": 15.623901041661156,
      "v": 110
    },
    {
      "midi": 62,
      "hit": false,
      "t": 66687.61700000001,
      "d": 15.623901041661156,
      "v": 107
    },
    {
      "midi": 66,
      "hit": false,
      "t": 66687.61700000001,
      "d": 15.623901041661156,
      "v": 105
    },
    {
      "midi": 62,
      "hit": false,
      "t": 67149.123,
      "d": 15.623901041661156,
      "v": 103
    },
    {
      "midi": 66,
      "hit": false,
      "t": 67149.123,
      "d": 15.623901041661156,
      "v": 104
    },
    {
      "midi": 64,
      "hit": false,
      "t": 67379.876,
      "d": 15.623901041661156,
      "v": 103
    },
    {
      "midi": 68,
      "hit": false,
      "t": 67379.876,
      "d": 15.623901041661156,
      "v": 108
    },
    {
      "midi": 64,
      "hit": false,
      "t": 67610.629,
      "d": 15.623901041661156,
      "v": 108
    },
    {
      "midi": 68,
      "hit": false,
      "t": 67610.629,
      "d": 15.623901041661156,
      "v": 108
    },
    {
      "midi": 62,
      "hit": false,
      "t": 68533.64099999999,
      "d": 15.623901041661156,
      "v": 106
    },
    {
      "midi": 66,
      "hit": false,
      "t": 68533.64099999999,
      "d": 15.623901041661156,
      "v": 103
    },
    {
      "midi": 62,
      "hit": false,
      "t": 68995.14699999998,
      "d": 15.623901041661156,
      "v": 103
    },
    {
      "midi": 66,
      "hit": false,
      "t": 68995.14699999998,
      "d": 15.623901041661156,
      "v": 110
    },
    {
      "midi": 64,
      "hit": false,
      "t": 69225.89999999998,
      "d": 15.623901041661156,
      "v": 107
    },
    {
      "midi": 68,
      "hit": false,
      "t": 69225.89999999998,
      "d": 15.623901041661156,
      "v": 108
    },
    {
      "midi": 64,
      "hit": false,
      "t": 69456.65299999998,
      "d": 15.623901041661156,
      "v": 109
    },
    {
      "midi": 68,
      "hit": false,
      "t": 69456.65299999998,
      "d": 15.623901041661156,
      "v": 109
    },
    {
      "midi": 62,
      "hit": false,
      "t": 70379.66499999996,
      "d": 15.623901041661156,
      "v": 104
    },
    {
      "midi": 66,
      "hit": false,
      "t": 70379.66499999996,
      "d": 15.623901041661156,
      "v": 104
    },
    {
      "midi": 62,
      "hit": false,
      "t": 70841.17099999996,
      "d": 15.623901041661156,
      "v": 106
    },
    {
      "midi": 66,
      "hit": false,
      "t": 70841.17099999996,
      "d": 15.623901041661156,
      "v": 108
    },
    {
      "midi": 64,
      "hit": false,
      "t": 71071.92399999996,
      "d": 15.623901041661156,
      "v": 105
    },
    {
      "midi": 68,
      "hit": false,
      "t": 71071.92399999996,
      "d": 15.623901041661156,
      "v": 110
    },
    {
      "midi": 64,
      "hit": false,
      "t": 71302.67699999995,
      "d": 15.623901041661156,
      "v": 107
    },
    {
      "midi": 68,
      "hit": false,
      "t": 71302.67699999995,
      "d": 15.623901041661156,
      "v": 109
    },
    {
      "midi": 61,
      "hit": false,
      "t": 72225.68899999994,
      "d": 15.623901041661156,
      "v": 107
    },
    {
      "midi": 64,
      "hit": false,
      "t": 72225.68899999994,
      "d": 15.623901041661156,
      "v": 107
    },
    {
      "midi": 61,
      "hit": false,
      "t": 72687.19499999993,
      "d": 15.623901041661156,
      "v": 109
    },
    {
      "midi": 64,
      "hit": false,
      "t": 72687.19499999993,
      "d": 15.623901041661156,
      "v": 106
    },
    {
      "midi": 62,
      "hit": false,
      "t": 72917.94799999993,
      "d": 15.623901041661156,
      "v": 103
    },
    {
      "midi": 66,
      "hit": false,
      "t": 72917.94799999993,
      "d": 15.623901041661156,
      "v": 105
    },
    {
      "midi": 62,
      "hit": false,
      "t": 73148.70099999993,
      "d": 15.623901041661156,
      "v": 110
    },
    {
      "midi": 66,
      "hit": false,
      "t": 73148.70099999993,
      "d": 15.623901041661156,
      "v": 107
    },
    {
      "midi": 61,
      "hit": false,
      "t": 74071.71299999992,
      "d": 15.623901041661156,
      "v": 106
    },
    {
      "midi": 64,
      "hit": false,
      "t": 74071.71299999992,
      "d": 15.623901041661156,
      "v": 110
    },
    {
      "midi": 61,
      "hit": false,
      "t": 74071.713,
      "d": 457.9004843750008,
      "v": 1
    },
    {
      "midi": 61,
      "hit": false,
      "t": 74533.21899999991,
      "d": 15.623901041661156,
      "v": 103
    },
    {
      "midi": 64,
      "hit": false,
      "t": 74533.21899999991,
      "d": 15.623901041661156,
      "v": 108
    },
    {
      "midi": 62,
      "hit": false,
      "t": 74533.219,
      "d": 457.9004843750008,
      "v": 1
    },
    {
      "midi": 62,
      "hit": false,
      "t": 74763.9719999999,
      "d": 15.623901041661156,
      "v": 107
    },
    {
      "midi": 66,
      "hit": false,
      "t": 74763.9719999999,
      "d": 15.623901041661156,
      "v": 106
    },
    {
      "midi": 62,
      "hit": false,
      "t": 74994.7249999999,
      "d": 15.623901041661156,
      "v": 105
    },
    {
      "midi": 66,
      "hit": false,
      "t": 74994.7249999999,
      "d": 15.623901041661156,
      "v": 109
    },
    {
      "midi": 61,
      "hit": false,
      "t": 74994.72499999999,
      "d": 457.9004843750008,
      "v": 1
    },
    {
      "midi": 62,
      "hit": false,
      "t": 75456.23099999999,
      "d": 919.4064843749948,
      "v": 1
    },
    {
      "midi": 66,
      "hit": false,
      "t": 75456.23099999999,
      "d": 919.4064843749948,
      "v": 1
    },
    {
      "midi": 61,
      "hit": false,
      "t": 75917.73699999989,
      "d": 15.623901041661156,
      "v": 105
    },
    {
      "midi": 64,
      "hit": false,
      "t": 75917.73699999989,
      "d": 15.623901041661156,
      "v": 109
    },
    {
      "midi": 61,
      "hit": false,
      "t": 76379.24299999989,
      "d": 15.623901041661156,
      "v": 110
    },
    {
      "midi": 64,
      "hit": false,
      "t": 76379.24299999989,
      "d": 15.623901041661156,
      "v": 105
    },
    {
      "midi": 61,
      "hit": false,
      "t": 76379.24299999997,
      "d": 1380.9124843750033,
      "v": 1
    },
    {
      "midi": 64,
      "hit": false,
      "t": 76379.24299999997,
      "d": 1380.9124843750033,
      "v": 1
    },
    {
      "midi": 62,
      "hit": false,
      "t": 76609.99599999988,
      "d": 15.623901041661156,
      "v": 108
    },
    {
      "midi": 66,
      "hit": false,
      "t": 76609.99599999988,
      "d": 15.623901041661156,
      "v": 104
    },
    {
      "midi": 61,
      "hit": false,
      "t": 77763.76099999988,
      "d": 15.623901041661156,
      "v": 109
    },
    {
      "midi": 64,
      "hit": false,
      "t": 77763.76099999988,
      "d": 15.623901041661156,
      "v": 105
    },
    {
      "midi": 61,
      "hit": false,
      "t": 78225.26699999988,
      "d": 15.623901041661156,
      "v": 104
    },
    {
      "midi": 64,
      "hit": false,
      "t": 78225.26699999988,
      "d": 15.623901041661156,
      "v": 104
    },
    {
      "midi": 62,
      "hit": false,
      "t": 78456.01999999987,
      "d": 15.623901041661156,
      "v": 104
    },
    {
      "midi": 66,
      "hit": false,
      "t": 78456.01999999987,
      "d": 15.623901041661156,
      "v": 103
    },
    {
      "midi": 62,
      "hit": false,
      "t": 78686.77299999987,
      "d": 15.623901041661156,
      "v": 103
    },
    {
      "midi": 66,
      "hit": false,
      "t": 78686.77299999987,
      "d": 15.623901041661156,
      "v": 104
    },
    {
      "midi": 62,
      "hit": false,
      "t": 79609.78499999986,
      "d": 15.623901041661156,
      "v": 110
    },
    {
      "midi": 66,
      "hit": false,
      "t": 79609.78499999986,
      "d": 15.623901041661156,
      "v": 109
    },
    {
      "midi": 62,
      "hit": false,
      "t": 80071.29099999985,
      "d": 15.623901041661156,
      "v": 108
    },
    {
      "midi": 66,
      "hit": false,
      "t": 80071.29099999985,
      "d": 15.623901041661156,
      "v": 109
    },
    {
      "midi": 64,
      "hit": false,
      "t": 80302.04399999985,
      "d": 15.623901041661156,
      "v": 106
    },
    {
      "midi": 68,
      "hit": false,
      "t": 80302.04399999985,
      "d": 15.623901041661156,
      "v": 108
    },
    {
      "midi": 64,
      "hit": false,
      "t": 80532.79699999985,
      "d": 15.623901041661156,
      "v": 105
    },
    {
      "midi": 68,
      "hit": false,
      "t": 80532.79699999985,
      "d": 15.623901041661156,
      "v": 105
    },
    {
      "midi": 62,
      "hit": false,
      "t": 81455.80899999983,
      "d": 15.623901041661156,
      "v": 107
    },
    {
      "midi": 66,
      "hit": false,
      "t": 81455.80899999983,
      "d": 15.623901041661156,
      "v": 111
    },
    {
      "midi": 62,
      "hit": false,
      "t": 81917.31499999983,
      "d": 15.623901041661156,
      "v": 107
    },
    {
      "midi": 66,
      "hit": false,
      "t": 81917.31499999983,
      "d": 15.623901041661156,
      "v": 105
    },
    {
      "midi": 64,
      "hit": false,
      "t": 82148.06799999982,
      "d": 15.623901041661156,
      "v": 107
    },
    {
      "midi": 68,
      "hit": false,
      "t": 82148.06799999982,
      "d": 15.623901041661156,
      "v": 111
    },
    {
      "midi": 64,
      "hit": false,
      "t": 82378.82099999982,
      "d": 15.623901041661156,
      "v": 106
    },
    {
      "midi": 68,
      "hit": false,
      "t": 82378.82099999982,
      "d": 15.623901041661156,
      "v": 104
    },
    {
      "midi": 62,
      "hit": false,
      "t": 83301.83299999981,
      "d": 15.623901041661156,
      "v": 105
    },
    {
      "midi": 66,
      "hit": false,
      "t": 83301.83299999981,
      "d": 15.623901041661156,
      "v": 108
    },
    {
      "midi": 62,
      "hit": false,
      "t": 83763.3389999998,
      "d": 15.623901041661156,
      "v": 108
    },
    {
      "midi": 66,
      "hit": false,
      "t": 83763.3389999998,
      "d": 15.623901041661156,
      "v": 106
    },
    {
      "midi": 64,
      "hit": false,
      "t": 83994.0919999998,
      "d": 15.623901041661156,
      "v": 104
    },
    {
      "midi": 68,
      "hit": false,
      "t": 83994.0919999998,
      "d": 15.623901041661156,
      "v": 107
    },
    {
      "midi": 64,
      "hit": false,
      "t": 84224.8449999998,
      "d": 15.623901041661156,
      "v": 104
    },
    {
      "midi": 68,
      "hit": false,
      "t": 84224.8449999998,
      "d": 15.623901041661156,
      "v": 107
    },
    {
      "midi": 62,
      "hit": false,
      "t": 85147.85699999979,
      "d": 15.623901041661156,
      "v": 103
    },
    {
      "midi": 66,
      "hit": false,
      "t": 85147.85699999979,
      "d": 15.623901041661156,
      "v": 108
    },
    {
      "midi": 62,
      "hit": false,
      "t": 85609.36299999978,
      "d": 15.623901041661156,
      "v": 107
    },
    {
      "midi": 66,
      "hit": false,
      "t": 85609.36299999978,
      "d": 15.623901041661156,
      "v": 103
    },
    {
      "midi": 64,
      "hit": false,
      "t": 85840.11599999978,
      "d": 15.623901041661156,
      "v": 105
    },
    {
      "midi": 68,
      "hit": false,
      "t": 85840.11599999978,
      "d": 15.623901041661156,
      "v": 105
    },
    {
      "midi": 64,
      "hit": false,
      "t": 86070.86899999977,
      "d": 15.623901041661156,
      "v": 103
    },
    {
      "midi": 68,
      "hit": false,
      "t": 86070.86899999977,
      "d": 15.623901041661156,
      "v": 105
    },
    {
      "midi": 60,
      "hit": false,
      "t": 86993.88099999976,
      "d": 15.623901041661156,
      "v": 107
    },
    {
      "midi": 64,
      "hit": false,
      "t": 86993.88099999976,
      "d": 15.623901041661156,
      "v": 108
    },
    {
      "midi": 60,
      "hit": false,
      "t": 87455.38699999976,
      "d": 15.623901041661156,
      "v": 104
    },
    {
      "midi": 64,
      "hit": false,
      "t": 87455.38699999976,
      "d": 15.623901041661156,
      "v": 109
    },
    {
      "midi": 62,
      "hit": false,
      "t": 87686.13999999975,
      "d": 15.623901041661156,
      "v": 106
    },
    {
      "midi": 65,
      "hit": false,
      "t": 87686.13999999975,
      "d": 15.623901041661156,
      "v": 110
    },
    {
      "midi": 60,
      "hit": false,
      "t": 88147.64599999975,
      "d": 15.623901041661156,
      "v": 103
    },
    {
      "midi": 64,
      "hit": false,
      "t": 88147.64599999975,
      "d": 15.623901041661156,
      "v": 103
    },
    {
      "midi": 64,
      "hit": false,
      "t": 88609.15199999974,
      "d": 15.623901041661156,
      "v": 107
    },
    {
      "midi": 69,
      "hit": false,
      "t": 88609.15199999974,
      "d": 15.623901041661156,
      "v": 105
    },
    {
      "midi": 57,
      "hit": false,
      "t": 88916.8226666664,
      "d": 111.77098437500536,
      "v": 49
    },
    {
      "midi": 60,
      "hit": false,
      "t": 88916.8226666664,
      "d": 111.77098437500536,
      "v": 52
    },
    {
      "midi": 59,
      "hit": false,
      "t": 89224.49333333307,
      "d": 111.77098437500536,
      "v": 50
    },
    {
      "midi": 62,
      "hit": false,
      "t": 89224.49333333307,
      "d": 111.77098437500536,
      "v": 49
    },
    {
      "midi": 60,
      "hit": false,
      "t": 89532.16399999974,
      "d": 111.77098437500536,
      "v": 54
    },
    {
      "midi": 64,
      "hit": false,
      "t": 89532.16399999974,
      "d": 111.77098437500536,
      "v": 54
    },
    {
      "midi": 59,
      "hit": false,
      "t": 89839.83466666641,
      "d": 111.77098437500536,
      "v": 54
    },
    {
      "midi": 62,
      "hit": false,
      "t": 89839.83466666641,
      "d": 111.77098437500536,
      "v": 53
    },
    {
      "midi": 57,
      "hit": false,
      "t": 90147.50533333309,
      "d": 111.77098437500536,
      "v": 52
    },
    {
      "midi": 60,
      "hit": false,
      "t": 90147.50533333309,
      "d": 111.77098437500536,
      "v": 57
    },
    {
      "midi": 60,
      "hit": false,
      "t": 90452.77232291643,
      "d": 111.77098437500536,
      "v": 81
    },
    {
      "midi": 64,
      "hit": false,
      "t": 90452.77232291643,
      "d": 111.77098437500536,
      "v": 80
    },
    {
      "midi": 57,
      "hit": false,
      "t": 90685.92899999977,
      "d": 20.431255208328366,
      "v": 91
    },
    {
      "midi": 60,
      "hit": false,
      "t": 90685.92899999977,
      "d": 20.431255208328366,
      "v": 90
    },
    {
      "midi": 64,
      "hit": false,
      "t": 90685.92899999977,
      "d": 20.431255208328366,
      "v": 90
    },
    {
      "midi": 57,
      "hit": false,
      "t": 92531.95299999976,
      "d": 20.431255208328366,
      "v": 91
    },
    {
      "midi": 60,
      "hit": false,
      "t": 92531.95299999976,
      "d": 20.431255208328366,
      "v": 86
    },
    {
      "midi": 64,
      "hit": false,
      "t": 92531.95299999976,
      "d": 20.431255208328366,
      "v": 90
    },
    {
      "midi": 56,
      "hit": false,
      "t": 94377.97699999975,
      "d": 20.431255208328366,
      "v": 90
    },
    {
      "midi": 59,
      "hit": false,
      "t": 94377.97699999975,
      "d": 20.431255208328366,
      "v": 87
    },
    {
      "midi": 64,
      "hit": false,
      "t": 94377.97699999975,
      "d": 20.431255208328366,
      "v": 87
    },
    {
      "midi": 56,
      "hit": false,
      "t": 96224.00099999974,
      "d": 20.431255208328366,
      "v": 86
    },
    {
      "midi": 59,
      "hit": false,
      "t": 96224.00099999974,
      "d": 20.431255208328366,
      "v": 89
    },
    {
      "midi": 64,
      "hit": false,
      "t": 96224.00099999974,
      "d": 20.431255208328366,
      "v": 86
    },
    {
      "midi": 56,
      "hit": false,
      "t": 98070.02499999973,
      "d": 20.431255208328366,
      "v": 84
    },
    {
      "midi": 59,
      "hit": false,
      "t": 98070.02499999973,
      "d": 20.431255208328366,
      "v": 90
    },
    {
      "midi": 64,
      "hit": false,
      "t": 98070.02499999973,
      "d": 20.431255208328366,
      "v": 89
    },
    {
      "midi": 56,
      "hit": false,
      "t": 99916.04899999972,
      "d": 20.431255208328366,
      "v": 84
    },
    {
      "midi": 59,
      "hit": false,
      "t": 99916.04899999972,
      "d": 20.431255208328366,
      "v": 84
    },
    {
      "midi": 64,
      "hit": false,
      "t": 99916.04899999972,
      "d": 20.431255208328366,
      "v": 90
    },
    {
      "midi": 57,
      "hit": false,
      "t": 101762.07299999971,
      "d": 20.431255208328366,
      "v": 91
    },
    {
      "midi": 60,
      "hit": false,
      "t": 101762.07299999971,
      "d": 20.431255208328366,
      "v": 88
    },
    {
      "midi": 64,
      "hit": false,
      "t": 101762.07299999971,
      "d": 20.431255208328366,
      "v": 84
    },
    {
      "midi": 57,
      "hit": false,
      "t": 103146.59099999971,
      "d": 20.431255208328366,
      "v": 90
    },
    {
      "midi": 60,
      "hit": false,
      "t": 103146.59099999971,
      "d": 20.431255208328366,
      "v": 88
    },
    {
      "midi": 64,
      "hit": false,
      "t": 103146.59099999971,
      "d": 20.431255208328366,
      "v": 86
    },
    {
      "midi": 48,
      "hit": false,
      "t": 104761.86199999996,
      "d": 227.14748437500384,
      "v": 1
    },
    {
      "midi": 60,
      "hit": false,
      "t": 104761.86199999996,
      "d": 227.14748437500384,
      "v": 1
    },
    {
      "midi": 64,
      "hit": false,
      "t": 104761.86199999996,
      "d": 227.14748437500384,
      "v": 1
    },
    {
      "midi": 72,
      "hit": false,
      "t": 104761.86199999996,
      "d": 227.14748437500384,
      "v": 1
    },
    {
      "midi": 45,
      "hit": false,
      "t": 104992.61499999996,
      "d": 457.9004843750008,
      "v": 1
    },
    {
      "midi": 57,
      "hit": false,
      "t": 104992.61499999996,
      "d": 457.9004843750008,
      "v": 1
    },
    {
      "midi": 60,
      "hit": false,
      "t": 104992.61499999996,
      "d": 457.9004843750008,
      "v": 1
    },
    {
      "midi": 69,
      "hit": false,
      "t": 104992.61499999996,
      "d": 457.9004843750008,
      "v": 1
    },
    {
      "midi": 60,
      "hit": false,
      "t": 111439.27693749999,
      "d": 176.67026562499814,
      "v": 84
    },
    {
      "midi": 64,
      "hit": false,
      "t": 111448.89164583333,
      "d": 176.67026562499814,
      "v": 86
    },
    {
      "midi": 62,
      "hit": false,
      "t": 111694.06670833332,
      "d": 116.57833854167257,
      "v": 79
    },
    {
      "midi": 65,
      "hit": false,
      "t": 111694.06670833332,
      "d": 116.57833854167257,
      "v": 81
    },
    {
      "midi": 65,
      "hit": false,
      "t": 111920.01235416667,
      "d": 162.2482031249965,
      "v": 86
    },
    {
      "midi": 62,
      "hit": false,
      "t": 111924.81970833334,
      "d": 174.26658854166453,
      "v": 102
    },
    {
      "midi": 60,
      "hit": false,
      "t": 112160.3800625,
      "d": 188.68865104166616,
      "v": 86
    },
    {
      "midi": 64,
      "hit": false,
      "t": 112162.78373958333,
      "d": 193.49600520833337,
      "v": 93
    },
    {
      "midi": 68,
      "hit": false,
      "t": 112624.28973958333,
      "d": 210.3217447916686,
      "v": 58
    },
    {
      "midi": 64,
      "hit": false,
      "t": 112626.69341666666,
      "d": 368.964432291672,
      "v": 84
    },
    {
      "midi": 62,
      "hit": false,
      "t": 112629.09709375,
      "d": 215.12909895833582,
      "v": 77
    },
    {
      "midi": 76,
      "hit": false,
      "t": 113991.982,
      "d": 116.57833854167257,
      "v": 108
    },
    {
      "midi": 75,
      "hit": false,
      "t": 114109.76217708334,
      "d": 116.57833854165801,
      "v": 90
    },
    {
      "midi": 74,
      "hit": false,
      "t": 114222.735,
      "d": 143.01878645831312,
      "v": 95
    },
    {
      "midi": 73,
      "hit": false,
      "t": 114359.74459374999,
      "d": 92.54156770832196,
      "v": 69
    },
    {
      "midi": 72,
      "hit": false,
      "t": 114465.50638541664,
      "d": 111.7709843749908,
      "v": 93
    },
    {
      "midi": 71,
      "hit": false,
      "t": 114576.07553124997,
      "d": 131.00040104165964,
      "v": 90
    },
    {
      "midi": 70,
      "hit": false,
      "t": 114698.66306249997,
      "d": 82.92685937498754,
      "v": 76
    },
    {
      "midi": 69,
      "hit": false,
      "t": 114809.23220833328,
      "d": 114.17466145832441,
      "v": 71
    },
    {
      "midi": 68,
      "hit": false,
      "t": 114902.97561458328,
      "d": 109.3673072916572,
      "v": 71
    },
    {
      "midi": 67,
      "hit": false,
      "t": 115032.77417708327,
      "d": 126.19304687499243,
      "v": 85
    },
    {
      "midi": 66,
      "hit": false,
      "t": 115140.93964583326,
      "d": 99.75259895832278,
      "v": 87
    },
    {
      "midi": 65,
      "hit": false,
      "t": 115263.52717708325,
      "d": 111.7709843749908,
      "v": 81
    },
    {
      "midi": 64,
      "hit": false,
      "t": 115364.48161458324,
      "d": 116.57833854165801,
      "v": 75
    },
    {
      "midi": 63,
      "hit": false,
      "t": 115475.05076041658,
      "d": 94.94524479165557,
      "v": 70
    },
    {
      "midi": 62,
      "hit": false,
      "t": 115607.2529999999,
      "d": 128.59672395832604,
      "v": 70
    },
    {
      "midi": 61,
      "hit": false,
      "t": 115720.22582291656,
      "d": 118.98201562499162,
      "v": 47
    },
    {
      "midi": 60,
      "hit": false,
      "t": 115847.62070833321,
      "d": 147.82614062499488,
      "v": 48
    },
    {
      "midi": 59,
      "hit": false,
      "t": 115999.0523645832,
      "d": 193.49600520833337,
      "v": 25
    },
    {
      "midi": 56,
      "hit": false,
      "t": 118837.79499999987,
      "d": 109.36730729167175,
      "v": 81
    },
    {
      "midi": 59,
      "hit": false,
      "t": 118837.79499999987,
      "d": 118.98201562500617,
      "v": 104
    },
    {
      "midi": 57,
      "hit": false,
      "t": 119068.54799999988,
      "d": 171.86291145833093,
      "v": 99
    },
    {
      "midi": 60,
      "hit": false,
      "t": 119068.54799999988,
      "d": 181.47761979166535,
      "v": 88
    },
    {
      "midi": 59,
      "hit": false,
      "t": 119530.05399999987,
      "d": 191.09232812499977,
      "v": 108
    },
    {
      "midi": 62,
      "hit": false,
      "t": 119530.05399999987,
      "d": 205.5143906250014,
      "v": 99
    },
    {
      "midi": 57,
      "hit": false,
      "t": 119991.55999999988,
      "d": 80.52318229166849,
      "v": 113
    },
    {
      "midi": 59,
      "hit": false,
      "t": 120106.93649999988,
      "d": 94.94524479167012,
      "v": 108
    },
    {
      "midi": 60,
      "hit": false,
      "t": 120222.31299999988,
      "d": 82.9268593750021,
      "v": 110
    },
    {
      "midi": 72,
      "hit": false,
      "t": 120683.81899999989,
      "d": 102.15627604167094,
      "v": 114
    },
    {
      "midi": 71,
      "hit": false,
      "t": 120799.19549999989,
      "d": 97.34892187500373,
      "v": 102
    },
    {
      "midi": 69,
      "hit": false,
      "t": 120914.57199999988,
      "d": 111.77098437500536,
      "v": 107
    },
    {
      "midi": 62,
      "hit": false,
      "t": 121376.07799999989,
      "d": 92.54156770833652,
      "v": 103
    },
    {
      "midi": 64,
      "hit": false,
      "t": 121491.45449999989,
      "d": 85.3305364583357,
      "v": 102
    },
    {
      "midi": 65,
      "hit": false,
      "t": 121606.83099999989,
      "d": 92.54156770833652,
      "v": 101
    },
    {
      "midi": 64,
      "hit": false,
      "t": 121837.58399999989,
      "d": 99.75259895833733,
      "v": 112
    },
    {
      "midi": 60,
      "hit": false,
      "t": 123683.60799999989,
      "d": 99.75259895833733,
      "v": 89
    },
    {
      "midi": 57,
      "hit": false,
      "t": 123683.60799999989,
      "d": 102.15627604167094,
      "v": 70
    },
    {
      "midi": 64,
      "hit": false,
      "t": 123683.60799999989,
      "d": 114.17466145833896,
      "v": 83
    },
    {
      "midi": 57,
      "hit": false,
      "t": 123914.3609999999,
      "d": 82.9268593750021,
      "v": 71
    },
    {
      "midi": 64,
      "hit": false,
      "t": 123914.3609999999,
      "d": 82.9268593750021,
      "v": 79
    },
    {
      "midi": 60,
      "hit": false,
      "t": 123914.3609999999,
      "d": 90.13789062500291,
      "v": 90
    },
    {
      "midi": 57,
      "hit": false,
      "t": 124373.46332291658,
      "d": 92.54156770833652,
      "v": 71
    },
    {
      "midi": 60,
      "hit": false,
      "t": 124373.46332291658,
      "d": 111.77098437500536,
      "v": 85
    },
    {
      "midi": 64,
      "hit": false,
      "t": 124375.86699999991,
      "d": 90.13789062500291,
      "v": 69
    },
    {
      "midi": 57,
      "hit": false,
      "t": 124606.61999999992,
      "d": 82.9268593750021,
      "v": 72
    },
    {
      "midi": 64,
      "hit": false,
      "t": 124606.61999999992,
      "d": 82.9268593750021,
      "v": 76
    },
    {
      "midi": 60,
      "hit": false,
      "t": 124606.61999999992,
      "d": 94.94524479167012,
      "v": 90
    },
    {
      "midi": 60,
      "hit": false,
      "t": 125065.7223229166,
      "d": 85.3305364583357,
      "v": 77
    },
    {
      "midi": 57,
      "hit": false,
      "t": 125068.12599999993,
      "d": 66.10111979166686,
      "v": 65
    },
    {
      "midi": 64,
      "hit": false,
      "t": 125068.12599999993,
      "d": 73.31215104166768,
      "v": 81
    },
    {
      "midi": 57,
      "hit": false,
      "t": 125527.2283229166,
      "d": 75.71582812500128,
      "v": 65
    },
    {
      "midi": 64,
      "hit": false,
      "t": 125527.2283229166,
      "d": 90.13789062500291,
      "v": 86
    },
    {
      "midi": 60,
      "hit": false,
      "t": 125527.2283229166,
      "d": 94.94524479167012,
      "v": 84
    },
    {
      "midi": 57,
      "hit": false,
      "t": 125757.9813229166,
      "d": 73.31215104166768,
      "v": 64
    },
    {
      "midi": 60,
      "hit": false,
      "t": 125757.9813229166,
      "d": 87.7342135416693,
      "v": 69
    },
    {
      "midi": 64,
      "hit": false,
      "t": 125760.38499999994,
      "d": 70.90847395833407,
      "v": 70
    },
    {
      "midi": 60,
      "hit": false,
      "t": 126219.48732291661,
      "d": 87.7342135416693,
      "v": 85
    },
    {
      "midi": 57,
      "hit": false,
      "t": 126221.89099999995,
      "d": 78.11950520833489,
      "v": 64
    },
    {
      "midi": 64,
      "hit": false,
      "t": 126221.89099999995,
      "d": 85.3305364583357,
      "v": 78
    },
    {
      "midi": 57,
      "hit": false,
      "t": 126452.64399999994,
      "d": 70.90847395833407,
      "v": 62
    },
    {
      "midi": 64,
      "hit": false,
      "t": 126452.64399999994,
      "d": 73.31215104166768,
      "v": 66
    },
    {
      "midi": 60,
      "hit": false,
      "t": 126452.64399999994,
      "d": 87.7342135416693,
      "v": 73
    },
    {
      "midi": 57,
      "hit": false,
      "t": 126914.14999999995,
      "d": 61.29376562499965,
      "v": 69
    },
    {
      "midi": 64,
      "hit": false,
      "t": 126914.14999999995,
      "d": 75.71582812500128,
      "v": 79
    },
    {
      "midi": 60,
      "hit": false,
      "t": 126914.14999999995,
      "d": 78.11950520833489,
      "v": 84
    },
    {
      "midi": 62,
      "hit": false,
      "t": 127370.84864583329,
      "d": 116.57833854167257,
      "v": 77
    },
    {
      "midi": 57,
      "hit": false,
      "t": 127373.25232291663,
      "d": 97.34892187500373,
      "v": 65
    },
    {
      "midi": 65,
      "hit": false,
      "t": 127373.25232291663,
      "d": 106.96363020833815,
      "v": 73
    },
    {
      "midi": 57,
      "hit": false,
      "t": 127604.00532291664,
      "d": 82.9268593750021,
      "v": 82
    },
    {
      "midi": 62,
      "hit": false,
      "t": 127604.00532291664,
      "d": 90.13789062500291,
      "v": 82
    },
    {
      "midi": 65,
      "hit": false,
      "t": 127606.40899999997,
      "d": 78.11950520833489,
      "v": 80
    },
    {
      "midi": 65,
      "hit": false,
      "t": 128065.51132291665,
      "d": 61.29376562499965,
      "v": 55
    },
    {
      "midi": 62,
      "hit": false,
      "t": 128065.51132291665,
      "d": 75.71582812500128,
      "v": 67
    },
    {
      "midi": 57,
      "hit": false,
      "t": 128065.51132291665,
      "d": 78.11950520833489,
      "v": 57
    },
    {
      "midi": 62,
      "hit": false,
      "t": 128296.26432291664,
      "d": 748.7454114583379,
      "v": 75
    },
    {
      "midi": 65,
      "hit": false,
      "t": 128298.66799999998,
      "d": 746.3417343750043,
      "v": 77
    },
    {
      "midi": 57,
      "hit": false,
      "t": 128298.66799999998,
      "d": 755.9564427083387,
      "v": 77
    },
    {
      "midi": 60,
      "hit": false,
      "t": 129219.27632291664,
      "d": 123.78936979167338,
      "v": 89
    },
    {
      "midi": 64,
      "hit": false,
      "t": 129219.27632291664,
      "d": 126.19304687500698,
      "v": 79
    },
    {
      "midi": 57,
      "hit": false,
      "t": 129221.67999999998,
      "d": 114.17466145833896,
      "v": 69
    },
    {
      "midi": 57,
      "hit": false,
      "t": 129454.83667708332,
      "d": 73.31215104166768,
      "v": 66
    },
    {
      "midi": 65,
      "hit": false,
      "t": 129454.83667708332,
      "d": 73.31215104166768,
      "v": 81
    },
    {
      "midi": 62,
      "hit": false,
      "t": 129454.83667708332,
      "d": 82.9268593750021,
      "v": 74
    },
    {
      "midi": 62,
      "hit": false,
      "t": 129909.13164583333,
      "d": 80.52318229166849,
      "v": 79
    },
    {
      "midi": 57,
      "hit": false,
      "t": 129911.53532291666,
      "d": 70.90847395833407,
      "v": 67
    },
    {
      "midi": 65,
      "hit": false,
      "t": 129911.53532291666,
      "d": 80.52318229166849,
      "v": 78
    },
    {
      "midi": 59,
      "hit": false,
      "t": 130142.28832291666,
      "d": 703.0755468749994,
      "v": 86
    },
    {
      "midi": 67,
      "hit": false,
      "t": 130144.692,
      "d": 695.8645156249986,
      "v": 99
    },
    {
      "midi": 62,
      "hit": false,
      "t": 130144.692,
      "d": 705.479223958333,
      "v": 92
    },
    {
      "midi": 60,
      "hit": false,
      "t": 131070.10767708333,
      "d": 765.5711510416731,
      "v": 94
    },
    {
      "midi": 64,
      "hit": false,
      "t": 131072.51135416667,
      "d": 743.9380572916707,
      "v": 93
    },
    {
      "midi": 55,
      "hit": false,
      "t": 131072.51135416667,
      "d": 763.1674739583395,
      "v": 81
    },
    {
      "midi": 76,
      "hit": false,
      "t": 131300.86067708302,
      "d": 227.1474843749893,
      "v": 88
    },
    {
      "midi": 72,
      "hit": false,
      "t": 131529.20999999967,
      "d": 243.97322395833908,
      "v": 83
    },
    {
      "midi": 67,
      "hit": false,
      "t": 131762.36667708302,
      "d": 217.53277604165487,
      "v": 76
    },
    {
      "midi": 64,
      "hit": false,
      "t": 131990.71600000001,
      "d": 751.149088541657,
      "v": 84
    },
    {
      "midi": 60,
      "hit": false,
      "t": 131990.71600000001,
      "d": 758.3601197916432,
      "v": 96
    },
    {
      "midi": 57,
      "hit": false,
      "t": 131990.71600000001,
      "d": 760.7637968749623,
      "v": 82
    },
    {
      "midi": 72,
      "hit": false,
      "t": 132223.872677083,
      "d": 239.16586979167187,
      "v": 76
    },
    {
      "midi": 69,
      "hit": false,
      "t": 132449.81832291634,
      "d": 265.6063177083561,
      "v": 85
    },
    {
      "midi": 64,
      "hit": false,
      "t": 132687.78235416635,
      "d": 207.91806770834955,
      "v": 74
    },
    {
      "midi": 65,
      "hit": false,
      "t": 132911.32432291665,
      "d": 715.0939322916674,
      "v": 84
    },
    {
      "midi": 57,
      "hit": false,
      "t": 132911.32432291665,
      "d": 719.9012864583347,
      "v": 88
    },
    {
      "midi": 62,
      "hit": false,
      "t": 132911.32432291665,
      "d": 729.5159947916691,
      "v": 96
    },
    {
      "midi": 69,
      "hit": false,
      "t": 133144.4809999997,
      "d": 243.97322395833908,
      "v": 84
    },
    {
      "midi": 65,
      "hit": false,
      "t": 133375.2339999997,
      "d": 248.7805781250063,
      "v": 83
    },
    {
      "midi": 62,
      "hit": false,
      "t": 133605.9869999997,
      "d": 195.89968229166698,
      "v": 72
    },
    {
      "midi": 59,
      "hit": false,
      "t": 133834.33632291664,
      "d": 900.1770677083405,
      "v": 74
    },
    {
      "midi": 65,
      "hit": false,
      "t": 133834.33632291664,
      "d": 909.7917760416749,
      "v": 75
    },
    {
      "midi": 62,
      "hit": false,
      "t": 133834.33632291664,
      "d": 914.5991302083421,
      "v": 79
    },
    {
      "midi": 74,
      "hit": false,
      "t": 134069.89667708304,
      "d": 272.81734895834234,
      "v": 93
    },
    {
      "midi": 69,
      "hit": false,
      "t": 134303.0533541664,
      "d": 239.16586979167187,
      "v": 80
    },
    {
      "midi": 65,
      "hit": false,
      "t": 134531.40267708307,
      "d": 342.5239843750023,
      "v": 71
    },
    {
      "midi": 68,
      "hit": false,
      "t": 134757.34832291666,
      "d": 1609.2618072917685,
      "v": 76
    },
    {
      "midi": 64,
      "hit": false,
      "t": 134757.34832291666,
      "d": 1784.7302343751362,
      "v": 92
    },
    {
      "midi": 59,
      "hit": false,
      "t": 134757.34832291666,
      "d": 1815.9780364584585,
      "v": 83
    },
    {
      "midi": 79,
      "hit": false,
      "t": 134759.75199999998,
      "d": 143.01878645835677,
      "v": 109
    },
    {
      "midi": 77,
      "hit": false,
      "t": 134875.1285,
      "d": 118.98201562502072,
      "v": 104
    },
    {
      "midi": 76,
      "hit": false,
      "t": 134990.505,
      "d": 114.17466145835351,
      "v": 104
    },
    {
      "midi": 74,
      "hit": false,
      "t": 135105.88150000002,
      "d": 131.0004010416742,
      "v": 97
    },
    {
      "midi": 77,
      "hit": false,
      "t": 135221.25800000003,
      "d": 152.6334947916621,
      "v": 105
    },
    {
      "midi": 76,
      "hit": false,
      "t": 135336.63450000001,
      "d": 131.0004010416742,
      "v": 100
    },
    {
      "midi": 74,
      "hit": false,
      "t": 135452.01100000003,
      "d": 87.7342135416693,
      "v": 82
    },
    {
      "midi": 72,
      "hit": false,
      "t": 135567.38750000004,
      "d": 97.34892187500373,
      "v": 89
    },
    {
      "midi": 76,
      "hit": false,
      "t": 135682.76400000005,
      "d": 133.40407812502235,
      "v": 105
    },
    {
      "midi": 74,
      "hit": false,
      "t": 135798.14050000007,
      "d": 131.0004010416742,
      "v": 92
    },
    {
      "midi": 72,
      "hit": false,
      "t": 135913.51700000008,
      "d": 106.96363020833815,
      "v": 91
    },
    {
      "midi": 71,
      "hit": false,
      "t": 136028.8935000001,
      "d": 116.57833854167257,
      "v": 92
    },
    {
      "midi": 74,
      "hit": false,
      "t": 136144.2700000001,
      "d": 152.6334947916621,
      "v": 102
    },
    {
      "midi": 72,
      "hit": false,
      "t": 136259.6465000001,
      "d": 106.96363020833815,
      "v": 91
    },
    {
      "midi": 71,
      "hit": false,
      "t": 136375.0230000001,
      "d": 118.98201562502072,
      "v": 100
    },
    {
      "midi": 69,
      "hit": false,
      "t": 136490.39950000012,
      "d": 94.94524479165557,
      "v": 88
    },
    {
      "midi": 69,
      "hit": false,
      "t": 136605.7760000001,
      "d": 82.92685937497299,
      "v": 71
    },
    {
      "midi": 64,
      "hit": false,
      "t": 136605.7760000001,
      "d": 106.96363020830904,
      "v": 107
    },
    {
      "midi": 59,
      "hit": false,
      "t": 136608.17967708342,
      "d": 68.50479687500047,
      "v": 70
    },
    {
      "midi": 61,
      "hit": false,
      "t": 137072.08935416662,
      "d": 1145.352130208339,
      "v": 1
    },
    {
      "midi": 62,
      "hit": false,
      "t": 138221.04699999996,
      "d": 698.2681927083468,
      "v": 1
    },
    {
      "midi": 61,
      "hit": false,
      "t": 138682.55299999972,
      "d": 15.623901041661156,
      "v": 106
    },
    {
      "midi": 64,
      "hit": false,
      "t": 138682.55299999972,
      "d": 15.623901041661156,
      "v": 106
    },
    {
      "midi": 61,
      "hit": false,
      "t": 138922.92070833332,
      "d": 1602.0507760416658,
      "v": 1
    },
    {
      "midi": 61,
      "hit": false,
      "t": 139144.05899999972,
      "d": 15.623901041661156,
      "v": 108
    },
    {
      "midi": 64,
      "hit": false,
      "t": 139144.05899999972,
      "d": 15.623901041661156,
      "v": 106
    },
    {
      "midi": 62,
      "hit": false,
      "t": 139374.8119999997,
      "d": 15.623901041661156,
      "v": 105
    },
    {
      "midi": 66,
      "hit": false,
      "t": 139374.8119999997,
      "d": 15.623901041661156,
      "v": 103
    },
    {
      "midi": 61,
      "hit": false,
      "t": 140528.5769999997,
      "d": 15.623901041661156,
      "v": 103
    },
    {
      "midi": 64,
      "hit": false,
      "t": 140528.5769999997,
      "d": 15.623901041661156,
      "v": 110
    },
    {
      "midi": 61,
      "hit": false,
      "t": 140990.0829999997,
      "d": 15.623901041661156,
      "v": 105
    },
    {
      "midi": 64,
      "hit": false,
      "t": 140990.0829999997,
      "d": 15.623901041661156,
      "v": 108
    },
    {
      "midi": 62,
      "hit": false,
      "t": 141220.8359999997,
      "d": 15.623901041661156,
      "v": 106
    },
    {
      "midi": 66,
      "hit": false,
      "t": 141220.8359999997,
      "d": 15.623901041661156,
      "v": 103
    },
    {
      "midi": 62,
      "hit": false,
      "t": 141451.5889999997,
      "d": 15.623901041661156,
      "v": 106
    },
    {
      "midi": 66,
      "hit": false,
      "t": 141451.5889999997,
      "d": 15.623901041661156,
      "v": 105
    },
    {
      "midi": 61,
      "hit": false,
      "t": 142374.60099999967,
      "d": 15.623901041661156,
      "v": 108
    },
    {
      "midi": 64,
      "hit": false,
      "t": 142374.60099999967,
      "d": 15.623901041661156,
      "v": 107
    },
    {
      "midi": 61,
      "hit": false,
      "t": 142836.10699999967,
      "d": 15.623901041661156,
      "v": 106
    },
    {
      "midi": 64,
      "hit": false,
      "t": 142836.10699999967,
      "d": 15.623901041661156,
      "v": 109
    },
    {
      "midi": 62,
      "hit": false,
      "t": 143066.85999999967,
      "d": 15.623901041661156,
      "v": 103
    },
    {
      "midi": 66,
      "hit": false,
      "t": 143066.85999999967,
      "d": 15.623901041661156,
      "v": 104
    },
    {
      "midi": 62,
      "hit": false,
      "t": 143297.61299999966,
      "d": 15.623901041661156,
      "v": 105
    },
    {
      "midi": 66,
      "hit": false,
      "t": 143297.61299999966,
      "d": 15.623901041661156,
      "v": 105
    },
    {
      "midi": 62,
      "hit": false,
      "t": 144220.62499999965,
      "d": 15.623901041661156,
      "v": 107
    },
    {
      "midi": 66,
      "hit": false,
      "t": 144220.62499999965,
      "d": 15.623901041661156,
      "v": 108
    },
    {
      "midi": 62,
      "hit": false,
      "t": 144682.13099999964,
      "d": 15.623901041661156,
      "v": 109
    },
    {
      "midi": 66,
      "hit": false,
      "t": 144682.13099999964,
      "d": 15.623901041661156,
      "v": 108
    },
    {
      "midi": 64,
      "hit": false,
      "t": 144912.88399999964,
      "d": 15.623901041661156,
      "v": 105
    },
    {
      "midi": 68,
      "hit": false,
      "t": 144912.88399999964,
      "d": 15.623901041661156,
      "v": 108
    },
    {
      "midi": 64,
      "hit": false,
      "t": 145143.63699999964,
      "d": 15.623901041661156,
      "v": 109
    },
    {
      "midi": 68,
      "hit": false,
      "t": 145143.63699999964,
      "d": 15.623901041661156,
      "v": 110
    },
    {
      "midi": 62,
      "hit": false,
      "t": 146066.64899999963,
      "d": 15.623901041661156,
      "v": 105
    },
    {
      "midi": 66,
      "hit": false,
      "t": 146066.64899999963,
      "d": 15.623901041661156,
      "v": 103
    },
    {
      "midi": 62,
      "hit": false,
      "t": 146528.15499999962,
      "d": 15.623901041661156,
      "v": 110
    },
    {
      "midi": 66,
      "hit": false,
      "t": 146528.15499999962,
      "d": 15.623901041661156,
      "v": 110
    },
    {
      "midi": 64,
      "hit": false,
      "t": 146758.90799999962,
      "d": 15.623901041661156,
      "v": 110
    },
    {
      "midi": 68,
      "hit": false,
      "t": 146758.90799999962,
      "d": 15.623901041661156,
      "v": 106
    },
    {
      "midi": 64,
      "hit": false,
      "t": 146989.6609999996,
      "d": 15.623901041661156,
      "v": 106
    },
    {
      "midi": 68,
      "hit": false,
      "t": 146989.6609999996,
      "d": 15.623901041661156,
      "v": 109
    },
    {
      "midi": 62,
      "hit": false,
      "t": 147912.6729999996,
      "d": 15.623901041661156,
      "v": 109
    },
    {
      "midi": 66,
      "hit": false,
      "t": 147912.6729999996,
      "d": 15.623901041661156,
      "v": 106
    },
    {
      "midi": 62,
      "hit": false,
      "t": 148374.1789999996,
      "d": 15.623901041661156,
      "v": 109
    },
    {
      "midi": 66,
      "hit": false,
      "t": 148374.1789999996,
      "d": 15.623901041661156,
      "v": 105
    },
    {
      "midi": 64,
      "hit": false,
      "t": 148604.9319999996,
      "d": 15.623901041661156,
      "v": 107
    },
    {
      "midi": 68,
      "hit": false,
      "t": 148604.9319999996,
      "d": 15.623901041661156,
      "v": 110
    },
    {
      "midi": 64,
      "hit": false,
      "t": 148835.6849999996,
      "d": 15.623901041661156,
      "v": 104
    },
    {
      "midi": 68,
      "hit": false,
      "t": 148835.6849999996,
      "d": 15.623901041661156,
      "v": 109
    },
    {
      "midi": 59,
      "hit": false,
      "t": 149527.944,
      "d": 342.5239843750023,
      "v": 1
    },
    {
      "midi": 62,
      "hit": false,
      "t": 149527.944,
      "d": 342.5239843750023,
      "v": 1
    },
    {
      "midi": 61,
      "hit": false,
      "t": 149758.69699999958,
      "d": 15.623901041661156,
      "v": 109
    },
    {
      "midi": 64,
      "hit": false,
      "t": 149758.69699999958,
      "d": 15.623901041661156,
      "v": 107
    },
    {
      "midi": 57,
      "hit": false,
      "t": 149874.0735,
      "d": 1034.7829843749932,
      "v": 1
    },
    {
      "midi": 61,
      "hit": false,
      "t": 149874.0735,
      "d": 1034.7829843749932,
      "v": 1
    },
    {
      "midi": 61,
      "hit": false,
      "t": 150220.20299999957,
      "d": 15.623901041661156,
      "v": 104
    },
    {
      "midi": 64,
      "hit": false,
      "t": 150220.20299999957,
      "d": 15.623901041661156,
      "v": 108
    },
    {
      "midi": 62,
      "hit": false,
      "t": 150450.95599999957,
      "d": 15.623901041661156,
      "v": 103
    },
    {
      "midi": 66,
      "hit": false,
      "t": 150450.95599999957,
      "d": 15.623901041661156,
      "v": 103
    },
    {
      "midi": 62,
      "hit": false,
      "t": 150681.70899999957,
      "d": 15.623901041661156,
      "v": 108
    },
    {
      "midi": 66,
      "hit": false,
      "t": 150681.70899999957,
      "d": 15.623901041661156,
      "v": 107
    },
    {
      "midi": 59,
      "hit": false,
      "t": 150912.462,
      "d": 227.1474843749893,
      "v": 1
    },
    {
      "midi": 62,
      "hit": false,
      "t": 150912.462,
      "d": 227.1474843749893,
      "v": 1
    },
    {
      "midi": 61,
      "hit": false,
      "t": 151143.215,
      "d": 457.90048437498626,
      "v": 1
    },
    {
      "midi": 64,
      "hit": false,
      "t": 151143.215,
      "d": 457.90048437498626,
      "v": 1
    },
    {
      "midi": 61,
      "hit": false,
      "t": 151604.72099999955,
      "d": 15.623901041661156,
      "v": 103
    },
    {
      "midi": 64,
      "hit": false,
      "t": 151604.72099999955,
      "d": 15.623901041661156,
      "v": 104
    },
    {
      "midi": 57,
      "hit": false,
      "t": 151604.721,
      "d": 457.90048437498626,
      "v": 1
    },
    {
      "midi": 61,
      "hit": false,
      "t": 151604.721,
      "d": 457.90048437498626,
      "v": 1
    },
    {
      "midi": 61,
      "hit": false,
      "t": 152066.22699999955,
      "d": 15.623901041661156,
      "v": 107
    },
    {
      "midi": 64,
      "hit": false,
      "t": 152066.22699999955,
      "d": 15.623901041661156,
      "v": 109
    },
    {
      "midi": 59,
      "hit": false,
      "t": 152066.22699999998,
      "d": 457.90048437498626,
      "v": 1
    },
    {
      "midi": 62,
      "hit": false,
      "t": 152066.22699999998,
      "d": 457.90048437498626,
      "v": 1
    },
    {
      "midi": 62,
      "hit": false,
      "t": 152296.97999999954,
      "d": 15.623901041661156,
      "v": 104
    },
    {
      "midi": 66,
      "hit": false,
      "t": 152296.97999999954,
      "d": 15.623901041661156,
      "v": 107
    },
    {
      "midi": 62,
      "hit": false,
      "t": 152527.73299999954,
      "d": 15.623901041661156,
      "v": 108
    },
    {
      "midi": 66,
      "hit": false,
      "t": 152527.73299999954,
      "d": 15.623901041661156,
      "v": 109
    },
    {
      "midi": 57,
      "hit": false,
      "t": 152527.73299999998,
      "d": 457.90048437498626,
      "v": 1
    },
    {
      "midi": 61,
      "hit": false,
      "t": 152527.73299999998,
      "d": 457.90048437498626,
      "v": 1
    },
    {
      "midi": 62,
      "hit": false,
      "t": 152989.23899999997,
      "d": 919.4064843750093,
      "v": 1
    },
    {
      "midi": 66,
      "hit": false,
      "t": 152989.23899999997,
      "d": 919.4064843750093,
      "v": 1
    },
    {
      "midi": 61,
      "hit": false,
      "t": 153450.74499999953,
      "d": 15.623901041661156,
      "v": 104
    },
    {
      "midi": 64,
      "hit": false,
      "t": 153450.74499999953,
      "d": 15.623901041661156,
      "v": 103
    },
    {
      "midi": 61,
      "hit": false,
      "t": 153912.25099999952,
      "d": 15.623901041661156,
      "v": 109
    },
    {
      "midi": 64,
      "hit": false,
      "t": 153912.25099999952,
      "d": 15.623901041661156,
      "v": 105
    },
    {
      "midi": 61,
      "hit": false,
      "t": 153912.251,
      "d": 1380.9124843750033,
      "v": 1
    },
    {
      "midi": 64,
      "hit": false,
      "t": 153912.251,
      "d": 1380.9124843750033,
      "v": 1
    },
    {
      "midi": 62,
      "hit": false,
      "t": 154143.00399999952,
      "d": 15.623901041661156,
      "v": 107
    },
    {
      "midi": 66,
      "hit": false,
      "t": 154143.00399999952,
      "d": 15.623901041661156,
      "v": 104
    },
    {
      "midi": 61,
      "hit": false,
      "t": 155296.7689999995,
      "d": 15.623901041661156,
      "v": 103
    },
    {
      "midi": 64,
      "hit": false,
      "t": 155296.7689999995,
      "d": 15.623901041661156,
      "v": 106
    },
    {
      "midi": 61,
      "hit": false,
      "t": 155758.2749999995,
      "d": 15.623901041661156,
      "v": 103
    },
    {
      "midi": 64,
      "hit": false,
      "t": 155758.2749999995,
      "d": 15.623901041661156,
      "v": 109
    },
    {
      "midi": 62,
      "hit": false,
      "t": 155989.0279999995,
      "d": 15.623901041661156,
      "v": 109
    },
    {
      "midi": 66,
      "hit": false,
      "t": 155989.0279999995,
      "d": 15.623901041661156,
      "v": 110
    },
    {
      "midi": 62,
      "hit": false,
      "t": 156219.7809999995,
      "d": 15.623901041661156,
      "v": 103
    },
    {
      "midi": 66,
      "hit": false,
      "t": 156219.7809999995,
      "d": 15.623901041661156,
      "v": 107
    },
    {
      "midi": 62,
      "hit": false,
      "t": 157142.79299999948,
      "d": 15.623901041661156,
      "v": 105
    },
    {
      "midi": 66,
      "hit": false,
      "t": 157142.79299999948,
      "d": 15.623901041661156,
      "v": 103
    },
    {
      "midi": 62,
      "hit": false,
      "t": 157604.29899999948,
      "d": 15.623901041661156,
      "v": 105
    },
    {
      "midi": 66,
      "hit": false,
      "t": 157604.29899999948,
      "d": 15.623901041661156,
      "v": 106
    },
    {
      "midi": 64,
      "hit": false,
      "t": 157835.05199999947,
      "d": 15.623901041661156,
      "v": 104
    },
    {
      "midi": 68,
      "hit": false,
      "t": 157835.05199999947,
      "d": 15.623901041661156,
      "v": 107
    },
    {
      "midi": 64,
      "hit": false,
      "t": 158065.80499999947,
      "d": 15.623901041661156,
      "v": 105
    },
    {
      "midi": 68,
      "hit": false,
      "t": 158065.80499999947,
      "d": 15.623901041661156,
      "v": 108
    },
    {
      "midi": 62,
      "hit": false,
      "t": 158988.81699999946,
      "d": 15.623901041661156,
      "v": 106
    },
    {
      "midi": 66,
      "hit": false,
      "t": 158988.81699999946,
      "d": 15.623901041661156,
      "v": 107
    },
    {
      "midi": 62,
      "hit": false,
      "t": 159450.32299999945,
      "d": 15.623901041661156,
      "v": 110
    },
    {
      "midi": 66,
      "hit": false,
      "t": 159450.32299999945,
      "d": 15.623901041661156,
      "v": 106
    },
    {
      "midi": 64,
      "hit": false,
      "t": 159681.07599999945,
      "d": 15.623901041661156,
      "v": 108
    },
    {
      "midi": 68,
      "hit": false,
      "t": 159681.07599999945,
      "d": 15.623901041661156,
      "v": 109
    },
    {
      "midi": 64,
      "hit": false,
      "t": 159911.82899999944,
      "d": 15.623901041661156,
      "v": 105
    },
    {
      "midi": 68,
      "hit": false,
      "t": 159911.82899999944,
      "d": 15.623901041661156,
      "v": 104
    },
    {
      "midi": 62,
      "hit": false,
      "t": 160834.84099999943,
      "d": 15.623901041661156,
      "v": 103
    },
    {
      "midi": 66,
      "hit": false,
      "t": 160834.84099999943,
      "d": 15.623901041661156,
      "v": 107
    },
    {
      "midi": 62,
      "hit": false,
      "t": 161296.34699999943,
      "d": 15.623901041661156,
      "v": 106
    },
    {
      "midi": 66,
      "hit": false,
      "t": 161296.34699999943,
      "d": 15.623901041661156,
      "v": 109
    },
    {
      "midi": 62,
      "hit": false,
      "t": 161296.34699999998,
      "d": 919.4064843750093,
      "v": 1
    },
    {
      "midi": 66,
      "hit": false,
      "t": 161296.34699999998,
      "d": 919.4064843750093,
      "v": 1
    },
    {
      "midi": 64,
      "hit": false,
      "t": 161527.09999999942,
      "d": 15.623901041661156,
      "v": 104
    },
    {
      "midi": 68,
      "hit": false,
      "t": 161527.09999999942,
      "d": 15.623901041661156,
      "v": 107
    },
    {
      "midi": 64,
      "hit": false,
      "t": 161757.85299999942,
      "d": 15.623901041661156,
      "v": 107
    },
    {
      "midi": 68,
      "hit": false,
      "t": 161757.85299999942,
      "d": 15.623901041661156,
      "v": 109
    },
    {
      "midi": 61,
      "hit": false,
      "t": 162219.359,
      "d": 919.4064843750093,
      "v": 1
    },
    {
      "midi": 64,
      "hit": false,
      "t": 162219.359,
      "d": 919.4064843750093,
      "v": 1
    },
    {
      "midi": 62,
      "hit": false,
      "t": 162680.8649999994,
      "d": 15.623901041661156,
      "v": 110
    },
    {
      "midi": 66,
      "hit": false,
      "t": 162680.8649999994,
      "d": 15.623901041661156,
      "v": 109
    },
    {
      "midi": 62,
      "hit": false,
      "t": 163142.3709999994,
      "d": 15.623901041661156,
      "v": 107
    },
    {
      "midi": 66,
      "hit": false,
      "t": 163142.3709999994,
      "d": 15.623901041661156,
      "v": 103
    },
    {
      "midi": 59,
      "hit": false,
      "t": 163142.371,
      "d": 919.4064843750093,
      "v": 1
    },
    {
      "midi": 62,
      "hit": false,
      "t": 163142.371,
      "d": 919.4064843750093,
      "v": 1
    },
    {
      "midi": 64,
      "hit": false,
      "t": 163373.1239999994,
      "d": 15.623901041661156,
      "v": 104
    },
    {
      "midi": 68,
      "hit": false,
      "t": 163373.1239999994,
      "d": 15.623901041661156,
      "v": 106
    },
    {
      "midi": 64,
      "hit": false,
      "t": 163603.8769999994,
      "d": 15.623901041661156,
      "v": 110
    },
    {
      "midi": 68,
      "hit": false,
      "t": 163603.8769999994,
      "d": 15.623901041661156,
      "v": 104
    },
    {
      "midi": 55,
      "hit": false,
      "t": 164065.38300000003,
      "d": 227.1474843749893,
      "v": 1
    },
    {
      "midi": 59,
      "hit": false,
      "t": 164065.38300000003,
      "d": 227.1474843749893,
      "v": 1
    },
    {
      "midi": 57,
      "hit": false,
      "t": 164296.13600000003,
      "d": 2073.171484374994,
      "v": 1
    },
    {
      "midi": 60,
      "hit": false,
      "t": 164296.13600000003,
      "d": 2073.171484374994,
      "v": 1
    },
    {
      "midi": 60,
      "hit": false,
      "t": 164526.88899999938,
      "d": 15.623901041661156,
      "v": 110
    },
    {
      "midi": 64,
      "hit": false,
      "t": 164526.88899999938,
      "d": 15.623901041661156,
      "v": 105
    },
    {
      "midi": 60,
      "hit": false,
      "t": 164988.39499999938,
      "d": 15.623901041661156,
      "v": 105
    },
    {
      "midi": 64,
      "hit": false,
      "t": 164988.39499999938,
      "d": 15.623901041661156,
      "v": 104
    },
    {
      "midi": 62,
      "hit": false,
      "t": 165219.14799999938,
      "d": 15.623901041661156,
      "v": 108
    },
    {
      "midi": 65,
      "hit": false,
      "t": 165219.14799999938,
      "d": 15.623901041661156,
      "v": 104
    },
    {
      "midi": 60,
      "hit": false,
      "t": 165680.65399999937,
      "d": 15.623901041661156,
      "v": 103
    },
    {
      "midi": 64,
      "hit": false,
      "t": 165680.65399999937,
      "d": 15.623901041661156,
      "v": 105
    },
    {
      "midi": 64,
      "hit": false,
      "t": 167988.18400000007,
      "d": 948.2506093750126,
      "v": 97
    },
    {
      "midi": 60,
      "hit": false,
      "t": 167988.18400000007,
      "d": 953.0579635416798,
      "v": 99
    },
    {
      "midi": 57,
      "hit": false,
      "t": 168218.93699999937,
      "d": 20.431255208328366,
      "v": 88
    },
    {
      "midi": 60,
      "hit": false,
      "t": 168218.93699999937,
      "d": 20.431255208328366,
      "v": 87
    },
    {
      "midi": 64,
      "hit": false,
      "t": 168218.93699999937,
      "d": 20.431255208328366,
      "v": 85
    },
    {
      "midi": 62,
      "hit": false,
      "t": 169137.1416458334,
      "d": 438.6710677083465,
      "v": 93
    },
    {
      "midi": 60,
      "hit": false,
      "t": 169552.97778125008,
      "d": 140.61510937500861,
      "v": 73
    },
    {
      "midi": 59,
      "hit": false,
      "t": 169694.79472916675,
      "d": 164.65188020834466,
      "v": 86
    },
    {
      "midi": 57,
      "hit": false,
      "t": 169841.4190312501,
      "d": 671.8277447916626,
      "v": 112
    },
    {
      "midi": 57,
      "hit": false,
      "t": 170064.96099999937,
      "d": 20.431255208328366,
      "v": 89
    },
    {
      "midi": 60,
      "hit": false,
      "t": 170064.96099999937,
      "d": 20.431255208328366,
      "v": 86
    },
    {
      "midi": 64,
      "hit": false,
      "t": 170064.96099999937,
      "d": 20.431255208328366,
      "v": 89
    },
    {
      "midi": 62,
      "hit": false,
      "t": 171031.2391875001,
      "d": 320.89089062501444,
      "v": 90
    },
    {
      "midi": 60,
      "hit": false,
      "t": 171370.1576562501,
      "d": 332.9092760416679,
      "v": 92
    },
    {
      "midi": 62,
      "hit": false,
      "t": 171730.70921875013,
      "d": 510.7813802083256,
      "v": 96
    },
    {
      "midi": 56,
      "hit": false,
      "t": 171910.98499999937,
      "d": 20.431255208328366,
      "v": 90
    },
    {
      "midi": 59,
      "hit": false,
      "t": 171910.98499999937,
      "d": 20.431255208328366,
      "v": 89
    },
    {
      "midi": 64,
      "hit": false,
      "t": 171910.98499999937,
      "d": 20.431255208328366,
      "v": 90
    },
    {
      "midi": 62,
      "hit": false,
      "t": 172406.1424791668,
      "d": 128.59672395835514,
      "v": 81
    },
    {
      "midi": 60,
      "hit": false,
      "t": 172511.90427083347,
      "d": 140.61510937500861,
      "v": 92
    },
    {
      "midi": 59,
      "hit": false,
      "t": 172651.31754166682,
      "d": 635.7725885416439,
      "v": 88
    },
    {
      "midi": 57,
      "hit": false,
      "t": 173285.8882916668,
      "d": 231.9548385416565,
      "v": 81
    },
    {
      "midi": 56,
      "hit": false,
      "t": 173547.88909375013,
      "d": 652.5983281249937,
      "v": 94
    },
    {
      "midi": 56,
      "hit": false,
      "t": 173757.00899999938,
      "d": 20.431255208328366,
      "v": 85
    },
    {
      "midi": 59,
      "hit": false,
      "t": 173757.00899999938,
      "d": 20.431255208328366,
      "v": 91
    },
    {
      "midi": 64,
      "hit": false,
      "t": 173757.00899999938,
      "d": 20.431255208328366,
      "v": 87
    },
    {
      "midi": 57,
      "hit": false,
      "t": 174213.70764583346,
      "d": 212.72542187498766,
      "v": 104
    },
    {
      "midi": 59,
      "hit": false,
      "t": 174475.70844791678,
      "d": 301.6614739583456,
      "v": 93
    },
    {
      "midi": 57,
      "hit": false,
      "t": 174795.39750000014,
      "d": 239.16586979167187,
      "v": 93
    },
    {
      "midi": 56,
      "hit": false,
      "t": 175112.68287500014,
      "d": 126.19304687500698,
      "v": 77
    },
    {
      "midi": 59,
      "hit": false,
      "t": 175252.0961458335,
      "d": 157.4408489583293,
      "v": 71
    },
    {
      "midi": 62,
      "hit": false,
      "t": 175420.35354166682,
      "d": 407.4232656249951,
      "v": 99
    },
    {
      "midi": 56,
      "hit": false,
      "t": 175603.03299999938,
      "d": 20.431255208328366,
      "v": 90
    },
    {
      "midi": 59,
      "hit": false,
      "t": 175603.03299999938,
      "d": 20.431255208328366,
      "v": 88
    },
    {
      "midi": 64,
      "hit": false,
      "t": 175603.03299999938,
      "d": 20.431255208328366,
      "v": 91
    },
    {
      "midi": 52,
      "hit": false,
      "t": 176057.32796875015,
      "d": 828.0667552083323,
      "v": 97
    },
    {
      "midi": 56,
      "hit": false,
      "t": 177449.0569999994,
      "d": 20.431255208328366,
      "v": 86
    },
    {
      "midi": 59,
      "hit": false,
      "t": 177449.0569999994,
      "d": 20.431255208328366,
      "v": 86
    },
    {
      "midi": 64,
      "hit": false,
      "t": 177449.0569999994,
      "d": 20.431255208328366,
      "v": 85
    },
    {
      "midi": 60,
      "hit": false,
      "t": 177910.56300000014,
      "d": 390.5975260416453,
      "v": 92
    },
    {
      "midi": 59,
      "hit": false,
      "t": 178299.95868750013,
      "d": 330.50559895831975,
      "v": 84
    },
    {
      "midi": 57,
      "hit": false,
      "t": 178641.28083333344,
      "d": 424.2490052083449,
      "v": 90
    },
    {
      "midi": 57,
      "hit": false,
      "t": 179295.0809999994,
      "d": 20.431255208328366,
      "v": 88
    },
    {
      "midi": 60,
      "hit": false,
      "t": 179295.0809999994,
      "d": 20.431255208328366,
      "v": 85
    },
    {
      "midi": 64,
      "hit": false,
      "t": 179295.0809999994,
      "d": 20.431255208328366,
      "v": 91
    },
    {
      "midi": 50,
      "hit": false,
      "t": 179744.56861458346,
      "d": 123.78936979165883,
      "v": 76
    },
    {
      "midi": 52,
      "hit": false,
      "t": 179883.98188541678,
      "d": 104.55995312498999,
      "v": 62
    },
    {
      "midi": 50,
      "hit": false,
      "t": 180025.79883333345,
      "d": 508.3777031250065,
      "v": 83
    },
    {
      "midi": 60,
      "hit": false,
      "t": 180657.96590625012,
      "d": 147.82614062499488,
      "v": 88
    },
    {
      "midi": 57,
      "hit": false,
      "t": 180679.59899999938,
      "d": 20.431255208328366,
      "v": 89
    },
    {
      "midi": 60,
      "hit": false,
      "t": 180679.59899999938,
      "d": 20.431255208328366,
      "v": 84
    },
    {
      "midi": 64,
      "hit": false,
      "t": 180679.59899999938,
      "d": 20.431255208328366,
      "v": 89
    },
    {
      "midi": 62,
      "hit": false,
      "t": 180806.99388541677,
      "d": 140.61510937500861,
      "v": 61
    },
    {
      "midi": 64,
      "hit": false,
      "t": 180939.1961250001,
      "d": 227.1474843750184,
      "v": 85
    },
    {
      "midi": 59,
      "hit": false,
      "t": 181823.74929166678,
      "d": 299.25779687496834,
      "v": 90
    },
    {
      "midi": 62,
      "hit": false,
      "t": 181830.96032291677,
      "d": 222.34013020832208,
      "v": 86
    },
    {
      "midi": 57,
      "hit": false,
      "t": 182095.36480208344,
      "d": 320.89089062498533,
      "v": 79
    },
    {
      "midi": 60,
      "hit": false,
      "t": 182112.19054166676,
      "d": 306.4688281249837,
      "v": 102
    },
    {
      "midi": 62,
      "hit": false,
      "t": 182516.00829166675,
      "d": 169.45923437501187,
      "v": 82
    },
    {
      "midi": 59,
      "hit": false,
      "t": 182516.00829166675,
      "d": 188.6886510416807,
      "v": 91
    },
    {
      "midi": 60,
      "hit": false,
      "t": 182780.4127708334,
      "d": 580.4880156249856,
      "v": 101
    },
    {
      "midi": 64,
      "hit": false,
      "t": 182782.81644791673,
      "d": 597.3137552083354,
      "v": 93
    },
    {
      "midi": 57,
      "hit": false,
      "t": 182987.12899999938,
      "d": 20.431255208328366,
      "v": 90
    },
    {
      "midi": 60,
      "hit": false,
      "t": 182987.12899999938,
      "d": 20.431255208328366,
      "v": 86
    },
    {
      "midi": 64,
      "hit": false,
      "t": 182987.12899999938,
      "d": 20.431255208328366,
      "v": 88
    },
    {
      "midi": 62,
      "hit": false,
      "t": 183888.50790625007,
      "d": 239.16586979167187,
      "v": 69
    },
    {
      "midi": 60,
      "hit": false,
      "t": 184148.10503125007,
      "d": 212.72542187498766,
      "v": 61
    },
    {
      "midi": 62,
      "hit": false,
      "t": 184364.43596875007,
      "d": 239.16586979167187,
      "v": 68
    },
    {
      "midi": 60,
      "hit": false,
      "t": 184607.20735416675,
      "d": 534.8181510416616,
      "v": 73
    },
    {
      "midi": 57,
      "hit": false,
      "t": 184833.15299999938,
      "d": 20.431255208328366,
      "v": 89
    },
    {
      "midi": 60,
      "hit": false,
      "t": 184833.15299999938,
      "d": 20.431255208328366,
      "v": 87
    },
    {
      "midi": 64,
      "hit": false,
      "t": 184833.15299999938,
      "d": 20.431255208328366,
      "v": 89
    },
    {
      "midi": 67,
      "hit": false,
      "t": 185518.20096875008,
      "d": 227.1474843749893,
      "v": 108
    },
    {
      "midi": 65,
      "hit": false,
      "t": 185772.99073958342,
      "d": 301.6614739583456,
      "v": 89
    },
    {
      "midi": 64,
      "hit": false,
      "t": 186208.05629166675,
      "d": 924.2138385416765,
      "v": 91
    },
    {
      "midi": 56,
      "hit": false,
      "t": 186679.17699999938,
      "d": 20.431255208328366,
      "v": 85
    },
    {
      "midi": 59,
      "hit": false,
      "t": 186679.17699999938,
      "d": 20.431255208328366,
      "v": 89
    },
    {
      "midi": 64,
      "hit": false,
      "t": 186679.17699999938,
      "d": 20.431255208328366,
      "v": 84
    },
    {
      "midi": 56,
      "hit": false,
      "t": 187128.66461458342,
      "d": 150.22981770834303,
      "v": 62
    },
    {
      "midi": 59,
      "hit": false,
      "t": 187135.87564583344,
      "d": 140.61510937500861,
      "v": 70
    },
    {
      "midi": 57,
      "hit": false,
      "t": 187393.0690937501,
      "d": 157.4408489583293,
      "v": 86
    },
    {
      "midi": 60,
      "hit": false,
      "t": 187393.0690937501,
      "d": 162.2482031249965,
      "v": 68
    },
    {
      "midi": 62,
      "hit": false,
      "t": 187840.15303125008,
      "d": 1090.0675572916516,
      "v": 82
    },
    {
      "midi": 59,
      "hit": false,
      "t": 187847.36406250007,
      "d": 1090.0675572916516,
      "v": 87
    },
    {
      "midi": 56,
      "hit": false,
      "t": 188525.2009999994,
      "d": 20.431255208328366,
      "v": 85
    },
    {
      "midi": 59,
      "hit": false,
      "t": 188525.2009999994,
      "d": 20.431255208328366,
      "v": 89
    },
    {
      "midi": 64,
      "hit": false,
      "t": 188525.2009999994,
      "d": 20.431255208328366,
      "v": 89
    },
    {
      "midi": 60,
      "hit": false,
      "t": 188996.3217083334,
      "d": 371.3681093750056,
      "v": 97
    },
    {
      "midi": 59,
      "hit": false,
      "t": 189433.79093750005,
      "d": 316.0835364583472,
      "v": 94
    },
    {
      "midi": 62,
      "hit": false,
      "t": 189890.4895833334,
      "d": 366.5607552083093,
      "v": 88
    },
    {
      "midi": 59,
      "hit": false,
      "t": 189897.7006145834,
      "d": 356.94604687500396,
      "v": 88
    },
    {
      "midi": 56,
      "hit": false,
      "t": 190371.2249999994,
      "d": 20.431255208328366,
      "v": 85
    },
    {
      "midi": 59,
      "hit": false,
      "t": 190371.2249999994,
      "d": 20.431255208328366,
      "v": 87
    },
    {
      "midi": 64,
      "hit": false,
      "t": 190371.2249999994,
      "d": 20.431255208328366,
      "v": 89
    },
    {
      "midi": 62,
      "hit": false,
      "t": 190383.24338541672,
      "d": 323.2945677083044,
      "v": 92
    },
    {
      "midi": 59,
      "hit": false,
      "t": 190385.64706250004,
      "d": 308.87250520833186,
      "v": 95
    },
    {
      "midi": 64,
      "hit": false,
      "t": 190835.13467708335,
      "d": 313.67985937499907,
      "v": 84
    },
    {
      "midi": 60,
      "hit": false,
      "t": 190839.94203125002,
      "d": 299.25779687499744,
      "v": 104
    },
    {
      "midi": 60,
      "hit": false,
      "t": 191279.81493750002,
      "d": 318.4872135416663,
      "v": 107
    },
    {
      "midi": 64,
      "hit": false,
      "t": 191282.21861458334,
      "d": 330.50559895834886,
      "v": 102
    },
    {
      "midi": 62,
      "hit": false,
      "t": 191767.7613854167,
      "d": 325.69824479168165,
      "v": 101
    },
    {
      "midi": 65,
      "hit": false,
      "t": 191772.56873958337,
      "d": 316.0835364583472,
      "v": 92
    },
    {
      "midi": 56,
      "hit": false,
      "t": 192217.2489999994,
      "d": 20.431255208328366,
      "v": 85
    },
    {
      "midi": 59,
      "hit": false,
      "t": 192217.2489999994,
      "d": 20.431255208328366,
      "v": 91
    },
    {
      "midi": 64,
      "hit": false,
      "t": 192217.2489999994,
      "d": 20.431255208328366,
      "v": 89
    },
    {
      "midi": 62,
      "hit": false,
      "t": 192226.86370833337,
      "d": 280.0283802083286,
      "v": 95
    },
    {
      "midi": 65,
      "hit": false,
      "t": 192231.67106250004,
      "d": 255.99160937499255,
      "v": 95
    },
    {
      "midi": 64,
      "hit": false,
      "t": 192659.52558333336,
      "d": 349.7350156249886,
      "v": 103
    },
    {
      "midi": 60,
      "hit": false,
      "t": 192664.33293750003,
      "d": 364.1570781249902,
      "v": 101
    },
    {
      "midi": 62,
      "hit": false,
      "t": 193133.04996875,
      "d": 246.37690104165813,
      "v": 109
    },
    {
      "midi": 57,
      "hit": false,
      "t": 193834.92367708334,
      "d": 85.33053645832115,
      "v": 119
    },
    {
      "midi": 57,
      "hit": false,
      "t": 194063.273,
      "d": 104.55995312498999,
      "v": 104
    },
    {
      "midi": 56,
      "hit": false,
      "t": 194181.05317708332,
      "d": 97.34892187500373,
      "v": 106
    },
    {
      "midi": 57,
      "hit": false,
      "t": 194298.83335416665,
      "d": 87.7342135416693,
      "v": 107
    },
    {
      "midi": 57,
      "hit": false,
      "t": 194527.18267708333,
      "d": 104.55995312498999,
      "v": 107
    },
    {
      "midi": 56,
      "hit": false,
      "t": 194642.5591770833,
      "d": 94.94524479165557,
      "v": 107
    },
    {
      "midi": 57,
      "hit": false,
      "t": 194757.9356770833,
      "d": 90.13789062498836,
      "v": 104
    },
    {
      "midi": 49,
      "hit": false,
      "t": 194988.6886770833,
      "d": 231.9548385416565,
      "v": 105
    },
    {
      "midi": 50,
      "hit": false,
      "t": 195219.4416770833,
      "d": 212.72542187498766,
      "v": 103
    },
    {
      "midi": 52,
      "hit": false,
      "t": 195450.1946770833,
      "d": 198.30335937498603,
      "v": 104
    },
    {
      "midi": 45,
      "hit": false,
      "t": 195683.3513541666,
      "d": 1767.90449479167,
      "v": 117
    },
    {
      "midi": 57,
      "hit": false,
      "t": 197529.3753541666,
      "d": 277.62470312500955,
      "v": 94
    },
    {
      "midi": 62,
      "hit": false,
      "t": 197529.3753541666,
      "d": 294.45044270833023,
      "v": 110
    },
    {
      "midi": 65,
      "hit": false,
      "t": 197529.3753541666,
      "d": 294.45044270833023,
      "v": 91
    },
    {
      "midi": 57,
      "hit": false,
      "t": 199368.1883229166,
      "d": 284.8357343749958,
      "v": 98
    },
    {
      "midi": 60,
      "hit": false,
      "t": 199368.1883229166,
      "d": 301.6614739583165,
      "v": 113
    },
    {
      "midi": 64,
      "hit": false,
      "t": 199370.59199999992,
      "d": 296.8541197916784,
      "v": 98
    },
    {
      "midi": 65,
      "hit": false,
      "t": 201221.4233541666,
      "d": 282.43205729167676,
      "v": 105
    },
    {
      "midi": 62,
      "hit": false,
      "t": 201221.4233541666,
      "d": 301.6614739583456,
      "v": 109
    },
    {
      "midi": 57,
      "hit": false,
      "t": 201221.4233541666,
      "d": 318.4872135416663,
      "v": 106
    },
    {
      "midi": 53,
      "hit": false,
      "t": 202142.03167708326,
      "d": 280.0283802083286,
      "v": 104
    },
    {
      "midi": 57,
      "hit": false,
      "t": 202142.03167708326,
      "d": 289.643088541663,
      "v": 111
    },
    {
      "midi": 62,
      "hit": false,
      "t": 202142.03167708326,
      "d": 296.8541197916493,
      "v": 96
    },
    {
      "midi": 56,
      "hit": false,
      "t": 203060.23632291658,
      "d": 1767.90449479167,
      "v": 90
    },
    {
      "midi": 64,
      "hit": false,
      "t": 203060.23632291658,
      "d": 1775.1155260416563,
      "v": 114
    },
    {
      "midi": 59,
      "hit": false,
      "t": 203060.23632291658,
      "d": 1779.9228802083235,
      "v": 120
    },
    {
      "midi": 57,
      "hit": false,
      "t": 204908.6639999999,
      "d": 207.91806770832045,
      "v": 98
    },
    {
      "midi": 60,
      "hit": false,
      "t": 204908.6639999999,
      "d": 231.9548385416565,
      "v": 107
    },
    {
      "midi": 65,
      "hit": false,
      "t": 204908.6639999999,
      "d": 236.7621927083237,
      "v": 94
    },
    {
      "midi": 62,
      "hit": false,
      "t": 205370.17,
      "d": 919.4064843750093,
      "v": 1
    },
    {
      "midi": 63,
      "hit": false,
      "t": 206293.18200000003,
      "d": 457.90048437498626,
      "v": 1
    },
    {
      "midi": 62,
      "hit": false,
      "t": 206754.68800000002,
      "d": 688.6534843750123,
      "v": 1
    },
    {
      "midi": 65,
      "hit": false,
      "t": 206754.68800000002,
      "d": 688.6534843750123,
      "v": 1
    },
    {
      "midi": 62,
      "hit": false,
      "t": 206985.44099999938,
      "d": 15.623901041661156,
      "v": 110
    },
    {
      "midi": 65,
      "hit": false,
      "t": 206985.44099999938,
      "d": 15.623901041661156,
      "v": 110
    },
    {
      "midi": 62,
      "hit": false,
      "t": 207446.94699999937,
      "d": 15.623901041661156,
      "v": 109
    },
    {
      "midi": 65,
      "hit": false,
      "t": 207446.94699999937,
      "d": 15.623901041661156,
      "v": 107
    },
    {
      "midi": 63,
      "hit": false,
      "t": 207446.94700000004,
      "d": 688.6534843750123,
      "v": 1
    },
    {
      "midi": 67,
      "hit": false,
      "t": 207446.94700000004,
      "d": 688.6534843750123,
      "v": 1
    },
    {
      "midi": 63,
      "hit": false,
      "t": 207677.69999999937,
      "d": 15.623901041661156,
      "v": 108
    },
    {
      "midi": 67,
      "hit": false,
      "t": 207677.69999999937,
      "d": 15.623901041661156,
      "v": 108
    },
    {
      "midi": 62,
      "hit": false,
      "t": 208139.20600000006,
      "d": 688.6534843750123,
      "v": 1
    },
    {
      "midi": 65,
      "hit": false,
      "t": 208139.20600000006,
      "d": 688.6534843750123,
      "v": 1
    },
    {
      "midi": 62,
      "hit": false,
      "t": 208831.46499999936,
      "d": 15.623901041661156,
      "v": 110
    },
    {
      "midi": 65,
      "hit": false,
      "t": 208831.46499999936,
      "d": 15.623901041661156,
      "v": 106
    },
    {
      "midi": 62,
      "hit": false,
      "t": 209292.97099999935,
      "d": 15.623901041661156,
      "v": 109
    },
    {
      "midi": 65,
      "hit": false,
      "t": 209292.97099999935,
      "d": 15.623901041661156,
      "v": 104
    },
    {
      "midi": 63,
      "hit": false,
      "t": 209523.72399999935,
      "d": 15.623901041661156,
      "v": 103
    },
    {
      "midi": 67,
      "hit": false,
      "t": 209523.72399999935,
      "d": 15.623901041661156,
      "v": 110
    },
    {
      "midi": 63,
      "hit": false,
      "t": 209754.47699999934,
      "d": 15.623901041661156,
      "v": 108
    },
    {
      "midi": 67,
      "hit": false,
      "t": 209754.47699999934,
      "d": 15.623901041661156,
      "v": 103
    },
    {
      "midi": 62,
      "hit": false,
      "t": 210677.48899999933,
      "d": 15.623901041661156,
      "v": 103
    },
    {
      "midi": 65,
      "hit": false,
      "t": 210677.48899999933,
      "d": 15.623901041661156,
      "v": 105
    },
    {
      "midi": 62,
      "hit": false,
      "t": 211138.99499999933,
      "d": 15.623901041661156,
      "v": 104
    },
    {
      "midi": 65,
      "hit": false,
      "t": 211138.99499999933,
      "d": 15.623901041661156,
      "v": 104
    },
    {
      "midi": 63,
      "hit": false,
      "t": 211369.74799999932,
      "d": 15.623901041661156,
      "v": 108
    },
    {
      "midi": 67,
      "hit": false,
      "t": 211369.74799999932,
      "d": 15.623901041661156,
      "v": 104
    },
    {
      "midi": 63,
      "hit": false,
      "t": 211600.50099999932,
      "d": 15.623901041661156,
      "v": 107
    },
    {
      "midi": 67,
      "hit": false,
      "t": 211600.50099999932,
      "d": 15.623901041661156,
      "v": 103
    },
    {
      "midi": 63,
      "hit": false,
      "t": 212523.5129999993,
      "d": 15.623901041661156,
      "v": 110
    },
    {
      "midi": 67,
      "hit": false,
      "t": 212523.5129999993,
      "d": 15.623901041661156,
      "v": 109
    },
    {
      "midi": 63,
      "hit": false,
      "t": 212985.0189999993,
      "d": 15.623901041661156,
      "v": 108
    },
    {
      "midi": 67,
      "hit": false,
      "t": 212985.0189999993,
      "d": 15.623901041661156,
      "v": 108
    },
    {
      "midi": 65,
      "hit": false,
      "t": 213215.7719999993,
      "d": 15.623901041661156,
      "v": 106
    },
    {
      "midi": 69,
      "hit": false,
      "t": 213215.7719999993,
      "d": 15.623901041661156,
      "v": 103
    },
    {
      "midi": 65,
      "hit": false,
      "t": 213446.5249999993,
      "d": 15.623901041661156,
      "v": 103
    },
    {
      "midi": 69,
      "hit": false,
      "t": 213446.5249999993,
      "d": 15.623901041661156,
      "v": 106
    },
    {
      "midi": 63,
      "hit": false,
      "t": 214369.53699999928,
      "d": 15.623901041661156,
      "v": 105
    },
    {
      "midi": 67,
      "hit": false,
      "t": 214369.53699999928,
      "d": 15.623901041661156,
      "v": 103
    },
    {
      "midi": 63,
      "hit": false,
      "t": 214831.04299999928,
      "d": 15.623901041661156,
      "v": 105
    },
    {
      "midi": 67,
      "hit": false,
      "t": 214831.04299999928,
      "d": 15.623901041661156,
      "v": 105
    },
    {
      "midi": 65,
      "hit": false,
      "t": 215061.79599999927,
      "d": 15.623901041661156,
      "v": 104
    },
    {
      "midi": 69,
      "hit": false,
      "t": 215061.79599999927,
      "d": 15.623901041661156,
      "v": 106
    },
    {
      "midi": 65,
      "hit": false,
      "t": 215292.54899999927,
      "d": 15.623901041661156,
      "v": 109
    },
    {
      "midi": 69,
      "hit": false,
      "t": 215292.54899999927,
      "d": 15.623901041661156,
      "v": 110
    },
    {
      "midi": 63,
      "hit": false,
      "t": 216215.56099999926,
      "d": 15.623901041661156,
      "v": 103
    },
    {
      "midi": 67,
      "hit": false,
      "t": 216215.56099999926,
      "d": 15.623901041661156,
      "v": 107
    },
    {
      "midi": 63,
      "hit": false,
      "t": 216677.06699999925,
      "d": 15.623901041661156,
      "v": 106
    },
    {
      "midi": 67,
      "hit": false,
      "t": 216677.06699999925,
      "d": 15.623901041661156,
      "v": 103
    },
    {
      "midi": 65,
      "hit": false,
      "t": 216907.81999999925,
      "d": 15.623901041661156,
      "v": 107
    },
    {
      "midi": 69,
      "hit": false,
      "t": 216907.81999999925,
      "d": 15.623901041661156,
      "v": 110
    },
    {
      "midi": 65,
      "hit": false,
      "t": 217138.57299999925,
      "d": 15.623901041661156,
      "v": 108
    },
    {
      "midi": 69,
      "hit": false,
      "t": 217138.57299999925,
      "d": 15.623901041661156,
      "v": 105
    },
    {
      "midi": 62,
      "hit": false,
      "t": 218061.58499999924,
      "d": 15.623901041661156,
      "v": 108
    },
    {
      "midi": 65,
      "hit": false,
      "t": 218061.58499999924,
      "d": 15.623901041661156,
      "v": 103
    },
    {
      "midi": 62,
      "hit": false,
      "t": 218523.09099999923,
      "d": 15.623901041661156,
      "v": 104
    },
    {
      "midi": 65,
      "hit": false,
      "t": 218523.09099999923,
      "d": 15.623901041661156,
      "v": 107
    },
    {
      "midi": 63,
      "hit": false,
      "t": 218753.84399999923,
      "d": 15.623901041661156,
      "v": 104
    },
    {
      "midi": 67,
      "hit": false,
      "t": 218753.84399999923,
      "d": 15.623901041661156,
      "v": 106
    },
    {
      "midi": 63,
      "hit": false,
      "t": 218984.59699999922,
      "d": 15.623901041661156,
      "v": 106
    },
    {
      "midi": 67,
      "hit": false,
      "t": 218984.59699999922,
      "d": 15.623901041661156,
      "v": 104
    },
    {
      "midi": 58,
      "hit": false,
      "t": 218984.59700000007,
      "d": 227.1474843749893,
      "v": 1
    },
    {
      "midi": 62,
      "hit": false,
      "t": 218984.59700000007,
      "d": 227.1474843749893,
      "v": 1
    },
    {
      "midi": 60,
      "hit": false,
      "t": 219215.35000000006,
      "d": 227.1474843749893,
      "v": 1
    },
    {
      "midi": 63,
      "hit": false,
      "t": 219215.35000000006,
      "d": 227.1474843749893,
      "v": 1
    },
    {
      "midi": 62,
      "hit": false,
      "t": 219446.10300000006,
      "d": 919.4064843750093,
      "v": 1
    },
    {
      "midi": 65,
      "hit": false,
      "t": 219446.10300000006,
      "d": 919.4064843750093,
      "v": 1
    },
    {
      "midi": 62,
      "hit": false,
      "t": 219907.6089999992,
      "d": 15.623901041661156,
      "v": 104
    },
    {
      "midi": 65,
      "hit": false,
      "t": 219907.6089999992,
      "d": 15.623901041661156,
      "v": 106
    },
    {
      "midi": 62,
      "hit": false,
      "t": 220369.1149999992,
      "d": 15.623901041661156,
      "v": 103
    },
    {
      "midi": 65,
      "hit": false,
      "t": 220369.1149999992,
      "d": 15.623901041661156,
      "v": 106
    },
    {
      "midi": 63,
      "hit": false,
      "t": 220369.11500000008,
      "d": 457.90048437498626,
      "v": 1
    },
    {
      "midi": 67,
      "hit": false,
      "t": 220369.11500000008,
      "d": 457.90048437498626,
      "v": 1
    },
    {
      "midi": 63,
      "hit": false,
      "t": 220599.8679999992,
      "d": 15.623901041661156,
      "v": 104
    },
    {
      "midi": 67,
      "hit": false,
      "t": 220599.8679999992,
      "d": 15.623901041661156,
      "v": 107
    },
    {
      "midi": 63,
      "hit": false,
      "t": 220830.6209999992,
      "d": 15.623901041661156,
      "v": 108
    },
    {
      "midi": 67,
      "hit": false,
      "t": 220830.6209999992,
      "d": 15.623901041661156,
      "v": 107
    },
    {
      "midi": 62,
      "hit": false,
      "t": 220830.62100000007,
      "d": 457.90048437498626,
      "v": 1
    },
    {
      "midi": 65,
      "hit": false,
      "t": 220830.62100000007,
      "d": 457.90048437498626,
      "v": 1
    },
    {
      "midi": 63,
      "hit": false,
      "t": 221292.12700000007,
      "d": 919.4064843750093,
      "v": 1
    },
    {
      "midi": 67,
      "hit": false,
      "t": 221292.12700000007,
      "d": 919.4064843750093,
      "v": 1
    },
    {
      "midi": 62,
      "hit": false,
      "t": 221753.6329999992,
      "d": 15.623901041661156,
      "v": 104
    },
    {
      "midi": 65,
      "hit": false,
      "t": 221753.6329999992,
      "d": 15.623901041661156,
      "v": 105
    },
    {
      "midi": 62,
      "hit": false,
      "t": 222215.13899999918,
      "d": 15.623901041661156,
      "v": 110
    },
    {
      "midi": 65,
      "hit": false,
      "t": 222215.13899999918,
      "d": 15.623901041661156,
      "v": 108
    },
    {
      "midi": 62,
      "hit": false,
      "t": 222215.13900000008,
      "d": 1380.9124843750033,
      "v": 1
    },
    {
      "midi": 65,
      "hit": false,
      "t": 222215.13900000008,
      "d": 1380.9124843750033,
      "v": 1
    },
    {
      "midi": 63,
      "hit": false,
      "t": 222445.89199999918,
      "d": 15.623901041661156,
      "v": 110
    },
    {
      "midi": 67,
      "hit": false,
      "t": 222445.89199999918,
      "d": 15.623901041661156,
      "v": 104
    },
    {
      "midi": 62,
      "hit": false,
      "t": 223599.65699999916,
      "d": 15.623901041661156,
      "v": 105
    },
    {
      "midi": 65,
      "hit": false,
      "t": 223599.65699999916,
      "d": 15.623901041661156,
      "v": 103
    },
    {
      "midi": 62,
      "hit": false,
      "t": 224061.16299999916,
      "d": 15.623901041661156,
      "v": 106
    },
    {
      "midi": 65,
      "hit": false,
      "t": 224061.16299999916,
      "d": 15.623901041661156,
      "v": 106
    },
    {
      "midi": 63,
      "hit": false,
      "t": 224291.91599999915,
      "d": 15.623901041661156,
      "v": 107
    },
    {
      "midi": 67,
      "hit": false,
      "t": 224291.91599999915,
      "d": 15.623901041661156,
      "v": 109
    },
    {
      "midi": 63,
      "hit": false,
      "t": 224522.66899999915,
      "d": 15.623901041661156,
      "v": 105
    },
    {
      "midi": 67,
      "hit": false,
      "t": 224522.66899999915,
      "d": 15.623901041661156,
      "v": 110
    },
    {
      "midi": 63,
      "hit": false,
      "t": 225445.68099999914,
      "d": 15.623901041661156,
      "v": 103
    },
    {
      "midi": 67,
      "hit": false,
      "t": 225445.68099999914,
      "d": 15.623901041661156,
      "v": 105
    },
    {
      "midi": 63,
      "hit": false,
      "t": 225907.18699999913,
      "d": 15.623901041661156,
      "v": 108
    },
    {
      "midi": 67,
      "hit": false,
      "t": 225907.18699999913,
      "d": 15.623901041661156,
      "v": 108
    },
    {
      "midi": 65,
      "hit": false,
      "t": 226137.93999999913,
      "d": 15.623901041661156,
      "v": 107
    },
    {
      "midi": 69,
      "hit": false,
      "t": 226137.93999999913,
      "d": 15.623901041661156,
      "v": 108
    },
    {
      "midi": 65,
      "hit": false,
      "t": 226368.69299999913,
      "d": 15.623901041661156,
      "v": 104
    },
    {
      "midi": 69,
      "hit": false,
      "t": 226368.69299999913,
      "d": 15.623901041661156,
      "v": 108
    },
    {
      "midi": 63,
      "hit": false,
      "t": 227291.7049999991,
      "d": 15.623901041661156,
      "v": 107
    },
    {
      "midi": 67,
      "hit": false,
      "t": 227291.7049999991,
      "d": 15.623901041661156,
      "v": 105
    },
    {
      "midi": 63,
      "hit": false,
      "t": 227753.2109999991,
      "d": 15.623901041661156,
      "v": 109
    },
    {
      "midi": 67,
      "hit": false,
      "t": 227753.2109999991,
      "d": 15.623901041661156,
      "v": 109
    },
    {
      "midi": 65,
      "hit": false,
      "t": 227983.9639999991,
      "d": 15.623901041661156,
      "v": 109
    },
    {
      "midi": 69,
      "hit": false,
      "t": 227983.9639999991,
      "d": 15.623901041661156,
      "v": 104
    },
    {
      "midi": 65,
      "hit": false,
      "t": 228214.7169999991,
      "d": 15.623901041661156,
      "v": 104
    },
    {
      "midi": 69,
      "hit": false,
      "t": 228214.7169999991,
      "d": 15.623901041661156,
      "v": 111
    },
    {
      "midi": 63,
      "hit": false,
      "t": 229137.7289999991,
      "d": 15.623901041661156,
      "v": 108
    },
    {
      "midi": 67,
      "hit": false,
      "t": 229137.7289999991,
      "d": 15.623901041661156,
      "v": 107
    },
    {
      "midi": 63,
      "hit": false,
      "t": 229599.23499999908,
      "d": 15.623901041661156,
      "v": 106
    },
    {
      "midi": 67,
      "hit": false,
      "t": 229599.23499999908,
      "d": 15.623901041661156,
      "v": 106
    },
    {
      "midi": 63,
      "hit": false,
      "t": 229599.23500000007,
      "d": 919.4064843750093,
      "v": 1
    },
    {
      "midi": 67,
      "hit": false,
      "t": 229599.23500000007,
      "d": 919.4064843750093,
      "v": 1
    },
    {
      "midi": 65,
      "hit": false,
      "t": 229829.98799999908,
      "d": 15.623901041661156,
      "v": 103
    },
    {
      "midi": 69,
      "hit": false,
      "t": 229829.98799999908,
      "d": 15.623901041661156,
      "v": 109
    },
    {
      "midi": 65,
      "hit": false,
      "t": 230060.74099999908,
      "d": 15.623901041661156,
      "v": 103
    },
    {
      "midi": 69,
      "hit": false,
      "t": 230060.74099999908,
      "d": 15.623901041661156,
      "v": 109
    },
    {
      "midi": 62,
      "hit": false,
      "t": 230522.2470000001,
      "d": 919.4064843750093,
      "v": 1
    },
    {
      "midi": 65,
      "hit": false,
      "t": 230522.2470000001,
      "d": 919.4064843750093,
      "v": 1
    },
    {
      "midi": 63,
      "hit": false,
      "t": 230983.75299999907,
      "d": 15.623901041661156,
      "v": 104
    },
    {
      "midi": 67,
      "hit": false,
      "t": 230983.75299999907,
      "d": 15.623901041661156,
      "v": 103
    },
    {
      "midi": 63,
      "hit": false,
      "t": 231445.25899999906,
      "d": 15.623901041661156,
      "v": 105
    },
    {
      "midi": 67,
      "hit": false,
      "t": 231445.25899999906,
      "d": 15.623901041661156,
      "v": 105
    },
    {
      "midi": 60,
      "hit": false,
      "t": 231445.2590000001,
      "d": 919.4064843750093,
      "v": 1
    },
    {
      "midi": 63,
      "hit": false,
      "t": 231445.2590000001,
      "d": 919.4064843750093,
      "v": 1
    },
    {
      "midi": 65,
      "hit": false,
      "t": 231676.01199999906,
      "d": 15.623901041661156,
      "v": 110
    },
    {
      "midi": 69,
      "hit": false,
      "t": 231676.01199999906,
      "d": 15.623901041661156,
      "v": 106
    },
    {
      "midi": 65,
      "hit": false,
      "t": 231906.76499999905,
      "d": 15.623901041661156,
      "v": 107
    },
    {
      "midi": 69,
      "hit": false,
      "t": 231906.76499999905,
      "d": 15.623901041661156,
      "v": 109
    },
    {
      "midi": 56,
      "hit": false,
      "t": 232368.27100000012,
      "d": 227.1474843749893,
      "v": 1
    },
    {
      "midi": 60,
      "hit": false,
      "t": 232368.27100000012,
      "d": 227.1474843749893,
      "v": 1
    },
    {
      "midi": 58,
      "hit": false,
      "t": 232599.02400000012,
      "d": 2303.924484374991,
      "v": 1
    },
    {
      "midi": 61,
      "hit": false,
      "t": 232599.02400000012,
      "d": 2303.924484374991,
      "v": 1
    },
    {
      "midi": 61,
      "hit": false,
      "t": 232829.77699999904,
      "d": 15.623901041661156,
      "v": 108
    },
    {
      "midi": 65,
      "hit": false,
      "t": 232829.77699999904,
      "d": 15.623901041661156,
      "v": 105
    },
    {
      "midi": 61,
      "hit": false,
      "t": 233291.28299999904,
      "d": 15.623901041661156,
      "v": 104
    },
    {
      "midi": 65,
      "hit": false,
      "t": 233291.28299999904,
      "d": 15.623901041661156,
      "v": 105
    },
    {
      "midi": 63,
      "hit": false,
      "t": 233522.03599999903,
      "d": 15.623901041661156,
      "v": 105
    },
    {
      "midi": 66,
      "hit": false,
      "t": 233522.03599999903,
      "d": 15.623901041661156,
      "v": 109
    },
    {
      "midi": 61,
      "hit": false,
      "t": 233983.54199999903,
      "d": 15.623901041661156,
      "v": 107
    },
    {
      "midi": 65,
      "hit": false,
      "t": 233983.54199999903,
      "d": 15.623901041661156,
      "v": 108
    },
    {
      "midi": 62,
      "hit": false,
      "t": 234906.55400000012,
      "d": 919.4064843750093,
      "v": 1
    },
    {
      "midi": 63,
      "hit": false,
      "t": 235829.56600000014,
      "d": 919.4064843750093,
      "v": 1
    },
    {
      "midi": 62,
      "hit": false,
      "t": 236521.82499999902,
      "d": 15.623901041661156,
      "v": 104
    },
    {
      "midi": 65,
      "hit": false,
      "t": 236521.82499999902,
      "d": 15.623901041661156,
      "v": 105
    },
    {
      "midi": 62,
      "hit": false,
      "t": 236752.57800000015,
      "d": 1611.6654843750002,
      "v": 1
    },
    {
      "midi": 62,
      "hit": false,
      "t": 236983.33099999902,
      "d": 15.623901041661156,
      "v": 109
    },
    {
      "midi": 65,
      "hit": false,
      "t": 236983.33099999902,
      "d": 15.623901041661156,
      "v": 103
    },
    {
      "midi": 63,
      "hit": false,
      "t": 237214.083999999,
      "d": 15.623901041661156,
      "v": 110
    },
    {
      "midi": 67,
      "hit": false,
      "t": 237214.083999999,
      "d": 15.623901041661156,
      "v": 108
    },
    {
      "midi": 62,
      "hit": false,
      "t": 238367.848999999,
      "d": 15.623901041661156,
      "v": 107
    },
    {
      "midi": 65,
      "hit": false,
      "t": 238367.848999999,
      "d": 15.623901041661156,
      "v": 105
    },
    {
      "midi": 62,
      "hit": false,
      "t": 238829.354999999,
      "d": 15.623901041661156,
      "v": 103
    },
    {
      "midi": 65,
      "hit": false,
      "t": 238829.354999999,
      "d": 15.623901041661156,
      "v": 107
    },
    {
      "midi": 63,
      "hit": false,
      "t": 239060.107999999,
      "d": 15.623901041661156,
      "v": 110
    },
    {
      "midi": 67,
      "hit": false,
      "t": 239060.107999999,
      "d": 15.623901041661156,
      "v": 106
    },
    {
      "midi": 63,
      "hit": false,
      "t": 239290.860999999,
      "d": 15.623901041661156,
      "v": 107
    },
    {
      "midi": 67,
      "hit": false,
      "t": 239290.860999999,
      "d": 15.623901041661156,
      "v": 109
    },
    {
      "midi": 62,
      "hit": false,
      "t": 240213.87299999897,
      "d": 15.623901041661156,
      "v": 107
    },
    {
      "midi": 65,
      "hit": false,
      "t": 240213.87299999897,
      "d": 15.623901041661156,
      "v": 105
    },
    {
      "midi": 62,
      "hit": false,
      "t": 240675.37899999897,
      "d": 15.623901041661156,
      "v": 106
    },
    {
      "midi": 65,
      "hit": false,
      "t": 240675.37899999897,
      "d": 15.623901041661156,
      "v": 110
    },
    {
      "midi": 63,
      "hit": false,
      "t": 240906.13199999896,
      "d": 15.623901041661156,
      "v": 106
    },
    {
      "midi": 67,
      "hit": false,
      "t": 240906.13199999896,
      "d": 15.623901041661156,
      "v": 103
    },
    {
      "midi": 63,
      "hit": false,
      "t": 241136.88499999896,
      "d": 15.623901041661156,
      "v": 109
    },
    {
      "midi": 67,
      "hit": false,
      "t": 241136.88499999896,
      "d": 15.623901041661156,
      "v": 110
    },
    {
      "midi": 63,
      "hit": false,
      "t": 242059.89699999895,
      "d": 15.623901041661156,
      "v": 104
    },
    {
      "midi": 67,
      "hit": false,
      "t": 242059.89699999895,
      "d": 15.623901041661156,
      "v": 106
    },
    {
      "midi": 63,
      "hit": false,
      "t": 242521.40299999894,
      "d": 15.623901041661156,
      "v": 109
    },
    {
      "midi": 67,
      "hit": false,
      "t": 242521.40299999894,
      "d": 15.623901041661156,
      "v": 104
    },
    {
      "midi": 65,
      "hit": false,
      "t": 242752.15599999894,
      "d": 15.623901041661156,
      "v": 110
    },
    {
      "midi": 69,
      "hit": false,
      "t": 242752.15599999894,
      "d": 15.623901041661156,
      "v": 108
    },
    {
      "midi": 65,
      "hit": false,
      "t": 242982.90899999894,
      "d": 15.623901041661156,
      "v": 106
    },
    {
      "midi": 69,
      "hit": false,
      "t": 242982.90899999894,
      "d": 15.623901041661156,
      "v": 109
    },
    {
      "midi": 63,
      "hit": false,
      "t": 243905.92099999893,
      "d": 15.623901041661156,
      "v": 104
    },
    {
      "midi": 67,
      "hit": false,
      "t": 243905.92099999893,
      "d": 15.623901041661156,
      "v": 107
    },
    {
      "midi": 63,
      "hit": false,
      "t": 244367.42699999892,
      "d": 15.623901041661156,
      "v": 103
    },
    {
      "midi": 67,
      "hit": false,
      "t": 244367.42699999892,
      "d": 15.623901041661156,
      "v": 103
    },
    {
      "midi": 65,
      "hit": false,
      "t": 244598.17999999892,
      "d": 15.623901041661156,
      "v": 104
    },
    {
      "midi": 69,
      "hit": false,
      "t": 244598.17999999892,
      "d": 15.623901041661156,
      "v": 104
    },
    {
      "midi": 65,
      "hit": false,
      "t": 244828.9329999989,
      "d": 15.623901041661156,
      "v": 106
    },
    {
      "midi": 69,
      "hit": false,
      "t": 244828.9329999989,
      "d": 15.623901041661156,
      "v": 103
    },
    {
      "midi": 63,
      "hit": false,
      "t": 245751.9449999989,
      "d": 15.623901041661156,
      "v": 106
    },
    {
      "midi": 67,
      "hit": false,
      "t": 245751.9449999989,
      "d": 15.623901041661156,
      "v": 106
    },
    {
      "midi": 63,
      "hit": false,
      "t": 246213.4509999989,
      "d": 15.623901041661156,
      "v": 110
    },
    {
      "midi": 67,
      "hit": false,
      "t": 246213.4509999989,
      "d": 15.623901041661156,
      "v": 105
    },
    {
      "midi": 65,
      "hit": false,
      "t": 246444.2039999989,
      "d": 15.623901041661156,
      "v": 110
    },
    {
      "midi": 69,
      "hit": false,
      "t": 246444.2039999989,
      "d": 15.623901041661156,
      "v": 105
    },
    {
      "midi": 65,
      "hit": false,
      "t": 246674.9569999989,
      "d": 15.623901041661156,
      "v": 105
    },
    {
      "midi": 69,
      "hit": false,
      "t": 246674.9569999989,
      "d": 15.623901041661156,
      "v": 108
    },
    {
      "midi": 60,
      "hit": false,
      "t": 247367.21600000016,
      "d": 342.5239843750023,
      "v": 1
    },
    {
      "midi": 63,
      "hit": false,
      "t": 247367.21600000016,
      "d": 342.5239843750023,
      "v": 1
    },
    {
      "midi": 62,
      "hit": false,
      "t": 247597.96899999888,
      "d": 15.623901041661156,
      "v": 106
    },
    {
      "midi": 65,
      "hit": false,
      "t": 247597.96899999888,
      "d": 15.623901041661156,
      "v": 108
    },
    {
      "midi": 58,
      "hit": false,
      "t": 247713.34550000017,
      "d": 1150.1594843750063,
      "v": 1
    },
    {
      "midi": 62,
      "hit": false,
      "t": 247713.34550000017,
      "d": 1150.1594843750063,
      "v": 1
    },
    {
      "midi": 62,
      "hit": false,
      "t": 248059.47499999887,
      "d": 15.623901041661156,
      "v": 103
    },
    {
      "midi": 65,
      "hit": false,
      "t": 248059.47499999887,
      "d": 15.623901041661156,
      "v": 108
    },
    {
      "midi": 63,
      "hit": false,
      "t": 248290.22799999887,
      "d": 15.623901041661156,
      "v": 111
    },
    {
      "midi": 67,
      "hit": false,
      "t": 248290.22799999887,
      "d": 15.623901041661156,
      "v": 108
    },
    {
      "midi": 63,
      "hit": false,
      "t": 248520.98099999886,
      "d": 15.623901041661156,
      "v": 110
    },
    {
      "midi": 67,
      "hit": false,
      "t": 248520.98099999886,
      "d": 15.623901041661156,
      "v": 105
    },
    {
      "midi": 60,
      "hit": false,
      "t": 248867.11050000018,
      "d": 342.5239843750023,
      "v": 1
    },
    {
      "midi": 63,
      "hit": false,
      "t": 248867.11050000018,
      "d": 342.5239843750023,
      "v": 1
    },
    {
      "midi": 62,
      "hit": false,
      "t": 249213.2400000002,
      "d": 688.6534843750123,
      "v": 1
    },
    {
      "midi": 65,
      "hit": false,
      "t": 249213.2400000002,
      "d": 688.6534843750123,
      "v": 1
    },
    {
      "midi": 62,
      "hit": false,
      "t": 249443.99299999885,
      "d": 15.623901041661156,
      "v": 104
    },
    {
      "midi": 65,
      "hit": false,
      "t": 249443.99299999885,
      "d": 15.623901041661156,
      "v": 103
    },
    {
      "midi": 62,
      "hit": false,
      "t": 249905.49899999885,
      "d": 15.623901041661156,
      "v": 105
    },
    {
      "midi": 65,
      "hit": false,
      "t": 249905.49899999885,
      "d": 15.623901041661156,
      "v": 110
    },
    {
      "midi": 63,
      "hit": false,
      "t": 249905.4990000002,
      "d": 457.90048437498626,
      "v": 1
    },
    {
      "midi": 67,
      "hit": false,
      "t": 249905.4990000002,
      "d": 457.90048437498626,
      "v": 1
    },
    {
      "midi": 63,
      "hit": false,
      "t": 250136.25199999884,
      "d": 15.623901041661156,
      "v": 103
    },
    {
      "midi": 67,
      "hit": false,
      "t": 250136.25199999884,
      "d": 15.623901041661156,
      "v": 103
    },
    {
      "midi": 63,
      "hit": false,
      "t": 250367.00499999884,
      "d": 15.623901041661156,
      "v": 103
    },
    {
      "midi": 67,
      "hit": false,
      "t": 250367.00499999884,
      "d": 15.623901041661156,
      "v": 107
    },
    {
      "midi": 62,
      "hit": false,
      "t": 250367.0050000002,
      "d": 457.90048437498626,
      "v": 1
    },
    {
      "midi": 65,
      "hit": false,
      "t": 250367.0050000002,
      "d": 457.90048437498626,
      "v": 1
    },
    {
      "midi": 63,
      "hit": false,
      "t": 250828.5110000002,
      "d": 919.4064843750093,
      "v": 1
    },
    {
      "midi": 67,
      "hit": false,
      "t": 250828.5110000002,
      "d": 919.4064843750093,
      "v": 1
    },
    {
      "midi": 62,
      "hit": false,
      "t": 251290.01699999883,
      "d": 15.623901041661156,
      "v": 105
    },
    {
      "midi": 65,
      "hit": false,
      "t": 251290.01699999883,
      "d": 15.623901041661156,
      "v": 106
    },
    {
      "midi": 62,
      "hit": false,
      "t": 251751.52299999882,
      "d": 15.623901041661156,
      "v": 106
    },
    {
      "midi": 65,
      "hit": false,
      "t": 251751.52299999882,
      "d": 15.623901041661156,
      "v": 109
    },
    {
      "midi": 62,
      "hit": false,
      "t": 251751.52300000022,
      "d": 1380.9124843750033,
      "v": 1
    },
    {
      "midi": 65,
      "hit": false,
      "t": 251751.52300000022,
      "d": 1380.9124843750033,
      "v": 1
    },
    {
      "midi": 63,
      "hit": false,
      "t": 251982.27599999882,
      "d": 15.623901041661156,
      "v": 110
    },
    {
      "midi": 67,
      "hit": false,
      "t": 251982.27599999882,
      "d": 15.623901041661156,
      "v": 105
    },
    {
      "midi": 62,
      "hit": false,
      "t": 253136.0409999988,
      "d": 15.623901041661156,
      "v": 105
    },
    {
      "midi": 65,
      "hit": false,
      "t": 253136.0409999988,
      "d": 15.623901041661156,
      "v": 106
    },
    {
      "midi": 62,
      "hit": false,
      "t": 253597.5469999988,
      "d": 15.623901041661156,
      "v": 107
    },
    {
      "midi": 65,
      "hit": false,
      "t": 253597.5469999988,
      "d": 15.623901041661156,
      "v": 106
    },
    {
      "midi": 63,
      "hit": false,
      "t": 253828.2999999988,
      "d": 15.623901041661156,
      "v": 103
    },
    {
      "midi": 67,
      "hit": false,
      "t": 253828.2999999988,
      "d": 15.623901041661156,
      "v": 110
    },
    {
      "midi": 63,
      "hit": false,
      "t": 254059.0529999988,
      "d": 15.623901041661156,
      "v": 105
    },
    {
      "midi": 67,
      "hit": false,
      "t": 254059.0529999988,
      "d": 15.623901041661156,
      "v": 103
    },
    {
      "midi": 63,
      "hit": false,
      "t": 254982.06499999878,
      "d": 15.623901041661156,
      "v": 107
    },
    {
      "midi": 67,
      "hit": false,
      "t": 254982.06499999878,
      "d": 15.623901041661156,
      "v": 106
    },
    {
      "midi": 63,
      "hit": false,
      "t": 255443.57099999877,
      "d": 15.623901041661156,
      "v": 108
    },
    {
      "midi": 67,
      "hit": false,
      "t": 255443.57099999877,
      "d": 15.623901041661156,
      "v": 109
    },
    {
      "midi": 65,
      "hit": false,
      "t": 255674.32399999877,
      "d": 15.623901041661156,
      "v": 103
    },
    {
      "midi": 69,
      "hit": false,
      "t": 255674.32399999877,
      "d": 15.623901041661156,
      "v": 105
    },
    {
      "midi": 65,
      "hit": false,
      "t": 255905.07699999877,
      "d": 15.623901041661156,
      "v": 110
    },
    {
      "midi": 69,
      "hit": false,
      "t": 255905.07699999877,
      "d": 15.623901041661156,
      "v": 103
    },
    {
      "midi": 63,
      "hit": false,
      "t": 256828.08899999876,
      "d": 15.623901041661156,
      "v": 106
    },
    {
      "midi": 67,
      "hit": false,
      "t": 256828.08899999876,
      "d": 15.623901041661156,
      "v": 107
    },
    {
      "midi": 63,
      "hit": false,
      "t": 257289.59499999875,
      "d": 15.623901041661156,
      "v": 107
    },
    {
      "midi": 67,
      "hit": false,
      "t": 257289.59499999875,
      "d": 15.623901041661156,
      "v": 107
    },
    {
      "midi": 65,
      "hit": false,
      "t": 257520.34799999875,
      "d": 15.623901041661156,
      "v": 104
    },
    {
      "midi": 69,
      "hit": false,
      "t": 257520.34799999875,
      "d": 15.623901041661156,
      "v": 107
    },
    {
      "midi": 65,
      "hit": false,
      "t": 257751.10099999874,
      "d": 15.623901041661156,
      "v": 107
    },
    {
      "midi": 69,
      "hit": false,
      "t": 257751.10099999874,
      "d": 15.623901041661156,
      "v": 104
    },
    {
      "midi": 63,
      "hit": false,
      "t": 258674.11299999873,
      "d": 15.623901041661156,
      "v": 110
    },
    {
      "midi": 67,
      "hit": false,
      "t": 258674.11299999873,
      "d": 15.623901041661156,
      "v": 105
    },
    {
      "midi": 63,
      "hit": false,
      "t": 259135.61899999873,
      "d": 15.623901041661156,
      "v": 108
    },
    {
      "midi": 67,
      "hit": false,
      "t": 259135.61899999873,
      "d": 15.623901041661156,
      "v": 103
    },
    {
      "midi": 65,
      "hit": false,
      "t": 259366.37199999872,
      "d": 15.623901041661156,
      "v": 103
    },
    {
      "midi": 69,
      "hit": false,
      "t": 259366.37199999872,
      "d": 15.623901041661156,
      "v": 105
    },
    {
      "midi": 65,
      "hit": false,
      "t": 259597.12499999872,
      "d": 15.623901041661156,
      "v": 103
    },
    {
      "midi": 69,
      "hit": false,
      "t": 259597.12499999872,
      "d": 15.623901041661156,
      "v": 104
    },
    {
      "midi": 65,
      "hit": false,
      "t": 259827.87800000023,
      "d": 227.1474843749893,
      "v": 1
    },
    {
      "midi": 69,
      "hit": false,
      "t": 259827.87800000023,
      "d": 227.1474843749893,
      "v": 1
    },
    {
      "midi": 62,
      "hit": false,
      "t": 260058.63100000023,
      "d": 919.4064843750093,
      "v": 1
    },
    {
      "midi": 65,
      "hit": false,
      "t": 260058.63100000023,
      "d": 919.4064843750093,
      "v": 1
    },
    {
      "midi": 63,
      "hit": false,
      "t": 260520.1369999987,
      "d": 15.623901041661156,
      "v": 107
    },
    {
      "midi": 67,
      "hit": false,
      "t": 260520.1369999987,
      "d": 15.623901041661156,
      "v": 107
    },
    {
      "midi": 63,
      "hit": false,
      "t": 260981.6429999987,
      "d": 15.623901041661156,
      "v": 103
    },
    {
      "midi": 67,
      "hit": false,
      "t": 260981.6429999987,
      "d": 15.623901041661156,
      "v": 105
    },
    {
      "midi": 60,
      "hit": false,
      "t": 260981.64300000024,
      "d": 919.4064843750093,
      "v": 1
    },
    {
      "midi": 63,
      "hit": false,
      "t": 260981.64300000024,
      "d": 919.4064843750093,
      "v": 1
    },
    {
      "midi": 65,
      "hit": false,
      "t": 261212.3959999987,
      "d": 15.623901041661156,
      "v": 107
    },
    {
      "midi": 69,
      "hit": false,
      "t": 261212.3959999987,
      "d": 15.623901041661156,
      "v": 107
    },
    {
      "midi": 65,
      "hit": false,
      "t": 261443.1489999987,
      "d": 15.623901041661156,
      "v": 103
    },
    {
      "midi": 69,
      "hit": false,
      "t": 261443.1489999987,
      "d": 15.623901041661156,
      "v": 108
    },
    {
      "midi": 56,
      "hit": false,
      "t": 261904.65500000026,
      "d": 227.1474843749893,
      "v": 1
    },
    {
      "midi": 60,
      "hit": false,
      "t": 261904.65500000026,
      "d": 227.1474843749893,
      "v": 1
    },
    {
      "midi": 58,
      "hit": false,
      "t": 262135.40800000026,
      "d": 2073.171484374994,
      "v": 1
    },
    {
      "midi": 61,
      "hit": false,
      "t": 262135.40800000026,
      "d": 2073.171484374994,
      "v": 1
    },
    {
      "midi": 61,
      "hit": false,
      "t": 262366.1609999987,
      "d": 15.62390104169026,
      "v": 103
    },
    {
      "midi": 65,
      "hit": false,
      "t": 262366.1609999987,
      "d": 15.62390104169026,
      "v": 103
    },
    {
      "midi": 61,
      "hit": false,
      "t": 262827.66699999874,
      "d": 15.62390104169026,
      "v": 105
    },
    {
      "midi": 65,
      "hit": false,
      "t": 262827.66699999874,
      "d": 15.62390104169026,
      "v": 110
    },
    {
      "midi": 63,
      "hit": false,
      "t": 263058.41999999876,
      "d": 15.62390104169026,
      "v": 106
    },
    {
      "midi": 66,
      "hit": false,
      "t": 263058.41999999876,
      "d": 15.62390104169026,
      "v": 109
    },
    {
      "midi": 61,
      "hit": false,
      "t": 263519.9259999988,
      "d": 15.62390104169026,
      "v": 104
    },
    {
      "midi": 65,
      "hit": false,
      "t": 263519.9259999988,
      "d": 15.62390104169026,
      "v": 106
    },
    {
      "midi": 29,
      "hit": false,
      "t": 264442.9379999999,
      "d": 1270.3433385416865,
      "v": 127
    },
    {
      "midi": 49,
      "hit": false,
      "t": 265827.45599999995,
      "d": 260.79896354168886,
      "v": 95
    },
    {
      "midi": 53,
      "hit": false,
      "t": 265827.45599999995,
      "d": 270.4136718750233,
      "v": 116
    },
    {
      "midi": 58,
      "hit": false,
      "t": 265827.45599999995,
      "d": 282.43205729167676,
      "v": 101
    },
    {
      "midi": 34,
      "hit": false,
      "t": 265827.45599999995,
      "d": 344.9276614583214,
      "v": 127
    }
  ]
}