{
  "jsonPath": "Unknown/Unknown/Mariano Yanani/i-shot-the-sheriff.json",
  "path": "Unknown\\Unknown\\Mariano Yanani\\I Shot The Sheriff.mid",
  "name": "I Shot The Sheriff",
  "difficulty": "Advanced",
  "bpm": 98.00094407576127,
  "notes": [
    {
      "midi": 55,
      "hit": false,
      "t": 8743.53821875,
      "d": 401.7818437500009,
      "v": 83
    },
    {
      "midi": 67,
      "hit": false,
      "t": 8877.4655,
      "d": 95.66234375000022,
      "v": 104
    },
    {
      "midi": 62,
      "hit": false,
      "t": 8877.4655,
      "d": 102.03983333333417,
      "v": 100
    },
    {
      "midi": 58,
      "hit": false,
      "t": 8877.4655,
      "d": 114.79481250000026,
      "v": 94
    },
    {
      "midi": 58,
      "hit": false,
      "t": 9049.65771875,
      "d": 95.66234375000022,
      "v": 81
    },
    {
      "midi": 62,
      "hit": false,
      "t": 9049.65771875,
      "d": 95.66234375000022,
      "v": 100
    },
    {
      "midi": 67,
      "hit": false,
      "t": 9049.65771875,
      "d": 95.66234375000022,
      "v": 101
    },
    {
      "midi": 48,
      "hit": false,
      "t": 11192.49421875,
      "d": 471.93422916666714,
      "v": 93
    },
    {
      "midi": 67,
      "hit": false,
      "t": 11326.4215,
      "d": 114.79481250000026,
      "v": 108
    },
    {
      "midi": 63,
      "hit": false,
      "t": 11326.4215,
      "d": 121.17230208333422,
      "v": 94
    },
    {
      "midi": 60,
      "hit": false,
      "t": 11326.4215,
      "d": 133.9272812500003,
      "v": 95
    },
    {
      "midi": 60,
      "hit": false,
      "t": 11498.61371875,
      "d": 95.66234375000022,
      "v": 90
    },
    {
      "midi": 63,
      "hit": false,
      "t": 11498.61371875,
      "d": 95.66234375000022,
      "v": 98
    },
    {
      "midi": 67,
      "hit": false,
      "t": 11498.61371875,
      "d": 95.66234375000022,
      "v": 103
    },
    {
      "midi": 55,
      "hit": false,
      "t": 13641.45021875,
      "d": 446.42427083333496,
      "v": 84
    },
    {
      "midi": 67,
      "hit": false,
      "t": 13775.3775,
      "d": 89.28485416666626,
      "v": 100
    },
    {
      "midi": 62,
      "hit": false,
      "t": 13775.3775,
      "d": 95.66234375000022,
      "v": 104
    },
    {
      "midi": 58,
      "hit": false,
      "t": 13775.3775,
      "d": 114.79481250000026,
      "v": 87
    },
    {
      "midi": 58,
      "hit": false,
      "t": 13947.56971875,
      "d": 95.66234375000022,
      "v": 94
    },
    {
      "midi": 62,
      "hit": false,
      "t": 13947.56971875,
      "d": 95.66234375000022,
      "v": 91
    },
    {
      "midi": 67,
      "hit": false,
      "t": 13947.56971875,
      "d": 95.66234375000022,
      "v": 104
    },
    {
      "midi": 55,
      "hit": false,
      "t": 16090.406218750002,
      "d": 503.82167708333145,
      "v": 84
    },
    {
      "midi": 67,
      "hit": false,
      "t": 16224.333500000002,
      "d": 121.17230208333422,
      "v": 100
    },
    {
      "midi": 62,
      "hit": false,
      "t": 16224.333500000002,
      "d": 133.9272812500003,
      "v": 106
    },
    {
      "midi": 58,
      "hit": false,
      "t": 16224.333500000002,
      "d": 140.30477083333426,
      "v": 88
    },
    {
      "midi": 58,
      "hit": false,
      "t": 16396.525718750003,
      "d": 95.6623437499984,
      "v": 94
    },
    {
      "midi": 62,
      "hit": false,
      "t": 16396.525718750003,
      "d": 95.6623437499984,
      "v": 111
    },
    {
      "midi": 67,
      "hit": false,
      "t": 16396.525718750003,
      "d": 95.6623437499984,
      "v": 105
    },
    {
      "midi": 55,
      "hit": false,
      "t": 18539.36221875,
      "d": 401.78184374999546,
      "v": 82
    },
    {
      "midi": 62,
      "hit": false,
      "t": 18673.2895,
      "d": 114.79481250000026,
      "v": 106
    },
    {
      "midi": 67,
      "hit": false,
      "t": 18673.2895,
      "d": 114.79481250000026,
      "v": 106
    },
    {
      "midi": 58,
      "hit": false,
      "t": 18673.2895,
      "d": 140.30477083333244,
      "v": 91
    },
    {
      "midi": 58,
      "hit": false,
      "t": 18845.481718749998,
      "d": 95.6623437499984,
      "v": 80
    },
    {
      "midi": 62,
      "hit": false,
      "t": 18845.481718749998,
      "d": 95.6623437499984,
      "v": 104
    },
    {
      "midi": 67,
      "hit": false,
      "t": 18845.481718749998,
      "d": 95.6623437499984,
      "v": 96
    },
    {
      "midi": 48,
      "hit": false,
      "t": 20988.318218749995,
      "d": 197.70217708333075,
      "v": 93
    },
    {
      "midi": 60,
      "hit": false,
      "t": 21122.245499999994,
      "d": 95.6623437499984,
      "v": 99
    },
    {
      "midi": 63,
      "hit": false,
      "t": 21122.245499999994,
      "d": 95.6623437499984,
      "v": 104
    },
    {
      "midi": 67,
      "hit": false,
      "t": 21122.245499999994,
      "d": 95.6623437499984,
      "v": 108
    },
    {
      "midi": 55,
      "hit": false,
      "t": 23437.27421874999,
      "d": 401.78184374999546,
      "v": 82
    },
    {
      "midi": 67,
      "hit": false,
      "t": 23571.20149999999,
      "d": 102.03983333333235,
      "v": 107
    },
    {
      "midi": 58,
      "hit": false,
      "t": 23571.20149999999,
      "d": 114.79481250000026,
      "v": 98
    },
    {
      "midi": 62,
      "hit": false,
      "t": 23571.20149999999,
      "d": 114.79481250000026,
      "v": 106
    },
    {
      "midi": 58,
      "hit": false,
      "t": 23743.393718749987,
      "d": 95.6623437499984,
      "v": 87
    },
    {
      "midi": 62,
      "hit": false,
      "t": 23743.393718749987,
      "d": 95.6623437499984,
      "v": 82
    },
    {
      "midi": 67,
      "hit": false,
      "t": 23743.393718749987,
      "d": 95.6623437499984,
      "v": 103
    },
    {
      "midi": 55,
      "hit": false,
      "t": 25886.230218749984,
      "d": 401.78184374999546,
      "v": 87
    },
    {
      "midi": 67,
      "hit": false,
      "t": 26020.157499999983,
      "d": 114.79481250000026,
      "v": 107
    },
    {
      "midi": 58,
      "hit": false,
      "t": 26020.157499999983,
      "d": 133.9272812499985,
      "v": 102
    },
    {
      "midi": 62,
      "hit": false,
      "t": 26020.157499999983,
      "d": 133.9272812499985,
      "v": 108
    },
    {
      "midi": 58,
      "hit": false,
      "t": 26192.34971874998,
      "d": 95.6623437499984,
      "v": 97
    },
    {
      "midi": 62,
      "hit": false,
      "t": 26192.34971874998,
      "d": 95.6623437499984,
      "v": 105
    },
    {
      "midi": 67,
      "hit": false,
      "t": 26192.34971874998,
      "d": 95.6623437499984,
      "v": 108
    },
    {
      "midi": 70,
      "hit": false,
      "t": 27244.63549999998,
      "d": 133.9272812499985,
      "v": 88
    },
    {
      "midi": 67,
      "hit": false,
      "t": 27244.63549999998,
      "d": 140.30477083333244,
      "v": 86
    },
    {
      "midi": 75,
      "hit": false,
      "t": 27244.63549999998,
      "d": 140.30477083333244,
      "v": 91
    },
    {
      "midi": 70,
      "hit": false,
      "t": 27856.874499999976,
      "d": 140.30477083333244,
      "v": 98
    },
    {
      "midi": 67,
      "hit": false,
      "t": 27856.874499999976,
      "d": 159.43723958333067,
      "v": 85
    },
    {
      "midi": 75,
      "hit": false,
      "t": 27856.874499999976,
      "d": 159.43723958333067,
      "v": 97
    },
    {
      "midi": 69,
      "hit": false,
      "t": 28469.113499999974,
      "d": 114.79481250000026,
      "v": 97
    },
    {
      "midi": 74,
      "hit": false,
      "t": 28469.113499999974,
      "d": 121.17230208333422,
      "v": 103
    },
    {
      "midi": 65,
      "hit": false,
      "t": 28469.113499999974,
      "d": 159.4372395833343,
      "v": 88
    },
    {
      "midi": 65,
      "hit": false,
      "t": 29081.352499999975,
      "d": 178.56970833333253,
      "v": 88
    },
    {
      "midi": 69,
      "hit": false,
      "t": 29081.352499999975,
      "d": 178.56970833333253,
      "v": 97
    },
    {
      "midi": 74,
      "hit": false,
      "t": 29081.352499999975,
      "d": 191.32468750000044,
      "v": 100
    },
    {
      "midi": 74,
      "hit": false,
      "t": 29693.591499999977,
      "d": 140.30477083333244,
      "v": 99
    },
    {
      "midi": 70,
      "hit": false,
      "t": 29693.591499999977,
      "d": 146.6822604166664,
      "v": 87
    },
    {
      "midi": 67,
      "hit": false,
      "t": 29693.591499999977,
      "d": 159.4372395833343,
      "v": 93
    },
    {
      "midi": 74,
      "hit": false,
      "t": 30305.83049999998,
      "d": 102.03983333333235,
      "v": 95
    },
    {
      "midi": 70,
      "hit": false,
      "t": 30305.83049999998,
      "d": 114.79481250000026,
      "v": 88
    },
    {
      "midi": 67,
      "hit": false,
      "t": 30305.83049999998,
      "d": 121.17230208333422,
      "v": 90
    },
    {
      "midi": 74,
      "hit": false,
      "t": 30918.06949999998,
      "d": 95.6623437499984,
      "v": 99
    },
    {
      "midi": 70,
      "hit": false,
      "t": 30918.06949999998,
      "d": 102.03983333333235,
      "v": 91
    },
    {
      "midi": 67,
      "hit": false,
      "t": 30918.06949999998,
      "d": 108.41732291666631,
      "v": 92
    },
    {
      "midi": 67,
      "hit": false,
      "t": 31530.308499999977,
      "d": 114.79481250000026,
      "v": 95
    },
    {
      "midi": 70,
      "hit": false,
      "t": 31530.308499999977,
      "d": 114.79481250000026,
      "v": 90
    },
    {
      "midi": 74,
      "hit": false,
      "t": 31530.308499999977,
      "d": 114.79481250000026,
      "v": 100
    },
    {
      "midi": 67,
      "hit": false,
      "t": 32142.54749999998,
      "d": 89.28485416666808,
      "v": 96
    },
    {
      "midi": 70,
      "hit": false,
      "t": 32142.54749999998,
      "d": 89.28485416666808,
      "v": 99
    },
    {
      "midi": 75,
      "hit": false,
      "t": 32142.54749999998,
      "d": 114.79481250000026,
      "v": 98
    },
    {
      "midi": 70,
      "hit": false,
      "t": 32754.78649999998,
      "d": 108.41732291666995,
      "v": 94
    },
    {
      "midi": 75,
      "hit": false,
      "t": 32754.78649999998,
      "d": 121.17230208333785,
      "v": 95
    },
    {
      "midi": 67,
      "hit": false,
      "t": 32754.78649999998,
      "d": 127.54979166667181,
      "v": 96
    },
    {
      "midi": 69,
      "hit": false,
      "t": 33367.02549999999,
      "d": 108.41732291666995,
      "v": 93
    },
    {
      "midi": 74,
      "hit": false,
      "t": 33367.02549999999,
      "d": 114.7948125000039,
      "v": 100
    },
    {
      "midi": 65,
      "hit": false,
      "t": 33367.02549999999,
      "d": 127.54979166667181,
      "v": 86
    },
    {
      "midi": 69,
      "hit": false,
      "t": 33979.2645,
      "d": 95.66234375000204,
      "v": 90
    },
    {
      "midi": 65,
      "hit": false,
      "t": 33979.2645,
      "d": 108.41732291666995,
      "v": 85
    },
    {
      "midi": 74,
      "hit": false,
      "t": 33979.2645,
      "d": 108.41732291666995,
      "v": 98
    },
    {
      "midi": 70,
      "hit": false,
      "t": 34591.5035,
      "d": 89.28485416666808,
      "v": 88
    },
    {
      "midi": 74,
      "hit": false,
      "t": 34591.5035,
      "d": 102.03983333333599,
      "v": 100
    },
    {
      "midi": 67,
      "hit": false,
      "t": 34591.5035,
      "d": 114.7948125000039,
      "v": 93
    },
    {
      "midi": 70,
      "hit": false,
      "t": 35203.7425,
      "d": 89.28485416666808,
      "v": 87
    },
    {
      "midi": 74,
      "hit": false,
      "t": 35203.7425,
      "d": 89.28485416666808,
      "v": 96
    },
    {
      "midi": 67,
      "hit": false,
      "t": 35203.7425,
      "d": 102.03983333333599,
      "v": 94
    },
    {
      "midi": 74,
      "hit": false,
      "t": 35815.9815,
      "d": 89.28485416666808,
      "v": 100
    },
    {
      "midi": 67,
      "hit": false,
      "t": 35815.9815,
      "d": 95.66234375000204,
      "v": 98
    },
    {
      "midi": 70,
      "hit": false,
      "t": 35815.9815,
      "d": 95.66234375000204,
      "v": 94
    },
    {
      "midi": 70,
      "hit": false,
      "t": 36428.2205,
      "d": 95.66234375000204,
      "v": 94
    },
    {
      "midi": 74,
      "hit": false,
      "t": 36428.2205,
      "d": 95.66234375000204,
      "v": 105
    },
    {
      "midi": 67,
      "hit": false,
      "t": 36428.2205,
      "d": 108.41732291666995,
      "v": 99
    },
    {
      "midi": 67,
      "hit": false,
      "t": 37040.459500000004,
      "d": 89.28485416666808,
      "v": 95
    },
    {
      "midi": 70,
      "hit": false,
      "t": 37040.459500000004,
      "d": 89.28485416666808,
      "v": 101
    },
    {
      "midi": 75,
      "hit": false,
      "t": 37040.459500000004,
      "d": 114.7948125000039,
      "v": 101
    },
    {
      "midi": 67,
      "hit": false,
      "t": 37652.698500000006,
      "d": 95.66234375000204,
      "v": 93
    },
    {
      "midi": 70,
      "hit": false,
      "t": 37652.698500000006,
      "d": 95.66234375000204,
      "v": 102
    },
    {
      "midi": 75,
      "hit": false,
      "t": 37652.698500000006,
      "d": 102.03983333333599,
      "v": 101
    },
    {
      "midi": 69,
      "hit": false,
      "t": 38264.93750000001,
      "d": 89.28485416666808,
      "v": 93
    },
    {
      "midi": 74,
      "hit": false,
      "t": 38264.93750000001,
      "d": 95.66234375000204,
      "v": 96
    },
    {
      "midi": 65,
      "hit": false,
      "t": 38264.93750000001,
      "d": 102.03983333333599,
      "v": 84
    },
    {
      "midi": 69,
      "hit": false,
      "t": 38877.17650000001,
      "d": 89.28485416666808,
      "v": 99
    },
    {
      "midi": 65,
      "hit": false,
      "t": 38877.17650000001,
      "d": 102.03983333333599,
      "v": 93
    },
    {
      "midi": 74,
      "hit": false,
      "t": 38877.17650000001,
      "d": 102.03983333333599,
      "v": 104
    },
    {
      "midi": 70,
      "hit": false,
      "t": 39489.41550000001,
      "d": 89.28485416666808,
      "v": 87
    },
    {
      "midi": 74,
      "hit": false,
      "t": 39489.41550000001,
      "d": 95.66234375000204,
      "v": 94
    },
    {
      "midi": 67,
      "hit": false,
      "t": 39489.41550000001,
      "d": 108.41732291666995,
      "v": 90
    },
    {
      "midi": 70,
      "hit": false,
      "t": 40101.65450000001,
      "d": 89.28485416666808,
      "v": 91
    },
    {
      "midi": 74,
      "hit": false,
      "t": 40101.65450000001,
      "d": 89.28485416666808,
      "v": 101
    },
    {
      "midi": 67,
      "hit": false,
      "t": 40101.65450000001,
      "d": 102.03983333333599,
      "v": 100
    },
    {
      "midi": 70,
      "hit": false,
      "t": 40713.89350000001,
      "d": 82.90736458333413,
      "v": 91
    },
    {
      "midi": 74,
      "hit": false,
      "t": 40713.89350000001,
      "d": 82.90736458333413,
      "v": 104
    },
    {
      "midi": 67,
      "hit": false,
      "t": 40713.89350000001,
      "d": 95.66234375000204,
      "v": 100
    },
    {
      "midi": 67,
      "hit": false,
      "t": 41326.132500000014,
      "d": 89.28485416666808,
      "v": 100
    },
    {
      "midi": 70,
      "hit": false,
      "t": 41326.132500000014,
      "d": 89.28485416666808,
      "v": 99
    },
    {
      "midi": 74,
      "hit": false,
      "t": 41326.132500000014,
      "d": 89.28485416666808,
      "v": 105
    },
    {
      "midi": 67,
      "hit": false,
      "t": 41938.371500000016,
      "d": 89.28485416666808,
      "v": 94
    },
    {
      "midi": 70,
      "hit": false,
      "t": 41938.371500000016,
      "d": 89.28485416666808,
      "v": 94
    },
    {
      "midi": 75,
      "hit": false,
      "t": 41938.371500000016,
      "d": 114.7948125000039,
      "v": 98
    },
    {
      "midi": 70,
      "hit": false,
      "t": 42550.61050000002,
      "d": 89.28485416666808,
      "v": 102
    },
    {
      "midi": 67,
      "hit": false,
      "t": 42550.61050000002,
      "d": 95.66234375000204,
      "v": 103
    },
    {
      "midi": 75,
      "hit": false,
      "t": 42550.61050000002,
      "d": 95.66234375000204,
      "v": 101
    },
    {
      "midi": 69,
      "hit": false,
      "t": 43162.84950000002,
      "d": 89.28485416666808,
      "v": 92
    },
    {
      "midi": 65,
      "hit": false,
      "t": 43162.84950000002,
      "d": 108.41732291666995,
      "v": 86
    },
    {
      "midi": 74,
      "hit": false,
      "t": 43162.84950000002,
      "d": 114.7948125000039,
      "v": 99
    },
    {
      "midi": 65,
      "hit": false,
      "t": 43775.08850000002,
      "d": 114.79481249999662,
      "v": 87
    },
    {
      "midi": 69,
      "hit": false,
      "t": 43775.08850000002,
      "d": 114.79481249999662,
      "v": 96
    },
    {
      "midi": 74,
      "hit": false,
      "t": 43775.08850000002,
      "d": 114.79481249999662,
      "v": 100
    },
    {
      "midi": 74,
      "hit": false,
      "t": 44387.327500000014,
      "d": 95.66234375000204,
      "v": 95
    },
    {
      "midi": 70,
      "hit": false,
      "t": 44387.327500000014,
      "d": 102.03983333333599,
      "v": 87
    },
    {
      "midi": 67,
      "hit": false,
      "t": 44387.327500000014,
      "d": 108.41732291666995,
      "v": 93
    },
    {
      "midi": 70,
      "hit": false,
      "t": 44999.566500000015,
      "d": 89.28485416666808,
      "v": 91
    },
    {
      "midi": 74,
      "hit": false,
      "t": 44999.566500000015,
      "d": 95.66234375000204,
      "v": 100
    },
    {
      "midi": 67,
      "hit": false,
      "t": 44999.566500000015,
      "d": 102.03983333333599,
      "v": 93
    },
    {
      "midi": 70,
      "hit": false,
      "t": 45611.80550000002,
      "d": 95.66234375000204,
      "v": 90
    },
    {
      "midi": 74,
      "hit": false,
      "t": 45611.80550000002,
      "d": 102.03983333333599,
      "v": 100
    },
    {
      "midi": 67,
      "hit": false,
      "t": 45611.80550000002,
      "d": 108.41732291666995,
      "v": 97
    },
    {
      "midi": 70,
      "hit": false,
      "t": 46224.04450000002,
      "d": 95.66234375000204,
      "v": 94
    },
    {
      "midi": 67,
      "hit": false,
      "t": 46224.04450000002,
      "d": 102.03983333333599,
      "v": 99
    },
    {
      "midi": 74,
      "hit": false,
      "t": 46224.04450000002,
      "d": 102.03983333333599,
      "v": 101
    },
    {
      "midi": 67,
      "hit": false,
      "t": 46836.28350000002,
      "d": 76.52987500000017,
      "v": 86
    },
    {
      "midi": 70,
      "hit": false,
      "t": 46836.28350000002,
      "d": 82.90736458333413,
      "v": 95
    },
    {
      "midi": 75,
      "hit": false,
      "t": 46836.28350000002,
      "d": 95.66234375000204,
      "v": 93
    },
    {
      "midi": 70,
      "hit": false,
      "t": 47448.52250000002,
      "d": 89.28485416666808,
      "v": 104
    },
    {
      "midi": 67,
      "hit": false,
      "t": 47448.52250000002,
      "d": 95.66234375000204,
      "v": 100
    },
    {
      "midi": 75,
      "hit": false,
      "t": 47448.52250000002,
      "d": 108.41732291666995,
      "v": 102
    },
    {
      "midi": 69,
      "hit": false,
      "t": 48060.76150000002,
      "d": 89.28485416666808,
      "v": 99
    },
    {
      "midi": 74,
      "hit": false,
      "t": 48060.76150000002,
      "d": 108.41732291666995,
      "v": 103
    },
    {
      "midi": 65,
      "hit": false,
      "t": 48060.76150000002,
      "d": 114.7948125000039,
      "v": 93
    },
    {
      "midi": 69,
      "hit": false,
      "t": 48673.000500000024,
      "d": 95.66234375000204,
      "v": 100
    },
    {
      "midi": 65,
      "hit": false,
      "t": 48673.000500000024,
      "d": 102.03983333333599,
      "v": 91
    },
    {
      "midi": 74,
      "hit": false,
      "t": 48673.000500000024,
      "d": 102.03983333333599,
      "v": 103
    },
    {
      "midi": 70,
      "hit": false,
      "t": 49285.239500000025,
      "d": 89.28485416666808,
      "v": 87
    },
    {
      "midi": 74,
      "hit": false,
      "t": 49285.239500000025,
      "d": 95.66234375000204,
      "v": 90
    },
    {
      "midi": 67,
      "hit": false,
      "t": 49285.239500000025,
      "d": 102.03983333333599,
      "v": 88
    },
    {
      "midi": 70,
      "hit": false,
      "t": 49897.47850000003,
      "d": 89.28485416666808,
      "v": 90
    },
    {
      "midi": 67,
      "hit": false,
      "t": 49897.47850000003,
      "d": 95.66234375000204,
      "v": 93
    },
    {
      "midi": 74,
      "hit": false,
      "t": 49897.47850000003,
      "d": 95.66234375000204,
      "v": 96
    },
    {
      "midi": 74,
      "hit": false,
      "t": 50509.71750000003,
      "d": 89.28485416666808,
      "v": 93
    },
    {
      "midi": 67,
      "hit": false,
      "t": 50509.71750000003,
      "d": 102.03983333333599,
      "v": 94
    },
    {
      "midi": 70,
      "hit": false,
      "t": 50509.71750000003,
      "d": 102.03983333333599,
      "v": 87
    },
    {
      "midi": 74,
      "hit": false,
      "t": 51121.95650000003,
      "d": 133.9272812499985,
      "v": 101
    },
    {
      "midi": 79,
      "hit": false,
      "t": 51428.07600000003,
      "d": 286.98703124999884,
      "v": 101
    },
    {
      "midi": 43,
      "hit": false,
      "t": 51428.07600000003,
      "d": 376.2718854166669,
      "v": 89
    },
    {
      "midi": 41,
      "hit": false,
      "t": 51906.38771875003,
      "d": 293.3645208333328,
      "v": 93
    },
    {
      "midi": 77,
      "hit": false,
      "t": 51906.38771875003,
      "d": 299.74201041666674,
      "v": 100
    },
    {
      "midi": 74,
      "hit": false,
      "t": 52346.43450000003,
      "d": 420.9143124999973,
      "v": 94
    },
    {
      "midi": 38,
      "hit": false,
      "t": 52346.43450000003,
      "d": 497.4441874999975,
      "v": 96
    },
    {
      "midi": 72,
      "hit": false,
      "t": 52958.673500000026,
      "d": 140.30477083333244,
      "v": 103
    },
    {
      "midi": 36,
      "hit": false,
      "t": 52958.673500000026,
      "d": 191.3246874999968,
      "v": 100
    },
    {
      "midi": 70,
      "hit": false,
      "t": 53264.79300000002,
      "d": 127.54979166666453,
      "v": 97
    },
    {
      "midi": 34,
      "hit": false,
      "t": 53264.79300000002,
      "d": 140.30477083333244,
      "v": 99
    },
    {
      "midi": 74,
      "hit": false,
      "t": 53570.91250000002,
      "d": 153.05975000000035,
      "v": 100
    },
    {
      "midi": 38,
      "hit": false,
      "t": 53570.91250000002,
      "d": 191.3246874999968,
      "v": 95
    },
    {
      "midi": 72,
      "hit": false,
      "t": 53877.032000000014,
      "d": 344.38443749999715,
      "v": 97
    },
    {
      "midi": 36,
      "hit": false,
      "t": 53877.032000000014,
      "d": 369.89439583333296,
      "v": 93
    },
    {
      "midi": 34,
      "hit": false,
      "t": 54355.34371875002,
      "d": 274.2320520833309,
      "v": 87
    },
    {
      "midi": 70,
      "hit": false,
      "t": 54355.34371875002,
      "d": 274.2320520833309,
      "v": 92
    },
    {
      "midi": 67,
      "hit": false,
      "t": 54795.390500000016,
      "d": 1039.5308020833327,
      "v": 91
    },
    {
      "midi": 31,
      "hit": false,
      "t": 54795.390500000016,
      "d": 1275.4979166666672,
      "v": 88
    },
    {
      "midi": 62,
      "hit": false,
      "t": 57550.466000000015,
      "d": 95.66234375000204,
      "v": 104
    },
    {
      "midi": 67,
      "hit": false,
      "t": 57550.466000000015,
      "d": 140.30477083333244,
      "v": 92
    },
    {
      "midi": 58,
      "hit": false,
      "t": 57550.466000000015,
      "d": 153.05975000000035,
      "v": 75
    },
    {
      "midi": 62,
      "hit": false,
      "t": 58028.77771875002,
      "d": 114.79481249999662,
      "v": 98
    },
    {
      "midi": 67,
      "hit": false,
      "t": 58028.77771875002,
      "d": 127.54979166666453,
      "v": 85
    },
    {
      "midi": 58,
      "hit": false,
      "t": 58028.77771875002,
      "d": 133.9272812499985,
      "v": 66
    },
    {
      "midi": 62,
      "hit": false,
      "t": 58468.82450000002,
      "d": 63.774895833332266,
      "v": 93
    },
    {
      "midi": 67,
      "hit": false,
      "t": 58468.82450000002,
      "d": 63.774895833332266,
      "v": 76
    },
    {
      "midi": 58,
      "hit": false,
      "t": 58468.82450000002,
      "d": 95.66234375000204,
      "v": 72
    },
    {
      "midi": 62,
      "hit": false,
      "t": 59081.06350000002,
      "d": 70.15238541666622,
      "v": 91
    },
    {
      "midi": 67,
      "hit": false,
      "t": 59081.06350000002,
      "d": 70.15238541666622,
      "v": 76
    },
    {
      "midi": 58,
      "hit": false,
      "t": 59081.06350000002,
      "d": 95.66234375000204,
      "v": 61
    },
    {
      "midi": 62,
      "hit": false,
      "t": 59253.25571875002,
      "d": 70.15238541666622,
      "v": 103
    },
    {
      "midi": 67,
      "hit": false,
      "t": 59253.25571875002,
      "d": 89.28485416666808,
      "v": 95
    },
    {
      "midi": 58,
      "hit": false,
      "t": 59253.25571875002,
      "d": 114.7948125000039,
      "v": 78
    },
    {
      "midi": 63,
      "hit": false,
      "t": 59999.42200000003,
      "d": 114.79481249999662,
      "v": 76
    },
    {
      "midi": 67,
      "hit": false,
      "t": 59999.42200000003,
      "d": 114.79481249999662,
      "v": 75
    },
    {
      "midi": 60,
      "hit": false,
      "t": 59999.42200000003,
      "d": 165.81472916666098,
      "v": 73
    },
    {
      "midi": 63,
      "hit": false,
      "t": 60477.73371875002,
      "d": 95.66234375000204,
      "v": 72
    },
    {
      "midi": 67,
      "hit": false,
      "t": 60477.73371875002,
      "d": 95.66234375000204,
      "v": 80
    },
    {
      "midi": 60,
      "hit": false,
      "t": 60477.73371875002,
      "d": 102.03983333333599,
      "v": 72
    },
    {
      "midi": 67,
      "hit": false,
      "t": 60917.78050000002,
      "d": 89.28485416666808,
      "v": 88
    },
    {
      "midi": 63,
      "hit": false,
      "t": 60917.78050000002,
      "d": 95.66234375000204,
      "v": 82
    },
    {
      "midi": 60,
      "hit": false,
      "t": 60917.78050000002,
      "d": 108.41732291666995,
      "v": 84
    },
    {
      "midi": 63,
      "hit": false,
      "t": 61530.019500000024,
      "d": 76.52987500000017,
      "v": 81
    },
    {
      "midi": 67,
      "hit": false,
      "t": 61530.019500000024,
      "d": 76.52987500000017,
      "v": 86
    },
    {
      "midi": 60,
      "hit": false,
      "t": 61530.019500000024,
      "d": 82.90736458333413,
      "v": 77
    },
    {
      "midi": 67,
      "hit": false,
      "t": 61702.211718750026,
      "d": 51.01991666666436,
      "v": 86
    },
    {
      "midi": 63,
      "hit": false,
      "t": 61702.211718750026,
      "d": 70.15238541666622,
      "v": 90
    },
    {
      "midi": 60,
      "hit": false,
      "t": 61702.211718750026,
      "d": 82.90736458333413,
      "v": 90
    },
    {
      "midi": 62,
      "hit": false,
      "t": 62448.378000000026,
      "d": 82.90736458333413,
      "v": 100
    },
    {
      "midi": 58,
      "hit": false,
      "t": 62448.378000000026,
      "d": 114.7948125000039,
      "v": 73
    },
    {
      "midi": 67,
      "hit": false,
      "t": 62448.378000000026,
      "d": 114.7948125000039,
      "v": 86
    },
    {
      "midi": 62,
      "hit": false,
      "t": 62926.68971875003,
      "d": 89.28485416666808,
      "v": 95
    },
    {
      "midi": 67,
      "hit": false,
      "t": 62926.68971875003,
      "d": 95.66234375000204,
      "v": 81
    },
    {
      "midi": 58,
      "hit": false,
      "t": 62926.68971875003,
      "d": 114.7948125000039,
      "v": 73
    },
    {
      "midi": 67,
      "hit": false,
      "t": 63366.736500000035,
      "d": 70.15238541666622,
      "v": 80
    },
    {
      "midi": 62,
      "hit": false,
      "t": 63366.736500000035,
      "d": 76.52987500000017,
      "v": 93
    },
    {
      "midi": 58,
      "hit": false,
      "t": 63366.736500000035,
      "d": 108.41732291666995,
      "v": 69
    },
    {
      "midi": 62,
      "hit": false,
      "t": 63978.97550000004,
      "d": 82.90736458333413,
      "v": 103
    },
    {
      "midi": 67,
      "hit": false,
      "t": 63978.97550000004,
      "d": 82.90736458333413,
      "v": 90
    },
    {
      "midi": 58,
      "hit": false,
      "t": 63978.97550000004,
      "d": 108.41732291666995,
      "v": 74
    },
    {
      "midi": 67,
      "hit": false,
      "t": 64151.16771875004,
      "d": 57.39740624999831,
      "v": 85
    },
    {
      "midi": 62,
      "hit": false,
      "t": 64151.16771875004,
      "d": 70.15238541666622,
      "v": 100
    },
    {
      "midi": 58,
      "hit": false,
      "t": 64151.16771875004,
      "d": 102.03983333333599,
      "v": 69
    },
    {
      "midi": 62,
      "hit": false,
      "t": 64897.33400000004,
      "d": 82.90736458333413,
      "v": 95
    },
    {
      "midi": 67,
      "hit": false,
      "t": 64897.33400000004,
      "d": 89.28485416666808,
      "v": 84
    },
    {
      "midi": 58,
      "hit": false,
      "t": 64897.33400000004,
      "d": 114.7948125000039,
      "v": 71
    },
    {
      "midi": 62,
      "hit": false,
      "t": 65375.64571875004,
      "d": 95.66234375000204,
      "v": 96
    },
    {
      "midi": 67,
      "hit": false,
      "t": 65375.64571875004,
      "d": 95.66234375000204,
      "v": 82
    },
    {
      "midi": 58,
      "hit": false,
      "t": 65375.64571875004,
      "d": 121.17230208333785,
      "v": 69
    },
    {
      "midi": 62,
      "hit": false,
      "t": 65815.69250000005,
      "d": 89.2848541666608,
      "v": 96
    },
    {
      "midi": 67,
      "hit": false,
      "t": 65815.69250000005,
      "d": 89.2848541666608,
      "v": 82
    },
    {
      "midi": 58,
      "hit": false,
      "t": 65815.69250000005,
      "d": 114.79481249999662,
      "v": 74
    },
    {
      "midi": 67,
      "hit": false,
      "t": 66427.93150000005,
      "d": 57.39740625000559,
      "v": 79
    },
    {
      "midi": 62,
      "hit": false,
      "t": 66427.93150000005,
      "d": 63.77489583333954,
      "v": 93
    },
    {
      "midi": 58,
      "hit": false,
      "t": 66427.93150000005,
      "d": 82.9073645833414,
      "v": 66
    },
    {
      "midi": 62,
      "hit": false,
      "t": 66600.12371875005,
      "d": 70.1523854166735,
      "v": 91
    },
    {
      "midi": 67,
      "hit": false,
      "t": 66600.12371875005,
      "d": 70.1523854166735,
      "v": 77
    },
    {
      "midi": 58,
      "hit": false,
      "t": 66600.12371875005,
      "d": 89.28485416667536,
      "v": 68
    },
    {
      "midi": 62,
      "hit": false,
      "t": 67346.29000000007,
      "d": 70.1523854166735,
      "v": 93
    },
    {
      "midi": 67,
      "hit": false,
      "t": 67346.29000000007,
      "d": 76.52987500000745,
      "v": 84
    },
    {
      "midi": 58,
      "hit": false,
      "t": 67346.29000000007,
      "d": 95.66234375000931,
      "v": 70
    },
    {
      "midi": 62,
      "hit": false,
      "t": 67824.60171875007,
      "d": 70.1523854166735,
      "v": 92
    },
    {
      "midi": 67,
      "hit": false,
      "t": 67824.60171875007,
      "d": 82.9073645833414,
      "v": 78
    },
    {
      "midi": 58,
      "hit": false,
      "t": 67824.60171875007,
      "d": 95.66234375000931,
      "v": 66
    },
    {
      "midi": 67,
      "hit": false,
      "t": 68264.64850000008,
      "d": 63.77489583333954,
      "v": 81
    },
    {
      "midi": 62,
      "hit": false,
      "t": 68264.64850000008,
      "d": 70.1523854166735,
      "v": 93
    },
    {
      "midi": 58,
      "hit": false,
      "t": 68264.64850000008,
      "d": 95.66234375000931,
      "v": 71
    },
    {
      "midi": 62,
      "hit": false,
      "t": 68876.8875000001,
      "d": 89.2848541666608,
      "v": 100
    },
    {
      "midi": 67,
      "hit": false,
      "t": 68876.8875000001,
      "d": 102.03983333332872,
      "v": 87
    },
    {
      "midi": 58,
      "hit": false,
      "t": 68876.8875000001,
      "d": 114.79481249999662,
      "v": 68
    },
    {
      "midi": 62,
      "hit": false,
      "t": 69049.0797187501,
      "d": 63.77489583333954,
      "v": 93
    },
    {
      "midi": 67,
      "hit": false,
      "t": 69049.0797187501,
      "d": 63.77489583333954,
      "v": 85
    },
    {
      "midi": 58,
      "hit": false,
      "t": 69049.0797187501,
      "d": 70.1523854166735,
      "v": 68
    },
    {
      "midi": 63,
      "hit": false,
      "t": 69795.2460000001,
      "d": 70.1523854166735,
      "v": 85
    },
    {
      "midi": 67,
      "hit": false,
      "t": 69795.2460000001,
      "d": 82.9073645833414,
      "v": 84
    },
    {
      "midi": 60,
      "hit": false,
      "t": 69795.2460000001,
      "d": 114.79481250001118,
      "v": 74
    },
    {
      "midi": 67,
      "hit": false,
      "t": 70273.55771875012,
      "d": 70.1523854166735,
      "v": 88
    },
    {
      "midi": 63,
      "hit": false,
      "t": 70273.55771875012,
      "d": 82.9073645833414,
      "v": 84
    },
    {
      "midi": 60,
      "hit": false,
      "t": 70273.55771875012,
      "d": 114.79481250001118,
      "v": 78
    },
    {
      "midi": 63,
      "hit": false,
      "t": 70713.60450000013,
      "d": 76.5298749999929,
      "v": 87
    },
    {
      "midi": 67,
      "hit": false,
      "t": 70713.60450000013,
      "d": 89.2848541666608,
      "v": 93
    },
    {
      "midi": 60,
      "hit": false,
      "t": 70713.60450000013,
      "d": 95.66234374999476,
      "v": 80
    },
    {
      "midi": 63,
      "hit": false,
      "t": 71325.84350000013,
      "d": 76.5298749999929,
      "v": 80
    },
    {
      "midi": 67,
      "hit": false,
      "t": 71325.84350000013,
      "d": 76.5298749999929,
      "v": 82
    },
    {
      "midi": 60,
      "hit": false,
      "t": 71325.84350000013,
      "d": 89.2848541666608,
      "v": 74
    },
    {
      "midi": 63,
      "hit": false,
      "t": 71498.03571875012,
      "d": 63.77489583333954,
      "v": 87
    },
    {
      "midi": 67,
      "hit": false,
      "t": 71498.03571875012,
      "d": 63.77489583333954,
      "v": 85
    },
    {
      "midi": 60,
      "hit": false,
      "t": 71498.03571875012,
      "d": 95.66234375000931,
      "v": 84
    },
    {
      "midi": 62,
      "hit": false,
      "t": 72244.20200000014,
      "d": 57.39740625000559,
      "v": 97
    },
    {
      "midi": 67,
      "hit": false,
      "t": 72244.20200000014,
      "d": 63.77489583333954,
      "v": 82
    },
    {
      "midi": 58,
      "hit": false,
      "t": 72244.20200000014,
      "d": 89.28485416667536,
      "v": 66
    },
    {
      "midi": 67,
      "hit": false,
      "t": 72722.51371875014,
      "d": 70.1523854166735,
      "v": 77
    },
    {
      "midi": 62,
      "hit": false,
      "t": 72722.51371875014,
      "d": 76.52987500000745,
      "v": 93
    },
    {
      "midi": 58,
      "hit": false,
      "t": 72722.51371875014,
      "d": 108.41732291667722,
      "v": 65
    },
    {
      "midi": 62,
      "hit": false,
      "t": 73162.56050000015,
      "d": 70.1523854166735,
      "v": 96
    },
    {
      "midi": 67,
      "hit": false,
      "t": 73162.56050000015,
      "d": 70.1523854166735,
      "v": 81
    },
    {
      "midi": 58,
      "hit": false,
      "t": 73162.56050000015,
      "d": 95.66234375000931,
      "v": 70
    },
    {
      "midi": 62,
      "hit": false,
      "t": 73774.79950000017,
      "d": 82.90736458332685,
      "v": 100
    },
    {
      "midi": 67,
      "hit": false,
      "t": 73774.79950000017,
      "d": 82.90736458332685,
      "v": 81
    },
    {
      "midi": 58,
      "hit": false,
      "t": 73774.79950000017,
      "d": 89.2848541666608,
      "v": 66
    },
    {
      "midi": 62,
      "hit": false,
      "t": 73946.99171875016,
      "d": 63.77489583333954,
      "v": 107
    },
    {
      "midi": 67,
      "hit": false,
      "t": 73946.99171875016,
      "d": 76.52987500000745,
      "v": 90
    },
    {
      "midi": 58,
      "hit": false,
      "t": 73946.99171875016,
      "d": 102.03983333334327,
      "v": 86
    },
    {
      "midi": 62,
      "hit": false,
      "t": 74693.15800000017,
      "d": 70.1523854166735,
      "v": 94
    },
    {
      "midi": 67,
      "hit": false,
      "t": 74693.15800000017,
      "d": 76.52987500000745,
      "v": 86
    },
    {
      "midi": 58,
      "hit": false,
      "t": 74693.15800000017,
      "d": 89.28485416667536,
      "v": 71
    },
    {
      "midi": 62,
      "hit": false,
      "t": 75171.46971875017,
      "d": 70.1523854166735,
      "v": 93
    },
    {
      "midi": 67,
      "hit": false,
      "t": 75171.46971875017,
      "d": 76.52987500000745,
      "v": 78
    },
    {
      "midi": 58,
      "hit": false,
      "t": 75171.46971875017,
      "d": 95.66234375000931,
      "v": 66
    },
    {
      "midi": 62,
      "hit": false,
      "t": 75611.51650000019,
      "d": 89.2848541666608,
      "v": 97
    },
    {
      "midi": 67,
      "hit": false,
      "t": 75611.51650000019,
      "d": 89.2848541666608,
      "v": 82
    },
    {
      "midi": 58,
      "hit": false,
      "t": 75611.51650000019,
      "d": 114.79481249999662,
      "v": 68
    },
    {
      "midi": 67,
      "hit": false,
      "t": 76223.75550000019,
      "d": 70.1523854166735,
      "v": 85
    },
    {
      "midi": 62,
      "hit": false,
      "t": 76223.75550000019,
      "d": 76.52987500000745,
      "v": 100
    },
    {
      "midi": 58,
      "hit": false,
      "t": 76223.75550000019,
      "d": 89.28485416667536,
      "v": 69
    },
    {
      "midi": 62,
      "hit": false,
      "t": 76395.94771875019,
      "d": 95.66234374999476,
      "v": 105
    },
    {
      "midi": 67,
      "hit": false,
      "t": 76395.94771875019,
      "d": 95.66234374999476,
      "v": 79
    },
    {
      "midi": 58,
      "hit": false,
      "t": 76395.94771875019,
      "d": 127.54979166666453,
      "v": 78
    },
    {
      "midi": 58,
      "hit": false,
      "t": 77448.23350000019,
      "d": 63.77489583333954,
      "v": 80
    },
    {
      "midi": 55,
      "hit": false,
      "t": 77448.23350000019,
      "d": 70.1523854166735,
      "v": 70
    },
    {
      "midi": 65,
      "hit": false,
      "t": 77448.23350000019,
      "d": 89.28485416667536,
      "v": 75
    },
    {
      "midi": 58,
      "hit": false,
      "t": 77620.4257187502,
      "d": 63.77489583333954,
      "v": 97
    },
    {
      "midi": 65,
      "hit": false,
      "t": 77620.4257187502,
      "d": 63.77489583333954,
      "v": 93
    },
    {
      "midi": 55,
      "hit": false,
      "t": 77620.4257187502,
      "d": 76.52987500000745,
      "v": 90
    },
    {
      "midi": 65,
      "hit": false,
      "t": 78060.4725000002,
      "d": 70.1523854166735,
      "v": 105
    },
    {
      "midi": 55,
      "hit": false,
      "t": 78060.4725000002,
      "d": 76.52987500000745,
      "v": 95
    },
    {
      "midi": 58,
      "hit": false,
      "t": 78060.4725000002,
      "d": 82.9073645833414,
      "v": 101
    },
    {
      "midi": 57,
      "hit": false,
      "t": 78672.71150000021,
      "d": 63.77489583333954,
      "v": 73
    },
    {
      "midi": 60,
      "hit": false,
      "t": 78672.71150000021,
      "d": 63.77489583333954,
      "v": 82
    },
    {
      "midi": 65,
      "hit": false,
      "t": 78672.71150000021,
      "d": 70.1523854166735,
      "v": 77
    },
    {
      "midi": 60,
      "hit": false,
      "t": 78844.90371875021,
      "d": 63.77489583333954,
      "v": 110
    },
    {
      "midi": 57,
      "hit": false,
      "t": 78844.90371875021,
      "d": 70.1523854166735,
      "v": 94
    },
    {
      "midi": 65,
      "hit": false,
      "t": 78844.90371875021,
      "d": 70.1523854166735,
      "v": 98
    },
    {
      "midi": 72,
      "hit": false,
      "t": 79284.95050000022,
      "d": 108.41732291666267,
      "v": 85
    },
    {
      "midi": 69,
      "hit": false,
      "t": 79284.95050000022,
      "d": 133.9272812499985,
      "v": 91
    },
    {
      "midi": 66,
      "hit": false,
      "t": 79284.95050000022,
      "d": 159.4372395833343,
      "v": 107
    },
    {
      "midi": 75,
      "hit": false,
      "t": 79284.95050000022,
      "d": 191.32468750000407,
      "v": 94
    },
    {
      "midi": 70,
      "hit": false,
      "t": 79897.18950000023,
      "d": 63.77489583333954,
      "v": 94
    },
    {
      "midi": 67,
      "hit": false,
      "t": 79897.18950000023,
      "d": 70.1523854166735,
      "v": 93
    },
    {
      "midi": 74,
      "hit": false,
      "t": 79897.18950000023,
      "d": 70.1523854166735,
      "v": 101
    },
    {
      "midi": 70,
      "hit": false,
      "t": 80069.38171875023,
      "d": 44.64242708333768,
      "v": 81
    },
    {
      "midi": 74,
      "hit": false,
      "t": 80069.38171875023,
      "d": 57.39740625000559,
      "v": 93
    },
    {
      "midi": 67,
      "hit": false,
      "t": 80069.38171875023,
      "d": 70.1523854166735,
      "v": 90
    },
    {
      "midi": 67,
      "hit": false,
      "t": 80509.42850000024,
      "d": 51.019916666671634,
      "v": 92
    },
    {
      "midi": 70,
      "hit": false,
      "t": 80509.42850000024,
      "d": 51.019916666671634,
      "v": 99
    },
    {
      "midi": 74,
      "hit": false,
      "t": 80509.42850000024,
      "d": 57.39740625000559,
      "v": 105
    },
    {
      "midi": 62,
      "hit": false,
      "t": 81121.66750000024,
      "d": 82.90736458332685,
      "v": 95
    },
    {
      "midi": 62,
      "hit": false,
      "t": 81293.85971875023,
      "d": 44.64242708333768,
      "v": 76
    },
    {
      "midi": 58,
      "hit": false,
      "t": 81293.85971875023,
      "d": 89.28485416667536,
      "v": 81
    },
    {
      "midi": 65,
      "hit": false,
      "t": 81293.85971875023,
      "d": 95.66234375000931,
      "v": 76
    },
    {
      "midi": 55,
      "hit": false,
      "t": 81293.85971875023,
      "d": 114.79481250001118,
      "v": 81
    },
    {
      "midi": 58,
      "hit": false,
      "t": 81599.97921875025,
      "d": 57.39740625000559,
      "v": 67
    },
    {
      "midi": 62,
      "hit": false,
      "t": 81599.97921875025,
      "d": 102.03983333334327,
      "v": 93
    },
    {
      "midi": 55,
      "hit": false,
      "t": 81733.90650000026,
      "d": 89.2848541666608,
      "v": 100
    },
    {
      "midi": 58,
      "hit": false,
      "t": 81733.90650000026,
      "d": 89.2848541666608,
      "v": 83
    },
    {
      "midi": 65,
      "hit": false,
      "t": 81733.90650000026,
      "d": 121.17230208333058,
      "v": 97
    },
    {
      "midi": 67,
      "hit": false,
      "t": 82346.14550000026,
      "d": 63.77489583333954,
      "v": 76
    },
    {
      "midi": 70,
      "hit": false,
      "t": 82346.14550000026,
      "d": 70.1523854166735,
      "v": 78
    },
    {
      "midi": 77,
      "hit": false,
      "t": 82346.14550000026,
      "d": 70.1523854166735,
      "v": 85
    },
    {
      "midi": 70,
      "hit": false,
      "t": 82518.33771875026,
      "d": 51.019916666671634,
      "v": 94
    },
    {
      "midi": 67,
      "hit": false,
      "t": 82518.33771875026,
      "d": 63.77489583333954,
      "v": 93
    },
    {
      "midi": 77,
      "hit": false,
      "t": 82518.33771875026,
      "d": 63.77489583333954,
      "v": 99
    },
    {
      "midi": 77,
      "hit": false,
      "t": 82958.38450000026,
      "d": 44.64242708333768,
      "v": 101
    },
    {
      "midi": 67,
      "hit": false,
      "t": 82958.38450000026,
      "d": 63.77489583333954,
      "v": 88
    },
    {
      "midi": 70,
      "hit": false,
      "t": 82958.38450000026,
      "d": 63.77489583333954,
      "v": 101
    },
    {
      "midi": 65,
      "hit": false,
      "t": 83570.62350000026,
      "d": 63.77489583333954,
      "v": 66
    },
    {
      "midi": 69,
      "hit": false,
      "t": 83570.62350000026,
      "d": 70.1523854166735,
      "v": 79
    },
    {
      "midi": 74,
      "hit": false,
      "t": 83570.62350000026,
      "d": 70.1523854166735,
      "v": 72
    },
    {
      "midi": 69,
      "hit": false,
      "t": 83742.81571875027,
      "d": 57.39740625000559,
      "v": 103
    },
    {
      "midi": 74,
      "hit": false,
      "t": 83742.81571875027,
      "d": 57.39740625000559,
      "v": 97
    },
    {
      "midi": 65,
      "hit": false,
      "t": 83742.81571875027,
      "d": 63.77489583333954,
      "v": 89
    },
    {
      "midi": 72,
      "hit": false,
      "t": 84182.86250000026,
      "d": 38.264937500003725,
      "v": 91
    },
    {
      "midi": 69,
      "hit": false,
      "t": 84182.86250000026,
      "d": 76.52987500000745,
      "v": 101
    },
    {
      "midi": 66,
      "hit": false,
      "t": 84182.86250000026,
      "d": 89.28485416667536,
      "v": 76
    },
    {
      "midi": 75,
      "hit": false,
      "t": 84182.86250000026,
      "d": 95.66234375000931,
      "v": 85
    },
    {
      "midi": 70,
      "hit": false,
      "t": 84795.10150000028,
      "d": 57.39740625000559,
      "v": 76
    },
    {
      "midi": 74,
      "hit": false,
      "t": 84795.10150000028,
      "d": 70.1523854166735,
      "v": 70
    },
    {
      "midi": 67,
      "hit": false,
      "t": 84795.10150000028,
      "d": 76.52987500000745,
      "v": 70
    },
    {
      "midi": 70,
      "hit": false,
      "t": 84967.29371875028,
      "d": 51.019916666671634,
      "v": 92
    },
    {
      "midi": 67,
      "hit": false,
      "t": 84967.29371875028,
      "d": 63.77489583333954,
      "v": 91
    },
    {
      "midi": 74,
      "hit": false,
      "t": 84967.29371875028,
      "d": 63.77489583333954,
      "v": 99
    },
    {
      "midi": 70,
      "hit": false,
      "t": 85407.34050000028,
      "d": 63.77489583333954,
      "v": 80
    },
    {
      "midi": 74,
      "hit": false,
      "t": 85407.34050000028,
      "d": 76.52987500000745,
      "v": 92
    },
    {
      "midi": 67,
      "hit": false,
      "t": 85407.34050000028,
      "d": 89.28485416667536,
      "v": 85
    },
    {
      "midi": 74,
      "hit": false,
      "t": 86019.57950000028,
      "d": 38.264937500003725,
      "v": 62
    },
    {
      "midi": 70,
      "hit": false,
      "t": 86019.57950000028,
      "d": 51.019916666671634,
      "v": 69
    },
    {
      "midi": 67,
      "hit": false,
      "t": 86019.57950000028,
      "d": 63.77489583333954,
      "v": 69
    },
    {
      "midi": 70,
      "hit": false,
      "t": 86191.77171875029,
      "d": 57.39740625000559,
      "v": 94
    },
    {
      "midi": 74,
      "hit": false,
      "t": 86191.77171875029,
      "d": 57.39740625000559,
      "v": 100
    },
    {
      "midi": 67,
      "hit": false,
      "t": 86191.77171875029,
      "d": 63.77489583333954,
      "v": 96
    },
    {
      "midi": 74,
      "hit": false,
      "t": 86631.81850000028,
      "d": 38.264937500003725,
      "v": 88
    },
    {
      "midi": 67,
      "hit": false,
      "t": 86631.81850000028,
      "d": 57.39740625000559,
      "v": 86
    },
    {
      "midi": 70,
      "hit": false,
      "t": 86631.81850000028,
      "d": 63.77489583333954,
      "v": 93
    },
    {
      "midi": 70,
      "hit": false,
      "t": 87244.05750000029,
      "d": 70.1523854166735,
      "v": 76
    },
    {
      "midi": 67,
      "hit": false,
      "t": 87244.05750000029,
      "d": 89.28485416667536,
      "v": 66
    },
    {
      "midi": 77,
      "hit": false,
      "t": 87244.05750000029,
      "d": 89.28485416667536,
      "v": 72
    },
    {
      "midi": 70,
      "hit": false,
      "t": 87416.24971875029,
      "d": 63.77489583333954,
      "v": 98
    },
    {
      "midi": 67,
      "hit": false,
      "t": 87416.24971875029,
      "d": 76.52987500000745,
      "v": 93
    },
    {
      "midi": 77,
      "hit": false,
      "t": 87416.24971875029,
      "d": 76.52987500000745,
      "v": 98
    },
    {
      "midi": 70,
      "hit": false,
      "t": 87856.2965000003,
      "d": 63.77489583333954,
      "v": 92
    },
    {
      "midi": 77,
      "hit": false,
      "t": 87856.2965000003,
      "d": 63.77489583333954,
      "v": 88
    },
    {
      "midi": 67,
      "hit": false,
      "t": 87856.2965000003,
      "d": 76.52987500000745,
      "v": 88
    },
    {
      "midi": 69,
      "hit": false,
      "t": 88468.5355000003,
      "d": 70.1523854166735,
      "v": 76
    },
    {
      "midi": 74,
      "hit": false,
      "t": 88468.5355000003,
      "d": 70.1523854166735,
      "v": 89
    },
    {
      "midi": 77,
      "hit": false,
      "t": 88468.5355000003,
      "d": 76.52987500000745,
      "v": 86
    },
    {
      "midi": 77,
      "hit": false,
      "t": 88640.7277187503,
      "d": 44.64242708333768,
      "v": 93
    },
    {
      "midi": 74,
      "hit": false,
      "t": 88640.7277187503,
      "d": 57.39740625000559,
      "v": 103
    },
    {
      "midi": 69,
      "hit": false,
      "t": 88640.7277187503,
      "d": 63.77489583333954,
      "v": 90
    },
    {
      "midi": 72,
      "hit": false,
      "t": 89080.7745000003,
      "d": 38.264937500003725,
      "v": 93
    },
    {
      "midi": 69,
      "hit": false,
      "t": 89080.7745000003,
      "d": 63.77489583333954,
      "v": 95
    },
    {
      "midi": 66,
      "hit": false,
      "t": 89080.7745000003,
      "d": 89.28485416667536,
      "v": 78
    },
    {
      "midi": 75,
      "hit": false,
      "t": 89080.7745000003,
      "d": 89.28485416667536,
      "v": 86
    },
    {
      "midi": 70,
      "hit": false,
      "t": 89693.01350000032,
      "d": 57.39740625000559,
      "v": 74
    },
    {
      "midi": 67,
      "hit": false,
      "t": 89693.01350000032,
      "d": 70.1523854166735,
      "v": 62
    },
    {
      "midi": 74,
      "hit": false,
      "t": 89693.01350000032,
      "d": 89.28485416667536,
      "v": 70
    },
    {
      "midi": 70,
      "hit": false,
      "t": 89865.20571875032,
      "d": 38.264937500003725,
      "v": 87
    },
    {
      "midi": 67,
      "hit": false,
      "t": 89865.20571875032,
      "d": 57.39740625000559,
      "v": 83
    },
    {
      "midi": 74,
      "hit": false,
      "t": 89865.20571875032,
      "d": 63.77489583333954,
      "v": 90
    },
    {
      "midi": 67,
      "hit": false,
      "t": 90305.25250000032,
      "d": 63.77489583333954,
      "v": 74
    },
    {
      "midi": 70,
      "hit": false,
      "t": 90305.25250000032,
      "d": 63.77489583333954,
      "v": 78
    },
    {
      "midi": 67,
      "hit": false,
      "t": 90917.49150000032,
      "d": 63.77489583333954,
      "v": 62
    },
    {
      "midi": 70,
      "hit": false,
      "t": 90917.49150000032,
      "d": 70.1523854166735,
      "v": 58
    },
    {
      "midi": 70,
      "hit": false,
      "t": 91089.68371875033,
      "d": 63.77489583333954,
      "v": 90
    },
    {
      "midi": 74,
      "hit": false,
      "t": 91089.68371875033,
      "d": 63.77489583333954,
      "v": 88
    },
    {
      "midi": 67,
      "hit": false,
      "t": 91089.68371875033,
      "d": 70.1523854166735,
      "v": 85
    },
    {
      "midi": 67,
      "hit": false,
      "t": 91529.73050000034,
      "d": 70.1523854166735,
      "v": 81
    },
    {
      "midi": 70,
      "hit": false,
      "t": 91529.73050000034,
      "d": 70.1523854166735,
      "v": 84
    },
    {
      "midi": 74,
      "hit": false,
      "t": 91529.73050000034,
      "d": 82.9073645833414,
      "v": 83
    },
    {
      "midi": 67,
      "hit": false,
      "t": 92141.96950000034,
      "d": 63.77489583333954,
      "v": 79
    },
    {
      "midi": 70,
      "hit": false,
      "t": 92141.96950000034,
      "d": 63.77489583333954,
      "v": 88
    },
    {
      "midi": 75,
      "hit": false,
      "t": 92141.96950000034,
      "d": 70.1523854166735,
      "v": 87
    },
    {
      "midi": 70,
      "hit": false,
      "t": 92314.16171875034,
      "d": 38.264937500003725,
      "v": 91
    },
    {
      "midi": 75,
      "hit": false,
      "t": 92314.16171875034,
      "d": 44.64242708333768,
      "v": 92
    },
    {
      "midi": 67,
      "hit": false,
      "t": 92314.16171875034,
      "d": 51.019916666671634,
      "v": 90
    },
    {
      "midi": 67,
      "hit": false,
      "t": 92754.20850000034,
      "d": 44.64242708333768,
      "v": 75
    },
    {
      "midi": 70,
      "hit": false,
      "t": 92754.20850000034,
      "d": 57.39740625000559,
      "v": 95
    },
    {
      "midi": 75,
      "hit": false,
      "t": 92754.20850000034,
      "d": 57.39740625000559,
      "v": 84
    },
    {
      "midi": 69,
      "hit": false,
      "t": 93366.44750000034,
      "d": 57.39740625000559,
      "v": 78
    },
    {
      "midi": 74,
      "hit": false,
      "t": 93366.44750000034,
      "d": 57.39740625000559,
      "v": 66
    },
    {
      "midi": 65,
      "hit": false,
      "t": 93366.44750000034,
      "d": 63.77489583333954,
      "v": 68
    },
    {
      "midi": 69,
      "hit": false,
      "t": 93538.63971875035,
      "d": 63.77489583333954,
      "v": 98
    },
    {
      "midi": 65,
      "hit": false,
      "t": 93538.63971875035,
      "d": 82.9073645833414,
      "v": 88
    },
    {
      "midi": 74,
      "hit": false,
      "t": 93538.63971875035,
      "d": 82.9073645833414,
      "v": 99
    },
    {
      "midi": 69,
      "hit": false,
      "t": 93978.68650000036,
      "d": 38.264937500003725,
      "v": 88
    },
    {
      "midi": 66,
      "hit": false,
      "t": 93978.68650000036,
      "d": 76.52987500000745,
      "v": 99
    },
    {
      "midi": 75,
      "hit": false,
      "t": 93978.68650000036,
      "d": 76.52987500000745,
      "v": 97
    },
    {
      "midi": 70,
      "hit": false,
      "t": 94590.92550000036,
      "d": 44.64242708333768,
      "v": 79
    },
    {
      "midi": 74,
      "hit": false,
      "t": 94590.92550000036,
      "d": 63.77489583333954,
      "v": 77
    },
    {
      "midi": 67,
      "hit": false,
      "t": 94590.92550000036,
      "d": 70.1523854166735,
      "v": 77
    },
    {
      "midi": 70,
      "hit": false,
      "t": 94763.11771875036,
      "d": 51.019916666671634,
      "v": 81
    },
    {
      "midi": 74,
      "hit": false,
      "t": 94763.11771875036,
      "d": 51.019916666671634,
      "v": 81
    },
    {
      "midi": 67,
      "hit": false,
      "t": 94763.11771875036,
      "d": 70.1523854166735,
      "v": 86
    },
    {
      "midi": 67,
      "hit": false,
      "t": 95203.16450000038,
      "d": 63.77489583333954,
      "v": 84
    },
    {
      "midi": 70,
      "hit": false,
      "t": 95203.16450000038,
      "d": 63.77489583333954,
      "v": 81
    },
    {
      "midi": 74,
      "hit": false,
      "t": 95203.16450000038,
      "d": 63.77489583333954,
      "v": 88
    },
    {
      "midi": 70,
      "hit": false,
      "t": 95815.40350000038,
      "d": 70.1523854166735,
      "v": 83
    },
    {
      "midi": 67,
      "hit": false,
      "t": 95815.40350000038,
      "d": 76.52987500000745,
      "v": 76
    },
    {
      "midi": 74,
      "hit": false,
      "t": 95987.59571875038,
      "d": 38.264937500003725,
      "v": 78
    },
    {
      "midi": 70,
      "hit": false,
      "t": 95987.59571875038,
      "d": 57.39740625000559,
      "v": 86
    },
    {
      "midi": 67,
      "hit": false,
      "t": 95987.59571875038,
      "d": 70.1523854166735,
      "v": 85
    },
    {
      "midi": 74,
      "hit": false,
      "t": 96427.6425000004,
      "d": 57.39740625000559,
      "v": 85
    },
    {
      "midi": 67,
      "hit": false,
      "t": 96427.6425000004,
      "d": 63.77489583333954,
      "v": 84
    },
    {
      "midi": 70,
      "hit": false,
      "t": 96427.6425000004,
      "d": 63.77489583333954,
      "v": 84
    },
    {
      "midi": 67,
      "hit": false,
      "t": 97039.8815000004,
      "d": 51.019916666671634,
      "v": 76
    },
    {
      "midi": 70,
      "hit": false,
      "t": 97039.8815000004,
      "d": 51.019916666671634,
      "v": 81
    },
    {
      "midi": 75,
      "hit": false,
      "t": 97039.8815000004,
      "d": 76.52987500000745,
      "v": 79
    },
    {
      "midi": 70,
      "hit": false,
      "t": 97212.0737187504,
      "d": 44.64242708333768,
      "v": 94
    },
    {
      "midi": 67,
      "hit": false,
      "t": 97212.0737187504,
      "d": 57.39740625000559,
      "v": 95
    },
    {
      "midi": 75,
      "hit": false,
      "t": 97212.0737187504,
      "d": 70.1523854166735,
      "v": 102
    },
    {
      "midi": 67,
      "hit": false,
      "t": 97652.12050000041,
      "d": 63.77489583333954,
      "v": 89
    },
    {
      "midi": 70,
      "hit": false,
      "t": 97652.12050000041,
      "d": 63.77489583333954,
      "v": 97
    },
    {
      "midi": 75,
      "hit": false,
      "t": 97652.12050000041,
      "d": 70.1523854166735,
      "v": 95
    },
    {
      "midi": 74,
      "hit": false,
      "t": 98264.35950000041,
      "d": 63.77489583333954,
      "v": 72
    },
    {
      "midi": 69,
      "hit": false,
      "t": 98264.35950000041,
      "d": 70.1523854166735,
      "v": 84
    },
    {
      "midi": 65,
      "hit": false,
      "t": 98264.35950000041,
      "d": 82.9073645833414,
      "v": 74
    },
    {
      "midi": 69,
      "hit": false,
      "t": 98436.55171875042,
      "d": 70.1523854166735,
      "v": 89
    },
    {
      "midi": 74,
      "hit": false,
      "t": 98436.55171875042,
      "d": 70.1523854166735,
      "v": 84
    },
    {
      "midi": 65,
      "hit": false,
      "t": 98436.55171875042,
      "d": 76.52987500000745,
      "v": 79
    },
    {
      "midi": 72,
      "hit": false,
      "t": 98876.59850000043,
      "d": 38.264937500003725,
      "v": 97
    },
    {
      "midi": 66,
      "hit": false,
      "t": 98876.59850000043,
      "d": 63.77489583333954,
      "v": 96
    },
    {
      "midi": 75,
      "hit": false,
      "t": 98876.59850000043,
      "d": 76.52987500000745,
      "v": 96
    },
    {
      "midi": 70,
      "hit": false,
      "t": 99488.83750000043,
      "d": 44.64242708333768,
      "v": 70
    },
    {
      "midi": 74,
      "hit": false,
      "t": 99488.83750000043,
      "d": 63.77489583333954,
      "v": 80
    },
    {
      "midi": 67,
      "hit": false,
      "t": 99488.83750000043,
      "d": 70.1523854166735,
      "v": 80
    },
    {
      "midi": 70,
      "hit": false,
      "t": 99661.02971875043,
      "d": 70.1523854166735,
      "v": 86
    },
    {
      "midi": 74,
      "hit": false,
      "t": 99661.02971875043,
      "d": 70.1523854166735,
      "v": 90
    },
    {
      "midi": 67,
      "hit": false,
      "t": 99661.02971875043,
      "d": 82.9073645833414,
      "v": 89
    },
    {
      "midi": 70,
      "hit": false,
      "t": 100101.07650000045,
      "d": 63.77489583333954,
      "v": 78
    },
    {
      "midi": 67,
      "hit": false,
      "t": 100101.07650000045,
      "d": 76.52987500000745,
      "v": 81
    },
    {
      "midi": 74,
      "hit": false,
      "t": 100101.07650000045,
      "d": 76.52987500000745,
      "v": 86
    },
    {
      "midi": 70,
      "hit": false,
      "t": 100713.31550000045,
      "d": 57.39740625000559,
      "v": 76
    },
    {
      "midi": 67,
      "hit": false,
      "t": 100713.31550000045,
      "d": 63.77489583333954,
      "v": 69
    },
    {
      "midi": 74,
      "hit": false,
      "t": 100713.31550000045,
      "d": 63.77489583333954,
      "v": 74
    },
    {
      "midi": 70,
      "hit": false,
      "t": 100885.50771875045,
      "d": 76.5298749999929,
      "v": 84
    },
    {
      "midi": 74,
      "hit": false,
      "t": 100885.50771875045,
      "d": 89.2848541666608,
      "v": 82
    },
    {
      "midi": 67,
      "hit": false,
      "t": 100885.50771875045,
      "d": 95.66234374999476,
      "v": 82
    },
    {
      "midi": 79,
      "hit": false,
      "t": 101631.67400000045,
      "d": 255.09958333332906,
      "v": 103
    },
    {
      "midi": 43,
      "hit": false,
      "t": 101631.67400000045,
      "d": 318.8744791666686,
      "v": 100
    },
    {
      "midi": 41,
      "hit": false,
      "t": 102109.98571875045,
      "d": 261.477072916663,
      "v": 100
    },
    {
      "midi": 77,
      "hit": false,
      "t": 102109.98571875045,
      "d": 274.2320520833309,
      "v": 100
    },
    {
      "midi": 74,
      "hit": false,
      "t": 102550.03250000045,
      "d": 401.78184374999546,
      "v": 99
    },
    {
      "midi": 38,
      "hit": false,
      "t": 102550.03250000045,
      "d": 414.53682291666337,
      "v": 105
    },
    {
      "midi": 36,
      "hit": false,
      "t": 103162.27150000045,
      "d": 114.79481249999662,
      "v": 108
    },
    {
      "midi": 72,
      "hit": false,
      "t": 103162.27150000045,
      "d": 133.9272812499985,
      "v": 100
    },
    {
      "midi": 70,
      "hit": false,
      "t": 103468.39100000045,
      "d": 114.79481249999662,
      "v": 101
    },
    {
      "midi": 34,
      "hit": false,
      "t": 103468.39100000045,
      "d": 140.30477083333244,
      "v": 98
    },
    {
      "midi": 74,
      "hit": false,
      "t": 103774.51050000046,
      "d": 140.30477083333244,
      "v": 98
    },
    {
      "midi": 38,
      "hit": false,
      "t": 103774.51050000046,
      "d": 153.05975000000035,
      "v": 100
    },
    {
      "midi": 36,
      "hit": false,
      "t": 104080.63000000046,
      "d": 338.00694791667047,
      "v": 110
    },
    {
      "midi": 72,
      "hit": false,
      "t": 104080.63000000046,
      "d": 363.5169062500063,
      "v": 96
    },
    {
      "midi": 70,
      "hit": false,
      "t": 104558.94171875046,
      "d": 242.34460416666116,
      "v": 93
    },
    {
      "midi": 34,
      "hit": false,
      "t": 104558.94171875046,
      "d": 267.854562499997,
      "v": 94
    },
    {
      "midi": 31,
      "hit": false,
      "t": 104998.98850000046,
      "d": 1192.590552083333,
      "v": 93
    },
    {
      "midi": 67,
      "hit": false,
      "t": 104998.98850000046,
      "d": 1345.6503020833334,
      "v": 96
    },
    {
      "midi": 55,
      "hit": false,
      "t": 109150.73421875045,
      "d": 401.78184374999546,
      "v": 83
    },
    {
      "midi": 67,
      "hit": false,
      "t": 109284.66150000045,
      "d": 95.66234374999476,
      "v": 104
    },
    {
      "midi": 62,
      "hit": false,
      "t": 109284.66150000045,
      "d": 102.03983333332872,
      "v": 100
    },
    {
      "midi": 58,
      "hit": false,
      "t": 109284.66150000045,
      "d": 114.79481249999662,
      "v": 94
    },
    {
      "midi": 58,
      "hit": false,
      "t": 109456.85371875046,
      "d": 95.66234374999476,
      "v": 81
    },
    {
      "midi": 62,
      "hit": false,
      "t": 109456.85371875046,
      "d": 95.66234374999476,
      "v": 100
    },
    {
      "midi": 67,
      "hit": false,
      "t": 109456.85371875046,
      "d": 95.66234374999476,
      "v": 101
    },
    {
      "midi": 48,
      "hit": false,
      "t": 111599.69021875045,
      "d": 471.93422916666896,
      "v": 93
    },
    {
      "midi": 67,
      "hit": false,
      "t": 111733.61750000044,
      "d": 114.79481249999662,
      "v": 108
    },
    {
      "midi": 63,
      "hit": false,
      "t": 111733.61750000044,
      "d": 121.17230208333058,
      "v": 94
    },
    {
      "midi": 60,
      "hit": false,
      "t": 111733.61750000044,
      "d": 133.9272812499985,
      "v": 95
    },
    {
      "midi": 60,
      "hit": false,
      "t": 111905.80971875045,
      "d": 95.66234374999476,
      "v": 90
    },
    {
      "midi": 63,
      "hit": false,
      "t": 111905.80971875045,
      "d": 95.66234374999476,
      "v": 98
    },
    {
      "midi": 67,
      "hit": false,
      "t": 111905.80971875045,
      "d": 95.66234374999476,
      "v": 103
    },
    {
      "midi": 55,
      "hit": false,
      "t": 114048.64621875045,
      "d": 446.42427083333314,
      "v": 84
    },
    {
      "midi": 67,
      "hit": false,
      "t": 114182.57350000045,
      "d": 89.2848541666608,
      "v": 100
    },
    {
      "midi": 62,
      "hit": false,
      "t": 114182.57350000045,
      "d": 95.66234374999476,
      "v": 104
    },
    {
      "midi": 58,
      "hit": false,
      "t": 114182.57350000045,
      "d": 114.79481249999662,
      "v": 87
    },
    {
      "midi": 58,
      "hit": false,
      "t": 114354.76571875045,
      "d": 95.66234374999476,
      "v": 94
    },
    {
      "midi": 62,
      "hit": false,
      "t": 114354.76571875045,
      "d": 95.66234374999476,
      "v": 91
    },
    {
      "midi": 67,
      "hit": false,
      "t": 114354.76571875045,
      "d": 95.66234374999476,
      "v": 104
    },
    {
      "midi": 55,
      "hit": false,
      "t": 116497.60221875046,
      "d": 503.8216770833242,
      "v": 84
    },
    {
      "midi": 67,
      "hit": false,
      "t": 116631.52950000046,
      "d": 121.17230208333058,
      "v": 100
    },
    {
      "midi": 62,
      "hit": false,
      "t": 116631.52950000046,
      "d": 133.9272812499985,
      "v": 106
    },
    {
      "midi": 58,
      "hit": false,
      "t": 116631.52950000046,
      "d": 140.30477083333244,
      "v": 88
    },
    {
      "midi": 58,
      "hit": false,
      "t": 116803.72171875046,
      "d": 95.66234374999476,
      "v": 94
    },
    {
      "midi": 62,
      "hit": false,
      "t": 116803.72171875046,
      "d": 95.66234374999476,
      "v": 111
    },
    {
      "midi": 67,
      "hit": false,
      "t": 116803.72171875046,
      "d": 95.66234374999476,
      "v": 105
    },
    {
      "midi": 55,
      "hit": false,
      "t": 118946.55821875045,
      "d": 401.78184374999546,
      "v": 82
    },
    {
      "midi": 62,
      "hit": false,
      "t": 119080.48550000045,
      "d": 114.79481249999662,
      "v": 106
    },
    {
      "midi": 67,
      "hit": false,
      "t": 119080.48550000045,
      "d": 114.79481249999662,
      "v": 106
    },
    {
      "midi": 58,
      "hit": false,
      "t": 119080.48550000045,
      "d": 140.30477083333244,
      "v": 91
    },
    {
      "midi": 58,
      "hit": false,
      "t": 119252.67771875045,
      "d": 95.66234374999476,
      "v": 80
    },
    {
      "midi": 62,
      "hit": false,
      "t": 119252.67771875045,
      "d": 95.66234374999476,
      "v": 104
    },
    {
      "midi": 67,
      "hit": false,
      "t": 119252.67771875045,
      "d": 95.66234374999476,
      "v": 96
    },
    {
      "midi": 48,
      "hit": false,
      "t": 121395.51421875044,
      "d": 197.70217708333803,
      "v": 93
    },
    {
      "midi": 60,
      "hit": false,
      "t": 121529.44150000044,
      "d": 197.70217708333803,
      "v": 99
    },
    {
      "midi": 63,
      "hit": false,
      "t": 121529.44150000044,
      "d": 197.70217708333803,
      "v": 104
    },
    {
      "midi": 67,
      "hit": false,
      "t": 121529.44150000044,
      "d": 197.70217708333803,
      "v": 108
    },
    {
      "midi": 55,
      "hit": false,
      "t": 123844.47021875044,
      "d": 401.78184374999546,
      "v": 82
    },
    {
      "midi": 67,
      "hit": false,
      "t": 123978.39750000044,
      "d": 102.03983333332872,
      "v": 107
    },
    {
      "midi": 58,
      "hit": false,
      "t": 123978.39750000044,
      "d": 114.79481249999662,
      "v": 98
    },
    {
      "midi": 62,
      "hit": false,
      "t": 123978.39750000044,
      "d": 114.79481249999662,
      "v": 106
    },
    {
      "midi": 58,
      "hit": false,
      "t": 124150.58971875045,
      "d": 95.66234374999476,
      "v": 87
    },
    {
      "midi": 62,
      "hit": false,
      "t": 124150.58971875045,
      "d": 95.66234374999476,
      "v": 82
    },
    {
      "midi": 67,
      "hit": false,
      "t": 124150.58971875045,
      "d": 95.66234374999476,
      "v": 103
    },
    {
      "midi": 55,
      "hit": false,
      "t": 126293.42621875044,
      "d": 401.78184374999546,
      "v": 87
    },
    {
      "midi": 67,
      "hit": false,
      "t": 126427.35350000043,
      "d": 114.79481249999662,
      "v": 107
    },
    {
      "midi": 58,
      "hit": false,
      "t": 126427.35350000043,
      "d": 133.9272812499985,
      "v": 102
    },
    {
      "midi": 62,
      "hit": false,
      "t": 126427.35350000043,
      "d": 133.9272812499985,
      "v": 108
    },
    {
      "midi": 58,
      "hit": false,
      "t": 126599.54571875044,
      "d": 95.66234374999476,
      "v": 97
    },
    {
      "midi": 62,
      "hit": false,
      "t": 126599.54571875044,
      "d": 95.66234374999476,
      "v": 105
    },
    {
      "midi": 67,
      "hit": false,
      "t": 126599.54571875044,
      "d": 95.66234374999476,
      "v": 108
    },
    {
      "midi": 70,
      "hit": false,
      "t": 127651.83150000044,
      "d": 63.77489583333954,
      "v": 85
    },
    {
      "midi": 67,
      "hit": false,
      "t": 127651.83150000044,
      "d": 76.52987500000745,
      "v": 80
    },
    {
      "midi": 77,
      "hit": false,
      "t": 127651.83150000044,
      "d": 76.52987500000745,
      "v": 97
    },
    {
      "midi": 70,
      "hit": false,
      "t": 127824.02371875044,
      "d": 57.39740625000559,
      "v": 95
    },
    {
      "midi": 77,
      "hit": false,
      "t": 127824.02371875044,
      "d": 63.77489583333954,
      "v": 106
    },
    {
      "midi": 67,
      "hit": false,
      "t": 127824.02371875044,
      "d": 70.1523854166735,
      "v": 98
    },
    {
      "midi": 77,
      "hit": false,
      "t": 128264.07050000045,
      "d": 57.39740625000559,
      "v": 110
    },
    {
      "midi": 67,
      "hit": false,
      "t": 128264.07050000045,
      "d": 70.1523854166735,
      "v": 95
    },
    {
      "midi": 70,
      "hit": false,
      "t": 128264.07050000045,
      "d": 70.1523854166735,
      "v": 104
    },
    {
      "midi": 77,
      "hit": false,
      "t": 128876.30950000045,
      "d": 63.77489583333954,
      "v": 88
    },
    {
      "midi": 69,
      "hit": false,
      "t": 128876.30950000045,
      "d": 70.1523854166735,
      "v": 80
    },
    {
      "midi": 74,
      "hit": false,
      "t": 128876.30950000045,
      "d": 70.1523854166735,
      "v": 90
    },
    {
      "midi": 77,
      "hit": false,
      "t": 129048.50171875046,
      "d": 38.264937500003725,
      "v": 91
    },
    {
      "midi": 74,
      "hit": false,
      "t": 129048.50171875046,
      "d": 57.39740625000559,
      "v": 110
    },
    {
      "midi": 69,
      "hit": false,
      "t": 129048.50171875046,
      "d": 70.1523854166735,
      "v": 93
    },
    {
      "midi": 72,
      "hit": false,
      "t": 129488.54850000047,
      "d": 38.264937500003725,
      "v": 90
    },
    {
      "midi": 69,
      "hit": false,
      "t": 129488.54850000047,
      "d": 63.77489583333954,
      "v": 98
    },
    {
      "midi": 66,
      "hit": false,
      "t": 129488.54850000047,
      "d": 95.66234375000931,
      "v": 83
    },
    {
      "midi": 75,
      "hit": false,
      "t": 129488.54850000047,
      "d": 95.66234375000931,
      "v": 78
    },
    {
      "midi": 70,
      "hit": false,
      "t": 130100.78750000049,
      "d": 63.77489583333954,
      "v": 98
    },
    {
      "midi": 74,
      "hit": false,
      "t": 130100.78750000049,
      "d": 63.77489583333954,
      "v": 106
    },
    {
      "midi": 67,
      "hit": false,
      "t": 130100.78750000049,
      "d": 70.1523854166735,
      "v": 88
    },
    {
      "midi": 70,
      "hit": false,
      "t": 130272.97971875049,
      "d": 57.39740625000559,
      "v": 88
    },
    {
      "midi": 74,
      "hit": false,
      "t": 130272.97971875049,
      "d": 57.39740625000559,
      "v": 94
    },
    {
      "midi": 67,
      "hit": false,
      "t": 130272.97971875049,
      "d": 76.52987500000745,
      "v": 94
    },
    {
      "midi": 74,
      "hit": false,
      "t": 130713.0265000005,
      "d": 51.019916666671634,
      "v": 96
    },
    {
      "midi": 67,
      "hit": false,
      "t": 130713.0265000005,
      "d": 63.77489583333954,
      "v": 90
    },
    {
      "midi": 70,
      "hit": false,
      "t": 130713.0265000005,
      "d": 63.77489583333954,
      "v": 93
    },
    {
      "midi": 74,
      "hit": false,
      "t": 131325.2655000005,
      "d": 51.019916666671634,
      "v": 92
    },
    {
      "midi": 67,
      "hit": false,
      "t": 131325.2655000005,
      "d": 63.77489583333954,
      "v": 85
    },
    {
      "midi": 70,
      "hit": false,
      "t": 131325.2655000005,
      "d": 63.77489583333954,
      "v": 87
    },
    {
      "midi": 70,
      "hit": false,
      "t": 131497.45771875052,
      "d": 44.64242708333768,
      "v": 87
    },
    {
      "midi": 74,
      "hit": false,
      "t": 131497.45771875052,
      "d": 44.64242708333768,
      "v": 98
    },
    {
      "midi": 67,
      "hit": false,
      "t": 131497.45771875052,
      "d": 63.77489583333954,
      "v": 96
    },
    {
      "midi": 74,
      "hit": false,
      "t": 131937.50450000053,
      "d": 44.64242708333768,
      "v": 90
    },
    {
      "midi": 67,
      "hit": false,
      "t": 131937.50450000053,
      "d": 57.39740625000559,
      "v": 90
    },
    {
      "midi": 70,
      "hit": false,
      "t": 131937.50450000053,
      "d": 63.77489583333954,
      "v": 97
    },
    {
      "midi": 79,
      "hit": false,
      "t": 132549.74350000054,
      "d": 51.019916666671634,
      "v": 79
    },
    {
      "midi": 70,
      "hit": false,
      "t": 132549.74350000054,
      "d": 70.1523854166735,
      "v": 99
    },
    {
      "midi": 77,
      "hit": false,
      "t": 132549.74350000054,
      "d": 82.9073645833414,
      "v": 79
    },
    {
      "midi": 67,
      "hit": false,
      "t": 132549.74350000054,
      "d": 89.28485416667536,
      "v": 93
    },
    {
      "midi": 70,
      "hit": false,
      "t": 132721.93571875055,
      "d": 63.77489583333954,
      "v": 102
    },
    {
      "midi": 67,
      "hit": false,
      "t": 132721.93571875055,
      "d": 82.9073645833414,
      "v": 100
    },
    {
      "midi": 77,
      "hit": false,
      "t": 132721.93571875055,
      "d": 95.66234375000931,
      "v": 103
    },
    {
      "midi": 70,
      "hit": false,
      "t": 133161.98250000057,
      "d": 63.77489583333954,
      "v": 104
    },
    {
      "midi": 67,
      "hit": false,
      "t": 133161.98250000057,
      "d": 76.52987500000745,
      "v": 99
    },
    {
      "midi": 77,
      "hit": false,
      "t": 133161.98250000057,
      "d": 82.9073645833414,
      "v": 115
    },
    {
      "midi": 74,
      "hit": false,
      "t": 133774.22150000057,
      "d": 63.77489583333954,
      "v": 96
    },
    {
      "midi": 77,
      "hit": false,
      "t": 133774.22150000057,
      "d": 70.1523854166735,
      "v": 100
    },
    {
      "midi": 69,
      "hit": false,
      "t": 133774.22150000057,
      "d": 76.52987500000745,
      "v": 90
    },
    {
      "midi": 74,
      "hit": false,
      "t": 133946.41371875058,
      "d": 38.264937500003725,
      "v": 98
    },
    {
      "midi": 77,
      "hit": false,
      "t": 133946.41371875058,
      "d": 63.77489583333954,
      "v": 100
    },
    {
      "midi": 69,
      "hit": false,
      "t": 133946.41371875058,
      "d": 70.1523854166735,
      "v": 93
    },
    {
      "midi": 72,
      "hit": false,
      "t": 134386.4605000006,
      "d": 76.52987500000745,
      "v": 93
    },
    {
      "midi": 66,
      "hit": false,
      "t": 134386.4605000006,
      "d": 95.66234375000931,
      "v": 87
    },
    {
      "midi": 69,
      "hit": false,
      "t": 134386.4605000006,
      "d": 95.66234375000931,
      "v": 105
    },
    {
      "midi": 75,
      "hit": false,
      "t": 134386.4605000006,
      "d": 114.79481250001118,
      "v": 91
    },
    {
      "midi": 70,
      "hit": false,
      "t": 134998.6995000006,
      "d": 57.39740625000559,
      "v": 90
    },
    {
      "midi": 74,
      "hit": false,
      "t": 134998.6995000006,
      "d": 57.39740625000559,
      "v": 91
    },
    {
      "midi": 67,
      "hit": false,
      "t": 134998.6995000006,
      "d": 70.1523854166735,
      "v": 87
    },
    {
      "midi": 70,
      "hit": false,
      "t": 135170.89171875062,
      "d": 57.39740625000559,
      "v": 90
    },
    {
      "midi": 74,
      "hit": false,
      "t": 135170.89171875062,
      "d": 63.77489583333954,
      "v": 100
    },
    {
      "midi": 67,
      "hit": false,
      "t": 135170.89171875062,
      "d": 76.52987500000745,
      "v": 91
    },
    {
      "midi": 74,
      "hit": false,
      "t": 135610.93850000063,
      "d": 57.39740625000559,
      "v": 88
    },
    {
      "midi": 67,
      "hit": false,
      "t": 135610.93850000063,
      "d": 63.77489583333954,
      "v": 86
    },
    {
      "midi": 70,
      "hit": false,
      "t": 135610.93850000063,
      "d": 63.77489583333954,
      "v": 87
    },
    {
      "midi": 74,
      "hit": false,
      "t": 136223.17750000063,
      "d": 44.64242708333768,
      "v": 92
    },
    {
      "midi": 67,
      "hit": false,
      "t": 136223.17750000063,
      "d": 63.77489583333954,
      "v": 93
    },
    {
      "midi": 70,
      "hit": false,
      "t": 136223.17750000063,
      "d": 63.77489583333954,
      "v": 95
    },
    {
      "midi": 74,
      "hit": false,
      "t": 136395.36971875065,
      "d": 44.64242708333768,
      "v": 97
    },
    {
      "midi": 70,
      "hit": false,
      "t": 136395.36971875065,
      "d": 51.019916666671634,
      "v": 91
    },
    {
      "midi": 67,
      "hit": false,
      "t": 136395.36971875065,
      "d": 63.77489583333954,
      "v": 94
    },
    {
      "midi": 74,
      "hit": false,
      "t": 136835.41650000066,
      "d": 51.019916666671634,
      "v": 96
    },
    {
      "midi": 67,
      "hit": false,
      "t": 136835.41650000066,
      "d": 57.39740625000559,
      "v": 92
    },
    {
      "midi": 70,
      "hit": false,
      "t": 136835.41650000066,
      "d": 63.77489583333954,
      "v": 99
    },
    {
      "midi": 67,
      "hit": false,
      "t": 137447.65550000066,
      "d": 57.39740625000559,
      "v": 77
    },
    {
      "midi": 70,
      "hit": false,
      "t": 137447.65550000066,
      "d": 63.77489583333954,
      "v": 80
    },
    {
      "midi": 77,
      "hit": false,
      "t": 137447.65550000066,
      "d": 63.77489583333954,
      "v": 80
    },
    {
      "midi": 70,
      "hit": false,
      "t": 137619.84771875068,
      "d": 51.019916666671634,
      "v": 99
    },
    {
      "midi": 77,
      "hit": false,
      "t": 137619.84771875068,
      "d": 57.39740625000559,
      "v": 104
    },
    {
      "midi": 67,
      "hit": false,
      "t": 137619.84771875068,
      "d": 70.1523854166735,
      "v": 103
    },
    {
      "midi": 67,
      "hit": false,
      "t": 138059.8945000007,
      "d": 57.39740625000559,
      "v": 85
    },
    {
      "midi": 70,
      "hit": false,
      "t": 138059.8945000007,
      "d": 63.77489583333954,
      "v": 94
    },
    {
      "midi": 77,
      "hit": false,
      "t": 138059.8945000007,
      "d": 63.77489583333954,
      "v": 96
    },
    {
      "midi": 74,
      "hit": false,
      "t": 138672.1335000007,
      "d": 70.1523854166735,
      "v": 88
    },
    {
      "midi": 69,
      "hit": false,
      "t": 138672.1335000007,
      "d": 82.9073645833414,
      "v": 66
    },
    {
      "midi": 77,
      "hit": false,
      "t": 138672.1335000007,
      "d": 89.28485416667536,
      "v": 77
    },
    {
      "midi": 77,
      "hit": false,
      "t": 138844.3257187507,
      "d": 44.64242708333768,
      "v": 86
    },
    {
      "midi": 74,
      "hit": false,
      "t": 138844.3257187507,
      "d": 51.019916666671634,
      "v": 100
    },
    {
      "midi": 69,
      "hit": false,
      "t": 138844.3257187507,
      "d": 76.52987500000745,
      "v": 86
    },
    {
      "midi": 72,
      "hit": false,
      "t": 139284.37250000073,
      "d": 70.1523854166735,
      "v": 95
    },
    {
      "midi": 69,
      "hit": false,
      "t": 139284.37250000073,
      "d": 89.28485416667536,
      "v": 103
    },
    {
      "midi": 75,
      "hit": false,
      "t": 139284.37250000073,
      "d": 102.03983333334327,
      "v": 88
    },
    {
      "midi": 66,
      "hit": false,
      "t": 139284.37250000073,
      "d": 114.79481250001118,
      "v": 82
    },
    {
      "midi": 67,
      "hit": false,
      "t": 139896.61150000073,
      "d": 63.77489583333954,
      "v": 81
    },
    {
      "midi": 70,
      "hit": false,
      "t": 139896.61150000073,
      "d": 63.77489583333954,
      "v": 78
    },
    {
      "midi": 74,
      "hit": false,
      "t": 139896.61150000073,
      "d": 70.1523854166735,
      "v": 89
    },
    {
      "midi": 70,
      "hit": false,
      "t": 140068.80371875074,
      "d": 57.39740625000559,
      "v": 87
    },
    {
      "midi": 67,
      "hit": false,
      "t": 140068.80371875074,
      "d": 70.1523854166735,
      "v": 90
    },
    {
      "midi": 74,
      "hit": false,
      "t": 140068.80371875074,
      "d": 70.1523854166735,
      "v": 97
    },
    {
      "midi": 74,
      "hit": false,
      "t": 140508.85050000076,
      "d": 51.019916666671634,
      "v": 97
    },
    {
      "midi": 70,
      "hit": false,
      "t": 140508.85050000076,
      "d": 57.39740625000559,
      "v": 94
    },
    {
      "midi": 67,
      "hit": false,
      "t": 140508.85050000076,
      "d": 76.52987500000745,
      "v": 92
    },
    {
      "midi": 74,
      "hit": false,
      "t": 141121.08950000076,
      "d": 51.019916666671634,
      "v": 72
    },
    {
      "midi": 67,
      "hit": false,
      "t": 141121.08950000076,
      "d": 57.39740625000559,
      "v": 67
    },
    {
      "midi": 70,
      "hit": false,
      "t": 141121.08950000076,
      "d": 63.77489583333954,
      "v": 70
    },
    {
      "midi": 74,
      "hit": false,
      "t": 141293.28171875078,
      "d": 51.019916666671634,
      "v": 85
    },
    {
      "midi": 70,
      "hit": false,
      "t": 141293.28171875078,
      "d": 63.77489583333954,
      "v": 86
    },
    {
      "midi": 67,
      "hit": false,
      "t": 141293.28171875078,
      "d": 76.52987500000745,
      "v": 85
    },
    {
      "midi": 67,
      "hit": false,
      "t": 141733.3285000008,
      "d": 63.77489583333954,
      "v": 100
    },
    {
      "midi": 70,
      "hit": false,
      "t": 141733.3285000008,
      "d": 63.77489583333954,
      "v": 105
    },
    {
      "midi": 74,
      "hit": false,
      "t": 141733.3285000008,
      "d": 63.77489583333954,
      "v": 105
    },
    {
      "midi": 70,
      "hit": false,
      "t": 142345.5675000008,
      "d": 57.39740625000559,
      "v": 77
    },
    {
      "midi": 67,
      "hit": false,
      "t": 142345.5675000008,
      "d": 82.9073645833414,
      "v": 70
    },
    {
      "midi": 77,
      "hit": false,
      "t": 142345.5675000008,
      "d": 82.9073645833414,
      "v": 77
    },
    {
      "midi": 70,
      "hit": false,
      "t": 142517.7597187508,
      "d": 63.77489583333954,
      "v": 104
    },
    {
      "midi": 77,
      "hit": false,
      "t": 142517.7597187508,
      "d": 76.52987500000745,
      "v": 108
    },
    {
      "midi": 67,
      "hit": false,
      "t": 142517.7597187508,
      "d": 89.28485416667536,
      "v": 100
    },
    {
      "midi": 70,
      "hit": false,
      "t": 142957.80650000082,
      "d": 63.77489583333954,
      "v": 102
    },
    {
      "midi": 67,
      "hit": false,
      "t": 142957.80650000082,
      "d": 70.1523854166735,
      "v": 91
    },
    {
      "midi": 77,
      "hit": false,
      "t": 142957.80650000082,
      "d": 70.1523854166735,
      "v": 105
    },
    {
      "midi": 74,
      "hit": false,
      "t": 143570.04550000082,
      "d": 63.77489583333954,
      "v": 90
    },
    {
      "midi": 77,
      "hit": false,
      "t": 143570.04550000082,
      "d": 63.77489583333954,
      "v": 85
    },
    {
      "midi": 69,
      "hit": false,
      "t": 143570.04550000082,
      "d": 82.9073645833414,
      "v": 80
    },
    {
      "midi": 77,
      "hit": false,
      "t": 143742.23771875084,
      "d": 51.019916666671634,
      "v": 98
    },
    {
      "midi": 74,
      "hit": false,
      "t": 143742.23771875084,
      "d": 63.77489583333954,
      "v": 104
    },
    {
      "midi": 69,
      "hit": false,
      "t": 143742.23771875084,
      "d": 70.1523854166735,
      "v": 94
    },
    {
      "midi": 69,
      "hit": false,
      "t": 144182.28450000085,
      "d": 89.28485416667536,
      "v": 106
    },
    {
      "midi": 72,
      "hit": false,
      "t": 144182.28450000085,
      "d": 89.28485416667536,
      "v": 100
    },
    {
      "midi": 66,
      "hit": false,
      "t": 144182.28450000085,
      "d": 114.79481250001118,
      "v": 87
    },
    {
      "midi": 75,
      "hit": false,
      "t": 144182.28450000085,
      "d": 114.79481250001118,
      "v": 87
    },
    {
      "midi": 67,
      "hit": false,
      "t": 144794.52350000085,
      "d": 63.77489583333954,
      "v": 82
    },
    {
      "midi": 70,
      "hit": false,
      "t": 144794.52350000085,
      "d": 63.77489583333954,
      "v": 79
    },
    {
      "midi": 74,
      "hit": false,
      "t": 144794.52350000085,
      "d": 63.77489583333954,
      "v": 86
    },
    {
      "midi": 70,
      "hit": false,
      "t": 144966.71571875087,
      "d": 51.019916666671634,
      "v": 84
    },
    {
      "midi": 74,
      "hit": false,
      "t": 144966.71571875087,
      "d": 63.77489583333954,
      "v": 90
    },
    {
      "midi": 67,
      "hit": false,
      "t": 144966.71571875087,
      "d": 70.1523854166735,
      "v": 85
    },
    {
      "midi": 70,
      "hit": false,
      "t": 145406.76250000088,
      "d": 57.39740625000559,
      "v": 95
    },
    {
      "midi": 74,
      "hit": false,
      "t": 145406.76250000088,
      "d": 57.39740625000559,
      "v": 101
    },
    {
      "midi": 67,
      "hit": false,
      "t": 145406.76250000088,
      "d": 70.1523854166735,
      "v": 96
    },
    {
      "midi": 70,
      "hit": false,
      "t": 146019.0015000009,
      "d": 57.39740625000559,
      "v": 83
    },
    {
      "midi": 74,
      "hit": false,
      "t": 146019.0015000009,
      "d": 63.77489583333954,
      "v": 90
    },
    {
      "midi": 67,
      "hit": false,
      "t": 146019.0015000009,
      "d": 70.1523854166735,
      "v": 85
    },
    {
      "midi": 70,
      "hit": false,
      "t": 146191.1937187509,
      "d": 44.64242708333768,
      "v": 97
    },
    {
      "midi": 74,
      "hit": false,
      "t": 146191.1937187509,
      "d": 51.019916666671634,
      "v": 97
    },
    {
      "midi": 67,
      "hit": false,
      "t": 146191.1937187509,
      "d": 57.39740625000559,
      "v": 93
    },
    {
      "midi": 77,
      "hit": false,
      "t": 147243.47950000092,
      "d": 44.64242708333768,
      "v": 68
    },
    {
      "midi": 67,
      "hit": false,
      "t": 147243.47950000092,
      "d": 70.1523854166735,
      "v": 78
    },
    {
      "midi": 70,
      "hit": false,
      "t": 147243.47950000092,
      "d": 70.1523854166735,
      "v": 80
    },
    {
      "midi": 70,
      "hit": false,
      "t": 147415.67171875093,
      "d": 51.019916666671634,
      "v": 101
    },
    {
      "midi": 67,
      "hit": false,
      "t": 147415.67171875093,
      "d": 57.39740625000559,
      "v": 98
    },
    {
      "midi": 77,
      "hit": false,
      "t": 147415.67171875093,
      "d": 57.39740625000559,
      "v": 105
    },
    {
      "midi": 67,
      "hit": false,
      "t": 147855.71850000095,
      "d": 70.1523854166735,
      "v": 93
    },
    {
      "midi": 77,
      "hit": false,
      "t": 147855.71850000095,
      "d": 70.1523854166735,
      "v": 100
    },
    {
      "midi": 70,
      "hit": false,
      "t": 147855.71850000095,
      "d": 76.52987500000745,
      "v": 99
    },
    {
      "midi": 69,
      "hit": false,
      "t": 148467.95750000095,
      "d": 44.64242708333768,
      "v": 60
    },
    {
      "midi": 74,
      "hit": false,
      "t": 148467.95750000095,
      "d": 57.39740625000559,
      "v": 80
    },
    {
      "midi": 74,
      "hit": false,
      "t": 148640.14971875097,
      "d": 57.39740625000559,
      "v": 106
    },
    {
      "midi": 77,
      "hit": false,
      "t": 148640.14971875097,
      "d": 57.39740625000559,
      "v": 100
    },
    {
      "midi": 69,
      "hit": false,
      "t": 148640.14971875097,
      "d": 82.9073645833414,
      "v": 93
    },
    {
      "midi": 69,
      "hit": false,
      "t": 149080.19650000098,
      "d": 108.41732291667722,
      "v": 94
    },
    {
      "midi": 66,
      "hit": false,
      "t": 149080.19650000098,
      "d": 114.79481250001118,
      "v": 94
    },
    {
      "midi": 75,
      "hit": false,
      "t": 149080.19650000098,
      "d": 127.54979166667908,
      "v": 94
    },
    {
      "midi": 70,
      "hit": false,
      "t": 149692.43550000098,
      "d": 44.64242708333768,
      "v": 87
    },
    {
      "midi": 67,
      "hit": false,
      "t": 149692.43550000098,
      "d": 51.019916666671634,
      "v": 84
    },
    {
      "midi": 74,
      "hit": false,
      "t": 149692.43550000098,
      "d": 63.77489583333954,
      "v": 92
    },
    {
      "midi": 67,
      "hit": false,
      "t": 149864.627718751,
      "d": 44.64242708333768,
      "v": 80
    },
    {
      "midi": 70,
      "hit": false,
      "t": 149864.627718751,
      "d": 44.64242708333768,
      "v": 87
    },
    {
      "midi": 74,
      "hit": false,
      "t": 150304.674500001,
      "d": 38.264937500003725,
      "v": 69
    },
    {
      "midi": 67,
      "hit": false,
      "t": 150304.674500001,
      "d": 51.019916666671634,
      "v": 82
    },
    {
      "midi": 70,
      "hit": false,
      "t": 150304.674500001,
      "d": 57.39740625000559,
      "v": 87
    },
    {
      "midi": 70,
      "hit": false,
      "t": 150916.913500001,
      "d": 57.39740625000559,
      "v": 77
    },
    {
      "midi": 74,
      "hit": false,
      "t": 150916.913500001,
      "d": 63.77489583333954,
      "v": 78
    },
    {
      "midi": 67,
      "hit": false,
      "t": 150916.913500001,
      "d": 70.1523854166735,
      "v": 85
    },
    {
      "midi": 70,
      "hit": false,
      "t": 151089.10571875103,
      "d": 51.019916666671634,
      "v": 99
    },
    {
      "midi": 74,
      "hit": false,
      "t": 151089.10571875103,
      "d": 51.019916666671634,
      "v": 101
    },
    {
      "midi": 67,
      "hit": false,
      "t": 151089.10571875103,
      "d": 70.1523854166735,
      "v": 93
    },
    {
      "midi": 43,
      "hit": false,
      "t": 151835.27200000104,
      "d": 293.3645208333328,
      "v": 100
    },
    {
      "midi": 79,
      "hit": false,
      "t": 151835.27200000104,
      "d": 293.3645208333328,
      "v": 98
    },
    {
      "midi": 41,
      "hit": false,
      "t": 152313.58371875103,
      "d": 248.7220937499951,
      "v": 100
    },
    {
      "midi": 77,
      "hit": false,
      "t": 152313.58371875103,
      "d": 267.854562499997,
      "v": 110
    },
    {
      "midi": 38,
      "hit": false,
      "t": 152753.63050000102,
      "d": 395.40435416667606,
      "v": 104
    },
    {
      "midi": 74,
      "hit": false,
      "t": 152753.63050000102,
      "d": 427.29180208334583,
      "v": 95
    },
    {
      "midi": 72,
      "hit": false,
      "t": 153365.86950000102,
      "d": 140.304770833347,
      "v": 110
    },
    {
      "midi": 36,
      "hit": false,
      "t": 153365.86950000102,
      "d": 165.8147291666828,
      "v": 106
    },
    {
      "midi": 70,
      "hit": false,
      "t": 153671.98900000105,
      "d": 140.304770833347,
      "v": 99
    },
    {
      "midi": 34,
      "hit": false,
      "t": 153671.98900000105,
      "d": 153.0597500000149,
      "v": 99
    },
    {
      "midi": 74,
      "hit": false,
      "t": 153978.10850000105,
      "d": 133.92728125001304,
      "v": 104
    },
    {
      "midi": 38,
      "hit": false,
      "t": 153978.10850000105,
      "d": 197.70217708335258,
      "v": 105
    },
    {
      "midi": 72,
      "hit": false,
      "t": 154284.22800000108,
      "d": 338.00694791667047,
      "v": 99
    },
    {
      "midi": 36,
      "hit": false,
      "t": 154284.22800000108,
      "d": 369.89439583334024,
      "v": 96
    },
    {
      "midi": 70,
      "hit": false,
      "t": 154762.5397187511,
      "d": 242.34460416666116,
      "v": 99
    },
    {
      "midi": 34,
      "hit": false,
      "t": 154762.5397187511,
      "d": 248.7220937499951,
      "v": 102
    },
    {
      "midi": 67,
      "hit": false,
      "t": 155202.58650000108,
      "d": 1141.5706354166614,
      "v": 97
    },
    {
      "midi": 31,
      "hit": false,
      "t": 155202.58650000108,
      "d": 1594.372395833314,
      "v": 105
    },
    {
      "midi": 38,
      "hit": false,
      "t": 156427.06449999998,
      "d": 153.0597500000149,
      "v": 97
    },
    {
      "midi": 41,
      "hit": false,
      "t": 156567.36927083333,
      "d": 197.70217708332348,
      "v": 86
    },
    {
      "midi": 43,
      "hit": false,
      "t": 156733.18399999998,
      "d": 191.32468750001863,
      "v": 84
    },
    {
      "midi": 46,
      "hit": false,
      "t": 156879.86626041666,
      "d": 114.79481250001118,
      "v": 110
    },
    {
      "midi": 43,
      "hit": false,
      "t": 157211.49571875,
      "d": 133.92728125001304,
      "v": 106
    },
    {
      "midi": 41,
      "hit": false,
      "t": 157536.7476875,
      "d": 82.9073645833414,
      "v": 68
    },
    {
      "midi": 43,
      "hit": false,
      "t": 157664.29747916668,
      "d": 255.09958333332906,
      "v": 110
    },
    {
      "midi": 38,
      "hit": false,
      "t": 158148.9866875,
      "d": 57.39740625000559,
      "v": 114
    },
    {
      "midi": 34,
      "hit": false,
      "t": 158461.48367708334,
      "d": 146.68226041668095,
      "v": 80
    },
    {
      "midi": 36,
      "hit": false,
      "t": 158608.16593750002,
      "d": 178.56970833335072,
      "v": 91
    },
    {
      "midi": 38,
      "hit": false,
      "t": 158748.47070833336,
      "d": 89.28485416667536,
      "v": 100
    },
    {
      "midi": 38,
      "hit": false,
      "t": 159156.6300416667,
      "d": 121.17230208334513,
      "v": 67
    },
    {
      "midi": 37,
      "hit": false,
      "t": 159214.0274479167,
      "d": 153.0597500000149,
      "v": 88
    },
    {
      "midi": 36,
      "hit": false,
      "t": 159328.82226041672,
      "d": 127.54979166667908,
      "v": 80
    },
    {
      "midi": 34,
      "hit": false,
      "t": 159488.25950000007,
      "d": 159.43723958331975,
      "v": 97
    },
    {
      "midi": 31,
      "hit": false,
      "t": 159673.20669791673,
      "d": 255.09958333332906,
      "v": 104
    },
    {
      "midi": 34,
      "hit": false,
      "t": 159966.57121875006,
      "d": 114.79481250001118,
      "v": 79
    },
    {
      "midi": 31,
      "hit": false,
      "t": 160113.25347916674,
      "d": 892.8485416666663,
      "v": 96
    },
    {
      "midi": 43,
      "hit": false,
      "t": 163027.76621875106,
      "d": 389.0268645833712,
      "v": 81
    },
    {
      "midi": 62,
      "hit": false,
      "t": 163161.69350000107,
      "d": 76.52987500000745,
      "v": 97
    },
    {
      "midi": 67,
      "hit": false,
      "t": 163161.69350000107,
      "d": 89.28485416667536,
      "v": 87
    },
    {
      "midi": 58,
      "hit": false,
      "t": 163161.69350000107,
      "d": 108.41732291667722,
      "v": 79
    },
    {
      "midi": 58,
      "hit": false,
      "t": 163333.8857187511,
      "d": 95.66234375000931,
      "v": 88
    },
    {
      "midi": 62,
      "hit": false,
      "t": 163333.8857187511,
      "d": 95.66234375000931,
      "v": 117
    },
    {
      "midi": 67,
      "hit": false,
      "t": 163333.8857187511,
      "d": 146.68226041668095,
      "v": 117
    },
    {
      "midi": 48,
      "hit": false,
      "t": 165476.7222187511,
      "d": 433.6692916667089,
      "v": 81
    },
    {
      "midi": 63,
      "hit": false,
      "t": 165610.6495000011,
      "d": 95.66234375000931,
      "v": 92
    },
    {
      "midi": 67,
      "hit": false,
      "t": 165610.6495000011,
      "d": 95.66234375000931,
      "v": 104
    },
    {
      "midi": 60,
      "hit": false,
      "t": 165610.6495000011,
      "d": 102.03983333334327,
      "v": 96
    },
    {
      "midi": 60,
      "hit": false,
      "t": 165782.84171875112,
      "d": 95.66234375000931,
      "v": 104
    },
    {
      "midi": 63,
      "hit": false,
      "t": 165782.84171875112,
      "d": 95.66234375000931,
      "v": 104
    },
    {
      "midi": 67,
      "hit": false,
      "t": 165782.84171875112,
      "d": 95.66234375000931,
      "v": 115
    },
    {
      "midi": 43,
      "hit": false,
      "t": 167925.67821875113,
      "d": 363.5169062500354,
      "v": 82
    },
    {
      "midi": 62,
      "hit": false,
      "t": 168059.60550000114,
      "d": 89.28485416667536,
      "v": 104
    },
    {
      "midi": 67,
      "hit": false,
      "t": 168059.60550000114,
      "d": 89.28485416667536,
      "v": 92
    },
    {
      "midi": 58,
      "hit": false,
      "t": 168059.60550000114,
      "d": 114.79481250001118,
      "v": 81
    },
    {
      "midi": 58,
      "hit": false,
      "t": 168231.79771875116,
      "d": 95.66234375000931,
      "v": 84
    },
    {
      "midi": 62,
      "hit": false,
      "t": 168231.79771875116,
      "d": 95.66234375000931,
      "v": 108
    },
    {
      "midi": 67,
      "hit": false,
      "t": 168231.79771875116,
      "d": 140.304770833347,
      "v": 98
    },
    {
      "midi": 43,
      "hit": false,
      "t": 170374.63421875116,
      "d": 229.58962500002235,
      "v": 79
    },
    {
      "midi": 67,
      "hit": false,
      "t": 170508.56150000117,
      "d": 89.28485416667536,
      "v": 98
    },
    {
      "midi": 62,
      "hit": false,
      "t": 170508.56150000117,
      "d": 95.66234375000931,
      "v": 105
    },
    {
      "midi": 58,
      "hit": false,
      "t": 170508.56150000117,
      "d": 114.79481250001118,
      "v": 81
    },
    {
      "midi": 58,
      "hit": false,
      "t": 170680.7537187512,
      "d": 95.66234375000931,
      "v": 83
    },
    {
      "midi": 62,
      "hit": false,
      "t": 170680.7537187512,
      "d": 95.66234375000931,
      "v": 100
    },
    {
      "midi": 67,
      "hit": false,
      "t": 170680.7537187512,
      "d": 95.66234375000931,
      "v": 106
    },
    {
      "midi": 43,
      "hit": false,
      "t": 172823.5902187512,
      "d": 229.58962500002235,
      "v": 86
    },
    {
      "midi": 67,
      "hit": false,
      "t": 172957.5175000012,
      "d": 89.28485416667536,
      "v": 103
    },
    {
      "midi": 62,
      "hit": false,
      "t": 172957.5175000012,
      "d": 108.41732291667722,
      "v": 106
    },
    {
      "midi": 58,
      "hit": false,
      "t": 172957.5175000012,
      "d": 121.17230208334513,
      "v": 92
    },
    {
      "midi": 58,
      "hit": false,
      "t": 173129.70971875123,
      "d": 146.68226041668095,
      "v": 92
    },
    {
      "midi": 62,
      "hit": false,
      "t": 173129.70971875123,
      "d": 146.68226041668095,
      "v": 106
    },
    {
      "midi": 67,
      "hit": false,
      "t": 173129.70971875123,
      "d": 159.43723958334886,
      "v": 111
    },
    {
      "midi": 63,
      "hit": false,
      "t": 173569.75650000124,
      "d": 2557.3733229166537,
      "v": 93
    },
    {
      "midi": 67,
      "hit": false,
      "t": 173569.75650000124,
      "d": 2563.7508124999877,
      "v": 107
    },
    {
      "midi": 60,
      "hit": false,
      "t": 173569.75650000124,
      "d": 2602.0157499999914,
      "v": 98
    },
    {
      "midi": 48,
      "hit": false,
      "t": 173569.75650000124,
      "d": 2646.658177083329,
      "v": 90
    },
    {
      "midi": 43,
      "hit": false,
      "t": 177721.50221875124,
      "d": 299.74201041669585,
      "v": 90
    },
    {
      "midi": 62,
      "hit": false,
      "t": 177855.42950000125,
      "d": 89.28485416667536,
      "v": 100
    },
    {
      "midi": 67,
      "hit": false,
      "t": 177855.42950000125,
      "d": 89.28485416667536,
      "v": 99
    },
    {
      "midi": 58,
      "hit": false,
      "t": 177855.42950000125,
      "d": 114.79481250001118,
      "v": 81
    },
    {
      "midi": 58,
      "hit": false,
      "t": 178027.62171875127,
      "d": 95.66234375000931,
      "v": 78
    },
    {
      "midi": 62,
      "hit": false,
      "t": 178027.62171875127,
      "d": 95.66234375000931,
      "v": 108
    },
    {
      "midi": 67,
      "hit": false,
      "t": 178027.62171875127,
      "d": 95.66234375000931,
      "v": 93
    },
    {
      "midi": 43,
      "hit": false,
      "t": 180170.45821875127,
      "d": 306.1195000000298,
      "v": 88
    },
    {
      "midi": 67,
      "hit": false,
      "t": 180304.38550000128,
      "d": 121.17230208334513,
      "v": 104
    },
    {
      "midi": 62,
      "hit": false,
      "t": 180304.38550000128,
      "d": 133.92728125001304,
      "v": 100
    },
    {
      "midi": 58,
      "hit": false,
      "t": 180304.38550000128,
      "d": 140.304770833347,
      "v": 87
    },
    {
      "midi": 58,
      "hit": false,
      "t": 180476.5777187513,
      "d": 95.66234375000931,
      "v": 81
    },
    {
      "midi": 62,
      "hit": false,
      "t": 180476.5777187513,
      "d": 95.66234375000931,
      "v": 107
    },
    {
      "midi": 67,
      "hit": false,
      "t": 180476.5777187513,
      "d": 146.68226041668095,
      "v": 118
    },
    {
      "midi": 67,
      "hit": false,
      "t": 181528.86350000132,
      "d": 89.28485416667536,
      "v": 90
    },
    {
      "midi": 70,
      "hit": false,
      "t": 181528.86350000132,
      "d": 89.28485416667536,
      "v": 97
    },
    {
      "midi": 75,
      "hit": false,
      "t": 181528.86350000132,
      "d": 108.41732291667722,
      "v": 95
    },
    {
      "midi": 67,
      "hit": false,
      "t": 182141.10250000132,
      "d": 82.9073645833414,
      "v": 89
    },
    {
      "midi": 70,
      "hit": false,
      "t": 182141.10250000132,
      "d": 89.28485416667536,
      "v": 101
    },
    {
      "midi": 75,
      "hit": false,
      "t": 182141.10250000132,
      "d": 114.79481250001118,
      "v": 98
    },
    {
      "midi": 77,
      "hit": false,
      "t": 182753.34150000132,
      "d": 95.66234375000931,
      "v": 112
    },
    {
      "midi": 74,
      "hit": false,
      "t": 182753.34150000132,
      "d": 108.41732291667722,
      "v": 105
    },
    {
      "midi": 69,
      "hit": false,
      "t": 182753.34150000132,
      "d": 114.79481250001118,
      "v": 94
    },
    {
      "midi": 72,
      "hit": false,
      "t": 183365.58050000132,
      "d": 95.66234375000931,
      "v": 85
    },
    {
      "midi": 69,
      "hit": false,
      "t": 183365.58050000132,
      "d": 127.54979166667908,
      "v": 91
    },
    {
      "midi": 66,
      "hit": false,
      "t": 183365.58050000132,
      "d": 140.304770833347,
      "v": 81
    },
    {
      "midi": 75,
      "hit": false,
      "t": 183365.58050000132,
      "d": 140.304770833347,
      "v": 86
    },
    {
      "midi": 70,
      "hit": false,
      "t": 183977.81950000132,
      "d": 70.1523854166735,
      "v": 85
    },
    {
      "midi": 74,
      "hit": false,
      "t": 183977.81950000132,
      "d": 70.1523854166735,
      "v": 97
    },
    {
      "midi": 67,
      "hit": false,
      "t": 183977.81950000132,
      "d": 76.52987500000745,
      "v": 92
    },
    {
      "midi": 67,
      "hit": false,
      "t": 184590.05850000132,
      "d": 89.28485416667536,
      "v": 93
    },
    {
      "midi": 74,
      "hit": false,
      "t": 184590.05850000132,
      "d": 89.28485416667536,
      "v": 99
    },
    {
      "midi": 70,
      "hit": false,
      "t": 184590.05850000132,
      "d": 95.66234375000931,
      "v": 97
    },
    {
      "midi": 67,
      "hit": false,
      "t": 185202.29750000132,
      "d": 82.9073645833414,
      "v": 88
    },
    {
      "midi": 70,
      "hit": false,
      "t": 185202.29750000132,
      "d": 82.9073645833414,
      "v": 88
    },
    {
      "midi": 74,
      "hit": false,
      "t": 185202.29750000132,
      "d": 82.9073645833414,
      "v": 96
    },
    {
      "midi": 67,
      "hit": false,
      "t": 185814.53650000133,
      "d": 89.28485416667536,
      "v": 93
    },
    {
      "midi": 70,
      "hit": false,
      "t": 185814.53650000133,
      "d": 89.28485416667536,
      "v": 95
    },
    {
      "midi": 74,
      "hit": false,
      "t": 185814.53650000133,
      "d": 102.03983333334327,
      "v": 100
    },
    {
      "midi": 67,
      "hit": false,
      "t": 186426.77550000133,
      "d": 114.79481250001118,
      "v": 98
    },
    {
      "midi": 70,
      "hit": false,
      "t": 186426.77550000133,
      "d": 121.17230208334513,
      "v": 97
    },
    {
      "midi": 75,
      "hit": false,
      "t": 186426.77550000133,
      "d": 127.54979166667908,
      "v": 90
    },
    {
      "midi": 67,
      "hit": false,
      "t": 187039.01450000133,
      "d": 95.66234375000931,
      "v": 93
    },
    {
      "midi": 70,
      "hit": false,
      "t": 187039.01450000133,
      "d": 114.79481250001118,
      "v": 98
    },
    {
      "midi": 75,
      "hit": false,
      "t": 187039.01450000133,
      "d": 114.79481250001118,
      "v": 90
    },
    {
      "midi": 77,
      "hit": false,
      "t": 187651.25350000133,
      "d": 102.03983333334327,
      "v": 100
    },
    {
      "midi": 69,
      "hit": false,
      "t": 187651.25350000133,
      "d": 108.41732291667722,
      "v": 76
    },
    {
      "midi": 74,
      "hit": false,
      "t": 187651.25350000133,
      "d": 114.79481250001118,
      "v": 98
    },
    {
      "midi": 72,
      "hit": false,
      "t": 188263.49250000133,
      "d": 76.52987500000745,
      "v": 86
    },
    {
      "midi": 69,
      "hit": false,
      "t": 188263.49250000133,
      "d": 95.66234375000931,
      "v": 100
    },
    {
      "midi": 75,
      "hit": false,
      "t": 188263.49250000133,
      "d": 114.79481250001118,
      "v": 81
    },
    {
      "midi": 66,
      "hit": false,
      "t": 188263.49250000133,
      "d": 133.92728125001304,
      "v": 76
    },
    {
      "midi": 70,
      "hit": false,
      "t": 188875.73150000133,
      "d": 89.28485416667536,
      "v": 80
    },
    {
      "midi": 74,
      "hit": false,
      "t": 188875.73150000133,
      "d": 89.28485416667536,
      "v": 86
    },
    {
      "midi": 67,
      "hit": false,
      "t": 188875.73150000133,
      "d": 95.66234375000931,
      "v": 86
    },
    {
      "midi": 67,
      "hit": false,
      "t": 189487.97050000133,
      "d": 89.28485416667536,
      "v": 86
    },
    {
      "midi": 74,
      "hit": false,
      "t": 189487.97050000133,
      "d": 89.28485416667536,
      "v": 86
    },
    {
      "midi": 70,
      "hit": false,
      "t": 189487.97050000133,
      "d": 102.03983333334327,
      "v": 83
    },
    {
      "midi": 67,
      "hit": false,
      "t": 190100.20950000134,
      "d": 89.28485416667536,
      "v": 90
    },
    {
      "midi": 74,
      "hit": false,
      "t": 190100.20950000134,
      "d": 89.28485416667536,
      "v": 96
    },
    {
      "midi": 70,
      "hit": false,
      "t": 190100.20950000134,
      "d": 102.03983333334327,
      "v": 92
    },
    {
      "midi": 67,
      "hit": false,
      "t": 190712.44850000134,
      "d": 89.28485416667536,
      "v": 86
    },
    {
      "midi": 74,
      "hit": false,
      "t": 190712.44850000134,
      "d": 89.28485416667536,
      "v": 92
    },
    {
      "midi": 70,
      "hit": false,
      "t": 190712.44850000134,
      "d": 108.41732291667722,
      "v": 90
    },
    {
      "midi": 67,
      "hit": false,
      "t": 191324.68750000134,
      "d": 89.28485416667536,
      "v": 91
    },
    {
      "midi": 70,
      "hit": false,
      "t": 191324.68750000134,
      "d": 108.41732291667722,
      "v": 107
    },
    {
      "midi": 75,
      "hit": false,
      "t": 191324.68750000134,
      "d": 127.54979166667908,
      "v": 102
    },
    {
      "midi": 67,
      "hit": false,
      "t": 191936.92650000134,
      "d": 89.28485416667536,
      "v": 95
    },
    {
      "midi": 70,
      "hit": false,
      "t": 191936.92650000134,
      "d": 108.41732291667722,
      "v": 104
    },
    {
      "midi": 75,
      "hit": false,
      "t": 191936.92650000134,
      "d": 108.41732291667722,
      "v": 101
    },
    {
      "midi": 77,
      "hit": false,
      "t": 192549.16550000134,
      "d": 89.28485416667536,
      "v": 105
    },
    {
      "midi": 74,
      "hit": false,
      "t": 192549.16550000134,
      "d": 108.41732291667722,
      "v": 99
    },
    {
      "midi": 69,
      "hit": false,
      "t": 192549.16550000134,
      "d": 127.54979166667908,
      "v": 88
    },
    {
      "midi": 72,
      "hit": false,
      "t": 193161.40450000134,
      "d": 95.66234375000931,
      "v": 90
    },
    {
      "midi": 69,
      "hit": false,
      "t": 193161.40450000134,
      "d": 127.54979166667908,
      "v": 96
    },
    {
      "midi": 75,
      "hit": false,
      "t": 193161.40450000134,
      "d": 140.304770833347,
      "v": 77
    },
    {
      "midi": 66,
      "hit": false,
      "t": 193161.40450000134,
      "d": 146.68226041668095,
      "v": 66
    },
    {
      "midi": 67,
      "hit": false,
      "t": 193773.64350000134,
      "d": 70.1523854166735,
      "v": 86
    },
    {
      "midi": 74,
      "hit": false,
      "t": 193773.64350000134,
      "d": 70.1523854166735,
      "v": 91
    },
    {
      "midi": 70,
      "hit": false,
      "t": 193773.64350000134,
      "d": 76.52987500000745,
      "v": 82
    },
    {
      "midi": 70,
      "hit": false,
      "t": 194385.88250000135,
      "d": 82.9073645833414,
      "v": 98
    },
    {
      "midi": 74,
      "hit": false,
      "t": 194385.88250000135,
      "d": 82.9073645833414,
      "v": 101
    },
    {
      "midi": 67,
      "hit": false,
      "t": 194385.88250000135,
      "d": 89.28485416667536,
      "v": 99
    },
    {
      "midi": 67,
      "hit": false,
      "t": 194998.12150000135,
      "d": 76.52987500000745,
      "v": 86
    },
    {
      "midi": 70,
      "hit": false,
      "t": 194998.12150000135,
      "d": 89.28485416667536,
      "v": 87
    },
    {
      "midi": 74,
      "hit": false,
      "t": 194998.12150000135,
      "d": 89.28485416667536,
      "v": 94
    },
    {
      "midi": 67,
      "hit": false,
      "t": 195610.36050000135,
      "d": 70.1523854166735,
      "v": 86
    },
    {
      "midi": 74,
      "hit": false,
      "t": 195610.36050000135,
      "d": 70.1523854166735,
      "v": 96
    },
    {
      "midi": 70,
      "hit": false,
      "t": 195610.36050000135,
      "d": 89.28485416667536,
      "v": 92
    },
    {
      "midi": 70,
      "hit": false,
      "t": 196222.59950000135,
      "d": 89.28485416667536,
      "v": 99
    },
    {
      "midi": 67,
      "hit": false,
      "t": 196222.59950000135,
      "d": 102.03983333334327,
      "v": 93
    },
    {
      "midi": 75,
      "hit": false,
      "t": 196222.59950000135,
      "d": 127.54979166667908,
      "v": 101
    },
    {
      "midi": 67,
      "hit": false,
      "t": 196834.83850000135,
      "d": 76.52987500000745,
      "v": 93
    },
    {
      "midi": 70,
      "hit": false,
      "t": 196834.83850000135,
      "d": 89.28485416667536,
      "v": 109
    },
    {
      "midi": 75,
      "hit": false,
      "t": 196834.83850000135,
      "d": 95.66234375000931,
      "v": 101
    },
    {
      "midi": 77,
      "hit": false,
      "t": 197447.07750000135,
      "d": 89.28485416667536,
      "v": 100
    },
    {
      "midi": 74,
      "hit": false,
      "t": 197447.07750000135,
      "d": 102.03983333334327,
      "v": 101
    },
    {
      "midi": 69,
      "hit": false,
      "t": 197447.07750000135,
      "d": 114.79481250001118,
      "v": 93
    },
    {
      "midi": 72,
      "hit": false,
      "t": 198059.31650000135,
      "d": 89.28485416667536,
      "v": 96
    },
    {
      "midi": 66,
      "hit": false,
      "t": 198059.31650000135,
      "d": 114.79481250001118,
      "v": 71
    },
    {
      "midi": 75,
      "hit": false,
      "t": 198059.31650000135,
      "d": 114.79481250001118,
      "v": 87
    },
    {
      "midi": 69,
      "hit": false,
      "t": 198059.31650000135,
      "d": 127.54979166667908,
      "v": 99
    },
    {
      "midi": 70,
      "hit": false,
      "t": 198671.55550000136,
      "d": 70.1523854166735,
      "v": 87
    },
    {
      "midi": 67,
      "hit": false,
      "t": 198671.55550000136,
      "d": 76.52987500000745,
      "v": 86
    },
    {
      "midi": 74,
      "hit": false,
      "t": 198671.55550000136,
      "d": 82.9073645833414,
      "v": 90
    },
    {
      "midi": 70,
      "hit": false,
      "t": 199283.79450000136,
      "d": 76.52987500000745,
      "v": 90
    },
    {
      "midi": 67,
      "hit": false,
      "t": 199283.79450000136,
      "d": 89.28485416667536,
      "v": 92
    },
    {
      "midi": 74,
      "hit": false,
      "t": 199283.79450000136,
      "d": 89.28485416667536,
      "v": 96
    },
    {
      "midi": 70,
      "hit": false,
      "t": 199896.03350000136,
      "d": 57.39740625000559,
      "v": 87
    },
    {
      "midi": 74,
      "hit": false,
      "t": 199896.03350000136,
      "d": 63.77489583333954,
      "v": 95
    },
    {
      "midi": 67,
      "hit": false,
      "t": 199896.03350000136,
      "d": 82.9073645833414,
      "v": 97
    },
    {
      "midi": 70,
      "hit": false,
      "t": 200508.27250000136,
      "d": 76.52987500000745,
      "v": 81
    },
    {
      "midi": 67,
      "hit": false,
      "t": 200508.27250000136,
      "d": 102.03983333334327,
      "v": 92
    },
    {
      "midi": 74,
      "hit": false,
      "t": 200508.27250000136,
      "d": 114.79481250001118,
      "v": 97
    },
    {
      "midi": 67,
      "hit": false,
      "t": 201120.51150000136,
      "d": 82.9073645833414,
      "v": 96
    },
    {
      "midi": 70,
      "hit": false,
      "t": 201120.51150000136,
      "d": 82.9073645833414,
      "v": 98
    },
    {
      "midi": 75,
      "hit": false,
      "t": 201120.51150000136,
      "d": 102.03983333334327,
      "v": 94
    },
    {
      "midi": 67,
      "hit": false,
      "t": 201732.75050000136,
      "d": 70.1523854166735,
      "v": 77
    },
    {
      "midi": 70,
      "hit": false,
      "t": 201732.75050000136,
      "d": 89.28485416667536,
      "v": 92
    },
    {
      "midi": 75,
      "hit": false,
      "t": 201732.75050000136,
      "d": 89.28485416667536,
      "v": 87
    },
    {
      "midi": 77,
      "hit": false,
      "t": 202344.98950000136,
      "d": 70.1523854166735,
      "v": 112
    },
    {
      "midi": 74,
      "hit": false,
      "t": 202344.98950000136,
      "d": 76.52987500000745,
      "v": 105
    },
    {
      "midi": 69,
      "hit": false,
      "t": 202344.98950000136,
      "d": 89.28485416667536,
      "v": 94
    },
    {
      "midi": 72,
      "hit": false,
      "t": 202957.22850000137,
      "d": 76.52987500000745,
      "v": 91
    },
    {
      "midi": 69,
      "hit": false,
      "t": 202957.22850000137,
      "d": 82.9073645833414,
      "v": 99
    },
    {
      "midi": 75,
      "hit": false,
      "t": 202957.22850000137,
      "d": 95.66234375000931,
      "v": 88
    },
    {
      "midi": 66,
      "hit": false,
      "t": 202957.22850000137,
      "d": 108.41732291667722,
      "v": 87
    },
    {
      "midi": 74,
      "hit": false,
      "t": 203569.46750000137,
      "d": 70.1523854166735,
      "v": 94
    },
    {
      "midi": 70,
      "hit": false,
      "t": 203569.46750000137,
      "d": 76.52987500000745,
      "v": 92
    },
    {
      "midi": 67,
      "hit": false,
      "t": 203569.46750000137,
      "d": 89.28485416667536,
      "v": 90
    },
    {
      "midi": 74,
      "hit": false,
      "t": 204181.70650000137,
      "d": 89.28485416667536,
      "v": 97
    },
    {
      "midi": 70,
      "hit": false,
      "t": 204181.70650000137,
      "d": 95.66234375000931,
      "v": 93
    },
    {
      "midi": 67,
      "hit": false,
      "t": 204181.70650000137,
      "d": 102.03983333334327,
      "v": 96
    },
    {
      "midi": 70,
      "hit": false,
      "t": 204793.94550000137,
      "d": 82.9073645833414,
      "v": 101
    },
    {
      "midi": 67,
      "hit": false,
      "t": 204793.94550000137,
      "d": 89.28485416667536,
      "v": 107
    },
    {
      "midi": 74,
      "hit": false,
      "t": 204793.94550000137,
      "d": 89.28485416667536,
      "v": 107
    },
    {
      "midi": 79,
      "hit": false,
      "t": 205712.30400000137,
      "d": 331.6294583333365,
      "v": 100
    },
    {
      "midi": 43,
      "hit": false,
      "t": 205712.30400000137,
      "d": 363.5169062500063,
      "v": 93
    },
    {
      "midi": 77,
      "hit": false,
      "t": 206190.6157187514,
      "d": 267.854562499997,
      "v": 105
    },
    {
      "midi": 41,
      "hit": false,
      "t": 206190.6157187514,
      "d": 293.3645208333328,
      "v": 93
    },
    {
      "midi": 74,
      "hit": false,
      "t": 206630.6625000014,
      "d": 471.9342291666544,
      "v": 100
    },
    {
      "midi": 38,
      "hit": false,
      "t": 206630.6625000014,
      "d": 510.19916666665813,
      "v": 108
    },
    {
      "midi": 72,
      "hit": false,
      "t": 207242.9015000014,
      "d": 153.0597499999858,
      "v": 105
    },
    {
      "midi": 36,
      "hit": false,
      "t": 207242.9015000014,
      "d": 172.19221874998766,
      "v": 112
    },
    {
      "midi": 70,
      "hit": false,
      "t": 207549.0210000014,
      "d": 127.54979166667908,
      "v": 93
    },
    {
      "midi": 34,
      "hit": false,
      "t": 207549.0210000014,
      "d": 165.8147291666828,
      "v": 99
    },
    {
      "midi": 74,
      "hit": false,
      "t": 207855.14050000143,
      "d": 127.54979166667908,
      "v": 100
    },
    {
      "midi": 38,
      "hit": false,
      "t": 207855.14050000143,
      "d": 165.8147291666828,
      "v": 117
    },
    {
      "midi": 36,
      "hit": false,
      "t": 208161.26000000146,
      "d": 395.40435416667606,
      "v": 104
    },
    {
      "midi": 72,
      "hit": false,
      "t": 208161.26000000146,
      "d": 395.40435416667606,
      "v": 95
    },
    {
      "midi": 34,
      "hit": false,
      "t": 208639.57171875148,
      "d": 280.6095416666649,
      "v": 99
    },
    {
      "midi": 70,
      "hit": false,
      "t": 208639.57171875148,
      "d": 299.74201041666674,
      "v": 98
    },
    {
      "midi": 67,
      "hit": false,
      "t": 209079.6185000015,
      "d": 1109.6831874999916,
      "v": 93
    },
    {
      "midi": 31,
      "hit": false,
      "t": 209079.6185000015,
      "d": 1696.4122291666572,
      "v": 101
    },
    {
      "midi": 55,
      "hit": false,
      "t": 213231.3642187515,
      "d": 223.2121354166884,
      "v": 67
    },
    {
      "midi": 62,
      "hit": false,
      "t": 213365.2915000015,
      "d": 38.264937500003725,
      "v": 94
    },
    {
      "midi": 58,
      "hit": false,
      "t": 213365.2915000015,
      "d": 57.39740625000559,
      "v": 74
    },
    {
      "midi": 67,
      "hit": false,
      "t": 213365.2915000015,
      "d": 63.77489583333954,
      "v": 96
    },
    {
      "midi": 67,
      "hit": false,
      "t": 213537.48371875152,
      "d": 114.79481250001118,
      "v": 105
    },
    {
      "midi": 62,
      "hit": false,
      "t": 213537.48371875152,
      "d": 121.17230208334513,
      "v": 110
    },
    {
      "midi": 58,
      "hit": false,
      "t": 213537.48371875152,
      "d": 140.304770833347,
      "v": 87
    },
    {
      "midi": 48,
      "hit": false,
      "t": 215680.32021875153,
      "d": 242.34460416669026,
      "v": 79
    },
    {
      "midi": 63,
      "hit": false,
      "t": 215814.24750000154,
      "d": 89.28485416667536,
      "v": 98
    },
    {
      "midi": 67,
      "hit": false,
      "t": 215814.24750000154,
      "d": 89.28485416667536,
      "v": 100
    },
    {
      "midi": 60,
      "hit": false,
      "t": 215814.24750000154,
      "d": 95.66234375000931,
      "v": 93
    },
    {
      "midi": 63,
      "hit": false,
      "t": 215986.43971875156,
      "d": 70.1523854166735,
      "v": 102
    },
    {
      "midi": 67,
      "hit": false,
      "t": 215986.43971875156,
      "d": 76.52987500000745,
      "v": 114
    },
    {
      "midi": 60,
      "hit": false,
      "t": 215986.43971875156,
      "d": 82.9073645833414,
      "v": 100
    },
    {
      "midi": 55,
      "hit": false,
      "t": 218129.27621875156,
      "d": 159.43723958334886,
      "v": 73
    },
    {
      "midi": 62,
      "hit": false,
      "t": 218263.20350000157,
      "d": 57.39740625000559,
      "v": 98
    },
    {
      "midi": 67,
      "hit": false,
      "t": 218263.20350000157,
      "d": 76.52987500000745,
      "v": 97
    },
    {
      "midi": 58,
      "hit": false,
      "t": 218263.20350000157,
      "d": 89.28485416667536,
      "v": 81
    },
    {
      "midi": 67,
      "hit": false,
      "t": 218435.3957187516,
      "d": 102.03983333334327,
      "v": 101
    },
    {
      "midi": 62,
      "hit": false,
      "t": 218435.3957187516,
      "d": 108.41732291667722,
      "v": 104
    },
    {
      "midi": 58,
      "hit": false,
      "t": 218435.3957187516,
      "d": 121.17230208334513,
      "v": 97
    },
    {
      "midi": 57,
      "hit": false,
      "t": 218741.5152187516,
      "d": 95.66234375000931,
      "v": 90
    },
    {
      "midi": 65,
      "hit": false,
      "t": 218741.5152187516,
      "d": 140.304770833347,
      "v": 82
    },
    {
      "midi": 62,
      "hit": false,
      "t": 218875.4425000016,
      "d": 102.03983333334327,
      "v": 100
    },
    {
      "midi": 58,
      "hit": false,
      "t": 218875.4425000016,
      "d": 114.79481250001118,
      "v": 104
    },
    {
      "midi": 67,
      "hit": false,
      "t": 218875.4425000016,
      "d": 121.17230208334513,
      "v": 110
    },
    {
      "midi": 55,
      "hit": false,
      "t": 220578.23221875163,
      "d": 127.54979166667908,
      "v": 70
    },
    {
      "midi": 58,
      "hit": false,
      "t": 220712.15950000164,
      "d": 38.264937500003725,
      "v": 57
    },
    {
      "midi": 62,
      "hit": false,
      "t": 220712.15950000164,
      "d": 38.264937500003725,
      "v": 86
    },
    {
      "midi": 67,
      "hit": false,
      "t": 220712.15950000164,
      "d": 51.019916666671634,
      "v": 77
    },
    {
      "midi": 62,
      "hit": false,
      "t": 220884.35171875166,
      "d": 63.77489583333954,
      "v": 90
    },
    {
      "midi": 67,
      "hit": false,
      "t": 220884.35171875166,
      "d": 82.9073645833414,
      "v": 86
    },
    {
      "midi": 58,
      "hit": false,
      "t": 220884.35171875166,
      "d": 95.66234375000931,
      "v": 78
    },
    {
      "midi": 65,
      "hit": false,
      "t": 221018.27900000167,
      "d": 261.477072916663,
      "v": 105
    },
    {
      "midi": 62,
      "hit": false,
      "t": 221018.27900000167,
      "d": 299.74201041666674,
      "v": 106
    },
    {
      "midi": 58,
      "hit": false,
      "t": 221324.39850000167,
      "d": 89.28485416667536,
      "v": 90
    },
    {
      "midi": 67,
      "hit": false,
      "t": 221324.39850000167,
      "d": 89.28485416667536,
      "v": 110
    },
    {
      "midi": 55,
      "hit": false,
      "t": 223027.1882187517,
      "d": 229.58962500002235,
      "v": 69
    },
    {
      "midi": 62,
      "hit": false,
      "t": 223161.1155000017,
      "d": 44.64242708333768,
      "v": 94
    },
    {
      "midi": 67,
      "hit": false,
      "t": 223161.1155000017,
      "d": 51.019916666671634,
      "v": 88
    },
    {
      "midi": 58,
      "hit": false,
      "t": 223161.1155000017,
      "d": 76.52987500000745,
      "v": 79
    },
    {
      "midi": 62,
      "hit": false,
      "t": 223333.30771875172,
      "d": 82.9073645833414,
      "v": 105
    },
    {
      "midi": 58,
      "hit": false,
      "t": 223333.30771875172,
      "d": 95.66234375000931,
      "v": 93
    },
    {
      "midi": 67,
      "hit": false,
      "t": 223333.30771875172,
      "d": 95.66234375000931,
      "v": 112
    },
    {
      "midi": 48,
      "hit": false,
      "t": 225476.14421875172,
      "d": 242.34460416669026,
      "v": 39
    },
    {
      "midi": 63,
      "hit": false,
      "t": 225610.07150000174,
      "d": 82.9073645833414,
      "v": 87
    },
    {
      "midi": 67,
      "hit": false,
      "t": 225610.07150000174,
      "d": 82.9073645833414,
      "v": 97
    },
    {
      "midi": 60,
      "hit": false,
      "t": 225610.07150000174,
      "d": 89.28485416667536,
      "v": 88
    },
    {
      "midi": 63,
      "hit": false,
      "t": 225782.26371875175,
      "d": 89.28485416667536,
      "v": 113
    },
    {
      "midi": 67,
      "hit": false,
      "t": 225782.26371875175,
      "d": 95.66234375000931,
      "v": 124
    },
    {
      "midi": 60,
      "hit": false,
      "t": 225782.26371875175,
      "d": 102.03983333334327,
      "v": 110
    },
    {
      "midi": 55,
      "hit": false,
      "t": 227925.10021875176,
      "d": 204.07966666668653,
      "v": 66
    },
    {
      "midi": 67,
      "hit": false,
      "t": 228059.02750000177,
      "d": 51.019916666671634,
      "v": 82
    },
    {
      "midi": 58,
      "hit": false,
      "t": 228059.02750000177,
      "d": 76.52987500000745,
      "v": 68
    },
    {
      "midi": 62,
      "hit": false,
      "t": 228231.2197187518,
      "d": 70.1523854166735,
      "v": 96
    },
    {
      "midi": 67,
      "hit": false,
      "t": 228231.2197187518,
      "d": 76.52987500000745,
      "v": 100
    },
    {
      "midi": 58,
      "hit": false,
      "t": 228231.2197187518,
      "d": 89.28485416667536,
      "v": 93
    },
    {
      "midi": 62,
      "hit": false,
      "t": 228365.1470000018,
      "d": 76.52987500000745,
      "v": 67
    },
    {
      "midi": 57,
      "hit": false,
      "t": 228365.1470000018,
      "d": 210.4571562500205,
      "v": 93
    },
    {
      "midi": 65,
      "hit": false,
      "t": 228365.1470000018,
      "d": 261.4770729166921,
      "v": 94
    },
    {
      "midi": 62,
      "hit": false,
      "t": 228671.26650000183,
      "d": 76.52987500000745,
      "v": 52
    },
    {
      "midi": 58,
      "hit": false,
      "t": 228671.26650000183,
      "d": 82.9073645833414,
      "v": 86
    },
    {
      "midi": 67,
      "hit": false,
      "t": 228671.26650000183,
      "d": 121.17230208334513,
      "v": 88
    },
    {
      "midi": 55,
      "hit": false,
      "t": 230374.05621875185,
      "d": 127.54979166667908,
      "v": 76
    },
    {
      "midi": 62,
      "hit": false,
      "t": 230507.98350000186,
      "d": 57.39740625000559,
      "v": 88
    },
    {
      "midi": 67,
      "hit": false,
      "t": 230507.98350000186,
      "d": 57.39740625000559,
      "v": 76
    },
    {
      "midi": 58,
      "hit": false,
      "t": 230507.98350000186,
      "d": 63.77489583333954,
      "v": 69
    },
    {
      "midi": 62,
      "hit": false,
      "t": 230680.17571875188,
      "d": 76.52987500000745,
      "v": 100
    },
    {
      "midi": 67,
      "hit": false,
      "t": 230680.17571875188,
      "d": 76.52987500000745,
      "v": 100
    },
    {
      "midi": 58,
      "hit": false,
      "t": 230680.17571875188,
      "d": 82.9073645833414,
      "v": 92
    },
    {
      "midi": 65,
      "hit": false,
      "t": 230986.29521875188,
      "d": 108.41732291667722,
      "v": 83
    },
    {
      "midi": 62,
      "hit": false,
      "t": 230986.29521875188,
      "d": 223.2121354166884,
      "v": 84
    },
    {
      "midi": 67,
      "hit": false,
      "t": 231120.2225000019,
      "d": 114.79481250001118,
      "v": 107
    },
    {
      "midi": 58,
      "hit": false,
      "t": 231120.2225000019,
      "d": 146.68226041668095,
      "v": 70
    },
    {
      "midi": 55,
      "hit": false,
      "t": 232823.01221875192,
      "d": 165.8147291666828,
      "v": 60
    },
    {
      "midi": 62,
      "hit": false,
      "t": 232956.93950000193,
      "d": 63.77489583333954,
      "v": 100
    },
    {
      "midi": 58,
      "hit": false,
      "t": 232956.93950000193,
      "d": 76.52987500000745,
      "v": 72
    },
    {
      "midi": 67,
      "hit": false,
      "t": 232956.93950000193,
      "d": 76.52987500000745,
      "v": 93
    },
    {
      "midi": 62,
      "hit": false,
      "t": 233129.13171875195,
      "d": 89.28485416667536,
      "v": 98
    },
    {
      "midi": 67,
      "hit": false,
      "t": 233129.13171875195,
      "d": 95.66234375000931,
      "v": 99
    },
    {
      "midi": 58,
      "hit": false,
      "t": 233129.13171875195,
      "d": 114.79481250001118,
      "v": 87
    },
    {
      "midi": 48,
      "hit": false,
      "t": 235271.96821875195,
      "d": 210.4571562500205,
      "v": 69
    },
    {
      "midi": 67,
      "hit": false,
      "t": 235405.89550000196,
      "d": 70.1523854166735,
      "v": 100
    },
    {
      "midi": 63,
      "hit": false,
      "t": 235405.89550000196,
      "d": 76.52987500000745,
      "v": 97
    },
    {
      "midi": 60,
      "hit": false,
      "t": 235405.89550000196,
      "d": 82.9073645833414,
      "v": 93
    },
    {
      "midi": 63,
      "hit": false,
      "t": 235578.08771875198,
      "d": 51.019916666671634,
      "v": 101
    },
    {
      "midi": 67,
      "hit": false,
      "t": 235578.08771875198,
      "d": 63.77489583333954,
      "v": 112
    },
    {
      "midi": 60,
      "hit": false,
      "t": 235578.08771875198,
      "d": 70.1523854166735,
      "v": 99
    },
    {
      "midi": 55,
      "hit": false,
      "t": 237720.92421875198,
      "d": 178.56970833335072,
      "v": 64
    },
    {
      "midi": 62,
      "hit": false,
      "t": 237854.851500002,
      "d": 38.264937500003725,
      "v": 89
    },
    {
      "midi": 67,
      "hit": false,
      "t": 237854.851500002,
      "d": 76.52987500000745,
      "v": 93
    },
    {
      "midi": 58,
      "hit": false,
      "t": 237854.851500002,
      "d": 82.9073645833414,
      "v": 77
    },
    {
      "midi": 62,
      "hit": false,
      "t": 238027.04371875201,
      "d": 108.41732291667722,
      "v": 96
    },
    {
      "midi": 67,
      "hit": false,
      "t": 238027.04371875201,
      "d": 108.41732291667722,
      "v": 88
    },
    {
      "midi": 58,
      "hit": false,
      "t": 238027.04371875201,
      "d": 121.17230208334513,
      "v": 87
    },
    {
      "midi": 58,
      "hit": false,
      "t": 238333.16321875202,
      "d": 57.39740625000559,
      "v": 54
    },
    {
      "midi": 62,
      "hit": false,
      "t": 238333.16321875202,
      "d": 57.39740625000559,
      "v": 74
    },
    {
      "midi": 65,
      "hit": false,
      "t": 238333.16321875202,
      "d": 70.1523854166735,
      "v": 85
    },
    {
      "midi": 62,
      "hit": false,
      "t": 238467.09050000203,
      "d": 82.9073645833414,
      "v": 96
    },
    {
      "midi": 67,
      "hit": false,
      "t": 238467.09050000203,
      "d": 89.28485416667536,
      "v": 104
    },
    {
      "midi": 58,
      "hit": false,
      "t": 238467.09050000203,
      "d": 178.56970833335072,
      "v": 63
    },
    {
      "midi": 62,
      "hit": false,
      "t": 239997.68800000203,
      "d": 38.264937500003725,
      "v": 80
    },
    {
      "midi": 58,
      "hit": false,
      "t": 239997.68800000203,
      "d": 102.03983333334327,
      "v": 76
    },
    {
      "midi": 67,
      "hit": false,
      "t": 239997.68800000203,
      "d": 108.41732291667722,
      "v": 92
    },
    {
      "midi": 58,
      "hit": false,
      "t": 240169.88021875205,
      "d": 51.019916666671634,
      "v": 64
    },
    {
      "midi": 62,
      "hit": false,
      "t": 240169.88021875205,
      "d": 51.019916666671634,
      "v": 90
    },
    {
      "midi": 67,
      "hit": false,
      "t": 240169.88021875205,
      "d": 51.019916666671634,
      "v": 78
    },
    {
      "midi": 62,
      "hit": false,
      "t": 240475.99971875205,
      "d": 70.1523854166735,
      "v": 108
    },
    {
      "midi": 58,
      "hit": false,
      "t": 240475.99971875205,
      "d": 82.9073645833414,
      "v": 97
    },
    {
      "midi": 67,
      "hit": false,
      "t": 240475.99971875205,
      "d": 127.54979166667908,
      "v": 115
    },
    {
      "midi": 62,
      "hit": false,
      "t": 240782.11921875205,
      "d": 63.77489583333954,
      "v": 78
    },
    {
      "midi": 65,
      "hit": false,
      "t": 240782.11921875205,
      "d": 95.66234375000931,
      "v": 88
    },
    {
      "midi": 58,
      "hit": false,
      "t": 240782.11921875205,
      "d": 223.2121354166884,
      "v": 53
    },
    {
      "midi": 62,
      "hit": false,
      "t": 240916.04650000206,
      "d": 63.77489583333954,
      "v": 69
    },
    {
      "midi": 67,
      "hit": false,
      "t": 240916.04650000206,
      "d": 108.41732291667722,
      "v": 117
    },
    {
      "midi": 55,
      "hit": false,
      "t": 242618.83621875208,
      "d": 191.32468750001863,
      "v": 64
    },
    {
      "midi": 62,
      "hit": false,
      "t": 242752.7635000021,
      "d": 38.264937500003725,
      "v": 82
    },
    {
      "midi": 67,
      "hit": false,
      "t": 242752.7635000021,
      "d": 63.77489583333954,
      "v": 79
    },
    {
      "midi": 62,
      "hit": false,
      "t": 242924.9557187521,
      "d": 57.39740625000559,
      "v": 106
    },
    {
      "midi": 67,
      "hit": false,
      "t": 242924.9557187521,
      "d": 70.1523854166735,
      "v": 100
    },
    {
      "midi": 58,
      "hit": false,
      "t": 242924.9557187521,
      "d": 82.9073645833414,
      "v": 104
    },
    {
      "midi": 48,
      "hit": false,
      "t": 245067.79221875212,
      "d": 197.70217708335258,
      "v": 80
    },
    {
      "midi": 63,
      "hit": false,
      "t": 245201.71950000213,
      "d": 63.77489583333954,
      "v": 92
    },
    {
      "midi": 67,
      "hit": false,
      "t": 245201.71950000213,
      "d": 63.77489583333954,
      "v": 100
    },
    {
      "midi": 60,
      "hit": false,
      "t": 245201.71950000213,
      "d": 76.52987500000745,
      "v": 91
    },
    {
      "midi": 67,
      "hit": false,
      "t": 245373.91171875215,
      "d": 57.39740625000559,
      "v": 118
    },
    {
      "midi": 63,
      "hit": false,
      "t": 245373.91171875215,
      "d": 63.77489583333954,
      "v": 109
    },
    {
      "midi": 60,
      "hit": false,
      "t": 245373.91171875215,
      "d": 70.1523854166735,
      "v": 101
    },
    {
      "midi": 55,
      "hit": false,
      "t": 247516.74821875215,
      "d": 172.19221875001676,
      "v": 65
    },
    {
      "midi": 62,
      "hit": false,
      "t": 247650.67550000217,
      "d": 38.264937500003725,
      "v": 85
    },
    {
      "midi": 67,
      "hit": false,
      "t": 247650.67550000217,
      "d": 76.52987500000745,
      "v": 85
    },
    {
      "midi": 58,
      "hit": false,
      "t": 247650.67550000217,
      "d": 89.28485416667536,
      "v": 76
    },
    {
      "midi": 62,
      "hit": false,
      "t": 247822.86771875218,
      "d": 82.9073645833414,
      "v": 100
    },
    {
      "midi": 67,
      "hit": false,
      "t": 247822.86771875218,
      "d": 82.9073645833414,
      "v": 94
    },
    {
      "midi": 58,
      "hit": false,
      "t": 247822.86771875218,
      "d": 121.17230208334513,
      "v": 83
    },
    {
      "midi": 57,
      "hit": false,
      "t": 248128.98721875218,
      "d": 82.9073645833414,
      "v": 76
    },
    {
      "midi": 65,
      "hit": false,
      "t": 248128.98721875218,
      "d": 108.41732291667722,
      "v": 81
    },
    {
      "midi": 62,
      "hit": false,
      "t": 248262.9145000022,
      "d": 108.41732291667722,
      "v": 85
    },
    {
      "midi": 67,
      "hit": false,
      "t": 248262.9145000022,
      "d": 140.304770833347,
      "v": 92
    },
    {
      "midi": 58,
      "hit": false,
      "t": 248262.9145000022,
      "d": 178.56970833335072,
      "v": 82
    },
    {
      "midi": 62,
      "hit": false,
      "t": 250099.6315000022,
      "d": 38.264937500003725,
      "v": 87
    },
    {
      "midi": 58,
      "hit": false,
      "t": 250099.6315000022,
      "d": 57.39740625000559,
      "v": 92
    },
    {
      "midi": 67,
      "hit": false,
      "t": 250099.6315000022,
      "d": 63.77489583333954,
      "v": 100
    },
    {
      "midi": 62,
      "hit": false,
      "t": 250271.82371875222,
      "d": 38.264937500003725,
      "v": 93
    },
    {
      "midi": 67,
      "hit": false,
      "t": 250271.82371875222,
      "d": 63.77489583333954,
      "v": 106
    },
    {
      "midi": 58,
      "hit": false,
      "t": 250271.82371875222,
      "d": 70.1523854166735,
      "v": 102
    },
    {
      "midi": 65,
      "hit": false,
      "t": 250405.75100000223,
      "d": 242.34460416666116,
      "v": 93
    },
    {
      "midi": 57,
      "hit": false,
      "t": 250405.75100000223,
      "d": 299.74201041666674,
      "v": 98
    },
    {
      "midi": 62,
      "hit": false,
      "t": 250405.75100000223,
      "d": 299.74201041666674,
      "v": 65
    },
    {
      "midi": 62,
      "hit": false,
      "t": 250711.87050000223,
      "d": 89.28485416667536,
      "v": 90
    },
    {
      "midi": 67,
      "hit": false,
      "t": 250711.87050000223,
      "d": 114.79481250001118,
      "v": 112
    },
    {
      "midi": 58,
      "hit": false,
      "t": 250711.87050000223,
      "d": 121.17230208334513,
      "v": 93
    }
  ]
}