{
  "jsonPath": "Unknown/Unknown/Mariano Yanani/let-your-soul-be-your-pilot.json",
  "path": "Unknown\\Unknown\\Mariano Yanani\\Let Your Soul Be Your Pilot.mid",
  "name": "Let Your Soul Be Your Pilot",
  "difficulty": "Advanced",
  "bpm": 94.00012846684224,
  "notes": [
    {
      "midi": 63,
      "hit": false,
      "t": 29032.540109374997,
      "d": 279.2549375000017,
      "v": 116
    },
    {
      "midi": 58,
      "hit": false,
      "t": 29032.540109374997,
      "d": 1100.3974322916692,
      "v": 127
    },
    {
      "midi": 62,
      "hit": false,
      "t": 29355.013072916667,
      "d": 751.3287604166653,
      "v": 90
    },
    {
      "midi": 60,
      "hit": false,
      "t": 30309.134109374998,
      "d": 355.71759895833384,
      "v": 120
    },
    {
      "midi": 53,
      "hit": false,
      "t": 30309.134109374998,
      "d": 658.2437812500029,
      "v": 114
    },
    {
      "midi": 58,
      "hit": false,
      "t": 30634.93153645833,
      "d": 319.14850000000297,
      "v": 88
    },
    {
      "midi": 39,
      "hit": false,
      "t": 30944.106645833333,
      "d": 339.09528124999997,
      "v": 87
    },
    {
      "midi": 60,
      "hit": false,
      "t": 30947.431109375,
      "d": 359.0420625000006,
      "v": 96
    },
    {
      "midi": 38,
      "hit": false,
      "t": 31259.930682291666,
      "d": 1638.9605260416683,
      "v": 67
    },
    {
      "midi": 58,
      "hit": false,
      "t": 31259.930682291666,
      "d": 1655.5828437499986,
      "v": 80
    },
    {
      "midi": 67,
      "hit": false,
      "t": 74976.62625520834,
      "d": 289.22832812499837,
      "v": 97
    },
    {
      "midi": 69,
      "hit": false,
      "t": 75139.52496875,
      "d": 189.49442187500244,
      "v": 100
    },
    {
      "midi": 67,
      "hit": false,
      "t": 75315.72153645834,
      "d": 880.9828385416622,
      "v": 91
    },
    {
      "midi": 70,
      "hit": false,
      "t": 75329.019390625,
      "d": 794.5467864583334,
      "v": 102
    },
    {
      "midi": 69,
      "hit": false,
      "t": 76269.84257291666,
      "d": 236.03691145833,
      "v": 97
    },
    {
      "midi": 67,
      "hit": false,
      "t": 76439.39021354166,
      "d": 149.60085937500116,
      "v": 97
    },
    {
      "midi": 62,
      "hit": false,
      "t": 76598.96446354166,
      "d": 2037.8961510416702,
      "v": 97
    },
    {
      "midi": 66,
      "hit": false,
      "t": 76602.28892708333,
      "d": 2047.8695416666742,
      "v": 107
    },
    {
      "midi": 79,
      "hit": false,
      "t": 76914.7885,
      "d": 1093.7485052083357,
      "v": 73
    },
    {
      "midi": 82,
      "hit": false,
      "t": 77233.93699999999,
      "d": 681.5150260416704,
      "v": 70
    },
    {
      "midi": 86,
      "hit": false,
      "t": 77243.910390625,
      "d": 688.1639531249966,
      "v": 73
    },
    {
      "midi": 67,
      "hit": false,
      "t": 80089.65118229167,
      "d": 312.49957291665487,
      "v": 97
    },
    {
      "midi": 69,
      "hit": false,
      "t": 80232.60311458333,
      "d": 219.41459374999977,
      "v": 101
    },
    {
      "midi": 67,
      "hit": false,
      "t": 80415.44860937499,
      "d": 691.4884166666743,
      "v": 97
    },
    {
      "midi": 70,
      "hit": false,
      "t": 80425.42199999999,
      "d": 568.4832656250073,
      "v": 104
    },
    {
      "midi": 69,
      "hit": false,
      "t": 81356.27179166666,
      "d": 169.54764062499453,
      "v": 97
    },
    {
      "midi": 67,
      "hit": false,
      "t": 81512.52157812499,
      "d": 156.24978645832743,
      "v": 101
    },
    {
      "midi": 67,
      "hit": false,
      "t": 81682.06921874998,
      "d": 2217.4171822916687,
      "v": 97
    },
    {
      "midi": 64,
      "hit": false,
      "t": 81688.7181458333,
      "d": 2194.145937500012,
      "v": 97
    },
    {
      "midi": 60,
      "hit": false,
      "t": 81702.01599999997,
      "d": 2170.874692708341,
      "v": 97
    },
    {
      "midi": 82,
      "hit": false,
      "t": 82011.19110937498,
      "d": 355.71759895833384,
      "v": 67
    },
    {
      "midi": 84,
      "hit": false,
      "t": 82333.66407291665,
      "d": 1319.8120260416617,
      "v": 73
    },
    {
      "midi": 79,
      "hit": false,
      "t": 82333.66407291665,
      "d": 1336.434343749992,
      "v": 73
    },
    {
      "midi": 65,
      "hit": false,
      "t": 95425.40149999998,
      "d": 1333.1098802083288,
      "v": 90
    },
    {
      "midi": 74,
      "hit": false,
      "t": 95744.54999999997,
      "d": 1283.2429270833236,
      "v": 99
    },
    {
      "midi": 63,
      "hit": false,
      "t": 96701.99549999998,
      "d": 2200.794864583324,
      "v": 87
    },
    {
      "midi": 39,
      "hit": false,
      "t": 96701.99549999998,
      "d": 2749.3313489583234,
      "v": 89
    },
    {
      "midi": 72,
      "hit": false,
      "t": 97021.14399999997,
      "d": 1988.029197916665,
      "v": 97
    },
    {
      "midi": 67,
      "hit": false,
      "t": 156678.64225520828,
      "d": 289.22832812499837,
      "v": 97
    },
    {
      "midi": 69,
      "hit": false,
      "t": 156841.54096874993,
      "d": 189.4944218749879,
      "v": 100
    },
    {
      "midi": 67,
      "hit": false,
      "t": 157017.73753645827,
      "d": 880.9828385416477,
      "v": 91
    },
    {
      "midi": 70,
      "hit": false,
      "t": 157031.03539062492,
      "d": 794.5467864583188,
      "v": 102
    },
    {
      "midi": 69,
      "hit": false,
      "t": 157971.8585729166,
      "d": 236.03691145833,
      "v": 97
    },
    {
      "midi": 67,
      "hit": false,
      "t": 158141.4062135416,
      "d": 149.60085937500116,
      "v": 97
    },
    {
      "midi": 62,
      "hit": false,
      "t": 158300.9804635416,
      "d": 2037.8961510416702,
      "v": 97
    },
    {
      "midi": 66,
      "hit": false,
      "t": 158304.30492708329,
      "d": 2047.869541666645,
      "v": 107
    },
    {
      "midi": 79,
      "hit": false,
      "t": 158616.80449999994,
      "d": 1093.7485052083503,
      "v": 73
    },
    {
      "midi": 82,
      "hit": false,
      "t": 158935.95299999995,
      "d": 681.5150260416849,
      "v": 70
    },
    {
      "midi": 86,
      "hit": false,
      "t": 158945.92639062495,
      "d": 688.1639531250112,
      "v": 73
    },
    {
      "midi": 67,
      "hit": false,
      "t": 161791.6671822916,
      "d": 312.499572916684,
      "v": 97
    },
    {
      "midi": 69,
      "hit": false,
      "t": 161934.61911458327,
      "d": 219.41459374999977,
      "v": 101
    },
    {
      "midi": 67,
      "hit": false,
      "t": 162117.46460937493,
      "d": 691.4884166666598,
      "v": 97
    },
    {
      "midi": 70,
      "hit": false,
      "t": 162127.43799999994,
      "d": 568.4832656249928,
      "v": 104
    },
    {
      "midi": 69,
      "hit": false,
      "t": 163058.2877916666,
      "d": 169.54764062497998,
      "v": 97
    },
    {
      "midi": 67,
      "hit": false,
      "t": 163214.53757812493,
      "d": 156.24978645832743,
      "v": 101
    },
    {
      "midi": 67,
      "hit": false,
      "t": 163384.0852187499,
      "d": 2217.417182291625,
      "v": 97
    },
    {
      "midi": 64,
      "hit": false,
      "t": 163390.73414583324,
      "d": 2194.1459374999686,
      "v": 97
    },
    {
      "midi": 60,
      "hit": false,
      "t": 163404.0319999999,
      "d": 2170.874692708312,
      "v": 97
    },
    {
      "midi": 82,
      "hit": false,
      "t": 163713.2071093749,
      "d": 355.7175989583193,
      "v": 67
    },
    {
      "midi": 84,
      "hit": false,
      "t": 164035.68007291656,
      "d": 1319.8120260416472,
      "v": 73
    },
    {
      "midi": 79,
      "hit": false,
      "t": 164035.68007291656,
      "d": 1336.4343437499774,
      "v": 73
    },
    {
      "midi": 65,
      "hit": false,
      "t": 177127.41749999986,
      "d": 1333.109880208358,
      "v": 90
    },
    {
      "midi": 74,
      "hit": false,
      "t": 177446.56599999988,
      "d": 1283.2429270833381,
      "v": 99
    },
    {
      "midi": 63,
      "hit": false,
      "t": 178404.01149999988,
      "d": 2200.794864583324,
      "v": 87
    },
    {
      "midi": 39,
      "hit": false,
      "t": 178404.01149999988,
      "d": 2749.331348958338,
      "v": 89
    },
    {
      "midi": 72,
      "hit": false,
      "t": 178723.1599999999,
      "d": 1988.0291979166504,
      "v": 97
    },
    {
      "midi": 58,
      "hit": false,
      "t": 221794.90964583322,
      "d": 1100.3974322916474,
      "v": 110
    },
    {
      "midi": 63,
      "hit": false,
      "t": 221804.88303645822,
      "d": 279.2549374999944,
      "v": 96
    },
    {
      "midi": 62,
      "hit": false,
      "t": 222120.70707291656,
      "d": 751.3287604166544,
      "v": 90
    },
    {
      "midi": 53,
      "hit": false,
      "t": 242074.13724999985,
      "d": 129.65407812499325,
      "v": 67
    },
    {
      "midi": 58,
      "hit": false,
      "t": 242220.41364583318,
      "d": 990.6901354166621,
      "v": 110
    },
    {
      "midi": 55,
      "hit": false,
      "t": 242223.73810937486,
      "d": 249.33476562498254,
      "v": 99
    },
    {
      "midi": 63,
      "hit": false,
      "t": 242230.38703645818,
      "d": 279.2549374999944,
      "v": 96
    },
    {
      "midi": 53,
      "hit": false,
      "t": 242542.88660937484,
      "d": 644.9459270833468,
      "v": 83
    },
    {
      "midi": 62,
      "hit": false,
      "t": 242542.88660937484,
      "d": 654.9193177083507,
      "v": 90
    },
    {
      "midi": 62,
      "hit": false,
      "t": 260425.17599999983,
      "d": 2220.741645833332,
      "v": 92
    },
    {
      "midi": 67,
      "hit": false,
      "t": 260425.17599999983,
      "d": 2220.741645833332,
      "v": 100
    },
    {
      "midi": 62,
      "hit": false,
      "t": 262975.03953645815,
      "d": 2247.337354166666,
      "v": 101
    },
    {
      "midi": 66,
      "hit": false,
      "t": 262978.3639999998,
      "d": 2217.4171822916833,
      "v": 100
    },
    {
      "midi": 65,
      "hit": false,
      "t": 265524.9030729165,
      "d": 2134.305593749974,
      "v": 106
    },
    {
      "midi": 62,
      "hit": false,
      "t": 265524.9030729165,
      "d": 2167.5502291666344,
      "v": 94
    },
    {
      "midi": 64,
      "hit": false,
      "t": 268074.7666093748,
      "d": 2044.5450781250256,
      "v": 101
    },
    {
      "midi": 60,
      "hit": false,
      "t": 268074.7666093748,
      "d": 2061.167395833356,
      "v": 97
    },
    {
      "midi": 58,
      "hit": false,
      "t": 270631.2790729165,
      "d": 704.7862708333414,
      "v": 98
    },
    {
      "midi": 63,
      "hit": false,
      "t": 270631.2790729165,
      "d": 734.7064427083242,
      "v": 98
    },
    {
      "midi": 67,
      "hit": false,
      "t": 271931.14431770815,
      "d": 73.13819791667629,
      "v": 94
    },
    {
      "midi": 63,
      "hit": false,
      "t": 272094.04303124984,
      "d": 116.35622395836981,
      "v": 87
    },
    {
      "midi": 70,
      "hit": false,
      "t": 272097.3674947915,
      "d": 116.35622395836981,
      "v": 100
    },
    {
      "midi": 63,
      "hit": false,
      "t": 272549.4945364582,
      "d": 295.87725520832464,
      "v": 104
    },
    {
      "midi": 70,
      "hit": false,
      "t": 272549.4945364582,
      "d": 305.8506458332995,
      "v": 104
    },
    {
      "midi": 72,
      "hit": false,
      "t": 275744.3039999998,
      "d": 940.8231822917005,
      "v": 89
    },
    {
      "midi": 60,
      "hit": false,
      "t": 275750.9529270832,
      "d": 944.1476458333782,
      "v": 98
    },
    {
      "midi": 65,
      "hit": false,
      "t": 275750.9529270832,
      "d": 944.1476458333782,
      "v": 109
    },
    {
      "midi": 72,
      "hit": false,
      "t": 276691.7761093749,
      "d": 944.1476458333782,
      "v": 89
    },
    {
      "midi": 60,
      "hit": false,
      "t": 276701.7494999999,
      "d": 940.8231822917005,
      "v": 98
    },
    {
      "midi": 65,
      "hit": false,
      "t": 276701.7494999999,
      "d": 940.8231822917005,
      "v": 109
    },
    {
      "midi": 60,
      "hit": false,
      "t": 277655.8705364583,
      "d": 455.45150520832976,
      "v": 91
    },
    {
      "midi": 65,
      "hit": false,
      "t": 277655.8705364583,
      "d": 458.77596875000745,
      "v": 100
    },
    {
      "midi": 64,
      "hit": false,
      "t": 278290.8430729166,
      "d": 1891.6197552083759,
      "v": 106
    },
    {
      "midi": 60,
      "hit": false,
      "t": 278290.8430729166,
      "d": 1908.242072916706,
      "v": 96
    },
    {
      "midi": 72,
      "hit": false,
      "t": 278297.49199999997,
      "d": 1888.2952916666982,
      "v": 86
    },
    {
      "midi": 58,
      "hit": false,
      "t": 280850.68,
      "d": 950.7965729166754,
      "v": 125
    },
    {
      "midi": 62,
      "hit": false,
      "t": 280850.68,
      "d": 950.7965729166754,
      "v": 123
    },
    {
      "midi": 75,
      "hit": false,
      "t": 281808.1255,
      "d": 322.47296354168793,
      "v": 107
    },
    {
      "midi": 70,
      "hit": false,
      "t": 281808.1255,
      "d": 1103.7218958333833,
      "v": 110
    },
    {
      "midi": 74,
      "hit": false,
      "t": 282127.27400000003,
      "d": 764.6266145833652,
      "v": 101
    },
    {
      "midi": 58,
      "hit": false,
      "t": 283403.8680000001,
      "d": 2317.1510885416646,
      "v": 127
    },
    {
      "midi": 62,
      "hit": false,
      "t": 283403.8680000001,
      "d": 2343.7467968749697,
      "v": 126
    },
    {
      "midi": 55,
      "hit": false,
      "t": 285957.05600000004,
      "d": 2247.337354166666,
      "v": 110
    },
    {
      "midi": 60,
      "hit": false,
      "t": 285957.05600000004,
      "d": 2247.337354166666,
      "v": 123
    },
    {
      "midi": 55,
      "hit": false,
      "t": 288510.24400000006,
      "d": 1968.0824166666716,
      "v": 110
    },
    {
      "midi": 59,
      "hit": false,
      "t": 288510.24400000006,
      "d": 1974.731343750027,
      "v": 114
    },
    {
      "midi": 62,
      "hit": false,
      "t": 288510.24400000006,
      "d": 2001.327052083332,
      "v": 114
    },
    {
      "midi": 63,
      "hit": false,
      "t": 291063.4320000001,
      "d": 950.7965729166754,
      "v": 125
    },
    {
      "midi": 65,
      "hit": false,
      "t": 291063.4320000001,
      "d": 950.7965729166754,
      "v": 123
    },
    {
      "midi": 63,
      "hit": false,
      "t": 292020.8775000001,
      "d": 3.3244635416776873,
      "v": 102
    },
    {
      "midi": 65,
      "hit": false,
      "t": 292020.8775000001,
      "d": 3.3244635416776873,
      "v": 114
    },
    {
      "midi": 60,
      "hit": false,
      "t": 293616.6200000001,
      "d": 857.7115937499912,
      "v": 101
    },
    {
      "midi": 65,
      "hit": false,
      "t": 293616.6200000001,
      "d": 864.3605208333465,
      "v": 120
    },
    {
      "midi": 65,
      "hit": false,
      "t": 294574.06550000014,
      "d": 1309.8386354166432,
      "v": 123
    },
    {
      "midi": 60,
      "hit": false,
      "t": 294574.06550000014,
      "d": 1323.1364895832958,
      "v": 95
    },
    {
      "midi": 67,
      "hit": false,
      "t": 296169.8080000001,
      "d": 2350.395723958325,
      "v": 117
    },
    {
      "midi": 62,
      "hit": false,
      "t": 296169.8080000001,
      "d": 2353.720187500003,
      "v": 101
    },
    {
      "midi": 62,
      "hit": false,
      "t": 298722.9960000001,
      "d": 1974.731343750027,
      "v": 98
    },
    {
      "midi": 66,
      "hit": false,
      "t": 298722.9960000001,
      "d": 1994.678125000035,
      "v": 125
    },
    {
      "midi": 63,
      "hit": false,
      "t": 301276.1840000001,
      "d": 787.8978593749925,
      "v": 115
    },
    {
      "midi": 65,
      "hit": false,
      "t": 301276.1840000001,
      "d": 791.2223229166702,
      "v": 109
    },
    {
      "midi": 63,
      "hit": false,
      "t": 302233.62950000016,
      "d": 977.3922812499804,
      "v": 120
    },
    {
      "midi": 65,
      "hit": false,
      "t": 302233.62950000016,
      "d": 1003.9879895832855,
      "v": 117
    },
    {
      "midi": 65,
      "hit": false,
      "t": 303829.3720000001,
      "d": 2017.9493697916623,
      "v": 120
    },
    {
      "midi": 60,
      "hit": false,
      "t": 303829.3720000001,
      "d": 2027.9227604166372,
      "v": 96
    },
    {
      "midi": 46,
      "hit": false,
      "t": 306382.56000000006,
      "d": 2699.464395833318,
      "v": 109
    },
    {
      "midi": 58,
      "hit": false,
      "t": 308616.59950000007,
      "d": 1642.284989583306,
      "v": 92
    },
    {
      "midi": 53,
      "hit": false,
      "t": 308616.59950000007,
      "d": 1645.6094531249837,
      "v": 88
    },
    {
      "midi": 62,
      "hit": false,
      "t": 308616.59950000007,
      "d": 1655.5828437499586,
      "v": 92
    },
    {
      "midi": 58,
      "hit": false,
      "t": 310538.13942708337,
      "d": 305.8506458333577,
      "v": 100
    },
    {
      "midi": 55,
      "hit": false,
      "t": 310541.46389062505,
      "d": 309.1751093750354,
      "v": 92
    },
    {
      "midi": 63,
      "hit": false,
      "t": 310541.46389062505,
      "d": 312.4995729167131,
      "v": 107
    },
    {
      "midi": 55,
      "hit": false,
      "t": 311006.8887864584,
      "d": 349.068671874993,
      "v": 94
    },
    {
      "midi": 63,
      "hit": false,
      "t": 311006.8887864584,
      "d": 349.068671874993,
      "v": 89
    },
    {
      "midi": 58,
      "hit": false,
      "t": 311006.8887864584,
      "d": 359.04206249996787,
      "v": 94
    },
    {
      "midi": 53,
      "hit": false,
      "t": 311482.2870729167,
      "d": 1589.0935729166958,
      "v": 92
    },
    {
      "midi": 58,
      "hit": false,
      "t": 311485.61153645837,
      "d": 1585.7691093750182,
      "v": 89
    },
    {
      "midi": 62,
      "hit": false,
      "t": 311488.93600000005,
      "d": 1589.0935729166958,
      "v": 94
    },
    {
      "midi": 70,
      "hit": false,
      "t": 313084.6785000001,
      "d": 312.49957291665487,
      "v": 102
    },
    {
      "midi": 65,
      "hit": false,
      "t": 313084.6785000001,
      "d": 322.4729635416297,
      "v": 88
    },
    {
      "midi": 74,
      "hit": false,
      "t": 313084.6785000001,
      "d": 332.4463541666046,
      "v": 88
    },
    {
      "midi": 74,
      "hit": false,
      "t": 313563.40125000005,
      "d": 332.4463541666628,
      "v": 94
    },
    {
      "midi": 70,
      "hit": false,
      "t": 313563.40125000005,
      "d": 345.7442083333153,
      "v": 102
    },
    {
      "midi": 65,
      "hit": false,
      "t": 313563.40125000005,
      "d": 355.7175989582902,
      "v": 88
    },
    {
      "midi": 74,
      "hit": false,
      "t": 314045.4484635417,
      "d": 1249.9982916666777,
      "v": 88
    },
    {
      "midi": 70,
      "hit": false,
      "t": 314045.4484635417,
      "d": 1256.647218750033,
      "v": 84
    },
    {
      "midi": 65,
      "hit": false,
      "t": 314048.77292708337,
      "d": 1276.594000000041,
      "v": 88
    }
  ]
}