{
  "jsonPath": "Unknown/Unknown/Mariano Yanani/one-year-of-love.json",
  "path": "Unknown\\Unknown\\Mariano Yanani\\One Year Of Love.mid",
  "name": "One Year Of Love",
  "difficulty": "Advanced",
  "bpm": 77.000077000077,
  "notes": [
    {
      "midi": 81,
      "hit": false,
      "t": 66626.55675,
      "d": 389.6100000000006,
      "v": 74
    },
    {
      "midi": 90,
      "hit": false,
      "t": 67006.4265,
      "d": 389.6100000000006,
      "v": 84
    },
    {
      "midi": 88,
      "hit": false,
      "t": 67412.27025,
      "d": 194.80499999999302,
      "v": 82
    },
    {
      "midi": 86,
      "hit": false,
      "t": 67600.58175,
      "d": 584.4150000000081,
      "v": 85
    },
    {
      "midi": 85,
      "hit": false,
      "t": 68181.75,
      "d": 389.6100000000006,
      "v": 79
    },
    {
      "midi": 69,
      "hit": false,
      "t": 68538.8925,
      "d": 587.6617499999993,
      "v": 91
    },
    {
      "midi": 62,
      "hit": false,
      "t": 68551.8795,
      "d": 551.9474999999948,
      "v": 67
    },
    {
      "midi": 66,
      "hit": false,
      "t": 68568.11325,
      "d": 555.1942500000005,
      "v": 61
    },
    {
      "midi": 50,
      "hit": false,
      "t": 68568.11325,
      "d": 3168.8280000000086,
      "v": 67
    },
    {
      "midi": 86,
      "hit": false,
      "t": 68574.60675,
      "d": 1168.8300000000017,
      "v": 74
    },
    {
      "midi": 78,
      "hit": false,
      "t": 68581.10025,
      "d": 2746.7504999999946,
      "v": 94
    },
    {
      "midi": 69,
      "hit": false,
      "t": 69292.1385,
      "d": 616.8824999999924,
      "v": 78
    },
    {
      "midi": 66,
      "hit": false,
      "t": 69292.1385,
      "d": 642.8564999999944,
      "v": 61
    },
    {
      "midi": 62,
      "hit": false,
      "t": 69324.606,
      "d": 590.9084999999905,
      "v": 74
    },
    {
      "midi": 85,
      "hit": false,
      "t": 69733.6965,
      "d": 389.6100000000006,
      "v": 93
    },
    {
      "midi": 86,
      "hit": false,
      "t": 70123.3065,
      "d": 389.6100000000006,
      "v": 72
    },
    {
      "midi": 69,
      "hit": false,
      "t": 70136.2935,
      "d": 538.960500000001,
      "v": 78
    },
    {
      "midi": 62,
      "hit": false,
      "t": 70146.03375,
      "d": 542.2072499999922,
      "v": 74
    },
    {
      "midi": 66,
      "hit": false,
      "t": 70155.774,
      "d": 590.9084999999905,
      "v": 66
    },
    {
      "midi": 85,
      "hit": false,
      "t": 70522.65675000001,
      "d": 194.80499999999302,
      "v": 80
    },
    {
      "midi": 83,
      "hit": false,
      "t": 70723.95525,
      "d": 584.4149999999936,
      "v": 66
    },
    {
      "midi": 69,
      "hit": false,
      "t": 70925.25374999999,
      "d": 392.8567500000063,
      "v": 99
    },
    {
      "midi": 62,
      "hit": false,
      "t": 70944.73425,
      "d": 620.1292499999981,
      "v": 74
    },
    {
      "midi": 66,
      "hit": false,
      "t": 70960.968,
      "d": 266.2335000000021,
      "v": 50
    },
    {
      "midi": 76,
      "hit": false,
      "t": 71295.38325,
      "d": 240.25950000000012,
      "v": 103
    },
    {
      "midi": 81,
      "hit": false,
      "t": 71301.87675,
      "d": 389.6100000000006,
      "v": 72
    },
    {
      "midi": 78,
      "hit": false,
      "t": 71503.17525,
      "d": 194.80500000000757,
      "v": 94
    },
    {
      "midi": 83,
      "hit": false,
      "t": 71681.7465,
      "d": 779.2200000000157,
      "v": 74
    },
    {
      "midi": 74,
      "hit": false,
      "t": 71688.23999999999,
      "d": 3116.8800000000338,
      "v": 93
    },
    {
      "midi": 71,
      "hit": false,
      "t": 71714.21399999999,
      "d": 597.4020000000019,
      "v": 103
    },
    {
      "midi": 47,
      "hit": false,
      "t": 71714.21399999999,
      "d": 1490.258249999999,
      "v": 94
    },
    {
      "midi": 66,
      "hit": false,
      "t": 71717.46075,
      "d": 574.6747500000056,
      "v": 78
    },
    {
      "midi": 62,
      "hit": false,
      "t": 71733.6945,
      "d": 564.934500000003,
      "v": 68
    },
    {
      "midi": 71,
      "hit": false,
      "t": 72473.95349999999,
      "d": 503.2462499999965,
      "v": 103
    },
    {
      "midi": 66,
      "hit": false,
      "t": 72490.18724999999,
      "d": 457.79175000000396,
      "v": 57
    },
    {
      "midi": 62,
      "hit": false,
      "t": 72509.66775,
      "d": 467.53199999999197,
      "v": 74
    },
    {
      "midi": 78,
      "hit": false,
      "t": 72853.82325,
      "d": 3.2467500000057044,
      "v": 97
    },
    {
      "midi": 71,
      "hit": false,
      "t": 73217.45924999999,
      "d": 538.9605000000156,
      "v": 99
    },
    {
      "midi": 66,
      "hit": false,
      "t": 73243.43324999999,
      "d": 454.5450000000128,
      "v": 68
    },
    {
      "midi": 62,
      "hit": false,
      "t": 73246.68,
      "d": 487.01250000001164,
      "v": 64
    },
    {
      "midi": 59,
      "hit": false,
      "t": 73246.68,
      "d": 519.4800000000105,
      "v": 90
    },
    {
      "midi": 83,
      "hit": false,
      "t": 73249.92675000001,
      "d": 389.6100000000006,
      "v": 107
    },
    {
      "midi": 81,
      "hit": false,
      "t": 73633.04325000002,
      "d": 194.80499999999302,
      "v": 102
    },
    {
      "midi": 66,
      "hit": false,
      "t": 73999.926,
      "d": 564.934500000003,
      "v": 67
    },
    {
      "midi": 71,
      "hit": false,
      "t": 74006.4195,
      "d": 594.1552500000107,
      "v": 94
    },
    {
      "midi": 62,
      "hit": false,
      "t": 74025.90000000001,
      "d": 633.1162500000064,
      "v": 86
    },
    {
      "midi": 79,
      "hit": false,
      "t": 74029.14675000001,
      "d": 376.62300000000687,
      "v": 103
    },
    {
      "midi": 78,
      "hit": false,
      "t": 74425.25025000003,
      "d": 389.6100000000006,
      "v": 105
    },
    {
      "midi": 43,
      "hit": false,
      "t": 74779.14600000001,
      "d": 681.8174999999901,
      "v": 90
    },
    {
      "midi": 79,
      "hit": false,
      "t": 74805.12000000002,
      "d": 1168.8300000000017,
      "v": 74
    },
    {
      "midi": 76,
      "hit": false,
      "t": 74811.61350000002,
      "d": 1558.4400000000169,
      "v": 93
    },
    {
      "midi": 71,
      "hit": false,
      "t": 74814.86025,
      "d": 503.2462499999965,
      "v": 86
    },
    {
      "midi": 62,
      "hit": false,
      "t": 74818.107,
      "d": 487.0124999999971,
      "v": 59
    },
    {
      "midi": 67,
      "hit": false,
      "t": 74840.83425,
      "d": 454.54499999999825,
      "v": 86
    },
    {
      "midi": 55,
      "hit": false,
      "t": 75538.8855,
      "d": 77.92199999999139,
      "v": 81
    },
    {
      "midi": 71,
      "hit": false,
      "t": 75551.8725,
      "d": 240.25949999998556,
      "v": 90
    },
    {
      "midi": 67,
      "hit": false,
      "t": 75587.58675,
      "d": 168.83099999999104,
      "v": 90
    },
    {
      "midi": 62,
      "hit": false,
      "t": 75594.08025,
      "d": 175.3244999999879,
      "v": 68
    },
    {
      "midi": 81,
      "hit": false,
      "t": 75977.19675000003,
      "d": 194.80500000000757,
      "v": 89
    },
    {
      "midi": 79,
      "hit": false,
      "t": 76168.75500000003,
      "d": 194.80500000000757,
      "v": 90
    },
    {
      "midi": 76,
      "hit": false,
      "t": 76373.30025000004,
      "d": 389.6100000000006,
      "v": 101
    },
    {
      "midi": 71,
      "hit": false,
      "t": 76376.54699999998,
      "d": 353.89574999999604,
      "v": 94
    },
    {
      "midi": 62,
      "hit": false,
      "t": 76389.53399999997,
      "d": 340.9087500000023,
      "v": 63
    },
    {
      "midi": 55,
      "hit": false,
      "t": 76399.27424999997,
      "d": 272.72699999999895,
      "v": 81
    },
    {
      "midi": 67,
      "hit": false,
      "t": 76402.52099999998,
      "d": 363.6359999999986,
      "v": 78
    },
    {
      "midi": 78,
      "hit": false,
      "t": 76746.67650000005,
      "d": 194.80499999999302,
      "v": 94
    },
    {
      "midi": 79,
      "hit": false,
      "t": 76951.22175000004,
      "d": 584.4150000000081,
      "v": 99
    },
    {
      "midi": 62,
      "hit": false,
      "t": 77110.31249999997,
      "d": 350.64900000001944,
      "v": 86
    },
    {
      "midi": 71,
      "hit": false,
      "t": 77113.55924999998,
      "d": 262.98675000001094,
      "v": 99
    },
    {
      "midi": 67,
      "hit": false,
      "t": 77133.03974999998,
      "d": 285.7140000000072,
      "v": 103
    },
    {
      "midi": 74,
      "hit": false,
      "t": 77525.89650000005,
      "d": 389.6100000000006,
      "v": 94
    },
    {
      "midi": 61,
      "hit": false,
      "t": 77905.76625,
      "d": 613.6357500000013,
      "v": 61
    },
    {
      "midi": 69,
      "hit": false,
      "t": 77915.5065,
      "d": 636.3629999999976,
      "v": 94
    },
    {
      "midi": 73,
      "hit": false,
      "t": 77915.50650000005,
      "d": 974.0249999999942,
      "v": 93
    },
    {
      "midi": 64,
      "hit": false,
      "t": 77922,
      "d": 448.0515000000014,
      "v": 90
    },
    {
      "midi": 45,
      "hit": false,
      "t": 77954.4675,
      "d": 2353.8937499999884,
      "v": 86
    },
    {
      "midi": 64,
      "hit": false,
      "t": 78697.97325,
      "d": 448.0515000000014,
      "v": 107
    },
    {
      "midi": 61,
      "hit": false,
      "t": 78717.45375,
      "d": 499.9994999999908,
      "v": 78
    },
    {
      "midi": 69,
      "hit": false,
      "t": 78730.44075,
      "d": 571.4279999999999,
      "v": 103
    },
    {
      "midi": 81,
      "hit": false,
      "t": 79097.32350000004,
      "d": 389.6100000000006,
      "v": 91
    },
    {
      "midi": 61,
      "hit": false,
      "t": 79483.68675,
      "d": 376.6229999999923,
      "v": 74
    },
    {
      "midi": 90,
      "hit": false,
      "t": 79486.93350000004,
      "d": 389.6100000000006,
      "v": 102
    },
    {
      "midi": 69,
      "hit": false,
      "t": 79490.18024999999,
      "d": 418.8307499999937,
      "v": 99
    },
    {
      "midi": 64,
      "hit": false,
      "t": 79542.12825,
      "d": 68.18175000000338,
      "v": 81
    },
    {
      "midi": 57,
      "hit": false,
      "t": 79697.97224999999,
      "d": 214.28549999999814,
      "v": 45
    },
    {
      "midi": 88,
      "hit": false,
      "t": 79870.05000000005,
      "d": 194.80499999999302,
      "v": 94
    },
    {
      "midi": 86,
      "hit": false,
      "t": 80064.85500000004,
      "d": 584.4150000000081,
      "v": 90
    },
    {
      "midi": 61,
      "hit": false,
      "t": 80223.94574999998,
      "d": 266.2335000000021,
      "v": 68
    },
    {
      "midi": 57,
      "hit": false,
      "t": 80266.15349999999,
      "d": 266.2335000000021,
      "v": 99
    },
    {
      "midi": 69,
      "hit": false,
      "t": 80269.40024999999,
      "d": 714.2850000000035,
      "v": 74
    },
    {
      "midi": 64,
      "hit": false,
      "t": 80282.38724999999,
      "d": 470.7787500000122,
      "v": 71
    },
    {
      "midi": 88,
      "hit": false,
      "t": 80649.27000000005,
      "d": 389.6100000000006,
      "v": 94
    },
    {
      "midi": 78,
      "hit": false,
      "t": 81032.38650000005,
      "d": 2659.0882500000007,
      "v": 94
    },
    {
      "midi": 86,
      "hit": false,
      "t": 81045.37350000005,
      "d": 1168.8300000000017,
      "v": 78
    },
    {
      "midi": 69,
      "hit": false,
      "t": 81048.62024999999,
      "d": 457.79175000000396,
      "v": 68
    },
    {
      "midi": 66,
      "hit": false,
      "t": 81071.34749999999,
      "d": 480.5190000000148,
      "v": 81
    },
    {
      "midi": 50,
      "hit": false,
      "t": 81071.34749999999,
      "d": 2120.127750000014,
      "v": 86
    },
    {
      "midi": 62,
      "hit": false,
      "t": 81074.59425,
      "d": 422.0774999999994,
      "v": 90
    },
    {
      "midi": 69,
      "hit": false,
      "t": 81821.34675,
      "d": 493.5060000000085,
      "v": 94
    },
    {
      "midi": 66,
      "hit": false,
      "t": 81831.087,
      "d": 525.9735000000073,
      "v": 45
    },
    {
      "midi": 62,
      "hit": false,
      "t": 81837.5805,
      "d": 474.0255000000034,
      "v": 66
    },
    {
      "midi": 85,
      "hit": false,
      "t": 82207.71000000005,
      "d": 389.6100000000006,
      "v": 87
    },
    {
      "midi": 62,
      "hit": false,
      "t": 82603.8135,
      "d": 405.84375,
      "v": 78
    },
    {
      "midi": 69,
      "hit": false,
      "t": 82603.8135,
      "d": 493.50599999999395,
      "v": 94
    },
    {
      "midi": 86,
      "hit": false,
      "t": 82607.06025000005,
      "d": 389.6100000000006,
      "v": 80
    },
    {
      "midi": 66,
      "hit": false,
      "t": 82620.04725,
      "d": 535.7137499999953,
      "v": 45
    },
    {
      "midi": 85,
      "hit": false,
      "t": 82990.17675000006,
      "d": 194.80499999999302,
      "v": 82
    },
    {
      "midi": 83,
      "hit": false,
      "t": 83191.47525000005,
      "d": 584.4150000000081,
      "v": 85
    },
    {
      "midi": 62,
      "hit": false,
      "t": 83373.29325,
      "d": 331.16849999999977,
      "v": 78
    },
    {
      "midi": 69,
      "hit": false,
      "t": 83373.29325,
      "d": 376.62300000000687,
      "v": 99
    },
    {
      "midi": 66,
      "hit": false,
      "t": 83389.527,
      "d": 386.36325000000943,
      "v": 78
    },
    {
      "midi": 50,
      "hit": false,
      "t": 83392.77375000001,
      "d": 477.27224999999453,
      "v": 99
    },
    {
      "midi": 81,
      "hit": false,
      "t": 83766.15000000005,
      "d": 389.6100000000006,
      "v": 78
    },
    {
      "midi": 76,
      "hit": false,
      "t": 83772.64350000005,
      "d": 237.01275000000896,
      "v": 99
    },
    {
      "midi": 62,
      "hit": false,
      "t": 83857.05900000001,
      "d": 162.33749999999418,
      "v": 57
    },
    {
      "midi": 78,
      "hit": false,
      "t": 83960.95500000006,
      "d": 253.24649999999383,
      "v": 99
    },
    {
      "midi": 83,
      "hit": false,
      "t": 84162.25350000005,
      "d": 779.2200000000012,
      "v": 80
    },
    {
      "midi": 74,
      "hit": false,
      "t": 84165.50025000006,
      "d": 3116.87999999999,
      "v": 107
    },
    {
      "midi": 47,
      "hit": false,
      "t": 84197.96775,
      "d": 1558.4400000000314,
      "v": 103
    },
    {
      "midi": 71,
      "hit": false,
      "t": 84207.708,
      "d": 532.4670000000042,
      "v": 94
    },
    {
      "midi": 66,
      "hit": false,
      "t": 84214.2015,
      "d": 509.7397500000079,
      "v": 64
    },
    {
      "midi": 62,
      "hit": false,
      "t": 84233.682,
      "d": 415.58400000000256,
      "v": 74
    },
    {
      "midi": 66,
      "hit": false,
      "t": 84954.4605,
      "d": 363.63600000001315,
      "v": 90
    },
    {
      "midi": 62,
      "hit": false,
      "t": 84964.20075,
      "d": 181.8179999999993,
      "v": 71
    },
    {
      "midi": 71,
      "hit": false,
      "t": 84964.20075,
      "d": 350.6490000000049,
      "v": 94
    },
    {
      "midi": 78,
      "hit": false,
      "t": 85324.59000000005,
      "d": 6.493499999996857,
      "v": 101
    },
    {
      "midi": 59,
      "hit": false,
      "t": 85694.71950000002,
      "d": 1292.2065000000002,
      "v": 90
    },
    {
      "midi": 71,
      "hit": false,
      "t": 85707.70650000001,
      "d": 366.8827500000043,
      "v": 103
    },
    {
      "midi": 66,
      "hit": false,
      "t": 85710.95325000002,
      "d": 272.72699999999895,
      "v": 74
    },
    {
      "midi": 83,
      "hit": false,
      "t": 85710.95325000005,
      "d": 389.6100000000006,
      "v": 102
    },
    {
      "midi": 62,
      "hit": false,
      "t": 85714.20000000003,
      "d": 204.54524999999558,
      "v": 71
    },
    {
      "midi": 81,
      "hit": false,
      "t": 86110.30350000005,
      "d": 237.0127499999944,
      "v": 110
    },
    {
      "midi": 79,
      "hit": false,
      "t": 86305.10850000005,
      "d": 584.4150000000081,
      "v": 102
    },
    {
      "midi": 71,
      "hit": false,
      "t": 86467.44600000003,
      "d": 506.4930000000022,
      "v": 103
    },
    {
      "midi": 66,
      "hit": false,
      "t": 86470.69275000003,
      "d": 487.0124999999971,
      "v": 71
    },
    {
      "midi": 62,
      "hit": false,
      "t": 86477.18625000003,
      "d": 448.0515000000014,
      "v": 78
    },
    {
      "midi": 78,
      "hit": false,
      "t": 86879.78325000005,
      "d": 389.6100000000006,
      "v": 91
    },
    {
      "midi": 43,
      "hit": false,
      "t": 87236.92575000002,
      "d": 6233.759999999995,
      "v": 99
    },
    {
      "midi": 59,
      "hit": false,
      "t": 87240.17250000003,
      "d": 392.85674999999173,
      "v": 68
    },
    {
      "midi": 67,
      "hit": false,
      "t": 87246.66600000003,
      "d": 438.31124999999884,
      "v": 68
    },
    {
      "midi": 79,
      "hit": false,
      "t": 87269.39325000005,
      "d": 3116.87999999999,
      "v": 90
    },
    {
      "midi": 81,
      "hit": false,
      "t": 87668.74350000004,
      "d": 389.6100000000006,
      "v": 90
    },
    {
      "midi": 67,
      "hit": false,
      "t": 88009.65225000003,
      "d": 386.3632499999949,
      "v": 81
    },
    {
      "midi": 59,
      "hit": false,
      "t": 88032.37950000002,
      "d": 428.5709999999963,
      "v": 56
    },
    {
      "midi": 83,
      "hit": false,
      "t": 88051.86000000004,
      "d": 389.6100000000006,
      "v": 100
    },
    {
      "midi": 85,
      "hit": false,
      "t": 88438.22325000004,
      "d": 389.6100000000006,
      "v": 107
    },
    {
      "midi": 67,
      "hit": false,
      "t": 88782.37875000002,
      "d": 392.8567500000063,
      "v": 81
    },
    {
      "midi": 86,
      "hit": false,
      "t": 88827.83325000004,
      "d": 1558.4400000000023,
      "v": 105
    },
    {
      "midi": 59,
      "hit": false,
      "t": 88834.32675000002,
      "d": 275.97375000000466,
      "v": 54
    },
    {
      "midi": 67,
      "hit": false,
      "t": 89535.62475000002,
      "d": 438.31124999999884,
      "v": 78
    },
    {
      "midi": 59,
      "hit": false,
      "t": 89584.32600000002,
      "d": 379.869749999998,
      "v": 52
    },
    {
      "midi": 67,
      "hit": false,
      "t": 90409.00050000001,
      "d": 512.9865000000136,
      "v": 85
    },
    {
      "midi": 59,
      "hit": false,
      "t": 90412.24725000001,
      "d": 464.2852500000008,
      "v": 70
    },
    {
      "midi": 67,
      "hit": false,
      "t": 91168.74000000002,
      "d": 457.79175000000396,
      "v": 88
    },
    {
      "midi": 59,
      "hit": false,
      "t": 91175.23350000002,
      "d": 409.0905000000057,
      "v": 74
    },
    {
      "midi": 67,
      "hit": false,
      "t": 91941.46650000002,
      "d": 448.0515000000014,
      "v": 65
    },
    {
      "midi": 59,
      "hit": false,
      "t": 91951.20675000003,
      "d": 292.2075000000041,
      "v": 53
    },
    {
      "midi": 59,
      "hit": false,
      "t": 92658.99825000002,
      "d": 246.75299999999697,
      "v": 81
    },
    {
      "midi": 67,
      "hit": false,
      "t": 92662.24500000002,
      "d": 194.80499999999302,
      "v": 85
    },
    {
      "midi": 50,
      "hit": false,
      "t": 93473.93250000002,
      "d": 2733.76350000003,
      "v": 99
    },
    {
      "midi": 66,
      "hit": false,
      "t": 93493.41300000003,
      "d": 633.1162500000064,
      "v": 94
    },
    {
      "midi": 62,
      "hit": false,
      "t": 93499.90650000003,
      "d": 181.8179999999993,
      "v": 103
    },
    {
      "midi": 69,
      "hit": false,
      "t": 93499.90650000003,
      "d": 483.76575000000594,
      "v": 108
    },
    {
      "midi": 69,
      "hit": false,
      "t": 94266.13950000003,
      "d": 480.51900000000023,
      "v": 110
    },
    {
      "midi": 62,
      "hit": false,
      "t": 94272.63300000003,
      "d": 487.0124999999971,
      "v": 96
    },
    {
      "midi": 66,
      "hit": false,
      "t": 94295.36025000003,
      "d": 607.1422500000044,
      "v": 67
    },
    {
      "midi": 62,
      "hit": false,
      "t": 95077.82700000003,
      "d": 522.7267500000162,
      "v": 82
    },
    {
      "midi": 66,
      "hit": false,
      "t": 95097.30750000004,
      "d": 607.142250000019,
      "v": 66
    },
    {
      "midi": 69,
      "hit": false,
      "t": 95100.55425000004,
      "d": 545.4540000000125,
      "v": 105
    },
    {
      "midi": 62,
      "hit": false,
      "t": 95886.26775000006,
      "d": 438.31124999999884,
      "v": 110
    },
    {
      "midi": 66,
      "hit": false,
      "t": 95886.26775000006,
      "d": 441.55800000000454,
      "v": 82
    },
    {
      "midi": 69,
      "hit": false,
      "t": 95908.99500000005,
      "d": 503.24625000001106,
      "v": 105
    },
    {
      "midi": 50,
      "hit": false,
      "t": 96636.26700000007,
      "d": 2607.1402499999967,
      "v": 96
    },
    {
      "midi": 69,
      "hit": false,
      "t": 96658.99425000006,
      "d": 350.6490000000049,
      "v": 110
    },
    {
      "midi": 66,
      "hit": false,
      "t": 96662.24100000007,
      "d": 487.0124999999971,
      "v": 82
    },
    {
      "midi": 62,
      "hit": false,
      "t": 96678.47475000007,
      "d": 275.97375000000466,
      "v": 105
    },
    {
      "midi": 69,
      "hit": false,
      "t": 97392.75975000007,
      "d": 327.92174999999406,
      "v": 96
    },
    {
      "midi": 66,
      "hit": false,
      "t": 97428.47400000007,
      "d": 240.25950000000012,
      "v": 86
    },
    {
      "midi": 62,
      "hit": false,
      "t": 97434.96750000007,
      "d": 246.75299999999697,
      "v": 82
    },
    {
      "midi": 66,
      "hit": false,
      "t": 98158.99275000006,
      "d": 207.79200000000128,
      "v": 78
    },
    {
      "midi": 69,
      "hit": false,
      "t": 98168.73300000007,
      "d": 266.2335000000021,
      "v": 70
    },
    {
      "midi": 62,
      "hit": false,
      "t": 98191.46025000006,
      "d": 220.77900000000955,
      "v": 66
    },
    {
      "midi": 66,
      "hit": false,
      "t": 98921.97900000006,
      "d": 152.59725000000617,
      "v": 66
    },
    {
      "midi": 69,
      "hit": false,
      "t": 98921.97900000006,
      "d": 217.53225000000384,
      "v": 78
    },
    {
      "midi": 62,
      "hit": false,
      "t": 98941.45950000007,
      "d": 159.09075000000303,
      "v": 62
    },
    {
      "midi": 69,
      "hit": false,
      "t": 114155.73000000005,
      "d": 224.0257500000007,
      "v": 92
    },
    {
      "midi": 73,
      "hit": false,
      "t": 114353.78175000005,
      "d": 230.51924999999756,
      "v": 85
    },
    {
      "midi": 76,
      "hit": false,
      "t": 114555.08025000006,
      "d": 389.60999999998603,
      "v": 101
    },
    {
      "midi": 79,
      "hit": false,
      "t": 114928.45650000004,
      "d": 415.58400000000256,
      "v": 109
    },
    {
      "midi": 78,
      "hit": false,
      "t": 115334.30025000004,
      "d": 954.5445000000036,
      "v": 92
    },
    {
      "midi": 88,
      "hit": false,
      "t": 126626.49675000005,
      "d": 224.0257500000007,
      "v": 109
    },
    {
      "midi": 85,
      "hit": false,
      "t": 126811.56150000005,
      "d": 227.27249999999185,
      "v": 95
    },
    {
      "midi": 81,
      "hit": false,
      "t": 127016.10675000005,
      "d": 389.60999999998603,
      "v": 109
    },
    {
      "midi": 76,
      "hit": false,
      "t": 127399.22325000004,
      "d": 474.0254999999888,
      "v": 98
    },
    {
      "midi": 79,
      "hit": false,
      "t": 127801.82025000003,
      "d": 1594.1542499999923,
      "v": 97
    },
    {
      "midi": 74,
      "hit": false,
      "t": 133249.86675000002,
      "d": 340.9087500000023,
      "v": 91
    },
    {
      "midi": 76,
      "hit": false,
      "t": 133639.47675000003,
      "d": 402.59700000000885,
      "v": 97
    },
    {
      "midi": 78,
      "hit": false,
      "t": 134022.59325000003,
      "d": 613.6357500000158,
      "v": 98
    },
    {
      "midi": 69,
      "hit": false,
      "t": 134814.80025000006,
      "d": 370.12950000001,
      "v": 102
    },
    {
      "midi": 76,
      "hit": false,
      "t": 135188.17650000006,
      "d": 353.89574999999604,
      "v": 87
    },
    {
      "midi": 79,
      "hit": false,
      "t": 135577.78650000005,
      "d": 1097.4015000000072,
      "v": 87
    },
    {
      "midi": 73,
      "hit": false,
      "t": 136759.60350000006,
      "d": 311.68799999999464,
      "v": 99
    },
    {
      "midi": 76,
      "hit": false,
      "t": 137139.47325000004,
      "d": 428.5709999999963,
      "v": 98
    },
    {
      "midi": 74,
      "hit": false,
      "t": 137542.07025000005,
      "d": 1181.816999999981,
      "v": 98
    },
    {
      "midi": 83,
      "hit": false,
      "t": 144931.67325000002,
      "d": 77.92199999999139,
      "v": 113
    },
    {
      "midi": 85,
      "hit": false,
      "t": 144996.60825000002,
      "d": 691.5577500000072,
      "v": 98
    },
    {
      "midi": 83,
      "hit": false,
      "t": 145707.64650000003,
      "d": 357.1424999999872,
      "v": 108
    },
    {
      "midi": 81,
      "hit": false,
      "t": 146110.2435,
      "d": 383.1165000000037,
      "v": 103
    },
    {
      "midi": 79,
      "hit": false,
      "t": 146503.10025000002,
      "d": 1464.284249999997,
      "v": 101
    },
    {
      "midi": 88,
      "hit": false,
      "t": 149811.53850000002,
      "d": 152.59724999999162,
      "v": 97
    },
    {
      "midi": 83,
      "hit": false,
      "t": 150003.09675000003,
      "d": 415.58400000000256,
      "v": 106
    },
    {
      "midi": 85,
      "hit": false,
      "t": 150395.95350000003,
      "d": 373.37625000000116,
      "v": 110
    },
    {
      "midi": 86,
      "hit": false,
      "t": 150775.82325000004,
      "d": 350.6490000000049,
      "v": 104
    },
    {
      "midi": 88,
      "hit": false,
      "t": 151162.18650000004,
      "d": 918.8302499999991,
      "v": 98
    },
    {
      "midi": 90,
      "hit": false,
      "t": 152136.21150000003,
      "d": 383.1165000000037,
      "v": 96
    },
    {
      "midi": 88,
      "hit": false,
      "t": 152525.82150000005,
      "d": 155.84400000001187,
      "v": 112
    },
    {
      "midi": 90,
      "hit": false,
      "t": 152733.61350000006,
      "d": 337.6620000000112,
      "v": 105
    },
    {
      "midi": 93,
      "hit": false,
      "t": 153126.47025000007,
      "d": 412.3372500000114,
      "v": 79
    },
    {
      "midi": 81,
      "hit": false,
      "t": 153892.70325000005,
      "d": 389.60999999998603,
      "v": 74
    },
    {
      "midi": 90,
      "hit": false,
      "t": 154288.80675000005,
      "d": 389.60999999998603,
      "v": 84
    },
    {
      "midi": 88,
      "hit": false,
      "t": 154681.66350000002,
      "d": 194.80499999999302,
      "v": 82
    },
    {
      "midi": 86,
      "hit": false,
      "t": 154876.46850000002,
      "d": 584.414999999979,
      "v": 85
    },
    {
      "midi": 85,
      "hit": false,
      "t": 155457.63675,
      "d": 389.60999999998603,
      "v": 79
    },
    {
      "midi": 69,
      "hit": false,
      "t": 155805.0390000001,
      "d": 587.6617499999993,
      "v": 91
    },
    {
      "midi": 50,
      "hit": false,
      "t": 155824.5195000001,
      "d": 3168.8280000000377,
      "v": 67
    },
    {
      "midi": 62,
      "hit": false,
      "t": 155827.7662500001,
      "d": 551.9475000000093,
      "v": 67
    },
    {
      "midi": 66,
      "hit": false,
      "t": 155827.7662500001,
      "d": 555.1942500000005,
      "v": 61
    },
    {
      "midi": 86,
      "hit": false,
      "t": 155840.75324999998,
      "d": 1168.8300000000163,
      "v": 74
    },
    {
      "midi": 78,
      "hit": false,
      "t": 155853.74025,
      "d": 2746.7504999999655,
      "v": 94
    },
    {
      "midi": 69,
      "hit": false,
      "t": 156558.28500000012,
      "d": 616.882500000007,
      "v": 78
    },
    {
      "midi": 66,
      "hit": false,
      "t": 156574.51875000013,
      "d": 642.8564999999944,
      "v": 61
    },
    {
      "midi": 62,
      "hit": false,
      "t": 156593.99925000014,
      "d": 590.9084999999905,
      "v": 74
    },
    {
      "midi": 85,
      "hit": false,
      "t": 157009.58325,
      "d": 389.60999999998603,
      "v": 93
    },
    {
      "midi": 86,
      "hit": false,
      "t": 157395.9465,
      "d": 389.60999999998603,
      "v": 72
    },
    {
      "midi": 69,
      "hit": false,
      "t": 157405.68675000014,
      "d": 538.9604999999865,
      "v": 78
    },
    {
      "midi": 62,
      "hit": false,
      "t": 157408.93350000013,
      "d": 542.2072500000068,
      "v": 74
    },
    {
      "midi": 66,
      "hit": false,
      "t": 157431.66075000013,
      "d": 590.9085000000196,
      "v": 66
    },
    {
      "midi": 85,
      "hit": false,
      "t": 157792.05,
      "d": 194.80499999999302,
      "v": 80
    },
    {
      "midi": 83,
      "hit": false,
      "t": 157983.60825,
      "d": 584.414999999979,
      "v": 66
    },
    {
      "midi": 69,
      "hit": false,
      "t": 158201.14050000015,
      "d": 392.8567500000063,
      "v": 99
    },
    {
      "midi": 66,
      "hit": false,
      "t": 158230.36125000016,
      "d": 266.2335000000021,
      "v": 50
    },
    {
      "midi": 62,
      "hit": false,
      "t": 158230.36125000016,
      "d": 620.1292499999981,
      "v": 74
    },
    {
      "midi": 76,
      "hit": false,
      "t": 158568.02324999997,
      "d": 240.25949999998556,
      "v": 103
    },
    {
      "midi": 81,
      "hit": false,
      "t": 158581.01024999996,
      "d": 389.6099999999569,
      "v": 72
    },
    {
      "midi": 78,
      "hit": false,
      "t": 158769.32174999994,
      "d": 194.80499999999302,
      "v": 94
    },
    {
      "midi": 74,
      "hit": false,
      "t": 158964.12674999994,
      "d": 3116.8799999999464,
      "v": 93
    },
    {
      "midi": 83,
      "hit": false,
      "t": 158967.37349999993,
      "d": 779.2200000000012,
      "v": 74
    },
    {
      "midi": 71,
      "hit": false,
      "t": 158980.36050000016,
      "d": 597.4020000000019,
      "v": 103
    },
    {
      "midi": 62,
      "hit": false,
      "t": 158983.60725000015,
      "d": 564.934500000003,
      "v": 68
    },
    {
      "midi": 47,
      "hit": false,
      "t": 158986.85400000014,
      "d": 1490.2582500000426,
      "v": 94
    },
    {
      "midi": 66,
      "hit": false,
      "t": 158993.34750000015,
      "d": 574.6747500000056,
      "v": 78
    },
    {
      "midi": 71,
      "hit": false,
      "t": 159756.33375000017,
      "d": 503.2462500000256,
      "v": 103
    },
    {
      "midi": 66,
      "hit": false,
      "t": 159772.56750000018,
      "d": 457.79175000000396,
      "v": 57
    },
    {
      "midi": 62,
      "hit": false,
      "t": 159785.55450000017,
      "d": 467.5320000000065,
      "v": 74
    },
    {
      "midi": 78,
      "hit": false,
      "t": 160129.70999999993,
      "d": 6.493500000011409,
      "v": 97
    },
    {
      "midi": 71,
      "hit": false,
      "t": 160496.59275000019,
      "d": 538.9605000000156,
      "v": 99
    },
    {
      "midi": 66,
      "hit": false,
      "t": 160509.57975000018,
      "d": 454.5450000000128,
      "v": 68
    },
    {
      "midi": 62,
      "hit": false,
      "t": 160516.0732500002,
      "d": 487.01250000001164,
      "v": 64
    },
    {
      "midi": 59,
      "hit": false,
      "t": 160522.5667500002,
      "d": 519.4800000000105,
      "v": 90
    },
    {
      "midi": 83,
      "hit": false,
      "t": 160525.81349999993,
      "d": 389.60999999998603,
      "v": 107
    },
    {
      "midi": 81,
      "hit": false,
      "t": 160902.43649999992,
      "d": 194.80499999999302,
      "v": 102
    },
    {
      "midi": 66,
      "hit": false,
      "t": 161279.0595000002,
      "d": 564.934500000003,
      "v": 67
    },
    {
      "midi": 71,
      "hit": false,
      "t": 161279.0595000002,
      "d": 594.1552500000107,
      "v": 94
    },
    {
      "midi": 79,
      "hit": false,
      "t": 161301.7867499999,
      "d": 376.6229999999923,
      "v": 103
    },
    {
      "midi": 62,
      "hit": false,
      "t": 161308.2802500002,
      "d": 633.1162499999919,
      "v": 86
    },
    {
      "midi": 78,
      "hit": false,
      "t": 161681.6564999999,
      "d": 389.60999999998603,
      "v": 105
    },
    {
      "midi": 43,
      "hit": false,
      "t": 162051.7860000002,
      "d": 681.8175000000338,
      "v": 90
    },
    {
      "midi": 71,
      "hit": false,
      "t": 162081.0067500002,
      "d": 503.2462500000256,
      "v": 86
    },
    {
      "midi": 79,
      "hit": false,
      "t": 162087.5002499999,
      "d": 1168.8300000000163,
      "v": 74
    },
    {
      "midi": 62,
      "hit": false,
      "t": 162097.24050000022,
      "d": 487.01250000001164,
      "v": 59
    },
    {
      "midi": 67,
      "hit": false,
      "t": 162110.2275000002,
      "d": 454.5450000000128,
      "v": 86
    },
    {
      "midi": 55,
      "hit": false,
      "t": 162811.52550000022,
      "d": 77.92199999999139,
      "v": 81
    },
    {
      "midi": 71,
      "hit": false,
      "t": 162814.7722500002,
      "d": 240.25950000001467,
      "v": 90
    },
    {
      "midi": 67,
      "hit": false,
      "t": 162847.2397500002,
      "d": 168.8310000000056,
      "v": 90
    },
    {
      "midi": 62,
      "hit": false,
      "t": 162863.47350000023,
      "d": 175.3244999999879,
      "v": 68
    },
    {
      "midi": 81,
      "hit": false,
      "t": 163249.8367499999,
      "d": 194.80499999999302,
      "v": 89
    },
    {
      "midi": 79,
      "hit": false,
      "t": 163441.3949999999,
      "d": 194.80499999999302,
      "v": 90
    },
    {
      "midi": 76,
      "hit": false,
      "t": 163629.70649999988,
      "d": 9.740250000002561,
      "v": 101
    },
    {
      "midi": 71,
      "hit": false,
      "t": 163645.94025000022,
      "d": 353.89575000002515,
      "v": 94
    },
    {
      "midi": 62,
      "hit": false,
      "t": 163665.42075000022,
      "d": 340.90875000003143,
      "v": 63
    },
    {
      "midi": 55,
      "hit": false,
      "t": 163675.16100000023,
      "d": 272.7270000000135,
      "v": 81
    },
    {
      "midi": 67,
      "hit": false,
      "t": 163681.65450000024,
      "d": 363.6360000000277,
      "v": 78
    },
    {
      "midi": 78,
      "hit": false,
      "t": 164032.3034999999,
      "d": 194.80499999999302,
      "v": 94
    },
    {
      "midi": 79,
      "hit": false,
      "t": 164223.8617499999,
      "d": 584.414999999979,
      "v": 99
    },
    {
      "midi": 71,
      "hit": false,
      "t": 164376.45900000026,
      "d": 262.98675000001094,
      "v": 99
    },
    {
      "midi": 62,
      "hit": false,
      "t": 164386.19925000027,
      "d": 350.649000000034,
      "v": 86
    },
    {
      "midi": 67,
      "hit": false,
      "t": 164402.43300000028,
      "d": 285.7140000000072,
      "v": 103
    },
    {
      "midi": 74,
      "hit": false,
      "t": 164805.02999999988,
      "d": 389.61000000001513,
      "v": 94
    },
    {
      "midi": 61,
      "hit": false,
      "t": 165178.40625000032,
      "d": 613.6357499999867,
      "v": 61
    },
    {
      "midi": 69,
      "hit": false,
      "t": 165184.89975000033,
      "d": 636.362999999983,
      "v": 94
    },
    {
      "midi": 64,
      "hit": false,
      "t": 165194.64000000033,
      "d": 448.0514999999723,
      "v": 90
    },
    {
      "midi": 73,
      "hit": false,
      "t": 165201.1334999999,
      "d": 974.0249999999942,
      "v": 93
    },
    {
      "midi": 45,
      "hit": false,
      "t": 165233.60100000032,
      "d": 2353.8937499999884,
      "v": 86
    },
    {
      "midi": 64,
      "hit": false,
      "t": 165973.8600000003,
      "d": 448.0515000000014,
      "v": 107
    },
    {
      "midi": 69,
      "hit": false,
      "t": 165990.09375000032,
      "d": 571.4279999999853,
      "v": 103
    },
    {
      "midi": 61,
      "hit": false,
      "t": 166003.0807500003,
      "d": 499.99950000000536,
      "v": 78
    },
    {
      "midi": 81,
      "hit": false,
      "t": 166356.9764999999,
      "d": 389.60999999998603,
      "v": 91
    },
    {
      "midi": 90,
      "hit": false,
      "t": 166756.3267499999,
      "d": 389.60999999998603,
      "v": 102
    },
    {
      "midi": 61,
      "hit": false,
      "t": 166759.57350000032,
      "d": 376.6229999999632,
      "v": 74
    },
    {
      "midi": 69,
      "hit": false,
      "t": 166779.05400000032,
      "d": 418.8307499999646,
      "v": 99
    },
    {
      "midi": 64,
      "hit": false,
      "t": 166805.0280000003,
      "d": 68.18174999998882,
      "v": 81
    },
    {
      "midi": 57,
      "hit": false,
      "t": 166973.8590000003,
      "d": 214.28549999999814,
      "v": 45
    },
    {
      "midi": 88,
      "hit": false,
      "t": 167149.18349999987,
      "d": 194.80499999999302,
      "v": 94
    },
    {
      "midi": 86,
      "hit": false,
      "t": 167334.24824999986,
      "d": 584.4150000000081,
      "v": 90
    },
    {
      "midi": 61,
      "hit": false,
      "t": 167506.3260000003,
      "d": 266.2335000000021,
      "v": 68
    },
    {
      "midi": 69,
      "hit": false,
      "t": 167538.7935000003,
      "d": 714.2850000000035,
      "v": 74
    },
    {
      "midi": 57,
      "hit": false,
      "t": 167545.2870000003,
      "d": 266.2335000000021,
      "v": 99
    },
    {
      "midi": 64,
      "hit": false,
      "t": 167558.2740000003,
      "d": 470.7787499999977,
      "v": 71
    },
    {
      "midi": 88,
      "hit": false,
      "t": 167931.65024999986,
      "d": 389.61000000001513,
      "v": 94
    },
    {
      "midi": 69,
      "hit": false,
      "t": 168305.0265000003,
      "d": 457.79175000000396,
      "v": 68
    },
    {
      "midi": 78,
      "hit": false,
      "t": 168308.27324999985,
      "d": 2659.088250000088,
      "v": 94
    },
    {
      "midi": 86,
      "hit": false,
      "t": 168314.76674999986,
      "d": 1168.8300000000163,
      "v": 78
    },
    {
      "midi": 66,
      "hit": false,
      "t": 168340.7407500003,
      "d": 480.51900000002934,
      "v": 81
    },
    {
      "midi": 50,
      "hit": false,
      "t": 168353.72775000028,
      "d": 2120.1277500000724,
      "v": 86
    },
    {
      "midi": 62,
      "hit": false,
      "t": 168360.2212500003,
      "d": 422.07750000001397,
      "v": 90
    },
    {
      "midi": 69,
      "hit": false,
      "t": 169090.7400000003,
      "d": 493.50600000002305,
      "v": 94
    },
    {
      "midi": 62,
      "hit": false,
      "t": 169103.7270000003,
      "d": 474.0255000000179,
      "v": 66
    },
    {
      "midi": 66,
      "hit": false,
      "t": 169110.22050000032,
      "d": 525.9735000000219,
      "v": 45
    },
    {
      "midi": 85,
      "hit": false,
      "t": 169480.3499999999,
      "d": 389.61000000001513,
      "v": 87
    },
    {
      "midi": 86,
      "hit": false,
      "t": 169863.4664999999,
      "d": 389.61000000001513,
      "v": 80
    },
    {
      "midi": 69,
      "hit": false,
      "t": 169873.20675000033,
      "d": 493.50600000002305,
      "v": 94
    },
    {
      "midi": 62,
      "hit": false,
      "t": 169879.70025000034,
      "d": 405.84375,
      "v": 78
    },
    {
      "midi": 66,
      "hit": false,
      "t": 169895.93400000036,
      "d": 535.7137499999953,
      "v": 45
    },
    {
      "midi": 85,
      "hit": false,
      "t": 170259.56999999992,
      "d": 194.80500000002212,
      "v": 82
    },
    {
      "midi": 83,
      "hit": false,
      "t": 170447.88149999993,
      "d": 584.4150000000081,
      "v": 85
    },
    {
      "midi": 69,
      "hit": false,
      "t": 170642.68650000036,
      "d": 376.6229999999923,
      "v": 99
    },
    {
      "midi": 62,
      "hit": false,
      "t": 170645.93325000035,
      "d": 331.16849999999977,
      "v": 78
    },
    {
      "midi": 66,
      "hit": false,
      "t": 170652.42675000036,
      "d": 386.3632499999949,
      "v": 78
    },
    {
      "midi": 50,
      "hit": false,
      "t": 170655.67350000035,
      "d": 477.2722500000091,
      "v": 99
    },
    {
      "midi": 76,
      "hit": false,
      "t": 171032.29649999994,
      "d": 237.0127499999944,
      "v": 99
    },
    {
      "midi": 81,
      "hit": false,
      "t": 171045.28349999993,
      "d": 389.61000000001513,
      "v": 78
    },
    {
      "midi": 62,
      "hit": false,
      "t": 171136.19250000035,
      "d": 162.33749999999418,
      "v": 57
    },
    {
      "midi": 78,
      "hit": false,
      "t": 171240.08849999993,
      "d": 253.24650000000838,
      "v": 99
    },
    {
      "midi": 83,
      "hit": false,
      "t": 171434.89349999995,
      "d": 779.2199999999721,
      "v": 80
    },
    {
      "midi": 74,
      "hit": false,
      "t": 171438.14024999994,
      "d": 3116.8799999999756,
      "v": 107
    },
    {
      "midi": 47,
      "hit": false,
      "t": 171467.36100000035,
      "d": 1558.4400000000896,
      "v": 103
    },
    {
      "midi": 66,
      "hit": false,
      "t": 171473.85450000037,
      "d": 509.7397500000079,
      "v": 64
    },
    {
      "midi": 71,
      "hit": false,
      "t": 171477.10125000036,
      "d": 532.4670000000042,
      "v": 94
    },
    {
      "midi": 62,
      "hit": false,
      "t": 171496.58175000036,
      "d": 415.58400000000256,
      "v": 74
    },
    {
      "midi": 66,
      "hit": false,
      "t": 172220.60700000037,
      "d": 363.6360000000277,
      "v": 90
    },
    {
      "midi": 62,
      "hit": false,
      "t": 172236.84075000038,
      "d": 181.8179999999993,
      "v": 71
    },
    {
      "midi": 71,
      "hit": false,
      "t": 172240.08750000037,
      "d": 350.649000000034,
      "v": 94
    },
    {
      "midi": 78,
      "hit": false,
      "t": 172593.98324999993,
      "d": 6.493500000011409,
      "v": 101
    },
    {
      "midi": 59,
      "hit": false,
      "t": 172970.60625000042,
      "d": 1292.2065000000293,
      "v": 90
    },
    {
      "midi": 71,
      "hit": false,
      "t": 172977.09975000043,
      "d": 366.88275000001886,
      "v": 103
    },
    {
      "midi": 83,
      "hit": false,
      "t": 172980.34649999996,
      "d": 389.60999999998603,
      "v": 102
    },
    {
      "midi": 62,
      "hit": false,
      "t": 172983.59325000044,
      "d": 204.54524999999558,
      "v": 71
    },
    {
      "midi": 66,
      "hit": false,
      "t": 172990.08675000045,
      "d": 272.7269999999844,
      "v": 74
    },
    {
      "midi": 81,
      "hit": false,
      "t": 173373.20324999993,
      "d": 237.0127499999944,
      "v": 110
    },
    {
      "midi": 79,
      "hit": false,
      "t": 173577.74849999993,
      "d": 584.4150000000081,
      "v": 102
    },
    {
      "midi": 71,
      "hit": false,
      "t": 173736.83925000046,
      "d": 506.49299999998766,
      "v": 103
    },
    {
      "midi": 62,
      "hit": false,
      "t": 173740.08600000045,
      "d": 448.0515000000014,
      "v": 78
    },
    {
      "midi": 66,
      "hit": false,
      "t": 173746.57950000046,
      "d": 487.01249999998254,
      "v": 71
    },
    {
      "midi": 78,
      "hit": false,
      "t": 174165.41024999993,
      "d": 389.60999999998603,
      "v": 91
    },
    {
      "midi": 43,
      "hit": false,
      "t": 174506.31900000048,
      "d": 6233.760000000009,
      "v": 99
    },
    {
      "midi": 59,
      "hit": false,
      "t": 174516.0592500005,
      "d": 392.8567500000063,
      "v": 68
    },
    {
      "midi": 67,
      "hit": false,
      "t": 174532.2930000005,
      "d": 438.31124999999884,
      "v": 68
    },
    {
      "midi": 79,
      "hit": false,
      "t": 174542.03324999992,
      "d": 3116.8799999999756,
      "v": 90
    },
    {
      "midi": 81,
      "hit": false,
      "t": 174938.13674999992,
      "d": 389.60999999998603,
      "v": 90
    },
    {
      "midi": 67,
      "hit": false,
      "t": 175288.7857500005,
      "d": 386.3632499999949,
      "v": 81
    },
    {
      "midi": 59,
      "hit": false,
      "t": 175308.2662500005,
      "d": 428.5709999999963,
      "v": 56
    },
    {
      "midi": 83,
      "hit": false,
      "t": 175324.4999999999,
      "d": 389.60999999998603,
      "v": 100
    },
    {
      "midi": 85,
      "hit": false,
      "t": 175714.1099999999,
      "d": 389.60999999998603,
      "v": 107
    },
    {
      "midi": 67,
      "hit": false,
      "t": 176055.0187500005,
      "d": 392.8567500000063,
      "v": 81
    },
    {
      "midi": 59,
      "hit": false,
      "t": 176093.97975000052,
      "d": 275.97375000000466,
      "v": 54
    },
    {
      "midi": 86,
      "hit": false,
      "t": 176113.4602499999,
      "d": 1558.4400000000023,
      "v": 105
    },
    {
      "midi": 67,
      "hit": false,
      "t": 176805.01800000053,
      "d": 438.31125000002794,
      "v": 78
    },
    {
      "midi": 59,
      "hit": false,
      "t": 176856.96600000054,
      "d": 379.8697500000126,
      "v": 52
    },
    {
      "midi": 59,
      "hit": false,
      "t": 177681.64050000056,
      "d": 464.28524999998626,
      "v": 70
    },
    {
      "midi": 67,
      "hit": false,
      "t": 177694.62750000056,
      "d": 512.9864999999991,
      "v": 85
    },
    {
      "midi": 67,
      "hit": false,
      "t": 178444.62675000055,
      "d": 457.79175000000396,
      "v": 88
    },
    {
      "midi": 59,
      "hit": false,
      "t": 178451.12025000056,
      "d": 409.09049999999115,
      "v": 74
    },
    {
      "midi": 67,
      "hit": false,
      "t": 179214.10650000055,
      "d": 448.0514999999723,
      "v": 65
    },
    {
      "midi": 59,
      "hit": false,
      "t": 179217.35325000054,
      "d": 292.2074999999895,
      "v": 53
    },
    {
      "midi": 59,
      "hit": false,
      "t": 179928.39150000052,
      "d": 246.75299999999697,
      "v": 81
    },
    {
      "midi": 67,
      "hit": false,
      "t": 179931.6382500005,
      "d": 194.80499999999302,
      "v": 85
    },
    {
      "midi": 50,
      "hit": false,
      "t": 180753.0660000005,
      "d": 2733.76350000003,
      "v": 99
    },
    {
      "midi": 69,
      "hit": false,
      "t": 180759.5595000005,
      "d": 483.7657499999914,
      "v": 108
    },
    {
      "midi": 66,
      "hit": false,
      "t": 180762.8062500005,
      "d": 633.1162499999919,
      "v": 94
    },
    {
      "midi": 62,
      "hit": false,
      "t": 180772.5465000005,
      "d": 181.8179999999993,
      "v": 103
    },
    {
      "midi": 69,
      "hit": false,
      "t": 181545.27300000048,
      "d": 480.51900000000023,
      "v": 110
    },
    {
      "midi": 62,
      "hit": false,
      "t": 181545.27300000048,
      "d": 487.01250000001164,
      "v": 96
    },
    {
      "midi": 66,
      "hit": false,
      "t": 181564.7535000005,
      "d": 607.1422500000044,
      "v": 67
    },
    {
      "midi": 62,
      "hit": false,
      "t": 182360.2072500005,
      "d": 522.7267500000016,
      "v": 82
    },
    {
      "midi": 66,
      "hit": false,
      "t": 182366.7007500005,
      "d": 607.1422500000044,
      "v": 66
    },
    {
      "midi": 69,
      "hit": false,
      "t": 182376.44100000052,
      "d": 545.4539999999979,
      "v": 105
    },
    {
      "midi": 66,
      "hit": false,
      "t": 183162.15450000053,
      "d": 441.55799999999,
      "v": 82
    },
    {
      "midi": 62,
      "hit": false,
      "t": 183168.64800000054,
      "d": 438.31124999996973,
      "v": 110
    },
    {
      "midi": 69,
      "hit": false,
      "t": 183171.89475000053,
      "d": 503.2462499999674,
      "v": 105
    },
    {
      "midi": 50,
      "hit": false,
      "t": 183912.1537500005,
      "d": 2607.140250000055,
      "v": 96
    },
    {
      "midi": 69,
      "hit": false,
      "t": 183934.88100000052,
      "d": 350.6490000000049,
      "v": 110
    },
    {
      "midi": 62,
      "hit": false,
      "t": 183941.37450000053,
      "d": 275.97375000000466,
      "v": 105
    },
    {
      "midi": 66,
      "hit": false,
      "t": 183944.62125000052,
      "d": 487.01250000001164,
      "v": 82
    },
    {
      "midi": 69,
      "hit": false,
      "t": 184675.14000000054,
      "d": 327.9217500000086,
      "v": 96
    },
    {
      "midi": 66,
      "hit": false,
      "t": 184701.11400000053,
      "d": 240.25950000001467,
      "v": 86
    },
    {
      "midi": 62,
      "hit": false,
      "t": 184710.85425000053,
      "d": 246.75300000002608,
      "v": 82
    },
    {
      "midi": 66,
      "hit": false,
      "t": 185438.12625000055,
      "d": 207.79200000001583,
      "v": 78
    },
    {
      "midi": 69,
      "hit": false,
      "t": 185438.12625000055,
      "d": 266.2335000000021,
      "v": 70
    },
    {
      "midi": 62,
      "hit": false,
      "t": 185457.60675000056,
      "d": 220.77900000000955,
      "v": 66
    },
    {
      "midi": 66,
      "hit": false,
      "t": 186201.11250000057,
      "d": 152.59724999999162,
      "v": 66
    },
    {
      "midi": 69,
      "hit": false,
      "t": 186201.11250000057,
      "d": 217.5322499999893,
      "v": 78
    },
    {
      "midi": 62,
      "hit": false,
      "t": 186204.35925000056,
      "d": 159.09075000000303,
      "v": 62
    },
    {
      "midi": 43,
      "hit": false,
      "t": 186999.81300000055,
      "d": 3107.139749999944,
      "v": 77
    },
    {
      "midi": 74,
      "hit": false,
      "t": 187009.55324999988,
      "d": 1211.0377500000177,
      "v": 82
    },
    {
      "midi": 83,
      "hit": false,
      "t": 187016.0467499999,
      "d": 1373.3752500000119,
      "v": 82
    },
    {
      "midi": 67,
      "hit": false,
      "t": 187029.03375000056,
      "d": 529.2202499999839,
      "v": 72
    },
    {
      "midi": 62,
      "hit": false,
      "t": 187032.28050000055,
      "d": 509.7397499999788,
      "v": 72
    },
    {
      "midi": 59,
      "hit": false,
      "t": 187035.52725000054,
      "d": 451.29824999999255,
      "v": 72
    },
    {
      "midi": 59,
      "hit": false,
      "t": 187788.77325000055,
      "d": 503.2462499999965,
      "v": 66
    },
    {
      "midi": 67,
      "hit": false,
      "t": 187808.25375000056,
      "d": 512.98649999997,
      "v": 67
    },
    {
      "midi": 62,
      "hit": false,
      "t": 187834.22775000054,
      "d": 483.7657499999914,
      "v": 68
    },
    {
      "midi": 62,
      "hit": false,
      "t": 188545.26600000053,
      "d": 649.3499999999767,
      "v": 72
    },
    {
      "midi": 67,
      "hit": false,
      "t": 188571.24000000051,
      "d": 597.4020000000019,
      "v": 74
    },
    {
      "midi": 74,
      "hit": false,
      "t": 188574.4867499999,
      "d": 788.9602500000037,
      "v": 63
    },
    {
      "midi": 59,
      "hit": false,
      "t": 188584.2270000005,
      "d": 519.4800000000105,
      "v": 74
    },
    {
      "midi": 79,
      "hit": false,
      "t": 189343.9664999999,
      "d": 740.2589999999909,
      "v": 75
    },
    {
      "midi": 67,
      "hit": false,
      "t": 189360.20025000052,
      "d": 496.752749999956,
      "v": 74
    },
    {
      "midi": 62,
      "hit": false,
      "t": 189386.1742500005,
      "d": 457.79174999997485,
      "v": 69
    },
    {
      "midi": 59,
      "hit": false,
      "t": 189395.9145000005,
      "d": 314.9347499999858,
      "v": 72
    },
    {
      "midi": 78,
      "hit": false,
      "t": 190139.42024999988,
      "d": 1538.9594999999972,
      "v": 77
    },
    {
      "midi": 62,
      "hit": false,
      "t": 190142.66700000048,
      "d": 584.4150000000081,
      "v": 77
    },
    {
      "midi": 69,
      "hit": false,
      "t": 190158.9007500005,
      "d": 584.4150000000081,
      "v": 80
    },
    {
      "midi": 66,
      "hit": false,
      "t": 190162.1475000005,
      "d": 607.1422500000044,
      "v": 72
    },
    {
      "midi": 50,
      "hit": false,
      "t": 190162.1475000005,
      "d": 2006.4915000000037,
      "v": 86
    },
    {
      "midi": 66,
      "hit": false,
      "t": 190863.4455000005,
      "d": 577.9214999999967,
      "v": 61
    },
    {
      "midi": 69,
      "hit": false,
      "t": 190873.1857500005,
      "d": 529.220250000013,
      "v": 74
    },
    {
      "midi": 62,
      "hit": false,
      "t": 190882.9260000005,
      "d": 555.1942500000005,
      "v": 66
    },
    {
      "midi": 69,
      "hit": false,
      "t": 191616.69150000048,
      "d": 564.934500000003,
      "v": 80
    },
    {
      "midi": 62,
      "hit": false,
      "t": 191626.43175000048,
      "d": 613.6357499999867,
      "v": 80
    },
    {
      "midi": 66,
      "hit": false,
      "t": 191632.9252500005,
      "d": 639.6097499999742,
      "v": 66
    },
    {
      "midi": 71,
      "hit": false,
      "t": 191967.34049999987,
      "d": 282.46725000001607,
      "v": 70
    },
    {
      "midi": 74,
      "hit": false,
      "t": 192243.31424999988,
      "d": 214.28550000002724,
      "v": 77
    },
    {
      "midi": 66,
      "hit": false,
      "t": 192399.15825000047,
      "d": 519.4800000000396,
      "v": 86
    },
    {
      "midi": 69,
      "hit": false,
      "t": 192405.65175000048,
      "d": 386.363250000024,
      "v": 80
    },
    {
      "midi": 50,
      "hit": false,
      "t": 192405.65175000048,
      "d": 805.1940000000177,
      "v": 77
    },
    {
      "midi": 62,
      "hit": false,
      "t": 192412.1452500005,
      "d": 688.3110000000161,
      "v": 80
    },
    {
      "midi": 76,
      "hit": false,
      "t": 192447.8594999999,
      "d": 795.4537500000151,
      "v": 77
    },
    {
      "midi": 67,
      "hit": false,
      "t": 193233.5730000005,
      "d": 551.9475000000384,
      "v": 74
    },
    {
      "midi": 43,
      "hit": false,
      "t": 193240.0665000005,
      "d": 2542.205250000028,
      "v": 80
    },
    {
      "midi": 59,
      "hit": false,
      "t": 193249.8067500005,
      "d": 512.9865000000282,
      "v": 80
    },
    {
      "midi": 62,
      "hit": false,
      "t": 193256.30025000052,
      "d": 386.363250000024,
      "v": 80
    },
    {
      "midi": 67,
      "hit": false,
      "t": 194016.03975000055,
      "d": 542.2072500000068,
      "v": 74
    },
    {
      "midi": 74,
      "hit": false,
      "t": 194029.02674999993,
      "d": 272.7270000000135,
      "v": 65
    },
    {
      "midi": 62,
      "hit": false,
      "t": 194029.02675000054,
      "d": 532.4670000000042,
      "v": 63
    },
    {
      "midi": 59,
      "hit": false,
      "t": 194042.01375000054,
      "d": 487.01250000001164,
      "v": 72
    },
    {
      "midi": 79,
      "hit": false,
      "t": 194811.49349999995,
      "d": 1123.3754999999946,
      "v": 86
    },
    {
      "midi": 67,
      "hit": false,
      "t": 194811.49350000054,
      "d": 509.7397500000079,
      "v": 72
    },
    {
      "midi": 62,
      "hit": false,
      "t": 194817.98700000055,
      "d": 590.9084999999905,
      "v": 69
    },
    {
      "midi": 59,
      "hit": false,
      "t": 194821.23375000054,
      "d": 529.220250000013,
      "v": 72
    },
    {
      "midi": 59,
      "hit": false,
      "t": 195577.72650000054,
      "d": 256.49324999999953,
      "v": 86
    },
    {
      "midi": 67,
      "hit": false,
      "t": 195577.72650000054,
      "d": 649.3500000000058,
      "v": 80
    },
    {
      "midi": 62,
      "hit": false,
      "t": 195580.97325000053,
      "d": 509.7397500000079,
      "v": 91
    },
    {
      "midi": 83,
      "hit": false,
      "t": 195967.33649999995,
      "d": 249.99975000001723,
      "v": 68
    },
    {
      "midi": 74,
      "hit": false,
      "t": 195977.07674999995,
      "d": 178.57125000000815,
      "v": 68
    },
    {
      "midi": 60,
      "hit": false,
      "t": 196347.20625000054,
      "d": 616.882500000007,
      "v": 80
    },
    {
      "midi": 36,
      "hit": false,
      "t": 196350.45300000053,
      "d": 2636.3609999999753,
      "v": 91
    },
    {
      "midi": 64,
      "hit": false,
      "t": 196356.94650000054,
      "d": 636.362999999983,
      "v": 86
    },
    {
      "midi": 79,
      "hit": false,
      "t": 196360.19324999995,
      "d": 1126.622250000015,
      "v": 76
    },
    {
      "midi": 76,
      "hit": false,
      "t": 196360.19324999995,
      "d": 1314.9337500000256,
      "v": 76
    },
    {
      "midi": 72,
      "hit": false,
      "t": 196369.93349999996,
      "d": 1324.6740000000282,
      "v": 76
    },
    {
      "midi": 67,
      "hit": false,
      "t": 196369.93350000054,
      "d": 620.1292499999981,
      "v": 80
    },
    {
      "midi": 64,
      "hit": false,
      "t": 197178.37425000052,
      "d": 607.1422500000044,
      "v": 69
    },
    {
      "midi": 60,
      "hit": false,
      "t": 197184.86775000053,
      "d": 444.80475000001024,
      "v": 72
    },
    {
      "midi": 67,
      "hit": false,
      "t": 197194.60800000053,
      "d": 545.4539999999979,
      "v": 69
    },
    {
      "midi": 67,
      "hit": false,
      "t": 197928.3735,
      "d": 626.6227499999804,
      "v": 84
    },
    {
      "midi": 72,
      "hit": false,
      "t": 197931.62024999998,
      "d": 717.5317499999946,
      "v": 84
    },
    {
      "midi": 64,
      "hit": false,
      "t": 197938.1137500005,
      "d": 584.414999999979,
      "v": 80
    },
    {
      "midi": 60,
      "hit": false,
      "t": 197951.1007500005,
      "d": 512.9864999999991,
      "v": 74
    },
    {
      "midi": 67,
      "hit": false,
      "t": 197954.3475000005,
      "d": 574.6747500000056,
      "v": 80
    },
    {
      "midi": 60,
      "hit": false,
      "t": 198727.07400000052,
      "d": 292.2074999999895,
      "v": 86
    },
    {
      "midi": 64,
      "hit": false,
      "t": 198733.56750000053,
      "d": 327.9217499999795,
      "v": 91
    },
    {
      "midi": 67,
      "hit": false,
      "t": 198736.81425000052,
      "d": 321.4282499999972,
      "v": 80
    },
    {
      "midi": 86,
      "hit": false,
      "t": 202600.44674999997,
      "d": 1168.8300000000163,
      "v": 74
    },
    {
      "midi": 78,
      "hit": false,
      "t": 202606.94024999999,
      "d": 2746.7505000000237,
      "v": 94
    },
    {
      "midi": 66,
      "hit": false,
      "t": 202626.4207500005,
      "d": 386.363250000024,
      "v": 69
    },
    {
      "midi": 62,
      "hit": false,
      "t": 202629.6675000005,
      "d": 350.649000000034,
      "v": 94
    },
    {
      "midi": 38,
      "hit": false,
      "t": 202636.16100000052,
      "d": 2782.464750000043,
      "v": 110
    },
    {
      "midi": 69,
      "hit": false,
      "t": 202649.14800000054,
      "d": 470.7787499999977,
      "v": 98
    },
    {
      "midi": 69,
      "hit": false,
      "t": 203304.99150000053,
      "d": 616.882500000007,
      "v": 78
    },
    {
      "midi": 66,
      "hit": false,
      "t": 203317.97850000052,
      "d": 642.8565000000235,
      "v": 61
    },
    {
      "midi": 62,
      "hit": false,
      "t": 203350.44600000052,
      "d": 590.9085000000196,
      "v": 74
    },
    {
      "midi": 85,
      "hit": false,
      "t": 203775.77025,
      "d": 389.60999999998603,
      "v": 93
    },
    {
      "midi": 69,
      "hit": false,
      "t": 204152.39325000055,
      "d": 538.9605000000156,
      "v": 78
    },
    {
      "midi": 62,
      "hit": false,
      "t": 204162.13350000055,
      "d": 542.2072500000068,
      "v": 74
    },
    {
      "midi": 86,
      "hit": false,
      "t": 204165.38025,
      "d": 389.61000000001513,
      "v": 72
    },
    {
      "midi": 66,
      "hit": false,
      "t": 204178.36725000056,
      "d": 590.9084999999905,
      "v": 66
    },
    {
      "midi": 85,
      "hit": false,
      "t": 204548.49675,
      "d": 194.80500000002212,
      "v": 80
    },
    {
      "midi": 83,
      "hit": false,
      "t": 204746.5485,
      "d": 584.4150000000081,
      "v": 66
    },
    {
      "midi": 69,
      "hit": false,
      "t": 204967.32750000057,
      "d": 392.8567500000063,
      "v": 99
    },
    {
      "midi": 62,
      "hit": false,
      "t": 204970.57425000056,
      "d": 620.1292499999981,
      "v": 74
    },
    {
      "midi": 66,
      "hit": false,
      "t": 204980.31450000056,
      "d": 266.2335000000021,
      "v": 50
    },
    {
      "midi": 76,
      "hit": false,
      "t": 205317.97650000002,
      "d": 240.25949999998556,
      "v": 103
    },
    {
      "midi": 81,
      "hit": false,
      "t": 205330.9635,
      "d": 389.60999999998603,
      "v": 72
    },
    {
      "midi": 78,
      "hit": false,
      "t": 205512.7815,
      "d": 194.80499999999302,
      "v": 94
    },
    {
      "midi": 83,
      "hit": false,
      "t": 205714.08000000002,
      "d": 779.2199999999721,
      "v": 74
    },
    {
      "midi": 74,
      "hit": false,
      "t": 205717.32675,
      "d": 3116.8799999999756,
      "v": 93
    },
    {
      "midi": 62,
      "hit": false,
      "t": 205733.56050000055,
      "d": 564.934500000003,
      "v": 68
    },
    {
      "midi": 71,
      "hit": false,
      "t": 205740.05400000056,
      "d": 597.4020000000019,
      "v": 103
    },
    {
      "midi": 66,
      "hit": false,
      "t": 205743.30075000055,
      "d": 574.6747500000056,
      "v": 78
    },
    {
      "midi": 47,
      "hit": false,
      "t": 205756.28775000054,
      "d": 1490.2582500000135,
      "v": 94
    },
    {
      "midi": 78,
      "hit": false,
      "t": 206499.7935,
      "d": 389.60999999998603,
      "v": 83
    },
    {
      "midi": 71,
      "hit": false,
      "t": 206516.02725000057,
      "d": 503.2462499999965,
      "v": 103
    },
    {
      "midi": 66,
      "hit": false,
      "t": 206519.27400000056,
      "d": 457.79175000000396,
      "v": 57
    },
    {
      "midi": 62,
      "hit": false,
      "t": 206542.00125000055,
      "d": 467.5320000000065,
      "v": 74
    },
    {
      "midi": 78,
      "hit": false,
      "t": 206892.65024999998,
      "d": 389.61000000001513,
      "v": 97
    },
    {
      "midi": 71,
      "hit": false,
      "t": 207246.54600000056,
      "d": 538.9605000000156,
      "v": 99
    },
    {
      "midi": 83,
      "hit": false,
      "t": 207266.02649999998,
      "d": 389.61000000001513,
      "v": 107
    },
    {
      "midi": 66,
      "hit": false,
      "t": 207266.02650000056,
      "d": 454.5450000000128,
      "v": 68
    },
    {
      "midi": 62,
      "hit": false,
      "t": 207266.02650000056,
      "d": 487.01250000001164,
      "v": 64
    },
    {
      "midi": 59,
      "hit": false,
      "t": 207272.52000000057,
      "d": 519.4800000000105,
      "v": 90
    },
    {
      "midi": 81,
      "hit": false,
      "t": 207662.13,
      "d": 194.80499999999302,
      "v": 102
    },
    {
      "midi": 66,
      "hit": false,
      "t": 208025.76600000059,
      "d": 564.934500000003,
      "v": 67
    },
    {
      "midi": 71,
      "hit": false,
      "t": 208041.9997500006,
      "d": 594.1552499999816,
      "v": 94
    },
    {
      "midi": 79,
      "hit": false,
      "t": 208051.74,
      "d": 376.6229999999923,
      "v": 103
    },
    {
      "midi": 62,
      "hit": false,
      "t": 208051.7400000006,
      "d": 633.1162499999919,
      "v": 86
    },
    {
      "midi": 78,
      "hit": false,
      "t": 208441.34999999998,
      "d": 389.61000000001513,
      "v": 105
    },
    {
      "midi": 43,
      "hit": false,
      "t": 208804.9860000006,
      "d": 681.8175000000047,
      "v": 90
    },
    {
      "midi": 79,
      "hit": false,
      "t": 208834.20674999998,
      "d": 1168.8299999999872,
      "v": 74
    },
    {
      "midi": 71,
      "hit": false,
      "t": 208840.70025000058,
      "d": 503.2462500000256,
      "v": 86
    },
    {
      "midi": 62,
      "hit": false,
      "t": 208850.44050000058,
      "d": 487.01250000001164,
      "v": 59
    },
    {
      "midi": 67,
      "hit": false,
      "t": 208869.92100000058,
      "d": 454.5450000000128,
      "v": 86
    },
    {
      "midi": 55,
      "hit": false,
      "t": 209564.72550000058,
      "d": 77.92200000002049,
      "v": 81
    },
    {
      "midi": 71,
      "hit": false,
      "t": 209564.72550000058,
      "d": 240.25950000004377,
      "v": 90
    },
    {
      "midi": 67,
      "hit": false,
      "t": 209613.4267500006,
      "d": 168.8310000000056,
      "v": 90
    },
    {
      "midi": 62,
      "hit": false,
      "t": 209613.4267500006,
      "d": 175.324500000017,
      "v": 68
    },
    {
      "midi": 81,
      "hit": false,
      "t": 209999.78999999998,
      "d": 194.80499999999302,
      "v": 89
    },
    {
      "midi": 79,
      "hit": false,
      "t": 210201.08849999998,
      "d": 194.80500000002212,
      "v": 90
    },
    {
      "midi": 76,
      "hit": false,
      "t": 210382.90649999998,
      "d": 6.493500000011409,
      "v": 101
    },
    {
      "midi": 71,
      "hit": false,
      "t": 210405.63375000062,
      "d": 353.89574999999604,
      "v": 94
    },
    {
      "midi": 55,
      "hit": false,
      "t": 210418.6207500006,
      "d": 272.7270000000135,
      "v": 81
    },
    {
      "midi": 62,
      "hit": false,
      "t": 210425.11425000062,
      "d": 340.9087500000023,
      "v": 63
    },
    {
      "midi": 67,
      "hit": false,
      "t": 210428.36100000062,
      "d": 363.6359999999986,
      "v": 78
    },
    {
      "midi": 78,
      "hit": false,
      "t": 210772.5165,
      "d": 194.80499999999302,
      "v": 94
    },
    {
      "midi": 79,
      "hit": false,
      "t": 210983.55525,
      "d": 584.4150000000081,
      "v": 99
    },
    {
      "midi": 71,
      "hit": false,
      "t": 211129.65900000063,
      "d": 262.98674999998184,
      "v": 99
    },
    {
      "midi": 62,
      "hit": false,
      "t": 211132.90575000062,
      "d": 350.6489999999758,
      "v": 86
    },
    {
      "midi": 67,
      "hit": false,
      "t": 211152.38625000062,
      "d": 285.7139999999781,
      "v": 103
    },
    {
      "midi": 74,
      "hit": false,
      "t": 211551.7365,
      "d": 389.61000000001513,
      "v": 94
    },
    {
      "midi": 61,
      "hit": false,
      "t": 211925.1127500006,
      "d": 613.6357499999576,
      "v": 61
    },
    {
      "midi": 64,
      "hit": false,
      "t": 211938.0997500006,
      "d": 448.0514999999723,
      "v": 90
    },
    {
      "midi": 73,
      "hit": false,
      "t": 211941.3465,
      "d": 974.0249999999942,
      "v": 93
    },
    {
      "midi": 69,
      "hit": false,
      "t": 211941.3465000006,
      "d": 636.362999999983,
      "v": 94
    },
    {
      "midi": 45,
      "hit": false,
      "t": 211986.8010000006,
      "d": 2353.8937500000175,
      "v": 86
    },
    {
      "midi": 64,
      "hit": false,
      "t": 212733.5535000006,
      "d": 448.0515000000014,
      "v": 107
    },
    {
      "midi": 61,
      "hit": false,
      "t": 212753.0340000006,
      "d": 499.99950000000536,
      "v": 78
    },
    {
      "midi": 69,
      "hit": false,
      "t": 212753.0340000006,
      "d": 571.4280000000144,
      "v": 103
    },
    {
      "midi": 81,
      "hit": false,
      "t": 213116.67,
      "d": 389.60999999998603,
      "v": 91
    },
    {
      "midi": 90,
      "hit": false,
      "t": 213503.03325,
      "d": 389.60999999998603,
      "v": 102
    },
    {
      "midi": 61,
      "hit": false,
      "t": 213516.0202500006,
      "d": 376.6229999999923,
      "v": 74
    },
    {
      "midi": 69,
      "hit": false,
      "t": 213516.0202500006,
      "d": 418.8307499999937,
      "v": 99
    },
    {
      "midi": 64,
      "hit": false,
      "t": 213567.96825000062,
      "d": 68.18174999998882,
      "v": 81
    },
    {
      "midi": 57,
      "hit": false,
      "t": 213736.7992500006,
      "d": 214.28550000002724,
      "v": 45
    },
    {
      "midi": 88,
      "hit": false,
      "t": 213895.88999999998,
      "d": 194.80499999999302,
      "v": 94
    },
    {
      "midi": 86,
      "hit": false,
      "t": 214087.44825,
      "d": 584.4150000000081,
      "v": 90
    },
    {
      "midi": 61,
      "hit": false,
      "t": 214262.77275000061,
      "d": 266.2335000000021,
      "v": 68
    },
    {
      "midi": 69,
      "hit": false,
      "t": 214279.00650000063,
      "d": 714.2850000000035,
      "v": 74
    },
    {
      "midi": 57,
      "hit": false,
      "t": 214304.98050000062,
      "d": 266.2335000000021,
      "v": 99
    },
    {
      "midi": 64,
      "hit": false,
      "t": 214314.72075000062,
      "d": 470.7787499999977,
      "v": 71
    },
    {
      "midi": 88,
      "hit": false,
      "t": 214678.35675,
      "d": 389.60999999998603,
      "v": 94
    },
    {
      "midi": 86,
      "hit": false,
      "t": 215064.72,
      "d": 1168.8300000000163,
      "v": 78
    },
    {
      "midi": 78,
      "hit": false,
      "t": 215074.46025,
      "d": 2659.0882499999716,
      "v": 94
    },
    {
      "midi": 69,
      "hit": false,
      "t": 215074.46025000064,
      "d": 457.79175000000396,
      "v": 68
    },
    {
      "midi": 66,
      "hit": false,
      "t": 215093.94075000065,
      "d": 480.51900000000023,
      "v": 81
    },
    {
      "midi": 50,
      "hit": false,
      "t": 215093.94075000065,
      "d": 2120.127750000014,
      "v": 86
    },
    {
      "midi": 62,
      "hit": false,
      "t": 215113.42125000065,
      "d": 422.07749999998487,
      "v": 90
    },
    {
      "midi": 69,
      "hit": false,
      "t": 215840.69325000065,
      "d": 493.50599999999395,
      "v": 94
    },
    {
      "midi": 62,
      "hit": false,
      "t": 215860.17375000066,
      "d": 474.0254999999888,
      "v": 66
    },
    {
      "midi": 66,
      "hit": false,
      "t": 215863.42050000065,
      "d": 525.9734999999928,
      "v": 45
    },
    {
      "midi": 85,
      "hit": false,
      "t": 216233.55000000002,
      "d": 389.60999999998603,
      "v": 87
    },
    {
      "midi": 69,
      "hit": false,
      "t": 216613.41975000064,
      "d": 493.50600000002305,
      "v": 94
    },
    {
      "midi": 86,
      "hit": false,
      "t": 216619.91325,
      "d": 389.60999999998603,
      "v": 80
    },
    {
      "midi": 62,
      "hit": false,
      "t": 216619.91325000065,
      "d": 405.84375,
      "v": 78
    },
    {
      "midi": 66,
      "hit": false,
      "t": 216655.62750000064,
      "d": 535.7137500000244,
      "v": 45
    },
    {
      "midi": 85,
      "hit": false,
      "t": 217022.51025,
      "d": 194.80499999999302,
      "v": 82
    },
    {
      "midi": 83,
      "hit": false,
      "t": 217214.0685,
      "d": 584.414999999979,
      "v": 85
    },
    {
      "midi": 69,
      "hit": false,
      "t": 217392.63975000067,
      "d": 376.6229999999923,
      "v": 99
    },
    {
      "midi": 62,
      "hit": false,
      "t": 217405.62675000067,
      "d": 331.16849999999977,
      "v": 78
    },
    {
      "midi": 50,
      "hit": false,
      "t": 217415.36700000067,
      "d": 477.27224999998,
      "v": 99
    },
    {
      "midi": 66,
      "hit": false,
      "t": 217418.61375000066,
      "d": 386.3632499999949,
      "v": 78
    },
    {
      "midi": 81,
      "hit": false,
      "t": 217791.98999999996,
      "d": 389.61000000001513,
      "v": 78
    },
    {
      "midi": 76,
      "hit": false,
      "t": 217798.48349999997,
      "d": 237.0127499999944,
      "v": 99
    },
    {
      "midi": 62,
      "hit": false,
      "t": 217873.15875000064,
      "d": 162.33749999999418,
      "v": 57
    },
    {
      "midi": 78,
      "hit": false,
      "t": 217990.04174999997,
      "d": 253.24650000000838,
      "v": 99
    },
    {
      "midi": 74,
      "hit": false,
      "t": 218188.0935,
      "d": 3116.8800000000047,
      "v": 107
    },
    {
      "midi": 83,
      "hit": false,
      "t": 218191.34024999998,
      "d": 779.2200000000303,
      "v": 80
    },
    {
      "midi": 47,
      "hit": false,
      "t": 218236.79475000064,
      "d": 1558.4400000000314,
      "v": 103
    },
    {
      "midi": 71,
      "hit": false,
      "t": 218240.04150000063,
      "d": 532.4670000000042,
      "v": 94
    },
    {
      "midi": 66,
      "hit": false,
      "t": 218243.28825000062,
      "d": 509.7397500000079,
      "v": 64
    },
    {
      "midi": 62,
      "hit": false,
      "t": 218253.02850000063,
      "d": 415.58400000000256,
      "v": 74
    },
    {
      "midi": 78,
      "hit": false,
      "t": 218954.3265,
      "d": 389.61000000001513,
      "v": 102
    },
    {
      "midi": 66,
      "hit": false,
      "t": 218970.56025000065,
      "d": 363.6359999999986,
      "v": 90
    },
    {
      "midi": 62,
      "hit": false,
      "t": 218977.05375000066,
      "d": 181.8179999999993,
      "v": 71
    },
    {
      "midi": 71,
      "hit": false,
      "t": 218996.53425000067,
      "d": 350.6489999999758,
      "v": 94
    },
    {
      "midi": 78,
      "hit": false,
      "t": 219353.67675,
      "d": 389.60999999998603,
      "v": 101
    },
    {
      "midi": 59,
      "hit": false,
      "t": 219717.31275000065,
      "d": 1292.2065000000584,
      "v": 90
    },
    {
      "midi": 71,
      "hit": false,
      "t": 219730.29975000065,
      "d": 366.88275000004796,
      "v": 103
    },
    {
      "midi": 62,
      "hit": false,
      "t": 219736.79325000066,
      "d": 204.54525000002468,
      "v": 71
    },
    {
      "midi": 83,
      "hit": false,
      "t": 219746.5335,
      "d": 389.60999999998603,
      "v": 102
    },
    {
      "midi": 66,
      "hit": false,
      "t": 219753.02700000067,
      "d": 272.7270000000135,
      "v": 74
    },
    {
      "midi": 81,
      "hit": false,
      "t": 220132.89674999999,
      "d": 237.0127499999944,
      "v": 110
    },
    {
      "midi": 79,
      "hit": false,
      "t": 220317.96149999998,
      "d": 584.4150000000081,
      "v": 102
    },
    {
      "midi": 71,
      "hit": false,
      "t": 220480.2990000007,
      "d": 506.49300000001676,
      "v": 103
    },
    {
      "midi": 62,
      "hit": false,
      "t": 220496.5327500007,
      "d": 448.0515000000014,
      "v": 78
    },
    {
      "midi": 66,
      "hit": false,
      "t": 220499.7795000007,
      "d": 487.01250000001164,
      "v": 71
    },
    {
      "midi": 78,
      "hit": false,
      "t": 220912.11675,
      "d": 389.61000000001513,
      "v": 91
    },
    {
      "midi": 43,
      "hit": false,
      "t": 221256.2722500007,
      "d": 6233.759999999951,
      "v": 99
    },
    {
      "midi": 59,
      "hit": false,
      "t": 221269.2592500007,
      "d": 392.8567500000063,
      "v": 68
    },
    {
      "midi": 67,
      "hit": false,
      "t": 221285.49300000072,
      "d": 438.31124999999884,
      "v": 68
    },
    {
      "midi": 79,
      "hit": false,
      "t": 221308.22024999998,
      "d": 3116.8800000000047,
      "v": 90
    },
    {
      "midi": 81,
      "hit": false,
      "t": 221694.5835,
      "d": 389.61000000001513,
      "v": 90
    },
    {
      "midi": 67,
      "hit": false,
      "t": 222032.24550000072,
      "d": 386.363250000024,
      "v": 81
    },
    {
      "midi": 59,
      "hit": false,
      "t": 222071.20650000073,
      "d": 428.5710000000254,
      "v": 56
    },
    {
      "midi": 83,
      "hit": false,
      "t": 222074.45325000002,
      "d": 389.60999999998603,
      "v": 100
    },
    {
      "midi": 85,
      "hit": false,
      "t": 222460.81650000002,
      "d": 389.60999999998603,
      "v": 107
    },
    {
      "midi": 67,
      "hit": false,
      "t": 222801.72525000075,
      "d": 392.8567500000063,
      "v": 81
    },
    {
      "midi": 86,
      "hit": false,
      "t": 222853.67325,
      "d": 1558.4400000000023,
      "v": 105
    },
    {
      "midi": 59,
      "hit": false,
      "t": 222856.92000000074,
      "d": 275.97375000000466,
      "v": 54
    },
    {
      "midi": 67,
      "hit": false,
      "t": 223564.71150000076,
      "d": 438.31124999999884,
      "v": 78
    },
    {
      "midi": 59,
      "hit": false,
      "t": 223610.16600000075,
      "d": 379.8697500000126,
      "v": 52
    },
    {
      "midi": 67,
      "hit": false,
      "t": 224431.59375000076,
      "d": 512.98649999997,
      "v": 85
    },
    {
      "midi": 59,
      "hit": false,
      "t": 224444.58075000075,
      "d": 464.28524999998626,
      "v": 70
    },
    {
      "midi": 67,
      "hit": false,
      "t": 225194.58000000071,
      "d": 457.79174999997485,
      "v": 88
    },
    {
      "midi": 59,
      "hit": false,
      "t": 225197.8267500007,
      "d": 409.09049999999115,
      "v": 74
    },
    {
      "midi": 67,
      "hit": false,
      "t": 225977.04675000068,
      "d": 448.0515000000014,
      "v": 65
    },
    {
      "midi": 59,
      "hit": false,
      "t": 225983.5402500007,
      "d": 292.2074999999895,
      "v": 53
    },
    {
      "midi": 67,
      "hit": false,
      "t": 226684.83825000067,
      "d": 194.80499999999302,
      "v": 85
    },
    {
      "midi": 59,
      "hit": false,
      "t": 226688.08500000066,
      "d": 246.75299999999697,
      "v": 81
    },
    {
      "midi": 50,
      "hit": false,
      "t": 227496.52575000067,
      "d": 2733.763500000001,
      "v": 99
    },
    {
      "midi": 66,
      "hit": false,
      "t": 227506.26600000067,
      "d": 633.1162499999919,
      "v": 94
    },
    {
      "midi": 62,
      "hit": false,
      "t": 227522.49975000066,
      "d": 181.8179999999993,
      "v": 103
    },
    {
      "midi": 69,
      "hit": false,
      "t": 227525.74650000065,
      "d": 483.7657500000205,
      "v": 108
    },
    {
      "midi": 69,
      "hit": false,
      "t": 228291.97950000066,
      "d": 480.51900000002934,
      "v": 110
    },
    {
      "midi": 62,
      "hit": false,
      "t": 228298.47300000067,
      "d": 487.01250000001164,
      "v": 96
    },
    {
      "midi": 66,
      "hit": false,
      "t": 228314.70675000068,
      "d": 607.1422500000044,
      "v": 67
    },
    {
      "midi": 62,
      "hit": false,
      "t": 229103.66700000069,
      "d": 522.7267500000016,
      "v": 82
    },
    {
      "midi": 69,
      "hit": false,
      "t": 229116.65400000068,
      "d": 545.4539999999979,
      "v": 105
    },
    {
      "midi": 66,
      "hit": false,
      "t": 229116.65400000068,
      "d": 607.1422500000044,
      "v": 66
    },
    {
      "midi": 66,
      "hit": false,
      "t": 229915.35450000069,
      "d": 441.55799999999,
      "v": 82
    },
    {
      "midi": 62,
      "hit": false,
      "t": 229918.60125000068,
      "d": 438.31124999999884,
      "v": 110
    },
    {
      "midi": 69,
      "hit": false,
      "t": 229928.34150000068,
      "d": 503.2462499999965,
      "v": 105
    },
    {
      "midi": 50,
      "hit": false,
      "t": 230658.86025000067,
      "d": 2607.140250000026,
      "v": 96
    },
    {
      "midi": 69,
      "hit": false,
      "t": 230684.83425000065,
      "d": 350.6490000000049,
      "v": 110
    },
    {
      "midi": 62,
      "hit": false,
      "t": 230697.82125000065,
      "d": 275.97375000000466,
      "v": 105
    },
    {
      "midi": 66,
      "hit": false,
      "t": 230697.82125000065,
      "d": 487.01250000001164,
      "v": 82
    },
    {
      "midi": 69,
      "hit": false,
      "t": 231418.59975000066,
      "d": 327.9217500000086,
      "v": 96
    },
    {
      "midi": 66,
      "hit": false,
      "t": 231464.05425000066,
      "d": 240.25950000001467,
      "v": 86
    },
    {
      "midi": 62,
      "hit": false,
      "t": 231473.79450000066,
      "d": 246.75300000002608,
      "v": 82
    },
    {
      "midi": 69,
      "hit": false,
      "t": 232184.83275000067,
      "d": 266.2335000000021,
      "v": 70
    },
    {
      "midi": 66,
      "hit": false,
      "t": 232197.81975000066,
      "d": 207.79200000001583,
      "v": 78
    },
    {
      "midi": 62,
      "hit": false,
      "t": 232207.56000000067,
      "d": 220.77900000000955,
      "v": 66
    },
    {
      "midi": 66,
      "hit": false,
      "t": 232954.31250000067,
      "d": 152.59725000002072,
      "v": 66
    },
    {
      "midi": 69,
      "hit": false,
      "t": 232954.31250000067,
      "d": 217.5322500000184,
      "v": 78
    },
    {
      "midi": 62,
      "hit": false,
      "t": 232960.80600000068,
      "d": 159.09075000000303,
      "v": 62
    }
  ]
}