{
  "jsonPath": "Rock/German Rock/Erdmöbel/fahler-als-nur-fahl-a-whiter-shade-of-pale.json",
  "path": "Rock\\German Rock\\Erdmöbel\\Fahler als nur fahl ( A Whiter Shade Of Pale).mid",
  "name": "Fahler als nur fahl ( A Whiter Shade Of Pale)",
  "difficulty": "Advanced",
  "bpm": 72.00002880001152,
  "notes": [
    {
      "midi": 58,
      "hit": false,
      "t": 8286.631854166668,
      "d": 382.5428229166664,
      "v": 77
    },
    {
      "midi": 65,
      "hit": false,
      "t": 8286.631854166668,
      "d": 479.5255104166663,
      "v": 77
    },
    {
      "midi": 62,
      "hit": false,
      "t": 8286.631854166668,
      "d": 484.9134374999994,
      "v": 69
    },
    {
      "midi": 46,
      "hit": false,
      "t": 8286.631854166668,
      "d": 1761.852156249999,
      "v": 81
    },
    {
      "midi": 58,
      "hit": false,
      "t": 8803.872854166668,
      "d": 161.6378124999992,
      "v": 46
    },
    {
      "midi": 65,
      "hit": false,
      "t": 9321.113854166668,
      "d": 479.5255104166663,
      "v": 77
    },
    {
      "midi": 62,
      "hit": false,
      "t": 9321.113854166668,
      "d": 495.68929166666567,
      "v": 85
    },
    {
      "midi": 58,
      "hit": false,
      "t": 9838.354854166666,
      "d": 172.41366666666727,
      "v": 60
    },
    {
      "midi": 57,
      "hit": false,
      "t": 10355.595854166668,
      "d": 409.48245833333203,
      "v": 69
    },
    {
      "midi": 62,
      "hit": false,
      "t": 10355.595854166668,
      "d": 522.6289270833313,
      "v": 73
    },
    {
      "midi": 65,
      "hit": false,
      "t": 10355.595854166668,
      "d": 522.6289270833313,
      "v": 69
    },
    {
      "midi": 45,
      "hit": false,
      "t": 10355.595854166668,
      "d": 1600.214343749998,
      "v": 85
    },
    {
      "midi": 57,
      "hit": false,
      "t": 10872.836854166666,
      "d": 150.86195833333295,
      "v": 51
    },
    {
      "midi": 65,
      "hit": false,
      "t": 11390.077854166666,
      "d": 495.6892916666675,
      "v": 69
    },
    {
      "midi": 62,
      "hit": false,
      "t": 11390.077854166666,
      "d": 501.0772187500006,
      "v": 77
    },
    {
      "midi": 57,
      "hit": false,
      "t": 11907.318854166666,
      "d": 102.37061458333301,
      "v": 57
    },
    {
      "midi": 55,
      "hit": false,
      "t": 12424.559854166666,
      "d": 371.76696875000016,
      "v": 65
    },
    {
      "midi": 58,
      "hit": false,
      "t": 12424.559854166666,
      "d": 554.9564895833355,
      "v": 81
    },
    {
      "midi": 62,
      "hit": false,
      "t": 12424.559854166666,
      "d": 581.8961250000029,
      "v": 73
    },
    {
      "midi": 43,
      "hit": false,
      "t": 12424.559854166666,
      "d": 1530.171291666671,
      "v": 65
    },
    {
      "midi": 55,
      "hit": false,
      "t": 12941.800854166668,
      "d": 156.2498854166679,
      "v": 54
    },
    {
      "midi": 62,
      "hit": false,
      "t": 13459.04185416667,
      "d": 452.58587500000067,
      "v": 73
    },
    {
      "midi": 58,
      "hit": false,
      "t": 13459.04185416667,
      "d": 484.91343750000124,
      "v": 77
    },
    {
      "midi": 55,
      "hit": false,
      "t": 13976.28285416667,
      "d": 118.5343958333342,
      "v": 54
    },
    {
      "midi": 53,
      "hit": false,
      "t": 14493.523854166671,
      "d": 377.1548958333333,
      "v": 65
    },
    {
      "midi": 58,
      "hit": false,
      "t": 14493.523854166671,
      "d": 495.6892916666675,
      "v": 73
    },
    {
      "midi": 62,
      "hit": false,
      "t": 14493.523854166671,
      "d": 501.0772187500006,
      "v": 77
    },
    {
      "midi": 41,
      "hit": false,
      "t": 14493.523854166671,
      "d": 1627.1539791666655,
      "v": 69
    },
    {
      "midi": 53,
      "hit": false,
      "t": 15010.764854166671,
      "d": 123.92232291666733,
      "v": 57
    },
    {
      "midi": 58,
      "hit": false,
      "t": 15528.005854166671,
      "d": 441.8100208333326,
      "v": 85
    },
    {
      "midi": 62,
      "hit": false,
      "t": 15528.005854166671,
      "d": 457.973802083332,
      "v": 81
    },
    {
      "midi": 53,
      "hit": false,
      "t": 16045.24685416667,
      "d": 75.43097916666738,
      "v": 51
    },
    {
      "midi": 58,
      "hit": false,
      "t": 16562.48785416667,
      "d": 441.8100208333308,
      "v": 69
    },
    {
      "midi": 67,
      "hit": false,
      "t": 16562.48785416667,
      "d": 544.1806354166656,
      "v": 69
    },
    {
      "midi": 63,
      "hit": false,
      "t": 16562.48785416667,
      "d": 554.9564895833319,
      "v": 77
    },
    {
      "midi": 39,
      "hit": false,
      "t": 16562.48785416667,
      "d": 1648.705687499998,
      "v": 73
    },
    {
      "midi": 58,
      "hit": false,
      "t": 17079.728854166668,
      "d": 177.80159374999857,
      "v": 44
    },
    {
      "midi": 63,
      "hit": false,
      "t": 17596.969854166666,
      "d": 447.1979479166657,
      "v": 69
    },
    {
      "midi": 67,
      "hit": false,
      "t": 17596.969854166666,
      "d": 501.0772187500006,
      "v": 69
    },
    {
      "midi": 58,
      "hit": false,
      "t": 18114.210854166668,
      "d": 199.3533020833347,
      "v": 57
    },
    {
      "midi": 67,
      "hit": false,
      "t": 18631.45185416667,
      "d": 522.6289270833331,
      "v": 69
    },
    {
      "midi": 62,
      "hit": false,
      "t": 18631.45185416667,
      "d": 538.7927083333343,
      "v": 77
    },
    {
      "midi": 38,
      "hit": false,
      "t": 18631.45185416667,
      "d": 1540.9471458333355,
      "v": 69
    },
    {
      "midi": 58,
      "hit": false,
      "t": 19148.692854166668,
      "d": 247.84464583333465,
      "v": 60
    },
    {
      "midi": 67,
      "hit": false,
      "t": 19665.93385416667,
      "d": 501.0772187500006,
      "v": 62
    },
    {
      "midi": 62,
      "hit": false,
      "t": 19665.93385416667,
      "d": 517.2410000000018,
      "v": 77
    },
    {
      "midi": 58,
      "hit": false,
      "t": 20183.17485416667,
      "d": 70.04305208333244,
      "v": 62
    },
    {
      "midi": 55,
      "hit": false,
      "t": 20700.41585416667,
      "d": 366.37904166666704,
      "v": 51
    },
    {
      "midi": 60,
      "hit": false,
      "t": 20700.41585416667,
      "d": 528.0168541666644,
      "v": 69
    },
    {
      "midi": 63,
      "hit": false,
      "t": 20700.41585416667,
      "d": 549.5685624999969,
      "v": 73
    },
    {
      "midi": 36,
      "hit": false,
      "t": 20700.41585416667,
      "d": 1584.0505624999969,
      "v": 73
    },
    {
      "midi": 55,
      "hit": false,
      "t": 21217.656854166667,
      "d": 231.68086458333346,
      "v": 21
    },
    {
      "midi": 60,
      "hit": false,
      "t": 21734.89785416667,
      "d": 474.13758333333317,
      "v": 77
    },
    {
      "midi": 63,
      "hit": false,
      "t": 21734.89785416667,
      "d": 495.68929166666567,
      "v": 81
    },
    {
      "midi": 55,
      "hit": false,
      "t": 22252.138854166667,
      "d": 231.68086458333346,
      "v": 46
    },
    {
      "midi": 58,
      "hit": false,
      "t": 22769.37985416667,
      "d": 522.6289270833331,
      "v": 73
    },
    {
      "midi": 63,
      "hit": false,
      "t": 22769.37985416667,
      "d": 522.6289270833331,
      "v": 77
    },
    {
      "midi": 34,
      "hit": false,
      "t": 22769.37985416667,
      "d": 1562.4988541666644,
      "v": 73
    },
    {
      "midi": 55,
      "hit": false,
      "t": 23286.620854166667,
      "d": 199.3533020833347,
      "v": 51
    },
    {
      "midi": 58,
      "hit": false,
      "t": 23803.86185416667,
      "d": 484.9134374999994,
      "v": 77
    },
    {
      "midi": 63,
      "hit": false,
      "t": 23803.86185416667,
      "d": 517.2409999999982,
      "v": 81
    },
    {
      "midi": 55,
      "hit": false,
      "t": 24321.102854166667,
      "d": 80.81890624999869,
      "v": 49
    },
    {
      "midi": 60,
      "hit": false,
      "t": 24838.343854166666,
      "d": 436.4220937499995,
      "v": 65
    },
    {
      "midi": 65,
      "hit": false,
      "t": 24838.343854166666,
      "d": 533.4047812499994,
      "v": 69
    },
    {
      "midi": 69,
      "hit": false,
      "t": 24838.343854166666,
      "d": 538.7927083333343,
      "v": 65
    },
    {
      "midi": 41,
      "hit": false,
      "t": 24838.343854166666,
      "d": 1530.1712916666656,
      "v": 77
    },
    {
      "midi": 60,
      "hit": false,
      "t": 25355.584854166664,
      "d": 226.29293750000215,
      "v": 42
    },
    {
      "midi": 65,
      "hit": false,
      "t": 25872.825854166666,
      "d": 495.68929166666567,
      "v": 73
    },
    {
      "midi": 69,
      "hit": false,
      "t": 25872.825854166666,
      "d": 528.0168541666644,
      "v": 73
    },
    {
      "midi": 60,
      "hit": false,
      "t": 26390.066854166664,
      "d": 167.02573958333232,
      "v": 46
    },
    {
      "midi": 63,
      "hit": false,
      "t": 26907.307854166662,
      "d": 565.7323437499981,
      "v": 69
    },
    {
      "midi": 69,
      "hit": false,
      "t": 26907.307854166662,
      "d": 565.7323437499981,
      "v": 81
    },
    {
      "midi": 39,
      "hit": false,
      "t": 26907.307854166662,
      "d": 1573.2747083333306,
      "v": 81
    },
    {
      "midi": 60,
      "hit": false,
      "t": 27424.54885416666,
      "d": 156.24988541666607,
      "v": 62
    },
    {
      "midi": 69,
      "hit": false,
      "t": 27941.78985416666,
      "d": 571.120270833333,
      "v": 62
    },
    {
      "midi": 63,
      "hit": false,
      "t": 27941.78985416666,
      "d": 581.8961249999993,
      "v": 65
    },
    {
      "midi": 60,
      "hit": false,
      "t": 28459.03085416666,
      "d": 118.53439583333238,
      "v": 51
    },
    {
      "midi": 57,
      "hit": false,
      "t": 28976.271854166658,
      "d": 328.66355208333334,
      "v": 60
    },
    {
      "midi": 62,
      "hit": false,
      "t": 28976.271854166658,
      "d": 463.3617291666669,
      "v": 65
    },
    {
      "midi": 65,
      "hit": false,
      "t": 28976.271854166658,
      "d": 479.5255104166681,
      "v": 73
    },
    {
      "midi": 38,
      "hit": false,
      "t": 28976.271854166658,
      "d": 1530.1712916666656,
      "v": 65
    },
    {
      "midi": 57,
      "hit": false,
      "t": 29493.51285416666,
      "d": 140.08610416666488,
      "v": 40
    },
    {
      "midi": 62,
      "hit": false,
      "t": 30010.753854166658,
      "d": 501.0772187500006,
      "v": 77
    },
    {
      "midi": 65,
      "hit": false,
      "t": 30010.753854166658,
      "d": 522.6289270833367,
      "v": 73
    },
    {
      "midi": 57,
      "hit": false,
      "t": 30527.99485416666,
      "d": 237.0687916666684,
      "v": 51
    },
    {
      "midi": 60,
      "hit": false,
      "t": 31045.23585416666,
      "d": 490.30136458333436,
      "v": 73
    },
    {
      "midi": 65,
      "hit": false,
      "t": 31045.23585416666,
      "d": 522.6289270833367,
      "v": 77
    },
    {
      "midi": 36,
      "hit": false,
      "t": 31045.23585416666,
      "d": 1659.4815416666715,
      "v": 77
    },
    {
      "midi": 57,
      "hit": false,
      "t": 31562.476854166664,
      "d": 242.45671875000335,
      "v": 60
    },
    {
      "midi": 65,
      "hit": false,
      "t": 32079.717854166665,
      "d": 495.68929166666567,
      "v": 77
    },
    {
      "midi": 60,
      "hit": false,
      "t": 32079.717854166665,
      "d": 522.6289270833331,
      "v": 69
    },
    {
      "midi": 57,
      "hit": false,
      "t": 32596.958854166664,
      "d": 91.59476041666858,
      "v": 46
    },
    {
      "midi": 58,
      "hit": false,
      "t": 33114.19985416667,
      "d": 312.4997708333394,
      "v": 62
    },
    {
      "midi": 62,
      "hit": false,
      "t": 33114.19985416667,
      "d": 452.5858750000116,
      "v": 81
    },
    {
      "midi": 65,
      "hit": false,
      "t": 33114.19985416667,
      "d": 484.91343750001397,
      "v": 77
    },
    {
      "midi": 34,
      "hit": false,
      "t": 33114.19985416667,
      "d": 1460.128239583355,
      "v": 81
    },
    {
      "midi": 58,
      "hit": false,
      "t": 33631.440854166685,
      "d": 145.47403124999983,
      "v": 49
    },
    {
      "midi": 62,
      "hit": false,
      "t": 34148.68185416669,
      "d": 457.97380208333925,
      "v": 77
    },
    {
      "midi": 65,
      "hit": false,
      "t": 34148.68185416669,
      "d": 468.74965625000914,
      "v": 77
    },
    {
      "midi": 58,
      "hit": false,
      "t": 34665.922854166696,
      "d": 161.63781249999738,
      "v": 51
    },
    {
      "midi": 63,
      "hit": false,
      "t": 35183.16385416669,
      "d": 501.077218749997,
      "v": 69
    },
    {
      "midi": 67,
      "hit": false,
      "t": 35183.16385416669,
      "d": 522.6289270833295,
      "v": 85
    },
    {
      "midi": 39,
      "hit": false,
      "t": 35183.16385416669,
      "d": 1465.5161666666681,
      "v": 65
    },
    {
      "midi": 58,
      "hit": false,
      "t": 35700.404854166685,
      "d": 247.84464583333465,
      "v": 60
    },
    {
      "midi": 63,
      "hit": false,
      "t": 36217.64585416669,
      "d": 420.2583125000019,
      "v": 65
    },
    {
      "midi": 67,
      "hit": false,
      "t": 36217.64585416669,
      "d": 452.5858750000043,
      "v": 89
    },
    {
      "midi": 58,
      "hit": false,
      "t": 36734.88685416669,
      "d": 123.92232291666733,
      "v": 49
    },
    {
      "midi": 60,
      "hit": false,
      "t": 37252.12785416668,
      "d": 371.7669687499947,
      "v": 69
    },
    {
      "midi": 65,
      "hit": false,
      "t": 37252.12785416668,
      "d": 490.3013645833271,
      "v": 73
    },
    {
      "midi": 69,
      "hit": false,
      "t": 37252.12785416668,
      "d": 501.077218749997,
      "v": 77
    },
    {
      "midi": 41,
      "hit": false,
      "t": 37252.12785416668,
      "d": 1546.335072916656,
      "v": 85
    },
    {
      "midi": 60,
      "hit": false,
      "t": 37769.36885416668,
      "d": 210.12915624999732,
      "v": 47
    },
    {
      "midi": 65,
      "hit": false,
      "t": 38286.60985416667,
      "d": 479.5255104166645,
      "v": 69
    },
    {
      "midi": 69,
      "hit": false,
      "t": 38286.60985416667,
      "d": 479.5255104166645,
      "v": 81
    },
    {
      "midi": 60,
      "hit": false,
      "t": 38803.850854166674,
      "d": 204.74122916666965,
      "v": 46
    },
    {
      "midi": 60,
      "hit": false,
      "t": 39321.091854166676,
      "d": 350.2152604166622,
      "v": 69
    },
    {
      "midi": 63,
      "hit": false,
      "t": 39321.091854166676,
      "d": 468.7496562499946,
      "v": 77
    },
    {
      "midi": 69,
      "hit": false,
      "t": 39321.091854166676,
      "d": 501.077218749997,
      "v": 81
    },
    {
      "midi": 41,
      "hit": false,
      "t": 39321.091854166676,
      "d": 1988.1450937499976,
      "v": 77
    },
    {
      "midi": 60,
      "hit": false,
      "t": 39838.33285416667,
      "d": 156.2498854166697,
      "v": 47
    },
    {
      "midi": 63,
      "hit": false,
      "t": 40355.57385416667,
      "d": 479.5255104166645,
      "v": 73
    },
    {
      "midi": 69,
      "hit": false,
      "t": 40355.57385416667,
      "d": 490.30136458333436,
      "v": 77
    },
    {
      "midi": 29,
      "hit": false,
      "t": 40355.57385416667,
      "d": 996.7665104166663,
      "v": 77
    },
    {
      "midi": 60,
      "hit": false,
      "t": 40872.814854166674,
      "d": 226.29293750000215,
      "v": 60
    },
    {
      "midi": 58,
      "hit": false,
      "t": 41390.05585416667,
      "d": 382.54282291667187,
      "v": 77
    },
    {
      "midi": 65,
      "hit": false,
      "t": 41390.05585416667,
      "d": 479.52551041667175,
      "v": 77
    },
    {
      "midi": 62,
      "hit": false,
      "t": 41390.05585416667,
      "d": 484.9134375000067,
      "v": 69
    },
    {
      "midi": 46,
      "hit": false,
      "t": 41390.05585416667,
      "d": 1761.8521562499955,
      "v": 81
    },
    {
      "midi": 58,
      "hit": false,
      "t": 41907.29685416668,
      "d": 161.63781249999738,
      "v": 46
    },
    {
      "midi": 65,
      "hit": false,
      "t": 42424.53785416667,
      "d": 479.5255104166645,
      "v": 77
    },
    {
      "midi": 62,
      "hit": false,
      "t": 42424.53785416667,
      "d": 495.68929166666203,
      "v": 85
    },
    {
      "midi": 58,
      "hit": false,
      "t": 42941.77885416667,
      "d": 172.41366666666727,
      "v": 60
    },
    {
      "midi": 57,
      "hit": false,
      "t": 43459.01985416666,
      "d": 409.48245833333203,
      "v": 69
    },
    {
      "midi": 62,
      "hit": false,
      "t": 43459.01985416666,
      "d": 522.6289270833367,
      "v": 73
    },
    {
      "midi": 65,
      "hit": false,
      "t": 43459.01985416666,
      "d": 522.6289270833367,
      "v": 69
    },
    {
      "midi": 45,
      "hit": false,
      "t": 43459.01985416666,
      "d": 1600.2143437500054,
      "v": 85
    },
    {
      "midi": 57,
      "hit": false,
      "t": 43976.26085416666,
      "d": 150.86195833333477,
      "v": 51
    },
    {
      "midi": 65,
      "hit": false,
      "t": 44493.501854166665,
      "d": 495.6892916666693,
      "v": 69
    },
    {
      "midi": 62,
      "hit": false,
      "t": 44493.501854166665,
      "d": 501.07721875000425,
      "v": 77
    },
    {
      "midi": 57,
      "hit": false,
      "t": 45010.74285416667,
      "d": 102.37061458333483,
      "v": 57
    },
    {
      "midi": 55,
      "hit": false,
      "t": 45527.98385416667,
      "d": 371.766968750002,
      "v": 65
    },
    {
      "midi": 58,
      "hit": false,
      "t": 45527.98385416667,
      "d": 554.9564895833319,
      "v": 81
    },
    {
      "midi": 62,
      "hit": false,
      "t": 45527.98385416667,
      "d": 581.8961249999993,
      "v": 73
    },
    {
      "midi": 43,
      "hit": false,
      "t": 45527.98385416667,
      "d": 1530.1712916666656,
      "v": 65
    },
    {
      "midi": 55,
      "hit": false,
      "t": 46045.22485416667,
      "d": 156.24988541666244,
      "v": 54
    },
    {
      "midi": 62,
      "hit": false,
      "t": 46562.465854166665,
      "d": 452.58587499999703,
      "v": 73
    },
    {
      "midi": 58,
      "hit": false,
      "t": 46562.465854166665,
      "d": 484.9134374999994,
      "v": 77
    },
    {
      "midi": 55,
      "hit": false,
      "t": 47079.70685416667,
      "d": 118.53439583333238,
      "v": 54
    },
    {
      "midi": 53,
      "hit": false,
      "t": 47596.94785416667,
      "d": 377.1548958333369,
      "v": 65
    },
    {
      "midi": 58,
      "hit": false,
      "t": 47596.94785416667,
      "d": 495.6892916666693,
      "v": 73
    },
    {
      "midi": 62,
      "hit": false,
      "t": 47596.94785416667,
      "d": 501.07721875000425,
      "v": 77
    },
    {
      "midi": 41,
      "hit": false,
      "t": 47596.94785416667,
      "d": 1627.1539791666728,
      "v": 69
    },
    {
      "midi": 53,
      "hit": false,
      "t": 48114.18885416667,
      "d": 123.92232291666733,
      "v": 57
    },
    {
      "midi": 58,
      "hit": false,
      "t": 48631.42985416667,
      "d": 441.8100208333344,
      "v": 85
    },
    {
      "midi": 62,
      "hit": false,
      "t": 48631.42985416667,
      "d": 457.973802083332,
      "v": 81
    },
    {
      "midi": 53,
      "hit": false,
      "t": 49148.670854166674,
      "d": 75.43097916666738,
      "v": 51
    },
    {
      "midi": 58,
      "hit": false,
      "t": 49665.911854166676,
      "d": 441.8100208333344,
      "v": 69
    },
    {
      "midi": 67,
      "hit": false,
      "t": 49665.911854166676,
      "d": 544.1806354166692,
      "v": 69
    },
    {
      "midi": 63,
      "hit": false,
      "t": 49665.911854166676,
      "d": 554.9564895833391,
      "v": 77
    },
    {
      "midi": 39,
      "hit": false,
      "t": 49665.911854166676,
      "d": 1648.7056875000053,
      "v": 73
    },
    {
      "midi": 58,
      "hit": false,
      "t": 50183.15285416668,
      "d": 177.8015937500022,
      "v": 44
    },
    {
      "midi": 63,
      "hit": false,
      "t": 50700.39385416668,
      "d": 447.19794791666936,
      "v": 69
    },
    {
      "midi": 67,
      "hit": false,
      "t": 50700.39385416668,
      "d": 501.07721875000425,
      "v": 69
    },
    {
      "midi": 58,
      "hit": false,
      "t": 51217.63485416668,
      "d": 199.3533020833347,
      "v": 57
    },
    {
      "midi": 67,
      "hit": false,
      "t": 51734.87585416668,
      "d": 522.6289270833367,
      "v": 69
    },
    {
      "midi": 62,
      "hit": false,
      "t": 51734.87585416668,
      "d": 538.7927083333343,
      "v": 77
    },
    {
      "midi": 38,
      "hit": false,
      "t": 51734.87585416668,
      "d": 1540.9471458333355,
      "v": 69
    },
    {
      "midi": 58,
      "hit": false,
      "t": 52252.116854166685,
      "d": 247.84464583333465,
      "v": 60
    },
    {
      "midi": 67,
      "hit": false,
      "t": 52769.35785416669,
      "d": 501.077218749997,
      "v": 62
    },
    {
      "midi": 62,
      "hit": false,
      "t": 52769.35785416669,
      "d": 517.2410000000018,
      "v": 77
    },
    {
      "midi": 58,
      "hit": false,
      "t": 53286.59885416669,
      "d": 70.04305208333244,
      "v": 62
    },
    {
      "midi": 55,
      "hit": false,
      "t": 53803.83985416669,
      "d": 366.37904166666704,
      "v": 51
    },
    {
      "midi": 60,
      "hit": false,
      "t": 53803.83985416669,
      "d": 528.0168541666717,
      "v": 69
    },
    {
      "midi": 63,
      "hit": false,
      "t": 53803.83985416669,
      "d": 549.5685625000042,
      "v": 73
    },
    {
      "midi": 36,
      "hit": false,
      "t": 53803.83985416669,
      "d": 1584.0505625000078,
      "v": 73
    },
    {
      "midi": 55,
      "hit": false,
      "t": 54321.08085416669,
      "d": 231.6808645833371,
      "v": 21
    },
    {
      "midi": 60,
      "hit": false,
      "t": 54838.321854166694,
      "d": 474.1375833333368,
      "v": 77
    },
    {
      "midi": 63,
      "hit": false,
      "t": 54838.321854166694,
      "d": 495.6892916666693,
      "v": 81
    },
    {
      "midi": 55,
      "hit": false,
      "t": 55355.562854166696,
      "d": 231.6808645833371,
      "v": 46
    },
    {
      "midi": 58,
      "hit": false,
      "t": 55872.8038541667,
      "d": 522.6289270833295,
      "v": 73
    },
    {
      "midi": 63,
      "hit": false,
      "t": 55872.8038541667,
      "d": 522.6289270833295,
      "v": 77
    },
    {
      "midi": 34,
      "hit": false,
      "t": 55872.8038541667,
      "d": 1562.498854166668,
      "v": 73
    },
    {
      "midi": 55,
      "hit": false,
      "t": 56390.04485416669,
      "d": 199.3533020833347,
      "v": 51
    },
    {
      "midi": 58,
      "hit": false,
      "t": 56907.285854166694,
      "d": 484.9134374999994,
      "v": 77
    },
    {
      "midi": 63,
      "hit": false,
      "t": 56907.285854166694,
      "d": 517.2410000000018,
      "v": 81
    },
    {
      "midi": 55,
      "hit": false,
      "t": 57424.526854166696,
      "d": 80.81890625000233,
      "v": 49
    },
    {
      "midi": 60,
      "hit": false,
      "t": 57941.7678541667,
      "d": 436.4220937499995,
      "v": 65
    },
    {
      "midi": 65,
      "hit": false,
      "t": 57941.7678541667,
      "d": 533.4047812499994,
      "v": 69
    },
    {
      "midi": 69,
      "hit": false,
      "t": 57941.7678541667,
      "d": 538.7927083333343,
      "v": 65
    },
    {
      "midi": 41,
      "hit": false,
      "t": 57941.7678541667,
      "d": 1530.171291666673,
      "v": 77
    },
    {
      "midi": 60,
      "hit": false,
      "t": 58459.0088541667,
      "d": 226.29293750000215,
      "v": 42
    },
    {
      "midi": 65,
      "hit": false,
      "t": 58976.2498541667,
      "d": 495.6892916666693,
      "v": 73
    },
    {
      "midi": 69,
      "hit": false,
      "t": 58976.2498541667,
      "d": 528.0168541666717,
      "v": 73
    },
    {
      "midi": 60,
      "hit": false,
      "t": 59493.4908541667,
      "d": 167.0257395833396,
      "v": 46
    },
    {
      "midi": 63,
      "hit": false,
      "t": 60010.73185416671,
      "d": 565.732343750009,
      "v": 69
    },
    {
      "midi": 69,
      "hit": false,
      "t": 60010.73185416671,
      "d": 565.732343750009,
      "v": 81
    },
    {
      "midi": 39,
      "hit": false,
      "t": 60010.73185416671,
      "d": 1573.2747083333452,
      "v": 81
    },
    {
      "midi": 60,
      "hit": false,
      "t": 60527.97285416672,
      "d": 156.2498854166697,
      "v": 62
    },
    {
      "midi": 69,
      "hit": false,
      "t": 61045.21385416672,
      "d": 571.1202708333367,
      "v": 62
    },
    {
      "midi": 63,
      "hit": false,
      "t": 61045.21385416672,
      "d": 581.8961250000066,
      "v": 65
    },
    {
      "midi": 60,
      "hit": false,
      "t": 61562.454854166725,
      "d": 118.53439583333966,
      "v": 51
    },
    {
      "midi": 57,
      "hit": false,
      "t": 62079.69585416673,
      "d": 328.6635520833297,
      "v": 60
    },
    {
      "midi": 62,
      "hit": false,
      "t": 62079.69585416673,
      "d": 463.36172916665964,
      "v": 65
    },
    {
      "midi": 65,
      "hit": false,
      "t": 62079.69585416673,
      "d": 479.5255104166572,
      "v": 73
    },
    {
      "midi": 38,
      "hit": false,
      "t": 62079.69585416673,
      "d": 1530.1712916666584,
      "v": 65
    },
    {
      "midi": 57,
      "hit": false,
      "t": 62596.93685416672,
      "d": 140.08610416666488,
      "v": 40
    },
    {
      "midi": 62,
      "hit": false,
      "t": 63114.17785416672,
      "d": 501.07721875000425,
      "v": 77
    },
    {
      "midi": 65,
      "hit": false,
      "t": 63114.17785416672,
      "d": 522.6289270833367,
      "v": 73
    },
    {
      "midi": 57,
      "hit": false,
      "t": 63631.418854166724,
      "d": 237.06879166666477,
      "v": 51
    },
    {
      "midi": 60,
      "hit": false,
      "t": 64148.65985416672,
      "d": 490.30136458333436,
      "v": 73
    },
    {
      "midi": 65,
      "hit": false,
      "t": 64148.65985416672,
      "d": 522.6289270833367,
      "v": 77
    },
    {
      "midi": 36,
      "hit": false,
      "t": 64148.65985416672,
      "d": 1659.481541666668,
      "v": 77
    },
    {
      "midi": 57,
      "hit": false,
      "t": 64665.90085416672,
      "d": 242.4567187499997,
      "v": 60
    },
    {
      "midi": 65,
      "hit": false,
      "t": 65183.14185416672,
      "d": 495.6892916666693,
      "v": 77
    },
    {
      "midi": 60,
      "hit": false,
      "t": 65183.14185416672,
      "d": 522.6289270833367,
      "v": 69
    },
    {
      "midi": 57,
      "hit": false,
      "t": 65700.38285416673,
      "d": 91.59476041665766,
      "v": 46
    },
    {
      "midi": 58,
      "hit": false,
      "t": 66217.62385416673,
      "d": 382.54282291667187,
      "v": 77
    },
    {
      "midi": 65,
      "hit": false,
      "t": 66217.62385416673,
      "d": 479.52551041667175,
      "v": 77
    },
    {
      "midi": 62,
      "hit": false,
      "t": 66217.62385416673,
      "d": 484.9134374999994,
      "v": 69
    },
    {
      "midi": 46,
      "hit": false,
      "t": 66217.62385416673,
      "d": 1761.85215625001,
      "v": 81
    },
    {
      "midi": 58,
      "hit": false,
      "t": 66734.86485416672,
      "d": 161.63781250000466,
      "v": 46
    },
    {
      "midi": 65,
      "hit": false,
      "t": 67252.10585416673,
      "d": 479.52551041667175,
      "v": 77
    },
    {
      "midi": 62,
      "hit": false,
      "t": 67252.10585416673,
      "d": 495.6892916666693,
      "v": 85
    },
    {
      "midi": 58,
      "hit": false,
      "t": 67769.34685416674,
      "d": 172.41366666666,
      "v": 60
    },
    {
      "midi": 57,
      "hit": false,
      "t": 68286.58785416673,
      "d": 409.4824583333393,
      "v": 69
    },
    {
      "midi": 62,
      "hit": false,
      "t": 68286.58785416673,
      "d": 522.6289270833367,
      "v": 73
    },
    {
      "midi": 65,
      "hit": false,
      "t": 68286.58785416673,
      "d": 522.6289270833367,
      "v": 69
    },
    {
      "midi": 45,
      "hit": false,
      "t": 68286.58785416673,
      "d": 1600.2143437500054,
      "v": 85
    },
    {
      "midi": 57,
      "hit": false,
      "t": 68803.82885416674,
      "d": 150.86195833333477,
      "v": 51
    },
    {
      "midi": 65,
      "hit": false,
      "t": 69321.06985416674,
      "d": 495.6892916666693,
      "v": 69
    },
    {
      "midi": 62,
      "hit": false,
      "t": 69321.06985416674,
      "d": 501.077218749997,
      "v": 77
    },
    {
      "midi": 57,
      "hit": false,
      "t": 69838.31085416673,
      "d": 102.3706145833421,
      "v": 57
    },
    {
      "midi": 55,
      "hit": false,
      "t": 70355.55185416674,
      "d": 371.766968750002,
      "v": 65
    },
    {
      "midi": 58,
      "hit": false,
      "t": 70355.55185416674,
      "d": 554.9564895833464,
      "v": 81
    },
    {
      "midi": 62,
      "hit": false,
      "t": 70355.55185416674,
      "d": 581.8961250000139,
      "v": 73
    },
    {
      "midi": 43,
      "hit": false,
      "t": 70355.55185416674,
      "d": 1530.1712916666875,
      "v": 65
    },
    {
      "midi": 55,
      "hit": false,
      "t": 70872.79285416675,
      "d": 156.249885416677,
      "v": 54
    },
    {
      "midi": 62,
      "hit": false,
      "t": 71390.03385416676,
      "d": 452.5858750000043,
      "v": 73
    },
    {
      "midi": 58,
      "hit": false,
      "t": 71390.03385416676,
      "d": 484.9134374999994,
      "v": 77
    },
    {
      "midi": 55,
      "hit": false,
      "t": 71907.27485416677,
      "d": 118.53439583333966,
      "v": 54
    },
    {
      "midi": 53,
      "hit": false,
      "t": 72424.51585416678,
      "d": 377.15489583332965,
      "v": 65
    },
    {
      "midi": 58,
      "hit": false,
      "t": 72424.51585416678,
      "d": 495.6892916666693,
      "v": 73
    },
    {
      "midi": 62,
      "hit": false,
      "t": 72424.51585416678,
      "d": 501.077218749997,
      "v": 77
    },
    {
      "midi": 41,
      "hit": false,
      "t": 72424.51585416678,
      "d": 1627.1539791666437,
      "v": 69
    },
    {
      "midi": 53,
      "hit": false,
      "t": 72941.75685416677,
      "d": 123.92232291666733,
      "v": 57
    },
    {
      "midi": 58,
      "hit": false,
      "t": 73458.99785416677,
      "d": 441.8100208333344,
      "v": 85
    },
    {
      "midi": 62,
      "hit": false,
      "t": 73458.99785416677,
      "d": 457.973802083332,
      "v": 81
    },
    {
      "midi": 53,
      "hit": false,
      "t": 73976.23885416676,
      "d": 75.43097916666011,
      "v": 51
    },
    {
      "midi": 58,
      "hit": false,
      "t": 74493.47985416676,
      "d": 441.810020833349,
      "v": 69
    },
    {
      "midi": 67,
      "hit": false,
      "t": 74493.47985416676,
      "d": 544.1806354166765,
      "v": 69
    },
    {
      "midi": 63,
      "hit": false,
      "t": 74493.47985416676,
      "d": 554.9564895833464,
      "v": 77
    },
    {
      "midi": 39,
      "hit": false,
      "t": 74493.47985416676,
      "d": 1648.7056875000126,
      "v": 73
    },
    {
      "midi": 58,
      "hit": false,
      "t": 75010.72085416676,
      "d": 177.8015937500022,
      "v": 44
    },
    {
      "midi": 63,
      "hit": false,
      "t": 75527.96185416677,
      "d": 447.1979479166621,
      "v": 69
    },
    {
      "midi": 67,
      "hit": false,
      "t": 75527.96185416677,
      "d": 501.077218749997,
      "v": 69
    },
    {
      "midi": 58,
      "hit": false,
      "t": 76045.20285416677,
      "d": 199.35330208332743,
      "v": 57
    },
    {
      "midi": 67,
      "hit": false,
      "t": 76562.44385416676,
      "d": 522.6289270833222,
      "v": 69
    },
    {
      "midi": 62,
      "hit": false,
      "t": 76562.44385416676,
      "d": 538.7927083333198,
      "v": 77
    },
    {
      "midi": 38,
      "hit": false,
      "t": 76562.44385416676,
      "d": 1540.9471458332991,
      "v": 69
    },
    {
      "midi": 58,
      "hit": false,
      "t": 77079.68485416676,
      "d": 247.8446458333201,
      "v": 60
    },
    {
      "midi": 67,
      "hit": false,
      "t": 77596.92585416674,
      "d": 501.077218749997,
      "v": 62
    },
    {
      "midi": 62,
      "hit": false,
      "t": 77596.92585416674,
      "d": 517.2409999999945,
      "v": 77
    },
    {
      "midi": 58,
      "hit": false,
      "t": 78114.16685416673,
      "d": 70.04305208333244,
      "v": 62
    },
    {
      "midi": 55,
      "hit": false,
      "t": 78631.40785416673,
      "d": 366.37904166665976,
      "v": 51
    },
    {
      "midi": 60,
      "hit": false,
      "t": 78631.40785416673,
      "d": 528.0168541666644,
      "v": 69
    },
    {
      "midi": 63,
      "hit": false,
      "t": 78631.40785416673,
      "d": 549.5685625000042,
      "v": 73
    },
    {
      "midi": 36,
      "hit": false,
      "t": 78631.40785416673,
      "d": 1584.0505625000078,
      "v": 73
    },
    {
      "midi": 55,
      "hit": false,
      "t": 79148.64885416672,
      "d": 231.6808645833371,
      "v": 21
    },
    {
      "midi": 60,
      "hit": false,
      "t": 79665.88985416673,
      "d": 474.13758333332953,
      "v": 77
    },
    {
      "midi": 63,
      "hit": false,
      "t": 79665.88985416673,
      "d": 495.6892916666693,
      "v": 81
    },
    {
      "midi": 55,
      "hit": false,
      "t": 80183.13085416674,
      "d": 231.68086458332255,
      "v": 46
    },
    {
      "midi": 58,
      "hit": false,
      "t": 80700.37185416673,
      "d": 522.6289270833367,
      "v": 73
    },
    {
      "midi": 63,
      "hit": false,
      "t": 80700.37185416673,
      "d": 522.6289270833367,
      "v": 77
    },
    {
      "midi": 34,
      "hit": false,
      "t": 80700.37185416673,
      "d": 1562.498854166668,
      "v": 73
    },
    {
      "midi": 55,
      "hit": false,
      "t": 81217.61285416674,
      "d": 199.35330208332743,
      "v": 51
    },
    {
      "midi": 58,
      "hit": false,
      "t": 81734.85385416674,
      "d": 484.9134374999994,
      "v": 77
    },
    {
      "midi": 63,
      "hit": false,
      "t": 81734.85385416674,
      "d": 517.2409999999945,
      "v": 81
    },
    {
      "midi": 55,
      "hit": false,
      "t": 82252.09485416673,
      "d": 80.81890625000233,
      "v": 49
    },
    {
      "midi": 60,
      "hit": false,
      "t": 82769.33585416674,
      "d": 436.4220937499922,
      "v": 65
    },
    {
      "midi": 65,
      "hit": false,
      "t": 82769.33585416674,
      "d": 533.4047812499921,
      "v": 69
    },
    {
      "midi": 69,
      "hit": false,
      "t": 82769.33585416674,
      "d": 538.7927083333198,
      "v": 65
    },
    {
      "midi": 41,
      "hit": false,
      "t": 82769.33585416674,
      "d": 1530.1712916666584,
      "v": 77
    },
    {
      "midi": 60,
      "hit": false,
      "t": 83286.57685416673,
      "d": 226.29293749999488,
      "v": 42
    },
    {
      "midi": 65,
      "hit": false,
      "t": 83803.81785416673,
      "d": 495.6892916666693,
      "v": 73
    },
    {
      "midi": 69,
      "hit": false,
      "t": 83803.81785416673,
      "d": 528.016854166679,
      "v": 73
    },
    {
      "midi": 60,
      "hit": false,
      "t": 84321.05885416674,
      "d": 167.02573958333232,
      "v": 46
    },
    {
      "midi": 63,
      "hit": false,
      "t": 84838.29985416673,
      "d": 565.7323437500163,
      "v": 69
    },
    {
      "midi": 69,
      "hit": false,
      "t": 84838.29985416673,
      "d": 565.7323437500163,
      "v": 81
    },
    {
      "midi": 39,
      "hit": false,
      "t": 84838.29985416673,
      "d": 1573.2747083333525,
      "v": 81
    },
    {
      "midi": 60,
      "hit": false,
      "t": 85355.54085416674,
      "d": 156.249885416677,
      "v": 62
    },
    {
      "midi": 69,
      "hit": false,
      "t": 85872.78185416675,
      "d": 571.1202708333294,
      "v": 62
    },
    {
      "midi": 63,
      "hit": false,
      "t": 85872.78185416675,
      "d": 581.8961249999993,
      "v": 65
    },
    {
      "midi": 60,
      "hit": false,
      "t": 86390.02285416675,
      "d": 118.53439583333966,
      "v": 51
    },
    {
      "midi": 57,
      "hit": false,
      "t": 86907.26385416675,
      "d": 328.663552083337,
      "v": 60
    },
    {
      "midi": 62,
      "hit": false,
      "t": 86907.26385416675,
      "d": 463.3617291666742,
      "v": 65
    },
    {
      "midi": 65,
      "hit": false,
      "t": 86907.26385416675,
      "d": 479.52551041667175,
      "v": 73
    },
    {
      "midi": 38,
      "hit": false,
      "t": 86907.26385416675,
      "d": 1530.171291666673,
      "v": 65
    },
    {
      "midi": 57,
      "hit": false,
      "t": 87424.50485416676,
      "d": 140.08610416666488,
      "v": 40
    },
    {
      "midi": 62,
      "hit": false,
      "t": 87941.74585416676,
      "d": 501.077218749997,
      "v": 77
    },
    {
      "midi": 65,
      "hit": false,
      "t": 87941.74585416676,
      "d": 522.6289270833222,
      "v": 73
    },
    {
      "midi": 57,
      "hit": false,
      "t": 88458.98685416675,
      "d": 237.06879166666477,
      "v": 51
    },
    {
      "midi": 60,
      "hit": false,
      "t": 88976.22785416676,
      "d": 490.30136458334164,
      "v": 73
    },
    {
      "midi": 65,
      "hit": false,
      "t": 88976.22785416676,
      "d": 522.6289270833367,
      "v": 77
    },
    {
      "midi": 36,
      "hit": false,
      "t": 88976.22785416676,
      "d": 1659.481541666668,
      "v": 77
    },
    {
      "midi": 57,
      "hit": false,
      "t": 89493.46885416677,
      "d": 242.45671874999243,
      "v": 60
    },
    {
      "midi": 65,
      "hit": false,
      "t": 90010.70985416677,
      "d": 495.6892916666693,
      "v": 77
    },
    {
      "midi": 60,
      "hit": false,
      "t": 90010.70985416677,
      "d": 522.6289270833367,
      "v": 69
    },
    {
      "midi": 57,
      "hit": false,
      "t": 90527.95085416677,
      "d": 91.59476041665766,
      "v": 46
    },
    {
      "midi": 58,
      "hit": false,
      "t": 91045.19185416677,
      "d": 382.54282291667187,
      "v": 77
    },
    {
      "midi": 65,
      "hit": false,
      "t": 91045.19185416677,
      "d": 479.52551041667175,
      "v": 77
    },
    {
      "midi": 62,
      "hit": false,
      "t": 91045.19185416677,
      "d": 484.9134374999994,
      "v": 69
    },
    {
      "midi": 46,
      "hit": false,
      "t": 91045.19185416677,
      "d": 1761.85215625001,
      "v": 81
    },
    {
      "midi": 58,
      "hit": false,
      "t": 91562.43285416676,
      "d": 161.63781250000466,
      "v": 46
    },
    {
      "midi": 65,
      "hit": false,
      "t": 92079.67385416677,
      "d": 479.52551041667175,
      "v": 77
    },
    {
      "midi": 62,
      "hit": false,
      "t": 92079.67385416677,
      "d": 495.6892916666693,
      "v": 85
    },
    {
      "midi": 58,
      "hit": false,
      "t": 92596.91485416678,
      "d": 172.41366666666,
      "v": 60
    },
    {
      "midi": 57,
      "hit": false,
      "t": 93114.15585416678,
      "d": 409.4824583333393,
      "v": 69
    },
    {
      "midi": 62,
      "hit": false,
      "t": 93114.15585416678,
      "d": 522.6289270833367,
      "v": 73
    },
    {
      "midi": 65,
      "hit": false,
      "t": 93114.15585416678,
      "d": 522.6289270833367,
      "v": 69
    },
    {
      "midi": 45,
      "hit": false,
      "t": 93114.15585416678,
      "d": 1600.2143437500054,
      "v": 85
    },
    {
      "midi": 57,
      "hit": false,
      "t": 93631.39685416679,
      "d": 150.86195833333477,
      "v": 51
    },
    {
      "midi": 65,
      "hit": false,
      "t": 94148.63785416678,
      "d": 495.6892916666693,
      "v": 69
    },
    {
      "midi": 62,
      "hit": false,
      "t": 94148.63785416678,
      "d": 501.077218749997,
      "v": 77
    },
    {
      "midi": 57,
      "hit": false,
      "t": 94665.87885416677,
      "d": 102.3706145833421,
      "v": 57
    },
    {
      "midi": 55,
      "hit": false,
      "t": 95183.11985416678,
      "d": 371.766968750002,
      "v": 65
    },
    {
      "midi": 58,
      "hit": false,
      "t": 95183.11985416678,
      "d": 554.9564895833464,
      "v": 81
    },
    {
      "midi": 62,
      "hit": false,
      "t": 95183.11985416678,
      "d": 581.8961250000139,
      "v": 73
    },
    {
      "midi": 43,
      "hit": false,
      "t": 95183.11985416678,
      "d": 1530.1712916666875,
      "v": 65
    },
    {
      "midi": 55,
      "hit": false,
      "t": 95700.36085416679,
      "d": 156.249885416677,
      "v": 54
    },
    {
      "midi": 62,
      "hit": false,
      "t": 96217.6018541668,
      "d": 452.5858750000043,
      "v": 73
    },
    {
      "midi": 58,
      "hit": false,
      "t": 96217.6018541668,
      "d": 484.9134374999994,
      "v": 77
    },
    {
      "midi": 55,
      "hit": false,
      "t": 96734.84285416681,
      "d": 118.53439583333966,
      "v": 54
    },
    {
      "midi": 53,
      "hit": false,
      "t": 97252.08385416682,
      "d": 377.15489583332965,
      "v": 65
    },
    {
      "midi": 58,
      "hit": false,
      "t": 97252.08385416682,
      "d": 495.6892916666693,
      "v": 73
    },
    {
      "midi": 62,
      "hit": false,
      "t": 97252.08385416682,
      "d": 501.077218749997,
      "v": 77
    },
    {
      "midi": 41,
      "hit": false,
      "t": 97252.08385416682,
      "d": 1627.1539791666437,
      "v": 69
    },
    {
      "midi": 53,
      "hit": false,
      "t": 97769.32485416681,
      "d": 123.92232291666733,
      "v": 57
    },
    {
      "midi": 58,
      "hit": false,
      "t": 98286.56585416681,
      "d": 441.8100208333344,
      "v": 85
    },
    {
      "midi": 62,
      "hit": false,
      "t": 98286.56585416681,
      "d": 457.973802083332,
      "v": 81
    },
    {
      "midi": 53,
      "hit": false,
      "t": 98803.8068541668,
      "d": 75.43097916666011,
      "v": 51
    },
    {
      "midi": 58,
      "hit": false,
      "t": 99321.0478541668,
      "d": 441.810020833349,
      "v": 69
    },
    {
      "midi": 67,
      "hit": false,
      "t": 99321.0478541668,
      "d": 544.1806354166765,
      "v": 69
    },
    {
      "midi": 63,
      "hit": false,
      "t": 99321.0478541668,
      "d": 554.9564895833464,
      "v": 77
    },
    {
      "midi": 39,
      "hit": false,
      "t": 99321.0478541668,
      "d": 1648.7056875000126,
      "v": 73
    },
    {
      "midi": 58,
      "hit": false,
      "t": 99838.2888541668,
      "d": 177.8015937500022,
      "v": 44
    },
    {
      "midi": 63,
      "hit": false,
      "t": 100355.52985416682,
      "d": 447.1979479166621,
      "v": 69
    },
    {
      "midi": 67,
      "hit": false,
      "t": 100355.52985416682,
      "d": 501.077218749997,
      "v": 69
    },
    {
      "midi": 58,
      "hit": false,
      "t": 100872.77085416681,
      "d": 199.35330208332743,
      "v": 57
    },
    {
      "midi": 67,
      "hit": false,
      "t": 101390.0118541668,
      "d": 522.6289270833222,
      "v": 69
    },
    {
      "midi": 62,
      "hit": false,
      "t": 101390.0118541668,
      "d": 538.7927083333198,
      "v": 77
    },
    {
      "midi": 38,
      "hit": false,
      "t": 101390.0118541668,
      "d": 1540.9471458332991,
      "v": 69
    },
    {
      "midi": 58,
      "hit": false,
      "t": 101907.2528541668,
      "d": 247.8446458333201,
      "v": 60
    },
    {
      "midi": 67,
      "hit": false,
      "t": 102424.49385416678,
      "d": 501.077218749997,
      "v": 62
    },
    {
      "midi": 62,
      "hit": false,
      "t": 102424.49385416678,
      "d": 517.2409999999945,
      "v": 77
    },
    {
      "midi": 58,
      "hit": false,
      "t": 102941.73485416677,
      "d": 70.04305208333244,
      "v": 62
    },
    {
      "midi": 55,
      "hit": false,
      "t": 103458.97585416677,
      "d": 366.37904166665976,
      "v": 51
    },
    {
      "midi": 60,
      "hit": false,
      "t": 103458.97585416677,
      "d": 528.0168541666644,
      "v": 69
    },
    {
      "midi": 63,
      "hit": false,
      "t": 103458.97585416677,
      "d": 549.5685625000042,
      "v": 73
    },
    {
      "midi": 36,
      "hit": false,
      "t": 103458.97585416677,
      "d": 1584.0505625000078,
      "v": 73
    },
    {
      "midi": 55,
      "hit": false,
      "t": 103976.21685416676,
      "d": 231.6808645833371,
      "v": 21
    },
    {
      "midi": 60,
      "hit": false,
      "t": 104493.45785416677,
      "d": 474.13758333332953,
      "v": 77
    },
    {
      "midi": 63,
      "hit": false,
      "t": 104493.45785416677,
      "d": 495.6892916666693,
      "v": 81
    },
    {
      "midi": 55,
      "hit": false,
      "t": 105010.69885416678,
      "d": 231.68086458332255,
      "v": 46
    },
    {
      "midi": 69,
      "hit": false,
      "t": 105527.93985416678,
      "d": 641.1633229166764,
      "v": 59
    },
    {
      "midi": 60,
      "hit": false,
      "t": 105527.93985416678,
      "d": 646.5512500000041,
      "v": 50
    },
    {
      "midi": 65,
      "hit": false,
      "t": 105527.93985416678,
      "d": 646.5512500000041,
      "v": 63
    },
    {
      "midi": 60,
      "hit": false,
      "t": 106303.80135416678,
      "d": 490.3013645833271,
      "v": 63
    },
    {
      "midi": 65,
      "hit": false,
      "t": 106303.80135416678,
      "d": 528.0168541666644,
      "v": 67
    },
    {
      "midi": 69,
      "hit": false,
      "t": 106303.80135416678,
      "d": 549.5685625000042,
      "v": 67
    },
    {
      "midi": 65,
      "hit": false,
      "t": 107079.66285416677,
      "d": 425.64623958333686,
      "v": 67
    },
    {
      "midi": 72,
      "hit": false,
      "t": 107079.66285416677,
      "d": 431.03416666666453,
      "v": 52
    },
    {
      "midi": 69,
      "hit": false,
      "t": 107079.66285416677,
      "d": 441.8100208333344,
      "v": 75
    },
    {
      "midi": 58,
      "hit": false,
      "t": 107596.90385416677,
      "d": 382.54282291667187,
      "v": 77
    },
    {
      "midi": 65,
      "hit": false,
      "t": 107596.90385416677,
      "d": 479.52551041667175,
      "v": 77
    },
    {
      "midi": 62,
      "hit": false,
      "t": 107596.90385416677,
      "d": 484.9134374999994,
      "v": 69
    },
    {
      "midi": 46,
      "hit": false,
      "t": 107596.90385416677,
      "d": 1761.85215625001,
      "v": 81
    },
    {
      "midi": 58,
      "hit": false,
      "t": 108114.14485416676,
      "d": 161.63781250000466,
      "v": 46
    },
    {
      "midi": 65,
      "hit": false,
      "t": 108631.38585416677,
      "d": 479.52551041667175,
      "v": 77
    },
    {
      "midi": 62,
      "hit": false,
      "t": 108631.38585416677,
      "d": 495.6892916666693,
      "v": 85
    },
    {
      "midi": 58,
      "hit": false,
      "t": 109148.62685416678,
      "d": 172.41366666666,
      "v": 60
    },
    {
      "midi": 57,
      "hit": false,
      "t": 109665.86785416678,
      "d": 409.4824583333393,
      "v": 69
    },
    {
      "midi": 62,
      "hit": false,
      "t": 109665.86785416678,
      "d": 522.6289270833367,
      "v": 73
    },
    {
      "midi": 65,
      "hit": false,
      "t": 109665.86785416678,
      "d": 522.6289270833367,
      "v": 69
    },
    {
      "midi": 45,
      "hit": false,
      "t": 109665.86785416678,
      "d": 1600.2143437500054,
      "v": 85
    },
    {
      "midi": 57,
      "hit": false,
      "t": 110183.10885416679,
      "d": 150.86195833333477,
      "v": 51
    },
    {
      "midi": 65,
      "hit": false,
      "t": 110700.34985416678,
      "d": 495.6892916666693,
      "v": 69
    },
    {
      "midi": 62,
      "hit": false,
      "t": 110700.34985416678,
      "d": 501.077218749997,
      "v": 77
    },
    {
      "midi": 57,
      "hit": false,
      "t": 111217.59085416677,
      "d": 102.3706145833421,
      "v": 57
    },
    {
      "midi": 55,
      "hit": false,
      "t": 111734.83185416678,
      "d": 371.766968750002,
      "v": 65
    },
    {
      "midi": 58,
      "hit": false,
      "t": 111734.83185416678,
      "d": 554.9564895833464,
      "v": 81
    },
    {
      "midi": 62,
      "hit": false,
      "t": 111734.83185416678,
      "d": 581.8961250000139,
      "v": 73
    },
    {
      "midi": 43,
      "hit": false,
      "t": 111734.83185416678,
      "d": 1530.1712916666875,
      "v": 65
    },
    {
      "midi": 55,
      "hit": false,
      "t": 112252.07285416679,
      "d": 156.249885416677,
      "v": 54
    },
    {
      "midi": 62,
      "hit": false,
      "t": 112769.3138541668,
      "d": 452.5858750000043,
      "v": 73
    },
    {
      "midi": 58,
      "hit": false,
      "t": 112769.3138541668,
      "d": 484.9134374999994,
      "v": 77
    },
    {
      "midi": 55,
      "hit": false,
      "t": 113286.55485416681,
      "d": 118.53439583333966,
      "v": 54
    },
    {
      "midi": 53,
      "hit": false,
      "t": 113803.79585416682,
      "d": 377.15489583332965,
      "v": 65
    },
    {
      "midi": 58,
      "hit": false,
      "t": 113803.79585416682,
      "d": 495.6892916666693,
      "v": 73
    },
    {
      "midi": 62,
      "hit": false,
      "t": 113803.79585416682,
      "d": 501.077218749997,
      "v": 77
    },
    {
      "midi": 41,
      "hit": false,
      "t": 113803.79585416682,
      "d": 1627.1539791666437,
      "v": 69
    },
    {
      "midi": 53,
      "hit": false,
      "t": 114321.03685416681,
      "d": 123.92232291666733,
      "v": 57
    },
    {
      "midi": 58,
      "hit": false,
      "t": 114838.27785416681,
      "d": 441.8100208333344,
      "v": 85
    },
    {
      "midi": 62,
      "hit": false,
      "t": 114838.27785416681,
      "d": 457.973802083332,
      "v": 81
    },
    {
      "midi": 53,
      "hit": false,
      "t": 115355.5188541668,
      "d": 75.43097916666011,
      "v": 51
    },
    {
      "midi": 58,
      "hit": false,
      "t": 115872.7598541668,
      "d": 441.810020833349,
      "v": 69
    },
    {
      "midi": 67,
      "hit": false,
      "t": 115872.7598541668,
      "d": 544.1806354166765,
      "v": 69
    },
    {
      "midi": 63,
      "hit": false,
      "t": 115872.7598541668,
      "d": 554.9564895833464,
      "v": 77
    },
    {
      "midi": 39,
      "hit": false,
      "t": 115872.7598541668,
      "d": 1648.7056875000126,
      "v": 73
    },
    {
      "midi": 58,
      "hit": false,
      "t": 116390.0008541668,
      "d": 177.8015937500022,
      "v": 44
    },
    {
      "midi": 63,
      "hit": false,
      "t": 116907.24185416682,
      "d": 447.1979479166621,
      "v": 69
    },
    {
      "midi": 67,
      "hit": false,
      "t": 116907.24185416682,
      "d": 501.077218749997,
      "v": 69
    },
    {
      "midi": 58,
      "hit": false,
      "t": 117424.48285416681,
      "d": 199.35330208332743,
      "v": 57
    },
    {
      "midi": 67,
      "hit": false,
      "t": 117941.7238541668,
      "d": 522.6289270833222,
      "v": 69
    },
    {
      "midi": 62,
      "hit": false,
      "t": 117941.7238541668,
      "d": 538.7927083333198,
      "v": 77
    },
    {
      "midi": 38,
      "hit": false,
      "t": 117941.7238541668,
      "d": 1540.9471458332991,
      "v": 69
    },
    {
      "midi": 58,
      "hit": false,
      "t": 118458.9648541668,
      "d": 247.8446458333201,
      "v": 60
    },
    {
      "midi": 67,
      "hit": false,
      "t": 118976.20585416678,
      "d": 501.077218749997,
      "v": 62
    },
    {
      "midi": 62,
      "hit": false,
      "t": 118976.20585416678,
      "d": 517.2409999999945,
      "v": 77
    },
    {
      "midi": 58,
      "hit": false,
      "t": 119493.44685416677,
      "d": 70.04305208333244,
      "v": 62
    },
    {
      "midi": 55,
      "hit": false,
      "t": 120010.68785416677,
      "d": 366.37904166665976,
      "v": 51
    },
    {
      "midi": 60,
      "hit": false,
      "t": 120010.68785416677,
      "d": 528.0168541666644,
      "v": 69
    },
    {
      "midi": 63,
      "hit": false,
      "t": 120010.68785416677,
      "d": 549.5685625000042,
      "v": 73
    },
    {
      "midi": 36,
      "hit": false,
      "t": 120010.68785416677,
      "d": 1584.0505625000078,
      "v": 73
    },
    {
      "midi": 55,
      "hit": false,
      "t": 120527.92885416676,
      "d": 231.6808645833371,
      "v": 21
    },
    {
      "midi": 60,
      "hit": false,
      "t": 121045.16985416677,
      "d": 474.13758333332953,
      "v": 77
    },
    {
      "midi": 63,
      "hit": false,
      "t": 121045.16985416677,
      "d": 495.6892916666693,
      "v": 81
    },
    {
      "midi": 55,
      "hit": false,
      "t": 121562.41085416678,
      "d": 231.68086458332255,
      "v": 46
    },
    {
      "midi": 58,
      "hit": false,
      "t": 122079.65185416678,
      "d": 522.6289270833367,
      "v": 73
    },
    {
      "midi": 63,
      "hit": false,
      "t": 122079.65185416678,
      "d": 522.6289270833367,
      "v": 77
    },
    {
      "midi": 34,
      "hit": false,
      "t": 122079.65185416678,
      "d": 1562.498854166668,
      "v": 73
    },
    {
      "midi": 55,
      "hit": false,
      "t": 122596.89285416678,
      "d": 199.35330208332743,
      "v": 51
    },
    {
      "midi": 58,
      "hit": false,
      "t": 123114.13385416678,
      "d": 484.9134374999994,
      "v": 77
    },
    {
      "midi": 63,
      "hit": false,
      "t": 123114.13385416678,
      "d": 517.2409999999945,
      "v": 81
    },
    {
      "midi": 55,
      "hit": false,
      "t": 123631.37485416677,
      "d": 80.81890625000233,
      "v": 49
    },
    {
      "midi": 60,
      "hit": false,
      "t": 124148.61585416678,
      "d": 436.4220937499922,
      "v": 65
    },
    {
      "midi": 65,
      "hit": false,
      "t": 124148.61585416678,
      "d": 533.4047812499921,
      "v": 69
    },
    {
      "midi": 69,
      "hit": false,
      "t": 124148.61585416678,
      "d": 538.7927083333198,
      "v": 65
    },
    {
      "midi": 41,
      "hit": false,
      "t": 124148.61585416678,
      "d": 1530.1712916666584,
      "v": 77
    },
    {
      "midi": 60,
      "hit": false,
      "t": 124665.85685416678,
      "d": 226.29293749999488,
      "v": 42
    },
    {
      "midi": 65,
      "hit": false,
      "t": 125183.09785416677,
      "d": 495.6892916666693,
      "v": 73
    },
    {
      "midi": 69,
      "hit": false,
      "t": 125183.09785416677,
      "d": 528.016854166679,
      "v": 73
    },
    {
      "midi": 60,
      "hit": false,
      "t": 125700.33885416678,
      "d": 167.02573958333232,
      "v": 46
    },
    {
      "midi": 63,
      "hit": false,
      "t": 126217.57985416678,
      "d": 565.7323437500163,
      "v": 69
    },
    {
      "midi": 69,
      "hit": false,
      "t": 126217.57985416678,
      "d": 565.7323437500163,
      "v": 81
    },
    {
      "midi": 39,
      "hit": false,
      "t": 126217.57985416678,
      "d": 1573.2747083333525,
      "v": 81
    },
    {
      "midi": 60,
      "hit": false,
      "t": 126734.82085416678,
      "d": 156.249885416677,
      "v": 62
    },
    {
      "midi": 69,
      "hit": false,
      "t": 127252.0618541668,
      "d": 571.1202708333294,
      "v": 62
    },
    {
      "midi": 63,
      "hit": false,
      "t": 127252.0618541668,
      "d": 581.8961249999993,
      "v": 65
    },
    {
      "midi": 60,
      "hit": false,
      "t": 127769.30285416679,
      "d": 118.53439583333966,
      "v": 51
    },
    {
      "midi": 57,
      "hit": false,
      "t": 128286.5438541668,
      "d": 328.663552083337,
      "v": 60
    },
    {
      "midi": 62,
      "hit": false,
      "t": 128286.5438541668,
      "d": 463.3617291666742,
      "v": 65
    },
    {
      "midi": 65,
      "hit": false,
      "t": 128286.5438541668,
      "d": 479.52551041667175,
      "v": 73
    },
    {
      "midi": 38,
      "hit": false,
      "t": 128286.5438541668,
      "d": 1530.171291666673,
      "v": 65
    },
    {
      "midi": 57,
      "hit": false,
      "t": 128803.7848541668,
      "d": 140.08610416666488,
      "v": 40
    },
    {
      "midi": 62,
      "hit": false,
      "t": 129321.0258541668,
      "d": 501.077218749997,
      "v": 77
    },
    {
      "midi": 65,
      "hit": false,
      "t": 129321.0258541668,
      "d": 522.6289270833222,
      "v": 73
    },
    {
      "midi": 57,
      "hit": false,
      "t": 129838.2668541668,
      "d": 237.06879166666477,
      "v": 51
    },
    {
      "midi": 60,
      "hit": false,
      "t": 130355.5078541668,
      "d": 490.30136458334164,
      "v": 73
    },
    {
      "midi": 65,
      "hit": false,
      "t": 130355.5078541668,
      "d": 522.6289270833367,
      "v": 77
    },
    {
      "midi": 36,
      "hit": false,
      "t": 130355.5078541668,
      "d": 1659.4815416666825,
      "v": 77
    },
    {
      "midi": 57,
      "hit": false,
      "t": 130872.74885416681,
      "d": 242.45671874999243,
      "v": 60
    },
    {
      "midi": 65,
      "hit": false,
      "t": 131389.9898541668,
      "d": 495.6892916666693,
      "v": 77
    },
    {
      "midi": 60,
      "hit": false,
      "t": 131389.9898541668,
      "d": 522.6289270833367,
      "v": 69
    },
    {
      "midi": 57,
      "hit": false,
      "t": 131907.23085416682,
      "d": 91.59476041665766,
      "v": 46
    },
    {
      "midi": 62,
      "hit": false,
      "t": 132424.47185416683,
      "d": 425.6462395833223,
      "v": 60
    },
    {
      "midi": 65,
      "hit": false,
      "t": 132424.47185416683,
      "d": 565.7323437499872,
      "v": 69
    },
    {
      "midi": 70,
      "hit": false,
      "t": 132424.47185416683,
      "d": 581.8961249999993,
      "v": 62
    },
    {
      "midi": 46,
      "hit": false,
      "t": 132424.47185416683,
      "d": 1573.274708333338,
      "v": 62
    },
    {
      "midi": 62,
      "hit": false,
      "t": 132941.7128541668,
      "d": 161.63781250003376,
      "v": 30
    },
    {
      "midi": 65,
      "hit": false,
      "t": 133458.95385416684,
      "d": 511.8530729166523,
      "v": 73
    },
    {
      "midi": 70,
      "hit": false,
      "t": 133458.95385416684,
      "d": 533.4047812499921,
      "v": 57
    },
    {
      "midi": 62,
      "hit": false,
      "t": 133976.19485416682,
      "d": 129.31025000000955,
      "v": 42
    },
    {
      "midi": 63,
      "hit": false,
      "t": 134493.43585416683,
      "d": 393.3186770833272,
      "v": 62
    },
    {
      "midi": 67,
      "hit": false,
      "t": 134493.43585416683,
      "d": 517.24099999998,
      "v": 73
    },
    {
      "midi": 70,
      "hit": false,
      "t": 134493.43585416683,
      "d": 538.7927083333198,
      "v": 62
    },
    {
      "midi": 39,
      "hit": false,
      "t": 134493.43585416683,
      "d": 1734.9125208332844,
      "v": 47
    },
    {
      "midi": 63,
      "hit": false,
      "t": 135010.6768541668,
      "d": 199.35330208332743,
      "v": 31
    },
    {
      "midi": 63,
      "hit": false,
      "t": 135527.9178541668,
      "d": 328.663552083337,
      "v": 62
    },
    {
      "midi": 67,
      "hit": false,
      "t": 135527.9178541668,
      "d": 474.13758333332953,
      "v": 69
    },
    {
      "midi": 70,
      "hit": false,
      "t": 135527.9178541668,
      "d": 501.077218749997,
      "v": 62
    },
    {
      "midi": 63,
      "hit": false,
      "t": 136045.1588541668,
      "d": 91.59476041665766,
      "v": 21
    },
    {
      "midi": 62,
      "hit": false,
      "t": 136562.39985416678,
      "d": 371.7669687499874,
      "v": 60
    },
    {
      "midi": 65,
      "hit": false,
      "t": 136562.39985416678,
      "d": 506.46514583332464,
      "v": 60
    },
    {
      "midi": 70,
      "hit": false,
      "t": 136562.39985416678,
      "d": 506.46514583332464,
      "v": 51
    },
    {
      "midi": 46,
      "hit": false,
      "t": 136562.39985416678,
      "d": 1562.4988541666535,
      "v": 47
    },
    {
      "midi": 62,
      "hit": false,
      "t": 137079.64085416676,
      "d": 193.96537499999977,
      "v": 30
    },
    {
      "midi": 62,
      "hit": false,
      "t": 137596.88185416677,
      "d": 414.870385416667,
      "v": 60
    },
    {
      "midi": 65,
      "hit": false,
      "t": 137596.88185416677,
      "d": 468.74965625000186,
      "v": 62
    },
    {
      "midi": 70,
      "hit": false,
      "t": 137596.88185416677,
      "d": 468.74965625000186,
      "v": 57
    },
    {
      "midi": 70,
      "hit": false,
      "t": 138631.3638541668,
      "d": 845.9045520833461,
      "v": 62
    },
    {
      "midi": 60,
      "hit": false,
      "t": 138631.3638541668,
      "d": 878.2321145833412,
      "v": 69
    },
    {
      "midi": 65,
      "hit": false,
      "t": 138631.3638541668,
      "d": 889.0079687499965,
      "v": 69
    },
    {
      "midi": 41,
      "hit": false,
      "t": 138631.3638541668,
      "d": 1928.8778958333423,
      "v": 49
    },
    {
      "midi": 60,
      "hit": false,
      "t": 139665.84585416678,
      "d": 851.2924791666737,
      "v": 62
    },
    {
      "midi": 65,
      "hit": false,
      "t": 139665.84585416678,
      "d": 856.6804062500014,
      "v": 65
    },
    {
      "midi": 69,
      "hit": false,
      "t": 139665.84585416678,
      "d": 878.2321145833412,
      "v": 69
    },
    {
      "midi": 58,
      "hit": false,
      "t": 140700.3278541668,
      "d": 382.54282291664276,
      "v": 77
    },
    {
      "midi": 65,
      "hit": false,
      "t": 140700.3278541668,
      "d": 479.5255104166572,
      "v": 77
    },
    {
      "midi": 62,
      "hit": false,
      "t": 140700.3278541668,
      "d": 484.91343749998487,
      "v": 69
    },
    {
      "midi": 46,
      "hit": false,
      "t": 140700.3278541668,
      "d": 1761.852156249981,
      "v": 81
    },
    {
      "midi": 58,
      "hit": false,
      "t": 141217.56885416678,
      "d": 161.63781250000466,
      "v": 46
    },
    {
      "midi": 65,
      "hit": false,
      "t": 141734.8098541668,
      "d": 479.5255104166572,
      "v": 77
    },
    {
      "midi": 62,
      "hit": false,
      "t": 141734.8098541668,
      "d": 495.6892916666693,
      "v": 85
    },
    {
      "midi": 58,
      "hit": false,
      "t": 142252.0508541668,
      "d": 172.41366666666,
      "v": 60
    },
    {
      "midi": 57,
      "hit": false,
      "t": 142769.29185416678,
      "d": 409.4824583333393,
      "v": 69
    },
    {
      "midi": 62,
      "hit": false,
      "t": 142769.29185416678,
      "d": 522.6289270833367,
      "v": 73
    },
    {
      "midi": 65,
      "hit": false,
      "t": 142769.29185416678,
      "d": 522.6289270833367,
      "v": 69
    },
    {
      "midi": 45,
      "hit": false,
      "t": 142769.29185416678,
      "d": 1600.2143437500054,
      "v": 85
    },
    {
      "midi": 57,
      "hit": false,
      "t": 143286.53285416678,
      "d": 150.86195833332022,
      "v": 51
    },
    {
      "midi": 65,
      "hit": false,
      "t": 143803.77385416676,
      "d": 495.6892916666693,
      "v": 69
    },
    {
      "midi": 62,
      "hit": false,
      "t": 143803.77385416676,
      "d": 501.077218749997,
      "v": 77
    },
    {
      "midi": 57,
      "hit": false,
      "t": 144321.01485416677,
      "d": 102.3706145833421,
      "v": 57
    },
    {
      "midi": 55,
      "hit": false,
      "t": 144838.25585416678,
      "d": 371.7669687499874,
      "v": 65
    },
    {
      "midi": 58,
      "hit": false,
      "t": 144838.25585416678,
      "d": 554.9564895833028,
      "v": 81
    },
    {
      "midi": 62,
      "hit": false,
      "t": 144838.25585416678,
      "d": 581.8961249999702,
      "v": 73
    },
    {
      "midi": 43,
      "hit": false,
      "t": 144838.25585416678,
      "d": 1530.1712916666002,
      "v": 65
    },
    {
      "midi": 55,
      "hit": false,
      "t": 145355.49685416676,
      "d": 156.24988541664788,
      "v": 54
    },
    {
      "midi": 62,
      "hit": false,
      "t": 145872.73785416674,
      "d": 452.58587499998976,
      "v": 73
    },
    {
      "midi": 58,
      "hit": false,
      "t": 145872.73785416674,
      "d": 484.91343749998487,
      "v": 77
    },
    {
      "midi": 55,
      "hit": false,
      "t": 146389.97885416672,
      "d": 118.5343958333251,
      "v": 54
    },
    {
      "midi": 53,
      "hit": false,
      "t": 146907.2198541667,
      "d": 377.1548958333442,
      "v": 65
    },
    {
      "midi": 58,
      "hit": false,
      "t": 146907.2198541667,
      "d": 495.6892916666693,
      "v": 73
    },
    {
      "midi": 62,
      "hit": false,
      "t": 146907.2198541667,
      "d": 501.077218749997,
      "v": 77
    },
    {
      "midi": 41,
      "hit": false,
      "t": 146907.2198541667,
      "d": 1627.1539791666728,
      "v": 69
    },
    {
      "midi": 53,
      "hit": false,
      "t": 147424.4608541667,
      "d": 123.92232291665277,
      "v": 57
    },
    {
      "midi": 58,
      "hit": false,
      "t": 147941.7018541667,
      "d": 441.8100208333344,
      "v": 85
    },
    {
      "midi": 62,
      "hit": false,
      "t": 147941.7018541667,
      "d": 457.9738020833465,
      "v": 81
    },
    {
      "midi": 53,
      "hit": false,
      "t": 148458.9428541667,
      "d": 75.43097916667466,
      "v": 51
    },
    {
      "midi": 58,
      "hit": false,
      "t": 148976.1838541667,
      "d": 441.8100208333344,
      "v": 69
    },
    {
      "midi": 67,
      "hit": false,
      "t": 148976.1838541667,
      "d": 544.1806354166765,
      "v": 69
    },
    {
      "midi": 63,
      "hit": false,
      "t": 148976.1838541667,
      "d": 554.9564895833319,
      "v": 77
    },
    {
      "midi": 39,
      "hit": false,
      "t": 148976.1838541667,
      "d": 1648.7056875000126,
      "v": 73
    },
    {
      "midi": 58,
      "hit": false,
      "t": 149493.42485416672,
      "d": 177.80159374998766,
      "v": 44
    },
    {
      "midi": 63,
      "hit": false,
      "t": 150010.6658541667,
      "d": 447.1979479166621,
      "v": 69
    },
    {
      "midi": 67,
      "hit": false,
      "t": 150010.6658541667,
      "d": 501.077218749997,
      "v": 69
    },
    {
      "midi": 58,
      "hit": false,
      "t": 150527.9068541667,
      "d": 199.35330208335654,
      "v": 57
    },
    {
      "midi": 67,
      "hit": false,
      "t": 151045.14785416672,
      "d": 522.6289270833076,
      "v": 69
    },
    {
      "midi": 62,
      "hit": false,
      "t": 151045.14785416672,
      "d": 538.7927083333198,
      "v": 77
    },
    {
      "midi": 38,
      "hit": false,
      "t": 151045.14785416672,
      "d": 1540.9471458333137,
      "v": 69
    },
    {
      "midi": 58,
      "hit": false,
      "t": 151562.3888541667,
      "d": 247.84464583333465,
      "v": 60
    },
    {
      "midi": 67,
      "hit": false,
      "t": 152079.6298541667,
      "d": 501.077218749997,
      "v": 62
    },
    {
      "midi": 62,
      "hit": false,
      "t": 152079.6298541667,
      "d": 517.24099999998,
      "v": 77
    },
    {
      "midi": 58,
      "hit": false,
      "t": 152596.8708541667,
      "d": 70.04305208334699,
      "v": 62
    },
    {
      "midi": 55,
      "hit": false,
      "t": 153114.1118541667,
      "d": 366.37904166665976,
      "v": 51
    },
    {
      "midi": 60,
      "hit": false,
      "t": 153114.1118541667,
      "d": 528.0168541666353,
      "v": 69
    },
    {
      "midi": 63,
      "hit": false,
      "t": 153114.1118541667,
      "d": 549.5685624999751,
      "v": 73
    },
    {
      "midi": 36,
      "hit": false,
      "t": 153114.1118541667,
      "d": 1584.0505624999641,
      "v": 73
    },
    {
      "midi": 55,
      "hit": false,
      "t": 153631.35285416667,
      "d": 231.68086458332255,
      "v": 21
    },
    {
      "midi": 60,
      "hit": false,
      "t": 154148.59385416665,
      "d": 474.13758333332953,
      "v": 77
    },
    {
      "midi": 63,
      "hit": false,
      "t": 154148.59385416665,
      "d": 495.6892916666693,
      "v": 81
    },
    {
      "midi": 55,
      "hit": false,
      "t": 154665.83485416666,
      "d": 231.68086458332255,
      "v": 46
    },
    {
      "midi": 58,
      "hit": false,
      "t": 155183.07585416664,
      "d": 522.6289270833367,
      "v": 73
    },
    {
      "midi": 63,
      "hit": false,
      "t": 155183.07585416664,
      "d": 522.6289270833367,
      "v": 77
    },
    {
      "midi": 34,
      "hit": false,
      "t": 155183.07585416664,
      "d": 1562.4988541666535,
      "v": 73
    },
    {
      "midi": 55,
      "hit": false,
      "t": 155700.31685416665,
      "d": 199.35330208332743,
      "v": 51
    },
    {
      "midi": 58,
      "hit": false,
      "t": 156217.55785416663,
      "d": 484.91343750001397,
      "v": 77
    },
    {
      "midi": 63,
      "hit": false,
      "t": 156217.55785416663,
      "d": 517.2410000000091,
      "v": 81
    },
    {
      "midi": 55,
      "hit": false,
      "t": 156734.79885416664,
      "d": 80.81890625000233,
      "v": 49
    },
    {
      "midi": 60,
      "hit": false,
      "t": 157252.03985416665,
      "d": 436.42209374997765,
      "v": 65
    },
    {
      "midi": 65,
      "hit": false,
      "t": 157252.03985416665,
      "d": 533.4047812499921,
      "v": 69
    },
    {
      "midi": 69,
      "hit": false,
      "t": 157252.03985416665,
      "d": 538.7927083333198,
      "v": 65
    },
    {
      "midi": 41,
      "hit": false,
      "t": 157252.03985416665,
      "d": 1530.1712916666584,
      "v": 77
    },
    {
      "midi": 60,
      "hit": false,
      "t": 157769.28085416663,
      "d": 226.29293749999488,
      "v": 42
    },
    {
      "midi": 65,
      "hit": false,
      "t": 158286.52185416664,
      "d": 495.6892916666693,
      "v": 73
    },
    {
      "midi": 69,
      "hit": false,
      "t": 158286.52185416664,
      "d": 528.0168541666644,
      "v": 73
    },
    {
      "midi": 60,
      "hit": false,
      "t": 158803.76285416665,
      "d": 167.02573958333232,
      "v": 46
    },
    {
      "midi": 63,
      "hit": false,
      "t": 159321.00385416666,
      "d": 565.7323437499872,
      "v": 69
    },
    {
      "midi": 69,
      "hit": false,
      "t": 159321.00385416666,
      "d": 565.7323437499872,
      "v": 81
    },
    {
      "midi": 39,
      "hit": false,
      "t": 159321.00385416666,
      "d": 1573.274708333338,
      "v": 81
    },
    {
      "midi": 60,
      "hit": false,
      "t": 159838.24485416664,
      "d": 156.249885416677,
      "v": 62
    },
    {
      "midi": 69,
      "hit": false,
      "t": 160355.48585416665,
      "d": 571.120270833344,
      "v": 62
    },
    {
      "midi": 63,
      "hit": false,
      "t": 160355.48585416665,
      "d": 581.8961249999993,
      "v": 65
    },
    {
      "midi": 60,
      "hit": false,
      "t": 160872.72685416666,
      "d": 118.5343958333251,
      "v": 51
    },
    {
      "midi": 57,
      "hit": false,
      "t": 161389.96785416664,
      "d": 328.663552083337,
      "v": 60
    },
    {
      "midi": 62,
      "hit": false,
      "t": 161389.96785416664,
      "d": 463.3617291666742,
      "v": 65
    },
    {
      "midi": 65,
      "hit": false,
      "t": 161389.96785416664,
      "d": 479.5255104166863,
      "v": 73
    },
    {
      "midi": 38,
      "hit": false,
      "t": 161389.96785416664,
      "d": 1530.1712916666875,
      "v": 65
    },
    {
      "midi": 57,
      "hit": false,
      "t": 161907.20885416665,
      "d": 140.08610416666488,
      "v": 40
    },
    {
      "midi": 62,
      "hit": false,
      "t": 162424.44985416665,
      "d": 501.077218749997,
      "v": 77
    },
    {
      "midi": 65,
      "hit": false,
      "t": 162424.44985416665,
      "d": 522.6289270833367,
      "v": 73
    },
    {
      "midi": 57,
      "hit": false,
      "t": 162941.69085416666,
      "d": 237.0687916666502,
      "v": 51
    },
    {
      "midi": 60,
      "hit": false,
      "t": 163458.93185416664,
      "d": 490.30136458334164,
      "v": 73
    },
    {
      "midi": 65,
      "hit": false,
      "t": 163458.93185416664,
      "d": 522.6289270833367,
      "v": 77
    },
    {
      "midi": 36,
      "hit": false,
      "t": 163458.93185416664,
      "d": 1659.481541666697,
      "v": 77
    },
    {
      "midi": 57,
      "hit": false,
      "t": 163976.17285416665,
      "d": 242.45671875000698,
      "v": 60
    },
    {
      "midi": 65,
      "hit": false,
      "t": 164493.41385416666,
      "d": 495.6892916666693,
      "v": 77
    },
    {
      "midi": 60,
      "hit": false,
      "t": 164493.41385416666,
      "d": 522.6289270833367,
      "v": 69
    },
    {
      "midi": 57,
      "hit": false,
      "t": 165010.65485416667,
      "d": 91.59476041665766,
      "v": 46
    },
    {
      "midi": 58,
      "hit": false,
      "t": 165527.89585416668,
      "d": 312.4997708333249,
      "v": 62
    },
    {
      "midi": 62,
      "hit": false,
      "t": 165527.89585416668,
      "d": 452.58587499998976,
      "v": 81
    },
    {
      "midi": 65,
      "hit": false,
      "t": 165527.89585416668,
      "d": 484.91343749998487,
      "v": 77
    },
    {
      "midi": 34,
      "hit": false,
      "t": 165527.89585416668,
      "d": 1460.1282395832823,
      "v": 81
    },
    {
      "midi": 58,
      "hit": false,
      "t": 166045.13685416666,
      "d": 145.47403124999255,
      "v": 49
    },
    {
      "midi": 62,
      "hit": false,
      "t": 166562.37785416664,
      "d": 457.9738020833174,
      "v": 77
    },
    {
      "midi": 65,
      "hit": false,
      "t": 166562.37785416664,
      "d": 468.74965624997276,
      "v": 77
    },
    {
      "midi": 58,
      "hit": false,
      "t": 167079.61885416662,
      "d": 161.63781250000466,
      "v": 51
    },
    {
      "midi": 63,
      "hit": false,
      "t": 167596.85985416663,
      "d": 501.077218749997,
      "v": 69
    },
    {
      "midi": 67,
      "hit": false,
      "t": 167596.85985416663,
      "d": 522.6289270833367,
      "v": 85
    },
    {
      "midi": 39,
      "hit": false,
      "t": 167596.85985416663,
      "d": 1465.5161666666681,
      "v": 65
    },
    {
      "midi": 58,
      "hit": false,
      "t": 168114.10085416664,
      "d": 247.84464583333465,
      "v": 60
    },
    {
      "midi": 63,
      "hit": false,
      "t": 168631.34185416665,
      "d": 420.25831249999464,
      "v": 65
    },
    {
      "midi": 67,
      "hit": false,
      "t": 168631.34185416665,
      "d": 452.58587499998976,
      "v": 89
    },
    {
      "midi": 58,
      "hit": false,
      "t": 169148.58285416663,
      "d": 123.92232291665277,
      "v": 49
    },
    {
      "midi": 60,
      "hit": false,
      "t": 169665.8238541666,
      "d": 371.7669687499874,
      "v": 69
    },
    {
      "midi": 65,
      "hit": false,
      "t": 169665.8238541666,
      "d": 490.30136458331253,
      "v": 73
    },
    {
      "midi": 69,
      "hit": false,
      "t": 169665.8238541666,
      "d": 501.07721874996787,
      "v": 77
    },
    {
      "midi": 41,
      "hit": false,
      "t": 169665.8238541666,
      "d": 1546.3350729166414,
      "v": 85
    },
    {
      "midi": 60,
      "hit": false,
      "t": 170183.0648541666,
      "d": 210.12915625001187,
      "v": 47
    },
    {
      "midi": 65,
      "hit": false,
      "t": 170700.3058541666,
      "d": 479.5255104166572,
      "v": 69
    },
    {
      "midi": 69,
      "hit": false,
      "t": 170700.3058541666,
      "d": 479.5255104166572,
      "v": 81
    },
    {
      "midi": 60,
      "hit": false,
      "t": 171217.54685416658,
      "d": 204.7412291666551,
      "v": 46
    },
    {
      "midi": 60,
      "hit": false,
      "t": 171734.78785416656,
      "d": 350.21526041664765,
      "v": 69
    },
    {
      "midi": 63,
      "hit": false,
      "t": 171734.78785416656,
      "d": 468.74965624997276,
      "v": 77
    },
    {
      "midi": 69,
      "hit": false,
      "t": 171734.78785416656,
      "d": 501.07721874996787,
      "v": 81
    },
    {
      "midi": 41,
      "hit": false,
      "t": 171734.78785416656,
      "d": 1988.1450937499758,
      "v": 77
    },
    {
      "midi": 60,
      "hit": false,
      "t": 172252.02885416654,
      "d": 156.249885416677,
      "v": 47
    },
    {
      "midi": 63,
      "hit": false,
      "t": 172769.26985416654,
      "d": 479.5255104166572,
      "v": 73
    },
    {
      "midi": 69,
      "hit": false,
      "t": 172769.26985416654,
      "d": 490.30136458331253,
      "v": 77
    },
    {
      "midi": 29,
      "hit": false,
      "t": 172769.26985416654,
      "d": 996.7665104166663,
      "v": 77
    },
    {
      "midi": 60,
      "hit": false,
      "t": 173286.51085416652,
      "d": 226.29293749999488,
      "v": 60
    },
    {
      "midi": 58,
      "hit": false,
      "t": 173803.75185416653,
      "d": 382.54282291664276,
      "v": 77
    },
    {
      "midi": 65,
      "hit": false,
      "t": 173803.75185416653,
      "d": 479.5255104166572,
      "v": 77
    },
    {
      "midi": 62,
      "hit": false,
      "t": 173803.75185416653,
      "d": 484.91343749998487,
      "v": 69
    },
    {
      "midi": 46,
      "hit": false,
      "t": 173803.75185416653,
      "d": 1761.852156249981,
      "v": 81
    },
    {
      "midi": 58,
      "hit": false,
      "t": 174320.9928541665,
      "d": 161.63781250000466,
      "v": 46
    },
    {
      "midi": 65,
      "hit": false,
      "t": 174838.23385416652,
      "d": 479.5255104166572,
      "v": 77
    },
    {
      "midi": 62,
      "hit": false,
      "t": 174838.23385416652,
      "d": 495.6892916666693,
      "v": 85
    },
    {
      "midi": 58,
      "hit": false,
      "t": 175355.47485416653,
      "d": 172.41366666666,
      "v": 60
    },
    {
      "midi": 57,
      "hit": false,
      "t": 175872.7158541665,
      "d": 409.4824583333393,
      "v": 69
    },
    {
      "midi": 62,
      "hit": false,
      "t": 175872.7158541665,
      "d": 522.6289270833367,
      "v": 73
    },
    {
      "midi": 65,
      "hit": false,
      "t": 175872.7158541665,
      "d": 522.6289270833367,
      "v": 69
    },
    {
      "midi": 45,
      "hit": false,
      "t": 175872.7158541665,
      "d": 1600.2143437500054,
      "v": 85
    },
    {
      "midi": 57,
      "hit": false,
      "t": 176389.95685416652,
      "d": 150.86195833332022,
      "v": 51
    },
    {
      "midi": 65,
      "hit": false,
      "t": 176907.1978541665,
      "d": 495.6892916666693,
      "v": 69
    },
    {
      "midi": 62,
      "hit": false,
      "t": 176907.1978541665,
      "d": 501.077218749997,
      "v": 77
    },
    {
      "midi": 57,
      "hit": false,
      "t": 177424.4388541665,
      "d": 102.3706145833421,
      "v": 57
    },
    {
      "midi": 55,
      "hit": false,
      "t": 177941.67985416652,
      "d": 371.7669687499874,
      "v": 65
    },
    {
      "midi": 58,
      "hit": false,
      "t": 177941.67985416652,
      "d": 554.9564895833028,
      "v": 81
    },
    {
      "midi": 62,
      "hit": false,
      "t": 177941.67985416652,
      "d": 581.8961249999702,
      "v": 73
    },
    {
      "midi": 43,
      "hit": false,
      "t": 177941.67985416652,
      "d": 1530.1712916666002,
      "v": 65
    },
    {
      "midi": 55,
      "hit": false,
      "t": 178458.9208541665,
      "d": 156.24988541664788,
      "v": 54
    },
    {
      "midi": 62,
      "hit": false,
      "t": 178976.16185416648,
      "d": 452.58587499998976,
      "v": 73
    },
    {
      "midi": 58,
      "hit": false,
      "t": 178976.16185416648,
      "d": 484.91343749998487,
      "v": 77
    },
    {
      "midi": 55,
      "hit": false,
      "t": 179493.40285416646,
      "d": 118.5343958333251,
      "v": 54
    },
    {
      "midi": 53,
      "hit": false,
      "t": 180010.64385416644,
      "d": 377.1548958333442,
      "v": 65
    },
    {
      "midi": 58,
      "hit": false,
      "t": 180010.64385416644,
      "d": 495.6892916666693,
      "v": 73
    },
    {
      "midi": 62,
      "hit": false,
      "t": 180010.64385416644,
      "d": 501.077218749997,
      "v": 77
    },
    {
      "midi": 41,
      "hit": false,
      "t": 180010.64385416644,
      "d": 1627.1539791666728,
      "v": 69
    },
    {
      "midi": 53,
      "hit": false,
      "t": 180527.88485416645,
      "d": 123.92232291665277,
      "v": 57
    },
    {
      "midi": 58,
      "hit": false,
      "t": 181045.12585416643,
      "d": 441.8100208333344,
      "v": 85
    },
    {
      "midi": 62,
      "hit": false,
      "t": 181045.12585416643,
      "d": 457.9738020833465,
      "v": 81
    },
    {
      "midi": 53,
      "hit": false,
      "t": 181562.36685416644,
      "d": 75.43097916667466,
      "v": 51
    },
    {
      "midi": 58,
      "hit": false,
      "t": 182079.60785416645,
      "d": 441.8100208333344,
      "v": 69
    },
    {
      "midi": 67,
      "hit": false,
      "t": 182079.60785416645,
      "d": 544.1806354166765,
      "v": 69
    },
    {
      "midi": 63,
      "hit": false,
      "t": 182079.60785416645,
      "d": 554.9564895833319,
      "v": 77
    },
    {
      "midi": 39,
      "hit": false,
      "t": 182079.60785416645,
      "d": 1648.7056875000126,
      "v": 73
    },
    {
      "midi": 58,
      "hit": false,
      "t": 182596.84885416646,
      "d": 177.80159374998766,
      "v": 44
    },
    {
      "midi": 63,
      "hit": false,
      "t": 183114.08985416644,
      "d": 447.1979479166621,
      "v": 69
    },
    {
      "midi": 67,
      "hit": false,
      "t": 183114.08985416644,
      "d": 501.077218749997,
      "v": 69
    },
    {
      "midi": 58,
      "hit": false,
      "t": 183631.33085416644,
      "d": 199.35330208335654,
      "v": 57
    },
    {
      "midi": 67,
      "hit": false,
      "t": 184148.57185416645,
      "d": 522.6289270833076,
      "v": 69
    },
    {
      "midi": 62,
      "hit": false,
      "t": 184148.57185416645,
      "d": 538.7927083333198,
      "v": 77
    },
    {
      "midi": 38,
      "hit": false,
      "t": 184148.57185416645,
      "d": 1540.9471458333137,
      "v": 69
    },
    {
      "midi": 58,
      "hit": false,
      "t": 184665.81285416643,
      "d": 247.84464583333465,
      "v": 60
    },
    {
      "midi": 67,
      "hit": false,
      "t": 185183.05385416644,
      "d": 501.077218749997,
      "v": 62
    },
    {
      "midi": 62,
      "hit": false,
      "t": 185183.05385416644,
      "d": 517.24099999998,
      "v": 77
    },
    {
      "midi": 58,
      "hit": false,
      "t": 185700.29485416642,
      "d": 70.04305208334699,
      "v": 62
    },
    {
      "midi": 55,
      "hit": false,
      "t": 186217.53585416643,
      "d": 366.37904166665976,
      "v": 51
    },
    {
      "midi": 60,
      "hit": false,
      "t": 186217.53585416643,
      "d": 528.0168541666353,
      "v": 69
    },
    {
      "midi": 63,
      "hit": false,
      "t": 186217.53585416643,
      "d": 549.5685624999751,
      "v": 73
    },
    {
      "midi": 36,
      "hit": false,
      "t": 186217.53585416643,
      "d": 1584.0505624999641,
      "v": 73
    },
    {
      "midi": 55,
      "hit": false,
      "t": 186734.7768541664,
      "d": 231.68086458332255,
      "v": 21
    },
    {
      "midi": 60,
      "hit": false,
      "t": 187252.0178541664,
      "d": 474.13758333332953,
      "v": 77
    },
    {
      "midi": 63,
      "hit": false,
      "t": 187252.0178541664,
      "d": 495.6892916666693,
      "v": 81
    },
    {
      "midi": 55,
      "hit": false,
      "t": 187769.2588541664,
      "d": 231.68086458332255,
      "v": 46
    },
    {
      "midi": 58,
      "hit": false,
      "t": 188286.49985416638,
      "d": 522.6289270833367,
      "v": 73
    },
    {
      "midi": 63,
      "hit": false,
      "t": 188286.49985416638,
      "d": 522.6289270833367,
      "v": 77
    },
    {
      "midi": 34,
      "hit": false,
      "t": 188286.49985416638,
      "d": 1562.4988541666535,
      "v": 73
    },
    {
      "midi": 55,
      "hit": false,
      "t": 188803.7408541664,
      "d": 199.35330208332743,
      "v": 51
    },
    {
      "midi": 58,
      "hit": false,
      "t": 189320.98185416637,
      "d": 484.91343750001397,
      "v": 77
    },
    {
      "midi": 63,
      "hit": false,
      "t": 189320.98185416637,
      "d": 517.2410000000091,
      "v": 81
    },
    {
      "midi": 55,
      "hit": false,
      "t": 189838.22285416638,
      "d": 80.81890625000233,
      "v": 49
    },
    {
      "midi": 60,
      "hit": false,
      "t": 190355.4638541664,
      "d": 436.42209374997765,
      "v": 65
    },
    {
      "midi": 65,
      "hit": false,
      "t": 190355.4638541664,
      "d": 533.4047812499921,
      "v": 69
    },
    {
      "midi": 69,
      "hit": false,
      "t": 190355.4638541664,
      "d": 538.7927083333198,
      "v": 65
    },
    {
      "midi": 41,
      "hit": false,
      "t": 190355.4638541664,
      "d": 1530.1712916666584,
      "v": 77
    },
    {
      "midi": 60,
      "hit": false,
      "t": 190872.70485416637,
      "d": 226.29293749999488,
      "v": 42
    },
    {
      "midi": 65,
      "hit": false,
      "t": 191389.94585416638,
      "d": 495.6892916666693,
      "v": 73
    },
    {
      "midi": 69,
      "hit": false,
      "t": 191389.94585416638,
      "d": 528.0168541666644,
      "v": 73
    },
    {
      "midi": 60,
      "hit": false,
      "t": 191907.1868541664,
      "d": 167.02573958333232,
      "v": 46
    },
    {
      "midi": 63,
      "hit": false,
      "t": 192424.4278541664,
      "d": 565.7323437499872,
      "v": 69
    },
    {
      "midi": 69,
      "hit": false,
      "t": 192424.4278541664,
      "d": 565.7323437499872,
      "v": 81
    },
    {
      "midi": 39,
      "hit": false,
      "t": 192424.4278541664,
      "d": 1573.274708333338,
      "v": 81
    },
    {
      "midi": 60,
      "hit": false,
      "t": 192941.66885416638,
      "d": 156.249885416677,
      "v": 62
    },
    {
      "midi": 69,
      "hit": false,
      "t": 193458.90985416638,
      "d": 571.120270833344,
      "v": 62
    },
    {
      "midi": 63,
      "hit": false,
      "t": 193458.90985416638,
      "d": 581.8961249999993,
      "v": 65
    },
    {
      "midi": 60,
      "hit": false,
      "t": 193976.1508541664,
      "d": 118.5343958333251,
      "v": 51
    },
    {
      "midi": 57,
      "hit": false,
      "t": 194493.39185416637,
      "d": 328.663552083337,
      "v": 60
    },
    {
      "midi": 62,
      "hit": false,
      "t": 194493.39185416637,
      "d": 463.3617291666742,
      "v": 65
    },
    {
      "midi": 65,
      "hit": false,
      "t": 194493.39185416637,
      "d": 479.5255104166863,
      "v": 73
    },
    {
      "midi": 38,
      "hit": false,
      "t": 194493.39185416637,
      "d": 1530.1712916666875,
      "v": 65
    },
    {
      "midi": 57,
      "hit": false,
      "t": 195010.63285416638,
      "d": 140.08610416666488,
      "v": 40
    },
    {
      "midi": 62,
      "hit": false,
      "t": 195527.8738541664,
      "d": 501.077218749997,
      "v": 77
    },
    {
      "midi": 65,
      "hit": false,
      "t": 195527.8738541664,
      "d": 522.6289270833367,
      "v": 73
    },
    {
      "midi": 57,
      "hit": false,
      "t": 196045.1148541664,
      "d": 237.0687916666502,
      "v": 51
    },
    {
      "midi": 60,
      "hit": false,
      "t": 196562.35585416638,
      "d": 490.30136458334164,
      "v": 73
    },
    {
      "midi": 65,
      "hit": false,
      "t": 196562.35585416638,
      "d": 522.6289270833367,
      "v": 77
    },
    {
      "midi": 36,
      "hit": false,
      "t": 196562.35585416638,
      "d": 1659.481541666697,
      "v": 77
    },
    {
      "midi": 57,
      "hit": false,
      "t": 197079.5968541664,
      "d": 242.45671875000698,
      "v": 60
    },
    {
      "midi": 65,
      "hit": false,
      "t": 197596.8378541664,
      "d": 495.6892916666693,
      "v": 77
    },
    {
      "midi": 60,
      "hit": false,
      "t": 197596.8378541664,
      "d": 522.6289270833367,
      "v": 69
    },
    {
      "midi": 57,
      "hit": false,
      "t": 198114.0788541664,
      "d": 91.59476041665766,
      "v": 46
    },
    {
      "midi": 58,
      "hit": false,
      "t": 198631.31985416642,
      "d": 382.54282291664276,
      "v": 77
    },
    {
      "midi": 65,
      "hit": false,
      "t": 198631.31985416642,
      "d": 479.5255104166572,
      "v": 77
    },
    {
      "midi": 62,
      "hit": false,
      "t": 198631.31985416642,
      "d": 484.91343749998487,
      "v": 69
    },
    {
      "midi": 46,
      "hit": false,
      "t": 198631.31985416642,
      "d": 1761.852156249981,
      "v": 81
    },
    {
      "midi": 58,
      "hit": false,
      "t": 199148.5608541664,
      "d": 161.63781250000466,
      "v": 46
    },
    {
      "midi": 65,
      "hit": false,
      "t": 199665.8018541664,
      "d": 479.5255104166572,
      "v": 77
    },
    {
      "midi": 62,
      "hit": false,
      "t": 199665.8018541664,
      "d": 495.6892916666693,
      "v": 85
    },
    {
      "midi": 58,
      "hit": false,
      "t": 200183.04285416642,
      "d": 172.41366666666,
      "v": 60
    },
    {
      "midi": 57,
      "hit": false,
      "t": 200700.2838541664,
      "d": 409.4824583333393,
      "v": 69
    },
    {
      "midi": 62,
      "hit": false,
      "t": 200700.2838541664,
      "d": 522.6289270833367,
      "v": 73
    },
    {
      "midi": 65,
      "hit": false,
      "t": 200700.2838541664,
      "d": 522.6289270833367,
      "v": 69
    },
    {
      "midi": 45,
      "hit": false,
      "t": 200700.2838541664,
      "d": 1600.2143437500054,
      "v": 85
    },
    {
      "midi": 57,
      "hit": false,
      "t": 201217.5248541664,
      "d": 150.86195833332022,
      "v": 51
    },
    {
      "midi": 65,
      "hit": false,
      "t": 201734.76585416638,
      "d": 495.6892916666693,
      "v": 69
    },
    {
      "midi": 62,
      "hit": false,
      "t": 201734.76585416638,
      "d": 501.077218749997,
      "v": 77
    },
    {
      "midi": 57,
      "hit": false,
      "t": 202252.0068541664,
      "d": 102.3706145833421,
      "v": 57
    },
    {
      "midi": 55,
      "hit": false,
      "t": 202769.2478541664,
      "d": 371.7669687499874,
      "v": 65
    },
    {
      "midi": 58,
      "hit": false,
      "t": 202769.2478541664,
      "d": 554.9564895833028,
      "v": 81
    },
    {
      "midi": 62,
      "hit": false,
      "t": 202769.2478541664,
      "d": 581.8961249999702,
      "v": 73
    },
    {
      "midi": 43,
      "hit": false,
      "t": 202769.2478541664,
      "d": 1530.1712916666002,
      "v": 65
    },
    {
      "midi": 55,
      "hit": false,
      "t": 203286.48885416638,
      "d": 156.24988541664788,
      "v": 54
    },
    {
      "midi": 62,
      "hit": false,
      "t": 203803.72985416636,
      "d": 452.58587499998976,
      "v": 73
    },
    {
      "midi": 58,
      "hit": false,
      "t": 203803.72985416636,
      "d": 484.91343749998487,
      "v": 77
    },
    {
      "midi": 55,
      "hit": false,
      "t": 204320.97085416634,
      "d": 118.5343958333251,
      "v": 54
    },
    {
      "midi": 53,
      "hit": false,
      "t": 204838.21185416632,
      "d": 377.1548958333442,
      "v": 65
    },
    {
      "midi": 58,
      "hit": false,
      "t": 204838.21185416632,
      "d": 495.6892916666693,
      "v": 73
    },
    {
      "midi": 62,
      "hit": false,
      "t": 204838.21185416632,
      "d": 501.077218749997,
      "v": 77
    },
    {
      "midi": 41,
      "hit": false,
      "t": 204838.21185416632,
      "d": 1627.1539791666728,
      "v": 69
    },
    {
      "midi": 53,
      "hit": false,
      "t": 205355.45285416633,
      "d": 123.92232291665277,
      "v": 57
    },
    {
      "midi": 58,
      "hit": false,
      "t": 205872.6938541663,
      "d": 441.8100208333344,
      "v": 85
    },
    {
      "midi": 62,
      "hit": false,
      "t": 205872.6938541663,
      "d": 457.9738020833465,
      "v": 81
    },
    {
      "midi": 53,
      "hit": false,
      "t": 206389.93485416632,
      "d": 75.43097916667466,
      "v": 51
    },
    {
      "midi": 58,
      "hit": false,
      "t": 206907.17585416633,
      "d": 441.8100208333344,
      "v": 69
    },
    {
      "midi": 67,
      "hit": false,
      "t": 206907.17585416633,
      "d": 544.1806354166765,
      "v": 69
    },
    {
      "midi": 63,
      "hit": false,
      "t": 206907.17585416633,
      "d": 554.9564895833319,
      "v": 77
    },
    {
      "midi": 39,
      "hit": false,
      "t": 206907.17585416633,
      "d": 1648.7056875000126,
      "v": 73
    },
    {
      "midi": 58,
      "hit": false,
      "t": 207424.41685416634,
      "d": 177.80159374998766,
      "v": 44
    },
    {
      "midi": 63,
      "hit": false,
      "t": 207941.65785416632,
      "d": 447.1979479166621,
      "v": 69
    },
    {
      "midi": 67,
      "hit": false,
      "t": 207941.65785416632,
      "d": 501.077218749997,
      "v": 69
    },
    {
      "midi": 58,
      "hit": false,
      "t": 208458.89885416633,
      "d": 199.35330208335654,
      "v": 57
    },
    {
      "midi": 67,
      "hit": false,
      "t": 208976.13985416634,
      "d": 522.6289270833076,
      "v": 69
    },
    {
      "midi": 62,
      "hit": false,
      "t": 208976.13985416634,
      "d": 538.7927083333198,
      "v": 77
    },
    {
      "midi": 38,
      "hit": false,
      "t": 208976.13985416634,
      "d": 1540.9471458333137,
      "v": 69
    },
    {
      "midi": 58,
      "hit": false,
      "t": 209493.38085416632,
      "d": 247.84464583333465,
      "v": 60
    },
    {
      "midi": 67,
      "hit": false,
      "t": 210010.62185416633,
      "d": 501.077218749997,
      "v": 62
    },
    {
      "midi": 62,
      "hit": false,
      "t": 210010.62185416633,
      "d": 517.24099999998,
      "v": 77
    },
    {
      "midi": 58,
      "hit": false,
      "t": 210527.8628541663,
      "d": 70.04305208334699,
      "v": 62
    },
    {
      "midi": 55,
      "hit": false,
      "t": 211045.10385416631,
      "d": 366.37904166665976,
      "v": 51
    },
    {
      "midi": 60,
      "hit": false,
      "t": 211045.10385416631,
      "d": 528.0168541666353,
      "v": 69
    },
    {
      "midi": 63,
      "hit": false,
      "t": 211045.10385416631,
      "d": 549.5685624999751,
      "v": 73
    },
    {
      "midi": 36,
      "hit": false,
      "t": 211045.10385416631,
      "d": 1584.0505624999641,
      "v": 73
    },
    {
      "midi": 55,
      "hit": false,
      "t": 211562.3448541663,
      "d": 231.68086458332255,
      "v": 21
    },
    {
      "midi": 60,
      "hit": false,
      "t": 212079.58585416627,
      "d": 474.13758333332953,
      "v": 77
    },
    {
      "midi": 63,
      "hit": false,
      "t": 212079.58585416627,
      "d": 495.6892916666693,
      "v": 81
    },
    {
      "midi": 55,
      "hit": false,
      "t": 212596.82685416628,
      "d": 231.68086458332255,
      "v": 46
    },
    {
      "midi": 58,
      "hit": false,
      "t": 213114.06785416626,
      "d": 522.6289270833367,
      "v": 73
    },
    {
      "midi": 63,
      "hit": false,
      "t": 213114.06785416626,
      "d": 522.6289270833367,
      "v": 77
    },
    {
      "midi": 34,
      "hit": false,
      "t": 213114.06785416626,
      "d": 1562.4988541666535,
      "v": 73
    },
    {
      "midi": 55,
      "hit": false,
      "t": 213631.30885416627,
      "d": 199.35330208332743,
      "v": 51
    },
    {
      "midi": 58,
      "hit": false,
      "t": 214148.54985416625,
      "d": 484.91343750001397,
      "v": 77
    },
    {
      "midi": 63,
      "hit": false,
      "t": 214148.54985416625,
      "d": 517.2410000000091,
      "v": 81
    },
    {
      "midi": 55,
      "hit": false,
      "t": 214665.79085416626,
      "d": 80.81890625000233,
      "v": 49
    },
    {
      "midi": 60,
      "hit": false,
      "t": 215183.03185416627,
      "d": 436.42209374997765,
      "v": 65
    },
    {
      "midi": 65,
      "hit": false,
      "t": 215183.03185416627,
      "d": 533.4047812499921,
      "v": 69
    },
    {
      "midi": 69,
      "hit": false,
      "t": 215183.03185416627,
      "d": 538.7927083333198,
      "v": 65
    },
    {
      "midi": 41,
      "hit": false,
      "t": 215183.03185416627,
      "d": 1530.1712916666584,
      "v": 77
    },
    {
      "midi": 60,
      "hit": false,
      "t": 215700.27285416625,
      "d": 226.29293749999488,
      "v": 42
    },
    {
      "midi": 65,
      "hit": false,
      "t": 216217.51385416626,
      "d": 495.6892916666693,
      "v": 73
    },
    {
      "midi": 69,
      "hit": false,
      "t": 216217.51385416626,
      "d": 528.0168541666644,
      "v": 73
    },
    {
      "midi": 60,
      "hit": false,
      "t": 216734.75485416627,
      "d": 167.02573958333232,
      "v": 46
    },
    {
      "midi": 63,
      "hit": false,
      "t": 217251.99585416628,
      "d": 565.7323437499872,
      "v": 69
    },
    {
      "midi": 69,
      "hit": false,
      "t": 217251.99585416628,
      "d": 565.7323437499872,
      "v": 81
    },
    {
      "midi": 39,
      "hit": false,
      "t": 217251.99585416628,
      "d": 1573.274708333338,
      "v": 81
    },
    {
      "midi": 60,
      "hit": false,
      "t": 217769.23685416626,
      "d": 156.249885416677,
      "v": 62
    },
    {
      "midi": 69,
      "hit": false,
      "t": 218286.47785416627,
      "d": 571.120270833344,
      "v": 62
    },
    {
      "midi": 63,
      "hit": false,
      "t": 218286.47785416627,
      "d": 581.8961249999993,
      "v": 65
    },
    {
      "midi": 60,
      "hit": false,
      "t": 218803.71885416628,
      "d": 118.5343958333251,
      "v": 51
    },
    {
      "midi": 57,
      "hit": false,
      "t": 219320.95985416626,
      "d": 328.663552083337,
      "v": 60
    },
    {
      "midi": 62,
      "hit": false,
      "t": 219320.95985416626,
      "d": 463.3617291666742,
      "v": 65
    },
    {
      "midi": 65,
      "hit": false,
      "t": 219320.95985416626,
      "d": 479.5255104166863,
      "v": 73
    },
    {
      "midi": 38,
      "hit": false,
      "t": 219320.95985416626,
      "d": 1530.1712916666875,
      "v": 65
    },
    {
      "midi": 57,
      "hit": false,
      "t": 219838.20085416627,
      "d": 140.08610416666488,
      "v": 40
    },
    {
      "midi": 62,
      "hit": false,
      "t": 220355.44185416627,
      "d": 501.077218749997,
      "v": 77
    },
    {
      "midi": 65,
      "hit": false,
      "t": 220355.44185416627,
      "d": 522.6289270833367,
      "v": 73
    },
    {
      "midi": 57,
      "hit": false,
      "t": 220872.68285416628,
      "d": 237.0687916666502,
      "v": 51
    },
    {
      "midi": 60,
      "hit": false,
      "t": 221389.92385416626,
      "d": 490.30136458334164,
      "v": 73
    },
    {
      "midi": 65,
      "hit": false,
      "t": 221389.92385416626,
      "d": 522.6289270833367,
      "v": 77
    },
    {
      "midi": 36,
      "hit": false,
      "t": 221389.92385416626,
      "d": 1659.481541666697,
      "v": 77
    },
    {
      "midi": 57,
      "hit": false,
      "t": 221907.16485416627,
      "d": 242.45671875000698,
      "v": 60
    },
    {
      "midi": 65,
      "hit": false,
      "t": 222424.40585416628,
      "d": 495.6892916666693,
      "v": 77
    },
    {
      "midi": 60,
      "hit": false,
      "t": 222424.40585416628,
      "d": 522.6289270833367,
      "v": 69
    },
    {
      "midi": 57,
      "hit": false,
      "t": 222941.6468541663,
      "d": 91.59476041665766,
      "v": 46
    },
    {
      "midi": 58,
      "hit": false,
      "t": 223458.8878541663,
      "d": 382.54282291664276,
      "v": 77
    },
    {
      "midi": 65,
      "hit": false,
      "t": 223458.8878541663,
      "d": 479.5255104166572,
      "v": 77
    },
    {
      "midi": 62,
      "hit": false,
      "t": 223458.8878541663,
      "d": 484.91343749998487,
      "v": 69
    },
    {
      "midi": 46,
      "hit": false,
      "t": 223458.8878541663,
      "d": 1761.852156249981,
      "v": 81
    },
    {
      "midi": 58,
      "hit": false,
      "t": 223976.12885416628,
      "d": 161.63781250000466,
      "v": 46
    },
    {
      "midi": 65,
      "hit": false,
      "t": 224493.3698541663,
      "d": 479.5255104166572,
      "v": 77
    },
    {
      "midi": 62,
      "hit": false,
      "t": 224493.3698541663,
      "d": 495.6892916666693,
      "v": 85
    },
    {
      "midi": 58,
      "hit": false,
      "t": 225010.6108541663,
      "d": 172.41366666666,
      "v": 60
    },
    {
      "midi": 57,
      "hit": false,
      "t": 225527.85185416628,
      "d": 409.4824583333393,
      "v": 69
    },
    {
      "midi": 62,
      "hit": false,
      "t": 225527.85185416628,
      "d": 522.6289270833367,
      "v": 73
    },
    {
      "midi": 65,
      "hit": false,
      "t": 225527.85185416628,
      "d": 522.6289270833367,
      "v": 69
    },
    {
      "midi": 45,
      "hit": false,
      "t": 225527.85185416628,
      "d": 1600.2143437500054,
      "v": 85
    },
    {
      "midi": 57,
      "hit": false,
      "t": 226045.0928541663,
      "d": 150.86195833332022,
      "v": 51
    },
    {
      "midi": 65,
      "hit": false,
      "t": 226562.33385416627,
      "d": 495.6892916666693,
      "v": 69
    },
    {
      "midi": 62,
      "hit": false,
      "t": 226562.33385416627,
      "d": 501.077218749997,
      "v": 77
    },
    {
      "midi": 57,
      "hit": false,
      "t": 227079.57485416628,
      "d": 102.3706145833421,
      "v": 57
    },
    {
      "midi": 55,
      "hit": false,
      "t": 227596.81585416629,
      "d": 371.7669687499874,
      "v": 65
    },
    {
      "midi": 58,
      "hit": false,
      "t": 227596.81585416629,
      "d": 554.9564895833028,
      "v": 81
    },
    {
      "midi": 62,
      "hit": false,
      "t": 227596.81585416629,
      "d": 581.8961249999702,
      "v": 73
    },
    {
      "midi": 43,
      "hit": false,
      "t": 227596.81585416629,
      "d": 1530.1712916666002,
      "v": 65
    },
    {
      "midi": 55,
      "hit": false,
      "t": 228114.05685416627,
      "d": 156.24988541664788,
      "v": 54
    },
    {
      "midi": 62,
      "hit": false,
      "t": 228631.29785416625,
      "d": 452.58587499998976,
      "v": 73
    },
    {
      "midi": 58,
      "hit": false,
      "t": 228631.29785416625,
      "d": 484.91343749998487,
      "v": 77
    },
    {
      "midi": 55,
      "hit": false,
      "t": 229148.53885416623,
      "d": 118.5343958333251,
      "v": 54
    },
    {
      "midi": 53,
      "hit": false,
      "t": 229665.7798541662,
      "d": 377.1548958333442,
      "v": 65
    },
    {
      "midi": 58,
      "hit": false,
      "t": 229665.7798541662,
      "d": 495.6892916666693,
      "v": 73
    },
    {
      "midi": 62,
      "hit": false,
      "t": 229665.7798541662,
      "d": 501.077218749997,
      "v": 77
    },
    {
      "midi": 41,
      "hit": false,
      "t": 229665.7798541662,
      "d": 1627.1539791666728,
      "v": 69
    },
    {
      "midi": 53,
      "hit": false,
      "t": 230183.0208541662,
      "d": 123.92232291665277,
      "v": 57
    },
    {
      "midi": 58,
      "hit": false,
      "t": 230700.2618541662,
      "d": 441.8100208333344,
      "v": 85
    },
    {
      "midi": 62,
      "hit": false,
      "t": 230700.2618541662,
      "d": 457.9738020833465,
      "v": 81
    },
    {
      "midi": 53,
      "hit": false,
      "t": 231217.5028541662,
      "d": 75.43097916667466,
      "v": 51
    },
    {
      "midi": 58,
      "hit": false,
      "t": 231734.7438541662,
      "d": 441.8100208333344,
      "v": 69
    },
    {
      "midi": 67,
      "hit": false,
      "t": 231734.7438541662,
      "d": 544.1806354166765,
      "v": 69
    },
    {
      "midi": 63,
      "hit": false,
      "t": 231734.7438541662,
      "d": 554.9564895833319,
      "v": 77
    },
    {
      "midi": 39,
      "hit": false,
      "t": 231734.7438541662,
      "d": 1648.7056875000126,
      "v": 73
    },
    {
      "midi": 58,
      "hit": false,
      "t": 232251.98485416622,
      "d": 177.80159374998766,
      "v": 44
    },
    {
      "midi": 63,
      "hit": false,
      "t": 232769.2258541662,
      "d": 447.1979479166621,
      "v": 69
    },
    {
      "midi": 67,
      "hit": false,
      "t": 232769.2258541662,
      "d": 501.077218749997,
      "v": 69
    },
    {
      "midi": 58,
      "hit": false,
      "t": 233286.4668541662,
      "d": 199.35330208335654,
      "v": 57
    },
    {
      "midi": 67,
      "hit": false,
      "t": 233803.70785416622,
      "d": 522.6289270833076,
      "v": 69
    },
    {
      "midi": 62,
      "hit": false,
      "t": 233803.70785416622,
      "d": 538.7927083333198,
      "v": 77
    },
    {
      "midi": 38,
      "hit": false,
      "t": 233803.70785416622,
      "d": 1540.9471458333137,
      "v": 69
    },
    {
      "midi": 58,
      "hit": false,
      "t": 234320.9488541662,
      "d": 247.84464583333465,
      "v": 60
    },
    {
      "midi": 67,
      "hit": false,
      "t": 234838.1898541662,
      "d": 501.077218749997,
      "v": 62
    },
    {
      "midi": 62,
      "hit": false,
      "t": 234838.1898541662,
      "d": 517.24099999998,
      "v": 77
    },
    {
      "midi": 58,
      "hit": false,
      "t": 235355.4308541662,
      "d": 70.04305208334699,
      "v": 62
    },
    {
      "midi": 55,
      "hit": false,
      "t": 235872.6718541662,
      "d": 366.37904166665976,
      "v": 51
    },
    {
      "midi": 60,
      "hit": false,
      "t": 235872.6718541662,
      "d": 528.0168541666353,
      "v": 69
    },
    {
      "midi": 63,
      "hit": false,
      "t": 235872.6718541662,
      "d": 549.5685624999751,
      "v": 73
    },
    {
      "midi": 36,
      "hit": false,
      "t": 235872.6718541662,
      "d": 1584.0505624999641,
      "v": 73
    },
    {
      "midi": 55,
      "hit": false,
      "t": 236389.91285416618,
      "d": 231.68086458332255,
      "v": 21
    },
    {
      "midi": 60,
      "hit": false,
      "t": 236907.15385416616,
      "d": 474.13758333332953,
      "v": 77
    },
    {
      "midi": 63,
      "hit": false,
      "t": 236907.15385416616,
      "d": 495.6892916666693,
      "v": 81
    },
    {
      "midi": 55,
      "hit": false,
      "t": 237424.39485416617,
      "d": 231.68086458332255,
      "v": 46
    },
    {
      "midi": 69,
      "hit": false,
      "t": 237941.63585416615,
      "d": 641.1633229166619,
      "v": 59
    },
    {
      "midi": 60,
      "hit": false,
      "t": 237941.63585416615,
      "d": 646.5512499999895,
      "v": 50
    },
    {
      "midi": 65,
      "hit": false,
      "t": 237941.63585416615,
      "d": 646.5512499999895,
      "v": 63
    },
    {
      "midi": 60,
      "hit": false,
      "t": 238717.49735416615,
      "d": 490.30136458334164,
      "v": 63
    },
    {
      "midi": 65,
      "hit": false,
      "t": 238717.49735416615,
      "d": 528.0168541666644,
      "v": 67
    },
    {
      "midi": 69,
      "hit": false,
      "t": 238717.49735416615,
      "d": 549.5685625000042,
      "v": 67
    },
    {
      "midi": 65,
      "hit": false,
      "t": 239493.35885416614,
      "d": 425.6462395833223,
      "v": 67
    },
    {
      "midi": 72,
      "hit": false,
      "t": 239493.35885416614,
      "d": 431.03416666665,
      "v": 52
    },
    {
      "midi": 69,
      "hit": false,
      "t": 239493.35885416614,
      "d": 441.8100208333053,
      "v": 75
    },
    {
      "midi": 58,
      "hit": false,
      "t": 240010.59985416612,
      "d": 382.54282291664276,
      "v": 77
    },
    {
      "midi": 65,
      "hit": false,
      "t": 240010.59985416612,
      "d": 479.5255104166572,
      "v": 77
    },
    {
      "midi": 62,
      "hit": false,
      "t": 240010.59985416612,
      "d": 484.91343749998487,
      "v": 69
    },
    {
      "midi": 46,
      "hit": false,
      "t": 240010.59985416612,
      "d": 1761.852156249981,
      "v": 81
    },
    {
      "midi": 58,
      "hit": false,
      "t": 240527.8408541661,
      "d": 161.63781250000466,
      "v": 46
    },
    {
      "midi": 65,
      "hit": false,
      "t": 241045.0818541661,
      "d": 479.5255104166572,
      "v": 77
    },
    {
      "midi": 62,
      "hit": false,
      "t": 241045.0818541661,
      "d": 495.6892916666693,
      "v": 85
    },
    {
      "midi": 58,
      "hit": false,
      "t": 241562.32285416612,
      "d": 172.41366666666,
      "v": 60
    },
    {
      "midi": 57,
      "hit": false,
      "t": 242079.5638541661,
      "d": 409.4824583333393,
      "v": 69
    },
    {
      "midi": 62,
      "hit": false,
      "t": 242079.5638541661,
      "d": 522.6289270833367,
      "v": 73
    },
    {
      "midi": 65,
      "hit": false,
      "t": 242079.5638541661,
      "d": 522.6289270833367,
      "v": 69
    },
    {
      "midi": 45,
      "hit": false,
      "t": 242079.5638541661,
      "d": 1600.2143437500054,
      "v": 85
    },
    {
      "midi": 57,
      "hit": false,
      "t": 242596.8048541661,
      "d": 150.86195833332022,
      "v": 51
    },
    {
      "midi": 65,
      "hit": false,
      "t": 243114.0458541661,
      "d": 495.6892916666693,
      "v": 69
    },
    {
      "midi": 62,
      "hit": false,
      "t": 243114.0458541661,
      "d": 501.077218749997,
      "v": 77
    },
    {
      "midi": 57,
      "hit": false,
      "t": 243631.2868541661,
      "d": 102.3706145833421,
      "v": 57
    },
    {
      "midi": 55,
      "hit": false,
      "t": 244148.5278541661,
      "d": 371.7669687499874,
      "v": 65
    },
    {
      "midi": 58,
      "hit": false,
      "t": 244148.5278541661,
      "d": 554.9564895833028,
      "v": 81
    },
    {
      "midi": 62,
      "hit": false,
      "t": 244148.5278541661,
      "d": 581.8961249999702,
      "v": 73
    },
    {
      "midi": 43,
      "hit": false,
      "t": 244148.5278541661,
      "d": 1530.1712916666002,
      "v": 65
    },
    {
      "midi": 55,
      "hit": false,
      "t": 244665.7688541661,
      "d": 156.24988541664788,
      "v": 54
    },
    {
      "midi": 62,
      "hit": false,
      "t": 245183.00985416607,
      "d": 452.58587499998976,
      "v": 73
    },
    {
      "midi": 58,
      "hit": false,
      "t": 245183.00985416607,
      "d": 484.91343749998487,
      "v": 77
    },
    {
      "midi": 55,
      "hit": false,
      "t": 245700.25085416605,
      "d": 118.5343958333251,
      "v": 54
    },
    {
      "midi": 53,
      "hit": false,
      "t": 246217.49185416603,
      "d": 377.1548958333442,
      "v": 65
    },
    {
      "midi": 58,
      "hit": false,
      "t": 246217.49185416603,
      "d": 495.6892916666693,
      "v": 73
    },
    {
      "midi": 62,
      "hit": false,
      "t": 246217.49185416603,
      "d": 501.077218749997,
      "v": 77
    },
    {
      "midi": 41,
      "hit": false,
      "t": 246217.49185416603,
      "d": 1627.1539791666728,
      "v": 69
    },
    {
      "midi": 53,
      "hit": false,
      "t": 246734.73285416604,
      "d": 123.92232291665277,
      "v": 57
    },
    {
      "midi": 58,
      "hit": false,
      "t": 247251.97385416602,
      "d": 441.8100208333344,
      "v": 85
    },
    {
      "midi": 62,
      "hit": false,
      "t": 247251.97385416602,
      "d": 457.9738020833465,
      "v": 81
    },
    {
      "midi": 53,
      "hit": false,
      "t": 247769.21485416603,
      "d": 75.43097916667466,
      "v": 51
    },
    {
      "midi": 58,
      "hit": false,
      "t": 248286.45585416604,
      "d": 441.8100208333344,
      "v": 69
    },
    {
      "midi": 67,
      "hit": false,
      "t": 248286.45585416604,
      "d": 544.1806354166765,
      "v": 69
    },
    {
      "midi": 63,
      "hit": false,
      "t": 248286.45585416604,
      "d": 554.9564895833319,
      "v": 77
    },
    {
      "midi": 39,
      "hit": false,
      "t": 248286.45585416604,
      "d": 1648.7056875000126,
      "v": 73
    },
    {
      "midi": 58,
      "hit": false,
      "t": 248803.69685416605,
      "d": 177.80159374998766,
      "v": 44
    },
    {
      "midi": 63,
      "hit": false,
      "t": 249320.93785416603,
      "d": 447.1979479166621,
      "v": 69
    },
    {
      "midi": 67,
      "hit": false,
      "t": 249320.93785416603,
      "d": 501.077218749997,
      "v": 69
    },
    {
      "midi": 58,
      "hit": false,
      "t": 249838.17885416604,
      "d": 199.35330208335654,
      "v": 57
    },
    {
      "midi": 67,
      "hit": false,
      "t": 250355.41985416604,
      "d": 522.6289270833076,
      "v": 69
    },
    {
      "midi": 62,
      "hit": false,
      "t": 250355.41985416604,
      "d": 538.7927083333198,
      "v": 77
    },
    {
      "midi": 38,
      "hit": false,
      "t": 250355.41985416604,
      "d": 1540.9471458333137,
      "v": 69
    },
    {
      "midi": 58,
      "hit": false,
      "t": 250872.66085416602,
      "d": 247.84464583333465,
      "v": 60
    },
    {
      "midi": 67,
      "hit": false,
      "t": 251389.90185416603,
      "d": 501.077218749997,
      "v": 62
    },
    {
      "midi": 62,
      "hit": false,
      "t": 251389.90185416603,
      "d": 517.24099999998,
      "v": 77
    },
    {
      "midi": 58,
      "hit": false,
      "t": 251907.142854166,
      "d": 70.04305208334699,
      "v": 62
    },
    {
      "midi": 55,
      "hit": false,
      "t": 252424.38385416602,
      "d": 366.37904166665976,
      "v": 51
    },
    {
      "midi": 60,
      "hit": false,
      "t": 252424.38385416602,
      "d": 528.0168541666353,
      "v": 69
    },
    {
      "midi": 63,
      "hit": false,
      "t": 252424.38385416602,
      "d": 549.5685624999751,
      "v": 73
    },
    {
      "midi": 36,
      "hit": false,
      "t": 252424.38385416602,
      "d": 1584.0505624999641,
      "v": 73
    },
    {
      "midi": 55,
      "hit": false,
      "t": 252941.624854166,
      "d": 231.68086458332255,
      "v": 21
    },
    {
      "midi": 60,
      "hit": false,
      "t": 253458.86585416598,
      "d": 474.13758333332953,
      "v": 77
    },
    {
      "midi": 63,
      "hit": false,
      "t": 253458.86585416598,
      "d": 495.6892916666693,
      "v": 81
    },
    {
      "midi": 55,
      "hit": false,
      "t": 253976.106854166,
      "d": 231.68086458332255,
      "v": 46
    },
    {
      "midi": 58,
      "hit": false,
      "t": 254493.34785416597,
      "d": 522.6289270833367,
      "v": 73
    },
    {
      "midi": 63,
      "hit": false,
      "t": 254493.34785416597,
      "d": 522.6289270833367,
      "v": 77
    },
    {
      "midi": 34,
      "hit": false,
      "t": 254493.34785416597,
      "d": 1562.4988541666535,
      "v": 73
    },
    {
      "midi": 55,
      "hit": false,
      "t": 255010.58885416598,
      "d": 199.35330208332743,
      "v": 51
    },
    {
      "midi": 58,
      "hit": false,
      "t": 255527.82985416596,
      "d": 484.91343750001397,
      "v": 77
    },
    {
      "midi": 63,
      "hit": false,
      "t": 255527.82985416596,
      "d": 517.2410000000091,
      "v": 81
    },
    {
      "midi": 55,
      "hit": false,
      "t": 256045.07085416597,
      "d": 80.81890625000233,
      "v": 49
    },
    {
      "midi": 60,
      "hit": false,
      "t": 256562.31185416598,
      "d": 436.42209374997765,
      "v": 65
    },
    {
      "midi": 65,
      "hit": false,
      "t": 256562.31185416598,
      "d": 533.4047812499921,
      "v": 69
    },
    {
      "midi": 69,
      "hit": false,
      "t": 256562.31185416598,
      "d": 538.7927083333198,
      "v": 65
    },
    {
      "midi": 41,
      "hit": false,
      "t": 256562.31185416598,
      "d": 1530.1712916666584,
      "v": 77
    },
    {
      "midi": 60,
      "hit": false,
      "t": 257079.55285416596,
      "d": 226.29293749999488,
      "v": 42
    },
    {
      "midi": 65,
      "hit": false,
      "t": 257596.79385416597,
      "d": 495.6892916666693,
      "v": 73
    },
    {
      "midi": 69,
      "hit": false,
      "t": 257596.79385416597,
      "d": 528.0168541666644,
      "v": 73
    },
    {
      "midi": 60,
      "hit": false,
      "t": 258114.03485416598,
      "d": 167.02573958333232,
      "v": 46
    },
    {
      "midi": 63,
      "hit": false,
      "t": 258631.275854166,
      "d": 565.7323437499872,
      "v": 69
    },
    {
      "midi": 69,
      "hit": false,
      "t": 258631.275854166,
      "d": 565.7323437499872,
      "v": 81
    },
    {
      "midi": 39,
      "hit": false,
      "t": 258631.275854166,
      "d": 1573.274708333338,
      "v": 81
    },
    {
      "midi": 60,
      "hit": false,
      "t": 259148.51685416597,
      "d": 156.249885416677,
      "v": 62
    },
    {
      "midi": 69,
      "hit": false,
      "t": 259665.75785416598,
      "d": 571.120270833344,
      "v": 62
    },
    {
      "midi": 63,
      "hit": false,
      "t": 259665.75785416598,
      "d": 581.8961249999993,
      "v": 65
    },
    {
      "midi": 60,
      "hit": false,
      "t": 260182.99885416598,
      "d": 118.5343958333251,
      "v": 51
    },
    {
      "midi": 57,
      "hit": false,
      "t": 260700.23985416596,
      "d": 328.663552083337,
      "v": 60
    },
    {
      "midi": 62,
      "hit": false,
      "t": 260700.23985416596,
      "d": 463.3617291666742,
      "v": 65
    },
    {
      "midi": 65,
      "hit": false,
      "t": 260700.23985416596,
      "d": 479.5255104166863,
      "v": 73
    },
    {
      "midi": 38,
      "hit": false,
      "t": 260700.23985416596,
      "d": 1530.1712916666584,
      "v": 65
    },
    {
      "midi": 57,
      "hit": false,
      "t": 261217.48085416597,
      "d": 140.08610416666488,
      "v": 40
    },
    {
      "midi": 62,
      "hit": false,
      "t": 261734.72185416598,
      "d": 501.077218749997,
      "v": 77
    },
    {
      "midi": 65,
      "hit": false,
      "t": 261734.72185416598,
      "d": 522.6289270833659,
      "v": 73
    },
    {
      "midi": 57,
      "hit": false,
      "t": 262251.962854166,
      "d": 237.06879166670842,
      "v": 51
    },
    {
      "midi": 60,
      "hit": false,
      "t": 262769.20385416603,
      "d": 490.30136458331253,
      "v": 73
    },
    {
      "midi": 65,
      "hit": false,
      "t": 262769.20385416603,
      "d": 522.6289270833367,
      "v": 77
    },
    {
      "midi": 36,
      "hit": false,
      "t": 262769.20385416603,
      "d": 1659.481541666668,
      "v": 77
    },
    {
      "midi": 57,
      "hit": false,
      "t": 263286.444854166,
      "d": 242.45671875000698,
      "v": 60
    },
    {
      "midi": 65,
      "hit": false,
      "t": 263803.685854166,
      "d": 495.6892916666693,
      "v": 77
    },
    {
      "midi": 60,
      "hit": false,
      "t": 263803.685854166,
      "d": 522.6289270833367,
      "v": 69
    },
    {
      "midi": 57,
      "hit": false,
      "t": 264320.92685416597,
      "d": 91.59476041671587,
      "v": 46
    },
    {
      "midi": 62,
      "hit": false,
      "t": 264838.167854166,
      "d": 425.6462395833223,
      "v": 60
    },
    {
      "midi": 65,
      "hit": false,
      "t": 264838.167854166,
      "d": 565.7323437499581,
      "v": 69
    },
    {
      "midi": 70,
      "hit": false,
      "t": 264838.167854166,
      "d": 581.8961249999702,
      "v": 62
    },
    {
      "midi": 46,
      "hit": false,
      "t": 264838.167854166,
      "d": 1573.274708333367,
      "v": 62
    },
    {
      "midi": 62,
      "hit": false,
      "t": 265355.408854166,
      "d": 161.63781250000466,
      "v": 30
    },
    {
      "midi": 65,
      "hit": false,
      "t": 265872.64985416597,
      "d": 511.8530729166814,
      "v": 73
    },
    {
      "midi": 70,
      "hit": false,
      "t": 265872.64985416597,
      "d": 533.4047812500503,
      "v": 57
    },
    {
      "midi": 62,
      "hit": false,
      "t": 266389.890854166,
      "d": 129.31025000003865,
      "v": 42
    },
    {
      "midi": 63,
      "hit": false,
      "t": 266907.13185416604,
      "d": 393.3186770833563,
      "v": 62
    },
    {
      "midi": 67,
      "hit": false,
      "t": 266907.13185416604,
      "d": 517.2410000000382,
      "v": 73
    },
    {
      "midi": 70,
      "hit": false,
      "t": 266907.13185416604,
      "d": 538.7927083333489,
      "v": 62
    },
    {
      "midi": 39,
      "hit": false,
      "t": 266907.13185416604,
      "d": 1734.9125208333135,
      "v": 47
    },
    {
      "midi": 63,
      "hit": false,
      "t": 267424.3728541661,
      "d": 199.35330208332743,
      "v": 31
    },
    {
      "midi": 63,
      "hit": false,
      "t": 267941.61385416606,
      "d": 328.6635520833079,
      "v": 62
    },
    {
      "midi": 67,
      "hit": false,
      "t": 267941.61385416606,
      "d": 474.1375833333004,
      "v": 69
    },
    {
      "midi": 70,
      "hit": false,
      "t": 267941.61385416606,
      "d": 501.07721874996787,
      "v": 62
    },
    {
      "midi": 63,
      "hit": false,
      "t": 268458.85485416604,
      "d": 91.59476041665766,
      "v": 21
    },
    {
      "midi": 62,
      "hit": false,
      "t": 268976.095854166,
      "d": 371.7669687499874,
      "v": 60
    },
    {
      "midi": 65,
      "hit": false,
      "t": 268976.095854166,
      "d": 506.46514583332464,
      "v": 60
    },
    {
      "midi": 70,
      "hit": false,
      "t": 268976.095854166,
      "d": 506.46514583332464,
      "v": 51
    },
    {
      "midi": 46,
      "hit": false,
      "t": 268976.095854166,
      "d": 1562.4988541667117,
      "v": 47
    },
    {
      "midi": 62,
      "hit": false,
      "t": 269493.336854166,
      "d": 193.96537500002887,
      "v": 30
    },
    {
      "midi": 62,
      "hit": false,
      "t": 270010.57785416604,
      "d": 414.870385416667,
      "v": 60
    },
    {
      "midi": 65,
      "hit": false,
      "t": 270010.57785416604,
      "d": 468.74965625000186,
      "v": 62
    },
    {
      "midi": 70,
      "hit": false,
      "t": 270010.57785416604,
      "d": 468.74965625000186,
      "v": 57
    },
    {
      "midi": 70,
      "hit": false,
      "t": 271045.05985416606,
      "d": 845.9045520833461,
      "v": 62
    },
    {
      "midi": 60,
      "hit": false,
      "t": 271045.05985416606,
      "d": 878.2321145833703,
      "v": 69
    },
    {
      "midi": 65,
      "hit": false,
      "t": 271045.05985416606,
      "d": 889.0079687500256,
      "v": 69
    },
    {
      "midi": 41,
      "hit": false,
      "t": 271045.05985416606,
      "d": 1928.8778958333423,
      "v": 49
    },
    {
      "midi": 60,
      "hit": false,
      "t": 272079.5418541661,
      "d": 851.2924791666446,
      "v": 62
    },
    {
      "midi": 65,
      "hit": false,
      "t": 272079.5418541661,
      "d": 856.6804062500014,
      "v": 65
    },
    {
      "midi": 69,
      "hit": false,
      "t": 272079.5418541661,
      "d": 878.2321145833121,
      "v": 69
    },
    {
      "midi": 58,
      "hit": false,
      "t": 273114.0238541661,
      "d": 382.54282291664276,
      "v": 77
    },
    {
      "midi": 65,
      "hit": false,
      "t": 273114.0238541661,
      "d": 479.5255104166572,
      "v": 77
    },
    {
      "midi": 62,
      "hit": false,
      "t": 273114.0238541661,
      "d": 484.91343750001397,
      "v": 69
    },
    {
      "midi": 46,
      "hit": false,
      "t": 273114.0238541661,
      "d": 1761.852156249981,
      "v": 81
    },
    {
      "midi": 58,
      "hit": false,
      "t": 273631.26485416613,
      "d": 161.63781250000466,
      "v": 46
    },
    {
      "midi": 65,
      "hit": false,
      "t": 274148.5058541661,
      "d": 479.5255104166572,
      "v": 77
    },
    {
      "midi": 62,
      "hit": false,
      "t": 274148.5058541661,
      "d": 495.6892916666693,
      "v": 85
    },
    {
      "midi": 58,
      "hit": false,
      "t": 274665.7468541661,
      "d": 172.41366666666,
      "v": 60
    },
    {
      "midi": 57,
      "hit": false,
      "t": 275182.9878541661,
      "d": 409.4824583333102,
      "v": 69
    },
    {
      "midi": 62,
      "hit": false,
      "t": 275182.9878541661,
      "d": 522.6289270833367,
      "v": 73
    },
    {
      "midi": 65,
      "hit": false,
      "t": 275182.9878541661,
      "d": 522.6289270833367,
      "v": 69
    },
    {
      "midi": 45,
      "hit": false,
      "t": 275182.9878541661,
      "d": 1600.2143437500345,
      "v": 85
    },
    {
      "midi": 57,
      "hit": false,
      "t": 275700.22885416605,
      "d": 150.86195833334932,
      "v": 51
    },
    {
      "midi": 65,
      "hit": false,
      "t": 276217.4698541661,
      "d": 495.6892916666693,
      "v": 69
    },
    {
      "midi": 62,
      "hit": false,
      "t": 276217.4698541661,
      "d": 501.0772187500261,
      "v": 77
    },
    {
      "midi": 57,
      "hit": false,
      "t": 276734.71085416613,
      "d": 102.370614583313,
      "v": 57
    },
    {
      "midi": 55,
      "hit": false,
      "t": 277251.9518541661,
      "d": 371.7669687499874,
      "v": 65
    },
    {
      "midi": 58,
      "hit": false,
      "t": 277251.9518541661,
      "d": 554.9564895833028,
      "v": 81
    },
    {
      "midi": 62,
      "hit": false,
      "t": 277251.9518541661,
      "d": 581.8961249999702,
      "v": 73
    },
    {
      "midi": 43,
      "hit": false,
      "t": 277251.9518541661,
      "d": 1530.1712916666293,
      "v": 65
    },
    {
      "midi": 55,
      "hit": false,
      "t": 277769.1928541661,
      "d": 156.24988541664788,
      "v": 54
    },
    {
      "midi": 62,
      "hit": false,
      "t": 278286.43385416607,
      "d": 452.58587499998976,
      "v": 73
    },
    {
      "midi": 58,
      "hit": false,
      "t": 278286.43385416607,
      "d": 484.91343750001397,
      "v": 77
    },
    {
      "midi": 55,
      "hit": false,
      "t": 278803.67485416605,
      "d": 118.5343958333251,
      "v": 54
    },
    {
      "midi": 53,
      "hit": false,
      "t": 279320.915854166,
      "d": 377.1548958333442,
      "v": 65
    },
    {
      "midi": 58,
      "hit": false,
      "t": 279320.915854166,
      "d": 495.6892916666693,
      "v": 73
    },
    {
      "midi": 62,
      "hit": false,
      "t": 279320.915854166,
      "d": 501.0772187500261,
      "v": 77
    },
    {
      "midi": 41,
      "hit": false,
      "t": 279320.915854166,
      "d": 1627.15397916676,
      "v": 69
    },
    {
      "midi": 53,
      "hit": false,
      "t": 279838.15685416607,
      "d": 123.92232291668188,
      "v": 57
    },
    {
      "midi": 58,
      "hit": false,
      "t": 280355.3978541661,
      "d": 441.8100208333344,
      "v": 85
    },
    {
      "midi": 62,
      "hit": false,
      "t": 280355.3978541661,
      "d": 457.9738020833465,
      "v": 81
    },
    {
      "midi": 53,
      "hit": false,
      "t": 280872.63885416614,
      "d": 75.43097916664556,
      "v": 51
    },
    {
      "midi": 58,
      "hit": false,
      "t": 281389.8798541661,
      "d": 441.8100208332762,
      "v": 69
    },
    {
      "midi": 67,
      "hit": false,
      "t": 281389.8798541661,
      "d": 544.1806354165892,
      "v": 69
    },
    {
      "midi": 63,
      "hit": false,
      "t": 281389.8798541661,
      "d": 554.9564895832445,
      "v": 77
    },
    {
      "midi": 39,
      "hit": false,
      "t": 281389.8798541661,
      "d": 1648.7056875000126,
      "v": 73
    },
    {
      "midi": 58,
      "hit": false,
      "t": 281907.12085416605,
      "d": 177.80159375001676,
      "v": 44
    },
    {
      "midi": 63,
      "hit": false,
      "t": 282424.3618541661,
      "d": 447.1979479166912,
      "v": 69
    },
    {
      "midi": 67,
      "hit": false,
      "t": 282424.3618541661,
      "d": 501.0772187500261,
      "v": 69
    },
    {
      "midi": 58,
      "hit": false,
      "t": 282941.6028541661,
      "d": 199.35330208332743,
      "v": 57
    },
    {
      "midi": 67,
      "hit": false,
      "t": 283458.8438541661,
      "d": 522.628927083395,
      "v": 69
    },
    {
      "midi": 62,
      "hit": false,
      "t": 283458.8438541661,
      "d": 538.7927083334071,
      "v": 77
    },
    {
      "midi": 38,
      "hit": false,
      "t": 283458.8438541661,
      "d": 1540.9471458334592,
      "v": 69
    },
    {
      "midi": 58,
      "hit": false,
      "t": 283976.08485416614,
      "d": 247.84464583336376,
      "v": 60
    },
    {
      "midi": 67,
      "hit": false,
      "t": 284493.3258541662,
      "d": 501.0772187500261,
      "v": 62
    },
    {
      "midi": 62,
      "hit": false,
      "t": 284493.3258541662,
      "d": 517.2410000000382,
      "v": 77
    },
    {
      "midi": 58,
      "hit": false,
      "t": 285010.5668541662,
      "d": 70.04305208334699,
      "v": 62
    },
    {
      "midi": 55,
      "hit": false,
      "t": 285527.80785416625,
      "d": 366.37904166668886,
      "v": 51
    },
    {
      "midi": 60,
      "hit": false,
      "t": 285527.80785416625,
      "d": 528.0168541666935,
      "v": 69
    },
    {
      "midi": 63,
      "hit": false,
      "t": 285527.80785416625,
      "d": 549.5685625000042,
      "v": 73
    },
    {
      "midi": 36,
      "hit": false,
      "t": 285527.80785416625,
      "d": 1584.0505625000224,
      "v": 73
    },
    {
      "midi": 55,
      "hit": false,
      "t": 286045.0488541663,
      "d": 231.68086458329344,
      "v": 21
    },
    {
      "midi": 60,
      "hit": false,
      "t": 286562.2898541663,
      "d": 474.13758333335863,
      "v": 77
    },
    {
      "midi": 63,
      "hit": false,
      "t": 286562.2898541663,
      "d": 495.6892916666693,
      "v": 81
    },
    {
      "midi": 55,
      "hit": false,
      "t": 287079.53085416625,
      "d": 231.68086458335165,
      "v": 46
    },
    {
      "midi": 58,
      "hit": false,
      "t": 287596.7718541663,
      "d": 522.6289270833367,
      "v": 73
    },
    {
      "midi": 63,
      "hit": false,
      "t": 287596.7718541663,
      "d": 522.6289270833367,
      "v": 77
    },
    {
      "midi": 34,
      "hit": false,
      "t": 287596.7718541663,
      "d": 1562.4988541667117,
      "v": 73
    },
    {
      "midi": 55,
      "hit": false,
      "t": 288114.01285416627,
      "d": 199.35330208338564,
      "v": 51
    },
    {
      "midi": 58,
      "hit": false,
      "t": 288631.2538541663,
      "d": 484.91343750001397,
      "v": 77
    },
    {
      "midi": 63,
      "hit": false,
      "t": 288631.2538541663,
      "d": 517.2410000000382,
      "v": 81
    },
    {
      "midi": 55,
      "hit": false,
      "t": 289148.49485416635,
      "d": 80.81890625000233,
      "v": 49
    },
    {
      "midi": 60,
      "hit": false,
      "t": 289665.7358541663,
      "d": 436.42209375003586,
      "v": 65
    },
    {
      "midi": 65,
      "hit": false,
      "t": 289665.7358541663,
      "d": 533.4047812500503,
      "v": 69
    },
    {
      "midi": 69,
      "hit": false,
      "t": 289665.7358541663,
      "d": 538.7927083334071,
      "v": 65
    },
    {
      "midi": 41,
      "hit": false,
      "t": 289665.7358541663,
      "d": 1530.1712916667457,
      "v": 77
    },
    {
      "midi": 60,
      "hit": false,
      "t": 290182.97685416637,
      "d": 226.29293750005309,
      "v": 42
    },
    {
      "midi": 65,
      "hit": false,
      "t": 290700.2178541664,
      "d": 495.6892916666693,
      "v": 73
    },
    {
      "midi": 69,
      "hit": false,
      "t": 290700.2178541664,
      "d": 528.0168541666353,
      "v": 73
    },
    {
      "midi": 60,
      "hit": false,
      "t": 291217.4588541664,
      "d": 167.02573958330322,
      "v": 46
    },
    {
      "midi": 63,
      "hit": false,
      "t": 291734.69985416636,
      "d": 565.7323437499581,
      "v": 69
    },
    {
      "midi": 69,
      "hit": false,
      "t": 291734.69985416636,
      "d": 565.7323437499581,
      "v": 81
    },
    {
      "midi": 39,
      "hit": false,
      "t": 291734.69985416636,
      "d": 1573.2747083332506,
      "v": 81
    },
    {
      "midi": 60,
      "hit": false,
      "t": 292251.94085416634,
      "d": 156.24988541664788,
      "v": 62
    },
    {
      "midi": 69,
      "hit": false,
      "t": 292769.1818541663,
      "d": 571.1202708333149,
      "v": 62
    },
    {
      "midi": 63,
      "hit": false,
      "t": 292769.1818541663,
      "d": 581.8961249999702,
      "v": 65
    },
    {
      "midi": 60,
      "hit": false,
      "t": 293286.4228541663,
      "d": 118.5343958333251,
      "v": 51
    },
    {
      "midi": 57,
      "hit": false,
      "t": 293803.6638541663,
      "d": 328.6635520833079,
      "v": 60
    },
    {
      "midi": 62,
      "hit": false,
      "t": 293803.6638541663,
      "d": 463.3617291666451,
      "v": 65
    },
    {
      "midi": 65,
      "hit": false,
      "t": 293803.6638541663,
      "d": 479.5255104166572,
      "v": 73
    },
    {
      "midi": 38,
      "hit": false,
      "t": 293803.6638541663,
      "d": 1530.1712916666875,
      "v": 65
    },
    {
      "midi": 57,
      "hit": false,
      "t": 294320.90485416626,
      "d": 140.08610416669399,
      "v": 40
    },
    {
      "midi": 62,
      "hit": false,
      "t": 294838.1458541663,
      "d": 501.0772187500261,
      "v": 77
    },
    {
      "midi": 65,
      "hit": false,
      "t": 294838.1458541663,
      "d": 522.628927083395,
      "v": 73
    },
    {
      "midi": 57,
      "hit": false,
      "t": 295355.38685416634,
      "d": 237.06879166670842,
      "v": 51
    },
    {
      "midi": 60,
      "hit": false,
      "t": 295872.6278541664,
      "d": 490.30136458331253,
      "v": 73
    },
    {
      "midi": 65,
      "hit": false,
      "t": 295872.6278541664,
      "d": 522.6289270833367,
      "v": 77
    },
    {
      "midi": 36,
      "hit": false,
      "t": 295872.6278541664,
      "d": 1659.481541666668,
      "v": 77
    },
    {
      "midi": 57,
      "hit": false,
      "t": 296389.86885416636,
      "d": 242.45671875000698,
      "v": 60
    },
    {
      "midi": 65,
      "hit": false,
      "t": 296907.10985416634,
      "d": 495.6892916666693,
      "v": 77
    },
    {
      "midi": 60,
      "hit": false,
      "t": 296907.10985416634,
      "d": 522.6289270833367,
      "v": 69
    },
    {
      "midi": 57,
      "hit": false,
      "t": 297424.3508541663,
      "d": 91.59476041671587,
      "v": 46
    },
    {
      "midi": 58,
      "hit": false,
      "t": 297941.59185416636,
      "d": 312.49977083329577,
      "v": 62
    },
    {
      "midi": 62,
      "hit": false,
      "t": 297941.59185416636,
      "d": 452.58587499998976,
      "v": 81
    },
    {
      "midi": 65,
      "hit": false,
      "t": 297941.59185416636,
      "d": 484.91343750001397,
      "v": 77
    },
    {
      "midi": 34,
      "hit": false,
      "t": 297941.59185416636,
      "d": 1460.1282395833405,
      "v": 81
    },
    {
      "midi": 58,
      "hit": false,
      "t": 298458.8328541664,
      "d": 145.47403124999255,
      "v": 49
    },
    {
      "midi": 62,
      "hit": false,
      "t": 298976.0738541664,
      "d": 457.9738020833465,
      "v": 77
    },
    {
      "midi": 65,
      "hit": false,
      "t": 298976.0738541664,
      "d": 468.74965625000186,
      "v": 77
    },
    {
      "midi": 58,
      "hit": false,
      "t": 299493.31485416635,
      "d": 161.63781250000466,
      "v": 51
    },
    {
      "midi": 63,
      "hit": false,
      "t": 300010.55585416633,
      "d": 501.0772187500261,
      "v": 69
    },
    {
      "midi": 67,
      "hit": false,
      "t": 300010.55585416633,
      "d": 522.628927083395,
      "v": 85
    },
    {
      "midi": 39,
      "hit": false,
      "t": 300010.55585416633,
      "d": 1465.5161666667555,
      "v": 65
    },
    {
      "midi": 58,
      "hit": false,
      "t": 300527.7968541664,
      "d": 247.84464583336376,
      "v": 60
    },
    {
      "midi": 63,
      "hit": false,
      "t": 301045.0378541664,
      "d": 420.25831250002375,
      "v": 65
    },
    {
      "midi": 67,
      "hit": false,
      "t": 301045.0378541664,
      "d": 452.58587499998976,
      "v": 89
    },
    {
      "midi": 58,
      "hit": false,
      "t": 301562.2788541664,
      "d": 123.92232291668188,
      "v": 49
    },
    {
      "midi": 60,
      "hit": false,
      "t": 302079.51985416637,
      "d": 355.6031875000335,
      "v": 81
    },
    {
      "midi": 65,
      "hit": false,
      "t": 302079.51985416637,
      "d": 468.74965625000186,
      "v": 81
    },
    {
      "midi": 70,
      "hit": false,
      "t": 302079.51985416637,
      "d": 511.8530729166814,
      "v": 77
    },
    {
      "midi": 41,
      "hit": false,
      "t": 302095.6836354164,
      "d": 1734.9125208333717,
      "v": 65
    },
    {
      "midi": 60,
      "hit": false,
      "t": 302596.7608541664,
      "d": 452.58587499998976,
      "v": 60
    },
    {
      "midi": 60,
      "hit": false,
      "t": 303114.0018541664,
      "d": 296.33598958334187,
      "v": 54
    },
    {
      "midi": 65,
      "hit": false,
      "t": 303114.0018541664,
      "d": 420.25831250002375,
      "v": 77
    },
    {
      "midi": 69,
      "hit": false,
      "t": 303114.0018541664,
      "d": 474.13758333335863,
      "v": 85
    },
    {
      "midi": 60,
      "hit": false,
      "t": 303631.2428541664,
      "d": 199.35330208332743,
      "v": 62
    },
    {
      "midi": 69,
      "hit": false,
      "t": 304148.4838541664,
      "d": 641.1633229166619,
      "v": 59
    },
    {
      "midi": 60,
      "hit": false,
      "t": 304148.4838541664,
      "d": 646.5512500000186,
      "v": 50
    },
    {
      "midi": 65,
      "hit": false,
      "t": 304148.4838541664,
      "d": 646.5512500000186,
      "v": 63
    },
    {
      "midi": 60,
      "hit": false,
      "t": 304924.3453541664,
      "d": 490.30136458331253,
      "v": 63
    },
    {
      "midi": 65,
      "hit": false,
      "t": 304924.3453541664,
      "d": 528.0168541666353,
      "v": 67
    },
    {
      "midi": 69,
      "hit": false,
      "t": 304924.3453541664,
      "d": 549.568562499946,
      "v": 67
    },
    {
      "midi": 65,
      "hit": false,
      "t": 305700.20685416635,
      "d": 425.6462395833223,
      "v": 67
    },
    {
      "midi": 72,
      "hit": false,
      "t": 305700.20685416635,
      "d": 431.0341666666791,
      "v": 52
    },
    {
      "midi": 69,
      "hit": false,
      "t": 305700.20685416635,
      "d": 441.8100208333344,
      "v": 75
    },
    {
      "midi": 62,
      "hit": false,
      "t": 306217.4478541663,
      "d": 484.91343750001397,
      "v": 69
    },
    {
      "midi": 58,
      "hit": false,
      "t": 306734.68885416636,
      "d": 161.63781250000466,
      "v": 46
    },
    {
      "midi": 65,
      "hit": false,
      "t": 307251.92985416634,
      "d": 479.5255104166572,
      "v": 77
    },
    {
      "midi": 62,
      "hit": false,
      "t": 307251.92985416634,
      "d": 495.6892916666693,
      "v": 85
    },
    {
      "midi": 58,
      "hit": false,
      "t": 307769.1708541663,
      "d": 172.41366666666,
      "v": 60
    },
    {
      "midi": 57,
      "hit": false,
      "t": 308286.4118541663,
      "d": 409.4824583333102,
      "v": 69
    },
    {
      "midi": 62,
      "hit": false,
      "t": 308286.4118541663,
      "d": 522.6289270833367,
      "v": 73
    },
    {
      "midi": 65,
      "hit": false,
      "t": 308286.4118541663,
      "d": 522.6289270833367,
      "v": 69
    },
    {
      "midi": 45,
      "hit": false,
      "t": 308286.4118541663,
      "d": 1600.2143437500345,
      "v": 85
    },
    {
      "midi": 57,
      "hit": false,
      "t": 308803.6528541663,
      "d": 150.86195833334932,
      "v": 51
    },
    {
      "midi": 65,
      "hit": false,
      "t": 309320.8938541663,
      "d": 495.6892916666693,
      "v": 69
    },
    {
      "midi": 62,
      "hit": false,
      "t": 309320.8938541663,
      "d": 501.0772187500261,
      "v": 77
    },
    {
      "midi": 57,
      "hit": false,
      "t": 309838.13485416636,
      "d": 102.370614583313,
      "v": 57
    },
    {
      "midi": 55,
      "hit": false,
      "t": 310355.37585416634,
      "d": 371.7669687499874,
      "v": 65
    },
    {
      "midi": 58,
      "hit": false,
      "t": 310355.37585416634,
      "d": 554.9564895833028,
      "v": 81
    },
    {
      "midi": 62,
      "hit": false,
      "t": 310355.37585416634,
      "d": 581.8961249999702,
      "v": 73
    },
    {
      "midi": 43,
      "hit": false,
      "t": 310355.37585416634,
      "d": 1530.1712916666293,
      "v": 65
    },
    {
      "midi": 55,
      "hit": false,
      "t": 310872.6168541663,
      "d": 156.24988541664788,
      "v": 54
    },
    {
      "midi": 62,
      "hit": false,
      "t": 311389.8578541663,
      "d": 452.58587499998976,
      "v": 73
    },
    {
      "midi": 58,
      "hit": false,
      "t": 311389.8578541663,
      "d": 484.91343750001397,
      "v": 77
    },
    {
      "midi": 55,
      "hit": false,
      "t": 311907.0988541663,
      "d": 118.5343958333251,
      "v": 54
    },
    {
      "midi": 53,
      "hit": false,
      "t": 312424.33985416626,
      "d": 377.1548958333442,
      "v": 65
    },
    {
      "midi": 58,
      "hit": false,
      "t": 312424.33985416626,
      "d": 495.6892916666693,
      "v": 73
    },
    {
      "midi": 62,
      "hit": false,
      "t": 312424.33985416626,
      "d": 501.0772187500261,
      "v": 77
    },
    {
      "midi": 41,
      "hit": false,
      "t": 312424.33985416626,
      "d": 1627.15397916676,
      "v": 69
    },
    {
      "midi": 53,
      "hit": false,
      "t": 312941.5808541663,
      "d": 123.92232291668188,
      "v": 57
    },
    {
      "midi": 58,
      "hit": false,
      "t": 313458.82185416634,
      "d": 441.8100208333344,
      "v": 85
    },
    {
      "midi": 62,
      "hit": false,
      "t": 313458.82185416634,
      "d": 457.9738020833465,
      "v": 81
    },
    {
      "midi": 53,
      "hit": false,
      "t": 313976.0628541664,
      "d": 75.43097916664556,
      "v": 51
    },
    {
      "midi": 58,
      "hit": false,
      "t": 314493.30385416636,
      "d": 441.8100208332762,
      "v": 69
    },
    {
      "midi": 67,
      "hit": false,
      "t": 314493.30385416636,
      "d": 544.1806354165892,
      "v": 69
    },
    {
      "midi": 63,
      "hit": false,
      "t": 314493.30385416636,
      "d": 554.9564895832445,
      "v": 77
    },
    {
      "midi": 39,
      "hit": false,
      "t": 314493.30385416636,
      "d": 1648.7056875000126,
      "v": 73
    },
    {
      "midi": 58,
      "hit": false,
      "t": 315010.5448541663,
      "d": 177.80159375001676,
      "v": 44
    },
    {
      "midi": 63,
      "hit": false,
      "t": 315527.7858541663,
      "d": 447.1979479166912,
      "v": 69
    },
    {
      "midi": 67,
      "hit": false,
      "t": 315527.7858541663,
      "d": 501.0772187500261,
      "v": 69
    },
    {
      "midi": 58,
      "hit": false,
      "t": 316045.02685416635,
      "d": 199.35330208332743,
      "v": 57
    },
    {
      "midi": 67,
      "hit": false,
      "t": 316562.26785416633,
      "d": 522.628927083395,
      "v": 69
    },
    {
      "midi": 62,
      "hit": false,
      "t": 316562.26785416633,
      "d": 538.7927083334071,
      "v": 77
    },
    {
      "midi": 38,
      "hit": false,
      "t": 316562.26785416633,
      "d": 1540.9471458334592,
      "v": 69
    },
    {
      "midi": 58,
      "hit": false,
      "t": 317079.5088541664,
      "d": 247.84464583336376,
      "v": 60
    },
    {
      "midi": 67,
      "hit": false,
      "t": 317596.7498541664,
      "d": 501.0772187500261,
      "v": 62
    },
    {
      "midi": 62,
      "hit": false,
      "t": 317596.7498541664,
      "d": 517.2410000000382,
      "v": 77
    },
    {
      "midi": 58,
      "hit": false,
      "t": 318113.99085416645,
      "d": 70.04305208334699,
      "v": 62
    },
    {
      "midi": 55,
      "hit": false,
      "t": 318631.2318541665,
      "d": 366.37904166668886,
      "v": 51
    },
    {
      "midi": 60,
      "hit": false,
      "t": 318631.2318541665,
      "d": 528.0168541666935,
      "v": 69
    },
    {
      "midi": 63,
      "hit": false,
      "t": 318631.2318541665,
      "d": 549.5685625000042,
      "v": 73
    },
    {
      "midi": 36,
      "hit": false,
      "t": 318631.2318541665,
      "d": 1584.0505625000224,
      "v": 73
    },
    {
      "midi": 55,
      "hit": false,
      "t": 319148.4728541665,
      "d": 231.68086458329344,
      "v": 21
    },
    {
      "midi": 60,
      "hit": false,
      "t": 319665.7138541665,
      "d": 474.13758333335863,
      "v": 77
    },
    {
      "midi": 63,
      "hit": false,
      "t": 319665.7138541665,
      "d": 495.6892916666693,
      "v": 81
    },
    {
      "midi": 55,
      "hit": false,
      "t": 320182.9548541665,
      "d": 231.68086458335165,
      "v": 46
    },
    {
      "midi": 58,
      "hit": false,
      "t": 320700.1958541665,
      "d": 522.6289270833367,
      "v": 73
    },
    {
      "midi": 63,
      "hit": false,
      "t": 320700.1958541665,
      "d": 522.6289270833367,
      "v": 77
    },
    {
      "midi": 34,
      "hit": false,
      "t": 320700.1958541665,
      "d": 1562.4988541667117,
      "v": 73
    },
    {
      "midi": 55,
      "hit": false,
      "t": 321217.4368541665,
      "d": 199.35330208338564,
      "v": 51
    },
    {
      "midi": 58,
      "hit": false,
      "t": 321734.67785416654,
      "d": 484.91343750001397,
      "v": 77
    },
    {
      "midi": 63,
      "hit": false,
      "t": 321734.67785416654,
      "d": 517.2410000000382,
      "v": 81
    },
    {
      "midi": 55,
      "hit": false,
      "t": 322251.9188541666,
      "d": 80.81890625000233,
      "v": 49
    },
    {
      "midi": 60,
      "hit": false,
      "t": 322769.15985416656,
      "d": 436.42209375003586,
      "v": 65
    },
    {
      "midi": 65,
      "hit": false,
      "t": 322769.15985416656,
      "d": 533.4047812500503,
      "v": 69
    },
    {
      "midi": 69,
      "hit": false,
      "t": 322769.15985416656,
      "d": 538.7927083334071,
      "v": 65
    },
    {
      "midi": 41,
      "hit": false,
      "t": 322769.15985416656,
      "d": 1530.1712916667457,
      "v": 77
    },
    {
      "midi": 60,
      "hit": false,
      "t": 323286.4008541666,
      "d": 226.29293750005309,
      "v": 42
    },
    {
      "midi": 65,
      "hit": false,
      "t": 323803.64185416664,
      "d": 495.6892916666693,
      "v": 73
    },
    {
      "midi": 69,
      "hit": false,
      "t": 323803.64185416664,
      "d": 528.0168541666353,
      "v": 73
    },
    {
      "midi": 60,
      "hit": false,
      "t": 324320.8828541666,
      "d": 167.02573958330322,
      "v": 46
    },
    {
      "midi": 63,
      "hit": false,
      "t": 324838.1238541666,
      "d": 565.7323437499581,
      "v": 69
    },
    {
      "midi": 69,
      "hit": false,
      "t": 324838.1238541666,
      "d": 565.7323437499581,
      "v": 81
    },
    {
      "midi": 39,
      "hit": false,
      "t": 324838.1238541666,
      "d": 1573.2747083332506,
      "v": 81
    },
    {
      "midi": 60,
      "hit": false,
      "t": 325355.3648541666,
      "d": 156.24988541664788,
      "v": 62
    },
    {
      "midi": 69,
      "hit": false,
      "t": 325872.60585416656,
      "d": 571.1202708333149,
      "v": 62
    },
    {
      "midi": 63,
      "hit": false,
      "t": 325872.60585416656,
      "d": 581.8961249999702,
      "v": 65
    },
    {
      "midi": 60,
      "hit": false,
      "t": 326389.84685416654,
      "d": 118.5343958333251,
      "v": 51
    },
    {
      "midi": 57,
      "hit": false,
      "t": 326907.0878541665,
      "d": 328.6635520833079,
      "v": 60
    },
    {
      "midi": 62,
      "hit": false,
      "t": 326907.0878541665,
      "d": 463.3617291666451,
      "v": 65
    },
    {
      "midi": 65,
      "hit": false,
      "t": 326907.0878541665,
      "d": 479.5255104166572,
      "v": 73
    },
    {
      "midi": 38,
      "hit": false,
      "t": 326907.0878541665,
      "d": 1530.1712916666875,
      "v": 65
    },
    {
      "midi": 57,
      "hit": false,
      "t": 327424.3288541665,
      "d": 140.08610416669399,
      "v": 40
    },
    {
      "midi": 62,
      "hit": false,
      "t": 327941.56985416653,
      "d": 501.0772187500261,
      "v": 77
    },
    {
      "midi": 65,
      "hit": false,
      "t": 327941.56985416653,
      "d": 522.628927083395,
      "v": 73
    },
    {
      "midi": 57,
      "hit": false,
      "t": 328458.8108541666,
      "d": 237.06879166670842,
      "v": 51
    },
    {
      "midi": 60,
      "hit": false,
      "t": 328976.0518541666,
      "d": 490.30136458331253,
      "v": 73
    },
    {
      "midi": 65,
      "hit": false,
      "t": 328976.0518541666,
      "d": 522.6289270833367,
      "v": 77
    },
    {
      "midi": 36,
      "hit": false,
      "t": 328976.0518541666,
      "d": 1659.481541666668,
      "v": 77
    },
    {
      "midi": 57,
      "hit": false,
      "t": 329493.2928541666,
      "d": 242.45671875000698,
      "v": 60
    },
    {
      "midi": 65,
      "hit": false,
      "t": 330010.53385416657,
      "d": 495.6892916666693,
      "v": 77
    },
    {
      "midi": 60,
      "hit": false,
      "t": 330010.53385416657,
      "d": 522.6289270833367,
      "v": 69
    },
    {
      "midi": 57,
      "hit": false,
      "t": 330527.77485416655,
      "d": 91.59476041671587,
      "v": 46
    },
    {
      "midi": 58,
      "hit": false,
      "t": 331045.0158541666,
      "d": 511.8530729166814,
      "v": 60
    },
    {
      "midi": 62,
      "hit": false,
      "t": 331045.0158541666,
      "d": 603.4478333333973,
      "v": 73
    },
    {
      "midi": 65,
      "hit": false,
      "t": 331045.0158541666,
      "d": 608.835760416754,
      "v": 65
    },
    {
      "midi": 46,
      "hit": false,
      "t": 331045.0158541666,
      "d": 1858.8348437501118,
      "v": 62
    },
    {
      "midi": 58,
      "hit": false,
      "t": 331562.2568541666,
      "d": 177.80159375007497,
      "v": 30
    },
    {
      "midi": 58,
      "hit": false,
      "t": 332079.4978541667,
      "d": 382.54282291664276,
      "v": 57
    },
    {
      "midi": 62,
      "hit": false,
      "t": 332079.4978541667,
      "d": 506.46514583332464,
      "v": 77
    },
    {
      "midi": 65,
      "hit": false,
      "t": 332079.4978541667,
      "d": 522.6289270833367,
      "v": 57
    },
    {
      "midi": 58,
      "hit": false,
      "t": 332596.7388541667,
      "d": 231.68086458335165,
      "v": 31
    },
    {
      "midi": 58,
      "hit": false,
      "t": 333113.9798541667,
      "d": 398.7066041667131,
      "v": 57
    },
    {
      "midi": 63,
      "hit": false,
      "t": 333113.9798541667,
      "d": 474.13758333341684,
      "v": 65
    },
    {
      "midi": 67,
      "hit": false,
      "t": 333113.9798541667,
      "d": 506.46514583344106,
      "v": 65
    },
    {
      "midi": 39,
      "hit": false,
      "t": 333113.9798541667,
      "d": 2025.860583333415,
      "v": 57
    },
    {
      "midi": 58,
      "hit": false,
      "t": 333631.2208541668,
      "d": 215.51708333333954,
      "v": 29
    },
    {
      "midi": 58,
      "hit": false,
      "t": 334148.46185416676,
      "d": 334.05147916666465,
      "v": 57
    },
    {
      "midi": 63,
      "hit": false,
      "t": 334148.46185416676,
      "d": 490.30136458331253,
      "v": 65
    },
    {
      "midi": 67,
      "hit": false,
      "t": 334148.46185416676,
      "d": 517.24099999998,
      "v": 69
    },
    {
      "midi": 58,
      "hit": false,
      "t": 334665.70285416674,
      "d": 242.45671875000698,
      "v": 31
    },
    {
      "midi": 58,
      "hit": false,
      "t": 335182.9438541668,
      "d": 414.870385416667,
      "v": 54
    },
    {
      "midi": 65,
      "hit": false,
      "t": 335182.9438541668,
      "d": 528.0168541666353,
      "v": 62
    },
    {
      "midi": 62,
      "hit": false,
      "t": 335182.9438541668,
      "d": 533.4047812499921,
      "v": 62
    },
    {
      "midi": 46,
      "hit": false,
      "t": 335182.9438541668,
      "d": 2025.8605833333568,
      "v": 54
    },
    {
      "midi": 58,
      "hit": false,
      "t": 335700.18485416676,
      "d": 220.9050104166963,
      "v": 34
    },
    {
      "midi": 58,
      "hit": false,
      "t": 336217.4258541668,
      "d": 334.05147916666465,
      "v": 54
    },
    {
      "midi": 62,
      "hit": false,
      "t": 336217.4258541668,
      "d": 495.6892916666693,
      "v": 62
    },
    {
      "midi": 65,
      "hit": false,
      "t": 336217.4258541668,
      "d": 533.4047812499921,
      "v": 62
    },
    {
      "midi": 58,
      "hit": false,
      "t": 336734.6668541668,
      "d": 193.96537500002887,
      "v": 40
    },
    {
      "midi": 58,
      "hit": false,
      "t": 337251.9078541668,
      "d": 382.54282291670097,
      "v": 57
    },
    {
      "midi": 63,
      "hit": false,
      "t": 337251.9078541668,
      "d": 468.74965625006007,
      "v": 62
    },
    {
      "midi": 67,
      "hit": false,
      "t": 337251.9078541668,
      "d": 484.9134375000722,
      "v": 69
    },
    {
      "midi": 39,
      "hit": false,
      "t": 337251.9078541668,
      "d": 1384.6972604167531,
      "v": 44
    },
    {
      "midi": 58,
      "hit": false,
      "t": 337769.1488541669,
      "d": 215.51708333333954,
      "v": 30
    },
    {
      "midi": 58,
      "hit": false,
      "t": 338286.3898541669,
      "d": 231.68086458335165,
      "v": 44
    },
    {
      "midi": 63,
      "hit": false,
      "t": 338286.3898541669,
      "d": 328.6635520833661,
      "v": 60
    },
    {
      "midi": 67,
      "hit": false,
      "t": 338286.3898541669,
      "d": 360.9911145833321,
      "v": 54
    },
    {
      "midi": 58,
      "hit": false,
      "t": 338803.63085416687,
      "d": 113.14646875002654,
      "v": 31
    },
    {
      "midi": 58,
      "hit": false,
      "t": 339320.8718541669,
      "d": 387.93074999999953,
      "v": 69
    },
    {
      "midi": 63,
      "hit": false,
      "t": 339320.8718541669,
      "d": 479.5255104166572,
      "v": 65
    },
    {
      "midi": 67,
      "hit": false,
      "t": 339320.8718541669,
      "d": 484.91343750001397,
      "v": 77
    },
    {
      "midi": 39,
      "hit": false,
      "t": 339320.8718541669,
      "d": 3771.5489583333256,
      "v": 49
    },
    {
      "midi": 58,
      "hit": false,
      "t": 339838.11285416695,
      "d": 247.84464583330555,
      "v": 23
    },
    {
      "midi": 58,
      "hit": false,
      "t": 340355.3538541669,
      "d": 350.21526041667676,
      "v": 51
    },
    {
      "midi": 63,
      "hit": false,
      "t": 340355.3538541669,
      "d": 468.74965625000186,
      "v": 57
    },
    {
      "midi": 67,
      "hit": false,
      "t": 340355.3538541669,
      "d": 468.74965625000186,
      "v": 62
    },
    {
      "midi": 58,
      "hit": false,
      "t": 340872.5948541669,
      "d": 274.784281249973,
      "v": 30
    },
    {
      "midi": 58,
      "hit": false,
      "t": 341389.8358541669,
      "d": 339.4394062500214,
      "v": 57
    },
    {
      "midi": 63,
      "hit": false,
      "t": 341389.8358541669,
      "d": 409.4824583333684,
      "v": 65
    },
    {
      "midi": 67,
      "hit": false,
      "t": 341389.8358541669,
      "d": 431.0341666666791,
      "v": 69
    },
    {
      "midi": 58,
      "hit": false,
      "t": 341907.0768541669,
      "d": 210.12915624998277,
      "v": 20
    },
    {
      "midi": 58,
      "hit": false,
      "t": 342424.3178541669,
      "d": 264.00842708331766,
      "v": 47
    },
    {
      "midi": 63,
      "hit": false,
      "t": 342424.3178541669,
      "d": 371.7669687499874,
      "v": 57
    },
    {
      "midi": 67,
      "hit": false,
      "t": 342424.3178541669,
      "d": 425.6462395833223,
      "v": 62
    },
    {
      "midi": 58,
      "hit": false,
      "t": 342941.5588541669,
      "d": 172.41366666666,
      "v": 19
    },
    {
      "midi": 58,
      "hit": false,
      "t": 343458.79985416686,
      "d": 371.7669687499874,
      "v": 62
    },
    {
      "midi": 63,
      "hit": false,
      "t": 343458.79985416686,
      "d": 436.42209374997765,
      "v": 73
    },
    {
      "midi": 66,
      "hit": false,
      "t": 343458.79985416686,
      "d": 468.74965625000186,
      "v": 60
    },
    {
      "midi": 39,
      "hit": false,
      "t": 343458.79985416686,
      "d": 3776.936885416624,
      "v": 62
    },
    {
      "midi": 58,
      "hit": false,
      "t": 343976.04085416684,
      "d": 129.31024999998044,
      "v": 28
    },
    {
      "midi": 58,
      "hit": false,
      "t": 344493.2818541668,
      "d": 344.82733333332,
      "v": 45
    },
    {
      "midi": 63,
      "hit": false,
      "t": 344493.2818541668,
      "d": 420.25831249996554,
      "v": 69
    },
    {
      "midi": 66,
      "hit": false,
      "t": 344493.2818541668,
      "d": 436.42209374997765,
      "v": 60
    },
    {
      "midi": 58,
      "hit": false,
      "t": 345010.5228541668,
      "d": 140.08610416669399,
      "v": 9
    },
    {
      "midi": 58,
      "hit": false,
      "t": 345527.76385416684,
      "d": 307.1118437499972,
      "v": 45
    },
    {
      "midi": 63,
      "hit": false,
      "t": 345527.76385416684,
      "d": 404.09453125001164,
      "v": 57
    },
    {
      "midi": 66,
      "hit": false,
      "t": 345527.76385416684,
      "d": 447.1979479166912,
      "v": 49
    },
    {
      "midi": 58,
      "hit": false,
      "t": 346045.0048541669,
      "d": 107.75854166666977,
      "v": 29
    },
    {
      "midi": 58,
      "hit": false,
      "t": 346562.24585416686,
      "d": 247.84464583330555,
      "v": 57
    },
    {
      "midi": 63,
      "hit": false,
      "t": 346562.24585416686,
      "d": 441.8100208333344,
      "v": 57
    },
    {
      "midi": 66,
      "hit": false,
      "t": 346562.24585416686,
      "d": 463.3617291666451,
      "v": 60
    },
    {
      "midi": 58,
      "hit": false,
      "t": 347079.48685416684,
      "d": 91.59476041665766,
      "v": 29
    },
    {
      "midi": 34,
      "hit": false,
      "t": 355872.58385416685,
      "d": 4164.867635416682,
      "v": 42
    },
    {
      "midi": 46,
      "hit": false,
      "t": 355872.58385416685,
      "d": 4164.867635416682,
      "v": 44
    }
  ]
}