{
  "jsonPath": "Rock/Indie Rock/Rainbow/street-of-dreams.json",
  "path": "Rock\\Indie Rock\\Rainbow\\Street Of Dreams.mid",
  "name": "Street Of Dreams",
  "difficulty": "Advanced",
  "bpm": 115.00024916720653,
  "notes": [
    {
      "midi": 45,
      "hit": false,
      "t": 2092.3867708333337,
      "d": 567.9335520833338,
      "v": 70
    },
    {
      "midi": 52,
      "hit": false,
      "t": 2353.255770833334,
      "d": 301.6297812500002,
      "v": 48
    },
    {
      "midi": 57,
      "hit": false,
      "t": 2614.124770833334,
      "d": 195.65175,
      "v": 47
    },
    {
      "midi": 52,
      "hit": false,
      "t": 2874.993770833334,
      "d": 472.82506250000006,
      "v": 51
    },
    {
      "midi": 57,
      "hit": false,
      "t": 3396.7317708333344,
      "d": 255.43422916666668,
      "v": 60
    },
    {
      "midi": 52,
      "hit": false,
      "t": 3657.6007708333345,
      "d": 209.2386770833332,
      "v": 46
    },
    {
      "midi": 57,
      "hit": false,
      "t": 3918.469770833334,
      "d": 105.97803125000019,
      "v": 51
    },
    {
      "midi": 45,
      "hit": false,
      "t": 4440.2077708333345,
      "d": 222.82560416666638,
      "v": 54
    },
    {
      "midi": 57,
      "hit": false,
      "t": 4701.076770833334,
      "d": 168.4778958333336,
      "v": 58
    },
    {
      "midi": 52,
      "hit": false,
      "t": 4961.945770833335,
      "d": 228.26037499999984,
      "v": 41
    },
    {
      "midi": 57,
      "hit": false,
      "t": 5483.683770833335,
      "d": 165.76051041666688,
      "v": 57
    },
    {
      "midi": 52,
      "hit": false,
      "t": 5744.552770833336,
      "d": 211.95606250000037,
      "v": 47
    },
    {
      "midi": 61,
      "hit": false,
      "t": 6005.421770833336,
      "d": 149.4561979166665,
      "v": 52
    },
    {
      "midi": 45,
      "hit": false,
      "t": 6266.290770833336,
      "d": 548.9118541666658,
      "v": 70
    },
    {
      "midi": 52,
      "hit": false,
      "t": 6527.159770833336,
      "d": 298.912395833333,
      "v": 50
    },
    {
      "midi": 57,
      "hit": false,
      "t": 6788.028770833335,
      "d": 144.02142708333304,
      "v": 48
    },
    {
      "midi": 61,
      "hit": false,
      "t": 7048.897770833335,
      "d": 510.86845833333336,
      "v": 61
    },
    {
      "midi": 52,
      "hit": false,
      "t": 7570.635770833335,
      "d": 557.064010416666,
      "v": 47
    },
    {
      "midi": 57,
      "hit": false,
      "t": 7831.504770833335,
      "d": 285.32546874999935,
      "v": 50
    },
    {
      "midi": 45,
      "hit": false,
      "t": 8092.373770833335,
      "d": 182.06482291666634,
      "v": 53
    },
    {
      "midi": 52,
      "hit": false,
      "t": 8353.242770833334,
      "d": 331.52102083333375,
      "v": 57
    },
    {
      "midi": 45,
      "hit": false,
      "t": 8614.111770833335,
      "d": 342.39056250000067,
      "v": 52
    },
    {
      "midi": 57,
      "hit": false,
      "t": 8874.980770833336,
      "d": 173.91266666666706,
      "v": 55
    },
    {
      "midi": 52,
      "hit": false,
      "t": 9135.849770833336,
      "d": 247.28207291666695,
      "v": 58
    },
    {
      "midi": 61,
      "hit": false,
      "t": 9657.587770833336,
      "d": 201.08652083333254,
      "v": 54
    },
    {
      "midi": 52,
      "hit": false,
      "t": 9918.456770833334,
      "d": 230.97776041666657,
      "v": 53
    },
    {
      "midi": 57,
      "hit": false,
      "t": 10179.325770833335,
      "d": 138.58665624999958,
      "v": 61
    },
    {
      "midi": 45,
      "hit": false,
      "t": 10440.194770833335,
      "d": 1592.3878541666672,
      "v": 80
    },
    {
      "midi": 52,
      "hit": false,
      "t": 10701.063770833336,
      "d": 820.6503958333342,
      "v": 72
    },
    {
      "midi": 57,
      "hit": false,
      "t": 10961.932770833337,
      "d": 233.6951458333333,
      "v": 61
    },
    {
      "midi": 59,
      "hit": false,
      "t": 11222.801770833337,
      "d": 146.73881249999977,
      "v": 63
    },
    {
      "midi": 57,
      "hit": false,
      "t": 12266.277770833336,
      "d": 279.8906979166677,
      "v": 48
    },
    {
      "midi": 45,
      "hit": false,
      "t": 12527.146770833337,
      "d": 1505.4315208333373,
      "v": 44
    },
    {
      "midi": 52,
      "hit": false,
      "t": 12918.450270833338,
      "d": 1146.7366458333363,
      "v": 40
    },
    {
      "midi": 64,
      "hit": false,
      "t": 13570.622770833339,
      "d": 269.0211562500008,
      "v": 87
    },
    {
      "midi": 61,
      "hit": false,
      "t": 14092.360770833342,
      "d": 116.84757291666756,
      "v": 95
    },
    {
      "midi": 55,
      "hit": false,
      "t": 14614.098770833343,
      "d": 1013.5847604166684,
      "v": 52
    },
    {
      "midi": 59,
      "hit": false,
      "t": 14614.098770833343,
      "d": 1016.3021458333351,
      "v": 54
    },
    {
      "midi": 43,
      "hit": false,
      "t": 14614.098770833343,
      "d": 3695.6441666666706,
      "v": 41
    },
    {
      "midi": 50,
      "hit": false,
      "t": 15657.574770833346,
      "d": 149.4561979166665,
      "v": 36
    },
    {
      "midi": 55,
      "hit": false,
      "t": 15918.443770833346,
      "d": 190.21697916666744,
      "v": 29
    },
    {
      "midi": 59,
      "hit": false,
      "t": 16179.312770833347,
      "d": 176.6300520833338,
      "v": 28
    },
    {
      "midi": 50,
      "hit": false,
      "t": 16440.181770833347,
      "d": 459.23813541666823,
      "v": 42
    },
    {
      "midi": 55,
      "hit": false,
      "t": 16701.050770833346,
      "d": 201.08652083333436,
      "v": 48
    },
    {
      "midi": 59,
      "hit": false,
      "t": 16961.91977083335,
      "d": 163.04312500000015,
      "v": 47
    },
    {
      "midi": 50,
      "hit": false,
      "t": 17222.788770833347,
      "d": 95.10848958333372,
      "v": 39
    },
    {
      "midi": 57,
      "hit": false,
      "t": 17744.52677083335,
      "d": 271.7385416666657,
      "v": 95
    },
    {
      "midi": 55,
      "hit": false,
      "t": 18005.395770833347,
      "d": 255.43422916666532,
      "v": 82
    },
    {
      "midi": 57,
      "hit": false,
      "t": 18266.264770833346,
      "d": 288.0428541666697,
      "v": 78
    },
    {
      "midi": 55,
      "hit": false,
      "t": 18527.13377083335,
      "d": 277.17331249999916,
      "v": 93
    },
    {
      "midi": 45,
      "hit": false,
      "t": 18788.002770833347,
      "d": 2733.6897291666683,
      "v": 87
    },
    {
      "midi": 52,
      "hit": false,
      "t": 19048.871770833346,
      "d": 2266.2994375000017,
      "v": 68
    },
    {
      "midi": 57,
      "hit": false,
      "t": 21135.823770833347,
      "d": 201.08652083333436,
      "v": 46
    },
    {
      "midi": 57,
      "hit": false,
      "t": 21657.56177083335,
      "d": 146.73881249999977,
      "v": 58
    },
    {
      "midi": 61,
      "hit": false,
      "t": 21918.430770833347,
      "d": 304.34716666666645,
      "v": 70
    },
    {
      "midi": 64,
      "hit": false,
      "t": 22440.16877083335,
      "d": 249.99945833333186,
      "v": 93
    },
    {
      "midi": 55,
      "hit": false,
      "t": 22961.906770833346,
      "d": 847.8242500000051,
      "v": 63
    },
    {
      "midi": 62,
      "hit": false,
      "t": 23483.644770833347,
      "d": 233.69514583333512,
      "v": 57
    },
    {
      "midi": 67,
      "hit": false,
      "t": 23744.51377083335,
      "d": 92.39110416666881,
      "v": 41
    },
    {
      "midi": 43,
      "hit": false,
      "t": 24527.120770833353,
      "d": 2154.886635416664,
      "v": 49
    },
    {
      "midi": 50,
      "hit": false,
      "t": 24787.989770833356,
      "d": 885.8676458333284,
      "v": 72
    },
    {
      "midi": 55,
      "hit": false,
      "t": 25048.858770833354,
      "d": 290.760239583331,
      "v": 42
    },
    {
      "midi": 55,
      "hit": false,
      "t": 25570.596770833352,
      "d": 165.76051041666506,
      "v": 41
    },
    {
      "midi": 50,
      "hit": false,
      "t": 25831.46577083335,
      "d": 81.52156249999825,
      "v": 40
    },
    {
      "midi": 55,
      "hit": false,
      "t": 26092.33477083335,
      "d": 279.8906979166677,
      "v": 100
    },
    {
      "midi": 54,
      "hit": false,
      "t": 26353.203770833352,
      "d": 258.15161458333387,
      "v": 78
    },
    {
      "midi": 55,
      "hit": false,
      "t": 26614.07277083335,
      "d": 326.0862500000003,
      "v": 82
    },
    {
      "midi": 52,
      "hit": false,
      "t": 27135.810770833352,
      "d": 1657.6051041666688,
      "v": 68
    },
    {
      "midi": 45,
      "hit": false,
      "t": 27135.810770833352,
      "d": 1847.8220833333362,
      "v": 80
    },
    {
      "midi": 57,
      "hit": false,
      "t": 28440.155770833353,
      "d": 475.5424479166686,
      "v": 64
    },
    {
      "midi": 61,
      "hit": false,
      "t": 28440.155770833353,
      "d": 483.694604166667,
      "v": 62
    },
    {
      "midi": 52,
      "hit": false,
      "t": 28961.893770833354,
      "d": 157.6083541666667,
      "v": 89
    },
    {
      "midi": 45,
      "hit": false,
      "t": 29222.762770833357,
      "d": 1554.3444583333367,
      "v": 89
    },
    {
      "midi": 52,
      "hit": false,
      "t": 29483.631770833355,
      "d": 1288.0406875000044,
      "v": 68
    },
    {
      "midi": 55,
      "hit": false,
      "t": 29744.500770833354,
      "d": 133.15188541666794,
      "v": 68
    },
    {
      "midi": 55,
      "hit": false,
      "t": 30005.369770833357,
      "d": 728.259291666669,
      "v": 85
    },
    {
      "midi": 61,
      "hit": false,
      "t": 30005.369770833357,
      "d": 749.9983750000029,
      "v": 85
    },
    {
      "midi": 50,
      "hit": false,
      "t": 31309.71477083336,
      "d": 1114.1280208333337,
      "v": 91
    },
    {
      "midi": 62,
      "hit": false,
      "t": 32614.059770833363,
      "d": 249.9994583333355,
      "v": 64
    },
    {
      "midi": 66,
      "hit": false,
      "t": 32874.928770833365,
      "d": 81.52156249999825,
      "v": 44
    },
    {
      "midi": 52,
      "hit": false,
      "t": 33396.66677083336,
      "d": 535.324927083333,
      "v": 34
    },
    {
      "midi": 56,
      "hit": false,
      "t": 33396.66677083336,
      "d": 720.1071354166634,
      "v": 43
    },
    {
      "midi": 40,
      "hit": false,
      "t": 33396.66677083336,
      "d": 855.9764062499962,
      "v": 57
    },
    {
      "midi": 59,
      "hit": false,
      "t": 33396.66677083336,
      "d": 872.280718749993,
      "v": 30
    },
    {
      "midi": 47,
      "hit": false,
      "t": 33918.40477083336,
      "d": 233.69514583333512,
      "v": 52
    },
    {
      "midi": 52,
      "hit": false,
      "t": 34179.27377083336,
      "d": 385.8687291666647,
      "v": 55
    },
    {
      "midi": 56,
      "hit": false,
      "t": 34440.14277083336,
      "d": 179.34743750000052,
      "v": 46
    },
    {
      "midi": 59,
      "hit": false,
      "t": 34701.01177083336,
      "d": 114.13018749999901,
      "v": 57
    },
    {
      "midi": 49,
      "hit": false,
      "t": 35353.18427083336,
      "d": 567.933552083341,
      "v": 25
    },
    {
      "midi": 57,
      "hit": false,
      "t": 35353.18427083336,
      "d": 592.3900208333434,
      "v": 60
    },
    {
      "midi": 54,
      "hit": false,
      "t": 35483.61877083336,
      "d": 258.1516145833375,
      "v": 26
    },
    {
      "midi": 61,
      "hit": false,
      "t": 35483.61877083336,
      "d": 277.1733125000028,
      "v": 64
    },
    {
      "midi": 66,
      "hit": false,
      "t": 36005.356770833365,
      "d": 92.39110416666517,
      "v": 82
    },
    {
      "midi": 78,
      "hit": false,
      "t": 36527.09477083336,
      "d": 127.71711458333448,
      "v": 70
    },
    {
      "midi": 66,
      "hit": false,
      "t": 37048.83277083336,
      "d": 154.89096874999814,
      "v": 57
    },
    {
      "midi": 62,
      "hit": false,
      "t": 37570.57077083336,
      "d": 695.650666666661,
      "v": 60
    },
    {
      "midi": 57,
      "hit": false,
      "t": 37570.57077083336,
      "d": 815.2156249999971,
      "v": 51
    },
    {
      "midi": 66,
      "hit": false,
      "t": 37570.57077083336,
      "d": 1171.1931145833296,
      "v": 56
    },
    {
      "midi": 50,
      "hit": false,
      "t": 37570.57077083336,
      "d": 1404.8882604166574,
      "v": 41
    },
    {
      "midi": 62,
      "hit": false,
      "t": 38353.177770833354,
      "d": 353.26010416666395,
      "v": 49
    },
    {
      "midi": 57,
      "hit": false,
      "t": 38614.04677083335,
      "d": 353.26010416666395,
      "v": 53
    },
    {
      "midi": 62,
      "hit": false,
      "t": 38874.91577083335,
      "d": 198.3691354166658,
      "v": 60
    },
    {
      "midi": 66,
      "hit": false,
      "t": 39135.78477083335,
      "d": 114.13018749999901,
      "v": 51
    },
    {
      "midi": 45,
      "hit": false,
      "t": 39657.52277083335,
      "d": 1948.3653437499888,
      "v": 80
    },
    {
      "midi": 52,
      "hit": false,
      "t": 39918.39177083335,
      "d": 1701.0832708333255,
      "v": 87
    },
    {
      "midi": 61,
      "hit": false,
      "t": 40179.260770833345,
      "d": 124.99972916666593,
      "v": 105
    },
    {
      "midi": 57,
      "hit": false,
      "t": 40700.99877083334,
      "d": 260.8689999999988,
      "v": 89
    },
    {
      "midi": 61,
      "hit": false,
      "t": 40961.86777083334,
      "d": 146.73881249999977,
      "v": 72
    },
    {
      "midi": 64,
      "hit": false,
      "t": 41222.73677083334,
      "d": 366.8470312499994,
      "v": 91
    },
    {
      "midi": 62,
      "hit": false,
      "t": 41744.47477083334,
      "d": 1567.9313854166685,
      "v": 78
    },
    {
      "midi": 38,
      "hit": false,
      "t": 41744.47477083334,
      "d": 1570.648770833337,
      "v": 70
    },
    {
      "midi": 57,
      "hit": false,
      "t": 41744.47477083334,
      "d": 1584.2356979166725,
      "v": 64
    },
    {
      "midi": 66,
      "hit": false,
      "t": 41744.47477083334,
      "d": 1589.6704687500023,
      "v": 63
    },
    {
      "midi": 37,
      "hit": false,
      "t": 43831.42677083334,
      "d": 1377.714406250001,
      "v": 55
    },
    {
      "midi": 61,
      "hit": false,
      "t": 43831.42677083334,
      "d": 1456.5185833333308,
      "v": 60
    },
    {
      "midi": 57,
      "hit": false,
      "t": 43831.42677083334,
      "d": 1494.5619791666613,
      "v": 60
    },
    {
      "midi": 64,
      "hit": false,
      "t": 43831.42677083334,
      "d": 1505.4315208333282,
      "v": 55
    },
    {
      "midi": 47,
      "hit": false,
      "t": 45918.37877083334,
      "d": 1570.648770833337,
      "v": 80
    },
    {
      "midi": 40,
      "hit": false,
      "t": 48005.330770833345,
      "d": 600.5421770833273,
      "v": 70
    },
    {
      "midi": 52,
      "hit": false,
      "t": 48005.330770833345,
      "d": 1657.6051041666578,
      "v": 55
    },
    {
      "midi": 56,
      "hit": false,
      "t": 48005.330770833345,
      "d": 1709.2354270833239,
      "v": 60
    },
    {
      "midi": 59,
      "hit": false,
      "t": 48005.330770833345,
      "d": 1725.5397395833206,
      "v": 49
    },
    {
      "midi": 40,
      "hit": false,
      "t": 48787.93777083334,
      "d": 266.3037708333286,
      "v": 80
    },
    {
      "midi": 44,
      "hit": false,
      "t": 49048.80677083334,
      "d": 576.0857083333321,
      "v": 66
    },
    {
      "midi": 57,
      "hit": false,
      "t": 50092.282770833335,
      "d": 336.9557916666672,
      "v": 60
    },
    {
      "midi": 45,
      "hit": false,
      "t": 50092.282770833335,
      "d": 605.9769479166716,
      "v": 59
    },
    {
      "midi": 52,
      "hit": false,
      "t": 50353.151770833334,
      "d": 404.8904270833373,
      "v": 57
    },
    {
      "midi": 57,
      "hit": false,
      "t": 50614.02077083334,
      "d": 182.0648229166618,
      "v": 51
    },
    {
      "midi": 61,
      "hit": false,
      "t": 50874.88977083334,
      "d": 190.21697916666744,
      "v": 60
    },
    {
      "midi": 52,
      "hit": false,
      "t": 51135.75877083334,
      "d": 255.43422916666896,
      "v": 55
    },
    {
      "midi": 57,
      "hit": false,
      "t": 51396.62777083334,
      "d": 269.02115624999715,
      "v": 53
    },
    {
      "midi": 45,
      "hit": false,
      "t": 51657.496770833335,
      "d": 228.26037499999802,
      "v": 38
    },
    {
      "midi": 57,
      "hit": false,
      "t": 51918.365770833334,
      "d": 271.7385416666657,
      "v": 46
    },
    {
      "midi": 52,
      "hit": false,
      "t": 52179.23477083333,
      "d": 288.04285416666244,
      "v": 58
    },
    {
      "midi": 57,
      "hit": false,
      "t": 52440.10377083333,
      "d": 315.2167083333334,
      "v": 53
    },
    {
      "midi": 45,
      "hit": false,
      "t": 52700.97277083333,
      "d": 711.9549791666723,
      "v": 64
    },
    {
      "midi": 57,
      "hit": false,
      "t": 52961.84177083333,
      "d": 298.91239583333663,
      "v": 60
    },
    {
      "midi": 52,
      "hit": false,
      "t": 53483.579770833334,
      "d": 260.8689999999988,
      "v": 58
    },
    {
      "midi": 57,
      "hit": false,
      "t": 53744.44877083333,
      "d": 255.43422916666896,
      "v": 60
    },
    {
      "midi": 45,
      "hit": false,
      "t": 54005.31777083333,
      "d": 214.67344791666983,
      "v": 31
    },
    {
      "midi": 45,
      "hit": false,
      "t": 54266.18677083334,
      "d": 1592.3878541666636,
      "v": 80
    },
    {
      "midi": 52,
      "hit": false,
      "t": 54527.055770833336,
      "d": 820.6503958333342,
      "v": 72
    },
    {
      "midi": 57,
      "hit": false,
      "t": 54787.924770833335,
      "d": 233.69514583333512,
      "v": 61
    },
    {
      "midi": 59,
      "hit": false,
      "t": 55048.793770833334,
      "d": 146.73881249999977,
      "v": 63
    },
    {
      "midi": 57,
      "hit": false,
      "t": 56092.269770833336,
      "d": 279.89069791666407,
      "v": 48
    },
    {
      "midi": 45,
      "hit": false,
      "t": 56353.138770833335,
      "d": 1505.4315208333355,
      "v": 44
    },
    {
      "midi": 52,
      "hit": false,
      "t": 56744.44227083334,
      "d": 1146.7366458333345,
      "v": 40
    },
    {
      "midi": 64,
      "hit": false,
      "t": 57396.61477083334,
      "d": 269.02115624999715,
      "v": 87
    },
    {
      "midi": 61,
      "hit": false,
      "t": 57918.352770833335,
      "d": 116.84757291666756,
      "v": 95
    },
    {
      "midi": 55,
      "hit": false,
      "t": 58440.09077083333,
      "d": 1013.5847604166629,
      "v": 52
    },
    {
      "midi": 59,
      "hit": false,
      "t": 58440.09077083333,
      "d": 1016.3021458333315,
      "v": 54
    },
    {
      "midi": 43,
      "hit": false,
      "t": 58440.09077083333,
      "d": 3695.6441666666506,
      "v": 41
    },
    {
      "midi": 50,
      "hit": false,
      "t": 59483.56677083333,
      "d": 149.45619791666832,
      "v": 36
    },
    {
      "midi": 55,
      "hit": false,
      "t": 59744.43577083333,
      "d": 190.21697916666744,
      "v": 29
    },
    {
      "midi": 59,
      "hit": false,
      "t": 60005.304770833325,
      "d": 176.63005208333198,
      "v": 28
    },
    {
      "midi": 50,
      "hit": false,
      "t": 60266.173770833324,
      "d": 459.2381354166646,
      "v": 42
    },
    {
      "midi": 55,
      "hit": false,
      "t": 60527.04277083332,
      "d": 201.08652083333436,
      "v": 48
    },
    {
      "midi": 59,
      "hit": false,
      "t": 60787.91177083332,
      "d": 163.0431249999965,
      "v": 47
    },
    {
      "midi": 50,
      "hit": false,
      "t": 61048.78077083332,
      "d": 95.10848958333372,
      "v": 39
    },
    {
      "midi": 57,
      "hit": false,
      "t": 61570.51877083332,
      "d": 271.7385416666657,
      "v": 95
    },
    {
      "midi": 55,
      "hit": false,
      "t": 61831.38777083332,
      "d": 255.43422916666896,
      "v": 82
    },
    {
      "midi": 57,
      "hit": false,
      "t": 62092.256770833315,
      "d": 288.0428541666697,
      "v": 78
    },
    {
      "midi": 55,
      "hit": false,
      "t": 62353.12577083332,
      "d": 277.1733124999955,
      "v": 93
    },
    {
      "midi": 45,
      "hit": false,
      "t": 62613.99477083332,
      "d": 2733.689729166661,
      "v": 87
    },
    {
      "midi": 52,
      "hit": false,
      "t": 62874.86377083332,
      "d": 2266.299437499998,
      "v": 68
    },
    {
      "midi": 57,
      "hit": false,
      "t": 64961.81577083332,
      "d": 201.08652083333436,
      "v": 46
    },
    {
      "midi": 57,
      "hit": false,
      "t": 65483.553770833314,
      "d": 146.73881249999977,
      "v": 58
    },
    {
      "midi": 61,
      "hit": false,
      "t": 65744.42277083332,
      "d": 304.34716666667373,
      "v": 70
    },
    {
      "midi": 64,
      "hit": false,
      "t": 66266.16077083333,
      "d": 249.99945833333186,
      "v": 93
    },
    {
      "midi": 55,
      "hit": false,
      "t": 66787.89877083333,
      "d": 847.8242500000197,
      "v": 63
    },
    {
      "midi": 62,
      "hit": false,
      "t": 67309.63677083334,
      "d": 233.69514583333512,
      "v": 57
    },
    {
      "midi": 67,
      "hit": false,
      "t": 67570.50577083335,
      "d": 92.39110416667245,
      "v": 41
    },
    {
      "midi": 43,
      "hit": false,
      "t": 68353.11277083335,
      "d": 2154.8866354166967,
      "v": 49
    },
    {
      "midi": 50,
      "hit": false,
      "t": 68613.98177083336,
      "d": 885.8676458333357,
      "v": 72
    },
    {
      "midi": 55,
      "hit": false,
      "t": 68874.85077083336,
      "d": 290.76023958333826,
      "v": 42
    },
    {
      "midi": 55,
      "hit": false,
      "t": 69396.58877083336,
      "d": 165.76051041667233,
      "v": 41
    },
    {
      "midi": 50,
      "hit": false,
      "t": 69657.45777083337,
      "d": 81.52156249999825,
      "v": 40
    },
    {
      "midi": 55,
      "hit": false,
      "t": 69918.32677083337,
      "d": 279.8906979166786,
      "v": 100
    },
    {
      "midi": 54,
      "hit": false,
      "t": 70179.19577083338,
      "d": 258.1516145833448,
      "v": 78
    },
    {
      "midi": 55,
      "hit": false,
      "t": 70440.06477083339,
      "d": 326.08625000000757,
      "v": 82
    },
    {
      "midi": 52,
      "hit": false,
      "t": 70961.80277083338,
      "d": 1657.6051041666506,
      "v": 68
    },
    {
      "midi": 45,
      "hit": false,
      "t": 70961.80277083338,
      "d": 1847.822083333318,
      "v": 80
    },
    {
      "midi": 57,
      "hit": false,
      "t": 72266.14777083337,
      "d": 475.5424479166686,
      "v": 64
    },
    {
      "midi": 61,
      "hit": false,
      "t": 72266.14777083337,
      "d": 483.694604166667,
      "v": 62
    },
    {
      "midi": 52,
      "hit": false,
      "t": 72787.88577083337,
      "d": 157.60835416667396,
      "v": 89
    },
    {
      "midi": 45,
      "hit": false,
      "t": 73048.75477083337,
      "d": 1554.3444583333185,
      "v": 89
    },
    {
      "midi": 52,
      "hit": false,
      "t": 73309.62377083338,
      "d": 1288.0406874999753,
      "v": 68
    },
    {
      "midi": 55,
      "hit": false,
      "t": 73570.49277083337,
      "d": 133.1518854166643,
      "v": 68
    },
    {
      "midi": 55,
      "hit": false,
      "t": 73831.36177083336,
      "d": 728.2592916666617,
      "v": 85
    },
    {
      "midi": 61,
      "hit": false,
      "t": 73831.36177083336,
      "d": 749.9983749999956,
      "v": 85
    },
    {
      "midi": 50,
      "hit": false,
      "t": 75135.70677083335,
      "d": 1114.1280208333337,
      "v": 91
    },
    {
      "midi": 62,
      "hit": false,
      "t": 76440.05177083335,
      "d": 249.99945833333186,
      "v": 64
    },
    {
      "midi": 66,
      "hit": false,
      "t": 76700.92077083334,
      "d": 81.52156249999825,
      "v": 44
    },
    {
      "midi": 52,
      "hit": false,
      "t": 77222.65877083334,
      "d": 535.324927083333,
      "v": 34
    },
    {
      "midi": 56,
      "hit": false,
      "t": 77222.65877083334,
      "d": 720.1071354166634,
      "v": 43
    },
    {
      "midi": 40,
      "hit": false,
      "t": 77222.65877083334,
      "d": 855.9764062500035,
      "v": 57
    },
    {
      "midi": 59,
      "hit": false,
      "t": 77222.65877083334,
      "d": 872.2807187500002,
      "v": 30
    },
    {
      "midi": 47,
      "hit": false,
      "t": 77744.39677083334,
      "d": 233.69514583333512,
      "v": 52
    },
    {
      "midi": 52,
      "hit": false,
      "t": 78005.26577083334,
      "d": 385.86872916665743,
      "v": 55
    },
    {
      "midi": 56,
      "hit": false,
      "t": 78266.13477083333,
      "d": 179.34743749999325,
      "v": 46
    },
    {
      "midi": 59,
      "hit": false,
      "t": 78527.00377083333,
      "d": 114.13018750000629,
      "v": 57
    },
    {
      "midi": 49,
      "hit": false,
      "t": 79179.17627083333,
      "d": 567.9335520833265,
      "v": 25
    },
    {
      "midi": 57,
      "hit": false,
      "t": 79179.17627083333,
      "d": 592.3900208333216,
      "v": 60
    },
    {
      "midi": 54,
      "hit": false,
      "t": 79309.61077083331,
      "d": 258.15161458333023,
      "v": 26
    },
    {
      "midi": 61,
      "hit": false,
      "t": 79309.61077083331,
      "d": 277.1733125000028,
      "v": 64
    },
    {
      "midi": 66,
      "hit": false,
      "t": 79831.34877083331,
      "d": 92.39110416667245,
      "v": 82
    },
    {
      "midi": 78,
      "hit": false,
      "t": 80353.08677083332,
      "d": 127.7171145833272,
      "v": 70
    },
    {
      "midi": 66,
      "hit": false,
      "t": 80874.82477083332,
      "d": 154.89096874999814,
      "v": 57
    },
    {
      "midi": 62,
      "hit": false,
      "t": 81396.56277083332,
      "d": 695.6506666666683,
      "v": 60
    },
    {
      "midi": 57,
      "hit": false,
      "t": 81396.56277083332,
      "d": 815.2156249999971,
      "v": 51
    },
    {
      "midi": 66,
      "hit": false,
      "t": 81396.56277083332,
      "d": 1171.1931145833369,
      "v": 56
    },
    {
      "midi": 50,
      "hit": false,
      "t": 81396.56277083332,
      "d": 1404.888260416672,
      "v": 41
    },
    {
      "midi": 62,
      "hit": false,
      "t": 82179.16977083332,
      "d": 353.26010416666395,
      "v": 49
    },
    {
      "midi": 57,
      "hit": false,
      "t": 82440.03877083331,
      "d": 353.2601041666785,
      "v": 53
    },
    {
      "midi": 62,
      "hit": false,
      "t": 82700.90777083332,
      "d": 198.3691354166658,
      "v": 60
    },
    {
      "midi": 66,
      "hit": false,
      "t": 82961.77677083333,
      "d": 114.13018750000629,
      "v": 51
    },
    {
      "midi": 45,
      "hit": false,
      "t": 83483.51477083332,
      "d": 1948.3653437500034,
      "v": 80
    },
    {
      "midi": 52,
      "hit": false,
      "t": 83744.38377083333,
      "d": 1701.0832708333328,
      "v": 87
    },
    {
      "midi": 61,
      "hit": false,
      "t": 84005.25277083334,
      "d": 124.99972916666593,
      "v": 105
    },
    {
      "midi": 57,
      "hit": false,
      "t": 84526.99077083335,
      "d": 260.8689999999915,
      "v": 89
    },
    {
      "midi": 61,
      "hit": false,
      "t": 84787.85977083334,
      "d": 146.73881249999977,
      "v": 72
    },
    {
      "midi": 64,
      "hit": false,
      "t": 85048.72877083333,
      "d": 366.8470312499994,
      "v": 91
    },
    {
      "midi": 62,
      "hit": false,
      "t": 85570.46677083333,
      "d": 1567.9313854166685,
      "v": 78
    },
    {
      "midi": 38,
      "hit": false,
      "t": 85570.46677083333,
      "d": 1570.6487708333298,
      "v": 70
    },
    {
      "midi": 57,
      "hit": false,
      "t": 85570.46677083333,
      "d": 1584.2356979166652,
      "v": 64
    },
    {
      "midi": 66,
      "hit": false,
      "t": 85570.46677083333,
      "d": 1589.6704687500023,
      "v": 63
    },
    {
      "midi": 37,
      "hit": false,
      "t": 87657.41877083333,
      "d": 1377.714406250001,
      "v": 55
    },
    {
      "midi": 61,
      "hit": false,
      "t": 87657.41877083333,
      "d": 1456.518583333338,
      "v": 60
    },
    {
      "midi": 57,
      "hit": false,
      "t": 87657.41877083333,
      "d": 1494.5619791666686,
      "v": 60
    },
    {
      "midi": 64,
      "hit": false,
      "t": 87657.41877083333,
      "d": 1505.4315208333282,
      "v": 55
    },
    {
      "midi": 47,
      "hit": false,
      "t": 89744.37077083332,
      "d": 1570.6487708333298,
      "v": 80
    },
    {
      "midi": 40,
      "hit": false,
      "t": 91831.32277083331,
      "d": 600.5421770833491,
      "v": 70
    },
    {
      "midi": 52,
      "hit": false,
      "t": 91831.32277083331,
      "d": 1657.6051041666651,
      "v": 55
    },
    {
      "midi": 56,
      "hit": false,
      "t": 91831.32277083331,
      "d": 1709.2354270833312,
      "v": 60
    },
    {
      "midi": 59,
      "hit": false,
      "t": 91831.32277083331,
      "d": 1725.539739583328,
      "v": 49
    },
    {
      "midi": 40,
      "hit": false,
      "t": 92613.92977083332,
      "d": 266.30377083334315,
      "v": 80
    },
    {
      "midi": 44,
      "hit": false,
      "t": 92874.79877083332,
      "d": 576.0857083333249,
      "v": 66
    },
    {
      "midi": 57,
      "hit": false,
      "t": 93918.2747708333,
      "d": 336.9557916666672,
      "v": 60
    },
    {
      "midi": 45,
      "hit": false,
      "t": 93918.2747708333,
      "d": 605.9769479166571,
      "v": 59
    },
    {
      "midi": 52,
      "hit": false,
      "t": 94179.14377083331,
      "d": 404.89042708331544,
      "v": 57
    },
    {
      "midi": 57,
      "hit": false,
      "t": 94440.0127708333,
      "d": 182.06482291665452,
      "v": 51
    },
    {
      "midi": 61,
      "hit": false,
      "t": 94700.8817708333,
      "d": 190.21697916666744,
      "v": 60
    },
    {
      "midi": 52,
      "hit": false,
      "t": 94961.7507708333,
      "d": 255.43422916666896,
      "v": 55
    },
    {
      "midi": 57,
      "hit": false,
      "t": 95222.6197708333,
      "d": 269.0211562500044,
      "v": 53
    },
    {
      "midi": 45,
      "hit": false,
      "t": 95483.48877083331,
      "d": 228.26037499999802,
      "v": 38
    },
    {
      "midi": 57,
      "hit": false,
      "t": 95744.3577708333,
      "d": 271.7385416666657,
      "v": 46
    },
    {
      "midi": 52,
      "hit": false,
      "t": 96005.22677083331,
      "d": 288.04285416666244,
      "v": 58
    },
    {
      "midi": 57,
      "hit": false,
      "t": 96266.0957708333,
      "d": 315.2167083333334,
      "v": 53
    },
    {
      "midi": 45,
      "hit": false,
      "t": 96526.9647708333,
      "d": 711.954979166665,
      "v": 64
    },
    {
      "midi": 57,
      "hit": false,
      "t": 96787.8337708333,
      "d": 298.91239583333663,
      "v": 60
    },
    {
      "midi": 52,
      "hit": false,
      "t": 97309.57177083331,
      "d": 260.86900000000605,
      "v": 58
    },
    {
      "midi": 57,
      "hit": false,
      "t": 97570.44077083332,
      "d": 255.43422916666896,
      "v": 60
    },
    {
      "midi": 45,
      "hit": false,
      "t": 97831.30977083332,
      "d": 214.67344791666255,
      "v": 31
    },
    {
      "midi": 55,
      "hit": false,
      "t": 98092.17877083331,
      "d": 804.3460833333374,
      "v": 48
    },
    {
      "midi": 62,
      "hit": false,
      "t": 98092.17877083331,
      "d": 826.0851666666713,
      "v": 41
    },
    {
      "midi": 59,
      "hit": false,
      "t": 98092.17877083331,
      "d": 839.6720937500068,
      "v": 43
    },
    {
      "midi": 43,
      "hit": false,
      "t": 98092.17877083331,
      "d": 1108.6932500000112,
      "v": 43
    },
    {
      "midi": 50,
      "hit": false,
      "t": 98874.78577083332,
      "d": 247.2820729166706,
      "v": 58
    },
    {
      "midi": 55,
      "hit": false,
      "t": 99135.65477083332,
      "d": 255.43422916666896,
      "v": 57
    },
    {
      "midi": 43,
      "hit": false,
      "t": 99396.52377083333,
      "d": 562.4987812499894,
      "v": 50
    },
    {
      "midi": 55,
      "hit": false,
      "t": 99787.82727083332,
      "d": 614.1291041666555,
      "v": 57
    },
    {
      "midi": 43,
      "hit": false,
      "t": 100179.13077083332,
      "d": 1451.0838124999864,
      "v": 70
    },
    {
      "midi": 50,
      "hit": false,
      "t": 100439.99977083331,
      "d": 293.477624999985,
      "v": 64
    },
    {
      "midi": 55,
      "hit": false,
      "t": 100700.8687708333,
      "d": 168.4778958333336,
      "v": 68
    },
    {
      "midi": 59,
      "hit": false,
      "t": 100961.73777083331,
      "d": 502.716302083325,
      "v": 107
    },
    {
      "midi": 50,
      "hit": false,
      "t": 101222.6067708333,
      "d": 391.3035000000091,
      "v": 74
    },
    {
      "midi": 55,
      "hit": false,
      "t": 101483.4757708333,
      "d": 244.56468749999476,
      "v": 74
    },
    {
      "midi": 59,
      "hit": false,
      "t": 101744.3447708333,
      "d": 154.89096874999814,
      "v": 42
    },
    {
      "midi": 62,
      "hit": false,
      "t": 102005.21377083329,
      "d": 116.84757291666756,
      "v": 43
    },
    {
      "midi": 45,
      "hit": false,
      "t": 102266.0827708333,
      "d": 842.3894791666826,
      "v": 85
    },
    {
      "midi": 52,
      "hit": false,
      "t": 102526.9517708333,
      "d": 554.3466250000056,
      "v": 64
    },
    {
      "midi": 57,
      "hit": false,
      "t": 102787.8207708333,
      "d": 331.5210208333301,
      "v": 56
    },
    {
      "midi": 45,
      "hit": false,
      "t": 103309.5587708333,
      "d": 1225.5408229166787,
      "v": 51
    },
    {
      "midi": 52,
      "hit": false,
      "t": 103570.42777083331,
      "d": 885.8676458333357,
      "v": 46
    },
    {
      "midi": 57,
      "hit": false,
      "t": 103831.2967708333,
      "d": 1342.3883958333463,
      "v": 60
    },
    {
      "midi": 45,
      "hit": false,
      "t": 104874.77277083331,
      "d": 654.8898854166764,
      "v": 57
    },
    {
      "midi": 52,
      "hit": false,
      "t": 105135.64177083332,
      "d": 432.06428125000093,
      "v": 72
    },
    {
      "midi": 57,
      "hit": false,
      "t": 105396.51077083331,
      "d": 524.4553854166734,
      "v": 68
    },
    {
      "midi": 45,
      "hit": false,
      "t": 105657.37977083331,
      "d": 383.15134374999616,
      "v": 59
    },
    {
      "midi": 52,
      "hit": false,
      "t": 105918.24877083332,
      "d": 149.45619791666104,
      "v": 70
    },
    {
      "midi": 64,
      "hit": false,
      "t": 106179.11777083331,
      "d": 165.76051041667233,
      "v": 62
    },
    {
      "midi": 43,
      "hit": false,
      "t": 106439.98677083332,
      "d": 1135.8671041666676,
      "v": 64
    },
    {
      "midi": 50,
      "hit": false,
      "t": 106961.72477083332,
      "d": 233.69514583332057,
      "v": 61
    },
    {
      "midi": 55,
      "hit": false,
      "t": 107222.59377083331,
      "d": 190.21697916666744,
      "v": 60
    },
    {
      "midi": 59,
      "hit": false,
      "t": 107483.46277083331,
      "d": 187.49959375000617,
      "v": 55
    },
    {
      "midi": 43,
      "hit": false,
      "t": 107744.33177083332,
      "d": 2548.9075208333525,
      "v": 57
    },
    {
      "midi": 55,
      "hit": false,
      "t": 108266.06977083332,
      "d": 404.89042708334455,
      "v": 53
    },
    {
      "midi": 50,
      "hit": false,
      "t": 108526.93877083332,
      "d": 486.4119895833428,
      "v": 55
    },
    {
      "midi": 55,
      "hit": false,
      "t": 108787.80777083333,
      "d": 220.10821874999965,
      "v": 61
    },
    {
      "midi": 59,
      "hit": false,
      "t": 109048.67677083334,
      "d": 595.107406250012,
      "v": 57
    },
    {
      "midi": 50,
      "hit": false,
      "t": 109309.54577083334,
      "d": 288.042854166677,
      "v": 68
    },
    {
      "midi": 62,
      "hit": false,
      "t": 109570.41477083335,
      "d": 432.06428125000093,
      "v": 78
    },
    {
      "midi": 50,
      "hit": false,
      "t": 109831.28377083335,
      "d": 355.9774895833252,
      "v": 74
    },
    {
      "midi": 59,
      "hit": false,
      "t": 110092.15277083335,
      "d": 222.82560416666092,
      "v": 68
    },
    {
      "midi": 52,
      "hit": false,
      "t": 110613.89077083334,
      "d": 1657.6051041666506,
      "v": 68
    },
    {
      "midi": 45,
      "hit": false,
      "t": 110613.89077083334,
      "d": 1847.822083333318,
      "v": 80
    },
    {
      "midi": 57,
      "hit": false,
      "t": 111918.23577083333,
      "d": 475.5424479166686,
      "v": 64
    },
    {
      "midi": 61,
      "hit": false,
      "t": 111918.23577083333,
      "d": 483.694604166667,
      "v": 62
    },
    {
      "midi": 52,
      "hit": false,
      "t": 112439.97377083333,
      "d": 157.60835416667396,
      "v": 89
    },
    {
      "midi": 45,
      "hit": false,
      "t": 112700.84277083333,
      "d": 1554.3444583333185,
      "v": 89
    },
    {
      "midi": 52,
      "hit": false,
      "t": 112961.71177083334,
      "d": 1288.0406874999753,
      "v": 68
    },
    {
      "midi": 55,
      "hit": false,
      "t": 113222.58077083333,
      "d": 133.1518854166643,
      "v": 68
    },
    {
      "midi": 55,
      "hit": false,
      "t": 113483.44977083332,
      "d": 728.2592916666617,
      "v": 85
    },
    {
      "midi": 61,
      "hit": false,
      "t": 113483.44977083332,
      "d": 749.9983749999956,
      "v": 85
    },
    {
      "midi": 50,
      "hit": false,
      "t": 114787.79477083331,
      "d": 1114.1280208333337,
      "v": 91
    },
    {
      "midi": 62,
      "hit": false,
      "t": 116092.13977083331,
      "d": 249.99945833333186,
      "v": 64
    },
    {
      "midi": 66,
      "hit": false,
      "t": 116353.0087708333,
      "d": 81.52156249999825,
      "v": 44
    },
    {
      "midi": 52,
      "hit": false,
      "t": 116874.7467708333,
      "d": 535.324927083333,
      "v": 34
    },
    {
      "midi": 56,
      "hit": false,
      "t": 116874.7467708333,
      "d": 720.1071354166634,
      "v": 43
    },
    {
      "midi": 40,
      "hit": false,
      "t": 116874.7467708333,
      "d": 855.9764062500035,
      "v": 57
    },
    {
      "midi": 59,
      "hit": false,
      "t": 116874.7467708333,
      "d": 872.2807187500002,
      "v": 30
    },
    {
      "midi": 47,
      "hit": false,
      "t": 117396.4847708333,
      "d": 233.69514583333512,
      "v": 52
    },
    {
      "midi": 52,
      "hit": false,
      "t": 117657.3537708333,
      "d": 385.86872916665743,
      "v": 55
    },
    {
      "midi": 56,
      "hit": false,
      "t": 117918.2227708333,
      "d": 179.34743749999325,
      "v": 46
    },
    {
      "midi": 59,
      "hit": false,
      "t": 118179.09177083329,
      "d": 114.13018750000629,
      "v": 57
    },
    {
      "midi": 49,
      "hit": false,
      "t": 118831.26427083329,
      "d": 567.9335520833265,
      "v": 25
    },
    {
      "midi": 57,
      "hit": false,
      "t": 118831.26427083329,
      "d": 592.3900208333216,
      "v": 60
    },
    {
      "midi": 54,
      "hit": false,
      "t": 118961.69877083327,
      "d": 258.15161458333023,
      "v": 26
    },
    {
      "midi": 61,
      "hit": false,
      "t": 118961.69877083327,
      "d": 277.1733125000028,
      "v": 64
    },
    {
      "midi": 66,
      "hit": false,
      "t": 119483.43677083327,
      "d": 92.39110416667245,
      "v": 82
    },
    {
      "midi": 78,
      "hit": false,
      "t": 120005.17477083328,
      "d": 127.7171145833272,
      "v": 70
    },
    {
      "midi": 66,
      "hit": false,
      "t": 120526.91277083328,
      "d": 154.89096874999814,
      "v": 57
    },
    {
      "midi": 62,
      "hit": false,
      "t": 121048.65077083328,
      "d": 695.6506666666683,
      "v": 60
    },
    {
      "midi": 57,
      "hit": false,
      "t": 121048.65077083328,
      "d": 815.2156249999971,
      "v": 51
    },
    {
      "midi": 66,
      "hit": false,
      "t": 121048.65077083328,
      "d": 1171.1931145833369,
      "v": 56
    },
    {
      "midi": 50,
      "hit": false,
      "t": 121048.65077083328,
      "d": 1404.888260416672,
      "v": 41
    },
    {
      "midi": 62,
      "hit": false,
      "t": 121831.25777083328,
      "d": 353.26010416666395,
      "v": 49
    },
    {
      "midi": 57,
      "hit": false,
      "t": 122092.12677083327,
      "d": 353.2601041666785,
      "v": 53
    },
    {
      "midi": 62,
      "hit": false,
      "t": 122352.99577083328,
      "d": 198.3691354166658,
      "v": 60
    },
    {
      "midi": 66,
      "hit": false,
      "t": 122613.86477083329,
      "d": 114.13018750000629,
      "v": 51
    },
    {
      "midi": 45,
      "hit": false,
      "t": 123135.60277083328,
      "d": 1948.3653437500034,
      "v": 80
    },
    {
      "midi": 52,
      "hit": false,
      "t": 123396.47177083329,
      "d": 1701.0832708333328,
      "v": 87
    },
    {
      "midi": 61,
      "hit": false,
      "t": 123657.3407708333,
      "d": 124.99972916666593,
      "v": 105
    },
    {
      "midi": 57,
      "hit": false,
      "t": 124179.07877083331,
      "d": 260.8689999999915,
      "v": 89
    },
    {
      "midi": 61,
      "hit": false,
      "t": 124439.9477708333,
      "d": 146.73881249999977,
      "v": 72
    },
    {
      "midi": 64,
      "hit": false,
      "t": 124700.81677083329,
      "d": 366.8470312499994,
      "v": 91
    },
    {
      "midi": 62,
      "hit": false,
      "t": 125222.55477083329,
      "d": 1567.9313854166685,
      "v": 78
    },
    {
      "midi": 38,
      "hit": false,
      "t": 125222.55477083329,
      "d": 1570.6487708333298,
      "v": 70
    },
    {
      "midi": 57,
      "hit": false,
      "t": 125222.55477083329,
      "d": 1584.2356979166652,
      "v": 64
    },
    {
      "midi": 66,
      "hit": false,
      "t": 125222.55477083329,
      "d": 1589.6704687500023,
      "v": 63
    },
    {
      "midi": 37,
      "hit": false,
      "t": 127309.5067708333,
      "d": 1377.714406250001,
      "v": 55
    },
    {
      "midi": 61,
      "hit": false,
      "t": 127309.5067708333,
      "d": 1456.518583333338,
      "v": 60
    },
    {
      "midi": 57,
      "hit": false,
      "t": 127309.5067708333,
      "d": 1494.5619791666686,
      "v": 60
    },
    {
      "midi": 64,
      "hit": false,
      "t": 127309.5067708333,
      "d": 1505.4315208333282,
      "v": 55
    },
    {
      "midi": 47,
      "hit": false,
      "t": 129396.45877083328,
      "d": 1570.6487708333298,
      "v": 80
    },
    {
      "midi": 40,
      "hit": false,
      "t": 131483.4107708333,
      "d": 600.5421770833491,
      "v": 70
    },
    {
      "midi": 52,
      "hit": false,
      "t": 131483.4107708333,
      "d": 1657.6051041666942,
      "v": 55
    },
    {
      "midi": 56,
      "hit": false,
      "t": 131483.4107708333,
      "d": 1709.2354270833603,
      "v": 60
    },
    {
      "midi": 59,
      "hit": false,
      "t": 131483.4107708333,
      "d": 1725.539739583357,
      "v": 49
    },
    {
      "midi": 40,
      "hit": false,
      "t": 132266.0177708333,
      "d": 266.3037708333286,
      "v": 80
    },
    {
      "midi": 44,
      "hit": false,
      "t": 132526.8867708333,
      "d": 576.0857083333249,
      "v": 66
    },
    {
      "midi": 54,
      "hit": false,
      "t": 133570.3627708333,
      "d": 258.15161458333023,
      "v": 26
    },
    {
      "midi": 61,
      "hit": false,
      "t": 133570.3627708333,
      "d": 277.1733125000028,
      "v": 64
    },
    {
      "midi": 49,
      "hit": false,
      "t": 133570.3627708333,
      "d": 437.4990520833235,
      "v": 25
    },
    {
      "midi": 57,
      "hit": false,
      "t": 133570.3627708333,
      "d": 461.9555208333186,
      "v": 60
    },
    {
      "midi": 66,
      "hit": false,
      "t": 134092.1007708333,
      "d": 92.3911041666579,
      "v": 82
    },
    {
      "midi": 78,
      "hit": false,
      "t": 134613.83877083327,
      "d": 127.7171145833272,
      "v": 70
    },
    {
      "midi": 66,
      "hit": false,
      "t": 135135.57677083326,
      "d": 154.89096874999814,
      "v": 57
    },
    {
      "midi": 62,
      "hit": false,
      "t": 135657.31477083327,
      "d": 695.6506666666828,
      "v": 60
    },
    {
      "midi": 57,
      "hit": false,
      "t": 135657.31477083327,
      "d": 815.2156250000116,
      "v": 51
    },
    {
      "midi": 66,
      "hit": false,
      "t": 135657.31477083327,
      "d": 1171.1931145833514,
      "v": 56
    },
    {
      "midi": 50,
      "hit": false,
      "t": 135657.31477083327,
      "d": 1404.8882604166865,
      "v": 41
    },
    {
      "midi": 62,
      "hit": false,
      "t": 136439.9217708333,
      "d": 353.26010416666395,
      "v": 49
    },
    {
      "midi": 57,
      "hit": false,
      "t": 136700.7907708333,
      "d": 353.26010416666395,
      "v": 53
    },
    {
      "midi": 62,
      "hit": false,
      "t": 136961.6597708333,
      "d": 198.3691354166658,
      "v": 60
    },
    {
      "midi": 66,
      "hit": false,
      "t": 137222.5287708333,
      "d": 114.13018750000629,
      "v": 51
    },
    {
      "midi": 45,
      "hit": false,
      "t": 137744.26677083332,
      "d": 1948.365343750047,
      "v": 80
    },
    {
      "midi": 52,
      "hit": false,
      "t": 138005.13577083332,
      "d": 1701.083270833362,
      "v": 87
    },
    {
      "midi": 61,
      "hit": false,
      "t": 138266.00477083333,
      "d": 124.99972916668048,
      "v": 105
    },
    {
      "midi": 57,
      "hit": false,
      "t": 138787.74277083334,
      "d": 260.86900000000605,
      "v": 89
    },
    {
      "midi": 61,
      "hit": false,
      "t": 139048.61177083335,
      "d": 146.73881249999977,
      "v": 72
    },
    {
      "midi": 64,
      "hit": false,
      "t": 139309.48077083335,
      "d": 366.84703125001397,
      "v": 91
    },
    {
      "midi": 62,
      "hit": false,
      "t": 139831.21877083337,
      "d": 1567.931385416683,
      "v": 78
    },
    {
      "midi": 38,
      "hit": false,
      "t": 139831.21877083337,
      "d": 1570.6487708333589,
      "v": 70
    },
    {
      "midi": 57,
      "hit": false,
      "t": 139831.21877083337,
      "d": 1584.2356979166798,
      "v": 64
    },
    {
      "midi": 66,
      "hit": false,
      "t": 139831.21877083337,
      "d": 1589.6704687500023,
      "v": 63
    },
    {
      "midi": 37,
      "hit": false,
      "t": 141918.17077083336,
      "d": 1377.7144062500156,
      "v": 55
    },
    {
      "midi": 61,
      "hit": false,
      "t": 141918.17077083336,
      "d": 1456.5185833333526,
      "v": 60
    },
    {
      "midi": 57,
      "hit": false,
      "t": 141918.17077083336,
      "d": 1494.5619791666977,
      "v": 60
    },
    {
      "midi": 64,
      "hit": false,
      "t": 141918.17077083336,
      "d": 1505.431520833372,
      "v": 55
    },
    {
      "midi": 47,
      "hit": false,
      "t": 144005.1227708334,
      "d": 1570.6487708333298,
      "v": 80
    },
    {
      "midi": 40,
      "hit": false,
      "t": 146092.0747708334,
      "d": 600.5421770833491,
      "v": 70
    },
    {
      "midi": 52,
      "hit": false,
      "t": 146092.0747708334,
      "d": 1657.6051041666942,
      "v": 55
    },
    {
      "midi": 56,
      "hit": false,
      "t": 146092.0747708334,
      "d": 1709.2354270833603,
      "v": 60
    },
    {
      "midi": 59,
      "hit": false,
      "t": 146092.0747708334,
      "d": 1725.539739583357,
      "v": 49
    },
    {
      "midi": 40,
      "hit": false,
      "t": 146874.6817708334,
      "d": 266.3037708333286,
      "v": 80
    },
    {
      "midi": 44,
      "hit": false,
      "t": 147135.55077083342,
      "d": 576.0857083333249,
      "v": 66
    },
    {
      "midi": 62,
      "hit": false,
      "t": 148179.0267708334,
      "d": 1567.931385416683,
      "v": 78
    },
    {
      "midi": 38,
      "hit": false,
      "t": 148179.0267708334,
      "d": 1570.6487708333589,
      "v": 70
    },
    {
      "midi": 57,
      "hit": false,
      "t": 148179.0267708334,
      "d": 1584.2356979166798,
      "v": 64
    },
    {
      "midi": 66,
      "hit": false,
      "t": 148179.0267708334,
      "d": 1589.6704687500023,
      "v": 63
    },
    {
      "midi": 37,
      "hit": false,
      "t": 150265.9787708334,
      "d": 1377.7144062500156,
      "v": 55
    },
    {
      "midi": 61,
      "hit": false,
      "t": 150265.9787708334,
      "d": 1456.5185833333526,
      "v": 60
    },
    {
      "midi": 57,
      "hit": false,
      "t": 150265.9787708334,
      "d": 1494.5619791666977,
      "v": 60
    },
    {
      "midi": 64,
      "hit": false,
      "t": 150265.9787708334,
      "d": 1505.431520833372,
      "v": 55
    },
    {
      "midi": 47,
      "hit": false,
      "t": 152352.93077083345,
      "d": 1570.6487708333298,
      "v": 80
    },
    {
      "midi": 40,
      "hit": false,
      "t": 154439.88277083344,
      "d": 600.5421770833491,
      "v": 70
    },
    {
      "midi": 52,
      "hit": false,
      "t": 154439.88277083344,
      "d": 1657.6051041666942,
      "v": 55
    },
    {
      "midi": 56,
      "hit": false,
      "t": 154439.88277083344,
      "d": 1709.2354270833603,
      "v": 60
    },
    {
      "midi": 59,
      "hit": false,
      "t": 154439.88277083344,
      "d": 1725.539739583357,
      "v": 49
    },
    {
      "midi": 40,
      "hit": false,
      "t": 155222.48977083346,
      "d": 266.3037708333286,
      "v": 80
    },
    {
      "midi": 44,
      "hit": false,
      "t": 155483.35877083347,
      "d": 576.0857083333249,
      "v": 66
    },
    {
      "midi": 57,
      "hit": false,
      "t": 156526.83477083346,
      "d": 336.9557916666672,
      "v": 60
    },
    {
      "midi": 45,
      "hit": false,
      "t": 156526.83477083346,
      "d": 605.9769479166425,
      "v": 59
    },
    {
      "midi": 52,
      "hit": false,
      "t": 156787.70377083347,
      "d": 404.8904270833009,
      "v": 57
    },
    {
      "midi": 57,
      "hit": false,
      "t": 157048.57277083345,
      "d": 182.06482291666907,
      "v": 51
    },
    {
      "midi": 61,
      "hit": false,
      "t": 157309.44177083345,
      "d": 190.21697916666744,
      "v": 60
    },
    {
      "midi": 52,
      "hit": false,
      "t": 157570.31077083346,
      "d": 255.4342291666544,
      "v": 55
    },
    {
      "midi": 57,
      "hit": false,
      "t": 157831.17977083343,
      "d": 269.0211562500044,
      "v": 53
    },
    {
      "midi": 45,
      "hit": false,
      "t": 158092.04877083344,
      "d": 228.26037500001257,
      "v": 38
    },
    {
      "midi": 57,
      "hit": false,
      "t": 158352.91777083345,
      "d": 271.73854166668025,
      "v": 46
    },
    {
      "midi": 52,
      "hit": false,
      "t": 158613.78677083345,
      "d": 288.042854166677,
      "v": 58
    },
    {
      "midi": 57,
      "hit": false,
      "t": 158874.65577083346,
      "d": 315.2167083333479,
      "v": 53
    },
    {
      "midi": 45,
      "hit": false,
      "t": 159135.52477083346,
      "d": 711.9549791666504,
      "v": 64
    },
    {
      "midi": 57,
      "hit": false,
      "t": 159396.39377083347,
      "d": 298.9123958333221,
      "v": 60
    },
    {
      "midi": 52,
      "hit": false,
      "t": 159918.13177083345,
      "d": 260.86900000000605,
      "v": 58
    },
    {
      "midi": 57,
      "hit": false,
      "t": 160179.00077083346,
      "d": 255.4342291666544,
      "v": 60
    },
    {
      "midi": 45,
      "hit": false,
      "t": 160439.86977083344,
      "d": 214.67344791666255,
      "v": 31
    },
    {
      "midi": 57,
      "hit": false,
      "t": 160700.73877083344,
      "d": 336.9557916666672,
      "v": 60
    },
    {
      "midi": 45,
      "hit": false,
      "t": 160700.73877083344,
      "d": 605.9769479166425,
      "v": 59
    },
    {
      "midi": 52,
      "hit": false,
      "t": 160961.60777083345,
      "d": 404.8904270833009,
      "v": 57
    },
    {
      "midi": 57,
      "hit": false,
      "t": 161222.47677083343,
      "d": 182.06482291666907,
      "v": 51
    },
    {
      "midi": 61,
      "hit": false,
      "t": 161483.34577083343,
      "d": 190.21697916666744,
      "v": 60
    },
    {
      "midi": 52,
      "hit": false,
      "t": 161744.21477083344,
      "d": 255.4342291666544,
      "v": 55
    },
    {
      "midi": 57,
      "hit": false,
      "t": 162005.08377083341,
      "d": 269.0211562500044,
      "v": 53
    },
    {
      "midi": 45,
      "hit": false,
      "t": 162265.95277083342,
      "d": 228.26037500001257,
      "v": 38
    },
    {
      "midi": 57,
      "hit": false,
      "t": 162526.82177083343,
      "d": 271.73854166668025,
      "v": 46
    },
    {
      "midi": 52,
      "hit": false,
      "t": 162787.69077083343,
      "d": 288.042854166677,
      "v": 58
    },
    {
      "midi": 57,
      "hit": false,
      "t": 163048.55977083344,
      "d": 315.2167083333479,
      "v": 53
    },
    {
      "midi": 45,
      "hit": false,
      "t": 163309.42877083345,
      "d": 711.9549791666504,
      "v": 64
    },
    {
      "midi": 57,
      "hit": false,
      "t": 163570.29777083345,
      "d": 298.9123958333221,
      "v": 60
    },
    {
      "midi": 52,
      "hit": false,
      "t": 164092.03577083343,
      "d": 260.86900000000605,
      "v": 58
    },
    {
      "midi": 57,
      "hit": false,
      "t": 164352.90477083344,
      "d": 255.4342291666544,
      "v": 60
    },
    {
      "midi": 45,
      "hit": false,
      "t": 164613.77377083342,
      "d": 214.67344791666255,
      "v": 31
    },
    {
      "midi": 45,
      "hit": false,
      "t": 164874.64277083342,
      "d": 1592.387854166649,
      "v": 80
    },
    {
      "midi": 52,
      "hit": false,
      "t": 165135.51177083343,
      "d": 820.6503958333051,
      "v": 72
    },
    {
      "midi": 57,
      "hit": false,
      "t": 165396.38077083344,
      "d": 233.69514583330601,
      "v": 61
    },
    {
      "midi": 59,
      "hit": false,
      "t": 165657.2497708334,
      "d": 146.73881249999977,
      "v": 63
    },
    {
      "midi": 57,
      "hit": false,
      "t": 166700.7257708334,
      "d": 279.8906979166786,
      "v": 48
    },
    {
      "midi": 45,
      "hit": false,
      "t": 166961.5947708334,
      "d": 1505.431520833372,
      "v": 44
    },
    {
      "midi": 52,
      "hit": false,
      "t": 167352.89827083342,
      "d": 1146.7366458333563,
      "v": 40
    },
    {
      "midi": 64,
      "hit": false,
      "t": 168005.07077083344,
      "d": 269.0211562500044,
      "v": 87
    },
    {
      "midi": 61,
      "hit": false,
      "t": 168526.80877083345,
      "d": 116.84757291665301,
      "v": 95
    },
    {
      "midi": 55,
      "hit": false,
      "t": 169048.54677083343,
      "d": 1013.5847604166484,
      "v": 52
    },
    {
      "midi": 59,
      "hit": false,
      "t": 169048.54677083343,
      "d": 1016.3021458333242,
      "v": 54
    },
    {
      "midi": 43,
      "hit": false,
      "t": 169048.54677083343,
      "d": 3695.6441666667233,
      "v": 41
    },
    {
      "midi": 50,
      "hit": false,
      "t": 170092.02277083343,
      "d": 149.4561979166756,
      "v": 36
    },
    {
      "midi": 55,
      "hit": false,
      "t": 170352.89177083343,
      "d": 190.21697916666744,
      "v": 29
    },
    {
      "midi": 59,
      "hit": false,
      "t": 170613.76077083344,
      "d": 176.63005208334653,
      "v": 28
    },
    {
      "midi": 50,
      "hit": false,
      "t": 170874.62977083345,
      "d": 459.23813541667187,
      "v": 42
    },
    {
      "midi": 55,
      "hit": false,
      "t": 171135.49877083345,
      "d": 201.08652083334164,
      "v": 48
    },
    {
      "midi": 59,
      "hit": false,
      "t": 171396.36777083346,
      "d": 163.0431249999965,
      "v": 47
    },
    {
      "midi": 50,
      "hit": false,
      "t": 171657.23677083346,
      "d": 95.10848958333372,
      "v": 39
    },
    {
      "midi": 57,
      "hit": false,
      "t": 172178.97477083348,
      "d": 271.73854166668025,
      "v": 95
    },
    {
      "midi": 55,
      "hit": false,
      "t": 172439.84377083348,
      "d": 255.4342291666835,
      "v": 82
    },
    {
      "midi": 57,
      "hit": false,
      "t": 172700.7127708335,
      "d": 288.0428541666479,
      "v": 78
    },
    {
      "midi": 55,
      "hit": false,
      "t": 172961.58177083347,
      "d": 277.1733125000028,
      "v": 93
    },
    {
      "midi": 45,
      "hit": false,
      "t": 173222.45077083347,
      "d": 2733.689729166683,
      "v": 87
    },
    {
      "midi": 52,
      "hit": false,
      "t": 173483.31977083348,
      "d": 2266.2994375000126,
      "v": 68
    },
    {
      "midi": 57,
      "hit": false,
      "t": 175570.2717708335,
      "d": 201.08652083331253,
      "v": 46
    },
    {
      "midi": 57,
      "hit": false,
      "t": 176092.00977083348,
      "d": 146.73881249999977,
      "v": 58
    },
    {
      "midi": 61,
      "hit": false,
      "t": 176352.8787708335,
      "d": 304.34716666667373,
      "v": 70
    },
    {
      "midi": 64,
      "hit": false,
      "t": 176874.6167708335,
      "d": 249.99945833333186,
      "v": 93
    },
    {
      "midi": 55,
      "hit": false,
      "t": 177396.3547708335,
      "d": 847.8242500000051,
      "v": 63
    },
    {
      "midi": 62,
      "hit": false,
      "t": 177918.09277083352,
      "d": 233.69514583333512,
      "v": 57
    },
    {
      "midi": 67,
      "hit": false,
      "t": 178178.96177083353,
      "d": 92.3911041666579,
      "v": 41
    },
    {
      "midi": 43,
      "hit": false,
      "t": 178961.56877083352,
      "d": 2154.886635416653,
      "v": 49
    },
    {
      "midi": 50,
      "hit": false,
      "t": 179222.4377708335,
      "d": 885.8676458333503,
      "v": 72
    },
    {
      "midi": 55,
      "hit": false,
      "t": 179483.3067708335,
      "d": 290.7602395833237,
      "v": 42
    },
    {
      "midi": 55,
      "hit": false,
      "t": 180005.0447708335,
      "d": 165.76051041667233,
      "v": 41
    },
    {
      "midi": 50,
      "hit": false,
      "t": 180265.91377083352,
      "d": 81.5215625000128,
      "v": 40
    },
    {
      "midi": 55,
      "hit": false,
      "t": 180526.78277083352,
      "d": 279.8906979166495,
      "v": 100
    },
    {
      "midi": 54,
      "hit": false,
      "t": 180787.6517708335,
      "d": 258.15161458333023,
      "v": 78
    },
    {
      "midi": 55,
      "hit": false,
      "t": 181048.5207708335,
      "d": 326.086249999993,
      "v": 82
    },
    {
      "midi": 52,
      "hit": false,
      "t": 181570.2587708335,
      "d": 1657.6051041666651,
      "v": 68
    },
    {
      "midi": 45,
      "hit": false,
      "t": 181570.2587708335,
      "d": 1847.8220833333326,
      "v": 80
    },
    {
      "midi": 57,
      "hit": false,
      "t": 182874.6037708335,
      "d": 475.5424479166686,
      "v": 64
    },
    {
      "midi": 61,
      "hit": false,
      "t": 182874.6037708335,
      "d": 483.694604166667,
      "v": 62
    },
    {
      "midi": 52,
      "hit": false,
      "t": 183396.3417708335,
      "d": 157.60835416664486,
      "v": 89
    },
    {
      "midi": 45,
      "hit": false,
      "t": 183657.21077083348,
      "d": 1554.344458333304,
      "v": 89
    },
    {
      "midi": 52,
      "hit": false,
      "t": 183918.0797708335,
      "d": 1288.0406874999753,
      "v": 68
    },
    {
      "midi": 55,
      "hit": false,
      "t": 184178.9487708335,
      "d": 133.15188541667885,
      "v": 68
    },
    {
      "midi": 55,
      "hit": false,
      "t": 184439.8177708335,
      "d": 728.2592916666472,
      "v": 85
    },
    {
      "midi": 61,
      "hit": false,
      "t": 184439.8177708335,
      "d": 749.9983749999665,
      "v": 85
    },
    {
      "midi": 50,
      "hit": false,
      "t": 185744.16277083344,
      "d": 1114.1280208333337,
      "v": 91
    },
    {
      "midi": 62,
      "hit": false,
      "t": 187048.50777083344,
      "d": 249.99945833333186,
      "v": 64
    },
    {
      "midi": 66,
      "hit": false,
      "t": 187309.37677083345,
      "d": 81.5215625000128,
      "v": 44
    },
    {
      "midi": 52,
      "hit": false,
      "t": 187831.11477083346,
      "d": 535.324927083333,
      "v": 34
    },
    {
      "midi": 56,
      "hit": false,
      "t": 187831.11477083346,
      "d": 720.1071354166779,
      "v": 43
    },
    {
      "midi": 40,
      "hit": false,
      "t": 187831.11477083346,
      "d": 855.9764062500326,
      "v": 57
    },
    {
      "midi": 59,
      "hit": false,
      "t": 187831.11477083346,
      "d": 872.2807187500293,
      "v": 30
    },
    {
      "midi": 47,
      "hit": false,
      "t": 188352.85277083347,
      "d": 233.69514583333512,
      "v": 52
    },
    {
      "midi": 52,
      "hit": false,
      "t": 188613.72177083348,
      "d": 385.86872916668653,
      "v": 55
    },
    {
      "midi": 56,
      "hit": false,
      "t": 188874.59077083349,
      "d": 179.34743750002235,
      "v": 46
    },
    {
      "midi": 59,
      "hit": false,
      "t": 189135.45977083352,
      "d": 114.13018750000629,
      "v": 57
    },
    {
      "midi": 49,
      "hit": false,
      "t": 189787.63227083354,
      "d": 567.9335520833265,
      "v": 25
    },
    {
      "midi": 57,
      "hit": false,
      "t": 189787.63227083354,
      "d": 592.3900208333216,
      "v": 60
    },
    {
      "midi": 54,
      "hit": false,
      "t": 189918.06677083354,
      "d": 258.15161458333023,
      "v": 26
    },
    {
      "midi": 61,
      "hit": false,
      "t": 189918.06677083354,
      "d": 277.1733125000028,
      "v": 64
    },
    {
      "midi": 66,
      "hit": false,
      "t": 190439.80477083352,
      "d": 92.3911041666579,
      "v": 82
    },
    {
      "midi": 78,
      "hit": false,
      "t": 190961.5427708335,
      "d": 127.7171145833272,
      "v": 70
    },
    {
      "midi": 66,
      "hit": false,
      "t": 191483.2807708335,
      "d": 154.89096874999814,
      "v": 57
    },
    {
      "midi": 62,
      "hit": false,
      "t": 192005.0187708335,
      "d": 695.6506666666828,
      "v": 60
    },
    {
      "midi": 57,
      "hit": false,
      "t": 192005.0187708335,
      "d": 815.2156250000116,
      "v": 51
    },
    {
      "midi": 66,
      "hit": false,
      "t": 192005.0187708335,
      "d": 1171.1931145833514,
      "v": 56
    },
    {
      "midi": 50,
      "hit": false,
      "t": 192005.0187708335,
      "d": 1404.8882604166865,
      "v": 41
    },
    {
      "midi": 62,
      "hit": false,
      "t": 192787.62577083352,
      "d": 353.26010416666395,
      "v": 49
    },
    {
      "midi": 57,
      "hit": false,
      "t": 193048.49477083352,
      "d": 353.26010416666395,
      "v": 53
    },
    {
      "midi": 62,
      "hit": false,
      "t": 193309.36377083353,
      "d": 198.3691354166658,
      "v": 60
    },
    {
      "midi": 66,
      "hit": false,
      "t": 193570.23277083354,
      "d": 114.13018750000629,
      "v": 51
    },
    {
      "midi": 45,
      "hit": false,
      "t": 194091.97077083355,
      "d": 1948.365343750047,
      "v": 80
    },
    {
      "midi": 52,
      "hit": false,
      "t": 194352.83977083355,
      "d": 1701.083270833362,
      "v": 87
    },
    {
      "midi": 61,
      "hit": false,
      "t": 194613.70877083356,
      "d": 124.99972916668048,
      "v": 105
    },
    {
      "midi": 57,
      "hit": false,
      "t": 195135.44677083357,
      "d": 260.86900000000605,
      "v": 89
    },
    {
      "midi": 61,
      "hit": false,
      "t": 195396.31577083358,
      "d": 146.73881249999977,
      "v": 72
    },
    {
      "midi": 64,
      "hit": false,
      "t": 195657.18477083358,
      "d": 366.84703125001397,
      "v": 91
    },
    {
      "midi": 62,
      "hit": false,
      "t": 196178.9227708336,
      "d": 1567.931385416683,
      "v": 78
    },
    {
      "midi": 38,
      "hit": false,
      "t": 196178.9227708336,
      "d": 1570.6487708333589,
      "v": 70
    },
    {
      "midi": 57,
      "hit": false,
      "t": 196178.9227708336,
      "d": 1584.2356979166798,
      "v": 64
    },
    {
      "midi": 66,
      "hit": false,
      "t": 196178.9227708336,
      "d": 1589.6704687500023,
      "v": 63
    },
    {
      "midi": 37,
      "hit": false,
      "t": 198265.8747708336,
      "d": 1377.7144062500156,
      "v": 55
    },
    {
      "midi": 61,
      "hit": false,
      "t": 198265.8747708336,
      "d": 1456.5185833333526,
      "v": 60
    },
    {
      "midi": 57,
      "hit": false,
      "t": 198265.8747708336,
      "d": 1494.5619791666977,
      "v": 60
    },
    {
      "midi": 64,
      "hit": false,
      "t": 198265.8747708336,
      "d": 1505.431520833372,
      "v": 55
    },
    {
      "midi": 47,
      "hit": false,
      "t": 200352.82677083364,
      "d": 1570.6487708333298,
      "v": 80
    },
    {
      "midi": 40,
      "hit": false,
      "t": 202439.77877083363,
      "d": 600.5421770833491,
      "v": 70
    },
    {
      "midi": 52,
      "hit": false,
      "t": 202439.77877083363,
      "d": 1657.6051041666942,
      "v": 55
    },
    {
      "midi": 56,
      "hit": false,
      "t": 202439.77877083363,
      "d": 1709.2354270833603,
      "v": 60
    },
    {
      "midi": 59,
      "hit": false,
      "t": 202439.77877083363,
      "d": 1725.539739583357,
      "v": 49
    },
    {
      "midi": 40,
      "hit": false,
      "t": 203222.38577083364,
      "d": 266.3037708333286,
      "v": 80
    },
    {
      "midi": 44,
      "hit": false,
      "t": 203483.25477083365,
      "d": 576.0857083333249,
      "v": 66
    },
    {
      "midi": 54,
      "hit": false,
      "t": 204526.73077083364,
      "d": 258.15161458333023,
      "v": 26
    },
    {
      "midi": 61,
      "hit": false,
      "t": 204526.73077083364,
      "d": 277.1733125000028,
      "v": 64
    },
    {
      "midi": 49,
      "hit": false,
      "t": 204526.73077083364,
      "d": 437.4990520833235,
      "v": 25
    },
    {
      "midi": 57,
      "hit": false,
      "t": 204526.73077083364,
      "d": 461.9555208333186,
      "v": 60
    },
    {
      "midi": 66,
      "hit": false,
      "t": 205048.46877083363,
      "d": 92.3911041666579,
      "v": 82
    },
    {
      "midi": 78,
      "hit": false,
      "t": 205570.2067708336,
      "d": 127.7171145833272,
      "v": 70
    },
    {
      "midi": 66,
      "hit": false,
      "t": 206091.9447708336,
      "d": 154.89096874999814,
      "v": 57
    },
    {
      "midi": 62,
      "hit": false,
      "t": 206613.6827708336,
      "d": 695.6506666666828,
      "v": 60
    },
    {
      "midi": 57,
      "hit": false,
      "t": 206613.6827708336,
      "d": 815.2156250000116,
      "v": 51
    },
    {
      "midi": 66,
      "hit": false,
      "t": 206613.6827708336,
      "d": 1171.1931145833514,
      "v": 56
    },
    {
      "midi": 50,
      "hit": false,
      "t": 206613.6827708336,
      "d": 1404.8882604166865,
      "v": 41
    },
    {
      "midi": 62,
      "hit": false,
      "t": 207396.28977083362,
      "d": 353.26010416666395,
      "v": 49
    },
    {
      "midi": 57,
      "hit": false,
      "t": 207657.15877083363,
      "d": 353.26010416666395,
      "v": 53
    },
    {
      "midi": 62,
      "hit": false,
      "t": 207918.02777083364,
      "d": 198.3691354166658,
      "v": 60
    },
    {
      "midi": 66,
      "hit": false,
      "t": 208178.89677083364,
      "d": 114.13018750000629,
      "v": 51
    },
    {
      "midi": 45,
      "hit": false,
      "t": 208700.63477083365,
      "d": 1948.365343750047,
      "v": 80
    },
    {
      "midi": 52,
      "hit": false,
      "t": 208961.50377083366,
      "d": 1701.083270833362,
      "v": 87
    },
    {
      "midi": 61,
      "hit": false,
      "t": 209222.37277083367,
      "d": 124.99972916668048,
      "v": 105
    },
    {
      "midi": 57,
      "hit": false,
      "t": 209744.11077083368,
      "d": 260.86900000000605,
      "v": 89
    },
    {
      "midi": 61,
      "hit": false,
      "t": 210004.97977083368,
      "d": 146.73881249999977,
      "v": 72
    },
    {
      "midi": 64,
      "hit": false,
      "t": 210265.8487708337,
      "d": 366.84703125001397,
      "v": 91
    },
    {
      "midi": 62,
      "hit": false,
      "t": 210787.5867708337,
      "d": 1567.931385416683,
      "v": 78
    },
    {
      "midi": 38,
      "hit": false,
      "t": 210787.5867708337,
      "d": 1570.6487708333589,
      "v": 70
    },
    {
      "midi": 57,
      "hit": false,
      "t": 210787.5867708337,
      "d": 1584.2356979166798,
      "v": 64
    },
    {
      "midi": 66,
      "hit": false,
      "t": 210787.5867708337,
      "d": 1589.6704687500023,
      "v": 63
    },
    {
      "midi": 37,
      "hit": false,
      "t": 212874.5387708337,
      "d": 1377.7144062500156,
      "v": 55
    },
    {
      "midi": 61,
      "hit": false,
      "t": 212874.5387708337,
      "d": 1456.5185833333526,
      "v": 60
    },
    {
      "midi": 57,
      "hit": false,
      "t": 212874.5387708337,
      "d": 1494.5619791666977,
      "v": 60
    },
    {
      "midi": 64,
      "hit": false,
      "t": 212874.5387708337,
      "d": 1505.431520833372,
      "v": 55
    },
    {
      "midi": 47,
      "hit": false,
      "t": 214961.49077083374,
      "d": 1570.6487708333298,
      "v": 80
    },
    {
      "midi": 40,
      "hit": false,
      "t": 217048.44277083373,
      "d": 600.5421770833491,
      "v": 70
    },
    {
      "midi": 52,
      "hit": false,
      "t": 217048.44277083373,
      "d": 1657.6051041666942,
      "v": 55
    },
    {
      "midi": 56,
      "hit": false,
      "t": 217048.44277083373,
      "d": 1709.2354270833603,
      "v": 60
    },
    {
      "midi": 59,
      "hit": false,
      "t": 217048.44277083373,
      "d": 1725.539739583357,
      "v": 49
    },
    {
      "midi": 40,
      "hit": false,
      "t": 217831.04977083375,
      "d": 266.3037708333286,
      "v": 80
    },
    {
      "midi": 44,
      "hit": false,
      "t": 218091.91877083376,
      "d": 576.0857083333249,
      "v": 66
    },
    {
      "midi": 62,
      "hit": false,
      "t": 219135.39477083375,
      "d": 1567.931385416683,
      "v": 78
    },
    {
      "midi": 38,
      "hit": false,
      "t": 219135.39477083375,
      "d": 1570.6487708333589,
      "v": 70
    },
    {
      "midi": 57,
      "hit": false,
      "t": 219135.39477083375,
      "d": 1584.2356979166798,
      "v": 64
    },
    {
      "midi": 66,
      "hit": false,
      "t": 219135.39477083375,
      "d": 1589.6704687500023,
      "v": 63
    },
    {
      "midi": 37,
      "hit": false,
      "t": 221222.34677083374,
      "d": 1377.7144062500156,
      "v": 55
    },
    {
      "midi": 61,
      "hit": false,
      "t": 221222.34677083374,
      "d": 1456.5185833333526,
      "v": 60
    },
    {
      "midi": 57,
      "hit": false,
      "t": 221222.34677083374,
      "d": 1494.5619791666977,
      "v": 60
    },
    {
      "midi": 64,
      "hit": false,
      "t": 221222.34677083374,
      "d": 1505.431520833372,
      "v": 55
    },
    {
      "midi": 47,
      "hit": false,
      "t": 223309.2987708338,
      "d": 1570.6487708333298,
      "v": 80
    },
    {
      "midi": 40,
      "hit": false,
      "t": 225396.25077083378,
      "d": 600.5421770833491,
      "v": 70
    },
    {
      "midi": 52,
      "hit": false,
      "t": 225396.25077083378,
      "d": 1657.6051041666942,
      "v": 55
    },
    {
      "midi": 56,
      "hit": false,
      "t": 225396.25077083378,
      "d": 1709.2354270833603,
      "v": 60
    },
    {
      "midi": 59,
      "hit": false,
      "t": 225396.25077083378,
      "d": 1725.539739583357,
      "v": 49
    },
    {
      "midi": 40,
      "hit": false,
      "t": 226178.8577708338,
      "d": 266.3037708333286,
      "v": 80
    },
    {
      "midi": 44,
      "hit": false,
      "t": 226439.7267708338,
      "d": 576.0857083333249,
      "v": 66
    },
    {
      "midi": 57,
      "hit": false,
      "t": 227483.2027708338,
      "d": 551.6292395833589,
      "v": 68
    },
    {
      "midi": 45,
      "hit": false,
      "t": 227483.2027708338,
      "d": 798.9113125000149,
      "v": 60
    },
    {
      "midi": 52,
      "hit": false,
      "t": 228004.9407708338,
      "d": 331.52102083334466,
      "v": 60
    },
    {
      "midi": 57,
      "hit": false,
      "t": 228265.80977083382,
      "d": 293.47762499999953,
      "v": 85
    },
    {
      "midi": 61,
      "hit": false,
      "t": 228526.67877083382,
      "d": 244.5646874999802,
      "v": 60
    },
    {
      "midi": 57,
      "hit": false,
      "t": 229309.2857708338,
      "d": 279.8906979166786,
      "v": 43
    },
    {
      "midi": 45,
      "hit": false,
      "t": 229570.15477083382,
      "d": 1130.4323333333305,
      "v": 68
    },
    {
      "midi": 52,
      "hit": false,
      "t": 229831.02377083382,
      "d": 847.8242500000051,
      "v": 57
    },
    {
      "midi": 57,
      "hit": false,
      "t": 230091.89277083383,
      "d": 407.6078125000058,
      "v": 57
    },
    {
      "midi": 61,
      "hit": false,
      "t": 230352.76177083384,
      "d": 190.21697916666744,
      "v": 53
    },
    {
      "midi": 64,
      "hit": false,
      "t": 231135.36877083383,
      "d": 100.54326041665627,
      "v": 68
    },
    {
      "midi": 55,
      "hit": false,
      "t": 231657.1067708338,
      "d": 1456.5185833333235,
      "v": 66
    },
    {
      "midi": 43,
      "hit": false,
      "t": 231657.1067708338,
      "d": 3135.862770833308,
      "v": 61
    },
    {
      "midi": 50,
      "hit": false,
      "t": 233222.3207708338,
      "d": 211.95606249998673,
      "v": 51
    },
    {
      "midi": 59,
      "hit": false,
      "t": 233483.18977083376,
      "d": 328.80363541666884,
      "v": 52
    },
    {
      "midi": 50,
      "hit": false,
      "t": 234004.92777083378,
      "d": 233.69514583333512,
      "v": 52
    },
    {
      "midi": 55,
      "hit": false,
      "t": 234265.79677083378,
      "d": 222.82560416666092,
      "v": 61
    },
    {
      "midi": 59,
      "hit": false,
      "t": 234526.6657708338,
      "d": 298.9123958333221,
      "v": 59
    },
    {
      "midi": 62,
      "hit": false,
      "t": 234787.5347708338,
      "d": 353.26010416663485,
      "v": 89
    },
    {
      "midi": 59,
      "hit": false,
      "t": 235309.27277083375,
      "d": 138.5866562500014,
      "v": 59
    },
    {
      "midi": 57,
      "hit": false,
      "t": 235831.01077083373,
      "d": 902.171958333347,
      "v": 70
    },
    {
      "midi": 45,
      "hit": false,
      "t": 235831.01077083373,
      "d": 926.6284270833421,
      "v": 66
    },
    {
      "midi": 52,
      "hit": false,
      "t": 236874.48677083373,
      "d": 4616.837822916656,
      "v": 66
    },
    {
      "midi": 45,
      "hit": false,
      "t": 236874.48677083373,
      "d": 5092.380270833324,
      "v": 66
    },
    {
      "midi": 57,
      "hit": false,
      "t": 236874.48677083373,
      "d": 5149.445364583313,
      "v": 64
    }
  ]
}