{
  "jsonPath": "Rock/Christian Alternative Rock/Brian Littrell/over-my-head.json",
  "path": "Rock\\Christian Alternative Rock\\Brian Littrell\\Over My Head.mid",
  "name": "Over My Head",
  "difficulty": "Advanced",
  "bpm": 70.00023333411112,
  "notes": [
    {
      "midi": 78,
      "hit": false,
      "t": 9428.539999999999,
      "d": 225.44567708333307,
      "v": 114
    },
    {
      "midi": 66,
      "hit": false,
      "t": 9428.539999999999,
      "d": 232.14208333333227,
      "v": 121
    },
    {
      "midi": 64,
      "hit": false,
      "t": 9857.109999999999,
      "d": 1569.191197916667,
      "v": 110
    },
    {
      "midi": 76,
      "hit": false,
      "t": 9857.109999999999,
      "d": 1580.3518750000003,
      "v": 94
    },
    {
      "midi": 28,
      "hit": false,
      "t": 10285.679999999998,
      "d": 3435.2564062500023,
      "v": 110
    },
    {
      "midi": 40,
      "hit": false,
      "t": 10285.679999999998,
      "d": 3435.2564062500023,
      "v": 110
    },
    {
      "midi": 66,
      "hit": false,
      "t": 12857.1,
      "d": 341.516718750001,
      "v": 121
    },
    {
      "midi": 78,
      "hit": false,
      "t": 12857.1,
      "d": 345.98098958333503,
      "v": 121
    },
    {
      "midi": 76,
      "hit": false,
      "t": 13285.670000000002,
      "d": 2209.8140624999996,
      "v": 94
    },
    {
      "midi": 64,
      "hit": false,
      "t": 13285.670000000002,
      "d": 2241.0639583333323,
      "v": 87
    },
    {
      "midi": 33,
      "hit": false,
      "t": 13714.240000000002,
      "d": 3354.8995312499974,
      "v": 114
    },
    {
      "midi": 45,
      "hit": false,
      "t": 13714.240000000002,
      "d": 3354.8995312499974,
      "v": 114
    },
    {
      "midi": 62,
      "hit": false,
      "t": 16071.375,
      "d": 214.28499999999985,
      "v": 51
    },
    {
      "midi": 74,
      "hit": false,
      "t": 16071.375,
      "d": 214.28499999999985,
      "v": 58
    },
    {
      "midi": 66,
      "hit": false,
      "t": 16285.66,
      "d": 428.5699999999997,
      "v": 114
    },
    {
      "midi": 78,
      "hit": false,
      "t": 16285.66,
      "d": 428.5699999999997,
      "v": 94
    },
    {
      "midi": 76,
      "hit": false,
      "t": 16714.23,
      "d": 2102.6715624999997,
      "v": 87
    },
    {
      "midi": 64,
      "hit": false,
      "t": 16714.23,
      "d": 2104.9036979166667,
      "v": 87
    },
    {
      "midi": 35,
      "hit": false,
      "t": 17142.8,
      "d": 3417.3993229166626,
      "v": 94
    },
    {
      "midi": 47,
      "hit": false,
      "t": 17142.8,
      "d": 3417.3993229166626,
      "v": 94
    },
    {
      "midi": 59,
      "hit": false,
      "t": 19285.649999999998,
      "d": 428.56999999999607,
      "v": 75
    },
    {
      "midi": 71,
      "hit": false,
      "t": 19285.649999999998,
      "d": 428.56999999999607,
      "v": 72
    },
    {
      "midi": 66,
      "hit": false,
      "t": 19714.219999999994,
      "d": 428.5699999999997,
      "v": 100
    },
    {
      "midi": 78,
      "hit": false,
      "t": 19714.219999999994,
      "d": 428.5699999999997,
      "v": 110
    },
    {
      "midi": 76,
      "hit": false,
      "t": 20142.789999999994,
      "d": 3796.8623437500028,
      "v": 84
    },
    {
      "midi": 64,
      "hit": false,
      "t": 20142.789999999994,
      "d": 3801.326614583337,
      "v": 79
    },
    {
      "midi": 31,
      "hit": false,
      "t": 20571.359999999997,
      "d": 2761.1515104166647,
      "v": 110
    },
    {
      "midi": 43,
      "hit": false,
      "t": 20571.359999999997,
      "d": 2761.1515104166647,
      "v": 110
    },
    {
      "midi": 69,
      "hit": false,
      "t": 27223.123541666664,
      "d": 3261.1498437500013,
      "v": 61
    },
    {
      "midi": 64,
      "hit": false,
      "t": 27310.176822916663,
      "d": 1024.550156250003,
      "v": 59
    },
    {
      "midi": 62,
      "hit": false,
      "t": 27363.748072916664,
      "d": 953.1218229166698,
      "v": 67
    },
    {
      "midi": 47,
      "hit": false,
      "t": 27401.694374999995,
      "d": 2167.4034895833356,
      "v": 65
    },
    {
      "midi": 54,
      "hit": false,
      "t": 27408.390781249997,
      "d": 926.3361979166693,
      "v": 58
    },
    {
      "midi": 57,
      "hit": false,
      "t": 27419.55145833333,
      "d": 584.8194791666683,
      "v": 74
    },
    {
      "midi": 57,
      "hit": false,
      "t": 28236.513020833332,
      "d": 1754.4584374999977,
      "v": 57
    },
    {
      "midi": 62,
      "hit": false,
      "t": 28714.19,
      "d": 1564.7269270833312,
      "v": 58
    },
    {
      "midi": 74,
      "hit": false,
      "t": 28714.19,
      "d": 1993.2969270833346,
      "v": 59
    },
    {
      "midi": 57,
      "hit": false,
      "t": 30214.184999999998,
      "d": 397.3201041666689,
      "v": 35
    },
    {
      "midi": 62,
      "hit": false,
      "t": 30428.469999999998,
      "d": 207.58859375000247,
      "v": 44
    },
    {
      "midi": 69,
      "hit": false,
      "t": 30647.219270833335,
      "d": 160.71374999999898,
      "v": 41
    },
    {
      "midi": 57,
      "hit": false,
      "t": 30810.16515625,
      "d": 249.99916666667195,
      "v": 57
    },
    {
      "midi": 62,
      "hit": false,
      "t": 30841.415052083335,
      "d": 491.0697916666686,
      "v": 58
    },
    {
      "midi": 43,
      "hit": false,
      "t": 30848.111458333336,
      "d": 2323.652968750004,
      "v": 61
    },
    {
      "midi": 69,
      "hit": false,
      "t": 30857.040000000005,
      "d": 616.0693749999991,
      "v": 69
    },
    {
      "midi": 50,
      "hit": false,
      "t": 30870.432812500003,
      "d": 2258.9210416666683,
      "v": 60
    },
    {
      "midi": 55,
      "hit": false,
      "t": 30872.66494791667,
      "d": 881.6934895833328,
      "v": 58
    },
    {
      "midi": 64,
      "hit": false,
      "t": 30881.593489583338,
      "d": 582.5873437499977,
      "v": 51
    },
    {
      "midi": 57,
      "hit": false,
      "t": 31263.288645833338,
      "d": 1767.8512499999997,
      "v": 53
    },
    {
      "midi": 62,
      "hit": false,
      "t": 31703.01932291667,
      "d": 2252.2246354166637,
      "v": 55
    },
    {
      "midi": 69,
      "hit": false,
      "t": 32142.750000000004,
      "d": 1395.0846354166679,
      "v": 72
    },
    {
      "midi": 57,
      "hit": false,
      "t": 33850.33359375,
      "d": 205.3564583333282,
      "v": 26
    },
    {
      "midi": 69,
      "hit": false,
      "t": 34080.24354166666,
      "d": 129.46385416666453,
      "v": 46
    },
    {
      "midi": 57,
      "hit": false,
      "t": 34223.10020833333,
      "d": 314.7310937500006,
      "v": 53
    },
    {
      "midi": 62,
      "hit": false,
      "t": 34258.814374999994,
      "d": 589.2837500000023,
      "v": 53
    },
    {
      "midi": 45,
      "hit": false,
      "t": 34276.67145833333,
      "d": 2337.0457812500026,
      "v": 50
    },
    {
      "midi": 38,
      "hit": false,
      "t": 34285.6,
      "d": 2343.7421875,
      "v": 59
    },
    {
      "midi": 50,
      "hit": false,
      "t": 34294.52854166667,
      "d": 995.532395833332,
      "v": 51
    },
    {
      "midi": 64,
      "hit": false,
      "t": 34312.385624999995,
      "d": 662.9442187500026,
      "v": 55
    },
    {
      "midi": 69,
      "hit": false,
      "t": 34334.706979166665,
      "d": 754.4617708333317,
      "v": 74
    },
    {
      "midi": 57,
      "hit": false,
      "t": 34685.15223958333,
      "d": 1667.4051562500026,
      "v": 59
    },
    {
      "midi": 62,
      "hit": false,
      "t": 35102.5615625,
      "d": 1662.9408854166686,
      "v": 59
    },
    {
      "midi": 69,
      "hit": false,
      "t": 35571.31,
      "d": 2763.383645833339,
      "v": 79
    },
    {
      "midi": 57,
      "hit": false,
      "t": 36620.41364583333,
      "d": 334.8203125000073,
      "v": 30
    },
    {
      "midi": 62,
      "hit": false,
      "t": 36877.10921875,
      "d": 245.5348958333343,
      "v": 56
    },
    {
      "midi": 57,
      "hit": false,
      "t": 37071.30500000001,
      "d": 399.552239583325,
      "v": 43
    },
    {
      "midi": 62,
      "hit": false,
      "t": 37285.590000000004,
      "d": 174.10656249999738,
      "v": 44
    },
    {
      "midi": 64,
      "hit": false,
      "t": 37671.749427083334,
      "d": 575.8909375000003,
      "v": 69
    },
    {
      "midi": 45,
      "hit": false,
      "t": 37678.44583333333,
      "d": 2555.79505208334,
      "v": 64
    },
    {
      "midi": 57,
      "hit": false,
      "t": 37685.14223958333,
      "d": 270.08838541666773,
      "v": 72
    },
    {
      "midi": 52,
      "hit": false,
      "t": 37691.838645833326,
      "d": 2542.4022395833454,
      "v": 65
    },
    {
      "midi": 62,
      "hit": false,
      "t": 37696.30291666666,
      "d": 529.0160937500041,
      "v": 79
    },
    {
      "midi": 57,
      "hit": false,
      "t": 38182.908437499995,
      "d": 2051.3324479166768,
      "v": 46
    },
    {
      "midi": 62,
      "hit": false,
      "t": 38573.53213541667,
      "d": 1665.173020833332,
      "v": 58
    },
    {
      "midi": 76,
      "hit": false,
      "t": 38999.87000000001,
      "d": 1828.1189062499907,
      "v": 72
    },
    {
      "midi": 69,
      "hit": false,
      "t": 39026.65562500001,
      "d": 1214.2816666666622,
      "v": 74
    },
    {
      "midi": 64,
      "hit": false,
      "t": 39450.76135416667,
      "d": 783.4795312499991,
      "v": 45
    },
    {
      "midi": 69,
      "hit": false,
      "t": 40937.363541666666,
      "d": 3261.1498437499977,
      "v": 61
    },
    {
      "midi": 64,
      "hit": false,
      "t": 41024.41682291667,
      "d": 1024.5501562499994,
      "v": 59
    },
    {
      "midi": 62,
      "hit": false,
      "t": 41077.98807291667,
      "d": 953.1218229166625,
      "v": 67
    },
    {
      "midi": 47,
      "hit": false,
      "t": 41115.934375000004,
      "d": 2167.403489583332,
      "v": 65
    },
    {
      "midi": 54,
      "hit": false,
      "t": 41122.63078125,
      "d": 926.3361979166657,
      "v": 58
    },
    {
      "midi": 57,
      "hit": false,
      "t": 41133.79145833333,
      "d": 584.8194791666683,
      "v": 74
    },
    {
      "midi": 57,
      "hit": false,
      "t": 41950.753020833334,
      "d": 1754.458437500005,
      "v": 57
    },
    {
      "midi": 62,
      "hit": false,
      "t": 42428.43,
      "d": 1564.7269270833349,
      "v": 58
    },
    {
      "midi": 74,
      "hit": false,
      "t": 42428.43,
      "d": 1993.2969270833273,
      "v": 59
    },
    {
      "midi": 57,
      "hit": false,
      "t": 43928.425,
      "d": 397.3201041666616,
      "v": 35
    },
    {
      "midi": 62,
      "hit": false,
      "t": 44142.71,
      "d": 207.58859374999884,
      "v": 44
    },
    {
      "midi": 69,
      "hit": false,
      "t": 44361.45927083333,
      "d": 160.71374999999534,
      "v": 41
    },
    {
      "midi": 57,
      "hit": false,
      "t": 44524.40515624999,
      "d": 249.99916666665376,
      "v": 57
    },
    {
      "midi": 62,
      "hit": false,
      "t": 44555.65505208332,
      "d": 491.06979166666133,
      "v": 58
    },
    {
      "midi": 43,
      "hit": false,
      "t": 44562.351458333316,
      "d": 2323.6529687500006,
      "v": 61
    },
    {
      "midi": 69,
      "hit": false,
      "t": 44571.27999999998,
      "d": 616.0693750000064,
      "v": 69
    },
    {
      "midi": 50,
      "hit": false,
      "t": 44584.67281249998,
      "d": 2258.9210416666683,
      "v": 60
    },
    {
      "midi": 55,
      "hit": false,
      "t": 44586.90494791664,
      "d": 881.6934895833401,
      "v": 58
    },
    {
      "midi": 64,
      "hit": false,
      "t": 44595.83348958331,
      "d": 582.587343750005,
      "v": 51
    },
    {
      "midi": 57,
      "hit": false,
      "t": 44977.528645833314,
      "d": 1767.8512499999997,
      "v": 53
    },
    {
      "midi": 62,
      "hit": false,
      "t": 45417.25932291665,
      "d": 2252.2246354166564,
      "v": 55
    },
    {
      "midi": 69,
      "hit": false,
      "t": 45856.98999999998,
      "d": 1395.0846354166642,
      "v": 72
    },
    {
      "midi": 57,
      "hit": false,
      "t": 47564.57359374998,
      "d": 205.3564583333282,
      "v": 26
    },
    {
      "midi": 69,
      "hit": false,
      "t": 47794.48354166664,
      "d": 129.46385416666453,
      "v": 46
    },
    {
      "midi": 57,
      "hit": false,
      "t": 47937.340208333306,
      "d": 314.7310937500006,
      "v": 53
    },
    {
      "midi": 62,
      "hit": false,
      "t": 47973.05437499997,
      "d": 589.2837500000023,
      "v": 53
    },
    {
      "midi": 45,
      "hit": false,
      "t": 47990.91145833331,
      "d": 2337.0457812500026,
      "v": 50
    },
    {
      "midi": 38,
      "hit": false,
      "t": 47999.839999999975,
      "d": 2343.7421875,
      "v": 59
    },
    {
      "midi": 50,
      "hit": false,
      "t": 48008.76854166664,
      "d": 995.532395833332,
      "v": 51
    },
    {
      "midi": 64,
      "hit": false,
      "t": 48026.62562499997,
      "d": 662.9442187500026,
      "v": 55
    },
    {
      "midi": 69,
      "hit": false,
      "t": 48048.94697916664,
      "d": 754.4617708333317,
      "v": 74
    },
    {
      "midi": 57,
      "hit": false,
      "t": 48399.39223958331,
      "d": 1667.4051562500026,
      "v": 59
    },
    {
      "midi": 62,
      "hit": false,
      "t": 48816.801562499975,
      "d": 1662.9408854166686,
      "v": 59
    },
    {
      "midi": 69,
      "hit": false,
      "t": 49285.549999999974,
      "d": 2763.383645833339,
      "v": 79
    },
    {
      "midi": 57,
      "hit": false,
      "t": 50334.65364583331,
      "d": 334.8203125000073,
      "v": 30
    },
    {
      "midi": 62,
      "hit": false,
      "t": 50591.34921874998,
      "d": 245.5348958333343,
      "v": 56
    },
    {
      "midi": 57,
      "hit": false,
      "t": 50785.544999999984,
      "d": 399.552239583325,
      "v": 43
    },
    {
      "midi": 62,
      "hit": false,
      "t": 50999.82999999998,
      "d": 174.10656249999738,
      "v": 44
    },
    {
      "midi": 64,
      "hit": false,
      "t": 51385.98942708331,
      "d": 575.8909375000003,
      "v": 69
    },
    {
      "midi": 45,
      "hit": false,
      "t": 51392.68583333331,
      "d": 2555.79505208334,
      "v": 64
    },
    {
      "midi": 57,
      "hit": false,
      "t": 51399.382239583305,
      "d": 270.08838541666773,
      "v": 72
    },
    {
      "midi": 52,
      "hit": false,
      "t": 51406.0786458333,
      "d": 2542.4022395833454,
      "v": 65
    },
    {
      "midi": 62,
      "hit": false,
      "t": 51410.542916666636,
      "d": 529.0160937500041,
      "v": 79
    },
    {
      "midi": 57,
      "hit": false,
      "t": 51897.14843749997,
      "d": 2051.3324479166768,
      "v": 46
    },
    {
      "midi": 62,
      "hit": false,
      "t": 52287.77213541665,
      "d": 1665.173020833332,
      "v": 58
    },
    {
      "midi": 76,
      "hit": false,
      "t": 52714.109999999986,
      "d": 1828.1189062499907,
      "v": 72
    },
    {
      "midi": 69,
      "hit": false,
      "t": 52740.89562499998,
      "d": 1214.2816666666622,
      "v": 74
    },
    {
      "midi": 64,
      "hit": false,
      "t": 53165.00135416665,
      "d": 783.4795312499991,
      "v": 45
    },
    {
      "midi": 58,
      "hit": false,
      "t": 54856.95999999998,
      "d": 256.695572916673,
      "v": 41
    },
    {
      "midi": 61,
      "hit": false,
      "t": 54856.95999999998,
      "d": 276.7847916666724,
      "v": 42
    },
    {
      "midi": 66,
      "hit": false,
      "t": 54856.95999999998,
      "d": 287.9454687500038,
      "v": 30
    },
    {
      "midi": 54,
      "hit": false,
      "t": 54856.95999999998,
      "d": 4258.914375,
      "v": 29
    },
    {
      "midi": 46,
      "hit": false,
      "t": 54856.95999999998,
      "d": 4265.610781249998,
      "v": 38
    },
    {
      "midi": 49,
      "hit": false,
      "t": 54856.95999999998,
      "d": 4272.307187499995,
      "v": 44
    },
    {
      "midi": 42,
      "hit": false,
      "t": 54856.95999999998,
      "d": 4325.878437499996,
      "v": 26
    },
    {
      "midi": 67,
      "hit": false,
      "t": 55285.529999999984,
      "d": 428.5699999999997,
      "v": 48
    },
    {
      "midi": 66,
      "hit": false,
      "t": 55714.099999999984,
      "d": 479.90911458332994,
      "v": 43
    },
    {
      "midi": 67,
      "hit": false,
      "t": 56142.669999999984,
      "d": 401.78437499999563,
      "v": 39
    },
    {
      "midi": 66,
      "hit": false,
      "t": 56571.239999999976,
      "d": 419.6414583333317,
      "v": 32
    },
    {
      "midi": 67,
      "hit": false,
      "t": 56999.809999999976,
      "d": 424.1057291666657,
      "v": 24
    },
    {
      "midi": 66,
      "hit": false,
      "t": 57428.379999999976,
      "d": 437.49854166666773,
      "v": 23
    },
    {
      "midi": 67,
      "hit": false,
      "t": 57856.949999999975,
      "d": 1582.5840104166637,
      "v": 19
    },
    {
      "midi": 66,
      "hit": false,
      "t": 58285.519999999975,
      "d": 2316.956562499996,
      "v": 34
    },
    {
      "midi": 69,
      "hit": false,
      "t": 61508.72354166664,
      "d": 3261.1498437499977,
      "v": 61
    },
    {
      "midi": 64,
      "hit": false,
      "t": 61595.77682291664,
      "d": 1024.5501562499994,
      "v": 59
    },
    {
      "midi": 62,
      "hit": false,
      "t": 61649.34807291664,
      "d": 953.1218229166625,
      "v": 67
    },
    {
      "midi": 47,
      "hit": false,
      "t": 61687.294374999976,
      "d": 2167.403489583332,
      "v": 65
    },
    {
      "midi": 54,
      "hit": false,
      "t": 61693.99078124997,
      "d": 926.3361979166657,
      "v": 58
    },
    {
      "midi": 57,
      "hit": false,
      "t": 61705.151458333305,
      "d": 584.8194791666683,
      "v": 74
    },
    {
      "midi": 57,
      "hit": false,
      "t": 62522.113020833305,
      "d": 1754.458437500005,
      "v": 57
    },
    {
      "midi": 62,
      "hit": false,
      "t": 62999.78999999997,
      "d": 1564.7269270833349,
      "v": 58
    },
    {
      "midi": 74,
      "hit": false,
      "t": 62999.78999999997,
      "d": 1993.2969270833273,
      "v": 59
    },
    {
      "midi": 57,
      "hit": false,
      "t": 64499.784999999974,
      "d": 397.3201041666616,
      "v": 35
    },
    {
      "midi": 62,
      "hit": false,
      "t": 64714.06999999997,
      "d": 207.58859374999884,
      "v": 44
    },
    {
      "midi": 69,
      "hit": false,
      "t": 64932.8192708333,
      "d": 160.71374999999534,
      "v": 41
    },
    {
      "midi": 57,
      "hit": false,
      "t": 65095.76515624996,
      "d": 249.99916666665376,
      "v": 57
    },
    {
      "midi": 62,
      "hit": false,
      "t": 65127.01505208329,
      "d": 491.06979166666133,
      "v": 58
    },
    {
      "midi": 43,
      "hit": false,
      "t": 65133.71145833329,
      "d": 2323.6529687499715,
      "v": 61
    },
    {
      "midi": 69,
      "hit": false,
      "t": 65142.63999999995,
      "d": 616.0693749999991,
      "v": 69
    },
    {
      "midi": 50,
      "hit": false,
      "t": 65156.03281249995,
      "d": 2258.9210416666465,
      "v": 60
    },
    {
      "midi": 55,
      "hit": false,
      "t": 65158.264947916614,
      "d": 881.6934895833256,
      "v": 58
    },
    {
      "midi": 64,
      "hit": false,
      "t": 65167.19348958328,
      "d": 582.5873437499977,
      "v": 51
    },
    {
      "midi": 57,
      "hit": false,
      "t": 65548.88864583329,
      "d": 1767.8512499999779,
      "v": 53
    },
    {
      "midi": 62,
      "hit": false,
      "t": 65988.61932291661,
      "d": 2252.2246354166564,
      "v": 55
    },
    {
      "midi": 69,
      "hit": false,
      "t": 66428.34999999993,
      "d": 1395.084635416657,
      "v": 72
    },
    {
      "midi": 57,
      "hit": false,
      "t": 68135.93359374993,
      "d": 205.35645833333547,
      "v": 26
    },
    {
      "midi": 69,
      "hit": false,
      "t": 68365.84354166659,
      "d": 129.46385416666453,
      "v": 46
    },
    {
      "midi": 57,
      "hit": false,
      "t": 68508.70020833325,
      "d": 314.73109375001513,
      "v": 53
    },
    {
      "midi": 62,
      "hit": false,
      "t": 68544.41437499992,
      "d": 589.2837500000169,
      "v": 53
    },
    {
      "midi": 45,
      "hit": false,
      "t": 68562.27145833326,
      "d": 2337.0457812500244,
      "v": 50
    },
    {
      "midi": 38,
      "hit": false,
      "t": 68571.19999999992,
      "d": 2343.742187500029,
      "v": 59
    },
    {
      "midi": 50,
      "hit": false,
      "t": 68580.12854166659,
      "d": 995.5323958333465,
      "v": 51
    },
    {
      "midi": 64,
      "hit": false,
      "t": 68597.98562499993,
      "d": 662.9442187500099,
      "v": 55
    },
    {
      "midi": 69,
      "hit": false,
      "t": 68620.30697916659,
      "d": 754.4617708333535,
      "v": 74
    },
    {
      "midi": 57,
      "hit": false,
      "t": 68970.75223958326,
      "d": 1667.40515625001,
      "v": 59
    },
    {
      "midi": 62,
      "hit": false,
      "t": 69388.16156249994,
      "d": 1662.9408854166832,
      "v": 59
    },
    {
      "midi": 69,
      "hit": false,
      "t": 69856.90999999995,
      "d": 2763.3836458333535,
      "v": 79
    },
    {
      "midi": 57,
      "hit": false,
      "t": 70906.01364583329,
      "d": 334.8203125,
      "v": 30
    },
    {
      "midi": 62,
      "hit": false,
      "t": 71162.70921874995,
      "d": 245.5348958333343,
      "v": 56
    },
    {
      "midi": 57,
      "hit": false,
      "t": 71356.90499999996,
      "d": 399.55223958333954,
      "v": 43
    },
    {
      "midi": 62,
      "hit": false,
      "t": 71571.18999999996,
      "d": 174.10656250000466,
      "v": 44
    },
    {
      "midi": 64,
      "hit": false,
      "t": 71957.34942708329,
      "d": 575.8909375000076,
      "v": 69
    },
    {
      "midi": 45,
      "hit": false,
      "t": 71964.0458333333,
      "d": 2555.79505208334,
      "v": 64
    },
    {
      "midi": 57,
      "hit": false,
      "t": 71970.7422395833,
      "d": 270.088385416675,
      "v": 72
    },
    {
      "midi": 52,
      "hit": false,
      "t": 71977.4386458333,
      "d": 2542.402239583331,
      "v": 65
    },
    {
      "midi": 62,
      "hit": false,
      "t": 71981.90291666663,
      "d": 529.0160937500041,
      "v": 79
    },
    {
      "midi": 57,
      "hit": false,
      "t": 72468.50843749997,
      "d": 2051.332447916662,
      "v": 46
    },
    {
      "midi": 62,
      "hit": false,
      "t": 72859.13213541663,
      "d": 1665.173020833332,
      "v": 58
    },
    {
      "midi": 76,
      "hit": false,
      "t": 73285.46999999996,
      "d": 1828.1189062500052,
      "v": 72
    },
    {
      "midi": 69,
      "hit": false,
      "t": 73312.25562499996,
      "d": 1214.2816666666622,
      "v": 74
    },
    {
      "midi": 64,
      "hit": false,
      "t": 73736.36135416663,
      "d": 783.4795312500064,
      "v": 45
    },
    {
      "midi": 69,
      "hit": false,
      "t": 75222.96354166663,
      "d": 3261.149843750027,
      "v": 61
    },
    {
      "midi": 64,
      "hit": false,
      "t": 75310.01682291663,
      "d": 1024.5501562499994,
      "v": 59
    },
    {
      "midi": 62,
      "hit": false,
      "t": 75363.58807291662,
      "d": 953.1218229166698,
      "v": 67
    },
    {
      "midi": 47,
      "hit": false,
      "t": 75401.53437499996,
      "d": 2167.4034895833465,
      "v": 65
    },
    {
      "midi": 54,
      "hit": false,
      "t": 75408.23078124996,
      "d": 926.3361979166657,
      "v": 58
    },
    {
      "midi": 57,
      "hit": false,
      "t": 75419.3914583333,
      "d": 584.819479166661,
      "v": 74
    },
    {
      "midi": 57,
      "hit": false,
      "t": 76236.3530208333,
      "d": 1754.4584375000122,
      "v": 57
    },
    {
      "midi": 62,
      "hit": false,
      "t": 76714.02999999997,
      "d": 1564.7269270833494,
      "v": 58
    },
    {
      "midi": 74,
      "hit": false,
      "t": 76714.02999999997,
      "d": 1993.2969270833419,
      "v": 59
    },
    {
      "midi": 57,
      "hit": false,
      "t": 78214.02499999998,
      "d": 397.3201041666762,
      "v": 35
    },
    {
      "midi": 62,
      "hit": false,
      "t": 78428.30999999998,
      "d": 207.58859374999884,
      "v": 44
    },
    {
      "midi": 69,
      "hit": false,
      "t": 78647.05927083331,
      "d": 160.71374999999534,
      "v": 41
    },
    {
      "midi": 57,
      "hit": false,
      "t": 78810.00515624997,
      "d": 249.99916666666104,
      "v": 57
    },
    {
      "midi": 62,
      "hit": false,
      "t": 78841.2550520833,
      "d": 491.06979166665406,
      "v": 58
    },
    {
      "midi": 43,
      "hit": false,
      "t": 78847.95145833331,
      "d": 2323.652968749957,
      "v": 61
    },
    {
      "midi": 69,
      "hit": false,
      "t": 78856.87999999998,
      "d": 616.0693749999773,
      "v": 69
    },
    {
      "midi": 50,
      "hit": false,
      "t": 78870.27281249997,
      "d": 2258.921041666632,
      "v": 60
    },
    {
      "midi": 55,
      "hit": false,
      "t": 78872.50494791663,
      "d": 881.693489583311,
      "v": 58
    },
    {
      "midi": 64,
      "hit": false,
      "t": 78881.4334895833,
      "d": 582.5873437499831,
      "v": 51
    },
    {
      "midi": 57,
      "hit": false,
      "t": 79263.12864583329,
      "d": 1767.8512499999779,
      "v": 53
    },
    {
      "midi": 62,
      "hit": false,
      "t": 79702.85932291661,
      "d": 2252.2246354166564,
      "v": 55
    },
    {
      "midi": 69,
      "hit": false,
      "t": 80142.58999999994,
      "d": 1395.084635416657,
      "v": 72
    },
    {
      "midi": 57,
      "hit": false,
      "t": 81850.17359374993,
      "d": 205.35645833333547,
      "v": 26
    },
    {
      "midi": 69,
      "hit": false,
      "t": 82080.0835416666,
      "d": 129.46385416666453,
      "v": 46
    },
    {
      "midi": 57,
      "hit": false,
      "t": 82222.94020833325,
      "d": 314.73109375001513,
      "v": 53
    },
    {
      "midi": 62,
      "hit": false,
      "t": 82258.65437499993,
      "d": 589.2837500000169,
      "v": 53
    },
    {
      "midi": 45,
      "hit": false,
      "t": 82276.51145833326,
      "d": 2337.0457812500244,
      "v": 50
    },
    {
      "midi": 38,
      "hit": false,
      "t": 82285.43999999993,
      "d": 2343.742187500029,
      "v": 59
    },
    {
      "midi": 50,
      "hit": false,
      "t": 82294.3685416666,
      "d": 995.5323958333465,
      "v": 51
    },
    {
      "midi": 64,
      "hit": false,
      "t": 82312.22562499993,
      "d": 662.9442187500099,
      "v": 55
    },
    {
      "midi": 69,
      "hit": false,
      "t": 82334.5469791666,
      "d": 754.4617708333535,
      "v": 74
    },
    {
      "midi": 57,
      "hit": false,
      "t": 82684.99223958327,
      "d": 1667.40515625001,
      "v": 59
    },
    {
      "midi": 62,
      "hit": false,
      "t": 83102.40156249994,
      "d": 1662.9408854166832,
      "v": 59
    },
    {
      "midi": 69,
      "hit": false,
      "t": 83571.14999999995,
      "d": 2763.3836458333535,
      "v": 79
    },
    {
      "midi": 57,
      "hit": false,
      "t": 84620.25364583329,
      "d": 334.8203125,
      "v": 30
    },
    {
      "midi": 62,
      "hit": false,
      "t": 84876.94921874996,
      "d": 245.5348958333343,
      "v": 56
    },
    {
      "midi": 57,
      "hit": false,
      "t": 85071.14499999996,
      "d": 399.55223958333954,
      "v": 43
    },
    {
      "midi": 62,
      "hit": false,
      "t": 85285.42999999996,
      "d": 174.10656250000466,
      "v": 44
    },
    {
      "midi": 64,
      "hit": false,
      "t": 85671.5894270833,
      "d": 575.8909375000076,
      "v": 69
    },
    {
      "midi": 45,
      "hit": false,
      "t": 85678.2858333333,
      "d": 2555.79505208334,
      "v": 64
    },
    {
      "midi": 57,
      "hit": false,
      "t": 85684.9822395833,
      "d": 270.088385416675,
      "v": 72
    },
    {
      "midi": 52,
      "hit": false,
      "t": 85691.67864583331,
      "d": 2542.402239583331,
      "v": 65
    },
    {
      "midi": 62,
      "hit": false,
      "t": 85696.14291666663,
      "d": 529.0160937500041,
      "v": 79
    },
    {
      "midi": 57,
      "hit": false,
      "t": 86182.74843749998,
      "d": 2051.332447916662,
      "v": 46
    },
    {
      "midi": 62,
      "hit": false,
      "t": 86573.37213541663,
      "d": 1665.173020833332,
      "v": 58
    },
    {
      "midi": 76,
      "hit": false,
      "t": 86999.70999999996,
      "d": 1828.1189062500052,
      "v": 72
    },
    {
      "midi": 69,
      "hit": false,
      "t": 87026.49562499997,
      "d": 1214.2816666666622,
      "v": 74
    },
    {
      "midi": 64,
      "hit": false,
      "t": 87450.60135416663,
      "d": 783.4795312500064,
      "v": 45
    },
    {
      "midi": 66,
      "hit": false,
      "t": 89142.55999999997,
      "d": 1765.619114583329,
      "v": 52
    },
    {
      "midi": 61,
      "hit": false,
      "t": 89142.55999999997,
      "d": 1770.0833854166558,
      "v": 42
    },
    {
      "midi": 54,
      "hit": false,
      "t": 89142.55999999997,
      "d": 1785.7083333333285,
      "v": 41
    },
    {
      "midi": 73,
      "hit": false,
      "t": 89142.55999999997,
      "d": 1785.7083333333285,
      "v": 38
    },
    {
      "midi": 68,
      "hit": false,
      "t": 89142.55999999997,
      "d": 1796.8690104166599,
      "v": 48
    },
    {
      "midi": 49,
      "hit": false,
      "t": 89142.55999999997,
      "d": 1825.8867708333273,
      "v": 47
    },
    {
      "midi": 42,
      "hit": false,
      "t": 89155.95281249996,
      "d": 1801.3332812500012,
      "v": 35
    },
    {
      "midi": 61,
      "hit": false,
      "t": 93899.24057291663,
      "d": 256.6955729166657,
      "v": 52
    },
    {
      "midi": 67,
      "hit": false,
      "t": 93905.93697916664,
      "d": 381.69515624998894,
      "v": 60
    },
    {
      "midi": 61,
      "hit": false,
      "t": 94352.36406249997,
      "d": 238.83848958332965,
      "v": 75
    },
    {
      "midi": 66,
      "hit": false,
      "t": 94356.8283333333,
      "d": 294.64187500000116,
      "v": 74
    },
    {
      "midi": 61,
      "hit": false,
      "t": 94760.84484374996,
      "d": 203.1243229166721,
      "v": 79
    },
    {
      "midi": 49,
      "hit": false,
      "t": 94955.04062499997,
      "d": 1116.0677083333285,
      "v": 64
    },
    {
      "midi": 66,
      "hit": false,
      "t": 95142.53999999996,
      "d": 879.4613541666622,
      "v": 100
    },
    {
      "midi": 61,
      "hit": false,
      "t": 95142.53999999996,
      "d": 886.1577604166669,
      "v": 94
    },
    {
      "midi": 70,
      "hit": false,
      "t": 95142.53999999996,
      "d": 890.6220312499936,
      "v": 110
    },
    {
      "midi": 73,
      "hit": false,
      "t": 95142.53999999996,
      "d": 897.3184374999983,
      "v": 87
    },
    {
      "midi": 54,
      "hit": false,
      "t": 95142.53999999996,
      "d": 901.782708333325,
      "v": 72
    },
    {
      "midi": 42,
      "hit": false,
      "t": 95180.4863020833,
      "d": 915.1755208333198,
      "v": 67
    },
    {
      "midi": 59,
      "hit": false,
      "t": 95999.67999999996,
      "d": 1209.8173958333064,
      "v": 94
    },
    {
      "midi": 52,
      "hit": false,
      "t": 95999.67999999996,
      "d": 2419.634791666642,
      "v": 74
    },
    {
      "midi": 67,
      "hit": false,
      "t": 95999.67999999996,
      "d": 2763.38364583331,
      "v": 87
    },
    {
      "midi": 40,
      "hit": false,
      "t": 96001.91213541663,
      "d": 1162.9425520833029,
      "v": 63
    },
    {
      "midi": 55,
      "hit": false,
      "t": 97095.65848958326,
      "d": 140.62453125001048,
      "v": 45
    },
    {
      "midi": 40,
      "hit": false,
      "t": 97294.31854166661,
      "d": 1366.0668749999895,
      "v": 72
    },
    {
      "midi": 55,
      "hit": false,
      "t": 97298.78281249994,
      "d": 1299.1028125000012,
      "v": 72
    },
    {
      "midi": 62,
      "hit": false,
      "t": 97305.47921874994,
      "d": 1450.8880208333285,
      "v": 75
    },
    {
      "midi": 59,
      "hit": false,
      "t": 97312.17562499995,
      "d": 1417.4059895833198,
      "v": 87
    },
    {
      "midi": 52,
      "hit": false,
      "t": 98542.08223958327,
      "d": 174.10656250000466,
      "v": 59
    },
    {
      "midi": 55,
      "hit": false,
      "t": 99001.9021354166,
      "d": 73.66046874999302,
      "v": 54
    },
    {
      "midi": 52,
      "hit": false,
      "t": 99231.81208333327,
      "d": 136.1602604166692,
      "v": 52
    },
    {
      "midi": 57,
      "hit": false,
      "t": 99428.23999999993,
      "d": 540.1767708333355,
      "v": 79
    },
    {
      "midi": 52,
      "hit": false,
      "t": 99428.23999999993,
      "d": 712.0511979166622,
      "v": 58
    },
    {
      "midi": 62,
      "hit": false,
      "t": 99428.23999999993,
      "d": 720.9797395833302,
      "v": 100
    },
    {
      "midi": 45,
      "hit": false,
      "t": 99428.23999999993,
      "d": 924.1040625000023,
      "v": 79
    },
    {
      "midi": 64,
      "hit": false,
      "t": 99428.23999999993,
      "d": 1024.5501562499994,
      "v": 100
    },
    {
      "midi": 69,
      "hit": false,
      "t": 99428.23999999993,
      "d": 1026.7822916666628,
      "v": 79
    },
    {
      "midi": 57,
      "hit": false,
      "t": 100071.09499999993,
      "d": 305.80255208333256,
      "v": 60
    },
    {
      "midi": 52,
      "hit": false,
      "t": 100303.23708333327,
      "d": 1580.351874999993,
      "v": 69
    },
    {
      "midi": 57,
      "hit": false,
      "t": 100490.73645833327,
      "d": 154.01734375000524,
      "v": 58
    },
    {
      "midi": 57,
      "hit": false,
      "t": 100693.86078124994,
      "d": 1040.1751041666575,
      "v": 75
    },
    {
      "midi": 64,
      "hit": false,
      "t": 100700.55718749994,
      "d": 1368.299010416653,
      "v": 94
    },
    {
      "midi": 69,
      "hit": false,
      "t": 100707.25359374995,
      "d": 1477.673645833318,
      "v": 75
    },
    {
      "midi": 45,
      "hit": false,
      "t": 100711.71786458328,
      "d": 1426.3345312499878,
      "v": 84
    },
    {
      "midi": 61,
      "hit": false,
      "t": 100716.1821354166,
      "d": 1319.1920312500006,
      "v": 100
    },
    {
      "midi": 57,
      "hit": false,
      "t": 101830.01770833327,
      "d": 640.6228645833471,
      "v": 59
    },
    {
      "midi": 52,
      "hit": false,
      "t": 102026.44562499993,
      "d": 87.05328125000233,
      "v": 61
    },
    {
      "midi": 62,
      "hit": false,
      "t": 102240.73062499994,
      "d": 167.41015625,
      "v": 84
    },
    {
      "midi": 64,
      "hit": false,
      "t": 102423.76572916661,
      "d": 214.2850000000035,
      "v": 61
    },
    {
      "midi": 69,
      "hit": false,
      "t": 102611.26510416661,
      "d": 866.0685416666674,
      "v": 74
    },
    {
      "midi": 66,
      "hit": false,
      "t": 102832.24651041662,
      "d": 712.0511979166477,
      "v": 87
    },
    {
      "midi": 62,
      "hit": false,
      "t": 102841.17505208329,
      "d": 683.0334374999802,
      "v": 110
    },
    {
      "midi": 57,
      "hit": false,
      "t": 102845.63932291661,
      "d": 421.8735937500023,
      "v": 94
    },
    {
      "midi": 50,
      "hit": false,
      "t": 102852.33572916662,
      "d": 633.9264583333133,
      "v": 64
    },
    {
      "midi": 38,
      "hit": false,
      "t": 102859.03213541662,
      "d": 857.1399999999703,
      "v": 67
    },
    {
      "midi": 57,
      "hit": false,
      "t": 103481.7979166666,
      "d": 95.9818229166558,
      "v": 59
    },
    {
      "midi": 50,
      "hit": false,
      "t": 103716.1721354166,
      "d": 1145.0854687499814,
      "v": 67
    },
    {
      "midi": 45,
      "hit": false,
      "t": 103928.22499999993,
      "d": 118.30317708333314,
      "v": 59
    },
    {
      "midi": 38,
      "hit": false,
      "t": 104122.42078124994,
      "d": 564.7302604166325,
      "v": 75
    },
    {
      "midi": 69,
      "hit": false,
      "t": 104133.58145833327,
      "d": 453.1234895833186,
      "v": 100
    },
    {
      "midi": 64,
      "hit": false,
      "t": 104140.27786458327,
      "d": 473.21270833330345,
      "v": 79
    },
    {
      "midi": 74,
      "hit": false,
      "t": 104144.7421354166,
      "d": 437.49854166666046,
      "v": 87
    },
    {
      "midi": 66,
      "hit": false,
      "t": 104151.4385416666,
      "d": 457.5877604166453,
      "v": 100
    },
    {
      "midi": 57,
      "hit": false,
      "t": 105205.00645833324,
      "d": 104.91036458333838,
      "v": 50
    },
    {
      "midi": 57,
      "hit": false,
      "t": 105408.13078124991,
      "d": 294.64187500000116,
      "v": 75
    },
    {
      "midi": 64,
      "hit": false,
      "t": 105412.59505208324,
      "d": 419.64145833333896,
      "v": 94
    },
    {
      "midi": 49,
      "hit": false,
      "t": 105419.29145833325,
      "d": 292.4097395833378,
      "v": 94
    },
    {
      "midi": 69,
      "hit": false,
      "t": 105425.98786458325,
      "d": 433.03427083331917,
      "v": 75
    },
    {
      "midi": 61,
      "hit": false,
      "t": 105430.45213541658,
      "d": 417.40932291666104,
      "v": 110
    },
    {
      "midi": 57,
      "hit": false,
      "t": 105834.46864583324,
      "d": 129.46385416666453,
      "v": 46
    },
    {
      "midi": 54,
      "hit": false,
      "t": 106026.43229166657,
      "d": 225.44567708333489,
      "v": 47
    },
    {
      "midi": 57,
      "hit": false,
      "t": 106285.3599999999,
      "d": 738.8368229166663,
      "v": 84
    },
    {
      "midi": 62,
      "hit": false,
      "t": 106285.3599999999,
      "d": 776.7831250000017,
      "v": 110
    },
    {
      "midi": 66,
      "hit": false,
      "t": 106285.3599999999,
      "d": 810.2651562499959,
      "v": 87
    },
    {
      "midi": 69,
      "hit": false,
      "t": 106285.3599999999,
      "d": 810.2651562499959,
      "v": 84
    },
    {
      "midi": 47,
      "hit": false,
      "t": 106285.3599999999,
      "d": 1053.5679166666669,
      "v": 74
    },
    {
      "midi": 47,
      "hit": false,
      "t": 107550.9807812499,
      "d": 754.461770833339,
      "v": 64
    },
    {
      "midi": 59,
      "hit": false,
      "t": 107557.67718749991,
      "d": 511.159010416668,
      "v": 60
    },
    {
      "midi": 74,
      "hit": false,
      "t": 107564.37359374992,
      "d": 408.480781249993,
      "v": 84
    },
    {
      "midi": 66,
      "hit": false,
      "t": 107571.06999999992,
      "d": 430.8021354166558,
      "v": 94
    },
    {
      "midi": 69,
      "hit": false,
      "t": 107573.30213541658,
      "d": 401.78437499998836,
      "v": 84
    },
    {
      "midi": 62,
      "hit": false,
      "t": 107577.76640624991,
      "d": 459.8198958333378,
      "v": 79
    },
    {
      "midi": 57,
      "hit": false,
      "t": 108667.04848958325,
      "d": 104.91036458333838,
      "v": 34
    },
    {
      "midi": 45,
      "hit": false,
      "t": 108841.15505208325,
      "d": 328.12390624999534,
      "v": 84
    },
    {
      "midi": 57,
      "hit": false,
      "t": 108847.85145833326,
      "d": 330.3560416666587,
      "v": 72
    },
    {
      "midi": 62,
      "hit": false,
      "t": 108854.54786458326,
      "d": 607.1408333333238,
      "v": 94
    },
    {
      "midi": 66,
      "hit": false,
      "t": 108859.01213541659,
      "d": 624.9979166666599,
      "v": 84
    },
    {
      "midi": 69,
      "hit": false,
      "t": 108863.47640624992,
      "d": 571.4266666666663,
      "v": 75
    },
    {
      "midi": 57,
      "hit": false,
      "t": 109287.58213541658,
      "d": 198.6600520833308,
      "v": 41
    },
    {
      "midi": 47,
      "hit": false,
      "t": 109481.77791666659,
      "d": 196.4279166666529,
      "v": 52
    },
    {
      "midi": 64,
      "hit": false,
      "t": 109700.5271874999,
      "d": 613.8372395832994,
      "v": 94
    },
    {
      "midi": 67,
      "hit": false,
      "t": 109707.2235937499,
      "d": 582.5873437499686,
      "v": 84
    },
    {
      "midi": 52,
      "hit": false,
      "t": 109711.68786458323,
      "d": 571.4266666666372,
      "v": 65
    },
    {
      "midi": 59,
      "hit": false,
      "t": 109716.15213541656,
      "d": 397.32010416664707,
      "v": 100
    },
    {
      "midi": 62,
      "hit": false,
      "t": 109720.61640624989,
      "d": 611.6051041666506,
      "v": 100
    },
    {
      "midi": 40,
      "hit": false,
      "t": 109740.70562499989,
      "d": 861.6042708333116,
      "v": 69
    },
    {
      "midi": 59,
      "hit": false,
      "t": 110325.52510416653,
      "d": 80.35687499999767,
      "v": 64
    },
    {
      "midi": 52,
      "hit": false,
      "t": 110524.18515624986,
      "d": 1511.1556770833558,
      "v": 72
    },
    {
      "midi": 47,
      "hit": false,
      "t": 110740.70229166653,
      "d": 145.0888020833372,
      "v": 54
    },
    {
      "midi": 40,
      "hit": false,
      "t": 110950.5230208332,
      "d": 1417.4059895833489,
      "v": 74
    },
    {
      "midi": 64,
      "hit": false,
      "t": 110959.45156249987,
      "d": 877.2292187500134,
      "v": 75
    },
    {
      "midi": 74,
      "hit": false,
      "t": 110966.14796874988,
      "d": 843.7471875000047,
      "v": 100
    },
    {
      "midi": 71,
      "hit": false,
      "t": 110972.84437499988,
      "d": 830.3543749999953,
      "v": 114
    },
    {
      "midi": 67,
      "hit": false,
      "t": 110977.30864583321,
      "d": 841.5150520833413,
      "v": 114
    },
    {
      "midi": 52,
      "hit": false,
      "t": 112267.48291666656,
      "d": 167.41015625,
      "v": 46
    },
    {
      "midi": 67,
      "hit": false,
      "t": 112682.66010416656,
      "d": 379.4630208333256,
      "v": 79
    },
    {
      "midi": 62,
      "hit": false,
      "t": 112687.12437499988,
      "d": 254.46343750000233,
      "v": 94
    },
    {
      "midi": 52,
      "hit": false,
      "t": 112925.96286458321,
      "d": 1069.1928645833395,
      "v": 32
    },
    {
      "midi": 57,
      "hit": false,
      "t": 113117.92651041655,
      "d": 504.4626041666779,
      "v": 59
    },
    {
      "midi": 45,
      "hit": false,
      "t": 113124.62291666656,
      "d": 852.6757291666727,
      "v": 67
    },
    {
      "midi": 67,
      "hit": false,
      "t": 113131.31932291656,
      "d": 803.5687500000058,
      "v": 72
    },
    {
      "midi": 64,
      "hit": false,
      "t": 113135.78359374989,
      "d": 845.979322916668,
      "v": 84
    },
    {
      "midi": 61,
      "hit": false,
      "t": 113151.40854166656,
      "d": 825.8901041666686,
      "v": 87
    },
    {
      "midi": 59,
      "hit": false,
      "t": 113765.2457812499,
      "d": 1575.8876041666808,
      "v": 64
    },
    {
      "midi": 57,
      "hit": false,
      "t": 113977.29864583323,
      "d": 1435.263072916685,
      "v": 62
    },
    {
      "midi": 52,
      "hit": false,
      "t": 114169.26229166656,
      "d": 1691.9586458333797,
      "v": 53
    },
    {
      "midi": 64,
      "hit": false,
      "t": 114383.54729166656,
      "d": 1383.9239583333692,
      "v": 94
    },
    {
      "midi": 69,
      "hit": false,
      "t": 114390.24369791656,
      "d": 1495.5307291666977,
      "v": 94
    },
    {
      "midi": 61,
      "hit": false,
      "t": 114396.94010416657,
      "d": 1294.638541666689,
      "v": 100
    },
    {
      "midi": 45,
      "hit": false,
      "t": 114403.63651041657,
      "d": 1497.762864583361,
      "v": 72
    },
    {
      "midi": 59,
      "hit": false,
      "t": 115508.54354166659,
      "d": 680.801302083346,
      "v": 62
    },
    {
      "midi": 57,
      "hit": false,
      "t": 115700.50718749993,
      "d": 154.01734375000524,
      "v": 60
    },
    {
      "midi": 61,
      "hit": false,
      "t": 115910.3279166666,
      "d": 185.26723958333605,
      "v": 84
    },
    {
      "midi": 64,
      "hit": false,
      "t": 116117.9165104166,
      "d": 165.17802083333663,
      "v": 65
    },
    {
      "midi": 69,
      "hit": false,
      "t": 116321.04083333327,
      "d": 2383.9206249999697,
      "v": 79
    },
    {
      "midi": 57,
      "hit": false,
      "t": 116544.25437499995,
      "d": 444.1949479166651,
      "v": 74
    },
    {
      "midi": 50,
      "hit": false,
      "t": 116571.03999999995,
      "d": 676.3370312499756,
      "v": 64
    },
    {
      "midi": 38,
      "hit": false,
      "t": 116571.03999999995,
      "d": 837.0507812499709,
      "v": 75
    },
    {
      "midi": 66,
      "hit": false,
      "t": 116571.03999999995,
      "d": 930.8004687499779,
      "v": 75
    },
    {
      "midi": 62,
      "hit": false,
      "t": 116571.03999999995,
      "d": 935.2647395833046,
      "v": 94
    },
    {
      "midi": 57,
      "hit": false,
      "t": 117213.89499999993,
      "d": 504.4626041666488,
      "v": 65
    },
    {
      "midi": 50,
      "hit": false,
      "t": 117405.85864583326,
      "d": 1308.03135416664,
      "v": 64
    },
    {
      "midi": 45,
      "hit": false,
      "t": 117606.75083333325,
      "d": 154.0173437499907,
      "v": 61
    },
    {
      "midi": 38,
      "hit": false,
      "t": 117807.64302083323,
      "d": 754.461770833339,
      "v": 84
    },
    {
      "midi": 57,
      "hit": false,
      "t": 117814.33942708324,
      "d": 734.3725520833395,
      "v": 79
    },
    {
      "midi": 64,
      "hit": false,
      "t": 117821.03583333324,
      "d": 910.711249999993,
      "v": 79
    },
    {
      "midi": 62,
      "hit": false,
      "t": 117825.50010416657,
      "d": 883.9256250000035,
      "v": 87
    },
    {
      "midi": 57,
      "hit": false,
      "t": 118711.65786458323,
      "d": 281.2490625000064,
      "v": 54
    },
    {
      "midi": 50,
      "hit": false,
      "t": 118917.01432291657,
      "d": 145.0888020833372,
      "v": 64
    },
    {
      "midi": 61,
      "hit": false,
      "t": 119124.60291666657,
      "d": 493.3019270833465,
      "v": 87
    },
    {
      "midi": 69,
      "hit": false,
      "t": 119131.29932291657,
      "d": 502.23046875001455,
      "v": 74
    },
    {
      "midi": 64,
      "hit": false,
      "t": 119137.99572916658,
      "d": 473.21270833333256,
      "v": 87
    },
    {
      "midi": 57,
      "hit": false,
      "t": 119144.69213541658,
      "d": 301.33828124999127,
      "v": 84
    },
    {
      "midi": 49,
      "hit": false,
      "t": 119144.69213541658,
      "d": 421.8735937499878,
      "v": 94
    },
    {
      "midi": 57,
      "hit": false,
      "t": 119553.17291666658,
      "d": 156.24947916668316,
      "v": 57
    },
    {
      "midi": 69,
      "hit": false,
      "t": 119997.36786458326,
      "d": 1066.9607291666762,
      "v": 79
    },
    {
      "midi": 66,
      "hit": false,
      "t": 120001.83213541658,
      "d": 857.1399999999994,
      "v": 84
    },
    {
      "midi": 62,
      "hit": false,
      "t": 120010.76067708325,
      "d": 729.9082812499983,
      "v": 94
    },
    {
      "midi": 57,
      "hit": false,
      "t": 120015.22494791658,
      "d": 368.30234375000873,
      "v": 75
    },
    {
      "midi": 47,
      "hit": false,
      "t": 120024.15348958324,
      "d": 1138.3890625000204,
      "v": 84
    },
    {
      "midi": 57,
      "hit": false,
      "t": 120660.31208333325,
      "d": 292.4097395833378,
      "v": 60
    },
    {
      "midi": 54,
      "hit": false,
      "t": 120858.97213541658,
      "d": 1066.9607291666616,
      "v": 60
    },
    {
      "midi": 57,
      "hit": false,
      "t": 121057.63218749993,
      "d": 156.2494791666686,
      "v": 59
    },
    {
      "midi": 69,
      "hit": false,
      "t": 121265.22078124993,
      "d": 995.5323958333029,
      "v": 72
    },
    {
      "midi": 57,
      "hit": false,
      "t": 121271.91718749993,
      "d": 629.4621874999866,
      "v": 74
    },
    {
      "midi": 66,
      "hit": false,
      "t": 121276.38145833326,
      "d": 930.8004687499779,
      "v": 74
    },
    {
      "midi": 62,
      "hit": false,
      "t": 121283.07786458326,
      "d": 944.1932812499726,
      "v": 84
    },
    {
      "midi": 47,
      "hit": false,
      "t": 121287.54213541659,
      "d": 680.8013020833168,
      "v": 58
    },
    {
      "midi": 57,
      "hit": false,
      "t": 122144.68213541657,
      "d": 214.28499999998894,
      "v": 50
    },
    {
      "midi": 52,
      "hit": false,
      "t": 122338.87791666656,
      "d": 196.42791666666744,
      "v": 56
    },
    {
      "midi": 57,
      "hit": false,
      "t": 122564.3235937499,
      "d": 343.748854166668,
      "v": 87
    },
    {
      "midi": 62,
      "hit": false,
      "t": 122573.25213541657,
      "d": 475.4448437500105,
      "v": 100
    },
    {
      "midi": 64,
      "hit": false,
      "t": 122573.25213541657,
      "d": 770.0867187500116,
      "v": 87
    },
    {
      "midi": 69,
      "hit": false,
      "t": 122593.34135416656,
      "d": 560.2659895833494,
      "v": 74
    },
    {
      "midi": 45,
      "hit": false,
      "t": 122597.80562499989,
      "d": 404.01651041668083,
      "v": 79
    },
    {
      "midi": 57,
      "hit": false,
      "t": 122983.96505208324,
      "d": 187.49937500001397,
      "v": 48
    },
    {
      "midi": 48,
      "hit": false,
      "t": 123193.78578124991,
      "d": 111.60677083332848,
      "v": 39
    },
    {
      "midi": 59,
      "hit": false,
      "t": 123428.1599999999,
      "d": 1209.817395833321,
      "v": 94
    },
    {
      "midi": 52,
      "hit": false,
      "t": 123428.1599999999,
      "d": 2419.6347916666564,
      "v": 74
    },
    {
      "midi": 67,
      "hit": false,
      "t": 123428.1599999999,
      "d": 2763.3836458333244,
      "v": 87
    },
    {
      "midi": 40,
      "hit": false,
      "t": 123430.39213541656,
      "d": 1162.9425520833174,
      "v": 63
    },
    {
      "midi": 55,
      "hit": false,
      "t": 124524.13848958322,
      "d": 140.62453125001048,
      "v": 45
    },
    {
      "midi": 40,
      "hit": false,
      "t": 124722.79854166656,
      "d": 1366.0668749999895,
      "v": 72
    },
    {
      "midi": 55,
      "hit": false,
      "t": 124727.26281249989,
      "d": 1299.1028125000012,
      "v": 72
    },
    {
      "midi": 62,
      "hit": false,
      "t": 124733.9592187499,
      "d": 1450.8880208333285,
      "v": 75
    },
    {
      "midi": 59,
      "hit": false,
      "t": 124740.6556249999,
      "d": 1417.4059895833198,
      "v": 87
    },
    {
      "midi": 52,
      "hit": false,
      "t": 125970.56223958322,
      "d": 174.10656250000466,
      "v": 59
    },
    {
      "midi": 55,
      "hit": false,
      "t": 126430.38213541656,
      "d": 73.66046874999302,
      "v": 54
    },
    {
      "midi": 52,
      "hit": false,
      "t": 126660.29208333322,
      "d": 136.1602604166692,
      "v": 52
    },
    {
      "midi": 57,
      "hit": false,
      "t": 126856.71999999988,
      "d": 540.1767708333355,
      "v": 79
    },
    {
      "midi": 52,
      "hit": false,
      "t": 126856.71999999988,
      "d": 712.0511979166622,
      "v": 58
    },
    {
      "midi": 62,
      "hit": false,
      "t": 126856.71999999988,
      "d": 720.9797395833302,
      "v": 100
    },
    {
      "midi": 45,
      "hit": false,
      "t": 126856.71999999988,
      "d": 924.1040625000023,
      "v": 79
    },
    {
      "midi": 64,
      "hit": false,
      "t": 126856.71999999988,
      "d": 1024.5501562499994,
      "v": 100
    },
    {
      "midi": 69,
      "hit": false,
      "t": 126856.71999999988,
      "d": 1026.7822916666628,
      "v": 79
    },
    {
      "midi": 57,
      "hit": false,
      "t": 127499.57499999988,
      "d": 305.80255208333256,
      "v": 60
    },
    {
      "midi": 52,
      "hit": false,
      "t": 127731.71708333322,
      "d": 1580.351874999993,
      "v": 69
    },
    {
      "midi": 57,
      "hit": false,
      "t": 127919.21645833322,
      "d": 154.01734375000524,
      "v": 58
    },
    {
      "midi": 57,
      "hit": false,
      "t": 128122.34078124989,
      "d": 1040.1751041666575,
      "v": 75
    },
    {
      "midi": 64,
      "hit": false,
      "t": 128129.0371874999,
      "d": 1368.299010416653,
      "v": 94
    },
    {
      "midi": 69,
      "hit": false,
      "t": 128135.7335937499,
      "d": 1477.673645833318,
      "v": 75
    },
    {
      "midi": 45,
      "hit": false,
      "t": 128140.19786458323,
      "d": 1426.3345312499878,
      "v": 84
    },
    {
      "midi": 61,
      "hit": false,
      "t": 128144.66213541655,
      "d": 1319.1920312500006,
      "v": 100
    },
    {
      "midi": 57,
      "hit": false,
      "t": 129258.49770833322,
      "d": 640.6228645833471,
      "v": 59
    },
    {
      "midi": 52,
      "hit": false,
      "t": 129454.92562499989,
      "d": 87.05328125000233,
      "v": 61
    },
    {
      "midi": 62,
      "hit": false,
      "t": 129669.21062499989,
      "d": 167.41015625,
      "v": 84
    },
    {
      "midi": 64,
      "hit": false,
      "t": 129852.24572916656,
      "d": 214.2850000000035,
      "v": 61
    },
    {
      "midi": 69,
      "hit": false,
      "t": 130039.74510416656,
      "d": 866.0685416666674,
      "v": 74
    },
    {
      "midi": 66,
      "hit": false,
      "t": 130260.72651041657,
      "d": 712.0511979166477,
      "v": 87
    },
    {
      "midi": 62,
      "hit": false,
      "t": 130269.65505208324,
      "d": 683.0334374999802,
      "v": 110
    },
    {
      "midi": 57,
      "hit": false,
      "t": 130274.11932291657,
      "d": 421.8735937500023,
      "v": 94
    },
    {
      "midi": 50,
      "hit": false,
      "t": 130280.81572916657,
      "d": 633.9264583333133,
      "v": 64
    },
    {
      "midi": 38,
      "hit": false,
      "t": 130287.51213541657,
      "d": 857.1399999999703,
      "v": 67
    },
    {
      "midi": 57,
      "hit": false,
      "t": 130910.27791666656,
      "d": 95.9818229166558,
      "v": 59
    },
    {
      "midi": 50,
      "hit": false,
      "t": 131144.65213541655,
      "d": 1145.0854687499814,
      "v": 67
    },
    {
      "midi": 45,
      "hit": false,
      "t": 131356.70499999987,
      "d": 118.30317708334769,
      "v": 59
    },
    {
      "midi": 38,
      "hit": false,
      "t": 131550.9007812499,
      "d": 564.7302604166325,
      "v": 75
    },
    {
      "midi": 69,
      "hit": false,
      "t": 131562.06145833322,
      "d": 453.1234895833186,
      "v": 100
    },
    {
      "midi": 64,
      "hit": false,
      "t": 131568.75786458323,
      "d": 473.21270833330345,
      "v": 79
    },
    {
      "midi": 74,
      "hit": false,
      "t": 131573.22213541655,
      "d": 437.49854166666046,
      "v": 87
    },
    {
      "midi": 66,
      "hit": false,
      "t": 131579.91854166656,
      "d": 457.5877604166453,
      "v": 100
    },
    {
      "midi": 57,
      "hit": false,
      "t": 132633.48645833318,
      "d": 104.91036458333838,
      "v": 50
    },
    {
      "midi": 57,
      "hit": false,
      "t": 132836.61078124985,
      "d": 294.64187500000116,
      "v": 75
    },
    {
      "midi": 64,
      "hit": false,
      "t": 132841.07505208318,
      "d": 419.6414583333244,
      "v": 94
    },
    {
      "midi": 49,
      "hit": false,
      "t": 132847.77145833318,
      "d": 292.40973958332324,
      "v": 94
    },
    {
      "midi": 69,
      "hit": false,
      "t": 132854.4678645832,
      "d": 433.0342708333337,
      "v": 75
    },
    {
      "midi": 61,
      "hit": false,
      "t": 132858.93213541651,
      "d": 417.4093229166756,
      "v": 110
    },
    {
      "midi": 57,
      "hit": false,
      "t": 133262.94864583318,
      "d": 129.46385416667908,
      "v": 46
    },
    {
      "midi": 54,
      "hit": false,
      "t": 133454.91229166652,
      "d": 225.44567708333489,
      "v": 47
    },
    {
      "midi": 57,
      "hit": false,
      "t": 133713.83999999985,
      "d": 738.8368229166954,
      "v": 84
    },
    {
      "midi": 62,
      "hit": false,
      "t": 133713.83999999985,
      "d": 776.7831250000163,
      "v": 110
    },
    {
      "midi": 66,
      "hit": false,
      "t": 133713.83999999985,
      "d": 810.2651562500105,
      "v": 87
    },
    {
      "midi": 69,
      "hit": false,
      "t": 133713.83999999985,
      "d": 810.2651562500105,
      "v": 84
    },
    {
      "midi": 47,
      "hit": false,
      "t": 133713.83999999985,
      "d": 1053.5679166666814,
      "v": 74
    },
    {
      "midi": 47,
      "hit": false,
      "t": 134979.46078124986,
      "d": 754.4617708333826,
      "v": 64
    },
    {
      "midi": 59,
      "hit": false,
      "t": 134986.15718749986,
      "d": 511.1590104167117,
      "v": 60
    },
    {
      "midi": 74,
      "hit": false,
      "t": 134992.85359374987,
      "d": 408.4807812500221,
      "v": 84
    },
    {
      "midi": 66,
      "hit": false,
      "t": 134999.54999999987,
      "d": 430.8021354166849,
      "v": 94
    },
    {
      "midi": 69,
      "hit": false,
      "t": 135001.78213541655,
      "d": 401.78437500001746,
      "v": 84
    },
    {
      "midi": 62,
      "hit": false,
      "t": 135006.24640624988,
      "d": 459.81989583335235,
      "v": 79
    },
    {
      "midi": 57,
      "hit": false,
      "t": 136095.52848958323,
      "d": 104.91036458333838,
      "v": 34
    },
    {
      "midi": 45,
      "hit": false,
      "t": 136269.63505208323,
      "d": 328.12390624999534,
      "v": 84
    },
    {
      "midi": 57,
      "hit": false,
      "t": 136276.33145833324,
      "d": 330.35604166664416,
      "v": 72
    },
    {
      "midi": 62,
      "hit": false,
      "t": 136283.02786458324,
      "d": 607.1408333332802,
      "v": 94
    },
    {
      "midi": 66,
      "hit": false,
      "t": 136287.49213541657,
      "d": 624.9979166666453,
      "v": 84
    },
    {
      "midi": 69,
      "hit": false,
      "t": 136291.9564062499,
      "d": 571.4266666666372,
      "v": 75
    },
    {
      "midi": 57,
      "hit": false,
      "t": 136716.06213541655,
      "d": 198.66005208334536,
      "v": 41
    },
    {
      "midi": 47,
      "hit": false,
      "t": 136910.25791666654,
      "d": 196.42791666669655,
      "v": 52
    },
    {
      "midi": 64,
      "hit": false,
      "t": 137129.0071874999,
      "d": 613.8372395833139,
      "v": 94
    },
    {
      "midi": 67,
      "hit": false,
      "t": 137135.7035937499,
      "d": 582.5873437499686,
      "v": 84
    },
    {
      "midi": 52,
      "hit": false,
      "t": 137140.16786458323,
      "d": 571.4266666666372,
      "v": 65
    },
    {
      "midi": 59,
      "hit": false,
      "t": 137144.63213541656,
      "d": 397.3201041666325,
      "v": 100
    },
    {
      "midi": 62,
      "hit": false,
      "t": 137149.09640624988,
      "d": 611.6051041666651,
      "v": 100
    },
    {
      "midi": 40,
      "hit": false,
      "t": 137169.18562499987,
      "d": 861.6042708333407,
      "v": 69
    },
    {
      "midi": 59,
      "hit": false,
      "t": 137754.00510416654,
      "d": 80.35687499999767,
      "v": 64
    },
    {
      "midi": 52,
      "hit": false,
      "t": 137952.6651562499,
      "d": 1511.1556770833267,
      "v": 72
    },
    {
      "midi": 47,
      "hit": false,
      "t": 138169.18229166654,
      "d": 145.0888020833372,
      "v": 54
    },
    {
      "midi": 40,
      "hit": false,
      "t": 138379.00302083322,
      "d": 1417.4059895833489,
      "v": 74
    },
    {
      "midi": 64,
      "hit": false,
      "t": 138387.93156249987,
      "d": 877.2292187499988,
      "v": 75
    },
    {
      "midi": 74,
      "hit": false,
      "t": 138394.62796874988,
      "d": 843.7471875000047,
      "v": 100
    },
    {
      "midi": 71,
      "hit": false,
      "t": 138401.32437499988,
      "d": 830.3543749999953,
      "v": 114
    },
    {
      "midi": 67,
      "hit": false,
      "t": 138405.7886458332,
      "d": 841.5150520833267,
      "v": 114
    },
    {
      "midi": 52,
      "hit": false,
      "t": 139695.96291666655,
      "d": 167.41015625,
      "v": 46
    },
    {
      "midi": 67,
      "hit": false,
      "t": 140111.14010416655,
      "d": 379.4630208333256,
      "v": 79
    },
    {
      "midi": 62,
      "hit": false,
      "t": 140115.60437499988,
      "d": 254.46343750000233,
      "v": 94
    },
    {
      "midi": 52,
      "hit": false,
      "t": 140354.44286458322,
      "d": 7073.637135416648,
      "v": 32
    },
    {
      "midi": 57,
      "hit": false,
      "t": 140546.40651041653,
      "d": 6872.744947916683,
      "v": 59
    },
    {
      "midi": 45,
      "hit": false,
      "t": 140553.10291666654,
      "d": 6874.977083333331,
      "v": 67
    },
    {
      "midi": 67,
      "hit": false,
      "t": 140559.79932291654,
      "d": 6868.280677083327,
      "v": 72
    },
    {
      "midi": 64,
      "hit": false,
      "t": 140564.26359374987,
      "d": 6745.513229166681,
      "v": 84
    },
    {
      "midi": 69,
      "hit": false,
      "t": 147222.72354166655,
      "d": 3261.1498437499686,
      "v": 61
    },
    {
      "midi": 64,
      "hit": false,
      "t": 147309.77682291655,
      "d": 118.30317708331859,
      "v": 59
    },
    {
      "midi": 62,
      "hit": false,
      "t": 147363.34807291656,
      "d": 953.1218229166407,
      "v": 67
    },
    {
      "midi": 47,
      "hit": false,
      "t": 147401.29437499988,
      "d": 2167.4034895833174,
      "v": 65
    },
    {
      "midi": 54,
      "hit": false,
      "t": 147407.9907812499,
      "d": 926.3361979166511,
      "v": 58
    },
    {
      "midi": 57,
      "hit": false,
      "t": 147419.15145833322,
      "d": 8.928541666653473,
      "v": 74
    },
    {
      "midi": 57,
      "hit": false,
      "t": 148236.1130208332,
      "d": 1754.4584374999977,
      "v": 57
    },
    {
      "midi": 62,
      "hit": false,
      "t": 148713.78999999986,
      "d": 1564.7269270833349,
      "v": 58
    },
    {
      "midi": 74,
      "hit": false,
      "t": 148713.78999999986,
      "d": 1993.2969270833419,
      "v": 59
    },
    {
      "midi": 57,
      "hit": false,
      "t": 150213.78499999986,
      "d": 397.3201041666616,
      "v": 35
    },
    {
      "midi": 62,
      "hit": false,
      "t": 150428.06999999986,
      "d": 207.58859374999884,
      "v": 44
    },
    {
      "midi": 69,
      "hit": false,
      "t": 150646.8192708332,
      "d": 160.71375000002445,
      "v": 41
    },
    {
      "midi": 57,
      "hit": false,
      "t": 150809.7651562499,
      "d": 249.9991666667047,
      "v": 57
    },
    {
      "midi": 62,
      "hit": false,
      "t": 150841.01505208324,
      "d": 491.0697916666977,
      "v": 58
    },
    {
      "midi": 43,
      "hit": false,
      "t": 150847.71145833324,
      "d": 2323.652968750015,
      "v": 61
    },
    {
      "midi": 69,
      "hit": false,
      "t": 150856.63999999993,
      "d": 616.0693749999919,
      "v": 69
    },
    {
      "midi": 50,
      "hit": false,
      "t": 150870.03281249994,
      "d": 2258.9210416666465,
      "v": 60
    },
    {
      "midi": 55,
      "hit": false,
      "t": 150872.2649479166,
      "d": 881.6934895832965,
      "v": 58
    },
    {
      "midi": 64,
      "hit": false,
      "t": 150881.19348958327,
      "d": 582.5873437499977,
      "v": 51
    },
    {
      "midi": 57,
      "hit": false,
      "t": 151262.88864583327,
      "d": 1767.8512499999779,
      "v": 53
    },
    {
      "midi": 62,
      "hit": false,
      "t": 151702.61932291658,
      "d": 2252.2246354167,
      "v": 55
    },
    {
      "midi": 69,
      "hit": false,
      "t": 152142.34999999992,
      "d": 1395.084635416686,
      "v": 72
    },
    {
      "midi": 57,
      "hit": false,
      "t": 153849.93359374994,
      "d": 205.35645833335002,
      "v": 26
    },
    {
      "midi": 69,
      "hit": false,
      "t": 154079.84354166663,
      "d": 129.46385416667908,
      "v": 46
    },
    {
      "midi": 57,
      "hit": false,
      "t": 154222.70020833332,
      "d": 314.73109374998603,
      "v": 53
    },
    {
      "midi": 62,
      "hit": false,
      "t": 154258.414375,
      "d": 589.2837499999732,
      "v": 53
    },
    {
      "midi": 45,
      "hit": false,
      "t": 154276.27145833333,
      "d": 2337.0457812499953,
      "v": 50
    },
    {
      "midi": 38,
      "hit": false,
      "t": 154285.19999999998,
      "d": 2343.7421875,
      "v": 59
    },
    {
      "midi": 50,
      "hit": false,
      "t": 154294.12854166664,
      "d": 995.5323958333465,
      "v": 51
    },
    {
      "midi": 64,
      "hit": false,
      "t": 154311.98562499997,
      "d": 662.9442187499953,
      "v": 55
    },
    {
      "midi": 69,
      "hit": false,
      "t": 154334.30697916663,
      "d": 754.4617708333244,
      "v": 74
    },
    {
      "midi": 57,
      "hit": false,
      "t": 154684.7522395833,
      "d": 1667.4051562500244,
      "v": 59
    },
    {
      "midi": 62,
      "hit": false,
      "t": 155102.16156249997,
      "d": 1662.9408854166686,
      "v": 59
    },
    {
      "midi": 69,
      "hit": false,
      "t": 155570.90999999997,
      "d": 2763.3836458333244,
      "v": 79
    },
    {
      "midi": 57,
      "hit": false,
      "t": 156620.01364583333,
      "d": 334.8203124999709,
      "v": 30
    },
    {
      "midi": 62,
      "hit": false,
      "t": 156876.70921874998,
      "d": 245.53489583331975,
      "v": 56
    },
    {
      "midi": 57,
      "hit": false,
      "t": 157070.90499999997,
      "d": 399.55223958333954,
      "v": 43
    },
    {
      "midi": 62,
      "hit": false,
      "t": 157285.18999999997,
      "d": 174.10656250000466,
      "v": 44
    },
    {
      "midi": 64,
      "hit": false,
      "t": 157671.3494270833,
      "d": 575.890937499993,
      "v": 69
    },
    {
      "midi": 45,
      "hit": false,
      "t": 157678.0458333333,
      "d": 2555.7950520833256,
      "v": 64
    },
    {
      "midi": 57,
      "hit": false,
      "t": 157684.7422395833,
      "d": 270.08838541663135,
      "v": 72
    },
    {
      "midi": 52,
      "hit": false,
      "t": 157691.43864583332,
      "d": 2542.4022395833163,
      "v": 65
    },
    {
      "midi": 62,
      "hit": false,
      "t": 157695.90291666664,
      "d": 529.0160937499895,
      "v": 79
    },
    {
      "midi": 57,
      "hit": false,
      "t": 158182.50843749996,
      "d": 2051.3324479166768,
      "v": 46
    },
    {
      "midi": 62,
      "hit": false,
      "t": 158573.13213541664,
      "d": 1665.1730208333174,
      "v": 58
    },
    {
      "midi": 76,
      "hit": false,
      "t": 158999.46999999997,
      "d": 1828.1189062499907,
      "v": 72
    },
    {
      "midi": 69,
      "hit": false,
      "t": 159026.25562499996,
      "d": 1214.2816666666768,
      "v": 74
    },
    {
      "midi": 64,
      "hit": false,
      "t": 159450.36135416664,
      "d": 783.4795312499919,
      "v": 45
    },
    {
      "midi": 69,
      "hit": false,
      "t": 160936.96354166663,
      "d": 3261.1498437499395,
      "v": 61
    },
    {
      "midi": 64,
      "hit": false,
      "t": 161024.01682291663,
      "d": 1024.5501562499558,
      "v": 59
    },
    {
      "midi": 62,
      "hit": false,
      "t": 161077.5880729166,
      "d": 953.1218229166407,
      "v": 67
    },
    {
      "midi": 47,
      "hit": false,
      "t": 161115.53437499993,
      "d": 2167.4034895833174,
      "v": 65
    },
    {
      "midi": 54,
      "hit": false,
      "t": 161122.23078124993,
      "d": 926.3361979166511,
      "v": 58
    },
    {
      "midi": 57,
      "hit": false,
      "t": 161133.39145833327,
      "d": 584.8194791666465,
      "v": 74
    },
    {
      "midi": 57,
      "hit": false,
      "t": 161950.35302083325,
      "d": 1754.4584374999977,
      "v": 57
    },
    {
      "midi": 62,
      "hit": false,
      "t": 162428.0299999999,
      "d": 1564.7269270833349,
      "v": 58
    },
    {
      "midi": 74,
      "hit": false,
      "t": 162428.0299999999,
      "d": 1993.2969270833419,
      "v": 59
    },
    {
      "midi": 57,
      "hit": false,
      "t": 163928.0249999999,
      "d": 397.3201041666616,
      "v": 35
    },
    {
      "midi": 62,
      "hit": false,
      "t": 164142.3099999999,
      "d": 207.58859374999884,
      "v": 44
    },
    {
      "midi": 69,
      "hit": false,
      "t": 164361.05927083324,
      "d": 160.71375000002445,
      "v": 41
    },
    {
      "midi": 57,
      "hit": false,
      "t": 164524.00515624994,
      "d": 249.9991666667047,
      "v": 57
    },
    {
      "midi": 62,
      "hit": false,
      "t": 164555.2550520833,
      "d": 491.0697916666977,
      "v": 58
    },
    {
      "midi": 43,
      "hit": false,
      "t": 164561.9514583333,
      "d": 2323.652968750015,
      "v": 61
    },
    {
      "midi": 69,
      "hit": false,
      "t": 164570.87999999998,
      "d": 616.0693749999919,
      "v": 69
    },
    {
      "midi": 50,
      "hit": false,
      "t": 164584.27281249998,
      "d": 2258.9210416666465,
      "v": 60
    },
    {
      "midi": 55,
      "hit": false,
      "t": 164586.50494791666,
      "d": 881.6934895832965,
      "v": 58
    },
    {
      "midi": 64,
      "hit": false,
      "t": 164595.43348958332,
      "d": 582.5873437499977,
      "v": 51
    },
    {
      "midi": 57,
      "hit": false,
      "t": 164977.12864583332,
      "d": 1767.8512499999779,
      "v": 53
    },
    {
      "midi": 62,
      "hit": false,
      "t": 165416.85932291663,
      "d": 2252.2246354167,
      "v": 55
    },
    {
      "midi": 69,
      "hit": false,
      "t": 165856.58999999997,
      "d": 1395.084635416686,
      "v": 72
    },
    {
      "midi": 57,
      "hit": false,
      "t": 167564.17359375,
      "d": 205.35645833335002,
      "v": 26
    },
    {
      "midi": 69,
      "hit": false,
      "t": 167794.08354166668,
      "d": 129.46385416667908,
      "v": 46
    },
    {
      "midi": 57,
      "hit": false,
      "t": 167936.94020833337,
      "d": 314.73109374998603,
      "v": 53
    },
    {
      "midi": 62,
      "hit": false,
      "t": 167972.65437500004,
      "d": 589.2837499999732,
      "v": 53
    },
    {
      "midi": 45,
      "hit": false,
      "t": 167990.51145833338,
      "d": 2337.0457812499953,
      "v": 50
    },
    {
      "midi": 38,
      "hit": false,
      "t": 167999.44000000003,
      "d": 2343.7421875,
      "v": 59
    },
    {
      "midi": 50,
      "hit": false,
      "t": 168008.36854166668,
      "d": 995.5323958333465,
      "v": 51
    },
    {
      "midi": 64,
      "hit": false,
      "t": 168026.22562500002,
      "d": 662.9442187499953,
      "v": 55
    },
    {
      "midi": 69,
      "hit": false,
      "t": 168048.54697916668,
      "d": 754.4617708333244,
      "v": 74
    },
    {
      "midi": 57,
      "hit": false,
      "t": 168398.99223958334,
      "d": 1667.4051562500244,
      "v": 59
    },
    {
      "midi": 62,
      "hit": false,
      "t": 168816.40156250002,
      "d": 1662.9408854166686,
      "v": 59
    },
    {
      "midi": 69,
      "hit": false,
      "t": 169285.15000000002,
      "d": 2763.3836458333244,
      "v": 79
    },
    {
      "midi": 57,
      "hit": false,
      "t": 170334.25364583338,
      "d": 334.8203124999709,
      "v": 30
    },
    {
      "midi": 62,
      "hit": false,
      "t": 170590.94921875003,
      "d": 245.53489583331975,
      "v": 56
    },
    {
      "midi": 57,
      "hit": false,
      "t": 170785.14500000002,
      "d": 399.55223958333954,
      "v": 43
    },
    {
      "midi": 62,
      "hit": false,
      "t": 170999.43000000002,
      "d": 174.10656250000466,
      "v": 44
    },
    {
      "midi": 64,
      "hit": false,
      "t": 171385.58942708335,
      "d": 575.890937499993,
      "v": 69
    },
    {
      "midi": 45,
      "hit": false,
      "t": 171392.28583333336,
      "d": 2555.7950520833256,
      "v": 64
    },
    {
      "midi": 57,
      "hit": false,
      "t": 171398.98223958336,
      "d": 270.08838541663135,
      "v": 72
    },
    {
      "midi": 52,
      "hit": false,
      "t": 171405.67864583337,
      "d": 2542.4022395833163,
      "v": 65
    },
    {
      "midi": 62,
      "hit": false,
      "t": 171410.1429166667,
      "d": 529.0160937499895,
      "v": 79
    },
    {
      "midi": 57,
      "hit": false,
      "t": 171896.7484375,
      "d": 2051.3324479166768,
      "v": 46
    },
    {
      "midi": 62,
      "hit": false,
      "t": 172287.3721354167,
      "d": 1665.1730208333174,
      "v": 58
    },
    {
      "midi": 76,
      "hit": false,
      "t": 172713.71000000002,
      "d": 1828.1189062499907,
      "v": 72
    },
    {
      "midi": 69,
      "hit": false,
      "t": 172740.495625,
      "d": 1214.2816666666768,
      "v": 74
    },
    {
      "midi": 64,
      "hit": false,
      "t": 173164.6013541667,
      "d": 783.4795312499919,
      "v": 45
    },
    {
      "midi": 57,
      "hit": false,
      "t": 175664.59302083333,
      "d": 1754.4584374999977,
      "v": 57
    },
    {
      "midi": 62,
      "hit": false,
      "t": 176142.27,
      "d": 1564.7269270833349,
      "v": 58
    },
    {
      "midi": 74,
      "hit": false,
      "t": 176142.27,
      "d": 1993.2969270833419,
      "v": 59
    },
    {
      "midi": 57,
      "hit": false,
      "t": 177642.26499999998,
      "d": 397.3201041666616,
      "v": 35
    },
    {
      "midi": 62,
      "hit": false,
      "t": 177856.55,
      "d": 207.58859374999884,
      "v": 44
    },
    {
      "midi": 69,
      "hit": false,
      "t": 178075.29927083332,
      "d": 160.71375000002445,
      "v": 41
    },
    {
      "midi": 57,
      "hit": false,
      "t": 178238.24515625002,
      "d": 249.9991666667047,
      "v": 57
    },
    {
      "midi": 62,
      "hit": false,
      "t": 178269.49505208337,
      "d": 491.0697916666977,
      "v": 58
    },
    {
      "midi": 43,
      "hit": false,
      "t": 178276.19145833337,
      "d": 2323.652968750015,
      "v": 61
    },
    {
      "midi": 69,
      "hit": false,
      "t": 178285.12000000005,
      "d": 616.0693749999919,
      "v": 69
    },
    {
      "midi": 50,
      "hit": false,
      "t": 178298.51281250006,
      "d": 2258.9210416666465,
      "v": 60
    },
    {
      "midi": 55,
      "hit": false,
      "t": 178300.74494791674,
      "d": 881.6934895832965,
      "v": 58
    },
    {
      "midi": 64,
      "hit": false,
      "t": 178309.6734895834,
      "d": 582.5873437499977,
      "v": 51
    },
    {
      "midi": 57,
      "hit": false,
      "t": 178691.3686458334,
      "d": 1767.8512499999779,
      "v": 53
    },
    {
      "midi": 62,
      "hit": false,
      "t": 179131.0993229167,
      "d": 2252.2246354167,
      "v": 55
    },
    {
      "midi": 69,
      "hit": false,
      "t": 179570.83000000005,
      "d": 1395.084635416686,
      "v": 72
    },
    {
      "midi": 57,
      "hit": false,
      "t": 181278.41359375007,
      "d": 205.35645833335002,
      "v": 26
    },
    {
      "midi": 69,
      "hit": false,
      "t": 181508.32354166676,
      "d": 129.46385416667908,
      "v": 46
    },
    {
      "midi": 57,
      "hit": false,
      "t": 181651.18020833345,
      "d": 314.73109374998603,
      "v": 53
    },
    {
      "midi": 62,
      "hit": false,
      "t": 181686.89437500012,
      "d": 589.2837499999732,
      "v": 53
    },
    {
      "midi": 45,
      "hit": false,
      "t": 181704.75145833346,
      "d": 2337.0457812499953,
      "v": 50
    },
    {
      "midi": 38,
      "hit": false,
      "t": 181713.6800000001,
      "d": 2343.7421875,
      "v": 59
    },
    {
      "midi": 50,
      "hit": false,
      "t": 181722.60854166676,
      "d": 995.5323958333465,
      "v": 51
    },
    {
      "midi": 64,
      "hit": false,
      "t": 181740.4656250001,
      "d": 662.9442187499953,
      "v": 55
    },
    {
      "midi": 69,
      "hit": false,
      "t": 181762.78697916676,
      "d": 754.4617708333244,
      "v": 74
    },
    {
      "midi": 57,
      "hit": false,
      "t": 182113.23223958342,
      "d": 1667.4051562500244,
      "v": 59
    },
    {
      "midi": 62,
      "hit": false,
      "t": 182530.6415625001,
      "d": 1662.9408854166686,
      "v": 59
    },
    {
      "midi": 69,
      "hit": false,
      "t": 182999.3900000001,
      "d": 2763.3836458333244,
      "v": 79
    },
    {
      "midi": 57,
      "hit": false,
      "t": 184048.49364583346,
      "d": 334.8203124999709,
      "v": 30
    },
    {
      "midi": 62,
      "hit": false,
      "t": 184305.1892187501,
      "d": 245.53489583331975,
      "v": 56
    },
    {
      "midi": 57,
      "hit": false,
      "t": 184499.3850000001,
      "d": 399.55223958333954,
      "v": 43
    },
    {
      "midi": 62,
      "hit": false,
      "t": 184713.6700000001,
      "d": 174.10656250000466,
      "v": 44
    },
    {
      "midi": 64,
      "hit": false,
      "t": 185099.82942708343,
      "d": 575.890937499993,
      "v": 69
    },
    {
      "midi": 45,
      "hit": false,
      "t": 185106.52583333344,
      "d": 2555.7950520833256,
      "v": 64
    },
    {
      "midi": 57,
      "hit": false,
      "t": 185113.22223958344,
      "d": 270.08838541663135,
      "v": 72
    },
    {
      "midi": 52,
      "hit": false,
      "t": 185119.91864583344,
      "d": 2542.4022395833163,
      "v": 65
    },
    {
      "midi": 62,
      "hit": false,
      "t": 185124.38291666677,
      "d": 529.0160937499895,
      "v": 79
    },
    {
      "midi": 57,
      "hit": false,
      "t": 185610.98843750008,
      "d": 2051.3324479166768,
      "v": 46
    },
    {
      "midi": 62,
      "hit": false,
      "t": 186001.61213541677,
      "d": 1665.1730208333174,
      "v": 58
    },
    {
      "midi": 76,
      "hit": false,
      "t": 186427.9500000001,
      "d": 1828.1189062499907,
      "v": 72
    },
    {
      "midi": 69,
      "hit": false,
      "t": 186454.7356250001,
      "d": 1214.2816666666768,
      "v": 74
    },
    {
      "midi": 64,
      "hit": false,
      "t": 186878.84135416677,
      "d": 783.4795312499919,
      "v": 45
    },
    {
      "midi": 61,
      "hit": false,
      "t": 189898.92057291674,
      "d": 256.69557291668025,
      "v": 52
    },
    {
      "midi": 67,
      "hit": false,
      "t": 189905.61697916675,
      "d": 381.6951562500035,
      "v": 60
    },
    {
      "midi": 61,
      "hit": false,
      "t": 190352.0440625001,
      "d": 238.8384895833151,
      "v": 75
    },
    {
      "midi": 66,
      "hit": false,
      "t": 190356.50833333342,
      "d": 294.64187500000116,
      "v": 74
    },
    {
      "midi": 61,
      "hit": false,
      "t": 190760.52484375008,
      "d": 203.124322916643,
      "v": 79
    },
    {
      "midi": 49,
      "hit": false,
      "t": 190954.72062500007,
      "d": 1116.067708333314,
      "v": 64
    },
    {
      "midi": 66,
      "hit": false,
      "t": 191142.22000000006,
      "d": 879.4613541666768,
      "v": 100
    },
    {
      "midi": 61,
      "hit": false,
      "t": 191142.22000000006,
      "d": 886.1577604166814,
      "v": 94
    },
    {
      "midi": 70,
      "hit": false,
      "t": 191142.22000000006,
      "d": 890.6220312500081,
      "v": 110
    },
    {
      "midi": 73,
      "hit": false,
      "t": 191142.22000000006,
      "d": 897.3184375000128,
      "v": 87
    },
    {
      "midi": 54,
      "hit": false,
      "t": 191142.22000000006,
      "d": 901.7827083333395,
      "v": 72
    },
    {
      "midi": 42,
      "hit": false,
      "t": 191180.16630208338,
      "d": 915.1755208333489,
      "v": 67
    },
    {
      "midi": 59,
      "hit": false,
      "t": 191999.36000000004,
      "d": 1209.81739583335,
      "v": 94
    },
    {
      "midi": 52,
      "hit": false,
      "t": 191999.36000000004,
      "d": 2419.6347916667,
      "v": 74
    },
    {
      "midi": 67,
      "hit": false,
      "t": 191999.36000000004,
      "d": 2763.3836458333535,
      "v": 87
    },
    {
      "midi": 40,
      "hit": false,
      "t": 192001.59213541672,
      "d": 1162.9425520833465,
      "v": 63
    },
    {
      "midi": 55,
      "hit": false,
      "t": 193095.3384895834,
      "d": 140.62453124998137,
      "v": 45
    },
    {
      "midi": 40,
      "hit": false,
      "t": 193293.99854166672,
      "d": 1366.0668750000186,
      "v": 72
    },
    {
      "midi": 55,
      "hit": false,
      "t": 193298.46281250005,
      "d": 1299.1028125000303,
      "v": 72
    },
    {
      "midi": 62,
      "hit": false,
      "t": 193305.15921875005,
      "d": 1450.888020833343,
      "v": 75
    },
    {
      "midi": 59,
      "hit": false,
      "t": 193311.85562500005,
      "d": 1417.4059895833489,
      "v": 87
    },
    {
      "midi": 52,
      "hit": false,
      "t": 194541.76223958342,
      "d": 174.10656249997555,
      "v": 59
    },
    {
      "midi": 55,
      "hit": false,
      "t": 195001.58213541674,
      "d": 73.66046874999302,
      "v": 54
    },
    {
      "midi": 52,
      "hit": false,
      "t": 195231.4920833334,
      "d": 136.16026041665464,
      "v": 52
    },
    {
      "midi": 57,
      "hit": false,
      "t": 195427.92000000007,
      "d": 540.1767708333209,
      "v": 79
    },
    {
      "midi": 52,
      "hit": false,
      "t": 195427.92000000007,
      "d": 712.0511979166477,
      "v": 58
    },
    {
      "midi": 62,
      "hit": false,
      "t": 195427.92000000007,
      "d": 720.9797395833011,
      "v": 100
    },
    {
      "midi": 45,
      "hit": false,
      "t": 195427.92000000007,
      "d": 924.1040624999441,
      "v": 79
    },
    {
      "midi": 64,
      "hit": false,
      "t": 195427.92000000007,
      "d": 1024.5501562499558,
      "v": 100
    },
    {
      "midi": 69,
      "hit": false,
      "t": 195427.92000000007,
      "d": 1026.7822916666337,
      "v": 79
    },
    {
      "midi": 57,
      "hit": false,
      "t": 196070.77500000005,
      "d": 305.80255208330345,
      "v": 60
    },
    {
      "midi": 52,
      "hit": false,
      "t": 196302.91708333336,
      "d": 1580.351874999964,
      "v": 69
    },
    {
      "midi": 57,
      "hit": false,
      "t": 196490.41645833338,
      "d": 154.0173437499907,
      "v": 58
    },
    {
      "midi": 57,
      "hit": false,
      "t": 196693.54078125002,
      "d": 1040.175104166643,
      "v": 75
    },
    {
      "midi": 64,
      "hit": false,
      "t": 196700.23718750002,
      "d": 1368.2990104166092,
      "v": 94
    },
    {
      "midi": 69,
      "hit": false,
      "t": 196706.93359375003,
      "d": 1477.6736458332743,
      "v": 75
    },
    {
      "midi": 45,
      "hit": false,
      "t": 196711.39786458336,
      "d": 1426.3345312499441,
      "v": 84
    },
    {
      "midi": 61,
      "hit": false,
      "t": 196715.86213541668,
      "d": 1319.192031249957,
      "v": 100
    },
    {
      "midi": 57,
      "hit": false,
      "t": 197829.69770833332,
      "d": 640.6228645833035,
      "v": 59
    },
    {
      "midi": 52,
      "hit": false,
      "t": 198026.125625,
      "d": 87.05328124997322,
      "v": 61
    },
    {
      "midi": 62,
      "hit": false,
      "t": 198240.41062499996,
      "d": 167.41015625,
      "v": 84
    },
    {
      "midi": 64,
      "hit": false,
      "t": 198423.44572916662,
      "d": 214.2850000000035,
      "v": 61
    },
    {
      "midi": 69,
      "hit": false,
      "t": 198610.94510416663,
      "d": 866.0685416666383,
      "v": 74
    },
    {
      "midi": 66,
      "hit": false,
      "t": 198831.9265104166,
      "d": 712.0511979166477,
      "v": 87
    },
    {
      "midi": 62,
      "hit": false,
      "t": 198840.85505208327,
      "d": 683.0334374999802,
      "v": 110
    },
    {
      "midi": 57,
      "hit": false,
      "t": 198845.3193229166,
      "d": 421.8735937500023,
      "v": 94
    },
    {
      "midi": 50,
      "hit": false,
      "t": 198852.0157291666,
      "d": 633.9264583333279,
      "v": 64
    },
    {
      "midi": 38,
      "hit": false,
      "t": 198858.7121354166,
      "d": 857.1399999999849,
      "v": 67
    },
    {
      "midi": 57,
      "hit": false,
      "t": 199481.4779166666,
      "d": 95.9818229166558,
      "v": 59
    },
    {
      "midi": 50,
      "hit": false,
      "t": 199715.8521354166,
      "d": 1145.0854687499814,
      "v": 67
    },
    {
      "midi": 45,
      "hit": false,
      "t": 199927.9049999999,
      "d": 118.30317708334769,
      "v": 59
    },
    {
      "midi": 38,
      "hit": false,
      "t": 200122.10078124993,
      "d": 564.7302604166325,
      "v": 75
    },
    {
      "midi": 69,
      "hit": false,
      "t": 200133.26145833326,
      "d": 453.1234895833186,
      "v": 100
    },
    {
      "midi": 64,
      "hit": false,
      "t": 200139.95786458327,
      "d": 473.21270833330345,
      "v": 79
    },
    {
      "midi": 74,
      "hit": false,
      "t": 200144.4221354166,
      "d": 437.49854166666046,
      "v": 87
    },
    {
      "midi": 66,
      "hit": false,
      "t": 200151.1185416666,
      "d": 457.5877604166453,
      "v": 100
    },
    {
      "midi": 57,
      "hit": false,
      "t": 201204.68645833322,
      "d": 104.91036458333838,
      "v": 50
    },
    {
      "midi": 57,
      "hit": false,
      "t": 201407.8107812499,
      "d": 294.64187500000116,
      "v": 75
    },
    {
      "midi": 64,
      "hit": false,
      "t": 201412.27505208322,
      "d": 419.6414583333244,
      "v": 94
    },
    {
      "midi": 49,
      "hit": false,
      "t": 201418.97145833322,
      "d": 292.40973958332324,
      "v": 94
    },
    {
      "midi": 69,
      "hit": false,
      "t": 201425.66786458323,
      "d": 433.0342708333337,
      "v": 75
    },
    {
      "midi": 61,
      "hit": false,
      "t": 201430.13213541656,
      "d": 417.4093229166756,
      "v": 110
    },
    {
      "midi": 57,
      "hit": false,
      "t": 201834.14864583322,
      "d": 129.46385416667908,
      "v": 46
    },
    {
      "midi": 54,
      "hit": false,
      "t": 202026.11229166656,
      "d": 225.44567708333489,
      "v": 47
    },
    {
      "midi": 57,
      "hit": false,
      "t": 202285.0399999999,
      "d": 738.8368229166954,
      "v": 84
    },
    {
      "midi": 62,
      "hit": false,
      "t": 202285.0399999999,
      "d": 776.7831250000163,
      "v": 110
    },
    {
      "midi": 66,
      "hit": false,
      "t": 202285.0399999999,
      "d": 810.2651562500105,
      "v": 87
    },
    {
      "midi": 69,
      "hit": false,
      "t": 202285.0399999999,
      "d": 810.2651562500105,
      "v": 84
    },
    {
      "midi": 47,
      "hit": false,
      "t": 202285.0399999999,
      "d": 1053.5679166666814,
      "v": 74
    },
    {
      "midi": 47,
      "hit": false,
      "t": 203550.6607812499,
      "d": 754.4617708333826,
      "v": 64
    },
    {
      "midi": 59,
      "hit": false,
      "t": 203557.3571874999,
      "d": 511.1590104167117,
      "v": 60
    },
    {
      "midi": 74,
      "hit": false,
      "t": 203564.0535937499,
      "d": 408.4807812500221,
      "v": 84
    },
    {
      "midi": 66,
      "hit": false,
      "t": 203570.7499999999,
      "d": 430.8021354166849,
      "v": 94
    },
    {
      "midi": 69,
      "hit": false,
      "t": 203572.9821354166,
      "d": 401.78437500001746,
      "v": 84
    },
    {
      "midi": 62,
      "hit": false,
      "t": 203577.44640624992,
      "d": 459.81989583335235,
      "v": 79
    },
    {
      "midi": 57,
      "hit": false,
      "t": 204666.72848958327,
      "d": 104.91036458333838,
      "v": 34
    },
    {
      "midi": 45,
      "hit": false,
      "t": 204840.83505208328,
      "d": 328.12390624999534,
      "v": 84
    },
    {
      "midi": 57,
      "hit": false,
      "t": 204847.53145833328,
      "d": 330.35604166664416,
      "v": 72
    },
    {
      "midi": 62,
      "hit": false,
      "t": 204854.22786458328,
      "d": 607.1408333332802,
      "v": 94
    },
    {
      "midi": 66,
      "hit": false,
      "t": 204858.6921354166,
      "d": 624.9979166666453,
      "v": 84
    },
    {
      "midi": 69,
      "hit": false,
      "t": 204863.15640624994,
      "d": 571.4266666666372,
      "v": 75
    },
    {
      "midi": 57,
      "hit": false,
      "t": 205287.2621354166,
      "d": 198.66005208334536,
      "v": 41
    },
    {
      "midi": 47,
      "hit": false,
      "t": 205481.45791666658,
      "d": 196.42791666669655,
      "v": 52
    },
    {
      "midi": 59,
      "hit": false,
      "t": 205713.59999999995,
      "d": 397.3201041666616,
      "v": 100
    },
    {
      "midi": 52,
      "hit": false,
      "t": 205713.59999999995,
      "d": 571.4266666666663,
      "v": 65
    },
    {
      "midi": 67,
      "hit": false,
      "t": 205713.59999999995,
      "d": 582.5873437499977,
      "v": 84
    },
    {
      "midi": 62,
      "hit": false,
      "t": 205713.59999999995,
      "d": 611.6051041666651,
      "v": 100
    },
    {
      "midi": 64,
      "hit": false,
      "t": 205713.59999999995,
      "d": 613.837239583343,
      "v": 94
    },
    {
      "midi": 40,
      "hit": false,
      "t": 205713.59999999995,
      "d": 861.6042708333407,
      "v": 69
    },
    {
      "midi": 59,
      "hit": false,
      "t": 206325.2051041666,
      "d": 80.35687499999767,
      "v": 64
    },
    {
      "midi": 52,
      "hit": false,
      "t": 206523.86515624996,
      "d": 1511.1556770833267,
      "v": 72
    },
    {
      "midi": 47,
      "hit": false,
      "t": 206740.3822916666,
      "d": 145.0888020833372,
      "v": 54
    },
    {
      "midi": 40,
      "hit": false,
      "t": 206950.2030208333,
      "d": 1417.4059895833489,
      "v": 74
    },
    {
      "midi": 64,
      "hit": false,
      "t": 206959.13156249994,
      "d": 877.2292187499988,
      "v": 75
    },
    {
      "midi": 74,
      "hit": false,
      "t": 206965.82796874995,
      "d": 843.7471875000047,
      "v": 100
    },
    {
      "midi": 71,
      "hit": false,
      "t": 206972.52437499995,
      "d": 830.3543749999953,
      "v": 114
    },
    {
      "midi": 67,
      "hit": false,
      "t": 206976.98864583328,
      "d": 841.5150520833267,
      "v": 114
    },
    {
      "midi": 52,
      "hit": false,
      "t": 208267.16291666662,
      "d": 167.41015625,
      "v": 46
    },
    {
      "midi": 67,
      "hit": false,
      "t": 208682.34010416662,
      "d": 379.4630208333256,
      "v": 79
    },
    {
      "midi": 62,
      "hit": false,
      "t": 208686.80437499995,
      "d": 254.46343750000233,
      "v": 94
    },
    {
      "midi": 52,
      "hit": false,
      "t": 208925.6428645833,
      "d": 1069.1928645833104,
      "v": 32
    },
    {
      "midi": 57,
      "hit": false,
      "t": 209117.6065104166,
      "d": 504.4626041666488,
      "v": 59
    },
    {
      "midi": 45,
      "hit": false,
      "t": 209124.3029166666,
      "d": 852.6757291666581,
      "v": 67
    },
    {
      "midi": 67,
      "hit": false,
      "t": 209130.9993229166,
      "d": 803.5687499999767,
      "v": 72
    },
    {
      "midi": 64,
      "hit": false,
      "t": 209135.46359374994,
      "d": 845.9793229166535,
      "v": 84
    },
    {
      "midi": 61,
      "hit": false,
      "t": 209151.0885416666,
      "d": 825.8901041666686,
      "v": 87
    },
    {
      "midi": 59,
      "hit": false,
      "t": 209764.9257812499,
      "d": 1575.8876041666954,
      "v": 64
    },
    {
      "midi": 57,
      "hit": false,
      "t": 209976.97864583327,
      "d": 1435.263072916685,
      "v": 62
    },
    {
      "midi": 52,
      "hit": false,
      "t": 210168.9422916666,
      "d": 1691.958645833307,
      "v": 53
    },
    {
      "midi": 64,
      "hit": false,
      "t": 210383.2272916666,
      "d": 1383.9239583332965,
      "v": 94
    },
    {
      "midi": 69,
      "hit": false,
      "t": 210389.92369791662,
      "d": 1495.5307291666395,
      "v": 94
    },
    {
      "midi": 61,
      "hit": false,
      "t": 210396.62010416662,
      "d": 1294.6385416666453,
      "v": 100
    },
    {
      "midi": 45,
      "hit": false,
      "t": 210403.31651041663,
      "d": 1497.7628645832883,
      "v": 72
    },
    {
      "midi": 59,
      "hit": false,
      "t": 211508.2235416666,
      "d": 680.8013020833023,
      "v": 62
    },
    {
      "midi": 57,
      "hit": false,
      "t": 211700.18718749992,
      "d": 154.0173437499907,
      "v": 60
    },
    {
      "midi": 61,
      "hit": false,
      "t": 211927.8649999999,
      "d": 185.26723958333605,
      "v": 84
    },
    {
      "midi": 64,
      "hit": false,
      "t": 212142.1499999999,
      "d": 165.17802083335118,
      "v": 65
    },
    {
      "midi": 69,
      "hit": false,
      "t": 212356.4349999999,
      "d": 2383.920625000028,
      "v": 79
    },
    {
      "midi": 57,
      "hit": false,
      "t": 212570.71999999988,
      "d": 444.1949479166651,
      "v": 74
    },
    {
      "midi": 50,
      "hit": false,
      "t": 212570.71999999988,
      "d": 676.3370312500047,
      "v": 64
    },
    {
      "midi": 38,
      "hit": false,
      "t": 212570.71999999988,
      "d": 837.0507812500291,
      "v": 75
    },
    {
      "midi": 66,
      "hit": false,
      "t": 212570.71999999988,
      "d": 930.8004687500361,
      "v": 75
    },
    {
      "midi": 62,
      "hit": false,
      "t": 212570.71999999988,
      "d": 935.2647395833628,
      "v": 94
    },
    {
      "midi": 57,
      "hit": false,
      "t": 213213.5749999999,
      "d": 504.462604166707,
      "v": 65
    },
    {
      "midi": 50,
      "hit": false,
      "t": 213405.53864583324,
      "d": 1308.0313541667128,
      "v": 64
    },
    {
      "midi": 45,
      "hit": false,
      "t": 213606.43083333326,
      "d": 154.0173437500198,
      "v": 61
    },
    {
      "midi": 38,
      "hit": false,
      "t": 213807.32302083328,
      "d": 754.4617708333244,
      "v": 84
    },
    {
      "midi": 57,
      "hit": false,
      "t": 213814.0194270833,
      "d": 734.3725520833104,
      "v": 79
    },
    {
      "midi": 64,
      "hit": false,
      "t": 213820.7158333333,
      "d": 910.711249999993,
      "v": 79
    },
    {
      "midi": 62,
      "hit": false,
      "t": 213825.18010416662,
      "d": 883.9256249999744,
      "v": 87
    },
    {
      "midi": 57,
      "hit": false,
      "t": 214711.33786458327,
      "d": 281.24906249999185,
      "v": 54
    },
    {
      "midi": 50,
      "hit": false,
      "t": 214916.6943229166,
      "d": 145.0888020833372,
      "v": 64
    },
    {
      "midi": 61,
      "hit": false,
      "t": 215124.2829166666,
      "d": 493.3019270833465,
      "v": 87
    },
    {
      "midi": 69,
      "hit": false,
      "t": 215130.9793229166,
      "d": 502.23046875,
      "v": 74
    },
    {
      "midi": 64,
      "hit": false,
      "t": 215137.6757291666,
      "d": 473.21270833333256,
      "v": 87
    },
    {
      "midi": 57,
      "hit": false,
      "t": 215144.3721354166,
      "d": 301.3382812500058,
      "v": 84
    },
    {
      "midi": 49,
      "hit": false,
      "t": 215144.3721354166,
      "d": 421.8735937500023,
      "v": 94
    },
    {
      "midi": 57,
      "hit": false,
      "t": 215552.8529166666,
      "d": 156.2494791666686,
      "v": 57
    },
    {
      "midi": 69,
      "hit": false,
      "t": 215997.04786458326,
      "d": 1066.9607291666325,
      "v": 79
    },
    {
      "midi": 66,
      "hit": false,
      "t": 216001.5121354166,
      "d": 857.1399999999558,
      "v": 84
    },
    {
      "midi": 62,
      "hit": false,
      "t": 216010.44067708324,
      "d": 729.9082812499546,
      "v": 94
    },
    {
      "midi": 57,
      "hit": false,
      "t": 216014.90494791657,
      "d": 368.3023437499651,
      "v": 75
    },
    {
      "midi": 47,
      "hit": false,
      "t": 216023.83348958322,
      "d": 1138.3890625000058,
      "v": 84
    },
    {
      "midi": 57,
      "hit": false,
      "t": 216659.9920833332,
      "d": 292.40973958335235,
      "v": 60
    },
    {
      "midi": 54,
      "hit": false,
      "t": 216858.65213541655,
      "d": 1066.9607291666907,
      "v": 60
    },
    {
      "midi": 57,
      "hit": false,
      "t": 217057.3121874999,
      "d": 156.2494791666686,
      "v": 59
    },
    {
      "midi": 69,
      "hit": false,
      "t": 217264.9007812499,
      "d": 995.5323958333465,
      "v": 72
    },
    {
      "midi": 57,
      "hit": false,
      "t": 217271.5971874999,
      "d": 629.4621875000012,
      "v": 74
    },
    {
      "midi": 66,
      "hit": false,
      "t": 217276.06145833322,
      "d": 930.800468750007,
      "v": 74
    },
    {
      "midi": 62,
      "hit": false,
      "t": 217282.75786458323,
      "d": 944.1932812500163,
      "v": 84
    },
    {
      "midi": 47,
      "hit": false,
      "t": 217287.22213541655,
      "d": 680.8013020833605,
      "v": 58
    },
    {
      "midi": 57,
      "hit": false,
      "t": 218144.36213541657,
      "d": 214.2850000000035,
      "v": 50
    },
    {
      "midi": 52,
      "hit": false,
      "t": 218338.55791666656,
      "d": 196.42791666666744,
      "v": 56
    },
    {
      "midi": 57,
      "hit": false,
      "t": 218564.0035937499,
      "d": 343.7488541666535,
      "v": 87
    },
    {
      "midi": 62,
      "hit": false,
      "t": 218572.93213541654,
      "d": 475.4448437500105,
      "v": 100
    },
    {
      "midi": 64,
      "hit": false,
      "t": 218572.93213541654,
      "d": 770.0867187500116,
      "v": 87
    },
    {
      "midi": 69,
      "hit": false,
      "t": 218593.02135416656,
      "d": 560.2659895833349,
      "v": 74
    },
    {
      "midi": 45,
      "hit": false,
      "t": 218597.48562499988,
      "d": 404.0165104166663,
      "v": 79
    },
    {
      "midi": 57,
      "hit": false,
      "t": 218983.64505208321,
      "d": 187.49937500001397,
      "v": 48
    },
    {
      "midi": 48,
      "hit": false,
      "t": 219193.4657812499,
      "d": 111.60677083334303,
      "v": 39
    },
    {
      "midi": 59,
      "hit": false,
      "t": 219427.8399999999,
      "d": 1209.81739583335,
      "v": 94
    },
    {
      "midi": 52,
      "hit": false,
      "t": 219427.8399999999,
      "d": 2419.6347916667,
      "v": 74
    },
    {
      "midi": 67,
      "hit": false,
      "t": 219427.8399999999,
      "d": 2763.3836458333535,
      "v": 87
    },
    {
      "midi": 40,
      "hit": false,
      "t": 219430.0721354166,
      "d": 1162.9425520833465,
      "v": 63
    },
    {
      "midi": 55,
      "hit": false,
      "t": 220523.81848958327,
      "d": 140.62453124998137,
      "v": 45
    },
    {
      "midi": 40,
      "hit": false,
      "t": 220722.47854166658,
      "d": 1366.0668750000186,
      "v": 72
    },
    {
      "midi": 55,
      "hit": false,
      "t": 220726.9428124999,
      "d": 1299.1028125000303,
      "v": 72
    },
    {
      "midi": 62,
      "hit": false,
      "t": 220733.63921874992,
      "d": 1450.888020833343,
      "v": 75
    },
    {
      "midi": 59,
      "hit": false,
      "t": 220740.33562499992,
      "d": 1417.4059895833489,
      "v": 87
    },
    {
      "midi": 52,
      "hit": false,
      "t": 221970.24223958328,
      "d": 174.10656249997555,
      "v": 59
    },
    {
      "midi": 55,
      "hit": false,
      "t": 222430.0621354166,
      "d": 73.66046874999302,
      "v": 54
    },
    {
      "midi": 52,
      "hit": false,
      "t": 222659.97208333327,
      "d": 136.16026041665464,
      "v": 52
    },
    {
      "midi": 57,
      "hit": false,
      "t": 222856.39999999994,
      "d": 540.1767708333209,
      "v": 79
    },
    {
      "midi": 52,
      "hit": false,
      "t": 222856.39999999994,
      "d": 712.0511979166477,
      "v": 58
    },
    {
      "midi": 62,
      "hit": false,
      "t": 222856.39999999994,
      "d": 720.9797395833011,
      "v": 100
    },
    {
      "midi": 45,
      "hit": false,
      "t": 222856.39999999994,
      "d": 924.1040624999441,
      "v": 79
    },
    {
      "midi": 64,
      "hit": false,
      "t": 222856.39999999994,
      "d": 1024.5501562499558,
      "v": 100
    },
    {
      "midi": 69,
      "hit": false,
      "t": 222856.39999999994,
      "d": 1026.7822916666337,
      "v": 79
    },
    {
      "midi": 57,
      "hit": false,
      "t": 223499.25499999992,
      "d": 305.80255208330345,
      "v": 60
    },
    {
      "midi": 52,
      "hit": false,
      "t": 223731.39708333323,
      "d": 1580.351874999964,
      "v": 69
    },
    {
      "midi": 57,
      "hit": false,
      "t": 223918.89645833324,
      "d": 154.0173437499907,
      "v": 58
    },
    {
      "midi": 57,
      "hit": false,
      "t": 224122.02078124988,
      "d": 1040.175104166643,
      "v": 75
    },
    {
      "midi": 64,
      "hit": false,
      "t": 224128.7171874999,
      "d": 1368.2990104166092,
      "v": 94
    },
    {
      "midi": 69,
      "hit": false,
      "t": 224135.4135937499,
      "d": 1477.6736458332743,
      "v": 75
    },
    {
      "midi": 45,
      "hit": false,
      "t": 224139.87786458322,
      "d": 1426.3345312499441,
      "v": 84
    },
    {
      "midi": 61,
      "hit": false,
      "t": 224144.34213541655,
      "d": 1319.192031249957,
      "v": 100
    },
    {
      "midi": 57,
      "hit": false,
      "t": 225258.17770833318,
      "d": 640.6228645833035,
      "v": 59
    },
    {
      "midi": 52,
      "hit": false,
      "t": 225454.60562499985,
      "d": 87.05328124997322,
      "v": 61
    },
    {
      "midi": 62,
      "hit": false,
      "t": 225668.89062499983,
      "d": 167.41015625,
      "v": 84
    },
    {
      "midi": 64,
      "hit": false,
      "t": 225851.92572916648,
      "d": 214.2850000000035,
      "v": 61
    },
    {
      "midi": 69,
      "hit": false,
      "t": 226039.4251041665,
      "d": 866.0685416666383,
      "v": 74
    },
    {
      "midi": 66,
      "hit": false,
      "t": 226260.40651041648,
      "d": 712.0511979166477,
      "v": 87
    },
    {
      "midi": 62,
      "hit": false,
      "t": 226269.33505208313,
      "d": 683.0334374999802,
      "v": 110
    },
    {
      "midi": 57,
      "hit": false,
      "t": 226273.79932291646,
      "d": 421.8735937500023,
      "v": 94
    },
    {
      "midi": 50,
      "hit": false,
      "t": 226280.49572916646,
      "d": 633.9264583333279,
      "v": 64
    },
    {
      "midi": 38,
      "hit": false,
      "t": 226287.19213541647,
      "d": 857.1399999999849,
      "v": 67
    },
    {
      "midi": 57,
      "hit": false,
      "t": 226909.95791666646,
      "d": 95.9818229166558,
      "v": 59
    },
    {
      "midi": 50,
      "hit": false,
      "t": 227144.33213541645,
      "d": 1145.0854687499814,
      "v": 67
    },
    {
      "midi": 45,
      "hit": false,
      "t": 227356.38499999978,
      "d": 118.30317708334769,
      "v": 59
    },
    {
      "midi": 38,
      "hit": false,
      "t": 227550.5807812498,
      "d": 564.7302604166325,
      "v": 75
    },
    {
      "midi": 69,
      "hit": false,
      "t": 227561.74145833313,
      "d": 453.1234895833186,
      "v": 100
    },
    {
      "midi": 64,
      "hit": false,
      "t": 227568.43786458313,
      "d": 473.21270833330345,
      "v": 79
    },
    {
      "midi": 74,
      "hit": false,
      "t": 227572.90213541646,
      "d": 437.49854166666046,
      "v": 87
    },
    {
      "midi": 66,
      "hit": false,
      "t": 227579.59854166646,
      "d": 457.5877604166453,
      "v": 100
    },
    {
      "midi": 57,
      "hit": false,
      "t": 228633.1664583331,
      "d": 104.91036458333838,
      "v": 50
    },
    {
      "midi": 57,
      "hit": false,
      "t": 228836.29078124976,
      "d": 294.64187500000116,
      "v": 75
    },
    {
      "midi": 64,
      "hit": false,
      "t": 228840.75505208308,
      "d": 419.6414583333244,
      "v": 94
    },
    {
      "midi": 49,
      "hit": false,
      "t": 228847.4514583331,
      "d": 292.40973958332324,
      "v": 94
    },
    {
      "midi": 69,
      "hit": false,
      "t": 228854.1478645831,
      "d": 433.0342708333337,
      "v": 75
    },
    {
      "midi": 61,
      "hit": false,
      "t": 228858.61213541642,
      "d": 417.4093229166756,
      "v": 110
    },
    {
      "midi": 57,
      "hit": false,
      "t": 229262.6286458331,
      "d": 129.46385416667908,
      "v": 46
    },
    {
      "midi": 54,
      "hit": false,
      "t": 229454.59229166643,
      "d": 225.44567708333489,
      "v": 47
    },
    {
      "midi": 57,
      "hit": false,
      "t": 229713.51999999976,
      "d": 738.8368229166954,
      "v": 84
    },
    {
      "midi": 62,
      "hit": false,
      "t": 229713.51999999976,
      "d": 776.7831250000163,
      "v": 110
    },
    {
      "midi": 66,
      "hit": false,
      "t": 229713.51999999976,
      "d": 810.2651562500105,
      "v": 87
    },
    {
      "midi": 69,
      "hit": false,
      "t": 229713.51999999976,
      "d": 810.2651562500105,
      "v": 84
    },
    {
      "midi": 47,
      "hit": false,
      "t": 229713.51999999976,
      "d": 1053.5679166666814,
      "v": 74
    },
    {
      "midi": 47,
      "hit": false,
      "t": 230979.14078124976,
      "d": 754.4617708333826,
      "v": 64
    },
    {
      "midi": 59,
      "hit": false,
      "t": 230985.83718749977,
      "d": 511.1590104167117,
      "v": 60
    },
    {
      "midi": 74,
      "hit": false,
      "t": 230992.53359374977,
      "d": 408.4807812500221,
      "v": 84
    },
    {
      "midi": 66,
      "hit": false,
      "t": 230999.22999999978,
      "d": 430.8021354166849,
      "v": 94
    },
    {
      "midi": 69,
      "hit": false,
      "t": 231001.46213541646,
      "d": 401.78437500001746,
      "v": 84
    },
    {
      "midi": 62,
      "hit": false,
      "t": 231005.92640624978,
      "d": 459.81989583335235,
      "v": 79
    },
    {
      "midi": 57,
      "hit": false,
      "t": 232095.20848958314,
      "d": 104.91036458333838,
      "v": 34
    },
    {
      "midi": 45,
      "hit": false,
      "t": 232269.31505208314,
      "d": 328.12390624999534,
      "v": 84
    },
    {
      "midi": 57,
      "hit": false,
      "t": 232276.01145833315,
      "d": 330.35604166664416,
      "v": 72
    },
    {
      "midi": 62,
      "hit": false,
      "t": 232282.70786458315,
      "d": 607.1408333332802,
      "v": 94
    },
    {
      "midi": 66,
      "hit": false,
      "t": 232287.17213541648,
      "d": 624.9979166666453,
      "v": 84
    },
    {
      "midi": 69,
      "hit": false,
      "t": 232291.6364062498,
      "d": 571.4266666666372,
      "v": 75
    },
    {
      "midi": 57,
      "hit": false,
      "t": 232715.74213541645,
      "d": 198.66005208334536,
      "v": 41
    },
    {
      "midi": 47,
      "hit": false,
      "t": 232909.93791666644,
      "d": 196.42791666669655,
      "v": 52
    },
    {
      "midi": 64,
      "hit": false,
      "t": 233128.6871874998,
      "d": 613.8372395833139,
      "v": 94
    },
    {
      "midi": 67,
      "hit": false,
      "t": 233135.3835937498,
      "d": 582.5873437499686,
      "v": 84
    },
    {
      "midi": 52,
      "hit": false,
      "t": 233139.84786458313,
      "d": 571.4266666666372,
      "v": 65
    },
    {
      "midi": 59,
      "hit": false,
      "t": 233144.31213541646,
      "d": 397.3201041666325,
      "v": 100
    },
    {
      "midi": 62,
      "hit": false,
      "t": 233148.7764062498,
      "d": 611.6051041666651,
      "v": 100
    },
    {
      "midi": 40,
      "hit": false,
      "t": 233168.86562499977,
      "d": 861.6042708333407,
      "v": 69
    },
    {
      "midi": 59,
      "hit": false,
      "t": 233753.68510416645,
      "d": 80.35687499999767,
      "v": 64
    },
    {
      "midi": 52,
      "hit": false,
      "t": 233952.3451562498,
      "d": 1511.1556770833267,
      "v": 72
    },
    {
      "midi": 47,
      "hit": false,
      "t": 234168.86229166645,
      "d": 145.0888020833372,
      "v": 54
    },
    {
      "midi": 40,
      "hit": false,
      "t": 234378.68302083312,
      "d": 1417.4059895833489,
      "v": 74
    },
    {
      "midi": 64,
      "hit": false,
      "t": 234387.61156249978,
      "d": 877.2292187499988,
      "v": 75
    },
    {
      "midi": 74,
      "hit": false,
      "t": 234394.30796874978,
      "d": 843.7471875000047,
      "v": 100
    },
    {
      "midi": 71,
      "hit": false,
      "t": 234401.0043749998,
      "d": 830.3543749999953,
      "v": 114
    },
    {
      "midi": 67,
      "hit": false,
      "t": 234405.4686458331,
      "d": 841.5150520833267,
      "v": 114
    },
    {
      "midi": 52,
      "hit": false,
      "t": 235695.64291666646,
      "d": 167.41015625,
      "v": 46
    },
    {
      "midi": 67,
      "hit": false,
      "t": 236110.82010416646,
      "d": 379.4630208333256,
      "v": 79
    },
    {
      "midi": 62,
      "hit": false,
      "t": 236115.28437499978,
      "d": 254.46343750000233,
      "v": 94
    },
    {
      "midi": 52,
      "hit": false,
      "t": 236354.12286458313,
      "d": 7073.637135416677,
      "v": 32
    },
    {
      "midi": 57,
      "hit": false,
      "t": 236546.08651041644,
      "d": 4549.091979166697,
      "v": 59
    },
    {
      "midi": 45,
      "hit": false,
      "t": 236552.78291666645,
      "d": 6874.9770833333605,
      "v": 67
    },
    {
      "midi": 67,
      "hit": false,
      "t": 236559.47932291645,
      "d": 6868.280677083356,
      "v": 72
    },
    {
      "midi": 64,
      "hit": false,
      "t": 236563.94359374978,
      "d": 4741.055625000008,
      "v": 84
    },
    {
      "midi": 61,
      "hit": false,
      "t": 239999.19999999978,
      "d": 1209.81739583335,
      "v": 94
    },
    {
      "midi": 54,
      "hit": false,
      "t": 239999.19999999978,
      "d": 2419.6347916667,
      "v": 74
    },
    {
      "midi": 69,
      "hit": false,
      "t": 239999.19999999978,
      "d": 2763.3836458333535,
      "v": 87
    },
    {
      "midi": 42,
      "hit": false,
      "t": 240001.43213541646,
      "d": 1162.9425520833465,
      "v": 63
    },
    {
      "midi": 57,
      "hit": false,
      "t": 241095.17848958314,
      "d": 140.62453124998137,
      "v": 45
    },
    {
      "midi": 42,
      "hit": false,
      "t": 241293.83854166645,
      "d": 1366.0668750000186,
      "v": 72
    },
    {
      "midi": 57,
      "hit": false,
      "t": 241298.30281249978,
      "d": 1299.1028125000303,
      "v": 72
    },
    {
      "midi": 64,
      "hit": false,
      "t": 241304.99921874978,
      "d": 1450.888020833343,
      "v": 75
    },
    {
      "midi": 61,
      "hit": false,
      "t": 241311.6956249998,
      "d": 1417.4059895833489,
      "v": 87
    },
    {
      "midi": 54,
      "hit": false,
      "t": 242541.60223958315,
      "d": 174.10656249997555,
      "v": 59
    },
    {
      "midi": 57,
      "hit": false,
      "t": 243001.42213541648,
      "d": 73.66046874999302,
      "v": 54
    },
    {
      "midi": 54,
      "hit": false,
      "t": 243231.33208333314,
      "d": 136.16026041665464,
      "v": 52
    },
    {
      "midi": 59,
      "hit": false,
      "t": 243427.7599999998,
      "d": 540.1767708333209,
      "v": 79
    },
    {
      "midi": 54,
      "hit": false,
      "t": 243427.7599999998,
      "d": 712.0511979166477,
      "v": 58
    },
    {
      "midi": 64,
      "hit": false,
      "t": 243427.7599999998,
      "d": 720.9797395833011,
      "v": 100
    },
    {
      "midi": 47,
      "hit": false,
      "t": 243427.7599999998,
      "d": 924.1040624999441,
      "v": 79
    },
    {
      "midi": 66,
      "hit": false,
      "t": 243427.7599999998,
      "d": 1024.5501562499558,
      "v": 100
    },
    {
      "midi": 71,
      "hit": false,
      "t": 243427.7599999998,
      "d": 1026.7822916666337,
      "v": 79
    },
    {
      "midi": 59,
      "hit": false,
      "t": 244070.6149999998,
      "d": 305.80255208330345,
      "v": 60
    },
    {
      "midi": 54,
      "hit": false,
      "t": 244302.7570833331,
      "d": 1580.351874999964,
      "v": 69
    },
    {
      "midi": 59,
      "hit": false,
      "t": 244490.2564583331,
      "d": 154.0173437499907,
      "v": 58
    },
    {
      "midi": 59,
      "hit": false,
      "t": 244693.38078124975,
      "d": 1040.175104166643,
      "v": 75
    },
    {
      "midi": 66,
      "hit": false,
      "t": 244700.07718749976,
      "d": 1368.2990104166092,
      "v": 94
    },
    {
      "midi": 71,
      "hit": false,
      "t": 244706.77359374976,
      "d": 1477.6736458332743,
      "v": 75
    },
    {
      "midi": 47,
      "hit": false,
      "t": 244711.2378645831,
      "d": 1426.3345312499441,
      "v": 84
    },
    {
      "midi": 63,
      "hit": false,
      "t": 244715.70213541642,
      "d": 1319.192031249957,
      "v": 100
    },
    {
      "midi": 59,
      "hit": false,
      "t": 245829.53770833305,
      "d": 640.6228645833035,
      "v": 59
    },
    {
      "midi": 54,
      "hit": false,
      "t": 246025.96562499972,
      "d": 87.05328124997322,
      "v": 61
    },
    {
      "midi": 64,
      "hit": false,
      "t": 246240.2506249997,
      "d": 167.41015625,
      "v": 84
    },
    {
      "midi": 66,
      "hit": false,
      "t": 246423.28572916635,
      "d": 214.2850000000035,
      "v": 61
    },
    {
      "midi": 71,
      "hit": false,
      "t": 246610.78510416637,
      "d": 866.0685416666383,
      "v": 74
    },
    {
      "midi": 68,
      "hit": false,
      "t": 246831.76651041635,
      "d": 712.0511979166477,
      "v": 87
    },
    {
      "midi": 64,
      "hit": false,
      "t": 246840.695052083,
      "d": 683.0334374999802,
      "v": 110
    },
    {
      "midi": 59,
      "hit": false,
      "t": 246845.15932291633,
      "d": 421.8735937500023,
      "v": 94
    },
    {
      "midi": 52,
      "hit": false,
      "t": 246851.85572916633,
      "d": 633.9264583333279,
      "v": 64
    },
    {
      "midi": 40,
      "hit": false,
      "t": 246858.55213541634,
      "d": 857.1399999999849,
      "v": 67
    },
    {
      "midi": 59,
      "hit": false,
      "t": 247481.31791666633,
      "d": 95.9818229166558,
      "v": 59
    },
    {
      "midi": 52,
      "hit": false,
      "t": 247715.69213541632,
      "d": 1145.0854687499814,
      "v": 67
    },
    {
      "midi": 47,
      "hit": false,
      "t": 247927.74499999965,
      "d": 118.30317708334769,
      "v": 59
    },
    {
      "midi": 40,
      "hit": false,
      "t": 248121.94078124966,
      "d": 564.7302604166325,
      "v": 75
    },
    {
      "midi": 71,
      "hit": false,
      "t": 248133.101458333,
      "d": 453.1234895833186,
      "v": 100
    },
    {
      "midi": 66,
      "hit": false,
      "t": 248139.797864583,
      "d": 473.21270833330345,
      "v": 79
    },
    {
      "midi": 76,
      "hit": false,
      "t": 248144.26213541633,
      "d": 437.49854166666046,
      "v": 87
    },
    {
      "midi": 68,
      "hit": false,
      "t": 248150.95854166633,
      "d": 457.5877604166453,
      "v": 100
    },
    {
      "midi": 59,
      "hit": false,
      "t": 249204.52645833296,
      "d": 104.91036458333838,
      "v": 50
    },
    {
      "midi": 59,
      "hit": false,
      "t": 249407.65078124963,
      "d": 294.64187500000116,
      "v": 75
    },
    {
      "midi": 66,
      "hit": false,
      "t": 249412.11505208295,
      "d": 419.6414583333244,
      "v": 94
    },
    {
      "midi": 51,
      "hit": false,
      "t": 249418.81145833296,
      "d": 292.40973958332324,
      "v": 94
    },
    {
      "midi": 71,
      "hit": false,
      "t": 249425.50786458296,
      "d": 433.0342708333337,
      "v": 75
    },
    {
      "midi": 63,
      "hit": false,
      "t": 249429.9721354163,
      "d": 417.4093229166756,
      "v": 110
    },
    {
      "midi": 59,
      "hit": false,
      "t": 249833.98864583296,
      "d": 129.46385416667908,
      "v": 46
    },
    {
      "midi": 56,
      "hit": false,
      "t": 250025.9522916663,
      "d": 225.44567708333489,
      "v": 47
    },
    {
      "midi": 59,
      "hit": false,
      "t": 250284.87999999963,
      "d": 738.8368229166954,
      "v": 84
    },
    {
      "midi": 64,
      "hit": false,
      "t": 250284.87999999963,
      "d": 776.7831250000163,
      "v": 110
    },
    {
      "midi": 68,
      "hit": false,
      "t": 250284.87999999963,
      "d": 810.2651562500105,
      "v": 87
    },
    {
      "midi": 71,
      "hit": false,
      "t": 250284.87999999963,
      "d": 810.2651562500105,
      "v": 84
    },
    {
      "midi": 49,
      "hit": false,
      "t": 250284.87999999963,
      "d": 1053.5679166666814,
      "v": 74
    },
    {
      "midi": 49,
      "hit": false,
      "t": 251550.50078124963,
      "d": 754.4617708333826,
      "v": 64
    },
    {
      "midi": 61,
      "hit": false,
      "t": 251557.19718749964,
      "d": 511.1590104167117,
      "v": 60
    },
    {
      "midi": 76,
      "hit": false,
      "t": 251563.89359374964,
      "d": 408.4807812500221,
      "v": 84
    },
    {
      "midi": 68,
      "hit": false,
      "t": 251570.58999999965,
      "d": 430.8021354166849,
      "v": 94
    },
    {
      "midi": 71,
      "hit": false,
      "t": 251572.82213541633,
      "d": 401.78437500001746,
      "v": 84
    },
    {
      "midi": 64,
      "hit": false,
      "t": 251577.28640624965,
      "d": 459.81989583335235,
      "v": 79
    },
    {
      "midi": 59,
      "hit": false,
      "t": 252666.568489583,
      "d": 104.91036458333838,
      "v": 34
    },
    {
      "midi": 47,
      "hit": false,
      "t": 252840.675052083,
      "d": 328.12390624999534,
      "v": 84
    },
    {
      "midi": 59,
      "hit": false,
      "t": 252847.37145833301,
      "d": 330.35604166664416,
      "v": 72
    },
    {
      "midi": 64,
      "hit": false,
      "t": 252854.06786458302,
      "d": 607.1408333332802,
      "v": 94
    },
    {
      "midi": 68,
      "hit": false,
      "t": 252858.53213541635,
      "d": 624.9979166666453,
      "v": 84
    },
    {
      "midi": 71,
      "hit": false,
      "t": 252862.99640624967,
      "d": 571.4266666666372,
      "v": 75
    },
    {
      "midi": 59,
      "hit": false,
      "t": 253287.10213541632,
      "d": 198.66005208334536,
      "v": 41
    },
    {
      "midi": 49,
      "hit": false,
      "t": 253481.2979166663,
      "d": 196.42791666669655,
      "v": 52
    },
    {
      "midi": 66,
      "hit": false,
      "t": 253700.04718749967,
      "d": 613.8372395833139,
      "v": 94
    },
    {
      "midi": 69,
      "hit": false,
      "t": 253706.74359374968,
      "d": 582.5873437499686,
      "v": 84
    },
    {
      "midi": 54,
      "hit": false,
      "t": 253711.207864583,
      "d": 571.4266666666372,
      "v": 65
    },
    {
      "midi": 61,
      "hit": false,
      "t": 253715.67213541633,
      "d": 397.3201041666325,
      "v": 100
    },
    {
      "midi": 64,
      "hit": false,
      "t": 253720.13640624966,
      "d": 611.6051041666651,
      "v": 100
    },
    {
      "midi": 42,
      "hit": false,
      "t": 253740.22562499964,
      "d": 861.6042708333407,
      "v": 69
    },
    {
      "midi": 61,
      "hit": false,
      "t": 254325.04510416632,
      "d": 80.35687499999767,
      "v": 64
    },
    {
      "midi": 54,
      "hit": false,
      "t": 254523.70515624966,
      "d": 1511.1556770833267,
      "v": 72
    },
    {
      "midi": 49,
      "hit": false,
      "t": 254740.22229166632,
      "d": 145.0888020833372,
      "v": 54
    },
    {
      "midi": 42,
      "hit": false,
      "t": 254950.043020833,
      "d": 1417.4059895833489,
      "v": 74
    },
    {
      "midi": 66,
      "hit": false,
      "t": 254958.97156249965,
      "d": 877.2292187499988,
      "v": 75
    },
    {
      "midi": 76,
      "hit": false,
      "t": 254965.66796874965,
      "d": 843.7471875000047,
      "v": 100
    },
    {
      "midi": 73,
      "hit": false,
      "t": 254972.36437499966,
      "d": 830.3543749999953,
      "v": 114
    },
    {
      "midi": 69,
      "hit": false,
      "t": 254976.82864583298,
      "d": 841.5150520833267,
      "v": 114
    },
    {
      "midi": 54,
      "hit": false,
      "t": 256267.00291666633,
      "d": 167.41015625,
      "v": 46
    },
    {
      "midi": 69,
      "hit": false,
      "t": 256682.18010416633,
      "d": 379.4630208333256,
      "v": 79
    },
    {
      "midi": 64,
      "hit": false,
      "t": 256686.64437499965,
      "d": 254.46343750000233,
      "v": 94
    },
    {
      "midi": 54,
      "hit": false,
      "t": 256925.482864583,
      "d": 1069.1928645833104,
      "v": 32
    },
    {
      "midi": 59,
      "hit": false,
      "t": 257117.4465104163,
      "d": 504.4626041666488,
      "v": 59
    },
    {
      "midi": 47,
      "hit": false,
      "t": 257124.14291666631,
      "d": 852.6757291666581,
      "v": 67
    },
    {
      "midi": 69,
      "hit": false,
      "t": 257130.83932291632,
      "d": 803.5687499999767,
      "v": 72
    },
    {
      "midi": 66,
      "hit": false,
      "t": 257135.30359374965,
      "d": 845.9793229166535,
      "v": 84
    },
    {
      "midi": 63,
      "hit": false,
      "t": 257150.9285416663,
      "d": 825.8901041666686,
      "v": 87
    },
    {
      "midi": 61,
      "hit": false,
      "t": 257764.76578124962,
      "d": 1575.8876041666954,
      "v": 64
    },
    {
      "midi": 59,
      "hit": false,
      "t": 257976.81864583297,
      "d": 1435.263072916685,
      "v": 62
    },
    {
      "midi": 54,
      "hit": false,
      "t": 258168.7822916663,
      "d": 1691.958645833307,
      "v": 53
    },
    {
      "midi": 66,
      "hit": false,
      "t": 258383.06729166632,
      "d": 1383.9239583332965,
      "v": 94
    },
    {
      "midi": 71,
      "hit": false,
      "t": 258389.76369791632,
      "d": 1495.5307291666395,
      "v": 94
    },
    {
      "midi": 63,
      "hit": false,
      "t": 258396.46010416633,
      "d": 1294.6385416666453,
      "v": 100
    },
    {
      "midi": 47,
      "hit": false,
      "t": 258403.15651041633,
      "d": 1497.7628645832883,
      "v": 72
    },
    {
      "midi": 61,
      "hit": false,
      "t": 259508.0635416663,
      "d": 680.8013020833023,
      "v": 62
    },
    {
      "midi": 59,
      "hit": false,
      "t": 259700.02718749963,
      "d": 154.0173437499907,
      "v": 60
    },
    {
      "midi": 63,
      "hit": false,
      "t": 259909.84791666627,
      "d": 185.26723958333605,
      "v": 84
    },
    {
      "midi": 66,
      "hit": false,
      "t": 260117.43651041627,
      "d": 165.17802083335118,
      "v": 65
    },
    {
      "midi": 71,
      "hit": false,
      "t": 260320.56083333294,
      "d": 2383.920625000086,
      "v": 79
    },
    {
      "midi": 59,
      "hit": false,
      "t": 260543.7743749996,
      "d": 444.1949479166651,
      "v": 74
    },
    {
      "midi": 52,
      "hit": false,
      "t": 260570.5599999996,
      "d": 676.3370312500047,
      "v": 64
    },
    {
      "midi": 40,
      "hit": false,
      "t": 260570.5599999996,
      "d": 837.0507812500291,
      "v": 75
    },
    {
      "midi": 68,
      "hit": false,
      "t": 260570.5599999996,
      "d": 930.8004687500361,
      "v": 75
    },
    {
      "midi": 64,
      "hit": false,
      "t": 260570.5599999996,
      "d": 935.2647395833628,
      "v": 94
    },
    {
      "midi": 59,
      "hit": false,
      "t": 261213.4149999996,
      "d": 504.462604166707,
      "v": 65
    },
    {
      "midi": 52,
      "hit": false,
      "t": 261405.37864583294,
      "d": 1308.031354166742,
      "v": 64
    },
    {
      "midi": 47,
      "hit": false,
      "t": 261606.27083333296,
      "d": 154.0173437500198,
      "v": 61
    },
    {
      "midi": 40,
      "hit": false,
      "t": 261807.163020833,
      "d": 754.4617708333535,
      "v": 84
    },
    {
      "midi": 59,
      "hit": false,
      "t": 261813.859427083,
      "d": 734.3725520833395,
      "v": 79
    },
    {
      "midi": 66,
      "hit": false,
      "t": 261820.555833333,
      "d": 910.711249999993,
      "v": 79
    },
    {
      "midi": 64,
      "hit": false,
      "t": 261825.02010416632,
      "d": 883.9256250000617,
      "v": 87
    },
    {
      "midi": 59,
      "hit": false,
      "t": 262711.17786458303,
      "d": 281.24906249990454,
      "v": 54
    },
    {
      "midi": 52,
      "hit": false,
      "t": 262916.5343229163,
      "d": 145.0888020833372,
      "v": 64
    },
    {
      "midi": 63,
      "hit": false,
      "t": 263124.1229166663,
      "d": 493.30192708340473,
      "v": 87
    },
    {
      "midi": 71,
      "hit": false,
      "t": 263130.81932291633,
      "d": 502.2304687500582,
      "v": 74
    },
    {
      "midi": 66,
      "hit": false,
      "t": 263137.51572916633,
      "d": 473.21270833339076,
      "v": 87
    },
    {
      "midi": 59,
      "hit": false,
      "t": 263144.21213541634,
      "d": 301.3382812500349,
      "v": 84
    },
    {
      "midi": 51,
      "hit": false,
      "t": 263144.21213541634,
      "d": 421.87359375006054,
      "v": 94
    },
    {
      "midi": 59,
      "hit": false,
      "t": 263552.6929166664,
      "d": 156.2494791666395,
      "v": 57
    },
    {
      "midi": 71,
      "hit": false,
      "t": 263996.88786458306,
      "d": 1066.9607291666325,
      "v": 79
    },
    {
      "midi": 68,
      "hit": false,
      "t": 264001.3521354164,
      "d": 857.1399999999558,
      "v": 84
    },
    {
      "midi": 64,
      "hit": false,
      "t": 264010.28067708306,
      "d": 729.9082812499837,
      "v": 94
    },
    {
      "midi": 59,
      "hit": false,
      "t": 264014.7449479164,
      "d": 368.3023437499651,
      "v": 75
    },
    {
      "midi": 49,
      "hit": false,
      "t": 264023.6734895831,
      "d": 1138.3890624999185,
      "v": 84
    },
    {
      "midi": 59,
      "hit": false,
      "t": 264659.83208333305,
      "d": 292.40973958332324,
      "v": 60
    },
    {
      "midi": 56,
      "hit": false,
      "t": 264858.49213541637,
      "d": 1066.9607291666325,
      "v": 60
    },
    {
      "midi": 59,
      "hit": false,
      "t": 265057.1521874997,
      "d": 156.2494791666395,
      "v": 59
    },
    {
      "midi": 71,
      "hit": false,
      "t": 265264.74078124965,
      "d": 995.5323958334047,
      "v": 72
    },
    {
      "midi": 59,
      "hit": false,
      "t": 265271.43718749966,
      "d": 629.4621875000303,
      "v": 74
    },
    {
      "midi": 68,
      "hit": false,
      "t": 265275.901458333,
      "d": 930.800468750007,
      "v": 74
    },
    {
      "midi": 64,
      "hit": false,
      "t": 265282.597864583,
      "d": 944.1932812500163,
      "v": 84
    },
    {
      "midi": 49,
      "hit": false,
      "t": 265287.0621354164,
      "d": 680.8013020833023,
      "v": 58
    },
    {
      "midi": 59,
      "hit": false,
      "t": 266144.20213541633,
      "d": 214.2850000000908,
      "v": 50
    },
    {
      "midi": 54,
      "hit": false,
      "t": 266338.3979166664,
      "d": 196.42791666666744,
      "v": 56
    },
    {
      "midi": 59,
      "hit": false,
      "t": 266563.84359374974,
      "d": 343.74885416659527,
      "v": 87
    },
    {
      "midi": 64,
      "hit": false,
      "t": 266572.7721354164,
      "d": 475.44484374986496,
      "v": 100
    },
    {
      "midi": 66,
      "hit": false,
      "t": 266572.7721354164,
      "d": 770.0867187497788,
      "v": 87
    },
    {
      "midi": 71,
      "hit": false,
      "t": 266592.86135416635,
      "d": 560.2659895832185,
      "v": 74
    },
    {
      "midi": 47,
      "hit": false,
      "t": 266597.3256249997,
      "d": 404.01651041657897,
      "v": 79
    },
    {
      "midi": 59,
      "hit": false,
      "t": 266983.485052083,
      "d": 187.49937499989755,
      "v": 48
    },
    {
      "midi": 50,
      "hit": false,
      "t": 267193.30578124954,
      "d": 111.60677083331393,
      "v": 39
    },
    {
      "midi": 61,
      "hit": false,
      "t": 267427.67999999947,
      "d": 1209.8173958332627,
      "v": 94
    },
    {
      "midi": 54,
      "hit": false,
      "t": 267427.67999999947,
      "d": 2419.634791666642,
      "v": 74
    },
    {
      "midi": 69,
      "hit": false,
      "t": 267427.67999999947,
      "d": 2763.3836458334117,
      "v": 87
    },
    {
      "midi": 42,
      "hit": false,
      "t": 267429.9121354161,
      "d": 1162.9425520832883,
      "v": 63
    },
    {
      "midi": 57,
      "hit": false,
      "t": 268523.6584895827,
      "d": 140.62453125003958,
      "v": 45
    },
    {
      "midi": 42,
      "hit": false,
      "t": 268722.3185416661,
      "d": 1366.0668750000768,
      "v": 72
    },
    {
      "midi": 57,
      "hit": false,
      "t": 268726.78281249944,
      "d": 1299.1028125000303,
      "v": 72
    },
    {
      "midi": 64,
      "hit": false,
      "t": 268733.47921874945,
      "d": 1450.8880208334303,
      "v": 75
    },
    {
      "midi": 61,
      "hit": false,
      "t": 268740.17562499945,
      "d": 1417.405989583407,
      "v": 87
    },
    {
      "midi": 54,
      "hit": false,
      "t": 269970.0822395828,
      "d": 174.10656250006286,
      "v": 59
    },
    {
      "midi": 57,
      "hit": false,
      "t": 270429.9021354162,
      "d": 73.66046874999302,
      "v": 54
    },
    {
      "midi": 54,
      "hit": false,
      "t": 270659.81208333286,
      "d": 136.16026041668374,
      "v": 52
    },
    {
      "midi": 59,
      "hit": false,
      "t": 270856.2399999995,
      "d": 540.1767708333791,
      "v": 79
    },
    {
      "midi": 54,
      "hit": false,
      "t": 270856.2399999995,
      "d": 712.051197916735,
      "v": 58
    },
    {
      "midi": 64,
      "hit": false,
      "t": 270856.2399999995,
      "d": 720.9797395833884,
      "v": 100
    },
    {
      "midi": 47,
      "hit": false,
      "t": 270856.2399999995,
      "d": 924.1040625000605,
      "v": 79
    },
    {
      "midi": 66,
      "hit": false,
      "t": 270856.2399999995,
      "d": 1024.550156250014,
      "v": 100
    },
    {
      "midi": 71,
      "hit": false,
      "t": 270856.2399999995,
      "d": 1026.7822916666628,
      "v": 79
    },
    {
      "midi": 59,
      "hit": false,
      "t": 271499.09499999956,
      "d": 305.80255208333256,
      "v": 60
    },
    {
      "midi": 54,
      "hit": false,
      "t": 271731.2370833329,
      "d": 1580.3518749999348,
      "v": 69
    },
    {
      "midi": 59,
      "hit": false,
      "t": 271918.73645833286,
      "d": 154.0173437499907,
      "v": 58
    },
    {
      "midi": 59,
      "hit": false,
      "t": 272121.86078124953,
      "d": 1040.175104166672,
      "v": 75
    },
    {
      "midi": 66,
      "hit": false,
      "t": 272128.55718749954,
      "d": 1368.2990104166674,
      "v": 94
    },
    {
      "midi": 71,
      "hit": false,
      "t": 272135.25359374954,
      "d": 1477.6736458332743,
      "v": 75
    },
    {
      "midi": 47,
      "hit": false,
      "t": 272139.7178645829,
      "d": 1426.3345312499441,
      "v": 84
    },
    {
      "midi": 63,
      "hit": false,
      "t": 272144.18213541625,
      "d": 1319.1920312499278,
      "v": 100
    },
    {
      "midi": 59,
      "hit": false,
      "t": 273258.01770833286,
      "d": 640.6228645832743,
      "v": 59
    },
    {
      "midi": 54,
      "hit": false,
      "t": 273454.4456249995,
      "d": 87.05328125000233,
      "v": 61
    },
    {
      "midi": 64,
      "hit": false,
      "t": 273668.7306249995,
      "d": 167.41015625,
      "v": 84
    },
    {
      "midi": 66,
      "hit": false,
      "t": 273851.76572916616,
      "d": 214.2849999999744,
      "v": 61
    },
    {
      "midi": 71,
      "hit": false,
      "t": 274039.2651041661,
      "d": 866.0685416667257,
      "v": 74
    },
    {
      "midi": 68,
      "hit": false,
      "t": 274260.24651041615,
      "d": 712.051197916735,
      "v": 87
    },
    {
      "midi": 64,
      "hit": false,
      "t": 274269.1750520828,
      "d": 683.0334375000675,
      "v": 110
    },
    {
      "midi": 59,
      "hit": false,
      "t": 274273.63932291616,
      "d": 421.8735937500023,
      "v": 94
    },
    {
      "midi": 52,
      "hit": false,
      "t": 274280.33572916617,
      "d": 633.9264583333861,
      "v": 64
    },
    {
      "midi": 40,
      "hit": false,
      "t": 274287.0321354162,
      "d": 857.1400000000722,
      "v": 67
    },
    {
      "midi": 59,
      "hit": false,
      "t": 274909.7979166662,
      "d": 95.98182291671401,
      "v": 59
    },
    {
      "midi": 52,
      "hit": false,
      "t": 275144.17213541624,
      "d": 1145.0854687500396,
      "v": 67
    },
    {
      "midi": 47,
      "hit": false,
      "t": 275356.22499999957,
      "d": 118.30317708331859,
      "v": 59
    },
    {
      "midi": 40,
      "hit": false,
      "t": 275550.42078124953,
      "d": 564.7302604167489,
      "v": 75
    },
    {
      "midi": 71,
      "hit": false,
      "t": 275561.5814583329,
      "d": 453.1234895833768,
      "v": 100
    },
    {
      "midi": 66,
      "hit": false,
      "t": 275568.2778645829,
      "d": 473.21270833339076,
      "v": 79
    },
    {
      "midi": 76,
      "hit": false,
      "t": 275572.74213541625,
      "d": 437.49854166666046,
      "v": 87
    },
    {
      "midi": 68,
      "hit": false,
      "t": 275579.43854166626,
      "d": 457.5877604166744,
      "v": 100
    },
    {
      "midi": 59,
      "hit": false,
      "t": 276633.00645833294,
      "d": 104.91036458330927,
      "v": 50
    },
    {
      "midi": 59,
      "hit": false,
      "t": 276836.13078124955,
      "d": 294.64187500003027,
      "v": 75
    },
    {
      "midi": 66,
      "hit": false,
      "t": 276840.5950520829,
      "d": 419.6414583333535,
      "v": 94
    },
    {
      "midi": 51,
      "hit": false,
      "t": 276847.2914583329,
      "d": 292.40973958332324,
      "v": 94
    },
    {
      "midi": 71,
      "hit": false,
      "t": 276853.9878645829,
      "d": 433.0342708333628,
      "v": 75
    },
    {
      "midi": 63,
      "hit": false,
      "t": 276858.4521354163,
      "d": 417.4093229166465,
      "v": 110
    },
    {
      "midi": 59,
      "hit": false,
      "t": 277262.4686458329,
      "d": 129.46385416667908,
      "v": 46
    },
    {
      "midi": 56,
      "hit": false,
      "t": 277454.4322916663,
      "d": 225.44567708333489,
      "v": 47
    },
    {
      "midi": 59,
      "hit": false,
      "t": 277713.35999999964,
      "d": 738.8368229166372,
      "v": 84
    },
    {
      "midi": 64,
      "hit": false,
      "t": 277713.35999999964,
      "d": 776.7831249999581,
      "v": 110
    },
    {
      "midi": 68,
      "hit": false,
      "t": 277713.35999999964,
      "d": 810.2651562499814,
      "v": 87
    },
    {
      "midi": 71,
      "hit": false,
      "t": 277713.35999999964,
      "d": 810.2651562499814,
      "v": 84
    },
    {
      "midi": 49,
      "hit": false,
      "t": 277713.35999999964,
      "d": 1053.5679166666232,
      "v": 74
    },
    {
      "midi": 49,
      "hit": false,
      "t": 278978.9807812496,
      "d": 754.4617708333535,
      "v": 64
    },
    {
      "midi": 61,
      "hit": false,
      "t": 278985.6771874996,
      "d": 511.1590104166535,
      "v": 60
    },
    {
      "midi": 76,
      "hit": false,
      "t": 278992.3735937496,
      "d": 408.480781249993,
      "v": 84
    },
    {
      "midi": 68,
      "hit": false,
      "t": 278999.0699999996,
      "d": 430.8021354166558,
      "v": 94
    },
    {
      "midi": 71,
      "hit": false,
      "t": 279001.30213541625,
      "d": 401.78437499998836,
      "v": 84
    },
    {
      "midi": 64,
      "hit": false,
      "t": 279005.7664062496,
      "d": 459.81989583332324,
      "v": 79
    },
    {
      "midi": 59,
      "hit": false,
      "t": 280095.04848958296,
      "d": 104.91036458330927,
      "v": 34
    },
    {
      "midi": 47,
      "hit": false,
      "t": 280269.15505208296,
      "d": 328.12390625005355,
      "v": 84
    },
    {
      "midi": 59,
      "hit": false,
      "t": 280275.85145833297,
      "d": 330.35604166670237,
      "v": 72
    },
    {
      "midi": 64,
      "hit": false,
      "t": 280282.547864583,
      "d": 607.1408333333675,
      "v": 94
    },
    {
      "midi": 68,
      "hit": false,
      "t": 280287.0121354163,
      "d": 624.9979166666744,
      "v": 84
    },
    {
      "midi": 71,
      "hit": false,
      "t": 280291.4764062497,
      "d": 571.4266666666372,
      "v": 75
    },
    {
      "midi": 59,
      "hit": false,
      "t": 280715.58213541633,
      "d": 198.66005208331626,
      "v": 41
    },
    {
      "midi": 49,
      "hit": false,
      "t": 280909.77791666635,
      "d": 196.42791666660924,
      "v": 52
    },
    {
      "midi": 66,
      "hit": false,
      "t": 281128.5271874996,
      "d": 613.8372395834303,
      "v": 94
    },
    {
      "midi": 69,
      "hit": false,
      "t": 281135.22359374963,
      "d": 582.5873437501141,
      "v": 84
    },
    {
      "midi": 54,
      "hit": false,
      "t": 281139.687864583,
      "d": 571.4266666667536,
      "v": 65
    },
    {
      "midi": 61,
      "hit": false,
      "t": 281144.15213541634,
      "d": 397.32010416674893,
      "v": 100
    },
    {
      "midi": 64,
      "hit": false,
      "t": 281148.6164062497,
      "d": 611.6051041667233,
      "v": 100
    },
    {
      "midi": 42,
      "hit": false,
      "t": 281168.7056249997,
      "d": 861.6042708333698,
      "v": 69
    },
    {
      "midi": 61,
      "hit": false,
      "t": 281753.5251041664,
      "d": 80.35687499999767,
      "v": 64
    },
    {
      "midi": 54,
      "hit": false,
      "t": 281952.18515624973,
      "d": 1511.1556770832976,
      "v": 72
    },
    {
      "midi": 49,
      "hit": false,
      "t": 282168.7022916664,
      "d": 145.0888020833372,
      "v": 54
    },
    {
      "midi": 42,
      "hit": false,
      "t": 282378.5230208331,
      "d": 1417.4059895832906,
      "v": 74
    },
    {
      "midi": 66,
      "hit": false,
      "t": 282387.45156249974,
      "d": 877.2292187499697,
      "v": 75
    },
    {
      "midi": 76,
      "hit": false,
      "t": 282394.14796874975,
      "d": 843.7471875000047,
      "v": 100
    },
    {
      "midi": 73,
      "hit": false,
      "t": 282400.84437499975,
      "d": 830.3543749999953,
      "v": 114
    },
    {
      "midi": 69,
      "hit": false,
      "t": 282405.3086458331,
      "d": 841.5150520832976,
      "v": 114
    },
    {
      "midi": 54,
      "hit": false,
      "t": 283695.48291666637,
      "d": 167.41015625,
      "v": 46
    },
    {
      "midi": 69,
      "hit": false,
      "t": 284110.66010416637,
      "d": 379.4630208333838,
      "v": 79
    },
    {
      "midi": 64,
      "hit": false,
      "t": 284115.1243749997,
      "d": 254.46343750000233,
      "v": 94
    },
    {
      "midi": 54,
      "hit": false,
      "t": 284353.96286458307,
      "d": 1058.0321875000373,
      "v": 32
    },
    {
      "midi": 59,
      "hit": false,
      "t": 284545.92651041644,
      "d": 1301.334947916679,
      "v": 59
    },
    {
      "midi": 47,
      "hit": false,
      "t": 284552.62291666644,
      "d": 441.9628125000163,
      "v": 67
    },
    {
      "midi": 69,
      "hit": false,
      "t": 284559.31932291645,
      "d": 6868.280677083414,
      "v": 72
    },
    {
      "midi": 66,
      "hit": false,
      "t": 284563.7835937498,
      "d": 1287.9421354166698,
      "v": 84
    },
    {
      "midi": 47,
      "hit": false,
      "t": 284994.58572916646,
      "d": 2279.0102604167187,
      "v": 65
    },
    {
      "midi": 54,
      "hit": false,
      "t": 285411.9950520831,
      "d": 1781.2440625000745,
      "v": 74
    },
    {
      "midi": 71,
      "hit": false,
      "t": 285842.79718749976,
      "d": 1470.977239583386,
      "v": 64
    },
    {
      "midi": 59,
      "hit": false,
      "t": 285847.2614583331,
      "d": 1303.567083333386,
      "v": 63
    },
    {
      "midi": 66,
      "hit": false,
      "t": 285851.7257291665,
      "d": 1462.0486979166744,
      "v": 67
    },
    {
      "midi": 64,
      "hit": false,
      "t": 285858.4221354165,
      "d": 1453.120156250021,
      "v": 72
    },
    {
      "midi": 64,
      "hit": false,
      "t": 287936.5402083332,
      "d": 544.6410416666768,
      "v": 64
    },
    {
      "midi": 57,
      "hit": false,
      "t": 287941.0044791665,
      "d": 459.81989583332324,
      "v": 65
    },
    {
      "midi": 40,
      "hit": false,
      "t": 287947.70088541653,
      "d": 2803.5620833333232,
      "v": 65
    },
    {
      "midi": 59,
      "hit": false,
      "t": 287952.1651562499,
      "d": 546.8731770832674,
      "v": 67
    },
    {
      "midi": 52,
      "hit": false,
      "t": 287958.8615624999,
      "d": 366.07020833331626,
      "v": 61
    },
    {
      "midi": 47,
      "hit": false,
      "t": 288403.0565104165,
      "d": 2361.599270833365,
      "v": 59
    },
    {
      "midi": 52,
      "hit": false,
      "t": 288811.5372916665,
      "d": 904.0148437499884,
      "v": 69
    },
    {
      "midi": 64,
      "hit": false,
      "t": 289226.7144791665,
      "d": 1712.047864583321,
      "v": 94
    },
    {
      "midi": 57,
      "hit": false,
      "t": 289233.4108854165,
      "d": 1446.4237500000163,
      "v": 100
    },
    {
      "midi": 52,
      "hit": false,
      "t": 290476.71031249984,
      "d": 629.4621874999721,
      "v": 44
    },
    {
      "midi": 59,
      "hit": false,
      "t": 290891.88749999984,
      "d": 535.7125000000233,
      "v": 47
    },
    {
      "midi": 52,
      "hit": false,
      "t": 291112.8689062498,
      "d": 529.0160937500768,
      "v": 49
    },
    {
      "midi": 43,
      "hit": false,
      "t": 291327.1539062498,
      "d": 3872.754947916721,
      "v": 84
    },
    {
      "midi": 67,
      "hit": false,
      "t": 291333.8503124998,
      "d": 453.123489583435,
      "v": 84
    },
    {
      "midi": 55,
      "hit": false,
      "t": 291338.31458333315,
      "d": 276.7847916667233,
      "v": 84
    },
    {
      "midi": 62,
      "hit": false,
      "t": 291345.01098958316,
      "d": 397.32010416674893,
      "v": 87
    },
    {
      "midi": 60,
      "hit": false,
      "t": 291351.70739583316,
      "d": 412.94505208340706,
      "v": 100
    },
    {
      "midi": 55,
      "hit": false,
      "t": 291751.25963541656,
      "d": 1274.5493229166605,
      "v": 62
    },
    {
      "midi": 60,
      "hit": false,
      "t": 292186.52604166657,
      "d": 890.622031249979,
      "v": 94
    },
    {
      "midi": 67,
      "hit": false,
      "t": 292608.3996354166,
      "d": 566.9623958332813,
      "v": 75
    },
    {
      "midi": 79,
      "hit": false,
      "t": 294193.21578124986,
      "d": 1006.6930729166488,
      "v": 45
    },
    {
      "midi": 86,
      "hit": false,
      "t": 294425.3578645832,
      "d": 772.3188541666605,
      "v": 49
    },
    {
      "midi": 91,
      "hit": false,
      "t": 294644.10713541653,
      "d": 546.8731770833256,
      "v": 59
    }
  ]
}