{
  "jsonPath": "Rock/Danish Pop Rock/Michael Learns To Rock/25-minutes-2002-digital-remaster.json",
  "path": "Rock\\Danish Pop Rock\\Michael Learns To Rock\\25 Minutes (2002 Digital Remaster).mid",
  "name": "25 Minutes (2002 Digital Remaster)",
  "difficulty": "Advanced",
  "bpm": 85.00004250002125,
  "notes": [
    {
      "midi": 70,
      "hit": false,
      "t": 2823.5280000000002,
      "d": 441.17625,
      "v": 127
    },
    {
      "midi": 66,
      "hit": false,
      "t": 2823.5280000000002,
      "d": 738.9702187500002,
      "v": 127
    },
    {
      "midi": 61,
      "hit": false,
      "t": 2823.5280000000002,
      "d": 838.2348750000001,
      "v": 127
    },
    {
      "midi": 42,
      "hit": false,
      "t": 2823.5280000000002,
      "d": 849.2642812500003,
      "v": 127
    },
    {
      "midi": 54,
      "hit": false,
      "t": 2823.5280000000002,
      "d": 867.6466250000003,
      "v": 127
    },
    {
      "midi": 71,
      "hit": false,
      "t": 3176.469,
      "d": 349.26453125000035,
      "v": 127
    },
    {
      "midi": 73,
      "hit": false,
      "t": 3529.4100000000003,
      "d": 194.85284375000037,
      "v": 127
    },
    {
      "midi": 73,
      "hit": false,
      "t": 3882.3510000000006,
      "d": 1102.9406250000002,
      "v": 127
    },
    {
      "midi": 64,
      "hit": false,
      "t": 3882.3510000000006,
      "d": 1113.97003125,
      "v": 127
    },
    {
      "midi": 42,
      "hit": false,
      "t": 3882.3510000000006,
      "d": 1448.5286875000002,
      "v": 127
    },
    {
      "midi": 54,
      "hit": false,
      "t": 3882.3510000000006,
      "d": 1477.9404375000004,
      "v": 127
    },
    {
      "midi": 61,
      "hit": false,
      "t": 4588.233,
      "d": 374.9998125000002,
      "v": 127
    },
    {
      "midi": 71,
      "hit": false,
      "t": 5294.115000000001,
      "d": 194.85284374999992,
      "v": 127
    },
    {
      "midi": 70,
      "hit": false,
      "t": 5470.585500000001,
      "d": 84.55878124999981,
      "v": 127
    },
    {
      "midi": 68,
      "hit": false,
      "t": 5647.0560000000005,
      "d": 345.5880625,
      "v": 127
    },
    {
      "midi": 59,
      "hit": false,
      "t": 5647.0560000000005,
      "d": 654.4114374999999,
      "v": 127
    },
    {
      "midi": 63,
      "hit": false,
      "t": 5647.0560000000005,
      "d": 694.8525937499999,
      "v": 127
    },
    {
      "midi": 42,
      "hit": false,
      "t": 5647.0560000000005,
      "d": 834.5584062499993,
      "v": 127
    },
    {
      "midi": 54,
      "hit": false,
      "t": 5647.0560000000005,
      "d": 889.7054374999989,
      "v": 127
    },
    {
      "midi": 70,
      "hit": false,
      "t": 5999.997,
      "d": 264.7057500000001,
      "v": 127
    },
    {
      "midi": 71,
      "hit": false,
      "t": 6352.938,
      "d": 110.29406250000011,
      "v": 127
    },
    {
      "midi": 62,
      "hit": false,
      "t": 6705.878999999999,
      "d": 569.8526562500001,
      "v": 127
    },
    {
      "midi": 71,
      "hit": false,
      "t": 6705.878999999999,
      "d": 1113.9700312500008,
      "v": 127
    },
    {
      "midi": 66,
      "hit": false,
      "t": 6705.878999999999,
      "d": 1158.0876562500007,
      "v": 127
    },
    {
      "midi": 42,
      "hit": false,
      "t": 6705.878999999999,
      "d": 1518.3815937500003,
      "v": 127
    },
    {
      "midi": 54,
      "hit": false,
      "t": 6705.878999999999,
      "d": 1518.3815937500003,
      "v": 127
    },
    {
      "midi": 62,
      "hit": false,
      "t": 7411.7609999999995,
      "d": 378.6762812500001,
      "v": 127
    },
    {
      "midi": 70,
      "hit": false,
      "t": 8117.643,
      "d": 194.852843749999,
      "v": 127
    },
    {
      "midi": 68,
      "hit": false,
      "t": 8294.1135,
      "d": 95.58818749999955,
      "v": 127
    },
    {
      "midi": 68,
      "hit": false,
      "t": 8470.583999999999,
      "d": 209.55871874999866,
      "v": 127
    },
    {
      "midi": 61,
      "hit": false,
      "t": 8470.583999999999,
      "d": 1014.7053749999995,
      "v": 127
    },
    {
      "midi": 37,
      "hit": false,
      "t": 8470.583999999999,
      "d": 2823.528000000002,
      "v": 127
    },
    {
      "midi": 49,
      "hit": false,
      "t": 8470.583999999999,
      "d": 2823.528000000002,
      "v": 127
    },
    {
      "midi": 70,
      "hit": false,
      "t": 8647.054499999998,
      "d": 209.55871874999866,
      "v": 127
    },
    {
      "midi": 68,
      "hit": false,
      "t": 8823.524999999998,
      "d": 308.82337499999994,
      "v": 127
    },
    {
      "midi": 66,
      "hit": false,
      "t": 9176.465999999999,
      "d": 308.82337499999994,
      "v": 127
    },
    {
      "midi": 59,
      "hit": false,
      "t": 9529.407,
      "d": 599.2644062500003,
      "v": 127
    },
    {
      "midi": 61,
      "hit": false,
      "t": 9529.407,
      "d": 1014.7053749999995,
      "v": 127
    },
    {
      "midi": 68,
      "hit": false,
      "t": 9529.407,
      "d": 1113.9700312500008,
      "v": 127
    },
    {
      "midi": 59,
      "hit": false,
      "t": 10235.288999999999,
      "d": 753.6760937500021,
      "v": 127
    },
    {
      "midi": 66,
      "hit": false,
      "t": 10588.23,
      "d": 529.411500000002,
      "v": 127
    },
    {
      "midi": 61,
      "hit": false,
      "t": 11294.112000000001,
      "d": 529.4115000000002,
      "v": 127
    },
    {
      "midi": 70,
      "hit": false,
      "t": 11294.112000000001,
      "d": 544.1173749999998,
      "v": 127
    },
    {
      "midi": 66,
      "hit": false,
      "t": 11294.112000000001,
      "d": 558.8232499999995,
      "v": 127
    },
    {
      "midi": 42,
      "hit": false,
      "t": 11294.112000000001,
      "d": 988.9700937500002,
      "v": 127
    },
    {
      "midi": 54,
      "hit": false,
      "t": 11294.112000000001,
      "d": 1003.6759687499998,
      "v": 127
    },
    {
      "midi": 61,
      "hit": false,
      "t": 11999.994,
      "d": 499.99975000000086,
      "v": 127
    },
    {
      "midi": 70,
      "hit": false,
      "t": 11999.994,
      "d": 514.7056250000005,
      "v": 127
    },
    {
      "midi": 66,
      "hit": false,
      "t": 11999.994,
      "d": 540.4409062499999,
      "v": 127
    },
    {
      "midi": 42,
      "hit": false,
      "t": 12352.935000000001,
      "d": 1338.2346249999973,
      "v": 127
    },
    {
      "midi": 54,
      "hit": false,
      "t": 12352.935000000001,
      "d": 1352.940499999997,
      "v": 127
    },
    {
      "midi": 61,
      "hit": false,
      "t": 12705.876,
      "d": 488.9703437499993,
      "v": 127
    },
    {
      "midi": 70,
      "hit": false,
      "t": 12705.876,
      "d": 514.7056249999987,
      "v": 127
    },
    {
      "midi": 66,
      "hit": false,
      "t": 12705.876,
      "d": 544.117374999998,
      "v": 127
    },
    {
      "midi": 61,
      "hit": false,
      "t": 13411.757999999998,
      "d": 514.7056250000005,
      "v": 127
    },
    {
      "midi": 66,
      "hit": false,
      "t": 13411.757999999998,
      "d": 540.4409062499999,
      "v": 127
    },
    {
      "midi": 70,
      "hit": false,
      "t": 13411.757999999998,
      "d": 555.1467812499995,
      "v": 127
    },
    {
      "midi": 54,
      "hit": false,
      "t": 13764.698999999999,
      "d": 246.3234062499996,
      "v": 127
    },
    {
      "midi": 42,
      "hit": false,
      "t": 13764.698999999999,
      "d": 290.4410312500004,
      "v": 127
    },
    {
      "midi": 61,
      "hit": false,
      "t": 14117.64,
      "d": 525.7350312500002,
      "v": 127
    },
    {
      "midi": 65,
      "hit": false,
      "t": 14117.64,
      "d": 573.5291250000009,
      "v": 127
    },
    {
      "midi": 70,
      "hit": false,
      "t": 14117.64,
      "d": 580.8820625000008,
      "v": 127
    },
    {
      "midi": 41,
      "hit": false,
      "t": 14117.64,
      "d": 904.4113125000022,
      "v": 127
    },
    {
      "midi": 53,
      "hit": false,
      "t": 14117.64,
      "d": 933.8230625000015,
      "v": 127
    },
    {
      "midi": 61,
      "hit": false,
      "t": 14823.522,
      "d": 444.85271875000035,
      "v": 127
    },
    {
      "midi": 65,
      "hit": false,
      "t": 14823.522,
      "d": 518.3820937500004,
      "v": 127
    },
    {
      "midi": 70,
      "hit": false,
      "t": 14823.522,
      "d": 529.4115000000002,
      "v": 127
    },
    {
      "midi": 41,
      "hit": false,
      "t": 15176.463000000002,
      "d": 599.2644062499985,
      "v": 127
    },
    {
      "midi": 53,
      "hit": false,
      "t": 15176.463000000002,
      "d": 610.2938124999982,
      "v": 127
    },
    {
      "midi": 61,
      "hit": false,
      "t": 15529.404,
      "d": 470.58799999999974,
      "v": 127
    },
    {
      "midi": 65,
      "hit": false,
      "t": 15529.404,
      "d": 499.99974999999904,
      "v": 127
    },
    {
      "midi": 68,
      "hit": false,
      "t": 15529.404,
      "d": 499.99974999999904,
      "v": 127
    },
    {
      "midi": 53,
      "hit": false,
      "t": 15882.345,
      "d": 529.4115000000002,
      "v": 127
    },
    {
      "midi": 41,
      "hit": false,
      "t": 15882.345,
      "d": 588.2349999999988,
      "v": 127
    },
    {
      "midi": 61,
      "hit": false,
      "t": 16235.286,
      "d": 503.67621874999895,
      "v": 127
    },
    {
      "midi": 68,
      "hit": false,
      "t": 16235.286,
      "d": 529.4114999999983,
      "v": 127
    },
    {
      "midi": 65,
      "hit": false,
      "t": 16235.286,
      "d": 573.5291249999973,
      "v": 127
    },
    {
      "midi": 37,
      "hit": false,
      "t": 16588.227,
      "d": 209.55871874999866,
      "v": 127
    },
    {
      "midi": 49,
      "hit": false,
      "t": 16588.227,
      "d": 224.2645937499983,
      "v": 127
    },
    {
      "midi": 58,
      "hit": false,
      "t": 16941.167999999998,
      "d": 459.55859375,
      "v": 127
    },
    {
      "midi": 63,
      "hit": false,
      "t": 16941.167999999998,
      "d": 544.1173750000016,
      "v": 127
    },
    {
      "midi": 66,
      "hit": false,
      "t": 16941.167999999998,
      "d": 558.8232500000013,
      "v": 127
    },
    {
      "midi": 51,
      "hit": false,
      "t": 16941.167999999998,
      "d": 948.5289375000029,
      "v": 127
    },
    {
      "midi": 39,
      "hit": false,
      "t": 16941.167999999998,
      "d": 963.2348125000026,
      "v": 127
    },
    {
      "midi": 58,
      "hit": false,
      "t": 17647.05,
      "d": 474.2644687500033,
      "v": 127
    },
    {
      "midi": 63,
      "hit": false,
      "t": 17647.05,
      "d": 555.146781250005,
      "v": 127
    },
    {
      "midi": 66,
      "hit": false,
      "t": 17647.05,
      "d": 555.146781250005,
      "v": 127
    },
    {
      "midi": 39,
      "hit": false,
      "t": 17999.991,
      "d": 1143.381781250002,
      "v": 127
    },
    {
      "midi": 51,
      "hit": false,
      "t": 17999.991,
      "d": 1169.1170625000013,
      "v": 127
    },
    {
      "midi": 58,
      "hit": false,
      "t": 18352.932000000004,
      "d": 503.67621874999895,
      "v": 127
    },
    {
      "midi": 63,
      "hit": false,
      "t": 18352.932000000004,
      "d": 558.8232499999976,
      "v": 127
    },
    {
      "midi": 66,
      "hit": false,
      "t": 18352.932000000004,
      "d": 573.5291249999973,
      "v": 127
    },
    {
      "midi": 58,
      "hit": false,
      "t": 19058.814000000002,
      "d": 459.55859375000364,
      "v": 127
    },
    {
      "midi": 63,
      "hit": false,
      "t": 19058.814000000002,
      "d": 529.411500000002,
      "v": 127
    },
    {
      "midi": 66,
      "hit": false,
      "t": 19058.814000000002,
      "d": 529.411500000002,
      "v": 127
    },
    {
      "midi": 39,
      "hit": false,
      "t": 19411.755000000005,
      "d": 224.2645937499983,
      "v": 127
    },
    {
      "midi": 51,
      "hit": false,
      "t": 19411.755000000005,
      "d": 224.2645937499983,
      "v": 127
    },
    {
      "midi": 58,
      "hit": false,
      "t": 19764.696000000004,
      "d": 499.99974999999904,
      "v": 127
    },
    {
      "midi": 66,
      "hit": false,
      "t": 19764.696000000004,
      "d": 511.0291562499988,
      "v": 127
    },
    {
      "midi": 62,
      "hit": false,
      "t": 19764.696000000004,
      "d": 555.1467812499977,
      "v": 127
    },
    {
      "midi": 38,
      "hit": false,
      "t": 19764.696000000004,
      "d": 893.381906249997,
      "v": 127
    },
    {
      "midi": 50,
      "hit": false,
      "t": 19764.696000000004,
      "d": 948.5289374999957,
      "v": 127
    },
    {
      "midi": 58,
      "hit": false,
      "t": 20470.578,
      "d": 459.55859375,
      "v": 127
    },
    {
      "midi": 66,
      "hit": false,
      "t": 20470.578,
      "d": 485.2938749999994,
      "v": 127
    },
    {
      "midi": 62,
      "hit": false,
      "t": 20470.578,
      "d": 544.117374999998,
      "v": 127
    },
    {
      "midi": 38,
      "hit": false,
      "t": 20823.519,
      "d": 636.0290937499994,
      "v": 127
    },
    {
      "midi": 50,
      "hit": false,
      "t": 20823.519,
      "d": 665.4408437499987,
      "v": 127
    },
    {
      "midi": 58,
      "hit": false,
      "t": 21176.46,
      "d": 544.117374999998,
      "v": 127
    },
    {
      "midi": 65,
      "hit": false,
      "t": 21176.46,
      "d": 584.558531249997,
      "v": 127
    },
    {
      "midi": 62,
      "hit": false,
      "t": 21176.46,
      "d": 639.7055624999957,
      "v": 127
    },
    {
      "midi": 50,
      "hit": false,
      "t": 21529.400999999998,
      "d": 555.1467812499941,
      "v": 127
    },
    {
      "midi": 38,
      "hit": false,
      "t": 21529.400999999998,
      "d": 599.264406249993,
      "v": 127
    },
    {
      "midi": 58,
      "hit": false,
      "t": 21882.341999999993,
      "d": 488.9703437499993,
      "v": 127
    },
    {
      "midi": 62,
      "hit": false,
      "t": 21882.341999999993,
      "d": 525.7350312499984,
      "v": 127
    },
    {
      "midi": 65,
      "hit": false,
      "t": 21882.341999999993,
      "d": 599.2644062499967,
      "v": 127
    },
    {
      "midi": 34,
      "hit": false,
      "t": 22235.282999999992,
      "d": 249.9998749999977,
      "v": 127
    },
    {
      "midi": 46,
      "hit": false,
      "t": 22235.282999999992,
      "d": 264.70574999999735,
      "v": 127
    },
    {
      "midi": 54,
      "hit": false,
      "t": 22588.22399999999,
      "d": 433.8233125000006,
      "v": 127
    },
    {
      "midi": 59,
      "hit": false,
      "t": 22588.22399999999,
      "d": 499.99974999999904,
      "v": 127
    },
    {
      "midi": 63,
      "hit": false,
      "t": 22588.22399999999,
      "d": 499.99974999999904,
      "v": 127
    },
    {
      "midi": 35,
      "hit": false,
      "t": 22588.22399999999,
      "d": 926.4701249999962,
      "v": 127
    },
    {
      "midi": 47,
      "hit": false,
      "t": 22588.22399999999,
      "d": 941.1759999999958,
      "v": 127
    },
    {
      "midi": 54,
      "hit": false,
      "t": 23294.10599999999,
      "d": 499.99974999999904,
      "v": 127
    },
    {
      "midi": 59,
      "hit": false,
      "t": 23294.10599999999,
      "d": 544.117374999998,
      "v": 127
    },
    {
      "midi": 63,
      "hit": false,
      "t": 23294.10599999999,
      "d": 544.117374999998,
      "v": 127
    },
    {
      "midi": 47,
      "hit": false,
      "t": 23647.046999999988,
      "d": 1529.4109999999964,
      "v": 127
    },
    {
      "midi": 35,
      "hit": false,
      "t": 23647.046999999988,
      "d": 1599.2639062499948,
      "v": 127
    },
    {
      "midi": 54,
      "hit": false,
      "t": 23999.987999999987,
      "d": 488.9703437499993,
      "v": 127
    },
    {
      "midi": 63,
      "hit": false,
      "t": 23999.987999999987,
      "d": 514.7056249999987,
      "v": 127
    },
    {
      "midi": 59,
      "hit": false,
      "t": 23999.987999999987,
      "d": 529.4114999999983,
      "v": 127
    },
    {
      "midi": 54,
      "hit": false,
      "t": 24705.869999999984,
      "d": 463.2350624999999,
      "v": 127
    },
    {
      "midi": 59,
      "hit": false,
      "t": 24705.869999999984,
      "d": 499.99974999999904,
      "v": 127
    },
    {
      "midi": 63,
      "hit": false,
      "t": 24705.869999999984,
      "d": 529.4114999999983,
      "v": 127
    },
    {
      "midi": 58,
      "hit": false,
      "t": 25411.751999999982,
      "d": 514.7056249999987,
      "v": 127
    },
    {
      "midi": 61,
      "hit": false,
      "t": 25411.751999999982,
      "d": 544.117374999998,
      "v": 127
    },
    {
      "midi": 66,
      "hit": false,
      "t": 25411.751999999982,
      "d": 558.8232499999976,
      "v": 127
    },
    {
      "midi": 46,
      "hit": false,
      "t": 25411.751999999982,
      "d": 948.5289374999993,
      "v": 127
    },
    {
      "midi": 34,
      "hit": false,
      "t": 25411.751999999982,
      "d": 963.234812499999,
      "v": 127
    },
    {
      "midi": 58,
      "hit": false,
      "t": 26117.63399999998,
      "d": 459.55859375000364,
      "v": 127
    },
    {
      "midi": 61,
      "hit": false,
      "t": 26117.63399999998,
      "d": 488.97034375000294,
      "v": 127
    },
    {
      "midi": 66,
      "hit": false,
      "t": 26117.63399999998,
      "d": 514.7056250000023,
      "v": 127
    },
    {
      "midi": 34,
      "hit": false,
      "t": 26470.574999999983,
      "d": 1286.764062499995,
      "v": 127
    },
    {
      "midi": 46,
      "hit": false,
      "t": 26470.574999999983,
      "d": 1286.764062499995,
      "v": 127
    },
    {
      "midi": 58,
      "hit": false,
      "t": 26823.51599999998,
      "d": 459.55859375,
      "v": 127
    },
    {
      "midi": 61,
      "hit": false,
      "t": 26823.51599999998,
      "d": 499.99974999999904,
      "v": 127
    },
    {
      "midi": 66,
      "hit": false,
      "t": 26823.51599999998,
      "d": 514.7056249999987,
      "v": 127
    },
    {
      "midi": 58,
      "hit": false,
      "t": 27529.39799999998,
      "d": 404.4115624999977,
      "v": 127
    },
    {
      "midi": 61,
      "hit": false,
      "t": 27529.39799999998,
      "d": 459.55859374999636,
      "v": 127
    },
    {
      "midi": 66,
      "hit": false,
      "t": 27529.39799999998,
      "d": 459.55859374999636,
      "v": 127
    },
    {
      "midi": 46,
      "hit": false,
      "t": 27882.338999999978,
      "d": 279.411624999997,
      "v": 127
    },
    {
      "midi": 34,
      "hit": false,
      "t": 27882.338999999978,
      "d": 294.11749999999665,
      "v": 127
    },
    {
      "midi": 63,
      "hit": false,
      "t": 28235.279999999973,
      "d": 514.7056249999987,
      "v": 127
    },
    {
      "midi": 68,
      "hit": false,
      "t": 28235.279999999973,
      "d": 514.7056249999987,
      "v": 127
    },
    {
      "midi": 60,
      "hit": false,
      "t": 28235.279999999973,
      "d": 529.4114999999983,
      "v": 127
    },
    {
      "midi": 44,
      "hit": false,
      "t": 28235.279999999973,
      "d": 919.1171874999964,
      "v": 127
    },
    {
      "midi": 32,
      "hit": false,
      "t": 28235.279999999973,
      "d": 933.823062499996,
      "v": 127
    },
    {
      "midi": 60,
      "hit": false,
      "t": 28941.16199999997,
      "d": 474.26446874999965,
      "v": 127
    },
    {
      "midi": 63,
      "hit": false,
      "t": 28941.16199999997,
      "d": 488.9703437499993,
      "v": 127
    },
    {
      "midi": 68,
      "hit": false,
      "t": 28941.16199999997,
      "d": 499.99974999999904,
      "v": 127
    },
    {
      "midi": 32,
      "hit": false,
      "t": 29294.10299999997,
      "d": 1378.6757812499964,
      "v": 127
    },
    {
      "midi": 44,
      "hit": false,
      "t": 29294.10299999997,
      "d": 1419.1169374999954,
      "v": 127
    },
    {
      "midi": 60,
      "hit": false,
      "t": 29647.04399999997,
      "d": 503.67621874999895,
      "v": 127
    },
    {
      "midi": 63,
      "hit": false,
      "t": 29647.04399999997,
      "d": 529.4114999999983,
      "v": 127
    },
    {
      "midi": 68,
      "hit": false,
      "t": 29647.04399999997,
      "d": 705.8819999999978,
      "v": 127
    },
    {
      "midi": 60,
      "hit": false,
      "t": 30352.925999999967,
      "d": 455.8821250000001,
      "v": 127
    },
    {
      "midi": 63,
      "hit": false,
      "t": 30352.925999999967,
      "d": 529.4114999999983,
      "v": 127
    },
    {
      "midi": 68,
      "hit": false,
      "t": 30352.925999999967,
      "d": 540.4409062499981,
      "v": 127
    },
    {
      "midi": 47,
      "hit": false,
      "t": 30705.866999999966,
      "d": 308.82337499999994,
      "v": 127
    },
    {
      "midi": 35,
      "hit": false,
      "t": 30705.866999999966,
      "d": 352.9409999999989,
      "v": 127
    },
    {
      "midi": 56,
      "hit": false,
      "t": 31058.807999999965,
      "d": 488.9703437499993,
      "v": 127
    },
    {
      "midi": 61,
      "hit": false,
      "t": 31058.807999999965,
      "d": 544.117374999998,
      "v": 127
    },
    {
      "midi": 65,
      "hit": false,
      "t": 31058.807999999965,
      "d": 544.117374999998,
      "v": 127
    },
    {
      "midi": 49,
      "hit": false,
      "t": 31058.807999999965,
      "d": 2238.9694687499978,
      "v": 127
    },
    {
      "midi": 37,
      "hit": false,
      "t": 31058.807999999965,
      "d": 2268.381218749997,
      "v": 127
    },
    {
      "midi": 56,
      "hit": false,
      "t": 31764.689999999962,
      "d": 499.99974999999904,
      "v": 127
    },
    {
      "midi": 61,
      "hit": false,
      "t": 31764.689999999962,
      "d": 555.1467812499977,
      "v": 127
    },
    {
      "midi": 65,
      "hit": false,
      "t": 31764.689999999962,
      "d": 555.1467812499977,
      "v": 127
    },
    {
      "midi": 56,
      "hit": false,
      "t": 32470.57199999996,
      "d": 374.999812500002,
      "v": 127
    },
    {
      "midi": 61,
      "hit": false,
      "t": 32470.57199999996,
      "d": 448.52918750000026,
      "v": 127
    },
    {
      "midi": 65,
      "hit": false,
      "t": 32470.57199999996,
      "d": 448.52918750000026,
      "v": 127
    },
    {
      "midi": 56,
      "hit": false,
      "t": 33176.45399999996,
      "d": 455.88212499999645,
      "v": 127
    },
    {
      "midi": 61,
      "hit": false,
      "t": 33176.45399999996,
      "d": 499.9997499999954,
      "v": 127
    },
    {
      "midi": 65,
      "hit": false,
      "t": 33176.45399999996,
      "d": 514.705624999995,
      "v": 127
    },
    {
      "midi": 61,
      "hit": false,
      "t": 33882.33599999996,
      "d": 529.411500000002,
      "v": 127
    },
    {
      "midi": 70,
      "hit": false,
      "t": 33882.33599999996,
      "d": 544.1173750000016,
      "v": 127
    },
    {
      "midi": 66,
      "hit": false,
      "t": 33882.33599999996,
      "d": 558.8232500000013,
      "v": 127
    },
    {
      "midi": 42,
      "hit": false,
      "t": 33882.33599999996,
      "d": 988.9700937499947,
      "v": 127
    },
    {
      "midi": 54,
      "hit": false,
      "t": 33882.33599999996,
      "d": 1003.6759687499944,
      "v": 127
    },
    {
      "midi": 61,
      "hit": false,
      "t": 34588.21799999996,
      "d": 499.9997499999954,
      "v": 127
    },
    {
      "midi": 70,
      "hit": false,
      "t": 34588.21799999996,
      "d": 514.705624999995,
      "v": 127
    },
    {
      "midi": 66,
      "hit": false,
      "t": 34588.21799999996,
      "d": 540.4409062499981,
      "v": 127
    },
    {
      "midi": 42,
      "hit": false,
      "t": 34941.158999999956,
      "d": 1338.2346250000046,
      "v": 127
    },
    {
      "midi": 54,
      "hit": false,
      "t": 34941.158999999956,
      "d": 1352.9405000000042,
      "v": 127
    },
    {
      "midi": 61,
      "hit": false,
      "t": 35294.099999999955,
      "d": 488.9703437499993,
      "v": 127
    },
    {
      "midi": 70,
      "hit": false,
      "t": 35294.099999999955,
      "d": 514.7056250000023,
      "v": 127
    },
    {
      "midi": 66,
      "hit": false,
      "t": 35294.099999999955,
      "d": 544.1173750000016,
      "v": 127
    },
    {
      "midi": 61,
      "hit": false,
      "t": 35999.98199999996,
      "d": 514.7056250000023,
      "v": 127
    },
    {
      "midi": 66,
      "hit": false,
      "t": 35999.98199999996,
      "d": 540.4409062500054,
      "v": 127
    },
    {
      "midi": 70,
      "hit": false,
      "t": 35999.98199999996,
      "d": 555.146781250005,
      "v": 127
    },
    {
      "midi": 54,
      "hit": false,
      "t": 36352.92299999996,
      "d": 246.32340625000506,
      "v": 127
    },
    {
      "midi": 42,
      "hit": false,
      "t": 36352.92299999996,
      "d": 290.441031250004,
      "v": 127
    },
    {
      "midi": 61,
      "hit": false,
      "t": 36705.863999999965,
      "d": 525.7350312499984,
      "v": 127
    },
    {
      "midi": 65,
      "hit": false,
      "t": 36705.863999999965,
      "d": 573.5291250000009,
      "v": 127
    },
    {
      "midi": 70,
      "hit": false,
      "t": 36705.863999999965,
      "d": 580.8820625000008,
      "v": 127
    },
    {
      "midi": 41,
      "hit": false,
      "t": 36705.863999999965,
      "d": 904.4113125000003,
      "v": 127
    },
    {
      "midi": 53,
      "hit": false,
      "t": 36705.863999999965,
      "d": 933.8230624999997,
      "v": 127
    },
    {
      "midi": 61,
      "hit": false,
      "t": 37411.74599999996,
      "d": 444.85271875000035,
      "v": 127
    },
    {
      "midi": 65,
      "hit": false,
      "t": 37411.74599999996,
      "d": 518.3820937499986,
      "v": 127
    },
    {
      "midi": 70,
      "hit": false,
      "t": 37411.74599999996,
      "d": 529.411500000002,
      "v": 127
    },
    {
      "midi": 41,
      "hit": false,
      "t": 37764.68699999996,
      "d": 599.264406250004,
      "v": 127
    },
    {
      "midi": 53,
      "hit": false,
      "t": 37764.68699999996,
      "d": 610.2938125000073,
      "v": 127
    },
    {
      "midi": 61,
      "hit": false,
      "t": 38117.62799999997,
      "d": 470.5879999999961,
      "v": 127
    },
    {
      "midi": 65,
      "hit": false,
      "t": 38117.62799999997,
      "d": 499.9997499999954,
      "v": 127
    },
    {
      "midi": 68,
      "hit": false,
      "t": 38117.62799999997,
      "d": 499.9997499999954,
      "v": 127
    },
    {
      "midi": 53,
      "hit": false,
      "t": 38470.56899999997,
      "d": 529.411500000002,
      "v": 127
    },
    {
      "midi": 41,
      "hit": false,
      "t": 38470.56899999997,
      "d": 588.2350000000006,
      "v": 127
    },
    {
      "midi": 61,
      "hit": false,
      "t": 38823.509999999966,
      "d": 503.67621874999895,
      "v": 127
    },
    {
      "midi": 68,
      "hit": false,
      "t": 38823.509999999966,
      "d": 529.411500000002,
      "v": 127
    },
    {
      "midi": 65,
      "hit": false,
      "t": 38823.509999999966,
      "d": 573.5291250000082,
      "v": 127
    },
    {
      "midi": 37,
      "hit": false,
      "t": 39176.450999999965,
      "d": 209.55871875000594,
      "v": 127
    },
    {
      "midi": 49,
      "hit": false,
      "t": 39176.450999999965,
      "d": 224.26459375001286,
      "v": 127
    },
    {
      "midi": 58,
      "hit": false,
      "t": 39529.39199999998,
      "d": 459.55859375,
      "v": 127
    },
    {
      "midi": 63,
      "hit": false,
      "t": 39529.39199999998,
      "d": 544.1173750000016,
      "v": 127
    },
    {
      "midi": 66,
      "hit": false,
      "t": 39529.39199999998,
      "d": 558.8232500000013,
      "v": 127
    },
    {
      "midi": 51,
      "hit": false,
      "t": 39529.39199999998,
      "d": 948.5289374999993,
      "v": 127
    },
    {
      "midi": 39,
      "hit": false,
      "t": 39529.39199999998,
      "d": 963.234812499999,
      "v": 127
    },
    {
      "midi": 58,
      "hit": false,
      "t": 40235.273999999976,
      "d": 474.26446874999965,
      "v": 127
    },
    {
      "midi": 63,
      "hit": false,
      "t": 40235.273999999976,
      "d": 555.1467812499977,
      "v": 127
    },
    {
      "midi": 66,
      "hit": false,
      "t": 40235.273999999976,
      "d": 555.1467812499977,
      "v": 127
    },
    {
      "midi": 39,
      "hit": false,
      "t": 40588.214999999975,
      "d": 1143.3817812499983,
      "v": 127
    },
    {
      "midi": 51,
      "hit": false,
      "t": 40588.214999999975,
      "d": 1169.1170625000013,
      "v": 127
    },
    {
      "midi": 58,
      "hit": false,
      "t": 40941.15599999997,
      "d": 503.67621874999895,
      "v": 127
    },
    {
      "midi": 63,
      "hit": false,
      "t": 40941.15599999997,
      "d": 558.8232500000013,
      "v": 127
    },
    {
      "midi": 66,
      "hit": false,
      "t": 40941.15599999997,
      "d": 573.5291250000009,
      "v": 127
    },
    {
      "midi": 58,
      "hit": false,
      "t": 41647.03799999997,
      "d": 459.5585937500073,
      "v": 127
    },
    {
      "midi": 63,
      "hit": false,
      "t": 41647.03799999997,
      "d": 529.4115000000093,
      "v": 127
    },
    {
      "midi": 66,
      "hit": false,
      "t": 41647.03799999997,
      "d": 529.4115000000093,
      "v": 127
    },
    {
      "midi": 39,
      "hit": false,
      "t": 41999.97899999998,
      "d": 224.2645937500056,
      "v": 127
    },
    {
      "midi": 51,
      "hit": false,
      "t": 41999.97899999998,
      "d": 224.2645937500056,
      "v": 127
    },
    {
      "midi": 58,
      "hit": false,
      "t": 42352.919999999984,
      "d": 499.9997500000027,
      "v": 127
    },
    {
      "midi": 66,
      "hit": false,
      "t": 42352.919999999984,
      "d": 511.02915625000605,
      "v": 127
    },
    {
      "midi": 62,
      "hit": false,
      "t": 42352.919999999984,
      "d": 555.146781250005,
      "v": 127
    },
    {
      "midi": 38,
      "hit": false,
      "t": 42352.919999999984,
      "d": 893.3819062500042,
      "v": 127
    },
    {
      "midi": 50,
      "hit": false,
      "t": 42352.919999999984,
      "d": 948.5289375000066,
      "v": 127
    },
    {
      "midi": 58,
      "hit": false,
      "t": 43058.80199999999,
      "d": 459.55859375,
      "v": 127
    },
    {
      "midi": 66,
      "hit": false,
      "t": 43058.80199999999,
      "d": 485.293875000003,
      "v": 127
    },
    {
      "midi": 62,
      "hit": false,
      "t": 43058.80199999999,
      "d": 544.1173750000016,
      "v": 127
    },
    {
      "midi": 38,
      "hit": false,
      "t": 43411.74299999999,
      "d": 636.0290937500031,
      "v": 127
    },
    {
      "midi": 50,
      "hit": false,
      "t": 43411.74299999999,
      "d": 665.4408437500024,
      "v": 127
    },
    {
      "midi": 58,
      "hit": false,
      "t": 43764.683999999994,
      "d": 544.1173750000016,
      "v": 127
    },
    {
      "midi": 65,
      "hit": false,
      "t": 43764.683999999994,
      "d": 584.5585312500043,
      "v": 127
    },
    {
      "midi": 62,
      "hit": false,
      "t": 43764.683999999994,
      "d": 639.7055625000066,
      "v": 127
    },
    {
      "midi": 50,
      "hit": false,
      "t": 44117.62499999999,
      "d": 555.146781250005,
      "v": 127
    },
    {
      "midi": 38,
      "hit": false,
      "t": 44117.62499999999,
      "d": 599.264406250004,
      "v": 127
    },
    {
      "midi": 58,
      "hit": false,
      "t": 44470.566,
      "d": 488.9703437499993,
      "v": 127
    },
    {
      "midi": 62,
      "hit": false,
      "t": 44470.566,
      "d": 525.7350312499984,
      "v": 127
    },
    {
      "midi": 65,
      "hit": false,
      "t": 44470.566,
      "d": 599.2644062499967,
      "v": 127
    },
    {
      "midi": 34,
      "hit": false,
      "t": 44823.507,
      "d": 249.99987500000134,
      "v": 127
    },
    {
      "midi": 46,
      "hit": false,
      "t": 44823.507,
      "d": 264.705750000001,
      "v": 127
    },
    {
      "midi": 54,
      "hit": false,
      "t": 45176.448,
      "d": 433.823312499997,
      "v": 127
    },
    {
      "midi": 59,
      "hit": false,
      "t": 45176.448,
      "d": 499.9997499999954,
      "v": 127
    },
    {
      "midi": 63,
      "hit": false,
      "t": 45176.448,
      "d": 499.9997499999954,
      "v": 127
    },
    {
      "midi": 35,
      "hit": false,
      "t": 45176.448,
      "d": 926.4701249999998,
      "v": 127
    },
    {
      "midi": 47,
      "hit": false,
      "t": 45176.448,
      "d": 941.1759999999995,
      "v": 127
    },
    {
      "midi": 54,
      "hit": false,
      "t": 45882.329999999994,
      "d": 499.9997499999954,
      "v": 127
    },
    {
      "midi": 59,
      "hit": false,
      "t": 45882.329999999994,
      "d": 544.1173749999944,
      "v": 127
    },
    {
      "midi": 63,
      "hit": false,
      "t": 45882.329999999994,
      "d": 544.1173749999944,
      "v": 127
    },
    {
      "midi": 47,
      "hit": false,
      "t": 46235.27099999999,
      "d": 1529.4110000000073,
      "v": 127
    },
    {
      "midi": 35,
      "hit": false,
      "t": 46235.27099999999,
      "d": 1599.2639062500093,
      "v": 127
    },
    {
      "midi": 54,
      "hit": false,
      "t": 46588.21199999999,
      "d": 488.9703437499993,
      "v": 127
    },
    {
      "midi": 63,
      "hit": false,
      "t": 46588.21199999999,
      "d": 514.7056250000023,
      "v": 127
    },
    {
      "midi": 59,
      "hit": false,
      "t": 46588.21199999999,
      "d": 529.411500000002,
      "v": 127
    },
    {
      "midi": 54,
      "hit": false,
      "t": 47294.094,
      "d": 463.23506250000355,
      "v": 127
    },
    {
      "midi": 59,
      "hit": false,
      "t": 47294.094,
      "d": 499.9997500000027,
      "v": 127
    },
    {
      "midi": 63,
      "hit": false,
      "t": 47294.094,
      "d": 529.411500000002,
      "v": 127
    },
    {
      "midi": 58,
      "hit": false,
      "t": 47999.976,
      "d": 573.5291250000009,
      "v": 127
    },
    {
      "midi": 61,
      "hit": false,
      "t": 47999.976,
      "d": 610.2938125000001,
      "v": 127
    },
    {
      "midi": 66,
      "hit": false,
      "t": 47999.976,
      "d": 610.2938125000001,
      "v": 127
    },
    {
      "midi": 46,
      "hit": false,
      "t": 47999.976,
      "d": 988.9700937499947,
      "v": 127
    },
    {
      "midi": 61,
      "hit": false,
      "t": 48705.858,
      "d": 474.26446874999965,
      "v": 127
    },
    {
      "midi": 58,
      "hit": false,
      "t": 48705.858,
      "d": 485.293875000003,
      "v": 127
    },
    {
      "midi": 66,
      "hit": false,
      "t": 48705.858,
      "d": 529.411500000002,
      "v": 127
    },
    {
      "midi": 46,
      "hit": false,
      "t": 49058.799,
      "d": 209.55871875000594,
      "v": 127
    },
    {
      "midi": 44,
      "hit": false,
      "t": 49235.2695,
      "d": 180.14696875000664,
      "v": 127
    },
    {
      "midi": 54,
      "hit": false,
      "t": 49411.740000000005,
      "d": 610.2938125000001,
      "v": 127
    },
    {
      "midi": 58,
      "hit": false,
      "t": 49411.740000000005,
      "d": 650.7349687500027,
      "v": 127
    },
    {
      "midi": 61,
      "hit": false,
      "t": 49411.740000000005,
      "d": 650.7349687500027,
      "v": 127
    },
    {
      "midi": 42,
      "hit": false,
      "t": 49411.740000000005,
      "d": 944.852468750003,
      "v": 127
    },
    {
      "midi": 54,
      "hit": false,
      "t": 50117.62200000001,
      "d": 529.411500000002,
      "v": 127
    },
    {
      "midi": 58,
      "hit": false,
      "t": 50117.62200000001,
      "d": 569.8526562500047,
      "v": 127
    },
    {
      "midi": 61,
      "hit": false,
      "t": 50117.62200000001,
      "d": 580.882062500008,
      "v": 127
    },
    {
      "midi": 42,
      "hit": false,
      "t": 50470.56300000001,
      "d": 404.41156250000495,
      "v": 127
    },
    {
      "midi": 56,
      "hit": false,
      "t": 50823.504000000015,
      "d": 540.4409062499981,
      "v": 127
    },
    {
      "midi": 60,
      "hit": false,
      "t": 50823.504000000015,
      "d": 595.5879375000004,
      "v": 127
    },
    {
      "midi": 63,
      "hit": false,
      "t": 50823.504000000015,
      "d": 595.5879375000004,
      "v": 127
    },
    {
      "midi": 44,
      "hit": false,
      "t": 50823.504000000015,
      "d": 1018.3818437500013,
      "v": 127
    },
    {
      "midi": 63,
      "hit": false,
      "t": 51529.38600000001,
      "d": 584.5585312500116,
      "v": 127
    },
    {
      "midi": 60,
      "hit": false,
      "t": 51529.38600000001,
      "d": 628.6761562500105,
      "v": 127
    },
    {
      "midi": 56,
      "hit": false,
      "t": 51529.38600000001,
      "d": 705.8820000000123,
      "v": 127
    },
    {
      "midi": 46,
      "hit": false,
      "t": 51882.32700000002,
      "d": 224.2645937500056,
      "v": 127
    },
    {
      "midi": 47,
      "hit": false,
      "t": 52058.79750000002,
      "d": 220.58812500000204,
      "v": 127
    },
    {
      "midi": 56,
      "hit": false,
      "t": 52235.268000000025,
      "d": 573.5291250000009,
      "v": 127
    },
    {
      "midi": 63,
      "hit": false,
      "t": 52235.268000000025,
      "d": 613.9702812500036,
      "v": 127
    },
    {
      "midi": 60,
      "hit": false,
      "t": 52235.268000000025,
      "d": 643.3820312500029,
      "v": 127
    },
    {
      "midi": 48,
      "hit": false,
      "t": 52235.268000000025,
      "d": 1029.4112500000047,
      "v": 127
    },
    {
      "midi": 56,
      "hit": false,
      "t": 52941.15000000003,
      "d": 444.85271875000035,
      "v": 127
    },
    {
      "midi": 63,
      "hit": false,
      "t": 52941.15000000003,
      "d": 485.293875000003,
      "v": 127
    },
    {
      "midi": 60,
      "hit": false,
      "t": 52941.15000000003,
      "d": 499.9997500000027,
      "v": 127
    },
    {
      "midi": 48,
      "hit": false,
      "t": 53294.09100000003,
      "d": 334.55865625000297,
      "v": 127
    },
    {
      "midi": 56,
      "hit": false,
      "t": 53647.032000000036,
      "d": 529.411500000002,
      "v": 127
    },
    {
      "midi": 65,
      "hit": false,
      "t": 53647.032000000036,
      "d": 580.8820625000008,
      "v": 127
    },
    {
      "midi": 61,
      "hit": false,
      "t": 53647.032000000036,
      "d": 584.5585312500043,
      "v": 127
    },
    {
      "midi": 49,
      "hit": false,
      "t": 53647.032000000036,
      "d": 2411.763500000008,
      "v": 127
    },
    {
      "midi": 56,
      "hit": false,
      "t": 54352.91400000004,
      "d": 555.1467812499977,
      "v": 127
    },
    {
      "midi": 61,
      "hit": false,
      "t": 54352.91400000004,
      "d": 613.9702812499963,
      "v": 127
    },
    {
      "midi": 65,
      "hit": false,
      "t": 54352.91400000004,
      "d": 636.0290937499958,
      "v": 127
    },
    {
      "midi": 56,
      "hit": false,
      "t": 55058.79600000004,
      "d": 529.411500000002,
      "v": 127
    },
    {
      "midi": 63,
      "hit": false,
      "t": 55058.79600000004,
      "d": 569.8526562500047,
      "v": 127
    },
    {
      "midi": 65,
      "hit": false,
      "t": 55058.79600000004,
      "d": 613.9702812500036,
      "v": 127
    },
    {
      "midi": 56,
      "hit": false,
      "t": 55764.67800000004,
      "d": 389.705687499998,
      "v": 127
    },
    {
      "midi": 61,
      "hit": false,
      "t": 55764.67800000004,
      "d": 448.5291874999966,
      "v": 127
    },
    {
      "midi": 65,
      "hit": false,
      "t": 55764.67800000004,
      "d": 448.5291874999966,
      "v": 127
    },
    {
      "midi": 41,
      "hit": false,
      "t": 56470.56000000004,
      "d": 944.852468750003,
      "v": 127
    },
    {
      "midi": 53,
      "hit": false,
      "t": 56470.56000000004,
      "d": 959.5583437500027,
      "v": 127
    },
    {
      "midi": 61,
      "hit": false,
      "t": 56470.56000000004,
      "d": 985.2936250000057,
      "v": 127
    },
    {
      "midi": 65,
      "hit": false,
      "t": 56470.56000000004,
      "d": 999.9995000000054,
      "v": 127
    },
    {
      "midi": 68,
      "hit": false,
      "t": 56470.56000000004,
      "d": 1014.705375000005,
      "v": 127
    },
    {
      "midi": 54,
      "hit": false,
      "t": 57529.383000000045,
      "d": 1518.3815937499967,
      "v": 127
    },
    {
      "midi": 66,
      "hit": false,
      "t": 57529.383000000045,
      "d": 1518.3815937499967,
      "v": 127
    },
    {
      "midi": 42,
      "hit": false,
      "t": 57529.383000000045,
      "d": 1529.411,
      "v": 127
    },
    {
      "midi": 61,
      "hit": false,
      "t": 57529.383000000045,
      "d": 1533.0874687500036,
      "v": 127
    },
    {
      "midi": 70,
      "hit": false,
      "t": 57529.383000000045,
      "d": 1558.8227500000066,
      "v": 127
    },
    {
      "midi": 65,
      "hit": false,
      "t": 59294.088000000054,
      "d": 849.264281249998,
      "v": 127
    },
    {
      "midi": 41,
      "hit": false,
      "t": 59294.088000000054,
      "d": 860.2936875000014,
      "v": 127
    },
    {
      "midi": 61,
      "hit": false,
      "t": 59294.088000000054,
      "d": 867.6466250000012,
      "v": 127
    },
    {
      "midi": 53,
      "hit": false,
      "t": 59294.088000000054,
      "d": 919.1171875,
      "v": 127
    },
    {
      "midi": 68,
      "hit": false,
      "t": 59294.088000000054,
      "d": 919.1171875,
      "v": 127
    },
    {
      "midi": 54,
      "hit": false,
      "t": 60352.91100000005,
      "d": 1367.6463749999966,
      "v": 127
    },
    {
      "midi": 42,
      "hit": false,
      "t": 60352.91100000005,
      "d": 1393.3816562499997,
      "v": 127
    },
    {
      "midi": 66,
      "hit": false,
      "t": 60352.91100000005,
      "d": 1474.2639687499977,
      "v": 127
    },
    {
      "midi": 70,
      "hit": false,
      "t": 60352.91100000005,
      "d": 1488.9698437499974,
      "v": 127
    },
    {
      "midi": 61,
      "hit": false,
      "t": 60352.91100000005,
      "d": 1533.0874687499963,
      "v": 127
    },
    {
      "midi": 34,
      "hit": false,
      "t": 62117.616000000045,
      "d": 834.5584062499984,
      "v": 127
    },
    {
      "midi": 46,
      "hit": false,
      "t": 62117.616000000045,
      "d": 889.7054375000007,
      "v": 127
    },
    {
      "midi": 61,
      "hit": false,
      "t": 62117.616000000045,
      "d": 919.1171875,
      "v": 127
    },
    {
      "midi": 70,
      "hit": false,
      "t": 62117.616000000045,
      "d": 944.852468750003,
      "v": 127
    },
    {
      "midi": 65,
      "hit": false,
      "t": 62117.616000000045,
      "d": 959.5583437500027,
      "v": 127
    },
    {
      "midi": 71,
      "hit": false,
      "t": 63176.43900000005,
      "d": 1249.9993749999994,
      "v": 127
    },
    {
      "midi": 63,
      "hit": false,
      "t": 63176.43900000005,
      "d": 1279.4111249999987,
      "v": 127
    },
    {
      "midi": 66,
      "hit": false,
      "t": 63176.43900000005,
      "d": 1279.4111249999987,
      "v": 127
    },
    {
      "midi": 35,
      "hit": false,
      "t": 63176.43900000005,
      "d": 1363.9699062500003,
      "v": 127
    },
    {
      "midi": 47,
      "hit": false,
      "t": 63176.43900000005,
      "d": 1433.8228125000023,
      "v": 127
    },
    {
      "midi": 37,
      "hit": false,
      "t": 64941.14400000005,
      "d": 893.3819062500042,
      "v": 127
    },
    {
      "midi": 49,
      "hit": false,
      "t": 64941.14400000005,
      "d": 919.1171875000073,
      "v": 127
    },
    {
      "midi": 56,
      "hit": false,
      "t": 64941.14400000005,
      "d": 933.8230625000069,
      "v": 127
    },
    {
      "midi": 61,
      "hit": false,
      "t": 64941.14400000005,
      "d": 944.8524687500103,
      "v": 127
    },
    {
      "midi": 66,
      "hit": false,
      "t": 64941.14400000005,
      "d": 944.8524687500103,
      "v": 127
    },
    {
      "midi": 37,
      "hit": false,
      "t": 65999.96700000006,
      "d": 1242.6464375000069,
      "v": 127
    },
    {
      "midi": 56,
      "hit": false,
      "t": 65999.96700000006,
      "d": 1253.6758437500102,
      "v": 127
    },
    {
      "midi": 49,
      "hit": false,
      "t": 65999.96700000006,
      "d": 1294.117000000013,
      "v": 127
    },
    {
      "midi": 65,
      "hit": false,
      "t": 65999.96700000006,
      "d": 1294.117000000013,
      "v": 127
    },
    {
      "midi": 61,
      "hit": false,
      "t": 65999.96700000006,
      "d": 1297.7934687500092,
      "v": 127
    },
    {
      "midi": 53,
      "hit": false,
      "t": 67764.67200000008,
      "d": 264.7057499999937,
      "v": 127
    },
    {
      "midi": 61,
      "hit": false,
      "t": 67764.67200000008,
      "d": 485.2938749999885,
      "v": 127
    },
    {
      "midi": 68,
      "hit": false,
      "t": 67764.67200000008,
      "d": 551.4703124999942,
      "v": 127
    },
    {
      "midi": 65,
      "hit": false,
      "t": 67764.67200000008,
      "d": 624.9996874999924,
      "v": 127
    },
    {
      "midi": 41,
      "hit": false,
      "t": 67764.67200000008,
      "d": 849.264281249998,
      "v": 127
    },
    {
      "midi": 53,
      "hit": false,
      "t": 68117.61300000007,
      "d": 599.264406250004,
      "v": 127
    },
    {
      "midi": 61,
      "hit": false,
      "t": 68470.55400000008,
      "d": 294.117499999993,
      "v": 127
    },
    {
      "midi": 70,
      "hit": false,
      "t": 68823.49500000007,
      "d": 613.9702812500036,
      "v": 127
    },
    {
      "midi": 66,
      "hit": false,
      "t": 68823.49500000007,
      "d": 639.7055625000066,
      "v": 127
    },
    {
      "midi": 54,
      "hit": false,
      "t": 68823.49500000007,
      "d": 1422.7934062500135,
      "v": 127
    },
    {
      "midi": 42,
      "hit": false,
      "t": 68823.49500000007,
      "d": 1533.0874687500182,
      "v": 127
    },
    {
      "midi": 61,
      "hit": false,
      "t": 68823.49500000007,
      "d": 1558.8227500000212,
      "v": 127
    },
    {
      "midi": 70,
      "hit": false,
      "t": 69529.37700000008,
      "d": 933.8230624999997,
      "v": 127
    },
    {
      "midi": 66,
      "hit": false,
      "t": 70235.25900000008,
      "d": 209.55871875000594,
      "v": 127
    },
    {
      "midi": 54,
      "hit": false,
      "t": 70411.72950000009,
      "d": 99.26465624998673,
      "v": 127
    },
    {
      "midi": 61,
      "hit": false,
      "t": 70588.20000000007,
      "d": 275.7351562499971,
      "v": 127
    },
    {
      "midi": 68,
      "hit": false,
      "t": 70588.20000000007,
      "d": 319.85278124999604,
      "v": 127
    },
    {
      "midi": 65,
      "hit": false,
      "t": 70588.20000000007,
      "d": 334.5586562499957,
      "v": 127
    },
    {
      "midi": 41,
      "hit": false,
      "t": 70588.20000000007,
      "d": 849.264281249998,
      "v": 127
    },
    {
      "midi": 53,
      "hit": false,
      "t": 70588.20000000007,
      "d": 919.1171875,
      "v": 127
    },
    {
      "midi": 61,
      "hit": false,
      "t": 70941.14100000006,
      "d": 613.9702812500036,
      "v": 127
    },
    {
      "midi": 68,
      "hit": false,
      "t": 71294.08200000007,
      "d": 279.41162499999336,
      "v": 127
    },
    {
      "midi": 54,
      "hit": false,
      "t": 71647.02300000006,
      "d": 985.2936250000057,
      "v": 127
    },
    {
      "midi": 61,
      "hit": false,
      "t": 71647.02300000006,
      "d": 1154.411187500009,
      "v": 127
    },
    {
      "midi": 70,
      "hit": false,
      "t": 71647.02300000006,
      "d": 1330.8816875000193,
      "v": 127
    },
    {
      "midi": 42,
      "hit": false,
      "t": 71647.02300000006,
      "d": 1363.969906250015,
      "v": 127
    },
    {
      "midi": 66,
      "hit": false,
      "t": 71647.02300000006,
      "d": 1363.969906250015,
      "v": 127
    },
    {
      "midi": 54,
      "hit": false,
      "t": 72705.84600000006,
      "d": 249.99987500000861,
      "v": 127
    },
    {
      "midi": 61,
      "hit": false,
      "t": 73058.78700000007,
      "d": 319.85278124999604,
      "v": 127
    },
    {
      "midi": 34,
      "hit": false,
      "t": 73411.72800000006,
      "d": 904.4113125000003,
      "v": 127
    },
    {
      "midi": 46,
      "hit": false,
      "t": 73411.72800000006,
      "d": 908.0877812499966,
      "v": 127
    },
    {
      "midi": 61,
      "hit": false,
      "t": 73411.72800000006,
      "d": 908.0877812499966,
      "v": 127
    },
    {
      "midi": 70,
      "hit": false,
      "t": 73411.72800000006,
      "d": 930.1465937500034,
      "v": 127
    },
    {
      "midi": 65,
      "hit": false,
      "t": 73411.72800000006,
      "d": 941.1760000000068,
      "v": 127
    },
    {
      "midi": 66,
      "hit": false,
      "t": 74470.55100000006,
      "d": 613.9702812500036,
      "v": 127
    },
    {
      "midi": 63,
      "hit": false,
      "t": 74470.55100000006,
      "d": 904.4113125000003,
      "v": 127
    },
    {
      "midi": 47,
      "hit": false,
      "t": 74470.55100000006,
      "d": 1143.3817812500056,
      "v": 127
    },
    {
      "midi": 71,
      "hit": false,
      "t": 74470.55100000006,
      "d": 1323.5287500000122,
      "v": 127
    },
    {
      "midi": 35,
      "hit": false,
      "t": 74470.55100000006,
      "d": 1367.6463750000112,
      "v": 127
    },
    {
      "midi": 66,
      "hit": false,
      "t": 75176.43300000006,
      "d": 404.4115625000122,
      "v": 127
    },
    {
      "midi": 63,
      "hit": false,
      "t": 75529.37400000007,
      "d": 360.29393750001327,
      "v": 127
    },
    {
      "midi": 47,
      "hit": false,
      "t": 75882.31500000008,
      "d": 264.70575000000827,
      "v": 127
    },
    {
      "midi": 56,
      "hit": false,
      "t": 76235.25600000008,
      "d": 944.852468750003,
      "v": 127
    },
    {
      "midi": 61,
      "hit": false,
      "t": 76235.25600000008,
      "d": 1014.705375000005,
      "v": 127
    },
    {
      "midi": 66,
      "hit": false,
      "t": 76235.25600000008,
      "d": 1029.4112500000047,
      "v": 127
    },
    {
      "midi": 37,
      "hit": false,
      "t": 76235.25600000008,
      "d": 1158.0876562500052,
      "v": 127
    },
    {
      "midi": 49,
      "hit": false,
      "t": 76235.25600000008,
      "d": 1209.5582187500113,
      "v": 127
    },
    {
      "midi": 56,
      "hit": false,
      "t": 77294.07900000009,
      "d": 294.11750000000757,
      "v": 127
    },
    {
      "midi": 37,
      "hit": false,
      "t": 77647.02000000009,
      "d": 1029.4112500000047,
      "v": 127
    },
    {
      "midi": 56,
      "hit": false,
      "t": 77647.02000000009,
      "d": 1029.4112500000047,
      "v": 127
    },
    {
      "midi": 61,
      "hit": false,
      "t": 77647.02000000009,
      "d": 1040.440656250008,
      "v": 127
    },
    {
      "midi": 65,
      "hit": false,
      "t": 77647.02000000009,
      "d": 1069.8524062500073,
      "v": 127
    },
    {
      "midi": 49,
      "hit": false,
      "t": 77647.02000000009,
      "d": 1084.558281250007,
      "v": 127
    },
    {
      "midi": 61,
      "hit": false,
      "t": 79058.7840000001,
      "d": 514.7056250000023,
      "v": 127
    },
    {
      "midi": 66,
      "hit": false,
      "t": 79058.7840000001,
      "d": 584.5585312500043,
      "v": 127
    },
    {
      "midi": 70,
      "hit": false,
      "t": 79058.7840000001,
      "d": 584.5585312500043,
      "v": 127
    },
    {
      "midi": 42,
      "hit": false,
      "t": 79058.7840000001,
      "d": 878.6760312499973,
      "v": 127
    },
    {
      "midi": 54,
      "hit": false,
      "t": 79058.7840000001,
      "d": 878.6760312499973,
      "v": 127
    },
    {
      "midi": 61,
      "hit": false,
      "t": 79764.6660000001,
      "d": 599.264406250004,
      "v": 127
    },
    {
      "midi": 66,
      "hit": false,
      "t": 79764.6660000001,
      "d": 624.999687500007,
      "v": 127
    },
    {
      "midi": 70,
      "hit": false,
      "t": 79764.6660000001,
      "d": 624.999687500007,
      "v": 127
    },
    {
      "midi": 42,
      "hit": false,
      "t": 80117.6070000001,
      "d": 249.99987499999406,
      "v": 127
    },
    {
      "midi": 54,
      "hit": false,
      "t": 80117.6070000001,
      "d": 249.99987499999406,
      "v": 127
    },
    {
      "midi": 61,
      "hit": false,
      "t": 80470.54800000011,
      "d": 558.8232500000013,
      "v": 127
    },
    {
      "midi": 66,
      "hit": false,
      "t": 80470.54800000011,
      "d": 610.2938125000073,
      "v": 127
    },
    {
      "midi": 70,
      "hit": false,
      "t": 80470.54800000011,
      "d": 621.3232187500107,
      "v": 127
    },
    {
      "midi": 54,
      "hit": false,
      "t": 80470.54800000011,
      "d": 805.1466562500136,
      "v": 127
    },
    {
      "midi": 42,
      "hit": false,
      "t": 80470.54800000011,
      "d": 808.8231250000099,
      "v": 127
    },
    {
      "midi": 61,
      "hit": false,
      "t": 81176.43000000012,
      "d": 323.5292499999923,
      "v": 127
    },
    {
      "midi": 66,
      "hit": false,
      "t": 81176.43000000012,
      "d": 448.5291874999966,
      "v": 127
    },
    {
      "midi": 70,
      "hit": false,
      "t": 81176.43000000012,
      "d": 448.5291874999966,
      "v": 127
    },
    {
      "midi": 61,
      "hit": false,
      "t": 81529.37100000012,
      "d": 110.29406250000466,
      "v": 127
    },
    {
      "midi": 54,
      "hit": false,
      "t": 81529.37100000012,
      "d": 165.44109375000698,
      "v": 127
    },
    {
      "midi": 42,
      "hit": false,
      "t": 81529.37100000012,
      "d": 180.14696875000664,
      "v": 127
    },
    {
      "midi": 61,
      "hit": false,
      "t": 81882.31200000012,
      "d": 599.264406250004,
      "v": 127
    },
    {
      "midi": 68,
      "hit": false,
      "t": 81882.31200000012,
      "d": 639.7055625000066,
      "v": 127
    },
    {
      "midi": 65,
      "hit": false,
      "t": 81882.31200000012,
      "d": 654.4114375000063,
      "v": 127
    },
    {
      "midi": 37,
      "hit": false,
      "t": 81882.31200000012,
      "d": 834.5584062500129,
      "v": 127
    },
    {
      "midi": 49,
      "hit": false,
      "t": 81882.31200000012,
      "d": 849.2642812500126,
      "v": 127
    },
    {
      "midi": 61,
      "hit": false,
      "t": 82588.19400000013,
      "d": 588.2350000000006,
      "v": 127
    },
    {
      "midi": 65,
      "hit": false,
      "t": 82588.19400000013,
      "d": 610.2938124999928,
      "v": 127
    },
    {
      "midi": 68,
      "hit": false,
      "t": 82588.19400000013,
      "d": 624.9996874999924,
      "v": 127
    },
    {
      "midi": 37,
      "hit": false,
      "t": 82941.13500000014,
      "d": 253.67634374999034,
      "v": 127
    },
    {
      "midi": 49,
      "hit": false,
      "t": 82941.13500000014,
      "d": 253.67634374999034,
      "v": 127
    },
    {
      "midi": 61,
      "hit": false,
      "t": 83294.07600000013,
      "d": 540.4409062500054,
      "v": 127
    },
    {
      "midi": 65,
      "hit": false,
      "t": 83294.07600000013,
      "d": 580.882062500008,
      "v": 127
    },
    {
      "midi": 68,
      "hit": false,
      "t": 83294.07600000013,
      "d": 580.882062500008,
      "v": 127
    },
    {
      "midi": 37,
      "hit": false,
      "t": 83294.07600000013,
      "d": 805.1466562500136,
      "v": 127
    },
    {
      "midi": 49,
      "hit": false,
      "t": 83294.07600000013,
      "d": 805.1466562500136,
      "v": 127
    },
    {
      "midi": 61,
      "hit": false,
      "t": 83999.95800000014,
      "d": 374.9998125000129,
      "v": 127
    },
    {
      "midi": 68,
      "hit": false,
      "t": 83999.95800000014,
      "d": 474.2644687500142,
      "v": 127
    },
    {
      "midi": 65,
      "hit": false,
      "t": 83999.95800000014,
      "d": 485.2938750000176,
      "v": 127
    },
    {
      "midi": 37,
      "hit": false,
      "t": 84352.89900000015,
      "d": 205.88225000000966,
      "v": 127
    },
    {
      "midi": 49,
      "hit": false,
      "t": 84352.89900000015,
      "d": 205.88225000000966,
      "v": 127
    },
    {
      "midi": 61,
      "hit": false,
      "t": 84529.36950000016,
      "d": 113.97053125000093,
      "v": 127
    },
    {
      "midi": 59,
      "hit": false,
      "t": 84705.84000000016,
      "d": 569.8526562500047,
      "v": 127
    },
    {
      "midi": 66,
      "hit": false,
      "t": 84705.84000000016,
      "d": 643.3820312500029,
      "v": 127
    },
    {
      "midi": 63,
      "hit": false,
      "t": 84705.84000000016,
      "d": 654.4114375000063,
      "v": 127
    },
    {
      "midi": 35,
      "hit": false,
      "t": 84705.84000000016,
      "d": 834.5584062500129,
      "v": 127
    },
    {
      "midi": 47,
      "hit": false,
      "t": 84705.84000000016,
      "d": 860.293687500016,
      "v": 127
    },
    {
      "midi": 59,
      "hit": false,
      "t": 85411.72200000017,
      "d": 610.2938125000073,
      "v": 127
    },
    {
      "midi": 63,
      "hit": false,
      "t": 85411.72200000017,
      "d": 639.7055625000212,
      "v": 127
    },
    {
      "midi": 66,
      "hit": false,
      "t": 85411.72200000017,
      "d": 639.7055625000212,
      "v": 127
    },
    {
      "midi": 35,
      "hit": false,
      "t": 85764.66300000018,
      "d": 224.2645937500056,
      "v": 127
    },
    {
      "midi": 47,
      "hit": false,
      "t": 85764.66300000018,
      "d": 264.70575000000827,
      "v": 127
    },
    {
      "midi": 59,
      "hit": false,
      "t": 86117.6040000002,
      "d": 555.146781250005,
      "v": 127
    },
    {
      "midi": 63,
      "hit": false,
      "t": 86117.6040000002,
      "d": 599.264406250004,
      "v": 127
    },
    {
      "midi": 66,
      "hit": false,
      "t": 86117.6040000002,
      "d": 610.2938125000073,
      "v": 127
    },
    {
      "midi": 35,
      "hit": false,
      "t": 86117.6040000002,
      "d": 794.1172500000102,
      "v": 127
    },
    {
      "midi": 47,
      "hit": false,
      "t": 86117.6040000002,
      "d": 805.1466562500136,
      "v": 127
    },
    {
      "midi": 59,
      "hit": false,
      "t": 86823.48600000021,
      "d": 400.7350937500014,
      "v": 127
    },
    {
      "midi": 63,
      "hit": false,
      "t": 86823.48600000021,
      "d": 444.85271875000035,
      "v": 127
    },
    {
      "midi": 66,
      "hit": false,
      "t": 86823.48600000021,
      "d": 459.55859375,
      "v": 127
    },
    {
      "midi": 35,
      "hit": false,
      "t": 87176.42700000021,
      "d": 235.2939999999944,
      "v": 127
    },
    {
      "midi": 47,
      "hit": false,
      "t": 87176.42700000021,
      "d": 264.7057499999937,
      "v": 127
    },
    {
      "midi": 61,
      "hit": false,
      "t": 87529.3680000002,
      "d": 628.6761562500033,
      "v": 127
    },
    {
      "midi": 66,
      "hit": false,
      "t": 87529.3680000002,
      "d": 669.1173125000059,
      "v": 127
    },
    {
      "midi": 68,
      "hit": false,
      "t": 87529.3680000002,
      "d": 669.1173125000059,
      "v": 127
    },
    {
      "midi": 49,
      "hit": false,
      "t": 87529.3680000002,
      "d": 948.5289375000139,
      "v": 127
    },
    {
      "midi": 37,
      "hit": false,
      "t": 87529.3680000002,
      "d": 2147.057750000007,
      "v": 127
    },
    {
      "midi": 66,
      "hit": false,
      "t": 88235.25000000022,
      "d": 514.7056250000023,
      "v": 127
    },
    {
      "midi": 61,
      "hit": false,
      "t": 88235.25000000022,
      "d": 529.411500000002,
      "v": 127
    },
    {
      "midi": 68,
      "hit": false,
      "t": 88235.25000000022,
      "d": 544.1173750000016,
      "v": 127
    },
    {
      "midi": 49,
      "hit": false,
      "t": 88588.19100000022,
      "d": 1099.264156249992,
      "v": 127
    },
    {
      "midi": 61,
      "hit": false,
      "t": 88941.13200000022,
      "d": 514.7056250000023,
      "v": 127
    },
    {
      "midi": 65,
      "hit": false,
      "t": 88941.13200000022,
      "d": 584.5585312500043,
      "v": 127
    },
    {
      "midi": 68,
      "hit": false,
      "t": 88941.13200000022,
      "d": 584.5585312500043,
      "v": 127
    },
    {
      "midi": 61,
      "hit": false,
      "t": 89647.01400000021,
      "d": 330.8821874999994,
      "v": 127
    },
    {
      "midi": 65,
      "hit": false,
      "t": 89647.01400000021,
      "d": 470.5880000000034,
      "v": 127
    },
    {
      "midi": 68,
      "hit": false,
      "t": 89647.01400000021,
      "d": 485.293875000003,
      "v": 127
    },
    {
      "midi": 37,
      "hit": false,
      "t": 89999.95500000022,
      "d": 194.85284374999173,
      "v": 127
    },
    {
      "midi": 49,
      "hit": false,
      "t": 89999.95500000022,
      "d": 224.26459374999104,
      "v": 127
    },
    {
      "midi": 61,
      "hit": false,
      "t": 90176.42550000022,
      "d": 113.97053125000093,
      "v": 127
    },
    {
      "midi": 61,
      "hit": false,
      "t": 90352.89600000021,
      "d": 540.4409062500054,
      "v": 127
    },
    {
      "midi": 70,
      "hit": false,
      "t": 90352.89600000021,
      "d": 584.5585312500043,
      "v": 127
    },
    {
      "midi": 66,
      "hit": false,
      "t": 90352.89600000021,
      "d": 599.264406250004,
      "v": 127
    },
    {
      "midi": 42,
      "hit": false,
      "t": 90352.89600000021,
      "d": 819.8525312499987,
      "v": 127
    },
    {
      "midi": 54,
      "hit": false,
      "t": 90352.89600000021,
      "d": 845.5878125000017,
      "v": 127
    },
    {
      "midi": 61,
      "hit": false,
      "t": 91058.77800000021,
      "d": 599.264406250004,
      "v": 127
    },
    {
      "midi": 66,
      "hit": false,
      "t": 91058.77800000021,
      "d": 628.6761562500033,
      "v": 127
    },
    {
      "midi": 70,
      "hit": false,
      "t": 91058.77800000021,
      "d": 628.6761562500033,
      "v": 127
    },
    {
      "midi": 42,
      "hit": false,
      "t": 91411.71900000022,
      "d": 264.7057499999937,
      "v": 127
    },
    {
      "midi": 54,
      "hit": false,
      "t": 91411.71900000022,
      "d": 264.7057499999937,
      "v": 127
    },
    {
      "midi": 61,
      "hit": false,
      "t": 91764.6600000002,
      "d": 536.7644374999945,
      "v": 127
    },
    {
      "midi": 70,
      "hit": false,
      "t": 91764.6600000002,
      "d": 580.8820624999935,
      "v": 127
    },
    {
      "midi": 66,
      "hit": false,
      "t": 91764.6600000002,
      "d": 591.9114687499969,
      "v": 127
    },
    {
      "midi": 42,
      "hit": false,
      "t": 91764.6600000002,
      "d": 805.1466562499991,
      "v": 127
    },
    {
      "midi": 54,
      "hit": false,
      "t": 91764.6600000002,
      "d": 805.1466562499991,
      "v": 127
    },
    {
      "midi": 61,
      "hit": false,
      "t": 92470.5420000002,
      "d": 363.97040625000955,
      "v": 127
    },
    {
      "midi": 70,
      "hit": false,
      "t": 92470.5420000002,
      "d": 507.3526875000098,
      "v": 127
    },
    {
      "midi": 66,
      "hit": false,
      "t": 92470.5420000002,
      "d": 518.3820937500132,
      "v": 127
    },
    {
      "midi": 54,
      "hit": false,
      "t": 92823.48300000021,
      "d": 194.8528437500063,
      "v": 127
    },
    {
      "midi": 42,
      "hit": false,
      "t": 92823.48300000021,
      "d": 205.88225000000966,
      "v": 127
    },
    {
      "midi": 61,
      "hit": false,
      "t": 92999.95350000022,
      "d": 110.29406250000466,
      "v": 127
    },
    {
      "midi": 61,
      "hit": false,
      "t": 93176.42400000023,
      "d": 525.7350312500057,
      "v": 127
    },
    {
      "midi": 65,
      "hit": false,
      "t": 93176.42400000023,
      "d": 584.5585312500043,
      "v": 127
    },
    {
      "midi": 68,
      "hit": false,
      "t": 93176.42400000023,
      "d": 584.5585312500043,
      "v": 127
    },
    {
      "midi": 37,
      "hit": false,
      "t": 93176.42400000023,
      "d": 790.4407812499994,
      "v": 127
    },
    {
      "midi": 49,
      "hit": false,
      "t": 93176.42400000023,
      "d": 805.1466562499991,
      "v": 127
    },
    {
      "midi": 61,
      "hit": false,
      "t": 93882.30600000023,
      "d": 547.7938437500125,
      "v": 127
    },
    {
      "midi": 68,
      "hit": false,
      "t": 93882.30600000023,
      "d": 584.5585312500189,
      "v": 127
    },
    {
      "midi": 65,
      "hit": false,
      "t": 93882.30600000023,
      "d": 599.2644062500185,
      "v": 127
    },
    {
      "midi": 37,
      "hit": false,
      "t": 94235.24700000024,
      "d": 224.2645937500056,
      "v": 127
    },
    {
      "midi": 49,
      "hit": false,
      "t": 94235.24700000024,
      "d": 224.2645937500056,
      "v": 127
    },
    {
      "midi": 61,
      "hit": false,
      "t": 94588.18800000024,
      "d": 529.411500000002,
      "v": 127
    },
    {
      "midi": 68,
      "hit": false,
      "t": 94588.18800000024,
      "d": 555.146781250005,
      "v": 127
    },
    {
      "midi": 65,
      "hit": false,
      "t": 94588.18800000024,
      "d": 569.8526562500047,
      "v": 127
    },
    {
      "midi": 49,
      "hit": false,
      "t": 94588.18800000024,
      "d": 764.7054999999964,
      "v": 127
    },
    {
      "midi": 37,
      "hit": false,
      "t": 94588.18800000024,
      "d": 775.7349062499998,
      "v": 127
    },
    {
      "midi": 61,
      "hit": false,
      "t": 95294.07000000024,
      "d": 555.146781250005,
      "v": 127
    },
    {
      "midi": 65,
      "hit": false,
      "t": 95294.07000000024,
      "d": 558.8232500000013,
      "v": 127
    },
    {
      "midi": 68,
      "hit": false,
      "t": 95294.07000000024,
      "d": 624.999687500007,
      "v": 127
    },
    {
      "midi": 49,
      "hit": false,
      "t": 95647.01100000025,
      "d": 238.9704687499907,
      "v": 127
    },
    {
      "midi": 37,
      "hit": false,
      "t": 95647.01100000025,
      "d": 249.99987499999406,
      "v": 127
    },
    {
      "midi": 59,
      "hit": false,
      "t": 95999.95200000025,
      "d": 540.4409062500054,
      "v": 127
    },
    {
      "midi": 66,
      "hit": false,
      "t": 95999.95200000025,
      "d": 584.5585312500043,
      "v": 127
    },
    {
      "midi": 63,
      "hit": false,
      "t": 95999.95200000025,
      "d": 602.9408750000002,
      "v": 127
    },
    {
      "midi": 35,
      "hit": false,
      "t": 95999.95200000025,
      "d": 904.4113125000003,
      "v": 127
    },
    {
      "midi": 47,
      "hit": false,
      "t": 95999.95200000025,
      "d": 915.4407187500037,
      "v": 127
    },
    {
      "midi": 59,
      "hit": false,
      "t": 96705.83400000025,
      "d": 555.1467812500196,
      "v": 127
    },
    {
      "midi": 66,
      "hit": false,
      "t": 96705.83400000025,
      "d": 584.5585312500189,
      "v": 127
    },
    {
      "midi": 63,
      "hit": false,
      "t": 96705.83400000025,
      "d": 610.2938125000219,
      "v": 127
    },
    {
      "midi": 35,
      "hit": false,
      "t": 97058.77500000026,
      "d": 194.8528437500063,
      "v": 127
    },
    {
      "midi": 47,
      "hit": false,
      "t": 97058.77500000026,
      "d": 238.9704687500198,
      "v": 127
    },
    {
      "midi": 59,
      "hit": false,
      "t": 97411.71600000028,
      "d": 551.4703124999942,
      "v": 127
    },
    {
      "midi": 66,
      "hit": false,
      "t": 97411.71600000028,
      "d": 595.5879374999931,
      "v": 127
    },
    {
      "midi": 63,
      "hit": false,
      "t": 97411.71600000028,
      "d": 606.6173437499965,
      "v": 127
    },
    {
      "midi": 35,
      "hit": false,
      "t": 97411.71600000028,
      "d": 790.4407812499994,
      "v": 127
    },
    {
      "midi": 47,
      "hit": false,
      "t": 97411.71600000028,
      "d": 801.4701875000028,
      "v": 127
    },
    {
      "midi": 59,
      "hit": false,
      "t": 98117.59800000027,
      "d": 319.8527812500106,
      "v": 127
    },
    {
      "midi": 63,
      "hit": false,
      "t": 98117.59800000027,
      "d": 389.7056875000126,
      "v": 127
    },
    {
      "midi": 66,
      "hit": false,
      "t": 98117.59800000027,
      "d": 419.1174375000119,
      "v": 127
    },
    {
      "midi": 35,
      "hit": false,
      "t": 98470.53900000028,
      "d": 209.55871875000594,
      "v": 127
    },
    {
      "midi": 47,
      "hit": false,
      "t": 98470.53900000028,
      "d": 279.4116250000079,
      "v": 127
    },
    {
      "midi": 49,
      "hit": false,
      "t": 98823.48000000029,
      "d": 279.41162499999336,
      "v": 127
    },
    {
      "midi": 68,
      "hit": false,
      "t": 98823.48000000029,
      "d": 540.4409062499908,
      "v": 127
    },
    {
      "midi": 66,
      "hit": false,
      "t": 98823.48000000029,
      "d": 584.5585312499898,
      "v": 127
    },
    {
      "midi": 61,
      "hit": false,
      "t": 98823.48000000029,
      "d": 2312.498843749985,
      "v": 127
    },
    {
      "midi": 37,
      "hit": false,
      "t": 98823.48000000029,
      "d": 2382.351749999987,
      "v": 127
    },
    {
      "midi": 49,
      "hit": false,
      "t": 99176.42100000028,
      "d": 613.9702812499891,
      "v": 127
    },
    {
      "midi": 66,
      "hit": false,
      "t": 99529.36200000027,
      "d": 499.9997499999881,
      "v": 127
    },
    {
      "midi": 68,
      "hit": false,
      "t": 99529.36200000027,
      "d": 654.4114374999917,
      "v": 127
    },
    {
      "midi": 49,
      "hit": false,
      "t": 99882.30300000026,
      "d": 1408.0875312500139,
      "v": 127
    },
    {
      "midi": 65,
      "hit": false,
      "t": 100235.24400000027,
      "d": 1033.087718750001,
      "v": 127
    },
    {
      "midi": 68,
      "hit": false,
      "t": 100235.24400000027,
      "d": 1069.8524062500073,
      "v": 127
    },
    {
      "midi": 61,
      "hit": false,
      "t": 101294.06700000027,
      "d": 264.70575000000827,
      "v": 127
    },
    {
      "midi": 61,
      "hit": false,
      "t": 101647.00800000028,
      "d": 529.411500000002,
      "v": 127
    },
    {
      "midi": 70,
      "hit": false,
      "t": 101647.00800000028,
      "d": 544.1173750000016,
      "v": 127
    },
    {
      "midi": 66,
      "hit": false,
      "t": 101647.00800000028,
      "d": 558.8232500000013,
      "v": 127
    },
    {
      "midi": 42,
      "hit": false,
      "t": 101647.00800000028,
      "d": 988.970093750002,
      "v": 127
    },
    {
      "midi": 54,
      "hit": false,
      "t": 101647.00800000028,
      "d": 1003.6759687500016,
      "v": 127
    },
    {
      "midi": 61,
      "hit": false,
      "t": 102352.89000000028,
      "d": 499.9997500000027,
      "v": 127
    },
    {
      "midi": 70,
      "hit": false,
      "t": 102352.89000000028,
      "d": 514.7056250000023,
      "v": 127
    },
    {
      "midi": 66,
      "hit": false,
      "t": 102352.89000000028,
      "d": 540.4409062500054,
      "v": 127
    },
    {
      "midi": 42,
      "hit": false,
      "t": 102705.83100000028,
      "d": 1338.2346249999973,
      "v": 127
    },
    {
      "midi": 54,
      "hit": false,
      "t": 102705.83100000028,
      "d": 1352.940499999997,
      "v": 127
    },
    {
      "midi": 61,
      "hit": false,
      "t": 103058.77200000029,
      "d": 488.9703437499993,
      "v": 127
    },
    {
      "midi": 70,
      "hit": false,
      "t": 103058.77200000029,
      "d": 514.7056250000023,
      "v": 127
    },
    {
      "midi": 66,
      "hit": false,
      "t": 103058.77200000029,
      "d": 544.1173750000016,
      "v": 127
    },
    {
      "midi": 61,
      "hit": false,
      "t": 103764.65400000029,
      "d": 514.7056249999878,
      "v": 127
    },
    {
      "midi": 66,
      "hit": false,
      "t": 103764.65400000029,
      "d": 540.4409062499908,
      "v": 127
    },
    {
      "midi": 70,
      "hit": false,
      "t": 103764.65400000029,
      "d": 555.1467812499905,
      "v": 127
    },
    {
      "midi": 54,
      "hit": false,
      "t": 104117.59500000028,
      "d": 246.3234062499978,
      "v": 127
    },
    {
      "midi": 42,
      "hit": false,
      "t": 104117.59500000028,
      "d": 290.44103124999674,
      "v": 127
    },
    {
      "midi": 61,
      "hit": false,
      "t": 104470.53600000027,
      "d": 525.7350312500057,
      "v": 127
    },
    {
      "midi": 65,
      "hit": false,
      "t": 104470.53600000027,
      "d": 573.5291250000009,
      "v": 127
    },
    {
      "midi": 70,
      "hit": false,
      "t": 104470.53600000027,
      "d": 580.882062500008,
      "v": 127
    },
    {
      "midi": 41,
      "hit": false,
      "t": 104470.53600000027,
      "d": 904.4113125000149,
      "v": 127
    },
    {
      "midi": 53,
      "hit": false,
      "t": 104470.53600000027,
      "d": 933.8230625000142,
      "v": 127
    },
    {
      "midi": 61,
      "hit": false,
      "t": 105176.41800000028,
      "d": 444.85271875000035,
      "v": 127
    },
    {
      "midi": 65,
      "hit": false,
      "t": 105176.41800000028,
      "d": 518.3820937499986,
      "v": 127
    },
    {
      "midi": 70,
      "hit": false,
      "t": 105176.41800000028,
      "d": 529.411500000002,
      "v": 127
    },
    {
      "midi": 41,
      "hit": false,
      "t": 105529.35900000029,
      "d": 599.2644062499894,
      "v": 127
    },
    {
      "midi": 53,
      "hit": false,
      "t": 105529.35900000029,
      "d": 610.2938124999928,
      "v": 127
    },
    {
      "midi": 61,
      "hit": false,
      "t": 105882.30000000028,
      "d": 470.5880000000034,
      "v": 127
    },
    {
      "midi": 65,
      "hit": false,
      "t": 105882.30000000028,
      "d": 499.9997500000027,
      "v": 127
    },
    {
      "midi": 68,
      "hit": false,
      "t": 105882.30000000028,
      "d": 499.9997500000027,
      "v": 127
    },
    {
      "midi": 53,
      "hit": false,
      "t": 106235.24100000029,
      "d": 529.4114999999874,
      "v": 127
    },
    {
      "midi": 41,
      "hit": false,
      "t": 106235.24100000029,
      "d": 588.234999999986,
      "v": 127
    },
    {
      "midi": 61,
      "hit": false,
      "t": 106588.18200000028,
      "d": 503.6762187499844,
      "v": 127
    },
    {
      "midi": 68,
      "hit": false,
      "t": 106588.18200000028,
      "d": 529.4114999999874,
      "v": 127
    },
    {
      "midi": 65,
      "hit": false,
      "t": 106588.18200000028,
      "d": 573.5291249999864,
      "v": 127
    },
    {
      "midi": 37,
      "hit": false,
      "t": 106941.12300000027,
      "d": 209.55871874999139,
      "v": 127
    },
    {
      "midi": 49,
      "hit": false,
      "t": 106941.12300000027,
      "d": 224.26459374999104,
      "v": 127
    },
    {
      "midi": 58,
      "hit": false,
      "t": 107294.06400000026,
      "d": 459.55859375,
      "v": 127
    },
    {
      "midi": 63,
      "hit": false,
      "t": 107294.06400000026,
      "d": 544.1173750000016,
      "v": 127
    },
    {
      "midi": 66,
      "hit": false,
      "t": 107294.06400000026,
      "d": 558.8232500000013,
      "v": 127
    },
    {
      "midi": 51,
      "hit": false,
      "t": 107294.06400000026,
      "d": 948.5289374999993,
      "v": 127
    },
    {
      "midi": 39,
      "hit": false,
      "t": 107294.06400000026,
      "d": 963.234812499999,
      "v": 127
    },
    {
      "midi": 58,
      "hit": false,
      "t": 107999.94600000026,
      "d": 474.26446874999965,
      "v": 127
    },
    {
      "midi": 63,
      "hit": false,
      "t": 107999.94600000026,
      "d": 555.146781250005,
      "v": 127
    },
    {
      "midi": 66,
      "hit": false,
      "t": 107999.94600000026,
      "d": 555.146781250005,
      "v": 127
    },
    {
      "midi": 39,
      "hit": false,
      "t": 108352.88700000026,
      "d": 1143.381781249991,
      "v": 127
    },
    {
      "midi": 51,
      "hit": false,
      "t": 108352.88700000026,
      "d": 1169.117062499994,
      "v": 127
    },
    {
      "midi": 58,
      "hit": false,
      "t": 108705.82800000026,
      "d": 503.67621874999895,
      "v": 127
    },
    {
      "midi": 63,
      "hit": false,
      "t": 108705.82800000026,
      "d": 558.8232500000013,
      "v": 127
    },
    {
      "midi": 66,
      "hit": false,
      "t": 108705.82800000026,
      "d": 573.5291250000009,
      "v": 127
    },
    {
      "midi": 58,
      "hit": false,
      "t": 109411.71000000025,
      "d": 459.55859375,
      "v": 127
    },
    {
      "midi": 63,
      "hit": false,
      "t": 109411.71000000025,
      "d": 529.411500000002,
      "v": 127
    },
    {
      "midi": 66,
      "hit": false,
      "t": 109411.71000000025,
      "d": 529.411500000002,
      "v": 127
    },
    {
      "midi": 39,
      "hit": false,
      "t": 109764.65100000026,
      "d": 224.26459374999104,
      "v": 127
    },
    {
      "midi": 51,
      "hit": false,
      "t": 109764.65100000026,
      "d": 224.26459374999104,
      "v": 127
    },
    {
      "midi": 58,
      "hit": false,
      "t": 110117.59200000025,
      "d": 499.9997500000027,
      "v": 127
    },
    {
      "midi": 66,
      "hit": false,
      "t": 110117.59200000025,
      "d": 511.02915625000605,
      "v": 127
    },
    {
      "midi": 62,
      "hit": false,
      "t": 110117.59200000025,
      "d": 555.146781250005,
      "v": 127
    },
    {
      "midi": 38,
      "hit": false,
      "t": 110117.59200000025,
      "d": 893.381906249997,
      "v": 127
    },
    {
      "midi": 50,
      "hit": false,
      "t": 110117.59200000025,
      "d": 948.5289374999993,
      "v": 127
    },
    {
      "midi": 58,
      "hit": false,
      "t": 110823.47400000025,
      "d": 459.55859375,
      "v": 127
    },
    {
      "midi": 66,
      "hit": false,
      "t": 110823.47400000025,
      "d": 485.293875000003,
      "v": 127
    },
    {
      "midi": 62,
      "hit": false,
      "t": 110823.47400000025,
      "d": 544.1173750000016,
      "v": 127
    },
    {
      "midi": 38,
      "hit": false,
      "t": 111176.41500000026,
      "d": 636.0290937499958,
      "v": 127
    },
    {
      "midi": 50,
      "hit": false,
      "t": 111176.41500000026,
      "d": 665.4408437499951,
      "v": 127
    },
    {
      "midi": 58,
      "hit": false,
      "t": 111529.35600000025,
      "d": 544.1173750000016,
      "v": 127
    },
    {
      "midi": 65,
      "hit": false,
      "t": 111529.35600000025,
      "d": 584.5585312500043,
      "v": 127
    },
    {
      "midi": 62,
      "hit": false,
      "t": 111529.35600000025,
      "d": 639.7055625000066,
      "v": 127
    },
    {
      "midi": 50,
      "hit": false,
      "t": 111882.29700000025,
      "d": 555.146781250005,
      "v": 127
    },
    {
      "midi": 38,
      "hit": false,
      "t": 111882.29700000025,
      "d": 599.264406250004,
      "v": 127
    },
    {
      "midi": 58,
      "hit": false,
      "t": 112235.23800000026,
      "d": 488.97034374998475,
      "v": 127
    },
    {
      "midi": 62,
      "hit": false,
      "t": 112235.23800000026,
      "d": 525.7350312499912,
      "v": 127
    },
    {
      "midi": 65,
      "hit": false,
      "t": 112235.23800000026,
      "d": 599.2644062499894,
      "v": 127
    },
    {
      "midi": 34,
      "hit": false,
      "t": 112588.17900000025,
      "d": 249.99987499999406,
      "v": 127
    },
    {
      "midi": 46,
      "hit": false,
      "t": 112588.17900000025,
      "d": 264.7057499999937,
      "v": 127
    },
    {
      "midi": 54,
      "hit": false,
      "t": 112941.12000000024,
      "d": 433.823312499997,
      "v": 127
    },
    {
      "midi": 59,
      "hit": false,
      "t": 112941.12000000024,
      "d": 499.9997500000027,
      "v": 127
    },
    {
      "midi": 63,
      "hit": false,
      "t": 112941.12000000024,
      "d": 499.9997500000027,
      "v": 127
    },
    {
      "midi": 35,
      "hit": false,
      "t": 112941.12000000024,
      "d": 926.4701249999925,
      "v": 127
    },
    {
      "midi": 47,
      "hit": false,
      "t": 112941.12000000024,
      "d": 941.1759999999922,
      "v": 127
    },
    {
      "midi": 54,
      "hit": false,
      "t": 113647.00200000024,
      "d": 499.9997499999881,
      "v": 127
    },
    {
      "midi": 59,
      "hit": false,
      "t": 113647.00200000024,
      "d": 544.1173749999871,
      "v": 127
    },
    {
      "midi": 63,
      "hit": false,
      "t": 113647.00200000024,
      "d": 544.1173749999871,
      "v": 127
    },
    {
      "midi": 47,
      "hit": false,
      "t": 113999.94300000023,
      "d": 1529.4109999999928,
      "v": 127
    },
    {
      "midi": 35,
      "hit": false,
      "t": 113999.94300000023,
      "d": 1599.2639062499948,
      "v": 127
    },
    {
      "midi": 54,
      "hit": false,
      "t": 114352.88400000022,
      "d": 488.9703437499993,
      "v": 127
    },
    {
      "midi": 63,
      "hit": false,
      "t": 114352.88400000022,
      "d": 514.7056250000023,
      "v": 127
    },
    {
      "midi": 59,
      "hit": false,
      "t": 114352.88400000022,
      "d": 529.411500000002,
      "v": 127
    },
    {
      "midi": 54,
      "hit": false,
      "t": 115058.76600000022,
      "d": 463.2350624999963,
      "v": 127
    },
    {
      "midi": 59,
      "hit": false,
      "t": 115058.76600000022,
      "d": 499.9997500000027,
      "v": 127
    },
    {
      "midi": 63,
      "hit": false,
      "t": 115058.76600000022,
      "d": 529.411500000002,
      "v": 127
    },
    {
      "midi": 58,
      "hit": false,
      "t": 115764.64800000023,
      "d": 573.5291250000009,
      "v": 127
    },
    {
      "midi": 61,
      "hit": false,
      "t": 115764.64800000023,
      "d": 610.2938125000073,
      "v": 127
    },
    {
      "midi": 66,
      "hit": false,
      "t": 115764.64800000023,
      "d": 610.2938125000073,
      "v": 127
    },
    {
      "midi": 46,
      "hit": false,
      "t": 115764.64800000023,
      "d": 988.9700937500165,
      "v": 127
    },
    {
      "midi": 61,
      "hit": false,
      "t": 116470.53000000025,
      "d": 474.26446874999965,
      "v": 127
    },
    {
      "midi": 58,
      "hit": false,
      "t": 116470.53000000025,
      "d": 485.293875000003,
      "v": 127
    },
    {
      "midi": 66,
      "hit": false,
      "t": 116470.53000000025,
      "d": 529.411500000002,
      "v": 127
    },
    {
      "midi": 46,
      "hit": false,
      "t": 116823.47100000025,
      "d": 209.55871874999139,
      "v": 127
    },
    {
      "midi": 44,
      "hit": false,
      "t": 116999.94150000025,
      "d": 180.14696874999208,
      "v": 127
    },
    {
      "midi": 54,
      "hit": false,
      "t": 117176.41200000024,
      "d": 610.2938124999928,
      "v": 127
    },
    {
      "midi": 58,
      "hit": false,
      "t": 117176.41200000024,
      "d": 650.7349687499955,
      "v": 127
    },
    {
      "midi": 61,
      "hit": false,
      "t": 117176.41200000024,
      "d": 650.7349687499955,
      "v": 127
    },
    {
      "midi": 42,
      "hit": false,
      "t": 117176.41200000024,
      "d": 944.852468750003,
      "v": 127
    },
    {
      "midi": 54,
      "hit": false,
      "t": 117882.29400000024,
      "d": 529.411500000002,
      "v": 127
    },
    {
      "midi": 58,
      "hit": false,
      "t": 117882.29400000024,
      "d": 569.8526562500047,
      "v": 127
    },
    {
      "midi": 61,
      "hit": false,
      "t": 117882.29400000024,
      "d": 580.882062500008,
      "v": 127
    },
    {
      "midi": 42,
      "hit": false,
      "t": 118235.23500000025,
      "d": 404.4115625000122,
      "v": 127
    },
    {
      "midi": 56,
      "hit": false,
      "t": 118588.17600000025,
      "d": 540.4409062500054,
      "v": 127
    },
    {
      "midi": 60,
      "hit": false,
      "t": 118588.17600000025,
      "d": 595.5879375000077,
      "v": 127
    },
    {
      "midi": 63,
      "hit": false,
      "t": 118588.17600000025,
      "d": 595.5879375000077,
      "v": 127
    },
    {
      "midi": 44,
      "hit": false,
      "t": 118588.17600000025,
      "d": 1018.3818437500158,
      "v": 127
    },
    {
      "midi": 63,
      "hit": false,
      "t": 119294.05800000027,
      "d": 584.5585312500043,
      "v": 127
    },
    {
      "midi": 60,
      "hit": false,
      "t": 119294.05800000027,
      "d": 628.6761562500033,
      "v": 127
    },
    {
      "midi": 56,
      "hit": false,
      "t": 119294.05800000027,
      "d": 705.8819999999978,
      "v": 127
    },
    {
      "midi": 46,
      "hit": false,
      "t": 119646.99900000027,
      "d": 224.26459374999104,
      "v": 127
    },
    {
      "midi": 47,
      "hit": false,
      "t": 119823.46950000027,
      "d": 220.58812499999476,
      "v": 127
    },
    {
      "midi": 56,
      "hit": false,
      "t": 119999.94000000026,
      "d": 573.5291250000009,
      "v": 127
    },
    {
      "midi": 63,
      "hit": false,
      "t": 119999.94000000026,
      "d": 613.9702812500036,
      "v": 127
    },
    {
      "midi": 60,
      "hit": false,
      "t": 119999.94000000026,
      "d": 643.3820312500029,
      "v": 127
    },
    {
      "midi": 48,
      "hit": false,
      "t": 119999.94000000026,
      "d": 1029.4112500000047,
      "v": 127
    },
    {
      "midi": 56,
      "hit": false,
      "t": 120705.82200000026,
      "d": 444.85271875000035,
      "v": 127
    },
    {
      "midi": 63,
      "hit": false,
      "t": 120705.82200000026,
      "d": 485.293875000003,
      "v": 127
    },
    {
      "midi": 60,
      "hit": false,
      "t": 120705.82200000026,
      "d": 499.9997500000027,
      "v": 127
    },
    {
      "midi": 48,
      "hit": false,
      "t": 121058.76300000027,
      "d": 334.5586562499957,
      "v": 127
    },
    {
      "midi": 56,
      "hit": false,
      "t": 121411.70400000026,
      "d": 529.411500000002,
      "v": 127
    },
    {
      "midi": 65,
      "hit": false,
      "t": 121411.70400000026,
      "d": 580.882062500008,
      "v": 127
    },
    {
      "midi": 61,
      "hit": false,
      "t": 121411.70400000026,
      "d": 584.5585312500043,
      "v": 127
    },
    {
      "midi": 49,
      "hit": false,
      "t": 121411.70400000026,
      "d": 2411.763500000001,
      "v": 127
    },
    {
      "midi": 56,
      "hit": false,
      "t": 122117.58600000026,
      "d": 555.146781250005,
      "v": 127
    },
    {
      "midi": 61,
      "hit": false,
      "t": 122117.58600000026,
      "d": 613.9702812500036,
      "v": 127
    },
    {
      "midi": 65,
      "hit": false,
      "t": 122117.58600000026,
      "d": 636.0290937500104,
      "v": 127
    },
    {
      "midi": 56,
      "hit": false,
      "t": 122823.46800000027,
      "d": 529.411500000002,
      "v": 127
    },
    {
      "midi": 63,
      "hit": false,
      "t": 122823.46800000027,
      "d": 569.8526562500047,
      "v": 127
    },
    {
      "midi": 65,
      "hit": false,
      "t": 122823.46800000027,
      "d": 613.9702812500036,
      "v": 127
    },
    {
      "midi": 56,
      "hit": false,
      "t": 123529.35000000027,
      "d": 389.705687499998,
      "v": 127
    },
    {
      "midi": 61,
      "hit": false,
      "t": 123529.35000000027,
      "d": 448.5291874999966,
      "v": 127
    },
    {
      "midi": 65,
      "hit": false,
      "t": 123529.35000000027,
      "d": 448.5291874999966,
      "v": 127
    },
    {
      "midi": 41,
      "hit": false,
      "t": 124235.23200000027,
      "d": 944.852468750003,
      "v": 127
    },
    {
      "midi": 53,
      "hit": false,
      "t": 124235.23200000027,
      "d": 959.5583437500027,
      "v": 127
    },
    {
      "midi": 61,
      "hit": false,
      "t": 124235.23200000027,
      "d": 985.2936250000057,
      "v": 127
    },
    {
      "midi": 65,
      "hit": false,
      "t": 124235.23200000027,
      "d": 999.9995000000054,
      "v": 127
    },
    {
      "midi": 68,
      "hit": false,
      "t": 124235.23200000027,
      "d": 1014.705375000005,
      "v": 127
    },
    {
      "midi": 54,
      "hit": false,
      "t": 125294.05500000027,
      "d": 1518.381593750004,
      "v": 127
    },
    {
      "midi": 66,
      "hit": false,
      "t": 125294.05500000027,
      "d": 1518.381593750004,
      "v": 127
    },
    {
      "midi": 42,
      "hit": false,
      "t": 125294.05500000027,
      "d": 1529.4110000000073,
      "v": 127
    },
    {
      "midi": 61,
      "hit": false,
      "t": 125294.05500000027,
      "d": 1533.0874687500036,
      "v": 127
    },
    {
      "midi": 70,
      "hit": false,
      "t": 125294.05500000027,
      "d": 1558.8227500000066,
      "v": 127
    },
    {
      "midi": 65,
      "hit": false,
      "t": 127058.76000000027,
      "d": 849.264281249998,
      "v": 127
    },
    {
      "midi": 41,
      "hit": false,
      "t": 127058.76000000027,
      "d": 860.2936875000014,
      "v": 127
    },
    {
      "midi": 61,
      "hit": false,
      "t": 127058.76000000027,
      "d": 867.6466250000085,
      "v": 127
    },
    {
      "midi": 53,
      "hit": false,
      "t": 127058.76000000027,
      "d": 919.1171875000146,
      "v": 127
    },
    {
      "midi": 68,
      "hit": false,
      "t": 127058.76000000027,
      "d": 919.1171875000146,
      "v": 127
    },
    {
      "midi": 54,
      "hit": false,
      "t": 128117.58300000029,
      "d": 1367.6463749999966,
      "v": 127
    },
    {
      "midi": 42,
      "hit": false,
      "t": 128117.58300000029,
      "d": 1393.3816562499997,
      "v": 127
    },
    {
      "midi": 66,
      "hit": false,
      "t": 128117.58300000029,
      "d": 1474.263968750005,
      "v": 127
    },
    {
      "midi": 70,
      "hit": false,
      "t": 128117.58300000029,
      "d": 1488.9698437500047,
      "v": 127
    },
    {
      "midi": 61,
      "hit": false,
      "t": 128117.58300000029,
      "d": 1533.0874687500036,
      "v": 127
    },
    {
      "midi": 34,
      "hit": false,
      "t": 129882.28800000029,
      "d": 834.5584062499984,
      "v": 127
    },
    {
      "midi": 46,
      "hit": false,
      "t": 129882.28800000029,
      "d": 889.7054375000007,
      "v": 127
    },
    {
      "midi": 61,
      "hit": false,
      "t": 129882.28800000029,
      "d": 919.1171875,
      "v": 127
    },
    {
      "midi": 70,
      "hit": false,
      "t": 129882.28800000029,
      "d": 944.852468750003,
      "v": 127
    },
    {
      "midi": 65,
      "hit": false,
      "t": 129882.28800000029,
      "d": 959.5583437500027,
      "v": 127
    },
    {
      "midi": 71,
      "hit": false,
      "t": 130941.1110000003,
      "d": 1249.999375000014,
      "v": 127
    },
    {
      "midi": 63,
      "hit": false,
      "t": 130941.1110000003,
      "d": 1279.4111250000133,
      "v": 127
    },
    {
      "midi": 66,
      "hit": false,
      "t": 130941.1110000003,
      "d": 1279.4111250000133,
      "v": 127
    },
    {
      "midi": 35,
      "hit": false,
      "t": 130941.1110000003,
      "d": 1363.969906250015,
      "v": 127
    },
    {
      "midi": 47,
      "hit": false,
      "t": 130941.1110000003,
      "d": 1433.8228125000023,
      "v": 127
    },
    {
      "midi": 37,
      "hit": false,
      "t": 132705.8160000003,
      "d": 893.381906249997,
      "v": 127
    },
    {
      "midi": 49,
      "hit": false,
      "t": 132705.8160000003,
      "d": 919.1171875,
      "v": 127
    },
    {
      "midi": 56,
      "hit": false,
      "t": 132705.8160000003,
      "d": 933.8230625000142,
      "v": 127
    },
    {
      "midi": 61,
      "hit": false,
      "t": 132705.8160000003,
      "d": 944.852468750003,
      "v": 127
    },
    {
      "midi": 66,
      "hit": false,
      "t": 132705.8160000003,
      "d": 944.852468750003,
      "v": 127
    },
    {
      "midi": 37,
      "hit": false,
      "t": 133764.63900000032,
      "d": 1242.6464374999923,
      "v": 127
    },
    {
      "midi": 56,
      "hit": false,
      "t": 133764.63900000032,
      "d": 1253.6758437499811,
      "v": 127
    },
    {
      "midi": 49,
      "hit": false,
      "t": 133764.63900000032,
      "d": 1294.1169999999693,
      "v": 127
    },
    {
      "midi": 65,
      "hit": false,
      "t": 133764.63900000032,
      "d": 1294.1169999999693,
      "v": 127
    },
    {
      "midi": 61,
      "hit": false,
      "t": 133764.63900000032,
      "d": 1297.7934687499655,
      "v": 127
    },
    {
      "midi": 53,
      "hit": false,
      "t": 135529.34400000027,
      "d": 264.7057499999937,
      "v": 127
    },
    {
      "midi": 61,
      "hit": false,
      "t": 135529.34400000027,
      "d": 485.293875000003,
      "v": 127
    },
    {
      "midi": 68,
      "hit": false,
      "t": 135529.34400000027,
      "d": 551.4703124999942,
      "v": 127
    },
    {
      "midi": 65,
      "hit": false,
      "t": 135529.34400000027,
      "d": 624.999687500007,
      "v": 127
    },
    {
      "midi": 41,
      "hit": false,
      "t": 135529.34400000027,
      "d": 849.2642812500126,
      "v": 127
    },
    {
      "midi": 53,
      "hit": false,
      "t": 135882.28500000027,
      "d": 599.2644062500331,
      "v": 127
    },
    {
      "midi": 61,
      "hit": false,
      "t": 136235.2260000003,
      "d": 294.1175000000221,
      "v": 127
    },
    {
      "midi": 70,
      "hit": false,
      "t": 136588.1670000003,
      "d": 613.9702812499891,
      "v": 127
    },
    {
      "midi": 66,
      "hit": false,
      "t": 136588.1670000003,
      "d": 639.7055624999921,
      "v": 127
    },
    {
      "midi": 54,
      "hit": false,
      "t": 136588.1670000003,
      "d": 1422.7934062499844,
      "v": 127
    },
    {
      "midi": 42,
      "hit": false,
      "t": 136588.1670000003,
      "d": 1533.087468749989,
      "v": 127
    },
    {
      "midi": 61,
      "hit": false,
      "t": 136588.1670000003,
      "d": 1558.822749999992,
      "v": 127
    },
    {
      "midi": 70,
      "hit": false,
      "t": 137294.0490000003,
      "d": 933.8230625000142,
      "v": 127
    },
    {
      "midi": 66,
      "hit": false,
      "t": 137999.9310000003,
      "d": 209.55871874999139,
      "v": 127
    },
    {
      "midi": 54,
      "hit": false,
      "t": 138176.4015000003,
      "d": 99.26465625001583,
      "v": 127
    },
    {
      "midi": 61,
      "hit": false,
      "t": 138352.87200000032,
      "d": 275.73515625001164,
      "v": 127
    },
    {
      "midi": 68,
      "hit": false,
      "t": 138352.87200000032,
      "d": 319.85278125002515,
      "v": 127
    },
    {
      "midi": 65,
      "hit": false,
      "t": 138352.87200000032,
      "d": 334.55865625003935,
      "v": 127
    },
    {
      "midi": 41,
      "hit": false,
      "t": 138352.87200000032,
      "d": 849.2642812500417,
      "v": 127
    },
    {
      "midi": 53,
      "hit": false,
      "t": 138352.87200000032,
      "d": 919.1171875000291,
      "v": 127
    },
    {
      "midi": 61,
      "hit": false,
      "t": 138705.81300000037,
      "d": 613.9702812499891,
      "v": 127
    },
    {
      "midi": 68,
      "hit": false,
      "t": 139058.75400000036,
      "d": 279.4116250000079,
      "v": 127
    },
    {
      "midi": 54,
      "hit": false,
      "t": 139411.69500000039,
      "d": 985.2936249999912,
      "v": 127
    },
    {
      "midi": 61,
      "hit": false,
      "t": 139411.69500000039,
      "d": 1154.4111874999944,
      "v": 127
    },
    {
      "midi": 70,
      "hit": false,
      "t": 139411.69500000039,
      "d": 1330.8816874999902,
      "v": 127
    },
    {
      "midi": 42,
      "hit": false,
      "t": 139411.69500000039,
      "d": 1363.9699062499858,
      "v": 127
    },
    {
      "midi": 66,
      "hit": false,
      "t": 139411.69500000039,
      "d": 1363.9699062499858,
      "v": 127
    },
    {
      "midi": 54,
      "hit": false,
      "t": 140470.5180000004,
      "d": 249.9998749999795,
      "v": 127
    },
    {
      "midi": 61,
      "hit": false,
      "t": 140823.45900000038,
      "d": 319.85278124999604,
      "v": 127
    },
    {
      "midi": 34,
      "hit": false,
      "t": 141176.40000000037,
      "d": 904.4113124999858,
      "v": 127
    },
    {
      "midi": 46,
      "hit": false,
      "t": 141176.40000000037,
      "d": 908.0877812499821,
      "v": 127
    },
    {
      "midi": 61,
      "hit": false,
      "t": 141176.40000000037,
      "d": 908.0877812499821,
      "v": 127
    },
    {
      "midi": 70,
      "hit": false,
      "t": 141176.40000000037,
      "d": 930.1465937499888,
      "v": 127
    },
    {
      "midi": 65,
      "hit": false,
      "t": 141176.40000000037,
      "d": 941.1759999999776,
      "v": 127
    },
    {
      "midi": 66,
      "hit": false,
      "t": 142235.22300000035,
      "d": 613.9702812499891,
      "v": 127
    },
    {
      "midi": 63,
      "hit": false,
      "t": 142235.22300000035,
      "d": 904.4113124999858,
      "v": 127
    },
    {
      "midi": 47,
      "hit": false,
      "t": 142235.22300000035,
      "d": 1143.3817812499765,
      "v": 127
    },
    {
      "midi": 71,
      "hit": false,
      "t": 142235.22300000035,
      "d": 1323.5287499999686,
      "v": 127
    },
    {
      "midi": 35,
      "hit": false,
      "t": 142235.22300000035,
      "d": 1367.646374999982,
      "v": 127
    },
    {
      "midi": 66,
      "hit": false,
      "t": 142941.10500000033,
      "d": 404.4115624999977,
      "v": 127
    },
    {
      "midi": 63,
      "hit": false,
      "t": 143294.04600000032,
      "d": 360.29393750001327,
      "v": 127
    },
    {
      "midi": 47,
      "hit": false,
      "t": 143646.98700000034,
      "d": 264.7057499999937,
      "v": 127
    },
    {
      "midi": 56,
      "hit": false,
      "t": 143999.92800000033,
      "d": 944.852468750003,
      "v": 127
    },
    {
      "midi": 61,
      "hit": false,
      "t": 143999.92800000033,
      "d": 1014.7053749999905,
      "v": 127
    },
    {
      "midi": 66,
      "hit": false,
      "t": 143999.92800000033,
      "d": 1029.4112500000047,
      "v": 127
    },
    {
      "midi": 37,
      "hit": false,
      "t": 143999.92800000033,
      "d": 1158.0876562499907,
      "v": 127
    },
    {
      "midi": 49,
      "hit": false,
      "t": 143999.92800000033,
      "d": 1209.5582187499967,
      "v": 127
    },
    {
      "midi": 56,
      "hit": false,
      "t": 145058.75100000034,
      "d": 294.117499999993,
      "v": 127
    },
    {
      "midi": 37,
      "hit": false,
      "t": 145411.69200000033,
      "d": 1029.4112500000047,
      "v": 127
    },
    {
      "midi": 56,
      "hit": false,
      "t": 145411.69200000033,
      "d": 1029.4112500000047,
      "v": 127
    },
    {
      "midi": 61,
      "hit": false,
      "t": 145411.69200000033,
      "d": 1040.4406562499935,
      "v": 127
    },
    {
      "midi": 65,
      "hit": false,
      "t": 145411.69200000033,
      "d": 1069.8524062499928,
      "v": 127
    },
    {
      "midi": 49,
      "hit": false,
      "t": 145411.69200000033,
      "d": 1084.558281250007,
      "v": 127
    },
    {
      "midi": 61,
      "hit": false,
      "t": 146823.45600000033,
      "d": 514.7056250000023,
      "v": 127
    },
    {
      "midi": 66,
      "hit": false,
      "t": 146823.45600000033,
      "d": 584.5585312499898,
      "v": 127
    },
    {
      "midi": 70,
      "hit": false,
      "t": 146823.45600000033,
      "d": 584.5585312499898,
      "v": 127
    },
    {
      "midi": 42,
      "hit": false,
      "t": 146823.45600000033,
      "d": 878.6760312499828,
      "v": 127
    },
    {
      "midi": 54,
      "hit": false,
      "t": 146823.45600000033,
      "d": 878.6760312499828,
      "v": 127
    },
    {
      "midi": 61,
      "hit": false,
      "t": 147529.3380000003,
      "d": 599.264406250004,
      "v": 127
    },
    {
      "midi": 66,
      "hit": false,
      "t": 147529.3380000003,
      "d": 624.999687500007,
      "v": 127
    },
    {
      "midi": 70,
      "hit": false,
      "t": 147529.3380000003,
      "d": 624.999687500007,
      "v": 127
    },
    {
      "midi": 42,
      "hit": false,
      "t": 147882.2790000003,
      "d": 249.99987500000861,
      "v": 127
    },
    {
      "midi": 54,
      "hit": false,
      "t": 147882.2790000003,
      "d": 249.99987500000861,
      "v": 127
    },
    {
      "midi": 61,
      "hit": false,
      "t": 148235.22000000032,
      "d": 558.8232499999867,
      "v": 127
    },
    {
      "midi": 66,
      "hit": false,
      "t": 148235.22000000032,
      "d": 610.2938124999928,
      "v": 127
    },
    {
      "midi": 70,
      "hit": false,
      "t": 148235.22000000032,
      "d": 621.3232187499816,
      "v": 127
    },
    {
      "midi": 54,
      "hit": false,
      "t": 148235.22000000032,
      "d": 805.14665624997,
      "v": 127
    },
    {
      "midi": 42,
      "hit": false,
      "t": 148235.22000000032,
      "d": 808.8231249999662,
      "v": 127
    },
    {
      "midi": 61,
      "hit": false,
      "t": 148941.1020000003,
      "d": 323.5292499999923,
      "v": 127
    },
    {
      "midi": 66,
      "hit": false,
      "t": 148941.1020000003,
      "d": 448.5291874999821,
      "v": 127
    },
    {
      "midi": 70,
      "hit": false,
      "t": 148941.1020000003,
      "d": 448.5291874999821,
      "v": 127
    },
    {
      "midi": 61,
      "hit": false,
      "t": 149294.0430000003,
      "d": 110.29406250000466,
      "v": 127
    },
    {
      "midi": 54,
      "hit": false,
      "t": 149294.0430000003,
      "d": 165.44109375000698,
      "v": 127
    },
    {
      "midi": 42,
      "hit": false,
      "t": 149294.0430000003,
      "d": 180.1469687500212,
      "v": 127
    },
    {
      "midi": 61,
      "hit": false,
      "t": 149646.98400000032,
      "d": 599.264406250004,
      "v": 127
    },
    {
      "midi": 68,
      "hit": false,
      "t": 149646.98400000032,
      "d": 639.7055624999921,
      "v": 127
    },
    {
      "midi": 65,
      "hit": false,
      "t": 149646.98400000032,
      "d": 654.4114375000063,
      "v": 127
    },
    {
      "midi": 37,
      "hit": false,
      "t": 149646.98400000032,
      "d": 834.5584062499984,
      "v": 127
    },
    {
      "midi": 49,
      "hit": false,
      "t": 149646.98400000032,
      "d": 849.2642812500126,
      "v": 127
    },
    {
      "midi": 61,
      "hit": false,
      "t": 150352.86600000033,
      "d": 588.234999999986,
      "v": 127
    },
    {
      "midi": 65,
      "hit": false,
      "t": 150352.86600000033,
      "d": 610.2938124999928,
      "v": 127
    },
    {
      "midi": 68,
      "hit": false,
      "t": 150352.86600000033,
      "d": 624.999687500007,
      "v": 127
    },
    {
      "midi": 37,
      "hit": false,
      "t": 150705.80700000032,
      "d": 253.6763437500049,
      "v": 127
    },
    {
      "midi": 49,
      "hit": false,
      "t": 150705.80700000032,
      "d": 253.6763437500049,
      "v": 127
    },
    {
      "midi": 61,
      "hit": false,
      "t": 151058.74800000034,
      "d": 540.4409062500054,
      "v": 127
    },
    {
      "midi": 65,
      "hit": false,
      "t": 151058.74800000034,
      "d": 580.8820624999935,
      "v": 127
    },
    {
      "midi": 68,
      "hit": false,
      "t": 151058.74800000034,
      "d": 580.8820624999935,
      "v": 127
    },
    {
      "midi": 37,
      "hit": false,
      "t": 151058.74800000034,
      "d": 805.14665624997,
      "v": 127
    },
    {
      "midi": 49,
      "hit": false,
      "t": 151058.74800000034,
      "d": 805.14665624997,
      "v": 127
    },
    {
      "midi": 61,
      "hit": false,
      "t": 151764.63000000032,
      "d": 374.99981249999837,
      "v": 127
    },
    {
      "midi": 68,
      "hit": false,
      "t": 151764.63000000032,
      "d": 474.2644687499851,
      "v": 127
    },
    {
      "midi": 65,
      "hit": false,
      "t": 151764.63000000032,
      "d": 485.2938749999739,
      "v": 127
    },
    {
      "midi": 37,
      "hit": false,
      "t": 152117.57100000032,
      "d": 205.8822499999951,
      "v": 127
    },
    {
      "midi": 49,
      "hit": false,
      "t": 152117.57100000032,
      "d": 205.8822499999951,
      "v": 127
    },
    {
      "midi": 61,
      "hit": false,
      "t": 152294.0415000003,
      "d": 113.97053125000093,
      "v": 127
    },
    {
      "midi": 59,
      "hit": false,
      "t": 152470.5120000003,
      "d": 569.8526562500047,
      "v": 127
    },
    {
      "midi": 66,
      "hit": false,
      "t": 152470.5120000003,
      "d": 643.3820312500175,
      "v": 127
    },
    {
      "midi": 63,
      "hit": false,
      "t": 152470.5120000003,
      "d": 654.4114375000063,
      "v": 127
    },
    {
      "midi": 35,
      "hit": false,
      "t": 152470.5120000003,
      "d": 834.5584062499984,
      "v": 127
    },
    {
      "midi": 47,
      "hit": false,
      "t": 152470.5120000003,
      "d": 860.2936875000014,
      "v": 127
    },
    {
      "midi": 59,
      "hit": false,
      "t": 153176.39400000032,
      "d": 610.2938124999928,
      "v": 127
    },
    {
      "midi": 63,
      "hit": false,
      "t": 153176.39400000032,
      "d": 639.7055624999921,
      "v": 127
    },
    {
      "midi": 66,
      "hit": false,
      "t": 153176.39400000032,
      "d": 639.7055624999921,
      "v": 127
    },
    {
      "midi": 35,
      "hit": false,
      "t": 153529.3350000003,
      "d": 224.2645937500056,
      "v": 127
    },
    {
      "midi": 47,
      "hit": false,
      "t": 153529.3350000003,
      "d": 264.7057499999937,
      "v": 127
    },
    {
      "midi": 59,
      "hit": false,
      "t": 153882.2760000003,
      "d": 555.1467812499905,
      "v": 127
    },
    {
      "midi": 63,
      "hit": false,
      "t": 153882.2760000003,
      "d": 599.264406250004,
      "v": 127
    },
    {
      "midi": 66,
      "hit": false,
      "t": 153882.2760000003,
      "d": 610.2938124999928,
      "v": 127
    },
    {
      "midi": 35,
      "hit": false,
      "t": 153882.2760000003,
      "d": 794.1172499999811,
      "v": 127
    },
    {
      "midi": 47,
      "hit": false,
      "t": 153882.2760000003,
      "d": 805.14665624997,
      "v": 127
    },
    {
      "midi": 59,
      "hit": false,
      "t": 154588.1580000003,
      "d": 400.7350937500014,
      "v": 127
    },
    {
      "midi": 63,
      "hit": false,
      "t": 154588.1580000003,
      "d": 444.8527187500149,
      "v": 127
    },
    {
      "midi": 66,
      "hit": false,
      "t": 154588.1580000003,
      "d": 459.5585937500291,
      "v": 127
    },
    {
      "midi": 35,
      "hit": false,
      "t": 154941.09900000028,
      "d": 235.29400000002352,
      "v": 127
    },
    {
      "midi": 47,
      "hit": false,
      "t": 154941.09900000028,
      "d": 264.7057500000228,
      "v": 127
    },
    {
      "midi": 61,
      "hit": false,
      "t": 155294.0400000003,
      "d": 628.6761562500033,
      "v": 127
    },
    {
      "midi": 66,
      "hit": false,
      "t": 155294.0400000003,
      "d": 669.1173124999914,
      "v": 127
    },
    {
      "midi": 68,
      "hit": false,
      "t": 155294.0400000003,
      "d": 669.1173124999914,
      "v": 127
    },
    {
      "midi": 49,
      "hit": false,
      "t": 155294.0400000003,
      "d": 948.5289374999702,
      "v": 127
    },
    {
      "midi": 37,
      "hit": false,
      "t": 155294.0400000003,
      "d": 2147.057750000007,
      "v": 127
    },
    {
      "midi": 66,
      "hit": false,
      "t": 155999.92200000028,
      "d": 514.7056250000023,
      "v": 127
    },
    {
      "midi": 61,
      "hit": false,
      "t": 155999.92200000028,
      "d": 529.4115000000165,
      "v": 127
    },
    {
      "midi": 68,
      "hit": false,
      "t": 155999.92200000028,
      "d": 544.1173750000307,
      "v": 127
    },
    {
      "midi": 49,
      "hit": false,
      "t": 156352.86300000027,
      "d": 1099.2641562500212,
      "v": 127
    },
    {
      "midi": 61,
      "hit": false,
      "t": 156705.80400000032,
      "d": 514.7056250000023,
      "v": 127
    },
    {
      "midi": 65,
      "hit": false,
      "t": 156705.80400000032,
      "d": 584.5585312499898,
      "v": 127
    },
    {
      "midi": 68,
      "hit": false,
      "t": 156705.80400000032,
      "d": 584.5585312499898,
      "v": 127
    },
    {
      "midi": 61,
      "hit": false,
      "t": 157411.6860000003,
      "d": 330.88218749998487,
      "v": 127
    },
    {
      "midi": 65,
      "hit": false,
      "t": 157411.6860000003,
      "d": 470.5879999999888,
      "v": 127
    },
    {
      "midi": 68,
      "hit": false,
      "t": 157411.6860000003,
      "d": 485.293875000003,
      "v": 127
    },
    {
      "midi": 37,
      "hit": false,
      "t": 157764.6270000003,
      "d": 194.8528437500354,
      "v": 127
    },
    {
      "midi": 49,
      "hit": false,
      "t": 157764.6270000003,
      "d": 224.2645937500347,
      "v": 127
    },
    {
      "midi": 61,
      "hit": false,
      "t": 157941.09750000032,
      "d": 113.97053125000093,
      "v": 127
    },
    {
      "midi": 61,
      "hit": false,
      "t": 158117.56800000032,
      "d": 540.4409062500054,
      "v": 127
    },
    {
      "midi": 70,
      "hit": false,
      "t": 158117.56800000032,
      "d": 584.5585312500189,
      "v": 127
    },
    {
      "midi": 66,
      "hit": false,
      "t": 158117.56800000032,
      "d": 599.2644062500331,
      "v": 127
    },
    {
      "midi": 42,
      "hit": false,
      "t": 158117.56800000032,
      "d": 819.8525312500424,
      "v": 127
    },
    {
      "midi": 54,
      "hit": false,
      "t": 158117.56800000032,
      "d": 845.5878125000454,
      "v": 127
    },
    {
      "midi": 61,
      "hit": false,
      "t": 158823.45000000036,
      "d": 599.264406250004,
      "v": 127
    },
    {
      "midi": 66,
      "hit": false,
      "t": 158823.45000000036,
      "d": 628.6761562500033,
      "v": 127
    },
    {
      "midi": 70,
      "hit": false,
      "t": 158823.45000000036,
      "d": 628.6761562500033,
      "v": 127
    },
    {
      "midi": 42,
      "hit": false,
      "t": 159176.39100000035,
      "d": 264.7057500000228,
      "v": 127
    },
    {
      "midi": 54,
      "hit": false,
      "t": 159176.39100000035,
      "d": 264.7057500000228,
      "v": 127
    },
    {
      "midi": 61,
      "hit": false,
      "t": 159529.33200000037,
      "d": 536.7644375000091,
      "v": 127
    },
    {
      "midi": 70,
      "hit": false,
      "t": 159529.33200000037,
      "d": 580.8820625000226,
      "v": 127
    },
    {
      "midi": 66,
      "hit": false,
      "t": 159529.33200000037,
      "d": 591.9114687500114,
      "v": 127
    },
    {
      "midi": 42,
      "hit": false,
      "t": 159529.33200000037,
      "d": 805.1466562499991,
      "v": 127
    },
    {
      "midi": 54,
      "hit": false,
      "t": 159529.33200000037,
      "d": 805.1466562499991,
      "v": 127
    },
    {
      "midi": 61,
      "hit": false,
      "t": 160235.2140000004,
      "d": 363.97040624998044,
      "v": 127
    },
    {
      "midi": 70,
      "hit": false,
      "t": 160235.2140000004,
      "d": 507.3526874999807,
      "v": 127
    },
    {
      "midi": 66,
      "hit": false,
      "t": 160235.2140000004,
      "d": 518.3820937499695,
      "v": 127
    },
    {
      "midi": 54,
      "hit": false,
      "t": 160588.15500000038,
      "d": 194.85284374997718,
      "v": 127
    },
    {
      "midi": 42,
      "hit": false,
      "t": 160588.15500000038,
      "d": 205.882249999966,
      "v": 127
    },
    {
      "midi": 61,
      "hit": false,
      "t": 160764.62550000034,
      "d": 110.29406250000466,
      "v": 127
    },
    {
      "midi": 61,
      "hit": false,
      "t": 160941.09600000034,
      "d": 525.7350312499912,
      "v": 127
    },
    {
      "midi": 65,
      "hit": false,
      "t": 160941.09600000034,
      "d": 584.5585312499898,
      "v": 127
    },
    {
      "midi": 68,
      "hit": false,
      "t": 160941.09600000034,
      "d": 584.5585312499898,
      "v": 127
    },
    {
      "midi": 37,
      "hit": false,
      "t": 160941.09600000034,
      "d": 790.4407812499849,
      "v": 127
    },
    {
      "midi": 49,
      "hit": false,
      "t": 160941.09600000034,
      "d": 805.1466562499991,
      "v": 127
    },
    {
      "midi": 61,
      "hit": false,
      "t": 161646.97800000032,
      "d": 547.793843750027,
      "v": 127
    },
    {
      "midi": 68,
      "hit": false,
      "t": 161646.97800000032,
      "d": 584.5585312500189,
      "v": 127
    },
    {
      "midi": 65,
      "hit": false,
      "t": 161646.97800000032,
      "d": 599.2644062500331,
      "v": 127
    },
    {
      "midi": 37,
      "hit": false,
      "t": 161999.91900000034,
      "d": 224.2645937500056,
      "v": 127
    },
    {
      "midi": 49,
      "hit": false,
      "t": 161999.91900000034,
      "d": 224.2645937500056,
      "v": 127
    },
    {
      "midi": 61,
      "hit": false,
      "t": 162352.86000000036,
      "d": 529.4114999999874,
      "v": 127
    },
    {
      "midi": 68,
      "hit": false,
      "t": 162352.86000000036,
      "d": 555.1467812499905,
      "v": 127
    },
    {
      "midi": 65,
      "hit": false,
      "t": 162352.86000000036,
      "d": 569.8526562500047,
      "v": 127
    },
    {
      "midi": 49,
      "hit": false,
      "t": 162352.86000000036,
      "d": 764.7055000000109,
      "v": 127
    },
    {
      "midi": 37,
      "hit": false,
      "t": 162352.86000000036,
      "d": 775.7349062499998,
      "v": 127
    },
    {
      "midi": 61,
      "hit": false,
      "t": 163058.74200000038,
      "d": 555.1467812499905,
      "v": 127
    },
    {
      "midi": 65,
      "hit": false,
      "t": 163058.74200000038,
      "d": 558.8232499999867,
      "v": 127
    },
    {
      "midi": 68,
      "hit": false,
      "t": 163058.74200000038,
      "d": 624.9996874999779,
      "v": 127
    },
    {
      "midi": 49,
      "hit": false,
      "t": 163411.68300000037,
      "d": 238.9704687499907,
      "v": 127
    },
    {
      "midi": 37,
      "hit": false,
      "t": 163411.68300000037,
      "d": 249.9998749999795,
      "v": 127
    },
    {
      "midi": 59,
      "hit": false,
      "t": 163764.62400000036,
      "d": 540.4409062500054,
      "v": 127
    },
    {
      "midi": 66,
      "hit": false,
      "t": 163764.62400000036,
      "d": 584.5585312500189,
      "v": 127
    },
    {
      "midi": 63,
      "hit": false,
      "t": 163764.62400000036,
      "d": 602.9408750000293,
      "v": 127
    },
    {
      "midi": 35,
      "hit": false,
      "t": 163764.62400000036,
      "d": 904.411312500044,
      "v": 127
    },
    {
      "midi": 47,
      "hit": false,
      "t": 163764.62400000036,
      "d": 915.4407187500328,
      "v": 127
    },
    {
      "midi": 59,
      "hit": false,
      "t": 164470.5060000004,
      "d": 555.1467812499905,
      "v": 127
    },
    {
      "midi": 66,
      "hit": false,
      "t": 164470.5060000004,
      "d": 584.5585312499898,
      "v": 127
    },
    {
      "midi": 63,
      "hit": false,
      "t": 164470.5060000004,
      "d": 610.2938124999928,
      "v": 127
    },
    {
      "midi": 35,
      "hit": false,
      "t": 164823.4470000004,
      "d": 194.8528437500063,
      "v": 127
    },
    {
      "midi": 47,
      "hit": false,
      "t": 164823.4470000004,
      "d": 238.9704687499907,
      "v": 127
    },
    {
      "midi": 59,
      "hit": false,
      "t": 165176.38800000038,
      "d": 551.4703124999942,
      "v": 127
    },
    {
      "midi": 66,
      "hit": false,
      "t": 165176.38800000038,
      "d": 595.5879375000077,
      "v": 127
    },
    {
      "midi": 63,
      "hit": false,
      "t": 165176.38800000038,
      "d": 606.6173437499965,
      "v": 127
    },
    {
      "midi": 35,
      "hit": false,
      "t": 165176.38800000038,
      "d": 790.4407812499849,
      "v": 127
    },
    {
      "midi": 47,
      "hit": false,
      "t": 165176.38800000038,
      "d": 801.4701874999737,
      "v": 127
    },
    {
      "midi": 59,
      "hit": false,
      "t": 165882.27000000037,
      "d": 319.85278124999604,
      "v": 127
    },
    {
      "midi": 63,
      "hit": false,
      "t": 165882.27000000037,
      "d": 389.70568749998347,
      "v": 127
    },
    {
      "midi": 66,
      "hit": false,
      "t": 165882.27000000037,
      "d": 419.11743749998277,
      "v": 127
    },
    {
      "midi": 35,
      "hit": false,
      "t": 166235.21100000036,
      "d": 209.55871874999139,
      "v": 127
    },
    {
      "midi": 47,
      "hit": false,
      "t": 166235.21100000036,
      "d": 279.4116249999788,
      "v": 127
    },
    {
      "midi": 49,
      "hit": false,
      "t": 166588.15200000035,
      "d": 279.4116250000079,
      "v": 127
    },
    {
      "midi": 68,
      "hit": false,
      "t": 166588.15200000035,
      "d": 540.4409062500345,
      "v": 127
    },
    {
      "midi": 66,
      "hit": false,
      "t": 166588.15200000035,
      "d": 584.558531250048,
      "v": 127
    },
    {
      "midi": 61,
      "hit": false,
      "t": 166588.15200000035,
      "d": 2312.498843750014,
      "v": 127
    },
    {
      "midi": 37,
      "hit": false,
      "t": 166588.15200000035,
      "d": 2382.3517500000016,
      "v": 127
    },
    {
      "midi": 49,
      "hit": false,
      "t": 166941.09300000037,
      "d": 613.9702812500182,
      "v": 127
    },
    {
      "midi": 66,
      "hit": false,
      "t": 167294.0340000004,
      "d": 499.9997499999881,
      "v": 127
    },
    {
      "midi": 68,
      "hit": false,
      "t": 167294.0340000004,
      "d": 654.4114374999772,
      "v": 127
    },
    {
      "midi": 49,
      "hit": false,
      "t": 167646.97500000038,
      "d": 1408.0875312499702,
      "v": 127
    },
    {
      "midi": 65,
      "hit": false,
      "t": 167999.91600000038,
      "d": 1033.0877187499718,
      "v": 127
    },
    {
      "midi": 68,
      "hit": false,
      "t": 167999.91600000038,
      "d": 1069.8524062499637,
      "v": 127
    },
    {
      "midi": 61,
      "hit": false,
      "t": 169058.73900000035,
      "d": 264.7057499999937,
      "v": 127
    },
    {
      "midi": 59,
      "hit": false,
      "t": 169411.68000000034,
      "d": 525.7350312499912,
      "v": 127
    },
    {
      "midi": 68,
      "hit": false,
      "t": 169411.68000000034,
      "d": 551.4703124999942,
      "v": 127
    },
    {
      "midi": 64,
      "hit": false,
      "t": 169411.68000000034,
      "d": 566.1761875000084,
      "v": 127
    },
    {
      "midi": 40,
      "hit": false,
      "t": 169411.68000000034,
      "d": 974.2642187500023,
      "v": 127
    },
    {
      "midi": 52,
      "hit": false,
      "t": 169411.68000000034,
      "d": 988.9700937500165,
      "v": 127
    },
    {
      "midi": 59,
      "hit": false,
      "t": 170117.56200000035,
      "d": 595.5879374999786,
      "v": 127
    },
    {
      "midi": 68,
      "hit": false,
      "t": 170117.56200000035,
      "d": 639.7055624999921,
      "v": 127
    },
    {
      "midi": 64,
      "hit": false,
      "t": 170117.56200000035,
      "d": 650.7349687499809,
      "v": 127
    },
    {
      "midi": 40,
      "hit": false,
      "t": 170470.50300000035,
      "d": 349.26453124999534,
      "v": 127
    },
    {
      "midi": 52,
      "hit": false,
      "t": 170470.50300000035,
      "d": 363.97040624998044,
      "v": 127
    },
    {
      "midi": 56,
      "hit": false,
      "t": 170823.44400000034,
      "d": 319.85278124999604,
      "v": 127
    },
    {
      "midi": 44,
      "hit": false,
      "t": 170823.44400000034,
      "d": 338.2351250000065,
      "v": 127
    },
    {
      "midi": 59,
      "hit": false,
      "t": 170823.44400000034,
      "d": 558.8232500000158,
      "v": 127
    },
    {
      "midi": 64,
      "hit": false,
      "t": 170823.44400000034,
      "d": 613.9702812500182,
      "v": 127
    },
    {
      "midi": 68,
      "hit": false,
      "t": 170823.44400000034,
      "d": 613.9702812500182,
      "v": 127
    },
    {
      "midi": 45,
      "hit": false,
      "t": 171176.38500000036,
      "d": 290.44103124999674,
      "v": 127
    },
    {
      "midi": 57,
      "hit": false,
      "t": 171176.38500000036,
      "d": 330.88218749998487,
      "v": 127
    },
    {
      "midi": 59,
      "hit": false,
      "t": 171529.32600000035,
      "d": 238.9704687499907,
      "v": 127
    },
    {
      "midi": 64,
      "hit": false,
      "t": 171529.32600000035,
      "d": 264.7057499999937,
      "v": 127
    },
    {
      "midi": 68,
      "hit": false,
      "t": 171529.32600000035,
      "d": 264.7057499999937,
      "v": 127
    },
    {
      "midi": 58,
      "hit": false,
      "t": 171529.32600000035,
      "d": 305.14690624998184,
      "v": 127
    },
    {
      "midi": 46,
      "hit": false,
      "t": 171529.32600000035,
      "d": 319.85278124999604,
      "v": 127
    },
    {
      "midi": 66,
      "hit": false,
      "t": 171882.26700000034,
      "d": 930.1465937499888,
      "v": 127
    },
    {
      "midi": 63,
      "hit": false,
      "t": 171882.26700000034,
      "d": 933.8230624999851,
      "v": 127
    },
    {
      "midi": 47,
      "hit": false,
      "t": 171882.26700000034,
      "d": 1312.4993437499797,
      "v": 127
    },
    {
      "midi": 59,
      "hit": false,
      "t": 171882.26700000034,
      "d": 1363.9699062499858,
      "v": 127
    },
    {
      "midi": 63,
      "hit": false,
      "t": 172941.09000000032,
      "d": 569.8526562500338,
      "v": 127
    },
    {
      "midi": 66,
      "hit": false,
      "t": 172941.09000000032,
      "d": 569.8526562500338,
      "v": 127
    },
    {
      "midi": 47,
      "hit": false,
      "t": 173294.03100000034,
      "d": 294.1175000000221,
      "v": 127
    },
    {
      "midi": 59,
      "hit": false,
      "t": 173294.03100000034,
      "d": 294.1175000000221,
      "v": 127
    },
    {
      "midi": 63,
      "hit": false,
      "t": 173646.97200000036,
      "d": 613.9702812499891,
      "v": 127
    },
    {
      "midi": 66,
      "hit": false,
      "t": 173646.97200000036,
      "d": 613.9702812499891,
      "v": 127
    },
    {
      "midi": 47,
      "hit": false,
      "t": 173646.97200000036,
      "d": 948.5289374999702,
      "v": 127
    },
    {
      "midi": 59,
      "hit": false,
      "t": 173646.97200000036,
      "d": 988.9700937499583,
      "v": 127
    },
    {
      "midi": 63,
      "hit": false,
      "t": 174352.85400000034,
      "d": 569.8526562499756,
      "v": 127
    },
    {
      "midi": 66,
      "hit": false,
      "t": 174352.85400000034,
      "d": 610.2938124999637,
      "v": 127
    },
    {
      "midi": 59,
      "hit": false,
      "t": 174705.7950000003,
      "d": 345.58806249999907,
      "v": 127
    },
    {
      "midi": 47,
      "hit": false,
      "t": 174705.7950000003,
      "d": 349.26453124999534,
      "v": 127
    },
    {
      "midi": 61,
      "hit": false,
      "t": 175058.7360000003,
      "d": 529.4114999999874,
      "v": 127
    },
    {
      "midi": 66,
      "hit": false,
      "t": 175058.7360000003,
      "d": 555.1467812499905,
      "v": 127
    },
    {
      "midi": 70,
      "hit": false,
      "t": 175058.7360000003,
      "d": 555.1467812499905,
      "v": 127
    },
    {
      "midi": 42,
      "hit": false,
      "t": 175058.7360000003,
      "d": 849.2642812499835,
      "v": 127
    },
    {
      "midi": 54,
      "hit": false,
      "t": 175058.7360000003,
      "d": 863.9701562499977,
      "v": 127
    },
    {
      "midi": 61,
      "hit": false,
      "t": 175764.61800000028,
      "d": 514.7056250000314,
      "v": 127
    },
    {
      "midi": 66,
      "hit": false,
      "t": 175764.61800000028,
      "d": 566.1761875000375,
      "v": 127
    },
    {
      "midi": 70,
      "hit": false,
      "t": 175764.61800000028,
      "d": 566.1761875000375,
      "v": 127
    },
    {
      "midi": 54,
      "hit": false,
      "t": 176117.5590000003,
      "d": 363.97040625000955,
      "v": 127
    },
    {
      "midi": 42,
      "hit": false,
      "t": 176117.5590000003,
      "d": 378.67628125002375,
      "v": 127
    },
    {
      "midi": 46,
      "hit": false,
      "t": 176470.50000000032,
      "d": 290.44103124999674,
      "v": 127
    },
    {
      "midi": 58,
      "hit": false,
      "t": 176470.50000000032,
      "d": 360.29393749998417,
      "v": 127
    },
    {
      "midi": 61,
      "hit": false,
      "t": 176470.50000000032,
      "d": 503.6762187499844,
      "v": 127
    },
    {
      "midi": 66,
      "hit": false,
      "t": 176470.50000000032,
      "d": 555.1467812499905,
      "v": 127
    },
    {
      "midi": 70,
      "hit": false,
      "t": 176470.50000000032,
      "d": 558.8232499999867,
      "v": 127
    },
    {
      "midi": 59,
      "hit": false,
      "t": 176823.4410000003,
      "d": 360.29393749998417,
      "v": 127
    },
    {
      "midi": 47,
      "hit": false,
      "t": 176823.4410000003,
      "d": 374.99981249999837,
      "v": 127
    },
    {
      "midi": 61,
      "hit": false,
      "t": 177176.3820000003,
      "d": 220.5881250000093,
      "v": 127
    },
    {
      "midi": 66,
      "hit": false,
      "t": 177176.3820000003,
      "d": 249.99987500000861,
      "v": 127
    },
    {
      "midi": 70,
      "hit": false,
      "t": 177176.3820000003,
      "d": 264.7057500000228,
      "v": 127
    },
    {
      "midi": 48,
      "hit": false,
      "t": 177176.3820000003,
      "d": 334.55865625001024,
      "v": 127
    },
    {
      "midi": 60,
      "hit": false,
      "t": 177176.3820000003,
      "d": 363.97040625000955,
      "v": 127
    },
    {
      "midi": 68,
      "hit": false,
      "t": 177529.32300000032,
      "d": 874.9995624999865,
      "v": 127
    },
    {
      "midi": 65,
      "hit": false,
      "t": 177529.32300000032,
      "d": 889.7054375000007,
      "v": 127
    },
    {
      "midi": 49,
      "hit": false,
      "t": 177529.32300000032,
      "d": 1294.1169999999984,
      "v": 127
    },
    {
      "midi": 61,
      "hit": false,
      "t": 177529.32300000032,
      "d": 1349.2640312500007,
      "v": 127
    },
    {
      "midi": 65,
      "hit": false,
      "t": 178588.14600000033,
      "d": 555.1467812499905,
      "v": 127
    },
    {
      "midi": 68,
      "hit": false,
      "t": 178588.14600000033,
      "d": 555.1467812499905,
      "v": 127
    },
    {
      "midi": 49,
      "hit": false,
      "t": 178941.08700000032,
      "d": 279.4116250000079,
      "v": 127
    },
    {
      "midi": 61,
      "hit": false,
      "t": 178941.08700000032,
      "d": 290.44103124999674,
      "v": 127
    },
    {
      "midi": 65,
      "hit": false,
      "t": 179294.0280000003,
      "d": 613.9702812499891,
      "v": 127
    },
    {
      "midi": 68,
      "hit": false,
      "t": 179294.0280000003,
      "d": 613.9702812499891,
      "v": 127
    },
    {
      "midi": 49,
      "hit": false,
      "t": 179294.0280000003,
      "d": 867.6466249999648,
      "v": 127
    },
    {
      "midi": 61,
      "hit": false,
      "t": 179294.0280000003,
      "d": 867.6466249999648,
      "v": 127
    },
    {
      "midi": 65,
      "hit": false,
      "t": 179999.9100000003,
      "d": 99.26465624998673,
      "v": 127
    },
    {
      "midi": 68,
      "hit": false,
      "t": 179999.9100000003,
      "d": 99.26465624998673,
      "v": 127
    },
    {
      "midi": 59,
      "hit": false,
      "t": 180176.3805000003,
      "d": 386.0292187499872,
      "v": 127
    },
    {
      "midi": 63,
      "hit": false,
      "t": 180176.3805000003,
      "d": 430.1468437500007,
      "v": 127
    },
    {
      "midi": 66,
      "hit": false,
      "t": 180176.3805000003,
      "d": 430.1468437500007,
      "v": 127
    },
    {
      "midi": 39,
      "hit": false,
      "t": 180176.3805000003,
      "d": 474.2644687500142,
      "v": 127
    },
    {
      "midi": 51,
      "hit": false,
      "t": 180176.3805000003,
      "d": 518.3820937500277,
      "v": 127
    },
    {
      "midi": 59,
      "hit": false,
      "t": 180705.7920000003,
      "d": 485.293875000003,
      "v": 127
    },
    {
      "midi": 68,
      "hit": false,
      "t": 180705.7920000003,
      "d": 529.4115000000165,
      "v": 127
    },
    {
      "midi": 64,
      "hit": false,
      "t": 180705.7920000003,
      "d": 555.1467812500196,
      "v": 127
    },
    {
      "midi": 40,
      "hit": false,
      "t": 180705.7920000003,
      "d": 908.0877812500112,
      "v": 127
    },
    {
      "midi": 52,
      "hit": false,
      "t": 180705.7920000003,
      "d": 933.8230625000142,
      "v": 127
    },
    {
      "midi": 59,
      "hit": false,
      "t": 181411.67400000032,
      "d": 514.7056250000023,
      "v": 127
    },
    {
      "midi": 68,
      "hit": false,
      "t": 181411.67400000032,
      "d": 573.5291250000009,
      "v": 127
    },
    {
      "midi": 64,
      "hit": false,
      "t": 181411.67400000032,
      "d": 584.5585312499898,
      "v": 127
    },
    {
      "midi": 52,
      "hit": false,
      "t": 181764.6150000003,
      "d": 345.58806249999907,
      "v": 127
    },
    {
      "midi": 40,
      "hit": false,
      "t": 181764.6150000003,
      "d": 349.26453124999534,
      "v": 127
    },
    {
      "midi": 56,
      "hit": false,
      "t": 182117.5560000003,
      "d": 319.85278124999604,
      "v": 127
    },
    {
      "midi": 44,
      "hit": false,
      "t": 182117.5560000003,
      "d": 334.55865625001024,
      "v": 127
    },
    {
      "midi": 59,
      "hit": false,
      "t": 182117.5560000003,
      "d": 544.1173750000307,
      "v": 127
    },
    {
      "midi": 68,
      "hit": false,
      "t": 182117.5560000003,
      "d": 569.8526562500338,
      "v": 127
    },
    {
      "midi": 64,
      "hit": false,
      "t": 182117.5560000003,
      "d": 599.2644062500331,
      "v": 127
    },
    {
      "midi": 45,
      "hit": false,
      "t": 182470.49700000032,
      "d": 305.14690625001094,
      "v": 127
    },
    {
      "midi": 57,
      "hit": false,
      "t": 182470.49700000032,
      "d": 334.55865625001024,
      "v": 127
    },
    {
      "midi": 59,
      "hit": false,
      "t": 182823.43800000034,
      "d": 249.99987500000861,
      "v": 127
    },
    {
      "midi": 68,
      "hit": false,
      "t": 182823.43800000034,
      "d": 264.7057500000228,
      "v": 127
    },
    {
      "midi": 64,
      "hit": false,
      "t": 182823.43800000034,
      "d": 290.44103125002584,
      "v": 127
    },
    {
      "midi": 58,
      "hit": false,
      "t": 182823.43800000034,
      "d": 305.14690625004005,
      "v": 127
    },
    {
      "midi": 46,
      "hit": false,
      "t": 182823.43800000034,
      "d": 334.55865625003935,
      "v": 127
    },
    {
      "midi": 66,
      "hit": false,
      "t": 183176.3790000004,
      "d": 849.2642812500126,
      "v": 127
    },
    {
      "midi": 63,
      "hit": false,
      "t": 183176.3790000004,
      "d": 863.9701562500268,
      "v": 127
    },
    {
      "midi": 47,
      "hit": false,
      "t": 183176.3790000004,
      "d": 1297.7934687500237,
      "v": 127
    },
    {
      "midi": 59,
      "hit": false,
      "t": 183176.3790000004,
      "d": 1338.2346250000119,
      "v": 127
    },
    {
      "midi": 66,
      "hit": false,
      "t": 184235.20200000043,
      "d": 555.1467812499905,
      "v": 127
    },
    {
      "midi": 63,
      "hit": false,
      "t": 184235.20200000043,
      "d": 584.5585312499898,
      "v": 127
    },
    {
      "midi": 47,
      "hit": false,
      "t": 184588.14300000042,
      "d": 224.2645937500056,
      "v": 127
    },
    {
      "midi": 59,
      "hit": false,
      "t": 184588.14300000042,
      "d": 235.2939999999944,
      "v": 127
    },
    {
      "midi": 66,
      "hit": false,
      "t": 184941.0840000004,
      "d": 544.1173750000016,
      "v": 127
    },
    {
      "midi": 63,
      "hit": false,
      "t": 184941.0840000004,
      "d": 569.8526562500047,
      "v": 127
    },
    {
      "midi": 47,
      "hit": false,
      "t": 184941.0840000004,
      "d": 908.0877812500112,
      "v": 127
    },
    {
      "midi": 59,
      "hit": false,
      "t": 184941.0840000004,
      "d": 933.8230625000142,
      "v": 127
    },
    {
      "midi": 63,
      "hit": false,
      "t": 185646.96600000042,
      "d": 499.9997499999881,
      "v": 127
    },
    {
      "midi": 66,
      "hit": false,
      "t": 185646.96600000042,
      "d": 499.9997499999881,
      "v": 127
    },
    {
      "midi": 47,
      "hit": false,
      "t": 185999.9070000004,
      "d": 349.26453124999534,
      "v": 127
    },
    {
      "midi": 59,
      "hit": false,
      "t": 185999.9070000004,
      "d": 363.97040624998044,
      "v": 127
    },
    {
      "midi": 68,
      "hit": false,
      "t": 186352.8480000004,
      "d": 599.2644062499749,
      "v": 127
    },
    {
      "midi": 66,
      "hit": false,
      "t": 186352.8480000004,
      "d": 628.6761562499742,
      "v": 127
    },
    {
      "midi": 49,
      "hit": false,
      "t": 186352.8480000004,
      "d": 2672.7927812499984,
      "v": 127
    },
    {
      "midi": 61,
      "hit": false,
      "t": 186352.8480000004,
      "d": 2702.2045312499977,
      "v": 127
    },
    {
      "midi": 68,
      "hit": false,
      "t": 187058.7300000004,
      "d": 555.1467812499905,
      "v": 127
    },
    {
      "midi": 66,
      "hit": false,
      "t": 187058.7300000004,
      "d": 573.5291250000009,
      "v": 127
    },
    {
      "midi": 65,
      "hit": false,
      "t": 187764.6120000004,
      "d": 569.8526562500047,
      "v": 127
    },
    {
      "midi": 68,
      "hit": false,
      "t": 187764.6120000004,
      "d": 584.5585312500189,
      "v": 127
    },
    {
      "midi": 65,
      "hit": false,
      "t": 188470.4940000004,
      "d": 558.8232499999867,
      "v": 127
    },
    {
      "midi": 68,
      "hit": false,
      "t": 188470.4940000004,
      "d": 599.264406250004,
      "v": 127
    },
    {
      "midi": 59,
      "hit": false,
      "t": 189176.37600000043,
      "d": 540.4409062500054,
      "v": 127
    },
    {
      "midi": 63,
      "hit": false,
      "t": 189176.37600000043,
      "d": 584.5585312500189,
      "v": 127
    },
    {
      "midi": 66,
      "hit": false,
      "t": 189176.37600000043,
      "d": 584.5585312500189,
      "v": 127
    },
    {
      "midi": 61,
      "hit": false,
      "t": 189176.37600000043,
      "d": 2297.792968750029,
      "v": 127
    },
    {
      "midi": 49,
      "hit": false,
      "t": 189176.37600000043,
      "d": 2341.9105937500426,
      "v": 127
    },
    {
      "midi": 59,
      "hit": false,
      "t": 189882.25800000044,
      "d": 488.9703437499993,
      "v": 127
    },
    {
      "midi": 63,
      "hit": false,
      "t": 189882.25800000044,
      "d": 540.4409062500054,
      "v": 127
    },
    {
      "midi": 66,
      "hit": false,
      "t": 189882.25800000044,
      "d": 569.8526562500047,
      "v": 127
    },
    {
      "midi": 65,
      "hit": false,
      "t": 190588.14000000045,
      "d": 599.264406250004,
      "v": 127
    },
    {
      "midi": 68,
      "hit": false,
      "t": 190588.14000000045,
      "d": 599.264406250004,
      "v": 127
    },
    {
      "midi": 61,
      "hit": false,
      "t": 191999.90400000048,
      "d": 514.7056250000023,
      "v": 127
    },
    {
      "midi": 66,
      "hit": false,
      "t": 191999.90400000048,
      "d": 584.5585312499898,
      "v": 127
    },
    {
      "midi": 70,
      "hit": false,
      "t": 191999.90400000048,
      "d": 584.5585312499898,
      "v": 127
    },
    {
      "midi": 42,
      "hit": false,
      "t": 191999.90400000048,
      "d": 878.6760312499828,
      "v": 127
    },
    {
      "midi": 54,
      "hit": false,
      "t": 191999.90400000048,
      "d": 878.6760312499828,
      "v": 127
    },
    {
      "midi": 61,
      "hit": false,
      "t": 192705.78600000046,
      "d": 599.264406250004,
      "v": 127
    },
    {
      "midi": 66,
      "hit": false,
      "t": 192705.78600000046,
      "d": 624.999687500007,
      "v": 127
    },
    {
      "midi": 70,
      "hit": false,
      "t": 192705.78600000046,
      "d": 624.999687500007,
      "v": 127
    },
    {
      "midi": 42,
      "hit": false,
      "t": 193058.72700000045,
      "d": 249.99987500000861,
      "v": 127
    },
    {
      "midi": 54,
      "hit": false,
      "t": 193058.72700000045,
      "d": 249.99987500000861,
      "v": 127
    },
    {
      "midi": 61,
      "hit": false,
      "t": 193411.66800000047,
      "d": 558.8232499999867,
      "v": 127
    },
    {
      "midi": 66,
      "hit": false,
      "t": 193411.66800000047,
      "d": 610.2938124999928,
      "v": 127
    },
    {
      "midi": 70,
      "hit": false,
      "t": 193411.66800000047,
      "d": 621.3232187499816,
      "v": 127
    },
    {
      "midi": 54,
      "hit": false,
      "t": 193411.66800000047,
      "d": 805.14665624997,
      "v": 127
    },
    {
      "midi": 42,
      "hit": false,
      "t": 193411.66800000047,
      "d": 808.8231249999662,
      "v": 127
    },
    {
      "midi": 61,
      "hit": false,
      "t": 194117.55000000045,
      "d": 323.5292499999923,
      "v": 127
    },
    {
      "midi": 66,
      "hit": false,
      "t": 194117.55000000045,
      "d": 448.5291874999821,
      "v": 127
    },
    {
      "midi": 70,
      "hit": false,
      "t": 194117.55000000045,
      "d": 448.5291874999821,
      "v": 127
    },
    {
      "midi": 61,
      "hit": false,
      "t": 194470.49100000045,
      "d": 110.29406250000466,
      "v": 127
    },
    {
      "midi": 54,
      "hit": false,
      "t": 194470.49100000045,
      "d": 165.44109375000698,
      "v": 127
    },
    {
      "midi": 42,
      "hit": false,
      "t": 194470.49100000045,
      "d": 180.1469687500212,
      "v": 127
    },
    {
      "midi": 61,
      "hit": false,
      "t": 194823.43200000047,
      "d": 599.264406250004,
      "v": 127
    },
    {
      "midi": 68,
      "hit": false,
      "t": 194823.43200000047,
      "d": 639.7055624999921,
      "v": 127
    },
    {
      "midi": 65,
      "hit": false,
      "t": 194823.43200000047,
      "d": 654.4114375000063,
      "v": 127
    },
    {
      "midi": 37,
      "hit": false,
      "t": 194823.43200000047,
      "d": 834.5584062499984,
      "v": 127
    },
    {
      "midi": 49,
      "hit": false,
      "t": 194823.43200000047,
      "d": 849.2642812500126,
      "v": 127
    },
    {
      "midi": 61,
      "hit": false,
      "t": 195529.31400000048,
      "d": 588.234999999986,
      "v": 127
    },
    {
      "midi": 65,
      "hit": false,
      "t": 195529.31400000048,
      "d": 610.2938124999928,
      "v": 127
    },
    {
      "midi": 68,
      "hit": false,
      "t": 195529.31400000048,
      "d": 624.999687500007,
      "v": 127
    },
    {
      "midi": 37,
      "hit": false,
      "t": 195882.25500000047,
      "d": 253.6763437500049,
      "v": 127
    },
    {
      "midi": 49,
      "hit": false,
      "t": 195882.25500000047,
      "d": 253.6763437500049,
      "v": 127
    },
    {
      "midi": 61,
      "hit": false,
      "t": 196235.1960000005,
      "d": 540.4409062500054,
      "v": 127
    },
    {
      "midi": 65,
      "hit": false,
      "t": 196235.1960000005,
      "d": 580.8820624999935,
      "v": 127
    },
    {
      "midi": 68,
      "hit": false,
      "t": 196235.1960000005,
      "d": 580.8820624999935,
      "v": 127
    },
    {
      "midi": 37,
      "hit": false,
      "t": 196235.1960000005,
      "d": 805.14665624997,
      "v": 127
    },
    {
      "midi": 49,
      "hit": false,
      "t": 196235.1960000005,
      "d": 805.14665624997,
      "v": 127
    },
    {
      "midi": 61,
      "hit": false,
      "t": 196941.07800000047,
      "d": 374.99981249999837,
      "v": 127
    },
    {
      "midi": 68,
      "hit": false,
      "t": 196941.07800000047,
      "d": 474.2644687499851,
      "v": 127
    },
    {
      "midi": 65,
      "hit": false,
      "t": 196941.07800000047,
      "d": 485.2938749999739,
      "v": 127
    },
    {
      "midi": 37,
      "hit": false,
      "t": 197294.01900000047,
      "d": 205.8822499999951,
      "v": 127
    },
    {
      "midi": 49,
      "hit": false,
      "t": 197294.01900000047,
      "d": 205.8822499999951,
      "v": 127
    },
    {
      "midi": 61,
      "hit": false,
      "t": 197470.48950000046,
      "d": 113.97053125000093,
      "v": 127
    },
    {
      "midi": 59,
      "hit": false,
      "t": 197646.96000000046,
      "d": 569.8526562500047,
      "v": 127
    },
    {
      "midi": 66,
      "hit": false,
      "t": 197646.96000000046,
      "d": 643.3820312500175,
      "v": 127
    },
    {
      "midi": 63,
      "hit": false,
      "t": 197646.96000000046,
      "d": 654.4114375000063,
      "v": 127
    },
    {
      "midi": 35,
      "hit": false,
      "t": 197646.96000000046,
      "d": 834.5584062499984,
      "v": 127
    },
    {
      "midi": 47,
      "hit": false,
      "t": 197646.96000000046,
      "d": 860.2936875000014,
      "v": 127
    },
    {
      "midi": 59,
      "hit": false,
      "t": 198352.84200000047,
      "d": 610.2938124999928,
      "v": 127
    },
    {
      "midi": 63,
      "hit": false,
      "t": 198352.84200000047,
      "d": 639.7055624999921,
      "v": 127
    },
    {
      "midi": 66,
      "hit": false,
      "t": 198352.84200000047,
      "d": 639.7055624999921,
      "v": 127
    },
    {
      "midi": 35,
      "hit": false,
      "t": 198705.78300000046,
      "d": 224.2645937500056,
      "v": 127
    },
    {
      "midi": 47,
      "hit": false,
      "t": 198705.78300000046,
      "d": 264.7057499999937,
      "v": 127
    },
    {
      "midi": 59,
      "hit": false,
      "t": 199058.72400000045,
      "d": 555.1467812499905,
      "v": 127
    },
    {
      "midi": 63,
      "hit": false,
      "t": 199058.72400000045,
      "d": 599.264406250004,
      "v": 127
    },
    {
      "midi": 66,
      "hit": false,
      "t": 199058.72400000045,
      "d": 610.2938124999928,
      "v": 127
    },
    {
      "midi": 35,
      "hit": false,
      "t": 199058.72400000045,
      "d": 794.1172499999811,
      "v": 127
    },
    {
      "midi": 47,
      "hit": false,
      "t": 199058.72400000045,
      "d": 805.14665624997,
      "v": 127
    },
    {
      "midi": 59,
      "hit": false,
      "t": 199764.60600000044,
      "d": 400.7350937500014,
      "v": 127
    },
    {
      "midi": 63,
      "hit": false,
      "t": 199764.60600000044,
      "d": 444.8527187500149,
      "v": 127
    },
    {
      "midi": 66,
      "hit": false,
      "t": 199764.60600000044,
      "d": 459.5585937500291,
      "v": 127
    },
    {
      "midi": 35,
      "hit": false,
      "t": 200117.54700000043,
      "d": 235.29400000002352,
      "v": 127
    },
    {
      "midi": 47,
      "hit": false,
      "t": 200117.54700000043,
      "d": 264.7057500000228,
      "v": 127
    },
    {
      "midi": 61,
      "hit": false,
      "t": 200470.48800000045,
      "d": 628.6761562500033,
      "v": 127
    },
    {
      "midi": 66,
      "hit": false,
      "t": 200470.48800000045,
      "d": 669.1173124999914,
      "v": 127
    },
    {
      "midi": 68,
      "hit": false,
      "t": 200470.48800000045,
      "d": 669.1173124999914,
      "v": 127
    },
    {
      "midi": 49,
      "hit": false,
      "t": 200470.48800000045,
      "d": 948.5289374999702,
      "v": 127
    },
    {
      "midi": 37,
      "hit": false,
      "t": 200470.48800000045,
      "d": 2147.057750000007,
      "v": 127
    },
    {
      "midi": 66,
      "hit": false,
      "t": 201176.37000000043,
      "d": 514.7056250000023,
      "v": 127
    },
    {
      "midi": 61,
      "hit": false,
      "t": 201176.37000000043,
      "d": 529.4115000000165,
      "v": 127
    },
    {
      "midi": 68,
      "hit": false,
      "t": 201176.37000000043,
      "d": 544.1173750000307,
      "v": 127
    },
    {
      "midi": 49,
      "hit": false,
      "t": 201529.31100000042,
      "d": 1099.2641562500212,
      "v": 127
    },
    {
      "midi": 61,
      "hit": false,
      "t": 201882.25200000047,
      "d": 514.7056250000023,
      "v": 127
    },
    {
      "midi": 65,
      "hit": false,
      "t": 201882.25200000047,
      "d": 584.5585312499898,
      "v": 127
    },
    {
      "midi": 68,
      "hit": false,
      "t": 201882.25200000047,
      "d": 584.5585312499898,
      "v": 127
    },
    {
      "midi": 61,
      "hit": false,
      "t": 202588.13400000046,
      "d": 330.88218749998487,
      "v": 127
    },
    {
      "midi": 65,
      "hit": false,
      "t": 202588.13400000046,
      "d": 470.5879999999888,
      "v": 127
    },
    {
      "midi": 68,
      "hit": false,
      "t": 202588.13400000046,
      "d": 485.293875000003,
      "v": 127
    },
    {
      "midi": 37,
      "hit": false,
      "t": 202941.07500000045,
      "d": 194.8528437500354,
      "v": 127
    },
    {
      "midi": 49,
      "hit": false,
      "t": 202941.07500000045,
      "d": 224.2645937500347,
      "v": 127
    },
    {
      "midi": 61,
      "hit": false,
      "t": 203117.54550000047,
      "d": 113.97053125000093,
      "v": 127
    },
    {
      "midi": 61,
      "hit": false,
      "t": 203294.01600000047,
      "d": 540.4409062500054,
      "v": 127
    },
    {
      "midi": 70,
      "hit": false,
      "t": 203294.01600000047,
      "d": 584.5585312500189,
      "v": 127
    },
    {
      "midi": 66,
      "hit": false,
      "t": 203294.01600000047,
      "d": 599.2644062500331,
      "v": 127
    },
    {
      "midi": 42,
      "hit": false,
      "t": 203294.01600000047,
      "d": 819.8525312500424,
      "v": 127
    },
    {
      "midi": 54,
      "hit": false,
      "t": 203294.01600000047,
      "d": 845.5878125000454,
      "v": 127
    },
    {
      "midi": 61,
      "hit": false,
      "t": 203999.8980000005,
      "d": 599.264406250004,
      "v": 127
    },
    {
      "midi": 66,
      "hit": false,
      "t": 203999.8980000005,
      "d": 628.6761562500033,
      "v": 127
    },
    {
      "midi": 70,
      "hit": false,
      "t": 203999.8980000005,
      "d": 628.6761562500033,
      "v": 127
    },
    {
      "midi": 42,
      "hit": false,
      "t": 204352.8390000005,
      "d": 264.7057500000228,
      "v": 127
    },
    {
      "midi": 54,
      "hit": false,
      "t": 204352.8390000005,
      "d": 264.7057500000228,
      "v": 127
    },
    {
      "midi": 61,
      "hit": false,
      "t": 204705.78000000052,
      "d": 536.7644375000091,
      "v": 127
    },
    {
      "midi": 70,
      "hit": false,
      "t": 204705.78000000052,
      "d": 580.8820625000226,
      "v": 127
    },
    {
      "midi": 66,
      "hit": false,
      "t": 204705.78000000052,
      "d": 591.9114687500114,
      "v": 127
    },
    {
      "midi": 42,
      "hit": false,
      "t": 204705.78000000052,
      "d": 805.1466562499991,
      "v": 127
    },
    {
      "midi": 54,
      "hit": false,
      "t": 204705.78000000052,
      "d": 805.1466562499991,
      "v": 127
    },
    {
      "midi": 61,
      "hit": false,
      "t": 205411.66200000054,
      "d": 363.97040624998044,
      "v": 127
    },
    {
      "midi": 70,
      "hit": false,
      "t": 205411.66200000054,
      "d": 507.3526874999807,
      "v": 127
    },
    {
      "midi": 66,
      "hit": false,
      "t": 205411.66200000054,
      "d": 518.3820937499695,
      "v": 127
    },
    {
      "midi": 54,
      "hit": false,
      "t": 205764.60300000053,
      "d": 194.85284374997718,
      "v": 127
    },
    {
      "midi": 42,
      "hit": false,
      "t": 205764.60300000053,
      "d": 205.882249999966,
      "v": 127
    },
    {
      "midi": 61,
      "hit": false,
      "t": 205941.0735000005,
      "d": 110.29406250000466,
      "v": 127
    },
    {
      "midi": 61,
      "hit": false,
      "t": 206117.5440000005,
      "d": 525.7350312499912,
      "v": 127
    },
    {
      "midi": 65,
      "hit": false,
      "t": 206117.5440000005,
      "d": 584.5585312499898,
      "v": 127
    },
    {
      "midi": 68,
      "hit": false,
      "t": 206117.5440000005,
      "d": 584.5585312499898,
      "v": 127
    },
    {
      "midi": 37,
      "hit": false,
      "t": 206117.5440000005,
      "d": 790.4407812499849,
      "v": 127
    },
    {
      "midi": 49,
      "hit": false,
      "t": 206117.5440000005,
      "d": 805.1466562499991,
      "v": 127
    },
    {
      "midi": 61,
      "hit": false,
      "t": 206823.42600000047,
      "d": 547.793843750027,
      "v": 127
    },
    {
      "midi": 68,
      "hit": false,
      "t": 206823.42600000047,
      "d": 584.5585312500189,
      "v": 127
    },
    {
      "midi": 65,
      "hit": false,
      "t": 206823.42600000047,
      "d": 599.2644062500331,
      "v": 127
    },
    {
      "midi": 37,
      "hit": false,
      "t": 207176.3670000005,
      "d": 224.2645937500056,
      "v": 127
    },
    {
      "midi": 49,
      "hit": false,
      "t": 207176.3670000005,
      "d": 224.2645937500056,
      "v": 127
    },
    {
      "midi": 61,
      "hit": false,
      "t": 207529.3080000005,
      "d": 529.4114999999874,
      "v": 127
    },
    {
      "midi": 68,
      "hit": false,
      "t": 207529.3080000005,
      "d": 555.1467812499905,
      "v": 127
    },
    {
      "midi": 65,
      "hit": false,
      "t": 207529.3080000005,
      "d": 569.8526562500047,
      "v": 127
    },
    {
      "midi": 49,
      "hit": false,
      "t": 207529.3080000005,
      "d": 764.7055000000109,
      "v": 127
    },
    {
      "midi": 37,
      "hit": false,
      "t": 207529.3080000005,
      "d": 775.7349062499998,
      "v": 127
    },
    {
      "midi": 61,
      "hit": false,
      "t": 208235.19000000053,
      "d": 555.1467812499905,
      "v": 127
    },
    {
      "midi": 65,
      "hit": false,
      "t": 208235.19000000053,
      "d": 558.8232499999867,
      "v": 127
    },
    {
      "midi": 68,
      "hit": false,
      "t": 208235.19000000053,
      "d": 624.9996874999779,
      "v": 127
    },
    {
      "midi": 49,
      "hit": false,
      "t": 208588.13100000052,
      "d": 238.9704687499907,
      "v": 127
    },
    {
      "midi": 37,
      "hit": false,
      "t": 208588.13100000052,
      "d": 249.9998749999795,
      "v": 127
    },
    {
      "midi": 59,
      "hit": false,
      "t": 208941.0720000005,
      "d": 540.4409062500054,
      "v": 127
    },
    {
      "midi": 66,
      "hit": false,
      "t": 208941.0720000005,
      "d": 584.5585312500189,
      "v": 127
    },
    {
      "midi": 63,
      "hit": false,
      "t": 208941.0720000005,
      "d": 602.9408750000293,
      "v": 127
    },
    {
      "midi": 35,
      "hit": false,
      "t": 208941.0720000005,
      "d": 904.411312500044,
      "v": 127
    },
    {
      "midi": 47,
      "hit": false,
      "t": 208941.0720000005,
      "d": 915.4407187500328,
      "v": 127
    },
    {
      "midi": 59,
      "hit": false,
      "t": 209646.95400000055,
      "d": 555.1467812499905,
      "v": 127
    },
    {
      "midi": 66,
      "hit": false,
      "t": 209646.95400000055,
      "d": 584.5585312499898,
      "v": 127
    },
    {
      "midi": 63,
      "hit": false,
      "t": 209646.95400000055,
      "d": 610.2938124999928,
      "v": 127
    },
    {
      "midi": 35,
      "hit": false,
      "t": 209999.89500000054,
      "d": 194.8528437500063,
      "v": 127
    },
    {
      "midi": 47,
      "hit": false,
      "t": 209999.89500000054,
      "d": 238.9704687499907,
      "v": 127
    },
    {
      "midi": 59,
      "hit": false,
      "t": 210352.83600000053,
      "d": 551.4703124999942,
      "v": 127
    },
    {
      "midi": 66,
      "hit": false,
      "t": 210352.83600000053,
      "d": 595.5879375000077,
      "v": 127
    },
    {
      "midi": 63,
      "hit": false,
      "t": 210352.83600000053,
      "d": 606.6173437499965,
      "v": 127
    },
    {
      "midi": 35,
      "hit": false,
      "t": 210352.83600000053,
      "d": 790.4407812499849,
      "v": 127
    },
    {
      "midi": 47,
      "hit": false,
      "t": 210352.83600000053,
      "d": 801.4701874999737,
      "v": 127
    },
    {
      "midi": 59,
      "hit": false,
      "t": 211058.71800000052,
      "d": 319.85278124999604,
      "v": 127
    },
    {
      "midi": 63,
      "hit": false,
      "t": 211058.71800000052,
      "d": 389.70568749998347,
      "v": 127
    },
    {
      "midi": 66,
      "hit": false,
      "t": 211058.71800000052,
      "d": 419.11743749998277,
      "v": 127
    },
    {
      "midi": 35,
      "hit": false,
      "t": 211411.6590000005,
      "d": 209.55871874999139,
      "v": 127
    },
    {
      "midi": 47,
      "hit": false,
      "t": 211411.6590000005,
      "d": 279.4116249999788,
      "v": 127
    },
    {
      "midi": 49,
      "hit": false,
      "t": 211764.6000000005,
      "d": 279.4116250000079,
      "v": 127
    },
    {
      "midi": 68,
      "hit": false,
      "t": 211764.6000000005,
      "d": 540.4409062500345,
      "v": 127
    },
    {
      "midi": 66,
      "hit": false,
      "t": 211764.6000000005,
      "d": 584.558531250048,
      "v": 127
    },
    {
      "midi": 61,
      "hit": false,
      "t": 211764.6000000005,
      "d": 2312.498843750014,
      "v": 127
    },
    {
      "midi": 37,
      "hit": false,
      "t": 211764.6000000005,
      "d": 2382.3517500000016,
      "v": 127
    },
    {
      "midi": 49,
      "hit": false,
      "t": 212117.54100000052,
      "d": 613.9702812500182,
      "v": 127
    },
    {
      "midi": 66,
      "hit": false,
      "t": 212470.48200000054,
      "d": 499.9997499999881,
      "v": 127
    },
    {
      "midi": 68,
      "hit": false,
      "t": 212470.48200000054,
      "d": 654.4114374999772,
      "v": 127
    },
    {
      "midi": 49,
      "hit": false,
      "t": 212823.42300000053,
      "d": 1408.0875312499702,
      "v": 127
    },
    {
      "midi": 65,
      "hit": false,
      "t": 213176.36400000053,
      "d": 1033.0877187499718,
      "v": 127
    },
    {
      "midi": 68,
      "hit": false,
      "t": 213176.36400000053,
      "d": 1069.8524062499637,
      "v": 127
    },
    {
      "midi": 61,
      "hit": false,
      "t": 214235.1870000005,
      "d": 264.7057499999937,
      "v": 127
    },
    {
      "midi": 61,
      "hit": false,
      "t": 214588.1280000005,
      "d": 514.7056250000023,
      "v": 127
    },
    {
      "midi": 66,
      "hit": false,
      "t": 214588.1280000005,
      "d": 584.5585312499898,
      "v": 127
    },
    {
      "midi": 70,
      "hit": false,
      "t": 214588.1280000005,
      "d": 584.5585312499898,
      "v": 127
    },
    {
      "midi": 42,
      "hit": false,
      "t": 214588.1280000005,
      "d": 878.6760312499828,
      "v": 127
    },
    {
      "midi": 54,
      "hit": false,
      "t": 214588.1280000005,
      "d": 878.6760312499828,
      "v": 127
    },
    {
      "midi": 61,
      "hit": false,
      "t": 215294.01000000047,
      "d": 599.264406250004,
      "v": 127
    },
    {
      "midi": 66,
      "hit": false,
      "t": 215294.01000000047,
      "d": 624.999687500007,
      "v": 127
    },
    {
      "midi": 70,
      "hit": false,
      "t": 215294.01000000047,
      "d": 624.999687500007,
      "v": 127
    },
    {
      "midi": 42,
      "hit": false,
      "t": 215646.95100000047,
      "d": 249.99987500000861,
      "v": 127
    },
    {
      "midi": 54,
      "hit": false,
      "t": 215646.95100000047,
      "d": 249.99987500000861,
      "v": 127
    },
    {
      "midi": 61,
      "hit": false,
      "t": 215999.8920000005,
      "d": 558.8232499999867,
      "v": 127
    },
    {
      "midi": 66,
      "hit": false,
      "t": 215999.8920000005,
      "d": 610.2938124999928,
      "v": 127
    },
    {
      "midi": 70,
      "hit": false,
      "t": 215999.8920000005,
      "d": 621.3232187499816,
      "v": 127
    },
    {
      "midi": 54,
      "hit": false,
      "t": 215999.8920000005,
      "d": 805.14665624997,
      "v": 127
    },
    {
      "midi": 42,
      "hit": false,
      "t": 215999.8920000005,
      "d": 808.8231249999662,
      "v": 127
    },
    {
      "midi": 61,
      "hit": false,
      "t": 216705.77400000047,
      "d": 323.5292499999923,
      "v": 127
    },
    {
      "midi": 66,
      "hit": false,
      "t": 216705.77400000047,
      "d": 448.5291874999821,
      "v": 127
    },
    {
      "midi": 70,
      "hit": false,
      "t": 216705.77400000047,
      "d": 448.5291874999821,
      "v": 127
    },
    {
      "midi": 61,
      "hit": false,
      "t": 217058.71500000046,
      "d": 110.29406250000466,
      "v": 127
    },
    {
      "midi": 54,
      "hit": false,
      "t": 217058.71500000046,
      "d": 165.44109375000698,
      "v": 127
    },
    {
      "midi": 42,
      "hit": false,
      "t": 217058.71500000046,
      "d": 180.1469687500212,
      "v": 127
    },
    {
      "midi": 61,
      "hit": false,
      "t": 217411.65600000048,
      "d": 599.264406250004,
      "v": 127
    },
    {
      "midi": 68,
      "hit": false,
      "t": 217411.65600000048,
      "d": 639.7055624999921,
      "v": 127
    },
    {
      "midi": 65,
      "hit": false,
      "t": 217411.65600000048,
      "d": 654.4114375000063,
      "v": 127
    },
    {
      "midi": 37,
      "hit": false,
      "t": 217411.65600000048,
      "d": 834.5584062499984,
      "v": 127
    },
    {
      "midi": 49,
      "hit": false,
      "t": 217411.65600000048,
      "d": 849.2642812500126,
      "v": 127
    },
    {
      "midi": 61,
      "hit": false,
      "t": 218117.5380000005,
      "d": 588.234999999986,
      "v": 127
    },
    {
      "midi": 65,
      "hit": false,
      "t": 218117.5380000005,
      "d": 610.2938124999928,
      "v": 127
    },
    {
      "midi": 68,
      "hit": false,
      "t": 218117.5380000005,
      "d": 624.999687500007,
      "v": 127
    },
    {
      "midi": 37,
      "hit": false,
      "t": 218470.4790000005,
      "d": 253.6763437500049,
      "v": 127
    },
    {
      "midi": 49,
      "hit": false,
      "t": 218470.4790000005,
      "d": 253.6763437500049,
      "v": 127
    },
    {
      "midi": 61,
      "hit": false,
      "t": 218823.4200000005,
      "d": 540.4409062500054,
      "v": 127
    },
    {
      "midi": 65,
      "hit": false,
      "t": 218823.4200000005,
      "d": 580.8820624999935,
      "v": 127
    },
    {
      "midi": 68,
      "hit": false,
      "t": 218823.4200000005,
      "d": 580.8820624999935,
      "v": 127
    },
    {
      "midi": 37,
      "hit": false,
      "t": 218823.4200000005,
      "d": 805.14665624997,
      "v": 127
    },
    {
      "midi": 49,
      "hit": false,
      "t": 218823.4200000005,
      "d": 805.14665624997,
      "v": 127
    },
    {
      "midi": 61,
      "hit": false,
      "t": 219529.3020000005,
      "d": 374.99981249999837,
      "v": 127
    },
    {
      "midi": 68,
      "hit": false,
      "t": 219529.3020000005,
      "d": 474.2644687499851,
      "v": 127
    },
    {
      "midi": 65,
      "hit": false,
      "t": 219529.3020000005,
      "d": 485.2938749999739,
      "v": 127
    },
    {
      "midi": 37,
      "hit": false,
      "t": 219882.24300000048,
      "d": 205.8822499999951,
      "v": 127
    },
    {
      "midi": 49,
      "hit": false,
      "t": 219882.24300000048,
      "d": 205.8822499999951,
      "v": 127
    },
    {
      "midi": 61,
      "hit": false,
      "t": 220058.71350000048,
      "d": 113.97053125000093,
      "v": 127
    },
    {
      "midi": 59,
      "hit": false,
      "t": 220235.18400000047,
      "d": 569.8526562500047,
      "v": 127
    },
    {
      "midi": 66,
      "hit": false,
      "t": 220235.18400000047,
      "d": 643.3820312500175,
      "v": 127
    },
    {
      "midi": 63,
      "hit": false,
      "t": 220235.18400000047,
      "d": 654.4114375000063,
      "v": 127
    },
    {
      "midi": 35,
      "hit": false,
      "t": 220235.18400000047,
      "d": 834.5584062499984,
      "v": 127
    },
    {
      "midi": 47,
      "hit": false,
      "t": 220235.18400000047,
      "d": 860.2936875000014,
      "v": 127
    },
    {
      "midi": 59,
      "hit": false,
      "t": 220941.0660000005,
      "d": 610.2938124999928,
      "v": 127
    },
    {
      "midi": 63,
      "hit": false,
      "t": 220941.0660000005,
      "d": 639.7055624999921,
      "v": 127
    },
    {
      "midi": 66,
      "hit": false,
      "t": 220941.0660000005,
      "d": 639.7055624999921,
      "v": 127
    },
    {
      "midi": 35,
      "hit": false,
      "t": 221294.00700000048,
      "d": 224.2645937500056,
      "v": 127
    },
    {
      "midi": 47,
      "hit": false,
      "t": 221294.00700000048,
      "d": 264.7057499999937,
      "v": 127
    },
    {
      "midi": 59,
      "hit": false,
      "t": 221646.94800000047,
      "d": 555.1467812499905,
      "v": 127
    },
    {
      "midi": 63,
      "hit": false,
      "t": 221646.94800000047,
      "d": 599.264406250004,
      "v": 127
    },
    {
      "midi": 66,
      "hit": false,
      "t": 221646.94800000047,
      "d": 610.2938124999928,
      "v": 127
    },
    {
      "midi": 35,
      "hit": false,
      "t": 221646.94800000047,
      "d": 794.1172499999811,
      "v": 127
    },
    {
      "midi": 47,
      "hit": false,
      "t": 221646.94800000047,
      "d": 805.14665624997,
      "v": 127
    },
    {
      "midi": 59,
      "hit": false,
      "t": 222352.83000000045,
      "d": 400.7350937500014,
      "v": 127
    },
    {
      "midi": 63,
      "hit": false,
      "t": 222352.83000000045,
      "d": 444.8527187500149,
      "v": 127
    },
    {
      "midi": 66,
      "hit": false,
      "t": 222352.83000000045,
      "d": 459.5585937500291,
      "v": 127
    },
    {
      "midi": 35,
      "hit": false,
      "t": 222705.77100000044,
      "d": 235.29400000002352,
      "v": 127
    },
    {
      "midi": 47,
      "hit": false,
      "t": 222705.77100000044,
      "d": 264.7057500000228,
      "v": 127
    },
    {
      "midi": 61,
      "hit": false,
      "t": 223058.71200000047,
      "d": 628.6761562500033,
      "v": 127
    },
    {
      "midi": 66,
      "hit": false,
      "t": 223058.71200000047,
      "d": 669.1173124999914,
      "v": 127
    },
    {
      "midi": 68,
      "hit": false,
      "t": 223058.71200000047,
      "d": 669.1173124999914,
      "v": 127
    },
    {
      "midi": 49,
      "hit": false,
      "t": 223058.71200000047,
      "d": 948.5289374999702,
      "v": 127
    },
    {
      "midi": 37,
      "hit": false,
      "t": 223058.71200000047,
      "d": 2147.057750000007,
      "v": 127
    },
    {
      "midi": 66,
      "hit": false,
      "t": 223764.59400000045,
      "d": 514.7056250000023,
      "v": 127
    },
    {
      "midi": 61,
      "hit": false,
      "t": 223764.59400000045,
      "d": 529.4115000000165,
      "v": 127
    },
    {
      "midi": 68,
      "hit": false,
      "t": 223764.59400000045,
      "d": 544.1173750000307,
      "v": 127
    },
    {
      "midi": 49,
      "hit": false,
      "t": 224117.53500000044,
      "d": 1099.2641562500212,
      "v": 127
    },
    {
      "midi": 61,
      "hit": false,
      "t": 224470.4760000005,
      "d": 514.7056250000023,
      "v": 127
    },
    {
      "midi": 65,
      "hit": false,
      "t": 224470.4760000005,
      "d": 584.5585312499898,
      "v": 127
    },
    {
      "midi": 68,
      "hit": false,
      "t": 224470.4760000005,
      "d": 584.5585312499898,
      "v": 127
    },
    {
      "midi": 61,
      "hit": false,
      "t": 225176.35800000047,
      "d": 330.88218749998487,
      "v": 127
    },
    {
      "midi": 65,
      "hit": false,
      "t": 225176.35800000047,
      "d": 470.5879999999888,
      "v": 127
    },
    {
      "midi": 68,
      "hit": false,
      "t": 225176.35800000047,
      "d": 485.293875000003,
      "v": 127
    },
    {
      "midi": 37,
      "hit": false,
      "t": 225529.29900000046,
      "d": 194.8528437500354,
      "v": 127
    },
    {
      "midi": 49,
      "hit": false,
      "t": 225529.29900000046,
      "d": 224.2645937500347,
      "v": 127
    },
    {
      "midi": 61,
      "hit": false,
      "t": 225705.7695000005,
      "d": 113.97053125000093,
      "v": 127
    },
    {
      "midi": 61,
      "hit": false,
      "t": 225882.2400000005,
      "d": 540.4409062500054,
      "v": 127
    },
    {
      "midi": 70,
      "hit": false,
      "t": 225882.2400000005,
      "d": 584.5585312500189,
      "v": 127
    },
    {
      "midi": 66,
      "hit": false,
      "t": 225882.2400000005,
      "d": 599.2644062500331,
      "v": 127
    },
    {
      "midi": 42,
      "hit": false,
      "t": 225882.2400000005,
      "d": 819.8525312500424,
      "v": 127
    },
    {
      "midi": 54,
      "hit": false,
      "t": 225882.2400000005,
      "d": 845.5878125000454,
      "v": 127
    },
    {
      "midi": 61,
      "hit": false,
      "t": 226588.12200000053,
      "d": 599.264406250004,
      "v": 127
    },
    {
      "midi": 66,
      "hit": false,
      "t": 226588.12200000053,
      "d": 628.6761562500033,
      "v": 127
    },
    {
      "midi": 70,
      "hit": false,
      "t": 226588.12200000053,
      "d": 628.6761562500033,
      "v": 127
    },
    {
      "midi": 42,
      "hit": false,
      "t": 226941.06300000052,
      "d": 264.7057500000228,
      "v": 127
    },
    {
      "midi": 54,
      "hit": false,
      "t": 226941.06300000052,
      "d": 264.7057500000228,
      "v": 127
    },
    {
      "midi": 61,
      "hit": false,
      "t": 227294.00400000054,
      "d": 536.7644375000091,
      "v": 127
    },
    {
      "midi": 70,
      "hit": false,
      "t": 227294.00400000054,
      "d": 580.8820625000226,
      "v": 127
    },
    {
      "midi": 66,
      "hit": false,
      "t": 227294.00400000054,
      "d": 591.9114687500114,
      "v": 127
    },
    {
      "midi": 42,
      "hit": false,
      "t": 227294.00400000054,
      "d": 805.1466562499991,
      "v": 127
    },
    {
      "midi": 54,
      "hit": false,
      "t": 227294.00400000054,
      "d": 805.1466562499991,
      "v": 127
    },
    {
      "midi": 61,
      "hit": false,
      "t": 227999.88600000055,
      "d": 363.97040624998044,
      "v": 127
    },
    {
      "midi": 70,
      "hit": false,
      "t": 227999.88600000055,
      "d": 507.3526874999807,
      "v": 127
    },
    {
      "midi": 66,
      "hit": false,
      "t": 227999.88600000055,
      "d": 518.3820937499695,
      "v": 127
    },
    {
      "midi": 54,
      "hit": false,
      "t": 228352.82700000054,
      "d": 194.85284374997718,
      "v": 127
    },
    {
      "midi": 42,
      "hit": false,
      "t": 228352.82700000054,
      "d": 205.882249999966,
      "v": 127
    },
    {
      "midi": 61,
      "hit": false,
      "t": 228529.2975000005,
      "d": 110.29406250000466,
      "v": 127
    },
    {
      "midi": 61,
      "hit": false,
      "t": 228705.7680000005,
      "d": 525.7350312499912,
      "v": 127
    },
    {
      "midi": 65,
      "hit": false,
      "t": 228705.7680000005,
      "d": 584.5585312499898,
      "v": 127
    },
    {
      "midi": 68,
      "hit": false,
      "t": 228705.7680000005,
      "d": 584.5585312499898,
      "v": 127
    },
    {
      "midi": 37,
      "hit": false,
      "t": 228705.7680000005,
      "d": 790.4407812499849,
      "v": 127
    },
    {
      "midi": 49,
      "hit": false,
      "t": 228705.7680000005,
      "d": 805.1466562499991,
      "v": 127
    },
    {
      "midi": 61,
      "hit": false,
      "t": 229411.6500000005,
      "d": 547.793843750027,
      "v": 127
    },
    {
      "midi": 68,
      "hit": false,
      "t": 229411.6500000005,
      "d": 584.5585312500189,
      "v": 127
    },
    {
      "midi": 65,
      "hit": false,
      "t": 229411.6500000005,
      "d": 599.2644062500331,
      "v": 127
    },
    {
      "midi": 37,
      "hit": false,
      "t": 229764.5910000005,
      "d": 224.2645937500056,
      "v": 127
    },
    {
      "midi": 49,
      "hit": false,
      "t": 229764.5910000005,
      "d": 224.2645937500056,
      "v": 127
    },
    {
      "midi": 61,
      "hit": false,
      "t": 230117.53200000053,
      "d": 529.4114999999874,
      "v": 127
    },
    {
      "midi": 68,
      "hit": false,
      "t": 230117.53200000053,
      "d": 555.1467812499905,
      "v": 127
    },
    {
      "midi": 65,
      "hit": false,
      "t": 230117.53200000053,
      "d": 569.8526562500047,
      "v": 127
    },
    {
      "midi": 49,
      "hit": false,
      "t": 230117.53200000053,
      "d": 764.7055000000109,
      "v": 127
    },
    {
      "midi": 37,
      "hit": false,
      "t": 230117.53200000053,
      "d": 775.7349062499998,
      "v": 127
    },
    {
      "midi": 61,
      "hit": false,
      "t": 230823.41400000054,
      "d": 555.1467812499905,
      "v": 127
    },
    {
      "midi": 65,
      "hit": false,
      "t": 230823.41400000054,
      "d": 558.8232499999867,
      "v": 127
    },
    {
      "midi": 68,
      "hit": false,
      "t": 230823.41400000054,
      "d": 624.9996874999779,
      "v": 127
    },
    {
      "midi": 49,
      "hit": false,
      "t": 231176.35500000053,
      "d": 238.9704687499907,
      "v": 127
    },
    {
      "midi": 37,
      "hit": false,
      "t": 231176.35500000053,
      "d": 249.9998749999795,
      "v": 127
    },
    {
      "midi": 59,
      "hit": false,
      "t": 231529.29600000053,
      "d": 540.4409062500054,
      "v": 127
    },
    {
      "midi": 66,
      "hit": false,
      "t": 231529.29600000053,
      "d": 584.5585312500189,
      "v": 127
    },
    {
      "midi": 63,
      "hit": false,
      "t": 231529.29600000053,
      "d": 602.9408750000293,
      "v": 127
    },
    {
      "midi": 35,
      "hit": false,
      "t": 231529.29600000053,
      "d": 904.411312500044,
      "v": 127
    },
    {
      "midi": 47,
      "hit": false,
      "t": 231529.29600000053,
      "d": 915.4407187500328,
      "v": 127
    },
    {
      "midi": 59,
      "hit": false,
      "t": 232235.17800000057,
      "d": 555.1467812499905,
      "v": 127
    },
    {
      "midi": 66,
      "hit": false,
      "t": 232235.17800000057,
      "d": 584.5585312499898,
      "v": 127
    },
    {
      "midi": 63,
      "hit": false,
      "t": 232235.17800000057,
      "d": 610.2938124999928,
      "v": 127
    },
    {
      "midi": 35,
      "hit": false,
      "t": 232588.11900000056,
      "d": 194.8528437500063,
      "v": 127
    },
    {
      "midi": 47,
      "hit": false,
      "t": 232588.11900000056,
      "d": 238.9704687499907,
      "v": 127
    },
    {
      "midi": 59,
      "hit": false,
      "t": 232941.06000000055,
      "d": 551.4703124999942,
      "v": 127
    },
    {
      "midi": 66,
      "hit": false,
      "t": 232941.06000000055,
      "d": 595.5879375000077,
      "v": 127
    },
    {
      "midi": 63,
      "hit": false,
      "t": 232941.06000000055,
      "d": 606.6173437499965,
      "v": 127
    },
    {
      "midi": 35,
      "hit": false,
      "t": 232941.06000000055,
      "d": 790.4407812499849,
      "v": 127
    },
    {
      "midi": 47,
      "hit": false,
      "t": 232941.06000000055,
      "d": 801.4701874999737,
      "v": 127
    },
    {
      "midi": 59,
      "hit": false,
      "t": 233646.94200000053,
      "d": 319.85278124999604,
      "v": 127
    },
    {
      "midi": 63,
      "hit": false,
      "t": 233646.94200000053,
      "d": 389.70568749998347,
      "v": 127
    },
    {
      "midi": 66,
      "hit": false,
      "t": 233646.94200000053,
      "d": 419.11743749998277,
      "v": 127
    },
    {
      "midi": 35,
      "hit": false,
      "t": 233999.88300000053,
      "d": 209.55871874999139,
      "v": 127
    },
    {
      "midi": 47,
      "hit": false,
      "t": 233999.88300000053,
      "d": 279.4116249999788,
      "v": 127
    },
    {
      "midi": 49,
      "hit": false,
      "t": 234352.82400000052,
      "d": 279.4116250000079,
      "v": 127
    },
    {
      "midi": 68,
      "hit": false,
      "t": 234352.82400000052,
      "d": 540.4409062500345,
      "v": 127
    },
    {
      "midi": 66,
      "hit": false,
      "t": 234352.82400000052,
      "d": 584.558531250048,
      "v": 127
    },
    {
      "midi": 61,
      "hit": false,
      "t": 234352.82400000052,
      "d": 2312.498843750014,
      "v": 127
    },
    {
      "midi": 37,
      "hit": false,
      "t": 234352.82400000052,
      "d": 2382.3517500000016,
      "v": 127
    },
    {
      "midi": 49,
      "hit": false,
      "t": 234705.76500000054,
      "d": 613.9702812500182,
      "v": 127
    },
    {
      "midi": 66,
      "hit": false,
      "t": 235058.70600000056,
      "d": 499.9997499999881,
      "v": 127
    },
    {
      "midi": 68,
      "hit": false,
      "t": 235058.70600000056,
      "d": 654.4114374999772,
      "v": 127
    },
    {
      "midi": 49,
      "hit": false,
      "t": 235411.64700000055,
      "d": 1408.0875312499702,
      "v": 127
    },
    {
      "midi": 65,
      "hit": false,
      "t": 235764.58800000054,
      "d": 1033.0877187499718,
      "v": 127
    },
    {
      "midi": 68,
      "hit": false,
      "t": 235764.58800000054,
      "d": 1069.8524062499637,
      "v": 127
    },
    {
      "midi": 61,
      "hit": false,
      "t": 236823.41100000052,
      "d": 264.7057499999937,
      "v": 127
    },
    {
      "midi": 42,
      "hit": false,
      "t": 237176.3520000005,
      "d": 1411.7639999999956,
      "v": 127
    },
    {
      "midi": 54,
      "hit": false,
      "t": 237176.3520000005,
      "d": 1411.7639999999956,
      "v": 127
    },
    {
      "midi": 61,
      "hit": false,
      "t": 237176.3520000005,
      "d": 1411.7639999999956,
      "v": 127
    },
    {
      "midi": 66,
      "hit": false,
      "t": 237176.3520000005,
      "d": 1411.7639999999956,
      "v": 127
    },
    {
      "midi": 70,
      "hit": false,
      "t": 237176.3520000005,
      "d": 1411.7639999999956,
      "v": 127
    }
  ]
}