{
  "jsonPath": "World/Swedish Electropop/Fever Ray/keep-the-streets-empty-for-me.json",
  "path": "World\\Swedish Electropop\\Fever Ray\\Keep The Streets Empty For Me.mid",
  "name": "Keep The Streets Empty For Me",
  "difficulty": "Advanced",
  "bpm": 80,
  "notes": [
    {
      "midi": 54,
      "hit": false,
      "t": 3000,
      "d": 734.375,
      "v": 97
    },
    {
      "midi": 57,
      "hit": false,
      "t": 3000,
      "d": 734.375,
      "v": 95
    },
    {
      "midi": 50,
      "hit": false,
      "t": 3000,
      "d": 1859.375,
      "v": 94
    },
    {
      "midi": 54,
      "hit": false,
      "t": 3750,
      "d": 1492.1875,
      "v": 99
    },
    {
      "midi": 57,
      "hit": false,
      "t": 3750,
      "d": 1867.1875,
      "v": 99
    },
    {
      "midi": 62,
      "hit": false,
      "t": 3750,
      "d": 2242.1875,
      "v": 99
    },
    {
      "midi": 50,
      "hit": false,
      "t": 4875,
      "d": 3742.1875,
      "v": 103
    },
    {
      "midi": 54,
      "hit": false,
      "t": 5250,
      "d": 703.125,
      "v": 104
    },
    {
      "midi": 57,
      "hit": false,
      "t": 5625,
      "d": 328.125,
      "v": 99
    },
    {
      "midi": 57,
      "hit": false,
      "t": 5953.125,
      "d": 39.0625,
      "v": 104
    },
    {
      "midi": 59,
      "hit": false,
      "t": 5953.125,
      "d": 39.0625,
      "v": 99
    },
    {
      "midi": 56,
      "hit": false,
      "t": 6000,
      "d": 1500,
      "v": 96
    },
    {
      "midi": 59,
      "hit": false,
      "t": 6000,
      "d": 2968.75,
      "v": 96
    },
    {
      "midi": 62,
      "hit": false,
      "t": 6000,
      "d": 2968.75,
      "v": 96
    },
    {
      "midi": 57,
      "hit": false,
      "t": 7500,
      "d": 742.1875,
      "v": 96
    },
    {
      "midi": 56,
      "hit": false,
      "t": 8250,
      "d": 718.75,
      "v": 92
    },
    {
      "midi": 50,
      "hit": false,
      "t": 8625,
      "d": 343.75,
      "v": 99
    },
    {
      "midi": 57,
      "hit": false,
      "t": 8968.75,
      "d": 23.4375,
      "v": 92
    },
    {
      "midi": 61,
      "hit": false,
      "t": 8968.75,
      "d": 23.4375,
      "v": 96
    },
    {
      "midi": 64,
      "hit": false,
      "t": 8968.75,
      "d": 23.4375,
      "v": 96
    },
    {
      "midi": 52,
      "hit": false,
      "t": 8968.75,
      "d": 1898.4375,
      "v": 99
    },
    {
      "midi": 57,
      "hit": false,
      "t": 9000,
      "d": 742.1875,
      "v": 96
    },
    {
      "midi": 61,
      "hit": false,
      "t": 9000,
      "d": 742.1875,
      "v": 96
    },
    {
      "midi": 64,
      "hit": false,
      "t": 9000,
      "d": 742.1875,
      "v": 96
    },
    {
      "midi": 57,
      "hit": false,
      "t": 9750,
      "d": 695.3125,
      "v": 97
    },
    {
      "midi": 61,
      "hit": false,
      "t": 9750,
      "d": 1867.1875,
      "v": 97
    },
    {
      "midi": 64,
      "hit": false,
      "t": 9750,
      "d": 2242.1875,
      "v": 97
    },
    {
      "midi": 56,
      "hit": false,
      "t": 10445.3125,
      "d": 796.875,
      "v": 97
    },
    {
      "midi": 52,
      "hit": false,
      "t": 10875,
      "d": 4101.5625,
      "v": 99
    },
    {
      "midi": 56,
      "hit": false,
      "t": 11250,
      "d": 742.1875,
      "v": 95
    },
    {
      "midi": 61,
      "hit": false,
      "t": 11625,
      "d": 367.1875,
      "v": 95
    },
    {
      "midi": 61,
      "hit": false,
      "t": 12000,
      "d": 742.1875,
      "v": 105
    },
    {
      "midi": 64,
      "hit": false,
      "t": 12000,
      "d": 742.1875,
      "v": 93
    },
    {
      "midi": 61,
      "hit": false,
      "t": 12750,
      "d": 312.5,
      "v": 91
    },
    {
      "midi": 69,
      "hit": false,
      "t": 12750,
      "d": 320.3125,
      "v": 99
    },
    {
      "midi": 64,
      "hit": false,
      "t": 12750,
      "d": 1867.1875,
      "v": 95
    },
    {
      "midi": 57,
      "hit": false,
      "t": 13062.5,
      "d": 7.8125,
      "v": 91
    },
    {
      "midi": 56,
      "hit": false,
      "t": 13070.3125,
      "d": 796.875,
      "v": 94
    },
    {
      "midi": 61,
      "hit": false,
      "t": 13070.3125,
      "d": 1148.4375,
      "v": 91
    },
    {
      "midi": 68,
      "hit": false,
      "t": 13070.3125,
      "d": 1148.4375,
      "v": 99
    },
    {
      "midi": 56,
      "hit": false,
      "t": 13875,
      "d": 343.75,
      "v": 92
    },
    {
      "midi": 62,
      "hit": false,
      "t": 14218.75,
      "d": 23.4375,
      "v": 91
    },
    {
      "midi": 55,
      "hit": false,
      "t": 14218.75,
      "d": 757.8125,
      "v": 92
    },
    {
      "midi": 67,
      "hit": false,
      "t": 14218.75,
      "d": 757.8125,
      "v": 99
    },
    {
      "midi": 61,
      "hit": false,
      "t": 14250,
      "d": 726.5625,
      "v": 93
    },
    {
      "midi": 64,
      "hit": false,
      "t": 14625,
      "d": 351.5625,
      "v": 92
    },
    {
      "midi": 54,
      "hit": false,
      "t": 14976.5625,
      "d": 15.625,
      "v": 92
    },
    {
      "midi": 57,
      "hit": false,
      "t": 14976.5625,
      "d": 15.625,
      "v": 93
    },
    {
      "midi": 62,
      "hit": false,
      "t": 14976.5625,
      "d": 15.625,
      "v": 92
    },
    {
      "midi": 66,
      "hit": false,
      "t": 14976.5625,
      "d": 15.625,
      "v": 99
    },
    {
      "midi": 50,
      "hit": false,
      "t": 14976.5625,
      "d": 765.625,
      "v": 99
    },
    {
      "midi": 54,
      "hit": false,
      "t": 15000,
      "d": 742.1875,
      "v": 91
    },
    {
      "midi": 57,
      "hit": false,
      "t": 15000,
      "d": 742.1875,
      "v": 97
    },
    {
      "midi": 62,
      "hit": false,
      "t": 15000,
      "d": 2992.1875,
      "v": 92
    },
    {
      "midi": 50,
      "hit": false,
      "t": 15750,
      "d": 1117.1875,
      "v": 102
    },
    {
      "midi": 54,
      "hit": false,
      "t": 15750,
      "d": 1492.1875,
      "v": 95
    },
    {
      "midi": 57,
      "hit": false,
      "t": 15750,
      "d": 2226.5625,
      "v": 91
    },
    {
      "midi": 78,
      "hit": false,
      "t": 15984.375,
      "d": 210.9375,
      "v": 92
    },
    {
      "midi": 78,
      "hit": false,
      "t": 16257.8125,
      "d": 171.875,
      "v": 97
    },
    {
      "midi": 76,
      "hit": false,
      "t": 16523.4375,
      "d": 140.625,
      "v": 94
    },
    {
      "midi": 78,
      "hit": false,
      "t": 16773.4375,
      "d": 460.9375,
      "v": 97
    },
    {
      "midi": 50,
      "hit": false,
      "t": 16875,
      "d": 4093.75,
      "v": 97
    },
    {
      "midi": 76,
      "hit": false,
      "t": 17234.375,
      "d": 304.6875,
      "v": 66
    },
    {
      "midi": 54,
      "hit": false,
      "t": 17250,
      "d": 726.5625,
      "v": 94
    },
    {
      "midi": 78,
      "hit": false,
      "t": 17507.8125,
      "d": 179.6875,
      "v": 88
    },
    {
      "midi": 76,
      "hit": false,
      "t": 17710.9375,
      "d": 93.75,
      "v": 94
    },
    {
      "midi": 76,
      "hit": false,
      "t": 17937.5,
      "d": 93.75,
      "v": 73
    },
    {
      "midi": 57,
      "hit": false,
      "t": 17976.5625,
      "d": 15.625,
      "v": 94
    },
    {
      "midi": 59,
      "hit": false,
      "t": 17976.5625,
      "d": 15.625,
      "v": 91
    },
    {
      "midi": 78,
      "hit": false,
      "t": 17992.1875,
      "d": 2789.0625,
      "v": 68
    },
    {
      "midi": 56,
      "hit": false,
      "t": 18000,
      "d": 742.1875,
      "v": 95
    },
    {
      "midi": 59,
      "hit": false,
      "t": 18000,
      "d": 742.1875,
      "v": 95
    },
    {
      "midi": 62,
      "hit": false,
      "t": 18000,
      "d": 742.1875,
      "v": 95
    },
    {
      "midi": 56,
      "hit": false,
      "t": 18750,
      "d": 750,
      "v": 95
    },
    {
      "midi": 62,
      "hit": false,
      "t": 18750,
      "d": 1867.1875,
      "v": 95
    },
    {
      "midi": 59,
      "hit": false,
      "t": 18750,
      "d": 2218.75,
      "v": 95
    },
    {
      "midi": 57,
      "hit": false,
      "t": 19500,
      "d": 367.1875,
      "v": 95
    },
    {
      "midi": 57,
      "hit": false,
      "t": 19875,
      "d": 375,
      "v": 100
    },
    {
      "midi": 56,
      "hit": false,
      "t": 20250,
      "d": 742.1875,
      "v": 100
    },
    {
      "midi": 68,
      "hit": false,
      "t": 20250,
      "d": 2992.1875,
      "v": 105
    },
    {
      "midi": 62,
      "hit": false,
      "t": 20625,
      "d": 343.75,
      "v": 95
    },
    {
      "midi": 52,
      "hit": false,
      "t": 20968.75,
      "d": 23.4375,
      "v": 97
    },
    {
      "midi": 61,
      "hit": false,
      "t": 20968.75,
      "d": 23.4375,
      "v": 95
    },
    {
      "midi": 64,
      "hit": false,
      "t": 20968.75,
      "d": 773.4375,
      "v": 95
    },
    {
      "midi": 56,
      "hit": false,
      "t": 21000,
      "d": 742.1875,
      "v": 89
    },
    {
      "midi": 61,
      "hit": false,
      "t": 21000,
      "d": 742.1875,
      "v": 98
    },
    {
      "midi": 52,
      "hit": false,
      "t": 21000,
      "d": 1867.1875,
      "v": 97
    },
    {
      "midi": 76,
      "hit": false,
      "t": 21367.1875,
      "d": 375,
      "v": 99
    },
    {
      "midi": 56,
      "hit": false,
      "t": 21750,
      "d": 1492.1875,
      "v": 86
    },
    {
      "midi": 61,
      "hit": false,
      "t": 21750,
      "d": 1867.1875,
      "v": 97
    },
    {
      "midi": 64,
      "hit": false,
      "t": 21750,
      "d": 2242.1875,
      "v": 90
    },
    {
      "midi": 76,
      "hit": false,
      "t": 21851.5625,
      "d": 85.9375,
      "v": 49
    },
    {
      "midi": 85,
      "hit": false,
      "t": 21898.4375,
      "d": 562.5,
      "v": 119
    },
    {
      "midi": 83,
      "hit": false,
      "t": 22484.375,
      "d": 437.5,
      "v": 99
    },
    {
      "midi": 52,
      "hit": false,
      "t": 22875,
      "d": 1117.1875,
      "v": 95
    },
    {
      "midi": 76,
      "hit": false,
      "t": 22937.5,
      "d": 3382.8125,
      "v": 84
    },
    {
      "midi": 56,
      "hit": false,
      "t": 23250,
      "d": 710.9375,
      "v": 90
    },
    {
      "midi": 61,
      "hit": false,
      "t": 23625,
      "d": 335.9375,
      "v": 90
    },
    {
      "midi": 57,
      "hit": false,
      "t": 23960.9375,
      "d": 31.25,
      "v": 90
    },
    {
      "midi": 59,
      "hit": false,
      "t": 23960.9375,
      "d": 31.25,
      "v": 90
    },
    {
      "midi": 61,
      "hit": false,
      "t": 24000,
      "d": 742.1875,
      "v": 98
    },
    {
      "midi": 64,
      "hit": false,
      "t": 24000,
      "d": 742.1875,
      "v": 95
    },
    {
      "midi": 57,
      "hit": false,
      "t": 24000,
      "d": 1078.125,
      "v": 84
    },
    {
      "midi": 69,
      "hit": false,
      "t": 24750,
      "d": 328.125,
      "v": 94
    },
    {
      "midi": 61,
      "hit": false,
      "t": 24750,
      "d": 1117.1875,
      "v": 90
    },
    {
      "midi": 64,
      "hit": false,
      "t": 24750,
      "d": 1679.6875,
      "v": 85
    },
    {
      "midi": 56,
      "hit": false,
      "t": 25078.125,
      "d": 601.5625,
      "v": 84
    },
    {
      "midi": 68,
      "hit": false,
      "t": 25078.125,
      "d": 976.5625,
      "v": 94
    },
    {
      "midi": 56,
      "hit": false,
      "t": 25687.5,
      "d": 531.25,
      "v": 95
    },
    {
      "midi": 61,
      "hit": false,
      "t": 25875,
      "d": 343.75,
      "v": 100
    },
    {
      "midi": 68,
      "hit": false,
      "t": 26062.5,
      "d": 156.25,
      "v": 101
    },
    {
      "midi": 62,
      "hit": false,
      "t": 26218.75,
      "d": 31.25,
      "v": 100
    },
    {
      "midi": 55,
      "hit": false,
      "t": 26218.75,
      "d": 585.9375,
      "v": 95
    },
    {
      "midi": 67,
      "hit": false,
      "t": 26218.75,
      "d": 750,
      "v": 101
    },
    {
      "midi": 61,
      "hit": false,
      "t": 26250,
      "d": 367.1875,
      "v": 100
    },
    {
      "midi": 64,
      "hit": false,
      "t": 26437.5,
      "d": 531.25,
      "v": 97
    },
    {
      "midi": 61,
      "hit": false,
      "t": 26625,
      "d": 343.75,
      "v": 95
    },
    {
      "midi": 55,
      "hit": false,
      "t": 26812.5,
      "d": 156.25,
      "v": 96
    },
    {
      "midi": 54,
      "hit": false,
      "t": 26968.75,
      "d": 23.4375,
      "v": 96
    },
    {
      "midi": 57,
      "hit": false,
      "t": 26968.75,
      "d": 23.4375,
      "v": 95
    },
    {
      "midi": 62,
      "hit": false,
      "t": 26968.75,
      "d": 23.4375,
      "v": 97
    },
    {
      "midi": 66,
      "hit": false,
      "t": 26968.75,
      "d": 23.4375,
      "v": 101
    },
    {
      "midi": 54,
      "hit": false,
      "t": 27000,
      "d": 734.375,
      "v": 97
    },
    {
      "midi": 57,
      "hit": false,
      "t": 27000,
      "d": 734.375,
      "v": 95
    },
    {
      "midi": 50,
      "hit": false,
      "t": 27000,
      "d": 1859.375,
      "v": 94
    },
    {
      "midi": 54,
      "hit": false,
      "t": 27750,
      "d": 1492.1875,
      "v": 99
    },
    {
      "midi": 57,
      "hit": false,
      "t": 27750,
      "d": 1867.1875,
      "v": 99
    },
    {
      "midi": 62,
      "hit": false,
      "t": 27750,
      "d": 2242.1875,
      "v": 99
    },
    {
      "midi": 78,
      "hit": false,
      "t": 28039.0625,
      "d": 164.0625,
      "v": 119
    },
    {
      "midi": 78,
      "hit": false,
      "t": 28289.0625,
      "d": 171.875,
      "v": 92
    },
    {
      "midi": 76,
      "hit": false,
      "t": 28562.5,
      "d": 117.1875,
      "v": 78
    },
    {
      "midi": 78,
      "hit": false,
      "t": 28812.5,
      "d": 125,
      "v": 83
    },
    {
      "midi": 50,
      "hit": false,
      "t": 28875,
      "d": 3742.1875,
      "v": 103
    },
    {
      "midi": 76,
      "hit": false,
      "t": 29023.4375,
      "d": 85.9375,
      "v": 94
    },
    {
      "midi": 76,
      "hit": false,
      "t": 29242.1875,
      "d": 101.5625,
      "v": 86
    },
    {
      "midi": 54,
      "hit": false,
      "t": 29250,
      "d": 742.1875,
      "v": 104
    },
    {
      "midi": 78,
      "hit": false,
      "t": 29281.25,
      "d": 382.8125,
      "v": 47
    },
    {
      "midi": 57,
      "hit": false,
      "t": 29625,
      "d": 367.1875,
      "v": 99
    },
    {
      "midi": 76,
      "hit": false,
      "t": 29671.875,
      "d": 320.3125,
      "v": 88
    },
    {
      "midi": 54,
      "hit": false,
      "t": 30000,
      "d": 93.75,
      "v": 96
    },
    {
      "midi": 57,
      "hit": false,
      "t": 30000,
      "d": 93.75,
      "v": 96
    },
    {
      "midi": 62,
      "hit": false,
      "t": 30000,
      "d": 2976.5625,
      "v": 96
    },
    {
      "midi": 78,
      "hit": false,
      "t": 30039.0625,
      "d": 171.875,
      "v": 64
    },
    {
      "midi": 56,
      "hit": false,
      "t": 30093.75,
      "d": 1406.25,
      "v": 96
    },
    {
      "midi": 59,
      "hit": false,
      "t": 30093.75,
      "d": 2882.8125,
      "v": 96
    },
    {
      "midi": 76,
      "hit": false,
      "t": 30242.1875,
      "d": 125,
      "v": 88
    },
    {
      "midi": 78,
      "hit": false,
      "t": 30453.125,
      "d": 289.0625,
      "v": 94
    },
    {
      "midi": 78,
      "hit": false,
      "t": 30812.5,
      "d": 2382.8125,
      "v": 83
    },
    {
      "midi": 57,
      "hit": false,
      "t": 31500,
      "d": 742.1875,
      "v": 96
    },
    {
      "midi": 56,
      "hit": false,
      "t": 32250,
      "d": 742.1875,
      "v": 92
    },
    {
      "midi": 50,
      "hit": false,
      "t": 32625,
      "d": 351.5625,
      "v": 99
    },
    {
      "midi": 61,
      "hit": false,
      "t": 32976.5625,
      "d": 15.625,
      "v": 96
    },
    {
      "midi": 64,
      "hit": false,
      "t": 32976.5625,
      "d": 15.625,
      "v": 96
    },
    {
      "midi": 52,
      "hit": false,
      "t": 32976.5625,
      "d": 1890.625,
      "v": 99
    },
    {
      "midi": 56,
      "hit": false,
      "t": 33000,
      "d": 742.1875,
      "v": 96
    },
    {
      "midi": 61,
      "hit": false,
      "t": 33000,
      "d": 742.1875,
      "v": 96
    },
    {
      "midi": 64,
      "hit": false,
      "t": 33000,
      "d": 742.1875,
      "v": 96
    },
    {
      "midi": 76,
      "hit": false,
      "t": 33429.6875,
      "d": 531.25,
      "v": 102
    },
    {
      "midi": 56,
      "hit": false,
      "t": 33750,
      "d": 1492.1875,
      "v": 97
    },
    {
      "midi": 61,
      "hit": false,
      "t": 33750,
      "d": 1867.1875,
      "v": 97
    },
    {
      "midi": 64,
      "hit": false,
      "t": 33750,
      "d": 2242.1875,
      "v": 97
    },
    {
      "midi": 85,
      "hit": false,
      "t": 33945.3125,
      "d": 523.4375,
      "v": 97
    },
    {
      "midi": 83,
      "hit": false,
      "t": 34507.8125,
      "d": 437.5,
      "v": 88
    },
    {
      "midi": 52,
      "hit": false,
      "t": 34875,
      "d": 4078.125,
      "v": 99
    },
    {
      "midi": 76,
      "hit": false,
      "t": 34960.9375,
      "d": 3429.6875,
      "v": 66
    },
    {
      "midi": 56,
      "hit": false,
      "t": 35250,
      "d": 710.9375,
      "v": 95
    },
    {
      "midi": 61,
      "hit": false,
      "t": 35625,
      "d": 335.9375,
      "v": 95
    },
    {
      "midi": 57,
      "hit": false,
      "t": 35960.9375,
      "d": 31.25,
      "v": 95
    },
    {
      "midi": 59,
      "hit": false,
      "t": 35960.9375,
      "d": 31.25,
      "v": 95
    },
    {
      "midi": 61,
      "hit": false,
      "t": 36000,
      "d": 742.1875,
      "v": 105
    },
    {
      "midi": 64,
      "hit": false,
      "t": 36000,
      "d": 742.1875,
      "v": 93
    },
    {
      "midi": 57,
      "hit": false,
      "t": 36000,
      "d": 1085.9375,
      "v": 94
    },
    {
      "midi": 69,
      "hit": false,
      "t": 36750,
      "d": 335.9375,
      "v": 99
    },
    {
      "midi": 61,
      "hit": false,
      "t": 36750,
      "d": 1492.1875,
      "v": 91
    },
    {
      "midi": 64,
      "hit": false,
      "t": 36750,
      "d": 1867.1875,
      "v": 95
    },
    {
      "midi": 56,
      "hit": false,
      "t": 37085.9375,
      "d": 781.25,
      "v": 94
    },
    {
      "midi": 68,
      "hit": false,
      "t": 37085.9375,
      "d": 1867.1875,
      "v": 99
    },
    {
      "midi": 56,
      "hit": false,
      "t": 37875,
      "d": 1078.125,
      "v": 92
    },
    {
      "midi": 61,
      "hit": false,
      "t": 38250,
      "d": 703.125,
      "v": 93
    },
    {
      "midi": 64,
      "hit": false,
      "t": 38625,
      "d": 328.125,
      "v": 92
    },
    {
      "midi": 51,
      "hit": false,
      "t": 38953.125,
      "d": 1.5625,
      "v": 99
    },
    {
      "midi": 63,
      "hit": false,
      "t": 38953.125,
      "d": 1.5625,
      "v": 92
    },
    {
      "midi": 54,
      "hit": false,
      "t": 38953.125,
      "d": 39.0625,
      "v": 92
    },
    {
      "midi": 57,
      "hit": false,
      "t": 38953.125,
      "d": 39.0625,
      "v": 93
    },
    {
      "midi": 62,
      "hit": false,
      "t": 38953.125,
      "d": 39.0625,
      "v": 92
    },
    {
      "midi": 66,
      "hit": false,
      "t": 38953.125,
      "d": 39.0625,
      "v": 99
    },
    {
      "midi": 50,
      "hit": false,
      "t": 38953.125,
      "d": 789.0625,
      "v": 99
    },
    {
      "midi": 54,
      "hit": false,
      "t": 39000,
      "d": 742.1875,
      "v": 91
    },
    {
      "midi": 57,
      "hit": false,
      "t": 39000,
      "d": 742.1875,
      "v": 97
    },
    {
      "midi": 62,
      "hit": false,
      "t": 39000,
      "d": 2976.5625,
      "v": 92
    },
    {
      "midi": 50,
      "hit": false,
      "t": 39750,
      "d": 1117.1875,
      "v": 102
    },
    {
      "midi": 54,
      "hit": false,
      "t": 39750,
      "d": 1492.1875,
      "v": 95
    },
    {
      "midi": 57,
      "hit": false,
      "t": 39750,
      "d": 2226.5625,
      "v": 91
    },
    {
      "midi": 86,
      "hit": false,
      "t": 40039.0625,
      "d": 171.875,
      "v": 115
    },
    {
      "midi": 86,
      "hit": false,
      "t": 40304.6875,
      "d": 375,
      "v": 119
    },
    {
      "midi": 85,
      "hit": false,
      "t": 40671.875,
      "d": 156.25,
      "v": 119
    },
    {
      "midi": 50,
      "hit": false,
      "t": 40875,
      "d": 1101.5625,
      "v": 97
    },
    {
      "midi": 86,
      "hit": false,
      "t": 40929.6875,
      "d": 203.125,
      "v": 119
    },
    {
      "midi": 85,
      "hit": false,
      "t": 41132.8125,
      "d": 125,
      "v": 105
    },
    {
      "midi": 54,
      "hit": false,
      "t": 41250,
      "d": 726.5625,
      "v": 94
    },
    {
      "midi": 86,
      "hit": false,
      "t": 41375,
      "d": 265.625,
      "v": 115
    },
    {
      "midi": 85,
      "hit": false,
      "t": 41640.625,
      "d": 140.625,
      "v": 84
    },
    {
      "midi": 85,
      "hit": false,
      "t": 41929.6875,
      "d": 39.0625,
      "v": 50
    },
    {
      "midi": 86,
      "hit": false,
      "t": 41953.125,
      "d": 367.1875,
      "v": 105
    },
    {
      "midi": 51,
      "hit": false,
      "t": 41976.5625,
      "d": 1.5625,
      "v": 97
    },
    {
      "midi": 52,
      "hit": false,
      "t": 41976.5625,
      "d": 1.5625,
      "v": 97
    },
    {
      "midi": 54,
      "hit": false,
      "t": 41976.5625,
      "d": 1.5625,
      "v": 94
    },
    {
      "midi": 56,
      "hit": false,
      "t": 41976.5625,
      "d": 1.5625,
      "v": 94
    },
    {
      "midi": 58,
      "hit": false,
      "t": 41976.5625,
      "d": 1.5625,
      "v": 91
    },
    {
      "midi": 63,
      "hit": false,
      "t": 41976.5625,
      "d": 1.5625,
      "v": 92
    },
    {
      "midi": 64,
      "hit": false,
      "t": 41976.5625,
      "d": 1.5625,
      "v": 92
    },
    {
      "midi": 57,
      "hit": false,
      "t": 41976.5625,
      "d": 15.625,
      "v": 94
    },
    {
      "midi": 59,
      "hit": false,
      "t": 41976.5625,
      "d": 15.625,
      "v": 91
    },
    {
      "midi": 62,
      "hit": false,
      "t": 41976.5625,
      "d": 15.625,
      "v": 92
    },
    {
      "midi": 50,
      "hit": false,
      "t": 41976.5625,
      "d": 3015.625,
      "v": 97
    },
    {
      "midi": 56,
      "hit": false,
      "t": 42000,
      "d": 742.1875,
      "v": 95
    },
    {
      "midi": 59,
      "hit": false,
      "t": 42000,
      "d": 742.1875,
      "v": 95
    },
    {
      "midi": 62,
      "hit": false,
      "t": 42000,
      "d": 742.1875,
      "v": 95
    },
    {
      "midi": 85,
      "hit": false,
      "t": 42289.0625,
      "d": 148.4375,
      "v": 105
    },
    {
      "midi": 86,
      "hit": false,
      "t": 42515.625,
      "d": 2929.6875,
      "v": 124
    },
    {
      "midi": 56,
      "hit": false,
      "t": 42750,
      "d": 750,
      "v": 95
    },
    {
      "midi": 62,
      "hit": false,
      "t": 42750,
      "d": 1867.1875,
      "v": 95
    },
    {
      "midi": 59,
      "hit": false,
      "t": 42750,
      "d": 2242.1875,
      "v": 95
    },
    {
      "midi": 57,
      "hit": false,
      "t": 43500,
      "d": 367.1875,
      "v": 95
    },
    {
      "midi": 57,
      "hit": false,
      "t": 43875,
      "d": 375,
      "v": 100
    },
    {
      "midi": 56,
      "hit": false,
      "t": 44250,
      "d": 742.1875,
      "v": 100
    },
    {
      "midi": 68,
      "hit": false,
      "t": 44250,
      "d": 742.1875,
      "v": 105
    },
    {
      "midi": 62,
      "hit": false,
      "t": 44625,
      "d": 367.1875,
      "v": 95
    },
    {
      "midi": 64,
      "hit": false,
      "t": 44992.1875,
      "d": 750,
      "v": 95
    },
    {
      "midi": 69,
      "hit": false,
      "t": 44992.1875,
      "d": 1476.5625,
      "v": 105
    },
    {
      "midi": 57,
      "hit": false,
      "t": 45000,
      "d": 742.1875,
      "v": 89
    },
    {
      "midi": 61,
      "hit": false,
      "t": 45000,
      "d": 742.1875,
      "v": 98
    },
    {
      "midi": 52,
      "hit": false,
      "t": 45000,
      "d": 1867.1875,
      "v": 97
    },
    {
      "midi": 85,
      "hit": false,
      "t": 45539.0625,
      "d": 203.125,
      "v": 127
    },
    {
      "midi": 57,
      "hit": false,
      "t": 45750,
      "d": 718.75,
      "v": 86
    },
    {
      "midi": 61,
      "hit": false,
      "t": 45750,
      "d": 1867.1875,
      "v": 97
    },
    {
      "midi": 64,
      "hit": false,
      "t": 45750,
      "d": 2242.1875,
      "v": 90
    },
    {
      "midi": 85,
      "hit": false,
      "t": 45843.75,
      "d": 359.375,
      "v": 127
    },
    {
      "midi": 83,
      "hit": false,
      "t": 46273.4375,
      "d": 257.8125,
      "v": 94
    },
    {
      "midi": 56,
      "hit": false,
      "t": 46468.75,
      "d": 773.4375,
      "v": 86
    },
    {
      "midi": 68,
      "hit": false,
      "t": 46468.75,
      "d": 773.4375,
      "v": 105
    },
    {
      "midi": 85,
      "hit": false,
      "t": 46703.125,
      "d": 171.875,
      "v": 119
    },
    {
      "midi": 52,
      "hit": false,
      "t": 46875,
      "d": 1117.1875,
      "v": 95
    },
    {
      "midi": 83,
      "hit": false,
      "t": 46937.5,
      "d": 93.75,
      "v": 97
    },
    {
      "midi": 83,
      "hit": false,
      "t": 47156.25,
      "d": 39.0625,
      "v": 68
    },
    {
      "midi": 85,
      "hit": false,
      "t": 47164.0625,
      "d": 546.875,
      "v": 102
    },
    {
      "midi": 56,
      "hit": false,
      "t": 47250,
      "d": 742.1875,
      "v": 90
    },
    {
      "midi": 61,
      "hit": false,
      "t": 47625,
      "d": 367.1875,
      "v": 90
    },
    {
      "midi": 83,
      "hit": false,
      "t": 47718.75,
      "d": 195.3125,
      "v": 88
    },
    {
      "midi": 85,
      "hit": false,
      "t": 48000,
      "d": 257.8125,
      "v": 99
    },
    {
      "midi": 61,
      "hit": false,
      "t": 48000,
      "d": 742.1875,
      "v": 98
    },
    {
      "midi": 64,
      "hit": false,
      "t": 48000,
      "d": 742.1875,
      "v": 95
    },
    {
      "midi": 57,
      "hit": false,
      "t": 48000,
      "d": 1460.9375,
      "v": 84
    },
    {
      "midi": 83,
      "hit": false,
      "t": 48265.625,
      "d": 109.375,
      "v": 92
    },
    {
      "midi": 85,
      "hit": false,
      "t": 48460.9375,
      "d": 2484.375,
      "v": 127
    },
    {
      "midi": 69,
      "hit": false,
      "t": 48750,
      "d": 710.9375,
      "v": 94
    },
    {
      "midi": 61,
      "hit": false,
      "t": 48750,
      "d": 1117.1875,
      "v": 90
    },
    {
      "midi": 64,
      "hit": false,
      "t": 48750,
      "d": 1679.6875,
      "v": 85
    },
    {
      "midi": 55,
      "hit": false,
      "t": 49460.9375,
      "d": 31.25,
      "v": 84
    },
    {
      "midi": 67,
      "hit": false,
      "t": 49460.9375,
      "d": 31.25,
      "v": 94
    },
    {
      "midi": 56,
      "hit": false,
      "t": 49492.1875,
      "d": 187.5,
      "v": 84
    },
    {
      "midi": 68,
      "hit": false,
      "t": 49492.1875,
      "d": 562.5,
      "v": 94
    },
    {
      "midi": 56,
      "hit": false,
      "t": 49687.5,
      "d": 1117.1875,
      "v": 95
    },
    {
      "midi": 61,
      "hit": false,
      "t": 49875,
      "d": 742.1875,
      "v": 100
    },
    {
      "midi": 68,
      "hit": false,
      "t": 50062.5,
      "d": 882.8125,
      "v": 101
    },
    {
      "midi": 64,
      "hit": false,
      "t": 50437.5,
      "d": 507.8125,
      "v": 97
    },
    {
      "midi": 61,
      "hit": false,
      "t": 50625,
      "d": 320.3125,
      "v": 95
    },
    {
      "midi": 56,
      "hit": false,
      "t": 50812.5,
      "d": 132.8125,
      "v": 96
    },
    {
      "midi": 59,
      "hit": false,
      "t": 50945.3125,
      "d": 1.5625,
      "v": 95
    },
    {
      "midi": 63,
      "hit": false,
      "t": 50945.3125,
      "d": 1.5625,
      "v": 97
    },
    {
      "midi": 66,
      "hit": false,
      "t": 50945.3125,
      "d": 1.5625,
      "v": 101
    },
    {
      "midi": 54,
      "hit": false,
      "t": 50945.3125,
      "d": 46.875,
      "v": 96
    },
    {
      "midi": 57,
      "hit": false,
      "t": 50945.3125,
      "d": 46.875,
      "v": 95
    },
    {
      "midi": 62,
      "hit": false,
      "t": 50945.3125,
      "d": 46.875,
      "v": 97
    },
    {
      "midi": 54,
      "hit": false,
      "t": 51000,
      "d": 734.375,
      "v": 97
    },
    {
      "midi": 57,
      "hit": false,
      "t": 51000,
      "d": 734.375,
      "v": 95
    },
    {
      "midi": 50,
      "hit": false,
      "t": 51000,
      "d": 1859.375,
      "v": 94
    },
    {
      "midi": 54,
      "hit": false,
      "t": 51750,
      "d": 1492.1875,
      "v": 99
    },
    {
      "midi": 57,
      "hit": false,
      "t": 51750,
      "d": 1867.1875,
      "v": 99
    },
    {
      "midi": 62,
      "hit": false,
      "t": 51750,
      "d": 2187.5,
      "v": 99
    },
    {
      "midi": 83,
      "hit": false,
      "t": 52007.8125,
      "d": 171.875,
      "v": 108
    },
    {
      "midi": 83,
      "hit": false,
      "t": 52304.6875,
      "d": 281.25,
      "v": 102
    },
    {
      "midi": 81,
      "hit": false,
      "t": 52593.75,
      "d": 140.625,
      "v": 90
    },
    {
      "midi": 83,
      "hit": false,
      "t": 52835.9375,
      "d": 265.625,
      "v": 105
    },
    {
      "midi": 50,
      "hit": false,
      "t": 52875,
      "d": 1062.5,
      "v": 103
    },
    {
      "midi": 81,
      "hit": false,
      "t": 53109.375,
      "d": 148.4375,
      "v": 72
    },
    {
      "midi": 54,
      "hit": false,
      "t": 53250,
      "d": 710.9375,
      "v": 104
    },
    {
      "midi": 83,
      "hit": false,
      "t": 53382.8125,
      "d": 226.5625,
      "v": 94
    },
    {
      "midi": 81,
      "hit": false,
      "t": 53617.1875,
      "d": 85.9375,
      "v": 112
    },
    {
      "midi": 57,
      "hit": false,
      "t": 53625,
      "d": 312.5,
      "v": 99
    },
    {
      "midi": 81,
      "hit": false,
      "t": 53867.1875,
      "d": 39.0625,
      "v": 39
    },
    {
      "midi": 83,
      "hit": false,
      "t": 53882.8125,
      "d": 437.5,
      "v": 92
    },
    {
      "midi": 49,
      "hit": false,
      "t": 53937.5,
      "d": 23.4375,
      "v": 103
    },
    {
      "midi": 59,
      "hit": false,
      "t": 53937.5,
      "d": 23.4375,
      "v": 99
    },
    {
      "midi": 61,
      "hit": false,
      "t": 53937.5,
      "d": 23.4375,
      "v": 99
    },
    {
      "midi": 55,
      "hit": false,
      "t": 53960.9375,
      "d": 31.25,
      "v": 104
    },
    {
      "midi": 57,
      "hit": false,
      "t": 53960.9375,
      "d": 31.25,
      "v": 99
    },
    {
      "midi": 62,
      "hit": false,
      "t": 53960.9375,
      "d": 31.25,
      "v": 99
    },
    {
      "midi": 50,
      "hit": false,
      "t": 53960.9375,
      "d": 2656.25,
      "v": 103
    },
    {
      "midi": 59,
      "hit": false,
      "t": 54000,
      "d": 1500,
      "v": 96
    },
    {
      "midi": 55,
      "hit": false,
      "t": 54000,
      "d": 2242.1875,
      "v": 96
    },
    {
      "midi": 62,
      "hit": false,
      "t": 54000,
      "d": 2992.1875,
      "v": 96
    },
    {
      "midi": 81,
      "hit": false,
      "t": 54265.625,
      "d": 164.0625,
      "v": 94
    },
    {
      "midi": 79,
      "hit": false,
      "t": 54460.9375,
      "d": 2007.8125,
      "v": 105
    },
    {
      "midi": 57,
      "hit": false,
      "t": 55500,
      "d": 750,
      "v": 96
    },
    {
      "midi": 55,
      "hit": false,
      "t": 56250,
      "d": 718.75,
      "v": 92
    },
    {
      "midi": 59,
      "hit": false,
      "t": 56250,
      "d": 742.1875,
      "v": 96
    },
    {
      "midi": 79,
      "hit": false,
      "t": 56601.5625,
      "d": 585.9375,
      "v": 102
    },
    {
      "midi": 50,
      "hit": false,
      "t": 56625,
      "d": 2242.1875,
      "v": 99
    },
    {
      "midi": 56,
      "hit": false,
      "t": 56968.75,
      "d": 23.4375,
      "v": 92
    },
    {
      "midi": 56,
      "hit": false,
      "t": 57000,
      "d": 742.1875,
      "v": 96
    },
    {
      "midi": 59,
      "hit": false,
      "t": 57000,
      "d": 742.1875,
      "v": 96
    },
    {
      "midi": 62,
      "hit": false,
      "t": 57000,
      "d": 742.1875,
      "v": 96
    },
    {
      "midi": 80,
      "hit": false,
      "t": 57273.4375,
      "d": 750,
      "v": 92
    },
    {
      "midi": 56,
      "hit": false,
      "t": 57750,
      "d": 1492.1875,
      "v": 97
    },
    {
      "midi": 59,
      "hit": false,
      "t": 57750,
      "d": 1867.1875,
      "v": 97
    },
    {
      "midi": 62,
      "hit": false,
      "t": 57750,
      "d": 2242.1875,
      "v": 97
    },
    {
      "midi": 76,
      "hit": false,
      "t": 57992.1875,
      "d": 492.1875,
      "v": 65
    },
    {
      "midi": 76,
      "hit": false,
      "t": 58523.4375,
      "d": 3718.75,
      "v": 68
    },
    {
      "midi": 50,
      "hit": false,
      "t": 58875,
      "d": 2968.75,
      "v": 99
    },
    {
      "midi": 57,
      "hit": false,
      "t": 59250,
      "d": 742.1875,
      "v": 95
    },
    {
      "midi": 59,
      "hit": false,
      "t": 59625,
      "d": 367.1875,
      "v": 95
    },
    {
      "midi": 59,
      "hit": false,
      "t": 60000,
      "d": 742.1875,
      "v": 105
    },
    {
      "midi": 62,
      "hit": false,
      "t": 60000,
      "d": 742.1875,
      "v": 93
    },
    {
      "midi": 56,
      "hit": false,
      "t": 60000,
      "d": 1500,
      "v": 94
    },
    {
      "midi": 68,
      "hit": false,
      "t": 60750,
      "d": 750,
      "v": 99
    },
    {
      "midi": 59,
      "hit": false,
      "t": 60750,
      "d": 1093.75,
      "v": 91
    },
    {
      "midi": 62,
      "hit": false,
      "t": 60750,
      "d": 1093.75,
      "v": 95
    },
    {
      "midi": 57,
      "hit": false,
      "t": 61500,
      "d": 343.75,
      "v": 94
    },
    {
      "midi": 69,
      "hit": false,
      "t": 61500,
      "d": 343.75,
      "v": 99
    },
    {
      "midi": 57,
      "hit": false,
      "t": 61875,
      "d": 375,
      "v": 97
    },
    {
      "midi": 56,
      "hit": false,
      "t": 62250,
      "d": 710.9375,
      "v": 97
    },
    {
      "midi": 59,
      "hit": false,
      "t": 62250,
      "d": 710.9375,
      "v": 95
    },
    {
      "midi": 68,
      "hit": false,
      "t": 62250,
      "d": 710.9375,
      "v": 98
    },
    {
      "midi": 62,
      "hit": false,
      "t": 62250,
      "d": 742.1875,
      "v": 100
    },
    {
      "midi": 54,
      "hit": false,
      "t": 62960.9375,
      "d": 31.25,
      "v": 97
    },
    {
      "midi": 57,
      "hit": false,
      "t": 62960.9375,
      "d": 31.25,
      "v": 95
    },
    {
      "midi": 66,
      "hit": false,
      "t": 62960.9375,
      "d": 31.25,
      "v": 98
    },
    {
      "midi": 54,
      "hit": false,
      "t": 63000,
      "d": 734.375,
      "v": 97
    },
    {
      "midi": 57,
      "hit": false,
      "t": 63000,
      "d": 734.375,
      "v": 95
    },
    {
      "midi": 50,
      "hit": false,
      "t": 63000,
      "d": 1859.375,
      "v": 94
    },
    {
      "midi": 54,
      "hit": false,
      "t": 63750,
      "d": 1492.1875,
      "v": 99
    },
    {
      "midi": 57,
      "hit": false,
      "t": 63750,
      "d": 1867.1875,
      "v": 99
    },
    {
      "midi": 62,
      "hit": false,
      "t": 63750,
      "d": 2218.75,
      "v": 99
    },
    {
      "midi": 78,
      "hit": false,
      "t": 64664.0625,
      "d": 164.0625,
      "v": 105
    },
    {
      "midi": 50,
      "hit": false,
      "t": 64875,
      "d": 1093.75,
      "v": 103
    },
    {
      "midi": 78,
      "hit": false,
      "t": 64937.5,
      "d": 226.5625,
      "v": 105
    },
    {
      "midi": 76,
      "hit": false,
      "t": 65242.1875,
      "d": 148.4375,
      "v": 88
    },
    {
      "midi": 54,
      "hit": false,
      "t": 65250,
      "d": 718.75,
      "v": 104
    },
    {
      "midi": 78,
      "hit": false,
      "t": 65515.625,
      "d": 140.625,
      "v": 102
    },
    {
      "midi": 76,
      "hit": false,
      "t": 65703.125,
      "d": 93.75,
      "v": 73
    },
    {
      "midi": 76,
      "hit": false,
      "t": 65945.3125,
      "d": 23.4375,
      "v": 42
    },
    {
      "midi": 78,
      "hit": false,
      "t": 65960.9375,
      "d": 335.9375,
      "v": 102
    },
    {
      "midi": 52,
      "hit": false,
      "t": 65968.75,
      "d": 1.5625,
      "v": 103
    },
    {
      "midi": 57,
      "hit": false,
      "t": 65968.75,
      "d": 1.5625,
      "v": 104
    },
    {
      "midi": 64,
      "hit": false,
      "t": 65968.75,
      "d": 1.5625,
      "v": 99
    },
    {
      "midi": 59,
      "hit": false,
      "t": 65968.75,
      "d": 23.4375,
      "v": 99
    },
    {
      "midi": 62,
      "hit": false,
      "t": 65968.75,
      "d": 23.4375,
      "v": 99
    },
    {
      "midi": 50,
      "hit": false,
      "t": 65968.75,
      "d": 2648.4375,
      "v": 103
    },
    {
      "midi": 56,
      "hit": false,
      "t": 66000,
      "d": 1500,
      "v": 96
    },
    {
      "midi": 59,
      "hit": false,
      "t": 66000,
      "d": 2992.1875,
      "v": 96
    },
    {
      "midi": 62,
      "hit": false,
      "t": 66000,
      "d": 2992.1875,
      "v": 96
    },
    {
      "midi": 76,
      "hit": false,
      "t": 66304.6875,
      "d": 281.25,
      "v": 79
    },
    {
      "midi": 78,
      "hit": false,
      "t": 66562.5,
      "d": 132.8125,
      "v": 99
    },
    {
      "midi": 76,
      "hit": false,
      "t": 66710.9375,
      "d": 148.4375,
      "v": 75
    },
    {
      "midi": 78,
      "hit": false,
      "t": 66921.875,
      "d": 2937.5,
      "v": 112
    },
    {
      "midi": 57,
      "hit": false,
      "t": 67500,
      "d": 742.1875,
      "v": 96
    },
    {
      "midi": 56,
      "hit": false,
      "t": 68250,
      "d": 742.1875,
      "v": 92
    },
    {
      "midi": 50,
      "hit": false,
      "t": 68625,
      "d": 367.1875,
      "v": 99
    },
    {
      "midi": 52,
      "hit": false,
      "t": 68992.1875,
      "d": 1875,
      "v": 99
    },
    {
      "midi": 57,
      "hit": false,
      "t": 69000,
      "d": 742.1875,
      "v": 96
    },
    {
      "midi": 61,
      "hit": false,
      "t": 69000,
      "d": 742.1875,
      "v": 96
    },
    {
      "midi": 64,
      "hit": false,
      "t": 69000,
      "d": 742.1875,
      "v": 96
    },
    {
      "midi": 57,
      "hit": false,
      "t": 69750,
      "d": 734.375,
      "v": 97
    },
    {
      "midi": 61,
      "hit": false,
      "t": 69750,
      "d": 1867.1875,
      "v": 97
    },
    {
      "midi": 64,
      "hit": false,
      "t": 69750,
      "d": 2242.1875,
      "v": 97
    },
    {
      "midi": 76,
      "hit": false,
      "t": 69929.6875,
      "d": 359.375,
      "v": 102
    },
    {
      "midi": 85,
      "hit": false,
      "t": 70312.5,
      "d": 484.375,
      "v": 119
    },
    {
      "midi": 56,
      "hit": false,
      "t": 70484.375,
      "d": 757.8125,
      "v": 97
    },
    {
      "midi": 83,
      "hit": false,
      "t": 70773.4375,
      "d": 523.4375,
      "v": 77
    },
    {
      "midi": 52,
      "hit": false,
      "t": 70875,
      "d": 4101.5625,
      "v": 99
    },
    {
      "midi": 56,
      "hit": false,
      "t": 71250,
      "d": 718.75,
      "v": 95
    },
    {
      "midi": 81,
      "hit": false,
      "t": 71312.5,
      "d": 445.3125,
      "v": 105
    },
    {
      "midi": 61,
      "hit": false,
      "t": 71625,
      "d": 343.75,
      "v": 95
    },
    {
      "midi": 76,
      "hit": false,
      "t": 71765.625,
      "d": 4109.375,
      "v": 74
    },
    {
      "midi": 57,
      "hit": false,
      "t": 71968.75,
      "d": 23.4375,
      "v": 95
    },
    {
      "midi": 59,
      "hit": false,
      "t": 71968.75,
      "d": 23.4375,
      "v": 95
    },
    {
      "midi": 61,
      "hit": false,
      "t": 72000,
      "d": 742.1875,
      "v": 105
    },
    {
      "midi": 64,
      "hit": false,
      "t": 72000,
      "d": 742.1875,
      "v": 93
    },
    {
      "midi": 57,
      "hit": false,
      "t": 72000,
      "d": 1054.6875,
      "v": 94
    },
    {
      "midi": 69,
      "hit": false,
      "t": 72750,
      "d": 304.6875,
      "v": 99
    },
    {
      "midi": 61,
      "hit": false,
      "t": 72750,
      "d": 1460.9375,
      "v": 91
    },
    {
      "midi": 64,
      "hit": false,
      "t": 72750,
      "d": 1867.1875,
      "v": 95
    },
    {
      "midi": 56,
      "hit": false,
      "t": 73054.6875,
      "d": 812.5,
      "v": 94
    },
    {
      "midi": 68,
      "hit": false,
      "t": 73054.6875,
      "d": 1156.25,
      "v": 99
    },
    {
      "midi": 56,
      "hit": false,
      "t": 73875,
      "d": 335.9375,
      "v": 92
    },
    {
      "midi": 62,
      "hit": false,
      "t": 74210.9375,
      "d": 31.25,
      "v": 91
    },
    {
      "midi": 55,
      "hit": false,
      "t": 74210.9375,
      "d": 765.625,
      "v": 92
    },
    {
      "midi": 67,
      "hit": false,
      "t": 74210.9375,
      "d": 765.625,
      "v": 99
    },
    {
      "midi": 61,
      "hit": false,
      "t": 74250,
      "d": 726.5625,
      "v": 93
    },
    {
      "midi": 64,
      "hit": false,
      "t": 74625,
      "d": 351.5625,
      "v": 92
    },
    {
      "midi": 51,
      "hit": false,
      "t": 74976.5625,
      "d": 1.5625,
      "v": 99
    },
    {
      "midi": 63,
      "hit": false,
      "t": 74976.5625,
      "d": 1.5625,
      "v": 92
    },
    {
      "midi": 54,
      "hit": false,
      "t": 74976.5625,
      "d": 15.625,
      "v": 92
    },
    {
      "midi": 57,
      "hit": false,
      "t": 74976.5625,
      "d": 15.625,
      "v": 93
    },
    {
      "midi": 62,
      "hit": false,
      "t": 74976.5625,
      "d": 15.625,
      "v": 92
    },
    {
      "midi": 66,
      "hit": false,
      "t": 74976.5625,
      "d": 15.625,
      "v": 99
    },
    {
      "midi": 50,
      "hit": false,
      "t": 74976.5625,
      "d": 765.625,
      "v": 99
    },
    {
      "midi": 54,
      "hit": false,
      "t": 75000,
      "d": 742.1875,
      "v": 91
    },
    {
      "midi": 57,
      "hit": false,
      "t": 75000,
      "d": 742.1875,
      "v": 97
    },
    {
      "midi": 62,
      "hit": false,
      "t": 75000,
      "d": 2992.1875,
      "v": 92
    },
    {
      "midi": 50,
      "hit": false,
      "t": 75750,
      "d": 1117.1875,
      "v": 102
    },
    {
      "midi": 54,
      "hit": false,
      "t": 75750,
      "d": 1492.1875,
      "v": 95
    },
    {
      "midi": 57,
      "hit": false,
      "t": 75750,
      "d": 2218.75,
      "v": 91
    },
    {
      "midi": 78,
      "hit": false,
      "t": 75984.375,
      "d": 195.3125,
      "v": 115
    },
    {
      "midi": 78,
      "hit": false,
      "t": 76273.4375,
      "d": 234.375,
      "v": 97
    },
    {
      "midi": 76,
      "hit": false,
      "t": 76570.3125,
      "d": 195.3125,
      "v": 79
    },
    {
      "midi": 78,
      "hit": false,
      "t": 76851.5625,
      "d": 164.0625,
      "v": 84
    },
    {
      "midi": 50,
      "hit": false,
      "t": 76875,
      "d": 4117.1875,
      "v": 97
    },
    {
      "midi": 76,
      "hit": false,
      "t": 77046.875,
      "d": 101.5625,
      "v": 86
    },
    {
      "midi": 78,
      "hit": false,
      "t": 77250,
      "d": 234.375,
      "v": 97
    },
    {
      "midi": 54,
      "hit": false,
      "t": 77250,
      "d": 718.75,
      "v": 94
    },
    {
      "midi": 76,
      "hit": false,
      "t": 77546.875,
      "d": 195.3125,
      "v": 88
    },
    {
      "midi": 78,
      "hit": false,
      "t": 77789.0625,
      "d": 117.1875,
      "v": 90
    },
    {
      "midi": 57,
      "hit": false,
      "t": 77968.75,
      "d": 23.4375,
      "v": 94
    },
    {
      "midi": 59,
      "hit": false,
      "t": 77968.75,
      "d": 23.4375,
      "v": 91
    },
    {
      "midi": 76,
      "hit": false,
      "t": 77984.375,
      "d": 125,
      "v": 88
    },
    {
      "midi": 56,
      "hit": false,
      "t": 78000,
      "d": 742.1875,
      "v": 95
    },
    {
      "midi": 59,
      "hit": false,
      "t": 78000,
      "d": 742.1875,
      "v": 95
    },
    {
      "midi": 62,
      "hit": false,
      "t": 78000,
      "d": 742.1875,
      "v": 95
    },
    {
      "midi": 78,
      "hit": false,
      "t": 78195.3125,
      "d": 265.625,
      "v": 119
    },
    {
      "midi": 78,
      "hit": false,
      "t": 78546.875,
      "d": 2812.5,
      "v": 102
    },
    {
      "midi": 56,
      "hit": false,
      "t": 78750,
      "d": 750,
      "v": 95
    },
    {
      "midi": 62,
      "hit": false,
      "t": 78750,
      "d": 1867.1875,
      "v": 95
    },
    {
      "midi": 59,
      "hit": false,
      "t": 78750,
      "d": 2242.1875,
      "v": 95
    },
    {
      "midi": 57,
      "hit": false,
      "t": 79500,
      "d": 367.1875,
      "v": 95
    },
    {
      "midi": 57,
      "hit": false,
      "t": 79875,
      "d": 375,
      "v": 100
    },
    {
      "midi": 56,
      "hit": false,
      "t": 80250,
      "d": 742.1875,
      "v": 100
    },
    {
      "midi": 68,
      "hit": false,
      "t": 80250,
      "d": 742.1875,
      "v": 105
    },
    {
      "midi": 62,
      "hit": false,
      "t": 80625,
      "d": 367.1875,
      "v": 95
    },
    {
      "midi": 64,
      "hit": false,
      "t": 80992.1875,
      "d": 750,
      "v": 95
    },
    {
      "midi": 69,
      "hit": false,
      "t": 80992.1875,
      "d": 1500,
      "v": 105
    },
    {
      "midi": 57,
      "hit": false,
      "t": 81000,
      "d": 742.1875,
      "v": 89
    },
    {
      "midi": 61,
      "hit": false,
      "t": 81000,
      "d": 742.1875,
      "v": 98
    },
    {
      "midi": 52,
      "hit": false,
      "t": 81000,
      "d": 1867.1875,
      "v": 97
    },
    {
      "midi": 76,
      "hit": false,
      "t": 81500,
      "d": 328.125,
      "v": 84
    },
    {
      "midi": 57,
      "hit": false,
      "t": 81750,
      "d": 742.1875,
      "v": 86
    },
    {
      "midi": 61,
      "hit": false,
      "t": 81750,
      "d": 1867.1875,
      "v": 97
    },
    {
      "midi": 64,
      "hit": false,
      "t": 81750,
      "d": 2242.1875,
      "v": 90
    },
    {
      "midi": 85,
      "hit": false,
      "t": 81937.5,
      "d": 437.5,
      "v": 102
    },
    {
      "midi": 83,
      "hit": false,
      "t": 82406.25,
      "d": 296.875,
      "v": 94
    },
    {
      "midi": 56,
      "hit": false,
      "t": 82492.1875,
      "d": 750,
      "v": 86
    },
    {
      "midi": 68,
      "hit": false,
      "t": 82492.1875,
      "d": 750,
      "v": 105
    },
    {
      "midi": 81,
      "hit": false,
      "t": 82773.4375,
      "d": 687.5,
      "v": 92
    },
    {
      "midi": 52,
      "hit": false,
      "t": 82875,
      "d": 1117.1875,
      "v": 95
    },
    {
      "midi": 56,
      "hit": false,
      "t": 83250,
      "d": 710.9375,
      "v": 90
    },
    {
      "midi": 76,
      "hit": false,
      "t": 83468.75,
      "d": 3242.1875,
      "v": 65
    },
    {
      "midi": 61,
      "hit": false,
      "t": 83625,
      "d": 335.9375,
      "v": 90
    },
    {
      "midi": 57,
      "hit": false,
      "t": 83960.9375,
      "d": 31.25,
      "v": 90
    },
    {
      "midi": 59,
      "hit": false,
      "t": 83960.9375,
      "d": 31.25,
      "v": 90
    },
    {
      "midi": 61,
      "hit": false,
      "t": 84000,
      "d": 742.1875,
      "v": 98
    },
    {
      "midi": 64,
      "hit": false,
      "t": 84000,
      "d": 742.1875,
      "v": 95
    },
    {
      "midi": 57,
      "hit": false,
      "t": 84000,
      "d": 1093.75,
      "v": 84
    },
    {
      "midi": 69,
      "hit": false,
      "t": 84750,
      "d": 343.75,
      "v": 94
    },
    {
      "midi": 61,
      "hit": false,
      "t": 84750,
      "d": 1117.1875,
      "v": 90
    },
    {
      "midi": 64,
      "hit": false,
      "t": 84750,
      "d": 1679.6875,
      "v": 85
    },
    {
      "midi": 56,
      "hit": false,
      "t": 85093.75,
      "d": 585.9375,
      "v": 84
    },
    {
      "midi": 68,
      "hit": false,
      "t": 85093.75,
      "d": 960.9375,
      "v": 94
    },
    {
      "midi": 56,
      "hit": false,
      "t": 85687.5,
      "d": 539.0625,
      "v": 95
    },
    {
      "midi": 61,
      "hit": false,
      "t": 85875,
      "d": 351.5625,
      "v": 100
    },
    {
      "midi": 68,
      "hit": false,
      "t": 86062.5,
      "d": 164.0625,
      "v": 101
    },
    {
      "midi": 62,
      "hit": false,
      "t": 86226.5625,
      "d": 23.4375,
      "v": 100
    },
    {
      "midi": 55,
      "hit": false,
      "t": 86226.5625,
      "d": 578.125,
      "v": 95
    },
    {
      "midi": 67,
      "hit": false,
      "t": 86226.5625,
      "d": 742.1875,
      "v": 101
    },
    {
      "midi": 61,
      "hit": false,
      "t": 86250,
      "d": 367.1875,
      "v": 100
    },
    {
      "midi": 64,
      "hit": false,
      "t": 86437.5,
      "d": 531.25,
      "v": 97
    },
    {
      "midi": 61,
      "hit": false,
      "t": 86625,
      "d": 343.75,
      "v": 95
    },
    {
      "midi": 55,
      "hit": false,
      "t": 86812.5,
      "d": 156.25,
      "v": 96
    },
    {
      "midi": 63,
      "hit": false,
      "t": 86968.75,
      "d": 1.5625,
      "v": 97
    },
    {
      "midi": 54,
      "hit": false,
      "t": 86968.75,
      "d": 23.4375,
      "v": 96
    },
    {
      "midi": 57,
      "hit": false,
      "t": 86968.75,
      "d": 23.4375,
      "v": 95
    },
    {
      "midi": 62,
      "hit": false,
      "t": 86968.75,
      "d": 23.4375,
      "v": 97
    },
    {
      "midi": 66,
      "hit": false,
      "t": 86968.75,
      "d": 23.4375,
      "v": 101
    },
    {
      "midi": 54,
      "hit": false,
      "t": 87000,
      "d": 734.375,
      "v": 97
    },
    {
      "midi": 57,
      "hit": false,
      "t": 87000,
      "d": 734.375,
      "v": 95
    },
    {
      "midi": 50,
      "hit": false,
      "t": 87000,
      "d": 1859.375,
      "v": 94
    },
    {
      "midi": 54,
      "hit": false,
      "t": 87750,
      "d": 1492.1875,
      "v": 99
    },
    {
      "midi": 57,
      "hit": false,
      "t": 87750,
      "d": 1867.1875,
      "v": 99
    },
    {
      "midi": 62,
      "hit": false,
      "t": 87750,
      "d": 2218.75,
      "v": 99
    },
    {
      "midi": 86,
      "hit": false,
      "t": 88000,
      "d": 195.3125,
      "v": 119
    },
    {
      "midi": 86,
      "hit": false,
      "t": 88296.875,
      "d": 367.1875,
      "v": 105
    },
    {
      "midi": 85,
      "hit": false,
      "t": 88679.6875,
      "d": 148.4375,
      "v": 105
    },
    {
      "midi": 50,
      "hit": false,
      "t": 88875,
      "d": 1093.75,
      "v": 103
    },
    {
      "midi": 86,
      "hit": false,
      "t": 88929.6875,
      "d": 164.0625,
      "v": 99
    },
    {
      "midi": 85,
      "hit": false,
      "t": 89117.1875,
      "d": 93.75,
      "v": 108
    },
    {
      "midi": 54,
      "hit": false,
      "t": 89250,
      "d": 718.75,
      "v": 104
    },
    {
      "midi": 86,
      "hit": false,
      "t": 89312.5,
      "d": 218.75,
      "v": 102
    },
    {
      "midi": 85,
      "hit": false,
      "t": 89562.5,
      "d": 109.375,
      "v": 105
    },
    {
      "midi": 57,
      "hit": false,
      "t": 89625,
      "d": 343.75,
      "v": 99
    },
    {
      "midi": 85,
      "hit": false,
      "t": 89804.6875,
      "d": 62.5,
      "v": 66
    },
    {
      "midi": 86,
      "hit": false,
      "t": 89843.75,
      "d": 304.6875,
      "v": 112
    },
    {
      "midi": 51,
      "hit": false,
      "t": 89968.75,
      "d": 1.5625,
      "v": 103
    },
    {
      "midi": 63,
      "hit": false,
      "t": 89968.75,
      "d": 1.5625,
      "v": 99
    },
    {
      "midi": 57,
      "hit": false,
      "t": 89968.75,
      "d": 23.4375,
      "v": 104
    },
    {
      "midi": 59,
      "hit": false,
      "t": 89968.75,
      "d": 23.4375,
      "v": 99
    },
    {
      "midi": 62,
      "hit": false,
      "t": 89968.75,
      "d": 23.4375,
      "v": 99
    },
    {
      "midi": 50,
      "hit": false,
      "t": 89968.75,
      "d": 2648.4375,
      "v": 103
    },
    {
      "midi": 56,
      "hit": false,
      "t": 90000,
      "d": 1500,
      "v": 96
    },
    {
      "midi": 59,
      "hit": false,
      "t": 90000,
      "d": 2976.5625,
      "v": 96
    },
    {
      "midi": 62,
      "hit": false,
      "t": 90000,
      "d": 2976.5625,
      "v": 96
    },
    {
      "midi": 85,
      "hit": false,
      "t": 90132.8125,
      "d": 101.5625,
      "v": 119
    },
    {
      "midi": 86,
      "hit": false,
      "t": 90367.1875,
      "d": 289.0625,
      "v": 124
    },
    {
      "midi": 86,
      "hit": false,
      "t": 90726.5625,
      "d": 2570.3125,
      "v": 124
    },
    {
      "midi": 57,
      "hit": false,
      "t": 91500,
      "d": 742.1875,
      "v": 96
    },
    {
      "midi": 56,
      "hit": false,
      "t": 92250,
      "d": 726.5625,
      "v": 92
    },
    {
      "midi": 50,
      "hit": false,
      "t": 92625,
      "d": 351.5625,
      "v": 99
    },
    {
      "midi": 57,
      "hit": false,
      "t": 92976.5625,
      "d": 15.625,
      "v": 92
    },
    {
      "midi": 61,
      "hit": false,
      "t": 92976.5625,
      "d": 15.625,
      "v": 96
    },
    {
      "midi": 64,
      "hit": false,
      "t": 92976.5625,
      "d": 15.625,
      "v": 96
    },
    {
      "midi": 52,
      "hit": false,
      "t": 92976.5625,
      "d": 1890.625,
      "v": 99
    },
    {
      "midi": 57,
      "hit": false,
      "t": 93000,
      "d": 742.1875,
      "v": 96
    },
    {
      "midi": 61,
      "hit": false,
      "t": 93000,
      "d": 742.1875,
      "v": 96
    },
    {
      "midi": 64,
      "hit": false,
      "t": 93000,
      "d": 742.1875,
      "v": 96
    },
    {
      "midi": 85,
      "hit": false,
      "t": 93351.5625,
      "d": 226.5625,
      "v": 127
    },
    {
      "midi": 85,
      "hit": false,
      "t": 93687.5,
      "d": 429.6875,
      "v": 112
    },
    {
      "midi": 57,
      "hit": false,
      "t": 93750,
      "d": 710.9375,
      "v": 97
    },
    {
      "midi": 61,
      "hit": false,
      "t": 93750,
      "d": 1867.1875,
      "v": 97
    },
    {
      "midi": 64,
      "hit": false,
      "t": 93750,
      "d": 2242.1875,
      "v": 97
    },
    {
      "midi": 83,
      "hit": false,
      "t": 94148.4375,
      "d": 367.1875,
      "v": 86
    },
    {
      "midi": 56,
      "hit": false,
      "t": 94460.9375,
      "d": 781.25,
      "v": 97
    },
    {
      "midi": 85,
      "hit": false,
      "t": 94648.4375,
      "d": 179.6875,
      "v": 115
    },
    {
      "midi": 83,
      "hit": false,
      "t": 94867.1875,
      "d": 140.625,
      "v": 83
    },
    {
      "midi": 52,
      "hit": false,
      "t": 94875,
      "d": 4093.75,
      "v": 99
    },
    {
      "midi": 85,
      "hit": false,
      "t": 95085.9375,
      "d": 437.5,
      "v": 102
    },
    {
      "midi": 56,
      "hit": false,
      "t": 95250,
      "d": 742.1875,
      "v": 95
    },
    {
      "midi": 83,
      "hit": false,
      "t": 95570.3125,
      "d": 187.5,
      "v": 94
    },
    {
      "midi": 61,
      "hit": false,
      "t": 95625,
      "d": 367.1875,
      "v": 95
    },
    {
      "midi": 83,
      "hit": false,
      "t": 95921.875,
      "d": 54.6875,
      "v": 88
    },
    {
      "midi": 85,
      "hit": false,
      "t": 95953.125,
      "d": 343.75,
      "v": 68
    },
    {
      "midi": 56,
      "hit": false,
      "t": 96000,
      "d": 23.4375,
      "v": 94
    },
    {
      "midi": 61,
      "hit": false,
      "t": 96000,
      "d": 23.4375,
      "v": 105
    },
    {
      "midi": 64,
      "hit": false,
      "t": 96000,
      "d": 742.1875,
      "v": 93
    },
    {
      "midi": 57,
      "hit": false,
      "t": 96023.4375,
      "d": 1.5625,
      "v": 105
    },
    {
      "midi": 61,
      "hit": false,
      "t": 96023.4375,
      "d": 718.75,
      "v": 105
    },
    {
      "midi": 83,
      "hit": false,
      "t": 96296.875,
      "d": 179.6875,
      "v": 90
    },
    {
      "midi": 85,
      "hit": false,
      "t": 96601.5625,
      "d": 2367.1875,
      "v": 119
    },
    {
      "midi": 69,
      "hit": false,
      "t": 96750,
      "d": 718.75,
      "v": 99
    },
    {
      "midi": 61,
      "hit": false,
      "t": 96750,
      "d": 750,
      "v": 91
    },
    {
      "midi": 64,
      "hit": false,
      "t": 96750,
      "d": 1867.1875,
      "v": 95
    },
    {
      "midi": 55,
      "hit": false,
      "t": 97468.75,
      "d": 398.4375,
      "v": 94
    },
    {
      "midi": 67,
      "hit": false,
      "t": 97468.75,
      "d": 1500,
      "v": 99
    },
    {
      "midi": 62,
      "hit": false,
      "t": 97500,
      "d": 742.1875,
      "v": 91
    },
    {
      "midi": 55,
      "hit": false,
      "t": 97875,
      "d": 1093.75,
      "v": 92
    },
    {
      "midi": 61,
      "hit": false,
      "t": 98250,
      "d": 718.75,
      "v": 93
    },
    {
      "midi": 64,
      "hit": false,
      "t": 98625,
      "d": 343.75,
      "v": 92
    },
    {
      "midi": 51,
      "hit": false,
      "t": 98968.75,
      "d": 1.5625,
      "v": 99
    },
    {
      "midi": 63,
      "hit": false,
      "t": 98968.75,
      "d": 1.5625,
      "v": 92
    },
    {
      "midi": 54,
      "hit": false,
      "t": 98968.75,
      "d": 23.4375,
      "v": 92
    },
    {
      "midi": 57,
      "hit": false,
      "t": 98968.75,
      "d": 23.4375,
      "v": 93
    },
    {
      "midi": 62,
      "hit": false,
      "t": 98968.75,
      "d": 23.4375,
      "v": 92
    },
    {
      "midi": 66,
      "hit": false,
      "t": 98968.75,
      "d": 23.4375,
      "v": 99
    },
    {
      "midi": 50,
      "hit": false,
      "t": 98968.75,
      "d": 773.4375,
      "v": 99
    },
    {
      "midi": 54,
      "hit": false,
      "t": 99000,
      "d": 742.1875,
      "v": 91
    },
    {
      "midi": 57,
      "hit": false,
      "t": 99000,
      "d": 742.1875,
      "v": 97
    },
    {
      "midi": 62,
      "hit": false,
      "t": 99000,
      "d": 2992.1875,
      "v": 92
    },
    {
      "midi": 50,
      "hit": false,
      "t": 99750,
      "d": 1117.1875,
      "v": 102
    },
    {
      "midi": 54,
      "hit": false,
      "t": 99750,
      "d": 1492.1875,
      "v": 95
    },
    {
      "midi": 57,
      "hit": false,
      "t": 99750,
      "d": 2242.1875,
      "v": 91
    },
    {
      "midi": 83,
      "hit": false,
      "t": 99984.375,
      "d": 187.5,
      "v": 90
    },
    {
      "midi": 83,
      "hit": false,
      "t": 100281.25,
      "d": 265.625,
      "v": 97
    },
    {
      "midi": 81,
      "hit": false,
      "t": 100562.5,
      "d": 148.4375,
      "v": 66
    },
    {
      "midi": 83,
      "hit": false,
      "t": 100789.0625,
      "d": 265.625,
      "v": 78
    },
    {
      "midi": 50,
      "hit": false,
      "t": 100875,
      "d": 4093.75,
      "v": 97
    },
    {
      "midi": 81,
      "hit": false,
      "t": 101062.5,
      "d": 140.625,
      "v": 92
    },
    {
      "midi": 54,
      "hit": false,
      "t": 101250,
      "d": 679.6875,
      "v": 94
    },
    {
      "midi": 83,
      "hit": false,
      "t": 101304.6875,
      "d": 257.8125,
      "v": 81
    },
    {
      "midi": 81,
      "hit": false,
      "t": 101531.25,
      "d": 101.5625,
      "v": 86
    },
    {
      "midi": 81,
      "hit": false,
      "t": 101773.4375,
      "d": 70.3125,
      "v": 52
    },
    {
      "midi": 83,
      "hit": false,
      "t": 101812.5,
      "d": 523.4375,
      "v": 90
    },
    {
      "midi": 55,
      "hit": false,
      "t": 101929.6875,
      "d": 62.5,
      "v": 94
    },
    {
      "midi": 55,
      "hit": false,
      "t": 102000,
      "d": 742.1875,
      "v": 95
    },
    {
      "midi": 59,
      "hit": false,
      "t": 102000,
      "d": 742.1875,
      "v": 95
    },
    {
      "midi": 62,
      "hit": false,
      "t": 102000,
      "d": 742.1875,
      "v": 95
    },
    {
      "midi": 81,
      "hit": false,
      "t": 102289.0625,
      "d": 195.3125,
      "v": 81
    },
    {
      "midi": 79,
      "hit": false,
      "t": 102507.8125,
      "d": 2843.75,
      "v": 78
    },
    {
      "midi": 59,
      "hit": false,
      "t": 102750,
      "d": 750,
      "v": 95
    },
    {
      "midi": 55,
      "hit": false,
      "t": 102750,
      "d": 1117.1875,
      "v": 95
    },
    {
      "midi": 62,
      "hit": false,
      "t": 102750,
      "d": 1867.1875,
      "v": 95
    },
    {
      "midi": 57,
      "hit": false,
      "t": 103500,
      "d": 750,
      "v": 95
    },
    {
      "midi": 55,
      "hit": false,
      "t": 103875,
      "d": 1093.75,
      "v": 100
    },
    {
      "midi": 67,
      "hit": false,
      "t": 104250,
      "d": 718.75,
      "v": 105
    },
    {
      "midi": 59,
      "hit": false,
      "t": 104250,
      "d": 742.1875,
      "v": 95
    },
    {
      "midi": 62,
      "hit": false,
      "t": 104625,
      "d": 343.75,
      "v": 95
    },
    {
      "midi": 52,
      "hit": false,
      "t": 104968.75,
      "d": 1.5625,
      "v": 100
    },
    {
      "midi": 64,
      "hit": false,
      "t": 104968.75,
      "d": 1.5625,
      "v": 105
    },
    {
      "midi": 50,
      "hit": false,
      "t": 104968.75,
      "d": 23.4375,
      "v": 97
    },
    {
      "midi": 56,
      "hit": false,
      "t": 104968.75,
      "d": 23.4375,
      "v": 100
    },
    {
      "midi": 62,
      "hit": false,
      "t": 104968.75,
      "d": 773.4375,
      "v": 95
    },
    {
      "midi": 68,
      "hit": false,
      "t": 104968.75,
      "d": 2273.4375,
      "v": 105
    },
    {
      "midi": 56,
      "hit": false,
      "t": 105000,
      "d": 742.1875,
      "v": 89
    },
    {
      "midi": 59,
      "hit": false,
      "t": 105000,
      "d": 742.1875,
      "v": 98
    },
    {
      "midi": 50,
      "hit": false,
      "t": 105000,
      "d": 1867.1875,
      "v": 97
    },
    {
      "midi": 80,
      "hit": false,
      "t": 105406.25,
      "d": 257.8125,
      "v": 112
    },
    {
      "midi": 56,
      "hit": false,
      "t": 105750,
      "d": 1492.1875,
      "v": 86
    },
    {
      "midi": 59,
      "hit": false,
      "t": 105750,
      "d": 1867.1875,
      "v": 97
    },
    {
      "midi": 62,
      "hit": false,
      "t": 105750,
      "d": 2242.1875,
      "v": 90
    },
    {
      "midi": 80,
      "hit": false,
      "t": 105773.4375,
      "d": 515.625,
      "v": 124
    },
    {
      "midi": 76,
      "hit": false,
      "t": 106312.5,
      "d": 429.6875,
      "v": 84
    },
    {
      "midi": 76,
      "hit": false,
      "t": 106804.6875,
      "d": 3835.9375,
      "v": 75
    },
    {
      "midi": 50,
      "hit": false,
      "t": 106875,
      "d": 1117.1875,
      "v": 95
    },
    {
      "midi": 57,
      "hit": false,
      "t": 107250,
      "d": 742.1875,
      "v": 90
    },
    {
      "midi": 59,
      "hit": false,
      "t": 107625,
      "d": 367.1875,
      "v": 90
    },
    {
      "midi": 59,
      "hit": false,
      "t": 108000,
      "d": 742.1875,
      "v": 98
    },
    {
      "midi": 62,
      "hit": false,
      "t": 108000,
      "d": 742.1875,
      "v": 95
    },
    {
      "midi": 56,
      "hit": false,
      "t": 108000,
      "d": 1445.3125,
      "v": 84
    },
    {
      "midi": 59,
      "hit": false,
      "t": 108750,
      "d": 695.3125,
      "v": 90
    },
    {
      "midi": 62,
      "hit": false,
      "t": 108750,
      "d": 695.3125,
      "v": 85
    },
    {
      "midi": 68,
      "hit": false,
      "t": 108750,
      "d": 695.3125,
      "v": 94
    },
    {
      "midi": 57,
      "hit": false,
      "t": 109875,
      "d": 375,
      "v": 97
    },
    {
      "midi": 56,
      "hit": false,
      "t": 110250,
      "d": 734.375,
      "v": 97
    },
    {
      "midi": 59,
      "hit": false,
      "t": 110250,
      "d": 734.375,
      "v": 95
    },
    {
      "midi": 62,
      "hit": false,
      "t": 110250,
      "d": 734.375,
      "v": 100
    },
    {
      "midi": 68,
      "hit": false,
      "t": 110250,
      "d": 734.375,
      "v": 98
    },
    {
      "midi": 63,
      "hit": false,
      "t": 110984.375,
      "d": 1.5625,
      "v": 100
    },
    {
      "midi": 54,
      "hit": false,
      "t": 110984.375,
      "d": 7.8125,
      "v": 97
    },
    {
      "midi": 57,
      "hit": false,
      "t": 110984.375,
      "d": 7.8125,
      "v": 95
    },
    {
      "midi": 62,
      "hit": false,
      "t": 110984.375,
      "d": 7.8125,
      "v": 100
    },
    {
      "midi": 66,
      "hit": false,
      "t": 110984.375,
      "d": 7.8125,
      "v": 98
    },
    {
      "midi": 54,
      "hit": false,
      "t": 111000,
      "d": 734.375,
      "v": 97
    },
    {
      "midi": 57,
      "hit": false,
      "t": 111000,
      "d": 734.375,
      "v": 95
    },
    {
      "midi": 50,
      "hit": false,
      "t": 111000,
      "d": 1859.375,
      "v": 94
    },
    {
      "midi": 54,
      "hit": false,
      "t": 111750,
      "d": 1492.1875,
      "v": 99
    },
    {
      "midi": 57,
      "hit": false,
      "t": 111750,
      "d": 1867.1875,
      "v": 99
    },
    {
      "midi": 62,
      "hit": false,
      "t": 111750,
      "d": 2242.1875,
      "v": 99
    },
    {
      "midi": 78,
      "hit": false,
      "t": 112726.5625,
      "d": 125,
      "v": 105
    },
    {
      "midi": 50,
      "hit": false,
      "t": 112875,
      "d": 1140.625,
      "v": 103
    },
    {
      "midi": 78,
      "hit": false,
      "t": 112976.5625,
      "d": 273.4375,
      "v": 97
    },
    {
      "midi": 54,
      "hit": false,
      "t": 113250,
      "d": 742.1875,
      "v": 104
    },
    {
      "midi": 76,
      "hit": false,
      "t": 113289.0625,
      "d": 117.1875,
      "v": 83
    },
    {
      "midi": 78,
      "hit": false,
      "t": 113500,
      "d": 210.9375,
      "v": 86
    },
    {
      "midi": 57,
      "hit": false,
      "t": 113625,
      "d": 367.1875,
      "v": 99
    },
    {
      "midi": 76,
      "hit": false,
      "t": 113734.375,
      "d": 125,
      "v": 83
    },
    {
      "midi": 78,
      "hit": false,
      "t": 113960.9375,
      "d": 195.3125,
      "v": 81
    },
    {
      "midi": 54,
      "hit": false,
      "t": 114000,
      "d": 15.625,
      "v": 96
    },
    {
      "midi": 57,
      "hit": false,
      "t": 114000,
      "d": 15.625,
      "v": 96
    },
    {
      "midi": 62,
      "hit": false,
      "t": 114000,
      "d": 15.625,
      "v": 96
    },
    {
      "midi": 51,
      "hit": false,
      "t": 114015.625,
      "d": 15.625,
      "v": 103
    },
    {
      "midi": 63,
      "hit": false,
      "t": 114015.625,
      "d": 15.625,
      "v": 96
    },
    {
      "midi": 56,
      "hit": false,
      "t": 114015.625,
      "d": 1484.375,
      "v": 96
    },
    {
      "midi": 59,
      "hit": false,
      "t": 114015.625,
      "d": 2960.9375,
      "v": 96
    },
    {
      "midi": 52,
      "hit": false,
      "t": 114031.25,
      "d": 2585.9375,
      "v": 103
    },
    {
      "midi": 64,
      "hit": false,
      "t": 114031.25,
      "d": 2960.9375,
      "v": 96
    },
    {
      "midi": 76,
      "hit": false,
      "t": 114187.5,
      "d": 164.0625,
      "v": 67
    },
    {
      "midi": 78,
      "hit": false,
      "t": 114406.25,
      "d": 132.8125,
      "v": 88
    },
    {
      "midi": 76,
      "hit": false,
      "t": 114562.5,
      "d": 101.5625,
      "v": 59
    },
    {
      "midi": 78,
      "hit": false,
      "t": 114765.625,
      "d": 265.625,
      "v": 102
    },
    {
      "midi": 78,
      "hit": false,
      "t": 115117.1875,
      "d": 2078.125,
      "v": 127
    },
    {
      "midi": 54,
      "hit": false,
      "t": 115500,
      "d": 742.1875,
      "v": 96
    },
    {
      "midi": 56,
      "hit": false,
      "t": 116250,
      "d": 726.5625,
      "v": 92
    },
    {
      "midi": 52,
      "hit": false,
      "t": 116625,
      "d": 2242.1875,
      "v": 99
    },
    {
      "midi": 57,
      "hit": false,
      "t": 116976.5625,
      "d": 15.625,
      "v": 92
    },
    {
      "midi": 61,
      "hit": false,
      "t": 116976.5625,
      "d": 15.625,
      "v": 96
    },
    {
      "midi": 57,
      "hit": false,
      "t": 117000,
      "d": 742.1875,
      "v": 96
    },
    {
      "midi": 61,
      "hit": false,
      "t": 117000,
      "d": 742.1875,
      "v": 96
    },
    {
      "midi": 64,
      "hit": false,
      "t": 117000,
      "d": 742.1875,
      "v": 96
    },
    {
      "midi": 76,
      "hit": false,
      "t": 117359.375,
      "d": 531.25,
      "v": 108
    },
    {
      "midi": 57,
      "hit": false,
      "t": 117750,
      "d": 695.3125,
      "v": 97
    },
    {
      "midi": 61,
      "hit": false,
      "t": 117750,
      "d": 1867.1875,
      "v": 97
    },
    {
      "midi": 64,
      "hit": false,
      "t": 117750,
      "d": 2242.1875,
      "v": 97
    },
    {
      "midi": 85,
      "hit": false,
      "t": 117921.875,
      "d": 492.1875,
      "v": 115
    },
    {
      "midi": 56,
      "hit": false,
      "t": 118445.3125,
      "d": 796.875,
      "v": 97
    },
    {
      "midi": 83,
      "hit": false,
      "t": 118453.125,
      "d": 406.25,
      "v": 90
    },
    {
      "midi": 52,
      "hit": false,
      "t": 118875,
      "d": 4101.5625,
      "v": 99
    },
    {
      "midi": 81,
      "hit": false,
      "t": 118882.8125,
      "d": 710.9375,
      "v": 74
    },
    {
      "midi": 56,
      "hit": false,
      "t": 119250,
      "d": 742.1875,
      "v": 95
    },
    {
      "midi": 76,
      "hit": false,
      "t": 119601.5625,
      "d": 2718.75,
      "v": 69
    },
    {
      "midi": 61,
      "hit": false,
      "t": 119625,
      "d": 367.1875,
      "v": 95
    },
    {
      "midi": 61,
      "hit": false,
      "t": 120000,
      "d": 742.1875,
      "v": 105
    },
    {
      "midi": 64,
      "hit": false,
      "t": 120000,
      "d": 742.1875,
      "v": 93
    },
    {
      "midi": 57,
      "hit": false,
      "t": 120000,
      "d": 1078.125,
      "v": 94
    },
    {
      "midi": 69,
      "hit": false,
      "t": 120750,
      "d": 328.125,
      "v": 99
    },
    {
      "midi": 61,
      "hit": false,
      "t": 120750,
      "d": 1476.5625,
      "v": 91
    },
    {
      "midi": 64,
      "hit": false,
      "t": 120750,
      "d": 1867.1875,
      "v": 95
    },
    {
      "midi": 56,
      "hit": false,
      "t": 121078.125,
      "d": 789.0625,
      "v": 94
    },
    {
      "midi": 68,
      "hit": false,
      "t": 121078.125,
      "d": 1148.4375,
      "v": 99
    },
    {
      "midi": 56,
      "hit": false,
      "t": 121875,
      "d": 351.5625,
      "v": 92
    },
    {
      "midi": 55,
      "hit": false,
      "t": 122226.5625,
      "d": 750,
      "v": 92
    },
    {
      "midi": 67,
      "hit": false,
      "t": 122226.5625,
      "d": 750,
      "v": 99
    },
    {
      "midi": 61,
      "hit": false,
      "t": 122250,
      "d": 726.5625,
      "v": 93
    },
    {
      "midi": 64,
      "hit": false,
      "t": 122625,
      "d": 351.5625,
      "v": 92
    },
    {
      "midi": 51,
      "hit": false,
      "t": 122976.5625,
      "d": 1.5625,
      "v": 99
    },
    {
      "midi": 63,
      "hit": false,
      "t": 122976.5625,
      "d": 1.5625,
      "v": 92
    },
    {
      "midi": 54,
      "hit": false,
      "t": 122976.5625,
      "d": 15.625,
      "v": 92
    },
    {
      "midi": 50,
      "hit": false,
      "t": 122976.5625,
      "d": 765.625,
      "v": 99
    },
    {
      "midi": 54,
      "hit": false,
      "t": 123000,
      "d": 742.1875,
      "v": 91
    },
    {
      "midi": 57,
      "hit": false,
      "t": 123000,
      "d": 742.1875,
      "v": 97
    },
    {
      "midi": 62,
      "hit": false,
      "t": 123000,
      "d": 2992.1875,
      "v": 92
    },
    {
      "midi": 50,
      "hit": false,
      "t": 123750,
      "d": 1117.1875,
      "v": 102
    },
    {
      "midi": 54,
      "hit": false,
      "t": 123750,
      "d": 1492.1875,
      "v": 95
    },
    {
      "midi": 57,
      "hit": false,
      "t": 123750,
      "d": 2210.9375,
      "v": 91
    },
    {
      "midi": 78,
      "hit": false,
      "t": 124046.875,
      "d": 226.5625,
      "v": 94
    },
    {
      "midi": 78,
      "hit": false,
      "t": 124359.375,
      "d": 242.1875,
      "v": 108
    },
    {
      "midi": 76,
      "hit": false,
      "t": 124671.875,
      "d": 117.1875,
      "v": 88
    },
    {
      "midi": 50,
      "hit": false,
      "t": 124875,
      "d": 4109.375,
      "v": 97
    },
    {
      "midi": 78,
      "hit": false,
      "t": 124882.8125,
      "d": 125,
      "v": 92
    },
    {
      "midi": 76,
      "hit": false,
      "t": 125039.0625,
      "d": 109.375,
      "v": 84
    },
    {
      "midi": 78,
      "hit": false,
      "t": 125234.375,
      "d": 445.3125,
      "v": 83
    },
    {
      "midi": 54,
      "hit": false,
      "t": 125250,
      "d": 710.9375,
      "v": 94
    },
    {
      "midi": 76,
      "hit": false,
      "t": 125835.9375,
      "d": 242.1875,
      "v": 97
    },
    {
      "midi": 57,
      "hit": false,
      "t": 125960.9375,
      "d": 31.25,
      "v": 94
    },
    {
      "midi": 56,
      "hit": false,
      "t": 126000,
      "d": 742.1875,
      "v": 95
    },
    {
      "midi": 59,
      "hit": false,
      "t": 126000,
      "d": 742.1875,
      "v": 95
    },
    {
      "midi": 62,
      "hit": false,
      "t": 126000,
      "d": 742.1875,
      "v": 95
    },
    {
      "midi": 78,
      "hit": false,
      "t": 126109.375,
      "d": 210.9375,
      "v": 75
    },
    {
      "midi": 76,
      "hit": false,
      "t": 126335.9375,
      "d": 132.8125,
      "v": 75
    },
    {
      "midi": 76,
      "hit": false,
      "t": 126554.6875,
      "d": 70.3125,
      "v": 64
    },
    {
      "midi": 78,
      "hit": false,
      "t": 126570.3125,
      "d": 2695.3125,
      "v": 90
    },
    {
      "midi": 56,
      "hit": false,
      "t": 126750,
      "d": 750,
      "v": 95
    },
    {
      "midi": 62,
      "hit": false,
      "t": 126750,
      "d": 1867.1875,
      "v": 95
    },
    {
      "midi": 59,
      "hit": false,
      "t": 126750,
      "d": 2234.375,
      "v": 95
    },
    {
      "midi": 57,
      "hit": false,
      "t": 127500,
      "d": 367.1875,
      "v": 95
    },
    {
      "midi": 57,
      "hit": false,
      "t": 127875,
      "d": 375,
      "v": 100
    },
    {
      "midi": 56,
      "hit": false,
      "t": 128250,
      "d": 734.375,
      "v": 100
    },
    {
      "midi": 68,
      "hit": false,
      "t": 128250,
      "d": 734.375,
      "v": 105
    },
    {
      "midi": 62,
      "hit": false,
      "t": 128625,
      "d": 359.375,
      "v": 95
    },
    {
      "midi": 52,
      "hit": false,
      "t": 128984.375,
      "d": 7.8125,
      "v": 97
    },
    {
      "midi": 57,
      "hit": false,
      "t": 128984.375,
      "d": 7.8125,
      "v": 100
    },
    {
      "midi": 61,
      "hit": false,
      "t": 128984.375,
      "d": 7.8125,
      "v": 95
    },
    {
      "midi": 64,
      "hit": false,
      "t": 128984.375,
      "d": 757.8125,
      "v": 95
    },
    {
      "midi": 69,
      "hit": false,
      "t": 128984.375,
      "d": 1460.9375,
      "v": 105
    },
    {
      "midi": 57,
      "hit": false,
      "t": 129000,
      "d": 742.1875,
      "v": 89
    },
    {
      "midi": 61,
      "hit": false,
      "t": 129000,
      "d": 742.1875,
      "v": 98
    },
    {
      "midi": 52,
      "hit": false,
      "t": 129000,
      "d": 1867.1875,
      "v": 97
    },
    {
      "midi": 76,
      "hit": false,
      "t": 129437.5,
      "d": 476.5625,
      "v": 92
    },
    {
      "midi": 57,
      "hit": false,
      "t": 129750,
      "d": 695.3125,
      "v": 86
    },
    {
      "midi": 61,
      "hit": false,
      "t": 129750,
      "d": 1867.1875,
      "v": 97
    },
    {
      "midi": 64,
      "hit": false,
      "t": 129750,
      "d": 2242.1875,
      "v": 90
    },
    {
      "midi": 85,
      "hit": false,
      "t": 129968.75,
      "d": 523.4375,
      "v": 97
    },
    {
      "midi": 56,
      "hit": false,
      "t": 130445.3125,
      "d": 796.875,
      "v": 86
    },
    {
      "midi": 68,
      "hit": false,
      "t": 130445.3125,
      "d": 796.875,
      "v": 105
    },
    {
      "midi": 83,
      "hit": false,
      "t": 130507.8125,
      "d": 414.0625,
      "v": 73
    },
    {
      "midi": 52,
      "hit": false,
      "t": 130875,
      "d": 1117.1875,
      "v": 95
    },
    {
      "midi": 81,
      "hit": false,
      "t": 130929.6875,
      "d": 640.625,
      "v": 78
    },
    {
      "midi": 56,
      "hit": false,
      "t": 131250,
      "d": 718.75,
      "v": 90
    },
    {
      "midi": 76,
      "hit": false,
      "t": 131570.3125,
      "d": 2484.375,
      "v": 75
    },
    {
      "midi": 61,
      "hit": false,
      "t": 131625,
      "d": 343.75,
      "v": 90
    },
    {
      "midi": 61,
      "hit": false,
      "t": 132000,
      "d": 742.1875,
      "v": 98
    },
    {
      "midi": 64,
      "hit": false,
      "t": 132000,
      "d": 742.1875,
      "v": 95
    },
    {
      "midi": 57,
      "hit": false,
      "t": 132000,
      "d": 1078.125,
      "v": 84
    },
    {
      "midi": 69,
      "hit": false,
      "t": 132750,
      "d": 328.125,
      "v": 94
    },
    {
      "midi": 61,
      "hit": false,
      "t": 132750,
      "d": 1117.1875,
      "v": 90
    },
    {
      "midi": 64,
      "hit": false,
      "t": 132750,
      "d": 1679.6875,
      "v": 85
    },
    {
      "midi": 56,
      "hit": false,
      "t": 133078.125,
      "d": 601.5625,
      "v": 84
    },
    {
      "midi": 68,
      "hit": false,
      "t": 133078.125,
      "d": 976.5625,
      "v": 94
    },
    {
      "midi": 56,
      "hit": false,
      "t": 133687.5,
      "d": 539.0625,
      "v": 95
    },
    {
      "midi": 61,
      "hit": false,
      "t": 133875,
      "d": 351.5625,
      "v": 100
    },
    {
      "midi": 68,
      "hit": false,
      "t": 134062.5,
      "d": 164.0625,
      "v": 101
    },
    {
      "midi": 55,
      "hit": false,
      "t": 134226.5625,
      "d": 578.125,
      "v": 95
    },
    {
      "midi": 67,
      "hit": false,
      "t": 134226.5625,
      "d": 765.625,
      "v": 101
    },
    {
      "midi": 61,
      "hit": false,
      "t": 134250,
      "d": 367.1875,
      "v": 100
    },
    {
      "midi": 64,
      "hit": false,
      "t": 134437.5,
      "d": 554.6875,
      "v": 97
    },
    {
      "midi": 61,
      "hit": false,
      "t": 134625,
      "d": 367.1875,
      "v": 95
    },
    {
      "midi": 55,
      "hit": false,
      "t": 134812.5,
      "d": 179.6875,
      "v": 96
    },
    {
      "midi": 50,
      "hit": false,
      "t": 135000,
      "d": 367.1875,
      "v": 94
    },
    {
      "midi": 57,
      "hit": false,
      "t": 135000,
      "d": 367.1875,
      "v": 97
    },
    {
      "midi": 57,
      "hit": false,
      "t": 135367.1875,
      "d": 367.1875,
      "v": 97
    },
    {
      "midi": 50,
      "hit": false,
      "t": 135367.1875,
      "d": 1492.1875,
      "v": 94
    },
    {
      "midi": 54,
      "hit": false,
      "t": 135750,
      "d": 1492.1875,
      "v": 99
    },
    {
      "midi": 57,
      "hit": false,
      "t": 135750,
      "d": 1867.1875,
      "v": 99
    },
    {
      "midi": 86,
      "hit": false,
      "t": 136062.5,
      "d": 179.6875,
      "v": 105
    },
    {
      "midi": 86,
      "hit": false,
      "t": 136343.75,
      "d": 453.125,
      "v": 115
    },
    {
      "midi": 85,
      "hit": false,
      "t": 136789.0625,
      "d": 132.8125,
      "v": 94
    },
    {
      "midi": 50,
      "hit": false,
      "t": 136875,
      "d": 3742.1875,
      "v": 103
    },
    {
      "midi": 86,
      "hit": false,
      "t": 137015.625,
      "d": 218.75,
      "v": 112
    },
    {
      "midi": 85,
      "hit": false,
      "t": 137218.75,
      "d": 117.1875,
      "v": 102
    },
    {
      "midi": 54,
      "hit": false,
      "t": 137250,
      "d": 742.1875,
      "v": 104
    },
    {
      "midi": 86,
      "hit": false,
      "t": 137421.875,
      "d": 250,
      "v": 94
    },
    {
      "midi": 57,
      "hit": false,
      "t": 137625,
      "d": 367.1875,
      "v": 99
    },
    {
      "midi": 85,
      "hit": false,
      "t": 137664.0625,
      "d": 85.9375,
      "v": 94
    },
    {
      "midi": 85,
      "hit": false,
      "t": 137906.25,
      "d": 78.125,
      "v": 92
    },
    {
      "midi": 86,
      "hit": false,
      "t": 137960.9375,
      "d": 382.8125,
      "v": 99
    },
    {
      "midi": 54,
      "hit": false,
      "t": 138000,
      "d": 1.5625,
      "v": 96
    },
    {
      "midi": 57,
      "hit": false,
      "t": 138000,
      "d": 1.5625,
      "v": 96
    },
    {
      "midi": 62,
      "hit": false,
      "t": 138000,
      "d": 18.75,
      "v": 96
    },
    {
      "midi": 56,
      "hit": false,
      "t": 138000,
      "d": 1500,
      "v": 96
    },
    {
      "midi": 59,
      "hit": false,
      "t": 138000,
      "d": 2992.1875,
      "v": 96
    },
    {
      "midi": 85,
      "hit": false,
      "t": 138335.9375,
      "d": 171.875,
      "v": 119
    },
    {
      "midi": 86,
      "hit": false,
      "t": 138640.625,
      "d": 2968.75,
      "v": 127
    },
    {
      "midi": 57,
      "hit": false,
      "t": 139500,
      "d": 742.1875,
      "v": 96
    },
    {
      "midi": 56,
      "hit": false,
      "t": 140250,
      "d": 742.1875,
      "v": 92
    },
    {
      "midi": 50,
      "hit": false,
      "t": 140625,
      "d": 375,
      "v": 99
    },
    {
      "midi": 56,
      "hit": false,
      "t": 141000,
      "d": 1.5625,
      "v": 96
    },
    {
      "midi": 59,
      "hit": false,
      "t": 141000,
      "d": 1.5625,
      "v": 96
    },
    {
      "midi": 62,
      "hit": false,
      "t": 141000,
      "d": 1.5625,
      "v": 96
    },
    {
      "midi": 57,
      "hit": false,
      "t": 141000,
      "d": 742.1875,
      "v": 96
    },
    {
      "midi": 61,
      "hit": false,
      "t": 141000,
      "d": 742.1875,
      "v": 96
    },
    {
      "midi": 64,
      "hit": false,
      "t": 141000,
      "d": 742.1875,
      "v": 96
    },
    {
      "midi": 52,
      "hit": false,
      "t": 141000,
      "d": 1867.1875,
      "v": 99
    },
    {
      "midi": 85,
      "hit": false,
      "t": 141617.1875,
      "d": 257.8125,
      "v": 124
    },
    {
      "midi": 57,
      "hit": false,
      "t": 141750,
      "d": 210.9375,
      "v": 97
    },
    {
      "midi": 61,
      "hit": false,
      "t": 141750,
      "d": 1867.1875,
      "v": 97
    },
    {
      "midi": 64,
      "hit": false,
      "t": 141750,
      "d": 2242.1875,
      "v": 97
    },
    {
      "midi": 56,
      "hit": false,
      "t": 141960.9375,
      "d": 1281.25,
      "v": 97
    },
    {
      "midi": 85,
      "hit": false,
      "t": 141968.75,
      "d": 312.5,
      "v": 115
    },
    {
      "midi": 83,
      "hit": false,
      "t": 142281.25,
      "d": 117.1875,
      "v": 72
    },
    {
      "midi": 85,
      "hit": false,
      "t": 142507.8125,
      "d": 320.3125,
      "v": 102
    },
    {
      "midi": 83,
      "hit": false,
      "t": 142875,
      "d": 437.5,
      "v": 90
    },
    {
      "midi": 52,
      "hit": false,
      "t": 142875,
      "d": 4085.9375,
      "v": 99
    },
    {
      "midi": 56,
      "hit": false,
      "t": 143250,
      "d": 703.125,
      "v": 95
    },
    {
      "midi": 85,
      "hit": false,
      "t": 143429.6875,
      "d": 156.25,
      "v": 112
    },
    {
      "midi": 61,
      "hit": false,
      "t": 143625,
      "d": 328.125,
      "v": 95
    },
    {
      "midi": 83,
      "hit": false,
      "t": 143648.4375,
      "d": 101.5625,
      "v": 84
    },
    {
      "midi": 85,
      "hit": false,
      "t": 143945.3125,
      "d": 367.1875,
      "v": 119
    },
    {
      "midi": 57,
      "hit": false,
      "t": 143953.125,
      "d": 39.0625,
      "v": 95
    },
    {
      "midi": 59,
      "hit": false,
      "t": 143953.125,
      "d": 39.0625,
      "v": 95
    },
    {
      "midi": 61,
      "hit": false,
      "t": 144000,
      "d": 742.1875,
      "v": 105
    },
    {
      "midi": 64,
      "hit": false,
      "t": 144000,
      "d": 742.1875,
      "v": 93
    },
    {
      "midi": 57,
      "hit": false,
      "t": 144000,
      "d": 1453.125,
      "v": 94
    },
    {
      "midi": 83,
      "hit": false,
      "t": 144320.3125,
      "d": 195.3125,
      "v": 69
    },
    {
      "midi": 85,
      "hit": false,
      "t": 144578.125,
      "d": 171.875,
      "v": 99
    },
    {
      "midi": 83,
      "hit": false,
      "t": 144734.375,
      "d": 125,
      "v": 59
    },
    {
      "midi": 69,
      "hit": false,
      "t": 144750,
      "d": 703.125,
      "v": 99
    },
    {
      "midi": 61,
      "hit": false,
      "t": 144750,
      "d": 750,
      "v": 91
    },
    {
      "midi": 64,
      "hit": false,
      "t": 144750,
      "d": 1867.1875,
      "v": 95
    },
    {
      "midi": 85,
      "hit": false,
      "t": 144945.3125,
      "d": 2992.1875,
      "v": 112
    },
    {
      "midi": 55,
      "hit": false,
      "t": 145453.125,
      "d": 414.0625,
      "v": 94
    },
    {
      "midi": 67,
      "hit": false,
      "t": 145453.125,
      "d": 1507.8125,
      "v": 99
    },
    {
      "midi": 62,
      "hit": false,
      "t": 145500,
      "d": 742.1875,
      "v": 91
    },
    {
      "midi": 55,
      "hit": false,
      "t": 145875,
      "d": 1085.9375,
      "v": 92
    },
    {
      "midi": 61,
      "hit": false,
      "t": 146250,
      "d": 710.9375,
      "v": 93
    },
    {
      "midi": 64,
      "hit": false,
      "t": 146625,
      "d": 335.9375,
      "v": 92
    },
    {
      "midi": 54,
      "hit": false,
      "t": 146960.9375,
      "d": 1.5625,
      "v": 92
    },
    {
      "midi": 59,
      "hit": false,
      "t": 146960.9375,
      "d": 1.5625,
      "v": 93
    },
    {
      "midi": 66,
      "hit": false,
      "t": 146960.9375,
      "d": 1.5625,
      "v": 92
    },
    {
      "midi": 50,
      "hit": false,
      "t": 146960.9375,
      "d": 781.25,
      "v": 99
    },
    {
      "midi": 54,
      "hit": false,
      "t": 147000,
      "d": 742.1875,
      "v": 91
    },
    {
      "midi": 57,
      "hit": false,
      "t": 147000,
      "d": 742.1875,
      "v": 97
    },
    {
      "midi": 62,
      "hit": false,
      "t": 147000,
      "d": 2992.1875,
      "v": 92
    },
    {
      "midi": 50,
      "hit": false,
      "t": 147750,
      "d": 1117.1875,
      "v": 102
    },
    {
      "midi": 54,
      "hit": false,
      "t": 147750,
      "d": 1492.1875,
      "v": 95
    },
    {
      "midi": 57,
      "hit": false,
      "t": 147750,
      "d": 2242.1875,
      "v": 91
    },
    {
      "midi": 83,
      "hit": false,
      "t": 148046.875,
      "d": 195.3125,
      "v": 102
    },
    {
      "midi": 83,
      "hit": false,
      "t": 148351.5625,
      "d": 164.0625,
      "v": 99
    },
    {
      "midi": 81,
      "hit": false,
      "t": 148601.5625,
      "d": 117.1875,
      "v": 94
    },
    {
      "midi": 83,
      "hit": false,
      "t": 148781.25,
      "d": 250,
      "v": 86
    },
    {
      "midi": 50,
      "hit": false,
      "t": 148875,
      "d": 4093.75,
      "v": 97
    },
    {
      "midi": 81,
      "hit": false,
      "t": 149054.6875,
      "d": 179.6875,
      "v": 74
    },
    {
      "midi": 54,
      "hit": false,
      "t": 149250,
      "d": 687.5,
      "v": 94
    },
    {
      "midi": 83,
      "hit": false,
      "t": 149289.0625,
      "d": 281.25,
      "v": 75
    },
    {
      "midi": 81,
      "hit": false,
      "t": 149539.0625,
      "d": 132.8125,
      "v": 78
    },
    {
      "midi": 81,
      "hit": false,
      "t": 149773.4375,
      "d": 46.875,
      "v": 44
    },
    {
      "midi": 83,
      "hit": false,
      "t": 149796.875,
      "d": 460.9375,
      "v": 81
    },
    {
      "midi": 55,
      "hit": false,
      "t": 149937.5,
      "d": 54.6875,
      "v": 94
    },
    {
      "midi": 55,
      "hit": false,
      "t": 150000,
      "d": 742.1875,
      "v": 95
    },
    {
      "midi": 59,
      "hit": false,
      "t": 150000,
      "d": 742.1875,
      "v": 95
    },
    {
      "midi": 62,
      "hit": false,
      "t": 150000,
      "d": 742.1875,
      "v": 95
    },
    {
      "midi": 81,
      "hit": false,
      "t": 150179.6875,
      "d": 312.5,
      "v": 64
    },
    {
      "midi": 79,
      "hit": false,
      "t": 150468.75,
      "d": 2882.8125,
      "v": 66
    },
    {
      "midi": 59,
      "hit": false,
      "t": 150750,
      "d": 750,
      "v": 95
    },
    {
      "midi": 55,
      "hit": false,
      "t": 150750,
      "d": 1117.1875,
      "v": 95
    },
    {
      "midi": 62,
      "hit": false,
      "t": 150750,
      "d": 1867.1875,
      "v": 95
    },
    {
      "midi": 57,
      "hit": false,
      "t": 151500,
      "d": 750,
      "v": 95
    },
    {
      "midi": 55,
      "hit": false,
      "t": 151875,
      "d": 1093.75,
      "v": 100
    },
    {
      "midi": 67,
      "hit": false,
      "t": 152250,
      "d": 718.75,
      "v": 105
    },
    {
      "midi": 59,
      "hit": false,
      "t": 152250,
      "d": 742.1875,
      "v": 95
    },
    {
      "midi": 62,
      "hit": false,
      "t": 152625,
      "d": 343.75,
      "v": 95
    },
    {
      "midi": 52,
      "hit": false,
      "t": 152968.75,
      "d": 1.5625,
      "v": 97
    },
    {
      "midi": 64,
      "hit": false,
      "t": 152968.75,
      "d": 1.5625,
      "v": 95
    },
    {
      "midi": 50,
      "hit": false,
      "t": 152968.75,
      "d": 23.4375,
      "v": 97
    },
    {
      "midi": 56,
      "hit": false,
      "t": 152968.75,
      "d": 23.4375,
      "v": 100
    },
    {
      "midi": 62,
      "hit": false,
      "t": 152968.75,
      "d": 773.4375,
      "v": 95
    },
    {
      "midi": 68,
      "hit": false,
      "t": 152968.75,
      "d": 2273.4375,
      "v": 105
    },
    {
      "midi": 56,
      "hit": false,
      "t": 153000,
      "d": 742.1875,
      "v": 89
    },
    {
      "midi": 59,
      "hit": false,
      "t": 153000,
      "d": 742.1875,
      "v": 98
    },
    {
      "midi": 50,
      "hit": false,
      "t": 153000,
      "d": 1867.1875,
      "v": 97
    },
    {
      "midi": 80,
      "hit": false,
      "t": 153414.0625,
      "d": 382.8125,
      "v": 108
    },
    {
      "midi": 56,
      "hit": false,
      "t": 153750,
      "d": 1492.1875,
      "v": 86
    },
    {
      "midi": 59,
      "hit": false,
      "t": 153750,
      "d": 1867.1875,
      "v": 97
    },
    {
      "midi": 62,
      "hit": false,
      "t": 153750,
      "d": 2242.1875,
      "v": 90
    },
    {
      "midi": 80,
      "hit": false,
      "t": 153890.625,
      "d": 351.5625,
      "v": 119
    },
    {
      "midi": 76,
      "hit": false,
      "t": 154281.25,
      "d": 398.4375,
      "v": 74
    },
    {
      "midi": 76,
      "hit": false,
      "t": 154742.1875,
      "d": 3867.1875,
      "v": 79
    },
    {
      "midi": 50,
      "hit": false,
      "t": 154875,
      "d": 1117.1875,
      "v": 95
    },
    {
      "midi": 57,
      "hit": false,
      "t": 155250,
      "d": 742.1875,
      "v": 90
    },
    {
      "midi": 59,
      "hit": false,
      "t": 155625,
      "d": 367.1875,
      "v": 90
    },
    {
      "midi": 59,
      "hit": false,
      "t": 156000,
      "d": 742.1875,
      "v": 98
    },
    {
      "midi": 62,
      "hit": false,
      "t": 156000,
      "d": 742.1875,
      "v": 95
    },
    {
      "midi": 56,
      "hit": false,
      "t": 156000,
      "d": 1460.9375,
      "v": 84
    },
    {
      "midi": 59,
      "hit": false,
      "t": 156750,
      "d": 710.9375,
      "v": 90
    },
    {
      "midi": 62,
      "hit": false,
      "t": 156750,
      "d": 710.9375,
      "v": 85
    },
    {
      "midi": 68,
      "hit": false,
      "t": 156750,
      "d": 710.9375,
      "v": 94
    },
    {
      "midi": 59,
      "hit": false,
      "t": 157500,
      "d": 570.3125,
      "v": 99
    },
    {
      "midi": 62,
      "hit": false,
      "t": 157500,
      "d": 570.3125,
      "v": 102
    },
    {
      "midi": 68,
      "hit": false,
      "t": 157500,
      "d": 570.3125,
      "v": 99
    },
    {
      "midi": 62,
      "hit": false,
      "t": 158078.125,
      "d": 164.0625,
      "v": 78
    },
    {
      "midi": 68,
      "hit": false,
      "t": 158078.125,
      "d": 164.0625,
      "v": 78
    },
    {
      "midi": 71,
      "hit": false,
      "t": 158078.125,
      "d": 164.0625,
      "v": 78
    },
    {
      "midi": 62,
      "hit": false,
      "t": 158250,
      "d": 367.1875,
      "v": 105
    },
    {
      "midi": 68,
      "hit": false,
      "t": 158250,
      "d": 367.1875,
      "v": 105
    },
    {
      "midi": 71,
      "hit": false,
      "t": 158250,
      "d": 367.1875,
      "v": 105
    },
    {
      "midi": 68,
      "hit": false,
      "t": 158625,
      "d": 328.125,
      "v": 87
    },
    {
      "midi": 71,
      "hit": false,
      "t": 158625,
      "d": 328.125,
      "v": 87
    },
    {
      "midi": 74,
      "hit": false,
      "t": 158625,
      "d": 367.1875,
      "v": 87
    },
    {
      "midi": 66,
      "hit": false,
      "t": 158953.125,
      "d": 39.0625,
      "v": 87
    },
    {
      "midi": 69,
      "hit": false,
      "t": 158953.125,
      "d": 39.0625,
      "v": 87
    },
    {
      "midi": 54,
      "hit": false,
      "t": 159000,
      "d": 359.375,
      "v": 97
    },
    {
      "midi": 57,
      "hit": false,
      "t": 159000,
      "d": 734.375,
      "v": 99
    },
    {
      "midi": 62,
      "hit": false,
      "t": 159000,
      "d": 734.375,
      "v": 102
    },
    {
      "midi": 54,
      "hit": false,
      "t": 159375,
      "d": 742.1875,
      "v": 99
    },
    {
      "midi": 57,
      "hit": false,
      "t": 159750,
      "d": 742.1875,
      "v": 95
    },
    {
      "midi": 62,
      "hit": false,
      "t": 159750,
      "d": 742.1875,
      "v": 99
    },
    {
      "midi": 66,
      "hit": false,
      "t": 159750,
      "d": 1492.1875,
      "v": 94
    },
    {
      "midi": 54,
      "hit": false,
      "t": 160125,
      "d": 367.1875,
      "v": 102
    },
    {
      "midi": 54,
      "hit": false,
      "t": 160500,
      "d": 367.1875,
      "v": 99
    },
    {
      "midi": 57,
      "hit": false,
      "t": 160500,
      "d": 742.1875,
      "v": 99
    },
    {
      "midi": 62,
      "hit": false,
      "t": 160500,
      "d": 742.1875,
      "v": 99
    },
    {
      "midi": 78,
      "hit": false,
      "t": 160679.6875,
      "d": 156.25,
      "v": 94
    },
    {
      "midi": 54,
      "hit": false,
      "t": 160875,
      "d": 367.1875,
      "v": 97
    },
    {
      "midi": 78,
      "hit": false,
      "t": 160937.5,
      "d": 289.0625,
      "v": 99
    },
    {
      "midi": 57,
      "hit": false,
      "t": 161250,
      "d": 718.75,
      "v": 98
    },
    {
      "midi": 62,
      "hit": false,
      "t": 161250,
      "d": 718.75,
      "v": 102
    },
    {
      "midi": 66,
      "hit": false,
      "t": 161250,
      "d": 718.75,
      "v": 96
    },
    {
      "midi": 76,
      "hit": false,
      "t": 161296.875,
      "d": 132.8125,
      "v": 86
    },
    {
      "midi": 78,
      "hit": false,
      "t": 161546.875,
      "d": 156.25,
      "v": 79
    },
    {
      "midi": 54,
      "hit": false,
      "t": 161625,
      "d": 343.75,
      "v": 100
    },
    {
      "midi": 76,
      "hit": false,
      "t": 161718.75,
      "d": 101.5625,
      "v": 72
    },
    {
      "midi": 76,
      "hit": false,
      "t": 161953.125,
      "d": 125,
      "v": 62
    },
    {
      "midi": 78,
      "hit": false,
      "t": 161960.9375,
      "d": 476.5625,
      "v": 77
    },
    {
      "midi": 64,
      "hit": false,
      "t": 161968.75,
      "d": 1.5625,
      "v": 102
    },
    {
      "midi": 56,
      "hit": false,
      "t": 161968.75,
      "d": 23.4375,
      "v": 100
    },
    {
      "midi": 59,
      "hit": false,
      "t": 161968.75,
      "d": 23.4375,
      "v": 98
    },
    {
      "midi": 62,
      "hit": false,
      "t": 161968.75,
      "d": 23.4375,
      "v": 102
    },
    {
      "midi": 68,
      "hit": false,
      "t": 161968.75,
      "d": 23.4375,
      "v": 96
    },
    {
      "midi": 68,
      "hit": false,
      "t": 162000,
      "d": 367.1875,
      "v": 97
    },
    {
      "midi": 59,
      "hit": false,
      "t": 162000,
      "d": 742.1875,
      "v": 99
    },
    {
      "midi": 62,
      "hit": false,
      "t": 162000,
      "d": 742.1875,
      "v": 102
    },
    {
      "midi": 56,
      "hit": false,
      "t": 162375,
      "d": 742.1875,
      "v": 99
    },
    {
      "midi": 76,
      "hit": false,
      "t": 162429.6875,
      "d": 367.1875,
      "v": 97
    },
    {
      "midi": 59,
      "hit": false,
      "t": 162750,
      "d": 742.1875,
      "v": 95
    },
    {
      "midi": 62,
      "hit": false,
      "t": 162750,
      "d": 742.1875,
      "v": 99
    },
    {
      "midi": 68,
      "hit": false,
      "t": 162750,
      "d": 1492.1875,
      "v": 94
    },
    {
      "midi": 78,
      "hit": false,
      "t": 162789.0625,
      "d": 164.0625,
      "v": 55
    },
    {
      "midi": 76,
      "hit": false,
      "t": 162976.5625,
      "d": 109.375,
      "v": 86
    },
    {
      "midi": 56,
      "hit": false,
      "t": 163125,
      "d": 367.1875,
      "v": 102
    },
    {
      "midi": 78,
      "hit": false,
      "t": 163179.6875,
      "d": 257.8125,
      "v": 115
    },
    {
      "midi": 78,
      "hit": false,
      "t": 163500,
      "d": 1570.3125,
      "v": 108
    },
    {
      "midi": 56,
      "hit": false,
      "t": 163500,
      "d": 742.1875,
      "v": 99
    },
    {
      "midi": 59,
      "hit": false,
      "t": 163500,
      "d": 742.1875,
      "v": 99
    },
    {
      "midi": 64,
      "hit": false,
      "t": 163500,
      "d": 742.1875,
      "v": 99
    },
    {
      "midi": 52,
      "hit": false,
      "t": 163875,
      "d": 367.1875,
      "v": 97
    },
    {
      "midi": 59,
      "hit": false,
      "t": 164250,
      "d": 718.75,
      "v": 98
    },
    {
      "midi": 62,
      "hit": false,
      "t": 164250,
      "d": 718.75,
      "v": 102
    },
    {
      "midi": 68,
      "hit": false,
      "t": 164250,
      "d": 718.75,
      "v": 96
    },
    {
      "midi": 56,
      "hit": false,
      "t": 164625,
      "d": 343.75,
      "v": 100
    },
    {
      "midi": 57,
      "hit": false,
      "t": 164968.75,
      "d": 23.4375,
      "v": 100
    },
    {
      "midi": 61,
      "hit": false,
      "t": 164968.75,
      "d": 23.4375,
      "v": 98
    },
    {
      "midi": 64,
      "hit": false,
      "t": 164968.75,
      "d": 23.4375,
      "v": 102
    },
    {
      "midi": 69,
      "hit": false,
      "t": 164968.75,
      "d": 23.4375,
      "v": 96
    },
    {
      "midi": 61,
      "hit": false,
      "t": 165000,
      "d": 742.1875,
      "v": 98
    },
    {
      "midi": 64,
      "hit": false,
      "t": 165000,
      "d": 742.1875,
      "v": 98
    },
    {
      "midi": 69,
      "hit": false,
      "t": 165000,
      "d": 742.1875,
      "v": 95
    },
    {
      "midi": 57,
      "hit": false,
      "t": 165375,
      "d": 1031.25,
      "v": 99
    },
    {
      "midi": 85,
      "hit": false,
      "t": 165460.9375,
      "d": 515.625,
      "v": 127
    },
    {
      "midi": 61,
      "hit": false,
      "t": 165750,
      "d": 367.1875,
      "v": 98
    },
    {
      "midi": 69,
      "hit": false,
      "t": 165750,
      "d": 656.25,
      "v": 95
    },
    {
      "midi": 64,
      "hit": false,
      "t": 165750,
      "d": 742.1875,
      "v": 99
    },
    {
      "midi": 83,
      "hit": false,
      "t": 165992.1875,
      "d": 460.9375,
      "v": 124
    },
    {
      "midi": 61,
      "hit": false,
      "t": 166125,
      "d": 367.1875,
      "v": 94
    },
    {
      "midi": 56,
      "hit": false,
      "t": 166406.25,
      "d": 85.9375,
      "v": 99
    },
    {
      "midi": 68,
      "hit": false,
      "t": 166406.25,
      "d": 85.9375,
      "v": 95
    },
    {
      "midi": 81,
      "hit": false,
      "t": 166484.375,
      "d": 507.8125,
      "v": 94
    },
    {
      "midi": 64,
      "hit": false,
      "t": 166500,
      "d": 742.1875,
      "v": 98
    },
    {
      "midi": 68,
      "hit": false,
      "t": 166500,
      "d": 742.1875,
      "v": 100
    },
    {
      "midi": 73,
      "hit": false,
      "t": 166500,
      "d": 742.1875,
      "v": 98
    },
    {
      "midi": 61,
      "hit": false,
      "t": 166875,
      "d": 367.1875,
      "v": 97
    },
    {
      "midi": 76,
      "hit": false,
      "t": 167000,
      "d": 4398.4375,
      "v": 102
    },
    {
      "midi": 68,
      "hit": false,
      "t": 167250,
      "d": 718.75,
      "v": 94
    },
    {
      "midi": 61,
      "hit": false,
      "t": 167250,
      "d": 742.1875,
      "v": 92
    },
    {
      "midi": 64,
      "hit": false,
      "t": 167250,
      "d": 742.1875,
      "v": 92
    },
    {
      "midi": 56,
      "hit": false,
      "t": 167625,
      "d": 343.75,
      "v": 99
    },
    {
      "midi": 69,
      "hit": false,
      "t": 167968.75,
      "d": 23.4375,
      "v": 94
    },
    {
      "midi": 57,
      "hit": false,
      "t": 167968.75,
      "d": 398.4375,
      "v": 99
    },
    {
      "midi": 61,
      "hit": false,
      "t": 168000,
      "d": 742.1875,
      "v": 96
    },
    {
      "midi": 64,
      "hit": false,
      "t": 168000,
      "d": 742.1875,
      "v": 103
    },
    {
      "midi": 69,
      "hit": false,
      "t": 168000,
      "d": 742.1875,
      "v": 103
    },
    {
      "midi": 57,
      "hit": false,
      "t": 168375,
      "d": 718.75,
      "v": 98
    },
    {
      "midi": 69,
      "hit": false,
      "t": 168750,
      "d": 343.75,
      "v": 94
    },
    {
      "midi": 61,
      "hit": false,
      "t": 168750,
      "d": 742.1875,
      "v": 94
    },
    {
      "midi": 64,
      "hit": false,
      "t": 168750,
      "d": 742.1875,
      "v": 99
    },
    {
      "midi": 56,
      "hit": false,
      "t": 169093.75,
      "d": 23.4375,
      "v": 98
    },
    {
      "midi": 68,
      "hit": false,
      "t": 169093.75,
      "d": 398.4375,
      "v": 94
    },
    {
      "midi": 56,
      "hit": false,
      "t": 169125,
      "d": 1085.9375,
      "v": 101
    },
    {
      "midi": 61,
      "hit": false,
      "t": 169500,
      "d": 367.1875,
      "v": 94
    },
    {
      "midi": 64,
      "hit": false,
      "t": 169500,
      "d": 703.125,
      "v": 99
    },
    {
      "midi": 68,
      "hit": false,
      "t": 169500,
      "d": 710.9375,
      "v": 96
    },
    {
      "midi": 61,
      "hit": false,
      "t": 169875,
      "d": 367.1875,
      "v": 94
    },
    {
      "midi": 63,
      "hit": false,
      "t": 170203.125,
      "d": 7.8125,
      "v": 99
    },
    {
      "midi": 57,
      "hit": false,
      "t": 170210.9375,
      "d": 31.25,
      "v": 101
    },
    {
      "midi": 64,
      "hit": false,
      "t": 170210.9375,
      "d": 31.25,
      "v": 99
    },
    {
      "midi": 69,
      "hit": false,
      "t": 170210.9375,
      "d": 31.25,
      "v": 96
    },
    {
      "midi": 64,
      "hit": false,
      "t": 170250,
      "d": 718.75,
      "v": 98
    },
    {
      "midi": 67,
      "hit": false,
      "t": 170250,
      "d": 718.75,
      "v": 99
    },
    {
      "midi": 73,
      "hit": false,
      "t": 170250,
      "d": 718.75,
      "v": 99
    },
    {
      "midi": 61,
      "hit": false,
      "t": 170625,
      "d": 343.75,
      "v": 98
    },
    {
      "midi": 63,
      "hit": false,
      "t": 170968.75,
      "d": 1.5625,
      "v": 98
    },
    {
      "midi": 57,
      "hit": false,
      "t": 170968.75,
      "d": 23.4375,
      "v": 98
    },
    {
      "midi": 62,
      "hit": false,
      "t": 170968.75,
      "d": 23.4375,
      "v": 98
    },
    {
      "midi": 66,
      "hit": false,
      "t": 170968.75,
      "d": 23.4375,
      "v": 99
    },
    {
      "midi": 69,
      "hit": false,
      "t": 170968.75,
      "d": 1523.4375,
      "v": 99
    },
    {
      "midi": 57,
      "hit": false,
      "t": 171000,
      "d": 742.1875,
      "v": 94
    },
    {
      "midi": 62,
      "hit": false,
      "t": 171000,
      "d": 742.1875,
      "v": 100
    },
    {
      "midi": 66,
      "hit": false,
      "t": 171000,
      "d": 742.1875,
      "v": 97
    },
    {
      "midi": 54,
      "hit": false,
      "t": 171375,
      "d": 742.1875,
      "v": 99
    },
    {
      "midi": 78,
      "hit": false,
      "t": 171484.375,
      "d": 359.375,
      "v": 127
    },
    {
      "midi": 66,
      "hit": false,
      "t": 171750,
      "d": 367.1875,
      "v": 94
    },
    {
      "midi": 57,
      "hit": false,
      "t": 171750,
      "d": 742.1875,
      "v": 97
    },
    {
      "midi": 62,
      "hit": false,
      "t": 171750,
      "d": 742.1875,
      "v": 95
    },
    {
      "midi": 78,
      "hit": false,
      "t": 171929.6875,
      "d": 218.75,
      "v": 124
    },
    {
      "midi": 54,
      "hit": false,
      "t": 172125,
      "d": 1789.0625,
      "v": 96
    },
    {
      "midi": 78,
      "hit": false,
      "t": 172242.1875,
      "d": 203.125,
      "v": 127
    },
    {
      "midi": 76,
      "hit": false,
      "t": 172421.875,
      "d": 125,
      "v": 74
    },
    {
      "midi": 57,
      "hit": false,
      "t": 172500,
      "d": 367.1875,
      "v": 87
    },
    {
      "midi": 62,
      "hit": false,
      "t": 172500,
      "d": 742.1875,
      "v": 87
    },
    {
      "midi": 66,
      "hit": false,
      "t": 172500,
      "d": 742.1875,
      "v": 86
    },
    {
      "midi": 78,
      "hit": false,
      "t": 172617.1875,
      "d": 375,
      "v": 92
    },
    {
      "midi": 57,
      "hit": false,
      "t": 172875,
      "d": 367.1875,
      "v": 96
    },
    {
      "midi": 76,
      "hit": false,
      "t": 173070.3125,
      "d": 359.375,
      "v": 94
    },
    {
      "midi": 66,
      "hit": false,
      "t": 173250,
      "d": 664.0625,
      "v": 100
    },
    {
      "midi": 69,
      "hit": false,
      "t": 173250,
      "d": 664.0625,
      "v": 99
    },
    {
      "midi": 62,
      "hit": false,
      "t": 173250,
      "d": 742.1875,
      "v": 97
    },
    {
      "midi": 78,
      "hit": false,
      "t": 173453.125,
      "d": 210.9375,
      "v": 94
    },
    {
      "midi": 57,
      "hit": false,
      "t": 173625,
      "d": 289.0625,
      "v": 97
    },
    {
      "midi": 76,
      "hit": false,
      "t": 173679.6875,
      "d": 85.9375,
      "v": 99
    },
    {
      "midi": 76,
      "hit": false,
      "t": 173906.25,
      "d": 93.75,
      "v": 74
    },
    {
      "midi": 59,
      "hit": false,
      "t": 173914.0625,
      "d": 78.125,
      "v": 97
    },
    {
      "midi": 68,
      "hit": false,
      "t": 173914.0625,
      "d": 78.125,
      "v": 100
    },
    {
      "midi": 56,
      "hit": false,
      "t": 173914.0625,
      "d": 453.125,
      "v": 96
    },
    {
      "midi": 71,
      "hit": false,
      "t": 173914.0625,
      "d": 2328.125,
      "v": 99
    },
    {
      "midi": 78,
      "hit": false,
      "t": 173968.75,
      "d": 375,
      "v": 105
    },
    {
      "midi": 59,
      "hit": false,
      "t": 174000,
      "d": 742.1875,
      "v": 91
    },
    {
      "midi": 62,
      "hit": false,
      "t": 174000,
      "d": 742.1875,
      "v": 95
    },
    {
      "midi": 68,
      "hit": false,
      "t": 174000,
      "d": 742.1875,
      "v": 93
    },
    {
      "midi": 56,
      "hit": false,
      "t": 174375,
      "d": 367.1875,
      "v": 94
    },
    {
      "midi": 78,
      "hit": false,
      "t": 174453.125,
      "d": 2398.4375,
      "v": 115
    },
    {
      "midi": 68,
      "hit": false,
      "t": 174750,
      "d": 367.1875,
      "v": 96
    },
    {
      "midi": 59,
      "hit": false,
      "t": 174750,
      "d": 742.1875,
      "v": 92
    },
    {
      "midi": 62,
      "hit": false,
      "t": 174750,
      "d": 742.1875,
      "v": 96
    },
    {
      "midi": 56,
      "hit": false,
      "t": 175125,
      "d": 367.1875,
      "v": 96
    },
    {
      "midi": 56,
      "hit": false,
      "t": 175500,
      "d": 742.1875,
      "v": 93
    },
    {
      "midi": 59,
      "hit": false,
      "t": 175500,
      "d": 742.1875,
      "v": 97
    },
    {
      "midi": 64,
      "hit": false,
      "t": 175500,
      "d": 742.1875,
      "v": 96
    },
    {
      "midi": 52,
      "hit": false,
      "t": 175875,
      "d": 367.1875,
      "v": 99
    },
    {
      "midi": 56,
      "hit": false,
      "t": 176250,
      "d": 726.5625,
      "v": 97
    },
    {
      "midi": 59,
      "hit": false,
      "t": 176250,
      "d": 726.5625,
      "v": 99
    },
    {
      "midi": 62,
      "hit": false,
      "t": 176250,
      "d": 726.5625,
      "v": 99
    },
    {
      "midi": 50,
      "hit": false,
      "t": 176625,
      "d": 351.5625,
      "v": 99
    },
    {
      "midi": 52,
      "hit": false,
      "t": 176976.5625,
      "d": 15.625,
      "v": 99
    },
    {
      "midi": 61,
      "hit": false,
      "t": 176976.5625,
      "d": 15.625,
      "v": 99
    },
    {
      "midi": 64,
      "hit": false,
      "t": 176976.5625,
      "d": 15.625,
      "v": 99
    },
    {
      "midi": 57,
      "hit": false,
      "t": 176976.5625,
      "d": 390.625,
      "v": 97
    },
    {
      "midi": 61,
      "hit": false,
      "t": 177000,
      "d": 742.1875,
      "v": 95
    },
    {
      "midi": 64,
      "hit": false,
      "t": 177000,
      "d": 742.1875,
      "v": 94
    },
    {
      "midi": 69,
      "hit": false,
      "t": 177000,
      "d": 742.1875,
      "v": 95
    },
    {
      "midi": 57,
      "hit": false,
      "t": 177375,
      "d": 742.1875,
      "v": 94
    },
    {
      "midi": 85,
      "hit": false,
      "t": 177453.125,
      "d": 406.25,
      "v": 127
    },
    {
      "midi": 61,
      "hit": false,
      "t": 177750,
      "d": 679.6875,
      "v": 96
    },
    {
      "midi": 69,
      "hit": false,
      "t": 177750,
      "d": 687.5,
      "v": 95
    },
    {
      "midi": 64,
      "hit": false,
      "t": 177750,
      "d": 742.1875,
      "v": 99
    },
    {
      "midi": 85,
      "hit": false,
      "t": 177945.3125,
      "d": 320.3125,
      "v": 124
    },
    {
      "midi": 83,
      "hit": false,
      "t": 178414.0625,
      "d": 390.625,
      "v": 102
    },
    {
      "midi": 57,
      "hit": false,
      "t": 178429.6875,
      "d": 7.8125,
      "v": 96
    },
    {
      "midi": 56,
      "hit": false,
      "t": 178437.5,
      "d": 54.6875,
      "v": 100
    },
    {
      "midi": 61,
      "hit": false,
      "t": 178437.5,
      "d": 54.6875,
      "v": 96
    },
    {
      "midi": 68,
      "hit": false,
      "t": 178437.5,
      "d": 804.6875,
      "v": 95
    },
    {
      "midi": 56,
      "hit": false,
      "t": 178500,
      "d": 367.1875,
      "v": 93
    },
    {
      "midi": 61,
      "hit": false,
      "t": 178500,
      "d": 742.1875,
      "v": 97
    },
    {
      "midi": 64,
      "hit": false,
      "t": 178500,
      "d": 742.1875,
      "v": 101
    },
    {
      "midi": 56,
      "hit": false,
      "t": 178875,
      "d": 1085.9375,
      "v": 97
    },
    {
      "midi": 81,
      "hit": false,
      "t": 178890.625,
      "d": 515.625,
      "v": 102
    },
    {
      "midi": 61,
      "hit": false,
      "t": 179250,
      "d": 367.1875,
      "v": 95
    },
    {
      "midi": 68,
      "hit": false,
      "t": 179250,
      "d": 710.9375,
      "v": 94
    },
    {
      "midi": 64,
      "hit": false,
      "t": 179250,
      "d": 742.1875,
      "v": 101
    },
    {
      "midi": 76,
      "hit": false,
      "t": 179445.3125,
      "d": 3515.625,
      "v": 94
    },
    {
      "midi": 61,
      "hit": false,
      "t": 179625,
      "d": 742.1875,
      "v": 99
    },
    {
      "midi": 69,
      "hit": false,
      "t": 179960.9375,
      "d": 31.25,
      "v": 94
    },
    {
      "midi": 57,
      "hit": false,
      "t": 179960.9375,
      "d": 1125,
      "v": 97
    },
    {
      "midi": 64,
      "hit": false,
      "t": 180000,
      "d": 742.1875,
      "v": 99
    },
    {
      "midi": 69,
      "hit": false,
      "t": 180000,
      "d": 742.1875,
      "v": 101
    },
    {
      "midi": 73,
      "hit": false,
      "t": 180000,
      "d": 2617.1875,
      "v": 98
    },
    {
      "midi": 61,
      "hit": false,
      "t": 180375,
      "d": 367.1875,
      "v": 97
    },
    {
      "midi": 69,
      "hit": false,
      "t": 180750,
      "d": 335.9375,
      "v": 92
    },
    {
      "midi": 61,
      "hit": false,
      "t": 180750,
      "d": 742.1875,
      "v": 92
    },
    {
      "midi": 64,
      "hit": false,
      "t": 180750,
      "d": 742.1875,
      "v": 95
    },
    {
      "midi": 56,
      "hit": false,
      "t": 181085.9375,
      "d": 31.25,
      "v": 97
    },
    {
      "midi": 68,
      "hit": false,
      "t": 181085.9375,
      "d": 1125,
      "v": 92
    },
    {
      "midi": 56,
      "hit": false,
      "t": 181125,
      "d": 742.1875,
      "v": 100
    },
    {
      "midi": 61,
      "hit": false,
      "t": 181500,
      "d": 742.1875,
      "v": 96
    },
    {
      "midi": 64,
      "hit": false,
      "t": 181500,
      "d": 742.1875,
      "v": 102
    },
    {
      "midi": 56,
      "hit": false,
      "t": 181875,
      "d": 335.9375,
      "v": 99
    },
    {
      "midi": 55,
      "hit": false,
      "t": 182210.9375,
      "d": 7.8125,
      "v": 99
    },
    {
      "midi": 67,
      "hit": false,
      "t": 182210.9375,
      "d": 7.8125,
      "v": 92
    },
    {
      "midi": 57,
      "hit": false,
      "t": 182218.75,
      "d": 23.4375,
      "v": 99
    },
    {
      "midi": 69,
      "hit": false,
      "t": 182218.75,
      "d": 23.4375,
      "v": 92
    },
    {
      "midi": 64,
      "hit": false,
      "t": 182250,
      "d": 367.1875,
      "v": 98
    },
    {
      "midi": 67,
      "hit": false,
      "t": 182250,
      "d": 367.1875,
      "v": 95
    },
    {
      "midi": 61,
      "hit": false,
      "t": 182250,
      "d": 718.75,
      "v": 98
    },
    {
      "midi": 64,
      "hit": false,
      "t": 182625,
      "d": 343.75,
      "v": 88
    },
    {
      "midi": 67,
      "hit": false,
      "t": 182625,
      "d": 343.75,
      "v": 96
    },
    {
      "midi": 73,
      "hit": false,
      "t": 182625,
      "d": 343.75,
      "v": 95
    },
    {
      "midi": 63,
      "hit": false,
      "t": 182968.75,
      "d": 1.5625,
      "v": 88
    },
    {
      "midi": 57,
      "hit": false,
      "t": 182968.75,
      "d": 23.4375,
      "v": 98
    },
    {
      "midi": 62,
      "hit": false,
      "t": 182968.75,
      "d": 23.4375,
      "v": 88
    },
    {
      "midi": 66,
      "hit": false,
      "t": 182968.75,
      "d": 23.4375,
      "v": 96
    },
    {
      "midi": 69,
      "hit": false,
      "t": 182968.75,
      "d": 23.4375,
      "v": 95
    },
    {
      "midi": 54,
      "hit": false,
      "t": 183000,
      "d": 359.375,
      "v": 97
    },
    {
      "midi": 57,
      "hit": false,
      "t": 183000,
      "d": 734.375,
      "v": 99
    },
    {
      "midi": 62,
      "hit": false,
      "t": 183000,
      "d": 734.375,
      "v": 102
    },
    {
      "midi": 54,
      "hit": false,
      "t": 183375,
      "d": 742.1875,
      "v": 99
    },
    {
      "midi": 57,
      "hit": false,
      "t": 183750,
      "d": 742.1875,
      "v": 95
    },
    {
      "midi": 62,
      "hit": false,
      "t": 183750,
      "d": 742.1875,
      "v": 99
    },
    {
      "midi": 66,
      "hit": false,
      "t": 183750,
      "d": 1492.1875,
      "v": 94
    },
    {
      "midi": 54,
      "hit": false,
      "t": 184125,
      "d": 367.1875,
      "v": 102
    },
    {
      "midi": 54,
      "hit": false,
      "t": 184500,
      "d": 367.1875,
      "v": 99
    },
    {
      "midi": 57,
      "hit": false,
      "t": 184500,
      "d": 742.1875,
      "v": 99
    },
    {
      "midi": 62,
      "hit": false,
      "t": 184500,
      "d": 742.1875,
      "v": 99
    },
    {
      "midi": 86,
      "hit": false,
      "t": 184656.25,
      "d": 210.9375,
      "v": 127
    },
    {
      "midi": 54,
      "hit": false,
      "t": 184875,
      "d": 367.1875,
      "v": 97
    },
    {
      "midi": 86,
      "hit": false,
      "t": 184976.5625,
      "d": 250,
      "v": 112
    },
    {
      "midi": 85,
      "hit": false,
      "t": 185234.375,
      "d": 85.9375,
      "v": 97
    },
    {
      "midi": 57,
      "hit": false,
      "t": 185250,
      "d": 718.75,
      "v": 98
    },
    {
      "midi": 66,
      "hit": false,
      "t": 185250,
      "d": 718.75,
      "v": 96
    },
    {
      "midi": 86,
      "hit": false,
      "t": 185429.6875,
      "d": 265.625,
      "v": 115
    },
    {
      "midi": 54,
      "hit": false,
      "t": 185625,
      "d": 343.75,
      "v": 100
    },
    {
      "midi": 85,
      "hit": false,
      "t": 185703.125,
      "d": 85.9375,
      "v": 102
    },
    {
      "midi": 86,
      "hit": false,
      "t": 185937.5,
      "d": 398.4375,
      "v": 105
    },
    {
      "midi": 62,
      "hit": false,
      "t": 185968.75,
      "d": 1.5625,
      "v": 102
    },
    {
      "midi": 63,
      "hit": false,
      "t": 185968.75,
      "d": 1.5625,
      "v": 102
    },
    {
      "midi": 56,
      "hit": false,
      "t": 185968.75,
      "d": 23.4375,
      "v": 100
    },
    {
      "midi": 59,
      "hit": false,
      "t": 185968.75,
      "d": 23.4375,
      "v": 98
    },
    {
      "midi": 68,
      "hit": false,
      "t": 185968.75,
      "d": 23.4375,
      "v": 96
    },
    {
      "midi": 68,
      "hit": false,
      "t": 186000,
      "d": 367.1875,
      "v": 97
    },
    {
      "midi": 59,
      "hit": false,
      "t": 186000,
      "d": 742.1875,
      "v": 99
    },
    {
      "midi": 62,
      "hit": false,
      "t": 186000,
      "d": 742.1875,
      "v": 102
    },
    {
      "midi": 85,
      "hit": false,
      "t": 186320.3125,
      "d": 132.8125,
      "v": 119
    },
    {
      "midi": 56,
      "hit": false,
      "t": 186375,
      "d": 742.1875,
      "v": 99
    },
    {
      "midi": 86,
      "hit": false,
      "t": 186554.6875,
      "d": 265.625,
      "v": 119
    },
    {
      "midi": 59,
      "hit": false,
      "t": 186750,
      "d": 742.1875,
      "v": 95
    },
    {
      "midi": 62,
      "hit": false,
      "t": 186750,
      "d": 742.1875,
      "v": 99
    },
    {
      "midi": 68,
      "hit": false,
      "t": 186750,
      "d": 1492.1875,
      "v": 94
    },
    {
      "midi": 85,
      "hit": false,
      "t": 186828.125,
      "d": 85.9375,
      "v": 94
    },
    {
      "midi": 86,
      "hit": false,
      "t": 187031.25,
      "d": 179.6875,
      "v": 105
    },
    {
      "midi": 56,
      "hit": false,
      "t": 187125,
      "d": 367.1875,
      "v": 102
    },
    {
      "midi": 85,
      "hit": false,
      "t": 187203.125,
      "d": 78.125,
      "v": 105
    },
    {
      "midi": 85,
      "hit": false,
      "t": 187398.4375,
      "d": 54.6875,
      "v": 77
    },
    {
      "midi": 86,
      "hit": false,
      "t": 187421.875,
      "d": 2039.0625,
      "v": 99
    },
    {
      "midi": 56,
      "hit": false,
      "t": 187500,
      "d": 742.1875,
      "v": 99
    },
    {
      "midi": 59,
      "hit": false,
      "t": 187500,
      "d": 742.1875,
      "v": 99
    },
    {
      "midi": 64,
      "hit": false,
      "t": 187500,
      "d": 742.1875,
      "v": 99
    },
    {
      "midi": 52,
      "hit": false,
      "t": 187875,
      "d": 367.1875,
      "v": 97
    },
    {
      "midi": 59,
      "hit": false,
      "t": 188250,
      "d": 718.75,
      "v": 98
    },
    {
      "midi": 62,
      "hit": false,
      "t": 188250,
      "d": 718.75,
      "v": 102
    },
    {
      "midi": 68,
      "hit": false,
      "t": 188250,
      "d": 718.75,
      "v": 96
    },
    {
      "midi": 56,
      "hit": false,
      "t": 188625,
      "d": 343.75,
      "v": 100
    },
    {
      "midi": 57,
      "hit": false,
      "t": 188968.75,
      "d": 23.4375,
      "v": 100
    },
    {
      "midi": 61,
      "hit": false,
      "t": 188968.75,
      "d": 23.4375,
      "v": 98
    },
    {
      "midi": 64,
      "hit": false,
      "t": 188968.75,
      "d": 23.4375,
      "v": 102
    },
    {
      "midi": 69,
      "hit": false,
      "t": 188968.75,
      "d": 23.4375,
      "v": 96
    },
    {
      "midi": 61,
      "hit": false,
      "t": 189000,
      "d": 742.1875,
      "v": 98
    },
    {
      "midi": 64,
      "hit": false,
      "t": 189000,
      "d": 742.1875,
      "v": 98
    },
    {
      "midi": 69,
      "hit": false,
      "t": 189000,
      "d": 742.1875,
      "v": 95
    },
    {
      "midi": 57,
      "hit": false,
      "t": 189375,
      "d": 1117.1875,
      "v": 99
    },
    {
      "midi": 85,
      "hit": false,
      "t": 189460.9375,
      "d": 273.4375,
      "v": 127
    },
    {
      "midi": 61,
      "hit": false,
      "t": 189750,
      "d": 367.1875,
      "v": 98
    },
    {
      "midi": 64,
      "hit": false,
      "t": 189750,
      "d": 742.1875,
      "v": 99
    },
    {
      "midi": 69,
      "hit": false,
      "t": 189750,
      "d": 742.1875,
      "v": 95
    },
    {
      "midi": 85,
      "hit": false,
      "t": 189828.125,
      "d": 234.375,
      "v": 124
    },
    {
      "midi": 61,
      "hit": false,
      "t": 190125,
      "d": 367.1875,
      "v": 94
    },
    {
      "midi": 83,
      "hit": false,
      "t": 190140.625,
      "d": 117.1875,
      "v": 108
    },
    {
      "midi": 85,
      "hit": false,
      "t": 190343.75,
      "d": 804.6875,
      "v": 119
    },
    {
      "midi": 69,
      "hit": false,
      "t": 190500,
      "d": 23.4375,
      "v": 100
    },
    {
      "midi": 71,
      "hit": false,
      "t": 190500,
      "d": 23.4375,
      "v": 98
    },
    {
      "midi": 64,
      "hit": false,
      "t": 190500,
      "d": 742.1875,
      "v": 98
    },
    {
      "midi": 68,
      "hit": false,
      "t": 190523.4375,
      "d": 718.75,
      "v": 100
    },
    {
      "midi": 73,
      "hit": false,
      "t": 190523.4375,
      "d": 718.75,
      "v": 98
    },
    {
      "midi": 61,
      "hit": false,
      "t": 190875,
      "d": 367.1875,
      "v": 97
    },
    {
      "midi": 83,
      "hit": false,
      "t": 191242.1875,
      "d": 164.0625,
      "v": 119
    },
    {
      "midi": 68,
      "hit": false,
      "t": 191250,
      "d": 726.5625,
      "v": 94
    },
    {
      "midi": 61,
      "hit": false,
      "t": 191250,
      "d": 742.1875,
      "v": 92
    },
    {
      "midi": 64,
      "hit": false,
      "t": 191250,
      "d": 742.1875,
      "v": 92
    },
    {
      "midi": 85,
      "hit": false,
      "t": 191500,
      "d": 117.1875,
      "v": 112
    },
    {
      "midi": 56,
      "hit": false,
      "t": 191625,
      "d": 351.5625,
      "v": 99
    },
    {
      "midi": 83,
      "hit": false,
      "t": 191687.5,
      "d": 101.5625,
      "v": 94
    },
    {
      "midi": 85,
      "hit": false,
      "t": 191968.75,
      "d": 492.1875,
      "v": 127
    },
    {
      "midi": 69,
      "hit": false,
      "t": 191976.5625,
      "d": 15.625,
      "v": 94
    },
    {
      "midi": 57,
      "hit": false,
      "t": 191976.5625,
      "d": 390.625,
      "v": 99
    },
    {
      "midi": 61,
      "hit": false,
      "t": 192000,
      "d": 742.1875,
      "v": 96
    },
    {
      "midi": 64,
      "hit": false,
      "t": 192000,
      "d": 742.1875,
      "v": 103
    },
    {
      "midi": 69,
      "hit": false,
      "t": 192000,
      "d": 742.1875,
      "v": 103
    },
    {
      "midi": 57,
      "hit": false,
      "t": 192375,
      "d": 742.1875,
      "v": 98
    },
    {
      "midi": 83,
      "hit": false,
      "t": 192515.625,
      "d": 296.875,
      "v": 102
    },
    {
      "midi": 64,
      "hit": false,
      "t": 192750,
      "d": 664.0625,
      "v": 99
    },
    {
      "midi": 69,
      "hit": false,
      "t": 192750,
      "d": 664.0625,
      "v": 94
    },
    {
      "midi": 61,
      "hit": false,
      "t": 192750,
      "d": 742.1875,
      "v": 94
    },
    {
      "midi": 85,
      "hit": false,
      "t": 192929.6875,
      "d": 218.75,
      "v": 119
    },
    {
      "midi": 57,
      "hit": false,
      "t": 193125,
      "d": 289.0625,
      "v": 101
    },
    {
      "midi": 83,
      "hit": false,
      "t": 193148.4375,
      "d": 156.25,
      "v": 86
    },
    {
      "midi": 56,
      "hit": false,
      "t": 193414.0625,
      "d": 23.4375,
      "v": 101
    },
    {
      "midi": 65,
      "hit": false,
      "t": 193414.0625,
      "d": 23.4375,
      "v": 99
    },
    {
      "midi": 68,
      "hit": false,
      "t": 193414.0625,
      "d": 23.4375,
      "v": 94
    },
    {
      "midi": 64,
      "hit": false,
      "t": 193437.5,
      "d": 54.6875,
      "v": 99
    },
    {
      "midi": 67,
      "hit": false,
      "t": 193437.5,
      "d": 54.6875,
      "v": 94
    },
    {
      "midi": 55,
      "hit": false,
      "t": 193437.5,
      "d": 62.5,
      "v": 101
    },
    {
      "midi": 85,
      "hit": false,
      "t": 193460.9375,
      "d": 2500,
      "v": 127
    },
    {
      "midi": 61,
      "hit": false,
      "t": 193500,
      "d": 367.1875,
      "v": 94
    },
    {
      "midi": 57,
      "hit": false,
      "t": 193500,
      "d": 742.1875,
      "v": 101
    },
    {
      "midi": 64,
      "hit": false,
      "t": 193500,
      "d": 742.1875,
      "v": 99
    },
    {
      "midi": 69,
      "hit": false,
      "t": 193500,
      "d": 742.1875,
      "v": 96
    },
    {
      "midi": 61,
      "hit": false,
      "t": 193875,
      "d": 367.1875,
      "v": 94
    },
    {
      "midi": 64,
      "hit": false,
      "t": 194250,
      "d": 734.375,
      "v": 98
    },
    {
      "midi": 67,
      "hit": false,
      "t": 194250,
      "d": 734.375,
      "v": 99
    },
    {
      "midi": 73,
      "hit": false,
      "t": 194250,
      "d": 734.375,
      "v": 99
    },
    {
      "midi": 61,
      "hit": false,
      "t": 194625,
      "d": 359.375,
      "v": 98
    },
    {
      "midi": 63,
      "hit": false,
      "t": 194984.375,
      "d": 1.5625,
      "v": 98
    },
    {
      "midi": 57,
      "hit": false,
      "t": 194984.375,
      "d": 7.8125,
      "v": 98
    },
    {
      "midi": 62,
      "hit": false,
      "t": 194984.375,
      "d": 7.8125,
      "v": 98
    },
    {
      "midi": 66,
      "hit": false,
      "t": 194984.375,
      "d": 7.8125,
      "v": 99
    },
    {
      "midi": 69,
      "hit": false,
      "t": 194984.375,
      "d": 1507.8125,
      "v": 99
    },
    {
      "midi": 57,
      "hit": false,
      "t": 195000,
      "d": 742.1875,
      "v": 94
    },
    {
      "midi": 62,
      "hit": false,
      "t": 195000,
      "d": 742.1875,
      "v": 100
    },
    {
      "midi": 66,
      "hit": false,
      "t": 195000,
      "d": 742.1875,
      "v": 97
    },
    {
      "midi": 54,
      "hit": false,
      "t": 195375,
      "d": 742.1875,
      "v": 99
    },
    {
      "midi": 66,
      "hit": false,
      "t": 195750,
      "d": 367.1875,
      "v": 94
    },
    {
      "midi": 57,
      "hit": false,
      "t": 195750,
      "d": 742.1875,
      "v": 97
    },
    {
      "midi": 62,
      "hit": false,
      "t": 195750,
      "d": 742.1875,
      "v": 95
    },
    {
      "midi": 83,
      "hit": false,
      "t": 196007.8125,
      "d": 179.6875,
      "v": 108
    },
    {
      "midi": 54,
      "hit": false,
      "t": 196125,
      "d": 1843.75,
      "v": 96
    },
    {
      "midi": 83,
      "hit": false,
      "t": 196296.875,
      "d": 257.8125,
      "v": 115
    },
    {
      "midi": 57,
      "hit": false,
      "t": 196500,
      "d": 367.1875,
      "v": 87
    },
    {
      "midi": 62,
      "hit": false,
      "t": 196500,
      "d": 742.1875,
      "v": 87
    },
    {
      "midi": 66,
      "hit": false,
      "t": 196500,
      "d": 742.1875,
      "v": 86
    },
    {
      "midi": 81,
      "hit": false,
      "t": 196539.0625,
      "d": 132.8125,
      "v": 90
    },
    {
      "midi": 83,
      "hit": false,
      "t": 196742.1875,
      "d": 289.0625,
      "v": 88
    },
    {
      "midi": 57,
      "hit": false,
      "t": 196875,
      "d": 367.1875,
      "v": 96
    },
    {
      "midi": 81,
      "hit": false,
      "t": 197015.625,
      "d": 164.0625,
      "v": 99
    },
    {
      "midi": 83,
      "hit": false,
      "t": 197242.1875,
      "d": 257.8125,
      "v": 102
    },
    {
      "midi": 66,
      "hit": false,
      "t": 197250,
      "d": 718.75,
      "v": 100
    },
    {
      "midi": 69,
      "hit": false,
      "t": 197250,
      "d": 718.75,
      "v": 99
    },
    {
      "midi": 62,
      "hit": false,
      "t": 197250,
      "d": 742.1875,
      "v": 97
    },
    {
      "midi": 81,
      "hit": false,
      "t": 197500,
      "d": 109.375,
      "v": 108
    },
    {
      "midi": 57,
      "hit": false,
      "t": 197625,
      "d": 343.75,
      "v": 97
    },
    {
      "midi": 83,
      "hit": false,
      "t": 197710.9375,
      "d": 210.9375,
      "v": 112
    },
    {
      "midi": 81,
      "hit": false,
      "t": 197906.25,
      "d": 78.125,
      "v": 97
    },
    {
      "midi": 59,
      "hit": false,
      "t": 197968.75,
      "d": 23.4375,
      "v": 97
    },
    {
      "midi": 67,
      "hit": false,
      "t": 197968.75,
      "d": 23.4375,
      "v": 100
    },
    {
      "midi": 55,
      "hit": false,
      "t": 197968.75,
      "d": 398.4375,
      "v": 96
    },
    {
      "midi": 71,
      "hit": false,
      "t": 197968.75,
      "d": 1531.25,
      "v": 99
    },
    {
      "midi": 59,
      "hit": false,
      "t": 198000,
      "d": 742.1875,
      "v": 91
    },
    {
      "midi": 62,
      "hit": false,
      "t": 198000,
      "d": 742.1875,
      "v": 95
    },
    {
      "midi": 67,
      "hit": false,
      "t": 198000,
      "d": 742.1875,
      "v": 93
    },
    {
      "midi": 83,
      "hit": false,
      "t": 198093.75,
      "d": 320.3125,
      "v": 112
    },
    {
      "midi": 81,
      "hit": false,
      "t": 198367.1875,
      "d": 226.5625,
      "v": 92
    },
    {
      "midi": 55,
      "hit": false,
      "t": 198375,
      "d": 367.1875,
      "v": 94
    },
    {
      "midi": 79,
      "hit": false,
      "t": 198601.5625,
      "d": 2953.125,
      "v": 99
    },
    {
      "midi": 67,
      "hit": false,
      "t": 198750,
      "d": 367.1875,
      "v": 96
    },
    {
      "midi": 59,
      "hit": false,
      "t": 198750,
      "d": 742.1875,
      "v": 92
    },
    {
      "midi": 62,
      "hit": false,
      "t": 198750,
      "d": 742.1875,
      "v": 96
    },
    {
      "midi": 55,
      "hit": false,
      "t": 199125,
      "d": 367.1875,
      "v": 96
    },
    {
      "midi": 55,
      "hit": false,
      "t": 199500,
      "d": 742.1875,
      "v": 93
    },
    {
      "midi": 57,
      "hit": false,
      "t": 199500,
      "d": 742.1875,
      "v": 97
    },
    {
      "midi": 62,
      "hit": false,
      "t": 199500,
      "d": 742.1875,
      "v": 96
    },
    {
      "midi": 69,
      "hit": false,
      "t": 199500,
      "d": 742.1875,
      "v": 99
    },
    {
      "midi": 50,
      "hit": false,
      "t": 199875,
      "d": 367.1875,
      "v": 99
    },
    {
      "midi": 55,
      "hit": false,
      "t": 200250,
      "d": 718.75,
      "v": 97
    },
    {
      "midi": 59,
      "hit": false,
      "t": 200250,
      "d": 742.1875,
      "v": 99
    },
    {
      "midi": 62,
      "hit": false,
      "t": 200250,
      "d": 742.1875,
      "v": 99
    },
    {
      "midi": 50,
      "hit": false,
      "t": 200625,
      "d": 367.1875,
      "v": 99
    },
    {
      "midi": 56,
      "hit": false,
      "t": 200968.75,
      "d": 398.4375,
      "v": 97
    },
    {
      "midi": 59,
      "hit": false,
      "t": 201000,
      "d": 742.1875,
      "v": 95
    },
    {
      "midi": 62,
      "hit": false,
      "t": 201000,
      "d": 742.1875,
      "v": 94
    },
    {
      "midi": 68,
      "hit": false,
      "t": 201000,
      "d": 742.1875,
      "v": 95
    },
    {
      "midi": 56,
      "hit": false,
      "t": 201375,
      "d": 742.1875,
      "v": 94
    },
    {
      "midi": 80,
      "hit": false,
      "t": 201601.5625,
      "d": 289.0625,
      "v": 119
    },
    {
      "midi": 59,
      "hit": false,
      "t": 201750,
      "d": 742.1875,
      "v": 96
    },
    {
      "midi": 62,
      "hit": false,
      "t": 201750,
      "d": 742.1875,
      "v": 99
    },
    {
      "midi": 68,
      "hit": false,
      "t": 201750,
      "d": 750,
      "v": 95
    },
    {
      "midi": 80,
      "hit": false,
      "t": 201976.5625,
      "d": 468.75,
      "v": 124
    },
    {
      "midi": 56,
      "hit": false,
      "t": 202125,
      "d": 367.1875,
      "v": 100
    },
    {
      "midi": 76,
      "hit": false,
      "t": 202476.5625,
      "d": 367.1875,
      "v": 83
    },
    {
      "midi": 57,
      "hit": false,
      "t": 202500,
      "d": 367.1875,
      "v": 93
    },
    {
      "midi": 59,
      "hit": false,
      "t": 202500,
      "d": 742.1875,
      "v": 97
    },
    {
      "midi": 62,
      "hit": false,
      "t": 202500,
      "d": 742.1875,
      "v": 101
    },
    {
      "midi": 69,
      "hit": false,
      "t": 202500,
      "d": 742.1875,
      "v": 95
    },
    {
      "midi": 57,
      "hit": false,
      "t": 202875,
      "d": 375,
      "v": 97
    },
    {
      "midi": 76,
      "hit": false,
      "t": 202921.875,
      "d": 4046.875,
      "v": 92
    },
    {
      "midi": 59,
      "hit": false,
      "t": 203250,
      "d": 367.1875,
      "v": 95
    },
    {
      "midi": 62,
      "hit": false,
      "t": 203250,
      "d": 742.1875,
      "v": 101
    },
    {
      "midi": 68,
      "hit": false,
      "t": 203250,
      "d": 742.1875,
      "v": 94
    },
    {
      "midi": 56,
      "hit": false,
      "t": 203250,
      "d": 1867.1875,
      "v": 97
    },
    {
      "midi": 59,
      "hit": false,
      "t": 203625,
      "d": 742.1875,
      "v": 99
    },
    {
      "midi": 62,
      "hit": false,
      "t": 204000,
      "d": 742.1875,
      "v": 99
    },
    {
      "midi": 68,
      "hit": false,
      "t": 204000,
      "d": 742.1875,
      "v": 101
    },
    {
      "midi": 71,
      "hit": false,
      "t": 204000,
      "d": 1429.6875,
      "v": 98
    },
    {
      "midi": 59,
      "hit": false,
      "t": 204375,
      "d": 367.1875,
      "v": 97
    },
    {
      "midi": 59,
      "hit": false,
      "t": 204750,
      "d": 679.6875,
      "v": 92
    },
    {
      "midi": 62,
      "hit": false,
      "t": 204750,
      "d": 679.6875,
      "v": 95
    },
    {
      "midi": 68,
      "hit": false,
      "t": 204750,
      "d": 679.6875,
      "v": 92
    },
    {
      "midi": 56,
      "hit": false,
      "t": 205125,
      "d": 304.6875,
      "v": 100
    },
    {
      "midi": 69,
      "hit": false,
      "t": 205500,
      "d": 554.6875,
      "v": 102
    },
    {
      "midi": 71,
      "hit": false,
      "t": 205500,
      "d": 554.6875,
      "v": 102
    },
    {
      "midi": 62,
      "hit": false,
      "t": 205500,
      "d": 742.1875,
      "v": 100
    },
    {
      "midi": 69,
      "hit": false,
      "t": 206062.5,
      "d": 179.6875,
      "v": 80
    },
    {
      "midi": 71,
      "hit": false,
      "t": 206062.5,
      "d": 179.6875,
      "v": 80
    },
    {
      "midi": 74,
      "hit": false,
      "t": 206062.5,
      "d": 179.6875,
      "v": 80
    },
    {
      "midi": 68,
      "hit": false,
      "t": 206250,
      "d": 367.1875,
      "v": 99
    },
    {
      "midi": 71,
      "hit": false,
      "t": 206250,
      "d": 367.1875,
      "v": 103
    },
    {
      "midi": 74,
      "hit": false,
      "t": 206250,
      "d": 367.1875,
      "v": 102
    },
    {
      "midi": 71,
      "hit": false,
      "t": 206625,
      "d": 359.375,
      "v": 93
    },
    {
      "midi": 80,
      "hit": false,
      "t": 206625,
      "d": 359.375,
      "v": 93
    },
    {
      "midi": 74,
      "hit": false,
      "t": 206984.375,
      "d": 1.5625,
      "v": 93
    },
    {
      "midi": 75,
      "hit": false,
      "t": 206984.375,
      "d": 1.5625,
      "v": 93
    },
    {
      "midi": 69,
      "hit": false,
      "t": 206984.375,
      "d": 7.8125,
      "v": 93
    },
    {
      "midi": 78,
      "hit": false,
      "t": 206984.375,
      "d": 7.8125,
      "v": 93
    },
    {
      "midi": 54,
      "hit": false,
      "t": 207000,
      "d": 359.375,
      "v": 97
    },
    {
      "midi": 57,
      "hit": false,
      "t": 207000,
      "d": 734.375,
      "v": 99
    },
    {
      "midi": 62,
      "hit": false,
      "t": 207000,
      "d": 734.375,
      "v": 102
    },
    {
      "midi": 54,
      "hit": false,
      "t": 207375,
      "d": 742.1875,
      "v": 99
    },
    {
      "midi": 57,
      "hit": false,
      "t": 207750,
      "d": 742.1875,
      "v": 95
    },
    {
      "midi": 62,
      "hit": false,
      "t": 207750,
      "d": 742.1875,
      "v": 99
    },
    {
      "midi": 66,
      "hit": false,
      "t": 207750,
      "d": 1492.1875,
      "v": 94
    },
    {
      "midi": 78,
      "hit": false,
      "t": 208085.9375,
      "d": 171.875,
      "v": 119
    },
    {
      "midi": 54,
      "hit": false,
      "t": 208125,
      "d": 367.1875,
      "v": 102
    },
    {
      "midi": 78,
      "hit": false,
      "t": 208375,
      "d": 203.125,
      "v": 115
    },
    {
      "midi": 54,
      "hit": false,
      "t": 208500,
      "d": 367.1875,
      "v": 99
    },
    {
      "midi": 57,
      "hit": false,
      "t": 208500,
      "d": 742.1875,
      "v": 99
    },
    {
      "midi": 62,
      "hit": false,
      "t": 208500,
      "d": 742.1875,
      "v": 99
    },
    {
      "midi": 76,
      "hit": false,
      "t": 208656.25,
      "d": 117.1875,
      "v": 99
    },
    {
      "midi": 54,
      "hit": false,
      "t": 208875,
      "d": 367.1875,
      "v": 97
    },
    {
      "midi": 78,
      "hit": false,
      "t": 208882.8125,
      "d": 164.0625,
      "v": 102
    },
    {
      "midi": 76,
      "hit": false,
      "t": 209132.8125,
      "d": 140.625,
      "v": 78
    },
    {
      "midi": 57,
      "hit": false,
      "t": 209250,
      "d": 742.1875,
      "v": 98
    },
    {
      "midi": 62,
      "hit": false,
      "t": 209250,
      "d": 742.1875,
      "v": 102
    },
    {
      "midi": 66,
      "hit": false,
      "t": 209250,
      "d": 742.1875,
      "v": 96
    },
    {
      "midi": 78,
      "hit": false,
      "t": 209343.75,
      "d": 406.25,
      "v": 112
    },
    {
      "midi": 54,
      "hit": false,
      "t": 209625,
      "d": 367.1875,
      "v": 100
    },
    {
      "midi": 76,
      "hit": false,
      "t": 209781.25,
      "d": 117.1875,
      "v": 102
    },
    {
      "midi": 57,
      "hit": false,
      "t": 210000,
      "d": 7.8125,
      "v": 99
    },
    {
      "midi": 66,
      "hit": false,
      "t": 210000,
      "d": 7.8125,
      "v": 97
    },
    {
      "midi": 62,
      "hit": false,
      "t": 210000,
      "d": 742.1875,
      "v": 102
    },
    {
      "midi": 68,
      "hit": false,
      "t": 210007.8125,
      "d": 359.375,
      "v": 97
    },
    {
      "midi": 59,
      "hit": false,
      "t": 210007.8125,
      "d": 734.375,
      "v": 99
    },
    {
      "midi": 76,
      "hit": false,
      "t": 210078.125,
      "d": 78.125,
      "v": 64
    },
    {
      "midi": 78,
      "hit": false,
      "t": 210109.375,
      "d": 281.25,
      "v": 108
    },
    {
      "midi": 56,
      "hit": false,
      "t": 210375,
      "d": 742.1875,
      "v": 99
    },
    {
      "midi": 76,
      "hit": false,
      "t": 210398.4375,
      "d": 101.5625,
      "v": 83
    },
    {
      "midi": 78,
      "hit": false,
      "t": 210601.5625,
      "d": 2265.625,
      "v": 124
    },
    {
      "midi": 59,
      "hit": false,
      "t": 210750,
      "d": 742.1875,
      "v": 95
    },
    {
      "midi": 62,
      "hit": false,
      "t": 210750,
      "d": 742.1875,
      "v": 99
    },
    {
      "midi": 68,
      "hit": false,
      "t": 210750,
      "d": 1492.1875,
      "v": 94
    },
    {
      "midi": 56,
      "hit": false,
      "t": 211125,
      "d": 367.1875,
      "v": 102
    },
    {
      "midi": 56,
      "hit": false,
      "t": 211500,
      "d": 742.1875,
      "v": 99
    },
    {
      "midi": 59,
      "hit": false,
      "t": 211500,
      "d": 742.1875,
      "v": 99
    },
    {
      "midi": 64,
      "hit": false,
      "t": 211500,
      "d": 742.1875,
      "v": 99
    },
    {
      "midi": 52,
      "hit": false,
      "t": 211875,
      "d": 367.1875,
      "v": 97
    },
    {
      "midi": 59,
      "hit": false,
      "t": 212250,
      "d": 710.9375,
      "v": 98
    },
    {
      "midi": 62,
      "hit": false,
      "t": 212250,
      "d": 710.9375,
      "v": 102
    },
    {
      "midi": 68,
      "hit": false,
      "t": 212250,
      "d": 710.9375,
      "v": 96
    },
    {
      "midi": 56,
      "hit": false,
      "t": 212625,
      "d": 335.9375,
      "v": 100
    },
    {
      "midi": 57,
      "hit": false,
      "t": 212960.9375,
      "d": 31.25,
      "v": 100
    },
    {
      "midi": 61,
      "hit": false,
      "t": 212960.9375,
      "d": 31.25,
      "v": 98
    },
    {
      "midi": 64,
      "hit": false,
      "t": 212960.9375,
      "d": 31.25,
      "v": 102
    },
    {
      "midi": 69,
      "hit": false,
      "t": 212960.9375,
      "d": 31.25,
      "v": 96
    },
    {
      "midi": 61,
      "hit": false,
      "t": 213000,
      "d": 742.1875,
      "v": 98
    },
    {
      "midi": 64,
      "hit": false,
      "t": 213000,
      "d": 742.1875,
      "v": 98
    },
    {
      "midi": 69,
      "hit": false,
      "t": 213000,
      "d": 742.1875,
      "v": 95
    },
    {
      "midi": 85,
      "hit": false,
      "t": 213359.375,
      "d": 382.8125,
      "v": 127
    },
    {
      "midi": 57,
      "hit": false,
      "t": 213375,
      "d": 710.9375,
      "v": 99
    },
    {
      "midi": 69,
      "hit": false,
      "t": 213750,
      "d": 335.9375,
      "v": 95
    },
    {
      "midi": 61,
      "hit": false,
      "t": 213750,
      "d": 367.1875,
      "v": 98
    },
    {
      "midi": 64,
      "hit": false,
      "t": 213750,
      "d": 742.1875,
      "v": 99
    },
    {
      "midi": 85,
      "hit": false,
      "t": 213820.3125,
      "d": 382.8125,
      "v": 119
    },
    {
      "midi": 56,
      "hit": false,
      "t": 214085.9375,
      "d": 406.25,
      "v": 99
    },
    {
      "midi": 68,
      "hit": false,
      "t": 214085.9375,
      "d": 406.25,
      "v": 95
    },
    {
      "midi": 61,
      "hit": false,
      "t": 214125,
      "d": 367.1875,
      "v": 94
    },
    {
      "midi": 83,
      "hit": false,
      "t": 214242.1875,
      "d": 375,
      "v": 112
    },
    {
      "midi": 64,
      "hit": false,
      "t": 214500,
      "d": 742.1875,
      "v": 98
    },
    {
      "midi": 68,
      "hit": false,
      "t": 214500,
      "d": 742.1875,
      "v": 100
    },
    {
      "midi": 73,
      "hit": false,
      "t": 214500,
      "d": 742.1875,
      "v": 98
    },
    {
      "midi": 81,
      "hit": false,
      "t": 214710.9375,
      "d": 671.875,
      "v": 112
    },
    {
      "midi": 61,
      "hit": false,
      "t": 214875,
      "d": 367.1875,
      "v": 97
    },
    {
      "midi": 68,
      "hit": false,
      "t": 215250,
      "d": 703.125,
      "v": 94
    },
    {
      "midi": 61,
      "hit": false,
      "t": 215250,
      "d": 742.1875,
      "v": 92
    },
    {
      "midi": 64,
      "hit": false,
      "t": 215250,
      "d": 742.1875,
      "v": 92
    },
    {
      "midi": 76,
      "hit": false,
      "t": 215390.625,
      "d": 2835.9375,
      "v": 88
    },
    {
      "midi": 56,
      "hit": false,
      "t": 215625,
      "d": 328.125,
      "v": 99
    },
    {
      "midi": 69,
      "hit": false,
      "t": 215953.125,
      "d": 39.0625,
      "v": 94
    },
    {
      "midi": 57,
      "hit": false,
      "t": 215953.125,
      "d": 414.0625,
      "v": 99
    },
    {
      "midi": 61,
      "hit": false,
      "t": 216000,
      "d": 742.1875,
      "v": 96
    },
    {
      "midi": 64,
      "hit": false,
      "t": 216000,
      "d": 742.1875,
      "v": 103
    },
    {
      "midi": 69,
      "hit": false,
      "t": 216000,
      "d": 742.1875,
      "v": 103
    },
    {
      "midi": 57,
      "hit": false,
      "t": 216375,
      "d": 671.875,
      "v": 98
    },
    {
      "midi": 69,
      "hit": false,
      "t": 216750,
      "d": 296.875,
      "v": 94
    },
    {
      "midi": 61,
      "hit": false,
      "t": 216750,
      "d": 742.1875,
      "v": 94
    },
    {
      "midi": 64,
      "hit": false,
      "t": 216750,
      "d": 742.1875,
      "v": 99
    },
    {
      "midi": 56,
      "hit": false,
      "t": 217046.875,
      "d": 70.3125,
      "v": 98
    },
    {
      "midi": 68,
      "hit": false,
      "t": 217046.875,
      "d": 445.3125,
      "v": 94
    },
    {
      "midi": 56,
      "hit": false,
      "t": 217125,
      "d": 1078.125,
      "v": 101
    },
    {
      "midi": 61,
      "hit": false,
      "t": 217500,
      "d": 367.1875,
      "v": 94
    },
    {
      "midi": 68,
      "hit": false,
      "t": 217500,
      "d": 703.125,
      "v": 96
    },
    {
      "midi": 64,
      "hit": false,
      "t": 217500,
      "d": 742.1875,
      "v": 99
    },
    {
      "midi": 61,
      "hit": false,
      "t": 217875,
      "d": 367.1875,
      "v": 94
    },
    {
      "midi": 57,
      "hit": false,
      "t": 218203.125,
      "d": 39.0625,
      "v": 101
    },
    {
      "midi": 69,
      "hit": false,
      "t": 218203.125,
      "d": 39.0625,
      "v": 96
    },
    {
      "midi": 64,
      "hit": false,
      "t": 218250,
      "d": 726.5625,
      "v": 98
    },
    {
      "midi": 67,
      "hit": false,
      "t": 218250,
      "d": 726.5625,
      "v": 99
    },
    {
      "midi": 73,
      "hit": false,
      "t": 218250,
      "d": 726.5625,
      "v": 99
    },
    {
      "midi": 61,
      "hit": false,
      "t": 218625,
      "d": 351.5625,
      "v": 98
    },
    {
      "midi": 63,
      "hit": false,
      "t": 218976.5625,
      "d": 1.5625,
      "v": 98
    },
    {
      "midi": 57,
      "hit": false,
      "t": 218976.5625,
      "d": 15.625,
      "v": 98
    },
    {
      "midi": 62,
      "hit": false,
      "t": 218976.5625,
      "d": 15.625,
      "v": 98
    },
    {
      "midi": 66,
      "hit": false,
      "t": 218976.5625,
      "d": 15.625,
      "v": 99
    },
    {
      "midi": 69,
      "hit": false,
      "t": 218976.5625,
      "d": 1515.625,
      "v": 99
    },
    {
      "midi": 57,
      "hit": false,
      "t": 219000,
      "d": 742.1875,
      "v": 94
    },
    {
      "midi": 62,
      "hit": false,
      "t": 219000,
      "d": 742.1875,
      "v": 100
    },
    {
      "midi": 66,
      "hit": false,
      "t": 219000,
      "d": 742.1875,
      "v": 97
    },
    {
      "midi": 54,
      "hit": false,
      "t": 219375,
      "d": 742.1875,
      "v": 99
    },
    {
      "midi": 66,
      "hit": false,
      "t": 219750,
      "d": 367.1875,
      "v": 94
    },
    {
      "midi": 57,
      "hit": false,
      "t": 219750,
      "d": 742.1875,
      "v": 97
    },
    {
      "midi": 62,
      "hit": false,
      "t": 219750,
      "d": 742.1875,
      "v": 95
    },
    {
      "midi": 78,
      "hit": false,
      "t": 219968.75,
      "d": 148.4375,
      "v": 108
    },
    {
      "midi": 54,
      "hit": false,
      "t": 220125,
      "d": 1859.375,
      "v": 96
    },
    {
      "midi": 78,
      "hit": false,
      "t": 220210.9375,
      "d": 179.6875,
      "v": 92
    },
    {
      "midi": 76,
      "hit": false,
      "t": 220484.375,
      "d": 109.375,
      "v": 79
    },
    {
      "midi": 57,
      "hit": false,
      "t": 220500,
      "d": 367.1875,
      "v": 87
    },
    {
      "midi": 62,
      "hit": false,
      "t": 220500,
      "d": 742.1875,
      "v": 87
    },
    {
      "midi": 66,
      "hit": false,
      "t": 220500,
      "d": 742.1875,
      "v": 86
    },
    {
      "midi": 78,
      "hit": false,
      "t": 220687.5,
      "d": 226.5625,
      "v": 84
    },
    {
      "midi": 57,
      "hit": false,
      "t": 220875,
      "d": 367.1875,
      "v": 96
    },
    {
      "midi": 76,
      "hit": false,
      "t": 220937.5,
      "d": 140.625,
      "v": 73
    },
    {
      "midi": 78,
      "hit": false,
      "t": 221132.8125,
      "d": 406.25,
      "v": 92
    },
    {
      "midi": 62,
      "hit": false,
      "t": 221250,
      "d": 734.375,
      "v": 97
    },
    {
      "midi": 66,
      "hit": false,
      "t": 221250,
      "d": 734.375,
      "v": 100
    },
    {
      "midi": 69,
      "hit": false,
      "t": 221250,
      "d": 734.375,
      "v": 99
    },
    {
      "midi": 76,
      "hit": false,
      "t": 221578.125,
      "d": 132.8125,
      "v": 84
    },
    {
      "midi": 57,
      "hit": false,
      "t": 221625,
      "d": 359.375,
      "v": 97
    },
    {
      "midi": 76,
      "hit": false,
      "t": 221898.4375,
      "d": 78.125,
      "v": 33
    },
    {
      "midi": 78,
      "hit": false,
      "t": 221937.5,
      "d": 343.75,
      "v": 92
    },
    {
      "midi": 64,
      "hit": false,
      "t": 221984.375,
      "d": 1.5625,
      "v": 97
    },
    {
      "midi": 59,
      "hit": false,
      "t": 221984.375,
      "d": 7.8125,
      "v": 97
    },
    {
      "midi": 62,
      "hit": false,
      "t": 221984.375,
      "d": 7.8125,
      "v": 97
    },
    {
      "midi": 68,
      "hit": false,
      "t": 221984.375,
      "d": 7.8125,
      "v": 100
    },
    {
      "midi": 56,
      "hit": false,
      "t": 221984.375,
      "d": 382.8125,
      "v": 96
    },
    {
      "midi": 71,
      "hit": false,
      "t": 221984.375,
      "d": 2257.8125,
      "v": 99
    },
    {
      "midi": 59,
      "hit": false,
      "t": 222000,
      "d": 742.1875,
      "v": 91
    },
    {
      "midi": 62,
      "hit": false,
      "t": 222000,
      "d": 742.1875,
      "v": 95
    },
    {
      "midi": 68,
      "hit": false,
      "t": 222000,
      "d": 742.1875,
      "v": 93
    },
    {
      "midi": 76,
      "hit": false,
      "t": 222273.4375,
      "d": 125,
      "v": 73
    },
    {
      "midi": 56,
      "hit": false,
      "t": 222375,
      "d": 367.1875,
      "v": 94
    },
    {
      "midi": 78,
      "hit": false,
      "t": 222476.5625,
      "d": 2750,
      "v": 119
    },
    {
      "midi": 68,
      "hit": false,
      "t": 222750,
      "d": 367.1875,
      "v": 96
    },
    {
      "midi": 59,
      "hit": false,
      "t": 222750,
      "d": 742.1875,
      "v": 92
    },
    {
      "midi": 62,
      "hit": false,
      "t": 222750,
      "d": 742.1875,
      "v": 96
    },
    {
      "midi": 56,
      "hit": false,
      "t": 223125,
      "d": 367.1875,
      "v": 96
    },
    {
      "midi": 56,
      "hit": false,
      "t": 223500,
      "d": 742.1875,
      "v": 93
    },
    {
      "midi": 59,
      "hit": false,
      "t": 223500,
      "d": 742.1875,
      "v": 97
    },
    {
      "midi": 64,
      "hit": false,
      "t": 223500,
      "d": 742.1875,
      "v": 96
    },
    {
      "midi": 52,
      "hit": false,
      "t": 223875,
      "d": 367.1875,
      "v": 99
    },
    {
      "midi": 56,
      "hit": false,
      "t": 224250,
      "d": 726.5625,
      "v": 97
    },
    {
      "midi": 59,
      "hit": false,
      "t": 224250,
      "d": 726.5625,
      "v": 99
    },
    {
      "midi": 62,
      "hit": false,
      "t": 224250,
      "d": 726.5625,
      "v": 99
    },
    {
      "midi": 50,
      "hit": false,
      "t": 224625,
      "d": 351.5625,
      "v": 99
    },
    {
      "midi": 57,
      "hit": false,
      "t": 224976.5625,
      "d": 1.5625,
      "v": 99
    },
    {
      "midi": 52,
      "hit": false,
      "t": 224976.5625,
      "d": 15.625,
      "v": 99
    },
    {
      "midi": 61,
      "hit": false,
      "t": 224976.5625,
      "d": 15.625,
      "v": 99
    },
    {
      "midi": 64,
      "hit": false,
      "t": 224976.5625,
      "d": 15.625,
      "v": 99
    },
    {
      "midi": 61,
      "hit": false,
      "t": 225000,
      "d": 742.1875,
      "v": 95
    },
    {
      "midi": 64,
      "hit": false,
      "t": 225000,
      "d": 742.1875,
      "v": 94
    },
    {
      "midi": 69,
      "hit": false,
      "t": 225000,
      "d": 742.1875,
      "v": 95
    },
    {
      "midi": 57,
      "hit": false,
      "t": 225375,
      "d": 742.1875,
      "v": 94
    },
    {
      "midi": 76,
      "hit": false,
      "t": 225390.625,
      "d": 242.1875,
      "v": 99
    },
    {
      "midi": 76,
      "hit": false,
      "t": 225742.1875,
      "d": 289.0625,
      "v": 84
    },
    {
      "midi": 61,
      "hit": false,
      "t": 225750,
      "d": 734.375,
      "v": 96
    },
    {
      "midi": 69,
      "hit": false,
      "t": 225750,
      "d": 734.375,
      "v": 95
    },
    {
      "midi": 64,
      "hit": false,
      "t": 225750,
      "d": 742.1875,
      "v": 99
    },
    {
      "midi": 85,
      "hit": false,
      "t": 226085.9375,
      "d": 632.8125,
      "v": 115
    },
    {
      "midi": 57,
      "hit": false,
      "t": 226125,
      "d": 359.375,
      "v": 100
    },
    {
      "midi": 59,
      "hit": false,
      "t": 226484.375,
      "d": 1.5625,
      "v": 96
    },
    {
      "midi": 56,
      "hit": false,
      "t": 226484.375,
      "d": 7.8125,
      "v": 100
    },
    {
      "midi": 61,
      "hit": false,
      "t": 226484.375,
      "d": 7.8125,
      "v": 96
    },
    {
      "midi": 68,
      "hit": false,
      "t": 226484.375,
      "d": 757.8125,
      "v": 95
    },
    {
      "midi": 56,
      "hit": false,
      "t": 226500,
      "d": 367.1875,
      "v": 93
    },
    {
      "midi": 61,
      "hit": false,
      "t": 226500,
      "d": 742.1875,
      "v": 97
    },
    {
      "midi": 64,
      "hit": false,
      "t": 226500,
      "d": 742.1875,
      "v": 101
    },
    {
      "midi": 83,
      "hit": false,
      "t": 226726.5625,
      "d": 226.5625,
      "v": 74
    },
    {
      "midi": 56,
      "hit": false,
      "t": 226875,
      "d": 1093.75,
      "v": 97
    },
    {
      "midi": 81,
      "hit": false,
      "t": 227007.8125,
      "d": 476.5625,
      "v": 112
    },
    {
      "midi": 61,
      "hit": false,
      "t": 227250,
      "d": 367.1875,
      "v": 95
    },
    {
      "midi": 68,
      "hit": false,
      "t": 227250,
      "d": 718.75,
      "v": 94
    },
    {
      "midi": 64,
      "hit": false,
      "t": 227250,
      "d": 742.1875,
      "v": 101
    },
    {
      "midi": 76,
      "hit": false,
      "t": 227523.4375,
      "d": 3437.5,
      "v": 88
    },
    {
      "midi": 61,
      "hit": false,
      "t": 227625,
      "d": 742.1875,
      "v": 99
    },
    {
      "midi": 69,
      "hit": false,
      "t": 227968.75,
      "d": 23.4375,
      "v": 94
    },
    {
      "midi": 57,
      "hit": false,
      "t": 227968.75,
      "d": 1125,
      "v": 97
    },
    {
      "midi": 64,
      "hit": false,
      "t": 228000,
      "d": 742.1875,
      "v": 99
    },
    {
      "midi": 69,
      "hit": false,
      "t": 228000,
      "d": 742.1875,
      "v": 101
    },
    {
      "midi": 73,
      "hit": false,
      "t": 228000,
      "d": 1078.125,
      "v": 98
    },
    {
      "midi": 61,
      "hit": false,
      "t": 228375,
      "d": 367.1875,
      "v": 97
    },
    {
      "midi": 61,
      "hit": false,
      "t": 228750,
      "d": 328.125,
      "v": 92
    },
    {
      "midi": 69,
      "hit": false,
      "t": 228750,
      "d": 343.75,
      "v": 92
    },
    {
      "midi": 64,
      "hit": false,
      "t": 228750,
      "d": 742.1875,
      "v": 95
    },
    {
      "midi": 60,
      "hit": false,
      "t": 229078.125,
      "d": 15.625,
      "v": 92
    },
    {
      "midi": 72,
      "hit": false,
      "t": 229078.125,
      "d": 15.625,
      "v": 98
    },
    {
      "midi": 56,
      "hit": false,
      "t": 229093.75,
      "d": 23.4375,
      "v": 97
    },
    {
      "midi": 61,
      "hit": false,
      "t": 229093.75,
      "d": 398.4375,
      "v": 92
    },
    {
      "midi": 68,
      "hit": false,
      "t": 229093.75,
      "d": 1125,
      "v": 92
    },
    {
      "midi": 73,
      "hit": false,
      "t": 229093.75,
      "d": 1523.4375,
      "v": 98
    },
    {
      "midi": 56,
      "hit": false,
      "t": 229125,
      "d": 742.1875,
      "v": 100
    },
    {
      "midi": 61,
      "hit": false,
      "t": 229500,
      "d": 742.1875,
      "v": 96
    },
    {
      "midi": 64,
      "hit": false,
      "t": 229500,
      "d": 742.1875,
      "v": 102
    },
    {
      "midi": 56,
      "hit": false,
      "t": 229875,
      "d": 343.75,
      "v": 99
    },
    {
      "midi": 57,
      "hit": false,
      "t": 230218.75,
      "d": 23.4375,
      "v": 99
    },
    {
      "midi": 69,
      "hit": false,
      "t": 230218.75,
      "d": 23.4375,
      "v": 92
    },
    {
      "midi": 64,
      "hit": false,
      "t": 230250,
      "d": 367.1875,
      "v": 98
    },
    {
      "midi": 67,
      "hit": false,
      "t": 230250,
      "d": 367.1875,
      "v": 95
    },
    {
      "midi": 61,
      "hit": false,
      "t": 230250,
      "d": 710.9375,
      "v": 98
    },
    {
      "midi": 64,
      "hit": false,
      "t": 230625,
      "d": 335.9375,
      "v": 88
    },
    {
      "midi": 67,
      "hit": false,
      "t": 230625,
      "d": 335.9375,
      "v": 96
    },
    {
      "midi": 73,
      "hit": false,
      "t": 230625,
      "d": 335.9375,
      "v": 95
    },
    {
      "midi": 63,
      "hit": false,
      "t": 230960.9375,
      "d": 1.5625,
      "v": 88
    },
    {
      "midi": 57,
      "hit": false,
      "t": 230960.9375,
      "d": 31.25,
      "v": 98
    },
    {
      "midi": 62,
      "hit": false,
      "t": 230960.9375,
      "d": 31.25,
      "v": 88
    },
    {
      "midi": 66,
      "hit": false,
      "t": 230960.9375,
      "d": 31.25,
      "v": 96
    },
    {
      "midi": 69,
      "hit": false,
      "t": 230960.9375,
      "d": 31.25,
      "v": 95
    },
    {
      "midi": 54,
      "hit": false,
      "t": 231000,
      "d": 359.375,
      "v": 97
    },
    {
      "midi": 57,
      "hit": false,
      "t": 231000,
      "d": 734.375,
      "v": 99
    },
    {
      "midi": 62,
      "hit": false,
      "t": 231000,
      "d": 734.375,
      "v": 102
    },
    {
      "midi": 54,
      "hit": false,
      "t": 231375,
      "d": 742.1875,
      "v": 99
    },
    {
      "midi": 57,
      "hit": false,
      "t": 231750,
      "d": 742.1875,
      "v": 95
    },
    {
      "midi": 62,
      "hit": false,
      "t": 231750,
      "d": 742.1875,
      "v": 99
    },
    {
      "midi": 66,
      "hit": false,
      "t": 231750,
      "d": 1492.1875,
      "v": 94
    },
    {
      "midi": 86,
      "hit": false,
      "t": 232039.0625,
      "d": 195.3125,
      "v": 127
    },
    {
      "midi": 54,
      "hit": false,
      "t": 232125,
      "d": 367.1875,
      "v": 102
    },
    {
      "midi": 86,
      "hit": false,
      "t": 232359.375,
      "d": 273.4375,
      "v": 108
    },
    {
      "midi": 54,
      "hit": false,
      "t": 232500,
      "d": 367.1875,
      "v": 99
    },
    {
      "midi": 57,
      "hit": false,
      "t": 232500,
      "d": 742.1875,
      "v": 99
    },
    {
      "midi": 62,
      "hit": false,
      "t": 232500,
      "d": 742.1875,
      "v": 99
    },
    {
      "midi": 85,
      "hit": false,
      "t": 232726.5625,
      "d": 140.625,
      "v": 94
    },
    {
      "midi": 54,
      "hit": false,
      "t": 232875,
      "d": 367.1875,
      "v": 97
    },
    {
      "midi": 86,
      "hit": false,
      "t": 232968.75,
      "d": 156.25,
      "v": 119
    },
    {
      "midi": 85,
      "hit": false,
      "t": 233140.625,
      "d": 101.5625,
      "v": 115
    },
    {
      "midi": 57,
      "hit": false,
      "t": 233250,
      "d": 718.75,
      "v": 98
    },
    {
      "midi": 66,
      "hit": false,
      "t": 233250,
      "d": 718.75,
      "v": 96
    },
    {
      "midi": 62,
      "hit": false,
      "t": 233250,
      "d": 742.1875,
      "v": 102
    },
    {
      "midi": 86,
      "hit": false,
      "t": 233351.5625,
      "d": 265.625,
      "v": 124
    },
    {
      "midi": 54,
      "hit": false,
      "t": 233625,
      "d": 343.75,
      "v": 100
    },
    {
      "midi": 85,
      "hit": false,
      "t": 233679.6875,
      "d": 125,
      "v": 127
    },
    {
      "midi": 85,
      "hit": false,
      "t": 233945.3125,
      "d": 78.125,
      "v": 97
    },
    {
      "midi": 56,
      "hit": false,
      "t": 233968.75,
      "d": 23.4375,
      "v": 100
    },
    {
      "midi": 59,
      "hit": false,
      "t": 233968.75,
      "d": 23.4375,
      "v": 98
    },
    {
      "midi": 68,
      "hit": false,
      "t": 233968.75,
      "d": 23.4375,
      "v": 96
    },
    {
      "midi": 86,
      "hit": false,
      "t": 233992.1875,
      "d": 328.125,
      "v": 102
    },
    {
      "midi": 68,
      "hit": false,
      "t": 234000,
      "d": 367.1875,
      "v": 97
    },
    {
      "midi": 59,
      "hit": false,
      "t": 234000,
      "d": 742.1875,
      "v": 99
    },
    {
      "midi": 62,
      "hit": false,
      "t": 234000,
      "d": 742.1875,
      "v": 102
    },
    {
      "midi": 85,
      "hit": false,
      "t": 234328.125,
      "d": 164.0625,
      "v": 127
    },
    {
      "midi": 56,
      "hit": false,
      "t": 234375,
      "d": 742.1875,
      "v": 99
    },
    {
      "midi": 86,
      "hit": false,
      "t": 234578.125,
      "d": 390.625,
      "v": 127
    },
    {
      "midi": 59,
      "hit": false,
      "t": 234750,
      "d": 742.1875,
      "v": 95
    },
    {
      "midi": 62,
      "hit": false,
      "t": 234750,
      "d": 742.1875,
      "v": 99
    },
    {
      "midi": 68,
      "hit": false,
      "t": 234750,
      "d": 1492.1875,
      "v": 94
    },
    {
      "midi": 86,
      "hit": false,
      "t": 235039.0625,
      "d": 2234.375,
      "v": 124
    },
    {
      "midi": 56,
      "hit": false,
      "t": 235125,
      "d": 367.1875,
      "v": 102
    },
    {
      "midi": 56,
      "hit": false,
      "t": 235500,
      "d": 742.1875,
      "v": 99
    },
    {
      "midi": 59,
      "hit": false,
      "t": 235500,
      "d": 742.1875,
      "v": 99
    },
    {
      "midi": 64,
      "hit": false,
      "t": 235500,
      "d": 742.1875,
      "v": 99
    },
    {
      "midi": 52,
      "hit": false,
      "t": 235875,
      "d": 367.1875,
      "v": 97
    },
    {
      "midi": 59,
      "hit": false,
      "t": 236250,
      "d": 734.375,
      "v": 98
    },
    {
      "midi": 62,
      "hit": false,
      "t": 236250,
      "d": 734.375,
      "v": 102
    },
    {
      "midi": 68,
      "hit": false,
      "t": 236250,
      "d": 734.375,
      "v": 96
    },
    {
      "midi": 56,
      "hit": false,
      "t": 236625,
      "d": 359.375,
      "v": 100
    },
    {
      "midi": 57,
      "hit": false,
      "t": 236984.375,
      "d": 7.8125,
      "v": 100
    },
    {
      "midi": 61,
      "hit": false,
      "t": 236984.375,
      "d": 7.8125,
      "v": 98
    },
    {
      "midi": 64,
      "hit": false,
      "t": 236984.375,
      "d": 7.8125,
      "v": 102
    },
    {
      "midi": 69,
      "hit": false,
      "t": 236984.375,
      "d": 7.8125,
      "v": 96
    },
    {
      "midi": 61,
      "hit": false,
      "t": 237000,
      "d": 742.1875,
      "v": 98
    },
    {
      "midi": 64,
      "hit": false,
      "t": 237000,
      "d": 742.1875,
      "v": 98
    },
    {
      "midi": 69,
      "hit": false,
      "t": 237000,
      "d": 742.1875,
      "v": 95
    },
    {
      "midi": 85,
      "hit": false,
      "t": 237367.1875,
      "d": 320.3125,
      "v": 127
    },
    {
      "midi": 57,
      "hit": false,
      "t": 237375,
      "d": 1070.3125,
      "v": 99
    },
    {
      "midi": 61,
      "hit": false,
      "t": 237750,
      "d": 367.1875,
      "v": 98
    },
    {
      "midi": 69,
      "hit": false,
      "t": 237750,
      "d": 695.3125,
      "v": 95
    },
    {
      "midi": 64,
      "hit": false,
      "t": 237750,
      "d": 742.1875,
      "v": 99
    },
    {
      "midi": 85,
      "hit": false,
      "t": 237828.125,
      "d": 320.3125,
      "v": 127
    },
    {
      "midi": 61,
      "hit": false,
      "t": 238125,
      "d": 367.1875,
      "v": 94
    },
    {
      "midi": 56,
      "hit": false,
      "t": 238445.3125,
      "d": 46.875,
      "v": 99
    },
    {
      "midi": 68,
      "hit": false,
      "t": 238445.3125,
      "d": 46.875,
      "v": 95
    },
    {
      "midi": 64,
      "hit": false,
      "t": 238500,
      "d": 742.1875,
      "v": 98
    },
    {
      "midi": 68,
      "hit": false,
      "t": 238500,
      "d": 742.1875,
      "v": 100
    },
    {
      "midi": 73,
      "hit": false,
      "t": 238500,
      "d": 742.1875,
      "v": 98
    },
    {
      "midi": 83,
      "hit": false,
      "t": 238679.6875,
      "d": 109.375,
      "v": 105
    },
    {
      "midi": 61,
      "hit": false,
      "t": 238875,
      "d": 367.1875,
      "v": 97
    },
    {
      "midi": 85,
      "hit": false,
      "t": 238890.625,
      "d": 218.75,
      "v": 90
    },
    {
      "midi": 83,
      "hit": false,
      "t": 239210.9375,
      "d": 210.9375,
      "v": 105
    },
    {
      "midi": 61,
      "hit": false,
      "t": 239250,
      "d": 742.1875,
      "v": 92
    },
    {
      "midi": 64,
      "hit": false,
      "t": 239250,
      "d": 742.1875,
      "v": 92
    },
    {
      "midi": 68,
      "hit": false,
      "t": 239250,
      "d": 742.1875,
      "v": 94
    },
    {
      "midi": 85,
      "hit": false,
      "t": 239554.6875,
      "d": 148.4375,
      "v": 119
    },
    {
      "midi": 56,
      "hit": false,
      "t": 239625,
      "d": 742.1875,
      "v": 99
    },
    {
      "midi": 83,
      "hit": false,
      "t": 239710.9375,
      "d": 85.9375,
      "v": 92
    },
    {
      "midi": 83,
      "hit": false,
      "t": 239953.125,
      "d": 62.5,
      "v": 63
    },
    {
      "midi": 85,
      "hit": false,
      "t": 239976.5625,
      "d": 578.125,
      "v": 119
    },
    {
      "midi": 61,
      "hit": false,
      "t": 240000,
      "d": 742.1875,
      "v": 96
    },
    {
      "midi": 64,
      "hit": false,
      "t": 240000,
      "d": 742.1875,
      "v": 103
    },
    {
      "midi": 68,
      "hit": false,
      "t": 240000,
      "d": 742.1875,
      "v": 103
    },
    {
      "midi": 56,
      "hit": false,
      "t": 240375,
      "d": 742.1875,
      "v": 98
    },
    {
      "midi": 83,
      "hit": false,
      "t": 240609.375,
      "d": 226.5625,
      "v": 112
    },
    {
      "midi": 68,
      "hit": false,
      "t": 240750,
      "d": 718.75,
      "v": 94
    },
    {
      "midi": 61,
      "hit": false,
      "t": 240750,
      "d": 742.1875,
      "v": 94
    },
    {
      "midi": 64,
      "hit": false,
      "t": 240750,
      "d": 742.1875,
      "v": 99
    },
    {
      "midi": 85,
      "hit": false,
      "t": 240960.9375,
      "d": 101.5625,
      "v": 124
    },
    {
      "midi": 56,
      "hit": false,
      "t": 241125,
      "d": 343.75,
      "v": 101
    },
    {
      "midi": 83,
      "hit": false,
      "t": 241148.4375,
      "d": 140.625,
      "v": 108
    },
    {
      "midi": 85,
      "hit": false,
      "t": 241445.3125,
      "d": 2570.3125,
      "v": 127
    },
    {
      "midi": 67,
      "hit": false,
      "t": 241468.75,
      "d": 23.4375,
      "v": 94
    },
    {
      "midi": 55,
      "hit": false,
      "t": 241468.75,
      "d": 31.25,
      "v": 101
    },
    {
      "midi": 61,
      "hit": false,
      "t": 241500,
      "d": 367.1875,
      "v": 94
    },
    {
      "midi": 57,
      "hit": false,
      "t": 241500,
      "d": 742.1875,
      "v": 101
    },
    {
      "midi": 64,
      "hit": false,
      "t": 241500,
      "d": 742.1875,
      "v": 99
    },
    {
      "midi": 69,
      "hit": false,
      "t": 241500,
      "d": 742.1875,
      "v": 96
    },
    {
      "midi": 61,
      "hit": false,
      "t": 241875,
      "d": 367.1875,
      "v": 94
    },
    {
      "midi": 64,
      "hit": false,
      "t": 242250,
      "d": 726.5625,
      "v": 98
    },
    {
      "midi": 67,
      "hit": false,
      "t": 242250,
      "d": 726.5625,
      "v": 99
    },
    {
      "midi": 73,
      "hit": false,
      "t": 242250,
      "d": 726.5625,
      "v": 99
    },
    {
      "midi": 61,
      "hit": false,
      "t": 242625,
      "d": 351.5625,
      "v": 98
    },
    {
      "midi": 63,
      "hit": false,
      "t": 242976.5625,
      "d": 1.5625,
      "v": 98
    },
    {
      "midi": 57,
      "hit": false,
      "t": 242976.5625,
      "d": 15.625,
      "v": 98
    },
    {
      "midi": 62,
      "hit": false,
      "t": 242976.5625,
      "d": 15.625,
      "v": 98
    },
    {
      "midi": 66,
      "hit": false,
      "t": 242976.5625,
      "d": 15.625,
      "v": 99
    },
    {
      "midi": 69,
      "hit": false,
      "t": 242976.5625,
      "d": 1515.625,
      "v": 99
    },
    {
      "midi": 57,
      "hit": false,
      "t": 243000,
      "d": 742.1875,
      "v": 94
    },
    {
      "midi": 62,
      "hit": false,
      "t": 243000,
      "d": 742.1875,
      "v": 100
    },
    {
      "midi": 66,
      "hit": false,
      "t": 243000,
      "d": 742.1875,
      "v": 97
    },
    {
      "midi": 54,
      "hit": false,
      "t": 243375,
      "d": 742.1875,
      "v": 99
    },
    {
      "midi": 66,
      "hit": false,
      "t": 243750,
      "d": 367.1875,
      "v": 94
    },
    {
      "midi": 57,
      "hit": false,
      "t": 243750,
      "d": 742.1875,
      "v": 97
    },
    {
      "midi": 62,
      "hit": false,
      "t": 243750,
      "d": 742.1875,
      "v": 95
    },
    {
      "midi": 83,
      "hit": false,
      "t": 244109.375,
      "d": 234.375,
      "v": 99
    },
    {
      "midi": 54,
      "hit": false,
      "t": 244125,
      "d": 1828.125,
      "v": 96
    },
    {
      "midi": 83,
      "hit": false,
      "t": 244468.75,
      "d": 179.6875,
      "v": 108
    },
    {
      "midi": 57,
      "hit": false,
      "t": 244500,
      "d": 367.1875,
      "v": 87
    },
    {
      "midi": 62,
      "hit": false,
      "t": 244500,
      "d": 742.1875,
      "v": 87
    },
    {
      "midi": 66,
      "hit": false,
      "t": 244500,
      "d": 742.1875,
      "v": 86
    },
    {
      "midi": 81,
      "hit": false,
      "t": 244656.25,
      "d": 117.1875,
      "v": 97
    },
    {
      "midi": 83,
      "hit": false,
      "t": 244843.75,
      "d": 179.6875,
      "v": 83
    },
    {
      "midi": 57,
      "hit": false,
      "t": 244875,
      "d": 367.1875,
      "v": 96
    },
    {
      "midi": 81,
      "hit": false,
      "t": 245054.6875,
      "d": 101.5625,
      "v": 112
    },
    {
      "midi": 66,
      "hit": false,
      "t": 245250,
      "d": 703.125,
      "v": 100
    },
    {
      "midi": 69,
      "hit": false,
      "t": 245250,
      "d": 703.125,
      "v": 99
    },
    {
      "midi": 62,
      "hit": false,
      "t": 245250,
      "d": 742.1875,
      "v": 97
    },
    {
      "midi": 83,
      "hit": false,
      "t": 245304.6875,
      "d": 312.5,
      "v": 94
    },
    {
      "midi": 81,
      "hit": false,
      "t": 245609.375,
      "d": 125,
      "v": 99
    },
    {
      "midi": 57,
      "hit": false,
      "t": 245625,
      "d": 328.125,
      "v": 97
    },
    {
      "midi": 83,
      "hit": false,
      "t": 245945.3125,
      "d": 375,
      "v": 99
    },
    {
      "midi": 59,
      "hit": false,
      "t": 245953.125,
      "d": 39.0625,
      "v": 97
    },
    {
      "midi": 67,
      "hit": false,
      "t": 245953.125,
      "d": 39.0625,
      "v": 100
    },
    {
      "midi": 55,
      "hit": false,
      "t": 245953.125,
      "d": 414.0625,
      "v": 96
    },
    {
      "midi": 71,
      "hit": false,
      "t": 245953.125,
      "d": 1546.875,
      "v": 99
    },
    {
      "midi": 59,
      "hit": false,
      "t": 246000,
      "d": 742.1875,
      "v": 91
    },
    {
      "midi": 62,
      "hit": false,
      "t": 246000,
      "d": 742.1875,
      "v": 95
    },
    {
      "midi": 67,
      "hit": false,
      "t": 246000,
      "d": 742.1875,
      "v": 93
    },
    {
      "midi": 81,
      "hit": false,
      "t": 246265.625,
      "d": 218.75,
      "v": 108
    },
    {
      "midi": 55,
      "hit": false,
      "t": 246375,
      "d": 367.1875,
      "v": 94
    },
    {
      "midi": 79,
      "hit": false,
      "t": 246492.1875,
      "d": 3515.625,
      "v": 99
    },
    {
      "midi": 67,
      "hit": false,
      "t": 246750,
      "d": 367.1875,
      "v": 96
    },
    {
      "midi": 59,
      "hit": false,
      "t": 246750,
      "d": 742.1875,
      "v": 92
    },
    {
      "midi": 62,
      "hit": false,
      "t": 246750,
      "d": 742.1875,
      "v": 96
    },
    {
      "midi": 55,
      "hit": false,
      "t": 247125,
      "d": 367.1875,
      "v": 96
    },
    {
      "midi": 55,
      "hit": false,
      "t": 247500,
      "d": 742.1875,
      "v": 93
    },
    {
      "midi": 57,
      "hit": false,
      "t": 247500,
      "d": 742.1875,
      "v": 97
    },
    {
      "midi": 62,
      "hit": false,
      "t": 247500,
      "d": 742.1875,
      "v": 96
    },
    {
      "midi": 69,
      "hit": false,
      "t": 247500,
      "d": 742.1875,
      "v": 99
    },
    {
      "midi": 50,
      "hit": false,
      "t": 247875,
      "d": 367.1875,
      "v": 99
    },
    {
      "midi": 55,
      "hit": false,
      "t": 248250,
      "d": 726.5625,
      "v": 97
    },
    {
      "midi": 62,
      "hit": false,
      "t": 248250,
      "d": 726.5625,
      "v": 99
    },
    {
      "midi": 59,
      "hit": false,
      "t": 248250,
      "d": 742.1875,
      "v": 99
    },
    {
      "midi": 50,
      "hit": false,
      "t": 248625,
      "d": 351.5625,
      "v": 99
    },
    {
      "midi": 52,
      "hit": false,
      "t": 248976.5625,
      "d": 1.5625,
      "v": 99
    },
    {
      "midi": 64,
      "hit": false,
      "t": 248976.5625,
      "d": 1.5625,
      "v": 99
    },
    {
      "midi": 50,
      "hit": false,
      "t": 248976.5625,
      "d": 15.625,
      "v": 99
    },
    {
      "midi": 62,
      "hit": false,
      "t": 248976.5625,
      "d": 15.625,
      "v": 99
    },
    {
      "midi": 56,
      "hit": false,
      "t": 248976.5625,
      "d": 390.625,
      "v": 97
    },
    {
      "midi": 59,
      "hit": false,
      "t": 249000,
      "d": 742.1875,
      "v": 95
    },
    {
      "midi": 62,
      "hit": false,
      "t": 249000,
      "d": 742.1875,
      "v": 94
    },
    {
      "midi": 68,
      "hit": false,
      "t": 249000,
      "d": 742.1875,
      "v": 95
    },
    {
      "midi": 56,
      "hit": false,
      "t": 249375,
      "d": 742.1875,
      "v": 94
    },
    {
      "midi": 59,
      "hit": false,
      "t": 249750,
      "d": 742.1875,
      "v": 96
    },
    {
      "midi": 62,
      "hit": false,
      "t": 249750,
      "d": 742.1875,
      "v": 99
    },
    {
      "midi": 68,
      "hit": false,
      "t": 249750,
      "d": 750,
      "v": 95
    },
    {
      "midi": 80,
      "hit": false,
      "t": 249976.5625,
      "d": 460.9375,
      "v": 124
    },
    {
      "midi": 56,
      "hit": false,
      "t": 250125,
      "d": 367.1875,
      "v": 100
    },
    {
      "midi": 80,
      "hit": false,
      "t": 250492.1875,
      "d": 976.5625,
      "v": 92
    },
    {
      "midi": 57,
      "hit": false,
      "t": 250500,
      "d": 367.1875,
      "v": 93
    },
    {
      "midi": 59,
      "hit": false,
      "t": 250500,
      "d": 742.1875,
      "v": 97
    },
    {
      "midi": 62,
      "hit": false,
      "t": 250500,
      "d": 742.1875,
      "v": 101
    },
    {
      "midi": 69,
      "hit": false,
      "t": 250500,
      "d": 742.1875,
      "v": 95
    },
    {
      "midi": 57,
      "hit": false,
      "t": 250875,
      "d": 375,
      "v": 97
    },
    {
      "midi": 59,
      "hit": false,
      "t": 251250,
      "d": 367.1875,
      "v": 95
    },
    {
      "midi": 62,
      "hit": false,
      "t": 251250,
      "d": 742.1875,
      "v": 101
    },
    {
      "midi": 68,
      "hit": false,
      "t": 251250,
      "d": 742.1875,
      "v": 94
    },
    {
      "midi": 56,
      "hit": false,
      "t": 251250,
      "d": 1867.1875,
      "v": 97
    },
    {
      "midi": 76,
      "hit": false,
      "t": 251406.25,
      "d": 546.875,
      "v": 66
    },
    {
      "midi": 59,
      "hit": false,
      "t": 251625,
      "d": 742.1875,
      "v": 99
    },
    {
      "midi": 76,
      "hit": false,
      "t": 251992.1875,
      "d": 3000,
      "v": 77
    },
    {
      "midi": 62,
      "hit": false,
      "t": 252000,
      "d": 742.1875,
      "v": 99
    },
    {
      "midi": 68,
      "hit": false,
      "t": 252000,
      "d": 742.1875,
      "v": 101
    },
    {
      "midi": 71,
      "hit": false,
      "t": 252000,
      "d": 1445.3125,
      "v": 98
    },
    {
      "midi": 59,
      "hit": false,
      "t": 252375,
      "d": 367.1875,
      "v": 97
    },
    {
      "midi": 59,
      "hit": false,
      "t": 252750,
      "d": 695.3125,
      "v": 92
    },
    {
      "midi": 62,
      "hit": false,
      "t": 252750,
      "d": 695.3125,
      "v": 95
    },
    {
      "midi": 68,
      "hit": false,
      "t": 252750,
      "d": 695.3125,
      "v": 92
    },
    {
      "midi": 56,
      "hit": false,
      "t": 253125,
      "d": 320.3125,
      "v": 100
    },
    {
      "midi": 69,
      "hit": false,
      "t": 253500,
      "d": 554.6875,
      "v": 102
    },
    {
      "midi": 71,
      "hit": false,
      "t": 253500,
      "d": 554.6875,
      "v": 102
    },
    {
      "midi": 62,
      "hit": false,
      "t": 253500,
      "d": 742.1875,
      "v": 100
    },
    {
      "midi": 69,
      "hit": false,
      "t": 254062.5,
      "d": 179.6875,
      "v": 80
    },
    {
      "midi": 71,
      "hit": false,
      "t": 254062.5,
      "d": 179.6875,
      "v": 80
    },
    {
      "midi": 74,
      "hit": false,
      "t": 254062.5,
      "d": 179.6875,
      "v": 80
    },
    {
      "midi": 68,
      "hit": false,
      "t": 254250,
      "d": 367.1875,
      "v": 99
    },
    {
      "midi": 71,
      "hit": false,
      "t": 254250,
      "d": 367.1875,
      "v": 103
    },
    {
      "midi": 74,
      "hit": false,
      "t": 254250,
      "d": 367.1875,
      "v": 102
    },
    {
      "midi": 71,
      "hit": false,
      "t": 254625,
      "d": 343.75,
      "v": 93
    },
    {
      "midi": 80,
      "hit": false,
      "t": 254625,
      "d": 343.75,
      "v": 93
    },
    {
      "midi": 74,
      "hit": false,
      "t": 254625,
      "d": 367.1875,
      "v": 93
    },
    {
      "midi": 69,
      "hit": false,
      "t": 254968.75,
      "d": 23.4375,
      "v": 93
    },
    {
      "midi": 78,
      "hit": false,
      "t": 254968.75,
      "d": 23.4375,
      "v": 93
    },
    {
      "midi": 54,
      "hit": false,
      "t": 255000,
      "d": 359.375,
      "v": 97
    },
    {
      "midi": 57,
      "hit": false,
      "t": 255000,
      "d": 734.375,
      "v": 99
    },
    {
      "midi": 62,
      "hit": false,
      "t": 255000,
      "d": 734.375,
      "v": 102
    },
    {
      "midi": 54,
      "hit": false,
      "t": 255375,
      "d": 742.1875,
      "v": 99
    },
    {
      "midi": 57,
      "hit": false,
      "t": 255750,
      "d": 742.1875,
      "v": 95
    },
    {
      "midi": 62,
      "hit": false,
      "t": 255750,
      "d": 742.1875,
      "v": 99
    },
    {
      "midi": 66,
      "hit": false,
      "t": 255750,
      "d": 1492.1875,
      "v": 94
    },
    {
      "midi": 54,
      "hit": false,
      "t": 256125,
      "d": 367.1875,
      "v": 102
    },
    {
      "midi": 54,
      "hit": false,
      "t": 256500,
      "d": 367.1875,
      "v": 99
    },
    {
      "midi": 57,
      "hit": false,
      "t": 256500,
      "d": 742.1875,
      "v": 99
    },
    {
      "midi": 62,
      "hit": false,
      "t": 256500,
      "d": 742.1875,
      "v": 99
    },
    {
      "midi": 78,
      "hit": false,
      "t": 256734.375,
      "d": 226.5625,
      "v": 112
    },
    {
      "midi": 54,
      "hit": false,
      "t": 256875,
      "d": 367.1875,
      "v": 97
    },
    {
      "midi": 78,
      "hit": false,
      "t": 257039.0625,
      "d": 179.6875,
      "v": 105
    },
    {
      "midi": 57,
      "hit": false,
      "t": 257250,
      "d": 726.5625,
      "v": 98
    },
    {
      "midi": 66,
      "hit": false,
      "t": 257250,
      "d": 726.5625,
      "v": 96
    },
    {
      "midi": 62,
      "hit": false,
      "t": 257250,
      "d": 742.1875,
      "v": 102
    },
    {
      "midi": 76,
      "hit": false,
      "t": 257296.875,
      "d": 125,
      "v": 97
    },
    {
      "midi": 78,
      "hit": false,
      "t": 257539.0625,
      "d": 171.875,
      "v": 94
    },
    {
      "midi": 54,
      "hit": false,
      "t": 257625,
      "d": 351.5625,
      "v": 100
    },
    {
      "midi": 76,
      "hit": false,
      "t": 257718.75,
      "d": 140.625,
      "v": 74
    },
    {
      "midi": 56,
      "hit": false,
      "t": 257976.5625,
      "d": 15.625,
      "v": 100
    },
    {
      "midi": 59,
      "hit": false,
      "t": 257976.5625,
      "d": 15.625,
      "v": 98
    },
    {
      "midi": 68,
      "hit": false,
      "t": 257976.5625,
      "d": 15.625,
      "v": 96
    },
    {
      "midi": 78,
      "hit": false,
      "t": 257992.1875,
      "d": 367.1875,
      "v": 127
    },
    {
      "midi": 68,
      "hit": false,
      "t": 258000,
      "d": 367.1875,
      "v": 97
    },
    {
      "midi": 59,
      "hit": false,
      "t": 258000,
      "d": 742.1875,
      "v": 99
    },
    {
      "midi": 62,
      "hit": false,
      "t": 258000,
      "d": 742.1875,
      "v": 102
    },
    {
      "midi": 56,
      "hit": false,
      "t": 258375,
      "d": 742.1875,
      "v": 99
    },
    {
      "midi": 76,
      "hit": false,
      "t": 258500,
      "d": 242.1875,
      "v": 97
    },
    {
      "midi": 59,
      "hit": false,
      "t": 258750,
      "d": 742.1875,
      "v": 95
    },
    {
      "midi": 62,
      "hit": false,
      "t": 258750,
      "d": 742.1875,
      "v": 99
    },
    {
      "midi": 68,
      "hit": false,
      "t": 258750,
      "d": 1492.1875,
      "v": 94
    },
    {
      "midi": 78,
      "hit": false,
      "t": 258882.8125,
      "d": 140.625,
      "v": 127
    },
    {
      "midi": 76,
      "hit": false,
      "t": 259117.1875,
      "d": 109.375,
      "v": 97
    },
    {
      "midi": 56,
      "hit": false,
      "t": 259125,
      "d": 367.1875,
      "v": 102
    },
    {
      "midi": 78,
      "hit": false,
      "t": 259460.9375,
      "d": 1804.6875,
      "v": 105
    },
    {
      "midi": 56,
      "hit": false,
      "t": 259500,
      "d": 742.1875,
      "v": 99
    },
    {
      "midi": 59,
      "hit": false,
      "t": 259500,
      "d": 742.1875,
      "v": 99
    },
    {
      "midi": 64,
      "hit": false,
      "t": 259500,
      "d": 742.1875,
      "v": 99
    },
    {
      "midi": 52,
      "hit": false,
      "t": 259875,
      "d": 367.1875,
      "v": 97
    },
    {
      "midi": 59,
      "hit": false,
      "t": 260250,
      "d": 726.5625,
      "v": 98
    },
    {
      "midi": 62,
      "hit": false,
      "t": 260250,
      "d": 726.5625,
      "v": 102
    },
    {
      "midi": 68,
      "hit": false,
      "t": 260250,
      "d": 726.5625,
      "v": 96
    },
    {
      "midi": 56,
      "hit": false,
      "t": 260625,
      "d": 351.5625,
      "v": 100
    },
    {
      "midi": 57,
      "hit": false,
      "t": 260976.5625,
      "d": 15.625,
      "v": 100
    },
    {
      "midi": 61,
      "hit": false,
      "t": 260976.5625,
      "d": 15.625,
      "v": 98
    },
    {
      "midi": 64,
      "hit": false,
      "t": 260976.5625,
      "d": 15.625,
      "v": 102
    },
    {
      "midi": 69,
      "hit": false,
      "t": 260976.5625,
      "d": 15.625,
      "v": 96
    },
    {
      "midi": 61,
      "hit": false,
      "t": 261000,
      "d": 742.1875,
      "v": 98
    },
    {
      "midi": 64,
      "hit": false,
      "t": 261000,
      "d": 742.1875,
      "v": 98
    },
    {
      "midi": 69,
      "hit": false,
      "t": 261000,
      "d": 742.1875,
      "v": 95
    },
    {
      "midi": 57,
      "hit": false,
      "t": 261375,
      "d": 1062.5,
      "v": 99
    },
    {
      "midi": 61,
      "hit": false,
      "t": 261750,
      "d": 367.1875,
      "v": 98
    },
    {
      "midi": 69,
      "hit": false,
      "t": 261750,
      "d": 687.5,
      "v": 95
    },
    {
      "midi": 64,
      "hit": false,
      "t": 261750,
      "d": 742.1875,
      "v": 99
    },
    {
      "midi": 85,
      "hit": false,
      "t": 262039.0625,
      "d": 328.125,
      "v": 102
    },
    {
      "midi": 61,
      "hit": false,
      "t": 262125,
      "d": 367.1875,
      "v": 94
    },
    {
      "midi": 56,
      "hit": false,
      "t": 262437.5,
      "d": 54.6875,
      "v": 99
    },
    {
      "midi": 68,
      "hit": false,
      "t": 262437.5,
      "d": 54.6875,
      "v": 95
    },
    {
      "midi": 64,
      "hit": false,
      "t": 262500,
      "d": 742.1875,
      "v": 98
    },
    {
      "midi": 68,
      "hit": false,
      "t": 262500,
      "d": 742.1875,
      "v": 100
    },
    {
      "midi": 73,
      "hit": false,
      "t": 262500,
      "d": 742.1875,
      "v": 98
    },
    {
      "midi": 85,
      "hit": false,
      "t": 262523.4375,
      "d": 398.4375,
      "v": 112
    },
    {
      "midi": 61,
      "hit": false,
      "t": 262875,
      "d": 367.1875,
      "v": 97
    },
    {
      "midi": 83,
      "hit": false,
      "t": 262960.9375,
      "d": 351.5625,
      "v": 99
    },
    {
      "midi": 68,
      "hit": false,
      "t": 263250,
      "d": 718.75,
      "v": 94
    },
    {
      "midi": 64,
      "hit": false,
      "t": 263250,
      "d": 742.1875,
      "v": 92
    },
    {
      "midi": 81,
      "hit": false,
      "t": 263414.0625,
      "d": 523.4375,
      "v": 102
    },
    {
      "midi": 56,
      "hit": false,
      "t": 263625,
      "d": 343.75,
      "v": 99
    },
    {
      "midi": 57,
      "hit": false,
      "t": 263968.75,
      "d": 1.5625,
      "v": 99
    },
    {
      "midi": 61,
      "hit": false,
      "t": 263968.75,
      "d": 1.5625,
      "v": 92
    },
    {
      "midi": 69,
      "hit": false,
      "t": 263968.75,
      "d": 23.4375,
      "v": 94
    },
    {
      "midi": 61,
      "hit": false,
      "t": 264000,
      "d": 742.1875,
      "v": 96
    },
    {
      "midi": 64,
      "hit": false,
      "t": 264000,
      "d": 742.1875,
      "v": 103
    },
    {
      "midi": 69,
      "hit": false,
      "t": 264000,
      "d": 742.1875,
      "v": 103
    },
    {
      "midi": 76,
      "hit": false,
      "t": 264039.0625,
      "d": 4515.625,
      "v": 75
    },
    {
      "midi": 57,
      "hit": false,
      "t": 264375,
      "d": 718.75,
      "v": 98
    },
    {
      "midi": 69,
      "hit": false,
      "t": 264750,
      "d": 343.75,
      "v": 94
    },
    {
      "midi": 61,
      "hit": false,
      "t": 264750,
      "d": 742.1875,
      "v": 94
    },
    {
      "midi": 64,
      "hit": false,
      "t": 264750,
      "d": 742.1875,
      "v": 99
    },
    {
      "midi": 56,
      "hit": false,
      "t": 265093.75,
      "d": 23.4375,
      "v": 98
    },
    {
      "midi": 68,
      "hit": false,
      "t": 265093.75,
      "d": 398.4375,
      "v": 94
    },
    {
      "midi": 56,
      "hit": false,
      "t": 265125,
      "d": 1093.75,
      "v": 101
    },
    {
      "midi": 61,
      "hit": false,
      "t": 265500,
      "d": 367.1875,
      "v": 94
    },
    {
      "midi": 68,
      "hit": false,
      "t": 265500,
      "d": 718.75,
      "v": 96
    },
    {
      "midi": 64,
      "hit": false,
      "t": 265500,
      "d": 742.1875,
      "v": 99
    },
    {
      "midi": 61,
      "hit": false,
      "t": 265875,
      "d": 343.75,
      "v": 94
    },
    {
      "midi": 57,
      "hit": false,
      "t": 266218.75,
      "d": 1.5625,
      "v": 101
    },
    {
      "midi": 59,
      "hit": false,
      "t": 266218.75,
      "d": 1.5625,
      "v": 94
    },
    {
      "midi": 69,
      "hit": false,
      "t": 266218.75,
      "d": 1.5625,
      "v": 96
    },
    {
      "midi": 56,
      "hit": false,
      "t": 266218.75,
      "d": 23.4375,
      "v": 101
    },
    {
      "midi": 61,
      "hit": false,
      "t": 266218.75,
      "d": 23.4375,
      "v": 94
    },
    {
      "midi": 68,
      "hit": false,
      "t": 266218.75,
      "d": 23.4375,
      "v": 96
    },
    {
      "midi": 64,
      "hit": false,
      "t": 266250,
      "d": 734.375,
      "v": 98
    },
    {
      "midi": 68,
      "hit": false,
      "t": 266250,
      "d": 734.375,
      "v": 99
    },
    {
      "midi": 73,
      "hit": false,
      "t": 266250,
      "d": 734.375,
      "v": 99
    },
    {
      "midi": 61,
      "hit": false,
      "t": 266625,
      "d": 359.375,
      "v": 98
    },
    {
      "midi": 63,
      "hit": false,
      "t": 266984.375,
      "d": 1.5625,
      "v": 98
    },
    {
      "midi": 57,
      "hit": false,
      "t": 266984.375,
      "d": 7.8125,
      "v": 98
    },
    {
      "midi": 62,
      "hit": false,
      "t": 266984.375,
      "d": 7.8125,
      "v": 98
    },
    {
      "midi": 66,
      "hit": false,
      "t": 266984.375,
      "d": 7.8125,
      "v": 99
    },
    {
      "midi": 69,
      "hit": false,
      "t": 266984.375,
      "d": 1507.8125,
      "v": 99
    },
    {
      "midi": 57,
      "hit": false,
      "t": 267000,
      "d": 742.1875,
      "v": 94
    },
    {
      "midi": 62,
      "hit": false,
      "t": 267000,
      "d": 742.1875,
      "v": 100
    },
    {
      "midi": 66,
      "hit": false,
      "t": 267000,
      "d": 742.1875,
      "v": 97
    },
    {
      "midi": 54,
      "hit": false,
      "t": 267375,
      "d": 742.1875,
      "v": 99
    },
    {
      "midi": 66,
      "hit": false,
      "t": 267750,
      "d": 367.1875,
      "v": 94
    },
    {
      "midi": 57,
      "hit": false,
      "t": 267750,
      "d": 742.1875,
      "v": 97
    },
    {
      "midi": 62,
      "hit": false,
      "t": 267750,
      "d": 742.1875,
      "v": 95
    },
    {
      "midi": 54,
      "hit": false,
      "t": 268125,
      "d": 1875,
      "v": 96
    },
    {
      "midi": 57,
      "hit": false,
      "t": 268500,
      "d": 367.1875,
      "v": 87
    },
    {
      "midi": 62,
      "hit": false,
      "t": 268500,
      "d": 742.1875,
      "v": 87
    },
    {
      "midi": 66,
      "hit": false,
      "t": 268500,
      "d": 742.1875,
      "v": 86
    },
    {
      "midi": 78,
      "hit": false,
      "t": 268617.1875,
      "d": 187.5,
      "v": 127
    },
    {
      "midi": 57,
      "hit": false,
      "t": 268875,
      "d": 367.1875,
      "v": 96
    },
    {
      "midi": 78,
      "hit": false,
      "t": 268906.25,
      "d": 218.75,
      "v": 108
    },
    {
      "midi": 76,
      "hit": false,
      "t": 269210.9375,
      "d": 132.8125,
      "v": 92
    },
    {
      "midi": 62,
      "hit": false,
      "t": 269250,
      "d": 742.1875,
      "v": 97
    },
    {
      "midi": 66,
      "hit": false,
      "t": 269250,
      "d": 742.1875,
      "v": 100
    },
    {
      "midi": 69,
      "hit": false,
      "t": 269250,
      "d": 750,
      "v": 99
    },
    {
      "midi": 78,
      "hit": false,
      "t": 269437.5,
      "d": 117.1875,
      "v": 90
    },
    {
      "midi": 76,
      "hit": false,
      "t": 269609.375,
      "d": 93.75,
      "v": 86
    },
    {
      "midi": 57,
      "hit": false,
      "t": 269625,
      "d": 367.1875,
      "v": 97
    },
    {
      "midi": 76,
      "hit": false,
      "t": 269835.9375,
      "d": 70.3125,
      "v": 72
    },
    {
      "midi": 78,
      "hit": false,
      "t": 269882.8125,
      "d": 562.5,
      "v": 88
    },
    {
      "midi": 57,
      "hit": false,
      "t": 270000,
      "d": 1.5625,
      "v": 91
    },
    {
      "midi": 66,
      "hit": false,
      "t": 270000,
      "d": 1.5625,
      "v": 93
    },
    {
      "midi": 56,
      "hit": false,
      "t": 270000,
      "d": 367.1875,
      "v": 96
    },
    {
      "midi": 59,
      "hit": false,
      "t": 270000,
      "d": 742.1875,
      "v": 91
    },
    {
      "midi": 62,
      "hit": false,
      "t": 270000,
      "d": 742.1875,
      "v": 95
    },
    {
      "midi": 68,
      "hit": false,
      "t": 270000,
      "d": 742.1875,
      "v": 93
    },
    {
      "midi": 71,
      "hit": false,
      "t": 270000,
      "d": 2242.1875,
      "v": 99
    },
    {
      "midi": 56,
      "hit": false,
      "t": 270375,
      "d": 367.1875,
      "v": 94
    },
    {
      "midi": 76,
      "hit": false,
      "t": 270453.125,
      "d": 343.75,
      "v": 67
    },
    {
      "midi": 68,
      "hit": false,
      "t": 270750,
      "d": 367.1875,
      "v": 96
    },
    {
      "midi": 59,
      "hit": false,
      "t": 270750,
      "d": 742.1875,
      "v": 92
    },
    {
      "midi": 62,
      "hit": false,
      "t": 270750,
      "d": 742.1875,
      "v": 96
    },
    {
      "midi": 78,
      "hit": false,
      "t": 270867.1875,
      "d": 125,
      "v": 97
    },
    {
      "midi": 76,
      "hit": false,
      "t": 271054.6875,
      "d": 85.9375,
      "v": 86
    },
    {
      "midi": 56,
      "hit": false,
      "t": 271125,
      "d": 367.1875,
      "v": 96
    },
    {
      "midi": 78,
      "hit": false,
      "t": 271281.25,
      "d": 2718.75,
      "v": 92
    },
    {
      "midi": 56,
      "hit": false,
      "t": 271500,
      "d": 742.1875,
      "v": 93
    },
    {
      "midi": 59,
      "hit": false,
      "t": 271500,
      "d": 742.1875,
      "v": 97
    },
    {
      "midi": 64,
      "hit": false,
      "t": 271500,
      "d": 742.1875,
      "v": 96
    },
    {
      "midi": 52,
      "hit": false,
      "t": 271875,
      "d": 367.1875,
      "v": 99
    },
    {
      "midi": 56,
      "hit": false,
      "t": 272250,
      "d": 718.75,
      "v": 97
    },
    {
      "midi": 59,
      "hit": false,
      "t": 272250,
      "d": 718.75,
      "v": 99
    },
    {
      "midi": 62,
      "hit": false,
      "t": 272250,
      "d": 718.75,
      "v": 99
    },
    {
      "midi": 50,
      "hit": false,
      "t": 272625,
      "d": 343.75,
      "v": 99
    },
    {
      "midi": 52,
      "hit": false,
      "t": 272968.75,
      "d": 23.4375,
      "v": 99
    },
    {
      "midi": 61,
      "hit": false,
      "t": 272968.75,
      "d": 23.4375,
      "v": 99
    },
    {
      "midi": 64,
      "hit": false,
      "t": 272968.75,
      "d": 23.4375,
      "v": 99
    },
    {
      "midi": 57,
      "hit": false,
      "t": 272968.75,
      "d": 398.4375,
      "v": 97
    },
    {
      "midi": 61,
      "hit": false,
      "t": 273000,
      "d": 742.1875,
      "v": 95
    },
    {
      "midi": 64,
      "hit": false,
      "t": 273000,
      "d": 742.1875,
      "v": 94
    },
    {
      "midi": 69,
      "hit": false,
      "t": 273000,
      "d": 742.1875,
      "v": 95
    },
    {
      "midi": 57,
      "hit": false,
      "t": 273375,
      "d": 742.1875,
      "v": 94
    },
    {
      "midi": 61,
      "hit": false,
      "t": 273750,
      "d": 726.5625,
      "v": 96
    },
    {
      "midi": 69,
      "hit": false,
      "t": 273750,
      "d": 734.375,
      "v": 95
    },
    {
      "midi": 64,
      "hit": false,
      "t": 273750,
      "d": 742.1875,
      "v": 99
    },
    {
      "midi": 76,
      "hit": false,
      "t": 273992.1875,
      "d": 750,
      "v": 90
    },
    {
      "midi": 57,
      "hit": false,
      "t": 274476.5625,
      "d": 7.8125,
      "v": 96
    },
    {
      "midi": 56,
      "hit": false,
      "t": 274484.375,
      "d": 7.8125,
      "v": 100
    },
    {
      "midi": 61,
      "hit": false,
      "t": 274484.375,
      "d": 7.8125,
      "v": 96
    },
    {
      "midi": 68,
      "hit": false,
      "t": 274484.375,
      "d": 757.8125,
      "v": 95
    },
    {
      "midi": 56,
      "hit": false,
      "t": 274500,
      "d": 367.1875,
      "v": 93
    },
    {
      "midi": 61,
      "hit": false,
      "t": 274500,
      "d": 742.1875,
      "v": 97
    },
    {
      "midi": 64,
      "hit": false,
      "t": 274500,
      "d": 742.1875,
      "v": 101
    },
    {
      "midi": 85,
      "hit": false,
      "t": 274734.375,
      "d": 367.1875,
      "v": 108
    },
    {
      "midi": 56,
      "hit": false,
      "t": 274875,
      "d": 1117.1875,
      "v": 97
    },
    {
      "midi": 83,
      "hit": false,
      "t": 275109.375,
      "d": 320.3125,
      "v": 75
    },
    {
      "midi": 61,
      "hit": false,
      "t": 275250,
      "d": 367.1875,
      "v": 95
    },
    {
      "midi": 64,
      "hit": false,
      "t": 275250,
      "d": 742.1875,
      "v": 101
    },
    {
      "midi": 68,
      "hit": false,
      "t": 275250,
      "d": 742.1875,
      "v": 94
    },
    {
      "midi": 81,
      "hit": false,
      "t": 275437.5,
      "d": 414.0625,
      "v": 92
    },
    {
      "midi": 61,
      "hit": false,
      "t": 275625,
      "d": 742.1875,
      "v": 99
    },
    {
      "midi": 76,
      "hit": false,
      "t": 275851.5625,
      "d": 4007.8125,
      "v": 84
    },
    {
      "midi": 57,
      "hit": false,
      "t": 275992.1875,
      "d": 1117.1875,
      "v": 97
    },
    {
      "midi": 64,
      "hit": false,
      "t": 276000,
      "d": 742.1875,
      "v": 99
    },
    {
      "midi": 69,
      "hit": false,
      "t": 276000,
      "d": 742.1875,
      "v": 101
    },
    {
      "midi": 73,
      "hit": false,
      "t": 276000,
      "d": 2617.1875,
      "v": 98
    },
    {
      "midi": 61,
      "hit": false,
      "t": 276375,
      "d": 367.1875,
      "v": 97
    },
    {
      "midi": 69,
      "hit": false,
      "t": 276750,
      "d": 359.375,
      "v": 92
    },
    {
      "midi": 61,
      "hit": false,
      "t": 276750,
      "d": 742.1875,
      "v": 92
    },
    {
      "midi": 64,
      "hit": false,
      "t": 276750,
      "d": 742.1875,
      "v": 95
    },
    {
      "midi": 56,
      "hit": false,
      "t": 277109.375,
      "d": 7.8125,
      "v": 97
    },
    {
      "midi": 68,
      "hit": false,
      "t": 277109.375,
      "d": 1117.1875,
      "v": 92
    },
    {
      "midi": 56,
      "hit": false,
      "t": 277125,
      "d": 742.1875,
      "v": 100
    },
    {
      "midi": 61,
      "hit": false,
      "t": 277500,
      "d": 742.1875,
      "v": 96
    },
    {
      "midi": 64,
      "hit": false,
      "t": 277500,
      "d": 742.1875,
      "v": 102
    },
    {
      "midi": 56,
      "hit": false,
      "t": 277875,
      "d": 351.5625,
      "v": 99
    },
    {
      "midi": 57,
      "hit": false,
      "t": 278226.5625,
      "d": 15.625,
      "v": 99
    },
    {
      "midi": 69,
      "hit": false,
      "t": 278226.5625,
      "d": 15.625,
      "v": 92
    },
    {
      "midi": 64,
      "hit": false,
      "t": 278250,
      "d": 367.1875,
      "v": 98
    },
    {
      "midi": 67,
      "hit": false,
      "t": 278250,
      "d": 367.1875,
      "v": 95
    },
    {
      "midi": 61,
      "hit": false,
      "t": 278250,
      "d": 726.5625,
      "v": 98
    },
    {
      "midi": 64,
      "hit": false,
      "t": 278625,
      "d": 351.5625,
      "v": 88
    },
    {
      "midi": 67,
      "hit": false,
      "t": 278625,
      "d": 351.5625,
      "v": 96
    },
    {
      "midi": 73,
      "hit": false,
      "t": 278625,
      "d": 351.5625,
      "v": 95
    },
    {
      "midi": 57,
      "hit": false,
      "t": 278976.5625,
      "d": 15.625,
      "v": 98
    },
    {
      "midi": 62,
      "hit": false,
      "t": 278976.5625,
      "d": 15.625,
      "v": 88
    },
    {
      "midi": 66,
      "hit": false,
      "t": 278976.5625,
      "d": 15.625,
      "v": 96
    },
    {
      "midi": 69,
      "hit": false,
      "t": 278976.5625,
      "d": 15.625,
      "v": 95
    },
    {
      "midi": 54,
      "hit": false,
      "t": 279000,
      "d": 359.375,
      "v": 97
    },
    {
      "midi": 57,
      "hit": false,
      "t": 279000,
      "d": 734.375,
      "v": 99
    },
    {
      "midi": 62,
      "hit": false,
      "t": 279000,
      "d": 734.375,
      "v": 102
    },
    {
      "midi": 54,
      "hit": false,
      "t": 279375,
      "d": 742.1875,
      "v": 99
    },
    {
      "midi": 57,
      "hit": false,
      "t": 279750,
      "d": 742.1875,
      "v": 95
    },
    {
      "midi": 62,
      "hit": false,
      "t": 279750,
      "d": 742.1875,
      "v": 99
    },
    {
      "midi": 66,
      "hit": false,
      "t": 279750,
      "d": 1492.1875,
      "v": 94
    },
    {
      "midi": 86,
      "hit": false,
      "t": 280062.5,
      "d": 265.625,
      "v": 119
    },
    {
      "midi": 54,
      "hit": false,
      "t": 280125,
      "d": 367.1875,
      "v": 102
    },
    {
      "midi": 86,
      "hit": false,
      "t": 280421.875,
      "d": 367.1875,
      "v": 127
    },
    {
      "midi": 54,
      "hit": false,
      "t": 280500,
      "d": 367.1875,
      "v": 99
    },
    {
      "midi": 57,
      "hit": false,
      "t": 280500,
      "d": 742.1875,
      "v": 99
    },
    {
      "midi": 62,
      "hit": false,
      "t": 280500,
      "d": 742.1875,
      "v": 99
    },
    {
      "midi": 85,
      "hit": false,
      "t": 280804.6875,
      "d": 140.625,
      "v": 115
    },
    {
      "midi": 54,
      "hit": false,
      "t": 280875,
      "d": 367.1875,
      "v": 97
    },
    {
      "midi": 86,
      "hit": false,
      "t": 281031.25,
      "d": 218.75,
      "v": 99
    },
    {
      "midi": 85,
      "hit": false,
      "t": 281226.5625,
      "d": 109.375,
      "v": 115
    },
    {
      "midi": 57,
      "hit": false,
      "t": 281250,
      "d": 742.1875,
      "v": 98
    },
    {
      "midi": 62,
      "hit": false,
      "t": 281250,
      "d": 742.1875,
      "v": 102
    },
    {
      "midi": 66,
      "hit": false,
      "t": 281250,
      "d": 742.1875,
      "v": 96
    },
    {
      "midi": 86,
      "hit": false,
      "t": 281429.6875,
      "d": 281.25,
      "v": 119
    },
    {
      "midi": 54,
      "hit": false,
      "t": 281625,
      "d": 367.1875,
      "v": 100
    },
    {
      "midi": 85,
      "hit": false,
      "t": 281718.75,
      "d": 117.1875,
      "v": 119
    },
    {
      "midi": 85,
      "hit": false,
      "t": 281953.125,
      "d": 85.9375,
      "v": 84
    },
    {
      "midi": 86,
      "hit": false,
      "t": 281992.1875,
      "d": 398.4375,
      "v": 119
    },
    {
      "midi": 57,
      "hit": false,
      "t": 282000,
      "d": 54.6875,
      "v": 99
    },
    {
      "midi": 66,
      "hit": false,
      "t": 282000,
      "d": 54.6875,
      "v": 97
    },
    {
      "midi": 60,
      "hit": false,
      "t": 282054.6875,
      "d": 1.5625,
      "v": 99
    },
    {
      "midi": 62,
      "hit": false,
      "t": 282054.6875,
      "d": 1.5625,
      "v": 102
    },
    {
      "midi": 63,
      "hit": false,
      "t": 282054.6875,
      "d": 1.5625,
      "v": 102
    },
    {
      "midi": 68,
      "hit": false,
      "t": 282054.6875,
      "d": 312.5,
      "v": 97
    },
    {
      "midi": 59,
      "hit": false,
      "t": 282054.6875,
      "d": 687.5,
      "v": 99
    },
    {
      "midi": 85,
      "hit": false,
      "t": 282359.375,
      "d": 101.5625,
      "v": 119
    },
    {
      "midi": 56,
      "hit": false,
      "t": 282375,
      "d": 742.1875,
      "v": 99
    },
    {
      "midi": 86,
      "hit": false,
      "t": 282570.3125,
      "d": 351.5625,
      "v": 127
    },
    {
      "midi": 59,
      "hit": false,
      "t": 282750,
      "d": 742.1875,
      "v": 95
    },
    {
      "midi": 62,
      "hit": false,
      "t": 282750,
      "d": 742.1875,
      "v": 99
    },
    {
      "midi": 68,
      "hit": false,
      "t": 282750,
      "d": 1492.1875,
      "v": 94
    },
    {
      "midi": 86,
      "hit": false,
      "t": 282984.375,
      "d": 2640.625,
      "v": 124
    },
    {
      "midi": 56,
      "hit": false,
      "t": 283125,
      "d": 367.1875,
      "v": 102
    },
    {
      "midi": 56,
      "hit": false,
      "t": 283500,
      "d": 742.1875,
      "v": 99
    },
    {
      "midi": 59,
      "hit": false,
      "t": 283500,
      "d": 742.1875,
      "v": 99
    },
    {
      "midi": 64,
      "hit": false,
      "t": 283500,
      "d": 742.1875,
      "v": 99
    },
    {
      "midi": 52,
      "hit": false,
      "t": 283875,
      "d": 367.1875,
      "v": 97
    },
    {
      "midi": 59,
      "hit": false,
      "t": 284250,
      "d": 718.75,
      "v": 98
    },
    {
      "midi": 62,
      "hit": false,
      "t": 284250,
      "d": 718.75,
      "v": 102
    },
    {
      "midi": 68,
      "hit": false,
      "t": 284250,
      "d": 718.75,
      "v": 96
    },
    {
      "midi": 56,
      "hit": false,
      "t": 284625,
      "d": 343.75,
      "v": 100
    },
    {
      "midi": 57,
      "hit": false,
      "t": 284968.75,
      "d": 23.4375,
      "v": 100
    },
    {
      "midi": 61,
      "hit": false,
      "t": 284968.75,
      "d": 23.4375,
      "v": 98
    },
    {
      "midi": 64,
      "hit": false,
      "t": 284968.75,
      "d": 23.4375,
      "v": 102
    },
    {
      "midi": 69,
      "hit": false,
      "t": 284968.75,
      "d": 23.4375,
      "v": 96
    },
    {
      "midi": 61,
      "hit": false,
      "t": 285000,
      "d": 742.1875,
      "v": 98
    },
    {
      "midi": 64,
      "hit": false,
      "t": 285000,
      "d": 742.1875,
      "v": 98
    },
    {
      "midi": 69,
      "hit": false,
      "t": 285000,
      "d": 742.1875,
      "v": 95
    },
    {
      "midi": 85,
      "hit": false,
      "t": 285710.9375,
      "d": 296.875,
      "v": 127
    },
    {
      "midi": 61,
      "hit": false,
      "t": 285750,
      "d": 367.1875,
      "v": 98
    },
    {
      "midi": 69,
      "hit": false,
      "t": 285750,
      "d": 703.125,
      "v": 95
    },
    {
      "midi": 64,
      "hit": false,
      "t": 285750,
      "d": 742.1875,
      "v": 99
    },
    {
      "midi": 85,
      "hit": false,
      "t": 286093.75,
      "d": 171.875,
      "v": 127
    },
    {
      "midi": 61,
      "hit": false,
      "t": 286125,
      "d": 320.3125,
      "v": 94
    },
    {
      "midi": 83,
      "hit": false,
      "t": 286320.3125,
      "d": 117.1875,
      "v": 108
    },
    {
      "midi": 57,
      "hit": false,
      "t": 286445.3125,
      "d": 7.8125,
      "v": 94
    },
    {
      "midi": 56,
      "hit": false,
      "t": 286453.125,
      "d": 39.0625,
      "v": 99
    },
    {
      "midi": 61,
      "hit": false,
      "t": 286453.125,
      "d": 39.0625,
      "v": 94
    },
    {
      "midi": 68,
      "hit": false,
      "t": 286453.125,
      "d": 39.0625,
      "v": 95
    },
    {
      "midi": 64,
      "hit": false,
      "t": 286500,
      "d": 742.1875,
      "v": 98
    },
    {
      "midi": 68,
      "hit": false,
      "t": 286500,
      "d": 742.1875,
      "v": 100
    },
    {
      "midi": 73,
      "hit": false,
      "t": 286500,
      "d": 742.1875,
      "v": 98
    },
    {
      "midi": 85,
      "hit": false,
      "t": 286562.5,
      "d": 820.3125,
      "v": 124
    },
    {
      "midi": 61,
      "hit": false,
      "t": 286875,
      "d": 367.1875,
      "v": 97
    },
    {
      "midi": 68,
      "hit": false,
      "t": 287250,
      "d": 718.75,
      "v": 94
    },
    {
      "midi": 61,
      "hit": false,
      "t": 287250,
      "d": 742.1875,
      "v": 92
    },
    {
      "midi": 64,
      "hit": false,
      "t": 287250,
      "d": 742.1875,
      "v": 92
    },
    {
      "midi": 83,
      "hit": false,
      "t": 287492.1875,
      "d": 195.3125,
      "v": 105
    },
    {
      "midi": 56,
      "hit": false,
      "t": 287625,
      "d": 343.75,
      "v": 99
    },
    {
      "midi": 83,
      "hit": false,
      "t": 287960.9375,
      "d": 62.5,
      "v": 102
    },
    {
      "midi": 69,
      "hit": false,
      "t": 287968.75,
      "d": 23.4375,
      "v": 94
    },
    {
      "midi": 57,
      "hit": false,
      "t": 287968.75,
      "d": 398.4375,
      "v": 99
    },
    {
      "midi": 85,
      "hit": false,
      "t": 287992.1875,
      "d": 484.375,
      "v": 73
    },
    {
      "midi": 61,
      "hit": false,
      "t": 288000,
      "d": 742.1875,
      "v": 96
    },
    {
      "midi": 64,
      "hit": false,
      "t": 288000,
      "d": 742.1875,
      "v": 103
    },
    {
      "midi": 69,
      "hit": false,
      "t": 288000,
      "d": 742.1875,
      "v": 103
    },
    {
      "midi": 57,
      "hit": false,
      "t": 288375,
      "d": 742.1875,
      "v": 98
    },
    {
      "midi": 83,
      "hit": false,
      "t": 288507.8125,
      "d": 218.75,
      "v": 102
    },
    {
      "midi": 64,
      "hit": false,
      "t": 288750,
      "d": 695.3125,
      "v": 99
    },
    {
      "midi": 69,
      "hit": false,
      "t": 288750,
      "d": 695.3125,
      "v": 94
    },
    {
      "midi": 61,
      "hit": false,
      "t": 288750,
      "d": 742.1875,
      "v": 94
    },
    {
      "midi": 85,
      "hit": false,
      "t": 288867.1875,
      "d": 132.8125,
      "v": 119
    },
    {
      "midi": 83,
      "hit": false,
      "t": 289054.6875,
      "d": 125,
      "v": 115
    },
    {
      "midi": 57,
      "hit": false,
      "t": 289125,
      "d": 320.3125,
      "v": 101
    },
    {
      "midi": 85,
      "hit": false,
      "t": 289296.875,
      "d": 2742.1875,
      "v": 127
    },
    {
      "midi": 56,
      "hit": false,
      "t": 289445.3125,
      "d": 7.8125,
      "v": 101
    },
    {
      "midi": 65,
      "hit": false,
      "t": 289445.3125,
      "d": 7.8125,
      "v": 99
    },
    {
      "midi": 68,
      "hit": false,
      "t": 289445.3125,
      "d": 7.8125,
      "v": 94
    },
    {
      "midi": 64,
      "hit": false,
      "t": 289453.125,
      "d": 39.0625,
      "v": 99
    },
    {
      "midi": 67,
      "hit": false,
      "t": 289453.125,
      "d": 39.0625,
      "v": 94
    },
    {
      "midi": 55,
      "hit": false,
      "t": 289453.125,
      "d": 46.875,
      "v": 101
    },
    {
      "midi": 61,
      "hit": false,
      "t": 289500,
      "d": 367.1875,
      "v": 94
    },
    {
      "midi": 57,
      "hit": false,
      "t": 289500,
      "d": 742.1875,
      "v": 101
    },
    {
      "midi": 64,
      "hit": false,
      "t": 289500,
      "d": 742.1875,
      "v": 99
    },
    {
      "midi": 69,
      "hit": false,
      "t": 289500,
      "d": 742.1875,
      "v": 96
    },
    {
      "midi": 61,
      "hit": false,
      "t": 289875,
      "d": 367.1875,
      "v": 94
    },
    {
      "midi": 64,
      "hit": false,
      "t": 290250,
      "d": 742.1875,
      "v": 98
    },
    {
      "midi": 67,
      "hit": false,
      "t": 290250,
      "d": 742.1875,
      "v": 99
    },
    {
      "midi": 73,
      "hit": false,
      "t": 290250,
      "d": 750,
      "v": 99
    },
    {
      "midi": 61,
      "hit": false,
      "t": 290625,
      "d": 367.1875,
      "v": 98
    },
    {
      "midi": 61,
      "hit": false,
      "t": 291000,
      "d": 1.5625,
      "v": 94
    },
    {
      "midi": 63,
      "hit": false,
      "t": 291000,
      "d": 1.5625,
      "v": 100
    },
    {
      "midi": 64,
      "hit": false,
      "t": 291000,
      "d": 1.5625,
      "v": 100
    },
    {
      "midi": 66,
      "hit": false,
      "t": 291000,
      "d": 1.5625,
      "v": 100
    },
    {
      "midi": 67,
      "hit": false,
      "t": 291000,
      "d": 1.5625,
      "v": 97
    },
    {
      "midi": 69,
      "hit": false,
      "t": 291000,
      "d": 1.5625,
      "v": 99
    },
    {
      "midi": 57,
      "hit": false,
      "t": 291000,
      "d": 742.1875,
      "v": 94
    },
    {
      "midi": 62,
      "hit": false,
      "t": 291000,
      "d": 742.1875,
      "v": 100
    },
    {
      "midi": 54,
      "hit": false,
      "t": 291375,
      "d": 742.1875,
      "v": 99
    },
    {
      "midi": 66,
      "hit": false,
      "t": 291750,
      "d": 367.1875,
      "v": 94
    },
    {
      "midi": 57,
      "hit": false,
      "t": 291750,
      "d": 742.1875,
      "v": 97
    },
    {
      "midi": 62,
      "hit": false,
      "t": 291750,
      "d": 742.1875,
      "v": 95
    },
    {
      "midi": 83,
      "hit": false,
      "t": 292093.75,
      "d": 210.9375,
      "v": 119
    },
    {
      "midi": 54,
      "hit": false,
      "t": 292125,
      "d": 1867.1875,
      "v": 96
    },
    {
      "midi": 83,
      "hit": false,
      "t": 292406.25,
      "d": 218.75,
      "v": 124
    },
    {
      "midi": 57,
      "hit": false,
      "t": 292500,
      "d": 367.1875,
      "v": 87
    },
    {
      "midi": 62,
      "hit": false,
      "t": 292500,
      "d": 742.1875,
      "v": 87
    },
    {
      "midi": 66,
      "hit": false,
      "t": 292500,
      "d": 742.1875,
      "v": 86
    },
    {
      "midi": 81,
      "hit": false,
      "t": 292632.8125,
      "d": 109.375,
      "v": 105
    },
    {
      "midi": 83,
      "hit": false,
      "t": 292812.5,
      "d": 281.25,
      "v": 92
    },
    {
      "midi": 57,
      "hit": false,
      "t": 292875,
      "d": 367.1875,
      "v": 96
    },
    {
      "midi": 81,
      "hit": false,
      "t": 293078.125,
      "d": 164.0625,
      "v": 83
    },
    {
      "midi": 62,
      "hit": false,
      "t": 293250,
      "d": 742.1875,
      "v": 97
    },
    {
      "midi": 66,
      "hit": false,
      "t": 293250,
      "d": 742.1875,
      "v": 100
    },
    {
      "midi": 69,
      "hit": false,
      "t": 293250,
      "d": 742.1875,
      "v": 99
    },
    {
      "midi": 83,
      "hit": false,
      "t": 293335.9375,
      "d": 281.25,
      "v": 90
    },
    {
      "midi": 81,
      "hit": false,
      "t": 293585.9375,
      "d": 203.125,
      "v": 90
    },
    {
      "midi": 57,
      "hit": false,
      "t": 293625,
      "d": 367.1875,
      "v": 97
    },
    {
      "midi": 83,
      "hit": false,
      "t": 293812.5,
      "d": 312.5,
      "v": 94
    },
    {
      "midi": 55,
      "hit": false,
      "t": 293992.1875,
      "d": 375,
      "v": 96
    },
    {
      "midi": 71,
      "hit": false,
      "t": 293992.1875,
      "d": 1507.8125,
      "v": 99
    },
    {
      "midi": 59,
      "hit": false,
      "t": 294000,
      "d": 742.1875,
      "v": 91
    },
    {
      "midi": 62,
      "hit": false,
      "t": 294000,
      "d": 742.1875,
      "v": 95
    },
    {
      "midi": 67,
      "hit": false,
      "t": 294000,
      "d": 742.1875,
      "v": 93
    },
    {
      "midi": 81,
      "hit": false,
      "t": 294093.75,
      "d": 343.75,
      "v": 68
    },
    {
      "midi": 55,
      "hit": false,
      "t": 294375,
      "d": 367.1875,
      "v": 94
    },
    {
      "midi": 79,
      "hit": false,
      "t": 294414.0625,
      "d": 3539.0625,
      "v": 84
    },
    {
      "midi": 67,
      "hit": false,
      "t": 294750,
      "d": 367.1875,
      "v": 96
    },
    {
      "midi": 59,
      "hit": false,
      "t": 294750,
      "d": 742.1875,
      "v": 92
    },
    {
      "midi": 62,
      "hit": false,
      "t": 294750,
      "d": 742.1875,
      "v": 96
    },
    {
      "midi": 55,
      "hit": false,
      "t": 295125,
      "d": 367.1875,
      "v": 96
    },
    {
      "midi": 55,
      "hit": false,
      "t": 295500,
      "d": 742.1875,
      "v": 93
    },
    {
      "midi": 57,
      "hit": false,
      "t": 295500,
      "d": 742.1875,
      "v": 97
    },
    {
      "midi": 62,
      "hit": false,
      "t": 295500,
      "d": 742.1875,
      "v": 96
    },
    {
      "midi": 69,
      "hit": false,
      "t": 295500,
      "d": 742.1875,
      "v": 99
    },
    {
      "midi": 50,
      "hit": false,
      "t": 295875,
      "d": 367.1875,
      "v": 99
    },
    {
      "midi": 55,
      "hit": false,
      "t": 296250,
      "d": 703.125,
      "v": 97
    },
    {
      "midi": 62,
      "hit": false,
      "t": 296250,
      "d": 703.125,
      "v": 99
    },
    {
      "midi": 59,
      "hit": false,
      "t": 296250,
      "d": 742.1875,
      "v": 99
    },
    {
      "midi": 50,
      "hit": false,
      "t": 296625,
      "d": 328.125,
      "v": 99
    },
    {
      "midi": 52,
      "hit": false,
      "t": 296953.125,
      "d": 1.5625,
      "v": 99
    },
    {
      "midi": 64,
      "hit": false,
      "t": 296953.125,
      "d": 1.5625,
      "v": 99
    },
    {
      "midi": 50,
      "hit": false,
      "t": 296953.125,
      "d": 39.0625,
      "v": 99
    },
    {
      "midi": 62,
      "hit": false,
      "t": 296953.125,
      "d": 39.0625,
      "v": 99
    },
    {
      "midi": 56,
      "hit": false,
      "t": 296953.125,
      "d": 414.0625,
      "v": 97
    },
    {
      "midi": 59,
      "hit": false,
      "t": 297000,
      "d": 742.1875,
      "v": 95
    },
    {
      "midi": 62,
      "hit": false,
      "t": 297000,
      "d": 742.1875,
      "v": 94
    },
    {
      "midi": 68,
      "hit": false,
      "t": 297000,
      "d": 742.1875,
      "v": 95
    },
    {
      "midi": 56,
      "hit": false,
      "t": 297375,
      "d": 742.1875,
      "v": 94
    },
    {
      "midi": 59,
      "hit": false,
      "t": 297750,
      "d": 742.1875,
      "v": 96
    },
    {
      "midi": 62,
      "hit": false,
      "t": 297750,
      "d": 742.1875,
      "v": 99
    },
    {
      "midi": 68,
      "hit": false,
      "t": 297750,
      "d": 750,
      "v": 95
    },
    {
      "midi": 80,
      "hit": false,
      "t": 298046.875,
      "d": 406.25,
      "v": 119
    },
    {
      "midi": 56,
      "hit": false,
      "t": 298125,
      "d": 367.1875,
      "v": 100
    },
    {
      "midi": 57,
      "hit": false,
      "t": 298500,
      "d": 367.1875,
      "v": 93
    },
    {
      "midi": 59,
      "hit": false,
      "t": 298500,
      "d": 742.1875,
      "v": 97
    },
    {
      "midi": 62,
      "hit": false,
      "t": 298500,
      "d": 742.1875,
      "v": 101
    },
    {
      "midi": 69,
      "hit": false,
      "t": 298500,
      "d": 742.1875,
      "v": 95
    },
    {
      "midi": 80,
      "hit": false,
      "t": 298523.4375,
      "d": 351.5625,
      "v": 108
    },
    {
      "midi": 57,
      "hit": false,
      "t": 298875,
      "d": 375,
      "v": 97
    },
    {
      "midi": 76,
      "hit": false,
      "t": 298898.4375,
      "d": 476.5625,
      "v": 66
    },
    {
      "midi": 59,
      "hit": false,
      "t": 299250,
      "d": 367.1875,
      "v": 95
    },
    {
      "midi": 62,
      "hit": false,
      "t": 299250,
      "d": 742.1875,
      "v": 101
    },
    {
      "midi": 68,
      "hit": false,
      "t": 299250,
      "d": 742.1875,
      "v": 94
    },
    {
      "midi": 56,
      "hit": false,
      "t": 299250,
      "d": 1867.1875,
      "v": 97
    },
    {
      "midi": 76,
      "hit": false,
      "t": 299421.875,
      "d": 5179.6875,
      "v": 79
    },
    {
      "midi": 59,
      "hit": false,
      "t": 299625,
      "d": 742.1875,
      "v": 99
    },
    {
      "midi": 62,
      "hit": false,
      "t": 300000,
      "d": 742.1875,
      "v": 99
    },
    {
      "midi": 68,
      "hit": false,
      "t": 300000,
      "d": 742.1875,
      "v": 101
    },
    {
      "midi": 71,
      "hit": false,
      "t": 300000,
      "d": 1460.9375,
      "v": 98
    },
    {
      "midi": 59,
      "hit": false,
      "t": 300375,
      "d": 367.1875,
      "v": 97
    },
    {
      "midi": 59,
      "hit": false,
      "t": 300750,
      "d": 710.9375,
      "v": 92
    },
    {
      "midi": 62,
      "hit": false,
      "t": 300750,
      "d": 710.9375,
      "v": 95
    },
    {
      "midi": 68,
      "hit": false,
      "t": 300750,
      "d": 710.9375,
      "v": 92
    },
    {
      "midi": 56,
      "hit": false,
      "t": 301125,
      "d": 335.9375,
      "v": 100
    },
    {
      "midi": 69,
      "hit": false,
      "t": 301500,
      "d": 554.6875,
      "v": 102
    },
    {
      "midi": 71,
      "hit": false,
      "t": 301500,
      "d": 554.6875,
      "v": 102
    },
    {
      "midi": 62,
      "hit": false,
      "t": 301500,
      "d": 742.1875,
      "v": 100
    },
    {
      "midi": 69,
      "hit": false,
      "t": 302062.5,
      "d": 179.6875,
      "v": 80
    },
    {
      "midi": 71,
      "hit": false,
      "t": 302062.5,
      "d": 179.6875,
      "v": 80
    },
    {
      "midi": 74,
      "hit": false,
      "t": 302062.5,
      "d": 179.6875,
      "v": 80
    },
    {
      "midi": 68,
      "hit": false,
      "t": 302250,
      "d": 367.1875,
      "v": 99
    },
    {
      "midi": 71,
      "hit": false,
      "t": 302250,
      "d": 367.1875,
      "v": 103
    },
    {
      "midi": 74,
      "hit": false,
      "t": 302250,
      "d": 367.1875,
      "v": 102
    },
    {
      "midi": 71,
      "hit": false,
      "t": 302625,
      "d": 343.75,
      "v": 93
    },
    {
      "midi": 80,
      "hit": false,
      "t": 302625,
      "d": 343.75,
      "v": 93
    },
    {
      "midi": 74,
      "hit": false,
      "t": 302625,
      "d": 367.1875,
      "v": 93
    },
    {
      "midi": 69,
      "hit": false,
      "t": 302968.75,
      "d": 23.4375,
      "v": 93
    },
    {
      "midi": 78,
      "hit": false,
      "t": 302968.75,
      "d": 23.4375,
      "v": 93
    },
    {
      "midi": 54,
      "hit": false,
      "t": 303000,
      "d": 359.375,
      "v": 97
    },
    {
      "midi": 57,
      "hit": false,
      "t": 303000,
      "d": 734.375,
      "v": 99
    },
    {
      "midi": 62,
      "hit": false,
      "t": 303000,
      "d": 734.375,
      "v": 102
    },
    {
      "midi": 54,
      "hit": false,
      "t": 303375,
      "d": 742.1875,
      "v": 99
    },
    {
      "midi": 57,
      "hit": false,
      "t": 303750,
      "d": 742.1875,
      "v": 95
    },
    {
      "midi": 62,
      "hit": false,
      "t": 303750,
      "d": 742.1875,
      "v": 99
    },
    {
      "midi": 66,
      "hit": false,
      "t": 303750,
      "d": 1492.1875,
      "v": 94
    },
    {
      "midi": 54,
      "hit": false,
      "t": 304125,
      "d": 367.1875,
      "v": 102
    },
    {
      "midi": 54,
      "hit": false,
      "t": 304500,
      "d": 367.1875,
      "v": 99
    },
    {
      "midi": 57,
      "hit": false,
      "t": 304500,
      "d": 742.1875,
      "v": 99
    },
    {
      "midi": 62,
      "hit": false,
      "t": 304500,
      "d": 742.1875,
      "v": 99
    },
    {
      "midi": 78,
      "hit": false,
      "t": 304656.25,
      "d": 171.875,
      "v": 115
    },
    {
      "midi": 54,
      "hit": false,
      "t": 304875,
      "d": 367.1875,
      "v": 97
    },
    {
      "midi": 78,
      "hit": false,
      "t": 304929.6875,
      "d": 242.1875,
      "v": 90
    },
    {
      "midi": 76,
      "hit": false,
      "t": 305164.0625,
      "d": 125,
      "v": 83
    },
    {
      "midi": 57,
      "hit": false,
      "t": 305250,
      "d": 710.9375,
      "v": 98
    },
    {
      "midi": 62,
      "hit": false,
      "t": 305250,
      "d": 710.9375,
      "v": 102
    },
    {
      "midi": 66,
      "hit": false,
      "t": 305250,
      "d": 710.9375,
      "v": 96
    },
    {
      "midi": 78,
      "hit": false,
      "t": 305343.75,
      "d": 250,
      "v": 97
    },
    {
      "midi": 76,
      "hit": false,
      "t": 305601.5625,
      "d": 140.625,
      "v": 68
    },
    {
      "midi": 54,
      "hit": false,
      "t": 305625,
      "d": 335.9375,
      "v": 100
    },
    {
      "midi": 78,
      "hit": false,
      "t": 305804.6875,
      "d": 187.5,
      "v": 97
    },
    {
      "midi": 64,
      "hit": false,
      "t": 305960.9375,
      "d": 1.5625,
      "v": 102
    },
    {
      "midi": 56,
      "hit": false,
      "t": 305960.9375,
      "d": 31.25,
      "v": 100
    },
    {
      "midi": 59,
      "hit": false,
      "t": 305960.9375,
      "d": 31.25,
      "v": 98
    },
    {
      "midi": 62,
      "hit": false,
      "t": 305960.9375,
      "d": 31.25,
      "v": 102
    },
    {
      "midi": 68,
      "hit": false,
      "t": 305960.9375,
      "d": 31.25,
      "v": 96
    },
    {
      "midi": 76,
      "hit": false,
      "t": 306000,
      "d": 187.5,
      "v": 75
    },
    {
      "midi": 68,
      "hit": false,
      "t": 306000,
      "d": 367.1875,
      "v": 97
    },
    {
      "midi": 59,
      "hit": false,
      "t": 306000,
      "d": 742.1875,
      "v": 99
    },
    {
      "midi": 62,
      "hit": false,
      "t": 306000,
      "d": 742.1875,
      "v": 102
    },
    {
      "midi": 78,
      "hit": false,
      "t": 306265.625,
      "d": 3468.75,
      "v": 92
    },
    {
      "midi": 56,
      "hit": false,
      "t": 306375,
      "d": 742.1875,
      "v": 99
    },
    {
      "midi": 59,
      "hit": false,
      "t": 306750,
      "d": 742.1875,
      "v": 95
    },
    {
      "midi": 62,
      "hit": false,
      "t": 306750,
      "d": 742.1875,
      "v": 99
    },
    {
      "midi": 68,
      "hit": false,
      "t": 306750,
      "d": 1492.1875,
      "v": 94
    },
    {
      "midi": 56,
      "hit": false,
      "t": 307125,
      "d": 367.1875,
      "v": 102
    },
    {
      "midi": 56,
      "hit": false,
      "t": 307500,
      "d": 742.1875,
      "v": 99
    },
    {
      "midi": 59,
      "hit": false,
      "t": 307500,
      "d": 742.1875,
      "v": 99
    },
    {
      "midi": 64,
      "hit": false,
      "t": 307500,
      "d": 742.1875,
      "v": 99
    },
    {
      "midi": 52,
      "hit": false,
      "t": 307875,
      "d": 367.1875,
      "v": 97
    },
    {
      "midi": 59,
      "hit": false,
      "t": 308250,
      "d": 710.9375,
      "v": 98
    },
    {
      "midi": 62,
      "hit": false,
      "t": 308250,
      "d": 710.9375,
      "v": 102
    },
    {
      "midi": 68,
      "hit": false,
      "t": 308250,
      "d": 710.9375,
      "v": 96
    },
    {
      "midi": 56,
      "hit": false,
      "t": 308625,
      "d": 335.9375,
      "v": 100
    },
    {
      "midi": 57,
      "hit": false,
      "t": 308960.9375,
      "d": 31.25,
      "v": 100
    },
    {
      "midi": 61,
      "hit": false,
      "t": 308960.9375,
      "d": 31.25,
      "v": 98
    },
    {
      "midi": 64,
      "hit": false,
      "t": 308960.9375,
      "d": 31.25,
      "v": 102
    },
    {
      "midi": 69,
      "hit": false,
      "t": 308960.9375,
      "d": 31.25,
      "v": 96
    },
    {
      "midi": 61,
      "hit": false,
      "t": 309000,
      "d": 742.1875,
      "v": 98
    },
    {
      "midi": 64,
      "hit": false,
      "t": 309000,
      "d": 742.1875,
      "v": 98
    },
    {
      "midi": 69,
      "hit": false,
      "t": 309000,
      "d": 742.1875,
      "v": 95
    },
    {
      "midi": 57,
      "hit": false,
      "t": 309375,
      "d": 1054.6875,
      "v": 99
    },
    {
      "midi": 76,
      "hit": false,
      "t": 309742.1875,
      "d": 679.6875,
      "v": 94
    },
    {
      "midi": 61,
      "hit": false,
      "t": 309750,
      "d": 367.1875,
      "v": 98
    },
    {
      "midi": 69,
      "hit": false,
      "t": 309750,
      "d": 679.6875,
      "v": 95
    },
    {
      "midi": 64,
      "hit": false,
      "t": 309750,
      "d": 742.1875,
      "v": 99
    },
    {
      "midi": 61,
      "hit": false,
      "t": 310125,
      "d": 367.1875,
      "v": 94
    },
    {
      "midi": 85,
      "hit": false,
      "t": 310367.1875,
      "d": 382.8125,
      "v": 86
    },
    {
      "midi": 56,
      "hit": false,
      "t": 310429.6875,
      "d": 62.5,
      "v": 99
    },
    {
      "midi": 68,
      "hit": false,
      "t": 310429.6875,
      "d": 62.5,
      "v": 95
    },
    {
      "midi": 64,
      "hit": false,
      "t": 310500,
      "d": 742.1875,
      "v": 98
    },
    {
      "midi": 68,
      "hit": false,
      "t": 310500,
      "d": 742.1875,
      "v": 100
    },
    {
      "midi": 73,
      "hit": false,
      "t": 310500,
      "d": 742.1875,
      "v": 98
    },
    {
      "midi": 83,
      "hit": false,
      "t": 310742.1875,
      "d": 453.125,
      "v": 65
    },
    {
      "midi": 61,
      "hit": false,
      "t": 310875,
      "d": 367.1875,
      "v": 97
    },
    {
      "midi": 81,
      "hit": false,
      "t": 311156.25,
      "d": 4640.625,
      "v": 72
    },
    {
      "midi": 61,
      "hit": false,
      "t": 311250,
      "d": 695.3125,
      "v": 92
    },
    {
      "midi": 68,
      "hit": false,
      "t": 311250,
      "d": 695.3125,
      "v": 94
    },
    {
      "midi": 64,
      "hit": false,
      "t": 311250,
      "d": 742.1875,
      "v": 92
    },
    {
      "midi": 56,
      "hit": false,
      "t": 311625,
      "d": 320.3125,
      "v": 99
    },
    {
      "midi": 57,
      "hit": false,
      "t": 311945.3125,
      "d": 1.5625,
      "v": 99
    },
    {
      "midi": 61,
      "hit": false,
      "t": 311945.3125,
      "d": 46.875,
      "v": 92
    },
    {
      "midi": 69,
      "hit": false,
      "t": 311945.3125,
      "d": 46.875,
      "v": 94
    },
    {
      "midi": 61,
      "hit": false,
      "t": 312000,
      "d": 742.1875,
      "v": 96
    },
    {
      "midi": 64,
      "hit": false,
      "t": 312000,
      "d": 742.1875,
      "v": 103
    },
    {
      "midi": 69,
      "hit": false,
      "t": 312000,
      "d": 742.1875,
      "v": 103
    },
    {
      "midi": 57,
      "hit": false,
      "t": 312375,
      "d": 687.5,
      "v": 98
    },
    {
      "midi": 69,
      "hit": false,
      "t": 312750,
      "d": 312.5,
      "v": 94
    },
    {
      "midi": 61,
      "hit": false,
      "t": 312750,
      "d": 742.1875,
      "v": 94
    },
    {
      "midi": 64,
      "hit": false,
      "t": 312750,
      "d": 742.1875,
      "v": 99
    },
    {
      "midi": 56,
      "hit": false,
      "t": 313062.5,
      "d": 54.6875,
      "v": 98
    },
    {
      "midi": 68,
      "hit": false,
      "t": 313062.5,
      "d": 429.6875,
      "v": 94
    },
    {
      "midi": 56,
      "hit": false,
      "t": 313125,
      "d": 1085.9375,
      "v": 101
    },
    {
      "midi": 61,
      "hit": false,
      "t": 313500,
      "d": 367.1875,
      "v": 94
    },
    {
      "midi": 68,
      "hit": false,
      "t": 313500,
      "d": 710.9375,
      "v": 96
    },
    {
      "midi": 64,
      "hit": false,
      "t": 313500,
      "d": 742.1875,
      "v": 99
    },
    {
      "midi": 61,
      "hit": false,
      "t": 313875,
      "d": 367.1875,
      "v": 94
    },
    {
      "midi": 57,
      "hit": false,
      "t": 314210.9375,
      "d": 31.25,
      "v": 101
    },
    {
      "midi": 69,
      "hit": false,
      "t": 314210.9375,
      "d": 31.25,
      "v": 96
    },
    {
      "midi": 64,
      "hit": false,
      "t": 314250,
      "d": 726.5625,
      "v": 98
    },
    {
      "midi": 67,
      "hit": false,
      "t": 314250,
      "d": 726.5625,
      "v": 99
    },
    {
      "midi": 73,
      "hit": false,
      "t": 314250,
      "d": 726.5625,
      "v": 99
    },
    {
      "midi": 61,
      "hit": false,
      "t": 314625,
      "d": 351.5625,
      "v": 98
    },
    {
      "midi": 57,
      "hit": false,
      "t": 314976.5625,
      "d": 15.625,
      "v": 98
    },
    {
      "midi": 62,
      "hit": false,
      "t": 314976.5625,
      "d": 15.625,
      "v": 98
    },
    {
      "midi": 66,
      "hit": false,
      "t": 314976.5625,
      "d": 15.625,
      "v": 99
    },
    {
      "midi": 69,
      "hit": false,
      "t": 314976.5625,
      "d": 1515.625,
      "v": 99
    },
    {
      "midi": 57,
      "hit": false,
      "t": 315000,
      "d": 742.1875,
      "v": 94
    },
    {
      "midi": 62,
      "hit": false,
      "t": 315000,
      "d": 742.1875,
      "v": 100
    },
    {
      "midi": 66,
      "hit": false,
      "t": 315000,
      "d": 742.1875,
      "v": 97
    },
    {
      "midi": 54,
      "hit": false,
      "t": 315375,
      "d": 742.1875,
      "v": 99
    },
    {
      "midi": 66,
      "hit": false,
      "t": 315750,
      "d": 367.1875,
      "v": 94
    },
    {
      "midi": 57,
      "hit": false,
      "t": 315750,
      "d": 742.1875,
      "v": 97
    },
    {
      "midi": 62,
      "hit": false,
      "t": 315750,
      "d": 742.1875,
      "v": 95
    },
    {
      "midi": 78,
      "hit": false,
      "t": 315976.5625,
      "d": 273.4375,
      "v": 73
    },
    {
      "midi": 54,
      "hit": false,
      "t": 316125,
      "d": 1812.5,
      "v": 96
    },
    {
      "midi": 78,
      "hit": false,
      "t": 316328.125,
      "d": 226.5625,
      "v": 102
    },
    {
      "midi": 57,
      "hit": false,
      "t": 316500,
      "d": 367.1875,
      "v": 87
    },
    {
      "midi": 62,
      "hit": false,
      "t": 316500,
      "d": 742.1875,
      "v": 87
    },
    {
      "midi": 66,
      "hit": false,
      "t": 316500,
      "d": 742.1875,
      "v": 86
    },
    {
      "midi": 76,
      "hit": false,
      "t": 316617.1875,
      "d": 109.375,
      "v": 73
    },
    {
      "midi": 78,
      "hit": false,
      "t": 316820.3125,
      "d": 148.4375,
      "v": 84
    },
    {
      "midi": 57,
      "hit": false,
      "t": 316875,
      "d": 367.1875,
      "v": 96
    },
    {
      "midi": 76,
      "hit": false,
      "t": 317023.4375,
      "d": 109.375,
      "v": 83
    },
    {
      "midi": 78,
      "hit": false,
      "t": 317234.375,
      "d": 320.3125,
      "v": 83
    },
    {
      "midi": 62,
      "hit": false,
      "t": 317250,
      "d": 687.5,
      "v": 97
    },
    {
      "midi": 66,
      "hit": false,
      "t": 317250,
      "d": 687.5,
      "v": 100
    },
    {
      "midi": 69,
      "hit": false,
      "t": 317250,
      "d": 687.5,
      "v": 99
    },
    {
      "midi": 57,
      "hit": false,
      "t": 317625,
      "d": 312.5,
      "v": 97
    },
    {
      "midi": 76,
      "hit": false,
      "t": 317695.3125,
      "d": 164.0625,
      "v": 81
    },
    {
      "midi": 64,
      "hit": false,
      "t": 317937.5,
      "d": 23.4375,
      "v": 97
    },
    {
      "midi": 59,
      "hit": false,
      "t": 317937.5,
      "d": 54.6875,
      "v": 97
    },
    {
      "midi": 68,
      "hit": false,
      "t": 317937.5,
      "d": 54.6875,
      "v": 100
    },
    {
      "midi": 56,
      "hit": false,
      "t": 317937.5,
      "d": 429.6875,
      "v": 96
    },
    {
      "midi": 71,
      "hit": false,
      "t": 317937.5,
      "d": 2304.6875,
      "v": 99
    },
    {
      "midi": 62,
      "hit": false,
      "t": 317960.9375,
      "d": 31.25,
      "v": 97
    },
    {
      "midi": 59,
      "hit": false,
      "t": 318000,
      "d": 742.1875,
      "v": 91
    },
    {
      "midi": 62,
      "hit": false,
      "t": 318000,
      "d": 742.1875,
      "v": 95
    },
    {
      "midi": 68,
      "hit": false,
      "t": 318000,
      "d": 742.1875,
      "v": 93
    },
    {
      "midi": 76,
      "hit": false,
      "t": 318023.4375,
      "d": 54.6875,
      "v": 46
    },
    {
      "midi": 78,
      "hit": false,
      "t": 318039.0625,
      "d": 289.0625,
      "v": 92
    },
    {
      "midi": 76,
      "hit": false,
      "t": 318335.9375,
      "d": 109.375,
      "v": 75
    },
    {
      "midi": 56,
      "hit": false,
      "t": 318375,
      "d": 367.1875,
      "v": 94
    },
    {
      "midi": 78,
      "hit": false,
      "t": 318523.4375,
      "d": 3859.375,
      "v": 97
    },
    {
      "midi": 68,
      "hit": false,
      "t": 318750,
      "d": 367.1875,
      "v": 96
    },
    {
      "midi": 59,
      "hit": false,
      "t": 318750,
      "d": 742.1875,
      "v": 92
    },
    {
      "midi": 62,
      "hit": false,
      "t": 318750,
      "d": 742.1875,
      "v": 96
    },
    {
      "midi": 56,
      "hit": false,
      "t": 319125,
      "d": 367.1875,
      "v": 96
    },
    {
      "midi": 56,
      "hit": false,
      "t": 319500,
      "d": 742.1875,
      "v": 93
    },
    {
      "midi": 59,
      "hit": false,
      "t": 319500,
      "d": 742.1875,
      "v": 97
    },
    {
      "midi": 64,
      "hit": false,
      "t": 319500,
      "d": 742.1875,
      "v": 96
    },
    {
      "midi": 52,
      "hit": false,
      "t": 319875,
      "d": 367.1875,
      "v": 99
    },
    {
      "midi": 56,
      "hit": false,
      "t": 320250,
      "d": 726.5625,
      "v": 97
    },
    {
      "midi": 59,
      "hit": false,
      "t": 320250,
      "d": 726.5625,
      "v": 99
    },
    {
      "midi": 62,
      "hit": false,
      "t": 320250,
      "d": 726.5625,
      "v": 99
    },
    {
      "midi": 50,
      "hit": false,
      "t": 320625,
      "d": 351.5625,
      "v": 99
    },
    {
      "midi": 52,
      "hit": false,
      "t": 320976.5625,
      "d": 15.625,
      "v": 99
    },
    {
      "midi": 61,
      "hit": false,
      "t": 320976.5625,
      "d": 15.625,
      "v": 99
    },
    {
      "midi": 64,
      "hit": false,
      "t": 320976.5625,
      "d": 15.625,
      "v": 99
    },
    {
      "midi": 57,
      "hit": false,
      "t": 320976.5625,
      "d": 390.625,
      "v": 97
    },
    {
      "midi": 61,
      "hit": false,
      "t": 321000,
      "d": 742.1875,
      "v": 95
    },
    {
      "midi": 64,
      "hit": false,
      "t": 321000,
      "d": 742.1875,
      "v": 94
    },
    {
      "midi": 69,
      "hit": false,
      "t": 321000,
      "d": 742.1875,
      "v": 95
    },
    {
      "midi": 57,
      "hit": false,
      "t": 321375,
      "d": 742.1875,
      "v": 94
    },
    {
      "midi": 64,
      "hit": false,
      "t": 321750,
      "d": 726.5625,
      "v": 99
    },
    {
      "midi": 69,
      "hit": false,
      "t": 321750,
      "d": 726.5625,
      "v": 95
    },
    {
      "midi": 61,
      "hit": false,
      "t": 321750,
      "d": 742.1875,
      "v": 96
    },
    {
      "midi": 57,
      "hit": false,
      "t": 322125,
      "d": 351.5625,
      "v": 100
    },
    {
      "midi": 65,
      "hit": false,
      "t": 322476.5625,
      "d": 7.8125,
      "v": 99
    },
    {
      "midi": 56,
      "hit": false,
      "t": 322476.5625,
      "d": 15.625,
      "v": 100
    },
    {
      "midi": 68,
      "hit": false,
      "t": 322476.5625,
      "d": 765.625,
      "v": 95
    },
    {
      "midi": 64,
      "hit": false,
      "t": 322484.375,
      "d": 7.8125,
      "v": 99
    },
    {
      "midi": 56,
      "hit": false,
      "t": 322500,
      "d": 367.1875,
      "v": 93
    },
    {
      "midi": 61,
      "hit": false,
      "t": 322500,
      "d": 742.1875,
      "v": 97
    },
    {
      "midi": 64,
      "hit": false,
      "t": 322500,
      "d": 742.1875,
      "v": 101
    },
    {
      "midi": 56,
      "hit": false,
      "t": 322875,
      "d": 1101.5625,
      "v": 97
    },
    {
      "midi": 83,
      "hit": false,
      "t": 322921.875,
      "d": 320.3125,
      "v": 94
    },
    {
      "midi": 61,
      "hit": false,
      "t": 323250,
      "d": 367.1875,
      "v": 95
    },
    {
      "midi": 68,
      "hit": false,
      "t": 323250,
      "d": 726.5625,
      "v": 94
    },
    {
      "midi": 64,
      "hit": false,
      "t": 323250,
      "d": 742.1875,
      "v": 101
    },
    {
      "midi": 83,
      "hit": false,
      "t": 323343.75,
      "d": 351.5625,
      "v": 83
    },
    {
      "midi": 61,
      "hit": false,
      "t": 323625,
      "d": 742.1875,
      "v": 99
    },
    {
      "midi": 85,
      "hit": false,
      "t": 323710.9375,
      "d": 398.4375,
      "v": 88
    },
    {
      "midi": 69,
      "hit": false,
      "t": 323976.5625,
      "d": 15.625,
      "v": 94
    },
    {
      "midi": 57,
      "hit": false,
      "t": 323976.5625,
      "d": 1132.8125,
      "v": 97
    },
    {
      "midi": 64,
      "hit": false,
      "t": 324000,
      "d": 742.1875,
      "v": 99
    },
    {
      "midi": 69,
      "hit": false,
      "t": 324000,
      "d": 742.1875,
      "v": 101
    },
    {
      "midi": 73,
      "hit": false,
      "t": 324000,
      "d": 2617.1875,
      "v": 98
    },
    {
      "midi": 76,
      "hit": false,
      "t": 324093.75,
      "d": 2867.1875,
      "v": 68
    },
    {
      "midi": 61,
      "hit": false,
      "t": 324375,
      "d": 367.1875,
      "v": 97
    },
    {
      "midi": 69,
      "hit": false,
      "t": 324750,
      "d": 359.375,
      "v": 92
    },
    {
      "midi": 61,
      "hit": false,
      "t": 324750,
      "d": 742.1875,
      "v": 92
    },
    {
      "midi": 64,
      "hit": false,
      "t": 324750,
      "d": 742.1875,
      "v": 95
    },
    {
      "midi": 56,
      "hit": false,
      "t": 325109.375,
      "d": 7.8125,
      "v": 97
    },
    {
      "midi": 68,
      "hit": false,
      "t": 325109.375,
      "d": 1101.5625,
      "v": 92
    },
    {
      "midi": 56,
      "hit": false,
      "t": 325125,
      "d": 742.1875,
      "v": 100
    },
    {
      "midi": 61,
      "hit": false,
      "t": 325500,
      "d": 742.1875,
      "v": 96
    },
    {
      "midi": 64,
      "hit": false,
      "t": 325500,
      "d": 742.1875,
      "v": 102
    },
    {
      "midi": 56,
      "hit": false,
      "t": 325875,
      "d": 335.9375,
      "v": 99
    },
    {
      "midi": 57,
      "hit": false,
      "t": 326210.9375,
      "d": 31.25,
      "v": 99
    },
    {
      "midi": 69,
      "hit": false,
      "t": 326210.9375,
      "d": 31.25,
      "v": 92
    },
    {
      "midi": 64,
      "hit": false,
      "t": 326250,
      "d": 367.1875,
      "v": 98
    },
    {
      "midi": 67,
      "hit": false,
      "t": 326250,
      "d": 367.1875,
      "v": 95
    },
    {
      "midi": 61,
      "hit": false,
      "t": 326250,
      "d": 726.5625,
      "v": 98
    },
    {
      "midi": 67,
      "hit": false,
      "t": 326625,
      "d": 343.75,
      "v": 96
    },
    {
      "midi": 64,
      "hit": false,
      "t": 326625,
      "d": 351.5625,
      "v": 88
    },
    {
      "midi": 73,
      "hit": false,
      "t": 326625,
      "d": 351.5625,
      "v": 95
    },
    {
      "midi": 69,
      "hit": false,
      "t": 326968.75,
      "d": 7.8125,
      "v": 96
    },
    {
      "midi": 57,
      "hit": false,
      "t": 326976.5625,
      "d": 15.625,
      "v": 98
    },
    {
      "midi": 62,
      "hit": false,
      "t": 326976.5625,
      "d": 15.625,
      "v": 88
    },
    {
      "midi": 66,
      "hit": false,
      "t": 326976.5625,
      "d": 15.625,
      "v": 96
    },
    {
      "midi": 69,
      "hit": false,
      "t": 326976.5625,
      "d": 15.625,
      "v": 95
    },
    {
      "midi": 54,
      "hit": false,
      "t": 327000,
      "d": 359.375,
      "v": 97
    },
    {
      "midi": 57,
      "hit": false,
      "t": 327000,
      "d": 734.375,
      "v": 99
    },
    {
      "midi": 62,
      "hit": false,
      "t": 327000,
      "d": 734.375,
      "v": 102
    },
    {
      "midi": 54,
      "hit": false,
      "t": 327375,
      "d": 742.1875,
      "v": 99
    },
    {
      "midi": 57,
      "hit": false,
      "t": 327750,
      "d": 742.1875,
      "v": 95
    },
    {
      "midi": 62,
      "hit": false,
      "t": 327750,
      "d": 742.1875,
      "v": 99
    },
    {
      "midi": 66,
      "hit": false,
      "t": 327750,
      "d": 1492.1875,
      "v": 94
    },
    {
      "midi": 78,
      "hit": false,
      "t": 328015.625,
      "d": 296.875,
      "v": 112
    },
    {
      "midi": 54,
      "hit": false,
      "t": 328125,
      "d": 367.1875,
      "v": 102
    },
    {
      "midi": 78,
      "hit": false,
      "t": 328429.6875,
      "d": 226.5625,
      "v": 108
    },
    {
      "midi": 54,
      "hit": false,
      "t": 328500,
      "d": 367.1875,
      "v": 99
    },
    {
      "midi": 57,
      "hit": false,
      "t": 328500,
      "d": 742.1875,
      "v": 99
    },
    {
      "midi": 62,
      "hit": false,
      "t": 328500,
      "d": 742.1875,
      "v": 99
    },
    {
      "midi": 76,
      "hit": false,
      "t": 328734.375,
      "d": 132.8125,
      "v": 90
    },
    {
      "midi": 54,
      "hit": false,
      "t": 328875,
      "d": 367.1875,
      "v": 97
    },
    {
      "midi": 78,
      "hit": false,
      "t": 328960.9375,
      "d": 492.1875,
      "v": 112
    },
    {
      "midi": 57,
      "hit": false,
      "t": 329250,
      "d": 664.0625,
      "v": 98
    },
    {
      "midi": 66,
      "hit": false,
      "t": 329250,
      "d": 664.0625,
      "v": 96
    },
    {
      "midi": 62,
      "hit": false,
      "t": 329250,
      "d": 742.1875,
      "v": 102
    },
    {
      "midi": 76,
      "hit": false,
      "t": 329484.375,
      "d": 117.1875,
      "v": 105
    },
    {
      "midi": 54,
      "hit": false,
      "t": 329625,
      "d": 289.0625,
      "v": 100
    },
    {
      "midi": 76,
      "hit": false,
      "t": 329781.25,
      "d": 85.9375,
      "v": 33
    },
    {
      "midi": 78,
      "hit": false,
      "t": 329796.875,
      "d": 375,
      "v": 90
    },
    {
      "midi": 56,
      "hit": false,
      "t": 329914.0625,
      "d": 78.125,
      "v": 100
    },
    {
      "midi": 59,
      "hit": false,
      "t": 329914.0625,
      "d": 78.125,
      "v": 98
    },
    {
      "midi": 68,
      "hit": false,
      "t": 329914.0625,
      "d": 78.125,
      "v": 96
    },
    {
      "midi": 68,
      "hit": false,
      "t": 330000,
      "d": 367.1875,
      "v": 97
    },
    {
      "midi": 59,
      "hit": false,
      "t": 330000,
      "d": 742.1875,
      "v": 99
    },
    {
      "midi": 62,
      "hit": false,
      "t": 330000,
      "d": 742.1875,
      "v": 102
    },
    {
      "midi": 76,
      "hit": false,
      "t": 330164.0625,
      "d": 148.4375,
      "v": 75
    },
    {
      "midi": 78,
      "hit": false,
      "t": 330367.1875,
      "d": 3382.8125,
      "v": 105
    },
    {
      "midi": 56,
      "hit": false,
      "t": 330375,
      "d": 742.1875,
      "v": 99
    },
    {
      "midi": 59,
      "hit": false,
      "t": 330750,
      "d": 742.1875,
      "v": 95
    },
    {
      "midi": 62,
      "hit": false,
      "t": 330750,
      "d": 742.1875,
      "v": 99
    },
    {
      "midi": 68,
      "hit": false,
      "t": 330750,
      "d": 1492.1875,
      "v": 94
    },
    {
      "midi": 56,
      "hit": false,
      "t": 331125,
      "d": 367.1875,
      "v": 102
    },
    {
      "midi": 56,
      "hit": false,
      "t": 331500,
      "d": 742.1875,
      "v": 99
    },
    {
      "midi": 59,
      "hit": false,
      "t": 331500,
      "d": 742.1875,
      "v": 99
    },
    {
      "midi": 64,
      "hit": false,
      "t": 331500,
      "d": 742.1875,
      "v": 99
    },
    {
      "midi": 52,
      "hit": false,
      "t": 331875,
      "d": 367.1875,
      "v": 97
    },
    {
      "midi": 59,
      "hit": false,
      "t": 332250,
      "d": 726.5625,
      "v": 98
    },
    {
      "midi": 62,
      "hit": false,
      "t": 332250,
      "d": 726.5625,
      "v": 102
    },
    {
      "midi": 68,
      "hit": false,
      "t": 332250,
      "d": 726.5625,
      "v": 96
    },
    {
      "midi": 56,
      "hit": false,
      "t": 332625,
      "d": 351.5625,
      "v": 100
    },
    {
      "midi": 57,
      "hit": false,
      "t": 332976.5625,
      "d": 1.5625,
      "v": 100
    },
    {
      "midi": 61,
      "hit": false,
      "t": 332976.5625,
      "d": 15.625,
      "v": 98
    },
    {
      "midi": 64,
      "hit": false,
      "t": 332976.5625,
      "d": 15.625,
      "v": 102
    },
    {
      "midi": 69,
      "hit": false,
      "t": 332976.5625,
      "d": 15.625,
      "v": 96
    },
    {
      "midi": 61,
      "hit": false,
      "t": 333000,
      "d": 742.1875,
      "v": 98
    },
    {
      "midi": 64,
      "hit": false,
      "t": 333000,
      "d": 742.1875,
      "v": 98
    },
    {
      "midi": 69,
      "hit": false,
      "t": 333000,
      "d": 742.1875,
      "v": 95
    },
    {
      "midi": 57,
      "hit": false,
      "t": 333375,
      "d": 1046.875,
      "v": 99
    },
    {
      "midi": 61,
      "hit": false,
      "t": 333750,
      "d": 367.1875,
      "v": 98
    },
    {
      "midi": 69,
      "hit": false,
      "t": 333750,
      "d": 671.875,
      "v": 95
    },
    {
      "midi": 64,
      "hit": false,
      "t": 333750,
      "d": 742.1875,
      "v": 99
    },
    {
      "midi": 76,
      "hit": false,
      "t": 333906.25,
      "d": 250,
      "v": 77
    },
    {
      "midi": 61,
      "hit": false,
      "t": 334125,
      "d": 367.1875,
      "v": 94
    },
    {
      "midi": 76,
      "hit": false,
      "t": 334289.0625,
      "d": 101.5625,
      "v": 73
    },
    {
      "midi": 85,
      "hit": false,
      "t": 334359.375,
      "d": 546.875,
      "v": 74
    },
    {
      "midi": 56,
      "hit": false,
      "t": 334421.875,
      "d": 70.3125,
      "v": 99
    },
    {
      "midi": 68,
      "hit": false,
      "t": 334421.875,
      "d": 70.3125,
      "v": 95
    },
    {
      "midi": 64,
      "hit": false,
      "t": 334500,
      "d": 742.1875,
      "v": 98
    },
    {
      "midi": 68,
      "hit": false,
      "t": 334500,
      "d": 742.1875,
      "v": 100
    },
    {
      "midi": 73,
      "hit": false,
      "t": 334500,
      "d": 742.1875,
      "v": 98
    },
    {
      "midi": 61,
      "hit": false,
      "t": 334875,
      "d": 367.1875,
      "v": 97
    },
    {
      "midi": 83,
      "hit": false,
      "t": 334898.4375,
      "d": 601.5625,
      "v": 75
    },
    {
      "midi": 61,
      "hit": false,
      "t": 335250,
      "d": 703.125,
      "v": 92
    },
    {
      "midi": 68,
      "hit": false,
      "t": 335250,
      "d": 703.125,
      "v": 94
    },
    {
      "midi": 64,
      "hit": false,
      "t": 335250,
      "d": 742.1875,
      "v": 92
    },
    {
      "midi": 81,
      "hit": false,
      "t": 335500,
      "d": 4507.8125,
      "v": 77
    },
    {
      "midi": 56,
      "hit": false,
      "t": 335625,
      "d": 328.125,
      "v": 99
    },
    {
      "midi": 57,
      "hit": false,
      "t": 335953.125,
      "d": 1.5625,
      "v": 99
    },
    {
      "midi": 61,
      "hit": false,
      "t": 335953.125,
      "d": 39.0625,
      "v": 92
    },
    {
      "midi": 69,
      "hit": false,
      "t": 335953.125,
      "d": 39.0625,
      "v": 94
    },
    {
      "midi": 61,
      "hit": false,
      "t": 336000,
      "d": 742.1875,
      "v": 96
    },
    {
      "midi": 64,
      "hit": false,
      "t": 336000,
      "d": 742.1875,
      "v": 103
    },
    {
      "midi": 69,
      "hit": false,
      "t": 336000,
      "d": 742.1875,
      "v": 103
    },
    {
      "midi": 57,
      "hit": false,
      "t": 336375,
      "d": 687.5,
      "v": 98
    },
    {
      "midi": 69,
      "hit": false,
      "t": 336750,
      "d": 312.5,
      "v": 94
    },
    {
      "midi": 61,
      "hit": false,
      "t": 336750,
      "d": 742.1875,
      "v": 94
    },
    {
      "midi": 64,
      "hit": false,
      "t": 336750,
      "d": 742.1875,
      "v": 99
    },
    {
      "midi": 56,
      "hit": false,
      "t": 337062.5,
      "d": 54.6875,
      "v": 98
    },
    {
      "midi": 68,
      "hit": false,
      "t": 337062.5,
      "d": 429.6875,
      "v": 94
    },
    {
      "midi": 56,
      "hit": false,
      "t": 337125,
      "d": 1085.9375,
      "v": 101
    },
    {
      "midi": 61,
      "hit": false,
      "t": 337500,
      "d": 367.1875,
      "v": 94
    },
    {
      "midi": 64,
      "hit": false,
      "t": 337500,
      "d": 695.3125,
      "v": 99
    },
    {
      "midi": 68,
      "hit": false,
      "t": 337500,
      "d": 710.9375,
      "v": 96
    },
    {
      "midi": 61,
      "hit": false,
      "t": 337875,
      "d": 367.1875,
      "v": 94
    },
    {
      "midi": 63,
      "hit": false,
      "t": 338195.3125,
      "d": 15.625,
      "v": 99
    },
    {
      "midi": 55,
      "hit": false,
      "t": 338210.9375,
      "d": 15.625,
      "v": 101
    },
    {
      "midi": 67,
      "hit": false,
      "t": 338210.9375,
      "d": 15.625,
      "v": 96
    },
    {
      "midi": 64,
      "hit": false,
      "t": 338210.9375,
      "d": 31.25,
      "v": 99
    },
    {
      "midi": 57,
      "hit": false,
      "t": 338226.5625,
      "d": 15.625,
      "v": 101
    },
    {
      "midi": 69,
      "hit": false,
      "t": 338226.5625,
      "d": 15.625,
      "v": 96
    },
    {
      "midi": 64,
      "hit": false,
      "t": 338250,
      "d": 734.375,
      "v": 98
    },
    {
      "midi": 67,
      "hit": false,
      "t": 338250,
      "d": 734.375,
      "v": 99
    },
    {
      "midi": 73,
      "hit": false,
      "t": 338250,
      "d": 734.375,
      "v": 99
    },
    {
      "midi": 61,
      "hit": false,
      "t": 338625,
      "d": 359.375,
      "v": 98
    },
    {
      "midi": 63,
      "hit": false,
      "t": 338984.375,
      "d": 1.5625,
      "v": 98
    },
    {
      "midi": 66,
      "hit": false,
      "t": 338984.375,
      "d": 1.5625,
      "v": 99
    },
    {
      "midi": 69,
      "hit": false,
      "t": 338984.375,
      "d": 1.5625,
      "v": 99
    },
    {
      "midi": 57,
      "hit": false,
      "t": 338984.375,
      "d": 7.8125,
      "v": 98
    },
    {
      "midi": 62,
      "hit": false,
      "t": 338984.375,
      "d": 7.8125,
      "v": 98
    },
    {
      "midi": 57,
      "hit": false,
      "t": 339000,
      "d": 742.1875,
      "v": 94
    },
    {
      "midi": 62,
      "hit": false,
      "t": 339000,
      "d": 742.1875,
      "v": 100
    },
    {
      "midi": 66,
      "hit": false,
      "t": 339000,
      "d": 742.1875,
      "v": 97
    },
    {
      "midi": 54,
      "hit": false,
      "t": 339375,
      "d": 742.1875,
      "v": 99
    },
    {
      "midi": 66,
      "hit": false,
      "t": 339750,
      "d": 367.1875,
      "v": 94
    },
    {
      "midi": 57,
      "hit": false,
      "t": 339750,
      "d": 742.1875,
      "v": 97
    },
    {
      "midi": 62,
      "hit": false,
      "t": 339750,
      "d": 742.1875,
      "v": 95
    },
    {
      "midi": 78,
      "hit": false,
      "t": 340039.0625,
      "d": 257.8125,
      "v": 92
    },
    {
      "midi": 54,
      "hit": false,
      "t": 340125,
      "d": 1820.3125,
      "v": 96
    },
    {
      "midi": 78,
      "hit": false,
      "t": 340367.1875,
      "d": 281.25,
      "v": 105
    },
    {
      "midi": 57,
      "hit": false,
      "t": 340500,
      "d": 367.1875,
      "v": 87
    },
    {
      "midi": 62,
      "hit": false,
      "t": 340500,
      "d": 742.1875,
      "v": 87
    },
    {
      "midi": 66,
      "hit": false,
      "t": 340500,
      "d": 742.1875,
      "v": 86
    },
    {
      "midi": 76,
      "hit": false,
      "t": 340679.6875,
      "d": 117.1875,
      "v": 77
    },
    {
      "midi": 57,
      "hit": false,
      "t": 340875,
      "d": 367.1875,
      "v": 96
    },
    {
      "midi": 78,
      "hit": false,
      "t": 340898.4375,
      "d": 203.125,
      "v": 78
    },
    {
      "midi": 76,
      "hit": false,
      "t": 341109.375,
      "d": 101.5625,
      "v": 72
    },
    {
      "midi": 66,
      "hit": false,
      "t": 341250,
      "d": 695.3125,
      "v": 100
    },
    {
      "midi": 69,
      "hit": false,
      "t": 341250,
      "d": 695.3125,
      "v": 99
    },
    {
      "midi": 62,
      "hit": false,
      "t": 341250,
      "d": 742.1875,
      "v": 97
    },
    {
      "midi": 78,
      "hit": false,
      "t": 341296.875,
      "d": 421.875,
      "v": 79
    },
    {
      "midi": 57,
      "hit": false,
      "t": 341625,
      "d": 320.3125,
      "v": 97
    },
    {
      "midi": 76,
      "hit": false,
      "t": 341726.5625,
      "d": 171.875,
      "v": 81
    },
    {
      "midi": 59,
      "hit": false,
      "t": 341945.3125,
      "d": 46.875,
      "v": 97
    },
    {
      "midi": 68,
      "hit": false,
      "t": 341945.3125,
      "d": 46.875,
      "v": 100
    },
    {
      "midi": 56,
      "hit": false,
      "t": 341945.3125,
      "d": 421.875,
      "v": 96
    },
    {
      "midi": 71,
      "hit": false,
      "t": 341945.3125,
      "d": 2296.875,
      "v": 99
    },
    {
      "midi": 78,
      "hit": false,
      "t": 341976.5625,
      "d": 250,
      "v": 69
    },
    {
      "midi": 59,
      "hit": false,
      "t": 342000,
      "d": 742.1875,
      "v": 91
    },
    {
      "midi": 62,
      "hit": false,
      "t": 342000,
      "d": 742.1875,
      "v": 95
    },
    {
      "midi": 68,
      "hit": false,
      "t": 342000,
      "d": 742.1875,
      "v": 93
    },
    {
      "midi": 76,
      "hit": false,
      "t": 342226.5625,
      "d": 140.625,
      "v": 52
    },
    {
      "midi": 56,
      "hit": false,
      "t": 342375,
      "d": 367.1875,
      "v": 94
    },
    {
      "midi": 78,
      "hit": false,
      "t": 342406.25,
      "d": 2578.125,
      "v": 63
    },
    {
      "midi": 68,
      "hit": false,
      "t": 342750,
      "d": 367.1875,
      "v": 96
    },
    {
      "midi": 59,
      "hit": false,
      "t": 342750,
      "d": 742.1875,
      "v": 92
    },
    {
      "midi": 62,
      "hit": false,
      "t": 342750,
      "d": 742.1875,
      "v": 96
    },
    {
      "midi": 56,
      "hit": false,
      "t": 343125,
      "d": 367.1875,
      "v": 96
    },
    {
      "midi": 56,
      "hit": false,
      "t": 343500,
      "d": 742.1875,
      "v": 93
    },
    {
      "midi": 59,
      "hit": false,
      "t": 343500,
      "d": 742.1875,
      "v": 97
    },
    {
      "midi": 64,
      "hit": false,
      "t": 343500,
      "d": 742.1875,
      "v": 96
    },
    {
      "midi": 52,
      "hit": false,
      "t": 343875,
      "d": 367.1875,
      "v": 99
    },
    {
      "midi": 56,
      "hit": false,
      "t": 344250,
      "d": 710.9375,
      "v": 97
    },
    {
      "midi": 59,
      "hit": false,
      "t": 344250,
      "d": 710.9375,
      "v": 99
    },
    {
      "midi": 62,
      "hit": false,
      "t": 344250,
      "d": 710.9375,
      "v": 99
    },
    {
      "midi": 50,
      "hit": false,
      "t": 344625,
      "d": 335.9375,
      "v": 99
    },
    {
      "midi": 52,
      "hit": false,
      "t": 344960.9375,
      "d": 31.25,
      "v": 99
    },
    {
      "midi": 61,
      "hit": false,
      "t": 344960.9375,
      "d": 31.25,
      "v": 99
    },
    {
      "midi": 64,
      "hit": false,
      "t": 344960.9375,
      "d": 31.25,
      "v": 99
    },
    {
      "midi": 57,
      "hit": false,
      "t": 344960.9375,
      "d": 406.25,
      "v": 97
    },
    {
      "midi": 61,
      "hit": false,
      "t": 345000,
      "d": 742.1875,
      "v": 95
    },
    {
      "midi": 64,
      "hit": false,
      "t": 345000,
      "d": 742.1875,
      "v": 94
    },
    {
      "midi": 69,
      "hit": false,
      "t": 345000,
      "d": 742.1875,
      "v": 95
    },
    {
      "midi": 57,
      "hit": false,
      "t": 345375,
      "d": 742.1875,
      "v": 94
    },
    {
      "midi": 83,
      "hit": false,
      "t": 345390.625,
      "d": 453.125,
      "v": 99
    },
    {
      "midi": 69,
      "hit": false,
      "t": 345750,
      "d": 664.0625,
      "v": 95
    },
    {
      "midi": 61,
      "hit": false,
      "t": 345750,
      "d": 742.1875,
      "v": 96
    },
    {
      "midi": 64,
      "hit": false,
      "t": 345750,
      "d": 742.1875,
      "v": 99
    },
    {
      "midi": 83,
      "hit": false,
      "t": 346000,
      "d": 390.625,
      "v": 90
    },
    {
      "midi": 57,
      "hit": false,
      "t": 346125,
      "d": 289.0625,
      "v": 100
    },
    {
      "midi": 85,
      "hit": false,
      "t": 346398.4375,
      "d": 421.875,
      "v": 86
    },
    {
      "midi": 56,
      "hit": false,
      "t": 346414.0625,
      "d": 78.125,
      "v": 100
    },
    {
      "midi": 68,
      "hit": false,
      "t": 346414.0625,
      "d": 828.125,
      "v": 95
    },
    {
      "midi": 56,
      "hit": false,
      "t": 346500,
      "d": 367.1875,
      "v": 93
    },
    {
      "midi": 61,
      "hit": false,
      "t": 346500,
      "d": 742.1875,
      "v": 97
    },
    {
      "midi": 64,
      "hit": false,
      "t": 346500,
      "d": 742.1875,
      "v": 101
    },
    {
      "midi": 76,
      "hit": false,
      "t": 346828.125,
      "d": 3226.5625,
      "v": 75
    },
    {
      "midi": 56,
      "hit": false,
      "t": 346875,
      "d": 1085.9375,
      "v": 97
    },
    {
      "midi": 61,
      "hit": false,
      "t": 347250,
      "d": 367.1875,
      "v": 95
    },
    {
      "midi": 68,
      "hit": false,
      "t": 347250,
      "d": 710.9375,
      "v": 94
    },
    {
      "midi": 64,
      "hit": false,
      "t": 347250,
      "d": 742.1875,
      "v": 101
    },
    {
      "midi": 61,
      "hit": false,
      "t": 347625,
      "d": 742.1875,
      "v": 99
    },
    {
      "midi": 69,
      "hit": false,
      "t": 347960.9375,
      "d": 31.25,
      "v": 94
    },
    {
      "midi": 57,
      "hit": false,
      "t": 347960.9375,
      "d": 1148.4375,
      "v": 97
    },
    {
      "midi": 64,
      "hit": false,
      "t": 348000,
      "d": 742.1875,
      "v": 99
    },
    {
      "midi": 69,
      "hit": false,
      "t": 348000,
      "d": 742.1875,
      "v": 101
    },
    {
      "midi": 73,
      "hit": false,
      "t": 348000,
      "d": 2617.1875,
      "v": 98
    },
    {
      "midi": 61,
      "hit": false,
      "t": 348375,
      "d": 367.1875,
      "v": 97
    },
    {
      "midi": 69,
      "hit": false,
      "t": 348750,
      "d": 359.375,
      "v": 92
    },
    {
      "midi": 61,
      "hit": false,
      "t": 348750,
      "d": 742.1875,
      "v": 92
    },
    {
      "midi": 64,
      "hit": false,
      "t": 348750,
      "d": 742.1875,
      "v": 95
    },
    {
      "midi": 56,
      "hit": false,
      "t": 349109.375,
      "d": 7.8125,
      "v": 97
    },
    {
      "midi": 68,
      "hit": false,
      "t": 349109.375,
      "d": 1132.8125,
      "v": 92
    },
    {
      "midi": 56,
      "hit": false,
      "t": 349125,
      "d": 742.1875,
      "v": 100
    },
    {
      "midi": 61,
      "hit": false,
      "t": 349500,
      "d": 742.1875,
      "v": 96
    },
    {
      "midi": 64,
      "hit": false,
      "t": 349500,
      "d": 742.1875,
      "v": 102
    },
    {
      "midi": 56,
      "hit": false,
      "t": 349875,
      "d": 367.1875,
      "v": 99
    },
    {
      "midi": 76,
      "hit": false,
      "t": 350226.5625,
      "d": 531.25,
      "v": 97
    },
    {
      "midi": 64,
      "hit": false,
      "t": 350250,
      "d": 367.1875,
      "v": 98
    },
    {
      "midi": 68,
      "hit": false,
      "t": 350250,
      "d": 367.1875,
      "v": 95
    },
    {
      "midi": 61,
      "hit": false,
      "t": 350250,
      "d": 718.75,
      "v": 98
    },
    {
      "midi": 64,
      "hit": false,
      "t": 350625,
      "d": 343.75,
      "v": 88
    },
    {
      "midi": 68,
      "hit": false,
      "t": 350625,
      "d": 343.75,
      "v": 96
    },
    {
      "midi": 73,
      "hit": false,
      "t": 350625,
      "d": 343.75,
      "v": 95
    },
    {
      "midi": 75,
      "hit": false,
      "t": 350812.5,
      "d": 85.9375,
      "v": 26
    },
    {
      "midi": 76,
      "hit": false,
      "t": 350882.8125,
      "d": 85.9375,
      "v": 66
    },
    {
      "midi": 74,
      "hit": false,
      "t": 350968.75,
      "d": 1031.25,
      "v": 54
    },
    {
      "midi": 63,
      "hit": false,
      "t": 350968.75,
      "d": 1.5625,
      "v": 88
    },
    {
      "midi": 66,
      "hit": false,
      "t": 350968.75,
      "d": 1.5625,
      "v": 96
    },
    {
      "midi": 69,
      "hit": false,
      "t": 350968.75,
      "d": 1.5625,
      "v": 96
    },
    {
      "midi": 57,
      "hit": false,
      "t": 350968.75,
      "d": 23.4375,
      "v": 98
    },
    {
      "midi": 62,
      "hit": false,
      "t": 350968.75,
      "d": 23.4375,
      "v": 88
    },
    {
      "midi": 54,
      "hit": false,
      "t": 351000,
      "d": 359.375,
      "v": 97
    },
    {
      "midi": 57,
      "hit": false,
      "t": 351000,
      "d": 734.375,
      "v": 99
    },
    {
      "midi": 62,
      "hit": false,
      "t": 351000,
      "d": 734.375,
      "v": 102
    },
    {
      "midi": 54,
      "hit": false,
      "t": 351375,
      "d": 742.1875,
      "v": 99
    },
    {
      "midi": 57,
      "hit": false,
      "t": 351750,
      "d": 742.1875,
      "v": 95
    },
    {
      "midi": 62,
      "hit": false,
      "t": 351750,
      "d": 742.1875,
      "v": 99
    },
    {
      "midi": 66,
      "hit": false,
      "t": 351750,
      "d": 1492.1875,
      "v": 94
    },
    {
      "midi": 78,
      "hit": false,
      "t": 351968.75,
      "d": 257.8125,
      "v": 92
    },
    {
      "midi": 54,
      "hit": false,
      "t": 352125,
      "d": 367.1875,
      "v": 102
    },
    {
      "midi": 78,
      "hit": false,
      "t": 352281.25,
      "d": 312.5,
      "v": 90
    },
    {
      "midi": 54,
      "hit": false,
      "t": 352500,
      "d": 367.1875,
      "v": 99
    },
    {
      "midi": 57,
      "hit": false,
      "t": 352500,
      "d": 742.1875,
      "v": 99
    },
    {
      "midi": 62,
      "hit": false,
      "t": 352500,
      "d": 742.1875,
      "v": 99
    },
    {
      "midi": 76,
      "hit": false,
      "t": 352562.5,
      "d": 156.25,
      "v": 61
    },
    {
      "midi": 78,
      "hit": false,
      "t": 352773.4375,
      "d": 695.3125,
      "v": 75
    },
    {
      "midi": 54,
      "hit": false,
      "t": 352875,
      "d": 367.1875,
      "v": 97
    },
    {
      "midi": 57,
      "hit": false,
      "t": 353250,
      "d": 695.3125,
      "v": 98
    },
    {
      "midi": 66,
      "hit": false,
      "t": 353250,
      "d": 695.3125,
      "v": 96
    },
    {
      "midi": 62,
      "hit": false,
      "t": 353250,
      "d": 742.1875,
      "v": 102
    },
    {
      "midi": 76,
      "hit": false,
      "t": 353476.5625,
      "d": 140.625,
      "v": 60
    },
    {
      "midi": 54,
      "hit": false,
      "t": 353625,
      "d": 320.3125,
      "v": 100
    },
    {
      "midi": 78,
      "hit": false,
      "t": 353687.5,
      "d": 125,
      "v": 69
    },
    {
      "midi": 76,
      "hit": false,
      "t": 353828.125,
      "d": 78.125,
      "v": 66
    },
    {
      "midi": 56,
      "hit": false,
      "t": 353945.3125,
      "d": 46.875,
      "v": 100
    },
    {
      "midi": 59,
      "hit": false,
      "t": 353945.3125,
      "d": 46.875,
      "v": 98
    },
    {
      "midi": 68,
      "hit": false,
      "t": 353945.3125,
      "d": 46.875,
      "v": 96
    },
    {
      "midi": 68,
      "hit": false,
      "t": 354000,
      "d": 367.1875,
      "v": 97
    },
    {
      "midi": 59,
      "hit": false,
      "t": 354000,
      "d": 742.1875,
      "v": 99
    },
    {
      "midi": 62,
      "hit": false,
      "t": 354000,
      "d": 742.1875,
      "v": 102
    },
    {
      "midi": 76,
      "hit": false,
      "t": 354015.625,
      "d": 70.3125,
      "v": 69
    },
    {
      "midi": 78,
      "hit": false,
      "t": 354062.5,
      "d": 234.375,
      "v": 47
    },
    {
      "midi": 78,
      "hit": false,
      "t": 354367.1875,
      "d": 1320.3125,
      "v": 66
    },
    {
      "midi": 56,
      "hit": false,
      "t": 354375,
      "d": 742.1875,
      "v": 99
    },
    {
      "midi": 59,
      "hit": false,
      "t": 354750,
      "d": 742.1875,
      "v": 95
    },
    {
      "midi": 62,
      "hit": false,
      "t": 354750,
      "d": 742.1875,
      "v": 99
    },
    {
      "midi": 68,
      "hit": false,
      "t": 354750,
      "d": 1492.1875,
      "v": 94
    },
    {
      "midi": 56,
      "hit": false,
      "t": 355125,
      "d": 367.1875,
      "v": 102
    },
    {
      "midi": 56,
      "hit": false,
      "t": 355500,
      "d": 742.1875,
      "v": 99
    },
    {
      "midi": 59,
      "hit": false,
      "t": 355500,
      "d": 742.1875,
      "v": 99
    },
    {
      "midi": 64,
      "hit": false,
      "t": 355500,
      "d": 742.1875,
      "v": 99
    },
    {
      "midi": 76,
      "hit": false,
      "t": 355843.75,
      "d": 257.8125,
      "v": 97
    },
    {
      "midi": 52,
      "hit": false,
      "t": 355875,
      "d": 367.1875,
      "v": 97
    },
    {
      "midi": 78,
      "hit": false,
      "t": 356039.0625,
      "d": 390.625,
      "v": 30
    },
    {
      "midi": 59,
      "hit": false,
      "t": 356250,
      "d": 710.9375,
      "v": 98
    },
    {
      "midi": 62,
      "hit": false,
      "t": 356250,
      "d": 710.9375,
      "v": 102
    },
    {
      "midi": 68,
      "hit": false,
      "t": 356250,
      "d": 742.1875,
      "v": 96
    },
    {
      "midi": 76,
      "hit": false,
      "t": 356429.6875,
      "d": 226.5625,
      "v": 61
    },
    {
      "midi": 56,
      "hit": false,
      "t": 356625,
      "d": 367.1875,
      "v": 100
    },
    {
      "midi": 78,
      "hit": false,
      "t": 356648.4375,
      "d": 234.375,
      "v": 45
    },
    {
      "midi": 76,
      "hit": false,
      "t": 356812.5,
      "d": 179.6875,
      "v": 64
    },
    {
      "midi": 61,
      "hit": false,
      "t": 356960.9375,
      "d": 31.25,
      "v": 98
    },
    {
      "midi": 64,
      "hit": false,
      "t": 356960.9375,
      "d": 31.25,
      "v": 102
    },
    {
      "midi": 61,
      "hit": false,
      "t": 357000,
      "d": 742.1875,
      "v": 98
    },
    {
      "midi": 64,
      "hit": false,
      "t": 357000,
      "d": 742.1875,
      "v": 98
    },
    {
      "midi": 68,
      "hit": false,
      "t": 357000,
      "d": 742.1875,
      "v": 95
    },
    {
      "midi": 74,
      "hit": false,
      "t": 357023.4375,
      "d": 703.125,
      "v": 51
    },
    {
      "midi": 56,
      "hit": false,
      "t": 357375,
      "d": 1117.1875,
      "v": 99
    },
    {
      "midi": 73,
      "hit": false,
      "t": 357671.875,
      "d": 1796.875,
      "v": 61
    },
    {
      "midi": 61,
      "hit": false,
      "t": 357750,
      "d": 367.1875,
      "v": 98
    },
    {
      "midi": 64,
      "hit": false,
      "t": 357750,
      "d": 742.1875,
      "v": 99
    },
    {
      "midi": 68,
      "hit": false,
      "t": 357750,
      "d": 742.1875,
      "v": 95
    },
    {
      "midi": 61,
      "hit": false,
      "t": 358125,
      "d": 367.1875,
      "v": 94
    },
    {
      "midi": 64,
      "hit": false,
      "t": 358500,
      "d": 742.1875,
      "v": 98
    },
    {
      "midi": 68,
      "hit": false,
      "t": 358500,
      "d": 742.1875,
      "v": 100
    },
    {
      "midi": 73,
      "hit": false,
      "t": 358500,
      "d": 742.1875,
      "v": 98
    },
    {
      "midi": 61,
      "hit": false,
      "t": 358875,
      "d": 367.1875,
      "v": 97
    },
    {
      "midi": 68,
      "hit": false,
      "t": 359250,
      "d": 703.125,
      "v": 94
    },
    {
      "midi": 61,
      "hit": false,
      "t": 359250,
      "d": 742.1875,
      "v": 92
    },
    {
      "midi": 64,
      "hit": false,
      "t": 359250,
      "d": 742.1875,
      "v": 92
    },
    {
      "midi": 73,
      "hit": false,
      "t": 359601.5625,
      "d": 2781.25,
      "v": 39
    },
    {
      "midi": 56,
      "hit": false,
      "t": 359625,
      "d": 328.125,
      "v": 99
    },
    {
      "midi": 69,
      "hit": false,
      "t": 359953.125,
      "d": 39.0625,
      "v": 94
    },
    {
      "midi": 57,
      "hit": false,
      "t": 359953.125,
      "d": 414.0625,
      "v": 99
    },
    {
      "midi": 61,
      "hit": false,
      "t": 360000,
      "d": 742.1875,
      "v": 96
    },
    {
      "midi": 64,
      "hit": false,
      "t": 360000,
      "d": 742.1875,
      "v": 103
    },
    {
      "midi": 69,
      "hit": false,
      "t": 360000,
      "d": 742.1875,
      "v": 103
    },
    {
      "midi": 57,
      "hit": false,
      "t": 360375,
      "d": 679.6875,
      "v": 98
    },
    {
      "midi": 61,
      "hit": false,
      "t": 360750,
      "d": 304.6875,
      "v": 94
    },
    {
      "midi": 64,
      "hit": false,
      "t": 360750,
      "d": 742.1875,
      "v": 99
    },
    {
      "midi": 56,
      "hit": false,
      "t": 361054.6875,
      "d": 1.5625,
      "v": 98
    },
    {
      "midi": 57,
      "hit": false,
      "t": 361054.6875,
      "d": 1.5625,
      "v": 98
    },
    {
      "midi": 59,
      "hit": false,
      "t": 361054.6875,
      "d": 1.5625,
      "v": 94
    },
    {
      "midi": 68,
      "hit": false,
      "t": 361054.6875,
      "d": 1.5625,
      "v": 94
    },
    {
      "midi": 69,
      "hit": false,
      "t": 361054.6875,
      "d": 1.5625,
      "v": 94
    },
    {
      "midi": 61,
      "hit": false,
      "t": 361054.6875,
      "d": 437.5,
      "v": 94
    },
    {
      "midi": 56,
      "hit": false,
      "t": 361125,
      "d": 1101.5625,
      "v": 101
    },
    {
      "midi": 61,
      "hit": false,
      "t": 361500,
      "d": 367.1875,
      "v": 94
    },
    {
      "midi": 68,
      "hit": false,
      "t": 361500,
      "d": 726.5625,
      "v": 96
    },
    {
      "midi": 64,
      "hit": false,
      "t": 361500,
      "d": 742.1875,
      "v": 99
    },
    {
      "midi": 61,
      "hit": false,
      "t": 361875,
      "d": 367.1875,
      "v": 94
    },
    {
      "midi": 57,
      "hit": false,
      "t": 362226.5625,
      "d": 15.625,
      "v": 101
    },
    {
      "midi": 69,
      "hit": false,
      "t": 362226.5625,
      "d": 15.625,
      "v": 96
    },
    {
      "midi": 64,
      "hit": false,
      "t": 362250,
      "d": 726.5625,
      "v": 98
    },
    {
      "midi": 67,
      "hit": false,
      "t": 362250,
      "d": 726.5625,
      "v": 99
    },
    {
      "midi": 73,
      "hit": false,
      "t": 362250,
      "d": 726.5625,
      "v": 99
    },
    {
      "midi": 73,
      "hit": false,
      "t": 362609.375,
      "d": 359.375,
      "v": 52
    },
    {
      "midi": 61,
      "hit": false,
      "t": 362625,
      "d": 351.5625,
      "v": 98
    },
    {
      "midi": 78,
      "hit": false,
      "t": 362968.75,
      "d": 1882.8125,
      "v": 53
    },
    {
      "midi": 63,
      "hit": false,
      "t": 362976.5625,
      "d": 1.5625,
      "v": 98
    },
    {
      "midi": 57,
      "hit": false,
      "t": 362976.5625,
      "d": 15.625,
      "v": 98
    },
    {
      "midi": 62,
      "hit": false,
      "t": 362976.5625,
      "d": 15.625,
      "v": 98
    },
    {
      "midi": 66,
      "hit": false,
      "t": 362976.5625,
      "d": 15.625,
      "v": 99
    },
    {
      "midi": 69,
      "hit": false,
      "t": 362976.5625,
      "d": 1515.625,
      "v": 99
    },
    {
      "midi": 57,
      "hit": false,
      "t": 363000,
      "d": 742.1875,
      "v": 94
    },
    {
      "midi": 62,
      "hit": false,
      "t": 363000,
      "d": 742.1875,
      "v": 100
    },
    {
      "midi": 66,
      "hit": false,
      "t": 363000,
      "d": 742.1875,
      "v": 97
    },
    {
      "midi": 54,
      "hit": false,
      "t": 363375,
      "d": 742.1875,
      "v": 99
    },
    {
      "midi": 66,
      "hit": false,
      "t": 363750,
      "d": 367.1875,
      "v": 94
    },
    {
      "midi": 57,
      "hit": false,
      "t": 363750,
      "d": 742.1875,
      "v": 97
    },
    {
      "midi": 62,
      "hit": false,
      "t": 363750,
      "d": 742.1875,
      "v": 95
    },
    {
      "midi": 54,
      "hit": false,
      "t": 364125,
      "d": 1843.75,
      "v": 96
    },
    {
      "midi": 57,
      "hit": false,
      "t": 364500,
      "d": 367.1875,
      "v": 87
    },
    {
      "midi": 62,
      "hit": false,
      "t": 364500,
      "d": 742.1875,
      "v": 87
    },
    {
      "midi": 66,
      "hit": false,
      "t": 364500,
      "d": 742.1875,
      "v": 86
    },
    {
      "midi": 74,
      "hit": false,
      "t": 364859.375,
      "d": 226.5625,
      "v": 70
    },
    {
      "midi": 57,
      "hit": false,
      "t": 364875,
      "d": 367.1875,
      "v": 96
    },
    {
      "midi": 76,
      "hit": false,
      "t": 365046.875,
      "d": 125,
      "v": 83
    },
    {
      "midi": 78,
      "hit": false,
      "t": 365226.5625,
      "d": 281.25,
      "v": 88
    },
    {
      "midi": 66,
      "hit": false,
      "t": 365250,
      "d": 718.75,
      "v": 100
    },
    {
      "midi": 69,
      "hit": false,
      "t": 365250,
      "d": 718.75,
      "v": 99
    },
    {
      "midi": 62,
      "hit": false,
      "t": 365250,
      "d": 742.1875,
      "v": 97
    },
    {
      "midi": 76,
      "hit": false,
      "t": 365531.25,
      "d": 265.625,
      "v": 68
    },
    {
      "midi": 57,
      "hit": false,
      "t": 365625,
      "d": 343.75,
      "v": 97
    },
    {
      "midi": 74,
      "hit": false,
      "t": 365773.4375,
      "d": 187.5,
      "v": 66
    },
    {
      "midi": 59,
      "hit": false,
      "t": 365968.75,
      "d": 23.4375,
      "v": 97
    },
    {
      "midi": 68,
      "hit": false,
      "t": 365968.75,
      "d": 23.4375,
      "v": 100
    },
    {
      "midi": 56,
      "hit": false,
      "t": 365968.75,
      "d": 398.4375,
      "v": 96
    },
    {
      "midi": 71,
      "hit": false,
      "t": 365968.75,
      "d": 2273.4375,
      "v": 99
    },
    {
      "midi": 78,
      "hit": false,
      "t": 365992.1875,
      "d": 1187.5,
      "v": 64
    },
    {
      "midi": 59,
      "hit": false,
      "t": 366000,
      "d": 742.1875,
      "v": 91
    },
    {
      "midi": 62,
      "hit": false,
      "t": 366000,
      "d": 742.1875,
      "v": 95
    },
    {
      "midi": 68,
      "hit": false,
      "t": 366000,
      "d": 742.1875,
      "v": 93
    },
    {
      "midi": 56,
      "hit": false,
      "t": 366375,
      "d": 367.1875,
      "v": 94
    },
    {
      "midi": 68,
      "hit": false,
      "t": 366750,
      "d": 367.1875,
      "v": 96
    },
    {
      "midi": 59,
      "hit": false,
      "t": 366750,
      "d": 742.1875,
      "v": 92
    },
    {
      "midi": 62,
      "hit": false,
      "t": 366750,
      "d": 742.1875,
      "v": 96
    },
    {
      "midi": 76,
      "hit": false,
      "t": 367117.1875,
      "d": 1312.5,
      "v": 65
    },
    {
      "midi": 56,
      "hit": false,
      "t": 367125,
      "d": 367.1875,
      "v": 96
    },
    {
      "midi": 56,
      "hit": false,
      "t": 367500,
      "d": 742.1875,
      "v": 93
    },
    {
      "midi": 59,
      "hit": false,
      "t": 367500,
      "d": 742.1875,
      "v": 97
    },
    {
      "midi": 64,
      "hit": false,
      "t": 367500,
      "d": 742.1875,
      "v": 96
    },
    {
      "midi": 52,
      "hit": false,
      "t": 367875,
      "d": 367.1875,
      "v": 99
    },
    {
      "midi": 62,
      "hit": false,
      "t": 368250,
      "d": 710.9375,
      "v": 99
    },
    {
      "midi": 56,
      "hit": false,
      "t": 368250,
      "d": 718.75,
      "v": 97
    },
    {
      "midi": 59,
      "hit": false,
      "t": 368250,
      "d": 718.75,
      "v": 99
    },
    {
      "midi": 50,
      "hit": false,
      "t": 368625,
      "d": 335.9375,
      "v": 99
    },
    {
      "midi": 76,
      "hit": false,
      "t": 368648.4375,
      "d": 210.9375,
      "v": 81
    },
    {
      "midi": 74,
      "hit": false,
      "t": 368828.125,
      "d": 140.625,
      "v": 70
    },
    {
      "midi": 52,
      "hit": false,
      "t": 368960.9375,
      "d": 31.25,
      "v": 99
    },
    {
      "midi": 64,
      "hit": false,
      "t": 368960.9375,
      "d": 31.25,
      "v": 99
    },
    {
      "midi": 73,
      "hit": false,
      "t": 368968.75,
      "d": 4765.625,
      "v": 55
    },
    {
      "midi": 57,
      "hit": false,
      "t": 368968.75,
      "d": 1.5625,
      "v": 99
    },
    {
      "midi": 61,
      "hit": false,
      "t": 368968.75,
      "d": 23.4375,
      "v": 99
    },
    {
      "midi": 61,
      "hit": false,
      "t": 369000,
      "d": 742.1875,
      "v": 95
    },
    {
      "midi": 64,
      "hit": false,
      "t": 369000,
      "d": 742.1875,
      "v": 94
    },
    {
      "midi": 69,
      "hit": false,
      "t": 369000,
      "d": 742.1875,
      "v": 95
    },
    {
      "midi": 57,
      "hit": false,
      "t": 369375,
      "d": 742.1875,
      "v": 94
    },
    {
      "midi": 61,
      "hit": false,
      "t": 369750,
      "d": 742.1875,
      "v": 96
    },
    {
      "midi": 64,
      "hit": false,
      "t": 369750,
      "d": 742.1875,
      "v": 99
    },
    {
      "midi": 69,
      "hit": false,
      "t": 369750,
      "d": 1492.1875,
      "v": 95
    },
    {
      "midi": 57,
      "hit": false,
      "t": 370125,
      "d": 367.1875,
      "v": 100
    },
    {
      "midi": 57,
      "hit": false,
      "t": 370500,
      "d": 367.1875,
      "v": 93
    },
    {
      "midi": 59,
      "hit": false,
      "t": 370500,
      "d": 742.1875,
      "v": 97
    },
    {
      "midi": 64,
      "hit": false,
      "t": 370500,
      "d": 742.1875,
      "v": 101
    },
    {
      "midi": 57,
      "hit": false,
      "t": 370875,
      "d": 2242.1875,
      "v": 97
    },
    {
      "midi": 61,
      "hit": false,
      "t": 371250,
      "d": 367.1875,
      "v": 95
    },
    {
      "midi": 64,
      "hit": false,
      "t": 371250,
      "d": 742.1875,
      "v": 101
    },
    {
      "midi": 69,
      "hit": false,
      "t": 371250,
      "d": 742.1875,
      "v": 94
    },
    {
      "midi": 61,
      "hit": false,
      "t": 371625,
      "d": 742.1875,
      "v": 99
    },
    {
      "midi": 64,
      "hit": false,
      "t": 372000,
      "d": 742.1875,
      "v": 99
    },
    {
      "midi": 69,
      "hit": false,
      "t": 372000,
      "d": 742.1875,
      "v": 101
    },
    {
      "midi": 73,
      "hit": false,
      "t": 372000,
      "d": 1500,
      "v": 98
    },
    {
      "midi": 61,
      "hit": false,
      "t": 372375,
      "d": 367.1875,
      "v": 97
    },
    {
      "midi": 61,
      "hit": false,
      "t": 372750,
      "d": 742.1875,
      "v": 92
    },
    {
      "midi": 64,
      "hit": false,
      "t": 372750,
      "d": 742.1875,
      "v": 95
    },
    {
      "midi": 69,
      "hit": false,
      "t": 372750,
      "d": 1492.1875,
      "v": 92
    },
    {
      "midi": 57,
      "hit": false,
      "t": 373125,
      "d": 742.1875,
      "v": 100
    },
    {
      "midi": 59,
      "hit": false,
      "t": 373500,
      "d": 742.1875,
      "v": 96
    },
    {
      "midi": 64,
      "hit": false,
      "t": 373500,
      "d": 742.1875,
      "v": 102
    },
    {
      "midi": 71,
      "hit": false,
      "t": 373500,
      "d": 750,
      "v": 98
    },
    {
      "midi": 73,
      "hit": false,
      "t": 373875,
      "d": 625,
      "v": 102
    },
    {
      "midi": 57,
      "hit": false,
      "t": 373875,
      "d": 367.1875,
      "v": 99
    },
    {
      "midi": 64,
      "hit": false,
      "t": 374250,
      "d": 367.1875,
      "v": 98
    },
    {
      "midi": 69,
      "hit": false,
      "t": 374250,
      "d": 367.1875,
      "v": 95
    },
    {
      "midi": 73,
      "hit": false,
      "t": 374250,
      "d": 367.1875,
      "v": 98
    },
    {
      "midi": 61,
      "hit": false,
      "t": 374250,
      "d": 742.1875,
      "v": 98
    },
    {
      "midi": 64,
      "hit": false,
      "t": 374625,
      "d": 367.1875,
      "v": 88
    },
    {
      "midi": 69,
      "hit": false,
      "t": 374625,
      "d": 367.1875,
      "v": 96
    },
    {
      "midi": 73,
      "hit": false,
      "t": 374625,
      "d": 367.1875,
      "v": 95
    },
    {
      "midi": 73,
      "hit": false,
      "t": 374640.625,
      "d": 125,
      "v": 56
    },
    {
      "midi": 74,
      "hit": false,
      "t": 374929.6875,
      "d": 132.8125,
      "v": 56
    },
    {
      "midi": 78,
      "hit": false,
      "t": 374984.375,
      "d": 664.0625,
      "v": 53
    }
  ]
}