{
  "jsonPath": "Pop/Stomp And Holler/Elvis Perkins/ash-wednesday.json",
  "path": "Pop\\Stomp And Holler\\Elvis Perkins\\Ash Wednesday.mid",
  "name": "Ash Wednesday",
  "difficulty": "Advanced",
  "bpm": 80,
  "notes": [
    {
      "midi": 52,
      "hit": false,
      "t": 6000,
      "d": 2150,
      "v": 127
    },
    {
      "midi": 36,
      "hit": false,
      "t": 6000,
      "d": 2187.5,
      "v": 122
    },
    {
      "midi": 48,
      "hit": false,
      "t": 6000,
      "d": 2275,
      "v": 123
    },
    {
      "midi": 55,
      "hit": false,
      "t": 7500,
      "d": 762.5,
      "v": 123
    },
    {
      "midi": 62,
      "hit": false,
      "t": 9000,
      "d": 1562.5,
      "v": 121
    },
    {
      "midi": 40,
      "hit": false,
      "t": 9000,
      "d": 3000,
      "v": 123
    },
    {
      "midi": 55,
      "hit": false,
      "t": 9000,
      "d": 3000,
      "v": 116
    },
    {
      "midi": 52,
      "hit": false,
      "t": 9000,
      "d": 3012.5,
      "v": 121
    },
    {
      "midi": 59,
      "hit": false,
      "t": 9000,
      "d": 3012.5,
      "v": 121
    },
    {
      "midi": 67,
      "hit": false,
      "t": 10500,
      "d": 1525,
      "v": 127
    },
    {
      "midi": 60,
      "hit": false,
      "t": 12000,
      "d": 1137.5,
      "v": 121
    },
    {
      "midi": 57,
      "hit": false,
      "t": 12000,
      "d": 1175,
      "v": 126
    },
    {
      "midi": 45,
      "hit": false,
      "t": 12000,
      "d": 2287.5,
      "v": 121
    },
    {
      "midi": 33,
      "hit": false,
      "t": 12000,
      "d": 6000,
      "v": 119
    },
    {
      "midi": 52,
      "hit": false,
      "t": 12750,
      "d": 1262.5,
      "v": 116
    },
    {
      "midi": 57,
      "hit": false,
      "t": 13500,
      "d": 887.5,
      "v": 123
    },
    {
      "midi": 60,
      "hit": false,
      "t": 13500,
      "d": 887.5,
      "v": 124
    },
    {
      "midi": 52,
      "hit": false,
      "t": 14250,
      "d": 3762.5,
      "v": 121
    },
    {
      "midi": 45,
      "hit": false,
      "t": 14625,
      "d": 875,
      "v": 119
    },
    {
      "midi": 64,
      "hit": false,
      "t": 15000,
      "d": 1537.5,
      "v": 127
    },
    {
      "midi": 45,
      "hit": false,
      "t": 15750,
      "d": 2275,
      "v": 119
    },
    {
      "midi": 62,
      "hit": false,
      "t": 16500,
      "d": 425,
      "v": 114
    },
    {
      "midi": 64,
      "hit": false,
      "t": 16875,
      "d": 462.5,
      "v": 119
    },
    {
      "midi": 62,
      "hit": false,
      "t": 17250,
      "d": 462.5,
      "v": 109
    },
    {
      "midi": 60,
      "hit": false,
      "t": 17625,
      "d": 375,
      "v": 118
    },
    {
      "midi": 53,
      "hit": false,
      "t": 18000,
      "d": 512.5,
      "v": 114
    },
    {
      "midi": 41,
      "hit": false,
      "t": 18000,
      "d": 825,
      "v": 123
    },
    {
      "midi": 60,
      "hit": false,
      "t": 18000,
      "d": 1862.5,
      "v": 122
    },
    {
      "midi": 57,
      "hit": false,
      "t": 18000,
      "d": 2112.5,
      "v": 126
    },
    {
      "midi": 53,
      "hit": false,
      "t": 18750,
      "d": 2075,
      "v": 116
    },
    {
      "midi": 41,
      "hit": false,
      "t": 19125,
      "d": 1725,
      "v": 121
    },
    {
      "midi": 65,
      "hit": false,
      "t": 19500,
      "d": 2687.5,
      "v": 118
    },
    {
      "midi": 60,
      "hit": false,
      "t": 20250,
      "d": 3750,
      "v": 116
    },
    {
      "midi": 57,
      "hit": false,
      "t": 20625,
      "d": 212.5,
      "v": 116
    },
    {
      "midi": 53,
      "hit": false,
      "t": 21000,
      "d": 512.5,
      "v": 123
    },
    {
      "midi": 41,
      "hit": false,
      "t": 21000,
      "d": 875,
      "v": 127
    },
    {
      "midi": 56,
      "hit": false,
      "t": 21000,
      "d": 3000,
      "v": 127
    },
    {
      "midi": 53,
      "hit": false,
      "t": 21750,
      "d": 1312.5,
      "v": 117
    },
    {
      "midi": 41,
      "hit": false,
      "t": 22125,
      "d": 1875,
      "v": 127
    },
    {
      "midi": 65,
      "hit": false,
      "t": 22500,
      "d": 1475,
      "v": 121
    },
    {
      "midi": 53,
      "hit": false,
      "t": 23250,
      "d": 737.5,
      "v": 126
    },
    {
      "midi": 59,
      "hit": false,
      "t": 24000,
      "d": 500,
      "v": 122
    },
    {
      "midi": 55,
      "hit": false,
      "t": 24000,
      "d": 812.5,
      "v": 124
    },
    {
      "midi": 62,
      "hit": false,
      "t": 24000,
      "d": 1225,
      "v": 127
    },
    {
      "midi": 43,
      "hit": false,
      "t": 24000,
      "d": 5887.5,
      "v": 118
    },
    {
      "midi": 59,
      "hit": false,
      "t": 24750,
      "d": 425,
      "v": 114
    },
    {
      "midi": 55,
      "hit": false,
      "t": 25125,
      "d": 1075,
      "v": 119
    },
    {
      "midi": 59,
      "hit": false,
      "t": 25500,
      "d": 475,
      "v": 126
    },
    {
      "midi": 67,
      "hit": false,
      "t": 25500,
      "d": 750,
      "v": 126
    },
    {
      "midi": 62,
      "hit": false,
      "t": 25500,
      "d": 775,
      "v": 127
    },
    {
      "midi": 59,
      "hit": false,
      "t": 26250,
      "d": 150,
      "v": 116
    },
    {
      "midi": 55,
      "hit": false,
      "t": 26625,
      "d": 3362.5,
      "v": 124
    },
    {
      "midi": 71,
      "hit": false,
      "t": 27000,
      "d": 375,
      "v": 122
    },
    {
      "midi": 67,
      "hit": false,
      "t": 27000,
      "d": 412.5,
      "v": 113
    },
    {
      "midi": 69,
      "hit": false,
      "t": 27375,
      "d": 487.5,
      "v": 111
    },
    {
      "midi": 72,
      "hit": false,
      "t": 27375,
      "d": 500,
      "v": 106
    },
    {
      "midi": 71,
      "hit": false,
      "t": 27750,
      "d": 412.5,
      "v": 118
    },
    {
      "midi": 74,
      "hit": false,
      "t": 27750,
      "d": 412.5,
      "v": 124
    },
    {
      "midi": 71,
      "hit": false,
      "t": 28500,
      "d": 312.5,
      "v": 116
    },
    {
      "midi": 74,
      "hit": false,
      "t": 28500,
      "d": 375,
      "v": 123
    },
    {
      "midi": 76,
      "hit": false,
      "t": 28875,
      "d": 262.5,
      "v": 109
    },
    {
      "midi": 72,
      "hit": false,
      "t": 28875,
      "d": 287.5,
      "v": 102
    },
    {
      "midi": 74,
      "hit": false,
      "t": 29250,
      "d": 237.5,
      "v": 114
    },
    {
      "midi": 77,
      "hit": false,
      "t": 29250,
      "d": 250,
      "v": 118
    },
    {
      "midi": 76,
      "hit": false,
      "t": 29625,
      "d": 350,
      "v": 122
    },
    {
      "midi": 79,
      "hit": false,
      "t": 29625,
      "d": 362.5,
      "v": 127
    },
    {
      "midi": 67,
      "hit": false,
      "t": 30000,
      "d": 437.5,
      "v": 123
    },
    {
      "midi": 76,
      "hit": false,
      "t": 30000,
      "d": 700,
      "v": 127
    },
    {
      "midi": 48,
      "hit": false,
      "t": 30000,
      "d": 725,
      "v": 126
    },
    {
      "midi": 72,
      "hit": false,
      "t": 30000,
      "d": 750,
      "v": 127
    },
    {
      "midi": 36,
      "hit": false,
      "t": 30000,
      "d": 2600,
      "v": 124
    },
    {
      "midi": 67,
      "hit": false,
      "t": 30750,
      "d": 162.5,
      "v": 107
    },
    {
      "midi": 48,
      "hit": false,
      "t": 31125,
      "d": 1262.5,
      "v": 112
    },
    {
      "midi": 55,
      "hit": false,
      "t": 31500,
      "d": 537.5,
      "v": 126
    },
    {
      "midi": 64,
      "hit": false,
      "t": 31500,
      "d": 1250,
      "v": 122
    },
    {
      "midi": 60,
      "hit": false,
      "t": 31500,
      "d": 1300,
      "v": 126
    },
    {
      "midi": 55,
      "hit": false,
      "t": 32250,
      "d": 500,
      "v": 114
    },
    {
      "midi": 48,
      "hit": false,
      "t": 32625,
      "d": 162.5,
      "v": 96
    },
    {
      "midi": 55,
      "hit": false,
      "t": 33000,
      "d": 575,
      "v": 121
    },
    {
      "midi": 52,
      "hit": false,
      "t": 33000,
      "d": 1025,
      "v": 123
    },
    {
      "midi": 40,
      "hit": false,
      "t": 33000,
      "d": 3000,
      "v": 122
    },
    {
      "midi": 59,
      "hit": false,
      "t": 33000,
      "d": 3000,
      "v": 123
    },
    {
      "midi": 62,
      "hit": false,
      "t": 33000,
      "d": 3000,
      "v": 123
    },
    {
      "midi": 55,
      "hit": false,
      "t": 33750,
      "d": 1237.5,
      "v": 121
    },
    {
      "midi": 67,
      "hit": false,
      "t": 34500,
      "d": 1500,
      "v": 122
    },
    {
      "midi": 55,
      "hit": false,
      "t": 35250,
      "d": 750,
      "v": 114
    },
    {
      "midi": 52,
      "hit": false,
      "t": 35625,
      "d": 375,
      "v": 116
    },
    {
      "midi": 60,
      "hit": false,
      "t": 36000,
      "d": 1137.5,
      "v": 121
    },
    {
      "midi": 57,
      "hit": false,
      "t": 36000,
      "d": 1175,
      "v": 126
    },
    {
      "midi": 45,
      "hit": false,
      "t": 36000,
      "d": 2287.5,
      "v": 121
    },
    {
      "midi": 33,
      "hit": false,
      "t": 36000,
      "d": 6000,
      "v": 119
    },
    {
      "midi": 52,
      "hit": false,
      "t": 36750,
      "d": 1262.5,
      "v": 116
    },
    {
      "midi": 57,
      "hit": false,
      "t": 37500,
      "d": 887.5,
      "v": 123
    },
    {
      "midi": 60,
      "hit": false,
      "t": 37500,
      "d": 887.5,
      "v": 124
    },
    {
      "midi": 52,
      "hit": false,
      "t": 38250,
      "d": 3762.5,
      "v": 121
    },
    {
      "midi": 45,
      "hit": false,
      "t": 38625,
      "d": 875,
      "v": 119
    },
    {
      "midi": 64,
      "hit": false,
      "t": 39000,
      "d": 1537.5,
      "v": 127
    },
    {
      "midi": 45,
      "hit": false,
      "t": 39750,
      "d": 2275,
      "v": 119
    },
    {
      "midi": 62,
      "hit": false,
      "t": 40500,
      "d": 425,
      "v": 114
    },
    {
      "midi": 64,
      "hit": false,
      "t": 40875,
      "d": 462.5,
      "v": 119
    },
    {
      "midi": 62,
      "hit": false,
      "t": 41250,
      "d": 462.5,
      "v": 109
    },
    {
      "midi": 60,
      "hit": false,
      "t": 41625,
      "d": 375,
      "v": 118
    },
    {
      "midi": 57,
      "hit": false,
      "t": 42000,
      "d": 550,
      "v": 114
    },
    {
      "midi": 53,
      "hit": false,
      "t": 42000,
      "d": 787.5,
      "v": 110
    },
    {
      "midi": 60,
      "hit": false,
      "t": 42000,
      "d": 850,
      "v": 118
    },
    {
      "midi": 65,
      "hit": false,
      "t": 42000,
      "d": 875,
      "v": 119
    },
    {
      "midi": 41,
      "hit": false,
      "t": 42000,
      "d": 2575,
      "v": 113
    },
    {
      "midi": 57,
      "hit": false,
      "t": 42750,
      "d": 187.5,
      "v": 109
    },
    {
      "midi": 53,
      "hit": false,
      "t": 43125,
      "d": 1050,
      "v": 109
    },
    {
      "midi": 60,
      "hit": false,
      "t": 43500,
      "d": 400,
      "v": 121
    },
    {
      "midi": 65,
      "hit": false,
      "t": 43500,
      "d": 825,
      "v": 121
    },
    {
      "midi": 69,
      "hit": false,
      "t": 43500,
      "d": 937.5,
      "v": 121
    },
    {
      "midi": 60,
      "hit": false,
      "t": 44250,
      "d": 262.5,
      "v": 100
    },
    {
      "midi": 53,
      "hit": false,
      "t": 44625,
      "d": 150,
      "v": 99
    },
    {
      "midi": 60,
      "hit": false,
      "t": 45000,
      "d": 575,
      "v": 122
    },
    {
      "midi": 54,
      "hit": false,
      "t": 45000,
      "d": 825,
      "v": 120
    },
    {
      "midi": 69,
      "hit": false,
      "t": 45000,
      "d": 1200,
      "v": 121
    },
    {
      "midi": 66,
      "hit": false,
      "t": 45000,
      "d": 1212.5,
      "v": 122
    },
    {
      "midi": 42,
      "hit": false,
      "t": 45000,
      "d": 2925,
      "v": 117
    },
    {
      "midi": 60,
      "hit": false,
      "t": 45750,
      "d": 412.5,
      "v": 84
    },
    {
      "midi": 60,
      "hit": false,
      "t": 46500,
      "d": 512.5,
      "v": 127
    },
    {
      "midi": 66,
      "hit": false,
      "t": 46500,
      "d": 1425,
      "v": 125
    },
    {
      "midi": 69,
      "hit": false,
      "t": 46500,
      "d": 1437.5,
      "v": 124
    },
    {
      "midi": 60,
      "hit": false,
      "t": 47250,
      "d": 700,
      "v": 113
    },
    {
      "midi": 54,
      "hit": false,
      "t": 47625,
      "d": 287.5,
      "v": 120
    },
    {
      "midi": 59,
      "hit": false,
      "t": 48000,
      "d": 500,
      "v": 122
    },
    {
      "midi": 55,
      "hit": false,
      "t": 48000,
      "d": 812.5,
      "v": 124
    },
    {
      "midi": 62,
      "hit": false,
      "t": 48000,
      "d": 1225,
      "v": 127
    },
    {
      "midi": 43,
      "hit": false,
      "t": 48000,
      "d": 5887.5,
      "v": 118
    },
    {
      "midi": 59,
      "hit": false,
      "t": 48750,
      "d": 425,
      "v": 114
    },
    {
      "midi": 55,
      "hit": false,
      "t": 49125,
      "d": 1075,
      "v": 119
    },
    {
      "midi": 59,
      "hit": false,
      "t": 49500,
      "d": 475,
      "v": 126
    },
    {
      "midi": 67,
      "hit": false,
      "t": 49500,
      "d": 750,
      "v": 126
    },
    {
      "midi": 62,
      "hit": false,
      "t": 49500,
      "d": 775,
      "v": 127
    },
    {
      "midi": 59,
      "hit": false,
      "t": 50250,
      "d": 150,
      "v": 116
    },
    {
      "midi": 55,
      "hit": false,
      "t": 50625,
      "d": 3362.5,
      "v": 124
    },
    {
      "midi": 83,
      "hit": false,
      "t": 51000,
      "d": 375,
      "v": 122
    },
    {
      "midi": 79,
      "hit": false,
      "t": 51000,
      "d": 412.5,
      "v": 113
    },
    {
      "midi": 81,
      "hit": false,
      "t": 51375,
      "d": 487.5,
      "v": 111
    },
    {
      "midi": 84,
      "hit": false,
      "t": 51375,
      "d": 500,
      "v": 106
    },
    {
      "midi": 83,
      "hit": false,
      "t": 51750,
      "d": 412.5,
      "v": 118
    },
    {
      "midi": 86,
      "hit": false,
      "t": 51750,
      "d": 412.5,
      "v": 124
    },
    {
      "midi": 83,
      "hit": false,
      "t": 52500,
      "d": 312.5,
      "v": 116
    },
    {
      "midi": 86,
      "hit": false,
      "t": 52500,
      "d": 375,
      "v": 123
    },
    {
      "midi": 88,
      "hit": false,
      "t": 52875,
      "d": 262.5,
      "v": 109
    },
    {
      "midi": 84,
      "hit": false,
      "t": 52875,
      "d": 287.5,
      "v": 102
    },
    {
      "midi": 86,
      "hit": false,
      "t": 53250,
      "d": 237.5,
      "v": 114
    },
    {
      "midi": 89,
      "hit": false,
      "t": 53250,
      "d": 250,
      "v": 118
    },
    {
      "midi": 88,
      "hit": false,
      "t": 53625,
      "d": 350,
      "v": 122
    },
    {
      "midi": 91,
      "hit": false,
      "t": 53625,
      "d": 362.5,
      "v": 127
    },
    {
      "midi": 55,
      "hit": false,
      "t": 54000,
      "d": 587.5,
      "v": 120
    },
    {
      "midi": 64,
      "hit": false,
      "t": 54000,
      "d": 1100,
      "v": 117
    },
    {
      "midi": 60,
      "hit": false,
      "t": 54000,
      "d": 1112.5,
      "v": 120
    },
    {
      "midi": 55,
      "hit": false,
      "t": 54750,
      "d": 337.5,
      "v": 92
    },
    {
      "midi": 55,
      "hit": false,
      "t": 55500,
      "d": 500,
      "v": 117
    },
    {
      "midi": 64,
      "hit": false,
      "t": 55500,
      "d": 1100,
      "v": 116
    },
    {
      "midi": 60,
      "hit": false,
      "t": 55500,
      "d": 1112.5,
      "v": 118
    },
    {
      "midi": 55,
      "hit": false,
      "t": 56250,
      "d": 337.5,
      "v": 98
    },
    {
      "midi": 55,
      "hit": false,
      "t": 57000,
      "d": 537.5,
      "v": 112
    },
    {
      "midi": 59,
      "hit": false,
      "t": 57000,
      "d": 975,
      "v": 118
    },
    {
      "midi": 62,
      "hit": false,
      "t": 57000,
      "d": 1025,
      "v": 114
    },
    {
      "midi": 55,
      "hit": false,
      "t": 57750,
      "d": 350,
      "v": 104
    },
    {
      "midi": 55,
      "hit": false,
      "t": 58500,
      "d": 437.5,
      "v": 111
    },
    {
      "midi": 59,
      "hit": false,
      "t": 58500,
      "d": 862.5,
      "v": 116
    },
    {
      "midi": 62,
      "hit": false,
      "t": 58500,
      "d": 1050,
      "v": 114
    },
    {
      "midi": 55,
      "hit": false,
      "t": 59250,
      "d": 300,
      "v": 108
    },
    {
      "midi": 57,
      "hit": false,
      "t": 60000,
      "d": 537.5,
      "v": 114
    },
    {
      "midi": 60,
      "hit": false,
      "t": 60000,
      "d": 887.5,
      "v": 114
    },
    {
      "midi": 64,
      "hit": false,
      "t": 60000,
      "d": 1025,
      "v": 113
    },
    {
      "midi": 57,
      "hit": false,
      "t": 60750,
      "d": 325,
      "v": 107
    },
    {
      "midi": 57,
      "hit": false,
      "t": 61500,
      "d": 487.5,
      "v": 117
    },
    {
      "midi": 64,
      "hit": false,
      "t": 61500,
      "d": 737.5,
      "v": 117
    },
    {
      "midi": 60,
      "hit": false,
      "t": 61500,
      "d": 750,
      "v": 120
    },
    {
      "midi": 57,
      "hit": false,
      "t": 62250,
      "d": 325,
      "v": 108
    },
    {
      "midi": 57,
      "hit": false,
      "t": 63000,
      "d": 450,
      "v": 117
    },
    {
      "midi": 64,
      "hit": false,
      "t": 63000,
      "d": 1400,
      "v": 116
    },
    {
      "midi": 60,
      "hit": false,
      "t": 63000,
      "d": 1587.5,
      "v": 118
    },
    {
      "midi": 57,
      "hit": false,
      "t": 63750,
      "d": 2250,
      "v": 109
    },
    {
      "midi": 62,
      "hit": false,
      "t": 64500,
      "d": 450,
      "v": 106
    },
    {
      "midi": 64,
      "hit": false,
      "t": 64875,
      "d": 475,
      "v": 103
    },
    {
      "midi": 62,
      "hit": false,
      "t": 65250,
      "d": 450,
      "v": 104
    },
    {
      "midi": 60,
      "hit": false,
      "t": 65625,
      "d": 337.5,
      "v": 116
    },
    {
      "midi": 57,
      "hit": false,
      "t": 66000,
      "d": 512.5,
      "v": 114
    },
    {
      "midi": 64,
      "hit": false,
      "t": 66000,
      "d": 950,
      "v": 113
    },
    {
      "midi": 60,
      "hit": false,
      "t": 66000,
      "d": 975,
      "v": 120
    },
    {
      "midi": 57,
      "hit": false,
      "t": 66750,
      "d": 312.5,
      "v": 106
    },
    {
      "midi": 57,
      "hit": false,
      "t": 67500,
      "d": 500,
      "v": 116
    },
    {
      "midi": 64,
      "hit": false,
      "t": 67500,
      "d": 725,
      "v": 114
    },
    {
      "midi": 60,
      "hit": false,
      "t": 67500,
      "d": 762.5,
      "v": 118
    },
    {
      "midi": 57,
      "hit": false,
      "t": 68250,
      "d": 187.5,
      "v": 109
    },
    {
      "midi": 54,
      "hit": false,
      "t": 69000,
      "d": 475,
      "v": 116
    },
    {
      "midi": 63,
      "hit": false,
      "t": 69000,
      "d": 1175,
      "v": 115
    },
    {
      "midi": 59,
      "hit": false,
      "t": 69000,
      "d": 1187.5,
      "v": 111
    },
    {
      "midi": 54,
      "hit": false,
      "t": 69750,
      "d": 387.5,
      "v": 103
    },
    {
      "midi": 54,
      "hit": false,
      "t": 70500,
      "d": 500,
      "v": 115
    },
    {
      "midi": 63,
      "hit": false,
      "t": 70500,
      "d": 1450,
      "v": 115
    },
    {
      "midi": 59,
      "hit": false,
      "t": 70500,
      "d": 1475,
      "v": 102
    },
    {
      "midi": 54,
      "hit": false,
      "t": 71250,
      "d": 637.5,
      "v": 120
    },
    {
      "midi": 55,
      "hit": false,
      "t": 72000,
      "d": 562.5,
      "v": 114
    },
    {
      "midi": 59,
      "hit": false,
      "t": 72000,
      "d": 937.5,
      "v": 118
    },
    {
      "midi": 64,
      "hit": false,
      "t": 72000,
      "d": 1000,
      "v": 116
    },
    {
      "midi": 55,
      "hit": false,
      "t": 72750,
      "d": 275,
      "v": 94
    },
    {
      "midi": 55,
      "hit": false,
      "t": 73500,
      "d": 512.5,
      "v": 116
    },
    {
      "midi": 59,
      "hit": false,
      "t": 73500,
      "d": 787.5,
      "v": 116
    },
    {
      "midi": 64,
      "hit": false,
      "t": 73500,
      "d": 887.5,
      "v": 116
    },
    {
      "midi": 55,
      "hit": false,
      "t": 74250,
      "d": 225,
      "v": 99
    },
    {
      "midi": 55,
      "hit": false,
      "t": 75000,
      "d": 475,
      "v": 116
    },
    {
      "midi": 62,
      "hit": false,
      "t": 75000,
      "d": 775,
      "v": 117
    },
    {
      "midi": 58,
      "hit": false,
      "t": 75000,
      "d": 875,
      "v": 121
    },
    {
      "midi": 55,
      "hit": false,
      "t": 75750,
      "d": 212.5,
      "v": 102
    },
    {
      "midi": 57,
      "hit": false,
      "t": 76500,
      "d": 550,
      "v": 118
    },
    {
      "midi": 61,
      "hit": false,
      "t": 76500,
      "d": 1437.5,
      "v": 121
    },
    {
      "midi": 64,
      "hit": false,
      "t": 76500,
      "d": 1475,
      "v": 116
    },
    {
      "midi": 57,
      "hit": false,
      "t": 77250,
      "d": 737.5,
      "v": 114
    },
    {
      "midi": 57,
      "hit": false,
      "t": 78000,
      "d": 600,
      "v": 118
    },
    {
      "midi": 65,
      "hit": false,
      "t": 78000,
      "d": 1137.5,
      "v": 120
    },
    {
      "midi": 62,
      "hit": false,
      "t": 78000,
      "d": 1175,
      "v": 112
    },
    {
      "midi": 57,
      "hit": false,
      "t": 78750,
      "d": 362.5,
      "v": 103
    },
    {
      "midi": 57,
      "hit": false,
      "t": 79500,
      "d": 475,
      "v": 120
    },
    {
      "midi": 62,
      "hit": false,
      "t": 79500,
      "d": 850,
      "v": 116
    },
    {
      "midi": 65,
      "hit": false,
      "t": 79500,
      "d": 887.5,
      "v": 117
    },
    {
      "midi": 57,
      "hit": false,
      "t": 80250,
      "d": 200,
      "v": 100
    },
    {
      "midi": 56,
      "hit": false,
      "t": 81000,
      "d": 475,
      "v": 116
    },
    {
      "midi": 65,
      "hit": false,
      "t": 81000,
      "d": 662.5,
      "v": 113
    },
    {
      "midi": 60,
      "hit": false,
      "t": 81000,
      "d": 725,
      "v": 112
    },
    {
      "midi": 56,
      "hit": false,
      "t": 81750,
      "d": 187.5,
      "v": 110
    },
    {
      "midi": 60,
      "hit": false,
      "t": 82500,
      "d": 537.5,
      "v": 116
    },
    {
      "midi": 68,
      "hit": false,
      "t": 82500,
      "d": 1462.5,
      "v": 118
    },
    {
      "midi": 65,
      "hit": false,
      "t": 82500,
      "d": 1487.5,
      "v": 111
    },
    {
      "midi": 60,
      "hit": false,
      "t": 83250,
      "d": 725,
      "v": 111
    },
    {
      "midi": 59,
      "hit": false,
      "t": 84000,
      "d": 537.5,
      "v": 121
    },
    {
      "midi": 67,
      "hit": false,
      "t": 84000,
      "d": 937.5,
      "v": 120
    },
    {
      "midi": 64,
      "hit": false,
      "t": 84000,
      "d": 987.5,
      "v": 118
    },
    {
      "midi": 59,
      "hit": false,
      "t": 84750,
      "d": 262.5,
      "v": 99
    },
    {
      "midi": 59,
      "hit": false,
      "t": 85500,
      "d": 412.5,
      "v": 117
    },
    {
      "midi": 67,
      "hit": false,
      "t": 85500,
      "d": 687.5,
      "v": 116
    },
    {
      "midi": 64,
      "hit": false,
      "t": 85500,
      "d": 737.5,
      "v": 116
    },
    {
      "midi": 59,
      "hit": false,
      "t": 86250,
      "d": 175,
      "v": 106
    },
    {
      "midi": 61,
      "hit": false,
      "t": 87000,
      "d": 412.5,
      "v": 119
    },
    {
      "midi": 64,
      "hit": false,
      "t": 87000,
      "d": 787.5,
      "v": 112
    },
    {
      "midi": 69,
      "hit": false,
      "t": 87000,
      "d": 812.5,
      "v": 113
    },
    {
      "midi": 61,
      "hit": false,
      "t": 87750,
      "d": 187.5,
      "v": 110
    },
    {
      "midi": 61,
      "hit": false,
      "t": 88125,
      "d": 1250,
      "v": 105
    },
    {
      "midi": 64,
      "hit": false,
      "t": 88500,
      "d": 500,
      "v": 104
    },
    {
      "midi": 73,
      "hit": false,
      "t": 88500,
      "d": 1550,
      "v": 119
    },
    {
      "midi": 69,
      "hit": false,
      "t": 88875,
      "d": 1125,
      "v": 102
    },
    {
      "midi": 64,
      "hit": false,
      "t": 89250,
      "d": 725,
      "v": 107
    },
    {
      "midi": 61,
      "hit": false,
      "t": 89625,
      "d": 387.5,
      "v": 114
    },
    {
      "midi": 62,
      "hit": false,
      "t": 90000,
      "d": 500,
      "v": 117
    },
    {
      "midi": 69,
      "hit": false,
      "t": 90000,
      "d": 687.5,
      "v": 117
    },
    {
      "midi": 65,
      "hit": false,
      "t": 90000,
      "d": 737.5,
      "v": 121
    },
    {
      "midi": 62,
      "hit": false,
      "t": 90750,
      "d": 187.5,
      "v": 108
    },
    {
      "midi": 65,
      "hit": false,
      "t": 91500,
      "d": 462.5,
      "v": 117
    },
    {
      "midi": 74,
      "hit": false,
      "t": 91500,
      "d": 1162.5,
      "v": 122
    },
    {
      "midi": 69,
      "hit": false,
      "t": 91500,
      "d": 1187.5,
      "v": 120
    },
    {
      "midi": 65,
      "hit": false,
      "t": 92250,
      "d": 437.5,
      "v": 111
    },
    {
      "midi": 67,
      "hit": false,
      "t": 93000,
      "d": 450,
      "v": 116
    },
    {
      "midi": 74,
      "hit": false,
      "t": 93000,
      "d": 1125,
      "v": 121
    },
    {
      "midi": 71,
      "hit": false,
      "t": 93000,
      "d": 1187.5,
      "v": 121
    },
    {
      "midi": 67,
      "hit": false,
      "t": 93750,
      "d": 400,
      "v": 104
    },
    {
      "midi": 62,
      "hit": false,
      "t": 94125,
      "d": 450,
      "v": 107
    },
    {
      "midi": 69,
      "hit": false,
      "t": 94500,
      "d": 387.5,
      "v": 121
    },
    {
      "midi": 74,
      "hit": false,
      "t": 94500,
      "d": 525,
      "v": 120
    },
    {
      "midi": 71,
      "hit": false,
      "t": 94875,
      "d": 375,
      "v": 106
    },
    {
      "midi": 67,
      "hit": false,
      "t": 95250,
      "d": 412.5,
      "v": 109
    },
    {
      "midi": 62,
      "hit": false,
      "t": 95625,
      "d": 337.5,
      "v": 109
    },
    {
      "midi": 64,
      "hit": false,
      "t": 96000,
      "d": 462.5,
      "v": 117
    },
    {
      "midi": 67,
      "hit": false,
      "t": 96000,
      "d": 800,
      "v": 118
    },
    {
      "midi": 72,
      "hit": false,
      "t": 96000,
      "d": 812.5,
      "v": 120
    },
    {
      "midi": 64,
      "hit": false,
      "t": 96750,
      "d": 287.5,
      "v": 112
    },
    {
      "midi": 55,
      "hit": false,
      "t": 97125,
      "d": 1287.5,
      "v": 108
    },
    {
      "midi": 62,
      "hit": false,
      "t": 97500,
      "d": 375,
      "v": 122
    },
    {
      "midi": 67,
      "hit": false,
      "t": 97500,
      "d": 912.5,
      "v": 120
    },
    {
      "midi": 64,
      "hit": false,
      "t": 97875,
      "d": 575,
      "v": 99
    },
    {
      "midi": 60,
      "hit": false,
      "t": 98250,
      "d": 375,
      "v": 114
    },
    {
      "midi": 55,
      "hit": false,
      "t": 98625,
      "d": 325,
      "v": 113
    },
    {
      "midi": 57,
      "hit": false,
      "t": 99000,
      "d": 537.5,
      "v": 125
    },
    {
      "midi": 60,
      "hit": false,
      "t": 99000,
      "d": 950,
      "v": 124
    },
    {
      "midi": 65,
      "hit": false,
      "t": 99000,
      "d": 1100,
      "v": 124
    },
    {
      "midi": 57,
      "hit": false,
      "t": 99750,
      "d": 312.5,
      "v": 112
    },
    {
      "midi": 59,
      "hit": false,
      "t": 100500,
      "d": 500,
      "v": 122
    },
    {
      "midi": 67,
      "hit": false,
      "t": 100500,
      "d": 1450,
      "v": 121
    },
    {
      "midi": 62,
      "hit": false,
      "t": 100500,
      "d": 1475,
      "v": 125
    },
    {
      "midi": 59,
      "hit": false,
      "t": 101250,
      "d": 662.5,
      "v": 117
    },
    {
      "midi": 55,
      "hit": false,
      "t": 102000,
      "d": 587.5,
      "v": 120
    },
    {
      "midi": 64,
      "hit": false,
      "t": 102000,
      "d": 1100,
      "v": 117
    },
    {
      "midi": 60,
      "hit": false,
      "t": 102000,
      "d": 1112.5,
      "v": 120
    },
    {
      "midi": 55,
      "hit": false,
      "t": 102750,
      "d": 337.5,
      "v": 92
    },
    {
      "midi": 55,
      "hit": false,
      "t": 103500,
      "d": 500,
      "v": 117
    },
    {
      "midi": 64,
      "hit": false,
      "t": 103500,
      "d": 1100,
      "v": 116
    },
    {
      "midi": 60,
      "hit": false,
      "t": 103500,
      "d": 1112.5,
      "v": 118
    },
    {
      "midi": 55,
      "hit": false,
      "t": 104250,
      "d": 337.5,
      "v": 98
    },
    {
      "midi": 55,
      "hit": false,
      "t": 105000,
      "d": 537.5,
      "v": 112
    },
    {
      "midi": 59,
      "hit": false,
      "t": 105000,
      "d": 975,
      "v": 118
    },
    {
      "midi": 62,
      "hit": false,
      "t": 105000,
      "d": 1025,
      "v": 114
    },
    {
      "midi": 55,
      "hit": false,
      "t": 105750,
      "d": 350,
      "v": 104
    },
    {
      "midi": 55,
      "hit": false,
      "t": 106500,
      "d": 437.5,
      "v": 111
    },
    {
      "midi": 59,
      "hit": false,
      "t": 106500,
      "d": 862.5,
      "v": 116
    },
    {
      "midi": 62,
      "hit": false,
      "t": 106500,
      "d": 1050,
      "v": 114
    },
    {
      "midi": 55,
      "hit": false,
      "t": 107250,
      "d": 300,
      "v": 108
    },
    {
      "midi": 57,
      "hit": false,
      "t": 108000,
      "d": 537.5,
      "v": 114
    },
    {
      "midi": 60,
      "hit": false,
      "t": 108000,
      "d": 887.5,
      "v": 114
    },
    {
      "midi": 64,
      "hit": false,
      "t": 108000,
      "d": 1025,
      "v": 113
    },
    {
      "midi": 57,
      "hit": false,
      "t": 108750,
      "d": 325,
      "v": 107
    },
    {
      "midi": 57,
      "hit": false,
      "t": 109500,
      "d": 487.5,
      "v": 117
    },
    {
      "midi": 64,
      "hit": false,
      "t": 109500,
      "d": 737.5,
      "v": 117
    },
    {
      "midi": 60,
      "hit": false,
      "t": 109500,
      "d": 750,
      "v": 120
    },
    {
      "midi": 57,
      "hit": false,
      "t": 110250,
      "d": 325,
      "v": 108
    },
    {
      "midi": 57,
      "hit": false,
      "t": 111000,
      "d": 450,
      "v": 117
    },
    {
      "midi": 64,
      "hit": false,
      "t": 111000,
      "d": 1400,
      "v": 116
    },
    {
      "midi": 60,
      "hit": false,
      "t": 111000,
      "d": 1587.5,
      "v": 118
    },
    {
      "midi": 57,
      "hit": false,
      "t": 111750,
      "d": 2250,
      "v": 109
    },
    {
      "midi": 62,
      "hit": false,
      "t": 112500,
      "d": 450,
      "v": 106
    },
    {
      "midi": 64,
      "hit": false,
      "t": 112875,
      "d": 475,
      "v": 103
    },
    {
      "midi": 62,
      "hit": false,
      "t": 113250,
      "d": 450,
      "v": 104
    },
    {
      "midi": 60,
      "hit": false,
      "t": 113625,
      "d": 337.5,
      "v": 116
    },
    {
      "midi": 57,
      "hit": false,
      "t": 114000,
      "d": 512.5,
      "v": 114
    },
    {
      "midi": 64,
      "hit": false,
      "t": 114000,
      "d": 950,
      "v": 113
    },
    {
      "midi": 60,
      "hit": false,
      "t": 114000,
      "d": 975,
      "v": 120
    },
    {
      "midi": 57,
      "hit": false,
      "t": 114750,
      "d": 312.5,
      "v": 106
    },
    {
      "midi": 57,
      "hit": false,
      "t": 115500,
      "d": 500,
      "v": 116
    },
    {
      "midi": 64,
      "hit": false,
      "t": 115500,
      "d": 725,
      "v": 114
    },
    {
      "midi": 60,
      "hit": false,
      "t": 115500,
      "d": 762.5,
      "v": 118
    },
    {
      "midi": 57,
      "hit": false,
      "t": 116250,
      "d": 187.5,
      "v": 109
    },
    {
      "midi": 54,
      "hit": false,
      "t": 117000,
      "d": 475,
      "v": 116
    },
    {
      "midi": 63,
      "hit": false,
      "t": 117000,
      "d": 1175,
      "v": 115
    },
    {
      "midi": 59,
      "hit": false,
      "t": 117000,
      "d": 1187.5,
      "v": 111
    },
    {
      "midi": 54,
      "hit": false,
      "t": 117750,
      "d": 387.5,
      "v": 103
    },
    {
      "midi": 54,
      "hit": false,
      "t": 118500,
      "d": 500,
      "v": 115
    },
    {
      "midi": 63,
      "hit": false,
      "t": 118500,
      "d": 1450,
      "v": 115
    },
    {
      "midi": 59,
      "hit": false,
      "t": 118500,
      "d": 1475,
      "v": 102
    },
    {
      "midi": 54,
      "hit": false,
      "t": 119250,
      "d": 637.5,
      "v": 120
    },
    {
      "midi": 55,
      "hit": false,
      "t": 120000,
      "d": 562.5,
      "v": 114
    },
    {
      "midi": 59,
      "hit": false,
      "t": 120000,
      "d": 937.5,
      "v": 118
    },
    {
      "midi": 64,
      "hit": false,
      "t": 120000,
      "d": 1000,
      "v": 116
    },
    {
      "midi": 55,
      "hit": false,
      "t": 120750,
      "d": 275,
      "v": 94
    },
    {
      "midi": 55,
      "hit": false,
      "t": 121500,
      "d": 512.5,
      "v": 116
    },
    {
      "midi": 59,
      "hit": false,
      "t": 121500,
      "d": 787.5,
      "v": 116
    },
    {
      "midi": 64,
      "hit": false,
      "t": 121500,
      "d": 887.5,
      "v": 116
    },
    {
      "midi": 55,
      "hit": false,
      "t": 122250,
      "d": 225,
      "v": 99
    },
    {
      "midi": 55,
      "hit": false,
      "t": 123000,
      "d": 475,
      "v": 116
    },
    {
      "midi": 62,
      "hit": false,
      "t": 123000,
      "d": 775,
      "v": 117
    },
    {
      "midi": 58,
      "hit": false,
      "t": 123000,
      "d": 875,
      "v": 121
    },
    {
      "midi": 55,
      "hit": false,
      "t": 123750,
      "d": 212.5,
      "v": 102
    },
    {
      "midi": 57,
      "hit": false,
      "t": 124500,
      "d": 550,
      "v": 118
    },
    {
      "midi": 61,
      "hit": false,
      "t": 124500,
      "d": 1437.5,
      "v": 121
    },
    {
      "midi": 64,
      "hit": false,
      "t": 124500,
      "d": 1475,
      "v": 116
    },
    {
      "midi": 57,
      "hit": false,
      "t": 125250,
      "d": 737.5,
      "v": 114
    },
    {
      "midi": 57,
      "hit": false,
      "t": 126000,
      "d": 600,
      "v": 118
    },
    {
      "midi": 65,
      "hit": false,
      "t": 126000,
      "d": 1137.5,
      "v": 120
    },
    {
      "midi": 62,
      "hit": false,
      "t": 126000,
      "d": 1175,
      "v": 112
    },
    {
      "midi": 57,
      "hit": false,
      "t": 126750,
      "d": 362.5,
      "v": 103
    },
    {
      "midi": 57,
      "hit": false,
      "t": 127500,
      "d": 475,
      "v": 120
    },
    {
      "midi": 62,
      "hit": false,
      "t": 127500,
      "d": 850,
      "v": 116
    },
    {
      "midi": 65,
      "hit": false,
      "t": 127500,
      "d": 887.5,
      "v": 117
    },
    {
      "midi": 57,
      "hit": false,
      "t": 128250,
      "d": 200,
      "v": 100
    },
    {
      "midi": 56,
      "hit": false,
      "t": 129000,
      "d": 475,
      "v": 116
    },
    {
      "midi": 65,
      "hit": false,
      "t": 129000,
      "d": 662.5,
      "v": 113
    },
    {
      "midi": 60,
      "hit": false,
      "t": 129000,
      "d": 725,
      "v": 112
    },
    {
      "midi": 56,
      "hit": false,
      "t": 129750,
      "d": 187.5,
      "v": 110
    },
    {
      "midi": 60,
      "hit": false,
      "t": 130500,
      "d": 537.5,
      "v": 116
    },
    {
      "midi": 68,
      "hit": false,
      "t": 130500,
      "d": 1462.5,
      "v": 118
    },
    {
      "midi": 65,
      "hit": false,
      "t": 130500,
      "d": 1487.5,
      "v": 111
    },
    {
      "midi": 60,
      "hit": false,
      "t": 131250,
      "d": 725,
      "v": 111
    },
    {
      "midi": 59,
      "hit": false,
      "t": 132000,
      "d": 537.5,
      "v": 121
    },
    {
      "midi": 67,
      "hit": false,
      "t": 132000,
      "d": 937.5,
      "v": 120
    },
    {
      "midi": 64,
      "hit": false,
      "t": 132000,
      "d": 987.5,
      "v": 118
    },
    {
      "midi": 59,
      "hit": false,
      "t": 132750,
      "d": 262.5,
      "v": 99
    },
    {
      "midi": 59,
      "hit": false,
      "t": 133500,
      "d": 412.5,
      "v": 117
    },
    {
      "midi": 67,
      "hit": false,
      "t": 133500,
      "d": 687.5,
      "v": 116
    },
    {
      "midi": 64,
      "hit": false,
      "t": 133500,
      "d": 737.5,
      "v": 116
    },
    {
      "midi": 59,
      "hit": false,
      "t": 134250,
      "d": 175,
      "v": 106
    },
    {
      "midi": 61,
      "hit": false,
      "t": 135000,
      "d": 412.5,
      "v": 119
    },
    {
      "midi": 64,
      "hit": false,
      "t": 135000,
      "d": 787.5,
      "v": 112
    },
    {
      "midi": 69,
      "hit": false,
      "t": 135000,
      "d": 812.5,
      "v": 113
    },
    {
      "midi": 61,
      "hit": false,
      "t": 135750,
      "d": 187.5,
      "v": 110
    },
    {
      "midi": 61,
      "hit": false,
      "t": 136125,
      "d": 1250,
      "v": 105
    },
    {
      "midi": 64,
      "hit": false,
      "t": 136500,
      "d": 500,
      "v": 104
    },
    {
      "midi": 73,
      "hit": false,
      "t": 136500,
      "d": 1550,
      "v": 119
    },
    {
      "midi": 69,
      "hit": false,
      "t": 136875,
      "d": 1125,
      "v": 102
    },
    {
      "midi": 64,
      "hit": false,
      "t": 137250,
      "d": 725,
      "v": 107
    },
    {
      "midi": 61,
      "hit": false,
      "t": 137625,
      "d": 387.5,
      "v": 114
    },
    {
      "midi": 62,
      "hit": false,
      "t": 138000,
      "d": 500,
      "v": 117
    },
    {
      "midi": 69,
      "hit": false,
      "t": 138000,
      "d": 687.5,
      "v": 117
    },
    {
      "midi": 65,
      "hit": false,
      "t": 138000,
      "d": 737.5,
      "v": 121
    },
    {
      "midi": 62,
      "hit": false,
      "t": 138750,
      "d": 187.5,
      "v": 108
    },
    {
      "midi": 65,
      "hit": false,
      "t": 139500,
      "d": 462.5,
      "v": 117
    },
    {
      "midi": 74,
      "hit": false,
      "t": 139500,
      "d": 1162.5,
      "v": 122
    },
    {
      "midi": 69,
      "hit": false,
      "t": 139500,
      "d": 1187.5,
      "v": 120
    },
    {
      "midi": 65,
      "hit": false,
      "t": 140250,
      "d": 437.5,
      "v": 111
    },
    {
      "midi": 67,
      "hit": false,
      "t": 141000,
      "d": 450,
      "v": 116
    },
    {
      "midi": 74,
      "hit": false,
      "t": 141000,
      "d": 1125,
      "v": 121
    },
    {
      "midi": 71,
      "hit": false,
      "t": 141000,
      "d": 1187.5,
      "v": 121
    },
    {
      "midi": 67,
      "hit": false,
      "t": 141750,
      "d": 400,
      "v": 104
    },
    {
      "midi": 62,
      "hit": false,
      "t": 142125,
      "d": 450,
      "v": 107
    },
    {
      "midi": 69,
      "hit": false,
      "t": 142500,
      "d": 387.5,
      "v": 121
    },
    {
      "midi": 74,
      "hit": false,
      "t": 142500,
      "d": 525,
      "v": 120
    },
    {
      "midi": 71,
      "hit": false,
      "t": 142875,
      "d": 375,
      "v": 106
    },
    {
      "midi": 67,
      "hit": false,
      "t": 143250,
      "d": 412.5,
      "v": 109
    },
    {
      "midi": 62,
      "hit": false,
      "t": 143625,
      "d": 337.5,
      "v": 109
    },
    {
      "midi": 64,
      "hit": false,
      "t": 144000,
      "d": 462.5,
      "v": 117
    },
    {
      "midi": 67,
      "hit": false,
      "t": 144000,
      "d": 800,
      "v": 118
    },
    {
      "midi": 72,
      "hit": false,
      "t": 144000,
      "d": 812.5,
      "v": 120
    },
    {
      "midi": 64,
      "hit": false,
      "t": 144750,
      "d": 287.5,
      "v": 112
    },
    {
      "midi": 55,
      "hit": false,
      "t": 145125,
      "d": 1287.5,
      "v": 108
    },
    {
      "midi": 62,
      "hit": false,
      "t": 145500,
      "d": 375,
      "v": 122
    },
    {
      "midi": 67,
      "hit": false,
      "t": 145500,
      "d": 912.5,
      "v": 120
    },
    {
      "midi": 64,
      "hit": false,
      "t": 145875,
      "d": 575,
      "v": 99
    },
    {
      "midi": 60,
      "hit": false,
      "t": 146250,
      "d": 375,
      "v": 114
    },
    {
      "midi": 55,
      "hit": false,
      "t": 146625,
      "d": 325,
      "v": 113
    },
    {
      "midi": 57,
      "hit": false,
      "t": 147000,
      "d": 537.5,
      "v": 125
    },
    {
      "midi": 60,
      "hit": false,
      "t": 147000,
      "d": 950,
      "v": 124
    },
    {
      "midi": 65,
      "hit": false,
      "t": 147000,
      "d": 1100,
      "v": 124
    },
    {
      "midi": 57,
      "hit": false,
      "t": 147750,
      "d": 312.5,
      "v": 112
    },
    {
      "midi": 59,
      "hit": false,
      "t": 148500,
      "d": 500,
      "v": 122
    },
    {
      "midi": 67,
      "hit": false,
      "t": 148500,
      "d": 1450,
      "v": 121
    },
    {
      "midi": 62,
      "hit": false,
      "t": 148500,
      "d": 1475,
      "v": 125
    },
    {
      "midi": 59,
      "hit": false,
      "t": 149250,
      "d": 662.5,
      "v": 117
    },
    {
      "midi": 55,
      "hit": false,
      "t": 150000,
      "d": 462.5,
      "v": 118
    },
    {
      "midi": 60,
      "hit": false,
      "t": 150000,
      "d": 887.5,
      "v": 117
    },
    {
      "midi": 64,
      "hit": false,
      "t": 150000,
      "d": 925,
      "v": 120
    },
    {
      "midi": 55,
      "hit": false,
      "t": 150750,
      "d": 200,
      "v": 104
    },
    {
      "midi": 60,
      "hit": false,
      "t": 151500,
      "d": 412.5,
      "v": 120
    },
    {
      "midi": 67,
      "hit": false,
      "t": 151500,
      "d": 662.5,
      "v": 114
    },
    {
      "midi": 64,
      "hit": false,
      "t": 151500,
      "d": 712.5,
      "v": 116
    },
    {
      "midi": 60,
      "hit": false,
      "t": 152250,
      "d": 162.5,
      "v": 107
    },
    {
      "midi": 55,
      "hit": false,
      "t": 153000,
      "d": 437.5,
      "v": 117
    },
    {
      "midi": 62,
      "hit": false,
      "t": 153000,
      "d": 725,
      "v": 118
    },
    {
      "midi": 59,
      "hit": false,
      "t": 153000,
      "d": 737.5,
      "v": 120
    },
    {
      "midi": 55,
      "hit": false,
      "t": 153750,
      "d": 175,
      "v": 108
    },
    {
      "midi": 59,
      "hit": false,
      "t": 154500,
      "d": 500,
      "v": 120
    },
    {
      "midi": 62,
      "hit": false,
      "t": 154500,
      "d": 1437.5,
      "v": 122
    },
    {
      "midi": 67,
      "hit": false,
      "t": 154500,
      "d": 1437.5,
      "v": 118
    },
    {
      "midi": 59,
      "hit": false,
      "t": 155250,
      "d": 687.5,
      "v": 118
    },
    {
      "midi": 60,
      "hit": false,
      "t": 156000,
      "d": 1137.5,
      "v": 121
    },
    {
      "midi": 57,
      "hit": false,
      "t": 156000,
      "d": 1175,
      "v": 126
    },
    {
      "midi": 52,
      "hit": false,
      "t": 156750,
      "d": 1262.5,
      "v": 116
    },
    {
      "midi": 57,
      "hit": false,
      "t": 157500,
      "d": 887.5,
      "v": 123
    },
    {
      "midi": 60,
      "hit": false,
      "t": 157500,
      "d": 887.5,
      "v": 124
    },
    {
      "midi": 52,
      "hit": false,
      "t": 158250,
      "d": 3762.5,
      "v": 121
    },
    {
      "midi": 64,
      "hit": false,
      "t": 159000,
      "d": 1537.5,
      "v": 127
    },
    {
      "midi": 62,
      "hit": false,
      "t": 160500,
      "d": 425,
      "v": 114
    },
    {
      "midi": 64,
      "hit": false,
      "t": 160875,
      "d": 462.5,
      "v": 119
    },
    {
      "midi": 62,
      "hit": false,
      "t": 161250,
      "d": 462.5,
      "v": 109
    },
    {
      "midi": 60,
      "hit": false,
      "t": 161625,
      "d": 375,
      "v": 118
    },
    {
      "midi": 53,
      "hit": false,
      "t": 162000,
      "d": 512.5,
      "v": 114
    },
    {
      "midi": 60,
      "hit": false,
      "t": 162000,
      "d": 1862.5,
      "v": 122
    },
    {
      "midi": 57,
      "hit": false,
      "t": 162000,
      "d": 2112.5,
      "v": 126
    },
    {
      "midi": 53,
      "hit": false,
      "t": 162750,
      "d": 2075,
      "v": 116
    },
    {
      "midi": 65,
      "hit": false,
      "t": 163500,
      "d": 2687.5,
      "v": 118
    },
    {
      "midi": 60,
      "hit": false,
      "t": 164250,
      "d": 3750,
      "v": 116
    },
    {
      "midi": 57,
      "hit": false,
      "t": 164625,
      "d": 212.5,
      "v": 116
    },
    {
      "midi": 53,
      "hit": false,
      "t": 165000,
      "d": 512.5,
      "v": 123
    },
    {
      "midi": 56,
      "hit": false,
      "t": 165000,
      "d": 3000,
      "v": 127
    },
    {
      "midi": 53,
      "hit": false,
      "t": 165750,
      "d": 1312.5,
      "v": 117
    },
    {
      "midi": 65,
      "hit": false,
      "t": 166500,
      "d": 1475,
      "v": 121
    },
    {
      "midi": 53,
      "hit": false,
      "t": 167250,
      "d": 737.5,
      "v": 126
    },
    {
      "midi": 59,
      "hit": false,
      "t": 168000,
      "d": 500,
      "v": 122
    },
    {
      "midi": 55,
      "hit": false,
      "t": 168000,
      "d": 812.5,
      "v": 124
    },
    {
      "midi": 62,
      "hit": false,
      "t": 168000,
      "d": 1225,
      "v": 127
    },
    {
      "midi": 59,
      "hit": false,
      "t": 168750,
      "d": 425,
      "v": 114
    },
    {
      "midi": 55,
      "hit": false,
      "t": 169125,
      "d": 1075,
      "v": 119
    },
    {
      "midi": 59,
      "hit": false,
      "t": 169500,
      "d": 475,
      "v": 126
    },
    {
      "midi": 67,
      "hit": false,
      "t": 169500,
      "d": 750,
      "v": 126
    },
    {
      "midi": 62,
      "hit": false,
      "t": 169500,
      "d": 775,
      "v": 127
    },
    {
      "midi": 59,
      "hit": false,
      "t": 170250,
      "d": 150,
      "v": 116
    },
    {
      "midi": 55,
      "hit": false,
      "t": 170625,
      "d": 3362.5,
      "v": 124
    },
    {
      "midi": 71,
      "hit": false,
      "t": 171000,
      "d": 375,
      "v": 122
    },
    {
      "midi": 67,
      "hit": false,
      "t": 171000,
      "d": 412.5,
      "v": 113
    },
    {
      "midi": 69,
      "hit": false,
      "t": 171375,
      "d": 487.5,
      "v": 111
    },
    {
      "midi": 72,
      "hit": false,
      "t": 171375,
      "d": 500,
      "v": 106
    },
    {
      "midi": 71,
      "hit": false,
      "t": 171750,
      "d": 412.5,
      "v": 118
    },
    {
      "midi": 74,
      "hit": false,
      "t": 171750,
      "d": 412.5,
      "v": 124
    },
    {
      "midi": 71,
      "hit": false,
      "t": 172500,
      "d": 312.5,
      "v": 116
    },
    {
      "midi": 74,
      "hit": false,
      "t": 172500,
      "d": 375,
      "v": 123
    },
    {
      "midi": 76,
      "hit": false,
      "t": 172875,
      "d": 262.5,
      "v": 109
    },
    {
      "midi": 72,
      "hit": false,
      "t": 172875,
      "d": 287.5,
      "v": 102
    },
    {
      "midi": 74,
      "hit": false,
      "t": 173250,
      "d": 237.5,
      "v": 114
    },
    {
      "midi": 77,
      "hit": false,
      "t": 173250,
      "d": 250,
      "v": 118
    },
    {
      "midi": 76,
      "hit": false,
      "t": 173625,
      "d": 350,
      "v": 122
    },
    {
      "midi": 79,
      "hit": false,
      "t": 173625,
      "d": 362.5,
      "v": 127
    },
    {
      "midi": 67,
      "hit": false,
      "t": 174000,
      "d": 437.5,
      "v": 123
    },
    {
      "midi": 76,
      "hit": false,
      "t": 174000,
      "d": 700,
      "v": 127
    },
    {
      "midi": 72,
      "hit": false,
      "t": 174000,
      "d": 750,
      "v": 127
    },
    {
      "midi": 67,
      "hit": false,
      "t": 174750,
      "d": 162.5,
      "v": 107
    },
    {
      "midi": 55,
      "hit": false,
      "t": 175500,
      "d": 537.5,
      "v": 126
    },
    {
      "midi": 64,
      "hit": false,
      "t": 175500,
      "d": 1250,
      "v": 122
    },
    {
      "midi": 60,
      "hit": false,
      "t": 175500,
      "d": 1300,
      "v": 126
    },
    {
      "midi": 55,
      "hit": false,
      "t": 176250,
      "d": 500,
      "v": 114
    },
    {
      "midi": 55,
      "hit": false,
      "t": 177000,
      "d": 575,
      "v": 121
    },
    {
      "midi": 59,
      "hit": false,
      "t": 177000,
      "d": 3000,
      "v": 123
    },
    {
      "midi": 62,
      "hit": false,
      "t": 177000,
      "d": 3000,
      "v": 123
    },
    {
      "midi": 55,
      "hit": false,
      "t": 177750,
      "d": 1237.5,
      "v": 121
    },
    {
      "midi": 67,
      "hit": false,
      "t": 178500,
      "d": 1500,
      "v": 122
    },
    {
      "midi": 55,
      "hit": false,
      "t": 179250,
      "d": 750,
      "v": 114
    },
    {
      "midi": 52,
      "hit": false,
      "t": 179625,
      "d": 375,
      "v": 116
    },
    {
      "midi": 60,
      "hit": false,
      "t": 180000,
      "d": 1137.5,
      "v": 121
    },
    {
      "midi": 57,
      "hit": false,
      "t": 180000,
      "d": 1175,
      "v": 126
    },
    {
      "midi": 52,
      "hit": false,
      "t": 180750,
      "d": 1262.5,
      "v": 116
    },
    {
      "midi": 57,
      "hit": false,
      "t": 181500,
      "d": 887.5,
      "v": 123
    },
    {
      "midi": 60,
      "hit": false,
      "t": 181500,
      "d": 887.5,
      "v": 124
    },
    {
      "midi": 52,
      "hit": false,
      "t": 182250,
      "d": 3762.5,
      "v": 121
    },
    {
      "midi": 64,
      "hit": false,
      "t": 183000,
      "d": 1537.5,
      "v": 127
    },
    {
      "midi": 62,
      "hit": false,
      "t": 184500,
      "d": 425,
      "v": 114
    },
    {
      "midi": 64,
      "hit": false,
      "t": 184875,
      "d": 462.5,
      "v": 119
    },
    {
      "midi": 62,
      "hit": false,
      "t": 185250,
      "d": 462.5,
      "v": 109
    },
    {
      "midi": 60,
      "hit": false,
      "t": 185625,
      "d": 375,
      "v": 118
    },
    {
      "midi": 57,
      "hit": false,
      "t": 186000,
      "d": 550,
      "v": 114
    },
    {
      "midi": 60,
      "hit": false,
      "t": 186000,
      "d": 850,
      "v": 118
    },
    {
      "midi": 65,
      "hit": false,
      "t": 186000,
      "d": 875,
      "v": 119
    },
    {
      "midi": 57,
      "hit": false,
      "t": 186750,
      "d": 187.5,
      "v": 109
    },
    {
      "midi": 60,
      "hit": false,
      "t": 187500,
      "d": 400,
      "v": 121
    },
    {
      "midi": 65,
      "hit": false,
      "t": 187500,
      "d": 825,
      "v": 121
    },
    {
      "midi": 69,
      "hit": false,
      "t": 187500,
      "d": 937.5,
      "v": 121
    },
    {
      "midi": 60,
      "hit": false,
      "t": 188250,
      "d": 262.5,
      "v": 100
    },
    {
      "midi": 60,
      "hit": false,
      "t": 189000,
      "d": 575,
      "v": 122
    },
    {
      "midi": 69,
      "hit": false,
      "t": 189000,
      "d": 1200,
      "v": 121
    },
    {
      "midi": 66,
      "hit": false,
      "t": 189000,
      "d": 1212.5,
      "v": 122
    },
    {
      "midi": 60,
      "hit": false,
      "t": 189750,
      "d": 412.5,
      "v": 84
    },
    {
      "midi": 60,
      "hit": false,
      "t": 190500,
      "d": 512.5,
      "v": 127
    },
    {
      "midi": 66,
      "hit": false,
      "t": 190500,
      "d": 1425,
      "v": 125
    },
    {
      "midi": 69,
      "hit": false,
      "t": 190500,
      "d": 1437.5,
      "v": 124
    },
    {
      "midi": 60,
      "hit": false,
      "t": 191250,
      "d": 700,
      "v": 113
    },
    {
      "midi": 59,
      "hit": false,
      "t": 192000,
      "d": 500,
      "v": 122
    },
    {
      "midi": 55,
      "hit": false,
      "t": 192000,
      "d": 812.5,
      "v": 124
    },
    {
      "midi": 62,
      "hit": false,
      "t": 192000,
      "d": 1225,
      "v": 127
    },
    {
      "midi": 59,
      "hit": false,
      "t": 192750,
      "d": 425,
      "v": 114
    },
    {
      "midi": 55,
      "hit": false,
      "t": 193125,
      "d": 1075,
      "v": 119
    },
    {
      "midi": 59,
      "hit": false,
      "t": 193500,
      "d": 475,
      "v": 126
    },
    {
      "midi": 67,
      "hit": false,
      "t": 193500,
      "d": 750,
      "v": 126
    },
    {
      "midi": 62,
      "hit": false,
      "t": 193500,
      "d": 775,
      "v": 127
    },
    {
      "midi": 59,
      "hit": false,
      "t": 194250,
      "d": 150,
      "v": 116
    },
    {
      "midi": 55,
      "hit": false,
      "t": 194625,
      "d": 3362.5,
      "v": 124
    },
    {
      "midi": 83,
      "hit": false,
      "t": 195000,
      "d": 375,
      "v": 122
    },
    {
      "midi": 79,
      "hit": false,
      "t": 195000,
      "d": 412.5,
      "v": 113
    },
    {
      "midi": 81,
      "hit": false,
      "t": 195375,
      "d": 487.5,
      "v": 111
    },
    {
      "midi": 84,
      "hit": false,
      "t": 195375,
      "d": 500,
      "v": 106
    },
    {
      "midi": 83,
      "hit": false,
      "t": 195750,
      "d": 412.5,
      "v": 118
    },
    {
      "midi": 86,
      "hit": false,
      "t": 195750,
      "d": 412.5,
      "v": 124
    },
    {
      "midi": 83,
      "hit": false,
      "t": 196500,
      "d": 312.5,
      "v": 116
    },
    {
      "midi": 86,
      "hit": false,
      "t": 196500,
      "d": 375,
      "v": 123
    },
    {
      "midi": 88,
      "hit": false,
      "t": 196875,
      "d": 262.5,
      "v": 109
    },
    {
      "midi": 84,
      "hit": false,
      "t": 196875,
      "d": 287.5,
      "v": 102
    },
    {
      "midi": 86,
      "hit": false,
      "t": 197250,
      "d": 237.5,
      "v": 114
    },
    {
      "midi": 89,
      "hit": false,
      "t": 197250,
      "d": 250,
      "v": 118
    },
    {
      "midi": 88,
      "hit": false,
      "t": 197625,
      "d": 350,
      "v": 122
    },
    {
      "midi": 91,
      "hit": false,
      "t": 197625,
      "d": 362.5,
      "v": 127
    },
    {
      "midi": 55,
      "hit": false,
      "t": 198000,
      "d": 587.5,
      "v": 120
    },
    {
      "midi": 64,
      "hit": false,
      "t": 198000,
      "d": 1100,
      "v": 117
    },
    {
      "midi": 60,
      "hit": false,
      "t": 198000,
      "d": 1112.5,
      "v": 120
    },
    {
      "midi": 55,
      "hit": false,
      "t": 198750,
      "d": 337.5,
      "v": 92
    },
    {
      "midi": 55,
      "hit": false,
      "t": 199500,
      "d": 500,
      "v": 117
    },
    {
      "midi": 64,
      "hit": false,
      "t": 199500,
      "d": 1100,
      "v": 116
    },
    {
      "midi": 60,
      "hit": false,
      "t": 199500,
      "d": 1112.5,
      "v": 118
    },
    {
      "midi": 55,
      "hit": false,
      "t": 200250,
      "d": 337.5,
      "v": 98
    },
    {
      "midi": 55,
      "hit": false,
      "t": 201000,
      "d": 537.5,
      "v": 112
    },
    {
      "midi": 59,
      "hit": false,
      "t": 201000,
      "d": 975,
      "v": 118
    },
    {
      "midi": 62,
      "hit": false,
      "t": 201000,
      "d": 1025,
      "v": 114
    },
    {
      "midi": 55,
      "hit": false,
      "t": 201750,
      "d": 350,
      "v": 104
    },
    {
      "midi": 55,
      "hit": false,
      "t": 202500,
      "d": 437.5,
      "v": 111
    },
    {
      "midi": 59,
      "hit": false,
      "t": 202500,
      "d": 862.5,
      "v": 116
    },
    {
      "midi": 62,
      "hit": false,
      "t": 202500,
      "d": 1050,
      "v": 114
    },
    {
      "midi": 55,
      "hit": false,
      "t": 203250,
      "d": 300,
      "v": 108
    },
    {
      "midi": 57,
      "hit": false,
      "t": 204000,
      "d": 537.5,
      "v": 114
    },
    {
      "midi": 60,
      "hit": false,
      "t": 204000,
      "d": 887.5,
      "v": 114
    },
    {
      "midi": 64,
      "hit": false,
      "t": 204000,
      "d": 1025,
      "v": 113
    },
    {
      "midi": 57,
      "hit": false,
      "t": 204750,
      "d": 325,
      "v": 107
    },
    {
      "midi": 57,
      "hit": false,
      "t": 205500,
      "d": 487.5,
      "v": 117
    },
    {
      "midi": 64,
      "hit": false,
      "t": 205500,
      "d": 737.5,
      "v": 117
    },
    {
      "midi": 60,
      "hit": false,
      "t": 205500,
      "d": 750,
      "v": 120
    },
    {
      "midi": 57,
      "hit": false,
      "t": 206250,
      "d": 325,
      "v": 108
    },
    {
      "midi": 57,
      "hit": false,
      "t": 207000,
      "d": 450,
      "v": 117
    },
    {
      "midi": 64,
      "hit": false,
      "t": 207000,
      "d": 1400,
      "v": 116
    },
    {
      "midi": 60,
      "hit": false,
      "t": 207000,
      "d": 1587.5,
      "v": 118
    },
    {
      "midi": 57,
      "hit": false,
      "t": 207750,
      "d": 2250,
      "v": 109
    },
    {
      "midi": 62,
      "hit": false,
      "t": 208500,
      "d": 450,
      "v": 106
    },
    {
      "midi": 64,
      "hit": false,
      "t": 208875,
      "d": 475,
      "v": 103
    },
    {
      "midi": 62,
      "hit": false,
      "t": 209250,
      "d": 450,
      "v": 104
    },
    {
      "midi": 60,
      "hit": false,
      "t": 209625,
      "d": 337.5,
      "v": 116
    },
    {
      "midi": 57,
      "hit": false,
      "t": 210000,
      "d": 512.5,
      "v": 114
    },
    {
      "midi": 64,
      "hit": false,
      "t": 210000,
      "d": 950,
      "v": 113
    },
    {
      "midi": 60,
      "hit": false,
      "t": 210000,
      "d": 975,
      "v": 120
    },
    {
      "midi": 57,
      "hit": false,
      "t": 210750,
      "d": 312.5,
      "v": 106
    },
    {
      "midi": 57,
      "hit": false,
      "t": 211500,
      "d": 500,
      "v": 116
    },
    {
      "midi": 64,
      "hit": false,
      "t": 211500,
      "d": 725,
      "v": 114
    },
    {
      "midi": 60,
      "hit": false,
      "t": 211500,
      "d": 762.5,
      "v": 118
    },
    {
      "midi": 57,
      "hit": false,
      "t": 212250,
      "d": 187.5,
      "v": 109
    },
    {
      "midi": 54,
      "hit": false,
      "t": 213000,
      "d": 475,
      "v": 116
    },
    {
      "midi": 63,
      "hit": false,
      "t": 213000,
      "d": 1175,
      "v": 115
    },
    {
      "midi": 59,
      "hit": false,
      "t": 213000,
      "d": 1187.5,
      "v": 111
    },
    {
      "midi": 54,
      "hit": false,
      "t": 213750,
      "d": 387.5,
      "v": 103
    },
    {
      "midi": 54,
      "hit": false,
      "t": 214500,
      "d": 500,
      "v": 115
    },
    {
      "midi": 63,
      "hit": false,
      "t": 214500,
      "d": 1450,
      "v": 115
    },
    {
      "midi": 59,
      "hit": false,
      "t": 214500,
      "d": 1475,
      "v": 102
    },
    {
      "midi": 54,
      "hit": false,
      "t": 215250,
      "d": 637.5,
      "v": 120
    },
    {
      "midi": 55,
      "hit": false,
      "t": 216000,
      "d": 562.5,
      "v": 114
    },
    {
      "midi": 59,
      "hit": false,
      "t": 216000,
      "d": 937.5,
      "v": 118
    },
    {
      "midi": 64,
      "hit": false,
      "t": 216000,
      "d": 1000,
      "v": 116
    },
    {
      "midi": 55,
      "hit": false,
      "t": 216750,
      "d": 275,
      "v": 94
    },
    {
      "midi": 55,
      "hit": false,
      "t": 217500,
      "d": 512.5,
      "v": 116
    },
    {
      "midi": 59,
      "hit": false,
      "t": 217500,
      "d": 787.5,
      "v": 116
    },
    {
      "midi": 64,
      "hit": false,
      "t": 217500,
      "d": 887.5,
      "v": 116
    },
    {
      "midi": 55,
      "hit": false,
      "t": 218250,
      "d": 225,
      "v": 99
    },
    {
      "midi": 55,
      "hit": false,
      "t": 219000,
      "d": 475,
      "v": 116
    },
    {
      "midi": 62,
      "hit": false,
      "t": 219000,
      "d": 775,
      "v": 117
    },
    {
      "midi": 58,
      "hit": false,
      "t": 219000,
      "d": 875,
      "v": 121
    },
    {
      "midi": 55,
      "hit": false,
      "t": 219750,
      "d": 212.5,
      "v": 102
    },
    {
      "midi": 57,
      "hit": false,
      "t": 220500,
      "d": 550,
      "v": 118
    },
    {
      "midi": 61,
      "hit": false,
      "t": 220500,
      "d": 1437.5,
      "v": 121
    },
    {
      "midi": 64,
      "hit": false,
      "t": 220500,
      "d": 1475,
      "v": 116
    },
    {
      "midi": 57,
      "hit": false,
      "t": 221250,
      "d": 737.5,
      "v": 114
    },
    {
      "midi": 57,
      "hit": false,
      "t": 222000,
      "d": 600,
      "v": 118
    },
    {
      "midi": 65,
      "hit": false,
      "t": 222000,
      "d": 1137.5,
      "v": 120
    },
    {
      "midi": 62,
      "hit": false,
      "t": 222000,
      "d": 1175,
      "v": 112
    },
    {
      "midi": 57,
      "hit": false,
      "t": 222750,
      "d": 362.5,
      "v": 103
    },
    {
      "midi": 57,
      "hit": false,
      "t": 223500,
      "d": 475,
      "v": 120
    },
    {
      "midi": 62,
      "hit": false,
      "t": 223500,
      "d": 850,
      "v": 116
    },
    {
      "midi": 65,
      "hit": false,
      "t": 223500,
      "d": 887.5,
      "v": 117
    },
    {
      "midi": 57,
      "hit": false,
      "t": 224250,
      "d": 200,
      "v": 100
    },
    {
      "midi": 56,
      "hit": false,
      "t": 225000,
      "d": 475,
      "v": 116
    },
    {
      "midi": 65,
      "hit": false,
      "t": 225000,
      "d": 662.5,
      "v": 113
    },
    {
      "midi": 60,
      "hit": false,
      "t": 225000,
      "d": 725,
      "v": 112
    },
    {
      "midi": 56,
      "hit": false,
      "t": 225750,
      "d": 187.5,
      "v": 110
    },
    {
      "midi": 60,
      "hit": false,
      "t": 226500,
      "d": 537.5,
      "v": 116
    },
    {
      "midi": 68,
      "hit": false,
      "t": 226500,
      "d": 1462.5,
      "v": 118
    },
    {
      "midi": 65,
      "hit": false,
      "t": 226500,
      "d": 1487.5,
      "v": 111
    },
    {
      "midi": 60,
      "hit": false,
      "t": 227250,
      "d": 725,
      "v": 111
    },
    {
      "midi": 59,
      "hit": false,
      "t": 228000,
      "d": 537.5,
      "v": 121
    },
    {
      "midi": 67,
      "hit": false,
      "t": 228000,
      "d": 937.5,
      "v": 120
    },
    {
      "midi": 64,
      "hit": false,
      "t": 228000,
      "d": 987.5,
      "v": 118
    },
    {
      "midi": 59,
      "hit": false,
      "t": 228750,
      "d": 262.5,
      "v": 99
    },
    {
      "midi": 59,
      "hit": false,
      "t": 229500,
      "d": 412.5,
      "v": 117
    },
    {
      "midi": 67,
      "hit": false,
      "t": 229500,
      "d": 687.5,
      "v": 116
    },
    {
      "midi": 64,
      "hit": false,
      "t": 229500,
      "d": 737.5,
      "v": 116
    },
    {
      "midi": 59,
      "hit": false,
      "t": 230250,
      "d": 175,
      "v": 106
    },
    {
      "midi": 61,
      "hit": false,
      "t": 231000,
      "d": 412.5,
      "v": 119
    },
    {
      "midi": 64,
      "hit": false,
      "t": 231000,
      "d": 787.5,
      "v": 112
    },
    {
      "midi": 69,
      "hit": false,
      "t": 231000,
      "d": 812.5,
      "v": 113
    },
    {
      "midi": 61,
      "hit": false,
      "t": 231750,
      "d": 187.5,
      "v": 110
    },
    {
      "midi": 61,
      "hit": false,
      "t": 232125,
      "d": 1250,
      "v": 105
    },
    {
      "midi": 64,
      "hit": false,
      "t": 232500,
      "d": 500,
      "v": 104
    },
    {
      "midi": 73,
      "hit": false,
      "t": 232500,
      "d": 1550,
      "v": 119
    },
    {
      "midi": 69,
      "hit": false,
      "t": 232875,
      "d": 1125,
      "v": 102
    },
    {
      "midi": 64,
      "hit": false,
      "t": 233250,
      "d": 725,
      "v": 107
    },
    {
      "midi": 61,
      "hit": false,
      "t": 233625,
      "d": 387.5,
      "v": 114
    },
    {
      "midi": 62,
      "hit": false,
      "t": 234000,
      "d": 500,
      "v": 117
    },
    {
      "midi": 69,
      "hit": false,
      "t": 234000,
      "d": 687.5,
      "v": 117
    },
    {
      "midi": 65,
      "hit": false,
      "t": 234000,
      "d": 737.5,
      "v": 121
    },
    {
      "midi": 62,
      "hit": false,
      "t": 234750,
      "d": 187.5,
      "v": 108
    },
    {
      "midi": 65,
      "hit": false,
      "t": 235500,
      "d": 462.5,
      "v": 117
    },
    {
      "midi": 74,
      "hit": false,
      "t": 235500,
      "d": 1162.5,
      "v": 122
    },
    {
      "midi": 69,
      "hit": false,
      "t": 235500,
      "d": 1187.5,
      "v": 120
    },
    {
      "midi": 65,
      "hit": false,
      "t": 236250,
      "d": 437.5,
      "v": 111
    },
    {
      "midi": 67,
      "hit": false,
      "t": 237000,
      "d": 450,
      "v": 116
    },
    {
      "midi": 74,
      "hit": false,
      "t": 237000,
      "d": 1125,
      "v": 121
    },
    {
      "midi": 71,
      "hit": false,
      "t": 237000,
      "d": 1187.5,
      "v": 121
    },
    {
      "midi": 67,
      "hit": false,
      "t": 237750,
      "d": 400,
      "v": 104
    },
    {
      "midi": 62,
      "hit": false,
      "t": 238125,
      "d": 450,
      "v": 107
    },
    {
      "midi": 69,
      "hit": false,
      "t": 238500,
      "d": 387.5,
      "v": 121
    },
    {
      "midi": 74,
      "hit": false,
      "t": 238500,
      "d": 525,
      "v": 120
    },
    {
      "midi": 71,
      "hit": false,
      "t": 238875,
      "d": 375,
      "v": 106
    },
    {
      "midi": 67,
      "hit": false,
      "t": 239250,
      "d": 412.5,
      "v": 109
    },
    {
      "midi": 62,
      "hit": false,
      "t": 239625,
      "d": 337.5,
      "v": 109
    },
    {
      "midi": 64,
      "hit": false,
      "t": 240000,
      "d": 462.5,
      "v": 117
    },
    {
      "midi": 67,
      "hit": false,
      "t": 240000,
      "d": 800,
      "v": 118
    },
    {
      "midi": 72,
      "hit": false,
      "t": 240000,
      "d": 812.5,
      "v": 120
    },
    {
      "midi": 64,
      "hit": false,
      "t": 240750,
      "d": 287.5,
      "v": 112
    },
    {
      "midi": 55,
      "hit": false,
      "t": 241125,
      "d": 1287.5,
      "v": 108
    },
    {
      "midi": 62,
      "hit": false,
      "t": 241500,
      "d": 375,
      "v": 122
    },
    {
      "midi": 67,
      "hit": false,
      "t": 241500,
      "d": 912.5,
      "v": 120
    },
    {
      "midi": 64,
      "hit": false,
      "t": 241875,
      "d": 575,
      "v": 99
    },
    {
      "midi": 60,
      "hit": false,
      "t": 242250,
      "d": 375,
      "v": 114
    },
    {
      "midi": 55,
      "hit": false,
      "t": 242625,
      "d": 325,
      "v": 113
    },
    {
      "midi": 57,
      "hit": false,
      "t": 243000,
      "d": 537.5,
      "v": 125
    },
    {
      "midi": 60,
      "hit": false,
      "t": 243000,
      "d": 950,
      "v": 124
    },
    {
      "midi": 65,
      "hit": false,
      "t": 243000,
      "d": 1100,
      "v": 124
    },
    {
      "midi": 57,
      "hit": false,
      "t": 243750,
      "d": 312.5,
      "v": 112
    },
    {
      "midi": 59,
      "hit": false,
      "t": 244500,
      "d": 500,
      "v": 122
    },
    {
      "midi": 67,
      "hit": false,
      "t": 244500,
      "d": 1450,
      "v": 121
    },
    {
      "midi": 62,
      "hit": false,
      "t": 244500,
      "d": 1475,
      "v": 125
    },
    {
      "midi": 59,
      "hit": false,
      "t": 245250,
      "d": 662.5,
      "v": 117
    },
    {
      "midi": 55,
      "hit": false,
      "t": 246000,
      "d": 587.5,
      "v": 120
    },
    {
      "midi": 64,
      "hit": false,
      "t": 246000,
      "d": 1100,
      "v": 117
    },
    {
      "midi": 60,
      "hit": false,
      "t": 246000,
      "d": 1112.5,
      "v": 120
    },
    {
      "midi": 55,
      "hit": false,
      "t": 246750,
      "d": 337.5,
      "v": 92
    },
    {
      "midi": 55,
      "hit": false,
      "t": 247500,
      "d": 500,
      "v": 117
    },
    {
      "midi": 64,
      "hit": false,
      "t": 247500,
      "d": 1100,
      "v": 116
    },
    {
      "midi": 60,
      "hit": false,
      "t": 247500,
      "d": 1112.5,
      "v": 118
    },
    {
      "midi": 55,
      "hit": false,
      "t": 248250,
      "d": 337.5,
      "v": 98
    },
    {
      "midi": 55,
      "hit": false,
      "t": 249000,
      "d": 537.5,
      "v": 112
    },
    {
      "midi": 59,
      "hit": false,
      "t": 249000,
      "d": 975,
      "v": 118
    },
    {
      "midi": 62,
      "hit": false,
      "t": 249000,
      "d": 1025,
      "v": 114
    },
    {
      "midi": 55,
      "hit": false,
      "t": 249750,
      "d": 350,
      "v": 104
    },
    {
      "midi": 55,
      "hit": false,
      "t": 250500,
      "d": 437.5,
      "v": 111
    },
    {
      "midi": 59,
      "hit": false,
      "t": 250500,
      "d": 862.5,
      "v": 116
    },
    {
      "midi": 62,
      "hit": false,
      "t": 250500,
      "d": 1050,
      "v": 114
    },
    {
      "midi": 55,
      "hit": false,
      "t": 251250,
      "d": 300,
      "v": 108
    },
    {
      "midi": 57,
      "hit": false,
      "t": 252000,
      "d": 537.5,
      "v": 114
    },
    {
      "midi": 60,
      "hit": false,
      "t": 252000,
      "d": 887.5,
      "v": 114
    },
    {
      "midi": 64,
      "hit": false,
      "t": 252000,
      "d": 1025,
      "v": 113
    },
    {
      "midi": 57,
      "hit": false,
      "t": 252750,
      "d": 325,
      "v": 107
    },
    {
      "midi": 57,
      "hit": false,
      "t": 253500,
      "d": 487.5,
      "v": 117
    },
    {
      "midi": 64,
      "hit": false,
      "t": 253500,
      "d": 737.5,
      "v": 117
    },
    {
      "midi": 60,
      "hit": false,
      "t": 253500,
      "d": 750,
      "v": 120
    },
    {
      "midi": 57,
      "hit": false,
      "t": 254250,
      "d": 325,
      "v": 108
    },
    {
      "midi": 57,
      "hit": false,
      "t": 255000,
      "d": 450,
      "v": 117
    },
    {
      "midi": 64,
      "hit": false,
      "t": 255000,
      "d": 1400,
      "v": 116
    },
    {
      "midi": 60,
      "hit": false,
      "t": 255000,
      "d": 1587.5,
      "v": 118
    },
    {
      "midi": 57,
      "hit": false,
      "t": 255750,
      "d": 2250,
      "v": 109
    },
    {
      "midi": 62,
      "hit": false,
      "t": 256500,
      "d": 450,
      "v": 106
    },
    {
      "midi": 64,
      "hit": false,
      "t": 256875,
      "d": 475,
      "v": 103
    },
    {
      "midi": 62,
      "hit": false,
      "t": 257250,
      "d": 450,
      "v": 104
    },
    {
      "midi": 60,
      "hit": false,
      "t": 257625,
      "d": 337.5,
      "v": 116
    },
    {
      "midi": 57,
      "hit": false,
      "t": 258000,
      "d": 512.5,
      "v": 114
    },
    {
      "midi": 64,
      "hit": false,
      "t": 258000,
      "d": 950,
      "v": 113
    },
    {
      "midi": 60,
      "hit": false,
      "t": 258000,
      "d": 975,
      "v": 120
    },
    {
      "midi": 57,
      "hit": false,
      "t": 258750,
      "d": 312.5,
      "v": 106
    },
    {
      "midi": 57,
      "hit": false,
      "t": 259500,
      "d": 500,
      "v": 116
    },
    {
      "midi": 64,
      "hit": false,
      "t": 259500,
      "d": 725,
      "v": 114
    },
    {
      "midi": 60,
      "hit": false,
      "t": 259500,
      "d": 762.5,
      "v": 118
    },
    {
      "midi": 57,
      "hit": false,
      "t": 260250,
      "d": 187.5,
      "v": 109
    },
    {
      "midi": 54,
      "hit": false,
      "t": 261000,
      "d": 475,
      "v": 116
    },
    {
      "midi": 63,
      "hit": false,
      "t": 261000,
      "d": 1175,
      "v": 115
    },
    {
      "midi": 59,
      "hit": false,
      "t": 261000,
      "d": 1187.5,
      "v": 111
    },
    {
      "midi": 54,
      "hit": false,
      "t": 261750,
      "d": 387.5,
      "v": 103
    },
    {
      "midi": 54,
      "hit": false,
      "t": 262500,
      "d": 500,
      "v": 115
    },
    {
      "midi": 63,
      "hit": false,
      "t": 262500,
      "d": 1450,
      "v": 115
    },
    {
      "midi": 59,
      "hit": false,
      "t": 262500,
      "d": 1475,
      "v": 102
    },
    {
      "midi": 54,
      "hit": false,
      "t": 263250,
      "d": 637.5,
      "v": 120
    },
    {
      "midi": 55,
      "hit": false,
      "t": 264000,
      "d": 562.5,
      "v": 114
    },
    {
      "midi": 59,
      "hit": false,
      "t": 264000,
      "d": 937.5,
      "v": 118
    },
    {
      "midi": 64,
      "hit": false,
      "t": 264000,
      "d": 1000,
      "v": 116
    },
    {
      "midi": 55,
      "hit": false,
      "t": 264750,
      "d": 275,
      "v": 94
    },
    {
      "midi": 55,
      "hit": false,
      "t": 265500,
      "d": 512.5,
      "v": 116
    },
    {
      "midi": 59,
      "hit": false,
      "t": 265500,
      "d": 787.5,
      "v": 116
    },
    {
      "midi": 64,
      "hit": false,
      "t": 265500,
      "d": 887.5,
      "v": 116
    },
    {
      "midi": 55,
      "hit": false,
      "t": 266250,
      "d": 225,
      "v": 99
    },
    {
      "midi": 55,
      "hit": false,
      "t": 267000,
      "d": 475,
      "v": 116
    },
    {
      "midi": 62,
      "hit": false,
      "t": 267000,
      "d": 775,
      "v": 117
    },
    {
      "midi": 58,
      "hit": false,
      "t": 267000,
      "d": 875,
      "v": 121
    },
    {
      "midi": 55,
      "hit": false,
      "t": 267750,
      "d": 212.5,
      "v": 102
    },
    {
      "midi": 57,
      "hit": false,
      "t": 268500,
      "d": 550,
      "v": 118
    },
    {
      "midi": 61,
      "hit": false,
      "t": 268500,
      "d": 1437.5,
      "v": 121
    },
    {
      "midi": 64,
      "hit": false,
      "t": 268500,
      "d": 1475,
      "v": 116
    },
    {
      "midi": 57,
      "hit": false,
      "t": 269250,
      "d": 737.5,
      "v": 114
    },
    {
      "midi": 57,
      "hit": false,
      "t": 270000,
      "d": 600,
      "v": 118
    },
    {
      "midi": 65,
      "hit": false,
      "t": 270000,
      "d": 1137.5,
      "v": 120
    },
    {
      "midi": 62,
      "hit": false,
      "t": 270000,
      "d": 1175,
      "v": 112
    },
    {
      "midi": 57,
      "hit": false,
      "t": 270750,
      "d": 362.5,
      "v": 103
    },
    {
      "midi": 57,
      "hit": false,
      "t": 271500,
      "d": 475,
      "v": 120
    },
    {
      "midi": 62,
      "hit": false,
      "t": 271500,
      "d": 850,
      "v": 116
    },
    {
      "midi": 65,
      "hit": false,
      "t": 271500,
      "d": 887.5,
      "v": 117
    },
    {
      "midi": 57,
      "hit": false,
      "t": 272250,
      "d": 200,
      "v": 100
    },
    {
      "midi": 56,
      "hit": false,
      "t": 273000,
      "d": 475,
      "v": 116
    },
    {
      "midi": 65,
      "hit": false,
      "t": 273000,
      "d": 662.5,
      "v": 113
    },
    {
      "midi": 60,
      "hit": false,
      "t": 273000,
      "d": 725,
      "v": 112
    },
    {
      "midi": 56,
      "hit": false,
      "t": 273750,
      "d": 187.5,
      "v": 110
    },
    {
      "midi": 60,
      "hit": false,
      "t": 274500,
      "d": 537.5,
      "v": 116
    },
    {
      "midi": 68,
      "hit": false,
      "t": 274500,
      "d": 1462.5,
      "v": 118
    },
    {
      "midi": 65,
      "hit": false,
      "t": 274500,
      "d": 1487.5,
      "v": 111
    },
    {
      "midi": 60,
      "hit": false,
      "t": 275250,
      "d": 725,
      "v": 111
    },
    {
      "midi": 59,
      "hit": false,
      "t": 276000,
      "d": 537.5,
      "v": 121
    },
    {
      "midi": 67,
      "hit": false,
      "t": 276000,
      "d": 937.5,
      "v": 120
    },
    {
      "midi": 64,
      "hit": false,
      "t": 276000,
      "d": 987.5,
      "v": 118
    },
    {
      "midi": 59,
      "hit": false,
      "t": 276750,
      "d": 262.5,
      "v": 99
    },
    {
      "midi": 59,
      "hit": false,
      "t": 277500,
      "d": 412.5,
      "v": 117
    },
    {
      "midi": 67,
      "hit": false,
      "t": 277500,
      "d": 687.5,
      "v": 116
    },
    {
      "midi": 64,
      "hit": false,
      "t": 277500,
      "d": 737.5,
      "v": 116
    },
    {
      "midi": 59,
      "hit": false,
      "t": 278250,
      "d": 175,
      "v": 106
    },
    {
      "midi": 61,
      "hit": false,
      "t": 279000,
      "d": 412.5,
      "v": 119
    },
    {
      "midi": 64,
      "hit": false,
      "t": 279000,
      "d": 787.5,
      "v": 112
    },
    {
      "midi": 69,
      "hit": false,
      "t": 279000,
      "d": 812.5,
      "v": 113
    },
    {
      "midi": 61,
      "hit": false,
      "t": 279750,
      "d": 187.5,
      "v": 110
    },
    {
      "midi": 61,
      "hit": false,
      "t": 280125,
      "d": 1250,
      "v": 105
    },
    {
      "midi": 64,
      "hit": false,
      "t": 280500,
      "d": 500,
      "v": 104
    },
    {
      "midi": 73,
      "hit": false,
      "t": 280500,
      "d": 1550,
      "v": 119
    },
    {
      "midi": 69,
      "hit": false,
      "t": 280875,
      "d": 1125,
      "v": 102
    },
    {
      "midi": 64,
      "hit": false,
      "t": 281250,
      "d": 725,
      "v": 107
    },
    {
      "midi": 61,
      "hit": false,
      "t": 281625,
      "d": 387.5,
      "v": 114
    },
    {
      "midi": 62,
      "hit": false,
      "t": 282000,
      "d": 500,
      "v": 117
    },
    {
      "midi": 69,
      "hit": false,
      "t": 282000,
      "d": 687.5,
      "v": 117
    },
    {
      "midi": 65,
      "hit": false,
      "t": 282000,
      "d": 737.5,
      "v": 121
    },
    {
      "midi": 62,
      "hit": false,
      "t": 282750,
      "d": 187.5,
      "v": 108
    },
    {
      "midi": 65,
      "hit": false,
      "t": 283500,
      "d": 462.5,
      "v": 117
    },
    {
      "midi": 74,
      "hit": false,
      "t": 283500,
      "d": 1162.5,
      "v": 122
    },
    {
      "midi": 69,
      "hit": false,
      "t": 283500,
      "d": 1187.5,
      "v": 120
    },
    {
      "midi": 65,
      "hit": false,
      "t": 284250,
      "d": 437.5,
      "v": 111
    },
    {
      "midi": 67,
      "hit": false,
      "t": 285000,
      "d": 450,
      "v": 116
    },
    {
      "midi": 74,
      "hit": false,
      "t": 285000,
      "d": 1125,
      "v": 121
    },
    {
      "midi": 71,
      "hit": false,
      "t": 285000,
      "d": 1187.5,
      "v": 121
    },
    {
      "midi": 67,
      "hit": false,
      "t": 285750,
      "d": 400,
      "v": 104
    },
    {
      "midi": 62,
      "hit": false,
      "t": 286125,
      "d": 450,
      "v": 107
    },
    {
      "midi": 69,
      "hit": false,
      "t": 286500,
      "d": 387.5,
      "v": 121
    },
    {
      "midi": 74,
      "hit": false,
      "t": 286500,
      "d": 525,
      "v": 120
    },
    {
      "midi": 71,
      "hit": false,
      "t": 286875,
      "d": 375,
      "v": 106
    },
    {
      "midi": 67,
      "hit": false,
      "t": 287250,
      "d": 412.5,
      "v": 109
    },
    {
      "midi": 62,
      "hit": false,
      "t": 287625,
      "d": 337.5,
      "v": 109
    },
    {
      "midi": 64,
      "hit": false,
      "t": 288000,
      "d": 462.5,
      "v": 117
    },
    {
      "midi": 67,
      "hit": false,
      "t": 288000,
      "d": 800,
      "v": 118
    },
    {
      "midi": 72,
      "hit": false,
      "t": 288000,
      "d": 812.5,
      "v": 120
    },
    {
      "midi": 64,
      "hit": false,
      "t": 288750,
      "d": 287.5,
      "v": 112
    },
    {
      "midi": 55,
      "hit": false,
      "t": 289125,
      "d": 1287.5,
      "v": 108
    },
    {
      "midi": 62,
      "hit": false,
      "t": 289500,
      "d": 375,
      "v": 122
    },
    {
      "midi": 67,
      "hit": false,
      "t": 289500,
      "d": 912.5,
      "v": 120
    },
    {
      "midi": 64,
      "hit": false,
      "t": 289875,
      "d": 575,
      "v": 99
    },
    {
      "midi": 60,
      "hit": false,
      "t": 290250,
      "d": 375,
      "v": 114
    },
    {
      "midi": 55,
      "hit": false,
      "t": 290625,
      "d": 325,
      "v": 113
    },
    {
      "midi": 57,
      "hit": false,
      "t": 291000,
      "d": 537.5,
      "v": 125
    },
    {
      "midi": 60,
      "hit": false,
      "t": 291000,
      "d": 950,
      "v": 124
    },
    {
      "midi": 65,
      "hit": false,
      "t": 291000,
      "d": 1100,
      "v": 124
    },
    {
      "midi": 57,
      "hit": false,
      "t": 291750,
      "d": 312.5,
      "v": 112
    },
    {
      "midi": 59,
      "hit": false,
      "t": 292500,
      "d": 500,
      "v": 122
    },
    {
      "midi": 67,
      "hit": false,
      "t": 292500,
      "d": 1450,
      "v": 121
    },
    {
      "midi": 62,
      "hit": false,
      "t": 292500,
      "d": 1475,
      "v": 125
    },
    {
      "midi": 59,
      "hit": false,
      "t": 293250,
      "d": 662.5,
      "v": 117
    },
    {
      "midi": 55,
      "hit": false,
      "t": 294000,
      "d": 462.5,
      "v": 118
    },
    {
      "midi": 60,
      "hit": false,
      "t": 294000,
      "d": 887.5,
      "v": 117
    },
    {
      "midi": 64,
      "hit": false,
      "t": 294000,
      "d": 925,
      "v": 120
    },
    {
      "midi": 55,
      "hit": false,
      "t": 294750,
      "d": 200,
      "v": 104
    },
    {
      "midi": 60,
      "hit": false,
      "t": 295500,
      "d": 412.5,
      "v": 120
    },
    {
      "midi": 67,
      "hit": false,
      "t": 295500,
      "d": 662.5,
      "v": 114
    },
    {
      "midi": 64,
      "hit": false,
      "t": 295500,
      "d": 712.5,
      "v": 116
    },
    {
      "midi": 60,
      "hit": false,
      "t": 296250,
      "d": 162.5,
      "v": 107
    },
    {
      "midi": 55,
      "hit": false,
      "t": 297000,
      "d": 437.5,
      "v": 117
    },
    {
      "midi": 62,
      "hit": false,
      "t": 297000,
      "d": 725,
      "v": 118
    },
    {
      "midi": 59,
      "hit": false,
      "t": 297000,
      "d": 737.5,
      "v": 120
    },
    {
      "midi": 55,
      "hit": false,
      "t": 297750,
      "d": 175,
      "v": 108
    },
    {
      "midi": 59,
      "hit": false,
      "t": 298500,
      "d": 500,
      "v": 120
    },
    {
      "midi": 62,
      "hit": false,
      "t": 298500,
      "d": 1437.5,
      "v": 122
    },
    {
      "midi": 67,
      "hit": false,
      "t": 298500,
      "d": 1437.5,
      "v": 118
    },
    {
      "midi": 59,
      "hit": false,
      "t": 299250,
      "d": 687.5,
      "v": 118
    },
    {
      "midi": 60,
      "hit": false,
      "t": 300000,
      "d": 1137.5,
      "v": 121
    },
    {
      "midi": 57,
      "hit": false,
      "t": 300000,
      "d": 1175,
      "v": 126
    },
    {
      "midi": 52,
      "hit": false,
      "t": 300750,
      "d": 1262.5,
      "v": 116
    },
    {
      "midi": 57,
      "hit": false,
      "t": 301500,
      "d": 887.5,
      "v": 123
    },
    {
      "midi": 60,
      "hit": false,
      "t": 301500,
      "d": 887.5,
      "v": 124
    },
    {
      "midi": 52,
      "hit": false,
      "t": 302250,
      "d": 3762.5,
      "v": 121
    },
    {
      "midi": 64,
      "hit": false,
      "t": 303000,
      "d": 1537.5,
      "v": 127
    },
    {
      "midi": 62,
      "hit": false,
      "t": 304500,
      "d": 425,
      "v": 114
    },
    {
      "midi": 64,
      "hit": false,
      "t": 304875,
      "d": 462.5,
      "v": 119
    },
    {
      "midi": 62,
      "hit": false,
      "t": 305250,
      "d": 462.5,
      "v": 109
    },
    {
      "midi": 60,
      "hit": false,
      "t": 305625,
      "d": 375,
      "v": 118
    },
    {
      "midi": 53,
      "hit": false,
      "t": 306000,
      "d": 512.5,
      "v": 114
    },
    {
      "midi": 60,
      "hit": false,
      "t": 306000,
      "d": 1862.5,
      "v": 122
    },
    {
      "midi": 57,
      "hit": false,
      "t": 306000,
      "d": 2112.5,
      "v": 126
    },
    {
      "midi": 53,
      "hit": false,
      "t": 306750,
      "d": 2075,
      "v": 116
    },
    {
      "midi": 65,
      "hit": false,
      "t": 307500,
      "d": 2687.5,
      "v": 118
    },
    {
      "midi": 60,
      "hit": false,
      "t": 308250,
      "d": 3750,
      "v": 116
    },
    {
      "midi": 57,
      "hit": false,
      "t": 308625,
      "d": 212.5,
      "v": 116
    },
    {
      "midi": 53,
      "hit": false,
      "t": 309000,
      "d": 512.5,
      "v": 123
    },
    {
      "midi": 56,
      "hit": false,
      "t": 309000,
      "d": 3000,
      "v": 127
    },
    {
      "midi": 53,
      "hit": false,
      "t": 309750,
      "d": 1312.5,
      "v": 117
    },
    {
      "midi": 65,
      "hit": false,
      "t": 310500,
      "d": 1475,
      "v": 121
    },
    {
      "midi": 53,
      "hit": false,
      "t": 311250,
      "d": 737.5,
      "v": 126
    },
    {
      "midi": 59,
      "hit": false,
      "t": 312000,
      "d": 500,
      "v": 122
    },
    {
      "midi": 55,
      "hit": false,
      "t": 312000,
      "d": 812.5,
      "v": 124
    },
    {
      "midi": 62,
      "hit": false,
      "t": 312000,
      "d": 1225,
      "v": 127
    },
    {
      "midi": 59,
      "hit": false,
      "t": 312750,
      "d": 425,
      "v": 114
    },
    {
      "midi": 55,
      "hit": false,
      "t": 313125,
      "d": 1075,
      "v": 119
    },
    {
      "midi": 59,
      "hit": false,
      "t": 313500,
      "d": 475,
      "v": 126
    },
    {
      "midi": 67,
      "hit": false,
      "t": 313500,
      "d": 750,
      "v": 126
    },
    {
      "midi": 62,
      "hit": false,
      "t": 313500,
      "d": 775,
      "v": 127
    },
    {
      "midi": 59,
      "hit": false,
      "t": 314250,
      "d": 150,
      "v": 116
    },
    {
      "midi": 55,
      "hit": false,
      "t": 314625,
      "d": 3362.5,
      "v": 124
    },
    {
      "midi": 71,
      "hit": false,
      "t": 315000,
      "d": 375,
      "v": 122
    },
    {
      "midi": 67,
      "hit": false,
      "t": 315000,
      "d": 412.5,
      "v": 113
    },
    {
      "midi": 69,
      "hit": false,
      "t": 315375,
      "d": 487.5,
      "v": 111
    },
    {
      "midi": 72,
      "hit": false,
      "t": 315375,
      "d": 500,
      "v": 106
    },
    {
      "midi": 71,
      "hit": false,
      "t": 315750,
      "d": 412.5,
      "v": 118
    },
    {
      "midi": 74,
      "hit": false,
      "t": 315750,
      "d": 412.5,
      "v": 124
    },
    {
      "midi": 71,
      "hit": false,
      "t": 316500,
      "d": 312.5,
      "v": 116
    },
    {
      "midi": 74,
      "hit": false,
      "t": 316500,
      "d": 375,
      "v": 123
    },
    {
      "midi": 76,
      "hit": false,
      "t": 316875,
      "d": 262.5,
      "v": 109
    },
    {
      "midi": 72,
      "hit": false,
      "t": 316875,
      "d": 287.5,
      "v": 102
    },
    {
      "midi": 74,
      "hit": false,
      "t": 317250,
      "d": 237.5,
      "v": 114
    },
    {
      "midi": 77,
      "hit": false,
      "t": 317250,
      "d": 250,
      "v": 118
    },
    {
      "midi": 76,
      "hit": false,
      "t": 317625,
      "d": 350,
      "v": 122
    },
    {
      "midi": 79,
      "hit": false,
      "t": 317625,
      "d": 362.5,
      "v": 127
    },
    {
      "midi": 67,
      "hit": false,
      "t": 318000,
      "d": 437.5,
      "v": 123
    },
    {
      "midi": 76,
      "hit": false,
      "t": 318000,
      "d": 700,
      "v": 127
    },
    {
      "midi": 72,
      "hit": false,
      "t": 318000,
      "d": 750,
      "v": 127
    },
    {
      "midi": 67,
      "hit": false,
      "t": 318750,
      "d": 162.5,
      "v": 107
    },
    {
      "midi": 55,
      "hit": false,
      "t": 319500,
      "d": 537.5,
      "v": 126
    },
    {
      "midi": 64,
      "hit": false,
      "t": 319500,
      "d": 1250,
      "v": 122
    },
    {
      "midi": 60,
      "hit": false,
      "t": 319500,
      "d": 1300,
      "v": 126
    },
    {
      "midi": 55,
      "hit": false,
      "t": 320250,
      "d": 500,
      "v": 114
    },
    {
      "midi": 55,
      "hit": false,
      "t": 321000,
      "d": 575,
      "v": 121
    },
    {
      "midi": 59,
      "hit": false,
      "t": 321000,
      "d": 3000,
      "v": 123
    },
    {
      "midi": 62,
      "hit": false,
      "t": 321000,
      "d": 3000,
      "v": 123
    },
    {
      "midi": 55,
      "hit": false,
      "t": 321750,
      "d": 1237.5,
      "v": 121
    },
    {
      "midi": 67,
      "hit": false,
      "t": 322500,
      "d": 1500,
      "v": 122
    },
    {
      "midi": 55,
      "hit": false,
      "t": 323250,
      "d": 750,
      "v": 114
    },
    {
      "midi": 52,
      "hit": false,
      "t": 323625,
      "d": 375,
      "v": 116
    },
    {
      "midi": 60,
      "hit": false,
      "t": 324000,
      "d": 1137.5,
      "v": 121
    },
    {
      "midi": 57,
      "hit": false,
      "t": 324000,
      "d": 1175,
      "v": 126
    },
    {
      "midi": 52,
      "hit": false,
      "t": 324750,
      "d": 1262.5,
      "v": 116
    },
    {
      "midi": 57,
      "hit": false,
      "t": 325500,
      "d": 887.5,
      "v": 123
    },
    {
      "midi": 60,
      "hit": false,
      "t": 325500,
      "d": 887.5,
      "v": 124
    },
    {
      "midi": 52,
      "hit": false,
      "t": 326250,
      "d": 3750,
      "v": 121
    },
    {
      "midi": 64,
      "hit": false,
      "t": 327000,
      "d": 1537.5,
      "v": 127
    },
    {
      "midi": 62,
      "hit": false,
      "t": 328500,
      "d": 425,
      "v": 114
    },
    {
      "midi": 64,
      "hit": false,
      "t": 328875,
      "d": 462.5,
      "v": 119
    },
    {
      "midi": 62,
      "hit": false,
      "t": 329250,
      "d": 462.5,
      "v": 109
    },
    {
      "midi": 60,
      "hit": false,
      "t": 329625,
      "d": 375,
      "v": 118
    },
    {
      "midi": 57,
      "hit": false,
      "t": 330000,
      "d": 500,
      "v": 114
    },
    {
      "midi": 65,
      "hit": false,
      "t": 330000,
      "d": 762.5,
      "v": 120
    },
    {
      "midi": 60,
      "hit": false,
      "t": 330000,
      "d": 812.5,
      "v": 118
    },
    {
      "midi": 57,
      "hit": false,
      "t": 330750,
      "d": 200,
      "v": 109
    },
    {
      "midi": 60,
      "hit": false,
      "t": 331500,
      "d": 512.5,
      "v": 121
    },
    {
      "midi": 69,
      "hit": false,
      "t": 331500,
      "d": 725,
      "v": 117
    },
    {
      "midi": 65,
      "hit": false,
      "t": 331500,
      "d": 750,
      "v": 120
    },
    {
      "midi": 60,
      "hit": false,
      "t": 332250,
      "d": 237.5,
      "v": 106
    },
    {
      "midi": 60,
      "hit": false,
      "t": 333000,
      "d": 500,
      "v": 118
    },
    {
      "midi": 68,
      "hit": false,
      "t": 333000,
      "d": 725,
      "v": 120
    },
    {
      "midi": 65,
      "hit": false,
      "t": 333000,
      "d": 787.5,
      "v": 118
    },
    {
      "midi": 60,
      "hit": false,
      "t": 333750,
      "d": 200,
      "v": 109
    },
    {
      "midi": 65,
      "hit": false,
      "t": 334500,
      "d": 587.5,
      "v": 114
    },
    {
      "midi": 68,
      "hit": false,
      "t": 334500,
      "d": 1487.5,
      "v": 120
    },
    {
      "midi": 72,
      "hit": false,
      "t": 334500,
      "d": 1500,
      "v": 118
    },
    {
      "midi": 65,
      "hit": false,
      "t": 335250,
      "d": 700,
      "v": 111
    },
    {
      "midi": 64,
      "hit": false,
      "t": 336000,
      "d": 537.5,
      "v": 116
    },
    {
      "midi": 71,
      "hit": false,
      "t": 336000,
      "d": 712.5,
      "v": 117
    },
    {
      "midi": 67,
      "hit": false,
      "t": 336000,
      "d": 750,
      "v": 116
    },
    {
      "midi": 64,
      "hit": false,
      "t": 336750,
      "d": 287.5,
      "v": 109
    },
    {
      "midi": 64,
      "hit": false,
      "t": 337500,
      "d": 412.5,
      "v": 116
    },
    {
      "midi": 71,
      "hit": false,
      "t": 337500,
      "d": 625,
      "v": 116
    },
    {
      "midi": 67,
      "hit": false,
      "t": 337500,
      "d": 650,
      "v": 118
    },
    {
      "midi": 64,
      "hit": false,
      "t": 338250,
      "d": 250,
      "v": 101
    },
    {
      "midi": 64,
      "hit": false,
      "t": 339000,
      "d": 350,
      "v": 118
    },
    {
      "midi": 69,
      "hit": false,
      "t": 339000,
      "d": 412.5,
      "v": 117
    },
    {
      "midi": 73,
      "hit": false,
      "t": 339000,
      "d": 412.5,
      "v": 123
    },
    {
      "midi": 86,
      "hit": false,
      "t": 340125,
      "d": 437.5,
      "v": 121
    },
    {
      "midi": 85,
      "hit": false,
      "t": 340500,
      "d": 425,
      "v": 106
    },
    {
      "midi": 81,
      "hit": false,
      "t": 340875,
      "d": 412.5,
      "v": 104
    },
    {
      "midi": 76,
      "hit": false,
      "t": 341250,
      "d": 400,
      "v": 111
    },
    {
      "midi": 73,
      "hit": false,
      "t": 341625,
      "d": 362.5,
      "v": 115
    },
    {
      "midi": 65,
      "hit": false,
      "t": 342000,
      "d": 475,
      "v": 118
    },
    {
      "midi": 72,
      "hit": false,
      "t": 342000,
      "d": 825,
      "v": 121
    },
    {
      "midi": 69,
      "hit": false,
      "t": 342000,
      "d": 837.5,
      "v": 122
    },
    {
      "midi": 65,
      "hit": false,
      "t": 342750,
      "d": 300,
      "v": 108
    },
    {
      "midi": 65,
      "hit": false,
      "t": 343500,
      "d": 362.5,
      "v": 118
    },
    {
      "midi": 72,
      "hit": false,
      "t": 343500,
      "d": 712.5,
      "v": 120
    },
    {
      "midi": 69,
      "hit": false,
      "t": 343500,
      "d": 725,
      "v": 121
    },
    {
      "midi": 65,
      "hit": false,
      "t": 344250,
      "d": 187.5,
      "v": 107
    },
    {
      "midi": 81,
      "hit": false,
      "t": 345000,
      "d": 412.5,
      "v": 125
    },
    {
      "midi": 86,
      "hit": false,
      "t": 345000,
      "d": 437.5,
      "v": 124
    },
    {
      "midi": 83,
      "hit": false,
      "t": 345375,
      "d": 387.5,
      "v": 103
    },
    {
      "midi": 79,
      "hit": false,
      "t": 345750,
      "d": 375,
      "v": 116
    },
    {
      "midi": 67,
      "hit": false,
      "t": 346125,
      "d": 375,
      "v": 114
    },
    {
      "midi": 69,
      "hit": false,
      "t": 346500,
      "d": 437.5,
      "v": 125
    },
    {
      "midi": 74,
      "hit": false,
      "t": 346500,
      "d": 450,
      "v": 124
    },
    {
      "midi": 71,
      "hit": false,
      "t": 346875,
      "d": 375,
      "v": 108
    },
    {
      "midi": 67,
      "hit": false,
      "t": 347250,
      "d": 387.5,
      "v": 118
    },
    {
      "midi": 62,
      "hit": false,
      "t": 347625,
      "d": 350,
      "v": 121
    },
    {
      "midi": 57,
      "hit": false,
      "t": 348000,
      "d": 450,
      "v": 121
    },
    {
      "midi": 60,
      "hit": false,
      "t": 348000,
      "d": 812.5,
      "v": 122
    },
    {
      "midi": 65,
      "hit": false,
      "t": 348000,
      "d": 812.5,
      "v": 122
    },
    {
      "midi": 57,
      "hit": false,
      "t": 348750,
      "d": 187.5,
      "v": 111
    },
    {
      "midi": 60,
      "hit": false,
      "t": 349500,
      "d": 512.5,
      "v": 120
    },
    {
      "midi": 65,
      "hit": false,
      "t": 349500,
      "d": 875,
      "v": 116
    },
    {
      "midi": 69,
      "hit": false,
      "t": 349500,
      "d": 950,
      "v": 117
    },
    {
      "midi": 60,
      "hit": false,
      "t": 350250,
      "d": 187.5,
      "v": 102
    },
    {
      "midi": 65,
      "hit": false,
      "t": 351000,
      "d": 412.5,
      "v": 120
    },
    {
      "midi": 72,
      "hit": false,
      "t": 351000,
      "d": 662.5,
      "v": 122
    },
    {
      "midi": 69,
      "hit": false,
      "t": 351000,
      "d": 700,
      "v": 118
    },
    {
      "midi": 65,
      "hit": false,
      "t": 351750,
      "d": 187.5,
      "v": 93
    },
    {
      "midi": 69,
      "hit": false,
      "t": 352500,
      "d": 437.5,
      "v": 118
    },
    {
      "midi": 72,
      "hit": false,
      "t": 352500,
      "d": 912.5,
      "v": 121
    },
    {
      "midi": 77,
      "hit": false,
      "t": 352500,
      "d": 912.5,
      "v": 124
    },
    {
      "midi": 69,
      "hit": false,
      "t": 353250,
      "d": 225,
      "v": 97
    },
    {
      "midi": 67,
      "hit": false,
      "t": 354000,
      "d": 475,
      "v": 117
    },
    {
      "midi": 76,
      "hit": false,
      "t": 354000,
      "d": 687.5,
      "v": 117
    },
    {
      "midi": 72,
      "hit": false,
      "t": 354000,
      "d": 725,
      "v": 122
    },
    {
      "midi": 67,
      "hit": false,
      "t": 354750,
      "d": 162.5,
      "v": 99
    },
    {
      "midi": 64,
      "hit": false,
      "t": 355500,
      "d": 312.5,
      "v": 121
    },
    {
      "midi": 67,
      "hit": false,
      "t": 355500,
      "d": 337.5,
      "v": 122
    },
    {
      "midi": 72,
      "hit": false,
      "t": 355500,
      "d": 362.5,
      "v": 125
    },
    {
      "midi": 64,
      "hit": false,
      "t": 356250,
      "d": 512.5,
      "v": 112
    },
    {
      "midi": 89,
      "hit": false,
      "t": 356625,
      "d": 437.5,
      "v": 118
    },
    {
      "midi": 88,
      "hit": false,
      "t": 357000,
      "d": 475,
      "v": 109
    },
    {
      "midi": 84,
      "hit": false,
      "t": 357375,
      "d": 425,
      "v": 113
    },
    {
      "midi": 79,
      "hit": false,
      "t": 357750,
      "d": 400,
      "v": 109
    },
    {
      "midi": 77,
      "hit": false,
      "t": 358125,
      "d": 387.5,
      "v": 118
    },
    {
      "midi": 76,
      "hit": false,
      "t": 358500,
      "d": 387.5,
      "v": 106
    },
    {
      "midi": 72,
      "hit": false,
      "t": 358875,
      "d": 437.5,
      "v": 114
    },
    {
      "midi": 67,
      "hit": false,
      "t": 359250,
      "d": 412.5,
      "v": 113
    },
    {
      "midi": 64,
      "hit": false,
      "t": 359625,
      "d": 375,
      "v": 118
    },
    {
      "midi": 60,
      "hit": false,
      "t": 360000,
      "d": 650,
      "v": 124
    },
    {
      "midi": 65,
      "hit": false,
      "t": 360000,
      "d": 950,
      "v": 124
    },
    {
      "midi": 69,
      "hit": false,
      "t": 360000,
      "d": 1012.5,
      "v": 121
    },
    {
      "midi": 60,
      "hit": false,
      "t": 360750,
      "d": 225,
      "v": 107
    },
    {
      "midi": 65,
      "hit": false,
      "t": 361500,
      "d": 487.5,
      "v": 121
    },
    {
      "midi": 69,
      "hit": false,
      "t": 361500,
      "d": 900,
      "v": 120
    },
    {
      "midi": 72,
      "hit": false,
      "t": 361500,
      "d": 912.5,
      "v": 120
    },
    {
      "midi": 65,
      "hit": false,
      "t": 362250,
      "d": 212.5,
      "v": 104
    },
    {
      "midi": 65,
      "hit": false,
      "t": 363000,
      "d": 587.5,
      "v": 121
    },
    {
      "midi": 69,
      "hit": false,
      "t": 363000,
      "d": 912.5,
      "v": 122
    },
    {
      "midi": 72,
      "hit": false,
      "t": 363000,
      "d": 950,
      "v": 120
    },
    {
      "midi": 74,
      "hit": false,
      "t": 364500,
      "d": 1450,
      "v": 121
    },
    {
      "midi": 67,
      "hit": false,
      "t": 364500,
      "d": 1462.5,
      "v": 118
    },
    {
      "midi": 71,
      "hit": false,
      "t": 364500,
      "d": 1462.5,
      "v": 124
    },
    {
      "midi": 69,
      "hit": false,
      "t": 366000,
      "d": 3000,
      "v": 115
    },
    {
      "midi": 72,
      "hit": false,
      "t": 366000,
      "d": 3000,
      "v": 115
    },
    {
      "midi": 77,
      "hit": false,
      "t": 366000,
      "d": 3000,
      "v": 115
    }
  ]
}