{
  "jsonPath": "Rock/Dutch Metal/Within Temptation/mother-earth-live-audio.json",
  "path": "Rock\\Dutch Metal\\Within Temptation\\Mother Earth Live Audio.mid",
  "name": "Mother Earth Live Audio",
  "difficulty": "Advanced",
  "bpm": 120,
  "notes": [
    {
      "midi": 49,
      "hit": false,
      "t": 2571.4260000000004,
      "d": 499.99950000000035,
      "v": 89
    },
    {
      "midi": 73,
      "hit": false,
      "t": 2573.8069500000006,
      "d": 571.4280000000003,
      "v": 77
    },
    {
      "midi": 52,
      "hit": false,
      "t": 2857.140000000001,
      "d": 285.71399999999994,
      "v": 77
    },
    {
      "midi": 56,
      "hit": false,
      "t": 3142.8540000000007,
      "d": 285.7140000000004,
      "v": 77
    },
    {
      "midi": 75,
      "hit": false,
      "t": 3145.234950000001,
      "d": 285.7140000000004,
      "v": 81
    },
    {
      "midi": 61,
      "hit": false,
      "t": 3428.568000000001,
      "d": 285.7140000000004,
      "v": 64
    },
    {
      "midi": 76,
      "hit": false,
      "t": 3428.568000000001,
      "d": 571.4280000000003,
      "v": 76
    },
    {
      "midi": 56,
      "hit": false,
      "t": 3714.2820000000015,
      "d": 285.71399999999994,
      "v": 77
    },
    {
      "midi": 52,
      "hit": false,
      "t": 3999.9960000000015,
      "d": 285.7140000000004,
      "v": 77
    },
    {
      "midi": 75,
      "hit": false,
      "t": 3999.9960000000015,
      "d": 285.7140000000004,
      "v": 86
    },
    {
      "midi": 76,
      "hit": false,
      "t": 4285.710000000002,
      "d": 285.71399999999994,
      "v": 80
    },
    {
      "midi": 45,
      "hit": false,
      "t": 4285.710000000002,
      "d": 499.9994999999999,
      "v": 89
    },
    {
      "midi": 49,
      "hit": false,
      "t": 4571.424000000002,
      "d": 285.71399999999994,
      "v": 77
    },
    {
      "midi": 75,
      "hit": false,
      "t": 4571.424000000002,
      "d": 285.71399999999994,
      "v": 80
    },
    {
      "midi": 52,
      "hit": false,
      "t": 4857.138000000002,
      "d": 285.71399999999994,
      "v": 77
    },
    {
      "midi": 73,
      "hit": false,
      "t": 4859.5189500000015,
      "d": 285.71399999999994,
      "v": 77
    },
    {
      "midi": 40,
      "hit": false,
      "t": 5142.852000000002,
      "d": 499.9994999999999,
      "v": 89
    },
    {
      "midi": 71,
      "hit": false,
      "t": 5142.852000000002,
      "d": 571.4279999999999,
      "v": 83
    },
    {
      "midi": 47,
      "hit": false,
      "t": 5428.566000000002,
      "d": 285.71399999999994,
      "v": 77
    },
    {
      "midi": 51,
      "hit": false,
      "t": 5714.280000000002,
      "d": 285.71399999999994,
      "v": 77
    },
    {
      "midi": 71,
      "hit": false,
      "t": 5714.280000000002,
      "d": 285.71399999999994,
      "v": 76
    },
    {
      "midi": 73,
      "hit": false,
      "t": 5999.9940000000015,
      "d": 571.4279999999999,
      "v": 84
    },
    {
      "midi": 49,
      "hit": false,
      "t": 5999.9940000000015,
      "d": 1142.8559999999998,
      "v": 89
    },
    {
      "midi": 52,
      "hit": false,
      "t": 6285.708000000001,
      "d": 285.71399999999994,
      "v": 77
    },
    {
      "midi": 56,
      "hit": false,
      "t": 6571.422000000001,
      "d": 285.71399999999994,
      "v": 77
    },
    {
      "midi": 75,
      "hit": false,
      "t": 6571.422000000001,
      "d": 285.71399999999994,
      "v": 80
    },
    {
      "midi": 61,
      "hit": false,
      "t": 6857.136000000001,
      "d": 285.71399999999994,
      "v": 64
    },
    {
      "midi": 76,
      "hit": false,
      "t": 6857.136000000001,
      "d": 571.4279999999999,
      "v": 80
    },
    {
      "midi": 56,
      "hit": false,
      "t": 7142.850000000001,
      "d": 285.71399999999994,
      "v": 77
    },
    {
      "midi": 52,
      "hit": false,
      "t": 7428.564000000001,
      "d": 285.71399999999994,
      "v": 77
    },
    {
      "midi": 75,
      "hit": false,
      "t": 7428.564000000001,
      "d": 285.71399999999994,
      "v": 83
    },
    {
      "midi": 45,
      "hit": false,
      "t": 7714.278000000001,
      "d": 499.999499999999,
      "v": 89
    },
    {
      "midi": 78,
      "hit": false,
      "t": 7716.658950000001,
      "d": 285.71399999999903,
      "v": 82
    },
    {
      "midi": 49,
      "hit": false,
      "t": 7999.992,
      "d": 285.71399999999994,
      "v": 78
    },
    {
      "midi": 76,
      "hit": false,
      "t": 7999.992,
      "d": 285.71399999999994,
      "v": 77
    },
    {
      "midi": 52,
      "hit": false,
      "t": 8285.706,
      "d": 285.71399999999994,
      "v": 78
    },
    {
      "midi": 75,
      "hit": false,
      "t": 8285.706,
      "d": 285.71399999999994,
      "v": 86
    },
    {
      "midi": 42,
      "hit": false,
      "t": 8571.42,
      "d": 499.9994999999999,
      "v": 90
    },
    {
      "midi": 80,
      "hit": false,
      "t": 8571.42,
      "d": 571.4279999999999,
      "v": 87
    },
    {
      "midi": 45,
      "hit": false,
      "t": 8857.134,
      "d": 285.71399999999994,
      "v": 78
    },
    {
      "midi": 49,
      "hit": false,
      "t": 9142.848,
      "d": 257.1425999999992,
      "v": 78
    },
    {
      "midi": 78,
      "hit": false,
      "t": 9142.848,
      "d": 264.2854499999994,
      "v": 81
    },
    {
      "midi": 49,
      "hit": false,
      "t": 9428.562,
      "d": 499.9995000000017,
      "v": 90
    },
    {
      "midi": 73,
      "hit": false,
      "t": 9430.94295,
      "d": 571.4280000000017,
      "v": 78
    },
    {
      "midi": 52,
      "hit": false,
      "t": 9714.276000000002,
      "d": 285.71399999999994,
      "v": 78
    },
    {
      "midi": 56,
      "hit": false,
      "t": 9999.990000000002,
      "d": 285.71399999999994,
      "v": 78
    },
    {
      "midi": 75,
      "hit": false,
      "t": 10002.370950000002,
      "d": 285.71399999999994,
      "v": 82
    },
    {
      "midi": 61,
      "hit": false,
      "t": 10285.704000000002,
      "d": 285.71399999999994,
      "v": 66
    },
    {
      "midi": 76,
      "hit": false,
      "t": 10285.704000000002,
      "d": 571.4279999999999,
      "v": 77
    },
    {
      "midi": 56,
      "hit": false,
      "t": 10571.418000000001,
      "d": 285.71399999999994,
      "v": 78
    },
    {
      "midi": 52,
      "hit": false,
      "t": 10857.132000000001,
      "d": 285.71399999999994,
      "v": 78
    },
    {
      "midi": 75,
      "hit": false,
      "t": 10857.132000000001,
      "d": 285.71399999999994,
      "v": 87
    },
    {
      "midi": 76,
      "hit": false,
      "t": 11142.846000000001,
      "d": 285.71399999999994,
      "v": 81
    },
    {
      "midi": 45,
      "hit": false,
      "t": 11142.846000000001,
      "d": 499.9994999999999,
      "v": 90
    },
    {
      "midi": 49,
      "hit": false,
      "t": 11428.560000000001,
      "d": 285.71399999999994,
      "v": 78
    },
    {
      "midi": 75,
      "hit": false,
      "t": 11428.560000000001,
      "d": 285.71399999999994,
      "v": 81
    },
    {
      "midi": 52,
      "hit": false,
      "t": 11714.274000000001,
      "d": 285.71400000000176,
      "v": 78
    },
    {
      "midi": 73,
      "hit": false,
      "t": 11716.654950000002,
      "d": 285.71400000000176,
      "v": 78
    },
    {
      "midi": 40,
      "hit": false,
      "t": 11999.988000000003,
      "d": 499.9995000000017,
      "v": 90
    },
    {
      "midi": 71,
      "hit": false,
      "t": 11999.988000000003,
      "d": 571.4280000000017,
      "v": 84
    },
    {
      "midi": 47,
      "hit": false,
      "t": 12285.702000000003,
      "d": 285.71400000000176,
      "v": 78
    },
    {
      "midi": 51,
      "hit": false,
      "t": 12571.416000000005,
      "d": 285.71399999999994,
      "v": 78
    },
    {
      "midi": 71,
      "hit": false,
      "t": 12571.416000000005,
      "d": 285.71399999999994,
      "v": 77
    },
    {
      "midi": 78,
      "hit": false,
      "t": 12857.130000000005,
      "d": 285.71399999999994,
      "v": 86
    },
    {
      "midi": 42,
      "hit": false,
      "t": 12857.130000000005,
      "d": 428.57100000000173,
      "v": 90
    },
    {
      "midi": 45,
      "hit": false,
      "t": 13142.844000000005,
      "d": 285.71400000000176,
      "v": 79
    },
    {
      "midi": 76,
      "hit": false,
      "t": 13142.844000000005,
      "d": 285.71400000000176,
      "v": 88
    },
    {
      "midi": 49,
      "hit": false,
      "t": 13428.558000000006,
      "d": 285.71399999999994,
      "v": 79
    },
    {
      "midi": 75,
      "hit": false,
      "t": 13428.558000000006,
      "d": 285.71399999999994,
      "v": 82
    },
    {
      "midi": 76,
      "hit": false,
      "t": 13714.272000000006,
      "d": 285.71399999999994,
      "v": 82
    },
    {
      "midi": 44,
      "hit": false,
      "t": 13714.272000000006,
      "d": 428.5709999999999,
      "v": 92
    },
    {
      "midi": 47,
      "hit": false,
      "t": 13999.986000000006,
      "d": 285.71399999999994,
      "v": 79
    },
    {
      "midi": 75,
      "hit": false,
      "t": 14002.366950000007,
      "d": 285.71399999999994,
      "v": 79
    },
    {
      "midi": 51,
      "hit": false,
      "t": 14285.700000000006,
      "d": 285.71399999999994,
      "v": 79
    },
    {
      "midi": 73,
      "hit": false,
      "t": 14285.700000000006,
      "d": 285.71399999999994,
      "v": 86
    },
    {
      "midi": 49,
      "hit": false,
      "t": 14571.414000000006,
      "d": 642.8564999999999,
      "v": 92
    },
    {
      "midi": 73,
      "hit": false,
      "t": 14573.794950000007,
      "d": 857.1419999999998,
      "v": 83
    },
    {
      "midi": 49,
      "hit": false,
      "t": 16285.698000000008,
      "d": 499.9995000000017,
      "v": 92
    },
    {
      "midi": 73,
      "hit": false,
      "t": 16288.078950000008,
      "d": 571.4280000000017,
      "v": 79
    },
    {
      "midi": 52,
      "hit": false,
      "t": 16571.412000000008,
      "d": 285.7140000000036,
      "v": 79
    },
    {
      "midi": 56,
      "hit": false,
      "t": 16857.12600000001,
      "d": 285.71399999999994,
      "v": 79
    },
    {
      "midi": 75,
      "hit": false,
      "t": 16859.50695000001,
      "d": 285.71399999999994,
      "v": 83
    },
    {
      "midi": 61,
      "hit": false,
      "t": 17142.84000000001,
      "d": 285.71399999999994,
      "v": 67
    },
    {
      "midi": 76,
      "hit": false,
      "t": 17142.84000000001,
      "d": 571.4279999999999,
      "v": 78
    },
    {
      "midi": 56,
      "hit": false,
      "t": 17428.55400000001,
      "d": 285.71399999999994,
      "v": 79
    },
    {
      "midi": 52,
      "hit": false,
      "t": 17714.26800000001,
      "d": 285.71399999999994,
      "v": 79
    },
    {
      "midi": 75,
      "hit": false,
      "t": 17714.26800000001,
      "d": 285.71399999999994,
      "v": 88
    },
    {
      "midi": 76,
      "hit": false,
      "t": 17999.98200000001,
      "d": 285.71399999999994,
      "v": 82
    },
    {
      "midi": 45,
      "hit": false,
      "t": 17999.98200000001,
      "d": 499.9994999999981,
      "v": 92
    },
    {
      "midi": 49,
      "hit": false,
      "t": 18285.69600000001,
      "d": 285.71399999999994,
      "v": 80
    },
    {
      "midi": 75,
      "hit": false,
      "t": 18285.69600000001,
      "d": 285.71399999999994,
      "v": 83
    },
    {
      "midi": 52,
      "hit": false,
      "t": 18571.41000000001,
      "d": 285.71399999999994,
      "v": 80
    },
    {
      "midi": 73,
      "hit": false,
      "t": 18573.79095000001,
      "d": 285.71399999999994,
      "v": 80
    },
    {
      "midi": 40,
      "hit": false,
      "t": 18857.12400000001,
      "d": 499.9995000000017,
      "v": 93
    },
    {
      "midi": 71,
      "hit": false,
      "t": 18857.12400000001,
      "d": 571.4280000000035,
      "v": 88
    },
    {
      "midi": 47,
      "hit": false,
      "t": 19142.83800000001,
      "d": 285.7140000000036,
      "v": 80
    },
    {
      "midi": 51,
      "hit": false,
      "t": 19428.552000000014,
      "d": 285.71399999999994,
      "v": 80
    },
    {
      "midi": 71,
      "hit": false,
      "t": 19428.552000000014,
      "d": 285.71399999999994,
      "v": 79
    },
    {
      "midi": 49,
      "hit": false,
      "t": 19714.266000000014,
      "d": 499.9994999999981,
      "v": 93
    },
    {
      "midi": 73,
      "hit": false,
      "t": 19714.266000000014,
      "d": 571.4279999999999,
      "v": 88
    },
    {
      "midi": 52,
      "hit": false,
      "t": 19999.980000000014,
      "d": 285.71399999999994,
      "v": 80
    },
    {
      "midi": 56,
      "hit": false,
      "t": 20285.694000000014,
      "d": 285.71399999999994,
      "v": 80
    },
    {
      "midi": 75,
      "hit": false,
      "t": 20285.694000000014,
      "d": 285.71399999999994,
      "v": 83
    },
    {
      "midi": 61,
      "hit": false,
      "t": 20571.408000000014,
      "d": 285.71399999999994,
      "v": 69
    },
    {
      "midi": 76,
      "hit": false,
      "t": 20571.408000000014,
      "d": 571.4279999999999,
      "v": 83
    },
    {
      "midi": 56,
      "hit": false,
      "t": 20857.122000000014,
      "d": 285.71399999999994,
      "v": 80
    },
    {
      "midi": 52,
      "hit": false,
      "t": 21142.836000000014,
      "d": 285.71399999999994,
      "v": 80
    },
    {
      "midi": 75,
      "hit": false,
      "t": 21142.836000000014,
      "d": 285.71399999999994,
      "v": 88
    },
    {
      "midi": 45,
      "hit": false,
      "t": 21428.550000000014,
      "d": 499.9994999999981,
      "v": 93
    },
    {
      "midi": 78,
      "hit": false,
      "t": 21430.930950000013,
      "d": 285.71399999999994,
      "v": 83
    },
    {
      "midi": 49,
      "hit": false,
      "t": 21714.264000000014,
      "d": 285.71399999999994,
      "v": 80
    },
    {
      "midi": 76,
      "hit": false,
      "t": 21714.264000000014,
      "d": 285.71399999999994,
      "v": 79
    },
    {
      "midi": 52,
      "hit": false,
      "t": 21999.978000000014,
      "d": 285.71399999999994,
      "v": 80
    },
    {
      "midi": 75,
      "hit": false,
      "t": 21999.978000000014,
      "d": 285.71399999999994,
      "v": 88
    },
    {
      "midi": 42,
      "hit": false,
      "t": 22285.692000000014,
      "d": 499.9994999999981,
      "v": 93
    },
    {
      "midi": 80,
      "hit": false,
      "t": 22285.692000000014,
      "d": 571.4279999999999,
      "v": 90
    },
    {
      "midi": 45,
      "hit": false,
      "t": 22571.406000000014,
      "d": 285.71399999999994,
      "v": 80
    },
    {
      "midi": 49,
      "hit": false,
      "t": 22857.120000000014,
      "d": 285.71399999999994,
      "v": 93
    },
    {
      "midi": 78,
      "hit": false,
      "t": 22857.120000000014,
      "d": 285.71399999999994,
      "v": 83
    },
    {
      "midi": 49,
      "hit": false,
      "t": 23142.834000000013,
      "d": 499.9995000000017,
      "v": 93
    },
    {
      "midi": 73,
      "hit": false,
      "t": 23145.214950000012,
      "d": 571.4280000000035,
      "v": 81
    },
    {
      "midi": 52,
      "hit": false,
      "t": 23428.548000000013,
      "d": 285.7140000000036,
      "v": 81
    },
    {
      "midi": 56,
      "hit": false,
      "t": 23714.262000000017,
      "d": 285.71399999999994,
      "v": 81
    },
    {
      "midi": 75,
      "hit": false,
      "t": 23716.642950000016,
      "d": 285.71399999999994,
      "v": 84
    },
    {
      "midi": 61,
      "hit": false,
      "t": 23999.976000000017,
      "d": 285.71399999999994,
      "v": 70
    },
    {
      "midi": 76,
      "hit": false,
      "t": 23999.976000000017,
      "d": 571.4279999999999,
      "v": 80
    },
    {
      "midi": 56,
      "hit": false,
      "t": 24285.690000000017,
      "d": 285.71399999999994,
      "v": 81
    },
    {
      "midi": 52,
      "hit": false,
      "t": 24571.404000000017,
      "d": 285.71399999999994,
      "v": 81
    },
    {
      "midi": 75,
      "hit": false,
      "t": 24571.404000000017,
      "d": 285.71399999999994,
      "v": 91
    },
    {
      "midi": 76,
      "hit": false,
      "t": 24857.118000000017,
      "d": 285.71399999999994,
      "v": 83
    },
    {
      "midi": 45,
      "hit": false,
      "t": 24857.118000000017,
      "d": 499.9995000000017,
      "v": 94
    },
    {
      "midi": 49,
      "hit": false,
      "t": 25142.832000000017,
      "d": 285.7140000000036,
      "v": 81
    },
    {
      "midi": 75,
      "hit": false,
      "t": 25142.832000000017,
      "d": 285.7140000000036,
      "v": 83
    },
    {
      "midi": 52,
      "hit": false,
      "t": 25428.54600000002,
      "d": 285.71399999999994,
      "v": 81
    },
    {
      "midi": 73,
      "hit": false,
      "t": 25430.92695000002,
      "d": 285.71399999999994,
      "v": 81
    },
    {
      "midi": 40,
      "hit": false,
      "t": 25714.26000000002,
      "d": 499.9995000000017,
      "v": 94
    },
    {
      "midi": 71,
      "hit": false,
      "t": 25714.26000000002,
      "d": 571.4280000000035,
      "v": 90
    },
    {
      "midi": 47,
      "hit": false,
      "t": 25999.97400000002,
      "d": 285.7140000000036,
      "v": 81
    },
    {
      "midi": 51,
      "hit": false,
      "t": 26285.688000000024,
      "d": 285.71399999999994,
      "v": 81
    },
    {
      "midi": 71,
      "hit": false,
      "t": 26285.688000000024,
      "d": 285.71399999999994,
      "v": 80
    },
    {
      "midi": 78,
      "hit": false,
      "t": 26571.402000000024,
      "d": 285.71399999999994,
      "v": 90
    },
    {
      "midi": 42,
      "hit": false,
      "t": 26571.402000000024,
      "d": 428.5709999999999,
      "v": 94
    },
    {
      "midi": 45,
      "hit": false,
      "t": 26857.116000000024,
      "d": 285.71399999999994,
      "v": 81
    },
    {
      "midi": 76,
      "hit": false,
      "t": 26857.116000000024,
      "d": 285.71399999999994,
      "v": 91
    },
    {
      "midi": 49,
      "hit": false,
      "t": 27142.830000000024,
      "d": 285.71399999999994,
      "v": 81
    },
    {
      "midi": 75,
      "hit": false,
      "t": 27142.830000000024,
      "d": 285.71399999999994,
      "v": 83
    },
    {
      "midi": 76,
      "hit": false,
      "t": 27428.544000000024,
      "d": 285.71399999999994,
      "v": 83
    },
    {
      "midi": 44,
      "hit": false,
      "t": 27428.544000000024,
      "d": 428.5709999999963,
      "v": 94
    },
    {
      "midi": 47,
      "hit": false,
      "t": 27714.258000000023,
      "d": 285.7139999999963,
      "v": 81
    },
    {
      "midi": 75,
      "hit": false,
      "t": 27716.638950000022,
      "d": 285.7139999999963,
      "v": 81
    },
    {
      "midi": 51,
      "hit": false,
      "t": 27999.97200000002,
      "d": 285.71399999999994,
      "v": 81
    },
    {
      "midi": 73,
      "hit": false,
      "t": 27999.97200000002,
      "d": 285.71399999999994,
      "v": 90
    },
    {
      "midi": 49,
      "hit": false,
      "t": 28285.68600000002,
      "d": 642.856499999998,
      "v": 94
    },
    {
      "midi": 73,
      "hit": false,
      "t": 28288.06695000002,
      "d": 857.1419999999998,
      "v": 88
    },
    {
      "midi": 49,
      "hit": false,
      "t": 50568.99704999995,
      "d": 499.9994999999981,
      "v": 92
    },
    {
      "midi": 73,
      "hit": false,
      "t": 50571.377999999946,
      "d": 571.4279999999999,
      "v": 77
    },
    {
      "midi": 52,
      "hit": false,
      "t": 50854.71104999995,
      "d": 285.71399999999994,
      "v": 79
    },
    {
      "midi": 56,
      "hit": false,
      "t": 51140.42504999995,
      "d": 285.71399999999994,
      "v": 79
    },
    {
      "midi": 75,
      "hit": false,
      "t": 51142.805999999946,
      "d": 285.71399999999994,
      "v": 81
    },
    {
      "midi": 61,
      "hit": false,
      "t": 51426.13904999995,
      "d": 285.71399999999994,
      "v": 67
    },
    {
      "midi": 76,
      "hit": false,
      "t": 51426.13904999995,
      "d": 571.4279999999999,
      "v": 76
    },
    {
      "midi": 56,
      "hit": false,
      "t": 51711.85304999995,
      "d": 285.71399999999994,
      "v": 79
    },
    {
      "midi": 52,
      "hit": false,
      "t": 51997.56704999995,
      "d": 285.71399999999994,
      "v": 79
    },
    {
      "midi": 75,
      "hit": false,
      "t": 51997.56704999995,
      "d": 285.71399999999994,
      "v": 86
    },
    {
      "midi": 76,
      "hit": false,
      "t": 52283.28104999995,
      "d": 285.71399999999994,
      "v": 80
    },
    {
      "midi": 45,
      "hit": false,
      "t": 52283.28104999995,
      "d": 499.9994999999981,
      "v": 92
    },
    {
      "midi": 49,
      "hit": false,
      "t": 52568.99504999995,
      "d": 285.71399999999994,
      "v": 80
    },
    {
      "midi": 75,
      "hit": false,
      "t": 52568.99504999995,
      "d": 285.71399999999994,
      "v": 81
    },
    {
      "midi": 52,
      "hit": false,
      "t": 52854.70904999995,
      "d": 285.71399999999994,
      "v": 80
    },
    {
      "midi": 73,
      "hit": false,
      "t": 52857.089999999946,
      "d": 285.71399999999994,
      "v": 78
    },
    {
      "midi": 40,
      "hit": false,
      "t": 53140.42304999995,
      "d": 499.9994999999981,
      "v": 93
    },
    {
      "midi": 71,
      "hit": false,
      "t": 53140.42304999995,
      "d": 571.4279999999999,
      "v": 86
    },
    {
      "midi": 47,
      "hit": false,
      "t": 53426.13704999995,
      "d": 285.71399999999994,
      "v": 80
    },
    {
      "midi": 51,
      "hit": false,
      "t": 53711.85104999995,
      "d": 285.71399999999994,
      "v": 80
    },
    {
      "midi": 71,
      "hit": false,
      "t": 53711.85104999995,
      "d": 285.71399999999994,
      "v": 77
    },
    {
      "midi": 49,
      "hit": false,
      "t": 53997.56504999995,
      "d": 499.99950000000536,
      "v": 93
    },
    {
      "midi": 73,
      "hit": false,
      "t": 53997.56504999995,
      "d": 571.4280000000072,
      "v": 86
    },
    {
      "midi": 52,
      "hit": false,
      "t": 54283.27904999995,
      "d": 285.7140000000072,
      "v": 80
    },
    {
      "midi": 56,
      "hit": false,
      "t": 54568.993049999954,
      "d": 285.71399999999994,
      "v": 80
    },
    {
      "midi": 75,
      "hit": false,
      "t": 54568.993049999954,
      "d": 285.71399999999994,
      "v": 81
    },
    {
      "midi": 61,
      "hit": false,
      "t": 54854.70704999995,
      "d": 285.71399999999994,
      "v": 69
    },
    {
      "midi": 76,
      "hit": false,
      "t": 54854.70704999995,
      "d": 571.4279999999999,
      "v": 81
    },
    {
      "midi": 56,
      "hit": false,
      "t": 55140.42104999995,
      "d": 285.71399999999994,
      "v": 80
    },
    {
      "midi": 52,
      "hit": false,
      "t": 55426.13504999995,
      "d": 285.71399999999994,
      "v": 80
    },
    {
      "midi": 75,
      "hit": false,
      "t": 55426.13504999995,
      "d": 285.71399999999994,
      "v": 86
    },
    {
      "midi": 45,
      "hit": false,
      "t": 55711.84904999995,
      "d": 499.9994999999981,
      "v": 93
    },
    {
      "midi": 78,
      "hit": false,
      "t": 55714.22999999995,
      "d": 285.71399999999994,
      "v": 81
    },
    {
      "midi": 49,
      "hit": false,
      "t": 55997.56304999995,
      "d": 285.71399999999994,
      "v": 80
    },
    {
      "midi": 76,
      "hit": false,
      "t": 55997.56304999995,
      "d": 285.71399999999994,
      "v": 77
    },
    {
      "midi": 52,
      "hit": false,
      "t": 56283.27704999995,
      "d": 285.71399999999994,
      "v": 80
    },
    {
      "midi": 75,
      "hit": false,
      "t": 56283.27704999995,
      "d": 285.71399999999994,
      "v": 86
    },
    {
      "midi": 42,
      "hit": false,
      "t": 56568.99104999995,
      "d": 499.99950000000536,
      "v": 93
    },
    {
      "midi": 80,
      "hit": false,
      "t": 56568.99104999995,
      "d": 571.4280000000072,
      "v": 88
    },
    {
      "midi": 45,
      "hit": false,
      "t": 56854.70504999995,
      "d": 285.7140000000072,
      "v": 80
    },
    {
      "midi": 49,
      "hit": false,
      "t": 57140.41904999996,
      "d": 285.71399999999994,
      "v": 93
    },
    {
      "midi": 78,
      "hit": false,
      "t": 57140.41904999996,
      "d": 285.71399999999994,
      "v": 81
    },
    {
      "midi": 49,
      "hit": false,
      "t": 57426.13304999996,
      "d": 499.9994999999981,
      "v": 93
    },
    {
      "midi": 73,
      "hit": false,
      "t": 57428.51399999996,
      "d": 571.4279999999999,
      "v": 79
    },
    {
      "midi": 52,
      "hit": false,
      "t": 57711.84704999996,
      "d": 285.71399999999994,
      "v": 81
    },
    {
      "midi": 56,
      "hit": false,
      "t": 57997.56104999996,
      "d": 285.71399999999994,
      "v": 81
    },
    {
      "midi": 75,
      "hit": false,
      "t": 57999.94199999996,
      "d": 285.71399999999994,
      "v": 82
    },
    {
      "midi": 61,
      "hit": false,
      "t": 58283.27504999996,
      "d": 285.71399999999994,
      "v": 70
    },
    {
      "midi": 76,
      "hit": false,
      "t": 58283.27504999996,
      "d": 571.4279999999999,
      "v": 78
    },
    {
      "midi": 56,
      "hit": false,
      "t": 58568.98904999996,
      "d": 285.71399999999994,
      "v": 81
    },
    {
      "midi": 52,
      "hit": false,
      "t": 58854.70304999996,
      "d": 285.71399999999994,
      "v": 81
    },
    {
      "midi": 75,
      "hit": false,
      "t": 58854.70304999996,
      "d": 285.71399999999994,
      "v": 89
    },
    {
      "midi": 76,
      "hit": false,
      "t": 59140.41704999996,
      "d": 285.71399999999994,
      "v": 81
    },
    {
      "midi": 45,
      "hit": false,
      "t": 59140.41704999996,
      "d": 499.9994999999981,
      "v": 94
    },
    {
      "midi": 49,
      "hit": false,
      "t": 59426.13104999996,
      "d": 285.71399999999994,
      "v": 81
    },
    {
      "midi": 75,
      "hit": false,
      "t": 59426.13104999996,
      "d": 285.71399999999994,
      "v": 81
    },
    {
      "midi": 52,
      "hit": false,
      "t": 59711.84504999996,
      "d": 285.71399999999994,
      "v": 81
    },
    {
      "midi": 73,
      "hit": false,
      "t": 59714.22599999996,
      "d": 285.71399999999994,
      "v": 79
    },
    {
      "midi": 40,
      "hit": false,
      "t": 59997.55904999996,
      "d": 499.9994999999981,
      "v": 94
    },
    {
      "midi": 71,
      "hit": false,
      "t": 59997.55904999996,
      "d": 571.4279999999999,
      "v": 88
    },
    {
      "midi": 47,
      "hit": false,
      "t": 60283.27304999996,
      "d": 285.71399999999994,
      "v": 81
    },
    {
      "midi": 51,
      "hit": false,
      "t": 60568.98704999996,
      "d": 285.71399999999994,
      "v": 81
    },
    {
      "midi": 71,
      "hit": false,
      "t": 60568.98704999996,
      "d": 285.71399999999994,
      "v": 78
    },
    {
      "midi": 78,
      "hit": false,
      "t": 60854.70104999996,
      "d": 285.71399999999994,
      "v": 88
    },
    {
      "midi": 42,
      "hit": false,
      "t": 60854.70104999996,
      "d": 428.57100000000355,
      "v": 94
    },
    {
      "midi": 45,
      "hit": false,
      "t": 61140.41504999996,
      "d": 285.7140000000072,
      "v": 81
    },
    {
      "midi": 76,
      "hit": false,
      "t": 61140.41504999996,
      "d": 285.7140000000072,
      "v": 89
    },
    {
      "midi": 49,
      "hit": false,
      "t": 61426.12904999997,
      "d": 285.71399999999994,
      "v": 81
    },
    {
      "midi": 75,
      "hit": false,
      "t": 61426.12904999997,
      "d": 285.71399999999994,
      "v": 81
    },
    {
      "midi": 76,
      "hit": false,
      "t": 61711.84304999997,
      "d": 285.71399999999994,
      "v": 81
    },
    {
      "midi": 44,
      "hit": false,
      "t": 61711.84304999997,
      "d": 428.5709999999963,
      "v": 94
    },
    {
      "midi": 47,
      "hit": false,
      "t": 61997.55704999997,
      "d": 285.71399999999994,
      "v": 81
    },
    {
      "midi": 75,
      "hit": false,
      "t": 61999.937999999966,
      "d": 285.71399999999994,
      "v": 79
    },
    {
      "midi": 51,
      "hit": false,
      "t": 62283.27104999997,
      "d": 285.71399999999267,
      "v": 81
    },
    {
      "midi": 73,
      "hit": false,
      "t": 62283.27104999997,
      "d": 285.71399999999267,
      "v": 88
    },
    {
      "midi": 49,
      "hit": false,
      "t": 62568.98504999996,
      "d": 642.8565000000017,
      "v": 94
    },
    {
      "midi": 73,
      "hit": false,
      "t": 62571.36599999996,
      "d": 857.1419999999998,
      "v": 86
    },
    {
      "midi": 49,
      "hit": false,
      "t": 173999.82600000175,
      "d": 499.99950000000536,
      "v": 92
    },
    {
      "midi": 73,
      "hit": false,
      "t": 173999.82600000175,
      "d": 571.4279999999853,
      "v": 77
    },
    {
      "midi": 52,
      "hit": false,
      "t": 174283.15905000173,
      "d": 285.7140000000072,
      "v": 79
    },
    {
      "midi": 56,
      "hit": false,
      "t": 174568.87305000174,
      "d": 285.7140000000072,
      "v": 79
    },
    {
      "midi": 75,
      "hit": false,
      "t": 174571.25400000173,
      "d": 285.7140000000072,
      "v": 81
    },
    {
      "midi": 61,
      "hit": false,
      "t": 174854.58705000175,
      "d": 285.7139999999781,
      "v": 67
    },
    {
      "midi": 76,
      "hit": false,
      "t": 174854.58705000175,
      "d": 571.4279999999853,
      "v": 76
    },
    {
      "midi": 56,
      "hit": false,
      "t": 175140.30105000173,
      "d": 285.7140000000072,
      "v": 79
    },
    {
      "midi": 52,
      "hit": false,
      "t": 175426.01505000173,
      "d": 285.7140000000072,
      "v": 79
    },
    {
      "midi": 75,
      "hit": false,
      "t": 175426.01505000173,
      "d": 285.7140000000072,
      "v": 86
    },
    {
      "midi": 76,
      "hit": false,
      "t": 175711.72905000174,
      "d": 285.7140000000072,
      "v": 80
    },
    {
      "midi": 45,
      "hit": false,
      "t": 175711.72905000174,
      "d": 499.99950000000536,
      "v": 92
    },
    {
      "midi": 49,
      "hit": false,
      "t": 175997.44305000175,
      "d": 285.7140000000072,
      "v": 80
    },
    {
      "midi": 75,
      "hit": false,
      "t": 175997.44305000175,
      "d": 285.7140000000072,
      "v": 81
    },
    {
      "midi": 52,
      "hit": false,
      "t": 176283.15705000176,
      "d": 285.7140000000072,
      "v": 80
    },
    {
      "midi": 73,
      "hit": false,
      "t": 176285.53800000175,
      "d": 285.7140000000072,
      "v": 78
    },
    {
      "midi": 40,
      "hit": false,
      "t": 176568.87105000176,
      "d": 499.99949999997625,
      "v": 93
    },
    {
      "midi": 71,
      "hit": false,
      "t": 176568.87105000176,
      "d": 571.4279999999853,
      "v": 86
    },
    {
      "midi": 47,
      "hit": false,
      "t": 176854.58505000174,
      "d": 285.7140000000072,
      "v": 80
    },
    {
      "midi": 51,
      "hit": false,
      "t": 177140.29905000175,
      "d": 285.7139999999781,
      "v": 80
    },
    {
      "midi": 71,
      "hit": false,
      "t": 177140.29905000175,
      "d": 285.7139999999781,
      "v": 77
    },
    {
      "midi": 49,
      "hit": false,
      "t": 177426.01305000173,
      "d": 499.99950000000536,
      "v": 93
    },
    {
      "midi": 73,
      "hit": false,
      "t": 177426.01305000173,
      "d": 571.4280000000144,
      "v": 86
    },
    {
      "midi": 52,
      "hit": false,
      "t": 177711.72705000173,
      "d": 285.7140000000072,
      "v": 80
    },
    {
      "midi": 56,
      "hit": false,
      "t": 177997.44105000174,
      "d": 285.7140000000072,
      "v": 80
    },
    {
      "midi": 75,
      "hit": false,
      "t": 177997.44105000174,
      "d": 285.7140000000072,
      "v": 81
    },
    {
      "midi": 61,
      "hit": false,
      "t": 178283.15505000175,
      "d": 285.7140000000072,
      "v": 69
    },
    {
      "midi": 76,
      "hit": false,
      "t": 178283.15505000175,
      "d": 571.4280000000144,
      "v": 81
    },
    {
      "midi": 56,
      "hit": false,
      "t": 178568.86905000175,
      "d": 285.7140000000072,
      "v": 80
    },
    {
      "midi": 52,
      "hit": false,
      "t": 178854.58305000176,
      "d": 285.7139999999781,
      "v": 80
    },
    {
      "midi": 75,
      "hit": false,
      "t": 178854.58305000176,
      "d": 285.7139999999781,
      "v": 86
    },
    {
      "midi": 45,
      "hit": false,
      "t": 179140.29705000174,
      "d": 499.99949999997625,
      "v": 93
    },
    {
      "midi": 78,
      "hit": false,
      "t": 179142.67800000173,
      "d": 285.7139999999781,
      "v": 81
    },
    {
      "midi": 49,
      "hit": false,
      "t": 179426.01105000172,
      "d": 285.7140000000072,
      "v": 80
    },
    {
      "midi": 76,
      "hit": false,
      "t": 179426.01105000172,
      "d": 285.7140000000072,
      "v": 77
    },
    {
      "midi": 52,
      "hit": false,
      "t": 179711.72505000173,
      "d": 285.7139999999781,
      "v": 80
    },
    {
      "midi": 75,
      "hit": false,
      "t": 179711.72505000173,
      "d": 285.7139999999781,
      "v": 86
    },
    {
      "midi": 42,
      "hit": false,
      "t": 179997.4390500017,
      "d": 499.99950000000536,
      "v": 93
    },
    {
      "midi": 80,
      "hit": false,
      "t": 179997.4390500017,
      "d": 571.4280000000144,
      "v": 88
    },
    {
      "midi": 45,
      "hit": false,
      "t": 180283.1530500017,
      "d": 285.7140000000072,
      "v": 80
    },
    {
      "midi": 49,
      "hit": false,
      "t": 180568.86705000172,
      "d": 285.7140000000072,
      "v": 93
    },
    {
      "midi": 78,
      "hit": false,
      "t": 180568.86705000172,
      "d": 285.7140000000072,
      "v": 81
    },
    {
      "midi": 49,
      "hit": false,
      "t": 180854.58105000173,
      "d": 499.99949999997625,
      "v": 93
    },
    {
      "midi": 73,
      "hit": false,
      "t": 180856.96200000172,
      "d": 571.4279999999853,
      "v": 79
    },
    {
      "midi": 52,
      "hit": false,
      "t": 181140.2950500017,
      "d": 285.7140000000072,
      "v": 81
    },
    {
      "midi": 56,
      "hit": false,
      "t": 181426.0090500017,
      "d": 285.7140000000072,
      "v": 81
    },
    {
      "midi": 75,
      "hit": false,
      "t": 181428.3900000017,
      "d": 285.7140000000072,
      "v": 82
    },
    {
      "midi": 61,
      "hit": false,
      "t": 181711.72305000172,
      "d": 285.7139999999781,
      "v": 70
    },
    {
      "midi": 76,
      "hit": false,
      "t": 181711.72305000172,
      "d": 571.4279999999853,
      "v": 78
    },
    {
      "midi": 56,
      "hit": false,
      "t": 181997.4370500017,
      "d": 285.7140000000072,
      "v": 81
    },
    {
      "midi": 52,
      "hit": false,
      "t": 182283.1510500017,
      "d": 285.7140000000072,
      "v": 81
    },
    {
      "midi": 75,
      "hit": false,
      "t": 182283.1510500017,
      "d": 285.7140000000072,
      "v": 89
    },
    {
      "midi": 76,
      "hit": false,
      "t": 182568.8650500017,
      "d": 285.7140000000072,
      "v": 81
    },
    {
      "midi": 45,
      "hit": false,
      "t": 182568.8650500017,
      "d": 499.99950000000536,
      "v": 94
    },
    {
      "midi": 49,
      "hit": false,
      "t": 182854.57905000172,
      "d": 285.7140000000072,
      "v": 81
    },
    {
      "midi": 75,
      "hit": false,
      "t": 182854.57905000172,
      "d": 285.7140000000072,
      "v": 81
    },
    {
      "midi": 52,
      "hit": false,
      "t": 183140.29305000172,
      "d": 285.7140000000072,
      "v": 81
    },
    {
      "midi": 73,
      "hit": false,
      "t": 183142.67400000172,
      "d": 285.7140000000072,
      "v": 79
    },
    {
      "midi": 40,
      "hit": false,
      "t": 183426.00705000173,
      "d": 499.99949999997625,
      "v": 94
    },
    {
      "midi": 71,
      "hit": false,
      "t": 183426.00705000173,
      "d": 571.4279999999853,
      "v": 88
    },
    {
      "midi": 47,
      "hit": false,
      "t": 183711.7210500017,
      "d": 285.7140000000072,
      "v": 81
    },
    {
      "midi": 51,
      "hit": false,
      "t": 183997.43505000172,
      "d": 285.7140000000072,
      "v": 81
    },
    {
      "midi": 71,
      "hit": false,
      "t": 183997.43505000172,
      "d": 285.7140000000072,
      "v": 78
    },
    {
      "midi": 78,
      "hit": false,
      "t": 184283.14905000172,
      "d": 285.7140000000072,
      "v": 88
    },
    {
      "midi": 42,
      "hit": false,
      "t": 184283.14905000172,
      "d": 428.5709999999963,
      "v": 94
    },
    {
      "midi": 45,
      "hit": false,
      "t": 184568.86305000173,
      "d": 285.7139999999781,
      "v": 81
    },
    {
      "midi": 76,
      "hit": false,
      "t": 184568.86305000173,
      "d": 285.7139999999781,
      "v": 89
    },
    {
      "midi": 49,
      "hit": false,
      "t": 184854.5770500017,
      "d": 285.7140000000072,
      "v": 81
    },
    {
      "midi": 75,
      "hit": false,
      "t": 184854.5770500017,
      "d": 285.7140000000072,
      "v": 81
    },
    {
      "midi": 76,
      "hit": false,
      "t": 185140.29105000172,
      "d": 285.7140000000072,
      "v": 81
    },
    {
      "midi": 44,
      "hit": false,
      "t": 185140.29105000172,
      "d": 428.5709999999963,
      "v": 94
    },
    {
      "midi": 47,
      "hit": false,
      "t": 185426.00505000172,
      "d": 285.7139999999781,
      "v": 81
    },
    {
      "midi": 75,
      "hit": false,
      "t": 185428.38600000172,
      "d": 285.7139999999781,
      "v": 79
    },
    {
      "midi": 51,
      "hit": false,
      "t": 185711.7190500017,
      "d": 285.7140000000072,
      "v": 81
    },
    {
      "midi": 71,
      "hit": false,
      "t": 185711.7190500017,
      "d": 285.7140000000072,
      "v": 88
    },
    {
      "midi": 49,
      "hit": false,
      "t": 185997.4330500017,
      "d": 642.8564999999944,
      "v": 94
    },
    {
      "midi": 73,
      "hit": false,
      "t": 185999.8140000017,
      "d": 857.1419999999925,
      "v": 86
    }
  ]
}