{
  "jsonPath": "Unknown/Unknown/George Balanchines The Nutcracker/act-ii-sugarplum-fairy-lp-version.json",
  "path": "Unknown\\Unknown\\George Balanchines The Nutcracker\\Act II Sugarplum Fairy (LP Version).mid",
  "name": "Act II Sugarplum Fairy (LP Version)",
  "difficulty": "Advanced",
  "bpm": 72.99998296667064,
  "notes": [
    {
      "midi": 47,
      "hit": false,
      "t": 1232.877,
      "d": 31.678089583333303,
      "v": 62
    },
    {
      "midi": 40,
      "hit": false,
      "t": 1272.2605708333333,
      "d": 59.07535624999991,
      "v": 102
    },
    {
      "midi": 64,
      "hit": false,
      "t": 1706.336014583333,
      "d": 45.37672291666672,
      "v": 61
    },
    {
      "midi": 55,
      "hit": false,
      "t": 1707.1921791666664,
      "d": 45.37672291666672,
      "v": 61
    },
    {
      "midi": 59,
      "hit": false,
      "t": 1714.8976604166664,
      "d": 34.24658333333332,
      "v": 57
    },
    {
      "midi": 40,
      "hit": false,
      "t": 2126.7128249999996,
      "d": 47.94521666666651,
      "v": 86
    },
    {
      "midi": 57,
      "hit": false,
      "t": 2529.110179166666,
      "d": 40.23973541666692,
      "v": 62
    },
    {
      "midi": 60,
      "hit": false,
      "t": 2531.678672916666,
      "d": 35.102747916666885,
      "v": 59
    },
    {
      "midi": 63,
      "hit": false,
      "t": 2539.384154166666,
      "d": 26.5411020833335,
      "v": 60
    },
    {
      "midi": 66,
      "hit": false,
      "t": 2539.384154166666,
      "d": 28.253431250000176,
      "v": 55
    },
    {
      "midi": 40,
      "hit": false,
      "t": 2928.0828749999996,
      "d": 59.93152083333325,
      "v": 77
    },
    {
      "midi": 67,
      "hit": false,
      "t": 3331.3363937499994,
      "d": 54.794533333333675,
      "v": 60
    },
    {
      "midi": 58,
      "hit": false,
      "t": 3333.048722916666,
      "d": 40.23973541666692,
      "v": 63
    },
    {
      "midi": 61,
      "hit": false,
      "t": 3346.7473562499995,
      "d": 31.67808958333353,
      "v": 47
    },
    {
      "midi": 64,
      "hit": false,
      "t": 3348.459685416666,
      "d": 42.80822916666693,
      "v": 45
    },
    {
      "midi": 40,
      "hit": false,
      "t": 3738.8707354166663,
      "d": 57.363027083333236,
      "v": 102
    },
    {
      "midi": 57,
      "hit": false,
      "t": 4135.274937499999,
      "d": 51.36987500000032,
      "v": 65
    },
    {
      "midi": 63,
      "hit": false,
      "t": 4142.980418749999,
      "d": 56.50686250000035,
      "v": 62
    },
    {
      "midi": 54,
      "hit": false,
      "t": 4143.836583333333,
      "d": 31.67808958333353,
      "v": 49
    },
    {
      "midi": 60,
      "hit": false,
      "t": 4148.973570833333,
      "d": 38.52740625000024,
      "v": 56
    },
    {
      "midi": 47,
      "hit": false,
      "t": 4407.535275,
      "d": 81.33563541666626,
      "v": 67
    },
    {
      "midi": 40,
      "hit": false,
      "t": 4524.829822916667,
      "d": 58.21919166666703,
      "v": 89
    },
    {
      "midi": 55,
      "hit": false,
      "t": 4935.788822916667,
      "d": 48.801381250000304,
      "v": 54
    },
    {
      "midi": 64,
      "hit": false,
      "t": 4938.357316666667,
      "d": 42.80822916666693,
      "v": 55
    },
    {
      "midi": 59,
      "hit": false,
      "t": 4943.4943041666675,
      "d": 36.81507708333356,
      "v": 52
    },
    {
      "midi": 40,
      "hit": false,
      "t": 5353.597139583334,
      "d": 55.65069791666701,
      "v": 61
    },
    {
      "midi": 60,
      "hit": false,
      "t": 5757.706822916668,
      "d": 48.801381250000304,
      "v": 54
    },
    {
      "midi": 57,
      "hit": false,
      "t": 5771.405456250001,
      "d": 47.945216666666965,
      "v": 46
    },
    {
      "midi": 63,
      "hit": false,
      "t": 5775.686279166668,
      "d": 34.24658333333355,
      "v": 44
    },
    {
      "midi": 66,
      "hit": false,
      "t": 5775.686279166668,
      "d": 41.952064583333595,
      "v": 43
    },
    {
      "midi": 40,
      "hit": false,
      "t": 6158.391847916669,
      "d": 41.952064583333595,
      "v": 66
    },
    {
      "midi": 61,
      "hit": false,
      "t": 6590.754962500002,
      "d": 47.08905208333363,
      "v": 49
    },
    {
      "midi": 67,
      "hit": false,
      "t": 6593.323456250002,
      "d": 53.082204166667,
      "v": 55
    },
    {
      "midi": 58,
      "hit": false,
      "t": 6602.741266666669,
      "d": 40.23973541666692,
      "v": 49
    },
    {
      "midi": 64,
      "hit": false,
      "t": 6611.302912500002,
      "d": 47.08905208333363,
      "v": 44
    },
    {
      "midi": 40,
      "hit": false,
      "t": 6987.159164583336,
      "d": 72.77398958333288,
      "v": 70
    },
    {
      "midi": 63,
      "hit": false,
      "t": 7402.3989875000025,
      "d": 77.05481250000048,
      "v": 56
    },
    {
      "midi": 54,
      "hit": false,
      "t": 7410.960633333336,
      "d": 20.547950000000128,
      "v": 42
    },
    {
      "midi": 57,
      "hit": false,
      "t": 7412.6729625000025,
      "d": 37.6712416666669,
      "v": 49
    },
    {
      "midi": 60,
      "hit": false,
      "t": 7420.378443750003,
      "d": 42.80822916666693,
      "v": 46
    },
    {
      "midi": 47,
      "hit": false,
      "t": 7651.542881250003,
      "d": 130.13701666666657,
      "v": 56
    },
    {
      "midi": 40,
      "hit": false,
      "t": 7767.125100000003,
      "d": 47.08905208333363,
      "v": 71
    },
    {
      "midi": 52,
      "hit": false,
      "t": 7789.38537916667,
      "d": 47.08905208333363,
      "v": 59
    },
    {
      "midi": 88,
      "hit": false,
      "t": 8071.91969166667,
      "d": 138.69866249999905,
      "v": 50
    },
    {
      "midi": 91,
      "hit": false,
      "t": 8190.926568750003,
      "d": 65.92467291666435,
      "v": 69
    },
    {
      "midi": 55,
      "hit": false,
      "t": 8193.495062500002,
      "d": 53.08220416666518,
      "v": 56
    },
    {
      "midi": 59,
      "hit": false,
      "t": 8210.618354166669,
      "d": 17.979456249999203,
      "v": 60
    },
    {
      "midi": 83,
      "hit": false,
      "t": 8210.618354166669,
      "d": 24.828772916665912,
      "v": 61
    },
    {
      "midi": 64,
      "hit": false,
      "t": 8210.618354166669,
      "d": 29.965760416665944,
      "v": 54
    },
    {
      "midi": 79,
      "hit": false,
      "t": 8210.618354166669,
      "d": 37.67124166666508,
      "v": 55
    },
    {
      "midi": 88,
      "hit": false,
      "t": 8469.180058333333,
      "d": 136.13016874999994,
      "v": 45
    },
    {
      "midi": 40,
      "hit": false,
      "t": 8587.330770833334,
      "d": 44.52055833333179,
      "v": 66
    },
    {
      "midi": 91,
      "hit": false,
      "t": 8594.1800875,
      "d": 74.48631874999774,
      "v": 65
    },
    {
      "midi": 52,
      "hit": false,
      "t": 8600.173239583333,
      "d": 43.66439374999936,
      "v": 62
    },
    {
      "midi": 79,
      "hit": false,
      "t": 8601.88556875,
      "d": 43.66439374999936,
      "v": 51
    },
    {
      "midi": 83,
      "hit": false,
      "t": 8609.591049999999,
      "d": 36.81507708333265,
      "v": 54
    },
    {
      "midi": 66,
      "hit": false,
      "t": 9012.844568749999,
      "d": 31.678089583330802,
      "v": 60
    },
    {
      "midi": 60,
      "hit": false,
      "t": 9021.406214583332,
      "d": 43.664393749995725,
      "v": 57
    },
    {
      "midi": 57,
      "hit": false,
      "t": 9023.118543749999,
      "d": 53.08220416665972,
      "v": 56
    },
    {
      "midi": 90,
      "hit": false,
      "t": 9028.255531249999,
      "d": 35.958912499996586,
      "v": 49
    },
    {
      "midi": 84,
      "hit": false,
      "t": 9028.255531249999,
      "d": 44.520558333328154,
      "v": 59
    },
    {
      "midi": 81,
      "hit": false,
      "t": 9030.824024999998,
      "d": 44.520558333328154,
      "v": 57
    },
    {
      "midi": 63,
      "hit": false,
      "t": 9036.81717708333,
      "d": 29.965760416664125,
      "v": 46
    },
    {
      "midi": 87,
      "hit": false,
      "t": 9442.639189583326,
      "d": 63.35617916666342,
      "v": 61
    },
    {
      "midi": 40,
      "hit": false,
      "t": 9452.056999999992,
      "d": 37.67124166666508,
      "v": 66
    },
    {
      "midi": 78,
      "hit": false,
      "t": 9456.337822916657,
      "d": 57.36302708333096,
      "v": 59
    },
    {
      "midi": 52,
      "hit": false,
      "t": 9474.317279166657,
      "d": 37.67124166666508,
      "v": 54
    },
    {
      "midi": 88,
      "hit": false,
      "t": 9871.577645833322,
      "d": 43.664393749997544,
      "v": 61
    },
    {
      "midi": 67,
      "hit": false,
      "t": 9876.714633333322,
      "d": 37.67124166666508,
      "v": 51
    },
    {
      "midi": 79,
      "hit": false,
      "t": 9876.714633333322,
      "d": 55.650697916662466,
      "v": 61
    },
    {
      "midi": 58,
      "hit": false,
      "t": 9879.283127083321,
      "d": 52.22603958333093,
      "v": 56
    },
    {
      "midi": 61,
      "hit": false,
      "t": 9890.413266666654,
      "d": 29.109595833331696,
      "v": 47
    },
    {
      "midi": 64,
      "hit": false,
      "t": 9890.413266666654,
      "d": 35.958912499998405,
      "v": 46
    },
    {
      "midi": 40,
      "hit": false,
      "t": 10295.379114583318,
      "d": 39.38357083333176,
      "v": 69
    },
    {
      "midi": 86,
      "hit": false,
      "t": 10297.091443749985,
      "d": 74.48631874999592,
      "v": 66
    },
    {
      "midi": 77,
      "hit": false,
      "t": 10300.516102083318,
      "d": 65.0685083333301,
      "v": 66
    },
    {
      "midi": 52,
      "hit": false,
      "t": 10313.358570833318,
      "d": 37.67124166666508,
      "v": 61
    },
    {
      "midi": 80,
      "hit": false,
      "t": 10593.324389583315,
      "d": 73.63015416666713,
      "v": 42
    },
    {
      "midi": 68,
      "hit": false,
      "t": 10692.639481249982,
      "d": 30.821924999998373,
      "v": 61
    },
    {
      "midi": 65,
      "hit": false,
      "t": 10699.488797916649,
      "d": 33.39041874999748,
      "v": 57
    },
    {
      "midi": 62,
      "hit": false,
      "t": 10707.194279166648,
      "d": 31.678089583330802,
      "v": 54
    },
    {
      "midi": 83,
      "hit": false,
      "t": 10707.194279166648,
      "d": 139.55482708332966,
      "v": 55
    },
    {
      "midi": 59,
      "hit": false,
      "t": 10708.05044374998,
      "d": 53.93836874999761,
      "v": 67
    },
    {
      "midi": 86,
      "hit": false,
      "t": 10982.023110416645,
      "d": 31.67808958333262,
      "v": 34
    },
    {
      "midi": 85,
      "hit": false,
      "t": 11100.173822916644,
      "d": 66.78083749999678,
      "v": 61
    },
    {
      "midi": 40,
      "hit": false,
      "t": 11104.45464583331,
      "d": 28.253431249999267,
      "v": 63
    },
    {
      "midi": 76,
      "hit": false,
      "t": 11113.016291666643,
      "d": 46.23288749999847,
      "v": 55
    },
    {
      "midi": 52,
      "hit": false,
      "t": 11119.86560833331,
      "d": 34.24658333333173,
      "v": 56
    },
    {
      "midi": 79,
      "hit": false,
      "t": 11392.125945833308,
      "d": 65.06850833333374,
      "v": 44
    },
    {
      "midi": 64,
      "hit": false,
      "t": 11501.715012499975,
      "d": 35.958912499998405,
      "v": 59
    },
    {
      "midi": 67,
      "hit": false,
      "t": 11506.851999999975,
      "d": 33.39041874999748,
      "v": 56
    },
    {
      "midi": 58,
      "hit": false,
      "t": 11506.851999999975,
      "d": 53.93836874999761,
      "v": 67
    },
    {
      "midi": 82,
      "hit": false,
      "t": 11509.420493749974,
      "d": 90.75344583333208,
      "v": 63
    },
    {
      "midi": 61,
      "hit": false,
      "t": 11515.413645833307,
      "d": 31.67808958333262,
      "v": 49
    },
    {
      "midi": 85,
      "hit": false,
      "t": 11757.708222916639,
      "d": 58.21919166666703,
      "v": 47
    },
    {
      "midi": 40,
      "hit": false,
      "t": 11900.687708333306,
      "d": 36.81507708333265,
      "v": 67
    },
    {
      "midi": 52,
      "hit": false,
      "t": 11914.386341666639,
      "d": 45.37672291666604,
      "v": 55
    },
    {
      "midi": 84,
      "hit": false,
      "t": 11920.379493749972,
      "d": 75.3424833333338,
      "v": 70
    },
    {
      "midi": 75,
      "hit": false,
      "t": 11927.228810416638,
      "d": 39.38357083333358,
      "v": 66
    },
    {
      "midi": 78,
      "hit": false,
      "t": 12185.790514583305,
      "d": 113.86988958333313,
      "v": 46
    },
    {
      "midi": 81,
      "hit": false,
      "t": 12327.913835416637,
      "d": 138.69866249999905,
      "v": 56
    },
    {
      "midi": 66,
      "hit": false,
      "t": 12332.194658333303,
      "d": 29.109595833333515,
      "v": 59
    },
    {
      "midi": 63,
      "hit": false,
      "t": 12332.194658333303,
      "d": 30.821925000000192,
      "v": 60
    },
    {
      "midi": 57,
      "hit": false,
      "t": 12337.331645833303,
      "d": 53.93836874999943,
      "v": 67
    },
    {
      "midi": 60,
      "hit": false,
      "t": 12339.04397499997,
      "d": 36.81507708333265,
      "v": 54
    },
    {
      "midi": 84,
      "hit": false,
      "t": 12560.790602083303,
      "d": 48.801381249999395,
      "v": 56
    },
    {
      "midi": 40,
      "hit": false,
      "t": 12727.742695833304,
      "d": 53.082204166667,
      "v": 71
    },
    {
      "midi": 83,
      "hit": false,
      "t": 12729.45502499997,
      "d": 63.35617916666706,
      "v": 70
    },
    {
      "midi": 76,
      "hit": false,
      "t": 12734.59201249997,
      "d": 59.07535624999946,
      "v": 57
    },
    {
      "midi": 52,
      "hit": false,
      "t": 12741.441329166637,
      "d": 35.958912500000224,
      "v": 65
    },
    {
      "midi": 88,
      "hit": false,
      "t": 12948.633158333303,
      "d": 85.61645833333387,
      "v": 52
    },
    {
      "midi": 52,
      "hit": false,
      "t": 13122.43456874997,
      "d": 75.34248333333016,
      "v": 62
    },
    {
      "midi": 45,
      "hit": false,
      "t": 13126.715391666636,
      "d": 75.34248333333016,
      "v": 47
    },
    {
      "midi": 60,
      "hit": false,
      "t": 13131.852379166636,
      "d": 58.21919166666521,
      "v": 55
    },
    {
      "midi": 84,
      "hit": false,
      "t": 13148.975670833303,
      "d": 74.48631874999592,
      "v": 54
    },
    {
      "midi": 76,
      "hit": false,
      "t": 13154.968822916635,
      "d": 59.07535624999764,
      "v": 57
    },
    {
      "midi": 83,
      "hit": false,
      "t": 13358.735993749966,
      "d": 193.4931958333309,
      "v": 62
    },
    {
      "midi": 76,
      "hit": false,
      "t": 13361.304487499965,
      "d": 228.5959437499987,
      "v": 54
    },
    {
      "midi": 59,
      "hit": false,
      "t": 13538.530556249965,
      "d": 59.93152083333189,
      "v": 50
    },
    {
      "midi": 43,
      "hit": false,
      "t": 13540.242885416632,
      "d": 75.34248333333198,
      "v": 47
    },
    {
      "midi": 52,
      "hit": false,
      "t": 13549.660695833298,
      "d": 64.21234374999949,
      "v": 55
    },
    {
      "midi": 52,
      "hit": false,
      "t": 14027.400533333297,
      "d": 71.91782499999863,
      "v": 56
    },
    {
      "midi": 50,
      "hit": false,
      "t": 14096.749864583297,
      "d": 101.88358541666639,
      "v": 50
    },
    {
      "midi": 48,
      "hit": false,
      "t": 14188.359474999963,
      "d": 97.60276250000061,
      "v": 57
    },
    {
      "midi": 47,
      "hit": false,
      "t": 14287.67456666663,
      "d": 39.38357083333358,
      "v": 61
    },
    {
      "midi": 34,
      "hit": false,
      "t": 14398.11979791663,
      "d": 45.37672291666422,
      "v": 75
    },
    {
      "midi": 46,
      "hit": false,
      "t": 14414.386924999963,
      "d": 26.54110208333259,
      "v": 78
    },
    {
      "midi": 76,
      "hit": false,
      "t": 14698.633566666627,
      "d": 95.89043333333393,
      "v": 51
    },
    {
      "midi": 73,
      "hit": false,
      "t": 14801.373316666628,
      "d": 47.94521666666515,
      "v": 63
    },
    {
      "midi": 79,
      "hit": false,
      "t": 14811.647291666628,
      "d": 51.3698749999985,
      "v": 71
    },
    {
      "midi": 67,
      "hit": false,
      "t": 14814.215785416627,
      "d": 41.952064583332685,
      "v": 57
    },
    {
      "midi": 58,
      "hit": false,
      "t": 14817.64044374996,
      "d": 30.821925000000192,
      "v": 71
    },
    {
      "midi": 61,
      "hit": false,
      "t": 14827.91441874996,
      "d": 26.54110208333259,
      "v": 49
    },
    {
      "midi": 64,
      "hit": false,
      "t": 14831.339077083294,
      "d": 34.24658333333173,
      "v": 49
    },
    {
      "midi": 55,
      "hit": false,
      "t": 14838.18839374996,
      "d": 25.68493749999834,
      "v": 57
    },
    {
      "midi": 76,
      "hit": false,
      "t": 15099.318591666626,
      "d": 163.52743541666314,
      "v": 31
    },
    {
      "midi": 79,
      "hit": false,
      "t": 15213.18848124996,
      "d": 55.650697916662466,
      "v": 59
    },
    {
      "midi": 73,
      "hit": false,
      "t": 15217.469304166625,
      "d": 36.815077083330834,
      "v": 47
    },
    {
      "midi": 33,
      "hit": false,
      "t": 15219.181633333292,
      "d": 34.24658333333173,
      "v": 52
    },
    {
      "midi": 45,
      "hit": false,
      "t": 15219.181633333292,
      "d": 34.24658333333173,
      "v": 52
    },
    {
      "midi": 67,
      "hit": false,
      "t": 15225.174785416624,
      "d": 46.23288749999665,
      "v": 44
    },
    {
      "midi": 78,
      "hit": false,
      "t": 15624.147481249955,
      "d": 67.63700208333285,
      "v": 62
    },
    {
      "midi": 66,
      "hit": false,
      "t": 15629.284468749955,
      "d": 29.109595833333515,
      "v": 47
    },
    {
      "midi": 60,
      "hit": false,
      "t": 15634.421456249955,
      "d": 35.958912500000224,
      "v": 60
    },
    {
      "midi": 72,
      "hit": false,
      "t": 15634.421456249955,
      "d": 39.38357083333358,
      "v": 52
    },
    {
      "midi": 57,
      "hit": false,
      "t": 15644.695431249955,
      "d": 35.102747916665976,
      "v": 63
    },
    {
      "midi": 64,
      "hit": false,
      "t": 15644.695431249955,
      "d": 36.81507708333265,
      "v": 52
    },
    {
      "midi": 31,
      "hit": false,
      "t": 16027.400999999954,
      "d": 35.958912499998405,
      "v": 67
    },
    {
      "midi": 43,
      "hit": false,
      "t": 16027.400999999954,
      "d": 35.958912499998405,
      "v": 67
    },
    {
      "midi": 76,
      "hit": false,
      "t": 16052.22977291662,
      "d": 52.22603958333275,
      "v": 55
    },
    {
      "midi": 84,
      "hit": false,
      "t": 16052.22977291662,
      "d": 52.22603958333275,
      "v": 55
    },
    {
      "midi": 72,
      "hit": false,
      "t": 16054.79826666662,
      "d": 52.22603958333275,
      "v": 55
    },
    {
      "midi": 55,
      "hit": false,
      "t": 16450.34630416662,
      "d": 71.06166041666074,
      "v": 63
    },
    {
      "midi": 71,
      "hit": false,
      "t": 16455.483291666616,
      "d": 35.958912499998405,
      "v": 65
    },
    {
      "midi": 83,
      "hit": false,
      "t": 16459.764114583282,
      "d": 63.356179166661605,
      "v": 75
    },
    {
      "midi": 64,
      "hit": false,
      "t": 16462.332608333283,
      "d": 33.39041874999748,
      "v": 63
    },
    {
      "midi": 76,
      "hit": false,
      "t": 16462.332608333283,
      "d": 36.815077083330834,
      "v": 69
    },
    {
      "midi": 59,
      "hit": false,
      "t": 16476.031241666617,
      "d": 30.821924999996554,
      "v": 56
    },
    {
      "midi": 30,
      "hit": false,
      "t": 16857.024481249944,
      "d": 32.53425416666505,
      "v": 67
    },
    {
      "midi": 91,
      "hit": false,
      "t": 16873.29160833328,
      "d": 68.4931666666671,
      "v": 78
    },
    {
      "midi": 42,
      "hit": false,
      "t": 16877.572431249944,
      "d": 28.253431249999267,
      "v": 59
    },
    {
      "midi": 79,
      "hit": false,
      "t": 16877.572431249944,
      "d": 58.21919166666703,
      "v": 75
    },
    {
      "midi": 82,
      "hit": false,
      "t": 17134.421806249946,
      "d": 75.3424833333338,
      "v": 51
    },
    {
      "midi": 85,
      "hit": false,
      "t": 17273.120468749945,
      "d": 86.47262291665902,
      "v": 59
    },
    {
      "midi": 58,
      "hit": false,
      "t": 17280.825949999944,
      "d": 29.109595833331696,
      "v": 66
    },
    {
      "midi": 61,
      "hit": false,
      "t": 17280.825949999944,
      "d": 30.821924999996554,
      "v": 60
    },
    {
      "midi": 54,
      "hit": false,
      "t": 17281.682114583276,
      "d": 46.23288749999483,
      "v": 60
    },
    {
      "midi": 64,
      "hit": false,
      "t": 17291.956089583276,
      "d": 34.24658333332991,
      "v": 57
    },
    {
      "midi": 91,
      "hit": false,
      "t": 17529.969843749936,
      "d": 45.37672291666604,
      "v": 52
    },
    {
      "midi": 30,
      "hit": false,
      "t": 17671.236999999936,
      "d": 33.39041875000112,
      "v": 79
    },
    {
      "midi": 42,
      "hit": false,
      "t": 17678.942481249935,
      "d": 35.95891250000204,
      "v": 70
    },
    {
      "midi": 90,
      "hit": false,
      "t": 17684.93563333327,
      "d": 59.931520833335526,
      "v": 78
    },
    {
      "midi": 78,
      "hit": false,
      "t": 17687.50412708327,
      "d": 54.794533333333675,
      "v": 78
    },
    {
      "midi": 83,
      "hit": false,
      "t": 17989.730224999937,
      "d": 63.35617916666524,
      "v": 37
    },
    {
      "midi": 86,
      "hit": false,
      "t": 18077.059012499936,
      "d": 115.58221874999435,
      "v": 47
    },
    {
      "midi": 62,
      "hit": false,
      "t": 18080.48367083327,
      "d": 31.67808958333262,
      "v": 61
    },
    {
      "midi": 54,
      "hit": false,
      "t": 18080.48367083327,
      "d": 45.3767229166624,
      "v": 69
    },
    {
      "midi": 56,
      "hit": false,
      "t": 18092.469974999934,
      "d": 28.253431249999267,
      "v": 59
    },
    {
      "midi": 59,
      "hit": false,
      "t": 18098.46312708327,
      "d": 32.53425416666141,
      "v": 46
    },
    {
      "midi": 90,
      "hit": false,
      "t": 18351.88784374993,
      "d": 61.643850000000384,
      "v": 49
    },
    {
      "midi": 30,
      "hit": false,
      "t": 18483.737189583262,
      "d": 42.80822916666148,
      "v": 77
    },
    {
      "midi": 42,
      "hit": false,
      "t": 18492.298835416594,
      "d": 40.23973541666419,
      "v": 75
    },
    {
      "midi": 79,
      "hit": false,
      "t": 18504.28513958326,
      "d": 62.50001458333281,
      "v": 77
    },
    {
      "midi": 88,
      "hit": false,
      "t": 18508.565962499924,
      "d": 64.21234375000131,
      "v": 78
    },
    {
      "midi": 82,
      "hit": false,
      "t": 18781.68246458326,
      "d": 77.05481249999866,
      "v": 49
    },
    {
      "midi": 64,
      "hit": false,
      "t": 18887.84687291659,
      "d": 38.52740624999569,
      "v": 70
    },
    {
      "midi": 61,
      "hit": false,
      "t": 18895.55235416659,
      "d": 41.95206458332905,
      "v": 67
    },
    {
      "midi": 58,
      "hit": false,
      "t": 18895.55235416659,
      "d": 45.3767229166624,
      "v": 71
    },
    {
      "midi": 55,
      "hit": false,
      "t": 18907.538658333255,
      "d": 39.38357083333176,
      "v": 59
    },
    {
      "midi": 85,
      "hit": false,
      "t": 18907.538658333255,
      "d": 92.46577499999694,
      "v": 66
    },
    {
      "midi": 88,
      "hit": false,
      "t": 19150.68939999992,
      "d": 55.650697916666104,
      "v": 55
    },
    {
      "midi": 47,
      "hit": false,
      "t": 19314.216835416584,
      "d": 42.80822916666148,
      "v": 71
    },
    {
      "midi": 78,
      "hit": false,
      "t": 19317.641493749918,
      "d": 53.93836874999397,
      "v": 56
    },
    {
      "midi": 59,
      "hit": false,
      "t": 19318.49765833325,
      "d": 34.24658333332991,
      "v": 67
    },
    {
      "midi": 81,
      "hit": false,
      "t": 19321.922316666583,
      "d": 53.93836874999397,
      "v": 56
    },
    {
      "midi": 87,
      "hit": false,
      "t": 19327.05930416658,
      "d": 78.76714166666352,
      "v": 60
    },
    {
      "midi": 90,
      "hit": false,
      "t": 19538.531956249913,
      "d": 101.02742083333214,
      "v": 51
    },
    {
      "midi": 48,
      "hit": false,
      "t": 19714.045695833247,
      "d": 63.35617916666524,
      "v": 63
    },
    {
      "midi": 88,
      "hit": false,
      "t": 19716.614189583248,
      "d": 53.08220416666518,
      "v": 56
    },
    {
      "midi": 60,
      "hit": false,
      "t": 19723.463506249915,
      "d": 42.808229166665114,
      "v": 57
    },
    {
      "midi": 79,
      "hit": false,
      "t": 19726.888164583248,
      "d": 48.801381249999395,
      "v": 44
    },
    {
      "midi": 82,
      "hit": false,
      "t": 19728.600493749913,
      "d": 48.801381249999395,
      "v": 44
    },
    {
      "midi": 87,
      "hit": false,
      "t": 19956.34027291658,
      "d": 158.3904479166631,
      "v": 52
    },
    {
      "midi": 81,
      "hit": false,
      "t": 19961.477260416577,
      "d": 176.3699041666623,
      "v": 54
    },
    {
      "midi": 78,
      "hit": false,
      "t": 19970.03890624991,
      "d": 172.94524583332895,
      "v": 47
    },
    {
      "midi": 47,
      "hit": false,
      "t": 20126.717024999907,
      "d": 78.76714166666352,
      "v": 69
    },
    {
      "midi": 59,
      "hit": false,
      "t": 20142.984152083238,
      "d": 51.36987500000032,
      "v": 69
    },
    {
      "midi": 54,
      "hit": false,
      "t": 20333.052689583237,
      "d": 28.253431249999267,
      "v": 74
    },
    {
      "midi": 59,
      "hit": false,
      "t": 20581.340418749904,
      "d": 89.04111666666358,
      "v": 63
    },
    {
      "midi": 57,
      "hit": false,
      "t": 20668.669206249902,
      "d": 103.59591458333307,
      "v": 60
    },
    {
      "midi": 55,
      "hit": false,
      "t": 20758.566487499902,
      "d": 113.0137250000007,
      "v": 52
    },
    {
      "midi": 54,
      "hit": false,
      "t": 20873.292541666568,
      "d": 44.52055833333361,
      "v": 60
    },
    {
      "midi": 40,
      "hit": false,
      "t": 20980.313114583234,
      "d": 63.35617916666888,
      "v": 77
    },
    {
      "midi": 47,
      "hit": false,
      "t": 20986.30626666657,
      "d": 29.965760416667763,
      "v": 78
    },
    {
      "midi": 52,
      "hit": false,
      "t": 20986.30626666657,
      "d": 51.36987500000032,
      "v": 79
    },
    {
      "midi": 88,
      "hit": false,
      "t": 21307.36798541657,
      "d": 123.28769999999713,
      "v": 60
    },
    {
      "midi": 55,
      "hit": false,
      "t": 21412.676229166573,
      "d": 42.80822916666148,
      "v": 67
    },
    {
      "midi": 79,
      "hit": false,
      "t": 21412.676229166573,
      "d": 48.80138124999212,
      "v": 55
    },
    {
      "midi": 59,
      "hit": false,
      "t": 21414.388558333238,
      "d": 24.828772916662274,
      "v": 73
    },
    {
      "midi": 64,
      "hit": false,
      "t": 21425.51869791657,
      "d": 30.821924999996554,
      "v": 57
    },
    {
      "midi": 83,
      "hit": false,
      "t": 21425.51869791657,
      "d": 32.53425416666141,
      "v": 63
    },
    {
      "midi": 91,
      "hit": false,
      "t": 21425.51869791657,
      "d": 41.95206458332905,
      "v": 71
    },
    {
      "midi": 88,
      "hit": false,
      "t": 21681.511908333232,
      "d": 141.26715624999997,
      "v": 41
    },
    {
      "midi": 40,
      "hit": false,
      "t": 21792.813304166564,
      "d": 42.80822916666875,
      "v": 66
    },
    {
      "midi": 83,
      "hit": false,
      "t": 21802.231114583232,
      "d": 40.23973541666783,
      "v": 71
    },
    {
      "midi": 91,
      "hit": false,
      "t": 21804.799608333233,
      "d": 69.34933124999588,
      "v": 73
    },
    {
      "midi": 79,
      "hit": false,
      "t": 21811.6489249999,
      "d": 35.102747916665976,
      "v": 57
    },
    {
      "midi": 52,
      "hit": false,
      "t": 21820.21057083323,
      "d": 45.37672291666604,
      "v": 44
    },
    {
      "midi": 90,
      "hit": false,
      "t": 22217.470937499897,
      "d": 57.363027083327324,
      "v": 75
    },
    {
      "midi": 66,
      "hit": false,
      "t": 22228.60107708323,
      "d": 29.965760416667763,
      "v": 67
    },
    {
      "midi": 63,
      "hit": false,
      "t": 22242.299710416562,
      "d": 28.253431249999267,
      "v": 66
    },
    {
      "midi": 84,
      "hit": false,
      "t": 22242.299710416562,
      "d": 29.109595833331696,
      "v": 67
    },
    {
      "midi": 60,
      "hit": false,
      "t": 22242.299710416562,
      "d": 30.821924999996554,
      "v": 62
    },
    {
      "midi": 81,
      "hit": false,
      "t": 22242.299710416562,
      "d": 37.671241666659625,
      "v": 66
    },
    {
      "midi": 57,
      "hit": false,
      "t": 22245.724368749896,
      "d": 30.821924999992916,
      "v": 62
    },
    {
      "midi": 87,
      "hit": false,
      "t": 22632.710760416554,
      "d": 75.34248333333016,
      "v": 66
    },
    {
      "midi": 40,
      "hit": false,
      "t": 22637.847747916552,
      "d": 36.81507708333447,
      "v": 67
    },
    {
      "midi": 78,
      "hit": false,
      "t": 22645.55322916655,
      "d": 64.21234374999767,
      "v": 67
    },
    {
      "midi": 52,
      "hit": false,
      "t": 22648.121722916552,
      "d": 45.37672291666604,
      "v": 67
    },
    {
      "midi": 67,
      "hit": false,
      "t": 23047.95058333322,
      "d": 32.53425416666141,
      "v": 62
    },
    {
      "midi": 64,
      "hit": false,
      "t": 23053.943735416553,
      "d": 38.527406249992055,
      "v": 60
    },
    {
      "midi": 88,
      "hit": false,
      "t": 23053.943735416553,
      "d": 69.34933124999225,
      "v": 75
    },
    {
      "midi": 58,
      "hit": false,
      "t": 23054.799899999885,
      "d": 65.92467291665889,
      "v": 61
    },
    {
      "midi": 79,
      "hit": false,
      "t": 23063.361545833217,
      "d": 61.64384999999311,
      "v": 78
    },
    {
      "midi": 61,
      "hit": false,
      "t": 23068.498533333215,
      "d": 33.39041874999748,
      "v": 46
    },
    {
      "midi": 86,
      "hit": false,
      "t": 23461.47807708321,
      "d": 87.32878750000236,
      "v": 67
    },
    {
      "midi": 40,
      "hit": false,
      "t": 23465.758899999877,
      "d": 38.52740625000297,
      "v": 70
    },
    {
      "midi": 77,
      "hit": false,
      "t": 23471.75205208321,
      "d": 67.63700208333466,
      "v": 66
    },
    {
      "midi": 52,
      "hit": false,
      "t": 23474.320545833212,
      "d": 42.80822916666875,
      "v": 65
    },
    {
      "midi": 80,
      "hit": false,
      "t": 23741.443895833214,
      "d": 45.37672291666604,
      "v": 47
    },
    {
      "midi": 59,
      "hit": false,
      "t": 23849.320633333213,
      "d": 63.35617916666524,
      "v": 60
    },
    {
      "midi": 83,
      "hit": false,
      "t": 23852.745291666546,
      "d": 84.7602937499978,
      "v": 71
    },
    {
      "midi": 68,
      "hit": false,
      "t": 23863.87543124988,
      "d": 17.123291666666773,
      "v": 70
    },
    {
      "midi": 65,
      "hit": false,
      "t": 23863.87543124988,
      "d": 24.828772916665912,
      "v": 62
    },
    {
      "midi": 62,
      "hit": false,
      "t": 23863.87543124988,
      "d": 35.102747916665976,
      "v": 55
    },
    {
      "midi": 86,
      "hit": false,
      "t": 24106.17000833321,
      "d": 43.66439375000118,
      "v": 54
    },
    {
      "midi": 77,
      "hit": false,
      "t": 24115.58781874988,
      "d": 37.6712416666669,
      "v": 49
    },
    {
      "midi": 40,
      "hit": false,
      "t": 24238.87551874988,
      "d": 41.09589999999662,
      "v": 70
    },
    {
      "midi": 76,
      "hit": false,
      "t": 24246.58099999988,
      "d": 65.0685083333301,
      "v": 78
    },
    {
      "midi": 85,
      "hit": false,
      "t": 24247.43716458321,
      "d": 57.36302708333096,
      "v": 77
    },
    {
      "midi": 52,
      "hit": false,
      "t": 24255.998810416542,
      "d": 37.6712416666669,
      "v": 63
    },
    {
      "midi": 79,
      "hit": false,
      "t": 24526.546818749877,
      "d": 53.938368750001246,
      "v": 54
    },
    {
      "midi": 67,
      "hit": false,
      "t": 24654.115341666547,
      "d": 31.67808958333262,
      "v": 59
    },
    {
      "midi": 58,
      "hit": false,
      "t": 24658.396164583213,
      "d": 52.22603958333275,
      "v": 67
    },
    {
      "midi": 64,
      "hit": false,
      "t": 24661.820822916547,
      "d": 29.965760416667763,
      "v": 57
    },
    {
      "midi": 82,
      "hit": false,
      "t": 24666.101645833212,
      "d": 65.06850833333374,
      "v": 60
    },
    {
      "midi": 61,
      "hit": false,
      "t": 24669.526304166546,
      "d": 29.109595833335334,
      "v": 47
    },
    {
      "midi": 85,
      "hit": false,
      "t": 24940.930477083213,
      "d": 38.52740624999933,
      "v": 52
    },
    {
      "midi": 40,
      "hit": false,
      "t": 25071.923658333213,
      "d": 39.38357083333176,
      "v": 66
    },
    {
      "midi": 52,
      "hit": false,
      "t": 25073.635987499878,
      "d": 45.37672291666604,
      "v": 73
    },
    {
      "midi": 75,
      "hit": false,
      "t": 25084.76612708321,
      "d": 40.23973541666783,
      "v": 77
    },
    {
      "midi": 84,
      "hit": false,
      "t": 25084.76612708321,
      "d": 56.50686250000217,
      "v": 77
    },
    {
      "midi": 78,
      "hit": false,
      "t": 25354.457970833213,
      "d": 77.91097708333473,
      "v": 41
    },
    {
      "midi": 81,
      "hit": false,
      "t": 25469.184024999882,
      "d": 107.87673749999158,
      "v": 66
    },
    {
      "midi": 63,
      "hit": false,
      "t": 25474.32101249988,
      "d": 61.643849999996746,
      "v": 71
    },
    {
      "midi": 66,
      "hit": false,
      "t": 25474.32101249988,
      "d": 61.643849999996746,
      "v": 71
    },
    {
      "midi": 57,
      "hit": false,
      "t": 25479.45799999988,
      "d": 61.643849999996746,
      "v": 71
    },
    {
      "midi": 60,
      "hit": false,
      "t": 25479.45799999988,
      "d": 61.643849999996746,
      "v": 71
    },
    {
      "midi": 84,
      "hit": false,
      "t": 25712.33476666654,
      "d": 45.37672291666604,
      "v": 60
    },
    {
      "midi": 40,
      "hit": false,
      "t": 25859.595074999874,
      "d": 73.63015416666167,
      "v": 75
    },
    {
      "midi": 52,
      "hit": false,
      "t": 25863.87589791654,
      "d": 67.63700208333103,
      "v": 71
    },
    {
      "midi": 76,
      "hit": false,
      "t": 25871.58137916654,
      "d": 65.0685083333301,
      "v": 74
    },
    {
      "midi": 83,
      "hit": false,
      "t": 25878.430695833205,
      "d": 60.78768541666432,
      "v": 86
    },
    {
      "midi": 88,
      "hit": false,
      "t": 26090.75951249987,
      "d": 78.76714166666716,
      "v": 60
    },
    {
      "midi": 60,
      "hit": false,
      "t": 26252.57461874987,
      "d": 76.1986479166626,
      "v": 55
    },
    {
      "midi": 52,
      "hit": false,
      "t": 26259.423935416537,
      "d": 81.3356354166608,
      "v": 66
    },
    {
      "midi": 45,
      "hit": false,
      "t": 26271.4102395832,
      "d": 81.3356354166608,
      "v": 66
    },
    {
      "midi": 84,
      "hit": false,
      "t": 26272.266404166534,
      "d": 68.49316666666346,
      "v": 63
    },
    {
      "midi": 76,
      "hit": false,
      "t": 26275.691062499867,
      "d": 48.801381249999395,
      "v": 60
    },
    {
      "midi": 83,
      "hit": false,
      "t": 26482.88289166653,
      "d": 222.60279166666442,
      "v": 63
    },
    {
      "midi": 76,
      "hit": false,
      "t": 26488.019879166528,
      "d": 254.28088125000068,
      "v": 47
    },
    {
      "midi": 43,
      "hit": false,
      "t": 26690.93088541653,
      "d": 120.71920624999984,
      "v": 49
    },
    {
      "midi": 52,
      "hit": false,
      "t": 26702.917189583193,
      "d": 95.0342687500015,
      "v": 51
    },
    {
      "midi": 59,
      "hit": false,
      "t": 26714.90349374986,
      "d": 66.7808374999986,
      "v": 45
    },
    {
      "midi": 67,
      "hit": false,
      "t": 27146.41044374986,
      "d": 65.06850833333374,
      "v": 44
    },
    {
      "midi": 66,
      "hit": false,
      "t": 27207.19812916653,
      "d": 117.29454791666649,
      "v": 55
    },
    {
      "midi": 64,
      "hit": false,
      "t": 27317.64336041653,
      "d": 95.89043333333393,
      "v": 55
    },
    {
      "midi": 62,
      "hit": false,
      "t": 27410.10913541653,
      "d": 53.08220416666518,
      "v": 52
    },
    {
      "midi": 61,
      "hit": false,
      "t": 27552.23245624986,
      "d": 62.50001458333281,
      "v": 78
    },
    {
      "midi": 42,
      "hit": false,
      "t": 27562.50643124986,
      "d": 37.6712416666669,
      "v": 74
    },
    {
      "midi": 58,
      "hit": false,
      "t": 27572.78040624986,
      "d": 26.54110208333441,
      "v": 47
    },
    {
      "midi": 52,
      "hit": false,
      "t": 27575.348899999863,
      "d": 35.958912499998405,
      "v": 71
    },
    {
      "midi": 73,
      "hit": false,
      "t": 27839.90375624986,
      "d": 68.4931666666671,
      "v": 51
    },
    {
      "midi": 54,
      "hit": false,
      "t": 27989.732558333195,
      "d": 689.2124895833185,
      "v": 55
    },
    {
      "midi": 61,
      "hit": false,
      "t": 27998.294204166526,
      "d": 41.095900000000256,
      "v": 51
    },
    {
      "midi": 66,
      "hit": false,
      "t": 27998.294204166526,
      "d": 47.945216666666965,
      "v": 47
    },
    {
      "midi": 76,
      "hit": false,
      "t": 27998.294204166526,
      "d": 69.34933124999952,
      "v": 57
    },
    {
      "midi": 70,
      "hit": false,
      "t": 28007.712014583194,
      "d": 34.24658333333355,
      "v": 19
    },
    {
      "midi": 73,
      "hit": false,
      "t": 28227.746312499858,
      "d": 126.71235833333412,
      "v": 42
    },
    {
      "midi": 61,
      "hit": false,
      "t": 28378.431279166525,
      "d": 55.650697916662466,
      "v": 52
    },
    {
      "midi": 76,
      "hit": false,
      "t": 28382.71210208319,
      "d": 102.739749999997,
      "v": 51
    },
    {
      "midi": 70,
      "hit": false,
      "t": 28387.84908958319,
      "d": 59.93152083333189,
      "v": 52
    },
    {
      "midi": 75,
      "hit": false,
      "t": 28610.451881249854,
      "d": 74.4863187499941,
      "v": 59
    },
    {
      "midi": 59,
      "hit": false,
      "t": 28629.287502083185,
      "d": 60.78768541666068,
      "v": 60
    },
    {
      "midi": 66,
      "hit": false,
      "t": 28637.849147916517,
      "d": 50.51371041666425,
      "v": 42
    },
    {
      "midi": 69,
      "hit": false,
      "t": 28642.986135416515,
      "d": 44.52055833333361,
      "v": 47
    },
    {
      "midi": 64,
      "hit": false,
      "t": 28960.62319583318,
      "d": 112.15756041666464,
      "v": 47
    },
    {
      "midi": 63,
      "hit": false,
      "t": 29052.232806249845,
      "d": 125.8561937500017,
      "v": 54
    },
    {
      "midi": 61,
      "hit": false,
      "t": 29164.390366666514,
      "d": 62.50001458333281,
      "v": 47
    },
    {
      "midi": 59,
      "hit": false,
      "t": 29204.63010208318,
      "d": 83.90412916666173,
      "v": 74
    },
    {
      "midi": 56,
      "hit": false,
      "t": 29229.458874999847,
      "d": 42.808229166665114,
      "v": 67
    },
    {
      "midi": 40,
      "hit": false,
      "t": 29244.869837499846,
      "d": 41.952064583332685,
      "v": 71
    },
    {
      "midi": 52,
      "hit": false,
      "t": 29248.29449583318,
      "d": 39.38357083333176,
      "v": 75
    },
    {
      "midi": 47,
      "hit": false,
      "t": 29255.99997708318,
      "d": 23.972608333333483,
      "v": 70
    },
    {
      "midi": 71,
      "hit": false,
      "t": 29531.68497291651,
      "d": 105.30824374999793,
      "v": 49
    },
    {
      "midi": 68,
      "hit": false,
      "t": 29632.712393749844,
      "d": 41.952064583332685,
      "v": 52
    },
    {
      "midi": 64,
      "hit": false,
      "t": 29646.411027083177,
      "d": 53.93836874999761,
      "v": 45
    },
    {
      "midi": 74,
      "hit": false,
      "t": 29654.97267291651,
      "d": 85.61645833333023,
      "v": 51
    },
    {
      "midi": 59,
      "hit": false,
      "t": 29658.397331249842,
      "d": 63.35617916666524,
      "v": 62
    },
    {
      "midi": 52,
      "hit": false,
      "t": 29658.397331249842,
      "d": 735.4453770833206,
      "v": 59
    },
    {
      "midi": 71,
      "hit": false,
      "t": 29903.26040208317,
      "d": 134.41783958333326,
      "v": 50
    },
    {
      "midi": 68,
      "hit": false,
      "t": 30020.554949999838,
      "d": 39.38357083333176,
      "v": 12
    },
    {
      "midi": 64,
      "hit": false,
      "t": 30028.260431249837,
      "d": 53.93836874999761,
      "v": 45
    },
    {
      "midi": 74,
      "hit": false,
      "t": 30031.68508958317,
      "d": 97.60276249999515,
      "v": 44
    },
    {
      "midi": 59,
      "hit": false,
      "t": 30070.21249583317,
      "d": 43.664393749997544,
      "v": 61
    },
    {
      "midi": 73,
      "hit": false,
      "t": 30281.685147916498,
      "d": 74.48631875000137,
      "v": 60
    },
    {
      "midi": 69,
      "hit": false,
      "t": 30292.81528749983,
      "d": 47.945216666666965,
      "v": 63
    },
    {
      "midi": 64,
      "hit": false,
      "t": 30306.513920833164,
      "d": 58.21919166666703,
      "v": 50
    },
    {
      "midi": 57,
      "hit": false,
      "t": 30327.061870833164,
      "d": 59.93152083333189,
      "v": 65
    },
    {
      "midi": 62,
      "hit": false,
      "t": 30661.822222916497,
      "d": 55.650697916666104,
      "v": 49
    },
    {
      "midi": 61,
      "hit": false,
      "t": 30705.486616666498,
      "d": 128.42468749999898,
      "v": 60
    },
    {
      "midi": 59,
      "hit": false,
      "t": 30816.78801249983,
      "d": 73.63015416666894,
      "v": 51
    },
    {
      "midi": 57,
      "hit": false,
      "t": 30853.603089583165,
      "d": 85.61645833333387,
      "v": 65
    },
    {
      "midi": 54,
      "hit": false,
      "t": 30892.130495833164,
      "d": 37.6712416666669,
      "v": 59
    },
    {
      "midi": 50,
      "hit": false,
      "t": 30909.25378749983,
      "d": 59.0753562500031,
      "v": 74
    },
    {
      "midi": 38,
      "hit": false,
      "t": 30912.678445833164,
      "d": 35.95891250000204,
      "v": 69
    },
    {
      "midi": 45,
      "hit": false,
      "t": 30919.52776249983,
      "d": 25.68493750000198,
      "v": 69
    },
    {
      "midi": 69,
      "hit": false,
      "t": 31184.938783333168,
      "d": 114.72605416666556,
      "v": 54
    },
    {
      "midi": 66,
      "hit": false,
      "t": 31294.527849999835,
      "d": 47.08905208332726,
      "v": 54
    },
    {
      "midi": 50,
      "hit": false,
      "t": 31301.377166666498,
      "d": 695.2056416666564,
      "v": 55
    },
    {
      "midi": 72,
      "hit": false,
      "t": 31305.657989583164,
      "d": 69.34933124999588,
      "v": 65
    },
    {
      "midi": 62,
      "hit": false,
      "t": 31306.514154166496,
      "d": 49.657545833331824,
      "v": 47
    },
    {
      "midi": 57,
      "hit": false,
      "t": 31315.075799999828,
      "d": 39.3835708333354,
      "v": 60
    },
    {
      "midi": 69,
      "hit": false,
      "t": 31571.069010416493,
      "d": 165.23976458333345,
      "v": 46
    },
    {
      "midi": 72,
      "hit": false,
      "t": 31663.534785416494,
      "d": 83.90412916666537,
      "v": 49
    },
    {
      "midi": 66,
      "hit": false,
      "t": 31697.781368749827,
      "d": 43.664393749997544,
      "v": 51
    },
    {
      "midi": 57,
      "hit": false,
      "t": 31711.48000208316,
      "d": 54.79453333333004,
      "v": 54
    },
    {
      "midi": 71,
      "hit": false,
      "t": 31938.36361666649,
      "d": 509.4179270833338,
      "v": 45
    },
    {
      "midi": 62,
      "hit": false,
      "t": 31950.349920833156,
      "d": 446.06174791666854,
      "v": 36
    },
    {
      "midi": 67,
      "hit": false,
      "t": 31954.63074374982,
      "d": 471.7466854166705,
      "v": 44
    },
    {
      "midi": 55,
      "hit": false,
      "t": 31962.33622499982,
      "d": 74.48631875000137,
      "v": 51
    },
    {
      "midi": 57,
      "hit": false,
      "t": 32075.34994999982,
      "d": 119.00687708333498,
      "v": 57
    },
    {
      "midi": 58,
      "hit": false,
      "t": 32338.192477083157,
      "d": 147.26030833333425,
      "v": 49
    },
    {
      "midi": 59,
      "hit": false,
      "t": 32471.75415208316,
      "d": 59.93152083333189,
      "v": 78
    },
    {
      "midi": 42,
      "hit": false,
      "t": 32746.58298333316,
      "d": 71.06166041666438,
      "v": 55
    },
    {
      "midi": 71,
      "hit": false,
      "t": 32765.41860416649,
      "d": 110.44523125000342,
      "v": 70
    },
    {
      "midi": 51,
      "hit": false,
      "t": 32787.67888333316,
      "d": 110.44523124999978,
      "v": 51
    },
    {
      "midi": 75,
      "hit": false,
      "t": 32864.73369583316,
      "d": 103.59591458333307,
      "v": 70
    },
    {
      "midi": 57,
      "hit": false,
      "t": 32884.425481249826,
      "d": 34.24658333333355,
      "v": 56
    },
    {
      "midi": 78,
      "hit": false,
      "t": 32989.73372499982,
      "d": 130.13701666666748,
      "v": 67
    },
    {
      "midi": 40,
      "hit": false,
      "t": 33091.61731041649,
      "d": 83.04796458333294,
      "v": 52
    },
    {
      "midi": 83,
      "hit": false,
      "t": 33120.72690624982,
      "d": 96.74659791666636,
      "v": 74
    },
    {
      "midi": 47,
      "hit": false,
      "t": 33176.37760416649,
      "d": 53.938368750001246,
      "v": 47
    },
    {
      "midi": 76,
      "hit": false,
      "t": 33242.30227708316,
      "d": 61.643850000000384,
      "v": 71
    },
    {
      "midi": 55,
      "hit": false,
      "t": 33264.562556249824,
      "d": 30.821924999996554,
      "v": 61
    },
    {
      "midi": 71,
      "hit": false,
      "t": 33267.987214583154,
      "d": 31.67808958333626,
      "v": 62
    },
    {
      "midi": 59,
      "hit": false,
      "t": 33541.10371666649,
      "d": 29.10959583333897,
      "v": 83
    },
    {
      "midi": 47,
      "hit": false,
      "t": 33545.38453958316,
      "d": 63.35617916667252,
      "v": 70
    },
    {
      "midi": 59,
      "hit": false,
      "t": 33657.54209999983,
      "d": 832.1919749999943,
      "v": 114
    },
    {
      "midi": 51,
      "hit": false,
      "t": 33659.254429166496,
      "d": 242.2945770833394,
      "v": 75
    },
    {
      "midi": 54,
      "hit": false,
      "t": 33670.38456874983,
      "d": 130.9931812499999,
      "v": 75
    },
    {
      "midi": 71,
      "hit": false,
      "t": 33670.38456874983,
      "d": 3077.0555124999446,
      "v": 111
    },
    {
      "midi": 47,
      "hit": false,
      "t": 33937.507918749834,
      "d": 101.88358541666821,
      "v": 59
    },
    {
      "midi": 52,
      "hit": false,
      "t": 34071.06959374984,
      "d": 283.39047708333237,
      "v": 57
    },
    {
      "midi": 61,
      "hit": false,
      "t": 34078.77507499984,
      "d": 763.6988083333126,
      "v": 49
    },
    {
      "midi": 55,
      "hit": false,
      "t": 34099.32302499984,
      "d": 276.54116041666566,
      "v": 47
    },
    {
      "midi": 45,
      "hit": false,
      "t": 34405.82994583317,
      "d": 67.63700208332739,
      "v": 52
    },
    {
      "midi": 63,
      "hit": false,
      "t": 34518.84367083316,
      "d": 283.3904770833251,
      "v": 92
    },
    {
      "midi": 57,
      "hit": false,
      "t": 34535.96696249982,
      "d": 165.23976458333345,
      "v": 77
    },
    {
      "midi": 54,
      "hit": false,
      "t": 34542.81627916649,
      "d": 168.66442291666317,
      "v": 74
    },
    {
      "midi": 43,
      "hit": false,
      "t": 34810.795793749814,
      "d": 70.20549583333923,
      "v": 66
    },
    {
      "midi": 64,
      "hit": false,
      "t": 34918.67253124982,
      "d": 206.33566458332643,
      "v": 86
    },
    {
      "midi": 61,
      "hit": false,
      "t": 34922.097189583146,
      "d": 185.78771458333358,
      "v": 92
    },
    {
      "midi": 55,
      "hit": false,
      "t": 34944.35746874981,
      "d": 71.06166041667166,
      "v": 74
    },
    {
      "midi": 42,
      "hit": false,
      "t": 35226.89178124981,
      "d": 78.76714166666352,
      "v": 69
    },
    {
      "midi": 66,
      "hit": false,
      "t": 35346.754822916475,
      "d": 354.4521374999895,
      "v": 95
    },
    {
      "midi": 57,
      "hit": false,
      "t": 35350.179481249805,
      "d": 164.38359999999375,
      "v": 86
    },
    {
      "midi": 63,
      "hit": false,
      "t": 35350.179481249805,
      "d": 180.65072708332445,
      "v": 86
    },
    {
      "midi": 54,
      "hit": false,
      "t": 35386.1383937498,
      "d": 64.21234374999767,
      "v": 78
    },
    {
      "midi": 40,
      "hit": false,
      "t": 35674.66585833313,
      "d": 29.965760416664125,
      "v": 56
    },
    {
      "midi": 67,
      "hit": false,
      "t": 35744.87135416646,
      "d": 196.06168958332273,
      "v": 62
    },
    {
      "midi": 64,
      "hit": false,
      "t": 35746.58368333313,
      "d": 249.14389374999155,
      "v": 61
    },
    {
      "midi": 52,
      "hit": false,
      "t": 35750.00834166646,
      "d": 74.4863187499941,
      "v": 69
    },
    {
      "midi": 59,
      "hit": false,
      "t": 35758.56998749979,
      "d": 242.29457708333211,
      "v": 57
    },
    {
      "midi": 43,
      "hit": false,
      "t": 36057.37142708312,
      "d": 83.04796458333294,
      "v": 55
    },
    {
      "midi": 64,
      "hit": false,
      "t": 36160.96734166645,
      "d": 199.48634791665972,
      "v": 50
    },
    {
      "midi": 59,
      "hit": false,
      "t": 36176.37830416645,
      "d": 148.11647291666304,
      "v": 56
    },
    {
      "midi": 55,
      "hit": false,
      "t": 36191.78926666645,
      "d": 123.28770000000077,
      "v": 52
    },
    {
      "midi": 47,
      "hit": false,
      "t": 36440.076995833115,
      "d": 125.00002916666563,
      "v": 51
    },
    {
      "midi": 63,
      "hit": false,
      "t": 36575.35099999978,
      "d": 129.28085208332777,
      "v": 55
    },
    {
      "midi": 59,
      "hit": false,
      "t": 36587.337304166445,
      "d": 89.04111666665995,
      "v": 51
    },
    {
      "midi": 54,
      "hit": false,
      "t": 36602.748266666444,
      "d": 119.86304166666378,
      "v": 56
    },
    {
      "midi": 83,
      "hit": false,
      "t": 37032.542887499774,
      "d": 102.73975000000064,
      "v": 63
    },
    {
      "midi": 84,
      "hit": false,
      "t": 37161.82373958311,
      "d": 90.75344583333208,
      "v": 50
    },
    {
      "midi": 83,
      "hit": false,
      "t": 37255.14567916644,
      "d": 45.37672291666968,
      "v": 62
    },
    {
      "midi": 40,
      "hit": false,
      "t": 37260.28266666644,
      "d": 95.0342687500015,
      "v": 55
    },
    {
      "midi": 47,
      "hit": false,
      "t": 37347.61145416644,
      "d": 77.05481249999866,
      "v": 45
    },
    {
      "midi": 81,
      "hit": false,
      "t": 37416.96078541644,
      "d": 62.50001458332554,
      "v": 62
    },
    {
      "midi": 78,
      "hit": false,
      "t": 37418.67311458311,
      "d": 59.07535624999582,
      "v": 62
    },
    {
      "midi": 55,
      "hit": false,
      "t": 37427.23476041644,
      "d": 58.21919166666339,
      "v": 57
    },
    {
      "midi": 79,
      "hit": false,
      "t": 37673.81016041643,
      "d": 52.22603958332911,
      "v": 45
    },
    {
      "midi": 76,
      "hit": false,
      "t": 37696.92660416643,
      "d": 47.945216666666965,
      "v": 27
    },
    {
      "midi": 78,
      "hit": false,
      "t": 37805.659506249765,
      "d": 88.18495208332752,
      "v": 59
    },
    {
      "midi": 55,
      "hit": false,
      "t": 37815.07731666643,
      "d": 50.51371041666425,
      "v": 66
    },
    {
      "midi": 59,
      "hit": false,
      "t": 37817.64581041643,
      "d": 35.102747916665976,
      "v": 57
    },
    {
      "midi": 81,
      "hit": false,
      "t": 37822.78279791643,
      "d": 75.3424833333338,
      "v": 56
    },
    {
      "midi": 64,
      "hit": false,
      "t": 37826.20745624976,
      "d": 35.102747916665976,
      "v": 47
    },
    {
      "midi": 79,
      "hit": false,
      "t": 38063.365045833096,
      "d": 214.89731041666528,
      "v": 55
    },
    {
      "midi": 76,
      "hit": false,
      "t": 38070.21436249976,
      "d": 221.746627083332,
      "v": 51
    },
    {
      "midi": 33,
      "hit": false,
      "t": 38230.317139583094,
      "d": 38.52740625000297,
      "v": 62
    },
    {
      "midi": 45,
      "hit": false,
      "t": 38230.317139583094,
      "d": 38.52740625000297,
      "v": 62
    },
    {
      "midi": 61,
      "hit": false,
      "t": 38643.844633333094,
      "d": 31.678089583328983,
      "v": 62
    },
    {
      "midi": 79,
      "hit": false,
      "t": 38655.83093749976,
      "d": 194.34936041665787,
      "v": 70
    },
    {
      "midi": 57,
      "hit": false,
      "t": 38657.54326666643,
      "d": 35.1027479166587,
      "v": 54
    },
    {
      "midi": 55,
      "hit": false,
      "t": 38660.96792499976,
      "d": 36.815077083330834,
      "v": 52
    },
    {
      "midi": 76,
      "hit": false,
      "t": 38669.52957083309,
      "d": 85.61645833333023,
      "v": 66
    },
    {
      "midi": 83,
      "hit": false,
      "t": 38788.53644791642,
      "d": 94.17810416666907,
      "v": 61
    },
    {
      "midi": 81,
      "hit": false,
      "t": 38899.83784374975,
      "d": 84.7602937499978,
      "v": 57
    },
    {
      "midi": 78,
      "hit": false,
      "t": 38902.40633749975,
      "d": 84.7602937499978,
      "v": 57
    },
    {
      "midi": 38,
      "hit": false,
      "t": 39065.93377291641,
      "d": 46.23288750000211,
      "v": 71
    },
    {
      "midi": 50,
      "hit": false,
      "t": 39065.93377291641,
      "d": 46.23288750000211,
      "v": 71
    },
    {
      "midi": 79,
      "hit": false,
      "t": 39086.48172291641,
      "d": 68.4931666666671,
      "v": 74
    },
    {
      "midi": 76,
      "hit": false,
      "t": 39092.474874999745,
      "d": 41.952064583332685,
      "v": 59
    },
    {
      "midi": 78,
      "hit": false,
      "t": 39329.632464583075,
      "d": 50.51371041666425,
      "v": 49
    },
    {
      "midi": 74,
      "hit": false,
      "t": 39332.20095833307,
      "d": 41.952064583332685,
      "v": 59
    },
    {
      "midi": 76,
      "hit": false,
      "t": 39465.76263333307,
      "d": 73.63015416666167,
      "v": 69
    },
    {
      "midi": 79,
      "hit": false,
      "t": 39476.03660833307,
      "d": 46.23288749999483,
      "v": 61
    },
    {
      "midi": 57,
      "hit": false,
      "t": 39483.742089583066,
      "d": 59.931520833335526,
      "v": 70
    },
    {
      "midi": 54,
      "hit": false,
      "t": 39487.166747916395,
      "d": 39.3835708333354,
      "v": 51
    },
    {
      "midi": 50,
      "hit": false,
      "t": 39494.872229166394,
      "d": 39.3835708333354,
      "v": 51
    },
    {
      "midi": 78,
      "hit": false,
      "t": 39741.4476291664,
      "d": 130.9931812499999,
      "v": 56
    },
    {
      "midi": 74,
      "hit": false,
      "t": 39744.87228749973,
      "d": 146.40414374999818,
      "v": 47
    },
    {
      "midi": 57,
      "hit": false,
      "t": 39887.8517729164,
      "d": 47.08905208332726,
      "v": 51
    },
    {
      "midi": 54,
      "hit": false,
      "t": 39892.988760416396,
      "d": 63.35617916666524,
      "v": 49
    },
    {
      "midi": 62,
      "hit": false,
      "t": 39896.413418749726,
      "d": 45.37672291666968,
      "v": 38
    },
    {
      "midi": 71,
      "hit": false,
      "t": 40287.68063333306,
      "d": 2958.904799999982,
      "v": 99
    },
    {
      "midi": 51,
      "hit": false,
      "t": 40291.96145624973,
      "d": 253.42471666666097,
      "v": 67
    },
    {
      "midi": 59,
      "hit": false,
      "t": 40293.673785416395,
      "d": 392.12337916666,
      "v": 105
    },
    {
      "midi": 54,
      "hit": false,
      "t": 40303.94776041639,
      "d": 100.17125624999608,
      "v": 66
    },
    {
      "midi": 47,
      "hit": false,
      "t": 40587.33823749972,
      "d": 42.808229166665114,
      "v": 59
    },
    {
      "midi": 61,
      "hit": false,
      "t": 40666.10537916639,
      "d": 689.2124895833185,
      "v": 69
    },
    {
      "midi": 52,
      "hit": false,
      "t": 40708.05744374972,
      "d": 244.00690624999697,
      "v": 65
    },
    {
      "midi": 55,
      "hit": false,
      "t": 40711.48210208305,
      "d": 250.00005833333125,
      "v": 59
    },
    {
      "midi": 45,
      "hit": false,
      "t": 40985.45476874971,
      "d": 48.801381249999395,
      "v": 56
    },
    {
      "midi": 63,
      "hit": false,
      "t": 41095.89999999971,
      "d": 250.85622291666368,
      "v": 92
    },
    {
      "midi": 57,
      "hit": false,
      "t": 41107.88630416638,
      "d": 113.01372499999707,
      "v": 79
    },
    {
      "midi": 54,
      "hit": false,
      "t": 41115.59178541638,
      "d": 90.75344583333208,
      "v": 71
    },
    {
      "midi": 43,
      "hit": false,
      "t": 41378.4343124997,
      "d": 74.48631875000137,
      "v": 59
    },
    {
      "midi": 64,
      "hit": false,
      "t": 41512.85215208304,
      "d": 208.90415833333827,
      "v": 89
    },
    {
      "midi": 61,
      "hit": false,
      "t": 41516.27681041637,
      "d": 187.50004375000572,
      "v": 86
    },
    {
      "midi": 55,
      "hit": false,
      "t": 41534.25626666637,
      "d": 85.6164583333375,
      "v": 71
    },
    {
      "midi": 42,
      "hit": false,
      "t": 41791.96180624971,
      "d": 67.63700208333466,
      "v": 66
    },
    {
      "midi": 57,
      "hit": false,
      "t": 41922.09882291638,
      "d": 116.43838333332678,
      "v": 62
    },
    {
      "midi": 63,
      "hit": false,
      "t": 41926.37964583305,
      "d": 123.28769999999349,
      "v": 63
    },
    {
      "midi": 66,
      "hit": false,
      "t": 41926.37964583305,
      "d": 289.38362916666665,
      "v": 70
    },
    {
      "midi": 54,
      "hit": false,
      "t": 41953.776912499714,
      "d": 54.7945333333264,
      "v": 54
    },
    {
      "midi": 40,
      "hit": false,
      "t": 42190.934502083044,
      "d": 61.643850000000384,
      "v": 52
    },
    {
      "midi": 64,
      "hit": false,
      "t": 42295.38658124971,
      "d": 211.47265208332828,
      "v": 59
    },
    {
      "midi": 67,
      "hit": false,
      "t": 42302.23589791638,
      "d": 177.226068750002,
      "v": 54
    },
    {
      "midi": 59,
      "hit": false,
      "t": 42310.79754374971,
      "d": 184.07538541666872,
      "v": 60
    },
    {
      "midi": 52,
      "hit": false,
      "t": 42315.07836666638,
      "d": 183.21922083332902,
      "v": 71
    },
    {
      "midi": 43,
      "hit": false,
      "t": 42612.167477083036,
      "d": 104.4520791666655,
      "v": 54
    },
    {
      "midi": 64,
      "hit": false,
      "t": 42711.4825687497,
      "d": 136.9863333333342,
      "v": 52
    },
    {
      "midi": 59,
      "hit": false,
      "t": 42732.88668333303,
      "d": 170.3767520833353,
      "v": 49
    },
    {
      "midi": 55,
      "hit": false,
      "t": 42758.571620833034,
      "d": 143.8356500000009,
      "v": 49
    },
    {
      "midi": 47,
      "hit": false,
      "t": 43001.7223624997,
      "d": 119.86304166667105,
      "v": 55
    },
    {
      "midi": 63,
      "hit": false,
      "t": 43115.592252083035,
      "d": 112.15756041667191,
      "v": 49
    },
    {
      "midi": 59,
      "hit": false,
      "t": 43126.72239166637,
      "d": 83.04796458333294,
      "v": 54
    },
    {
      "midi": 54,
      "hit": false,
      "t": 43171.2429499997,
      "d": 116.43838333334133,
      "v": 52
    },
    {
      "midi": 83,
      "hit": false,
      "t": 43597.61291249971,
      "d": 90.75344583333208,
      "v": 70
    },
    {
      "midi": 84,
      "hit": false,
      "t": 43710.62663749971,
      "d": 120.71920625000348,
      "v": 51
    },
    {
      "midi": 83,
      "hit": false,
      "t": 43811.65405833304,
      "d": 38.52740625000297,
      "v": 66
    },
    {
      "midi": 40,
      "hit": false,
      "t": 43854.462287499715,
      "d": 83.90412916666537,
      "v": 51
    },
    {
      "midi": 47,
      "hit": false,
      "t": 43911.825314583046,
      "d": 77.05481249999866,
      "v": 45
    },
    {
      "midi": 55,
      "hit": false,
      "t": 43992.304785416374,
      "d": 59.0753562500031,
      "v": 59
    },
    {
      "midi": 81,
      "hit": false,
      "t": 43996.58560833304,
      "d": 65.92467291666253,
      "v": 63
    },
    {
      "midi": 78,
      "hit": false,
      "t": 44000.86643124971,
      "d": 53.08220416666154,
      "v": 62
    },
    {
      "midi": 79,
      "hit": false,
      "t": 44232.88703333304,
      "d": 57.36302708333096,
      "v": 55
    },
    {
      "midi": 76,
      "hit": false,
      "t": 44242.304843749705,
      "d": 57.36302708333096,
      "v": 46
    },
    {
      "midi": 55,
      "hit": false,
      "t": 44376.722683333035,
      "d": 62.50001458332554,
      "v": 56
    },
    {
      "midi": 64,
      "hit": false,
      "t": 44379.29117708303,
      "d": 38.52740624999569,
      "v": 57
    },
    {
      "midi": 59,
      "hit": false,
      "t": 44385.28432916637,
      "d": 34.24658333332627,
      "v": 57
    },
    {
      "midi": 78,
      "hit": false,
      "t": 44388.7089874997,
      "d": 85.61645833333023,
      "v": 66
    },
    {
      "midi": 81,
      "hit": false,
      "t": 44398.98296249969,
      "d": 56.50686249999853,
      "v": 57
    },
    {
      "midi": 79,
      "hit": false,
      "t": 44619.87342499969,
      "d": 222.6027916666717,
      "v": 57
    },
    {
      "midi": 76,
      "hit": false,
      "t": 44627.57890624969,
      "d": 222.6027916666717,
      "v": 52
    },
    {
      "midi": 33,
      "hit": false,
      "t": 44803.94881041636,
      "d": 41.952064583332685,
      "v": 69
    },
    {
      "midi": 45,
      "hit": false,
      "t": 44803.94881041636,
      "d": 41.952064583332685,
      "v": 69
    },
    {
      "midi": 61,
      "hit": false,
      "t": 45211.48315208303,
      "d": 32.53425416666141,
      "v": 60
    },
    {
      "midi": 55,
      "hit": false,
      "t": 45221.75712708302,
      "d": 34.24658333333355,
      "v": 55
    },
    {
      "midi": 57,
      "hit": false,
      "t": 45228.60644374969,
      "d": 30.821924999996554,
      "v": 52
    },
    {
      "midi": 76,
      "hit": false,
      "t": 45229.46260833302,
      "d": 89.89728124999965,
      "v": 69
    },
    {
      "midi": 79,
      "hit": false,
      "t": 45236.31192499969,
      "d": 196.06168958333728,
      "v": 69
    },
    {
      "midi": 83,
      "hit": false,
      "t": 45380.14757499969,
      "d": 74.48631875000137,
      "v": 63
    },
    {
      "midi": 78,
      "hit": false,
      "t": 45503.43527499969,
      "d": 74.48631875000137,
      "v": 63
    },
    {
      "midi": 81,
      "hit": false,
      "t": 45503.43527499969,
      "d": 74.48631875000137,
      "v": 63
    },
    {
      "midi": 76,
      "hit": false,
      "t": 45618.16132916636,
      "d": 70.20549583333195,
      "v": 70
    },
    {
      "midi": 79,
      "hit": false,
      "t": 45620.72982291636,
      "d": 62.50001458333281,
      "v": 71
    },
    {
      "midi": 38,
      "hit": false,
      "t": 45637.85311458302,
      "d": 40.23973541666783,
      "v": 60
    },
    {
      "midi": 78,
      "hit": false,
      "t": 45877.579197916355,
      "d": 64.21234374999767,
      "v": 47
    },
    {
      "midi": 74,
      "hit": false,
      "t": 45919.53126249969,
      "d": 41.095900000000256,
      "v": 40
    },
    {
      "midi": 76,
      "hit": false,
      "t": 46024.839506249686,
      "d": 62.50001458333281,
      "v": 57
    },
    {
      "midi": 79,
      "hit": false,
      "t": 46029.120329166355,
      "d": 62.50001458332554,
      "v": 56
    },
    {
      "midi": 57,
      "hit": false,
      "t": 46032.544987499685,
      "d": 53.938368750001246,
      "v": 65
    },
    {
      "midi": 50,
      "hit": false,
      "t": 46037.68197499969,
      "d": 50.51371041666425,
      "v": 54
    },
    {
      "midi": 54,
      "hit": false,
      "t": 46038.53813958302,
      "d": 50.51371041666425,
      "v": 54
    },
    {
      "midi": 78,
      "hit": false,
      "t": 46281.68888124968,
      "d": 127.56852291666291,
      "v": 51
    },
    {
      "midi": 74,
      "hit": false,
      "t": 46283.40121041635,
      "d": 149.82880208333518,
      "v": 47
    },
    {
      "midi": 54,
      "hit": false,
      "t": 46422.95603749968,
      "d": 52.22603958333639,
      "v": 62
    },
    {
      "midi": 62,
      "hit": false,
      "t": 46428.949189583014,
      "d": 39.3835708333354,
      "v": 54
    },
    {
      "midi": 57,
      "hit": false,
      "t": 46434.94234166635,
      "d": 39.3835708333354,
      "v": 51
    },
    {
      "midi": 35,
      "hit": false,
      "t": 46706.34651458302,
      "d": 1448.6304749999908,
      "v": 57
    },
    {
      "midi": 71,
      "hit": false,
      "t": 46709.77117291635,
      "d": 53.938368750001246,
      "v": 65
    },
    {
      "midi": 59,
      "hit": false,
      "t": 46826.20955624968,
      "d": 161.81510624999646,
      "v": 102
    },
    {
      "midi": 47,
      "hit": false,
      "t": 46830.49037916635,
      "d": 35.958912499998405,
      "v": 77
    },
    {
      "midi": 47,
      "hit": false,
      "t": 47114.73702083301,
      "d": 51.36987499999668,
      "v": 73
    },
    {
      "midi": 55,
      "hit": false,
      "t": 47235.45622708301,
      "d": 223.45895625000412,
      "v": 78
    },
    {
      "midi": 61,
      "hit": false,
      "t": 47240.59321458301,
      "d": 261.13019791667466,
      "v": 74
    },
    {
      "midi": 52,
      "hit": false,
      "t": 47245.73020208301,
      "d": 224.31512083333655,
      "v": 66
    },
    {
      "midi": 47,
      "hit": false,
      "t": 47535.113831249684,
      "d": 62.50001458333281,
      "v": 55
    },
    {
      "midi": 63,
      "hit": false,
      "t": 47638.70974583302,
      "d": 192.6370312500003,
      "v": 66
    },
    {
      "midi": 57,
      "hit": false,
      "t": 47648.12755624968,
      "d": 220.03429791666713,
      "v": 57
    },
    {
      "midi": 54,
      "hit": false,
      "t": 47651.55221458301,
      "d": 159.24661250000645,
      "v": 54
    },
    {
      "midi": 47,
      "hit": false,
      "t": 47944.360502083015,
      "d": 115.58221874999435,
      "v": 54
    },
    {
      "midi": 61,
      "hit": false,
      "t": 48067.64820208301,
      "d": 60.787685416667955,
      "v": 67
    },
    {
      "midi": 64,
      "hit": false,
      "t": 48080.49067083301,
      "d": 53.08220416666882,
      "v": 65
    },
    {
      "midi": 55,
      "hit": false,
      "t": 48084.77149374968,
      "d": 36.815077083330834,
      "v": 57
    },
    {
      "midi": 35,
      "hit": false,
      "t": 48331.34689374968,
      "d": 1475.1715770833398,
      "v": 75
    },
    {
      "midi": 71,
      "hit": false,
      "t": 48346.75785624968,
      "d": 160.9589416666713,
      "v": 78
    },
    {
      "midi": 59,
      "hit": false,
      "t": 48458.05925208301,
      "d": 76.19864791667351,
      "v": 99
    },
    {
      "midi": 47,
      "hit": false,
      "t": 48476.03870833301,
      "d": 63.35617916667252,
      "v": 95
    },
    {
      "midi": 47,
      "hit": false,
      "t": 48746.58671666635,
      "d": 91.60961041666451,
      "v": 55
    },
    {
      "midi": 63,
      "hit": false,
      "t": 48872.44291041635,
      "d": 200.3425125000067,
      "v": 54
    },
    {
      "midi": 57,
      "hit": false,
      "t": 48876.72373333302,
      "d": 293.6644520833361,
      "v": 57
    },
    {
      "midi": 54,
      "hit": false,
      "t": 48883.573049999686,
      "d": 173.8014104166723,
      "v": 49
    },
    {
      "midi": 47,
      "hit": false,
      "t": 49201.21011041635,
      "d": 62.50001458333281,
      "v": 59
    },
    {
      "midi": 64,
      "hit": false,
      "t": 49309.94301249969,
      "d": 102.73975000000064,
      "v": 74
    },
    {
      "midi": 55,
      "hit": false,
      "t": 49312.511506249684,
      "d": 69.34933124999952,
      "v": 78
    },
    {
      "midi": 61,
      "hit": false,
      "t": 49320.21698749968,
      "d": 81.33563541666808,
      "v": 63
    },
    {
      "midi": 47,
      "hit": false,
      "t": 49576.210197916356,
      "d": 296.2329458333261,
      "v": 65
    },
    {
      "midi": 66,
      "hit": false,
      "t": 49717.47735416635,
      "d": 141.26715624999633,
      "v": 89
    },
    {
      "midi": 63,
      "hit": false,
      "t": 49720.04584791635,
      "d": 110.44523124999978,
      "v": 78
    },
    {
      "midi": 57,
      "hit": false,
      "t": 49727.75132916635,
      "d": 66.78083750000224,
      "v": 83
    },
    {
      "midi": 35,
      "hit": false,
      "t": 49980.319881249685,
      "d": 1488.0140458333262,
      "v": 79
    },
    {
      "midi": 71,
      "hit": false,
      "t": 50000.01166666635,
      "d": 262.84252708333224,
      "v": 83
    },
    {
      "midi": 59,
      "hit": false,
      "t": 50118.16237916635,
      "d": 195.20552499999758,
      "v": 108
    },
    {
      "midi": 47,
      "hit": false,
      "t": 50145.55964583302,
      "d": 59.0753562500031,
      "v": 95
    },
    {
      "midi": 47,
      "hit": false,
      "t": 50422.95697083302,
      "d": 91.60961041667179,
      "v": 50
    },
    {
      "midi": 64,
      "hit": false,
      "t": 50557.37481041635,
      "d": 258.5617041666628,
      "v": 75
    },
    {
      "midi": 61,
      "hit": false,
      "t": 50559.08713958302,
      "d": 262.84252708333224,
      "v": 78
    },
    {
      "midi": 55,
      "hit": false,
      "t": 50569.361114583015,
      "d": 217.46580416666984,
      "v": 78
    },
    {
      "midi": 47,
      "hit": false,
      "t": 50842.47761666635,
      "d": 68.4931666666671,
      "v": 67
    },
    {
      "midi": 66,
      "hit": false,
      "t": 50976.03929166635,
      "d": 151.54113124999276,
      "v": 99
    },
    {
      "midi": 63,
      "hit": false,
      "t": 50979.46394999968,
      "d": 108.73290208332764,
      "v": 95
    },
    {
      "midi": 57,
      "hit": false,
      "t": 50986.313266666344,
      "d": 77.91097708333109,
      "v": 95
    },
    {
      "midi": 47,
      "hit": false,
      "t": 51256.00511041634,
      "d": 116.43838333333406,
      "v": 66
    },
    {
      "midi": 64,
      "hit": false,
      "t": 51392.135279166345,
      "d": 308.2192500000019,
      "v": 92
    },
    {
      "midi": 59,
      "hit": false,
      "t": 51395.559937499675,
      "d": 178.08223333333444,
      "v": 99
    },
    {
      "midi": 67,
      "hit": false,
      "t": 51395.559937499675,
      "d": 589.0412333333516,
      "v": 86
    },
    {
      "midi": 35,
      "hit": false,
      "t": 51682.375072916344,
      "d": 1327.9112687500092,
      "v": 78
    },
    {
      "midi": 71,
      "hit": false,
      "t": 51690.08055416634,
      "d": 375.85625208335114,
      "v": 75
    },
    {
      "midi": 64,
      "hit": false,
      "t": 51795.38879791635,
      "d": 184.075385416676,
      "v": 51
    },
    {
      "midi": 59,
      "hit": false,
      "t": 51813.36825416635,
      "d": 158.39044791667402,
      "v": 99
    },
    {
      "midi": 47,
      "hit": false,
      "t": 51838.19702708302,
      "d": 64.21234375000495,
      "v": 102
    },
    {
      "midi": 47,
      "hit": false,
      "t": 52094.19023749969,
      "d": 85.61645833333023,
      "v": 66
    },
    {
      "midi": 64,
      "hit": false,
      "t": 52221.75876041636,
      "d": 317.6370604166659,
      "v": 86
    },
    {
      "midi": 60,
      "hit": false,
      "t": 52224.327254166354,
      "d": 189.21237291667057,
      "v": 86
    },
    {
      "midi": 69,
      "hit": false,
      "t": 52231.17657083302,
      "d": 221.74662708333926,
      "v": 75
    },
    {
      "midi": 71,
      "hit": false,
      "t": 52509.43006041636,
      "d": 573.6302708333315,
      "v": 79
    },
    {
      "midi": 47,
      "hit": false,
      "t": 52547.957466666354,
      "d": 58.21919166666339,
      "v": 86
    },
    {
      "midi": 59,
      "hit": false,
      "t": 52666.10817916635,
      "d": 326.1987062499975,
      "v": 102
    },
    {
      "midi": 47,
      "hit": false,
      "t": 52932.37536458302,
      "d": 57.36302708333096,
      "v": 79
    },
    {
      "midi": 66,
      "hit": false,
      "t": 53048.813747916356,
      "d": 69.34933124999952,
      "v": 99
    },
    {
      "midi": 63,
      "hit": false,
      "t": 53050.52607708302,
      "d": 52.22603958333639,
      "v": 95
    },
    {
      "midi": 69,
      "hit": false,
      "t": 53340.76587083302,
      "d": 291.95212291666394,
      "v": 71
    },
    {
      "midi": 72,
      "hit": false,
      "t": 53347.61518749969,
      "d": 190.068537500003,
      "v": 79
    },
    {
      "midi": 84,
      "hit": false,
      "t": 53347.61518749969,
      "d": 333.0480229166642,
      "v": 88
    },
    {
      "midi": 66,
      "hit": false,
      "t": 53365.59464374969,
      "d": 249.14389374999882,
      "v": 74
    },
    {
      "midi": 62,
      "hit": false,
      "t": 53365.59464374969,
      "d": 335.6165166666615,
      "v": 69
    },
    {
      "midi": 74,
      "hit": false,
      "t": 53464.05357083302,
      "d": 136.9863333333342,
      "v": 74
    },
    {
      "midi": 78,
      "hit": false,
      "t": 53624.15634791635,
      "d": 106.16440833333036,
      "v": 42
    },
    {
      "midi": 81,
      "hit": false,
      "t": 53708.91664166635,
      "d": 141.26715624999633,
      "v": 57
    },
    {
      "midi": 75,
      "hit": false,
      "t": 53848.47146874968,
      "d": 64.2123437499904,
      "v": 67
    },
    {
      "midi": 63,
      "hit": false,
      "t": 53852.752291666344,
      "d": 75.34248333331925,
      "v": 55
    },
    {
      "midi": 71,
      "hit": false,
      "t": 53858.74544374968,
      "d": 48.80138124999212,
      "v": 57
    },
    {
      "midi": 83,
      "hit": false,
      "t": 53858.74544374968,
      "d": 74.48631874998682,
      "v": 71
    },
    {
      "midi": 66,
      "hit": false,
      "t": 53867.30708958301,
      "d": 48.80138124999212,
      "v": 52
    },
    {
      "midi": 69,
      "hit": false,
      "t": 53869.87558333301,
      "d": 47.94521666665969,
      "v": 52
    },
    {
      "midi": 84,
      "hit": false,
      "t": 54127.58112291633,
      "d": 376.71241666665446,
      "v": 87
    },
    {
      "midi": 66,
      "hit": false,
      "t": 54142.135920832996,
      "d": 127.56852291665564,
      "v": 79
    },
    {
      "midi": 72,
      "hit": false,
      "t": 54143.84824999966,
      "d": 73.63015416666167,
      "v": 78
    },
    {
      "midi": 62,
      "hit": false,
      "t": 54146.41674374966,
      "d": 132.70551041666477,
      "v": 69
    },
    {
      "midi": 69,
      "hit": false,
      "t": 54155.83455416632,
      "d": 97.60276249999879,
      "v": 75
    },
    {
      "midi": 74,
      "hit": false,
      "t": 54274.84143124965,
      "d": 134.4178395833369,
      "v": 59
    },
    {
      "midi": 78,
      "hit": false,
      "t": 54425.52639791632,
      "d": 135.27400416666205,
      "v": 51
    },
    {
      "midi": 81,
      "hit": false,
      "t": 54558.231908332986,
      "d": 160.95894166665676,
      "v": 55
    },
    {
      "midi": 71,
      "hit": false,
      "t": 54647.27302499965,
      "d": 63.35617916665797,
      "v": 69
    },
    {
      "midi": 69,
      "hit": false,
      "t": 54652.410012499655,
      "d": 52.22603958332911,
      "v": 61
    },
    {
      "midi": 66,
      "hit": false,
      "t": 54652.410012499655,
      "d": 55.65069791665883,
      "v": 71
    },
    {
      "midi": 63,
      "hit": false,
      "t": 54662.68398749965,
      "d": 42.808229166665114,
      "v": 59
    },
    {
      "midi": 83,
      "hit": false,
      "t": 54678.95111458298,
      "d": 66.78083749999496,
      "v": 78
    },
    {
      "midi": 88,
      "hit": false,
      "t": 54956.34843958297,
      "d": 340.7535041666706,
      "v": 95
    },
    {
      "midi": 72,
      "hit": false,
      "t": 54969.190908332974,
      "d": 253.42471666666825,
      "v": 74
    },
    {
      "midi": 65,
      "hit": false,
      "t": 54974.327895832976,
      "d": 167.80825833333802,
      "v": 74
    },
    {
      "midi": 76,
      "hit": false,
      "t": 54978.608718749645,
      "d": 113.01372500000434,
      "v": 77
    },
    {
      "midi": 69,
      "hit": false,
      "t": 54978.608718749645,
      "d": 221.746627083332,
      "v": 71
    },
    {
      "midi": 77,
      "hit": false,
      "t": 55107.03340624965,
      "d": 55.650697916666104,
      "v": 65
    },
    {
      "midi": 81,
      "hit": false,
      "t": 55236.314258332975,
      "d": 163.5274354166686,
      "v": 56
    },
    {
      "midi": 84,
      "hit": false,
      "t": 55368.16360416631,
      "d": 173.80141041666502,
      "v": 59
    },
    {
      "midi": 75,
      "hit": false,
      "t": 55491.45130416631,
      "d": 71.0616604166571,
      "v": 69
    },
    {
      "midi": 66,
      "hit": false,
      "t": 55496.58829166631,
      "d": 73.63015416665439,
      "v": 66
    },
    {
      "midi": 69,
      "hit": false,
      "t": 55505.14993749964,
      "d": 59.075356249988545,
      "v": 59
    },
    {
      "midi": 72,
      "hit": false,
      "t": 55513.71158333297,
      "d": 45.3767229166624,
      "v": 59
    },
    {
      "midi": 78,
      "hit": false,
      "t": 55513.71158333297,
      "d": 47.08905208332726,
      "v": 86
    },
    {
      "midi": 87,
      "hit": false,
      "t": 55513.71158333297,
      "d": 65.06850833332282,
      "v": 70
    },
    {
      "midi": 65,
      "hit": false,
      "t": 55774.84178124963,
      "d": 145.54797916666575,
      "v": 70
    },
    {
      "midi": 69,
      "hit": false,
      "t": 55776.55411041629,
      "d": 210.61648750000313,
      "v": 70
    },
    {
      "midi": 76,
      "hit": false,
      "t": 55778.266439582956,
      "d": 167.80825833333802,
      "v": 71
    },
    {
      "midi": 72,
      "hit": false,
      "t": 55789.39657916629,
      "d": 242.29457708333211,
      "v": 70
    },
    {
      "midi": 88,
      "hit": false,
      "t": 55789.39657916629,
      "d": 303.9384270833325,
      "v": 95
    },
    {
      "midi": 77,
      "hit": false,
      "t": 55912.68427916629,
      "d": 167.80825833333074,
      "v": 70
    },
    {
      "midi": 81,
      "hit": false,
      "t": 56057.376093749626,
      "d": 184.07538541666145,
      "v": 57
    },
    {
      "midi": 84,
      "hit": false,
      "t": 56171.245983332956,
      "d": 170.37675208332803,
      "v": 62
    },
    {
      "midi": 87,
      "hit": false,
      "t": 56293.67751874962,
      "d": 73.63015416666894,
      "v": 79
    },
    {
      "midi": 66,
      "hit": false,
      "t": 56299.67067083295,
      "d": 47.945216666666965,
      "v": 59
    },
    {
      "midi": 75,
      "hit": false,
      "t": 56299.67067083295,
      "d": 70.20549583333195,
      "v": 74
    },
    {
      "midi": 72,
      "hit": false,
      "t": 56307.37615208295,
      "d": 48.801381249999395,
      "v": 67
    },
    {
      "midi": 69,
      "hit": false,
      "t": 56314.22546874962,
      "d": 38.52740625000297,
      "v": 61
    },
    {
      "midi": 69,
      "hit": false,
      "t": 56600.184439582954,
      "d": 209.7603229166707,
      "v": 65
    },
    {
      "midi": 91,
      "hit": false,
      "t": 56604.46526249962,
      "d": 262.84252708333224,
      "v": 95
    },
    {
      "midi": 79,
      "hit": false,
      "t": 56608.74608541629,
      "d": 89.89728124999965,
      "v": 79
    },
    {
      "midi": 72,
      "hit": false,
      "t": 56608.74608541629,
      "d": 271.4041729166638,
      "v": 75
    },
    {
      "midi": 75,
      "hit": false,
      "t": 56619.02006041629,
      "d": 155.82195416666946,
      "v": 71
    },
    {
      "midi": 81,
      "hit": false,
      "t": 56736.314608332956,
      "d": 116.43838333333406,
      "v": 66
    },
    {
      "midi": 84,
      "hit": false,
      "t": 56863.883131249626,
      "d": 168.66442291666317,
      "v": 56
    },
    {
      "midi": 87,
      "hit": false,
      "t": 56981.17767916629,
      "d": 107.02057291666279,
      "v": 56
    },
    {
      "midi": 90,
      "hit": false,
      "t": 57124.15716458295,
      "d": 79.62330624999595,
      "v": 79
    },
    {
      "midi": 83,
      "hit": false,
      "t": 57135.28730416629,
      "d": 54.7945333333264,
      "v": 95
    },
    {
      "midi": 78,
      "hit": false,
      "t": 57135.28730416629,
      "d": 70.20549583332468,
      "v": 77
    },
    {
      "midi": 75,
      "hit": false,
      "t": 57137.85579791629,
      "d": 90.7534458333248,
      "v": 61
    },
    {
      "midi": 71,
      "hit": false,
      "t": 57145.561279166286,
      "d": 85.61645833332295,
      "v": 63
    },
    {
      "midi": 75,
      "hit": false,
      "t": 57397.273666666275,
      "d": 271.4041729166638,
      "v": 70
    },
    {
      "midi": 79,
      "hit": false,
      "t": 57414.39695833294,
      "d": 163.5274354166686,
      "v": 83
    },
    {
      "midi": 72,
      "hit": false,
      "t": 57414.39695833294,
      "d": 255.1370458333331,
      "v": 74
    },
    {
      "midi": 69,
      "hit": false,
      "t": 57414.39695833294,
      "d": 256.84937499999796,
      "v": 70
    },
    {
      "midi": 91,
      "hit": false,
      "t": 57414.39695833294,
      "d": 295.37678124999366,
      "v": 89
    },
    {
      "midi": 81,
      "hit": false,
      "t": 57539.396987499604,
      "d": 155.82195416666218,
      "v": 74
    },
    {
      "midi": 84,
      "hit": false,
      "t": 57673.81482708293,
      "d": 166.09592916666588,
      "v": 57
    },
    {
      "midi": 87,
      "hit": false,
      "t": 57787.68471666626,
      "d": 170.37675208332803,
      "v": 66
    },
    {
      "midi": 90,
      "hit": false,
      "t": 57927.2395437496,
      "d": 69.34933124998497,
      "v": 89
    },
    {
      "midi": 78,
      "hit": false,
      "t": 57930.66420208293,
      "d": 53.93836874999397,
      "v": 79
    },
    {
      "midi": 75,
      "hit": false,
      "t": 57930.66420208293,
      "d": 54.7945333333264,
      "v": 70
    },
    {
      "midi": 83,
      "hit": false,
      "t": 57940.082012499595,
      "d": 47.08905208332726,
      "v": 83
    },
    {
      "midi": 71,
      "hit": false,
      "t": 57948.64365833293,
      "d": 31.678089583328983,
      "v": 57
    },
    {
      "midi": 74,
      "hit": false,
      "t": 58215.76700833292,
      "d": 254.2808812499934,
      "v": 65
    },
    {
      "midi": 84,
      "hit": false,
      "t": 58224.32865416625,
      "d": 94.1781041666618,
      "v": 83
    },
    {
      "midi": 81,
      "hit": false,
      "t": 58227.75331249958,
      "d": 220.03429791666713,
      "v": 78
    },
    {
      "midi": 78,
      "hit": false,
      "t": 58232.03413541625,
      "d": 167.80825833333074,
      "v": 67
    },
    {
      "midi": 96,
      "hit": false,
      "t": 58232.03413541625,
      "d": 295.37678124999366,
      "v": 105
    },
    {
      "midi": 86,
      "hit": false,
      "t": 58359.602658332915,
      "d": 125.85619374999806,
      "v": 69
    },
    {
      "midi": 90,
      "hit": false,
      "t": 58495.73282708291,
      "d": 154.1096250000046,
      "v": 49
    },
    {
      "midi": 93,
      "hit": false,
      "t": 58630.150666666246,
      "d": 122.43153541666834,
      "v": 55
    },
    {
      "midi": 87,
      "hit": false,
      "t": 58770.56165833292,
      "d": 46.23288750000211,
      "v": 95
    },
    {
      "midi": 95,
      "hit": false,
      "t": 58771.41782291625,
      "d": 61.643850000000384,
      "v": 77
    },
    {
      "midi": 83,
      "hit": false,
      "t": 58789.39727916625,
      "d": 46.23288749999483,
      "v": 92
    },
    {
      "midi": 78,
      "hit": false,
      "t": 58789.39727916625,
      "d": 48.80138124999212,
      "v": 74
    },
    {
      "midi": 81,
      "hit": false,
      "t": 58789.39727916625,
      "d": 51.369874999989406,
      "v": 79
    },
    {
      "midi": 75,
      "hit": false,
      "t": 58789.39727916625,
      "d": 71.91782499998953,
      "v": 77
    },
    {
      "midi": 96,
      "hit": false,
      "t": 59053.95213541624,
      "d": 280.82198333334236,
      "v": 95
    },
    {
      "midi": 78,
      "hit": false,
      "t": 59058.23295833291,
      "d": 101.02742083333578,
      "v": 77
    },
    {
      "midi": 84,
      "hit": false,
      "t": 59071.931591666245,
      "d": 56.50686249999853,
      "v": 75
    },
    {
      "midi": 81,
      "hit": false,
      "t": 59071.931591666245,
      "d": 75.3424833333338,
      "v": 67
    },
    {
      "midi": 74,
      "hit": false,
      "t": 59071.931591666245,
      "d": 104.45207916667277,
      "v": 59
    },
    {
      "midi": 86,
      "hit": false,
      "t": 59172.10284791625,
      "d": 97.60276250000607,
      "v": 70
    },
    {
      "midi": 90,
      "hit": false,
      "t": 59314.226168749585,
      "d": 149.8288020833279,
      "v": 54
    },
    {
      "midi": 93,
      "hit": false,
      "t": 59434.08921041625,
      "d": 188.3562083333236,
      "v": 52
    },
    {
      "midi": 87,
      "hit": false,
      "t": 59578.78102499958,
      "d": 60.78768541666068,
      "v": 78
    },
    {
      "midi": 95,
      "hit": false,
      "t": 59582.20568333291,
      "d": 68.49316666665982,
      "v": 74
    },
    {
      "midi": 75,
      "hit": false,
      "t": 59583.91801249958,
      "d": 92.46577499999694,
      "v": 71
    },
    {
      "midi": 83,
      "hit": false,
      "t": 59600.18513958291,
      "d": 48.801381249999395,
      "v": 83
    },
    {
      "midi": 78,
      "hit": false,
      "t": 59600.18513958291,
      "d": 52.22603958332911,
      "v": 74
    },
    {
      "midi": 81,
      "hit": false,
      "t": 59600.18513958291,
      "d": 56.50686249999853,
      "v": 74
    },
    {
      "midi": 74,
      "hit": false,
      "t": 59844.192045832904,
      "d": 133.5616749999972,
      "v": 65
    },
    {
      "midi": 78,
      "hit": false,
      "t": 59851.04136249957,
      "d": 107.02057291666279,
      "v": 78
    },
    {
      "midi": 81,
      "hit": false,
      "t": 59857.034514582905,
      "d": 89.89728124999237,
      "v": 74
    },
    {
      "midi": 84,
      "hit": false,
      "t": 59858.74684374957,
      "d": 64.21234374999767,
      "v": 75
    },
    {
      "midi": 96,
      "hit": false,
      "t": 59867.3084895829,
      "d": 289.38362916666665,
      "v": 99
    },
    {
      "midi": 86,
      "hit": false,
      "t": 59988.88386041624,
      "d": 97.60276249999879,
      "v": 71
    },
    {
      "midi": 90,
      "hit": false,
      "t": 60128.43868749957,
      "d": 149.82880208333518,
      "v": 51
    },
    {
      "midi": 93,
      "hit": false,
      "t": 60250.87022291624,
      "d": 133.5616749999972,
      "v": 57
    },
    {
      "midi": 75,
      "hit": false,
      "t": 60385.28806249957,
      "d": 72.77398958332924,
      "v": 63
    },
    {
      "midi": 83,
      "hit": false,
      "t": 60389.568885416236,
      "d": 34.24658333333355,
      "v": 59
    },
    {
      "midi": 78,
      "hit": false,
      "t": 60395.56203749957,
      "d": 29.965760416664125,
      "v": 62
    },
    {
      "midi": 95,
      "hit": false,
      "t": 60396.4182020829,
      "d": 1361.301687500003,
      "v": 75
    },
    {
      "midi": 81,
      "hit": false,
      "t": 60410.97299999957,
      "d": 24.828772916662274,
      "v": 52
    },
    {
      "midi": 87,
      "hit": false,
      "t": 60410.97299999957,
      "d": 1313.356470833336,
      "v": 77
    },
    {
      "midi": 47,
      "hit": false,
      "t": 60686.6579958329,
      "d": 26.54110208333441,
      "v": 71
    },
    {
      "midi": 35,
      "hit": false,
      "t": 60688.37032499957,
      "d": 30.82192500000383,
      "v": 78
    },
    {
      "midi": 33,
      "hit": false,
      "t": 60806.52103749957,
      "d": 54.794533333333675,
      "v": 86
    },
    {
      "midi": 45,
      "hit": false,
      "t": 60812.51418958291,
      "d": 34.24658333333355,
      "v": 78
    },
    {
      "midi": 31,
      "hit": false,
      "t": 61244.87730416624,
      "d": 42.808229166665114,
      "v": 63
    },
    {
      "midi": 43,
      "hit": false,
      "t": 61253.438949999574,
      "d": 40.23973541666783,
      "v": 55
    },
    {
      "midi": 30,
      "hit": false,
      "t": 61657.54863333291,
      "d": 55.650697916666104,
      "v": 61
    },
    {
      "midi": 42,
      "hit": false,
      "t": 61660.11712708291,
      "d": 55.650697916666104,
      "v": 55
    },
    {
      "midi": 28,
      "hit": false,
      "t": 62095.90489999957,
      "d": 41.095900000000256,
      "v": 65
    },
    {
      "midi": 40,
      "hit": false,
      "t": 62107.03503958291,
      "d": 39.38357083332812,
      "v": 56
    },
    {
      "midi": 100,
      "hit": false,
      "t": 62378.43921249957,
      "d": 111.30139583333221,
      "v": 50
    },
    {
      "midi": 55,
      "hit": false,
      "t": 62481.17896249957,
      "d": 58.21919166666339,
      "v": 61
    },
    {
      "midi": 64,
      "hit": false,
      "t": 62486.315949999575,
      "d": 37.67124166666326,
      "v": 59
    },
    {
      "midi": 59,
      "hit": false,
      "t": 62495.73376041624,
      "d": 26.54110208333441,
      "v": 59
    },
    {
      "midi": 95,
      "hit": false,
      "t": 62495.73376041624,
      "d": 38.52740624999569,
      "v": 55
    },
    {
      "midi": 103,
      "hit": false,
      "t": 62496.58992499957,
      "d": 43.664393749997544,
      "v": 63
    },
    {
      "midi": 100,
      "hit": false,
      "t": 62765.42560416624,
      "d": 159.24661249999917,
      "v": 41
    },
    {
      "midi": 40,
      "hit": false,
      "t": 62887.857139582906,
      "d": 36.815077083330834,
      "v": 65
    },
    {
      "midi": 103,
      "hit": false,
      "t": 62915.25440624957,
      "d": 68.4931666666671,
      "v": 60
    },
    {
      "midi": 95,
      "hit": false,
      "t": 62924.67221666624,
      "d": 31.67808958333626,
      "v": 55
    },
    {
      "midi": 91,
      "hit": false,
      "t": 62924.67221666624,
      "d": 39.3835708333354,
      "v": 42
    },
    {
      "midi": 102,
      "hit": false,
      "t": 63307.37778541624,
      "d": 41.952064583332685,
      "v": 71
    },
    {
      "midi": 66,
      "hit": false,
      "t": 63315.08326666624,
      "d": 23.97260833333712,
      "v": 56
    },
    {
      "midi": 60,
      "hit": false,
      "t": 63315.08326666624,
      "d": 43.664393749997544,
      "v": 50
    },
    {
      "midi": 63,
      "hit": false,
      "t": 63319.36408958291,
      "d": 29.965760416664125,
      "v": 49
    },
    {
      "midi": 57,
      "hit": false,
      "t": 63321.07641874957,
      "d": 43.664393749997544,
      "v": 50
    },
    {
      "midi": 96,
      "hit": false,
      "t": 63327.06957083291,
      "d": 41.09589999999298,
      "v": 52
    },
    {
      "midi": 93,
      "hit": false,
      "t": 63334.77505208291,
      "d": 40.23973541666055,
      "v": 40
    },
    {
      "midi": 40,
      "hit": false,
      "t": 63723.47377291624,
      "d": 38.52740624999569,
      "v": 65
    },
    {
      "midi": 99,
      "hit": false,
      "t": 63732.8915833329,
      "d": 72.77398958333652,
      "v": 61
    },
    {
      "midi": 90,
      "hit": false,
      "t": 63739.74089999957,
      "d": 61.643850000000384,
      "v": 54
    },
    {
      "midi": 67,
      "hit": false,
      "t": 64133.57660833291,
      "d": 38.52740625000297,
      "v": 52
    },
    {
      "midi": 64,
      "hit": false,
      "t": 64142.13825416624,
      "d": 41.95206458333996,
      "v": 50
    },
    {
      "midi": 61,
      "hit": false,
      "t": 64146.41907708291,
      "d": 36.81507708333811,
      "v": 47
    },
    {
      "midi": 91,
      "hit": false,
      "t": 64151.55606458291,
      "d": 49.657545833331824,
      "v": 57
    },
    {
      "midi": 100,
      "hit": false,
      "t": 64157.549216666244,
      "d": 44.52055833332997,
      "v": 54
    },
    {
      "midi": 58,
      "hit": false,
      "t": 64166.110862499576,
      "d": 37.67124166666326,
      "v": 41
    },
    {
      "midi": 40,
      "hit": false,
      "t": 64559.090406249576,
      "d": 35.10274791667325,
      "v": 57
    },
    {
      "midi": 89,
      "hit": false,
      "t": 64577.06986249958,
      "d": 61.643850000000384,
      "v": 62
    },
    {
      "midi": 98,
      "hit": false,
      "t": 64583.06301458291,
      "d": 59.931520833335526,
      "v": 62
    },
    {
      "midi": 92,
      "hit": false,
      "t": 64851.04252916625,
      "d": 92.46577499999694,
      "v": 47
    },
    {
      "midi": 68,
      "hit": false,
      "t": 64952.92611458291,
      "d": 33.39041874999384,
      "v": 70
    },
    {
      "midi": 95,
      "hit": false,
      "t": 64962.34392499957,
      "d": 100.17125624999608,
      "v": 63
    },
    {
      "midi": 62,
      "hit": false,
      "t": 64969.19324166624,
      "d": 33.39041874999384,
      "v": 55
    },
    {
      "midi": 59,
      "hit": false,
      "t": 64976.89872291624,
      "d": 33.39041874999384,
      "v": 55
    },
    {
      "midi": 65,
      "hit": false,
      "t": 64982.89187499957,
      "d": 33.39041874999384,
      "v": 43
    },
    {
      "midi": 89,
      "hit": false,
      "t": 65213.200147916235,
      "d": 40.23973541666783,
      "v": 49
    },
    {
      "midi": 98,
      "hit": false,
      "t": 65224.33028749957,
      "d": 40.23973541666783,
      "v": 50
    },
    {
      "midi": 97,
      "hit": false,
      "t": 65336.487847916236,
      "d": 64.2123437499904,
      "v": 77
    },
    {
      "midi": 40,
      "hit": false,
      "t": 65339.912506249566,
      "d": 35.102747916665976,
      "v": 70
    },
    {
      "midi": 88,
      "hit": false,
      "t": 65344.193329166235,
      "d": 46.23288749999483,
      "v": 57
    },
    {
      "midi": 91,
      "hit": false,
      "t": 65637.85778124956,
      "d": 55.65069791667338,
      "v": 46
    },
    {
      "midi": 67,
      "hit": false,
      "t": 65757.72082291624,
      "d": 41.95206458333996,
      "v": 60
    },
    {
      "midi": 64,
      "hit": false,
      "t": 65761.14548124956,
      "d": 45.37672291668423,
      "v": 55
    },
    {
      "midi": 58,
      "hit": false,
      "t": 65762.0016458329,
      "d": 33.39041875000112,
      "v": 55
    },
    {
      "midi": 61,
      "hit": false,
      "t": 65764.57013958291,
      "d": 35.95891250000568,
      "v": 54
    },
    {
      "midi": 94,
      "hit": false,
      "t": 65775.70027916624,
      "d": 59.9315208333428,
      "v": 47
    },
    {
      "midi": 97,
      "hit": false,
      "t": 66018.85102083291,
      "d": 47.94521666665969,
      "v": 56
    },
    {
      "midi": 40,
      "hit": false,
      "t": 66153.26886041624,
      "d": 34.24658333332627,
      "v": 73
    },
    {
      "midi": 87,
      "hit": false,
      "t": 66168.67982291624,
      "d": 49.65754583332455,
      "v": 74
    },
    {
      "midi": 96,
      "hit": false,
      "t": 66176.38530416624,
      "d": 65.92467291666253,
      "v": 75
    },
    {
      "midi": 90,
      "hit": false,
      "t": 66444.36481874956,
      "d": 139.5548270833242,
      "v": 42
    },
    {
      "midi": 66,
      "hit": false,
      "t": 66559.09087291622,
      "d": 29.109595833331696,
      "v": 63
    },
    {
      "midi": 57,
      "hit": false,
      "t": 66559.09087291622,
      "d": 33.39041875000112,
      "v": 55
    },
    {
      "midi": 60,
      "hit": false,
      "t": 66560.80320208288,
      "d": 37.67124166667054,
      "v": 62
    },
    {
      "midi": 63,
      "hit": false,
      "t": 66572.78950624955,
      "d": 21.404114583332557,
      "v": 60
    },
    {
      "midi": 93,
      "hit": false,
      "t": 66572.78950624955,
      "d": 155.82195416666218,
      "v": 59
    },
    {
      "midi": 96,
      "hit": false,
      "t": 66825.35805833289,
      "d": 65.92467291666253,
      "v": 75
    },
    {
      "midi": 40,
      "hit": false,
      "t": 66959.77589791622,
      "d": 41.95206458332541,
      "v": 67
    },
    {
      "midi": 88,
      "hit": false,
      "t": 66967.48137916622,
      "d": 87.32878749999509,
      "v": 62
    },
    {
      "midi": 95,
      "hit": false,
      "t": 66981.18001249955,
      "d": 95.03426874999423,
      "v": 66
    },
    {
      "midi": 100,
      "hit": false,
      "t": 67222.61842499954,
      "d": 105.30824374999793,
      "v": 52
    },
    {
      "midi": 60,
      "hit": false,
      "t": 67357.03626458287,
      "d": 64.21234374999767,
      "v": 51
    },
    {
      "midi": 52,
      "hit": false,
      "t": 67365.59791041621,
      "d": 72.77398958332196,
      "v": 57
    },
    {
      "midi": 45,
      "hit": false,
      "t": 67367.31023958288,
      "d": 72.77398958332196,
      "v": 57
    },
    {
      "midi": 96,
      "hit": false,
      "t": 67372.44722708287,
      "d": 88.18495208332024,
      "v": 74
    },
    {
      "midi": 88,
      "hit": false,
      "t": 67393.8513416662,
      "d": 38.52740624999569,
      "v": 47
    },
    {
      "midi": 95,
      "hit": false,
      "t": 67611.31714583286,
      "d": 187.50004374999844,
      "v": 61
    },
    {
      "midi": 88,
      "hit": false,
      "t": 67614.74180416619,
      "d": 213.18498125000042,
      "v": 23
    },
    {
      "midi": 52,
      "hit": false,
      "t": 67779.98156874951,
      "d": 54.794533333333675,
      "v": 65
    },
    {
      "midi": 59,
      "hit": false,
      "t": 67790.25554374952,
      "d": 33.39041875000112,
      "v": 57
    },
    {
      "midi": 43,
      "hit": false,
      "t": 67790.25554374952,
      "d": 59.0753562500031,
      "v": 57
    },
    {
      "midi": 52,
      "hit": false,
      "t": 68247.44743124951,
      "d": 81.33563541667536,
      "v": 66
    },
    {
      "midi": 50,
      "hit": false,
      "t": 68334.77621874952,
      "d": 100.17125625000335,
      "v": 51
    },
    {
      "midi": 48,
      "hit": false,
      "t": 68410.97486666619,
      "d": 97.60276249999879,
      "v": 61
    },
    {
      "midi": 47,
      "hit": false,
      "t": 68512.00228749952,
      "d": 32.53425416666141,
      "v": 55
    },
    {
      "midi": 34,
      "hit": false,
      "t": 68631.86532916618,
      "d": 50.5137104166497,
      "v": 79
    },
    {
      "midi": 46,
      "hit": false,
      "t": 68642.9954687495,
      "d": 44.52055833331542,
      "v": 86
    },
    {
      "midi": 88,
      "hit": false,
      "t": 68949.50238958283,
      "d": 53.93836874999397,
      "v": 45
    },
    {
      "midi": 85,
      "hit": false,
      "t": 69047.96131666616,
      "d": 47.94521666667424,
      "v": 67
    },
    {
      "midi": 91,
      "hit": false,
      "t": 69051.38597499949,
      "d": 53.93836875000852,
      "v": 70
    },
    {
      "midi": 64,
      "hit": false,
      "t": 69061.65994999949,
      "d": 28.253431250006543,
      "v": 73
    },
    {
      "midi": 61,
      "hit": false,
      "t": 69062.51611458283,
      "d": 34.24658333334082,
      "v": 59
    },
    {
      "midi": 58,
      "hit": false,
      "t": 69069.36543124949,
      "d": 29.109595833346248,
      "v": 63
    },
    {
      "midi": 55,
      "hit": false,
      "t": 69071.9339249995,
      "d": 42.808229166665114,
      "v": 62
    },
    {
      "midi": 88,
      "hit": false,
      "t": 69346.76275624949,
      "d": 152.39729583334702,
      "v": 35
    },
    {
      "midi": 91,
      "hit": false,
      "t": 69443.50935416616,
      "d": 46.23288749999483,
      "v": 59
    },
    {
      "midi": 85,
      "hit": false,
      "t": 69446.93401249949,
      "d": 32.53425416666141,
      "v": 55
    },
    {
      "midi": 79,
      "hit": false,
      "t": 69460.63264583283,
      "d": 36.815077083330834,
      "v": 41
    },
    {
      "midi": 33,
      "hit": false,
      "t": 69462.34497499949,
      "d": 35.95891250000568,
      "v": 52
    },
    {
      "midi": 45,
      "hit": false,
      "t": 69462.34497499949,
      "d": 35.95891250000568,
      "v": 52
    },
    {
      "midi": 64,
      "hit": false,
      "t": 69859.60534166617,
      "d": 35.102747916665976,
      "v": 63
    },
    {
      "midi": 78,
      "hit": false,
      "t": 69861.31767083284,
      "d": 29.109595833331696,
      "v": 60
    },
    {
      "midi": 84,
      "hit": false,
      "t": 69877.58479791618,
      "d": 23.116443749997416,
      "v": 56
    },
    {
      "midi": 60,
      "hit": false,
      "t": 69877.58479791618,
      "d": 26.541102083327132,
      "v": 60
    },
    {
      "midi": 57,
      "hit": false,
      "t": 69877.58479791618,
      "d": 40.23973541666055,
      "v": 67
    },
    {
      "midi": 90,
      "hit": false,
      "t": 69877.58479791618,
      "d": 47.94521666665969,
      "v": 67
    },
    {
      "midi": 31,
      "hit": false,
      "t": 70270.56434166618,
      "d": 33.39041875000112,
      "v": 71
    },
    {
      "midi": 43,
      "hit": false,
      "t": 70270.56434166618,
      "d": 33.39041875000112,
      "v": 71
    },
    {
      "midi": 84,
      "hit": false,
      "t": 70286.83146874951,
      "d": 56.50686249999853,
      "v": 55
    },
    {
      "midi": 96,
      "hit": false,
      "t": 70288.54379791618,
      "d": 45.37672291666968,
      "v": 65
    },
    {
      "midi": 88,
      "hit": false,
      "t": 70297.96160833284,
      "d": 49.6575458333391,
      "v": 57
    },
    {
      "midi": 64,
      "hit": false,
      "t": 70698.64663333284,
      "d": 37.67124166665599,
      "v": 66
    },
    {
      "midi": 95,
      "hit": false,
      "t": 70702.92745624951,
      "d": 59.9315208333137,
      "v": 71
    },
    {
      "midi": 55,
      "hit": false,
      "t": 70702.92745624951,
      "d": 71.91782499998226,
      "v": 62
    },
    {
      "midi": 88,
      "hit": false,
      "t": 70709.77677291617,
      "d": 28.25343124999199,
      "v": 60
    },
    {
      "midi": 59,
      "hit": false,
      "t": 70709.77677291617,
      "d": 29.96576041665685,
      "v": 67
    },
    {
      "midi": 30,
      "hit": false,
      "t": 71112.17412708282,
      "d": 45.37672291666968,
      "v": 79
    },
    {
      "midi": 42,
      "hit": false,
      "t": 71112.17412708282,
      "d": 45.37672291666968,
      "v": 79
    },
    {
      "midi": 103,
      "hit": false,
      "t": 71131.86591249949,
      "d": 63.35617916667252,
      "v": 78
    },
    {
      "midi": 91,
      "hit": false,
      "t": 71135.29057083282,
      "d": 47.94521666667424,
      "v": 73
    },
    {
      "midi": 94,
      "hit": false,
      "t": 71396.42076874949,
      "d": 67.63700208332739,
      "v": 47
    },
    {
      "midi": 58,
      "hit": false,
      "t": 71526.55778541615,
      "d": 44.52055833332997,
      "v": 67
    },
    {
      "midi": 64,
      "hit": false,
      "t": 71532.55093749949,
      "d": 28.25343124999199,
      "v": 63
    },
    {
      "midi": 54,
      "hit": false,
      "t": 71532.55093749949,
      "d": 57.363027083323686,
      "v": 67
    },
    {
      "midi": 61,
      "hit": false,
      "t": 71543.68107708282,
      "d": 25.68493750000198,
      "v": 54
    },
    {
      "midi": 97,
      "hit": false,
      "t": 71543.68107708282,
      "d": 84.76029374999052,
      "v": 61
    },
    {
      "midi": 103,
      "hit": false,
      "t": 71768.85236249947,
      "d": 38.52740624999569,
      "v": 63
    },
    {
      "midi": 90,
      "hit": false,
      "t": 71924.67431666613,
      "d": 61.64385000002221,
      "v": 74
    },
    {
      "midi": 42,
      "hit": false,
      "t": 71927.24281041614,
      "d": 50.513710416678805,
      "v": 67
    },
    {
      "midi": 30,
      "hit": false,
      "t": 71930.66746874947,
      "d": 38.527406250010245,
      "v": 79
    },
    {
      "midi": 102,
      "hit": false,
      "t": 71939.2291145828,
      "d": 76.19864791668078,
      "v": 89
    },
    {
      "midi": 95,
      "hit": false,
      "t": 72223.47575624948,
      "d": 81.3356354166608,
      "v": 45
    },
    {
      "midi": 54,
      "hit": false,
      "t": 72349.33194999947,
      "d": 71.06166041667166,
      "v": 70
    },
    {
      "midi": 62,
      "hit": false,
      "t": 72351.90044374947,
      "d": 35.95891249999113,
      "v": 63
    },
    {
      "midi": 59,
      "hit": false,
      "t": 72358.74976041613,
      "d": 35.102747916665976,
      "v": 56
    },
    {
      "midi": 98,
      "hit": false,
      "t": 72358.74976041613,
      "d": 129.28085208333505,
      "v": 61
    },
    {
      "midi": 56,
      "hit": false,
      "t": 72368.1675708328,
      "d": 28.253431250006543,
      "v": 56
    },
    {
      "midi": 102,
      "hit": false,
      "t": 72606.18132499947,
      "d": 49.6575458333391,
      "v": 62
    },
    {
      "midi": 30,
      "hit": false,
      "t": 72748.30464583282,
      "d": 41.095899999985704,
      "v": 75
    },
    {
      "midi": 42,
      "hit": false,
      "t": 72753.44163333281,
      "d": 42.80822916665056,
      "v": 69
    },
    {
      "midi": 91,
      "hit": false,
      "t": 72762.85944374948,
      "d": 59.9315208333137,
      "v": 75
    },
    {
      "midi": 100,
      "hit": false,
      "t": 72762.85944374948,
      "d": 62.50001458331826,
      "v": 86
    },
    {
      "midi": 94,
      "hit": false,
      "t": 73032.55128749946,
      "d": 51.36987500000396,
      "v": 46
    },
    {
      "midi": 58,
      "hit": false,
      "t": 73152.41432916613,
      "d": 47.08905208334909,
      "v": 62
    },
    {
      "midi": 64,
      "hit": false,
      "t": 73158.40748124947,
      "d": 40.2397354166751,
      "v": 61
    },
    {
      "midi": 61,
      "hit": false,
      "t": 73168.68145624947,
      "d": 34.24658333334082,
      "v": 56
    },
    {
      "midi": 55,
      "hit": false,
      "t": 73168.68145624947,
      "d": 53.08220416666882,
      "v": 61
    },
    {
      "midi": 97,
      "hit": false,
      "t": 73172.96227916614,
      "d": 94.17810416666907,
      "v": 67
    },
    {
      "midi": 100,
      "hit": false,
      "t": 73422.96233749947,
      "d": 72.77398958333652,
      "v": 62
    },
    {
      "midi": 90,
      "hit": false,
      "t": 73565.08565833281,
      "d": 57.36302708333824,
      "v": 67
    },
    {
      "midi": 99,
      "hit": false,
      "t": 73569.36648124948,
      "d": 90.75344583333936,
      "v": 69
    },
    {
      "midi": 93,
      "hit": false,
      "t": 73572.79113958281,
      "d": 57.36302708333824,
      "v": 67
    },
    {
      "midi": 47,
      "hit": false,
      "t": 73573.64730416615,
      "d": 38.52740624999569,
      "v": 73
    },
    {
      "midi": 59,
      "hit": false,
      "t": 73580.49662083281,
      "d": 35.95891250000568,
      "v": 69
    },
    {
      "midi": 102,
      "hit": false,
      "t": 73807.38023541616,
      "d": 95.89043333333393,
      "v": 51
    },
    {
      "midi": 100,
      "hit": false,
      "t": 73962.3460249995,
      "d": 56.50686249999853,
      "v": 63
    },
    {
      "midi": 60,
      "hit": false,
      "t": 73982.03781041616,
      "d": 42.808229166665114,
      "v": 61
    },
    {
      "midi": 48,
      "hit": false,
      "t": 73982.03781041616,
      "d": 50.51371041666425,
      "v": 65
    },
    {
      "midi": 91,
      "hit": false,
      "t": 73989.74329166616,
      "d": 31.67808958333626,
      "v": 38
    },
    {
      "midi": 94,
      "hit": false,
      "t": 73989.74329166616,
      "d": 31.67808958333626,
      "v": 38
    },
    {
      "midi": 99,
      "hit": false,
      "t": 74197.79128541616,
      "d": 154.96578958333703,
      "v": 66
    },
    {
      "midi": 90,
      "hit": false,
      "t": 74206.3529312495,
      "d": 175.51373958332988,
      "v": 51
    },
    {
      "midi": 93,
      "hit": false,
      "t": 74214.0584124995,
      "d": 175.51373958332988,
      "v": 51
    },
    {
      "midi": 47,
      "hit": false,
      "t": 74375.87351874949,
      "d": 83.90412916666537,
      "v": 62
    },
    {
      "midi": 59,
      "hit": false,
      "t": 74392.99681041615,
      "d": 63.35617916667252,
      "v": 71
    },
    {
      "midi": 54,
      "hit": false,
      "t": 74569.36671458282,
      "d": 27.397266666666837,
      "v": 70
    },
    {
      "midi": 59,
      "hit": false,
      "t": 74817.65444374949,
      "d": 84.76029375000508,
      "v": 63
    },
    {
      "midi": 57,
      "hit": false,
      "t": 74892.99692708283,
      "d": 138.69866249999905,
      "v": 59
    },
    {
      "midi": 55,
      "hit": false,
      "t": 75009.43531041616,
      "d": 124.14386458334047,
      "v": 50
    },
    {
      "midi": 54,
      "hit": false,
      "t": 75111.31889583282,
      "d": 80.47947083333565,
      "v": 67
    },
    {
      "midi": 40,
      "hit": false,
      "t": 75227.75727916617,
      "d": 57.363027083323686,
      "v": 77
    },
    {
      "midi": 52,
      "hit": false,
      "t": 75231.1819374995,
      "d": 64.21234374999767,
      "v": 89
    },
    {
      "midi": 47,
      "hit": false,
      "t": 75235.46276041617,
      "d": 30.821924999996554,
      "v": 86
    },
    {
      "midi": 88,
      "hit": false,
      "t": 75520.56556666616,
      "d": 145.54797916665848,
      "v": 52
    },
    {
      "midi": 59,
      "hit": false,
      "t": 75637.86011458283,
      "d": 30.821924999996554,
      "v": 78
    },
    {
      "midi": 64,
      "hit": false,
      "t": 75647.2779249995,
      "d": 26.541102083327132,
      "v": 67
    },
    {
      "midi": 83,
      "hit": false,
      "t": 75647.2779249995,
      "d": 32.53425416666141,
      "v": 74
    },
    {
      "midi": 91,
      "hit": false,
      "t": 75647.2779249995,
      "d": 63.35617916665797,
      "v": 83
    },
    {
      "midi": 55,
      "hit": false,
      "t": 75648.99025416616,
      "d": 41.95206458332541,
      "v": 66
    },
    {
      "midi": 79,
      "hit": false,
      "t": 75658.40806458282,
      "d": 30.821924999996554,
      "v": 66
    },
    {
      "midi": 88,
      "hit": false,
      "t": 75940.08621249949,
      "d": 152.3972958333179,
      "v": 47
    },
    {
      "midi": 40,
      "hit": false,
      "t": 76042.82596249948,
      "d": 64.21234374998312,
      "v": 78
    },
    {
      "midi": 52,
      "hit": false,
      "t": 76049.67527916614,
      "d": 54.79453333331912,
      "v": 74
    },
    {
      "midi": 91,
      "hit": false,
      "t": 76051.3876083328,
      "d": 86.47262291665538,
      "v": 77
    },
    {
      "midi": 79,
      "hit": false,
      "t": 76057.38076041614,
      "d": 48.80138124998484,
      "v": 57
    },
    {
      "midi": 83,
      "hit": false,
      "t": 76062.51774791614,
      "d": 36.815077083330834,
      "v": 63
    },
    {
      "midi": 57,
      "hit": false,
      "t": 76461.49044374946,
      "d": 71.91782500001136,
      "v": 59
    },
    {
      "midi": 60,
      "hit": false,
      "t": 76463.20277291612,
      "d": 44.520558333344525,
      "v": 61
    },
    {
      "midi": 90,
      "hit": false,
      "t": 76463.20277291612,
      "d": 64.21234375001222,
      "v": 75
    },
    {
      "midi": 66,
      "hit": false,
      "t": 76479.46989999946,
      "d": 17.123291666663135,
      "v": 60
    },
    {
      "midi": 63,
      "hit": false,
      "t": 76479.46989999946,
      "d": 27.397266666666837,
      "v": 60
    },
    {
      "midi": 81,
      "hit": false,
      "t": 76479.46989999946,
      "d": 46.23288750000938,
      "v": 65
    },
    {
      "midi": 84,
      "hit": false,
      "t": 76479.46989999946,
      "d": 59.0753562500031,
      "v": 74
    },
    {
      "midi": 87,
      "hit": false,
      "t": 76877.58643124947,
      "d": 94.17810416665452,
      "v": 67
    },
    {
      "midi": 78,
      "hit": false,
      "t": 76882.72341874946,
      "d": 47.089052083334536,
      "v": 70
    },
    {
      "midi": 52,
      "hit": false,
      "t": 76892.14122916613,
      "d": 60.787685416667955,
      "v": 75
    },
    {
      "midi": 40,
      "hit": false,
      "t": 76892.14122916613,
      "d": 66.78083750000224,
      "v": 78
    },
    {
      "midi": 40,
      "hit": false,
      "t": 77293.68241874945,
      "d": 64.21234375001222,
      "v": 78
    },
    {
      "midi": 79,
      "hit": false,
      "t": 77299.67557083278,
      "d": 73.63015416667622,
      "v": 83
    },
    {
      "midi": 88,
      "hit": false,
      "t": 77301.38789999945,
      "d": 66.78083750001679,
      "v": 77
    },
    {
      "midi": 52,
      "hit": false,
      "t": 77305.66872291612,
      "d": 54.79453333334823,
      "v": 77
    },
    {
      "midi": 77,
      "hit": false,
      "t": 77730.32635624947,
      "d": 65.92467291667708,
      "v": 83
    },
    {
      "midi": 86,
      "hit": false,
      "t": 77734.60717916614,
      "d": 75.34248333334108,
      "v": 77
    },
    {
      "midi": 68,
      "hit": false,
      "t": 77735.46334374948,
      "d": 62.50001458333281,
      "v": 78
    },
    {
      "midi": 59,
      "hit": false,
      "t": 77752.58663541614,
      "d": 54.794533333333675,
      "v": 45
    },
    {
      "midi": 62,
      "hit": false,
      "t": 77752.58663541614,
      "d": 65.06850833333738,
      "v": 57
    },
    {
      "midi": 65,
      "hit": false,
      "t": 77752.58663541614,
      "d": 65.06850833333738,
      "v": 69
    },
    {
      "midi": 80,
      "hit": false,
      "t": 77980.32641458281,
      "d": 88.18495208333479,
      "v": 49
    },
    {
      "midi": 83,
      "hit": false,
      "t": 78113.88808958282,
      "d": 156.6781187500019,
      "v": 74
    },
    {
      "midi": 40,
      "hit": false,
      "t": 78121.59357083282,
      "d": 53.08220416666882,
      "v": 83
    },
    {
      "midi": 52,
      "hit": false,
      "t": 78121.59357083282,
      "d": 53.08220416666882,
      "v": 73
    },
    {
      "midi": 86,
      "hit": false,
      "t": 78361.31965416616,
      "d": 61.64384999999311,
      "v": 59
    },
    {
      "midi": 40,
      "hit": false,
      "t": 78509.43612708282,
      "d": 63.35617916667252,
      "v": 78
    },
    {
      "midi": 52,
      "hit": false,
      "t": 78520.56626666615,
      "d": 47.94521666667424,
      "v": 75
    },
    {
      "midi": 76,
      "hit": false,
      "t": 78524.84708958282,
      "d": 72.77398958333652,
      "v": 77
    },
    {
      "midi": 85,
      "hit": false,
      "t": 78524.84708958282,
      "d": 91.60961041666451,
      "v": 95
    },
    {
      "midi": 79,
      "hit": false,
      "t": 78768.85399583282,
      "d": 66.78083750000224,
      "v": 46
    },
    {
      "midi": 67,
      "hit": false,
      "t": 78908.40882291616,
      "d": 48.80138124998484,
      "v": 89
    },
    {
      "midi": 64,
      "hit": false,
      "t": 78919.53896249949,
      "d": 52.22603958331456,
      "v": 77
    },
    {
      "midi": 82,
      "hit": false,
      "t": 78922.96362083282,
      "d": 134.41783958331507,
      "v": 77
    },
    {
      "midi": 61,
      "hit": false,
      "t": 78930.66910208281,
      "d": 34.24658333332627,
      "v": 73
    },
    {
      "midi": 58,
      "hit": false,
      "t": 78942.65540624948,
      "d": 34.24658333331172,
      "v": 73
    },
    {
      "midi": 85,
      "hit": false,
      "t": 79152.41572916612,
      "d": 65.92467291666253,
      "v": 54
    },
    {
      "midi": 40,
      "hit": false,
      "t": 79292.82672083279,
      "d": 45.376722916655126,
      "v": 75
    },
    {
      "midi": 52,
      "hit": false,
      "t": 79292.82672083279,
      "d": 45.376722916655126,
      "v": 75
    },
    {
      "midi": 84,
      "hit": false,
      "t": 79305.66918958278,
      "d": 102.73974999999336,
      "v": 83
    },
    {
      "midi": 75,
      "hit": false,
      "t": 79319.36782291612,
      "d": 51.369874999989406,
      "v": 77
    },
    {
      "midi": 78,
      "hit": false,
      "t": 79594.19665416611,
      "d": 134.41783958332962,
      "v": 47
    },
    {
      "midi": 66,
      "hit": false,
      "t": 79736.31997499944,
      "d": 32.534254166675964,
      "v": 73
    },
    {
      "midi": 81,
      "hit": false,
      "t": 79738.88846874944,
      "d": 212.32881666667527,
      "v": 77
    },
    {
      "midi": 57,
      "hit": false,
      "t": 79745.7377854161,
      "d": 35.95891250002023,
      "v": 77
    },
    {
      "midi": 63,
      "hit": false,
      "t": 79750.01860833277,
      "d": 21.40411458334711,
      "v": 71
    },
    {
      "midi": 60,
      "hit": false,
      "t": 79750.01860833277,
      "d": 35.95891250002023,
      "v": 77
    },
    {
      "midi": 84,
      "hit": false,
      "t": 79964.91591874945,
      "d": 47.94521666665969,
      "v": 57
    },
    {
      "midi": 40,
      "hit": false,
      "t": 80125.01869583278,
      "d": 62.50001458331826,
      "v": 75
    },
    {
      "midi": 52,
      "hit": false,
      "t": 80128.44335416611,
      "d": 52.22603958332911,
      "v": 71
    },
    {
      "midi": 83,
      "hit": false,
      "t": 80128.44335416611,
      "d": 85.61645833331568,
      "v": 79
    },
    {
      "midi": 76,
      "hit": false,
      "t": 80137.86116458278,
      "d": 62.50001458331826,
      "v": 78
    },
    {
      "midi": 88,
      "hit": false,
      "t": 80361.32012083277,
      "d": 59.93152083332825,
      "v": 59
    },
    {
      "midi": 60,
      "hit": false,
      "t": 80514.57358124942,
      "d": 55.65069791667338,
      "v": 57
    },
    {
      "midi": 45,
      "hit": false,
      "t": 80516.28591041609,
      "d": 65.06850833333738,
      "v": 60
    },
    {
      "midi": 52,
      "hit": false,
      "t": 80519.71056874942,
      "d": 65.06850833333738,
      "v": 60
    },
    {
      "midi": 84,
      "hit": false,
      "t": 80528.27221458276,
      "d": 59.93152083332825,
      "v": 60
    },
    {
      "midi": 83,
      "hit": false,
      "t": 80726.04623333276,
      "d": 226.8836145833193,
      "v": 62
    },
    {
      "midi": 76,
      "hit": false,
      "t": 80735.46404374942,
      "d": 249.143893749977,
      "v": 45
    },
    {
      "midi": 59,
      "hit": false,
      "t": 80926.38874583275,
      "d": 83.04796458331111,
      "v": 47
    },
    {
      "midi": 43,
      "hit": false,
      "t": 80935.80655624942,
      "d": 120.71920624998165,
      "v": 22
    },
    {
      "midi": 52,
      "hit": false,
      "t": 80942.65587291608,
      "d": 108.73290208332764,
      "v": 60
    },
    {
      "midi": 67,
      "hit": false,
      "t": 81380.15597499939,
      "d": 58.21919166666339,
      "v": 43
    },
    {
      "midi": 66,
      "hit": false,
      "t": 81447.79297708272,
      "d": 119.00687708333135,
      "v": 60
    },
    {
      "midi": 64,
      "hit": false,
      "t": 81571.93684166604,
      "d": 84.76029375000508,
      "v": 52
    },
    {
      "midi": 62,
      "hit": false,
      "t": 81640.43000833271,
      "d": 57.36302708333824,
      "v": 57
    },
    {
      "midi": 61,
      "hit": false,
      "t": 81787.69031666605,
      "d": 61.64385000002221,
      "v": 74
    },
    {
      "midi": 42,
      "hit": false,
      "t": 81796.25196249939,
      "d": 34.24658333334082,
      "v": 69
    },
    {
      "midi": 58,
      "hit": false,
      "t": 81808.23826666606,
      "d": 26.541102083341684,
      "v": 46
    },
    {
      "midi": 52,
      "hit": false,
      "t": 81812.51908958273,
      "d": 35.95891250000568,
      "v": 61
    },
    {
      "midi": 73,
      "hit": false,
      "t": 82082.21093333274,
      "d": 57.36302708333824,
      "v": 41
    },
    {
      "midi": 70,
      "hit": false,
      "t": 82208.92329166607,
      "d": 41.095900000000256,
      "v": 43
    },
    {
      "midi": 61,
      "hit": false,
      "t": 82218.34110208273,
      "d": 43.66439375000482,
      "v": 54
    },
    {
      "midi": 66,
      "hit": false,
      "t": 82218.34110208273,
      "d": 51.36987500000396,
      "v": 45
    },
    {
      "midi": 76,
      "hit": false,
      "t": 82218.34110208273,
      "d": 65.92467291667708,
      "v": 57
    },
    {
      "midi": 54,
      "hit": false,
      "t": 82218.34110208273,
      "d": 696.0618062499998,
      "v": 61
    },
    {
      "midi": 73,
      "hit": false,
      "t": 82471.76581874941,
      "d": 136.9863333333342,
      "v": 47
    },
    {
      "midi": 76,
      "hit": false,
      "t": 82604.47132916607,
      "d": 109.58906666666735,
      "v": 41
    },
    {
      "midi": 61,
      "hit": false,
      "t": 82611.32064583275,
      "d": 50.51371041666425,
      "v": 59
    },
    {
      "midi": 70,
      "hit": false,
      "t": 82624.16311458274,
      "d": 47.089052083334536,
      "v": 54
    },
    {
      "midi": 75,
      "hit": false,
      "t": 82850.19056458274,
      "d": 63.35617916665797,
      "v": 59
    },
    {
      "midi": 69,
      "hit": false,
      "t": 82881.01248958273,
      "d": 42.808229166665114,
      "v": 43
    },
    {
      "midi": 59,
      "hit": false,
      "t": 82884.43714791606,
      "d": 40.2397354166751,
      "v": 61
    },
    {
      "midi": 66,
      "hit": false,
      "t": 82899.84811041606,
      "d": 26.541102083341684,
      "v": 29
    },
    {
      "midi": 64,
      "hit": false,
      "t": 83207.21119583274,
      "d": 104.45207916667277,
      "v": 46
    },
    {
      "midi": 63,
      "hit": false,
      "t": 83297.10847708274,
      "d": 107.87673750000249,
      "v": 55
    },
    {
      "midi": 61,
      "hit": false,
      "t": 83410.97836666608,
      "d": 35.95891250000568,
      "v": 62
    },
    {
      "midi": 59,
      "hit": false,
      "t": 83438.37563333275,
      "d": 78.76714166665624,
      "v": 75
    },
    {
      "midi": 56,
      "hit": false,
      "t": 83478.61536874942,
      "d": 24.828772916662274,
      "v": 45
    },
    {
      "midi": 47,
      "hit": false,
      "t": 83480.32769791609,
      "d": 29.96576041665685,
      "v": 79
    },
    {
      "midi": 40,
      "hit": false,
      "t": 83483.75235624942,
      "d": 31.678089583321707,
      "v": 71
    },
    {
      "midi": 52,
      "hit": false,
      "t": 83483.75235624942,
      "d": 34.24658333332627,
      "v": 75
    },
    {
      "midi": 71,
      "hit": false,
      "t": 83762.86201041608,
      "d": 105.30824374999793,
      "v": 50
    },
    {
      "midi": 68,
      "hit": false,
      "t": 83871.59491249941,
      "d": 43.66439374999027,
      "v": 51
    },
    {
      "midi": 64,
      "hit": false,
      "t": 83875.01957083274,
      "d": 51.369874999989406,
      "v": 55
    },
    {
      "midi": 52,
      "hit": false,
      "t": 83878.44422916607,
      "d": 750.0001749999938,
      "v": 59
    },
    {
      "midi": 59,
      "hit": false,
      "t": 83882.72505208274,
      "d": 47.089052083319984,
      "v": 65
    },
    {
      "midi": 74,
      "hit": false,
      "t": 83884.4373812494,
      "d": 73.63015416666167,
      "v": 55
    },
    {
      "midi": 71,
      "hit": false,
      "t": 84172.1086812494,
      "d": 183.21922083332902,
      "v": 47
    },
    {
      "midi": 74,
      "hit": false,
      "t": 84270.56760833274,
      "d": 78.76714166665624,
      "v": 28
    },
    {
      "midi": 68,
      "hit": false,
      "t": 84292.82788749941,
      "d": 48.80138124998484,
      "v": 47
    },
    {
      "midi": 59,
      "hit": false,
      "t": 84297.96487499941,
      "d": 40.23973541666055,
      "v": 63
    },
    {
      "midi": 69,
      "hit": false,
      "t": 84524.84848958273,
      "d": 50.51371041666425,
      "v": 55
    },
    {
      "midi": 73,
      "hit": false,
      "t": 84528.27314791606,
      "d": 52.22603958334366,
      "v": 56
    },
    {
      "midi": 64,
      "hit": false,
      "t": 84543.68411041606,
      "d": 55.65069791667338,
      "v": 49
    },
    {
      "midi": 57,
      "hit": false,
      "t": 84576.21836458273,
      "d": 38.52740624999569,
      "v": 60
    },
    {
      "midi": 62,
      "hit": false,
      "t": 84942.65680624939,
      "d": 29.9657604166714,
      "v": 56
    },
    {
      "midi": 61,
      "hit": false,
      "t": 84994.88284583273,
      "d": 51.36987500000396,
      "v": 46
    },
    {
      "midi": 59,
      "hit": false,
      "t": 85058.2390249994,
      "d": 51.36987500000396,
      "v": 60
    },
    {
      "midi": 57,
      "hit": false,
      "t": 85082.21163333274,
      "d": 78.76714166665624,
      "v": 66
    },
    {
      "midi": 54,
      "hit": false,
      "t": 85108.75273541607,
      "d": 32.53425416666141,
      "v": 61
    },
    {
      "midi": 45,
      "hit": false,
      "t": 85128.44452083274,
      "d": 29.96576041665685,
      "v": 77
    },
    {
      "midi": 38,
      "hit": false,
      "t": 85132.72534374941,
      "d": 31.678089583321707,
      "v": 67
    },
    {
      "midi": 50,
      "hit": false,
      "t": 85132.72534374941,
      "d": 35.102747916651424,
      "v": 73
    },
    {
      "midi": 69,
      "hit": false,
      "t": 85400.70485833273,
      "d": 115.58221875000163,
      "v": 52
    },
    {
      "midi": 57,
      "hit": false,
      "t": 85529.98571041606,
      "d": 68.49316666665254,
      "v": 56
    },
    {
      "midi": 66,
      "hit": false,
      "t": 85533.41036874939,
      "d": 42.808229166665114,
      "v": 43
    },
    {
      "midi": 62,
      "hit": false,
      "t": 85546.25283749939,
      "d": 47.089052083334536,
      "v": 52
    },
    {
      "midi": 72,
      "hit": false,
      "t": 85546.25283749939,
      "d": 63.35617916665797,
      "v": 61
    },
    {
      "midi": 50,
      "hit": false,
      "t": 85546.25283749939,
      "d": 586.4727395833179,
      "v": 54
    },
    {
      "midi": 69,
      "hit": false,
      "t": 85807.38303541605,
      "d": 169.5205874999956,
      "v": 49
    },
    {
      "midi": 72,
      "hit": false,
      "t": 85922.96525416605,
      "d": 77.05481249999139,
      "v": 57
    },
    {
      "midi": 66,
      "hit": false,
      "t": 85941.80087499938,
      "d": 42.808229166665114,
      "v": 54
    },
    {
      "midi": 57,
      "hit": false,
      "t": 85946.93786249937,
      "d": 49.6575458333391,
      "v": 62
    },
    {
      "midi": 62,
      "hit": false,
      "t": 85952.9310145827,
      "d": 48.801381249999395,
      "v": 44
    },
    {
      "midi": 71,
      "hit": false,
      "t": 86196.9379208327,
      "d": 502.56861041666707,
      "v": 47
    },
    {
      "midi": 67,
      "hit": false,
      "t": 86199.5064145827,
      "d": 482.87682499999937,
      "v": 45
    },
    {
      "midi": 62,
      "hit": false,
      "t": 86205.49956666604,
      "d": 434.07544375,
      "v": 37
    },
    {
      "midi": 55,
      "hit": false,
      "t": 86211.49271874937,
      "d": 54.794533333333675,
      "v": 57
    },
    {
      "midi": 57,
      "hit": false,
      "t": 86316.80096249937,
      "d": 83.04796458334022,
      "v": 62
    },
    {
      "midi": 58,
      "hit": false,
      "t": 86619.88322499937,
      "d": 125.85619374999078,
      "v": 61
    },
    {
      "midi": 59,
      "hit": false,
      "t": 86734.60927916603,
      "d": 61.64384999999311,
      "v": 70
    },
    {
      "midi": 42,
      "hit": false,
      "t": 87002.58879374935,
      "d": 96.74659791667364,
      "v": 63
    },
    {
      "midi": 71,
      "hit": false,
      "t": 87012.00660416602,
      "d": 156.67811875001644,
      "v": 75
    },
    {
      "midi": 51,
      "hit": false,
      "t": 87084.78059374935,
      "d": 19.6917854166677,
      "v": 69
    },
    {
      "midi": 75,
      "hit": false,
      "t": 87113.03402499936,
      "d": 78.7671416666708,
      "v": 86
    },
    {
      "midi": 57,
      "hit": false,
      "t": 87154.9860895827,
      "d": 36.815077083330834,
      "v": 46
    },
    {
      "midi": 78,
      "hit": false,
      "t": 87229.4724083327,
      "d": 120.7192062499962,
      "v": 67
    },
    {
      "midi": 83,
      "hit": false,
      "t": 87348.47928541603,
      "d": 125.00002916666563,
      "v": 67
    },
    {
      "midi": 40,
      "hit": false,
      "t": 87358.75326041604,
      "d": 71.91782499999681,
      "v": 54
    },
    {
      "midi": 47,
      "hit": false,
      "t": 87436.66423749937,
      "d": 96.74659791667364,
      "v": 49
    },
    {
      "midi": 76,
      "hit": false,
      "t": 87482.04096041604,
      "d": 47.94521666665969,
      "v": 79
    },
    {
      "midi": 55,
      "hit": false,
      "t": 87487.17794791603,
      "d": 36.815077083330834,
      "v": 74
    },
    {
      "midi": 71,
      "hit": false,
      "t": 87496.5957583327,
      "d": 34.24658333334082,
      "v": 74
    },
    {
      "midi": 52,
      "hit": false,
      "t": 87923.82188541604,
      "d": 54.79453333331912,
      "v": 97
    },
    {
      "midi": 28,
      "hit": false,
      "t": 87928.95887291603,
      "d": 32.53425416666141,
      "v": 78
    },
    {
      "midi": 40,
      "hit": false,
      "t": 87928.95887291603,
      "d": 34.24658333332627,
      "v": 74
    }
  ]
}