{
  "jsonPath": "Rock/Soft Rock/Lisa Stansfield/the-real-thing.json",
  "path": "Rock\\Soft Rock\\Lisa Stansfield\\The Real Thing.mid",
  "name": "The Real Thing",
  "difficulty": "Advanced",
  "bpm": 101.00448964956492,
  "notes": [
    {
      "midi": 60,
      "hit": false,
      "t": 2673.1485000000002,
      "d": 737.9003671874998,
      "v": 1
    },
    {
      "midi": 59,
      "hit": false,
      "t": 3415.68975,
      "d": 737.9003671875003,
      "v": 1
    },
    {
      "midi": 60,
      "hit": false,
      "t": 4158.231000000001,
      "d": 886.4086171874997,
      "v": 1
    },
    {
      "midi": 59,
      "hit": false,
      "t": 5049.280500000001,
      "d": 589.3921171874999,
      "v": 1
    },
    {
      "midi": 60,
      "hit": false,
      "t": 5643.313500000001,
      "d": 143.86736718750035,
      "v": 1
    },
    {
      "midi": 59,
      "hit": false,
      "t": 5791.821750000002,
      "d": 292.3756171875002,
      "v": 1
    },
    {
      "midi": 57,
      "hit": false,
      "t": 6088.8382500000025,
      "d": 1331.9333671875002,
      "v": 1
    },
    {
      "midi": 60,
      "hit": false,
      "t": 7425.412500000003,
      "d": 737.9003671874998,
      "v": 1
    },
    {
      "midi": 59,
      "hit": false,
      "t": 8167.953750000003,
      "d": 737.9003671875007,
      "v": 1
    },
    {
      "midi": 60,
      "hit": false,
      "t": 8910.495000000004,
      "d": 589.3921171875008,
      "v": 1
    },
    {
      "midi": 59,
      "hit": false,
      "t": 9504.528000000006,
      "d": 589.3921171875008,
      "v": 1
    },
    {
      "midi": 60,
      "hit": false,
      "t": 10098.561000000007,
      "d": 292.3756171874993,
      "v": 1
    },
    {
      "midi": 59,
      "hit": false,
      "t": 10395.577500000007,
      "d": 589.3921171875008,
      "v": 1
    },
    {
      "midi": 57,
      "hit": false,
      "t": 10989.610500000008,
      "d": 886.4086171875006,
      "v": 1
    },
    {
      "midi": 76,
      "hit": false,
      "t": 11880.66,
      "d": 2244.640320312503,
      "v": 101
    },
    {
      "midi": 65,
      "hit": false,
      "t": 11880.66,
      "d": 2250.8281640625028,
      "v": 107
    },
    {
      "midi": 69,
      "hit": false,
      "t": 11880.66,
      "d": 2260.1099296875036,
      "v": 106
    },
    {
      "midi": 38,
      "hit": false,
      "t": 11883.753921875,
      "d": 270.71816406250036,
      "v": 103
    },
    {
      "midi": 45,
      "hit": false,
      "t": 12777.89734375,
      "d": 75.80108593750083,
      "v": 101
    },
    {
      "midi": 45,
      "hit": false,
      "t": 12926.405593750002,
      "d": 106.74030468750061,
      "v": 95
    },
    {
      "midi": 38,
      "hit": false,
      "t": 13071.819921875001,
      "d": 366.6297421875006,
      "v": 105
    },
    {
      "midi": 40,
      "hit": false,
      "t": 13514.250750000003,
      "d": 388.28719531249953,
      "v": 102
    },
    {
      "midi": 41,
      "hit": false,
      "t": 13956.681578125002,
      "d": 283.0938515625003,
      "v": 105
    },
    {
      "midi": 67,
      "hit": false,
      "t": 14253.698078125002,
      "d": 1353.5908203125036,
      "v": 107
    },
    {
      "midi": 40,
      "hit": false,
      "t": 14256.792000000003,
      "d": 221.2154140625007,
      "v": 97
    },
    {
      "midi": 64,
      "hit": false,
      "t": 14256.792000000003,
      "d": 1341.215132812502,
      "v": 103
    },
    {
      "midi": 74,
      "hit": false,
      "t": 14259.885921875004,
      "d": 1369.0604296875026,
      "v": 106
    },
    {
      "midi": 47,
      "hit": false,
      "t": 15141.653656250004,
      "d": 78.8950078124999,
      "v": 100
    },
    {
      "midi": 47,
      "hit": false,
      "t": 15296.349750000005,
      "d": 122.20991406249959,
      "v": 99
    },
    {
      "midi": 40,
      "hit": false,
      "t": 15441.764078125005,
      "d": 363.5358203125015,
      "v": 97
    },
    {
      "midi": 65,
      "hit": false,
      "t": 15738.780578125006,
      "d": 462.54132031250083,
      "v": 102
    },
    {
      "midi": 76,
      "hit": false,
      "t": 15748.062343750007,
      "d": 453.2595546875,
      "v": 101
    },
    {
      "midi": 69,
      "hit": false,
      "t": 15748.062343750007,
      "d": 465.6352421874999,
      "v": 104
    },
    {
      "midi": 43,
      "hit": false,
      "t": 15896.570593750006,
      "d": 403.75680468750033,
      "v": 103
    },
    {
      "midi": 64,
      "hit": false,
      "t": 16181.211406250006,
      "d": 242.87286718750147,
      "v": 91
    },
    {
      "midi": 67,
      "hit": false,
      "t": 16184.305328125007,
      "d": 264.5303203125004,
      "v": 102
    },
    {
      "midi": 74,
      "hit": false,
      "t": 16193.587093750008,
      "d": 279.9999296874994,
      "v": 88
    },
    {
      "midi": 45,
      "hit": false,
      "t": 16339.001421875006,
      "d": 283.0938515625003,
      "v": 102
    },
    {
      "midi": 69,
      "hit": false,
      "t": 16632.924000000006,
      "d": 2192.0436484374986,
      "v": 104
    },
    {
      "midi": 38,
      "hit": false,
      "t": 16639.111843750008,
      "d": 270.71816406249854,
      "v": 109
    },
    {
      "midi": 76,
      "hit": false,
      "t": 16639.111843750008,
      "d": 2161.104429687497,
      "v": 99
    },
    {
      "midi": 65,
      "hit": false,
      "t": 16639.111843750008,
      "d": 2185.855804687497,
      "v": 97
    },
    {
      "midi": 45,
      "hit": false,
      "t": 17530.161343750005,
      "d": 75.80108593749901,
      "v": 102
    },
    {
      "midi": 45,
      "hit": false,
      "t": 17672.481750000006,
      "d": 106.74030468750061,
      "v": 92
    },
    {
      "midi": 38,
      "hit": false,
      "t": 17820.990000000005,
      "d": 366.6297421874988,
      "v": 97
    },
    {
      "midi": 40,
      "hit": false,
      "t": 18269.608671875005,
      "d": 388.28719531249953,
      "v": 95
    },
    {
      "midi": 41,
      "hit": false,
      "t": 18708.945578125004,
      "d": 283.0938515625021,
      "v": 103
    },
    {
      "midi": 64,
      "hit": false,
      "t": 19005.962078125005,
      "d": 1149.3919765624996,
      "v": 100
    },
    {
      "midi": 40,
      "hit": false,
      "t": 19012.149921875007,
      "d": 221.2154140624989,
      "v": 96
    },
    {
      "midi": 74,
      "hit": false,
      "t": 19012.149921875007,
      "d": 1155.5798203124978,
      "v": 98
    },
    {
      "midi": 67,
      "hit": false,
      "t": 19012.149921875007,
      "d": 1158.6737421874968,
      "v": 101
    },
    {
      "midi": 47,
      "hit": false,
      "t": 19903.199421875004,
      "d": 78.89500781250172,
      "v": 93
    },
    {
      "midi": 47,
      "hit": false,
      "t": 20045.519828125005,
      "d": 122.20991406249959,
      "v": 96
    },
    {
      "midi": 74,
      "hit": false,
      "t": 20194.028078125004,
      "d": 518.2319140624968,
      "v": 103
    },
    {
      "midi": 64,
      "hit": false,
      "t": 20197.122000000003,
      "d": 499.66838281249875,
      "v": 102
    },
    {
      "midi": 40,
      "hit": false,
      "t": 20200.215921875002,
      "d": 363.5358203124997,
      "v": 102
    },
    {
      "midi": 67,
      "hit": false,
      "t": 20200.215921875002,
      "d": 515.1379921874977,
      "v": 100
    },
    {
      "midi": 43,
      "hit": false,
      "t": 20639.552828125,
      "d": 403.7568046874985,
      "v": 105
    },
    {
      "midi": 64,
      "hit": false,
      "t": 20784.96715625,
      "d": 484.19877343749613,
      "v": 95
    },
    {
      "midi": 74,
      "hit": false,
      "t": 20784.96715625,
      "d": 493.480539062497,
      "v": 98
    },
    {
      "midi": 67,
      "hit": false,
      "t": 20797.34284375,
      "d": 474.9170078124953,
      "v": 101
    },
    {
      "midi": 45,
      "hit": false,
      "t": 21085.077578124998,
      "d": 283.09385156249846,
      "v": 97
    },
    {
      "midi": 38,
      "hit": false,
      "t": 21385.187999999995,
      "d": 641.9887890625032,
      "v": 102
    },
    {
      "midi": 53,
      "hit": false,
      "t": 21973.033156249996,
      "d": 1752.7067421875036,
      "v": 114
    },
    {
      "midi": 64,
      "hit": false,
      "t": 21979.220999999998,
      "d": 1752.7067421875036,
      "v": 108
    },
    {
      "midi": 57,
      "hit": false,
      "t": 21985.40884375,
      "d": 1752.7067421875036,
      "v": 118
    },
    {
      "midi": 45,
      "hit": false,
      "t": 22276.2375,
      "d": 174.8065859374983,
      "v": 106
    },
    {
      "midi": 38,
      "hit": false,
      "t": 22573.253999999997,
      "d": 255.24855468749956,
      "v": 104
    },
    {
      "midi": 40,
      "hit": false,
      "t": 23018.778749999998,
      "d": 329.50267968749904,
      "v": 106
    },
    {
      "midi": 41,
      "hit": false,
      "t": 23464.303499999998,
      "d": 283.09385156250573,
      "v": 107
    },
    {
      "midi": 62,
      "hit": false,
      "t": 23758.226078125004,
      "d": 1177.2372734375022,
      "v": 101
    },
    {
      "midi": 40,
      "hit": false,
      "t": 23761.320000000003,
      "d": 641.9887890624996,
      "v": 105
    },
    {
      "midi": 55,
      "hit": false,
      "t": 23761.320000000003,
      "d": 1146.2980546875006,
      "v": 103
    },
    {
      "midi": 59,
      "hit": false,
      "t": 23764.413921875002,
      "d": 1164.8615859375022,
      "v": 110
    },
    {
      "midi": 47,
      "hit": false,
      "t": 24652.369500000004,
      "d": 208.83972656249898,
      "v": 102
    },
    {
      "midi": 40,
      "hit": false,
      "t": 24949.386000000006,
      "d": 255.24855468749956,
      "v": 99
    },
    {
      "midi": 60,
      "hit": false,
      "t": 25240.214656250006,
      "d": 474.9170078124989,
      "v": 112
    },
    {
      "midi": 64,
      "hit": false,
      "t": 25246.402500000007,
      "d": 474.9170078124989,
      "v": 117
    },
    {
      "midi": 43,
      "hit": false,
      "t": 25394.910750000006,
      "d": 329.50267968749904,
      "v": 102
    },
    {
      "midi": 62,
      "hit": false,
      "t": 25685.739406250006,
      "d": 379.0054296875023,
      "v": 117
    },
    {
      "midi": 59,
      "hit": false,
      "t": 25698.115093750006,
      "d": 379.0054296875023,
      "v": 112
    },
    {
      "midi": 45,
      "hit": false,
      "t": 25840.435500000007,
      "d": 283.0938515625021,
      "v": 109
    },
    {
      "midi": 57,
      "hit": false,
      "t": 26134.35807812501,
      "d": 2346.7397421874994,
      "v": 119
    },
    {
      "midi": 64,
      "hit": false,
      "t": 26134.35807812501,
      "d": 2346.7397421874994,
      "v": 114
    },
    {
      "midi": 38,
      "hit": false,
      "t": 26137.45200000001,
      "d": 641.9887890624996,
      "v": 110
    },
    {
      "midi": 53,
      "hit": false,
      "t": 26140.545921875007,
      "d": 2346.739742187503,
      "v": 111
    },
    {
      "midi": 45,
      "hit": false,
      "t": 27028.50150000001,
      "d": 174.8065859374983,
      "v": 103
    },
    {
      "midi": 38,
      "hit": false,
      "t": 27325.518000000007,
      "d": 255.24855468749956,
      "v": 106
    },
    {
      "midi": 40,
      "hit": false,
      "t": 27771.042750000008,
      "d": 329.50267968749904,
      "v": 108
    },
    {
      "midi": 41,
      "hit": false,
      "t": 28216.56750000001,
      "d": 283.0938515625021,
      "v": 105
    },
    {
      "midi": 40,
      "hit": false,
      "t": 28513.58400000001,
      "d": 641.9887890624996,
      "v": 103
    },
    {
      "midi": 55,
      "hit": false,
      "t": 28513.58400000001,
      "d": 2334.3640546874994,
      "v": 112
    },
    {
      "midi": 59,
      "hit": false,
      "t": 28516.67792187501,
      "d": 2346.7397421874994,
      "v": 110
    },
    {
      "midi": 62,
      "hit": false,
      "t": 28519.771843750008,
      "d": 2346.7397421874994,
      "v": 103
    },
    {
      "midi": 47,
      "hit": false,
      "t": 29404.63350000001,
      "d": 208.83972656249898,
      "v": 98
    },
    {
      "midi": 40,
      "hit": false,
      "t": 29701.65000000001,
      "d": 255.24855468749956,
      "v": 104
    },
    {
      "midi": 43,
      "hit": false,
      "t": 30147.17475000001,
      "d": 329.50267968749904,
      "v": 101
    },
    {
      "midi": 45,
      "hit": false,
      "t": 30592.69950000001,
      "d": 283.09385156249846,
      "v": 102
    },
    {
      "midi": 38,
      "hit": false,
      "t": 30889.716000000008,
      "d": 641.9887890624996,
      "v": 109
    },
    {
      "midi": 57,
      "hit": false,
      "t": 31480.655078125008,
      "d": 1752.7067421875,
      "v": 116
    },
    {
      "midi": 53,
      "hit": false,
      "t": 31483.749000000007,
      "d": 1752.7067421875,
      "v": 119
    },
    {
      "midi": 64,
      "hit": false,
      "t": 31489.93684375001,
      "d": 1752.7067421874963,
      "v": 111
    },
    {
      "midi": 45,
      "hit": false,
      "t": 31780.76550000001,
      "d": 174.8065859374983,
      "v": 103
    },
    {
      "midi": 38,
      "hit": false,
      "t": 32077.782000000007,
      "d": 255.24855468749956,
      "v": 101
    },
    {
      "midi": 40,
      "hit": false,
      "t": 32523.306750000007,
      "d": 329.50267968749904,
      "v": 101
    },
    {
      "midi": 41,
      "hit": false,
      "t": 32968.83150000001,
      "d": 283.0938515624948,
      "v": 107
    },
    {
      "midi": 40,
      "hit": false,
      "t": 33265.848000000005,
      "d": 641.9887890624959,
      "v": 102
    },
    {
      "midi": 55,
      "hit": false,
      "t": 33268.941921875004,
      "d": 2334.3640546875104,
      "v": 107
    },
    {
      "midi": 62,
      "hit": false,
      "t": 33268.941921875004,
      "d": 2343.6458203125076,
      "v": 107
    },
    {
      "midi": 59,
      "hit": false,
      "t": 33272.03584375,
      "d": 2343.6458203125076,
      "v": 107
    },
    {
      "midi": 47,
      "hit": false,
      "t": 34156.8975,
      "d": 208.83972656250262,
      "v": 105
    },
    {
      "midi": 40,
      "hit": false,
      "t": 34453.914000000004,
      "d": 255.2485546875032,
      "v": 104
    },
    {
      "midi": 43,
      "hit": false,
      "t": 34899.43875000001,
      "d": 329.5026796875027,
      "v": 105
    },
    {
      "midi": 45,
      "hit": false,
      "t": 35344.96350000001,
      "d": 283.0938515625021,
      "v": 107
    },
    {
      "midi": 53,
      "hit": false,
      "t": 35635.79215625001,
      "d": 2346.7397421874994,
      "v": 109
    },
    {
      "midi": 38,
      "hit": false,
      "t": 35641.98000000001,
      "d": 641.9887890624959,
      "v": 104
    },
    {
      "midi": 57,
      "hit": false,
      "t": 35648.16784375001,
      "d": 2346.7397421875066,
      "v": 112
    },
    {
      "midi": 64,
      "hit": false,
      "t": 35648.16784375001,
      "d": 2346.7397421875066,
      "v": 108
    },
    {
      "midi": 45,
      "hit": false,
      "t": 36533.029500000004,
      "d": 174.8065859374983,
      "v": 100
    },
    {
      "midi": 38,
      "hit": false,
      "t": 36830.046,
      "d": 255.2485546875032,
      "v": 100
    },
    {
      "midi": 40,
      "hit": false,
      "t": 37275.570750000006,
      "d": 329.5026796875027,
      "v": 99
    },
    {
      "midi": 41,
      "hit": false,
      "t": 37721.09550000001,
      "d": 283.0938515625021,
      "v": 99
    },
    {
      "midi": 40,
      "hit": false,
      "t": 38018.112000000016,
      "d": 641.9887890624959,
      "v": 103
    },
    {
      "midi": 59,
      "hit": false,
      "t": 38018.112000000016,
      "d": 1158.6737421874932,
      "v": 114
    },
    {
      "midi": 55,
      "hit": false,
      "t": 38024.299843750014,
      "d": 1146.298054687497,
      "v": 105
    },
    {
      "midi": 62,
      "hit": false,
      "t": 38024.299843750014,
      "d": 1158.6737421874932,
      "v": 102
    },
    {
      "midi": 45,
      "hit": false,
      "t": 38909.16150000001,
      "d": 208.83972656250262,
      "v": 97
    },
    {
      "midi": 45,
      "hit": false,
      "t": 39206.17800000001,
      "d": 552.2650546875011,
      "v": 108
    },
    {
      "midi": 67,
      "hit": false,
      "t": 39206.17800000001,
      "d": 552.2650546875011,
      "v": 106
    },
    {
      "midi": 71,
      "hit": false,
      "t": 39206.17800000001,
      "d": 564.6407421875047,
      "v": 108
    },
    {
      "midi": 74,
      "hit": false,
      "t": 39212.365843750005,
      "d": 564.6407421875047,
      "v": 102
    },
    {
      "midi": 71,
      "hit": false,
      "t": 39797.11707812501,
      "d": 564.6407421874974,
      "v": 115
    },
    {
      "midi": 45,
      "hit": false,
      "t": 39800.21100000001,
      "d": 283.0938515624948,
      "v": 100
    },
    {
      "midi": 74,
      "hit": false,
      "t": 39803.30492187501,
      "d": 564.6407421874974,
      "v": 100
    },
    {
      "midi": 67,
      "hit": false,
      "t": 39806.39884375001,
      "d": 552.2650546875011,
      "v": 112
    },
    {
      "midi": 64,
      "hit": false,
      "t": 39824.96237500001,
      "d": 283.0938515625021,
      "v": 1
    },
    {
      "midi": 45,
      "hit": false,
      "t": 40097.22750000001,
      "d": 233.59110156250244,
      "v": 103
    },
    {
      "midi": 62,
      "hit": false,
      "t": 40112.69710937501,
      "d": 335.6905234375008,
      "v": 1
    },
    {
      "midi": 38,
      "hit": false,
      "t": 40394.244000000006,
      "d": 641.9887890624959,
      "v": 104
    },
    {
      "midi": 69,
      "hit": false,
      "t": 40394.24400000001,
      "d": 2074.4746171875013,
      "v": 1
    },
    {
      "midi": 53,
      "hit": false,
      "t": 40982.089156250004,
      "d": 1752.7067421875036,
      "v": 113
    },
    {
      "midi": 64,
      "hit": false,
      "t": 40988.277,
      "d": 1752.7067421875036,
      "v": 113
    },
    {
      "midi": 57,
      "hit": false,
      "t": 40994.46484375,
      "d": 1752.7067421875036,
      "v": 112
    },
    {
      "midi": 45,
      "hit": false,
      "t": 41285.2935,
      "d": 174.8065859374983,
      "v": 102
    },
    {
      "midi": 38,
      "hit": false,
      "t": 41582.31,
      "d": 255.2485546875032,
      "v": 101
    },
    {
      "midi": 40,
      "hit": false,
      "t": 42027.83475,
      "d": 329.5026796875027,
      "v": 101
    },
    {
      "midi": 41,
      "hit": false,
      "t": 42473.359500000006,
      "d": 283.0938515624948,
      "v": 105
    },
    {
      "midi": 67,
      "hit": false,
      "t": 42473.35950000001,
      "d": 2377.6789609374973,
      "v": 1
    },
    {
      "midi": 62,
      "hit": false,
      "t": 42767.282078125,
      "d": 1177.2372734374949,
      "v": 103
    },
    {
      "midi": 40,
      "hit": false,
      "t": 42770.376,
      "d": 641.9887890624959,
      "v": 111
    },
    {
      "midi": 55,
      "hit": false,
      "t": 42770.376,
      "d": 1146.298054687497,
      "v": 104
    },
    {
      "midi": 59,
      "hit": false,
      "t": 42773.469921874996,
      "d": 1164.8615859374986,
      "v": 109
    },
    {
      "midi": 47,
      "hit": false,
      "t": 43661.42549999999,
      "d": 208.83972656250262,
      "v": 98
    },
    {
      "midi": 40,
      "hit": false,
      "t": 43958.441999999995,
      "d": 255.2485546875032,
      "v": 100
    },
    {
      "midi": 60,
      "hit": false,
      "t": 44249.270656249995,
      "d": 474.91700781250256,
      "v": 111
    },
    {
      "midi": 64,
      "hit": false,
      "t": 44255.45849999999,
      "d": 474.91700781250256,
      "v": 111
    },
    {
      "midi": 43,
      "hit": false,
      "t": 44403.96674999999,
      "d": 329.5026796875027,
      "v": 99
    },
    {
      "midi": 62,
      "hit": false,
      "t": 44694.79540624999,
      "d": 379.0054296875023,
      "v": 117
    },
    {
      "midi": 59,
      "hit": false,
      "t": 44707.171093749996,
      "d": 379.0054296875023,
      "v": 108
    },
    {
      "midi": 45,
      "hit": false,
      "t": 44849.4915,
      "d": 283.0938515625021,
      "v": 102
    },
    {
      "midi": 62,
      "hit": false,
      "t": 44855.67934375001,
      "d": 283.0938515625021,
      "v": 1
    },
    {
      "midi": 57,
      "hit": false,
      "t": 45143.414078124995,
      "d": 2346.7397421874994,
      "v": 120
    },
    {
      "midi": 64,
      "hit": false,
      "t": 45143.414078124995,
      "d": 2346.7397421874994,
      "v": 115
    },
    {
      "midi": 74,
      "hit": false,
      "t": 45143.41407812501,
      "d": 589.3921171874972,
      "v": 1
    },
    {
      "midi": 38,
      "hit": false,
      "t": 45146.507999999994,
      "d": 641.9887890624959,
      "v": 111
    },
    {
      "midi": 53,
      "hit": false,
      "t": 45149.60192187499,
      "d": 2346.7397421874994,
      "v": 115
    },
    {
      "midi": 72,
      "hit": false,
      "t": 45737.447078125006,
      "d": 598.6738828125017,
      "v": 1
    },
    {
      "midi": 45,
      "hit": false,
      "t": 46037.55749999999,
      "d": 174.8065859374983,
      "v": 99
    },
    {
      "midi": 38,
      "hit": false,
      "t": 46334.573999999986,
      "d": 255.2485546875032,
      "v": 107
    },
    {
      "midi": 69,
      "hit": false,
      "t": 46340.761843750006,
      "d": 577.0164296875009,
      "v": 1
    },
    {
      "midi": 40,
      "hit": false,
      "t": 46780.09874999999,
      "d": 329.5026796875027,
      "v": 99
    },
    {
      "midi": 67,
      "hit": false,
      "t": 46922.419156250005,
      "d": 450.16563281250274,
      "v": 1
    },
    {
      "midi": 41,
      "hit": false,
      "t": 47225.623499999994,
      "d": 283.0938515625021,
      "v": 106
    },
    {
      "midi": 65,
      "hit": false,
      "t": 47377.22567187501,
      "d": 137.6795234375022,
      "v": 1
    },
    {
      "midi": 67,
      "hit": false,
      "t": 47519.54607812501,
      "d": 298.56346093749744,
      "v": 1
    },
    {
      "midi": 40,
      "hit": false,
      "t": 47522.64,
      "d": 641.9887890624959,
      "v": 103
    },
    {
      "midi": 55,
      "hit": false,
      "t": 47522.64,
      "d": 2334.3640546875104,
      "v": 109
    },
    {
      "midi": 59,
      "hit": false,
      "t": 47525.733921875,
      "d": 2346.739742187514,
      "v": 114
    },
    {
      "midi": 62,
      "hit": false,
      "t": 47528.82784375,
      "d": 2346.739742187514,
      "v": 107
    },
    {
      "midi": 69,
      "hit": false,
      "t": 47822.750421875004,
      "d": 289.28169531250023,
      "v": 1
    },
    {
      "midi": 67,
      "hit": false,
      "t": 48116.673,
      "d": 1777.4581171875034,
      "v": 1
    },
    {
      "midi": 47,
      "hit": false,
      "t": 48413.68949999999,
      "d": 208.83972656250262,
      "v": 98
    },
    {
      "midi": 40,
      "hit": false,
      "t": 48710.706,
      "d": 255.2485546875032,
      "v": 103
    },
    {
      "midi": 43,
      "hit": false,
      "t": 49156.23075,
      "d": 329.5026796875027,
      "v": 107
    },
    {
      "midi": 45,
      "hit": false,
      "t": 49601.75550000001,
      "d": 283.0938515625021,
      "v": 102
    },
    {
      "midi": 38,
      "hit": false,
      "t": 49898.77200000001,
      "d": 641.9887890624959,
      "v": 102
    },
    {
      "midi": 57,
      "hit": false,
      "t": 50489.71107812501,
      "d": 1752.7067421875036,
      "v": 118
    },
    {
      "midi": 53,
      "hit": false,
      "t": 50492.80500000001,
      "d": 1752.7067421875036,
      "v": 114
    },
    {
      "midi": 64,
      "hit": false,
      "t": 50498.992843750006,
      "d": 1752.7067421875036,
      "v": 118
    },
    {
      "midi": 45,
      "hit": false,
      "t": 50789.821500000005,
      "d": 174.8065859374983,
      "v": 101
    },
    {
      "midi": 38,
      "hit": false,
      "t": 51086.838,
      "d": 255.2485546875032,
      "v": 105
    },
    {
      "midi": 40,
      "hit": false,
      "t": 51532.36275000001,
      "d": 329.5026796875027,
      "v": 100
    },
    {
      "midi": 41,
      "hit": false,
      "t": 51977.88750000001,
      "d": 283.0938515624948,
      "v": 108
    },
    {
      "midi": 40,
      "hit": false,
      "t": 52274.90400000001,
      "d": 641.9887890624959,
      "v": 103
    },
    {
      "midi": 55,
      "hit": false,
      "t": 52277.99792187501,
      "d": 2334.3640546875104,
      "v": 110
    },
    {
      "midi": 62,
      "hit": false,
      "t": 52277.99792187501,
      "d": 2343.6458203125076,
      "v": 102
    },
    {
      "midi": 59,
      "hit": false,
      "t": 52281.09184375001,
      "d": 2343.6458203125076,
      "v": 108
    },
    {
      "midi": 47,
      "hit": false,
      "t": 53165.9535,
      "d": 208.83972656250262,
      "v": 105
    },
    {
      "midi": 40,
      "hit": false,
      "t": 53462.97000000001,
      "d": 255.2485546875032,
      "v": 99
    },
    {
      "midi": 43,
      "hit": false,
      "t": 53908.49475000001,
      "d": 329.5026796875027,
      "v": 107
    },
    {
      "midi": 45,
      "hit": false,
      "t": 54354.01950000002,
      "d": 283.0938515625021,
      "v": 100
    },
    {
      "midi": 53,
      "hit": false,
      "t": 54644.84815625002,
      "d": 2346.7397421874994,
      "v": 113
    },
    {
      "midi": 38,
      "hit": false,
      "t": 54651.036000000015,
      "d": 641.9887890624959,
      "v": 104
    },
    {
      "midi": 57,
      "hit": false,
      "t": 54657.22384375001,
      "d": 2346.7397421875066,
      "v": 118
    },
    {
      "midi": 64,
      "hit": false,
      "t": 54657.22384375001,
      "d": 2346.7397421875066,
      "v": 115
    },
    {
      "midi": 67,
      "hit": false,
      "t": 54805.732093750004,
      "d": 883.3146953125033,
      "v": 1
    },
    {
      "midi": 45,
      "hit": false,
      "t": 55542.08550000001,
      "d": 174.8065859374983,
      "v": 97
    },
    {
      "midi": 72,
      "hit": false,
      "t": 55693.687671875006,
      "d": 283.0938515625021,
      "v": 1
    },
    {
      "midi": 38,
      "hit": false,
      "t": 55839.102000000006,
      "d": 255.2485546875032,
      "v": 104
    },
    {
      "midi": 71,
      "hit": false,
      "t": 55981.42240625001,
      "d": 889.5025390625015,
      "v": 1
    },
    {
      "midi": 40,
      "hit": false,
      "t": 56284.62675000001,
      "d": 329.5026796875027,
      "v": 104
    },
    {
      "midi": 41,
      "hit": false,
      "t": 56730.151500000014,
      "d": 283.0938515625021,
      "v": 108
    },
    {
      "midi": 72,
      "hit": false,
      "t": 56875.56582812501,
      "d": 295.46953906249837,
      "v": 1
    },
    {
      "midi": 40,
      "hit": false,
      "t": 57027.16800000002,
      "d": 641.9887890624959,
      "v": 103
    },
    {
      "midi": 59,
      "hit": false,
      "t": 57027.16800000002,
      "d": 1158.6737421874932,
      "v": 108
    },
    {
      "midi": 55,
      "hit": false,
      "t": 57033.35584375002,
      "d": 1146.298054687497,
      "v": 112
    },
    {
      "midi": 62,
      "hit": false,
      "t": 57033.35584375002,
      "d": 1158.6737421874932,
      "v": 107
    },
    {
      "midi": 71,
      "hit": false,
      "t": 57175.676250000004,
      "d": 295.46953906249837,
      "v": 1
    },
    {
      "midi": 67,
      "hit": false,
      "t": 57475.786671875,
      "d": 440.88386718749825,
      "v": 1
    },
    {
      "midi": 45,
      "hit": false,
      "t": 57918.21750000001,
      "d": 208.83972656250262,
      "v": 96
    },
    {
      "midi": 71,
      "hit": false,
      "t": 57921.311421875,
      "d": 1774.364195312497,
      "v": 1
    },
    {
      "midi": 45,
      "hit": false,
      "t": 58215.23400000001,
      "d": 552.2650546875011,
      "v": 107
    },
    {
      "midi": 67,
      "hit": false,
      "t": 58215.23400000001,
      "d": 552.2650546875011,
      "v": 113
    },
    {
      "midi": 71,
      "hit": false,
      "t": 58215.23400000001,
      "d": 564.6407421875047,
      "v": 113
    },
    {
      "midi": 74,
      "hit": false,
      "t": 58221.42184375001,
      "d": 564.6407421875047,
      "v": 103
    },
    {
      "midi": 71,
      "hit": false,
      "t": 58806.173078125015,
      "d": 564.6407421874974,
      "v": 110
    },
    {
      "midi": 45,
      "hit": false,
      "t": 58809.267000000014,
      "d": 283.0938515624948,
      "v": 105
    },
    {
      "midi": 74,
      "hit": false,
      "t": 58812.36092187501,
      "d": 564.6407421874974,
      "v": 105
    },
    {
      "midi": 67,
      "hit": false,
      "t": 58815.45484375001,
      "d": 552.2650546875011,
      "v": 106
    },
    {
      "midi": 45,
      "hit": false,
      "t": 59106.28350000001,
      "d": 233.59110156250244,
      "v": 104
    },
    {
      "midi": 79,
      "hit": false,
      "t": 59403.30000000001,
      "d": 2244.6403203124937,
      "v": 95
    },
    {
      "midi": 68,
      "hit": false,
      "t": 59403.30000000001,
      "d": 2250.828164062492,
      "v": 97
    },
    {
      "midi": 72,
      "hit": false,
      "t": 59403.30000000001,
      "d": 2260.109929687489,
      "v": 106
    },
    {
      "midi": 41,
      "hit": false,
      "t": 59406.39392187501,
      "d": 270.71816406249854,
      "v": 105
    },
    {
      "midi": 63,
      "hit": false,
      "t": 59700.31649999999,
      "d": 737.9003671875034,
      "v": 1
    },
    {
      "midi": 48,
      "hit": false,
      "t": 60300.53734375001,
      "d": 75.80108593749901,
      "v": 101
    },
    {
      "midi": 62,
      "hit": false,
      "t": 60442.857749999996,
      "d": 737.9003671875034,
      "v": 1
    },
    {
      "midi": 48,
      "hit": false,
      "t": 60449.04559375001,
      "d": 106.74030468749697,
      "v": 102
    },
    {
      "midi": 41,
      "hit": false,
      "t": 60594.45992187501,
      "d": 366.6297421874988,
      "v": 103
    },
    {
      "midi": 43,
      "hit": false,
      "t": 61036.890750000006,
      "d": 388.28719531249953,
      "v": 99
    },
    {
      "midi": 63,
      "hit": false,
      "t": 61185.399,
      "d": 886.4086171875024,
      "v": 1
    },
    {
      "midi": 44,
      "hit": false,
      "t": 61479.321578125004,
      "d": 283.0938515624948,
      "v": 100
    },
    {
      "midi": 70,
      "hit": false,
      "t": 61776.338078125,
      "d": 1353.5908203124854,
      "v": 102
    },
    {
      "midi": 43,
      "hit": false,
      "t": 61779.432,
      "d": 221.2154140624989,
      "v": 103
    },
    {
      "midi": 65,
      "hit": false,
      "t": 61779.432,
      "d": 1341.2151328124892,
      "v": 96
    },
    {
      "midi": 77,
      "hit": false,
      "t": 61782.525921875,
      "d": 1369.060429687488,
      "v": 98
    },
    {
      "midi": 62,
      "hit": false,
      "t": 62076.4485,
      "d": 589.3921171874972,
      "v": 1
    },
    {
      "midi": 50,
      "hit": false,
      "t": 62664.293656249996,
      "d": 78.89500781249808,
      "v": 92
    },
    {
      "midi": 63,
      "hit": false,
      "t": 62670.481499999994,
      "d": 143.86736718750035,
      "v": 1
    },
    {
      "midi": 62,
      "hit": false,
      "t": 62818.98974999999,
      "d": 292.3756171874993,
      "v": 1
    },
    {
      "midi": 50,
      "hit": false,
      "t": 62818.98974999999,
      "d": 122.20991406249959,
      "v": 101
    },
    {
      "midi": 43,
      "hit": false,
      "t": 62964.40407812499,
      "d": 363.53582031249243,
      "v": 104
    },
    {
      "midi": 60,
      "hit": false,
      "t": 63116.00624999999,
      "d": 1331.9333671874992,
      "v": 1
    },
    {
      "midi": 68,
      "hit": false,
      "t": 63261.42057812499,
      "d": 462.54132031249173,
      "v": 100
    },
    {
      "midi": 79,
      "hit": false,
      "t": 63270.70234374999,
      "d": 453.25955468749453,
      "v": 94
    },
    {
      "midi": 72,
      "hit": false,
      "t": 63270.70234374999,
      "d": 465.6352421874981,
      "v": 97
    },
    {
      "midi": 46,
      "hit": false,
      "t": 63419.21059374999,
      "d": 403.75680468750215,
      "v": 103
    },
    {
      "midi": 67,
      "hit": false,
      "t": 63703.85140624999,
      "d": 267.62424218750675,
      "v": 97
    },
    {
      "midi": 70,
      "hit": false,
      "t": 63706.94532812499,
      "d": 239.77894531250786,
      "v": 95
    },
    {
      "midi": 77,
      "hit": false,
      "t": 63716.227093749985,
      "d": 279.9999296875103,
      "v": 95
    },
    {
      "midi": 48,
      "hit": false,
      "t": 63861.64142187499,
      "d": 283.0938515625021,
      "v": 101
    },
    {
      "midi": 72,
      "hit": false,
      "t": 64155.56399999999,
      "d": 2192.043648437517,
      "v": 105
    },
    {
      "midi": 41,
      "hit": false,
      "t": 64161.75184374999,
      "d": 270.71816406249854,
      "v": 106
    },
    {
      "midi": 79,
      "hit": false,
      "t": 64161.75184374999,
      "d": 2161.1044296875116,
      "v": 99
    },
    {
      "midi": 68,
      "hit": false,
      "t": 64161.75184374999,
      "d": 2185.8558046875187,
      "v": 99
    },
    {
      "midi": 63,
      "hit": false,
      "t": 64452.58049999999,
      "d": 737.9003671875034,
      "v": 1
    },
    {
      "midi": 48,
      "hit": false,
      "t": 65052.80134374999,
      "d": 75.80108593749901,
      "v": 99
    },
    {
      "midi": 62,
      "hit": false,
      "t": 65195.12174999999,
      "d": 737.9003671874962,
      "v": 1
    },
    {
      "midi": 48,
      "hit": false,
      "t": 65195.12174999999,
      "d": 106.74030468749697,
      "v": 102
    },
    {
      "midi": 41,
      "hit": false,
      "t": 65343.62999999999,
      "d": 366.62974218750605,
      "v": 106
    },
    {
      "midi": 43,
      "hit": false,
      "t": 65792.248671875,
      "d": 388.28719531249953,
      "v": 102
    },
    {
      "midi": 63,
      "hit": false,
      "t": 65937.66299999999,
      "d": 589.3921171874972,
      "v": 1
    },
    {
      "midi": 44,
      "hit": false,
      "t": 66231.585578125,
      "d": 283.0938515625021,
      "v": 104
    },
    {
      "midi": 67,
      "hit": false,
      "t": 66528.602078125,
      "d": 1164.8615859374986,
      "v": 103
    },
    {
      "midi": 65,
      "hit": false,
      "t": 66531.69599999998,
      "d": 589.3921171874972,
      "v": 1
    },
    {
      "midi": 43,
      "hit": false,
      "t": 66534.789921875,
      "d": 221.21541406250617,
      "v": 105
    },
    {
      "midi": 70,
      "hit": false,
      "t": 66534.789921875,
      "d": 1143.2041328125051,
      "v": 104
    },
    {
      "midi": 77,
      "hit": false,
      "t": 66534.789921875,
      "d": 1155.5798203125014,
      "v": 94
    },
    {
      "midi": 67,
      "hit": false,
      "t": 67125.72899999998,
      "d": 292.3756171874993,
      "v": 1
    },
    {
      "midi": 65,
      "hit": false,
      "t": 67422.74549999998,
      "d": 589.3921171874972,
      "v": 1
    },
    {
      "midi": 50,
      "hit": false,
      "t": 67425.839421875,
      "d": 78.89500781250536,
      "v": 101
    },
    {
      "midi": 50,
      "hit": false,
      "t": 67568.159828125,
      "d": 122.20991406249232,
      "v": 95
    },
    {
      "midi": 77,
      "hit": false,
      "t": 67716.66807812499,
      "d": 518.2319140625041,
      "v": 99
    },
    {
      "midi": 67,
      "hit": false,
      "t": 67719.76199999999,
      "d": 518.2319140625041,
      "v": 102
    },
    {
      "midi": 43,
      "hit": false,
      "t": 67722.85592187499,
      "d": 363.535820312507,
      "v": 106
    },
    {
      "midi": 70,
      "hit": false,
      "t": 67722.85592187499,
      "d": 496.5744609375106,
      "v": 104
    },
    {
      "midi": 63,
      "hit": false,
      "t": 68016.77849999997,
      "d": 1183.425117187493,
      "v": 1
    },
    {
      "midi": 46,
      "hit": false,
      "t": 68162.192828125,
      "d": 403.7568046874803,
      "v": 105
    },
    {
      "midi": 67,
      "hit": false,
      "t": 68307.60715624999,
      "d": 487.29269531249884,
      "v": 101
    },
    {
      "midi": 77,
      "hit": false,
      "t": 68307.60715624999,
      "d": 493.480539062497,
      "v": 97
    },
    {
      "midi": 70,
      "hit": false,
      "t": 68319.98284374998,
      "d": 471.8230859375035,
      "v": 99
    },
    {
      "midi": 48,
      "hit": false,
      "t": 68607.71757812498,
      "d": 283.0938515625021,
      "v": 98
    },
    {
      "midi": 79,
      "hit": false,
      "t": 68907.82799999998,
      "d": 2244.640320312523,
      "v": 102
    },
    {
      "midi": 68,
      "hit": false,
      "t": 68907.82799999998,
      "d": 2250.828164062521,
      "v": 107
    },
    {
      "midi": 72,
      "hit": false,
      "t": 68907.82799999998,
      "d": 2260.109929687518,
      "v": 101
    },
    {
      "midi": 41,
      "hit": false,
      "t": 68910.92192187498,
      "d": 270.7181640625058,
      "v": 108
    },
    {
      "midi": 63,
      "hit": false,
      "t": 69204.84449999996,
      "d": 737.9003671874962,
      "v": 1
    },
    {
      "midi": 48,
      "hit": false,
      "t": 69805.06534374999,
      "d": 75.80108593750629,
      "v": 95
    },
    {
      "midi": 62,
      "hit": false,
      "t": 69947.38574999996,
      "d": 737.9003671874962,
      "v": 1
    },
    {
      "midi": 48,
      "hit": false,
      "t": 69953.57359375,
      "d": 106.74030468749697,
      "v": 102
    },
    {
      "midi": 41,
      "hit": false,
      "t": 70098.987921875,
      "d": 366.62974218750605,
      "v": 99
    },
    {
      "midi": 43,
      "hit": false,
      "t": 70541.41875000001,
      "d": 388.28719531249953,
      "v": 99
    },
    {
      "midi": 63,
      "hit": false,
      "t": 70689.92699999995,
      "d": 737.9003671874962,
      "v": 1
    },
    {
      "midi": 44,
      "hit": false,
      "t": 70983.84957812501,
      "d": 283.09385156248754,
      "v": 105
    },
    {
      "midi": 70,
      "hit": false,
      "t": 71280.866078125,
      "d": 1353.5908203125146,
      "v": 108
    },
    {
      "midi": 43,
      "hit": false,
      "t": 71283.95999999999,
      "d": 221.21541406250617,
      "v": 95
    },
    {
      "midi": 65,
      "hit": false,
      "t": 71283.95999999999,
      "d": 1341.2151328125183,
      "v": 96
    },
    {
      "midi": 77,
      "hit": false,
      "t": 71287.05392187499,
      "d": 1369.06042968751,
      "v": 101
    },
    {
      "midi": 62,
      "hit": false,
      "t": 71432.46824999995,
      "d": 589.3921171874972,
      "v": 1
    },
    {
      "midi": 63,
      "hit": false,
      "t": 72026.50124999994,
      "d": 292.3756171874993,
      "v": 1
    },
    {
      "midi": 50,
      "hit": false,
      "t": 72168.82165625,
      "d": 78.89500781250536,
      "v": 95
    },
    {
      "midi": 62,
      "hit": false,
      "t": 72323.51774999994,
      "d": 292.3756171874993,
      "v": 1
    },
    {
      "midi": 50,
      "hit": false,
      "t": 72323.51775000001,
      "d": 122.20991406250687,
      "v": 97
    },
    {
      "midi": 43,
      "hit": false,
      "t": 72468.93207812501,
      "d": 363.5358203124779,
      "v": 103
    },
    {
      "midi": 60,
      "hit": false,
      "t": 72620.53424999994,
      "d": 1183.425117187493,
      "v": 1
    },
    {
      "midi": 68,
      "hit": false,
      "t": 72765.948578125,
      "d": 462.54132031249173,
      "v": 96
    },
    {
      "midi": 79,
      "hit": false,
      "t": 72775.23034375,
      "d": 453.25955468749453,
      "v": 100
    },
    {
      "midi": 72,
      "hit": false,
      "t": 72775.23034375,
      "d": 465.6352421874908,
      "v": 99
    },
    {
      "midi": 46,
      "hit": false,
      "t": 72923.73859375,
      "d": 403.7568046874949,
      "v": 103
    },
    {
      "midi": 67,
      "hit": false,
      "t": 73208.37940625,
      "d": 267.62424218750675,
      "v": 93
    },
    {
      "midi": 70,
      "hit": false,
      "t": 73211.473328125,
      "d": 239.77894531250058,
      "v": 96
    },
    {
      "midi": 77,
      "hit": false,
      "t": 73220.75509374999,
      "d": 279.9999296875176,
      "v": 95
    },
    {
      "midi": 48,
      "hit": false,
      "t": 73366.16942187499,
      "d": 283.09385156251665,
      "v": 105
    },
    {
      "midi": 72,
      "hit": false,
      "t": 73660.092,
      "d": 2192.043648437524,
      "v": 95
    },
    {
      "midi": 41,
      "hit": false,
      "t": 73666.27984375,
      "d": 270.7181640625058,
      "v": 107
    },
    {
      "midi": 79,
      "hit": false,
      "t": 73666.27984375,
      "d": 2161.104429687519,
      "v": 95
    },
    {
      "midi": 68,
      "hit": false,
      "t": 73666.27984375,
      "d": 2185.855804687526,
      "v": 91
    },
    {
      "midi": 63,
      "hit": false,
      "t": 73808.60024999993,
      "d": 589.3921171874972,
      "v": 1
    },
    {
      "midi": 62,
      "hit": false,
      "t": 74402.63324999993,
      "d": 589.3921171874972,
      "v": 1
    },
    {
      "midi": 48,
      "hit": false,
      "t": 74557.32934375001,
      "d": 75.80108593750629,
      "v": 92
    },
    {
      "midi": 48,
      "hit": false,
      "t": 74699.64975000001,
      "d": 106.74030468749697,
      "v": 94
    },
    {
      "midi": 41,
      "hit": false,
      "t": 74848.15800000001,
      "d": 366.62974218750605,
      "v": 106
    },
    {
      "midi": 60,
      "hit": false,
      "t": 74996.66624999992,
      "d": 143.86736718750035,
      "v": 1
    },
    {
      "midi": 62,
      "hit": false,
      "t": 75145.17449999992,
      "d": 292.3756171874993,
      "v": 1
    },
    {
      "midi": 43,
      "hit": false,
      "t": 75296.77667187502,
      "d": 388.28719531249953,
      "v": 93
    },
    {
      "midi": 63,
      "hit": false,
      "t": 75442.19099999992,
      "d": 589.3921171874972,
      "v": 1
    },
    {
      "midi": 44,
      "hit": false,
      "t": 75736.11357812502,
      "d": 283.0938515625021,
      "v": 96
    },
    {
      "midi": 65,
      "hit": false,
      "t": 76033.13007812502,
      "d": 1164.8615859374986,
      "v": 99
    },
    {
      "midi": 65,
      "hit": false,
      "t": 76036.22399999991,
      "d": 589.3921171874972,
      "v": 1
    },
    {
      "midi": 43,
      "hit": false,
      "t": 76039.31792187502,
      "d": 221.21541406250617,
      "v": 98
    },
    {
      "midi": 70,
      "hit": false,
      "t": 76039.31792187502,
      "d": 1143.2041328125051,
      "v": 103
    },
    {
      "midi": 77,
      "hit": false,
      "t": 76039.31792187502,
      "d": 1155.5798203125014,
      "v": 103
    },
    {
      "midi": 67,
      "hit": false,
      "t": 76630.25699999991,
      "d": 292.3756171874993,
      "v": 1
    },
    {
      "midi": 65,
      "hit": false,
      "t": 76927.27349999991,
      "d": 589.3921171874972,
      "v": 1
    },
    {
      "midi": 43,
      "hit": false,
      "t": 76930.36742187502,
      "d": 78.89500781250536,
      "v": 102
    },
    {
      "midi": 43,
      "hit": false,
      "t": 77072.68782812502,
      "d": 122.20991406249232,
      "v": 100
    },
    {
      "midi": 77,
      "hit": false,
      "t": 77221.19607812501,
      "d": 518.2319140624895,
      "v": 95
    },
    {
      "midi": 65,
      "hit": false,
      "t": 77224.29000000001,
      "d": 518.2319140624895,
      "v": 100
    },
    {
      "midi": 48,
      "hit": false,
      "t": 77227.383921875,
      "d": 215.02757031249348,
      "v": 102
    },
    {
      "midi": 70,
      "hit": false,
      "t": 77227.383921875,
      "d": 496.57446093749604,
      "v": 95
    },
    {
      "midi": 36,
      "hit": false,
      "t": 77518.212578125,
      "d": 106.74030468749697,
      "v": 100
    },
    {
      "midi": 63,
      "hit": false,
      "t": 77521.3064999999,
      "d": 589.3921171874972,
      "v": 1
    },
    {
      "midi": 48,
      "hit": false,
      "t": 77666.720828125,
      "d": 728.6186015624844,
      "v": 99
    },
    {
      "midi": 65,
      "hit": false,
      "t": 77812.13515624999,
      "d": 487.29269531249884,
      "v": 97
    },
    {
      "midi": 77,
      "hit": false,
      "t": 77812.13515624999,
      "d": 493.480539062497,
      "v": 107
    },
    {
      "midi": 70,
      "hit": false,
      "t": 77824.51084374999,
      "d": 471.8230859375035,
      "v": 101
    },
    {
      "midi": 38,
      "hit": false,
      "t": 78412.35599999999,
      "d": 641.9887890624959,
      "v": 110
    },
    {
      "midi": 53,
      "hit": false,
      "t": 79000.20115624998,
      "d": 1752.7067421874963,
      "v": 113
    },
    {
      "midi": 64,
      "hit": false,
      "t": 79006.38899999998,
      "d": 1752.7067421874963,
      "v": 109
    },
    {
      "midi": 57,
      "hit": false,
      "t": 79012.57684374998,
      "d": 1752.7067421874963,
      "v": 116
    },
    {
      "midi": 45,
      "hit": false,
      "t": 79303.40549999998,
      "d": 174.8065859375056,
      "v": 97
    },
    {
      "midi": 38,
      "hit": false,
      "t": 79600.42199999999,
      "d": 255.24855468749593,
      "v": 99
    },
    {
      "midi": 40,
      "hit": false,
      "t": 80045.94674999999,
      "d": 329.5026796875027,
      "v": 100
    },
    {
      "midi": 41,
      "hit": false,
      "t": 80491.47149999999,
      "d": 283.09385156248754,
      "v": 104
    },
    {
      "midi": 62,
      "hit": false,
      "t": 80785.39407812497,
      "d": 1177.2372734374803,
      "v": 101
    },
    {
      "midi": 40,
      "hit": false,
      "t": 80788.48799999997,
      "d": 641.9887890624959,
      "v": 101
    },
    {
      "midi": 55,
      "hit": false,
      "t": 80788.48799999997,
      "d": 1146.2980546874896,
      "v": 103
    },
    {
      "midi": 59,
      "hit": false,
      "t": 80791.58192187497,
      "d": 1164.861585937484,
      "v": 110
    },
    {
      "midi": 47,
      "hit": false,
      "t": 81679.53749999996,
      "d": 208.83972656249534,
      "v": 98
    },
    {
      "midi": 40,
      "hit": false,
      "t": 81976.55399999995,
      "d": 255.24855468749593,
      "v": 108
    },
    {
      "midi": 60,
      "hit": false,
      "t": 82267.38265624995,
      "d": 474.917007812488,
      "v": 114
    },
    {
      "midi": 64,
      "hit": false,
      "t": 82273.57049999994,
      "d": 474.917007812488,
      "v": 115
    },
    {
      "midi": 43,
      "hit": false,
      "t": 82422.07874999994,
      "d": 329.5026796874881,
      "v": 109
    },
    {
      "midi": 62,
      "hit": false,
      "t": 82712.90740624994,
      "d": 379.0054296874878,
      "v": 109
    },
    {
      "midi": 59,
      "hit": false,
      "t": 82725.28309374994,
      "d": 379.0054296874878,
      "v": 117
    },
    {
      "midi": 45,
      "hit": false,
      "t": 82867.60349999992,
      "d": 283.0938515625021,
      "v": 108
    },
    {
      "midi": 57,
      "hit": false,
      "t": 83161.52607812492,
      "d": 2346.739742187492,
      "v": 113
    },
    {
      "midi": 64,
      "hit": false,
      "t": 83161.52607812492,
      "d": 2346.739742187492,
      "v": 112
    },
    {
      "midi": 38,
      "hit": false,
      "t": 83164.61999999992,
      "d": 641.9887890624959,
      "v": 101
    },
    {
      "midi": 53,
      "hit": false,
      "t": 83167.71392187492,
      "d": 2346.739742187492,
      "v": 120
    },
    {
      "midi": 45,
      "hit": false,
      "t": 84055.66949999992,
      "d": 174.8065859375056,
      "v": 99
    },
    {
      "midi": 38,
      "hit": false,
      "t": 84352.68599999993,
      "d": 255.24855468749593,
      "v": 104
    },
    {
      "midi": 40,
      "hit": false,
      "t": 84798.21074999993,
      "d": 329.5026796875027,
      "v": 99
    },
    {
      "midi": 41,
      "hit": false,
      "t": 85243.73549999992,
      "d": 283.09385156248754,
      "v": 103
    },
    {
      "midi": 40,
      "hit": false,
      "t": 85540.7519999999,
      "d": 641.9887890624959,
      "v": 111
    },
    {
      "midi": 55,
      "hit": false,
      "t": 85540.7519999999,
      "d": 2334.3640546874813,
      "v": 110
    },
    {
      "midi": 59,
      "hit": false,
      "t": 85543.8459218749,
      "d": 2346.7397421874775,
      "v": 107
    },
    {
      "midi": 62,
      "hit": false,
      "t": 85546.9398437499,
      "d": 2346.7397421874775,
      "v": 98
    },
    {
      "midi": 47,
      "hit": false,
      "t": 86431.8014999999,
      "d": 208.83972656249534,
      "v": 98
    },
    {
      "midi": 40,
      "hit": false,
      "t": 86728.8179999999,
      "d": 255.24855468749593,
      "v": 107
    },
    {
      "midi": 43,
      "hit": false,
      "t": 87174.3427499999,
      "d": 329.5026796875027,
      "v": 104
    },
    {
      "midi": 45,
      "hit": false,
      "t": 87619.86749999989,
      "d": 283.09385156248754,
      "v": 108
    },
    {
      "midi": 38,
      "hit": false,
      "t": 87916.88399999987,
      "d": 641.9887890624959,
      "v": 101
    },
    {
      "midi": 57,
      "hit": false,
      "t": 88507.82307812487,
      "d": 1752.7067421874963,
      "v": 112
    },
    {
      "midi": 53,
      "hit": false,
      "t": 88510.91699999987,
      "d": 1752.7067421874963,
      "v": 113
    },
    {
      "midi": 64,
      "hit": false,
      "t": 88517.10484374987,
      "d": 1752.7067421874963,
      "v": 114
    },
    {
      "midi": 45,
      "hit": false,
      "t": 88807.93349999987,
      "d": 174.8065859375056,
      "v": 101
    },
    {
      "midi": 38,
      "hit": false,
      "t": 89104.94999999988,
      "d": 255.24855468749593,
      "v": 107
    },
    {
      "midi": 40,
      "hit": false,
      "t": 89550.47474999988,
      "d": 329.5026796875027,
      "v": 109
    },
    {
      "midi": 41,
      "hit": false,
      "t": 89995.99949999987,
      "d": 283.09385156248754,
      "v": 109
    },
    {
      "midi": 40,
      "hit": false,
      "t": 90293.01599999986,
      "d": 641.9887890624959,
      "v": 104
    },
    {
      "midi": 55,
      "hit": false,
      "t": 90296.10992187486,
      "d": 2334.3640546874813,
      "v": 111
    },
    {
      "midi": 62,
      "hit": false,
      "t": 90296.10992187486,
      "d": 2343.6458203124785,
      "v": 102
    },
    {
      "midi": 59,
      "hit": false,
      "t": 90299.20384374986,
      "d": 2343.6458203124785,
      "v": 105
    },
    {
      "midi": 47,
      "hit": false,
      "t": 91184.06549999985,
      "d": 208.83972656249534,
      "v": 104
    },
    {
      "midi": 40,
      "hit": false,
      "t": 91481.08199999985,
      "d": 255.24855468749593,
      "v": 100
    },
    {
      "midi": 43,
      "hit": false,
      "t": 91926.60674999985,
      "d": 329.5026796875027,
      "v": 100
    },
    {
      "midi": 45,
      "hit": false,
      "t": 92372.13149999984,
      "d": 283.09385156248754,
      "v": 103
    },
    {
      "midi": 53,
      "hit": false,
      "t": 92662.96015624983,
      "d": 2346.739742187492,
      "v": 114
    },
    {
      "midi": 38,
      "hit": false,
      "t": 92669.14799999983,
      "d": 641.9887890624959,
      "v": 103
    },
    {
      "midi": 57,
      "hit": false,
      "t": 92675.33584374982,
      "d": 2346.739742187492,
      "v": 113
    },
    {
      "midi": 64,
      "hit": false,
      "t": 92675.33584374982,
      "d": 2346.739742187492,
      "v": 110
    },
    {
      "midi": 45,
      "hit": false,
      "t": 93560.19749999982,
      "d": 174.8065859375056,
      "v": 105
    },
    {
      "midi": 38,
      "hit": false,
      "t": 93857.21399999983,
      "d": 255.24855468749593,
      "v": 108
    },
    {
      "midi": 40,
      "hit": false,
      "t": 94302.73874999983,
      "d": 329.5026796875027,
      "v": 108
    },
    {
      "midi": 41,
      "hit": false,
      "t": 94748.26349999983,
      "d": 283.09385156248754,
      "v": 99
    },
    {
      "midi": 40,
      "hit": false,
      "t": 95045.27999999981,
      "d": 641.9887890624959,
      "v": 105
    },
    {
      "midi": 59,
      "hit": false,
      "t": 95045.27999999981,
      "d": 1158.673742187486,
      "v": 108
    },
    {
      "midi": 55,
      "hit": false,
      "t": 95051.46784374981,
      "d": 1146.2980546874896,
      "v": 106
    },
    {
      "midi": 62,
      "hit": false,
      "t": 95051.46784374981,
      "d": 1158.673742187486,
      "v": 107
    },
    {
      "midi": 45,
      "hit": false,
      "t": 95936.3294999998,
      "d": 208.83972656249534,
      "v": 101
    },
    {
      "midi": 45,
      "hit": false,
      "t": 96233.34599999979,
      "d": 552.2650546874938,
      "v": 104
    },
    {
      "midi": 67,
      "hit": false,
      "t": 96233.34599999979,
      "d": 552.2650546874938,
      "v": 111
    },
    {
      "midi": 71,
      "hit": false,
      "t": 96233.34599999979,
      "d": 564.6407421874901,
      "v": 111
    },
    {
      "midi": 74,
      "hit": false,
      "t": 96239.53384374978,
      "d": 564.6407421874901,
      "v": 105
    },
    {
      "midi": 71,
      "hit": false,
      "t": 96824.28507812477,
      "d": 564.6407421875047,
      "v": 112
    },
    {
      "midi": 45,
      "hit": false,
      "t": 96827.37899999977,
      "d": 283.0938515625021,
      "v": 105
    },
    {
      "midi": 74,
      "hit": false,
      "t": 96830.47292187477,
      "d": 564.6407421875047,
      "v": 97
    },
    {
      "midi": 67,
      "hit": false,
      "t": 96833.56684374977,
      "d": 552.2650546875084,
      "v": 108
    },
    {
      "midi": 64,
      "hit": false,
      "t": 96852.1303749999,
      "d": 283.0938515625021,
      "v": 1
    },
    {
      "midi": 45,
      "hit": false,
      "t": 97124.39549999977,
      "d": 233.59110156250244,
      "v": 107
    },
    {
      "midi": 62,
      "hit": false,
      "t": 97139.8651093749,
      "d": 335.6905234375008,
      "v": 1
    },
    {
      "midi": 38,
      "hit": false,
      "t": 97421.41199999978,
      "d": 641.9887890624959,
      "v": 108
    },
    {
      "midi": 69,
      "hit": false,
      "t": 97421.41199999991,
      "d": 2074.4746171875013,
      "v": 1
    },
    {
      "midi": 53,
      "hit": false,
      "t": 98009.25715624978,
      "d": 1752.7067421874963,
      "v": 117
    },
    {
      "midi": 64,
      "hit": false,
      "t": 98015.44499999977,
      "d": 1752.7067421874963,
      "v": 111
    },
    {
      "midi": 57,
      "hit": false,
      "t": 98021.63284374977,
      "d": 1752.7067421874963,
      "v": 112
    },
    {
      "midi": 45,
      "hit": false,
      "t": 98312.46149999977,
      "d": 174.8065859375056,
      "v": 103
    },
    {
      "midi": 38,
      "hit": false,
      "t": 98609.47799999978,
      "d": 255.24855468749593,
      "v": 99
    },
    {
      "midi": 40,
      "hit": false,
      "t": 99055.00274999978,
      "d": 329.5026796875027,
      "v": 104
    },
    {
      "midi": 41,
      "hit": false,
      "t": 99500.52749999978,
      "d": 283.09385156248754,
      "v": 105
    },
    {
      "midi": 67,
      "hit": false,
      "t": 99500.52749999991,
      "d": 2377.6789609374973,
      "v": 1
    },
    {
      "midi": 62,
      "hit": false,
      "t": 99794.45007812476,
      "d": 1177.2372734374803,
      "v": 100
    },
    {
      "midi": 40,
      "hit": false,
      "t": 99797.54399999976,
      "d": 641.9887890624959,
      "v": 105
    },
    {
      "midi": 55,
      "hit": false,
      "t": 99797.54399999976,
      "d": 1146.2980546874896,
      "v": 110
    },
    {
      "midi": 59,
      "hit": false,
      "t": 99800.63792187476,
      "d": 1164.861585937484,
      "v": 109
    },
    {
      "midi": 47,
      "hit": false,
      "t": 100688.59349999976,
      "d": 208.83972656249534,
      "v": 99
    },
    {
      "midi": 40,
      "hit": false,
      "t": 100985.60999999974,
      "d": 255.24855468749593,
      "v": 108
    },
    {
      "midi": 60,
      "hit": false,
      "t": 101276.43865624974,
      "d": 474.917007812488,
      "v": 113
    },
    {
      "midi": 64,
      "hit": false,
      "t": 101282.62649999974,
      "d": 474.917007812488,
      "v": 117
    },
    {
      "midi": 43,
      "hit": false,
      "t": 101431.13474999974,
      "d": 329.5026796874881,
      "v": 104
    },
    {
      "midi": 62,
      "hit": false,
      "t": 101721.96340624974,
      "d": 379.0054296874878,
      "v": 109
    },
    {
      "midi": 59,
      "hit": false,
      "t": 101734.33909374973,
      "d": 379.0054296874878,
      "v": 117
    },
    {
      "midi": 45,
      "hit": false,
      "t": 101876.65949999972,
      "d": 283.0938515625021,
      "v": 102
    },
    {
      "midi": 62,
      "hit": false,
      "t": 101882.8473437499,
      "d": 283.0938515625021,
      "v": 1
    },
    {
      "midi": 57,
      "hit": false,
      "t": 102170.58207812472,
      "d": 2346.739742187492,
      "v": 115
    },
    {
      "midi": 64,
      "hit": false,
      "t": 102170.58207812472,
      "d": 2346.739742187492,
      "v": 110
    },
    {
      "midi": 74,
      "hit": false,
      "t": 102170.5820781249,
      "d": 589.3921171874972,
      "v": 1
    },
    {
      "midi": 38,
      "hit": false,
      "t": 102173.67599999972,
      "d": 641.9887890624959,
      "v": 107
    },
    {
      "midi": 53,
      "hit": false,
      "t": 102176.76992187471,
      "d": 2346.739742187492,
      "v": 114
    },
    {
      "midi": 72,
      "hit": false,
      "t": 102764.6150781249,
      "d": 598.6738828124944,
      "v": 1
    },
    {
      "midi": 45,
      "hit": false,
      "t": 103064.72549999971,
      "d": 174.8065859375056,
      "v": 106
    },
    {
      "midi": 38,
      "hit": false,
      "t": 103361.74199999972,
      "d": 255.24855468749593,
      "v": 107
    },
    {
      "midi": 69,
      "hit": false,
      "t": 103367.9298437499,
      "d": 577.0164296875009,
      "v": 1
    },
    {
      "midi": 40,
      "hit": false,
      "t": 103807.26674999972,
      "d": 329.5026796875027,
      "v": 103
    },
    {
      "midi": 67,
      "hit": false,
      "t": 103949.5871562499,
      "d": 450.16563281249546,
      "v": 1
    },
    {
      "midi": 41,
      "hit": false,
      "t": 104252.79149999972,
      "d": 283.09385156248754,
      "v": 105
    },
    {
      "midi": 65,
      "hit": false,
      "t": 104404.39367187489,
      "d": 137.6795234375022,
      "v": 1
    },
    {
      "midi": 67,
      "hit": false,
      "t": 104546.71407812489,
      "d": 298.56346093749744,
      "v": 1
    },
    {
      "midi": 40,
      "hit": false,
      "t": 104549.8079999997,
      "d": 641.9887890624959,
      "v": 107
    },
    {
      "midi": 55,
      "hit": false,
      "t": 104549.8079999997,
      "d": 2334.3640546874813,
      "v": 112
    },
    {
      "midi": 59,
      "hit": false,
      "t": 104552.9019218747,
      "d": 2346.7397421874775,
      "v": 108
    },
    {
      "midi": 62,
      "hit": false,
      "t": 104555.9958437497,
      "d": 2346.7397421874775,
      "v": 99
    },
    {
      "midi": 69,
      "hit": false,
      "t": 104849.91842187489,
      "d": 289.28169531250023,
      "v": 1
    },
    {
      "midi": 67,
      "hit": false,
      "t": 105143.84099999988,
      "d": 1777.4581171875034,
      "v": 1
    },
    {
      "midi": 47,
      "hit": false,
      "t": 105440.85749999969,
      "d": 208.83972656249534,
      "v": 99
    },
    {
      "midi": 40,
      "hit": false,
      "t": 105737.87399999969,
      "d": 255.24855468749593,
      "v": 99
    },
    {
      "midi": 43,
      "hit": false,
      "t": 106183.39874999969,
      "d": 329.5026796875027,
      "v": 100
    },
    {
      "midi": 45,
      "hit": false,
      "t": 106628.92349999968,
      "d": 283.09385156248754,
      "v": 108
    },
    {
      "midi": 38,
      "hit": false,
      "t": 106925.93999999967,
      "d": 641.9887890624959,
      "v": 107
    },
    {
      "midi": 57,
      "hit": false,
      "t": 107516.87907812466,
      "d": 1752.7067421874963,
      "v": 115
    },
    {
      "midi": 53,
      "hit": false,
      "t": 107519.97299999966,
      "d": 1752.7067421874963,
      "v": 109
    },
    {
      "midi": 64,
      "hit": false,
      "t": 107526.16084374966,
      "d": 1752.7067421874963,
      "v": 111
    },
    {
      "midi": 45,
      "hit": false,
      "t": 107816.98949999966,
      "d": 174.8065859375056,
      "v": 100
    },
    {
      "midi": 38,
      "hit": false,
      "t": 108114.00599999967,
      "d": 255.24855468749593,
      "v": 106
    },
    {
      "midi": 40,
      "hit": false,
      "t": 108559.53074999967,
      "d": 329.5026796875027,
      "v": 107
    },
    {
      "midi": 41,
      "hit": false,
      "t": 109005.05549999967,
      "d": 283.09385156248754,
      "v": 99
    },
    {
      "midi": 40,
      "hit": false,
      "t": 109302.07199999965,
      "d": 641.9887890624959,
      "v": 104
    },
    {
      "midi": 55,
      "hit": false,
      "t": 109305.16592187465,
      "d": 2334.3640546874813,
      "v": 112
    },
    {
      "midi": 62,
      "hit": false,
      "t": 109305.16592187465,
      "d": 2343.6458203124785,
      "v": 103
    },
    {
      "midi": 59,
      "hit": false,
      "t": 109308.25984374965,
      "d": 2343.6458203124785,
      "v": 112
    },
    {
      "midi": 47,
      "hit": false,
      "t": 110193.12149999964,
      "d": 208.83972656249534,
      "v": 96
    },
    {
      "midi": 40,
      "hit": false,
      "t": 110490.13799999964,
      "d": 255.24855468749593,
      "v": 104
    },
    {
      "midi": 43,
      "hit": false,
      "t": 110935.66274999964,
      "d": 329.5026796875027,
      "v": 100
    },
    {
      "midi": 45,
      "hit": false,
      "t": 111381.18749999964,
      "d": 283.09385156248754,
      "v": 107
    },
    {
      "midi": 53,
      "hit": false,
      "t": 111672.01615624962,
      "d": 2346.739742187492,
      "v": 112
    },
    {
      "midi": 38,
      "hit": false,
      "t": 111678.20399999962,
      "d": 641.9887890624959,
      "v": 109
    },
    {
      "midi": 57,
      "hit": false,
      "t": 111684.39184374962,
      "d": 2346.739742187492,
      "v": 117
    },
    {
      "midi": 64,
      "hit": false,
      "t": 111684.39184374962,
      "d": 2346.739742187492,
      "v": 119
    },
    {
      "midi": 67,
      "hit": false,
      "t": 111832.9000937499,
      "d": 883.314695312496,
      "v": 1
    },
    {
      "midi": 45,
      "hit": false,
      "t": 112569.25349999961,
      "d": 174.8065859375056,
      "v": 106
    },
    {
      "midi": 72,
      "hit": false,
      "t": 112720.85567187489,
      "d": 283.0938515625021,
      "v": 1
    },
    {
      "midi": 38,
      "hit": false,
      "t": 112866.26999999963,
      "d": 255.24855468749593,
      "v": 101
    },
    {
      "midi": 71,
      "hit": false,
      "t": 113008.59040624989,
      "d": 889.5025390624942,
      "v": 1
    },
    {
      "midi": 40,
      "hit": false,
      "t": 113311.79474999962,
      "d": 329.5026796875027,
      "v": 108
    },
    {
      "midi": 41,
      "hit": false,
      "t": 113757.31949999962,
      "d": 283.09385156248754,
      "v": 107
    },
    {
      "midi": 72,
      "hit": false,
      "t": 113902.73382812488,
      "d": 295.46953906249837,
      "v": 1
    },
    {
      "midi": 40,
      "hit": false,
      "t": 114054.3359999996,
      "d": 641.9887890624959,
      "v": 106
    },
    {
      "midi": 59,
      "hit": false,
      "t": 114054.3359999996,
      "d": 1158.673742187486,
      "v": 116
    },
    {
      "midi": 55,
      "hit": false,
      "t": 114060.5238437496,
      "d": 1146.2980546874896,
      "v": 103
    },
    {
      "midi": 62,
      "hit": false,
      "t": 114060.5238437496,
      "d": 1158.673742187486,
      "v": 97
    },
    {
      "midi": 71,
      "hit": false,
      "t": 114202.84424999988,
      "d": 295.46953906249837,
      "v": 1
    },
    {
      "midi": 67,
      "hit": false,
      "t": 114502.95467187488,
      "d": 440.88386718749825,
      "v": 1
    },
    {
      "midi": 45,
      "hit": false,
      "t": 114945.3854999996,
      "d": 208.83972656249534,
      "v": 104
    },
    {
      "midi": 71,
      "hit": false,
      "t": 114948.47942187487,
      "d": 1774.3641953125043,
      "v": 1
    },
    {
      "midi": 45,
      "hit": false,
      "t": 115242.40199999958,
      "d": 552.2650546874938,
      "v": 105
    },
    {
      "midi": 67,
      "hit": false,
      "t": 115242.40199999958,
      "d": 552.2650546874938,
      "v": 111
    },
    {
      "midi": 71,
      "hit": false,
      "t": 115242.40199999958,
      "d": 564.6407421874901,
      "v": 115
    },
    {
      "midi": 74,
      "hit": false,
      "t": 115248.58984374958,
      "d": 564.6407421874901,
      "v": 102
    },
    {
      "midi": 71,
      "hit": false,
      "t": 115833.34107812456,
      "d": 564.6407421875047,
      "v": 107
    },
    {
      "midi": 45,
      "hit": false,
      "t": 115836.43499999956,
      "d": 283.0938515625021,
      "v": 104
    },
    {
      "midi": 74,
      "hit": false,
      "t": 115839.52892187456,
      "d": 564.6407421875047,
      "v": 102
    },
    {
      "midi": 67,
      "hit": false,
      "t": 115842.62284374956,
      "d": 552.2650546875084,
      "v": 107
    },
    {
      "midi": 45,
      "hit": false,
      "t": 116133.45149999956,
      "d": 233.59110156250244,
      "v": 103
    },
    {
      "midi": 79,
      "hit": false,
      "t": 116430.46799999957,
      "d": 2244.640320312523,
      "v": 95
    },
    {
      "midi": 68,
      "hit": false,
      "t": 116430.46799999957,
      "d": 2250.828164062521,
      "v": 104
    },
    {
      "midi": 72,
      "hit": false,
      "t": 116430.46799999957,
      "d": 2260.109929687518,
      "v": 109
    },
    {
      "midi": 41,
      "hit": false,
      "t": 116433.56192187457,
      "d": 270.7181640625058,
      "v": 101
    },
    {
      "midi": 63,
      "hit": false,
      "t": 116727.48449999987,
      "d": 737.9003671874962,
      "v": 1
    },
    {
      "midi": 48,
      "hit": false,
      "t": 117327.70534374958,
      "d": 75.80108593750629,
      "v": 99
    },
    {
      "midi": 62,
      "hit": false,
      "t": 117470.02574999987,
      "d": 737.9003671874962,
      "v": 1
    },
    {
      "midi": 48,
      "hit": false,
      "t": 117476.21359374959,
      "d": 106.74030468749697,
      "v": 93
    },
    {
      "midi": 41,
      "hit": false,
      "t": 117621.62792187459,
      "d": 366.62974218750605,
      "v": 101
    },
    {
      "midi": 43,
      "hit": false,
      "t": 118064.0587499996,
      "d": 388.28719531249953,
      "v": 96
    },
    {
      "midi": 63,
      "hit": false,
      "t": 118212.56699999986,
      "d": 886.4086171874951,
      "v": 1
    },
    {
      "midi": 44,
      "hit": false,
      "t": 118506.4895781246,
      "d": 283.09385156248754,
      "v": 98
    },
    {
      "midi": 70,
      "hit": false,
      "t": 118803.50607812458,
      "d": 1353.5908203125146,
      "v": 104
    },
    {
      "midi": 43,
      "hit": false,
      "t": 118806.59999999958,
      "d": 221.21541406250617,
      "v": 96
    },
    {
      "midi": 65,
      "hit": false,
      "t": 118806.59999999958,
      "d": 1341.2151328125183,
      "v": 102
    },
    {
      "midi": 77,
      "hit": false,
      "t": 118809.69392187458,
      "d": 1369.06042968751,
      "v": 101
    },
    {
      "midi": 62,
      "hit": false,
      "t": 119103.61649999986,
      "d": 589.3921171874972,
      "v": 1
    },
    {
      "midi": 50,
      "hit": false,
      "t": 119691.4616562496,
      "d": 78.89500781250536,
      "v": 100
    },
    {
      "midi": 63,
      "hit": false,
      "t": 119697.64949999985,
      "d": 143.86736718750035,
      "v": 1
    },
    {
      "midi": 50,
      "hit": false,
      "t": 119846.1577499996,
      "d": 122.20991406250687,
      "v": 101
    },
    {
      "midi": 62,
      "hit": false,
      "t": 119846.15774999985,
      "d": 292.3756171874993,
      "v": 1
    },
    {
      "midi": 43,
      "hit": false,
      "t": 119991.5720781246,
      "d": 363.5358203124779,
      "v": 98
    },
    {
      "midi": 60,
      "hit": false,
      "t": 120143.17424999985,
      "d": 1331.9333671875065,
      "v": 1
    },
    {
      "midi": 68,
      "hit": false,
      "t": 120288.58857812459,
      "d": 462.54132031249173,
      "v": 94
    },
    {
      "midi": 79,
      "hit": false,
      "t": 120297.87034374959,
      "d": 453.25955468749453,
      "v": 96
    },
    {
      "midi": 72,
      "hit": false,
      "t": 120297.87034374959,
      "d": 465.6352421874908,
      "v": 98
    },
    {
      "midi": 46,
      "hit": false,
      "t": 120446.37859374958,
      "d": 403.7568046874949,
      "v": 105
    },
    {
      "midi": 67,
      "hit": false,
      "t": 120731.01940624959,
      "d": 267.62424218750675,
      "v": 97
    },
    {
      "midi": 70,
      "hit": false,
      "t": 120734.11332812459,
      "d": 239.77894531250058,
      "v": 94
    },
    {
      "midi": 77,
      "hit": false,
      "t": 120743.39509374958,
      "d": 279.9999296875176,
      "v": 88
    },
    {
      "midi": 48,
      "hit": false,
      "t": 120888.80942187458,
      "d": 283.09385156251665,
      "v": 102
    },
    {
      "midi": 72,
      "hit": false,
      "t": 121182.7319999996,
      "d": 2192.043648437524,
      "v": 98
    },
    {
      "midi": 41,
      "hit": false,
      "t": 121188.9198437496,
      "d": 270.7181640625058,
      "v": 103
    },
    {
      "midi": 79,
      "hit": false,
      "t": 121188.9198437496,
      "d": 2161.104429687519,
      "v": 96
    },
    {
      "midi": 68,
      "hit": false,
      "t": 121188.9198437496,
      "d": 2185.855804687526,
      "v": 92
    },
    {
      "midi": 63,
      "hit": false,
      "t": 121479.74849999986,
      "d": 737.9003671874962,
      "v": 1
    },
    {
      "midi": 48,
      "hit": false,
      "t": 122079.9693437496,
      "d": 75.80108593750629,
      "v": 100
    },
    {
      "midi": 48,
      "hit": false,
      "t": 122222.2897499996,
      "d": 106.74030468749697,
      "v": 92
    },
    {
      "midi": 62,
      "hit": false,
      "t": 122222.28974999985,
      "d": 737.9003671874962,
      "v": 1
    },
    {
      "midi": 41,
      "hit": false,
      "t": 122370.7979999996,
      "d": 366.62974218750605,
      "v": 98
    },
    {
      "midi": 43,
      "hit": false,
      "t": 122819.41667187461,
      "d": 388.28719531249953,
      "v": 98
    },
    {
      "midi": 63,
      "hit": false,
      "t": 122964.83099999985,
      "d": 589.3921171874972,
      "v": 1
    },
    {
      "midi": 44,
      "hit": false,
      "t": 123258.75357812461,
      "d": 283.0938515625021,
      "v": 101
    },
    {
      "midi": 67,
      "hit": false,
      "t": 123555.77007812461,
      "d": 1164.8615859374986,
      "v": 96
    },
    {
      "midi": 65,
      "hit": false,
      "t": 123558.86399999984,
      "d": 589.3921171874972,
      "v": 1
    },
    {
      "midi": 43,
      "hit": false,
      "t": 123561.95792187461,
      "d": 221.21541406250617,
      "v": 103
    },
    {
      "midi": 70,
      "hit": false,
      "t": 123561.95792187461,
      "d": 1143.2041328125051,
      "v": 106
    },
    {
      "midi": 77,
      "hit": false,
      "t": 123561.95792187461,
      "d": 1155.5798203125014,
      "v": 102
    },
    {
      "midi": 67,
      "hit": false,
      "t": 124152.89699999984,
      "d": 292.3756171874993,
      "v": 1
    },
    {
      "midi": 65,
      "hit": false,
      "t": 124449.91349999984,
      "d": 589.3921171874972,
      "v": 1
    },
    {
      "midi": 50,
      "hit": false,
      "t": 124453.00742187462,
      "d": 78.89500781250536,
      "v": 91
    },
    {
      "midi": 50,
      "hit": false,
      "t": 124595.32782812462,
      "d": 122.20991406249232,
      "v": 100
    },
    {
      "midi": 77,
      "hit": false,
      "t": 124743.8360781246,
      "d": 518.2319140625041,
      "v": 99
    },
    {
      "midi": 67,
      "hit": false,
      "t": 124746.9299999996,
      "d": 518.2319140625041,
      "v": 95
    },
    {
      "midi": 43,
      "hit": false,
      "t": 124750.0239218746,
      "d": 363.535820312507,
      "v": 104
    },
    {
      "midi": 70,
      "hit": false,
      "t": 124750.0239218746,
      "d": 496.5744609375106,
      "v": 102
    },
    {
      "midi": 63,
      "hit": false,
      "t": 125043.94649999983,
      "d": 1183.425117187493,
      "v": 1
    },
    {
      "midi": 46,
      "hit": false,
      "t": 125189.36082812461,
      "d": 403.7568046874803,
      "v": 99
    },
    {
      "midi": 67,
      "hit": false,
      "t": 125334.7751562496,
      "d": 487.29269531249884,
      "v": 96
    },
    {
      "midi": 77,
      "hit": false,
      "t": 125334.7751562496,
      "d": 493.480539062497,
      "v": 97
    },
    {
      "midi": 70,
      "hit": false,
      "t": 125347.1508437496,
      "d": 471.8230859375035,
      "v": 100
    },
    {
      "midi": 48,
      "hit": false,
      "t": 125634.8855781246,
      "d": 283.0938515625021,
      "v": 100
    },
    {
      "midi": 79,
      "hit": false,
      "t": 125934.99599999959,
      "d": 2244.640320312523,
      "v": 103
    },
    {
      "midi": 68,
      "hit": false,
      "t": 125934.99599999959,
      "d": 2250.828164062521,
      "v": 102
    },
    {
      "midi": 72,
      "hit": false,
      "t": 125934.99599999959,
      "d": 2260.109929687518,
      "v": 103
    },
    {
      "midi": 41,
      "hit": false,
      "t": 125938.08992187459,
      "d": 270.7181640625058,
      "v": 104
    },
    {
      "midi": 63,
      "hit": false,
      "t": 126232.01249999982,
      "d": 737.9003671874962,
      "v": 1
    },
    {
      "midi": 48,
      "hit": false,
      "t": 126832.2333437496,
      "d": 75.80108593750629,
      "v": 92
    },
    {
      "midi": 62,
      "hit": false,
      "t": 126974.55374999982,
      "d": 737.9003671874962,
      "v": 1
    },
    {
      "midi": 48,
      "hit": false,
      "t": 126980.74159374961,
      "d": 106.74030468749697,
      "v": 100
    },
    {
      "midi": 41,
      "hit": false,
      "t": 127126.15592187461,
      "d": 366.62974218750605,
      "v": 100
    },
    {
      "midi": 43,
      "hit": false,
      "t": 127568.58674999962,
      "d": 388.28719531249953,
      "v": 103
    },
    {
      "midi": 63,
      "hit": false,
      "t": 127717.09499999981,
      "d": 737.9003671874962,
      "v": 1
    },
    {
      "midi": 44,
      "hit": false,
      "t": 128011.01757812462,
      "d": 283.09385156248754,
      "v": 105
    },
    {
      "midi": 70,
      "hit": false,
      "t": 128308.0340781246,
      "d": 1353.5908203125146,
      "v": 102
    },
    {
      "midi": 43,
      "hit": false,
      "t": 128311.1279999996,
      "d": 221.21541406250617,
      "v": 103
    },
    {
      "midi": 65,
      "hit": false,
      "t": 128311.1279999996,
      "d": 1341.2151328125183,
      "v": 103
    },
    {
      "midi": 77,
      "hit": false,
      "t": 128314.2219218746,
      "d": 1369.06042968751,
      "v": 106
    },
    {
      "midi": 62,
      "hit": false,
      "t": 128459.6362499998,
      "d": 589.3921171874972,
      "v": 1
    },
    {
      "midi": 63,
      "hit": false,
      "t": 129053.6692499998,
      "d": 292.3756171874993,
      "v": 1
    },
    {
      "midi": 50,
      "hit": false,
      "t": 129195.98965624961,
      "d": 78.89500781250536,
      "v": 100
    },
    {
      "midi": 50,
      "hit": false,
      "t": 129350.68574999963,
      "d": 122.20991406250687,
      "v": 102
    },
    {
      "midi": 62,
      "hit": false,
      "t": 129350.6857499998,
      "d": 292.3756171874993,
      "v": 1
    },
    {
      "midi": 43,
      "hit": false,
      "t": 129496.10007812463,
      "d": 363.5358203124779,
      "v": 107
    },
    {
      "midi": 60,
      "hit": false,
      "t": 129647.7022499998,
      "d": 1183.425117187493,
      "v": 1
    },
    {
      "midi": 68,
      "hit": false,
      "t": 129793.11657812461,
      "d": 462.54132031249173,
      "v": 93
    },
    {
      "midi": 79,
      "hit": false,
      "t": 129802.3983437496,
      "d": 453.25955468749453,
      "v": 97
    },
    {
      "midi": 72,
      "hit": false,
      "t": 129802.3983437496,
      "d": 465.6352421874908,
      "v": 104
    },
    {
      "midi": 46,
      "hit": false,
      "t": 129950.9065937496,
      "d": 403.7568046874949,
      "v": 99
    },
    {
      "midi": 67,
      "hit": false,
      "t": 130235.5474062496,
      "d": 267.62424218750675,
      "v": 98
    },
    {
      "midi": 70,
      "hit": false,
      "t": 130238.6413281246,
      "d": 239.77894531250058,
      "v": 96
    },
    {
      "midi": 77,
      "hit": false,
      "t": 130247.9230937496,
      "d": 279.9999296875176,
      "v": 97
    },
    {
      "midi": 48,
      "hit": false,
      "t": 130393.3374218746,
      "d": 283.09385156251665,
      "v": 96
    },
    {
      "midi": 72,
      "hit": false,
      "t": 130687.25999999962,
      "d": 2192.043648437524,
      "v": 95
    },
    {
      "midi": 41,
      "hit": false,
      "t": 130693.44784374961,
      "d": 270.7181640625058,
      "v": 101
    },
    {
      "midi": 79,
      "hit": false,
      "t": 130693.44784374961,
      "d": 2161.1044296875334,
      "v": 100
    },
    {
      "midi": 68,
      "hit": false,
      "t": 130693.44784374961,
      "d": 2185.855804687526,
      "v": 93
    },
    {
      "midi": 63,
      "hit": false,
      "t": 130835.76824999979,
      "d": 589.3921171874972,
      "v": 1
    },
    {
      "midi": 62,
      "hit": false,
      "t": 131429.8012499998,
      "d": 589.3921171874972,
      "v": 1
    },
    {
      "midi": 48,
      "hit": false,
      "t": 131584.49734374962,
      "d": 75.80108593750629,
      "v": 101
    },
    {
      "midi": 48,
      "hit": false,
      "t": 131726.81774999964,
      "d": 106.74030468749697,
      "v": 98
    },
    {
      "midi": 41,
      "hit": false,
      "t": 131875.32599999962,
      "d": 366.62974218750605,
      "v": 98
    },
    {
      "midi": 60,
      "hit": false,
      "t": 132023.83424999978,
      "d": 143.8673671874858,
      "v": 1
    },
    {
      "midi": 62,
      "hit": false,
      "t": 132172.34249999977,
      "d": 292.3756171874993,
      "v": 1
    },
    {
      "midi": 43,
      "hit": false,
      "t": 132323.94467187463,
      "d": 388.28719531249953,
      "v": 93
    },
    {
      "midi": 63,
      "hit": false,
      "t": 132469.35899999976,
      "d": 589.3921171874972,
      "v": 1
    },
    {
      "midi": 44,
      "hit": false,
      "t": 132763.28157812465,
      "d": 283.0938515625021,
      "v": 102
    },
    {
      "midi": 65,
      "hit": false,
      "t": 133060.29807812464,
      "d": 1164.8615859374986,
      "v": 103
    },
    {
      "midi": 65,
      "hit": false,
      "t": 133063.39199999976,
      "d": 589.3921171874972,
      "v": 1
    },
    {
      "midi": 43,
      "hit": false,
      "t": 133066.48592187464,
      "d": 221.21541406249162,
      "v": 98
    },
    {
      "midi": 70,
      "hit": false,
      "t": 133066.48592187464,
      "d": 1143.2041328125051,
      "v": 104
    },
    {
      "midi": 77,
      "hit": false,
      "t": 133066.48592187464,
      "d": 1155.5798203125014,
      "v": 98
    },
    {
      "midi": 67,
      "hit": false,
      "t": 133657.42499999976,
      "d": 292.3756171874993,
      "v": 1
    },
    {
      "midi": 65,
      "hit": false,
      "t": 133954.44149999975,
      "d": 589.3921171874972,
      "v": 1
    },
    {
      "midi": 43,
      "hit": false,
      "t": 133957.53542187464,
      "d": 78.89500781250536,
      "v": 98
    },
    {
      "midi": 43,
      "hit": false,
      "t": 134099.85582812465,
      "d": 122.20991406249232,
      "v": 97
    },
    {
      "midi": 77,
      "hit": false,
      "t": 134248.36407812464,
      "d": 518.2319140624895,
      "v": 101
    },
    {
      "midi": 65,
      "hit": false,
      "t": 134251.45799999963,
      "d": 518.2319140624895,
      "v": 94
    },
    {
      "midi": 48,
      "hit": false,
      "t": 134254.55192187463,
      "d": 215.02757031249348,
      "v": 102
    },
    {
      "midi": 70,
      "hit": false,
      "t": 134254.55192187463,
      "d": 496.57446093749604,
      "v": 96
    },
    {
      "midi": 36,
      "hit": false,
      "t": 134545.38057812463,
      "d": 106.74030468749697,
      "v": 107
    },
    {
      "midi": 63,
      "hit": false,
      "t": 134548.47449999975,
      "d": 589.3921171874972,
      "v": 1
    },
    {
      "midi": 48,
      "hit": false,
      "t": 134693.88882812462,
      "d": 728.6186015625135,
      "v": 96
    },
    {
      "midi": 65,
      "hit": false,
      "t": 134839.30315624963,
      "d": 487.29269531249884,
      "v": 95
    },
    {
      "midi": 77,
      "hit": false,
      "t": 134839.30315624963,
      "d": 493.480539062497,
      "v": 102
    },
    {
      "midi": 70,
      "hit": false,
      "t": 134851.67884374963,
      "d": 471.8230859375035,
      "v": 102
    },
    {
      "midi": 79,
      "hit": false,
      "t": 135439.52399999963,
      "d": 2244.640320312523,
      "v": 102
    },
    {
      "midi": 68,
      "hit": false,
      "t": 135439.52399999963,
      "d": 2250.828164062521,
      "v": 104
    },
    {
      "midi": 72,
      "hit": false,
      "t": 135439.52399999963,
      "d": 2260.109929687518,
      "v": 99
    },
    {
      "midi": 41,
      "hit": false,
      "t": 135442.61792187463,
      "d": 270.7181640625058,
      "v": 105
    },
    {
      "midi": 63,
      "hit": false,
      "t": 135755.10403124974,
      "d": 2055.9110859374923,
      "v": 1
    },
    {
      "midi": 67,
      "hit": false,
      "t": 135758.19795312473,
      "d": 2052.8171640624932,
      "v": 1
    },
    {
      "midi": 48,
      "hit": false,
      "t": 136336.76134374962,
      "d": 75.80108593750629,
      "v": 96
    },
    {
      "midi": 48,
      "hit": false,
      "t": 136485.26959374963,
      "d": 106.74030468749697,
      "v": 101
    },
    {
      "midi": 41,
      "hit": false,
      "t": 136630.68392187462,
      "d": 366.62974218750605,
      "v": 96
    },
    {
      "midi": 43,
      "hit": false,
      "t": 137073.11474999963,
      "d": 388.28719531249953,
      "v": 103
    },
    {
      "midi": 44,
      "hit": false,
      "t": 137515.54557812464,
      "d": 283.0938515625021,
      "v": 106
    },
    {
      "midi": 70,
      "hit": false,
      "t": 137812.56207812464,
      "d": 1353.5908203125,
      "v": 100
    },
    {
      "midi": 43,
      "hit": false,
      "t": 137815.65599999964,
      "d": 221.21541406249162,
      "v": 102
    },
    {
      "midi": 65,
      "hit": false,
      "t": 137815.65599999964,
      "d": 1341.2151328125037,
      "v": 103
    },
    {
      "midi": 77,
      "hit": false,
      "t": 137818.74992187464,
      "d": 1369.0604296874953,
      "v": 100
    },
    {
      "midi": 50,
      "hit": false,
      "t": 138700.51765624963,
      "d": 78.89500781250536,
      "v": 97
    },
    {
      "midi": 50,
      "hit": false,
      "t": 138855.21374999965,
      "d": 122.20991406249232,
      "v": 100
    },
    {
      "midi": 43,
      "hit": false,
      "t": 139000.62807812463,
      "d": 363.535820312507,
      "v": 97
    },
    {
      "midi": 68,
      "hit": false,
      "t": 139297.64457812463,
      "d": 462.5413203125063,
      "v": 98
    },
    {
      "midi": 79,
      "hit": false,
      "t": 139306.92634374963,
      "d": 453.2595546875091,
      "v": 102
    },
    {
      "midi": 72,
      "hit": false,
      "t": 139306.92634374963,
      "d": 465.63524218750536,
      "v": 100
    },
    {
      "midi": 46,
      "hit": false,
      "t": 139455.43459374964,
      "d": 403.7568046874949,
      "v": 104
    },
    {
      "midi": 67,
      "hit": false,
      "t": 139740.07540624964,
      "d": 267.62424218747765,
      "v": 98
    },
    {
      "midi": 70,
      "hit": false,
      "t": 139743.16932812464,
      "d": 239.77894531248603,
      "v": 103
    },
    {
      "midi": 77,
      "hit": false,
      "t": 139752.45109374964,
      "d": 279.9999296874739,
      "v": 92
    },
    {
      "midi": 48,
      "hit": false,
      "t": 139897.86542187462,
      "d": 283.0938515625021,
      "v": 104
    },
    {
      "midi": 72,
      "hit": false,
      "t": 140191.78799999962,
      "d": 2192.0436484375095,
      "v": 98
    },
    {
      "midi": 41,
      "hit": false,
      "t": 140197.97584374962,
      "d": 270.7181640625058,
      "v": 99
    },
    {
      "midi": 79,
      "hit": false,
      "t": 140197.97584374962,
      "d": 2161.104429687519,
      "v": 92
    },
    {
      "midi": 68,
      "hit": false,
      "t": 140197.97584374962,
      "d": 2185.8558046875114,
      "v": 96
    },
    {
      "midi": 63,
      "hit": false,
      "t": 140507.36803124973,
      "d": 2055.9110859374923,
      "v": 1
    },
    {
      "midi": 67,
      "hit": false,
      "t": 140510.46195312473,
      "d": 2052.8171640624932,
      "v": 1
    },
    {
      "midi": 48,
      "hit": false,
      "t": 141089.0253437496,
      "d": 75.80108593750629,
      "v": 102
    },
    {
      "midi": 48,
      "hit": false,
      "t": 141231.34574999963,
      "d": 106.74030468749697,
      "v": 100
    },
    {
      "midi": 41,
      "hit": false,
      "t": 141379.8539999996,
      "d": 366.62974218750605,
      "v": 96
    },
    {
      "midi": 43,
      "hit": false,
      "t": 141828.47267187462,
      "d": 388.28719531249953,
      "v": 103
    },
    {
      "midi": 44,
      "hit": false,
      "t": 142267.80957812464,
      "d": 283.0938515625021,
      "v": 97
    },
    {
      "midi": 67,
      "hit": false,
      "t": 142564.82607812464,
      "d": 1164.8615859374986,
      "v": 99
    },
    {
      "midi": 43,
      "hit": false,
      "t": 142571.01392187463,
      "d": 221.21541406249162,
      "v": 96
    },
    {
      "midi": 70,
      "hit": false,
      "t": 142571.01392187463,
      "d": 1143.2041328125051,
      "v": 101
    },
    {
      "midi": 77,
      "hit": false,
      "t": 142571.01392187463,
      "d": 1155.5798203125014,
      "v": 94
    },
    {
      "midi": 50,
      "hit": false,
      "t": 143462.06342187463,
      "d": 78.89500781250536,
      "v": 100
    },
    {
      "midi": 50,
      "hit": false,
      "t": 143604.38382812464,
      "d": 122.20991406249232,
      "v": 102
    },
    {
      "midi": 77,
      "hit": false,
      "t": 143752.89207812463,
      "d": 518.2319140625186,
      "v": 96
    },
    {
      "midi": 67,
      "hit": false,
      "t": 143755.98599999963,
      "d": 518.2319140625186,
      "v": 99
    },
    {
      "midi": 43,
      "hit": false,
      "t": 143759.07992187463,
      "d": 363.535820312507,
      "v": 101
    },
    {
      "midi": 70,
      "hit": false,
      "t": 143759.07992187463,
      "d": 496.57446093752515,
      "v": 94
    },
    {
      "midi": 46,
      "hit": false,
      "t": 144198.41682812464,
      "d": 403.756804687524,
      "v": 102
    },
    {
      "midi": 67,
      "hit": false,
      "t": 144343.83115624965,
      "d": 487.29269531249884,
      "v": 102
    },
    {
      "midi": 77,
      "hit": false,
      "t": 144343.83115624965,
      "d": 493.480539062497,
      "v": 106
    },
    {
      "midi": 70,
      "hit": false,
      "t": 144356.20684374965,
      "d": 471.8230859375035,
      "v": 95
    },
    {
      "midi": 48,
      "hit": false,
      "t": 144643.94157812465,
      "d": 283.0938515625021,
      "v": 100
    },
    {
      "midi": 79,
      "hit": false,
      "t": 144944.05199999965,
      "d": 2244.640320312523,
      "v": 104
    },
    {
      "midi": 68,
      "hit": false,
      "t": 144944.05199999965,
      "d": 2250.828164062521,
      "v": 101
    },
    {
      "midi": 72,
      "hit": false,
      "t": 144944.05199999965,
      "d": 2260.109929687518,
      "v": 106
    },
    {
      "midi": 41,
      "hit": false,
      "t": 144947.14592187465,
      "d": 270.7181640625058,
      "v": 104
    },
    {
      "midi": 63,
      "hit": false,
      "t": 145259.63203124973,
      "d": 2055.9110859374923,
      "v": 1
    },
    {
      "midi": 67,
      "hit": false,
      "t": 145262.72595312473,
      "d": 2052.8171640624932,
      "v": 1
    },
    {
      "midi": 48,
      "hit": false,
      "t": 145841.28934374964,
      "d": 75.80108593750629,
      "v": 100
    },
    {
      "midi": 48,
      "hit": false,
      "t": 145989.79759374965,
      "d": 106.74030468749697,
      "v": 99
    },
    {
      "midi": 41,
      "hit": false,
      "t": 146135.21192187464,
      "d": 366.62974218750605,
      "v": 100
    },
    {
      "midi": 43,
      "hit": false,
      "t": 146577.64274999965,
      "d": 388.28719531249953,
      "v": 95
    },
    {
      "midi": 44,
      "hit": false,
      "t": 147020.07357812466,
      "d": 283.0938515625021,
      "v": 100
    },
    {
      "midi": 70,
      "hit": false,
      "t": 147317.09007812466,
      "d": 1353.5908203125,
      "v": 99
    },
    {
      "midi": 43,
      "hit": false,
      "t": 147320.18399999966,
      "d": 221.21541406249162,
      "v": 104
    },
    {
      "midi": 65,
      "hit": false,
      "t": 147320.18399999966,
      "d": 1341.2151328125037,
      "v": 102
    },
    {
      "midi": 77,
      "hit": false,
      "t": 147323.27792187466,
      "d": 1369.0604296874953,
      "v": 104
    },
    {
      "midi": 50,
      "hit": false,
      "t": 148205.04565624965,
      "d": 78.89500781250536,
      "v": 100
    },
    {
      "midi": 50,
      "hit": false,
      "t": 148359.74174999967,
      "d": 122.20991406249232,
      "v": 95
    },
    {
      "midi": 43,
      "hit": false,
      "t": 148505.15607812465,
      "d": 363.535820312507,
      "v": 102
    },
    {
      "midi": 68,
      "hit": false,
      "t": 148802.17257812465,
      "d": 462.5413203125063,
      "v": 96
    },
    {
      "midi": 79,
      "hit": false,
      "t": 148811.45434374965,
      "d": 453.2595546875091,
      "v": 97
    },
    {
      "midi": 72,
      "hit": false,
      "t": 148811.45434374965,
      "d": 465.63524218750536,
      "v": 96
    },
    {
      "midi": 46,
      "hit": false,
      "t": 148959.96259374966,
      "d": 403.7568046874949,
      "v": 106
    },
    {
      "midi": 67,
      "hit": false,
      "t": 149244.60340624966,
      "d": 267.62424218747765,
      "v": 97
    },
    {
      "midi": 70,
      "hit": false,
      "t": 149247.69732812466,
      "d": 239.77894531248603,
      "v": 95
    },
    {
      "midi": 77,
      "hit": false,
      "t": 149256.97909374966,
      "d": 279.9999296874739,
      "v": 95
    },
    {
      "midi": 48,
      "hit": false,
      "t": 149402.39342187464,
      "d": 283.0938515625021,
      "v": 105
    },
    {
      "midi": 72,
      "hit": false,
      "t": 149696.31599999964,
      "d": 2192.0436484375095,
      "v": 94
    },
    {
      "midi": 70,
      "hit": false,
      "t": 149696.31599999973,
      "d": 484.19877343749977,
      "v": 1
    },
    {
      "midi": 41,
      "hit": false,
      "t": 149702.50384374964,
      "d": 270.7181640625058,
      "v": 99
    },
    {
      "midi": 79,
      "hit": false,
      "t": 149702.50384374964,
      "d": 2161.104429687519,
      "v": 94
    },
    {
      "midi": 68,
      "hit": false,
      "t": 149702.50384374964,
      "d": 2185.8558046875114,
      "v": 91
    },
    {
      "midi": 67,
      "hit": false,
      "t": 150185.15565624973,
      "d": 716.2429140624881,
      "v": 1
    },
    {
      "midi": 48,
      "hit": false,
      "t": 150593.55334374963,
      "d": 75.80108593750629,
      "v": 103
    },
    {
      "midi": 48,
      "hit": false,
      "t": 150735.87374999965,
      "d": 106.74030468749697,
      "v": 98
    },
    {
      "midi": 41,
      "hit": false,
      "t": 150884.38199999963,
      "d": 366.62974218750605,
      "v": 101
    },
    {
      "midi": 70,
      "hit": false,
      "t": 150906.03945312471,
      "d": 400.6628828124958,
      "v": 1
    },
    {
      "midi": 67,
      "hit": false,
      "t": 151311.3432187497,
      "d": 768.8395859375014,
      "v": 1
    },
    {
      "midi": 43,
      "hit": false,
      "t": 151333.00067187464,
      "d": 388.28719531249953,
      "v": 95
    },
    {
      "midi": 44,
      "hit": false,
      "t": 151772.33757812466,
      "d": 283.0938515625021,
      "v": 97
    },
    {
      "midi": 65,
      "hit": false,
      "t": 152069.35407812466,
      "d": 1164.8615859374986,
      "v": 96
    },
    {
      "midi": 43,
      "hit": false,
      "t": 152075.54192187465,
      "d": 221.21541406249162,
      "v": 96
    },
    {
      "midi": 70,
      "hit": false,
      "t": 152075.54192187465,
      "d": 1143.2041328125051,
      "v": 106
    },
    {
      "midi": 77,
      "hit": false,
      "t": 152075.54192187465,
      "d": 1155.5798203125014,
      "v": 101
    },
    {
      "midi": 70,
      "hit": false,
      "t": 152084.8236874997,
      "d": 437.78994531251374,
      "v": 1
    },
    {
      "midi": 67,
      "hit": false,
      "t": 152527.25451562472,
      "d": 781.2152734374977,
      "v": 1
    },
    {
      "midi": 43,
      "hit": false,
      "t": 152966.59142187465,
      "d": 78.89500781250536,
      "v": 98
    },
    {
      "midi": 43,
      "hit": false,
      "t": 153108.91182812466,
      "d": 122.20991406249232,
      "v": 93
    },
    {
      "midi": 77,
      "hit": false,
      "t": 153257.42007812465,
      "d": 518.2319140624895,
      "v": 95
    },
    {
      "midi": 65,
      "hit": false,
      "t": 153260.51399999965,
      "d": 518.2319140624895,
      "v": 97
    },
    {
      "midi": 48,
      "hit": false,
      "t": 153263.60792187465,
      "d": 215.02757031249348,
      "v": 101
    },
    {
      "midi": 70,
      "hit": false,
      "t": 153263.60792187465,
      "d": 496.57446093749604,
      "v": 104
    },
    {
      "midi": 70,
      "hit": false,
      "t": 153313.11067187472,
      "d": 552.2650546875084,
      "v": 1
    },
    {
      "midi": 36,
      "hit": false,
      "t": 153554.43657812465,
      "d": 106.74030468749697,
      "v": 107
    },
    {
      "midi": 48,
      "hit": false,
      "t": 153702.94482812463,
      "d": 728.6186015625135,
      "v": 100
    },
    {
      "midi": 65,
      "hit": false,
      "t": 153848.35915624964,
      "d": 487.29269531249884,
      "v": 96
    },
    {
      "midi": 77,
      "hit": false,
      "t": 153848.35915624964,
      "d": 493.480539062497,
      "v": 102
    },
    {
      "midi": 70,
      "hit": false,
      "t": 153860.73484374964,
      "d": 471.8230859375035,
      "v": 99
    },
    {
      "midi": 75,
      "hit": false,
      "t": 153870.01660937472,
      "d": 2356.0215078124893,
      "v": 1
    },
    {
      "midi": 79,
      "hit": false,
      "t": 154448.57999999964,
      "d": 2244.640320312523,
      "v": 98
    },
    {
      "midi": 68,
      "hit": false,
      "t": 154448.57999999964,
      "d": 2250.828164062521,
      "v": 103
    },
    {
      "midi": 72,
      "hit": false,
      "t": 154448.57999999964,
      "d": 2260.109929687518,
      "v": 104
    },
    {
      "midi": 41,
      "hit": false,
      "t": 154451.67392187464,
      "d": 270.7181640625058,
      "v": 102
    },
    {
      "midi": 48,
      "hit": false,
      "t": 155345.81734374963,
      "d": 75.80108593750629,
      "v": 92
    },
    {
      "midi": 48,
      "hit": false,
      "t": 155494.32559374964,
      "d": 106.74030468749697,
      "v": 102
    },
    {
      "midi": 41,
      "hit": false,
      "t": 155639.73992187463,
      "d": 366.62974218750605,
      "v": 101
    },
    {
      "midi": 43,
      "hit": false,
      "t": 156082.17074999964,
      "d": 388.28719531249953,
      "v": 103
    },
    {
      "midi": 44,
      "hit": false,
      "t": 156524.60157812465,
      "d": 283.0938515625021,
      "v": 100
    },
    {
      "midi": 70,
      "hit": false,
      "t": 156821.61807812465,
      "d": 1353.5908203125,
      "v": 100
    },
    {
      "midi": 43,
      "hit": false,
      "t": 156824.71199999965,
      "d": 221.21541406249162,
      "v": 97
    },
    {
      "midi": 65,
      "hit": false,
      "t": 156824.71199999965,
      "d": 1341.2151328125037,
      "v": 98
    },
    {
      "midi": 77,
      "hit": false,
      "t": 156827.80592187465,
      "d": 1369.0604296874953,
      "v": 97
    },
    {
      "midi": 50,
      "hit": false,
      "t": 157709.57365624965,
      "d": 78.89500781250536,
      "v": 98
    },
    {
      "midi": 50,
      "hit": false,
      "t": 157864.26974999966,
      "d": 122.20991406249232,
      "v": 98
    },
    {
      "midi": 43,
      "hit": false,
      "t": 158009.68407812464,
      "d": 363.535820312507,
      "v": 100
    },
    {
      "midi": 68,
      "hit": false,
      "t": 158306.70057812464,
      "d": 462.5413203125063,
      "v": 100
    },
    {
      "midi": 79,
      "hit": false,
      "t": 158315.98234374964,
      "d": 453.2595546875091,
      "v": 95
    },
    {
      "midi": 72,
      "hit": false,
      "t": 158315.98234374964,
      "d": 465.63524218750536,
      "v": 94
    },
    {
      "midi": 46,
      "hit": false,
      "t": 158464.49059374965,
      "d": 403.7568046874949,
      "v": 107
    },
    {
      "midi": 67,
      "hit": false,
      "t": 158749.13140624965,
      "d": 267.62424218747765,
      "v": 96
    },
    {
      "midi": 70,
      "hit": false,
      "t": 158752.22532812465,
      "d": 239.77894531248603,
      "v": 94
    },
    {
      "midi": 77,
      "hit": false,
      "t": 158761.50709374965,
      "d": 279.9999296874739,
      "v": 95
    },
    {
      "midi": 48,
      "hit": false,
      "t": 158906.92142187463,
      "d": 283.0938515625021,
      "v": 99
    },
    {
      "midi": 72,
      "hit": false,
      "t": 159200.84399999963,
      "d": 2192.0436484375095,
      "v": 96
    },
    {
      "midi": 41,
      "hit": false,
      "t": 159207.03184374963,
      "d": 270.7181640625058,
      "v": 100
    },
    {
      "midi": 79,
      "hit": false,
      "t": 159207.03184374963,
      "d": 2161.104429687519,
      "v": 93
    },
    {
      "midi": 68,
      "hit": false,
      "t": 159207.03184374963,
      "d": 2185.8558046875114,
      "v": 100
    },
    {
      "midi": 48,
      "hit": false,
      "t": 160098.08134374963,
      "d": 75.80108593750629,
      "v": 92
    },
    {
      "midi": 48,
      "hit": false,
      "t": 160240.40174999964,
      "d": 106.74030468749697,
      "v": 103
    },
    {
      "midi": 41,
      "hit": false,
      "t": 160388.90999999963,
      "d": 366.62974218750605,
      "v": 102
    },
    {
      "midi": 43,
      "hit": false,
      "t": 160837.52867187464,
      "d": 388.28719531249953,
      "v": 101
    },
    {
      "midi": 44,
      "hit": false,
      "t": 161276.86557812465,
      "d": 283.0938515625021,
      "v": 102
    },
    {
      "midi": 67,
      "hit": false,
      "t": 161573.88207812465,
      "d": 1164.8615859374986,
      "v": 94
    },
    {
      "midi": 43,
      "hit": false,
      "t": 161580.06992187464,
      "d": 221.21541406249162,
      "v": 98
    },
    {
      "midi": 70,
      "hit": false,
      "t": 161580.06992187464,
      "d": 1143.2041328125051,
      "v": 99
    },
    {
      "midi": 77,
      "hit": false,
      "t": 161580.06992187464,
      "d": 1155.5798203125014,
      "v": 97
    },
    {
      "midi": 50,
      "hit": false,
      "t": 162471.11942187464,
      "d": 78.89500781250536,
      "v": 91
    },
    {
      "midi": 50,
      "hit": false,
      "t": 162613.43982812465,
      "d": 122.20991406249232,
      "v": 92
    },
    {
      "midi": 77,
      "hit": false,
      "t": 162761.94807812464,
      "d": 518.2319140625186,
      "v": 97
    },
    {
      "midi": 67,
      "hit": false,
      "t": 162765.04199999964,
      "d": 518.2319140625186,
      "v": 100
    },
    {
      "midi": 43,
      "hit": false,
      "t": 162768.13592187464,
      "d": 363.535820312507,
      "v": 102
    },
    {
      "midi": 70,
      "hit": false,
      "t": 162768.13592187464,
      "d": 496.57446093752515,
      "v": 95
    },
    {
      "midi": 46,
      "hit": false,
      "t": 163207.47282812465,
      "d": 403.756804687524,
      "v": 99
    },
    {
      "midi": 67,
      "hit": false,
      "t": 163352.88715624966,
      "d": 487.29269531249884,
      "v": 95
    },
    {
      "midi": 77,
      "hit": false,
      "t": 163352.88715624966,
      "d": 493.480539062497,
      "v": 98
    },
    {
      "midi": 70,
      "hit": false,
      "t": 163365.26284374966,
      "d": 471.8230859375035,
      "v": 100
    },
    {
      "midi": 48,
      "hit": false,
      "t": 163652.99757812466,
      "d": 283.0938515625021,
      "v": 105
    },
    {
      "midi": 79,
      "hit": false,
      "t": 163953.10799999966,
      "d": 2244.640320312523,
      "v": 94
    },
    {
      "midi": 68,
      "hit": false,
      "t": 163953.10799999966,
      "d": 2250.828164062521,
      "v": 99
    },
    {
      "midi": 72,
      "hit": false,
      "t": 163953.10799999966,
      "d": 2260.109929687518,
      "v": 102
    },
    {
      "midi": 41,
      "hit": false,
      "t": 163956.20192187466,
      "d": 270.7181640625058,
      "v": 109
    },
    {
      "midi": 48,
      "hit": false,
      "t": 164850.34534374965,
      "d": 75.80108593750629,
      "v": 94
    },
    {
      "midi": 48,
      "hit": false,
      "t": 164998.85359374966,
      "d": 106.74030468749697,
      "v": 102
    },
    {
      "midi": 41,
      "hit": false,
      "t": 165144.26792187465,
      "d": 366.62974218750605,
      "v": 98
    },
    {
      "midi": 43,
      "hit": false,
      "t": 165586.69874999966,
      "d": 388.28719531249953,
      "v": 103
    },
    {
      "midi": 44,
      "hit": false,
      "t": 166029.12957812467,
      "d": 283.0938515625021,
      "v": 106
    },
    {
      "midi": 70,
      "hit": false,
      "t": 166326.14607812467,
      "d": 1353.5908203125,
      "v": 101
    },
    {
      "midi": 43,
      "hit": false,
      "t": 166329.23999999967,
      "d": 221.21541406249162,
      "v": 103
    },
    {
      "midi": 65,
      "hit": false,
      "t": 166329.23999999967,
      "d": 1341.2151328125037,
      "v": 104
    },
    {
      "midi": 77,
      "hit": false,
      "t": 166332.33392187467,
      "d": 1369.0604296874953,
      "v": 100
    },
    {
      "midi": 50,
      "hit": false,
      "t": 167214.10165624967,
      "d": 78.89500781250536,
      "v": 92
    },
    {
      "midi": 50,
      "hit": false,
      "t": 167368.79774999968,
      "d": 122.20991406249232,
      "v": 98
    },
    {
      "midi": 43,
      "hit": false,
      "t": 167514.21207812466,
      "d": 363.535820312507,
      "v": 102
    },
    {
      "midi": 68,
      "hit": false,
      "t": 167811.22857812466,
      "d": 462.5413203125063,
      "v": 98
    },
    {
      "midi": 79,
      "hit": false,
      "t": 167820.51034374966,
      "d": 453.2595546875091,
      "v": 95
    },
    {
      "midi": 72,
      "hit": false,
      "t": 167820.51034374966,
      "d": 465.63524218750536,
      "v": 104
    },
    {
      "midi": 46,
      "hit": false,
      "t": 167969.01859374967,
      "d": 403.7568046874949,
      "v": 106
    },
    {
      "midi": 67,
      "hit": false,
      "t": 168253.65940624967,
      "d": 267.62424218747765,
      "v": 95
    },
    {
      "midi": 70,
      "hit": false,
      "t": 168256.75332812467,
      "d": 239.77894531248603,
      "v": 99
    },
    {
      "midi": 77,
      "hit": false,
      "t": 168266.03509374967,
      "d": 279.9999296874739,
      "v": 91
    },
    {
      "midi": 48,
      "hit": false,
      "t": 168411.44942187465,
      "d": 283.0938515625021,
      "v": 97
    },
    {
      "midi": 72,
      "hit": false,
      "t": 168705.37199999965,
      "d": 2192.0436484375095,
      "v": 103
    },
    {
      "midi": 41,
      "hit": false,
      "t": 168711.55984374965,
      "d": 270.7181640625058,
      "v": 102
    },
    {
      "midi": 79,
      "hit": false,
      "t": 168711.55984374965,
      "d": 2161.104429687519,
      "v": 102
    },
    {
      "midi": 68,
      "hit": false,
      "t": 168711.55984374965,
      "d": 2185.8558046875114,
      "v": 99
    },
    {
      "midi": 48,
      "hit": false,
      "t": 169602.60934374965,
      "d": 75.80108593750629,
      "v": 103
    },
    {
      "midi": 48,
      "hit": false,
      "t": 169744.92974999966,
      "d": 106.74030468749697,
      "v": 102
    },
    {
      "midi": 41,
      "hit": false,
      "t": 169893.43799999965,
      "d": 366.62974218750605,
      "v": 101
    },
    {
      "midi": 43,
      "hit": false,
      "t": 170342.05667187466,
      "d": 388.28719531249953,
      "v": 100
    },
    {
      "midi": 44,
      "hit": false,
      "t": 170781.39357812467,
      "d": 283.0938515625021,
      "v": 102
    },
    {
      "midi": 65,
      "hit": false,
      "t": 171078.41007812467,
      "d": 1164.8615859374986,
      "v": 104
    },
    {
      "midi": 43,
      "hit": false,
      "t": 171084.59792187467,
      "d": 221.21541406249162,
      "v": 103
    },
    {
      "midi": 70,
      "hit": false,
      "t": 171084.59792187467,
      "d": 1143.2041328125051,
      "v": 101
    },
    {
      "midi": 77,
      "hit": false,
      "t": 171084.59792187467,
      "d": 1155.5798203125014,
      "v": 103
    },
    {
      "midi": 43,
      "hit": false,
      "t": 171975.64742187466,
      "d": 78.89500781250536,
      "v": 91
    },
    {
      "midi": 43,
      "hit": false,
      "t": 172117.96782812467,
      "d": 122.20991406249232,
      "v": 98
    },
    {
      "midi": 77,
      "hit": false,
      "t": 172266.47607812466,
      "d": 518.2319140624895,
      "v": 104
    },
    {
      "midi": 65,
      "hit": false,
      "t": 172269.56999999966,
      "d": 518.2319140624895,
      "v": 98
    },
    {
      "midi": 48,
      "hit": false,
      "t": 172272.66392187466,
      "d": 215.02757031249348,
      "v": 104
    },
    {
      "midi": 70,
      "hit": false,
      "t": 172272.66392187466,
      "d": 496.57446093749604,
      "v": 99
    },
    {
      "midi": 36,
      "hit": false,
      "t": 172563.49257812466,
      "d": 106.74030468749697,
      "v": 99
    },
    {
      "midi": 48,
      "hit": false,
      "t": 172712.00082812464,
      "d": 728.6186015625135,
      "v": 104
    },
    {
      "midi": 65,
      "hit": false,
      "t": 172857.41515624966,
      "d": 487.29269531249884,
      "v": 101
    },
    {
      "midi": 77,
      "hit": false,
      "t": 172857.41515624966,
      "d": 493.480539062497,
      "v": 101
    },
    {
      "midi": 70,
      "hit": false,
      "t": 172869.79084374965,
      "d": 471.8230859375035,
      "v": 100
    },
    {
      "midi": 80,
      "hit": false,
      "t": 178209.89999999964,
      "d": 2244.640320312523,
      "v": 113
    },
    {
      "midi": 69,
      "hit": false,
      "t": 178209.89999999964,
      "d": 2250.828164062521,
      "v": 110
    },
    {
      "midi": 73,
      "hit": false,
      "t": 178209.89999999964,
      "d": 2260.109929687518,
      "v": 112
    },
    {
      "midi": 42,
      "hit": false,
      "t": 178212.99392187464,
      "d": 270.7181640625058,
      "v": 113
    },
    {
      "midi": 64,
      "hit": false,
      "t": 178506.9164999997,
      "d": 737.9003671875107,
      "v": 1
    },
    {
      "midi": 49,
      "hit": false,
      "t": 179107.13734374964,
      "d": 75.80108593750629,
      "v": 107
    },
    {
      "midi": 63,
      "hit": false,
      "t": 179249.4577499997,
      "d": 737.9003671875107,
      "v": 1
    },
    {
      "midi": 49,
      "hit": false,
      "t": 179255.64559374965,
      "d": 106.74030468749697,
      "v": 106
    },
    {
      "midi": 42,
      "hit": false,
      "t": 179401.05992187464,
      "d": 366.62974218750605,
      "v": 114
    },
    {
      "midi": 44,
      "hit": false,
      "t": 179843.49074999965,
      "d": 388.28719531249953,
      "v": 106
    },
    {
      "midi": 64,
      "hit": false,
      "t": 179991.99899999972,
      "d": 886.4086171874951,
      "v": 1
    },
    {
      "midi": 45,
      "hit": false,
      "t": 180285.92157812466,
      "d": 283.0938515625021,
      "v": 115
    },
    {
      "midi": 71,
      "hit": false,
      "t": 180582.93807812466,
      "d": 1353.5908203125,
      "v": 114
    },
    {
      "midi": 44,
      "hit": false,
      "t": 180586.03199999966,
      "d": 221.21541406249162,
      "v": 111
    },
    {
      "midi": 66,
      "hit": false,
      "t": 180586.03199999966,
      "d": 1341.2151328125037,
      "v": 107
    },
    {
      "midi": 78,
      "hit": false,
      "t": 180589.12592187466,
      "d": 1369.0604296874953,
      "v": 114
    },
    {
      "midi": 63,
      "hit": false,
      "t": 180883.0484999997,
      "d": 589.3921171874972,
      "v": 1
    },
    {
      "midi": 51,
      "hit": false,
      "t": 181470.89365624965,
      "d": 78.89500781250536,
      "v": 102
    },
    {
      "midi": 64,
      "hit": false,
      "t": 181477.0814999997,
      "d": 143.8673671874858,
      "v": 1
    },
    {
      "midi": 51,
      "hit": false,
      "t": 181625.58974999966,
      "d": 122.20991406249232,
      "v": 105
    },
    {
      "midi": 63,
      "hit": false,
      "t": 181625.5897499997,
      "d": 292.3756171874993,
      "v": 1
    },
    {
      "midi": 44,
      "hit": false,
      "t": 181771.00407812465,
      "d": 363.535820312507,
      "v": 117
    },
    {
      "midi": 61,
      "hit": false,
      "t": 181922.6062499997,
      "d": 1331.9333671875065,
      "v": 1
    },
    {
      "midi": 69,
      "hit": false,
      "t": 182068.02057812465,
      "d": 462.5413203125063,
      "v": 111
    },
    {
      "midi": 80,
      "hit": false,
      "t": 182077.30234374964,
      "d": 453.2595546875091,
      "v": 108
    },
    {
      "midi": 73,
      "hit": false,
      "t": 182077.30234374964,
      "d": 465.63524218750536,
      "v": 114
    },
    {
      "midi": 47,
      "hit": false,
      "t": 182225.81059374966,
      "d": 403.7568046874949,
      "v": 113
    },
    {
      "midi": 68,
      "hit": false,
      "t": 182510.45140624966,
      "d": 267.62424218747765,
      "v": 104
    },
    {
      "midi": 71,
      "hit": false,
      "t": 182513.54532812466,
      "d": 239.77894531248603,
      "v": 110
    },
    {
      "midi": 78,
      "hit": false,
      "t": 182522.82709374966,
      "d": 279.9999296874739,
      "v": 106
    },
    {
      "midi": 49,
      "hit": false,
      "t": 182668.24142187464,
      "d": 283.0938515625021,
      "v": 109
    },
    {
      "midi": 73,
      "hit": false,
      "t": 182962.16399999964,
      "d": 2192.0436484375095,
      "v": 114
    },
    {
      "midi": 42,
      "hit": false,
      "t": 182968.35184374964,
      "d": 270.7181640625058,
      "v": 115
    },
    {
      "midi": 80,
      "hit": false,
      "t": 182968.35184374964,
      "d": 2161.104429687519,
      "v": 108
    },
    {
      "midi": 69,
      "hit": false,
      "t": 182968.35184374964,
      "d": 2185.8558046875114,
      "v": 101
    },
    {
      "midi": 64,
      "hit": false,
      "t": 183259.1804999997,
      "d": 737.9003671875107,
      "v": 1
    },
    {
      "midi": 49,
      "hit": false,
      "t": 183859.40134374963,
      "d": 75.80108593750629,
      "v": 112
    },
    {
      "midi": 49,
      "hit": false,
      "t": 184001.72174999965,
      "d": 106.74030468749697,
      "v": 108
    },
    {
      "midi": 63,
      "hit": false,
      "t": 184001.7217499997,
      "d": 737.9003671875107,
      "v": 1
    },
    {
      "midi": 42,
      "hit": false,
      "t": 184150.22999999963,
      "d": 366.62974218750605,
      "v": 107
    },
    {
      "midi": 44,
      "hit": false,
      "t": 184598.84867187464,
      "d": 388.28719531249953,
      "v": 103
    },
    {
      "midi": 64,
      "hit": false,
      "t": 184744.26299999972,
      "d": 589.3921171874972,
      "v": 1
    },
    {
      "midi": 45,
      "hit": false,
      "t": 185038.18557812466,
      "d": 283.0938515625021,
      "v": 106
    },
    {
      "midi": 68,
      "hit": false,
      "t": 185335.20207812465,
      "d": 1164.8615859374986,
      "v": 114
    },
    {
      "midi": 66,
      "hit": false,
      "t": 185338.2959999997,
      "d": 589.3921171874972,
      "v": 1
    },
    {
      "midi": 44,
      "hit": false,
      "t": 185341.38992187465,
      "d": 221.21541406249162,
      "v": 109
    },
    {
      "midi": 71,
      "hit": false,
      "t": 185341.38992187465,
      "d": 1143.2041328125051,
      "v": 112
    },
    {
      "midi": 78,
      "hit": false,
      "t": 185341.38992187465,
      "d": 1155.5798203125014,
      "v": 108
    },
    {
      "midi": 68,
      "hit": false,
      "t": 185932.3289999997,
      "d": 292.3756171874993,
      "v": 1
    },
    {
      "midi": 66,
      "hit": false,
      "t": 186229.3454999997,
      "d": 589.3921171874972,
      "v": 1
    },
    {
      "midi": 51,
      "hit": false,
      "t": 186232.43942187465,
      "d": 78.89500781250536,
      "v": 108
    },
    {
      "midi": 51,
      "hit": false,
      "t": 186374.75982812466,
      "d": 122.20991406249232,
      "v": 112
    },
    {
      "midi": 78,
      "hit": false,
      "t": 186523.26807812465,
      "d": 518.2319140625186,
      "v": 113
    },
    {
      "midi": 68,
      "hit": false,
      "t": 186526.36199999964,
      "d": 518.2319140625186,
      "v": 111
    },
    {
      "midi": 44,
      "hit": false,
      "t": 186529.45592187464,
      "d": 363.535820312507,
      "v": 117
    },
    {
      "midi": 71,
      "hit": false,
      "t": 186529.45592187464,
      "d": 496.57446093752515,
      "v": 105
    },
    {
      "midi": 64,
      "hit": false,
      "t": 186823.3784999997,
      "d": 1183.425117187493,
      "v": 1
    },
    {
      "midi": 47,
      "hit": false,
      "t": 186968.79282812466,
      "d": 403.756804687524,
      "v": 109
    },
    {
      "midi": 68,
      "hit": false,
      "t": 187114.20715624967,
      "d": 487.29269531249884,
      "v": 108
    },
    {
      "midi": 78,
      "hit": false,
      "t": 187114.20715624967,
      "d": 493.480539062497,
      "v": 115
    },
    {
      "midi": 71,
      "hit": false,
      "t": 187126.58284374967,
      "d": 471.8230859375035,
      "v": 114
    },
    {
      "midi": 49,
      "hit": false,
      "t": 187414.31757812467,
      "d": 283.0938515625021,
      "v": 112
    },
    {
      "midi": 80,
      "hit": false,
      "t": 187714.42799999967,
      "d": 2244.640320312523,
      "v": 114
    },
    {
      "midi": 69,
      "hit": false,
      "t": 187714.42799999967,
      "d": 2250.828164062521,
      "v": 117
    },
    {
      "midi": 73,
      "hit": false,
      "t": 187714.42799999967,
      "d": 2260.109929687518,
      "v": 112
    },
    {
      "midi": 42,
      "hit": false,
      "t": 187717.52192187466,
      "d": 270.7181640625058,
      "v": 117
    },
    {
      "midi": 64,
      "hit": false,
      "t": 188011.4444999997,
      "d": 737.9003671875107,
      "v": 1
    },
    {
      "midi": 49,
      "hit": false,
      "t": 188611.66534374966,
      "d": 75.80108593750629,
      "v": 109
    },
    {
      "midi": 63,
      "hit": false,
      "t": 188753.9857499997,
      "d": 737.9003671875107,
      "v": 1
    },
    {
      "midi": 49,
      "hit": false,
      "t": 188760.17359374967,
      "d": 106.74030468749697,
      "v": 108
    },
    {
      "midi": 42,
      "hit": false,
      "t": 188905.58792187466,
      "d": 366.62974218750605,
      "v": 116
    },
    {
      "midi": 44,
      "hit": false,
      "t": 189348.01874999967,
      "d": 388.28719531249953,
      "v": 103
    },
    {
      "midi": 64,
      "hit": false,
      "t": 189496.5269999997,
      "d": 737.9003671875107,
      "v": 1
    },
    {
      "midi": 45,
      "hit": false,
      "t": 189790.44957812468,
      "d": 283.0938515625021,
      "v": 109
    },
    {
      "midi": 71,
      "hit": false,
      "t": 190087.46607812468,
      "d": 1353.5908203125,
      "v": 117
    },
    {
      "midi": 44,
      "hit": false,
      "t": 190090.55999999968,
      "d": 221.21541406249162,
      "v": 111
    },
    {
      "midi": 66,
      "hit": false,
      "t": 190090.55999999968,
      "d": 1341.2151328125037,
      "v": 109
    },
    {
      "midi": 78,
      "hit": false,
      "t": 190093.65392187468,
      "d": 1369.0604296874953,
      "v": 106
    },
    {
      "midi": 63,
      "hit": false,
      "t": 190239.06824999972,
      "d": 589.3921171874972,
      "v": 1
    },
    {
      "midi": 64,
      "hit": false,
      "t": 190833.10124999972,
      "d": 292.3756171874993,
      "v": 1
    },
    {
      "midi": 51,
      "hit": false,
      "t": 190975.42165624967,
      "d": 78.89500781250536,
      "v": 110
    },
    {
      "midi": 51,
      "hit": false,
      "t": 191130.11774999968,
      "d": 122.20991406249232,
      "v": 109
    },
    {
      "midi": 63,
      "hit": false,
      "t": 191130.1177499997,
      "d": 292.3756171874993,
      "v": 1
    },
    {
      "midi": 44,
      "hit": false,
      "t": 191275.53207812467,
      "d": 363.535820312507,
      "v": 116
    },
    {
      "midi": 61,
      "hit": false,
      "t": 191427.1342499997,
      "d": 1183.425117187493,
      "v": 1
    },
    {
      "midi": 69,
      "hit": false,
      "t": 191572.54857812467,
      "d": 462.5413203125063,
      "v": 108
    },
    {
      "midi": 80,
      "hit": false,
      "t": 191581.83034374967,
      "d": 453.2595546875091,
      "v": 113
    },
    {
      "midi": 73,
      "hit": false,
      "t": 191581.83034374967,
      "d": 465.63524218750536,
      "v": 104
    },
    {
      "midi": 47,
      "hit": false,
      "t": 191730.33859374968,
      "d": 403.7568046874949,
      "v": 109
    },
    {
      "midi": 68,
      "hit": false,
      "t": 192014.97940624968,
      "d": 267.62424218747765,
      "v": 102
    },
    {
      "midi": 71,
      "hit": false,
      "t": 192018.07332812468,
      "d": 239.77894531248603,
      "v": 106
    },
    {
      "midi": 78,
      "hit": false,
      "t": 192027.35509374968,
      "d": 279.9999296874739,
      "v": 107
    },
    {
      "midi": 49,
      "hit": false,
      "t": 192172.76942187466,
      "d": 283.0938515625021,
      "v": 114
    },
    {
      "midi": 73,
      "hit": false,
      "t": 192466.69199999966,
      "d": 2192.0436484375095,
      "v": 109
    },
    {
      "midi": 42,
      "hit": false,
      "t": 192472.87984374966,
      "d": 270.7181640625058,
      "v": 118
    },
    {
      "midi": 80,
      "hit": false,
      "t": 192472.87984374966,
      "d": 2161.104429687519,
      "v": 103
    },
    {
      "midi": 69,
      "hit": false,
      "t": 192472.87984374966,
      "d": 2185.8558046875114,
      "v": 105
    },
    {
      "midi": 64,
      "hit": false,
      "t": 192615.2002499997,
      "d": 589.3921171874972,
      "v": 1
    },
    {
      "midi": 63,
      "hit": false,
      "t": 193209.2332499997,
      "d": 589.3921171874972,
      "v": 1
    },
    {
      "midi": 49,
      "hit": false,
      "t": 193363.92934374965,
      "d": 75.80108593750629,
      "v": 111
    },
    {
      "midi": 49,
      "hit": false,
      "t": 193506.24974999967,
      "d": 106.74030468749697,
      "v": 109
    },
    {
      "midi": 42,
      "hit": false,
      "t": 193654.75799999965,
      "d": 366.62974218750605,
      "v": 111
    },
    {
      "midi": 61,
      "hit": false,
      "t": 193803.2662499997,
      "d": 143.8673671874858,
      "v": 1
    },
    {
      "midi": 63,
      "hit": false,
      "t": 193951.77449999968,
      "d": 292.3756171874993,
      "v": 1
    },
    {
      "midi": 44,
      "hit": false,
      "t": 194103.37667187466,
      "d": 388.28719531249953,
      "v": 109
    },
    {
      "midi": 64,
      "hit": false,
      "t": 194248.79099999968,
      "d": 589.3921171874972,
      "v": 1
    },
    {
      "midi": 45,
      "hit": false,
      "t": 194542.71357812468,
      "d": 283.0938515625021,
      "v": 116
    },
    {
      "midi": 66,
      "hit": false,
      "t": 194839.73007812467,
      "d": 1164.8615859374986,
      "v": 104
    },
    {
      "midi": 66,
      "hit": false,
      "t": 194842.82399999967,
      "d": 589.3921171874972,
      "v": 1
    },
    {
      "midi": 44,
      "hit": false,
      "t": 194845.91792187467,
      "d": 221.21541406249162,
      "v": 108
    },
    {
      "midi": 71,
      "hit": false,
      "t": 194845.91792187467,
      "d": 1143.2041328125051,
      "v": 110
    },
    {
      "midi": 78,
      "hit": false,
      "t": 194845.91792187467,
      "d": 1155.5798203125014,
      "v": 113
    },
    {
      "midi": 68,
      "hit": false,
      "t": 195436.85699999967,
      "d": 292.3756171874993,
      "v": 1
    },
    {
      "midi": 66,
      "hit": false,
      "t": 195733.87349999967,
      "d": 589.3921171874972,
      "v": 1
    },
    {
      "midi": 44,
      "hit": false,
      "t": 195736.96742187467,
      "d": 78.89500781250536,
      "v": 110
    },
    {
      "midi": 44,
      "hit": false,
      "t": 195879.28782812468,
      "d": 122.20991406249232,
      "v": 112
    },
    {
      "midi": 78,
      "hit": false,
      "t": 196027.79607812467,
      "d": 518.2319140624895,
      "v": 105
    },
    {
      "midi": 66,
      "hit": false,
      "t": 196030.88999999966,
      "d": 518.2319140624895,
      "v": 108
    },
    {
      "midi": 49,
      "hit": false,
      "t": 196033.98392187466,
      "d": 215.02757031249348,
      "v": 110
    },
    {
      "midi": 71,
      "hit": false,
      "t": 196033.98392187466,
      "d": 496.57446093749604,
      "v": 114
    },
    {
      "midi": 37,
      "hit": false,
      "t": 196324.81257812466,
      "d": 106.74030468749697,
      "v": 117
    },
    {
      "midi": 64,
      "hit": false,
      "t": 196327.90649999966,
      "d": 589.3921171874972,
      "v": 1
    },
    {
      "midi": 49,
      "hit": false,
      "t": 196473.32082812465,
      "d": 728.6186015625135,
      "v": 116
    },
    {
      "midi": 66,
      "hit": false,
      "t": 196618.73515624966,
      "d": 487.29269531249884,
      "v": 109
    },
    {
      "midi": 78,
      "hit": false,
      "t": 196618.73515624966,
      "d": 493.480539062497,
      "v": 108
    },
    {
      "midi": 71,
      "hit": false,
      "t": 196631.11084374966,
      "d": 471.8230859375035,
      "v": 104
    },
    {
      "midi": 80,
      "hit": false,
      "t": 197218.95599999966,
      "d": 2244.640320312523,
      "v": 105
    },
    {
      "midi": 69,
      "hit": false,
      "t": 197218.95599999966,
      "d": 2250.828164062521,
      "v": 117
    },
    {
      "midi": 73,
      "hit": false,
      "t": 197218.95599999966,
      "d": 2260.109929687518,
      "v": 114
    },
    {
      "midi": 42,
      "hit": false,
      "t": 197222.04992187466,
      "d": 270.7181640625058,
      "v": 119
    },
    {
      "midi": 64,
      "hit": false,
      "t": 197534.53603124965,
      "d": 2055.9110859374923,
      "v": 1
    },
    {
      "midi": 68,
      "hit": false,
      "t": 197537.62995312465,
      "d": 2052.8171640624932,
      "v": 1
    },
    {
      "midi": 49,
      "hit": false,
      "t": 198116.19334374965,
      "d": 75.80108593750629,
      "v": 111
    },
    {
      "midi": 49,
      "hit": false,
      "t": 198264.70159374966,
      "d": 106.74030468749697,
      "v": 105
    },
    {
      "midi": 42,
      "hit": false,
      "t": 198410.11592187465,
      "d": 366.62974218750605,
      "v": 115
    },
    {
      "midi": 44,
      "hit": false,
      "t": 198852.54674999966,
      "d": 388.28719531249953,
      "v": 103
    },
    {
      "midi": 45,
      "hit": false,
      "t": 199294.97757812467,
      "d": 283.0938515625021,
      "v": 107
    },
    {
      "midi": 71,
      "hit": false,
      "t": 199591.99407812467,
      "d": 1353.5908203125,
      "v": 110
    },
    {
      "midi": 44,
      "hit": false,
      "t": 199595.08799999967,
      "d": 221.21541406249162,
      "v": 113
    },
    {
      "midi": 66,
      "hit": false,
      "t": 199595.08799999967,
      "d": 1341.2151328125037,
      "v": 110
    },
    {
      "midi": 78,
      "hit": false,
      "t": 199598.18192187467,
      "d": 1369.0604296874953,
      "v": 108
    },
    {
      "midi": 51,
      "hit": false,
      "t": 200479.94965624966,
      "d": 78.89500781250536,
      "v": 101
    },
    {
      "midi": 51,
      "hit": false,
      "t": 200634.64574999968,
      "d": 122.20991406249232,
      "v": 111
    },
    {
      "midi": 44,
      "hit": false,
      "t": 200780.06007812466,
      "d": 363.535820312507,
      "v": 107
    },
    {
      "midi": 69,
      "hit": false,
      "t": 201077.07657812466,
      "d": 462.5413203125063,
      "v": 110
    },
    {
      "midi": 80,
      "hit": false,
      "t": 201086.35834374966,
      "d": 453.2595546875091,
      "v": 109
    },
    {
      "midi": 73,
      "hit": false,
      "t": 201086.35834374966,
      "d": 465.63524218750536,
      "v": 106
    },
    {
      "midi": 47,
      "hit": false,
      "t": 201234.86659374967,
      "d": 403.7568046874949,
      "v": 114
    },
    {
      "midi": 68,
      "hit": false,
      "t": 201519.50740624967,
      "d": 267.62424218747765,
      "v": 111
    },
    {
      "midi": 71,
      "hit": false,
      "t": 201522.60132812467,
      "d": 239.77894531248603,
      "v": 108
    },
    {
      "midi": 78,
      "hit": false,
      "t": 201531.88309374967,
      "d": 279.9999296874739,
      "v": 106
    },
    {
      "midi": 49,
      "hit": false,
      "t": 201677.29742187465,
      "d": 283.0938515625021,
      "v": 112
    },
    {
      "midi": 73,
      "hit": false,
      "t": 201971.21999999965,
      "d": 2192.0436484375095,
      "v": 110
    },
    {
      "midi": 42,
      "hit": false,
      "t": 201977.40784374965,
      "d": 270.7181640625058,
      "v": 112
    },
    {
      "midi": 80,
      "hit": false,
      "t": 201977.40784374965,
      "d": 2161.104429687519,
      "v": 106
    },
    {
      "midi": 69,
      "hit": false,
      "t": 201977.40784374965,
      "d": 2185.8558046875114,
      "v": 101
    },
    {
      "midi": 64,
      "hit": false,
      "t": 202286.80003124964,
      "d": 2055.9110859374923,
      "v": 1
    },
    {
      "midi": 68,
      "hit": false,
      "t": 202289.89395312464,
      "d": 2052.8171640624932,
      "v": 1
    },
    {
      "midi": 49,
      "hit": false,
      "t": 202868.45734374964,
      "d": 75.80108593750629,
      "v": 110
    },
    {
      "midi": 49,
      "hit": false,
      "t": 203010.77774999966,
      "d": 106.74030468749697,
      "v": 107
    },
    {
      "midi": 42,
      "hit": false,
      "t": 203159.28599999964,
      "d": 366.62974218750605,
      "v": 111
    },
    {
      "midi": 44,
      "hit": false,
      "t": 203607.90467187465,
      "d": 388.28719531249953,
      "v": 109
    },
    {
      "midi": 45,
      "hit": false,
      "t": 204047.24157812467,
      "d": 283.0938515625021,
      "v": 109
    },
    {
      "midi": 68,
      "hit": false,
      "t": 204344.25807812467,
      "d": 1164.8615859374986,
      "v": 107
    },
    {
      "midi": 44,
      "hit": false,
      "t": 204350.44592187466,
      "d": 221.21541406249162,
      "v": 109
    },
    {
      "midi": 71,
      "hit": false,
      "t": 204350.44592187466,
      "d": 1143.2041328125051,
      "v": 107
    },
    {
      "midi": 78,
      "hit": false,
      "t": 204350.44592187466,
      "d": 1155.5798203125014,
      "v": 107
    },
    {
      "midi": 51,
      "hit": false,
      "t": 205241.49542187466,
      "d": 78.89500781250536,
      "v": 108
    },
    {
      "midi": 51,
      "hit": false,
      "t": 205383.81582812467,
      "d": 122.20991406249232,
      "v": 109
    },
    {
      "midi": 78,
      "hit": false,
      "t": 205532.32407812466,
      "d": 518.2319140625186,
      "v": 112
    },
    {
      "midi": 68,
      "hit": false,
      "t": 205535.41799999966,
      "d": 518.2319140625186,
      "v": 110
    },
    {
      "midi": 44,
      "hit": false,
      "t": 205538.51192187465,
      "d": 363.535820312507,
      "v": 116
    },
    {
      "midi": 71,
      "hit": false,
      "t": 205538.51192187465,
      "d": 496.57446093752515,
      "v": 114
    },
    {
      "midi": 47,
      "hit": false,
      "t": 205977.84882812467,
      "d": 403.756804687524,
      "v": 113
    },
    {
      "midi": 68,
      "hit": false,
      "t": 206123.26315624968,
      "d": 487.29269531249884,
      "v": 109
    },
    {
      "midi": 78,
      "hit": false,
      "t": 206123.26315624968,
      "d": 493.480539062497,
      "v": 115
    },
    {
      "midi": 71,
      "hit": false,
      "t": 206135.63884374968,
      "d": 471.8230859375035,
      "v": 105
    },
    {
      "midi": 49,
      "hit": false,
      "t": 206423.37357812468,
      "d": 283.0938515625021,
      "v": 114
    },
    {
      "midi": 80,
      "hit": false,
      "t": 206723.48399999968,
      "d": 2244.640320312523,
      "v": 111
    },
    {
      "midi": 69,
      "hit": false,
      "t": 206723.48399999968,
      "d": 2250.828164062521,
      "v": 112
    },
    {
      "midi": 73,
      "hit": false,
      "t": 206723.48399999968,
      "d": 2260.109929687518,
      "v": 116
    },
    {
      "midi": 42,
      "hit": false,
      "t": 206726.57792187468,
      "d": 270.7181640625058,
      "v": 119
    },
    {
      "midi": 64,
      "hit": false,
      "t": 207039.06403124964,
      "d": 2055.9110859374923,
      "v": 1
    },
    {
      "midi": 68,
      "hit": false,
      "t": 207042.15795312464,
      "d": 2052.8171640624932,
      "v": 1
    },
    {
      "midi": 49,
      "hit": false,
      "t": 207620.72134374967,
      "d": 75.80108593750629,
      "v": 112
    },
    {
      "midi": 49,
      "hit": false,
      "t": 207769.22959374968,
      "d": 106.74030468749697,
      "v": 108
    },
    {
      "midi": 42,
      "hit": false,
      "t": 207914.64392187467,
      "d": 366.62974218750605,
      "v": 112
    },
    {
      "midi": 44,
      "hit": false,
      "t": 208357.07474999968,
      "d": 388.28719531249953,
      "v": 108
    },
    {
      "midi": 45,
      "hit": false,
      "t": 208799.5055781247,
      "d": 283.0938515625021,
      "v": 111
    },
    {
      "midi": 71,
      "hit": false,
      "t": 209096.5220781247,
      "d": 1353.5908203125,
      "v": 116
    },
    {
      "midi": 44,
      "hit": false,
      "t": 209099.6159999997,
      "d": 221.21541406249162,
      "v": 107
    },
    {
      "midi": 66,
      "hit": false,
      "t": 209099.6159999997,
      "d": 1341.2151328125037,
      "v": 109
    },
    {
      "midi": 78,
      "hit": false,
      "t": 209102.7099218747,
      "d": 1369.0604296874953,
      "v": 110
    },
    {
      "midi": 51,
      "hit": false,
      "t": 209984.47765624968,
      "d": 78.89500781250536,
      "v": 110
    },
    {
      "midi": 51,
      "hit": false,
      "t": 210139.1737499997,
      "d": 122.20991406249232,
      "v": 109
    },
    {
      "midi": 44,
      "hit": false,
      "t": 210284.58807812468,
      "d": 363.535820312507,
      "v": 112
    },
    {
      "midi": 69,
      "hit": false,
      "t": 210581.60457812468,
      "d": 462.5413203125063,
      "v": 106
    },
    {
      "midi": 80,
      "hit": false,
      "t": 210590.88634374968,
      "d": 453.2595546875091,
      "v": 108
    },
    {
      "midi": 73,
      "hit": false,
      "t": 210590.88634374968,
      "d": 465.63524218750536,
      "v": 109
    },
    {
      "midi": 47,
      "hit": false,
      "t": 210739.3945937497,
      "d": 403.7568046874949,
      "v": 117
    },
    {
      "midi": 68,
      "hit": false,
      "t": 211024.0354062497,
      "d": 267.62424218747765,
      "v": 109
    },
    {
      "midi": 71,
      "hit": false,
      "t": 211027.1293281247,
      "d": 239.77894531248603,
      "v": 107
    },
    {
      "midi": 78,
      "hit": false,
      "t": 211036.4110937497,
      "d": 279.9999296874739,
      "v": 101
    },
    {
      "midi": 49,
      "hit": false,
      "t": 211181.82542187467,
      "d": 283.0938515625021,
      "v": 114
    },
    {
      "midi": 71,
      "hit": false,
      "t": 211475.74799999964,
      "d": 484.19877343749977,
      "v": 1
    },
    {
      "midi": 73,
      "hit": false,
      "t": 211475.74799999967,
      "d": 2192.0436484375095,
      "v": 104
    },
    {
      "midi": 42,
      "hit": false,
      "t": 211481.93584374967,
      "d": 270.7181640625058,
      "v": 118
    },
    {
      "midi": 80,
      "hit": false,
      "t": 211481.93584374967,
      "d": 2161.104429687519,
      "v": 108
    },
    {
      "midi": 69,
      "hit": false,
      "t": 211481.93584374967,
      "d": 2185.8558046875114,
      "v": 100
    },
    {
      "midi": 68,
      "hit": false,
      "t": 211964.58765624964,
      "d": 716.2429140624881,
      "v": 1
    },
    {
      "midi": 49,
      "hit": false,
      "t": 212372.98534374966,
      "d": 75.80108593750629,
      "v": 108
    },
    {
      "midi": 49,
      "hit": false,
      "t": 212515.30574999968,
      "d": 106.74030468749697,
      "v": 111
    },
    {
      "midi": 42,
      "hit": false,
      "t": 212663.81399999966,
      "d": 366.62974218750605,
      "v": 109
    },
    {
      "midi": 71,
      "hit": false,
      "t": 212685.47145312463,
      "d": 400.6628828124958,
      "v": 1
    },
    {
      "midi": 68,
      "hit": false,
      "t": 213090.77521874962,
      "d": 768.8395859375014,
      "v": 1
    },
    {
      "midi": 44,
      "hit": false,
      "t": 213112.43267187467,
      "d": 388.28719531249953,
      "v": 113
    },
    {
      "midi": 45,
      "hit": false,
      "t": 213551.7695781247,
      "d": 283.0938515625021,
      "v": 107
    },
    {
      "midi": 66,
      "hit": false,
      "t": 213848.78607812469,
      "d": 1164.8615859374986,
      "v": 110
    },
    {
      "midi": 44,
      "hit": false,
      "t": 213854.97392187468,
      "d": 221.21541406249162,
      "v": 112
    },
    {
      "midi": 71,
      "hit": false,
      "t": 213854.97392187468,
      "d": 1143.2041328125051,
      "v": 114
    },
    {
      "midi": 78,
      "hit": false,
      "t": 213854.97392187468,
      "d": 1155.5798203125014,
      "v": 112
    },
    {
      "midi": 71,
      "hit": false,
      "t": 213864.25568749962,
      "d": 437.78994531251374,
      "v": 1
    },
    {
      "midi": 68,
      "hit": false,
      "t": 214306.68651562463,
      "d": 781.2152734374977,
      "v": 1
    },
    {
      "midi": 44,
      "hit": false,
      "t": 214746.02342187468,
      "d": 78.89500781250536,
      "v": 101
    },
    {
      "midi": 44,
      "hit": false,
      "t": 214888.3438281247,
      "d": 122.20991406249232,
      "v": 103
    },
    {
      "midi": 78,
      "hit": false,
      "t": 215036.85207812468,
      "d": 518.2319140624895,
      "v": 111
    },
    {
      "midi": 66,
      "hit": false,
      "t": 215039.94599999968,
      "d": 518.2319140624895,
      "v": 106
    },
    {
      "midi": 49,
      "hit": false,
      "t": 215043.03992187468,
      "d": 215.02757031249348,
      "v": 111
    },
    {
      "midi": 71,
      "hit": false,
      "t": 215043.03992187468,
      "d": 496.57446093749604,
      "v": 106
    },
    {
      "midi": 71,
      "hit": false,
      "t": 215092.54267187463,
      "d": 552.2650546875084,
      "v": 1
    },
    {
      "midi": 37,
      "hit": false,
      "t": 215333.86857812467,
      "d": 106.74030468749697,
      "v": 118
    },
    {
      "midi": 49,
      "hit": false,
      "t": 215482.37682812466,
      "d": 728.6186015625135,
      "v": 106
    },
    {
      "midi": 66,
      "hit": false,
      "t": 215627.79115624967,
      "d": 487.29269531249884,
      "v": 111
    },
    {
      "midi": 78,
      "hit": false,
      "t": 215627.79115624967,
      "d": 493.480539062497,
      "v": 115
    },
    {
      "midi": 71,
      "hit": false,
      "t": 215640.16684374967,
      "d": 471.8230859375035,
      "v": 113
    },
    {
      "midi": 76,
      "hit": false,
      "t": 215649.44860937464,
      "d": 2356.0215078124893,
      "v": 1
    },
    {
      "midi": 80,
      "hit": false,
      "t": 216228.01199999967,
      "d": 2244.640320312523,
      "v": 108
    },
    {
      "midi": 69,
      "hit": false,
      "t": 216228.01199999967,
      "d": 2250.828164062521,
      "v": 112
    },
    {
      "midi": 73,
      "hit": false,
      "t": 216228.01199999967,
      "d": 2260.109929687518,
      "v": 109
    },
    {
      "midi": 42,
      "hit": false,
      "t": 216231.10592187467,
      "d": 270.7181640625058,
      "v": 117
    },
    {
      "midi": 64,
      "hit": false,
      "t": 216543.59203124963,
      "d": 2055.9110859374923,
      "v": 1
    },
    {
      "midi": 68,
      "hit": false,
      "t": 216546.68595312463,
      "d": 2052.8171640624932,
      "v": 1
    },
    {
      "midi": 49,
      "hit": false,
      "t": 217125.24934374966,
      "d": 75.80108593750629,
      "v": 102
    },
    {
      "midi": 49,
      "hit": false,
      "t": 217273.75759374967,
      "d": 106.74030468749697,
      "v": 107
    },
    {
      "midi": 42,
      "hit": false,
      "t": 217419.17192187466,
      "d": 366.62974218750605,
      "v": 116
    },
    {
      "midi": 44,
      "hit": false,
      "t": 217861.60274999967,
      "d": 388.28719531249953,
      "v": 105
    },
    {
      "midi": 45,
      "hit": false,
      "t": 218304.03357812468,
      "d": 283.0938515625021,
      "v": 109
    },
    {
      "midi": 71,
      "hit": false,
      "t": 218601.05007812468,
      "d": 1353.5908203125,
      "v": 112
    },
    {
      "midi": 44,
      "hit": false,
      "t": 218604.14399999968,
      "d": 221.21541406249162,
      "v": 115
    },
    {
      "midi": 66,
      "hit": false,
      "t": 218604.14399999968,
      "d": 1341.2151328125037,
      "v": 106
    },
    {
      "midi": 78,
      "hit": false,
      "t": 218607.23792187468,
      "d": 1369.0604296874953,
      "v": 112
    },
    {
      "midi": 51,
      "hit": false,
      "t": 219489.00565624968,
      "d": 78.89500781250536,
      "v": 104
    },
    {
      "midi": 51,
      "hit": false,
      "t": 219643.7017499997,
      "d": 122.20991406249232,
      "v": 105
    },
    {
      "midi": 44,
      "hit": false,
      "t": 219789.11607812467,
      "d": 363.535820312507,
      "v": 111
    },
    {
      "midi": 69,
      "hit": false,
      "t": 220086.13257812467,
      "d": 462.5413203125063,
      "v": 108
    },
    {
      "midi": 80,
      "hit": false,
      "t": 220095.41434374967,
      "d": 453.2595546875091,
      "v": 110
    },
    {
      "midi": 73,
      "hit": false,
      "t": 220095.41434374967,
      "d": 465.63524218750536,
      "v": 113
    },
    {
      "midi": 47,
      "hit": false,
      "t": 220243.92259374968,
      "d": 403.7568046874949,
      "v": 119
    },
    {
      "midi": 68,
      "hit": false,
      "t": 220528.56340624968,
      "d": 267.62424218747765,
      "v": 106
    },
    {
      "midi": 71,
      "hit": false,
      "t": 220531.65732812468,
      "d": 239.77894531248603,
      "v": 111
    },
    {
      "midi": 78,
      "hit": false,
      "t": 220540.93909374968,
      "d": 279.9999296874739,
      "v": 104
    },
    {
      "midi": 49,
      "hit": false,
      "t": 220686.35342187466,
      "d": 283.0938515625021,
      "v": 109
    },
    {
      "midi": 73,
      "hit": false,
      "t": 220980.27599999966,
      "d": 2192.0436484374513,
      "v": 104
    },
    {
      "midi": 42,
      "hit": false,
      "t": 220986.46384374966,
      "d": 270.7181640625058,
      "v": 114
    },
    {
      "midi": 80,
      "hit": false,
      "t": 220986.46384374966,
      "d": 2161.1044296874607,
      "v": 109
    },
    {
      "midi": 69,
      "hit": false,
      "t": 220986.46384374966,
      "d": 2185.855804687453,
      "v": 100
    },
    {
      "midi": 64,
      "hit": false,
      "t": 221295.85603124963,
      "d": 2055.9110859374923,
      "v": 1
    },
    {
      "midi": 68,
      "hit": false,
      "t": 221298.94995312463,
      "d": 2052.8171640624932,
      "v": 1
    },
    {
      "midi": 49,
      "hit": false,
      "t": 221877.51334374966,
      "d": 75.80108593750629,
      "v": 106
    },
    {
      "midi": 49,
      "hit": false,
      "t": 222019.83374999967,
      "d": 106.74030468749697,
      "v": 110
    },
    {
      "midi": 42,
      "hit": false,
      "t": 222168.34199999965,
      "d": 366.62974218747695,
      "v": 114
    },
    {
      "midi": 44,
      "hit": false,
      "t": 222616.96067187464,
      "d": 388.28719531249953,
      "v": 109
    },
    {
      "midi": 45,
      "hit": false,
      "t": 223056.29757812462,
      "d": 283.0938515625021,
      "v": 110
    },
    {
      "midi": 68,
      "hit": false,
      "t": 223353.31407812462,
      "d": 1164.8615859374695,
      "v": 115
    },
    {
      "midi": 44,
      "hit": false,
      "t": 223359.50192187462,
      "d": 221.21541406249162,
      "v": 107
    },
    {
      "midi": 71,
      "hit": false,
      "t": 223359.50192187462,
      "d": 1143.204132812476,
      "v": 107
    },
    {
      "midi": 78,
      "hit": false,
      "t": 223359.50192187462,
      "d": 1155.5798203124723,
      "v": 106
    },
    {
      "midi": 51,
      "hit": false,
      "t": 224250.5514218746,
      "d": 78.89500781247625,
      "v": 111
    },
    {
      "midi": 51,
      "hit": false,
      "t": 224392.8718281246,
      "d": 122.20991406249232,
      "v": 105
    },
    {
      "midi": 78,
      "hit": false,
      "t": 224541.38007812458,
      "d": 518.2319140625186,
      "v": 114
    },
    {
      "midi": 68,
      "hit": false,
      "t": 224544.47399999958,
      "d": 518.2319140625186,
      "v": 108
    },
    {
      "midi": 44,
      "hit": false,
      "t": 224547.56792187458,
      "d": 363.535820312507,
      "v": 107
    },
    {
      "midi": 71,
      "hit": false,
      "t": 224547.56792187458,
      "d": 496.57446093752515,
      "v": 111
    },
    {
      "midi": 47,
      "hit": false,
      "t": 224986.9048281246,
      "d": 403.756804687524,
      "v": 110
    },
    {
      "midi": 68,
      "hit": false,
      "t": 225132.3191562496,
      "d": 487.29269531246973,
      "v": 109
    },
    {
      "midi": 78,
      "hit": false,
      "t": 225132.3191562496,
      "d": 493.48053906246787,
      "v": 108
    },
    {
      "midi": 71,
      "hit": false,
      "t": 225144.6948437496,
      "d": 471.8230859374744,
      "v": 106
    },
    {
      "midi": 49,
      "hit": false,
      "t": 225432.4295781246,
      "d": 283.093851562473,
      "v": 109
    },
    {
      "midi": 80,
      "hit": false,
      "t": 225732.53999999957,
      "d": 2244.640320312552,
      "v": 107
    },
    {
      "midi": 69,
      "hit": false,
      "t": 225732.53999999957,
      "d": 2250.82816406255,
      "v": 117
    },
    {
      "midi": 73,
      "hit": false,
      "t": 225732.53999999957,
      "d": 2260.1099296875473,
      "v": 114
    },
    {
      "midi": 42,
      "hit": false,
      "t": 225735.63392187457,
      "d": 270.7181640625058,
      "v": 114
    },
    {
      "midi": 64,
      "hit": false,
      "t": 226048.12003124962,
      "d": 2055.9110859374923,
      "v": 1
    },
    {
      "midi": 68,
      "hit": false,
      "t": 226051.21395312462,
      "d": 2052.8171640624932,
      "v": 1
    },
    {
      "midi": 49,
      "hit": false,
      "t": 226629.77734374956,
      "d": 75.80108593750629,
      "v": 103
    },
    {
      "midi": 49,
      "hit": false,
      "t": 226778.28559374958,
      "d": 106.74030468752608,
      "v": 112
    },
    {
      "midi": 42,
      "hit": false,
      "t": 226923.6999218746,
      "d": 366.62974218750605,
      "v": 106
    },
    {
      "midi": 44,
      "hit": false,
      "t": 227366.1307499996,
      "d": 388.28719531249953,
      "v": 106
    },
    {
      "midi": 45,
      "hit": false,
      "t": 227808.56157812462,
      "d": 283.0938515625021,
      "v": 112
    },
    {
      "midi": 71,
      "hit": false,
      "t": 228105.5780781246,
      "d": 1353.5908203125,
      "v": 119
    },
    {
      "midi": 44,
      "hit": false,
      "t": 228108.6719999996,
      "d": 221.21541406249162,
      "v": 113
    },
    {
      "midi": 66,
      "hit": false,
      "t": 228108.6719999996,
      "d": 1341.2151328125037,
      "v": 112
    },
    {
      "midi": 78,
      "hit": false,
      "t": 228111.7659218746,
      "d": 1369.0604296874953,
      "v": 114
    },
    {
      "midi": 51,
      "hit": false,
      "t": 228993.53365624964,
      "d": 78.89500781250536,
      "v": 104
    },
    {
      "midi": 51,
      "hit": false,
      "t": 229148.22974999965,
      "d": 122.20991406249232,
      "v": 108
    },
    {
      "midi": 44,
      "hit": false,
      "t": 229293.64407812463,
      "d": 363.5358203124779,
      "v": 114
    },
    {
      "midi": 69,
      "hit": false,
      "t": 229590.6605781246,
      "d": 462.5413203125063,
      "v": 104
    },
    {
      "midi": 80,
      "hit": false,
      "t": 229599.9423437496,
      "d": 453.2595546875091,
      "v": 113
    },
    {
      "midi": 73,
      "hit": false,
      "t": 229599.9423437496,
      "d": 465.63524218750536,
      "v": 107
    },
    {
      "midi": 47,
      "hit": false,
      "t": 229748.4505937496,
      "d": 403.7568046874949,
      "v": 118
    },
    {
      "midi": 68,
      "hit": false,
      "t": 230033.09140624962,
      "d": 267.62424218747765,
      "v": 103
    },
    {
      "midi": 71,
      "hit": false,
      "t": 230036.18532812461,
      "d": 239.77894531248603,
      "v": 112
    },
    {
      "midi": 78,
      "hit": false,
      "t": 230045.4670937496,
      "d": 279.9999296874739,
      "v": 104
    },
    {
      "midi": 49,
      "hit": false,
      "t": 230190.8814218746,
      "d": 283.0938515625021,
      "v": 107
    },
    {
      "midi": 73,
      "hit": false,
      "t": 230484.8039999996,
      "d": 2192.0436484375678,
      "v": 109
    },
    {
      "midi": 42,
      "hit": false,
      "t": 230490.9918437496,
      "d": 270.7181640625058,
      "v": 111
    },
    {
      "midi": 80,
      "hit": false,
      "t": 230490.9918437496,
      "d": 2161.104429687577,
      "v": 107
    },
    {
      "midi": 69,
      "hit": false,
      "t": 230490.9918437496,
      "d": 2185.8558046875696,
      "v": 104
    },
    {
      "midi": 49,
      "hit": false,
      "t": 231382.04134374962,
      "d": 75.80108593750629,
      "v": 104
    },
    {
      "midi": 49,
      "hit": false,
      "t": 231524.36174999963,
      "d": 106.74030468749697,
      "v": 105
    },
    {
      "midi": 42,
      "hit": false,
      "t": 231672.86999999962,
      "d": 366.62974218750605,
      "v": 116
    },
    {
      "midi": 44,
      "hit": false,
      "t": 232121.48867187463,
      "d": 388.28719531252864,
      "v": 109
    },
    {
      "midi": 45,
      "hit": false,
      "t": 232560.82557812467,
      "d": 283.093851562473,
      "v": 108
    },
    {
      "midi": 66,
      "hit": false,
      "t": 232857.84207812464,
      "d": 1164.8615859374986,
      "v": 109
    },
    {
      "midi": 44,
      "hit": false,
      "t": 232864.02992187464,
      "d": 221.21541406249162,
      "v": 115
    },
    {
      "midi": 71,
      "hit": false,
      "t": 232864.02992187464,
      "d": 1143.2041328125051,
      "v": 110
    },
    {
      "midi": 78,
      "hit": false,
      "t": 232864.02992187464,
      "d": 1155.5798203125014,
      "v": 110
    },
    {
      "midi": 44,
      "hit": false,
      "t": 233755.07942187463,
      "d": 78.89500781250536,
      "v": 106
    },
    {
      "midi": 44,
      "hit": false,
      "t": 233897.39982812465,
      "d": 122.20991406249232,
      "v": 105
    }
  ]
}