{
  "jsonPath": "Rock/Soft Rock/Bee Gees/night-fever.json",
  "path": "Rock\\Soft Rock\\Bee Gees\\Night Fever.mid",
  "name": "Night Fever",
  "difficulty": "Advanced",
  "bpm": 90.00009000009,
  "notes": [
    {
      "midi": 38,
      "hit": false,
      "t": 0,
      "d": 333.333,
      "v": 87
    },
    {
      "midi": 60,
      "hit": false,
      "t": 333.333,
      "d": 499.99949999999995,
      "v": 89
    },
    {
      "midi": 62,
      "hit": false,
      "t": 333.333,
      "d": 499.99949999999995,
      "v": 95
    },
    {
      "midi": 65,
      "hit": false,
      "t": 333.333,
      "d": 499.99949999999995,
      "v": 87
    },
    {
      "midi": 69,
      "hit": false,
      "t": 333.333,
      "d": 499.99949999999995,
      "v": 97
    },
    {
      "midi": 50,
      "hit": false,
      "t": 333.333,
      "d": 333.333,
      "v": 92
    },
    {
      "midi": 38,
      "hit": false,
      "t": 666.666,
      "d": 333.33299999999997,
      "v": 87
    },
    {
      "midi": 60,
      "hit": false,
      "t": 833.3325,
      "d": 499.9994999999999,
      "v": 97
    },
    {
      "midi": 62,
      "hit": false,
      "t": 833.3325,
      "d": 499.9994999999999,
      "v": 95
    },
    {
      "midi": 65,
      "hit": false,
      "t": 833.3325,
      "d": 499.9994999999999,
      "v": 89
    },
    {
      "midi": 69,
      "hit": false,
      "t": 833.3325,
      "d": 499.9994999999999,
      "v": 108
    },
    {
      "midi": 50,
      "hit": false,
      "t": 999.999,
      "d": 333.3330000000001,
      "v": 92
    },
    {
      "midi": 60,
      "hit": false,
      "t": 1333.3319999999999,
      "d": 1333.3319999999999,
      "v": 108
    },
    {
      "midi": 62,
      "hit": false,
      "t": 1333.3319999999999,
      "d": 1333.3319999999999,
      "v": 113
    },
    {
      "midi": 65,
      "hit": false,
      "t": 1333.3319999999999,
      "d": 1333.3319999999999,
      "v": 92
    },
    {
      "midi": 69,
      "hit": false,
      "t": 1333.3319999999999,
      "d": 1333.3319999999999,
      "v": 108
    },
    {
      "midi": 38,
      "hit": false,
      "t": 1333.332,
      "d": 333.3330000000001,
      "v": 89
    },
    {
      "midi": 50,
      "hit": false,
      "t": 1666.6650000000002,
      "d": 333.3330000000001,
      "v": 89
    },
    {
      "midi": 38,
      "hit": false,
      "t": 1999.9980000000003,
      "d": 333.33299999999986,
      "v": 97
    },
    {
      "midi": 50,
      "hit": false,
      "t": 2333.331,
      "d": 333.3330000000001,
      "v": 89
    },
    {
      "midi": 31,
      "hit": false,
      "t": 2666.664,
      "d": 333.3330000000001,
      "v": 66
    },
    {
      "midi": 58,
      "hit": false,
      "t": 2999.997,
      "d": 499.9994999999999,
      "v": 84
    },
    {
      "midi": 62,
      "hit": false,
      "t": 2999.997,
      "d": 499.9994999999999,
      "v": 104
    },
    {
      "midi": 65,
      "hit": false,
      "t": 2999.997,
      "d": 499.9994999999999,
      "v": 92
    },
    {
      "midi": 67,
      "hit": false,
      "t": 2999.997,
      "d": 499.9994999999999,
      "v": 108
    },
    {
      "midi": 43,
      "hit": false,
      "t": 2999.9970000000003,
      "d": 333.3330000000001,
      "v": 82
    },
    {
      "midi": 31,
      "hit": false,
      "t": 3333.3300000000004,
      "d": 333.3330000000001,
      "v": 89
    },
    {
      "midi": 58,
      "hit": false,
      "t": 3499.9964999999997,
      "d": 499.9994999999999,
      "v": 96
    },
    {
      "midi": 62,
      "hit": false,
      "t": 3499.9964999999997,
      "d": 499.9994999999999,
      "v": 108
    },
    {
      "midi": 65,
      "hit": false,
      "t": 3499.9964999999997,
      "d": 499.9994999999999,
      "v": 95
    },
    {
      "midi": 67,
      "hit": false,
      "t": 3499.9964999999997,
      "d": 499.9994999999999,
      "v": 108
    },
    {
      "midi": 43,
      "hit": false,
      "t": 3666.6630000000005,
      "d": 333.3330000000001,
      "v": 95
    },
    {
      "midi": 58,
      "hit": false,
      "t": 3999.9959999999996,
      "d": 1333.3319999999999,
      "v": 84
    },
    {
      "midi": 62,
      "hit": false,
      "t": 3999.9959999999996,
      "d": 1333.3319999999999,
      "v": 95
    },
    {
      "midi": 65,
      "hit": false,
      "t": 3999.9959999999996,
      "d": 1333.3319999999999,
      "v": 61
    },
    {
      "midi": 67,
      "hit": false,
      "t": 3999.9959999999996,
      "d": 1333.3319999999999,
      "v": 108
    },
    {
      "midi": 31,
      "hit": false,
      "t": 3999.9960000000005,
      "d": 333.3330000000001,
      "v": 101
    },
    {
      "midi": 43,
      "hit": false,
      "t": 4333.329000000001,
      "d": 333.33299999999963,
      "v": 92
    },
    {
      "midi": 31,
      "hit": false,
      "t": 4666.662,
      "d": 333.33299999999963,
      "v": 101
    },
    {
      "midi": 43,
      "hit": false,
      "t": 4999.995,
      "d": 333.33299999999963,
      "v": 95
    },
    {
      "midi": 29,
      "hit": false,
      "t": 5333.3279999999995,
      "d": 333.33299999999963,
      "v": 57
    },
    {
      "midi": 60,
      "hit": false,
      "t": 5666.660999999999,
      "d": 499.9994999999999,
      "v": 71
    },
    {
      "midi": 64,
      "hit": false,
      "t": 5666.660999999999,
      "d": 499.9994999999999,
      "v": 84
    },
    {
      "midi": 65,
      "hit": false,
      "t": 5666.660999999999,
      "d": 499.9994999999999,
      "v": 87
    },
    {
      "midi": 69,
      "hit": false,
      "t": 5666.660999999999,
      "d": 499.9994999999999,
      "v": 87
    },
    {
      "midi": 41,
      "hit": false,
      "t": 5666.660999999999,
      "d": 333.33299999999963,
      "v": 92
    },
    {
      "midi": 29,
      "hit": false,
      "t": 5999.993999999999,
      "d": 333.33299999999963,
      "v": 97
    },
    {
      "midi": 60,
      "hit": false,
      "t": 6166.660499999999,
      "d": 499.9994999999999,
      "v": 82
    },
    {
      "midi": 64,
      "hit": false,
      "t": 6166.660499999999,
      "d": 499.9994999999999,
      "v": 95
    },
    {
      "midi": 65,
      "hit": false,
      "t": 6166.660499999999,
      "d": 499.9994999999999,
      "v": 92
    },
    {
      "midi": 69,
      "hit": false,
      "t": 6166.660499999999,
      "d": 499.9994999999999,
      "v": 95
    },
    {
      "midi": 41,
      "hit": false,
      "t": 6333.326999999998,
      "d": 333.33299999999963,
      "v": 97
    },
    {
      "midi": 29,
      "hit": false,
      "t": 6666.659999999998,
      "d": 333.33299999999963,
      "v": 101
    },
    {
      "midi": 60,
      "hit": false,
      "t": 6666.659999999999,
      "d": 1333.3320000000003,
      "v": 87
    },
    {
      "midi": 64,
      "hit": false,
      "t": 6666.659999999999,
      "d": 1333.3320000000003,
      "v": 82
    },
    {
      "midi": 65,
      "hit": false,
      "t": 6666.659999999999,
      "d": 1333.3320000000003,
      "v": 76
    },
    {
      "midi": 69,
      "hit": false,
      "t": 6666.659999999999,
      "d": 1333.3320000000003,
      "v": 95
    },
    {
      "midi": 41,
      "hit": false,
      "t": 6999.992999999998,
      "d": 333.33299999999963,
      "v": 101
    },
    {
      "midi": 29,
      "hit": false,
      "t": 7333.325999999997,
      "d": 333.33299999999963,
      "v": 108
    },
    {
      "midi": 41,
      "hit": false,
      "t": 7666.658999999997,
      "d": 333.33299999999963,
      "v": 84
    },
    {
      "midi": 31,
      "hit": false,
      "t": 7999.991999999997,
      "d": 333.33300000000054,
      "v": 97
    },
    {
      "midi": 43,
      "hit": false,
      "t": 8333.324999999997,
      "d": 333.33300000000054,
      "v": 89
    },
    {
      "midi": 58,
      "hit": false,
      "t": 8333.324999999999,
      "d": 499.9994999999999,
      "v": 72
    },
    {
      "midi": 62,
      "hit": false,
      "t": 8333.324999999999,
      "d": 499.9994999999999,
      "v": 95
    },
    {
      "midi": 65,
      "hit": false,
      "t": 8333.324999999999,
      "d": 499.9994999999999,
      "v": 76
    },
    {
      "midi": 67,
      "hit": false,
      "t": 8333.324999999999,
      "d": 499.9994999999999,
      "v": 101
    },
    {
      "midi": 31,
      "hit": false,
      "t": 8666.657999999998,
      "d": 333.33300000000054,
      "v": 108
    },
    {
      "midi": 58,
      "hit": false,
      "t": 8833.324499999999,
      "d": 499.9994999999999,
      "v": 81
    },
    {
      "midi": 62,
      "hit": false,
      "t": 8833.324499999999,
      "d": 499.9994999999999,
      "v": 108
    },
    {
      "midi": 65,
      "hit": false,
      "t": 8833.324499999999,
      "d": 499.9994999999999,
      "v": 80
    },
    {
      "midi": 67,
      "hit": false,
      "t": 8833.324499999999,
      "d": 499.9994999999999,
      "v": 108
    },
    {
      "midi": 43,
      "hit": false,
      "t": 8999.990999999998,
      "d": 333.33300000000054,
      "v": 92
    },
    {
      "midi": 58,
      "hit": false,
      "t": 9333.323999999999,
      "d": 1333.3320000000003,
      "v": 88
    },
    {
      "midi": 62,
      "hit": false,
      "t": 9333.323999999999,
      "d": 1333.3320000000003,
      "v": 108
    },
    {
      "midi": 65,
      "hit": false,
      "t": 9333.323999999999,
      "d": 1333.3320000000003,
      "v": 92
    },
    {
      "midi": 67,
      "hit": false,
      "t": 9333.323999999999,
      "d": 1333.3320000000003,
      "v": 104
    },
    {
      "midi": 31,
      "hit": false,
      "t": 9333.323999999999,
      "d": 333.33300000000054,
      "v": 101
    },
    {
      "midi": 43,
      "hit": false,
      "t": 9666.657,
      "d": 333.33300000000054,
      "v": 87
    },
    {
      "midi": 31,
      "hit": false,
      "t": 9999.99,
      "d": 333.33300000000054,
      "v": 113
    },
    {
      "midi": 43,
      "hit": false,
      "t": 10333.323,
      "d": 333.33300000000054,
      "v": 104
    },
    {
      "midi": 64,
      "hit": false,
      "t": 10666.655999999999,
      "d": 333.33300000000054,
      "v": 78
    },
    {
      "midi": 67,
      "hit": false,
      "t": 10666.655999999999,
      "d": 333.33300000000054,
      "v": 92
    },
    {
      "midi": 72,
      "hit": false,
      "t": 10666.655999999999,
      "d": 333.33300000000054,
      "v": 84
    },
    {
      "midi": 36,
      "hit": false,
      "t": 10666.656,
      "d": 999.9989999999998,
      "v": 117
    },
    {
      "midi": 72,
      "hit": false,
      "t": 10999.989,
      "d": 166.66649999999936,
      "v": 80
    },
    {
      "midi": 64,
      "hit": false,
      "t": 11166.655499999999,
      "d": 333.33300000000054,
      "v": 82
    },
    {
      "midi": 67,
      "hit": false,
      "t": 11166.655499999999,
      "d": 333.33300000000054,
      "v": 89
    },
    {
      "midi": 72,
      "hit": false,
      "t": 11166.655499999999,
      "d": 333.33300000000054,
      "v": 89
    },
    {
      "midi": 72,
      "hit": false,
      "t": 11499.9885,
      "d": 166.66649999999936,
      "v": 82
    },
    {
      "midi": 64,
      "hit": false,
      "t": 11666.654999999999,
      "d": 999.9989999999998,
      "v": 84
    },
    {
      "midi": 67,
      "hit": false,
      "t": 11666.654999999999,
      "d": 999.9989999999998,
      "v": 108
    },
    {
      "midi": 72,
      "hit": false,
      "t": 11666.654999999999,
      "d": 999.9989999999998,
      "v": 104
    },
    {
      "midi": 36,
      "hit": false,
      "t": 11666.655,
      "d": 333.33300000000054,
      "v": 101
    },
    {
      "midi": 36,
      "hit": false,
      "t": 11999.988000000001,
      "d": 999.9989999999998,
      "v": 113
    },
    {
      "midi": 67,
      "hit": false,
      "t": 12666.653999999999,
      "d": 333.33300000000054,
      "v": 89
    },
    {
      "midi": 69,
      "hit": false,
      "t": 12999.987,
      "d": 333.33300000000054,
      "v": 84
    },
    {
      "midi": 36,
      "hit": false,
      "t": 12999.987000000001,
      "d": 333.33300000000054,
      "v": 113
    },
    {
      "midi": 65,
      "hit": false,
      "t": 13333.32,
      "d": 333.33300000000054,
      "v": 69
    },
    {
      "midi": 70,
      "hit": false,
      "t": 13333.32,
      "d": 333.33300000000054,
      "v": 72
    },
    {
      "midi": 72,
      "hit": false,
      "t": 13333.32,
      "d": 333.33300000000054,
      "v": 76
    },
    {
      "midi": 34,
      "hit": false,
      "t": 13333.320000000002,
      "d": 999.9989999999998,
      "v": 72
    },
    {
      "midi": 72,
      "hit": false,
      "t": 13666.653,
      "d": 166.66649999999936,
      "v": 74
    },
    {
      "midi": 65,
      "hit": false,
      "t": 13833.3195,
      "d": 333.33300000000054,
      "v": 84
    },
    {
      "midi": 70,
      "hit": false,
      "t": 13833.3195,
      "d": 333.33300000000054,
      "v": 100
    },
    {
      "midi": 72,
      "hit": false,
      "t": 13833.3195,
      "d": 333.33300000000054,
      "v": 108
    },
    {
      "midi": 72,
      "hit": false,
      "t": 14166.6525,
      "d": 166.66649999999936,
      "v": 84
    },
    {
      "midi": 65,
      "hit": false,
      "t": 14333.319,
      "d": 999.9989999999998,
      "v": 89
    },
    {
      "midi": 70,
      "hit": false,
      "t": 14333.319,
      "d": 999.9989999999998,
      "v": 69
    },
    {
      "midi": 74,
      "hit": false,
      "t": 14333.319,
      "d": 999.9989999999998,
      "v": 104
    },
    {
      "midi": 34,
      "hit": false,
      "t": 14333.319000000001,
      "d": 333.33300000000054,
      "v": 63
    },
    {
      "midi": 34,
      "hit": false,
      "t": 14666.652000000002,
      "d": 999.9989999999998,
      "v": 104
    },
    {
      "midi": 67,
      "hit": false,
      "t": 15333.318,
      "d": 333.33300000000054,
      "v": 92
    },
    {
      "midi": 69,
      "hit": false,
      "t": 15666.651,
      "d": 333.33300000000054,
      "v": 76
    },
    {
      "midi": 34,
      "hit": false,
      "t": 15666.651000000002,
      "d": 333.33300000000054,
      "v": 96
    },
    {
      "midi": 65,
      "hit": false,
      "t": 15999.984,
      "d": 333.33300000000054,
      "v": 68
    },
    {
      "midi": 69,
      "hit": false,
      "t": 15999.984,
      "d": 333.33300000000054,
      "v": 97
    },
    {
      "midi": 72,
      "hit": false,
      "t": 15999.984,
      "d": 333.33300000000054,
      "v": 80
    },
    {
      "midi": 41,
      "hit": false,
      "t": 15999.984000000002,
      "d": 999.9990000000016,
      "v": 87
    },
    {
      "midi": 72,
      "hit": false,
      "t": 16333.317000000001,
      "d": 166.66650000000118,
      "v": 84
    },
    {
      "midi": 65,
      "hit": false,
      "t": 16499.983500000002,
      "d": 333.3329999999987,
      "v": 84
    },
    {
      "midi": 69,
      "hit": false,
      "t": 16499.983500000002,
      "d": 333.3329999999987,
      "v": 97
    },
    {
      "midi": 72,
      "hit": false,
      "t": 16499.983500000002,
      "d": 333.3329999999987,
      "v": 97
    },
    {
      "midi": 72,
      "hit": false,
      "t": 16833.3165,
      "d": 166.66649999999936,
      "v": 95
    },
    {
      "midi": 60,
      "hit": false,
      "t": 16999.983,
      "d": 666.6660000000011,
      "v": 101
    },
    {
      "midi": 65,
      "hit": false,
      "t": 16999.983,
      "d": 666.6660000000011,
      "v": 89
    },
    {
      "midi": 69,
      "hit": false,
      "t": 16999.983,
      "d": 666.6660000000011,
      "v": 92
    },
    {
      "midi": 41,
      "hit": false,
      "t": 16999.983000000004,
      "d": 333.3329999999987,
      "v": 92
    },
    {
      "midi": 41,
      "hit": false,
      "t": 17333.316000000003,
      "d": 999.9989999999998,
      "v": 95
    },
    {
      "midi": 70,
      "hit": false,
      "t": 17833.3155,
      "d": 166.66649999999936,
      "v": 77
    },
    {
      "midi": 70,
      "hit": false,
      "t": 17999.982,
      "d": 166.66649999999936,
      "v": 100
    },
    {
      "midi": 70,
      "hit": false,
      "t": 18166.6485,
      "d": 499.9995000000017,
      "v": 100
    },
    {
      "midi": 41,
      "hit": false,
      "t": 18333.315000000002,
      "d": 333.3329999999987,
      "v": 101
    },
    {
      "midi": 64,
      "hit": false,
      "t": 18666.648,
      "d": 333.3329999999987,
      "v": 68
    },
    {
      "midi": 67,
      "hit": false,
      "t": 18666.648,
      "d": 333.3329999999987,
      "v": 89
    },
    {
      "midi": 72,
      "hit": false,
      "t": 18666.648,
      "d": 333.3329999999987,
      "v": 78
    },
    {
      "midi": 36,
      "hit": false,
      "t": 18666.648,
      "d": 999.9989999999998,
      "v": 113
    },
    {
      "midi": 72,
      "hit": false,
      "t": 18999.981,
      "d": 1333.3319999999985,
      "v": 87
    },
    {
      "midi": 36,
      "hit": false,
      "t": 19666.647,
      "d": 333.3329999999987,
      "v": 108
    },
    {
      "midi": 36,
      "hit": false,
      "t": 19999.98,
      "d": 999.9989999999998,
      "v": 113
    },
    {
      "midi": 69,
      "hit": false,
      "t": 20666.645999999997,
      "d": 333.3329999999987,
      "v": 87
    },
    {
      "midi": 72,
      "hit": false,
      "t": 20999.978999999996,
      "d": 333.3329999999987,
      "v": 92
    },
    {
      "midi": 36,
      "hit": false,
      "t": 20999.979,
      "d": 333.3329999999987,
      "v": 97
    },
    {
      "midi": 64,
      "hit": false,
      "t": 21333.311999999994,
      "d": 499.9995000000017,
      "v": 74
    },
    {
      "midi": 67,
      "hit": false,
      "t": 21333.311999999994,
      "d": 499.9995000000017,
      "v": 101
    },
    {
      "midi": 75,
      "hit": false,
      "t": 21333.311999999994,
      "d": 499.9995000000017,
      "v": 66
    },
    {
      "midi": 36,
      "hit": false,
      "t": 21333.311999999998,
      "d": 999.9989999999998,
      "v": 122
    },
    {
      "midi": 64,
      "hit": false,
      "t": 21833.311499999996,
      "d": 333.3329999999987,
      "v": 95
    },
    {
      "midi": 67,
      "hit": false,
      "t": 21833.311499999996,
      "d": 333.3329999999987,
      "v": 97
    },
    {
      "midi": 74,
      "hit": false,
      "t": 21833.311499999996,
      "d": 333.3329999999987,
      "v": 104
    },
    {
      "midi": 72,
      "hit": false,
      "t": 22166.644499999995,
      "d": 166.66649999999936,
      "v": 95
    },
    {
      "midi": 64,
      "hit": false,
      "t": 22333.310999999994,
      "d": 999.9989999999998,
      "v": 67
    },
    {
      "midi": 67,
      "hit": false,
      "t": 22333.310999999994,
      "d": 999.9989999999998,
      "v": 97
    },
    {
      "midi": 72,
      "hit": false,
      "t": 22333.310999999994,
      "d": 999.9989999999998,
      "v": 101
    },
    {
      "midi": 36,
      "hit": false,
      "t": 22333.310999999998,
      "d": 333.3329999999987,
      "v": 84
    },
    {
      "midi": 36,
      "hit": false,
      "t": 22666.643999999997,
      "d": 999.9989999999998,
      "v": 113
    },
    {
      "midi": 69,
      "hit": false,
      "t": 23333.309999999994,
      "d": 333.3329999999987,
      "v": 97
    },
    {
      "midi": 72,
      "hit": false,
      "t": 23666.642999999993,
      "d": 333.3329999999987,
      "v": 87
    },
    {
      "midi": 36,
      "hit": false,
      "t": 23666.642999999996,
      "d": 333.3329999999987,
      "v": 101
    },
    {
      "midi": 65,
      "hit": false,
      "t": 23999.97599999999,
      "d": 333.3329999999987,
      "v": 71
    },
    {
      "midi": 69,
      "hit": false,
      "t": 23999.97599999999,
      "d": 333.3329999999987,
      "v": 84
    },
    {
      "midi": 72,
      "hit": false,
      "t": 23999.97599999999,
      "d": 333.3329999999987,
      "v": 82
    },
    {
      "midi": 38,
      "hit": false,
      "t": 23999.975999999995,
      "d": 999.9989999999998,
      "v": 113
    },
    {
      "midi": 72,
      "hit": false,
      "t": 24333.30899999999,
      "d": 166.66649999999936,
      "v": 80
    },
    {
      "midi": 65,
      "hit": false,
      "t": 24499.97549999999,
      "d": 499.9995000000017,
      "v": 97
    },
    {
      "midi": 69,
      "hit": false,
      "t": 24499.97549999999,
      "d": 499.9995000000017,
      "v": 113
    },
    {
      "midi": 72,
      "hit": false,
      "t": 24499.97549999999,
      "d": 499.9995000000017,
      "v": 113
    },
    {
      "midi": 65,
      "hit": false,
      "t": 24999.97499999999,
      "d": 999.9989999999998,
      "v": 87
    },
    {
      "midi": 69,
      "hit": false,
      "t": 24999.97499999999,
      "d": 999.9989999999998,
      "v": 95
    },
    {
      "midi": 74,
      "hit": false,
      "t": 24999.97499999999,
      "d": 999.9989999999998,
      "v": 92
    },
    {
      "midi": 38,
      "hit": false,
      "t": 24999.974999999995,
      "d": 333.3329999999987,
      "v": 108
    },
    {
      "midi": 38,
      "hit": false,
      "t": 25333.307999999994,
      "d": 999.9989999999998,
      "v": 92
    },
    {
      "midi": 69,
      "hit": false,
      "t": 25999.97399999999,
      "d": 333.3329999999987,
      "v": 95
    },
    {
      "midi": 69,
      "hit": false,
      "t": 26333.30699999999,
      "d": 333.3329999999987,
      "v": 92
    },
    {
      "midi": 38,
      "hit": false,
      "t": 26333.306999999993,
      "d": 333.3329999999987,
      "v": 92
    },
    {
      "midi": 65,
      "hit": false,
      "t": 26666.63999999999,
      "d": 333.3329999999987,
      "v": 82
    },
    {
      "midi": 72,
      "hit": false,
      "t": 26666.63999999999,
      "d": 333.3329999999987,
      "v": 80
    },
    {
      "midi": 41,
      "hit": false,
      "t": 26666.639999999992,
      "d": 999.9989999999998,
      "v": 78
    },
    {
      "midi": 72,
      "hit": false,
      "t": 26999.972999999987,
      "d": 499.9995000000017,
      "v": 92
    },
    {
      "midi": 69,
      "hit": false,
      "t": 27499.97249999999,
      "d": 166.66649999999936,
      "v": 97
    },
    {
      "midi": 72,
      "hit": false,
      "t": 27666.63899999999,
      "d": 333.3329999999987,
      "v": 104
    },
    {
      "midi": 36,
      "hit": false,
      "t": 27666.638999999992,
      "d": 333.3329999999987,
      "v": 78
    },
    {
      "midi": 62,
      "hit": false,
      "t": 27999.971999999987,
      "d": 666.6660000000011,
      "v": 71
    },
    {
      "midi": 65,
      "hit": false,
      "t": 27999.971999999987,
      "d": 666.6660000000011,
      "v": 89
    },
    {
      "midi": 69,
      "hit": false,
      "t": 27999.971999999987,
      "d": 666.6660000000011,
      "v": 53
    },
    {
      "midi": 34,
      "hit": false,
      "t": 27999.97199999999,
      "d": 999.9989999999998,
      "v": 72
    },
    {
      "midi": 72,
      "hit": false,
      "t": 28666.637999999988,
      "d": 166.66649999999936,
      "v": 95
    },
    {
      "midi": 72,
      "hit": false,
      "t": 28833.304499999987,
      "d": 499.9995000000017,
      "v": 101
    },
    {
      "midi": 34,
      "hit": false,
      "t": 28999.97099999999,
      "d": 333.3329999999987,
      "v": 104
    },
    {
      "midi": 64,
      "hit": false,
      "t": 29333.30399999999,
      "d": 333.3329999999987,
      "v": 80
    },
    {
      "midi": 67,
      "hit": false,
      "t": 29333.30399999999,
      "d": 333.3329999999987,
      "v": 95
    },
    {
      "midi": 72,
      "hit": false,
      "t": 29333.30399999999,
      "d": 333.3329999999987,
      "v": 101
    },
    {
      "midi": 36,
      "hit": false,
      "t": 29333.30399999999,
      "d": 999.9989999999998,
      "v": 89
    },
    {
      "midi": 72,
      "hit": false,
      "t": 29666.636999999988,
      "d": 1333.3319999999985,
      "v": 108
    },
    {
      "midi": 36,
      "hit": false,
      "t": 30333.30299999999,
      "d": 333.3329999999987,
      "v": 108
    },
    {
      "midi": 36,
      "hit": false,
      "t": 30666.635999999988,
      "d": 666.6660000000011,
      "v": 122
    },
    {
      "midi": 60,
      "hit": false,
      "t": 31333.301999999985,
      "d": 333.3329999999987,
      "v": 76
    },
    {
      "midi": 35,
      "hit": false,
      "t": 31333.30199999999,
      "d": 666.6660000000011,
      "v": 92
    },
    {
      "midi": 62,
      "hit": false,
      "t": 31666.634999999984,
      "d": 333.3329999999987,
      "v": 92
    },
    {
      "midi": 60,
      "hit": false,
      "t": 31999.967999999983,
      "d": 333.3329999999987,
      "v": 76
    },
    {
      "midi": 64,
      "hit": false,
      "t": 31999.967999999983,
      "d": 333.3329999999987,
      "v": 84
    },
    {
      "midi": 33,
      "hit": false,
      "t": 31999.96799999999,
      "d": 666.6660000000011,
      "v": 72
    },
    {
      "midi": 67,
      "hit": false,
      "t": 32333.30099999998,
      "d": 333.3329999999987,
      "v": 92
    },
    {
      "midi": 69,
      "hit": false,
      "t": 32666.63399999998,
      "d": 333.33300000000236,
      "v": 92
    },
    {
      "midi": 33,
      "hit": false,
      "t": 32666.63399999999,
      "d": 666.6659999999974,
      "v": 108
    },
    {
      "midi": 64,
      "hit": false,
      "t": 32999.96699999998,
      "d": 666.6659999999974,
      "v": 76
    },
    {
      "midi": 69,
      "hit": false,
      "t": 32999.96699999998,
      "d": 666.6659999999974,
      "v": 87
    },
    {
      "midi": 72,
      "hit": false,
      "t": 32999.96699999998,
      "d": 666.6659999999974,
      "v": 67
    },
    {
      "midi": 33,
      "hit": false,
      "t": 33333.29999999999,
      "d": 666.6659999999974,
      "v": 117
    },
    {
      "midi": 69,
      "hit": false,
      "t": 33666.63299999998,
      "d": 666.6659999999974,
      "v": 113
    },
    {
      "midi": 33,
      "hit": false,
      "t": 33999.965999999986,
      "d": 666.6659999999974,
      "v": 104
    },
    {
      "midi": 67,
      "hit": false,
      "t": 34333.29899999998,
      "d": 333.3329999999987,
      "v": 89
    },
    {
      "midi": 62,
      "hit": false,
      "t": 34666.631999999976,
      "d": 333.3329999999987,
      "v": 76
    },
    {
      "midi": 65,
      "hit": false,
      "t": 34666.631999999976,
      "d": 333.3329999999987,
      "v": 89
    },
    {
      "midi": 69,
      "hit": false,
      "t": 34666.631999999976,
      "d": 333.3329999999987,
      "v": 92
    },
    {
      "midi": 34,
      "hit": false,
      "t": 34666.63199999998,
      "d": 666.6659999999974,
      "v": 92
    },
    {
      "midi": 67,
      "hit": false,
      "t": 34999.964999999975,
      "d": 333.3329999999987,
      "v": 87
    },
    {
      "midi": 64,
      "hit": false,
      "t": 35333.29799999997,
      "d": 333.3329999999987,
      "v": 80
    },
    {
      "midi": 34,
      "hit": false,
      "t": 35333.29799999998,
      "d": 666.6659999999974,
      "v": 104
    },
    {
      "midi": 62,
      "hit": false,
      "t": 35666.63099999997,
      "d": 499.9994999999981,
      "v": 68
    },
    {
      "midi": 65,
      "hit": false,
      "t": 35666.63099999997,
      "d": 499.9994999999981,
      "v": 84
    },
    {
      "midi": 69,
      "hit": false,
      "t": 35666.63099999997,
      "d": 499.9994999999981,
      "v": 78
    },
    {
      "midi": 34,
      "hit": false,
      "t": 35999.96399999998,
      "d": 666.6659999999974,
      "v": 104
    },
    {
      "midi": 67,
      "hit": false,
      "t": 36166.63049999997,
      "d": 166.66649999999936,
      "v": 84
    },
    {
      "midi": 64,
      "hit": false,
      "t": 36333.29699999997,
      "d": 666.6659999999974,
      "v": 97
    },
    {
      "midi": 34,
      "hit": false,
      "t": 36666.629999999976,
      "d": 666.6659999999974,
      "v": 104
    },
    {
      "midi": 64,
      "hit": false,
      "t": 36999.96299999997,
      "d": 333.3329999999987,
      "v": 117
    },
    {
      "midi": 60,
      "hit": false,
      "t": 37333.295999999966,
      "d": 333.3329999999987,
      "v": 54
    },
    {
      "midi": 64,
      "hit": false,
      "t": 37333.295999999966,
      "d": 333.3329999999987,
      "v": 72
    },
    {
      "midi": 33,
      "hit": false,
      "t": 37333.29599999997,
      "d": 666.6659999999974,
      "v": 87
    },
    {
      "midi": 67,
      "hit": false,
      "t": 37666.628999999964,
      "d": 333.3329999999987,
      "v": 92
    },
    {
      "midi": 69,
      "hit": false,
      "t": 37999.96199999996,
      "d": 333.3329999999987,
      "v": 89
    },
    {
      "midi": 33,
      "hit": false,
      "t": 37999.96199999997,
      "d": 666.6659999999974,
      "v": 117
    },
    {
      "midi": 64,
      "hit": false,
      "t": 38333.29499999996,
      "d": 666.6659999999974,
      "v": 64
    },
    {
      "midi": 69,
      "hit": false,
      "t": 38333.29499999996,
      "d": 666.6659999999974,
      "v": 80
    },
    {
      "midi": 72,
      "hit": false,
      "t": 38333.29499999996,
      "d": 666.6659999999974,
      "v": 66
    },
    {
      "midi": 33,
      "hit": false,
      "t": 38666.62799999997,
      "d": 666.6659999999974,
      "v": 108
    },
    {
      "midi": 69,
      "hit": false,
      "t": 38999.96099999996,
      "d": 333.3329999999987,
      "v": 52
    },
    {
      "midi": 67,
      "hit": false,
      "t": 39333.29399999996,
      "d": 333.3329999999987,
      "v": 82
    },
    {
      "midi": 33,
      "hit": false,
      "t": 39333.293999999965,
      "d": 666.6659999999974,
      "v": 87
    },
    {
      "midi": 59,
      "hit": false,
      "t": 39666.62699999996,
      "d": 333.3329999999987,
      "v": 74
    },
    {
      "midi": 64,
      "hit": false,
      "t": 39666.62699999996,
      "d": 333.3329999999987,
      "v": 51
    },
    {
      "midi": 69,
      "hit": false,
      "t": 39666.62699999996,
      "d": 333.3329999999987,
      "v": 95
    },
    {
      "midi": 40,
      "hit": false,
      "t": 39999.95999999996,
      "d": 999.9990000000034,
      "v": 87
    },
    {
      "midi": 67,
      "hit": false,
      "t": 40166.626499999955,
      "d": 166.66649999999936,
      "v": 101
    },
    {
      "midi": 64,
      "hit": false,
      "t": 40333.292999999954,
      "d": 1999.9979999999996,
      "v": 97
    },
    {
      "midi": 40,
      "hit": false,
      "t": 40999.958999999966,
      "d": 666.6659999999974,
      "v": 92
    },
    {
      "midi": 38,
      "hit": false,
      "t": 41666.62499999996,
      "d": 666.6659999999974,
      "v": 95
    },
    {
      "midi": 64,
      "hit": false,
      "t": 42333.290999999954,
      "d": 166.66649999999936,
      "v": 108
    },
    {
      "midi": 35,
      "hit": false,
      "t": 42333.29099999996,
      "d": 333.3329999999987,
      "v": 87
    },
    {
      "midi": 64,
      "hit": false,
      "t": 42499.95749999995,
      "d": 166.66649999999936,
      "v": 95
    },
    {
      "midi": 60,
      "hit": false,
      "t": 42666.62399999995,
      "d": 333.3329999999987,
      "v": 80
    },
    {
      "midi": 64,
      "hit": false,
      "t": 42666.62399999995,
      "d": 333.3329999999987,
      "v": 97
    },
    {
      "midi": 33,
      "hit": false,
      "t": 42666.62399999996,
      "d": 666.6659999999974,
      "v": 63
    },
    {
      "midi": 67,
      "hit": false,
      "t": 42999.95699999995,
      "d": 333.3329999999987,
      "v": 101
    },
    {
      "midi": 69,
      "hit": false,
      "t": 43333.28999999995,
      "d": 333.3329999999987,
      "v": 82
    },
    {
      "midi": 33,
      "hit": false,
      "t": 43333.28999999996,
      "d": 666.6659999999974,
      "v": 108
    },
    {
      "midi": 64,
      "hit": false,
      "t": 43666.62299999995,
      "d": 666.6659999999974,
      "v": 59
    },
    {
      "midi": 69,
      "hit": false,
      "t": 43666.62299999995,
      "d": 666.6659999999974,
      "v": 80
    },
    {
      "midi": 72,
      "hit": false,
      "t": 43666.62299999995,
      "d": 666.6659999999974,
      "v": 69
    },
    {
      "midi": 33,
      "hit": false,
      "t": 43999.955999999955,
      "d": 666.6659999999974,
      "v": 104
    },
    {
      "midi": 69,
      "hit": false,
      "t": 44333.288999999946,
      "d": 666.6659999999974,
      "v": 72
    },
    {
      "midi": 33,
      "hit": false,
      "t": 44666.62199999995,
      "d": 666.6659999999974,
      "v": 104
    },
    {
      "midi": 67,
      "hit": false,
      "t": 44999.95499999994,
      "d": 166.66649999999936,
      "v": 72
    },
    {
      "midi": 69,
      "hit": false,
      "t": 45166.62149999994,
      "d": 166.66649999999936,
      "v": 71
    },
    {
      "midi": 65,
      "hit": false,
      "t": 45333.28799999994,
      "d": 333.3329999999987,
      "v": 59
    },
    {
      "midi": 69,
      "hit": false,
      "t": 45333.28799999994,
      "d": 333.3329999999987,
      "v": 82
    },
    {
      "midi": 72,
      "hit": false,
      "t": 45333.28799999994,
      "d": 333.3329999999987,
      "v": 78
    },
    {
      "midi": 38,
      "hit": false,
      "t": 45333.28799999995,
      "d": 666.6659999999974,
      "v": 82
    },
    {
      "midi": 72,
      "hit": false,
      "t": 45666.62099999994,
      "d": 166.66649999999936,
      "v": 95
    },
    {
      "midi": 65,
      "hit": false,
      "t": 45833.28749999994,
      "d": 499.9994999999981,
      "v": 89
    },
    {
      "midi": 69,
      "hit": false,
      "t": 45833.28749999994,
      "d": 499.9994999999981,
      "v": 104
    },
    {
      "midi": 72,
      "hit": false,
      "t": 45833.28749999994,
      "d": 499.9994999999981,
      "v": 101
    },
    {
      "midi": 38,
      "hit": false,
      "t": 45999.95399999995,
      "d": 666.6659999999974,
      "v": 97
    },
    {
      "midi": 64,
      "hit": false,
      "t": 46333.28699999994,
      "d": 666.6659999999974,
      "v": 95
    },
    {
      "midi": 69,
      "hit": false,
      "t": 46333.28699999994,
      "d": 666.6659999999974,
      "v": 104
    },
    {
      "midi": 73,
      "hit": false,
      "t": 46333.28699999994,
      "d": 666.6659999999974,
      "v": 88
    },
    {
      "midi": 33,
      "hit": false,
      "t": 46666.619999999944,
      "d": 666.6659999999974,
      "v": 84
    },
    {
      "midi": 74,
      "hit": false,
      "t": 46999.952999999936,
      "d": 333.3329999999987,
      "v": 89
    },
    {
      "midi": 74,
      "hit": false,
      "t": 47333.285999999935,
      "d": 333.3329999999987,
      "v": 97
    },
    {
      "midi": 45,
      "hit": false,
      "t": 47333.28599999994,
      "d": 333.3329999999987,
      "v": 95
    },
    {
      "midi": 74,
      "hit": false,
      "t": 47666.61899999993,
      "d": 333.3329999999987,
      "v": 92
    },
    {
      "midi": 48,
      "hit": false,
      "t": 47666.61899999994,
      "d": 333.3329999999987,
      "v": 50
    },
    {
      "midi": 65,
      "hit": false,
      "t": 47999.95199999993,
      "d": 666.6659999999974,
      "v": 57
    },
    {
      "midi": 69,
      "hit": false,
      "t": 47999.95199999993,
      "d": 666.6659999999974,
      "v": 80
    },
    {
      "midi": 72,
      "hit": false,
      "t": 47999.95199999993,
      "d": 666.6659999999974,
      "v": 74
    },
    {
      "midi": 74,
      "hit": false,
      "t": 47999.95199999993,
      "d": 666.6659999999974,
      "v": 82
    },
    {
      "midi": 38,
      "hit": false,
      "t": 47999.95199999994,
      "d": 333.3329999999987,
      "v": 71
    },
    {
      "midi": 50,
      "hit": false,
      "t": 47999.95199999994,
      "d": 333.3329999999987,
      "v": 76
    },
    {
      "midi": 50,
      "hit": false,
      "t": 48333.28499999994,
      "d": 333.3329999999987,
      "v": 108
    },
    {
      "midi": 72,
      "hit": false,
      "t": 48666.61799999993,
      "d": 333.3329999999987,
      "v": 80
    },
    {
      "midi": 38,
      "hit": false,
      "t": 48666.61799999994,
      "d": 333.3329999999987,
      "v": 95
    },
    {
      "midi": 50,
      "hit": false,
      "t": 48666.61799999994,
      "d": 333.3329999999987,
      "v": 89
    },
    {
      "midi": 69,
      "hit": false,
      "t": 48999.95099999993,
      "d": 333.3329999999987,
      "v": 84
    },
    {
      "midi": 50,
      "hit": false,
      "t": 48999.950999999935,
      "d": 333.3329999999987,
      "v": 89
    },
    {
      "midi": 72,
      "hit": false,
      "t": 49333.28399999993,
      "d": 666.6659999999974,
      "v": 87
    },
    {
      "midi": 38,
      "hit": false,
      "t": 49333.283999999934,
      "d": 333.3329999999987,
      "v": 87
    },
    {
      "midi": 50,
      "hit": false,
      "t": 49333.283999999934,
      "d": 333.3329999999987,
      "v": 97
    },
    {
      "midi": 50,
      "hit": false,
      "t": 49666.61699999993,
      "d": 333.3329999999987,
      "v": 92
    },
    {
      "midi": 69,
      "hit": false,
      "t": 49999.949999999924,
      "d": 333.3329999999987,
      "v": 92
    },
    {
      "midi": 38,
      "hit": false,
      "t": 49999.94999999993,
      "d": 333.3329999999987,
      "v": 72
    },
    {
      "midi": 50,
      "hit": false,
      "t": 49999.94999999993,
      "d": 333.3329999999987,
      "v": 92
    },
    {
      "midi": 58,
      "hit": false,
      "t": 50333.28299999992,
      "d": 333.3329999999987,
      "v": 84
    },
    {
      "midi": 62,
      "hit": false,
      "t": 50333.28299999992,
      "d": 333.3329999999987,
      "v": 97
    },
    {
      "midi": 65,
      "hit": false,
      "t": 50333.28299999992,
      "d": 333.3329999999987,
      "v": 92
    },
    {
      "midi": 67,
      "hit": false,
      "t": 50333.28299999992,
      "d": 333.3329999999987,
      "v": 101
    },
    {
      "midi": 50,
      "hit": false,
      "t": 50333.28299999993,
      "d": 333.3329999999987,
      "v": 87
    },
    {
      "midi": 31,
      "hit": false,
      "t": 50666.61599999993,
      "d": 333.3329999999987,
      "v": 80
    },
    {
      "midi": 43,
      "hit": false,
      "t": 50666.61599999993,
      "d": 333.3329999999987,
      "v": 84
    },
    {
      "midi": 43,
      "hit": false,
      "t": 50999.94899999993,
      "d": 333.3329999999987,
      "v": 89
    },
    {
      "midi": 31,
      "hit": false,
      "t": 51333.28199999993,
      "d": 333.3329999999987,
      "v": 60
    },
    {
      "midi": 43,
      "hit": false,
      "t": 51333.28199999993,
      "d": 333.3329999999987,
      "v": 63
    },
    {
      "midi": 43,
      "hit": false,
      "t": 51666.614999999925,
      "d": 333.3329999999987,
      "v": 92
    },
    {
      "midi": 69,
      "hit": false,
      "t": 51999.947999999924,
      "d": 166.66649999999936,
      "v": 117
    },
    {
      "midi": 31,
      "hit": false,
      "t": 51999.947999999924,
      "d": 333.3329999999987,
      "v": 71
    },
    {
      "midi": 43,
      "hit": false,
      "t": 51999.947999999924,
      "d": 333.3329999999987,
      "v": 92
    },
    {
      "midi": 72,
      "hit": false,
      "t": 52166.61449999992,
      "d": 499.9994999999981,
      "v": 95
    },
    {
      "midi": 43,
      "hit": false,
      "t": 52333.28099999992,
      "d": 333.3329999999987,
      "v": 82
    },
    {
      "midi": 72,
      "hit": false,
      "t": 52666.61399999992,
      "d": 333.3329999999987,
      "v": 57
    },
    {
      "midi": 31,
      "hit": false,
      "t": 52666.61399999992,
      "d": 333.3329999999987,
      "v": 66
    },
    {
      "midi": 43,
      "hit": false,
      "t": 52666.61399999992,
      "d": 333.3329999999987,
      "v": 72
    },
    {
      "midi": 69,
      "hit": false,
      "t": 52999.94699999992,
      "d": 166.66649999999936,
      "v": 87
    },
    {
      "midi": 43,
      "hit": false,
      "t": 52999.94699999992,
      "d": 333.3329999999987,
      "v": 82
    },
    {
      "midi": 64,
      "hit": false,
      "t": 53166.61349999992,
      "d": 166.66649999999936,
      "v": 89
    },
    {
      "midi": 65,
      "hit": false,
      "t": 53166.61349999992,
      "d": 166.66649999999936,
      "v": 95
    },
    {
      "midi": 72,
      "hit": false,
      "t": 53166.61349999992,
      "d": 166.66649999999936,
      "v": 97
    },
    {
      "midi": 29,
      "hit": false,
      "t": 53333.27999999992,
      "d": 333.3329999999987,
      "v": 68
    },
    {
      "midi": 41,
      "hit": false,
      "t": 53333.27999999992,
      "d": 333.3329999999987,
      "v": 76
    },
    {
      "midi": 74,
      "hit": false,
      "t": 53666.61299999992,
      "d": 499.9994999999981,
      "v": 89
    },
    {
      "midi": 41,
      "hit": false,
      "t": 53666.61299999992,
      "d": 333.3329999999987,
      "v": 80
    },
    {
      "midi": 29,
      "hit": false,
      "t": 53999.945999999916,
      "d": 333.3329999999987,
      "v": 61
    },
    {
      "midi": 41,
      "hit": false,
      "t": 53999.945999999916,
      "d": 333.3329999999987,
      "v": 71
    },
    {
      "midi": 60,
      "hit": false,
      "t": 54166.612499999916,
      "d": 499.9994999999981,
      "v": 80
    },
    {
      "midi": 64,
      "hit": false,
      "t": 54166.612499999916,
      "d": 499.9994999999981,
      "v": 97
    },
    {
      "midi": 69,
      "hit": false,
      "t": 54166.612499999916,
      "d": 499.9994999999981,
      "v": 104
    },
    {
      "midi": 41,
      "hit": false,
      "t": 54333.278999999915,
      "d": 333.3329999999987,
      "v": 89
    },
    {
      "midi": 60,
      "hit": false,
      "t": 54666.611999999914,
      "d": 1333.3320000000022,
      "v": 61
    },
    {
      "midi": 64,
      "hit": false,
      "t": 54666.611999999914,
      "d": 1333.3320000000022,
      "v": 34
    },
    {
      "midi": 65,
      "hit": false,
      "t": 54666.611999999914,
      "d": 1333.3320000000022,
      "v": 95
    },
    {
      "midi": 69,
      "hit": false,
      "t": 54666.611999999914,
      "d": 1333.3320000000022,
      "v": 84
    },
    {
      "midi": 29,
      "hit": false,
      "t": 54666.611999999914,
      "d": 333.3329999999987,
      "v": 59
    },
    {
      "midi": 41,
      "hit": false,
      "t": 54666.611999999914,
      "d": 333.3329999999987,
      "v": 78
    },
    {
      "midi": 41,
      "hit": false,
      "t": 54999.94499999991,
      "d": 333.3329999999987,
      "v": 82
    },
    {
      "midi": 29,
      "hit": false,
      "t": 55333.27799999991,
      "d": 333.3329999999987,
      "v": 53
    },
    {
      "midi": 41,
      "hit": false,
      "t": 55333.27799999991,
      "d": 333.3329999999987,
      "v": 71
    },
    {
      "midi": 41,
      "hit": false,
      "t": 55666.61099999991,
      "d": 333.3329999999987,
      "v": 78
    },
    {
      "midi": 31,
      "hit": false,
      "t": 55999.94399999991,
      "d": 333.3329999999987,
      "v": 64
    },
    {
      "midi": 43,
      "hit": false,
      "t": 55999.94399999991,
      "d": 333.3329999999987,
      "v": 59
    },
    {
      "midi": 43,
      "hit": false,
      "t": 56333.27699999991,
      "d": 333.3329999999987,
      "v": 82
    },
    {
      "midi": 58,
      "hit": false,
      "t": 56333.276999999915,
      "d": 499.9994999999981,
      "v": 36
    },
    {
      "midi": 62,
      "hit": false,
      "t": 56333.276999999915,
      "d": 499.9994999999981,
      "v": 92
    },
    {
      "midi": 65,
      "hit": false,
      "t": 56333.276999999915,
      "d": 499.9994999999981,
      "v": 80
    },
    {
      "midi": 67,
      "hit": false,
      "t": 56333.276999999915,
      "d": 499.9994999999981,
      "v": 101
    },
    {
      "midi": 31,
      "hit": false,
      "t": 56666.609999999906,
      "d": 333.3329999999987,
      "v": 59
    },
    {
      "midi": 43,
      "hit": false,
      "t": 56666.609999999906,
      "d": 333.3329999999987,
      "v": 84
    },
    {
      "midi": 58,
      "hit": false,
      "t": 56833.27649999991,
      "d": 499.9994999999981,
      "v": 77
    },
    {
      "midi": 62,
      "hit": false,
      "t": 56833.27649999991,
      "d": 499.9994999999981,
      "v": 108
    },
    {
      "midi": 65,
      "hit": false,
      "t": 56833.27649999991,
      "d": 499.9994999999981,
      "v": 97
    },
    {
      "midi": 67,
      "hit": false,
      "t": 56833.27649999991,
      "d": 499.9994999999981,
      "v": 108
    },
    {
      "midi": 43,
      "hit": false,
      "t": 56999.942999999905,
      "d": 333.3329999999987,
      "v": 82
    },
    {
      "midi": 31,
      "hit": false,
      "t": 57333.2759999999,
      "d": 333.3329999999987,
      "v": 76
    },
    {
      "midi": 43,
      "hit": false,
      "t": 57333.2759999999,
      "d": 333.3329999999987,
      "v": 95
    },
    {
      "midi": 58,
      "hit": false,
      "t": 57333.27599999991,
      "d": 666.6659999999974,
      "v": 92
    },
    {
      "midi": 62,
      "hit": false,
      "t": 57333.27599999991,
      "d": 666.6659999999974,
      "v": 108
    },
    {
      "midi": 65,
      "hit": false,
      "t": 57333.27599999991,
      "d": 666.6659999999974,
      "v": 87
    },
    {
      "midi": 67,
      "hit": false,
      "t": 57333.27599999991,
      "d": 666.6659999999974,
      "v": 104
    },
    {
      "midi": 43,
      "hit": false,
      "t": 57666.6089999999,
      "d": 333.3329999999987,
      "v": 84
    },
    {
      "midi": 31,
      "hit": false,
      "t": 57999.9419999999,
      "d": 333.3329999999987,
      "v": 67
    },
    {
      "midi": 43,
      "hit": false,
      "t": 57999.9419999999,
      "d": 333.3329999999987,
      "v": 89
    },
    {
      "midi": 69,
      "hit": false,
      "t": 57999.94199999991,
      "d": 166.66649999999936,
      "v": 95
    },
    {
      "midi": 69,
      "hit": false,
      "t": 58166.60849999991,
      "d": 166.66649999999936,
      "v": 95
    },
    {
      "midi": 43,
      "hit": false,
      "t": 58333.2749999999,
      "d": 333.3329999999987,
      "v": 89
    },
    {
      "midi": 72,
      "hit": false,
      "t": 58333.27499999991,
      "d": 333.3329999999987,
      "v": 71
    },
    {
      "midi": 38,
      "hit": false,
      "t": 58666.6079999999,
      "d": 333.3329999999987,
      "v": 68
    },
    {
      "midi": 50,
      "hit": false,
      "t": 58666.6079999999,
      "d": 333.3329999999987,
      "v": 82
    },
    {
      "midi": 65,
      "hit": false,
      "t": 58666.607999999906,
      "d": 666.6659999999974,
      "v": 89
    },
    {
      "midi": 69,
      "hit": false,
      "t": 58666.607999999906,
      "d": 666.6659999999974,
      "v": 101
    },
    {
      "midi": 72,
      "hit": false,
      "t": 58666.607999999906,
      "d": 666.6659999999974,
      "v": 97
    },
    {
      "midi": 74,
      "hit": false,
      "t": 58666.607999999906,
      "d": 666.6659999999974,
      "v": 101
    },
    {
      "midi": 50,
      "hit": false,
      "t": 58999.9409999999,
      "d": 333.3329999999987,
      "v": 95
    },
    {
      "midi": 38,
      "hit": false,
      "t": 59333.273999999896,
      "d": 333.3329999999987,
      "v": 69
    },
    {
      "midi": 50,
      "hit": false,
      "t": 59333.273999999896,
      "d": 333.3329999999987,
      "v": 95
    },
    {
      "midi": 72,
      "hit": false,
      "t": 59333.2739999999,
      "d": 333.3329999999987,
      "v": 63
    },
    {
      "midi": 50,
      "hit": false,
      "t": 59666.606999999894,
      "d": 333.3329999999987,
      "v": 89
    },
    {
      "midi": 69,
      "hit": false,
      "t": 59666.6069999999,
      "d": 333.3329999999987,
      "v": 87
    },
    {
      "midi": 38,
      "hit": false,
      "t": 59999.93999999989,
      "d": 333.3329999999987,
      "v": 84
    },
    {
      "midi": 50,
      "hit": false,
      "t": 59999.93999999989,
      "d": 333.3329999999987,
      "v": 92
    },
    {
      "midi": 72,
      "hit": false,
      "t": 59999.9399999999,
      "d": 666.6659999999974,
      "v": 87
    },
    {
      "midi": 50,
      "hit": false,
      "t": 60333.27299999989,
      "d": 333.3329999999987,
      "v": 87
    },
    {
      "midi": 38,
      "hit": false,
      "t": 60666.60599999989,
      "d": 333.3329999999987,
      "v": 78
    },
    {
      "midi": 50,
      "hit": false,
      "t": 60666.60599999989,
      "d": 333.3329999999987,
      "v": 95
    },
    {
      "midi": 69,
      "hit": false,
      "t": 60666.6059999999,
      "d": 333.3329999999987,
      "v": 89
    },
    {
      "midi": 50,
      "hit": false,
      "t": 60999.93899999989,
      "d": 333.3329999999987,
      "v": 92
    },
    {
      "midi": 58,
      "hit": false,
      "t": 60999.9389999999,
      "d": 333.3329999999987,
      "v": 69
    },
    {
      "midi": 62,
      "hit": false,
      "t": 60999.9389999999,
      "d": 333.3329999999987,
      "v": 92
    },
    {
      "midi": 65,
      "hit": false,
      "t": 60999.9389999999,
      "d": 333.3329999999987,
      "v": 87
    },
    {
      "midi": 67,
      "hit": false,
      "t": 60999.9389999999,
      "d": 333.3329999999987,
      "v": 104
    },
    {
      "midi": 31,
      "hit": false,
      "t": 61333.27199999989,
      "d": 333.3329999999987,
      "v": 64
    },
    {
      "midi": 43,
      "hit": false,
      "t": 61333.27199999989,
      "d": 333.3329999999987,
      "v": 71
    },
    {
      "midi": 43,
      "hit": false,
      "t": 61666.60499999989,
      "d": 333.3329999999987,
      "v": 89
    },
    {
      "midi": 31,
      "hit": false,
      "t": 61999.937999999886,
      "d": 333.3329999999987,
      "v": 60
    },
    {
      "midi": 43,
      "hit": false,
      "t": 61999.937999999886,
      "d": 333.3329999999987,
      "v": 72
    },
    {
      "midi": 43,
      "hit": false,
      "t": 62333.270999999884,
      "d": 333.3329999999987,
      "v": 87
    },
    {
      "midi": 31,
      "hit": false,
      "t": 62666.60399999988,
      "d": 333.3329999999987,
      "v": 76
    },
    {
      "midi": 43,
      "hit": false,
      "t": 62666.60399999988,
      "d": 333.3329999999987,
      "v": 87
    },
    {
      "midi": 69,
      "hit": false,
      "t": 62666.6039999999,
      "d": 166.66649999999936,
      "v": 92
    },
    {
      "midi": 72,
      "hit": false,
      "t": 62833.2704999999,
      "d": 499.9994999999981,
      "v": 89
    },
    {
      "midi": 43,
      "hit": false,
      "t": 62999.93699999988,
      "d": 333.3329999999987,
      "v": 87
    },
    {
      "midi": 31,
      "hit": false,
      "t": 63333.26999999988,
      "d": 333.3329999999987,
      "v": 67
    },
    {
      "midi": 43,
      "hit": false,
      "t": 63333.26999999988,
      "d": 333.3329999999987,
      "v": 78
    },
    {
      "midi": 72,
      "hit": false,
      "t": 63333.269999999895,
      "d": 333.3329999999987,
      "v": 97
    },
    {
      "midi": 43,
      "hit": false,
      "t": 63666.60299999988,
      "d": 333.3329999999987,
      "v": 82
    },
    {
      "midi": 64,
      "hit": false,
      "t": 63833.26949999989,
      "d": 166.66649999999936,
      "v": 92
    },
    {
      "midi": 65,
      "hit": false,
      "t": 63833.26949999989,
      "d": 166.66649999999936,
      "v": 97
    },
    {
      "midi": 69,
      "hit": false,
      "t": 63833.26949999989,
      "d": 166.66649999999936,
      "v": 95
    },
    {
      "midi": 72,
      "hit": false,
      "t": 63833.26949999989,
      "d": 166.66649999999936,
      "v": 97
    },
    {
      "midi": 29,
      "hit": false,
      "t": 63999.93599999988,
      "d": 333.3329999999987,
      "v": 68
    },
    {
      "midi": 41,
      "hit": false,
      "t": 63999.93599999988,
      "d": 333.3329999999987,
      "v": 84
    },
    {
      "midi": 41,
      "hit": false,
      "t": 64333.26899999988,
      "d": 333.3329999999987,
      "v": 74
    },
    {
      "midi": 74,
      "hit": false,
      "t": 64333.26899999989,
      "d": 499.9994999999981,
      "v": 89
    },
    {
      "midi": 29,
      "hit": false,
      "t": 64666.601999999875,
      "d": 333.3329999999987,
      "v": 64
    },
    {
      "midi": 41,
      "hit": false,
      "t": 64666.601999999875,
      "d": 333.3329999999987,
      "v": 72
    },
    {
      "midi": 60,
      "hit": false,
      "t": 64833.26849999989,
      "d": 499.9994999999981,
      "v": 89
    },
    {
      "midi": 64,
      "hit": false,
      "t": 64833.26849999989,
      "d": 499.9994999999981,
      "v": 104
    },
    {
      "midi": 65,
      "hit": false,
      "t": 64833.26849999989,
      "d": 499.9994999999981,
      "v": 104
    },
    {
      "midi": 69,
      "hit": false,
      "t": 64833.26849999989,
      "d": 499.9994999999981,
      "v": 113
    },
    {
      "midi": 41,
      "hit": false,
      "t": 64999.934999999874,
      "d": 333.3329999999987,
      "v": 66
    },
    {
      "midi": 29,
      "hit": false,
      "t": 65333.26799999987,
      "d": 333.333000000006,
      "v": 71
    },
    {
      "midi": 41,
      "hit": false,
      "t": 65333.26799999987,
      "d": 333.333000000006,
      "v": 74
    },
    {
      "midi": 60,
      "hit": false,
      "t": 65333.26799999989,
      "d": 1333.3320000000022,
      "v": 101
    },
    {
      "midi": 64,
      "hit": false,
      "t": 65333.26799999989,
      "d": 1333.3320000000022,
      "v": 104
    },
    {
      "midi": 65,
      "hit": false,
      "t": 65333.26799999989,
      "d": 1333.3320000000022,
      "v": 104
    },
    {
      "midi": 69,
      "hit": false,
      "t": 65333.26799999989,
      "d": 1333.3320000000022,
      "v": 104
    },
    {
      "midi": 41,
      "hit": false,
      "t": 65666.60099999988,
      "d": 333.3329999999987,
      "v": 76
    },
    {
      "midi": 29,
      "hit": false,
      "t": 65999.93399999988,
      "d": 333.3329999999987,
      "v": 59
    },
    {
      "midi": 41,
      "hit": false,
      "t": 65999.93399999988,
      "d": 333.3329999999987,
      "v": 66
    },
    {
      "midi": 41,
      "hit": false,
      "t": 66333.26699999988,
      "d": 333.3329999999987,
      "v": 76
    },
    {
      "midi": 31,
      "hit": false,
      "t": 66666.59999999987,
      "d": 333.3329999999987,
      "v": 62
    },
    {
      "midi": 43,
      "hit": false,
      "t": 66666.59999999987,
      "d": 333.3329999999987,
      "v": 82
    },
    {
      "midi": 43,
      "hit": false,
      "t": 66999.93299999987,
      "d": 333.3329999999987,
      "v": 72
    },
    {
      "midi": 58,
      "hit": false,
      "t": 66999.93299999989,
      "d": 499.99950000000536,
      "v": 68
    },
    {
      "midi": 62,
      "hit": false,
      "t": 66999.93299999989,
      "d": 499.99950000000536,
      "v": 92
    },
    {
      "midi": 65,
      "hit": false,
      "t": 66999.93299999989,
      "d": 499.99950000000536,
      "v": 97
    },
    {
      "midi": 67,
      "hit": false,
      "t": 66999.93299999989,
      "d": 499.99950000000536,
      "v": 97
    },
    {
      "midi": 31,
      "hit": false,
      "t": 67333.26599999987,
      "d": 333.3329999999987,
      "v": 65
    },
    {
      "midi": 43,
      "hit": false,
      "t": 67333.26599999987,
      "d": 333.3329999999987,
      "v": 57
    },
    {
      "midi": 58,
      "hit": false,
      "t": 67499.9324999999,
      "d": 499.99950000000536,
      "v": 74
    },
    {
      "midi": 62,
      "hit": false,
      "t": 67499.9324999999,
      "d": 499.99950000000536,
      "v": 92
    },
    {
      "midi": 65,
      "hit": false,
      "t": 67499.9324999999,
      "d": 499.99950000000536,
      "v": 95
    },
    {
      "midi": 67,
      "hit": false,
      "t": 67499.9324999999,
      "d": 499.99950000000536,
      "v": 101
    },
    {
      "midi": 43,
      "hit": false,
      "t": 67666.59899999987,
      "d": 333.3329999999987,
      "v": 92
    },
    {
      "midi": 31,
      "hit": false,
      "t": 67999.93199999987,
      "d": 333.3329999999987,
      "v": 71
    },
    {
      "midi": 43,
      "hit": false,
      "t": 67999.93199999987,
      "d": 333.3329999999987,
      "v": 95
    },
    {
      "midi": 58,
      "hit": false,
      "t": 67999.9319999999,
      "d": 1333.3319999999949,
      "v": 84
    },
    {
      "midi": 62,
      "hit": false,
      "t": 67999.9319999999,
      "d": 1333.3319999999949,
      "v": 101
    },
    {
      "midi": 65,
      "hit": false,
      "t": 67999.9319999999,
      "d": 1333.3319999999949,
      "v": 92
    },
    {
      "midi": 67,
      "hit": false,
      "t": 67999.9319999999,
      "d": 1333.3319999999949,
      "v": 104
    },
    {
      "midi": 43,
      "hit": false,
      "t": 68333.26499999987,
      "d": 333.3329999999987,
      "v": 92
    },
    {
      "midi": 31,
      "hit": false,
      "t": 68666.59799999987,
      "d": 333.3329999999987,
      "v": 64
    },
    {
      "midi": 43,
      "hit": false,
      "t": 68666.59799999987,
      "d": 333.3329999999987,
      "v": 82
    },
    {
      "midi": 43,
      "hit": false,
      "t": 68999.93099999987,
      "d": 333.3329999999987,
      "v": 87
    },
    {
      "midi": 43,
      "hit": false,
      "t": 69333.26399999986,
      "d": 666.6659999999974,
      "v": 71
    },
    {
      "midi": 50,
      "hit": false,
      "t": 69333.26399999986,
      "d": 666.6659999999974,
      "v": 95
    },
    {
      "midi": 59,
      "hit": false,
      "t": 69333.2639999999,
      "d": 333.3329999999987,
      "v": 78
    },
    {
      "midi": 62,
      "hit": false,
      "t": 69333.2639999999,
      "d": 333.3329999999987,
      "v": 104
    },
    {
      "midi": 67,
      "hit": false,
      "t": 69333.2639999999,
      "d": 333.3329999999987,
      "v": 101
    },
    {
      "midi": 67,
      "hit": false,
      "t": 69666.59699999989,
      "d": 333.3329999999987,
      "v": 97
    },
    {
      "midi": 43,
      "hit": false,
      "t": 69999.92999999986,
      "d": 666.6659999999974,
      "v": 104
    },
    {
      "midi": 50,
      "hit": false,
      "t": 69999.92999999986,
      "d": 666.6659999999974,
      "v": 95
    },
    {
      "midi": 67,
      "hit": false,
      "t": 69999.92999999989,
      "d": 1999.9980000000069,
      "v": 95
    },
    {
      "midi": 43,
      "hit": false,
      "t": 70666.59599999986,
      "d": 666.6659999999974,
      "v": 104
    },
    {
      "midi": 50,
      "hit": false,
      "t": 70666.59599999986,
      "d": 666.6659999999974,
      "v": 101
    },
    {
      "midi": 50,
      "hit": false,
      "t": 71333.26199999986,
      "d": 333.3329999999987,
      "v": 92
    },
    {
      "midi": 43,
      "hit": false,
      "t": 71666.59499999986,
      "d": 333.3329999999987,
      "v": 84
    },
    {
      "midi": 38,
      "hit": false,
      "t": 71999.92799999985,
      "d": 666.6659999999974,
      "v": 82
    },
    {
      "midi": 50,
      "hit": false,
      "t": 71999.92799999985,
      "d": 666.6659999999974,
      "v": 89
    },
    {
      "midi": 62,
      "hit": false,
      "t": 71999.9279999999,
      "d": 333.3329999999987,
      "v": 78
    },
    {
      "midi": 65,
      "hit": false,
      "t": 71999.9279999999,
      "d": 333.3329999999987,
      "v": 74
    },
    {
      "midi": 69,
      "hit": false,
      "t": 71999.9279999999,
      "d": 333.3329999999987,
      "v": 76
    },
    {
      "midi": 69,
      "hit": false,
      "t": 72333.2609999999,
      "d": 333.3329999999987,
      "v": 82
    },
    {
      "midi": 38,
      "hit": false,
      "t": 72666.59399999985,
      "d": 666.6659999999974,
      "v": 97
    },
    {
      "midi": 50,
      "hit": false,
      "t": 72666.59399999985,
      "d": 666.6659999999974,
      "v": 101
    },
    {
      "midi": 69,
      "hit": false,
      "t": 72666.5939999999,
      "d": 333.3329999999987,
      "v": 84
    },
    {
      "midi": 69,
      "hit": false,
      "t": 72999.9269999999,
      "d": 333.3329999999987,
      "v": 84
    },
    {
      "midi": 38,
      "hit": false,
      "t": 73333.25999999985,
      "d": 666.6659999999974,
      "v": 92
    },
    {
      "midi": 50,
      "hit": false,
      "t": 73333.25999999985,
      "d": 666.6659999999974,
      "v": 92
    },
    {
      "midi": 69,
      "hit": false,
      "t": 73333.2599999999,
      "d": 333.3329999999987,
      "v": 84
    },
    {
      "midi": 67,
      "hit": false,
      "t": 73666.59299999989,
      "d": 333.3329999999987,
      "v": 87
    },
    {
      "midi": 50,
      "hit": false,
      "t": 73999.92599999985,
      "d": 333.3329999999987,
      "v": 92
    },
    {
      "midi": 65,
      "hit": false,
      "t": 73999.92599999989,
      "d": 333.3329999999987,
      "v": 95
    },
    {
      "midi": 38,
      "hit": false,
      "t": 74333.25899999985,
      "d": 333.3329999999987,
      "v": 76
    },
    {
      "midi": 59,
      "hit": false,
      "t": 74333.25899999989,
      "d": 333.3329999999987,
      "v": 71
    },
    {
      "midi": 62,
      "hit": false,
      "t": 74333.25899999989,
      "d": 333.3329999999987,
      "v": 95
    },
    {
      "midi": 67,
      "hit": false,
      "t": 74333.25899999989,
      "d": 333.3329999999987,
      "v": 95
    },
    {
      "midi": 43,
      "hit": false,
      "t": 74666.59199999984,
      "d": 666.6659999999974,
      "v": 95
    },
    {
      "midi": 50,
      "hit": false,
      "t": 74666.59199999984,
      "d": 666.6659999999974,
      "v": 87
    },
    {
      "midi": 69,
      "hit": false,
      "t": 74833.2584999999,
      "d": 166.66650000000664,
      "v": 72
    },
    {
      "midi": 71,
      "hit": false,
      "t": 74999.9249999999,
      "d": 1999.9980000000069,
      "v": 113
    },
    {
      "midi": 43,
      "hit": false,
      "t": 75333.25799999984,
      "d": 666.6659999999974,
      "v": 108
    },
    {
      "midi": 50,
      "hit": false,
      "t": 75333.25799999984,
      "d": 666.6659999999974,
      "v": 95
    },
    {
      "midi": 43,
      "hit": false,
      "t": 75999.92399999984,
      "d": 666.6659999999974,
      "v": 104
    },
    {
      "midi": 50,
      "hit": false,
      "t": 75999.92399999984,
      "d": 666.6659999999974,
      "v": 89
    },
    {
      "midi": 50,
      "hit": false,
      "t": 76666.58999999984,
      "d": 333.3329999999987,
      "v": 95
    },
    {
      "midi": 43,
      "hit": false,
      "t": 76999.92299999984,
      "d": 333.3329999999987,
      "v": 78
    },
    {
      "midi": 38,
      "hit": false,
      "t": 77333.25599999983,
      "d": 666.6659999999974,
      "v": 74
    },
    {
      "midi": 50,
      "hit": false,
      "t": 77333.25599999983,
      "d": 666.6659999999974,
      "v": 84
    },
    {
      "midi": 62,
      "hit": false,
      "t": 77333.2559999999,
      "d": 333.3329999999987,
      "v": 76
    },
    {
      "midi": 65,
      "hit": false,
      "t": 77333.2559999999,
      "d": 333.3329999999987,
      "v": 82
    },
    {
      "midi": 69,
      "hit": false,
      "t": 77333.2559999999,
      "d": 333.3329999999987,
      "v": 68
    },
    {
      "midi": 69,
      "hit": false,
      "t": 77666.5889999999,
      "d": 333.3329999999987,
      "v": 80
    },
    {
      "midi": 38,
      "hit": false,
      "t": 77999.92199999983,
      "d": 666.6659999999974,
      "v": 108
    },
    {
      "midi": 50,
      "hit": false,
      "t": 77999.92199999983,
      "d": 666.6659999999974,
      "v": 113
    },
    {
      "midi": 69,
      "hit": false,
      "t": 77999.9219999999,
      "d": 333.3329999999987,
      "v": 84
    },
    {
      "midi": 69,
      "hit": false,
      "t": 78333.2549999999,
      "d": 333.3329999999987,
      "v": 80
    },
    {
      "midi": 38,
      "hit": false,
      "t": 78666.58799999983,
      "d": 666.6659999999974,
      "v": 97
    },
    {
      "midi": 50,
      "hit": false,
      "t": 78666.58799999983,
      "d": 666.6659999999974,
      "v": 101
    },
    {
      "midi": 69,
      "hit": false,
      "t": 78666.5879999999,
      "d": 333.3329999999987,
      "v": 82
    },
    {
      "midi": 71,
      "hit": false,
      "t": 78999.9209999999,
      "d": 333.3329999999987,
      "v": 67
    },
    {
      "midi": 50,
      "hit": false,
      "t": 79333.25399999983,
      "d": 333.3329999999987,
      "v": 101
    },
    {
      "midi": 72,
      "hit": false,
      "t": 79333.2539999999,
      "d": 333.3329999999987,
      "v": 76
    },
    {
      "midi": 38,
      "hit": false,
      "t": 79666.58699999982,
      "d": 333.3329999999987,
      "v": 84
    },
    {
      "midi": 62,
      "hit": false,
      "t": 79666.5869999999,
      "d": 333.3329999999987,
      "v": 68
    },
    {
      "midi": 67,
      "hit": false,
      "t": 79666.5869999999,
      "d": 333.3329999999987,
      "v": 84
    },
    {
      "midi": 71,
      "hit": false,
      "t": 79666.5869999999,
      "d": 333.3329999999987,
      "v": 76
    },
    {
      "midi": 43,
      "hit": false,
      "t": 79999.91999999982,
      "d": 666.6659999999974,
      "v": 97
    },
    {
      "midi": 50,
      "hit": false,
      "t": 79999.91999999982,
      "d": 666.6659999999974,
      "v": 87
    },
    {
      "midi": 50,
      "hit": false,
      "t": 80666.58599999982,
      "d": 333.3329999999987,
      "v": 87
    },
    {
      "midi": 43,
      "hit": false,
      "t": 80999.91899999982,
      "d": 333.3329999999987,
      "v": 72
    },
    {
      "midi": 38,
      "hit": false,
      "t": 81333.25199999982,
      "d": 666.6659999999974,
      "v": 80
    },
    {
      "midi": 50,
      "hit": false,
      "t": 81333.25199999982,
      "d": 666.6659999999974,
      "v": 92
    },
    {
      "midi": 62,
      "hit": false,
      "t": 81333.25199999989,
      "d": 333.3329999999987,
      "v": 76
    },
    {
      "midi": 65,
      "hit": false,
      "t": 81333.25199999989,
      "d": 333.3329999999987,
      "v": 76
    },
    {
      "midi": 69,
      "hit": false,
      "t": 81333.25199999989,
      "d": 333.3329999999987,
      "v": 101
    },
    {
      "midi": 71,
      "hit": false,
      "t": 81666.58499999989,
      "d": 333.3329999999987,
      "v": 92
    },
    {
      "midi": 50,
      "hit": false,
      "t": 81999.91799999982,
      "d": 333.3329999999987,
      "v": 84
    },
    {
      "midi": 72,
      "hit": false,
      "t": 81999.91799999989,
      "d": 333.3329999999987,
      "v": 92
    },
    {
      "midi": 38,
      "hit": false,
      "t": 82333.25099999981,
      "d": 333.3329999999987,
      "v": 82
    },
    {
      "midi": 62,
      "hit": false,
      "t": 82333.25099999989,
      "d": 333.3329999999987,
      "v": 80
    },
    {
      "midi": 67,
      "hit": false,
      "t": 82333.25099999989,
      "d": 333.3329999999987,
      "v": 89
    },
    {
      "midi": 71,
      "hit": false,
      "t": 82333.25099999989,
      "d": 333.3329999999987,
      "v": 87
    },
    {
      "midi": 43,
      "hit": false,
      "t": 82666.58399999981,
      "d": 666.6659999999974,
      "v": 87
    },
    {
      "midi": 50,
      "hit": false,
      "t": 82666.58399999981,
      "d": 666.6659999999974,
      "v": 89
    },
    {
      "midi": 50,
      "hit": false,
      "t": 83333.24999999981,
      "d": 333.3329999999987,
      "v": 87
    },
    {
      "midi": 43,
      "hit": false,
      "t": 83666.58299999981,
      "d": 333.3329999999987,
      "v": 82
    },
    {
      "midi": 38,
      "hit": false,
      "t": 83999.91599999981,
      "d": 666.6659999999974,
      "v": 82
    },
    {
      "midi": 50,
      "hit": false,
      "t": 83999.91599999981,
      "d": 666.6659999999974,
      "v": 82
    },
    {
      "midi": 62,
      "hit": false,
      "t": 83999.91599999988,
      "d": 333.3329999999987,
      "v": 65
    },
    {
      "midi": 65,
      "hit": false,
      "t": 83999.91599999988,
      "d": 333.3329999999987,
      "v": 92
    },
    {
      "midi": 69,
      "hit": false,
      "t": 83999.91599999988,
      "d": 333.3329999999987,
      "v": 89
    },
    {
      "midi": 71,
      "hit": false,
      "t": 84333.24899999988,
      "d": 333.3329999999987,
      "v": 87
    },
    {
      "midi": 50,
      "hit": false,
      "t": 84666.5819999998,
      "d": 333.3329999999987,
      "v": 92
    },
    {
      "midi": 72,
      "hit": false,
      "t": 84666.58199999988,
      "d": 333.3329999999987,
      "v": 97
    },
    {
      "midi": 38,
      "hit": false,
      "t": 84999.9149999998,
      "d": 333.3329999999987,
      "v": 89
    },
    {
      "midi": 67,
      "hit": false,
      "t": 84999.91499999988,
      "d": 333.3329999999987,
      "v": 74
    },
    {
      "midi": 71,
      "hit": false,
      "t": 84999.91499999988,
      "d": 333.3329999999987,
      "v": 61
    },
    {
      "midi": 74,
      "hit": false,
      "t": 84999.91499999988,
      "d": 333.3329999999987,
      "v": 87
    },
    {
      "midi": 43,
      "hit": false,
      "t": 85333.2479999998,
      "d": 666.6659999999974,
      "v": 97
    },
    {
      "midi": 50,
      "hit": false,
      "t": 85333.2479999998,
      "d": 666.6659999999974,
      "v": 89
    },
    {
      "midi": 43,
      "hit": false,
      "t": 85999.9139999998,
      "d": 666.6659999999974,
      "v": 108
    },
    {
      "midi": 50,
      "hit": false,
      "t": 85999.9139999998,
      "d": 666.6659999999974,
      "v": 101
    },
    {
      "midi": 43,
      "hit": false,
      "t": 86666.5799999998,
      "d": 666.6659999999974,
      "v": 101
    },
    {
      "midi": 50,
      "hit": false,
      "t": 86666.5799999998,
      "d": 666.6659999999974,
      "v": 97
    },
    {
      "midi": 43,
      "hit": false,
      "t": 87333.2459999998,
      "d": 666.6659999999974,
      "v": 97
    },
    {
      "midi": 50,
      "hit": false,
      "t": 87333.2459999998,
      "d": 666.6659999999974,
      "v": 95
    },
    {
      "midi": 38,
      "hit": false,
      "t": 87999.9119999998,
      "d": 333.3329999999987,
      "v": 72
    },
    {
      "midi": 50,
      "hit": false,
      "t": 87999.9119999998,
      "d": 333.3329999999987,
      "v": 68
    },
    {
      "midi": 62,
      "hit": false,
      "t": 87999.91199999988,
      "d": 499.99950000000536,
      "v": 69
    },
    {
      "midi": 69,
      "hit": false,
      "t": 87999.91199999988,
      "d": 499.99950000000536,
      "v": 89
    },
    {
      "midi": 74,
      "hit": false,
      "t": 87999.91199999988,
      "d": 499.99950000000536,
      "v": 95
    },
    {
      "midi": 38,
      "hit": false,
      "t": 88333.24499999979,
      "d": 333.3329999999987,
      "v": 63
    },
    {
      "midi": 50,
      "hit": false,
      "t": 88333.24499999979,
      "d": 333.3329999999987,
      "v": 84
    },
    {
      "midi": 62,
      "hit": false,
      "t": 88499.91149999989,
      "d": 499.99950000000536,
      "v": 92
    },
    {
      "midi": 69,
      "hit": false,
      "t": 88499.91149999989,
      "d": 499.99950000000536,
      "v": 101
    },
    {
      "midi": 38,
      "hit": false,
      "t": 88666.57799999979,
      "d": 333.3329999999987,
      "v": 72
    },
    {
      "midi": 50,
      "hit": false,
      "t": 88666.57799999979,
      "d": 333.3329999999987,
      "v": 92
    },
    {
      "midi": 38,
      "hit": false,
      "t": 88999.91099999979,
      "d": 333.3329999999987,
      "v": 76
    },
    {
      "midi": 50,
      "hit": false,
      "t": 88999.91099999979,
      "d": 333.3329999999987,
      "v": 89
    },
    {
      "midi": 62,
      "hit": false,
      "t": 88999.91099999989,
      "d": 1333.3319999999949,
      "v": 101
    },
    {
      "midi": 69,
      "hit": false,
      "t": 88999.91099999989,
      "d": 1333.3319999999949,
      "v": 89
    },
    {
      "midi": 38,
      "hit": false,
      "t": 89333.24399999979,
      "d": 333.3329999999987,
      "v": 84
    },
    {
      "midi": 50,
      "hit": false,
      "t": 89333.24399999979,
      "d": 333.3329999999987,
      "v": 92
    },
    {
      "midi": 38,
      "hit": false,
      "t": 89666.57699999979,
      "d": 333.3329999999987,
      "v": 78
    },
    {
      "midi": 50,
      "hit": false,
      "t": 89666.57699999979,
      "d": 333.3329999999987,
      "v": 92
    },
    {
      "midi": 45,
      "hit": false,
      "t": 89999.90999999979,
      "d": 333.3329999999987,
      "v": 92
    },
    {
      "midi": 48,
      "hit": false,
      "t": 90333.24299999978,
      "d": 333.3329999999987,
      "v": 92
    },
    {
      "midi": 38,
      "hit": false,
      "t": 90666.57599999978,
      "d": 333.3329999999987,
      "v": 78
    },
    {
      "midi": 50,
      "hit": false,
      "t": 90666.57599999978,
      "d": 333.3329999999987,
      "v": 92
    },
    {
      "midi": 65,
      "hit": false,
      "t": 90666.57599999988,
      "d": 666.6659999999974,
      "v": 78
    },
    {
      "midi": 69,
      "hit": false,
      "t": 90666.57599999988,
      "d": 666.6659999999974,
      "v": 89
    },
    {
      "midi": 72,
      "hit": false,
      "t": 90666.57599999988,
      "d": 666.6659999999974,
      "v": 87
    },
    {
      "midi": 74,
      "hit": false,
      "t": 90666.57599999988,
      "d": 666.6659999999974,
      "v": 95
    },
    {
      "midi": 50,
      "hit": false,
      "t": 90999.90899999978,
      "d": 333.3329999999987,
      "v": 92
    },
    {
      "midi": 38,
      "hit": false,
      "t": 91333.24199999978,
      "d": 333.3329999999987,
      "v": 92
    },
    {
      "midi": 50,
      "hit": false,
      "t": 91333.24199999978,
      "d": 333.3329999999987,
      "v": 97
    },
    {
      "midi": 72,
      "hit": false,
      "t": 91333.24199999988,
      "d": 333.3329999999987,
      "v": 82
    },
    {
      "midi": 50,
      "hit": false,
      "t": 91666.57499999978,
      "d": 333.3329999999987,
      "v": 92
    },
    {
      "midi": 69,
      "hit": false,
      "t": 91666.57499999988,
      "d": 333.3329999999987,
      "v": 82
    },
    {
      "midi": 38,
      "hit": false,
      "t": 91999.90799999978,
      "d": 333.3329999999987,
      "v": 87
    },
    {
      "midi": 50,
      "hit": false,
      "t": 91999.90799999978,
      "d": 333.3329999999987,
      "v": 101
    },
    {
      "midi": 72,
      "hit": false,
      "t": 91999.90799999988,
      "d": 666.6659999999974,
      "v": 92
    },
    {
      "midi": 50,
      "hit": false,
      "t": 92333.24099999978,
      "d": 333.3329999999987,
      "v": 89
    },
    {
      "midi": 38,
      "hit": false,
      "t": 92666.57399999977,
      "d": 333.3329999999987,
      "v": 84
    },
    {
      "midi": 50,
      "hit": false,
      "t": 92666.57399999977,
      "d": 333.3329999999987,
      "v": 97
    },
    {
      "midi": 69,
      "hit": false,
      "t": 92666.57399999988,
      "d": 333.3329999999987,
      "v": 95
    },
    {
      "midi": 50,
      "hit": false,
      "t": 92999.90699999977,
      "d": 333.3329999999987,
      "v": 95
    },
    {
      "midi": 58,
      "hit": false,
      "t": 92999.90699999988,
      "d": 333.3329999999987,
      "v": 53
    },
    {
      "midi": 62,
      "hit": false,
      "t": 92999.90699999988,
      "d": 333.3329999999987,
      "v": 97
    },
    {
      "midi": 65,
      "hit": false,
      "t": 92999.90699999988,
      "d": 333.3329999999987,
      "v": 95
    },
    {
      "midi": 67,
      "hit": false,
      "t": 92999.90699999988,
      "d": 333.3329999999987,
      "v": 101
    },
    {
      "midi": 31,
      "hit": false,
      "t": 93333.23999999977,
      "d": 333.3329999999987,
      "v": 89
    },
    {
      "midi": 43,
      "hit": false,
      "t": 93333.23999999977,
      "d": 333.3329999999987,
      "v": 78
    },
    {
      "midi": 43,
      "hit": false,
      "t": 93666.57299999977,
      "d": 333.3329999999987,
      "v": 87
    },
    {
      "midi": 31,
      "hit": false,
      "t": 93999.90599999977,
      "d": 333.3329999999987,
      "v": 66
    },
    {
      "midi": 43,
      "hit": false,
      "t": 93999.90599999977,
      "d": 333.3329999999987,
      "v": 89
    },
    {
      "midi": 43,
      "hit": false,
      "t": 94333.23899999977,
      "d": 333.3329999999987,
      "v": 72
    },
    {
      "midi": 31,
      "hit": false,
      "t": 94666.57199999977,
      "d": 333.3329999999987,
      "v": 68
    },
    {
      "midi": 43,
      "hit": false,
      "t": 94666.57199999977,
      "d": 333.3329999999987,
      "v": 87
    },
    {
      "midi": 69,
      "hit": false,
      "t": 94666.57199999987,
      "d": 166.66650000000664,
      "v": 82
    },
    {
      "midi": 72,
      "hit": false,
      "t": 94833.23849999988,
      "d": 499.99950000000536,
      "v": 78
    },
    {
      "midi": 43,
      "hit": false,
      "t": 94999.90499999977,
      "d": 333.3329999999987,
      "v": 74
    },
    {
      "midi": 31,
      "hit": false,
      "t": 95333.23799999976,
      "d": 333.3329999999987,
      "v": 65
    },
    {
      "midi": 43,
      "hit": false,
      "t": 95333.23799999976,
      "d": 333.3329999999987,
      "v": 80
    },
    {
      "midi": 72,
      "hit": false,
      "t": 95333.23799999988,
      "d": 333.3329999999987,
      "v": 92
    },
    {
      "midi": 43,
      "hit": false,
      "t": 95666.57099999976,
      "d": 333.3329999999987,
      "v": 72
    },
    {
      "midi": 69,
      "hit": false,
      "t": 95666.57099999988,
      "d": 166.66650000000664,
      "v": 87
    },
    {
      "midi": 64,
      "hit": false,
      "t": 95833.23749999989,
      "d": 166.66650000000664,
      "v": 87
    },
    {
      "midi": 65,
      "hit": false,
      "t": 95833.23749999989,
      "d": 166.66650000000664,
      "v": 97
    },
    {
      "midi": 69,
      "hit": false,
      "t": 95833.23749999989,
      "d": 166.66650000000664,
      "v": 97
    },
    {
      "midi": 72,
      "hit": false,
      "t": 95833.23749999989,
      "d": 166.66650000000664,
      "v": 101
    },
    {
      "midi": 29,
      "hit": false,
      "t": 95999.90399999976,
      "d": 333.3329999999987,
      "v": 72
    },
    {
      "midi": 41,
      "hit": false,
      "t": 95999.90399999976,
      "d": 333.3329999999987,
      "v": 89
    },
    {
      "midi": 41,
      "hit": false,
      "t": 96333.23699999976,
      "d": 333.3329999999987,
      "v": 65
    },
    {
      "midi": 74,
      "hit": false,
      "t": 96333.23699999989,
      "d": 499.99950000000536,
      "v": 97
    },
    {
      "midi": 29,
      "hit": false,
      "t": 96666.56999999976,
      "d": 333.3329999999987,
      "v": 55
    },
    {
      "midi": 41,
      "hit": false,
      "t": 96666.56999999976,
      "d": 333.3329999999987,
      "v": 82
    },
    {
      "midi": 60,
      "hit": false,
      "t": 96833.2364999999,
      "d": 499.99950000000536,
      "v": 89
    },
    {
      "midi": 64,
      "hit": false,
      "t": 96833.2364999999,
      "d": 499.99950000000536,
      "v": 84
    },
    {
      "midi": 65,
      "hit": false,
      "t": 96833.2364999999,
      "d": 499.99950000000536,
      "v": 108
    },
    {
      "midi": 69,
      "hit": false,
      "t": 96833.2364999999,
      "d": 499.99950000000536,
      "v": 104
    },
    {
      "midi": 41,
      "hit": false,
      "t": 96999.90299999976,
      "d": 333.3329999999987,
      "v": 71
    },
    {
      "midi": 29,
      "hit": false,
      "t": 97333.23599999976,
      "d": 333.3329999999987,
      "v": 66
    },
    {
      "midi": 41,
      "hit": false,
      "t": 97333.23599999976,
      "d": 333.3329999999987,
      "v": 74
    },
    {
      "midi": 60,
      "hit": false,
      "t": 97333.2359999999,
      "d": 1333.3319999999949,
      "v": 72
    },
    {
      "midi": 64,
      "hit": false,
      "t": 97333.2359999999,
      "d": 1333.3319999999949,
      "v": 80
    },
    {
      "midi": 65,
      "hit": false,
      "t": 97333.2359999999,
      "d": 1333.3319999999949,
      "v": 95
    },
    {
      "midi": 69,
      "hit": false,
      "t": 97333.2359999999,
      "d": 1333.3319999999949,
      "v": 92
    },
    {
      "midi": 41,
      "hit": false,
      "t": 97666.56899999976,
      "d": 333.3329999999987,
      "v": 74
    },
    {
      "midi": 29,
      "hit": false,
      "t": 97999.90199999975,
      "d": 333.3329999999987,
      "v": 65
    },
    {
      "midi": 41,
      "hit": false,
      "t": 97999.90199999975,
      "d": 333.3329999999987,
      "v": 80
    },
    {
      "midi": 41,
      "hit": false,
      "t": 98333.23499999975,
      "d": 333.3329999999987,
      "v": 82
    },
    {
      "midi": 31,
      "hit": false,
      "t": 98666.56799999975,
      "d": 333.3329999999987,
      "v": 53
    },
    {
      "midi": 43,
      "hit": false,
      "t": 98666.56799999975,
      "d": 333.3329999999987,
      "v": 80
    },
    {
      "midi": 43,
      "hit": false,
      "t": 98999.90099999975,
      "d": 333.3329999999987,
      "v": 84
    },
    {
      "midi": 58,
      "hit": false,
      "t": 98999.9009999999,
      "d": 499.99950000000536,
      "v": 81
    },
    {
      "midi": 62,
      "hit": false,
      "t": 98999.9009999999,
      "d": 499.99950000000536,
      "v": 108
    },
    {
      "midi": 65,
      "hit": false,
      "t": 98999.9009999999,
      "d": 499.99950000000536,
      "v": 101
    },
    {
      "midi": 67,
      "hit": false,
      "t": 98999.9009999999,
      "d": 499.99950000000536,
      "v": 113
    },
    {
      "midi": 31,
      "hit": false,
      "t": 99333.23399999975,
      "d": 333.3329999999987,
      "v": 67
    },
    {
      "midi": 43,
      "hit": false,
      "t": 99333.23399999975,
      "d": 333.3329999999987,
      "v": 97
    },
    {
      "midi": 58,
      "hit": false,
      "t": 99499.9004999999,
      "d": 499.99950000000536,
      "v": 74
    },
    {
      "midi": 62,
      "hit": false,
      "t": 99499.9004999999,
      "d": 499.99950000000536,
      "v": 108
    },
    {
      "midi": 65,
      "hit": false,
      "t": 99499.9004999999,
      "d": 499.99950000000536,
      "v": 104
    },
    {
      "midi": 67,
      "hit": false,
      "t": 99499.9004999999,
      "d": 499.99950000000536,
      "v": 113
    },
    {
      "midi": 43,
      "hit": false,
      "t": 99666.56699999975,
      "d": 333.3329999999987,
      "v": 78
    },
    {
      "midi": 31,
      "hit": false,
      "t": 99999.89999999975,
      "d": 333.3329999999987,
      "v": 71
    },
    {
      "midi": 43,
      "hit": false,
      "t": 99999.89999999975,
      "d": 333.3329999999987,
      "v": 92
    },
    {
      "midi": 58,
      "hit": false,
      "t": 99999.8999999999,
      "d": 666.6659999999974,
      "v": 81
    },
    {
      "midi": 62,
      "hit": false,
      "t": 99999.8999999999,
      "d": 666.6659999999974,
      "v": 108
    },
    {
      "midi": 65,
      "hit": false,
      "t": 99999.8999999999,
      "d": 666.6659999999974,
      "v": 104
    },
    {
      "midi": 67,
      "hit": false,
      "t": 99999.8999999999,
      "d": 666.6659999999974,
      "v": 117
    },
    {
      "midi": 43,
      "hit": false,
      "t": 100333.23299999975,
      "d": 333.3329999999987,
      "v": 95
    },
    {
      "midi": 31,
      "hit": false,
      "t": 100666.56599999974,
      "d": 333.3329999999987,
      "v": 62
    },
    {
      "midi": 43,
      "hit": false,
      "t": 100666.56599999974,
      "d": 333.3329999999987,
      "v": 92
    },
    {
      "midi": 69,
      "hit": false,
      "t": 100666.5659999999,
      "d": 166.66650000000664,
      "v": 95
    },
    {
      "midi": 69,
      "hit": false,
      "t": 100833.23249999991,
      "d": 166.66650000000664,
      "v": 92
    },
    {
      "midi": 43,
      "hit": false,
      "t": 100999.89899999974,
      "d": 333.3329999999987,
      "v": 89
    },
    {
      "midi": 72,
      "hit": false,
      "t": 100999.89899999992,
      "d": 333.3329999999987,
      "v": 92
    },
    {
      "midi": 38,
      "hit": false,
      "t": 101333.23199999974,
      "d": 333.3329999999987,
      "v": 74
    },
    {
      "midi": 50,
      "hit": false,
      "t": 101333.23199999974,
      "d": 333.3329999999987,
      "v": 82
    },
    {
      "midi": 65,
      "hit": false,
      "t": 101333.23199999992,
      "d": 666.6659999999974,
      "v": 68
    },
    {
      "midi": 69,
      "hit": false,
      "t": 101333.23199999992,
      "d": 666.6659999999974,
      "v": 95
    },
    {
      "midi": 72,
      "hit": false,
      "t": 101333.23199999992,
      "d": 666.6659999999974,
      "v": 80
    },
    {
      "midi": 74,
      "hit": false,
      "t": 101333.23199999992,
      "d": 666.6659999999974,
      "v": 67
    },
    {
      "midi": 50,
      "hit": false,
      "t": 101666.56499999974,
      "d": 333.3329999999987,
      "v": 92
    },
    {
      "midi": 38,
      "hit": false,
      "t": 101999.89799999974,
      "d": 333.3329999999987,
      "v": 84
    },
    {
      "midi": 50,
      "hit": false,
      "t": 101999.89799999974,
      "d": 333.3329999999987,
      "v": 101
    },
    {
      "midi": 72,
      "hit": false,
      "t": 101999.89799999991,
      "d": 333.3329999999987,
      "v": 71
    },
    {
      "midi": 50,
      "hit": false,
      "t": 102333.23099999974,
      "d": 333.3329999999987,
      "v": 95
    },
    {
      "midi": 69,
      "hit": false,
      "t": 102333.23099999991,
      "d": 333.3329999999987,
      "v": 92
    },
    {
      "midi": 38,
      "hit": false,
      "t": 102666.56399999974,
      "d": 333.3329999999987,
      "v": 78
    },
    {
      "midi": 50,
      "hit": false,
      "t": 102666.56399999974,
      "d": 333.3329999999987,
      "v": 95
    },
    {
      "midi": 72,
      "hit": false,
      "t": 102666.56399999991,
      "d": 666.6659999999974,
      "v": 95
    },
    {
      "midi": 50,
      "hit": false,
      "t": 102999.89699999974,
      "d": 333.3329999999987,
      "v": 92
    },
    {
      "midi": 38,
      "hit": false,
      "t": 103333.22999999973,
      "d": 333.3329999999987,
      "v": 80
    },
    {
      "midi": 50,
      "hit": false,
      "t": 103333.22999999973,
      "d": 333.3329999999987,
      "v": 95
    },
    {
      "midi": 69,
      "hit": false,
      "t": 103333.22999999991,
      "d": 333.3329999999987,
      "v": 101
    },
    {
      "midi": 50,
      "hit": false,
      "t": 103666.56299999973,
      "d": 333.3329999999987,
      "v": 92
    },
    {
      "midi": 58,
      "hit": false,
      "t": 103666.56299999991,
      "d": 333.3329999999987,
      "v": 81
    },
    {
      "midi": 62,
      "hit": false,
      "t": 103666.56299999991,
      "d": 333.3329999999987,
      "v": 89
    },
    {
      "midi": 65,
      "hit": false,
      "t": 103666.56299999991,
      "d": 333.3329999999987,
      "v": 76
    },
    {
      "midi": 67,
      "hit": false,
      "t": 103666.56299999991,
      "d": 333.3329999999987,
      "v": 104
    },
    {
      "midi": 31,
      "hit": false,
      "t": 103999.89599999973,
      "d": 333.3329999999987,
      "v": 78
    },
    {
      "midi": 43,
      "hit": false,
      "t": 103999.89599999973,
      "d": 333.3329999999987,
      "v": 74
    },
    {
      "midi": 43,
      "hit": false,
      "t": 104333.22899999973,
      "d": 333.3329999999987,
      "v": 71
    },
    {
      "midi": 31,
      "hit": false,
      "t": 104666.56199999973,
      "d": 333.3329999999987,
      "v": 69
    },
    {
      "midi": 43,
      "hit": false,
      "t": 104666.56199999973,
      "d": 333.3329999999987,
      "v": 82
    },
    {
      "midi": 43,
      "hit": false,
      "t": 104999.89499999973,
      "d": 333.3329999999987,
      "v": 80
    },
    {
      "midi": 31,
      "hit": false,
      "t": 105333.22799999973,
      "d": 333.3329999999987,
      "v": 78
    },
    {
      "midi": 43,
      "hit": false,
      "t": 105333.22799999973,
      "d": 333.3329999999987,
      "v": 95
    },
    {
      "midi": 69,
      "hit": false,
      "t": 105333.2279999999,
      "d": 166.66650000000664,
      "v": 122
    },
    {
      "midi": 72,
      "hit": false,
      "t": 105499.89449999991,
      "d": 499.99950000000536,
      "v": 89
    },
    {
      "midi": 43,
      "hit": false,
      "t": 105666.56099999973,
      "d": 333.3329999999987,
      "v": 72
    },
    {
      "midi": 31,
      "hit": false,
      "t": 105999.89399999972,
      "d": 333.3329999999987,
      "v": 66
    },
    {
      "midi": 43,
      "hit": false,
      "t": 105999.89399999972,
      "d": 333.3329999999987,
      "v": 92
    },
    {
      "midi": 72,
      "hit": false,
      "t": 105999.89399999991,
      "d": 333.3329999999987,
      "v": 97
    },
    {
      "midi": 43,
      "hit": false,
      "t": 106333.22699999972,
      "d": 333.3329999999987,
      "v": 72
    },
    {
      "midi": 69,
      "hit": false,
      "t": 106333.22699999991,
      "d": 166.66650000000664,
      "v": 92
    },
    {
      "midi": 64,
      "hit": false,
      "t": 106499.89349999992,
      "d": 166.66650000000664,
      "v": 87
    },
    {
      "midi": 65,
      "hit": false,
      "t": 106499.89349999992,
      "d": 166.66650000000664,
      "v": 42
    },
    {
      "midi": 69,
      "hit": false,
      "t": 106499.89349999992,
      "d": 166.66650000000664,
      "v": 68
    },
    {
      "midi": 72,
      "hit": false,
      "t": 106499.89349999992,
      "d": 166.66650000000664,
      "v": 101
    },
    {
      "midi": 29,
      "hit": false,
      "t": 106666.55999999972,
      "d": 333.3329999999987,
      "v": 76
    },
    {
      "midi": 41,
      "hit": false,
      "t": 106666.55999999972,
      "d": 333.3329999999987,
      "v": 84
    },
    {
      "midi": 41,
      "hit": false,
      "t": 106999.89299999972,
      "d": 333.3329999999987,
      "v": 71
    },
    {
      "midi": 74,
      "hit": false,
      "t": 106999.89299999992,
      "d": 499.99950000000536,
      "v": 89
    },
    {
      "midi": 29,
      "hit": false,
      "t": 107333.22599999972,
      "d": 333.3329999999987,
      "v": 66
    },
    {
      "midi": 41,
      "hit": false,
      "t": 107333.22599999972,
      "d": 333.3329999999987,
      "v": 82
    },
    {
      "midi": 60,
      "hit": false,
      "t": 107499.89249999993,
      "d": 499.99950000000536,
      "v": 72
    },
    {
      "midi": 64,
      "hit": false,
      "t": 107499.89249999993,
      "d": 499.99950000000536,
      "v": 89
    },
    {
      "midi": 65,
      "hit": false,
      "t": 107499.89249999993,
      "d": 499.99950000000536,
      "v": 92
    },
    {
      "midi": 69,
      "hit": false,
      "t": 107499.89249999993,
      "d": 499.99950000000536,
      "v": 82
    },
    {
      "midi": 41,
      "hit": false,
      "t": 107666.55899999972,
      "d": 333.3329999999987,
      "v": 72
    },
    {
      "midi": 29,
      "hit": false,
      "t": 107999.89199999972,
      "d": 333.3329999999987,
      "v": 71
    },
    {
      "midi": 41,
      "hit": false,
      "t": 107999.89199999972,
      "d": 333.3329999999987,
      "v": 74
    },
    {
      "midi": 60,
      "hit": false,
      "t": 107999.89199999993,
      "d": 1333.3319999999949,
      "v": 87
    },
    {
      "midi": 64,
      "hit": false,
      "t": 107999.89199999993,
      "d": 1333.3319999999949,
      "v": 92
    },
    {
      "midi": 65,
      "hit": false,
      "t": 107999.89199999993,
      "d": 1333.3319999999949,
      "v": 92
    },
    {
      "midi": 69,
      "hit": false,
      "t": 107999.89199999993,
      "d": 1333.3319999999949,
      "v": 101
    },
    {
      "midi": 41,
      "hit": false,
      "t": 108333.22499999971,
      "d": 333.3329999999987,
      "v": 72
    },
    {
      "midi": 29,
      "hit": false,
      "t": 108666.55799999971,
      "d": 333.3329999999987,
      "v": 69
    },
    {
      "midi": 41,
      "hit": false,
      "t": 108666.55799999971,
      "d": 333.3329999999987,
      "v": 87
    },
    {
      "midi": 41,
      "hit": false,
      "t": 108999.89099999971,
      "d": 333.3329999999987,
      "v": 78
    },
    {
      "midi": 31,
      "hit": false,
      "t": 109333.22399999971,
      "d": 333.3329999999987,
      "v": 76
    },
    {
      "midi": 43,
      "hit": false,
      "t": 109333.22399999971,
      "d": 333.3329999999987,
      "v": 95
    },
    {
      "midi": 43,
      "hit": false,
      "t": 109666.55699999971,
      "d": 333.3329999999987,
      "v": 78
    },
    {
      "midi": 58,
      "hit": false,
      "t": 109666.55699999993,
      "d": 499.99950000000536,
      "v": 88
    },
    {
      "midi": 62,
      "hit": false,
      "t": 109666.55699999993,
      "d": 499.99950000000536,
      "v": 104
    },
    {
      "midi": 65,
      "hit": false,
      "t": 109666.55699999993,
      "d": 499.99950000000536,
      "v": 101
    },
    {
      "midi": 67,
      "hit": false,
      "t": 109666.55699999993,
      "d": 499.99950000000536,
      "v": 113
    },
    {
      "midi": 31,
      "hit": false,
      "t": 109999.88999999971,
      "d": 333.3329999999987,
      "v": 71
    },
    {
      "midi": 43,
      "hit": false,
      "t": 109999.88999999971,
      "d": 333.3329999999987,
      "v": 87
    },
    {
      "midi": 58,
      "hit": false,
      "t": 110166.55649999993,
      "d": 499.99950000000536,
      "v": 88
    },
    {
      "midi": 62,
      "hit": false,
      "t": 110166.55649999993,
      "d": 499.99950000000536,
      "v": 108
    },
    {
      "midi": 65,
      "hit": false,
      "t": 110166.55649999993,
      "d": 499.99950000000536,
      "v": 101
    },
    {
      "midi": 67,
      "hit": false,
      "t": 110166.55649999993,
      "d": 499.99950000000536,
      "v": 108
    },
    {
      "midi": 43,
      "hit": false,
      "t": 110333.2229999997,
      "d": 333.3329999999987,
      "v": 89
    },
    {
      "midi": 31,
      "hit": false,
      "t": 110666.5559999997,
      "d": 333.3329999999987,
      "v": 62
    },
    {
      "midi": 43,
      "hit": false,
      "t": 110666.5559999997,
      "d": 333.3329999999987,
      "v": 82
    },
    {
      "midi": 58,
      "hit": false,
      "t": 110666.55599999994,
      "d": 999.9989999999962,
      "v": 77
    },
    {
      "midi": 62,
      "hit": false,
      "t": 110666.55599999994,
      "d": 999.9989999999962,
      "v": 101
    },
    {
      "midi": 65,
      "hit": false,
      "t": 110666.55599999994,
      "d": 999.9989999999962,
      "v": 87
    },
    {
      "midi": 67,
      "hit": false,
      "t": 110666.55599999994,
      "d": 999.9989999999962,
      "v": 104
    },
    {
      "midi": 43,
      "hit": false,
      "t": 110999.8889999997,
      "d": 333.3329999999987,
      "v": 87
    },
    {
      "midi": 31,
      "hit": false,
      "t": 111333.2219999997,
      "d": 666.6659999999974,
      "v": 82
    },
    {
      "midi": 43,
      "hit": false,
      "t": 111333.2219999997,
      "d": 666.6659999999974,
      "v": 101
    },
    {
      "midi": 67,
      "hit": false,
      "t": 111666.55499999993,
      "d": 166.66650000000664,
      "v": 95
    },
    {
      "midi": 69,
      "hit": false,
      "t": 111833.22149999994,
      "d": 166.66650000000664,
      "v": 92
    },
    {
      "midi": 36,
      "hit": false,
      "t": 111999.8879999997,
      "d": 999.9989999999962,
      "v": 117
    },
    {
      "midi": 64,
      "hit": false,
      "t": 111999.88799999995,
      "d": 333.3329999999987,
      "v": 78
    },
    {
      "midi": 67,
      "hit": false,
      "t": 111999.88799999995,
      "d": 333.3329999999987,
      "v": 92
    },
    {
      "midi": 72,
      "hit": false,
      "t": 111999.88799999995,
      "d": 333.3329999999987,
      "v": 84
    },
    {
      "midi": 72,
      "hit": false,
      "t": 112333.22099999995,
      "d": 166.66650000000664,
      "v": 80
    },
    {
      "midi": 64,
      "hit": false,
      "t": 112499.88749999995,
      "d": 333.3329999999987,
      "v": 82
    },
    {
      "midi": 67,
      "hit": false,
      "t": 112499.88749999995,
      "d": 333.3329999999987,
      "v": 89
    },
    {
      "midi": 72,
      "hit": false,
      "t": 112499.88749999995,
      "d": 333.3329999999987,
      "v": 89
    },
    {
      "midi": 72,
      "hit": false,
      "t": 112833.22049999995,
      "d": 166.66650000000664,
      "v": 82
    },
    {
      "midi": 36,
      "hit": false,
      "t": 112999.8869999997,
      "d": 333.3329999999987,
      "v": 101
    },
    {
      "midi": 64,
      "hit": false,
      "t": 112999.88699999996,
      "d": 999.9989999999962,
      "v": 84
    },
    {
      "midi": 67,
      "hit": false,
      "t": 112999.88699999996,
      "d": 999.9989999999962,
      "v": 108
    },
    {
      "midi": 72,
      "hit": false,
      "t": 112999.88699999996,
      "d": 999.9989999999962,
      "v": 104
    },
    {
      "midi": 36,
      "hit": false,
      "t": 113333.2199999997,
      "d": 999.9989999999962,
      "v": 113
    },
    {
      "midi": 67,
      "hit": false,
      "t": 113999.88599999995,
      "d": 333.3329999999987,
      "v": 89
    },
    {
      "midi": 36,
      "hit": false,
      "t": 114333.21899999969,
      "d": 333.3329999999987,
      "v": 113
    },
    {
      "midi": 69,
      "hit": false,
      "t": 114333.21899999995,
      "d": 333.3329999999987,
      "v": 84
    },
    {
      "midi": 34,
      "hit": false,
      "t": 114666.55199999969,
      "d": 999.9989999999962,
      "v": 72
    },
    {
      "midi": 65,
      "hit": false,
      "t": 114666.55199999995,
      "d": 333.3329999999987,
      "v": 69
    },
    {
      "midi": 70,
      "hit": false,
      "t": 114666.55199999995,
      "d": 333.3329999999987,
      "v": 72
    },
    {
      "midi": 72,
      "hit": false,
      "t": 114666.55199999995,
      "d": 333.3329999999987,
      "v": 76
    },
    {
      "midi": 72,
      "hit": false,
      "t": 114999.88499999995,
      "d": 166.66650000000664,
      "v": 74
    },
    {
      "midi": 65,
      "hit": false,
      "t": 115166.55149999996,
      "d": 333.3329999999987,
      "v": 84
    },
    {
      "midi": 70,
      "hit": false,
      "t": 115166.55149999996,
      "d": 333.3329999999987,
      "v": 100
    },
    {
      "midi": 72,
      "hit": false,
      "t": 115166.55149999996,
      "d": 333.3329999999987,
      "v": 108
    },
    {
      "midi": 72,
      "hit": false,
      "t": 115499.88449999996,
      "d": 166.66650000000664,
      "v": 84
    },
    {
      "midi": 34,
      "hit": false,
      "t": 115666.55099999969,
      "d": 333.3329999999987,
      "v": 63
    },
    {
      "midi": 65,
      "hit": false,
      "t": 115666.55099999996,
      "d": 999.9989999999962,
      "v": 89
    },
    {
      "midi": 70,
      "hit": false,
      "t": 115666.55099999996,
      "d": 999.9989999999962,
      "v": 69
    },
    {
      "midi": 74,
      "hit": false,
      "t": 115666.55099999996,
      "d": 999.9989999999962,
      "v": 104
    },
    {
      "midi": 34,
      "hit": false,
      "t": 115999.88399999969,
      "d": 999.9989999999962,
      "v": 104
    },
    {
      "midi": 67,
      "hit": false,
      "t": 116666.54999999996,
      "d": 333.3329999999987,
      "v": 92
    },
    {
      "midi": 34,
      "hit": false,
      "t": 116999.88299999968,
      "d": 333.3329999999987,
      "v": 96
    },
    {
      "midi": 69,
      "hit": false,
      "t": 116999.88299999996,
      "d": 333.3329999999987,
      "v": 76
    },
    {
      "midi": 41,
      "hit": false,
      "t": 117333.21599999968,
      "d": 999.9989999999962,
      "v": 87
    },
    {
      "midi": 65,
      "hit": false,
      "t": 117333.21599999996,
      "d": 333.3329999999987,
      "v": 68
    },
    {
      "midi": 69,
      "hit": false,
      "t": 117333.21599999996,
      "d": 333.3329999999987,
      "v": 97
    },
    {
      "midi": 72,
      "hit": false,
      "t": 117333.21599999996,
      "d": 333.3329999999987,
      "v": 80
    },
    {
      "midi": 72,
      "hit": false,
      "t": 117666.54899999996,
      "d": 166.66650000000664,
      "v": 84
    },
    {
      "midi": 65,
      "hit": false,
      "t": 117833.21549999996,
      "d": 333.3329999999987,
      "v": 84
    },
    {
      "midi": 69,
      "hit": false,
      "t": 117833.21549999996,
      "d": 333.3329999999987,
      "v": 97
    },
    {
      "midi": 72,
      "hit": false,
      "t": 117833.21549999996,
      "d": 333.3329999999987,
      "v": 97
    },
    {
      "midi": 72,
      "hit": false,
      "t": 118166.54849999996,
      "d": 166.66650000000664,
      "v": 95
    },
    {
      "midi": 41,
      "hit": false,
      "t": 118333.21499999968,
      "d": 333.3329999999987,
      "v": 92
    },
    {
      "midi": 60,
      "hit": false,
      "t": 118333.21499999997,
      "d": 666.6659999999974,
      "v": 101
    },
    {
      "midi": 65,
      "hit": false,
      "t": 118333.21499999997,
      "d": 666.6659999999974,
      "v": 89
    },
    {
      "midi": 69,
      "hit": false,
      "t": 118333.21499999997,
      "d": 666.6659999999974,
      "v": 92
    },
    {
      "midi": 41,
      "hit": false,
      "t": 118666.54799999968,
      "d": 999.9989999999962,
      "v": 95
    },
    {
      "midi": 70,
      "hit": false,
      "t": 119166.54749999997,
      "d": 166.66650000000664,
      "v": 77
    },
    {
      "midi": 70,
      "hit": false,
      "t": 119333.21399999998,
      "d": 166.66650000000664,
      "v": 100
    },
    {
      "midi": 70,
      "hit": false,
      "t": 119499.88049999998,
      "d": 499.99950000000536,
      "v": 100
    },
    {
      "midi": 41,
      "hit": false,
      "t": 119666.54699999967,
      "d": 333.3329999999987,
      "v": 101
    },
    {
      "midi": 36,
      "hit": false,
      "t": 119999.87999999967,
      "d": 999.9989999999962,
      "v": 113
    },
    {
      "midi": 64,
      "hit": false,
      "t": 119999.87999999999,
      "d": 333.3329999999987,
      "v": 68
    },
    {
      "midi": 67,
      "hit": false,
      "t": 119999.87999999999,
      "d": 333.3329999999987,
      "v": 89
    },
    {
      "midi": 72,
      "hit": false,
      "t": 119999.87999999999,
      "d": 333.3329999999987,
      "v": 78
    },
    {
      "midi": 72,
      "hit": false,
      "t": 120333.21299999999,
      "d": 1333.3319999999949,
      "v": 87
    },
    {
      "midi": 36,
      "hit": false,
      "t": 120999.87899999967,
      "d": 333.3329999999987,
      "v": 108
    },
    {
      "midi": 36,
      "hit": false,
      "t": 121333.21199999966,
      "d": 999.9989999999962,
      "v": 113
    },
    {
      "midi": 69,
      "hit": false,
      "t": 121999.87799999998,
      "d": 333.3329999999987,
      "v": 87
    },
    {
      "midi": 36,
      "hit": false,
      "t": 122333.21099999966,
      "d": 333.3329999999987,
      "v": 97
    },
    {
      "midi": 72,
      "hit": false,
      "t": 122333.21099999998,
      "d": 333.3329999999987,
      "v": 92
    },
    {
      "midi": 36,
      "hit": false,
      "t": 122666.54399999966,
      "d": 999.9989999999962,
      "v": 122
    },
    {
      "midi": 64,
      "hit": false,
      "t": 122666.54399999998,
      "d": 499.99950000000536,
      "v": 74
    },
    {
      "midi": 67,
      "hit": false,
      "t": 122666.54399999998,
      "d": 499.99950000000536,
      "v": 101
    },
    {
      "midi": 75,
      "hit": false,
      "t": 122666.54399999998,
      "d": 499.99950000000536,
      "v": 66
    },
    {
      "midi": 64,
      "hit": false,
      "t": 123166.54349999999,
      "d": 333.3329999999987,
      "v": 95
    },
    {
      "midi": 67,
      "hit": false,
      "t": 123166.54349999999,
      "d": 333.3329999999987,
      "v": 97
    },
    {
      "midi": 74,
      "hit": false,
      "t": 123166.54349999999,
      "d": 333.3329999999987,
      "v": 104
    },
    {
      "midi": 72,
      "hit": false,
      "t": 123499.87649999998,
      "d": 166.66650000000664,
      "v": 95
    },
    {
      "midi": 36,
      "hit": false,
      "t": 123666.54299999966,
      "d": 333.3329999999987,
      "v": 84
    },
    {
      "midi": 64,
      "hit": false,
      "t": 123666.54299999999,
      "d": 999.9989999999962,
      "v": 67
    },
    {
      "midi": 67,
      "hit": false,
      "t": 123666.54299999999,
      "d": 999.9989999999962,
      "v": 97
    },
    {
      "midi": 72,
      "hit": false,
      "t": 123666.54299999999,
      "d": 999.9989999999962,
      "v": 101
    },
    {
      "midi": 36,
      "hit": false,
      "t": 123999.87599999965,
      "d": 999.9989999999962,
      "v": 113
    },
    {
      "midi": 69,
      "hit": false,
      "t": 124666.54199999999,
      "d": 333.3329999999987,
      "v": 97
    },
    {
      "midi": 36,
      "hit": false,
      "t": 124999.87499999965,
      "d": 333.3329999999987,
      "v": 101
    },
    {
      "midi": 72,
      "hit": false,
      "t": 124999.87499999999,
      "d": 333.3329999999987,
      "v": 87
    },
    {
      "midi": 38,
      "hit": false,
      "t": 125333.20799999965,
      "d": 999.9989999999962,
      "v": 113
    },
    {
      "midi": 65,
      "hit": false,
      "t": 125333.20799999998,
      "d": 333.3329999999987,
      "v": 71
    },
    {
      "midi": 69,
      "hit": false,
      "t": 125333.20799999998,
      "d": 333.3329999999987,
      "v": 84
    },
    {
      "midi": 72,
      "hit": false,
      "t": 125333.20799999998,
      "d": 333.3329999999987,
      "v": 82
    },
    {
      "midi": 72,
      "hit": false,
      "t": 125666.54099999998,
      "d": 166.66650000000664,
      "v": 80
    },
    {
      "midi": 65,
      "hit": false,
      "t": 125833.20749999999,
      "d": 499.99950000000536,
      "v": 97
    },
    {
      "midi": 69,
      "hit": false,
      "t": 125833.20749999999,
      "d": 499.99950000000536,
      "v": 113
    },
    {
      "midi": 72,
      "hit": false,
      "t": 125833.20749999999,
      "d": 499.99950000000536,
      "v": 113
    },
    {
      "midi": 38,
      "hit": false,
      "t": 126333.20699999965,
      "d": 333.3329999999987,
      "v": 108
    },
    {
      "midi": 65,
      "hit": false,
      "t": 126333.207,
      "d": 999.9989999999962,
      "v": 87
    },
    {
      "midi": 69,
      "hit": false,
      "t": 126333.207,
      "d": 999.9989999999962,
      "v": 95
    },
    {
      "midi": 74,
      "hit": false,
      "t": 126333.207,
      "d": 999.9989999999962,
      "v": 92
    },
    {
      "midi": 38,
      "hit": false,
      "t": 126666.53999999964,
      "d": 999.9989999999962,
      "v": 92
    },
    {
      "midi": 69,
      "hit": false,
      "t": 127333.20599999999,
      "d": 333.3329999999987,
      "v": 95
    },
    {
      "midi": 38,
      "hit": false,
      "t": 127666.53899999964,
      "d": 333.3329999999987,
      "v": 92
    },
    {
      "midi": 69,
      "hit": false,
      "t": 127666.53899999999,
      "d": 333.3329999999987,
      "v": 92
    },
    {
      "midi": 41,
      "hit": false,
      "t": 127999.87199999964,
      "d": 999.9989999999962,
      "v": 78
    },
    {
      "midi": 65,
      "hit": false,
      "t": 127999.87199999999,
      "d": 333.3329999999987,
      "v": 82
    },
    {
      "midi": 72,
      "hit": false,
      "t": 127999.87199999999,
      "d": 333.3329999999987,
      "v": 80
    },
    {
      "midi": 72,
      "hit": false,
      "t": 128333.20499999999,
      "d": 499.99950000000536,
      "v": 92
    },
    {
      "midi": 69,
      "hit": false,
      "t": 128833.20449999999,
      "d": 166.66650000000664,
      "v": 97
    },
    {
      "midi": 36,
      "hit": false,
      "t": 128999.87099999964,
      "d": 333.3329999999987,
      "v": 78
    },
    {
      "midi": 72,
      "hit": false,
      "t": 128999.871,
      "d": 333.3329999999987,
      "v": 104
    },
    {
      "midi": 34,
      "hit": false,
      "t": 129333.20399999963,
      "d": 999.9989999999962,
      "v": 72
    },
    {
      "midi": 62,
      "hit": false,
      "t": 129333.204,
      "d": 666.6659999999974,
      "v": 71
    },
    {
      "midi": 65,
      "hit": false,
      "t": 129333.204,
      "d": 666.6659999999974,
      "v": 89
    },
    {
      "midi": 69,
      "hit": false,
      "t": 129333.204,
      "d": 666.6659999999974,
      "v": 53
    },
    {
      "midi": 72,
      "hit": false,
      "t": 129999.87,
      "d": 166.66650000000664,
      "v": 95
    },
    {
      "midi": 72,
      "hit": false,
      "t": 130166.5365,
      "d": 499.99950000000536,
      "v": 101
    },
    {
      "midi": 34,
      "hit": false,
      "t": 130333.20299999963,
      "d": 333.3329999999987,
      "v": 104
    },
    {
      "midi": 36,
      "hit": false,
      "t": 130666.53599999963,
      "d": 999.9989999999962,
      "v": 89
    },
    {
      "midi": 64,
      "hit": false,
      "t": 130666.53600000001,
      "d": 333.3329999999987,
      "v": 80
    },
    {
      "midi": 67,
      "hit": false,
      "t": 130666.53600000001,
      "d": 333.3329999999987,
      "v": 95
    },
    {
      "midi": 72,
      "hit": false,
      "t": 130666.53600000001,
      "d": 333.3329999999987,
      "v": 101
    },
    {
      "midi": 72,
      "hit": false,
      "t": 130999.869,
      "d": 1333.3319999999949,
      "v": 108
    },
    {
      "midi": 36,
      "hit": false,
      "t": 131666.53499999963,
      "d": 333.33300000001327,
      "v": 108
    },
    {
      "midi": 36,
      "hit": false,
      "t": 131999.86799999964,
      "d": 666.6659999999974,
      "v": 122
    },
    {
      "midi": 35,
      "hit": false,
      "t": 132666.53399999964,
      "d": 666.6659999999974,
      "v": 92
    },
    {
      "midi": 60,
      "hit": false,
      "t": 132666.534,
      "d": 333.33300000001327,
      "v": 76
    },
    {
      "midi": 62,
      "hit": false,
      "t": 132999.86700000003,
      "d": 333.33300000001327,
      "v": 92
    },
    {
      "midi": 33,
      "hit": false,
      "t": 133333.19999999963,
      "d": 666.6659999999974,
      "v": 72
    },
    {
      "midi": 60,
      "hit": false,
      "t": 133333.20000000004,
      "d": 333.33300000001327,
      "v": 76
    },
    {
      "midi": 64,
      "hit": false,
      "t": 133333.20000000004,
      "d": 333.33300000001327,
      "v": 84
    },
    {
      "midi": 67,
      "hit": false,
      "t": 133666.53300000005,
      "d": 333.33300000001327,
      "v": 92
    },
    {
      "midi": 33,
      "hit": false,
      "t": 133999.86599999963,
      "d": 666.6659999999974,
      "v": 108
    },
    {
      "midi": 69,
      "hit": false,
      "t": 133999.86600000007,
      "d": 333.33300000001327,
      "v": 92
    },
    {
      "midi": 64,
      "hit": false,
      "t": 134333.19900000008,
      "d": 666.6659999999974,
      "v": 76
    },
    {
      "midi": 69,
      "hit": false,
      "t": 134333.19900000008,
      "d": 666.6659999999974,
      "v": 87
    },
    {
      "midi": 72,
      "hit": false,
      "t": 134333.19900000008,
      "d": 666.6659999999974,
      "v": 67
    },
    {
      "midi": 33,
      "hit": false,
      "t": 134666.53199999963,
      "d": 666.6659999999974,
      "v": 117
    },
    {
      "midi": 69,
      "hit": false,
      "t": 134999.86500000008,
      "d": 666.6659999999974,
      "v": 113
    },
    {
      "midi": 33,
      "hit": false,
      "t": 135333.19799999963,
      "d": 666.6659999999974,
      "v": 104
    },
    {
      "midi": 67,
      "hit": false,
      "t": 135666.53100000008,
      "d": 333.33300000001327,
      "v": 89
    },
    {
      "midi": 34,
      "hit": false,
      "t": 135999.86399999962,
      "d": 666.6659999999974,
      "v": 92
    },
    {
      "midi": 62,
      "hit": false,
      "t": 135999.8640000001,
      "d": 333.33300000001327,
      "v": 76
    },
    {
      "midi": 65,
      "hit": false,
      "t": 135999.8640000001,
      "d": 333.33300000001327,
      "v": 89
    },
    {
      "midi": 69,
      "hit": false,
      "t": 135999.8640000001,
      "d": 333.33300000001327,
      "v": 92
    },
    {
      "midi": 67,
      "hit": false,
      "t": 136333.1970000001,
      "d": 333.33300000001327,
      "v": 87
    },
    {
      "midi": 34,
      "hit": false,
      "t": 136666.52999999962,
      "d": 666.6659999999974,
      "v": 104
    },
    {
      "midi": 64,
      "hit": false,
      "t": 136666.53000000012,
      "d": 333.33300000001327,
      "v": 80
    },
    {
      "midi": 62,
      "hit": false,
      "t": 136999.86300000013,
      "d": 499.99950000000536,
      "v": 68
    },
    {
      "midi": 65,
      "hit": false,
      "t": 136999.86300000013,
      "d": 499.99950000000536,
      "v": 84
    },
    {
      "midi": 69,
      "hit": false,
      "t": 136999.86300000013,
      "d": 499.99950000000536,
      "v": 78
    },
    {
      "midi": 34,
      "hit": false,
      "t": 137333.19599999962,
      "d": 666.6659999999974,
      "v": 104
    },
    {
      "midi": 67,
      "hit": false,
      "t": 137499.86250000013,
      "d": 166.66649999999208,
      "v": 84
    },
    {
      "midi": 64,
      "hit": false,
      "t": 137666.52900000013,
      "d": 666.6659999999974,
      "v": 97
    },
    {
      "midi": 34,
      "hit": false,
      "t": 137999.86199999962,
      "d": 666.6659999999974,
      "v": 104
    },
    {
      "midi": 64,
      "hit": false,
      "t": 138333.19500000012,
      "d": 333.33300000001327,
      "v": 117
    },
    {
      "midi": 33,
      "hit": false,
      "t": 138666.5279999996,
      "d": 666.6659999999974,
      "v": 87
    },
    {
      "midi": 60,
      "hit": false,
      "t": 138666.52800000014,
      "d": 333.33300000001327,
      "v": 54
    },
    {
      "midi": 64,
      "hit": false,
      "t": 138666.52800000014,
      "d": 333.33300000001327,
      "v": 72
    },
    {
      "midi": 67,
      "hit": false,
      "t": 138999.86100000015,
      "d": 333.33300000001327,
      "v": 92
    },
    {
      "midi": 33,
      "hit": false,
      "t": 139333.1939999996,
      "d": 666.6659999999974,
      "v": 117
    },
    {
      "midi": 69,
      "hit": false,
      "t": 139333.19400000016,
      "d": 333.33300000001327,
      "v": 89
    },
    {
      "midi": 64,
      "hit": false,
      "t": 139666.52700000018,
      "d": 666.6659999999974,
      "v": 64
    },
    {
      "midi": 69,
      "hit": false,
      "t": 139666.52700000018,
      "d": 666.6659999999974,
      "v": 80
    },
    {
      "midi": 72,
      "hit": false,
      "t": 139666.52700000018,
      "d": 666.6659999999974,
      "v": 66
    },
    {
      "midi": 33,
      "hit": false,
      "t": 139999.8599999996,
      "d": 666.6659999999974,
      "v": 108
    },
    {
      "midi": 69,
      "hit": false,
      "t": 140333.19300000017,
      "d": 333.33300000001327,
      "v": 52
    },
    {
      "midi": 33,
      "hit": false,
      "t": 140666.5259999996,
      "d": 666.6659999999974,
      "v": 87
    },
    {
      "midi": 67,
      "hit": false,
      "t": 140666.5260000002,
      "d": 333.33300000001327,
      "v": 82
    },
    {
      "midi": 59,
      "hit": false,
      "t": 140999.8590000002,
      "d": 333.33300000001327,
      "v": 74
    },
    {
      "midi": 64,
      "hit": false,
      "t": 140999.8590000002,
      "d": 333.33300000001327,
      "v": 51
    },
    {
      "midi": 69,
      "hit": false,
      "t": 140999.8590000002,
      "d": 333.33300000001327,
      "v": 95
    },
    {
      "midi": 40,
      "hit": false,
      "t": 141333.1919999996,
      "d": 999.9990000000107,
      "v": 87
    },
    {
      "midi": 67,
      "hit": false,
      "t": 141499.8585000002,
      "d": 166.66649999999208,
      "v": 101
    },
    {
      "midi": 64,
      "hit": false,
      "t": 141666.5250000002,
      "d": 1999.9979999999923,
      "v": 97
    },
    {
      "midi": 40,
      "hit": false,
      "t": 142333.1909999996,
      "d": 666.6659999999974,
      "v": 92
    },
    {
      "midi": 38,
      "hit": false,
      "t": 142999.8569999996,
      "d": 666.6659999999974,
      "v": 95
    },
    {
      "midi": 35,
      "hit": false,
      "t": 143666.5229999996,
      "d": 333.33300000001327,
      "v": 87
    },
    {
      "midi": 64,
      "hit": false,
      "t": 143666.5230000002,
      "d": 166.66649999999208,
      "v": 108
    },
    {
      "midi": 64,
      "hit": false,
      "t": 143833.18950000018,
      "d": 166.66649999999208,
      "v": 95
    },
    {
      "midi": 33,
      "hit": false,
      "t": 143999.85599999962,
      "d": 666.6659999999974,
      "v": 63
    },
    {
      "midi": 60,
      "hit": false,
      "t": 143999.85600000017,
      "d": 333.33300000001327,
      "v": 80
    },
    {
      "midi": 64,
      "hit": false,
      "t": 143999.85600000017,
      "d": 333.33300000001327,
      "v": 97
    },
    {
      "midi": 67,
      "hit": false,
      "t": 144333.1890000002,
      "d": 333.33300000001327,
      "v": 101
    },
    {
      "midi": 33,
      "hit": false,
      "t": 144666.52199999962,
      "d": 666.6659999999974,
      "v": 108
    },
    {
      "midi": 69,
      "hit": false,
      "t": 144666.5220000002,
      "d": 333.33300000001327,
      "v": 82
    },
    {
      "midi": 64,
      "hit": false,
      "t": 144999.8550000002,
      "d": 666.6659999999974,
      "v": 59
    },
    {
      "midi": 69,
      "hit": false,
      "t": 144999.8550000002,
      "d": 666.6659999999974,
      "v": 80
    },
    {
      "midi": 72,
      "hit": false,
      "t": 144999.8550000002,
      "d": 666.6659999999974,
      "v": 69
    },
    {
      "midi": 33,
      "hit": false,
      "t": 145333.18799999962,
      "d": 666.6659999999974,
      "v": 104
    },
    {
      "midi": 69,
      "hit": false,
      "t": 145666.5210000002,
      "d": 666.6659999999974,
      "v": 72
    },
    {
      "midi": 33,
      "hit": false,
      "t": 145999.8539999996,
      "d": 666.6659999999974,
      "v": 104
    },
    {
      "midi": 67,
      "hit": false,
      "t": 146333.1870000002,
      "d": 166.66649999999208,
      "v": 72
    },
    {
      "midi": 69,
      "hit": false,
      "t": 146499.8535000002,
      "d": 166.66649999999208,
      "v": 71
    },
    {
      "midi": 38,
      "hit": false,
      "t": 146666.5199999996,
      "d": 666.6659999999974,
      "v": 82
    },
    {
      "midi": 65,
      "hit": false,
      "t": 146666.5200000002,
      "d": 333.33300000001327,
      "v": 59
    },
    {
      "midi": 69,
      "hit": false,
      "t": 146666.5200000002,
      "d": 333.33300000001327,
      "v": 82
    },
    {
      "midi": 72,
      "hit": false,
      "t": 146666.5200000002,
      "d": 333.33300000001327,
      "v": 78
    },
    {
      "midi": 72,
      "hit": false,
      "t": 146999.8530000002,
      "d": 166.66649999999208,
      "v": 95
    },
    {
      "midi": 65,
      "hit": false,
      "t": 147166.5195000002,
      "d": 499.99950000000536,
      "v": 89
    },
    {
      "midi": 69,
      "hit": false,
      "t": 147166.5195000002,
      "d": 499.99950000000536,
      "v": 104
    },
    {
      "midi": 72,
      "hit": false,
      "t": 147166.5195000002,
      "d": 499.99950000000536,
      "v": 101
    },
    {
      "midi": 38,
      "hit": false,
      "t": 147333.1859999996,
      "d": 666.6659999999974,
      "v": 97
    },
    {
      "midi": 64,
      "hit": false,
      "t": 147666.5190000002,
      "d": 666.6659999999974,
      "v": 95
    },
    {
      "midi": 69,
      "hit": false,
      "t": 147666.5190000002,
      "d": 666.6659999999974,
      "v": 104
    },
    {
      "midi": 73,
      "hit": false,
      "t": 147666.5190000002,
      "d": 666.6659999999974,
      "v": 88
    },
    {
      "midi": 33,
      "hit": false,
      "t": 147999.8519999996,
      "d": 666.6659999999974,
      "v": 84
    },
    {
      "midi": 74,
      "hit": false,
      "t": 148333.1850000002,
      "d": 333.33300000001327,
      "v": 89
    },
    {
      "midi": 45,
      "hit": false,
      "t": 148666.5179999996,
      "d": 333.33300000001327,
      "v": 95
    },
    {
      "midi": 74,
      "hit": false,
      "t": 148666.51800000021,
      "d": 333.33300000001327,
      "v": 97
    },
    {
      "midi": 48,
      "hit": false,
      "t": 148999.85099999962,
      "d": 333.33300000001327,
      "v": 50
    },
    {
      "midi": 74,
      "hit": false,
      "t": 148999.85100000023,
      "d": 333.33300000001327,
      "v": 92
    },
    {
      "midi": 38,
      "hit": false,
      "t": 149333.18399999963,
      "d": 333.33300000001327,
      "v": 71
    },
    {
      "midi": 50,
      "hit": false,
      "t": 149333.18399999963,
      "d": 333.33300000001327,
      "v": 76
    },
    {
      "midi": 65,
      "hit": false,
      "t": 149333.18400000024,
      "d": 666.6659999999974,
      "v": 57
    },
    {
      "midi": 69,
      "hit": false,
      "t": 149333.18400000024,
      "d": 666.6659999999974,
      "v": 80
    },
    {
      "midi": 72,
      "hit": false,
      "t": 149333.18400000024,
      "d": 666.6659999999974,
      "v": 74
    },
    {
      "midi": 74,
      "hit": false,
      "t": 149333.18400000024,
      "d": 666.6659999999974,
      "v": 82
    },
    {
      "midi": 50,
      "hit": false,
      "t": 149666.51699999964,
      "d": 333.33300000001327,
      "v": 108
    },
    {
      "midi": 38,
      "hit": false,
      "t": 149999.84999999966,
      "d": 333.33300000001327,
      "v": 95
    },
    {
      "midi": 50,
      "hit": false,
      "t": 149999.84999999966,
      "d": 333.33300000001327,
      "v": 89
    },
    {
      "midi": 72,
      "hit": false,
      "t": 149999.85000000024,
      "d": 333.33300000001327,
      "v": 80
    },
    {
      "midi": 50,
      "hit": false,
      "t": 150333.18299999967,
      "d": 333.33300000001327,
      "v": 89
    },
    {
      "midi": 69,
      "hit": false,
      "t": 150333.18300000025,
      "d": 333.33300000001327,
      "v": 84
    },
    {
      "midi": 38,
      "hit": false,
      "t": 150666.51599999968,
      "d": 333.33300000001327,
      "v": 87
    },
    {
      "midi": 50,
      "hit": false,
      "t": 150666.51599999968,
      "d": 333.33300000001327,
      "v": 97
    },
    {
      "midi": 72,
      "hit": false,
      "t": 150666.51600000027,
      "d": 666.6659999999974,
      "v": 87
    },
    {
      "midi": 50,
      "hit": false,
      "t": 150999.8489999997,
      "d": 333.33300000001327,
      "v": 92
    },
    {
      "midi": 38,
      "hit": false,
      "t": 151333.1819999997,
      "d": 333.33300000001327,
      "v": 72
    },
    {
      "midi": 50,
      "hit": false,
      "t": 151333.1819999997,
      "d": 333.33300000001327,
      "v": 92
    },
    {
      "midi": 69,
      "hit": false,
      "t": 151333.18200000026,
      "d": 333.33300000001327,
      "v": 92
    },
    {
      "midi": 50,
      "hit": false,
      "t": 151666.51499999972,
      "d": 333.33300000001327,
      "v": 87
    },
    {
      "midi": 58,
      "hit": false,
      "t": 151666.51500000028,
      "d": 333.33300000001327,
      "v": 84
    },
    {
      "midi": 62,
      "hit": false,
      "t": 151666.51500000028,
      "d": 333.33300000001327,
      "v": 97
    },
    {
      "midi": 65,
      "hit": false,
      "t": 151666.51500000028,
      "d": 333.33300000001327,
      "v": 92
    },
    {
      "midi": 67,
      "hit": false,
      "t": 151666.51500000028,
      "d": 333.33300000001327,
      "v": 101
    },
    {
      "midi": 31,
      "hit": false,
      "t": 151999.84799999974,
      "d": 333.33300000001327,
      "v": 80
    },
    {
      "midi": 43,
      "hit": false,
      "t": 151999.84799999974,
      "d": 333.33300000001327,
      "v": 84
    },
    {
      "midi": 43,
      "hit": false,
      "t": 152333.18099999975,
      "d": 333.33300000001327,
      "v": 89
    },
    {
      "midi": 31,
      "hit": false,
      "t": 152666.51399999976,
      "d": 333.33300000001327,
      "v": 60
    },
    {
      "midi": 43,
      "hit": false,
      "t": 152666.51399999976,
      "d": 333.33300000001327,
      "v": 63
    },
    {
      "midi": 43,
      "hit": false,
      "t": 152999.84699999978,
      "d": 333.33300000001327,
      "v": 92
    },
    {
      "midi": 31,
      "hit": false,
      "t": 153333.1799999998,
      "d": 333.33300000001327,
      "v": 71
    },
    {
      "midi": 43,
      "hit": false,
      "t": 153333.1799999998,
      "d": 333.33300000001327,
      "v": 92
    },
    {
      "midi": 69,
      "hit": false,
      "t": 153333.18000000028,
      "d": 166.66649999999208,
      "v": 117
    },
    {
      "midi": 72,
      "hit": false,
      "t": 153499.84650000028,
      "d": 499.99950000000536,
      "v": 95
    },
    {
      "midi": 43,
      "hit": false,
      "t": 153666.5129999998,
      "d": 333.33300000001327,
      "v": 82
    },
    {
      "midi": 31,
      "hit": false,
      "t": 153999.84599999982,
      "d": 333.33300000001327,
      "v": 66
    },
    {
      "midi": 43,
      "hit": false,
      "t": 153999.84599999982,
      "d": 333.33300000001327,
      "v": 72
    },
    {
      "midi": 72,
      "hit": false,
      "t": 153999.84600000028,
      "d": 333.33300000001327,
      "v": 57
    },
    {
      "midi": 43,
      "hit": false,
      "t": 154333.17899999983,
      "d": 333.33300000001327,
      "v": 82
    },
    {
      "midi": 69,
      "hit": false,
      "t": 154333.1790000003,
      "d": 166.66649999999208,
      "v": 87
    },
    {
      "midi": 64,
      "hit": false,
      "t": 154499.8455000003,
      "d": 166.66649999999208,
      "v": 89
    },
    {
      "midi": 65,
      "hit": false,
      "t": 154499.8455000003,
      "d": 166.66649999999208,
      "v": 95
    },
    {
      "midi": 72,
      "hit": false,
      "t": 154499.8455000003,
      "d": 166.66649999999208,
      "v": 97
    },
    {
      "midi": 29,
      "hit": false,
      "t": 154666.51199999984,
      "d": 333.33300000001327,
      "v": 68
    },
    {
      "midi": 41,
      "hit": false,
      "t": 154666.51199999984,
      "d": 333.33300000001327,
      "v": 76
    },
    {
      "midi": 41,
      "hit": false,
      "t": 154999.84499999986,
      "d": 333.33300000001327,
      "v": 80
    },
    {
      "midi": 74,
      "hit": false,
      "t": 154999.8450000003,
      "d": 499.99950000000536,
      "v": 89
    },
    {
      "midi": 29,
      "hit": false,
      "t": 155333.17799999987,
      "d": 333.33300000001327,
      "v": 61
    },
    {
      "midi": 41,
      "hit": false,
      "t": 155333.17799999987,
      "d": 333.33300000001327,
      "v": 71
    },
    {
      "midi": 60,
      "hit": false,
      "t": 155499.8445000003,
      "d": 499.99950000000536,
      "v": 80
    },
    {
      "midi": 64,
      "hit": false,
      "t": 155499.8445000003,
      "d": 499.99950000000536,
      "v": 97
    },
    {
      "midi": 69,
      "hit": false,
      "t": 155499.8445000003,
      "d": 499.99950000000536,
      "v": 104
    },
    {
      "midi": 41,
      "hit": false,
      "t": 155666.51099999988,
      "d": 333.33300000001327,
      "v": 89
    },
    {
      "midi": 29,
      "hit": false,
      "t": 155999.8439999999,
      "d": 333.33300000001327,
      "v": 59
    },
    {
      "midi": 41,
      "hit": false,
      "t": 155999.8439999999,
      "d": 333.33300000001327,
      "v": 78
    },
    {
      "midi": 60,
      "hit": false,
      "t": 155999.8440000003,
      "d": 1333.3319999999949,
      "v": 61
    },
    {
      "midi": 64,
      "hit": false,
      "t": 155999.8440000003,
      "d": 1333.3319999999949,
      "v": 34
    },
    {
      "midi": 65,
      "hit": false,
      "t": 155999.8440000003,
      "d": 1333.3319999999949,
      "v": 95
    },
    {
      "midi": 69,
      "hit": false,
      "t": 155999.8440000003,
      "d": 1333.3319999999949,
      "v": 84
    },
    {
      "midi": 41,
      "hit": false,
      "t": 156333.1769999999,
      "d": 333.33300000001327,
      "v": 82
    },
    {
      "midi": 29,
      "hit": false,
      "t": 156666.50999999992,
      "d": 333.33300000001327,
      "v": 53
    },
    {
      "midi": 41,
      "hit": false,
      "t": 156666.50999999992,
      "d": 333.33300000001327,
      "v": 71
    },
    {
      "midi": 41,
      "hit": false,
      "t": 156999.84299999994,
      "d": 333.33300000001327,
      "v": 78
    },
    {
      "midi": 31,
      "hit": false,
      "t": 157333.17599999995,
      "d": 333.33300000001327,
      "v": 64
    },
    {
      "midi": 43,
      "hit": false,
      "t": 157333.17599999995,
      "d": 333.33300000001327,
      "v": 59
    },
    {
      "midi": 43,
      "hit": false,
      "t": 157666.50899999996,
      "d": 333.33300000001327,
      "v": 82
    },
    {
      "midi": 58,
      "hit": false,
      "t": 157666.5090000003,
      "d": 499.99950000000536,
      "v": 36
    },
    {
      "midi": 62,
      "hit": false,
      "t": 157666.5090000003,
      "d": 499.99950000000536,
      "v": 92
    },
    {
      "midi": 65,
      "hit": false,
      "t": 157666.5090000003,
      "d": 499.99950000000536,
      "v": 80
    },
    {
      "midi": 67,
      "hit": false,
      "t": 157666.5090000003,
      "d": 499.99950000000536,
      "v": 101
    },
    {
      "midi": 31,
      "hit": false,
      "t": 157999.84199999998,
      "d": 333.33300000001327,
      "v": 59
    },
    {
      "midi": 43,
      "hit": false,
      "t": 157999.84199999998,
      "d": 333.33300000001327,
      "v": 84
    },
    {
      "midi": 58,
      "hit": false,
      "t": 158166.50850000032,
      "d": 499.99950000000536,
      "v": 77
    },
    {
      "midi": 62,
      "hit": false,
      "t": 158166.50850000032,
      "d": 499.99950000000536,
      "v": 108
    },
    {
      "midi": 65,
      "hit": false,
      "t": 158166.50850000032,
      "d": 499.99950000000536,
      "v": 97
    },
    {
      "midi": 67,
      "hit": false,
      "t": 158166.50850000032,
      "d": 499.99950000000536,
      "v": 108
    },
    {
      "midi": 43,
      "hit": false,
      "t": 158333.175,
      "d": 333.33300000001327,
      "v": 82
    },
    {
      "midi": 31,
      "hit": false,
      "t": 158666.508,
      "d": 333.33300000001327,
      "v": 76
    },
    {
      "midi": 43,
      "hit": false,
      "t": 158666.508,
      "d": 333.33300000001327,
      "v": 95
    },
    {
      "midi": 58,
      "hit": false,
      "t": 158666.50800000032,
      "d": 666.6659999999974,
      "v": 92
    },
    {
      "midi": 62,
      "hit": false,
      "t": 158666.50800000032,
      "d": 666.6659999999974,
      "v": 108
    },
    {
      "midi": 65,
      "hit": false,
      "t": 158666.50800000032,
      "d": 666.6659999999974,
      "v": 87
    },
    {
      "midi": 67,
      "hit": false,
      "t": 158666.50800000032,
      "d": 666.6659999999974,
      "v": 104
    },
    {
      "midi": 43,
      "hit": false,
      "t": 158999.84100000001,
      "d": 333.33300000001327,
      "v": 84
    },
    {
      "midi": 31,
      "hit": false,
      "t": 159333.17400000003,
      "d": 333.33300000001327,
      "v": 67
    },
    {
      "midi": 43,
      "hit": false,
      "t": 159333.17400000003,
      "d": 333.33300000001327,
      "v": 89
    },
    {
      "midi": 69,
      "hit": false,
      "t": 159333.17400000032,
      "d": 166.66649999999208,
      "v": 95
    },
    {
      "midi": 69,
      "hit": false,
      "t": 159499.8405000003,
      "d": 166.66649999999208,
      "v": 95
    },
    {
      "midi": 43,
      "hit": false,
      "t": 159666.50700000004,
      "d": 333.33300000001327,
      "v": 89
    },
    {
      "midi": 72,
      "hit": false,
      "t": 159666.5070000003,
      "d": 333.33300000001327,
      "v": 71
    },
    {
      "midi": 38,
      "hit": false,
      "t": 159999.84000000005,
      "d": 333.33300000001327,
      "v": 68
    },
    {
      "midi": 50,
      "hit": false,
      "t": 159999.84000000005,
      "d": 333.33300000001327,
      "v": 82
    },
    {
      "midi": 65,
      "hit": false,
      "t": 159999.84000000032,
      "d": 666.6659999999974,
      "v": 89
    },
    {
      "midi": 69,
      "hit": false,
      "t": 159999.84000000032,
      "d": 666.6659999999974,
      "v": 101
    },
    {
      "midi": 72,
      "hit": false,
      "t": 159999.84000000032,
      "d": 666.6659999999974,
      "v": 97
    },
    {
      "midi": 74,
      "hit": false,
      "t": 159999.84000000032,
      "d": 666.6659999999974,
      "v": 101
    },
    {
      "midi": 50,
      "hit": false,
      "t": 160333.17300000007,
      "d": 333.33300000001327,
      "v": 95
    },
    {
      "midi": 38,
      "hit": false,
      "t": 160666.50600000008,
      "d": 333.33300000001327,
      "v": 69
    },
    {
      "midi": 50,
      "hit": false,
      "t": 160666.50600000008,
      "d": 333.33300000001327,
      "v": 95
    },
    {
      "midi": 72,
      "hit": false,
      "t": 160666.5060000003,
      "d": 333.33300000001327,
      "v": 63
    },
    {
      "midi": 50,
      "hit": false,
      "t": 160999.8390000001,
      "d": 333.33300000001327,
      "v": 89
    },
    {
      "midi": 69,
      "hit": false,
      "t": 160999.83900000033,
      "d": 333.33300000001327,
      "v": 87
    },
    {
      "midi": 38,
      "hit": false,
      "t": 161333.1720000001,
      "d": 333.33300000001327,
      "v": 84
    },
    {
      "midi": 50,
      "hit": false,
      "t": 161333.1720000001,
      "d": 333.33300000001327,
      "v": 92
    },
    {
      "midi": 72,
      "hit": false,
      "t": 161333.17200000034,
      "d": 666.6659999999974,
      "v": 87
    },
    {
      "midi": 50,
      "hit": false,
      "t": 161666.50500000012,
      "d": 333.33300000001327,
      "v": 87
    },
    {
      "midi": 38,
      "hit": false,
      "t": 161999.83800000013,
      "d": 333.33300000001327,
      "v": 78
    },
    {
      "midi": 50,
      "hit": false,
      "t": 161999.83800000013,
      "d": 333.33300000001327,
      "v": 95
    },
    {
      "midi": 69,
      "hit": false,
      "t": 161999.83800000034,
      "d": 333.33300000001327,
      "v": 89
    },
    {
      "midi": 50,
      "hit": false,
      "t": 162333.17100000015,
      "d": 333.33300000001327,
      "v": 92
    },
    {
      "midi": 58,
      "hit": false,
      "t": 162333.17100000035,
      "d": 333.33300000001327,
      "v": 69
    },
    {
      "midi": 62,
      "hit": false,
      "t": 162333.17100000035,
      "d": 333.33300000001327,
      "v": 92
    },
    {
      "midi": 65,
      "hit": false,
      "t": 162333.17100000035,
      "d": 333.33300000001327,
      "v": 87
    },
    {
      "midi": 67,
      "hit": false,
      "t": 162333.17100000035,
      "d": 333.33300000001327,
      "v": 104
    },
    {
      "midi": 31,
      "hit": false,
      "t": 162666.50400000016,
      "d": 333.33300000001327,
      "v": 64
    },
    {
      "midi": 43,
      "hit": false,
      "t": 162666.50400000016,
      "d": 333.33300000001327,
      "v": 71
    },
    {
      "midi": 43,
      "hit": false,
      "t": 162999.83700000017,
      "d": 333.33300000001327,
      "v": 89
    },
    {
      "midi": 31,
      "hit": false,
      "t": 163333.1700000002,
      "d": 333.33300000001327,
      "v": 60
    },
    {
      "midi": 43,
      "hit": false,
      "t": 163333.1700000002,
      "d": 333.33300000001327,
      "v": 72
    },
    {
      "midi": 43,
      "hit": false,
      "t": 163666.5030000002,
      "d": 333.33300000001327,
      "v": 87
    },
    {
      "midi": 31,
      "hit": false,
      "t": 163999.8360000002,
      "d": 333.33300000001327,
      "v": 76
    },
    {
      "midi": 43,
      "hit": false,
      "t": 163999.8360000002,
      "d": 333.33300000001327,
      "v": 87
    },
    {
      "midi": 69,
      "hit": false,
      "t": 163999.83600000036,
      "d": 166.66649999999208,
      "v": 92
    },
    {
      "midi": 72,
      "hit": false,
      "t": 164166.50250000035,
      "d": 499.99950000000536,
      "v": 89
    },
    {
      "midi": 43,
      "hit": false,
      "t": 164333.16900000023,
      "d": 333.33300000001327,
      "v": 87
    },
    {
      "midi": 31,
      "hit": false,
      "t": 164666.50200000024,
      "d": 333.33300000001327,
      "v": 67
    },
    {
      "midi": 43,
      "hit": false,
      "t": 164666.50200000024,
      "d": 333.33300000001327,
      "v": 78
    },
    {
      "midi": 72,
      "hit": false,
      "t": 164666.50200000036,
      "d": 333.33300000001327,
      "v": 97
    },
    {
      "midi": 43,
      "hit": false,
      "t": 164999.83500000025,
      "d": 333.33300000001327,
      "v": 82
    },
    {
      "midi": 64,
      "hit": false,
      "t": 165166.50150000036,
      "d": 166.66649999999208,
      "v": 92
    },
    {
      "midi": 65,
      "hit": false,
      "t": 165166.50150000036,
      "d": 166.66649999999208,
      "v": 97
    },
    {
      "midi": 69,
      "hit": false,
      "t": 165166.50150000036,
      "d": 166.66649999999208,
      "v": 95
    },
    {
      "midi": 72,
      "hit": false,
      "t": 165166.50150000036,
      "d": 166.66649999999208,
      "v": 97
    },
    {
      "midi": 29,
      "hit": false,
      "t": 165333.16800000027,
      "d": 333.33300000001327,
      "v": 68
    },
    {
      "midi": 41,
      "hit": false,
      "t": 165333.16800000027,
      "d": 333.33300000001327,
      "v": 84
    },
    {
      "midi": 41,
      "hit": false,
      "t": 165666.50100000028,
      "d": 333.33300000001327,
      "v": 74
    },
    {
      "midi": 74,
      "hit": false,
      "t": 165666.50100000037,
      "d": 499.99950000000536,
      "v": 89
    },
    {
      "midi": 29,
      "hit": false,
      "t": 165999.8340000003,
      "d": 333.33300000001327,
      "v": 64
    },
    {
      "midi": 41,
      "hit": false,
      "t": 165999.8340000003,
      "d": 333.33300000001327,
      "v": 72
    },
    {
      "midi": 60,
      "hit": false,
      "t": 166166.50050000037,
      "d": 499.99950000000536,
      "v": 89
    },
    {
      "midi": 64,
      "hit": false,
      "t": 166166.50050000037,
      "d": 499.99950000000536,
      "v": 104
    },
    {
      "midi": 65,
      "hit": false,
      "t": 166166.50050000037,
      "d": 499.99950000000536,
      "v": 104
    },
    {
      "midi": 69,
      "hit": false,
      "t": 166166.50050000037,
      "d": 499.99950000000536,
      "v": 113
    },
    {
      "midi": 41,
      "hit": false,
      "t": 166333.1670000003,
      "d": 333.33300000001327,
      "v": 66
    },
    {
      "midi": 29,
      "hit": false,
      "t": 166666.50000000032,
      "d": 333.33300000001327,
      "v": 71
    },
    {
      "midi": 41,
      "hit": false,
      "t": 166666.50000000032,
      "d": 333.33300000001327,
      "v": 74
    },
    {
      "midi": 60,
      "hit": false,
      "t": 166666.50000000038,
      "d": 1333.3319999999949,
      "v": 101
    },
    {
      "midi": 64,
      "hit": false,
      "t": 166666.50000000038,
      "d": 1333.3319999999949,
      "v": 104
    },
    {
      "midi": 65,
      "hit": false,
      "t": 166666.50000000038,
      "d": 1333.3319999999949,
      "v": 104
    },
    {
      "midi": 69,
      "hit": false,
      "t": 166666.50000000038,
      "d": 1333.3319999999949,
      "v": 104
    },
    {
      "midi": 41,
      "hit": false,
      "t": 166999.83300000033,
      "d": 333.33300000001327,
      "v": 76
    },
    {
      "midi": 29,
      "hit": false,
      "t": 167333.16600000035,
      "d": 333.33300000001327,
      "v": 59
    },
    {
      "midi": 41,
      "hit": false,
      "t": 167333.16600000035,
      "d": 333.33300000001327,
      "v": 66
    },
    {
      "midi": 41,
      "hit": false,
      "t": 167666.49900000036,
      "d": 333.33300000001327,
      "v": 76
    },
    {
      "midi": 31,
      "hit": false,
      "t": 167999.83200000037,
      "d": 333.33300000001327,
      "v": 62
    },
    {
      "midi": 43,
      "hit": false,
      "t": 167999.83200000037,
      "d": 333.33300000001327,
      "v": 82
    },
    {
      "midi": 58,
      "hit": false,
      "t": 168333.1650000004,
      "d": 499.99950000000536,
      "v": 68
    },
    {
      "midi": 62,
      "hit": false,
      "t": 168333.1650000004,
      "d": 499.99950000000536,
      "v": 92
    },
    {
      "midi": 65,
      "hit": false,
      "t": 168333.1650000004,
      "d": 499.99950000000536,
      "v": 97
    },
    {
      "midi": 67,
      "hit": false,
      "t": 168333.1650000004,
      "d": 499.99950000000536,
      "v": 97
    },
    {
      "midi": 43,
      "hit": false,
      "t": 168333.1650000004,
      "d": 333.33300000001327,
      "v": 72
    },
    {
      "midi": 31,
      "hit": false,
      "t": 168666.4980000004,
      "d": 333.33300000001327,
      "v": 65
    },
    {
      "midi": 43,
      "hit": false,
      "t": 168666.4980000004,
      "d": 333.33300000001327,
      "v": 57
    },
    {
      "midi": 58,
      "hit": false,
      "t": 168833.1645000004,
      "d": 499.99950000000536,
      "v": 74
    },
    {
      "midi": 62,
      "hit": false,
      "t": 168833.1645000004,
      "d": 499.99950000000536,
      "v": 92
    },
    {
      "midi": 65,
      "hit": false,
      "t": 168833.1645000004,
      "d": 499.99950000000536,
      "v": 95
    },
    {
      "midi": 67,
      "hit": false,
      "t": 168833.1645000004,
      "d": 499.99950000000536,
      "v": 101
    },
    {
      "midi": 43,
      "hit": false,
      "t": 168999.8310000004,
      "d": 333.33300000001327,
      "v": 92
    },
    {
      "midi": 58,
      "hit": false,
      "t": 169333.1640000004,
      "d": 1333.3319999999949,
      "v": 84
    },
    {
      "midi": 62,
      "hit": false,
      "t": 169333.1640000004,
      "d": 1333.3319999999949,
      "v": 101
    },
    {
      "midi": 65,
      "hit": false,
      "t": 169333.1640000004,
      "d": 1333.3319999999949,
      "v": 92
    },
    {
      "midi": 67,
      "hit": false,
      "t": 169333.1640000004,
      "d": 1333.3319999999949,
      "v": 104
    },
    {
      "midi": 31,
      "hit": false,
      "t": 169333.16400000043,
      "d": 333.33300000001327,
      "v": 71
    },
    {
      "midi": 43,
      "hit": false,
      "t": 169333.16400000043,
      "d": 333.33300000001327,
      "v": 95
    },
    {
      "midi": 43,
      "hit": false,
      "t": 169666.49700000044,
      "d": 333.33300000001327,
      "v": 92
    },
    {
      "midi": 31,
      "hit": false,
      "t": 169999.83000000045,
      "d": 333.33300000001327,
      "v": 64
    },
    {
      "midi": 43,
      "hit": false,
      "t": 169999.83000000045,
      "d": 333.33300000001327,
      "v": 82
    },
    {
      "midi": 43,
      "hit": false,
      "t": 170333.16300000047,
      "d": 333.33300000001327,
      "v": 87
    },
    {
      "midi": 59,
      "hit": false,
      "t": 170666.4960000004,
      "d": 333.33300000001327,
      "v": 78
    },
    {
      "midi": 62,
      "hit": false,
      "t": 170666.4960000004,
      "d": 333.33300000001327,
      "v": 104
    },
    {
      "midi": 67,
      "hit": false,
      "t": 170666.4960000004,
      "d": 333.33300000001327,
      "v": 101
    },
    {
      "midi": 43,
      "hit": false,
      "t": 170666.49600000048,
      "d": 666.6659999999974,
      "v": 71
    },
    {
      "midi": 50,
      "hit": false,
      "t": 170666.49600000048,
      "d": 666.6659999999974,
      "v": 95
    },
    {
      "midi": 67,
      "hit": false,
      "t": 170999.8290000004,
      "d": 333.33300000001327,
      "v": 97
    },
    {
      "midi": 67,
      "hit": false,
      "t": 171333.16200000042,
      "d": 1999.9979999999923,
      "v": 95
    },
    {
      "midi": 43,
      "hit": false,
      "t": 171333.16200000048,
      "d": 666.6659999999974,
      "v": 104
    },
    {
      "midi": 50,
      "hit": false,
      "t": 171333.16200000048,
      "d": 666.6659999999974,
      "v": 95
    },
    {
      "midi": 43,
      "hit": false,
      "t": 171999.82800000047,
      "d": 666.6659999999974,
      "v": 104
    },
    {
      "midi": 50,
      "hit": false,
      "t": 171999.82800000047,
      "d": 666.6659999999974,
      "v": 101
    },
    {
      "midi": 50,
      "hit": false,
      "t": 172666.49400000047,
      "d": 333.33300000001327,
      "v": 92
    },
    {
      "midi": 43,
      "hit": false,
      "t": 172999.82700000048,
      "d": 333.33300000001327,
      "v": 84
    },
    {
      "midi": 62,
      "hit": false,
      "t": 173333.1600000004,
      "d": 333.33300000001327,
      "v": 78
    },
    {
      "midi": 65,
      "hit": false,
      "t": 173333.1600000004,
      "d": 333.33300000001327,
      "v": 74
    },
    {
      "midi": 69,
      "hit": false,
      "t": 173333.1600000004,
      "d": 333.33300000001327,
      "v": 76
    },
    {
      "midi": 38,
      "hit": false,
      "t": 173333.1600000005,
      "d": 666.6659999999974,
      "v": 82
    },
    {
      "midi": 50,
      "hit": false,
      "t": 173333.1600000005,
      "d": 666.6659999999974,
      "v": 89
    },
    {
      "midi": 69,
      "hit": false,
      "t": 173666.49300000042,
      "d": 333.33300000001327,
      "v": 82
    },
    {
      "midi": 69,
      "hit": false,
      "t": 173999.82600000044,
      "d": 333.33300000001327,
      "v": 84
    },
    {
      "midi": 38,
      "hit": false,
      "t": 173999.8260000005,
      "d": 666.6659999999974,
      "v": 97
    },
    {
      "midi": 50,
      "hit": false,
      "t": 173999.8260000005,
      "d": 666.6659999999974,
      "v": 101
    },
    {
      "midi": 69,
      "hit": false,
      "t": 174333.15900000045,
      "d": 333.33300000001327,
      "v": 84
    },
    {
      "midi": 69,
      "hit": false,
      "t": 174666.49200000046,
      "d": 333.33300000001327,
      "v": 84
    },
    {
      "midi": 38,
      "hit": false,
      "t": 174666.4920000005,
      "d": 666.6659999999974,
      "v": 92
    },
    {
      "midi": 50,
      "hit": false,
      "t": 174666.4920000005,
      "d": 666.6659999999974,
      "v": 92
    },
    {
      "midi": 67,
      "hit": false,
      "t": 174999.82500000048,
      "d": 333.33300000001327,
      "v": 87
    },
    {
      "midi": 65,
      "hit": false,
      "t": 175333.1580000005,
      "d": 333.33300000001327,
      "v": 95
    },
    {
      "midi": 50,
      "hit": false,
      "t": 175333.1580000005,
      "d": 333.33300000001327,
      "v": 92
    },
    {
      "midi": 59,
      "hit": false,
      "t": 175666.4910000005,
      "d": 333.33300000001327,
      "v": 71
    },
    {
      "midi": 62,
      "hit": false,
      "t": 175666.4910000005,
      "d": 333.33300000001327,
      "v": 95
    },
    {
      "midi": 67,
      "hit": false,
      "t": 175666.4910000005,
      "d": 333.33300000001327,
      "v": 95
    },
    {
      "midi": 38,
      "hit": false,
      "t": 175666.4910000005,
      "d": 333.33300000001327,
      "v": 76
    },
    {
      "midi": 43,
      "hit": false,
      "t": 175999.82400000052,
      "d": 666.6659999999974,
      "v": 95
    },
    {
      "midi": 50,
      "hit": false,
      "t": 175999.82400000052,
      "d": 666.6659999999974,
      "v": 87
    },
    {
      "midi": 69,
      "hit": false,
      "t": 176166.4905000005,
      "d": 166.66649999999208,
      "v": 72
    },
    {
      "midi": 71,
      "hit": false,
      "t": 176333.1570000005,
      "d": 1999.9979999999923,
      "v": 113
    },
    {
      "midi": 43,
      "hit": false,
      "t": 176666.49000000051,
      "d": 666.6659999999974,
      "v": 108
    },
    {
      "midi": 50,
      "hit": false,
      "t": 176666.49000000051,
      "d": 666.6659999999974,
      "v": 95
    },
    {
      "midi": 43,
      "hit": false,
      "t": 177333.1560000005,
      "d": 666.6659999999974,
      "v": 104
    },
    {
      "midi": 50,
      "hit": false,
      "t": 177333.1560000005,
      "d": 666.6659999999974,
      "v": 89
    },
    {
      "midi": 50,
      "hit": false,
      "t": 177999.8220000005,
      "d": 333.33300000001327,
      "v": 95
    },
    {
      "midi": 43,
      "hit": false,
      "t": 178333.15500000052,
      "d": 333.33300000001327,
      "v": 78
    },
    {
      "midi": 62,
      "hit": false,
      "t": 178666.4880000005,
      "d": 333.33300000001327,
      "v": 76
    },
    {
      "midi": 65,
      "hit": false,
      "t": 178666.4880000005,
      "d": 333.33300000001327,
      "v": 82
    },
    {
      "midi": 69,
      "hit": false,
      "t": 178666.4880000005,
      "d": 333.33300000001327,
      "v": 68
    },
    {
      "midi": 38,
      "hit": false,
      "t": 178666.48800000054,
      "d": 666.6659999999974,
      "v": 74
    },
    {
      "midi": 50,
      "hit": false,
      "t": 178666.48800000054,
      "d": 666.6659999999974,
      "v": 84
    },
    {
      "midi": 69,
      "hit": false,
      "t": 178999.82100000052,
      "d": 333.33300000001327,
      "v": 80
    },
    {
      "midi": 69,
      "hit": false,
      "t": 179333.15400000053,
      "d": 333.33300000001327,
      "v": 84
    },
    {
      "midi": 38,
      "hit": false,
      "t": 179333.15400000053,
      "d": 666.6659999999974,
      "v": 108
    },
    {
      "midi": 50,
      "hit": false,
      "t": 179333.15400000053,
      "d": 666.6659999999974,
      "v": 113
    },
    {
      "midi": 69,
      "hit": false,
      "t": 179666.48700000055,
      "d": 333.33300000001327,
      "v": 80
    },
    {
      "midi": 38,
      "hit": false,
      "t": 179999.82000000053,
      "d": 666.6659999999974,
      "v": 97
    },
    {
      "midi": 50,
      "hit": false,
      "t": 179999.82000000053,
      "d": 666.6659999999974,
      "v": 101
    },
    {
      "midi": 69,
      "hit": false,
      "t": 179999.82000000056,
      "d": 333.33300000001327,
      "v": 82
    },
    {
      "midi": 71,
      "hit": false,
      "t": 180333.15300000057,
      "d": 333.33300000001327,
      "v": 67
    },
    {
      "midi": 50,
      "hit": false,
      "t": 180666.48600000053,
      "d": 333.33300000001327,
      "v": 101
    },
    {
      "midi": 72,
      "hit": false,
      "t": 180666.4860000006,
      "d": 333.33300000001327,
      "v": 76
    },
    {
      "midi": 38,
      "hit": false,
      "t": 180999.81900000054,
      "d": 333.33300000001327,
      "v": 84
    },
    {
      "midi": 62,
      "hit": false,
      "t": 180999.8190000006,
      "d": 333.33300000001327,
      "v": 68
    },
    {
      "midi": 67,
      "hit": false,
      "t": 180999.8190000006,
      "d": 333.33300000001327,
      "v": 84
    },
    {
      "midi": 71,
      "hit": false,
      "t": 180999.8190000006,
      "d": 333.33300000001327,
      "v": 76
    },
    {
      "midi": 43,
      "hit": false,
      "t": 181333.15200000055,
      "d": 666.6659999999974,
      "v": 97
    },
    {
      "midi": 50,
      "hit": false,
      "t": 181333.15200000055,
      "d": 666.6659999999974,
      "v": 87
    },
    {
      "midi": 50,
      "hit": false,
      "t": 181999.81800000055,
      "d": 333.33300000001327,
      "v": 87
    },
    {
      "midi": 43,
      "hit": false,
      "t": 182333.15100000057,
      "d": 333.33300000001327,
      "v": 72
    },
    {
      "midi": 38,
      "hit": false,
      "t": 182666.48400000058,
      "d": 666.6659999999974,
      "v": 80
    },
    {
      "midi": 50,
      "hit": false,
      "t": 182666.48400000058,
      "d": 666.6659999999974,
      "v": 92
    },
    {
      "midi": 62,
      "hit": false,
      "t": 182666.4840000006,
      "d": 333.33300000001327,
      "v": 76
    },
    {
      "midi": 65,
      "hit": false,
      "t": 182666.4840000006,
      "d": 333.33300000001327,
      "v": 76
    },
    {
      "midi": 69,
      "hit": false,
      "t": 182666.4840000006,
      "d": 333.33300000001327,
      "v": 101
    },
    {
      "midi": 71,
      "hit": false,
      "t": 182999.81700000062,
      "d": 333.33300000001327,
      "v": 92
    },
    {
      "midi": 50,
      "hit": false,
      "t": 183333.15000000058,
      "d": 333.33300000001327,
      "v": 84
    },
    {
      "midi": 72,
      "hit": false,
      "t": 183333.15000000063,
      "d": 333.33300000001327,
      "v": 92
    },
    {
      "midi": 38,
      "hit": false,
      "t": 183666.4830000006,
      "d": 333.33300000001327,
      "v": 82
    },
    {
      "midi": 62,
      "hit": false,
      "t": 183666.48300000065,
      "d": 333.33300000001327,
      "v": 80
    },
    {
      "midi": 67,
      "hit": false,
      "t": 183666.48300000065,
      "d": 333.33300000001327,
      "v": 89
    },
    {
      "midi": 71,
      "hit": false,
      "t": 183666.48300000065,
      "d": 333.33300000001327,
      "v": 87
    },
    {
      "midi": 43,
      "hit": false,
      "t": 183999.8160000006,
      "d": 666.6659999999974,
      "v": 87
    },
    {
      "midi": 50,
      "hit": false,
      "t": 183999.8160000006,
      "d": 666.6659999999974,
      "v": 89
    },
    {
      "midi": 50,
      "hit": false,
      "t": 184666.4820000006,
      "d": 333.33300000001327,
      "v": 87
    },
    {
      "midi": 43,
      "hit": false,
      "t": 184999.8150000006,
      "d": 333.33300000001327,
      "v": 82
    },
    {
      "midi": 38,
      "hit": false,
      "t": 185333.14800000063,
      "d": 666.6659999999974,
      "v": 82
    },
    {
      "midi": 50,
      "hit": false,
      "t": 185333.14800000063,
      "d": 666.6659999999974,
      "v": 82
    },
    {
      "midi": 62,
      "hit": false,
      "t": 185333.14800000066,
      "d": 333.33300000001327,
      "v": 65
    },
    {
      "midi": 65,
      "hit": false,
      "t": 185333.14800000066,
      "d": 333.33300000001327,
      "v": 92
    },
    {
      "midi": 69,
      "hit": false,
      "t": 185333.14800000066,
      "d": 333.33300000001327,
      "v": 89
    },
    {
      "midi": 71,
      "hit": false,
      "t": 185666.48100000067,
      "d": 333.33300000001327,
      "v": 87
    },
    {
      "midi": 50,
      "hit": false,
      "t": 185999.81400000062,
      "d": 333.33300000001327,
      "v": 92
    },
    {
      "midi": 72,
      "hit": false,
      "t": 185999.81400000068,
      "d": 333.33300000001327,
      "v": 97
    },
    {
      "midi": 38,
      "hit": false,
      "t": 186333.14700000064,
      "d": 333.33300000001327,
      "v": 89
    },
    {
      "midi": 67,
      "hit": false,
      "t": 186333.1470000007,
      "d": 333.33300000001327,
      "v": 74
    },
    {
      "midi": 71,
      "hit": false,
      "t": 186333.1470000007,
      "d": 333.33300000001327,
      "v": 61
    },
    {
      "midi": 74,
      "hit": false,
      "t": 186333.1470000007,
      "d": 333.33300000001327,
      "v": 87
    },
    {
      "midi": 43,
      "hit": false,
      "t": 186666.48000000065,
      "d": 666.6659999999974,
      "v": 97
    },
    {
      "midi": 50,
      "hit": false,
      "t": 186666.48000000065,
      "d": 666.6659999999974,
      "v": 89
    },
    {
      "midi": 43,
      "hit": false,
      "t": 187333.14600000065,
      "d": 666.6659999999974,
      "v": 108
    },
    {
      "midi": 50,
      "hit": false,
      "t": 187333.14600000065,
      "d": 666.6659999999974,
      "v": 101
    },
    {
      "midi": 43,
      "hit": false,
      "t": 187999.81200000065,
      "d": 666.6659999999974,
      "v": 101
    },
    {
      "midi": 50,
      "hit": false,
      "t": 187999.81200000065,
      "d": 666.6659999999974,
      "v": 97
    },
    {
      "midi": 43,
      "hit": false,
      "t": 188666.47800000064,
      "d": 666.6659999999974,
      "v": 97
    },
    {
      "midi": 50,
      "hit": false,
      "t": 188666.47800000064,
      "d": 666.6659999999974,
      "v": 95
    },
    {
      "midi": 38,
      "hit": false,
      "t": 189333.14400000064,
      "d": 333.33300000001327,
      "v": 72
    },
    {
      "midi": 50,
      "hit": false,
      "t": 189333.14400000064,
      "d": 333.33300000001327,
      "v": 68
    },
    {
      "midi": 62,
      "hit": false,
      "t": 189333.1440000007,
      "d": 499.99950000000536,
      "v": 69
    },
    {
      "midi": 69,
      "hit": false,
      "t": 189333.1440000007,
      "d": 499.99950000000536,
      "v": 89
    },
    {
      "midi": 74,
      "hit": false,
      "t": 189333.1440000007,
      "d": 499.99950000000536,
      "v": 95
    },
    {
      "midi": 38,
      "hit": false,
      "t": 189666.47700000065,
      "d": 333.33300000001327,
      "v": 63
    },
    {
      "midi": 50,
      "hit": false,
      "t": 189666.47700000065,
      "d": 333.33300000001327,
      "v": 84
    },
    {
      "midi": 62,
      "hit": false,
      "t": 189833.1435000007,
      "d": 499.99950000000536,
      "v": 92
    },
    {
      "midi": 69,
      "hit": false,
      "t": 189833.1435000007,
      "d": 499.99950000000536,
      "v": 101
    },
    {
      "midi": 38,
      "hit": false,
      "t": 189999.81000000067,
      "d": 333.33300000001327,
      "v": 72
    },
    {
      "midi": 50,
      "hit": false,
      "t": 189999.81000000067,
      "d": 333.33300000001327,
      "v": 92
    },
    {
      "midi": 38,
      "hit": false,
      "t": 190333.14300000068,
      "d": 333.33300000001327,
      "v": 76
    },
    {
      "midi": 50,
      "hit": false,
      "t": 190333.14300000068,
      "d": 333.33300000001327,
      "v": 89
    },
    {
      "midi": 62,
      "hit": false,
      "t": 190333.1430000007,
      "d": 1333.3319999999949,
      "v": 101
    },
    {
      "midi": 69,
      "hit": false,
      "t": 190333.1430000007,
      "d": 1333.3319999999949,
      "v": 89
    },
    {
      "midi": 38,
      "hit": false,
      "t": 190666.4760000007,
      "d": 333.33300000001327,
      "v": 84
    },
    {
      "midi": 50,
      "hit": false,
      "t": 190666.4760000007,
      "d": 333.33300000001327,
      "v": 92
    },
    {
      "midi": 38,
      "hit": false,
      "t": 190999.8090000007,
      "d": 333.33300000001327,
      "v": 78
    },
    {
      "midi": 50,
      "hit": false,
      "t": 190999.8090000007,
      "d": 333.33300000001327,
      "v": 92
    },
    {
      "midi": 45,
      "hit": false,
      "t": 191333.14200000072,
      "d": 333.33300000001327,
      "v": 92
    },
    {
      "midi": 48,
      "hit": false,
      "t": 191666.47500000073,
      "d": 333.33300000001327,
      "v": 92
    },
    {
      "midi": 65,
      "hit": false,
      "t": 191999.80800000072,
      "d": 666.6659999999974,
      "v": 78
    },
    {
      "midi": 69,
      "hit": false,
      "t": 191999.80800000072,
      "d": 666.6659999999974,
      "v": 89
    },
    {
      "midi": 72,
      "hit": false,
      "t": 191999.80800000072,
      "d": 666.6659999999974,
      "v": 87
    },
    {
      "midi": 74,
      "hit": false,
      "t": 191999.80800000072,
      "d": 666.6659999999974,
      "v": 95
    },
    {
      "midi": 38,
      "hit": false,
      "t": 191999.80800000075,
      "d": 333.33300000001327,
      "v": 78
    },
    {
      "midi": 50,
      "hit": false,
      "t": 191999.80800000075,
      "d": 333.33300000001327,
      "v": 92
    },
    {
      "midi": 50,
      "hit": false,
      "t": 192333.14100000076,
      "d": 333.33300000001327,
      "v": 92
    },
    {
      "midi": 72,
      "hit": false,
      "t": 192666.47400000072,
      "d": 333.33300000001327,
      "v": 82
    },
    {
      "midi": 38,
      "hit": false,
      "t": 192666.47400000077,
      "d": 333.33300000001327,
      "v": 92
    },
    {
      "midi": 50,
      "hit": false,
      "t": 192666.47400000077,
      "d": 333.33300000001327,
      "v": 97
    },
    {
      "midi": 69,
      "hit": false,
      "t": 192999.80700000073,
      "d": 333.33300000001327,
      "v": 82
    },
    {
      "midi": 50,
      "hit": false,
      "t": 192999.8070000008,
      "d": 333.33300000001327,
      "v": 92
    },
    {
      "midi": 72,
      "hit": false,
      "t": 193333.14000000074,
      "d": 666.6659999999974,
      "v": 92
    },
    {
      "midi": 38,
      "hit": false,
      "t": 193333.1400000008,
      "d": 333.33300000001327,
      "v": 87
    },
    {
      "midi": 50,
      "hit": false,
      "t": 193333.1400000008,
      "d": 333.33300000001327,
      "v": 101
    },
    {
      "midi": 50,
      "hit": false,
      "t": 193666.4730000008,
      "d": 333.33300000001327,
      "v": 89
    },
    {
      "midi": 69,
      "hit": false,
      "t": 193999.80600000074,
      "d": 333.33300000001327,
      "v": 95
    },
    {
      "midi": 38,
      "hit": false,
      "t": 193999.80600000083,
      "d": 333.33300000001327,
      "v": 84
    },
    {
      "midi": 50,
      "hit": false,
      "t": 193999.80600000083,
      "d": 333.33300000001327,
      "v": 97
    },
    {
      "midi": 58,
      "hit": false,
      "t": 194333.13900000075,
      "d": 333.33300000001327,
      "v": 53
    },
    {
      "midi": 62,
      "hit": false,
      "t": 194333.13900000075,
      "d": 333.33300000001327,
      "v": 97
    },
    {
      "midi": 65,
      "hit": false,
      "t": 194333.13900000075,
      "d": 333.33300000001327,
      "v": 95
    },
    {
      "midi": 67,
      "hit": false,
      "t": 194333.13900000075,
      "d": 333.33300000001327,
      "v": 101
    },
    {
      "midi": 50,
      "hit": false,
      "t": 194333.13900000084,
      "d": 333.33300000001327,
      "v": 95
    },
    {
      "midi": 31,
      "hit": false,
      "t": 194666.47200000085,
      "d": 333.33300000001327,
      "v": 89
    },
    {
      "midi": 43,
      "hit": false,
      "t": 194666.47200000085,
      "d": 333.33300000001327,
      "v": 78
    },
    {
      "midi": 43,
      "hit": false,
      "t": 194999.80500000087,
      "d": 333.33300000001327,
      "v": 87
    },
    {
      "midi": 31,
      "hit": false,
      "t": 195333.13800000088,
      "d": 333.33300000001327,
      "v": 66
    },
    {
      "midi": 43,
      "hit": false,
      "t": 195333.13800000088,
      "d": 333.33300000001327,
      "v": 89
    },
    {
      "midi": 43,
      "hit": false,
      "t": 195666.4710000009,
      "d": 333.33300000001327,
      "v": 72
    },
    {
      "midi": 69,
      "hit": false,
      "t": 195999.80400000076,
      "d": 166.66649999999208,
      "v": 82
    },
    {
      "midi": 31,
      "hit": false,
      "t": 195999.8040000009,
      "d": 333.33300000001327,
      "v": 68
    },
    {
      "midi": 43,
      "hit": false,
      "t": 195999.8040000009,
      "d": 333.33300000001327,
      "v": 87
    },
    {
      "midi": 72,
      "hit": false,
      "t": 196166.47050000075,
      "d": 499.99950000000536,
      "v": 78
    },
    {
      "midi": 43,
      "hit": false,
      "t": 196333.13700000092,
      "d": 333.33300000001327,
      "v": 74
    },
    {
      "midi": 72,
      "hit": false,
      "t": 196666.47000000076,
      "d": 333.33300000001327,
      "v": 92
    },
    {
      "midi": 31,
      "hit": false,
      "t": 196666.47000000093,
      "d": 333.33300000001327,
      "v": 65
    },
    {
      "midi": 43,
      "hit": false,
      "t": 196666.47000000093,
      "d": 333.33300000001327,
      "v": 80
    },
    {
      "midi": 69,
      "hit": false,
      "t": 196999.80300000077,
      "d": 166.66649999999208,
      "v": 87
    },
    {
      "midi": 43,
      "hit": false,
      "t": 196999.80300000095,
      "d": 333.33300000001327,
      "v": 72
    },
    {
      "midi": 64,
      "hit": false,
      "t": 197166.46950000076,
      "d": 166.66649999999208,
      "v": 87
    },
    {
      "midi": 65,
      "hit": false,
      "t": 197166.46950000076,
      "d": 166.66649999999208,
      "v": 97
    },
    {
      "midi": 69,
      "hit": false,
      "t": 197166.46950000076,
      "d": 166.66649999999208,
      "v": 97
    },
    {
      "midi": 72,
      "hit": false,
      "t": 197166.46950000076,
      "d": 166.66649999999208,
      "v": 101
    },
    {
      "midi": 29,
      "hit": false,
      "t": 197333.13600000096,
      "d": 333.33300000001327,
      "v": 72
    },
    {
      "midi": 41,
      "hit": false,
      "t": 197333.13600000096,
      "d": 333.33300000001327,
      "v": 89
    },
    {
      "midi": 74,
      "hit": false,
      "t": 197666.46900000077,
      "d": 499.99950000000536,
      "v": 97
    },
    {
      "midi": 41,
      "hit": false,
      "t": 197666.46900000097,
      "d": 333.33300000001327,
      "v": 65
    },
    {
      "midi": 29,
      "hit": false,
      "t": 197999.802000001,
      "d": 333.33300000001327,
      "v": 55
    },
    {
      "midi": 41,
      "hit": false,
      "t": 197999.802000001,
      "d": 333.33300000001327,
      "v": 82
    },
    {
      "midi": 60,
      "hit": false,
      "t": 198166.46850000077,
      "d": 499.99950000000536,
      "v": 89
    },
    {
      "midi": 64,
      "hit": false,
      "t": 198166.46850000077,
      "d": 499.99950000000536,
      "v": 84
    },
    {
      "midi": 65,
      "hit": false,
      "t": 198166.46850000077,
      "d": 499.99950000000536,
      "v": 108
    },
    {
      "midi": 69,
      "hit": false,
      "t": 198166.46850000077,
      "d": 499.99950000000536,
      "v": 104
    },
    {
      "midi": 41,
      "hit": false,
      "t": 198333.135000001,
      "d": 333.33300000001327,
      "v": 71
    },
    {
      "midi": 60,
      "hit": false,
      "t": 198666.46800000078,
      "d": 1333.3319999999949,
      "v": 72
    },
    {
      "midi": 64,
      "hit": false,
      "t": 198666.46800000078,
      "d": 1333.3319999999949,
      "v": 80
    },
    {
      "midi": 65,
      "hit": false,
      "t": 198666.46800000078,
      "d": 1333.3319999999949,
      "v": 95
    },
    {
      "midi": 69,
      "hit": false,
      "t": 198666.46800000078,
      "d": 1333.3319999999949,
      "v": 92
    },
    {
      "midi": 29,
      "hit": false,
      "t": 198666.468000001,
      "d": 333.33300000001327,
      "v": 66
    },
    {
      "midi": 41,
      "hit": false,
      "t": 198666.468000001,
      "d": 333.33300000001327,
      "v": 74
    },
    {
      "midi": 41,
      "hit": false,
      "t": 198999.80100000103,
      "d": 333.33300000001327,
      "v": 74
    },
    {
      "midi": 29,
      "hit": false,
      "t": 199333.13400000104,
      "d": 333.33300000001327,
      "v": 65
    },
    {
      "midi": 41,
      "hit": false,
      "t": 199333.13400000104,
      "d": 333.33300000001327,
      "v": 80
    },
    {
      "midi": 41,
      "hit": false,
      "t": 199666.46700000105,
      "d": 333.33300000001327,
      "v": 82
    },
    {
      "midi": 31,
      "hit": false,
      "t": 199999.80000000107,
      "d": 333.33300000001327,
      "v": 53
    },
    {
      "midi": 43,
      "hit": false,
      "t": 199999.80000000107,
      "d": 333.33300000001327,
      "v": 80
    },
    {
      "midi": 58,
      "hit": false,
      "t": 200333.1330000008,
      "d": 499.99950000000536,
      "v": 81
    },
    {
      "midi": 62,
      "hit": false,
      "t": 200333.1330000008,
      "d": 499.99950000000536,
      "v": 108
    },
    {
      "midi": 65,
      "hit": false,
      "t": 200333.1330000008,
      "d": 499.99950000000536,
      "v": 101
    },
    {
      "midi": 67,
      "hit": false,
      "t": 200333.1330000008,
      "d": 499.99950000000536,
      "v": 113
    },
    {
      "midi": 43,
      "hit": false,
      "t": 200333.13300000108,
      "d": 333.33300000001327,
      "v": 84
    },
    {
      "midi": 31,
      "hit": false,
      "t": 200666.4660000011,
      "d": 333.33300000001327,
      "v": 67
    },
    {
      "midi": 43,
      "hit": false,
      "t": 200666.4660000011,
      "d": 333.33300000001327,
      "v": 97
    },
    {
      "midi": 58,
      "hit": false,
      "t": 200833.1325000008,
      "d": 499.99950000000536,
      "v": 74
    },
    {
      "midi": 62,
      "hit": false,
      "t": 200833.1325000008,
      "d": 499.99950000000536,
      "v": 108
    },
    {
      "midi": 65,
      "hit": false,
      "t": 200833.1325000008,
      "d": 499.99950000000536,
      "v": 104
    },
    {
      "midi": 67,
      "hit": false,
      "t": 200833.1325000008,
      "d": 499.99950000000536,
      "v": 113
    },
    {
      "midi": 43,
      "hit": false,
      "t": 200999.7990000011,
      "d": 333.33300000001327,
      "v": 78
    },
    {
      "midi": 58,
      "hit": false,
      "t": 201333.1320000008,
      "d": 666.6659999999974,
      "v": 81
    },
    {
      "midi": 62,
      "hit": false,
      "t": 201333.1320000008,
      "d": 666.6659999999974,
      "v": 108
    },
    {
      "midi": 65,
      "hit": false,
      "t": 201333.1320000008,
      "d": 666.6659999999974,
      "v": 104
    },
    {
      "midi": 67,
      "hit": false,
      "t": 201333.1320000008,
      "d": 666.6659999999974,
      "v": 117
    },
    {
      "midi": 31,
      "hit": false,
      "t": 201333.13200000112,
      "d": 333.33300000001327,
      "v": 71
    },
    {
      "midi": 43,
      "hit": false,
      "t": 201333.13200000112,
      "d": 333.33300000001327,
      "v": 92
    },
    {
      "midi": 43,
      "hit": false,
      "t": 201666.46500000113,
      "d": 333.33300000001327,
      "v": 95
    },
    {
      "midi": 69,
      "hit": false,
      "t": 201999.7980000008,
      "d": 166.66649999999208,
      "v": 95
    },
    {
      "midi": 31,
      "hit": false,
      "t": 201999.79800000114,
      "d": 333.33300000001327,
      "v": 62
    },
    {
      "midi": 43,
      "hit": false,
      "t": 201999.79800000114,
      "d": 333.33300000001327,
      "v": 92
    },
    {
      "midi": 69,
      "hit": false,
      "t": 202166.4645000008,
      "d": 166.66649999999208,
      "v": 92
    },
    {
      "midi": 72,
      "hit": false,
      "t": 202333.13100000078,
      "d": 333.33300000001327,
      "v": 92
    },
    {
      "midi": 43,
      "hit": false,
      "t": 202333.13100000116,
      "d": 333.33300000001327,
      "v": 89
    },
    {
      "midi": 65,
      "hit": false,
      "t": 202666.4640000008,
      "d": 666.6659999999974,
      "v": 68
    },
    {
      "midi": 69,
      "hit": false,
      "t": 202666.4640000008,
      "d": 666.6659999999974,
      "v": 95
    },
    {
      "midi": 72,
      "hit": false,
      "t": 202666.4640000008,
      "d": 666.6659999999974,
      "v": 80
    },
    {
      "midi": 74,
      "hit": false,
      "t": 202666.4640000008,
      "d": 666.6659999999974,
      "v": 67
    },
    {
      "midi": 38,
      "hit": false,
      "t": 202666.46400000117,
      "d": 333.33300000001327,
      "v": 74
    },
    {
      "midi": 50,
      "hit": false,
      "t": 202666.46400000117,
      "d": 333.33300000001327,
      "v": 82
    },
    {
      "midi": 50,
      "hit": false,
      "t": 202999.79700000118,
      "d": 333.33300000001327,
      "v": 92
    },
    {
      "midi": 72,
      "hit": false,
      "t": 203333.1300000008,
      "d": 333.33300000001327,
      "v": 71
    },
    {
      "midi": 38,
      "hit": false,
      "t": 203333.1300000012,
      "d": 333.33300000001327,
      "v": 84
    },
    {
      "midi": 50,
      "hit": false,
      "t": 203333.1300000012,
      "d": 333.33300000001327,
      "v": 101
    },
    {
      "midi": 69,
      "hit": false,
      "t": 203666.4630000008,
      "d": 333.33300000001327,
      "v": 92
    },
    {
      "midi": 50,
      "hit": false,
      "t": 203666.4630000012,
      "d": 333.33300000001327,
      "v": 95
    },
    {
      "midi": 72,
      "hit": false,
      "t": 203999.79600000082,
      "d": 666.6659999999974,
      "v": 95
    },
    {
      "midi": 38,
      "hit": false,
      "t": 203999.79600000122,
      "d": 333.33300000001327,
      "v": 78
    },
    {
      "midi": 50,
      "hit": false,
      "t": 203999.79600000122,
      "d": 333.33300000001327,
      "v": 95
    },
    {
      "midi": 50,
      "hit": false,
      "t": 204333.12900000124,
      "d": 333.33300000001327,
      "v": 92
    },
    {
      "midi": 69,
      "hit": false,
      "t": 204666.4620000008,
      "d": 333.33300000001327,
      "v": 101
    },
    {
      "midi": 38,
      "hit": false,
      "t": 204666.46200000125,
      "d": 333.33300000001327,
      "v": 80
    },
    {
      "midi": 50,
      "hit": false,
      "t": 204666.46200000125,
      "d": 333.33300000001327,
      "v": 95
    },
    {
      "midi": 58,
      "hit": false,
      "t": 204999.79500000083,
      "d": 333.33300000001327,
      "v": 81
    },
    {
      "midi": 62,
      "hit": false,
      "t": 204999.79500000083,
      "d": 333.33300000001327,
      "v": 89
    },
    {
      "midi": 65,
      "hit": false,
      "t": 204999.79500000083,
      "d": 333.33300000001327,
      "v": 76
    },
    {
      "midi": 67,
      "hit": false,
      "t": 204999.79500000083,
      "d": 333.33300000001327,
      "v": 104
    },
    {
      "midi": 50,
      "hit": false,
      "t": 204999.79500000126,
      "d": 333.33300000001327,
      "v": 92
    },
    {
      "midi": 31,
      "hit": false,
      "t": 205333.12800000128,
      "d": 333.33300000001327,
      "v": 78
    },
    {
      "midi": 43,
      "hit": false,
      "t": 205333.12800000128,
      "d": 333.33300000001327,
      "v": 74
    },
    {
      "midi": 43,
      "hit": false,
      "t": 205666.4610000013,
      "d": 333.33300000001327,
      "v": 71
    },
    {
      "midi": 31,
      "hit": false,
      "t": 205999.7940000013,
      "d": 333.33300000001327,
      "v": 69
    },
    {
      "midi": 43,
      "hit": false,
      "t": 205999.7940000013,
      "d": 333.33300000001327,
      "v": 82
    },
    {
      "midi": 43,
      "hit": false,
      "t": 206333.12700000132,
      "d": 333.33300000001327,
      "v": 80
    },
    {
      "midi": 69,
      "hit": false,
      "t": 206666.46000000084,
      "d": 166.66649999999208,
      "v": 122
    },
    {
      "midi": 31,
      "hit": false,
      "t": 206666.46000000133,
      "d": 333.33300000001327,
      "v": 78
    },
    {
      "midi": 43,
      "hit": false,
      "t": 206666.46000000133,
      "d": 333.33300000001327,
      "v": 95
    },
    {
      "midi": 72,
      "hit": false,
      "t": 206833.12650000083,
      "d": 499.99950000000536,
      "v": 89
    },
    {
      "midi": 43,
      "hit": false,
      "t": 206999.79300000134,
      "d": 333.33300000001327,
      "v": 72
    },
    {
      "midi": 72,
      "hit": false,
      "t": 207333.12600000083,
      "d": 333.33300000001327,
      "v": 97
    },
    {
      "midi": 31,
      "hit": false,
      "t": 207333.12600000136,
      "d": 333.33300000001327,
      "v": 66
    },
    {
      "midi": 43,
      "hit": false,
      "t": 207333.12600000136,
      "d": 333.33300000001327,
      "v": 92
    },
    {
      "midi": 69,
      "hit": false,
      "t": 207666.45900000085,
      "d": 166.66649999999208,
      "v": 92
    },
    {
      "midi": 43,
      "hit": false,
      "t": 207666.45900000137,
      "d": 333.33300000001327,
      "v": 72
    },
    {
      "midi": 64,
      "hit": false,
      "t": 207833.12550000084,
      "d": 166.66649999999208,
      "v": 87
    },
    {
      "midi": 65,
      "hit": false,
      "t": 207833.12550000084,
      "d": 166.66649999999208,
      "v": 42
    },
    {
      "midi": 69,
      "hit": false,
      "t": 207833.12550000084,
      "d": 166.66649999999208,
      "v": 68
    },
    {
      "midi": 72,
      "hit": false,
      "t": 207833.12550000084,
      "d": 166.66649999999208,
      "v": 101
    },
    {
      "midi": 29,
      "hit": false,
      "t": 207999.79200000138,
      "d": 333.33300000001327,
      "v": 76
    },
    {
      "midi": 41,
      "hit": false,
      "t": 207999.79200000138,
      "d": 333.33300000001327,
      "v": 84
    },
    {
      "midi": 74,
      "hit": false,
      "t": 208333.12500000084,
      "d": 499.99950000000536,
      "v": 89
    },
    {
      "midi": 41,
      "hit": false,
      "t": 208333.1250000014,
      "d": 333.33300000001327,
      "v": 71
    },
    {
      "midi": 29,
      "hit": false,
      "t": 208666.4580000014,
      "d": 333.33300000001327,
      "v": 66
    },
    {
      "midi": 41,
      "hit": false,
      "t": 208666.4580000014,
      "d": 333.33300000001327,
      "v": 82
    },
    {
      "midi": 60,
      "hit": false,
      "t": 208833.12450000085,
      "d": 499.99950000000536,
      "v": 72
    },
    {
      "midi": 64,
      "hit": false,
      "t": 208833.12450000085,
      "d": 499.99950000000536,
      "v": 89
    },
    {
      "midi": 65,
      "hit": false,
      "t": 208833.12450000085,
      "d": 499.99950000000536,
      "v": 92
    },
    {
      "midi": 69,
      "hit": false,
      "t": 208833.12450000085,
      "d": 499.99950000000536,
      "v": 82
    },
    {
      "midi": 41,
      "hit": false,
      "t": 208999.79100000142,
      "d": 333.33300000001327,
      "v": 72
    },
    {
      "midi": 60,
      "hit": false,
      "t": 209333.12400000085,
      "d": 1333.3319999999949,
      "v": 87
    },
    {
      "midi": 64,
      "hit": false,
      "t": 209333.12400000085,
      "d": 1333.3319999999949,
      "v": 92
    },
    {
      "midi": 65,
      "hit": false,
      "t": 209333.12400000085,
      "d": 1333.3319999999949,
      "v": 92
    },
    {
      "midi": 69,
      "hit": false,
      "t": 209333.12400000085,
      "d": 1333.3319999999949,
      "v": 101
    },
    {
      "midi": 29,
      "hit": false,
      "t": 209333.12400000144,
      "d": 333.33300000001327,
      "v": 71
    },
    {
      "midi": 41,
      "hit": false,
      "t": 209333.12400000144,
      "d": 333.33300000001327,
      "v": 74
    },
    {
      "midi": 41,
      "hit": false,
      "t": 209666.45700000145,
      "d": 333.33300000001327,
      "v": 72
    },
    {
      "midi": 29,
      "hit": false,
      "t": 209999.79000000146,
      "d": 333.33300000001327,
      "v": 69
    },
    {
      "midi": 41,
      "hit": false,
      "t": 209999.79000000146,
      "d": 333.33300000001327,
      "v": 87
    },
    {
      "midi": 41,
      "hit": false,
      "t": 210333.12300000148,
      "d": 333.33300000001327,
      "v": 78
    },
    {
      "midi": 31,
      "hit": false,
      "t": 210666.4560000015,
      "d": 333.33300000001327,
      "v": 72
    },
    {
      "midi": 43,
      "hit": false,
      "t": 210666.4560000015,
      "d": 333.33300000001327,
      "v": 95
    },
    {
      "midi": 58,
      "hit": false,
      "t": 210999.78900000086,
      "d": 499.99950000000536,
      "v": 84
    },
    {
      "midi": 62,
      "hit": false,
      "t": 210999.78900000086,
      "d": 499.99950000000536,
      "v": 101
    },
    {
      "midi": 65,
      "hit": false,
      "t": 210999.78900000086,
      "d": 499.99950000000536,
      "v": 87
    },
    {
      "midi": 67,
      "hit": false,
      "t": 210999.78900000086,
      "d": 499.99950000000536,
      "v": 108
    },
    {
      "midi": 43,
      "hit": false,
      "t": 210999.7890000015,
      "d": 333.33300000001327,
      "v": 84
    },
    {
      "midi": 31,
      "hit": false,
      "t": 211333.12200000152,
      "d": 333.33300000001327,
      "v": 71
    },
    {
      "midi": 43,
      "hit": false,
      "t": 211333.12200000152,
      "d": 333.33300000001327,
      "v": 97
    },
    {
      "midi": 58,
      "hit": false,
      "t": 211499.78850000087,
      "d": 499.99950000000536,
      "v": 81
    },
    {
      "midi": 62,
      "hit": false,
      "t": 211499.78850000087,
      "d": 499.99950000000536,
      "v": 95
    },
    {
      "midi": 65,
      "hit": false,
      "t": 211499.78850000087,
      "d": 499.99950000000536,
      "v": 80
    },
    {
      "midi": 67,
      "hit": false,
      "t": 211499.78850000087,
      "d": 499.99950000000536,
      "v": 97
    },
    {
      "midi": 43,
      "hit": false,
      "t": 211666.45500000153,
      "d": 333.33300000001327,
      "v": 84
    },
    {
      "midi": 58,
      "hit": false,
      "t": 211999.78800000087,
      "d": 666.6659999999974,
      "v": 72
    },
    {
      "midi": 62,
      "hit": false,
      "t": 211999.78800000087,
      "d": 666.6659999999974,
      "v": 108
    },
    {
      "midi": 65,
      "hit": false,
      "t": 211999.78800000087,
      "d": 666.6659999999974,
      "v": 95
    },
    {
      "midi": 67,
      "hit": false,
      "t": 211999.78800000087,
      "d": 666.6659999999974,
      "v": 97
    },
    {
      "midi": 31,
      "hit": false,
      "t": 211999.78800000154,
      "d": 333.33300000001327,
      "v": 69
    },
    {
      "midi": 43,
      "hit": false,
      "t": 211999.78800000154,
      "d": 333.33300000001327,
      "v": 108
    },
    {
      "midi": 43,
      "hit": false,
      "t": 212333.12100000156,
      "d": 333.33300000001327,
      "v": 89
    },
    {
      "midi": 69,
      "hit": false,
      "t": 212666.45400000087,
      "d": 166.66649999999208,
      "v": 101
    },
    {
      "midi": 31,
      "hit": false,
      "t": 212666.45400000157,
      "d": 333.33300000001327,
      "v": 84
    },
    {
      "midi": 43,
      "hit": false,
      "t": 212666.45400000157,
      "d": 333.33300000001327,
      "v": 101
    },
    {
      "midi": 69,
      "hit": false,
      "t": 212833.12050000086,
      "d": 166.66649999999208,
      "v": 108
    },
    {
      "midi": 72,
      "hit": false,
      "t": 212999.78700000086,
      "d": 333.33300000001327,
      "v": 92
    },
    {
      "midi": 43,
      "hit": false,
      "t": 212999.78700000158,
      "d": 333.33300000001327,
      "v": 108
    },
    {
      "midi": 65,
      "hit": false,
      "t": 213333.12000000087,
      "d": 666.6659999999974,
      "v": 78
    },
    {
      "midi": 69,
      "hit": false,
      "t": 213333.12000000087,
      "d": 666.6659999999974,
      "v": 89
    },
    {
      "midi": 72,
      "hit": false,
      "t": 213333.12000000087,
      "d": 666.6659999999974,
      "v": 87
    },
    {
      "midi": 74,
      "hit": false,
      "t": 213333.12000000087,
      "d": 666.6659999999974,
      "v": 95
    },
    {
      "midi": 38,
      "hit": false,
      "t": 213333.1200000016,
      "d": 333.33300000001327,
      "v": 78
    },
    {
      "midi": 50,
      "hit": false,
      "t": 213333.1200000016,
      "d": 333.33300000001327,
      "v": 92
    },
    {
      "midi": 50,
      "hit": false,
      "t": 213666.4530000016,
      "d": 333.33300000001327,
      "v": 92
    },
    {
      "midi": 72,
      "hit": false,
      "t": 213999.78600000087,
      "d": 333.33300000001327,
      "v": 82
    },
    {
      "midi": 38,
      "hit": false,
      "t": 213999.78600000162,
      "d": 333.33300000001327,
      "v": 92
    },
    {
      "midi": 50,
      "hit": false,
      "t": 213999.78600000162,
      "d": 333.33300000001327,
      "v": 97
    },
    {
      "midi": 69,
      "hit": false,
      "t": 214333.11900000088,
      "d": 333.33300000001327,
      "v": 82
    },
    {
      "midi": 50,
      "hit": false,
      "t": 214333.11900000164,
      "d": 333.33300000001327,
      "v": 92
    },
    {
      "midi": 72,
      "hit": false,
      "t": 214666.4520000009,
      "d": 666.6659999999974,
      "v": 92
    },
    {
      "midi": 38,
      "hit": false,
      "t": 214666.45200000165,
      "d": 333.33300000001327,
      "v": 87
    },
    {
      "midi": 50,
      "hit": false,
      "t": 214666.45200000165,
      "d": 333.33300000001327,
      "v": 101
    },
    {
      "midi": 50,
      "hit": false,
      "t": 214999.78500000166,
      "d": 333.33300000001327,
      "v": 89
    },
    {
      "midi": 69,
      "hit": false,
      "t": 215333.1180000009,
      "d": 333.33300000001327,
      "v": 95
    },
    {
      "midi": 38,
      "hit": false,
      "t": 215333.11800000168,
      "d": 333.33300000001327,
      "v": 84
    },
    {
      "midi": 50,
      "hit": false,
      "t": 215333.11800000168,
      "d": 333.33300000001327,
      "v": 97
    },
    {
      "midi": 58,
      "hit": false,
      "t": 215666.4510000009,
      "d": 333.33300000001327,
      "v": 53
    },
    {
      "midi": 62,
      "hit": false,
      "t": 215666.4510000009,
      "d": 333.33300000001327,
      "v": 97
    },
    {
      "midi": 65,
      "hit": false,
      "t": 215666.4510000009,
      "d": 333.33300000001327,
      "v": 95
    },
    {
      "midi": 67,
      "hit": false,
      "t": 215666.4510000009,
      "d": 333.33300000001327,
      "v": 101
    },
    {
      "midi": 50,
      "hit": false,
      "t": 215666.4510000017,
      "d": 333.33300000001327,
      "v": 95
    },
    {
      "midi": 31,
      "hit": false,
      "t": 215999.7840000017,
      "d": 333.33300000001327,
      "v": 89
    },
    {
      "midi": 43,
      "hit": false,
      "t": 215999.7840000017,
      "d": 333.33300000001327,
      "v": 78
    },
    {
      "midi": 43,
      "hit": false,
      "t": 216333.11700000172,
      "d": 333.33300000001327,
      "v": 87
    },
    {
      "midi": 31,
      "hit": false,
      "t": 216666.45000000173,
      "d": 333.33300000001327,
      "v": 66
    },
    {
      "midi": 43,
      "hit": false,
      "t": 216666.45000000173,
      "d": 333.33300000001327,
      "v": 89
    },
    {
      "midi": 43,
      "hit": false,
      "t": 216999.78300000174,
      "d": 333.33300000001327,
      "v": 72
    },
    {
      "midi": 69,
      "hit": false,
      "t": 217333.1160000009,
      "d": 166.66649999999208,
      "v": 82
    },
    {
      "midi": 31,
      "hit": false,
      "t": 217333.11600000176,
      "d": 333.33300000001327,
      "v": 68
    },
    {
      "midi": 43,
      "hit": false,
      "t": 217333.11600000176,
      "d": 333.33300000001327,
      "v": 87
    },
    {
      "midi": 72,
      "hit": false,
      "t": 217499.7825000009,
      "d": 499.99950000000536,
      "v": 78
    },
    {
      "midi": 43,
      "hit": false,
      "t": 217666.44900000177,
      "d": 333.33300000001327,
      "v": 74
    },
    {
      "midi": 72,
      "hit": false,
      "t": 217999.7820000009,
      "d": 333.33300000001327,
      "v": 92
    },
    {
      "midi": 31,
      "hit": false,
      "t": 217999.78200000178,
      "d": 333.33300000001327,
      "v": 65
    },
    {
      "midi": 43,
      "hit": false,
      "t": 217999.78200000178,
      "d": 333.33300000001327,
      "v": 80
    },
    {
      "midi": 69,
      "hit": false,
      "t": 218333.11500000092,
      "d": 166.66649999999208,
      "v": 87
    },
    {
      "midi": 43,
      "hit": false,
      "t": 218333.1150000018,
      "d": 333.33300000001327,
      "v": 72
    },
    {
      "midi": 64,
      "hit": false,
      "t": 218499.7815000009,
      "d": 166.66649999999208,
      "v": 87
    },
    {
      "midi": 65,
      "hit": false,
      "t": 218499.7815000009,
      "d": 166.66649999999208,
      "v": 97
    },
    {
      "midi": 69,
      "hit": false,
      "t": 218499.7815000009,
      "d": 166.66649999999208,
      "v": 97
    },
    {
      "midi": 72,
      "hit": false,
      "t": 218499.7815000009,
      "d": 166.66649999999208,
      "v": 101
    },
    {
      "midi": 29,
      "hit": false,
      "t": 218666.4480000018,
      "d": 333.33300000001327,
      "v": 72
    },
    {
      "midi": 41,
      "hit": false,
      "t": 218666.4480000018,
      "d": 333.33300000001327,
      "v": 89
    },
    {
      "midi": 74,
      "hit": false,
      "t": 218999.78100000092,
      "d": 499.99950000000536,
      "v": 97
    },
    {
      "midi": 41,
      "hit": false,
      "t": 218999.78100000182,
      "d": 333.33300000001327,
      "v": 65
    },
    {
      "midi": 29,
      "hit": false,
      "t": 219333.11400000183,
      "d": 333.33300000001327,
      "v": 55
    },
    {
      "midi": 41,
      "hit": false,
      "t": 219333.11400000183,
      "d": 333.33300000001327,
      "v": 82
    },
    {
      "midi": 60,
      "hit": false,
      "t": 219499.78050000092,
      "d": 499.99950000000536,
      "v": 89
    },
    {
      "midi": 64,
      "hit": false,
      "t": 219499.78050000092,
      "d": 499.99950000000536,
      "v": 84
    },
    {
      "midi": 65,
      "hit": false,
      "t": 219499.78050000092,
      "d": 499.99950000000536,
      "v": 108
    },
    {
      "midi": 69,
      "hit": false,
      "t": 219499.78050000092,
      "d": 499.99950000000536,
      "v": 104
    },
    {
      "midi": 41,
      "hit": false,
      "t": 219666.44700000185,
      "d": 333.33300000001327,
      "v": 71
    },
    {
      "midi": 60,
      "hit": false,
      "t": 219999.78000000093,
      "d": 1333.3319999999949,
      "v": 72
    },
    {
      "midi": 64,
      "hit": false,
      "t": 219999.78000000093,
      "d": 1333.3319999999949,
      "v": 80
    },
    {
      "midi": 65,
      "hit": false,
      "t": 219999.78000000093,
      "d": 1333.3319999999949,
      "v": 95
    },
    {
      "midi": 69,
      "hit": false,
      "t": 219999.78000000093,
      "d": 1333.3319999999949,
      "v": 92
    },
    {
      "midi": 29,
      "hit": false,
      "t": 219999.78000000186,
      "d": 333.33300000001327,
      "v": 66
    },
    {
      "midi": 41,
      "hit": false,
      "t": 219999.78000000186,
      "d": 333.33300000001327,
      "v": 74
    },
    {
      "midi": 41,
      "hit": false,
      "t": 220333.11300000187,
      "d": 333.33300000001327,
      "v": 74
    },
    {
      "midi": 29,
      "hit": false,
      "t": 220666.4460000019,
      "d": 333.33300000001327,
      "v": 65
    },
    {
      "midi": 41,
      "hit": false,
      "t": 220666.4460000019,
      "d": 333.33300000001327,
      "v": 80
    },
    {
      "midi": 41,
      "hit": false,
      "t": 220999.7790000019,
      "d": 333.33300000001327,
      "v": 82
    },
    {
      "midi": 31,
      "hit": false,
      "t": 221333.11200000191,
      "d": 333.33300000001327,
      "v": 53
    },
    {
      "midi": 43,
      "hit": false,
      "t": 221333.11200000191,
      "d": 333.33300000001327,
      "v": 80
    },
    {
      "midi": 58,
      "hit": false,
      "t": 221666.44500000094,
      "d": 499.99950000000536,
      "v": 81
    },
    {
      "midi": 62,
      "hit": false,
      "t": 221666.44500000094,
      "d": 499.99950000000536,
      "v": 108
    },
    {
      "midi": 65,
      "hit": false,
      "t": 221666.44500000094,
      "d": 499.99950000000536,
      "v": 101
    },
    {
      "midi": 67,
      "hit": false,
      "t": 221666.44500000094,
      "d": 499.99950000000536,
      "v": 113
    },
    {
      "midi": 43,
      "hit": false,
      "t": 221666.44500000193,
      "d": 333.33300000001327,
      "v": 84
    },
    {
      "midi": 31,
      "hit": false,
      "t": 221999.77800000194,
      "d": 333.33300000001327,
      "v": 67
    },
    {
      "midi": 43,
      "hit": false,
      "t": 221999.77800000194,
      "d": 333.33300000001327,
      "v": 97
    },
    {
      "midi": 58,
      "hit": false,
      "t": 222166.44450000094,
      "d": 499.99950000000536,
      "v": 74
    },
    {
      "midi": 62,
      "hit": false,
      "t": 222166.44450000094,
      "d": 499.99950000000536,
      "v": 108
    },
    {
      "midi": 65,
      "hit": false,
      "t": 222166.44450000094,
      "d": 499.99950000000536,
      "v": 104
    },
    {
      "midi": 67,
      "hit": false,
      "t": 222166.44450000094,
      "d": 499.99950000000536,
      "v": 113
    },
    {
      "midi": 43,
      "hit": false,
      "t": 222333.11100000195,
      "d": 333.33300000001327,
      "v": 78
    },
    {
      "midi": 58,
      "hit": false,
      "t": 222666.44400000095,
      "d": 666.6659999999974,
      "v": 81
    },
    {
      "midi": 62,
      "hit": false,
      "t": 222666.44400000095,
      "d": 666.6659999999974,
      "v": 108
    },
    {
      "midi": 65,
      "hit": false,
      "t": 222666.44400000095,
      "d": 666.6659999999974,
      "v": 104
    },
    {
      "midi": 67,
      "hit": false,
      "t": 222666.44400000095,
      "d": 666.6659999999974,
      "v": 117
    },
    {
      "midi": 31,
      "hit": false,
      "t": 222666.44400000197,
      "d": 333.33300000001327,
      "v": 71
    },
    {
      "midi": 43,
      "hit": false,
      "t": 222666.44400000197,
      "d": 333.33300000001327,
      "v": 92
    },
    {
      "midi": 43,
      "hit": false,
      "t": 222999.77700000198,
      "d": 333.33300000001327,
      "v": 95
    },
    {
      "midi": 69,
      "hit": false,
      "t": 223333.11000000095,
      "d": 166.66649999999208,
      "v": 95
    },
    {
      "midi": 31,
      "hit": false,
      "t": 223333.110000002,
      "d": 333.33300000001327,
      "v": 62
    },
    {
      "midi": 43,
      "hit": false,
      "t": 223333.110000002,
      "d": 333.33300000001327,
      "v": 92
    },
    {
      "midi": 69,
      "hit": false,
      "t": 223499.77650000094,
      "d": 166.66649999999208,
      "v": 92
    },
    {
      "midi": 72,
      "hit": false,
      "t": 223666.44300000093,
      "d": 333.33300000001327,
      "v": 92
    },
    {
      "midi": 43,
      "hit": false,
      "t": 223666.443000002,
      "d": 333.33300000001327,
      "v": 89
    },
    {
      "midi": 65,
      "hit": false,
      "t": 223999.77600000094,
      "d": 666.6659999999974,
      "v": 68
    },
    {
      "midi": 69,
      "hit": false,
      "t": 223999.77600000094,
      "d": 666.6659999999974,
      "v": 95
    },
    {
      "midi": 72,
      "hit": false,
      "t": 223999.77600000094,
      "d": 666.6659999999974,
      "v": 80
    },
    {
      "midi": 74,
      "hit": false,
      "t": 223999.77600000094,
      "d": 666.6659999999974,
      "v": 67
    },
    {
      "midi": 38,
      "hit": false,
      "t": 223999.77600000202,
      "d": 333.33300000001327,
      "v": 74
    },
    {
      "midi": 50,
      "hit": false,
      "t": 223999.77600000202,
      "d": 333.33300000001327,
      "v": 82
    },
    {
      "midi": 50,
      "hit": false,
      "t": 224333.10900000203,
      "d": 333.33300000001327,
      "v": 92
    },
    {
      "midi": 72,
      "hit": false,
      "t": 224666.44200000094,
      "d": 333.33300000001327,
      "v": 71
    },
    {
      "midi": 38,
      "hit": false,
      "t": 224666.44200000205,
      "d": 333.33300000001327,
      "v": 84
    },
    {
      "midi": 50,
      "hit": false,
      "t": 224666.44200000205,
      "d": 333.33300000001327,
      "v": 101
    },
    {
      "midi": 69,
      "hit": false,
      "t": 224999.77500000095,
      "d": 333.33300000001327,
      "v": 92
    },
    {
      "midi": 50,
      "hit": false,
      "t": 224999.77500000206,
      "d": 333.33300000001327,
      "v": 95
    },
    {
      "midi": 72,
      "hit": false,
      "t": 225333.10800000097,
      "d": 666.6659999999974,
      "v": 95
    },
    {
      "midi": 38,
      "hit": false,
      "t": 225333.10800000207,
      "d": 333.33300000001327,
      "v": 78
    },
    {
      "midi": 50,
      "hit": false,
      "t": 225333.10800000207,
      "d": 333.33300000001327,
      "v": 95
    },
    {
      "midi": 50,
      "hit": false,
      "t": 225666.4410000021,
      "d": 333.33300000001327,
      "v": 92
    },
    {
      "midi": 69,
      "hit": false,
      "t": 225999.77400000097,
      "d": 333.33300000001327,
      "v": 101
    },
    {
      "midi": 38,
      "hit": false,
      "t": 225999.7740000021,
      "d": 333.33300000001327,
      "v": 80
    },
    {
      "midi": 50,
      "hit": false,
      "t": 225999.7740000021,
      "d": 333.33300000001327,
      "v": 95
    },
    {
      "midi": 58,
      "hit": false,
      "t": 226333.10700000098,
      "d": 333.33300000001327,
      "v": 81
    },
    {
      "midi": 62,
      "hit": false,
      "t": 226333.10700000098,
      "d": 333.33300000001327,
      "v": 89
    },
    {
      "midi": 65,
      "hit": false,
      "t": 226333.10700000098,
      "d": 333.33300000001327,
      "v": 76
    },
    {
      "midi": 67,
      "hit": false,
      "t": 226333.10700000098,
      "d": 333.33300000001327,
      "v": 104
    },
    {
      "midi": 50,
      "hit": false,
      "t": 226333.1070000021,
      "d": 333.33300000001327,
      "v": 92
    },
    {
      "midi": 31,
      "hit": false,
      "t": 226666.44000000213,
      "d": 333.33300000001327,
      "v": 78
    },
    {
      "midi": 43,
      "hit": false,
      "t": 226666.44000000213,
      "d": 333.33300000001327,
      "v": 74
    },
    {
      "midi": 43,
      "hit": false,
      "t": 226999.77300000214,
      "d": 333.33300000001327,
      "v": 71
    },
    {
      "midi": 31,
      "hit": false,
      "t": 227333.10600000215,
      "d": 333.33300000001327,
      "v": 69
    },
    {
      "midi": 43,
      "hit": false,
      "t": 227333.10600000215,
      "d": 333.33300000001327,
      "v": 82
    },
    {
      "midi": 43,
      "hit": false,
      "t": 227666.43900000217,
      "d": 333.33300000001327,
      "v": 80
    },
    {
      "midi": 69,
      "hit": false,
      "t": 227999.772000001,
      "d": 166.66649999999208,
      "v": 122
    },
    {
      "midi": 31,
      "hit": false,
      "t": 227999.77200000218,
      "d": 333.33300000001327,
      "v": 78
    },
    {
      "midi": 43,
      "hit": false,
      "t": 227999.77200000218,
      "d": 333.33300000001327,
      "v": 95
    },
    {
      "midi": 72,
      "hit": false,
      "t": 228166.43850000098,
      "d": 499.99950000000536,
      "v": 89
    },
    {
      "midi": 43,
      "hit": false,
      "t": 228333.1050000022,
      "d": 333.33300000001327,
      "v": 72
    },
    {
      "midi": 72,
      "hit": false,
      "t": 228666.43800000098,
      "d": 333.33300000001327,
      "v": 97
    },
    {
      "midi": 31,
      "hit": false,
      "t": 228666.4380000022,
      "d": 333.33300000001327,
      "v": 66
    },
    {
      "midi": 43,
      "hit": false,
      "t": 228666.4380000022,
      "d": 333.33300000001327,
      "v": 92
    },
    {
      "midi": 69,
      "hit": false,
      "t": 228999.771000001,
      "d": 166.66649999999208,
      "v": 92
    },
    {
      "midi": 43,
      "hit": false,
      "t": 228999.77100000222,
      "d": 333.33300000001327,
      "v": 72
    },
    {
      "midi": 64,
      "hit": false,
      "t": 229166.437500001,
      "d": 166.66649999999208,
      "v": 87
    },
    {
      "midi": 65,
      "hit": false,
      "t": 229166.437500001,
      "d": 166.66649999999208,
      "v": 42
    },
    {
      "midi": 69,
      "hit": false,
      "t": 229166.437500001,
      "d": 166.66649999999208,
      "v": 68
    },
    {
      "midi": 72,
      "hit": false,
      "t": 229166.437500001,
      "d": 166.66649999999208,
      "v": 101
    },
    {
      "midi": 29,
      "hit": false,
      "t": 229333.10400000223,
      "d": 333.33300000001327,
      "v": 76
    },
    {
      "midi": 41,
      "hit": false,
      "t": 229333.10400000223,
      "d": 333.33300000001327,
      "v": 84
    },
    {
      "midi": 74,
      "hit": false,
      "t": 229666.437000001,
      "d": 499.99950000000536,
      "v": 89
    },
    {
      "midi": 41,
      "hit": false,
      "t": 229666.43700000225,
      "d": 333.33300000001327,
      "v": 71
    },
    {
      "midi": 29,
      "hit": false,
      "t": 229999.77000000226,
      "d": 333.33300000001327,
      "v": 66
    },
    {
      "midi": 41,
      "hit": false,
      "t": 229999.77000000226,
      "d": 333.33300000001327,
      "v": 82
    },
    {
      "midi": 60,
      "hit": false,
      "t": 230166.436500001,
      "d": 499.99950000000536,
      "v": 72
    },
    {
      "midi": 64,
      "hit": false,
      "t": 230166.436500001,
      "d": 499.99950000000536,
      "v": 89
    },
    {
      "midi": 65,
      "hit": false,
      "t": 230166.436500001,
      "d": 499.99950000000536,
      "v": 92
    },
    {
      "midi": 69,
      "hit": false,
      "t": 230166.436500001,
      "d": 499.99950000000536,
      "v": 82
    },
    {
      "midi": 41,
      "hit": false,
      "t": 230333.10300000227,
      "d": 333.33300000001327,
      "v": 72
    },
    {
      "midi": 60,
      "hit": false,
      "t": 230666.436000001,
      "d": 1333.3319999999949,
      "v": 87
    },
    {
      "midi": 64,
      "hit": false,
      "t": 230666.436000001,
      "d": 1333.3319999999949,
      "v": 92
    },
    {
      "midi": 65,
      "hit": false,
      "t": 230666.436000001,
      "d": 1333.3319999999949,
      "v": 92
    },
    {
      "midi": 69,
      "hit": false,
      "t": 230666.436000001,
      "d": 1333.3319999999949,
      "v": 101
    },
    {
      "midi": 29,
      "hit": false,
      "t": 230666.4360000023,
      "d": 333.33300000001327,
      "v": 71
    },
    {
      "midi": 41,
      "hit": false,
      "t": 230666.4360000023,
      "d": 333.33300000001327,
      "v": 74
    },
    {
      "midi": 41,
      "hit": false,
      "t": 230999.7690000023,
      "d": 333.33300000001327,
      "v": 72
    },
    {
      "midi": 29,
      "hit": false,
      "t": 231333.1020000023,
      "d": 333.33300000001327,
      "v": 69
    },
    {
      "midi": 41,
      "hit": false,
      "t": 231333.1020000023,
      "d": 333.33300000001327,
      "v": 87
    },
    {
      "midi": 41,
      "hit": false,
      "t": 231666.43500000233,
      "d": 333.33300000001327,
      "v": 78
    },
    {
      "midi": 31,
      "hit": false,
      "t": 231999.76800000234,
      "d": 333.33300000001327,
      "v": 72
    },
    {
      "midi": 43,
      "hit": false,
      "t": 231999.76800000234,
      "d": 333.33300000001327,
      "v": 95
    },
    {
      "midi": 58,
      "hit": false,
      "t": 232333.101000001,
      "d": 499.99950000000536,
      "v": 84
    },
    {
      "midi": 62,
      "hit": false,
      "t": 232333.101000001,
      "d": 499.99950000000536,
      "v": 101
    },
    {
      "midi": 65,
      "hit": false,
      "t": 232333.101000001,
      "d": 499.99950000000536,
      "v": 87
    },
    {
      "midi": 67,
      "hit": false,
      "t": 232333.101000001,
      "d": 499.99950000000536,
      "v": 108
    },
    {
      "midi": 43,
      "hit": false,
      "t": 232333.10100000235,
      "d": 333.33300000001327,
      "v": 84
    },
    {
      "midi": 31,
      "hit": false,
      "t": 232666.43400000237,
      "d": 333.33300000001327,
      "v": 71
    },
    {
      "midi": 43,
      "hit": false,
      "t": 232666.43400000237,
      "d": 333.33300000001327,
      "v": 97
    },
    {
      "midi": 58,
      "hit": false,
      "t": 232833.10050000102,
      "d": 499.99950000000536,
      "v": 81
    },
    {
      "midi": 62,
      "hit": false,
      "t": 232833.10050000102,
      "d": 499.99950000000536,
      "v": 95
    },
    {
      "midi": 65,
      "hit": false,
      "t": 232833.10050000102,
      "d": 499.99950000000536,
      "v": 80
    },
    {
      "midi": 67,
      "hit": false,
      "t": 232833.10050000102,
      "d": 499.99950000000536,
      "v": 97
    },
    {
      "midi": 43,
      "hit": false,
      "t": 232999.76700000238,
      "d": 333.33300000001327,
      "v": 84
    },
    {
      "midi": 58,
      "hit": false,
      "t": 233333.10000000102,
      "d": 666.6659999999974,
      "v": 72
    },
    {
      "midi": 62,
      "hit": false,
      "t": 233333.10000000102,
      "d": 666.6659999999974,
      "v": 108
    },
    {
      "midi": 65,
      "hit": false,
      "t": 233333.10000000102,
      "d": 666.6659999999974,
      "v": 95
    },
    {
      "midi": 67,
      "hit": false,
      "t": 233333.10000000102,
      "d": 666.6659999999974,
      "v": 97
    },
    {
      "midi": 31,
      "hit": false,
      "t": 233333.1000000024,
      "d": 333.33300000001327,
      "v": 69
    },
    {
      "midi": 43,
      "hit": false,
      "t": 233333.1000000024,
      "d": 333.33300000001327,
      "v": 108
    },
    {
      "midi": 43,
      "hit": false,
      "t": 233666.4330000024,
      "d": 333.33300000001327,
      "v": 89
    },
    {
      "midi": 69,
      "hit": false,
      "t": 233999.76600000102,
      "d": 166.66649999999208,
      "v": 101
    },
    {
      "midi": 31,
      "hit": false,
      "t": 233999.76600000242,
      "d": 333.33300000001327,
      "v": 84
    },
    {
      "midi": 43,
      "hit": false,
      "t": 233999.76600000242,
      "d": 333.33300000001327,
      "v": 101
    },
    {
      "midi": 69,
      "hit": false,
      "t": 234166.432500001,
      "d": 166.66649999999208,
      "v": 108
    },
    {
      "midi": 72,
      "hit": false,
      "t": 234333.099000001,
      "d": 333.33300000001327,
      "v": 92
    },
    {
      "midi": 43,
      "hit": false,
      "t": 234333.09900000243,
      "d": 333.33300000001327,
      "v": 108
    },
    {
      "midi": 65,
      "hit": false,
      "t": 234666.43200000102,
      "d": 2666.6639999999898,
      "v": 78
    },
    {
      "midi": 69,
      "hit": false,
      "t": 234666.43200000102,
      "d": 2666.6639999999898,
      "v": 89
    },
    {
      "midi": 72,
      "hit": false,
      "t": 234666.43200000102,
      "d": 2666.6639999999898,
      "v": 87
    },
    {
      "midi": 74,
      "hit": false,
      "t": 234666.43200000102,
      "d": 2666.6639999999898,
      "v": 95
    },
    {
      "midi": 38,
      "hit": false,
      "t": 234666.43200000245,
      "d": 2666.6639999999898,
      "v": 78
    },
    {
      "midi": 50,
      "hit": false,
      "t": 234666.43200000245,
      "d": 2666.6639999999898,
      "v": 92
    }
  ]
}