{
  "jsonPath": "Classical/Classical Piano/Andrei Gavrilov/6-wedding-day-at-troldhaugen.json",
  "path": "Classical\\Classical Piano\\Andrei Gavrilov\\6 Wedding Day at Troldhaugen.mid",
  "name": "6 Wedding Day at Troldhaugen",
  "difficulty": "Advanced",
  "bpm": 100,
  "notes": [
    {
      "midi": 45,
      "hit": false,
      "t": 70.79646666666666,
      "d": 1061.947,
      "v": 55
    },
    {
      "midi": 38,
      "hit": false,
      "t": 70.79646666666666,
      "d": 1070.7965583333332,
      "v": 62
    },
    {
      "midi": 57,
      "hit": false,
      "t": 1097.3452333333332,
      "d": 132.74337500000001,
      "v": 49
    },
    {
      "midi": 50,
      "hit": false,
      "t": 1106.1947916666666,
      "d": 97.34514166666668,
      "v": 38
    },
    {
      "midi": 57,
      "hit": false,
      "t": 1557.5222666666666,
      "d": 115.04425833333335,
      "v": 43
    },
    {
      "midi": 50,
      "hit": false,
      "t": 1575.2213833333333,
      "d": 97.34514166666668,
      "v": 27
    },
    {
      "midi": 50,
      "hit": false,
      "t": 2088.4957666666664,
      "d": 902.6549500000001,
      "v": 55
    },
    {
      "midi": 57,
      "hit": false,
      "t": 2088.4957666666664,
      "d": 911.5045083333334,
      "v": 69
    },
    {
      "midi": 45,
      "hit": false,
      "t": 3230.088791666666,
      "d": 265.48675000000003,
      "v": 43
    },
    {
      "midi": 38,
      "hit": false,
      "t": 3230.088791666666,
      "d": 283.1858666666667,
      "v": 49
    },
    {
      "midi": 45,
      "hit": false,
      "t": 3734.513616666666,
      "d": 238.93807500000003,
      "v": 43
    },
    {
      "midi": 38,
      "hit": false,
      "t": 3734.513616666666,
      "d": 265.48675000000003,
      "v": 49
    },
    {
      "midi": 45,
      "hit": false,
      "t": 4274.336675,
      "d": 1159.2921416666668,
      "v": 49
    },
    {
      "midi": 38,
      "hit": false,
      "t": 4283.186233333333,
      "d": 1150.4425833333335,
      "v": 55
    },
    {
      "midi": 50,
      "hit": false,
      "t": 5309.735,
      "d": 123.89381666666668,
      "v": 43
    },
    {
      "midi": 57,
      "hit": false,
      "t": 5309.735,
      "d": 123.89381666666668,
      "v": 55
    },
    {
      "midi": 57,
      "hit": false,
      "t": 5778.761591666666,
      "d": 106.19470000000001,
      "v": 49
    },
    {
      "midi": 50,
      "hit": false,
      "t": 5787.61115,
      "d": 97.34514166666668,
      "v": 43
    },
    {
      "midi": 50,
      "hit": false,
      "t": 6309.735091666666,
      "d": 743.3629000000001,
      "v": 55
    },
    {
      "midi": 57,
      "hit": false,
      "t": 6309.735091666666,
      "d": 778.7611333333334,
      "v": 69
    },
    {
      "midi": 45,
      "hit": false,
      "t": 7451.328116666667,
      "d": 212.38940000000002,
      "v": 43
    },
    {
      "midi": 38,
      "hit": false,
      "t": 7460.177675,
      "d": 203.5398416666667,
      "v": 43
    },
    {
      "midi": 45,
      "hit": false,
      "t": 7964.6025,
      "d": 194.69028333333335,
      "v": 38
    },
    {
      "midi": 38,
      "hit": false,
      "t": 7964.6025,
      "d": 203.5398416666667,
      "v": 43
    },
    {
      "midi": 69,
      "hit": false,
      "t": 8061.947641666667,
      "d": 88.49558333333334,
      "v": 38
    },
    {
      "midi": 71,
      "hit": false,
      "t": 8141.593666666667,
      "d": 168.14160833333244,
      "v": 43
    },
    {
      "midi": 69,
      "hit": false,
      "t": 8247.788366666666,
      "d": 230.0885166666667,
      "v": 38
    },
    {
      "midi": 66,
      "hit": false,
      "t": 8460.177766666666,
      "d": 442.4779166666667,
      "v": 55
    },
    {
      "midi": 38,
      "hit": false,
      "t": 8477.876883333332,
      "d": 1053.0974416666668,
      "v": 62
    },
    {
      "midi": 45,
      "hit": false,
      "t": 8477.876883333332,
      "d": 1053.0974416666668,
      "v": 55
    },
    {
      "midi": 69,
      "hit": false,
      "t": 8964.602591666666,
      "d": 283.1858666666667,
      "v": 38
    },
    {
      "midi": 66,
      "hit": false,
      "t": 9477.876975,
      "d": 168.14160833333335,
      "v": 69
    },
    {
      "midi": 74,
      "hit": false,
      "t": 9486.726533333333,
      "d": 159.29205000000002,
      "v": 55
    },
    {
      "midi": 50,
      "hit": false,
      "t": 9530.974325,
      "d": 221.23895833333336,
      "v": 55
    },
    {
      "midi": 57,
      "hit": false,
      "t": 9530.974325,
      "d": 221.23895833333336,
      "v": 62
    },
    {
      "midi": 66,
      "hit": false,
      "t": 9991.151358333333,
      "d": 150.44249166666668,
      "v": 62
    },
    {
      "midi": 78,
      "hit": false,
      "t": 9991.151358333333,
      "d": 159.29205000000002,
      "v": 62
    },
    {
      "midi": 57,
      "hit": false,
      "t": 10044.248708333333,
      "d": 185.84072500000002,
      "v": 49
    },
    {
      "midi": 50,
      "hit": false,
      "t": 10053.098266666666,
      "d": 168.14160833333335,
      "v": 49
    },
    {
      "midi": 76,
      "hit": false,
      "t": 10513.2753,
      "d": 530.9735000000001,
      "v": 55
    },
    {
      "midi": 66,
      "hit": false,
      "t": 10513.2753,
      "d": 592.9204083333334,
      "v": 62
    },
    {
      "midi": 50,
      "hit": false,
      "t": 10557.523091666666,
      "d": 504.42482500000006,
      "v": 62
    },
    {
      "midi": 57,
      "hit": false,
      "t": 10557.523091666666,
      "d": 530.9735000000001,
      "v": 69
    },
    {
      "midi": 74,
      "hit": false,
      "t": 11079.647033333333,
      "d": 203.5398416666667,
      "v": 55
    },
    {
      "midi": 66,
      "hit": false,
      "t": 11584.071858333333,
      "d": 141.59293333333335,
      "v": 62
    },
    {
      "midi": 45,
      "hit": false,
      "t": 11619.470091666666,
      "d": 230.0885166666667,
      "v": 49
    },
    {
      "midi": 38,
      "hit": false,
      "t": 11628.31965,
      "d": 247.78763333333336,
      "v": 49
    },
    {
      "midi": 66,
      "hit": false,
      "t": 12097.346241666666,
      "d": 106.19470000000001,
      "v": 69
    },
    {
      "midi": 69,
      "hit": false,
      "t": 12106.1958,
      "d": 132.74337500000001,
      "v": 62
    },
    {
      "midi": 45,
      "hit": false,
      "t": 12132.744475,
      "d": 247.78763333333336,
      "v": 43
    },
    {
      "midi": 38,
      "hit": false,
      "t": 12141.594033333333,
      "d": 247.78763333333336,
      "v": 49
    },
    {
      "midi": 66,
      "hit": false,
      "t": 12628.319741666666,
      "d": 690.2655500000001,
      "v": 77
    },
    {
      "midi": 71,
      "hit": false,
      "t": 12628.319741666666,
      "d": 707.9646666666667,
      "v": 69
    },
    {
      "midi": 69,
      "hit": false,
      "t": 12646.018858333333,
      "d": 672.5664333333334,
      "v": 62
    },
    {
      "midi": 38,
      "hit": false,
      "t": 12690.26665,
      "d": 1017.6992083333334,
      "v": 62
    },
    {
      "midi": 45,
      "hit": false,
      "t": 12690.26665,
      "d": 1026.5487666666668,
      "v": 55
    },
    {
      "midi": 66,
      "hit": false,
      "t": 13761.063208333333,
      "d": 522.1239416666667,
      "v": 69
    },
    {
      "midi": 69,
      "hit": false,
      "t": 13769.912766666666,
      "d": 513.2743833333334,
      "v": 62
    },
    {
      "midi": 71,
      "hit": false,
      "t": 13769.912766666666,
      "d": 548.6726166666667,
      "v": 62
    },
    {
      "midi": 57,
      "hit": false,
      "t": 13823.010116666666,
      "d": 548.6726166666667,
      "v": 49
    },
    {
      "midi": 50,
      "hit": false,
      "t": 13840.709233333333,
      "d": 530.9735000000001,
      "v": 49
    },
    {
      "midi": 66,
      "hit": false,
      "t": 14628.319925,
      "d": 106.19470000000001,
      "v": 69
    },
    {
      "midi": 71,
      "hit": false,
      "t": 14637.169483333333,
      "d": 132.74337500000001,
      "v": 49
    },
    {
      "midi": 69,
      "hit": false,
      "t": 14646.019041666666,
      "d": 97.34514166666668,
      "v": 49
    },
    {
      "midi": 57,
      "hit": false,
      "t": 14663.718158333333,
      "d": 97.34514166666668,
      "v": 69
    },
    {
      "midi": 50,
      "hit": false,
      "t": 14663.718158333333,
      "d": 106.19470000000001,
      "v": 49
    },
    {
      "midi": 71,
      "hit": false,
      "t": 14831.859766666666,
      "d": 486.7257083333334,
      "v": 55
    },
    {
      "midi": 66,
      "hit": false,
      "t": 14831.859766666666,
      "d": 513.2743833333334,
      "v": 69
    },
    {
      "midi": 69,
      "hit": false,
      "t": 14840.709325,
      "d": 469.0265916666667,
      "v": 49
    },
    {
      "midi": 50,
      "hit": false,
      "t": 14858.408441666666,
      "d": 1061.9470000000001,
      "v": 55
    },
    {
      "midi": 57,
      "hit": false,
      "t": 14858.408441666666,
      "d": 1070.7965583333335,
      "v": 69
    },
    {
      "midi": 66,
      "hit": false,
      "t": 15867.258091666667,
      "d": 159.29205000000002,
      "v": 62
    },
    {
      "midi": 62,
      "hit": false,
      "t": 15876.10765,
      "d": 159.29205000000002,
      "v": 38
    },
    {
      "midi": 68,
      "hit": false,
      "t": 16371.682916666667,
      "d": 115.04425833332971,
      "v": 55
    },
    {
      "midi": 62,
      "hit": false,
      "t": 16380.532475,
      "d": 79.64602499999819,
      "v": 31
    },
    {
      "midi": 66,
      "hit": false,
      "t": 16380.532475,
      "d": 88.4955833333297,
      "v": 49
    },
    {
      "midi": 66,
      "hit": false,
      "t": 16893.80685833333,
      "d": 601.7699666666631,
      "v": 62
    },
    {
      "midi": 62,
      "hit": false,
      "t": 16893.80685833333,
      "d": 628.3186416666613,
      "v": 38
    },
    {
      "midi": 69,
      "hit": false,
      "t": 16893.80685833333,
      "d": 637.1681999999928,
      "v": 43
    },
    {
      "midi": 42,
      "hit": false,
      "t": 16955.753766666665,
      "d": 893.805391666665,
      "v": 55
    },
    {
      "midi": 35,
      "hit": false,
      "t": 16973.45288333333,
      "d": 884.9558333333298,
      "v": 49
    },
    {
      "midi": 71,
      "hit": false,
      "t": 17433.62991666666,
      "d": 194.69028333332608,
      "v": 49
    },
    {
      "midi": 66,
      "hit": false,
      "t": 17964.603416666654,
      "d": 123.89381666666304,
      "v": 69
    },
    {
      "midi": 62,
      "hit": false,
      "t": 17973.452974999986,
      "d": 123.89381666666304,
      "v": 43
    },
    {
      "midi": 54,
      "hit": false,
      "t": 18000.001649999995,
      "d": 203.53984166666123,
      "v": 69
    },
    {
      "midi": 47,
      "hit": false,
      "t": 18008.851208333326,
      "d": 185.8407249999982,
      "v": 49
    },
    {
      "midi": 68,
      "hit": false,
      "t": 18495.576916666647,
      "d": 97.34514166666122,
      "v": 69
    },
    {
      "midi": 54,
      "hit": false,
      "t": 18495.576916666654,
      "d": 283.1858666666667,
      "v": 62
    },
    {
      "midi": 66,
      "hit": false,
      "t": 18504.42647499998,
      "d": 70.79646666666667,
      "v": 69
    },
    {
      "midi": 62,
      "hit": false,
      "t": 18504.42647499998,
      "d": 79.64602499999819,
      "v": 49
    },
    {
      "midi": 47,
      "hit": false,
      "t": 18513.27603333332,
      "d": 230.0885166666667,
      "v": 55
    },
    {
      "midi": 40,
      "hit": false,
      "t": 19044.24953333332,
      "d": 1079.6461166666668,
      "v": 55
    },
    {
      "midi": 47,
      "hit": false,
      "t": 19044.24953333332,
      "d": 1088.4956749999983,
      "v": 55
    },
    {
      "midi": 62,
      "hit": false,
      "t": 19061.948649999973,
      "d": 610.6195249999982,
      "v": 49
    },
    {
      "midi": 66,
      "hit": false,
      "t": 19061.948649999973,
      "d": 610.6195249999982,
      "v": 69
    },
    {
      "midi": 69,
      "hit": false,
      "t": 19061.948649999973,
      "d": 628.3186416666649,
      "v": 55
    },
    {
      "midi": 71,
      "hit": false,
      "t": 19601.771708333305,
      "d": 159.29205000000002,
      "v": 62
    },
    {
      "midi": 66,
      "hit": false,
      "t": 20097.34697499997,
      "d": 106.19470000000001,
      "v": 69
    },
    {
      "midi": 62,
      "hit": false,
      "t": 20115.046091666638,
      "d": 106.19470000000001,
      "v": 43
    },
    {
      "midi": 59,
      "hit": false,
      "t": 20150.444324999986,
      "d": 194.69028333333335,
      "v": 62
    },
    {
      "midi": 52,
      "hit": false,
      "t": 20150.444324999986,
      "d": 221.23895833333154,
      "v": 55
    },
    {
      "midi": 68,
      "hit": false,
      "t": 20637.170033333303,
      "d": 97.34514166666122,
      "v": 62
    },
    {
      "midi": 62,
      "hit": false,
      "t": 20646.019591666634,
      "d": 70.79646666666667,
      "v": 38
    },
    {
      "midi": 66,
      "hit": false,
      "t": 20646.019591666634,
      "d": 79.64602499999819,
      "v": 62
    },
    {
      "midi": 59,
      "hit": false,
      "t": 20672.56826666665,
      "d": 265.4867499999964,
      "v": 62
    },
    {
      "midi": 52,
      "hit": false,
      "t": 20681.417824999982,
      "d": 256.6371916666649,
      "v": 55
    },
    {
      "midi": 69,
      "hit": false,
      "t": 21185.842649999962,
      "d": 637.1681999999964,
      "v": 77
    },
    {
      "midi": 62,
      "hit": false,
      "t": 21194.692208333294,
      "d": 601.7699666666667,
      "v": 69
    },
    {
      "midi": 64,
      "hit": false,
      "t": 21194.692208333294,
      "d": 610.6195249999982,
      "v": 69
    },
    {
      "midi": 33,
      "hit": false,
      "t": 21212.39132499998,
      "d": 1168.1417000000001,
      "v": 55
    },
    {
      "midi": 40,
      "hit": false,
      "t": 21212.39132499998,
      "d": 1168.1417000000001,
      "v": 55
    },
    {
      "midi": 61,
      "hit": false,
      "t": 22247.78964999996,
      "d": 575.2212916666649,
      "v": 69
    },
    {
      "midi": 69,
      "hit": false,
      "t": 22247.78964999996,
      "d": 584.0708499999964,
      "v": 69
    },
    {
      "midi": 57,
      "hit": false,
      "t": 22309.736558333312,
      "d": 575.2212916666649,
      "v": 62
    },
    {
      "midi": 64,
      "hit": false,
      "t": 22309.736558333312,
      "d": 601.7699666666631,
      "v": 69
    },
    {
      "midi": 64,
      "hit": false,
      "t": 23097.347249999973,
      "d": 70.79646666666667,
      "v": 69
    },
    {
      "midi": 57,
      "hit": false,
      "t": 23097.347249999973,
      "d": 79.64602499999819,
      "v": 55
    },
    {
      "midi": 61,
      "hit": false,
      "t": 23132.74548333329,
      "d": 97.34514166666486,
      "v": 69
    },
    {
      "midi": 69,
      "hit": false,
      "t": 23141.59504166662,
      "d": 106.19470000000001,
      "v": 62
    },
    {
      "midi": 57,
      "hit": false,
      "t": 23292.037533333303,
      "d": 486.72570833333157,
      "v": 69
    },
    {
      "midi": 64,
      "hit": false,
      "t": 23292.037533333303,
      "d": 522.1239416666649,
      "v": 77
    },
    {
      "midi": 61,
      "hit": false,
      "t": 23309.73664999995,
      "d": 672.5664333333334,
      "v": 77
    },
    {
      "midi": 69,
      "hit": false,
      "t": 23309.73664999995,
      "d": 716.8142249999983,
      "v": 69
    },
    {
      "midi": 73,
      "hit": false,
      "t": 24849.559799999948,
      "d": 88.49558333333334,
      "v": 62
    },
    {
      "midi": 74,
      "hit": false,
      "t": 24946.904941666613,
      "d": 132.7433749999982,
      "v": 43
    },
    {
      "midi": 73,
      "hit": false,
      "t": 25044.250083333278,
      "d": 274.33630833333154,
      "v": 62
    },
    {
      "midi": 71,
      "hit": false,
      "t": 25318.58639166661,
      "d": 592.9204083333316,
      "v": 55
    },
    {
      "midi": 50,
      "hit": false,
      "t": 25442.4802083333,
      "d": 946.902741666665,
      "v": 62
    },
    {
      "midi": 43,
      "hit": false,
      "t": 25451.329766666633,
      "d": 955.7523000000001,
      "v": 62
    },
    {
      "midi": 74,
      "hit": false,
      "t": 25902.65724166661,
      "d": 274.33630833333154,
      "v": 55
    },
    {
      "midi": 62,
      "hit": false,
      "t": 26424.7811833333,
      "d": 159.29204999999638,
      "v": 62
    },
    {
      "midi": 55,
      "hit": false,
      "t": 26433.63074166663,
      "d": 141.59293333333335,
      "v": 43
    },
    {
      "midi": 71,
      "hit": false,
      "t": 26486.728091666606,
      "d": 194.69028333333335,
      "v": 55
    },
    {
      "midi": 79,
      "hit": false,
      "t": 26486.728091666606,
      "d": 221.23895833333154,
      "v": 55
    },
    {
      "midi": 62,
      "hit": false,
      "t": 26946.90512499996,
      "d": 115.04425833333153,
      "v": 49
    },
    {
      "midi": 55,
      "hit": false,
      "t": 26946.90512499996,
      "d": 132.7433749999982,
      "v": 38
    },
    {
      "midi": 83,
      "hit": false,
      "t": 26955.75468333327,
      "d": 115.04425833332789,
      "v": 62
    },
    {
      "midi": 71,
      "hit": false,
      "t": 26964.604241666602,
      "d": 97.34514166666486,
      "v": 55
    },
    {
      "midi": 81,
      "hit": false,
      "t": 27469.029066666597,
      "d": 460.1770333333334,
      "v": 62
    },
    {
      "midi": 71,
      "hit": false,
      "t": 27469.029066666597,
      "d": 539.8230583333316,
      "v": 55
    },
    {
      "midi": 62,
      "hit": false,
      "t": 27469.029066666626,
      "d": 1061.9469999999965,
      "v": 69
    },
    {
      "midi": 55,
      "hit": false,
      "t": 27477.878624999958,
      "d": 1044.2478833333334,
      "v": 62
    },
    {
      "midi": 79,
      "hit": false,
      "t": 27973.453891666595,
      "d": 79.64602499999819,
      "v": 55
    },
    {
      "midi": 67,
      "hit": false,
      "t": 28504.42739166659,
      "d": 185.8407249999982,
      "v": 49
    },
    {
      "midi": 71,
      "hit": false,
      "t": 28504.42739166659,
      "d": 194.69028333332972,
      "v": 55
    },
    {
      "midi": 67,
      "hit": false,
      "t": 29017.70177499992,
      "d": 150.44249166666486,
      "v": 55
    },
    {
      "midi": 74,
      "hit": false,
      "t": 29017.70177499992,
      "d": 159.29204999999638,
      "v": 62
    },
    {
      "midi": 71,
      "hit": false,
      "t": 29026.551333333253,
      "d": 141.59293333333335,
      "v": 55
    },
    {
      "midi": 78,
      "hit": false,
      "t": 29575.223949999916,
      "d": 584.0708499999928,
      "v": 69
    },
    {
      "midi": 67,
      "hit": false,
      "t": 29584.073508333247,
      "d": 575.2212916666613,
      "v": 62
    },
    {
      "midi": 71,
      "hit": false,
      "t": 29592.92306666658,
      "d": 557.5221749999982,
      "v": 62
    },
    {
      "midi": 74,
      "hit": false,
      "t": 29592.92306666658,
      "d": 566.3717333333298,
      "v": 62
    },
    {
      "midi": 40,
      "hit": false,
      "t": 29716.81688333329,
      "d": 1132.7434666666668,
      "v": 62
    },
    {
      "midi": 47,
      "hit": false,
      "t": 29716.81688333329,
      "d": 1132.7434666666668,
      "v": 62
    },
    {
      "midi": 78,
      "hit": false,
      "t": 30778.763883333242,
      "d": 380.5310083333279,
      "v": 69
    },
    {
      "midi": 67,
      "hit": false,
      "t": 30787.613441666574,
      "d": 336.2832166666667,
      "v": 62
    },
    {
      "midi": 71,
      "hit": false,
      "t": 30787.613441666574,
      "d": 336.2832166666667,
      "v": 62
    },
    {
      "midi": 74,
      "hit": false,
      "t": 30787.613441666574,
      "d": 345.1327749999982,
      "v": 69
    },
    {
      "midi": 52,
      "hit": false,
      "t": 30867.259466666623,
      "d": 530.9735000000001,
      "v": 62
    },
    {
      "midi": 59,
      "hit": false,
      "t": 30867.259466666623,
      "d": 557.5221749999982,
      "v": 62
    },
    {
      "midi": 78,
      "hit": false,
      "t": 31619.471924999903,
      "d": 115.04425833333153,
      "v": 69
    },
    {
      "midi": 67,
      "hit": false,
      "t": 31637.17104166657,
      "d": 97.34514166666486,
      "v": 49
    },
    {
      "midi": 74,
      "hit": false,
      "t": 31637.17104166657,
      "d": 132.74337499999456,
      "v": 62
    },
    {
      "midi": 71,
      "hit": false,
      "t": 31646.0205999999,
      "d": 115.04425833333153,
      "v": 49
    },
    {
      "midi": 59,
      "hit": false,
      "t": 31654.870158333288,
      "d": 106.19469999999637,
      "v": 69
    },
    {
      "midi": 52,
      "hit": false,
      "t": 31663.71971666662,
      "d": 97.34514166666486,
      "v": 55
    },
    {
      "midi": 71,
      "hit": false,
      "t": 31840.71088333323,
      "d": 548.6726166666667,
      "v": 62
    },
    {
      "midi": 74,
      "hit": false,
      "t": 31840.71088333323,
      "d": 575.2212916666649,
      "v": 69
    },
    {
      "midi": 78,
      "hit": false,
      "t": 31840.71088333323,
      "d": 584.0708499999964,
      "v": 77
    },
    {
      "midi": 67,
      "hit": false,
      "t": 31840.71088333323,
      "d": 601.7699666666631,
      "v": 62
    },
    {
      "midi": 52,
      "hit": false,
      "t": 31876.109116666616,
      "d": 1053.097441666665,
      "v": 69
    },
    {
      "midi": 59,
      "hit": false,
      "t": 31876.109116666616,
      "d": 1079.6461166666631,
      "v": 69
    },
    {
      "midi": 67,
      "hit": false,
      "t": 32938.05611666656,
      "d": 159.29204999999638,
      "v": 38
    },
    {
      "midi": 71,
      "hit": false,
      "t": 32938.05611666656,
      "d": 176.9911666666594,
      "v": 49
    },
    {
      "midi": 73,
      "hit": false,
      "t": 33433.63138333322,
      "d": 168.14160833333153,
      "v": 55
    },
    {
      "midi": 67,
      "hit": false,
      "t": 33460.180058333215,
      "d": 123.89381666667032,
      "v": 34
    },
    {
      "midi": 71,
      "hit": false,
      "t": 33469.02961666655,
      "d": 106.19470000000001,
      "v": 27
    },
    {
      "midi": 67,
      "hit": false,
      "t": 33946.90576666655,
      "d": 610.6195250000019,
      "v": 43
    },
    {
      "midi": 74,
      "hit": false,
      "t": 33955.75532499988,
      "d": 504.4248250000019,
      "v": 49
    },
    {
      "midi": 71,
      "hit": false,
      "t": 33955.75532499988,
      "d": 584.0708500000037,
      "v": 49
    },
    {
      "midi": 52,
      "hit": false,
      "t": 33991.15355833328,
      "d": 1061.9470000000001,
      "v": 55
    },
    {
      "midi": 45,
      "hit": false,
      "t": 34008.852674999944,
      "d": 1044.247883333337,
      "v": 55
    },
    {
      "midi": 76,
      "hit": false,
      "t": 34504.42794166655,
      "d": 168.14160833333153,
      "v": 55
    },
    {
      "midi": 67,
      "hit": false,
      "t": 35026.55188333322,
      "d": 141.59293333333335,
      "v": 49
    },
    {
      "midi": 71,
      "hit": false,
      "t": 35026.55188333322,
      "d": 150.4424916666685,
      "v": 55
    },
    {
      "midi": 57,
      "hit": false,
      "t": 35044.250999999946,
      "d": 185.84072500000184,
      "v": 62
    },
    {
      "midi": 64,
      "hit": false,
      "t": 35053.10055833328,
      "d": 185.84072500000184,
      "v": 62
    },
    {
      "midi": 73,
      "hit": false,
      "t": 35530.97670833322,
      "d": 115.04425833332789,
      "v": 62
    },
    {
      "midi": 67,
      "hit": false,
      "t": 35548.67582499988,
      "d": 70.79646666666667,
      "v": 38
    },
    {
      "midi": 71,
      "hit": false,
      "t": 35548.67582499988,
      "d": 70.79646666666667,
      "v": 43
    },
    {
      "midi": 64,
      "hit": false,
      "t": 35548.67582499995,
      "d": 176.9911666666667,
      "v": 62
    },
    {
      "midi": 57,
      "hit": false,
      "t": 35548.67582499995,
      "d": 185.84072500000184,
      "v": 55
    },
    {
      "midi": 57,
      "hit": false,
      "t": 36070.79976666661,
      "d": 1115.0443499999965,
      "v": 62
    },
    {
      "midi": 64,
      "hit": false,
      "t": 36070.79976666661,
      "d": 1132.7434666666595,
      "v": 62
    },
    {
      "midi": 67,
      "hit": false,
      "t": 36079.64932499988,
      "d": 566.3717333333334,
      "v": 49
    },
    {
      "midi": 71,
      "hit": false,
      "t": 36079.64932499988,
      "d": 575.2212916666685,
      "v": 62
    },
    {
      "midi": 74,
      "hit": false,
      "t": 36079.64932499988,
      "d": 610.6195250000019,
      "v": 55
    },
    {
      "midi": 76,
      "hit": false,
      "t": 36619.47238333322,
      "d": 150.4424916666685,
      "v": 55
    },
    {
      "midi": 67,
      "hit": false,
      "t": 37159.29544166655,
      "d": 106.19470000000001,
      "v": 49
    },
    {
      "midi": 71,
      "hit": false,
      "t": 37159.29544166655,
      "d": 106.19470000000001,
      "v": 62
    },
    {
      "midi": 73,
      "hit": false,
      "t": 37681.41938333322,
      "d": 115.04425833332789,
      "v": 69
    },
    {
      "midi": 71,
      "hit": false,
      "t": 37690.26894166655,
      "d": 88.4955833333297,
      "v": 55
    },
    {
      "midi": 67,
      "hit": false,
      "t": 37690.26894166655,
      "d": 115.04425833332789,
      "v": 49
    },
    {
      "midi": 67,
      "hit": false,
      "t": 38230.09199999988,
      "d": 566.3717333333334,
      "v": 43
    },
    {
      "midi": 74,
      "hit": false,
      "t": 38230.09199999988,
      "d": 575.2212916666685,
      "v": 43
    },
    {
      "midi": 69,
      "hit": false,
      "t": 38230.09199999988,
      "d": 592.9204083333316,
      "v": 43
    },
    {
      "midi": 38,
      "hit": false,
      "t": 38256.64067499994,
      "d": 1115.0443500000038,
      "v": 39
    },
    {
      "midi": 45,
      "hit": false,
      "t": 38256.64067499994,
      "d": 1115.0443500000038,
      "v": 34
    },
    {
      "midi": 66,
      "hit": false,
      "t": 39274.33988333321,
      "d": 398.2301249999946,
      "v": 48
    },
    {
      "midi": 74,
      "hit": false,
      "t": 39300.88855833321,
      "d": 336.28321666666307,
      "v": 43
    },
    {
      "midi": 62,
      "hit": false,
      "t": 39362.835466666605,
      "d": 460.1770333333334,
      "v": 43
    },
    {
      "midi": 69,
      "hit": false,
      "t": 39362.835466666605,
      "d": 469.02659166666854,
      "v": 43
    },
    {
      "midi": 66,
      "hit": false,
      "t": 40088.49924999987,
      "d": 97.34514166666486,
      "v": 43
    },
    {
      "midi": 74,
      "hit": false,
      "t": 40106.19836666653,
      "d": 88.49558333333698,
      "v": 34
    },
    {
      "midi": 69,
      "hit": false,
      "t": 40150.446158333274,
      "d": 97.34514166666486,
      "v": 43
    },
    {
      "midi": 62,
      "hit": false,
      "t": 40159.29571666661,
      "d": 88.4955833333297,
      "v": 34
    },
    {
      "midi": 66,
      "hit": false,
      "t": 40274.33997499987,
      "d": 884.9558333333334,
      "v": 48
    },
    {
      "midi": 74,
      "hit": false,
      "t": 40274.33997499987,
      "d": 893.8053916666686,
      "v": 39
    },
    {
      "midi": 62,
      "hit": false,
      "t": 40353.98599999994,
      "d": 973.4514166666631,
      "v": 43
    },
    {
      "midi": 69,
      "hit": false,
      "t": 40353.98599999994,
      "d": 973.4514166666631,
      "v": 48
    },
    {
      "midi": 57,
      "hit": false,
      "t": 41424.78255833327,
      "d": 132.7433749999982,
      "v": 30
    },
    {
      "midi": 50,
      "hit": false,
      "t": 41424.78255833327,
      "d": 159.29204999999638,
      "v": 30
    },
    {
      "midi": 57,
      "hit": false,
      "t": 41929.20738333326,
      "d": 123.89381666666304,
      "v": 23
    },
    {
      "midi": 50,
      "hit": false,
      "t": 41929.20738333326,
      "d": 150.44249166666123,
      "v": 23
    },
    {
      "midi": 57,
      "hit": false,
      "t": 42469.03044166659,
      "d": 1106.1947916666686,
      "v": 39
    },
    {
      "midi": 50,
      "hit": false,
      "t": 42469.03044166659,
      "d": 1115.0443500000038,
      "v": 39
    },
    {
      "midi": 62,
      "hit": false,
      "t": 43557.52611666654,
      "d": 106.19470000000001,
      "v": 34
    },
    {
      "midi": 69,
      "hit": false,
      "t": 43557.52611666654,
      "d": 141.59293333333335,
      "v": 39
    },
    {
      "midi": 69,
      "hit": false,
      "t": 44053.1013833332,
      "d": 115.04425833333516,
      "v": 39
    },
    {
      "midi": 62,
      "hit": false,
      "t": 44061.95094166654,
      "d": 97.34514166666486,
      "v": 34
    },
    {
      "midi": 62,
      "hit": false,
      "t": 44584.0748833332,
      "d": 1070.7965583333353,
      "v": 49
    },
    {
      "midi": 69,
      "hit": false,
      "t": 44584.0748833332,
      "d": 1079.6461166666704,
      "v": 61
    },
    {
      "midi": 57,
      "hit": false,
      "t": 45690.26967499992,
      "d": 203.53984166666487,
      "v": 44
    },
    {
      "midi": 50,
      "hit": false,
      "t": 45690.26967499992,
      "d": 221.2389583333279,
      "v": 39
    },
    {
      "midi": 50,
      "hit": false,
      "t": 46185.84494166658,
      "d": 168.14160833333153,
      "v": 39
    },
    {
      "midi": 57,
      "hit": false,
      "t": 46194.69449999992,
      "d": 159.29204999999638,
      "v": 39
    },
    {
      "midi": 50,
      "hit": false,
      "t": 46725.66799999991,
      "d": 1079.6461166666631,
      "v": 39
    },
    {
      "midi": 57,
      "hit": false,
      "t": 46725.66799999991,
      "d": 1079.6461166666631,
      "v": 39
    },
    {
      "midi": 69,
      "hit": false,
      "t": 47778.76544166654,
      "d": 123.89381666665577,
      "v": 49
    },
    {
      "midi": 62,
      "hit": false,
      "t": 47796.4645583332,
      "d": 88.4955833333297,
      "v": 44
    },
    {
      "midi": 69,
      "hit": false,
      "t": 48292.03982499986,
      "d": 115.04425833333516,
      "v": 49
    },
    {
      "midi": 62,
      "hit": false,
      "t": 48300.8893833332,
      "d": 106.19470000000001,
      "v": 39
    },
    {
      "midi": 69,
      "hit": false,
      "t": 48805.3142083332,
      "d": 716.8142250000019,
      "v": 61
    },
    {
      "midi": 62,
      "hit": false,
      "t": 48814.163766666534,
      "d": 663.7168749999983,
      "v": 49
    },
    {
      "midi": 57,
      "hit": false,
      "t": 49955.75679166657,
      "d": 176.9911666666667,
      "v": 44
    },
    {
      "midi": 50,
      "hit": false,
      "t": 49964.60634999991,
      "d": 176.9911666666667,
      "v": 44
    },
    {
      "midi": 57,
      "hit": false,
      "t": 50460.181616666574,
      "d": 150.4424916666685,
      "v": 34
    },
    {
      "midi": 50,
      "hit": false,
      "t": 50460.181616666574,
      "d": 176.9911666666667,
      "v": 34
    },
    {
      "midi": 81,
      "hit": false,
      "t": 50504.4294083332,
      "d": 132.7433749999982,
      "v": 34
    },
    {
      "midi": 83,
      "hit": false,
      "t": 50575.225874999865,
      "d": 256.6371916666685,
      "v": 34
    },
    {
      "midi": 81,
      "hit": false,
      "t": 50787.615274999866,
      "d": 230.08851666666305,
      "v": 27
    },
    {
      "midi": 57,
      "hit": false,
      "t": 50955.75688333324,
      "d": 938.0531833333371,
      "v": 44
    },
    {
      "midi": 50,
      "hit": false,
      "t": 50964.606441666576,
      "d": 920.3540666666668,
      "v": 39
    },
    {
      "midi": 78,
      "hit": false,
      "t": 50991.15511666653,
      "d": 486.7257083333243,
      "v": 55
    },
    {
      "midi": 81,
      "hit": false,
      "t": 51460.18170833319,
      "d": 176.9911666666594,
      "v": 44
    },
    {
      "midi": 86,
      "hit": false,
      "t": 51982.30564999985,
      "d": 123.89381666666304,
      "v": 49
    },
    {
      "midi": 78,
      "hit": false,
      "t": 51982.30564999985,
      "d": 176.9911666666594,
      "v": 49
    },
    {
      "midi": 69,
      "hit": false,
      "t": 51991.15520833324,
      "d": 176.9911666666594,
      "v": 49
    },
    {
      "midi": 62,
      "hit": false,
      "t": 52008.854324999906,
      "d": 141.59293333333335,
      "v": 44
    },
    {
      "midi": 90,
      "hit": false,
      "t": 52486.730474999844,
      "d": 123.89381666667032,
      "v": 61
    },
    {
      "midi": 78,
      "hit": false,
      "t": 52495.58003333318,
      "d": 132.7433749999982,
      "v": 49
    },
    {
      "midi": 69,
      "hit": false,
      "t": 52495.58003333324,
      "d": 185.84072500000184,
      "v": 39
    },
    {
      "midi": 62,
      "hit": false,
      "t": 52504.42959166657,
      "d": 150.4424916666685,
      "v": 34
    },
    {
      "midi": 88,
      "hit": false,
      "t": 53008.85441666651,
      "d": 539.8230583333352,
      "v": 49
    },
    {
      "midi": 78,
      "hit": false,
      "t": 53008.85441666651,
      "d": 584.0708499999964,
      "v": 49
    },
    {
      "midi": 62,
      "hit": false,
      "t": 53026.55353333324,
      "d": 946.902741666665,
      "v": 44
    },
    {
      "midi": 69,
      "hit": false,
      "t": 53026.55353333324,
      "d": 955.7523000000001,
      "v": 44
    },
    {
      "midi": 86,
      "hit": false,
      "t": 53575.22614999984,
      "d": 115.04425833332789,
      "v": 49
    },
    {
      "midi": 78,
      "hit": false,
      "t": 54088.50053333317,
      "d": 176.9911666666667,
      "v": 49
    },
    {
      "midi": 57,
      "hit": false,
      "t": 54115.049208333236,
      "d": 150.4424916666685,
      "v": 39
    },
    {
      "midi": 50,
      "hit": false,
      "t": 54115.049208333236,
      "d": 168.14160833333153,
      "v": 39
    },
    {
      "midi": 78,
      "hit": false,
      "t": 54610.62447499984,
      "d": 159.29205000000366,
      "v": 49
    },
    {
      "midi": 81,
      "hit": false,
      "t": 54619.47403333317,
      "d": 159.29205000000366,
      "v": 44
    },
    {
      "midi": 57,
      "hit": false,
      "t": 54646.022708333236,
      "d": 150.4424916666685,
      "v": 34
    },
    {
      "midi": 50,
      "hit": false,
      "t": 54654.87226666657,
      "d": 150.4424916666685,
      "v": 34
    },
    {
      "midi": 78,
      "hit": false,
      "t": 55132.74841666651,
      "d": 752.2124583333352,
      "v": 61
    },
    {
      "midi": 83,
      "hit": false,
      "t": 55141.597974999844,
      "d": 761.0620166666631,
      "v": 55
    },
    {
      "midi": 81,
      "hit": false,
      "t": 55150.44753333318,
      "d": 734.5133416666649,
      "v": 55
    },
    {
      "midi": 57,
      "hit": false,
      "t": 55194.695324999906,
      "d": 1026.5487666666668,
      "v": 55
    },
    {
      "midi": 50,
      "hit": false,
      "t": 55194.695324999906,
      "d": 1035.398325000002,
      "v": 55
    },
    {
      "midi": 78,
      "hit": false,
      "t": 56292.040558333174,
      "d": 477.8761500000037,
      "v": 55
    },
    {
      "midi": 81,
      "hit": false,
      "t": 56300.89011666651,
      "d": 460.1770333333334,
      "v": 49
    },
    {
      "midi": 83,
      "hit": false,
      "t": 56300.89011666651,
      "d": 486.72570833333157,
      "v": 55
    },
    {
      "midi": 69,
      "hit": false,
      "t": 56336.28834999991,
      "d": 495.5752666666667,
      "v": 55
    },
    {
      "midi": 62,
      "hit": false,
      "t": 56345.13790833324,
      "d": 460.1770333333334,
      "v": 49
    },
    {
      "midi": 69,
      "hit": false,
      "t": 57132.748599999904,
      "d": 97.34514166667213,
      "v": 49
    },
    {
      "midi": 78,
      "hit": false,
      "t": 57141.598158333174,
      "d": 123.89381666667032,
      "v": 49
    },
    {
      "midi": 62,
      "hit": false,
      "t": 57141.59815833324,
      "d": 79.64602500000183,
      "v": 39
    },
    {
      "midi": 81,
      "hit": false,
      "t": 57150.44771666651,
      "d": 115.04425833333516,
      "v": 44
    },
    {
      "midi": 83,
      "hit": false,
      "t": 57150.44771666651,
      "d": 115.04425833333516,
      "v": 49
    },
    {
      "midi": 69,
      "hit": false,
      "t": 57327.43888333324,
      "d": 955.7523000000001,
      "v": 69
    },
    {
      "midi": 62,
      "hit": false,
      "t": 57336.28844166658,
      "d": 929.2036250000019,
      "v": 55
    },
    {
      "midi": 78,
      "hit": false,
      "t": 57345.137999999846,
      "d": 548.6726166666631,
      "v": 55
    },
    {
      "midi": 81,
      "hit": false,
      "t": 57353.98755833318,
      "d": 504.4248250000019,
      "v": 44
    },
    {
      "midi": 83,
      "hit": false,
      "t": 57353.98755833318,
      "d": 522.1239416666649,
      "v": 44
    },
    {
      "midi": 78,
      "hit": false,
      "t": 58380.53632499984,
      "d": 185.84072500000184,
      "v": 61
    },
    {
      "midi": 74,
      "hit": false,
      "t": 58389.385883333176,
      "d": 168.14160833333153,
      "v": 49
    },
    {
      "midi": 80,
      "hit": false,
      "t": 58884.96114999984,
      "d": 150.4424916666685,
      "v": 49
    },
    {
      "midi": 78,
      "hit": false,
      "t": 58893.81070833318,
      "d": 115.04425833333516,
      "v": 49
    },
    {
      "midi": 74,
      "hit": false,
      "t": 58893.81070833318,
      "d": 123.89381666667032,
      "v": 39
    },
    {
      "midi": 78,
      "hit": false,
      "t": 59442.48332499984,
      "d": 575.2212916666685,
      "v": 55
    },
    {
      "midi": 81,
      "hit": false,
      "t": 59442.48332499984,
      "d": 584.0708500000037,
      "v": 49
    },
    {
      "midi": 74,
      "hit": false,
      "t": 59451.332883333176,
      "d": 557.5221749999982,
      "v": 49
    },
    {
      "midi": 54,
      "hit": false,
      "t": 59460.18244166658,
      "d": 929.2036249999946,
      "v": 55
    },
    {
      "midi": 47,
      "hit": false,
      "t": 59477.88155833324,
      "d": 893.8053916666686,
      "v": 39
    },
    {
      "midi": 83,
      "hit": false,
      "t": 59991.15594166651,
      "d": 150.4424916666685,
      "v": 44
    },
    {
      "midi": 78,
      "hit": false,
      "t": 60513.279883333176,
      "d": 132.7433749999982,
      "v": 55
    },
    {
      "midi": 66,
      "hit": false,
      "t": 60513.279883333234,
      "d": 212.38939999999275,
      "v": 61
    },
    {
      "midi": 74,
      "hit": false,
      "t": 60522.12944166651,
      "d": 141.59293333332607,
      "v": 44
    },
    {
      "midi": 59,
      "hit": false,
      "t": 60530.9789999999,
      "d": 230.08851666666305,
      "v": 39
    },
    {
      "midi": 78,
      "hit": false,
      "t": 61017.70470833317,
      "d": 97.34514166666486,
      "v": 49
    },
    {
      "midi": 80,
      "hit": false,
      "t": 61017.70470833317,
      "d": 106.19470000000001,
      "v": 55
    },
    {
      "midi": 66,
      "hit": false,
      "t": 61017.70470833323,
      "d": 212.38940000000002,
      "v": 61
    },
    {
      "midi": 74,
      "hit": false,
      "t": 61026.554266666506,
      "d": 97.34514166666486,
      "v": 44
    },
    {
      "midi": 59,
      "hit": false,
      "t": 61026.554266666564,
      "d": 194.69028333332972,
      "v": 44
    },
    {
      "midi": 78,
      "hit": false,
      "t": 61530.9790916665,
      "d": 601.7699666666667,
      "v": 55
    },
    {
      "midi": 74,
      "hit": false,
      "t": 61539.828649999836,
      "d": 566.3717333333334,
      "v": 49
    },
    {
      "midi": 81,
      "hit": false,
      "t": 61539.828649999836,
      "d": 619.4690833333298,
      "v": 49
    },
    {
      "midi": 52,
      "hit": false,
      "t": 61539.828649999894,
      "d": 805.3098083333316,
      "v": 44
    },
    {
      "midi": 59,
      "hit": false,
      "t": 61566.37732499989,
      "d": 858.4071583333352,
      "v": 44
    },
    {
      "midi": 83,
      "hit": false,
      "t": 62079.65170833317,
      "d": 150.44249166666123,
      "v": 49
    },
    {
      "midi": 78,
      "hit": false,
      "t": 62592.9260916665,
      "d": 79.64602500000183,
      "v": 55
    },
    {
      "midi": 74,
      "hit": false,
      "t": 62592.9260916665,
      "d": 97.34514166666486,
      "v": 44
    },
    {
      "midi": 71,
      "hit": false,
      "t": 62619.47476666656,
      "d": 238.9380749999982,
      "v": 49
    },
    {
      "midi": 64,
      "hit": false,
      "t": 62628.32432499989,
      "d": 203.53984166666487,
      "v": 49
    },
    {
      "midi": 78,
      "hit": false,
      "t": 63106.20047499983,
      "d": 88.49558333333698,
      "v": 55
    },
    {
      "midi": 80,
      "hit": false,
      "t": 63106.20047499983,
      "d": 106.19470000000001,
      "v": 55
    },
    {
      "midi": 74,
      "hit": false,
      "t": 63115.050033333166,
      "d": 97.34514166666486,
      "v": 39
    },
    {
      "midi": 64,
      "hit": false,
      "t": 63150.44826666656,
      "d": 194.69028333332972,
      "v": 55
    },
    {
      "midi": 71,
      "hit": false,
      "t": 63150.44826666656,
      "d": 212.38939999999275,
      "v": 55
    },
    {
      "midi": 74,
      "hit": false,
      "t": 63663.72264999983,
      "d": 610.6195250000019,
      "v": 61
    },
    {
      "midi": 76,
      "hit": false,
      "t": 63663.72264999983,
      "d": 628.3186416666649,
      "v": 61
    },
    {
      "midi": 81,
      "hit": false,
      "t": 63663.72264999983,
      "d": 628.3186416666649,
      "v": 61
    },
    {
      "midi": 57,
      "hit": false,
      "t": 63690.271324999885,
      "d": 787.6106916666686,
      "v": 44
    },
    {
      "midi": 64,
      "hit": false,
      "t": 63699.12088333322,
      "d": 716.8142250000019,
      "v": 55
    },
    {
      "midi": 73,
      "hit": false,
      "t": 64734.51920833316,
      "d": 486.72570833333157,
      "v": 61
    },
    {
      "midi": 81,
      "hit": false,
      "t": 64743.36876666649,
      "d": 504.4248249999946,
      "v": 55
    },
    {
      "midi": 69,
      "hit": false,
      "t": 64796.466116666554,
      "d": 504.4248250000019,
      "v": 55
    },
    {
      "midi": 76,
      "hit": false,
      "t": 64805.31567499989,
      "d": 522.1239416666649,
      "v": 55
    },
    {
      "midi": 73,
      "hit": false,
      "t": 65584.07680833315,
      "d": 88.49558333332243,
      "v": 55
    },
    {
      "midi": 81,
      "hit": false,
      "t": 65592.92636666648,
      "d": 97.34514166666486,
      "v": 49
    },
    {
      "midi": 69,
      "hit": false,
      "t": 65592.92636666655,
      "d": 106.19469999999274,
      "v": 49
    },
    {
      "midi": 76,
      "hit": false,
      "t": 65592.92636666655,
      "d": 115.04425833332061,
      "v": 49
    },
    {
      "midi": 73,
      "hit": false,
      "t": 65778.76709166648,
      "d": 734.5133416666649,
      "v": 69
    },
    {
      "midi": 81,
      "hit": false,
      "t": 65778.76709166648,
      "d": 805.3098083333316,
      "v": 55
    },
    {
      "midi": 69,
      "hit": false,
      "t": 65814.16532499986,
      "d": 1044.2478833333298,
      "v": 55
    },
    {
      "midi": 76,
      "hit": false,
      "t": 65814.16532499986,
      "d": 1044.2478833333298,
      "v": 55
    },
    {
      "midi": 85,
      "hit": false,
      "t": 67380.53714999981,
      "d": 150.44249166666123,
      "v": 49
    },
    {
      "midi": 86,
      "hit": false,
      "t": 67548.67875833315,
      "d": 212.38940000000002,
      "v": 18
    },
    {
      "midi": 85,
      "hit": false,
      "t": 67716.82036666648,
      "d": 168.14160833333153,
      "v": 55
    },
    {
      "midi": 83,
      "hit": false,
      "t": 67902.66109166648,
      "d": 522.1239416666649,
      "v": 49
    },
    {
      "midi": 55,
      "hit": false,
      "t": 67911.51064999987,
      "d": 548.6726166666631,
      "v": 49
    },
    {
      "midi": 62,
      "hit": false,
      "t": 67911.51064999987,
      "d": 584.0708499999892,
      "v": 55
    },
    {
      "midi": 86,
      "hit": false,
      "t": 68389.38679999982,
      "d": 194.69028333332972,
      "v": 39
    },
    {
      "midi": 83,
      "hit": false,
      "t": 68893.81162499981,
      "d": 185.84072500000184,
      "v": 49
    },
    {
      "midi": 91,
      "hit": false,
      "t": 68893.81162499981,
      "d": 221.2389583333279,
      "v": 55
    },
    {
      "midi": 67,
      "hit": false,
      "t": 68955.75853333318,
      "d": 194.69028333332972,
      "v": 44
    },
    {
      "midi": 74,
      "hit": false,
      "t": 68955.75853333318,
      "d": 230.08851666665578,
      "v": 49
    },
    {
      "midi": 95,
      "hit": false,
      "t": 69407.08600833314,
      "d": 141.59293333333335,
      "v": 61
    },
    {
      "midi": 83,
      "hit": false,
      "t": 69407.08600833314,
      "d": 176.9911666666594,
      "v": 49
    },
    {
      "midi": 67,
      "hit": false,
      "t": 69460.18335833318,
      "d": 141.59293333333335,
      "v": 39
    },
    {
      "midi": 74,
      "hit": false,
      "t": 69460.18335833318,
      "d": 159.29205000000366,
      "v": 39
    },
    {
      "midi": 83,
      "hit": false,
      "t": 69955.7586249998,
      "d": 584.0708499999892,
      "v": 49
    },
    {
      "midi": 67,
      "hit": false,
      "t": 69955.75862499984,
      "d": 716.8142249999946,
      "v": 34
    },
    {
      "midi": 74,
      "hit": false,
      "t": 69955.75862499984,
      "d": 725.6637833333225,
      "v": 34
    },
    {
      "midi": 93,
      "hit": false,
      "t": 69964.60818333313,
      "d": 522.1239416666649,
      "v": 61
    },
    {
      "midi": 91,
      "hit": false,
      "t": 70495.58168333312,
      "d": 97.34514166666486,
      "v": 44
    },
    {
      "midi": 83,
      "hit": false,
      "t": 71035.40474166645,
      "d": 168.14160833333153,
      "v": 49
    },
    {
      "midi": 79,
      "hit": false,
      "t": 71035.40474166645,
      "d": 185.84072500000184,
      "v": 39
    },
    {
      "midi": 86,
      "hit": false,
      "t": 71566.37824166646,
      "d": 168.14160833333153,
      "v": 49
    },
    {
      "midi": 79,
      "hit": false,
      "t": 71575.22779999979,
      "d": 115.04425833333516,
      "v": 44
    },
    {
      "midi": 83,
      "hit": false,
      "t": 71575.22779999979,
      "d": 132.74337500000547,
      "v": 44
    },
    {
      "midi": 90,
      "hit": false,
      "t": 72115.05085833312,
      "d": 725.6637833333225,
      "v": 69
    },
    {
      "midi": 83,
      "hit": false,
      "t": 72123.90041666645,
      "d": 725.6637833333225,
      "v": 55
    },
    {
      "midi": 79,
      "hit": false,
      "t": 72123.90041666645,
      "d": 743.3628999999928,
      "v": 55
    },
    {
      "midi": 86,
      "hit": false,
      "t": 72123.90041666645,
      "d": 743.3628999999928,
      "v": 55
    },
    {
      "midi": 59,
      "hit": false,
      "t": 72221.24555833316,
      "d": 690.2655499999964,
      "v": 44
    },
    {
      "midi": 52,
      "hit": false,
      "t": 72247.79423333316,
      "d": 628.3186416666722,
      "v": 44
    },
    {
      "midi": 90,
      "hit": false,
      "t": 73292.04211666645,
      "d": 389.38056666665943,
      "v": 69
    },
    {
      "midi": 83,
      "hit": false,
      "t": 73309.74123333312,
      "d": 362.83189166666125,
      "v": 55
    },
    {
      "midi": 86,
      "hit": false,
      "t": 73309.74123333312,
      "d": 389.38056666665943,
      "v": 49
    },
    {
      "midi": 79,
      "hit": false,
      "t": 73309.74123333312,
      "d": 415.9292416666576,
      "v": 49
    },
    {
      "midi": 71,
      "hit": false,
      "t": 73309.74123333316,
      "d": 557.522174999991,
      "v": 44
    },
    {
      "midi": 64,
      "hit": false,
      "t": 73318.59079166649,
      "d": 530.9734999999928,
      "v": 49
    },
    {
      "midi": 90,
      "hit": false,
      "t": 74106.2014833331,
      "d": 115.04425833332061,
      "v": 61
    },
    {
      "midi": 71,
      "hit": false,
      "t": 74106.20148333315,
      "d": 106.19469999999274,
      "v": 55
    },
    {
      "midi": 79,
      "hit": false,
      "t": 74115.05104166643,
      "d": 106.19469999999274,
      "v": 44
    },
    {
      "midi": 64,
      "hit": false,
      "t": 74115.05104166648,
      "d": 106.19469999999274,
      "v": 39
    },
    {
      "midi": 83,
      "hit": false,
      "t": 74123.90059999976,
      "d": 123.89381666666304,
      "v": 44
    },
    {
      "midi": 86,
      "hit": false,
      "t": 74123.90059999976,
      "d": 132.74337499999092,
      "v": 44
    },
    {
      "midi": 83,
      "hit": false,
      "t": 74318.59088333309,
      "d": 628.3186416666722,
      "v": 44
    },
    {
      "midi": 86,
      "hit": false,
      "t": 74318.59088333309,
      "d": 628.3186416666722,
      "v": 49
    },
    {
      "midi": 90,
      "hit": false,
      "t": 74318.59088333309,
      "d": 628.3186416666722,
      "v": 69
    },
    {
      "midi": 79,
      "hit": false,
      "t": 74318.59088333309,
      "d": 672.5664333333407,
      "v": 44
    },
    {
      "midi": 64,
      "hit": false,
      "t": 74318.59088333313,
      "d": 1070.796558333328,
      "v": 61
    },
    {
      "midi": 71,
      "hit": false,
      "t": 74318.59088333313,
      "d": 1088.4956749999983,
      "v": 55
    },
    {
      "midi": 79,
      "hit": false,
      "t": 75371.68832499976,
      "d": 212.38940000000002,
      "v": 44
    },
    {
      "midi": 83,
      "hit": false,
      "t": 75371.68832499976,
      "d": 221.2389583333279,
      "v": 49
    },
    {
      "midi": 85,
      "hit": false,
      "t": 75884.96270833309,
      "d": 176.9911666666594,
      "v": 55
    },
    {
      "midi": 79,
      "hit": false,
      "t": 75902.66182499976,
      "d": 150.44249166666123,
      "v": 39
    },
    {
      "midi": 83,
      "hit": false,
      "t": 75911.51138333308,
      "d": 150.44249166666123,
      "v": 39
    },
    {
      "midi": 79,
      "hit": false,
      "t": 76398.23709166641,
      "d": 575.2212916666613,
      "v": 44
    },
    {
      "midi": 83,
      "hit": false,
      "t": 76398.23709166641,
      "d": 601.7699666666595,
      "v": 49
    },
    {
      "midi": 86,
      "hit": false,
      "t": 76398.23709166641,
      "d": 646.017758333328,
      "v": 49
    },
    {
      "midi": 64,
      "hit": false,
      "t": 76433.63532499979,
      "d": 690.2655499999964,
      "v": 49
    },
    {
      "midi": 57,
      "hit": false,
      "t": 76451.33444166646,
      "d": 619.4690833333298,
      "v": 44
    },
    {
      "midi": 88,
      "hit": false,
      "t": 76938.06014999974,
      "d": 194.69028333332972,
      "v": 55
    },
    {
      "midi": 79,
      "hit": false,
      "t": 77460.18409166641,
      "d": 159.29205000000366,
      "v": 44
    },
    {
      "midi": 83,
      "hit": false,
      "t": 77460.18409166641,
      "d": 168.14160833333153,
      "v": 49
    },
    {
      "midi": 76,
      "hit": false,
      "t": 77539.83011666646,
      "d": 221.2389583333279,
      "v": 44
    },
    {
      "midi": 69,
      "hit": false,
      "t": 77548.67967499979,
      "d": 185.84072500000184,
      "v": 44
    },
    {
      "midi": 85,
      "hit": false,
      "t": 78000.00714999974,
      "d": 168.14160833333153,
      "v": 61
    },
    {
      "midi": 79,
      "hit": false,
      "t": 78008.85670833307,
      "d": 141.59293333333335,
      "v": 44
    },
    {
      "midi": 83,
      "hit": false,
      "t": 78017.7062666664,
      "d": 150.44249166667578,
      "v": 44
    },
    {
      "midi": 69,
      "hit": false,
      "t": 78053.10449999978,
      "d": 194.69028333332972,
      "v": 39
    },
    {
      "midi": 76,
      "hit": false,
      "t": 78053.10449999978,
      "d": 212.38940000000002,
      "v": 39
    },
    {
      "midi": 79,
      "hit": false,
      "t": 78548.6797666664,
      "d": 575.2212916666613,
      "v": 44
    },
    {
      "midi": 83,
      "hit": false,
      "t": 78548.6797666664,
      "d": 601.7699666666595,
      "v": 49
    },
    {
      "midi": 86,
      "hit": false,
      "t": 78548.6797666664,
      "d": 637.1681999999855,
      "v": 49
    },
    {
      "midi": 76,
      "hit": false,
      "t": 78557.52932499978,
      "d": 1115.0443499999965,
      "v": 49
    },
    {
      "midi": 69,
      "hit": false,
      "t": 78566.3788833331,
      "d": 1079.6461166666704,
      "v": 44
    },
    {
      "midi": 88,
      "hit": false,
      "t": 79097.35238333307,
      "d": 185.8407249999873,
      "v": 49
    },
    {
      "midi": 83,
      "hit": false,
      "t": 79628.32588333306,
      "d": 194.69028333332972,
      "v": 55
    },
    {
      "midi": 79,
      "hit": false,
      "t": 79637.17544166639,
      "d": 159.29205000000366,
      "v": 44
    },
    {
      "midi": 85,
      "hit": false,
      "t": 80132.75070833306,
      "d": 185.8407249999873,
      "v": 61
    },
    {
      "midi": 79,
      "hit": false,
      "t": 80150.44982499973,
      "d": 203.53984166664304,
      "v": 39
    },
    {
      "midi": 83,
      "hit": false,
      "t": 80176.99849999973,
      "d": 35.39823333332606,
      "v": 15
    },
    {
      "midi": 79,
      "hit": false,
      "t": 80672.57376666636,
      "d": 619.4690833333298,
      "v": 49
    },
    {
      "midi": 86,
      "hit": false,
      "t": 80672.57376666636,
      "d": 619.4690833333298,
      "v": 61
    },
    {
      "midi": 69,
      "hit": false,
      "t": 80681.42332499978,
      "d": 707.9646666666522,
      "v": 55
    },
    {
      "midi": 81,
      "hit": false,
      "t": 80690.27288333303,
      "d": 646.017758333328,
      "v": 55
    },
    {
      "midi": 62,
      "hit": false,
      "t": 80690.2728833331,
      "d": 646.017758333328,
      "v": 55
    },
    {
      "midi": 86,
      "hit": false,
      "t": 81743.37032499969,
      "d": 495.5752666666667,
      "v": 64
    },
    {
      "midi": 78,
      "hit": false,
      "t": 81743.37032499969,
      "d": 504.4248249999946,
      "v": 68
    },
    {
      "midi": 74,
      "hit": false,
      "t": 81814.16679166643,
      "d": 424.77880000000005,
      "v": 64
    },
    {
      "midi": 81,
      "hit": false,
      "t": 81814.16679166643,
      "d": 477.8761499999964,
      "v": 60
    },
    {
      "midi": 78,
      "hit": false,
      "t": 82584.07836666635,
      "d": 97.34514166666486,
      "v": 64
    },
    {
      "midi": 86,
      "hit": false,
      "t": 82584.07836666635,
      "d": 132.74337499999092,
      "v": 60
    },
    {
      "midi": 81,
      "hit": false,
      "t": 82654.87483333309,
      "d": 123.89381666664849,
      "v": 57
    },
    {
      "midi": 74,
      "hit": false,
      "t": 82663.72439166642,
      "d": 106.19469999999274,
      "v": 60
    },
    {
      "midi": 86,
      "hit": false,
      "t": 82778.76864999968,
      "d": 893.805391666654,
      "v": 57
    },
    {
      "midi": 78,
      "hit": false,
      "t": 82787.618208333,
      "d": 831.8584833333298,
      "v": 68
    },
    {
      "midi": 74,
      "hit": false,
      "t": 82867.26423333307,
      "d": 1035.398325000002,
      "v": 64
    },
    {
      "midi": 81,
      "hit": false,
      "t": 82867.26423333307,
      "d": 1070.796558333328,
      "v": 68
    },
    {
      "midi": 52,
      "hit": false,
      "t": 85008.85734999973,
      "d": 761.0620166666631,
      "v": 85
    },
    {
      "midi": 45,
      "hit": false,
      "t": 85017.70690833306,
      "d": 734.5133416666649,
      "v": 85
    },
    {
      "midi": 45,
      "hit": false,
      "t": 86017.70699999972,
      "d": 132.74337500000547,
      "v": 69
    },
    {
      "midi": 52,
      "hit": false,
      "t": 86017.70699999972,
      "d": 132.74337500000547,
      "v": 69
    },
    {
      "midi": 45,
      "hit": false,
      "t": 86513.28226666639,
      "d": 150.44249166667578,
      "v": 54
    },
    {
      "midi": 52,
      "hit": false,
      "t": 86530.98138333306,
      "d": 115.04425833333516,
      "v": 54
    },
    {
      "midi": 45,
      "hit": false,
      "t": 87044.25576666639,
      "d": 823.0089250000019,
      "v": 99
    },
    {
      "midi": 52,
      "hit": false,
      "t": 87044.25576666639,
      "d": 867.2567166666704,
      "v": 99
    },
    {
      "midi": 45,
      "hit": false,
      "t": 88141.60099999973,
      "d": 150.44249166666123,
      "v": 64
    },
    {
      "midi": 52,
      "hit": false,
      "t": 88150.45055833306,
      "d": 123.89381666666304,
      "v": 64
    },
    {
      "midi": 45,
      "hit": false,
      "t": 88637.1762666664,
      "d": 123.89381666666304,
      "v": 57
    },
    {
      "midi": 52,
      "hit": false,
      "t": 88646.02582499973,
      "d": 115.04425833333516,
      "v": 54
    },
    {
      "midi": 61,
      "hit": false,
      "t": 89150.45064999966,
      "d": 238.9380749999982,
      "v": 91
    },
    {
      "midi": 64,
      "hit": false,
      "t": 89150.45064999966,
      "d": 681.4159916666686,
      "v": 79
    },
    {
      "midi": 52,
      "hit": false,
      "t": 89185.84888333306,
      "d": 787.6106916666613,
      "v": 79
    },
    {
      "midi": 45,
      "hit": false,
      "t": 89185.84888333306,
      "d": 796.4602499999892,
      "v": 91
    },
    {
      "midi": 59,
      "hit": false,
      "t": 89380.53916666633,
      "d": 212.38940000000002,
      "v": 64
    },
    {
      "midi": 61,
      "hit": false,
      "t": 89619.47724166633,
      "d": 274.3363083333388,
      "v": 60
    },
    {
      "midi": 57,
      "hit": false,
      "t": 89893.81354999967,
      "d": 176.9911666666594,
      "v": 64
    },
    {
      "midi": 66,
      "hit": false,
      "t": 90176.99941666632,
      "d": 584.0708500000037,
      "v": 91
    },
    {
      "midi": 62,
      "hit": false,
      "t": 90185.84897499965,
      "d": 557.5221750000055,
      "v": 79
    },
    {
      "midi": 45,
      "hit": false,
      "t": 90238.94632499972,
      "d": 141.5929333333188,
      "v": 69
    },
    {
      "midi": 52,
      "hit": false,
      "t": 90247.79588333305,
      "d": 123.89381666666304,
      "v": 64
    },
    {
      "midi": 59,
      "hit": false,
      "t": 90725.67203333299,
      "d": 327.4336583333352,
      "v": 74
    },
    {
      "midi": 52,
      "hit": false,
      "t": 90743.3711499997,
      "d": 185.84072500000184,
      "v": 69
    },
    {
      "midi": 45,
      "hit": false,
      "t": 90743.3711499997,
      "d": 203.53984166667215,
      "v": 64
    },
    {
      "midi": 61,
      "hit": false,
      "t": 91274.34464999965,
      "d": 256.63719166665396,
      "v": 85
    },
    {
      "midi": 64,
      "hit": false,
      "t": 91274.34464999965,
      "d": 752.2124583333207,
      "v": 74
    },
    {
      "midi": 45,
      "hit": false,
      "t": 91300.8933249997,
      "d": 805.3098083333316,
      "v": 79
    },
    {
      "midi": 52,
      "hit": false,
      "t": 91309.74288333303,
      "d": 805.3098083333316,
      "v": 79
    },
    {
      "midi": 59,
      "hit": false,
      "t": 91495.58360833298,
      "d": 292.0354249999946,
      "v": 64
    },
    {
      "midi": 61,
      "hit": false,
      "t": 91761.07035833297,
      "d": 283.1858666666667,
      "v": 74
    },
    {
      "midi": 57,
      "hit": false,
      "t": 92026.55710833297,
      "d": 185.84072500000184,
      "v": 64
    },
    {
      "midi": 62,
      "hit": false,
      "t": 92327.44209166631,
      "d": 592.9204083333316,
      "v": 85
    },
    {
      "midi": 66,
      "hit": false,
      "t": 92327.44209166631,
      "d": 646.017758333328,
      "v": 99
    },
    {
      "midi": 45,
      "hit": false,
      "t": 92362.84032499969,
      "d": 132.74337499999092,
      "v": 69
    },
    {
      "midi": 52,
      "hit": false,
      "t": 92371.68988333302,
      "d": 123.89381666666304,
      "v": 64
    },
    {
      "midi": 52,
      "hit": false,
      "t": 92858.41559166634,
      "d": 159.29205000000366,
      "v": 69
    },
    {
      "midi": 45,
      "hit": false,
      "t": 92858.41559166634,
      "d": 185.84072500000184,
      "v": 69
    },
    {
      "midi": 59,
      "hit": false,
      "t": 92893.81382499964,
      "d": 141.59293333333335,
      "v": 79
    },
    {
      "midi": 68,
      "hit": false,
      "t": 93513.28290833301,
      "d": 973.4514166666631,
      "v": 53
    },
    {
      "midi": 78,
      "hit": false,
      "t": 93973.45994166631,
      "d": 123.89381666666304,
      "v": 46
    },
    {
      "midi": 74,
      "hit": false,
      "t": 93973.45994166631,
      "d": 336.28321666666307,
      "v": 43
    },
    {
      "midi": 80,
      "hit": false,
      "t": 94097.35375833297,
      "d": 274.3363083333388,
      "v": 40
    },
    {
      "midi": 78,
      "hit": false,
      "t": 94300.89359999965,
      "d": 132.74337500000547,
      "v": 43
    },
    {
      "midi": 76,
      "hit": false,
      "t": 94504.43344166632,
      "d": 123.89381666666304,
      "v": 53
    },
    {
      "midi": 73,
      "hit": false,
      "t": 94522.13255833299,
      "d": 106.19469999999274,
      "v": 49
    },
    {
      "midi": 69,
      "hit": false,
      "t": 94584.07946666634,
      "d": 159.29205000000366,
      "v": 49
    },
    {
      "midi": 73,
      "hit": false,
      "t": 95026.55738333298,
      "d": 132.74337499999092,
      "v": 53
    },
    {
      "midi": 76,
      "hit": false,
      "t": 95035.40694166631,
      "d": 115.04425833333516,
      "v": 46
    },
    {
      "midi": 69,
      "hit": false,
      "t": 95061.95561666634,
      "d": 141.59293333333335,
      "v": 46
    },
    {
      "midi": 73,
      "hit": false,
      "t": 95566.3804416663,
      "d": 1663.7169666666596,
      "v": 57
    },
    {
      "midi": 76,
      "hit": false,
      "t": 95575.22999999963,
      "d": 1619.4691750000056,
      "v": 53
    },
    {
      "midi": 69,
      "hit": false,
      "t": 95575.22999999968,
      "d": 2318.58428333333,
      "v": 49
    },
    {
      "midi": 60,
      "hit": false,
      "t": 97716.8231166663,
      "d": 601.7699666666595,
      "v": 39
    },
    {
      "midi": 64,
      "hit": false,
      "t": 97725.67267499963,
      "d": 610.6195250000019,
      "v": 44
    },
    {
      "midi": 56,
      "hit": false,
      "t": 97823.01781666634,
      "d": 1053.0974416666577,
      "v": 61
    },
    {
      "midi": 68,
      "hit": false,
      "t": 98840.71702499967,
      "d": 132.74337499999092,
      "v": 55
    },
    {
      "midi": 76,
      "hit": false,
      "t": 98849.56658333297,
      "d": 168.14160833333153,
      "v": 44
    },
    {
      "midi": 72,
      "hit": false,
      "t": 98858.4161416663,
      "d": 141.59293333333335,
      "v": 44
    },
    {
      "midi": 72,
      "hit": false,
      "t": 99327.44273333297,
      "d": 141.59293333333335,
      "v": 39
    },
    {
      "midi": 76,
      "hit": false,
      "t": 99336.2922916663,
      "d": 141.59293333333335,
      "v": 39
    },
    {
      "midi": 68,
      "hit": false,
      "t": 99336.29229166632,
      "d": 123.89381666666304,
      "v": 55
    },
    {
      "midi": 72,
      "hit": false,
      "t": 99858.41623333296,
      "d": 513.274383333337,
      "v": 44
    },
    {
      "midi": 76,
      "hit": false,
      "t": 99876.11534999963,
      "d": 513.274383333337,
      "v": 39
    },
    {
      "midi": 68,
      "hit": false,
      "t": 99876.11534999966,
      "d": 1230.0886083333316,
      "v": 55
    },
    {
      "midi": 76,
      "hit": false,
      "t": 100876.1154416663,
      "d": 176.9911666666594,
      "v": 39
    },
    {
      "midi": 72,
      "hit": false,
      "t": 100884.96499999963,
      "d": 203.5398416666576,
      "v": 30
    },
    {
      "midi": 72,
      "hit": false,
      "t": 101407.08894166628,
      "d": 115.04425833333516,
      "v": 30
    },
    {
      "midi": 76,
      "hit": false,
      "t": 101407.08894166628,
      "d": 115.04425833333516,
      "v": 39
    },
    {
      "midi": 77,
      "hit": false,
      "t": 101407.08894166628,
      "d": 141.59293333333335,
      "v": 44
    },
    {
      "midi": 79,
      "hit": false,
      "t": 101902.66420833295,
      "d": 628.3186416666576,
      "v": 44
    },
    {
      "midi": 76,
      "hit": false,
      "t": 101920.36332499962,
      "d": 619.4690833333152,
      "v": 44
    },
    {
      "midi": 72,
      "hit": false,
      "t": 101920.36332499962,
      "d": 628.3186416666431,
      "v": 34
    },
    {
      "midi": 43,
      "hit": false,
      "t": 101920.36332499965,
      "d": 318.58409999999276,
      "v": 44
    },
    {
      "midi": 52,
      "hit": false,
      "t": 101920.36332499965,
      "d": 336.28321666666307,
      "v": 49
    },
    {
      "midi": 55,
      "hit": false,
      "t": 102185.85007499965,
      "d": 309.7345416666649,
      "v": 39
    },
    {
      "midi": 60,
      "hit": false,
      "t": 102433.63770833297,
      "d": 283.1858666666667,
      "v": 44
    },
    {
      "midi": 81,
      "hit": false,
      "t": 102451.33682499961,
      "d": 221.23895833331335,
      "v": 44
    },
    {
      "midi": 64,
      "hit": false,
      "t": 102690.27489999964,
      "d": 176.9911666666594,
      "v": 44
    },
    {
      "midi": 76,
      "hit": false,
      "t": 102946.91209166627,
      "d": 176.9911666666594,
      "v": 44
    },
    {
      "midi": 72,
      "hit": false,
      "t": 102955.7616499996,
      "d": 168.14160833333153,
      "v": 34
    },
    {
      "midi": 77,
      "hit": false,
      "t": 103469.03603333293,
      "d": 159.29205000000366,
      "v": 44
    },
    {
      "midi": 76,
      "hit": false,
      "t": 103477.88559166626,
      "d": 132.74337500000547,
      "v": 39
    },
    {
      "midi": 72,
      "hit": false,
      "t": 103477.88559166626,
      "d": 159.29205000000366,
      "v": 39
    },
    {
      "midi": 77,
      "hit": false,
      "t": 104000.00953333292,
      "d": 654.8673166666704,
      "v": 49
    },
    {
      "midi": 79,
      "hit": false,
      "t": 104000.00953333292,
      "d": 681.4159916666686,
      "v": 44
    },
    {
      "midi": 71,
      "hit": false,
      "t": 104000.00953333292,
      "d": 716.8142249999946,
      "v": 44
    },
    {
      "midi": 43,
      "hit": false,
      "t": 104053.10688333296,
      "d": 371.6814500000037,
      "v": 49
    },
    {
      "midi": 50,
      "hit": false,
      "t": 104053.10688333296,
      "d": 371.6814500000037,
      "v": 49
    },
    {
      "midi": 55,
      "hit": false,
      "t": 104309.74407499963,
      "d": 362.83189166666125,
      "v": 34
    },
    {
      "midi": 81,
      "hit": false,
      "t": 104584.08038333293,
      "d": 132.74337499999092,
      "v": 55
    },
    {
      "midi": 59,
      "hit": false,
      "t": 104592.9299416663,
      "d": 256.6371916666685,
      "v": 39
    },
    {
      "midi": 62,
      "hit": false,
      "t": 104831.8680166663,
      "d": 176.99116666667396,
      "v": 44
    },
    {
      "midi": 76,
      "hit": false,
      "t": 105115.05388333292,
      "d": 300.88498333335156,
      "v": 49
    },
    {
      "midi": 67,
      "hit": false,
      "t": 105132.75299999959,
      "d": 203.53984166667215,
      "v": 44
    },
    {
      "midi": 71,
      "hit": false,
      "t": 105132.75299999959,
      "d": 221.23895833334245,
      "v": 49
    },
    {
      "midi": 67,
      "hit": false,
      "t": 105654.87694166627,
      "d": 115.04425833333516,
      "v": 44
    },
    {
      "midi": 71,
      "hit": false,
      "t": 105654.87694166627,
      "d": 123.89381666666304,
      "v": 55
    },
    {
      "midi": 74,
      "hit": false,
      "t": 105654.87694166627,
      "d": 159.2920499999891,
      "v": 49
    },
    {
      "midi": 74,
      "hit": false,
      "t": 106212.39911666626,
      "d": 601.7699666666595,
      "v": 55
    },
    {
      "midi": 64,
      "hit": false,
      "t": 106212.39911666626,
      "d": 743.3628999999928,
      "v": 55
    },
    {
      "midi": 43,
      "hit": false,
      "t": 106221.24867499963,
      "d": 1053.0974416666577,
      "v": 44
    },
    {
      "midi": 36,
      "hit": false,
      "t": 106230.09823333296,
      "d": 1053.0974416666577,
      "v": 44
    },
    {
      "midi": 72,
      "hit": false,
      "t": 106761.07173333292,
      "d": 221.2389583333279,
      "v": 49
    },
    {
      "midi": 64,
      "hit": false,
      "t": 107274.34611666625,
      "d": 132.74337500000547,
      "v": 44
    },
    {
      "midi": 72,
      "hit": false,
      "t": 107274.34611666625,
      "d": 159.29205000000366,
      "v": 44
    },
    {
      "midi": 55,
      "hit": false,
      "t": 107274.34611666629,
      "d": 176.9911666666594,
      "v": 49
    },
    {
      "midi": 48,
      "hit": false,
      "t": 107283.19567499962,
      "d": 150.44249166666123,
      "v": 44
    },
    {
      "midi": 64,
      "hit": false,
      "t": 107769.92138333291,
      "d": 88.49558333333698,
      "v": 55
    },
    {
      "midi": 72,
      "hit": false,
      "t": 107769.92138333291,
      "d": 115.04425833333516,
      "v": 55
    },
    {
      "midi": 55,
      "hit": false,
      "t": 107769.92138333294,
      "d": 132.74337499999092,
      "v": 44
    },
    {
      "midi": 48,
      "hit": false,
      "t": 107778.77094166627,
      "d": 150.44249166666123,
      "v": 39
    },
    {
      "midi": 72,
      "hit": false,
      "t": 108292.04532499958,
      "d": 867.2567166666704,
      "v": 49
    },
    {
      "midi": 64,
      "hit": false,
      "t": 108309.74444166625,
      "d": 831.8584833333298,
      "v": 44
    },
    {
      "midi": 55,
      "hit": false,
      "t": 108309.74444166626,
      "d": 637.1681999999855,
      "v": 49
    },
    {
      "midi": 48,
      "hit": false,
      "t": 108318.59399999959,
      "d": 575.2212916666613,
      "v": 44
    },
    {
      "midi": 48,
      "hit": false,
      "t": 109415.93923333292,
      "d": 176.9911666666594,
      "v": 69
    },
    {
      "midi": 55,
      "hit": false,
      "t": 109415.93923333292,
      "d": 176.9911666666594,
      "v": 69
    },
    {
      "midi": 55,
      "hit": false,
      "t": 109911.51449999957,
      "d": 132.74337500000547,
      "v": 61
    },
    {
      "midi": 48,
      "hit": false,
      "t": 109911.51449999957,
      "d": 141.59293333333335,
      "v": 69
    },
    {
      "midi": 55,
      "hit": false,
      "t": 110424.7888833329,
      "d": 902.6549499999965,
      "v": 69
    },
    {
      "midi": 48,
      "hit": false,
      "t": 110424.7888833329,
      "d": 911.5045083333243,
      "v": 69
    },
    {
      "midi": 67,
      "hit": false,
      "t": 110469.03667499957,
      "d": 761.062016666634,
      "v": 110
    },
    {
      "midi": 64,
      "hit": false,
      "t": 110477.8862333329,
      "d": 203.5398416666576,
      "v": 98
    },
    {
      "midi": 62,
      "hit": false,
      "t": 110672.57651666623,
      "d": 283.18586666665215,
      "v": 78
    },
    {
      "midi": 64,
      "hit": false,
      "t": 110946.91282499956,
      "d": 247.78763333332608,
      "v": 70
    },
    {
      "midi": 60,
      "hit": false,
      "t": 111177.00134166621,
      "d": 159.2920499999891,
      "v": 78
    },
    {
      "midi": 65,
      "hit": false,
      "t": 111442.4880916662,
      "d": 592.9204083333316,
      "v": 110
    },
    {
      "midi": 69,
      "hit": false,
      "t": 111442.4880916662,
      "d": 619.4690833333298,
      "v": 110
    },
    {
      "midi": 55,
      "hit": false,
      "t": 111566.3819083329,
      "d": 123.89381666666304,
      "v": 88
    },
    {
      "midi": 48,
      "hit": false,
      "t": 111566.3819083329,
      "d": 132.74337499999092,
      "v": 98
    },
    {
      "midi": 48,
      "hit": false,
      "t": 111991.16070833289,
      "d": 194.69028333332972,
      "v": 98
    },
    {
      "midi": 55,
      "hit": false,
      "t": 112000.01026666621,
      "d": 185.84072500000184,
      "v": 88
    },
    {
      "midi": 62,
      "hit": false,
      "t": 112008.85982499953,
      "d": 247.78763333332608,
      "v": 88
    },
    {
      "midi": 64,
      "hit": false,
      "t": 112539.83332499952,
      "d": 203.53984166667215,
      "v": 98
    },
    {
      "midi": 67,
      "hit": false,
      "t": 112539.83332499952,
      "d": 769.9115750000055,
      "v": 98
    },
    {
      "midi": 55,
      "hit": false,
      "t": 112548.68288333288,
      "d": 743.3628999999928,
      "v": 98
    },
    {
      "midi": 48,
      "hit": false,
      "t": 112548.68288333288,
      "d": 761.0620166666631,
      "v": 110
    },
    {
      "midi": 62,
      "hit": false,
      "t": 112761.07228333286,
      "d": 238.9380749999982,
      "v": 78
    },
    {
      "midi": 64,
      "hit": false,
      "t": 113026.55903333286,
      "d": 265.4867499999964,
      "v": 62
    },
    {
      "midi": 60,
      "hit": false,
      "t": 113274.34666666618,
      "d": 185.84072500000184,
      "v": 62
    },
    {
      "midi": 65,
      "hit": false,
      "t": 113566.38209166618,
      "d": 610.6195250000019,
      "v": 110
    },
    {
      "midi": 69,
      "hit": false,
      "t": 113566.38209166618,
      "d": 619.4690833333298,
      "v": 98
    },
    {
      "midi": 48,
      "hit": false,
      "t": 113628.32899999953,
      "d": 168.14160833333153,
      "v": 98
    },
    {
      "midi": 55,
      "hit": false,
      "t": 113628.32899999953,
      "d": 168.14160833333153,
      "v": 98
    },
    {
      "midi": 62,
      "hit": false,
      "t": 114115.05470833284,
      "d": 168.14160833333153,
      "v": 98
    },
    {
      "midi": 55,
      "hit": false,
      "t": 114123.9042666662,
      "d": 309.7345416666649,
      "v": 98
    },
    {
      "midi": 48,
      "hit": false,
      "t": 114123.9042666662,
      "d": 318.58409999999276,
      "v": 110
    },
    {
      "midi": 81,
      "hit": false,
      "t": 115203.55038333284,
      "d": 159.29205000000366,
      "v": 78
    },
    {
      "midi": 77,
      "hit": false,
      "t": 115203.55038333284,
      "d": 353.9823333333334,
      "v": 70
    },
    {
      "midi": 71,
      "hit": false,
      "t": 115300.89552499952,
      "d": 601.7699666666595,
      "v": 78
    },
    {
      "midi": 83,
      "hit": false,
      "t": 115371.69199166617,
      "d": 247.78763333334064,
      "v": 39
    },
    {
      "midi": 81,
      "hit": false,
      "t": 115557.53271666617,
      "d": 230.08851666667033,
      "v": 62
    },
    {
      "midi": 76,
      "hit": false,
      "t": 115707.97520833285,
      "d": 159.29205000000366,
      "v": 78
    },
    {
      "midi": 79,
      "hit": false,
      "t": 115716.82476666618,
      "d": 132.74337500000547,
      "v": 78
    },
    {
      "midi": 72,
      "hit": false,
      "t": 115796.47079166619,
      "d": 212.38939999998547,
      "v": 70
    },
    {
      "midi": 79,
      "hit": false,
      "t": 116247.79826666618,
      "d": 79.64602499999455,
      "v": 78
    },
    {
      "midi": 76,
      "hit": false,
      "t": 116247.79826666618,
      "d": 88.49558333332243,
      "v": 88
    },
    {
      "midi": 72,
      "hit": false,
      "t": 116353.99296666618,
      "d": 150.44249166666123,
      "v": 70
    },
    {
      "midi": 79,
      "hit": false,
      "t": 116787.6213249995,
      "d": 2008.849741666665,
      "v": 88
    },
    {
      "midi": 76,
      "hit": false,
      "t": 116787.6213249995,
      "d": 2026.5488583333354,
      "v": 78
    },
    {
      "midi": 72,
      "hit": false,
      "t": 116884.96646666617,
      "d": 2061.9470916666614,
      "v": 88
    },
    {
      "midi": 67,
      "hit": false,
      "t": 118876.11709166618,
      "d": 1115.0443499999965,
      "v": 55
    },
    {
      "midi": 63,
      "hit": false,
      "t": 118893.81620833285,
      "d": 1097.3452333333262,
      "v": 70
    },
    {
      "midi": 59,
      "hit": false,
      "t": 119000.01090833283,
      "d": 1017.6992083333316,
      "v": 44
    },
    {
      "midi": 75,
      "hit": false,
      "t": 119991.16144166618,
      "d": 150.44249166666123,
      "v": 44
    },
    {
      "midi": 79,
      "hit": false,
      "t": 120000.0109999995,
      "d": 141.59293333333335,
      "v": 34
    },
    {
      "midi": 71,
      "hit": false,
      "t": 120017.71011666616,
      "d": 159.29205000000366,
      "v": 39
    },
    {
      "midi": 79,
      "hit": false,
      "t": 120486.73670833284,
      "d": 141.59293333333335,
      "v": 34
    },
    {
      "midi": 75,
      "hit": false,
      "t": 120486.73670833284,
      "d": 150.44249166666123,
      "v": 44
    },
    {
      "midi": 71,
      "hit": false,
      "t": 120513.28538333283,
      "d": 185.84072500000184,
      "v": 44
    },
    {
      "midi": 79,
      "hit": false,
      "t": 121026.55976666616,
      "d": 601.7699666666595,
      "v": 44
    },
    {
      "midi": 75,
      "hit": false,
      "t": 121026.55976666616,
      "d": 628.3186416666576,
      "v": 44
    },
    {
      "midi": 71,
      "hit": false,
      "t": 121026.55976666616,
      "d": 1168.1416999999929,
      "v": 49
    },
    {
      "midi": 79,
      "hit": false,
      "t": 122070.8076499995,
      "d": 221.2389583333279,
      "v": 44
    },
    {
      "midi": 75,
      "hit": false,
      "t": 122079.65720833282,
      "d": 185.84072500000184,
      "v": 44
    },
    {
      "midi": 80,
      "hit": false,
      "t": 122610.63070833281,
      "d": 168.14160833331698,
      "v": 44
    },
    {
      "midi": 75,
      "hit": false,
      "t": 122619.48026666614,
      "d": 159.2920499999891,
      "v": 44
    },
    {
      "midi": 79,
      "hit": false,
      "t": 122628.32982499947,
      "d": 141.59293333333335,
      "v": 34
    },
    {
      "midi": 82,
      "hit": false,
      "t": 123150.45376666613,
      "d": 415.9292416666576,
      "v": 49
    },
    {
      "midi": 55,
      "hit": false,
      "t": 123150.45376666615,
      "d": 327.43365833332064,
      "v": 49
    },
    {
      "midi": 75,
      "hit": false,
      "t": 123168.1528833328,
      "d": 575.2212916666467,
      "v": 44
    },
    {
      "midi": 79,
      "hit": false,
      "t": 123177.00244166613,
      "d": 513.2743833333225,
      "v": 30
    },
    {
      "midi": 46,
      "hit": false,
      "t": 123185.85199999948,
      "d": 300.88498333332245,
      "v": 55
    },
    {
      "midi": 58,
      "hit": false,
      "t": 123380.5422833328,
      "d": 336.28321666666307,
      "v": 44
    },
    {
      "midi": 63,
      "hit": false,
      "t": 123654.87859166613,
      "d": 212.38940000000002,
      "v": 49
    },
    {
      "midi": 84,
      "hit": false,
      "t": 123716.82549999945,
      "d": 230.08851666667033,
      "v": 44
    },
    {
      "midi": 67,
      "hit": false,
      "t": 123884.9671083328,
      "d": 185.84072500000184,
      "v": 39
    },
    {
      "midi": 75,
      "hit": false,
      "t": 124194.70164999945,
      "d": 159.2920499999891,
      "v": 49
    },
    {
      "midi": 79,
      "hit": false,
      "t": 124203.55120833278,
      "d": 176.9911666666594,
      "v": 44
    },
    {
      "midi": 80,
      "hit": false,
      "t": 124690.2769166661,
      "d": 168.14160833333153,
      "v": 55
    },
    {
      "midi": 75,
      "hit": false,
      "t": 124716.8255916661,
      "d": 132.74337500000547,
      "v": 39
    },
    {
      "midi": 80,
      "hit": false,
      "t": 125194.7017416661,
      "d": 619.4690833333298,
      "v": 49
    },
    {
      "midi": 82,
      "hit": false,
      "t": 125212.40085833277,
      "d": 610.6195249999873,
      "v": 49
    },
    {
      "midi": 74,
      "hit": false,
      "t": 125212.40085833277,
      "d": 628.3186416666576,
      "v": 44
    },
    {
      "midi": 46,
      "hit": false,
      "t": 125292.0468833328,
      "d": 300.884983333337,
      "v": 49
    },
    {
      "midi": 53,
      "hit": false,
      "t": 125292.0468833328,
      "d": 300.884983333337,
      "v": 44
    },
    {
      "midi": 58,
      "hit": false,
      "t": 125504.4362833328,
      "d": 353.9823333333334,
      "v": 44
    },
    {
      "midi": 84,
      "hit": false,
      "t": 125778.7725916661,
      "d": 106.19469999999274,
      "v": 55
    },
    {
      "midi": 62,
      "hit": false,
      "t": 125805.32126666614,
      "d": 221.2389583333279,
      "v": 27
    },
    {
      "midi": 68,
      "hit": false,
      "t": 126053.10889999947,
      "d": 132.74337500000547,
      "v": 61
    },
    {
      "midi": 79,
      "hit": false,
      "t": 126309.7460916661,
      "d": 460.1770333333261,
      "v": 44
    },
    {
      "midi": 70,
      "hit": false,
      "t": 126309.7460916661,
      "d": 522.1239416666504,
      "v": 49
    },
    {
      "midi": 74,
      "hit": false,
      "t": 126318.59564999942,
      "d": 477.8761499999964,
      "v": 49
    },
    {
      "midi": 77,
      "hit": false,
      "t": 126876.11782499941,
      "d": 150.44249166666123,
      "v": 44
    },
    {
      "midi": 77,
      "hit": false,
      "t": 127407.0913249994,
      "d": 646.017758333328,
      "v": 55
    },
    {
      "midi": 67,
      "hit": false,
      "t": 127433.6399999994,
      "d": 646.017758333328,
      "v": 55
    },
    {
      "midi": 39,
      "hit": false,
      "t": 127495.5869083328,
      "d": 530.9734999999928,
      "v": 61
    },
    {
      "midi": 46,
      "hit": false,
      "t": 127495.5869083328,
      "d": 539.8230583333207,
      "v": 61
    },
    {
      "midi": 75,
      "hit": false,
      "t": 128000.01173333274,
      "d": 115.04425833332061,
      "v": 49
    },
    {
      "midi": 58,
      "hit": false,
      "t": 128539.83479166612,
      "d": 176.9911666666594,
      "v": 55
    },
    {
      "midi": 51,
      "hit": false,
      "t": 128548.68434999944,
      "d": 168.14160833333153,
      "v": 55
    },
    {
      "midi": 75,
      "hit": false,
      "t": 128557.53390833273,
      "d": 150.44249166666123,
      "v": 55
    },
    {
      "midi": 67,
      "hit": false,
      "t": 128557.53390833273,
      "d": 159.2920499999891,
      "v": 39
    },
    {
      "midi": 75,
      "hit": false,
      "t": 129026.56049999938,
      "d": 159.29205000000366,
      "v": 49
    },
    {
      "midi": 58,
      "hit": false,
      "t": 129035.41005833277,
      "d": 141.59293333333335,
      "v": 49
    },
    {
      "midi": 67,
      "hit": false,
      "t": 129044.25961666605,
      "d": 123.89381666666304,
      "v": 39
    },
    {
      "midi": 51,
      "hit": false,
      "t": 129044.2596166661,
      "d": 150.44249166667578,
      "v": 55
    },
    {
      "midi": 58,
      "hit": false,
      "t": 129530.98532499943,
      "d": 398.23012500000186,
      "v": 55
    },
    {
      "midi": 51,
      "hit": false,
      "t": 129548.6844416661,
      "d": 451.32747499999823,
      "v": 49
    },
    {
      "midi": 75,
      "hit": false,
      "t": 129575.23311666604,
      "d": 300.884983333337,
      "v": 61
    },
    {
      "midi": 67,
      "hit": false,
      "t": 129592.93223333271,
      "d": 318.58409999999276,
      "v": 44
    },
    {
      "midi": 46,
      "hit": false,
      "t": 130619.48099999943,
      "d": 176.9911666666594,
      "v": 55
    },
    {
      "midi": 51,
      "hit": false,
      "t": 130619.48099999943,
      "d": 185.8407249999873,
      "v": 55
    },
    {
      "midi": 55,
      "hit": false,
      "t": 130884.96774999937,
      "d": 141.59293333333335,
      "v": 44
    },
    {
      "midi": 61,
      "hit": false,
      "t": 130884.96774999937,
      "d": 150.44249166666123,
      "v": 61
    },
    {
      "midi": 39,
      "hit": false,
      "t": 131150.4544999994,
      "d": 185.8407249999873,
      "v": 55
    },
    {
      "midi": 55,
      "hit": false,
      "t": 131415.94124999936,
      "d": 115.04425833333516,
      "v": 44
    },
    {
      "midi": 61,
      "hit": false,
      "t": 131415.94124999936,
      "d": 132.74337499999092,
      "v": 61
    },
    {
      "midi": 63,
      "hit": false,
      "t": 131415.94124999936,
      "d": 168.14160833333153,
      "v": 61
    },
    {
      "midi": 46,
      "hit": false,
      "t": 131681.4279999994,
      "d": 212.38939999998547,
      "v": 49
    },
    {
      "midi": 51,
      "hit": false,
      "t": 131681.4279999994,
      "d": 212.38939999998547,
      "v": 55
    },
    {
      "midi": 55,
      "hit": false,
      "t": 131946.91474999936,
      "d": 150.44249166667578,
      "v": 39
    },
    {
      "midi": 61,
      "hit": false,
      "t": 131946.91474999936,
      "d": 168.14160833333153,
      "v": 55
    },
    {
      "midi": 65,
      "hit": false,
      "t": 131946.91474999936,
      "d": 168.14160833333153,
      "v": 49
    },
    {
      "midi": 39,
      "hit": false,
      "t": 132212.4014999994,
      "d": 194.69028333332972,
      "v": 55
    },
    {
      "midi": 55,
      "hit": false,
      "t": 132477.88824999935,
      "d": 115.04425833333516,
      "v": 49
    },
    {
      "midi": 61,
      "hit": false,
      "t": 132477.88824999935,
      "d": 150.44249166667578,
      "v": 61
    },
    {
      "midi": 67,
      "hit": false,
      "t": 132477.88824999935,
      "d": 168.14160833333153,
      "v": 55
    },
    {
      "midi": 46,
      "hit": false,
      "t": 132743.3749999994,
      "d": 194.69028333332972,
      "v": 44
    },
    {
      "midi": 51,
      "hit": false,
      "t": 132743.3749999994,
      "d": 230.08851666667033,
      "v": 49
    },
    {
      "midi": 55,
      "hit": false,
      "t": 133008.86174999934,
      "d": 141.59293333333335,
      "v": 44
    },
    {
      "midi": 61,
      "hit": false,
      "t": 133008.86174999934,
      "d": 159.2920499999891,
      "v": 61
    },
    {
      "midi": 39,
      "hit": false,
      "t": 133274.34849999938,
      "d": 203.53984166667215,
      "v": 61
    },
    {
      "midi": 55,
      "hit": false,
      "t": 133539.83524999933,
      "d": 150.44249166667578,
      "v": 49
    },
    {
      "midi": 63,
      "hit": false,
      "t": 133539.83524999933,
      "d": 176.99116666667396,
      "v": 61
    },
    {
      "midi": 51,
      "hit": false,
      "t": 133805.32199999937,
      "d": 238.93807500001276,
      "v": 55
    },
    {
      "midi": 46,
      "hit": false,
      "t": 133805.32199999937,
      "d": 247.7876333333552,
      "v": 55
    },
    {
      "midi": 61,
      "hit": false,
      "t": 134070.80874999933,
      "d": 106.19469999999274,
      "v": 55
    },
    {
      "midi": 55,
      "hit": false,
      "t": 134070.80874999933,
      "d": 115.04425833333516,
      "v": 44
    },
    {
      "midi": 65,
      "hit": false,
      "t": 134070.80874999933,
      "d": 185.8407249999873,
      "v": 55
    },
    {
      "midi": 39,
      "hit": false,
      "t": 134336.2954999994,
      "d": 203.53984166667215,
      "v": 61
    },
    {
      "midi": 55,
      "hit": false,
      "t": 134601.78224999932,
      "d": 132.74337499999092,
      "v": 34
    },
    {
      "midi": 61,
      "hit": false,
      "t": 134601.78224999932,
      "d": 132.74337499999092,
      "v": 49
    },
    {
      "midi": 67,
      "hit": false,
      "t": 134601.78224999932,
      "d": 150.44249166664667,
      "v": 44
    },
    {
      "midi": 51,
      "hit": false,
      "t": 134867.2689999994,
      "d": 203.53984166667215,
      "v": 49
    },
    {
      "midi": 46,
      "hit": false,
      "t": 134867.2689999994,
      "d": 230.08851666667033,
      "v": 55
    },
    {
      "midi": 55,
      "hit": false,
      "t": 135132.7557499993,
      "d": 168.14160833333153,
      "v": 44
    },
    {
      "midi": 61,
      "hit": false,
      "t": 135132.7557499993,
      "d": 168.14160833333153,
      "v": 61
    },
    {
      "midi": 39,
      "hit": false,
      "t": 135398.24249999938,
      "d": 185.8407249999873,
      "v": 55
    },
    {
      "midi": 61,
      "hit": false,
      "t": 135663.7292499993,
      "d": 123.8938166666776,
      "v": 44
    },
    {
      "midi": 55,
      "hit": false,
      "t": 135663.7292499993,
      "d": 141.59293333333335,
      "v": 44
    },
    {
      "midi": 63,
      "hit": false,
      "t": 135663.7292499993,
      "d": 176.99116666667396,
      "v": 61
    },
    {
      "midi": 46,
      "hit": false,
      "t": 135929.21599999937,
      "d": 221.2389583333279,
      "v": 55
    },
    {
      "midi": 51,
      "hit": false,
      "t": 135929.21599999937,
      "d": 230.08851666667033,
      "v": 49
    },
    {
      "midi": 55,
      "hit": false,
      "t": 136194.7027499993,
      "d": 123.8938166666776,
      "v": 49
    },
    {
      "midi": 61,
      "hit": false,
      "t": 136194.7027499993,
      "d": 176.99116666667396,
      "v": 55
    },
    {
      "midi": 65,
      "hit": false,
      "t": 136194.7027499993,
      "d": 176.99116666667396,
      "v": 55
    },
    {
      "midi": 39,
      "hit": false,
      "t": 136460.18949999937,
      "d": 185.8407249999873,
      "v": 61
    },
    {
      "midi": 68,
      "hit": false,
      "t": 136725.6762499993,
      "d": 203.53984166667215,
      "v": 61
    },
    {
      "midi": 46,
      "hit": false,
      "t": 136991.16299999936,
      "d": 230.08851666667033,
      "v": 49
    },
    {
      "midi": 51,
      "hit": false,
      "t": 136991.16299999936,
      "d": 247.78763333332608,
      "v": 49
    },
    {
      "midi": 53,
      "hit": false,
      "t": 137256.64974999928,
      "d": 53.09734999999637,
      "v": 18
    },
    {
      "midi": 61,
      "hit": false,
      "t": 137256.64974999928,
      "d": 265.48674999998184,
      "v": 55
    },
    {
      "midi": 67,
      "hit": false,
      "t": 137256.64974999928,
      "d": 274.33630833332427,
      "v": 55
    },
    {
      "midi": 39,
      "hit": false,
      "t": 137522.13649999935,
      "d": 176.99116666667396,
      "v": 61
    },
    {
      "midi": 61,
      "hit": false,
      "t": 137787.62324999928,
      "d": 194.69028333332972,
      "v": 49
    },
    {
      "midi": 55,
      "hit": false,
      "t": 137787.62324999928,
      "d": 203.53984166667215,
      "v": 39
    },
    {
      "midi": 63,
      "hit": false,
      "t": 137787.62324999928,
      "d": 212.38940000001458,
      "v": 61
    },
    {
      "midi": 46,
      "hit": false,
      "t": 138053.10999999935,
      "d": 230.08851666667033,
      "v": 55
    },
    {
      "midi": 51,
      "hit": false,
      "t": 138053.10999999935,
      "d": 256.6371916666685,
      "v": 55
    },
    {
      "midi": 55,
      "hit": false,
      "t": 138318.5967499993,
      "d": 194.69028333332972,
      "v": 49
    },
    {
      "midi": 61,
      "hit": false,
      "t": 138318.5967499993,
      "d": 194.69028333332972,
      "v": 55
    },
    {
      "midi": 65,
      "hit": false,
      "t": 138318.5967499993,
      "d": 212.38939999998547,
      "v": 55
    },
    {
      "midi": 39,
      "hit": false,
      "t": 138584.08349999934,
      "d": 159.2920499999891,
      "v": 61
    },
    {
      "midi": 55,
      "hit": false,
      "t": 138849.5702499993,
      "d": 150.44249166667578,
      "v": 49
    },
    {
      "midi": 61,
      "hit": false,
      "t": 138849.5702499993,
      "d": 212.38940000001458,
      "v": 61
    },
    {
      "midi": 48,
      "hit": false,
      "t": 139115.05699999933,
      "d": 221.2389583333279,
      "v": 44
    },
    {
      "midi": 51,
      "hit": false,
      "t": 139115.05699999933,
      "d": 274.33630833332427,
      "v": 55
    },
    {
      "midi": 56,
      "hit": false,
      "t": 139380.5437499993,
      "d": 176.99116666667396,
      "v": 61
    },
    {
      "midi": 63,
      "hit": false,
      "t": 139380.5437499993,
      "d": 176.99116666667396,
      "v": 55
    },
    {
      "midi": 39,
      "hit": false,
      "t": 139646.03049999932,
      "d": 168.14160833333153,
      "v": 55
    },
    {
      "midi": 56,
      "hit": false,
      "t": 139911.5172499993,
      "d": 159.2920499999891,
      "v": 61
    },
    {
      "midi": 63,
      "hit": false,
      "t": 139911.5172499993,
      "d": 176.99116666664486,
      "v": 61
    },
    {
      "midi": 65,
      "hit": false,
      "t": 139911.5172499993,
      "d": 194.6902833333006,
      "v": 55
    },
    {
      "midi": 51,
      "hit": false,
      "t": 140177.00399999932,
      "d": 238.93807500001276,
      "v": 55
    },
    {
      "midi": 48,
      "hit": false,
      "t": 140177.00399999932,
      "d": 247.7876333333552,
      "v": 44
    },
    {
      "midi": 56,
      "hit": false,
      "t": 140442.49074999927,
      "d": 185.8407249999873,
      "v": 55
    },
    {
      "midi": 67,
      "hit": false,
      "t": 140442.49074999927,
      "d": 185.8407249999873,
      "v": 49
    },
    {
      "midi": 63,
      "hit": false,
      "t": 140442.49074999927,
      "d": 212.38939999998547,
      "v": 61
    },
    {
      "midi": 39,
      "hit": false,
      "t": 140707.97749999934,
      "d": 194.69028333332972,
      "v": 61
    },
    {
      "midi": 63,
      "hit": false,
      "t": 140973.46424999926,
      "d": 176.99116666667396,
      "v": 61
    },
    {
      "midi": 56,
      "hit": false,
      "t": 140973.46424999926,
      "d": 203.53984166667215,
      "v": 61
    },
    {
      "midi": 68,
      "hit": false,
      "t": 140973.46424999926,
      "d": 221.2389583333279,
      "v": 61
    },
    {
      "midi": 51,
      "hit": false,
      "t": 141238.95099999933,
      "d": 230.08851666667033,
      "v": 55
    },
    {
      "midi": 48,
      "hit": false,
      "t": 141238.95099999933,
      "d": 247.78763333332608,
      "v": 44
    },
    {
      "midi": 56,
      "hit": false,
      "t": 141504.43774999926,
      "d": 194.69028333332972,
      "v": 61
    },
    {
      "midi": 63,
      "hit": false,
      "t": 141504.43774999926,
      "d": 194.69028333332972,
      "v": 61
    },
    {
      "midi": 39,
      "hit": false,
      "t": 141769.92449999932,
      "d": 203.53984166667215,
      "v": 61
    },
    {
      "midi": 56,
      "hit": false,
      "t": 142035.41124999925,
      "d": 168.14160833333153,
      "v": 61
    },
    {
      "midi": 63,
      "hit": false,
      "t": 142035.41124999925,
      "d": 185.8407249999873,
      "v": 55
    },
    {
      "midi": 65,
      "hit": false,
      "t": 142035.41124999925,
      "d": 203.53984166664304,
      "v": 55
    },
    {
      "midi": 51,
      "hit": false,
      "t": 142300.89799999932,
      "d": 168.14160833333153,
      "v": 55
    },
    {
      "midi": 48,
      "hit": false,
      "t": 142300.89799999932,
      "d": 256.6371916666685,
      "v": 44
    },
    {
      "midi": 63,
      "hit": false,
      "t": 142566.3847499992,
      "d": 176.99116666667396,
      "v": 55
    },
    {
      "midi": 56,
      "hit": false,
      "t": 142566.3847499992,
      "d": 185.8407250000164,
      "v": 55
    },
    {
      "midi": 67,
      "hit": false,
      "t": 142566.3847499992,
      "d": 194.69028333335882,
      "v": 49
    },
    {
      "midi": 39,
      "hit": false,
      "t": 142831.8714999993,
      "d": 256.6371916666685,
      "v": 61
    },
    {
      "midi": 63,
      "hit": false,
      "t": 143097.35824999923,
      "d": 185.8407249999873,
      "v": 55
    },
    {
      "midi": 56,
      "hit": false,
      "t": 143097.35824999923,
      "d": 203.53984166664304,
      "v": 61
    },
    {
      "midi": 68,
      "hit": false,
      "t": 143097.35824999923,
      "d": 212.38939999998547,
      "v": 61
    },
    {
      "midi": 51,
      "hit": false,
      "t": 143362.8449999993,
      "d": 283.1858666666667,
      "v": 55
    },
    {
      "midi": 48,
      "hit": false,
      "t": 143362.8449999993,
      "d": 300.88498333332245,
      "v": 44
    },
    {
      "midi": 56,
      "hit": false,
      "t": 143628.33174999923,
      "d": 185.8407249999873,
      "v": 55
    },
    {
      "midi": 63,
      "hit": false,
      "t": 143628.33174999923,
      "d": 203.53984166664304,
      "v": 61
    },
    {
      "midi": 39,
      "hit": false,
      "t": 143893.8184999993,
      "d": 212.38939999998547,
      "v": 69
    },
    {
      "midi": 56,
      "hit": false,
      "t": 144159.3052499992,
      "d": 203.53984166667215,
      "v": 61
    },
    {
      "midi": 65,
      "hit": false,
      "t": 144159.3052499992,
      "d": 238.93807500001276,
      "v": 61
    },
    {
      "midi": 48,
      "hit": false,
      "t": 144424.7919999993,
      "d": 274.33630833332427,
      "v": 31
    },
    {
      "midi": 51,
      "hit": false,
      "t": 144424.7919999993,
      "d": 274.33630833332427,
      "v": 43
    },
    {
      "midi": 63,
      "hit": false,
      "t": 144690.2787499992,
      "d": 194.69028333332972,
      "v": 43
    },
    {
      "midi": 67,
      "hit": false,
      "t": 144690.2787499992,
      "d": 194.69028333332972,
      "v": 31
    },
    {
      "midi": 56,
      "hit": false,
      "t": 144690.2787499992,
      "d": 230.08851666667033,
      "v": 43
    },
    {
      "midi": 39,
      "hit": false,
      "t": 144955.76549999928,
      "d": 238.93807500001276,
      "v": 43
    },
    {
      "midi": 70,
      "hit": false,
      "t": 145221.2522499992,
      "d": 230.08851666667033,
      "v": 43
    },
    {
      "midi": 51,
      "hit": false,
      "t": 145486.7389999993,
      "d": 283.1858666666667,
      "v": 38
    },
    {
      "midi": 48,
      "hit": false,
      "t": 145486.7389999993,
      "d": 309.7345416666649,
      "v": 31
    },
    {
      "midi": 56,
      "hit": false,
      "t": 145752.2257499992,
      "d": 221.2389583333279,
      "v": 43
    },
    {
      "midi": 63,
      "hit": false,
      "t": 145752.2257499992,
      "d": 230.08851666667033,
      "v": 43
    },
    {
      "midi": 68,
      "hit": false,
      "t": 145752.2257499992,
      "d": 238.93807500001276,
      "v": 48
    },
    {
      "midi": 39,
      "hit": false,
      "t": 146017.7124999993,
      "d": 212.38939999998547,
      "v": 43
    },
    {
      "midi": 63,
      "hit": false,
      "t": 146283.19924999922,
      "d": 194.69028333332972,
      "v": 43
    },
    {
      "midi": 56,
      "hit": false,
      "t": 146283.19924999922,
      "d": 212.38939999998547,
      "v": 43
    },
    {
      "midi": 65,
      "hit": false,
      "t": 146283.19924999922,
      "d": 238.93807499998366,
      "v": 38
    },
    {
      "midi": 51,
      "hit": false,
      "t": 146548.6859999993,
      "d": 221.2389583333279,
      "v": 43
    },
    {
      "midi": 48,
      "hit": false,
      "t": 146548.6859999993,
      "d": 265.48674999998184,
      "v": 31
    },
    {
      "midi": 63,
      "hit": false,
      "t": 146814.1727499992,
      "d": 212.38939999998547,
      "v": 43
    },
    {
      "midi": 67,
      "hit": false,
      "t": 146814.1727499992,
      "d": 221.2389583333279,
      "v": 34
    },
    {
      "midi": 56,
      "hit": false,
      "t": 146814.1727499992,
      "d": 247.78763333332608,
      "v": 43
    },
    {
      "midi": 39,
      "hit": false,
      "t": 147079.65949999928,
      "d": 238.93807500001276,
      "v": 38
    },
    {
      "midi": 56,
      "hit": false,
      "t": 147345.1462499992,
      "d": 132.74337499999092,
      "v": 43
    },
    {
      "midi": 63,
      "hit": false,
      "t": 147345.1462499992,
      "d": 159.2920499999891,
      "v": 38
    },
    {
      "midi": 54,
      "hit": false,
      "t": 147610.6329999993,
      "d": 318.5841000000073,
      "v": 48
    },
    {
      "midi": 44,
      "hit": false,
      "t": 147610.6329999993,
      "d": 389.38056666665943,
      "v": 43
    },
    {
      "midi": 66,
      "hit": false,
      "t": 147876.1197499992,
      "d": 194.69028333332972,
      "v": 48
    },
    {
      "midi": 60,
      "hit": false,
      "t": 147876.1197499992,
      "d": 212.38939999998547,
      "v": 34
    },
    {
      "midi": 39,
      "hit": false,
      "t": 148141.6064999993,
      "d": 221.2389583333279,
      "v": 43
    },
    {
      "midi": 68,
      "hit": false,
      "t": 148407.0932499992,
      "d": 185.8407249999873,
      "v": 43
    },
    {
      "midi": 66,
      "hit": false,
      "t": 148407.0932499992,
      "d": 203.53984166664304,
      "v": 48
    },
    {
      "midi": 60,
      "hit": false,
      "t": 148407.0932499992,
      "d": 212.38939999998547,
      "v": 38
    },
    {
      "midi": 44,
      "hit": false,
      "t": 148672.5799999993,
      "d": 353.9823333333188,
      "v": 69
    },
    {
      "midi": 54,
      "hit": false,
      "t": 148672.5799999993,
      "d": 380.531008333317,
      "v": 77
    },
    {
      "midi": 70,
      "hit": false,
      "t": 148938.06674999918,
      "d": 185.8407249999873,
      "v": 62
    },
    {
      "midi": 66,
      "hit": false,
      "t": 148938.06674999918,
      "d": 194.69028333332972,
      "v": 77
    },
    {
      "midi": 60,
      "hit": false,
      "t": 148938.06674999918,
      "d": 230.08851666667033,
      "v": 55
    },
    {
      "midi": 39,
      "hit": false,
      "t": 149203.55349999928,
      "d": 309.7345416666649,
      "v": 69
    },
    {
      "midi": 66,
      "hit": false,
      "t": 149469.04024999918,
      "d": 203.53984166667215,
      "v": 77
    },
    {
      "midi": 72,
      "hit": false,
      "t": 149469.04024999918,
      "d": 212.38940000001458,
      "v": 69
    },
    {
      "midi": 60,
      "hit": false,
      "t": 149469.04024999918,
      "d": 230.08851666667033,
      "v": 62
    },
    {
      "midi": 54,
      "hit": false,
      "t": 149734.52699999927,
      "d": 353.9823333333188,
      "v": 77
    },
    {
      "midi": 44,
      "hit": false,
      "t": 149734.52699999927,
      "d": 362.83189166666125,
      "v": 69
    },
    {
      "midi": 60,
      "hit": false,
      "t": 150000.01374999917,
      "d": 176.99116666667396,
      "v": 49
    },
    {
      "midi": 66,
      "hit": false,
      "t": 150000.01374999917,
      "d": 176.99116666667396,
      "v": 77
    },
    {
      "midi": 39,
      "hit": false,
      "t": 150265.50049999927,
      "d": 274.33630833332427,
      "v": 69
    },
    {
      "midi": 60,
      "hit": false,
      "t": 150530.98724999916,
      "d": 141.59293333333335,
      "v": 62
    },
    {
      "midi": 66,
      "hit": false,
      "t": 150530.98724999916,
      "d": 168.14160833333153,
      "v": 69
    },
    {
      "midi": 68,
      "hit": false,
      "t": 150530.98724999916,
      "d": 176.99116666667396,
      "v": 77
    },
    {
      "midi": 44,
      "hit": false,
      "t": 150796.47399999926,
      "d": 398.23012500000186,
      "v": 69
    },
    {
      "midi": 54,
      "hit": false,
      "t": 150796.47399999926,
      "d": 398.23012500000186,
      "v": 77
    },
    {
      "midi": 66,
      "hit": false,
      "t": 151061.96074999915,
      "d": 247.78763333332608,
      "v": 77
    },
    {
      "midi": 60,
      "hit": false,
      "t": 151061.96074999915,
      "d": 292.03542499998,
      "v": 77
    },
    {
      "midi": 70,
      "hit": false,
      "t": 151061.96074999915,
      "d": 292.03542499998,
      "v": 77
    },
    {
      "midi": 39,
      "hit": false,
      "t": 151327.44749999925,
      "d": 238.93807500001276,
      "v": 77
    },
    {
      "midi": 60,
      "hit": false,
      "t": 151592.93424999915,
      "d": 150.44249166667578,
      "v": 69
    },
    {
      "midi": 66,
      "hit": false,
      "t": 151592.93424999915,
      "d": 150.44249166667578,
      "v": 77
    },
    {
      "midi": 72,
      "hit": false,
      "t": 151592.93424999915,
      "d": 185.8407250000164,
      "v": 69
    },
    {
      "midi": 54,
      "hit": false,
      "t": 151858.42099999927,
      "d": 371.6814500000037,
      "v": 77
    },
    {
      "midi": 44,
      "hit": false,
      "t": 151858.42099999927,
      "d": 389.38056666665943,
      "v": 69
    },
    {
      "midi": 66,
      "hit": false,
      "t": 152123.90774999917,
      "d": 185.8407249999873,
      "v": 69
    },
    {
      "midi": 60,
      "hit": false,
      "t": 152123.90774999917,
      "d": 203.53984166664304,
      "v": 49
    },
    {
      "midi": 39,
      "hit": false,
      "t": 152389.39449999927,
      "d": 300.88498333332245,
      "v": 77
    },
    {
      "midi": 60,
      "hit": false,
      "t": 152654.88124999913,
      "d": 159.2920499999891,
      "v": 62
    },
    {
      "midi": 66,
      "hit": false,
      "t": 152654.88124999913,
      "d": 185.8407249999873,
      "v": 69
    },
    {
      "midi": 68,
      "hit": false,
      "t": 152654.88124999913,
      "d": 203.53984166664304,
      "v": 69
    },
    {
      "midi": 54,
      "hit": false,
      "t": 152920.36799999926,
      "d": 345.1327750000055,
      "v": 77
    },
    {
      "midi": 44,
      "hit": false,
      "t": 152920.36799999926,
      "d": 353.9823333333479,
      "v": 69
    },
    {
      "midi": 60,
      "hit": false,
      "t": 153185.8547499991,
      "d": 194.69028333332972,
      "v": 62
    },
    {
      "midi": 70,
      "hit": false,
      "t": 153185.8547499991,
      "d": 238.93807499998366,
      "v": 69
    },
    {
      "midi": 66,
      "hit": false,
      "t": 153185.8547499991,
      "d": 256.6371916666394,
      "v": 77
    },
    {
      "midi": 39,
      "hit": false,
      "t": 153451.34149999928,
      "d": 336.28321666666307,
      "v": 77
    },
    {
      "midi": 73,
      "hit": false,
      "t": 153716.82824999906,
      "d": 256.6371916666685,
      "v": 77
    },
    {
      "midi": 44,
      "hit": false,
      "t": 153982.31499999927,
      "d": 380.5310083333461,
      "v": 69
    },
    {
      "midi": 54,
      "hit": false,
      "t": 153982.31499999927,
      "d": 380.5310083333461,
      "v": 77
    },
    {
      "midi": 72,
      "hit": false,
      "t": 154247.80174999905,
      "d": 203.53984166667215,
      "v": 62
    },
    {
      "midi": 60,
      "hit": false,
      "t": 154247.80174999905,
      "d": 221.2389583333279,
      "v": 55
    },
    {
      "midi": 66,
      "hit": false,
      "t": 154247.80174999905,
      "d": 238.93807499998366,
      "v": 69
    },
    {
      "midi": 39,
      "hit": false,
      "t": 154513.2884999993,
      "d": 256.6371916666685,
      "v": 69
    },
    {
      "midi": 60,
      "hit": false,
      "t": 154778.77524999905,
      "d": 185.8407249999873,
      "v": 55
    },
    {
      "midi": 66,
      "hit": false,
      "t": 154778.77524999905,
      "d": 203.53984166664304,
      "v": 69
    },
    {
      "midi": 68,
      "hit": false,
      "t": 154778.77524999905,
      "d": 212.38939999998547,
      "v": 69
    },
    {
      "midi": 44,
      "hit": false,
      "t": 155044.2619999993,
      "d": 389.38056666665943,
      "v": 69
    },
    {
      "midi": 54,
      "hit": false,
      "t": 155044.2619999993,
      "d": 451.32747499999823,
      "v": 77
    },
    {
      "midi": 66,
      "hit": false,
      "t": 155309.74874999904,
      "d": 185.8407249999873,
      "v": 69
    },
    {
      "midi": 60,
      "hit": false,
      "t": 155309.74874999904,
      "d": 238.93807499998366,
      "v": 49
    },
    {
      "midi": 70,
      "hit": false,
      "t": 155309.74874999904,
      "d": 300.88498333332245,
      "v": 69
    },
    {
      "midi": 39,
      "hit": false,
      "t": 155575.23549999928,
      "d": 274.33630833332427,
      "v": 69
    },
    {
      "midi": 60,
      "hit": false,
      "t": 155840.72224999903,
      "d": 168.14160833333153,
      "v": 49
    },
    {
      "midi": 66,
      "hit": false,
      "t": 155840.72224999903,
      "d": 221.2389583333279,
      "v": 69
    },
    {
      "midi": 44,
      "hit": false,
      "t": 156106.20899999927,
      "d": 389.38056666665943,
      "v": 69
    },
    {
      "midi": 53,
      "hit": false,
      "t": 156106.20899999927,
      "d": 424.77880000000005,
      "v": 69
    },
    {
      "midi": 68,
      "hit": false,
      "t": 156371.69574999902,
      "d": 176.99116666667396,
      "v": 69
    },
    {
      "midi": 61,
      "hit": false,
      "t": 156371.69574999902,
      "d": 238.93807500001276,
      "v": 69
    },
    {
      "midi": 39,
      "hit": false,
      "t": 156637.18249999927,
      "d": 265.48675000001094,
      "v": 77
    },
    {
      "midi": 68,
      "hit": false,
      "t": 156902.66924999905,
      "d": 150.44249166667578,
      "v": 69
    },
    {
      "midi": 61,
      "hit": false,
      "t": 156902.66924999905,
      "d": 159.2920500000182,
      "v": 69
    },
    {
      "midi": 70,
      "hit": false,
      "t": 156902.66924999905,
      "d": 168.14160833336064,
      "v": 62
    },
    {
      "midi": 44,
      "hit": false,
      "t": 157168.1559999993,
      "d": 398.23012500000186,
      "v": 77
    },
    {
      "midi": 53,
      "hit": false,
      "t": 157168.1559999993,
      "d": 442.4779166666558,
      "v": 69
    },
    {
      "midi": 61,
      "hit": false,
      "t": 157433.64274999907,
      "d": 265.48675000001094,
      "v": 77
    },
    {
      "midi": 68,
      "hit": false,
      "t": 157433.64274999907,
      "d": 283.1858666666667,
      "v": 77
    },
    {
      "midi": 72,
      "hit": false,
      "t": 157433.64274999907,
      "d": 309.7345416666649,
      "v": 69
    },
    {
      "midi": 39,
      "hit": false,
      "t": 157699.12949999928,
      "d": 283.1858666666667,
      "v": 77
    },
    {
      "midi": 68,
      "hit": false,
      "t": 157964.61624999906,
      "d": 150.44249166667578,
      "v": 62
    },
    {
      "midi": 61,
      "hit": false,
      "t": 157964.61624999906,
      "d": 194.69028333332972,
      "v": 55
    },
    {
      "midi": 73,
      "hit": false,
      "t": 157964.61624999906,
      "d": 194.69028333332972,
      "v": 62
    },
    {
      "midi": 44,
      "hit": false,
      "t": 158230.10299999928,
      "d": 371.6814500000037,
      "v": 69
    },
    {
      "midi": 53,
      "hit": false,
      "t": 158230.10299999928,
      "d": 380.5310083333461,
      "v": 69
    },
    {
      "midi": 68,
      "hit": false,
      "t": 158495.58974999905,
      "d": 176.99116666667396,
      "v": 69
    },
    {
      "midi": 61,
      "hit": false,
      "t": 158495.58974999905,
      "d": 212.38940000001458,
      "v": 55
    },
    {
      "midi": 39,
      "hit": false,
      "t": 158761.0764999993,
      "d": 274.33630833332427,
      "v": 69
    },
    {
      "midi": 61,
      "hit": false,
      "t": 159026.56324999908,
      "d": 159.2920499999891,
      "v": 69
    },
    {
      "midi": 70,
      "hit": false,
      "t": 159026.56324999908,
      "d": 203.53984166664304,
      "v": 77
    },
    {
      "midi": 44,
      "hit": false,
      "t": 159292.0499999993,
      "d": 398.23012500000186,
      "v": 69
    },
    {
      "midi": 53,
      "hit": false,
      "t": 159292.0499999993,
      "d": 442.4779166666558,
      "v": 69
    },
    {
      "midi": 61,
      "hit": false,
      "t": 159557.53674999904,
      "d": 230.08851666667033,
      "v": 77
    },
    {
      "midi": 68,
      "hit": false,
      "t": 159557.53674999904,
      "d": 292.0354250000091,
      "v": 77
    },
    {
      "midi": 72,
      "hit": false,
      "t": 159557.53674999904,
      "d": 318.5841000000073,
      "v": 69
    },
    {
      "midi": 39,
      "hit": false,
      "t": 159823.02349999928,
      "d": 256.6371916666685,
      "v": 69
    },
    {
      "midi": 68,
      "hit": false,
      "t": 160088.51024999903,
      "d": 141.59293333333335,
      "v": 43
    },
    {
      "midi": 61,
      "hit": false,
      "t": 160088.51024999903,
      "d": 185.8407249999873,
      "v": 49
    },
    {
      "midi": 73,
      "hit": false,
      "t": 160088.51024999903,
      "d": 238.93807499998366,
      "v": 62
    },
    {
      "midi": 44,
      "hit": false,
      "t": 160353.99699999928,
      "d": 389.38056666665943,
      "v": 69
    },
    {
      "midi": 53,
      "hit": false,
      "t": 160353.99699999928,
      "d": 433.6283583333134,
      "v": 69
    },
    {
      "midi": 68,
      "hit": false,
      "t": 160619.48374999902,
      "d": 185.8407249999873,
      "v": 62
    },
    {
      "midi": 61,
      "hit": false,
      "t": 160619.48374999902,
      "d": 212.38939999998547,
      "v": 49
    },
    {
      "midi": 39,
      "hit": false,
      "t": 160884.97049999927,
      "d": 230.08851666667033,
      "v": 69
    },
    {
      "midi": 68,
      "hit": false,
      "t": 161150.45724999902,
      "d": 115.04425833333516,
      "v": 38
    },
    {
      "midi": 61,
      "hit": false,
      "t": 161150.45724999902,
      "d": 176.99116666667396,
      "v": 62
    },
    {
      "midi": 70,
      "hit": false,
      "t": 161150.45724999902,
      "d": 194.69028333332972,
      "v": 69
    },
    {
      "midi": 44,
      "hit": false,
      "t": 161415.94399999926,
      "d": 362.83189166666125,
      "v": 60
    },
    {
      "midi": 53,
      "hit": false,
      "t": 161415.94399999926,
      "d": 460.17703333334066,
      "v": 54
    },
    {
      "midi": 61,
      "hit": false,
      "t": 161681.430749999,
      "d": 247.78763333332608,
      "v": 60
    },
    {
      "midi": 68,
      "hit": false,
      "t": 161681.430749999,
      "d": 247.78763333332608,
      "v": 60
    },
    {
      "midi": 72,
      "hit": false,
      "t": 161681.430749999,
      "d": 292.03542499998,
      "v": 54
    },
    {
      "midi": 39,
      "hit": false,
      "t": 161946.91749999925,
      "d": 221.2389583333279,
      "v": 60
    },
    {
      "midi": 75,
      "hit": false,
      "t": 162212.404249999,
      "d": 230.08851666667033,
      "v": 54
    },
    {
      "midi": 44,
      "hit": false,
      "t": 162477.89099999925,
      "d": 327.43365833332064,
      "v": 54
    },
    {
      "midi": 53,
      "hit": false,
      "t": 162477.89099999925,
      "d": 433.6283583333134,
      "v": 54
    },
    {
      "midi": 68,
      "hit": false,
      "t": 162743.377749999,
      "d": 185.8407249999873,
      "v": 54
    },
    {
      "midi": 61,
      "hit": false,
      "t": 162743.377749999,
      "d": 221.2389583333279,
      "v": 54
    },
    {
      "midi": 73,
      "hit": false,
      "t": 162743.377749999,
      "d": 238.93807499998366,
      "v": 54
    },
    {
      "midi": 39,
      "hit": false,
      "t": 163008.86449999924,
      "d": 230.08851666667033,
      "v": 60
    },
    {
      "midi": 68,
      "hit": false,
      "t": 163274.351249999,
      "d": 168.14160833333153,
      "v": 43
    },
    {
      "midi": 70,
      "hit": false,
      "t": 163274.351249999,
      "d": 203.53984166667215,
      "v": 43
    },
    {
      "midi": 61,
      "hit": false,
      "t": 163274.351249999,
      "d": 230.08851666667033,
      "v": 48
    },
    {
      "midi": 44,
      "hit": false,
      "t": 163539.83799999923,
      "d": 336.28321666666307,
      "v": 54
    },
    {
      "midi": 53,
      "hit": false,
      "t": 163539.83799999923,
      "d": 566.3717333333334,
      "v": 54
    },
    {
      "midi": 68,
      "hit": false,
      "t": 163805.32474999898,
      "d": 212.38939999998547,
      "v": 48
    },
    {
      "midi": 72,
      "hit": false,
      "t": 163805.32474999898,
      "d": 212.38939999998547,
      "v": 43
    },
    {
      "midi": 61,
      "hit": false,
      "t": 163805.32474999898,
      "d": 238.93807499998366,
      "v": 48
    },
    {
      "midi": 39,
      "hit": false,
      "t": 164070.81149999922,
      "d": 159.2920500000182,
      "v": 54
    },
    {
      "midi": 68,
      "hit": false,
      "t": 164336.29824999897,
      "d": 212.38939999998547,
      "v": 54
    },
    {
      "midi": 61,
      "hit": false,
      "t": 164336.29824999897,
      "d": 230.08851666664123,
      "v": 54
    },
    {
      "midi": 39,
      "hit": false,
      "t": 164601.78499999925,
      "d": 221.2389583333279,
      "v": 60
    },
    {
      "midi": 46,
      "hit": false,
      "t": 164601.78499999925,
      "d": 221.2389583333279,
      "v": 60
    },
    {
      "midi": 53,
      "hit": false,
      "t": 164601.78499999925,
      "d": 283.1858666666667,
      "v": 54
    },
    {
      "midi": 62,
      "hit": false,
      "t": 164867.27174999894,
      "d": 203.53984166667215,
      "v": 43
    },
    {
      "midi": 68,
      "hit": false,
      "t": 164867.27174999894,
      "d": 221.2389583333279,
      "v": 54
    },
    {
      "midi": 46,
      "hit": false,
      "t": 165132.75849999924,
      "d": 247.78763333332608,
      "v": 54
    },
    {
      "midi": 53,
      "hit": false,
      "t": 165132.75849999924,
      "d": 247.78763333332608,
      "v": 48
    },
    {
      "midi": 39,
      "hit": false,
      "t": 165132.75849999924,
      "d": 256.6371916666685,
      "v": 54
    },
    {
      "midi": 68,
      "hit": false,
      "t": 165398.24524999893,
      "d": 203.53984166667215,
      "v": 54
    },
    {
      "midi": 62,
      "hit": false,
      "t": 165398.24524999893,
      "d": 212.38940000001458,
      "v": 48
    },
    {
      "midi": 70,
      "hit": false,
      "t": 165398.24524999893,
      "d": 212.38940000001458,
      "v": 54
    },
    {
      "midi": 39,
      "hit": false,
      "t": 165663.73199999923,
      "d": 610.6195249999873,
      "v": 71
    },
    {
      "midi": 46,
      "hit": false,
      "t": 165663.73199999923,
      "d": 628.3186416666431,
      "v": 71
    },
    {
      "midi": 53,
      "hit": false,
      "t": 165663.73199999923,
      "d": 681.4159916666395,
      "v": 64
    },
    {
      "midi": 62,
      "hit": false,
      "t": 165929.21874999895,
      "d": 256.6371916666685,
      "v": 71
    },
    {
      "midi": 68,
      "hit": false,
      "t": 165929.21874999895,
      "d": 300.88498333332245,
      "v": 80
    },
    {
      "midi": 72,
      "hit": false,
      "t": 165929.21874999895,
      "d": 309.7345416666649,
      "v": 64
    },
    {
      "midi": 75,
      "hit": false,
      "t": 166460.19224999895,
      "d": 238.93807500001276,
      "v": 71
    },
    {
      "midi": 51,
      "hit": false,
      "t": 166725.67899999922,
      "d": 256.6371916666685,
      "v": 71
    },
    {
      "midi": 65,
      "hit": false,
      "t": 166725.67899999922,
      "d": 265.48675000001094,
      "v": 57
    },
    {
      "midi": 58,
      "hit": false,
      "t": 166725.67899999922,
      "d": 292.0354250000091,
      "v": 71
    },
    {
      "midi": 62,
      "hit": false,
      "t": 166991.16574999897,
      "d": 203.53984166667215,
      "v": 64
    },
    {
      "midi": 68,
      "hit": false,
      "t": 166991.16574999897,
      "d": 203.53984166667215,
      "v": 71
    },
    {
      "midi": 74,
      "hit": false,
      "t": 166991.16574999897,
      "d": 212.38940000001458,
      "v": 64
    },
    {
      "midi": 65,
      "hit": false,
      "t": 167256.65249999924,
      "d": 159.2920499999891,
      "v": 50
    },
    {
      "midi": 51,
      "hit": false,
      "t": 167256.65249999924,
      "d": 194.69028333332972,
      "v": 64
    },
    {
      "midi": 58,
      "hit": false,
      "t": 167256.65249999924,
      "d": 212.38939999998547,
      "v": 50
    },
    {
      "midi": 62,
      "hit": false,
      "t": 167522.139249999,
      "d": 185.8407249999873,
      "v": 57
    },
    {
      "midi": 68,
      "hit": false,
      "t": 167522.139249999,
      "d": 203.53984166664304,
      "v": 71
    },
    {
      "midi": 70,
      "hit": false,
      "t": 167522.139249999,
      "d": 221.2389583332988,
      "v": 71
    },
    {
      "midi": 65,
      "hit": false,
      "t": 167787.62599999923,
      "d": 469.026591666654,
      "v": 57
    },
    {
      "midi": 51,
      "hit": false,
      "t": 167787.62599999923,
      "d": 495.57526666665217,
      "v": 64
    },
    {
      "midi": 58,
      "hit": false,
      "t": 167787.62599999923,
      "d": 530.9734999999928,
      "v": 64
    },
    {
      "midi": 68,
      "hit": false,
      "t": 168053.11274999895,
      "d": 176.99116666667396,
      "v": 71
    },
    {
      "midi": 62,
      "hit": false,
      "t": 168053.11274999895,
      "d": 221.2389583333279,
      "v": 64
    },
    {
      "midi": 72,
      "hit": false,
      "t": 168053.11274999895,
      "d": 345.1327750000055,
      "v": 57
    },
    {
      "midi": 68,
      "hit": false,
      "t": 168584.08624999895,
      "d": 176.99116666667396,
      "v": 71
    },
    {
      "midi": 39,
      "hit": false,
      "t": 168849.57299999922,
      "d": 256.6371916666685,
      "v": 71
    },
    {
      "midi": 53,
      "hit": false,
      "t": 168849.57299999922,
      "d": 256.6371916666685,
      "v": 64
    },
    {
      "midi": 46,
      "hit": false,
      "t": 168849.57299999922,
      "d": 274.33630833332427,
      "v": 71
    },
    {
      "midi": 68,
      "hit": false,
      "t": 169115.05974999894,
      "d": 212.38939999998547,
      "v": 64
    },
    {
      "midi": 72,
      "hit": false,
      "t": 169115.05974999894,
      "d": 221.2389583333279,
      "v": 57
    },
    {
      "midi": 74,
      "hit": false,
      "t": 169115.05974999894,
      "d": 221.2389583333279,
      "v": 57
    },
    {
      "midi": 46,
      "hit": false,
      "t": 169380.5464999992,
      "d": 203.53984166667215,
      "v": 64
    },
    {
      "midi": 39,
      "hit": false,
      "t": 169380.5464999992,
      "d": 212.38940000001458,
      "v": 71
    },
    {
      "midi": 53,
      "hit": false,
      "t": 169380.5464999992,
      "d": 221.238958333357,
      "v": 64
    },
    {
      "midi": 72,
      "hit": false,
      "t": 169646.03324999893,
      "d": 203.53984166667215,
      "v": 57
    },
    {
      "midi": 68,
      "hit": false,
      "t": 169646.03324999893,
      "d": 212.38940000001458,
      "v": 71
    },
    {
      "midi": 75,
      "hit": false,
      "t": 169646.03324999893,
      "d": 238.93807500001276,
      "v": 64
    },
    {
      "midi": 39,
      "hit": false,
      "t": 169911.51999999923,
      "d": 530.9734999999928,
      "v": 82
    },
    {
      "midi": 46,
      "hit": false,
      "t": 169911.51999999923,
      "d": 548.6726166666485,
      "v": 82
    },
    {
      "midi": 53,
      "hit": false,
      "t": 169911.51999999923,
      "d": 592.9204083333025,
      "v": 73
    },
    {
      "midi": 68,
      "hit": false,
      "t": 170177.00674999895,
      "d": 230.08851666667033,
      "v": 73
    },
    {
      "midi": 72,
      "hit": false,
      "t": 170177.00674999895,
      "d": 238.93807500001276,
      "v": 66
    },
    {
      "midi": 77,
      "hit": false,
      "t": 170177.00674999895,
      "d": 247.7876333333552,
      "v": 73
    },
    {
      "midi": 80,
      "hit": false,
      "t": 170707.98024999897,
      "d": 212.38939999998547,
      "v": 73
    },
    {
      "midi": 51,
      "hit": false,
      "t": 170973.4669999992,
      "d": 230.08851666667033,
      "v": 73
    },
    {
      "midi": 58,
      "hit": false,
      "t": 170973.4669999992,
      "d": 238.93807500001276,
      "v": 82
    },
    {
      "midi": 65,
      "hit": false,
      "t": 170973.4669999992,
      "d": 238.93807500001276,
      "v": 73
    },
    {
      "midi": 68,
      "hit": false,
      "t": 171238.95374999897,
      "d": 212.38939999998547,
      "v": 82
    },
    {
      "midi": 79,
      "hit": false,
      "t": 171238.95374999897,
      "d": 230.08851666664123,
      "v": 73
    },
    {
      "midi": 72,
      "hit": false,
      "t": 171238.95374999897,
      "d": 238.93807499998366,
      "v": 66
    },
    {
      "midi": 51,
      "hit": false,
      "t": 171504.4404999992,
      "d": 185.8407249999873,
      "v": 82
    },
    {
      "midi": 58,
      "hit": false,
      "t": 171504.4404999992,
      "d": 221.2389583333279,
      "v": 73
    },
    {
      "midi": 65,
      "hit": false,
      "t": 171504.4404999992,
      "d": 247.78763333332608,
      "v": 73
    },
    {
      "midi": 72,
      "hit": false,
      "t": 171769.92724999896,
      "d": 203.53984166667215,
      "v": 58
    },
    {
      "midi": 75,
      "hit": false,
      "t": 171769.92724999896,
      "d": 230.08851666667033,
      "v": 82
    },
    {
      "midi": 68,
      "hit": false,
      "t": 171769.92724999896,
      "d": 238.93807500001276,
      "v": 73
    },
    {
      "midi": 58,
      "hit": false,
      "t": 172035.4139999992,
      "d": 672.5664333333261,
      "v": 82
    },
    {
      "midi": 51,
      "hit": false,
      "t": 172035.4139999992,
      "d": 778.7611333333189,
      "v": 82
    },
    {
      "midi": 65,
      "hit": false,
      "t": 172035.4139999992,
      "d": 884.9558333333116,
      "v": 82
    },
    {
      "midi": 68,
      "hit": false,
      "t": 172300.90074999898,
      "d": 221.2389583333279,
      "v": 73
    },
    {
      "midi": 72,
      "hit": false,
      "t": 172300.90074999898,
      "d": 256.6371916666685,
      "v": 66
    },
    {
      "midi": 77,
      "hit": false,
      "t": 172300.90074999898,
      "d": 292.0354250000091,
      "v": 66
    },
    {
      "midi": 74,
      "hit": false,
      "t": 172831.874249999,
      "d": 194.69028333332972,
      "v": 73
    },
    {
      "midi": 62,
      "hit": false,
      "t": 173097.3609999992,
      "d": 230.08851666667033,
      "v": 58
    },
    {
      "midi": 53,
      "hit": false,
      "t": 173097.3609999992,
      "d": 327.43365833334974,
      "v": 52
    },
    {
      "midi": 77,
      "hit": false,
      "t": 173362.847749999,
      "d": 212.38939999998547,
      "v": 73
    },
    {
      "midi": 67,
      "hit": false,
      "t": 173628.3344999992,
      "d": 283.1858666666667,
      "v": 58
    },
    {
      "midi": 55,
      "hit": false,
      "t": 173628.3344999992,
      "d": 327.43365833332064,
      "v": 52
    },
    {
      "midi": 79,
      "hit": false,
      "t": 173893.821249999,
      "d": 194.69028333332972,
      "v": 66
    },
    {
      "midi": 56,
      "hit": false,
      "t": 174159.3079999992,
      "d": 371.6814500000037,
      "v": 88
    },
    {
      "midi": 68,
      "hit": false,
      "t": 174159.3079999992,
      "d": 407.0796833333443,
      "v": 88
    },
    {
      "midi": 80,
      "hit": false,
      "t": 174424.79474999898,
      "d": 212.38939999998547,
      "v": 88
    },
    {
      "midi": 72,
      "hit": false,
      "t": 174690.28149999923,
      "d": 238.93807500001276,
      "v": 79
    },
    {
      "midi": 60,
      "hit": false,
      "t": 174690.28149999923,
      "d": 265.48675000001094,
      "v": 70
    },
    {
      "midi": 84,
      "hit": false,
      "t": 174955.76824999898,
      "d": 221.2389583333279,
      "v": 70
    },
    {
      "midi": 56,
      "hit": false,
      "t": 175221.25499999925,
      "d": 309.7345416666649,
      "v": 88
    },
    {
      "midi": 68,
      "hit": false,
      "t": 175221.25499999925,
      "d": 345.1327750000055,
      "v": 88
    },
    {
      "midi": 80,
      "hit": false,
      "t": 175486.74174999897,
      "d": 185.8407249999873,
      "v": 88
    },
    {
      "midi": 65,
      "hit": false,
      "t": 175752.22849999924,
      "d": 274.33630833332427,
      "v": 70
    },
    {
      "midi": 53,
      "hit": false,
      "t": 175752.22849999924,
      "d": 309.7345416666649,
      "v": 70
    },
    {
      "midi": 77,
      "hit": false,
      "t": 176017.71524999896,
      "d": 194.69028333332972,
      "v": 70
    },
    {
      "midi": 56,
      "hit": false,
      "t": 176283.20199999923,
      "d": 283.1858666666667,
      "v": 88
    },
    {
      "midi": 68,
      "hit": false,
      "t": 176283.20199999923,
      "d": 300.88498333332245,
      "v": 99
    },
    {
      "midi": 80,
      "hit": false,
      "t": 176548.68874999895,
      "d": 168.14160833333153,
      "v": 79
    },
    {
      "midi": 53,
      "hit": false,
      "t": 176814.17549999923,
      "d": 238.93807500001276,
      "v": 79
    },
    {
      "midi": 65,
      "hit": false,
      "t": 176814.17549999923,
      "d": 274.3363083333534,
      "v": 88
    },
    {
      "midi": 77,
      "hit": false,
      "t": 177079.66224999895,
      "d": 194.69028333332972,
      "v": 79
    },
    {
      "midi": 50,
      "hit": false,
      "t": 177345.14899999925,
      "d": 300.88498333332245,
      "v": 79
    },
    {
      "midi": 62,
      "hit": false,
      "t": 177345.14899999925,
      "d": 300.88498333332245,
      "v": 70
    },
    {
      "midi": 74,
      "hit": false,
      "t": 177610.63574999894,
      "d": 194.69028333332972,
      "v": 79
    },
    {
      "midi": 65,
      "hit": false,
      "t": 177876.12249999924,
      "d": 194.69028333332972,
      "v": 88
    },
    {
      "midi": 53,
      "hit": false,
      "t": 177876.12249999924,
      "d": 274.33630833332427,
      "v": 79
    },
    {
      "midi": 77,
      "hit": false,
      "t": 178141.60924999893,
      "d": 194.69028333332972,
      "v": 70
    },
    {
      "midi": 50,
      "hit": false,
      "t": 178407.09599999923,
      "d": 292.0354250000091,
      "v": 70
    },
    {
      "midi": 62,
      "hit": false,
      "t": 178407.09599999923,
      "d": 380.5310083333461,
      "v": 79
    },
    {
      "midi": 74,
      "hit": false,
      "t": 178672.58274999892,
      "d": 168.14160833333153,
      "v": 79
    },
    {
      "midi": 46,
      "hit": false,
      "t": 178938.06949999926,
      "d": 230.08851666667033,
      "v": 88
    },
    {
      "midi": 58,
      "hit": false,
      "t": 178938.06949999926,
      "d": 256.6371916666685,
      "v": 88
    },
    {
      "midi": 70,
      "hit": false,
      "t": 179203.55624999892,
      "d": 212.38939999998547,
      "v": 88
    },
    {
      "midi": 50,
      "hit": false,
      "t": 179469.04299999925,
      "d": 283.1858666666667,
      "v": 70
    },
    {
      "midi": 62,
      "hit": false,
      "t": 179469.04299999925,
      "d": 336.28321666666307,
      "v": 88
    },
    {
      "midi": 74,
      "hit": false,
      "t": 179734.5297499989,
      "d": 150.44249166667578,
      "v": 79
    },
    {
      "midi": 46,
      "hit": false,
      "t": 180000.01649999924,
      "d": 256.6371916666685,
      "v": 79
    },
    {
      "midi": 58,
      "hit": false,
      "t": 180000.01649999924,
      "d": 256.6371916666685,
      "v": 88
    },
    {
      "midi": 70,
      "hit": false,
      "t": 180265.50324999893,
      "d": 168.14160833333153,
      "v": 88
    },
    {
      "midi": 43,
      "hit": false,
      "t": 180530.98999999923,
      "d": 353.9823333333188,
      "v": 70
    },
    {
      "midi": 55,
      "hit": false,
      "t": 180530.98999999923,
      "d": 371.6814499999746,
      "v": 79
    },
    {
      "midi": 67,
      "hit": false,
      "t": 180796.47674999892,
      "d": 203.53984166667215,
      "v": 88
    },
    {
      "midi": 46,
      "hit": false,
      "t": 181061.9634999992,
      "d": 274.33630833332427,
      "v": 79
    },
    {
      "midi": 58,
      "hit": false,
      "t": 181061.9634999992,
      "d": 300.88498333332245,
      "v": 88
    },
    {
      "midi": 70,
      "hit": false,
      "t": 181327.45024999892,
      "d": 185.8407249999873,
      "v": 88
    },
    {
      "midi": 55,
      "hit": false,
      "t": 181592.9369999992,
      "d": 318.5841000000073,
      "v": 70
    },
    {
      "midi": 43,
      "hit": false,
      "t": 181592.9369999992,
      "d": 327.43365833334974,
      "v": 79
    },
    {
      "midi": 67,
      "hit": false,
      "t": 181858.4237499989,
      "d": 168.14160833333153,
      "v": 79
    },
    {
      "midi": 39,
      "hit": false,
      "t": 182123.9104999992,
      "d": 256.6371916666685,
      "v": 88
    },
    {
      "midi": 51,
      "hit": false,
      "t": 182123.9104999992,
      "d": 265.48675000001094,
      "v": 79
    },
    {
      "midi": 63,
      "hit": false,
      "t": 182389.3972499989,
      "d": 185.8407249999873,
      "v": 88
    },
    {
      "midi": 55,
      "hit": false,
      "t": 182654.88399999923,
      "d": 327.43365833332064,
      "v": 77
    },
    {
      "midi": 43,
      "hit": false,
      "t": 182654.88399999923,
      "d": 371.6814499999746,
      "v": 77
    },
    {
      "midi": 67,
      "hit": false,
      "t": 182920.3707499989,
      "d": 194.69028333332972,
      "v": 84
    },
    {
      "midi": 39,
      "hit": false,
      "t": 183185.8574999992,
      "d": 283.1858666666667,
      "v": 92
    },
    {
      "midi": 51,
      "hit": false,
      "t": 183185.8574999992,
      "d": 300.88498333332245,
      "v": 92
    },
    {
      "midi": 63,
      "hit": false,
      "t": 183451.3442499989,
      "d": 185.8407249999873,
      "v": 101
    },
    {
      "midi": 36,
      "hit": false,
      "t": 183716.8309999992,
      "d": 318.5841000000073,
      "v": 84
    },
    {
      "midi": 48,
      "hit": false,
      "t": 183716.8309999992,
      "d": 362.83189166666125,
      "v": 84
    },
    {
      "midi": 60,
      "hit": false,
      "t": 183982.31774999888,
      "d": 194.69028333332972,
      "v": 77
    },
    {
      "midi": 39,
      "hit": false,
      "t": 184247.80449999918,
      "d": 274.33630833332427,
      "v": 92
    },
    {
      "midi": 51,
      "hit": false,
      "t": 184247.80449999918,
      "d": 300.88498333332245,
      "v": 84
    },
    {
      "midi": 63,
      "hit": false,
      "t": 184513.29124999887,
      "d": 185.8407249999873,
      "v": 92
    },
    {
      "midi": 36,
      "hit": false,
      "t": 184778.77799999918,
      "d": 336.28321666666307,
      "v": 71
    },
    {
      "midi": 48,
      "hit": false,
      "t": 184778.77799999918,
      "d": 389.38056666665943,
      "v": 77
    },
    {
      "midi": 60,
      "hit": false,
      "t": 185044.26474999887,
      "d": 168.14160833333153,
      "v": 84
    },
    {
      "midi": 44,
      "hit": false,
      "t": 185309.75149999917,
      "d": 283.1858666666667,
      "v": 92
    },
    {
      "midi": 32,
      "hit": false,
      "t": 185309.75149999917,
      "d": 300.88498333332245,
      "v": 92
    },
    {
      "midi": 56,
      "hit": false,
      "t": 185575.23824999886,
      "d": 176.99116666667396,
      "v": 92
    },
    {
      "midi": 36,
      "hit": false,
      "t": 185840.72499999916,
      "d": 212.38939999998547,
      "v": 77
    },
    {
      "midi": 48,
      "hit": false,
      "t": 185840.72499999916,
      "d": 513.2743833333079,
      "v": 65
    },
    {
      "midi": 60,
      "hit": false,
      "t": 186106.21174999885,
      "d": 185.8407249999873,
      "v": 84
    },
    {
      "midi": 32,
      "hit": false,
      "t": 186371.69849999913,
      "d": 221.2389583333279,
      "v": 84
    },
    {
      "midi": 44,
      "hit": false,
      "t": 186371.69849999913,
      "d": 327.43365833332064,
      "v": 92
    },
    {
      "midi": 56,
      "hit": false,
      "t": 186637.18524999885,
      "d": 238.93807500001276,
      "v": 101
    },
    {
      "midi": 55,
      "hit": false,
      "t": 187044.2649333322,
      "d": 3823.0092000000004,
      "v": 110
    },
    {
      "midi": 31,
      "hit": false,
      "t": 187053.11449166576,
      "d": 3778.7614083333756,
      "v": 110
    },
    {
      "midi": 43,
      "hit": false,
      "t": 187053.11449166576,
      "d": 3805.3100833333738,
      "v": 110
    },
    {
      "midi": 44,
      "hit": false,
      "t": 188079.66325833244,
      "d": 433.6283583333425,
      "v": 110
    },
    {
      "midi": 48,
      "hit": false,
      "t": 188079.66325833244,
      "d": 460.17703333334066,
      "v": 100
    },
    {
      "midi": 51,
      "hit": false,
      "t": 188079.66325833244,
      "d": 477.8761499999964,
      "v": 110
    },
    {
      "midi": 56,
      "hit": false,
      "t": 188123.91104999886,
      "d": 424.77880000000005,
      "v": 110
    },
    {
      "midi": 68,
      "hit": false,
      "t": 188123.91104999886,
      "d": 486.72570833330974,
      "v": 110
    },
    {
      "midi": 60,
      "hit": false,
      "t": 188132.7606083322,
      "d": 433.6283583333134,
      "v": 100
    },
    {
      "midi": 63,
      "hit": false,
      "t": 188132.7606083322,
      "d": 477.8761499999673,
      "v": 110
    },
    {
      "midi": 56,
      "hit": false,
      "t": 189044.26511666577,
      "d": 486.72570833333884,
      "v": 110
    },
    {
      "midi": 60,
      "hit": false,
      "t": 189044.26511666577,
      "d": 513.274383333337,
      "v": 100
    },
    {
      "midi": 63,
      "hit": false,
      "t": 189044.26511666577,
      "d": 539.8230583333352,
      "v": 110
    },
    {
      "midi": 80,
      "hit": false,
      "t": 189079.66334999882,
      "d": 460.17703333336976,
      "v": 110
    },
    {
      "midi": 68,
      "hit": false,
      "t": 189088.51290833217,
      "d": 415.9292416666867,
      "v": 110
    },
    {
      "midi": 75,
      "hit": false,
      "t": 189088.51290833217,
      "d": 451.32747500002733,
      "v": 110
    },
    {
      "midi": 72,
      "hit": false,
      "t": 189097.3624666655,
      "d": 415.9292416666867,
      "v": 100
    },
    {
      "midi": 87,
      "hit": false,
      "t": 190061.96432499887,
      "d": 858.4071583333134,
      "v": 110
    },
    {
      "midi": 92,
      "hit": false,
      "t": 190061.96432499887,
      "d": 858.4071583333134,
      "v": 110
    },
    {
      "midi": 80,
      "hit": false,
      "t": 190061.96432499887,
      "d": 867.2567166666558,
      "v": 110
    },
    {
      "midi": 84,
      "hit": false,
      "t": 190079.66344166553,
      "d": 840.7080416666577,
      "v": 92
    },
    {
      "midi": 68,
      "hit": false,
      "t": 190132.7607916658,
      "d": 946.9027416666795,
      "v": 110
    },
    {
      "midi": 75,
      "hit": false,
      "t": 190132.7607916658,
      "d": 973.4514166666777,
      "v": 110
    },
    {
      "midi": 72,
      "hit": false,
      "t": 190141.61034999913,
      "d": 938.0531833333371,
      "v": 100
    },
    {
      "midi": 54,
      "hit": false,
      "t": 191150.45999999886,
      "d": 3876.1065499999386,
      "v": 122
    },
    {
      "midi": 42,
      "hit": false,
      "t": 191150.45999999912,
      "d": 3920.3543416666507,
      "v": 110
    },
    {
      "midi": 30,
      "hit": false,
      "t": 191150.45999999912,
      "d": 3955.7525749999622,
      "v": 110
    },
    {
      "midi": 68,
      "hit": false,
      "t": 192177.00876666553,
      "d": 504.4248250000237,
      "v": 110
    },
    {
      "midi": 56,
      "hit": false,
      "t": 192185.85832499887,
      "d": 442.4779166666849,
      "v": 100
    },
    {
      "midi": 63,
      "hit": false,
      "t": 192185.85832499887,
      "d": 495.5752666666813,
      "v": 100
    },
    {
      "midi": 60,
      "hit": false,
      "t": 192194.70788333222,
      "d": 460.17703333334066,
      "v": 92
    },
    {
      "midi": 44,
      "hit": false,
      "t": 192230.1061166658,
      "d": 477.8761499999964,
      "v": 110
    },
    {
      "midi": 51,
      "hit": false,
      "t": 192230.1061166658,
      "d": 530.9734999999928,
      "v": 110
    },
    {
      "midi": 48,
      "hit": false,
      "t": 192238.95567499913,
      "d": 513.2743833333079,
      "v": 100
    },
    {
      "midi": 68,
      "hit": false,
      "t": 193177.0088583322,
      "d": 513.2743833333079,
      "v": 110
    },
    {
      "midi": 75,
      "hit": false,
      "t": 193177.0088583322,
      "d": 548.6726166666194,
      "v": 110
    },
    {
      "midi": 80,
      "hit": false,
      "t": 193177.0088583322,
      "d": 566.3717333332752,
      "v": 110
    },
    {
      "midi": 72,
      "hit": false,
      "t": 193194.70797499886,
      "d": 513.2743833333079,
      "v": 100
    },
    {
      "midi": 56,
      "hit": false,
      "t": 193256.65488333243,
      "d": 522.1239416666795,
      "v": 100
    },
    {
      "midi": 60,
      "hit": false,
      "t": 193256.65488333243,
      "d": 557.5221750000201,
      "v": 92
    },
    {
      "midi": 63,
      "hit": false,
      "t": 193256.65488333243,
      "d": 584.0708500000183,
      "v": 110
    },
    {
      "midi": 92,
      "hit": false,
      "t": 194247.80541666548,
      "d": 858.4071583333425,
      "v": 110
    },
    {
      "midi": 87,
      "hit": false,
      "t": 194256.65497499882,
      "d": 840.7080416666577,
      "v": 110
    },
    {
      "midi": 80,
      "hit": false,
      "t": 194256.65497499882,
      "d": 858.4071583333425,
      "v": 100
    },
    {
      "midi": 84,
      "hit": false,
      "t": 194274.35409166547,
      "d": 814.1593666666595,
      "v": 92
    },
    {
      "midi": 75,
      "hit": false,
      "t": 194336.3009999991,
      "d": 752.2124583333207,
      "v": 110
    },
    {
      "midi": 68,
      "hit": false,
      "t": 194336.3009999991,
      "d": 769.9115749999764,
      "v": 110
    },
    {
      "midi": 72,
      "hit": false,
      "t": 194345.15055833245,
      "d": 743.3628999999783,
      "v": 100
    },
    {
      "midi": 53,
      "hit": false,
      "t": 195389.3984416655,
      "d": 4079.646391666698,
      "v": 110
    },
    {
      "midi": 29,
      "hit": false,
      "t": 195389.39844166575,
      "d": 3849.5578750000277,
      "v": 100
    },
    {
      "midi": 41,
      "hit": false,
      "t": 195389.39844166575,
      "d": 3876.106550000026,
      "v": 100
    },
    {
      "midi": 56,
      "hit": false,
      "t": 196433.64632499882,
      "d": 469.0265916666831,
      "v": 110
    },
    {
      "midi": 63,
      "hit": false,
      "t": 196433.64632499882,
      "d": 522.1239416666795,
      "v": 100
    },
    {
      "midi": 68,
      "hit": false,
      "t": 196433.64632499882,
      "d": 522.1239416666795,
      "v": 110
    },
    {
      "midi": 59,
      "hit": false,
      "t": 196442.49588333216,
      "d": 477.8761499999964,
      "v": 100
    },
    {
      "midi": 44,
      "hit": false,
      "t": 196469.04455833242,
      "d": 460.17703333334066,
      "v": 110
    },
    {
      "midi": 51,
      "hit": false,
      "t": 196469.04455833242,
      "d": 513.274383333337,
      "v": 110
    },
    {
      "midi": 47,
      "hit": false,
      "t": 196477.89411666576,
      "d": 477.8761499999964,
      "v": 100
    },
    {
      "midi": 68,
      "hit": false,
      "t": 197442.49597499883,
      "d": 522.1239416666504,
      "v": 110
    },
    {
      "midi": 80,
      "hit": false,
      "t": 197442.49597499883,
      "d": 575.2212916666467,
      "v": 110
    },
    {
      "midi": 71,
      "hit": false,
      "t": 197460.1950916655,
      "d": 530.9734999999928,
      "v": 100
    },
    {
      "midi": 75,
      "hit": false,
      "t": 197460.1950916655,
      "d": 548.6726166666485,
      "v": 100
    },
    {
      "midi": 56,
      "hit": false,
      "t": 197522.1419999991,
      "d": 469.0265916666831,
      "v": 100
    },
    {
      "midi": 63,
      "hit": false,
      "t": 197522.1419999991,
      "d": 513.2743833333661,
      "v": 110
    },
    {
      "midi": 59,
      "hit": false,
      "t": 197530.99155833243,
      "d": 495.5752666666813,
      "v": 100
    },
    {
      "midi": 80,
      "hit": false,
      "t": 198522.14209166548,
      "d": 902.6549500000256,
      "v": 100
    },
    {
      "midi": 87,
      "hit": false,
      "t": 198522.14209166548,
      "d": 955.752300000051,
      "v": 100
    },
    {
      "midi": 92,
      "hit": false,
      "t": 198530.99164999882,
      "d": 902.6549500000256,
      "v": 110
    },
    {
      "midi": 83,
      "hit": false,
      "t": 198539.84120833216,
      "d": 893.8053916666831,
      "v": 100
    },
    {
      "midi": 75,
      "hit": false,
      "t": 198592.93855833245,
      "d": 1044.2478833333298,
      "v": 110
    },
    {
      "midi": 68,
      "hit": false,
      "t": 198592.93855833245,
      "d": 1061.9470000000147,
      "v": 110
    },
    {
      "midi": 71,
      "hit": false,
      "t": 198601.7881166658,
      "d": 1044.2478833333298,
      "v": 100
    },
    {
      "midi": 52,
      "hit": false,
      "t": 199637.18644166552,
      "d": 3982.3012500000186,
      "v": 122
    },
    {
      "midi": 40,
      "hit": false,
      "t": 199716.8324666658,
      "d": 3637.168475000013,
      "v": 108
    },
    {
      "midi": 28,
      "hit": false,
      "t": 199725.68202499914,
      "d": 3548.672891666676,
      "v": 108
    },
    {
      "midi": 55,
      "hit": false,
      "t": 200707.98299999884,
      "d": 1053.0974416666722,
      "v": 103
    },
    {
      "midi": 57,
      "hit": false,
      "t": 200707.98299999884,
      "d": 1053.0974416666722,
      "v": 108
    },
    {
      "midi": 61,
      "hit": false,
      "t": 200707.98299999884,
      "d": 1053.0974416666722,
      "v": 115
    },
    {
      "midi": 66,
      "hit": false,
      "t": 200707.98299999884,
      "d": 1053.0974416666722,
      "v": 80
    },
    {
      "midi": 67,
      "hit": false,
      "t": 200707.98299999884,
      "d": 1053.0974416666722,
      "v": 103
    },
    {
      "midi": 69,
      "hit": false,
      "t": 200707.98299999884,
      "d": 1053.0974416666722,
      "v": 108
    },
    {
      "midi": 49,
      "hit": false,
      "t": 200814.17769999916,
      "d": 566.3717333333334,
      "v": 108
    },
    {
      "midi": 45,
      "hit": false,
      "t": 200831.8768166658,
      "d": 592.9204083333316,
      "v": 97
    },
    {
      "midi": 67,
      "hit": false,
      "t": 201769.92999999886,
      "d": 1053.0974416666722,
      "v": 108
    },
    {
      "midi": 69,
      "hit": false,
      "t": 201769.92999999886,
      "d": 1053.0974416666722,
      "v": 115
    },
    {
      "midi": 73,
      "hit": false,
      "t": 201769.92999999886,
      "d": 1053.0974416666722,
      "v": 115
    },
    {
      "midi": 81,
      "hit": false,
      "t": 201769.92999999886,
      "d": 1053.0974416666722,
      "v": 108
    },
    {
      "midi": 52,
      "hit": false,
      "t": 201840.7264666658,
      "d": 486.72570833333884,
      "v": 108
    },
    {
      "midi": 57,
      "hit": false,
      "t": 201840.7264666658,
      "d": 513.274383333337,
      "v": 108
    },
    {
      "midi": 61,
      "hit": false,
      "t": 201840.7264666658,
      "d": 548.6726166666776,
      "v": 115
    },
    {
      "midi": 79,
      "hit": false,
      "t": 202831.87699999887,
      "d": 1053.0974416666722,
      "v": 103
    },
    {
      "midi": 85,
      "hit": false,
      "t": 202831.87699999887,
      "d": 1053.0974416666722,
      "v": 115
    },
    {
      "midi": 91,
      "hit": false,
      "t": 202831.87699999887,
      "d": 1053.0974416666722,
      "v": 108
    },
    {
      "midi": 93,
      "hit": false,
      "t": 202831.87699999887,
      "d": 1053.0974416666722,
      "v": 108
    },
    {
      "midi": 73,
      "hit": false,
      "t": 202929.2221416658,
      "d": 442.4779166666558,
      "v": 115
    },
    {
      "midi": 64,
      "hit": false,
      "t": 202938.07169999916,
      "d": 415.9292416666576,
      "v": 108
    },
    {
      "midi": 69,
      "hit": false,
      "t": 202938.07169999916,
      "d": 415.9292416666576,
      "v": 103
    },
    {
      "midi": 81,
      "hit": false,
      "t": 203477.8947583322,
      "d": 132.74337499999092,
      "v": 87
    },
    {
      "midi": 83,
      "hit": false,
      "t": 203566.39034166554,
      "d": 283.1858666666667,
      "v": 87
    },
    {
      "midi": 81,
      "hit": false,
      "t": 203787.62929999887,
      "d": 97.34514166667941,
      "v": 92
    },
    {
      "midi": 78,
      "hit": false,
      "t": 203991.16914166554,
      "d": 575.2212916666758,
      "v": 107
    },
    {
      "midi": 45,
      "hit": false,
      "t": 204008.86825833246,
      "d": 539.8230583333352,
      "v": 100
    },
    {
      "midi": 38,
      "hit": false,
      "t": 204017.7178166658,
      "d": 893.8053916666831,
      "v": 100
    },
    {
      "midi": 50,
      "hit": false,
      "t": 204486.74440833245,
      "d": 300.88498333335156,
      "v": 100
    },
    {
      "midi": 81,
      "hit": false,
      "t": 204530.99219999887,
      "d": 203.53984166667215,
      "v": 100
    },
    {
      "midi": 54,
      "hit": false,
      "t": 205000.01879166582,
      "d": 407.0796833333443,
      "v": 115
    },
    {
      "midi": 78,
      "hit": false,
      "t": 205017.7179083322,
      "d": 176.99116666667396,
      "v": 100
    },
    {
      "midi": 81,
      "hit": false,
      "t": 205017.7179083322,
      "d": 221.238958333357,
      "v": 100
    },
    {
      "midi": 86,
      "hit": false,
      "t": 205026.56746666555,
      "d": 203.53984166667215,
      "v": 87
    },
    {
      "midi": 90,
      "hit": false,
      "t": 205513.2931749989,
      "d": 194.69028333335882,
      "v": 115
    },
    {
      "midi": 78,
      "hit": false,
      "t": 205522.14273333224,
      "d": 185.8407250000164,
      "v": 100
    },
    {
      "midi": 57,
      "hit": false,
      "t": 205522.1427333325,
      "d": 212.38940000001458,
      "v": 100
    },
    {
      "midi": 81,
      "hit": false,
      "t": 205530.99229166558,
      "d": 230.08851666667033,
      "v": 93
    },
    {
      "midi": 50,
      "hit": false,
      "t": 205584.08964166584,
      "d": 230.08851666667033,
      "v": 73
    },
    {
      "midi": 88,
      "hit": false,
      "t": 206035.41711666557,
      "d": 504.4248249999946,
      "v": 107
    },
    {
      "midi": 78,
      "hit": false,
      "t": 206035.41711666557,
      "d": 557.5221749999619,
      "v": 115
    },
    {
      "midi": 81,
      "hit": false,
      "t": 206044.26667499891,
      "d": 530.9734999999637,
      "v": 100
    },
    {
      "midi": 62,
      "hit": false,
      "t": 206070.81534999917,
      "d": 194.69028333332972,
      "v": 107
    },
    {
      "midi": 57,
      "hit": false,
      "t": 206442.49679999918,
      "d": 203.53984166667215,
      "v": 93
    },
    {
      "midi": 86,
      "hit": false,
      "t": 206557.54105833222,
      "d": 106.19469999996363,
      "v": 93
    },
    {
      "midi": 54,
      "hit": false,
      "t": 206796.47913333253,
      "d": 230.08851666667033,
      "v": 107
    },
    {
      "midi": 78,
      "hit": false,
      "t": 207053.11632499885,
      "d": 274.3363083333534,
      "v": 107
    },
    {
      "midi": 74,
      "hit": false,
      "t": 207061.9658833322,
      "d": 256.6371916666685,
      "v": 107
    },
    {
      "midi": 50,
      "hit": false,
      "t": 207097.36411666585,
      "d": 292.0354250000091,
      "v": 107
    },
    {
      "midi": 78,
      "hit": false,
      "t": 207592.9393833322,
      "d": 176.99116666667396,
      "v": 115
    },
    {
      "midi": 74,
      "hit": false,
      "t": 207592.9393833322,
      "d": 194.69028333332972,
      "v": 107
    },
    {
      "midi": 81,
      "hit": false,
      "t": 207592.9393833322,
      "d": 212.38939999998547,
      "v": 100
    },
    {
      "midi": 45,
      "hit": false,
      "t": 207637.18717499918,
      "d": 327.43365833332064,
      "v": 93
    },
    {
      "midi": 78,
      "hit": false,
      "t": 208132.76244166552,
      "d": 663.7168750000128,
      "v": 115
    },
    {
      "midi": 74,
      "hit": false,
      "t": 208132.76244166552,
      "d": 690.265550000011,
      "v": 107
    },
    {
      "midi": 81,
      "hit": false,
      "t": 208132.76244166552,
      "d": 690.265550000011,
      "v": 107
    },
    {
      "midi": 83,
      "hit": false,
      "t": 208141.61199999886,
      "d": 681.4159916666686,
      "v": 107
    },
    {
      "midi": 38,
      "hit": false,
      "t": 208141.61199999918,
      "d": 522.1239416666795,
      "v": 87
    },
    {
      "midi": 45,
      "hit": false,
      "t": 208141.61199999918,
      "d": 522.1239416666795,
      "v": 82
    },
    {
      "midi": 50,
      "hit": false,
      "t": 208141.61199999918,
      "d": 522.1239416666795,
      "v": 93
    },
    {
      "midi": 54,
      "hit": false,
      "t": 208654.88638333252,
      "d": 1053.0974416666722,
      "v": 82
    },
    {
      "midi": 57,
      "hit": false,
      "t": 208672.5854999992,
      "d": 1053.0974416666431,
      "v": 82
    },
    {
      "midi": 62,
      "hit": false,
      "t": 208672.5854999992,
      "d": 1053.0974416666431,
      "v": 87
    },
    {
      "midi": 78,
      "hit": false,
      "t": 209150.46164999885,
      "d": 557.5221750000201,
      "v": 115
    },
    {
      "midi": 81,
      "hit": false,
      "t": 209159.3112083322,
      "d": 566.3717333333334,
      "v": 107
    },
    {
      "midi": 83,
      "hit": false,
      "t": 209159.3112083322,
      "d": 566.3717333333334,
      "v": 107
    },
    {
      "midi": 74,
      "hit": false,
      "t": 209159.3112083322,
      "d": 575.2212916666758,
      "v": 107
    },
    {
      "midi": 57,
      "hit": false,
      "t": 209734.5324999992,
      "d": 1053.0974416666722,
      "v": 87
    },
    {
      "midi": 62,
      "hit": false,
      "t": 209734.5324999992,
      "d": 1053.0974416666722,
      "v": 87
    },
    {
      "midi": 66,
      "hit": false,
      "t": 209734.5324999992,
      "d": 1053.0974416666722,
      "v": 100
    },
    {
      "midi": 78,
      "hit": false,
      "t": 209982.3201333322,
      "d": 123.8938166666776,
      "v": 107
    },
    {
      "midi": 74,
      "hit": false,
      "t": 209991.16969166553,
      "d": 88.49558333333698,
      "v": 107
    },
    {
      "midi": 81,
      "hit": false,
      "t": 209991.16969166553,
      "d": 132.74337499999092,
      "v": 100
    },
    {
      "midi": 83,
      "hit": false,
      "t": 209991.16969166553,
      "d": 132.74337499999092,
      "v": 107
    },
    {
      "midi": 81,
      "hit": false,
      "t": 210177.01041666552,
      "d": 637.1681999999855,
      "v": 107
    },
    {
      "midi": 78,
      "hit": false,
      "t": 210177.01041666552,
      "d": 646.017758333328,
      "v": 115
    },
    {
      "midi": 74,
      "hit": false,
      "t": 210177.01041666552,
      "d": 654.8673166666704,
      "v": 107
    },
    {
      "midi": 83,
      "hit": false,
      "t": 210177.01041666552,
      "d": 672.5664333333261,
      "v": 107
    },
    {
      "midi": 62,
      "hit": false,
      "t": 210796.4794999992,
      "d": 522.1239416666795,
      "v": 82
    },
    {
      "midi": 66,
      "hit": false,
      "t": 210796.4794999992,
      "d": 522.1239416666795,
      "v": 107
    },
    {
      "midi": 69,
      "hit": false,
      "t": 210796.4794999992,
      "d": 522.1239416666795,
      "v": 93
    },
    {
      "midi": 78,
      "hit": false,
      "t": 211274.35564999885,
      "d": 212.38939999998547,
      "v": 107
    },
    {
      "midi": 74,
      "hit": false,
      "t": 211292.0547666655,
      "d": 212.38939999998547,
      "v": 100
    },
    {
      "midi": 78,
      "hit": false,
      "t": 211831.8778249988,
      "d": 150.44249166667578,
      "v": 107
    },
    {
      "midi": 80,
      "hit": false,
      "t": 211831.8778249988,
      "d": 176.99116666667396,
      "v": 107
    },
    {
      "midi": 74,
      "hit": false,
      "t": 211840.72738333215,
      "d": 141.59293333333335,
      "v": 100
    },
    {
      "midi": 78,
      "hit": false,
      "t": 212371.70088333215,
      "d": 592.9204083333607,
      "v": 115
    },
    {
      "midi": 81,
      "hit": false,
      "t": 212371.70088333215,
      "d": 628.3186416667013,
      "v": 107
    },
    {
      "midi": 74,
      "hit": false,
      "t": 212380.5504416655,
      "d": 592.9204083333607,
      "v": 107
    },
    {
      "midi": 35,
      "hit": false,
      "t": 212389.3999999992,
      "d": 168.14160833333153,
      "v": 82
    },
    {
      "midi": 42,
      "hit": false,
      "t": 212566.39116666588,
      "d": 168.14160833333153,
      "v": 93
    },
    {
      "midi": 47,
      "hit": false,
      "t": 212743.38233333256,
      "d": 168.14160833333153,
      "v": 87
    },
    {
      "midi": 83,
      "hit": false,
      "t": 212902.67438333217,
      "d": 203.53984166667215,
      "v": 107
    },
    {
      "midi": 50,
      "hit": false,
      "t": 212920.37349999923,
      "d": 168.14160833333153,
      "v": 82
    },
    {
      "midi": 54,
      "hit": false,
      "t": 213097.3646666659,
      "d": 168.14160833333153,
      "v": 87
    },
    {
      "midi": 59,
      "hit": false,
      "t": 213274.35583333258,
      "d": 168.14160833333153,
      "v": 93
    },
    {
      "midi": 78,
      "hit": false,
      "t": 213442.4974416655,
      "d": 168.14160833333153,
      "v": 107
    },
    {
      "midi": 74,
      "hit": false,
      "t": 213451.34699999884,
      "d": 159.2920499999891,
      "v": 100
    },
    {
      "midi": 62,
      "hit": false,
      "t": 213451.34699999925,
      "d": 522.1239416666795,
      "v": 82
    },
    {
      "midi": 78,
      "hit": false,
      "t": 213964.62138333215,
      "d": 97.34514166667941,
      "v": 107
    },
    {
      "midi": 74,
      "hit": false,
      "t": 213964.62138333215,
      "d": 106.19470000002184,
      "v": 100
    },
    {
      "midi": 80,
      "hit": false,
      "t": 213964.62138333215,
      "d": 123.8938166666776,
      "v": 107
    },
    {
      "midi": 78,
      "hit": false,
      "t": 214495.59488333217,
      "d": 592.9204083333316,
      "v": 115
    },
    {
      "midi": 74,
      "hit": false,
      "t": 214504.44444166552,
      "d": 566.3717333333334,
      "v": 107
    },
    {
      "midi": 81,
      "hit": false,
      "t": 214504.44444166552,
      "d": 610.6195249999873,
      "v": 107
    },
    {
      "midi": 40,
      "hit": false,
      "t": 214513.29399999927,
      "d": 203.53984166667215,
      "v": 93
    },
    {
      "midi": 47,
      "hit": false,
      "t": 214725.68339999928,
      "d": 203.53984166667215,
      "v": 93
    },
    {
      "midi": 52,
      "hit": false,
      "t": 214938.0727999993,
      "d": 203.53984166667215,
      "v": 93
    },
    {
      "midi": 83,
      "hit": false,
      "t": 215035.4179416655,
      "d": 176.99116666667396,
      "v": 107
    },
    {
      "midi": 56,
      "hit": false,
      "t": 215150.4621999993,
      "d": 203.53984166667215,
      "v": 107
    },
    {
      "midi": 62,
      "hit": false,
      "t": 215362.85159999933,
      "d": 203.53984166667215,
      "v": 100
    },
    {
      "midi": 78,
      "hit": false,
      "t": 215566.3914416655,
      "d": 194.69028333332972,
      "v": 107
    },
    {
      "midi": 74,
      "hit": false,
      "t": 215575.24099999884,
      "d": 159.2920499999891,
      "v": 100
    },
    {
      "midi": 66,
      "hit": false,
      "t": 215575.24099999934,
      "d": 522.1239416666795,
      "v": 107
    },
    {
      "midi": 78,
      "hit": false,
      "t": 216097.3649416655,
      "d": 106.19470000002184,
      "v": 107
    },
    {
      "midi": 80,
      "hit": false,
      "t": 216097.3649416655,
      "d": 123.8938166666776,
      "v": 107
    },
    {
      "midi": 74,
      "hit": false,
      "t": 216106.21449999884,
      "d": 123.8938166666776,
      "v": 100
    },
    {
      "midi": 33,
      "hit": false,
      "t": 216637.18799999935,
      "d": 522.1239416666795,
      "v": 93
    },
    {
      "midi": 40,
      "hit": false,
      "t": 216637.18799999935,
      "d": 522.1239416666795,
      "v": 100
    },
    {
      "midi": 45,
      "hit": false,
      "t": 216637.18799999935,
      "d": 522.1239416666795,
      "v": 93
    },
    {
      "midi": 74,
      "hit": false,
      "t": 216654.88711666552,
      "d": 646.017758333328,
      "v": 115
    },
    {
      "midi": 69,
      "hit": false,
      "t": 216654.88711666552,
      "d": 672.5664333333261,
      "v": 115
    },
    {
      "midi": 81,
      "hit": false,
      "t": 216654.88711666552,
      "d": 707.9646666666667,
      "v": 107
    },
    {
      "midi": 76,
      "hit": false,
      "t": 216663.73667499886,
      "d": 690.2655499999819,
      "v": 107
    },
    {
      "midi": 52,
      "hit": false,
      "t": 217168.16149999938,
      "d": 1053.0974416666722,
      "v": 93
    },
    {
      "midi": 57,
      "hit": false,
      "t": 217168.16149999938,
      "d": 1053.0974416666722,
      "v": 100
    },
    {
      "midi": 61,
      "hit": false,
      "t": 217168.16149999938,
      "d": 1053.0974416666722,
      "v": 93
    },
    {
      "midi": 81,
      "hit": false,
      "t": 217725.68367499884,
      "d": 495.57526666665217,
      "v": 107
    },
    {
      "midi": 69,
      "hit": false,
      "t": 217725.68367499884,
      "d": 513.2743833333079,
      "v": 115
    },
    {
      "midi": 73,
      "hit": false,
      "t": 217725.68367499884,
      "d": 522.1239416666504,
      "v": 115
    },
    {
      "midi": 76,
      "hit": false,
      "t": 217743.3827916655,
      "d": 504.4248249999946,
      "v": 107
    },
    {
      "midi": 57,
      "hit": false,
      "t": 218230.1084999994,
      "d": 1053.0974416666431,
      "v": 93
    },
    {
      "midi": 64,
      "hit": false,
      "t": 218230.1084999994,
      "d": 1053.0974416666431,
      "v": 107
    },
    {
      "midi": 69,
      "hit": false,
      "t": 218504.44480833216,
      "d": 115.04425833333516,
      "v": 107
    },
    {
      "midi": 73,
      "hit": false,
      "t": 218504.44480833216,
      "d": 123.8938166666776,
      "v": 115
    },
    {
      "midi": 81,
      "hit": false,
      "t": 218504.44480833216,
      "d": 132.74337500002002,
      "v": 100
    },
    {
      "midi": 76,
      "hit": false,
      "t": 218504.44480833216,
      "d": 159.2920500000182,
      "v": 100
    },
    {
      "midi": 69,
      "hit": false,
      "t": 218707.98464999883,
      "d": 681.4159916666686,
      "v": 93
    },
    {
      "midi": 73,
      "hit": false,
      "t": 218707.98464999883,
      "d": 690.265550000011,
      "v": 115
    },
    {
      "midi": 76,
      "hit": false,
      "t": 218707.98464999883,
      "d": 716.8142250000092,
      "v": 115
    },
    {
      "midi": 81,
      "hit": false,
      "t": 218707.98464999883,
      "d": 752.2124583333498,
      "v": 100
    },
    {
      "midi": 61,
      "hit": false,
      "t": 219265.50682499938,
      "d": 17.699116666655755,
      "v": 93
    },
    {
      "midi": 64,
      "hit": false,
      "t": 219292.05549999938,
      "d": 522.1239416666795,
      "v": 100
    },
    {
      "midi": 69,
      "hit": false,
      "t": 219292.05549999938,
      "d": 522.1239416666795,
      "v": 100
    },
    {
      "midi": 85,
      "hit": false,
      "t": 220354.00249999884,
      "d": 150.44249166667578,
      "v": 100
    },
    {
      "midi": 86,
      "hit": false,
      "t": 220504.4449916655,
      "d": 247.78763333332608,
      "v": 66
    },
    {
      "midi": 85,
      "hit": false,
      "t": 220681.4361583322,
      "d": 159.2920499999891,
      "v": 100
    },
    {
      "midi": 83,
      "hit": false,
      "t": 220858.42732499883,
      "d": 592.9204083333316,
      "v": 100
    },
    {
      "midi": 43,
      "hit": false,
      "t": 220884.97599999938,
      "d": 256.6371916666685,
      "v": 107
    },
    {
      "midi": 50,
      "hit": false,
      "t": 220884.97599999938,
      "d": 256.6371916666685,
      "v": 107
    },
    {
      "midi": 55,
      "hit": false,
      "t": 221150.4627499994,
      "d": 256.6371916666685,
      "v": 82
    },
    {
      "midi": 86,
      "hit": false,
      "t": 221407.0999416655,
      "d": 194.69028333332972,
      "v": 100
    },
    {
      "midi": 59,
      "hit": false,
      "t": 221415.9494999994,
      "d": 256.6371916666685,
      "v": 82
    },
    {
      "midi": 62,
      "hit": false,
      "t": 221681.43624999942,
      "d": 256.6371916666685,
      "v": 87
    },
    {
      "midi": 86,
      "hit": false,
      "t": 221946.92299999885,
      "d": 247.78763333332608,
      "v": 107
    },
    {
      "midi": 91,
      "hit": false,
      "t": 221946.92299999885,
      "d": 274.33630833332427,
      "v": 100
    },
    {
      "midi": 67,
      "hit": false,
      "t": 221946.92299999943,
      "d": 203.53984166667215,
      "v": 93
    },
    {
      "midi": 83,
      "hit": false,
      "t": 221955.7725583322,
      "d": 221.2389583333279,
      "v": 93
    },
    {
      "midi": 62,
      "hit": false,
      "t": 222159.31239999944,
      "d": 203.53984166667215,
      "v": 82
    },
    {
      "midi": 59,
      "hit": false,
      "t": 222371.70179999946,
      "d": 203.53984166667215,
      "v": 77
    },
    {
      "midi": 95,
      "hit": false,
      "t": 222460.19738333218,
      "d": 168.14160833333153,
      "v": 107
    },
    {
      "midi": 83,
      "hit": false,
      "t": 222460.19738333218,
      "d": 194.69028333332972,
      "v": 107
    },
    {
      "midi": 86,
      "hit": false,
      "t": 222460.19738333218,
      "d": 203.53984166667215,
      "v": 107
    },
    {
      "midi": 55,
      "hit": false,
      "t": 222584.09119999947,
      "d": 203.53984166667215,
      "v": 87
    },
    {
      "midi": 50,
      "hit": false,
      "t": 222796.4805999995,
      "d": 203.53984166667215,
      "v": 77
    },
    {
      "midi": 93,
      "hit": false,
      "t": 222991.17088333218,
      "d": 504.4248249999946,
      "v": 107
    },
    {
      "midi": 86,
      "hit": false,
      "t": 222991.17088333218,
      "d": 557.522174999991,
      "v": 107
    },
    {
      "midi": 83,
      "hit": false,
      "t": 223000.02044166552,
      "d": 619.4690833333007,
      "v": 100
    },
    {
      "midi": 43,
      "hit": false,
      "t": 223008.8699999995,
      "d": 203.53984166667215,
      "v": 87
    },
    {
      "midi": 50,
      "hit": false,
      "t": 223221.25939999952,
      "d": 203.53984166667215,
      "v": 93
    },
    {
      "midi": 55,
      "hit": false,
      "t": 223433.64879999953,
      "d": 203.53984166667215,
      "v": 93
    },
    {
      "midi": 91,
      "hit": false,
      "t": 223522.14438333217,
      "d": 141.59293333330425,
      "v": 100
    },
    {
      "midi": 59,
      "hit": false,
      "t": 223646.03819999954,
      "d": 203.53984166667215,
      "v": 82
    },
    {
      "midi": 62,
      "hit": false,
      "t": 223858.42759999956,
      "d": 203.53984166667215,
      "v": 100
    },
    {
      "midi": 79,
      "hit": false,
      "t": 224070.81699999882,
      "d": 221.2389583333279,
      "v": 93
    },
    {
      "midi": 83,
      "hit": false,
      "t": 224070.81699999882,
      "d": 221.2389583333279,
      "v": 100
    },
    {
      "midi": 67,
      "hit": false,
      "t": 224070.81699999957,
      "d": 522.1239416666795,
      "v": 87
    },
    {
      "midi": 79,
      "hit": false,
      "t": 224575.2418249988,
      "d": 194.69028333332972,
      "v": 100
    },
    {
      "midi": 86,
      "hit": false,
      "t": 224575.2418249988,
      "d": 194.69028333332972,
      "v": 107
    },
    {
      "midi": 83,
      "hit": false,
      "t": 224575.2418249988,
      "d": 203.53984166667215,
      "v": 100
    },
    {
      "midi": 79,
      "hit": false,
      "t": 225123.9144416655,
      "d": 548.6726166666776,
      "v": 100
    },
    {
      "midi": 86,
      "hit": false,
      "t": 225132.76399999883,
      "d": 504.4248249999946,
      "v": 100
    },
    {
      "midi": 90,
      "hit": false,
      "t": 225132.76399999883,
      "d": 504.4248249999946,
      "v": 115
    },
    {
      "midi": 83,
      "hit": false,
      "t": 225132.76399999883,
      "d": 513.274383333337,
      "v": 100
    },
    {
      "midi": 40,
      "hit": false,
      "t": 225132.7639999996,
      "d": 522.1239416666504,
      "v": 100
    },
    {
      "midi": 47,
      "hit": false,
      "t": 225132.7639999996,
      "d": 522.1239416666504,
      "v": 93
    },
    {
      "midi": 52,
      "hit": false,
      "t": 225132.7639999996,
      "d": 522.1239416666504,
      "v": 93
    },
    {
      "midi": 55,
      "hit": false,
      "t": 225637.18882499958,
      "d": 1053.0974416666722,
      "v": 93
    },
    {
      "midi": 59,
      "hit": false,
      "t": 225663.73749999958,
      "d": 1053.0974416666722,
      "v": 87
    },
    {
      "midi": 62,
      "hit": false,
      "t": 225663.73749999958,
      "d": 1053.0974416666722,
      "v": 100
    },
    {
      "midi": 66,
      "hit": false,
      "t": 225663.73749999958,
      "d": 1053.0974416666722,
      "v": 107
    },
    {
      "midi": 90,
      "hit": false,
      "t": 226132.7640916655,
      "d": 415.9292416666867,
      "v": 115
    },
    {
      "midi": 79,
      "hit": false,
      "t": 226141.61364999885,
      "d": 469.0265916666831,
      "v": 100
    },
    {
      "midi": 83,
      "hit": false,
      "t": 226150.4632083322,
      "d": 424.77880000000005,
      "v": 100
    },
    {
      "midi": 86,
      "hit": false,
      "t": 226150.4632083322,
      "d": 433.6283583333425,
      "v": 100
    },
    {
      "midi": 59,
      "hit": false,
      "t": 226725.6844999996,
      "d": 1053.0974416666722,
      "v": 93
    },
    {
      "midi": 62,
      "hit": false,
      "t": 226725.6844999996,
      "d": 1053.0974416666722,
      "v": 93
    },
    {
      "midi": 66,
      "hit": false,
      "t": 226725.6844999996,
      "d": 1053.0974416666722,
      "v": 107
    },
    {
      "midi": 67,
      "hit": false,
      "t": 226725.6844999996,
      "d": 1053.0974416666722,
      "v": 100
    },
    {
      "midi": 90,
      "hit": false,
      "t": 226929.22434166554,
      "d": 106.19470000002184,
      "v": 115
    },
    {
      "midi": 79,
      "hit": false,
      "t": 226938.07389999888,
      "d": 106.19470000002184,
      "v": 93
    },
    {
      "midi": 86,
      "hit": false,
      "t": 226938.07389999888,
      "d": 132.74337500002002,
      "v": 100
    },
    {
      "midi": 83,
      "hit": false,
      "t": 226946.92345833222,
      "d": 115.04425833333516,
      "v": 100
    },
    {
      "midi": 86,
      "hit": false,
      "t": 227123.9146249989,
      "d": 522.1239416666795,
      "v": 93
    },
    {
      "midi": 83,
      "hit": false,
      "t": 227123.9146249989,
      "d": 557.5221750000201,
      "v": 107
    },
    {
      "midi": 90,
      "hit": false,
      "t": 227123.9146249989,
      "d": 575.2212916666758,
      "v": 124
    },
    {
      "midi": 79,
      "hit": false,
      "t": 227123.9146249989,
      "d": 601.769966666674,
      "v": 93
    },
    {
      "midi": 62,
      "hit": false,
      "t": 227787.6314999996,
      "d": 522.1239416666795,
      "v": 100
    },
    {
      "midi": 66,
      "hit": false,
      "t": 227787.6314999996,
      "d": 522.1239416666795,
      "v": 107
    },
    {
      "midi": 67,
      "hit": false,
      "t": 227787.6314999996,
      "d": 522.1239416666795,
      "v": 100
    },
    {
      "midi": 71,
      "hit": false,
      "t": 227787.6314999996,
      "d": 522.1239416666795,
      "v": 100
    },
    {
      "midi": 79,
      "hit": false,
      "t": 228292.0563249989,
      "d": 256.6371916666685,
      "v": 100
    },
    {
      "midi": 83,
      "hit": false,
      "t": 228292.0563249989,
      "d": 283.1858666666667,
      "v": 107
    },
    {
      "midi": 85,
      "hit": false,
      "t": 228831.87938333224,
      "d": 203.53984166670125,
      "v": 115
    },
    {
      "midi": 83,
      "hit": false,
      "t": 228840.72894166558,
      "d": 176.99116666667396,
      "v": 93
    },
    {
      "midi": 79,
      "hit": false,
      "t": 228840.72894166558,
      "d": 185.8407250000164,
      "v": 93
    },
    {
      "midi": 45,
      "hit": false,
      "t": 229380.55199999962,
      "d": 203.53984166667215,
      "v": 87
    },
    {
      "midi": 83,
      "hit": false,
      "t": 229389.40155833226,
      "d": 610.6195249999873,
      "v": 107
    },
    {
      "midi": 79,
      "hit": false,
      "t": 229389.40155833226,
      "d": 619.4690833333298,
      "v": 100
    },
    {
      "midi": 86,
      "hit": false,
      "t": 229389.40155833226,
      "d": 637.1681999999855,
      "v": 107
    },
    {
      "midi": 52,
      "hit": false,
      "t": 229592.94139999963,
      "d": 203.53984166667215,
      "v": 100
    },
    {
      "midi": 57,
      "hit": false,
      "t": 229805.33079999965,
      "d": 203.53984166667215,
      "v": 100
    },
    {
      "midi": 88,
      "hit": false,
      "t": 229920.37505833225,
      "d": 230.08851666667033,
      "v": 115
    },
    {
      "midi": 62,
      "hit": false,
      "t": 230017.72019999966,
      "d": 203.53984166667215,
      "v": 100
    },
    {
      "midi": 67,
      "hit": false,
      "t": 230230.10959999968,
      "d": 203.53984166667215,
      "v": 100
    },
    {
      "midi": 71,
      "hit": false,
      "t": 230442.4989999997,
      "d": 522.1239416666795,
      "v": 100
    },
    {
      "midi": 83,
      "hit": false,
      "t": 230460.1981166656,
      "d": 212.38939999998547,
      "v": 100
    },
    {
      "midi": 79,
      "hit": false,
      "t": 230460.1981166656,
      "d": 221.2389583333279,
      "v": 100
    },
    {
      "midi": 85,
      "hit": false,
      "t": 230982.32205833224,
      "d": 185.8407250000164,
      "v": 115
    },
    {
      "midi": 79,
      "hit": false,
      "t": 230991.17161666558,
      "d": 176.99116666667396,
      "v": 93
    },
    {
      "midi": 83,
      "hit": false,
      "t": 230991.17161666558,
      "d": 176.99116666667396,
      "v": 100
    },
    {
      "midi": 45,
      "hit": false,
      "t": 231504.4459999997,
      "d": 203.53984166667215,
      "v": 93
    },
    {
      "midi": 79,
      "hit": false,
      "t": 231522.14511666558,
      "d": 566.3717333333334,
      "v": 100
    },
    {
      "midi": 83,
      "hit": false,
      "t": 231522.14511666558,
      "d": 575.2212916666758,
      "v": 107
    },
    {
      "midi": 86,
      "hit": false,
      "t": 231522.14511666558,
      "d": 610.6195250000164,
      "v": 107
    },
    {
      "midi": 52,
      "hit": false,
      "t": 231716.83539999972,
      "d": 203.53984166667215,
      "v": 93
    },
    {
      "midi": 57,
      "hit": false,
      "t": 231929.22479999973,
      "d": 203.53984166667215,
      "v": 93
    },
    {
      "midi": 88,
      "hit": false,
      "t": 232044.26905833225,
      "d": 176.99116666667396,
      "v": 107
    },
    {
      "midi": 61,
      "hit": false,
      "t": 232168.16287499975,
      "d": 203.53984166664304,
      "v": 93
    },
    {
      "midi": 67,
      "hit": false,
      "t": 232354.00359999973,
      "d": 203.53984166664304,
      "v": 93
    },
    {
      "midi": 71,
      "hit": false,
      "t": 232566.39299999972,
      "d": 522.1239416666795,
      "v": 100
    },
    {
      "midi": 83,
      "hit": false,
      "t": 232601.79123333227,
      "d": 221.238958333357,
      "v": 107
    },
    {
      "midi": 79,
      "hit": false,
      "t": 232610.64079166562,
      "d": 203.53984166667215,
      "v": 93
    },
    {
      "midi": 85,
      "hit": false,
      "t": 233097.36649999896,
      "d": 115.04425833333516,
      "v": 115
    },
    {
      "midi": 83,
      "hit": false,
      "t": 233106.2160583323,
      "d": 79.64602499999455,
      "v": 100
    },
    {
      "midi": 79,
      "hit": false,
      "t": 233106.2160583323,
      "d": 115.04425833333516,
      "v": 93
    },
    {
      "midi": 38,
      "hit": false,
      "t": 233628.33999999973,
      "d": 522.1239416666795,
      "v": 75
    },
    {
      "midi": 45,
      "hit": false,
      "t": 233628.33999999973,
      "d": 522.1239416666795,
      "v": 81
    },
    {
      "midi": 50,
      "hit": false,
      "t": 233628.33999999973,
      "d": 522.1239416666795,
      "v": 75
    },
    {
      "midi": 74,
      "hit": false,
      "t": 233637.1895583323,
      "d": 566.3717333333334,
      "v": 81
    },
    {
      "midi": 86,
      "hit": false,
      "t": 233637.1895583323,
      "d": 566.3717333333334,
      "v": 75
    },
    {
      "midi": 79,
      "hit": false,
      "t": 233646.03911666563,
      "d": 530.9734999999928,
      "v": 75
    },
    {
      "midi": 81,
      "hit": false,
      "t": 233646.03911666563,
      "d": 575.2212916666467,
      "v": 75
    },
    {
      "midi": 57,
      "hit": false,
      "t": 234159.31349999976,
      "d": 1053.0974416666722,
      "v": 81
    },
    {
      "midi": 62,
      "hit": false,
      "t": 234159.31349999976,
      "d": 1053.0974416666722,
      "v": 81
    },
    {
      "midi": 66,
      "hit": false,
      "t": 234159.31349999976,
      "d": 1053.0974416666722,
      "v": 81
    },
    {
      "midi": 78,
      "hit": false,
      "t": 234672.58788333228,
      "d": 504.4248249999946,
      "v": 81
    },
    {
      "midi": 74,
      "hit": false,
      "t": 234681.43744166562,
      "d": 495.57526666665217,
      "v": 75
    },
    {
      "midi": 86,
      "hit": false,
      "t": 234681.43744166562,
      "d": 495.57526666665217,
      "v": 75
    },
    {
      "midi": 81,
      "hit": false,
      "t": 234681.43744166562,
      "d": 522.1239416666504,
      "v": 75
    },
    {
      "midi": 62,
      "hit": false,
      "t": 235221.26049999977,
      "d": 1053.0974416666722,
      "v": 81
    },
    {
      "midi": 66,
      "hit": false,
      "t": 235221.26049999977,
      "d": 1053.0974416666722,
      "v": 81
    },
    {
      "midi": 69,
      "hit": false,
      "t": 235221.26049999977,
      "d": 1053.0974416666722,
      "v": 75
    },
    {
      "midi": 74,
      "hit": false,
      "t": 235486.74724999894,
      "d": 97.34514166667941,
      "v": 81
    },
    {
      "midi": 78,
      "hit": false,
      "t": 235486.74724999894,
      "d": 97.34514166667941,
      "v": 81
    },
    {
      "midi": 81,
      "hit": false,
      "t": 235486.74724999894,
      "d": 141.59293333336245,
      "v": 75
    },
    {
      "midi": 86,
      "hit": false,
      "t": 235495.59680833228,
      "d": 123.8938166666776,
      "v": 75
    },
    {
      "midi": 78,
      "hit": false,
      "t": 235672.58797499895,
      "d": 1008.8496500000183,
      "v": 81
    },
    {
      "midi": 74,
      "hit": false,
      "t": 235672.58797499895,
      "d": 1026.548766666674,
      "v": 81
    },
    {
      "midi": 86,
      "hit": false,
      "t": 235672.58797499895,
      "d": 1044.2478833333298,
      "v": 75
    },
    {
      "midi": 81,
      "hit": false,
      "t": 235681.4375333323,
      "d": 1017.6992083333316,
      "v": 70
    },
    {
      "midi": 66,
      "hit": false,
      "t": 236283.2074999998,
      "d": 522.1239416666795,
      "v": 81
    },
    {
      "midi": 69,
      "hit": false,
      "t": 236283.2074999998,
      "d": 522.1239416666795,
      "v": 75
    },
    {
      "midi": 74,
      "hit": false,
      "t": 236283.2074999998,
      "d": 522.1239416666795,
      "v": 75
    },
    {
      "midi": 43,
      "hit": false,
      "t": 237876.1279999998,
      "d": 1867.2568083333317,
      "v": 38
    },
    {
      "midi": 50,
      "hit": false,
      "t": 237876.1279999998,
      "d": 1867.2568083333317,
      "v": 43
    },
    {
      "midi": 50,
      "hit": false,
      "t": 239955.7742083331,
      "d": 1893.80548333333,
      "v": 31
    },
    {
      "midi": 43,
      "hit": false,
      "t": 239964.62376666645,
      "d": 1858.4072499999893,
      "v": 27
    },
    {
      "midi": 71,
      "hit": false,
      "t": 242070.81864999895,
      "d": 504.4248249999946,
      "v": 38
    },
    {
      "midi": 59,
      "hit": false,
      "t": 242088.5177666656,
      "d": 1849.5576916666469,
      "v": 27
    },
    {
      "midi": 62,
      "hit": false,
      "t": 242088.5177666656,
      "d": 1876.106366666645,
      "v": 38
    },
    {
      "midi": 50,
      "hit": false,
      "t": 242088.51776666645,
      "d": 1840.7081333333335,
      "v": 34
    },
    {
      "midi": 43,
      "hit": false,
      "t": 242097.3673249998,
      "d": 1814.1594583333354,
      "v": 34
    },
    {
      "midi": 69,
      "hit": false,
      "t": 242566.3939166656,
      "d": 1017.6992083333316,
      "v": 43
    },
    {
      "midi": 67,
      "hit": false,
      "t": 243610.64179999894,
      "d": 407.0796833333152,
      "v": 34
    },
    {
      "midi": 62,
      "hit": false,
      "t": 244106.2170666656,
      "d": 1707.9647583333426,
      "v": 27
    },
    {
      "midi": 59,
      "hit": false,
      "t": 244106.2170666656,
      "d": 1734.5134333333408,
      "v": 19
    },
    {
      "midi": 66,
      "hit": false,
      "t": 244106.2170666656,
      "d": 1734.5134333333408,
      "v": 43
    },
    {
      "midi": 50,
      "hit": false,
      "t": 244185.86309166646,
      "d": 1911.5045999999566,
      "v": 24
    },
    {
      "midi": 59,
      "hit": false,
      "t": 244203.5622083331,
      "d": 557.522174999991,
      "v": 31
    },
    {
      "midi": 43,
      "hit": false,
      "t": 244203.5622083331,
      "d": 1884.9559249999584,
      "v": 27
    },
    {
      "midi": 57,
      "hit": false,
      "t": 244778.78349999976,
      "d": 1061.9469999999856,
      "v": 31
    },
    {
      "midi": 55,
      "hit": false,
      "t": 245840.73049999974,
      "d": 522.1239416666795,
      "v": 21
    },
    {
      "midi": 69,
      "hit": false,
      "t": 246336.30576666558,
      "d": 522.1239416666795,
      "v": 38
    },
    {
      "midi": 60,
      "hit": false,
      "t": 246345.15532499892,
      "d": 1911.5045999999857,
      "v": 34
    },
    {
      "midi": 57,
      "hit": false,
      "t": 246345.15532499892,
      "d": 1920.354158333328,
      "v": 24
    },
    {
      "midi": 43,
      "hit": false,
      "t": 246354.00488333308,
      "d": 1831.8585750000202,
      "v": 27
    },
    {
      "midi": 50,
      "hit": false,
      "t": 246354.00488333308,
      "d": 1858.4072500000184,
      "v": 27
    },
    {
      "midi": 54,
      "hit": false,
      "t": 246371.70399999977,
      "d": 1858.4072499999893,
      "v": 38
    },
    {
      "midi": 67,
      "hit": false,
      "t": 246867.2792666656,
      "d": 982.300974999991,
      "v": 34
    },
    {
      "midi": 66,
      "hit": false,
      "t": 247929.2262666656,
      "d": 336.28321666666307,
      "v": 43
    },
    {
      "midi": 50,
      "hit": false,
      "t": 248433.65109166643,
      "d": 1849.557691666676,
      "v": 19
    },
    {
      "midi": 43,
      "hit": false,
      "t": 248442.50064999977,
      "d": 1814.1594583333354,
      "v": 27
    },
    {
      "midi": 57,
      "hit": false,
      "t": 248451.3502083331,
      "d": 522.1239416666795,
      "v": 38
    },
    {
      "midi": 60,
      "hit": false,
      "t": 248460.19976666558,
      "d": 1663.7169666666887,
      "v": 43
    },
    {
      "midi": 57,
      "hit": false,
      "t": 248460.19976666558,
      "d": 1707.9647583333426,
      "v": 27
    },
    {
      "midi": 64,
      "hit": false,
      "t": 248469.04932499892,
      "d": 1725.6638749999984,
      "v": 38
    },
    {
      "midi": 55,
      "hit": false,
      "t": 249000.0228249998,
      "d": 1097.3452333333262,
      "v": 24
    },
    {
      "midi": 54,
      "hit": false,
      "t": 250079.66894166646,
      "d": 477.8761499999673,
      "v": 43
    },
    {
      "midi": 43,
      "hit": false,
      "t": 250566.39464999977,
      "d": 1575.2213833333517,
      "v": 24
    },
    {
      "midi": 50,
      "hit": false,
      "t": 250566.39464999977,
      "d": 1761.062108333339,
      "v": 24
    },
    {
      "midi": 52,
      "hit": false,
      "t": 250575.2442083331,
      "d": 1955.7523916666687,
      "v": 34
    },
    {
      "midi": 67,
      "hit": false,
      "t": 250601.79288333227,
      "d": 548.6726166666776,
      "v": 34
    },
    {
      "midi": 59,
      "hit": false,
      "t": 250610.6424416656,
      "d": 1663.7169666666596,
      "v": 43
    },
    {
      "midi": 55,
      "hit": false,
      "t": 250619.49199999895,
      "d": 1849.5576916666469,
      "v": 34
    },
    {
      "midi": 66,
      "hit": false,
      "t": 251132.7663833323,
      "d": 1035.3983249999874,
      "v": 55
    },
    {
      "midi": 64,
      "hit": false,
      "t": 252256.6602916656,
      "d": 460.17703333331156,
      "v": 19
    },
    {
      "midi": 40,
      "hit": false,
      "t": 252654.89041666646,
      "d": 2230.088699999964,
      "v": 62
    },
    {
      "midi": 55,
      "hit": false,
      "t": 252672.5895333331,
      "d": 469.026591666654,
      "v": 43
    },
    {
      "midi": 62,
      "hit": false,
      "t": 252769.93467499892,
      "d": 1637.1682916666614,
      "v": 43
    },
    {
      "midi": 67,
      "hit": false,
      "t": 252769.93467499892,
      "d": 1646.0178500000038,
      "v": 55
    },
    {
      "midi": 55,
      "hit": false,
      "t": 252769.93467499892,
      "d": 1707.9647583333426,
      "v": 43
    },
    {
      "midi": 54,
      "hit": false,
      "t": 253141.61612499977,
      "d": 1212.3894916666613,
      "v": 34
    },
    {
      "midi": 52,
      "hit": false,
      "t": 254318.6073833331,
      "d": 557.522174999991,
      "v": 38
    },
    {
      "midi": 61,
      "hit": false,
      "t": 254823.03220833227,
      "d": 1672.566525000031,
      "v": 49
    },
    {
      "midi": 66,
      "hit": false,
      "t": 254831.8817666656,
      "d": 557.5221750000201,
      "v": 49
    },
    {
      "midi": 55,
      "hit": false,
      "t": 254840.73132499895,
      "d": 2035.3984166666924,
      "v": 24
    },
    {
      "midi": 45,
      "hit": false,
      "t": 254849.58088333308,
      "d": 1663.7169666666596,
      "v": 38
    },
    {
      "midi": 33,
      "hit": false,
      "t": 254849.58088333308,
      "d": 1814.1594583333354,
      "v": 43
    },
    {
      "midi": 64,
      "hit": false,
      "t": 255415.95261666563,
      "d": 1203.539933333348,
      "v": 34
    },
    {
      "midi": 66,
      "hit": false,
      "t": 256460.20049999896,
      "d": 522.1239416666795,
      "v": 55
    },
    {
      "midi": 38,
      "hit": false,
      "t": 256902.67841666643,
      "d": 823.0089250000019,
      "v": 43
    },
    {
      "midi": 45,
      "hit": false,
      "t": 256902.67841666643,
      "d": 849.5576000000001,
      "v": 38
    },
    {
      "midi": 54,
      "hit": false,
      "t": 256946.9262083323,
      "d": 1769.9116666666523,
      "v": 31
    },
    {
      "midi": 62,
      "hit": false,
      "t": 256955.77576666564,
      "d": 1743.3629916666541,
      "v": 43
    },
    {
      "midi": 62,
      "hit": false,
      "t": 257433.65191666642,
      "d": 1132.743466666696,
      "v": 58
    },
    {
      "midi": 50,
      "hit": false,
      "t": 257433.65191666642,
      "d": 1176.9912583333498,
      "v": 54
    },
    {
      "midi": 49,
      "hit": false,
      "t": 258557.54582499978,
      "d": 469.026591666654,
      "v": 54
    },
    {
      "midi": 61,
      "hit": false,
      "t": 258557.54582499978,
      "d": 469.026591666654,
      "v": 58
    },
    {
      "midi": 48,
      "hit": false,
      "t": 259070.82020833308,
      "d": 1911.5045999999857,
      "v": 46
    },
    {
      "midi": 76,
      "hit": false,
      "t": 259079.6697666656,
      "d": 513.274383333337,
      "v": 58
    },
    {
      "midi": 64,
      "hit": false,
      "t": 259079.6697666656,
      "d": 1893.80548333333,
      "v": 63
    },
    {
      "midi": 55,
      "hit": false,
      "t": 259079.66976666643,
      "d": 1858.4072499999893,
      "v": 50
    },
    {
      "midi": 60,
      "hit": false,
      "t": 259079.66976666643,
      "d": 1955.7523916666396,
      "v": 54
    },
    {
      "midi": 71,
      "hit": false,
      "t": 259088.51932499895,
      "d": 1610.6196166666632,
      "v": 63
    },
    {
      "midi": 74,
      "hit": false,
      "t": 259601.7937083323,
      "d": 1053.0974416666722,
      "v": 75
    },
    {
      "midi": 72,
      "hit": false,
      "t": 260699.13894166562,
      "d": 389.38056666665943,
      "v": 63
    },
    {
      "midi": 64,
      "hit": false,
      "t": 261168.16553333227,
      "d": 1752.2125500000548,
      "v": 75
    },
    {
      "midi": 71,
      "hit": false,
      "t": 261168.16553333227,
      "d": 1831.8585750000784,
      "v": 75
    },
    {
      "midi": 52,
      "hit": false,
      "t": 261168.16553333306,
      "d": 946.9027416667086,
      "v": 58
    },
    {
      "midi": 67,
      "hit": false,
      "t": 261177.0150916656,
      "d": 1725.6638750000275,
      "v": 75
    },
    {
      "midi": 55,
      "hit": false,
      "t": 261177.0150916664,
      "d": 1734.513433333399,
      "v": 69
    },
    {
      "midi": 64,
      "hit": false,
      "t": 261185.86464999974,
      "d": 522.1239416666795,
      "v": 75
    },
    {
      "midi": 62,
      "hit": false,
      "t": 261699.13903333308,
      "d": 1115.044350000011,
      "v": 63
    },
    {
      "midi": 50,
      "hit": false,
      "t": 261716.83814999976,
      "d": 1115.044350000011,
      "v": 44
    },
    {
      "midi": 48,
      "hit": false,
      "t": 262805.33382499975,
      "d": 451.32747500005644,
      "v": 54
    },
    {
      "midi": 60,
      "hit": false,
      "t": 262814.1833833331,
      "d": 398.23012500006007,
      "v": 63
    },
    {
      "midi": 59,
      "hit": false,
      "t": 263300.90909166646,
      "d": 1911.5045999999857,
      "v": 58
    },
    {
      "midi": 47,
      "hit": false,
      "t": 263300.90909166646,
      "d": 1938.053275000013,
      "v": 54
    },
    {
      "midi": 54,
      "hit": false,
      "t": 263309.7586499998,
      "d": 1946.9028333333554,
      "v": 69
    },
    {
      "midi": 74,
      "hit": false,
      "t": 263327.45776666567,
      "d": 522.1239416666795,
      "v": 82
    },
    {
      "midi": 62,
      "hit": false,
      "t": 263336.307324999,
      "d": 1876.106366666616,
      "v": 69
    },
    {
      "midi": 69,
      "hit": false,
      "t": 263345.15688333235,
      "d": 1601.7700583332917,
      "v": 69
    },
    {
      "midi": 72,
      "hit": false,
      "t": 263858.4312666657,
      "d": 1000.0000916666468,
      "v": 69
    },
    {
      "midi": 71,
      "hit": false,
      "t": 264911.52870833233,
      "d": 424.77879999997094,
      "v": 63
    },
    {
      "midi": 66,
      "hit": false,
      "t": 265389.4048583323,
      "d": 1743.3629916666541,
      "v": 82
    },
    {
      "midi": 62,
      "hit": false,
      "t": 265389.4048583323,
      "d": 1752.2125499999966,
      "v": 54
    },
    {
      "midi": 69,
      "hit": false,
      "t": 265389.4048583323,
      "d": 1867.2568083333317,
      "v": 63
    },
    {
      "midi": 50,
      "hit": false,
      "t": 265415.95353333314,
      "d": 566.3717333333916,
      "v": 63
    },
    {
      "midi": 54,
      "hit": false,
      "t": 265424.8030916665,
      "d": 1725.6638750000275,
      "v": 82
    },
    {
      "midi": 62,
      "hit": false,
      "t": 265433.6526499998,
      "d": 522.1239416666795,
      "v": 75
    },
    {
      "midi": 48,
      "hit": false,
      "t": 265982.32526666654,
      "d": 1061.9469999999856,
      "v": 51
    },
    {
      "midi": 60,
      "hit": false,
      "t": 265982.32526666654,
      "d": 1070.796558333328,
      "v": 63
    },
    {
      "midi": 47,
      "hit": false,
      "t": 267044.2722666665,
      "d": 433.6283583333134,
      "v": 54
    },
    {
      "midi": 59,
      "hit": false,
      "t": 267053.12182499986,
      "d": 522.1239416666795,
      "v": 63
    },
    {
      "midi": 52,
      "hit": false,
      "t": 267539.8475333332,
      "d": 1106.1947916666977,
      "v": 54
    },
    {
      "midi": 57,
      "hit": false,
      "t": 267539.8475333332,
      "d": 1433.6284500000183,
      "v": 75
    },
    {
      "midi": 45,
      "hit": false,
      "t": 267557.54664999986,
      "d": 1203.539933333348,
      "v": 58
    },
    {
      "midi": 72,
      "hit": false,
      "t": 267592.9448833323,
      "d": 486.72570833336795,
      "v": 75
    },
    {
      "midi": 60,
      "hit": false,
      "t": 267592.9448833323,
      "d": 548.6726166667067,
      "v": 69
    },
    {
      "midi": 67,
      "hit": false,
      "t": 267601.79444166564,
      "d": 584.0708500000183,
      "v": 69
    },
    {
      "midi": 71,
      "hit": false,
      "t": 268070.8210333323,
      "d": 1044.247883333359,
      "v": 75
    },
    {
      "midi": 69,
      "hit": false,
      "t": 269168.1662666657,
      "d": 123.8938166666776,
      "v": 63
    },
    {
      "midi": 33,
      "hit": false,
      "t": 269592.9450666665,
      "d": 2185.84090833331,
      "v": 54
    },
    {
      "midi": 72,
      "hit": false,
      "t": 269672.5910916657,
      "d": 1061.9469999999856,
      "v": 69
    },
    {
      "midi": 67,
      "hit": false,
      "t": 269672.5910916657,
      "d": 1097.345233333297,
      "v": 69
    },
    {
      "midi": 60,
      "hit": false,
      "t": 269681.44064999983,
      "d": 504.4248249999946,
      "v": 69
    },
    {
      "midi": 78,
      "hit": false,
      "t": 269734.537999999,
      "d": 1327.4337499999092,
      "v": 69
    },
    {
      "midi": 59,
      "hit": false,
      "t": 270265.51149999985,
      "d": 964.6018583333353,
      "v": 69
    },
    {
      "midi": 81,
      "hit": false,
      "t": 271026.5735166656,
      "d": 283.1858666666667,
      "v": 63
    },
    {
      "midi": 57,
      "hit": false,
      "t": 271318.6089416665,
      "d": 681.4159916666686,
      "v": 82
    },
    {
      "midi": 79,
      "hit": false,
      "t": 271345.1576166656,
      "d": 238.93807500001276,
      "v": 63
    },
    {
      "midi": 76,
      "hit": false,
      "t": 271504.4496666656,
      "d": 168.14160833333153,
      "v": 54
    },
    {
      "midi": 72,
      "hit": false,
      "t": 271628.34348333225,
      "d": 97.3451416666503,
      "v": 63
    },
    {
      "midi": 50,
      "hit": false,
      "t": 271858.43199999986,
      "d": 1964.601949999982,
      "v": 75
    },
    {
      "midi": 38,
      "hit": false,
      "t": 271858.43199999986,
      "d": 2097.345324999944,
      "v": 63
    },
    {
      "midi": 71,
      "hit": false,
      "t": 271902.6797916656,
      "d": 424.77880000002915,
      "v": 82
    },
    {
      "midi": 60,
      "hit": false,
      "t": 271911.5293499989,
      "d": 1610.6196166666923,
      "v": 69
    },
    {
      "midi": 66,
      "hit": false,
      "t": 271920.37890833226,
      "d": 1920.3541583333863,
      "v": 82
    },
    {
      "midi": 69,
      "hit": false,
      "t": 272327.4585916656,
      "d": 1115.044349999982,
      "v": 69
    },
    {
      "midi": 71,
      "hit": false,
      "t": 273433.65338333225,
      "d": 398.23012500006007,
      "v": 63
    },
    {
      "midi": 67,
      "hit": false,
      "t": 273911.52953333233,
      "d": 1858.4072499999893,
      "v": 69
    },
    {
      "midi": 43,
      "hit": false,
      "t": 273911.52953333315,
      "d": 1415.9293333333335,
      "v": 51
    },
    {
      "midi": 60,
      "hit": false,
      "t": 273920.3790916657,
      "d": 601.7699666666449,
      "v": 63
    },
    {
      "midi": 50,
      "hit": false,
      "t": 273946.92776666646,
      "d": 1362.8319833333371,
      "v": 54
    },
    {
      "midi": 59,
      "hit": false,
      "t": 274469.0517083323,
      "d": 1300.8850749999983,
      "v": 43
    },
    {
      "midi": 83,
      "hit": false,
      "t": 276106.219999999,
      "d": 522.1239416666795,
      "v": 39
    },
    {
      "midi": 75,
      "hit": false,
      "t": 276106.219999999,
      "d": 1787.6107833333663,
      "v": 44
    },
    {
      "midi": 71,
      "hit": false,
      "t": 276106.219999999,
      "d": 1796.4603416667087,
      "v": 27
    },
    {
      "midi": 66,
      "hit": false,
      "t": 276106.2199999998,
      "d": 7000.000641666644,
      "v": 55
    },
    {
      "midi": 63,
      "hit": false,
      "t": 276106.2199999998,
      "d": 8070.797199999972,
      "v": 44
    },
    {
      "midi": 54,
      "hit": false,
      "t": 276106.2199999998,
      "d": 8185.841458333307,
      "v": 49
    },
    {
      "midi": 82,
      "hit": false,
      "t": 276637.193499999,
      "d": 1061.9469999999856,
      "v": 34
    },
    {
      "midi": 80,
      "hit": false,
      "t": 277654.89270833234,
      "d": 389.38056666671764,
      "v": 44
    },
    {
      "midi": 71,
      "hit": false,
      "t": 278035.4237166657,
      "d": 1814.1594583333354,
      "v": 34
    },
    {
      "midi": 75,
      "hit": false,
      "t": 278079.67150833237,
      "d": 1769.9116666666814,
      "v": 39
    },
    {
      "midi": 82,
      "hit": false,
      "t": 278159.3175333324,
      "d": 1725.6638749999693,
      "v": 39
    },
    {
      "midi": 71,
      "hit": false,
      "t": 278230.11399999977,
      "d": 513.274383333337,
      "v": 39
    },
    {
      "midi": 70,
      "hit": false,
      "t": 278761.0874999998,
      "d": 1079.6461166666704,
      "v": 34
    },
    {
      "midi": 68,
      "hit": false,
      "t": 279823.0344999998,
      "d": 513.274383333337,
      "v": 44
    },
    {
      "midi": 71,
      "hit": false,
      "t": 280150.46815833234,
      "d": 1920.3541583333863,
      "v": 30
    },
    {
      "midi": 75,
      "hit": false,
      "t": 280203.56550833234,
      "d": 1884.9559250000748,
      "v": 44
    },
    {
      "midi": 82,
      "hit": false,
      "t": 280309.7602083323,
      "d": 601.7699666667031,
      "v": 44
    },
    {
      "midi": 70,
      "hit": false,
      "t": 280354.0079999998,
      "d": 1752.2125499999966,
      "v": 44
    },
    {
      "midi": 80,
      "hit": false,
      "t": 280884.981499999,
      "d": 1061.9470000000438,
      "v": 39
    },
    {
      "midi": 78,
      "hit": false,
      "t": 281920.379824999,
      "d": 380.5310083334334,
      "v": 39
    },
    {
      "midi": 71,
      "hit": false,
      "t": 282283.21171666577,
      "d": 1831.8585750000202,
      "v": 34
    },
    {
      "midi": 75,
      "hit": false,
      "t": 282345.1586249991,
      "d": 2035.3984166667215,
      "v": 44
    },
    {
      "midi": 80,
      "hit": false,
      "t": 282424.80464999913,
      "d": 1707.9647583333426,
      "v": 44
    },
    {
      "midi": 70,
      "hit": false,
      "t": 282477.90199999977,
      "d": 513.274383333337,
      "v": 39
    },
    {
      "midi": 68,
      "hit": false,
      "t": 283008.8754999998,
      "d": 1053.0974416666431,
      "v": 44
    },
    {
      "midi": 66,
      "hit": false,
      "t": 284070.8224999998,
      "d": 451.32747499999823,
      "v": 49
    },
    {
      "midi": 80,
      "hit": false,
      "t": 284584.0968833325,
      "d": 530.9735000000219,
      "v": 44
    },
    {
      "midi": 72,
      "hit": false,
      "t": 284584.0968833325,
      "d": 2035.3984166666633,
      "v": 34
    },
    {
      "midi": 66,
      "hit": false,
      "t": 284601.7959999998,
      "d": 1920.354158333328,
      "v": 41
    },
    {
      "midi": 63,
      "hit": false,
      "t": 284601.7959999998,
      "d": 1938.053275000013,
      "v": 36
    },
    {
      "midi": 79,
      "hit": false,
      "t": 285115.0703833325,
      "d": 1123.8939083333244,
      "v": 32
    },
    {
      "midi": 78,
      "hit": false,
      "t": 286168.16782499914,
      "d": 610.6195249999873,
      "v": 32
    },
    {
      "midi": 73,
      "hit": false,
      "t": 286672.59264999913,
      "d": 637.1681999999564,
      "v": 36
    },
    {
      "midi": 77,
      "hit": false,
      "t": 286690.2917666658,
      "d": 1044.2478833332425,
      "v": 29
    },
    {
      "midi": 61,
      "hit": false,
      "t": 286725.6899999998,
      "d": 1982.3010666666669,
      "v": 46
    },
    {
      "midi": 68,
      "hit": false,
      "t": 286725.6899999998,
      "d": 2000.0001833333517,
      "v": 52
    },
    {
      "midi": 72,
      "hit": false,
      "t": 287212.41570833244,
      "d": 1141.593024999951,
      "v": 36
    },
    {
      "midi": 76,
      "hit": false,
      "t": 287761.0883249991,
      "d": 681.4159916666104,
      "v": 36
    },
    {
      "midi": 71,
      "hit": false,
      "t": 288318.6104999991,
      "d": 601.7699666665867,
      "v": 32
    },
    {
      "midi": 64,
      "hit": false,
      "t": 288849.58399999986,
      "d": 1752.2125499999966,
      "v": 41
    },
    {
      "midi": 54,
      "hit": false,
      "t": 288849.58399999986,
      "d": 1787.610783333308,
      "v": 58
    },
    {
      "midi": 75,
      "hit": false,
      "t": 288884.98223333235,
      "d": 566.3717333333334,
      "v": 41
    },
    {
      "midi": 70,
      "hit": false,
      "t": 288884.98223333235,
      "d": 1654.8674083333462,
      "v": 41
    },
    {
      "midi": 73,
      "hit": false,
      "t": 289424.80529166566,
      "d": 1194.6903750000638,
      "v": 46
    },
    {
      "midi": 75,
      "hit": false,
      "t": 290495.60184999905,
      "d": 522.1239416666795,
      "v": 46
    },
    {
      "midi": 64,
      "hit": false,
      "t": 290973.4779999998,
      "d": 477.8761500000255,
      "v": 28
    },
    {
      "midi": 59,
      "hit": false,
      "t": 290973.4779999998,
      "d": 1840.7081333333626,
      "v": 22
    },
    {
      "midi": 66,
      "hit": false,
      "t": 290982.3275583324,
      "d": 1477.8762416666723,
      "v": 22
    },
    {
      "midi": 71,
      "hit": false,
      "t": 290982.3275583324,
      "d": 1548.6727083333535,
      "v": 25
    },
    {
      "midi": 63,
      "hit": false,
      "t": 291504.45149999985,
      "d": 1318.5841916666832,
      "v": 28
    },
    {
      "midi": 67,
      "hit": false,
      "t": 292938.0799499991,
      "d": 2097.345325000002,
      "v": 18
    },
    {
      "midi": 71,
      "hit": false,
      "t": 292982.32774166577,
      "d": 2115.044441666687,
      "v": 25
    },
    {
      "midi": 79,
      "hit": false,
      "t": 293070.8233249991,
      "d": 513.274383333337,
      "v": 25
    },
    {
      "midi": 62,
      "hit": false,
      "t": 293097.37199999986,
      "d": 6946.903291666706,
      "v": 39
    },
    {
      "midi": 50,
      "hit": false,
      "t": 293097.37199999986,
      "d": 8123.894550000026,
      "v": 34
    },
    {
      "midi": 59,
      "hit": false,
      "t": 293097.37199999986,
      "d": 8150.443225000054,
      "v": 34
    },
    {
      "midi": 78,
      "hit": false,
      "t": 293610.64638333244,
      "d": 1035.3983250000165,
      "v": 27
    },
    {
      "midi": 76,
      "hit": false,
      "t": 294734.54029166576,
      "d": 309.734541666694,
      "v": 39
    },
    {
      "midi": 67,
      "hit": false,
      "t": 295159.3190916658,
      "d": 1734.5134333333117,
      "v": 30
    },
    {
      "midi": 71,
      "hit": false,
      "t": 295203.56688333245,
      "d": 1707.9647583333426,
      "v": 18
    },
    {
      "midi": 67,
      "hit": false,
      "t": 295221.2659999998,
      "d": 477.8761500000255,
      "v": 39
    },
    {
      "midi": 78,
      "hit": false,
      "t": 295247.8146749991,
      "d": 1654.8674083333462,
      "v": 44
    },
    {
      "midi": 66,
      "hit": false,
      "t": 295752.23949999985,
      "d": 982.3009750000201,
      "v": 39
    },
    {
      "midi": 64,
      "hit": false,
      "t": 296814.1864999999,
      "d": 566.3717333333334,
      "v": 30
    },
    {
      "midi": 67,
      "hit": false,
      "t": 297203.5670666658,
      "d": 1973.4515083333245,
      "v": 27
    },
    {
      "midi": 71,
      "hit": false,
      "t": 297265.51397499914,
      "d": 1929.2037166666705,
      "v": 30
    },
    {
      "midi": 66,
      "hit": false,
      "t": 297345.1599999999,
      "d": 1787.610783333308,
      "v": 49
    },
    {
      "midi": 78,
      "hit": false,
      "t": 297354.00955833244,
      "d": 469.0265916666831,
      "v": 44
    },
    {
      "midi": 76,
      "hit": false,
      "t": 297893.8326166658,
      "d": 911.5045083333389,
      "v": 34
    },
    {
      "midi": 74,
      "hit": false,
      "t": 298946.93005833245,
      "d": 362.83189166669035,
      "v": 24
    },
    {
      "midi": 67,
      "hit": false,
      "t": 299336.31062499917,
      "d": 1761.062108333339,
      "v": 30
    },
    {
      "midi": 71,
      "hit": false,
      "t": 299389.40797499917,
      "d": 1849.557691666705,
      "v": 27
    },
    {
      "midi": 76,
      "hit": false,
      "t": 299469.0539999992,
      "d": 1654.8674083333462,
      "v": 39
    },
    {
      "midi": 66,
      "hit": false,
      "t": 299469.0539999999,
      "d": 566.3717333333334,
      "v": 49
    },
    {
      "midi": 64,
      "hit": false,
      "t": 300000.0274999999,
      "d": 1061.9469999999856,
      "v": 39
    },
    {
      "midi": 62,
      "hit": false,
      "t": 301061.9744999999,
      "d": 318.5841000000364,
      "v": 34
    },
    {
      "midi": 76,
      "hit": false,
      "t": 301575.24888333253,
      "d": 548.6726166666485,
      "v": 34
    },
    {
      "midi": 68,
      "hit": false,
      "t": 301584.0984416659,
      "d": 2106.1948833333445,
      "v": 44
    },
    {
      "midi": 62,
      "hit": false,
      "t": 301592.9479999999,
      "d": 2115.044441666687,
      "v": 41
    },
    {
      "midi": 59,
      "hit": false,
      "t": 301592.9479999999,
      "d": 2141.593116666714,
      "v": 41
    },
    {
      "midi": 75,
      "hit": false,
      "t": 302132.7710583325,
      "d": 1026.548766666674,
      "v": 44
    },
    {
      "midi": 74,
      "hit": false,
      "t": 303159.3198249992,
      "d": 495.57526666665217,
      "v": 44
    },
    {
      "midi": 73,
      "hit": false,
      "t": 303672.59420833254,
      "d": 1097.3452333334135,
      "v": 47
    },
    {
      "midi": 69,
      "hit": false,
      "t": 303681.4437666659,
      "d": 592.9204083333607,
      "v": 38
    },
    {
      "midi": 57,
      "hit": false,
      "t": 303716.84199999995,
      "d": 2061.9470916666905,
      "v": 50
    },
    {
      "midi": 64,
      "hit": false,
      "t": 303716.84199999995,
      "d": 2061.9470916666905,
      "v": 50
    },
    {
      "midi": 68,
      "hit": false,
      "t": 304221.26682499924,
      "d": 1106.1947916666977,
      "v": 58
    },
    {
      "midi": 72,
      "hit": false,
      "t": 304752.24032499926,
      "d": 1061.9469999999856,
      "v": 62
    },
    {
      "midi": 67,
      "hit": false,
      "t": 305274.36426666594,
      "d": 592.9204083333607,
      "v": 54
    },
    {
      "midi": 71,
      "hit": false,
      "t": 305840.7359999993,
      "d": 539.8230583333643,
      "v": 54
    },
    {
      "midi": 66,
      "hit": false,
      "t": 305840.7359999993,
      "d": 1415.9293333333917,
      "v": 68
    },
    {
      "midi": 50,
      "hit": false,
      "t": 305840.736,
      "d": 2176.9913499999675,
      "v": 39
    },
    {
      "midi": 60,
      "hit": false,
      "t": 305840.736,
      "d": 2212.389583333279,
      "v": 50
    },
    {
      "midi": 69,
      "hit": false,
      "t": 306380.55905833264,
      "d": 1690.265641666716,
      "v": 58
    },
    {
      "midi": 66,
      "hit": false,
      "t": 307451.355616666,
      "d": 566.3717333333334,
      "v": 58
    },
    {
      "midi": 59,
      "hit": false,
      "t": 307964.62999999995,
      "d": 522.1239416666212,
      "v": 50
    },
    {
      "midi": 62,
      "hit": false,
      "t": 308008.877791666,
      "d": 1663.7169666666887,
      "v": 44
    },
    {
      "midi": 57,
      "hit": false,
      "t": 308495.6034999999,
      "d": 1008.8496499999892,
      "v": 47
    },
    {
      "midi": 54,
      "hit": false,
      "t": 309557.5504999999,
      "d": 619.4690833333298,
      "v": 50
    },
    {
      "midi": 59,
      "hit": false,
      "t": 309929.23194999935,
      "d": 1964.601949999982,
      "v": 44
    },
    {
      "midi": 62,
      "hit": false,
      "t": 310000.028416666,
      "d": 1911.5045999999857,
      "v": 44
    },
    {
      "midi": 43,
      "hit": false,
      "t": 310088.5239999999,
      "d": 1079.6461166666704,
      "v": 27
    },
    {
      "midi": 50,
      "hit": false,
      "t": 310088.5239999999,
      "d": 1115.044349999982,
      "v": 27
    },
    {
      "midi": 71,
      "hit": false,
      "t": 310106.223116666,
      "d": 469.0265916666831,
      "v": 31
    },
    {
      "midi": 69,
      "hit": false,
      "t": 310619.49749999936,
      "d": 991.1505333333043,
      "v": 31
    },
    {
      "midi": 74,
      "hit": false,
      "t": 311150.4709999999,
      "d": 902.6549499999965,
      "v": 33
    },
    {
      "midi": 67,
      "hit": false,
      "t": 311637.1967083327,
      "d": 433.6283583333134,
      "v": 33
    },
    {
      "midi": 66,
      "hit": false,
      "t": 312132.77197499934,
      "d": 1761.0621083333972,
      "v": 33
    },
    {
      "midi": 62,
      "hit": false,
      "t": 312141.6215333327,
      "d": 1725.6638750000275,
      "v": 31
    },
    {
      "midi": 59,
      "hit": false,
      "t": 312159.32064999937,
      "d": 1778.7612250000238,
      "v": 26
    },
    {
      "midi": 59,
      "hit": false,
      "t": 312212.4179999999,
      "d": 513.274383333337,
      "v": 36
    },
    {
      "midi": 43,
      "hit": false,
      "t": 312212.4179999999,
      "d": 1734.51343333337,
      "v": 32
    },
    {
      "midi": 50,
      "hit": false,
      "t": 312212.4179999999,
      "d": 1743.3629916667123,
      "v": 32
    },
    {
      "midi": 57,
      "hit": false,
      "t": 312743.3914999999,
      "d": 1044.247883333359,
      "v": 36
    },
    {
      "midi": 55,
      "hit": false,
      "t": 313805.33849999995,
      "d": 469.0265916666249,
      "v": 23
    },
    {
      "midi": 69,
      "hit": false,
      "t": 314309.76332499937,
      "d": 530.9735000000219,
      "v": 36
    },
    {
      "midi": 57,
      "hit": false,
      "t": 314318.6128833327,
      "d": 1884.9559250000166,
      "v": 32
    },
    {
      "midi": 60,
      "hit": false,
      "t": 314318.6128833327,
      "d": 1884.9559250000166,
      "v": 32
    },
    {
      "midi": 43,
      "hit": false,
      "t": 314336.3119999999,
      "d": 1141.5930250000092,
      "v": 26
    },
    {
      "midi": 50,
      "hit": false,
      "t": 314336.3119999999,
      "d": 1141.5930250000092,
      "v": 29
    },
    {
      "midi": 54,
      "hit": false,
      "t": 314336.3119999999,
      "d": 1150.4425833333516,
      "v": 46
    },
    {
      "midi": 67,
      "hit": false,
      "t": 314867.2854999994,
      "d": 1000.0000916666468,
      "v": 36
    },
    {
      "midi": 74,
      "hit": false,
      "t": 315398.2589999999,
      "d": 1088.495675000071,
      "v": 36
    },
    {
      "midi": 66,
      "hit": false,
      "t": 315920.38294166606,
      "d": 353.9823333333479,
      "v": 32
    },
    {
      "midi": 57,
      "hit": false,
      "t": 316407.1086499994,
      "d": 1814.1594583333354,
      "v": 29
    },
    {
      "midi": 60,
      "hit": false,
      "t": 316415.95820833277,
      "d": 1584.070941666665,
      "v": 32
    },
    {
      "midi": 64,
      "hit": false,
      "t": 316415.95820833277,
      "d": 1805.309899999993,
      "v": 32
    },
    {
      "midi": 57,
      "hit": false,
      "t": 316460.20599999995,
      "d": 539.8230583333643,
      "v": 36
    },
    {
      "midi": 43,
      "hit": false,
      "t": 316460.20599999995,
      "d": 1796.4603416667087,
      "v": 26
    },
    {
      "midi": 50,
      "hit": false,
      "t": 316460.20599999995,
      "d": 1796.4603416667087,
      "v": 29
    },
    {
      "midi": 55,
      "hit": false,
      "t": 316991.17949999997,
      "d": 1053.0974416667013,
      "v": 26
    },
    {
      "midi": 54,
      "hit": false,
      "t": 318053.1265,
      "d": 504.4248249999946,
      "v": 32
    },
    {
      "midi": 67,
      "hit": false,
      "t": 318548.7017666661,
      "d": 522.1239416666795,
      "v": 23
    },
    {
      "midi": 55,
      "hit": false,
      "t": 318557.5513249994,
      "d": 1716.814316666685,
      "v": 23
    },
    {
      "midi": 59,
      "hit": false,
      "t": 318566.40088333277,
      "d": 1557.5222666666377,
      "v": 32
    },
    {
      "midi": 50,
      "hit": false,
      "t": 318584.10000000003,
      "d": 1044.247883333359,
      "v": 20
    },
    {
      "midi": 43,
      "hit": false,
      "t": 318584.10000000003,
      "d": 1061.9470000000438,
      "v": 26
    },
    {
      "midi": 52,
      "hit": false,
      "t": 318584.10000000003,
      "d": 1097.3452333333553,
      "v": 41
    },
    {
      "midi": 66,
      "hit": false,
      "t": 319106.2239416661,
      "d": 964.6018583333353,
      "v": 46
    },
    {
      "midi": 74,
      "hit": false,
      "t": 319646.0470000001,
      "d": 1035.3983249999583,
      "v": 46
    },
    {
      "midi": 64,
      "hit": false,
      "t": 320150.47182499943,
      "d": 415.9292416666867,
      "v": 46
    },
    {
      "midi": 55,
      "hit": false,
      "t": 320672.5957666661,
      "d": 1991.1506250000093,
      "v": 58
    },
    {
      "midi": 67,
      "hit": false,
      "t": 320672.5957666661,
      "d": 2035.3984166666633,
      "v": 65
    },
    {
      "midi": 62,
      "hit": false,
      "t": 320681.44532499945,
      "d": 1938.053275000013,
      "v": 58
    },
    {
      "midi": 55,
      "hit": false,
      "t": 320707.99400000006,
      "d": 495.57526666665217,
      "v": 32
    },
    {
      "midi": 40,
      "hit": false,
      "t": 320707.99400000006,
      "d": 1672.566524999973,
      "v": 29
    },
    {
      "midi": 54,
      "hit": false,
      "t": 321238.9675,
      "d": 1026.548766666674,
      "v": 36
    },
    {
      "midi": 52,
      "hit": false,
      "t": 322300.9145,
      "d": 460.17703333334066,
      "v": 32
    },
    {
      "midi": 66,
      "hit": false,
      "t": 322823.0384416661,
      "d": 522.1239416666795,
      "v": 52
    },
    {
      "midi": 55,
      "hit": false,
      "t": 322823.0384416661,
      "d": 1796.4603416667087,
      "v": 26
    },
    {
      "midi": 61,
      "hit": false,
      "t": 322831.88799999945,
      "d": 1619.4691750000347,
      "v": 41
    },
    {
      "midi": 33,
      "hit": false,
      "t": 322831.88800000004,
      "d": 964.6018583333353,
      "v": 36
    },
    {
      "midi": 45,
      "hit": false,
      "t": 322831.88800000004,
      "d": 1000.0000916666468,
      "v": 36
    },
    {
      "midi": 64,
      "hit": false,
      "t": 323389.41017499944,
      "d": 1194.6903750000638,
      "v": 36
    },
    {
      "midi": 69,
      "hit": false,
      "t": 323893.835,
      "d": 1106.1947916666395,
      "v": 36
    },
    {
      "midi": 66,
      "hit": false,
      "t": 324433.6580583328,
      "d": 513.2743833333952,
      "v": 58
    },
    {
      "midi": 62,
      "hit": false,
      "t": 324920.3837666662,
      "d": 1646.017850000062,
      "v": 41
    },
    {
      "midi": 54,
      "hit": false,
      "t": 324938.08288333286,
      "d": 1619.4691750000347,
      "v": 32
    },
    {
      "midi": 38,
      "hit": false,
      "t": 324955.782,
      "d": 433.6283583333134,
      "v": 49
    },
    {
      "midi": 45,
      "hit": false,
      "t": 324955.782,
      "d": 460.17703333334066,
      "v": 42
    },
    {
      "midi": 50,
      "hit": false,
      "t": 325486.7555,
      "d": 1070.796558333328,
      "v": 49
    },
    {
      "midi": 62,
      "hit": false,
      "t": 325486.7555,
      "d": 1079.6461166666704,
      "v": 56
    },
    {
      "midi": 49,
      "hit": false,
      "t": 326548.7025,
      "d": 469.0265916666831,
      "v": 42
    },
    {
      "midi": 61,
      "hit": false,
      "t": 326548.7025,
      "d": 495.5752666667104,
      "v": 56
    },
    {
      "midi": 76,
      "hit": false,
      "t": 327070.8264416662,
      "d": 575.2212916666176,
      "v": 56
    },
    {
      "midi": 71,
      "hit": false,
      "t": 327070.8264416662,
      "d": 1477.876241666614,
      "v": 61
    },
    {
      "midi": 64,
      "hit": false,
      "t": 327070.8264416662,
      "d": 1920.3541583332699,
      "v": 61
    },
    {
      "midi": 48,
      "hit": false,
      "t": 327079.67600000004,
      "d": 1017.6992083333316,
      "v": 54
    },
    {
      "midi": 60,
      "hit": false,
      "t": 327079.67600000004,
      "d": 1017.6992083333316,
      "v": 69
    },
    {
      "midi": 55,
      "hit": false,
      "t": 327079.67600000004,
      "d": 1026.548766666674,
      "v": 63
    },
    {
      "midi": 74,
      "hit": false,
      "t": 327610.64949999953,
      "d": 991.1505333333043,
      "v": 75
    },
    {
      "midi": 79,
      "hit": false,
      "t": 328141.623,
      "d": 831.8584833333152,
      "v": 69
    },
    {
      "midi": 72,
      "hit": false,
      "t": 328610.6495916662,
      "d": 469.0265916666249,
      "v": 63
    },
    {
      "midi": 67,
      "hit": false,
      "t": 329123.92397499946,
      "d": 1716.814316666685,
      "v": 63
    },
    {
      "midi": 64,
      "hit": false,
      "t": 329123.92397499946,
      "d": 1778.7612250000238,
      "v": 58
    },
    {
      "midi": 71,
      "hit": false,
      "t": 329123.92397499946,
      "d": 1876.1063666666741,
      "v": 63
    },
    {
      "midi": 64,
      "hit": false,
      "t": 329203.57,
      "d": 504.4248249999946,
      "v": 75
    },
    {
      "midi": 52,
      "hit": false,
      "t": 329203.57,
      "d": 539.8230583333643,
      "v": 63
    },
    {
      "midi": 55,
      "hit": false,
      "t": 329203.57,
      "d": 1805.3099000000511,
      "v": 69
    },
    {
      "midi": 50,
      "hit": false,
      "t": 329734.5435,
      "d": 1088.4956750000129,
      "v": 58
    },
    {
      "midi": 62,
      "hit": false,
      "t": 329734.5435,
      "d": 1106.1947916666977,
      "v": 69
    },
    {
      "midi": 60,
      "hit": false,
      "t": 330796.4905,
      "d": 407.0796833334025,
      "v": 58
    },
    {
      "midi": 48,
      "hit": false,
      "t": 330796.4905,
      "d": 477.8761500000837,
      "v": 58
    },
    {
      "midi": 74,
      "hit": false,
      "t": 331300.9153249995,
      "d": 592.9204083333607,
      "v": 82
    },
    {
      "midi": 69,
      "hit": false,
      "t": 331300.9153249995,
      "d": 1557.522266666696,
      "v": 82
    },
    {
      "midi": 62,
      "hit": false,
      "t": 331300.9153249995,
      "d": 1920.3541583333863,
      "v": 82
    },
    {
      "midi": 47,
      "hit": false,
      "t": 331327.4640000001,
      "d": 991.1505333333043,
      "v": 51
    },
    {
      "midi": 59,
      "hit": false,
      "t": 331327.4640000001,
      "d": 1008.8496499999892,
      "v": 63
    },
    {
      "midi": 54,
      "hit": false,
      "t": 331327.4640000001,
      "d": 1026.548766666674,
      "v": 75
    },
    {
      "midi": 72,
      "hit": false,
      "t": 331867.2870583328,
      "d": 964.6018583333353,
      "v": 75
    },
    {
      "midi": 78,
      "hit": false,
      "t": 332389.4110000001,
      "d": 1079.6461166666704,
      "v": 58
    },
    {
      "midi": 71,
      "hit": false,
      "t": 332858.4375916662,
      "d": 486.72570833336795,
      "v": 69
    },
    {
      "midi": 62,
      "hit": false,
      "t": 333362.86241666623,
      "d": 1761.062108333339,
      "v": 63
    },
    {
      "midi": 66,
      "hit": false,
      "t": 333362.86241666623,
      "d": 1761.062108333339,
      "v": 89
    },
    {
      "midi": 69,
      "hit": false,
      "t": 333371.7119749996,
      "d": 1769.9116666666814,
      "v": 69
    },
    {
      "midi": 62,
      "hit": false,
      "t": 333451.35800000007,
      "d": 504.4248249999946,
      "v": 69
    },
    {
      "midi": 50,
      "hit": false,
      "t": 333451.35800000007,
      "d": 548.6726166667067,
      "v": 51
    },
    {
      "midi": 54,
      "hit": false,
      "t": 333451.35800000007,
      "d": 1920.3541583333863,
      "v": 75
    },
    {
      "midi": 48,
      "hit": false,
      "t": 333982.3315000001,
      "d": 1044.247883333359,
      "v": 47
    },
    {
      "midi": 60,
      "hit": false,
      "t": 333982.3315000001,
      "d": 1061.9470000000438,
      "v": 69
    },
    {
      "midi": 47,
      "hit": false,
      "t": 335044.27850000013,
      "d": 398.23012500000186,
      "v": 58
    },
    {
      "midi": 59,
      "hit": false,
      "t": 335044.27850000013,
      "d": 433.6283583333134,
      "v": 63
    },
    {
      "midi": 72,
      "hit": false,
      "t": 335539.85376666626,
      "d": 575.2212916666758,
      "v": 82
    },
    {
      "midi": 67,
      "hit": false,
      "t": 335539.85376666626,
      "d": 1584.070941666665,
      "v": 69
    },
    {
      "midi": 60,
      "hit": false,
      "t": 335539.85376666626,
      "d": 1601.7700583333499,
      "v": 69
    },
    {
      "midi": 45,
      "hit": false,
      "t": 335575.2520000001,
      "d": 1000.0000916666468,
      "v": 58
    },
    {
      "midi": 57,
      "hit": false,
      "t": 335575.2520000001,
      "d": 1000.0000916666468,
      "v": 69
    },
    {
      "midi": 52,
      "hit": false,
      "t": 335575.2520000001,
      "d": 1008.8496499999892,
      "v": 58
    },
    {
      "midi": 71,
      "hit": false,
      "t": 336106.2254999996,
      "d": 1000.0000916666468,
      "v": 82
    },
    {
      "midi": 76,
      "hit": false,
      "t": 336637.1990000001,
      "d": 1044.247883333359,
      "v": 63
    },
    {
      "midi": 69,
      "hit": false,
      "t": 337123.9247083329,
      "d": 256.6371916666976,
      "v": 75
    },
    {
      "midi": 72,
      "hit": false,
      "t": 337654.89820833295,
      "d": 1044.247883333359,
      "v": 82
    },
    {
      "midi": 67,
      "hit": false,
      "t": 337654.89820833295,
      "d": 1150.4425833333516,
      "v": 82
    },
    {
      "midi": 78,
      "hit": false,
      "t": 337654.89820833295,
      "d": 1309.7346333333408,
      "v": 89
    },
    {
      "midi": 60,
      "hit": false,
      "t": 337699.1460000001,
      "d": 530.9735000000219,
      "v": 69
    },
    {
      "midi": 33,
      "hit": false,
      "t": 337699.1460000001,
      "d": 2115.044441666745,
      "v": 63
    },
    {
      "midi": 59,
      "hit": false,
      "t": 338230.11950000015,
      "d": 1035.3983250000165,
      "v": 69
    },
    {
      "midi": 81,
      "hit": false,
      "t": 339017.7301916663,
      "d": 292.0354250000091,
      "v": 82
    },
    {
      "midi": 57,
      "hit": false,
      "t": 339292.0665000002,
      "d": 513.274383333337,
      "v": 69
    },
    {
      "midi": 79,
      "hit": false,
      "t": 339309.7656166663,
      "d": 212.38940000004368,
      "v": 63
    },
    {
      "midi": 76,
      "hit": false,
      "t": 339442.5089916663,
      "d": 185.8407250000164,
      "v": 63
    },
    {
      "midi": 72,
      "hit": false,
      "t": 339592.951483333,
      "d": 97.3451416666503,
      "v": 69
    },
    {
      "midi": 71,
      "hit": false,
      "t": 339823.0399999997,
      "d": 433.6283583333134,
      "v": 82
    },
    {
      "midi": 60,
      "hit": false,
      "t": 339823.0399999997,
      "d": 1522.1240333333262,
      "v": 75
    },
    {
      "midi": 38,
      "hit": false,
      "t": 339823.0400000002,
      "d": 938.053183333308,
      "v": 58
    },
    {
      "midi": 50,
      "hit": false,
      "t": 339823.0400000002,
      "d": 946.9027416666504,
      "v": 69
    },
    {
      "midi": 66,
      "hit": false,
      "t": 339884.986908333,
      "d": 1530.9735916666687,
      "v": 89
    },
    {
      "midi": 69,
      "hit": false,
      "t": 340336.314383333,
      "d": 1247.787725000002,
      "v": 75
    },
    {
      "midi": 74,
      "hit": false,
      "t": 340884.9870000002,
      "d": 964.6018583333353,
      "v": 69
    },
    {
      "midi": 71,
      "hit": false,
      "t": 341362.8631499997,
      "d": 451.32747499999823,
      "v": 82
    },
    {
      "midi": 60,
      "hit": false,
      "t": 341849.588858333,
      "d": 592.9204083333607,
      "v": 75
    },
    {
      "midi": 67,
      "hit": false,
      "t": 341858.43841666635,
      "d": 1796.4603416667087,
      "v": 75
    },
    {
      "midi": 43,
      "hit": false,
      "t": 341946.9340000002,
      "d": 1601.7700583333499,
      "v": 36
    },
    {
      "midi": 50,
      "hit": false,
      "t": 341946.9340000002,
      "d": 1601.7700583333499,
      "v": 44
    },
    {
      "midi": 59,
      "hit": false,
      "t": 342433.659708333,
      "d": 1221.2390500000329,
      "v": 58
    },
    {
      "midi": 45,
      "hit": false,
      "t": 344141.6244666669,
      "d": 1061.9469999999856,
      "v": 55
    },
    {
      "midi": 38,
      "hit": false,
      "t": 344141.6244666669,
      "d": 1070.796558333328,
      "v": 62
    },
    {
      "midi": 57,
      "hit": false,
      "t": 345168.17323333304,
      "d": 132.74337500002002,
      "v": 49
    },
    {
      "midi": 50,
      "hit": false,
      "t": 345177.0227916664,
      "d": 97.3451416666503,
      "v": 38
    },
    {
      "midi": 57,
      "hit": false,
      "t": 345628.3502666664,
      "d": 115.04425833333516,
      "v": 43
    },
    {
      "midi": 50,
      "hit": false,
      "t": 345646.04938333307,
      "d": 97.3451416666503,
      "v": 27
    },
    {
      "midi": 50,
      "hit": false,
      "t": 346159.3237666664,
      "d": 902.6549499999965,
      "v": 55
    },
    {
      "midi": 57,
      "hit": false,
      "t": 346159.3237666664,
      "d": 911.5045083333389,
      "v": 69
    },
    {
      "midi": 45,
      "hit": false,
      "t": 347300.9167916669,
      "d": 265.48674999998184,
      "v": 43
    },
    {
      "midi": 38,
      "hit": false,
      "t": 347300.9167916669,
      "d": 283.1858666666667,
      "v": 49
    },
    {
      "midi": 45,
      "hit": false,
      "t": 347805.3416166669,
      "d": 238.93807500001276,
      "v": 43
    },
    {
      "midi": 38,
      "hit": false,
      "t": 347805.3416166669,
      "d": 265.48675000004005,
      "v": 49
    },
    {
      "midi": 45,
      "hit": false,
      "t": 348345.16467500024,
      "d": 1159.292141666694,
      "v": 49
    },
    {
      "midi": 38,
      "hit": false,
      "t": 348354.0142333336,
      "d": 1150.4425833333516,
      "v": 55
    },
    {
      "midi": 50,
      "hit": false,
      "t": 349380.56299999973,
      "d": 123.8938166666776,
      "v": 43
    },
    {
      "midi": 57,
      "hit": false,
      "t": 349380.56299999973,
      "d": 123.8938166666776,
      "v": 55
    },
    {
      "midi": 57,
      "hit": false,
      "t": 349849.5895916664,
      "d": 106.19469999999274,
      "v": 49
    },
    {
      "midi": 50,
      "hit": false,
      "t": 349858.43914999976,
      "d": 97.3451416666503,
      "v": 43
    },
    {
      "midi": 50,
      "hit": false,
      "t": 350380.5630916664,
      "d": 743.3629000000074,
      "v": 55
    },
    {
      "midi": 57,
      "hit": false,
      "t": 350380.5630916664,
      "d": 778.7611333333189,
      "v": 69
    },
    {
      "midi": 45,
      "hit": false,
      "t": 351522.1561166669,
      "d": 212.38939999998547,
      "v": 43
    },
    {
      "midi": 38,
      "hit": false,
      "t": 351531.00567500025,
      "d": 203.53984166664304,
      "v": 43
    },
    {
      "midi": 45,
      "hit": false,
      "t": 352035.43050000025,
      "d": 194.69028333335882,
      "v": 38
    },
    {
      "midi": 38,
      "hit": false,
      "t": 352035.43050000025,
      "d": 203.53984166670125,
      "v": 43
    },
    {
      "midi": 69,
      "hit": false,
      "t": 352132.7756416664,
      "d": 88.49558333336608,
      "v": 38
    },
    {
      "midi": 71,
      "hit": false,
      "t": 352212.4216666664,
      "d": 168.14160833333153,
      "v": 43
    },
    {
      "midi": 69,
      "hit": false,
      "t": 352318.6163666664,
      "d": 230.08851666667033,
      "v": 38
    },
    {
      "midi": 66,
      "hit": false,
      "t": 352531.0057666664,
      "d": 442.4779166666558,
      "v": 55
    },
    {
      "midi": 38,
      "hit": false,
      "t": 352548.70488333364,
      "d": 1053.0974416666431,
      "v": 62
    },
    {
      "midi": 45,
      "hit": false,
      "t": 352548.70488333364,
      "d": 1053.0974416666431,
      "v": 55
    },
    {
      "midi": 69,
      "hit": false,
      "t": 353035.4305916664,
      "d": 283.1858666666667,
      "v": 38
    },
    {
      "midi": 66,
      "hit": false,
      "t": 353548.7049749997,
      "d": 168.14160833333153,
      "v": 69
    },
    {
      "midi": 74,
      "hit": false,
      "t": 353557.55453333305,
      "d": 159.2920499999891,
      "v": 55
    },
    {
      "midi": 50,
      "hit": false,
      "t": 353601.8023250003,
      "d": 221.2389583333279,
      "v": 55
    },
    {
      "midi": 57,
      "hit": false,
      "t": 353601.8023250003,
      "d": 221.2389583333279,
      "v": 62
    },
    {
      "midi": 66,
      "hit": false,
      "t": 354061.97935833305,
      "d": 150.44249166664667,
      "v": 62
    },
    {
      "midi": 78,
      "hit": false,
      "t": 354061.97935833305,
      "d": 159.2920499999891,
      "v": 62
    },
    {
      "midi": 57,
      "hit": false,
      "t": 354115.0767083336,
      "d": 185.8407250000164,
      "v": 49
    },
    {
      "midi": 50,
      "hit": false,
      "t": 354123.92626666697,
      "d": 168.14160833333153,
      "v": 49
    },
    {
      "midi": 76,
      "hit": false,
      "t": 354584.1032999997,
      "d": 530.9735000000219,
      "v": 55
    },
    {
      "midi": 66,
      "hit": false,
      "t": 354584.1032999997,
      "d": 592.9204083333607,
      "v": 62
    },
    {
      "midi": 50,
      "hit": false,
      "t": 354628.35109166696,
      "d": 504.4248249999946,
      "v": 62
    },
    {
      "midi": 57,
      "hit": false,
      "t": 354628.35109166696,
      "d": 530.9735000000219,
      "v": 69
    },
    {
      "midi": 74,
      "hit": false,
      "t": 355150.47503333306,
      "d": 203.53984166670125,
      "v": 55
    },
    {
      "midi": 66,
      "hit": false,
      "t": 355654.8998583331,
      "d": 141.59293333330425,
      "v": 62
    },
    {
      "midi": 45,
      "hit": false,
      "t": 355690.298091667,
      "d": 230.08851666667033,
      "v": 49
    },
    {
      "midi": 38,
      "hit": false,
      "t": 355699.14765000035,
      "d": 247.7876333333552,
      "v": 49
    },
    {
      "midi": 66,
      "hit": false,
      "t": 356168.1742416664,
      "d": 106.19469999999274,
      "v": 69
    },
    {
      "midi": 69,
      "hit": false,
      "t": 356177.02379999973,
      "d": 132.74337499996182,
      "v": 62
    },
    {
      "midi": 45,
      "hit": false,
      "t": 356203.57247500034,
      "d": 247.7876333333552,
      "v": 43
    },
    {
      "midi": 38,
      "hit": false,
      "t": 356212.4220333337,
      "d": 247.7876333333552,
      "v": 49
    },
    {
      "midi": 66,
      "hit": false,
      "t": 356699.14774166635,
      "d": 690.265550000011,
      "v": 77
    },
    {
      "midi": 71,
      "hit": false,
      "t": 356699.14774166635,
      "d": 707.9646666666958,
      "v": 69
    },
    {
      "midi": 69,
      "hit": false,
      "t": 356716.84685833304,
      "d": 672.5664333333261,
      "v": 62
    },
    {
      "midi": 38,
      "hit": false,
      "t": 356761.0946500004,
      "d": 1017.6992083333316,
      "v": 62
    },
    {
      "midi": 45,
      "hit": false,
      "t": 356761.0946500004,
      "d": 1026.548766666674,
      "v": 55
    },
    {
      "midi": 66,
      "hit": false,
      "t": 357831.891208333,
      "d": 522.1239416666795,
      "v": 69
    },
    {
      "midi": 69,
      "hit": false,
      "t": 357840.74076666636,
      "d": 513.274383333337,
      "v": 62
    },
    {
      "midi": 71,
      "hit": false,
      "t": 357840.74076666636,
      "d": 548.6726166666485,
      "v": 62
    },
    {
      "midi": 57,
      "hit": false,
      "t": 357893.83811666706,
      "d": 548.6726166667067,
      "v": 49
    },
    {
      "midi": 50,
      "hit": false,
      "t": 357911.53723333374,
      "d": 530.9735000000219,
      "v": 49
    },
    {
      "midi": 66,
      "hit": false,
      "t": 358699.1479249997,
      "d": 106.19469999999274,
      "v": 69
    },
    {
      "midi": 71,
      "hit": false,
      "t": 358707.99748333305,
      "d": 132.74337500002002,
      "v": 49
    },
    {
      "midi": 69,
      "hit": false,
      "t": 358716.8470416664,
      "d": 97.3451416666503,
      "v": 49
    },
    {
      "midi": 57,
      "hit": false,
      "t": 358734.5461583338,
      "d": 97.3451416666503,
      "v": 69
    },
    {
      "midi": 50,
      "hit": false,
      "t": 358734.5461583338,
      "d": 106.19469999999274,
      "v": 49
    },
    {
      "midi": 71,
      "hit": false,
      "t": 358902.6877666664,
      "d": 486.72570833336795,
      "v": 55
    },
    {
      "midi": 66,
      "hit": false,
      "t": 358902.6877666664,
      "d": 513.2743833333952,
      "v": 69
    },
    {
      "midi": 69,
      "hit": false,
      "t": 358911.53732499975,
      "d": 469.0265916666831,
      "v": 49
    },
    {
      "midi": 50,
      "hit": false,
      "t": 358929.2364416671,
      "d": 1061.9469999999856,
      "v": 55
    },
    {
      "midi": 57,
      "hit": false,
      "t": 358929.2364416671,
      "d": 1070.796558333328,
      "v": 69
    },
    {
      "midi": 66,
      "hit": false,
      "t": 359938.0860916665,
      "d": 159.2920499999891,
      "v": 62
    },
    {
      "midi": 62,
      "hit": false,
      "t": 359946.9356499998,
      "d": 159.2920499999891,
      "v": 38
    },
    {
      "midi": 68,
      "hit": false,
      "t": 360442.5109166665,
      "d": 115.04425833339337,
      "v": 55
    },
    {
      "midi": 62,
      "hit": false,
      "t": 360451.3604749998,
      "d": 79.64602500002366,
      "v": 31
    },
    {
      "midi": 66,
      "hit": false,
      "t": 360451.3604749998,
      "d": 88.49558333336608,
      "v": 49
    },
    {
      "midi": 66,
      "hit": false,
      "t": 360964.6348583332,
      "d": 601.7699666666449,
      "v": 62
    },
    {
      "midi": 62,
      "hit": false,
      "t": 360964.6348583332,
      "d": 628.3186416666722,
      "v": 38
    },
    {
      "midi": 69,
      "hit": false,
      "t": 360964.6348583332,
      "d": 637.1682000000146,
      "v": 43
    },
    {
      "midi": 42,
      "hit": false,
      "t": 361026.5817666671,
      "d": 893.8053916667122,
      "v": 55
    },
    {
      "midi": 35,
      "hit": false,
      "t": 361044.28088333376,
      "d": 884.9558333333698,
      "v": 49
    },
    {
      "midi": 71,
      "hit": false,
      "t": 361504.4579166665,
      "d": 194.69028333335882,
      "v": 49
    },
    {
      "midi": 66,
      "hit": false,
      "t": 362035.43141666654,
      "d": 123.8938166666776,
      "v": 69
    },
    {
      "midi": 62,
      "hit": false,
      "t": 362044.2809749999,
      "d": 123.8938166666776,
      "v": 43
    },
    {
      "midi": 54,
      "hit": false,
      "t": 362070.82965000044,
      "d": 203.53984166670125,
      "v": 69
    },
    {
      "midi": 47,
      "hit": false,
      "t": 362079.6792083338,
      "d": 185.8407250000164,
      "v": 49
    },
    {
      "midi": 68,
      "hit": false,
      "t": 362566.40491666656,
      "d": 97.34514166670851,
      "v": 69
    },
    {
      "midi": 54,
      "hit": false,
      "t": 362566.40491666715,
      "d": 283.1858666666667,
      "v": 62
    },
    {
      "midi": 66,
      "hit": false,
      "t": 362575.2544749999,
      "d": 70.79646666668123,
      "v": 69
    },
    {
      "midi": 62,
      "hit": false,
      "t": 362575.2544749999,
      "d": 79.64602500002366,
      "v": 49
    },
    {
      "midi": 47,
      "hit": false,
      "t": 362584.10403333383,
      "d": 230.08851666667033,
      "v": 55
    },
    {
      "midi": 40,
      "hit": false,
      "t": 363115.0775333338,
      "d": 1079.6461166666704,
      "v": 55
    },
    {
      "midi": 47,
      "hit": false,
      "t": 363115.0775333338,
      "d": 1088.4956750000129,
      "v": 55
    },
    {
      "midi": 62,
      "hit": false,
      "t": 363132.77664999996,
      "d": 610.6195249999873,
      "v": 49
    },
    {
      "midi": 66,
      "hit": false,
      "t": 363132.77664999996,
      "d": 610.6195249999873,
      "v": 69
    },
    {
      "midi": 69,
      "hit": false,
      "t": 363132.77664999996,
      "d": 628.3186416666722,
      "v": 55
    },
    {
      "midi": 71,
      "hit": false,
      "t": 363672.59970833326,
      "d": 159.2920500000473,
      "v": 62
    },
    {
      "midi": 66,
      "hit": false,
      "t": 364168.174975,
      "d": 106.19469999999274,
      "v": 69
    },
    {
      "midi": 62,
      "hit": false,
      "t": 364185.87409166666,
      "d": 106.19469999999274,
      "v": 43
    },
    {
      "midi": 59,
      "hit": false,
      "t": 364221.2723250005,
      "d": 194.69028333335882,
      "v": 62
    },
    {
      "midi": 52,
      "hit": false,
      "t": 364221.2723250005,
      "d": 221.2389583333861,
      "v": 55
    },
    {
      "midi": 68,
      "hit": false,
      "t": 364707.99803333334,
      "d": 97.34514166670851,
      "v": 62
    },
    {
      "midi": 62,
      "hit": false,
      "t": 364716.8475916667,
      "d": 70.79646666668123,
      "v": 38
    },
    {
      "midi": 66,
      "hit": false,
      "t": 364716.8475916667,
      "d": 79.64602500002366,
      "v": 62
    },
    {
      "midi": 59,
      "hit": false,
      "t": 364743.39626666723,
      "d": 265.48674999998184,
      "v": 62
    },
    {
      "midi": 52,
      "hit": false,
      "t": 364752.2458250006,
      "d": 256.6371916666394,
      "v": 55
    },
    {
      "midi": 69,
      "hit": false,
      "t": 365256.67065000004,
      "d": 637.1682000000146,
      "v": 77
    },
    {
      "midi": 62,
      "hit": false,
      "t": 365265.5202083334,
      "d": 601.7699666666449,
      "v": 69
    },
    {
      "midi": 64,
      "hit": false,
      "t": 365265.5202083334,
      "d": 610.6195249999873,
      "v": 69
    },
    {
      "midi": 33,
      "hit": false,
      "t": 365283.21932500054,
      "d": 1168.1417000000365,
      "v": 55
    },
    {
      "midi": 40,
      "hit": false,
      "t": 365283.21932500054,
      "d": 1168.1417000000365,
      "v": 55
    },
    {
      "midi": 61,
      "hit": false,
      "t": 366318.61765000003,
      "d": 575.2212916666758,
      "v": 69
    },
    {
      "midi": 69,
      "hit": false,
      "t": 366318.61765000003,
      "d": 584.0708500000183,
      "v": 69
    },
    {
      "midi": 57,
      "hit": false,
      "t": 366380.5645583339,
      "d": 575.2212916666758,
      "v": 62
    },
    {
      "midi": 64,
      "hit": false,
      "t": 366380.5645583339,
      "d": 601.7699666667031,
      "v": 69
    },
    {
      "midi": 64,
      "hit": false,
      "t": 367168.1752500006,
      "d": 70.79646666668123,
      "v": 69
    },
    {
      "midi": 57,
      "hit": false,
      "t": 367168.1752500006,
      "d": 79.64602500002366,
      "v": 55
    },
    {
      "midi": 61,
      "hit": false,
      "t": 367203.5734833334,
      "d": 97.3451416666503,
      "v": 69
    },
    {
      "midi": 69,
      "hit": false,
      "t": 367212.42304166674,
      "d": 106.19469999999274,
      "v": 62
    },
    {
      "midi": 57,
      "hit": false,
      "t": 367362.86553333397,
      "d": 486.72570833330974,
      "v": 69
    },
    {
      "midi": 64,
      "hit": false,
      "t": 367362.86553333397,
      "d": 522.1239416666212,
      "v": 77
    },
    {
      "midi": 61,
      "hit": false,
      "t": 367380.5646500001,
      "d": 672.5664333333261,
      "v": 77
    },
    {
      "midi": 69,
      "hit": false,
      "t": 367380.5646500001,
      "d": 716.8142249999801,
      "v": 69
    },
    {
      "midi": 73,
      "hit": false,
      "t": 368920.3878,
      "d": 88.49558333330788,
      "v": 62
    },
    {
      "midi": 74,
      "hit": false,
      "t": 369017.7329416667,
      "d": 132.74337499996182,
      "v": 43
    },
    {
      "midi": 73,
      "hit": false,
      "t": 369115.0780833333,
      "d": 274.33630833332427,
      "v": 62
    },
    {
      "midi": 71,
      "hit": false,
      "t": 369389.41439166665,
      "d": 592.9204083333607,
      "v": 55
    },
    {
      "midi": 50,
      "hit": false,
      "t": 369513.3082083339,
      "d": 946.9027416666504,
      "v": 62
    },
    {
      "midi": 43,
      "hit": false,
      "t": 369522.15776666725,
      "d": 955.7522999999928,
      "v": 62
    },
    {
      "midi": 74,
      "hit": false,
      "t": 369973.48524166667,
      "d": 274.33630833332427,
      "v": 55
    },
    {
      "midi": 62,
      "hit": false,
      "t": 370495.60918333393,
      "d": 159.2920499999891,
      "v": 62
    },
    {
      "midi": 55,
      "hit": false,
      "t": 370504.4587416673,
      "d": 141.59293333330425,
      "v": 43
    },
    {
      "midi": 71,
      "hit": false,
      "t": 370557.5560916667,
      "d": 194.69028333335882,
      "v": 55
    },
    {
      "midi": 79,
      "hit": false,
      "t": 370557.5560916667,
      "d": 221.2389583333861,
      "v": 55
    },
    {
      "midi": 62,
      "hit": false,
      "t": 371017.7331250006,
      "d": 115.04425833333516,
      "v": 49
    },
    {
      "midi": 55,
      "hit": false,
      "t": 371017.7331250006,
      "d": 132.74337500002002,
      "v": 38
    },
    {
      "midi": 83,
      "hit": false,
      "t": 371026.5826833334,
      "d": 115.04425833333516,
      "v": 62
    },
    {
      "midi": 71,
      "hit": false,
      "t": 371035.4322416668,
      "d": 97.3451416666503,
      "v": 55
    },
    {
      "midi": 81,
      "hit": false,
      "t": 371539.85706666677,
      "d": 460.17703333334066,
      "v": 62
    },
    {
      "midi": 71,
      "hit": false,
      "t": 371539.85706666677,
      "d": 539.8230583333061,
      "v": 55
    },
    {
      "midi": 62,
      "hit": false,
      "t": 371539.8570666673,
      "d": 1061.9470000000438,
      "v": 69
    },
    {
      "midi": 55,
      "hit": false,
      "t": 371548.70662500063,
      "d": 1044.247883333359,
      "v": 62
    },
    {
      "midi": 79,
      "hit": false,
      "t": 372044.28189166676,
      "d": 79.64602499996545,
      "v": 55
    },
    {
      "midi": 67,
      "hit": false,
      "t": 372575.2553916667,
      "d": 185.8407250000164,
      "v": 49
    },
    {
      "midi": 71,
      "hit": false,
      "t": 372575.2553916667,
      "d": 194.69028333335882,
      "v": 55
    },
    {
      "midi": 67,
      "hit": false,
      "t": 373088.52977500006,
      "d": 150.44249166664667,
      "v": 55
    },
    {
      "midi": 74,
      "hit": false,
      "t": 373088.52977500006,
      "d": 159.2920499999891,
      "v": 62
    },
    {
      "midi": 71,
      "hit": false,
      "t": 373097.3793333334,
      "d": 141.59293333330425,
      "v": 55
    },
    {
      "midi": 78,
      "hit": false,
      "t": 373646.05195000005,
      "d": 584.0708500000183,
      "v": 69
    },
    {
      "midi": 67,
      "hit": false,
      "t": 373654.9015083334,
      "d": 575.2212916666758,
      "v": 62
    },
    {
      "midi": 71,
      "hit": false,
      "t": 373663.75106666674,
      "d": 557.522174999991,
      "v": 62
    },
    {
      "midi": 74,
      "hit": false,
      "t": 373663.75106666674,
      "d": 566.3717333333334,
      "v": 62
    },
    {
      "midi": 40,
      "hit": false,
      "t": 373787.644883334,
      "d": 1132.7434666666668,
      "v": 62
    },
    {
      "midi": 47,
      "hit": false,
      "t": 373787.644883334,
      "d": 1132.7434666666668,
      "v": 62
    },
    {
      "midi": 78,
      "hit": false,
      "t": 374849.5918833334,
      "d": 380.5310083333752,
      "v": 69
    },
    {
      "midi": 67,
      "hit": false,
      "t": 374858.44144166674,
      "d": 336.28321666666307,
      "v": 62
    },
    {
      "midi": 71,
      "hit": false,
      "t": 374858.44144166674,
      "d": 336.28321666666307,
      "v": 62
    },
    {
      "midi": 74,
      "hit": false,
      "t": 374858.44144166674,
      "d": 345.1327750000055,
      "v": 69
    },
    {
      "midi": 52,
      "hit": false,
      "t": 374938.08746666735,
      "d": 530.9735000000219,
      "v": 62
    },
    {
      "midi": 59,
      "hit": false,
      "t": 374938.08746666735,
      "d": 557.5221750000492,
      "v": 62
    },
    {
      "midi": 78,
      "hit": false,
      "t": 375690.2999250001,
      "d": 115.04425833333516,
      "v": 69
    },
    {
      "midi": 67,
      "hit": false,
      "t": 375707.9990416668,
      "d": 97.3451416666503,
      "v": 49
    },
    {
      "midi": 74,
      "hit": false,
      "t": 375707.9990416668,
      "d": 132.74337500002002,
      "v": 62
    },
    {
      "midi": 71,
      "hit": false,
      "t": 375716.84860000014,
      "d": 115.04425833333516,
      "v": 49
    },
    {
      "midi": 59,
      "hit": false,
      "t": 375725.69815833407,
      "d": 106.19469999999274,
      "v": 69
    },
    {
      "midi": 52,
      "hit": false,
      "t": 375734.5477166674,
      "d": 97.3451416666503,
      "v": 55
    },
    {
      "midi": 71,
      "hit": false,
      "t": 375911.5388833335,
      "d": 548.6726166666485,
      "v": 62
    },
    {
      "midi": 74,
      "hit": false,
      "t": 375911.5388833335,
      "d": 575.2212916666758,
      "v": 69
    },
    {
      "midi": 78,
      "hit": false,
      "t": 375911.5388833335,
      "d": 584.0708500000183,
      "v": 77
    },
    {
      "midi": 67,
      "hit": false,
      "t": 375911.5388833335,
      "d": 601.7699666667031,
      "v": 62
    },
    {
      "midi": 52,
      "hit": false,
      "t": 375946.9371166674,
      "d": 1053.0974416666431,
      "v": 69
    },
    {
      "midi": 59,
      "hit": false,
      "t": 375946.9371166674,
      "d": 1079.6461166666704,
      "v": 69
    },
    {
      "midi": 67,
      "hit": false,
      "t": 377008.88411666686,
      "d": 159.2920499999891,
      "v": 38
    },
    {
      "midi": 71,
      "hit": false,
      "t": 377008.88411666686,
      "d": 176.99116666667396,
      "v": 49
    },
    {
      "midi": 73,
      "hit": false,
      "t": 377504.4593833335,
      "d": 168.14160833338974,
      "v": 55
    },
    {
      "midi": 67,
      "hit": false,
      "t": 377531.00805833354,
      "d": 123.8938166666776,
      "v": 34
    },
    {
      "midi": 71,
      "hit": false,
      "t": 377539.8576166669,
      "d": 106.19469999999274,
      "v": 27
    },
    {
      "midi": 67,
      "hit": false,
      "t": 378017.7337666669,
      "d": 610.6195249999873,
      "v": 43
    },
    {
      "midi": 74,
      "hit": false,
      "t": 378026.58332500025,
      "d": 504.4248249999946,
      "v": 49
    },
    {
      "midi": 71,
      "hit": false,
      "t": 378026.58332500025,
      "d": 584.07084999996,
      "v": 49
    },
    {
      "midi": 52,
      "hit": false,
      "t": 378061.9815583341,
      "d": 1061.9470000000438,
      "v": 55
    },
    {
      "midi": 45,
      "hit": false,
      "t": 378079.68067500077,
      "d": 1044.247883333359,
      "v": 55
    },
    {
      "midi": 76,
      "hit": false,
      "t": 378575.2559416669,
      "d": 168.14160833333153,
      "v": 55
    },
    {
      "midi": 67,
      "hit": false,
      "t": 379097.3798833336,
      "d": 141.59293333330425,
      "v": 49
    },
    {
      "midi": 71,
      "hit": false,
      "t": 379097.3798833336,
      "d": 150.44249166664667,
      "v": 55
    },
    {
      "midi": 57,
      "hit": false,
      "t": 379115.0790000008,
      "d": 185.8407250000164,
      "v": 62
    },
    {
      "midi": 64,
      "hit": false,
      "t": 379123.9285583341,
      "d": 185.8407250000164,
      "v": 62
    },
    {
      "midi": 73,
      "hit": false,
      "t": 379601.80470833357,
      "d": 115.04425833339337,
      "v": 62
    },
    {
      "midi": 67,
      "hit": false,
      "t": 379619.50382500025,
      "d": 70.79646666668123,
      "v": 38
    },
    {
      "midi": 71,
      "hit": false,
      "t": 379619.50382500025,
      "d": 70.79646666668123,
      "v": 43
    },
    {
      "midi": 64,
      "hit": false,
      "t": 379619.50382500084,
      "d": 176.99116666667396,
      "v": 62
    },
    {
      "midi": 57,
      "hit": false,
      "t": 379619.50382500084,
      "d": 185.8407250000164,
      "v": 55
    },
    {
      "midi": 57,
      "hit": false,
      "t": 380141.6277666675,
      "d": 1115.044349999982,
      "v": 62
    },
    {
      "midi": 64,
      "hit": false,
      "t": 380141.6277666675,
      "d": 1132.7434666666668,
      "v": 62
    },
    {
      "midi": 67,
      "hit": false,
      "t": 380150.4773250003,
      "d": 566.3717333333334,
      "v": 49
    },
    {
      "midi": 71,
      "hit": false,
      "t": 380150.4773250003,
      "d": 575.2212916666758,
      "v": 62
    },
    {
      "midi": 74,
      "hit": false,
      "t": 380150.4773250003,
      "d": 610.6195249999873,
      "v": 55
    },
    {
      "midi": 76,
      "hit": false,
      "t": 380690.3003833336,
      "d": 150.44249166670488,
      "v": 55
    },
    {
      "midi": 67,
      "hit": false,
      "t": 381230.12344166695,
      "d": 106.19469999999274,
      "v": 49
    },
    {
      "midi": 71,
      "hit": false,
      "t": 381230.12344166695,
      "d": 106.19469999999274,
      "v": 62
    },
    {
      "midi": 73,
      "hit": false,
      "t": 381752.2473833336,
      "d": 115.04425833333516,
      "v": 69
    },
    {
      "midi": 71,
      "hit": false,
      "t": 381761.09694166697,
      "d": 88.49558333330788,
      "v": 55
    },
    {
      "midi": 67,
      "hit": false,
      "t": 381761.09694166697,
      "d": 115.04425833333516,
      "v": 49
    },
    {
      "midi": 67,
      "hit": false,
      "t": 382300.9200000003,
      "d": 566.3717333333334,
      "v": 43
    },
    {
      "midi": 74,
      "hit": false,
      "t": 382300.9200000003,
      "d": 575.2212916666758,
      "v": 43
    },
    {
      "midi": 69,
      "hit": false,
      "t": 382300.9200000003,
      "d": 592.9204083333607,
      "v": 43
    },
    {
      "midi": 38,
      "hit": false,
      "t": 382327.4686750008,
      "d": 1115.044349999982,
      "v": 39
    },
    {
      "midi": 45,
      "hit": false,
      "t": 382327.4686750008,
      "d": 1115.044349999982,
      "v": 34
    },
    {
      "midi": 66,
      "hit": false,
      "t": 383345.16788333363,
      "d": 398.23012500000186,
      "v": 48
    },
    {
      "midi": 74,
      "hit": false,
      "t": 383371.71655833366,
      "d": 336.28321666666307,
      "v": 43
    },
    {
      "midi": 62,
      "hit": false,
      "t": 383433.66346666747,
      "d": 460.17703333334066,
      "v": 43
    },
    {
      "midi": 69,
      "hit": false,
      "t": 383433.66346666747,
      "d": 469.0265916666831,
      "v": 43
    },
    {
      "midi": 66,
      "hit": false,
      "t": 384159.3272500003,
      "d": 97.34514166670851,
      "v": 43
    },
    {
      "midi": 74,
      "hit": false,
      "t": 384177.026366667,
      "d": 88.49558333336608,
      "v": 34
    },
    {
      "midi": 69,
      "hit": false,
      "t": 384221.2741583341,
      "d": 97.3451416666503,
      "v": 43
    },
    {
      "midi": 62,
      "hit": false,
      "t": 384230.12371666747,
      "d": 88.49558333330788,
      "v": 34
    },
    {
      "midi": 66,
      "hit": false,
      "t": 384345.1679750004,
      "d": 884.9558333333116,
      "v": 48
    },
    {
      "midi": 74,
      "hit": false,
      "t": 384345.1679750004,
      "d": 893.805391666654,
      "v": 39
    },
    {
      "midi": 62,
      "hit": false,
      "t": 384424.81400000077,
      "d": 973.4514166666777,
      "v": 43
    },
    {
      "midi": 69,
      "hit": false,
      "t": 384424.81400000077,
      "d": 973.4514166666777,
      "v": 48
    },
    {
      "midi": 57,
      "hit": false,
      "t": 385495.6105583341,
      "d": 132.74337500002002,
      "v": 30
    },
    {
      "midi": 50,
      "hit": false,
      "t": 385495.6105583341,
      "d": 159.2920500000473,
      "v": 30
    },
    {
      "midi": 57,
      "hit": false,
      "t": 386000.03538333415,
      "d": 123.8938166666776,
      "v": 23
    },
    {
      "midi": 50,
      "hit": false,
      "t": 386000.03538333415,
      "d": 150.44249166670488,
      "v": 23
    },
    {
      "midi": 57,
      "hit": false,
      "t": 386539.8584416675,
      "d": 1106.1947916666395,
      "v": 39
    },
    {
      "midi": 50,
      "hit": false,
      "t": 386539.8584416675,
      "d": 1115.044349999982,
      "v": 39
    },
    {
      "midi": 62,
      "hit": false,
      "t": 387628.35411666706,
      "d": 106.19469999999274,
      "v": 34
    },
    {
      "midi": 69,
      "hit": false,
      "t": 387628.35411666706,
      "d": 141.59293333330425,
      "v": 39
    },
    {
      "midi": 69,
      "hit": false,
      "t": 388123.9293833337,
      "d": 115.04425833333516,
      "v": 39
    },
    {
      "midi": 62,
      "hit": false,
      "t": 388132.77894166706,
      "d": 97.3451416666503,
      "v": 34
    },
    {
      "midi": 62,
      "hit": false,
      "t": 388654.90288333374,
      "d": 1070.796558333328,
      "v": 49
    },
    {
      "midi": 69,
      "hit": false,
      "t": 388654.90288333374,
      "d": 1079.6461166666704,
      "v": 61
    },
    {
      "midi": 57,
      "hit": false,
      "t": 389761.09767500084,
      "d": 203.53984166664304,
      "v": 44
    },
    {
      "midi": 50,
      "hit": false,
      "t": 389761.09767500084,
      "d": 221.2389583333279,
      "v": 39
    },
    {
      "midi": 50,
      "hit": false,
      "t": 390256.6729416675,
      "d": 168.14160833333153,
      "v": 39
    },
    {
      "midi": 57,
      "hit": false,
      "t": 390265.52250000084,
      "d": 159.2920499999891,
      "v": 39
    },
    {
      "midi": 50,
      "hit": false,
      "t": 390796.4960000008,
      "d": 1079.6461166666704,
      "v": 39
    },
    {
      "midi": 57,
      "hit": false,
      "t": 390796.4960000008,
      "d": 1079.6461166666704,
      "v": 39
    },
    {
      "midi": 69,
      "hit": false,
      "t": 391849.5934416671,
      "d": 123.8938166666776,
      "v": 49
    },
    {
      "midi": 62,
      "hit": false,
      "t": 391867.2925583338,
      "d": 88.49558333330788,
      "v": 44
    },
    {
      "midi": 69,
      "hit": false,
      "t": 392362.86782500043,
      "d": 115.04425833333516,
      "v": 49
    },
    {
      "midi": 62,
      "hit": false,
      "t": 392371.7173833338,
      "d": 106.19469999999274,
      "v": 39
    },
    {
      "midi": 69,
      "hit": false,
      "t": 392876.14220833377,
      "d": 716.8142249999801,
      "v": 61
    },
    {
      "midi": 62,
      "hit": false,
      "t": 392884.9917666671,
      "d": 663.7168749999837,
      "v": 49
    },
    {
      "midi": 57,
      "hit": false,
      "t": 394026.58479166747,
      "d": 176.99116666667396,
      "v": 44
    },
    {
      "midi": 50,
      "hit": false,
      "t": 394035.4343500008,
      "d": 176.99116666667396,
      "v": 44
    },
    {
      "midi": 57,
      "hit": false,
      "t": 394531.00961666746,
      "d": 150.44249166664667,
      "v": 34
    },
    {
      "midi": 50,
      "hit": false,
      "t": 394531.00961666746,
      "d": 176.99116666667396,
      "v": 34
    },
    {
      "midi": 81,
      "hit": false,
      "t": 394575.25740833377,
      "d": 132.74337500002002,
      "v": 34
    },
    {
      "midi": 83,
      "hit": false,
      "t": 394646.05387500045,
      "d": 256.6371916666394,
      "v": 34
    },
    {
      "midi": 81,
      "hit": false,
      "t": 394858.44327500043,
      "d": 230.08851666667033,
      "v": 27
    },
    {
      "midi": 57,
      "hit": false,
      "t": 395026.5848833341,
      "d": 938.0531833333662,
      "v": 44
    },
    {
      "midi": 50,
      "hit": false,
      "t": 395035.43444166746,
      "d": 920.3540666666813,
      "v": 39
    },
    {
      "midi": 78,
      "hit": false,
      "t": 395061.9831166671,
      "d": 486.72570833336795,
      "v": 55
    },
    {
      "midi": 81,
      "hit": false,
      "t": 395531.00970833376,
      "d": 176.99116666667396,
      "v": 44
    },
    {
      "midi": 86,
      "hit": false,
      "t": 396053.13365000044,
      "d": 123.8938166666776,
      "v": 49
    },
    {
      "midi": 78,
      "hit": false,
      "t": 396053.13365000044,
      "d": 176.99116666667396,
      "v": 49
    },
    {
      "midi": 69,
      "hit": false,
      "t": 396061.98320833413,
      "d": 176.99116666667396,
      "v": 49
    },
    {
      "midi": 62,
      "hit": false,
      "t": 396079.6823250008,
      "d": 141.59293333330425,
      "v": 44
    },
    {
      "midi": 90,
      "hit": false,
      "t": 396557.55847500043,
      "d": 123.8938166666776,
      "v": 61
    },
    {
      "midi": 78,
      "hit": false,
      "t": 396566.4080333338,
      "d": 132.74337500002002,
      "v": 49
    },
    {
      "midi": 69,
      "hit": false,
      "t": 396566.4080333341,
      "d": 185.8407250000164,
      "v": 39
    },
    {
      "midi": 62,
      "hit": false,
      "t": 396575.25759166747,
      "d": 150.44249166664667,
      "v": 34
    },
    {
      "midi": 88,
      "hit": false,
      "t": 397079.6824166671,
      "d": 539.8230583333061,
      "v": 49
    },
    {
      "midi": 78,
      "hit": false,
      "t": 397079.6824166671,
      "d": 584.0708500000183,
      "v": 49
    },
    {
      "midi": 62,
      "hit": false,
      "t": 397097.38153333415,
      "d": 946.9027416666504,
      "v": 44
    },
    {
      "midi": 69,
      "hit": false,
      "t": 397097.38153333415,
      "d": 955.7522999999928,
      "v": 44
    },
    {
      "midi": 86,
      "hit": false,
      "t": 397646.05415000045,
      "d": 115.04425833333516,
      "v": 49
    },
    {
      "midi": 78,
      "hit": false,
      "t": 398159.3285333338,
      "d": 176.99116666667396,
      "v": 49
    },
    {
      "midi": 57,
      "hit": false,
      "t": 398185.87720833416,
      "d": 150.44249166664667,
      "v": 39
    },
    {
      "midi": 50,
      "hit": false,
      "t": 398185.87720833416,
      "d": 168.14160833333153,
      "v": 39
    },
    {
      "midi": 78,
      "hit": false,
      "t": 398681.45247500046,
      "d": 159.2920499999891,
      "v": 49
    },
    {
      "midi": 81,
      "hit": false,
      "t": 398690.3020333338,
      "d": 159.2920499999891,
      "v": 44
    },
    {
      "midi": 57,
      "hit": false,
      "t": 398716.8507083342,
      "d": 150.44249166664667,
      "v": 34
    },
    {
      "midi": 50,
      "hit": false,
      "t": 398725.7002666675,
      "d": 150.44249166664667,
      "v": 34
    },
    {
      "midi": 78,
      "hit": false,
      "t": 399203.57641666714,
      "d": 752.2124583333498,
      "v": 61
    },
    {
      "midi": 83,
      "hit": false,
      "t": 399212.4259750005,
      "d": 761.0620166666922,
      "v": 55
    },
    {
      "midi": 81,
      "hit": false,
      "t": 399221.2755333338,
      "d": 734.5133416666649,
      "v": 55
    },
    {
      "midi": 57,
      "hit": false,
      "t": 399265.52332500083,
      "d": 1026.548766666674,
      "v": 55
    },
    {
      "midi": 50,
      "hit": false,
      "t": 399265.52332500083,
      "d": 1035.3983250000165,
      "v": 55
    },
    {
      "midi": 78,
      "hit": false,
      "t": 400362.86855833384,
      "d": 477.8761500000255,
      "v": 55
    },
    {
      "midi": 81,
      "hit": false,
      "t": 400371.7181166672,
      "d": 460.17703333334066,
      "v": 49
    },
    {
      "midi": 83,
      "hit": false,
      "t": 400371.7181166672,
      "d": 486.72570833336795,
      "v": 55
    },
    {
      "midi": 69,
      "hit": false,
      "t": 400407.11635000084,
      "d": 495.5752666667104,
      "v": 55
    },
    {
      "midi": 62,
      "hit": false,
      "t": 400415.9659083342,
      "d": 460.17703333334066,
      "v": 49
    },
    {
      "midi": 69,
      "hit": false,
      "t": 401203.5766000009,
      "d": 97.34514166670851,
      "v": 49
    },
    {
      "midi": 78,
      "hit": false,
      "t": 401212.4261583339,
      "d": 123.8938166666776,
      "v": 49
    },
    {
      "midi": 62,
      "hit": false,
      "t": 401212.42615833424,
      "d": 79.64602500002366,
      "v": 39
    },
    {
      "midi": 81,
      "hit": false,
      "t": 401221.27571666724,
      "d": 115.04425833333516,
      "v": 44
    },
    {
      "midi": 83,
      "hit": false,
      "t": 401221.27571666724,
      "d": 115.04425833333516,
      "v": 49
    },
    {
      "midi": 69,
      "hit": false,
      "t": 401398.26688333426,
      "d": 955.752300000051,
      "v": 69
    },
    {
      "midi": 62,
      "hit": false,
      "t": 401407.1164416676,
      "d": 929.2036250000237,
      "v": 55
    },
    {
      "midi": 78,
      "hit": false,
      "t": 401415.9660000006,
      "d": 548.6726166667067,
      "v": 55
    },
    {
      "midi": 81,
      "hit": false,
      "t": 401424.81555833394,
      "d": 504.4248249999946,
      "v": 44
    },
    {
      "midi": 83,
      "hit": false,
      "t": 401424.81555833394,
      "d": 522.1239416666795,
      "v": 44
    },
    {
      "midi": 78,
      "hit": false,
      "t": 402451.3643250006,
      "d": 185.8407250000164,
      "v": 61
    },
    {
      "midi": 74,
      "hit": false,
      "t": 402460.21388333396,
      "d": 168.14160833333153,
      "v": 49
    },
    {
      "midi": 80,
      "hit": false,
      "t": 402955.7891500006,
      "d": 150.44249166670488,
      "v": 49
    },
    {
      "midi": 78,
      "hit": false,
      "t": 402964.63870833395,
      "d": 115.04425833333516,
      "v": 49
    },
    {
      "midi": 74,
      "hit": false,
      "t": 402964.63870833395,
      "d": 123.8938166666776,
      "v": 39
    },
    {
      "midi": 78,
      "hit": false,
      "t": 403513.31132500066,
      "d": 575.2212916666758,
      "v": 55
    },
    {
      "midi": 81,
      "hit": false,
      "t": 403513.31132500066,
      "d": 584.0708500000183,
      "v": 49
    },
    {
      "midi": 74,
      "hit": false,
      "t": 403522.160883334,
      "d": 557.522174999991,
      "v": 49
    },
    {
      "midi": 54,
      "hit": false,
      "t": 403531.01044166763,
      "d": 929.2036250000237,
      "v": 55
    },
    {
      "midi": 47,
      "hit": false,
      "t": 403548.7095583343,
      "d": 893.805391666654,
      "v": 39
    },
    {
      "midi": 83,
      "hit": false,
      "t": 404061.9839416673,
      "d": 150.44249166670488,
      "v": 44
    },
    {
      "midi": 78,
      "hit": false,
      "t": 404584.107883334,
      "d": 132.74337500002002,
      "v": 55
    },
    {
      "midi": 66,
      "hit": false,
      "t": 404584.10788333433,
      "d": 212.38940000004368,
      "v": 61
    },
    {
      "midi": 74,
      "hit": false,
      "t": 404592.9574416673,
      "d": 141.59293333336245,
      "v": 44
    },
    {
      "midi": 59,
      "hit": false,
      "t": 404601.807000001,
      "d": 230.08851666667033,
      "v": 39
    },
    {
      "midi": 78,
      "hit": false,
      "t": 405088.53270833404,
      "d": 97.3451416666503,
      "v": 49
    },
    {
      "midi": 80,
      "hit": false,
      "t": 405088.53270833404,
      "d": 106.19469999999274,
      "v": 55
    },
    {
      "midi": 66,
      "hit": false,
      "t": 405088.5327083343,
      "d": 212.38940000004368,
      "v": 61
    },
    {
      "midi": 74,
      "hit": false,
      "t": 405097.3822666674,
      "d": 97.3451416666503,
      "v": 44
    },
    {
      "midi": 59,
      "hit": false,
      "t": 405097.3822666677,
      "d": 194.69028333335882,
      "v": 44
    },
    {
      "midi": 78,
      "hit": false,
      "t": 405601.8070916674,
      "d": 601.7699666667031,
      "v": 55
    },
    {
      "midi": 74,
      "hit": false,
      "t": 405610.6566500007,
      "d": 566.3717333333334,
      "v": 49
    },
    {
      "midi": 81,
      "hit": false,
      "t": 405610.6566500007,
      "d": 619.469083333388,
      "v": 49
    },
    {
      "midi": 52,
      "hit": false,
      "t": 405610.65665000107,
      "d": 805.3098083333462,
      "v": 44
    },
    {
      "midi": 59,
      "hit": false,
      "t": 405637.2053250011,
      "d": 858.4071583333425,
      "v": 44
    },
    {
      "midi": 83,
      "hit": false,
      "t": 406150.479708334,
      "d": 150.4424916667631,
      "v": 49
    },
    {
      "midi": 78,
      "hit": false,
      "t": 406663.7540916675,
      "d": 79.64602500002366,
      "v": 55
    },
    {
      "midi": 74,
      "hit": false,
      "t": 406663.7540916675,
      "d": 97.34514166670851,
      "v": 44
    },
    {
      "midi": 71,
      "hit": false,
      "t": 406690.3027666678,
      "d": 238.93807500001276,
      "v": 49
    },
    {
      "midi": 64,
      "hit": false,
      "t": 406699.15232500114,
      "d": 203.53984166664304,
      "v": 49
    },
    {
      "midi": 78,
      "hit": false,
      "t": 407177.0284750009,
      "d": 88.49558333336608,
      "v": 55
    },
    {
      "midi": 80,
      "hit": false,
      "t": 407177.0284750009,
      "d": 106.19470000005094,
      "v": 55
    },
    {
      "midi": 74,
      "hit": false,
      "t": 407185.8780333342,
      "d": 97.34514166670851,
      "v": 39
    },
    {
      "midi": 64,
      "hit": false,
      "t": 407221.2762666678,
      "d": 194.69028333335882,
      "v": 55
    },
    {
      "midi": 71,
      "hit": false,
      "t": 407221.2762666678,
      "d": 212.38940000004368,
      "v": 55
    },
    {
      "midi": 74,
      "hit": false,
      "t": 407734.5506500009,
      "d": 610.6195249999873,
      "v": 61
    },
    {
      "midi": 76,
      "hit": false,
      "t": 407734.5506500009,
      "d": 628.3186416666722,
      "v": 61
    },
    {
      "midi": 81,
      "hit": false,
      "t": 407734.5506500009,
      "d": 628.3186416666722,
      "v": 61
    },
    {
      "midi": 57,
      "hit": false,
      "t": 407761.0993250012,
      "d": 787.6106916666613,
      "v": 44
    },
    {
      "midi": 64,
      "hit": false,
      "t": 407769.9488833345,
      "d": 716.8142249999801,
      "v": 55
    },
    {
      "midi": 73,
      "hit": false,
      "t": 408805.34720833425,
      "d": 486.72570833336795,
      "v": 61
    },
    {
      "midi": 81,
      "hit": false,
      "t": 408814.1967666676,
      "d": 504.4248250000528,
      "v": 55
    },
    {
      "midi": 69,
      "hit": false,
      "t": 408867.2941166678,
      "d": 504.4248249999946,
      "v": 55
    },
    {
      "midi": 76,
      "hit": false,
      "t": 408876.14367500116,
      "d": 522.1239416666795,
      "v": 55
    },
    {
      "midi": 73,
      "hit": false,
      "t": 409654.9048083343,
      "d": 88.49558333336608,
      "v": 55
    },
    {
      "midi": 81,
      "hit": false,
      "t": 409663.75436666765,
      "d": 97.34514166670851,
      "v": 49
    },
    {
      "midi": 69,
      "hit": false,
      "t": 409663.7543666678,
      "d": 106.19469999999274,
      "v": 49
    },
    {
      "midi": 76,
      "hit": false,
      "t": 409663.7543666678,
      "d": 115.04425833333516,
      "v": 49
    },
    {
      "midi": 73,
      "hit": false,
      "t": 409849.59509166767,
      "d": 734.5133416666649,
      "v": 69
    },
    {
      "midi": 81,
      "hit": false,
      "t": 409849.59509166767,
      "d": 805.3098083333462,
      "v": 55
    },
    {
      "midi": 69,
      "hit": false,
      "t": 409884.99332500115,
      "d": 1044.247883333359,
      "v": 55
    },
    {
      "midi": 76,
      "hit": false,
      "t": 409884.99332500115,
      "d": 1044.247883333359,
      "v": 55
    },
    {
      "midi": 85,
      "hit": false,
      "t": 411451.365150001,
      "d": 150.44249166664667,
      "v": 49
    },
    {
      "midi": 86,
      "hit": false,
      "t": 411619.50675833435,
      "d": 212.38939999998547,
      "v": 18
    },
    {
      "midi": 85,
      "hit": false,
      "t": 411787.6483666677,
      "d": 168.14160833333153,
      "v": 55
    },
    {
      "midi": 83,
      "hit": false,
      "t": 411973.4890916677,
      "d": 522.1239416666212,
      "v": 49
    },
    {
      "midi": 55,
      "hit": false,
      "t": 411982.33865000115,
      "d": 548.6726166666485,
      "v": 49
    },
    {
      "midi": 62,
      "hit": false,
      "t": 411982.33865000115,
      "d": 584.07084999996,
      "v": 55
    },
    {
      "midi": 86,
      "hit": false,
      "t": 412460.214800001,
      "d": 194.6902833333006,
      "v": 39
    },
    {
      "midi": 83,
      "hit": false,
      "t": 412964.639625001,
      "d": 185.8407250000164,
      "v": 49
    },
    {
      "midi": 91,
      "hit": false,
      "t": 412964.639625001,
      "d": 221.2389583333279,
      "v": 55
    },
    {
      "midi": 67,
      "hit": false,
      "t": 413026.58653333446,
      "d": 194.69028333335882,
      "v": 44
    },
    {
      "midi": 74,
      "hit": false,
      "t": 413026.58653333446,
      "d": 230.08851666667033,
      "v": 49
    },
    {
      "midi": 95,
      "hit": false,
      "t": 413477.91400833434,
      "d": 141.59293333330425,
      "v": 61
    },
    {
      "midi": 83,
      "hit": false,
      "t": 413477.91400833434,
      "d": 176.99116666661575,
      "v": 49
    },
    {
      "midi": 67,
      "hit": false,
      "t": 413531.01135833445,
      "d": 141.59293333330425,
      "v": 39
    },
    {
      "midi": 74,
      "hit": false,
      "t": 413531.01135833445,
      "d": 159.2920499999891,
      "v": 39
    },
    {
      "midi": 83,
      "hit": false,
      "t": 414026.5866250009,
      "d": 584.0708500000183,
      "v": 49
    },
    {
      "midi": 67,
      "hit": false,
      "t": 414026.5866250011,
      "d": 716.8142249999801,
      "v": 34
    },
    {
      "midi": 74,
      "hit": false,
      "t": 414026.5866250011,
      "d": 725.6637833333225,
      "v": 34
    },
    {
      "midi": 93,
      "hit": false,
      "t": 414035.43618333427,
      "d": 522.1239416666795,
      "v": 61
    },
    {
      "midi": 91,
      "hit": false,
      "t": 414566.4096833343,
      "d": 97.3451416666503,
      "v": 44
    },
    {
      "midi": 83,
      "hit": false,
      "t": 415106.2327416676,
      "d": 168.14160833333153,
      "v": 49
    },
    {
      "midi": 79,
      "hit": false,
      "t": 415106.2327416676,
      "d": 185.8407250000164,
      "v": 39
    },
    {
      "midi": 86,
      "hit": false,
      "t": 415637.2062416676,
      "d": 168.14160833338974,
      "v": 49
    },
    {
      "midi": 79,
      "hit": false,
      "t": 415646.05580000096,
      "d": 115.04425833333516,
      "v": 44
    },
    {
      "midi": 83,
      "hit": false,
      "t": 415646.05580000096,
      "d": 132.74337500002002,
      "v": 44
    },
    {
      "midi": 90,
      "hit": false,
      "t": 416185.8788583343,
      "d": 725.6637833333225,
      "v": 69
    },
    {
      "midi": 83,
      "hit": false,
      "t": 416194.72841666767,
      "d": 725.6637833333225,
      "v": 55
    },
    {
      "midi": 79,
      "hit": false,
      "t": 416194.72841666767,
      "d": 743.3629000000074,
      "v": 55
    },
    {
      "midi": 86,
      "hit": false,
      "t": 416194.72841666767,
      "d": 743.3629000000074,
      "v": 55
    },
    {
      "midi": 59,
      "hit": false,
      "t": 416292.07355833444,
      "d": 690.265550000011,
      "v": 44
    },
    {
      "midi": 52,
      "hit": false,
      "t": 416318.62223333446,
      "d": 628.3186416666722,
      "v": 44
    },
    {
      "midi": 90,
      "hit": false,
      "t": 417362.87011666765,
      "d": 389.38056666671764,
      "v": 69
    },
    {
      "midi": 83,
      "hit": false,
      "t": 417380.56923333433,
      "d": 362.83189166669035,
      "v": 55
    },
    {
      "midi": 86,
      "hit": false,
      "t": 417380.56923333433,
      "d": 389.38056666671764,
      "v": 49
    },
    {
      "midi": 79,
      "hit": false,
      "t": 417380.56923333433,
      "d": 415.92924166674493,
      "v": 49
    },
    {
      "midi": 71,
      "hit": false,
      "t": 417380.56923333445,
      "d": 557.5221750000492,
      "v": 44
    },
    {
      "midi": 64,
      "hit": false,
      "t": 417389.4187916678,
      "d": 530.9735000000219,
      "v": 49
    },
    {
      "midi": 90,
      "hit": false,
      "t": 418177.0294833344,
      "d": 115.04425833333516,
      "v": 61
    },
    {
      "midi": 71,
      "hit": false,
      "t": 418177.0294833345,
      "d": 106.19469999999274,
      "v": 55
    },
    {
      "midi": 79,
      "hit": false,
      "t": 418185.87904166774,
      "d": 106.19469999999274,
      "v": 44
    },
    {
      "midi": 64,
      "hit": false,
      "t": 418185.87904166785,
      "d": 106.19469999999274,
      "v": 39
    },
    {
      "midi": 83,
      "hit": false,
      "t": 418194.7286000011,
      "d": 123.8938166666776,
      "v": 44
    },
    {
      "midi": 86,
      "hit": false,
      "t": 418194.7286000011,
      "d": 132.74337500002002,
      "v": 44
    },
    {
      "midi": 83,
      "hit": false,
      "t": 418389.41888333444,
      "d": 628.3186416666722,
      "v": 44
    },
    {
      "midi": 86,
      "hit": false,
      "t": 418389.41888333444,
      "d": 628.3186416666722,
      "v": 49
    },
    {
      "midi": 90,
      "hit": false,
      "t": 418389.41888333444,
      "d": 628.3186416666722,
      "v": 69
    },
    {
      "midi": 79,
      "hit": false,
      "t": 418389.41888333444,
      "d": 672.5664333333261,
      "v": 44
    },
    {
      "midi": 64,
      "hit": false,
      "t": 418389.4188833345,
      "d": 1070.796558333328,
      "v": 61
    },
    {
      "midi": 71,
      "hit": false,
      "t": 418389.4188833345,
      "d": 1088.4956750000129,
      "v": 55
    },
    {
      "midi": 79,
      "hit": false,
      "t": 419442.5163250011,
      "d": 212.38939999998547,
      "v": 44
    },
    {
      "midi": 83,
      "hit": false,
      "t": 419442.5163250011,
      "d": 221.2389583333279,
      "v": 49
    },
    {
      "midi": 85,
      "hit": false,
      "t": 419955.7907083344,
      "d": 176.99116666667396,
      "v": 55
    },
    {
      "midi": 79,
      "hit": false,
      "t": 419973.4898250011,
      "d": 150.44249166664667,
      "v": 39
    },
    {
      "midi": 83,
      "hit": false,
      "t": 419982.33938333445,
      "d": 150.44249166664667,
      "v": 39
    },
    {
      "midi": 79,
      "hit": false,
      "t": 420469.06509166776,
      "d": 575.2212916666176,
      "v": 44
    },
    {
      "midi": 83,
      "hit": false,
      "t": 420469.06509166776,
      "d": 601.7699666666449,
      "v": 49
    },
    {
      "midi": 86,
      "hit": false,
      "t": 420469.06509166776,
      "d": 646.0177583332988,
      "v": 49
    },
    {
      "midi": 64,
      "hit": false,
      "t": 420504.4633250012,
      "d": 690.265550000011,
      "v": 49
    },
    {
      "midi": 57,
      "hit": false,
      "t": 420522.16244166787,
      "d": 619.4690833333298,
      "v": 44
    },
    {
      "midi": 88,
      "hit": false,
      "t": 421008.88815000106,
      "d": 194.6902833333006,
      "v": 55
    },
    {
      "midi": 79,
      "hit": false,
      "t": 421531.0120916677,
      "d": 159.2920499999891,
      "v": 44
    },
    {
      "midi": 83,
      "hit": false,
      "t": 421531.0120916677,
      "d": 168.14160833333153,
      "v": 49
    },
    {
      "midi": 76,
      "hit": false,
      "t": 421610.6581166679,
      "d": 221.2389583333861,
      "v": 44
    },
    {
      "midi": 69,
      "hit": false,
      "t": 421619.5076750012,
      "d": 185.8407250000164,
      "v": 44
    },
    {
      "midi": 85,
      "hit": false,
      "t": 422070.835150001,
      "d": 168.14160833338974,
      "v": 61
    },
    {
      "midi": 79,
      "hit": false,
      "t": 422079.68470833433,
      "d": 141.59293333336245,
      "v": 44
    },
    {
      "midi": 83,
      "hit": false,
      "t": 422088.5342666677,
      "d": 150.44249166670488,
      "v": 44
    },
    {
      "midi": 69,
      "hit": false,
      "t": 422123.9325000013,
      "d": 194.69028333335882,
      "v": 39
    },
    {
      "midi": 76,
      "hit": false,
      "t": 422123.9325000013,
      "d": 212.38940000004368,
      "v": 39
    },
    {
      "midi": 79,
      "hit": false,
      "t": 422619.5077666677,
      "d": 575.2212916666758,
      "v": 44
    },
    {
      "midi": 83,
      "hit": false,
      "t": 422619.5077666677,
      "d": 601.7699666667031,
      "v": 49
    },
    {
      "midi": 86,
      "hit": false,
      "t": 422619.5077666677,
      "d": 637.1682000000146,
      "v": 49
    },
    {
      "midi": 76,
      "hit": false,
      "t": 422628.3573250013,
      "d": 1115.0443500000401,
      "v": 49
    },
    {
      "midi": 69,
      "hit": false,
      "t": 422637.2068833347,
      "d": 1079.6461166666704,
      "v": 44
    },
    {
      "midi": 88,
      "hit": false,
      "t": 423168.18038333434,
      "d": 185.8407250000164,
      "v": 49
    },
    {
      "midi": 83,
      "hit": false,
      "t": 423699.15388333437,
      "d": 194.69028333335882,
      "v": 55
    },
    {
      "midi": 79,
      "hit": false,
      "t": 423708.0034416677,
      "d": 159.2920499999891,
      "v": 44
    },
    {
      "midi": 85,
      "hit": false,
      "t": 424203.5787083344,
      "d": 185.8407250000164,
      "v": 61
    },
    {
      "midi": 79,
      "hit": false,
      "t": 424221.2778250011,
      "d": 203.53984166664304,
      "v": 39
    },
    {
      "midi": 83,
      "hit": false,
      "t": 424247.82650000113,
      "d": 35.39823333331151,
      "v": 15
    },
    {
      "midi": 79,
      "hit": false,
      "t": 424743.4017666677,
      "d": 619.4690833333298,
      "v": 49
    },
    {
      "midi": 86,
      "hit": false,
      "t": 424743.4017666677,
      "d": 619.4690833333298,
      "v": 61
    },
    {
      "midi": 69,
      "hit": false,
      "t": 424752.25132500136,
      "d": 707.9646666666958,
      "v": 55
    },
    {
      "midi": 81,
      "hit": false,
      "t": 424761.1008833344,
      "d": 646.0177583332988,
      "v": 55
    },
    {
      "midi": 62,
      "hit": false,
      "t": 424761.1008833347,
      "d": 646.017758333357,
      "v": 55
    },
    {
      "midi": 86,
      "hit": false,
      "t": 425814.19832500105,
      "d": 495.57526666665217,
      "v": 64
    },
    {
      "midi": 78,
      "hit": false,
      "t": 425814.19832500105,
      "d": 504.4248249999946,
      "v": 68
    },
    {
      "midi": 74,
      "hit": false,
      "t": 425884.994791668,
      "d": 424.77879999997094,
      "v": 64
    },
    {
      "midi": 81,
      "hit": false,
      "t": 425884.994791668,
      "d": 477.8761499999673,
      "v": 60
    },
    {
      "midi": 78,
      "hit": false,
      "t": 426654.9063666677,
      "d": 97.3451416666503,
      "v": 64
    },
    {
      "midi": 86,
      "hit": false,
      "t": 426654.9063666677,
      "d": 132.74337499996182,
      "v": 60
    },
    {
      "midi": 81,
      "hit": false,
      "t": 426725.7028333347,
      "d": 123.8938166666776,
      "v": 57
    },
    {
      "midi": 74,
      "hit": false,
      "t": 426734.552391668,
      "d": 106.19469999999274,
      "v": 60
    },
    {
      "midi": 86,
      "hit": false,
      "t": 426849.596650001,
      "d": 893.805391666654,
      "v": 57
    },
    {
      "midi": 78,
      "hit": false,
      "t": 426858.44620833435,
      "d": 831.8584833333152,
      "v": 68
    },
    {
      "midi": 74,
      "hit": false,
      "t": 426938.09223333467,
      "d": 1035.3983250000165,
      "v": 64
    },
    {
      "midi": 81,
      "hit": false,
      "t": 426938.09223333467,
      "d": 1070.796558333328,
      "v": 68
    },
    {
      "midi": 52,
      "hit": false,
      "t": 429079.6853500013,
      "d": 761.0620166666922,
      "v": 85
    },
    {
      "midi": 45,
      "hit": false,
      "t": 429088.53490833467,
      "d": 734.5133416666649,
      "v": 85
    },
    {
      "midi": 45,
      "hit": false,
      "t": 430088.5350000014,
      "d": 132.74337500002002,
      "v": 69
    },
    {
      "midi": 52,
      "hit": false,
      "t": 430088.5350000014,
      "d": 132.74337500002002,
      "v": 69
    },
    {
      "midi": 45,
      "hit": false,
      "t": 430584.1102666681,
      "d": 150.44249166670488,
      "v": 54
    },
    {
      "midi": 52,
      "hit": false,
      "t": 430601.80938333477,
      "d": 115.04425833333516,
      "v": 54
    },
    {
      "midi": 45,
      "hit": false,
      "t": 431115.0837666681,
      "d": 823.0089249999728,
      "v": 99
    },
    {
      "midi": 52,
      "hit": false,
      "t": 431115.0837666681,
      "d": 867.2567166666267,
      "v": 99
    },
    {
      "midi": 45,
      "hit": false,
      "t": 432212.4290000014,
      "d": 150.44249166670488,
      "v": 64
    },
    {
      "midi": 52,
      "hit": false,
      "t": 432221.27855833474,
      "d": 123.8938166666776,
      "v": 64
    },
    {
      "midi": 45,
      "hit": false,
      "t": 432708.0042666681,
      "d": 123.8938166666776,
      "v": 57
    },
    {
      "midi": 52,
      "hit": false,
      "t": 432716.85382500145,
      "d": 115.04425833333516,
      "v": 54
    },
    {
      "midi": 61,
      "hit": false,
      "t": 433221.278650001,
      "d": 238.93807500001276,
      "v": 91
    },
    {
      "midi": 64,
      "hit": false,
      "t": 433221.278650001,
      "d": 681.4159916666686,
      "v": 79
    },
    {
      "midi": 52,
      "hit": false,
      "t": 433256.67688333476,
      "d": 787.6106916666613,
      "v": 79
    },
    {
      "midi": 45,
      "hit": false,
      "t": 433256.67688333476,
      "d": 796.4602500000037,
      "v": 91
    },
    {
      "midi": 59,
      "hit": false,
      "t": 433451.36716666765,
      "d": 212.38939999998547,
      "v": 64
    },
    {
      "midi": 61,
      "hit": false,
      "t": 433690.30524166767,
      "d": 274.33630833332427,
      "v": 60
    },
    {
      "midi": 57,
      "hit": false,
      "t": 433964.641550001,
      "d": 176.99116666667396,
      "v": 64
    },
    {
      "midi": 66,
      "hit": false,
      "t": 434247.82741666766,
      "d": 584.0708500000183,
      "v": 91
    },
    {
      "midi": 62,
      "hit": false,
      "t": 434256.676975001,
      "d": 557.522174999991,
      "v": 79
    },
    {
      "midi": 45,
      "hit": false,
      "t": 434309.7743250014,
      "d": 141.59293333336245,
      "v": 69
    },
    {
      "midi": 52,
      "hit": false,
      "t": 434318.62388333475,
      "d": 123.8938166666776,
      "v": 64
    },
    {
      "midi": 59,
      "hit": false,
      "t": 434796.5000333343,
      "d": 327.43365833337884,
      "v": 74
    },
    {
      "midi": 52,
      "hit": false,
      "t": 434814.19915000146,
      "d": 185.8407250000164,
      "v": 69
    },
    {
      "midi": 45,
      "hit": false,
      "t": 434814.19915000146,
      "d": 203.53984166670125,
      "v": 64
    },
    {
      "midi": 61,
      "hit": false,
      "t": 435345.172650001,
      "d": 256.6371916666394,
      "v": 85
    },
    {
      "midi": 64,
      "hit": false,
      "t": 435345.172650001,
      "d": 752.2124583333498,
      "v": 74
    },
    {
      "midi": 45,
      "hit": false,
      "t": 435371.7213250015,
      "d": 805.3098083333462,
      "v": 79
    },
    {
      "midi": 52,
      "hit": false,
      "t": 435380.57088333485,
      "d": 805.3098083333462,
      "v": 79
    },
    {
      "midi": 59,
      "hit": false,
      "t": 435566.41160833434,
      "d": 292.0354250000091,
      "v": 64
    },
    {
      "midi": 61,
      "hit": false,
      "t": 435831.8983583343,
      "d": 283.1858666667249,
      "v": 74
    },
    {
      "midi": 57,
      "hit": false,
      "t": 436097.38510833436,
      "d": 185.8407250000164,
      "v": 64
    },
    {
      "midi": 62,
      "hit": false,
      "t": 436398.2700916677,
      "d": 592.9204083333607,
      "v": 85
    },
    {
      "midi": 66,
      "hit": false,
      "t": 436398.2700916677,
      "d": 646.017758333357,
      "v": 99
    },
    {
      "midi": 45,
      "hit": false,
      "t": 436433.66832500155,
      "d": 132.74337500002002,
      "v": 69
    },
    {
      "midi": 52,
      "hit": false,
      "t": 436442.5178833349,
      "d": 123.8938166666776,
      "v": 64
    },
    {
      "midi": 52,
      "hit": false,
      "t": 436929.24359166826,
      "d": 159.2920499999891,
      "v": 69
    },
    {
      "midi": 45,
      "hit": false,
      "t": 436929.24359166826,
      "d": 185.8407250000164,
      "v": 69
    },
    {
      "midi": 59,
      "hit": false,
      "t": 436964.64182500105,
      "d": 141.59293333336245,
      "v": 79
    },
    {
      "midi": 68,
      "hit": false,
      "t": 437584.11090833496,
      "d": 973.4514166666777,
      "v": 85
    },
    {
      "midi": 78,
      "hit": false,
      "t": 438044.2879416677,
      "d": 123.8938166666776,
      "v": 74
    },
    {
      "midi": 74,
      "hit": false,
      "t": 438044.2879416677,
      "d": 336.28321666666307,
      "v": 69
    },
    {
      "midi": 80,
      "hit": false,
      "t": 438168.1817583344,
      "d": 274.33630833332427,
      "v": 64
    },
    {
      "midi": 78,
      "hit": false,
      "t": 438371.72160000104,
      "d": 132.74337500002002,
      "v": 69
    },
    {
      "midi": 76,
      "hit": false,
      "t": 438575.26144166774,
      "d": 123.8938166666776,
      "v": 85
    },
    {
      "midi": 73,
      "hit": false,
      "t": 438592.9605583344,
      "d": 106.19469999999274,
      "v": 79
    },
    {
      "midi": 69,
      "hit": false,
      "t": 438654.9074666683,
      "d": 159.2920499999891,
      "v": 79
    },
    {
      "midi": 73,
      "hit": false,
      "t": 439097.3853833344,
      "d": 132.74337500002002,
      "v": 85
    },
    {
      "midi": 76,
      "hit": false,
      "t": 439106.23494166776,
      "d": 115.04425833333516,
      "v": 74
    },
    {
      "midi": 69,
      "hit": false,
      "t": 439132.78361666825,
      "d": 141.59293333330425,
      "v": 74
    },
    {
      "midi": 73,
      "hit": false,
      "t": 439637.2084416678,
      "d": 1663.7169666666305,
      "v": 91
    },
    {
      "midi": 76,
      "hit": false,
      "t": 439646.0580000011,
      "d": 1619.4691749999765,
      "v": 85
    },
    {
      "midi": 69,
      "hit": false,
      "t": 439646.05800000153,
      "d": 2318.58428333333,
      "v": 79
    },
    {
      "midi": 60,
      "hit": false,
      "t": 441787.6511166677,
      "d": 601.7699666667031,
      "v": 39
    },
    {
      "midi": 64,
      "hit": false,
      "t": 441796.50067500107,
      "d": 610.6195250000455,
      "v": 44
    },
    {
      "midi": 56,
      "hit": false,
      "t": 441893.8458166682,
      "d": 1053.0974416666431,
      "v": 61
    },
    {
      "midi": 68,
      "hit": false,
      "t": 442911.5450250015,
      "d": 132.74337499996182,
      "v": 55
    },
    {
      "midi": 76,
      "hit": false,
      "t": 442920.39458333445,
      "d": 168.14160833333153,
      "v": 44
    },
    {
      "midi": 72,
      "hit": false,
      "t": 442929.2441416678,
      "d": 141.59293333330425,
      "v": 44
    },
    {
      "midi": 72,
      "hit": false,
      "t": 443398.2707333345,
      "d": 141.59293333336245,
      "v": 39
    },
    {
      "midi": 76,
      "hit": false,
      "t": 443407.1202916678,
      "d": 141.59293333336245,
      "v": 39
    },
    {
      "midi": 68,
      "hit": false,
      "t": 443407.12029166817,
      "d": 123.8938166666776,
      "v": 55
    },
    {
      "midi": 72,
      "hit": false,
      "t": 443929.2442333345,
      "d": 513.274383333337,
      "v": 44
    },
    {
      "midi": 76,
      "hit": false,
      "t": 443946.9433500012,
      "d": 513.274383333337,
      "v": 39
    },
    {
      "midi": 68,
      "hit": false,
      "t": 443946.94335000153,
      "d": 1230.088608333317,
      "v": 55
    },
    {
      "midi": 76,
      "hit": false,
      "t": 444946.9434416678,
      "d": 176.99116666667396,
      "v": 39
    },
    {
      "midi": 72,
      "hit": false,
      "t": 444955.79300000117,
      "d": 203.53984166664304,
      "v": 30
    },
    {
      "midi": 72,
      "hit": false,
      "t": 445477.9169416678,
      "d": 115.04425833333516,
      "v": 30
    },
    {
      "midi": 76,
      "hit": false,
      "t": 445477.9169416678,
      "d": 115.04425833333516,
      "v": 39
    },
    {
      "midi": 77,
      "hit": false,
      "t": 445477.9169416678,
      "d": 141.59293333336245,
      "v": 44
    },
    {
      "midi": 79,
      "hit": false,
      "t": 445973.4922083345,
      "d": 628.3186416667304,
      "v": 44
    },
    {
      "midi": 76,
      "hit": false,
      "t": 445991.1913250012,
      "d": 619.469083333388,
      "v": 44
    },
    {
      "midi": 72,
      "hit": false,
      "t": 445991.1913250012,
      "d": 628.3186416667304,
      "v": 34
    },
    {
      "midi": 43,
      "hit": false,
      "t": 445991.19132500154,
      "d": 318.5840999999782,
      "v": 44
    },
    {
      "midi": 52,
      "hit": false,
      "t": 445991.19132500154,
      "d": 336.28321666666307,
      "v": 49
    },
    {
      "midi": 55,
      "hit": false,
      "t": 446256.6780750015,
      "d": 309.734541666694,
      "v": 39
    },
    {
      "midi": 60,
      "hit": false,
      "t": 446504.4657083349,
      "d": 283.1858666667249,
      "v": 44
    },
    {
      "midi": 81,
      "hit": false,
      "t": 446522.1648250012,
      "d": 221.2389583333861,
      "v": 44
    },
    {
      "midi": 64,
      "hit": false,
      "t": 446761.10290000157,
      "d": 176.99116666667396,
      "v": 44
    },
    {
      "midi": 76,
      "hit": false,
      "t": 447017.7400916679,
      "d": 176.99116666667396,
      "v": 44
    },
    {
      "midi": 72,
      "hit": false,
      "t": 447026.58965000126,
      "d": 168.14160833333153,
      "v": 34
    },
    {
      "midi": 77,
      "hit": false,
      "t": 447539.8640333346,
      "d": 159.2920500000473,
      "v": 44
    },
    {
      "midi": 76,
      "hit": false,
      "t": 447548.71359166794,
      "d": 132.74337500002002,
      "v": 39
    },
    {
      "midi": 72,
      "hit": false,
      "t": 447548.71359166794,
      "d": 159.2920500000473,
      "v": 39
    },
    {
      "midi": 77,
      "hit": false,
      "t": 448070.8375333347,
      "d": 654.8673166666995,
      "v": 49
    },
    {
      "midi": 79,
      "hit": false,
      "t": 448070.8375333347,
      "d": 681.4159916667268,
      "v": 44
    },
    {
      "midi": 71,
      "hit": false,
      "t": 448070.8375333347,
      "d": 716.8142250000383,
      "v": 44
    },
    {
      "midi": 43,
      "hit": false,
      "t": 448123.9348833349,
      "d": 371.6814499999746,
      "v": 49
    },
    {
      "midi": 50,
      "hit": false,
      "t": 448123.9348833349,
      "d": 371.6814499999746,
      "v": 49
    },
    {
      "midi": 55,
      "hit": false,
      "t": 448380.57207500155,
      "d": 362.83189166669035,
      "v": 34
    },
    {
      "midi": 81,
      "hit": false,
      "t": 448654.9083833347,
      "d": 132.74337500002002,
      "v": 55
    },
    {
      "midi": 59,
      "hit": false,
      "t": 448663.7579416682,
      "d": 256.6371916666976,
      "v": 39
    },
    {
      "midi": 62,
      "hit": false,
      "t": 448902.6960166682,
      "d": 176.99116666667396,
      "v": 44
    },
    {
      "midi": 76,
      "hit": false,
      "t": 449185.8818833347,
      "d": 300.88498333335156,
      "v": 49
    },
    {
      "midi": 67,
      "hit": false,
      "t": 449203.5810000014,
      "d": 203.53984166664304,
      "v": 44
    },
    {
      "midi": 71,
      "hit": false,
      "t": 449203.5810000014,
      "d": 221.2389583333279,
      "v": 49
    },
    {
      "midi": 67,
      "hit": false,
      "t": 449725.7049416681,
      "d": 115.04425833333516,
      "v": 44
    },
    {
      "midi": 71,
      "hit": false,
      "t": 449725.7049416681,
      "d": 123.8938166666776,
      "v": 55
    },
    {
      "midi": 74,
      "hit": false,
      "t": 449725.7049416681,
      "d": 159.2920499999891,
      "v": 49
    },
    {
      "midi": 74,
      "hit": false,
      "t": 450283.2271166681,
      "d": 601.7699666666449,
      "v": 64
    },
    {
      "midi": 64,
      "hit": false,
      "t": 450283.2271166681,
      "d": 743.3628999999491,
      "v": 64
    },
    {
      "midi": 43,
      "hit": false,
      "t": 450292.0766750016,
      "d": 1053.0974416667013,
      "v": 57
    },
    {
      "midi": 36,
      "hit": false,
      "t": 450300.92623333493,
      "d": 1053.0974416667013,
      "v": 57
    },
    {
      "midi": 72,
      "hit": false,
      "t": 450831.8997333347,
      "d": 221.2389583333279,
      "v": 60
    },
    {
      "midi": 64,
      "hit": false,
      "t": 451345.17411666806,
      "d": 132.74337500002002,
      "v": 57
    },
    {
      "midi": 72,
      "hit": false,
      "t": 451345.17411666806,
      "d": 159.2920500000473,
      "v": 57
    },
    {
      "midi": 55,
      "hit": false,
      "t": 451345.1741166683,
      "d": 176.99116666667396,
      "v": 60
    },
    {
      "midi": 48,
      "hit": false,
      "t": 451354.02367500163,
      "d": 150.44249166664667,
      "v": 57
    },
    {
      "midi": 64,
      "hit": false,
      "t": 451840.74938333477,
      "d": 88.49558333330788,
      "v": 64
    },
    {
      "midi": 72,
      "hit": false,
      "t": 451840.74938333477,
      "d": 115.04425833333516,
      "v": 64
    },
    {
      "midi": 55,
      "hit": false,
      "t": 451840.74938333494,
      "d": 132.74337500002002,
      "v": 57
    },
    {
      "midi": 48,
      "hit": false,
      "t": 451849.5989416683,
      "d": 150.44249166670488,
      "v": 54
    },
    {
      "midi": 72,
      "hit": false,
      "t": 452362.87332500145,
      "d": 867.256716666685,
      "v": 60
    },
    {
      "midi": 64,
      "hit": false,
      "t": 452380.57244166813,
      "d": 831.8584833333152,
      "v": 57
    },
    {
      "midi": 55,
      "hit": false,
      "t": 452380.5724416683,
      "d": 637.1682000000146,
      "v": 60
    },
    {
      "midi": 48,
      "hit": false,
      "t": 452389.42200000165,
      "d": 575.2212916666758,
      "v": 57
    },
    {
      "midi": 48,
      "hit": false,
      "t": 453486.767233335,
      "d": 176.99116666667396,
      "v": 73
    },
    {
      "midi": 55,
      "hit": false,
      "t": 453486.767233335,
      "d": 176.99116666667396,
      "v": 73
    },
    {
      "midi": 55,
      "hit": false,
      "t": 453982.34250000166,
      "d": 132.74337500002002,
      "v": 68
    },
    {
      "midi": 48,
      "hit": false,
      "t": 453982.34250000166,
      "d": 141.59293333336245,
      "v": 73
    },
    {
      "midi": 55,
      "hit": false,
      "t": 454495.616883335,
      "d": 902.6549499999965,
      "v": 73
    },
    {
      "midi": 48,
      "hit": false,
      "t": 454495.616883335,
      "d": 911.5045083333389,
      "v": 73
    },
    {
      "midi": 67,
      "hit": false,
      "t": 454539.8646750015,
      "d": 761.0620166666922,
      "v": 99
    },
    {
      "midi": 64,
      "hit": false,
      "t": 454548.7142333348,
      "d": 203.53984166670125,
      "v": 91
    },
    {
      "midi": 62,
      "hit": false,
      "t": 454743.4045166682,
      "d": 283.1858666666667,
      "v": 79
    },
    {
      "midi": 64,
      "hit": false,
      "t": 455017.7408250015,
      "d": 247.7876333333552,
      "v": 74
    },
    {
      "midi": 60,
      "hit": false,
      "t": 455247.82934166817,
      "d": 159.2920499999891,
      "v": 79
    },
    {
      "midi": 65,
      "hit": false,
      "t": 455513.31609166815,
      "d": 592.9204083333607,
      "v": 99
    },
    {
      "midi": 69,
      "hit": false,
      "t": 455513.31609166815,
      "d": 619.469083333388,
      "v": 99
    },
    {
      "midi": 55,
      "hit": false,
      "t": 455637.209908335,
      "d": 123.8938166666776,
      "v": 85
    },
    {
      "midi": 48,
      "hit": false,
      "t": 455637.209908335,
      "d": 132.74337500002002,
      "v": 91
    },
    {
      "midi": 48,
      "hit": false,
      "t": 456061.98870833503,
      "d": 194.69028333335882,
      "v": 91
    },
    {
      "midi": 55,
      "hit": false,
      "t": 456070.8382666684,
      "d": 185.8407250000164,
      "v": 85
    },
    {
      "midi": 62,
      "hit": false,
      "t": 456079.6878250015,
      "d": 247.7876333334134,
      "v": 85
    },
    {
      "midi": 64,
      "hit": false,
      "t": 456610.66132500157,
      "d": 203.53984166664304,
      "v": 91
    },
    {
      "midi": 67,
      "hit": false,
      "t": 456610.66132500157,
      "d": 769.9115750000929,
      "v": 91
    },
    {
      "midi": 55,
      "hit": false,
      "t": 456619.5108833351,
      "d": 743.3629000000074,
      "v": 91
    },
    {
      "midi": 48,
      "hit": false,
      "t": 456619.5108833351,
      "d": 761.0620166666922,
      "v": 99
    },
    {
      "midi": 62,
      "hit": false,
      "t": 456831.9002833349,
      "d": 238.93807500001276,
      "v": 79
    },
    {
      "midi": 64,
      "hit": false,
      "t": 457097.38703333493,
      "d": 265.48675000004005,
      "v": 69
    },
    {
      "midi": 60,
      "hit": false,
      "t": 457345.1746666683,
      "d": 185.8407250000164,
      "v": 69
    },
    {
      "midi": 65,
      "hit": false,
      "t": 457637.2100916683,
      "d": 610.6195249999873,
      "v": 99
    },
    {
      "midi": 69,
      "hit": false,
      "t": 457637.2100916683,
      "d": 619.4690833333298,
      "v": 91
    },
    {
      "midi": 48,
      "hit": false,
      "t": 457699.15700000175,
      "d": 168.14160833333153,
      "v": 91
    },
    {
      "midi": 55,
      "hit": false,
      "t": 457699.15700000175,
      "d": 168.14160833333153,
      "v": 91
    },
    {
      "midi": 62,
      "hit": false,
      "t": 458185.88270833495,
      "d": 168.14160833333153,
      "v": 91
    },
    {
      "midi": 55,
      "hit": false,
      "t": 458194.7322666684,
      "d": 309.734541666694,
      "v": 91
    },
    {
      "midi": 48,
      "hit": false,
      "t": 458194.7322666684,
      "d": 318.5841000000364,
      "v": 99
    },
    {
      "midi": 81,
      "hit": false,
      "t": 459274.37838333496,
      "d": 159.2920499999891,
      "v": 79
    },
    {
      "midi": 77,
      "hit": false,
      "t": 459274.37838333496,
      "d": 353.9823333333479,
      "v": 74
    },
    {
      "midi": 71,
      "hit": false,
      "t": 459371.7235250018,
      "d": 601.7699666666449,
      "v": 79
    },
    {
      "midi": 83,
      "hit": false,
      "t": 459442.5199916683,
      "d": 247.7876333333552,
      "v": 54
    },
    {
      "midi": 81,
      "hit": false,
      "t": 459628.3607166683,
      "d": 230.08851666667033,
      "v": 69
    },
    {
      "midi": 76,
      "hit": false,
      "t": 459778.80320833495,
      "d": 159.2920500000473,
      "v": 79
    },
    {
      "midi": 79,
      "hit": false,
      "t": 459787.6527666683,
      "d": 132.74337500002002,
      "v": 79
    },
    {
      "midi": 72,
      "hit": false,
      "t": 459867.29879166844,
      "d": 212.38939999998547,
      "v": 74
    },
    {
      "midi": 79,
      "hit": false,
      "t": 460318.6262666683,
      "d": 79.64602500002366,
      "v": 79
    },
    {
      "midi": 76,
      "hit": false,
      "t": 460318.6262666683,
      "d": 88.49558333336608,
      "v": 85
    },
    {
      "midi": 72,
      "hit": false,
      "t": 460424.8209666684,
      "d": 150.44249166664667,
      "v": 74
    },
    {
      "midi": 79,
      "hit": false,
      "t": 460858.4493250017,
      "d": 2008.8497416666942,
      "v": 85
    },
    {
      "midi": 76,
      "hit": false,
      "t": 460858.4493250017,
      "d": 2026.548858333379,
      "v": 79
    },
    {
      "midi": 72,
      "hit": false,
      "t": 460955.7944666684,
      "d": 2061.9470916666905,
      "v": 85
    },
    {
      "midi": 67,
      "hit": false,
      "t": 462946.9450916684,
      "d": 1115.0443500000401,
      "v": 64
    },
    {
      "midi": 63,
      "hit": false,
      "t": 462964.6442083351,
      "d": 1097.3452333333553,
      "v": 74
    },
    {
      "midi": 59,
      "hit": false,
      "t": 463070.8389083351,
      "d": 1017.6992083333316,
      "v": 46
    },
    {
      "midi": 75,
      "hit": false,
      "t": 464061.98944166844,
      "d": 150.44249166664667,
      "v": 46
    },
    {
      "midi": 79,
      "hit": false,
      "t": 464070.8390000018,
      "d": 141.59293333330425,
      "v": 40
    },
    {
      "midi": 71,
      "hit": false,
      "t": 464088.5381166684,
      "d": 159.2920499999891,
      "v": 43
    },
    {
      "midi": 79,
      "hit": false,
      "t": 464557.5647083351,
      "d": 141.59293333330425,
      "v": 40
    },
    {
      "midi": 75,
      "hit": false,
      "t": 464557.5647083351,
      "d": 150.44249166664667,
      "v": 46
    },
    {
      "midi": 71,
      "hit": false,
      "t": 464584.11338333506,
      "d": 185.8407250000164,
      "v": 46
    },
    {
      "midi": 79,
      "hit": false,
      "t": 465097.3877666684,
      "d": 601.7699666666449,
      "v": 46
    },
    {
      "midi": 75,
      "hit": false,
      "t": 465097.3877666684,
      "d": 628.3186416666722,
      "v": 46
    },
    {
      "midi": 71,
      "hit": false,
      "t": 465097.3877666684,
      "d": 1168.1416999999783,
      "v": 49
    },
    {
      "midi": 79,
      "hit": false,
      "t": 466141.63565000176,
      "d": 221.2389583333861,
      "v": 46
    },
    {
      "midi": 75,
      "hit": false,
      "t": 466150.4852083351,
      "d": 185.8407250000164,
      "v": 46
    },
    {
      "midi": 80,
      "hit": false,
      "t": 466681.4587083351,
      "d": 168.14160833333153,
      "v": 46
    },
    {
      "midi": 75,
      "hit": false,
      "t": 466690.30826666846,
      "d": 159.2920499999891,
      "v": 46
    },
    {
      "midi": 79,
      "hit": false,
      "t": 466699.1578250018,
      "d": 141.59293333330425,
      "v": 40
    },
    {
      "midi": 55,
      "hit": false,
      "t": 467221.28176666837,
      "d": 327.43365833332064,
      "v": 49
    },
    {
      "midi": 82,
      "hit": false,
      "t": 467221.2817666684,
      "d": 415.9292416666867,
      "v": 49
    },
    {
      "midi": 75,
      "hit": false,
      "t": 467238.9808833351,
      "d": 575.221291666734,
      "v": 46
    },
    {
      "midi": 79,
      "hit": false,
      "t": 467247.83044166846,
      "d": 513.274383333337,
      "v": 37
    },
    {
      "midi": 46,
      "hit": false,
      "t": 467256.6800000017,
      "d": 300.88498333335156,
      "v": 55
    },
    {
      "midi": 58,
      "hit": false,
      "t": 467451.37028333504,
      "d": 336.28321666666307,
      "v": 44
    },
    {
      "midi": 63,
      "hit": false,
      "t": 467725.70659166836,
      "d": 212.38939999998547,
      "v": 49
    },
    {
      "midi": 84,
      "hit": false,
      "t": 467787.6535000018,
      "d": 230.08851666667033,
      "v": 44
    },
    {
      "midi": 67,
      "hit": false,
      "t": 467955.79510833503,
      "d": 185.8407250000164,
      "v": 39
    },
    {
      "midi": 75,
      "hit": false,
      "t": 468265.52965000184,
      "d": 159.2920499999891,
      "v": 49
    },
    {
      "midi": 79,
      "hit": false,
      "t": 468274.3792083352,
      "d": 176.99116666667396,
      "v": 44
    },
    {
      "midi": 80,
      "hit": false,
      "t": 468761.10491666856,
      "d": 168.14160833338974,
      "v": 55
    },
    {
      "midi": 75,
      "hit": false,
      "t": 468787.6535916686,
      "d": 132.74337500002002,
      "v": 39
    },
    {
      "midi": 80,
      "hit": false,
      "t": 469265.5297416686,
      "d": 619.4690833333298,
      "v": 49
    },
    {
      "midi": 82,
      "hit": false,
      "t": 469283.2288583353,
      "d": 610.6195249999873,
      "v": 49
    },
    {
      "midi": 74,
      "hit": false,
      "t": 469283.2288583353,
      "d": 628.3186416666722,
      "v": 44
    },
    {
      "midi": 46,
      "hit": false,
      "t": 469362.874883335,
      "d": 300.88498333329335,
      "v": 49
    },
    {
      "midi": 53,
      "hit": false,
      "t": 469362.874883335,
      "d": 300.88498333329335,
      "v": 44
    },
    {
      "midi": 58,
      "hit": false,
      "t": 469575.264283335,
      "d": 353.9823333332897,
      "v": 44
    },
    {
      "midi": 84,
      "hit": false,
      "t": 469849.6005916686,
      "d": 106.19469999999274,
      "v": 55
    },
    {
      "midi": 62,
      "hit": false,
      "t": 469876.1492666683,
      "d": 221.2389583333279,
      "v": 27
    },
    {
      "midi": 68,
      "hit": false,
      "t": 470123.93690000166,
      "d": 132.74337500002002,
      "v": 61
    },
    {
      "midi": 79,
      "hit": false,
      "t": 470380.5740916686,
      "d": 460.17703333334066,
      "v": 44
    },
    {
      "midi": 70,
      "hit": false,
      "t": 470380.5740916686,
      "d": 522.1239416666795,
      "v": 49
    },
    {
      "midi": 74,
      "hit": false,
      "t": 470389.42365000193,
      "d": 477.8761500000255,
      "v": 49
    },
    {
      "midi": 77,
      "hit": false,
      "t": 470946.9458250019,
      "d": 150.44249166664667,
      "v": 44
    },
    {
      "midi": 77,
      "hit": false,
      "t": 471477.9193250019,
      "d": 646.017758333357,
      "v": 55
    },
    {
      "midi": 67,
      "hit": false,
      "t": 471504.4680000019,
      "d": 646.017758333357,
      "v": 55
    },
    {
      "midi": 39,
      "hit": false,
      "t": 471566.414908335,
      "d": 530.9735000000219,
      "v": 61
    },
    {
      "midi": 46,
      "hit": false,
      "t": 471566.414908335,
      "d": 539.8230583333643,
      "v": 61
    },
    {
      "midi": 75,
      "hit": false,
      "t": 472070.83973333525,
      "d": 115.04425833333516,
      "v": 49
    },
    {
      "midi": 58,
      "hit": false,
      "t": 472610.6627916684,
      "d": 176.99116666667396,
      "v": 55
    },
    {
      "midi": 51,
      "hit": false,
      "t": 472619.5123500017,
      "d": 168.14160833333153,
      "v": 55
    },
    {
      "midi": 75,
      "hit": false,
      "t": 472628.36190833524,
      "d": 150.44249166664667,
      "v": 55
    },
    {
      "midi": 67,
      "hit": false,
      "t": 472628.36190833524,
      "d": 159.2920499999891,
      "v": 39
    },
    {
      "midi": 75,
      "hit": false,
      "t": 473097.3885000019,
      "d": 159.2920500000473,
      "v": 49
    },
    {
      "midi": 58,
      "hit": false,
      "t": 473106.23805833503,
      "d": 141.59293333336245,
      "v": 49
    },
    {
      "midi": 51,
      "hit": false,
      "t": 473115.0876166684,
      "d": 150.44249166670488,
      "v": 55
    },
    {
      "midi": 67,
      "hit": false,
      "t": 473115.0876166686,
      "d": 123.8938166666776,
      "v": 39
    },
    {
      "midi": 58,
      "hit": false,
      "t": 473601.81332500174,
      "d": 398.23012500000186,
      "v": 55
    },
    {
      "midi": 51,
      "hit": false,
      "t": 473619.5124416684,
      "d": 451.32747499999823,
      "v": 49
    },
    {
      "midi": 75,
      "hit": false,
      "t": 473646.0611166686,
      "d": 300.88498333335156,
      "v": 61
    },
    {
      "midi": 67,
      "hit": false,
      "t": 473663.7602333353,
      "d": 318.5840999999782,
      "v": 44
    },
    {
      "midi": 46,
      "hit": false,
      "t": 474690.30900000175,
      "d": 176.99116666667396,
      "v": 55
    },
    {
      "midi": 51,
      "hit": false,
      "t": 474690.30900000175,
      "d": 185.8407250000164,
      "v": 55
    },
    {
      "midi": 55,
      "hit": false,
      "t": 474955.79575000197,
      "d": 141.59293333330425,
      "v": 44
    },
    {
      "midi": 61,
      "hit": false,
      "t": 474955.79575000197,
      "d": 150.44249166664667,
      "v": 61
    },
    {
      "midi": 39,
      "hit": false,
      "t": 475221.2825000018,
      "d": 185.8407250000164,
      "v": 55
    },
    {
      "midi": 55,
      "hit": false,
      "t": 475486.76925000193,
      "d": 115.04425833333516,
      "v": 44
    },
    {
      "midi": 61,
      "hit": false,
      "t": 475486.76925000193,
      "d": 132.74337500002002,
      "v": 61
    },
    {
      "midi": 63,
      "hit": false,
      "t": 475486.76925000193,
      "d": 168.14160833333153,
      "v": 61
    },
    {
      "midi": 46,
      "hit": false,
      "t": 475752.2560000018,
      "d": 212.38939999998547,
      "v": 49
    },
    {
      "midi": 51,
      "hit": false,
      "t": 475752.2560000018,
      "d": 212.38939999998547,
      "v": 55
    },
    {
      "midi": 55,
      "hit": false,
      "t": 476017.74275000195,
      "d": 150.44249166664667,
      "v": 39
    },
    {
      "midi": 61,
      "hit": false,
      "t": 476017.74275000195,
      "d": 168.14160833333153,
      "v": 55
    },
    {
      "midi": 65,
      "hit": false,
      "t": 476017.74275000195,
      "d": 168.14160833333153,
      "v": 49
    },
    {
      "midi": 39,
      "hit": false,
      "t": 476283.22950000176,
      "d": 194.69028333335882,
      "v": 55
    },
    {
      "midi": 55,
      "hit": false,
      "t": 476548.716250002,
      "d": 115.04425833333516,
      "v": 49
    },
    {
      "midi": 61,
      "hit": false,
      "t": 476548.716250002,
      "d": 150.44249166664667,
      "v": 61
    },
    {
      "midi": 67,
      "hit": false,
      "t": 476548.716250002,
      "d": 168.14160833333153,
      "v": 55
    },
    {
      "midi": 46,
      "hit": false,
      "t": 476814.2030000018,
      "d": 194.69028333335882,
      "v": 44
    },
    {
      "midi": 51,
      "hit": false,
      "t": 476814.2030000018,
      "d": 230.08851666667033,
      "v": 49
    },
    {
      "midi": 55,
      "hit": false,
      "t": 477079.689750002,
      "d": 141.59293333330425,
      "v": 44
    },
    {
      "midi": 61,
      "hit": false,
      "t": 477079.689750002,
      "d": 159.2920499999891,
      "v": 61
    },
    {
      "midi": 39,
      "hit": false,
      "t": 477345.1765000018,
      "d": 203.53984166664304,
      "v": 61
    },
    {
      "midi": 55,
      "hit": false,
      "t": 477610.66325000196,
      "d": 150.44249166664667,
      "v": 49
    },
    {
      "midi": 63,
      "hit": false,
      "t": 477610.66325000196,
      "d": 176.99116666667396,
      "v": 61
    },
    {
      "midi": 51,
      "hit": false,
      "t": 477876.15000000177,
      "d": 238.93807500001276,
      "v": 55
    },
    {
      "midi": 46,
      "hit": false,
      "t": 477876.15000000177,
      "d": 247.7876333333552,
      "v": 55
    },
    {
      "midi": 61,
      "hit": false,
      "t": 478141.636750002,
      "d": 106.19469999999274,
      "v": 55
    },
    {
      "midi": 55,
      "hit": false,
      "t": 478141.636750002,
      "d": 115.04425833333516,
      "v": 44
    },
    {
      "midi": 65,
      "hit": false,
      "t": 478141.636750002,
      "d": 185.8407250000164,
      "v": 55
    },
    {
      "midi": 39,
      "hit": false,
      "t": 478407.1235000018,
      "d": 203.53984166664304,
      "v": 61
    },
    {
      "midi": 55,
      "hit": false,
      "t": 478672.610250002,
      "d": 132.74337500002002,
      "v": 34
    },
    {
      "midi": 61,
      "hit": false,
      "t": 478672.610250002,
      "d": 132.74337500002002,
      "v": 49
    },
    {
      "midi": 67,
      "hit": false,
      "t": 478672.610250002,
      "d": 150.44249166670488,
      "v": 44
    },
    {
      "midi": 51,
      "hit": false,
      "t": 478938.09700000176,
      "d": 203.53984166664304,
      "v": 49
    },
    {
      "midi": 46,
      "hit": false,
      "t": 478938.09700000176,
      "d": 230.08851666667033,
      "v": 55
    },
    {
      "midi": 55,
      "hit": false,
      "t": 479203.583750002,
      "d": 168.14160833333153,
      "v": 44
    },
    {
      "midi": 61,
      "hit": false,
      "t": 479203.583750002,
      "d": 168.14160833333153,
      "v": 61
    },
    {
      "midi": 39,
      "hit": false,
      "t": 479469.0705000018,
      "d": 185.8407250000164,
      "v": 55
    },
    {
      "midi": 61,
      "hit": false,
      "t": 479734.55725000205,
      "d": 123.8938166666776,
      "v": 44
    },
    {
      "midi": 55,
      "hit": false,
      "t": 479734.55725000205,
      "d": 141.59293333336245,
      "v": 44
    },
    {
      "midi": 63,
      "hit": false,
      "t": 479734.55725000205,
      "d": 176.99116666667396,
      "v": 61
    },
    {
      "midi": 46,
      "hit": false,
      "t": 480000.0440000018,
      "d": 221.2389583333279,
      "v": 55
    },
    {
      "midi": 51,
      "hit": false,
      "t": 480000.0440000018,
      "d": 230.08851666667033,
      "v": 49
    },
    {
      "midi": 55,
      "hit": false,
      "t": 480265.5307500021,
      "d": 123.8938166666776,
      "v": 49
    },
    {
      "midi": 61,
      "hit": false,
      "t": 480265.5307500021,
      "d": 176.99116666667396,
      "v": 55
    },
    {
      "midi": 65,
      "hit": false,
      "t": 480265.5307500021,
      "d": 176.99116666667396,
      "v": 55
    },
    {
      "midi": 39,
      "hit": false,
      "t": 480531.0175000018,
      "d": 185.8407250000164,
      "v": 61
    },
    {
      "midi": 68,
      "hit": false,
      "t": 480796.5042500021,
      "d": 203.53984166664304,
      "v": 61
    },
    {
      "midi": 46,
      "hit": false,
      "t": 481061.99100000184,
      "d": 230.08851666667033,
      "v": 49
    },
    {
      "midi": 51,
      "hit": false,
      "t": 481061.99100000184,
      "d": 247.7876333333552,
      "v": 49
    },
    {
      "midi": 53,
      "hit": false,
      "t": 481327.47775000206,
      "d": 53.09734999999637,
      "v": 18
    },
    {
      "midi": 61,
      "hit": false,
      "t": 481327.47775000206,
      "d": 265.48674999998184,
      "v": 55
    },
    {
      "midi": 67,
      "hit": false,
      "t": 481327.47775000206,
      "d": 274.33630833332427,
      "v": 55
    },
    {
      "midi": 39,
      "hit": false,
      "t": 481592.96450000186,
      "d": 176.99116666667396,
      "v": 61
    },
    {
      "midi": 61,
      "hit": false,
      "t": 481858.451250002,
      "d": 194.69028333335882,
      "v": 49
    },
    {
      "midi": 55,
      "hit": false,
      "t": 481858.451250002,
      "d": 203.53984166670125,
      "v": 39
    },
    {
      "midi": 63,
      "hit": false,
      "t": 481858.451250002,
      "d": 212.38940000004368,
      "v": 61
    },
    {
      "midi": 46,
      "hit": false,
      "t": 482123.9380000019,
      "d": 230.08851666667033,
      "v": 55
    },
    {
      "midi": 51,
      "hit": false,
      "t": 482123.9380000019,
      "d": 256.6371916666976,
      "v": 55
    },
    {
      "midi": 55,
      "hit": false,
      "t": 482389.42475000204,
      "d": 194.69028333335882,
      "v": 49
    },
    {
      "midi": 61,
      "hit": false,
      "t": 482389.42475000204,
      "d": 194.69028333335882,
      "v": 55
    },
    {
      "midi": 65,
      "hit": false,
      "t": 482389.42475000204,
      "d": 212.38940000004368,
      "v": 55
    },
    {
      "midi": 39,
      "hit": false,
      "t": 482654.9115000019,
      "d": 159.2920499999891,
      "v": 61
    },
    {
      "midi": 55,
      "hit": false,
      "t": 482920.39825000206,
      "d": 150.44249166664667,
      "v": 49
    },
    {
      "midi": 61,
      "hit": false,
      "t": 482920.39825000206,
      "d": 212.38939999998547,
      "v": 61
    },
    {
      "midi": 48,
      "hit": false,
      "t": 483185.8850000019,
      "d": 221.2389583333279,
      "v": 44
    },
    {
      "midi": 51,
      "hit": false,
      "t": 483185.8850000019,
      "d": 274.33630833332427,
      "v": 55
    },
    {
      "midi": 56,
      "hit": false,
      "t": 483451.371750002,
      "d": 176.99116666667396,
      "v": 61
    },
    {
      "midi": 63,
      "hit": false,
      "t": 483451.371750002,
      "d": 176.99116666667396,
      "v": 55
    },
    {
      "midi": 39,
      "hit": false,
      "t": 483716.85850000184,
      "d": 168.14160833333153,
      "v": 55
    },
    {
      "midi": 56,
      "hit": false,
      "t": 483982.34525000205,
      "d": 159.2920499999891,
      "v": 61
    },
    {
      "midi": 63,
      "hit": false,
      "t": 483982.34525000205,
      "d": 176.99116666667396,
      "v": 61
    },
    {
      "midi": 65,
      "hit": false,
      "t": 483982.34525000205,
      "d": 194.69028333335882,
      "v": 55
    },
    {
      "midi": 51,
      "hit": false,
      "t": 484247.83200000186,
      "d": 238.93807500001276,
      "v": 55
    },
    {
      "midi": 48,
      "hit": false,
      "t": 484247.83200000186,
      "d": 247.7876333333552,
      "v": 44
    },
    {
      "midi": 56,
      "hit": false,
      "t": 484513.3187500021,
      "d": 185.8407250000164,
      "v": 55
    },
    {
      "midi": 67,
      "hit": false,
      "t": 484513.3187500021,
      "d": 185.8407250000164,
      "v": 49
    },
    {
      "midi": 63,
      "hit": false,
      "t": 484513.3187500021,
      "d": 212.38940000004368,
      "v": 61
    },
    {
      "midi": 39,
      "hit": false,
      "t": 484778.8055000019,
      "d": 194.69028333335882,
      "v": 61
    },
    {
      "midi": 63,
      "hit": false,
      "t": 485044.2922500021,
      "d": 176.99116666667396,
      "v": 61
    },
    {
      "midi": 56,
      "hit": false,
      "t": 485044.2922500021,
      "d": 203.53984166670125,
      "v": 61
    },
    {
      "midi": 68,
      "hit": false,
      "t": 485044.2922500021,
      "d": 221.2389583333861,
      "v": 61
    },
    {
      "midi": 51,
      "hit": false,
      "t": 485309.7790000019,
      "d": 230.08851666667033,
      "v": 55
    },
    {
      "midi": 48,
      "hit": false,
      "t": 485309.7790000019,
      "d": 247.7876333333552,
      "v": 44
    },
    {
      "midi": 56,
      "hit": false,
      "t": 485575.2657500022,
      "d": 194.69028333335882,
      "v": 61
    },
    {
      "midi": 63,
      "hit": false,
      "t": 485575.2657500022,
      "d": 194.69028333335882,
      "v": 61
    },
    {
      "midi": 39,
      "hit": false,
      "t": 485840.7525000019,
      "d": 203.53984166664304,
      "v": 61
    },
    {
      "midi": 56,
      "hit": false,
      "t": 486106.2392500022,
      "d": 168.14160833333153,
      "v": 61
    },
    {
      "midi": 63,
      "hit": false,
      "t": 486106.2392500022,
      "d": 185.8407250000164,
      "v": 55
    },
    {
      "midi": 65,
      "hit": false,
      "t": 486106.2392500022,
      "d": 203.53984166670125,
      "v": 55
    },
    {
      "midi": 51,
      "hit": false,
      "t": 486371.7260000019,
      "d": 168.14160833333153,
      "v": 55
    },
    {
      "midi": 48,
      "hit": false,
      "t": 486371.7260000019,
      "d": 256.6371916666394,
      "v": 44
    },
    {
      "midi": 63,
      "hit": false,
      "t": 486637.2127500022,
      "d": 176.99116666667396,
      "v": 55
    },
    {
      "midi": 56,
      "hit": false,
      "t": 486637.2127500022,
      "d": 185.8407250000164,
      "v": 55
    },
    {
      "midi": 67,
      "hit": false,
      "t": 486637.2127500022,
      "d": 194.69028333335882,
      "v": 49
    },
    {
      "midi": 39,
      "hit": false,
      "t": 486902.69950000185,
      "d": 256.6371916666394,
      "v": 61
    },
    {
      "midi": 63,
      "hit": false,
      "t": 487168.18625000224,
      "d": 185.8407250000164,
      "v": 55
    },
    {
      "midi": 56,
      "hit": false,
      "t": 487168.18625000224,
      "d": 203.53984166670125,
      "v": 61
    },
    {
      "midi": 68,
      "hit": false,
      "t": 487168.18625000224,
      "d": 212.38940000004368,
      "v": 61
    },
    {
      "midi": 51,
      "hit": false,
      "t": 487433.6730000018,
      "d": 283.1858666666667,
      "v": 55
    },
    {
      "midi": 48,
      "hit": false,
      "t": 487433.6730000018,
      "d": 300.88498333335156,
      "v": 44
    },
    {
      "midi": 56,
      "hit": false,
      "t": 487699.15975000226,
      "d": 185.8407250000164,
      "v": 55
    },
    {
      "midi": 63,
      "hit": false,
      "t": 487699.15975000226,
      "d": 203.53984166670125,
      "v": 61
    },
    {
      "midi": 39,
      "hit": false,
      "t": 487964.64650000184,
      "d": 212.38939999998547,
      "v": 69
    },
    {
      "midi": 56,
      "hit": false,
      "t": 488230.1332500023,
      "d": 203.53984166664304,
      "v": 61
    },
    {
      "midi": 65,
      "hit": false,
      "t": 488230.1332500023,
      "d": 238.93807499995455,
      "v": 61
    },
    {
      "midi": 48,
      "hit": false,
      "t": 488495.6200000018,
      "d": 274.33630833332427,
      "v": 31
    },
    {
      "midi": 51,
      "hit": false,
      "t": 488495.6200000018,
      "d": 274.33630833332427,
      "v": 43
    },
    {
      "midi": 63,
      "hit": false,
      "t": 488761.10675000225,
      "d": 194.69028333335882,
      "v": 43
    },
    {
      "midi": 67,
      "hit": false,
      "t": 488761.10675000225,
      "d": 194.69028333335882,
      "v": 31
    },
    {
      "midi": 56,
      "hit": false,
      "t": 488761.10675000225,
      "d": 230.08851666667033,
      "v": 43
    },
    {
      "midi": 39,
      "hit": false,
      "t": 489026.59350000176,
      "d": 238.93807500001276,
      "v": 43
    },
    {
      "midi": 70,
      "hit": false,
      "t": 489292.08025000227,
      "d": 230.08851666667033,
      "v": 43
    },
    {
      "midi": 51,
      "hit": false,
      "t": 489557.5670000018,
      "d": 283.1858666666667,
      "v": 38
    },
    {
      "midi": 48,
      "hit": false,
      "t": 489557.5670000018,
      "d": 309.734541666694,
      "v": 31
    },
    {
      "midi": 56,
      "hit": false,
      "t": 489823.0537500023,
      "d": 221.2389583333279,
      "v": 43
    },
    {
      "midi": 63,
      "hit": false,
      "t": 489823.0537500023,
      "d": 230.08851666667033,
      "v": 43
    },
    {
      "midi": 68,
      "hit": false,
      "t": 489823.0537500023,
      "d": 238.93807500001276,
      "v": 48
    },
    {
      "midi": 39,
      "hit": false,
      "t": 490088.5405000018,
      "d": 212.38939999998547,
      "v": 43
    },
    {
      "midi": 63,
      "hit": false,
      "t": 490354.0272500023,
      "d": 194.69028333335882,
      "v": 43
    },
    {
      "midi": 56,
      "hit": false,
      "t": 490354.0272500023,
      "d": 212.38940000004368,
      "v": 43
    },
    {
      "midi": 65,
      "hit": false,
      "t": 490354.0272500023,
      "d": 238.93807500007097,
      "v": 38
    },
    {
      "midi": 51,
      "hit": false,
      "t": 490619.5140000018,
      "d": 221.2389583333279,
      "v": 43
    },
    {
      "midi": 48,
      "hit": false,
      "t": 490619.5140000018,
      "d": 265.48674999998184,
      "v": 31
    },
    {
      "midi": 63,
      "hit": false,
      "t": 490885.0007500024,
      "d": 212.38939999998547,
      "v": 43
    },
    {
      "midi": 67,
      "hit": false,
      "t": 490885.0007500024,
      "d": 221.2389583333279,
      "v": 34
    },
    {
      "midi": 56,
      "hit": false,
      "t": 490885.0007500024,
      "d": 247.7876333333552,
      "v": 43
    },
    {
      "midi": 39,
      "hit": false,
      "t": 491150.48750000173,
      "d": 238.93807500001276,
      "v": 38
    },
    {
      "midi": 56,
      "hit": false,
      "t": 491415.9742500024,
      "d": 132.74337500002002,
      "v": 43
    },
    {
      "midi": 63,
      "hit": false,
      "t": 491415.9742500024,
      "d": 159.2920500000473,
      "v": 38
    },
    {
      "midi": 54,
      "hit": false,
      "t": 491681.46100000176,
      "d": 318.5840999999782,
      "v": 48
    },
    {
      "midi": 44,
      "hit": false,
      "t": 491681.46100000176,
      "d": 389.38056666665943,
      "v": 43
    },
    {
      "midi": 66,
      "hit": false,
      "t": 491946.94775000244,
      "d": 194.69028333335882,
      "v": 48
    },
    {
      "midi": 60,
      "hit": false,
      "t": 491946.94775000244,
      "d": 212.38940000004368,
      "v": 34
    },
    {
      "midi": 39,
      "hit": false,
      "t": 492212.4345000017,
      "d": 221.2389583333279,
      "v": 43
    },
    {
      "midi": 68,
      "hit": false,
      "t": 492477.92125000246,
      "d": 185.8407250000164,
      "v": 43
    },
    {
      "midi": 66,
      "hit": false,
      "t": 492477.92125000246,
      "d": 203.53984166670125,
      "v": 48
    },
    {
      "midi": 60,
      "hit": false,
      "t": 492477.92125000246,
      "d": 212.38940000004368,
      "v": 38
    },
    {
      "midi": 44,
      "hit": false,
      "t": 492743.40800000174,
      "d": 353.9823333333479,
      "v": 69
    },
    {
      "midi": 54,
      "hit": false,
      "t": 492743.40800000174,
      "d": 380.5310083333752,
      "v": 77
    },
    {
      "midi": 70,
      "hit": false,
      "t": 493008.8947500025,
      "d": 185.8407250000164,
      "v": 62
    },
    {
      "midi": 66,
      "hit": false,
      "t": 493008.8947500025,
      "d": 194.69028333335882,
      "v": 77
    },
    {
      "midi": 60,
      "hit": false,
      "t": 493008.8947500025,
      "d": 230.08851666667033,
      "v": 55
    },
    {
      "midi": 39,
      "hit": false,
      "t": 493274.38150000176,
      "d": 309.734541666694,
      "v": 69
    },
    {
      "midi": 66,
      "hit": false,
      "t": 493539.8682500025,
      "d": 203.53984166664304,
      "v": 77
    },
    {
      "midi": 72,
      "hit": false,
      "t": 493539.8682500025,
      "d": 212.38939999998547,
      "v": 69
    },
    {
      "midi": 60,
      "hit": false,
      "t": 493539.8682500025,
      "d": 230.08851666667033,
      "v": 62
    },
    {
      "midi": 54,
      "hit": false,
      "t": 493805.3550000018,
      "d": 353.9823333333479,
      "v": 77
    },
    {
      "midi": 44,
      "hit": false,
      "t": 493805.3550000018,
      "d": 362.83189166669035,
      "v": 69
    },
    {
      "midi": 60,
      "hit": false,
      "t": 494070.8417500025,
      "d": 176.99116666667396,
      "v": 49
    },
    {
      "midi": 66,
      "hit": false,
      "t": 494070.8417500025,
      "d": 176.99116666667396,
      "v": 77
    },
    {
      "midi": 39,
      "hit": false,
      "t": 494336.3285000018,
      "d": 274.33630833332427,
      "v": 69
    },
    {
      "midi": 60,
      "hit": false,
      "t": 494601.81525000255,
      "d": 141.59293333330425,
      "v": 62
    },
    {
      "midi": 66,
      "hit": false,
      "t": 494601.81525000255,
      "d": 168.14160833333153,
      "v": 69
    },
    {
      "midi": 68,
      "hit": false,
      "t": 494601.81525000255,
      "d": 176.99116666667396,
      "v": 77
    },
    {
      "midi": 44,
      "hit": false,
      "t": 494867.3020000018,
      "d": 398.23012500000186,
      "v": 69
    },
    {
      "midi": 54,
      "hit": false,
      "t": 494867.3020000018,
      "d": 398.23012500000186,
      "v": 77
    },
    {
      "midi": 66,
      "hit": false,
      "t": 495132.78875000257,
      "d": 247.7876333333552,
      "v": 77
    },
    {
      "midi": 60,
      "hit": false,
      "t": 495132.78875000257,
      "d": 292.0354250000091,
      "v": 77
    },
    {
      "midi": 70,
      "hit": false,
      "t": 495132.78875000257,
      "d": 292.0354250000091,
      "v": 77
    },
    {
      "midi": 39,
      "hit": false,
      "t": 495398.2755000018,
      "d": 238.93807500001276,
      "v": 77
    },
    {
      "midi": 60,
      "hit": false,
      "t": 495663.7622500026,
      "d": 150.44249166664667,
      "v": 69
    },
    {
      "midi": 66,
      "hit": false,
      "t": 495663.7622500026,
      "d": 150.44249166664667,
      "v": 77
    },
    {
      "midi": 72,
      "hit": false,
      "t": 495663.7622500026,
      "d": 185.84072499995818,
      "v": 69
    },
    {
      "midi": 54,
      "hit": false,
      "t": 495929.2490000018,
      "d": 371.6814499999746,
      "v": 77
    },
    {
      "midi": 44,
      "hit": false,
      "t": 495929.2490000018,
      "d": 389.38056666665943,
      "v": 69
    },
    {
      "midi": 66,
      "hit": false,
      "t": 496194.73575000255,
      "d": 185.8407250000164,
      "v": 69
    },
    {
      "midi": 60,
      "hit": false,
      "t": 496194.73575000255,
      "d": 203.53984166670125,
      "v": 49
    },
    {
      "midi": 39,
      "hit": false,
      "t": 496460.2225000018,
      "d": 300.88498333335156,
      "v": 77
    },
    {
      "midi": 60,
      "hit": false,
      "t": 496725.7092500026,
      "d": 159.2920499999891,
      "v": 62
    },
    {
      "midi": 66,
      "hit": false,
      "t": 496725.7092500026,
      "d": 185.8407250000164,
      "v": 69
    },
    {
      "midi": 68,
      "hit": false,
      "t": 496725.7092500026,
      "d": 203.53984166670125,
      "v": 69
    },
    {
      "midi": 54,
      "hit": false,
      "t": 496991.1960000018,
      "d": 345.1327750000055,
      "v": 60
    },
    {
      "midi": 44,
      "hit": false,
      "t": 496991.1960000018,
      "d": 353.9823333333479,
      "v": 54
    },
    {
      "midi": 60,
      "hit": false,
      "t": 497256.6827500026,
      "d": 194.69028333335882,
      "v": 48
    },
    {
      "midi": 70,
      "hit": false,
      "t": 497256.6827500026,
      "d": 238.93807500001276,
      "v": 54
    },
    {
      "midi": 66,
      "hit": false,
      "t": 497256.6827500026,
      "d": 256.6371916666976,
      "v": 60
    },
    {
      "midi": 39,
      "hit": false,
      "t": 497522.1695000018,
      "d": 336.28321666666307,
      "v": 60
    },
    {
      "midi": 73,
      "hit": false,
      "t": 497787.6562500026,
      "d": 256.6371916666394,
      "v": 60
    },
    {
      "midi": 44,
      "hit": false,
      "t": 498053.14300000184,
      "d": 380.531008333317,
      "v": 54
    },
    {
      "midi": 54,
      "hit": false,
      "t": 498053.14300000184,
      "d": 380.531008333317,
      "v": 60
    },
    {
      "midi": 72,
      "hit": false,
      "t": 498318.6297500026,
      "d": 203.53984166664304,
      "v": 48
    },
    {
      "midi": 60,
      "hit": false,
      "t": 498318.6297500026,
      "d": 221.2389583333279,
      "v": 43
    },
    {
      "midi": 66,
      "hit": false,
      "t": 498318.6297500026,
      "d": 238.93807500001276,
      "v": 54
    },
    {
      "midi": 39,
      "hit": false,
      "t": 498584.1165000018,
      "d": 256.6371916666394,
      "v": 54
    },
    {
      "midi": 60,
      "hit": false,
      "t": 498849.6032500026,
      "d": 185.8407250000164,
      "v": 43
    },
    {
      "midi": 66,
      "hit": false,
      "t": 498849.6032500026,
      "d": 203.53984166670125,
      "v": 54
    },
    {
      "midi": 68,
      "hit": false,
      "t": 498849.6032500026,
      "d": 212.38940000004368,
      "v": 54
    },
    {
      "midi": 44,
      "hit": false,
      "t": 499115.0900000018,
      "d": 389.38056666665943,
      "v": 54
    },
    {
      "midi": 54,
      "hit": false,
      "t": 499115.0900000018,
      "d": 451.32747499999823,
      "v": 60
    },
    {
      "midi": 66,
      "hit": false,
      "t": 499380.5767500026,
      "d": 185.8407250000164,
      "v": 54
    },
    {
      "midi": 60,
      "hit": false,
      "t": 499380.5767500026,
      "d": 238.93807500001276,
      "v": 38
    },
    {
      "midi": 70,
      "hit": false,
      "t": 499380.5767500026,
      "d": 300.88498333335156,
      "v": 54
    },
    {
      "midi": 39,
      "hit": false,
      "t": 499646.0635000018,
      "d": 274.33630833332427,
      "v": 54
    },
    {
      "midi": 60,
      "hit": false,
      "t": 499911.55025000265,
      "d": 168.14160833333153,
      "v": 38
    },
    {
      "midi": 66,
      "hit": false,
      "t": 499911.55025000265,
      "d": 221.2389583333279,
      "v": 54
    },
    {
      "midi": 44,
      "hit": false,
      "t": 500177.03700000176,
      "d": 389.38056666665943,
      "v": 54
    },
    {
      "midi": 53,
      "hit": false,
      "t": 500177.03700000176,
      "d": 424.77879999997094,
      "v": 54
    },
    {
      "midi": 68,
      "hit": false,
      "t": 500442.52375000267,
      "d": 176.99116666667396,
      "v": 54
    },
    {
      "midi": 61,
      "hit": false,
      "t": 500442.52375000267,
      "d": 238.93807500001276,
      "v": 54
    },
    {
      "midi": 39,
      "hit": false,
      "t": 500708.0105000017,
      "d": 265.48674999998184,
      "v": 60
    },
    {
      "midi": 68,
      "hit": false,
      "t": 500973.4972500027,
      "d": 150.44249166664667,
      "v": 54
    },
    {
      "midi": 61,
      "hit": false,
      "t": 500973.4972500027,
      "d": 159.2920499999891,
      "v": 54
    },
    {
      "midi": 70,
      "hit": false,
      "t": 500973.4972500027,
      "d": 168.14160833333153,
      "v": 48
    },
    {
      "midi": 44,
      "hit": false,
      "t": 501238.9840000017,
      "d": 398.23012500000186,
      "v": 86
    },
    {
      "midi": 53,
      "hit": false,
      "t": 501238.9840000017,
      "d": 442.4779166666558,
      "v": 77
    },
    {
      "midi": 61,
      "hit": false,
      "t": 501504.4707500027,
      "d": 265.48674999998184,
      "v": 86
    },
    {
      "midi": 68,
      "hit": false,
      "t": 501504.4707500027,
      "d": 283.1858666666667,
      "v": 86
    },
    {
      "midi": 72,
      "hit": false,
      "t": 501504.4707500027,
      "d": 309.734541666694,
      "v": 77
    },
    {
      "midi": 39,
      "hit": false,
      "t": 501769.95750000165,
      "d": 283.1858666666667,
      "v": 86
    },
    {
      "midi": 68,
      "hit": false,
      "t": 502035.44425000274,
      "d": 150.44249166664667,
      "v": 69
    },
    {
      "midi": 61,
      "hit": false,
      "t": 502035.44425000274,
      "d": 194.6902833333006,
      "v": 61
    },
    {
      "midi": 73,
      "hit": false,
      "t": 502035.44425000274,
      "d": 194.6902833333006,
      "v": 69
    },
    {
      "midi": 44,
      "hit": false,
      "t": 502300.93100000167,
      "d": 371.6814499999746,
      "v": 77
    },
    {
      "midi": 53,
      "hit": false,
      "t": 502300.93100000167,
      "d": 380.531008333317,
      "v": 77
    },
    {
      "midi": 68,
      "hit": false,
      "t": 502566.4177500027,
      "d": 176.99116666667396,
      "v": 77
    },
    {
      "midi": 61,
      "hit": false,
      "t": 502566.4177500027,
      "d": 212.38939999998547,
      "v": 61
    },
    {
      "midi": 39,
      "hit": false,
      "t": 502831.90450000163,
      "d": 274.33630833332427,
      "v": 77
    },
    {
      "midi": 61,
      "hit": false,
      "t": 503097.39125000266,
      "d": 159.2920499999891,
      "v": 77
    },
    {
      "midi": 70,
      "hit": false,
      "t": 503097.39125000266,
      "d": 203.53984166664304,
      "v": 86
    },
    {
      "midi": 44,
      "hit": false,
      "t": 503362.8780000016,
      "d": 398.23012500000186,
      "v": 77
    },
    {
      "midi": 53,
      "hit": false,
      "t": 503362.8780000016,
      "d": 442.4779166666558,
      "v": 77
    },
    {
      "midi": 61,
      "hit": false,
      "t": 503628.3647500026,
      "d": 230.08851666667033,
      "v": 86
    },
    {
      "midi": 68,
      "hit": false,
      "t": 503628.3647500026,
      "d": 292.0354250000091,
      "v": 86
    },
    {
      "midi": 72,
      "hit": false,
      "t": 503628.3647500026,
      "d": 318.5841000000364,
      "v": 77
    },
    {
      "midi": 39,
      "hit": false,
      "t": 503893.85150000156,
      "d": 256.6371916666394,
      "v": 77
    },
    {
      "midi": 68,
      "hit": false,
      "t": 504159.33825000265,
      "d": 141.59293333330425,
      "v": 48
    },
    {
      "midi": 61,
      "hit": false,
      "t": 504159.33825000265,
      "d": 185.84072499995818,
      "v": 55
    },
    {
      "midi": 73,
      "hit": false,
      "t": 504159.33825000265,
      "d": 238.93807499995455,
      "v": 69
    },
    {
      "midi": 44,
      "hit": false,
      "t": 504424.8250000015,
      "d": 389.38056666665943,
      "v": 77
    },
    {
      "midi": 53,
      "hit": false,
      "t": 504424.8250000015,
      "d": 433.6283583333134,
      "v": 77
    },
    {
      "midi": 68,
      "hit": false,
      "t": 504690.3117500026,
      "d": 185.8407250000164,
      "v": 69
    },
    {
      "midi": 61,
      "hit": false,
      "t": 504690.3117500026,
      "d": 212.38940000004368,
      "v": 55
    },
    {
      "midi": 39,
      "hit": false,
      "t": 504955.7985000015,
      "d": 230.08851666667033,
      "v": 77
    },
    {
      "midi": 68,
      "hit": false,
      "t": 505221.28525000263,
      "d": 115.04425833333516,
      "v": 43
    },
    {
      "midi": 61,
      "hit": false,
      "t": 505221.28525000263,
      "d": 176.99116666667396,
      "v": 69
    },
    {
      "midi": 70,
      "hit": false,
      "t": 505221.28525000263,
      "d": 194.69028333335882,
      "v": 77
    },
    {
      "midi": 44,
      "hit": false,
      "t": 505486.7720000015,
      "d": 362.83189166669035,
      "v": 77
    },
    {
      "midi": 53,
      "hit": false,
      "t": 505486.7720000015,
      "d": 460.17703333334066,
      "v": 70
    },
    {
      "midi": 61,
      "hit": false,
      "t": 505752.25875000266,
      "d": 247.7876333333552,
      "v": 77
    },
    {
      "midi": 68,
      "hit": false,
      "t": 505752.25875000266,
      "d": 247.7876333333552,
      "v": 77
    },
    {
      "midi": 72,
      "hit": false,
      "t": 505752.25875000266,
      "d": 292.0354250000091,
      "v": 70
    },
    {
      "midi": 39,
      "hit": false,
      "t": 506017.74550000153,
      "d": 221.2389583333279,
      "v": 77
    },
    {
      "midi": 75,
      "hit": false,
      "t": 506283.2322500027,
      "d": 230.08851666667033,
      "v": 70
    },
    {
      "midi": 44,
      "hit": false,
      "t": 506548.71900000155,
      "d": 327.43365833332064,
      "v": 70
    },
    {
      "midi": 53,
      "hit": false,
      "t": 506548.71900000155,
      "d": 433.6283583333134,
      "v": 70
    },
    {
      "midi": 68,
      "hit": false,
      "t": 506814.2057500027,
      "d": 185.8407250000164,
      "v": 70
    },
    {
      "midi": 61,
      "hit": false,
      "t": 506814.2057500027,
      "d": 221.2389583333279,
      "v": 70
    },
    {
      "midi": 73,
      "hit": false,
      "t": 506814.2057500027,
      "d": 238.93807500001276,
      "v": 70
    },
    {
      "midi": 39,
      "hit": false,
      "t": 507079.6925000015,
      "d": 230.08851666667033,
      "v": 77
    },
    {
      "midi": 68,
      "hit": false,
      "t": 507345.1792500027,
      "d": 168.14160833333153,
      "v": 58
    },
    {
      "midi": 70,
      "hit": false,
      "t": 507345.1792500027,
      "d": 203.53984166664304,
      "v": 58
    },
    {
      "midi": 61,
      "hit": false,
      "t": 507345.1792500027,
      "d": 230.08851666667033,
      "v": 64
    },
    {
      "midi": 44,
      "hit": false,
      "t": 507610.66600000154,
      "d": 336.28321666666307,
      "v": 70
    },
    {
      "midi": 53,
      "hit": false,
      "t": 507610.66600000154,
      "d": 566.3717333333334,
      "v": 70
    },
    {
      "midi": 68,
      "hit": false,
      "t": 507876.15275000274,
      "d": 212.38939999998547,
      "v": 64
    },
    {
      "midi": 72,
      "hit": false,
      "t": 507876.15275000274,
      "d": 212.38939999998547,
      "v": 58
    },
    {
      "midi": 61,
      "hit": false,
      "t": 507876.15275000274,
      "d": 238.93807500001276,
      "v": 64
    },
    {
      "midi": 39,
      "hit": false,
      "t": 508141.63950000156,
      "d": 159.2920499999891,
      "v": 70
    },
    {
      "midi": 68,
      "hit": false,
      "t": 508407.12625000277,
      "d": 212.38939999998547,
      "v": 70
    },
    {
      "midi": 61,
      "hit": false,
      "t": 508407.12625000277,
      "d": 230.08851666667033,
      "v": 70
    },
    {
      "midi": 39,
      "hit": false,
      "t": 508672.6130000015,
      "d": 221.2389583333279,
      "v": 77
    },
    {
      "midi": 46,
      "hit": false,
      "t": 508672.6130000015,
      "d": 221.2389583333279,
      "v": 77
    },
    {
      "midi": 53,
      "hit": false,
      "t": 508672.6130000015,
      "d": 283.1858666666667,
      "v": 70
    },
    {
      "midi": 62,
      "hit": false,
      "t": 508938.0997500028,
      "d": 203.53984166664304,
      "v": 58
    },
    {
      "midi": 68,
      "hit": false,
      "t": 508938.0997500028,
      "d": 221.2389583333279,
      "v": 70
    },
    {
      "midi": 46,
      "hit": false,
      "t": 509203.58650000155,
      "d": 247.7876333333552,
      "v": 70
    },
    {
      "midi": 53,
      "hit": false,
      "t": 509203.58650000155,
      "d": 247.7876333333552,
      "v": 64
    },
    {
      "midi": 39,
      "hit": false,
      "t": 509203.58650000155,
      "d": 256.6371916666976,
      "v": 70
    },
    {
      "midi": 68,
      "hit": false,
      "t": 509469.0732500028,
      "d": 203.53984166664304,
      "v": 70
    },
    {
      "midi": 62,
      "hit": false,
      "t": 509469.0732500028,
      "d": 212.38939999998547,
      "v": 64
    },
    {
      "midi": 70,
      "hit": false,
      "t": 509469.0732500028,
      "d": 212.38939999998547,
      "v": 70
    },
    {
      "midi": 39,
      "hit": false,
      "t": 509734.56000000157,
      "d": 610.6195249999873,
      "v": 96
    },
    {
      "midi": 46,
      "hit": false,
      "t": 509734.56000000157,
      "d": 628.3186416666722,
      "v": 96
    },
    {
      "midi": 53,
      "hit": false,
      "t": 509734.56000000157,
      "d": 681.4159916666686,
      "v": 87
    },
    {
      "midi": 62,
      "hit": false,
      "t": 510000.0467500028,
      "d": 256.6371916666394,
      "v": 96
    },
    {
      "midi": 68,
      "hit": false,
      "t": 510000.0467500028,
      "d": 300.88498333329335,
      "v": 107
    },
    {
      "midi": 72,
      "hit": false,
      "t": 510000.0467500028,
      "d": 309.7345416666358,
      "v": 87
    },
    {
      "midi": 75,
      "hit": false,
      "t": 510531.02025000274,
      "d": 238.93807500001276,
      "v": 96
    },
    {
      "midi": 51,
      "hit": false,
      "t": 510796.50700000155,
      "d": 256.6371916666394,
      "v": 96
    },
    {
      "midi": 65,
      "hit": false,
      "t": 510796.50700000155,
      "d": 265.48674999998184,
      "v": 79
    },
    {
      "midi": 58,
      "hit": false,
      "t": 510796.50700000155,
      "d": 292.0354250000091,
      "v": 96
    },
    {
      "midi": 62,
      "hit": false,
      "t": 511061.99375000276,
      "d": 203.53984166664304,
      "v": 87
    },
    {
      "midi": 68,
      "hit": false,
      "t": 511061.99375000276,
      "d": 203.53984166664304,
      "v": 96
    },
    {
      "midi": 74,
      "hit": false,
      "t": 511061.99375000276,
      "d": 212.38939999998547,
      "v": 87
    },
    {
      "midi": 65,
      "hit": false,
      "t": 511327.4805000016,
      "d": 159.2920499999891,
      "v": 71
    },
    {
      "midi": 51,
      "hit": false,
      "t": 511327.4805000016,
      "d": 194.6902833333006,
      "v": 87
    },
    {
      "midi": 58,
      "hit": false,
      "t": 511327.4805000016,
      "d": 212.38939999998547,
      "v": 71
    },
    {
      "midi": 62,
      "hit": false,
      "t": 511592.9672500027,
      "d": 185.8407250000164,
      "v": 79
    },
    {
      "midi": 68,
      "hit": false,
      "t": 511592.9672500027,
      "d": 203.53984166670125,
      "v": 96
    },
    {
      "midi": 70,
      "hit": false,
      "t": 511592.9672500027,
      "d": 221.2389583333861,
      "v": 96
    },
    {
      "midi": 65,
      "hit": false,
      "t": 511858.45400000154,
      "d": 469.0265916666831,
      "v": 79
    },
    {
      "midi": 51,
      "hit": false,
      "t": 511858.45400000154,
      "d": 495.5752666667104,
      "v": 87
    },
    {
      "midi": 58,
      "hit": false,
      "t": 511858.45400000154,
      "d": 530.9735000000219,
      "v": 87
    },
    {
      "midi": 68,
      "hit": false,
      "t": 512123.9407500028,
      "d": 176.99116666667396,
      "v": 96
    },
    {
      "midi": 62,
      "hit": false,
      "t": 512123.9407500028,
      "d": 221.2389583333279,
      "v": 87
    },
    {
      "midi": 72,
      "hit": false,
      "t": 512123.9407500028,
      "d": 345.1327750000055,
      "v": 79
    },
    {
      "midi": 68,
      "hit": false,
      "t": 512654.9142500028,
      "d": 176.99116666667396,
      "v": 96
    },
    {
      "midi": 39,
      "hit": false,
      "t": 512920.4010000016,
      "d": 256.6371916666394,
      "v": 96
    },
    {
      "midi": 53,
      "hit": false,
      "t": 512920.4010000016,
      "d": 256.6371916666394,
      "v": 87
    },
    {
      "midi": 46,
      "hit": false,
      "t": 512920.4010000016,
      "d": 274.33630833332427,
      "v": 96
    },
    {
      "midi": 68,
      "hit": false,
      "t": 513185.88775000285,
      "d": 212.38939999998547,
      "v": 87
    },
    {
      "midi": 72,
      "hit": false,
      "t": 513185.88775000285,
      "d": 221.2389583333279,
      "v": 79
    },
    {
      "midi": 74,
      "hit": false,
      "t": 513185.88775000285,
      "d": 221.2389583333279,
      "v": 79
    },
    {
      "midi": 46,
      "hit": false,
      "t": 513451.37450000155,
      "d": 203.53984166664304,
      "v": 87
    },
    {
      "midi": 39,
      "hit": false,
      "t": 513451.37450000155,
      "d": 212.38939999998547,
      "v": 96
    },
    {
      "midi": 53,
      "hit": false,
      "t": 513451.37450000155,
      "d": 221.2389583333279,
      "v": 87
    },
    {
      "midi": 72,
      "hit": false,
      "t": 513716.86125000287,
      "d": 203.53984166664304,
      "v": 79
    },
    {
      "midi": 68,
      "hit": false,
      "t": 513716.86125000287,
      "d": 212.38939999998547,
      "v": 96
    },
    {
      "midi": 75,
      "hit": false,
      "t": 513716.86125000287,
      "d": 238.93807500001276,
      "v": 87
    },
    {
      "midi": 39,
      "hit": false,
      "t": 513982.34800000157,
      "d": 530.9735000000219,
      "v": 95
    },
    {
      "midi": 46,
      "hit": false,
      "t": 513982.34800000157,
      "d": 548.6726166667067,
      "v": 95
    },
    {
      "midi": 53,
      "hit": false,
      "t": 513982.34800000157,
      "d": 592.9204083333607,
      "v": 88
    },
    {
      "midi": 68,
      "hit": false,
      "t": 514247.8347500029,
      "d": 230.08851666667033,
      "v": 88
    },
    {
      "midi": 72,
      "hit": false,
      "t": 514247.8347500029,
      "d": 238.93807500001276,
      "v": 82
    },
    {
      "midi": 77,
      "hit": false,
      "t": 514247.8347500029,
      "d": 247.7876333333552,
      "v": 88
    },
    {
      "midi": 80,
      "hit": false,
      "t": 514778.8082500029,
      "d": 212.38939999998547,
      "v": 88
    },
    {
      "midi": 51,
      "hit": false,
      "t": 515044.2950000016,
      "d": 230.08851666667033,
      "v": 88
    },
    {
      "midi": 58,
      "hit": false,
      "t": 515044.2950000016,
      "d": 238.93807500001276,
      "v": 95
    },
    {
      "midi": 65,
      "hit": false,
      "t": 515044.2950000016,
      "d": 238.93807500001276,
      "v": 88
    },
    {
      "midi": 68,
      "hit": false,
      "t": 515309.7817500029,
      "d": 212.38939999998547,
      "v": 95
    },
    {
      "midi": 79,
      "hit": false,
      "t": 515309.7817500029,
      "d": 230.08851666667033,
      "v": 88
    },
    {
      "midi": 72,
      "hit": false,
      "t": 515309.7817500029,
      "d": 238.93807500001276,
      "v": 82
    },
    {
      "midi": 51,
      "hit": false,
      "t": 515575.26850000164,
      "d": 185.8407250000164,
      "v": 95
    },
    {
      "midi": 58,
      "hit": false,
      "t": 515575.26850000164,
      "d": 221.2389583333279,
      "v": 88
    },
    {
      "midi": 65,
      "hit": false,
      "t": 515575.26850000164,
      "d": 247.7876333333552,
      "v": 88
    },
    {
      "midi": 72,
      "hit": false,
      "t": 515840.7552500029,
      "d": 203.53984166664304,
      "v": 75
    },
    {
      "midi": 75,
      "hit": false,
      "t": 515840.7552500029,
      "d": 230.08851666667033,
      "v": 95
    },
    {
      "midi": 68,
      "hit": false,
      "t": 515840.7552500029,
      "d": 238.93807500001276,
      "v": 88
    },
    {
      "midi": 58,
      "hit": false,
      "t": 516106.24200000166,
      "d": 672.5664333333261,
      "v": 95
    },
    {
      "midi": 51,
      "hit": false,
      "t": 516106.24200000166,
      "d": 778.7611333333189,
      "v": 95
    },
    {
      "midi": 65,
      "hit": false,
      "t": 516106.24200000166,
      "d": 884.9558333333116,
      "v": 95
    },
    {
      "midi": 68,
      "hit": false,
      "t": 516371.7287500029,
      "d": 221.2389583333279,
      "v": 88
    },
    {
      "midi": 72,
      "hit": false,
      "t": 516371.7287500029,
      "d": 256.6371916666394,
      "v": 82
    },
    {
      "midi": 77,
      "hit": false,
      "t": 516371.7287500029,
      "d": 292.0354249999509,
      "v": 82
    },
    {
      "midi": 74,
      "hit": false,
      "t": 516902.7022500029,
      "d": 194.69028333335882,
      "v": 88
    },
    {
      "midi": 62,
      "hit": false,
      "t": 517168.18900000164,
      "d": 230.08851666667033,
      "v": 75
    },
    {
      "midi": 53,
      "hit": false,
      "t": 517168.18900000164,
      "d": 327.43365833332064,
      "v": 71
    },
    {
      "midi": 77,
      "hit": false,
      "t": 517433.6757500029,
      "d": 212.38939999998547,
      "v": 88
    },
    {
      "midi": 67,
      "hit": false,
      "t": 517699.1625000016,
      "d": 283.1858666666667,
      "v": 75
    },
    {
      "midi": 55,
      "hit": false,
      "t": 517699.1625000016,
      "d": 327.43365833332064,
      "v": 71
    },
    {
      "midi": 79,
      "hit": false,
      "t": 517964.64925000287,
      "d": 194.69028333335882,
      "v": 82
    },
    {
      "midi": 56,
      "hit": false,
      "t": 518230.13600000157,
      "d": 371.6814499999746,
      "v": 97
    },
    {
      "midi": 68,
      "hit": false,
      "t": 518230.13600000157,
      "d": 407.0796833332861,
      "v": 97
    },
    {
      "midi": 80,
      "hit": false,
      "t": 518495.6227500029,
      "d": 212.38939999998547,
      "v": 97
    },
    {
      "midi": 72,
      "hit": false,
      "t": 518761.10950000153,
      "d": 238.93807500001276,
      "v": 89
    },
    {
      "midi": 60,
      "hit": false,
      "t": 518761.10950000153,
      "d": 265.48675000004005,
      "v": 81
    },
    {
      "midi": 84,
      "hit": false,
      "t": 519026.59625000285,
      "d": 221.2389583333279,
      "v": 81
    },
    {
      "midi": 56,
      "hit": false,
      "t": 519292.08300000156,
      "d": 309.734541666694,
      "v": 97
    },
    {
      "midi": 68,
      "hit": false,
      "t": 519292.08300000156,
      "d": 345.1327750000055,
      "v": 97
    },
    {
      "midi": 80,
      "hit": false,
      "t": 519557.5697500029,
      "d": 185.8407250000164,
      "v": 97
    },
    {
      "midi": 65,
      "hit": false,
      "t": 519823.0565000016,
      "d": 274.33630833332427,
      "v": 81
    },
    {
      "midi": 53,
      "hit": false,
      "t": 519823.0565000016,
      "d": 309.7345416666358,
      "v": 81
    },
    {
      "midi": 77,
      "hit": false,
      "t": 520088.5432500029,
      "d": 194.69028333335882,
      "v": 81
    },
    {
      "midi": 56,
      "hit": false,
      "t": 520354.03000000154,
      "d": 283.1858666666667,
      "v": 97
    },
    {
      "midi": 68,
      "hit": false,
      "t": 520354.03000000154,
      "d": 300.88498333335156,
      "v": 106
    },
    {
      "midi": 80,
      "hit": false,
      "t": 520619.5167500029,
      "d": 168.14160833333153,
      "v": 89
    },
    {
      "midi": 53,
      "hit": false,
      "t": 520885.00350000156,
      "d": 238.93807500001276,
      "v": 89
    },
    {
      "midi": 65,
      "hit": false,
      "t": 520885.00350000156,
      "d": 274.33630833332427,
      "v": 97
    },
    {
      "midi": 77,
      "hit": false,
      "t": 521150.49025000294,
      "d": 194.69028333335882,
      "v": 89
    },
    {
      "midi": 50,
      "hit": false,
      "t": 521415.9770000015,
      "d": 300.88498333335156,
      "v": 89
    },
    {
      "midi": 62,
      "hit": false,
      "t": 521415.9770000015,
      "d": 300.88498333335156,
      "v": 81
    },
    {
      "midi": 74,
      "hit": false,
      "t": 521681.46375000296,
      "d": 194.69028333335882,
      "v": 89
    },
    {
      "midi": 65,
      "hit": false,
      "t": 521946.95050000155,
      "d": 194.69028333335882,
      "v": 97
    },
    {
      "midi": 53,
      "hit": false,
      "t": 521946.95050000155,
      "d": 274.3363083333825,
      "v": 89
    },
    {
      "midi": 77,
      "hit": false,
      "t": 522212.437250003,
      "d": 194.69028333335882,
      "v": 81
    },
    {
      "midi": 50,
      "hit": false,
      "t": 522477.92400000157,
      "d": 292.0354250000091,
      "v": 81
    },
    {
      "midi": 62,
      "hit": false,
      "t": 522477.92400000157,
      "d": 380.531008333317,
      "v": 89
    },
    {
      "midi": 74,
      "hit": false,
      "t": 522743.410750003,
      "d": 168.14160833333153,
      "v": 89
    },
    {
      "midi": 46,
      "hit": false,
      "t": 523008.89750000153,
      "d": 230.08851666667033,
      "v": 97
    },
    {
      "midi": 58,
      "hit": false,
      "t": 523008.89750000153,
      "d": 256.6371916666976,
      "v": 97
    },
    {
      "midi": 70,
      "hit": false,
      "t": 523274.38425000303,
      "d": 212.38939999998547,
      "v": 97
    },
    {
      "midi": 50,
      "hit": false,
      "t": 523539.87100000156,
      "d": 283.1858666666667,
      "v": 81
    },
    {
      "midi": 62,
      "hit": false,
      "t": 523539.87100000156,
      "d": 336.28321666666307,
      "v": 97
    },
    {
      "midi": 74,
      "hit": false,
      "t": 523805.357750003,
      "d": 150.44249166664667,
      "v": 89
    },
    {
      "midi": 46,
      "hit": false,
      "t": 524070.8445000016,
      "d": 256.6371916666976,
      "v": 89
    },
    {
      "midi": 58,
      "hit": false,
      "t": 524070.8445000016,
      "d": 256.6371916666976,
      "v": 97
    },
    {
      "midi": 70,
      "hit": false,
      "t": 524336.331250003,
      "d": 168.14160833333153,
      "v": 97
    },
    {
      "midi": 43,
      "hit": false,
      "t": 524601.8180000016,
      "d": 353.9823333333479,
      "v": 81
    },
    {
      "midi": 55,
      "hit": false,
      "t": 524601.8180000016,
      "d": 371.6814500000328,
      "v": 89
    },
    {
      "midi": 67,
      "hit": false,
      "t": 524867.3047500029,
      "d": 203.53984166670125,
      "v": 97
    },
    {
      "midi": 46,
      "hit": false,
      "t": 525132.7915000017,
      "d": 274.33630833332427,
      "v": 89
    },
    {
      "midi": 58,
      "hit": false,
      "t": 525132.7915000017,
      "d": 300.88498333329335,
      "v": 97
    },
    {
      "midi": 70,
      "hit": false,
      "t": 525398.278250003,
      "d": 185.8407250000164,
      "v": 97
    },
    {
      "midi": 55,
      "hit": false,
      "t": 525663.7650000016,
      "d": 318.5840999999782,
      "v": 81
    },
    {
      "midi": 43,
      "hit": false,
      "t": 525663.7650000016,
      "d": 327.43365833326243,
      "v": 89
    },
    {
      "midi": 67,
      "hit": false,
      "t": 525929.251750003,
      "d": 168.14160833333153,
      "v": 89
    },
    {
      "midi": 39,
      "hit": false,
      "t": 526194.7385000016,
      "d": 256.6371916666394,
      "v": 97
    },
    {
      "midi": 51,
      "hit": false,
      "t": 526194.7385000016,
      "d": 265.48674999992363,
      "v": 89
    },
    {
      "midi": 63,
      "hit": false,
      "t": 526460.2252500029,
      "d": 185.8407250000164,
      "v": 97
    },
    {
      "midi": 55,
      "hit": false,
      "t": 526725.7120000016,
      "d": 327.43365833337884,
      "v": 97
    },
    {
      "midi": 43,
      "hit": false,
      "t": 526725.7120000016,
      "d": 371.6814500000328,
      "v": 97
    },
    {
      "midi": 67,
      "hit": false,
      "t": 526991.1987500029,
      "d": 194.6902833333006,
      "v": 102
    },
    {
      "midi": 39,
      "hit": false,
      "t": 527256.6855000017,
      "d": 283.1858666666085,
      "v": 107
    },
    {
      "midi": 51,
      "hit": false,
      "t": 527256.6855000017,
      "d": 300.88498333329335,
      "v": 107
    },
    {
      "midi": 63,
      "hit": false,
      "t": 527522.1722500029,
      "d": 185.8407250000164,
      "v": 113
    },
    {
      "midi": 36,
      "hit": false,
      "t": 527787.6590000016,
      "d": 318.5840999999782,
      "v": 102
    },
    {
      "midi": 48,
      "hit": false,
      "t": 527787.6590000016,
      "d": 362.83189166663215,
      "v": 102
    },
    {
      "midi": 60,
      "hit": false,
      "t": 528053.1457500028,
      "d": 194.6902833333006,
      "v": 97
    },
    {
      "midi": 39,
      "hit": false,
      "t": 528318.6325000016,
      "d": 274.33630833332427,
      "v": 107
    },
    {
      "midi": 51,
      "hit": false,
      "t": 528318.6325000016,
      "d": 300.88498333329335,
      "v": 102
    },
    {
      "midi": 63,
      "hit": false,
      "t": 528584.1192500028,
      "d": 185.8407250000164,
      "v": 107
    },
    {
      "midi": 36,
      "hit": false,
      "t": 528858.4555583348,
      "d": 336.28321666666307,
      "v": 93
    },
    {
      "midi": 60,
      "hit": false,
      "t": 529115.0927500027,
      "d": 168.14160833333153,
      "v": 102
    },
    {
      "midi": 44,
      "hit": false,
      "t": 529398.2786166682,
      "d": 283.1858666666085,
      "v": 107
    },
    {
      "midi": 32,
      "hit": false,
      "t": 529398.2786166682,
      "d": 300.88498333329335,
      "v": 107
    },
    {
      "midi": 56,
      "hit": false,
      "t": 529646.0662500027,
      "d": 176.99116666661575,
      "v": 107
    },
    {
      "midi": 36,
      "hit": false,
      "t": 529929.2521166682,
      "d": 212.38939999998547,
      "v": 97
    },
    {
      "midi": 48,
      "hit": false,
      "t": 529929.2521166682,
      "d": 513.2743833332788,
      "v": 88
    },
    {
      "midi": 60,
      "hit": false,
      "t": 530177.0397500027,
      "d": 185.8407250000164,
      "v": 102
    },
    {
      "midi": 32,
      "hit": false,
      "t": 530460.2256166681,
      "d": 221.2389583333861,
      "v": 102
    },
    {
      "midi": 44,
      "hit": false,
      "t": 530460.2256166681,
      "d": 327.43365833337884,
      "v": 107
    },
    {
      "midi": 56,
      "hit": false,
      "t": 530708.0132500026,
      "d": 238.93807499995455,
      "v": 113
    },
    {
      "midi": 55,
      "hit": false,
      "t": 531115.0929333359,
      "d": 3823.0091999997385,
      "v": 116
    },
    {
      "midi": 31,
      "hit": false,
      "t": 531141.6416083348,
      "d": 3778.761408333201,
      "v": 116
    },
    {
      "midi": 43,
      "hit": false,
      "t": 531141.6416083348,
      "d": 3805.31008333317,
      "v": 116
    },
    {
      "midi": 44,
      "hit": false,
      "t": 532168.1903750015,
      "d": 433.6283583333716,
      "v": 116
    },
    {
      "midi": 48,
      "hit": false,
      "t": 532168.1903750015,
      "d": 460.17703333334066,
      "v": 108
    },
    {
      "midi": 51,
      "hit": false,
      "t": 532168.1903750015,
      "d": 477.8761500000255,
      "v": 116
    },
    {
      "midi": 56,
      "hit": false,
      "t": 532194.7390500025,
      "d": 424.77879999997094,
      "v": 116
    },
    {
      "midi": 68,
      "hit": false,
      "t": 532194.7390500025,
      "d": 486.72570833330974,
      "v": 116
    },
    {
      "midi": 60,
      "hit": false,
      "t": 532203.5886083358,
      "d": 433.6283583333716,
      "v": 108
    },
    {
      "midi": 63,
      "hit": false,
      "t": 532203.5886083358,
      "d": 477.8761500000255,
      "v": 116
    },
    {
      "midi": 56,
      "hit": false,
      "t": 533132.7922333349,
      "d": 486.72570833330974,
      "v": 116
    },
    {
      "midi": 60,
      "hit": false,
      "t": 533132.7922333349,
      "d": 513.2743833332788,
      "v": 108
    },
    {
      "midi": 63,
      "hit": false,
      "t": 533132.7922333349,
      "d": 539.8230583332479,
      "v": 116
    },
    {
      "midi": 80,
      "hit": false,
      "t": 533150.4913500025,
      "d": 460.17703333310783,
      "v": 116
    },
    {
      "midi": 68,
      "hit": false,
      "t": 533159.3409083358,
      "d": 415.9292416665703,
      "v": 116
    },
    {
      "midi": 75,
      "hit": false,
      "t": 533159.3409083358,
      "d": 451.3274749998236,
      "v": 116
    },
    {
      "midi": 72,
      "hit": false,
      "t": 533168.190466669,
      "d": 415.9292416665703,
      "v": 108
    },
    {
      "midi": 87,
      "hit": false,
      "t": 534132.7923250023,
      "d": 858.4071583334589,
      "v": 116
    },
    {
      "midi": 92,
      "hit": false,
      "t": 534132.7923250023,
      "d": 858.4071583334589,
      "v": 116
    },
    {
      "midi": 80,
      "hit": false,
      "t": 534132.7923250023,
      "d": 867.2567166667432,
      "v": 116
    },
    {
      "midi": 84,
      "hit": false,
      "t": 534150.491441669,
      "d": 840.7080416667741,
      "v": 101
    },
    {
      "midi": 68,
      "hit": false,
      "t": 534221.2879083348,
      "d": 946.9027416666504,
      "v": 116
    },
    {
      "midi": 75,
      "hit": false,
      "t": 534221.2879083348,
      "d": 973.4514166666195,
      "v": 116
    },
    {
      "midi": 72,
      "hit": false,
      "t": 534230.137466668,
      "d": 938.0531833333662,
      "v": 108
    },
    {
      "midi": 54,
      "hit": false,
      "t": 535221.2880000024,
      "d": 3876.106550000026,
      "v": 125
    },
    {
      "midi": 42,
      "hit": false,
      "t": 535238.987116668,
      "d": 3920.3543416665634,
      "v": 116
    },
    {
      "midi": 30,
      "hit": false,
      "t": 535238.987116668,
      "d": 3955.752574999933,
      "v": 116
    },
    {
      "midi": 68,
      "hit": false,
      "t": 536247.8367666691,
      "d": 504.4248249998782,
      "v": 116
    },
    {
      "midi": 56,
      "hit": false,
      "t": 536256.6863250023,
      "d": 442.4779166666558,
      "v": 108
    },
    {
      "midi": 63,
      "hit": false,
      "t": 536256.6863250023,
      "d": 495.57526666659396,
      "v": 108
    },
    {
      "midi": 60,
      "hit": false,
      "t": 536265.5358833356,
      "d": 460.17703333334066,
      "v": 101
    },
    {
      "midi": 44,
      "hit": false,
      "t": 536318.6332333346,
      "d": 477.8761499999091,
      "v": 116
    },
    {
      "midi": 51,
      "hit": false,
      "t": 536318.6332333346,
      "d": 530.9734999998473,
      "v": 116
    },
    {
      "midi": 48,
      "hit": false,
      "t": 536327.4827916679,
      "d": 513.2743833332788,
      "v": 108
    },
    {
      "midi": 68,
      "hit": false,
      "t": 537247.8368583356,
      "d": 513.2743833333952,
      "v": 116
    },
    {
      "midi": 75,
      "hit": false,
      "t": 537247.8368583356,
      "d": 548.672616666765,
      "v": 116
    },
    {
      "midi": 80,
      "hit": false,
      "t": 537247.8368583356,
      "d": 566.3717333334498,
      "v": 116
    },
    {
      "midi": 72,
      "hit": false,
      "t": 537265.5359750023,
      "d": 513.2743833333952,
      "v": 108
    },
    {
      "midi": 56,
      "hit": false,
      "t": 537345.1820000012,
      "d": 522.1239416666795,
      "v": 108
    },
    {
      "midi": 60,
      "hit": false,
      "t": 537345.1820000012,
      "d": 557.5221750000492,
      "v": 101
    },
    {
      "midi": 63,
      "hit": false,
      "t": 537345.1820000012,
      "d": 584.0708500000183,
      "v": 116
    },
    {
      "midi": 92,
      "hit": false,
      "t": 538318.6334166691,
      "d": 858.4071583332261,
      "v": 116
    },
    {
      "midi": 87,
      "hit": false,
      "t": 538327.4829750024,
      "d": 840.7080416666577,
      "v": 116
    },
    {
      "midi": 80,
      "hit": false,
      "t": 538327.4829750024,
      "d": 858.4071583332261,
      "v": 108
    },
    {
      "midi": 84,
      "hit": false,
      "t": 538345.1820916691,
      "d": 814.1593666666886,
      "v": 101
    },
    {
      "midi": 75,
      "hit": false,
      "t": 538424.8281166679,
      "d": 752.2124583333498,
      "v": 116
    },
    {
      "midi": 68,
      "hit": false,
      "t": 538424.8281166679,
      "d": 769.9115750000346,
      "v": 116
    },
    {
      "midi": 72,
      "hit": false,
      "t": 538433.6776750012,
      "d": 743.3629000000656,
      "v": 108
    },
    {
      "midi": 53,
      "hit": false,
      "t": 539460.2264416689,
      "d": 4079.6463916664943,
      "v": 116
    },
    {
      "midi": 29,
      "hit": false,
      "t": 539477.9255583346,
      "d": 3849.557874999824,
      "v": 108
    },
    {
      "midi": 41,
      "hit": false,
      "t": 539477.9255583346,
      "d": 3876.106549999793,
      "v": 108
    },
    {
      "midi": 56,
      "hit": false,
      "t": 540504.4743250023,
      "d": 469.0265916666249,
      "v": 116
    },
    {
      "midi": 63,
      "hit": false,
      "t": 540504.4743250023,
      "d": 522.1239416666795,
      "v": 108
    },
    {
      "midi": 68,
      "hit": false,
      "t": 540504.4743250023,
      "d": 522.1239416666795,
      "v": 116
    },
    {
      "midi": 59,
      "hit": false,
      "t": 540513.3238833356,
      "d": 477.8761500000255,
      "v": 108
    },
    {
      "midi": 44,
      "hit": false,
      "t": 540557.5716750012,
      "d": 460.17703333334066,
      "v": 116
    },
    {
      "midi": 51,
      "hit": false,
      "t": 540557.5716750012,
      "d": 513.2743833332788,
      "v": 116
    },
    {
      "midi": 47,
      "hit": false,
      "t": 540566.4212333345,
      "d": 477.8761500000255,
      "v": 108
    },
    {
      "midi": 68,
      "hit": false,
      "t": 541513.3239750023,
      "d": 522.1239416666795,
      "v": 116
    },
    {
      "midi": 80,
      "hit": false,
      "t": 541513.3239750023,
      "d": 575.2212916666176,
      "v": 116
    },
    {
      "midi": 71,
      "hit": false,
      "t": 541531.023091669,
      "d": 530.9734999999637,
      "v": 108
    },
    {
      "midi": 75,
      "hit": false,
      "t": 541531.023091669,
      "d": 548.6726166666485,
      "v": 108
    },
    {
      "midi": 56,
      "hit": false,
      "t": 541610.6691166678,
      "d": 469.0265916666249,
      "v": 108
    },
    {
      "midi": 63,
      "hit": false,
      "t": 541610.6691166678,
      "d": 513.2743833332788,
      "v": 116
    },
    {
      "midi": 59,
      "hit": false,
      "t": 541619.5186750011,
      "d": 495.5752666667104,
      "v": 108
    },
    {
      "midi": 80,
      "hit": false,
      "t": 542592.9700916689,
      "d": 902.65494999988,
      "v": 108
    },
    {
      "midi": 87,
      "hit": false,
      "t": 542592.9700916689,
      "d": 955.7522999998182,
      "v": 108
    },
    {
      "midi": 92,
      "hit": false,
      "t": 542601.8196500022,
      "d": 902.65494999988,
      "v": 116
    },
    {
      "midi": 83,
      "hit": false,
      "t": 542610.6692083355,
      "d": 893.8053916665958,
      "v": 108
    },
    {
      "midi": 75,
      "hit": false,
      "t": 542681.4656750011,
      "d": 1044.2478833332425,
      "v": 116
    },
    {
      "midi": 68,
      "hit": false,
      "t": 542681.4656750011,
      "d": 1061.946999999811,
      "v": 116
    },
    {
      "midi": 71,
      "hit": false,
      "t": 542690.3152333344,
      "d": 1044.2478833332425,
      "v": 108
    },
    {
      "midi": 52,
      "hit": false,
      "t": 543708.0144416688,
      "d": 3982.301249999786,
      "v": 125
    },
    {
      "midi": 40,
      "hit": false,
      "t": 543805.3595833343,
      "d": 3637.168474999955,
      "v": 108
    },
    {
      "midi": 28,
      "hit": false,
      "t": 543814.2091416676,
      "d": 3548.672891666647,
      "v": 108
    },
    {
      "midi": 55,
      "hit": false,
      "t": 544778.8110000021,
      "d": 1053.0974416666431,
      "v": 101
    },
    {
      "midi": 57,
      "hit": false,
      "t": 544778.8110000021,
      "d": 1053.0974416666431,
      "v": 108
    },
    {
      "midi": 61,
      "hit": false,
      "t": 544778.8110000021,
      "d": 1053.0974416666431,
      "v": 116
    },
    {
      "midi": 66,
      "hit": false,
      "t": 544778.8110000021,
      "d": 1053.0974416666431,
      "v": 76
    },
    {
      "midi": 67,
      "hit": false,
      "t": 544778.8110000021,
      "d": 1053.0974416666431,
      "v": 101
    },
    {
      "midi": 69,
      "hit": false,
      "t": 544778.8110000021,
      "d": 1053.0974416666431,
      "v": 108
    },
    {
      "midi": 49,
      "hit": false,
      "t": 544902.7048166676,
      "d": 566.3717333333334,
      "v": 108
    },
    {
      "midi": 45,
      "hit": false,
      "t": 544920.4039333343,
      "d": 592.9204083333025,
      "v": 95
    },
    {
      "midi": 67,
      "hit": false,
      "t": 545840.758000002,
      "d": 1053.0974416666431,
      "v": 108
    },
    {
      "midi": 69,
      "hit": false,
      "t": 545840.758000002,
      "d": 1053.0974416666431,
      "v": 116
    },
    {
      "midi": 73,
      "hit": false,
      "t": 545840.758000002,
      "d": 1053.0974416666431,
      "v": 116
    },
    {
      "midi": 81,
      "hit": false,
      "t": 545840.758000002,
      "d": 1053.0974416666431,
      "v": 108
    },
    {
      "midi": 52,
      "hit": false,
      "t": 545929.2535833343,
      "d": 486.72570833330974,
      "v": 108
    },
    {
      "midi": 57,
      "hit": false,
      "t": 545929.2535833343,
      "d": 513.2743833332788,
      "v": 108
    },
    {
      "midi": 61,
      "hit": false,
      "t": 545929.2535833343,
      "d": 548.6726166666485,
      "v": 116
    },
    {
      "midi": 79,
      "hit": false,
      "t": 546902.7050000019,
      "d": 1053.0974416666431,
      "v": 101
    },
    {
      "midi": 85,
      "hit": false,
      "t": 546902.7050000019,
      "d": 1053.0974416666431,
      "v": 116
    },
    {
      "midi": 91,
      "hit": false,
      "t": 546902.7050000019,
      "d": 1053.0974416666431,
      "v": 108
    },
    {
      "midi": 93,
      "hit": false,
      "t": 546902.7050000019,
      "d": 1053.0974416666431,
      "v": 108
    },
    {
      "midi": 73,
      "hit": false,
      "t": 547017.7492583343,
      "d": 442.4779166666558,
      "v": 116
    },
    {
      "midi": 64,
      "hit": false,
      "t": 547026.5988166676,
      "d": 415.9292416666867,
      "v": 108
    },
    {
      "midi": 69,
      "hit": false,
      "t": 547026.5988166676,
      "d": 415.9292416666867,
      "v": 101
    },
    {
      "midi": 81,
      "hit": false,
      "t": 547548.7227583353,
      "d": 132.74337499996182,
      "v": 85
    },
    {
      "midi": 83,
      "hit": false,
      "t": 547637.2183416686,
      "d": 283.1858666666085,
      "v": 85
    },
    {
      "midi": 81,
      "hit": false,
      "t": 547858.4573000019,
      "d": 97.34514166670851,
      "v": 90
    },
    {
      "midi": 78,
      "hit": false,
      "t": 548061.9971416686,
      "d": 575.221291666734,
      "v": 108
    },
    {
      "midi": 45,
      "hit": false,
      "t": 548097.3953750009,
      "d": 539.8230583332479,
      "v": 101
    },
    {
      "midi": 38,
      "hit": false,
      "t": 548106.2449333342,
      "d": 893.8053916665958,
      "v": 101
    },
    {
      "midi": 50,
      "hit": false,
      "t": 548575.2715250008,
      "d": 300.88498333329335,
      "v": 101
    },
    {
      "midi": 81,
      "hit": false,
      "t": 548601.8202000019,
      "d": 203.53984166670125,
      "v": 101
    },
    {
      "midi": 54,
      "hit": false,
      "t": 549088.5459083341,
      "d": 407.0796833332861,
      "v": 116
    },
    {
      "midi": 78,
      "hit": false,
      "t": 549088.5459083352,
      "d": 176.99116666661575,
      "v": 101
    },
    {
      "midi": 81,
      "hit": false,
      "t": 549088.5459083352,
      "d": 221.2389583332697,
      "v": 101
    },
    {
      "midi": 86,
      "hit": false,
      "t": 549097.3954666685,
      "d": 203.53984166670125,
      "v": 90
    },
    {
      "midi": 90,
      "hit": false,
      "t": 549584.1211750018,
      "d": 194.6902833331842,
      "v": 116
    },
    {
      "midi": 78,
      "hit": false,
      "t": 549592.9707333351,
      "d": 185.84072499989998,
      "v": 101
    },
    {
      "midi": 81,
      "hit": false,
      "t": 549601.8202916684,
      "d": 230.08851666667033,
      "v": 95
    },
    {
      "midi": 57,
      "hit": false,
      "t": 549610.6698500006,
      "d": 212.38939999998547,
      "v": 101
    },
    {
      "midi": 50,
      "hit": false,
      "t": 549672.616758334,
      "d": 230.08851666667033,
      "v": 76
    },
    {
      "midi": 88,
      "hit": false,
      "t": 550106.2451166684,
      "d": 504.4248249999946,
      "v": 108
    },
    {
      "midi": 78,
      "hit": false,
      "t": 550106.2451166684,
      "d": 557.5221750000492,
      "v": 116
    },
    {
      "midi": 81,
      "hit": false,
      "t": 550115.0946750017,
      "d": 530.9735000000801,
      "v": 101
    },
    {
      "midi": 62,
      "hit": false,
      "t": 550159.3424666673,
      "d": 194.6902833333006,
      "v": 108
    },
    {
      "midi": 57,
      "hit": false,
      "t": 550531.0239166672,
      "d": 203.53984166670125,
      "v": 95
    },
    {
      "midi": 86,
      "hit": false,
      "t": 550628.3690583351,
      "d": 106.19469999999274,
      "v": 95
    },
    {
      "midi": 54,
      "hit": false,
      "t": 550885.0062500006,
      "d": 230.08851666667033,
      "v": 108
    },
    {
      "midi": 78,
      "hit": false,
      "t": 551123.9443250018,
      "d": 274.33630833320785,
      "v": 108
    },
    {
      "midi": 74,
      "hit": false,
      "t": 551132.7938833351,
      "d": 256.6371916666394,
      "v": 108
    },
    {
      "midi": 50,
      "hit": false,
      "t": 551185.8912333339,
      "d": 292.0354250000091,
      "v": 108
    },
    {
      "midi": 78,
      "hit": false,
      "t": 551663.767383335,
      "d": 176.99116666661575,
      "v": 116
    },
    {
      "midi": 74,
      "hit": false,
      "t": 551663.767383335,
      "d": 194.6902833333006,
      "v": 108
    },
    {
      "midi": 81,
      "hit": false,
      "t": 551663.767383335,
      "d": 212.38939999998547,
      "v": 101
    },
    {
      "midi": 45,
      "hit": false,
      "t": 551725.7142916672,
      "d": 327.43365833337884,
      "v": 95
    },
    {
      "midi": 78,
      "hit": false,
      "t": 552203.5904416684,
      "d": 663.7168749999255,
      "v": 116
    },
    {
      "midi": 74,
      "hit": false,
      "t": 552203.5904416684,
      "d": 690.2655499998946,
      "v": 108
    },
    {
      "midi": 81,
      "hit": false,
      "t": 552203.5904416684,
      "d": 690.2655499998946,
      "v": 108
    },
    {
      "midi": 83,
      "hit": false,
      "t": 552212.4400000017,
      "d": 681.4159916666104,
      "v": 108
    },
    {
      "midi": 38,
      "hit": false,
      "t": 552230.1391166672,
      "d": 522.123941666563,
      "v": 90
    },
    {
      "midi": 45,
      "hit": false,
      "t": 552230.1391166672,
      "d": 522.123941666563,
      "v": 85
    },
    {
      "midi": 50,
      "hit": false,
      "t": 552230.1391166672,
      "d": 522.123941666563,
      "v": 95
    },
    {
      "midi": 54,
      "hit": false,
      "t": 552743.4135000005,
      "d": 1053.0974416665267,
      "v": 85
    },
    {
      "midi": 57,
      "hit": false,
      "t": 552761.1126166671,
      "d": 1053.0974416666431,
      "v": 85
    },
    {
      "midi": 62,
      "hit": false,
      "t": 552761.1126166671,
      "d": 1053.0974416666431,
      "v": 90
    },
    {
      "midi": 78,
      "hit": false,
      "t": 553221.2896500017,
      "d": 557.5221749999328,
      "v": 116
    },
    {
      "midi": 81,
      "hit": false,
      "t": 553230.139208335,
      "d": 566.3717333333334,
      "v": 108
    },
    {
      "midi": 83,
      "hit": false,
      "t": 553230.139208335,
      "d": 566.3717333333334,
      "v": 108
    },
    {
      "midi": 74,
      "hit": false,
      "t": 553230.139208335,
      "d": 575.2212916666176,
      "v": 108
    },
    {
      "midi": 57,
      "hit": false,
      "t": 553823.059616667,
      "d": 1053.0974416666431,
      "v": 90
    },
    {
      "midi": 62,
      "hit": false,
      "t": 553823.059616667,
      "d": 1053.0974416666431,
      "v": 90
    },
    {
      "midi": 66,
      "hit": false,
      "t": 553823.059616667,
      "d": 1053.0974416666431,
      "v": 101
    },
    {
      "midi": 78,
      "hit": false,
      "t": 554053.1481333349,
      "d": 123.89381666656118,
      "v": 108
    },
    {
      "midi": 74,
      "hit": false,
      "t": 554061.9976916682,
      "d": 88.49558333330788,
      "v": 108
    },
    {
      "midi": 81,
      "hit": false,
      "t": 554061.9976916682,
      "d": 132.74337499996182,
      "v": 101
    },
    {
      "midi": 83,
      "hit": false,
      "t": 554061.9976916682,
      "d": 132.74337499996182,
      "v": 108
    },
    {
      "midi": 81,
      "hit": false,
      "t": 554247.8384166682,
      "d": 637.1681999999564,
      "v": 108
    },
    {
      "midi": 78,
      "hit": false,
      "t": 554247.8384166682,
      "d": 646.0177583332406,
      "v": 116
    },
    {
      "midi": 74,
      "hit": false,
      "t": 554247.8384166682,
      "d": 654.8673166665249,
      "v": 108
    },
    {
      "midi": 83,
      "hit": false,
      "t": 554247.8384166682,
      "d": 672.5664333332097,
      "v": 108
    },
    {
      "midi": 62,
      "hit": false,
      "t": 554885.0066166669,
      "d": 522.1239416666795,
      "v": 85
    },
    {
      "midi": 66,
      "hit": false,
      "t": 554885.0066166669,
      "d": 522.1239416666795,
      "v": 108
    },
    {
      "midi": 69,
      "hit": false,
      "t": 554885.0066166669,
      "d": 522.1239416666795,
      "v": 95
    },
    {
      "midi": 78,
      "hit": false,
      "t": 555345.1836500014,
      "d": 212.38939999998547,
      "v": 108
    },
    {
      "midi": 74,
      "hit": false,
      "t": 555362.8827666681,
      "d": 212.38939999998547,
      "v": 101
    },
    {
      "midi": 78,
      "hit": false,
      "t": 555902.7058250015,
      "d": 150.44249166664667,
      "v": 108
    },
    {
      "midi": 80,
      "hit": false,
      "t": 555902.7058250015,
      "d": 176.99116666661575,
      "v": 108
    },
    {
      "midi": 74,
      "hit": false,
      "t": 555911.5553833348,
      "d": 141.59293333336245,
      "v": 101
    },
    {
      "midi": 78,
      "hit": false,
      "t": 556442.5288833347,
      "d": 592.9204083333025,
      "v": 116
    },
    {
      "midi": 81,
      "hit": false,
      "t": 556442.5288833347,
      "d": 628.3186416665558,
      "v": 108
    },
    {
      "midi": 74,
      "hit": false,
      "t": 556451.378441668,
      "d": 592.9204083333025,
      "v": 108
    },
    {
      "midi": 35,
      "hit": false,
      "t": 556477.9271166669,
      "d": 168.14160833333153,
      "v": 85
    },
    {
      "midi": 42,
      "hit": false,
      "t": 556654.9182833335,
      "d": 168.14160833333153,
      "v": 95
    },
    {
      "midi": 47,
      "hit": false,
      "t": 556831.9094500002,
      "d": 168.14160833333153,
      "v": 90
    },
    {
      "midi": 83,
      "hit": false,
      "t": 556973.5023833347,
      "d": 203.53984166658483,
      "v": 108
    },
    {
      "midi": 50,
      "hit": false,
      "t": 557008.9006166668,
      "d": 168.14160833333153,
      "v": 85
    },
    {
      "midi": 54,
      "hit": false,
      "t": 557185.8917833334,
      "d": 168.14160833333153,
      "v": 90
    },
    {
      "midi": 59,
      "hit": false,
      "t": 557362.88295,
      "d": 168.14160833333153,
      "v": 95
    },
    {
      "midi": 78,
      "hit": false,
      "t": 557513.3254416679,
      "d": 168.14160833333153,
      "v": 108
    },
    {
      "midi": 74,
      "hit": false,
      "t": 557522.1750000012,
      "d": 159.2920500000473,
      "v": 101
    },
    {
      "midi": 62,
      "hit": false,
      "t": 557539.8741166666,
      "d": 522.1239416666795,
      "v": 85
    },
    {
      "midi": 78,
      "hit": false,
      "t": 558035.4493833346,
      "d": 97.34514166670851,
      "v": 108
    },
    {
      "midi": 74,
      "hit": false,
      "t": 558035.4493833346,
      "d": 106.19469999999274,
      "v": 101
    },
    {
      "midi": 80,
      "hit": false,
      "t": 558035.4493833346,
      "d": 123.8938166666776,
      "v": 108
    },
    {
      "midi": 78,
      "hit": false,
      "t": 558566.4228833346,
      "d": 592.9204083333025,
      "v": 116
    },
    {
      "midi": 74,
      "hit": false,
      "t": 558575.2724416679,
      "d": 566.3717333333334,
      "v": 108
    },
    {
      "midi": 81,
      "hit": false,
      "t": 558575.2724416679,
      "d": 610.6195249999873,
      "v": 108
    },
    {
      "midi": 40,
      "hit": false,
      "t": 558601.8211166667,
      "d": 203.53984166670125,
      "v": 95
    },
    {
      "midi": 47,
      "hit": false,
      "t": 558814.2105166666,
      "d": 203.53984166670125,
      "v": 95
    },
    {
      "midi": 52,
      "hit": false,
      "t": 559026.5999166666,
      "d": 203.53984166670125,
      "v": 95
    },
    {
      "midi": 83,
      "hit": false,
      "t": 559106.2459416678,
      "d": 176.99116666673217,
      "v": 108
    },
    {
      "midi": 56,
      "hit": false,
      "t": 559238.9893166666,
      "d": 203.53984166670125,
      "v": 108
    },
    {
      "midi": 62,
      "hit": false,
      "t": 559451.3787166666,
      "d": 203.53984166670125,
      "v": 101
    },
    {
      "midi": 78,
      "hit": false,
      "t": 559637.2194416679,
      "d": 194.6902833333006,
      "v": 108
    },
    {
      "midi": 74,
      "hit": false,
      "t": 559646.0690000012,
      "d": 159.2920500000473,
      "v": 101
    },
    {
      "midi": 66,
      "hit": false,
      "t": 559663.7681166666,
      "d": 522.1239416666795,
      "v": 108
    },
    {
      "midi": 78,
      "hit": false,
      "t": 560168.1929416679,
      "d": 106.19469999999274,
      "v": 108
    },
    {
      "midi": 80,
      "hit": false,
      "t": 560168.1929416679,
      "d": 123.8938166666776,
      "v": 108
    },
    {
      "midi": 74,
      "hit": false,
      "t": 560177.0425000011,
      "d": 123.8938166666776,
      "v": 101
    },
    {
      "midi": 33,
      "hit": false,
      "t": 560725.7151166666,
      "d": 522.1239416666795,
      "v": 95
    },
    {
      "midi": 40,
      "hit": false,
      "t": 560725.7151166666,
      "d": 522.1239416666795,
      "v": 101
    },
    {
      "midi": 45,
      "hit": false,
      "t": 560725.7151166666,
      "d": 522.1239416666795,
      "v": 95
    },
    {
      "midi": 74,
      "hit": false,
      "t": 560725.7151166678,
      "d": 646.0177583332406,
      "v": 116
    },
    {
      "midi": 69,
      "hit": false,
      "t": 560725.7151166678,
      "d": 672.5664333332097,
      "v": 116
    },
    {
      "midi": 81,
      "hit": false,
      "t": 560725.7151166678,
      "d": 707.964666666463,
      "v": 108
    },
    {
      "midi": 76,
      "hit": false,
      "t": 560734.5646750011,
      "d": 690.2655499998946,
      "v": 108
    },
    {
      "midi": 52,
      "hit": false,
      "t": 561256.6886166666,
      "d": 1053.0974416666431,
      "v": 95
    },
    {
      "midi": 57,
      "hit": false,
      "t": 561256.6886166666,
      "d": 1053.0974416666431,
      "v": 101
    },
    {
      "midi": 61,
      "hit": false,
      "t": 561256.6886166666,
      "d": 1053.0974416666431,
      "v": 95
    },
    {
      "midi": 81,
      "hit": false,
      "t": 561796.5116750009,
      "d": 495.5752666667104,
      "v": 108
    },
    {
      "midi": 69,
      "hit": false,
      "t": 561796.5116750009,
      "d": 513.2743833333952,
      "v": 116
    },
    {
      "midi": 73,
      "hit": false,
      "t": 561796.5116750009,
      "d": 522.1239416666795,
      "v": 116
    },
    {
      "midi": 76,
      "hit": false,
      "t": 561814.2107916676,
      "d": 504.4248249999946,
      "v": 108
    },
    {
      "midi": 57,
      "hit": false,
      "t": 562318.6356166665,
      "d": 1053.0974416666431,
      "v": 95
    },
    {
      "midi": 64,
      "hit": false,
      "t": 562318.6356166665,
      "d": 1053.0974416666431,
      "v": 108
    },
    {
      "midi": 69,
      "hit": false,
      "t": 562575.2728083342,
      "d": 115.04425833327696,
      "v": 108
    },
    {
      "midi": 73,
      "hit": false,
      "t": 562575.2728083342,
      "d": 123.89381666656118,
      "v": 116
    },
    {
      "midi": 81,
      "hit": false,
      "t": 562575.2728083342,
      "d": 132.7433749998454,
      "v": 101
    },
    {
      "midi": 76,
      "hit": false,
      "t": 562575.2728083342,
      "d": 159.29204999981448,
      "v": 101
    },
    {
      "midi": 69,
      "hit": false,
      "t": 562778.8126500007,
      "d": 681.4159916666104,
      "v": 95
    },
    {
      "midi": 73,
      "hit": false,
      "t": 562778.8126500007,
      "d": 690.2655499998946,
      "v": 116
    },
    {
      "midi": 76,
      "hit": false,
      "t": 562778.8126500007,
      "d": 716.8142249998637,
      "v": 116
    },
    {
      "midi": 81,
      "hit": false,
      "t": 562778.8126500007,
      "d": 752.2124583332334,
      "v": 101
    },
    {
      "midi": 61,
      "hit": false,
      "t": 563354.0339416665,
      "d": 17.69911666668486,
      "v": 95
    },
    {
      "midi": 64,
      "hit": false,
      "t": 563380.5826166664,
      "d": 522.1239416666795,
      "v": 101
    },
    {
      "midi": 69,
      "hit": false,
      "t": 563380.5826166664,
      "d": 522.1239416666795,
      "v": 101
    },
    {
      "midi": 85,
      "hit": false,
      "t": 564424.8305000006,
      "d": 150.44249166664667,
      "v": 101
    },
    {
      "midi": 86,
      "hit": false,
      "t": 564575.2729916673,
      "d": 247.78763333323877,
      "v": 70
    },
    {
      "midi": 85,
      "hit": false,
      "t": 564752.2641583339,
      "d": 159.2920499999309,
      "v": 101
    },
    {
      "midi": 83,
      "hit": false,
      "t": 564929.2553250005,
      "d": 592.9204083333025,
      "v": 101
    },
    {
      "midi": 43,
      "hit": false,
      "t": 564973.5031166665,
      "d": 256.6371916666394,
      "v": 108
    },
    {
      "midi": 50,
      "hit": false,
      "t": 564973.5031166665,
      "d": 256.6371916666394,
      "v": 108
    },
    {
      "midi": 55,
      "hit": false,
      "t": 565238.9898666664,
      "d": 256.6371916666394,
      "v": 85
    },
    {
      "midi": 86,
      "hit": false,
      "t": 565477.9279416671,
      "d": 194.6902833333006,
      "v": 101
    },
    {
      "midi": 59,
      "hit": false,
      "t": 565504.4766166663,
      "d": 256.6371916666394,
      "v": 85
    },
    {
      "midi": 62,
      "hit": false,
      "t": 565769.9633666662,
      "d": 256.6371916666394,
      "v": 90
    },
    {
      "midi": 86,
      "hit": false,
      "t": 566017.7510000004,
      "d": 247.7876333333552,
      "v": 108
    },
    {
      "midi": 91,
      "hit": false,
      "t": 566017.7510000004,
      "d": 274.33630833332427,
      "v": 101
    },
    {
      "midi": 83,
      "hit": false,
      "t": 566026.6005583337,
      "d": 221.2389583333861,
      "v": 95
    },
    {
      "midi": 67,
      "hit": false,
      "t": 566035.4501166662,
      "d": 203.53984166670125,
      "v": 95
    },
    {
      "midi": 62,
      "hit": false,
      "t": 566247.8395166661,
      "d": 203.53984166670125,
      "v": 85
    },
    {
      "midi": 59,
      "hit": false,
      "t": 566460.2289166661,
      "d": 203.53984166670125,
      "v": 80
    },
    {
      "midi": 95,
      "hit": false,
      "t": 566531.0253833337,
      "d": 168.14160833333153,
      "v": 108
    },
    {
      "midi": 83,
      "hit": false,
      "t": 566531.0253833337,
      "d": 194.6902833333006,
      "v": 108
    },
    {
      "midi": 86,
      "hit": false,
      "t": 566531.0253833337,
      "d": 203.53984166658483,
      "v": 108
    },
    {
      "midi": 55,
      "hit": false,
      "t": 566672.6183166661,
      "d": 203.53984166670125,
      "v": 90
    },
    {
      "midi": 50,
      "hit": false,
      "t": 566885.0077166661,
      "d": 203.53984166670125,
      "v": 80
    },
    {
      "midi": 93,
      "hit": false,
      "t": 567061.9988833336,
      "d": 504.4248249999946,
      "v": 108
    },
    {
      "midi": 86,
      "hit": false,
      "t": 567061.9988833336,
      "d": 557.5221749999328,
      "v": 108
    },
    {
      "midi": 83,
      "hit": false,
      "t": 567070.8484416669,
      "d": 619.4690833332716,
      "v": 101
    },
    {
      "midi": 43,
      "hit": false,
      "t": 567097.3971166661,
      "d": 203.53984166670125,
      "v": 90
    },
    {
      "midi": 50,
      "hit": false,
      "t": 567309.7865166661,
      "d": 203.53984166670125,
      "v": 95
    },
    {
      "midi": 55,
      "hit": false,
      "t": 567522.175916666,
      "d": 203.53984166670125,
      "v": 95
    },
    {
      "midi": 91,
      "hit": false,
      "t": 567592.9723833336,
      "d": 141.59293333324604,
      "v": 101
    },
    {
      "midi": 59,
      "hit": false,
      "t": 567734.565316666,
      "d": 203.53984166670125,
      "v": 85
    },
    {
      "midi": 62,
      "hit": false,
      "t": 567946.954716666,
      "d": 203.53984166670125,
      "v": 101
    },
    {
      "midi": 79,
      "hit": false,
      "t": 568141.6450000001,
      "d": 221.2389583333861,
      "v": 95
    },
    {
      "midi": 83,
      "hit": false,
      "t": 568141.6450000001,
      "d": 221.2389583333861,
      "v": 101
    },
    {
      "midi": 67,
      "hit": false,
      "t": 568159.344116666,
      "d": 522.1239416666795,
      "v": 90
    },
    {
      "midi": 79,
      "hit": false,
      "t": 568646.0698250001,
      "d": 194.6902833333006,
      "v": 101
    },
    {
      "midi": 86,
      "hit": false,
      "t": 568646.0698250001,
      "d": 194.6902833333006,
      "v": 108
    },
    {
      "midi": 83,
      "hit": false,
      "t": 568646.0698250001,
      "d": 203.53984166658483,
      "v": 101
    },
    {
      "midi": 79,
      "hit": false,
      "t": 569194.7424416667,
      "d": 548.6726166665321,
      "v": 101
    },
    {
      "midi": 86,
      "hit": false,
      "t": 569203.592,
      "d": 504.4248249999946,
      "v": 101
    },
    {
      "midi": 90,
      "hit": false,
      "t": 569203.592,
      "d": 504.4248249999946,
      "v": 116
    },
    {
      "midi": 83,
      "hit": false,
      "t": 569203.592,
      "d": 513.2743833332788,
      "v": 101
    },
    {
      "midi": 40,
      "hit": false,
      "t": 569221.291116666,
      "d": 522.1239416666795,
      "v": 101
    },
    {
      "midi": 47,
      "hit": false,
      "t": 569221.291116666,
      "d": 522.1239416666795,
      "v": 95
    },
    {
      "midi": 52,
      "hit": false,
      "t": 569221.291116666,
      "d": 522.1239416666795,
      "v": 95
    },
    {
      "midi": 55,
      "hit": false,
      "t": 569725.715941666,
      "d": 1053.0974416666431,
      "v": 95
    },
    {
      "midi": 59,
      "hit": false,
      "t": 569752.264616666,
      "d": 1053.0974416666431,
      "v": 90
    },
    {
      "midi": 62,
      "hit": false,
      "t": 569752.264616666,
      "d": 1053.0974416666431,
      "v": 101
    },
    {
      "midi": 66,
      "hit": false,
      "t": 569752.264616666,
      "d": 1053.0974416666431,
      "v": 108
    },
    {
      "midi": 90,
      "hit": false,
      "t": 570203.5920916665,
      "d": 415.9292416665703,
      "v": 116
    },
    {
      "midi": 79,
      "hit": false,
      "t": 570212.4416499998,
      "d": 469.02659166650847,
      "v": 101
    },
    {
      "midi": 83,
      "hit": false,
      "t": 570221.2912083331,
      "d": 424.77879999997094,
      "v": 101
    },
    {
      "midi": 86,
      "hit": false,
      "t": 570221.2912083331,
      "d": 433.62835833325516,
      "v": 101
    },
    {
      "midi": 59,
      "hit": false,
      "t": 570814.2116166659,
      "d": 1053.0974416666431,
      "v": 95
    },
    {
      "midi": 62,
      "hit": false,
      "t": 570814.2116166659,
      "d": 1053.0974416666431,
      "v": 95
    },
    {
      "midi": 66,
      "hit": false,
      "t": 570814.2116166659,
      "d": 1053.0974416666431,
      "v": 108
    },
    {
      "midi": 67,
      "hit": false,
      "t": 570814.2116166659,
      "d": 1053.0974416666431,
      "v": 101
    },
    {
      "midi": 90,
      "hit": false,
      "t": 571000.0523416663,
      "d": 106.19469999987632,
      "v": 116
    },
    {
      "midi": 79,
      "hit": false,
      "t": 571008.9018999996,
      "d": 106.19469999987632,
      "v": 95
    },
    {
      "midi": 86,
      "hit": false,
      "t": 571008.9018999996,
      "d": 132.7433749998454,
      "v": 101
    },
    {
      "midi": 83,
      "hit": false,
      "t": 571017.7514583329,
      "d": 115.04425833327696,
      "v": 101
    },
    {
      "midi": 86,
      "hit": false,
      "t": 571194.7426249995,
      "d": 522.1239416666795,
      "v": 95
    },
    {
      "midi": 83,
      "hit": false,
      "t": 571194.7426249995,
      "d": 557.5221750000492,
      "v": 108
    },
    {
      "midi": 90,
      "hit": false,
      "t": 571194.7426249995,
      "d": 575.221291666734,
      "v": 125
    },
    {
      "midi": 79,
      "hit": false,
      "t": 571194.7426249995,
      "d": 601.7699666667031,
      "v": 95
    },
    {
      "midi": 62,
      "hit": false,
      "t": 571876.1586166659,
      "d": 522.1239416666795,
      "v": 101
    },
    {
      "midi": 66,
      "hit": false,
      "t": 571876.1586166659,
      "d": 522.1239416666795,
      "v": 108
    },
    {
      "midi": 67,
      "hit": false,
      "t": 571876.1586166659,
      "d": 522.1239416666795,
      "v": 101
    },
    {
      "midi": 71,
      "hit": false,
      "t": 571876.1586166659,
      "d": 522.1239416666795,
      "v": 101
    },
    {
      "midi": 79,
      "hit": false,
      "t": 572362.8843249995,
      "d": 256.6371916666394,
      "v": 101
    },
    {
      "midi": 83,
      "hit": false,
      "t": 572362.8843249995,
      "d": 283.1858666666085,
      "v": 108
    },
    {
      "midi": 85,
      "hit": false,
      "t": 572902.7073833328,
      "d": 203.53984166646842,
      "v": 116
    },
    {
      "midi": 83,
      "hit": false,
      "t": 572911.5569416661,
      "d": 176.99116666661575,
      "v": 95
    },
    {
      "midi": 79,
      "hit": false,
      "t": 572911.5569416661,
      "d": 185.84072499989998,
      "v": 95
    },
    {
      "midi": 83,
      "hit": false,
      "t": 573460.2295583326,
      "d": 610.6195249999873,
      "v": 108
    },
    {
      "midi": 79,
      "hit": false,
      "t": 573460.2295583326,
      "d": 619.4690833332716,
      "v": 101
    },
    {
      "midi": 86,
      "hit": false,
      "t": 573460.2295583326,
      "d": 637.1681999999564,
      "v": 108
    },
    {
      "midi": 45,
      "hit": false,
      "t": 573469.0791166659,
      "d": 203.53984166670125,
      "v": 90
    },
    {
      "midi": 52,
      "hit": false,
      "t": 573681.4685166659,
      "d": 203.53984166670125,
      "v": 101
    },
    {
      "midi": 57,
      "hit": false,
      "t": 573893.8579166658,
      "d": 203.53984166670125,
      "v": 101
    },
    {
      "midi": 88,
      "hit": false,
      "t": 573991.2030583326,
      "d": 230.08851666667033,
      "v": 116
    },
    {
      "midi": 62,
      "hit": false,
      "t": 574106.2473166658,
      "d": 203.53984166670125,
      "v": 101
    },
    {
      "midi": 67,
      "hit": false,
      "t": 574318.6367166658,
      "d": 203.53984166670125,
      "v": 101
    },
    {
      "midi": 71,
      "hit": false,
      "t": 574531.0261166658,
      "d": 522.1239416666795,
      "v": 101
    },
    {
      "midi": 83,
      "hit": false,
      "t": 574531.0261166659,
      "d": 212.38939999998547,
      "v": 101
    },
    {
      "midi": 79,
      "hit": false,
      "t": 574531.0261166659,
      "d": 221.2389583332697,
      "v": 101
    },
    {
      "midi": 85,
      "hit": false,
      "t": 575053.1500583325,
      "d": 185.84072499989998,
      "v": 116
    },
    {
      "midi": 79,
      "hit": false,
      "t": 575061.9996166658,
      "d": 176.99116666661575,
      "v": 95
    },
    {
      "midi": 83,
      "hit": false,
      "t": 575061.9996166658,
      "d": 176.99116666661575,
      "v": 101
    },
    {
      "midi": 79,
      "hit": false,
      "t": 575592.9731166657,
      "d": 566.3717333333334,
      "v": 101
    },
    {
      "midi": 83,
      "hit": false,
      "t": 575592.9731166657,
      "d": 575.2212916666176,
      "v": 108
    },
    {
      "midi": 86,
      "hit": false,
      "t": 575592.9731166657,
      "d": 610.6195249999873,
      "v": 108
    },
    {
      "midi": 45,
      "hit": false,
      "t": 575592.9731166658,
      "d": 203.53984166670125,
      "v": 95
    },
    {
      "midi": 52,
      "hit": false,
      "t": 575805.3625166658,
      "d": 203.53984166670125,
      "v": 95
    },
    {
      "midi": 57,
      "hit": false,
      "t": 576017.7519166658,
      "d": 203.53984166670125,
      "v": 95
    },
    {
      "midi": 88,
      "hit": false,
      "t": 576115.0970583324,
      "d": 176.99116666661575,
      "v": 108
    },
    {
      "midi": 61,
      "hit": false,
      "t": 576256.6899916659,
      "d": 203.53984166670125,
      "v": 95
    },
    {
      "midi": 67,
      "hit": false,
      "t": 576442.5307166659,
      "d": 203.53984166670125,
      "v": 95
    },
    {
      "midi": 71,
      "hit": false,
      "t": 576654.9201166659,
      "d": 522.1239416666795,
      "v": 101
    },
    {
      "midi": 83,
      "hit": false,
      "t": 576672.6192333323,
      "d": 221.2389583332697,
      "v": 108
    },
    {
      "midi": 79,
      "hit": false,
      "t": 576681.4687916656,
      "d": 203.53984166670125,
      "v": 95
    },
    {
      "midi": 85,
      "hit": false,
      "t": 577168.1944999989,
      "d": 115.04425833327696,
      "v": 116
    },
    {
      "midi": 83,
      "hit": false,
      "t": 577177.0440583322,
      "d": 79.64602500002366,
      "v": 101
    },
    {
      "midi": 79,
      "hit": false,
      "t": 577177.0440583322,
      "d": 115.04425833327696,
      "v": 95
    },
    {
      "midi": 74,
      "hit": false,
      "t": 577708.0175583322,
      "d": 566.371733333217,
      "v": 116
    },
    {
      "midi": 86,
      "hit": false,
      "t": 577708.0175583322,
      "d": 566.371733333217,
      "v": 108
    },
    {
      "midi": 79,
      "hit": false,
      "t": 577716.8671166655,
      "d": 530.9734999999637,
      "v": 108
    },
    {
      "midi": 81,
      "hit": false,
      "t": 577716.8671166655,
      "d": 575.2212916666176,
      "v": 108
    },
    {
      "midi": 38,
      "hit": false,
      "t": 577716.8671166659,
      "d": 522.1239416666795,
      "v": 108
    },
    {
      "midi": 45,
      "hit": false,
      "t": 577716.8671166659,
      "d": 522.1239416666795,
      "v": 116
    },
    {
      "midi": 50,
      "hit": false,
      "t": 577716.8671166659,
      "d": 522.1239416666795,
      "v": 108
    },
    {
      "midi": 57,
      "hit": false,
      "t": 578247.8406166659,
      "d": 1053.0974416666431,
      "v": 116
    },
    {
      "midi": 62,
      "hit": false,
      "t": 578247.8406166659,
      "d": 1053.0974416666431,
      "v": 116
    },
    {
      "midi": 66,
      "hit": false,
      "t": 578247.8406166659,
      "d": 1053.0974416666431,
      "v": 116
    },
    {
      "midi": 78,
      "hit": false,
      "t": 578743.4158833321,
      "d": 504.4248249999946,
      "v": 116
    },
    {
      "midi": 74,
      "hit": false,
      "t": 578752.2654416654,
      "d": 495.5752666667104,
      "v": 108
    },
    {
      "midi": 86,
      "hit": false,
      "t": 578752.2654416654,
      "d": 495.5752666667104,
      "v": 108
    },
    {
      "midi": 81,
      "hit": false,
      "t": 578752.2654416654,
      "d": 522.1239416666795,
      "v": 108
    },
    {
      "midi": 62,
      "hit": false,
      "t": 579309.7876166658,
      "d": 1053.0974416666431,
      "v": 116
    },
    {
      "midi": 66,
      "hit": false,
      "t": 579309.7876166658,
      "d": 1053.0974416666431,
      "v": 116
    },
    {
      "midi": 69,
      "hit": false,
      "t": 579309.7876166658,
      "d": 1053.0974416666431,
      "v": 108
    },
    {
      "midi": 74,
      "hit": false,
      "t": 579557.5752499987,
      "d": 97.3451416665921,
      "v": 116
    },
    {
      "midi": 78,
      "hit": false,
      "t": 579557.5752499987,
      "d": 97.3451416665921,
      "v": 116
    },
    {
      "midi": 81,
      "hit": false,
      "t": 579557.5752499987,
      "d": 141.59293333324604,
      "v": 108
    },
    {
      "midi": 86,
      "hit": false,
      "t": 579566.424808332,
      "d": 123.8938166666776,
      "v": 108
    },
    {
      "midi": 78,
      "hit": false,
      "t": 579743.4159749986,
      "d": 1008.8496499999892,
      "v": 116
    },
    {
      "midi": 74,
      "hit": false,
      "t": 579743.4159749986,
      "d": 1026.548766666674,
      "v": 116
    },
    {
      "midi": 86,
      "hit": false,
      "t": 579743.4159749986,
      "d": 1044.247883333359,
      "v": 108
    },
    {
      "midi": 81,
      "hit": false,
      "t": 579752.2655333319,
      "d": 1017.6992083333898,
      "v": 101
    },
    {
      "midi": 66,
      "hit": false,
      "t": 580371.7346166658,
      "d": 522.1239416666795,
      "v": 116
    },
    {
      "midi": 69,
      "hit": false,
      "t": 580371.7346166658,
      "d": 522.1239416666795,
      "v": 108
    },
    {
      "midi": 74,
      "hit": false,
      "t": 580371.7346166658,
      "d": 522.1239416666795,
      "v": 108
    },
    {
      "midi": 86,
      "hit": false,
      "t": 581371.734708332,
      "d": 176.99116666661575,
      "v": 101
    },
    {
      "midi": 88,
      "hit": false,
      "t": 581548.7258749986,
      "d": 274.3363083334407,
      "v": 80
    },
    {
      "midi": 86,
      "hit": false,
      "t": 581769.964833332,
      "d": 168.14160833333153,
      "v": 95
    },
    {
      "midi": 45,
      "hit": false,
      "t": 581964.6551166658,
      "d": 168.14160833333153,
      "v": 110
    },
    {
      "midi": 38,
      "hit": false,
      "t": 581964.6551166658,
      "d": 203.53984166670125,
      "v": 98
    },
    {
      "midi": 84,
      "hit": false,
      "t": 582318.6374499986,
      "d": 203.53984166670125,
      "v": 78
    },
    {
      "midi": 78,
      "hit": false,
      "t": 582327.4870083319,
      "d": 141.59293333336245,
      "v": 62
    },
    {
      "midi": 45,
      "hit": false,
      "t": 582495.6286166658,
      "d": 123.8938166666776,
      "v": 98
    },
    {
      "midi": 33,
      "hit": false,
      "t": 582495.6286166658,
      "d": 176.99116666673217,
      "v": 88
    },
    {
      "midi": 78,
      "hit": false,
      "t": 582769.9649249987,
      "d": 168.14160833333153,
      "v": 78
    },
    {
      "midi": 88,
      "hit": false,
      "t": 582769.9649249987,
      "d": 185.8407250000164,
      "v": 78
    },
    {
      "midi": 84,
      "hit": false,
      "t": 582769.9649249987,
      "d": 194.6902833333006,
      "v": 78
    },
    {
      "midi": 45,
      "hit": false,
      "t": 583026.6021166659,
      "d": 150.44249166664667,
      "v": 98
    },
    {
      "midi": 38,
      "hit": false,
      "t": 583026.6021166659,
      "d": 176.99116666661575,
      "v": 98
    },
    {
      "midi": 78,
      "hit": false,
      "t": 583292.0888666654,
      "d": 159.2920499999309,
      "v": 78
    },
    {
      "midi": 84,
      "hit": false,
      "t": 583300.9384249987,
      "d": 150.44249166664667,
      "v": 78
    },
    {
      "midi": 86,
      "hit": false,
      "t": 583300.9384249987,
      "d": 159.2920499999309,
      "v": 70
    },
    {
      "midi": 45,
      "hit": false,
      "t": 583557.5756166659,
      "d": 132.74337499996182,
      "v": 98
    },
    {
      "midi": 33,
      "hit": false,
      "t": 583557.5756166659,
      "d": 159.2920499999309,
      "v": 88
    },
    {
      "midi": 78,
      "hit": false,
      "t": 583796.5136916653,
      "d": 141.59293333324604,
      "v": 88
    },
    {
      "midi": 90,
      "hit": false,
      "t": 583796.5136916653,
      "d": 176.99116666661575,
      "v": 98
    },
    {
      "midi": 84,
      "hit": false,
      "t": 583805.3632499985,
      "d": 168.14160833333153,
      "v": 70
    },
    {
      "midi": 45,
      "hit": false,
      "t": 584088.5491166658,
      "d": 159.2920500000473,
      "v": 110
    },
    {
      "midi": 38,
      "hit": false,
      "t": 584088.5491166658,
      "d": 185.8407250000164,
      "v": 98
    },
    {
      "midi": 78,
      "hit": false,
      "t": 584354.0358666652,
      "d": 176.99116666661575,
      "v": 70
    },
    {
      "midi": 84,
      "hit": false,
      "t": 584354.0358666652,
      "d": 212.38939999998547,
      "v": 78
    },
    {
      "midi": 45,
      "hit": false,
      "t": 584619.5226166658,
      "d": 132.74337499996182,
      "v": 98
    },
    {
      "midi": 33,
      "hit": false,
      "t": 584619.5226166658,
      "d": 159.2920499999309,
      "v": 88
    },
    {
      "midi": 78,
      "hit": false,
      "t": 584867.3102499985,
      "d": 159.2920499999309,
      "v": 88
    },
    {
      "midi": 88,
      "hit": false,
      "t": 584876.1598083318,
      "d": 176.99116666661575,
      "v": 78
    },
    {
      "midi": 84,
      "hit": false,
      "t": 584876.1598083318,
      "d": 194.6902833333006,
      "v": 78
    },
    {
      "midi": 38,
      "hit": false,
      "t": 585150.4961166658,
      "d": 159.2920500000473,
      "v": 88
    },
    {
      "midi": 45,
      "hit": false,
      "t": 585150.4961166658,
      "d": 159.2920500000473,
      "v": 98
    },
    {
      "midi": 78,
      "hit": false,
      "t": 585407.1333083317,
      "d": 159.2920499999309,
      "v": 78
    },
    {
      "midi": 84,
      "hit": false,
      "t": 585415.982866665,
      "d": 185.8407250000164,
      "v": 70
    },
    {
      "midi": 86,
      "hit": false,
      "t": 585415.982866665,
      "d": 185.8407250000164,
      "v": 78
    },
    {
      "midi": 45,
      "hit": false,
      "t": 585681.4696166659,
      "d": 132.74337499996182,
      "v": 98
    },
    {
      "midi": 33,
      "hit": false,
      "t": 585681.4696166659,
      "d": 176.99116666661575,
      "v": 88
    },
    {
      "midi": 78,
      "hit": false,
      "t": 585929.2572499984,
      "d": 150.44249166664667,
      "v": 88
    },
    {
      "midi": 90,
      "hit": false,
      "t": 585929.2572499984,
      "d": 176.99116666661575,
      "v": 110
    },
    {
      "midi": 84,
      "hit": false,
      "t": 585946.9563666651,
      "d": 132.74337499996182,
      "v": 62
    },
    {
      "midi": 86,
      "hit": false,
      "t": 586194.7439999983,
      "d": 530.9734999999637,
      "v": 88
    },
    {
      "midi": 83,
      "hit": false,
      "t": 586194.7439999983,
      "d": 539.8230583332479,
      "v": 98
    },
    {
      "midi": 81,
      "hit": false,
      "t": 586194.7439999983,
      "d": 592.9204083333025,
      "v": 98
    },
    {
      "midi": 45,
      "hit": false,
      "t": 586212.4431166658,
      "d": 194.6902833333006,
      "v": 110
    },
    {
      "midi": 38,
      "hit": false,
      "t": 586212.4431166658,
      "d": 212.38939999998547,
      "v": 98
    },
    {
      "midi": 33,
      "hit": false,
      "t": 586743.4166166658,
      "d": 194.6902833333006,
      "v": 88
    },
    {
      "midi": 86,
      "hit": false,
      "t": 587238.9918833317,
      "d": 522.123941666563,
      "v": 78
    },
    {
      "midi": 79,
      "hit": false,
      "t": 587238.9918833317,
      "d": 530.9734999998473,
      "v": 70
    },
    {
      "midi": 83,
      "hit": false,
      "t": 587247.841441665,
      "d": 539.8230583332479,
      "v": 70
    },
    {
      "midi": 45,
      "hit": false,
      "t": 587274.3901166657,
      "d": 185.8407250000164,
      "v": 98
    },
    {
      "midi": 38,
      "hit": false,
      "t": 587274.3901166657,
      "d": 212.38939999998547,
      "v": 98
    },
    {
      "midi": 33,
      "hit": false,
      "t": 587805.3636166657,
      "d": 203.53984166670125,
      "v": 88
    },
    {
      "midi": 79,
      "hit": false,
      "t": 588035.4521333316,
      "d": 88.49558333330788,
      "v": 70
    },
    {
      "midi": 83,
      "hit": false,
      "t": 588035.4521333316,
      "d": 88.49558333330788,
      "v": 70
    },
    {
      "midi": 86,
      "hit": false,
      "t": 588035.4521333316,
      "d": 88.49558333330788,
      "v": 70
    },
    {
      "midi": 79,
      "hit": false,
      "t": 588265.5406499982,
      "d": 584.0708500000183,
      "v": 62
    },
    {
      "midi": 83,
      "hit": false,
      "t": 588265.5406499982,
      "d": 592.9204083333025,
      "v": 62
    },
    {
      "midi": 86,
      "hit": false,
      "t": 588265.5406499982,
      "d": 610.6195249999873,
      "v": 78
    },
    {
      "midi": 45,
      "hit": false,
      "t": 588336.3371166658,
      "d": 185.8407250000164,
      "v": 98
    },
    {
      "midi": 38,
      "hit": false,
      "t": 588336.3371166658,
      "d": 203.53984166670125,
      "v": 98
    },
    {
      "midi": 33,
      "hit": false,
      "t": 588867.3106166659,
      "d": 185.8407250000164,
      "v": 88
    },
    {
      "midi": 45,
      "hit": false,
      "t": 589398.2841166658,
      "d": 194.6902833333006,
      "v": 98
    },
    {
      "midi": 38,
      "hit": false,
      "t": 589398.2841166658,
      "d": 221.2389583332697,
      "v": 98
    },
    {
      "midi": 33,
      "hit": false,
      "t": 589929.2576166658,
      "d": 185.8407250000164,
      "v": 88
    },
    {
      "midi": 81,
      "hit": false,
      "t": 589955.8062916648,
      "d": 159.2920499999309,
      "v": 55
    },
    {
      "midi": 83,
      "hit": false,
      "t": 590088.5496666648,
      "d": 203.53984166670125,
      "v": 49
    },
    {
      "midi": 81,
      "hit": false,
      "t": 590238.9921583314,
      "d": 185.8407250000164,
      "v": 55
    },
    {
      "midi": 38,
      "hit": false,
      "t": 590460.2311166658,
      "d": 159.2920500000473,
      "v": 78
    },
    {
      "midi": 45,
      "hit": false,
      "t": 590460.2311166658,
      "d": 168.14160833333153,
      "v": 98
    },
    {
      "midi": 73,
      "hit": false,
      "t": 590716.8683083315,
      "d": 176.99116666661575,
      "v": 98
    },
    {
      "midi": 79,
      "hit": false,
      "t": 590725.7178666648,
      "d": 203.53984166670125,
      "v": 78
    },
    {
      "midi": 45,
      "hit": false,
      "t": 590991.2046166657,
      "d": 132.74337499996182,
      "v": 98
    },
    {
      "midi": 33,
      "hit": false,
      "t": 590991.2046166657,
      "d": 185.8407250000164,
      "v": 88
    },
    {
      "midi": 83,
      "hit": false,
      "t": 591212.4435749981,
      "d": 185.8407250000164,
      "v": 78
    },
    {
      "midi": 79,
      "hit": false,
      "t": 591212.4435749981,
      "d": 221.2389583333861,
      "v": 88
    },
    {
      "midi": 73,
      "hit": false,
      "t": 591212.4435749981,
      "d": 256.6371916667558,
      "v": 98
    },
    {
      "midi": 45,
      "hit": false,
      "t": 591522.1781166657,
      "d": 150.44249166664667,
      "v": 98
    },
    {
      "midi": 38,
      "hit": false,
      "t": 591522.1781166657,
      "d": 203.53984166670125,
      "v": 88
    },
    {
      "midi": 73,
      "hit": false,
      "t": 591743.4170749981,
      "d": 203.53984166658483,
      "v": 110
    },
    {
      "midi": 79,
      "hit": false,
      "t": 591752.2666333314,
      "d": 194.6902833333006,
      "v": 78
    },
    {
      "midi": 81,
      "hit": false,
      "t": 591752.2666333314,
      "d": 194.6902833333006,
      "v": 78
    },
    {
      "midi": 45,
      "hit": false,
      "t": 592053.1516166658,
      "d": 141.59293333336245,
      "v": 88
    },
    {
      "midi": 33,
      "hit": false,
      "t": 592053.1516166658,
      "d": 176.99116666673217,
      "v": 88
    },
    {
      "midi": 73,
      "hit": false,
      "t": 592265.5410166647,
      "d": 194.6902833333006,
      "v": 98
    },
    {
      "midi": 79,
      "hit": false,
      "t": 592265.5410166647,
      "d": 203.53984166658483,
      "v": 78
    },
    {
      "midi": 85,
      "hit": false,
      "t": 592265.5410166647,
      "d": 221.2389583332697,
      "v": 110
    },
    {
      "midi": 38,
      "hit": false,
      "t": 592584.1251166658,
      "d": 168.14160833333153,
      "v": 88
    },
    {
      "midi": 45,
      "hit": false,
      "t": 592584.1251166658,
      "d": 168.14160833333153,
      "v": 98
    },
    {
      "midi": 73,
      "hit": false,
      "t": 592823.0631916646,
      "d": 221.2389583333861,
      "v": 98
    },
    {
      "midi": 79,
      "hit": false,
      "t": 592823.0631916646,
      "d": 247.7876333333552,
      "v": 88
    },
    {
      "midi": 45,
      "hit": false,
      "t": 593115.0986166658,
      "d": 150.44249166664667,
      "v": 98
    },
    {
      "midi": 33,
      "hit": false,
      "t": 593115.0986166658,
      "d": 176.99116666661575,
      "v": 88
    },
    {
      "midi": 73,
      "hit": false,
      "t": 593327.4880166646,
      "d": 203.53984166658483,
      "v": 98
    },
    {
      "midi": 83,
      "hit": false,
      "t": 593336.3375749979,
      "d": 212.38939999998547,
      "v": 88
    },
    {
      "midi": 79,
      "hit": false,
      "t": 593336.3375749979,
      "d": 230.08851666667033,
      "v": 88
    },
    {
      "midi": 45,
      "hit": false,
      "t": 593646.0721166658,
      "d": 168.14160833333153,
      "v": 98
    },
    {
      "midi": 38,
      "hit": false,
      "t": 593646.0721166658,
      "d": 194.6902833333006,
      "v": 78
    },
    {
      "midi": 73,
      "hit": false,
      "t": 593885.0101916646,
      "d": 212.38939999998547,
      "v": 88
    },
    {
      "midi": 81,
      "hit": false,
      "t": 593885.0101916646,
      "d": 230.08851666655391,
      "v": 70
    },
    {
      "midi": 79,
      "hit": false,
      "t": 593893.8597499978,
      "d": 212.38939999998547,
      "v": 70
    },
    {
      "midi": 45,
      "hit": false,
      "t": 594177.0456166657,
      "d": 159.2920500000473,
      "v": 98
    },
    {
      "midi": 33,
      "hit": false,
      "t": 594177.0456166657,
      "d": 176.99116666673217,
      "v": 88
    },
    {
      "midi": 73,
      "hit": false,
      "t": 594398.2845749977,
      "d": 132.74337499996182,
      "v": 98
    },
    {
      "midi": 85,
      "hit": false,
      "t": 594398.2845749977,
      "d": 194.6902833333006,
      "v": 110
    },
    {
      "midi": 79,
      "hit": false,
      "t": 594407.134133331,
      "d": 159.2920500000473,
      "v": 78
    },
    {
      "midi": 45,
      "hit": false,
      "t": 594708.0191166658,
      "d": 168.14160833333153,
      "v": 110
    },
    {
      "midi": 38,
      "hit": false,
      "t": 594708.0191166658,
      "d": 203.53984166670125,
      "v": 98
    },
    {
      "midi": 78,
      "hit": false,
      "t": 594725.718233331,
      "d": 424.77879999997094,
      "v": 110
    },
    {
      "midi": 76,
      "hit": false,
      "t": 594725.718233331,
      "d": 469.0265916666249,
      "v": 98
    },
    {
      "midi": 81,
      "hit": false,
      "t": 594734.5677916643,
      "d": 415.9292416666867,
      "v": 98
    },
    {
      "midi": 33,
      "hit": false,
      "t": 595238.9926166659,
      "d": 212.38939999998547,
      "v": 88
    },
    {
      "midi": 78,
      "hit": false,
      "t": 595716.8687666643,
      "d": 592.9204083333025,
      "v": 98
    },
    {
      "midi": 81,
      "hit": false,
      "t": 595716.8687666643,
      "d": 610.6195249999873,
      "v": 78
    },
    {
      "midi": 74,
      "hit": false,
      "t": 595716.8687666643,
      "d": 628.3186416666722,
      "v": 88
    },
    {
      "midi": 45,
      "hit": false,
      "t": 595769.9661166659,
      "d": 159.2920500000473,
      "v": 98
    },
    {
      "midi": 38,
      "hit": false,
      "t": 595769.9661166659,
      "d": 221.2389583333861,
      "v": 98
    },
    {
      "midi": 33,
      "hit": false,
      "t": 596300.939616666,
      "d": 212.38939999998547,
      "v": 88
    },
    {
      "midi": 78,
      "hit": false,
      "t": 596531.028133331,
      "d": 123.8938166666776,
      "v": 88
    },
    {
      "midi": 81,
      "hit": false,
      "t": 596531.028133331,
      "d": 123.8938166666776,
      "v": 70
    },
    {
      "midi": 74,
      "hit": false,
      "t": 596548.7272499977,
      "d": 97.34514166670851,
      "v": 70
    },
    {
      "midi": 78,
      "hit": false,
      "t": 596769.9662083309,
      "d": 690.2655499998946,
      "v": 98
    },
    {
      "midi": 81,
      "hit": false,
      "t": 596769.9662083309,
      "d": 699.1151083331788,
      "v": 88
    },
    {
      "midi": 74,
      "hit": false,
      "t": 596778.8157666642,
      "d": 752.2124583332334,
      "v": 88
    },
    {
      "midi": 45,
      "hit": false,
      "t": 596831.9131166659,
      "d": 185.8407250000164,
      "v": 98
    },
    {
      "midi": 38,
      "hit": false,
      "t": 596831.9131166659,
      "d": 212.38939999998547,
      "v": 88
    },
    {
      "midi": 33,
      "hit": false,
      "t": 597362.8866166659,
      "d": 203.53984166670125,
      "v": 88
    },
    {
      "midi": 45,
      "hit": false,
      "t": 597893.860116666,
      "d": 176.99116666661575,
      "v": 98
    },
    {
      "midi": 38,
      "hit": false,
      "t": 597893.860116666,
      "d": 194.6902833333006,
      "v": 78
    },
    {
      "midi": 33,
      "hit": false,
      "t": 598424.8336166659,
      "d": 203.53984166670125,
      "v": 78
    },
    {
      "midi": 74,
      "hit": false,
      "t": 598451.3822916641,
      "d": 185.8407250000164,
      "v": 98
    },
    {
      "midi": 76,
      "hit": false,
      "t": 598601.8247833308,
      "d": 212.3894000001019,
      "v": 62
    },
    {
      "midi": 74,
      "hit": false,
      "t": 598734.5681583309,
      "d": 230.08851666667033,
      "v": 35
    },
    {
      "midi": 45,
      "hit": false,
      "t": 598955.807116666,
      "d": 185.8407250000164,
      "v": 98
    },
    {
      "midi": 38,
      "hit": false,
      "t": 598955.807116666,
      "d": 212.38939999998547,
      "v": 88
    },
    {
      "midi": 66,
      "hit": false,
      "t": 599238.9929833309,
      "d": 132.74337499996182,
      "v": 88
    },
    {
      "midi": 72,
      "hit": false,
      "t": 599238.9929833309,
      "d": 194.6902833333006,
      "v": 78
    },
    {
      "midi": 33,
      "hit": false,
      "t": 599486.780616666,
      "d": 203.53984166670125,
      "v": 88
    },
    {
      "midi": 66,
      "hit": false,
      "t": 599725.7186916642,
      "d": 176.99116666661575,
      "v": 78
    },
    {
      "midi": 76,
      "hit": false,
      "t": 599734.5682499975,
      "d": 176.99116666661575,
      "v": 55
    },
    {
      "midi": 72,
      "hit": false,
      "t": 599734.5682499975,
      "d": 212.38939999998547,
      "v": 62
    },
    {
      "midi": 45,
      "hit": false,
      "t": 600017.754116666,
      "d": 176.99116666661575,
      "v": 78
    },
    {
      "midi": 38,
      "hit": false,
      "t": 600017.754116666,
      "d": 212.38939999998547,
      "v": 88
    },
    {
      "midi": 66,
      "hit": false,
      "t": 600256.6921916641,
      "d": 168.14160833333153,
      "v": 78
    },
    {
      "midi": 74,
      "hit": false,
      "t": 600256.6921916641,
      "d": 203.53984166670125,
      "v": 78
    },
    {
      "midi": 72,
      "hit": false,
      "t": 600292.0904249975,
      "d": 150.44249166664667,
      "v": 39
    },
    {
      "midi": 33,
      "hit": false,
      "t": 600548.727616666,
      "d": 185.8407250000164,
      "v": 78
    },
    {
      "midi": 78,
      "hit": false,
      "t": 600769.9665749975,
      "d": 247.78763333323877,
      "v": 88
    },
    {
      "midi": 66,
      "hit": false,
      "t": 600778.8161333308,
      "d": 212.38939999998547,
      "v": 98
    },
    {
      "midi": 72,
      "hit": false,
      "t": 600787.6656916641,
      "d": 203.53984166670125,
      "v": 62
    },
    {
      "midi": 45,
      "hit": false,
      "t": 601079.701116666,
      "d": 176.99116666661575,
      "v": 78
    },
    {
      "midi": 38,
      "hit": false,
      "t": 601079.701116666,
      "d": 203.53984166658483,
      "v": 62
    },
    {
      "midi": 66,
      "hit": false,
      "t": 601345.1878666641,
      "d": 221.2389583333861,
      "v": 78
    },
    {
      "midi": 72,
      "hit": false,
      "t": 601345.1878666641,
      "d": 221.2389583333861,
      "v": 70
    },
    {
      "midi": 33,
      "hit": false,
      "t": 601610.6746166659,
      "d": 203.53984166670125,
      "v": 70
    },
    {
      "midi": 66,
      "hit": false,
      "t": 601858.4622499975,
      "d": 168.14160833333153,
      "v": 88
    },
    {
      "midi": 76,
      "hit": false,
      "t": 601858.4622499975,
      "d": 194.6902833333006,
      "v": 70
    },
    {
      "midi": 72,
      "hit": false,
      "t": 601867.3118083308,
      "d": 194.6902833333006,
      "v": 62
    },
    {
      "midi": 45,
      "hit": false,
      "t": 602141.648116666,
      "d": 168.14160833333153,
      "v": 78
    },
    {
      "midi": 38,
      "hit": false,
      "t": 602141.648116666,
      "d": 185.8407250000164,
      "v": 70
    },
    {
      "midi": 66,
      "hit": false,
      "t": 602389.4357499975,
      "d": 132.74337499996182,
      "v": 78
    },
    {
      "midi": 74,
      "hit": false,
      "t": 602389.4357499975,
      "d": 194.6902833333006,
      "v": 78
    },
    {
      "midi": 72,
      "hit": false,
      "t": 602398.2853083308,
      "d": 176.99116666673217,
      "v": 70
    },
    {
      "midi": 33,
      "hit": false,
      "t": 602672.621616666,
      "d": 185.8407250000164,
      "v": 70
    },
    {
      "midi": 78,
      "hit": false,
      "t": 602893.8605749975,
      "d": 168.14160833333153,
      "v": 78
    },
    {
      "midi": 66,
      "hit": false,
      "t": 602911.5596916642,
      "d": 123.8938166666776,
      "v": 70
    },
    {
      "midi": 72,
      "hit": false,
      "t": 602946.9579249976,
      "d": 88.49558333330788,
      "v": 30
    },
    {
      "midi": 69,
      "hit": false,
      "t": 603185.8959999975,
      "d": 513.2743833333952,
      "v": 88
    },
    {
      "midi": 74,
      "hit": false,
      "t": 603194.7455583308,
      "d": 415.9292416666867,
      "v": 88
    },
    {
      "midi": 71,
      "hit": false,
      "t": 603194.7455583308,
      "d": 451.32747500005644,
      "v": 88
    },
    {
      "midi": 45,
      "hit": false,
      "t": 603203.5951166659,
      "d": 185.8407250000164,
      "v": 78
    },
    {
      "midi": 38,
      "hit": false,
      "t": 603203.5951166659,
      "d": 212.38939999998547,
      "v": 78
    },
    {
      "midi": 33,
      "hit": false,
      "t": 603734.5686166659,
      "d": 194.6902833333006,
      "v": 70
    },
    {
      "midi": 74,
      "hit": false,
      "t": 604212.4447666642,
      "d": 539.8230583332479,
      "v": 78
    },
    {
      "midi": 71,
      "hit": false,
      "t": 604212.4447666642,
      "d": 548.6726166665321,
      "v": 78
    },
    {
      "midi": 67,
      "hit": false,
      "t": 604221.2943249975,
      "d": 548.6726166665321,
      "v": 62
    },
    {
      "midi": 45,
      "hit": false,
      "t": 604265.5421166659,
      "d": 176.99116666661575,
      "v": 78
    },
    {
      "midi": 38,
      "hit": false,
      "t": 604265.5421166659,
      "d": 212.38939999998547,
      "v": 70
    },
    {
      "midi": 33,
      "hit": false,
      "t": 604796.5156166658,
      "d": 185.8407250000164,
      "v": 70
    },
    {
      "midi": 71,
      "hit": false,
      "t": 605017.7545749974,
      "d": 97.34514166670851,
      "v": 70
    },
    {
      "midi": 67,
      "hit": false,
      "t": 605017.7545749974,
      "d": 106.19469999999274,
      "v": 70
    },
    {
      "midi": 74,
      "hit": false,
      "t": 605017.7545749974,
      "d": 106.19469999999274,
      "v": 78
    },
    {
      "midi": 67,
      "hit": false,
      "t": 605238.9935333306,
      "d": 1044.2478833332425,
      "v": 78
    },
    {
      "midi": 74,
      "hit": false,
      "t": 605247.8430916639,
      "d": 1008.8496499999892,
      "v": 88
    },
    {
      "midi": 71,
      "hit": false,
      "t": 605256.6926499972,
      "d": 982.3009750000201,
      "v": 78
    },
    {
      "midi": 45,
      "hit": false,
      "t": 605327.4891166658,
      "d": 176.99116666661575,
      "v": 78
    },
    {
      "midi": 38,
      "hit": false,
      "t": 605327.4891166658,
      "d": 212.38939999998547,
      "v": 70
    },
    {
      "midi": 33,
      "hit": false,
      "t": 605858.4626166658,
      "d": 203.53984166670125,
      "v": 70
    },
    {
      "midi": 45,
      "hit": false,
      "t": 606389.4361166658,
      "d": 176.99116666661575,
      "v": 78
    },
    {
      "midi": 38,
      "hit": false,
      "t": 606389.4361166658,
      "d": 203.53984166658483,
      "v": 70
    },
    {
      "midi": 69,
      "hit": false,
      "t": 606893.8609416639,
      "d": 141.59293333336245,
      "v": 88
    },
    {
      "midi": 33,
      "hit": false,
      "t": 606920.4096166658,
      "d": 194.6902833333006,
      "v": 70
    },
    {
      "midi": 71,
      "hit": false,
      "t": 607044.3034333305,
      "d": 185.8407250000164,
      "v": 49
    },
    {
      "midi": 69,
      "hit": false,
      "t": 607177.0468083305,
      "d": 185.8407250000164,
      "v": 55
    },
    {
      "midi": 45,
      "hit": false,
      "t": 607451.3831166658,
      "d": 185.8407250000164,
      "v": 78
    },
    {
      "midi": 38,
      "hit": false,
      "t": 607451.3831166658,
      "d": 221.2389583333861,
      "v": 70
    },
    {
      "midi": 61,
      "hit": false,
      "t": 607663.7725166638,
      "d": 247.7876333333552,
      "v": 88
    },
    {
      "midi": 67,
      "hit": false,
      "t": 607681.4716333305,
      "d": 247.7876333333552,
      "v": 70
    },
    {
      "midi": 33,
      "hit": false,
      "t": 607982.3566166658,
      "d": 203.53984166670125,
      "v": 70
    },
    {
      "midi": 61,
      "hit": false,
      "t": 608212.4451333304,
      "d": 168.14160833333153,
      "v": 88
    },
    {
      "midi": 71,
      "hit": false,
      "t": 608221.2946916637,
      "d": 194.69028333341703,
      "v": 78
    },
    {
      "midi": 67,
      "hit": false,
      "t": 608221.2946916637,
      "d": 230.08851666678675,
      "v": 78
    },
    {
      "midi": 45,
      "hit": false,
      "t": 608513.3301166659,
      "d": 176.99116666661575,
      "v": 70
    },
    {
      "midi": 38,
      "hit": false,
      "t": 608513.3301166659,
      "d": 212.38939999998547,
      "v": 70
    },
    {
      "midi": 61,
      "hit": false,
      "t": 608761.1177499972,
      "d": 194.6902833333006,
      "v": 78
    },
    {
      "midi": 69,
      "hit": false,
      "t": 608761.1177499972,
      "d": 230.08851666655391,
      "v": 70
    },
    {
      "midi": 67,
      "hit": false,
      "t": 608769.9673083305,
      "d": 194.6902833333006,
      "v": 62
    },
    {
      "midi": 33,
      "hit": false,
      "t": 609044.3036166659,
      "d": 212.38939999998547,
      "v": 70
    },
    {
      "midi": 73,
      "hit": false,
      "t": 609283.2416916637,
      "d": 265.48674999992363,
      "v": 88
    },
    {
      "midi": 61,
      "hit": false,
      "t": 609292.091249997,
      "d": 230.08851666667033,
      "v": 78
    },
    {
      "midi": 67,
      "hit": false,
      "t": 609309.7903666637,
      "d": 185.8407250000164,
      "v": 70
    },
    {
      "midi": 45,
      "hit": false,
      "t": 609575.2771166658,
      "d": 176.99116666661575,
      "v": 78
    },
    {
      "midi": 38,
      "hit": false,
      "t": 609575.2771166658,
      "d": 194.6902833333006,
      "v": 70
    },
    {
      "midi": 67,
      "hit": false,
      "t": 609831.9143083303,
      "d": 194.6902833333006,
      "v": 78
    },
    {
      "midi": 61,
      "hit": false,
      "t": 609831.9143083303,
      "d": 238.93807499995455,
      "v": 78
    },
    {
      "midi": 33,
      "hit": false,
      "t": 610106.2506166658,
      "d": 185.8407250000164,
      "v": 70
    },
    {
      "midi": 61,
      "hit": false,
      "t": 610345.1886916636,
      "d": 212.38939999986906,
      "v": 70
    },
    {
      "midi": 67,
      "hit": false,
      "t": 610362.8878083302,
      "d": 176.99116666661575,
      "v": 62
    },
    {
      "midi": 71,
      "hit": false,
      "t": 610362.8878083302,
      "d": 185.84072499989998,
      "v": 70
    },
    {
      "midi": 45,
      "hit": false,
      "t": 610637.2241166658,
      "d": 176.99116666661575,
      "v": 70
    },
    {
      "midi": 38,
      "hit": false,
      "t": 610637.2241166658,
      "d": 221.2389583332697,
      "v": 70
    },
    {
      "midi": 61,
      "hit": false,
      "t": 610876.1621916634,
      "d": 194.6902833333006,
      "v": 70
    },
    {
      "midi": 69,
      "hit": false,
      "t": 610885.0117499967,
      "d": 212.38939999998547,
      "v": 62
    },
    {
      "midi": 67,
      "hit": false,
      "t": 610902.7108666634,
      "d": 176.99116666661575,
      "v": 55
    },
    {
      "midi": 33,
      "hit": false,
      "t": 611168.1976166657,
      "d": 185.8407250000164,
      "v": 70
    },
    {
      "midi": 73,
      "hit": false,
      "t": 611415.9852499967,
      "d": 141.59293333312962,
      "v": 70
    },
    {
      "midi": 61,
      "hit": false,
      "t": 611424.8348083299,
      "d": 88.49558333319146,
      "v": 49
    },
    {
      "midi": 67,
      "hit": false,
      "t": 611433.6843666632,
      "d": 70.79646666662302,
      "v": 49
    },
    {
      "midi": 66,
      "hit": false,
      "t": 611690.3215583297,
      "d": 619.4690833332716,
      "v": 98
    },
    {
      "midi": 64,
      "hit": false,
      "t": 611690.3215583297,
      "d": 672.5664333333261,
      "v": 88
    },
    {
      "midi": 69,
      "hit": false,
      "t": 611699.171116663,
      "d": 610.6195249999873,
      "v": 88
    },
    {
      "midi": 45,
      "hit": false,
      "t": 611699.1711166657,
      "d": 185.8407250000164,
      "v": 70
    },
    {
      "midi": 38,
      "hit": false,
      "t": 611699.1711166657,
      "d": 230.08851666667033,
      "v": 62
    },
    {
      "midi": 33,
      "hit": false,
      "t": 612230.1446166657,
      "d": 176.99116666661575,
      "v": 70
    },
    {
      "midi": 69,
      "hit": false,
      "t": 612699.1712083297,
      "d": 539.8230583332479,
      "v": 62
    },
    {
      "midi": 66,
      "hit": false,
      "t": 612699.1712083297,
      "d": 548.6726166665321,
      "v": 98
    },
    {
      "midi": 62,
      "hit": false,
      "t": 612708.020766663,
      "d": 557.5221749999328,
      "v": 49
    },
    {
      "midi": 45,
      "hit": false,
      "t": 612761.1181166656,
      "d": 185.8407250000164,
      "v": 70
    },
    {
      "midi": 38,
      "hit": false,
      "t": 612761.1181166656,
      "d": 221.2389583333861,
      "v": 62
    },
    {
      "midi": 33,
      "hit": false,
      "t": 613292.0916166657,
      "d": 185.8407250000164,
      "v": 70
    },
    {
      "midi": 66,
      "hit": false,
      "t": 613469.0827833296,
      "d": 115.04425833327696,
      "v": 78
    },
    {
      "midi": 62,
      "hit": false,
      "t": 613495.6314583296,
      "d": 70.79646666662302,
      "v": 44
    },
    {
      "midi": 69,
      "hit": false,
      "t": 613495.6314583296,
      "d": 70.79646666662302,
      "v": 49
    },
    {
      "midi": 66,
      "hit": false,
      "t": 613725.7199749963,
      "d": 1150.4425833332352,
      "v": 98
    },
    {
      "midi": 69,
      "hit": false,
      "t": 613725.7199749963,
      "d": 1176.9912583332043,
      "v": 78
    },
    {
      "midi": 62,
      "hit": false,
      "t": 613734.5695333296,
      "d": 1159.2921416666359,
      "v": 62
    },
    {
      "midi": 45,
      "hit": false,
      "t": 613823.0651166657,
      "d": 176.99116666661575,
      "v": 62
    },
    {
      "midi": 38,
      "hit": false,
      "t": 613823.0651166657,
      "d": 212.38939999998547,
      "v": 62
    },
    {
      "midi": 33,
      "hit": false,
      "t": 614354.0386166656,
      "d": 185.8407250000164,
      "v": 62
    },
    {
      "midi": 45,
      "hit": false,
      "t": 614885.0121166656,
      "d": 176.99116666661575,
      "v": 70
    },
    {
      "midi": 38,
      "hit": false,
      "t": 614885.0121166656,
      "d": 212.38939999998547,
      "v": 62
    },
    {
      "midi": 33,
      "hit": false,
      "t": 615415.9856166656,
      "d": 212.38939999998547,
      "v": 62
    },
    {
      "midi": 62,
      "hit": false,
      "t": 615911.5608833295,
      "d": 761.062016666634,
      "v": 70
    },
    {
      "midi": 59,
      "hit": false,
      "t": 615929.2599999962,
      "d": 796.4602500000037,
      "v": 70
    },
    {
      "midi": 57,
      "hit": false,
      "t": 615938.1095583295,
      "d": 796.4602500000037,
      "v": 70
    },
    {
      "midi": 45,
      "hit": false,
      "t": 615946.9591166655,
      "d": 212.38939999998547,
      "v": 70
    },
    {
      "midi": 38,
      "hit": false,
      "t": 615946.9591166655,
      "d": 238.93807499995455,
      "v": 55
    },
    {
      "midi": 33,
      "hit": false,
      "t": 616477.9326166655,
      "d": 203.53984166670125,
      "v": 55
    },
    {
      "midi": 62,
      "hit": false,
      "t": 616973.5078833294,
      "d": 601.7699666665867,
      "v": 55
    },
    {
      "midi": 59,
      "hit": false,
      "t": 616973.5078833294,
      "d": 619.4690833332716,
      "v": 55
    },
    {
      "midi": 55,
      "hit": false,
      "t": 616982.3574416627,
      "d": 619.4690833332716,
      "v": 49
    },
    {
      "midi": 45,
      "hit": false,
      "t": 617008.9061166656,
      "d": 185.8407250000164,
      "v": 55
    },
    {
      "midi": 38,
      "hit": false,
      "t": 617008.9061166656,
      "d": 221.2389583333861,
      "v": 55
    },
    {
      "midi": 33,
      "hit": false,
      "t": 617539.8796166657,
      "d": 194.6902833333006,
      "v": 44
    },
    {
      "midi": 62,
      "hit": false,
      "t": 617787.667249996,
      "d": 115.04425833327696,
      "v": 49
    },
    {
      "midi": 59,
      "hit": false,
      "t": 617796.5168083293,
      "d": 106.19469999999274,
      "v": 49
    },
    {
      "midi": 55,
      "hit": false,
      "t": 617796.5168083293,
      "d": 115.04425833327696,
      "v": 44
    },
    {
      "midi": 59,
      "hit": false,
      "t": 618035.4548833292,
      "d": 2017.6992999999784,
      "v": 49
    },
    {
      "midi": 55,
      "hit": false,
      "t": 618035.4548833292,
      "d": 2026.5488583332626,
      "v": 35
    },
    {
      "midi": 62,
      "hit": false,
      "t": 618035.4548833292,
      "d": 2044.2479749999475,
      "v": 62
    },
    {
      "midi": 45,
      "hit": false,
      "t": 618070.8531166656,
      "d": 176.99116666661575,
      "v": 44
    },
    {
      "midi": 38,
      "hit": false,
      "t": 618070.8531166656,
      "d": 212.38939999998547,
      "v": 39
    },
    {
      "midi": 33,
      "hit": false,
      "t": 618601.8266166656,
      "d": 221.2389583333861,
      "v": 35
    },
    {
      "midi": 45,
      "hit": false,
      "t": 619132.8001166657,
      "d": 203.53984166670125,
      "v": 49
    },
    {
      "midi": 38,
      "hit": false,
      "t": 619132.8001166657,
      "d": 265.48675000004005,
      "v": 44
    },
    {
      "midi": 33,
      "hit": false,
      "t": 619663.7736166657,
      "d": 176.99116666661575,
      "v": 39
    },
    {
      "midi": 45,
      "hit": false,
      "t": 620194.7471166657,
      "d": 973.4514166666195,
      "v": 62
    },
    {
      "midi": 38,
      "hit": false,
      "t": 620194.7471166657,
      "d": 1035.3983249999583,
      "v": 55
    },
    {
      "midi": 33,
      "hit": false,
      "t": 621256.6941166656,
      "d": 575.2212916666176,
      "v": 62
    },
    {
      "midi": 54,
      "hit": false,
      "t": 621265.5436749959,
      "d": 920.3540666666813,
      "v": 78
    },
    {
      "midi": 57,
      "hit": false,
      "t": 621265.5436749959,
      "d": 920.3540666666813,
      "v": 55
    },
    {
      "midi": 52,
      "hit": false,
      "t": 621283.2427916626,
      "d": 911.5045083332807,
      "v": 55
    },
    {
      "midi": 45,
      "hit": false,
      "t": 622318.6411166656,
      "d": 867.2567166666267,
      "v": 55
    },
    {
      "midi": 38,
      "hit": false,
      "t": 622318.6411166656,
      "d": 920.3540666666813,
      "v": 49
    },
    {
      "midi": 54,
      "hit": false,
      "t": 623327.4907666625,
      "d": 902.6549499999965,
      "v": 70
    },
    {
      "midi": 57,
      "hit": false,
      "t": 623345.1898833292,
      "d": 876.1062750000274,
      "v": 55
    },
    {
      "midi": 50,
      "hit": false,
      "t": 623345.1898833292,
      "d": 911.5045083332807,
      "v": 44
    },
    {
      "midi": 33,
      "hit": false,
      "t": 623380.5881166656,
      "d": 628.3186416666722,
      "v": 62
    },
    {
      "midi": 45,
      "hit": false,
      "t": 624442.5351166656,
      "d": 867.2567166666267,
      "v": 70
    },
    {
      "midi": 38,
      "hit": false,
      "t": 624442.5351166656,
      "d": 884.9558333333116,
      "v": 62
    },
    {
      "midi": 50,
      "hit": false,
      "t": 625504.4821166624,
      "d": 1026.5487666665576,
      "v": 49
    },
    {
      "midi": 33,
      "hit": false,
      "t": 625504.4821166656,
      "d": 619.469083333388,
      "v": 44
    },
    {
      "midi": 47,
      "hit": false,
      "t": 625513.3316749957,
      "d": 1008.8496499999892,
      "v": 55
    },
    {
      "midi": 45,
      "hit": false,
      "t": 625513.3316749957,
      "d": 1017.6992083332734,
      "v": 44
    },
    {
      "midi": 38,
      "hit": false,
      "t": 626566.4291166656,
      "d": 876.1062750000274,
      "v": 44
    },
    {
      "midi": 45,
      "hit": false,
      "t": 626566.4291166656,
      "d": 902.6549499999965,
      "v": 44
    },
    {
      "midi": 47,
      "hit": false,
      "t": 627619.526558329,
      "d": 884.9558333333116,
      "v": 49
    },
    {
      "midi": 50,
      "hit": false,
      "t": 627619.526558329,
      "d": 946.9027416666504,
      "v": 44
    },
    {
      "midi": 33,
      "hit": false,
      "t": 627628.3761166657,
      "d": 548.6726166666485,
      "v": 39
    },
    {
      "midi": 43,
      "hit": false,
      "t": 627637.2256749957,
      "d": 867.2567166666267,
      "v": 30
    },
    {
      "midi": 38,
      "hit": false,
      "t": 628690.3231166656,
      "d": 814.1593666666886,
      "v": 62
    },
    {
      "midi": 45,
      "hit": false,
      "t": 628690.3231166656,
      "d": 823.0089249999728,
      "v": 49
    },
    {
      "midi": 50,
      "hit": false,
      "t": 629734.5709999957,
      "d": 946.9027416667668,
      "v": 55
    },
    {
      "midi": 43,
      "hit": false,
      "t": 629752.2701166624,
      "d": 893.8053916667122,
      "v": 39
    },
    {
      "midi": 50,
      "hit": false,
      "t": 630814.2171166656,
      "d": 805.309808333288,
      "v": 49
    },
    {
      "midi": 57,
      "hit": false,
      "t": 630814.2171166656,
      "d": 867.2567166666267,
      "v": 62
    },
    {
      "midi": 55,
      "hit": false,
      "t": 631805.3676499958,
      "d": 929.2036249999655,
      "v": 44
    },
    {
      "midi": 62,
      "hit": false,
      "t": 631823.0667666625,
      "d": 946.9027416666504,
      "v": 49
    },
    {
      "midi": 62,
      "hit": false,
      "t": 632938.1111166655,
      "d": 1017.6992083333898,
      "v": 49
    },
    {
      "midi": 69,
      "hit": false,
      "t": 632938.1111166655,
      "d": 1044.247883333359,
      "v": 55
    },
    {
      "midi": 67,
      "hit": false,
      "t": 633991.2085583291,
      "d": 929.2036249999655,
      "v": 44
    },
    {
      "midi": 74,
      "hit": false,
      "t": 633991.2085583291,
      "d": 964.6018583333353,
      "v": 55
    },
    {
      "midi": 74,
      "hit": false,
      "t": 635062.0051166655,
      "d": 920.3540666666813,
      "v": 44
    },
    {
      "midi": 81,
      "hit": false,
      "t": 635062.0051166655,
      "d": 982.3009750000201,
      "v": 49
    },
    {
      "midi": 86,
      "hit": false,
      "t": 636079.7043249959,
      "d": 991.1505333333043,
      "v": 55
    },
    {
      "midi": 79,
      "hit": false,
      "t": 636079.7043249959,
      "d": 1008.8496499999892,
      "v": 35
    },
    {
      "midi": 86,
      "hit": false,
      "t": 637185.8991166655,
      "d": 831.8584833333734,
      "v": 44
    },
    {
      "midi": 93,
      "hit": false,
      "t": 637185.8991166655,
      "d": 840.7080416666577,
      "v": 49
    },
    {
      "midi": 86,
      "hit": false,
      "t": 638230.1469999958,
      "d": 902.6549499999965,
      "v": 49
    },
    {
      "midi": 79,
      "hit": false,
      "t": 638238.9965583291,
      "d": 902.6549499999965,
      "v": 35
    },
    {
      "midi": 74,
      "hit": false,
      "t": 639309.7931166654,
      "d": 796.4602500000037,
      "v": 44
    },
    {
      "midi": 81,
      "hit": false,
      "t": 639309.7931166654,
      "d": 849.5576000000583,
      "v": 49
    },
    {
      "midi": 67,
      "hit": false,
      "t": 640318.6427666624,
      "d": 1088.4956750000129,
      "v": 44
    },
    {
      "midi": 74,
      "hit": false,
      "t": 640318.6427666624,
      "d": 1106.1947916666977,
      "v": 55
    },
    {
      "midi": 62,
      "hit": false,
      "t": 641433.6871166655,
      "d": 946.9027416666504,
      "v": 44
    },
    {
      "midi": 69,
      "hit": false,
      "t": 641433.6871166655,
      "d": 973.4514166666195,
      "v": 44
    },
    {
      "midi": 62,
      "hit": false,
      "t": 642504.4836749957,
      "d": 1008.8496499999892,
      "v": 44
    },
    {
      "midi": 55,
      "hit": false,
      "t": 642522.1827916624,
      "d": 982.3009750000201,
      "v": 35
    },
    {
      "midi": 50,
      "hit": false,
      "t": 643557.5811166655,
      "d": 991.1505333333043,
      "v": 11
    },
    {
      "midi": 57,
      "hit": false,
      "t": 643557.5811166655,
      "d": 1053.0974416666431,
      "v": 44
    },
    {
      "midi": 50,
      "hit": false,
      "t": 644619.5281166624,
      "d": 1079.6461166667286,
      "v": 35
    },
    {
      "midi": 43,
      "hit": false,
      "t": 644637.2272333291,
      "d": 1026.548766666674,
      "v": 35
    },
    {
      "midi": 38,
      "hit": false,
      "t": 645681.4751166655,
      "d": 867.2567166666267,
      "v": 33
    },
    {
      "midi": 45,
      "hit": false,
      "t": 645681.4751166655,
      "d": 876.106274999911,
      "v": 35
    },
    {
      "midi": 62,
      "hit": false,
      "t": 647778.8204416625,
      "d": 946.9027416667668,
      "v": 32
    },
    {
      "midi": 55,
      "hit": false,
      "t": 647796.5195583291,
      "d": 893.8053916667122,
      "v": 30
    },
    {
      "midi": 74,
      "hit": false,
      "t": 649885.0153249959,
      "d": 663.7168749999255,
      "v": 127
    },
    {
      "midi": 81,
      "hit": false,
      "t": 649885.0153249959,
      "d": 681.4159916666104,
      "v": 127
    },
    {
      "midi": 86,
      "hit": false,
      "t": 649885.0153249959,
      "d": 716.8142249999801,
      "v": 127
    },
    {
      "midi": 78,
      "hit": false,
      "t": 649911.5639999958,
      "d": 637.1681999999564,
      "v": 127
    },
    {
      "midi": 26,
      "hit": false,
      "t": 649929.2631166654,
      "d": 592.9204083333025,
      "v": 127
    },
    {
      "midi": 33,
      "hit": false,
      "t": 649929.2631166654,
      "d": 592.9204083333025,
      "v": 127
    },
    {
      "midi": 38,
      "hit": false,
      "t": 649929.2631166654,
      "d": 592.9204083333025,
      "v": 127
    }
  ]
}