{
  "jsonPath": "Jazz/Jazz Guitar/Hank Garland/tammy.json",
  "path": "Jazz\\Jazz Guitar\\Hank Garland\\Tammy.mid",
  "name": "Tammy",
  "difficulty": "Advanced",
  "bpm": 104.99992125005906,
  "notes": [
    {
      "midi": 77,
      "hit": false,
      "t": 3457.14545,
      "d": 271.42877499999986,
      "v": 127
    },
    {
      "midi": 48,
      "hit": false,
      "t": 3457.14545,
      "d": 1095.2389166666671,
      "v": 127
    },
    {
      "midi": 55,
      "hit": false,
      "t": 3457.14545,
      "d": 1095.2389166666671,
      "v": 127
    },
    {
      "midi": 63,
      "hit": false,
      "t": 3457.14545,
      "d": 1095.2389166666671,
      "v": 127
    },
    {
      "midi": 67,
      "hit": false,
      "t": 3457.14545,
      "d": 1128.5722750000004,
      "v": 127
    },
    {
      "midi": 75,
      "hit": false,
      "t": 3776.1933083333333,
      "d": 257.14305000000013,
      "v": 127
    },
    {
      "midi": 72,
      "hit": false,
      "t": 4028.57445,
      "d": 1142.8580000000002,
      "v": 127
    },
    {
      "midi": 48,
      "hit": false,
      "t": 4600.00345,
      "d": 542.8575499999997,
      "v": 127
    },
    {
      "midi": 55,
      "hit": false,
      "t": 4600.00345,
      "d": 542.8575499999997,
      "v": 127
    },
    {
      "midi": 60,
      "hit": false,
      "t": 4600.00345,
      "d": 542.8575499999997,
      "v": 127
    },
    {
      "midi": 63,
      "hit": false,
      "t": 4600.00345,
      "d": 542.8575499999997,
      "v": 127
    },
    {
      "midi": 70,
      "hit": false,
      "t": 5171.43245,
      "d": 271.4287750000003,
      "v": 127
    },
    {
      "midi": 43,
      "hit": false,
      "t": 5171.43245,
      "d": 1085.7150999999994,
      "v": 127
    },
    {
      "midi": 58,
      "hit": false,
      "t": 5171.43245,
      "d": 1085.7150999999994,
      "v": 127
    },
    {
      "midi": 55,
      "hit": false,
      "t": 5171.43245,
      "d": 1109.524641666666,
      "v": 127
    },
    {
      "midi": 62,
      "hit": false,
      "t": 5171.43245,
      "d": 1119.0484583333327,
      "v": 127
    },
    {
      "midi": 68,
      "hit": false,
      "t": 5490.480308333334,
      "d": 257.1430499999997,
      "v": 127
    },
    {
      "midi": 67,
      "hit": false,
      "t": 5742.86145,
      "d": 1128.5722749999986,
      "v": 127
    },
    {
      "midi": 43,
      "hit": false,
      "t": 6314.2904499999995,
      "d": 542.8575499999997,
      "v": 127
    },
    {
      "midi": 55,
      "hit": false,
      "t": 6314.2904499999995,
      "d": 542.8575499999997,
      "v": 127
    },
    {
      "midi": 58,
      "hit": false,
      "t": 6314.2904499999995,
      "d": 542.8575499999997,
      "v": 127
    },
    {
      "midi": 62,
      "hit": false,
      "t": 6314.2904499999995,
      "d": 542.8575499999997,
      "v": 127
    },
    {
      "midi": 60,
      "hit": false,
      "t": 6885.719449999999,
      "d": 542.8575499999997,
      "v": 127
    },
    {
      "midi": 68,
      "hit": false,
      "t": 6885.719449999999,
      "d": 542.8575499999997,
      "v": 127
    },
    {
      "midi": 46,
      "hit": false,
      "t": 6885.719449999999,
      "d": 1142.8580000000002,
      "v": 127
    },
    {
      "midi": 58,
      "hit": false,
      "t": 7457.148449999999,
      "d": 542.8575499999997,
      "v": 127
    },
    {
      "midi": 62,
      "hit": false,
      "t": 7457.148449999999,
      "d": 542.8575499999997,
      "v": 127
    },
    {
      "midi": 67,
      "hit": false,
      "t": 7457.148449999999,
      "d": 542.8575499999997,
      "v": 127
    },
    {
      "midi": 34,
      "hit": false,
      "t": 8028.577449999999,
      "d": 542.8575500000006,
      "v": 127
    },
    {
      "midi": 56,
      "hit": false,
      "t": 8028.577449999999,
      "d": 542.8575500000006,
      "v": 127
    },
    {
      "midi": 60,
      "hit": false,
      "t": 8028.577449999999,
      "d": 542.8575500000006,
      "v": 127
    },
    {
      "midi": 65,
      "hit": false,
      "t": 8028.577449999999,
      "d": 542.8575500000006,
      "v": 127
    },
    {
      "midi": 39,
      "hit": false,
      "t": 8600.006449999999,
      "d": 542.8575500000006,
      "v": 127
    },
    {
      "midi": 55,
      "hit": false,
      "t": 8600.006449999999,
      "d": 542.8575500000006,
      "v": 127
    },
    {
      "midi": 58,
      "hit": false,
      "t": 8600.006449999999,
      "d": 542.8575500000006,
      "v": 127
    },
    {
      "midi": 63,
      "hit": false,
      "t": 8600.006449999999,
      "d": 542.8575500000006,
      "v": 127
    },
    {
      "midi": 74,
      "hit": false,
      "t": 9171.435449999999,
      "d": 271.4287750000003,
      "v": 127
    },
    {
      "midi": 46,
      "hit": false,
      "t": 9171.435449999999,
      "d": 523.809916666667,
      "v": 127
    },
    {
      "midi": 63,
      "hit": false,
      "t": 9171.435449999999,
      "d": 538.0956416666668,
      "v": 127
    },
    {
      "midi": 57,
      "hit": false,
      "t": 9171.435449999999,
      "d": 547.6194583333327,
      "v": 127
    },
    {
      "midi": 66,
      "hit": false,
      "t": 9171.435449999999,
      "d": 547.6194583333327,
      "v": 127
    },
    {
      "midi": 72,
      "hit": false,
      "t": 9490.483308333332,
      "d": 257.1430500000006,
      "v": 127
    },
    {
      "midi": 46,
      "hit": false,
      "t": 9742.86445,
      "d": 542.8575500000006,
      "v": 127
    },
    {
      "midi": 56,
      "hit": false,
      "t": 9742.86445,
      "d": 542.8575500000006,
      "v": 127
    },
    {
      "midi": 62,
      "hit": false,
      "t": 9742.86445,
      "d": 542.8575500000006,
      "v": 127
    },
    {
      "midi": 65,
      "hit": false,
      "t": 9742.86445,
      "d": 542.8575500000006,
      "v": 127
    },
    {
      "midi": 55,
      "hit": false,
      "t": 10314.29345,
      "d": 542.8575500000006,
      "v": 127
    },
    {
      "midi": 63,
      "hit": false,
      "t": 10314.29345,
      "d": 542.8575500000006,
      "v": 127
    },
    {
      "midi": 46,
      "hit": false,
      "t": 10314.29345,
      "d": 1452.3820416666676,
      "v": 127
    },
    {
      "midi": 39,
      "hit": false,
      "t": 10314.29345,
      "d": 1471.4296750000012,
      "v": 127
    },
    {
      "midi": 58,
      "hit": false,
      "t": 10885.72245,
      "d": 542.8575500000006,
      "v": 127
    },
    {
      "midi": 67,
      "hit": false,
      "t": 10885.72245,
      "d": 542.8575500000006,
      "v": 127
    },
    {
      "midi": 63,
      "hit": false,
      "t": 11457.15145,
      "d": 542.8575500000006,
      "v": 127
    },
    {
      "midi": 70,
      "hit": false,
      "t": 11457.15145,
      "d": 542.8575500000006,
      "v": 127
    },
    {
      "midi": 55,
      "hit": false,
      "t": 12028.58045,
      "d": 542.8575500000006,
      "v": 127
    },
    {
      "midi": 62,
      "hit": false,
      "t": 12028.58045,
      "d": 542.8575500000006,
      "v": 127
    },
    {
      "midi": 34,
      "hit": false,
      "t": 12028.58045,
      "d": 1471.4296749999994,
      "v": 127
    },
    {
      "midi": 46,
      "hit": false,
      "t": 12028.58045,
      "d": 1490.477308333333,
      "v": 127
    },
    {
      "midi": 58,
      "hit": false,
      "t": 12600.00945,
      "d": 542.8575500000006,
      "v": 127
    },
    {
      "midi": 67,
      "hit": false,
      "t": 12600.00945,
      "d": 542.8575500000006,
      "v": 127
    },
    {
      "midi": 62,
      "hit": false,
      "t": 13171.43845,
      "d": 542.8575499999988,
      "v": 127
    },
    {
      "midi": 70,
      "hit": false,
      "t": 13171.43845,
      "d": 542.8575499999988,
      "v": 127
    },
    {
      "midi": 60,
      "hit": false,
      "t": 13742.867449999998,
      "d": 542.8575500000006,
      "v": 127
    },
    {
      "midi": 68,
      "hit": false,
      "t": 13742.867449999998,
      "d": 542.8575500000006,
      "v": 127
    },
    {
      "midi": 75,
      "hit": false,
      "t": 13742.867449999998,
      "d": 542.8575500000006,
      "v": 127
    },
    {
      "midi": 44,
      "hit": false,
      "t": 13742.867449999998,
      "d": 1452.3820416666676,
      "v": 127
    },
    {
      "midi": 56,
      "hit": false,
      "t": 14314.296449999998,
      "d": 542.8575500000006,
      "v": 127
    },
    {
      "midi": 63,
      "hit": false,
      "t": 14314.296449999998,
      "d": 542.8575500000006,
      "v": 127
    },
    {
      "midi": 72,
      "hit": false,
      "t": 14314.296449999998,
      "d": 542.8575500000006,
      "v": 127
    },
    {
      "midi": 60,
      "hit": false,
      "t": 14885.725449999998,
      "d": 542.8575500000006,
      "v": 127
    },
    {
      "midi": 68,
      "hit": false,
      "t": 14885.725449999998,
      "d": 542.8575500000006,
      "v": 127
    },
    {
      "midi": 75,
      "hit": false,
      "t": 14885.725449999998,
      "d": 542.8575500000006,
      "v": 127
    },
    {
      "midi": 55,
      "hit": false,
      "t": 15457.154449999998,
      "d": 542.8575500000006,
      "v": 127
    },
    {
      "midi": 58,
      "hit": false,
      "t": 15457.154449999998,
      "d": 542.8575500000006,
      "v": 127
    },
    {
      "midi": 63,
      "hit": false,
      "t": 15457.154449999998,
      "d": 1452.3820416666676,
      "v": 127
    },
    {
      "midi": 43,
      "hit": false,
      "t": 15457.154449999998,
      "d": 1461.9058583333353,
      "v": 127
    },
    {
      "midi": 70,
      "hit": false,
      "t": 15457.154449999998,
      "d": 1480.953491666667,
      "v": 127
    },
    {
      "midi": 53,
      "hit": false,
      "t": 16028.583449999998,
      "d": 542.8575500000006,
      "v": 127
    },
    {
      "midi": 51,
      "hit": false,
      "t": 16600.01245,
      "d": 542.8575500000006,
      "v": 127
    },
    {
      "midi": 70,
      "hit": false,
      "t": 17171.44145,
      "d": 271.4287750000003,
      "v": 127
    },
    {
      "midi": 43,
      "hit": false,
      "t": 17171.44145,
      "d": 1095.238916666669,
      "v": 127
    },
    {
      "midi": 58,
      "hit": false,
      "t": 17171.44145,
      "d": 1104.7627333333367,
      "v": 127
    },
    {
      "midi": 50,
      "hit": false,
      "t": 17171.44145,
      "d": 1114.2865500000044,
      "v": 127
    },
    {
      "midi": 62,
      "hit": false,
      "t": 17171.44145,
      "d": 1114.2865500000044,
      "v": 127
    },
    {
      "midi": 68,
      "hit": false,
      "t": 17490.489308333334,
      "d": 257.14304999999877,
      "v": 127
    },
    {
      "midi": 67,
      "hit": false,
      "t": 17742.87045,
      "d": 542.8575500000043,
      "v": 127
    },
    {
      "midi": 43,
      "hit": false,
      "t": 18314.299450000002,
      "d": 542.8575500000006,
      "v": 127
    },
    {
      "midi": 50,
      "hit": false,
      "t": 18314.299450000002,
      "d": 542.8575500000006,
      "v": 127
    },
    {
      "midi": 58,
      "hit": false,
      "t": 18314.299450000002,
      "d": 542.8575500000006,
      "v": 127
    },
    {
      "midi": 62,
      "hit": false,
      "t": 18314.299450000002,
      "d": 542.8575500000006,
      "v": 127
    },
    {
      "midi": 63,
      "hit": false,
      "t": 18885.728450000002,
      "d": 271.4287750000003,
      "v": 127
    },
    {
      "midi": 67,
      "hit": false,
      "t": 18885.728450000002,
      "d": 271.4287750000003,
      "v": 127
    },
    {
      "midi": 36,
      "hit": false,
      "t": 18885.728450000002,
      "d": 1133.3341833333325,
      "v": 127
    },
    {
      "midi": 48,
      "hit": false,
      "t": 18885.728450000002,
      "d": 1133.3341833333325,
      "v": 127
    },
    {
      "midi": 55,
      "hit": false,
      "t": 18885.728450000002,
      "d": 1442.858225,
      "v": 127
    },
    {
      "midi": 62,
      "hit": false,
      "t": 19204.776308333338,
      "d": 257.14304999999877,
      "v": 127
    },
    {
      "midi": 65,
      "hit": false,
      "t": 19204.776308333338,
      "d": 257.14304999999877,
      "v": 127
    },
    {
      "midi": 63,
      "hit": false,
      "t": 19457.157450000002,
      "d": 1133.3341833333325,
      "v": 127
    },
    {
      "midi": 60,
      "hit": false,
      "t": 19457.157450000002,
      "d": 1142.8580000000002,
      "v": 127
    },
    {
      "midi": 43,
      "hit": false,
      "t": 20028.586450000003,
      "d": 542.8575500000006,
      "v": 127
    },
    {
      "midi": 65,
      "hit": false,
      "t": 20600.015450000003,
      "d": 542.8575500000006,
      "v": 127
    },
    {
      "midi": 41,
      "hit": false,
      "t": 20600.015450000003,
      "d": 1095.2389166666653,
      "v": 127
    },
    {
      "midi": 56,
      "hit": false,
      "t": 20600.015450000003,
      "d": 1095.2389166666653,
      "v": 127
    },
    {
      "midi": 60,
      "hit": false,
      "t": 21171.444450000003,
      "d": 542.857549999997,
      "v": 127
    },
    {
      "midi": 41,
      "hit": false,
      "t": 21742.87345,
      "d": 542.8575500000006,
      "v": 127
    },
    {
      "midi": 56,
      "hit": false,
      "t": 21742.87345,
      "d": 542.8575500000006,
      "v": 127
    },
    {
      "midi": 60,
      "hit": false,
      "t": 21742.87345,
      "d": 542.8575500000006,
      "v": 127
    },
    {
      "midi": 65,
      "hit": false,
      "t": 21742.87345,
      "d": 542.8575500000006,
      "v": 127
    },
    {
      "midi": 46,
      "hit": false,
      "t": 22314.30245,
      "d": 542.8575500000006,
      "v": 127
    },
    {
      "midi": 58,
      "hit": false,
      "t": 22314.30245,
      "d": 1123.8103666666684,
      "v": 127
    },
    {
      "midi": 62,
      "hit": false,
      "t": 22314.30245,
      "d": 1133.3341833333361,
      "v": 127
    },
    {
      "midi": 67,
      "hit": false,
      "t": 22314.30245,
      "d": 1142.8580000000038,
      "v": 127
    },
    {
      "midi": 34,
      "hit": false,
      "t": 22885.73145,
      "d": 542.8575500000006,
      "v": 127
    },
    {
      "midi": 46,
      "hit": false,
      "t": 23457.160450000003,
      "d": 542.8575500000006,
      "v": 127
    },
    {
      "midi": 56,
      "hit": false,
      "t": 23457.160450000003,
      "d": 542.8575500000006,
      "v": 127
    },
    {
      "midi": 60,
      "hit": false,
      "t": 23457.160450000003,
      "d": 542.8575500000006,
      "v": 127
    },
    {
      "midi": 65,
      "hit": false,
      "t": 23457.160450000003,
      "d": 542.8575500000006,
      "v": 127
    },
    {
      "midi": 55,
      "hit": false,
      "t": 24028.589450000003,
      "d": 542.8575500000006,
      "v": 127
    },
    {
      "midi": 63,
      "hit": false,
      "t": 24028.589450000003,
      "d": 542.8575500000006,
      "v": 127
    },
    {
      "midi": 46,
      "hit": false,
      "t": 24028.589450000003,
      "d": 1442.858225,
      "v": 127
    },
    {
      "midi": 39,
      "hit": false,
      "t": 24028.589450000003,
      "d": 1452.3820416666676,
      "v": 127
    },
    {
      "midi": 58,
      "hit": false,
      "t": 24600.018450000003,
      "d": 542.8575500000006,
      "v": 127
    },
    {
      "midi": 67,
      "hit": false,
      "t": 24600.018450000003,
      "d": 542.8575500000006,
      "v": 127
    },
    {
      "midi": 63,
      "hit": false,
      "t": 25171.447450000003,
      "d": 542.8575500000006,
      "v": 127
    },
    {
      "midi": 70,
      "hit": false,
      "t": 25171.447450000003,
      "d": 542.8575500000006,
      "v": 127
    },
    {
      "midi": 55,
      "hit": false,
      "t": 25742.876450000003,
      "d": 542.8575500000006,
      "v": 127
    },
    {
      "midi": 62,
      "hit": false,
      "t": 25742.876450000003,
      "d": 542.8575500000006,
      "v": 127
    },
    {
      "midi": 34,
      "hit": false,
      "t": 25742.876450000003,
      "d": 1480.953491666667,
      "v": 127
    },
    {
      "midi": 46,
      "hit": false,
      "t": 25742.876450000003,
      "d": 1480.953491666667,
      "v": 127
    },
    {
      "midi": 58,
      "hit": false,
      "t": 26314.305450000003,
      "d": 542.8575500000006,
      "v": 127
    },
    {
      "midi": 67,
      "hit": false,
      "t": 26314.305450000003,
      "d": 542.8575500000006,
      "v": 127
    },
    {
      "midi": 62,
      "hit": false,
      "t": 26885.734450000004,
      "d": 542.8575500000006,
      "v": 127
    },
    {
      "midi": 70,
      "hit": false,
      "t": 26885.734450000004,
      "d": 542.8575500000006,
      "v": 127
    },
    {
      "midi": 60,
      "hit": false,
      "t": 27457.163450000004,
      "d": 542.8575500000006,
      "v": 127
    },
    {
      "midi": 68,
      "hit": false,
      "t": 27457.163450000004,
      "d": 542.8575500000006,
      "v": 127
    },
    {
      "midi": 75,
      "hit": false,
      "t": 27457.163450000004,
      "d": 542.8575500000006,
      "v": 127
    },
    {
      "midi": 44,
      "hit": false,
      "t": 27457.163450000004,
      "d": 1442.858225,
      "v": 127
    },
    {
      "midi": 56,
      "hit": false,
      "t": 28028.592450000004,
      "d": 542.8575500000006,
      "v": 127
    },
    {
      "midi": 63,
      "hit": false,
      "t": 28028.592450000004,
      "d": 542.8575500000006,
      "v": 127
    },
    {
      "midi": 72,
      "hit": false,
      "t": 28028.592450000004,
      "d": 542.8575500000006,
      "v": 127
    },
    {
      "midi": 60,
      "hit": false,
      "t": 28600.021450000004,
      "d": 542.8575500000006,
      "v": 127
    },
    {
      "midi": 68,
      "hit": false,
      "t": 28600.021450000004,
      "d": 542.8575500000006,
      "v": 127
    },
    {
      "midi": 75,
      "hit": false,
      "t": 28600.021450000004,
      "d": 542.8575500000006,
      "v": 127
    },
    {
      "midi": 55,
      "hit": false,
      "t": 29171.450450000004,
      "d": 542.8575500000006,
      "v": 127
    },
    {
      "midi": 43,
      "hit": false,
      "t": 29171.450450000004,
      "d": 1452.3820416666676,
      "v": 127
    },
    {
      "midi": 63,
      "hit": false,
      "t": 29171.450450000004,
      "d": 1452.3820416666676,
      "v": 127
    },
    {
      "midi": 70,
      "hit": false,
      "t": 29171.450450000004,
      "d": 1452.3820416666676,
      "v": 127
    },
    {
      "midi": 58,
      "hit": false,
      "t": 29171.450450000004,
      "d": 1461.9058583333353,
      "v": 127
    },
    {
      "midi": 53,
      "hit": false,
      "t": 29742.879450000004,
      "d": 542.8575500000006,
      "v": 127
    },
    {
      "midi": 51,
      "hit": false,
      "t": 30314.308450000004,
      "d": 542.8575500000006,
      "v": 127
    },
    {
      "midi": 70,
      "hit": false,
      "t": 30885.737450000004,
      "d": 271.4287750000003,
      "v": 127
    },
    {
      "midi": 62,
      "hit": false,
      "t": 30885.737450000004,
      "d": 1095.238916666669,
      "v": 127
    },
    {
      "midi": 43,
      "hit": false,
      "t": 30885.737450000004,
      "d": 1104.7627333333367,
      "v": 127
    },
    {
      "midi": 50,
      "hit": false,
      "t": 30885.737450000004,
      "d": 1104.7627333333367,
      "v": 127
    },
    {
      "midi": 58,
      "hit": false,
      "t": 30885.737450000004,
      "d": 1123.8103666666684,
      "v": 127
    },
    {
      "midi": 68,
      "hit": false,
      "t": 31204.78530833334,
      "d": 257.14304999999877,
      "v": 127
    },
    {
      "midi": 67,
      "hit": false,
      "t": 31457.166450000004,
      "d": 1133.3341833333325,
      "v": 127
    },
    {
      "midi": 43,
      "hit": false,
      "t": 32028.595450000004,
      "d": 542.8575500000006,
      "v": 127
    },
    {
      "midi": 50,
      "hit": false,
      "t": 32028.595450000004,
      "d": 542.8575500000006,
      "v": 127
    },
    {
      "midi": 58,
      "hit": false,
      "t": 32028.595450000004,
      "d": 542.8575500000006,
      "v": 127
    },
    {
      "midi": 62,
      "hit": false,
      "t": 32028.595450000004,
      "d": 542.8575500000006,
      "v": 127
    },
    {
      "midi": 67,
      "hit": false,
      "t": 32600.024450000004,
      "d": 271.4287750000003,
      "v": 127
    },
    {
      "midi": 44,
      "hit": false,
      "t": 32600.024450000004,
      "d": 1104.7627333333294,
      "v": 127
    },
    {
      "midi": 60,
      "hit": false,
      "t": 32600.024450000004,
      "d": 1104.7627333333294,
      "v": 127
    },
    {
      "midi": 51,
      "hit": false,
      "t": 32600.024450000004,
      "d": 1114.286549999997,
      "v": 127
    },
    {
      "midi": 56,
      "hit": false,
      "t": 32600.024450000004,
      "d": 1123.8103666666648,
      "v": 127
    },
    {
      "midi": 65,
      "hit": false,
      "t": 32919.072308333336,
      "d": 257.14304999999877,
      "v": 127
    },
    {
      "midi": 63,
      "hit": false,
      "t": 33171.45345,
      "d": 1123.810366666672,
      "v": 127
    },
    {
      "midi": 44,
      "hit": false,
      "t": 33742.882450000005,
      "d": 542.8575500000006,
      "v": 127
    },
    {
      "midi": 51,
      "hit": false,
      "t": 33742.882450000005,
      "d": 542.8575500000006,
      "v": 127
    },
    {
      "midi": 56,
      "hit": false,
      "t": 33742.882450000005,
      "d": 542.8575500000006,
      "v": 127
    },
    {
      "midi": 60,
      "hit": false,
      "t": 33742.882450000005,
      "d": 542.8575500000006,
      "v": 127
    },
    {
      "midi": 60,
      "hit": false,
      "t": 34314.31145000001,
      "d": 542.8575500000006,
      "v": 127
    },
    {
      "midi": 65,
      "hit": false,
      "t": 34314.31145000001,
      "d": 542.8575500000006,
      "v": 127
    },
    {
      "midi": 46,
      "hit": false,
      "t": 34314.31145000001,
      "d": 1085.7151000000013,
      "v": 127
    },
    {
      "midi": 56,
      "hit": false,
      "t": 34314.31145000001,
      "d": 1133.3341833333398,
      "v": 127
    },
    {
      "midi": 60,
      "hit": false,
      "t": 34885.74045000001,
      "d": 542.8575500000006,
      "v": 127
    },
    {
      "midi": 46,
      "hit": false,
      "t": 35457.169450000016,
      "d": 552.3813666666683,
      "v": 127
    },
    {
      "midi": 62,
      "hit": false,
      "t": 35457.169450000016,
      "d": 571.4290000000037,
      "v": 127
    },
    {
      "midi": 56,
      "hit": false,
      "t": 35600.02670000002,
      "d": 409.5241166666674,
      "v": 127
    },
    {
      "midi": 60,
      "hit": false,
      "t": 35600.02670000002,
      "d": 409.5241166666674,
      "v": 127
    },
    {
      "midi": 51,
      "hit": false,
      "t": 36028.59845000002,
      "d": 542.8575500000006,
      "v": 127
    },
    {
      "midi": 63,
      "hit": false,
      "t": 36028.59845000002,
      "d": 1114.2865500000044,
      "v": 127
    },
    {
      "midi": 55,
      "hit": false,
      "t": 36028.59845000002,
      "d": 1152.3818166666751,
      "v": 127
    },
    {
      "midi": 58,
      "hit": false,
      "t": 36028.59845000002,
      "d": 1152.3818166666751,
      "v": 127
    },
    {
      "midi": 43,
      "hit": false,
      "t": 36600.02745000002,
      "d": 542.8575500000006,
      "v": 127
    },
    {
      "midi": 63,
      "hit": false,
      "t": 37171.45645000003,
      "d": 271.4287750000003,
      "v": 127
    },
    {
      "midi": 63,
      "hit": false,
      "t": 37742.88545000002,
      "d": 4.761908333333849,
      "v": 127
    },
    {
      "midi": 51,
      "hit": false,
      "t": 37742.88545000002,
      "d": 1104.7627333333367,
      "v": 127
    },
    {
      "midi": 43,
      "hit": false,
      "t": 37742.88545000002,
      "d": 1114.2865500000044,
      "v": 127
    },
    {
      "midi": 58,
      "hit": false,
      "t": 37885.742700000024,
      "d": 952.381666666668,
      "v": 127
    },
    {
      "midi": 63,
      "hit": false,
      "t": 37890.50460833336,
      "d": 952.381666666668,
      "v": 127
    },
    {
      "midi": 70,
      "hit": false,
      "t": 38028.599950000025,
      "d": 257.14304999999877,
      "v": 127
    },
    {
      "midi": 67,
      "hit": false,
      "t": 38314.31445000003,
      "d": 542.8575500000006,
      "v": 127
    },
    {
      "midi": 43,
      "hit": false,
      "t": 38885.74345000003,
      "d": 542.8575500000006,
      "v": 127
    },
    {
      "midi": 51,
      "hit": false,
      "t": 38885.74345000003,
      "d": 542.8575500000006,
      "v": 127
    },
    {
      "midi": 58,
      "hit": false,
      "t": 38885.74345000003,
      "d": 542.8575500000006,
      "v": 127
    },
    {
      "midi": 63,
      "hit": false,
      "t": 38885.74345000003,
      "d": 542.8575500000006,
      "v": 127
    },
    {
      "midi": 63,
      "hit": false,
      "t": 39457.172450000035,
      "d": 138.09534166666708,
      "v": 127
    },
    {
      "midi": 51,
      "hit": false,
      "t": 39457.172450000035,
      "d": 1085.7151000000013,
      "v": 127
    },
    {
      "midi": 44,
      "hit": false,
      "t": 39457.172450000035,
      "d": 1114.2865500000044,
      "v": 127
    },
    {
      "midi": 63,
      "hit": false,
      "t": 39604.79160833337,
      "d": 961.9054833333357,
      "v": 127
    },
    {
      "midi": 60,
      "hit": false,
      "t": 39604.79160833337,
      "d": 980.9531166666711,
      "v": 127
    },
    {
      "midi": 68,
      "hit": false,
      "t": 40028.60145000004,
      "d": 1123.810366666672,
      "v": 127
    },
    {
      "midi": 44,
      "hit": false,
      "t": 40600.03045000004,
      "d": 542.8575500000006,
      "v": 127
    },
    {
      "midi": 51,
      "hit": false,
      "t": 40600.03045000004,
      "d": 542.8575500000006,
      "v": 127
    },
    {
      "midi": 60,
      "hit": false,
      "t": 40600.03045000004,
      "d": 542.8575500000006,
      "v": 127
    },
    {
      "midi": 63,
      "hit": false,
      "t": 40600.03045000004,
      "d": 542.8575500000006,
      "v": 127
    },
    {
      "midi": 65,
      "hit": false,
      "t": 41171.459450000046,
      "d": 138.09534166666708,
      "v": 127
    },
    {
      "midi": 45,
      "hit": false,
      "t": 41171.459450000046,
      "d": 1104.7627333333367,
      "v": 127
    },
    {
      "midi": 53,
      "hit": false,
      "t": 41171.459450000046,
      "d": 1114.2865500000044,
      "v": 127
    },
    {
      "midi": 65,
      "hit": false,
      "t": 41323.840516666714,
      "d": 942.8578500000003,
      "v": 127
    },
    {
      "midi": 60,
      "hit": false,
      "t": 41323.840516666714,
      "d": 990.4769333333388,
      "v": 127
    },
    {
      "midi": 72,
      "hit": false,
      "t": 41742.88845000005,
      "d": 542.8575500000006,
      "v": 127
    },
    {
      "midi": 45,
      "hit": false,
      "t": 42314.31745000005,
      "d": 542.8575500000006,
      "v": 127
    },
    {
      "midi": 53,
      "hit": false,
      "t": 42314.31745000005,
      "d": 542.8575500000006,
      "v": 127
    },
    {
      "midi": 63,
      "hit": false,
      "t": 42314.31745000005,
      "d": 542.8575500000006,
      "v": 127
    },
    {
      "midi": 65,
      "hit": false,
      "t": 42314.31745000005,
      "d": 542.8575500000006,
      "v": 127
    },
    {
      "midi": 53,
      "hit": false,
      "t": 42885.74645000006,
      "d": 542.8575500000006,
      "v": 127
    },
    {
      "midi": 46,
      "hit": false,
      "t": 42885.74645000006,
      "d": 1076.1912833333336,
      "v": 127
    },
    {
      "midi": 74,
      "hit": false,
      "t": 42885.74645000006,
      "d": 1095.238916666669,
      "v": 127
    },
    {
      "midi": 62,
      "hit": false,
      "t": 42885.74645000006,
      "d": 1123.810366666672,
      "v": 127
    },
    {
      "midi": 55,
      "hit": false,
      "t": 43457.17545000006,
      "d": 542.8575500000006,
      "v": 127
    },
    {
      "midi": 46,
      "hit": false,
      "t": 44028.604450000064,
      "d": 542.8575500000006,
      "v": 127
    },
    {
      "midi": 56,
      "hit": false,
      "t": 44028.604450000064,
      "d": 542.8575500000006,
      "v": 127
    },
    {
      "midi": 62,
      "hit": false,
      "t": 44028.604450000064,
      "d": 542.8575500000006,
      "v": 127
    },
    {
      "midi": 74,
      "hit": false,
      "t": 44028.604450000064,
      "d": 542.8575500000006,
      "v": 127
    },
    {
      "midi": 74,
      "hit": false,
      "t": 44600.03345000007,
      "d": 542.8575500000006,
      "v": 127
    },
    {
      "midi": 47,
      "hit": false,
      "t": 44600.03345000007,
      "d": 1095.238916666669,
      "v": 127
    },
    {
      "midi": 55,
      "hit": false,
      "t": 44600.03345000007,
      "d": 1104.7627333333367,
      "v": 127
    },
    {
      "midi": 62,
      "hit": false,
      "t": 44600.03345000007,
      "d": 1133.3341833333398,
      "v": 127
    },
    {
      "midi": 67,
      "hit": false,
      "t": 45171.46245000007,
      "d": 542.8575500000006,
      "v": 127
    },
    {
      "midi": 46,
      "hit": false,
      "t": 45742.891450000076,
      "d": 542.8575500000006,
      "v": 127
    },
    {
      "midi": 55,
      "hit": false,
      "t": 45742.891450000076,
      "d": 542.8575500000006,
      "v": 127
    },
    {
      "midi": 65,
      "hit": false,
      "t": 45742.891450000076,
      "d": 542.8575500000006,
      "v": 127
    },
    {
      "midi": 67,
      "hit": false,
      "t": 45742.891450000076,
      "d": 542.8575500000006,
      "v": 127
    },
    {
      "midi": 74,
      "hit": false,
      "t": 45742.891450000076,
      "d": 542.8575500000006,
      "v": 127
    },
    {
      "midi": 75,
      "hit": false,
      "t": 46314.32045000008,
      "d": 271.4287750000003,
      "v": 127
    },
    {
      "midi": 55,
      "hit": false,
      "t": 46314.32045000008,
      "d": 504.76228333332983,
      "v": 127
    },
    {
      "midi": 48,
      "hit": false,
      "t": 46314.32045000008,
      "d": 542.8575499999934,
      "v": 127
    },
    {
      "midi": 63,
      "hit": false,
      "t": 46314.32045000008,
      "d": 542.8575499999934,
      "v": 127
    },
    {
      "midi": 67,
      "hit": false,
      "t": 46314.32045000008,
      "d": 561.9051833333288,
      "v": 127
    },
    {
      "midi": 74,
      "hit": false,
      "t": 46633.36830833341,
      "d": 257.14304999999877,
      "v": 127
    },
    {
      "midi": 55,
      "hit": false,
      "t": 46885.749450000076,
      "d": 271.4287750000003,
      "v": 127
    },
    {
      "midi": 72,
      "hit": false,
      "t": 46885.749450000076,
      "d": 790.4767833333317,
      "v": 127
    },
    {
      "midi": 63,
      "hit": false,
      "t": 46885.749450000076,
      "d": 1133.3341833333325,
      "v": 127
    },
    {
      "midi": 44,
      "hit": false,
      "t": 46885.749450000076,
      "d": 1142.8580000000002,
      "v": 127
    },
    {
      "midi": 60,
      "hit": false,
      "t": 46885.749450000076,
      "d": 1142.8580000000002,
      "v": 127
    },
    {
      "midi": 53,
      "hit": false,
      "t": 47204.79730833341,
      "d": 257.14304999999877,
      "v": 127
    },
    {
      "midi": 51,
      "hit": false,
      "t": 47457.17845000007,
      "d": 523.8099166666725,
      "v": 127
    },
    {
      "midi": 72,
      "hit": false,
      "t": 47776.22630833341,
      "d": 257.14304999999877,
      "v": 127
    },
    {
      "midi": 70,
      "hit": false,
      "t": 48028.607450000076,
      "d": 271.4287750000003,
      "v": 127
    },
    {
      "midi": 51,
      "hit": false,
      "t": 48028.607450000076,
      "d": 504.76228333332983,
      "v": 127
    },
    {
      "midi": 58,
      "hit": false,
      "t": 48028.607450000076,
      "d": 561.9051833333288,
      "v": 127
    },
    {
      "midi": 43,
      "hit": false,
      "t": 48028.607450000076,
      "d": 571.4289999999964,
      "v": 127
    },
    {
      "midi": 63,
      "hit": false,
      "t": 48028.607450000076,
      "d": 590.4766333333318,
      "v": 127
    },
    {
      "midi": 68,
      "hit": false,
      "t": 48347.65530833341,
      "d": 257.14304999999877,
      "v": 127
    },
    {
      "midi": 43,
      "hit": false,
      "t": 48600.03645000007,
      "d": 542.8575500000006,
      "v": 127
    },
    {
      "midi": 51,
      "hit": false,
      "t": 48600.03645000007,
      "d": 542.8575500000006,
      "v": 127
    },
    {
      "midi": 58,
      "hit": false,
      "t": 48600.03645000007,
      "d": 542.8575500000006,
      "v": 127
    },
    {
      "midi": 67,
      "hit": false,
      "t": 48600.03645000007,
      "d": 542.8575500000006,
      "v": 127
    },
    {
      "midi": 48,
      "hit": false,
      "t": 49171.465450000076,
      "d": 542.8575500000006,
      "v": 127
    },
    {
      "midi": 55,
      "hit": false,
      "t": 49171.465450000076,
      "d": 542.8575500000006,
      "v": 127
    },
    {
      "midi": 63,
      "hit": false,
      "t": 49171.465450000076,
      "d": 542.8575500000006,
      "v": 127
    },
    {
      "midi": 65,
      "hit": false,
      "t": 49742.89445000008,
      "d": 1076.1912833333336,
      "v": 127
    },
    {
      "midi": 46,
      "hit": false,
      "t": 49742.89445000008,
      "d": 1123.8103666666648,
      "v": 127
    },
    {
      "midi": 56,
      "hit": false,
      "t": 49742.89445000008,
      "d": 1133.3341833333325,
      "v": 127
    },
    {
      "midi": 60,
      "hit": false,
      "t": 49885.75170000008,
      "d": 409.5241166666674,
      "v": 127
    },
    {
      "midi": 63,
      "hit": false,
      "t": 50314.32345000008,
      "d": 542.8575499999934,
      "v": 127
    },
    {
      "midi": 58,
      "hit": false,
      "t": 50885.75245000008,
      "d": 271.4287750000003,
      "v": 127
    },
    {
      "midi": 62,
      "hit": false,
      "t": 50885.75245000008,
      "d": 552.3813666666683,
      "v": 127
    },
    {
      "midi": 67,
      "hit": false,
      "t": 50885.75245000008,
      "d": 561.905183333336,
      "v": 127
    },
    {
      "midi": 34,
      "hit": false,
      "t": 50885.75245000008,
      "d": 571.4290000000037,
      "v": 127
    },
    {
      "midi": 56,
      "hit": false,
      "t": 51204.80030833341,
      "d": 257.14305000000604,
      "v": 127
    },
    {
      "midi": 55,
      "hit": false,
      "t": 51457.181450000084,
      "d": 542.8575500000006,
      "v": 127
    },
    {
      "midi": 63,
      "hit": false,
      "t": 51457.181450000084,
      "d": 542.8575500000006,
      "v": 127
    },
    {
      "midi": 39,
      "hit": false,
      "t": 51457.181450000084,
      "d": 1471.4296750000067,
      "v": 127
    },
    {
      "midi": 46,
      "hit": false,
      "t": 51457.181450000084,
      "d": 1471.4296750000067,
      "v": 127
    },
    {
      "midi": 58,
      "hit": false,
      "t": 52028.61045000009,
      "d": 542.8575500000006,
      "v": 127
    },
    {
      "midi": 67,
      "hit": false,
      "t": 52028.61045000009,
      "d": 542.8575500000006,
      "v": 127
    },
    {
      "midi": 63,
      "hit": false,
      "t": 52600.03945000009,
      "d": 542.8575500000006,
      "v": 127
    },
    {
      "midi": 70,
      "hit": false,
      "t": 52600.03945000009,
      "d": 542.8575500000006,
      "v": 127
    },
    {
      "midi": 55,
      "hit": false,
      "t": 53171.468450000095,
      "d": 542.8575500000006,
      "v": 127
    },
    {
      "midi": 62,
      "hit": false,
      "t": 53171.468450000095,
      "d": 542.8575500000006,
      "v": 127
    },
    {
      "midi": 48,
      "hit": false,
      "t": 53171.468450000095,
      "d": 1471.4296750000067,
      "v": 127
    },
    {
      "midi": 34,
      "hit": false,
      "t": 53171.468450000095,
      "d": 1480.9534916666744,
      "v": 127
    },
    {
      "midi": 58,
      "hit": false,
      "t": 53742.8974500001,
      "d": 542.8575500000006,
      "v": 127
    },
    {
      "midi": 67,
      "hit": false,
      "t": 53742.8974500001,
      "d": 542.8575500000006,
      "v": 127
    },
    {
      "midi": 62,
      "hit": false,
      "t": 54314.3264500001,
      "d": 542.8575500000006,
      "v": 127
    },
    {
      "midi": 70,
      "hit": false,
      "t": 54314.3264500001,
      "d": 542.8575500000006,
      "v": 127
    },
    {
      "midi": 60,
      "hit": false,
      "t": 54885.755450000106,
      "d": 542.8575500000006,
      "v": 127
    },
    {
      "midi": 68,
      "hit": false,
      "t": 54885.755450000106,
      "d": 542.8575500000006,
      "v": 127
    },
    {
      "midi": 75,
      "hit": false,
      "t": 54885.755450000106,
      "d": 542.8575500000006,
      "v": 127
    },
    {
      "midi": 44,
      "hit": false,
      "t": 54885.755450000106,
      "d": 1442.8582250000109,
      "v": 127
    },
    {
      "midi": 56,
      "hit": false,
      "t": 55457.18445000011,
      "d": 542.8575500000006,
      "v": 127
    },
    {
      "midi": 63,
      "hit": false,
      "t": 55457.18445000011,
      "d": 542.8575500000006,
      "v": 127
    },
    {
      "midi": 72,
      "hit": false,
      "t": 55457.18445000011,
      "d": 542.8575500000006,
      "v": 127
    },
    {
      "midi": 60,
      "hit": false,
      "t": 56028.61345000011,
      "d": 542.8575500000006,
      "v": 127
    },
    {
      "midi": 68,
      "hit": false,
      "t": 56028.61345000011,
      "d": 542.8575500000006,
      "v": 127
    },
    {
      "midi": 75,
      "hit": false,
      "t": 56028.61345000011,
      "d": 542.8575500000006,
      "v": 127
    },
    {
      "midi": 55,
      "hit": false,
      "t": 56600.04245000012,
      "d": 542.8575500000006,
      "v": 127
    },
    {
      "midi": 70,
      "hit": false,
      "t": 56600.04245000012,
      "d": 1423.8105916666755,
      "v": 127
    },
    {
      "midi": 58,
      "hit": false,
      "t": 56600.04245000012,
      "d": 1452.3820416666786,
      "v": 127
    },
    {
      "midi": 63,
      "hit": false,
      "t": 56600.04245000012,
      "d": 1452.3820416666786,
      "v": 127
    },
    {
      "midi": 43,
      "hit": false,
      "t": 56600.04245000012,
      "d": 1461.9058583333463,
      "v": 127
    },
    {
      "midi": 53,
      "hit": false,
      "t": 57171.47145000012,
      "d": 542.8575500000006,
      "v": 127
    },
    {
      "midi": 51,
      "hit": false,
      "t": 57742.900450000125,
      "d": 542.8575500000079,
      "v": 127
    },
    {
      "midi": 75,
      "hit": false,
      "t": 58314.329450000136,
      "d": 271.4287750000003,
      "v": 127
    },
    {
      "midi": 55,
      "hit": false,
      "t": 58314.329450000136,
      "d": 1095.2389166666617,
      "v": 127
    },
    {
      "midi": 63,
      "hit": false,
      "t": 58314.329450000136,
      "d": 1095.2389166666617,
      "v": 127
    },
    {
      "midi": 48,
      "hit": false,
      "t": 58314.329450000136,
      "d": 1114.286549999997,
      "v": 127
    },
    {
      "midi": 67,
      "hit": false,
      "t": 58314.329450000136,
      "d": 1123.8103666666648,
      "v": 127
    },
    {
      "midi": 74,
      "hit": false,
      "t": 58633.37730833347,
      "d": 257.14304999999877,
      "v": 127
    },
    {
      "midi": 72,
      "hit": false,
      "t": 58885.75845000013,
      "d": 1133.3341833333398,
      "v": 127
    },
    {
      "midi": 48,
      "hit": false,
      "t": 59457.187450000136,
      "d": 542.8575500000006,
      "v": 127
    },
    {
      "midi": 55,
      "hit": false,
      "t": 59457.187450000136,
      "d": 542.8575500000006,
      "v": 127
    },
    {
      "midi": 60,
      "hit": false,
      "t": 59457.187450000136,
      "d": 542.8575500000006,
      "v": 127
    },
    {
      "midi": 63,
      "hit": false,
      "t": 59457.187450000136,
      "d": 542.8575500000006,
      "v": 127
    },
    {
      "midi": 70,
      "hit": false,
      "t": 60028.61645000014,
      "d": 271.4287750000003,
      "v": 127
    },
    {
      "midi": 43,
      "hit": false,
      "t": 60028.61645000014,
      "d": 1095.2389166666617,
      "v": 127
    },
    {
      "midi": 62,
      "hit": false,
      "t": 60028.61645000014,
      "d": 1095.2389166666617,
      "v": 127
    },
    {
      "midi": 55,
      "hit": false,
      "t": 60028.61645000014,
      "d": 1104.7627333333294,
      "v": 127
    },
    {
      "midi": 58,
      "hit": false,
      "t": 60028.61645000014,
      "d": 1104.7627333333294,
      "v": 127
    },
    {
      "midi": 68,
      "hit": false,
      "t": 60347.66430833347,
      "d": 257.14304999999877,
      "v": 127
    },
    {
      "midi": 67,
      "hit": false,
      "t": 60600.045450000136,
      "d": 1114.286549999997,
      "v": 127
    },
    {
      "midi": 43,
      "hit": false,
      "t": 61171.47445000013,
      "d": 542.8575500000006,
      "v": 127
    },
    {
      "midi": 55,
      "hit": false,
      "t": 61171.47445000013,
      "d": 542.8575500000006,
      "v": 127
    },
    {
      "midi": 58,
      "hit": false,
      "t": 61171.47445000013,
      "d": 542.8575500000006,
      "v": 127
    },
    {
      "midi": 62,
      "hit": false,
      "t": 61171.47445000013,
      "d": 542.8575500000006,
      "v": 127
    },
    {
      "midi": 60,
      "hit": false,
      "t": 61742.903450000136,
      "d": 542.8575500000006,
      "v": 127
    },
    {
      "midi": 68,
      "hit": false,
      "t": 61742.903450000136,
      "d": 542.8575500000006,
      "v": 127
    },
    {
      "midi": 46,
      "hit": false,
      "t": 61742.903450000136,
      "d": 1123.810366666672,
      "v": 127
    },
    {
      "midi": 58,
      "hit": false,
      "t": 62314.33245000014,
      "d": 542.8575500000006,
      "v": 127
    },
    {
      "midi": 62,
      "hit": false,
      "t": 62314.33245000014,
      "d": 542.8575500000006,
      "v": 127
    },
    {
      "midi": 67,
      "hit": false,
      "t": 62314.33245000014,
      "d": 542.8575500000006,
      "v": 127
    },
    {
      "midi": 34,
      "hit": false,
      "t": 62885.761450000144,
      "d": 542.8575500000006,
      "v": 127
    },
    {
      "midi": 56,
      "hit": false,
      "t": 62885.761450000144,
      "d": 542.8575500000006,
      "v": 127
    },
    {
      "midi": 60,
      "hit": false,
      "t": 62885.761450000144,
      "d": 542.8575500000006,
      "v": 127
    },
    {
      "midi": 65,
      "hit": false,
      "t": 62885.761450000144,
      "d": 542.8575500000006,
      "v": 127
    },
    {
      "midi": 39,
      "hit": false,
      "t": 63457.19045000015,
      "d": 542.8575500000006,
      "v": 127
    },
    {
      "midi": 55,
      "hit": false,
      "t": 63457.19045000015,
      "d": 542.8575500000006,
      "v": 127
    },
    {
      "midi": 58,
      "hit": false,
      "t": 63457.19045000015,
      "d": 542.8575500000006,
      "v": 127
    },
    {
      "midi": 63,
      "hit": false,
      "t": 63457.19045000015,
      "d": 542.8575500000006,
      "v": 127
    },
    {
      "midi": 74,
      "hit": false,
      "t": 64028.61945000015,
      "d": 271.4287750000003,
      "v": 127
    },
    {
      "midi": 46,
      "hit": false,
      "t": 64028.61945000015,
      "d": 523.8099166666652,
      "v": 127
    },
    {
      "midi": 57,
      "hit": false,
      "t": 64028.61945000015,
      "d": 533.3337333333329,
      "v": 127
    },
    {
      "midi": 63,
      "hit": false,
      "t": 64028.61945000015,
      "d": 533.3337333333329,
      "v": 127
    },
    {
      "midi": 66,
      "hit": false,
      "t": 64028.61945000015,
      "d": 561.905183333336,
      "v": 127
    },
    {
      "midi": 72,
      "hit": false,
      "t": 64347.66730833348,
      "d": 257.14305000000604,
      "v": 127
    },
    {
      "midi": 56,
      "hit": false,
      "t": 64600.048450000155,
      "d": 2171.43020000001,
      "v": 127
    },
    {
      "midi": 62,
      "hit": false,
      "t": 64600.048450000155,
      "d": 2171.43020000001,
      "v": 127
    },
    {
      "midi": 65,
      "hit": false,
      "t": 64600.048450000155,
      "d": 2171.43020000001,
      "v": 127
    },
    {
      "midi": 63,
      "hit": false,
      "t": 65142.906000000025,
      "d": 1714.287000000004,
      "v": 81
    },
    {
      "midi": 70,
      "hit": false,
      "t": 65142.906000000025,
      "d": 1714.287000000004,
      "v": 81
    },
    {
      "midi": 55,
      "hit": false,
      "t": 65171.47745000016,
      "d": 542.8575499999934,
      "v": 127
    },
    {
      "midi": 63,
      "hit": false,
      "t": 65171.47745000016,
      "d": 542.8575499999934,
      "v": 127
    },
    {
      "midi": 46,
      "hit": false,
      "t": 65171.47745000016,
      "d": 1452.382041666664,
      "v": 127
    },
    {
      "midi": 39,
      "hit": false,
      "t": 65171.47745000016,
      "d": 1471.4296749999994,
      "v": 127
    },
    {
      "midi": 58,
      "hit": false,
      "t": 65742.90645000016,
      "d": 542.8575500000006,
      "v": 127
    },
    {
      "midi": 67,
      "hit": false,
      "t": 65742.90645000016,
      "d": 542.8575500000006,
      "v": 127
    },
    {
      "midi": 54,
      "hit": false,
      "t": 66123.85911666669,
      "d": 142.85725000000093,
      "v": 46
    },
    {
      "midi": 55,
      "hit": false,
      "t": 66123.85911666669,
      "d": 733.33388333334,
      "v": 84
    },
    {
      "midi": 63,
      "hit": false,
      "t": 66314.33545000016,
      "d": 542.8575500000006,
      "v": 127
    },
    {
      "midi": 70,
      "hit": false,
      "t": 66314.33545000016,
      "d": 542.8575500000006,
      "v": 127
    },
    {
      "midi": 55,
      "hit": false,
      "t": 66857.19300000003,
      "d": 1714.2869999999966,
      "v": 70
    },
    {
      "midi": 58,
      "hit": false,
      "t": 66857.19300000003,
      "d": 1714.2869999999966,
      "v": 70
    },
    {
      "midi": 62,
      "hit": false,
      "t": 66857.19300000003,
      "d": 1714.2869999999966,
      "v": 70
    },
    {
      "midi": 55,
      "hit": false,
      "t": 66885.76445000016,
      "d": 542.8575500000006,
      "v": 127
    },
    {
      "midi": 62,
      "hit": false,
      "t": 66885.76445000016,
      "d": 542.8575500000006,
      "v": 127
    },
    {
      "midi": 34,
      "hit": false,
      "t": 66885.76445000016,
      "d": 1471.4296750000067,
      "v": 127
    },
    {
      "midi": 46,
      "hit": false,
      "t": 66885.76445000016,
      "d": 1490.477308333342,
      "v": 127
    },
    {
      "midi": 58,
      "hit": false,
      "t": 67457.19345000017,
      "d": 542.8575500000006,
      "v": 127
    },
    {
      "midi": 67,
      "hit": false,
      "t": 67457.19345000017,
      "d": 542.8575500000006,
      "v": 127
    },
    {
      "midi": 62,
      "hit": false,
      "t": 68028.62245000017,
      "d": 542.8575500000006,
      "v": 127
    },
    {
      "midi": 70,
      "hit": false,
      "t": 68028.62245000017,
      "d": 542.8575500000006,
      "v": 127
    },
    {
      "midi": 56,
      "hit": false,
      "t": 68571.48000000003,
      "d": 1714.2869999999966,
      "v": 70
    },
    {
      "midi": 60,
      "hit": false,
      "t": 68571.48000000003,
      "d": 1714.2869999999966,
      "v": 70
    },
    {
      "midi": 63,
      "hit": false,
      "t": 68571.48000000003,
      "d": 1714.2869999999966,
      "v": 70
    },
    {
      "midi": 68,
      "hit": false,
      "t": 68571.48000000003,
      "d": 1714.2869999999966,
      "v": 70
    },
    {
      "midi": 60,
      "hit": false,
      "t": 68600.05145000017,
      "d": 542.8575500000006,
      "v": 127
    },
    {
      "midi": 68,
      "hit": false,
      "t": 68600.05145000017,
      "d": 542.8575500000006,
      "v": 127
    },
    {
      "midi": 75,
      "hit": false,
      "t": 68600.05145000017,
      "d": 542.8575500000006,
      "v": 127
    },
    {
      "midi": 44,
      "hit": false,
      "t": 68600.05145000017,
      "d": 1452.3820416666713,
      "v": 127
    },
    {
      "midi": 56,
      "hit": false,
      "t": 69171.48045000018,
      "d": 542.8575500000006,
      "v": 127
    },
    {
      "midi": 63,
      "hit": false,
      "t": 69171.48045000018,
      "d": 542.8575500000006,
      "v": 127
    },
    {
      "midi": 72,
      "hit": false,
      "t": 69171.48045000018,
      "d": 542.8575500000006,
      "v": 127
    },
    {
      "midi": 60,
      "hit": false,
      "t": 69742.90945000018,
      "d": 542.8575500000006,
      "v": 127
    },
    {
      "midi": 68,
      "hit": false,
      "t": 69742.90945000018,
      "d": 542.8575500000006,
      "v": 127
    },
    {
      "midi": 75,
      "hit": false,
      "t": 69742.90945000018,
      "d": 542.8575500000006,
      "v": 127
    },
    {
      "midi": 55,
      "hit": false,
      "t": 70314.33845000018,
      "d": 542.8575500000006,
      "v": 127
    },
    {
      "midi": 58,
      "hit": false,
      "t": 70314.33845000018,
      "d": 542.8575500000006,
      "v": 127
    },
    {
      "midi": 63,
      "hit": false,
      "t": 70314.33845000018,
      "d": 1452.3820416666713,
      "v": 127
    },
    {
      "midi": 43,
      "hit": false,
      "t": 70314.33845000018,
      "d": 1461.905858333339,
      "v": 127
    },
    {
      "midi": 70,
      "hit": false,
      "t": 70314.33845000018,
      "d": 1480.9534916666744,
      "v": 127
    },
    {
      "midi": 55,
      "hit": false,
      "t": 70695.29111666669,
      "d": 280.95259166666074,
      "v": 69
    },
    {
      "midi": 58,
      "hit": false,
      "t": 70695.29111666669,
      "d": 280.95259166666074,
      "v": 69
    },
    {
      "midi": 63,
      "hit": false,
      "t": 70695.29111666669,
      "d": 280.95259166666074,
      "v": 69
    },
    {
      "midi": 53,
      "hit": false,
      "t": 70885.76745000019,
      "d": 542.8575500000006,
      "v": 127
    },
    {
      "midi": 55,
      "hit": false,
      "t": 71266.72011666668,
      "d": 733.33388333334,
      "v": 71
    },
    {
      "midi": 58,
      "hit": false,
      "t": 71266.72011666668,
      "d": 733.33388333334,
      "v": 71
    },
    {
      "midi": 63,
      "hit": false,
      "t": 71266.72011666668,
      "d": 733.33388333334,
      "v": 71
    },
    {
      "midi": 51,
      "hit": false,
      "t": 71457.19645000019,
      "d": 542.8575500000006,
      "v": 127
    },
    {
      "midi": 55,
      "hit": false,
      "t": 72000.05400000002,
      "d": 1438.0963166666625,
      "v": 69
    },
    {
      "midi": 46,
      "hit": false,
      "t": 72000.05400000002,
      "d": 1714.286999999982,
      "v": 72
    },
    {
      "midi": 53,
      "hit": false,
      "t": 72000.05400000002,
      "d": 1714.286999999982,
      "v": 77
    },
    {
      "midi": 70,
      "hit": false,
      "t": 72028.6254500002,
      "d": 271.42877499999304,
      "v": 127
    },
    {
      "midi": 43,
      "hit": false,
      "t": 72028.6254500002,
      "d": 1095.238916666669,
      "v": 127
    },
    {
      "midi": 58,
      "hit": false,
      "t": 72028.6254500002,
      "d": 1104.7627333333367,
      "v": 127
    },
    {
      "midi": 50,
      "hit": false,
      "t": 72028.6254500002,
      "d": 1114.2865500000044,
      "v": 127
    },
    {
      "midi": 62,
      "hit": false,
      "t": 72028.6254500002,
      "d": 1114.2865500000044,
      "v": 127
    },
    {
      "midi": 68,
      "hit": false,
      "t": 72347.67330833353,
      "d": 257.14304999999877,
      "v": 127
    },
    {
      "midi": 67,
      "hit": false,
      "t": 72600.0544500002,
      "d": 542.8575500000006,
      "v": 127
    },
    {
      "midi": 43,
      "hit": false,
      "t": 73171.4834500002,
      "d": 542.8575500000006,
      "v": 127
    },
    {
      "midi": 50,
      "hit": false,
      "t": 73171.4834500002,
      "d": 542.8575500000006,
      "v": 127
    },
    {
      "midi": 58,
      "hit": false,
      "t": 73171.4834500002,
      "d": 542.8575500000006,
      "v": 127
    },
    {
      "midi": 62,
      "hit": false,
      "t": 73171.4834500002,
      "d": 542.8575500000006,
      "v": 127
    },
    {
      "midi": 57,
      "hit": false,
      "t": 73333.38833333335,
      "d": 190.47633333332487,
      "v": 54
    },
    {
      "midi": 58,
      "hit": false,
      "t": 73523.86466666668,
      "d": 166.6667916666629,
      "v": 78
    },
    {
      "midi": 60,
      "hit": false,
      "t": 73714.341,
      "d": 1438.0963166666625,
      "v": 69
    },
    {
      "midi": 51,
      "hit": false,
      "t": 73714.341,
      "d": 1514.2868499999895,
      "v": 72
    },
    {
      "midi": 58,
      "hit": false,
      "t": 73714.341,
      "d": 1514.2868499999895,
      "v": 77
    },
    {
      "midi": 63,
      "hit": false,
      "t": 73742.9124500002,
      "d": 271.42877499999304,
      "v": 127
    },
    {
      "midi": 67,
      "hit": false,
      "t": 73742.9124500002,
      "d": 271.42877499999304,
      "v": 127
    },
    {
      "midi": 36,
      "hit": false,
      "t": 73742.9124500002,
      "d": 1133.3341833333252,
      "v": 127
    },
    {
      "midi": 48,
      "hit": false,
      "t": 73742.9124500002,
      "d": 1133.3341833333252,
      "v": 127
    },
    {
      "midi": 55,
      "hit": false,
      "t": 73742.9124500002,
      "d": 1442.858224999989,
      "v": 127
    },
    {
      "midi": 62,
      "hit": false,
      "t": 74061.96030833354,
      "d": 257.14304999999877,
      "v": 127
    },
    {
      "midi": 65,
      "hit": false,
      "t": 74061.96030833354,
      "d": 257.14304999999877,
      "v": 127
    },
    {
      "midi": 63,
      "hit": false,
      "t": 74314.34145000021,
      "d": 1133.3341833333252,
      "v": 127
    },
    {
      "midi": 60,
      "hit": false,
      "t": 74314.34145000021,
      "d": 1142.857999999993,
      "v": 127
    },
    {
      "midi": 43,
      "hit": false,
      "t": 74885.7704500002,
      "d": 542.8575500000006,
      "v": 127
    },
    {
      "midi": 53,
      "hit": false,
      "t": 75276.24693333333,
      "d": 1857.1442499999976,
      "v": 70
    },
    {
      "midi": 56,
      "hit": false,
      "t": 75276.24693333333,
      "d": 1857.1442499999976,
      "v": 70
    },
    {
      "midi": 60,
      "hit": false,
      "t": 75276.24693333333,
      "d": 1857.1442499999976,
      "v": 70
    },
    {
      "midi": 65,
      "hit": false,
      "t": 75276.24693333333,
      "d": 1857.1442499999976,
      "v": 70
    },
    {
      "midi": 65,
      "hit": false,
      "t": 75457.1994500002,
      "d": 542.8575500000006,
      "v": 127
    },
    {
      "midi": 41,
      "hit": false,
      "t": 75457.1994500002,
      "d": 1095.238916666669,
      "v": 127
    },
    {
      "midi": 56,
      "hit": false,
      "t": 75457.1994500002,
      "d": 1095.238916666669,
      "v": 127
    },
    {
      "midi": 60,
      "hit": false,
      "t": 76028.62845000021,
      "d": 542.8575500000006,
      "v": 127
    },
    {
      "midi": 41,
      "hit": false,
      "t": 76600.05745000021,
      "d": 542.8575500000006,
      "v": 127
    },
    {
      "midi": 56,
      "hit": false,
      "t": 76600.05745000021,
      "d": 542.8575500000006,
      "v": 127
    },
    {
      "midi": 60,
      "hit": false,
      "t": 76600.05745000021,
      "d": 542.8575500000006,
      "v": 127
    },
    {
      "midi": 65,
      "hit": false,
      "t": 76600.05745000021,
      "d": 542.8575500000006,
      "v": 127
    },
    {
      "midi": 56,
      "hit": false,
      "t": 77142.915,
      "d": 847.6196833333379,
      "v": 68
    },
    {
      "midi": 61,
      "hit": false,
      "t": 77142.915,
      "d": 847.6196833333379,
      "v": 68
    },
    {
      "midi": 62,
      "hit": false,
      "t": 77142.915,
      "d": 847.6196833333379,
      "v": 68
    },
    {
      "midi": 65,
      "hit": false,
      "t": 77142.915,
      "d": 847.6196833333379,
      "v": 68
    },
    {
      "midi": 46,
      "hit": false,
      "t": 77171.48645000021,
      "d": 542.8575500000006,
      "v": 127
    },
    {
      "midi": 58,
      "hit": false,
      "t": 77171.48645000021,
      "d": 1123.810366666672,
      "v": 127
    },
    {
      "midi": 62,
      "hit": false,
      "t": 77171.48645000021,
      "d": 1133.3341833333398,
      "v": 127
    },
    {
      "midi": 67,
      "hit": false,
      "t": 77171.48645000021,
      "d": 1142.8580000000075,
      "v": 127
    },
    {
      "midi": 34,
      "hit": false,
      "t": 77742.91545000022,
      "d": 542.8575500000006,
      "v": 127
    },
    {
      "midi": 56,
      "hit": false,
      "t": 78095.29666666666,
      "d": 761.9053333333286,
      "v": 72
    },
    {
      "midi": 61,
      "hit": false,
      "t": 78095.29666666666,
      "d": 761.9053333333286,
      "v": 72
    },
    {
      "midi": 62,
      "hit": false,
      "t": 78095.29666666666,
      "d": 761.9053333333286,
      "v": 72
    },
    {
      "midi": 65,
      "hit": false,
      "t": 78095.29666666666,
      "d": 761.9053333333286,
      "v": 72
    },
    {
      "midi": 46,
      "hit": false,
      "t": 78314.34445000022,
      "d": 542.8575500000006,
      "v": 127
    },
    {
      "midi": 56,
      "hit": false,
      "t": 78314.34445000022,
      "d": 542.8575500000006,
      "v": 127
    },
    {
      "midi": 60,
      "hit": false,
      "t": 78314.34445000022,
      "d": 542.8575500000006,
      "v": 127
    },
    {
      "midi": 65,
      "hit": false,
      "t": 78314.34445000022,
      "d": 542.8575500000006,
      "v": 127
    },
    {
      "midi": 55,
      "hit": false,
      "t": 78885.77345000023,
      "d": 542.8575500000006,
      "v": 127
    },
    {
      "midi": 63,
      "hit": false,
      "t": 78885.77345000023,
      "d": 542.8575500000006,
      "v": 127
    },
    {
      "midi": 46,
      "hit": false,
      "t": 78885.77345000023,
      "d": 1442.8582250000036,
      "v": 127
    },
    {
      "midi": 39,
      "hit": false,
      "t": 78885.77345000023,
      "d": 1452.3820416666713,
      "v": 127
    },
    {
      "midi": 55,
      "hit": false,
      "t": 78904.82108333333,
      "d": 895.2387666666618,
      "v": 64
    },
    {
      "midi": 58,
      "hit": false,
      "t": 78904.82108333333,
      "d": 895.2387666666618,
      "v": 64
    },
    {
      "midi": 63,
      "hit": false,
      "t": 78904.82108333333,
      "d": 895.2387666666618,
      "v": 64
    },
    {
      "midi": 58,
      "hit": false,
      "t": 79457.20245000023,
      "d": 542.8575500000006,
      "v": 127
    },
    {
      "midi": 67,
      "hit": false,
      "t": 79457.20245000023,
      "d": 542.8575500000006,
      "v": 127
    },
    {
      "midi": 55,
      "hit": false,
      "t": 79800.05984999999,
      "d": 771.4291499999963,
      "v": 76
    },
    {
      "midi": 63,
      "hit": false,
      "t": 79800.05984999999,
      "d": 771.4291499999963,
      "v": 76
    },
    {
      "midi": 70,
      "hit": false,
      "t": 79800.05984999999,
      "d": 771.4291499999963,
      "v": 76
    },
    {
      "midi": 63,
      "hit": false,
      "t": 80028.63145000023,
      "d": 542.8575500000006,
      "v": 127
    },
    {
      "midi": 70,
      "hit": false,
      "t": 80028.63145000023,
      "d": 542.8575500000006,
      "v": 127
    },
    {
      "midi": 55,
      "hit": false,
      "t": 80571.48899999999,
      "d": 1514.286850000004,
      "v": 70
    },
    {
      "midi": 58,
      "hit": false,
      "t": 80571.48899999999,
      "d": 1514.286850000004,
      "v": 70
    },
    {
      "midi": 62,
      "hit": false,
      "t": 80571.48899999999,
      "d": 1514.286850000004,
      "v": 70
    },
    {
      "midi": 55,
      "hit": false,
      "t": 80600.06045000024,
      "d": 542.8575500000006,
      "v": 127
    },
    {
      "midi": 62,
      "hit": false,
      "t": 80600.06045000024,
      "d": 542.8575500000006,
      "v": 127
    },
    {
      "midi": 34,
      "hit": false,
      "t": 80600.06045000024,
      "d": 1480.9534916666744,
      "v": 127
    },
    {
      "midi": 46,
      "hit": false,
      "t": 80600.06045000024,
      "d": 1480.9534916666744,
      "v": 127
    },
    {
      "midi": 58,
      "hit": false,
      "t": 81171.48945000024,
      "d": 542.8575500000006,
      "v": 127
    },
    {
      "midi": 67,
      "hit": false,
      "t": 81171.48945000024,
      "d": 542.8575500000006,
      "v": 127
    },
    {
      "midi": 62,
      "hit": false,
      "t": 81742.91845000024,
      "d": 542.8575500000006,
      "v": 127
    },
    {
      "midi": 70,
      "hit": false,
      "t": 81742.91845000024,
      "d": 542.8575500000006,
      "v": 127
    },
    {
      "midi": 56,
      "hit": false,
      "t": 82133.39493333333,
      "d": 1857.144250000012,
      "v": 81
    },
    {
      "midi": 63,
      "hit": false,
      "t": 82133.39493333333,
      "d": 1857.144250000012,
      "v": 81
    },
    {
      "midi": 60,
      "hit": false,
      "t": 82314.34745000025,
      "d": 542.8575500000006,
      "v": 127
    },
    {
      "midi": 68,
      "hit": false,
      "t": 82314.34745000025,
      "d": 542.8575500000006,
      "v": 127
    },
    {
      "midi": 75,
      "hit": false,
      "t": 82314.34745000025,
      "d": 542.8575500000006,
      "v": 127
    },
    {
      "midi": 44,
      "hit": false,
      "t": 82314.34745000025,
      "d": 1442.8582250000036,
      "v": 127
    },
    {
      "midi": 56,
      "hit": false,
      "t": 82885.77645000025,
      "d": 542.8575500000006,
      "v": 127
    },
    {
      "midi": 63,
      "hit": false,
      "t": 82885.77645000025,
      "d": 542.8575500000006,
      "v": 127
    },
    {
      "midi": 72,
      "hit": false,
      "t": 82885.77645000025,
      "d": 542.8575500000006,
      "v": 127
    },
    {
      "midi": 59,
      "hit": false,
      "t": 83266.72911666667,
      "d": 142.85725000000093,
      "v": 46
    },
    {
      "midi": 60,
      "hit": false,
      "t": 83266.72911666667,
      "d": 723.8100666666724,
      "v": 84
    },
    {
      "midi": 60,
      "hit": false,
      "t": 83457.20545000026,
      "d": 542.8575500000006,
      "v": 127
    },
    {
      "midi": 68,
      "hit": false,
      "t": 83457.20545000026,
      "d": 542.8575500000006,
      "v": 127
    },
    {
      "midi": 75,
      "hit": false,
      "t": 83457.20545000026,
      "d": 542.8575500000006,
      "v": 127
    },
    {
      "midi": 55,
      "hit": false,
      "t": 84028.63445000026,
      "d": 542.8575500000006,
      "v": 127
    },
    {
      "midi": 43,
      "hit": false,
      "t": 84028.63445000026,
      "d": 1452.3820416666713,
      "v": 127
    },
    {
      "midi": 63,
      "hit": false,
      "t": 84028.63445000026,
      "d": 1452.3820416666713,
      "v": 127
    },
    {
      "midi": 70,
      "hit": false,
      "t": 84028.63445000026,
      "d": 1452.3820416666713,
      "v": 127
    },
    {
      "midi": 58,
      "hit": false,
      "t": 84028.63445000026,
      "d": 1461.905858333339,
      "v": 127
    },
    {
      "midi": 55,
      "hit": false,
      "t": 84357.20612500001,
      "d": 1157.1437250000017,
      "v": 70
    },
    {
      "midi": 58,
      "hit": false,
      "t": 84357.20612500001,
      "d": 1157.1437250000017,
      "v": 70
    },
    {
      "midi": 63,
      "hit": false,
      "t": 84357.20612500001,
      "d": 1157.1437250000017,
      "v": 70
    },
    {
      "midi": 53,
      "hit": false,
      "t": 84600.06345000026,
      "d": 542.8575500000006,
      "v": 127
    },
    {
      "midi": 51,
      "hit": false,
      "t": 85171.49245000027,
      "d": 542.8575500000006,
      "v": 127
    },
    {
      "midi": 55,
      "hit": false,
      "t": 85561.96893333335,
      "d": 1580.9535666666634,
      "v": 69
    },
    {
      "midi": 46,
      "hit": false,
      "t": 85561.96893333335,
      "d": 1857.144249999983,
      "v": 72
    },
    {
      "midi": 53,
      "hit": false,
      "t": 85561.96893333335,
      "d": 1857.144249999983,
      "v": 77
    },
    {
      "midi": 70,
      "hit": false,
      "t": 85742.92145000027,
      "d": 271.42877499999304,
      "v": 127
    },
    {
      "midi": 62,
      "hit": false,
      "t": 85742.92145000027,
      "d": 1095.238916666669,
      "v": 127
    },
    {
      "midi": 43,
      "hit": false,
      "t": 85742.92145000027,
      "d": 1104.7627333333367,
      "v": 127
    },
    {
      "midi": 50,
      "hit": false,
      "t": 85742.92145000027,
      "d": 1104.7627333333367,
      "v": 127
    },
    {
      "midi": 58,
      "hit": false,
      "t": 85742.92145000027,
      "d": 1123.810366666672,
      "v": 127
    },
    {
      "midi": 68,
      "hit": false,
      "t": 86061.9693083336,
      "d": 257.14304999999877,
      "v": 127
    },
    {
      "midi": 67,
      "hit": false,
      "t": 86314.35045000027,
      "d": 1133.3341833333398,
      "v": 127
    },
    {
      "midi": 43,
      "hit": false,
      "t": 86885.77945000028,
      "d": 542.8575500000006,
      "v": 127
    },
    {
      "midi": 50,
      "hit": false,
      "t": 86885.77945000028,
      "d": 542.8575500000006,
      "v": 127
    },
    {
      "midi": 58,
      "hit": false,
      "t": 86885.77945000028,
      "d": 542.8575500000006,
      "v": 127
    },
    {
      "midi": 62,
      "hit": false,
      "t": 86885.77945000028,
      "d": 542.8575500000006,
      "v": 127
    },
    {
      "midi": 57,
      "hit": false,
      "t": 87047.68433333335,
      "d": 190.47633333332487,
      "v": 54
    },
    {
      "midi": 58,
      "hit": false,
      "t": 87238.16066666668,
      "d": 166.6667916666629,
      "v": 78
    },
    {
      "midi": 56,
      "hit": false,
      "t": 87428.637,
      "d": 1571.4297499999957,
      "v": 74
    },
    {
      "midi": 60,
      "hit": false,
      "t": 87428.637,
      "d": 1571.4297499999957,
      "v": 74
    },
    {
      "midi": 63,
      "hit": false,
      "t": 87428.637,
      "d": 1571.4297499999957,
      "v": 74
    },
    {
      "midi": 67,
      "hit": false,
      "t": 87457.20845000028,
      "d": 271.42877499999304,
      "v": 127
    },
    {
      "midi": 44,
      "hit": false,
      "t": 87457.20845000028,
      "d": 1104.7627333333367,
      "v": 127
    },
    {
      "midi": 60,
      "hit": false,
      "t": 87457.20845000028,
      "d": 1104.7627333333367,
      "v": 127
    },
    {
      "midi": 51,
      "hit": false,
      "t": 87457.20845000028,
      "d": 1114.2865500000044,
      "v": 127
    },
    {
      "midi": 56,
      "hit": false,
      "t": 87457.20845000028,
      "d": 1123.810366666672,
      "v": 127
    },
    {
      "midi": 65,
      "hit": false,
      "t": 87776.25630833361,
      "d": 257.14304999999877,
      "v": 127
    },
    {
      "midi": 63,
      "hit": false,
      "t": 88028.63745000029,
      "d": 1123.810366666672,
      "v": 127
    },
    {
      "midi": 44,
      "hit": false,
      "t": 88600.06645000029,
      "d": 542.8575500000006,
      "v": 127
    },
    {
      "midi": 51,
      "hit": false,
      "t": 88600.06645000029,
      "d": 542.8575500000006,
      "v": 127
    },
    {
      "midi": 56,
      "hit": false,
      "t": 88600.06645000029,
      "d": 542.8575500000006,
      "v": 127
    },
    {
      "midi": 60,
      "hit": false,
      "t": 88600.06645000029,
      "d": 542.8575500000006,
      "v": 127
    },
    {
      "midi": 72,
      "hit": false,
      "t": 88981.01911666666,
      "d": 161.90488333333633,
      "v": 67
    },
    {
      "midi": 56,
      "hit": false,
      "t": 89142.924,
      "d": 938.0959416666738,
      "v": 70
    },
    {
      "midi": 60,
      "hit": false,
      "t": 89142.924,
      "d": 938.0959416666738,
      "v": 70
    },
    {
      "midi": 62,
      "hit": false,
      "t": 89142.924,
      "d": 938.0959416666738,
      "v": 70
    },
    {
      "midi": 67,
      "hit": false,
      "t": 89142.924,
      "d": 938.0959416666738,
      "v": 70
    },
    {
      "midi": 60,
      "hit": false,
      "t": 89171.4954500003,
      "d": 542.8575500000006,
      "v": 127
    },
    {
      "midi": 65,
      "hit": false,
      "t": 89171.4954500003,
      "d": 542.8575500000006,
      "v": 127
    },
    {
      "midi": 46,
      "hit": false,
      "t": 89171.4954500003,
      "d": 1085.7151000000013,
      "v": 127
    },
    {
      "midi": 56,
      "hit": false,
      "t": 89171.4954500003,
      "d": 1133.3341833333398,
      "v": 127
    },
    {
      "midi": 60,
      "hit": false,
      "t": 89742.9244500003,
      "d": 542.8575500000006,
      "v": 127
    },
    {
      "midi": 56,
      "hit": false,
      "t": 90128.63902500001,
      "d": 719.0481583333312,
      "v": 55
    },
    {
      "midi": 62,
      "hit": false,
      "t": 90128.63902500001,
      "d": 719.0481583333312,
      "v": 55
    },
    {
      "midi": 66,
      "hit": false,
      "t": 90128.63902500001,
      "d": 719.0481583333312,
      "v": 55
    },
    {
      "midi": 71,
      "hit": false,
      "t": 90128.63902500001,
      "d": 719.0481583333312,
      "v": 55
    },
    {
      "midi": 46,
      "hit": false,
      "t": 90314.3534500003,
      "d": 552.3813666666683,
      "v": 127
    },
    {
      "midi": 62,
      "hit": false,
      "t": 90314.3534500003,
      "d": 571.4290000000037,
      "v": 127
    },
    {
      "midi": 56,
      "hit": false,
      "t": 90457.2107000003,
      "d": 409.5241166666674,
      "v": 127
    },
    {
      "midi": 60,
      "hit": false,
      "t": 90457.2107000003,
      "d": 409.5241166666674,
      "v": 127
    },
    {
      "midi": 51,
      "hit": false,
      "t": 90885.7824500003,
      "d": 542.8575500000006,
      "v": 127
    },
    {
      "midi": 63,
      "hit": false,
      "t": 90885.7824500003,
      "d": 1114.2865500000044,
      "v": 127
    },
    {
      "midi": 55,
      "hit": false,
      "t": 90885.7824500003,
      "d": 1152.3818166666751,
      "v": 127
    },
    {
      "midi": 58,
      "hit": false,
      "t": 90885.7824500003,
      "d": 1152.3818166666751,
      "v": 127
    },
    {
      "midi": 55,
      "hit": false,
      "t": 90904.83008333335,
      "d": 895.2387666666618,
      "v": 64
    },
    {
      "midi": 58,
      "hit": false,
      "t": 90904.83008333335,
      "d": 895.2387666666618,
      "v": 64
    },
    {
      "midi": 63,
      "hit": false,
      "t": 90904.83008333335,
      "d": 895.2387666666618,
      "v": 64
    },
    {
      "midi": 43,
      "hit": false,
      "t": 91457.21145000031,
      "d": 542.8575500000006,
      "v": 127
    },
    {
      "midi": 55,
      "hit": false,
      "t": 91800.06885000001,
      "d": 771.4291499999963,
      "v": 76
    },
    {
      "midi": 63,
      "hit": false,
      "t": 91800.06885000001,
      "d": 771.4291499999963,
      "v": 76
    },
    {
      "midi": 70,
      "hit": false,
      "t": 91800.06885000001,
      "d": 771.4291499999963,
      "v": 76
    },
    {
      "midi": 63,
      "hit": false,
      "t": 92028.64045000031,
      "d": 271.4287750000076,
      "v": 127
    },
    {
      "midi": 55,
      "hit": false,
      "t": 92571.498,
      "d": 1714.2869999999966,
      "v": 70
    },
    {
      "midi": 63,
      "hit": false,
      "t": 92571.498,
      "d": 1714.2869999999966,
      "v": 70
    },
    {
      "midi": 70,
      "hit": false,
      "t": 92571.498,
      "d": 1714.2869999999966,
      "v": 70
    },
    {
      "midi": 63,
      "hit": false,
      "t": 92600.06945000033,
      "d": 4.7619083333265735,
      "v": 127
    },
    {
      "midi": 51,
      "hit": false,
      "t": 92600.06945000033,
      "d": 1104.762733333293,
      "v": 127
    },
    {
      "midi": 43,
      "hit": false,
      "t": 92600.06945000033,
      "d": 1114.2865499999607,
      "v": 127
    },
    {
      "midi": 58,
      "hit": false,
      "t": 92742.92670000032,
      "d": 952.3816666666535,
      "v": 127
    },
    {
      "midi": 63,
      "hit": false,
      "t": 92747.68860833364,
      "d": 952.3816666666535,
      "v": 127
    },
    {
      "midi": 70,
      "hit": false,
      "t": 92885.7839500003,
      "d": 257.14304999999877,
      "v": 127
    },
    {
      "midi": 67,
      "hit": false,
      "t": 93171.4984500003,
      "d": 542.8575499999861,
      "v": 127
    },
    {
      "midi": 43,
      "hit": false,
      "t": 93742.9274500003,
      "d": 542.8575500000006,
      "v": 127
    },
    {
      "midi": 51,
      "hit": false,
      "t": 93742.9274500003,
      "d": 542.8575500000006,
      "v": 127
    },
    {
      "midi": 58,
      "hit": false,
      "t": 93742.9274500003,
      "d": 542.8575500000006,
      "v": 127
    },
    {
      "midi": 63,
      "hit": false,
      "t": 93742.9274500003,
      "d": 542.8575500000006,
      "v": 127
    },
    {
      "midi": 56,
      "hit": false,
      "t": 94285.785,
      "d": 1571.4297499999957,
      "v": 74
    },
    {
      "midi": 60,
      "hit": false,
      "t": 94285.785,
      "d": 1571.4297499999957,
      "v": 74
    },
    {
      "midi": 63,
      "hit": false,
      "t": 94285.785,
      "d": 1571.4297499999957,
      "v": 74
    },
    {
      "midi": 68,
      "hit": false,
      "t": 94285.785,
      "d": 1571.4297499999957,
      "v": 74
    },
    {
      "midi": 63,
      "hit": false,
      "t": 94314.3564500003,
      "d": 138.0953416666598,
      "v": 127
    },
    {
      "midi": 51,
      "hit": false,
      "t": 94314.3564500003,
      "d": 1085.7150999999867,
      "v": 127
    },
    {
      "midi": 44,
      "hit": false,
      "t": 94314.3564500003,
      "d": 1114.2865499999753,
      "v": 127
    },
    {
      "midi": 63,
      "hit": false,
      "t": 94461.97560833363,
      "d": 961.9054833333212,
      "v": 127
    },
    {
      "midi": 60,
      "hit": false,
      "t": 94461.97560833363,
      "d": 980.953116666642,
      "v": 127
    },
    {
      "midi": 68,
      "hit": false,
      "t": 94885.78545000029,
      "d": 1123.810366666643,
      "v": 127
    },
    {
      "midi": 44,
      "hit": false,
      "t": 95457.21445000026,
      "d": 542.8575500000006,
      "v": 127
    },
    {
      "midi": 51,
      "hit": false,
      "t": 95457.21445000026,
      "d": 542.8575500000006,
      "v": 127
    },
    {
      "midi": 60,
      "hit": false,
      "t": 95457.21445000026,
      "d": 542.8575500000006,
      "v": 127
    },
    {
      "midi": 63,
      "hit": false,
      "t": 95457.21445000026,
      "d": 542.8575500000006,
      "v": 127
    },
    {
      "midi": 72,
      "hit": false,
      "t": 95838.16711666666,
      "d": 161.90488333333633,
      "v": 67
    },
    {
      "midi": 57,
      "hit": false,
      "t": 96000.072,
      "d": 1090.4770083333278,
      "v": 70
    },
    {
      "midi": 65,
      "hit": false,
      "t": 96000.072,
      "d": 1090.4770083333278,
      "v": 70
    },
    {
      "midi": 72,
      "hit": false,
      "t": 96000.072,
      "d": 1090.4770083333278,
      "v": 70
    },
    {
      "midi": 65,
      "hit": false,
      "t": 96028.64345000027,
      "d": 138.0953416666598,
      "v": 127
    },
    {
      "midi": 45,
      "hit": false,
      "t": 96028.64345000027,
      "d": 1104.762733333322,
      "v": 127
    },
    {
      "midi": 53,
      "hit": false,
      "t": 96028.64345000027,
      "d": 1114.2865499999898,
      "v": 127
    },
    {
      "midi": 65,
      "hit": false,
      "t": 96181.02451666692,
      "d": 942.8578500000003,
      "v": 127
    },
    {
      "midi": 60,
      "hit": false,
      "t": 96181.02451666692,
      "d": 990.4769333333388,
      "v": 127
    },
    {
      "midi": 72,
      "hit": false,
      "t": 96600.07245000025,
      "d": 542.8575500000006,
      "v": 127
    },
    {
      "midi": 57,
      "hit": false,
      "t": 97138.16809166667,
      "d": 571.4290000000037,
      "v": 55
    },
    {
      "midi": 63,
      "hit": false,
      "t": 97138.16809166667,
      "d": 571.4290000000037,
      "v": 55
    },
    {
      "midi": 67,
      "hit": false,
      "t": 97138.16809166667,
      "d": 571.4290000000037,
      "v": 55
    },
    {
      "midi": 74,
      "hit": false,
      "t": 97138.16809166667,
      "d": 571.4290000000037,
      "v": 55
    },
    {
      "midi": 45,
      "hit": false,
      "t": 97171.50145000026,
      "d": 542.8575500000006,
      "v": 127
    },
    {
      "midi": 53,
      "hit": false,
      "t": 97171.50145000026,
      "d": 542.8575500000006,
      "v": 127
    },
    {
      "midi": 63,
      "hit": false,
      "t": 97171.50145000026,
      "d": 542.8575500000006,
      "v": 127
    },
    {
      "midi": 65,
      "hit": false,
      "t": 97171.50145000026,
      "d": 542.8575500000006,
      "v": 127
    },
    {
      "midi": 58,
      "hit": false,
      "t": 97714.359,
      "d": 1090.4770083333278,
      "v": 70
    },
    {
      "midi": 62,
      "hit": false,
      "t": 97714.359,
      "d": 1090.4770083333278,
      "v": 70
    },
    {
      "midi": 65,
      "hit": false,
      "t": 97714.359,
      "d": 1090.4770083333278,
      "v": 70
    },
    {
      "midi": 53,
      "hit": false,
      "t": 97742.93045000026,
      "d": 542.8575500000006,
      "v": 127
    },
    {
      "midi": 46,
      "hit": false,
      "t": 97742.93045000026,
      "d": 1076.1912833333336,
      "v": 127
    },
    {
      "midi": 74,
      "hit": false,
      "t": 97742.93045000026,
      "d": 1095.238916666669,
      "v": 127
    },
    {
      "midi": 62,
      "hit": false,
      "t": 97742.93045000026,
      "d": 1123.810366666672,
      "v": 127
    },
    {
      "midi": 55,
      "hit": false,
      "t": 98314.35945000027,
      "d": 542.8575500000006,
      "v": 127
    },
    {
      "midi": 56,
      "hit": false,
      "t": 98852.45509166666,
      "d": 571.4290000000037,
      "v": 55
    },
    {
      "midi": 62,
      "hit": false,
      "t": 98852.45509166666,
      "d": 571.4290000000037,
      "v": 55
    },
    {
      "midi": 67,
      "hit": false,
      "t": 98852.45509166666,
      "d": 571.4290000000037,
      "v": 55
    },
    {
      "midi": 72,
      "hit": false,
      "t": 98852.45509166666,
      "d": 571.4290000000037,
      "v": 55
    },
    {
      "midi": 46,
      "hit": false,
      "t": 98885.78845000027,
      "d": 542.8575500000006,
      "v": 127
    },
    {
      "midi": 56,
      "hit": false,
      "t": 98885.78845000027,
      "d": 542.8575500000006,
      "v": 127
    },
    {
      "midi": 62,
      "hit": false,
      "t": 98885.78845000027,
      "d": 542.8575500000006,
      "v": 127
    },
    {
      "midi": 74,
      "hit": false,
      "t": 98885.78845000027,
      "d": 542.8575500000006,
      "v": 127
    },
    {
      "midi": 55,
      "hit": false,
      "t": 99428.646,
      "d": 1661.9060083333316,
      "v": 70
    },
    {
      "midi": 59,
      "hit": false,
      "t": 99428.646,
      "d": 1661.9060083333316,
      "v": 70
    },
    {
      "midi": 62,
      "hit": false,
      "t": 99428.646,
      "d": 1661.9060083333316,
      "v": 70
    },
    {
      "midi": 74,
      "hit": false,
      "t": 99457.21745000027,
      "d": 542.8575500000006,
      "v": 127
    },
    {
      "midi": 47,
      "hit": false,
      "t": 99457.21745000027,
      "d": 1095.238916666669,
      "v": 127
    },
    {
      "midi": 55,
      "hit": false,
      "t": 99457.21745000027,
      "d": 1104.7627333333367,
      "v": 127
    },
    {
      "midi": 62,
      "hit": false,
      "t": 99457.21745000027,
      "d": 1133.3341833333398,
      "v": 127
    },
    {
      "midi": 67,
      "hit": false,
      "t": 100028.64645000028,
      "d": 542.8575500000006,
      "v": 127
    },
    {
      "midi": 46,
      "hit": false,
      "t": 100600.07545000028,
      "d": 542.8575500000006,
      "v": 127
    },
    {
      "midi": 55,
      "hit": false,
      "t": 100600.07545000028,
      "d": 542.8575500000006,
      "v": 127
    },
    {
      "midi": 65,
      "hit": false,
      "t": 100600.07545000028,
      "d": 542.8575500000006,
      "v": 127
    },
    {
      "midi": 67,
      "hit": false,
      "t": 100600.07545000028,
      "d": 542.8575500000006,
      "v": 127
    },
    {
      "midi": 74,
      "hit": false,
      "t": 100600.07545000028,
      "d": 542.8575500000006,
      "v": 127
    },
    {
      "midi": 51,
      "hit": false,
      "t": 101138.17109166666,
      "d": 571.4290000000037,
      "v": 65
    },
    {
      "midi": 60,
      "hit": false,
      "t": 101138.17109166666,
      "d": 571.4290000000037,
      "v": 65
    },
    {
      "midi": 67,
      "hit": false,
      "t": 101138.17109166666,
      "d": 571.4290000000037,
      "v": 65
    },
    {
      "midi": 75,
      "hit": false,
      "t": 101171.50445000028,
      "d": 271.42877499999304,
      "v": 127
    },
    {
      "midi": 55,
      "hit": false,
      "t": 101171.50445000028,
      "d": 504.76228333332983,
      "v": 127
    },
    {
      "midi": 48,
      "hit": false,
      "t": 101171.50445000028,
      "d": 542.8575500000006,
      "v": 127
    },
    {
      "midi": 63,
      "hit": false,
      "t": 101171.50445000028,
      "d": 542.8575500000006,
      "v": 127
    },
    {
      "midi": 67,
      "hit": false,
      "t": 101171.50445000028,
      "d": 561.905183333336,
      "v": 127
    },
    {
      "midi": 74,
      "hit": false,
      "t": 101490.55230833362,
      "d": 257.14304999999877,
      "v": 127
    },
    {
      "midi": 55,
      "hit": false,
      "t": 101742.93345000029,
      "d": 271.42877499999304,
      "v": 127
    },
    {
      "midi": 72,
      "hit": false,
      "t": 101742.93345000029,
      "d": 790.4767833333317,
      "v": 127
    },
    {
      "midi": 63,
      "hit": false,
      "t": 101742.93345000029,
      "d": 1133.3341833333398,
      "v": 127
    },
    {
      "midi": 44,
      "hit": false,
      "t": 101742.93345000029,
      "d": 1142.8580000000075,
      "v": 127
    },
    {
      "midi": 60,
      "hit": false,
      "t": 101742.93345000029,
      "d": 1142.8580000000075,
      "v": 127
    },
    {
      "midi": 53,
      "hit": false,
      "t": 102061.98130833362,
      "d": 257.14304999999877,
      "v": 127
    },
    {
      "midi": 56,
      "hit": false,
      "t": 102128.648025,
      "d": 719.0481583333312,
      "v": 55
    },
    {
      "midi": 60,
      "hit": false,
      "t": 102128.648025,
      "d": 719.0481583333312,
      "v": 55
    },
    {
      "midi": 63,
      "hit": false,
      "t": 102128.648025,
      "d": 719.0481583333312,
      "v": 55
    },
    {
      "midi": 68,
      "hit": false,
      "t": 102128.648025,
      "d": 719.0481583333312,
      "v": 55
    },
    {
      "midi": 51,
      "hit": false,
      "t": 102314.36245000029,
      "d": 523.8099166666652,
      "v": 127
    },
    {
      "midi": 72,
      "hit": false,
      "t": 102633.41030833362,
      "d": 257.14304999999877,
      "v": 127
    },
    {
      "midi": 55,
      "hit": false,
      "t": 102852.45809166666,
      "d": 571.4290000000037,
      "v": 65
    },
    {
      "midi": 58,
      "hit": false,
      "t": 102852.45809166666,
      "d": 571.4290000000037,
      "v": 65
    },
    {
      "midi": 63,
      "hit": false,
      "t": 102852.45809166666,
      "d": 571.4290000000037,
      "v": 65
    },
    {
      "midi": 70,
      "hit": false,
      "t": 102885.7914500003,
      "d": 271.42877499999304,
      "v": 127
    },
    {
      "midi": 51,
      "hit": false,
      "t": 102885.7914500003,
      "d": 504.76228333332983,
      "v": 127
    },
    {
      "midi": 58,
      "hit": false,
      "t": 102885.7914500003,
      "d": 561.905183333336,
      "v": 127
    },
    {
      "midi": 43,
      "hit": false,
      "t": 102885.7914500003,
      "d": 571.4290000000037,
      "v": 127
    },
    {
      "midi": 63,
      "hit": false,
      "t": 102885.7914500003,
      "d": 590.4766333333246,
      "v": 127
    },
    {
      "midi": 68,
      "hit": false,
      "t": 103204.83930833363,
      "d": 257.14304999999877,
      "v": 127
    },
    {
      "midi": 43,
      "hit": false,
      "t": 103457.2204500003,
      "d": 542.8575499999861,
      "v": 127
    },
    {
      "midi": 51,
      "hit": false,
      "t": 103457.2204500003,
      "d": 542.8575499999861,
      "v": 127
    },
    {
      "midi": 58,
      "hit": false,
      "t": 103457.2204500003,
      "d": 542.8575499999861,
      "v": 127
    },
    {
      "midi": 67,
      "hit": false,
      "t": 103457.2204500003,
      "d": 542.8575499999861,
      "v": 127
    },
    {
      "midi": 51,
      "hit": false,
      "t": 103842.935025,
      "d": 719.0481583333312,
      "v": 55
    },
    {
      "midi": 55,
      "hit": false,
      "t": 103842.935025,
      "d": 719.0481583333312,
      "v": 55
    },
    {
      "midi": 60,
      "hit": false,
      "t": 103842.935025,
      "d": 719.0481583333312,
      "v": 55
    },
    {
      "midi": 48,
      "hit": false,
      "t": 104028.64945000029,
      "d": 542.8575500000006,
      "v": 127
    },
    {
      "midi": 55,
      "hit": false,
      "t": 104028.64945000029,
      "d": 542.8575500000006,
      "v": 127
    },
    {
      "midi": 63,
      "hit": false,
      "t": 104028.64945000029,
      "d": 542.8575500000006,
      "v": 127
    },
    {
      "midi": 51,
      "hit": false,
      "t": 104571.507,
      "d": 938.0959416666738,
      "v": 70
    },
    {
      "midi": 53,
      "hit": false,
      "t": 104571.507,
      "d": 938.0959416666738,
      "v": 70
    },
    {
      "midi": 56,
      "hit": false,
      "t": 104571.507,
      "d": 938.0959416666738,
      "v": 70
    },
    {
      "midi": 60,
      "hit": false,
      "t": 104571.507,
      "d": 938.0959416666738,
      "v": 70
    },
    {
      "midi": 65,
      "hit": false,
      "t": 104600.07845000029,
      "d": 1076.1912833333336,
      "v": 127
    },
    {
      "midi": 46,
      "hit": false,
      "t": 104600.07845000029,
      "d": 1123.810366666672,
      "v": 127
    },
    {
      "midi": 56,
      "hit": false,
      "t": 104600.07845000029,
      "d": 1133.3341833333398,
      "v": 127
    },
    {
      "midi": 60,
      "hit": false,
      "t": 104742.9357000003,
      "d": 409.5241166666674,
      "v": 127
    },
    {
      "midi": 63,
      "hit": false,
      "t": 105171.5074500003,
      "d": 542.8575500000006,
      "v": 127
    },
    {
      "midi": 56,
      "hit": false,
      "t": 105557.22202500001,
      "d": 719.0481583333312,
      "v": 55
    },
    {
      "midi": 61,
      "hit": false,
      "t": 105557.22202500001,
      "d": 719.0481583333312,
      "v": 55
    },
    {
      "midi": 62,
      "hit": false,
      "t": 105557.22202500001,
      "d": 719.0481583333312,
      "v": 55
    },
    {
      "midi": 65,
      "hit": false,
      "t": 105557.22202500001,
      "d": 719.0481583333312,
      "v": 55
    },
    {
      "midi": 58,
      "hit": false,
      "t": 105742.9364500003,
      "d": 271.42877499999304,
      "v": 127
    },
    {
      "midi": 62,
      "hit": false,
      "t": 105742.9364500003,
      "d": 552.3813666666683,
      "v": 127
    },
    {
      "midi": 67,
      "hit": false,
      "t": 105742.9364500003,
      "d": 561.905183333336,
      "v": 127
    },
    {
      "midi": 34,
      "hit": false,
      "t": 105742.9364500003,
      "d": 571.4290000000037,
      "v": 127
    },
    {
      "midi": 56,
      "hit": false,
      "t": 106061.98430833363,
      "d": 257.14304999999877,
      "v": 127
    },
    {
      "midi": 39,
      "hit": false,
      "t": 106295.31781666668,
      "d": 1200.0009000000136,
      "v": 50
    },
    {
      "midi": 55,
      "hit": false,
      "t": 106314.3654500003,
      "d": 542.8575499999861,
      "v": 127
    },
    {
      "midi": 63,
      "hit": false,
      "t": 106314.3654500003,
      "d": 542.8575499999861,
      "v": 127
    },
    {
      "midi": 39,
      "hit": false,
      "t": 106314.3654500003,
      "d": 1471.4296749999921,
      "v": 127
    },
    {
      "midi": 46,
      "hit": false,
      "t": 106314.3654500003,
      "d": 1471.4296749999921,
      "v": 127
    },
    {
      "midi": 55,
      "hit": false,
      "t": 106566.74659166668,
      "d": 1014.2864750000008,
      "v": 55
    },
    {
      "midi": 58,
      "hit": false,
      "t": 106871.50872500002,
      "d": 1004.7626583333331,
      "v": 52
    },
    {
      "midi": 67,
      "hit": false,
      "t": 106881.03254166669,
      "d": 995.2388416666654,
      "v": 52
    },
    {
      "midi": 58,
      "hit": false,
      "t": 106885.79445000029,
      "d": 542.8575500000006,
      "v": 127
    },
    {
      "midi": 67,
      "hit": false,
      "t": 106885.79445000029,
      "d": 542.8575500000006,
      "v": 127
    },
    {
      "midi": 63,
      "hit": false,
      "t": 107457.2234500003,
      "d": 542.8575500000006,
      "v": 127
    },
    {
      "midi": 70,
      "hit": false,
      "t": 107457.2234500003,
      "d": 542.8575500000006,
      "v": 127
    },
    {
      "midi": 55,
      "hit": false,
      "t": 107723.89031666669,
      "d": 276.1906833333487,
      "v": 40
    },
    {
      "midi": 43,
      "hit": false,
      "t": 108009.6048166667,
      "d": 1200.0009000000136,
      "v": 50
    },
    {
      "midi": 55,
      "hit": false,
      "t": 108028.6524500003,
      "d": 542.8575500000006,
      "v": 127
    },
    {
      "midi": 62,
      "hit": false,
      "t": 108028.6524500003,
      "d": 542.8575500000006,
      "v": 127
    },
    {
      "midi": 48,
      "hit": false,
      "t": 108028.6524500003,
      "d": 1471.4296750000067,
      "v": 127
    },
    {
      "midi": 34,
      "hit": false,
      "t": 108028.6524500003,
      "d": 1480.9534916666744,
      "v": 127
    },
    {
      "midi": 58,
      "hit": false,
      "t": 108281.03359166671,
      "d": 1014.2864750000008,
      "v": 55
    },
    {
      "midi": 62,
      "hit": false,
      "t": 108585.79572500005,
      "d": 1004.7626583333331,
      "v": 52
    },
    {
      "midi": 70,
      "hit": false,
      "t": 108595.31954166671,
      "d": 995.2388416666654,
      "v": 52
    },
    {
      "midi": 58,
      "hit": false,
      "t": 108600.0814500003,
      "d": 542.8575500000006,
      "v": 127
    },
    {
      "midi": 67,
      "hit": false,
      "t": 108600.0814500003,
      "d": 542.8575500000006,
      "v": 127
    },
    {
      "midi": 62,
      "hit": false,
      "t": 109171.5104500003,
      "d": 542.8575500000006,
      "v": 127
    },
    {
      "midi": 70,
      "hit": false,
      "t": 109171.5104500003,
      "d": 542.8575500000006,
      "v": 127
    },
    {
      "midi": 58,
      "hit": false,
      "t": 109438.17731666671,
      "d": 276.1906833333487,
      "v": 40
    },
    {
      "midi": 44,
      "hit": false,
      "t": 109714.36800000006,
      "d": 1504.7630333333364,
      "v": 41
    },
    {
      "midi": 60,
      "hit": false,
      "t": 109742.93945000031,
      "d": 542.8575500000006,
      "v": 127
    },
    {
      "midi": 68,
      "hit": false,
      "t": 109742.93945000031,
      "d": 542.8575500000006,
      "v": 127
    },
    {
      "midi": 75,
      "hit": false,
      "t": 109742.93945000031,
      "d": 542.8575500000006,
      "v": 127
    },
    {
      "midi": 44,
      "hit": false,
      "t": 109742.93945000031,
      "d": 1442.8582250000036,
      "v": 127
    },
    {
      "midi": 60,
      "hit": false,
      "t": 110014.36822500007,
      "d": 1266.6676166666584,
      "v": 34
    },
    {
      "midi": 72,
      "hit": false,
      "t": 110304.8446333334,
      "d": 585.714724999998,
      "v": 51
    },
    {
      "midi": 56,
      "hit": false,
      "t": 110314.36845000031,
      "d": 542.8575500000006,
      "v": 127
    },
    {
      "midi": 63,
      "hit": false,
      "t": 110314.36845000031,
      "d": 542.8575500000006,
      "v": 127
    },
    {
      "midi": 72,
      "hit": false,
      "t": 110314.36845000031,
      "d": 542.8575500000006,
      "v": 127
    },
    {
      "midi": 63,
      "hit": false,
      "t": 110576.27340833339,
      "d": 595.2385416666657,
      "v": 58
    },
    {
      "midi": 60,
      "hit": false,
      "t": 110885.79745000032,
      "d": 542.8575500000006,
      "v": 127
    },
    {
      "midi": 68,
      "hit": false,
      "t": 110885.79745000032,
      "d": 542.8575500000006,
      "v": 127
    },
    {
      "midi": 75,
      "hit": false,
      "t": 110885.79745000032,
      "d": 542.8575500000006,
      "v": 127
    },
    {
      "midi": 72,
      "hit": false,
      "t": 111181.03576666673,
      "d": 57.14290000000619,
      "v": 63
    },
    {
      "midi": 39,
      "hit": false,
      "t": 111428.65500000006,
      "d": 1504.7630333333364,
      "v": 41
    },
    {
      "midi": 55,
      "hit": false,
      "t": 111457.22645000032,
      "d": 542.8575500000006,
      "v": 127
    },
    {
      "midi": 70,
      "hit": false,
      "t": 111457.22645000032,
      "d": 1423.8105916666682,
      "v": 127
    },
    {
      "midi": 58,
      "hit": false,
      "t": 111457.22645000032,
      "d": 1452.3820416666713,
      "v": 127
    },
    {
      "midi": 63,
      "hit": false,
      "t": 111457.22645000032,
      "d": 1452.3820416666713,
      "v": 127
    },
    {
      "midi": 43,
      "hit": false,
      "t": 111457.22645000032,
      "d": 1461.905858333339,
      "v": 127
    },
    {
      "midi": 55,
      "hit": false,
      "t": 111728.65522500007,
      "d": 1266.6676166666584,
      "v": 34
    },
    {
      "midi": 67,
      "hit": false,
      "t": 112019.1316333334,
      "d": 585.714724999998,
      "v": 51
    },
    {
      "midi": 53,
      "hit": false,
      "t": 112028.65545000033,
      "d": 542.8575500000006,
      "v": 127
    },
    {
      "midi": 58,
      "hit": false,
      "t": 112290.56040833339,
      "d": 595.2385416666657,
      "v": 58
    },
    {
      "midi": 51,
      "hit": false,
      "t": 112600.08445000033,
      "d": 542.8575500000006,
      "v": 127
    },
    {
      "midi": 67,
      "hit": false,
      "t": 112895.32276666672,
      "d": 57.14290000000619,
      "v": 63
    },
    {
      "midi": 48,
      "hit": false,
      "t": 113142.94200000005,
      "d": 1504.7630333333364,
      "v": 41
    },
    {
      "midi": 75,
      "hit": false,
      "t": 113171.51345000033,
      "d": 271.42877499999304,
      "v": 127
    },
    {
      "midi": 55,
      "hit": false,
      "t": 113171.51345000033,
      "d": 1095.238916666669,
      "v": 127
    },
    {
      "midi": 63,
      "hit": false,
      "t": 113171.51345000033,
      "d": 1095.238916666669,
      "v": 127
    },
    {
      "midi": 48,
      "hit": false,
      "t": 113171.51345000033,
      "d": 1114.2865500000044,
      "v": 127
    },
    {
      "midi": 67,
      "hit": false,
      "t": 113171.51345000033,
      "d": 1123.810366666672,
      "v": 127
    },
    {
      "midi": 55,
      "hit": false,
      "t": 113442.94222500006,
      "d": 1266.6676166666584,
      "v": 34
    },
    {
      "midi": 74,
      "hit": false,
      "t": 113490.56130833366,
      "d": 257.14304999999877,
      "v": 127
    },
    {
      "midi": 67,
      "hit": false,
      "t": 113733.4186333334,
      "d": 585.714724999998,
      "v": 51
    },
    {
      "midi": 72,
      "hit": false,
      "t": 113742.94245000034,
      "d": 1133.3341833333398,
      "v": 127
    },
    {
      "midi": 60,
      "hit": false,
      "t": 114004.84740833339,
      "d": 595.2385416666657,
      "v": 58
    },
    {
      "midi": 48,
      "hit": false,
      "t": 114314.37145000034,
      "d": 542.8575500000006,
      "v": 127
    },
    {
      "midi": 55,
      "hit": false,
      "t": 114314.37145000034,
      "d": 542.8575500000006,
      "v": 127
    },
    {
      "midi": 60,
      "hit": false,
      "t": 114314.37145000034,
      "d": 542.8575500000006,
      "v": 127
    },
    {
      "midi": 63,
      "hit": false,
      "t": 114314.37145000034,
      "d": 542.8575500000006,
      "v": 127
    },
    {
      "midi": 67,
      "hit": false,
      "t": 114609.60976666672,
      "d": 57.14290000000619,
      "v": 63
    },
    {
      "midi": 43,
      "hit": false,
      "t": 114866.75281666672,
      "d": 1200.0009000000136,
      "v": 50
    },
    {
      "midi": 70,
      "hit": false,
      "t": 114885.80045000034,
      "d": 271.42877499999304,
      "v": 127
    },
    {
      "midi": 43,
      "hit": false,
      "t": 114885.80045000034,
      "d": 1095.238916666669,
      "v": 127
    },
    {
      "midi": 62,
      "hit": false,
      "t": 114885.80045000034,
      "d": 1095.238916666669,
      "v": 127
    },
    {
      "midi": 55,
      "hit": false,
      "t": 114885.80045000034,
      "d": 1104.7627333333367,
      "v": 127
    },
    {
      "midi": 58,
      "hit": false,
      "t": 114885.80045000034,
      "d": 1104.7627333333367,
      "v": 127
    },
    {
      "midi": 58,
      "hit": false,
      "t": 115138.18159166673,
      "d": 1014.2864750000008,
      "v": 55
    },
    {
      "midi": 68,
      "hit": false,
      "t": 115204.84830833368,
      "d": 257.14304999999877,
      "v": 127
    },
    {
      "midi": 62,
      "hit": false,
      "t": 115442.94372500006,
      "d": 1004.7626583333331,
      "v": 52
    },
    {
      "midi": 70,
      "hit": false,
      "t": 115452.46754166673,
      "d": 995.2388416666654,
      "v": 52
    },
    {
      "midi": 67,
      "hit": false,
      "t": 115457.22945000035,
      "d": 1114.2865500000044,
      "v": 127
    },
    {
      "midi": 43,
      "hit": false,
      "t": 116028.65845000035,
      "d": 542.8575500000006,
      "v": 127
    },
    {
      "midi": 55,
      "hit": false,
      "t": 116028.65845000035,
      "d": 542.8575500000006,
      "v": 127
    },
    {
      "midi": 58,
      "hit": false,
      "t": 116028.65845000035,
      "d": 542.8575500000006,
      "v": 127
    },
    {
      "midi": 62,
      "hit": false,
      "t": 116028.65845000035,
      "d": 542.8575500000006,
      "v": 127
    },
    {
      "midi": 58,
      "hit": false,
      "t": 116295.32531666673,
      "d": 276.1906833333487,
      "v": 40
    },
    {
      "midi": 46,
      "hit": false,
      "t": 116581.03981666674,
      "d": 1200.0009000000136,
      "v": 50
    },
    {
      "midi": 60,
      "hit": false,
      "t": 116600.08745000036,
      "d": 542.8575500000006,
      "v": 127
    },
    {
      "midi": 68,
      "hit": false,
      "t": 116600.08745000036,
      "d": 542.8575500000006,
      "v": 127
    },
    {
      "midi": 46,
      "hit": false,
      "t": 116600.08745000036,
      "d": 1123.810366666672,
      "v": 127
    },
    {
      "midi": 53,
      "hit": false,
      "t": 116852.46859166675,
      "d": 1014.2864750000008,
      "v": 55
    },
    {
      "midi": 56,
      "hit": false,
      "t": 117157.23072500009,
      "d": 1004.7626583333331,
      "v": 52
    },
    {
      "midi": 62,
      "hit": false,
      "t": 117166.75454166676,
      "d": 995.2388416666654,
      "v": 52
    },
    {
      "midi": 58,
      "hit": false,
      "t": 117171.51645000036,
      "d": 542.8575500000006,
      "v": 127
    },
    {
      "midi": 62,
      "hit": false,
      "t": 117171.51645000036,
      "d": 542.8575500000006,
      "v": 127
    },
    {
      "midi": 67,
      "hit": false,
      "t": 117171.51645000036,
      "d": 542.8575500000006,
      "v": 127
    },
    {
      "midi": 65,
      "hit": false,
      "t": 117176.27835833342,
      "d": 1023.8102916666685,
      "v": 50
    },
    {
      "midi": 34,
      "hit": false,
      "t": 117742.94545000036,
      "d": 528.5718250000064,
      "v": 127
    },
    {
      "midi": 56,
      "hit": false,
      "t": 117742.94545000036,
      "d": 528.5718250000064,
      "v": 127
    },
    {
      "midi": 60,
      "hit": false,
      "t": 117742.94545000036,
      "d": 528.5718250000064,
      "v": 127
    },
    {
      "midi": 65,
      "hit": false,
      "t": 117742.94545000036,
      "d": 528.5718250000064,
      "v": 127
    },
    {
      "midi": 53,
      "hit": false,
      "t": 118009.61231666675,
      "d": 276.1906833333487,
      "v": 40
    },
    {
      "midi": 39,
      "hit": false,
      "t": 118295.32681666677,
      "d": 1200.0009000000136,
      "v": 50
    },
    {
      "midi": 39,
      "hit": false,
      "t": 118300.08872500037,
      "d": 542.8575500000006,
      "v": 127
    },
    {
      "midi": 55,
      "hit": false,
      "t": 118300.08872500037,
      "d": 542.8575500000006,
      "v": 127
    },
    {
      "midi": 58,
      "hit": false,
      "t": 118300.08872500037,
      "d": 542.8575500000006,
      "v": 127
    },
    {
      "midi": 63,
      "hit": false,
      "t": 118300.08872500037,
      "d": 542.8575500000006,
      "v": 127
    },
    {
      "midi": 55,
      "hit": false,
      "t": 118566.75559166678,
      "d": 1014.2864750000008,
      "v": 55
    },
    {
      "midi": 58,
      "hit": false,
      "t": 118871.51772500011,
      "d": 1004.7626583333331,
      "v": 52
    },
    {
      "midi": 67,
      "hit": false,
      "t": 118871.51772500038,
      "d": 1123.810366666672,
      "v": 127
    },
    {
      "midi": 39,
      "hit": false,
      "t": 118871.51772500038,
      "d": 1133.3341833333398,
      "v": 127
    },
    {
      "midi": 46,
      "hit": false,
      "t": 118871.51772500038,
      "d": 1133.3341833333398,
      "v": 127
    },
    {
      "midi": 55,
      "hit": false,
      "t": 118871.51772500038,
      "d": 1133.3341833333398,
      "v": 127
    },
    {
      "midi": 63,
      "hit": false,
      "t": 118871.51772500038,
      "d": 1133.3341833333398,
      "v": 127
    },
    {
      "midi": 75,
      "hit": false,
      "t": 118871.51772500038,
      "d": 1133.3341833333398,
      "v": 127
    },
    {
      "midi": 67,
      "hit": false,
      "t": 118881.04154166678,
      "d": 995.2388416666654,
      "v": 52
    },
    {
      "midi": 55,
      "hit": false,
      "t": 119723.89931666678,
      "d": 276.1906833333487,
      "v": 40
    },
    {
      "midi": 39,
      "hit": false,
      "t": 120004.85190833345,
      "d": 628.5719000000099,
      "v": 52
    },
    {
      "midi": 55,
      "hit": false,
      "t": 120323.89976666679,
      "d": 380.95266666667885,
      "v": 55
    },
    {
      "midi": 67,
      "hit": false,
      "t": 120604.85235833346,
      "d": 342.85740000000806,
      "v": 58
    },
    {
      "midi": 55,
      "hit": false,
      "t": 120885.80495000014,
      "d": 361.9050333333289,
      "v": 53
    },
    {
      "midi": 67,
      "hit": false,
      "t": 121166.7575416668,
      "d": 261.9049583333399,
      "v": 63
    },
    {
      "midi": 55,
      "hit": false,
      "t": 121419.13868333347,
      "d": 247.61923333333107,
      "v": 55
    },
    {
      "midi": 67,
      "hit": false,
      "t": 121661.99600833347,
      "d": 1442.858224999989,
      "v": 61
    },
    {
      "midi": 39,
      "hit": false,
      "t": 121681.0436416668,
      "d": 1485.715400000001,
      "v": 56
    },
    {
      "midi": 55,
      "hit": false,
      "t": 121742.94845000013,
      "d": 1423.8105916666682,
      "v": 43
    },
    {
      "midi": 75,
      "hit": false,
      "t": 121842.94852500013,
      "d": 1285.7152499999938,
      "v": 59
    }
  ]
}