{
  "jsonPath": "Classical/Baroque Pop/Brian Wilson/wonderful.json",
  "path": "Classical\\Baroque Pop\\Brian Wilson\\Wonderful.mid",
  "name": "Wonderful",
  "difficulty": "Advanced",
  "bpm": 80,
  "notes": [
    {
      "midi": 61,
      "hit": false,
      "t": 3000,
      "d": 1125,
      "v": 64
    },
    {
      "midi": 68,
      "hit": false,
      "t": 3375,
      "d": 375,
      "v": 64
    },
    {
      "midi": 73,
      "hit": false,
      "t": 3750,
      "d": 375,
      "v": 64
    },
    {
      "midi": 77,
      "hit": false,
      "t": 3750,
      "d": 375,
      "v": 64
    },
    {
      "midi": 59,
      "hit": false,
      "t": 4125,
      "d": 375,
      "v": 64
    },
    {
      "midi": 68,
      "hit": false,
      "t": 4125,
      "d": 375,
      "v": 64
    },
    {
      "midi": 58,
      "hit": false,
      "t": 4500,
      "d": 750,
      "v": 64
    },
    {
      "midi": 68,
      "hit": false,
      "t": 4875,
      "d": 375,
      "v": 64
    },
    {
      "midi": 73,
      "hit": false,
      "t": 5250,
      "d": 375,
      "v": 64
    },
    {
      "midi": 77,
      "hit": false,
      "t": 5250,
      "d": 375,
      "v": 64
    },
    {
      "midi": 56,
      "hit": false,
      "t": 5250,
      "d": 750,
      "v": 64
    },
    {
      "midi": 68,
      "hit": false,
      "t": 5625,
      "d": 375,
      "v": 64
    },
    {
      "midi": 54,
      "hit": false,
      "t": 6000,
      "d": 1500,
      "v": 64
    },
    {
      "midi": 66,
      "hit": false,
      "t": 6375,
      "d": 375,
      "v": 64
    },
    {
      "midi": 71,
      "hit": false,
      "t": 6750,
      "d": 375,
      "v": 64
    },
    {
      "midi": 75,
      "hit": false,
      "t": 6750,
      "d": 375,
      "v": 64
    },
    {
      "midi": 66,
      "hit": false,
      "t": 7125,
      "d": 375,
      "v": 64
    },
    {
      "midi": 56,
      "hit": false,
      "t": 7500,
      "d": 1500,
      "v": 64
    },
    {
      "midi": 66,
      "hit": false,
      "t": 7875,
      "d": 375,
      "v": 64
    },
    {
      "midi": 71,
      "hit": false,
      "t": 8250,
      "d": 375,
      "v": 64
    },
    {
      "midi": 75,
      "hit": false,
      "t": 8250,
      "d": 375,
      "v": 64
    },
    {
      "midi": 78,
      "hit": false,
      "t": 8250,
      "d": 375,
      "v": 64
    },
    {
      "midi": 66,
      "hit": false,
      "t": 8625,
      "d": 375,
      "v": 64
    },
    {
      "midi": 53,
      "hit": false,
      "t": 9000,
      "d": 1500,
      "v": 64
    },
    {
      "midi": 68,
      "hit": false,
      "t": 9375,
      "d": 375,
      "v": 64
    },
    {
      "midi": 73,
      "hit": false,
      "t": 9750,
      "d": 375,
      "v": 64
    },
    {
      "midi": 77,
      "hit": false,
      "t": 9750,
      "d": 375,
      "v": 64
    },
    {
      "midi": 68,
      "hit": false,
      "t": 10125,
      "d": 375,
      "v": 64
    },
    {
      "midi": 49,
      "hit": false,
      "t": 10500,
      "d": 1500,
      "v": 64
    },
    {
      "midi": 68,
      "hit": false,
      "t": 10875,
      "d": 375,
      "v": 64
    },
    {
      "midi": 71,
      "hit": false,
      "t": 11250,
      "d": 375,
      "v": 64
    },
    {
      "midi": 73,
      "hit": false,
      "t": 11250,
      "d": 375,
      "v": 64
    },
    {
      "midi": 76,
      "hit": false,
      "t": 11250,
      "d": 375,
      "v": 64
    },
    {
      "midi": 68,
      "hit": false,
      "t": 11625,
      "d": 375,
      "v": 64
    },
    {
      "midi": 54,
      "hit": false,
      "t": 12000,
      "d": 1500,
      "v": 64
    },
    {
      "midi": 66,
      "hit": false,
      "t": 12375,
      "d": 375,
      "v": 64
    },
    {
      "midi": 69,
      "hit": false,
      "t": 12750,
      "d": 375,
      "v": 64
    },
    {
      "midi": 73,
      "hit": false,
      "t": 12750,
      "d": 375,
      "v": 64
    },
    {
      "midi": 76,
      "hit": false,
      "t": 12750,
      "d": 375,
      "v": 64
    },
    {
      "midi": 66,
      "hit": false,
      "t": 13125,
      "d": 375,
      "v": 64
    },
    {
      "midi": 59,
      "hit": false,
      "t": 13500,
      "d": 1312.5,
      "v": 64
    },
    {
      "midi": 66,
      "hit": false,
      "t": 13875,
      "d": 375,
      "v": 64
    },
    {
      "midi": 69,
      "hit": false,
      "t": 14250,
      "d": 375,
      "v": 64
    },
    {
      "midi": 75,
      "hit": false,
      "t": 14250,
      "d": 375,
      "v": 64
    },
    {
      "midi": 78,
      "hit": false,
      "t": 14250,
      "d": 375,
      "v": 64
    },
    {
      "midi": 66,
      "hit": false,
      "t": 14625,
      "d": 375,
      "v": 64
    },
    {
      "midi": 56,
      "hit": false,
      "t": 15000,
      "d": 750,
      "v": 64
    },
    {
      "midi": 68,
      "hit": false,
      "t": 15375,
      "d": 562.5,
      "v": 64
    },
    {
      "midi": 71,
      "hit": false,
      "t": 15750,
      "d": 375,
      "v": 64
    },
    {
      "midi": 75,
      "hit": false,
      "t": 15750,
      "d": 375,
      "v": 64
    },
    {
      "midi": 78,
      "hit": false,
      "t": 15750,
      "d": 375,
      "v": 64
    },
    {
      "midi": 68,
      "hit": false,
      "t": 16125,
      "d": 375,
      "v": 64
    },
    {
      "midi": 49,
      "hit": false,
      "t": 16500,
      "d": 1500,
      "v": 64
    },
    {
      "midi": 68,
      "hit": false,
      "t": 16875,
      "d": 375,
      "v": 64
    },
    {
      "midi": 71,
      "hit": false,
      "t": 17250,
      "d": 375,
      "v": 64
    },
    {
      "midi": 73,
      "hit": false,
      "t": 17250,
      "d": 375,
      "v": 64
    },
    {
      "midi": 76,
      "hit": false,
      "t": 17250,
      "d": 375,
      "v": 64
    },
    {
      "midi": 68,
      "hit": false,
      "t": 17625,
      "d": 375,
      "v": 64
    },
    {
      "midi": 51,
      "hit": false,
      "t": 18000,
      "d": 1500,
      "v": 64
    },
    {
      "midi": 63,
      "hit": false,
      "t": 18375,
      "d": 375,
      "v": 64
    },
    {
      "midi": 68,
      "hit": false,
      "t": 18750,
      "d": 375,
      "v": 64
    },
    {
      "midi": 72,
      "hit": false,
      "t": 18750,
      "d": 375,
      "v": 64
    },
    {
      "midi": 75,
      "hit": false,
      "t": 18756.25,
      "d": 337.5,
      "v": 64
    },
    {
      "midi": 63,
      "hit": false,
      "t": 19125,
      "d": 375,
      "v": 64
    },
    {
      "midi": 53,
      "hit": false,
      "t": 19500,
      "d": 1500,
      "v": 64
    },
    {
      "midi": 65,
      "hit": false,
      "t": 19875,
      "d": 375,
      "v": 64
    },
    {
      "midi": 68,
      "hit": false,
      "t": 20250,
      "d": 375,
      "v": 64
    },
    {
      "midi": 73,
      "hit": false,
      "t": 20250,
      "d": 375,
      "v": 64
    },
    {
      "midi": 77,
      "hit": false,
      "t": 20262.5,
      "d": 337.5,
      "v": 64
    },
    {
      "midi": 65,
      "hit": false,
      "t": 20625,
      "d": 375,
      "v": 64
    },
    {
      "midi": 51,
      "hit": false,
      "t": 21000,
      "d": 1500,
      "v": 64
    },
    {
      "midi": 63,
      "hit": false,
      "t": 21375,
      "d": 375,
      "v": 64
    },
    {
      "midi": 68,
      "hit": false,
      "t": 21750,
      "d": 375,
      "v": 64
    },
    {
      "midi": 72,
      "hit": false,
      "t": 21750,
      "d": 375,
      "v": 64
    },
    {
      "midi": 75,
      "hit": false,
      "t": 21768.75,
      "d": 350,
      "v": 64
    },
    {
      "midi": 63,
      "hit": false,
      "t": 22125,
      "d": 375,
      "v": 64
    },
    {
      "midi": 53,
      "hit": false,
      "t": 22500,
      "d": 1500,
      "v": 64
    },
    {
      "midi": 65,
      "hit": false,
      "t": 22875,
      "d": 375,
      "v": 64
    },
    {
      "midi": 77,
      "hit": false,
      "t": 23250,
      "d": 368.75,
      "v": 64
    },
    {
      "midi": 68,
      "hit": false,
      "t": 23250,
      "d": 375,
      "v": 64
    },
    {
      "midi": 73,
      "hit": false,
      "t": 23250,
      "d": 375,
      "v": 64
    },
    {
      "midi": 65,
      "hit": false,
      "t": 23625,
      "d": 375,
      "v": 64
    },
    {
      "midi": 51,
      "hit": false,
      "t": 24000,
      "d": 1312.5,
      "v": 64
    },
    {
      "midi": 63,
      "hit": false,
      "t": 24375,
      "d": 375,
      "v": 64
    },
    {
      "midi": 68,
      "hit": false,
      "t": 24750,
      "d": 375,
      "v": 64
    },
    {
      "midi": 72,
      "hit": false,
      "t": 24750,
      "d": 375,
      "v": 64
    },
    {
      "midi": 75,
      "hit": false,
      "t": 24750,
      "d": 375,
      "v": 64
    },
    {
      "midi": 63,
      "hit": false,
      "t": 25125,
      "d": 375,
      "v": 64
    },
    {
      "midi": 40,
      "hit": false,
      "t": 25500,
      "d": 187.5,
      "v": 64
    },
    {
      "midi": 42,
      "hit": false,
      "t": 25687.5,
      "d": 375,
      "v": 64
    },
    {
      "midi": 44,
      "hit": false,
      "t": 26062.5,
      "d": 187.5,
      "v": 64
    },
    {
      "midi": 46,
      "hit": false,
      "t": 26250,
      "d": 375,
      "v": 64
    },
    {
      "midi": 47,
      "hit": false,
      "t": 26625,
      "d": 375,
      "v": 64
    },
    {
      "midi": 61,
      "hit": false,
      "t": 27000,
      "d": 1125,
      "v": 64
    },
    {
      "midi": 61,
      "hit": false,
      "t": 27000,
      "d": 187.5,
      "v": 43
    },
    {
      "midi": 65,
      "hit": false,
      "t": 27000,
      "d": 187.5,
      "v": 43
    },
    {
      "midi": 68,
      "hit": false,
      "t": 27000,
      "d": 187.5,
      "v": 43
    },
    {
      "midi": 49,
      "hit": false,
      "t": 27000,
      "d": 1125,
      "v": 43
    },
    {
      "midi": 68,
      "hit": false,
      "t": 27375,
      "d": 375,
      "v": 64
    },
    {
      "midi": 61,
      "hit": false,
      "t": 27375,
      "d": 187.5,
      "v": 43
    },
    {
      "midi": 65,
      "hit": false,
      "t": 27375,
      "d": 187.5,
      "v": 43
    },
    {
      "midi": 68,
      "hit": false,
      "t": 27375,
      "d": 187.5,
      "v": 43
    },
    {
      "midi": 73,
      "hit": false,
      "t": 27750,
      "d": 375,
      "v": 64
    },
    {
      "midi": 77,
      "hit": false,
      "t": 27750,
      "d": 375,
      "v": 64
    },
    {
      "midi": 61,
      "hit": false,
      "t": 27750,
      "d": 187.5,
      "v": 43
    },
    {
      "midi": 65,
      "hit": false,
      "t": 27750,
      "d": 187.5,
      "v": 43
    },
    {
      "midi": 68,
      "hit": false,
      "t": 27750,
      "d": 187.5,
      "v": 43
    },
    {
      "midi": 59,
      "hit": false,
      "t": 28125,
      "d": 375,
      "v": 64
    },
    {
      "midi": 68,
      "hit": false,
      "t": 28125,
      "d": 375,
      "v": 64
    },
    {
      "midi": 61,
      "hit": false,
      "t": 28125,
      "d": 187.5,
      "v": 43
    },
    {
      "midi": 65,
      "hit": false,
      "t": 28125,
      "d": 187.5,
      "v": 43
    },
    {
      "midi": 68,
      "hit": false,
      "t": 28125,
      "d": 187.5,
      "v": 43
    },
    {
      "midi": 47,
      "hit": false,
      "t": 28125,
      "d": 375,
      "v": 43
    },
    {
      "midi": 58,
      "hit": false,
      "t": 28500,
      "d": 750,
      "v": 64
    },
    {
      "midi": 61,
      "hit": false,
      "t": 28500,
      "d": 187.5,
      "v": 43
    },
    {
      "midi": 65,
      "hit": false,
      "t": 28500,
      "d": 187.5,
      "v": 43
    },
    {
      "midi": 68,
      "hit": false,
      "t": 28500,
      "d": 187.5,
      "v": 43
    },
    {
      "midi": 46,
      "hit": false,
      "t": 28500,
      "d": 750,
      "v": 43
    },
    {
      "midi": 68,
      "hit": false,
      "t": 28875,
      "d": 375,
      "v": 64
    },
    {
      "midi": 61,
      "hit": false,
      "t": 28875,
      "d": 187.5,
      "v": 43
    },
    {
      "midi": 65,
      "hit": false,
      "t": 28875,
      "d": 187.5,
      "v": 43
    },
    {
      "midi": 68,
      "hit": false,
      "t": 28875,
      "d": 187.5,
      "v": 43
    },
    {
      "midi": 73,
      "hit": false,
      "t": 29250,
      "d": 375,
      "v": 64
    },
    {
      "midi": 77,
      "hit": false,
      "t": 29250,
      "d": 375,
      "v": 64
    },
    {
      "midi": 56,
      "hit": false,
      "t": 29250,
      "d": 750,
      "v": 64
    },
    {
      "midi": 61,
      "hit": false,
      "t": 29250,
      "d": 187.5,
      "v": 43
    },
    {
      "midi": 65,
      "hit": false,
      "t": 29250,
      "d": 187.5,
      "v": 43
    },
    {
      "midi": 68,
      "hit": false,
      "t": 29250,
      "d": 187.5,
      "v": 43
    },
    {
      "midi": 44,
      "hit": false,
      "t": 29250,
      "d": 750,
      "v": 43
    },
    {
      "midi": 68,
      "hit": false,
      "t": 29625,
      "d": 375,
      "v": 64
    },
    {
      "midi": 61,
      "hit": false,
      "t": 29625,
      "d": 187.5,
      "v": 43
    },
    {
      "midi": 65,
      "hit": false,
      "t": 29625,
      "d": 187.5,
      "v": 43
    },
    {
      "midi": 68,
      "hit": false,
      "t": 29625,
      "d": 187.5,
      "v": 43
    },
    {
      "midi": 54,
      "hit": false,
      "t": 30000,
      "d": 1500,
      "v": 64
    },
    {
      "midi": 59,
      "hit": false,
      "t": 30000,
      "d": 187.5,
      "v": 43
    },
    {
      "midi": 63,
      "hit": false,
      "t": 30000,
      "d": 187.5,
      "v": 43
    },
    {
      "midi": 66,
      "hit": false,
      "t": 30000,
      "d": 187.5,
      "v": 43
    },
    {
      "midi": 42,
      "hit": false,
      "t": 30000,
      "d": 1500,
      "v": 43
    },
    {
      "midi": 66,
      "hit": false,
      "t": 30375,
      "d": 375,
      "v": 64
    },
    {
      "midi": 59,
      "hit": false,
      "t": 30375,
      "d": 187.5,
      "v": 43
    },
    {
      "midi": 63,
      "hit": false,
      "t": 30375,
      "d": 187.5,
      "v": 43
    },
    {
      "midi": 66,
      "hit": false,
      "t": 30375,
      "d": 187.5,
      "v": 43
    },
    {
      "midi": 71,
      "hit": false,
      "t": 30750,
      "d": 375,
      "v": 64
    },
    {
      "midi": 75,
      "hit": false,
      "t": 30750,
      "d": 375,
      "v": 64
    },
    {
      "midi": 59,
      "hit": false,
      "t": 30750,
      "d": 187.5,
      "v": 43
    },
    {
      "midi": 63,
      "hit": false,
      "t": 30750,
      "d": 187.5,
      "v": 43
    },
    {
      "midi": 66,
      "hit": false,
      "t": 30750,
      "d": 187.5,
      "v": 43
    },
    {
      "midi": 66,
      "hit": false,
      "t": 31125,
      "d": 375,
      "v": 64
    },
    {
      "midi": 59,
      "hit": false,
      "t": 31125,
      "d": 187.5,
      "v": 43
    },
    {
      "midi": 63,
      "hit": false,
      "t": 31125,
      "d": 187.5,
      "v": 43
    },
    {
      "midi": 66,
      "hit": false,
      "t": 31125,
      "d": 187.5,
      "v": 43
    },
    {
      "midi": 56,
      "hit": false,
      "t": 31500,
      "d": 1500,
      "v": 64
    },
    {
      "midi": 59,
      "hit": false,
      "t": 31500,
      "d": 187.5,
      "v": 43
    },
    {
      "midi": 63,
      "hit": false,
      "t": 31500,
      "d": 187.5,
      "v": 43
    },
    {
      "midi": 66,
      "hit": false,
      "t": 31500,
      "d": 187.5,
      "v": 43
    },
    {
      "midi": 44,
      "hit": false,
      "t": 31500,
      "d": 1500,
      "v": 43
    },
    {
      "midi": 66,
      "hit": false,
      "t": 31875,
      "d": 375,
      "v": 64
    },
    {
      "midi": 59,
      "hit": false,
      "t": 31875,
      "d": 187.5,
      "v": 43
    },
    {
      "midi": 63,
      "hit": false,
      "t": 31875,
      "d": 187.5,
      "v": 43
    },
    {
      "midi": 66,
      "hit": false,
      "t": 31875,
      "d": 187.5,
      "v": 43
    },
    {
      "midi": 71,
      "hit": false,
      "t": 32250,
      "d": 375,
      "v": 64
    },
    {
      "midi": 75,
      "hit": false,
      "t": 32250,
      "d": 375,
      "v": 64
    },
    {
      "midi": 78,
      "hit": false,
      "t": 32250,
      "d": 375,
      "v": 64
    },
    {
      "midi": 59,
      "hit": false,
      "t": 32250,
      "d": 187.5,
      "v": 43
    },
    {
      "midi": 63,
      "hit": false,
      "t": 32250,
      "d": 187.5,
      "v": 43
    },
    {
      "midi": 66,
      "hit": false,
      "t": 32250,
      "d": 187.5,
      "v": 43
    },
    {
      "midi": 66,
      "hit": false,
      "t": 32625,
      "d": 375,
      "v": 64
    },
    {
      "midi": 59,
      "hit": false,
      "t": 32625,
      "d": 187.5,
      "v": 43
    },
    {
      "midi": 63,
      "hit": false,
      "t": 32625,
      "d": 187.5,
      "v": 43
    },
    {
      "midi": 66,
      "hit": false,
      "t": 32625,
      "d": 187.5,
      "v": 43
    },
    {
      "midi": 53,
      "hit": false,
      "t": 33000,
      "d": 1500,
      "v": 64
    },
    {
      "midi": 56,
      "hit": false,
      "t": 33000,
      "d": 187.5,
      "v": 43
    },
    {
      "midi": 61,
      "hit": false,
      "t": 33000,
      "d": 187.5,
      "v": 43
    },
    {
      "midi": 65,
      "hit": false,
      "t": 33000,
      "d": 187.5,
      "v": 43
    },
    {
      "midi": 41,
      "hit": false,
      "t": 33000,
      "d": 1500,
      "v": 43
    },
    {
      "midi": 68,
      "hit": false,
      "t": 33375,
      "d": 375,
      "v": 64
    },
    {
      "midi": 56,
      "hit": false,
      "t": 33375,
      "d": 187.5,
      "v": 43
    },
    {
      "midi": 61,
      "hit": false,
      "t": 33375,
      "d": 187.5,
      "v": 43
    },
    {
      "midi": 65,
      "hit": false,
      "t": 33375,
      "d": 187.5,
      "v": 43
    },
    {
      "midi": 73,
      "hit": false,
      "t": 33750,
      "d": 375,
      "v": 64
    },
    {
      "midi": 77,
      "hit": false,
      "t": 33750,
      "d": 375,
      "v": 64
    },
    {
      "midi": 56,
      "hit": false,
      "t": 33750,
      "d": 187.5,
      "v": 43
    },
    {
      "midi": 61,
      "hit": false,
      "t": 33750,
      "d": 187.5,
      "v": 43
    },
    {
      "midi": 65,
      "hit": false,
      "t": 33750,
      "d": 187.5,
      "v": 43
    },
    {
      "midi": 68,
      "hit": false,
      "t": 34125,
      "d": 375,
      "v": 64
    },
    {
      "midi": 56,
      "hit": false,
      "t": 34125,
      "d": 187.5,
      "v": 43
    },
    {
      "midi": 61,
      "hit": false,
      "t": 34125,
      "d": 187.5,
      "v": 43
    },
    {
      "midi": 65,
      "hit": false,
      "t": 34125,
      "d": 187.5,
      "v": 43
    },
    {
      "midi": 49,
      "hit": false,
      "t": 34500,
      "d": 1500,
      "v": 64
    },
    {
      "midi": 56,
      "hit": false,
      "t": 34500,
      "d": 187.5,
      "v": 43
    },
    {
      "midi": 61,
      "hit": false,
      "t": 34500,
      "d": 187.5,
      "v": 43
    },
    {
      "midi": 64,
      "hit": false,
      "t": 34500,
      "d": 187.5,
      "v": 43
    },
    {
      "midi": 49,
      "hit": false,
      "t": 34500,
      "d": 1500,
      "v": 43
    },
    {
      "midi": 68,
      "hit": false,
      "t": 34875,
      "d": 375,
      "v": 64
    },
    {
      "midi": 56,
      "hit": false,
      "t": 34875,
      "d": 187.5,
      "v": 43
    },
    {
      "midi": 61,
      "hit": false,
      "t": 34875,
      "d": 187.5,
      "v": 43
    },
    {
      "midi": 64,
      "hit": false,
      "t": 34875,
      "d": 187.5,
      "v": 43
    },
    {
      "midi": 71,
      "hit": false,
      "t": 35250,
      "d": 375,
      "v": 64
    },
    {
      "midi": 73,
      "hit": false,
      "t": 35250,
      "d": 375,
      "v": 64
    },
    {
      "midi": 76,
      "hit": false,
      "t": 35250,
      "d": 375,
      "v": 64
    },
    {
      "midi": 56,
      "hit": false,
      "t": 35250,
      "d": 187.5,
      "v": 43
    },
    {
      "midi": 61,
      "hit": false,
      "t": 35250,
      "d": 187.5,
      "v": 43
    },
    {
      "midi": 64,
      "hit": false,
      "t": 35250,
      "d": 187.5,
      "v": 43
    },
    {
      "midi": 68,
      "hit": false,
      "t": 35625,
      "d": 375,
      "v": 64
    },
    {
      "midi": 56,
      "hit": false,
      "t": 35625,
      "d": 187.5,
      "v": 43
    },
    {
      "midi": 61,
      "hit": false,
      "t": 35625,
      "d": 187.5,
      "v": 43
    },
    {
      "midi": 64,
      "hit": false,
      "t": 35625,
      "d": 187.5,
      "v": 43
    },
    {
      "midi": 54,
      "hit": false,
      "t": 36000,
      "d": 1500,
      "v": 64
    },
    {
      "midi": 54,
      "hit": false,
      "t": 36000,
      "d": 187.5,
      "v": 43
    },
    {
      "midi": 57,
      "hit": false,
      "t": 36000,
      "d": 187.5,
      "v": 43
    },
    {
      "midi": 61,
      "hit": false,
      "t": 36000,
      "d": 187.5,
      "v": 43
    },
    {
      "midi": 42,
      "hit": false,
      "t": 36000,
      "d": 1500,
      "v": 43
    },
    {
      "midi": 66,
      "hit": false,
      "t": 36375,
      "d": 375,
      "v": 64
    },
    {
      "midi": 54,
      "hit": false,
      "t": 36375,
      "d": 187.5,
      "v": 43
    },
    {
      "midi": 57,
      "hit": false,
      "t": 36375,
      "d": 187.5,
      "v": 43
    },
    {
      "midi": 61,
      "hit": false,
      "t": 36375,
      "d": 187.5,
      "v": 43
    },
    {
      "midi": 69,
      "hit": false,
      "t": 36750,
      "d": 375,
      "v": 64
    },
    {
      "midi": 73,
      "hit": false,
      "t": 36750,
      "d": 375,
      "v": 64
    },
    {
      "midi": 76,
      "hit": false,
      "t": 36750,
      "d": 375,
      "v": 64
    },
    {
      "midi": 54,
      "hit": false,
      "t": 36750,
      "d": 187.5,
      "v": 43
    },
    {
      "midi": 57,
      "hit": false,
      "t": 36750,
      "d": 187.5,
      "v": 43
    },
    {
      "midi": 61,
      "hit": false,
      "t": 36750,
      "d": 187.5,
      "v": 43
    },
    {
      "midi": 66,
      "hit": false,
      "t": 37125,
      "d": 375,
      "v": 64
    },
    {
      "midi": 54,
      "hit": false,
      "t": 37125,
      "d": 187.5,
      "v": 43
    },
    {
      "midi": 57,
      "hit": false,
      "t": 37125,
      "d": 187.5,
      "v": 43
    },
    {
      "midi": 61,
      "hit": false,
      "t": 37125,
      "d": 187.5,
      "v": 43
    },
    {
      "midi": 59,
      "hit": false,
      "t": 37500,
      "d": 1312.5,
      "v": 64
    },
    {
      "midi": 54,
      "hit": false,
      "t": 37500,
      "d": 187.5,
      "v": 43
    },
    {
      "midi": 59,
      "hit": false,
      "t": 37500,
      "d": 187.5,
      "v": 43
    },
    {
      "midi": 63,
      "hit": false,
      "t": 37500,
      "d": 187.5,
      "v": 43
    },
    {
      "midi": 47,
      "hit": false,
      "t": 37500,
      "d": 1500,
      "v": 43
    },
    {
      "midi": 66,
      "hit": false,
      "t": 37875,
      "d": 375,
      "v": 64
    },
    {
      "midi": 54,
      "hit": false,
      "t": 37875,
      "d": 187.5,
      "v": 43
    },
    {
      "midi": 59,
      "hit": false,
      "t": 37875,
      "d": 187.5,
      "v": 43
    },
    {
      "midi": 63,
      "hit": false,
      "t": 37875,
      "d": 187.5,
      "v": 43
    },
    {
      "midi": 69,
      "hit": false,
      "t": 38250,
      "d": 375,
      "v": 64
    },
    {
      "midi": 75,
      "hit": false,
      "t": 38250,
      "d": 375,
      "v": 64
    },
    {
      "midi": 78,
      "hit": false,
      "t": 38250,
      "d": 375,
      "v": 64
    },
    {
      "midi": 54,
      "hit": false,
      "t": 38250,
      "d": 187.5,
      "v": 43
    },
    {
      "midi": 59,
      "hit": false,
      "t": 38250,
      "d": 187.5,
      "v": 43
    },
    {
      "midi": 63,
      "hit": false,
      "t": 38250,
      "d": 187.5,
      "v": 43
    },
    {
      "midi": 66,
      "hit": false,
      "t": 38625,
      "d": 375,
      "v": 64
    },
    {
      "midi": 54,
      "hit": false,
      "t": 38625,
      "d": 187.5,
      "v": 43
    },
    {
      "midi": 59,
      "hit": false,
      "t": 38625,
      "d": 187.5,
      "v": 43
    },
    {
      "midi": 63,
      "hit": false,
      "t": 38625,
      "d": 187.5,
      "v": 43
    },
    {
      "midi": 56,
      "hit": false,
      "t": 39000,
      "d": 1500,
      "v": 64
    },
    {
      "midi": 59,
      "hit": false,
      "t": 39000,
      "d": 187.5,
      "v": 43
    },
    {
      "midi": 64,
      "hit": false,
      "t": 39000,
      "d": 187.5,
      "v": 43
    },
    {
      "midi": 68,
      "hit": false,
      "t": 39000,
      "d": 187.5,
      "v": 43
    },
    {
      "midi": 52,
      "hit": false,
      "t": 39000,
      "d": 1500,
      "v": 43
    },
    {
      "midi": 68,
      "hit": false,
      "t": 39375,
      "d": 375,
      "v": 64
    },
    {
      "midi": 59,
      "hit": false,
      "t": 39375,
      "d": 187.5,
      "v": 43
    },
    {
      "midi": 64,
      "hit": false,
      "t": 39375,
      "d": 187.5,
      "v": 43
    },
    {
      "midi": 68,
      "hit": false,
      "t": 39375,
      "d": 187.5,
      "v": 43
    },
    {
      "midi": 71,
      "hit": false,
      "t": 39750,
      "d": 375,
      "v": 64
    },
    {
      "midi": 76,
      "hit": false,
      "t": 39750,
      "d": 375,
      "v": 64
    },
    {
      "midi": 59,
      "hit": false,
      "t": 39750,
      "d": 187.5,
      "v": 43
    },
    {
      "midi": 64,
      "hit": false,
      "t": 39750,
      "d": 187.5,
      "v": 43
    },
    {
      "midi": 68,
      "hit": false,
      "t": 39750,
      "d": 187.5,
      "v": 43
    },
    {
      "midi": 68,
      "hit": false,
      "t": 40125,
      "d": 375,
      "v": 64
    },
    {
      "midi": 59,
      "hit": false,
      "t": 40125,
      "d": 187.5,
      "v": 43
    },
    {
      "midi": 64,
      "hit": false,
      "t": 40125,
      "d": 187.5,
      "v": 43
    },
    {
      "midi": 68,
      "hit": false,
      "t": 40125,
      "d": 187.5,
      "v": 43
    },
    {
      "midi": 53,
      "hit": false,
      "t": 40500,
      "d": 1500,
      "v": 64
    },
    {
      "midi": 60,
      "hit": false,
      "t": 40500,
      "d": 187.5,
      "v": 43
    },
    {
      "midi": 65,
      "hit": false,
      "t": 40500,
      "d": 187.5,
      "v": 43
    },
    {
      "midi": 68,
      "hit": false,
      "t": 40500,
      "d": 187.5,
      "v": 43
    },
    {
      "midi": 53,
      "hit": false,
      "t": 40500,
      "d": 1500,
      "v": 43
    },
    {
      "midi": 68,
      "hit": false,
      "t": 40875,
      "d": 375,
      "v": 64
    },
    {
      "midi": 60,
      "hit": false,
      "t": 40875,
      "d": 187.5,
      "v": 43
    },
    {
      "midi": 65,
      "hit": false,
      "t": 40875,
      "d": 187.5,
      "v": 43
    },
    {
      "midi": 68,
      "hit": false,
      "t": 40875,
      "d": 187.5,
      "v": 43
    },
    {
      "midi": 72,
      "hit": false,
      "t": 41250,
      "d": 375,
      "v": 64
    },
    {
      "midi": 75,
      "hit": false,
      "t": 41250,
      "d": 375,
      "v": 64
    },
    {
      "midi": 77,
      "hit": false,
      "t": 41250,
      "d": 375,
      "v": 64
    },
    {
      "midi": 60,
      "hit": false,
      "t": 41250,
      "d": 187.5,
      "v": 43
    },
    {
      "midi": 65,
      "hit": false,
      "t": 41250,
      "d": 187.5,
      "v": 43
    },
    {
      "midi": 68,
      "hit": false,
      "t": 41250,
      "d": 187.5,
      "v": 43
    },
    {
      "midi": 68,
      "hit": false,
      "t": 41625,
      "d": 375,
      "v": 64
    },
    {
      "midi": 60,
      "hit": false,
      "t": 41625,
      "d": 187.5,
      "v": 43
    },
    {
      "midi": 65,
      "hit": false,
      "t": 41625,
      "d": 187.5,
      "v": 43
    },
    {
      "midi": 68,
      "hit": false,
      "t": 41625,
      "d": 187.5,
      "v": 43
    },
    {
      "midi": 54,
      "hit": false,
      "t": 42000,
      "d": 1500,
      "v": 64
    },
    {
      "midi": 59,
      "hit": false,
      "t": 42000,
      "d": 187.5,
      "v": 43
    },
    {
      "midi": 63,
      "hit": false,
      "t": 42000,
      "d": 187.5,
      "v": 43
    },
    {
      "midi": 66,
      "hit": false,
      "t": 42000,
      "d": 187.5,
      "v": 43
    },
    {
      "midi": 42,
      "hit": false,
      "t": 42000,
      "d": 1500,
      "v": 43
    },
    {
      "midi": 66,
      "hit": false,
      "t": 42375,
      "d": 375,
      "v": 64
    },
    {
      "midi": 59,
      "hit": false,
      "t": 42375,
      "d": 187.5,
      "v": 43
    },
    {
      "midi": 63,
      "hit": false,
      "t": 42375,
      "d": 187.5,
      "v": 43
    },
    {
      "midi": 66,
      "hit": false,
      "t": 42375,
      "d": 187.5,
      "v": 43
    },
    {
      "midi": 71,
      "hit": false,
      "t": 42750,
      "d": 375,
      "v": 64
    },
    {
      "midi": 75,
      "hit": false,
      "t": 42750,
      "d": 375,
      "v": 64
    },
    {
      "midi": 78,
      "hit": false,
      "t": 42750,
      "d": 375,
      "v": 64
    },
    {
      "midi": 59,
      "hit": false,
      "t": 42750,
      "d": 187.5,
      "v": 43
    },
    {
      "midi": 63,
      "hit": false,
      "t": 42750,
      "d": 187.5,
      "v": 43
    },
    {
      "midi": 66,
      "hit": false,
      "t": 42750,
      "d": 187.5,
      "v": 43
    },
    {
      "midi": 66,
      "hit": false,
      "t": 43125,
      "d": 375,
      "v": 64
    },
    {
      "midi": 59,
      "hit": false,
      "t": 43125,
      "d": 187.5,
      "v": 43
    },
    {
      "midi": 63,
      "hit": false,
      "t": 43125,
      "d": 187.5,
      "v": 43
    },
    {
      "midi": 66,
      "hit": false,
      "t": 43125,
      "d": 187.5,
      "v": 43
    },
    {
      "midi": 58,
      "hit": false,
      "t": 43500,
      "d": 1500,
      "v": 64
    },
    {
      "midi": 58,
      "hit": false,
      "t": 43500,
      "d": 187.5,
      "v": 43
    },
    {
      "midi": 61,
      "hit": false,
      "t": 43500,
      "d": 187.5,
      "v": 43
    },
    {
      "midi": 66,
      "hit": false,
      "t": 43500,
      "d": 187.5,
      "v": 43
    },
    {
      "midi": 46,
      "hit": false,
      "t": 43500,
      "d": 1500,
      "v": 43
    },
    {
      "midi": 66,
      "hit": false,
      "t": 43875,
      "d": 375,
      "v": 64
    },
    {
      "midi": 58,
      "hit": false,
      "t": 43875,
      "d": 187.5,
      "v": 43
    },
    {
      "midi": 61,
      "hit": false,
      "t": 43875,
      "d": 187.5,
      "v": 43
    },
    {
      "midi": 66,
      "hit": false,
      "t": 43875,
      "d": 187.5,
      "v": 43
    },
    {
      "midi": 70,
      "hit": false,
      "t": 44250,
      "d": 375,
      "v": 64
    },
    {
      "midi": 73,
      "hit": false,
      "t": 44250,
      "d": 375,
      "v": 64
    },
    {
      "midi": 78,
      "hit": false,
      "t": 44250,
      "d": 375,
      "v": 64
    },
    {
      "midi": 58,
      "hit": false,
      "t": 44250,
      "d": 187.5,
      "v": 43
    },
    {
      "midi": 61,
      "hit": false,
      "t": 44250,
      "d": 187.5,
      "v": 43
    },
    {
      "midi": 66,
      "hit": false,
      "t": 44250,
      "d": 187.5,
      "v": 43
    },
    {
      "midi": 66,
      "hit": false,
      "t": 44625,
      "d": 375,
      "v": 64
    },
    {
      "midi": 58,
      "hit": false,
      "t": 44625,
      "d": 187.5,
      "v": 43
    },
    {
      "midi": 61,
      "hit": false,
      "t": 44625,
      "d": 187.5,
      "v": 43
    },
    {
      "midi": 66,
      "hit": false,
      "t": 44625,
      "d": 187.5,
      "v": 43
    },
    {
      "midi": 59,
      "hit": false,
      "t": 45000,
      "d": 1500,
      "v": 64
    },
    {
      "midi": 59,
      "hit": false,
      "t": 45000,
      "d": 187.5,
      "v": 43
    },
    {
      "midi": 64,
      "hit": false,
      "t": 45000,
      "d": 187.5,
      "v": 43
    },
    {
      "midi": 68,
      "hit": false,
      "t": 45000,
      "d": 187.5,
      "v": 43
    },
    {
      "midi": 47,
      "hit": false,
      "t": 45000,
      "d": 1500,
      "v": 43
    },
    {
      "midi": 68,
      "hit": false,
      "t": 45375,
      "d": 375,
      "v": 64
    },
    {
      "midi": 59,
      "hit": false,
      "t": 45375,
      "d": 187.5,
      "v": 43
    },
    {
      "midi": 64,
      "hit": false,
      "t": 45375,
      "d": 187.5,
      "v": 43
    },
    {
      "midi": 68,
      "hit": false,
      "t": 45375,
      "d": 187.5,
      "v": 43
    },
    {
      "midi": 71,
      "hit": false,
      "t": 45750,
      "d": 375,
      "v": 64
    },
    {
      "midi": 76,
      "hit": false,
      "t": 45750,
      "d": 375,
      "v": 64
    },
    {
      "midi": 59,
      "hit": false,
      "t": 45750,
      "d": 187.5,
      "v": 43
    },
    {
      "midi": 64,
      "hit": false,
      "t": 45750,
      "d": 187.5,
      "v": 43
    },
    {
      "midi": 68,
      "hit": false,
      "t": 45750,
      "d": 187.5,
      "v": 43
    },
    {
      "midi": 68,
      "hit": false,
      "t": 46125,
      "d": 375,
      "v": 64
    },
    {
      "midi": 59,
      "hit": false,
      "t": 46125,
      "d": 187.5,
      "v": 43
    },
    {
      "midi": 64,
      "hit": false,
      "t": 46125,
      "d": 187.5,
      "v": 43
    },
    {
      "midi": 66,
      "hit": false,
      "t": 46125,
      "d": 187.5,
      "v": 43
    },
    {
      "midi": 68,
      "hit": false,
      "t": 46125,
      "d": 187.5,
      "v": 43
    },
    {
      "midi": 61,
      "hit": false,
      "t": 46500,
      "d": 1500,
      "v": 64
    },
    {
      "midi": 61,
      "hit": false,
      "t": 46500,
      "d": 187.5,
      "v": 43
    },
    {
      "midi": 64,
      "hit": false,
      "t": 46500,
      "d": 187.5,
      "v": 43
    },
    {
      "midi": 68,
      "hit": false,
      "t": 46500,
      "d": 187.5,
      "v": 43
    },
    {
      "midi": 49,
      "hit": false,
      "t": 46500,
      "d": 1500,
      "v": 43
    },
    {
      "midi": 68,
      "hit": false,
      "t": 46875,
      "d": 375,
      "v": 64
    },
    {
      "midi": 61,
      "hit": false,
      "t": 46875,
      "d": 187.5,
      "v": 43
    },
    {
      "midi": 64,
      "hit": false,
      "t": 46875,
      "d": 187.5,
      "v": 43
    },
    {
      "midi": 68,
      "hit": false,
      "t": 46875,
      "d": 187.5,
      "v": 43
    },
    {
      "midi": 73,
      "hit": false,
      "t": 47250,
      "d": 375,
      "v": 64
    },
    {
      "midi": 76,
      "hit": false,
      "t": 47250,
      "d": 375,
      "v": 64
    },
    {
      "midi": 61,
      "hit": false,
      "t": 47250,
      "d": 187.5,
      "v": 43
    },
    {
      "midi": 64,
      "hit": false,
      "t": 47250,
      "d": 187.5,
      "v": 43
    },
    {
      "midi": 68,
      "hit": false,
      "t": 47250,
      "d": 187.5,
      "v": 43
    },
    {
      "midi": 68,
      "hit": false,
      "t": 47625,
      "d": 375,
      "v": 64
    },
    {
      "midi": 61,
      "hit": false,
      "t": 47625,
      "d": 187.5,
      "v": 43
    },
    {
      "midi": 64,
      "hit": false,
      "t": 47625,
      "d": 187.5,
      "v": 43
    },
    {
      "midi": 68,
      "hit": false,
      "t": 47625,
      "d": 187.5,
      "v": 43
    },
    {
      "midi": 59,
      "hit": false,
      "t": 48000,
      "d": 1500,
      "v": 64
    },
    {
      "midi": 59,
      "hit": false,
      "t": 48000,
      "d": 187.5,
      "v": 43
    },
    {
      "midi": 64,
      "hit": false,
      "t": 48000,
      "d": 187.5,
      "v": 43
    },
    {
      "midi": 68,
      "hit": false,
      "t": 48000,
      "d": 187.5,
      "v": 43
    },
    {
      "midi": 47,
      "hit": false,
      "t": 48000,
      "d": 1500,
      "v": 43
    },
    {
      "midi": 68,
      "hit": false,
      "t": 48362.5,
      "d": 393.75,
      "v": 64
    },
    {
      "midi": 59,
      "hit": false,
      "t": 48375,
      "d": 187.5,
      "v": 43
    },
    {
      "midi": 64,
      "hit": false,
      "t": 48375,
      "d": 187.5,
      "v": 43
    },
    {
      "midi": 68,
      "hit": false,
      "t": 48375,
      "d": 187.5,
      "v": 43
    },
    {
      "midi": 76,
      "hit": false,
      "t": 48731.25,
      "d": 412.5,
      "v": 64
    },
    {
      "midi": 71,
      "hit": false,
      "t": 48743.75,
      "d": 393.75,
      "v": 64
    },
    {
      "midi": 59,
      "hit": false,
      "t": 48750,
      "d": 187.5,
      "v": 43
    },
    {
      "midi": 64,
      "hit": false,
      "t": 48750,
      "d": 187.5,
      "v": 43
    },
    {
      "midi": 68,
      "hit": false,
      "t": 48750,
      "d": 187.5,
      "v": 43
    },
    {
      "midi": 68,
      "hit": false,
      "t": 49112.5,
      "d": 400,
      "v": 64
    },
    {
      "midi": 59,
      "hit": false,
      "t": 49125,
      "d": 187.5,
      "v": 43
    },
    {
      "midi": 64,
      "hit": false,
      "t": 49125,
      "d": 187.5,
      "v": 43
    },
    {
      "midi": 68,
      "hit": false,
      "t": 49125,
      "d": 187.5,
      "v": 43
    },
    {
      "midi": 61,
      "hit": false,
      "t": 49500,
      "d": 1312.5,
      "v": 64
    },
    {
      "midi": 61,
      "hit": false,
      "t": 49500,
      "d": 187.5,
      "v": 43
    },
    {
      "midi": 64,
      "hit": false,
      "t": 49500,
      "d": 187.5,
      "v": 43
    },
    {
      "midi": 68,
      "hit": false,
      "t": 49500,
      "d": 187.5,
      "v": 43
    },
    {
      "midi": 49,
      "hit": false,
      "t": 49500,
      "d": 1312.5,
      "v": 43
    },
    {
      "midi": 61,
      "hit": false,
      "t": 49875,
      "d": 187.5,
      "v": 43
    },
    {
      "midi": 64,
      "hit": false,
      "t": 49875,
      "d": 187.5,
      "v": 43
    },
    {
      "midi": 68,
      "hit": false,
      "t": 49875,
      "d": 187.5,
      "v": 43
    },
    {
      "midi": 68,
      "hit": false,
      "t": 49881.25,
      "d": 368.75,
      "v": 64
    },
    {
      "midi": 76,
      "hit": false,
      "t": 50237.5,
      "d": 406.25,
      "v": 64
    },
    {
      "midi": 73,
      "hit": false,
      "t": 50250,
      "d": 387.5,
      "v": 64
    },
    {
      "midi": 61,
      "hit": false,
      "t": 50250,
      "d": 187.5,
      "v": 43
    },
    {
      "midi": 64,
      "hit": false,
      "t": 50250,
      "d": 187.5,
      "v": 43
    },
    {
      "midi": 68,
      "hit": false,
      "t": 50250,
      "d": 187.5,
      "v": 43
    },
    {
      "midi": 68,
      "hit": false,
      "t": 50612.5,
      "d": 337.5,
      "v": 64
    },
    {
      "midi": 61,
      "hit": false,
      "t": 50625,
      "d": 187.5,
      "v": 43
    },
    {
      "midi": 64,
      "hit": false,
      "t": 50625,
      "d": 187.5,
      "v": 43
    },
    {
      "midi": 68,
      "hit": false,
      "t": 50625,
      "d": 187.5,
      "v": 43
    },
    {
      "midi": 61,
      "hit": false,
      "t": 51000,
      "d": 1125,
      "v": 64
    },
    {
      "midi": 61,
      "hit": false,
      "t": 51000,
      "d": 187.5,
      "v": 43
    },
    {
      "midi": 65,
      "hit": false,
      "t": 51000,
      "d": 187.5,
      "v": 43
    },
    {
      "midi": 68,
      "hit": false,
      "t": 51000,
      "d": 187.5,
      "v": 43
    },
    {
      "midi": 49,
      "hit": false,
      "t": 51000,
      "d": 1125,
      "v": 43
    },
    {
      "midi": 68,
      "hit": false,
      "t": 51375,
      "d": 375,
      "v": 64
    },
    {
      "midi": 61,
      "hit": false,
      "t": 51375,
      "d": 187.5,
      "v": 43
    },
    {
      "midi": 65,
      "hit": false,
      "t": 51375,
      "d": 187.5,
      "v": 43
    },
    {
      "midi": 68,
      "hit": false,
      "t": 51375,
      "d": 187.5,
      "v": 43
    },
    {
      "midi": 73,
      "hit": false,
      "t": 51750,
      "d": 375,
      "v": 64
    },
    {
      "midi": 77,
      "hit": false,
      "t": 51750,
      "d": 375,
      "v": 64
    },
    {
      "midi": 61,
      "hit": false,
      "t": 51750,
      "d": 187.5,
      "v": 43
    },
    {
      "midi": 65,
      "hit": false,
      "t": 51750,
      "d": 187.5,
      "v": 43
    },
    {
      "midi": 68,
      "hit": false,
      "t": 51750,
      "d": 187.5,
      "v": 43
    },
    {
      "midi": 59,
      "hit": false,
      "t": 52125,
      "d": 375,
      "v": 64
    },
    {
      "midi": 68,
      "hit": false,
      "t": 52125,
      "d": 375,
      "v": 64
    },
    {
      "midi": 61,
      "hit": false,
      "t": 52125,
      "d": 187.5,
      "v": 43
    },
    {
      "midi": 65,
      "hit": false,
      "t": 52125,
      "d": 187.5,
      "v": 43
    },
    {
      "midi": 68,
      "hit": false,
      "t": 52125,
      "d": 187.5,
      "v": 43
    },
    {
      "midi": 47,
      "hit": false,
      "t": 52125,
      "d": 375,
      "v": 43
    },
    {
      "midi": 58,
      "hit": false,
      "t": 52500,
      "d": 750,
      "v": 64
    },
    {
      "midi": 61,
      "hit": false,
      "t": 52500,
      "d": 187.5,
      "v": 43
    },
    {
      "midi": 65,
      "hit": false,
      "t": 52500,
      "d": 187.5,
      "v": 43
    },
    {
      "midi": 68,
      "hit": false,
      "t": 52500,
      "d": 187.5,
      "v": 43
    },
    {
      "midi": 46,
      "hit": false,
      "t": 52500,
      "d": 750,
      "v": 43
    },
    {
      "midi": 68,
      "hit": false,
      "t": 52875,
      "d": 375,
      "v": 64
    },
    {
      "midi": 61,
      "hit": false,
      "t": 52875,
      "d": 187.5,
      "v": 43
    },
    {
      "midi": 65,
      "hit": false,
      "t": 52875,
      "d": 187.5,
      "v": 43
    },
    {
      "midi": 68,
      "hit": false,
      "t": 52875,
      "d": 187.5,
      "v": 43
    },
    {
      "midi": 73,
      "hit": false,
      "t": 53250,
      "d": 375,
      "v": 64
    },
    {
      "midi": 77,
      "hit": false,
      "t": 53250,
      "d": 375,
      "v": 64
    },
    {
      "midi": 56,
      "hit": false,
      "t": 53250,
      "d": 750,
      "v": 64
    },
    {
      "midi": 61,
      "hit": false,
      "t": 53250,
      "d": 187.5,
      "v": 43
    },
    {
      "midi": 65,
      "hit": false,
      "t": 53250,
      "d": 187.5,
      "v": 43
    },
    {
      "midi": 68,
      "hit": false,
      "t": 53250,
      "d": 187.5,
      "v": 43
    },
    {
      "midi": 44,
      "hit": false,
      "t": 53250,
      "d": 750,
      "v": 43
    },
    {
      "midi": 68,
      "hit": false,
      "t": 53625,
      "d": 375,
      "v": 64
    },
    {
      "midi": 61,
      "hit": false,
      "t": 53625,
      "d": 187.5,
      "v": 43
    },
    {
      "midi": 65,
      "hit": false,
      "t": 53625,
      "d": 187.5,
      "v": 43
    },
    {
      "midi": 68,
      "hit": false,
      "t": 53625,
      "d": 187.5,
      "v": 43
    },
    {
      "midi": 54,
      "hit": false,
      "t": 54000,
      "d": 1500,
      "v": 64
    },
    {
      "midi": 59,
      "hit": false,
      "t": 54000,
      "d": 187.5,
      "v": 43
    },
    {
      "midi": 63,
      "hit": false,
      "t": 54000,
      "d": 187.5,
      "v": 43
    },
    {
      "midi": 66,
      "hit": false,
      "t": 54000,
      "d": 187.5,
      "v": 43
    },
    {
      "midi": 42,
      "hit": false,
      "t": 54000,
      "d": 1500,
      "v": 43
    },
    {
      "midi": 66,
      "hit": false,
      "t": 54375,
      "d": 375,
      "v": 64
    },
    {
      "midi": 59,
      "hit": false,
      "t": 54375,
      "d": 187.5,
      "v": 43
    },
    {
      "midi": 63,
      "hit": false,
      "t": 54375,
      "d": 187.5,
      "v": 43
    },
    {
      "midi": 66,
      "hit": false,
      "t": 54375,
      "d": 187.5,
      "v": 43
    },
    {
      "midi": 71,
      "hit": false,
      "t": 54750,
      "d": 375,
      "v": 64
    },
    {
      "midi": 75,
      "hit": false,
      "t": 54750,
      "d": 375,
      "v": 64
    },
    {
      "midi": 59,
      "hit": false,
      "t": 54750,
      "d": 187.5,
      "v": 43
    },
    {
      "midi": 63,
      "hit": false,
      "t": 54750,
      "d": 187.5,
      "v": 43
    },
    {
      "midi": 66,
      "hit": false,
      "t": 54750,
      "d": 187.5,
      "v": 43
    },
    {
      "midi": 66,
      "hit": false,
      "t": 55125,
      "d": 375,
      "v": 64
    },
    {
      "midi": 59,
      "hit": false,
      "t": 55125,
      "d": 187.5,
      "v": 43
    },
    {
      "midi": 63,
      "hit": false,
      "t": 55125,
      "d": 187.5,
      "v": 43
    },
    {
      "midi": 66,
      "hit": false,
      "t": 55125,
      "d": 187.5,
      "v": 43
    },
    {
      "midi": 56,
      "hit": false,
      "t": 55500,
      "d": 1500,
      "v": 64
    },
    {
      "midi": 59,
      "hit": false,
      "t": 55500,
      "d": 187.5,
      "v": 43
    },
    {
      "midi": 63,
      "hit": false,
      "t": 55500,
      "d": 187.5,
      "v": 43
    },
    {
      "midi": 66,
      "hit": false,
      "t": 55500,
      "d": 187.5,
      "v": 43
    },
    {
      "midi": 44,
      "hit": false,
      "t": 55500,
      "d": 1500,
      "v": 43
    },
    {
      "midi": 66,
      "hit": false,
      "t": 55875,
      "d": 375,
      "v": 64
    },
    {
      "midi": 59,
      "hit": false,
      "t": 55875,
      "d": 187.5,
      "v": 43
    },
    {
      "midi": 63,
      "hit": false,
      "t": 55875,
      "d": 187.5,
      "v": 43
    },
    {
      "midi": 66,
      "hit": false,
      "t": 55875,
      "d": 187.5,
      "v": 43
    },
    {
      "midi": 71,
      "hit": false,
      "t": 56250,
      "d": 375,
      "v": 64
    },
    {
      "midi": 75,
      "hit": false,
      "t": 56250,
      "d": 375,
      "v": 64
    },
    {
      "midi": 78,
      "hit": false,
      "t": 56250,
      "d": 375,
      "v": 64
    },
    {
      "midi": 59,
      "hit": false,
      "t": 56250,
      "d": 187.5,
      "v": 43
    },
    {
      "midi": 63,
      "hit": false,
      "t": 56250,
      "d": 187.5,
      "v": 43
    },
    {
      "midi": 66,
      "hit": false,
      "t": 56250,
      "d": 187.5,
      "v": 43
    },
    {
      "midi": 66,
      "hit": false,
      "t": 56625,
      "d": 375,
      "v": 64
    },
    {
      "midi": 59,
      "hit": false,
      "t": 56625,
      "d": 187.5,
      "v": 43
    },
    {
      "midi": 63,
      "hit": false,
      "t": 56625,
      "d": 187.5,
      "v": 43
    },
    {
      "midi": 66,
      "hit": false,
      "t": 56625,
      "d": 187.5,
      "v": 43
    },
    {
      "midi": 53,
      "hit": false,
      "t": 57000,
      "d": 1500,
      "v": 64
    },
    {
      "midi": 56,
      "hit": false,
      "t": 57000,
      "d": 187.5,
      "v": 43
    },
    {
      "midi": 61,
      "hit": false,
      "t": 57000,
      "d": 187.5,
      "v": 43
    },
    {
      "midi": 65,
      "hit": false,
      "t": 57000,
      "d": 187.5,
      "v": 43
    },
    {
      "midi": 41,
      "hit": false,
      "t": 57000,
      "d": 1500,
      "v": 43
    },
    {
      "midi": 68,
      "hit": false,
      "t": 57375,
      "d": 375,
      "v": 64
    },
    {
      "midi": 56,
      "hit": false,
      "t": 57375,
      "d": 187.5,
      "v": 43
    },
    {
      "midi": 61,
      "hit": false,
      "t": 57375,
      "d": 187.5,
      "v": 43
    },
    {
      "midi": 65,
      "hit": false,
      "t": 57375,
      "d": 187.5,
      "v": 43
    },
    {
      "midi": 73,
      "hit": false,
      "t": 57750,
      "d": 375,
      "v": 64
    },
    {
      "midi": 77,
      "hit": false,
      "t": 57750,
      "d": 375,
      "v": 64
    },
    {
      "midi": 56,
      "hit": false,
      "t": 57750,
      "d": 187.5,
      "v": 43
    },
    {
      "midi": 61,
      "hit": false,
      "t": 57750,
      "d": 187.5,
      "v": 43
    },
    {
      "midi": 65,
      "hit": false,
      "t": 57750,
      "d": 187.5,
      "v": 43
    },
    {
      "midi": 68,
      "hit": false,
      "t": 58125,
      "d": 375,
      "v": 64
    },
    {
      "midi": 56,
      "hit": false,
      "t": 58125,
      "d": 187.5,
      "v": 43
    },
    {
      "midi": 61,
      "hit": false,
      "t": 58125,
      "d": 187.5,
      "v": 43
    },
    {
      "midi": 65,
      "hit": false,
      "t": 58125,
      "d": 187.5,
      "v": 43
    },
    {
      "midi": 49,
      "hit": false,
      "t": 58500,
      "d": 1500,
      "v": 64
    },
    {
      "midi": 56,
      "hit": false,
      "t": 58500,
      "d": 187.5,
      "v": 43
    },
    {
      "midi": 61,
      "hit": false,
      "t": 58500,
      "d": 187.5,
      "v": 43
    },
    {
      "midi": 64,
      "hit": false,
      "t": 58500,
      "d": 187.5,
      "v": 43
    },
    {
      "midi": 49,
      "hit": false,
      "t": 58500,
      "d": 1500,
      "v": 43
    },
    {
      "midi": 68,
      "hit": false,
      "t": 58875,
      "d": 375,
      "v": 64
    },
    {
      "midi": 56,
      "hit": false,
      "t": 58875,
      "d": 187.5,
      "v": 43
    },
    {
      "midi": 61,
      "hit": false,
      "t": 58875,
      "d": 187.5,
      "v": 43
    },
    {
      "midi": 64,
      "hit": false,
      "t": 58875,
      "d": 187.5,
      "v": 43
    },
    {
      "midi": 71,
      "hit": false,
      "t": 59250,
      "d": 375,
      "v": 64
    },
    {
      "midi": 73,
      "hit": false,
      "t": 59250,
      "d": 375,
      "v": 64
    },
    {
      "midi": 76,
      "hit": false,
      "t": 59250,
      "d": 375,
      "v": 64
    },
    {
      "midi": 56,
      "hit": false,
      "t": 59250,
      "d": 187.5,
      "v": 43
    },
    {
      "midi": 61,
      "hit": false,
      "t": 59250,
      "d": 187.5,
      "v": 43
    },
    {
      "midi": 64,
      "hit": false,
      "t": 59250,
      "d": 187.5,
      "v": 43
    },
    {
      "midi": 68,
      "hit": false,
      "t": 59625,
      "d": 375,
      "v": 64
    },
    {
      "midi": 56,
      "hit": false,
      "t": 59625,
      "d": 187.5,
      "v": 43
    },
    {
      "midi": 61,
      "hit": false,
      "t": 59625,
      "d": 187.5,
      "v": 43
    },
    {
      "midi": 64,
      "hit": false,
      "t": 59625,
      "d": 187.5,
      "v": 43
    },
    {
      "midi": 54,
      "hit": false,
      "t": 60000,
      "d": 1500,
      "v": 64
    },
    {
      "midi": 54,
      "hit": false,
      "t": 60000,
      "d": 187.5,
      "v": 43
    },
    {
      "midi": 57,
      "hit": false,
      "t": 60000,
      "d": 187.5,
      "v": 43
    },
    {
      "midi": 61,
      "hit": false,
      "t": 60000,
      "d": 187.5,
      "v": 43
    },
    {
      "midi": 42,
      "hit": false,
      "t": 60000,
      "d": 1500,
      "v": 43
    },
    {
      "midi": 66,
      "hit": false,
      "t": 60375,
      "d": 375,
      "v": 64
    },
    {
      "midi": 54,
      "hit": false,
      "t": 60375,
      "d": 187.5,
      "v": 43
    },
    {
      "midi": 57,
      "hit": false,
      "t": 60375,
      "d": 187.5,
      "v": 43
    },
    {
      "midi": 61,
      "hit": false,
      "t": 60375,
      "d": 187.5,
      "v": 43
    },
    {
      "midi": 69,
      "hit": false,
      "t": 60750,
      "d": 375,
      "v": 64
    },
    {
      "midi": 73,
      "hit": false,
      "t": 60750,
      "d": 375,
      "v": 64
    },
    {
      "midi": 76,
      "hit": false,
      "t": 60750,
      "d": 375,
      "v": 64
    },
    {
      "midi": 54,
      "hit": false,
      "t": 60750,
      "d": 187.5,
      "v": 43
    },
    {
      "midi": 57,
      "hit": false,
      "t": 60750,
      "d": 187.5,
      "v": 43
    },
    {
      "midi": 61,
      "hit": false,
      "t": 60750,
      "d": 187.5,
      "v": 43
    },
    {
      "midi": 66,
      "hit": false,
      "t": 61125,
      "d": 375,
      "v": 64
    },
    {
      "midi": 54,
      "hit": false,
      "t": 61125,
      "d": 187.5,
      "v": 43
    },
    {
      "midi": 57,
      "hit": false,
      "t": 61125,
      "d": 187.5,
      "v": 43
    },
    {
      "midi": 61,
      "hit": false,
      "t": 61125,
      "d": 187.5,
      "v": 43
    },
    {
      "midi": 59,
      "hit": false,
      "t": 61500,
      "d": 1312.5,
      "v": 64
    },
    {
      "midi": 54,
      "hit": false,
      "t": 61500,
      "d": 187.5,
      "v": 43
    },
    {
      "midi": 59,
      "hit": false,
      "t": 61500,
      "d": 187.5,
      "v": 43
    },
    {
      "midi": 63,
      "hit": false,
      "t": 61500,
      "d": 187.5,
      "v": 43
    },
    {
      "midi": 47,
      "hit": false,
      "t": 61500,
      "d": 1500,
      "v": 43
    },
    {
      "midi": 66,
      "hit": false,
      "t": 61875,
      "d": 375,
      "v": 64
    },
    {
      "midi": 54,
      "hit": false,
      "t": 61875,
      "d": 187.5,
      "v": 43
    },
    {
      "midi": 59,
      "hit": false,
      "t": 61875,
      "d": 187.5,
      "v": 43
    },
    {
      "midi": 63,
      "hit": false,
      "t": 61875,
      "d": 187.5,
      "v": 43
    },
    {
      "midi": 69,
      "hit": false,
      "t": 62250,
      "d": 375,
      "v": 64
    },
    {
      "midi": 75,
      "hit": false,
      "t": 62250,
      "d": 375,
      "v": 64
    },
    {
      "midi": 78,
      "hit": false,
      "t": 62250,
      "d": 375,
      "v": 64
    },
    {
      "midi": 54,
      "hit": false,
      "t": 62250,
      "d": 187.5,
      "v": 43
    },
    {
      "midi": 59,
      "hit": false,
      "t": 62250,
      "d": 187.5,
      "v": 43
    },
    {
      "midi": 63,
      "hit": false,
      "t": 62250,
      "d": 187.5,
      "v": 43
    },
    {
      "midi": 66,
      "hit": false,
      "t": 62625,
      "d": 375,
      "v": 64
    },
    {
      "midi": 54,
      "hit": false,
      "t": 62625,
      "d": 187.5,
      "v": 43
    },
    {
      "midi": 59,
      "hit": false,
      "t": 62625,
      "d": 187.5,
      "v": 43
    },
    {
      "midi": 63,
      "hit": false,
      "t": 62625,
      "d": 187.5,
      "v": 43
    },
    {
      "midi": 56,
      "hit": false,
      "t": 63000,
      "d": 750,
      "v": 64
    },
    {
      "midi": 63,
      "hit": false,
      "t": 63000,
      "d": 93.75,
      "v": 43
    },
    {
      "midi": 59,
      "hit": false,
      "t": 63000,
      "d": 112.5,
      "v": 43
    },
    {
      "midi": 56,
      "hit": false,
      "t": 63000,
      "d": 156.25,
      "v": 43
    },
    {
      "midi": 44,
      "hit": false,
      "t": 63000,
      "d": 1000,
      "v": 43
    },
    {
      "midi": 68,
      "hit": false,
      "t": 63375,
      "d": 562.5,
      "v": 64
    },
    {
      "midi": 59,
      "hit": false,
      "t": 63375,
      "d": 125,
      "v": 43
    },
    {
      "midi": 56,
      "hit": false,
      "t": 63375,
      "d": 137.5,
      "v": 43
    },
    {
      "midi": 63,
      "hit": false,
      "t": 63375,
      "d": 143.75,
      "v": 43
    },
    {
      "midi": 71,
      "hit": false,
      "t": 63750,
      "d": 375,
      "v": 64
    },
    {
      "midi": 75,
      "hit": false,
      "t": 63750,
      "d": 375,
      "v": 64
    },
    {
      "midi": 78,
      "hit": false,
      "t": 63750,
      "d": 375,
      "v": 64
    },
    {
      "midi": 59,
      "hit": false,
      "t": 63750,
      "d": 131.25,
      "v": 43
    },
    {
      "midi": 56,
      "hit": false,
      "t": 63750,
      "d": 150,
      "v": 43
    },
    {
      "midi": 63,
      "hit": false,
      "t": 63750,
      "d": 156.25,
      "v": 43
    },
    {
      "midi": 68,
      "hit": false,
      "t": 64125,
      "d": 375,
      "v": 64
    },
    {
      "midi": 63,
      "hit": false,
      "t": 64125,
      "d": 106.25,
      "v": 43
    },
    {
      "midi": 59,
      "hit": false,
      "t": 64125,
      "d": 137.5,
      "v": 43
    },
    {
      "midi": 56,
      "hit": false,
      "t": 64125,
      "d": 162.5,
      "v": 43
    },
    {
      "midi": 44,
      "hit": false,
      "t": 64125,
      "d": 381.25,
      "v": 43
    },
    {
      "midi": 49,
      "hit": false,
      "t": 64500,
      "d": 1500,
      "v": 64
    },
    {
      "midi": 61,
      "hit": false,
      "t": 64500,
      "d": 131.25,
      "v": 43
    },
    {
      "midi": 56,
      "hit": false,
      "t": 64500,
      "d": 150,
      "v": 43
    },
    {
      "midi": 64,
      "hit": false,
      "t": 64500,
      "d": 162.5,
      "v": 43
    },
    {
      "midi": 49,
      "hit": false,
      "t": 64500,
      "d": 893.75,
      "v": 43
    },
    {
      "midi": 68,
      "hit": false,
      "t": 64875,
      "d": 375,
      "v": 64
    },
    {
      "midi": 56,
      "hit": false,
      "t": 64875,
      "d": 112.5,
      "v": 43
    },
    {
      "midi": 64,
      "hit": false,
      "t": 64875,
      "d": 112.5,
      "v": 43
    },
    {
      "midi": 61,
      "hit": false,
      "t": 64875,
      "d": 125,
      "v": 43
    },
    {
      "midi": 71,
      "hit": false,
      "t": 65250,
      "d": 375,
      "v": 64
    },
    {
      "midi": 73,
      "hit": false,
      "t": 65250,
      "d": 375,
      "v": 64
    },
    {
      "midi": 76,
      "hit": false,
      "t": 65250,
      "d": 375,
      "v": 64
    },
    {
      "midi": 64,
      "hit": false,
      "t": 65250,
      "d": 100,
      "v": 43
    },
    {
      "midi": 56,
      "hit": false,
      "t": 65250,
      "d": 106.25,
      "v": 43
    },
    {
      "midi": 61,
      "hit": false,
      "t": 65250,
      "d": 125,
      "v": 43
    },
    {
      "midi": 68,
      "hit": false,
      "t": 65625,
      "d": 375,
      "v": 64
    },
    {
      "midi": 64,
      "hit": false,
      "t": 65625,
      "d": 87.5,
      "v": 43
    },
    {
      "midi": 61,
      "hit": false,
      "t": 65625,
      "d": 93.75,
      "v": 43
    },
    {
      "midi": 56,
      "hit": false,
      "t": 65625,
      "d": 106.25,
      "v": 43
    },
    {
      "midi": 49,
      "hit": false,
      "t": 65625,
      "d": 293.75,
      "v": 43
    },
    {
      "midi": 51,
      "hit": false,
      "t": 66000,
      "d": 1500,
      "v": 64
    },
    {
      "midi": 60,
      "hit": false,
      "t": 66000,
      "d": 175,
      "v": 43
    },
    {
      "midi": 63,
      "hit": false,
      "t": 66000,
      "d": 175,
      "v": 43
    },
    {
      "midi": 56,
      "hit": false,
      "t": 66000,
      "d": 206.25,
      "v": 43
    },
    {
      "midi": 51,
      "hit": false,
      "t": 66000,
      "d": 950,
      "v": 43
    },
    {
      "midi": 63,
      "hit": false,
      "t": 66375,
      "d": 375,
      "v": 64
    },
    {
      "midi": 63,
      "hit": false,
      "t": 66375,
      "d": 143.75,
      "v": 43
    },
    {
      "midi": 60,
      "hit": false,
      "t": 66375,
      "d": 156.25,
      "v": 43
    },
    {
      "midi": 56,
      "hit": false,
      "t": 66375,
      "d": 206.25,
      "v": 43
    },
    {
      "midi": 68,
      "hit": false,
      "t": 66750,
      "d": 375,
      "v": 64
    },
    {
      "midi": 72,
      "hit": false,
      "t": 66750,
      "d": 375,
      "v": 64
    },
    {
      "midi": 60,
      "hit": false,
      "t": 66750,
      "d": 131.25,
      "v": 43
    },
    {
      "midi": 63,
      "hit": false,
      "t": 66750,
      "d": 131.25,
      "v": 43
    },
    {
      "midi": 56,
      "hit": false,
      "t": 66750,
      "d": 168.75,
      "v": 43
    },
    {
      "midi": 75,
      "hit": false,
      "t": 66756.25,
      "d": 337.5,
      "v": 64
    },
    {
      "midi": 63,
      "hit": false,
      "t": 67125,
      "d": 375,
      "v": 64
    },
    {
      "midi": 60,
      "hit": false,
      "t": 67125,
      "d": 93.75,
      "v": 43
    },
    {
      "midi": 63,
      "hit": false,
      "t": 67125,
      "d": 125,
      "v": 43
    },
    {
      "midi": 56,
      "hit": false,
      "t": 67125,
      "d": 143.75,
      "v": 43
    },
    {
      "midi": 51,
      "hit": false,
      "t": 67125,
      "d": 387.5,
      "v": 43
    },
    {
      "midi": 53,
      "hit": false,
      "t": 67500,
      "d": 1500,
      "v": 64
    },
    {
      "midi": 61,
      "hit": false,
      "t": 67500,
      "d": 106.25,
      "v": 43
    },
    {
      "midi": 65,
      "hit": false,
      "t": 67500,
      "d": 143.75,
      "v": 43
    },
    {
      "midi": 56,
      "hit": false,
      "t": 67500,
      "d": 150,
      "v": 43
    },
    {
      "midi": 53,
      "hit": false,
      "t": 67500,
      "d": 893.75,
      "v": 43
    },
    {
      "midi": 65,
      "hit": false,
      "t": 67875,
      "d": 375,
      "v": 64
    },
    {
      "midi": 61,
      "hit": false,
      "t": 67875,
      "d": 93.75,
      "v": 43
    },
    {
      "midi": 56,
      "hit": false,
      "t": 67875,
      "d": 131.25,
      "v": 43
    },
    {
      "midi": 65,
      "hit": false,
      "t": 67875,
      "d": 150,
      "v": 43
    },
    {
      "midi": 68,
      "hit": false,
      "t": 68250,
      "d": 375,
      "v": 64
    },
    {
      "midi": 73,
      "hit": false,
      "t": 68250,
      "d": 375,
      "v": 64
    },
    {
      "midi": 61,
      "hit": false,
      "t": 68250,
      "d": 100,
      "v": 43
    },
    {
      "midi": 56,
      "hit": false,
      "t": 68250,
      "d": 106.25,
      "v": 43
    },
    {
      "midi": 65,
      "hit": false,
      "t": 68250,
      "d": 131.25,
      "v": 43
    },
    {
      "midi": 77,
      "hit": false,
      "t": 68262.5,
      "d": 337.5,
      "v": 64
    },
    {
      "midi": 65,
      "hit": false,
      "t": 68625,
      "d": 375,
      "v": 64
    },
    {
      "midi": 56,
      "hit": false,
      "t": 68625,
      "d": 93.75,
      "v": 43
    },
    {
      "midi": 61,
      "hit": false,
      "t": 68625,
      "d": 100,
      "v": 43
    },
    {
      "midi": 65,
      "hit": false,
      "t": 68625,
      "d": 125,
      "v": 43
    },
    {
      "midi": 53,
      "hit": false,
      "t": 68625,
      "d": 387.5,
      "v": 43
    },
    {
      "midi": 51,
      "hit": false,
      "t": 69000,
      "d": 1500,
      "v": 64
    },
    {
      "midi": 60,
      "hit": false,
      "t": 69000,
      "d": 93.75,
      "v": 43
    },
    {
      "midi": 63,
      "hit": false,
      "t": 69000,
      "d": 106.25,
      "v": 43
    },
    {
      "midi": 56,
      "hit": false,
      "t": 69000,
      "d": 112.5,
      "v": 43
    },
    {
      "midi": 51,
      "hit": false,
      "t": 69000,
      "d": 918.75,
      "v": 43
    },
    {
      "midi": 63,
      "hit": false,
      "t": 69375,
      "d": 375,
      "v": 64
    },
    {
      "midi": 60,
      "hit": false,
      "t": 69375,
      "d": 81.25,
      "v": 43
    },
    {
      "midi": 63,
      "hit": false,
      "t": 69375,
      "d": 106.25,
      "v": 43
    },
    {
      "midi": 56,
      "hit": false,
      "t": 69375,
      "d": 118.75,
      "v": 43
    },
    {
      "midi": 68,
      "hit": false,
      "t": 69750,
      "d": 375,
      "v": 64
    },
    {
      "midi": 72,
      "hit": false,
      "t": 69750,
      "d": 375,
      "v": 64
    },
    {
      "midi": 60,
      "hit": false,
      "t": 69750,
      "d": 100,
      "v": 43
    },
    {
      "midi": 63,
      "hit": false,
      "t": 69750,
      "d": 100,
      "v": 43
    },
    {
      "midi": 56,
      "hit": false,
      "t": 69750,
      "d": 112.5,
      "v": 43
    },
    {
      "midi": 75,
      "hit": false,
      "t": 69768.75,
      "d": 350,
      "v": 64
    },
    {
      "midi": 63,
      "hit": false,
      "t": 70125,
      "d": 375,
      "v": 64
    },
    {
      "midi": 60,
      "hit": false,
      "t": 70125,
      "d": 81.25,
      "v": 43
    },
    {
      "midi": 63,
      "hit": false,
      "t": 70125,
      "d": 100,
      "v": 43
    },
    {
      "midi": 56,
      "hit": false,
      "t": 70125,
      "d": 106.25,
      "v": 43
    },
    {
      "midi": 51,
      "hit": false,
      "t": 70125,
      "d": 387.5,
      "v": 43
    },
    {
      "midi": 53,
      "hit": false,
      "t": 70500,
      "d": 1500,
      "v": 64
    },
    {
      "midi": 61,
      "hit": false,
      "t": 70500,
      "d": 87.5,
      "v": 43
    },
    {
      "midi": 56,
      "hit": false,
      "t": 70500,
      "d": 93.75,
      "v": 43
    },
    {
      "midi": 65,
      "hit": false,
      "t": 70500,
      "d": 118.75,
      "v": 43
    },
    {
      "midi": 53,
      "hit": false,
      "t": 70500,
      "d": 1000,
      "v": 43
    },
    {
      "midi": 65,
      "hit": false,
      "t": 70875,
      "d": 375,
      "v": 64
    },
    {
      "midi": 61,
      "hit": false,
      "t": 70875,
      "d": 87.5,
      "v": 43
    },
    {
      "midi": 56,
      "hit": false,
      "t": 70875,
      "d": 93.75,
      "v": 43
    },
    {
      "midi": 65,
      "hit": false,
      "t": 70875,
      "d": 125,
      "v": 43
    },
    {
      "midi": 77,
      "hit": false,
      "t": 71250,
      "d": 368.75,
      "v": 64
    },
    {
      "midi": 68,
      "hit": false,
      "t": 71250,
      "d": 375,
      "v": 64
    },
    {
      "midi": 73,
      "hit": false,
      "t": 71250,
      "d": 375,
      "v": 64
    },
    {
      "midi": 61,
      "hit": false,
      "t": 71250,
      "d": 87.5,
      "v": 43
    },
    {
      "midi": 56,
      "hit": false,
      "t": 71250,
      "d": 93.75,
      "v": 43
    },
    {
      "midi": 65,
      "hit": false,
      "t": 71250,
      "d": 112.5,
      "v": 43
    },
    {
      "midi": 65,
      "hit": false,
      "t": 71625,
      "d": 375,
      "v": 64
    },
    {
      "midi": 61,
      "hit": false,
      "t": 71625,
      "d": 100,
      "v": 43
    },
    {
      "midi": 56,
      "hit": false,
      "t": 71625,
      "d": 112.5,
      "v": 43
    },
    {
      "midi": 65,
      "hit": false,
      "t": 71625,
      "d": 125,
      "v": 43
    },
    {
      "midi": 53,
      "hit": false,
      "t": 71625,
      "d": 350,
      "v": 43
    },
    {
      "midi": 51,
      "hit": false,
      "t": 72000,
      "d": 1312.5,
      "v": 64
    },
    {
      "midi": 60,
      "hit": false,
      "t": 72000,
      "d": 81.25,
      "v": 43
    },
    {
      "midi": 56,
      "hit": false,
      "t": 72000,
      "d": 87.5,
      "v": 43
    },
    {
      "midi": 63,
      "hit": false,
      "t": 72000,
      "d": 93.75,
      "v": 43
    },
    {
      "midi": 51,
      "hit": false,
      "t": 72000,
      "d": 1487.5,
      "v": 43
    },
    {
      "midi": 63,
      "hit": false,
      "t": 72375,
      "d": 375,
      "v": 64
    },
    {
      "midi": 60,
      "hit": false,
      "t": 72375,
      "d": 81.25,
      "v": 43
    },
    {
      "midi": 56,
      "hit": false,
      "t": 72375,
      "d": 93.75,
      "v": 43
    },
    {
      "midi": 63,
      "hit": false,
      "t": 72375,
      "d": 93.75,
      "v": 43
    },
    {
      "midi": 68,
      "hit": false,
      "t": 72750,
      "d": 375,
      "v": 64
    },
    {
      "midi": 72,
      "hit": false,
      "t": 72750,
      "d": 375,
      "v": 64
    },
    {
      "midi": 75,
      "hit": false,
      "t": 72750,
      "d": 375,
      "v": 64
    },
    {
      "midi": 56,
      "hit": false,
      "t": 72750,
      "d": 93.75,
      "v": 43
    },
    {
      "midi": 60,
      "hit": false,
      "t": 72750,
      "d": 100,
      "v": 43
    },
    {
      "midi": 63,
      "hit": false,
      "t": 72750,
      "d": 112.5,
      "v": 43
    },
    {
      "midi": 63,
      "hit": false,
      "t": 73125,
      "d": 375,
      "v": 64
    },
    {
      "midi": 60,
      "hit": false,
      "t": 73125,
      "d": 81.25,
      "v": 43
    },
    {
      "midi": 56,
      "hit": false,
      "t": 73125,
      "d": 100,
      "v": 43
    },
    {
      "midi": 63,
      "hit": false,
      "t": 73125,
      "d": 100,
      "v": 43
    },
    {
      "midi": 40,
      "hit": false,
      "t": 73500,
      "d": 187.5,
      "v": 64
    },
    {
      "midi": 42,
      "hit": false,
      "t": 73687.5,
      "d": 375,
      "v": 64
    },
    {
      "midi": 44,
      "hit": false,
      "t": 74062.5,
      "d": 187.5,
      "v": 64
    },
    {
      "midi": 46,
      "hit": false,
      "t": 74250,
      "d": 375,
      "v": 64
    },
    {
      "midi": 47,
      "hit": false,
      "t": 74625,
      "d": 375,
      "v": 64
    },
    {
      "midi": 61,
      "hit": false,
      "t": 75000,
      "d": 1125,
      "v": 64
    },
    {
      "midi": 68,
      "hit": false,
      "t": 75375,
      "d": 375,
      "v": 64
    },
    {
      "midi": 73,
      "hit": false,
      "t": 75750,
      "d": 375,
      "v": 64
    },
    {
      "midi": 77,
      "hit": false,
      "t": 75750,
      "d": 375,
      "v": 64
    },
    {
      "midi": 59,
      "hit": false,
      "t": 76125,
      "d": 375,
      "v": 64
    },
    {
      "midi": 68,
      "hit": false,
      "t": 76125,
      "d": 375,
      "v": 64
    },
    {
      "midi": 58,
      "hit": false,
      "t": 76500,
      "d": 750,
      "v": 64
    },
    {
      "midi": 68,
      "hit": false,
      "t": 76875,
      "d": 375,
      "v": 64
    },
    {
      "midi": 73,
      "hit": false,
      "t": 77250,
      "d": 375,
      "v": 64
    },
    {
      "midi": 77,
      "hit": false,
      "t": 77250,
      "d": 375,
      "v": 64
    },
    {
      "midi": 56,
      "hit": false,
      "t": 77250,
      "d": 750,
      "v": 64
    },
    {
      "midi": 68,
      "hit": false,
      "t": 77625,
      "d": 375,
      "v": 64
    },
    {
      "midi": 54,
      "hit": false,
      "t": 78000,
      "d": 1500,
      "v": 64
    },
    {
      "midi": 66,
      "hit": false,
      "t": 78375,
      "d": 375,
      "v": 64
    },
    {
      "midi": 71,
      "hit": false,
      "t": 78750,
      "d": 375,
      "v": 64
    },
    {
      "midi": 75,
      "hit": false,
      "t": 78750,
      "d": 375,
      "v": 64
    },
    {
      "midi": 66,
      "hit": false,
      "t": 79125,
      "d": 375,
      "v": 64
    },
    {
      "midi": 56,
      "hit": false,
      "t": 79500,
      "d": 1500,
      "v": 64
    },
    {
      "midi": 66,
      "hit": false,
      "t": 79875,
      "d": 375,
      "v": 64
    },
    {
      "midi": 71,
      "hit": false,
      "t": 80250,
      "d": 375,
      "v": 64
    },
    {
      "midi": 75,
      "hit": false,
      "t": 80250,
      "d": 375,
      "v": 64
    },
    {
      "midi": 78,
      "hit": false,
      "t": 80250,
      "d": 375,
      "v": 64
    },
    {
      "midi": 66,
      "hit": false,
      "t": 80625,
      "d": 375,
      "v": 64
    },
    {
      "midi": 53,
      "hit": false,
      "t": 81000,
      "d": 1500,
      "v": 64
    },
    {
      "midi": 68,
      "hit": false,
      "t": 81375,
      "d": 375,
      "v": 64
    },
    {
      "midi": 73,
      "hit": false,
      "t": 81750,
      "d": 375,
      "v": 64
    },
    {
      "midi": 77,
      "hit": false,
      "t": 81750,
      "d": 375,
      "v": 64
    },
    {
      "midi": 68,
      "hit": false,
      "t": 82125,
      "d": 375,
      "v": 64
    },
    {
      "midi": 49,
      "hit": false,
      "t": 82500,
      "d": 1500,
      "v": 64
    },
    {
      "midi": 68,
      "hit": false,
      "t": 82875,
      "d": 375,
      "v": 64
    },
    {
      "midi": 71,
      "hit": false,
      "t": 83250,
      "d": 375,
      "v": 64
    },
    {
      "midi": 73,
      "hit": false,
      "t": 83250,
      "d": 375,
      "v": 64
    },
    {
      "midi": 76,
      "hit": false,
      "t": 83250,
      "d": 375,
      "v": 64
    },
    {
      "midi": 68,
      "hit": false,
      "t": 83625,
      "d": 375,
      "v": 64
    },
    {
      "midi": 54,
      "hit": false,
      "t": 84000,
      "d": 1500,
      "v": 64
    },
    {
      "midi": 66,
      "hit": false,
      "t": 84375,
      "d": 375,
      "v": 64
    },
    {
      "midi": 69,
      "hit": false,
      "t": 84750,
      "d": 375,
      "v": 64
    },
    {
      "midi": 73,
      "hit": false,
      "t": 84750,
      "d": 375,
      "v": 64
    },
    {
      "midi": 76,
      "hit": false,
      "t": 84750,
      "d": 375,
      "v": 64
    },
    {
      "midi": 66,
      "hit": false,
      "t": 85125,
      "d": 375,
      "v": 64
    },
    {
      "midi": 59,
      "hit": false,
      "t": 85500,
      "d": 1312.5,
      "v": 64
    },
    {
      "midi": 66,
      "hit": false,
      "t": 85875,
      "d": 375,
      "v": 64
    },
    {
      "midi": 69,
      "hit": false,
      "t": 86250,
      "d": 375,
      "v": 64
    },
    {
      "midi": 75,
      "hit": false,
      "t": 86250,
      "d": 375,
      "v": 64
    },
    {
      "midi": 78,
      "hit": false,
      "t": 86250,
      "d": 375,
      "v": 64
    },
    {
      "midi": 66,
      "hit": false,
      "t": 86625,
      "d": 375,
      "v": 64
    },
    {
      "midi": 56,
      "hit": false,
      "t": 87000,
      "d": 1500,
      "v": 64
    },
    {
      "midi": 68,
      "hit": false,
      "t": 87375,
      "d": 375,
      "v": 64
    },
    {
      "midi": 71,
      "hit": false,
      "t": 87750,
      "d": 375,
      "v": 64
    },
    {
      "midi": 76,
      "hit": false,
      "t": 87750,
      "d": 375,
      "v": 64
    },
    {
      "midi": 68,
      "hit": false,
      "t": 88125,
      "d": 375,
      "v": 64
    },
    {
      "midi": 53,
      "hit": false,
      "t": 88500,
      "d": 1500,
      "v": 64
    },
    {
      "midi": 68,
      "hit": false,
      "t": 88875,
      "d": 375,
      "v": 64
    },
    {
      "midi": 72,
      "hit": false,
      "t": 89250,
      "d": 375,
      "v": 64
    },
    {
      "midi": 75,
      "hit": false,
      "t": 89250,
      "d": 375,
      "v": 64
    },
    {
      "midi": 77,
      "hit": false,
      "t": 89250,
      "d": 375,
      "v": 64
    },
    {
      "midi": 68,
      "hit": false,
      "t": 89625,
      "d": 375,
      "v": 64
    },
    {
      "midi": 54,
      "hit": false,
      "t": 90000,
      "d": 1500,
      "v": 64
    },
    {
      "midi": 66,
      "hit": false,
      "t": 90375,
      "d": 375,
      "v": 64
    },
    {
      "midi": 71,
      "hit": false,
      "t": 90750,
      "d": 375,
      "v": 64
    },
    {
      "midi": 75,
      "hit": false,
      "t": 90750,
      "d": 375,
      "v": 64
    },
    {
      "midi": 78,
      "hit": false,
      "t": 90750,
      "d": 375,
      "v": 64
    },
    {
      "midi": 66,
      "hit": false,
      "t": 91125,
      "d": 375,
      "v": 64
    },
    {
      "midi": 58,
      "hit": false,
      "t": 91500,
      "d": 1500,
      "v": 64
    },
    {
      "midi": 66,
      "hit": false,
      "t": 91875,
      "d": 375,
      "v": 64
    },
    {
      "midi": 70,
      "hit": false,
      "t": 92250,
      "d": 375,
      "v": 64
    },
    {
      "midi": 73,
      "hit": false,
      "t": 92250,
      "d": 375,
      "v": 64
    },
    {
      "midi": 78,
      "hit": false,
      "t": 92250,
      "d": 375,
      "v": 64
    },
    {
      "midi": 66,
      "hit": false,
      "t": 92625,
      "d": 375,
      "v": 64
    },
    {
      "midi": 59,
      "hit": false,
      "t": 93000,
      "d": 1500,
      "v": 64
    },
    {
      "midi": 68,
      "hit": false,
      "t": 93375,
      "d": 375,
      "v": 64
    },
    {
      "midi": 71,
      "hit": false,
      "t": 93750,
      "d": 375,
      "v": 64
    },
    {
      "midi": 76,
      "hit": false,
      "t": 93750,
      "d": 375,
      "v": 64
    },
    {
      "midi": 68,
      "hit": false,
      "t": 94125,
      "d": 375,
      "v": 64
    },
    {
      "midi": 61,
      "hit": false,
      "t": 94500,
      "d": 1500,
      "v": 64
    },
    {
      "midi": 68,
      "hit": false,
      "t": 94875,
      "d": 375,
      "v": 64
    },
    {
      "midi": 73,
      "hit": false,
      "t": 95250,
      "d": 375,
      "v": 64
    },
    {
      "midi": 76,
      "hit": false,
      "t": 95250,
      "d": 375,
      "v": 64
    },
    {
      "midi": 68,
      "hit": false,
      "t": 95625,
      "d": 375,
      "v": 64
    },
    {
      "midi": 59,
      "hit": false,
      "t": 96000,
      "d": 1500,
      "v": 64
    },
    {
      "midi": 68,
      "hit": false,
      "t": 96362.5,
      "d": 393.75,
      "v": 64
    },
    {
      "midi": 76,
      "hit": false,
      "t": 96731.25,
      "d": 412.5,
      "v": 64
    },
    {
      "midi": 71,
      "hit": false,
      "t": 96743.75,
      "d": 393.75,
      "v": 64
    },
    {
      "midi": 68,
      "hit": false,
      "t": 97112.5,
      "d": 400,
      "v": 64
    },
    {
      "midi": 61,
      "hit": false,
      "t": 97500,
      "d": 1312.5,
      "v": 64
    },
    {
      "midi": 68,
      "hit": false,
      "t": 97881.25,
      "d": 368.75,
      "v": 64
    },
    {
      "midi": 76,
      "hit": false,
      "t": 98237.5,
      "d": 406.25,
      "v": 64
    },
    {
      "midi": 73,
      "hit": false,
      "t": 98250,
      "d": 387.5,
      "v": 64
    },
    {
      "midi": 68,
      "hit": false,
      "t": 98612.5,
      "d": 337.5,
      "v": 64
    },
    {
      "midi": 61,
      "hit": false,
      "t": 99000,
      "d": 1125,
      "v": 64
    },
    {
      "midi": 61,
      "hit": false,
      "t": 99000,
      "d": 187.5,
      "v": 43
    },
    {
      "midi": 65,
      "hit": false,
      "t": 99000,
      "d": 187.5,
      "v": 43
    },
    {
      "midi": 68,
      "hit": false,
      "t": 99000,
      "d": 187.5,
      "v": 43
    },
    {
      "midi": 49,
      "hit": false,
      "t": 99000,
      "d": 1125,
      "v": 43
    },
    {
      "midi": 68,
      "hit": false,
      "t": 99375,
      "d": 375,
      "v": 64
    },
    {
      "midi": 61,
      "hit": false,
      "t": 99375,
      "d": 187.5,
      "v": 43
    },
    {
      "midi": 65,
      "hit": false,
      "t": 99375,
      "d": 187.5,
      "v": 43
    },
    {
      "midi": 68,
      "hit": false,
      "t": 99375,
      "d": 187.5,
      "v": 43
    },
    {
      "midi": 73,
      "hit": false,
      "t": 99750,
      "d": 375,
      "v": 64
    },
    {
      "midi": 77,
      "hit": false,
      "t": 99750,
      "d": 375,
      "v": 64
    },
    {
      "midi": 61,
      "hit": false,
      "t": 99750,
      "d": 187.5,
      "v": 43
    },
    {
      "midi": 65,
      "hit": false,
      "t": 99750,
      "d": 187.5,
      "v": 43
    },
    {
      "midi": 68,
      "hit": false,
      "t": 99750,
      "d": 187.5,
      "v": 43
    },
    {
      "midi": 59,
      "hit": false,
      "t": 100125,
      "d": 375,
      "v": 64
    },
    {
      "midi": 68,
      "hit": false,
      "t": 100125,
      "d": 375,
      "v": 64
    },
    {
      "midi": 61,
      "hit": false,
      "t": 100125,
      "d": 187.5,
      "v": 43
    },
    {
      "midi": 65,
      "hit": false,
      "t": 100125,
      "d": 187.5,
      "v": 43
    },
    {
      "midi": 68,
      "hit": false,
      "t": 100125,
      "d": 187.5,
      "v": 43
    },
    {
      "midi": 47,
      "hit": false,
      "t": 100125,
      "d": 375,
      "v": 43
    },
    {
      "midi": 58,
      "hit": false,
      "t": 100500,
      "d": 750,
      "v": 64
    },
    {
      "midi": 61,
      "hit": false,
      "t": 100500,
      "d": 187.5,
      "v": 43
    },
    {
      "midi": 65,
      "hit": false,
      "t": 100500,
      "d": 187.5,
      "v": 43
    },
    {
      "midi": 68,
      "hit": false,
      "t": 100500,
      "d": 187.5,
      "v": 43
    },
    {
      "midi": 46,
      "hit": false,
      "t": 100500,
      "d": 750,
      "v": 43
    },
    {
      "midi": 68,
      "hit": false,
      "t": 100875,
      "d": 375,
      "v": 64
    },
    {
      "midi": 61,
      "hit": false,
      "t": 100875,
      "d": 187.5,
      "v": 43
    },
    {
      "midi": 65,
      "hit": false,
      "t": 100875,
      "d": 187.5,
      "v": 43
    },
    {
      "midi": 68,
      "hit": false,
      "t": 100875,
      "d": 187.5,
      "v": 43
    },
    {
      "midi": 73,
      "hit": false,
      "t": 101250,
      "d": 375,
      "v": 64
    },
    {
      "midi": 77,
      "hit": false,
      "t": 101250,
      "d": 375,
      "v": 64
    },
    {
      "midi": 56,
      "hit": false,
      "t": 101250,
      "d": 750,
      "v": 64
    },
    {
      "midi": 61,
      "hit": false,
      "t": 101250,
      "d": 187.5,
      "v": 43
    },
    {
      "midi": 65,
      "hit": false,
      "t": 101250,
      "d": 187.5,
      "v": 43
    },
    {
      "midi": 68,
      "hit": false,
      "t": 101250,
      "d": 187.5,
      "v": 43
    },
    {
      "midi": 44,
      "hit": false,
      "t": 101250,
      "d": 750,
      "v": 43
    },
    {
      "midi": 68,
      "hit": false,
      "t": 101625,
      "d": 375,
      "v": 64
    },
    {
      "midi": 61,
      "hit": false,
      "t": 101625,
      "d": 187.5,
      "v": 43
    },
    {
      "midi": 65,
      "hit": false,
      "t": 101625,
      "d": 187.5,
      "v": 43
    },
    {
      "midi": 68,
      "hit": false,
      "t": 101625,
      "d": 187.5,
      "v": 43
    },
    {
      "midi": 54,
      "hit": false,
      "t": 102000,
      "d": 1500,
      "v": 64
    },
    {
      "midi": 59,
      "hit": false,
      "t": 102000,
      "d": 187.5,
      "v": 43
    },
    {
      "midi": 63,
      "hit": false,
      "t": 102000,
      "d": 187.5,
      "v": 43
    },
    {
      "midi": 66,
      "hit": false,
      "t": 102000,
      "d": 187.5,
      "v": 43
    },
    {
      "midi": 42,
      "hit": false,
      "t": 102000,
      "d": 1500,
      "v": 43
    },
    {
      "midi": 66,
      "hit": false,
      "t": 102375,
      "d": 375,
      "v": 64
    },
    {
      "midi": 59,
      "hit": false,
      "t": 102375,
      "d": 187.5,
      "v": 43
    },
    {
      "midi": 63,
      "hit": false,
      "t": 102375,
      "d": 187.5,
      "v": 43
    },
    {
      "midi": 66,
      "hit": false,
      "t": 102375,
      "d": 187.5,
      "v": 43
    },
    {
      "midi": 71,
      "hit": false,
      "t": 102750,
      "d": 375,
      "v": 64
    },
    {
      "midi": 75,
      "hit": false,
      "t": 102750,
      "d": 375,
      "v": 64
    },
    {
      "midi": 59,
      "hit": false,
      "t": 102750,
      "d": 187.5,
      "v": 43
    },
    {
      "midi": 63,
      "hit": false,
      "t": 102750,
      "d": 187.5,
      "v": 43
    },
    {
      "midi": 66,
      "hit": false,
      "t": 102750,
      "d": 187.5,
      "v": 43
    },
    {
      "midi": 66,
      "hit": false,
      "t": 103125,
      "d": 375,
      "v": 64
    },
    {
      "midi": 59,
      "hit": false,
      "t": 103125,
      "d": 187.5,
      "v": 43
    },
    {
      "midi": 63,
      "hit": false,
      "t": 103125,
      "d": 187.5,
      "v": 43
    },
    {
      "midi": 66,
      "hit": false,
      "t": 103125,
      "d": 187.5,
      "v": 43
    },
    {
      "midi": 56,
      "hit": false,
      "t": 103500,
      "d": 1500,
      "v": 64
    },
    {
      "midi": 59,
      "hit": false,
      "t": 103500,
      "d": 187.5,
      "v": 43
    },
    {
      "midi": 63,
      "hit": false,
      "t": 103500,
      "d": 187.5,
      "v": 43
    },
    {
      "midi": 66,
      "hit": false,
      "t": 103500,
      "d": 187.5,
      "v": 43
    },
    {
      "midi": 44,
      "hit": false,
      "t": 103500,
      "d": 1500,
      "v": 43
    },
    {
      "midi": 66,
      "hit": false,
      "t": 103875,
      "d": 375,
      "v": 64
    },
    {
      "midi": 59,
      "hit": false,
      "t": 103875,
      "d": 187.5,
      "v": 43
    },
    {
      "midi": 63,
      "hit": false,
      "t": 103875,
      "d": 187.5,
      "v": 43
    },
    {
      "midi": 66,
      "hit": false,
      "t": 103875,
      "d": 187.5,
      "v": 43
    },
    {
      "midi": 71,
      "hit": false,
      "t": 104250,
      "d": 375,
      "v": 64
    },
    {
      "midi": 75,
      "hit": false,
      "t": 104250,
      "d": 375,
      "v": 64
    },
    {
      "midi": 78,
      "hit": false,
      "t": 104250,
      "d": 375,
      "v": 64
    },
    {
      "midi": 59,
      "hit": false,
      "t": 104250,
      "d": 187.5,
      "v": 43
    },
    {
      "midi": 63,
      "hit": false,
      "t": 104250,
      "d": 187.5,
      "v": 43
    },
    {
      "midi": 66,
      "hit": false,
      "t": 104250,
      "d": 187.5,
      "v": 43
    },
    {
      "midi": 66,
      "hit": false,
      "t": 104625,
      "d": 375,
      "v": 64
    },
    {
      "midi": 59,
      "hit": false,
      "t": 104625,
      "d": 187.5,
      "v": 43
    },
    {
      "midi": 63,
      "hit": false,
      "t": 104625,
      "d": 187.5,
      "v": 43
    },
    {
      "midi": 66,
      "hit": false,
      "t": 104625,
      "d": 187.5,
      "v": 43
    },
    {
      "midi": 53,
      "hit": false,
      "t": 105000,
      "d": 1500,
      "v": 64
    },
    {
      "midi": 56,
      "hit": false,
      "t": 105000,
      "d": 187.5,
      "v": 43
    },
    {
      "midi": 61,
      "hit": false,
      "t": 105000,
      "d": 187.5,
      "v": 43
    },
    {
      "midi": 65,
      "hit": false,
      "t": 105000,
      "d": 187.5,
      "v": 43
    },
    {
      "midi": 41,
      "hit": false,
      "t": 105000,
      "d": 1500,
      "v": 43
    },
    {
      "midi": 68,
      "hit": false,
      "t": 105375,
      "d": 375,
      "v": 64
    },
    {
      "midi": 56,
      "hit": false,
      "t": 105375,
      "d": 187.5,
      "v": 43
    },
    {
      "midi": 61,
      "hit": false,
      "t": 105375,
      "d": 187.5,
      "v": 43
    },
    {
      "midi": 65,
      "hit": false,
      "t": 105375,
      "d": 187.5,
      "v": 43
    },
    {
      "midi": 73,
      "hit": false,
      "t": 105750,
      "d": 375,
      "v": 64
    },
    {
      "midi": 77,
      "hit": false,
      "t": 105750,
      "d": 375,
      "v": 64
    },
    {
      "midi": 56,
      "hit": false,
      "t": 105750,
      "d": 187.5,
      "v": 43
    },
    {
      "midi": 61,
      "hit": false,
      "t": 105750,
      "d": 187.5,
      "v": 43
    },
    {
      "midi": 65,
      "hit": false,
      "t": 105750,
      "d": 187.5,
      "v": 43
    },
    {
      "midi": 68,
      "hit": false,
      "t": 106125,
      "d": 375,
      "v": 64
    },
    {
      "midi": 56,
      "hit": false,
      "t": 106125,
      "d": 187.5,
      "v": 43
    },
    {
      "midi": 61,
      "hit": false,
      "t": 106125,
      "d": 187.5,
      "v": 43
    },
    {
      "midi": 65,
      "hit": false,
      "t": 106125,
      "d": 187.5,
      "v": 43
    },
    {
      "midi": 49,
      "hit": false,
      "t": 106500,
      "d": 1500,
      "v": 64
    },
    {
      "midi": 56,
      "hit": false,
      "t": 106500,
      "d": 187.5,
      "v": 43
    },
    {
      "midi": 61,
      "hit": false,
      "t": 106500,
      "d": 187.5,
      "v": 43
    },
    {
      "midi": 64,
      "hit": false,
      "t": 106500,
      "d": 187.5,
      "v": 43
    },
    {
      "midi": 49,
      "hit": false,
      "t": 106500,
      "d": 1500,
      "v": 43
    },
    {
      "midi": 68,
      "hit": false,
      "t": 106875,
      "d": 375,
      "v": 64
    },
    {
      "midi": 56,
      "hit": false,
      "t": 106875,
      "d": 187.5,
      "v": 43
    },
    {
      "midi": 61,
      "hit": false,
      "t": 106875,
      "d": 187.5,
      "v": 43
    },
    {
      "midi": 64,
      "hit": false,
      "t": 106875,
      "d": 187.5,
      "v": 43
    },
    {
      "midi": 71,
      "hit": false,
      "t": 107250,
      "d": 375,
      "v": 64
    },
    {
      "midi": 73,
      "hit": false,
      "t": 107250,
      "d": 375,
      "v": 64
    },
    {
      "midi": 76,
      "hit": false,
      "t": 107250,
      "d": 375,
      "v": 64
    },
    {
      "midi": 56,
      "hit": false,
      "t": 107250,
      "d": 187.5,
      "v": 43
    },
    {
      "midi": 61,
      "hit": false,
      "t": 107250,
      "d": 187.5,
      "v": 43
    },
    {
      "midi": 64,
      "hit": false,
      "t": 107250,
      "d": 187.5,
      "v": 43
    },
    {
      "midi": 68,
      "hit": false,
      "t": 107625,
      "d": 375,
      "v": 64
    },
    {
      "midi": 56,
      "hit": false,
      "t": 107625,
      "d": 187.5,
      "v": 43
    },
    {
      "midi": 61,
      "hit": false,
      "t": 107625,
      "d": 187.5,
      "v": 43
    },
    {
      "midi": 64,
      "hit": false,
      "t": 107625,
      "d": 187.5,
      "v": 43
    },
    {
      "midi": 54,
      "hit": false,
      "t": 108000,
      "d": 1500,
      "v": 64
    },
    {
      "midi": 54,
      "hit": false,
      "t": 108000,
      "d": 187.5,
      "v": 43
    },
    {
      "midi": 57,
      "hit": false,
      "t": 108000,
      "d": 187.5,
      "v": 43
    },
    {
      "midi": 61,
      "hit": false,
      "t": 108000,
      "d": 187.5,
      "v": 43
    },
    {
      "midi": 42,
      "hit": false,
      "t": 108000,
      "d": 1500,
      "v": 43
    },
    {
      "midi": 66,
      "hit": false,
      "t": 108375,
      "d": 375,
      "v": 64
    },
    {
      "midi": 54,
      "hit": false,
      "t": 108375,
      "d": 187.5,
      "v": 43
    },
    {
      "midi": 57,
      "hit": false,
      "t": 108375,
      "d": 187.5,
      "v": 43
    },
    {
      "midi": 61,
      "hit": false,
      "t": 108375,
      "d": 187.5,
      "v": 43
    },
    {
      "midi": 69,
      "hit": false,
      "t": 108750,
      "d": 375,
      "v": 64
    },
    {
      "midi": 73,
      "hit": false,
      "t": 108750,
      "d": 375,
      "v": 64
    },
    {
      "midi": 76,
      "hit": false,
      "t": 108750,
      "d": 375,
      "v": 64
    },
    {
      "midi": 54,
      "hit": false,
      "t": 108750,
      "d": 187.5,
      "v": 43
    },
    {
      "midi": 57,
      "hit": false,
      "t": 108750,
      "d": 187.5,
      "v": 43
    },
    {
      "midi": 61,
      "hit": false,
      "t": 108750,
      "d": 187.5,
      "v": 43
    },
    {
      "midi": 66,
      "hit": false,
      "t": 109125,
      "d": 375,
      "v": 64
    },
    {
      "midi": 54,
      "hit": false,
      "t": 109125,
      "d": 187.5,
      "v": 43
    },
    {
      "midi": 57,
      "hit": false,
      "t": 109125,
      "d": 187.5,
      "v": 43
    },
    {
      "midi": 61,
      "hit": false,
      "t": 109125,
      "d": 187.5,
      "v": 43
    },
    {
      "midi": 59,
      "hit": false,
      "t": 109500,
      "d": 1312.5,
      "v": 64
    },
    {
      "midi": 54,
      "hit": false,
      "t": 109500,
      "d": 187.5,
      "v": 43
    },
    {
      "midi": 59,
      "hit": false,
      "t": 109500,
      "d": 187.5,
      "v": 43
    },
    {
      "midi": 63,
      "hit": false,
      "t": 109500,
      "d": 187.5,
      "v": 43
    },
    {
      "midi": 47,
      "hit": false,
      "t": 109500,
      "d": 1500,
      "v": 43
    },
    {
      "midi": 66,
      "hit": false,
      "t": 109875,
      "d": 375,
      "v": 64
    },
    {
      "midi": 54,
      "hit": false,
      "t": 109875,
      "d": 187.5,
      "v": 43
    },
    {
      "midi": 59,
      "hit": false,
      "t": 109875,
      "d": 187.5,
      "v": 43
    },
    {
      "midi": 63,
      "hit": false,
      "t": 109875,
      "d": 187.5,
      "v": 43
    },
    {
      "midi": 69,
      "hit": false,
      "t": 110250,
      "d": 375,
      "v": 64
    },
    {
      "midi": 75,
      "hit": false,
      "t": 110250,
      "d": 375,
      "v": 64
    },
    {
      "midi": 78,
      "hit": false,
      "t": 110250,
      "d": 375,
      "v": 64
    },
    {
      "midi": 54,
      "hit": false,
      "t": 110250,
      "d": 187.5,
      "v": 43
    },
    {
      "midi": 59,
      "hit": false,
      "t": 110250,
      "d": 187.5,
      "v": 43
    },
    {
      "midi": 63,
      "hit": false,
      "t": 110250,
      "d": 187.5,
      "v": 43
    },
    {
      "midi": 66,
      "hit": false,
      "t": 110625,
      "d": 375,
      "v": 64
    },
    {
      "midi": 54,
      "hit": false,
      "t": 110625,
      "d": 187.5,
      "v": 43
    },
    {
      "midi": 59,
      "hit": false,
      "t": 110625,
      "d": 187.5,
      "v": 43
    },
    {
      "midi": 63,
      "hit": false,
      "t": 110625,
      "d": 187.5,
      "v": 43
    },
    {
      "midi": 56,
      "hit": false,
      "t": 111000,
      "d": 750,
      "v": 64
    },
    {
      "midi": 63,
      "hit": false,
      "t": 111000,
      "d": 93.75,
      "v": 43
    },
    {
      "midi": 59,
      "hit": false,
      "t": 111000,
      "d": 112.5,
      "v": 43
    },
    {
      "midi": 56,
      "hit": false,
      "t": 111000,
      "d": 156.25,
      "v": 43
    },
    {
      "midi": 44,
      "hit": false,
      "t": 111000,
      "d": 1000,
      "v": 43
    },
    {
      "midi": 68,
      "hit": false,
      "t": 111375,
      "d": 562.5,
      "v": 64
    },
    {
      "midi": 59,
      "hit": false,
      "t": 111375,
      "d": 125,
      "v": 43
    },
    {
      "midi": 56,
      "hit": false,
      "t": 111375,
      "d": 137.5,
      "v": 43
    },
    {
      "midi": 63,
      "hit": false,
      "t": 111375,
      "d": 143.75,
      "v": 43
    },
    {
      "midi": 71,
      "hit": false,
      "t": 111750,
      "d": 375,
      "v": 64
    },
    {
      "midi": 75,
      "hit": false,
      "t": 111750,
      "d": 375,
      "v": 64
    },
    {
      "midi": 78,
      "hit": false,
      "t": 111750,
      "d": 375,
      "v": 64
    },
    {
      "midi": 59,
      "hit": false,
      "t": 111750,
      "d": 131.25,
      "v": 43
    },
    {
      "midi": 56,
      "hit": false,
      "t": 111750,
      "d": 150,
      "v": 43
    },
    {
      "midi": 63,
      "hit": false,
      "t": 111750,
      "d": 156.25,
      "v": 43
    },
    {
      "midi": 68,
      "hit": false,
      "t": 112125,
      "d": 375,
      "v": 64
    },
    {
      "midi": 63,
      "hit": false,
      "t": 112125,
      "d": 106.25,
      "v": 43
    },
    {
      "midi": 59,
      "hit": false,
      "t": 112125,
      "d": 137.5,
      "v": 43
    },
    {
      "midi": 56,
      "hit": false,
      "t": 112125,
      "d": 162.5,
      "v": 43
    },
    {
      "midi": 44,
      "hit": false,
      "t": 112125,
      "d": 381.25,
      "v": 43
    },
    {
      "midi": 49,
      "hit": false,
      "t": 112500,
      "d": 1500,
      "v": 64
    },
    {
      "midi": 61,
      "hit": false,
      "t": 112500,
      "d": 131.25,
      "v": 43
    },
    {
      "midi": 56,
      "hit": false,
      "t": 112500,
      "d": 150,
      "v": 43
    },
    {
      "midi": 64,
      "hit": false,
      "t": 112500,
      "d": 162.5,
      "v": 43
    },
    {
      "midi": 49,
      "hit": false,
      "t": 112500,
      "d": 893.75,
      "v": 43
    },
    {
      "midi": 68,
      "hit": false,
      "t": 112875,
      "d": 375,
      "v": 64
    },
    {
      "midi": 56,
      "hit": false,
      "t": 112875,
      "d": 112.5,
      "v": 43
    },
    {
      "midi": 64,
      "hit": false,
      "t": 112875,
      "d": 112.5,
      "v": 43
    },
    {
      "midi": 61,
      "hit": false,
      "t": 112875,
      "d": 125,
      "v": 43
    },
    {
      "midi": 71,
      "hit": false,
      "t": 113250,
      "d": 375,
      "v": 64
    },
    {
      "midi": 73,
      "hit": false,
      "t": 113250,
      "d": 375,
      "v": 64
    },
    {
      "midi": 76,
      "hit": false,
      "t": 113250,
      "d": 375,
      "v": 64
    },
    {
      "midi": 64,
      "hit": false,
      "t": 113250,
      "d": 100,
      "v": 43
    },
    {
      "midi": 56,
      "hit": false,
      "t": 113250,
      "d": 106.25,
      "v": 43
    },
    {
      "midi": 61,
      "hit": false,
      "t": 113250,
      "d": 125,
      "v": 43
    },
    {
      "midi": 68,
      "hit": false,
      "t": 113625,
      "d": 375,
      "v": 64
    },
    {
      "midi": 64,
      "hit": false,
      "t": 113625,
      "d": 87.5,
      "v": 43
    },
    {
      "midi": 61,
      "hit": false,
      "t": 113625,
      "d": 93.75,
      "v": 43
    },
    {
      "midi": 56,
      "hit": false,
      "t": 113625,
      "d": 106.25,
      "v": 43
    },
    {
      "midi": 49,
      "hit": false,
      "t": 113625,
      "d": 293.75,
      "v": 43
    },
    {
      "midi": 51,
      "hit": false,
      "t": 114000,
      "d": 1500,
      "v": 64
    },
    {
      "midi": 60,
      "hit": false,
      "t": 114000,
      "d": 175,
      "v": 43
    },
    {
      "midi": 63,
      "hit": false,
      "t": 114000,
      "d": 175,
      "v": 43
    },
    {
      "midi": 56,
      "hit": false,
      "t": 114000,
      "d": 206.25,
      "v": 43
    },
    {
      "midi": 51,
      "hit": false,
      "t": 114000,
      "d": 950,
      "v": 43
    },
    {
      "midi": 63,
      "hit": false,
      "t": 114375,
      "d": 375,
      "v": 64
    },
    {
      "midi": 63,
      "hit": false,
      "t": 114375,
      "d": 143.75,
      "v": 43
    },
    {
      "midi": 60,
      "hit": false,
      "t": 114375,
      "d": 156.25,
      "v": 43
    },
    {
      "midi": 56,
      "hit": false,
      "t": 114375,
      "d": 206.25,
      "v": 43
    },
    {
      "midi": 68,
      "hit": false,
      "t": 114750,
      "d": 375,
      "v": 64
    },
    {
      "midi": 72,
      "hit": false,
      "t": 114750,
      "d": 375,
      "v": 64
    },
    {
      "midi": 60,
      "hit": false,
      "t": 114750,
      "d": 131.25,
      "v": 43
    },
    {
      "midi": 63,
      "hit": false,
      "t": 114750,
      "d": 131.25,
      "v": 43
    },
    {
      "midi": 56,
      "hit": false,
      "t": 114750,
      "d": 168.75,
      "v": 43
    },
    {
      "midi": 75,
      "hit": false,
      "t": 114756.25,
      "d": 337.5,
      "v": 64
    },
    {
      "midi": 63,
      "hit": false,
      "t": 115125,
      "d": 375,
      "v": 64
    },
    {
      "midi": 60,
      "hit": false,
      "t": 115125,
      "d": 93.75,
      "v": 43
    },
    {
      "midi": 63,
      "hit": false,
      "t": 115125,
      "d": 125,
      "v": 43
    },
    {
      "midi": 56,
      "hit": false,
      "t": 115125,
      "d": 143.75,
      "v": 43
    },
    {
      "midi": 51,
      "hit": false,
      "t": 115125,
      "d": 387.5,
      "v": 43
    },
    {
      "midi": 53,
      "hit": false,
      "t": 115500,
      "d": 1500,
      "v": 64
    },
    {
      "midi": 61,
      "hit": false,
      "t": 115500,
      "d": 106.25,
      "v": 43
    },
    {
      "midi": 65,
      "hit": false,
      "t": 115500,
      "d": 143.75,
      "v": 43
    },
    {
      "midi": 56,
      "hit": false,
      "t": 115500,
      "d": 150,
      "v": 43
    },
    {
      "midi": 53,
      "hit": false,
      "t": 115500,
      "d": 893.75,
      "v": 43
    },
    {
      "midi": 65,
      "hit": false,
      "t": 115875,
      "d": 375,
      "v": 64
    },
    {
      "midi": 61,
      "hit": false,
      "t": 115875,
      "d": 93.75,
      "v": 43
    },
    {
      "midi": 56,
      "hit": false,
      "t": 115875,
      "d": 131.25,
      "v": 43
    },
    {
      "midi": 65,
      "hit": false,
      "t": 115875,
      "d": 150,
      "v": 43
    },
    {
      "midi": 68,
      "hit": false,
      "t": 116250,
      "d": 375,
      "v": 64
    },
    {
      "midi": 73,
      "hit": false,
      "t": 116250,
      "d": 375,
      "v": 64
    },
    {
      "midi": 61,
      "hit": false,
      "t": 116250,
      "d": 100,
      "v": 43
    },
    {
      "midi": 56,
      "hit": false,
      "t": 116250,
      "d": 106.25,
      "v": 43
    },
    {
      "midi": 65,
      "hit": false,
      "t": 116250,
      "d": 131.25,
      "v": 43
    },
    {
      "midi": 77,
      "hit": false,
      "t": 116262.5,
      "d": 337.5,
      "v": 64
    },
    {
      "midi": 65,
      "hit": false,
      "t": 116625,
      "d": 375,
      "v": 64
    },
    {
      "midi": 56,
      "hit": false,
      "t": 116625,
      "d": 93.75,
      "v": 43
    },
    {
      "midi": 61,
      "hit": false,
      "t": 116625,
      "d": 100,
      "v": 43
    },
    {
      "midi": 65,
      "hit": false,
      "t": 116625,
      "d": 125,
      "v": 43
    },
    {
      "midi": 53,
      "hit": false,
      "t": 116625,
      "d": 387.5,
      "v": 43
    },
    {
      "midi": 51,
      "hit": false,
      "t": 117000,
      "d": 1500,
      "v": 64
    },
    {
      "midi": 60,
      "hit": false,
      "t": 117000,
      "d": 93.75,
      "v": 43
    },
    {
      "midi": 63,
      "hit": false,
      "t": 117000,
      "d": 106.25,
      "v": 43
    },
    {
      "midi": 56,
      "hit": false,
      "t": 117000,
      "d": 112.5,
      "v": 43
    },
    {
      "midi": 51,
      "hit": false,
      "t": 117000,
      "d": 918.75,
      "v": 43
    },
    {
      "midi": 63,
      "hit": false,
      "t": 117375,
      "d": 375,
      "v": 64
    },
    {
      "midi": 60,
      "hit": false,
      "t": 117375,
      "d": 81.25,
      "v": 43
    },
    {
      "midi": 63,
      "hit": false,
      "t": 117375,
      "d": 106.25,
      "v": 43
    },
    {
      "midi": 56,
      "hit": false,
      "t": 117375,
      "d": 118.75,
      "v": 43
    },
    {
      "midi": 68,
      "hit": false,
      "t": 117750,
      "d": 375,
      "v": 64
    },
    {
      "midi": 72,
      "hit": false,
      "t": 117750,
      "d": 375,
      "v": 64
    },
    {
      "midi": 60,
      "hit": false,
      "t": 117750,
      "d": 100,
      "v": 43
    },
    {
      "midi": 63,
      "hit": false,
      "t": 117750,
      "d": 100,
      "v": 43
    },
    {
      "midi": 56,
      "hit": false,
      "t": 117750,
      "d": 112.5,
      "v": 43
    },
    {
      "midi": 75,
      "hit": false,
      "t": 117768.75,
      "d": 350,
      "v": 64
    },
    {
      "midi": 63,
      "hit": false,
      "t": 118125,
      "d": 375,
      "v": 64
    },
    {
      "midi": 60,
      "hit": false,
      "t": 118125,
      "d": 81.25,
      "v": 43
    },
    {
      "midi": 63,
      "hit": false,
      "t": 118125,
      "d": 100,
      "v": 43
    },
    {
      "midi": 56,
      "hit": false,
      "t": 118125,
      "d": 106.25,
      "v": 43
    },
    {
      "midi": 51,
      "hit": false,
      "t": 118125,
      "d": 387.5,
      "v": 43
    },
    {
      "midi": 53,
      "hit": false,
      "t": 118500,
      "d": 1500,
      "v": 64
    },
    {
      "midi": 61,
      "hit": false,
      "t": 118500,
      "d": 87.5,
      "v": 43
    },
    {
      "midi": 56,
      "hit": false,
      "t": 118500,
      "d": 93.75,
      "v": 43
    },
    {
      "midi": 65,
      "hit": false,
      "t": 118500,
      "d": 118.75,
      "v": 43
    },
    {
      "midi": 53,
      "hit": false,
      "t": 118500,
      "d": 1000,
      "v": 43
    },
    {
      "midi": 65,
      "hit": false,
      "t": 118875,
      "d": 375,
      "v": 64
    },
    {
      "midi": 61,
      "hit": false,
      "t": 118875,
      "d": 87.5,
      "v": 43
    },
    {
      "midi": 56,
      "hit": false,
      "t": 118875,
      "d": 93.75,
      "v": 43
    },
    {
      "midi": 65,
      "hit": false,
      "t": 118875,
      "d": 125,
      "v": 43
    },
    {
      "midi": 77,
      "hit": false,
      "t": 119250,
      "d": 368.75,
      "v": 64
    },
    {
      "midi": 68,
      "hit": false,
      "t": 119250,
      "d": 375,
      "v": 64
    },
    {
      "midi": 73,
      "hit": false,
      "t": 119250,
      "d": 375,
      "v": 64
    },
    {
      "midi": 61,
      "hit": false,
      "t": 119250,
      "d": 87.5,
      "v": 43
    },
    {
      "midi": 56,
      "hit": false,
      "t": 119250,
      "d": 93.75,
      "v": 43
    },
    {
      "midi": 65,
      "hit": false,
      "t": 119250,
      "d": 112.5,
      "v": 43
    },
    {
      "midi": 65,
      "hit": false,
      "t": 119625,
      "d": 375,
      "v": 64
    },
    {
      "midi": 61,
      "hit": false,
      "t": 119625,
      "d": 100,
      "v": 43
    },
    {
      "midi": 56,
      "hit": false,
      "t": 119625,
      "d": 112.5,
      "v": 43
    },
    {
      "midi": 65,
      "hit": false,
      "t": 119625,
      "d": 125,
      "v": 43
    },
    {
      "midi": 53,
      "hit": false,
      "t": 119625,
      "d": 350,
      "v": 43
    },
    {
      "midi": 51,
      "hit": false,
      "t": 120000,
      "d": 1312.5,
      "v": 64
    },
    {
      "midi": 60,
      "hit": false,
      "t": 120000,
      "d": 81.25,
      "v": 43
    },
    {
      "midi": 56,
      "hit": false,
      "t": 120000,
      "d": 87.5,
      "v": 43
    },
    {
      "midi": 63,
      "hit": false,
      "t": 120000,
      "d": 93.75,
      "v": 43
    },
    {
      "midi": 51,
      "hit": false,
      "t": 120000,
      "d": 1487.5,
      "v": 43
    },
    {
      "midi": 63,
      "hit": false,
      "t": 120375,
      "d": 375,
      "v": 64
    },
    {
      "midi": 60,
      "hit": false,
      "t": 120375,
      "d": 81.25,
      "v": 64
    },
    {
      "midi": 56,
      "hit": false,
      "t": 120375,
      "d": 93.75,
      "v": 64
    },
    {
      "midi": 63,
      "hit": false,
      "t": 120375,
      "d": 93.75,
      "v": 64
    },
    {
      "midi": 68,
      "hit": false,
      "t": 120750,
      "d": 375,
      "v": 64
    },
    {
      "midi": 72,
      "hit": false,
      "t": 120750,
      "d": 375,
      "v": 64
    },
    {
      "midi": 75,
      "hit": false,
      "t": 120750,
      "d": 375,
      "v": 64
    },
    {
      "midi": 56,
      "hit": false,
      "t": 120750,
      "d": 93.75,
      "v": 64
    },
    {
      "midi": 60,
      "hit": false,
      "t": 120750,
      "d": 100,
      "v": 64
    },
    {
      "midi": 63,
      "hit": false,
      "t": 120750,
      "d": 112.5,
      "v": 64
    },
    {
      "midi": 63,
      "hit": false,
      "t": 121125,
      "d": 375,
      "v": 64
    },
    {
      "midi": 60,
      "hit": false,
      "t": 121125,
      "d": 81.25,
      "v": 64
    },
    {
      "midi": 56,
      "hit": false,
      "t": 121125,
      "d": 100,
      "v": 64
    },
    {
      "midi": 63,
      "hit": false,
      "t": 121125,
      "d": 100,
      "v": 64
    },
    {
      "midi": 40,
      "hit": false,
      "t": 121500,
      "d": 187.5,
      "v": 64
    },
    {
      "midi": 42,
      "hit": false,
      "t": 121687.5,
      "d": 375,
      "v": 64
    },
    {
      "midi": 44,
      "hit": false,
      "t": 122062.5,
      "d": 187.5,
      "v": 64
    },
    {
      "midi": 46,
      "hit": false,
      "t": 122250,
      "d": 375,
      "v": 64
    },
    {
      "midi": 47,
      "hit": false,
      "t": 122625,
      "d": 375,
      "v": 64
    }
  ]
}