{
  "jsonPath": "Soundtracks/Video Game Music/Sonic the Hedgehog 3/sonic-the-hedgehog-3-finalbossduet.json",
  "path": "Soundtracks\\Video Game Music\\Sonic the Hedgehog 3\\Sonic_the_Hedgehog_3_FinalBossDuet.mid",
  "name": "Sonic_the_Hedgehog_3_FinalBossDuet",
  "difficulty": "Advanced",
  "bpm": 92.00012880018032,
  "notes": [
    {
      "midi": 55,
      "hit": false,
      "t": 0,
      "d": 1304.346,
      "v": 101
    },
    {
      "midi": 59,
      "hit": false,
      "t": 0,
      "d": 1304.346,
      "v": 101
    },
    {
      "midi": 40,
      "hit": false,
      "t": 0,
      "d": 1304.346,
      "v": 101
    },
    {
      "midi": 52,
      "hit": false,
      "t": 0,
      "d": 1304.346,
      "v": 101
    },
    {
      "midi": 58,
      "hit": false,
      "t": 1304.346,
      "d": 489.12975000000006,
      "v": 101
    },
    {
      "midi": 61,
      "hit": false,
      "t": 1304.346,
      "d": 489.12975000000006,
      "v": 101
    },
    {
      "midi": 42,
      "hit": false,
      "t": 1304.346,
      "d": 489.12975000000006,
      "v": 101
    },
    {
      "midi": 54,
      "hit": false,
      "t": 1304.346,
      "d": 489.12975000000006,
      "v": 101
    },
    {
      "midi": 57,
      "hit": false,
      "t": 1793.47575,
      "d": 815.21625,
      "v": 101
    },
    {
      "midi": 60,
      "hit": false,
      "t": 1793.47575,
      "d": 815.21625,
      "v": 101
    },
    {
      "midi": 41,
      "hit": false,
      "t": 1793.47575,
      "d": 815.21625,
      "v": 101
    },
    {
      "midi": 53,
      "hit": false,
      "t": 1793.47575,
      "d": 815.21625,
      "v": 101
    },
    {
      "midi": 55,
      "hit": false,
      "t": 2608.692,
      "d": 1304.346,
      "v": 101
    },
    {
      "midi": 59,
      "hit": false,
      "t": 2608.692,
      "d": 1304.346,
      "v": 101
    },
    {
      "midi": 40,
      "hit": false,
      "t": 2608.692,
      "d": 1304.346,
      "v": 101
    },
    {
      "midi": 52,
      "hit": false,
      "t": 2608.692,
      "d": 1304.346,
      "v": 101
    },
    {
      "midi": 64,
      "hit": false,
      "t": 3913.038,
      "d": 54.13545410156257,
      "v": 101
    },
    {
      "midi": 58,
      "hit": false,
      "t": 3913.038,
      "d": 489.1297499999996,
      "v": 101
    },
    {
      "midi": 61,
      "hit": false,
      "t": 3913.038,
      "d": 489.1297499999996,
      "v": 101
    },
    {
      "midi": 42,
      "hit": false,
      "t": 3913.038,
      "d": 489.1297499999996,
      "v": 101
    },
    {
      "midi": 54,
      "hit": false,
      "t": 3913.038,
      "d": 489.1297499999996,
      "v": 101
    },
    {
      "midi": 65,
      "hit": false,
      "t": 3967.1734541015626,
      "d": 54.772341796875025,
      "v": 101
    },
    {
      "midi": 67,
      "hit": false,
      "t": 4021.9457958984376,
      "d": 54.13545410156257,
      "v": 101
    },
    {
      "midi": 65,
      "hit": false,
      "t": 4076.08125,
      "d": 54.13545410156257,
      "v": 101
    },
    {
      "midi": 67,
      "hit": false,
      "t": 4130.216704101563,
      "d": 54.77234179687457,
      "v": 101
    },
    {
      "midi": 69,
      "hit": false,
      "t": 4184.989045898437,
      "d": 54.13545410156257,
      "v": 101
    },
    {
      "midi": 67,
      "hit": false,
      "t": 4239.1245,
      "d": 54.13545410156257,
      "v": 101
    },
    {
      "midi": 69,
      "hit": false,
      "t": 4293.2599541015625,
      "d": 54.77234179687457,
      "v": 101
    },
    {
      "midi": 71,
      "hit": false,
      "t": 4348.032295898437,
      "d": 54.13545410156257,
      "v": 101
    },
    {
      "midi": 67,
      "hit": false,
      "t": 4402.16775,
      "d": 54.13545410156257,
      "v": 101
    },
    {
      "midi": 57,
      "hit": false,
      "t": 4402.16775,
      "d": 815.2162500000004,
      "v": 101
    },
    {
      "midi": 60,
      "hit": false,
      "t": 4402.16775,
      "d": 815.2162500000004,
      "v": 101
    },
    {
      "midi": 41,
      "hit": false,
      "t": 4402.16775,
      "d": 815.2162500000004,
      "v": 101
    },
    {
      "midi": 53,
      "hit": false,
      "t": 4402.16775,
      "d": 815.2162500000004,
      "v": 101
    },
    {
      "midi": 69,
      "hit": false,
      "t": 4456.303204101562,
      "d": 54.77234179687457,
      "v": 101
    },
    {
      "midi": 71,
      "hit": false,
      "t": 4511.075545898437,
      "d": 54.13545410156257,
      "v": 101
    },
    {
      "midi": 69,
      "hit": false,
      "t": 4565.210999999999,
      "d": 54.13545410156257,
      "v": 101
    },
    {
      "midi": 71,
      "hit": false,
      "t": 4619.346454101562,
      "d": 54.77234179687457,
      "v": 101
    },
    {
      "midi": 72,
      "hit": false,
      "t": 4674.1187958984365,
      "d": 54.13545410156257,
      "v": 101
    },
    {
      "midi": 71,
      "hit": false,
      "t": 4728.254249999999,
      "d": 54.13545410156257,
      "v": 101
    },
    {
      "midi": 72,
      "hit": false,
      "t": 4782.389704101562,
      "d": 54.77234179687457,
      "v": 101
    },
    {
      "midi": 74,
      "hit": false,
      "t": 4837.162045898436,
      "d": 54.13545410156257,
      "v": 101
    },
    {
      "midi": 72,
      "hit": false,
      "t": 4891.297499999999,
      "d": 54.13545410156257,
      "v": 101
    },
    {
      "midi": 74,
      "hit": false,
      "t": 4945.432954101561,
      "d": 54.77234179687457,
      "v": 101
    },
    {
      "midi": 76,
      "hit": false,
      "t": 5000.205295898436,
      "d": 54.13545410156257,
      "v": 101
    },
    {
      "midi": 72,
      "hit": false,
      "t": 5054.3407499999985,
      "d": 54.13545410156257,
      "v": 101
    },
    {
      "midi": 74,
      "hit": false,
      "t": 5108.476204101561,
      "d": 54.77234179687457,
      "v": 101
    },
    {
      "midi": 76,
      "hit": false,
      "t": 5163.248545898436,
      "d": 54.13545410156257,
      "v": 101
    },
    {
      "midi": 79,
      "hit": false,
      "t": 5217.383999999998,
      "d": 1304.3459999999995,
      "v": 101
    },
    {
      "midi": 55,
      "hit": false,
      "t": 5217.384,
      "d": 1304.3459999999995,
      "v": 101
    },
    {
      "midi": 59,
      "hit": false,
      "t": 5217.384,
      "d": 1304.3459999999995,
      "v": 101
    },
    {
      "midi": 40,
      "hit": false,
      "t": 5217.384,
      "d": 1304.3459999999995,
      "v": 101
    },
    {
      "midi": 52,
      "hit": false,
      "t": 5217.384,
      "d": 1304.3459999999995,
      "v": 101
    },
    {
      "midi": 58,
      "hit": false,
      "t": 6521.73,
      "d": 489.12975000000006,
      "v": 101
    },
    {
      "midi": 61,
      "hit": false,
      "t": 6521.73,
      "d": 489.12975000000006,
      "v": 101
    },
    {
      "midi": 42,
      "hit": false,
      "t": 6521.73,
      "d": 489.12975000000006,
      "v": 101
    },
    {
      "midi": 54,
      "hit": false,
      "t": 6521.73,
      "d": 489.12975000000006,
      "v": 101
    },
    {
      "midi": 57,
      "hit": false,
      "t": 7010.85975,
      "d": 815.2162499999995,
      "v": 101
    },
    {
      "midi": 60,
      "hit": false,
      "t": 7010.85975,
      "d": 815.2162499999995,
      "v": 101
    },
    {
      "midi": 41,
      "hit": false,
      "t": 7010.85975,
      "d": 815.2162499999995,
      "v": 101
    },
    {
      "midi": 53,
      "hit": false,
      "t": 7010.85975,
      "d": 815.2162499999995,
      "v": 101
    },
    {
      "midi": 55,
      "hit": false,
      "t": 7826.075999999999,
      "d": 1304.3459999999995,
      "v": 101
    },
    {
      "midi": 59,
      "hit": false,
      "t": 7826.075999999999,
      "d": 1304.3459999999995,
      "v": 101
    },
    {
      "midi": 40,
      "hit": false,
      "t": 7826.075999999999,
      "d": 1304.3459999999995,
      "v": 101
    },
    {
      "midi": 52,
      "hit": false,
      "t": 7826.075999999999,
      "d": 1304.3459999999995,
      "v": 101
    },
    {
      "midi": 64,
      "hit": false,
      "t": 9130.421999999999,
      "d": 54.13545410156257,
      "v": 101
    },
    {
      "midi": 58,
      "hit": false,
      "t": 9130.421999999999,
      "d": 489.12975000000006,
      "v": 101
    },
    {
      "midi": 61,
      "hit": false,
      "t": 9130.421999999999,
      "d": 489.12975000000006,
      "v": 101
    },
    {
      "midi": 42,
      "hit": false,
      "t": 9130.421999999999,
      "d": 489.12975000000006,
      "v": 101
    },
    {
      "midi": 54,
      "hit": false,
      "t": 9130.421999999999,
      "d": 489.12975000000006,
      "v": 101
    },
    {
      "midi": 65,
      "hit": false,
      "t": 9184.557454101561,
      "d": 54.77234179687548,
      "v": 101
    },
    {
      "midi": 67,
      "hit": false,
      "t": 9239.329795898437,
      "d": 54.13545410156257,
      "v": 101
    },
    {
      "midi": 65,
      "hit": false,
      "t": 9293.46525,
      "d": 54.13545410156257,
      "v": 101
    },
    {
      "midi": 67,
      "hit": false,
      "t": 9347.600704101562,
      "d": 54.77234179687548,
      "v": 101
    },
    {
      "midi": 69,
      "hit": false,
      "t": 9402.373045898437,
      "d": 54.13545410156257,
      "v": 101
    },
    {
      "midi": 67,
      "hit": false,
      "t": 9456.5085,
      "d": 54.13545410156257,
      "v": 101
    },
    {
      "midi": 69,
      "hit": false,
      "t": 9510.643954101562,
      "d": 54.77234179687548,
      "v": 101
    },
    {
      "midi": 71,
      "hit": false,
      "t": 9565.416295898438,
      "d": 54.13545410156257,
      "v": 101
    },
    {
      "midi": 57,
      "hit": false,
      "t": 9619.551749999999,
      "d": 815.2162499999995,
      "v": 101
    },
    {
      "midi": 60,
      "hit": false,
      "t": 9619.551749999999,
      "d": 815.2162499999995,
      "v": 101
    },
    {
      "midi": 41,
      "hit": false,
      "t": 9619.551749999999,
      "d": 815.2162499999995,
      "v": 101
    },
    {
      "midi": 53,
      "hit": false,
      "t": 9619.551749999999,
      "d": 815.2162499999995,
      "v": 101
    },
    {
      "midi": 67,
      "hit": false,
      "t": 9619.55175,
      "d": 54.13545410156257,
      "v": 101
    },
    {
      "midi": 69,
      "hit": false,
      "t": 9673.687204101563,
      "d": 54.77234179687548,
      "v": 101
    },
    {
      "midi": 71,
      "hit": false,
      "t": 9728.459545898439,
      "d": 54.13545410156257,
      "v": 101
    },
    {
      "midi": 69,
      "hit": false,
      "t": 9782.595000000001,
      "d": 54.13545410156257,
      "v": 101
    },
    {
      "midi": 71,
      "hit": false,
      "t": 9836.730454101564,
      "d": 54.77234179687548,
      "v": 101
    },
    {
      "midi": 72,
      "hit": false,
      "t": 9891.50279589844,
      "d": 54.13545410156257,
      "v": 101
    },
    {
      "midi": 71,
      "hit": false,
      "t": 9945.638250000002,
      "d": 54.13545410156257,
      "v": 101
    },
    {
      "midi": 72,
      "hit": false,
      "t": 9999.773704101564,
      "d": 54.77234179687548,
      "v": 101
    },
    {
      "midi": 74,
      "hit": false,
      "t": 10054.54604589844,
      "d": 54.13545410156257,
      "v": 101
    },
    {
      "midi": 72,
      "hit": false,
      "t": 10108.681500000002,
      "d": 54.13545410156257,
      "v": 101
    },
    {
      "midi": 74,
      "hit": false,
      "t": 10162.816954101565,
      "d": 54.77234179687548,
      "v": 101
    },
    {
      "midi": 76,
      "hit": false,
      "t": 10217.58929589844,
      "d": 54.13545410156257,
      "v": 101
    },
    {
      "midi": 72,
      "hit": false,
      "t": 10271.724750000003,
      "d": 54.13545410156257,
      "v": 101
    },
    {
      "midi": 74,
      "hit": false,
      "t": 10325.860204101566,
      "d": 54.77234179687548,
      "v": 101
    },
    {
      "midi": 76,
      "hit": false,
      "t": 10380.632545898441,
      "d": 54.13545410156257,
      "v": 101
    },
    {
      "midi": 55,
      "hit": false,
      "t": 10434.767999999998,
      "d": 1304.3459999999995,
      "v": 101
    },
    {
      "midi": 59,
      "hit": false,
      "t": 10434.767999999998,
      "d": 1304.3459999999995,
      "v": 101
    },
    {
      "midi": 40,
      "hit": false,
      "t": 10434.767999999998,
      "d": 1304.3459999999995,
      "v": 101
    },
    {
      "midi": 52,
      "hit": false,
      "t": 10434.767999999998,
      "d": 1304.3459999999995,
      "v": 101
    },
    {
      "midi": 79,
      "hit": false,
      "t": 10434.768000000004,
      "d": 1304.3459999999995,
      "v": 101
    },
    {
      "midi": 55,
      "hit": false,
      "t": 11739.113999999998,
      "d": 1304.3459999999995,
      "v": 101
    },
    {
      "midi": 59,
      "hit": false,
      "t": 11739.113999999998,
      "d": 1304.3459999999995,
      "v": 101
    },
    {
      "midi": 40,
      "hit": false,
      "t": 11739.113999999998,
      "d": 163.04325000000063,
      "v": 101
    },
    {
      "midi": 76,
      "hit": false,
      "t": 11739.114,
      "d": 326.08649999999943,
      "v": 101
    },
    {
      "midi": 40,
      "hit": false,
      "t": 11902.157249999998,
      "d": 163.04325000000063,
      "v": 101
    },
    {
      "midi": 71,
      "hit": false,
      "t": 12065.200499999999,
      "d": 326.08649999999943,
      "v": 101
    },
    {
      "midi": 40,
      "hit": false,
      "t": 12065.200499999999,
      "d": 163.04325000000063,
      "v": 101
    },
    {
      "midi": 40,
      "hit": false,
      "t": 12228.24375,
      "d": 163.04325000000063,
      "v": 101
    },
    {
      "midi": 79,
      "hit": false,
      "t": 12391.286999999998,
      "d": 326.08649999999943,
      "v": 101
    },
    {
      "midi": 40,
      "hit": false,
      "t": 12391.287,
      "d": 163.04325000000063,
      "v": 101
    },
    {
      "midi": 40,
      "hit": false,
      "t": 12554.33025,
      "d": 163.04325000000063,
      "v": 101
    },
    {
      "midi": 74,
      "hit": false,
      "t": 12717.373499999998,
      "d": 326.08649999999943,
      "v": 101
    },
    {
      "midi": 40,
      "hit": false,
      "t": 12717.373500000002,
      "d": 163.04325000000063,
      "v": 101
    },
    {
      "midi": 40,
      "hit": false,
      "t": 12880.416750000002,
      "d": 163.04325000000063,
      "v": 101
    },
    {
      "midi": 78,
      "hit": false,
      "t": 13043.459999999997,
      "d": 326.08649999999943,
      "v": 101
    },
    {
      "midi": 58,
      "hit": false,
      "t": 13043.459999999997,
      "d": 489.12975000000006,
      "v": 101
    },
    {
      "midi": 61,
      "hit": false,
      "t": 13043.459999999997,
      "d": 489.12975000000006,
      "v": 101
    },
    {
      "midi": 42,
      "hit": false,
      "t": 13043.460000000003,
      "d": 163.04325000000063,
      "v": 101
    },
    {
      "midi": 42,
      "hit": false,
      "t": 13206.503250000003,
      "d": 163.04325000000063,
      "v": 101
    },
    {
      "midi": 73,
      "hit": false,
      "t": 13369.546499999997,
      "d": 326.08649999999943,
      "v": 101
    },
    {
      "midi": 42,
      "hit": false,
      "t": 13369.546500000004,
      "d": 163.04325000000063,
      "v": 101
    },
    {
      "midi": 57,
      "hit": false,
      "t": 13532.589749999997,
      "d": 815.2162499999995,
      "v": 101
    },
    {
      "midi": 60,
      "hit": false,
      "t": 13532.589749999997,
      "d": 815.2162499999995,
      "v": 101
    },
    {
      "midi": 41,
      "hit": false,
      "t": 13532.589750000005,
      "d": 163.04325000000063,
      "v": 101
    },
    {
      "midi": 65,
      "hit": false,
      "t": 13695.632999999996,
      "d": 326.08649999999943,
      "v": 101
    },
    {
      "midi": 41,
      "hit": false,
      "t": 13695.633000000005,
      "d": 163.04325000000063,
      "v": 101
    },
    {
      "midi": 41,
      "hit": false,
      "t": 13858.676250000006,
      "d": 163.04325000000063,
      "v": 101
    },
    {
      "midi": 77,
      "hit": false,
      "t": 14021.719499999996,
      "d": 326.08649999999943,
      "v": 101
    },
    {
      "midi": 41,
      "hit": false,
      "t": 14021.719500000007,
      "d": 163.04325000000063,
      "v": 101
    },
    {
      "midi": 41,
      "hit": false,
      "t": 14184.762750000007,
      "d": 163.04325000000063,
      "v": 101
    },
    {
      "midi": 76,
      "hit": false,
      "t": 14347.805999999995,
      "d": 326.08649999999943,
      "v": 101
    },
    {
      "midi": 55,
      "hit": false,
      "t": 14347.805999999997,
      "d": 1304.3459999999995,
      "v": 101
    },
    {
      "midi": 59,
      "hit": false,
      "t": 14347.805999999997,
      "d": 1304.3459999999995,
      "v": 101
    },
    {
      "midi": 40,
      "hit": false,
      "t": 14347.806000000008,
      "d": 163.04325000000063,
      "v": 101
    },
    {
      "midi": 40,
      "hit": false,
      "t": 14510.849250000008,
      "d": 163.04325000000063,
      "v": 101
    },
    {
      "midi": 71,
      "hit": false,
      "t": 14673.892499999994,
      "d": 326.08649999999943,
      "v": 101
    },
    {
      "midi": 40,
      "hit": false,
      "t": 14673.892500000009,
      "d": 163.04325000000063,
      "v": 101
    },
    {
      "midi": 40,
      "hit": false,
      "t": 14836.93575000001,
      "d": 163.04325000000063,
      "v": 101
    },
    {
      "midi": 79,
      "hit": false,
      "t": 14999.978999999994,
      "d": 326.08649999999943,
      "v": 101
    },
    {
      "midi": 40,
      "hit": false,
      "t": 14999.97900000001,
      "d": 163.04325000000063,
      "v": 101
    },
    {
      "midi": 40,
      "hit": false,
      "t": 15163.02225000001,
      "d": 163.04325000000063,
      "v": 101
    },
    {
      "midi": 74,
      "hit": false,
      "t": 15326.065499999993,
      "d": 326.08649999999943,
      "v": 101
    },
    {
      "midi": 40,
      "hit": false,
      "t": 15326.065500000012,
      "d": 163.04325000000063,
      "v": 101
    },
    {
      "midi": 40,
      "hit": false,
      "t": 15489.108750000012,
      "d": 163.04325000000063,
      "v": 101
    },
    {
      "midi": 78,
      "hit": false,
      "t": 15652.151999999993,
      "d": 326.08649999999943,
      "v": 101
    },
    {
      "midi": 58,
      "hit": false,
      "t": 15652.151999999996,
      "d": 489.12975000000006,
      "v": 101
    },
    {
      "midi": 61,
      "hit": false,
      "t": 15652.151999999996,
      "d": 489.12975000000006,
      "v": 101
    },
    {
      "midi": 42,
      "hit": false,
      "t": 15652.152000000013,
      "d": 163.04325000000063,
      "v": 101
    },
    {
      "midi": 42,
      "hit": false,
      "t": 15815.195250000013,
      "d": 163.04325000000063,
      "v": 101
    },
    {
      "midi": 73,
      "hit": false,
      "t": 15978.238499999992,
      "d": 326.08649999999943,
      "v": 101
    },
    {
      "midi": 42,
      "hit": false,
      "t": 15978.238500000014,
      "d": 163.04325000000063,
      "v": 101
    },
    {
      "midi": 57,
      "hit": false,
      "t": 16141.281749999996,
      "d": 815.2162499999995,
      "v": 101
    },
    {
      "midi": 60,
      "hit": false,
      "t": 16141.281749999996,
      "d": 815.2162499999995,
      "v": 101
    },
    {
      "midi": 41,
      "hit": false,
      "t": 16141.281750000015,
      "d": 163.04325000000063,
      "v": 101
    },
    {
      "midi": 65,
      "hit": false,
      "t": 16304.324999999992,
      "d": 326.08649999999943,
      "v": 101
    },
    {
      "midi": 41,
      "hit": false,
      "t": 16304.325000000015,
      "d": 163.0432499999988,
      "v": 101
    },
    {
      "midi": 41,
      "hit": false,
      "t": 16467.368250000014,
      "d": 163.0432499999988,
      "v": 101
    },
    {
      "midi": 77,
      "hit": false,
      "t": 16630.41149999999,
      "d": 326.08650000000125,
      "v": 101
    },
    {
      "midi": 41,
      "hit": false,
      "t": 16630.411500000013,
      "d": 163.0432499999988,
      "v": 101
    },
    {
      "midi": 41,
      "hit": false,
      "t": 16793.45475000001,
      "d": 163.0432499999988,
      "v": 101
    },
    {
      "midi": 76,
      "hit": false,
      "t": 16956.497999999992,
      "d": 326.08650000000125,
      "v": 101
    },
    {
      "midi": 55,
      "hit": false,
      "t": 16956.497999999996,
      "d": 1304.3460000000014,
      "v": 101
    },
    {
      "midi": 59,
      "hit": false,
      "t": 16956.497999999996,
      "d": 1304.3460000000014,
      "v": 101
    },
    {
      "midi": 40,
      "hit": false,
      "t": 16956.49800000001,
      "d": 163.0432499999988,
      "v": 101
    },
    {
      "midi": 40,
      "hit": false,
      "t": 17119.54125000001,
      "d": 163.0432499999988,
      "v": 101
    },
    {
      "midi": 71,
      "hit": false,
      "t": 17282.584499999994,
      "d": 326.08650000000125,
      "v": 101
    },
    {
      "midi": 40,
      "hit": false,
      "t": 17282.584500000008,
      "d": 163.0432499999988,
      "v": 101
    },
    {
      "midi": 40,
      "hit": false,
      "t": 17445.627750000007,
      "d": 163.0432499999988,
      "v": 101
    },
    {
      "midi": 79,
      "hit": false,
      "t": 17608.670999999995,
      "d": 326.08650000000125,
      "v": 101
    },
    {
      "midi": 40,
      "hit": false,
      "t": 17608.671000000006,
      "d": 163.0432499999988,
      "v": 101
    },
    {
      "midi": 40,
      "hit": false,
      "t": 17771.714250000005,
      "d": 163.0432499999988,
      "v": 101
    },
    {
      "midi": 74,
      "hit": false,
      "t": 17934.757499999996,
      "d": 326.08650000000125,
      "v": 101
    },
    {
      "midi": 40,
      "hit": false,
      "t": 17934.757500000003,
      "d": 163.0432499999988,
      "v": 101
    },
    {
      "midi": 40,
      "hit": false,
      "t": 18097.800750000002,
      "d": 163.0432499999988,
      "v": 101
    },
    {
      "midi": 78,
      "hit": false,
      "t": 18260.843999999997,
      "d": 326.08650000000125,
      "v": 101
    },
    {
      "midi": 58,
      "hit": false,
      "t": 18260.843999999997,
      "d": 489.12975000000006,
      "v": 101
    },
    {
      "midi": 61,
      "hit": false,
      "t": 18260.843999999997,
      "d": 489.12975000000006,
      "v": 101
    },
    {
      "midi": 42,
      "hit": false,
      "t": 18260.844,
      "d": 163.0432499999988,
      "v": 101
    },
    {
      "midi": 42,
      "hit": false,
      "t": 18423.88725,
      "d": 163.0432499999988,
      "v": 101
    },
    {
      "midi": 73,
      "hit": false,
      "t": 18586.9305,
      "d": 326.08650000000125,
      "v": 101
    },
    {
      "midi": 42,
      "hit": false,
      "t": 18586.9305,
      "d": 163.0432499999988,
      "v": 101
    },
    {
      "midi": 57,
      "hit": false,
      "t": 18749.973749999997,
      "d": 815.2162500000013,
      "v": 101
    },
    {
      "midi": 60,
      "hit": false,
      "t": 18749.973749999997,
      "d": 815.2162500000013,
      "v": 101
    },
    {
      "midi": 41,
      "hit": false,
      "t": 18749.973749999997,
      "d": 163.0432499999988,
      "v": 101
    },
    {
      "midi": 41,
      "hit": false,
      "t": 18913.016999999996,
      "d": 163.0432499999988,
      "v": 101
    },
    {
      "midi": 65,
      "hit": false,
      "t": 18913.017,
      "d": 326.08650000000125,
      "v": 101
    },
    {
      "midi": 41,
      "hit": false,
      "t": 19076.060249999995,
      "d": 163.0432499999988,
      "v": 101
    },
    {
      "midi": 41,
      "hit": false,
      "t": 19239.103499999994,
      "d": 163.0432499999988,
      "v": 101
    },
    {
      "midi": 77,
      "hit": false,
      "t": 19239.1035,
      "d": 326.08650000000125,
      "v": 101
    },
    {
      "midi": 41,
      "hit": false,
      "t": 19402.146749999993,
      "d": 163.0432499999988,
      "v": 101
    },
    {
      "midi": 40,
      "hit": false,
      "t": 19565.18999999999,
      "d": 163.0432499999988,
      "v": 101
    },
    {
      "midi": 55,
      "hit": false,
      "t": 19565.19,
      "d": 1304.3460000000014,
      "v": 101
    },
    {
      "midi": 59,
      "hit": false,
      "t": 19565.19,
      "d": 1304.3460000000014,
      "v": 101
    },
    {
      "midi": 76,
      "hit": false,
      "t": 19565.190000000002,
      "d": 326.08650000000125,
      "v": 101
    },
    {
      "midi": 40,
      "hit": false,
      "t": 19728.23324999999,
      "d": 163.0432499999988,
      "v": 101
    },
    {
      "midi": 40,
      "hit": false,
      "t": 19891.27649999999,
      "d": 163.0432499999988,
      "v": 101
    },
    {
      "midi": 71,
      "hit": false,
      "t": 19891.276500000004,
      "d": 326.08650000000125,
      "v": 101
    },
    {
      "midi": 40,
      "hit": false,
      "t": 20054.319749999988,
      "d": 163.0432499999988,
      "v": 101
    },
    {
      "midi": 40,
      "hit": false,
      "t": 20217.362999999987,
      "d": 163.0432499999988,
      "v": 101
    },
    {
      "midi": 79,
      "hit": false,
      "t": 20217.363000000005,
      "d": 326.08650000000125,
      "v": 101
    },
    {
      "midi": 40,
      "hit": false,
      "t": 20380.406249999985,
      "d": 163.0432499999988,
      "v": 101
    },
    {
      "midi": 40,
      "hit": false,
      "t": 20543.449499999984,
      "d": 163.0432499999988,
      "v": 101
    },
    {
      "midi": 74,
      "hit": false,
      "t": 20543.449500000006,
      "d": 326.08650000000125,
      "v": 101
    },
    {
      "midi": 40,
      "hit": false,
      "t": 20706.492749999983,
      "d": 163.0432499999988,
      "v": 101
    },
    {
      "midi": 42,
      "hit": false,
      "t": 20869.535999999982,
      "d": 163.0432499999988,
      "v": 101
    },
    {
      "midi": 58,
      "hit": false,
      "t": 20869.536,
      "d": 489.12975000000006,
      "v": 101
    },
    {
      "midi": 61,
      "hit": false,
      "t": 20869.536,
      "d": 489.12975000000006,
      "v": 101
    },
    {
      "midi": 78,
      "hit": false,
      "t": 20869.536000000007,
      "d": 326.08650000000125,
      "v": 101
    },
    {
      "midi": 42,
      "hit": false,
      "t": 21032.57924999998,
      "d": 163.0432499999988,
      "v": 101
    },
    {
      "midi": 42,
      "hit": false,
      "t": 21195.62249999998,
      "d": 163.0432499999988,
      "v": 101
    },
    {
      "midi": 73,
      "hit": false,
      "t": 21195.62250000001,
      "d": 326.08650000000125,
      "v": 101
    },
    {
      "midi": 41,
      "hit": false,
      "t": 21358.66574999998,
      "d": 163.0432499999988,
      "v": 101
    },
    {
      "midi": 57,
      "hit": false,
      "t": 21358.66575,
      "d": 815.2162500000013,
      "v": 101
    },
    {
      "midi": 60,
      "hit": false,
      "t": 21358.66575,
      "d": 815.2162500000013,
      "v": 101
    },
    {
      "midi": 41,
      "hit": false,
      "t": 21521.708999999977,
      "d": 163.0432499999988,
      "v": 101
    },
    {
      "midi": 65,
      "hit": false,
      "t": 21521.70900000001,
      "d": 326.08650000000125,
      "v": 101
    },
    {
      "midi": 41,
      "hit": false,
      "t": 21684.752249999976,
      "d": 163.0432499999988,
      "v": 101
    },
    {
      "midi": 41,
      "hit": false,
      "t": 21847.795499999975,
      "d": 163.0432499999988,
      "v": 101
    },
    {
      "midi": 77,
      "hit": false,
      "t": 21847.79550000001,
      "d": 326.08650000000125,
      "v": 101
    },
    {
      "midi": 41,
      "hit": false,
      "t": 22010.838749999974,
      "d": 163.0432499999988,
      "v": 101
    },
    {
      "midi": 40,
      "hit": false,
      "t": 22173.881999999972,
      "d": 163.0432499999988,
      "v": 101
    },
    {
      "midi": 55,
      "hit": false,
      "t": 22173.882,
      "d": 1304.3460000000014,
      "v": 101
    },
    {
      "midi": 59,
      "hit": false,
      "t": 22173.882,
      "d": 1304.3460000000014,
      "v": 101
    },
    {
      "midi": 76,
      "hit": false,
      "t": 22173.882000000012,
      "d": 326.08650000000125,
      "v": 101
    },
    {
      "midi": 40,
      "hit": false,
      "t": 22336.92524999997,
      "d": 163.0432499999988,
      "v": 101
    },
    {
      "midi": 83,
      "hit": false,
      "t": 22336.925250000004,
      "d": 163.0432499999988,
      "v": 101
    },
    {
      "midi": 40,
      "hit": false,
      "t": 22499.96849999997,
      "d": 163.0432499999988,
      "v": 101
    },
    {
      "midi": 88,
      "hit": false,
      "t": 22499.968500000003,
      "d": 163.0432499999988,
      "v": 101
    },
    {
      "midi": 71,
      "hit": false,
      "t": 22499.968500000014,
      "d": 326.08650000000125,
      "v": 101
    },
    {
      "midi": 40,
      "hit": false,
      "t": 22663.01174999997,
      "d": 163.0432499999988,
      "v": 101
    },
    {
      "midi": 79,
      "hit": false,
      "t": 22663.01175,
      "d": 163.0432499999988,
      "v": 101
    },
    {
      "midi": 40,
      "hit": false,
      "t": 22826.054999999968,
      "d": 163.0432499999988,
      "v": 101
    },
    {
      "midi": 91,
      "hit": false,
      "t": 22826.055,
      "d": 163.0432499999988,
      "v": 101
    },
    {
      "midi": 79,
      "hit": false,
      "t": 22826.055000000015,
      "d": 326.08650000000125,
      "v": 101
    },
    {
      "midi": 40,
      "hit": false,
      "t": 22989.098249999966,
      "d": 163.0432499999988,
      "v": 101
    },
    {
      "midi": 90,
      "hit": false,
      "t": 22989.09825,
      "d": 163.0432499999988,
      "v": 101
    },
    {
      "midi": 40,
      "hit": false,
      "t": 23152.141499999965,
      "d": 163.0432499999988,
      "v": 101
    },
    {
      "midi": 86,
      "hit": false,
      "t": 23152.141499999998,
      "d": 163.0432499999988,
      "v": 101
    },
    {
      "midi": 74,
      "hit": false,
      "t": 23152.141500000016,
      "d": 326.08650000000125,
      "v": 101
    },
    {
      "midi": 40,
      "hit": false,
      "t": 23315.184749999964,
      "d": 163.0432499999988,
      "v": 101
    },
    {
      "midi": 83,
      "hit": false,
      "t": 23315.184749999997,
      "d": 163.0432499999988,
      "v": 101
    },
    {
      "midi": 42,
      "hit": false,
      "t": 23478.227999999963,
      "d": 163.0432499999988,
      "v": 101
    },
    {
      "midi": 58,
      "hit": false,
      "t": 23478.228000000003,
      "d": 489.12975000000006,
      "v": 101
    },
    {
      "midi": 61,
      "hit": false,
      "t": 23478.228000000003,
      "d": 489.12975000000006,
      "v": 101
    },
    {
      "midi": 78,
      "hit": false,
      "t": 23478.228000000017,
      "d": 326.08650000000125,
      "v": 101
    },
    {
      "midi": 42,
      "hit": false,
      "t": 23641.27124999996,
      "d": 163.0432499999988,
      "v": 101
    },
    {
      "midi": 42,
      "hit": false,
      "t": 23804.31449999996,
      "d": 163.0432499999988,
      "v": 101
    },
    {
      "midi": 73,
      "hit": false,
      "t": 23804.31450000002,
      "d": 326.08650000000125,
      "v": 101
    },
    {
      "midi": 41,
      "hit": false,
      "t": 23967.35774999996,
      "d": 163.0432499999988,
      "v": 101
    },
    {
      "midi": 57,
      "hit": false,
      "t": 23967.357750000003,
      "d": 815.2162500000013,
      "v": 101
    },
    {
      "midi": 60,
      "hit": false,
      "t": 23967.357750000003,
      "d": 815.2162500000013,
      "v": 101
    },
    {
      "midi": 41,
      "hit": false,
      "t": 24130.400999999958,
      "d": 163.0432499999988,
      "v": 101
    },
    {
      "midi": 65,
      "hit": false,
      "t": 24130.40100000002,
      "d": 326.08650000000125,
      "v": 101
    },
    {
      "midi": 41,
      "hit": false,
      "t": 24293.444249999957,
      "d": 163.0432499999988,
      "v": 101
    },
    {
      "midi": 41,
      "hit": false,
      "t": 24456.487499999956,
      "d": 163.0432499999988,
      "v": 101
    },
    {
      "midi": 77,
      "hit": false,
      "t": 24456.48750000002,
      "d": 326.08650000000125,
      "v": 101
    },
    {
      "midi": 41,
      "hit": false,
      "t": 24619.530749999954,
      "d": 163.0432499999988,
      "v": 101
    },
    {
      "midi": 40,
      "hit": false,
      "t": 24782.573999999953,
      "d": 163.0432499999988,
      "v": 101
    },
    {
      "midi": 55,
      "hit": false,
      "t": 24782.574000000004,
      "d": 1304.3460000000014,
      "v": 101
    },
    {
      "midi": 59,
      "hit": false,
      "t": 24782.574000000004,
      "d": 1304.3460000000014,
      "v": 101
    },
    {
      "midi": 76,
      "hit": false,
      "t": 24782.574000000022,
      "d": 326.08650000000125,
      "v": 101
    },
    {
      "midi": 40,
      "hit": false,
      "t": 24945.617249999952,
      "d": 163.0432499999988,
      "v": 101
    },
    {
      "midi": 83,
      "hit": false,
      "t": 24945.617249999996,
      "d": 163.0432499999988,
      "v": 101
    },
    {
      "midi": 40,
      "hit": false,
      "t": 25108.66049999995,
      "d": 163.0432499999988,
      "v": 101
    },
    {
      "midi": 88,
      "hit": false,
      "t": 25108.660499999994,
      "d": 163.0432499999988,
      "v": 101
    },
    {
      "midi": 71,
      "hit": false,
      "t": 25108.660500000024,
      "d": 326.08650000000125,
      "v": 101
    },
    {
      "midi": 40,
      "hit": false,
      "t": 25271.70374999995,
      "d": 163.0432499999988,
      "v": 101
    },
    {
      "midi": 79,
      "hit": false,
      "t": 25271.703749999993,
      "d": 163.0432499999988,
      "v": 101
    },
    {
      "midi": 40,
      "hit": false,
      "t": 25434.74699999995,
      "d": 163.0432499999988,
      "v": 101
    },
    {
      "midi": 91,
      "hit": false,
      "t": 25434.746999999992,
      "d": 163.0432499999988,
      "v": 101
    },
    {
      "midi": 79,
      "hit": false,
      "t": 25434.747000000025,
      "d": 326.08650000000125,
      "v": 101
    },
    {
      "midi": 40,
      "hit": false,
      "t": 25597.790249999947,
      "d": 163.0432499999988,
      "v": 101
    },
    {
      "midi": 90,
      "hit": false,
      "t": 25597.79024999999,
      "d": 163.0432499999988,
      "v": 101
    },
    {
      "midi": 40,
      "hit": false,
      "t": 25760.833499999946,
      "d": 163.0432499999988,
      "v": 101
    },
    {
      "midi": 86,
      "hit": false,
      "t": 25760.83349999999,
      "d": 163.0432499999988,
      "v": 101
    },
    {
      "midi": 74,
      "hit": false,
      "t": 25760.833500000026,
      "d": 326.08650000000125,
      "v": 101
    },
    {
      "midi": 40,
      "hit": false,
      "t": 25923.876749999945,
      "d": 163.0432499999988,
      "v": 101
    },
    {
      "midi": 83,
      "hit": false,
      "t": 25923.87674999999,
      "d": 163.0432499999988,
      "v": 101
    },
    {
      "midi": 42,
      "hit": false,
      "t": 26086.919999999944,
      "d": 163.0432499999988,
      "v": 101
    },
    {
      "midi": 58,
      "hit": false,
      "t": 26086.920000000006,
      "d": 489.12975000000006,
      "v": 101
    },
    {
      "midi": 61,
      "hit": false,
      "t": 26086.920000000006,
      "d": 489.12975000000006,
      "v": 101
    },
    {
      "midi": 78,
      "hit": false,
      "t": 26086.920000000027,
      "d": 326.08650000000125,
      "v": 101
    },
    {
      "midi": 42,
      "hit": false,
      "t": 26249.963249999942,
      "d": 163.0432499999988,
      "v": 101
    },
    {
      "midi": 42,
      "hit": false,
      "t": 26413.00649999994,
      "d": 163.0432499999988,
      "v": 101
    },
    {
      "midi": 73,
      "hit": false,
      "t": 26413.00650000003,
      "d": 326.08650000000125,
      "v": 101
    },
    {
      "midi": 41,
      "hit": false,
      "t": 26576.04974999994,
      "d": 163.0432499999988,
      "v": 101
    },
    {
      "midi": 57,
      "hit": false,
      "t": 26576.049750000006,
      "d": 815.2162500000013,
      "v": 101
    },
    {
      "midi": 60,
      "hit": false,
      "t": 26576.049750000006,
      "d": 815.2162500000013,
      "v": 101
    },
    {
      "midi": 41,
      "hit": false,
      "t": 26739.09299999994,
      "d": 163.0432499999988,
      "v": 101
    },
    {
      "midi": 65,
      "hit": false,
      "t": 26739.09300000003,
      "d": 326.08650000000125,
      "v": 101
    },
    {
      "midi": 41,
      "hit": false,
      "t": 26902.136249999938,
      "d": 163.0432499999988,
      "v": 101
    },
    {
      "midi": 41,
      "hit": false,
      "t": 27065.179499999937,
      "d": 163.0432499999988,
      "v": 101
    },
    {
      "midi": 77,
      "hit": false,
      "t": 27065.17950000003,
      "d": 326.08650000000125,
      "v": 101
    },
    {
      "midi": 41,
      "hit": false,
      "t": 27228.222749999935,
      "d": 163.0432499999988,
      "v": 101
    },
    {
      "midi": 40,
      "hit": false,
      "t": 27391.265999999934,
      "d": 163.0432499999988,
      "v": 101
    },
    {
      "midi": 55,
      "hit": false,
      "t": 27391.266000000007,
      "d": 1304.3460000000014,
      "v": 101
    },
    {
      "midi": 59,
      "hit": false,
      "t": 27391.266000000007,
      "d": 1304.3460000000014,
      "v": 101
    },
    {
      "midi": 76,
      "hit": false,
      "t": 27391.266000000032,
      "d": 326.08650000000125,
      "v": 101
    },
    {
      "midi": 40,
      "hit": false,
      "t": 27554.309249999933,
      "d": 163.0432499999988,
      "v": 101
    },
    {
      "midi": 83,
      "hit": false,
      "t": 27554.309249999988,
      "d": 163.0432499999988,
      "v": 101
    },
    {
      "midi": 40,
      "hit": false,
      "t": 27717.35249999993,
      "d": 163.0432499999988,
      "v": 101
    },
    {
      "midi": 88,
      "hit": false,
      "t": 27717.352499999986,
      "d": 163.0432499999988,
      "v": 101
    },
    {
      "midi": 71,
      "hit": false,
      "t": 27717.352500000034,
      "d": 326.08650000000125,
      "v": 101
    },
    {
      "midi": 40,
      "hit": false,
      "t": 27880.39574999993,
      "d": 163.0432499999988,
      "v": 101
    },
    {
      "midi": 79,
      "hit": false,
      "t": 27880.395749999985,
      "d": 163.0432499999988,
      "v": 101
    },
    {
      "midi": 40,
      "hit": false,
      "t": 28043.43899999993,
      "d": 163.0432499999988,
      "v": 101
    },
    {
      "midi": 91,
      "hit": false,
      "t": 28043.438999999984,
      "d": 163.0432499999988,
      "v": 101
    },
    {
      "midi": 79,
      "hit": false,
      "t": 28043.439000000035,
      "d": 326.08650000000125,
      "v": 101
    },
    {
      "midi": 40,
      "hit": false,
      "t": 28206.482249999928,
      "d": 163.0432499999988,
      "v": 101
    },
    {
      "midi": 90,
      "hit": false,
      "t": 28206.482249999983,
      "d": 163.0432499999988,
      "v": 101
    },
    {
      "midi": 40,
      "hit": false,
      "t": 28369.525499999927,
      "d": 163.0432499999988,
      "v": 101
    },
    {
      "midi": 86,
      "hit": false,
      "t": 28369.52549999998,
      "d": 163.0432499999988,
      "v": 101
    },
    {
      "midi": 74,
      "hit": false,
      "t": 28369.525500000036,
      "d": 326.08650000000125,
      "v": 101
    },
    {
      "midi": 40,
      "hit": false,
      "t": 28532.568749999926,
      "d": 163.0432499999988,
      "v": 101
    },
    {
      "midi": 83,
      "hit": false,
      "t": 28532.56874999998,
      "d": 163.0432499999988,
      "v": 101
    },
    {
      "midi": 42,
      "hit": false,
      "t": 28695.611999999925,
      "d": 163.0432499999988,
      "v": 101
    },
    {
      "midi": 58,
      "hit": false,
      "t": 28695.61200000001,
      "d": 489.12975000000006,
      "v": 101
    },
    {
      "midi": 61,
      "hit": false,
      "t": 28695.61200000001,
      "d": 489.12975000000006,
      "v": 101
    },
    {
      "midi": 78,
      "hit": false,
      "t": 28695.612000000037,
      "d": 326.08650000000125,
      "v": 101
    },
    {
      "midi": 42,
      "hit": false,
      "t": 28858.655249999923,
      "d": 163.0432499999988,
      "v": 101
    },
    {
      "midi": 85,
      "hit": false,
      "t": 28858.655249999978,
      "d": 163.0432499999988,
      "v": 101
    },
    {
      "midi": 42,
      "hit": false,
      "t": 29021.698499999922,
      "d": 163.0432499999988,
      "v": 101
    },
    {
      "midi": 90,
      "hit": false,
      "t": 29021.698499999977,
      "d": 163.0432499999988,
      "v": 101
    },
    {
      "midi": 73,
      "hit": false,
      "t": 29021.69850000004,
      "d": 326.08650000000125,
      "v": 101
    },
    {
      "midi": 41,
      "hit": false,
      "t": 29184.74174999992,
      "d": 163.0432499999988,
      "v": 101
    },
    {
      "midi": 85,
      "hit": false,
      "t": 29184.741749999976,
      "d": 163.0432499999988,
      "v": 101
    },
    {
      "midi": 57,
      "hit": false,
      "t": 29184.74175000001,
      "d": 815.2162500000013,
      "v": 101
    },
    {
      "midi": 60,
      "hit": false,
      "t": 29184.74175000001,
      "d": 815.2162500000013,
      "v": 101
    },
    {
      "midi": 41,
      "hit": false,
      "t": 29347.78499999992,
      "d": 163.0432499999988,
      "v": 101
    },
    {
      "midi": 65,
      "hit": false,
      "t": 29347.78500000004,
      "d": 326.08650000000125,
      "v": 101
    },
    {
      "midi": 41,
      "hit": false,
      "t": 29510.82824999992,
      "d": 163.0432499999988,
      "v": 101
    },
    {
      "midi": 84,
      "hit": false,
      "t": 29510.828249999973,
      "d": 163.0432499999988,
      "v": 101
    },
    {
      "midi": 41,
      "hit": false,
      "t": 29673.871499999917,
      "d": 163.0432499999988,
      "v": 101
    },
    {
      "midi": 89,
      "hit": false,
      "t": 29673.871499999972,
      "d": 163.0432499999988,
      "v": 101
    },
    {
      "midi": 77,
      "hit": false,
      "t": 29673.87150000004,
      "d": 326.08650000000125,
      "v": 101
    },
    {
      "midi": 41,
      "hit": false,
      "t": 29836.914749999916,
      "d": 163.0432499999988,
      "v": 101
    },
    {
      "midi": 84,
      "hit": false,
      "t": 29836.91474999997,
      "d": 163.0432499999988,
      "v": 101
    },
    {
      "midi": 40,
      "hit": false,
      "t": 29999.957999999915,
      "d": 163.0432499999988,
      "v": 101
    },
    {
      "midi": 55,
      "hit": false,
      "t": 29999.95800000001,
      "d": 1304.3460000000014,
      "v": 101
    },
    {
      "midi": 59,
      "hit": false,
      "t": 29999.95800000001,
      "d": 1304.3460000000014,
      "v": 101
    },
    {
      "midi": 76,
      "hit": false,
      "t": 29999.958000000042,
      "d": 326.08650000000125,
      "v": 101
    },
    {
      "midi": 40,
      "hit": false,
      "t": 30163.001249999914,
      "d": 163.0432499999988,
      "v": 101
    },
    {
      "midi": 83,
      "hit": false,
      "t": 30163.00124999997,
      "d": 163.0432499999988,
      "v": 101
    },
    {
      "midi": 40,
      "hit": false,
      "t": 30326.044499999913,
      "d": 163.0432499999988,
      "v": 101
    },
    {
      "midi": 88,
      "hit": false,
      "t": 30326.044499999967,
      "d": 163.0432499999988,
      "v": 101
    },
    {
      "midi": 71,
      "hit": false,
      "t": 30326.044500000044,
      "d": 326.08650000000125,
      "v": 101
    },
    {
      "midi": 40,
      "hit": false,
      "t": 30489.08774999991,
      "d": 163.0432499999988,
      "v": 101
    },
    {
      "midi": 79,
      "hit": false,
      "t": 30489.087749999966,
      "d": 163.0432499999988,
      "v": 101
    },
    {
      "midi": 40,
      "hit": false,
      "t": 30652.13099999991,
      "d": 163.0432499999988,
      "v": 101
    },
    {
      "midi": 91,
      "hit": false,
      "t": 30652.130999999965,
      "d": 163.0432499999988,
      "v": 101
    },
    {
      "midi": 79,
      "hit": false,
      "t": 30652.131000000045,
      "d": 326.08650000000125,
      "v": 101
    },
    {
      "midi": 40,
      "hit": false,
      "t": 30815.17424999991,
      "d": 163.0432499999988,
      "v": 101
    },
    {
      "midi": 90,
      "hit": false,
      "t": 30815.174249999964,
      "d": 163.0432499999988,
      "v": 101
    },
    {
      "midi": 40,
      "hit": false,
      "t": 30978.217499999908,
      "d": 163.0432499999988,
      "v": 101
    },
    {
      "midi": 86,
      "hit": false,
      "t": 30978.217499999962,
      "d": 163.0432499999988,
      "v": 101
    },
    {
      "midi": 74,
      "hit": false,
      "t": 30978.217500000046,
      "d": 326.08650000000125,
      "v": 101
    },
    {
      "midi": 40,
      "hit": false,
      "t": 31141.260749999907,
      "d": 163.0432499999988,
      "v": 101
    },
    {
      "midi": 83,
      "hit": false,
      "t": 31141.26074999996,
      "d": 163.0432499999988,
      "v": 101
    },
    {
      "midi": 42,
      "hit": false,
      "t": 31304.303999999905,
      "d": 163.0432499999988,
      "v": 101
    },
    {
      "midi": 58,
      "hit": false,
      "t": 31304.30400000001,
      "d": 489.12975000000006,
      "v": 101
    },
    {
      "midi": 61,
      "hit": false,
      "t": 31304.30400000001,
      "d": 489.12975000000006,
      "v": 101
    },
    {
      "midi": 78,
      "hit": false,
      "t": 31304.304000000047,
      "d": 326.08650000000125,
      "v": 101
    },
    {
      "midi": 42,
      "hit": false,
      "t": 31467.347249999904,
      "d": 163.0432499999988,
      "v": 101
    },
    {
      "midi": 85,
      "hit": false,
      "t": 31467.34724999996,
      "d": 163.0432499999988,
      "v": 101
    },
    {
      "midi": 42,
      "hit": false,
      "t": 31630.390499999903,
      "d": 163.0432499999988,
      "v": 101
    },
    {
      "midi": 90,
      "hit": false,
      "t": 31630.390499999958,
      "d": 163.0432499999988,
      "v": 101
    },
    {
      "midi": 73,
      "hit": false,
      "t": 31630.39050000005,
      "d": 326.08650000000125,
      "v": 101
    },
    {
      "midi": 41,
      "hit": false,
      "t": 31793.433749999902,
      "d": 163.0432499999988,
      "v": 101
    },
    {
      "midi": 85,
      "hit": false,
      "t": 31793.433749999956,
      "d": 163.0432499999988,
      "v": 101
    },
    {
      "midi": 57,
      "hit": false,
      "t": 31793.43375000001,
      "d": 815.2162500000013,
      "v": 101
    },
    {
      "midi": 60,
      "hit": false,
      "t": 31793.43375000001,
      "d": 815.2162500000013,
      "v": 101
    },
    {
      "midi": 41,
      "hit": false,
      "t": 31956.4769999999,
      "d": 163.0432499999988,
      "v": 101
    },
    {
      "midi": 65,
      "hit": false,
      "t": 31956.47700000005,
      "d": 326.08650000000125,
      "v": 101
    },
    {
      "midi": 41,
      "hit": false,
      "t": 32119.5202499999,
      "d": 163.0432499999988,
      "v": 101
    },
    {
      "midi": 84,
      "hit": false,
      "t": 32119.520249999954,
      "d": 163.0432499999988,
      "v": 101
    },
    {
      "midi": 41,
      "hit": false,
      "t": 32282.5634999999,
      "d": 163.0432499999988,
      "v": 101
    },
    {
      "midi": 89,
      "hit": false,
      "t": 32282.563499999953,
      "d": 163.0432499999988,
      "v": 101
    },
    {
      "midi": 77,
      "hit": false,
      "t": 32282.56350000005,
      "d": 326.08650000000125,
      "v": 101
    },
    {
      "midi": 41,
      "hit": false,
      "t": 32445.606749999897,
      "d": 163.0432499999988,
      "v": 101
    },
    {
      "midi": 84,
      "hit": false,
      "t": 32445.60674999995,
      "d": 163.0432499999988,
      "v": 101
    },
    {
      "midi": 40,
      "hit": false,
      "t": 32608.649999999896,
      "d": 163.0432499999988,
      "v": 101
    },
    {
      "midi": 76,
      "hit": false,
      "t": 32608.64999999995,
      "d": 163.04325000000244,
      "v": 101
    },
    {
      "midi": 55,
      "hit": false,
      "t": 32608.650000000012,
      "d": 1304.3460000000014,
      "v": 101
    },
    {
      "midi": 59,
      "hit": false,
      "t": 32608.650000000012,
      "d": 1304.3460000000014,
      "v": 101
    },
    {
      "midi": 64,
      "hit": false,
      "t": 32608.650000000012,
      "d": 1304.3460000000014,
      "v": 101
    },
    {
      "midi": 52,
      "hit": false,
      "t": 32771.693249999895,
      "d": 163.04325000000244,
      "v": 101
    },
    {
      "midi": 83,
      "hit": false,
      "t": 32771.69324999995,
      "d": 163.04325000000244,
      "v": 101
    },
    {
      "midi": 40,
      "hit": false,
      "t": 32934.7364999999,
      "d": 163.04325000000244,
      "v": 101
    },
    {
      "midi": 88,
      "hit": false,
      "t": 32934.736499999955,
      "d": 163.04325000000244,
      "v": 101
    },
    {
      "midi": 52,
      "hit": false,
      "t": 33097.7797499999,
      "d": 163.04325000000244,
      "v": 101
    },
    {
      "midi": 79,
      "hit": false,
      "t": 33097.77974999996,
      "d": 163.04325000000244,
      "v": 101
    },
    {
      "midi": 40,
      "hit": false,
      "t": 33260.8229999999,
      "d": 163.04325000000244,
      "v": 101
    },
    {
      "midi": 91,
      "hit": false,
      "t": 33260.82299999996,
      "d": 163.04325000000244,
      "v": 101
    },
    {
      "midi": 52,
      "hit": false,
      "t": 33423.866249999905,
      "d": 163.04325000000244,
      "v": 101
    },
    {
      "midi": 90,
      "hit": false,
      "t": 33423.86624999996,
      "d": 163.04325000000244,
      "v": 101
    },
    {
      "midi": 40,
      "hit": false,
      "t": 33586.90949999991,
      "d": 163.04325000000244,
      "v": 101
    },
    {
      "midi": 86,
      "hit": false,
      "t": 33586.909499999965,
      "d": 163.04325000000244,
      "v": 101
    },
    {
      "midi": 52,
      "hit": false,
      "t": 33749.95274999991,
      "d": 163.04325000000244,
      "v": 101
    },
    {
      "midi": 83,
      "hit": false,
      "t": 33749.95274999997,
      "d": 163.04325000000244,
      "v": 101
    },
    {
      "midi": 38,
      "hit": false,
      "t": 33912.99599999991,
      "d": 163.04325000000244,
      "v": 101
    },
    {
      "midi": 74,
      "hit": false,
      "t": 33912.99599999997,
      "d": 163.04325000000244,
      "v": 101
    },
    {
      "midi": 54,
      "hit": false,
      "t": 33912.996000000014,
      "d": 1304.3459999999977,
      "v": 101
    },
    {
      "midi": 57,
      "hit": false,
      "t": 33912.996000000014,
      "d": 1304.3459999999977,
      "v": 101
    },
    {
      "midi": 62,
      "hit": false,
      "t": 33912.996000000014,
      "d": 1304.3459999999977,
      "v": 101
    },
    {
      "midi": 50,
      "hit": false,
      "t": 34076.039249999914,
      "d": 163.04325000000244,
      "v": 101
    },
    {
      "midi": 81,
      "hit": false,
      "t": 34076.03924999997,
      "d": 163.04325000000244,
      "v": 101
    },
    {
      "midi": 38,
      "hit": false,
      "t": 34239.08249999992,
      "d": 163.04325000000244,
      "v": 101
    },
    {
      "midi": 86,
      "hit": false,
      "t": 34239.082499999975,
      "d": 163.04325000000244,
      "v": 101
    },
    {
      "midi": 50,
      "hit": false,
      "t": 34402.12574999992,
      "d": 163.04325000000244,
      "v": 101
    },
    {
      "midi": 78,
      "hit": false,
      "t": 34402.12574999998,
      "d": 163.04325000000244,
      "v": 101
    },
    {
      "midi": 38,
      "hit": false,
      "t": 34565.16899999992,
      "d": 163.04325000000244,
      "v": 101
    },
    {
      "midi": 90,
      "hit": false,
      "t": 34565.16899999998,
      "d": 163.04325000000244,
      "v": 101
    },
    {
      "midi": 50,
      "hit": false,
      "t": 34728.212249999924,
      "d": 163.04325000000244,
      "v": 101
    },
    {
      "midi": 88,
      "hit": false,
      "t": 34728.21224999998,
      "d": 163.04325000000244,
      "v": 101
    },
    {
      "midi": 38,
      "hit": false,
      "t": 34891.25549999993,
      "d": 163.04325000000244,
      "v": 101
    },
    {
      "midi": 86,
      "hit": false,
      "t": 34891.255499999985,
      "d": 163.04325000000244,
      "v": 101
    },
    {
      "midi": 50,
      "hit": false,
      "t": 35054.29874999993,
      "d": 163.04325000000244,
      "v": 101
    },
    {
      "midi": 81,
      "hit": false,
      "t": 35054.29874999999,
      "d": 163.04325000000244,
      "v": 101
    },
    {
      "midi": 36,
      "hit": false,
      "t": 35217.34199999993,
      "d": 326.0864999999976,
      "v": 101
    },
    {
      "midi": 52,
      "hit": false,
      "t": 35217.34200000001,
      "d": 163.04325000000244,
      "v": 101
    },
    {
      "midi": 72,
      "hit": false,
      "t": 35217.342000000055,
      "d": 163.04325000000244,
      "v": 101
    },
    {
      "midi": 53,
      "hit": false,
      "t": 35380.385250000014,
      "d": 20.380406249998487,
      "v": 101
    },
    {
      "midi": 79,
      "hit": false,
      "t": 35380.38525000006,
      "d": 163.04325000000244,
      "v": 101
    },
    {
      "midi": 55,
      "hit": false,
      "t": 35400.76565625001,
      "d": 20.380406249998487,
      "v": 101
    },
    {
      "midi": 57,
      "hit": false,
      "t": 35421.14606250001,
      "d": 40.76081249999697,
      "v": 101
    },
    {
      "midi": 59,
      "hit": false,
      "t": 35461.90687500001,
      "d": 20.380406249998487,
      "v": 101
    },
    {
      "midi": 60,
      "hit": false,
      "t": 35482.287281250006,
      "d": 40.76081249999697,
      "v": 101
    },
    {
      "midi": 62,
      "hit": false,
      "t": 35523.04809375,
      "d": 20.380406249998487,
      "v": 101
    },
    {
      "midi": 48,
      "hit": false,
      "t": 35543.42849999993,
      "d": 326.0864999999976,
      "v": 101
    },
    {
      "midi": 88,
      "hit": false,
      "t": 35543.42849999999,
      "d": 163.04325000000244,
      "v": 101
    },
    {
      "midi": 64,
      "hit": false,
      "t": 35543.4285,
      "d": 326.0864999999976,
      "v": 101
    },
    {
      "midi": 86,
      "hit": false,
      "t": 35706.47174999999,
      "d": 163.04325000000244,
      "v": 101
    },
    {
      "midi": 36,
      "hit": false,
      "t": 35869.51499999993,
      "d": 326.0864999999976,
      "v": 101
    },
    {
      "midi": 91,
      "hit": false,
      "t": 35869.51499999999,
      "d": 163.04325000000244,
      "v": 101
    },
    {
      "midi": 52,
      "hit": false,
      "t": 35869.515,
      "d": 163.04325000000244,
      "v": 101
    },
    {
      "midi": 90,
      "hit": false,
      "t": 36032.558249999995,
      "d": 163.04325000000244,
      "v": 101
    },
    {
      "midi": 53,
      "hit": false,
      "t": 36032.55825,
      "d": 20.380406249998487,
      "v": 101
    },
    {
      "midi": 55,
      "hit": false,
      "t": 36052.93865625,
      "d": 20.380406249998487,
      "v": 101
    },
    {
      "midi": 57,
      "hit": false,
      "t": 36073.3190625,
      "d": 40.76081249999697,
      "v": 101
    },
    {
      "midi": 59,
      "hit": false,
      "t": 36114.079874999996,
      "d": 20.380406249998487,
      "v": 101
    },
    {
      "midi": 60,
      "hit": false,
      "t": 36134.460281249994,
      "d": 40.76081249999697,
      "v": 101
    },
    {
      "midi": 62,
      "hit": false,
      "t": 36175.22109374999,
      "d": 20.380406249998487,
      "v": 101
    },
    {
      "midi": 48,
      "hit": false,
      "t": 36195.601499999924,
      "d": 326.0864999999976,
      "v": 101
    },
    {
      "midi": 64,
      "hit": false,
      "t": 36195.60149999999,
      "d": 326.0864999999976,
      "v": 101
    },
    {
      "midi": 86,
      "hit": false,
      "t": 36195.6015,
      "d": 163.04325000000244,
      "v": 101
    },
    {
      "midi": 83,
      "hit": false,
      "t": 36358.64475,
      "d": 163.04325000000244,
      "v": 101
    },
    {
      "midi": 36,
      "hit": false,
      "t": 36521.68799999992,
      "d": 326.0864999999976,
      "v": 101
    },
    {
      "midi": 55,
      "hit": false,
      "t": 36521.68799999999,
      "d": 326.0864999999976,
      "v": 101
    },
    {
      "midi": 72,
      "hit": false,
      "t": 36521.68800000006,
      "d": 163.04325000000244,
      "v": 101
    },
    {
      "midi": 79,
      "hit": false,
      "t": 36684.73125000006,
      "d": 163.04325000000244,
      "v": 101
    },
    {
      "midi": 48,
      "hit": false,
      "t": 36847.77449999992,
      "d": 326.0864999999976,
      "v": 101
    },
    {
      "midi": 62,
      "hit": false,
      "t": 36847.774499999985,
      "d": 163.04325000000244,
      "v": 101
    },
    {
      "midi": 66,
      "hit": false,
      "t": 36847.774499999985,
      "d": 163.04325000000244,
      "v": 101
    },
    {
      "midi": 88,
      "hit": false,
      "t": 36847.7745,
      "d": 163.04325000000244,
      "v": 101
    },
    {
      "midi": 62,
      "hit": false,
      "t": 37010.81774999999,
      "d": 163.04325000000244,
      "v": 101
    },
    {
      "midi": 66,
      "hit": false,
      "t": 37010.81774999999,
      "d": 163.04325000000244,
      "v": 101
    },
    {
      "midi": 86,
      "hit": false,
      "t": 37010.81775,
      "d": 163.04325000000244,
      "v": 101
    },
    {
      "midi": 36,
      "hit": false,
      "t": 37173.86099999992,
      "d": 326.0864999999976,
      "v": 101
    },
    {
      "midi": 52,
      "hit": false,
      "t": 37173.86099999999,
      "d": 163.04325000000244,
      "v": 101
    },
    {
      "midi": 72,
      "hit": false,
      "t": 37173.86100000006,
      "d": 163.04325000000244,
      "v": 101
    },
    {
      "midi": 53,
      "hit": false,
      "t": 37336.90424999999,
      "d": 20.380406249998487,
      "v": 101
    },
    {
      "midi": 79,
      "hit": false,
      "t": 37336.904250000065,
      "d": 163.04325000000244,
      "v": 101
    },
    {
      "midi": 55,
      "hit": false,
      "t": 37357.28465624999,
      "d": 20.380406249998487,
      "v": 101
    },
    {
      "midi": 57,
      "hit": false,
      "t": 37377.66506249999,
      "d": 40.76081249999697,
      "v": 101
    },
    {
      "midi": 59,
      "hit": false,
      "t": 37418.425874999986,
      "d": 20.380406249998487,
      "v": 101
    },
    {
      "midi": 60,
      "hit": false,
      "t": 37438.806281249985,
      "d": 40.76081249999697,
      "v": 101
    },
    {
      "midi": 62,
      "hit": false,
      "t": 37479.56709374998,
      "d": 20.380406249998487,
      "v": 101
    },
    {
      "midi": 48,
      "hit": false,
      "t": 37499.947499999915,
      "d": 326.0864999999976,
      "v": 101
    },
    {
      "midi": 64,
      "hit": false,
      "t": 37499.94749999998,
      "d": 326.0864999999976,
      "v": 101
    },
    {
      "midi": 88,
      "hit": false,
      "t": 37499.9475,
      "d": 163.04325000000244,
      "v": 101
    },
    {
      "midi": 86,
      "hit": false,
      "t": 37662.990750000004,
      "d": 163.04325000000244,
      "v": 101
    },
    {
      "midi": 36,
      "hit": false,
      "t": 37826.03399999991,
      "d": 326.0864999999976,
      "v": 101
    },
    {
      "midi": 52,
      "hit": false,
      "t": 37826.03399999998,
      "d": 163.04325000000244,
      "v": 101
    },
    {
      "midi": 91,
      "hit": false,
      "t": 37826.03400000001,
      "d": 163.04325000000244,
      "v": 101
    },
    {
      "midi": 53,
      "hit": false,
      "t": 37989.07724999998,
      "d": 20.380406249998487,
      "v": 101
    },
    {
      "midi": 90,
      "hit": false,
      "t": 37989.07725000001,
      "d": 163.04325000000244,
      "v": 101
    },
    {
      "midi": 55,
      "hit": false,
      "t": 38009.45765624998,
      "d": 20.380406249998487,
      "v": 101
    },
    {
      "midi": 57,
      "hit": false,
      "t": 38029.83806249998,
      "d": 40.76081249999697,
      "v": 101
    },
    {
      "midi": 59,
      "hit": false,
      "t": 38070.598874999974,
      "d": 20.380406249998487,
      "v": 101
    },
    {
      "midi": 60,
      "hit": false,
      "t": 38090.97928124997,
      "d": 40.76081249999697,
      "v": 101
    },
    {
      "midi": 62,
      "hit": false,
      "t": 38131.74009374997,
      "d": 20.380406249998487,
      "v": 101
    },
    {
      "midi": 48,
      "hit": false,
      "t": 38152.12049999991,
      "d": 326.0864999999976,
      "v": 101
    },
    {
      "midi": 64,
      "hit": false,
      "t": 38152.12049999997,
      "d": 326.0864999999976,
      "v": 101
    },
    {
      "midi": 86,
      "hit": false,
      "t": 38152.12050000001,
      "d": 163.04325000000244,
      "v": 101
    },
    {
      "midi": 83,
      "hit": false,
      "t": 38315.163750000014,
      "d": 163.04325000000244,
      "v": 101
    },
    {
      "midi": 36,
      "hit": false,
      "t": 38478.20699999991,
      "d": 326.0864999999976,
      "v": 101
    },
    {
      "midi": 55,
      "hit": false,
      "t": 38478.206999999966,
      "d": 326.0864999999976,
      "v": 101
    },
    {
      "midi": 72,
      "hit": false,
      "t": 38478.20700000007,
      "d": 163.04325000000244,
      "v": 101
    },
    {
      "midi": 79,
      "hit": false,
      "t": 38641.25025000007,
      "d": 163.04325000000244,
      "v": 101
    },
    {
      "midi": 48,
      "hit": false,
      "t": 38804.293499999905,
      "d": 326.0864999999976,
      "v": 101
    },
    {
      "midi": 62,
      "hit": false,
      "t": 38804.29349999996,
      "d": 163.04325000000244,
      "v": 101
    },
    {
      "midi": 66,
      "hit": false,
      "t": 38804.29349999996,
      "d": 163.04325000000244,
      "v": 101
    },
    {
      "midi": 88,
      "hit": false,
      "t": 38804.293500000014,
      "d": 163.04325000000244,
      "v": 101
    },
    {
      "midi": 62,
      "hit": false,
      "t": 38967.336749999966,
      "d": 163.04325000000244,
      "v": 101
    },
    {
      "midi": 66,
      "hit": false,
      "t": 38967.336749999966,
      "d": 163.04325000000244,
      "v": 101
    },
    {
      "midi": 86,
      "hit": false,
      "t": 38967.33675000002,
      "d": 163.04325000000244,
      "v": 101
    },
    {
      "midi": 36,
      "hit": false,
      "t": 39130.3799999999,
      "d": 326.0864999999976,
      "v": 101
    },
    {
      "midi": 52,
      "hit": false,
      "t": 39130.37999999997,
      "d": 163.04325000000244,
      "v": 101
    },
    {
      "midi": 72,
      "hit": false,
      "t": 39130.38000000007,
      "d": 163.04325000000244,
      "v": 101
    },
    {
      "midi": 53,
      "hit": false,
      "t": 39293.42324999997,
      "d": 20.380406249998487,
      "v": 101
    },
    {
      "midi": 79,
      "hit": false,
      "t": 39293.42325000007,
      "d": 163.04325000000244,
      "v": 101
    },
    {
      "midi": 55,
      "hit": false,
      "t": 39313.80365624997,
      "d": 20.380406249998487,
      "v": 101
    },
    {
      "midi": 57,
      "hit": false,
      "t": 39334.18406249997,
      "d": 40.76081249999697,
      "v": 101
    },
    {
      "midi": 59,
      "hit": false,
      "t": 39374.944874999965,
      "d": 20.380406249998487,
      "v": 101
    },
    {
      "midi": 60,
      "hit": false,
      "t": 39395.32528124996,
      "d": 40.76081249999697,
      "v": 101
    },
    {
      "midi": 62,
      "hit": false,
      "t": 39436.08609374996,
      "d": 20.380406249998487,
      "v": 101
    },
    {
      "midi": 48,
      "hit": false,
      "t": 39456.4664999999,
      "d": 326.0864999999976,
      "v": 101
    },
    {
      "midi": 64,
      "hit": false,
      "t": 39456.46649999996,
      "d": 326.0864999999976,
      "v": 101
    },
    {
      "midi": 88,
      "hit": false,
      "t": 39456.46650000002,
      "d": 163.04325000000244,
      "v": 101
    },
    {
      "midi": 86,
      "hit": false,
      "t": 39619.50975000002,
      "d": 163.04325000000244,
      "v": 101
    },
    {
      "midi": 36,
      "hit": false,
      "t": 39782.5529999999,
      "d": 326.0864999999976,
      "v": 101
    },
    {
      "midi": 52,
      "hit": false,
      "t": 39782.552999999956,
      "d": 163.04325000000244,
      "v": 101
    },
    {
      "midi": 91,
      "hit": false,
      "t": 39782.55300000002,
      "d": 163.04325000000244,
      "v": 101
    },
    {
      "midi": 53,
      "hit": false,
      "t": 39945.59624999996,
      "d": 20.380406249998487,
      "v": 101
    },
    {
      "midi": 90,
      "hit": false,
      "t": 39945.596250000024,
      "d": 163.04325000000244,
      "v": 101
    },
    {
      "midi": 55,
      "hit": false,
      "t": 39965.97665624996,
      "d": 20.380406249998487,
      "v": 101
    },
    {
      "midi": 57,
      "hit": false,
      "t": 39986.357062499956,
      "d": 40.76081249999697,
      "v": 101
    },
    {
      "midi": 59,
      "hit": false,
      "t": 40027.11787499995,
      "d": 20.380406249998487,
      "v": 101
    },
    {
      "midi": 60,
      "hit": false,
      "t": 40047.49828124995,
      "d": 40.76081249999697,
      "v": 101
    },
    {
      "midi": 62,
      "hit": false,
      "t": 40088.25909374995,
      "d": 20.380406249998487,
      "v": 101
    },
    {
      "midi": 48,
      "hit": false,
      "t": 40108.639499999896,
      "d": 326.0864999999976,
      "v": 101
    },
    {
      "midi": 64,
      "hit": false,
      "t": 40108.63949999995,
      "d": 326.0864999999976,
      "v": 101
    },
    {
      "midi": 86,
      "hit": false,
      "t": 40108.63950000003,
      "d": 163.04325000000244,
      "v": 101
    },
    {
      "midi": 83,
      "hit": false,
      "t": 40271.68275000003,
      "d": 163.04325000000244,
      "v": 101
    },
    {
      "midi": 36,
      "hit": false,
      "t": 40434.72599999989,
      "d": 326.0864999999976,
      "v": 101
    },
    {
      "midi": 55,
      "hit": false,
      "t": 40434.725999999944,
      "d": 326.0864999999976,
      "v": 101
    },
    {
      "midi": 72,
      "hit": false,
      "t": 40434.726000000075,
      "d": 163.04325000000244,
      "v": 101
    },
    {
      "midi": 79,
      "hit": false,
      "t": 40597.76925000008,
      "d": 163.04325000000244,
      "v": 101
    },
    {
      "midi": 48,
      "hit": false,
      "t": 40760.81249999989,
      "d": 326.0864999999976,
      "v": 101
    },
    {
      "midi": 62,
      "hit": false,
      "t": 40760.81249999994,
      "d": 163.04325000000244,
      "v": 101
    },
    {
      "midi": 66,
      "hit": false,
      "t": 40760.81249999994,
      "d": 163.04325000000244,
      "v": 101
    },
    {
      "midi": 88,
      "hit": false,
      "t": 40760.81250000003,
      "d": 163.04325000000244,
      "v": 101
    },
    {
      "midi": 62,
      "hit": false,
      "t": 40923.855749999944,
      "d": 163.04325000000244,
      "v": 101
    },
    {
      "midi": 66,
      "hit": false,
      "t": 40923.855749999944,
      "d": 163.04325000000244,
      "v": 101
    },
    {
      "midi": 86,
      "hit": false,
      "t": 40923.85575000003,
      "d": 163.04325000000244,
      "v": 101
    },
    {
      "midi": 36,
      "hit": false,
      "t": 41086.89899999989,
      "d": 326.0864999999976,
      "v": 101
    },
    {
      "midi": 52,
      "hit": false,
      "t": 41086.89899999995,
      "d": 163.04325000000244,
      "v": 101
    },
    {
      "midi": 72,
      "hit": false,
      "t": 41086.89900000008,
      "d": 163.04325000000244,
      "v": 101
    },
    {
      "midi": 53,
      "hit": false,
      "t": 41249.94224999995,
      "d": 20.380406249998487,
      "v": 101
    },
    {
      "midi": 79,
      "hit": false,
      "t": 41249.94225000008,
      "d": 163.04325000000244,
      "v": 101
    },
    {
      "midi": 55,
      "hit": false,
      "t": 41270.32265624995,
      "d": 20.380406249998487,
      "v": 101
    },
    {
      "midi": 57,
      "hit": false,
      "t": 41290.703062499946,
      "d": 40.76081249999697,
      "v": 101
    },
    {
      "midi": 59,
      "hit": false,
      "t": 41331.46387499994,
      "d": 20.380406249998487,
      "v": 101
    },
    {
      "midi": 60,
      "hit": false,
      "t": 41351.84428124994,
      "d": 40.76081249999697,
      "v": 101
    },
    {
      "midi": 62,
      "hit": false,
      "t": 41392.60509374994,
      "d": 20.380406249998487,
      "v": 101
    },
    {
      "midi": 48,
      "hit": false,
      "t": 41412.985499999886,
      "d": 326.0864999999976,
      "v": 101
    },
    {
      "midi": 64,
      "hit": false,
      "t": 41412.98549999994,
      "d": 326.0864999999976,
      "v": 101
    },
    {
      "midi": 88,
      "hit": false,
      "t": 41412.98550000003,
      "d": 163.04325000000244,
      "v": 101
    },
    {
      "midi": 86,
      "hit": false,
      "t": 41576.028750000034,
      "d": 163.04325000000244,
      "v": 101
    },
    {
      "midi": 36,
      "hit": false,
      "t": 41739.071999999884,
      "d": 326.0864999999976,
      "v": 101
    },
    {
      "midi": 52,
      "hit": false,
      "t": 41739.071999999935,
      "d": 163.04325000000244,
      "v": 101
    },
    {
      "midi": 91,
      "hit": false,
      "t": 41739.07200000004,
      "d": 163.04325000000244,
      "v": 101
    },
    {
      "midi": 53,
      "hit": false,
      "t": 41902.11524999994,
      "d": 20.380406249998487,
      "v": 101
    },
    {
      "midi": 90,
      "hit": false,
      "t": 41902.11525000004,
      "d": 163.04325000000244,
      "v": 101
    },
    {
      "midi": 55,
      "hit": false,
      "t": 41922.495656249936,
      "d": 20.380406249998487,
      "v": 101
    },
    {
      "midi": 57,
      "hit": false,
      "t": 41942.876062499934,
      "d": 40.76081249999697,
      "v": 101
    },
    {
      "midi": 59,
      "hit": false,
      "t": 41983.63687499993,
      "d": 20.380406249998487,
      "v": 101
    },
    {
      "midi": 60,
      "hit": false,
      "t": 42004.01728124993,
      "d": 40.76081249999697,
      "v": 101
    },
    {
      "midi": 62,
      "hit": false,
      "t": 42044.77809374993,
      "d": 20.380406249998487,
      "v": 101
    },
    {
      "midi": 48,
      "hit": false,
      "t": 42065.15849999988,
      "d": 326.0864999999976,
      "v": 101
    },
    {
      "midi": 64,
      "hit": false,
      "t": 42065.158499999925,
      "d": 326.0864999999976,
      "v": 101
    },
    {
      "midi": 86,
      "hit": false,
      "t": 42065.15850000004,
      "d": 163.04325000000244,
      "v": 101
    },
    {
      "midi": 93,
      "hit": false,
      "t": 42228.201750000044,
      "d": 163.04325000000244,
      "v": 101
    },
    {
      "midi": 38,
      "hit": false,
      "t": 42391.24499999988,
      "d": 1956.5190000000002,
      "v": 101
    },
    {
      "midi": 50,
      "hit": false,
      "t": 42391.24499999988,
      "d": 1956.5190000000002,
      "v": 101
    },
    {
      "midi": 54,
      "hit": false,
      "t": 42391.24499999992,
      "d": 1304.3459999999977,
      "v": 101
    },
    {
      "midi": 66,
      "hit": false,
      "t": 42391.24499999992,
      "d": 1304.3459999999977,
      "v": 101
    },
    {
      "midi": 91,
      "hit": false,
      "t": 42391.245000000046,
      "d": 163.04325000000244,
      "v": 101
    },
    {
      "midi": 90,
      "hit": false,
      "t": 42554.28825000005,
      "d": 163.04325000000244,
      "v": 101
    },
    {
      "midi": 86,
      "hit": false,
      "t": 42717.33150000005,
      "d": 163.04325000000244,
      "v": 101
    },
    {
      "midi": 81,
      "hit": false,
      "t": 42880.37475000005,
      "d": 163.04325000000244,
      "v": 101
    },
    {
      "midi": 79,
      "hit": false,
      "t": 43043.418000000056,
      "d": 163.04325000000244,
      "v": 101
    },
    {
      "midi": 78,
      "hit": false,
      "t": 43206.46125000006,
      "d": 163.04325000000244,
      "v": 101
    },
    {
      "midi": 74,
      "hit": false,
      "t": 43369.50450000006,
      "d": 978.2595000000001,
      "v": 101
    },
    {
      "midi": 40,
      "hit": false,
      "t": 44347.76399999988,
      "d": 163.04325000000244,
      "v": 101
    },
    {
      "midi": 52,
      "hit": false,
      "t": 44347.76399999992,
      "d": 489.12975000000006,
      "v": 101
    },
    {
      "midi": 55,
      "hit": false,
      "t": 44347.76399999992,
      "d": 489.12975000000006,
      "v": 101
    },
    {
      "midi": 59,
      "hit": false,
      "t": 44347.76399999992,
      "d": 489.12975000000006,
      "v": 101
    },
    {
      "midi": 71,
      "hit": false,
      "t": 44347.76400000006,
      "d": 489.12975000000006,
      "v": 101
    },
    {
      "midi": 76,
      "hit": false,
      "t": 44347.76400000006,
      "d": 489.12975000000006,
      "v": 101
    },
    {
      "midi": 67,
      "hit": false,
      "t": 44347.76400000008,
      "d": 489.12975000000006,
      "v": 101
    },
    {
      "midi": 40,
      "hit": false,
      "t": 44510.80724999988,
      "d": 163.04325000000244,
      "v": 101
    },
    {
      "midi": 40,
      "hit": false,
      "t": 44673.850499999884,
      "d": 163.04325000000244,
      "v": 101
    },
    {
      "midi": 40,
      "hit": false,
      "t": 44836.89374999989,
      "d": 163.04325000000244,
      "v": 101
    },
    {
      "midi": 52,
      "hit": false,
      "t": 44836.89374999992,
      "d": 489.12975000000006,
      "v": 101
    },
    {
      "midi": 55,
      "hit": false,
      "t": 44836.89374999992,
      "d": 489.12975000000006,
      "v": 101
    },
    {
      "midi": 59,
      "hit": false,
      "t": 44836.89374999992,
      "d": 489.12975000000006,
      "v": 101
    },
    {
      "midi": 79,
      "hit": false,
      "t": 44836.89375000006,
      "d": 489.12975000000006,
      "v": 101
    },
    {
      "midi": 83,
      "hit": false,
      "t": 44836.89375000006,
      "d": 489.12975000000006,
      "v": 101
    },
    {
      "midi": 71,
      "hit": false,
      "t": 44836.89375000008,
      "d": 489.12975000000006,
      "v": 101
    },
    {
      "midi": 40,
      "hit": false,
      "t": 44999.93699999989,
      "d": 163.04325000000244,
      "v": 101
    },
    {
      "midi": 40,
      "hit": false,
      "t": 45162.98024999989,
      "d": 163.04325000000244,
      "v": 101
    },
    {
      "midi": 40,
      "hit": false,
      "t": 45326.023499999894,
      "d": 163.04325000000244,
      "v": 101
    },
    {
      "midi": 52,
      "hit": false,
      "t": 45326.02349999992,
      "d": 326.0864999999976,
      "v": 101
    },
    {
      "midi": 55,
      "hit": false,
      "t": 45326.02349999992,
      "d": 326.0864999999976,
      "v": 101
    },
    {
      "midi": 59,
      "hit": false,
      "t": 45326.02349999992,
      "d": 326.0864999999976,
      "v": 101
    },
    {
      "midi": 78,
      "hit": false,
      "t": 45326.02350000006,
      "d": 326.0864999999976,
      "v": 101
    },
    {
      "midi": 81,
      "hit": false,
      "t": 45326.02350000006,
      "d": 326.0864999999976,
      "v": 101
    },
    {
      "midi": 69,
      "hit": false,
      "t": 45326.02350000008,
      "d": 326.0864999999976,
      "v": 101
    },
    {
      "midi": 40,
      "hit": false,
      "t": 45489.066749999896,
      "d": 163.04325000000244,
      "v": 101
    },
    {
      "midi": 38,
      "hit": false,
      "t": 45652.1099999999,
      "d": 163.04325000000244,
      "v": 101
    },
    {
      "midi": 50,
      "hit": false,
      "t": 45652.10999999992,
      "d": 489.12975000000006,
      "v": 101
    },
    {
      "midi": 54,
      "hit": false,
      "t": 45652.10999999992,
      "d": 489.12975000000006,
      "v": 101
    },
    {
      "midi": 57,
      "hit": false,
      "t": 45652.10999999992,
      "d": 489.12975000000006,
      "v": 101
    },
    {
      "midi": 81,
      "hit": false,
      "t": 45652.11000000006,
      "d": 489.12975000000006,
      "v": 101
    },
    {
      "midi": 86,
      "hit": false,
      "t": 45652.11000000006,
      "d": 489.12975000000006,
      "v": 101
    },
    {
      "midi": 78,
      "hit": false,
      "t": 45652.11000000008,
      "d": 489.12975000000006,
      "v": 101
    },
    {
      "midi": 38,
      "hit": false,
      "t": 45815.1532499999,
      "d": 163.04325000000244,
      "v": 101
    },
    {
      "midi": 38,
      "hit": false,
      "t": 45978.1964999999,
      "d": 163.04325000000244,
      "v": 101
    },
    {
      "midi": 38,
      "hit": false,
      "t": 46141.239749999906,
      "d": 163.04325000000244,
      "v": 101
    },
    {
      "midi": 50,
      "hit": false,
      "t": 46141.23974999992,
      "d": 489.12975000000006,
      "v": 101
    },
    {
      "midi": 54,
      "hit": false,
      "t": 46141.23974999992,
      "d": 489.12975000000006,
      "v": 101
    },
    {
      "midi": 57,
      "hit": false,
      "t": 46141.23974999992,
      "d": 489.12975000000006,
      "v": 101
    },
    {
      "midi": 81,
      "hit": false,
      "t": 46141.23975000006,
      "d": 489.12975000000006,
      "v": 101
    },
    {
      "midi": 84,
      "hit": false,
      "t": 46141.23975000006,
      "d": 489.12975000000006,
      "v": 101
    },
    {
      "midi": 74,
      "hit": false,
      "t": 46141.23975000008,
      "d": 489.12975000000006,
      "v": 101
    },
    {
      "midi": 38,
      "hit": false,
      "t": 46304.28299999991,
      "d": 163.04325000000244,
      "v": 101
    },
    {
      "midi": 38,
      "hit": false,
      "t": 46467.32624999991,
      "d": 163.04325000000244,
      "v": 101
    },
    {
      "midi": 38,
      "hit": false,
      "t": 46630.36949999991,
      "d": 163.04325000000244,
      "v": 101
    },
    {
      "midi": 50,
      "hit": false,
      "t": 46630.36949999992,
      "d": 326.0864999999976,
      "v": 101
    },
    {
      "midi": 54,
      "hit": false,
      "t": 46630.36949999992,
      "d": 326.0864999999976,
      "v": 101
    },
    {
      "midi": 57,
      "hit": false,
      "t": 46630.36949999992,
      "d": 326.0864999999976,
      "v": 101
    },
    {
      "midi": 79,
      "hit": false,
      "t": 46630.36950000006,
      "d": 326.0864999999976,
      "v": 101
    },
    {
      "midi": 83,
      "hit": false,
      "t": 46630.36950000006,
      "d": 326.0864999999976,
      "v": 101
    },
    {
      "midi": 71,
      "hit": false,
      "t": 46630.36950000008,
      "d": 326.0864999999976,
      "v": 101
    },
    {
      "midi": 38,
      "hit": false,
      "t": 46793.412749999916,
      "d": 163.04325000000244,
      "v": 101
    },
    {
      "midi": 48,
      "hit": false,
      "t": 46956.45599999992,
      "d": 489.12975000000006,
      "v": 101
    },
    {
      "midi": 52,
      "hit": false,
      "t": 46956.45599999992,
      "d": 489.12975000000006,
      "v": 101
    },
    {
      "midi": 55,
      "hit": false,
      "t": 46956.45599999992,
      "d": 489.12975000000006,
      "v": 101
    },
    {
      "midi": 36,
      "hit": false,
      "t": 46956.45599999992,
      "d": 163.04325000000244,
      "v": 101
    },
    {
      "midi": 76,
      "hit": false,
      "t": 46956.45600000006,
      "d": 489.12975000000006,
      "v": 101
    },
    {
      "midi": 84,
      "hit": false,
      "t": 46956.45600000006,
      "d": 489.12975000000006,
      "v": 101
    },
    {
      "midi": 72,
      "hit": false,
      "t": 46956.45600000008,
      "d": 489.12975000000006,
      "v": 101
    },
    {
      "midi": 36,
      "hit": false,
      "t": 47119.49924999992,
      "d": 163.04325000000244,
      "v": 101
    },
    {
      "midi": 36,
      "hit": false,
      "t": 47282.54249999992,
      "d": 163.04325000000244,
      "v": 101
    },
    {
      "midi": 48,
      "hit": false,
      "t": 47445.58574999992,
      "d": 489.12975000000006,
      "v": 101
    },
    {
      "midi": 52,
      "hit": false,
      "t": 47445.58574999992,
      "d": 489.12975000000006,
      "v": 101
    },
    {
      "midi": 55,
      "hit": false,
      "t": 47445.58574999992,
      "d": 489.12975000000006,
      "v": 101
    },
    {
      "midi": 36,
      "hit": false,
      "t": 47445.585749999926,
      "d": 163.04325000000244,
      "v": 101
    },
    {
      "midi": 78,
      "hit": false,
      "t": 47445.58575000006,
      "d": 489.12975000000006,
      "v": 101
    },
    {
      "midi": 86,
      "hit": false,
      "t": 47445.58575000006,
      "d": 489.12975000000006,
      "v": 101
    },
    {
      "midi": 74,
      "hit": false,
      "t": 47445.58575000008,
      "d": 489.12975000000006,
      "v": 101
    },
    {
      "midi": 36,
      "hit": false,
      "t": 47608.62899999993,
      "d": 163.04325000000244,
      "v": 101
    },
    {
      "midi": 36,
      "hit": false,
      "t": 47771.67224999993,
      "d": 163.04325000000244,
      "v": 101
    },
    {
      "midi": 48,
      "hit": false,
      "t": 47934.71549999992,
      "d": 326.0864999999976,
      "v": 101
    },
    {
      "midi": 52,
      "hit": false,
      "t": 47934.71549999992,
      "d": 326.0864999999976,
      "v": 101
    },
    {
      "midi": 55,
      "hit": false,
      "t": 47934.71549999992,
      "d": 326.0864999999976,
      "v": 101
    },
    {
      "midi": 36,
      "hit": false,
      "t": 47934.71549999993,
      "d": 163.04325000000244,
      "v": 101
    },
    {
      "midi": 79,
      "hit": false,
      "t": 47934.71550000006,
      "d": 326.0864999999976,
      "v": 101
    },
    {
      "midi": 88,
      "hit": false,
      "t": 47934.71550000006,
      "d": 326.0864999999976,
      "v": 101
    },
    {
      "midi": 76,
      "hit": false,
      "t": 47934.71550000008,
      "d": 326.0864999999976,
      "v": 101
    },
    {
      "midi": 36,
      "hit": false,
      "t": 48097.758749999935,
      "d": 163.04325000000244,
      "v": 101
    },
    {
      "midi": 50,
      "hit": false,
      "t": 48260.801999999916,
      "d": 489.12975000000006,
      "v": 101
    },
    {
      "midi": 54,
      "hit": false,
      "t": 48260.801999999916,
      "d": 489.12975000000006,
      "v": 101
    },
    {
      "midi": 57,
      "hit": false,
      "t": 48260.801999999916,
      "d": 489.12975000000006,
      "v": 101
    },
    {
      "midi": 38,
      "hit": false,
      "t": 48260.80199999994,
      "d": 163.04325000000244,
      "v": 101
    },
    {
      "midi": 78,
      "hit": false,
      "t": 48260.802000000054,
      "d": 489.12975000000006,
      "v": 101
    },
    {
      "midi": 86,
      "hit": false,
      "t": 48260.802000000054,
      "d": 489.12975000000006,
      "v": 101
    },
    {
      "midi": 74,
      "hit": false,
      "t": 48260.802000000076,
      "d": 489.12975000000006,
      "v": 101
    },
    {
      "midi": 38,
      "hit": false,
      "t": 48423.84524999994,
      "d": 163.04325000000244,
      "v": 101
    },
    {
      "midi": 38,
      "hit": false,
      "t": 48586.88849999994,
      "d": 163.04325000000244,
      "v": 101
    },
    {
      "midi": 50,
      "hit": false,
      "t": 48749.931749999916,
      "d": 489.12975000000006,
      "v": 101
    },
    {
      "midi": 54,
      "hit": false,
      "t": 48749.931749999916,
      "d": 489.12975000000006,
      "v": 101
    },
    {
      "midi": 57,
      "hit": false,
      "t": 48749.931749999916,
      "d": 489.12975000000006,
      "v": 101
    },
    {
      "midi": 38,
      "hit": false,
      "t": 48749.931749999945,
      "d": 163.04325000000244,
      "v": 101
    },
    {
      "midi": 78,
      "hit": false,
      "t": 48749.931750000054,
      "d": 815.2162499999977,
      "v": 101
    },
    {
      "midi": 81,
      "hit": false,
      "t": 48749.931750000054,
      "d": 815.2162499999977,
      "v": 101
    },
    {
      "midi": 69,
      "hit": false,
      "t": 48749.931750000076,
      "d": 815.2162499999977,
      "v": 101
    },
    {
      "midi": 38,
      "hit": false,
      "t": 48912.97499999995,
      "d": 163.04325000000244,
      "v": 101
    },
    {
      "midi": 38,
      "hit": false,
      "t": 49076.01824999995,
      "d": 163.04325000000244,
      "v": 101
    },
    {
      "midi": 50,
      "hit": false,
      "t": 49239.061499999916,
      "d": 326.0864999999976,
      "v": 101
    },
    {
      "midi": 54,
      "hit": false,
      "t": 49239.061499999916,
      "d": 326.0864999999976,
      "v": 101
    },
    {
      "midi": 57,
      "hit": false,
      "t": 49239.061499999916,
      "d": 326.0864999999976,
      "v": 101
    },
    {
      "midi": 38,
      "hit": false,
      "t": 49239.06149999995,
      "d": 163.04325000000244,
      "v": 101
    },
    {
      "midi": 38,
      "hit": false,
      "t": 49402.104749999955,
      "d": 163.04325000000244,
      "v": 101
    },
    {
      "midi": 52,
      "hit": false,
      "t": 49565.147999999914,
      "d": 489.12975000000006,
      "v": 101
    },
    {
      "midi": 55,
      "hit": false,
      "t": 49565.147999999914,
      "d": 489.12975000000006,
      "v": 101
    },
    {
      "midi": 59,
      "hit": false,
      "t": 49565.147999999914,
      "d": 489.12975000000006,
      "v": 101
    },
    {
      "midi": 40,
      "hit": false,
      "t": 49565.14799999996,
      "d": 163.04325000000244,
      "v": 101
    },
    {
      "midi": 71,
      "hit": false,
      "t": 49565.14800000005,
      "d": 489.12975000000006,
      "v": 101
    },
    {
      "midi": 76,
      "hit": false,
      "t": 49565.14800000005,
      "d": 489.12975000000006,
      "v": 101
    },
    {
      "midi": 67,
      "hit": false,
      "t": 49565.148000000074,
      "d": 489.12975000000006,
      "v": 101
    },
    {
      "midi": 40,
      "hit": false,
      "t": 49728.19124999996,
      "d": 163.04325000000244,
      "v": 101
    },
    {
      "midi": 40,
      "hit": false,
      "t": 49891.23449999996,
      "d": 163.04325000000244,
      "v": 101
    },
    {
      "midi": 52,
      "hit": false,
      "t": 50054.277749999914,
      "d": 489.12975000000006,
      "v": 101
    },
    {
      "midi": 55,
      "hit": false,
      "t": 50054.277749999914,
      "d": 489.12975000000006,
      "v": 101
    },
    {
      "midi": 59,
      "hit": false,
      "t": 50054.277749999914,
      "d": 489.12975000000006,
      "v": 101
    },
    {
      "midi": 40,
      "hit": false,
      "t": 50054.277749999965,
      "d": 163.04325000000244,
      "v": 101
    },
    {
      "midi": 79,
      "hit": false,
      "t": 50054.27775000005,
      "d": 489.12975000000006,
      "v": 101
    },
    {
      "midi": 83,
      "hit": false,
      "t": 50054.27775000005,
      "d": 489.12975000000006,
      "v": 101
    },
    {
      "midi": 71,
      "hit": false,
      "t": 50054.277750000074,
      "d": 489.12975000000006,
      "v": 101
    },
    {
      "midi": 40,
      "hit": false,
      "t": 50217.32099999997,
      "d": 163.04325000000244,
      "v": 101
    },
    {
      "midi": 40,
      "hit": false,
      "t": 50380.36424999997,
      "d": 163.04325000000244,
      "v": 101
    },
    {
      "midi": 52,
      "hit": false,
      "t": 50543.407499999914,
      "d": 326.0864999999976,
      "v": 101
    },
    {
      "midi": 55,
      "hit": false,
      "t": 50543.407499999914,
      "d": 326.0864999999976,
      "v": 101
    },
    {
      "midi": 59,
      "hit": false,
      "t": 50543.407499999914,
      "d": 326.0864999999976,
      "v": 101
    },
    {
      "midi": 40,
      "hit": false,
      "t": 50543.40749999997,
      "d": 163.04325000000244,
      "v": 101
    },
    {
      "midi": 78,
      "hit": false,
      "t": 50543.40750000005,
      "d": 326.0864999999976,
      "v": 101
    },
    {
      "midi": 81,
      "hit": false,
      "t": 50543.40750000005,
      "d": 326.0864999999976,
      "v": 101
    },
    {
      "midi": 69,
      "hit": false,
      "t": 50543.407500000074,
      "d": 326.0864999999976,
      "v": 101
    },
    {
      "midi": 40,
      "hit": false,
      "t": 50706.450749999975,
      "d": 163.04325000000244,
      "v": 101
    },
    {
      "midi": 54,
      "hit": false,
      "t": 50869.49399999991,
      "d": 489.12975000000006,
      "v": 101
    },
    {
      "midi": 57,
      "hit": false,
      "t": 50869.49399999991,
      "d": 489.12975000000006,
      "v": 101
    },
    {
      "midi": 62,
      "hit": false,
      "t": 50869.49399999991,
      "d": 489.12975000000006,
      "v": 101
    },
    {
      "midi": 42,
      "hit": false,
      "t": 50869.49399999998,
      "d": 163.04325000000244,
      "v": 101
    },
    {
      "midi": 81,
      "hit": false,
      "t": 50869.49400000005,
      "d": 489.12975000000006,
      "v": 101
    },
    {
      "midi": 86,
      "hit": false,
      "t": 50869.49400000005,
      "d": 489.12975000000006,
      "v": 101
    },
    {
      "midi": 78,
      "hit": false,
      "t": 50869.49400000007,
      "d": 489.12975000000006,
      "v": 101
    },
    {
      "midi": 42,
      "hit": false,
      "t": 51032.53724999998,
      "d": 163.04325000000244,
      "v": 101
    },
    {
      "midi": 42,
      "hit": false,
      "t": 51195.58049999998,
      "d": 163.04325000000244,
      "v": 101
    },
    {
      "midi": 54,
      "hit": false,
      "t": 51358.62374999991,
      "d": 489.12975000000006,
      "v": 101
    },
    {
      "midi": 57,
      "hit": false,
      "t": 51358.62374999991,
      "d": 489.12975000000006,
      "v": 101
    },
    {
      "midi": 62,
      "hit": false,
      "t": 51358.62374999991,
      "d": 489.12975000000006,
      "v": 101
    },
    {
      "midi": 42,
      "hit": false,
      "t": 51358.623749999984,
      "d": 163.04325000000244,
      "v": 101
    },
    {
      "midi": 84,
      "hit": false,
      "t": 51358.62375000005,
      "d": 489.12975000000006,
      "v": 101
    },
    {
      "midi": 88,
      "hit": false,
      "t": 51358.62375000005,
      "d": 489.12975000000006,
      "v": 101
    },
    {
      "midi": 79,
      "hit": false,
      "t": 51358.62375000007,
      "d": 489.12975000000006,
      "v": 101
    },
    {
      "midi": 42,
      "hit": false,
      "t": 51521.66699999999,
      "d": 163.04325000000244,
      "v": 101
    },
    {
      "midi": 42,
      "hit": false,
      "t": 51684.71024999999,
      "d": 163.04325000000244,
      "v": 101
    },
    {
      "midi": 54,
      "hit": false,
      "t": 51847.75349999991,
      "d": 326.0864999999976,
      "v": 101
    },
    {
      "midi": 57,
      "hit": false,
      "t": 51847.75349999991,
      "d": 326.0864999999976,
      "v": 101
    },
    {
      "midi": 62,
      "hit": false,
      "t": 51847.75349999991,
      "d": 326.0864999999976,
      "v": 101
    },
    {
      "midi": 42,
      "hit": false,
      "t": 51847.75349999999,
      "d": 163.04325000000244,
      "v": 101
    },
    {
      "midi": 86,
      "hit": false,
      "t": 51847.75350000005,
      "d": 326.0864999999976,
      "v": 101
    },
    {
      "midi": 90,
      "hit": false,
      "t": 51847.75350000005,
      "d": 326.0864999999976,
      "v": 101
    },
    {
      "midi": 81,
      "hit": false,
      "t": 51847.75350000007,
      "d": 326.0864999999976,
      "v": 101
    },
    {
      "midi": 42,
      "hit": false,
      "t": 52010.796749999994,
      "d": 163.04325000000244,
      "v": 101
    },
    {
      "midi": 55,
      "hit": false,
      "t": 52173.83999999991,
      "d": 489.12975000000006,
      "v": 101
    },
    {
      "midi": 59,
      "hit": false,
      "t": 52173.83999999991,
      "d": 489.12975000000006,
      "v": 101
    },
    {
      "midi": 62,
      "hit": false,
      "t": 52173.83999999991,
      "d": 489.12975000000006,
      "v": 101
    },
    {
      "midi": 43,
      "hit": false,
      "t": 52173.84,
      "d": 163.04325000000244,
      "v": 101
    },
    {
      "midi": 86,
      "hit": false,
      "t": 52173.84000000005,
      "d": 489.12975000000006,
      "v": 101
    },
    {
      "midi": 91,
      "hit": false,
      "t": 52173.84000000005,
      "d": 489.12975000000006,
      "v": 101
    },
    {
      "midi": 79,
      "hit": false,
      "t": 52173.84000000007,
      "d": 489.12975000000006,
      "v": 101
    },
    {
      "midi": 43,
      "hit": false,
      "t": 52336.88325,
      "d": 163.04325000000244,
      "v": 101
    },
    {
      "midi": 43,
      "hit": false,
      "t": 52499.9265,
      "d": 163.04325000000244,
      "v": 101
    },
    {
      "midi": 55,
      "hit": false,
      "t": 52662.96974999991,
      "d": 489.12975000000006,
      "v": 101
    },
    {
      "midi": 59,
      "hit": false,
      "t": 52662.96974999991,
      "d": 489.12975000000006,
      "v": 101
    },
    {
      "midi": 62,
      "hit": false,
      "t": 52662.96974999991,
      "d": 489.12975000000006,
      "v": 101
    },
    {
      "midi": 43,
      "hit": false,
      "t": 52662.969750000004,
      "d": 163.04325000000244,
      "v": 101
    },
    {
      "midi": 90,
      "hit": false,
      "t": 52662.96975000005,
      "d": 489.12975000000006,
      "v": 101
    },
    {
      "midi": 93,
      "hit": false,
      "t": 52662.96975000005,
      "d": 489.12975000000006,
      "v": 101
    },
    {
      "midi": 81,
      "hit": false,
      "t": 52662.96975000007,
      "d": 489.12975000000006,
      "v": 101
    },
    {
      "midi": 43,
      "hit": false,
      "t": 52826.013000000006,
      "d": 163.04325000000244,
      "v": 101
    },
    {
      "midi": 43,
      "hit": false,
      "t": 52989.05625000001,
      "d": 163.04325000000244,
      "v": 101
    },
    {
      "midi": 55,
      "hit": false,
      "t": 53152.09949999991,
      "d": 326.0864999999976,
      "v": 101
    },
    {
      "midi": 59,
      "hit": false,
      "t": 53152.09949999991,
      "d": 326.0864999999976,
      "v": 101
    },
    {
      "midi": 62,
      "hit": false,
      "t": 53152.09949999991,
      "d": 326.0864999999976,
      "v": 101
    },
    {
      "midi": 43,
      "hit": false,
      "t": 53152.09950000001,
      "d": 163.04325000000244,
      "v": 101
    },
    {
      "midi": 91,
      "hit": false,
      "t": 53152.09950000005,
      "d": 326.0864999999976,
      "v": 101
    },
    {
      "midi": 95,
      "hit": false,
      "t": 53152.09950000005,
      "d": 326.0864999999976,
      "v": 101
    },
    {
      "midi": 83,
      "hit": false,
      "t": 53152.09950000007,
      "d": 326.0864999999976,
      "v": 101
    },
    {
      "midi": 43,
      "hit": false,
      "t": 53315.14275000001,
      "d": 163.04325000000244,
      "v": 101
    },
    {
      "midi": 57,
      "hit": false,
      "t": 53478.18599999991,
      "d": 489.12975000000006,
      "v": 101
    },
    {
      "midi": 62,
      "hit": false,
      "t": 53478.18599999991,
      "d": 489.12975000000006,
      "v": 101
    },
    {
      "midi": 66,
      "hit": false,
      "t": 53478.18599999991,
      "d": 489.12975000000006,
      "v": 101
    },
    {
      "midi": 45,
      "hit": false,
      "t": 53478.186000000016,
      "d": 163.04325000000244,
      "v": 101
    },
    {
      "midi": 93,
      "hit": false,
      "t": 53478.186000000045,
      "d": 489.12975000000006,
      "v": 101
    },
    {
      "midi": 98,
      "hit": false,
      "t": 53478.186000000045,
      "d": 489.12975000000006,
      "v": 101
    },
    {
      "midi": 86,
      "hit": false,
      "t": 53478.18600000007,
      "d": 489.12975000000006,
      "v": 101
    },
    {
      "midi": 45,
      "hit": false,
      "t": 53641.22925000002,
      "d": 163.04325000000244,
      "v": 101
    },
    {
      "midi": 45,
      "hit": false,
      "t": 53804.27250000002,
      "d": 163.04325000000244,
      "v": 101
    },
    {
      "midi": 57,
      "hit": false,
      "t": 53967.31574999991,
      "d": 489.12975000000006,
      "v": 101
    },
    {
      "midi": 62,
      "hit": false,
      "t": 53967.31574999991,
      "d": 489.12975000000006,
      "v": 101
    },
    {
      "midi": 66,
      "hit": false,
      "t": 53967.31574999991,
      "d": 489.12975000000006,
      "v": 101
    },
    {
      "midi": 45,
      "hit": false,
      "t": 53967.31575000002,
      "d": 163.04325000000244,
      "v": 101
    },
    {
      "midi": 86,
      "hit": false,
      "t": 53967.315750000045,
      "d": 815.2162499999977,
      "v": 101
    },
    {
      "midi": 93,
      "hit": false,
      "t": 53967.315750000045,
      "d": 815.2162499999977,
      "v": 101
    },
    {
      "midi": 81,
      "hit": false,
      "t": 53967.31575000007,
      "d": 815.2162499999977,
      "v": 101
    },
    {
      "midi": 45,
      "hit": false,
      "t": 54130.359000000026,
      "d": 163.04325000000244,
      "v": 101
    },
    {
      "midi": 45,
      "hit": false,
      "t": 54293.40225000003,
      "d": 163.04325000000244,
      "v": 101
    },
    {
      "midi": 57,
      "hit": false,
      "t": 54456.44549999991,
      "d": 326.0864999999976,
      "v": 101
    },
    {
      "midi": 62,
      "hit": false,
      "t": 54456.44549999991,
      "d": 326.0864999999976,
      "v": 101
    },
    {
      "midi": 66,
      "hit": false,
      "t": 54456.44549999991,
      "d": 326.0864999999976,
      "v": 101
    },
    {
      "midi": 45,
      "hit": false,
      "t": 54456.44550000003,
      "d": 163.04325000000244,
      "v": 101
    },
    {
      "midi": 45,
      "hit": false,
      "t": 54619.48875000003,
      "d": 163.04325000000244,
      "v": 101
    },
    {
      "midi": 64,
      "hit": false,
      "t": 55108.6184999999,
      "d": 2282.605499999998,
      "v": 101
    },
    {
      "midi": 67,
      "hit": false,
      "t": 55108.6184999999,
      "d": 2282.605499999998,
      "v": 101
    },
    {
      "midi": 69,
      "hit": false,
      "t": 55108.6184999999,
      "d": 2282.605499999998,
      "v": 101
    },
    {
      "midi": 34,
      "hit": false,
      "t": 55108.61850000003,
      "d": 2282.605499999998,
      "v": 101
    },
    {
      "midi": 46,
      "hit": false,
      "t": 55108.61850000003,
      "d": 2282.605499999998,
      "v": 101
    },
    {
      "midi": 81,
      "hit": false,
      "t": 55108.61850000004,
      "d": 2282.605499999998,
      "v": 101
    },
    {
      "midi": 88,
      "hit": false,
      "t": 55108.61850000004,
      "d": 2282.605499999998,
      "v": 101
    },
    {
      "midi": 76,
      "hit": false,
      "t": 55108.61850000006,
      "d": 2282.605499999998,
      "v": 101
    },
    {
      "midi": 79,
      "hit": false,
      "t": 55108.61850000006,
      "d": 2282.605499999998,
      "v": 101
    },
    {
      "midi": 55,
      "hit": false,
      "t": 57391.2239999999,
      "d": 1304.3459999999977,
      "v": 101
    },
    {
      "midi": 59,
      "hit": false,
      "t": 57391.2239999999,
      "d": 1304.3459999999977,
      "v": 101
    },
    {
      "midi": 40,
      "hit": false,
      "t": 57391.22400000003,
      "d": 163.04325000000244,
      "v": 101
    },
    {
      "midi": 76,
      "hit": false,
      "t": 57391.22400000006,
      "d": 326.0864999999976,
      "v": 101
    },
    {
      "midi": 40,
      "hit": false,
      "t": 57554.26725000003,
      "d": 163.04325000000244,
      "v": 101
    },
    {
      "midi": 40,
      "hit": false,
      "t": 57717.310500000036,
      "d": 163.04325000000244,
      "v": 101
    },
    {
      "midi": 71,
      "hit": false,
      "t": 57717.31050000006,
      "d": 326.0864999999976,
      "v": 101
    },
    {
      "midi": 40,
      "hit": false,
      "t": 57880.35375000004,
      "d": 163.04325000000244,
      "v": 101
    },
    {
      "midi": 40,
      "hit": false,
      "t": 58043.39700000004,
      "d": 163.04325000000244,
      "v": 101
    },
    {
      "midi": 79,
      "hit": false,
      "t": 58043.397000000055,
      "d": 326.0864999999976,
      "v": 101
    },
    {
      "midi": 40,
      "hit": false,
      "t": 58206.44025000004,
      "d": 163.04325000000244,
      "v": 101
    },
    {
      "midi": 40,
      "hit": false,
      "t": 58369.483500000046,
      "d": 163.04325000000244,
      "v": 101
    },
    {
      "midi": 74,
      "hit": false,
      "t": 58369.48350000005,
      "d": 326.0864999999976,
      "v": 101
    },
    {
      "midi": 40,
      "hit": false,
      "t": 58532.52675000005,
      "d": 163.04325000000244,
      "v": 101
    },
    {
      "midi": 58,
      "hit": false,
      "t": 58695.5699999999,
      "d": 489.12975000000006,
      "v": 101
    },
    {
      "midi": 61,
      "hit": false,
      "t": 58695.5699999999,
      "d": 489.12975000000006,
      "v": 101
    },
    {
      "midi": 78,
      "hit": false,
      "t": 58695.57000000005,
      "d": 326.0864999999976,
      "v": 101
    },
    {
      "midi": 42,
      "hit": false,
      "t": 58695.57000000005,
      "d": 163.04325000000244,
      "v": 101
    },
    {
      "midi": 42,
      "hit": false,
      "t": 58858.61325000005,
      "d": 163.04325000000244,
      "v": 101
    },
    {
      "midi": 73,
      "hit": false,
      "t": 59021.65650000005,
      "d": 326.0864999999976,
      "v": 101
    },
    {
      "midi": 42,
      "hit": false,
      "t": 59021.656500000056,
      "d": 163.04325000000244,
      "v": 101
    },
    {
      "midi": 57,
      "hit": false,
      "t": 59184.6997499999,
      "d": 815.2162499999977,
      "v": 101
    },
    {
      "midi": 60,
      "hit": false,
      "t": 59184.6997499999,
      "d": 815.2162499999977,
      "v": 101
    },
    {
      "midi": 41,
      "hit": false,
      "t": 59184.69975000006,
      "d": 163.04325000000244,
      "v": 101
    },
    {
      "midi": 65,
      "hit": false,
      "t": 59347.743000000046,
      "d": 326.0864999999976,
      "v": 101
    },
    {
      "midi": 41,
      "hit": false,
      "t": 59347.74300000006,
      "d": 163.04325000000244,
      "v": 101
    },
    {
      "midi": 41,
      "hit": false,
      "t": 59510.78625000006,
      "d": 163.04325000000244,
      "v": 101
    },
    {
      "midi": 77,
      "hit": false,
      "t": 59673.82950000004,
      "d": 326.0864999999976,
      "v": 101
    },
    {
      "midi": 41,
      "hit": false,
      "t": 59673.829500000065,
      "d": 163.04325000000244,
      "v": 101
    },
    {
      "midi": 41,
      "hit": false,
      "t": 59836.87275000007,
      "d": 163.04325000000244,
      "v": 101
    },
    {
      "midi": 55,
      "hit": false,
      "t": 59999.915999999896,
      "d": 1304.3459999999977,
      "v": 101
    },
    {
      "midi": 59,
      "hit": false,
      "t": 59999.915999999896,
      "d": 1304.3459999999977,
      "v": 101
    },
    {
      "midi": 76,
      "hit": false,
      "t": 59999.91600000004,
      "d": 326.0864999999976,
      "v": 101
    },
    {
      "midi": 40,
      "hit": false,
      "t": 59999.91600000007,
      "d": 163.04325000000244,
      "v": 101
    },
    {
      "midi": 40,
      "hit": false,
      "t": 60162.95925000007,
      "d": 163.04325000000244,
      "v": 101
    },
    {
      "midi": 71,
      "hit": false,
      "t": 60326.00250000004,
      "d": 326.0864999999976,
      "v": 101
    },
    {
      "midi": 40,
      "hit": false,
      "t": 60326.002500000075,
      "d": 163.04325000000244,
      "v": 101
    },
    {
      "midi": 40,
      "hit": false,
      "t": 60489.04575000008,
      "d": 163.04325000000244,
      "v": 101
    },
    {
      "midi": 79,
      "hit": false,
      "t": 60652.089000000036,
      "d": 326.0864999999976,
      "v": 101
    },
    {
      "midi": 40,
      "hit": false,
      "t": 60652.08900000008,
      "d": 163.04325000000244,
      "v": 101
    },
    {
      "midi": 40,
      "hit": false,
      "t": 60815.13225000008,
      "d": 163.04325000000244,
      "v": 101
    },
    {
      "midi": 74,
      "hit": false,
      "t": 60978.175500000034,
      "d": 326.0864999999976,
      "v": 101
    },
    {
      "midi": 40,
      "hit": false,
      "t": 60978.175500000085,
      "d": 163.04325000000244,
      "v": 101
    },
    {
      "midi": 40,
      "hit": false,
      "t": 61141.21875000009,
      "d": 163.04325000000244,
      "v": 101
    },
    {
      "midi": 58,
      "hit": false,
      "t": 61304.26199999989,
      "d": 489.12975000000006,
      "v": 101
    },
    {
      "midi": 61,
      "hit": false,
      "t": 61304.26199999989,
      "d": 489.12975000000006,
      "v": 101
    },
    {
      "midi": 78,
      "hit": false,
      "t": 61304.26200000003,
      "d": 326.0864999999976,
      "v": 101
    },
    {
      "midi": 42,
      "hit": false,
      "t": 61304.26200000009,
      "d": 163.04325000000244,
      "v": 101
    },
    {
      "midi": 42,
      "hit": false,
      "t": 61467.30525000009,
      "d": 163.04325000000244,
      "v": 101
    },
    {
      "midi": 73,
      "hit": false,
      "t": 61630.34850000003,
      "d": 326.0864999999976,
      "v": 101
    },
    {
      "midi": 42,
      "hit": false,
      "t": 61630.348500000095,
      "d": 163.04325000000244,
      "v": 101
    },
    {
      "midi": 57,
      "hit": false,
      "t": 61793.39174999989,
      "d": 815.2162499999977,
      "v": 101
    },
    {
      "midi": 60,
      "hit": false,
      "t": 61793.39174999989,
      "d": 815.2162499999977,
      "v": 101
    },
    {
      "midi": 41,
      "hit": false,
      "t": 61793.3917500001,
      "d": 163.04325000000244,
      "v": 101
    },
    {
      "midi": 65,
      "hit": false,
      "t": 61956.43500000003,
      "d": 326.0864999999976,
      "v": 101
    },
    {
      "midi": 41,
      "hit": false,
      "t": 61956.4350000001,
      "d": 163.04325000000244,
      "v": 101
    },
    {
      "midi": 41,
      "hit": false,
      "t": 62119.4782500001,
      "d": 163.04325000000244,
      "v": 101
    },
    {
      "midi": 77,
      "hit": false,
      "t": 62282.521500000024,
      "d": 326.0864999999976,
      "v": 101
    },
    {
      "midi": 41,
      "hit": false,
      "t": 62282.521500000104,
      "d": 163.04325000000244,
      "v": 101
    },
    {
      "midi": 41,
      "hit": false,
      "t": 62445.56475000011,
      "d": 163.04325000000244,
      "v": 101
    },
    {
      "midi": 55,
      "hit": false,
      "t": 62608.60799999989,
      "d": 1304.3459999999977,
      "v": 101
    },
    {
      "midi": 59,
      "hit": false,
      "t": 62608.60799999989,
      "d": 1304.3459999999977,
      "v": 101
    },
    {
      "midi": 76,
      "hit": false,
      "t": 62608.60800000002,
      "d": 326.0864999999976,
      "v": 101
    },
    {
      "midi": 40,
      "hit": false,
      "t": 62608.60800000011,
      "d": 163.04325000000244,
      "v": 101
    },
    {
      "midi": 40,
      "hit": false,
      "t": 62771.65125000011,
      "d": 163.04325000000244,
      "v": 101
    },
    {
      "midi": 71,
      "hit": false,
      "t": 62934.69450000002,
      "d": 326.0864999999976,
      "v": 101
    },
    {
      "midi": 40,
      "hit": false,
      "t": 62934.694500000114,
      "d": 163.04325000000244,
      "v": 101
    },
    {
      "midi": 40,
      "hit": false,
      "t": 63097.73775000012,
      "d": 163.04325000000244,
      "v": 101
    },
    {
      "midi": 79,
      "hit": false,
      "t": 63260.78100000002,
      "d": 326.0864999999976,
      "v": 101
    },
    {
      "midi": 40,
      "hit": false,
      "t": 63260.78100000012,
      "d": 163.04325000000244,
      "v": 101
    },
    {
      "midi": 40,
      "hit": false,
      "t": 63423.82425000012,
      "d": 163.04325000000244,
      "v": 101
    },
    {
      "midi": 74,
      "hit": false,
      "t": 63586.867500000015,
      "d": 326.0864999999976,
      "v": 101
    },
    {
      "midi": 40,
      "hit": false,
      "t": 63586.867500000124,
      "d": 163.04325000000244,
      "v": 101
    },
    {
      "midi": 40,
      "hit": false,
      "t": 63749.91075000013,
      "d": 163.04325000000244,
      "v": 101
    },
    {
      "midi": 58,
      "hit": false,
      "t": 63912.95399999989,
      "d": 489.12975000000006,
      "v": 101
    },
    {
      "midi": 61,
      "hit": false,
      "t": 63912.95399999989,
      "d": 489.12975000000006,
      "v": 101
    },
    {
      "midi": 78,
      "hit": false,
      "t": 63912.95400000001,
      "d": 326.0864999999976,
      "v": 101
    },
    {
      "midi": 42,
      "hit": false,
      "t": 63912.95400000013,
      "d": 163.04325000000244,
      "v": 101
    },
    {
      "midi": 42,
      "hit": false,
      "t": 64075.99725000013,
      "d": 163.04325000000244,
      "v": 101
    },
    {
      "midi": 73,
      "hit": false,
      "t": 64239.04050000001,
      "d": 326.0864999999976,
      "v": 101
    },
    {
      "midi": 42,
      "hit": false,
      "t": 64239.040500000134,
      "d": 163.04325000000244,
      "v": 101
    },
    {
      "midi": 57,
      "hit": false,
      "t": 64402.08374999989,
      "d": 815.2162499999977,
      "v": 101
    },
    {
      "midi": 60,
      "hit": false,
      "t": 64402.08374999989,
      "d": 815.2162499999977,
      "v": 101
    },
    {
      "midi": 41,
      "hit": false,
      "t": 64402.083750000136,
      "d": 163.04325000000244,
      "v": 101
    },
    {
      "midi": 65,
      "hit": false,
      "t": 64565.12700000001,
      "d": 326.0864999999976,
      "v": 101
    },
    {
      "midi": 41,
      "hit": false,
      "t": 64565.12700000014,
      "d": 163.04325000000244,
      "v": 101
    },
    {
      "midi": 41,
      "hit": false,
      "t": 64728.17025000014,
      "d": 163.04325000000244,
      "v": 101
    },
    {
      "midi": 77,
      "hit": false,
      "t": 64891.213500000005,
      "d": 326.0864999999976,
      "v": 101
    },
    {
      "midi": 41,
      "hit": false,
      "t": 64891.21350000014,
      "d": 163.04325000000244,
      "v": 101
    },
    {
      "midi": 41,
      "hit": false,
      "t": 65054.256750000146,
      "d": 163.04325000000244,
      "v": 101
    },
    {
      "midi": 55,
      "hit": false,
      "t": 65217.29999999989,
      "d": 1304.346000000005,
      "v": 101
    },
    {
      "midi": 59,
      "hit": false,
      "t": 65217.29999999989,
      "d": 1304.346000000005,
      "v": 101
    },
    {
      "midi": 76,
      "hit": false,
      "t": 65217.3,
      "d": 326.0865000000049,
      "v": 101
    },
    {
      "midi": 40,
      "hit": false,
      "t": 65217.30000000015,
      "d": 163.04325000000244,
      "v": 101
    },
    {
      "midi": 40,
      "hit": false,
      "t": 65380.34325000015,
      "d": 163.04325000000244,
      "v": 101
    },
    {
      "midi": 71,
      "hit": false,
      "t": 65543.38650000001,
      "d": 326.0865000000049,
      "v": 101
    },
    {
      "midi": 40,
      "hit": false,
      "t": 65543.38650000015,
      "d": 163.04325000000244,
      "v": 101
    },
    {
      "midi": 40,
      "hit": false,
      "t": 65706.42975000016,
      "d": 163.04325000000244,
      "v": 101
    },
    {
      "midi": 79,
      "hit": false,
      "t": 65869.47300000001,
      "d": 326.0865000000049,
      "v": 101
    },
    {
      "midi": 40,
      "hit": false,
      "t": 65869.47300000016,
      "d": 163.04325000000244,
      "v": 101
    },
    {
      "midi": 40,
      "hit": false,
      "t": 66032.51625000016,
      "d": 163.04325000000244,
      "v": 101
    },
    {
      "midi": 74,
      "hit": false,
      "t": 66195.55950000002,
      "d": 326.0865000000049,
      "v": 101
    },
    {
      "midi": 40,
      "hit": false,
      "t": 66195.55950000016,
      "d": 163.04325000000244,
      "v": 101
    },
    {
      "midi": 40,
      "hit": false,
      "t": 66358.60275000017,
      "d": 163.04325000000244,
      "v": 101
    },
    {
      "midi": 58,
      "hit": false,
      "t": 66521.64599999989,
      "d": 489.1297499999928,
      "v": 101
    },
    {
      "midi": 61,
      "hit": false,
      "t": 66521.64599999989,
      "d": 489.1297499999928,
      "v": 101
    },
    {
      "midi": 78,
      "hit": false,
      "t": 66521.64600000002,
      "d": 326.0865000000049,
      "v": 101
    },
    {
      "midi": 42,
      "hit": false,
      "t": 66521.64600000017,
      "d": 163.04325000000244,
      "v": 101
    },
    {
      "midi": 42,
      "hit": false,
      "t": 66684.68925000017,
      "d": 163.04325000000244,
      "v": 101
    },
    {
      "midi": 73,
      "hit": false,
      "t": 66847.73250000003,
      "d": 326.0865000000049,
      "v": 101
    },
    {
      "midi": 42,
      "hit": false,
      "t": 66847.73250000017,
      "d": 163.04325000000244,
      "v": 101
    },
    {
      "midi": 57,
      "hit": false,
      "t": 67010.77574999988,
      "d": 815.2162499999977,
      "v": 101
    },
    {
      "midi": 60,
      "hit": false,
      "t": 67010.77574999988,
      "d": 815.2162499999977,
      "v": 101
    },
    {
      "midi": 41,
      "hit": false,
      "t": 67010.77575000018,
      "d": 163.04325000000244,
      "v": 101
    },
    {
      "midi": 65,
      "hit": false,
      "t": 67173.81900000003,
      "d": 326.0865000000049,
      "v": 101
    },
    {
      "midi": 41,
      "hit": false,
      "t": 67173.81900000018,
      "d": 163.04325000000244,
      "v": 101
    },
    {
      "midi": 41,
      "hit": false,
      "t": 67336.86225000018,
      "d": 163.04325000000244,
      "v": 101
    },
    {
      "midi": 77,
      "hit": false,
      "t": 67499.90550000004,
      "d": 326.0865000000049,
      "v": 101
    },
    {
      "midi": 41,
      "hit": false,
      "t": 67499.90550000018,
      "d": 163.04325000000244,
      "v": 101
    },
    {
      "midi": 41,
      "hit": false,
      "t": 67662.94875000019,
      "d": 163.04325000000244,
      "v": 101
    },
    {
      "midi": 55,
      "hit": false,
      "t": 67825.99199999988,
      "d": 1304.346000000005,
      "v": 101
    },
    {
      "midi": 59,
      "hit": false,
      "t": 67825.99199999988,
      "d": 1304.346000000005,
      "v": 101
    },
    {
      "midi": 76,
      "hit": false,
      "t": 67825.99200000004,
      "d": 326.0865000000049,
      "v": 101
    },
    {
      "midi": 40,
      "hit": false,
      "t": 67825.99200000019,
      "d": 163.04325000000244,
      "v": 101
    },
    {
      "midi": 83,
      "hit": false,
      "t": 67989.03525000004,
      "d": 163.04325000000244,
      "v": 101
    },
    {
      "midi": 40,
      "hit": false,
      "t": 67989.03525000019,
      "d": 163.04325000000244,
      "v": 101
    },
    {
      "midi": 88,
      "hit": false,
      "t": 68152.07850000005,
      "d": 163.04325000000244,
      "v": 101
    },
    {
      "midi": 71,
      "hit": false,
      "t": 68152.07850000005,
      "d": 326.0865000000049,
      "v": 101
    },
    {
      "midi": 40,
      "hit": false,
      "t": 68152.07850000019,
      "d": 163.04325000000244,
      "v": 101
    },
    {
      "midi": 79,
      "hit": false,
      "t": 68315.12175000005,
      "d": 163.04325000000244,
      "v": 101
    },
    {
      "midi": 40,
      "hit": false,
      "t": 68315.1217500002,
      "d": 163.04325000000244,
      "v": 101
    },
    {
      "midi": 91,
      "hit": false,
      "t": 68478.16500000005,
      "d": 163.04325000000244,
      "v": 101
    },
    {
      "midi": 79,
      "hit": false,
      "t": 68478.16500000005,
      "d": 326.0865000000049,
      "v": 101
    },
    {
      "midi": 40,
      "hit": false,
      "t": 68478.1650000002,
      "d": 163.04325000000244,
      "v": 101
    },
    {
      "midi": 90,
      "hit": false,
      "t": 68641.20825000005,
      "d": 163.04325000000244,
      "v": 101
    },
    {
      "midi": 40,
      "hit": false,
      "t": 68641.2082500002,
      "d": 163.04325000000244,
      "v": 101
    },
    {
      "midi": 86,
      "hit": false,
      "t": 68804.25150000006,
      "d": 163.04325000000244,
      "v": 101
    },
    {
      "midi": 74,
      "hit": false,
      "t": 68804.25150000006,
      "d": 326.0865000000049,
      "v": 101
    },
    {
      "midi": 40,
      "hit": false,
      "t": 68804.2515000002,
      "d": 163.04325000000244,
      "v": 101
    },
    {
      "midi": 83,
      "hit": false,
      "t": 68967.29475000006,
      "d": 163.04325000000244,
      "v": 101
    },
    {
      "midi": 40,
      "hit": false,
      "t": 68967.2947500002,
      "d": 163.04325000000244,
      "v": 101
    },
    {
      "midi": 58,
      "hit": false,
      "t": 69130.33799999989,
      "d": 489.1297499999928,
      "v": 101
    },
    {
      "midi": 61,
      "hit": false,
      "t": 69130.33799999989,
      "d": 489.1297499999928,
      "v": 101
    },
    {
      "midi": 78,
      "hit": false,
      "t": 69130.33800000006,
      "d": 326.0865000000049,
      "v": 101
    },
    {
      "midi": 42,
      "hit": false,
      "t": 69130.3380000002,
      "d": 163.04325000000244,
      "v": 101
    },
    {
      "midi": 42,
      "hit": false,
      "t": 69293.38125000021,
      "d": 163.04325000000244,
      "v": 101
    },
    {
      "midi": 73,
      "hit": false,
      "t": 69456.42450000007,
      "d": 326.0865000000049,
      "v": 101
    },
    {
      "midi": 42,
      "hit": false,
      "t": 69456.42450000021,
      "d": 163.04325000000244,
      "v": 101
    },
    {
      "midi": 57,
      "hit": false,
      "t": 69619.46774999988,
      "d": 815.2162499999977,
      "v": 101
    },
    {
      "midi": 60,
      "hit": false,
      "t": 69619.46774999988,
      "d": 815.2162499999977,
      "v": 101
    },
    {
      "midi": 41,
      "hit": false,
      "t": 69619.46775000021,
      "d": 163.04325000000244,
      "v": 101
    },
    {
      "midi": 65,
      "hit": false,
      "t": 69782.51100000007,
      "d": 326.0865000000049,
      "v": 101
    },
    {
      "midi": 41,
      "hit": false,
      "t": 69782.51100000022,
      "d": 163.04325000000244,
      "v": 101
    },
    {
      "midi": 41,
      "hit": false,
      "t": 69945.55425000022,
      "d": 163.04325000000244,
      "v": 101
    },
    {
      "midi": 77,
      "hit": false,
      "t": 70108.59750000008,
      "d": 326.0865000000049,
      "v": 101
    },
    {
      "midi": 41,
      "hit": false,
      "t": 70108.59750000022,
      "d": 163.04325000000244,
      "v": 101
    },
    {
      "midi": 41,
      "hit": false,
      "t": 70271.64075000022,
      "d": 163.04325000000244,
      "v": 101
    },
    {
      "midi": 55,
      "hit": false,
      "t": 70434.68399999988,
      "d": 1304.346000000005,
      "v": 101
    },
    {
      "midi": 59,
      "hit": false,
      "t": 70434.68399999988,
      "d": 1304.346000000005,
      "v": 101
    },
    {
      "midi": 76,
      "hit": false,
      "t": 70434.68400000008,
      "d": 326.0865000000049,
      "v": 101
    },
    {
      "midi": 40,
      "hit": false,
      "t": 70434.68400000023,
      "d": 163.04325000000244,
      "v": 101
    },
    {
      "midi": 83,
      "hit": false,
      "t": 70597.72725000005,
      "d": 163.04325000000244,
      "v": 101
    },
    {
      "midi": 40,
      "hit": false,
      "t": 70597.72725000023,
      "d": 163.04325000000244,
      "v": 101
    },
    {
      "midi": 88,
      "hit": false,
      "t": 70760.77050000006,
      "d": 163.04325000000244,
      "v": 101
    },
    {
      "midi": 71,
      "hit": false,
      "t": 70760.77050000009,
      "d": 326.0865000000049,
      "v": 101
    },
    {
      "midi": 40,
      "hit": false,
      "t": 70760.77050000023,
      "d": 163.04325000000244,
      "v": 101
    },
    {
      "midi": 79,
      "hit": false,
      "t": 70923.81375000006,
      "d": 163.04325000000244,
      "v": 101
    },
    {
      "midi": 40,
      "hit": false,
      "t": 70923.81375000023,
      "d": 163.04325000000244,
      "v": 101
    },
    {
      "midi": 91,
      "hit": false,
      "t": 71086.85700000006,
      "d": 163.04325000000244,
      "v": 101
    },
    {
      "midi": 79,
      "hit": false,
      "t": 71086.85700000009,
      "d": 326.0865000000049,
      "v": 101
    },
    {
      "midi": 40,
      "hit": false,
      "t": 71086.85700000024,
      "d": 163.04325000000244,
      "v": 101
    },
    {
      "midi": 90,
      "hit": false,
      "t": 71249.90025000006,
      "d": 163.04325000000244,
      "v": 101
    },
    {
      "midi": 40,
      "hit": false,
      "t": 71249.90025000024,
      "d": 163.04325000000244,
      "v": 101
    },
    {
      "midi": 86,
      "hit": false,
      "t": 71412.94350000007,
      "d": 163.04325000000244,
      "v": 101
    },
    {
      "midi": 74,
      "hit": false,
      "t": 71412.9435000001,
      "d": 326.0865000000049,
      "v": 101
    },
    {
      "midi": 40,
      "hit": false,
      "t": 71412.94350000024,
      "d": 163.04325000000244,
      "v": 101
    },
    {
      "midi": 83,
      "hit": false,
      "t": 71575.98675000007,
      "d": 163.04325000000244,
      "v": 101
    },
    {
      "midi": 40,
      "hit": false,
      "t": 71575.98675000024,
      "d": 163.04325000000244,
      "v": 101
    },
    {
      "midi": 58,
      "hit": false,
      "t": 71739.02999999988,
      "d": 489.1297499999928,
      "v": 101
    },
    {
      "midi": 61,
      "hit": false,
      "t": 71739.02999999988,
      "d": 489.1297499999928,
      "v": 101
    },
    {
      "midi": 78,
      "hit": false,
      "t": 71739.0300000001,
      "d": 326.0865000000049,
      "v": 101
    },
    {
      "midi": 42,
      "hit": false,
      "t": 71739.03000000025,
      "d": 163.04325000000244,
      "v": 101
    },
    {
      "midi": 42,
      "hit": false,
      "t": 71902.07325000025,
      "d": 163.04325000000244,
      "v": 101
    },
    {
      "midi": 73,
      "hit": false,
      "t": 72065.1165000001,
      "d": 326.0865000000049,
      "v": 101
    },
    {
      "midi": 42,
      "hit": false,
      "t": 72065.11650000025,
      "d": 163.04325000000244,
      "v": 101
    },
    {
      "midi": 57,
      "hit": false,
      "t": 72228.15974999988,
      "d": 815.2162499999977,
      "v": 101
    },
    {
      "midi": 60,
      "hit": false,
      "t": 72228.15974999988,
      "d": 815.2162499999977,
      "v": 101
    },
    {
      "midi": 41,
      "hit": false,
      "t": 72228.15975000025,
      "d": 163.04325000000244,
      "v": 101
    },
    {
      "midi": 65,
      "hit": false,
      "t": 72391.20300000011,
      "d": 326.0865000000049,
      "v": 101
    },
    {
      "midi": 41,
      "hit": false,
      "t": 72391.20300000026,
      "d": 163.04325000000244,
      "v": 101
    },
    {
      "midi": 41,
      "hit": false,
      "t": 72554.24625000026,
      "d": 163.04325000000244,
      "v": 101
    },
    {
      "midi": 77,
      "hit": false,
      "t": 72717.28950000012,
      "d": 326.0865000000049,
      "v": 101
    },
    {
      "midi": 41,
      "hit": false,
      "t": 72717.28950000026,
      "d": 163.04325000000244,
      "v": 101
    },
    {
      "midi": 41,
      "hit": false,
      "t": 72880.33275000026,
      "d": 163.04325000000244,
      "v": 101
    },
    {
      "midi": 55,
      "hit": false,
      "t": 73043.37599999987,
      "d": 1304.346000000005,
      "v": 101
    },
    {
      "midi": 59,
      "hit": false,
      "t": 73043.37599999987,
      "d": 1304.346000000005,
      "v": 101
    },
    {
      "midi": 76,
      "hit": false,
      "t": 73043.37600000012,
      "d": 326.0865000000049,
      "v": 101
    },
    {
      "midi": 40,
      "hit": false,
      "t": 73043.37600000027,
      "d": 163.04325000000244,
      "v": 101
    },
    {
      "midi": 83,
      "hit": false,
      "t": 73206.41925000006,
      "d": 163.04325000000244,
      "v": 101
    },
    {
      "midi": 40,
      "hit": false,
      "t": 73206.41925000027,
      "d": 163.04325000000244,
      "v": 101
    },
    {
      "midi": 88,
      "hit": false,
      "t": 73369.46250000007,
      "d": 163.04325000000244,
      "v": 101
    },
    {
      "midi": 71,
      "hit": false,
      "t": 73369.46250000013,
      "d": 326.0865000000049,
      "v": 101
    },
    {
      "midi": 40,
      "hit": false,
      "t": 73369.46250000027,
      "d": 163.04325000000244,
      "v": 101
    },
    {
      "midi": 79,
      "hit": false,
      "t": 73532.50575000007,
      "d": 163.04325000000244,
      "v": 101
    },
    {
      "midi": 40,
      "hit": false,
      "t": 73532.50575000027,
      "d": 163.04325000000244,
      "v": 101
    },
    {
      "midi": 91,
      "hit": false,
      "t": 73695.54900000007,
      "d": 163.04325000000244,
      "v": 101
    },
    {
      "midi": 79,
      "hit": false,
      "t": 73695.54900000013,
      "d": 326.0865000000049,
      "v": 101
    },
    {
      "midi": 40,
      "hit": false,
      "t": 73695.54900000028,
      "d": 163.04325000000244,
      "v": 101
    },
    {
      "midi": 90,
      "hit": false,
      "t": 73858.59225000007,
      "d": 163.04325000000244,
      "v": 101
    },
    {
      "midi": 40,
      "hit": false,
      "t": 73858.59225000028,
      "d": 163.04325000000244,
      "v": 101
    },
    {
      "midi": 86,
      "hit": false,
      "t": 74021.63550000008,
      "d": 163.04325000000244,
      "v": 101
    },
    {
      "midi": 74,
      "hit": false,
      "t": 74021.63550000013,
      "d": 326.0865000000049,
      "v": 101
    },
    {
      "midi": 40,
      "hit": false,
      "t": 74021.63550000028,
      "d": 163.04325000000244,
      "v": 101
    },
    {
      "midi": 83,
      "hit": false,
      "t": 74184.67875000008,
      "d": 163.04325000000244,
      "v": 101
    },
    {
      "midi": 40,
      "hit": false,
      "t": 74184.67875000028,
      "d": 163.04325000000244,
      "v": 101
    },
    {
      "midi": 58,
      "hit": false,
      "t": 74347.72199999988,
      "d": 489.1297499999928,
      "v": 101
    },
    {
      "midi": 61,
      "hit": false,
      "t": 74347.72199999988,
      "d": 489.1297499999928,
      "v": 101
    },
    {
      "midi": 78,
      "hit": false,
      "t": 74347.72200000014,
      "d": 326.0865000000049,
      "v": 101
    },
    {
      "midi": 42,
      "hit": false,
      "t": 74347.72200000029,
      "d": 163.04325000000244,
      "v": 101
    },
    {
      "midi": 85,
      "hit": false,
      "t": 74510.76525000008,
      "d": 163.04325000000244,
      "v": 101
    },
    {
      "midi": 42,
      "hit": false,
      "t": 74510.76525000029,
      "d": 163.04325000000244,
      "v": 101
    },
    {
      "midi": 90,
      "hit": false,
      "t": 74673.80850000009,
      "d": 163.04325000000244,
      "v": 101
    },
    {
      "midi": 73,
      "hit": false,
      "t": 74673.80850000014,
      "d": 326.0865000000049,
      "v": 101
    },
    {
      "midi": 42,
      "hit": false,
      "t": 74673.80850000029,
      "d": 163.04325000000244,
      "v": 101
    },
    {
      "midi": 57,
      "hit": false,
      "t": 74836.85174999987,
      "d": 815.2162499999977,
      "v": 101
    },
    {
      "midi": 60,
      "hit": false,
      "t": 74836.85174999987,
      "d": 815.2162499999977,
      "v": 101
    },
    {
      "midi": 85,
      "hit": false,
      "t": 74836.85175000009,
      "d": 163.04325000000244,
      "v": 101
    },
    {
      "midi": 41,
      "hit": false,
      "t": 74836.85175000029,
      "d": 163.04325000000244,
      "v": 101
    },
    {
      "midi": 65,
      "hit": false,
      "t": 74999.89500000015,
      "d": 326.0865000000049,
      "v": 101
    },
    {
      "midi": 41,
      "hit": false,
      "t": 74999.8950000003,
      "d": 163.04325000000244,
      "v": 101
    },
    {
      "midi": 84,
      "hit": false,
      "t": 75162.9382500001,
      "d": 163.04325000000244,
      "v": 101
    },
    {
      "midi": 41,
      "hit": false,
      "t": 75162.9382500003,
      "d": 163.04325000000244,
      "v": 101
    },
    {
      "midi": 89,
      "hit": false,
      "t": 75325.9815000001,
      "d": 163.04325000000244,
      "v": 101
    },
    {
      "midi": 77,
      "hit": false,
      "t": 75325.98150000015,
      "d": 326.0865000000049,
      "v": 101
    },
    {
      "midi": 41,
      "hit": false,
      "t": 75325.9815000003,
      "d": 163.04325000000244,
      "v": 101
    },
    {
      "midi": 84,
      "hit": false,
      "t": 75489.0247500001,
      "d": 163.04325000000244,
      "v": 101
    },
    {
      "midi": 41,
      "hit": false,
      "t": 75489.0247500003,
      "d": 163.04325000000244,
      "v": 101
    },
    {
      "midi": 55,
      "hit": false,
      "t": 75652.06799999987,
      "d": 1304.346000000005,
      "v": 101
    },
    {
      "midi": 59,
      "hit": false,
      "t": 75652.06799999987,
      "d": 1304.346000000005,
      "v": 101
    },
    {
      "midi": 76,
      "hit": false,
      "t": 75652.06800000016,
      "d": 326.0865000000049,
      "v": 101
    },
    {
      "midi": 40,
      "hit": false,
      "t": 75652.0680000003,
      "d": 163.04325000000244,
      "v": 101
    },
    {
      "midi": 83,
      "hit": false,
      "t": 75815.1112500001,
      "d": 163.04325000000244,
      "v": 101
    },
    {
      "midi": 40,
      "hit": false,
      "t": 75815.11125000031,
      "d": 163.04325000000244,
      "v": 101
    },
    {
      "midi": 88,
      "hit": false,
      "t": 75978.1545000001,
      "d": 163.04325000000244,
      "v": 101
    },
    {
      "midi": 71,
      "hit": false,
      "t": 75978.15450000016,
      "d": 326.0865000000049,
      "v": 101
    },
    {
      "midi": 40,
      "hit": false,
      "t": 75978.15450000031,
      "d": 163.04325000000244,
      "v": 101
    },
    {
      "midi": 79,
      "hit": false,
      "t": 76141.19775000011,
      "d": 163.04325000000244,
      "v": 101
    },
    {
      "midi": 40,
      "hit": false,
      "t": 76141.19775000031,
      "d": 163.04325000000244,
      "v": 101
    },
    {
      "midi": 91,
      "hit": false,
      "t": 76304.24100000011,
      "d": 163.04325000000244,
      "v": 101
    },
    {
      "midi": 79,
      "hit": false,
      "t": 76304.24100000017,
      "d": 326.0865000000049,
      "v": 101
    },
    {
      "midi": 40,
      "hit": false,
      "t": 76304.24100000031,
      "d": 163.04325000000244,
      "v": 101
    },
    {
      "midi": 90,
      "hit": false,
      "t": 76467.28425000011,
      "d": 163.04325000000244,
      "v": 101
    },
    {
      "midi": 40,
      "hit": false,
      "t": 76467.28425000032,
      "d": 163.04325000000244,
      "v": 101
    },
    {
      "midi": 86,
      "hit": false,
      "t": 76630.32750000012,
      "d": 163.04325000000244,
      "v": 101
    },
    {
      "midi": 74,
      "hit": false,
      "t": 76630.32750000017,
      "d": 326.0865000000049,
      "v": 101
    },
    {
      "midi": 40,
      "hit": false,
      "t": 76630.32750000032,
      "d": 163.04325000000244,
      "v": 101
    },
    {
      "midi": 83,
      "hit": false,
      "t": 76793.37075000012,
      "d": 163.04325000000244,
      "v": 101
    },
    {
      "midi": 40,
      "hit": false,
      "t": 76793.37075000032,
      "d": 163.04325000000244,
      "v": 101
    },
    {
      "midi": 58,
      "hit": false,
      "t": 76956.41399999987,
      "d": 489.1297499999928,
      "v": 101
    },
    {
      "midi": 61,
      "hit": false,
      "t": 76956.41399999987,
      "d": 489.1297499999928,
      "v": 101
    },
    {
      "midi": 78,
      "hit": false,
      "t": 76956.41400000018,
      "d": 326.0865000000049,
      "v": 101
    },
    {
      "midi": 42,
      "hit": false,
      "t": 76956.41400000032,
      "d": 163.04325000000244,
      "v": 101
    },
    {
      "midi": 85,
      "hit": false,
      "t": 77119.45725000012,
      "d": 163.04325000000244,
      "v": 101
    },
    {
      "midi": 42,
      "hit": false,
      "t": 77119.45725000033,
      "d": 163.04325000000244,
      "v": 101
    },
    {
      "midi": 90,
      "hit": false,
      "t": 77282.50050000013,
      "d": 163.04325000000244,
      "v": 101
    },
    {
      "midi": 73,
      "hit": false,
      "t": 77282.50050000018,
      "d": 326.0865000000049,
      "v": 101
    },
    {
      "midi": 42,
      "hit": false,
      "t": 77282.50050000033,
      "d": 163.04325000000244,
      "v": 101
    },
    {
      "midi": 57,
      "hit": false,
      "t": 77445.54374999987,
      "d": 815.2162499999977,
      "v": 101
    },
    {
      "midi": 60,
      "hit": false,
      "t": 77445.54374999987,
      "d": 815.2162499999977,
      "v": 101
    },
    {
      "midi": 85,
      "hit": false,
      "t": 77445.54375000013,
      "d": 163.04325000000244,
      "v": 101
    },
    {
      "midi": 41,
      "hit": false,
      "t": 77445.54375000033,
      "d": 163.04325000000244,
      "v": 101
    },
    {
      "midi": 65,
      "hit": false,
      "t": 77608.58700000019,
      "d": 326.0865000000049,
      "v": 101
    },
    {
      "midi": 41,
      "hit": false,
      "t": 77608.58700000033,
      "d": 163.04325000000244,
      "v": 101
    },
    {
      "midi": 84,
      "hit": false,
      "t": 77771.63025000013,
      "d": 163.04325000000244,
      "v": 101
    },
    {
      "midi": 41,
      "hit": false,
      "t": 77771.63025000034,
      "d": 163.04325000000244,
      "v": 101
    },
    {
      "midi": 89,
      "hit": false,
      "t": 77934.67350000014,
      "d": 163.04325000000244,
      "v": 101
    },
    {
      "midi": 77,
      "hit": false,
      "t": 77934.6735000002,
      "d": 326.0865000000049,
      "v": 101
    },
    {
      "midi": 41,
      "hit": false,
      "t": 77934.67350000034,
      "d": 163.04325000000244,
      "v": 101
    },
    {
      "midi": 84,
      "hit": false,
      "t": 78097.71675000014,
      "d": 163.04325000000244,
      "v": 101
    },
    {
      "midi": 41,
      "hit": false,
      "t": 78097.71675000034,
      "d": 163.04325000000244,
      "v": 101
    },
    {
      "midi": 55,
      "hit": false,
      "t": 78260.75999999986,
      "d": 1304.346000000005,
      "v": 101
    },
    {
      "midi": 59,
      "hit": false,
      "t": 78260.75999999986,
      "d": 1304.346000000005,
      "v": 101
    },
    {
      "midi": 64,
      "hit": false,
      "t": 78260.75999999986,
      "d": 1304.346000000005,
      "v": 101
    },
    {
      "midi": 76,
      "hit": false,
      "t": 78260.76000000014,
      "d": 163.04325000000244,
      "v": 101
    },
    {
      "midi": 40,
      "hit": false,
      "t": 78260.76000000034,
      "d": 163.04325000000244,
      "v": 101
    },
    {
      "midi": 83,
      "hit": false,
      "t": 78423.80325000014,
      "d": 163.04325000000244,
      "v": 101
    },
    {
      "midi": 52,
      "hit": false,
      "t": 78423.80325000035,
      "d": 163.04325000000244,
      "v": 101
    },
    {
      "midi": 88,
      "hit": false,
      "t": 78586.84650000015,
      "d": 163.04325000000244,
      "v": 101
    },
    {
      "midi": 40,
      "hit": false,
      "t": 78586.84650000035,
      "d": 163.04325000000244,
      "v": 101
    },
    {
      "midi": 79,
      "hit": false,
      "t": 78749.88975000015,
      "d": 163.04325000000244,
      "v": 101
    },
    {
      "midi": 52,
      "hit": false,
      "t": 78749.88975000035,
      "d": 163.04325000000244,
      "v": 101
    },
    {
      "midi": 91,
      "hit": false,
      "t": 78912.93300000015,
      "d": 163.04325000000244,
      "v": 101
    },
    {
      "midi": 40,
      "hit": false,
      "t": 78912.93300000035,
      "d": 163.04325000000244,
      "v": 101
    },
    {
      "midi": 90,
      "hit": false,
      "t": 79075.97625000015,
      "d": 163.04325000000244,
      "v": 101
    },
    {
      "midi": 52,
      "hit": false,
      "t": 79075.97625000036,
      "d": 163.04325000000244,
      "v": 101
    },
    {
      "midi": 86,
      "hit": false,
      "t": 79239.01950000015,
      "d": 163.04325000000244,
      "v": 101
    },
    {
      "midi": 40,
      "hit": false,
      "t": 79239.01950000036,
      "d": 163.04325000000244,
      "v": 101
    },
    {
      "midi": 83,
      "hit": false,
      "t": 79402.06275000016,
      "d": 163.04325000000244,
      "v": 101
    },
    {
      "midi": 52,
      "hit": false,
      "t": 79402.06275000036,
      "d": 163.04325000000244,
      "v": 101
    },
    {
      "midi": 54,
      "hit": false,
      "t": 79565.10599999987,
      "d": 1304.346000000005,
      "v": 101
    },
    {
      "midi": 57,
      "hit": false,
      "t": 79565.10599999987,
      "d": 1304.346000000005,
      "v": 101
    },
    {
      "midi": 62,
      "hit": false,
      "t": 79565.10599999987,
      "d": 1304.346000000005,
      "v": 101
    },
    {
      "midi": 74,
      "hit": false,
      "t": 79565.10600000016,
      "d": 163.04325000000244,
      "v": 101
    },
    {
      "midi": 38,
      "hit": false,
      "t": 79565.10600000036,
      "d": 163.04325000000244,
      "v": 101
    },
    {
      "midi": 81,
      "hit": false,
      "t": 79728.14925000016,
      "d": 163.04325000000244,
      "v": 101
    },
    {
      "midi": 50,
      "hit": false,
      "t": 79728.14925000037,
      "d": 163.04325000000244,
      "v": 101
    },
    {
      "midi": 86,
      "hit": false,
      "t": 79891.19250000016,
      "d": 163.04325000000244,
      "v": 101
    },
    {
      "midi": 38,
      "hit": false,
      "t": 79891.19250000037,
      "d": 163.04325000000244,
      "v": 101
    },
    {
      "midi": 78,
      "hit": false,
      "t": 80054.23575000017,
      "d": 163.04325000000244,
      "v": 101
    },
    {
      "midi": 50,
      "hit": false,
      "t": 80054.23575000037,
      "d": 163.04325000000244,
      "v": 101
    },
    {
      "midi": 90,
      "hit": false,
      "t": 80217.27900000017,
      "d": 163.04325000000244,
      "v": 101
    },
    {
      "midi": 38,
      "hit": false,
      "t": 80217.27900000037,
      "d": 163.04325000000244,
      "v": 101
    },
    {
      "midi": 88,
      "hit": false,
      "t": 80380.32225000017,
      "d": 163.04325000000244,
      "v": 101
    },
    {
      "midi": 50,
      "hit": false,
      "t": 80380.32225000038,
      "d": 163.04325000000244,
      "v": 101
    },
    {
      "midi": 86,
      "hit": false,
      "t": 80543.36550000017,
      "d": 163.04325000000244,
      "v": 101
    },
    {
      "midi": 38,
      "hit": false,
      "t": 80543.36550000038,
      "d": 163.04325000000244,
      "v": 101
    },
    {
      "midi": 81,
      "hit": false,
      "t": 80706.40875000018,
      "d": 163.04325000000244,
      "v": 101
    },
    {
      "midi": 50,
      "hit": false,
      "t": 80706.40875000038,
      "d": 163.04325000000244,
      "v": 101
    },
    {
      "midi": 52,
      "hit": false,
      "t": 80869.45199999987,
      "d": 163.04325000000244,
      "v": 101
    },
    {
      "midi": 72,
      "hit": false,
      "t": 80869.4520000002,
      "d": 163.04325000000244,
      "v": 101
    },
    {
      "midi": 36,
      "hit": false,
      "t": 80869.45200000038,
      "d": 326.0865000000049,
      "v": 101
    },
    {
      "midi": 53,
      "hit": false,
      "t": 81032.49524999988,
      "d": 20.380406249998487,
      "v": 101
    },
    {
      "midi": 79,
      "hit": false,
      "t": 81032.4952500002,
      "d": 163.04325000000244,
      "v": 101
    },
    {
      "midi": 55,
      "hit": false,
      "t": 81052.87565624987,
      "d": 20.380406249998487,
      "v": 101
    },
    {
      "midi": 57,
      "hit": false,
      "t": 81073.25606249987,
      "d": 40.76081249999697,
      "v": 101
    },
    {
      "midi": 59,
      "hit": false,
      "t": 81114.01687499987,
      "d": 20.380406249998487,
      "v": 101
    },
    {
      "midi": 60,
      "hit": false,
      "t": 81134.39728124987,
      "d": 40.76081249999697,
      "v": 101
    },
    {
      "midi": 62,
      "hit": false,
      "t": 81175.15809374987,
      "d": 20.380406249998487,
      "v": 101
    },
    {
      "midi": 64,
      "hit": false,
      "t": 81195.53849999986,
      "d": 326.0865000000049,
      "v": 101
    },
    {
      "midi": 88,
      "hit": false,
      "t": 81195.53850000018,
      "d": 163.04325000000244,
      "v": 101
    },
    {
      "midi": 48,
      "hit": false,
      "t": 81195.53850000039,
      "d": 326.0865000000049,
      "v": 101
    },
    {
      "midi": 86,
      "hit": false,
      "t": 81358.58175000019,
      "d": 163.04325000000244,
      "v": 101
    },
    {
      "midi": 52,
      "hit": false,
      "t": 81521.62499999987,
      "d": 163.04325000000244,
      "v": 101
    },
    {
      "midi": 91,
      "hit": false,
      "t": 81521.62500000019,
      "d": 163.04325000000244,
      "v": 101
    },
    {
      "midi": 36,
      "hit": false,
      "t": 81521.6250000004,
      "d": 326.0865000000049,
      "v": 101
    },
    {
      "midi": 53,
      "hit": false,
      "t": 81684.66824999987,
      "d": 20.380406249998487,
      "v": 101
    },
    {
      "midi": 90,
      "hit": false,
      "t": 81684.66825000019,
      "d": 163.04325000000244,
      "v": 101
    },
    {
      "midi": 55,
      "hit": false,
      "t": 81705.04865624987,
      "d": 20.380406249998487,
      "v": 101
    },
    {
      "midi": 57,
      "hit": false,
      "t": 81725.42906249987,
      "d": 40.76081249999697,
      "v": 101
    },
    {
      "midi": 59,
      "hit": false,
      "t": 81766.18987499987,
      "d": 20.380406249998487,
      "v": 101
    },
    {
      "midi": 60,
      "hit": false,
      "t": 81786.57028124986,
      "d": 40.76081249999697,
      "v": 101
    },
    {
      "midi": 62,
      "hit": false,
      "t": 81827.33109374986,
      "d": 20.380406249998487,
      "v": 101
    },
    {
      "midi": 64,
      "hit": false,
      "t": 81847.71149999986,
      "d": 326.0865000000049,
      "v": 101
    },
    {
      "midi": 86,
      "hit": false,
      "t": 81847.7115000002,
      "d": 163.04325000000244,
      "v": 101
    },
    {
      "midi": 48,
      "hit": false,
      "t": 81847.7115000004,
      "d": 326.0865000000049,
      "v": 101
    },
    {
      "midi": 83,
      "hit": false,
      "t": 82010.7547500002,
      "d": 163.04325000000244,
      "v": 101
    },
    {
      "midi": 55,
      "hit": false,
      "t": 82173.79799999986,
      "d": 326.0865000000049,
      "v": 101
    },
    {
      "midi": 72,
      "hit": false,
      "t": 82173.7980000002,
      "d": 163.04325000000244,
      "v": 101
    },
    {
      "midi": 36,
      "hit": false,
      "t": 82173.7980000004,
      "d": 326.0865000000049,
      "v": 101
    },
    {
      "midi": 79,
      "hit": false,
      "t": 82336.8412500002,
      "d": 163.04325000000244,
      "v": 101
    },
    {
      "midi": 62,
      "hit": false,
      "t": 82499.88449999987,
      "d": 163.04325000000244,
      "v": 101
    },
    {
      "midi": 66,
      "hit": false,
      "t": 82499.88449999987,
      "d": 163.04325000000244,
      "v": 101
    },
    {
      "midi": 88,
      "hit": false,
      "t": 82499.8845000002,
      "d": 163.04325000000244,
      "v": 101
    },
    {
      "midi": 48,
      "hit": false,
      "t": 82499.88450000041,
      "d": 326.0865000000049,
      "v": 101
    },
    {
      "midi": 62,
      "hit": false,
      "t": 82662.92774999987,
      "d": 163.04325000000244,
      "v": 101
    },
    {
      "midi": 66,
      "hit": false,
      "t": 82662.92774999987,
      "d": 163.04325000000244,
      "v": 101
    },
    {
      "midi": 86,
      "hit": false,
      "t": 82662.9277500002,
      "d": 163.04325000000244,
      "v": 101
    },
    {
      "midi": 52,
      "hit": false,
      "t": 82825.97099999987,
      "d": 163.04325000000244,
      "v": 101
    },
    {
      "midi": 72,
      "hit": false,
      "t": 82825.97100000021,
      "d": 163.04325000000244,
      "v": 101
    },
    {
      "midi": 36,
      "hit": false,
      "t": 82825.97100000041,
      "d": 326.0865000000049,
      "v": 101
    },
    {
      "midi": 53,
      "hit": false,
      "t": 82989.01424999988,
      "d": 20.380406249998487,
      "v": 101
    },
    {
      "midi": 79,
      "hit": false,
      "t": 82989.01425000021,
      "d": 163.04325000000244,
      "v": 101
    },
    {
      "midi": 55,
      "hit": false,
      "t": 83009.39465624987,
      "d": 20.380406249998487,
      "v": 101
    },
    {
      "midi": 57,
      "hit": false,
      "t": 83029.77506249987,
      "d": 40.76081249999697,
      "v": 101
    },
    {
      "midi": 59,
      "hit": false,
      "t": 83070.53587499987,
      "d": 20.380406249998487,
      "v": 101
    },
    {
      "midi": 60,
      "hit": false,
      "t": 83090.91628124987,
      "d": 40.76081249999697,
      "v": 101
    },
    {
      "midi": 62,
      "hit": false,
      "t": 83131.67709374987,
      "d": 20.380406249998487,
      "v": 101
    },
    {
      "midi": 64,
      "hit": false,
      "t": 83152.05749999986,
      "d": 326.0865000000049,
      "v": 101
    },
    {
      "midi": 88,
      "hit": false,
      "t": 83152.05750000021,
      "d": 163.04325000000244,
      "v": 101
    },
    {
      "midi": 48,
      "hit": false,
      "t": 83152.05750000042,
      "d": 326.0865000000049,
      "v": 101
    },
    {
      "midi": 86,
      "hit": false,
      "t": 83315.10075000022,
      "d": 163.04325000000244,
      "v": 101
    },
    {
      "midi": 52,
      "hit": false,
      "t": 83478.14399999987,
      "d": 163.04325000000244,
      "v": 101
    },
    {
      "midi": 91,
      "hit": false,
      "t": 83478.14400000022,
      "d": 163.04325000000244,
      "v": 101
    },
    {
      "midi": 36,
      "hit": false,
      "t": 83478.14400000042,
      "d": 326.0865000000049,
      "v": 101
    },
    {
      "midi": 53,
      "hit": false,
      "t": 83641.18724999987,
      "d": 20.380406249998487,
      "v": 101
    },
    {
      "midi": 90,
      "hit": false,
      "t": 83641.18725000022,
      "d": 163.04325000000244,
      "v": 101
    },
    {
      "midi": 55,
      "hit": false,
      "t": 83661.56765624987,
      "d": 20.380406249998487,
      "v": 101
    },
    {
      "midi": 57,
      "hit": false,
      "t": 83681.94806249987,
      "d": 40.76081249999697,
      "v": 101
    },
    {
      "midi": 59,
      "hit": false,
      "t": 83722.70887499987,
      "d": 20.380406249998487,
      "v": 101
    },
    {
      "midi": 60,
      "hit": false,
      "t": 83743.08928124986,
      "d": 40.76081249999697,
      "v": 101
    },
    {
      "midi": 62,
      "hit": false,
      "t": 83783.85009374986,
      "d": 20.380406249998487,
      "v": 101
    },
    {
      "midi": 64,
      "hit": false,
      "t": 83804.23049999986,
      "d": 326.0865000000049,
      "v": 101
    },
    {
      "midi": 86,
      "hit": false,
      "t": 83804.23050000022,
      "d": 163.04325000000244,
      "v": 101
    },
    {
      "midi": 48,
      "hit": false,
      "t": 83804.23050000043,
      "d": 326.0865000000049,
      "v": 101
    },
    {
      "midi": 83,
      "hit": false,
      "t": 83967.27375000023,
      "d": 163.04325000000244,
      "v": 101
    },
    {
      "midi": 55,
      "hit": false,
      "t": 84130.31699999986,
      "d": 326.0865000000049,
      "v": 101
    },
    {
      "midi": 72,
      "hit": false,
      "t": 84130.31700000021,
      "d": 163.04325000000244,
      "v": 101
    },
    {
      "midi": 36,
      "hit": false,
      "t": 84130.31700000043,
      "d": 326.0865000000049,
      "v": 101
    },
    {
      "midi": 79,
      "hit": false,
      "t": 84293.36025000022,
      "d": 163.04325000000244,
      "v": 101
    },
    {
      "midi": 62,
      "hit": false,
      "t": 84456.40349999987,
      "d": 163.04325000000244,
      "v": 101
    },
    {
      "midi": 66,
      "hit": false,
      "t": 84456.40349999987,
      "d": 163.04325000000244,
      "v": 101
    },
    {
      "midi": 88,
      "hit": false,
      "t": 84456.40350000023,
      "d": 163.04325000000244,
      "v": 101
    },
    {
      "midi": 48,
      "hit": false,
      "t": 84456.40350000044,
      "d": 326.0865000000049,
      "v": 101
    },
    {
      "midi": 62,
      "hit": false,
      "t": 84619.44674999987,
      "d": 163.04325000000244,
      "v": 101
    },
    {
      "midi": 66,
      "hit": false,
      "t": 84619.44674999987,
      "d": 163.04325000000244,
      "v": 101
    },
    {
      "midi": 86,
      "hit": false,
      "t": 84619.44675000024,
      "d": 163.04325000000244,
      "v": 101
    },
    {
      "midi": 52,
      "hit": false,
      "t": 84782.48999999987,
      "d": 163.04325000000244,
      "v": 101
    },
    {
      "midi": 72,
      "hit": false,
      "t": 84782.49000000022,
      "d": 163.04325000000244,
      "v": 101
    },
    {
      "midi": 36,
      "hit": false,
      "t": 84782.49000000044,
      "d": 326.0865000000049,
      "v": 101
    },
    {
      "midi": 53,
      "hit": false,
      "t": 84945.53324999988,
      "d": 20.380406249998487,
      "v": 101
    },
    {
      "midi": 79,
      "hit": false,
      "t": 84945.53325000023,
      "d": 163.04325000000244,
      "v": 101
    },
    {
      "midi": 55,
      "hit": false,
      "t": 84965.91365624988,
      "d": 20.380406249998487,
      "v": 101
    },
    {
      "midi": 57,
      "hit": false,
      "t": 84986.29406249987,
      "d": 40.76081249999697,
      "v": 101
    },
    {
      "midi": 59,
      "hit": false,
      "t": 85027.05487499987,
      "d": 20.380406249998487,
      "v": 101
    },
    {
      "midi": 60,
      "hit": false,
      "t": 85047.43528124987,
      "d": 40.76081249999697,
      "v": 101
    },
    {
      "midi": 62,
      "hit": false,
      "t": 85088.19609374987,
      "d": 20.380406249998487,
      "v": 101
    },
    {
      "midi": 64,
      "hit": false,
      "t": 85108.57649999986,
      "d": 326.0865000000049,
      "v": 101
    },
    {
      "midi": 88,
      "hit": false,
      "t": 85108.57650000024,
      "d": 163.04325000000244,
      "v": 101
    },
    {
      "midi": 48,
      "hit": false,
      "t": 85108.57650000045,
      "d": 326.0865000000049,
      "v": 101
    },
    {
      "midi": 86,
      "hit": false,
      "t": 85271.61975000025,
      "d": 163.04325000000244,
      "v": 101
    },
    {
      "midi": 52,
      "hit": false,
      "t": 85434.66299999987,
      "d": 163.04325000000244,
      "v": 101
    },
    {
      "midi": 91,
      "hit": false,
      "t": 85434.66300000025,
      "d": 163.04325000000244,
      "v": 101
    },
    {
      "midi": 36,
      "hit": false,
      "t": 85434.66300000045,
      "d": 326.0865000000049,
      "v": 101
    },
    {
      "midi": 53,
      "hit": false,
      "t": 85597.70624999987,
      "d": 20.380406249998487,
      "v": 101
    },
    {
      "midi": 90,
      "hit": false,
      "t": 85597.70625000025,
      "d": 163.04325000000244,
      "v": 101
    },
    {
      "midi": 55,
      "hit": false,
      "t": 85618.08665624987,
      "d": 20.380406249998487,
      "v": 101
    },
    {
      "midi": 57,
      "hit": false,
      "t": 85638.46706249987,
      "d": 40.76081249999697,
      "v": 101
    },
    {
      "midi": 59,
      "hit": false,
      "t": 85679.22787499987,
      "d": 20.380406249998487,
      "v": 101
    },
    {
      "midi": 60,
      "hit": false,
      "t": 85699.60828124986,
      "d": 40.76081249999697,
      "v": 101
    },
    {
      "midi": 62,
      "hit": false,
      "t": 85740.36909374986,
      "d": 20.380406249998487,
      "v": 101
    },
    {
      "midi": 64,
      "hit": false,
      "t": 85760.74949999986,
      "d": 326.0865000000049,
      "v": 101
    },
    {
      "midi": 86,
      "hit": false,
      "t": 85760.74950000025,
      "d": 163.04325000000244,
      "v": 101
    },
    {
      "midi": 48,
      "hit": false,
      "t": 85760.74950000046,
      "d": 326.0865000000049,
      "v": 101
    },
    {
      "midi": 83,
      "hit": false,
      "t": 85923.79275000026,
      "d": 163.04325000000244,
      "v": 101
    },
    {
      "midi": 55,
      "hit": false,
      "t": 86086.83599999986,
      "d": 326.0865000000049,
      "v": 101
    },
    {
      "midi": 72,
      "hit": false,
      "t": 86086.83600000023,
      "d": 163.04325000000244,
      "v": 101
    },
    {
      "midi": 36,
      "hit": false,
      "t": 86086.83600000046,
      "d": 326.0865000000049,
      "v": 101
    },
    {
      "midi": 79,
      "hit": false,
      "t": 86249.87925000023,
      "d": 163.04325000000244,
      "v": 101
    },
    {
      "midi": 62,
      "hit": false,
      "t": 86412.92249999987,
      "d": 163.04325000000244,
      "v": 101
    },
    {
      "midi": 66,
      "hit": false,
      "t": 86412.92249999987,
      "d": 163.04325000000244,
      "v": 101
    },
    {
      "midi": 88,
      "hit": false,
      "t": 86412.92250000026,
      "d": 163.04325000000244,
      "v": 101
    },
    {
      "midi": 48,
      "hit": false,
      "t": 86412.92250000047,
      "d": 326.0865000000049,
      "v": 101
    },
    {
      "midi": 62,
      "hit": false,
      "t": 86575.96574999987,
      "d": 163.04325000000244,
      "v": 101
    },
    {
      "midi": 66,
      "hit": false,
      "t": 86575.96574999987,
      "d": 163.04325000000244,
      "v": 101
    },
    {
      "midi": 86,
      "hit": false,
      "t": 86575.96575000026,
      "d": 163.04325000000244,
      "v": 101
    },
    {
      "midi": 52,
      "hit": false,
      "t": 86739.00899999987,
      "d": 163.04325000000244,
      "v": 101
    },
    {
      "midi": 72,
      "hit": false,
      "t": 86739.00900000024,
      "d": 163.04325000000244,
      "v": 101
    },
    {
      "midi": 36,
      "hit": false,
      "t": 86739.00900000047,
      "d": 326.0865000000049,
      "v": 101
    },
    {
      "midi": 53,
      "hit": false,
      "t": 86902.05224999988,
      "d": 20.380406249998487,
      "v": 101
    },
    {
      "midi": 79,
      "hit": false,
      "t": 86902.05225000024,
      "d": 163.04325000000244,
      "v": 101
    },
    {
      "midi": 55,
      "hit": false,
      "t": 86922.43265624988,
      "d": 20.380406249998487,
      "v": 101
    },
    {
      "midi": 57,
      "hit": false,
      "t": 86942.81306249987,
      "d": 40.76081249999697,
      "v": 101
    },
    {
      "midi": 59,
      "hit": false,
      "t": 86983.57387499987,
      "d": 20.380406249998487,
      "v": 101
    },
    {
      "midi": 60,
      "hit": false,
      "t": 87003.95428124987,
      "d": 40.76081249999697,
      "v": 101
    },
    {
      "midi": 62,
      "hit": false,
      "t": 87044.71509374987,
      "d": 20.380406249998487,
      "v": 101
    },
    {
      "midi": 64,
      "hit": false,
      "t": 87065.09549999986,
      "d": 326.0865000000049,
      "v": 101
    },
    {
      "midi": 88,
      "hit": false,
      "t": 87065.09550000027,
      "d": 163.04325000000244,
      "v": 101
    },
    {
      "midi": 48,
      "hit": false,
      "t": 87065.09550000048,
      "d": 326.0865000000049,
      "v": 101
    },
    {
      "midi": 86,
      "hit": false,
      "t": 87228.13875000027,
      "d": 163.04325000000244,
      "v": 101
    },
    {
      "midi": 52,
      "hit": false,
      "t": 87391.18199999987,
      "d": 163.04325000000244,
      "v": 101
    },
    {
      "midi": 91,
      "hit": false,
      "t": 87391.18200000028,
      "d": 163.04325000000244,
      "v": 101
    },
    {
      "midi": 36,
      "hit": false,
      "t": 87391.18200000048,
      "d": 326.0865000000049,
      "v": 101
    },
    {
      "midi": 53,
      "hit": false,
      "t": 87554.22524999987,
      "d": 20.380406249998487,
      "v": 101
    },
    {
      "midi": 90,
      "hit": false,
      "t": 87554.22525000028,
      "d": 163.04325000000244,
      "v": 101
    },
    {
      "midi": 55,
      "hit": false,
      "t": 87574.60565624987,
      "d": 20.380406249998487,
      "v": 101
    },
    {
      "midi": 57,
      "hit": false,
      "t": 87594.98606249987,
      "d": 40.76081249999697,
      "v": 101
    },
    {
      "midi": 59,
      "hit": false,
      "t": 87635.74687499987,
      "d": 20.380406249998487,
      "v": 101
    },
    {
      "midi": 60,
      "hit": false,
      "t": 87656.12728124986,
      "d": 40.76081249999697,
      "v": 101
    },
    {
      "midi": 62,
      "hit": false,
      "t": 87696.88809374986,
      "d": 20.380406249998487,
      "v": 101
    },
    {
      "midi": 64,
      "hit": false,
      "t": 87717.26849999986,
      "d": 326.0865000000049,
      "v": 101
    },
    {
      "midi": 86,
      "hit": false,
      "t": 87717.26850000028,
      "d": 163.04325000000244,
      "v": 101
    },
    {
      "midi": 48,
      "hit": false,
      "t": 87717.26850000049,
      "d": 326.0865000000049,
      "v": 101
    },
    {
      "midi": 93,
      "hit": false,
      "t": 87880.31175000028,
      "d": 163.04325000000244,
      "v": 101
    },
    {
      "midi": 54,
      "hit": false,
      "t": 88043.35499999986,
      "d": 1304.346000000005,
      "v": 101
    },
    {
      "midi": 66,
      "hit": false,
      "t": 88043.35499999986,
      "d": 1304.346000000005,
      "v": 101
    },
    {
      "midi": 91,
      "hit": false,
      "t": 88043.35500000029,
      "d": 163.04325000000244,
      "v": 101
    },
    {
      "midi": 38,
      "hit": false,
      "t": 88043.35500000049,
      "d": 1956.5190000000002,
      "v": 101
    },
    {
      "midi": 50,
      "hit": false,
      "t": 88043.35500000049,
      "d": 1956.5190000000002,
      "v": 101
    },
    {
      "midi": 90,
      "hit": false,
      "t": 88206.39825000029,
      "d": 163.04325000000244,
      "v": 101
    },
    {
      "midi": 86,
      "hit": false,
      "t": 88369.44150000029,
      "d": 163.04325000000244,
      "v": 101
    },
    {
      "midi": 81,
      "hit": false,
      "t": 88532.4847500003,
      "d": 163.04325000000244,
      "v": 101
    },
    {
      "midi": 79,
      "hit": false,
      "t": 88695.5280000003,
      "d": 163.04325000000244,
      "v": 101
    },
    {
      "midi": 78,
      "hit": false,
      "t": 88858.5712500003,
      "d": 163.04325000000244,
      "v": 101
    },
    {
      "midi": 74,
      "hit": false,
      "t": 89021.6145000003,
      "d": 978.2595000000001,
      "v": 101
    },
    {
      "midi": 52,
      "hit": false,
      "t": 89999.87399999987,
      "d": 489.1297499999928,
      "v": 101
    },
    {
      "midi": 55,
      "hit": false,
      "t": 89999.87399999987,
      "d": 489.1297499999928,
      "v": 101
    },
    {
      "midi": 59,
      "hit": false,
      "t": 89999.87399999987,
      "d": 489.1297499999928,
      "v": 101
    },
    {
      "midi": 67,
      "hit": false,
      "t": 89999.87400000024,
      "d": 489.1297499999928,
      "v": 101
    },
    {
      "midi": 71,
      "hit": false,
      "t": 89999.8740000003,
      "d": 489.1297499999928,
      "v": 101
    },
    {
      "midi": 76,
      "hit": false,
      "t": 89999.8740000003,
      "d": 489.1297499999928,
      "v": 101
    },
    {
      "midi": 40,
      "hit": false,
      "t": 89999.87400000049,
      "d": 163.04325000000244,
      "v": 101
    },
    {
      "midi": 40,
      "hit": false,
      "t": 90162.9172500005,
      "d": 163.04325000000244,
      "v": 101
    },
    {
      "midi": 40,
      "hit": false,
      "t": 90325.9605000005,
      "d": 163.04325000000244,
      "v": 101
    },
    {
      "midi": 52,
      "hit": false,
      "t": 90489.00374999986,
      "d": 489.1297499999928,
      "v": 101
    },
    {
      "midi": 55,
      "hit": false,
      "t": 90489.00374999986,
      "d": 489.1297499999928,
      "v": 101
    },
    {
      "midi": 59,
      "hit": false,
      "t": 90489.00374999986,
      "d": 489.1297499999928,
      "v": 101
    },
    {
      "midi": 71,
      "hit": false,
      "t": 90489.00375000024,
      "d": 489.1297499999928,
      "v": 101
    },
    {
      "midi": 79,
      "hit": false,
      "t": 90489.0037500003,
      "d": 489.1297499999928,
      "v": 101
    },
    {
      "midi": 83,
      "hit": false,
      "t": 90489.0037500003,
      "d": 489.1297499999928,
      "v": 101
    },
    {
      "midi": 40,
      "hit": false,
      "t": 90489.0037500005,
      "d": 163.04325000000244,
      "v": 101
    },
    {
      "midi": 40,
      "hit": false,
      "t": 90652.0470000005,
      "d": 163.04325000000244,
      "v": 101
    },
    {
      "midi": 40,
      "hit": false,
      "t": 90815.0902500005,
      "d": 163.04325000000244,
      "v": 101
    },
    {
      "midi": 52,
      "hit": false,
      "t": 90978.13349999985,
      "d": 326.0865000000049,
      "v": 101
    },
    {
      "midi": 55,
      "hit": false,
      "t": 90978.13349999985,
      "d": 326.0865000000049,
      "v": 101
    },
    {
      "midi": 59,
      "hit": false,
      "t": 90978.13349999985,
      "d": 326.0865000000049,
      "v": 101
    },
    {
      "midi": 69,
      "hit": false,
      "t": 90978.13350000023,
      "d": 326.0865000000049,
      "v": 101
    },
    {
      "midi": 78,
      "hit": false,
      "t": 90978.13350000029,
      "d": 326.0865000000049,
      "v": 101
    },
    {
      "midi": 81,
      "hit": false,
      "t": 90978.13350000029,
      "d": 326.0865000000049,
      "v": 101
    },
    {
      "midi": 40,
      "hit": false,
      "t": 90978.1335000005,
      "d": 163.04325000000244,
      "v": 101
    },
    {
      "midi": 40,
      "hit": false,
      "t": 91141.17675000051,
      "d": 163.04325000000244,
      "v": 101
    },
    {
      "midi": 50,
      "hit": false,
      "t": 91304.21999999986,
      "d": 489.1297499999928,
      "v": 101
    },
    {
      "midi": 54,
      "hit": false,
      "t": 91304.21999999986,
      "d": 489.1297499999928,
      "v": 101
    },
    {
      "midi": 57,
      "hit": false,
      "t": 91304.21999999986,
      "d": 489.1297499999928,
      "v": 101
    },
    {
      "midi": 78,
      "hit": false,
      "t": 91304.22000000023,
      "d": 489.1297499999928,
      "v": 101
    },
    {
      "midi": 81,
      "hit": false,
      "t": 91304.22000000029,
      "d": 489.1297499999928,
      "v": 101
    },
    {
      "midi": 86,
      "hit": false,
      "t": 91304.22000000029,
      "d": 489.1297499999928,
      "v": 101
    },
    {
      "midi": 38,
      "hit": false,
      "t": 91304.22000000051,
      "d": 163.04325000000244,
      "v": 101
    },
    {
      "midi": 38,
      "hit": false,
      "t": 91467.26325000051,
      "d": 163.04325000000244,
      "v": 101
    },
    {
      "midi": 38,
      "hit": false,
      "t": 91630.30650000052,
      "d": 163.04325000000244,
      "v": 101
    },
    {
      "midi": 50,
      "hit": false,
      "t": 91793.34974999985,
      "d": 489.1297499999928,
      "v": 101
    },
    {
      "midi": 54,
      "hit": false,
      "t": 91793.34974999985,
      "d": 489.1297499999928,
      "v": 101
    },
    {
      "midi": 57,
      "hit": false,
      "t": 91793.34974999985,
      "d": 489.1297499999928,
      "v": 101
    },
    {
      "midi": 74,
      "hit": false,
      "t": 91793.34975000023,
      "d": 489.1297499999928,
      "v": 101
    },
    {
      "midi": 81,
      "hit": false,
      "t": 91793.34975000028,
      "d": 489.1297499999928,
      "v": 101
    },
    {
      "midi": 84,
      "hit": false,
      "t": 91793.34975000028,
      "d": 489.1297499999928,
      "v": 101
    },
    {
      "midi": 38,
      "hit": false,
      "t": 91793.34975000052,
      "d": 163.04325000000244,
      "v": 101
    },
    {
      "midi": 38,
      "hit": false,
      "t": 91956.39300000052,
      "d": 163.04325000000244,
      "v": 101
    },
    {
      "midi": 38,
      "hit": false,
      "t": 92119.43625000052,
      "d": 163.04325000000244,
      "v": 101
    },
    {
      "midi": 50,
      "hit": false,
      "t": 92282.47949999984,
      "d": 326.0865000000049,
      "v": 101
    },
    {
      "midi": 54,
      "hit": false,
      "t": 92282.47949999984,
      "d": 326.0865000000049,
      "v": 101
    },
    {
      "midi": 57,
      "hit": false,
      "t": 92282.47949999984,
      "d": 326.0865000000049,
      "v": 101
    },
    {
      "midi": 71,
      "hit": false,
      "t": 92282.47950000022,
      "d": 326.0865000000049,
      "v": 101
    },
    {
      "midi": 79,
      "hit": false,
      "t": 92282.47950000028,
      "d": 326.0865000000049,
      "v": 101
    },
    {
      "midi": 83,
      "hit": false,
      "t": 92282.47950000028,
      "d": 326.0865000000049,
      "v": 101
    },
    {
      "midi": 38,
      "hit": false,
      "t": 92282.47950000053,
      "d": 163.04325000000244,
      "v": 101
    },
    {
      "midi": 38,
      "hit": false,
      "t": 92445.52275000053,
      "d": 163.04325000000244,
      "v": 101
    },
    {
      "midi": 48,
      "hit": false,
      "t": 92608.56599999985,
      "d": 489.1297499999928,
      "v": 101
    },
    {
      "midi": 52,
      "hit": false,
      "t": 92608.56599999985,
      "d": 489.1297499999928,
      "v": 101
    },
    {
      "midi": 55,
      "hit": false,
      "t": 92608.56599999985,
      "d": 489.1297499999928,
      "v": 101
    },
    {
      "midi": 72,
      "hit": false,
      "t": 92608.56600000022,
      "d": 489.1297499999928,
      "v": 101
    },
    {
      "midi": 76,
      "hit": false,
      "t": 92608.56600000028,
      "d": 489.1297499999928,
      "v": 101
    },
    {
      "midi": 84,
      "hit": false,
      "t": 92608.56600000028,
      "d": 489.1297499999928,
      "v": 101
    },
    {
      "midi": 36,
      "hit": false,
      "t": 92608.56600000053,
      "d": 163.04325000000244,
      "v": 101
    },
    {
      "midi": 36,
      "hit": false,
      "t": 92771.60925000053,
      "d": 163.04325000000244,
      "v": 101
    },
    {
      "midi": 36,
      "hit": false,
      "t": 92934.65250000053,
      "d": 163.04325000000244,
      "v": 101
    },
    {
      "midi": 48,
      "hit": false,
      "t": 93097.69574999984,
      "d": 489.1297499999928,
      "v": 101
    },
    {
      "midi": 52,
      "hit": false,
      "t": 93097.69574999984,
      "d": 489.1297499999928,
      "v": 101
    },
    {
      "midi": 55,
      "hit": false,
      "t": 93097.69574999984,
      "d": 489.1297499999928,
      "v": 101
    },
    {
      "midi": 74,
      "hit": false,
      "t": 93097.69575000022,
      "d": 489.1297499999928,
      "v": 101
    },
    {
      "midi": 78,
      "hit": false,
      "t": 93097.69575000028,
      "d": 489.1297499999928,
      "v": 101
    },
    {
      "midi": 86,
      "hit": false,
      "t": 93097.69575000028,
      "d": 489.1297499999928,
      "v": 101
    },
    {
      "midi": 36,
      "hit": false,
      "t": 93097.69575000054,
      "d": 163.04325000000244,
      "v": 101
    },
    {
      "midi": 36,
      "hit": false,
      "t": 93260.73900000054,
      "d": 163.04325000000244,
      "v": 101
    },
    {
      "midi": 36,
      "hit": false,
      "t": 93423.78225000054,
      "d": 163.04325000000244,
      "v": 101
    },
    {
      "midi": 48,
      "hit": false,
      "t": 93586.82549999983,
      "d": 326.0865000000049,
      "v": 101
    },
    {
      "midi": 52,
      "hit": false,
      "t": 93586.82549999983,
      "d": 326.0865000000049,
      "v": 101
    },
    {
      "midi": 55,
      "hit": false,
      "t": 93586.82549999983,
      "d": 326.0865000000049,
      "v": 101
    },
    {
      "midi": 76,
      "hit": false,
      "t": 93586.82550000021,
      "d": 326.0865000000049,
      "v": 101
    },
    {
      "midi": 79,
      "hit": false,
      "t": 93586.82550000027,
      "d": 326.0865000000049,
      "v": 101
    },
    {
      "midi": 88,
      "hit": false,
      "t": 93586.82550000027,
      "d": 326.0865000000049,
      "v": 101
    },
    {
      "midi": 36,
      "hit": false,
      "t": 93586.82550000054,
      "d": 163.04325000000244,
      "v": 101
    },
    {
      "midi": 36,
      "hit": false,
      "t": 93749.86875000055,
      "d": 163.04325000000244,
      "v": 101
    },
    {
      "midi": 50,
      "hit": false,
      "t": 93912.91199999984,
      "d": 489.1297499999928,
      "v": 101
    },
    {
      "midi": 54,
      "hit": false,
      "t": 93912.91199999984,
      "d": 489.1297499999928,
      "v": 101
    },
    {
      "midi": 57,
      "hit": false,
      "t": 93912.91199999984,
      "d": 489.1297499999928,
      "v": 101
    },
    {
      "midi": 74,
      "hit": false,
      "t": 93912.91200000021,
      "d": 489.1297499999928,
      "v": 101
    },
    {
      "midi": 78,
      "hit": false,
      "t": 93912.91200000027,
      "d": 489.1297499999928,
      "v": 101
    },
    {
      "midi": 86,
      "hit": false,
      "t": 93912.91200000027,
      "d": 489.1297499999928,
      "v": 101
    },
    {
      "midi": 38,
      "hit": false,
      "t": 93912.91200000055,
      "d": 163.04325000000244,
      "v": 101
    },
    {
      "midi": 38,
      "hit": false,
      "t": 94075.95525000055,
      "d": 163.04325000000244,
      "v": 101
    },
    {
      "midi": 38,
      "hit": false,
      "t": 94238.99850000055,
      "d": 163.04325000000244,
      "v": 101
    },
    {
      "midi": 50,
      "hit": false,
      "t": 94402.04174999983,
      "d": 489.1297499999928,
      "v": 101
    },
    {
      "midi": 54,
      "hit": false,
      "t": 94402.04174999983,
      "d": 489.1297499999928,
      "v": 101
    },
    {
      "midi": 57,
      "hit": false,
      "t": 94402.04174999983,
      "d": 489.1297499999928,
      "v": 101
    },
    {
      "midi": 69,
      "hit": false,
      "t": 94402.04175000021,
      "d": 815.2162499999977,
      "v": 101
    },
    {
      "midi": 78,
      "hit": false,
      "t": 94402.04175000027,
      "d": 815.2162499999977,
      "v": 101
    },
    {
      "midi": 81,
      "hit": false,
      "t": 94402.04175000027,
      "d": 815.2162499999977,
      "v": 101
    },
    {
      "midi": 38,
      "hit": false,
      "t": 94402.04175000056,
      "d": 163.04325000000244,
      "v": 101
    },
    {
      "midi": 38,
      "hit": false,
      "t": 94565.08500000056,
      "d": 163.04325000000244,
      "v": 101
    },
    {
      "midi": 38,
      "hit": false,
      "t": 94728.12825000056,
      "d": 163.04325000000244,
      "v": 101
    },
    {
      "midi": 50,
      "hit": false,
      "t": 94891.17149999982,
      "d": 326.0865000000049,
      "v": 101
    },
    {
      "midi": 54,
      "hit": false,
      "t": 94891.17149999982,
      "d": 326.0865000000049,
      "v": 101
    },
    {
      "midi": 57,
      "hit": false,
      "t": 94891.17149999982,
      "d": 326.0865000000049,
      "v": 101
    },
    {
      "midi": 38,
      "hit": false,
      "t": 94891.17150000056,
      "d": 163.04325000000244,
      "v": 101
    },
    {
      "midi": 38,
      "hit": false,
      "t": 95054.21475000057,
      "d": 163.04325000000244,
      "v": 101
    },
    {
      "midi": 52,
      "hit": false,
      "t": 95217.25799999983,
      "d": 489.1297499999928,
      "v": 101
    },
    {
      "midi": 55,
      "hit": false,
      "t": 95217.25799999983,
      "d": 489.1297499999928,
      "v": 101
    },
    {
      "midi": 59,
      "hit": false,
      "t": 95217.25799999983,
      "d": 489.1297499999928,
      "v": 101
    },
    {
      "midi": 67,
      "hit": false,
      "t": 95217.2580000002,
      "d": 489.1297499999928,
      "v": 101
    },
    {
      "midi": 71,
      "hit": false,
      "t": 95217.25800000026,
      "d": 489.1297499999928,
      "v": 101
    },
    {
      "midi": 76,
      "hit": false,
      "t": 95217.25800000026,
      "d": 489.1297499999928,
      "v": 101
    },
    {
      "midi": 40,
      "hit": false,
      "t": 95217.25800000057,
      "d": 163.04325000000244,
      "v": 101
    },
    {
      "midi": 40,
      "hit": false,
      "t": 95380.30125000057,
      "d": 163.04325000000244,
      "v": 101
    },
    {
      "midi": 40,
      "hit": false,
      "t": 95543.34450000057,
      "d": 163.04325000000244,
      "v": 101
    },
    {
      "midi": 52,
      "hit": false,
      "t": 95706.38774999982,
      "d": 489.1297499999928,
      "v": 101
    },
    {
      "midi": 55,
      "hit": false,
      "t": 95706.38774999982,
      "d": 489.1297499999928,
      "v": 101
    },
    {
      "midi": 59,
      "hit": false,
      "t": 95706.38774999982,
      "d": 489.1297499999928,
      "v": 101
    },
    {
      "midi": 71,
      "hit": false,
      "t": 95706.3877500002,
      "d": 489.1297499999928,
      "v": 101
    },
    {
      "midi": 79,
      "hit": false,
      "t": 95706.38775000026,
      "d": 489.1297499999928,
      "v": 101
    },
    {
      "midi": 83,
      "hit": false,
      "t": 95706.38775000026,
      "d": 489.1297499999928,
      "v": 101
    },
    {
      "midi": 40,
      "hit": false,
      "t": 95706.38775000058,
      "d": 163.04325000000244,
      "v": 101
    },
    {
      "midi": 40,
      "hit": false,
      "t": 95869.43100000058,
      "d": 163.04325000000244,
      "v": 101
    },
    {
      "midi": 40,
      "hit": false,
      "t": 96032.47425000058,
      "d": 163.04325000000244,
      "v": 101
    },
    {
      "midi": 52,
      "hit": false,
      "t": 96195.51749999981,
      "d": 326.0865000000049,
      "v": 101
    },
    {
      "midi": 55,
      "hit": false,
      "t": 96195.51749999981,
      "d": 326.0865000000049,
      "v": 101
    },
    {
      "midi": 59,
      "hit": false,
      "t": 96195.51749999981,
      "d": 326.0865000000049,
      "v": 101
    },
    {
      "midi": 69,
      "hit": false,
      "t": 96195.51750000019,
      "d": 326.0865000000049,
      "v": 101
    },
    {
      "midi": 78,
      "hit": false,
      "t": 96195.51750000025,
      "d": 326.0865000000049,
      "v": 101
    },
    {
      "midi": 81,
      "hit": false,
      "t": 96195.51750000025,
      "d": 326.0865000000049,
      "v": 101
    },
    {
      "midi": 40,
      "hit": false,
      "t": 96195.51750000058,
      "d": 163.04325000000244,
      "v": 101
    },
    {
      "midi": 40,
      "hit": false,
      "t": 96358.56075000059,
      "d": 163.04325000000244,
      "v": 101
    },
    {
      "midi": 54,
      "hit": false,
      "t": 96521.60399999982,
      "d": 489.1297499999928,
      "v": 101
    },
    {
      "midi": 57,
      "hit": false,
      "t": 96521.60399999982,
      "d": 489.1297499999928,
      "v": 101
    },
    {
      "midi": 62,
      "hit": false,
      "t": 96521.60399999982,
      "d": 489.1297499999928,
      "v": 101
    },
    {
      "midi": 78,
      "hit": false,
      "t": 96521.6040000002,
      "d": 489.1297499999928,
      "v": 101
    },
    {
      "midi": 81,
      "hit": false,
      "t": 96521.60400000025,
      "d": 489.1297499999928,
      "v": 101
    },
    {
      "midi": 86,
      "hit": false,
      "t": 96521.60400000025,
      "d": 489.1297499999928,
      "v": 101
    },
    {
      "midi": 42,
      "hit": false,
      "t": 96521.60400000059,
      "d": 163.04325000000244,
      "v": 101
    },
    {
      "midi": 42,
      "hit": false,
      "t": 96684.64725000059,
      "d": 163.04325000000244,
      "v": 101
    },
    {
      "midi": 42,
      "hit": false,
      "t": 96847.6905000006,
      "d": 163.04325000000244,
      "v": 101
    },
    {
      "midi": 54,
      "hit": false,
      "t": 97010.73374999981,
      "d": 489.1297499999928,
      "v": 101
    },
    {
      "midi": 57,
      "hit": false,
      "t": 97010.73374999981,
      "d": 489.1297499999928,
      "v": 101
    },
    {
      "midi": 62,
      "hit": false,
      "t": 97010.73374999981,
      "d": 489.1297499999928,
      "v": 101
    },
    {
      "midi": 79,
      "hit": false,
      "t": 97010.73375000019,
      "d": 489.1297499999928,
      "v": 101
    },
    {
      "midi": 84,
      "hit": false,
      "t": 97010.73375000025,
      "d": 489.1297499999928,
      "v": 101
    },
    {
      "midi": 88,
      "hit": false,
      "t": 97010.73375000025,
      "d": 489.1297499999928,
      "v": 101
    },
    {
      "midi": 42,
      "hit": false,
      "t": 97010.7337500006,
      "d": 163.04325000000244,
      "v": 101
    },
    {
      "midi": 42,
      "hit": false,
      "t": 97173.7770000006,
      "d": 163.04325000000244,
      "v": 101
    },
    {
      "midi": 42,
      "hit": false,
      "t": 97336.8202500006,
      "d": 163.04325000000244,
      "v": 101
    },
    {
      "midi": 54,
      "hit": false,
      "t": 97499.8634999998,
      "d": 326.0865000000049,
      "v": 101
    },
    {
      "midi": 57,
      "hit": false,
      "t": 97499.8634999998,
      "d": 326.0865000000049,
      "v": 101
    },
    {
      "midi": 62,
      "hit": false,
      "t": 97499.8634999998,
      "d": 326.0865000000049,
      "v": 101
    },
    {
      "midi": 81,
      "hit": false,
      "t": 97499.86350000018,
      "d": 326.0865000000049,
      "v": 101
    },
    {
      "midi": 86,
      "hit": false,
      "t": 97499.86350000024,
      "d": 326.0865000000049,
      "v": 101
    },
    {
      "midi": 90,
      "hit": false,
      "t": 97499.86350000024,
      "d": 326.0865000000049,
      "v": 101
    },
    {
      "midi": 42,
      "hit": false,
      "t": 97499.8635000006,
      "d": 163.04325000000244,
      "v": 101
    },
    {
      "midi": 42,
      "hit": false,
      "t": 97662.9067500006,
      "d": 163.04325000000244,
      "v": 101
    },
    {
      "midi": 55,
      "hit": false,
      "t": 97825.94999999981,
      "d": 489.1297499999928,
      "v": 101
    },
    {
      "midi": 59,
      "hit": false,
      "t": 97825.94999999981,
      "d": 489.1297499999928,
      "v": 101
    },
    {
      "midi": 62,
      "hit": false,
      "t": 97825.94999999981,
      "d": 489.1297499999928,
      "v": 101
    },
    {
      "midi": 79,
      "hit": false,
      "t": 97825.95000000019,
      "d": 489.1297499999928,
      "v": 101
    },
    {
      "midi": 86,
      "hit": false,
      "t": 97825.95000000024,
      "d": 489.1297499999928,
      "v": 101
    },
    {
      "midi": 91,
      "hit": false,
      "t": 97825.95000000024,
      "d": 489.1297499999928,
      "v": 101
    },
    {
      "midi": 43,
      "hit": false,
      "t": 97825.95000000061,
      "d": 163.04325000000244,
      "v": 101
    },
    {
      "midi": 43,
      "hit": false,
      "t": 97988.99325000061,
      "d": 163.04325000000244,
      "v": 101
    },
    {
      "midi": 43,
      "hit": false,
      "t": 98152.03650000061,
      "d": 163.04325000000244,
      "v": 101
    },
    {
      "midi": 55,
      "hit": false,
      "t": 98315.0797499998,
      "d": 489.1297499999928,
      "v": 101
    },
    {
      "midi": 59,
      "hit": false,
      "t": 98315.0797499998,
      "d": 489.1297499999928,
      "v": 101
    },
    {
      "midi": 62,
      "hit": false,
      "t": 98315.0797499998,
      "d": 489.1297499999928,
      "v": 101
    },
    {
      "midi": 81,
      "hit": false,
      "t": 98315.07975000018,
      "d": 489.1297499999928,
      "v": 101
    },
    {
      "midi": 90,
      "hit": false,
      "t": 98315.07975000024,
      "d": 489.1297499999928,
      "v": 101
    },
    {
      "midi": 93,
      "hit": false,
      "t": 98315.07975000024,
      "d": 489.1297499999928,
      "v": 101
    },
    {
      "midi": 43,
      "hit": false,
      "t": 98315.07975000062,
      "d": 163.04325000000244,
      "v": 101
    },
    {
      "midi": 43,
      "hit": false,
      "t": 98478.12300000062,
      "d": 163.04325000000244,
      "v": 101
    },
    {
      "midi": 43,
      "hit": false,
      "t": 98641.16625000062,
      "d": 163.04325000000244,
      "v": 101
    },
    {
      "midi": 55,
      "hit": false,
      "t": 98804.2094999998,
      "d": 326.0865000000049,
      "v": 101
    },
    {
      "midi": 59,
      "hit": false,
      "t": 98804.2094999998,
      "d": 326.0865000000049,
      "v": 101
    },
    {
      "midi": 62,
      "hit": false,
      "t": 98804.2094999998,
      "d": 326.0865000000049,
      "v": 101
    },
    {
      "midi": 83,
      "hit": false,
      "t": 98804.20950000017,
      "d": 326.0865000000049,
      "v": 101
    },
    {
      "midi": 91,
      "hit": false,
      "t": 98804.20950000023,
      "d": 326.0865000000049,
      "v": 101
    },
    {
      "midi": 95,
      "hit": false,
      "t": 98804.20950000023,
      "d": 326.0865000000049,
      "v": 101
    },
    {
      "midi": 43,
      "hit": false,
      "t": 98804.20950000062,
      "d": 163.04325000000244,
      "v": 101
    },
    {
      "midi": 43,
      "hit": false,
      "t": 98967.25275000063,
      "d": 163.04325000000244,
      "v": 101
    },
    {
      "midi": 57,
      "hit": false,
      "t": 99130.2959999998,
      "d": 489.1297499999928,
      "v": 101
    },
    {
      "midi": 62,
      "hit": false,
      "t": 99130.2959999998,
      "d": 489.1297499999928,
      "v": 101
    },
    {
      "midi": 66,
      "hit": false,
      "t": 99130.2959999998,
      "d": 489.1297499999928,
      "v": 101
    },
    {
      "midi": 86,
      "hit": false,
      "t": 99130.29600000018,
      "d": 489.1297499999928,
      "v": 101
    },
    {
      "midi": 93,
      "hit": false,
      "t": 99130.29600000023,
      "d": 489.1297499999928,
      "v": 101
    },
    {
      "midi": 98,
      "hit": false,
      "t": 99130.29600000023,
      "d": 489.1297499999928,
      "v": 101
    },
    {
      "midi": 45,
      "hit": false,
      "t": 99130.29600000063,
      "d": 163.04325000000244,
      "v": 101
    },
    {
      "midi": 45,
      "hit": false,
      "t": 99293.33925000063,
      "d": 163.04325000000244,
      "v": 101
    },
    {
      "midi": 45,
      "hit": false,
      "t": 99456.38250000063,
      "d": 163.04325000000244,
      "v": 101
    },
    {
      "midi": 57,
      "hit": false,
      "t": 99619.42574999979,
      "d": 489.1297499999928,
      "v": 101
    },
    {
      "midi": 62,
      "hit": false,
      "t": 99619.42574999979,
      "d": 489.1297499999928,
      "v": 101
    },
    {
      "midi": 66,
      "hit": false,
      "t": 99619.42574999979,
      "d": 489.1297499999928,
      "v": 101
    },
    {
      "midi": 81,
      "hit": false,
      "t": 99619.42575000017,
      "d": 815.2162499999977,
      "v": 101
    },
    {
      "midi": 86,
      "hit": false,
      "t": 99619.42575000023,
      "d": 815.2162499999977,
      "v": 101
    },
    {
      "midi": 93,
      "hit": false,
      "t": 99619.42575000023,
      "d": 815.2162499999977,
      "v": 101
    },
    {
      "midi": 45,
      "hit": false,
      "t": 99619.42575000064,
      "d": 163.04325000000244,
      "v": 101
    },
    {
      "midi": 45,
      "hit": false,
      "t": 99782.46900000064,
      "d": 163.04325000000244,
      "v": 101
    },
    {
      "midi": 45,
      "hit": false,
      "t": 99945.51225000064,
      "d": 163.04325000000244,
      "v": 101
    },
    {
      "midi": 57,
      "hit": false,
      "t": 100108.55549999978,
      "d": 326.0865000000049,
      "v": 101
    },
    {
      "midi": 62,
      "hit": false,
      "t": 100108.55549999978,
      "d": 326.0865000000049,
      "v": 101
    },
    {
      "midi": 66,
      "hit": false,
      "t": 100108.55549999978,
      "d": 326.0865000000049,
      "v": 101
    },
    {
      "midi": 45,
      "hit": false,
      "t": 100108.55550000064,
      "d": 163.04325000000244,
      "v": 101
    },
    {
      "midi": 45,
      "hit": false,
      "t": 100271.59875000064,
      "d": 163.04325000000244,
      "v": 101
    },
    {
      "midi": 64,
      "hit": false,
      "t": 100760.7284999998,
      "d": 2282.605500000005,
      "v": 101
    },
    {
      "midi": 67,
      "hit": false,
      "t": 100760.7284999998,
      "d": 2282.605500000005,
      "v": 101
    },
    {
      "midi": 69,
      "hit": false,
      "t": 100760.7284999998,
      "d": 2282.605500000005,
      "v": 101
    },
    {
      "midi": 76,
      "hit": false,
      "t": 100760.72850000017,
      "d": 2282.605500000005,
      "v": 101
    },
    {
      "midi": 79,
      "hit": false,
      "t": 100760.72850000017,
      "d": 2282.605500000005,
      "v": 101
    },
    {
      "midi": 81,
      "hit": false,
      "t": 100760.72850000023,
      "d": 2282.605500000005,
      "v": 101
    },
    {
      "midi": 88,
      "hit": false,
      "t": 100760.72850000023,
      "d": 2282.605500000005,
      "v": 101
    },
    {
      "midi": 34,
      "hit": false,
      "t": 100760.72850000065,
      "d": 2282.605500000005,
      "v": 101
    },
    {
      "midi": 46,
      "hit": false,
      "t": 100760.72850000065,
      "d": 2282.605500000005,
      "v": 101
    }
  ]
}