{
  "jsonPath": "Folk/Irish Folk/Maura Oconnell/crazy-love.json",
  "path": "Folk\\Irish Folk\\Maura Oconnell\\Crazy Love.mid",
  "name": "Crazy Love",
  "difficulty": "Advanced",
  "bpm": 127.00025400050801,
  "notes": [
    {
      "midi": 67,
      "hit": false,
      "t": 11999.988000000001,
      "d": 65.3408437500002,
      "v": 64
    },
    {
      "midi": 72,
      "hit": false,
      "t": 11999.988000000001,
      "d": 90.90899999999965,
      "v": 74
    },
    {
      "midi": 76,
      "hit": false,
      "t": 11999.988000000001,
      "d": 99.43171875000007,
      "v": 73
    },
    {
      "midi": 67,
      "hit": false,
      "t": 13090.896,
      "d": 170.45437499999935,
      "v": 76
    },
    {
      "midi": 74,
      "hit": false,
      "t": 13090.896,
      "d": 215.90887499999917,
      "v": 78
    },
    {
      "midi": 67,
      "hit": false,
      "t": 13636.35,
      "d": 82.38628124999923,
      "v": 76
    },
    {
      "midi": 71,
      "hit": false,
      "t": 13636.35,
      "d": 82.38628124999923,
      "v": 82
    },
    {
      "midi": 64,
      "hit": false,
      "t": 14454.530999999999,
      "d": 156.24984374999985,
      "v": 62
    },
    {
      "midi": 64,
      "hit": false,
      "t": 14727.257999999998,
      "d": 122.15896874999999,
      "v": 87
    },
    {
      "midi": 72,
      "hit": false,
      "t": 14727.257999999998,
      "d": 156.24984374999985,
      "v": 90
    },
    {
      "midi": 71,
      "hit": false,
      "t": 15272.711999999998,
      "d": 176.13618750000023,
      "v": 82
    },
    {
      "midi": 67,
      "hit": false,
      "t": 15272.711999999998,
      "d": 247.1588437499995,
      "v": 87
    },
    {
      "midi": 62,
      "hit": false,
      "t": 15272.711999999998,
      "d": 315.34059374999924,
      "v": 62
    },
    {
      "midi": 60,
      "hit": false,
      "t": 18272.708999999995,
      "d": 374.9996250000004,
      "v": 73
    },
    {
      "midi": 64,
      "hit": false,
      "t": 18409.072499999995,
      "d": 187.499812500002,
      "v": 79
    },
    {
      "midi": 67,
      "hit": false,
      "t": 18545.435999999998,
      "d": 173.29528124999706,
      "v": 85
    },
    {
      "midi": 59,
      "hit": false,
      "t": 19363.616999999995,
      "d": 369.3178125000013,
      "v": 73
    },
    {
      "midi": 62,
      "hit": false,
      "t": 19499.980499999998,
      "d": 244.31793749999997,
      "v": 79
    },
    {
      "midi": 67,
      "hit": false,
      "t": 19636.343999999997,
      "d": 167.61346875000163,
      "v": 82
    },
    {
      "midi": 35,
      "hit": false,
      "t": 55636.308000000005,
      "d": 511.3631250000035,
      "v": 103
    },
    {
      "midi": 47,
      "hit": false,
      "t": 55636.308000000005,
      "d": 517.0449375000026,
      "v": 114
    },
    {
      "midi": 38,
      "hit": false,
      "t": 56181.76200000001,
      "d": 582.3857812499991,
      "v": 94
    },
    {
      "midi": 50,
      "hit": false,
      "t": 56181.76200000001,
      "d": 607.9539375000022,
      "v": 92
    },
    {
      "midi": 52,
      "hit": false,
      "t": 56727.21600000001,
      "d": 1099.4307187500017,
      "v": 110
    },
    {
      "midi": 40,
      "hit": false,
      "t": 56727.21600000001,
      "d": 1684.6574062500003,
      "v": 117
    },
    {
      "midi": 55,
      "hit": false,
      "t": 57454.48800000001,
      "d": 187.49981249999837,
      "v": 26
    },
    {
      "midi": 55,
      "hit": false,
      "t": 57818.12400000001,
      "d": 951.7035937499968,
      "v": 83
    },
    {
      "midi": 59,
      "hit": false,
      "t": 57818.12400000001,
      "d": 963.0672187499949,
      "v": 74
    },
    {
      "midi": 52,
      "hit": false,
      "t": 58363.57800000001,
      "d": 534.0903749999998,
      "v": 49
    },
    {
      "midi": 40,
      "hit": false,
      "t": 58636.30500000001,
      "d": 130.6816875000004,
      "v": 78
    },
    {
      "midi": 55,
      "hit": false,
      "t": 58909.03200000001,
      "d": 946.0217812499977,
      "v": 76
    },
    {
      "midi": 59,
      "hit": false,
      "t": 58909.03200000001,
      "d": 946.0217812499977,
      "v": 73
    },
    {
      "midi": 40,
      "hit": false,
      "t": 58909.03200000001,
      "d": 2110.7933437500033,
      "v": 81
    },
    {
      "midi": 52,
      "hit": false,
      "t": 59454.486000000004,
      "d": 579.5448749999996,
      "v": 56
    },
    {
      "midi": 55,
      "hit": false,
      "t": 59999.94,
      "d": 579.5448750000069,
      "v": 82
    },
    {
      "midi": 59,
      "hit": false,
      "t": 59999.94,
      "d": 613.6357500000086,
      "v": 78
    },
    {
      "midi": 52,
      "hit": false,
      "t": 60545.39400000001,
      "d": 62.49993750000431,
      "v": 54
    },
    {
      "midi": 50,
      "hit": false,
      "t": 60909.03000000001,
      "d": 170.4543749999939,
      "v": 62
    },
    {
      "midi": 55,
      "hit": false,
      "t": 60999.93900000001,
      "d": 943.1808749999909,
      "v": 76
    },
    {
      "midi": 59,
      "hit": false,
      "t": 61090.848000000005,
      "d": 857.9536874999976,
      "v": 74
    },
    {
      "midi": 43,
      "hit": false,
      "t": 61090.848000000005,
      "d": 1738.6346249999988,
      "v": 83
    },
    {
      "midi": 50,
      "hit": false,
      "t": 61636.302,
      "d": 386.36325000000215,
      "v": 59
    },
    {
      "midi": 55,
      "hit": false,
      "t": 62181.75600000001,
      "d": 917.6127187499951,
      "v": 94
    },
    {
      "midi": 59,
      "hit": false,
      "t": 62181.75600000001,
      "d": 934.6581562499923,
      "v": 88
    },
    {
      "midi": 50,
      "hit": false,
      "t": 62727.21000000001,
      "d": 494.31768749999173,
      "v": 51
    },
    {
      "midi": 43,
      "hit": false,
      "t": 62999.937000000005,
      "d": 1309.657781249989,
      "v": 64
    },
    {
      "midi": 59,
      "hit": false,
      "t": 63272.664,
      "d": 374.99962499999674,
      "v": 77
    },
    {
      "midi": 55,
      "hit": false,
      "t": 63272.664,
      "d": 451.7040937499987,
      "v": 74
    },
    {
      "midi": 50,
      "hit": false,
      "t": 63818.117999999995,
      "d": 39.77268750000076,
      "v": 56
    },
    {
      "midi": 59,
      "hit": false,
      "t": 63818.117999999995,
      "d": 42.61359375000029,
      "v": 60
    },
    {
      "midi": 35,
      "hit": false,
      "t": 64363.572,
      "d": 508.5222187499967,
      "v": 101
    },
    {
      "midi": 47,
      "hit": false,
      "t": 64363.572,
      "d": 573.8630625000005,
      "v": 114
    },
    {
      "midi": 38,
      "hit": false,
      "t": 64909.026,
      "d": 562.4994375000024,
      "v": 97
    },
    {
      "midi": 50,
      "hit": false,
      "t": 64909.026,
      "d": 588.0675937500055,
      "v": 93
    },
    {
      "midi": 52,
      "hit": false,
      "t": 65454.48,
      "d": 1045.4535000000105,
      "v": 104
    },
    {
      "midi": 40,
      "hit": false,
      "t": 65454.48,
      "d": 1747.157343750012,
      "v": 112
    },
    {
      "midi": 55,
      "hit": false,
      "t": 65999.93400000001,
      "d": 411.93140625000524,
      "v": 53
    },
    {
      "midi": 55,
      "hit": false,
      "t": 66545.38800000002,
      "d": 909.0899999999965,
      "v": 89
    },
    {
      "midi": 59,
      "hit": false,
      "t": 66545.38800000002,
      "d": 943.1808749999909,
      "v": 78
    },
    {
      "midi": 52,
      "hit": false,
      "t": 67090.84200000002,
      "d": 582.3857812499919,
      "v": 61
    },
    {
      "midi": 40,
      "hit": false,
      "t": 67363.56900000002,
      "d": 142.04531249999127,
      "v": 68
    },
    {
      "midi": 40,
      "hit": false,
      "t": 67636.29600000002,
      "d": 446.02228124999965,
      "v": 86
    },
    {
      "midi": 55,
      "hit": false,
      "t": 67636.29600000002,
      "d": 931.8172499999928,
      "v": 83
    },
    {
      "midi": 59,
      "hit": false,
      "t": 67636.29600000002,
      "d": 951.7035937499895,
      "v": 77
    },
    {
      "midi": 52,
      "hit": false,
      "t": 68181.75000000001,
      "d": 485.79496874999313,
      "v": 56
    },
    {
      "midi": 40,
      "hit": false,
      "t": 68181.75000000001,
      "d": 1667.6119687499886,
      "v": 71
    },
    {
      "midi": 55,
      "hit": false,
      "t": 68727.20400000001,
      "d": 571.0221562499937,
      "v": 92
    },
    {
      "midi": 59,
      "hit": false,
      "t": 68727.20400000001,
      "d": 582.3857812499919,
      "v": 80
    },
    {
      "midi": 52,
      "hit": false,
      "t": 69272.65800000001,
      "d": 96.59081249999872,
      "v": 58
    },
    {
      "midi": 55,
      "hit": false,
      "t": 69818.11200000001,
      "d": 852.2718749999913,
      "v": 88
    },
    {
      "midi": 59,
      "hit": false,
      "t": 69818.11200000001,
      "d": 857.9536874999903,
      "v": 82
    },
    {
      "midi": 43,
      "hit": false,
      "t": 69818.11200000001,
      "d": 1744.316437499976,
      "v": 89
    },
    {
      "midi": 50,
      "hit": false,
      "t": 70363.566,
      "d": 414.7723124999902,
      "v": 52
    },
    {
      "midi": 55,
      "hit": false,
      "t": 70909.01999999999,
      "d": 928.9763437499932,
      "v": 92
    },
    {
      "midi": 59,
      "hit": false,
      "t": 70909.01999999999,
      "d": 943.1808749999909,
      "v": 91
    },
    {
      "midi": 50,
      "hit": false,
      "t": 71454.47399999999,
      "d": 542.6130937499838,
      "v": 55
    },
    {
      "midi": 43,
      "hit": false,
      "t": 71727.20099999999,
      "d": 207.38615624998056,
      "v": 67
    },
    {
      "midi": 55,
      "hit": false,
      "t": 71999.92799999997,
      "d": 886.3627500000002,
      "v": 76
    },
    {
      "midi": 59,
      "hit": false,
      "t": 71999.92799999997,
      "d": 900.5672812499979,
      "v": 75
    },
    {
      "midi": 43,
      "hit": false,
      "t": 71999.92799999997,
      "d": 2159.0887499999953,
      "v": 78
    },
    {
      "midi": 50,
      "hit": false,
      "t": 72545.38199999997,
      "d": 488.6358750000072,
      "v": 55
    },
    {
      "midi": 55,
      "hit": false,
      "t": 73090.83599999998,
      "d": 542.6130937499984,
      "v": 90
    },
    {
      "midi": 59,
      "hit": false,
      "t": 73090.83599999998,
      "d": 568.1812499999942,
      "v": 87
    },
    {
      "midi": 50,
      "hit": false,
      "t": 73636.28999999998,
      "d": 25.56815624999581,
      "v": 50
    },
    {
      "midi": 57,
      "hit": false,
      "t": 74181.74399999996,
      "d": 923.2945312499942,
      "v": 85
    },
    {
      "midi": 60,
      "hit": false,
      "t": 74181.74399999996,
      "d": 928.9763437499932,
      "v": 83
    },
    {
      "midi": 45,
      "hit": false,
      "t": 74181.74399999996,
      "d": 1769.884593750001,
      "v": 91
    },
    {
      "midi": 52,
      "hit": false,
      "t": 74727.19799999996,
      "d": 431.817750000002,
      "v": 51
    },
    {
      "midi": 60,
      "hit": false,
      "t": 75272.65199999996,
      "d": 911.9309062500106,
      "v": 83
    },
    {
      "midi": 57,
      "hit": false,
      "t": 75272.65199999996,
      "d": 914.7718125000101,
      "v": 83
    },
    {
      "midi": 52,
      "hit": false,
      "t": 75818.10599999996,
      "d": 497.1585937500058,
      "v": 57
    },
    {
      "midi": 45,
      "hit": false,
      "t": 76090.83299999997,
      "d": 210.22706249999464,
      "v": 64
    },
    {
      "midi": 57,
      "hit": false,
      "t": 76363.55999999995,
      "d": 627.840281249999,
      "v": 78
    },
    {
      "midi": 60,
      "hit": false,
      "t": 76363.55999999995,
      "d": 650.5675312499952,
      "v": 78
    },
    {
      "midi": 45,
      "hit": false,
      "t": 76363.55999999995,
      "d": 1707.3846562499966,
      "v": 74
    },
    {
      "midi": 52,
      "hit": false,
      "t": 76909.01399999995,
      "d": 528.4085625000007,
      "v": 55
    },
    {
      "midi": 60,
      "hit": false,
      "t": 77454.46799999995,
      "d": 542.6130937499984,
      "v": 82
    },
    {
      "midi": 57,
      "hit": false,
      "t": 77454.46799999995,
      "d": 559.6585312499956,
      "v": 82
    },
    {
      "midi": 52,
      "hit": false,
      "t": 77999.92199999995,
      "d": 130.68168750000768,
      "v": 64
    },
    {
      "midi": 60,
      "hit": false,
      "t": 78545.37599999995,
      "d": 874.9991250000021,
      "v": 81
    },
    {
      "midi": 55,
      "hit": false,
      "t": 78545.37599999995,
      "d": 914.7718124999956,
      "v": 84
    },
    {
      "midi": 48,
      "hit": false,
      "t": 78545.37599999995,
      "d": 1738.6346249999915,
      "v": 79
    },
    {
      "midi": 52,
      "hit": false,
      "t": 79090.82999999994,
      "d": 446.02228124999965,
      "v": 56
    },
    {
      "midi": 60,
      "hit": false,
      "t": 79636.28399999994,
      "d": 869.317312500003,
      "v": 92
    },
    {
      "midi": 55,
      "hit": false,
      "t": 79636.28399999994,
      "d": 923.2945312500087,
      "v": 96
    },
    {
      "midi": 52,
      "hit": false,
      "t": 80181.73799999994,
      "d": 542.6130937500129,
      "v": 54
    },
    {
      "midi": 48,
      "hit": false,
      "t": 80454.46499999994,
      "d": 113.63625000001048,
      "v": 50
    },
    {
      "midi": 60,
      "hit": false,
      "t": 80727.19199999995,
      "d": 843.7491562499927,
      "v": 82
    },
    {
      "midi": 55,
      "hit": false,
      "t": 80727.19199999995,
      "d": 906.249093749997,
      "v": 82
    },
    {
      "midi": 48,
      "hit": false,
      "t": 80727.19199999995,
      "d": 2184.656906249991,
      "v": 72
    },
    {
      "midi": 52,
      "hit": false,
      "t": 81272.64599999995,
      "d": 525.5676562500012,
      "v": 60
    },
    {
      "midi": 55,
      "hit": false,
      "t": 81818.09999999995,
      "d": 548.2949062499974,
      "v": 89
    },
    {
      "midi": 60,
      "hit": false,
      "t": 81818.09999999995,
      "d": 605.1130312500027,
      "v": 92
    },
    {
      "midi": 52,
      "hit": false,
      "t": 82363.55399999995,
      "d": 88.06809375000012,
      "v": 61
    },
    {
      "midi": 55,
      "hit": false,
      "t": 82909.00799999994,
      "d": 843.7491562499927,
      "v": 96
    },
    {
      "midi": 59,
      "hit": false,
      "t": 82909.00799999994,
      "d": 843.7491562499927,
      "v": 93
    },
    {
      "midi": 43,
      "hit": false,
      "t": 82909.00799999994,
      "d": 1690.3392187499994,
      "v": 78
    },
    {
      "midi": 50,
      "hit": false,
      "t": 83454.46199999994,
      "d": 480.11315624999406,
      "v": 56
    },
    {
      "midi": 59,
      "hit": false,
      "t": 83999.91599999994,
      "d": 727.2719999999972,
      "v": 104
    },
    {
      "midi": 55,
      "hit": false,
      "t": 83999.91599999994,
      "d": 795.4537500000006,
      "v": 94
    },
    {
      "midi": 50,
      "hit": false,
      "t": 84545.36999999994,
      "d": 457.3859062499978,
      "v": 66
    },
    {
      "midi": 43,
      "hit": false,
      "t": 84818.09699999994,
      "d": 247.15884375000314,
      "v": 67
    },
    {
      "midi": 57,
      "hit": false,
      "t": 85090.82399999994,
      "d": 872.158218749988,
      "v": 92
    },
    {
      "midi": 53,
      "hit": false,
      "t": 85090.82399999994,
      "d": 889.2036562499852,
      "v": 97
    },
    {
      "midi": 41,
      "hit": false,
      "t": 85090.82399999994,
      "d": 2198.8614375000034,
      "v": 88
    },
    {
      "midi": 48,
      "hit": false,
      "t": 85636.27799999993,
      "d": 499.9994999999908,
      "v": 66
    },
    {
      "midi": 57,
      "hit": false,
      "t": 86181.73199999993,
      "d": 505.6813125000044,
      "v": 94
    },
    {
      "midi": 53,
      "hit": false,
      "t": 86181.73199999993,
      "d": 596.5903125000041,
      "v": 98
    },
    {
      "midi": 48,
      "hit": false,
      "t": 86727.18599999993,
      "d": 522.7267500000162,
      "v": 72
    },
    {
      "midi": 52,
      "hit": false,
      "t": 87272.63999999994,
      "d": 886.3627500000002,
      "v": 89
    },
    {
      "midi": 55,
      "hit": false,
      "t": 87272.63999999994,
      "d": 897.7263749999984,
      "v": 80
    },
    {
      "midi": 36,
      "hit": false,
      "t": 87272.63999999994,
      "d": 1798.2936562499963,
      "v": 97
    },
    {
      "midi": 48,
      "hit": false,
      "t": 87818.09399999994,
      "d": 437.49956250000105,
      "v": 50
    },
    {
      "midi": 52,
      "hit": false,
      "t": 88363.54799999994,
      "d": 946.0217812499905,
      "v": 92
    },
    {
      "midi": 55,
      "hit": false,
      "t": 88363.54799999994,
      "d": 951.7035937499895,
      "v": 84
    },
    {
      "midi": 48,
      "hit": false,
      "t": 88909.00199999993,
      "d": 528.4085624999861,
      "v": 65
    },
    {
      "midi": 36,
      "hit": false,
      "t": 89181.72899999993,
      "d": 156.24984374998894,
      "v": 71
    },
    {
      "midi": 36,
      "hit": false,
      "t": 89454.45599999992,
      "d": 420.45412500000384,
      "v": 79
    },
    {
      "midi": 55,
      "hit": false,
      "t": 89454.45599999992,
      "d": 664.7720624999929,
      "v": 82
    },
    {
      "midi": 52,
      "hit": false,
      "t": 89454.45599999992,
      "d": 678.9765937499906,
      "v": 81
    },
    {
      "midi": 48,
      "hit": false,
      "t": 89999.90999999992,
      "d": 485.79496874999313,
      "v": 57
    },
    {
      "midi": 36,
      "hit": false,
      "t": 89999.90999999992,
      "d": 843.7491562499927,
      "v": 78
    },
    {
      "midi": 55,
      "hit": false,
      "t": 90545.36399999991,
      "d": 485.79496874999313,
      "v": 88
    },
    {
      "midi": 52,
      "hit": false,
      "t": 90545.36399999991,
      "d": 539.7721874999988,
      "v": 93
    },
    {
      "midi": 48,
      "hit": false,
      "t": 91090.81799999991,
      "d": 82.38628125000105,
      "v": 67
    },
    {
      "midi": 31,
      "hit": false,
      "t": 91636.27199999991,
      "d": 4363.631999999998,
      "v": 91
    },
    {
      "midi": 50,
      "hit": false,
      "t": 91636.27199999991,
      "d": 4363.631999999998,
      "v": 79
    },
    {
      "midi": 55,
      "hit": false,
      "t": 91636.27199999991,
      "d": 4363.631999999998,
      "v": 86
    },
    {
      "midi": 59,
      "hit": false,
      "t": 91636.27199999991,
      "d": 4363.631999999998,
      "v": 80
    },
    {
      "midi": 45,
      "hit": false,
      "t": 96408.99449999991,
      "d": 1321.0214062500017,
      "v": 38
    },
    {
      "midi": 60,
      "hit": false,
      "t": 97090.81199999992,
      "d": 974.4308437500003,
      "v": 81
    },
    {
      "midi": 57,
      "hit": false,
      "t": 97090.81199999992,
      "d": 988.635374999998,
      "v": 79
    },
    {
      "midi": 52,
      "hit": false,
      "t": 97840.81124999991,
      "d": 315.3405937500065,
      "v": 9
    },
    {
      "midi": 45,
      "hit": false,
      "t": 97908.99299999991,
      "d": 133.52259375000722,
      "v": 72
    },
    {
      "midi": 60,
      "hit": false,
      "t": 98181.71999999991,
      "d": 164.77256249998754,
      "v": 74
    },
    {
      "midi": 57,
      "hit": false,
      "t": 98181.71999999991,
      "d": 178.97709374998522,
      "v": 74
    },
    {
      "midi": 45,
      "hit": false,
      "t": 98181.71999999991,
      "d": 193.1816249999829,
      "v": 78
    },
    {
      "midi": 60,
      "hit": false,
      "t": 98727.1739999999,
      "d": 897.7263749999984,
      "v": 76
    },
    {
      "midi": 57,
      "hit": false,
      "t": 98727.1739999999,
      "d": 928.9763437499932,
      "v": 74
    },
    {
      "midi": 45,
      "hit": false,
      "t": 98727.1739999999,
      "d": 951.7035937499895,
      "v": 72
    },
    {
      "midi": 52,
      "hit": false,
      "t": 99613.5367499999,
      "d": 85.22718749998603,
      "v": 39
    },
    {
      "midi": 59,
      "hit": false,
      "t": 99818.08199999988,
      "d": 45.4545000000071,
      "v": 52
    },
    {
      "midi": 47,
      "hit": false,
      "t": 99818.08199999988,
      "d": 491.47678125000675,
      "v": 80
    },
    {
      "midi": 55,
      "hit": false,
      "t": 100158.99074999988,
      "d": 1090.9079999999958,
      "v": 61
    },
    {
      "midi": 60,
      "hit": false,
      "t": 100227.17249999988,
      "d": 963.0672187500022,
      "v": 84
    },
    {
      "midi": 64,
      "hit": false,
      "t": 100363.53599999989,
      "d": 855.1127812499908,
      "v": 82
    },
    {
      "midi": 48,
      "hit": false,
      "t": 100363.53599999989,
      "d": 1681.8164999999863,
      "v": 86
    },
    {
      "midi": 64,
      "hit": false,
      "t": 101454.44399999987,
      "d": 607.9539375000022,
      "v": 106
    },
    {
      "midi": 60,
      "hit": false,
      "t": 101454.44399999987,
      "d": 710.2265625,
      "v": 101
    },
    {
      "midi": 48,
      "hit": false,
      "t": 102340.80674999987,
      "d": 201.7043437500106,
      "v": 59
    },
    {
      "midi": 59,
      "hit": false,
      "t": 102545.35199999988,
      "d": 409.09049999999115,
      "v": 75
    },
    {
      "midi": 62,
      "hit": false,
      "t": 102545.35199999988,
      "d": 562.4994374999951,
      "v": 82
    },
    {
      "midi": 47,
      "hit": false,
      "t": 102545.35199999988,
      "d": 1059.658031250001,
      "v": 104
    },
    {
      "midi": 66,
      "hit": false,
      "t": 103158.98774999988,
      "d": 62.49993750000431,
      "v": 82
    },
    {
      "midi": 59,
      "hit": false,
      "t": 103158.98774999988,
      "d": 71.02265625000291,
      "v": 77
    },
    {
      "midi": 50,
      "hit": false,
      "t": 104522.62274999988,
      "d": 1053.9762187500019,
      "v": 63
    },
    {
      "midi": 55,
      "hit": false,
      "t": 104590.80449999988,
      "d": 1011.3626249999943,
      "v": 76
    },
    {
      "midi": 59,
      "hit": false,
      "t": 104658.98624999989,
      "d": 840.9082499999931,
      "v": 80
    },
    {
      "midi": 43,
      "hit": false,
      "t": 104658.98624999989,
      "d": 2198.8614374999743,
      "v": 77
    },
    {
      "midi": 50,
      "hit": false,
      "t": 105818.07599999987,
      "d": 102.27262499999779,
      "v": 88
    },
    {
      "midi": 59,
      "hit": false,
      "t": 105818.07599999987,
      "d": 136.3634999999922,
      "v": 98
    },
    {
      "midi": 48,
      "hit": false,
      "t": 106908.98399999987,
      "d": 284.0906249999971,
      "v": 112
    },
    {
      "midi": 36,
      "hit": false,
      "t": 106908.98399999987,
      "d": 315.34059374999197,
      "v": 100
    },
    {
      "midi": 40,
      "hit": false,
      "t": 107181.71099999986,
      "d": 249.99974999998813,
      "v": 95
    },
    {
      "midi": 52,
      "hit": false,
      "t": 107181.71099999986,
      "d": 275.56790624998393,
      "v": 95
    },
    {
      "midi": 55,
      "hit": false,
      "t": 107454.43799999985,
      "d": 301.1360624999943,
      "v": 111
    },
    {
      "midi": 43,
      "hit": false,
      "t": 107454.43799999985,
      "d": 318.1814999999915,
      "v": 89
    },
    {
      "midi": 52,
      "hit": false,
      "t": 107727.16499999985,
      "d": 249.99974999998813,
      "v": 95
    },
    {
      "midi": 40,
      "hit": false,
      "t": 107727.16499999985,
      "d": 267.04518749998533,
      "v": 81
    },
    {
      "midi": 50,
      "hit": false,
      "t": 107999.89199999983,
      "d": 275.5679062499985,
      "v": 100
    },
    {
      "midi": 38,
      "hit": false,
      "t": 107999.89199999983,
      "d": 306.81787499999336,
      "v": 87
    },
    {
      "midi": 42,
      "hit": false,
      "t": 108272.61899999983,
      "d": 215.9088749999937,
      "v": 88
    },
    {
      "midi": 54,
      "hit": false,
      "t": 108272.61899999983,
      "d": 281.24971874999756,
      "v": 92
    },
    {
      "midi": 57,
      "hit": false,
      "t": 108545.34599999983,
      "d": 312.49968749999243,
      "v": 104
    },
    {
      "midi": 45,
      "hit": false,
      "t": 108545.34599999983,
      "d": 326.7042187499901,
      "v": 78
    },
    {
      "midi": 42,
      "hit": false,
      "t": 108818.07299999983,
      "d": 99.43171874999825,
      "v": 62
    },
    {
      "midi": 54,
      "hit": false,
      "t": 108818.07299999983,
      "d": 116.47715624999546,
      "v": 88
    },
    {
      "midi": 31,
      "hit": false,
      "t": 109090.79999999983,
      "d": 1977.2707500000106,
      "v": 94
    },
    {
      "midi": 55,
      "hit": false,
      "t": 110181.70799999984,
      "d": 53.977218750005704,
      "v": 61
    },
    {
      "midi": 50,
      "hit": false,
      "t": 110181.70799999984,
      "d": 79.54537500000151,
      "v": 69
    },
    {
      "midi": 43,
      "hit": false,
      "t": 110999.88899999984,
      "d": 1113.635249999992,
      "v": 74
    },
    {
      "midi": 55,
      "hit": false,
      "t": 111272.61599999983,
      "d": 105.11353124999732,
      "v": 65
    },
    {
      "midi": 31,
      "hit": false,
      "t": 111272.61599999983,
      "d": 2176.134187500007,
      "v": 72
    },
    {
      "midi": 50,
      "hit": false,
      "t": 111818.06999999983,
      "d": 76.70446875000198,
      "v": 67
    },
    {
      "midi": 59,
      "hit": false,
      "t": 111818.06999999983,
      "d": 88.06809375000012,
      "v": 85
    },
    {
      "midi": 43,
      "hit": false,
      "t": 112363.52399999983,
      "d": 673.294781250006,
      "v": 72
    },
    {
      "midi": 50,
      "hit": false,
      "t": 112704.43274999983,
      "d": 110.79534374999639,
      "v": 68
    },
    {
      "midi": 55,
      "hit": false,
      "t": 112908.97799999983,
      "d": 59.65903125000477,
      "v": 88
    },
    {
      "midi": 59,
      "hit": false,
      "t": 112908.97799999983,
      "d": 82.38628125000105,
      "v": 92
    },
    {
      "midi": 52,
      "hit": false,
      "t": 113318.06849999983,
      "d": 159.09075000000303,
      "v": 51
    },
    {
      "midi": 57,
      "hit": false,
      "t": 113386.25024999984,
      "d": 650.5675312499952,
      "v": 81
    },
    {
      "midi": 60,
      "hit": false,
      "t": 113454.43199999984,
      "d": 622.1584687499853,
      "v": 80
    },
    {
      "midi": 33,
      "hit": false,
      "t": 113454.43199999984,
      "d": 1960.2253124999843,
      "v": 77
    },
    {
      "midi": 52,
      "hit": false,
      "t": 113999.88599999984,
      "d": 102.27262499998324,
      "v": 54
    },
    {
      "midi": 45,
      "hit": false,
      "t": 114272.61299999982,
      "d": 792.612843750001,
      "v": 20
    },
    {
      "midi": 60,
      "hit": false,
      "t": 114545.33999999982,
      "d": 335.22693750000326,
      "v": 94
    },
    {
      "midi": 57,
      "hit": false,
      "t": 114545.33999999982,
      "d": 534.0903749999998,
      "v": 92
    },
    {
      "midi": 52,
      "hit": false,
      "t": 115090.79399999982,
      "d": 56.81812500000524,
      "v": 55
    },
    {
      "midi": 45,
      "hit": false,
      "t": 115363.52099999982,
      "d": 946.021781250005,
      "v": 71
    },
    {
      "midi": 60,
      "hit": false,
      "t": 115636.24799999983,
      "d": 102.27262499999779,
      "v": 69
    },
    {
      "midi": 57,
      "hit": false,
      "t": 115636.24799999983,
      "d": 113.63624999999593,
      "v": 71
    },
    {
      "midi": 33,
      "hit": false,
      "t": 115636.24799999983,
      "d": 1659.08924999999,
      "v": 74
    },
    {
      "midi": 60,
      "hit": false,
      "t": 116181.70199999983,
      "d": 113.63624999999593,
      "v": 85
    },
    {
      "midi": 57,
      "hit": false,
      "t": 116181.70199999983,
      "d": 127.8407812499936,
      "v": 87
    },
    {
      "midi": 45,
      "hit": false,
      "t": 116727.15599999983,
      "d": 505.6813125000044,
      "v": 77
    },
    {
      "midi": 52,
      "hit": false,
      "t": 116999.88299999983,
      "d": 142.04531250000582,
      "v": 73
    },
    {
      "midi": 59,
      "hit": false,
      "t": 117272.60999999983,
      "d": 312.49968749999243,
      "v": 98
    },
    {
      "midi": 35,
      "hit": false,
      "t": 117272.60999999983,
      "d": 553.976718749982,
      "v": 87
    },
    {
      "midi": 55,
      "hit": false,
      "t": 117545.33699999982,
      "d": 252.84065624998766,
      "v": 51
    },
    {
      "midi": 64,
      "hit": false,
      "t": 117818.06399999981,
      "d": 894.8854687500134,
      "v": 81
    },
    {
      "midi": 60,
      "hit": false,
      "t": 117818.06399999981,
      "d": 903.408187500012,
      "v": 88
    },
    {
      "midi": 36,
      "hit": false,
      "t": 117818.06399999981,
      "d": 1531.2484687500255,
      "v": 97
    },
    {
      "midi": 55,
      "hit": false,
      "t": 118363.51799999982,
      "d": 403.40868750000664,
      "v": 63
    },
    {
      "midi": 48,
      "hit": false,
      "t": 118636.24499999982,
      "d": 713.0674687500141,
      "v": 47
    },
    {
      "midi": 64,
      "hit": false,
      "t": 118908.97199999983,
      "d": 590.9084999999905,
      "v": 103
    },
    {
      "midi": 60,
      "hit": false,
      "t": 118908.97199999983,
      "d": 630.6811874999839,
      "v": 101
    },
    {
      "midi": 55,
      "hit": false,
      "t": 119386.24424999983,
      "d": 85.22718750000058,
      "v": 78
    },
    {
      "midi": 47,
      "hit": false,
      "t": 119727.15299999982,
      "d": 1497.157593750002,
      "v": 85
    },
    {
      "midi": 59,
      "hit": false,
      "t": 119999.87999999982,
      "d": 340.9087500000023,
      "v": 78
    },
    {
      "midi": 62,
      "hit": false,
      "t": 119999.87999999982,
      "d": 451.7040937499987,
      "v": 83
    },
    {
      "midi": 35,
      "hit": false,
      "t": 119999.87999999982,
      "d": 1002.8399062499957,
      "v": 75
    },
    {
      "midi": 59,
      "hit": false,
      "t": 120477.15224999981,
      "d": 90.90899999999965,
      "v": 82
    },
    {
      "midi": 66,
      "hit": false,
      "t": 120545.33399999981,
      "d": 73.86356250000244,
      "v": 89
    },
    {
      "midi": 35,
      "hit": false,
      "t": 121158.96974999981,
      "d": 284.0906249999971,
      "v": 61
    },
    {
      "midi": 59,
      "hit": false,
      "t": 121431.69674999981,
      "d": 176.13618750000023,
      "v": 67
    },
    {
      "midi": 66,
      "hit": false,
      "t": 121636.24199999981,
      "d": 45.4545000000071,
      "v": 62
    },
    {
      "midi": 59,
      "hit": false,
      "t": 121636.24199999981,
      "d": 51.13631250000617,
      "v": 45
    },
    {
      "midi": 62,
      "hit": false,
      "t": 121636.24199999981,
      "d": 68.18175000000338,
      "v": 78
    },
    {
      "midi": 43,
      "hit": false,
      "t": 121908.96899999981,
      "d": 798.2946562500001,
      "v": 56
    },
    {
      "midi": 59,
      "hit": false,
      "t": 122181.6959999998,
      "d": 832.3855312499945,
      "v": 93
    },
    {
      "midi": 55,
      "hit": false,
      "t": 122181.6959999998,
      "d": 852.2718749999913,
      "v": 97
    },
    {
      "midi": 31,
      "hit": false,
      "t": 122181.6959999998,
      "d": 1431.8167499999981,
      "v": 83
    },
    {
      "midi": 43,
      "hit": false,
      "t": 122999.8769999998,
      "d": 747.1583437500085,
      "v": 61
    },
    {
      "midi": 55,
      "hit": false,
      "t": 123272.6039999998,
      "d": 542.6130937500129,
      "v": 107
    },
    {
      "midi": 59,
      "hit": false,
      "t": 123272.6039999998,
      "d": 542.6130937500129,
      "v": 106
    },
    {
      "midi": 50,
      "hit": false,
      "t": 123818.05799999982,
      "d": 68.18175000000338,
      "v": 72
    },
    {
      "midi": 40,
      "hit": false,
      "t": 124363.51199999981,
      "d": 499.99950000000536,
      "v": 85
    },
    {
      "midi": 52,
      "hit": false,
      "t": 124363.51199999981,
      "d": 553.9767187500111,
      "v": 117
    },
    {
      "midi": 50,
      "hit": false,
      "t": 124908.96599999983,
      "d": 409.0905000000057,
      "v": 102
    },
    {
      "midi": 38,
      "hit": false,
      "t": 124908.96599999983,
      "d": 559.6585312500101,
      "v": 84
    },
    {
      "midi": 47,
      "hit": false,
      "t": 125454.41999999984,
      "d": 400.56778124999255,
      "v": 106
    },
    {
      "midi": 35,
      "hit": false,
      "t": 125454.41999999984,
      "d": 488.63587499999267,
      "v": 103
    },
    {
      "midi": 33,
      "hit": false,
      "t": 125999.87399999984,
      "d": 545.4539999999979,
      "v": 96
    },
    {
      "midi": 45,
      "hit": false,
      "t": 125999.87399999984,
      "d": 545.4539999999979,
      "v": 118
    },
    {
      "midi": 35,
      "hit": false,
      "t": 127636.23599999983,
      "d": 511.3631250000035,
      "v": 103
    },
    {
      "midi": 47,
      "hit": false,
      "t": 127636.23599999983,
      "d": 517.0449375000026,
      "v": 114
    },
    {
      "midi": 38,
      "hit": false,
      "t": 128181.68999999983,
      "d": 582.3857812499919,
      "v": 94
    },
    {
      "midi": 50,
      "hit": false,
      "t": 128181.68999999983,
      "d": 607.9539374999877,
      "v": 92
    },
    {
      "midi": 52,
      "hit": false,
      "t": 128727.14399999983,
      "d": 1099.4307187499799,
      "v": 110
    },
    {
      "midi": 40,
      "hit": false,
      "t": 128727.14399999983,
      "d": 1684.6574062499858,
      "v": 117
    },
    {
      "midi": 55,
      "hit": false,
      "t": 129454.41599999981,
      "d": 187.49981249999837,
      "v": 26
    },
    {
      "midi": 55,
      "hit": false,
      "t": 129818.0519999998,
      "d": 951.7035937500041,
      "v": 83
    },
    {
      "midi": 59,
      "hit": false,
      "t": 129818.0519999998,
      "d": 963.0672187500022,
      "v": 74
    },
    {
      "midi": 52,
      "hit": false,
      "t": 130363.5059999998,
      "d": 534.0903749999998,
      "v": 49
    },
    {
      "midi": 40,
      "hit": false,
      "t": 130636.23299999982,
      "d": 130.68168749999313,
      "v": 78
    },
    {
      "midi": 55,
      "hit": false,
      "t": 130908.9599999998,
      "d": 946.021781250005,
      "v": 76
    },
    {
      "midi": 59,
      "hit": false,
      "t": 130908.9599999998,
      "d": 946.021781250005,
      "v": 73
    },
    {
      "midi": 40,
      "hit": false,
      "t": 130908.9599999998,
      "d": 2110.793343750018,
      "v": 81
    },
    {
      "midi": 52,
      "hit": false,
      "t": 131454.41399999982,
      "d": 579.5448749999923,
      "v": 56
    },
    {
      "midi": 55,
      "hit": false,
      "t": 131999.8679999998,
      "d": 579.5448749999923,
      "v": 82
    },
    {
      "midi": 59,
      "hit": false,
      "t": 131999.8679999998,
      "d": 613.6357499999867,
      "v": 78
    },
    {
      "midi": 52,
      "hit": false,
      "t": 132545.3219999998,
      "d": 62.499937499989755,
      "v": 54
    },
    {
      "midi": 50,
      "hit": false,
      "t": 132908.9579999998,
      "d": 170.45437500000116,
      "v": 62
    },
    {
      "midi": 55,
      "hit": false,
      "t": 132999.86699999982,
      "d": 943.1808749999909,
      "v": 76
    },
    {
      "midi": 59,
      "hit": false,
      "t": 133090.7759999998,
      "d": 857.9536875000049,
      "v": 74
    },
    {
      "midi": 43,
      "hit": false,
      "t": 133090.7759999998,
      "d": 1738.634625000006,
      "v": 83
    },
    {
      "midi": 50,
      "hit": false,
      "t": 133636.2299999998,
      "d": 386.3632499999949,
      "v": 59
    },
    {
      "midi": 55,
      "hit": false,
      "t": 134181.6839999998,
      "d": 917.6127187500242,
      "v": 94
    },
    {
      "midi": 59,
      "hit": false,
      "t": 134181.6839999998,
      "d": 934.6581562500214,
      "v": 88
    },
    {
      "midi": 50,
      "hit": false,
      "t": 134727.1379999998,
      "d": 494.3176875000354,
      "v": 51
    },
    {
      "midi": 43,
      "hit": false,
      "t": 134999.86499999982,
      "d": 1309.6577812500182,
      "v": 64
    },
    {
      "midi": 59,
      "hit": false,
      "t": 135272.59199999983,
      "d": 374.99962499999674,
      "v": 77
    },
    {
      "midi": 55,
      "hit": false,
      "t": 135272.59199999983,
      "d": 451.70409374998417,
      "v": 74
    },
    {
      "midi": 50,
      "hit": false,
      "t": 135818.04599999983,
      "d": 39.77268749999348,
      "v": 56
    },
    {
      "midi": 59,
      "hit": false,
      "t": 135818.04599999983,
      "d": 42.613593749993015,
      "v": 60
    },
    {
      "midi": 35,
      "hit": false,
      "t": 136363.49999999983,
      "d": 508.52221875000396,
      "v": 101
    },
    {
      "midi": 47,
      "hit": false,
      "t": 136363.49999999983,
      "d": 573.8630624999932,
      "v": 114
    },
    {
      "midi": 38,
      "hit": false,
      "t": 136908.95399999982,
      "d": 562.4994374999951,
      "v": 97
    },
    {
      "midi": 50,
      "hit": false,
      "t": 136908.95399999982,
      "d": 588.0675937499909,
      "v": 93
    },
    {
      "midi": 52,
      "hit": false,
      "t": 137454.40799999982,
      "d": 1045.4534999999742,
      "v": 104
    },
    {
      "midi": 40,
      "hit": false,
      "t": 137454.40799999982,
      "d": 1747.1573437499756,
      "v": 112
    },
    {
      "midi": 55,
      "hit": false,
      "t": 137999.86199999982,
      "d": 411.9314062499907,
      "v": 53
    },
    {
      "midi": 55,
      "hit": false,
      "t": 138545.3159999998,
      "d": 909.0900000000256,
      "v": 89
    },
    {
      "midi": 59,
      "hit": false,
      "t": 138545.3159999998,
      "d": 943.18087500002,
      "v": 78
    },
    {
      "midi": 52,
      "hit": false,
      "t": 139090.7699999998,
      "d": 582.3857812499919,
      "v": 61
    },
    {
      "midi": 40,
      "hit": false,
      "t": 139363.4969999998,
      "d": 142.04531250000582,
      "v": 68
    },
    {
      "midi": 40,
      "hit": false,
      "t": 139636.22399999978,
      "d": 446.0222812499851,
      "v": 86
    },
    {
      "midi": 55,
      "hit": false,
      "t": 139636.22399999978,
      "d": 931.8172499999928,
      "v": 83
    },
    {
      "midi": 59,
      "hit": false,
      "t": 139636.22399999978,
      "d": 951.7035937499895,
      "v": 77
    },
    {
      "midi": 52,
      "hit": false,
      "t": 140181.67799999978,
      "d": 485.7949687499786,
      "v": 56
    },
    {
      "midi": 40,
      "hit": false,
      "t": 140181.67799999978,
      "d": 1667.6119687499304,
      "v": 71
    },
    {
      "midi": 55,
      "hit": false,
      "t": 140727.13199999975,
      "d": 571.0221562499937,
      "v": 92
    },
    {
      "midi": 59,
      "hit": false,
      "t": 140727.13199999975,
      "d": 582.3857812499919,
      "v": 80
    },
    {
      "midi": 52,
      "hit": false,
      "t": 141272.58599999975,
      "d": 96.59081249998417,
      "v": 58
    },
    {
      "midi": 55,
      "hit": false,
      "t": 141818.03999999972,
      "d": 852.2718750000058,
      "v": 88
    },
    {
      "midi": 59,
      "hit": false,
      "t": 141818.03999999972,
      "d": 857.9536875000049,
      "v": 82
    },
    {
      "midi": 43,
      "hit": false,
      "t": 141818.03999999972,
      "d": 1744.3164375000342,
      "v": 89
    },
    {
      "midi": 50,
      "hit": false,
      "t": 142363.49399999972,
      "d": 414.7723125000193,
      "v": 52
    },
    {
      "midi": 55,
      "hit": false,
      "t": 142908.94799999974,
      "d": 928.9763437500224,
      "v": 92
    },
    {
      "midi": 59,
      "hit": false,
      "t": 142908.94799999974,
      "d": 943.18087500002,
      "v": 91
    },
    {
      "midi": 50,
      "hit": false,
      "t": 143454.40199999974,
      "d": 542.6130937499984,
      "v": 55
    },
    {
      "midi": 43,
      "hit": false,
      "t": 143727.12899999975,
      "d": 207.3861562499951,
      "v": 67
    },
    {
      "midi": 55,
      "hit": false,
      "t": 143999.85599999974,
      "d": 886.3627500000002,
      "v": 76
    },
    {
      "midi": 59,
      "hit": false,
      "t": 143999.85599999974,
      "d": 900.5672812499979,
      "v": 75
    },
    {
      "midi": 43,
      "hit": false,
      "t": 143999.85599999974,
      "d": 2159.0887499999953,
      "v": 78
    },
    {
      "midi": 50,
      "hit": false,
      "t": 144545.30999999974,
      "d": 488.6358750000072,
      "v": 55
    },
    {
      "midi": 55,
      "hit": false,
      "t": 145090.76399999973,
      "d": 542.6130937499984,
      "v": 90
    },
    {
      "midi": 59,
      "hit": false,
      "t": 145090.76399999973,
      "d": 568.1812499999942,
      "v": 87
    },
    {
      "midi": 50,
      "hit": false,
      "t": 145636.21799999973,
      "d": 25.56815624999581,
      "v": 50
    },
    {
      "midi": 57,
      "hit": false,
      "t": 146181.67199999973,
      "d": 923.2945312499942,
      "v": 85
    },
    {
      "midi": 60,
      "hit": false,
      "t": 146181.67199999973,
      "d": 928.9763437499932,
      "v": 83
    },
    {
      "midi": 45,
      "hit": false,
      "t": 146181.67199999973,
      "d": 1769.884593750001,
      "v": 91
    },
    {
      "midi": 52,
      "hit": false,
      "t": 146727.12599999973,
      "d": 431.8177499999874,
      "v": 51
    },
    {
      "midi": 60,
      "hit": false,
      "t": 147272.57999999973,
      "d": 911.9309062500251,
      "v": 83
    },
    {
      "midi": 57,
      "hit": false,
      "t": 147272.57999999973,
      "d": 914.7718125000247,
      "v": 83
    },
    {
      "midi": 52,
      "hit": false,
      "t": 147818.03399999972,
      "d": 497.1585937500058,
      "v": 57
    },
    {
      "midi": 45,
      "hit": false,
      "t": 148090.76099999974,
      "d": 210.22706249999464,
      "v": 64
    },
    {
      "midi": 57,
      "hit": false,
      "t": 148363.48799999972,
      "d": 627.8402812499844,
      "v": 78
    },
    {
      "midi": 60,
      "hit": false,
      "t": 148363.48799999972,
      "d": 650.5675312499807,
      "v": 78
    },
    {
      "midi": 45,
      "hit": false,
      "t": 148363.48799999972,
      "d": 1707.384656249953,
      "v": 74
    },
    {
      "midi": 52,
      "hit": false,
      "t": 148908.94199999972,
      "d": 528.4085624999716,
      "v": 55
    },
    {
      "midi": 60,
      "hit": false,
      "t": 149454.3959999997,
      "d": 542.6130937499984,
      "v": 82
    },
    {
      "midi": 57,
      "hit": false,
      "t": 149454.3959999997,
      "d": 559.6585312499956,
      "v": 82
    },
    {
      "midi": 52,
      "hit": false,
      "t": 149999.8499999997,
      "d": 130.68168749997858,
      "v": 64
    },
    {
      "midi": 60,
      "hit": false,
      "t": 150545.30399999968,
      "d": 874.9991250000021,
      "v": 81
    },
    {
      "midi": 55,
      "hit": false,
      "t": 150545.30399999968,
      "d": 914.7718124999956,
      "v": 84
    },
    {
      "midi": 48,
      "hit": false,
      "t": 150545.30399999968,
      "d": 1738.634625000006,
      "v": 79
    },
    {
      "midi": 52,
      "hit": false,
      "t": 151090.75799999968,
      "d": 446.0222812499851,
      "v": 56
    },
    {
      "midi": 60,
      "hit": false,
      "t": 151636.21199999968,
      "d": 869.317312500003,
      "v": 92
    },
    {
      "midi": 55,
      "hit": false,
      "t": 151636.21199999968,
      "d": 923.2945312499942,
      "v": 96
    },
    {
      "midi": 52,
      "hit": false,
      "t": 152181.66599999968,
      "d": 542.6130937499984,
      "v": 54
    },
    {
      "midi": 48,
      "hit": false,
      "t": 152454.3929999997,
      "d": 113.63624999998137,
      "v": 50
    },
    {
      "midi": 60,
      "hit": false,
      "t": 152727.11999999968,
      "d": 843.7491562500072,
      "v": 82
    },
    {
      "midi": 55,
      "hit": false,
      "t": 152727.11999999968,
      "d": 906.249093749997,
      "v": 82
    },
    {
      "midi": 48,
      "hit": false,
      "t": 152727.11999999968,
      "d": 2184.656906249962,
      "v": 72
    },
    {
      "midi": 52,
      "hit": false,
      "t": 153272.57399999967,
      "d": 525.5676562500012,
      "v": 60
    },
    {
      "midi": 55,
      "hit": false,
      "t": 153818.02799999967,
      "d": 548.2949062499974,
      "v": 89
    },
    {
      "midi": 60,
      "hit": false,
      "t": 153818.02799999967,
      "d": 605.1130312499881,
      "v": 92
    },
    {
      "midi": 52,
      "hit": false,
      "t": 154363.48199999967,
      "d": 88.06809374998556,
      "v": 61
    },
    {
      "midi": 55,
      "hit": false,
      "t": 154908.93599999964,
      "d": 843.7491562500363,
      "v": 96
    },
    {
      "midi": 59,
      "hit": false,
      "t": 154908.93599999964,
      "d": 843.7491562500363,
      "v": 93
    },
    {
      "midi": 43,
      "hit": false,
      "t": 154908.93599999964,
      "d": 1690.339218750014,
      "v": 78
    },
    {
      "midi": 50,
      "hit": false,
      "t": 155454.38999999966,
      "d": 480.1131562500086,
      "v": 56
    },
    {
      "midi": 59,
      "hit": false,
      "t": 155999.84399999966,
      "d": 727.2719999999972,
      "v": 104
    },
    {
      "midi": 55,
      "hit": false,
      "t": 155999.84399999966,
      "d": 795.453749999986,
      "v": 94
    },
    {
      "midi": 50,
      "hit": false,
      "t": 156545.29799999966,
      "d": 457.38590624998324,
      "v": 66
    },
    {
      "midi": 43,
      "hit": false,
      "t": 156818.02499999964,
      "d": 247.1588437499886,
      "v": 67
    },
    {
      "midi": 57,
      "hit": false,
      "t": 157090.75199999963,
      "d": 872.1582187500026,
      "v": 92
    },
    {
      "midi": 53,
      "hit": false,
      "t": 157090.75199999963,
      "d": 889.2036562499998,
      "v": 97
    },
    {
      "midi": 41,
      "hit": false,
      "t": 157090.75199999963,
      "d": 2198.861437499989,
      "v": 88
    },
    {
      "midi": 48,
      "hit": false,
      "t": 157636.20599999963,
      "d": 499.99950000000536,
      "v": 66
    },
    {
      "midi": 57,
      "hit": false,
      "t": 158181.65999999963,
      "d": 505.6813125000044,
      "v": 94
    },
    {
      "midi": 53,
      "hit": false,
      "t": 158181.65999999963,
      "d": 596.5903124999895,
      "v": 98
    },
    {
      "midi": 48,
      "hit": false,
      "t": 158727.11399999962,
      "d": 522.7267500000016,
      "v": 72
    },
    {
      "midi": 52,
      "hit": false,
      "t": 159272.56799999962,
      "d": 886.3627500000002,
      "v": 89
    },
    {
      "midi": 55,
      "hit": false,
      "t": 159272.56799999962,
      "d": 897.7263749999984,
      "v": 80
    },
    {
      "midi": 36,
      "hit": false,
      "t": 159272.56799999962,
      "d": 1798.2936562499963,
      "v": 97
    },
    {
      "midi": 48,
      "hit": false,
      "t": 159818.02199999962,
      "d": 437.4995624999865,
      "v": 50
    },
    {
      "midi": 52,
      "hit": false,
      "t": 160363.47599999962,
      "d": 946.0217812500196,
      "v": 92
    },
    {
      "midi": 55,
      "hit": false,
      "t": 160363.47599999962,
      "d": 951.7035937500186,
      "v": 84
    },
    {
      "midi": 48,
      "hit": false,
      "t": 160908.92999999961,
      "d": 528.4085625000298,
      "v": 65
    },
    {
      "midi": 36,
      "hit": false,
      "t": 161181.65699999963,
      "d": 156.2498437500035,
      "v": 71
    },
    {
      "midi": 36,
      "hit": false,
      "t": 161454.38399999964,
      "d": 420.4541249999893,
      "v": 79
    },
    {
      "midi": 55,
      "hit": false,
      "t": 161454.38399999964,
      "d": 664.7720625000075,
      "v": 82
    },
    {
      "midi": 52,
      "hit": false,
      "t": 161454.38399999964,
      "d": 678.9765937500051,
      "v": 81
    },
    {
      "midi": 48,
      "hit": false,
      "t": 161999.83799999964,
      "d": 485.7949687500077,
      "v": 57
    },
    {
      "midi": 36,
      "hit": false,
      "t": 161999.83799999964,
      "d": 843.7491562500072,
      "v": 78
    },
    {
      "midi": 55,
      "hit": false,
      "t": 162545.29199999964,
      "d": 485.7949687500077,
      "v": 88
    },
    {
      "midi": 52,
      "hit": false,
      "t": 162545.29199999964,
      "d": 539.7721874999988,
      "v": 93
    },
    {
      "midi": 48,
      "hit": false,
      "t": 163090.74599999964,
      "d": 82.3862812499865,
      "v": 67
    },
    {
      "midi": 31,
      "hit": false,
      "t": 163636.19999999963,
      "d": 4363.632000000012,
      "v": 91
    },
    {
      "midi": 50,
      "hit": false,
      "t": 163636.19999999963,
      "d": 4363.632000000012,
      "v": 79
    },
    {
      "midi": 55,
      "hit": false,
      "t": 163636.19999999963,
      "d": 4363.632000000012,
      "v": 86
    },
    {
      "midi": 59,
      "hit": false,
      "t": 163636.19999999963,
      "d": 4363.632000000012,
      "v": 80
    },
    {
      "midi": 45,
      "hit": false,
      "t": 168408.92249999964,
      "d": 1321.0214062500163,
      "v": 38
    },
    {
      "midi": 60,
      "hit": false,
      "t": 169090.73999999964,
      "d": 974.4308437500149,
      "v": 81
    },
    {
      "midi": 57,
      "hit": false,
      "t": 169090.73999999964,
      "d": 988.6353750000126,
      "v": 79
    },
    {
      "midi": 52,
      "hit": false,
      "t": 169840.73924999966,
      "d": 315.3405937499774,
      "v": 9
    },
    {
      "midi": 45,
      "hit": false,
      "t": 169908.92099999965,
      "d": 133.52259375000722,
      "v": 72
    },
    {
      "midi": 60,
      "hit": false,
      "t": 170181.64799999964,
      "d": 164.7725625000021,
      "v": 74
    },
    {
      "midi": 57,
      "hit": false,
      "t": 170181.64799999964,
      "d": 178.97709374999977,
      "v": 74
    },
    {
      "midi": 45,
      "hit": false,
      "t": 170181.64799999964,
      "d": 193.18162499999744,
      "v": 78
    },
    {
      "midi": 60,
      "hit": false,
      "t": 170727.10199999964,
      "d": 897.7263749999984,
      "v": 76
    },
    {
      "midi": 57,
      "hit": false,
      "t": 170727.10199999964,
      "d": 928.9763437499932,
      "v": 74
    },
    {
      "midi": 45,
      "hit": false,
      "t": 170727.10199999964,
      "d": 951.7035937499895,
      "v": 72
    },
    {
      "midi": 52,
      "hit": false,
      "t": 171613.46474999964,
      "d": 85.22718749998603,
      "v": 39
    },
    {
      "midi": 59,
      "hit": false,
      "t": 171818.00999999963,
      "d": 45.45449999999255,
      "v": 52
    },
    {
      "midi": 47,
      "hit": false,
      "t": 171818.00999999963,
      "d": 491.47678124997765,
      "v": 80
    },
    {
      "midi": 55,
      "hit": false,
      "t": 172158.91874999963,
      "d": 1090.9079999999376,
      "v": 61
    },
    {
      "midi": 60,
      "hit": false,
      "t": 172227.10049999962,
      "d": 963.0672187499586,
      "v": 84
    },
    {
      "midi": 64,
      "hit": false,
      "t": 172363.4639999996,
      "d": 855.1127812499763,
      "v": 82
    },
    {
      "midi": 48,
      "hit": false,
      "t": 172363.4639999996,
      "d": 1681.8164999999572,
      "v": 86
    },
    {
      "midi": 64,
      "hit": false,
      "t": 173454.37199999957,
      "d": 607.9539374999877,
      "v": 106
    },
    {
      "midi": 60,
      "hit": false,
      "t": 173454.37199999957,
      "d": 710.2265625,
      "v": 101
    },
    {
      "midi": 48,
      "hit": false,
      "t": 174340.73474999957,
      "d": 201.70434374999604,
      "v": 59
    },
    {
      "midi": 59,
      "hit": false,
      "t": 174545.27999999956,
      "d": 409.09049999999115,
      "v": 75
    },
    {
      "midi": 62,
      "hit": false,
      "t": 174545.27999999956,
      "d": 562.4994374999951,
      "v": 82
    },
    {
      "midi": 47,
      "hit": false,
      "t": 174545.27999999956,
      "d": 1059.6580312499718,
      "v": 104
    },
    {
      "midi": 66,
      "hit": false,
      "t": 175158.91574999955,
      "d": 62.499937499989755,
      "v": 82
    },
    {
      "midi": 59,
      "hit": false,
      "t": 175158.91574999955,
      "d": 71.02265624998836,
      "v": 77
    },
    {
      "midi": 50,
      "hit": false,
      "t": 176522.55074999953,
      "d": 1053.9762187499728,
      "v": 63
    },
    {
      "midi": 55,
      "hit": false,
      "t": 176590.73249999952,
      "d": 1011.3626249999797,
      "v": 76
    },
    {
      "midi": 59,
      "hit": false,
      "t": 176658.9142499995,
      "d": 840.9082500000077,
      "v": 80
    },
    {
      "midi": 43,
      "hit": false,
      "t": 176658.9142499995,
      "d": 2198.861437499989,
      "v": 77
    },
    {
      "midi": 50,
      "hit": false,
      "t": 177818.0039999995,
      "d": 102.27262500001234,
      "v": 88
    },
    {
      "midi": 59,
      "hit": false,
      "t": 177818.0039999995,
      "d": 136.36350000000675,
      "v": 98
    },
    {
      "midi": 48,
      "hit": false,
      "t": 178908.9119999995,
      "d": 284.09062500001164,
      "v": 112
    },
    {
      "midi": 36,
      "hit": false,
      "t": 178908.9119999995,
      "d": 315.3405937500065,
      "v": 100
    },
    {
      "midi": 40,
      "hit": false,
      "t": 179181.6389999995,
      "d": 249.99974999998813,
      "v": 95
    },
    {
      "midi": 52,
      "hit": false,
      "t": 179181.6389999995,
      "d": 275.56790624998393,
      "v": 95
    },
    {
      "midi": 55,
      "hit": false,
      "t": 179454.36599999949,
      "d": 301.13606250000885,
      "v": 111
    },
    {
      "midi": 43,
      "hit": false,
      "t": 179454.36599999949,
      "d": 318.18150000000605,
      "v": 89
    },
    {
      "midi": 52,
      "hit": false,
      "t": 179727.0929999995,
      "d": 249.99974999998813,
      "v": 95
    },
    {
      "midi": 40,
      "hit": false,
      "t": 179727.0929999995,
      "d": 267.04518749998533,
      "v": 81
    },
    {
      "midi": 50,
      "hit": false,
      "t": 179999.81999999948,
      "d": 275.56790625001304,
      "v": 100
    },
    {
      "midi": 38,
      "hit": false,
      "t": 179999.81999999948,
      "d": 306.8178750000079,
      "v": 87
    },
    {
      "midi": 42,
      "hit": false,
      "t": 180272.5469999995,
      "d": 215.9088749999937,
      "v": 88
    },
    {
      "midi": 54,
      "hit": false,
      "t": 180272.5469999995,
      "d": 281.249718749983,
      "v": 92
    },
    {
      "midi": 57,
      "hit": false,
      "t": 180545.27399999948,
      "d": 312.4996874999779,
      "v": 104
    },
    {
      "midi": 45,
      "hit": false,
      "t": 180545.27399999948,
      "d": 326.70421874997555,
      "v": 78
    },
    {
      "midi": 42,
      "hit": false,
      "t": 180818.00099999947,
      "d": 99.4317187499837,
      "v": 62
    },
    {
      "midi": 54,
      "hit": false,
      "t": 180818.00099999947,
      "d": 116.47715624998091,
      "v": 88
    },
    {
      "midi": 31,
      "hit": false,
      "t": 181090.72799999945,
      "d": 1977.270749999967,
      "v": 94
    },
    {
      "midi": 55,
      "hit": false,
      "t": 182181.63599999945,
      "d": 53.97721874999115,
      "v": 61
    },
    {
      "midi": 50,
      "hit": false,
      "t": 182181.63599999945,
      "d": 79.54537499998696,
      "v": 69
    },
    {
      "midi": 43,
      "hit": false,
      "t": 182999.81699999943,
      "d": 1113.635249999992,
      "v": 74
    },
    {
      "midi": 55,
      "hit": false,
      "t": 183272.54399999944,
      "d": 105.11353125001187,
      "v": 65
    },
    {
      "midi": 31,
      "hit": false,
      "t": 183272.54399999944,
      "d": 2176.1341874999634,
      "v": 72
    },
    {
      "midi": 50,
      "hit": false,
      "t": 183817.99799999944,
      "d": 76.70446874998743,
      "v": 67
    },
    {
      "midi": 59,
      "hit": false,
      "t": 183817.99799999944,
      "d": 88.06809374998556,
      "v": 85
    },
    {
      "midi": 43,
      "hit": false,
      "t": 184363.4519999994,
      "d": 673.294781250006,
      "v": 72
    },
    {
      "midi": 50,
      "hit": false,
      "t": 184704.3607499994,
      "d": 110.79534375001094,
      "v": 68
    },
    {
      "midi": 55,
      "hit": false,
      "t": 184908.90599999944,
      "d": 59.65903124999022,
      "v": 88
    },
    {
      "midi": 59,
      "hit": false,
      "t": 184908.90599999944,
      "d": 82.3862812499865,
      "v": 92
    },
    {
      "midi": 52,
      "hit": false,
      "t": 185317.99649999943,
      "d": 159.09074999997392,
      "v": 51
    },
    {
      "midi": 57,
      "hit": false,
      "t": 185386.17824999942,
      "d": 650.5675312499807,
      "v": 81
    },
    {
      "midi": 60,
      "hit": false,
      "t": 185454.3599999994,
      "d": 622.1584687499853,
      "v": 80
    },
    {
      "midi": 33,
      "hit": false,
      "t": 185454.3599999994,
      "d": 1960.2253124999697,
      "v": 77
    },
    {
      "midi": 52,
      "hit": false,
      "t": 185999.8139999994,
      "d": 102.27262499998324,
      "v": 54
    },
    {
      "midi": 45,
      "hit": false,
      "t": 186272.5409999994,
      "d": 792.6128437500156,
      "v": 20
    },
    {
      "midi": 60,
      "hit": false,
      "t": 186545.2679999994,
      "d": 335.22693750000326,
      "v": 94
    },
    {
      "midi": 57,
      "hit": false,
      "t": 186545.2679999994,
      "d": 534.0903749999998,
      "v": 92
    },
    {
      "midi": 52,
      "hit": false,
      "t": 187090.7219999994,
      "d": 56.81812499999069,
      "v": 55
    },
    {
      "midi": 45,
      "hit": false,
      "t": 187363.44899999938,
      "d": 946.0217812499614,
      "v": 71
    },
    {
      "midi": 60,
      "hit": false,
      "t": 187636.17599999937,
      "d": 102.27262499998324,
      "v": 69
    },
    {
      "midi": 57,
      "hit": false,
      "t": 187636.17599999937,
      "d": 113.63624999998137,
      "v": 71
    },
    {
      "midi": 33,
      "hit": false,
      "t": 187636.17599999937,
      "d": 1659.0892499999609,
      "v": 74
    },
    {
      "midi": 60,
      "hit": false,
      "t": 188181.62999999934,
      "d": 113.63625000001048,
      "v": 85
    },
    {
      "midi": 57,
      "hit": false,
      "t": 188181.62999999934,
      "d": 127.84078125000815,
      "v": 87
    },
    {
      "midi": 45,
      "hit": false,
      "t": 188727.08399999933,
      "d": 505.6813125000044,
      "v": 77
    },
    {
      "midi": 52,
      "hit": false,
      "t": 188999.81099999935,
      "d": 142.04531250000582,
      "v": 73
    },
    {
      "midi": 59,
      "hit": false,
      "t": 189272.53799999933,
      "d": 312.4996874999779,
      "v": 98
    },
    {
      "midi": 35,
      "hit": false,
      "t": 189272.53799999933,
      "d": 553.9767187499674,
      "v": 87
    },
    {
      "midi": 55,
      "hit": false,
      "t": 189545.26499999932,
      "d": 252.84065624998766,
      "v": 51
    },
    {
      "midi": 64,
      "hit": false,
      "t": 189817.9919999993,
      "d": 894.8854687499988,
      "v": 81
    },
    {
      "midi": 60,
      "hit": false,
      "t": 189817.9919999993,
      "d": 903.4081874999974,
      "v": 88
    },
    {
      "midi": 36,
      "hit": false,
      "t": 189817.9919999993,
      "d": 1531.2484687499818,
      "v": 97
    },
    {
      "midi": 55,
      "hit": false,
      "t": 190363.4459999993,
      "d": 403.4086874999921,
      "v": 63
    },
    {
      "midi": 48,
      "hit": false,
      "t": 190636.1729999993,
      "d": 713.0674687499704,
      "v": 47
    },
    {
      "midi": 64,
      "hit": false,
      "t": 190908.8999999993,
      "d": 590.9084999999614,
      "v": 103
    },
    {
      "midi": 60,
      "hit": false,
      "t": 190908.8999999993,
      "d": 630.6811874999548,
      "v": 101
    },
    {
      "midi": 55,
      "hit": false,
      "t": 191386.17224999928,
      "d": 85.22718749998603,
      "v": 78
    },
    {
      "midi": 47,
      "hit": false,
      "t": 191727.08099999925,
      "d": 1497.1575937499874,
      "v": 85
    },
    {
      "midi": 59,
      "hit": false,
      "t": 191999.80799999926,
      "d": 340.9087500000023,
      "v": 78
    },
    {
      "midi": 62,
      "hit": false,
      "t": 191999.80799999926,
      "d": 451.70409375001327,
      "v": 83
    },
    {
      "midi": 35,
      "hit": false,
      "t": 191999.80799999926,
      "d": 1002.8399062499811,
      "v": 75
    },
    {
      "midi": 59,
      "hit": false,
      "t": 192477.08024999927,
      "d": 90.9089999999851,
      "v": 82
    },
    {
      "midi": 66,
      "hit": false,
      "t": 192545.26199999926,
      "d": 73.86356249998789,
      "v": 89
    },
    {
      "midi": 35,
      "hit": false,
      "t": 193158.89774999925,
      "d": 284.09062499998254,
      "v": 61
    },
    {
      "midi": 59,
      "hit": false,
      "t": 193431.62474999923,
      "d": 176.13618750000023,
      "v": 67
    },
    {
      "midi": 66,
      "hit": false,
      "t": 193636.16999999923,
      "d": 45.45449999999255,
      "v": 62
    },
    {
      "midi": 59,
      "hit": false,
      "t": 193636.16999999923,
      "d": 51.13631249999162,
      "v": 45
    },
    {
      "midi": 62,
      "hit": false,
      "t": 193636.16999999923,
      "d": 68.18174999998882,
      "v": 78
    },
    {
      "midi": 43,
      "hit": false,
      "t": 193908.8969999992,
      "d": 798.2946562500147,
      "v": 56
    },
    {
      "midi": 59,
      "hit": false,
      "t": 194181.62399999922,
      "d": 832.3855312500091,
      "v": 93
    },
    {
      "midi": 55,
      "hit": false,
      "t": 194181.62399999922,
      "d": 852.2718750000058,
      "v": 97
    },
    {
      "midi": 31,
      "hit": false,
      "t": 194181.62399999922,
      "d": 1431.8167499999981,
      "v": 83
    },
    {
      "midi": 43,
      "hit": false,
      "t": 194999.80499999924,
      "d": 747.158343749994,
      "v": 61
    },
    {
      "midi": 55,
      "hit": false,
      "t": 195272.53199999922,
      "d": 542.6130937499984,
      "v": 107
    },
    {
      "midi": 59,
      "hit": false,
      "t": 195272.53199999922,
      "d": 542.6130937499984,
      "v": 106
    },
    {
      "midi": 50,
      "hit": false,
      "t": 195817.98599999922,
      "d": 68.18174999998882,
      "v": 72
    },
    {
      "midi": 40,
      "hit": false,
      "t": 196363.4399999992,
      "d": 499.99950000000536,
      "v": 85
    },
    {
      "midi": 52,
      "hit": false,
      "t": 196363.4399999992,
      "d": 553.9767187499965,
      "v": 117
    },
    {
      "midi": 50,
      "hit": false,
      "t": 196908.89399999919,
      "d": 409.09049999999115,
      "v": 102
    },
    {
      "midi": 38,
      "hit": false,
      "t": 196908.89399999919,
      "d": 559.6585312499956,
      "v": 84
    },
    {
      "midi": 47,
      "hit": false,
      "t": 197454.34799999918,
      "d": 400.56778124999255,
      "v": 106
    },
    {
      "midi": 35,
      "hit": false,
      "t": 197454.34799999918,
      "d": 488.6358749999781,
      "v": 103
    },
    {
      "midi": 33,
      "hit": false,
      "t": 197999.80199999915,
      "d": 545.4539999999979,
      "v": 96
    },
    {
      "midi": 45,
      "hit": false,
      "t": 197999.80199999915,
      "d": 545.4539999999979,
      "v": 118
    },
    {
      "midi": 35,
      "hit": false,
      "t": 199636.16399999915,
      "d": 511.3631250000035,
      "v": 103
    },
    {
      "midi": 47,
      "hit": false,
      "t": 199636.16399999915,
      "d": 517.0449375000026,
      "v": 114
    },
    {
      "midi": 38,
      "hit": false,
      "t": 200181.61799999914,
      "d": 582.3857812499919,
      "v": 94
    },
    {
      "midi": 50,
      "hit": false,
      "t": 200181.61799999914,
      "d": 607.9539374999877,
      "v": 92
    },
    {
      "midi": 52,
      "hit": false,
      "t": 200727.07199999914,
      "d": 1099.4307187499944,
      "v": 110
    },
    {
      "midi": 40,
      "hit": false,
      "t": 200727.07199999914,
      "d": 1684.6574062499858,
      "v": 117
    },
    {
      "midi": 55,
      "hit": false,
      "t": 201454.34399999914,
      "d": 187.49981249999837,
      "v": 26
    },
    {
      "midi": 55,
      "hit": false,
      "t": 201817.97999999914,
      "d": 951.7035937499895,
      "v": 83
    },
    {
      "midi": 59,
      "hit": false,
      "t": 201817.97999999914,
      "d": 963.0672187499877,
      "v": 74
    },
    {
      "midi": 52,
      "hit": false,
      "t": 202363.43399999914,
      "d": 534.0903749999998,
      "v": 49
    },
    {
      "midi": 40,
      "hit": false,
      "t": 202636.16099999912,
      "d": 130.68168750000768,
      "v": 78
    },
    {
      "midi": 55,
      "hit": false,
      "t": 202908.88799999913,
      "d": 946.0217812499905,
      "v": 76
    },
    {
      "midi": 59,
      "hit": false,
      "t": 202908.88799999913,
      "d": 946.0217812499905,
      "v": 73
    },
    {
      "midi": 40,
      "hit": false,
      "t": 202908.88799999913,
      "d": 2110.7933437500033,
      "v": 81
    },
    {
      "midi": 52,
      "hit": false,
      "t": 203454.34199999913,
      "d": 579.5448749999923,
      "v": 56
    },
    {
      "midi": 55,
      "hit": false,
      "t": 203999.79599999913,
      "d": 579.5448749999923,
      "v": 82
    },
    {
      "midi": 59,
      "hit": false,
      "t": 203999.79599999913,
      "d": 613.6357499999867,
      "v": 78
    },
    {
      "midi": 52,
      "hit": false,
      "t": 204545.24999999913,
      "d": 62.499937499989755,
      "v": 54
    },
    {
      "midi": 50,
      "hit": false,
      "t": 204908.88599999913,
      "d": 170.45437500000116,
      "v": 62
    },
    {
      "midi": 55,
      "hit": false,
      "t": 204999.79499999914,
      "d": 943.1808749999909,
      "v": 76
    },
    {
      "midi": 59,
      "hit": false,
      "t": 205090.70399999912,
      "d": 857.9536875000049,
      "v": 74
    },
    {
      "midi": 43,
      "hit": false,
      "t": 205090.70399999912,
      "d": 1738.634625000006,
      "v": 83
    },
    {
      "midi": 50,
      "hit": false,
      "t": 205636.15799999912,
      "d": 386.3632499999949,
      "v": 59
    },
    {
      "midi": 55,
      "hit": false,
      "t": 206181.61199999912,
      "d": 917.6127187500242,
      "v": 94
    },
    {
      "midi": 59,
      "hit": false,
      "t": 206181.61199999912,
      "d": 934.6581562500214,
      "v": 88
    },
    {
      "midi": 50,
      "hit": false,
      "t": 206727.06599999912,
      "d": 494.3176875000354,
      "v": 51
    },
    {
      "midi": 43,
      "hit": false,
      "t": 206999.79299999913,
      "d": 1309.6577812500182,
      "v": 64
    },
    {
      "midi": 59,
      "hit": false,
      "t": 207272.51999999915,
      "d": 374.99962499999674,
      "v": 77
    },
    {
      "midi": 55,
      "hit": false,
      "t": 207272.51999999915,
      "d": 451.70409374998417,
      "v": 74
    },
    {
      "midi": 50,
      "hit": false,
      "t": 207817.97399999914,
      "d": 39.77268749999348,
      "v": 56
    },
    {
      "midi": 59,
      "hit": false,
      "t": 207817.97399999914,
      "d": 42.613593749993015,
      "v": 60
    },
    {
      "midi": 35,
      "hit": false,
      "t": 208363.42799999914,
      "d": 508.52221875000396,
      "v": 101
    },
    {
      "midi": 47,
      "hit": false,
      "t": 208363.42799999914,
      "d": 573.8630624999932,
      "v": 114
    },
    {
      "midi": 38,
      "hit": false,
      "t": 208908.88199999914,
      "d": 562.4994374999951,
      "v": 97
    },
    {
      "midi": 50,
      "hit": false,
      "t": 208908.88199999914,
      "d": 588.0675937499909,
      "v": 93
    },
    {
      "midi": 52,
      "hit": false,
      "t": 209454.33599999914,
      "d": 1045.4534999999742,
      "v": 104
    },
    {
      "midi": 40,
      "hit": false,
      "t": 209454.33599999914,
      "d": 1747.1573437499756,
      "v": 112
    },
    {
      "midi": 55,
      "hit": false,
      "t": 209999.78999999914,
      "d": 411.9314062499907,
      "v": 53
    },
    {
      "midi": 55,
      "hit": false,
      "t": 210545.2439999991,
      "d": 909.0900000000256,
      "v": 89
    },
    {
      "midi": 59,
      "hit": false,
      "t": 210545.2439999991,
      "d": 943.18087500002,
      "v": 78
    },
    {
      "midi": 52,
      "hit": false,
      "t": 211090.6979999991,
      "d": 582.3857812499919,
      "v": 61
    },
    {
      "midi": 40,
      "hit": false,
      "t": 211363.42499999912,
      "d": 142.04531250000582,
      "v": 68
    },
    {
      "midi": 40,
      "hit": false,
      "t": 211636.1519999991,
      "d": 446.0222812499851,
      "v": 86
    },
    {
      "midi": 55,
      "hit": false,
      "t": 211636.1519999991,
      "d": 931.8172499999928,
      "v": 83
    },
    {
      "midi": 59,
      "hit": false,
      "t": 211636.1519999991,
      "d": 951.7035937499895,
      "v": 77
    },
    {
      "midi": 52,
      "hit": false,
      "t": 212181.6059999991,
      "d": 485.7949687499786,
      "v": 56
    },
    {
      "midi": 40,
      "hit": false,
      "t": 212181.6059999991,
      "d": 1667.6119687499304,
      "v": 71
    },
    {
      "midi": 55,
      "hit": false,
      "t": 212727.05999999907,
      "d": 571.0221562499937,
      "v": 92
    },
    {
      "midi": 59,
      "hit": false,
      "t": 212727.05999999907,
      "d": 582.3857812499919,
      "v": 80
    },
    {
      "midi": 52,
      "hit": false,
      "t": 213272.51399999906,
      "d": 96.59081249998417,
      "v": 58
    },
    {
      "midi": 55,
      "hit": false,
      "t": 213817.96799999903,
      "d": 852.2718750000058,
      "v": 88
    },
    {
      "midi": 59,
      "hit": false,
      "t": 213817.96799999903,
      "d": 857.9536875000049,
      "v": 82
    },
    {
      "midi": 43,
      "hit": false,
      "t": 213817.96799999903,
      "d": 1744.3164375000342,
      "v": 89
    },
    {
      "midi": 50,
      "hit": false,
      "t": 214363.42199999903,
      "d": 414.7723125000193,
      "v": 52
    },
    {
      "midi": 55,
      "hit": false,
      "t": 214908.87599999906,
      "d": 928.9763437500224,
      "v": 92
    },
    {
      "midi": 59,
      "hit": false,
      "t": 214908.87599999906,
      "d": 943.18087500002,
      "v": 91
    },
    {
      "midi": 50,
      "hit": false,
      "t": 215454.32999999906,
      "d": 542.6130937499984,
      "v": 55
    },
    {
      "midi": 43,
      "hit": false,
      "t": 215727.05699999907,
      "d": 207.3861562499951,
      "v": 67
    },
    {
      "midi": 55,
      "hit": false,
      "t": 215999.78399999905,
      "d": 886.3627500000002,
      "v": 76
    },
    {
      "midi": 59,
      "hit": false,
      "t": 215999.78399999905,
      "d": 900.5672812499979,
      "v": 75
    },
    {
      "midi": 43,
      "hit": false,
      "t": 215999.78399999905,
      "d": 2159.0887499999953,
      "v": 78
    },
    {
      "midi": 50,
      "hit": false,
      "t": 216545.23799999905,
      "d": 488.6358750000072,
      "v": 55
    },
    {
      "midi": 55,
      "hit": false,
      "t": 217090.69199999905,
      "d": 542.6130937499984,
      "v": 90
    },
    {
      "midi": 59,
      "hit": false,
      "t": 217090.69199999905,
      "d": 568.1812499999942,
      "v": 87
    },
    {
      "midi": 50,
      "hit": false,
      "t": 217636.14599999905,
      "d": 25.56815624999581,
      "v": 50
    },
    {
      "midi": 57,
      "hit": false,
      "t": 218181.59999999905,
      "d": 923.2945312499942,
      "v": 85
    },
    {
      "midi": 60,
      "hit": false,
      "t": 218181.59999999905,
      "d": 928.9763437499932,
      "v": 83
    },
    {
      "midi": 45,
      "hit": false,
      "t": 218181.59999999905,
      "d": 1769.884593750001,
      "v": 91
    },
    {
      "midi": 52,
      "hit": false,
      "t": 218727.05399999904,
      "d": 431.8177499999874,
      "v": 51
    },
    {
      "midi": 60,
      "hit": false,
      "t": 219272.50799999904,
      "d": 911.9309062500251,
      "v": 83
    },
    {
      "midi": 57,
      "hit": false,
      "t": 219272.50799999904,
      "d": 914.7718125000247,
      "v": 83
    },
    {
      "midi": 52,
      "hit": false,
      "t": 219817.96199999904,
      "d": 497.1585937500058,
      "v": 57
    },
    {
      "midi": 45,
      "hit": false,
      "t": 220090.68899999905,
      "d": 210.22706249999464,
      "v": 64
    },
    {
      "midi": 57,
      "hit": false,
      "t": 220363.41599999904,
      "d": 627.8402812499844,
      "v": 78
    },
    {
      "midi": 60,
      "hit": false,
      "t": 220363.41599999904,
      "d": 650.5675312499807,
      "v": 78
    },
    {
      "midi": 45,
      "hit": false,
      "t": 220363.41599999904,
      "d": 1707.384656249953,
      "v": 74
    },
    {
      "midi": 52,
      "hit": false,
      "t": 220908.86999999903,
      "d": 528.4085624999716,
      "v": 55
    },
    {
      "midi": 60,
      "hit": false,
      "t": 221454.323999999,
      "d": 542.6130937499984,
      "v": 82
    },
    {
      "midi": 57,
      "hit": false,
      "t": 221454.323999999,
      "d": 559.6585312499956,
      "v": 82
    },
    {
      "midi": 52,
      "hit": false,
      "t": 221999.777999999,
      "d": 130.68168749997858,
      "v": 64
    },
    {
      "midi": 60,
      "hit": false,
      "t": 222545.231999999,
      "d": 874.9991250000021,
      "v": 81
    },
    {
      "midi": 55,
      "hit": false,
      "t": 222545.231999999,
      "d": 914.7718124999956,
      "v": 84
    },
    {
      "midi": 48,
      "hit": false,
      "t": 222545.231999999,
      "d": 1738.634625000006,
      "v": 79
    },
    {
      "midi": 52,
      "hit": false,
      "t": 223090.685999999,
      "d": 446.0222812499851,
      "v": 56
    },
    {
      "midi": 60,
      "hit": false,
      "t": 223636.139999999,
      "d": 869.317312500003,
      "v": 92
    },
    {
      "midi": 55,
      "hit": false,
      "t": 223636.139999999,
      "d": 923.2945312499942,
      "v": 96
    },
    {
      "midi": 52,
      "hit": false,
      "t": 224181.593999999,
      "d": 542.6130937499984,
      "v": 54
    },
    {
      "midi": 48,
      "hit": false,
      "t": 224454.320999999,
      "d": 113.63624999998137,
      "v": 50
    },
    {
      "midi": 60,
      "hit": false,
      "t": 224727.047999999,
      "d": 843.7491562500072,
      "v": 82
    },
    {
      "midi": 55,
      "hit": false,
      "t": 224727.047999999,
      "d": 906.249093749997,
      "v": 82
    },
    {
      "midi": 48,
      "hit": false,
      "t": 224727.047999999,
      "d": 2184.656906249962,
      "v": 72
    },
    {
      "midi": 52,
      "hit": false,
      "t": 225272.501999999,
      "d": 525.5676562500012,
      "v": 60
    },
    {
      "midi": 55,
      "hit": false,
      "t": 225817.955999999,
      "d": 548.2949062499974,
      "v": 89
    },
    {
      "midi": 60,
      "hit": false,
      "t": 225817.955999999,
      "d": 605.1130312499881,
      "v": 92
    },
    {
      "midi": 52,
      "hit": false,
      "t": 226363.40999999898,
      "d": 88.06809374998556,
      "v": 61
    },
    {
      "midi": 55,
      "hit": false,
      "t": 226908.86399999895,
      "d": 843.7491562500363,
      "v": 96
    },
    {
      "midi": 59,
      "hit": false,
      "t": 226908.86399999895,
      "d": 843.7491562500363,
      "v": 93
    },
    {
      "midi": 43,
      "hit": false,
      "t": 226908.86399999895,
      "d": 1690.339218750014,
      "v": 78
    },
    {
      "midi": 50,
      "hit": false,
      "t": 227454.31799999898,
      "d": 480.1131562500086,
      "v": 56
    },
    {
      "midi": 59,
      "hit": false,
      "t": 227999.77199999898,
      "d": 727.2719999999972,
      "v": 104
    },
    {
      "midi": 55,
      "hit": false,
      "t": 227999.77199999898,
      "d": 795.453749999986,
      "v": 94
    },
    {
      "midi": 50,
      "hit": false,
      "t": 228545.22599999898,
      "d": 457.38590624998324,
      "v": 66
    },
    {
      "midi": 43,
      "hit": false,
      "t": 228817.95299999896,
      "d": 247.1588437499886,
      "v": 67
    },
    {
      "midi": 57,
      "hit": false,
      "t": 229090.67999999895,
      "d": 872.1582187500026,
      "v": 92
    },
    {
      "midi": 53,
      "hit": false,
      "t": 229090.67999999895,
      "d": 889.2036562499998,
      "v": 97
    },
    {
      "midi": 41,
      "hit": false,
      "t": 229090.67999999895,
      "d": 2198.861437499989,
      "v": 88
    },
    {
      "midi": 48,
      "hit": false,
      "t": 229636.13399999894,
      "d": 499.99950000000536,
      "v": 66
    },
    {
      "midi": 57,
      "hit": false,
      "t": 230181.58799999894,
      "d": 505.6813125000044,
      "v": 94
    },
    {
      "midi": 53,
      "hit": false,
      "t": 230181.58799999894,
      "d": 596.5903124999895,
      "v": 98
    },
    {
      "midi": 48,
      "hit": false,
      "t": 230727.04199999894,
      "d": 522.7267500000016,
      "v": 72
    },
    {
      "midi": 52,
      "hit": false,
      "t": 231272.49599999894,
      "d": 886.3627500000002,
      "v": 89
    },
    {
      "midi": 55,
      "hit": false,
      "t": 231272.49599999894,
      "d": 897.7263749999984,
      "v": 80
    },
    {
      "midi": 36,
      "hit": false,
      "t": 231272.49599999894,
      "d": 1798.2936562499963,
      "v": 97
    },
    {
      "midi": 48,
      "hit": false,
      "t": 231817.94999999893,
      "d": 437.4995624999865,
      "v": 50
    },
    {
      "midi": 52,
      "hit": false,
      "t": 232363.40399999893,
      "d": 946.0217812500196,
      "v": 92
    },
    {
      "midi": 55,
      "hit": false,
      "t": 232363.40399999893,
      "d": 951.7035937500186,
      "v": 84
    },
    {
      "midi": 48,
      "hit": false,
      "t": 232908.85799999893,
      "d": 528.4085625000298,
      "v": 65
    },
    {
      "midi": 36,
      "hit": false,
      "t": 233181.58499999894,
      "d": 156.2498437500035,
      "v": 71
    },
    {
      "midi": 36,
      "hit": false,
      "t": 233454.31199999896,
      "d": 420.4541249999893,
      "v": 79
    },
    {
      "midi": 55,
      "hit": false,
      "t": 233454.31199999896,
      "d": 664.7720625000075,
      "v": 82
    },
    {
      "midi": 52,
      "hit": false,
      "t": 233454.31199999896,
      "d": 678.9765937500051,
      "v": 81
    },
    {
      "midi": 48,
      "hit": false,
      "t": 233999.76599999896,
      "d": 485.7949687500077,
      "v": 57
    },
    {
      "midi": 36,
      "hit": false,
      "t": 233999.76599999896,
      "d": 843.7491562500072,
      "v": 78
    },
    {
      "midi": 55,
      "hit": false,
      "t": 234545.21999999895,
      "d": 485.7949687500077,
      "v": 88
    },
    {
      "midi": 52,
      "hit": false,
      "t": 234545.21999999895,
      "d": 539.7721874999988,
      "v": 93
    },
    {
      "midi": 48,
      "hit": false,
      "t": 235090.67399999895,
      "d": 82.3862812499865,
      "v": 67
    },
    {
      "midi": 55,
      "hit": false,
      "t": 235636.12799999895,
      "d": 843.7491562500363,
      "v": 96
    },
    {
      "midi": 59,
      "hit": false,
      "t": 235636.12799999895,
      "d": 843.7491562500363,
      "v": 93
    },
    {
      "midi": 43,
      "hit": false,
      "t": 235636.12799999895,
      "d": 1690.339218750014,
      "v": 78
    },
    {
      "midi": 50,
      "hit": false,
      "t": 236181.58199999898,
      "d": 480.1131562500086,
      "v": 56
    },
    {
      "midi": 59,
      "hit": false,
      "t": 236727.03599999897,
      "d": 727.2719999999972,
      "v": 104
    },
    {
      "midi": 55,
      "hit": false,
      "t": 236727.03599999897,
      "d": 795.453749999986,
      "v": 94
    },
    {
      "midi": 50,
      "hit": false,
      "t": 237272.48999999897,
      "d": 457.38590624998324,
      "v": 66
    },
    {
      "midi": 43,
      "hit": false,
      "t": 237545.21699999896,
      "d": 247.1588437499886,
      "v": 67
    },
    {
      "midi": 57,
      "hit": false,
      "t": 237817.94399999894,
      "d": 872.1582187500026,
      "v": 92
    },
    {
      "midi": 53,
      "hit": false,
      "t": 237817.94399999894,
      "d": 889.2036562499998,
      "v": 97
    },
    {
      "midi": 41,
      "hit": false,
      "t": 237817.94399999894,
      "d": 2198.861437499989,
      "v": 88
    },
    {
      "midi": 48,
      "hit": false,
      "t": 238363.39799999894,
      "d": 499.99950000000536,
      "v": 66
    },
    {
      "midi": 57,
      "hit": false,
      "t": 238908.85199999894,
      "d": 505.6813125000044,
      "v": 94
    },
    {
      "midi": 53,
      "hit": false,
      "t": 238908.85199999894,
      "d": 596.5903124999895,
      "v": 98
    },
    {
      "midi": 48,
      "hit": false,
      "t": 239454.30599999893,
      "d": 522.7267500000016,
      "v": 72
    },
    {
      "midi": 52,
      "hit": false,
      "t": 239999.75999999893,
      "d": 886.3627500000002,
      "v": 89
    },
    {
      "midi": 55,
      "hit": false,
      "t": 239999.75999999893,
      "d": 897.7263749999984,
      "v": 80
    },
    {
      "midi": 36,
      "hit": false,
      "t": 239999.75999999893,
      "d": 1798.2936562499963,
      "v": 97
    },
    {
      "midi": 48,
      "hit": false,
      "t": 240545.21399999893,
      "d": 437.4995624999865,
      "v": 50
    },
    {
      "midi": 52,
      "hit": false,
      "t": 241090.66799999893,
      "d": 946.0217812500196,
      "v": 92
    },
    {
      "midi": 55,
      "hit": false,
      "t": 241090.66799999893,
      "d": 951.7035937500186,
      "v": 84
    },
    {
      "midi": 48,
      "hit": false,
      "t": 241636.12199999893,
      "d": 528.4085625000298,
      "v": 65
    },
    {
      "midi": 36,
      "hit": false,
      "t": 241908.84899999894,
      "d": 156.2498437500035,
      "v": 71
    },
    {
      "midi": 36,
      "hit": false,
      "t": 242181.57599999895,
      "d": 420.4541249999893,
      "v": 79
    },
    {
      "midi": 55,
      "hit": false,
      "t": 242181.57599999895,
      "d": 664.7720625000075,
      "v": 82
    },
    {
      "midi": 52,
      "hit": false,
      "t": 242181.57599999895,
      "d": 678.9765937500051,
      "v": 81
    },
    {
      "midi": 48,
      "hit": false,
      "t": 242727.02999999895,
      "d": 485.7949687500077,
      "v": 57
    },
    {
      "midi": 36,
      "hit": false,
      "t": 242727.02999999895,
      "d": 843.7491562500072,
      "v": 78
    },
    {
      "midi": 55,
      "hit": false,
      "t": 243272.48399999895,
      "d": 485.7949687500077,
      "v": 88
    },
    {
      "midi": 52,
      "hit": false,
      "t": 243272.48399999895,
      "d": 539.7721874999988,
      "v": 93
    },
    {
      "midi": 48,
      "hit": false,
      "t": 243817.93799999895,
      "d": 82.3862812499865,
      "v": 67
    },
    {
      "midi": 55,
      "hit": false,
      "t": 244363.39199999894,
      "d": 843.7491562500363,
      "v": 96
    },
    {
      "midi": 59,
      "hit": false,
      "t": 244363.39199999894,
      "d": 843.7491562500363,
      "v": 93
    },
    {
      "midi": 43,
      "hit": false,
      "t": 244363.39199999894,
      "d": 1690.339218750014,
      "v": 78
    },
    {
      "midi": 50,
      "hit": false,
      "t": 244908.84599999897,
      "d": 480.1131562500086,
      "v": 56
    },
    {
      "midi": 59,
      "hit": false,
      "t": 245454.29999999897,
      "d": 727.2719999999972,
      "v": 104
    },
    {
      "midi": 55,
      "hit": false,
      "t": 245454.29999999897,
      "d": 795.453749999986,
      "v": 94
    },
    {
      "midi": 50,
      "hit": false,
      "t": 245999.75399999897,
      "d": 457.38590624998324,
      "v": 66
    },
    {
      "midi": 43,
      "hit": false,
      "t": 246272.48099999895,
      "d": 247.1588437499886,
      "v": 67
    },
    {
      "midi": 57,
      "hit": false,
      "t": 246545.20799999894,
      "d": 872.1582187500026,
      "v": 92
    },
    {
      "midi": 53,
      "hit": false,
      "t": 246545.20799999894,
      "d": 889.2036562499998,
      "v": 97
    },
    {
      "midi": 41,
      "hit": false,
      "t": 246545.20799999894,
      "d": 2198.861437499989,
      "v": 88
    },
    {
      "midi": 48,
      "hit": false,
      "t": 247090.66199999893,
      "d": 499.99950000000536,
      "v": 66
    },
    {
      "midi": 57,
      "hit": false,
      "t": 247636.11599999893,
      "d": 505.6813125000044,
      "v": 94
    },
    {
      "midi": 53,
      "hit": false,
      "t": 247636.11599999893,
      "d": 596.5903124999895,
      "v": 98
    },
    {
      "midi": 48,
      "hit": false,
      "t": 248181.56999999893,
      "d": 522.7267500000016,
      "v": 72
    },
    {
      "midi": 52,
      "hit": false,
      "t": 248727.02399999893,
      "d": 886.3627500000002,
      "v": 89
    },
    {
      "midi": 55,
      "hit": false,
      "t": 248727.02399999893,
      "d": 897.7263749999984,
      "v": 80
    },
    {
      "midi": 36,
      "hit": false,
      "t": 248727.02399999893,
      "d": 1798.2936562499963,
      "v": 97
    },
    {
      "midi": 48,
      "hit": false,
      "t": 249272.47799999893,
      "d": 437.4995624999865,
      "v": 50
    },
    {
      "midi": 52,
      "hit": false,
      "t": 249817.93199999892,
      "d": 946.0217812500196,
      "v": 92
    },
    {
      "midi": 55,
      "hit": false,
      "t": 249817.93199999892,
      "d": 951.7035937500186,
      "v": 84
    },
    {
      "midi": 48,
      "hit": false,
      "t": 250363.38599999892,
      "d": 528.4085625000298,
      "v": 65
    },
    {
      "midi": 36,
      "hit": false,
      "t": 250636.11299999894,
      "d": 156.2498437500035,
      "v": 71
    },
    {
      "midi": 36,
      "hit": false,
      "t": 250908.83999999895,
      "d": 420.4541249999893,
      "v": 79
    },
    {
      "midi": 55,
      "hit": false,
      "t": 250908.83999999895,
      "d": 664.7720625000075,
      "v": 82
    },
    {
      "midi": 52,
      "hit": false,
      "t": 250908.83999999895,
      "d": 678.9765937500051,
      "v": 81
    },
    {
      "midi": 48,
      "hit": false,
      "t": 251454.29399999895,
      "d": 485.7949687500077,
      "v": 57
    },
    {
      "midi": 36,
      "hit": false,
      "t": 251454.29399999895,
      "d": 843.7491562500072,
      "v": 78
    },
    {
      "midi": 55,
      "hit": false,
      "t": 251999.74799999894,
      "d": 485.7949687500077,
      "v": 88
    },
    {
      "midi": 52,
      "hit": false,
      "t": 251999.74799999894,
      "d": 539.7721874999988,
      "v": 93
    },
    {
      "midi": 48,
      "hit": false,
      "t": 252545.20199999894,
      "d": 82.3862812499865,
      "v": 67
    },
    {
      "midi": 55,
      "hit": false,
      "t": 253090.65599999894,
      "d": 843.7491562500363,
      "v": 96
    },
    {
      "midi": 59,
      "hit": false,
      "t": 253090.65599999894,
      "d": 843.7491562500363,
      "v": 93
    },
    {
      "midi": 43,
      "hit": false,
      "t": 253090.65599999894,
      "d": 1690.339218750014,
      "v": 78
    },
    {
      "midi": 50,
      "hit": false,
      "t": 253636.10999999897,
      "d": 480.1131562500086,
      "v": 56
    },
    {
      "midi": 59,
      "hit": false,
      "t": 254181.56399999897,
      "d": 727.2719999999972,
      "v": 104
    },
    {
      "midi": 55,
      "hit": false,
      "t": 254181.56399999897,
      "d": 795.453749999986,
      "v": 94
    },
    {
      "midi": 50,
      "hit": false,
      "t": 254727.01799999896,
      "d": 457.38590624998324,
      "v": 66
    },
    {
      "midi": 43,
      "hit": false,
      "t": 254999.74499999895,
      "d": 247.1588437499886,
      "v": 67
    },
    {
      "midi": 57,
      "hit": false,
      "t": 255272.47199999893,
      "d": 872.1582187500026,
      "v": 92
    },
    {
      "midi": 53,
      "hit": false,
      "t": 255272.47199999893,
      "d": 889.2036562499998,
      "v": 97
    },
    {
      "midi": 41,
      "hit": false,
      "t": 255272.47199999893,
      "d": 2198.861437499989,
      "v": 88
    },
    {
      "midi": 48,
      "hit": false,
      "t": 255817.92599999893,
      "d": 499.99950000000536,
      "v": 66
    },
    {
      "midi": 57,
      "hit": false,
      "t": 256363.37999999893,
      "d": 505.6813125000044,
      "v": 94
    },
    {
      "midi": 53,
      "hit": false,
      "t": 256363.37999999893,
      "d": 596.5903124999895,
      "v": 98
    },
    {
      "midi": 48,
      "hit": false,
      "t": 256908.83399999893,
      "d": 522.7267500000016,
      "v": 72
    },
    {
      "midi": 52,
      "hit": false,
      "t": 257454.28799999892,
      "d": 886.3627500000002,
      "v": 89
    },
    {
      "midi": 55,
      "hit": false,
      "t": 257454.28799999892,
      "d": 897.7263749999984,
      "v": 80
    },
    {
      "midi": 36,
      "hit": false,
      "t": 257454.28799999892,
      "d": 1798.2936562499963,
      "v": 97
    },
    {
      "midi": 48,
      "hit": false,
      "t": 257999.74199999892,
      "d": 437.4995624999865,
      "v": 50
    },
    {
      "midi": 52,
      "hit": false,
      "t": 258545.19599999892,
      "d": 946.0217812500196,
      "v": 92
    },
    {
      "midi": 55,
      "hit": false,
      "t": 258545.19599999892,
      "d": 951.7035937500186,
      "v": 84
    },
    {
      "midi": 48,
      "hit": false,
      "t": 259090.64999999892,
      "d": 528.4085625000298,
      "v": 65
    },
    {
      "midi": 36,
      "hit": false,
      "t": 259363.37699999893,
      "d": 156.2498437500035,
      "v": 71
    },
    {
      "midi": 36,
      "hit": false,
      "t": 259636.10399999894,
      "d": 420.4541249999893,
      "v": 79
    },
    {
      "midi": 55,
      "hit": false,
      "t": 259636.10399999894,
      "d": 664.7720625000075,
      "v": 82
    },
    {
      "midi": 52,
      "hit": false,
      "t": 259636.10399999894,
      "d": 678.9765937500051,
      "v": 81
    },
    {
      "midi": 48,
      "hit": false,
      "t": 260181.55799999894,
      "d": 485.7949687500077,
      "v": 57
    },
    {
      "midi": 36,
      "hit": false,
      "t": 260181.55799999894,
      "d": 843.7491562500072,
      "v": 78
    },
    {
      "midi": 55,
      "hit": false,
      "t": 260727.01199999894,
      "d": 485.7949687500077,
      "v": 88
    },
    {
      "midi": 52,
      "hit": false,
      "t": 260727.01199999894,
      "d": 539.7721874999988,
      "v": 93
    },
    {
      "midi": 48,
      "hit": false,
      "t": 261272.46599999894,
      "d": 82.3862812499865,
      "v": 67
    },
    {
      "midi": 55,
      "hit": false,
      "t": 261817.91999999894,
      "d": 843.7491562499781,
      "v": 96
    },
    {
      "midi": 59,
      "hit": false,
      "t": 261817.91999999894,
      "d": 843.7491562499781,
      "v": 93
    },
    {
      "midi": 43,
      "hit": false,
      "t": 261817.91999999894,
      "d": 1690.339218750014,
      "v": 78
    },
    {
      "midi": 50,
      "hit": false,
      "t": 262363.3739999989,
      "d": 480.1131562500377,
      "v": 56
    },
    {
      "midi": 59,
      "hit": false,
      "t": 262908.82799999893,
      "d": 727.2719999999972,
      "v": 104
    },
    {
      "midi": 55,
      "hit": false,
      "t": 262908.82799999893,
      "d": 795.453749999986,
      "v": 94
    },
    {
      "midi": 50,
      "hit": false,
      "t": 263454.28199999896,
      "d": 457.38590624998324,
      "v": 66
    },
    {
      "midi": 43,
      "hit": false,
      "t": 263727.0089999989,
      "d": 247.1588437500177,
      "v": 67
    },
    {
      "midi": 57,
      "hit": false,
      "t": 263999.7359999989,
      "d": 872.1582187500317,
      "v": 92
    },
    {
      "midi": 53,
      "hit": false,
      "t": 263999.7359999989,
      "d": 889.2036562500289,
      "v": 97
    },
    {
      "midi": 41,
      "hit": false,
      "t": 263999.7359999989,
      "d": 2198.8614374999306,
      "v": 88
    },
    {
      "midi": 48,
      "hit": false,
      "t": 264545.18999999895,
      "d": 499.99949999997625,
      "v": 66
    },
    {
      "midi": 57,
      "hit": false,
      "t": 265090.6439999989,
      "d": 505.6813124999753,
      "v": 94
    },
    {
      "midi": 53,
      "hit": false,
      "t": 265090.6439999989,
      "d": 596.5903124999604,
      "v": 98
    },
    {
      "midi": 48,
      "hit": false,
      "t": 265636.0979999989,
      "d": 522.7267499999725,
      "v": 72
    },
    {
      "midi": 52,
      "hit": false,
      "t": 266181.55199999886,
      "d": 886.3627499999711,
      "v": 89
    },
    {
      "midi": 55,
      "hit": false,
      "t": 266181.55199999886,
      "d": 897.7263749999693,
      "v": 80
    },
    {
      "midi": 36,
      "hit": false,
      "t": 266181.55199999886,
      "d": 1798.293656249938,
      "v": 97
    },
    {
      "midi": 48,
      "hit": false,
      "t": 266727.00599999883,
      "d": 437.4995624999865,
      "v": 50
    },
    {
      "midi": 52,
      "hit": false,
      "t": 267272.4599999988,
      "d": 946.0217812499614,
      "v": 92
    },
    {
      "midi": 55,
      "hit": false,
      "t": 267272.4599999988,
      "d": 951.7035937499604,
      "v": 84
    },
    {
      "midi": 48,
      "hit": false,
      "t": 267817.9139999988,
      "d": 528.4085624999134,
      "v": 65
    },
    {
      "midi": 36,
      "hit": false,
      "t": 268090.6409999988,
      "d": 156.2498437499744,
      "v": 71
    },
    {
      "midi": 36,
      "hit": false,
      "t": 268363.36799999874,
      "d": 420.4541249999893,
      "v": 79
    },
    {
      "midi": 55,
      "hit": false,
      "t": 268363.36799999874,
      "d": 664.7720624999492,
      "v": 82
    },
    {
      "midi": 52,
      "hit": false,
      "t": 268363.36799999874,
      "d": 678.9765937499469,
      "v": 81
    },
    {
      "midi": 48,
      "hit": false,
      "t": 268908.8219999987,
      "d": 485.7949687499786,
      "v": 57
    },
    {
      "midi": 36,
      "hit": false,
      "t": 268908.8219999987,
      "d": 843.7491562499781,
      "v": 78
    },
    {
      "midi": 55,
      "hit": false,
      "t": 269454.2759999987,
      "d": 485.7949687500368,
      "v": 88
    },
    {
      "midi": 52,
      "hit": false,
      "t": 269454.2759999987,
      "d": 539.7721875000279,
      "v": 93
    },
    {
      "midi": 48,
      "hit": false,
      "t": 269999.7299999987,
      "d": 82.3862812499865,
      "v": 67
    },
    {
      "midi": 55,
      "hit": false,
      "t": 270545.18399999867,
      "d": 843.7491562499781,
      "v": 96
    },
    {
      "midi": 59,
      "hit": false,
      "t": 270545.18399999867,
      "d": 843.7491562499781,
      "v": 93
    },
    {
      "midi": 43,
      "hit": false,
      "t": 270545.18399999867,
      "d": 1690.339218750014,
      "v": 78
    },
    {
      "midi": 50,
      "hit": false,
      "t": 271090.63799999864,
      "d": 480.1131562500377,
      "v": 56
    },
    {
      "midi": 59,
      "hit": false,
      "t": 271636.09199999867,
      "d": 727.2719999999972,
      "v": 104
    },
    {
      "midi": 55,
      "hit": false,
      "t": 271636.09199999867,
      "d": 795.453749999986,
      "v": 94
    },
    {
      "midi": 50,
      "hit": false,
      "t": 272181.5459999987,
      "d": 457.38590624998324,
      "v": 66
    },
    {
      "midi": 43,
      "hit": false,
      "t": 272454.27299999865,
      "d": 247.1588437500177,
      "v": 67
    },
    {
      "midi": 57,
      "hit": false,
      "t": 272726.99999999866,
      "d": 872.1582187500317,
      "v": 92
    },
    {
      "midi": 53,
      "hit": false,
      "t": 272726.99999999866,
      "d": 889.2036562500289,
      "v": 97
    },
    {
      "midi": 41,
      "hit": false,
      "t": 272726.99999999866,
      "d": 2198.8614374999306,
      "v": 88
    },
    {
      "midi": 48,
      "hit": false,
      "t": 273272.4539999987,
      "d": 499.99949999997625,
      "v": 66
    },
    {
      "midi": 57,
      "hit": false,
      "t": 273817.90799999866,
      "d": 505.6813124999753,
      "v": 94
    },
    {
      "midi": 53,
      "hit": false,
      "t": 273817.90799999866,
      "d": 596.5903124999604,
      "v": 98
    },
    {
      "midi": 48,
      "hit": false,
      "t": 274363.3619999986,
      "d": 522.7267499999725,
      "v": 72
    },
    {
      "midi": 52,
      "hit": false,
      "t": 274908.8159999986,
      "d": 886.3627499999711,
      "v": 89
    },
    {
      "midi": 55,
      "hit": false,
      "t": 274908.8159999986,
      "d": 897.7263749999693,
      "v": 80
    },
    {
      "midi": 36,
      "hit": false,
      "t": 274908.8159999986,
      "d": 1798.293656249938,
      "v": 97
    },
    {
      "midi": 48,
      "hit": false,
      "t": 275454.26999999856,
      "d": 437.4995624999865,
      "v": 50
    },
    {
      "midi": 52,
      "hit": false,
      "t": 275999.72399999853,
      "d": 946.0217812499614,
      "v": 92
    },
    {
      "midi": 55,
      "hit": false,
      "t": 275999.72399999853,
      "d": 951.7035937499604,
      "v": 84
    },
    {
      "midi": 48,
      "hit": false,
      "t": 276545.17799999856,
      "d": 528.4085624999134,
      "v": 65
    },
    {
      "midi": 36,
      "hit": false,
      "t": 276817.9049999985,
      "d": 156.2498437499744,
      "v": 71
    },
    {
      "midi": 36,
      "hit": false,
      "t": 277090.63199999847,
      "d": 420.4541249999893,
      "v": 79
    },
    {
      "midi": 55,
      "hit": false,
      "t": 277090.63199999847,
      "d": 664.7720624999492,
      "v": 82
    },
    {
      "midi": 52,
      "hit": false,
      "t": 277090.63199999847,
      "d": 678.9765937499469,
      "v": 81
    },
    {
      "midi": 48,
      "hit": false,
      "t": 277636.08599999844,
      "d": 485.7949687499786,
      "v": 57
    },
    {
      "midi": 36,
      "hit": false,
      "t": 277636.08599999844,
      "d": 843.7491562499781,
      "v": 78
    },
    {
      "midi": 55,
      "hit": false,
      "t": 278181.5399999984,
      "d": 485.7949687500368,
      "v": 88
    },
    {
      "midi": 52,
      "hit": false,
      "t": 278181.5399999984,
      "d": 539.7721875000279,
      "v": 93
    },
    {
      "midi": 48,
      "hit": false,
      "t": 278726.99399999843,
      "d": 82.3862812499865,
      "v": 67
    },
    {
      "midi": 55,
      "hit": false,
      "t": 279272.4479999984,
      "d": 843.7491562499781,
      "v": 96
    },
    {
      "midi": 59,
      "hit": false,
      "t": 279272.4479999984,
      "d": 843.7491562499781,
      "v": 93
    },
    {
      "midi": 43,
      "hit": false,
      "t": 279272.4479999984,
      "d": 1690.339218750014,
      "v": 78
    },
    {
      "midi": 50,
      "hit": false,
      "t": 279817.9019999984,
      "d": 480.1131562500377,
      "v": 56
    },
    {
      "midi": 59,
      "hit": false,
      "t": 280363.3559999984,
      "d": 727.2719999999972,
      "v": 104
    },
    {
      "midi": 55,
      "hit": false,
      "t": 280363.3559999984,
      "d": 795.453749999986,
      "v": 94
    },
    {
      "midi": 50,
      "hit": false,
      "t": 280908.8099999984,
      "d": 457.38590624998324,
      "v": 66
    },
    {
      "midi": 43,
      "hit": false,
      "t": 281181.5369999984,
      "d": 247.1588437500177,
      "v": 67
    },
    {
      "midi": 57,
      "hit": false,
      "t": 281454.2639999984,
      "d": 872.1582187500317,
      "v": 92
    },
    {
      "midi": 53,
      "hit": false,
      "t": 281454.2639999984,
      "d": 889.2036562500289,
      "v": 97
    },
    {
      "midi": 41,
      "hit": false,
      "t": 281454.2639999984,
      "d": 2198.8614374999306,
      "v": 88
    },
    {
      "midi": 48,
      "hit": false,
      "t": 281999.7179999984,
      "d": 499.99949999997625,
      "v": 66
    },
    {
      "midi": 57,
      "hit": false,
      "t": 282545.1719999984,
      "d": 505.6813124999753,
      "v": 94
    },
    {
      "midi": 53,
      "hit": false,
      "t": 282545.1719999984,
      "d": 596.5903124999604,
      "v": 98
    },
    {
      "midi": 48,
      "hit": false,
      "t": 283090.62599999836,
      "d": 522.7267499999725,
      "v": 72
    },
    {
      "midi": 52,
      "hit": false,
      "t": 283636.0799999983,
      "d": 886.3627499999711,
      "v": 89
    },
    {
      "midi": 55,
      "hit": false,
      "t": 283636.0799999983,
      "d": 897.7263749999693,
      "v": 80
    },
    {
      "midi": 36,
      "hit": false,
      "t": 283636.0799999983,
      "d": 1798.293656249938,
      "v": 97
    },
    {
      "midi": 48,
      "hit": false,
      "t": 284181.5339999983,
      "d": 437.4995624999865,
      "v": 50
    },
    {
      "midi": 52,
      "hit": false,
      "t": 284726.98799999827,
      "d": 946.0217812499614,
      "v": 92
    },
    {
      "midi": 55,
      "hit": false,
      "t": 284726.98799999827,
      "d": 951.7035937499604,
      "v": 84
    },
    {
      "midi": 48,
      "hit": false,
      "t": 285272.4419999983,
      "d": 528.4085624999134,
      "v": 65
    },
    {
      "midi": 36,
      "hit": false,
      "t": 285545.16899999825,
      "d": 156.2498437499744,
      "v": 71
    },
    {
      "midi": 36,
      "hit": false,
      "t": 285817.8959999982,
      "d": 420.4541249999893,
      "v": 79
    },
    {
      "midi": 55,
      "hit": false,
      "t": 285817.8959999982,
      "d": 664.7720624999492,
      "v": 82
    },
    {
      "midi": 52,
      "hit": false,
      "t": 285817.8959999982,
      "d": 678.9765937499469,
      "v": 81
    },
    {
      "midi": 48,
      "hit": false,
      "t": 286363.3499999982,
      "d": 485.7949687499786,
      "v": 57
    },
    {
      "midi": 36,
      "hit": false,
      "t": 286363.3499999982,
      "d": 843.7491562499781,
      "v": 78
    },
    {
      "midi": 55,
      "hit": false,
      "t": 286908.80399999814,
      "d": 485.7949687500368,
      "v": 88
    },
    {
      "midi": 52,
      "hit": false,
      "t": 286908.80399999814,
      "d": 539.7721875000279,
      "v": 93
    },
    {
      "midi": 48,
      "hit": false,
      "t": 287454.25799999817,
      "d": 82.3862812499865,
      "v": 67
    },
    {
      "midi": 55,
      "hit": false,
      "t": 287999.71199999814,
      "d": 843.7491562499781,
      "v": 96
    },
    {
      "midi": 59,
      "hit": false,
      "t": 287999.71199999814,
      "d": 843.7491562499781,
      "v": 93
    },
    {
      "midi": 43,
      "hit": false,
      "t": 287999.71199999814,
      "d": 1690.339218750014,
      "v": 78
    },
    {
      "midi": 50,
      "hit": false,
      "t": 288545.1659999981,
      "d": 480.1131562500377,
      "v": 56
    },
    {
      "midi": 59,
      "hit": false,
      "t": 289090.61999999813,
      "d": 727.2719999999972,
      "v": 104
    },
    {
      "midi": 55,
      "hit": false,
      "t": 289090.61999999813,
      "d": 795.453749999986,
      "v": 94
    },
    {
      "midi": 50,
      "hit": false,
      "t": 289636.07399999816,
      "d": 457.38590624998324,
      "v": 66
    },
    {
      "midi": 43,
      "hit": false,
      "t": 289908.8009999981,
      "d": 247.1588437500177,
      "v": 67
    },
    {
      "midi": 57,
      "hit": false,
      "t": 290181.5279999981,
      "d": 872.1582187500317,
      "v": 92
    },
    {
      "midi": 53,
      "hit": false,
      "t": 290181.5279999981,
      "d": 889.2036562500289,
      "v": 97
    },
    {
      "midi": 41,
      "hit": false,
      "t": 290181.5279999981,
      "d": 2198.8614374999306,
      "v": 88
    },
    {
      "midi": 48,
      "hit": false,
      "t": 290726.98199999816,
      "d": 499.99949999997625,
      "v": 66
    },
    {
      "midi": 57,
      "hit": false,
      "t": 291272.4359999981,
      "d": 505.6813124999753,
      "v": 94
    },
    {
      "midi": 53,
      "hit": false,
      "t": 291272.4359999981,
      "d": 596.5903124999604,
      "v": 98
    },
    {
      "midi": 48,
      "hit": false,
      "t": 291817.8899999981,
      "d": 522.7267499999725,
      "v": 72
    },
    {
      "midi": 52,
      "hit": false,
      "t": 292363.34399999806,
      "d": 886.3627499999711,
      "v": 89
    },
    {
      "midi": 55,
      "hit": false,
      "t": 292363.34399999806,
      "d": 897.7263749999693,
      "v": 80
    },
    {
      "midi": 36,
      "hit": false,
      "t": 292363.34399999806,
      "d": 1798.293656249938,
      "v": 97
    },
    {
      "midi": 48,
      "hit": false,
      "t": 292908.79799999803,
      "d": 437.4995624999865,
      "v": 50
    },
    {
      "midi": 52,
      "hit": false,
      "t": 293454.251999998,
      "d": 946.0217812499614,
      "v": 92
    },
    {
      "midi": 55,
      "hit": false,
      "t": 293454.251999998,
      "d": 951.7035937499604,
      "v": 84
    },
    {
      "midi": 48,
      "hit": false,
      "t": 293999.705999998,
      "d": 528.4085624999134,
      "v": 65
    },
    {
      "midi": 36,
      "hit": false,
      "t": 294272.432999998,
      "d": 156.2498437499744,
      "v": 71
    },
    {
      "midi": 36,
      "hit": false,
      "t": 294545.15999999794,
      "d": 420.4541249999893,
      "v": 79
    },
    {
      "midi": 55,
      "hit": false,
      "t": 294545.15999999794,
      "d": 664.7720624999492,
      "v": 82
    },
    {
      "midi": 52,
      "hit": false,
      "t": 294545.15999999794,
      "d": 678.9765937499469,
      "v": 81
    },
    {
      "midi": 48,
      "hit": false,
      "t": 295090.6139999979,
      "d": 485.7949687499786,
      "v": 57
    },
    {
      "midi": 36,
      "hit": false,
      "t": 295090.6139999979,
      "d": 843.7491562499781,
      "v": 78
    },
    {
      "midi": 55,
      "hit": false,
      "t": 295636.0679999979,
      "d": 485.7949687500368,
      "v": 88
    },
    {
      "midi": 52,
      "hit": false,
      "t": 295636.0679999979,
      "d": 539.7721875000279,
      "v": 93
    },
    {
      "midi": 48,
      "hit": false,
      "t": 296181.5219999979,
      "d": 82.3862812499865,
      "v": 67
    },
    {
      "midi": 55,
      "hit": false,
      "t": 296726.97599999787,
      "d": 843.7491562499781,
      "v": 96
    },
    {
      "midi": 59,
      "hit": false,
      "t": 296726.97599999787,
      "d": 843.7491562499781,
      "v": 93
    },
    {
      "midi": 43,
      "hit": false,
      "t": 296726.97599999787,
      "d": 1690.339218750014,
      "v": 78
    },
    {
      "midi": 50,
      "hit": false,
      "t": 297272.42999999784,
      "d": 480.1131562500377,
      "v": 56
    },
    {
      "midi": 59,
      "hit": false,
      "t": 297817.88399999787,
      "d": 727.2719999999972,
      "v": 104
    },
    {
      "midi": 55,
      "hit": false,
      "t": 297817.88399999787,
      "d": 795.453749999986,
      "v": 94
    },
    {
      "midi": 50,
      "hit": false,
      "t": 298363.3379999979,
      "d": 457.38590624998324,
      "v": 66
    },
    {
      "midi": 43,
      "hit": false,
      "t": 298636.06499999785,
      "d": 247.1588437500177,
      "v": 67
    },
    {
      "midi": 57,
      "hit": false,
      "t": 298908.79199999786,
      "d": 872.1582187500317,
      "v": 92
    },
    {
      "midi": 53,
      "hit": false,
      "t": 298908.79199999786,
      "d": 889.2036562500289,
      "v": 97
    },
    {
      "midi": 41,
      "hit": false,
      "t": 298908.79199999786,
      "d": 2198.8614374999306,
      "v": 88
    },
    {
      "midi": 48,
      "hit": false,
      "t": 299454.2459999979,
      "d": 499.99949999997625,
      "v": 66
    },
    {
      "midi": 57,
      "hit": false,
      "t": 299999.69999999786,
      "d": 505.6813124999753,
      "v": 94
    },
    {
      "midi": 53,
      "hit": false,
      "t": 299999.69999999786,
      "d": 596.5903124999604,
      "v": 98
    },
    {
      "midi": 48,
      "hit": false,
      "t": 300545.1539999978,
      "d": 522.7267499999725,
      "v": 72
    },
    {
      "midi": 52,
      "hit": false,
      "t": 301090.6079999978,
      "d": 886.3627499999711,
      "v": 89
    },
    {
      "midi": 55,
      "hit": false,
      "t": 301090.6079999978,
      "d": 897.7263749999693,
      "v": 80
    },
    {
      "midi": 36,
      "hit": false,
      "t": 301090.6079999978,
      "d": 1798.293656249938,
      "v": 97
    },
    {
      "midi": 48,
      "hit": false,
      "t": 301636.06199999776,
      "d": 437.4995624999865,
      "v": 50
    },
    {
      "midi": 52,
      "hit": false,
      "t": 302181.51599999773,
      "d": 946.0217812499614,
      "v": 92
    },
    {
      "midi": 55,
      "hit": false,
      "t": 302181.51599999773,
      "d": 951.7035937499604,
      "v": 84
    },
    {
      "midi": 48,
      "hit": false,
      "t": 302726.96999999776,
      "d": 528.4085624999134,
      "v": 65
    },
    {
      "midi": 36,
      "hit": false,
      "t": 302999.6969999977,
      "d": 156.2498437499744,
      "v": 71
    },
    {
      "midi": 36,
      "hit": false,
      "t": 303272.42399999767,
      "d": 420.4541249999893,
      "v": 79
    },
    {
      "midi": 55,
      "hit": false,
      "t": 303272.42399999767,
      "d": 664.7720624999492,
      "v": 82
    },
    {
      "midi": 52,
      "hit": false,
      "t": 303272.42399999767,
      "d": 678.9765937499469,
      "v": 81
    },
    {
      "midi": 48,
      "hit": false,
      "t": 303817.87799999764,
      "d": 485.7949687499786,
      "v": 57
    },
    {
      "midi": 36,
      "hit": false,
      "t": 303817.87799999764,
      "d": 843.7491562499781,
      "v": 78
    },
    {
      "midi": 55,
      "hit": false,
      "t": 304363.3319999976,
      "d": 485.7949687500368,
      "v": 88
    },
    {
      "midi": 52,
      "hit": false,
      "t": 304363.3319999976,
      "d": 539.7721875000279,
      "v": 93
    },
    {
      "midi": 48,
      "hit": false,
      "t": 304908.78599999764,
      "d": 82.3862812499865,
      "v": 67
    },
    {
      "midi": 55,
      "hit": false,
      "t": 305454.2399999976,
      "d": 843.7491562499781,
      "v": 96
    },
    {
      "midi": 59,
      "hit": false,
      "t": 305454.2399999976,
      "d": 843.7491562499781,
      "v": 93
    },
    {
      "midi": 43,
      "hit": false,
      "t": 305454.2399999976,
      "d": 1690.339218750014,
      "v": 78
    },
    {
      "midi": 50,
      "hit": false,
      "t": 305999.6939999976,
      "d": 480.1131562500377,
      "v": 56
    },
    {
      "midi": 59,
      "hit": false,
      "t": 306545.1479999976,
      "d": 727.2719999999972,
      "v": 104
    },
    {
      "midi": 55,
      "hit": false,
      "t": 306545.1479999976,
      "d": 795.453749999986,
      "v": 94
    },
    {
      "midi": 50,
      "hit": false,
      "t": 307090.6019999976,
      "d": 457.38590624998324,
      "v": 66
    },
    {
      "midi": 43,
      "hit": false,
      "t": 307363.3289999976,
      "d": 247.1588437500177,
      "v": 67
    },
    {
      "midi": 57,
      "hit": false,
      "t": 307636.0559999976,
      "d": 872.1582187500317,
      "v": 92
    },
    {
      "midi": 53,
      "hit": false,
      "t": 307636.0559999976,
      "d": 889.2036562500289,
      "v": 97
    },
    {
      "midi": 41,
      "hit": false,
      "t": 307636.0559999976,
      "d": 2198.8614374999306,
      "v": 88
    },
    {
      "midi": 48,
      "hit": false,
      "t": 308181.5099999976,
      "d": 499.99949999997625,
      "v": 66
    },
    {
      "midi": 57,
      "hit": false,
      "t": 308726.9639999976,
      "d": 505.6813124999753,
      "v": 94
    },
    {
      "midi": 53,
      "hit": false,
      "t": 308726.9639999976,
      "d": 596.5903124999604,
      "v": 98
    },
    {
      "midi": 48,
      "hit": false,
      "t": 309272.41799999756,
      "d": 522.7267499999725,
      "v": 72
    },
    {
      "midi": 52,
      "hit": false,
      "t": 309817.87199999753,
      "d": 886.3627499999711,
      "v": 89
    },
    {
      "midi": 55,
      "hit": false,
      "t": 309817.87199999753,
      "d": 897.7263749999693,
      "v": 80
    },
    {
      "midi": 36,
      "hit": false,
      "t": 309817.87199999753,
      "d": 1798.293656249938,
      "v": 97
    },
    {
      "midi": 48,
      "hit": false,
      "t": 310363.3259999975,
      "d": 437.4995624999865,
      "v": 50
    },
    {
      "midi": 52,
      "hit": false,
      "t": 310908.77999999747,
      "d": 946.0217812499614,
      "v": 92
    },
    {
      "midi": 55,
      "hit": false,
      "t": 310908.77999999747,
      "d": 951.7035937499604,
      "v": 84
    },
    {
      "midi": 48,
      "hit": false,
      "t": 311454.2339999975,
      "d": 528.4085624999134,
      "v": 65
    },
    {
      "midi": 36,
      "hit": false,
      "t": 311726.96099999745,
      "d": 156.2498437499744,
      "v": 71
    },
    {
      "midi": 36,
      "hit": false,
      "t": 311999.6879999974,
      "d": 420.4541249999893,
      "v": 79
    },
    {
      "midi": 55,
      "hit": false,
      "t": 311999.6879999974,
      "d": 664.7720624999492,
      "v": 82
    },
    {
      "midi": 52,
      "hit": false,
      "t": 311999.6879999974,
      "d": 678.9765937499469,
      "v": 81
    },
    {
      "midi": 48,
      "hit": false,
      "t": 312545.1419999974,
      "d": 485.7949687499786,
      "v": 57
    },
    {
      "midi": 36,
      "hit": false,
      "t": 312545.1419999974,
      "d": 843.7491562499781,
      "v": 78
    },
    {
      "midi": 55,
      "hit": false,
      "t": 313090.59599999734,
      "d": 485.7949687500368,
      "v": 88
    },
    {
      "midi": 52,
      "hit": false,
      "t": 313090.59599999734,
      "d": 539.7721875000279,
      "v": 93
    },
    {
      "midi": 48,
      "hit": false,
      "t": 313636.04999999737,
      "d": 82.3862812499865,
      "v": 67
    },
    {
      "midi": 55,
      "hit": false,
      "t": 314181.50399999734,
      "d": 843.7491562499781,
      "v": 96
    },
    {
      "midi": 59,
      "hit": false,
      "t": 314181.50399999734,
      "d": 843.7491562499781,
      "v": 93
    },
    {
      "midi": 43,
      "hit": false,
      "t": 314181.50399999734,
      "d": 1690.339218750014,
      "v": 78
    },
    {
      "midi": 50,
      "hit": false,
      "t": 314726.9579999973,
      "d": 480.1131562500377,
      "v": 56
    },
    {
      "midi": 59,
      "hit": false,
      "t": 315272.41199999733,
      "d": 727.2719999999972,
      "v": 104
    },
    {
      "midi": 55,
      "hit": false,
      "t": 315272.41199999733,
      "d": 795.453749999986,
      "v": 94
    },
    {
      "midi": 50,
      "hit": false,
      "t": 315817.86599999736,
      "d": 457.38590624998324,
      "v": 66
    },
    {
      "midi": 43,
      "hit": false,
      "t": 316090.5929999973,
      "d": 247.1588437500177,
      "v": 67
    },
    {
      "midi": 57,
      "hit": false,
      "t": 316363.31999999733,
      "d": 872.1582187500317,
      "v": 92
    },
    {
      "midi": 53,
      "hit": false,
      "t": 316363.31999999733,
      "d": 889.2036562500289,
      "v": 97
    },
    {
      "midi": 41,
      "hit": false,
      "t": 316363.31999999733,
      "d": 2198.8614374999306,
      "v": 88
    },
    {
      "midi": 48,
      "hit": false,
      "t": 316908.77399999736,
      "d": 499.99949999997625,
      "v": 66
    },
    {
      "midi": 57,
      "hit": false,
      "t": 317454.2279999973,
      "d": 505.6813124999753,
      "v": 94
    },
    {
      "midi": 53,
      "hit": false,
      "t": 317454.2279999973,
      "d": 596.5903124999604,
      "v": 98
    },
    {
      "midi": 48,
      "hit": false,
      "t": 317999.6819999973,
      "d": 522.7267499999725,
      "v": 72
    },
    {
      "midi": 52,
      "hit": false,
      "t": 318545.13599999726,
      "d": 886.3627499999711,
      "v": 89
    },
    {
      "midi": 55,
      "hit": false,
      "t": 318545.13599999726,
      "d": 897.7263749999693,
      "v": 80
    },
    {
      "midi": 36,
      "hit": false,
      "t": 318545.13599999726,
      "d": 1798.293656249938,
      "v": 97
    },
    {
      "midi": 48,
      "hit": false,
      "t": 319090.58999999723,
      "d": 437.4995624999865,
      "v": 50
    },
    {
      "midi": 52,
      "hit": false,
      "t": 319636.0439999972,
      "d": 946.0217812499614,
      "v": 92
    },
    {
      "midi": 55,
      "hit": false,
      "t": 319636.0439999972,
      "d": 951.7035937499604,
      "v": 84
    },
    {
      "midi": 48,
      "hit": false,
      "t": 320181.4979999972,
      "d": 528.4085624999134,
      "v": 65
    },
    {
      "midi": 36,
      "hit": false,
      "t": 320454.2249999972,
      "d": 156.2498437499744,
      "v": 71
    },
    {
      "midi": 36,
      "hit": false,
      "t": 320726.95199999714,
      "d": 420.4541249999893,
      "v": 79
    },
    {
      "midi": 55,
      "hit": false,
      "t": 320726.95199999714,
      "d": 664.7720624999492,
      "v": 82
    },
    {
      "midi": 52,
      "hit": false,
      "t": 320726.95199999714,
      "d": 678.9765937499469,
      "v": 81
    },
    {
      "midi": 48,
      "hit": false,
      "t": 321272.4059999971,
      "d": 485.7949687499786,
      "v": 57
    },
    {
      "midi": 36,
      "hit": false,
      "t": 321272.4059999971,
      "d": 843.7491562499781,
      "v": 78
    },
    {
      "midi": 55,
      "hit": false,
      "t": 321817.8599999971,
      "d": 485.7949687500368,
      "v": 88
    },
    {
      "midi": 52,
      "hit": false,
      "t": 321817.8599999971,
      "d": 539.7721875000279,
      "v": 93
    },
    {
      "midi": 48,
      "hit": false,
      "t": 322363.3139999971,
      "d": 82.3862812499865,
      "v": 67
    },
    {
      "midi": 55,
      "hit": false,
      "t": 322908.7679999971,
      "d": 843.7491562499781,
      "v": 96
    },
    {
      "midi": 59,
      "hit": false,
      "t": 322908.7679999971,
      "d": 843.7491562499781,
      "v": 93
    },
    {
      "midi": 43,
      "hit": false,
      "t": 322908.7679999971,
      "d": 1690.339218750014,
      "v": 78
    },
    {
      "midi": 50,
      "hit": false,
      "t": 323454.22199999704,
      "d": 480.1131562500377,
      "v": 56
    },
    {
      "midi": 59,
      "hit": false,
      "t": 323999.67599999707,
      "d": 727.2719999999972,
      "v": 104
    },
    {
      "midi": 55,
      "hit": false,
      "t": 323999.67599999707,
      "d": 795.453749999986,
      "v": 94
    },
    {
      "midi": 50,
      "hit": false,
      "t": 324545.1299999971,
      "d": 457.38590624998324,
      "v": 66
    },
    {
      "midi": 43,
      "hit": false,
      "t": 324817.85699999705,
      "d": 247.1588437500177,
      "v": 67
    },
    {
      "midi": 57,
      "hit": false,
      "t": 325090.58399999706,
      "d": 872.1582187500317,
      "v": 92
    },
    {
      "midi": 53,
      "hit": false,
      "t": 325090.58399999706,
      "d": 889.2036562500289,
      "v": 97
    },
    {
      "midi": 41,
      "hit": false,
      "t": 325090.58399999706,
      "d": 2198.8614374999306,
      "v": 88
    },
    {
      "midi": 48,
      "hit": false,
      "t": 325636.0379999971,
      "d": 499.99949999997625,
      "v": 66
    },
    {
      "midi": 57,
      "hit": false,
      "t": 326181.49199999706,
      "d": 505.6813124999753,
      "v": 94
    },
    {
      "midi": 53,
      "hit": false,
      "t": 326181.49199999706,
      "d": 596.5903124999604,
      "v": 98
    },
    {
      "midi": 48,
      "hit": false,
      "t": 326726.945999997,
      "d": 522.7267499999725,
      "v": 72
    },
    {
      "midi": 52,
      "hit": false,
      "t": 327272.399999997,
      "d": 886.3627499999711,
      "v": 89
    },
    {
      "midi": 55,
      "hit": false,
      "t": 327272.399999997,
      "d": 897.7263749999693,
      "v": 80
    },
    {
      "midi": 36,
      "hit": false,
      "t": 327272.399999997,
      "d": 1798.293656249938,
      "v": 97
    },
    {
      "midi": 48,
      "hit": false,
      "t": 327817.85399999697,
      "d": 437.4995624999865,
      "v": 50
    },
    {
      "midi": 52,
      "hit": false,
      "t": 328363.30799999693,
      "d": 946.0217812499614,
      "v": 92
    },
    {
      "midi": 55,
      "hit": false,
      "t": 328363.30799999693,
      "d": 951.7035937499604,
      "v": 84
    },
    {
      "midi": 48,
      "hit": false,
      "t": 328908.76199999696,
      "d": 528.4085624999134,
      "v": 65
    },
    {
      "midi": 36,
      "hit": false,
      "t": 329181.4889999969,
      "d": 156.2498437499744,
      "v": 71
    },
    {
      "midi": 36,
      "hit": false,
      "t": 329454.2159999969,
      "d": 420.4541249999893,
      "v": 79
    },
    {
      "midi": 55,
      "hit": false,
      "t": 329454.2159999969,
      "d": 664.7720624999492,
      "v": 82
    },
    {
      "midi": 52,
      "hit": false,
      "t": 329454.2159999969,
      "d": 678.9765937499469,
      "v": 81
    },
    {
      "midi": 48,
      "hit": false,
      "t": 329999.66999999684,
      "d": 485.7949687499786,
      "v": 57
    },
    {
      "midi": 36,
      "hit": false,
      "t": 329999.66999999684,
      "d": 843.7491562499781,
      "v": 78
    },
    {
      "midi": 55,
      "hit": false,
      "t": 330545.1239999968,
      "d": 485.7949687500368,
      "v": 88
    },
    {
      "midi": 52,
      "hit": false,
      "t": 330545.1239999968,
      "d": 539.7721875000279,
      "v": 93
    },
    {
      "midi": 48,
      "hit": false,
      "t": 331090.57799999684,
      "d": 82.3862812499865,
      "v": 67
    },
    {
      "midi": 55,
      "hit": false,
      "t": 331636.0319999968,
      "d": 843.7491562499781,
      "v": 96
    },
    {
      "midi": 59,
      "hit": false,
      "t": 331636.0319999968,
      "d": 843.7491562499781,
      "v": 93
    },
    {
      "midi": 43,
      "hit": false,
      "t": 331636.0319999968,
      "d": 1690.339218750014,
      "v": 78
    },
    {
      "midi": 50,
      "hit": false,
      "t": 332181.4859999968,
      "d": 480.1131562500377,
      "v": 56
    },
    {
      "midi": 59,
      "hit": false,
      "t": 332726.9399999968,
      "d": 727.2719999999972,
      "v": 104
    },
    {
      "midi": 55,
      "hit": false,
      "t": 332726.9399999968,
      "d": 795.453749999986,
      "v": 94
    },
    {
      "midi": 50,
      "hit": false,
      "t": 333272.3939999968,
      "d": 457.38590624998324,
      "v": 66
    },
    {
      "midi": 43,
      "hit": false,
      "t": 333545.1209999968,
      "d": 247.1588437500177,
      "v": 67
    },
    {
      "midi": 57,
      "hit": false,
      "t": 333817.8479999968,
      "d": 872.1582187500317,
      "v": 92
    },
    {
      "midi": 53,
      "hit": false,
      "t": 333817.8479999968,
      "d": 889.2036562500289,
      "v": 97
    },
    {
      "midi": 41,
      "hit": false,
      "t": 333817.8479999968,
      "d": 2198.8614374999306,
      "v": 88
    },
    {
      "midi": 48,
      "hit": false,
      "t": 334363.3019999968,
      "d": 499.99949999997625,
      "v": 66
    },
    {
      "midi": 57,
      "hit": false,
      "t": 334908.7559999968,
      "d": 505.6813124999753,
      "v": 94
    },
    {
      "midi": 53,
      "hit": false,
      "t": 334908.7559999968,
      "d": 596.5903124999604,
      "v": 98
    },
    {
      "midi": 48,
      "hit": false,
      "t": 335454.20999999676,
      "d": 522.7267499999725,
      "v": 72
    },
    {
      "midi": 52,
      "hit": false,
      "t": 335999.66399999673,
      "d": 886.3627499999711,
      "v": 89
    },
    {
      "midi": 55,
      "hit": false,
      "t": 335999.66399999673,
      "d": 897.7263749999693,
      "v": 80
    },
    {
      "midi": 36,
      "hit": false,
      "t": 335999.66399999673,
      "d": 1798.293656249938,
      "v": 97
    },
    {
      "midi": 48,
      "hit": false,
      "t": 336545.1179999967,
      "d": 437.4995624999865,
      "v": 50
    },
    {
      "midi": 52,
      "hit": false,
      "t": 337090.57199999667,
      "d": 946.0217812499614,
      "v": 92
    },
    {
      "midi": 55,
      "hit": false,
      "t": 337090.57199999667,
      "d": 951.7035937499604,
      "v": 84
    },
    {
      "midi": 48,
      "hit": false,
      "t": 337636.0259999967,
      "d": 528.4085624999134,
      "v": 65
    },
    {
      "midi": 36,
      "hit": false,
      "t": 337908.75299999665,
      "d": 156.2498437499744,
      "v": 71
    },
    {
      "midi": 36,
      "hit": false,
      "t": 338181.4799999966,
      "d": 420.4541249999893,
      "v": 79
    },
    {
      "midi": 55,
      "hit": false,
      "t": 338181.4799999966,
      "d": 664.7720624999492,
      "v": 82
    },
    {
      "midi": 52,
      "hit": false,
      "t": 338181.4799999966,
      "d": 678.9765937499469,
      "v": 81
    },
    {
      "midi": 48,
      "hit": false,
      "t": 338726.9339999966,
      "d": 485.7949687499786,
      "v": 57
    },
    {
      "midi": 36,
      "hit": false,
      "t": 338726.9339999966,
      "d": 843.7491562499781,
      "v": 78
    },
    {
      "midi": 55,
      "hit": false,
      "t": 339272.38799999654,
      "d": 485.7949687500368,
      "v": 88
    },
    {
      "midi": 52,
      "hit": false,
      "t": 339272.38799999654,
      "d": 539.7721875000279,
      "v": 93
    },
    {
      "midi": 48,
      "hit": false,
      "t": 339817.84199999657,
      "d": 82.3862812499865,
      "v": 67
    },
    {
      "midi": 48,
      "hit": false,
      "t": 340363.29599999654,
      "d": 284.09062500001164,
      "v": 112
    },
    {
      "midi": 36,
      "hit": false,
      "t": 340363.29599999654,
      "d": 315.3405937500065,
      "v": 100
    },
    {
      "midi": 40,
      "hit": false,
      "t": 340636.02299999655,
      "d": 249.99975000001723,
      "v": 95
    },
    {
      "midi": 52,
      "hit": false,
      "t": 340636.02299999655,
      "d": 275.56790625001304,
      "v": 95
    },
    {
      "midi": 55,
      "hit": false,
      "t": 340908.74999999657,
      "d": 301.13606250000885,
      "v": 111
    },
    {
      "midi": 43,
      "hit": false,
      "t": 340908.74999999657,
      "d": 318.18150000000605,
      "v": 89
    },
    {
      "midi": 52,
      "hit": false,
      "t": 341181.4769999966,
      "d": 249.99975000001723,
      "v": 95
    },
    {
      "midi": 40,
      "hit": false,
      "t": 341181.4769999966,
      "d": 267.04518750001444,
      "v": 81
    },
    {
      "midi": 50,
      "hit": false,
      "t": 341454.2039999966,
      "d": 275.56790625001304,
      "v": 100
    },
    {
      "midi": 38,
      "hit": false,
      "t": 341454.2039999966,
      "d": 306.8178750000079,
      "v": 87
    },
    {
      "midi": 42,
      "hit": false,
      "t": 341726.9309999966,
      "d": 215.90887500002282,
      "v": 88
    },
    {
      "midi": 54,
      "hit": false,
      "t": 341726.9309999966,
      "d": 281.2497187500121,
      "v": 92
    },
    {
      "midi": 57,
      "hit": false,
      "t": 341999.6579999966,
      "d": 312.499687500007,
      "v": 104
    },
    {
      "midi": 45,
      "hit": false,
      "t": 341999.6579999966,
      "d": 326.70421875000466,
      "v": 78
    },
    {
      "midi": 42,
      "hit": false,
      "t": 342272.38499999663,
      "d": 99.4317187499837,
      "v": 62
    },
    {
      "midi": 54,
      "hit": false,
      "t": 342272.38499999663,
      "d": 116.47715624998091,
      "v": 88
    },
    {
      "midi": 31,
      "hit": false,
      "t": 342545.1119999966,
      "d": 6545.447999999975,
      "v": 91
    },
    {
      "midi": 50,
      "hit": false,
      "t": 342545.1119999966,
      "d": 6545.447999999975,
      "v": 79
    },
    {
      "midi": 55,
      "hit": false,
      "t": 342545.1119999966,
      "d": 6545.447999999975,
      "v": 86
    },
    {
      "midi": 59,
      "hit": false,
      "t": 342545.1119999966,
      "d": 6545.447999999975,
      "v": 80
    }
  ]
}