{
  "jsonPath": "Jazz/Cool Jazz/Bill Evans Trio/rain-waltz.json",
  "path": "Jazz\\Cool Jazz\\Bill Evans Trio\\Rain Waltz.mid",
  "name": "Rain Waltz",
  "difficulty": "Advanced",
  "bpm": 106.99993580003851,
  "notes": [
    {
      "midi": 83,
      "hit": false,
      "t": 32.12618750000001,
      "d": 1696.8468125000002,
      "v": 66
    },
    {
      "midi": 60,
      "hit": false,
      "t": 45.268718750000005,
      "d": 652.7457187500002,
      "v": 42
    },
    {
      "midi": 71,
      "hit": false,
      "t": 45.268718750000005,
      "d": 1483.6457500000001,
      "v": 41
    },
    {
      "midi": 64,
      "hit": false,
      "t": 55.49068750000001,
      "d": 610.3975625,
      "v": 19
    },
    {
      "midi": 59,
      "hit": false,
      "t": 56.95096875000001,
      "d": 614.7784062500001,
      "v": 32
    },
    {
      "midi": 55,
      "hit": false,
      "t": 56.95096875000001,
      "d": 627.9209375000002,
      "v": 35
    },
    {
      "midi": 76,
      "hit": false,
      "t": 255.54921875000005,
      "d": 1306.95171875,
      "v": 1
    },
    {
      "midi": 64,
      "hit": false,
      "t": 1689.5454062500003,
      "d": 608.9372812499996,
      "v": 26
    },
    {
      "midi": 60,
      "hit": false,
      "t": 1712.9099062500002,
      "d": 551.9863124999999,
      "v": 34
    },
    {
      "midi": 59,
      "hit": false,
      "t": 1718.75103125,
      "d": 570.9699687499999,
      "v": 31
    },
    {
      "midi": 64,
      "hit": false,
      "t": 2651.87075,
      "d": 113.90193750000026,
      "v": 33
    },
    {
      "midi": 60,
      "hit": false,
      "t": 2654.7913125,
      "d": 115.36221875000047,
      "v": 43
    },
    {
      "midi": 59,
      "hit": false,
      "t": 2672.3146875,
      "d": 83.23603125,
      "v": 33
    },
    {
      "midi": 79,
      "hit": false,
      "t": 3041.7658437500004,
      "d": 75.93462499999987,
      "v": 53
    },
    {
      "midi": 81,
      "hit": false,
      "t": 3222.84071875,
      "d": 144.56784375000007,
      "v": 101
    },
    {
      "midi": 56,
      "hit": false,
      "t": 3417.0581250000005,
      "d": 1176.9866874999998,
      "v": 55
    },
    {
      "midi": 60,
      "hit": false,
      "t": 3427.2800937500006,
      "d": 1182.8278124999997,
      "v": 59
    },
    {
      "midi": 64,
      "hit": false,
      "t": 3430.2006562500005,
      "d": 1166.7647187500002,
      "v": 51
    },
    {
      "midi": 83,
      "hit": false,
      "t": 3433.1212187500005,
      "d": 394.27593750000005,
      "v": 94
    },
    {
      "midi": 86,
      "hit": false,
      "t": 4339.955875000001,
      "d": 500.87646874999973,
      "v": 110
    },
    {
      "midi": 85,
      "hit": false,
      "t": 4817.467843750001,
      "d": 80.31546875000004,
      "v": 46
    },
    {
      "midi": 84,
      "hit": false,
      "t": 4908.005281250001,
      "d": 122.66362500000014,
      "v": 61
    },
    {
      "midi": 60,
      "hit": false,
      "t": 5058.414250000001,
      "d": 495.0353437499998,
      "v": 41
    },
    {
      "midi": 64,
      "hit": false,
      "t": 5062.795093750001,
      "d": 528.6218124999996,
      "v": 25
    },
    {
      "midi": 83,
      "hit": false,
      "t": 5064.255375000001,
      "d": 714.07753125,
      "v": 49
    },
    {
      "midi": 56,
      "hit": false,
      "t": 5070.096500000001,
      "d": 508.1778750000003,
      "v": 32
    },
    {
      "midi": 56,
      "hit": false,
      "t": 5933.122718750001,
      "d": 312.5001874999998,
      "v": 33
    },
    {
      "midi": 64,
      "hit": false,
      "t": 5949.185812500001,
      "d": 319.8015937499995,
      "v": 24
    },
    {
      "midi": 55,
      "hit": false,
      "t": 6667.6441875,
      "d": 733.0611875000013,
      "v": 33
    },
    {
      "midi": 60,
      "hit": false,
      "t": 6698.310093749999,
      "d": 642.5237500000012,
      "v": 38
    },
    {
      "midi": 64,
      "hit": false,
      "t": 6712.91290625,
      "d": 662.9676875000014,
      "v": 25
    },
    {
      "midi": 55,
      "hit": false,
      "t": 7628.509250000001,
      "d": 397.1964999999991,
      "v": 43
    },
    {
      "midi": 60,
      "hit": false,
      "t": 7635.810656250001,
      "d": 429.3226874999991,
      "v": 39
    },
    {
      "midi": 64,
      "hit": false,
      "t": 7643.1120625,
      "d": 449.7666249999993,
      "v": 25
    },
    {
      "midi": 71,
      "hit": false,
      "t": 8038.84828125,
      "d": 172.31318750000082,
      "v": 94
    },
    {
      "midi": 69,
      "hit": false,
      "t": 8187.79696875,
      "d": 110.9813750000003,
      "v": 90
    },
    {
      "midi": 71,
      "hit": false,
      "t": 8377.63353125,
      "d": 1474.8840624999993,
      "v": 94
    },
    {
      "midi": 60,
      "hit": false,
      "t": 8392.236343749999,
      "d": 652.7457187499986,
      "v": 60
    },
    {
      "midi": 55,
      "hit": false,
      "t": 8393.696624999999,
      "d": 649.825156249999,
      "v": 65
    },
    {
      "midi": 64,
      "hit": false,
      "t": 8395.156906249998,
      "d": 641.0634687499987,
      "v": 54
    },
    {
      "midi": 55,
      "hit": false,
      "t": 9348.720562499997,
      "d": 386.97453125000175,
      "v": 24
    },
    {
      "midi": 60,
      "hit": false,
      "t": 9358.942531249997,
      "d": 325.6427187500012,
      "v": 31
    },
    {
      "midi": 64,
      "hit": false,
      "t": 9367.704218749997,
      "d": 232.18471875000068,
      "v": 18
    },
    {
      "midi": 67,
      "hit": false,
      "t": 9734.234812499999,
      "d": 103.67996875000063,
      "v": 47
    },
    {
      "midi": 69,
      "hit": false,
      "t": 9925.53165625,
      "d": 93.45800000000054,
      "v": 46
    },
    {
      "midi": 54,
      "hit": false,
      "t": 10135.81215625,
      "d": 744.7434374999993,
      "v": 46
    },
    {
      "midi": 71,
      "hit": false,
      "t": 10146.034125,
      "d": 1344.9190312499995,
      "v": 42
    },
    {
      "midi": 64,
      "hit": false,
      "t": 10147.49440625,
      "d": 763.7270937499998,
      "v": 60
    },
    {
      "midi": 60,
      "hit": false,
      "t": 10150.41496875,
      "d": 687.7924687499999,
      "v": 32
    },
    {
      "midi": 68,
      "hit": false,
      "t": 10154.795812499999,
      "d": 1344.9190312500014,
      "v": 47
    },
    {
      "midi": 76,
      "hit": false,
      "t": 11565.4275,
      "d": 311.03990624999824,
      "v": 40
    },
    {
      "midi": 71,
      "hit": false,
      "t": 11819.5164375,
      "d": 898.0729687499988,
      "v": 52
    },
    {
      "midi": 68,
      "hit": false,
      "t": 11844.34121875,
      "d": 877.6290312499987,
      "v": 25
    },
    {
      "midi": 54,
      "hit": false,
      "t": 11857.48375,
      "d": 1207.6525937499991,
      "v": 27
    },
    {
      "midi": 60,
      "hit": false,
      "t": 11858.94403125,
      "d": 1131.7179687499993,
      "v": 27
    },
    {
      "midi": 64,
      "hit": false,
      "t": 11861.864593749999,
      "d": 579.73165625,
      "v": 30
    },
    {
      "midi": 77,
      "hit": false,
      "t": 13249.131781249998,
      "d": 106.60053125000013,
      "v": 79
    },
    {
      "midi": 65,
      "hit": false,
      "t": 13528.045499999998,
      "d": 97.8388437499998,
      "v": 53
    },
    {
      "midi": 76,
      "hit": false,
      "t": 13528.045499999998,
      "d": 224.8833125000001,
      "v": 58
    },
    {
      "midi": 69,
      "hit": false,
      "t": 13539.727749999998,
      "d": 182.53515625,
      "v": 60
    },
    {
      "midi": 72,
      "hit": false,
      "t": 13539.727749999998,
      "d": 220.50246875000084,
      "v": 50
    },
    {
      "midi": 64,
      "hit": false,
      "t": 13557.251124999999,
      "d": 524.2409687500003,
      "v": 44
    },
    {
      "midi": 65,
      "hit": false,
      "t": 13732.484874999998,
      "d": 81.7757500000007,
      "v": 41
    },
    {
      "midi": 65,
      "hit": false,
      "t": 13929.62284375,
      "d": 86.15659374999996,
      "v": 37
    },
    {
      "midi": 69,
      "hit": false,
      "t": 14058.12759375,
      "d": 70.09349999999904,
      "v": 36
    },
    {
      "midi": 72,
      "hit": false,
      "t": 14080.0318125,
      "d": 65.71265624999978,
      "v": 20
    },
    {
      "midi": 65,
      "hit": false,
      "t": 14139.903343749998,
      "d": 87.61687500000153,
      "v": 37
    },
    {
      "midi": 69,
      "hit": false,
      "t": 14269.868375,
      "d": 62.79209375000028,
      "v": 38
    },
    {
      "midi": 72,
      "hit": false,
      "t": 14293.232875,
      "d": 59.87153125000077,
      "v": 19
    },
    {
      "midi": 65,
      "hit": false,
      "t": 14347.26328125,
      "d": 93.45800000000054,
      "v": 39
    },
    {
      "midi": 69,
      "hit": false,
      "t": 14471.3871875,
      "d": 71.55378124999879,
      "v": 44
    },
    {
      "midi": 76,
      "hit": false,
      "t": 14472.84746875,
      "d": 78.85518749999937,
      "v": 20
    },
    {
      "midi": 72,
      "hit": false,
      "t": 14484.52971875,
      "d": 77.39490624999962,
      "v": 27
    },
    {
      "midi": 65,
      "hit": false,
      "t": 14550.242375,
      "d": 94.91828125000029,
      "v": 46
    },
    {
      "midi": 69,
      "hit": false,
      "t": 14665.60459375,
      "d": 80.31546874999913,
      "v": 47
    },
    {
      "midi": 72,
      "hit": false,
      "t": 14690.429375,
      "d": 59.87153124999895,
      "v": 24
    },
    {
      "midi": 65,
      "hit": false,
      "t": 14745.9200625,
      "d": 91.99771875000079,
      "v": 46
    },
    {
      "midi": 69,
      "hit": false,
      "t": 14846.67946875,
      "d": 97.83884374999798,
      "v": 49
    },
    {
      "midi": 76,
      "hit": false,
      "t": 14852.520593750001,
      "d": 75.93462499999805,
      "v": 30
    },
    {
      "midi": 72,
      "hit": false,
      "t": 14868.5836875,
      "d": 77.3949062499978,
      "v": 32
    },
    {
      "midi": 65,
      "hit": false,
      "t": 14926.9949375,
      "d": 94.91828124999847,
      "v": 49
    },
    {
      "midi": 69,
      "hit": false,
      "t": 15020.452937499998,
      "d": 109.52109374999782,
      "v": 60
    },
    {
      "midi": 76,
      "hit": false,
      "t": 15024.833781249998,
      "d": 91.99771874999897,
      "v": 19
    },
    {
      "midi": 72,
      "hit": false,
      "t": 15036.516031249997,
      "d": 91.99771874999897,
      "v": 43
    },
    {
      "midi": 65,
      "hit": false,
      "t": 15102.228687499997,
      "d": 93.45799999999872,
      "v": 46
    },
    {
      "midi": 76,
      "hit": false,
      "t": 15178.163312499995,
      "d": 118.28278124999997,
      "v": 14
    },
    {
      "midi": 69,
      "hit": false,
      "t": 15197.146968749996,
      "d": 119.7430624999979,
      "v": 68
    },
    {
      "midi": 64,
      "hit": false,
      "t": 15205.908656249994,
      "d": 851.3439687499958,
      "v": 84
    },
    {
      "midi": 72,
      "hit": false,
      "t": 15213.210062499995,
      "d": 99.29912499999955,
      "v": 57
    },
    {
      "midi": 65,
      "hit": false,
      "t": 15283.303562499996,
      "d": 91.99771874999715,
      "v": 57
    },
    {
      "midi": 76,
      "hit": false,
      "t": 15386.983531249993,
      "d": 335.8646874999995,
      "v": 19
    },
    {
      "midi": 69,
      "hit": false,
      "t": 15388.443812499992,
      "d": 93.45800000000054,
      "v": 66
    },
    {
      "midi": 72,
      "hit": false,
      "t": 15398.665781249993,
      "d": 93.45800000000054,
      "v": 44
    },
    {
      "midi": 65,
      "hit": false,
      "t": 15468.759281249993,
      "d": 91.99771874999897,
      "v": 57
    },
    {
      "midi": 69,
      "hit": false,
      "t": 15573.899531249992,
      "d": 106.60053125000013,
      "v": 44
    },
    {
      "midi": 72,
      "hit": false,
      "t": 15581.200937499993,
      "d": 99.29912499999955,
      "v": 38
    },
    {
      "midi": 65,
      "hit": false,
      "t": 15657.135562499992,
      "d": 109.52109374999964,
      "v": 51
    },
    {
      "midi": 76,
      "hit": false,
      "t": 15775.418343749992,
      "d": 217.58190624999952,
      "v": 24
    },
    {
      "midi": 69,
      "hit": false,
      "t": 15803.163687499993,
      "d": 112.44165624999914,
      "v": 31
    },
    {
      "midi": 72,
      "hit": false,
      "t": 15813.385656249993,
      "d": 86.15659374999996,
      "v": 19
    },
    {
      "midi": 65,
      "hit": false,
      "t": 15934.588999999993,
      "d": 42.3481562500001,
      "v": 18
    },
    {
      "midi": 62,
      "hit": false,
      "t": 16051.411499999991,
      "d": 462.9091562499998,
      "v": 79
    },
    {
      "midi": 74,
      "hit": false,
      "t": 16055.79234374999,
      "d": 384.0539687500004,
      "v": 73
    },
    {
      "midi": 69,
      "hit": false,
      "t": 16060.17318749999,
      "d": 321.26187500000196,
      "v": 74
    },
    {
      "midi": 65,
      "hit": false,
      "t": 16060.17318749999,
      "d": 347.54693750000297,
      "v": 72
    },
    {
      "midi": 72,
      "hit": false,
      "t": 16079.15684374999,
      "d": 37.967312500000844,
      "v": 54
    },
    {
      "midi": 76,
      "hit": false,
      "t": 16543.52628124999,
      "d": 162.09121875000346,
      "v": 74
    },
    {
      "midi": 69,
      "hit": false,
      "t": 16544.98656249999,
      "d": 116.82250000000204,
      "v": 78
    },
    {
      "midi": 65,
      "hit": false,
      "t": 16547.90712499999,
      "d": 138.72671875000015,
      "v": 79
    },
    {
      "midi": 72,
      "hit": false,
      "t": 16552.28796874999,
      "d": 118.28278124999997,
      "v": 65
    },
    {
      "midi": 64,
      "hit": false,
      "t": 16559.589374999992,
      "d": 128.50475000000006,
      "v": 66
    },
    {
      "midi": 74,
      "hit": false,
      "t": 16574.192187499993,
      "d": 99.29912499999773,
      "v": 43
    },
    {
      "midi": 77,
      "hit": false,
      "t": 16929.040531249993,
      "d": 525.7012500000019,
      "v": 71
    },
    {
      "midi": 73,
      "hit": false,
      "t": 16933.421374999994,
      "d": 518.3998437500013,
      "v": 60
    },
    {
      "midi": 55,
      "hit": false,
      "t": 16937.802218749996,
      "d": 480.43253125000047,
      "v": 70
    },
    {
      "midi": 71,
      "hit": false,
      "t": 16939.262499999997,
      "d": 486.2736562499995,
      "v": 79
    },
    {
      "midi": 65,
      "hit": false,
      "t": 16940.72278125,
      "d": 468.7502812499988,
      "v": 82
    },
    {
      "midi": 53,
      "hit": false,
      "t": 17742.417187499996,
      "d": 392.81565625000803,
      "v": 36
    },
    {
      "midi": 79,
      "hit": false,
      "t": 17743.877468749997,
      "d": 318.3413125000043,
      "v": 58
    },
    {
      "midi": 67,
      "hit": false,
      "t": 17748.2583125,
      "d": 306.6590625000026,
      "v": 55
    },
    {
      "midi": 64,
      "hit": false,
      "t": 17755.55971875,
      "d": 311.0399062500037,
      "v": 29
    },
    {
      "midi": 59,
      "hit": false,
      "t": 17758.48028125,
      "d": 292.05625000000146,
      "v": 38
    },
    {
      "midi": 74,
      "hit": false,
      "t": 17759.9405625,
      "d": 324.1824375000033,
      "v": 50
    },
    {
      "midi": 59,
      "hit": false,
      "t": 18478.398937500006,
      "d": 963.7856250000041,
      "v": 38
    },
    {
      "midi": 80,
      "hit": false,
      "t": 18479.859218750007,
      "d": 892.2318437500035,
      "v": 37
    },
    {
      "midi": 53,
      "hit": false,
      "t": 18481.31950000001,
      "d": 1004.6735000000008,
      "v": 44
    },
    {
      "midi": 68,
      "hit": false,
      "t": 18482.77978125001,
      "d": 969.6267499999994,
      "v": 34
    },
    {
      "midi": 75,
      "hit": false,
      "t": 18484.240062500012,
      "d": 962.3253437499989,
      "v": 43
    },
    {
      "midi": 63,
      "hit": false,
      "t": 18490.08118750001,
      "d": 982.769281249999,
      "v": 34
    },
    {
      "midi": 79,
      "hit": false,
      "t": 19960.58440625001,
      "d": 81.7757500000007,
      "v": 57
    },
    {
      "midi": 76,
      "hit": false,
      "t": 20227.81587500001,
      "d": 883.4701562499977,
      "v": 54
    },
    {
      "midi": 64,
      "hit": false,
      "t": 20243.87896875001,
      "d": 514.0190000000002,
      "v": 35
    },
    {
      "midi": 52,
      "hit": false,
      "t": 20673.20165625001,
      "d": 3002.3382499999934,
      "v": 30
    },
    {
      "midi": 71,
      "hit": false,
      "t": 21087.92153125001,
      "d": 192.7571250000001,
      "v": 34
    },
    {
      "midi": 65,
      "hit": false,
      "t": 21115.66687500001,
      "d": 102.21968750000087,
      "v": 42
    },
    {
      "midi": 69,
      "hit": false,
      "t": 21115.66687500001,
      "d": 128.50475000000006,
      "v": 49
    },
    {
      "midi": 64,
      "hit": false,
      "t": 21153.63418750001,
      "d": 570.969968749996,
      "v": 25
    },
    {
      "midi": 88,
      "hit": false,
      "t": 21492.419437500008,
      "d": 325.6427187499976,
      "v": 59
    },
    {
      "midi": 77,
      "hit": false,
      "t": 21880.854250000004,
      "d": 70.09349999999904,
      "v": 38
    },
    {
      "midi": 83,
      "hit": false,
      "t": 21896.917343750003,
      "d": 80.31546874999913,
      "v": 36
    },
    {
      "midi": 81,
      "hit": false,
      "t": 21902.758468750002,
      "d": 55.49068750000151,
      "v": 36
    },
    {
      "midi": 100,
      "hit": false,
      "t": 22256.14653125,
      "d": 67.17293749999953,
      "v": 54
    },
    {
      "midi": 64,
      "hit": false,
      "t": 23018.41334375,
      "d": 146.02812500000073,
      "v": 17
    },
    {
      "midi": 76,
      "hit": false,
      "t": 23393.705625,
      "d": 205.89965625000332,
      "v": 53
    },
    {
      "midi": 70,
      "hit": false,
      "t": 23406.84815625,
      "d": 151.86925000000338,
      "v": 36
    },
    {
      "midi": 68,
      "hit": false,
      "t": 23422.911249999997,
      "d": 121.20334375000311,
      "v": 34
    },
    {
      "midi": 65,
      "hit": false,
      "t": 23424.37153125,
      "d": 103.67996875000244,
      "v": 40
    },
    {
      "midi": 64,
      "hit": false,
      "t": 23427.29209375,
      "d": 493.5750625000037,
      "v": 31
    },
    {
      "midi": 88,
      "hit": false,
      "t": 23767.537625000004,
      "d": 59.87153124999895,
      "v": 61
    },
    {
      "midi": 64,
      "hit": false,
      "t": 24215.843968750003,
      "d": 65.7126562500016,
      "v": 24
    },
    {
      "midi": 70,
      "hit": false,
      "t": 24627.643281250006,
      "d": 322.72215625000536,
      "v": 25
    },
    {
      "midi": 65,
      "hit": false,
      "t": 24634.944687500007,
      "d": 265.77118750000227,
      "v": 24
    },
    {
      "midi": 68,
      "hit": false,
      "t": 24642.246093750007,
      "d": 300.8179375000036,
      "v": 23
    },
    {
      "midi": 64,
      "hit": false,
      "t": 24667.07087500001,
      "d": 261.3903437500012,
      "v": 19
    },
    {
      "midi": 73,
      "hit": false,
      "t": 25627.935937500013,
      "d": 286.21512499999517,
      "v": 81
    },
    {
      "midi": 49,
      "hit": false,
      "t": 25630.856500000013,
      "d": 378.21284374999595,
      "v": 71
    },
    {
      "midi": 53,
      "hit": false,
      "t": 26029.51328125001,
      "d": 311.03990625000006,
      "v": 66
    },
    {
      "midi": 77,
      "hit": false,
      "t": 26038.274968750007,
      "d": 321.26187500000015,
      "v": 87
    },
    {
      "midi": 72,
      "hit": false,
      "t": 26415.02753125001,
      "d": 315.42075000000114,
      "v": 80
    },
    {
      "midi": 48,
      "hit": false,
      "t": 26417.94809375001,
      "d": 40.88787500000035,
      "v": 35
    },
    {
      "midi": 71,
      "hit": false,
      "t": 26891.079218750012,
      "d": 899.5332500000077,
      "v": 55
    },
    {
      "midi": 64,
      "hit": false,
      "t": 26905.682031250013,
      "d": 712.6172500000066,
      "v": 28
    },
    {
      "midi": 60,
      "hit": false,
      "t": 26920.284843750014,
      "d": 693.6335937500044,
      "v": 40
    },
    {
      "midi": 55,
      "hit": false,
      "t": 26929.046531250013,
      "d": 627.9209375000028,
      "v": 30
    },
    {
      "midi": 59,
      "hit": false,
      "t": 26933.427375000014,
      "d": 625.0003750000033,
      "v": 37
    },
    {
      "midi": 69,
      "hit": false,
      "t": 27832.960625000018,
      "d": 71.55378125000061,
      "v": 45
    },
    {
      "midi": 60,
      "hit": false,
      "t": 27843.182593750018,
      "d": 62.792093750002095,
      "v": 32
    },
    {
      "midi": 64,
      "hit": false,
      "t": 28101.65237500002,
      "d": 94.91828125000393,
      "v": 37
    },
    {
      "midi": 71,
      "hit": false,
      "t": 28103.11265625002,
      "d": 67.17293750000317,
      "v": 66
    },
    {
      "midi": 56,
      "hit": false,
      "t": 28113.33462500002,
      "d": 93.45800000000236,
      "v": 43
    },
    {
      "midi": 60,
      "hit": false,
      "t": 28114.794906250023,
      "d": 75.93462500000169,
      "v": 30
    },
    {
      "midi": 56,
      "hit": false,
      "t": 28465.262406250025,
      "d": 1039.7202500000058,
      "v": 35
    },
    {
      "midi": 71,
      "hit": false,
      "t": 28466.722687500027,
      "d": 1436.9167500000076,
      "v": 54
    },
    {
      "midi": 64,
      "hit": false,
      "t": 28475.484375000025,
      "d": 1025.1174375000046,
      "v": 24
    },
    {
      "midi": 60,
      "hit": false,
      "t": 28487.166625000027,
      "d": 988.6104062500017,
      "v": 33
    },
    {
      "midi": 67,
      "hit": false,
      "t": 29902.179156250033,
      "d": 90.53743750000285,
      "v": 48
    },
    {
      "midi": 69,
      "hit": false,
      "t": 30096.396562500035,
      "d": 108.06081249999988,
      "v": 80
    },
    {
      "midi": 63,
      "hit": false,
      "t": 30289.153687500035,
      "d": 1117.115156249998,
      "v": 51
    },
    {
      "midi": 71,
      "hit": false,
      "t": 30289.153687500035,
      "d": 1458.8209687499984,
      "v": 99
    },
    {
      "midi": 62,
      "hit": false,
      "t": 30293.534531250036,
      "d": 1013.4351874999993,
      "v": 48
    },
    {
      "midi": 67,
      "hit": false,
      "t": 30294.994812500037,
      "d": 1003.2132187499992,
      "v": 62
    },
    {
      "midi": 57,
      "hit": false,
      "t": 30302.296218750038,
      "d": 1074.7669999999962,
      "v": 56
    },
    {
      "midi": 74,
      "hit": false,
      "t": 31774.259718750032,
      "d": 674.6499374999985,
      "v": 69
    },
    {
      "midi": 71,
      "hit": false,
      "t": 32853.40756250003,
      "d": 578.2713750000185,
      "v": 35
    },
    {
      "midi": 51,
      "hit": false,
      "t": 32875.311781250035,
      "d": 394.2759375000096,
      "v": 33
    },
    {
      "midi": 62,
      "hit": false,
      "t": 32876.77206250004,
      "d": 601.6358750000145,
      "v": 31
    },
    {
      "midi": 67,
      "hit": false,
      "t": 32884.07346875004,
      "d": 505.25731250001263,
      "v": 46
    },
    {
      "midi": 57,
      "hit": false,
      "t": 32905.97768750004,
      "d": 407.4184687500092,
      "v": 33
    },
    {
      "midi": 71,
      "hit": false,
      "t": 33999.72834375005,
      "d": 84.69631250000384,
      "v": 58
    },
    {
      "midi": 64,
      "hit": false,
      "t": 34001.18862500005,
      "d": 52.57012499999837,
      "v": 55
    },
    {
      "midi": 60,
      "hit": false,
      "t": 34004.10918750006,
      "d": 37.967312499997206,
      "v": 60
    },
    {
      "midi": 50,
      "hit": false,
      "t": 34011.41059375006,
      "d": 2390.480406249997,
      "v": 44
    },
    {
      "midi": 59,
      "hit": false,
      "t": 34012.87087500006,
      "d": 43.80843749999622,
      "v": 53
    },
    {
      "midi": 67,
      "hit": false,
      "t": 34017.251718750056,
      "d": 37.967312499997206,
      "v": 47
    },
    {
      "midi": 57,
      "hit": false,
      "t": 34196.86631250005,
      "d": 108.06081249999988,
      "v": 35
    },
    {
      "midi": 71,
      "hit": false,
      "t": 34350.19584375005,
      "d": 144.56784374999552,
      "v": 60
    },
    {
      "midi": 60,
      "hit": false,
      "t": 34358.95753125005,
      "d": 77.39490624999598,
      "v": 54
    },
    {
      "midi": 64,
      "hit": false,
      "t": 34370.63978125005,
      "d": 74.47434375000012,
      "v": 41
    },
    {
      "midi": 67,
      "hit": false,
      "t": 34385.24259375005,
      "d": 65.71265624999796,
      "v": 40
    },
    {
      "midi": 59,
      "hit": false,
      "t": 34389.62343750005,
      "d": 100.7594062499993,
      "v": 37
    },
    {
      "midi": 57,
      "hit": false,
      "t": 34608.665625000045,
      "d": 58.41124999999738,
      "v": 24
    },
    {
      "midi": 71,
      "hit": false,
      "t": 34718.18671875004,
      "d": 1324.475093750014,
      "v": 32
    },
    {
      "midi": 67,
      "hit": false,
      "t": 34738.63065625004,
      "d": 1247.0801875000107,
      "v": 43
    },
    {
      "midi": 64,
      "hit": false,
      "t": 34741.55121875004,
      "d": 1219.33484375001,
      "v": 44
    },
    {
      "midi": 60,
      "hit": false,
      "t": 34743.011500000044,
      "d": 1156.5427500000078,
      "v": 31
    },
    {
      "midi": 59,
      "hit": false,
      "t": 34756.154031250044,
      "d": 538.8437812500051,
      "v": 34
    },
    {
      "midi": 59,
      "hit": false,
      "t": 35736.00275000005,
      "d": 654.2060000000056,
      "v": 36
    },
    {
      "midi": 71,
      "hit": false,
      "t": 36241.260062500056,
      "d": 303.7384999999995,
      "v": 91
    },
    {
      "midi": 67,
      "hit": false,
      "t": 36655.97993750006,
      "d": 93.45799999999872,
      "v": 69
    },
    {
      "midi": 69,
      "hit": false,
      "t": 36810.76975000006,
      "d": 87.61687499999971,
      "v": 64
    },
    {
      "midi": 71,
      "hit": false,
      "t": 37327.70931250006,
      "d": 330.02356249999866,
      "v": 1
    },
    {
      "midi": 68,
      "hit": false,
      "t": 37342.31212500006,
      "d": 296.4370937499989,
      "v": 56
    },
    {
      "midi": 64,
      "hit": false,
      "t": 37353.99437500006,
      "d": 242.40668749999895,
      "v": 62
    },
    {
      "midi": 50,
      "hit": false,
      "t": 37359.83550000006,
      "d": 788.5518749999974,
      "v": 44
    },
    {
      "midi": 60,
      "hit": false,
      "t": 37361.29578125006,
      "d": 236.56556249999994,
      "v": 58
    },
    {
      "midi": 56,
      "hit": false,
      "t": 37371.51775000006,
      "d": 670.269093750001,
      "v": 46
    },
    {
      "midi": 76,
      "hit": false,
      "t": 37873.85450000006,
      "d": 178.15431249999529,
      "v": 68
    },
    {
      "midi": 71,
      "hit": false,
      "t": 38722.277906250056,
      "d": 690.7130312500085,
      "v": 48
    },
    {
      "midi": 68,
      "hit": false,
      "t": 38723.73818750006,
      "d": 664.4279687500093,
      "v": 33
    },
    {
      "midi": 64,
      "hit": false,
      "t": 38726.65875000006,
      "d": 543.2246250000026,
      "v": 35
    },
    {
      "midi": 50,
      "hit": false,
      "t": 38741.26156250006,
      "d": 606.0167187500047,
      "v": 33
    },
    {
      "midi": 56,
      "hit": false,
      "t": 38764.626062500065,
      "d": 570.9699687500033,
      "v": 25
    },
    {
      "midi": 60,
      "hit": false,
      "t": 38776.30831250006,
      "d": 543.2246250000026,
      "v": 26
    },
    {
      "midi": 50,
      "hit": false,
      "t": 39632.03312500007,
      "d": 54.03040624999994,
      "v": 31
    },
    {
      "midi": 56,
      "hit": false,
      "t": 39632.03312500007,
      "d": 93.45799999999872,
      "v": 33
    },
    {
      "midi": 60,
      "hit": false,
      "t": 39649.556500000064,
      "d": 65.71265625000524,
      "v": 29
    },
    {
      "midi": 89,
      "hit": false,
      "t": 40135.830156250064,
      "d": 113.9019374999989,
      "v": 63
    },
    {
      "midi": 77,
      "hit": false,
      "t": 40170.876906250065,
      "d": 108.06081249999988,
      "v": 40
    },
    {
      "midi": 88,
      "hit": false,
      "t": 40424.96584375006,
      "d": 579.7316562499982,
      "v": 53
    },
    {
      "midi": 76,
      "hit": false,
      "t": 40446.870062500064,
      "d": 454.1474687500013,
      "v": 33
    },
    {
      "midi": 65,
      "hit": false,
      "t": 40448.330343750065,
      "d": 471.6708437499983,
      "v": 29
    },
    {
      "midi": 55,
      "hit": false,
      "t": 40449.79062500007,
      "d": 480.4325312499932,
      "v": 19
    },
    {
      "midi": 60,
      "hit": false,
      "t": 40451.25090625007,
      "d": 464.36943749999773,
      "v": 36
    },
    {
      "midi": 57,
      "hit": false,
      "t": 40455.631750000066,
      "d": 476.05168749999575,
      "v": 33
    },
    {
      "midi": 88,
      "hit": false,
      "t": 41276.30981250006,
      "d": 839.6617187500015,
      "v": 53
    },
    {
      "midi": 55,
      "hit": false,
      "t": 41298.21403125006,
      "d": 538.8437812500051,
      "v": 28
    },
    {
      "midi": 60,
      "hit": false,
      "t": 41306.975718750065,
      "d": 500.87646875000064,
      "v": 42
    },
    {
      "midi": 65,
      "hit": false,
      "t": 41312.816843750064,
      "d": 503.7970312500038,
      "v": 20
    },
    {
      "midi": 76,
      "hit": false,
      "t": 41312.816843750064,
      "d": 798.7738437500011,
      "v": 25
    },
    {
      "midi": 57,
      "hit": false,
      "t": 41315.73740625007,
      "d": 502.3367500000022,
      "v": 33
    },
    {
      "midi": 55,
      "hit": false,
      "t": 42584.721812500065,
      "d": 549.0657500000161,
      "v": 75
    },
    {
      "midi": 86,
      "hit": false,
      "t": 42586.18209375007,
      "d": 432.2432500000141,
      "v": 89
    },
    {
      "midi": 81,
      "hit": false,
      "t": 42587.64237500007,
      "d": 432.2432500000141,
      "v": 81
    },
    {
      "midi": 74,
      "hit": false,
      "t": 42589.10265625007,
      "d": 392.81565625000803,
      "v": 82
    },
    {
      "midi": 57,
      "hit": false,
      "t": 42592.02321875007,
      "d": 492.11478125000576,
      "v": 65
    },
    {
      "midi": 65,
      "hit": false,
      "t": 42593.483500000075,
      "d": 477.5119687500046,
      "v": 71
    },
    {
      "midi": 60,
      "hit": false,
      "t": 42594.94378125008,
      "d": 455.60775000000285,
      "v": 65
    },
    {
      "midi": 65,
      "hit": false,
      "t": 43392.25734375008,
      "d": 52.570125000005646,
      "v": 51
    },
    {
      "midi": 60,
      "hit": false,
      "t": 43393.717625000085,
      "d": 90.53743750000285,
      "v": 58
    },
    {
      "midi": 55,
      "hit": false,
      "t": 43393.717625000085,
      "d": 109.52109375000146,
      "v": 60
    },
    {
      "midi": 88,
      "hit": false,
      "t": 43396.63818750009,
      "d": 144.56784374999552,
      "v": 80
    },
    {
      "midi": 76,
      "hit": false,
      "t": 43402.47931250009,
      "d": 90.53743750000285,
      "v": 68
    },
    {
      "midi": 89,
      "hit": false,
      "t": 43855.16650000009,
      "d": 496.4956250000032,
      "v": 72
    },
    {
      "midi": 77,
      "hit": false,
      "t": 43856.62678125009,
      "d": 457.06803124999715,
      "v": 66
    },
    {
      "midi": 63,
      "hit": false,
      "t": 43859.54734375009,
      "d": 445.38578124999185,
      "v": 59
    },
    {
      "midi": 83,
      "hit": false,
      "t": 43865.38846875009,
      "d": 451.22690624999814,
      "v": 66
    },
    {
      "midi": 59,
      "hit": false,
      "t": 43869.76931250009,
      "d": 430.78296874999796,
      "v": 62
    },
    {
      "midi": 53,
      "hit": false,
      "t": 43869.76931250009,
      "d": 448.30634375000227,
      "v": 54
    },
    {
      "midi": 91,
      "hit": false,
      "t": 44678.76512500009,
      "d": 251.16837500000838,
      "v": 68
    },
    {
      "midi": 63,
      "hit": false,
      "t": 44687.526812500095,
      "d": 235.10528125000565,
      "v": 45
    },
    {
      "midi": 59,
      "hit": false,
      "t": 44687.526812500095,
      "d": 243.8669687500078,
      "v": 50
    },
    {
      "midi": 53,
      "hit": false,
      "t": 44690.4473750001,
      "d": 236.56556249999994,
      "v": 45
    },
    {
      "midi": 79,
      "hit": false,
      "t": 44691.9076562501,
      "d": 277.4534375000003,
      "v": 49
    },
    {
      "midi": 59,
      "hit": false,
      "t": 45427.8894062501,
      "d": 429.32268750001094,
      "v": 35
    },
    {
      "midi": 63,
      "hit": false,
      "t": 45430.8099687501,
      "d": 366.53059375000885,
      "v": 30
    },
    {
      "midi": 53,
      "hit": false,
      "t": 45432.2702500001,
      "d": 490.6545000000042,
      "v": 45
    },
    {
      "midi": 92,
      "hit": false,
      "t": 45439.571656250104,
      "d": 439.5446562500074,
      "v": 62
    },
    {
      "midi": 80,
      "hit": false,
      "t": 45448.333343750106,
      "d": 457.0680312500044,
      "v": 38
    },
    {
      "midi": 87,
      "hit": false,
      "t": 45464.39643750011,
      "d": 441.0049375000017,
      "v": 35
    },
    {
      "midi": 91,
      "hit": false,
      "t": 46301.13759375011,
      "d": 105.14025000000402,
      "v": 36
    },
    {
      "midi": 79,
      "hit": false,
      "t": 46306.978718750106,
      "d": 186.91600000000471,
      "v": 29
    },
    {
      "midi": 86,
      "hit": false,
      "t": 46320.121250000106,
      "d": 96.37856250000186,
      "v": 48
    },
    {
      "midi": 53,
      "hit": false,
      "t": 46320.121250000106,
      "d": 151.86925000000338,
      "v": 30
    },
    {
      "midi": 59,
      "hit": false,
      "t": 46323.04181250011,
      "d": 62.792093750002095,
      "v": 31
    },
    {
      "midi": 63,
      "hit": false,
      "t": 46324.50209375011,
      "d": 93.45799999999872,
      "v": 25
    },
    {
      "midi": 48,
      "hit": false,
      "t": 47054.64271875011,
      "d": 560.7479999999923,
      "v": 34
    },
    {
      "midi": 64,
      "hit": false,
      "t": 47061.94412500011,
      "d": 216.1216249999925,
      "v": 37
    },
    {
      "midi": 59,
      "hit": false,
      "t": 47067.78525000011,
      "d": 163.55149999999412,
      "v": 28
    },
    {
      "midi": 55,
      "hit": false,
      "t": 47080.92778125011,
      "d": 530.0820937499957,
      "v": 37
    },
    {
      "midi": 71,
      "hit": false,
      "t": 47662.1197187501,
      "d": 97.83884375000343,
      "v": 37
    },
    {
      "midi": 76,
      "hit": false,
      "t": 47846.1151562501,
      "d": 99.29912499999773,
      "v": 66
    },
    {
      "midi": 78,
      "hit": false,
      "t": 48016.9680625001,
      "d": 147.48840624999866,
      "v": 76
    },
    {
      "midi": 81,
      "hit": false,
      "t": 48200.9635000001,
      "d": 192.75712499999645,
      "v": 68
    },
    {
      "midi": 78,
      "hit": false,
      "t": 48396.6411875001,
      "d": 125.58418749999691,
      "v": 31
    },
    {
      "midi": 76,
      "hit": false,
      "t": 48604.0011250001,
      "d": 108.06081249999988,
      "v": 35
    },
    {
      "midi": 71,
      "hit": false,
      "t": 48786.5362812501,
      "d": 110.98137500000303,
      "v": 40
    },
    {
      "midi": 66,
      "hit": false,
      "t": 49702.1326250001,
      "d": 514.0190000000002,
      "v": 27
    },
    {
      "midi": 59,
      "hit": false,
      "t": 49715.2751562501,
      "d": 363.6100312500057,
      "v": 25
    },
    {
      "midi": 64,
      "hit": false,
      "t": 49716.7354375001,
      "d": 461.44887500000186,
      "v": 35
    },
    {
      "midi": 55,
      "hit": false,
      "t": 49737.1793750001,
      "d": 569.5096875000017,
      "v": 20
    },
    {
      "midi": 48,
      "hit": false,
      "t": 50413.2895937501,
      "d": 39.42759374999878,
      "v": 30
    },
    {
      "midi": 72,
      "hit": false,
      "t": 51060.1941875001,
      "d": 230.7244375000082,
      "v": 75
    },
    {
      "midi": 69,
      "hit": false,
      "t": 51066.0353125001,
      "d": 270.152031250007,
      "v": 79
    },
    {
      "midi": 62,
      "hit": false,
      "t": 51068.9558750001,
      "d": 192.75712500000373,
      "v": 57
    },
    {
      "midi": 65,
      "hit": false,
      "t": 51071.876437500105,
      "d": 236.56556249999994,
      "v": 78
    },
    {
      "midi": 60,
      "hit": false,
      "t": 51073.336718750106,
      "d": 194.21740624999802,
      "v": 51
    },
    {
      "midi": 58,
      "hit": false,
      "t": 51077.717562500104,
      "d": 268.69174999999814,
      "v": 39
    },
    {
      "midi": 61,
      "hit": false,
      "t": 51629.7038750001,
      "d": 165.01178125000297,
      "v": 69
    },
    {
      "midi": 73,
      "hit": false,
      "t": 51629.7038750001,
      "d": 328.5632812499971,
      "v": 67
    },
    {
      "midi": 66,
      "hit": false,
      "t": 51638.4655625001,
      "d": 160.63093749999825,
      "v": 78
    },
    {
      "midi": 69,
      "hit": false,
      "t": 51639.925843750105,
      "d": 179.61459374999686,
      "v": 74
    },
    {
      "midi": 59,
      "hit": false,
      "t": 51650.1478125001,
      "d": 108.06081249999988,
      "v": 55
    },
    {
      "midi": 57,
      "hit": false,
      "t": 51658.9095000001,
      "d": 146.0281249999971,
      "v": 46
    },
    {
      "midi": 76,
      "hit": false,
      "t": 52171.468218750095,
      "d": 252.62865625000268,
      "v": 71
    },
    {
      "midi": 69,
      "hit": false,
      "t": 52174.3887812501,
      "d": 204.43937500000175,
      "v": 65
    },
    {
      "midi": 72,
      "hit": false,
      "t": 52180.2299062501,
      "d": 223.42303125000035,
      "v": 45
    },
    {
      "midi": 64,
      "hit": false,
      "t": 52181.6901875001,
      "d": 181.07487499999843,
      "v": 66
    },
    {
      "midi": 53,
      "hit": false,
      "t": 52181.6901875001,
      "d": 194.21740624999802,
      "v": 60
    },
    {
      "midi": 60,
      "hit": false,
      "t": 52191.912156250095,
      "d": 135.80615625000064,
      "v": 58
    },
    {
      "midi": 62,
      "hit": false,
      "t": 52716.1531250001,
      "d": 213.2010625000039,
      "v": 55
    },
    {
      "midi": 52,
      "hit": false,
      "t": 52717.6134062501,
      "d": 115.36221875000774,
      "v": 51
    },
    {
      "midi": 56,
      "hit": false,
      "t": 52726.3750937501,
      "d": 157.7103750000024,
      "v": 38
    },
    {
      "midi": 79,
      "hit": false,
      "t": 52729.295656250106,
      "d": 167.93234374999884,
      "v": 71
    },
    {
      "midi": 74,
      "hit": false,
      "t": 52730.75593750011,
      "d": 160.63093749999825,
      "v": 68
    },
    {
      "midi": 67,
      "hit": false,
      "t": 52733.67650000011,
      "d": 118.28278124999633,
      "v": 72
    },
    {
      "midi": 84,
      "hit": false,
      "t": 53266.6791562501,
      "d": 257.0095000000074,
      "v": 81
    },
    {
      "midi": 61,
      "hit": false,
      "t": 53268.139437500104,
      "d": 313.9604687500105,
      "v": 71
    },
    {
      "midi": 77,
      "hit": false,
      "t": 53269.599718750105,
      "d": 294.9768125000046,
      "v": 68
    },
    {
      "midi": 72,
      "hit": false,
      "t": 53271.06000000011,
      "d": 294.9768125000046,
      "v": 74
    },
    {
      "midi": 65,
      "hit": false,
      "t": 53275.440843750104,
      "d": 245.3272500000021,
      "v": 70
    },
    {
      "midi": 81,
      "hit": false,
      "t": 53275.440843750104,
      "d": 254.08893750000425,
      "v": 63
    },
    {
      "midi": 55,
      "hit": false,
      "t": 53276.901125000106,
      "d": 245.3272500000021,
      "v": 73
    },
    {
      "midi": 64,
      "hit": false,
      "t": 53837.64912500011,
      "d": 660.0471250000119,
      "v": 53
    },
    {
      "midi": 55,
      "hit": false,
      "t": 53840.569687500116,
      "d": 630.8415000000095,
      "v": 52
    },
    {
      "midi": 83,
      "hit": false,
      "t": 53840.569687500116,
      "d": 677.5705000000089,
      "v": 71
    },
    {
      "midi": 57,
      "hit": false,
      "t": 53846.410812500115,
      "d": 677.5705000000089,
      "v": 53
    },
    {
      "midi": 60,
      "hit": false,
      "t": 53847.87109375012,
      "d": 573.8905312500065,
      "v": 54
    },
    {
      "midi": 71,
      "hit": false,
      "t": 53849.33137500012,
      "d": 664.4279687500093,
      "v": 71
    },
    {
      "midi": 79,
      "hit": false,
      "t": 53852.25193750012,
      "d": 689.2527499999997,
      "v": 48
    },
    {
      "midi": 76,
      "hit": false,
      "t": 53852.25193750012,
      "d": 722.8392187499994,
      "v": 62
    },
    {
      "midi": 81,
      "hit": false,
      "t": 54691.91365625012,
      "d": 185.45571874999587,
      "v": 51
    },
    {
      "midi": 69,
      "hit": false,
      "t": 54713.817875000124,
      "d": 127.04446874999849,
      "v": 35
    },
    {
      "midi": 76,
      "hit": false,
      "t": 54722.57956250013,
      "d": 131.42531249999593,
      "v": 37
    },
    {
      "midi": 55,
      "hit": false,
      "t": 54726.960406250124,
      "d": 143.10756249999395,
      "v": 27
    },
    {
      "midi": 60,
      "hit": false,
      "t": 54741.563218750125,
      "d": 124.12390624999534,
      "v": 30
    },
    {
      "midi": 57,
      "hit": false,
      "t": 54745.94406250012,
      "d": 131.42531249999593,
      "v": 30
    },
    {
      "midi": 64,
      "hit": false,
      "t": 54748.864625000126,
      "d": 129.96503124999435,
      "v": 17
    },
    {
      "midi": 83,
      "hit": false,
      "t": 55081.80875000012,
      "d": 2578.8566874999815,
      "v": 44
    },
    {
      "midi": 71,
      "hit": false,
      "t": 55086.18959375012,
      "d": 2575.9361249999856,
      "v": 35
    },
    {
      "midi": 79,
      "hit": false,
      "t": 55090.570437500115,
      "d": 2567.1744374999835,
      "v": 30
    },
    {
      "midi": 55,
      "hit": false,
      "t": 55097.871843750116,
      "d": 449.7666249999893,
      "v": 30
    },
    {
      "midi": 76,
      "hit": false,
      "t": 55103.712968750115,
      "d": 2606.6020312499895,
      "v": 40
    },
    {
      "midi": 57,
      "hit": false,
      "t": 55113.93493750011,
      "d": 448.306343749995,
      "v": 32
    },
    {
      "midi": 60,
      "hit": false,
      "t": 55115.39521875011,
      "d": 405.9581874999931,
      "v": 34
    },
    {
      "midi": 64,
      "hit": false,
      "t": 55119.77606250011,
      "d": 419.10071874999267,
      "v": 20
    },
    {
      "midi": 60,
      "hit": false,
      "t": 55984.26256250011,
      "d": 86.15659374999086,
      "v": 42
    },
    {
      "midi": 64,
      "hit": false,
      "t": 55997.40509375011,
      "d": 62.79209374999482,
      "v": 29
    },
    {
      "midi": 59,
      "hit": false,
      "t": 56001.785937500106,
      "d": 54.03040624999994,
      "v": 32
    },
    {
      "midi": 60,
      "hit": false,
      "t": 56539.1694375001,
      "d": 163.5515000000014,
      "v": 36
    },
    {
      "midi": 64,
      "hit": false,
      "t": 56543.5502812501,
      "d": 106.60053125000559,
      "v": 25
    },
    {
      "midi": 59,
      "hit": false,
      "t": 56559.6133750001,
      "d": 156.25009375000081,
      "v": 24
    },
    {
      "midi": 60,
      "hit": false,
      "t": 57143.7258750001,
      "d": 476.05168749999575,
      "v": 29
    },
    {
      "midi": 64,
      "hit": false,
      "t": 57149.5670000001,
      "d": 459.9885937500003,
      "v": 18
    },
    {
      "midi": 59,
      "hit": false,
      "t": 57159.788968750094,
      "d": 461.44887500000186,
      "v": 27
    },
    {
      "midi": 55,
      "hit": false,
      "t": 57167.090375000094,
      "d": 439.5446562500001,
      "v": 32
    },
    {
      "midi": 81,
      "hit": false,
      "t": 58015.513781250105,
      "d": 159.17065625001123,
      "v": 72
    },
    {
      "midi": 76,
      "hit": false,
      "t": 58022.815187500106,
      "d": 128.50475000000733,
      "v": 66
    },
    {
      "midi": 69,
      "hit": false,
      "t": 58025.73575000011,
      "d": 172.31318750001083,
      "v": 66
    },
    {
      "midi": 64,
      "hit": false,
      "t": 58038.87828125011,
      "d": 84.69631250000384,
      "v": 37
    },
    {
      "midi": 60,
      "hit": false,
      "t": 58054.94137500011,
      "d": 99.299125000005,
      "v": 34
    },
    {
      "midi": 55,
      "hit": false,
      "t": 58089.98812500011,
      "d": 70.09350000000268,
      "v": 24
    },
    {
      "midi": 79,
      "hit": false,
      "t": 58390.806062500116,
      "d": 108.06081249999988,
      "v": 66
    },
    {
      "midi": 74,
      "hit": false,
      "t": 58402.488312500114,
      "d": 74.47434375000012,
      "v": 70
    },
    {
      "midi": 67,
      "hit": false,
      "t": 58403.948593750116,
      "d": 119.7430624999979,
      "v": 68
    },
    {
      "midi": 70,
      "hit": false,
      "t": 58763.17778125012,
      "d": 369.45115625001927,
      "v": 75
    },
    {
      "midi": 66,
      "hit": false,
      "t": 58766.09834375012,
      "d": 429.3226875000182,
      "v": 71
    },
    {
      "midi": 78,
      "hit": false,
      "t": 58767.55862500012,
      "d": 471.67084375002014,
      "v": 65
    },
    {
      "midi": 73,
      "hit": false,
      "t": 58770.479187500125,
      "d": 395.7362187500112,
      "v": 51
    },
    {
      "midi": 50,
      "hit": false,
      "t": 58773.39975000013,
      "d": 903.9140937500124,
      "v": 66
    },
    {
      "midi": 79,
      "hit": false,
      "t": 59303.48184375014,
      "d": 148.94868750000023,
      "v": 57
    },
    {
      "midi": 67,
      "hit": false,
      "t": 59310.78325000014,
      "d": 122.66362500000105,
      "v": 62
    },
    {
      "midi": 77,
      "hit": false,
      "t": 59341.449156250135,
      "d": 68.6332187500011,
      "v": 28
    },
    {
      "midi": 81,
      "hit": false,
      "t": 59732.80453125014,
      "d": 338.7852500000008,
      "v": 64
    },
    {
      "midi": 69,
      "hit": false,
      "t": 59753.24846875014,
      "d": 224.88331250000192,
      "v": 57
    },
    {
      "midi": 78,
      "hit": false,
      "t": 60108.096812500145,
      "d": 129.96503125000163,
      "v": 30
    },
    {
      "midi": 69,
      "hit": false,
      "t": 60462.94515625015,
      "d": 389.8950937499976,
      "v": 45
    },
    {
      "midi": 50,
      "hit": false,
      "t": 60462.94515625015,
      "d": 756.4256874999992,
      "v": 36
    },
    {
      "midi": 81,
      "hit": false,
      "t": 60470.24656250015,
      "d": 271.612312499994,
      "v": 43
    },
    {
      "midi": 78,
      "hit": false,
      "t": 60476.08768750015,
      "d": 286.21512499999517,
      "v": 31
    },
    {
      "midi": 74,
      "hit": false,
      "t": 60480.468531250146,
      "d": 274.53287499999715,
      "v": 44
    },
    {
      "midi": 59,
      "hit": false,
      "t": 60492.150781250144,
      "d": 470.210562500004,
      "v": 28
    },
    {
      "midi": 69,
      "hit": false,
      "t": 61442.79387500015,
      "d": 759.3462500000023,
      "v": 42
    },
    {
      "midi": 66,
      "hit": false,
      "t": 61447.174718750146,
      "d": 773.9490625000035,
      "v": 34
    },
    {
      "midi": 62,
      "hit": false,
      "t": 61448.63500000015,
      "d": 833.8205937500024,
      "v": 34
    },
    {
      "midi": 50,
      "hit": false,
      "t": 61451.55556250015,
      "d": 654.2059999999983,
      "v": 30
    },
    {
      "midi": 57,
      "hit": false,
      "t": 61483.68175000015,
      "d": 363.6100312499984,
      "v": 30
    },
    {
      "midi": 50,
      "hit": false,
      "t": 62178.77562500015,
      "d": 1159.4633125000037,
      "v": 27
    },
    {
      "midi": 57,
      "hit": false,
      "t": 62219.66350000015,
      "d": 39.42759374999878,
      "v": 24
    },
    {
      "midi": 67,
      "hit": false,
      "t": 62594.95578125015,
      "d": 874.7084687500028,
      "v": 64
    },
    {
      "midi": 62,
      "hit": false,
      "t": 62603.717468750154,
      "d": 975.4678750000021,
      "v": 57
    },
    {
      "midi": 57,
      "hit": false,
      "t": 62606.63803125016,
      "d": 906.834656250001,
      "v": 53
    },
    {
      "midi": 55,
      "hit": false,
      "t": 62613.93943750016,
      "d": 632.3017812499966,
      "v": 48
    },
    {
      "midi": 66,
      "hit": false,
      "t": 63643.43771875015,
      "d": 135.80615625000064,
      "v": 50
    },
    {
      "midi": 52,
      "hit": false,
      "t": 63986.60381250015,
      "d": 496.4956249999959,
      "v": 31
    },
    {
      "midi": 62,
      "hit": false,
      "t": 63989.524375000154,
      "d": 462.90915624999616,
      "v": 46
    },
    {
      "midi": 57,
      "hit": false,
      "t": 63993.90521875015,
      "d": 394.2759375000023,
      "v": 36
    },
    {
      "midi": 66,
      "hit": false,
      "t": 63993.90521875015,
      "d": 476.05168749999575,
      "v": 39
    },
    {
      "midi": 65,
      "hit": false,
      "t": 64488.940562500145,
      "d": 87.61687499999971,
      "v": 38
    },
    {
      "midi": 73,
      "hit": false,
      "t": 64881.756218750146,
      "d": 1724.5921562500153,
      "v": 57
    },
    {
      "midi": 52,
      "hit": false,
      "t": 64924.10437500015,
      "d": 1452.9798437500212,
      "v": 36
    },
    {
      "midi": 66,
      "hit": false,
      "t": 65290.63496875015,
      "d": 148.94868750000023,
      "v": 44
    },
    {
      "midi": 62,
      "hit": false,
      "t": 65305.23778125015,
      "d": 65.71265624999796,
      "v": 26
    },
    {
      "midi": 66,
      "hit": false,
      "t": 65668.84781250016,
      "d": 148.94868750000023,
      "v": 31
    },
    {
      "midi": 62,
      "hit": false,
      "t": 65680.53006250015,
      "d": 129.96503125000163,
      "v": 22
    },
    {
      "midi": 66,
      "hit": false,
      "t": 66077.72656250016,
      "d": 202.97909375000745,
      "v": 34
    },
    {
      "midi": 62,
      "hit": false,
      "t": 66092.32937500016,
      "d": 211.74078125000233,
      "v": 36
    },
    {
      "midi": 66,
      "hit": false,
      "t": 66521.65206250017,
      "d": 132.88559374999022,
      "v": 42
    },
    {
      "midi": 52,
      "hit": false,
      "t": 66536.25487500017,
      "d": 137.26643749998766,
      "v": 33
    },
    {
      "midi": 62,
      "hit": false,
      "t": 66537.71515625017,
      "d": 262.85062499999185,
      "v": 39
    },
    {
      "midi": 66,
      "hit": false,
      "t": 66924.68968750015,
      "d": 148.94868750000023,
      "v": 69
    },
    {
      "midi": 65,
      "hit": false,
      "t": 67270.77634375016,
      "d": 200.05853125001886,
      "v": 66
    },
    {
      "midi": 61,
      "hit": false,
      "t": 67278.07775000016,
      "d": 230.72443750001548,
      "v": 62
    },
    {
      "midi": 51,
      "hit": false,
      "t": 67291.22028125016,
      "d": 3212.618749999965,
      "v": 38
    },
    {
      "midi": 72,
      "hit": false,
      "t": 67732.22521875017,
      "d": 1768.400593749975,
      "v": 80
    },
    {
      "midi": 61,
      "hit": false,
      "t": 67738.06634375018,
      "d": 962.3253437499807,
      "v": 83
    },
    {
      "midi": 65,
      "hit": false,
      "t": 67742.44718750018,
      "d": 903.914093749976,
      "v": 81
    },
    {
      "midi": 60,
      "hit": false,
      "t": 67743.90746875017,
      "d": 1826.8118437499797,
      "v": 64
    },
    {
      "midi": 68,
      "hit": false,
      "t": 67752.66915625017,
      "d": 930.1991562499898,
      "v": 61
    },
    {
      "midi": 61,
      "hit": false,
      "t": 68976.38484375016,
      "d": 359.2291874999937,
      "v": 35
    },
    {
      "midi": 68,
      "hit": false,
      "t": 68995.36850000016,
      "d": 516.9395624999888,
      "v": 30
    },
    {
      "midi": 65,
      "hit": false,
      "t": 68999.74934375015,
      "d": 464.36943749999045,
      "v": 48
    },
    {
      "midi": 58,
      "hit": false,
      "t": 68999.74934375015,
      "d": 673.1896562499896,
      "v": 23
    },
    {
      "midi": 61,
      "hit": false,
      "t": 69445.13512500015,
      "d": 178.15431250000256,
      "v": 28
    },
    {
      "midi": 65,
      "hit": false,
      "t": 69891.98118750015,
      "d": 362.1497499999823,
      "v": 58
    },
    {
      "midi": 60,
      "hit": false,
      "t": 69900.74287500014,
      "d": 435.1638124999881,
      "v": 38
    },
    {
      "midi": 64,
      "hit": false,
      "t": 70372.41371875013,
      "d": 100.7594062499993,
      "v": 46
    },
    {
      "midi": 64,
      "hit": false,
      "t": 70692.21531250014,
      "d": 452.687187500007,
      "v": 47
    },
    {
      "midi": 50,
      "hit": false,
      "t": 70699.51671875014,
      "d": 1964.0782812499965,
      "v": 35
    },
    {
      "midi": 63,
      "hit": false,
      "t": 71187.25065625014,
      "d": 86.15659374999814,
      "v": 32
    },
    {
      "midi": 70,
      "hit": false,
      "t": 71584.44715625013,
      "d": 1232.4773750000022,
      "v": 30
    },
    {
      "midi": 58,
      "hit": false,
      "t": 71601.97053125013,
      "d": 630.841499999995,
      "v": 23
    },
    {
      "midi": 60,
      "hit": false,
      "t": 71604.89109375014,
      "d": 679.0307812499959,
      "v": 22
    },
    {
      "midi": 66,
      "hit": false,
      "t": 71613.65278125013,
      "d": 1217.874562500001,
      "v": 31
    },
    {
      "midi": 64,
      "hit": false,
      "t": 71615.11306250012,
      "d": 781.2504687500041,
      "v": 34
    },
    {
      "midi": 62,
      "hit": false,
      "t": 72862.19325000013,
      "d": 528.6218125000014,
      "v": 38
    },
    {
      "midi": 50,
      "hit": false,
      "t": 72863.65353125012,
      "d": 337.3249687500065,
      "v": 37
    },
    {
      "midi": 67,
      "hit": false,
      "t": 73431.70293750013,
      "d": 436.6240937500115,
      "v": 74
    },
    {
      "midi": 50,
      "hit": false,
      "t": 73836.20084375014,
      "d": 121.20334375000675,
      "v": 24
    },
    {
      "midi": 43,
      "hit": false,
      "t": 74042.10050000015,
      "d": 216.12162499998522,
      "v": 34
    },
    {
      "midi": 67,
      "hit": false,
      "t": 74045.02106250015,
      "d": 357.7689062499703,
      "v": 46
    },
    {
      "midi": 58,
      "hit": false,
      "t": 74066.92528125015,
      "d": 242.40668749996985,
      "v": 25
    },
    {
      "midi": 62,
      "hit": false,
      "t": 74071.30612500015,
      "d": 214.66134374997637,
      "v": 34
    },
    {
      "midi": 57,
      "hit": false,
      "t": 74074.22668750015,
      "d": 182.53515624998545,
      "v": 28
    },
    {
      "midi": 50,
      "hit": false,
      "t": 74094.67062500014,
      "d": 213.20106249998207,
      "v": 17
    },
    {
      "midi": 81,
      "hit": false,
      "t": 74900.74587500012,
      "d": 157.71037500002421,
      "v": 55
    },
    {
      "midi": 69,
      "hit": false,
      "t": 74913.88840625013,
      "d": 96.37856250001641,
      "v": 36
    },
    {
      "midi": 62,
      "hit": false,
      "t": 74919.72953125014,
      "d": 105.14025000001129,
      "v": 33
    },
    {
      "midi": 58,
      "hit": false,
      "t": 74922.65009375014,
      "d": 134.34587500001362,
      "v": 39
    },
    {
      "midi": 57,
      "hit": false,
      "t": 74932.87206250014,
      "d": 116.82250000000931,
      "v": 26
    },
    {
      "midi": 86,
      "hit": false,
      "t": 75203.02409375015,
      "d": 172.31318749999627,
      "v": 84
    },
    {
      "midi": 74,
      "hit": false,
      "t": 75211.78578125015,
      "d": 122.66362500000105,
      "v": 58
    },
    {
      "midi": 58,
      "hit": false,
      "t": 75235.15028125014,
      "d": 172.31318750001083,
      "v": 56
    },
    {
      "midi": 62,
      "hit": false,
      "t": 75239.53112500014,
      "d": 128.50475000000733,
      "v": 54
    },
    {
      "midi": 57,
      "hit": false,
      "t": 75246.83253125014,
      "d": 163.55150000001595,
      "v": 48
    },
    {
      "midi": 81,
      "hit": false,
      "t": 75619.20425000016,
      "d": 83.23603125000955,
      "v": 57
    },
    {
      "midi": 93,
      "hit": false,
      "t": 75619.20425000016,
      "d": 102.21968750000815,
      "v": 66
    },
    {
      "midi": 57,
      "hit": false,
      "t": 75632.34678125016,
      "d": 97.83884374999616,
      "v": 50
    },
    {
      "midi": 58,
      "hit": false,
      "t": 75641.10846875016,
      "d": 112.44165624999732,
      "v": 45
    },
    {
      "midi": 62,
      "hit": false,
      "t": 75645.48931250015,
      "d": 54.03040625000722,
      "v": 46
    },
    {
      "midi": 98,
      "hit": false,
      "t": 76042.68581250016,
      "d": 131.42531249998137,
      "v": 58
    },
    {
      "midi": 62,
      "hit": false,
      "t": 76052.90778125016,
      "d": 217.5819062499795,
      "v": 36
    },
    {
      "midi": 58,
      "hit": false,
      "t": 76054.36806250016,
      "d": 232.18471874998068,
      "v": 44
    },
    {
      "midi": 86,
      "hit": false,
      "t": 76055.82834375015,
      "d": 172.31318749999627,
      "v": 55
    },
    {
      "midi": 57,
      "hit": false,
      "t": 76064.59003125015,
      "d": 254.08893749999697,
      "v": 29
    },
    {
      "midi": 60,
      "hit": false,
      "t": 76826.85684375014,
      "d": 65.71265625000524,
      "v": 32
    },
    {
      "midi": 67,
      "hit": false,
      "t": 77193.38743750015,
      "d": 531.5423750000045,
      "v": 52
    },
    {
      "midi": 56,
      "hit": false,
      "t": 77225.51362500015,
      "d": 465.8297187499993,
      "v": 37
    },
    {
      "midi": 62,
      "hit": false,
      "t": 77226.97390625015,
      "d": 522.7806875000097,
      "v": 44
    },
    {
      "midi": 60,
      "hit": false,
      "t": 77237.19587500015,
      "d": 483.3530937500036,
      "v": 38
    },
    {
      "midi": 55,
      "hit": false,
      "t": 77251.79868750015,
      "d": 480.43253125000047,
      "v": 30
    },
    {
      "midi": 43,
      "hit": false,
      "t": 77567.21943750016,
      "d": 414.7198749999952,
      "v": 41
    },
    {
      "midi": 55,
      "hit": false,
      "t": 77995.08184375016,
      "d": 49.64956249999523,
      "v": 58
    },
    {
      "midi": 55,
      "hit": false,
      "t": 78365.99328125015,
      "d": 2069.218531250008,
      "v": 44
    },
    {
      "midi": 67,
      "hit": false,
      "t": 78368.91384375015,
      "d": 257.0095000000001,
      "v": 69
    },
    {
      "midi": 56,
      "hit": false,
      "t": 78390.81806250016,
      "d": 1226.636249999996,
      "v": 42
    },
    {
      "midi": 60,
      "hit": false,
      "t": 78401.04003125016,
      "d": 1301.110593749996,
      "v": 33
    },
    {
      "midi": 68,
      "hit": false,
      "t": 78647.82756250016,
      "d": 75.93462499999441,
      "v": 68
    },
    {
      "midi": 72,
      "hit": false,
      "t": 78881.47256250014,
      "d": 214.66134375000547,
      "v": 76
    },
    {
      "midi": 74,
      "hit": false,
      "t": 79082.99137500014,
      "d": 175.23375000001397,
      "v": 73
    },
    {
      "midi": 65,
      "hit": false,
      "t": 79154.54515625015,
      "d": 394.2759375000023,
      "v": 50
    },
    {
      "midi": 75,
      "hit": false,
      "t": 79258.22512500016,
      "d": 84.69631250000384,
      "v": 77
    },
    {
      "midi": 77,
      "hit": false,
      "t": 79391.11071875016,
      "d": 153.32953124999767,
      "v": 80
    },
    {
      "midi": 79,
      "hit": false,
      "t": 79521.07575000016,
      "d": 144.56784374998824,
      "v": 73
    },
    {
      "midi": 80,
      "hit": false,
      "t": 79634.97768750016,
      "d": 103.67996875000244,
      "v": 68
    },
    {
      "midi": 82,
      "hit": false,
      "t": 79750.33990625016,
      "d": 43.80843750000349,
      "v": 59
    },
    {
      "midi": 84,
      "hit": false,
      "t": 79849.63903125016,
      "d": 108.06081249999988,
      "v": 74
    },
    {
      "midi": 86,
      "hit": false,
      "t": 79947.47787500016,
      "d": 110.98137500000303,
      "v": 85
    },
    {
      "midi": 87,
      "hit": false,
      "t": 80058.45925000016,
      "d": 67.17293749999953,
      "v": 81
    },
    {
      "midi": 89,
      "hit": false,
      "t": 80160.67893750015,
      "d": 157.71037500000966,
      "v": 68
    },
    {
      "midi": 65,
      "hit": false,
      "t": 80252.67665625016,
      "d": 116.82249999999476,
      "v": 42
    },
    {
      "midi": 60,
      "hit": false,
      "t": 80277.50143750016,
      "d": 122.6636249999865,
      "v": 42
    },
    {
      "midi": 91,
      "hit": false,
      "t": 80281.88228125016,
      "d": 128.50474999999278,
      "v": 74
    },
    {
      "midi": 56,
      "hit": false,
      "t": 80293.56453125016,
      "d": 148.94868750000023,
      "v": 25
    },
    {
      "midi": 92,
      "hit": false,
      "t": 80349.05521875016,
      "d": 112.44165624999732,
      "v": 51
    },
    {
      "midi": 94,
      "hit": false,
      "t": 80467.33800000016,
      "d": 33.58646874999977,
      "v": 58
    },
    {
      "midi": 96,
      "hit": false,
      "t": 80573.93853125017,
      "d": 71.55378124999697,
      "v": 62
    },
    {
      "midi": 97,
      "hit": false,
      "t": 80655.71428125017,
      "d": 91.99771875000442,
      "v": 50
    },
    {
      "midi": 99,
      "hit": false,
      "t": 80792.98071875017,
      "d": 68.63321874999383,
      "v": 47
    },
    {
      "midi": 100,
      "hit": false,
      "t": 80857.23309375017,
      "d": 103.67996874998789,
      "v": 68
    },
    {
      "midi": 62,
      "hit": false,
      "t": 80950.69109375017,
      "d": 752.0448437499726,
      "v": 40
    },
    {
      "midi": 57,
      "hit": false,
      "t": 80953.61165625016,
      "d": 820.678062499981,
      "v": 35
    },
    {
      "midi": 58,
      "hit": false,
      "t": 80965.29390625015,
      "d": 760.8065312499821,
      "v": 54
    },
    {
      "midi": 101,
      "hit": false,
      "t": 80968.21446875016,
      "d": 277.453437499993,
      "v": 69
    },
    {
      "midi": 98,
      "hit": false,
      "t": 81225.22396875016,
      "d": 162.09121874999255,
      "v": 64
    },
    {
      "midi": 93,
      "hit": false,
      "t": 81425.28250000015,
      "d": 715.5378124999843,
      "v": 62
    },
    {
      "midi": 62,
      "hit": false,
      "t": 82446.01909375013,
      "d": 535.9232187500311,
      "v": 24
    },
    {
      "midi": 58,
      "hit": false,
      "t": 82456.24106250014,
      "d": 582.6522187500232,
      "v": 31
    },
    {
      "midi": 57,
      "hit": false,
      "t": 82459.16162500014,
      "d": 497.9559062500193,
      "v": 36
    },
    {
      "midi": 55,
      "hit": false,
      "t": 82465.00275000015,
      "d": 525.7012500000128,
      "v": 41
    },
    {
      "midi": 62,
      "hit": false,
      "t": 83342.63178125017,
      "d": 105.14025000001129,
      "v": 47
    },
    {
      "midi": 58,
      "hit": false,
      "t": 83357.23459375017,
      "d": 108.06081250001444,
      "v": 33
    },
    {
      "midi": 55,
      "hit": false,
      "t": 83363.07571875017,
      "d": 124.1239062500099,
      "v": 34
    },
    {
      "midi": 54,
      "hit": false,
      "t": 84490.41284375018,
      "d": 62.792093750002095,
      "v": 67
    },
    {
      "midi": 65,
      "hit": false,
      "t": 84505.01565625018,
      "d": 40.88787500000035,
      "v": 50
    },
    {
      "midi": 58,
      "hit": false,
      "t": 84506.47593750017,
      "d": 40.88787500000035,
      "v": 60
    },
    {
      "midi": 62,
      "hit": false,
      "t": 84521.07875000018,
      "d": 35.046750000008615,
      "v": 55
    },
    {
      "midi": 44,
      "hit": false,
      "t": 84534.22128125018,
      "d": 40.88787500000035,
      "v": 42
    },
    {
      "midi": 54,
      "hit": false,
      "t": 84875.92709375019,
      "d": 61.3318125000078,
      "v": 53
    },
    {
      "midi": 65,
      "hit": false,
      "t": 84877.38737500018,
      "d": 64.25237500001094,
      "v": 58
    },
    {
      "midi": 58,
      "hit": false,
      "t": 84883.22850000019,
      "d": 64.25237500001094,
      "v": 55
    },
    {
      "midi": 62,
      "hit": false,
      "t": 84890.52990625019,
      "d": 39.427593750006054,
      "v": 51
    },
    {
      "midi": 44,
      "hit": false,
      "t": 84896.3710312502,
      "d": 78.85518749999756,
      "v": 47
    },
    {
      "midi": 54,
      "hit": false,
      "t": 85286.2661250002,
      "d": 74.47434375000012,
      "v": 44
    },
    {
      "midi": 44,
      "hit": false,
      "t": 85289.1866875002,
      "d": 96.37856250000186,
      "v": 49
    },
    {
      "midi": 65,
      "hit": false,
      "t": 85290.6469687502,
      "d": 55.49068750000151,
      "v": 43
    },
    {
      "midi": 58,
      "hit": false,
      "t": 85295.0278125002,
      "d": 78.85518750001211,
      "v": 51
    },
    {
      "midi": 62,
      "hit": false,
      "t": 85300.8689375002,
      "d": 97.83884375001071,
      "v": 52
    },
    {
      "midi": 54,
      "hit": false,
      "t": 85686.3831875002,
      "d": 408.87874999998894,
      "v": 33
    },
    {
      "midi": 44,
      "hit": false,
      "t": 85689.30375000021,
      "d": 665.8882499999891,
      "v": 38
    },
    {
      "midi": 65,
      "hit": false,
      "t": 85690.7640312502,
      "d": 492.1147812499985,
      "v": 34
    },
    {
      "midi": 58,
      "hit": false,
      "t": 85692.2243125002,
      "d": 448.30634375000955,
      "v": 45
    },
    {
      "midi": 62,
      "hit": false,
      "t": 85700.9860000002,
      "d": 433.7035312500084,
      "v": 49
    },
    {
      "midi": 71,
      "hit": false,
      "t": 86388.7784687502,
      "d": 89.07715625000128,
      "v": 66
    },
    {
      "midi": 72,
      "hit": false,
      "t": 86556.7108125002,
      "d": 87.61687500000698,
      "v": 70
    },
    {
      "midi": 76,
      "hit": false,
      "t": 86729.02400000021,
      "d": 118.28278125000361,
      "v": 65
    },
    {
      "midi": 79,
      "hit": false,
      "t": 86888.19465625021,
      "d": 68.63321874999383,
      "v": 56
    },
    {
      "midi": 83,
      "hit": false,
      "t": 87083.8723437502,
      "d": 108.06081249999988,
      "v": 54
    },
    {
      "midi": 86,
      "hit": false,
      "t": 87254.7252500002,
      "d": 115.36221875000047,
      "v": 73
    },
    {
      "midi": 82,
      "hit": false,
      "t": 87451.86321875021,
      "d": 119.7430624999979,
      "v": 52
    },
    {
      "midi": 60,
      "hit": false,
      "t": 87473.76743750021,
      "d": 1343.4587500000052,
      "v": 30
    },
    {
      "midi": 55,
      "hit": false,
      "t": 87489.8305312502,
      "d": 1285.0475000000151,
      "v": 30
    },
    {
      "midi": 64,
      "hit": false,
      "t": 87492.75109375021,
      "d": 1333.2367812500015,
      "v": 14
    },
    {
      "midi": 59,
      "hit": false,
      "t": 87500.05250000021,
      "d": 1308.4120000000112,
      "v": 30
    },
    {
      "midi": 83,
      "hit": false,
      "t": 87590.5899375002,
      "d": 435.1638125000027,
      "v": 40
    },
    {
      "midi": 79,
      "hit": false,
      "t": 88041.8168437502,
      "d": 331.48384375000023,
      "v": 48
    },
    {
      "midi": 81,
      "hit": false,
      "t": 88424.4105312502,
      "d": 121.20334375000675,
      "v": 58
    },
    {
      "midi": 76,
      "hit": false,
      "t": 88633.23075000022,
      "d": 432.243249999985,
      "v": 32
    },
    {
      "midi": 79,
      "hit": false,
      "t": 89150.17031250021,
      "d": 464.3694374999759,
      "v": 44
    },
    {
      "midi": 60,
      "hit": false,
      "t": 89173.5348125002,
      "d": 538.8437812499906,
      "v": 24
    },
    {
      "midi": 64,
      "hit": false,
      "t": 89188.1376250002,
      "d": 563.6685624999809,
      "v": 17
    },
    {
      "midi": 55,
      "hit": false,
      "t": 89193.97875000021,
      "d": 505.25731249997625,
      "v": 22
    },
    {
      "midi": 59,
      "hit": false,
      "t": 89195.43903125021,
      "d": 524.2409687499894,
      "v": 25
    },
    {
      "midi": 71,
      "hit": false,
      "t": 89564.89018750019,
      "d": 170.85290625000198,
      "v": 41
    },
    {
      "midi": 64,
      "hit": false,
      "t": 90102.27368750019,
      "d": 70.09350000000268,
      "v": 36
    },
    {
      "midi": 60,
      "hit": false,
      "t": 90122.71762500018,
      "d": 51.109843750004075,
      "v": 43
    },
    {
      "midi": 59,
      "hit": false,
      "t": 90128.55875000019,
      "d": 52.57012499999837,
      "v": 27
    },
    {
      "midi": 67,
      "hit": false,
      "t": 90480.4865312502,
      "d": 65.71265625000524,
      "v": 50
    },
    {
      "midi": 69,
      "hit": false,
      "t": 90655.7202812502,
      "d": 132.88559375000477,
      "v": 66
    },
    {
      "midi": 56,
      "hit": false,
      "t": 90857.23909375019,
      "d": 1025.1174375000119,
      "v": 33
    },
    {
      "midi": 71,
      "hit": false,
      "t": 90863.0802187502,
      "d": 146.02812500001164,
      "v": 69
    },
    {
      "midi": 60,
      "hit": false,
      "t": 90876.2227500002,
      "d": 975.4678749999875,
      "v": 35
    },
    {
      "midi": 64,
      "hit": false,
      "t": 90889.36528125021,
      "d": 968.166468749987,
      "v": 28
    },
    {
      "midi": 68,
      "hit": false,
      "t": 91067.51959375021,
      "d": 61.33181249999325,
      "v": 30
    },
    {
      "midi": 71,
      "hit": false,
      "t": 91226.6902500002,
      "d": 165.0117812499957,
      "v": 66
    },
    {
      "midi": 68,
      "hit": false,
      "t": 91434.0501875002,
      "d": 408.8787500000035,
      "v": 30
    },
    {
      "midi": 60,
      "hit": false,
      "t": 92302.9175312502,
      "d": 765.1873750000086,
      "v": 36
    },
    {
      "midi": 64,
      "hit": false,
      "t": 92310.2189375002,
      "d": 706.7761250000185,
      "v": 20
    },
    {
      "midi": 56,
      "hit": false,
      "t": 92314.5997812502,
      "d": 711.156968750016,
      "v": 27
    },
    {
      "midi": 69,
      "hit": false,
      "t": 92697.1934687502,
      "d": 132.88559375000477,
      "v": 55
    },
    {
      "midi": 70,
      "hit": false,
      "t": 92873.88750000022,
      "d": 78.85518749999756,
      "v": 50
    },
    {
      "midi": 71,
      "hit": false,
      "t": 93066.64462500022,
      "d": 99.29912499999045,
      "v": 55
    },
    {
      "midi": 76,
      "hit": false,
      "t": 93257.94146875021,
      "d": 74.47434375000012,
      "v": 53
    },
    {
      "midi": 79,
      "hit": false,
      "t": 93405.42987500022,
      "d": 160.63093749999825,
      "v": 76
    },
    {
      "midi": 83,
      "hit": false,
      "t": 93586.50475000021,
      "d": 93.45799999999872,
      "v": 80
    },
    {
      "midi": 64,
      "hit": false,
      "t": 93593.80615625021,
      "d": 400.11706249999406,
      "v": 50
    },
    {
      "midi": 60,
      "hit": false,
      "t": 93598.18700000021,
      "d": 354.8483437499963,
      "v": 53
    },
    {
      "midi": 56,
      "hit": false,
      "t": 93604.02812500022,
      "d": 347.5469374999957,
      "v": 46
    },
    {
      "midi": 86,
      "hit": false,
      "t": 93801.16609375022,
      "d": 912.6757812499854,
      "v": 105
    },
    {
      "midi": 64,
      "hit": false,
      "t": 94210.0448437502,
      "d": 226.34359374998894,
      "v": 33
    },
    {
      "midi": 55,
      "hit": false,
      "t": 94239.25046875021,
      "d": 119.7430624999979,
      "v": 38
    },
    {
      "midi": 60,
      "hit": false,
      "t": 94249.47243750021,
      "d": 125.58418749998964,
      "v": 33
    },
    {
      "midi": 64,
      "hit": false,
      "t": 94598.4796562502,
      "d": 45.26871874999779,
      "v": 38
    },
    {
      "midi": 60,
      "hit": false,
      "t": 94613.0824687502,
      "d": 36.50703125000291,
      "v": 32
    },
    {
      "midi": 83,
      "hit": false,
      "t": 94798.5381875002,
      "d": 119.7430624999979,
      "v": 50
    },
    {
      "midi": 60,
      "hit": false,
      "t": 95692.2303125002,
      "d": 80.31546874999185,
      "v": 62
    },
    {
      "midi": 55,
      "hit": false,
      "t": 95693.6905937502,
      "d": 73.01406250000582,
      "v": 68
    },
    {
      "midi": 64,
      "hit": false,
      "t": 95693.6905937502,
      "d": 74.47434375000012,
      "v": 60
    },
    {
      "midi": 60,
      "hit": false,
      "t": 96251.5180312502,
      "d": 33.58646874999977,
      "v": 62
    },
    {
      "midi": 64,
      "hit": false,
      "t": 96252.9783125002,
      "d": 36.50703125000291,
      "v": 55
    },
    {
      "midi": 55,
      "hit": false,
      "t": 96255.8988750002,
      "d": 35.04674999999406,
      "v": 64
    },
    {
      "midi": 64,
      "hit": false,
      "t": 96790.3618125002,
      "d": 420.56100000001607,
      "v": 62
    },
    {
      "midi": 55,
      "hit": false,
      "t": 96793.2823750002,
      "d": 439.54465625001467,
      "v": 68
    },
    {
      "midi": 60,
      "hit": false,
      "t": 96799.1235000002,
      "d": 623.540093750009,
      "v": 51
    },
    {
      "midi": 60,
      "hit": false,
      "t": 97524.88328125021,
      "d": 502.3367500000022,
      "v": 19
    },
    {
      "midi": 54,
      "hit": false,
      "t": 97529.2641250002,
      "d": 518.3998437499977,
      "v": 36
    },
    {
      "midi": 65,
      "hit": false,
      "t": 97546.78750000021,
      "d": 373.8319999999949,
      "v": 36
    },
    {
      "midi": 74,
      "hit": false,
      "t": 97561.39031250021,
      "d": 455.6077499999956,
      "v": 44
    },
    {
      "midi": 70,
      "hit": false,
      "t": 97570.1520000002,
      "d": 392.8156562499935,
      "v": 32
    },
    {
      "midi": 54,
      "hit": false,
      "t": 98439.0193437502,
      "d": 353.3880624999729,
      "v": 45
    },
    {
      "midi": 86,
      "hit": false,
      "t": 98443.4001875002,
      "d": 395.7362187499821,
      "v": 68
    },
    {
      "midi": 60,
      "hit": false,
      "t": 98458.0030000002,
      "d": 382.5936874999752,
      "v": 52
    },
    {
      "midi": 64,
      "hit": false,
      "t": 98459.4632812502,
      "d": 306.6590624999808,
      "v": 44
    },
    {
      "midi": 77,
      "hit": false,
      "t": 98463.84412500019,
      "d": 410.33903124998324,
      "v": 38
    },
    {
      "midi": 82,
      "hit": false,
      "t": 98465.30440625019,
      "d": 403.03762499998265,
      "v": 40
    },
    {
      "midi": 54,
      "hit": false,
      "t": 99265.53853125017,
      "d": 719.9186562500108,
      "v": 63
    },
    {
      "midi": 89,
      "hit": false,
      "t": 99272.83993750018,
      "d": 357.7689062499994,
      "v": 81
    },
    {
      "midi": 82,
      "hit": false,
      "t": 99272.83993750018,
      "d": 512.5587187500059,
      "v": 78
    },
    {
      "midi": 60,
      "hit": false,
      "t": 99272.83993750018,
      "d": 635.222343750007,
      "v": 65
    },
    {
      "midi": 65,
      "hit": false,
      "t": 99275.76050000018,
      "d": 670.269093750001,
      "v": 65
    },
    {
      "midi": 86,
      "hit": false,
      "t": 99662.73503125018,
      "d": 334.4044062500034,
      "v": 60
    },
    {
      "midi": 77,
      "hit": false,
      "t": 99689.02009375018,
      "d": 264.3109062500007,
      "v": 37
    },
    {
      "midi": 54,
      "hit": false,
      "t": 100151.92925000019,
      "d": 353.3880624999874,
      "v": 37
    },
    {
      "midi": 65,
      "hit": false,
      "t": 100154.8498125002,
      "d": 375.2922812499892,
      "v": 47
    },
    {
      "midi": 82,
      "hit": false,
      "t": 100160.6909375002,
      "d": 293.5165312499885,
      "v": 56
    },
    {
      "midi": 89,
      "hit": false,
      "t": 100169.4526250002,
      "d": 308.11934374998964,
      "v": 64
    },
    {
      "midi": 60,
      "hit": false,
      "t": 100178.21431250019,
      "d": 283.2945624999993,
      "v": 44
    },
    {
      "midi": 86,
      "hit": false,
      "t": 100553.50659375018,
      "d": 134.34587499999907,
      "v": 54
    },
    {
      "midi": 77,
      "hit": false,
      "t": 100565.18884375018,
      "d": 159.17065625000396,
      "v": 36
    },
    {
      "midi": 82,
      "hit": false,
      "t": 100573.95053125017,
      "d": 221.96275000000605,
      "v": 25
    },
    {
      "midi": 88,
      "hit": false,
      "t": 100943.40168750017,
      "d": 363.61003124999115,
      "v": 39
    },
    {
      "midi": 55,
      "hit": false,
      "t": 100947.78253125017,
      "d": 832.3603124999936,
      "v": 31
    },
    {
      "midi": 65,
      "hit": false,
      "t": 100962.38534375017,
      "d": 562.2082812499866,
      "v": 34
    },
    {
      "midi": 77,
      "hit": false,
      "t": 100969.68675000017,
      "d": 483.35309374998906,
      "v": 22
    },
    {
      "midi": 81,
      "hit": false,
      "t": 100971.14703125016,
      "d": 430.7829687499907,
      "v": 32
    },
    {
      "midi": 57,
      "hit": false,
      "t": 100974.06759375017,
      "d": 645.4443124999816,
      "v": 34
    },
    {
      "midi": 60,
      "hit": false,
      "t": 100978.44843750016,
      "d": 557.8274374999892,
      "v": 44
    },
    {
      "midi": 65,
      "hit": false,
      "t": 101759.69890625015,
      "d": 86.15659374999814,
      "v": 59
    },
    {
      "midi": 76,
      "hit": false,
      "t": 101764.07975000015,
      "d": 144.5678437500028,
      "v": 55
    },
    {
      "midi": 69,
      "hit": false,
      "t": 101771.38115625015,
      "d": 96.37856250000186,
      "v": 58
    },
    {
      "midi": 64,
      "hit": false,
      "t": 101777.22228125016,
      "d": 175.23374999999942,
      "v": 55
    },
    {
      "midi": 62,
      "hit": false,
      "t": 101968.51912500015,
      "d": 141.64728124999965,
      "v": 51
    },
    {
      "midi": 76,
      "hit": false,
      "t": 102118.92809375015,
      "d": 232.18471874998068,
      "v": 64
    },
    {
      "midi": 69,
      "hit": false,
      "t": 102133.53090625015,
      "d": 176.69403124997916,
      "v": 60
    },
    {
      "midi": 65,
      "hit": false,
      "t": 102134.99118750014,
      "d": 166.47206249999,
      "v": 57
    },
    {
      "midi": 64,
      "hit": false,
      "t": 102146.67343750014,
      "d": 216.12162499998522,
      "v": 60
    },
    {
      "midi": 72,
      "hit": false,
      "t": 102167.11737500013,
      "d": 181.07487499999115,
      "v": 45
    },
    {
      "midi": 79,
      "hit": false,
      "t": 102454.79278125013,
      "d": 87.61687499999243,
      "v": 74
    },
    {
      "midi": 72,
      "hit": false,
      "t": 102459.17362500013,
      "d": 71.55378124999697,
      "v": 70
    },
    {
      "midi": 67,
      "hit": false,
      "t": 102462.09418750013,
      "d": 46.728999999992084,
      "v": 69
    },
    {
      "midi": 69,
      "hit": false,
      "t": 102463.55446875012,
      "d": 61.33181249999325,
      "v": 74
    },
    {
      "midi": 76,
      "hit": false,
      "t": 102475.23671875012,
      "d": 35.04674999999406,
      "v": 53
    },
    {
      "midi": 76,
      "hit": false,
      "t": 102669.45412500012,
      "d": 106.60053125002014,
      "v": 60
    },
    {
      "midi": 64,
      "hit": false,
      "t": 102672.37468750012,
      "d": 48.18928125000093,
      "v": 56
    },
    {
      "midi": 69,
      "hit": false,
      "t": 102684.05693750012,
      "d": 42.3481562500092,
      "v": 50
    },
    {
      "midi": 65,
      "hit": false,
      "t": 102686.97750000012,
      "d": 42.3481562500092,
      "v": 40
    },
    {
      "midi": 72,
      "hit": false,
      "t": 102703.04059375012,
      "d": 40.8878750000149,
      "v": 27
    },
    {
      "midi": 76,
      "hit": false,
      "t": 103002.39825000014,
      "d": 183.99543750000885,
      "v": 66
    },
    {
      "midi": 65,
      "hit": false,
      "t": 103015.54078125015,
      "d": 115.36221875000047,
      "v": 49
    },
    {
      "midi": 69,
      "hit": false,
      "t": 103018.46134375015,
      "d": 124.12390624999534,
      "v": 57
    },
    {
      "midi": 72,
      "hit": false,
      "t": 103019.92162500015,
      "d": 129.96503125000163,
      "v": 50
    },
    {
      "midi": 64,
      "hit": false,
      "t": 103024.30246875015,
      "d": 162.0912187500071,
      "v": 62
    },
    {
      "midi": 62,
      "hit": false,
      "t": 103253.56662500015,
      "d": 439.5446562500001,
      "v": 48
    },
    {
      "midi": 65,
      "hit": false,
      "t": 103256.48718750016,
      "d": 346.0866562500014,
      "v": 38
    },
    {
      "midi": 74,
      "hit": false,
      "t": 103259.40775000016,
      "d": 816.2972187499836,
      "v": 51
    },
    {
      "midi": 69,
      "hit": false,
      "t": 103271.09000000016,
      "d": 325.64271874999395,
      "v": 31
    },
    {
      "midi": 65,
      "hit": false,
      "t": 103752.98281250015,
      "d": 265.771187499995,
      "v": 36
    },
    {
      "midi": 72,
      "hit": false,
      "t": 103763.20478125016,
      "d": 148.94868749998568,
      "v": 32
    },
    {
      "midi": 69,
      "hit": false,
      "t": 103764.66506250015,
      "d": 143.10756249999395,
      "v": 32
    },
    {
      "midi": 65,
      "hit": false,
      "t": 104179.38493750014,
      "d": 405.95818750000035,
      "v": 89
    },
    {
      "midi": 76,
      "hit": false,
      "t": 104182.30550000015,
      "d": 363.61003124999115,
      "v": 80
    },
    {
      "midi": 68,
      "hit": false,
      "t": 104182.30550000015,
      "d": 403.0376249999972,
      "v": 73
    },
    {
      "midi": 71,
      "hit": false,
      "t": 104182.30550000015,
      "d": 438.08437499999127,
      "v": 79
    },
    {
      "midi": 64,
      "hit": false,
      "t": 104201.28915625015,
      "d": 497.9559062500048,
      "v": 89
    },
    {
      "midi": 74,
      "hit": false,
      "t": 104202.74943750014,
      "d": 360.68946875000256,
      "v": 50
    },
    {
      "midi": 68,
      "hit": false,
      "t": 104680.26140625014,
      "d": 738.902312500024,
      "v": 51
    },
    {
      "midi": 75,
      "hit": false,
      "t": 104681.72168750013,
      "d": 127.04446875001304,
      "v": 68
    },
    {
      "midi": 63,
      "hit": false,
      "t": 104681.72168750013,
      "d": 200.05853125001886,
      "v": 74
    },
    {
      "midi": 71,
      "hit": false,
      "t": 104684.64225000014,
      "d": 185.4557187500177,
      "v": 64
    },
    {
      "midi": 65,
      "hit": false,
      "t": 104690.48337500014,
      "d": 169.39262500000768,
      "v": 61
    },
    {
      "midi": 73,
      "hit": false,
      "t": 104696.32450000015,
      "d": 233.64500000000407,
      "v": 29
    },
    {
      "midi": 62,
      "hit": false,
      "t": 104900.76387500015,
      "d": 540.304062500014,
      "v": 51
    },
    {
      "midi": 65,
      "hit": false,
      "t": 104922.66809375015,
      "d": 524.2409687500185,
      "v": 33
    },
    {
      "midi": 71,
      "hit": false,
      "t": 104931.42978125015,
      "d": 462.9091562500107,
      "v": 26
    },
    {
      "midi": 74,
      "hit": false,
      "t": 104941.65175000015,
      "d": 474.59140625000873,
      "v": 53
    },
    {
      "midi": 71,
      "hit": false,
      "t": 105757.94896875016,
      "d": 109.52109375002328,
      "v": 65
    },
    {
      "midi": 59,
      "hit": false,
      "t": 105763.79009375017,
      "d": 165.0117812500248,
      "v": 62
    },
    {
      "midi": 62,
      "hit": false,
      "t": 105779.85318750016,
      "d": 124.12390625002445,
      "v": 55
    },
    {
      "midi": 68,
      "hit": false,
      "t": 105785.69431250017,
      "d": 49.64956250000978,
      "v": 33
    },
    {
      "midi": 65,
      "hit": false,
      "t": 105791.53543750018,
      "d": 40.88787500000035,
      "v": 39
    },
    {
      "midi": 56,
      "hit": false,
      "t": 106032.4818437502,
      "d": 376.752562499998,
      "v": 42
    },
    {
      "midi": 59,
      "hit": false,
      "t": 106068.9888750002,
      "d": 514.0190000000002,
      "v": 51
    },
    {
      "midi": 62,
      "hit": false,
      "t": 106087.9725312502,
      "d": 354.8483437499963,
      "v": 41
    },
    {
      "midi": 68,
      "hit": false,
      "t": 106090.8930937502,
      "d": 346.08665624998685,
      "v": 25
    },
    {
      "midi": 65,
      "hit": false,
      "t": 106092.3533750002,
      "d": 350.46749999999884,
      "v": 40
    },
    {
      "midi": 65,
      "hit": false,
      "t": 106905.7300312502,
      "d": 511.09843750001164,
      "v": 50
    },
    {
      "midi": 56,
      "hit": false,
      "t": 106914.49171875021,
      "d": 467.29000000000815,
      "v": 33
    },
    {
      "midi": 53,
      "hit": false,
      "t": 106923.25340625021,
      "d": 255.54921875002037,
      "v": 40
    },
    {
      "midi": 62,
      "hit": false,
      "t": 106929.09453125022,
      "d": 176.69403125000827,
      "v": 40
    },
    {
      "midi": 59,
      "hit": false,
      "t": 106929.09453125022,
      "d": 461.44887500000186,
      "v": 45
    },
    {
      "midi": 62,
      "hit": false,
      "t": 107381.78171875022,
      "d": 144.5678437500028,
      "v": 57
    },
    {
      "midi": 56,
      "hit": false,
      "t": 107523.42900000022,
      "d": 97.83884374999616,
      "v": 32
    },
    {
      "midi": 40,
      "hit": false,
      "t": 107682.59965625021,
      "d": 376.752562499998,
      "v": 38
    },
    {
      "midi": 66,
      "hit": false,
      "t": 107713.26556250021,
      "d": 449.7666249999893,
      "v": 34
    },
    {
      "midi": 57,
      "hit": false,
      "t": 107714.7258437502,
      "d": 356.3086250000051,
      "v": 46
    },
    {
      "midi": 52,
      "hit": false,
      "t": 107719.1066875002,
      "d": 408.8787500000035,
      "v": 30
    },
    {
      "midi": 47,
      "hit": false,
      "t": 107726.4080937502,
      "d": 341.70581250000396,
      "v": 32
    },
    {
      "midi": 62,
      "hit": false,
      "t": 107729.3286562502,
      "d": 375.2922812500037,
      "v": 53
    },
    {
      "midi": 78,
      "hit": false,
      "t": 108481.37350000019,
      "d": 183.9954374999943,
      "v": 56
    },
    {
      "midi": 69,
      "hit": false,
      "t": 108665.36893750018,
      "d": 49.64956249999523,
      "v": 40
    },
    {
      "midi": 74,
      "hit": false,
      "t": 108858.12606250017,
      "d": 112.44165624999732,
      "v": 37
    },
    {
      "midi": 64,
      "hit": false,
      "t": 108893.17281250017,
      "d": 1978.6810937499977,
      "v": 26
    },
    {
      "midi": 78,
      "hit": false,
      "t": 109027.51868750017,
      "d": 109.52109374999418,
      "v": 52
    },
    {
      "midi": 79,
      "hit": false,
      "t": 109208.59356250016,
      "d": 156.25009375000081,
      "v": 75
    },
    {
      "midi": 52,
      "hit": false,
      "t": 109233.41834375016,
      "d": 998.8323749999981,
      "v": 50
    },
    {
      "midi": 78,
      "hit": false,
      "t": 109392.58900000015,
      "d": 119.7430624999979,
      "v": 42
    },
    {
      "midi": 74,
      "hit": false,
      "t": 109620.39287500015,
      "d": 52.57012499999837,
      "v": 33
    },
    {
      "midi": 69,
      "hit": false,
      "t": 109772.26212500015,
      "d": 62.792093750002095,
      "v": 38
    },
    {
      "midi": 52,
      "hit": false,
      "t": 110499.48218750017,
      "d": 3272.4902812499786,
      "v": 43
    },
    {
      "midi": 62,
      "hit": false,
      "t": 111391.71403125017,
      "d": 359.22918749997916,
      "v": 36
    },
    {
      "midi": 74,
      "hit": false,
      "t": 111404.85656250016,
      "d": 278.9137187499873,
      "v": 40
    },
    {
      "midi": 68,
      "hit": false,
      "t": 111416.53881250016,
      "d": 293.5165312499885,
      "v": 27
    },
    {
      "midi": 65,
      "hit": false,
      "t": 111417.99909375016,
      "d": 294.9768124999973,
      "v": 28
    },
    {
      "midi": 70,
      "hit": false,
      "t": 111419.45937500015,
      "d": 284.7548437499936,
      "v": 31
    },
    {
      "midi": 56,
      "hit": false,
      "t": 111420.91965625015,
      "d": 1473.4237812500069,
      "v": 23
    },
    {
      "midi": 65,
      "hit": false,
      "t": 112101.41071875015,
      "d": 45.26871874999779,
      "v": 47
    },
    {
      "midi": 67,
      "hit": false,
      "t": 112256.20053125014,
      "d": 86.15659374999814,
      "v": 77
    },
    {
      "midi": 68,
      "hit": false,
      "t": 112400.76837500015,
      "d": 115.36221875000047,
      "v": 67
    },
    {
      "midi": 70,
      "hit": false,
      "t": 112574.54184375015,
      "d": 86.15659374999814,
      "v": 62
    },
    {
      "midi": 71,
      "hit": false,
      "t": 112609.58859375014,
      "d": 39.427593750006054,
      "v": 49
    },
    {
      "midi": 71,
      "hit": false,
      "t": 112758.53728125014,
      "d": 110.98137500000303,
      "v": 48
    },
    {
      "midi": 73,
      "hit": false,
      "t": 112929.39018750015,
      "d": 100.7594062499993,
      "v": 57
    },
    {
      "midi": 74,
      "hit": false,
      "t": 113082.71971875014,
      "d": 106.60053125000559,
      "v": 78
    },
    {
      "midi": 75,
      "hit": false,
      "t": 113498.89987500015,
      "d": 115.36221874998591,
      "v": 67
    },
    {
      "midi": 62,
      "hit": false,
      "t": 113541.24803125014,
      "d": 321.2618749999965,
      "v": 44
    },
    {
      "midi": 56,
      "hit": false,
      "t": 113552.93028125014,
      "d": 235.10528124999837,
      "v": 32
    },
    {
      "midi": 76,
      "hit": false,
      "t": 113653.68968750014,
      "d": 100.7594062499993,
      "v": 54
    },
    {
      "midi": 77,
      "hit": false,
      "t": 113843.52625000014,
      "d": 83.236031249995,
      "v": 73
    },
    {
      "midi": 82,
      "hit": false,
      "t": 114024.60112500013,
      "d": 68.63321874999383,
      "v": 67
    },
    {
      "midi": 83,
      "hit": false,
      "t": 114196.91431250013,
      "d": 129.96503125000163,
      "v": 95
    },
    {
      "midi": 86,
      "hit": false,
      "t": 114388.21115625012,
      "d": 140.1869999999908,
      "v": 103
    },
    {
      "midi": 59,
      "hit": false,
      "t": 114413.03593750013,
      "d": 852.8042499999865,
      "v": 51
    },
    {
      "midi": 60,
      "hit": false,
      "t": 114414.49621875012,
      "d": 884.930437499992,
      "v": 53
    },
    {
      "midi": 64,
      "hit": false,
      "t": 114414.49621875012,
      "d": 934.5799999999872,
      "v": 39
    },
    {
      "midi": 55,
      "hit": false,
      "t": 114434.94015625012,
      "d": 827.9794687499962,
      "v": 35
    },
    {
      "midi": 84,
      "hit": false,
      "t": 114597.03137500011,
      "d": 119.7430624999979,
      "v": 75
    },
    {
      "midi": 80,
      "hit": false,
      "t": 114767.88428125011,
      "d": 132.88559375000477,
      "v": 58
    },
    {
      "midi": 83,
      "hit": false,
      "t": 114948.95915625012,
      "d": 150.40896874999453,
      "v": 68
    },
    {
      "midi": 81,
      "hit": false,
      "t": 115130.0340312501,
      "d": 129.96503125000163,
      "v": 62
    },
    {
      "midi": 76,
      "hit": false,
      "t": 115315.48975000011,
      "d": 97.83884374999616,
      "v": 49
    },
    {
      "midi": 74,
      "hit": false,
      "t": 115490.72350000011,
      "d": 153.32953124999767,
      "v": 49
    },
    {
      "midi": 72,
      "hit": false,
      "t": 115690.78203125011,
      "d": 109.52109374999418,
      "v": 41
    },
    {
      "midi": 71,
      "hit": false,
      "t": 115892.30084375011,
      "d": 138.7267187499965,
      "v": 36
    },
    {
      "midi": 60,
      "hit": false,
      "t": 115915.66534375011,
      "d": 1185.7483750000247,
      "v": 44
    },
    {
      "midi": 57,
      "hit": false,
      "t": 115920.0461875001,
      "d": 1175.526406250021,
      "v": 37
    },
    {
      "midi": 59,
      "hit": false,
      "t": 115921.5064687501,
      "d": 1176.9866875000298,
      "v": 29
    },
    {
      "midi": 64,
      "hit": false,
      "t": 115924.4270312501,
      "d": 1168.2250000000204,
      "v": 24
    },
    {
      "midi": 74,
      "hit": false,
      "t": 116063.15375000011,
      "d": 150.40896874999453,
      "v": 54
    },
    {
      "midi": 71,
      "hit": false,
      "t": 116274.8945312501,
      "d": 106.60053125000559,
      "v": 36
    },
    {
      "midi": 72,
      "hit": false,
      "t": 116434.0651875001,
      "d": 125.58418750000419,
      "v": 54
    },
    {
      "midi": 67,
      "hit": false,
      "t": 116658.94850000012,
      "d": 281.834281250005,
      "v": 38
    },
    {
      "midi": 67,
      "hit": false,
      "t": 117237.21987500013,
      "d": 73.01406250000582,
      "v": 19
    },
    {
      "midi": 63,
      "hit": false,
      "t": 117555.56118750013,
      "d": 1825.3515624999854,
      "v": 34
    },
    {
      "midi": 67,
      "hit": false,
      "t": 117567.24343750013,
      "d": 1803.4473437499837,
      "v": 31
    },
    {
      "midi": 62,
      "hit": false,
      "t": 117578.92568750013,
      "d": 1787.3842499999882,
      "v": 32
    },
    {
      "midi": 57,
      "hit": false,
      "t": 117581.84625000013,
      "d": 1658.8794999999955,
      "v": 31
    },
    {
      "midi": 70,
      "hit": false,
      "t": 117894.34643750013,
      "d": 46.729000000006636,
      "v": 31
    },
    {
      "midi": 71,
      "hit": false,
      "t": 117958.59881250015,
      "d": 119.7430624999979,
      "v": 57
    },
    {
      "midi": 74,
      "hit": false,
      "t": 118133.83256250015,
      "d": 91.99771875000442,
      "v": 76
    },
    {
      "midi": 74,
      "hit": false,
      "t": 118405.44487500015,
      "d": 83.236031249995,
      "v": 88
    },
    {
      "midi": 74,
      "hit": false,
      "t": 118681.43803125015,
      "d": 74.47434375000012,
      "v": 80
    },
    {
      "midi": 74,
      "hit": false,
      "t": 118928.22556250014,
      "d": 183.9954374999943,
      "v": 76
    },
    {
      "midi": 73,
      "hit": false,
      "t": 119047.96862500014,
      "d": 116.82249999999476,
      "v": 40
    },
    {
      "midi": 72,
      "hit": false,
      "t": 119154.56915625013,
      "d": 102.2196874999936,
      "v": 38
    },
    {
      "midi": 71,
      "hit": false,
      "t": 119265.55053125012,
      "d": 134.34587499999907,
      "v": 51
    },
    {
      "midi": 62,
      "hit": false,
      "t": 119884.70978125012,
      "d": 978.3884375000052,
      "v": 44
    },
    {
      "midi": 63,
      "hit": false,
      "t": 119887.63034375012,
      "d": 1019.2763125000056,
      "v": 35
    },
    {
      "midi": 57,
      "hit": false,
      "t": 119887.63034375012,
      "d": 1054.3230624999997,
      "v": 41
    },
    {
      "midi": 67,
      "hit": false,
      "t": 119890.55090625012,
      "d": 865.9467812499934,
      "v": 35
    },
    {
      "midi": 76,
      "hit": false,
      "t": 120606.08871875012,
      "d": 97.83884374999616,
      "v": 48
    },
    {
      "midi": 83,
      "hit": false,
      "t": 120950.71509375011,
      "d": 201.5188124999986,
      "v": 99
    },
    {
      "midi": 83,
      "hit": false,
      "t": 121226.70825000011,
      "d": 392.81565625000803,
      "v": 60
    },
    {
      "midi": 55,
      "hit": false,
      "t": 121241.31106250011,
      "d": 389.8950937500049,
      "v": 18
    },
    {
      "midi": 64,
      "hit": false,
      "t": 121241.31106250011,
      "d": 408.8787500000035,
      "v": 30
    },
    {
      "midi": 59,
      "hit": false,
      "t": 121244.23162500012,
      "d": 429.3226874999964,
      "v": 37
    },
    {
      "midi": 60,
      "hit": false,
      "t": 121250.07275000012,
      "d": 752.0448437500017,
      "v": 35
    },
    {
      "midi": 71,
      "hit": false,
      "t": 121257.37415625012,
      "d": 354.8483437499963,
      "v": 45
    },
    {
      "midi": 76,
      "hit": false,
      "t": 121270.51668750013,
      "d": 398.6567812499852,
      "v": 36
    },
    {
      "midi": 81,
      "hit": false,
      "t": 121742.1875312501,
      "d": 189.83656250001513,
      "v": 51
    },
    {
      "midi": 64,
      "hit": false,
      "t": 121749.48893750011,
      "d": 211.74078125001688,
      "v": 40
    },
    {
      "midi": 55,
      "hit": false,
      "t": 121755.33006250011,
      "d": 179.6145937500114,
      "v": 24
    },
    {
      "midi": 69,
      "hit": false,
      "t": 121762.63146875011,
      "d": 159.17065625000396,
      "v": 28
    },
    {
      "midi": 59,
      "hit": false,
      "t": 121764.09175000011,
      "d": 221.9627500000206,
      "v": 28
    },
    {
      "midi": 76,
      "hit": false,
      "t": 121788.91653125011,
      "d": 204.4393750000163,
      "v": 24
    },
    {
      "midi": 83,
      "hit": false,
      "t": 122082.43306250013,
      "d": 81.77575000001525,
      "v": 65
    },
    {
      "midi": 71,
      "hit": false,
      "t": 122092.65503125013,
      "d": 37.967312499997206,
      "v": 53
    },
    {
      "midi": 60,
      "hit": false,
      "t": 122094.11531250013,
      "d": 54.03040625000722,
      "v": 55
    },
    {
      "midi": 64,
      "hit": false,
      "t": 122094.11531250013,
      "d": 56.95096875001036,
      "v": 36
    },
    {
      "midi": 59,
      "hit": false,
      "t": 122111.63868750013,
      "d": 39.427593750006054,
      "v": 29
    },
    {
      "midi": 60,
      "hit": false,
      "t": 122427.05943750015,
      "d": 48.18928124998638,
      "v": 71
    },
    {
      "midi": 59,
      "hit": false,
      "t": 122431.44028125015,
      "d": 35.04674999999406,
      "v": 61
    },
    {
      "midi": 86,
      "hit": false,
      "t": 122437.28140625016,
      "d": 35.04674999999406,
      "v": 66
    },
    {
      "midi": 64,
      "hit": false,
      "t": 122438.74168750015,
      "d": 35.04674999999406,
      "v": 57
    },
    {
      "midi": 74,
      "hit": false,
      "t": 122443.12253125015,
      "d": 42.348156249994645,
      "v": 46
    },
    {
      "midi": 84,
      "hit": false,
      "t": 122446.04309375015,
      "d": 33.586468749985215,
      "v": 65
    },
    {
      "midi": 78,
      "hit": false,
      "t": 122825.71621875014,
      "d": 116.82249999999476,
      "v": 43
    },
    {
      "midi": 75,
      "hit": false,
      "t": 122830.09706250014,
      "d": 42.348156249994645,
      "v": 23
    },
    {
      "midi": 71,
      "hit": false,
      "t": 122830.09706250014,
      "d": 667.3485312499979,
      "v": 48
    },
    {
      "midi": 83,
      "hit": false,
      "t": 122831.55734375013,
      "d": 753.505124999996,
      "v": 40
    },
    {
      "midi": 55,
      "hit": false,
      "t": 122838.85875000013,
      "d": 611.8578437500109,
      "v": 35
    },
    {
      "midi": 64,
      "hit": false,
      "t": 122841.77931250013,
      "d": 551.986312500012,
      "v": 30
    },
    {
      "midi": 60,
      "hit": false,
      "t": 122841.77931250013,
      "d": 646.904593750005,
      "v": 44
    },
    {
      "midi": 59,
      "hit": false,
      "t": 122846.16015625013,
      "d": 613.3181250000052,
      "v": 36
    },
    {
      "midi": 79,
      "hit": false,
      "t": 123022.85418750014,
      "d": 478.9722499999916,
      "v": 17
    },
    {
      "midi": 81,
      "hit": false,
      "t": 123710.64665625013,
      "d": 261.39034374999756,
      "v": 50
    },
    {
      "midi": 60,
      "hit": false,
      "t": 123729.63031250013,
      "d": 378.21284375000687,
      "v": 32
    },
    {
      "midi": 71,
      "hit": false,
      "t": 123731.09059375012,
      "d": 344.6263750000071,
      "v": 34
    },
    {
      "midi": 59,
      "hit": false,
      "t": 123741.31256250013,
      "d": 356.3086250000051,
      "v": 29
    },
    {
      "midi": 55,
      "hit": false,
      "t": 123741.31256250013,
      "d": 386.97453125000175,
      "v": 32
    },
    {
      "midi": 64,
      "hit": false,
      "t": 123751.53453125013,
      "d": 332.94412499999453,
      "v": 20
    },
    {
      "midi": 76,
      "hit": false,
      "t": 123752.99481250012,
      "d": 271.6123125000013,
      "v": 40
    },
    {
      "midi": 71,
      "hit": false,
      "t": 124502.11909375012,
      "d": 435.1638124999881,
      "v": 36
    },
    {
      "midi": 68,
      "hit": false,
      "t": 124509.42050000012,
      "d": 931.6594374999986,
      "v": 31
    },
    {
      "midi": 60,
      "hit": false,
      "t": 124518.18218750012,
      "d": 534.4629374999931,
      "v": 36
    },
    {
      "midi": 54,
      "hit": false,
      "t": 124519.64246875011,
      "d": 639.6031875000044,
      "v": 34
    },
    {
      "midi": 64,
      "hit": false,
      "t": 124522.56303125012,
      "d": 790.012156249999,
      "v": 31
    },
    {
      "midi": 76,
      "hit": false,
      "t": 124908.07728125011,
      "d": 492.11478125001304,
      "v": 69
    },
    {
      "midi": 74,
      "hit": false,
      "t": 124951.88571875011,
      "d": 49.64956249999523,
      "v": 29
    },
    {
      "midi": 65,
      "hit": false,
      "t": 125633.83706250013,
      "d": 530.0820937500102,
      "v": 38
    },
    {
      "midi": 74,
      "hit": false,
      "t": 125635.29734375012,
      "d": 497.9559062500048,
      "v": 38
    },
    {
      "midi": 70,
      "hit": false,
      "t": 125646.97959375012,
      "d": 503.79703125001106,
      "v": 36
    },
    {
      "midi": 60,
      "hit": false,
      "t": 125654.28100000012,
      "d": 484.81337500001246,
      "v": 34
    },
    {
      "midi": 50,
      "hit": false,
      "t": 125657.20156250012,
      "d": 492.11478125001304,
      "v": 33
    },
    {
      "midi": 54,
      "hit": false,
      "t": 125660.12212500013,
      "d": 550.5260312500177,
      "v": 18
    },
    {
      "midi": 70,
      "hit": false,
      "t": 126543.59228125014,
      "d": 528.621812500016,
      "v": 42
    },
    {
      "midi": 62,
      "hit": false,
      "t": 126556.73481250014,
      "d": 573.8905312500137,
      "v": 31
    },
    {
      "midi": 65,
      "hit": false,
      "t": 126568.41706250014,
      "d": 489.1942187500099,
      "v": 44
    },
    {
      "midi": 54,
      "hit": false,
      "t": 126578.63903125015,
      "d": 752.0448437500163,
      "v": 27
    },
    {
      "midi": 50,
      "hit": false,
      "t": 126593.24184375015,
      "d": 759.3462500000169,
      "v": 37
    },
    {
      "midi": 57,
      "hit": false,
      "t": 127532.20268750016,
      "d": 55.49068750000151,
      "v": 41
    },
    {
      "midi": 60,
      "hit": false,
      "t": 127695.75418750016,
      "d": 61.33181249999325,
      "v": 43
    },
    {
      "midi": 53,
      "hit": false,
      "t": 127889.97159375016,
      "d": 80.3154687500064,
      "v": 40
    },
    {
      "midi": 64,
      "hit": false,
      "t": 127903.11412500017,
      "d": 99.299125000005,
      "v": 32
    },
    {
      "midi": 57,
      "hit": false,
      "t": 127908.95525000017,
      "d": 51.109843750004075,
      "v": 28
    },
    {
      "midi": 60,
      "hit": false,
      "t": 127916.25665625017,
      "d": 52.57012499999837,
      "v": 29
    },
    {
      "midi": 52,
      "hit": false,
      "t": 127929.39918750018,
      "d": 134.34587499998452,
      "v": 38
    },
    {
      "midi": 50,
      "hit": false,
      "t": 128138.21940625017,
      "d": 74.47434375000012,
      "v": 29
    },
    {
      "midi": 53,
      "hit": false,
      "t": 128244.81993750017,
      "d": 294.9768124999973,
      "v": 34
    },
    {
      "midi": 64,
      "hit": false,
      "t": 128247.74050000017,
      "d": 394.2759375000023,
      "v": 33
    },
    {
      "midi": 57,
      "hit": false,
      "t": 128259.42275000017,
      "d": 327.1030000000028,
      "v": 46
    },
    {
      "midi": 60,
      "hit": false,
      "t": 128266.72415625017,
      "d": 316.88103124999907,
      "v": 44
    },
    {
      "midi": 52,
      "hit": false,
      "t": 128284.24753125018,
      "d": 385.5142499999929,
      "v": 32
    },
    {
      "midi": 76,
      "hit": false,
      "t": 128969.11943750017,
      "d": 116.82249999998021,
      "v": 66
    },
    {
      "midi": 64,
      "hit": false,
      "t": 128982.26196875016,
      "d": 99.29912499999045,
      "v": 55
    },
    {
      "midi": 65,
      "hit": false,
      "t": 128983.72225000015,
      "d": 51.109843750004075,
      "v": 47
    },
    {
      "midi": 69,
      "hit": false,
      "t": 128992.48393750015,
      "d": 43.80843750000349,
      "v": 47
    },
    {
      "midi": 72,
      "hit": false,
      "t": 129010.00731250015,
      "d": 42.348156249994645,
      "v": 30
    },
    {
      "midi": 62,
      "hit": false,
      "t": 129182.32050000015,
      "d": 102.2196874999936,
      "v": 36
    },
    {
      "midi": 76,
      "hit": false,
      "t": 129310.82525000014,
      "d": 1330.3162187499838,
      "v": 55
    },
    {
      "midi": 69,
      "hit": false,
      "t": 129322.50750000014,
      "d": 519.860124999992,
      "v": 58
    },
    {
      "midi": 72,
      "hit": false,
      "t": 129325.42806250014,
      "d": 734.5214687499829,
      "v": 44
    },
    {
      "midi": 65,
      "hit": false,
      "t": 129326.88834375014,
      "d": 538.8437812499906,
      "v": 45
    },
    {
      "midi": 64,
      "hit": false,
      "t": 129342.95143750013,
      "d": 553.4465937499917,
      "v": 45
    },
    {
      "midi": 65,
      "hit": false,
      "t": 130134.42387500012,
      "d": 458.5283124999987,
      "v": 30
    },
    {
      "midi": 69,
      "hit": false,
      "t": 130156.32809375013,
      "d": 528.6218125000014,
      "v": 32
    },
    {
      "midi": 64,
      "hit": false,
      "t": 130163.62950000013,
      "d": 906.8346562499937,
      "v": 30
    },
    {
      "midi": 74,
      "hit": false,
      "t": 131463.2798125001,
      "d": 81.7757500000007,
      "v": 64
    },
    {
      "midi": 76,
      "hit": false,
      "t": 131803.5253437501,
      "d": 94.91828124999302,
      "v": 76
    },
    {
      "midi": 77,
      "hit": false,
      "t": 132159.8339687501,
      "d": 135.80615625003702,
      "v": 68
    },
    {
      "midi": 65,
      "hit": false,
      "t": 132170.05593750012,
      "d": 84.6963125000184,
      "v": 64
    },
    {
      "midi": 53,
      "hit": false,
      "t": 132181.73818750013,
      "d": 122.6636250000156,
      "v": 38
    },
    {
      "midi": 59,
      "hit": false,
      "t": 132183.19846875014,
      "d": 102.21968750000815,
      "v": 49
    },
    {
      "midi": 64,
      "hit": false,
      "t": 132184.65875000015,
      "d": 89.07715624998673,
      "v": 34
    },
    {
      "midi": 79,
      "hit": false,
      "t": 132543.88793750014,
      "d": 154.78981249997742,
      "v": 63
    },
    {
      "midi": 67,
      "hit": false,
      "t": 132549.72906250015,
      "d": 192.75712499997462,
      "v": 66
    },
    {
      "midi": 53,
      "hit": false,
      "t": 132557.03046875013,
      "d": 219.04218749998836,
      "v": 44
    },
    {
      "midi": 64,
      "hit": false,
      "t": 132564.33187500012,
      "d": 230.72443750000093,
      "v": 41
    },
    {
      "midi": 59,
      "hit": false,
      "t": 132565.79215625013,
      "d": 211.74078125000233,
      "v": 49
    },
    {
      "midi": 53,
      "hit": false,
      "t": 132987.81343750012,
      "d": 528.6218125000014,
      "v": 32
    },
    {
      "midi": 68,
      "hit": false,
      "t": 132990.7340000001,
      "d": 500.8764687500079,
      "v": 51
    },
    {
      "midi": 59,
      "hit": false,
      "t": 132990.7340000001,
      "d": 595.79475000003,
      "v": 47
    },
    {
      "midi": 80,
      "hit": false,
      "t": 132992.19428125012,
      "d": 534.4629375000077,
      "v": 53
    },
    {
      "midi": 64,
      "hit": false,
      "t": 132995.1148437501,
      "d": 547.6054687500291,
      "v": 33
    },
    {
      "midi": 59,
      "hit": false,
      "t": 133861.06162500015,
      "d": 534.4629374999786,
      "v": 44
    },
    {
      "midi": 82,
      "hit": false,
      "t": 133862.52190625016,
      "d": 747.6639999999607,
      "v": 48
    },
    {
      "midi": 53,
      "hit": false,
      "t": 133863.98218750017,
      "d": 508.17787499996484,
      "v": 39
    },
    {
      "midi": 70,
      "hit": false,
      "t": 133869.82331250017,
      "d": 716.9980937499495,
      "v": 36
    },
    {
      "midi": 64,
      "hit": false,
      "t": 133872.74387500016,
      "d": 461.44887499997276,
      "v": 36
    },
    {
      "midi": 75,
      "hit": false,
      "t": 133884.42612500017,
      "d": 680.4910624999611,
      "v": 30
    },
    {
      "midi": 83,
      "hit": false,
      "t": 135159.25165625013,
      "d": 338.78525000001537,
      "v": 68
    },
    {
      "midi": 71,
      "hit": false,
      "t": 135168.01334375012,
      "d": 400.1170625000086,
      "v": 60
    },
    {
      "midi": 78,
      "hit": false,
      "t": 135179.69559375013,
      "d": 341.70581250000396,
      "v": 43
    },
    {
      "midi": 76,
      "hit": false,
      "t": 135184.07643750013,
      "d": 325.64271875002305,
      "v": 58
    },
    {
      "midi": 52,
      "hit": false,
      "t": 135518.48084375015,
      "d": 635.2223437499488,
      "v": 38
    },
    {
      "midi": 71,
      "hit": false,
      "t": 135883.55115625012,
      "d": 2389.02012500001,
      "v": 48
    },
    {
      "midi": 64,
      "hit": false,
      "t": 135895.2334062501,
      "d": 226.3435937500035,
      "v": 47
    },
    {
      "midi": 66,
      "hit": false,
      "t": 135901.0745312501,
      "d": 278.91371875000186,
      "v": 37
    },
    {
      "midi": 59,
      "hit": false,
      "t": 135924.4390312501,
      "d": 178.15431250000256,
      "v": 24
    },
    {
      "midi": 48,
      "hit": false,
      "t": 136320.17525000012,
      "d": 1339.0779062499932,
      "v": 58
    },
    {
      "midi": 66,
      "hit": false,
      "t": 136321.63553125013,
      "d": 687.7924687499763,
      "v": 32
    },
    {
      "midi": 59,
      "hit": false,
      "t": 136340.61918750012,
      "d": 614.7784062499704,
      "v": 43
    },
    {
      "midi": 64,
      "hit": false,
      "t": 136358.1425625001,
      "d": 496.4956249999814,
      "v": 40
    },
    {
      "midi": 59,
      "hit": false,
      "t": 137194.8837187501,
      "d": 452.687187500007,
      "v": 38
    },
    {
      "midi": 64,
      "hit": false,
      "t": 137215.3276562501,
      "d": 424.9418437500135,
      "v": 33
    },
    {
      "midi": 55,
      "hit": false,
      "t": 137221.1687812501,
      "d": 546.1451875000203,
      "v": 35
    },
    {
      "midi": 48,
      "hit": false,
      "t": 137954.22996875012,
      "d": 1112.7343125000189,
      "v": 33
    },
    {
      "midi": 59,
      "hit": false,
      "t": 137965.91221875013,
      "d": 322.72215625000536,
      "v": 30
    },
    {
      "midi": 55,
      "hit": false,
      "t": 137973.21362500012,
      "d": 1115.6548750000075,
      "v": 36
    },
    {
      "midi": 64,
      "hit": false,
      "t": 137981.97531250012,
      "d": 509.6381562500319,
      "v": 27
    },
    {
      "midi": 59,
      "hit": false,
      "t": 138531.04106250015,
      "d": 87.61687500000698,
      "v": 41
    },
    {
      "midi": 64,
      "hit": false,
      "t": 138728.17903125015,
      "d": 151.86924999998882,
      "v": 33
    },
    {
      "midi": 66,
      "hit": false,
      "t": 138896.11137500015,
      "d": 89.07715624998673,
      "v": 49
    },
    {
      "midi": 71,
      "hit": false,
      "t": 139090.32878125014,
      "d": 124.12390624999534,
      "v": 65
    },
    {
      "midi": 76,
      "hit": false,
      "t": 139258.26112500014,
      "d": 224.88331249999464,
      "v": 73
    },
    {
      "midi": 78,
      "hit": false,
      "t": 139442.25656250014,
      "d": 97.8388437499816,
      "v": 64
    },
    {
      "midi": 79,
      "hit": false,
      "t": 139646.69593750013,
      "d": 94.91828124999302,
      "v": 55
    },
    {
      "midi": 67,
      "hit": false,
      "t": 139649.61650000012,
      "d": 925.8183124999923,
      "v": 47
    },
    {
      "midi": 63,
      "hit": false,
      "t": 139649.61650000012,
      "d": 1017.8160312499967,
      "v": 36
    },
    {
      "midi": 62,
      "hit": false,
      "t": 139668.60015625012,
      "d": 966.7061875000072,
      "v": 41
    },
    {
      "midi": 57,
      "hit": false,
      "t": 139683.20296875012,
      "d": 965.2459062499984,
      "v": 24
    },
    {
      "midi": 82,
      "hit": false,
      "t": 139821.92968750012,
      "d": 90.53743749999558,
      "v": 35
    },
    {
      "midi": 83,
      "hit": false,
      "t": 139995.70315625012,
      "d": 166.47206249999,
      "v": 80
    },
    {
      "midi": 86,
      "hit": false,
      "t": 140197.22196875012,
      "d": 165.01178125001024,
      "v": 95
    },
    {
      "midi": 83,
      "hit": false,
      "t": 140413.34359375012,
      "d": 94.91828124999302,
      "v": 39
    },
    {
      "midi": 84,
      "hit": false,
      "t": 140556.4511562501,
      "d": 386.9745312500163,
      "v": 87
    },
    {
      "midi": 83,
      "hit": false,
      "t": 140985.77384375012,
      "d": 281.83428124999045,
      "v": 53
    },
    {
      "midi": 55,
      "hit": false,
      "t": 141333.3207812501,
      "d": 594.3344687500503,
      "v": 28
    },
    {
      "midi": 83,
      "hit": false,
      "t": 141345.00303125012,
      "d": 500.876468750037,
      "v": 58
    },
    {
      "midi": 57,
      "hit": false,
      "t": 141346.46331250013,
      "d": 581.1919375000289,
      "v": 28
    },
    {
      "midi": 60,
      "hit": false,
      "t": 141358.14556250014,
      "d": 540.304062500014,
      "v": 39
    },
    {
      "midi": 64,
      "hit": false,
      "t": 141369.82781250015,
      "d": 559.2877187500126,
      "v": 20
    },
    {
      "midi": 81,
      "hit": false,
      "t": 141850.26034375015,
      "d": 108.06081250001444,
      "v": 36
    },
    {
      "midi": 83,
      "hit": false,
      "t": 142202.18812500016,
      "d": 103.67996874998789,
      "v": 37
    },
    {
      "midi": 71,
      "hit": false,
      "t": 142224.09234375015,
      "d": 70.09349999998813,
      "v": 39
    },
    {
      "midi": 76,
      "hit": false,
      "t": 142234.31431250015,
      "d": 58.41124999997555,
      "v": 39
    },
    {
      "midi": 79,
      "hit": false,
      "t": 142241.61571875014,
      "d": 45.268718749983236,
      "v": 32
    },
    {
      "midi": 55,
      "hit": false,
      "t": 142248.91712500012,
      "d": 59.87153125004261,
      "v": 24
    },
    {
      "midi": 64,
      "hit": false,
      "t": 142250.37740625013,
      "d": 56.95096875002491,
      "v": 20
    },
    {
      "midi": 60,
      "hit": false,
      "t": 142259.13909375013,
      "d": 46.72900000002119,
      "v": 28
    },
    {
      "midi": 57,
      "hit": false,
      "t": 142269.36106250013,
      "d": 48.189281250030035,
      "v": 22
    },
    {
      "midi": 83,
      "hit": false,
      "t": 142621.28884375017,
      "d": 71.55378125002608,
      "v": 53
    },
    {
      "midi": 71,
      "hit": false,
      "t": 142627.12996875017,
      "d": 67.17293750002864,
      "v": 49
    },
    {
      "midi": 60,
      "hit": false,
      "t": 142641.73278125018,
      "d": 49.64956250000978,
      "v": 34
    },
    {
      "midi": 57,
      "hit": false,
      "t": 142644.65334375016,
      "d": 54.03040625003632,
      "v": 31
    },
    {
      "midi": 76,
      "hit": false,
      "t": 142660.71643750017,
      "d": 54.03040625003632,
      "v": 24
    },
    {
      "midi": 81,
      "hit": false,
      "t": 142812.58568750022,
      "d": 87.61687500000698,
      "v": 57
    },
    {
      "midi": 71,
      "hit": false,
      "t": 143028.70731250022,
      "d": 2302.8635312499828,
      "v": 41
    },
    {
      "midi": 83,
      "hit": false,
      "t": 143031.6278750002,
      "d": 2428.447718749987,
      "v": 54
    },
    {
      "midi": 55,
      "hit": false,
      "t": 143034.5484375002,
      "d": 1231.0170937499497,
      "v": 37
    },
    {
      "midi": 57,
      "hit": false,
      "t": 143037.4690000002,
      "d": 1210.5731562499714,
      "v": 32
    },
    {
      "midi": 76,
      "hit": false,
      "t": 143038.9292812502,
      "d": 2321.8471875000105,
      "v": 33
    },
    {
      "midi": 64,
      "hit": false,
      "t": 143043.3101250002,
      "d": 1197.430624999979,
      "v": 28
    },
    {
      "midi": 60,
      "hit": false,
      "t": 143052.0718125002,
      "d": 1225.1759687499725,
      "v": 35
    },
    {
      "midi": 79,
      "hit": false,
      "t": 143056.45265625019,
      "d": 2332.069156250014,
      "v": 18
    },
    {
      "midi": 60,
      "hit": false,
      "t": 144488.98856250016,
      "d": 59.871531250013504,
      "v": 58
    },
    {
      "midi": 59,
      "hit": false,
      "t": 144494.82968750017,
      "d": 39.427593750006054,
      "v": 51
    },
    {
      "midi": 64,
      "hit": false,
      "t": 144510.89278125018,
      "d": 40.8878749999858,
      "v": 29
    },
    {
      "midi": 60,
      "hit": false,
      "t": 144810.25043750016,
      "d": 56.95096875002491,
      "v": 42
    },
    {
      "midi": 59,
      "hit": false,
      "t": 144811.71071875017,
      "d": 51.10984375001863,
      "v": 34
    },
    {
      "midi": 64,
      "hit": false,
      "t": 144813.17100000018,
      "d": 51.10984375001863,
      "v": 32
    },
    {
      "midi": 60,
      "hit": false,
      "t": 145267.3184687502,
      "d": 613.3181249999907,
      "v": 41
    },
    {
      "midi": 64,
      "hit": false,
      "t": 145268.7787500002,
      "d": 589.9536249999946,
      "v": 32
    },
    {
      "midi": 59,
      "hit": false,
      "t": 145268.7787500002,
      "d": 608.9372812499932,
      "v": 34
    },
    {
      "midi": 81,
      "hit": false,
      "t": 145795.9402812502,
      "d": 169.39262499997858,
      "v": 74
    },
    {
      "midi": 79,
      "hit": false,
      "t": 146128.88440625017,
      "d": 109.52109374999418,
      "v": 70
    },
    {
      "midi": 78,
      "hit": false,
      "t": 146404.8775625002,
      "d": 420.56100000001607,
      "v": 56
    },
    {
      "midi": 73,
      "hit": false,
      "t": 146404.8775625002,
      "d": 441.0049375000235,
      "v": 43
    },
    {
      "midi": 62,
      "hit": false,
      "t": 146458.9079687502,
      "d": 302.2782187499979,
      "v": 32
    },
    {
      "midi": 82,
      "hit": false,
      "t": 146743.6628125002,
      "d": 125.58418750000419,
      "v": 57
    },
    {
      "midi": 78,
      "hit": false,
      "t": 147175.9060625002,
      "d": 229.26415624999208,
      "v": 49
    },
    {
      "midi": 70,
      "hit": false,
      "t": 147206.5719687502,
      "d": 81.7757500000007,
      "v": 47
    },
    {
      "midi": 62,
      "hit": false,
      "t": 147231.39675000022,
      "d": 181.07487499996205,
      "v": 30
    },
    {
      "midi": 73,
      "hit": false,
      "t": 147238.6981562502,
      "d": 62.792093750002095,
      "v": 18
    },
    {
      "midi": 66,
      "hit": false,
      "t": 147565.80115625018,
      "d": 191.29684374999488,
      "v": 31
    },
    {
      "midi": 73,
      "hit": false,
      "t": 147578.94368750017,
      "d": 284.75484375000815,
      "v": 23
    },
    {
      "midi": 70,
      "hit": false,
      "t": 147593.54650000017,
      "d": 157.7103749999951,
      "v": 33
    },
    {
      "midi": 66,
      "hit": false,
      "t": 148005.3458125002,
      "d": 581.1919374999998,
      "v": 26
    },
    {
      "midi": 62,
      "hit": false,
      "t": 148036.0117187502,
      "d": 563.6685624999809,
      "v": 30
    },
    {
      "midi": 71,
      "hit": false,
      "t": 148043.3131250002,
      "d": 514.0190000000002,
      "v": 35
    },
    {
      "midi": 74,
      "hit": false,
      "t": 148047.6939687502,
      "d": 435.16381250001723,
      "v": 40
    },
    {
      "midi": 69,
      "hit": false,
      "t": 148049.1542500002,
      "d": 457.0680312500044,
      "v": 32
    },
    {
      "midi": 50,
      "hit": false,
      "t": 148377.7175312502,
      "d": 1365.3629687499779,
      "v": 33
    },
    {
      "midi": 71,
      "hit": false,
      "t": 149160.42828125018,
      "d": 334.4044062499888,
      "v": 39
    },
    {
      "midi": 57,
      "hit": false,
      "t": 149173.57081250017,
      "d": 224.88331249999464,
      "v": 29
    },
    {
      "midi": 66,
      "hit": false,
      "t": 149173.57081250017,
      "d": 322.72215625000536,
      "v": 33
    },
    {
      "midi": 62,
      "hit": false,
      "t": 149176.49137500016,
      "d": 416.1801562500186,
      "v": 32
    },
    {
      "midi": 66,
      "hit": false,
      "t": 150054.12040625018,
      "d": 1006.1337812499842,
      "v": 35
    },
    {
      "midi": 50,
      "hit": false,
      "t": 150077.48490625017,
      "d": 849.8836874999979,
      "v": 33
    },
    {
      "midi": 62,
      "hit": false,
      "t": 150081.86575000017,
      "d": 902.4538124999963,
      "v": 26
    },
    {
      "midi": 57,
      "hit": false,
      "t": 150097.92884375015,
      "d": 651.285437500017,
      "v": 32
    },
    {
      "midi": 59,
      "hit": false,
      "t": 150097.92884375015,
      "d": 857.185093750013,
      "v": 33
    },
    {
      "midi": 66,
      "hit": false,
      "t": 151418.02309375018,
      "d": 1400.4097187500156,
      "v": 32
    },
    {
      "midi": 57,
      "hit": false,
      "t": 151438.46703125018,
      "d": 524.240968750004,
      "v": 25
    },
    {
      "midi": 52,
      "hit": false,
      "t": 151442.84787500018,
      "d": 1220.7951250000042,
      "v": 34
    },
    {
      "midi": 62,
      "hit": false,
      "t": 151469.1329375002,
      "d": 486.27365625000675,
      "v": 24
    },
    {
      "midi": 40,
      "hit": false,
      "t": 152326.31803125018,
      "d": 119.7430624999979,
      "v": 44
    },
    {
      "midi": 57,
      "hit": false,
      "t": 152872.4632187502,
      "d": 71.55378124999697,
      "v": 42
    },
    {
      "midi": 66,
      "hit": false,
      "t": 153135.3138437502,
      "d": 200.05853124998976,
      "v": 61
    },
    {
      "midi": 57,
      "hit": false,
      "t": 153136.7741250002,
      "d": 129.96503125000163,
      "v": 63
    },
    {
      "midi": 52,
      "hit": false,
      "t": 153136.7741250002,
      "d": 389.8950937499758,
      "v": 35
    },
    {
      "midi": 62,
      "hit": false,
      "t": 153148.4563750002,
      "d": 167.93234374996973,
      "v": 59
    },
    {
      "midi": 73,
      "hit": false,
      "t": 153484.32106250018,
      "d": 138.7267187499965,
      "v": 56
    },
    {
      "midi": 66,
      "hit": false,
      "t": 153932.6274062502,
      "d": 205.89965624999604,
      "v": 44
    },
    {
      "midi": 62,
      "hit": false,
      "t": 153938.4685312502,
      "d": 242.4066874999844,
      "v": 38
    },
    {
      "midi": 52,
      "hit": false,
      "t": 153967.6741562502,
      "d": 652.7457187499967,
      "v": 29
    },
    {
      "midi": 62,
      "hit": false,
      "t": 154335.6650312502,
      "d": 132.88559375001932,
      "v": 37
    },
    {
      "midi": 57,
      "hit": false,
      "t": 154337.1253125002,
      "d": 73.01406250000582,
      "v": 24
    },
    {
      "midi": 40,
      "hit": false,
      "t": 154588.2936875002,
      "d": 54.030406249978114,
      "v": 36
    },
    {
      "midi": 39,
      "hit": false,
      "t": 154824.85925000018,
      "d": 300.81793749998906,
      "v": 49
    },
    {
      "midi": 61,
      "hit": false,
      "t": 154827.77981250017,
      "d": 378.2128437500214,
      "v": 47
    },
    {
      "midi": 65,
      "hit": false,
      "t": 154838.00178125018,
      "d": 413.25959375003004,
      "v": 55
    },
    {
      "midi": 51,
      "hit": false,
      "t": 154855.52515625017,
      "d": 335.8646875000268,
      "v": 23
    },
    {
      "midi": 72,
      "hit": false,
      "t": 155189.92956250018,
      "d": 1956.7768750000105,
      "v": 57
    },
    {
      "midi": 65,
      "hit": false,
      "t": 156807.9211875002,
      "d": 919.977187499986,
      "v": 44
    },
    {
      "midi": 61,
      "hit": false,
      "t": 156812.3020312502,
      "d": 1255.8418749999837,
      "v": 32
    },
    {
      "midi": 60,
      "hit": false,
      "t": 156819.6034375002,
      "d": 936.040281249996,
      "v": 52
    },
    {
      "midi": 64,
      "hit": false,
      "t": 158157.22106250018,
      "d": 646.9045937500196,
      "v": 43
    },
    {
      "midi": 60,
      "hit": false,
      "t": 158164.52246875016,
      "d": 686.3321875000256,
      "v": 50
    },
    {
      "midi": 59,
      "hit": false,
      "t": 158179.12528125016,
      "d": 608.9372812500224,
      "v": 39
    },
    {
      "midi": 64,
      "hit": false,
      "t": 159081.5790937502,
      "d": 508.17787499999395,
      "v": 31
    },
    {
      "midi": 60,
      "hit": false,
      "t": 159081.5790937502,
      "d": 515.47928124998,
      "v": 40
    },
    {
      "midi": 54,
      "hit": false,
      "t": 159094.72162500018,
      "d": 557.8274374999746,
      "v": 20
    },
    {
      "midi": 59,
      "hit": false,
      "t": 159097.64218750017,
      "d": 433.7035312500084,
      "v": 35
    },
    {
      "midi": 76,
      "hit": false,
      "t": 159421.82462500018,
      "d": 122.6636249999865,
      "v": 64
    },
    {
      "midi": 75,
      "hit": false,
      "t": 159575.15415625018,
      "d": 78.855187499983,
      "v": 50
    },
    {
      "midi": 64,
      "hit": false,
      "t": 159813.18000000017,
      "d": 665.8882500000182,
      "v": 43
    },
    {
      "midi": 70,
      "hit": false,
      "t": 159814.64028125018,
      "d": 930.1991562500189,
      "v": 59
    },
    {
      "midi": 54,
      "hit": false,
      "t": 159817.56084375017,
      "d": 705.3158437500242,
      "v": 29
    },
    {
      "midi": 60,
      "hit": false,
      "t": 159823.40196875017,
      "d": 636.6826250000158,
      "v": 47
    },
    {
      "midi": 59,
      "hit": false,
      "t": 159838.00478125017,
      "d": 578.2713750000112,
      "v": 44
    },
    {
      "midi": 54,
      "hit": false,
      "t": 160746.2997187502,
      "d": 321.2618749999674,
      "v": 33
    },
    {
      "midi": 64,
      "hit": false,
      "t": 160759.4422500002,
      "d": 159.17065624997485,
      "v": 35
    },
    {
      "midi": 59,
      "hit": false,
      "t": 160781.34646875018,
      "d": 150.40896874997998,
      "v": 31
    },
    {
      "midi": 69,
      "hit": false,
      "t": 161305.58743750016,
      "d": 37.96731250002631,
      "v": 68
    },
    {
      "midi": 81,
      "hit": false,
      "t": 161311.42856250016,
      "d": 94.91828125002212,
      "v": 54
    },
    {
      "midi": 79,
      "hit": false,
      "t": 161331.87250000017,
      "d": 37.96731250002631,
      "v": 33
    },
    {
      "midi": 53,
      "hit": false,
      "t": 161556.7558125002,
      "d": 698.0144375000091,
      "v": 46
    },
    {
      "midi": 58,
      "hit": false,
      "t": 161561.1366562502,
      "d": 737.442031249986,
      "v": 50
    },
    {
      "midi": 62,
      "hit": false,
      "t": 161562.5969375002,
      "d": 670.2690937500156,
      "v": 56
    },
    {
      "midi": 57,
      "hit": false,
      "t": 161565.5175000002,
      "d": 709.6966874999925,
      "v": 48
    },
    {
      "midi": 73,
      "hit": false,
      "t": 161596.1834062502,
      "d": 96.37856250000186,
      "v": 40
    },
    {
      "midi": 86,
      "hit": false,
      "t": 161596.1834062502,
      "d": 661.5074062499916,
      "v": 80
    },
    {
      "midi": 85,
      "hit": false,
      "t": 161616.6273437502,
      "d": 240.94640625000466,
      "v": 43
    },
    {
      "midi": 74,
      "hit": false,
      "t": 161669.1974687502,
      "d": 630.8414999999804,
      "v": 57
    },
    {
      "midi": 84,
      "hit": false,
      "t": 162424.16287500018,
      "d": 99.29912499996135,
      "v": 51
    },
    {
      "midi": 58,
      "hit": false,
      "t": 162432.92456250018,
      "d": 236.5655624999781,
      "v": 34
    },
    {
      "midi": 53,
      "hit": false,
      "t": 162435.84512500017,
      "d": 414.7198749999807,
      "v": 35
    },
    {
      "midi": 62,
      "hit": false,
      "t": 162438.76568750016,
      "d": 211.74078125000233,
      "v": 34
    },
    {
      "midi": 57,
      "hit": false,
      "t": 162444.60681250016,
      "d": 376.75256249998347,
      "v": 34
    },
    {
      "midi": 72,
      "hit": false,
      "t": 162453.36850000016,
      "d": 181.07487499999115,
      "v": 34
    },
    {
      "midi": 81,
      "hit": false,
      "t": 162748.34531250014,
      "d": 81.7757500000007,
      "v": 31
    },
    {
      "midi": 62,
      "hit": false,
      "t": 162749.80559375015,
      "d": 77.39490625000326,
      "v": 49
    },
    {
      "midi": 58,
      "hit": false,
      "t": 162758.56728125014,
      "d": 83.23603125000955,
      "v": 31
    },
    {
      "midi": 81,
      "hit": false,
      "t": 163113.41562500014,
      "d": 108.06081249998533,
      "v": 46
    },
    {
      "midi": 69,
      "hit": false,
      "t": 163135.31984375013,
      "d": 64.25237499998184,
      "v": 37
    },
    {
      "midi": 62,
      "hit": false,
      "t": 163138.24040625012,
      "d": 74.47434375001467,
      "v": 33
    },
    {
      "midi": 53,
      "hit": false,
      "t": 163145.5418125001,
      "d": 91.99771875003353,
      "v": 22
    },
    {
      "midi": 57,
      "hit": false,
      "t": 163149.9226562501,
      "d": 61.33181250002235,
      "v": 24
    },
    {
      "midi": 58,
      "hit": false,
      "t": 163154.3035000001,
      "d": 61.33181250002235,
      "v": 30
    },
    {
      "midi": 62,
      "hit": false,
      "t": 163440.51862500014,
      "d": 698.0144374999509,
      "v": 27
    },
    {
      "midi": 81,
      "hit": false,
      "t": 163444.89946875014,
      "d": 1155.0824687499553,
      "v": 33
    },
    {
      "midi": 69,
      "hit": false,
      "t": 163452.20087500013,
      "d": 1114.1945937499695,
      "v": 33
    },
    {
      "midi": 53,
      "hit": false,
      "t": 163460.96256250012,
      "d": 699.4747187499888,
      "v": 17
    },
    {
      "midi": 58,
      "hit": false,
      "t": 163463.8831250001,
      "d": 684.8719062499877,
      "v": 29
    },
    {
      "midi": 57,
      "hit": false,
      "t": 163475.56537500012,
      "d": 611.8578437499818,
      "v": 17
    },
    {
      "midi": 79,
      "hit": false,
      "t": 164639.4095312501,
      "d": 162.09121874999255,
      "v": 34
    },
    {
      "midi": 56,
      "hit": false,
      "t": 164874.5148125001,
      "d": 712.6172500000102,
      "v": 35
    },
    {
      "midi": 55,
      "hit": false,
      "t": 164880.3559375001,
      "d": 725.7597812500026,
      "v": 29
    },
    {
      "midi": 81,
      "hit": false,
      "t": 164889.1176250001,
      "d": 795.8532812500198,
      "v": 51
    },
    {
      "midi": 65,
      "hit": false,
      "t": 164909.5615625001,
      "d": 662.9676875000005,
      "v": 17
    },
    {
      "midi": 60,
      "hit": false,
      "t": 164918.3232500001,
      "d": 657.1265624999942,
      "v": 36
    },
    {
      "midi": 79,
      "hit": false,
      "t": 165755.0644062501,
      "d": 245.3272500000021,
      "v": 44
    },
    {
      "midi": 56,
      "hit": false,
      "t": 165772.5877812501,
      "d": 1295.2694687499898,
      "v": 32
    },
    {
      "midi": 65,
      "hit": false,
      "t": 165776.9686250001,
      "d": 1368.2835312499956,
      "v": 17
    },
    {
      "midi": 60,
      "hit": false,
      "t": 165778.4289062501,
      "d": 1368.2835312499956,
      "v": 36
    },
    {
      "midi": 55,
      "hit": false,
      "t": 165784.2700312501,
      "d": 1512.8513749999693,
      "v": 19
    },
    {
      "midi": 80,
      "hit": false,
      "t": 166093.84965625012,
      "d": 259.93006250000326,
      "v": 60
    },
    {
      "midi": 82,
      "hit": false,
      "t": 166374.22365625013,
      "d": 170.85290624998743,
      "v": 67
    },
    {
      "midi": 79,
      "hit": false,
      "t": 166600.5672500001,
      "d": 182.53515625,
      "v": 46
    },
    {
      "midi": 80,
      "hit": false,
      "t": 166845.8945000001,
      "d": 131.42531249998137,
      "v": 36
    },
    {
      "midi": 79,
      "hit": false,
      "t": 166901.3851875001,
      "d": 144.5678437500028,
      "v": 50
    },
    {
      "midi": 77,
      "hit": false,
      "t": 167053.2544375001,
      "d": 192.75712500000373,
      "v": 35
    },
    {
      "midi": 75,
      "hit": false,
      "t": 167384.7382812501,
      "d": 132.88559374999022,
      "v": 53
    },
    {
      "midi": 55,
      "hit": false,
      "t": 167408.10278125008,
      "d": 468.750281250017,
      "v": 17
    },
    {
      "midi": 65,
      "hit": false,
      "t": 167441.68925000008,
      "d": 373.832000000024,
      "v": 30
    },
    {
      "midi": 60,
      "hit": false,
      "t": 167443.1495312501,
      "d": 414.7198750000098,
      "v": 39
    },
    {
      "midi": 56,
      "hit": false,
      "t": 167450.45093750008,
      "d": 414.7198750000098,
      "v": 23
    },
    {
      "midi": 74,
      "hit": false,
      "t": 167590.63793750008,
      "d": 108.06081250001444,
      "v": 50
    },
    {
      "midi": 75,
      "hit": false,
      "t": 167770.2525312501,
      "d": 132.88559375001932,
      "v": 47
    },
    {
      "midi": 74,
      "hit": false,
      "t": 167840.3460312501,
      "d": 131.42531250001048,
      "v": 55
    },
    {
      "midi": 72,
      "hit": false,
      "t": 167993.6755625001,
      "d": 90.53743749999558,
      "v": 33
    },
    {
      "midi": 70,
      "hit": false,
      "t": 168157.2270625001,
      "d": 135.80615625000792,
      "v": 39
    },
    {
      "midi": 69,
      "hit": false,
      "t": 168351.44446875012,
      "d": 135.80615625000792,
      "v": 41
    },
    {
      "midi": 72,
      "hit": false,
      "t": 168533.97962500012,
      "d": 118.28278125001816,
      "v": 60
    },
    {
      "midi": 62,
      "hit": false,
      "t": 168612.83481250014,
      "d": 626.460656249983,
      "v": 15
    },
    {
      "midi": 55,
      "hit": false,
      "t": 168614.29509375014,
      "d": 1327.3956562500098,
      "v": 31
    },
    {
      "midi": 53,
      "hit": false,
      "t": 168639.11987500015,
      "d": 1337.6176250000135,
      "v": 11
    },
    {
      "midi": 58,
      "hit": false,
      "t": 168658.10353125015,
      "d": 997.3720937499893,
      "v": 18
    },
    {
      "midi": 70,
      "hit": false,
      "t": 168704.83253125014,
      "d": 113.90193749999162,
      "v": 56
    },
    {
      "midi": 66,
      "hit": false,
      "t": 168907.81162500012,
      "d": 65.71265624999069,
      "v": 32
    },
    {
      "midi": 69,
      "hit": false,
      "t": 169061.14115625012,
      "d": 116.82250000000931,
      "v": 44
    },
    {
      "midi": 66,
      "hit": false,
      "t": 169191.10618750012,
      "d": 103.67996874998789,
      "v": 48
    },
    {
      "midi": 67,
      "hit": false,
      "t": 169372.1810625001,
      "d": 112.44165625001187,
      "v": 55
    },
    {
      "midi": 62,
      "hit": false,
      "t": 169512.3680625001,
      "d": 49.64956250000978,
      "v": 49
    },
    {
      "midi": 65,
      "hit": false,
      "t": 169674.45928125014,
      "d": 140.18700000000536,
      "v": 53
    },
    {
      "midi": 53,
      "hit": false,
      "t": 170308.22134375016,
      "d": 165.01178125001024,
      "v": 34
    },
    {
      "midi": 58,
      "hit": false,
      "t": 170321.36387500016,
      "d": 135.80615625000792,
      "v": 30
    },
    {
      "midi": 62,
      "hit": false,
      "t": 170328.66528125014,
      "d": 78.85518750001211,
      "v": 24
    },
    {
      "midi": 55,
      "hit": false,
      "t": 170330.12556250015,
      "d": 127.04446875001304,
      "v": 34
    },
    {
      "midi": 62,
      "hit": false,
      "t": 170493.67706250018,
      "d": 52.57012499999837,
      "v": 38
    },
    {
      "midi": 65,
      "hit": false,
      "t": 170693.73559375017,
      "d": 78.85518750001211,
      "v": 57
    },
    {
      "midi": 67,
      "hit": false,
      "t": 170864.5885000002,
      "d": 181.07487500002026,
      "v": 84
    },
    {
      "midi": 62,
      "hit": false,
      "t": 170889.4132812502,
      "d": 94.91828125002212,
      "v": 44
    },
    {
      "midi": 53,
      "hit": false,
      "t": 170904.0160937502,
      "d": 138.7267187500256,
      "v": 33
    },
    {
      "midi": 58,
      "hit": false,
      "t": 170915.6983437502,
      "d": 110.98137500000303,
      "v": 36
    },
    {
      "midi": 55,
      "hit": false,
      "t": 170920.0791875002,
      "d": 112.44165625001187,
      "v": 42
    },
    {
      "midi": 62,
      "hit": false,
      "t": 171102.6143437502,
      "d": 157.7103749999951,
      "v": 47
    },
    {
      "midi": 65,
      "hit": false,
      "t": 172041.57518750022,
      "d": 67.17293749999953,
      "v": 51
    },
    {
      "midi": 54,
      "hit": false,
      "t": 172050.3368750002,
      "d": 71.55378124999697,
      "v": 59
    },
    {
      "midi": 44,
      "hit": false,
      "t": 172086.8439062502,
      "d": 56.95096875002491,
      "v": 23
    },
    {
      "midi": 62,
      "hit": false,
      "t": 172088.3041875002,
      "d": 49.64956250000978,
      "v": 31
    },
    {
      "midi": 54,
      "hit": false,
      "t": 172462.13618750023,
      "d": 75.93462500002352,
      "v": 56
    },
    {
      "midi": 44,
      "hit": false,
      "t": 172463.59646875024,
      "d": 84.6963125000184,
      "v": 43
    },
    {
      "midi": 65,
      "hit": false,
      "t": 172465.05675000025,
      "d": 106.60053125000559,
      "v": 52
    },
    {
      "midi": 62,
      "hit": false,
      "t": 172481.11984375026,
      "d": 68.63321875000838,
      "v": 30
    },
    {
      "midi": 57,
      "hit": false,
      "t": 172484.04040625025,
      "d": 52.57012499999837,
      "v": 58
    },
    {
      "midi": 58,
      "hit": false,
      "t": 172837.42846875027,
      "d": 99.29912500001956,
      "v": 63
    },
    {
      "midi": 65,
      "hit": false,
      "t": 172841.80931250026,
      "d": 68.63321875000838,
      "v": 42
    },
    {
      "midi": 44,
      "hit": false,
      "t": 172843.26959375027,
      "d": 97.83884375001071,
      "v": 49
    },
    {
      "midi": 54,
      "hit": false,
      "t": 172846.19015625026,
      "d": 62.792093750002095,
      "v": 44
    },
    {
      "midi": 62,
      "hit": false,
      "t": 172850.57100000026,
      "d": 108.06081250001444,
      "v": 53
    },
    {
      "midi": 54,
      "hit": false,
      "t": 173227.32356250027,
      "d": 99.29912500001956,
      "v": 36
    },
    {
      "midi": 58,
      "hit": false,
      "t": 173233.16468750028,
      "d": 97.83884375001071,
      "v": 46
    },
    {
      "midi": 44,
      "hit": false,
      "t": 173234.6249687503,
      "d": 93.45800000001327,
      "v": 35
    },
    {
      "midi": 65,
      "hit": false,
      "t": 173241.92637500027,
      "d": 68.63321875000838,
      "v": 33
    },
    {
      "midi": 62,
      "hit": false,
      "t": 173243.38665625028,
      "d": 105.14024999999674,
      "v": 45
    },
    {
      "midi": 65,
      "hit": false,
      "t": 173582.17190625027,
      "d": 102.21968749997905,
      "v": 37
    },
    {
      "midi": 54,
      "hit": false,
      "t": 173586.55275000026,
      "d": 108.06081249998533,
      "v": 36
    },
    {
      "midi": 44,
      "hit": false,
      "t": 173589.47331250025,
      "d": 125.58418750000419,
      "v": 36
    },
    {
      "midi": 58,
      "hit": false,
      "t": 173592.39387500024,
      "d": 113.90193750002072,
      "v": 49
    },
    {
      "midi": 62,
      "hit": false,
      "t": 173605.53640625023,
      "d": 109.52109375002328,
      "v": 49
    },
    {
      "midi": 44,
      "hit": false,
      "t": 173982.28896875028,
      "d": 370.9114374999772,
      "v": 37
    },
    {
      "midi": 65,
      "hit": false,
      "t": 173983.74925000028,
      "d": 665.8882499999891,
      "v": 38
    },
    {
      "midi": 54,
      "hit": false,
      "t": 173991.05065625027,
      "d": 493.5750624999928,
      "v": 34
    },
    {
      "midi": 58,
      "hit": false,
      "t": 173992.51093750028,
      "d": 535.9232187499874,
      "v": 45
    },
    {
      "midi": 62,
      "hit": false,
      "t": 173999.81234375027,
      "d": 515.4792812500091,
      "v": 46
    },
    {
      "midi": 44,
      "hit": false,
      "t": 174451.03925000026,
      "d": 403.0376249999972,
      "v": 35
    },
    {
      "midi": 59,
      "hit": false,
      "t": 174963.59796875028,
      "d": 93.45800000001327,
      "v": 31
    },
    {
      "midi": 64,
      "hit": false,
      "t": 174965.0582500003,
      "d": 166.4720625000191,
      "v": 37
    },
    {
      "midi": 45,
      "hit": false,
      "t": 174966.5185312503,
      "d": 102.21968750000815,
      "v": 31
    },
    {
      "midi": 60,
      "hit": false,
      "t": 174979.6610625003,
      "d": 105.14025000002584,
      "v": 42
    },
    {
      "midi": 71,
      "hit": false,
      "t": 175503.9020312503,
      "d": 89.07715625001583,
      "v": 57
    },
    {
      "midi": 83,
      "hit": false,
      "t": 175505.3623125003,
      "d": 93.45800000001327,
      "v": 36
    },
    {
      "midi": 72,
      "hit": false,
      "t": 175864.59150000033,
      "d": 36.50703125001746,
      "v": 67
    },
    {
      "midi": 84,
      "hit": false,
      "t": 175866.05178125034,
      "d": 71.55378125002608,
      "v": 64
    },
    {
      "midi": 60,
      "hit": false,
      "t": 175879.19431250033,
      "d": 52.570125000027474,
      "v": 59
    },
    {
      "midi": 59,
      "hit": false,
      "t": 175887.95600000033,
      "d": 39.42759375003516,
      "v": 40
    },
    {
      "midi": 64,
      "hit": false,
      "t": 175889.41628125033,
      "d": 42.34815625002375,
      "v": 44
    },
    {
      "midi": 55,
      "hit": false,
      "t": 176057.34862500036,
      "d": 202.97909374997835,
      "v": 82
    },
    {
      "midi": 64,
      "hit": false,
      "t": 176060.26918750035,
      "d": 233.64499999998952,
      "v": 75
    },
    {
      "midi": 60,
      "hit": false,
      "t": 176061.72946875036,
      "d": 257.00949999998556,
      "v": 74
    },
    {
      "midi": 76,
      "hit": false,
      "t": 176066.11031250036,
      "d": 165.01178124998114,
      "v": 83
    },
    {
      "midi": 88,
      "hit": false,
      "t": 176069.03087500035,
      "d": 202.97909375000745,
      "v": 89
    },
    {
      "midi": 59,
      "hit": false,
      "t": 176069.03087500035,
      "d": 235.10528124999837,
      "v": 68
    },
    {
      "midi": 79,
      "hit": false,
      "t": 176416.57781250036,
      "d": 80.31546875002095,
      "v": 83
    },
    {
      "midi": 91,
      "hit": false,
      "t": 176419.49837500034,
      "d": 113.90193750002072,
      "v": 82
    },
    {
      "midi": 60,
      "hit": false,
      "t": 176425.33950000035,
      "d": 163.5515000000014,
      "v": 76
    },
    {
      "midi": 64,
      "hit": false,
      "t": 176426.79978125036,
      "d": 135.80615625000792,
      "v": 80
    },
    {
      "midi": 59,
      "hit": false,
      "t": 176431.18062500036,
      "d": 144.5678437500028,
      "v": 71
    },
    {
      "midi": 55,
      "hit": false,
      "t": 176432.64090625037,
      "d": 113.90193749999162,
      "v": 80
    },
    {
      "midi": 64,
      "hit": false,
      "t": 176635.62000000034,
      "d": 273.0725937499956,
      "v": 69
    },
    {
      "midi": 95,
      "hit": false,
      "t": 176638.54056250033,
      "d": 221.96275000000605,
      "v": 85
    },
    {
      "midi": 55,
      "hit": false,
      "t": 176640.00084375034,
      "d": 246.78753125001094,
      "v": 69
    },
    {
      "midi": 60,
      "hit": false,
      "t": 176640.00084375034,
      "d": 299.3576562500093,
      "v": 64
    },
    {
      "midi": 83,
      "hit": false,
      "t": 176642.92140625033,
      "d": 211.74078125000233,
      "v": 81
    },
    {
      "midi": 59,
      "hit": false,
      "t": 176648.76253125034,
      "d": 280.3740000000107,
      "v": 74
    },
    {
      "midi": 98,
      "hit": false,
      "t": 176983.16693750035,
      "d": 78.855187499983,
      "v": 76
    },
    {
      "midi": 64,
      "hit": false,
      "t": 176986.08750000034,
      "d": 80.31546874999185,
      "v": 60
    },
    {
      "midi": 60,
      "hit": false,
      "t": 176987.54778125035,
      "d": 87.61687499997788,
      "v": 42
    },
    {
      "midi": 86,
      "hit": false,
      "t": 176991.92862500035,
      "d": 56.95096874999581,
      "v": 76
    },
    {
      "midi": 55,
      "hit": false,
      "t": 176997.76975000036,
      "d": 46.728999999992084,
      "v": 49
    },
    {
      "midi": 59,
      "hit": false,
      "t": 176999.23003125036,
      "d": 36.50703124998836,
      "v": 50
    },
    {
      "midi": 60,
      "hit": false,
      "t": 177193.44743750032,
      "d": 81.7757500000298,
      "v": 64
    },
    {
      "midi": 95,
      "hit": false,
      "t": 177202.2091250003,
      "d": 75.93462500002352,
      "v": 55
    },
    {
      "midi": 59,
      "hit": false,
      "t": 177206.5899687503,
      "d": 39.427593750006054,
      "v": 46
    },
    {
      "midi": 64,
      "hit": false,
      "t": 177206.5899687503,
      "d": 39.427593750006054,
      "v": 49
    },
    {
      "midi": 83,
      "hit": false,
      "t": 177212.43109375032,
      "d": 45.26871875001234,
      "v": 49
    },
    {
      "midi": 55,
      "hit": false,
      "t": 177212.43109375032,
      "d": 46.72900000002119,
      "v": 44
    },
    {
      "midi": 60,
      "hit": false,
      "t": 177549.75606250032,
      "d": 96.37856250000186,
      "v": 54
    },
    {
      "midi": 98,
      "hit": false,
      "t": 177554.13690625032,
      "d": 59.8715312499844,
      "v": 61
    },
    {
      "midi": 64,
      "hit": false,
      "t": 177555.59718750033,
      "d": 71.55378124999697,
      "v": 48
    },
    {
      "midi": 59,
      "hit": false,
      "t": 177564.35887500033,
      "d": 45.268718749983236,
      "v": 48
    },
    {
      "midi": 55,
      "hit": false,
      "t": 177568.73971875032,
      "d": 59.871531250013504,
      "v": 37
    },
    {
      "midi": 86,
      "hit": false,
      "t": 177571.6602812503,
      "d": 43.80843750000349,
      "v": 50
    },
    {
      "midi": 95,
      "hit": false,
      "t": 177780.48050000033,
      "d": 87.61687499997788,
      "v": 33
    },
    {
      "midi": 83,
      "hit": false,
      "t": 177783.4010625003,
      "d": 51.10984374998952,
      "v": 30
    },
    {
      "midi": 64,
      "hit": false,
      "t": 177783.4010625003,
      "d": 67.17293749999953,
      "v": 35
    },
    {
      "midi": 60,
      "hit": false,
      "t": 177796.5435937503,
      "d": 62.792093750002095,
      "v": 34
    },
    {
      "midi": 55,
      "hit": false,
      "t": 178106.1232187503,
      "d": 106.60053124997648,
      "v": 42
    },
    {
      "midi": 98,
      "hit": false,
      "t": 178120.7260312503,
      "d": 144.5678437499737,
      "v": 64
    },
    {
      "midi": 60,
      "hit": false,
      "t": 178142.63025000028,
      "d": 51.10984374998952,
      "v": 33
    },
    {
      "midi": 86,
      "hit": false,
      "t": 178161.61390625028,
      "d": 43.80843750000349,
      "v": 35
    },
    {
      "midi": 96,
      "hit": false,
      "t": 178338.30793750024,
      "d": 125.58418749997509,
      "v": 55
    },
    {
      "midi": 56,
      "hit": false,
      "t": 178342.68878125024,
      "d": 1283.5872187499772,
      "v": 37
    },
    {
      "midi": 64,
      "hit": false,
      "t": 178355.83131250023,
      "d": 1279.2063749999797,
      "v": 25
    },
    {
      "midi": 60,
      "hit": false,
      "t": 178368.97384375022,
      "d": 1254.381593750004,
      "v": 22
    },
    {
      "midi": 95,
      "hit": false,
      "t": 178563.1912500002,
      "d": 71.55378124999697,
      "v": 49
    },
    {
      "midi": 93,
      "hit": false,
      "t": 178757.4086562502,
      "d": 83.23603125000955,
      "v": 67
    },
    {
      "midi": 92,
      "hit": false,
      "t": 178967.6891562502,
      "d": 115.36221875000047,
      "v": 54
    },
    {
      "midi": 95,
      "hit": false,
      "t": 179150.2243125002,
      "d": 100.7594062499993,
      "v": 58
    },
    {
      "midi": 88,
      "hit": false,
      "t": 179325.4580625002,
      "d": 106.60053125000559,
      "v": 57
    },
    {
      "midi": 86,
      "hit": false,
      "t": 179510.91378125022,
      "d": 153.32953124999767,
      "v": 61
    },
    {
      "midi": 84,
      "hit": false,
      "t": 179690.52837500023,
      "d": 91.99771875000442,
      "v": 57
    },
    {
      "midi": 83,
      "hit": false,
      "t": 179862.84156250022,
      "d": 148.94868750000023,
      "v": 56
    },
    {
      "midi": 64,
      "hit": false,
      "t": 179870.1429687502,
      "d": 668.8088125000068,
      "v": 39
    },
    {
      "midi": 60,
      "hit": false,
      "t": 179880.3649375002,
      "d": 696.5541562500002,
      "v": 41
    },
    {
      "midi": 56,
      "hit": false,
      "t": 179890.58690625022,
      "d": 695.0938749999914,
      "v": 34
    },
    {
      "midi": 86,
      "hit": false,
      "t": 180062.9000937502,
      "d": 140.18700000000536,
      "v": 70
    },
    {
      "midi": 84,
      "hit": false,
      "t": 180257.11750000023,
      "d": 65.71265624999069,
      "v": 58
    },
    {
      "midi": 83,
      "hit": false,
      "t": 180441.1129375002,
      "d": 127.04446875001304,
      "v": 63
    },
    {
      "midi": 80,
      "hit": false,
      "t": 180652.8537187502,
      "d": 105.14024999999674,
      "v": 42
    },
    {
      "midi": 76,
      "hit": false,
      "t": 180809.1038125002,
      "d": 99.29912499999045,
      "v": 52
    },
    {
      "midi": 64,
      "hit": false,
      "t": 180812.02437500018,
      "d": 458.52831250001327,
      "v": 37
    },
    {
      "midi": 60,
      "hit": false,
      "t": 180831.00803125018,
      "d": 445.38578125002095,
      "v": 36
    },
    {
      "midi": 56,
      "hit": false,
      "t": 180844.15056250017,
      "d": 478.9722500000498,
      "v": 21
    },
    {
      "midi": 74,
      "hit": false,
      "t": 180991.6389687502,
      "d": 159.17065625000396,
      "v": 61
    },
    {
      "midi": 72,
      "hit": false,
      "t": 181174.1741250002,
      "d": 113.90193750002072,
      "v": 47
    },
    {
      "midi": 71,
      "hit": false,
      "t": 181350.86815625022,
      "d": 127.04446875001304,
      "v": 45
    },
    {
      "midi": 74,
      "hit": false,
      "t": 181526.10190625023,
      "d": 147.4884062500205,
      "v": 51
    },
    {
      "midi": 60,
      "hit": false,
      "t": 181676.51087500024,
      "d": 2552.5716250000114,
      "v": 22
    },
    {
      "midi": 64,
      "hit": false,
      "t": 181677.97115625025,
      "d": 1092.2903750000114,
      "v": 24
    },
    {
      "midi": 55,
      "hit": false,
      "t": 181683.81228125026,
      "d": 2556.952468750009,
      "v": 40
    },
    {
      "midi": 71,
      "hit": false,
      "t": 181704.25621875026,
      "d": 165.01178125001024,
      "v": 48
    },
    {
      "midi": 72,
      "hit": false,
      "t": 181924.75868750026,
      "d": 103.67996874998789,
      "v": 44
    },
    {
      "midi": 70,
      "hit": false,
      "t": 182167.16537500024,
      "d": 105.14024999999674,
      "v": 50
    },
    {
      "midi": 71,
      "hit": false,
      "t": 182254.78225000025,
      "d": 109.52109374999418,
      "v": 58
    },
    {
      "midi": 69,
      "hit": false,
      "t": 182519.09315625025,
      "d": 325.64271874999395,
      "v": 33
    },
    {
      "midi": 64,
      "hit": false,
      "t": 182846.19615625025,
      "d": 83.23603125000955,
      "v": 40
    },
    {
      "midi": 64,
      "hit": false,
      "t": 183101.74537500026,
      "d": 99.29912499999045,
      "v": 27
    },
    {
      "midi": 64,
      "hit": false,
      "t": 183341.23150000026,
      "d": 110.98137500000303,
      "v": 44
    },
    {
      "midi": 64,
      "hit": false,
      "t": 183596.78071875026,
      "d": 166.47206249999,
      "v": 30
    },
    {
      "midi": 64,
      "hit": false,
      "t": 183960.39075000025,
      "d": 822.1383437500044,
      "v": 38
    },
    {
      "midi": 55,
      "hit": false,
      "t": 184338.60359375027,
      "d": 51.10984374998952,
      "v": 40
    },
    {
      "midi": 62,
      "hit": false,
      "t": 184808.81415625027,
      "d": 75.93462499999441,
      "v": 40
    },
    {
      "midi": 74,
      "hit": false,
      "t": 185059.98253125028,
      "d": 565.1288437500189,
      "v": 41
    },
    {
      "midi": 65,
      "hit": false,
      "t": 185064.36337500028,
      "d": 556.367156250024,
      "v": 36
    },
    {
      "midi": 70,
      "hit": false,
      "t": 185071.66478125026,
      "d": 554.9068750000442,
      "v": 34
    },
    {
      "midi": 54,
      "hit": false,
      "t": 185077.50590625027,
      "d": 703.8555625000445,
      "v": 31
    },
    {
      "midi": 60,
      "hit": false,
      "t": 185108.17181250028,
      "d": 608.9372812500224,
      "v": 18
    },
    {
      "midi": 77,
      "hit": false,
      "t": 185880.6605937503,
      "d": 124.12390624999534,
      "v": 60
    },
    {
      "midi": 74,
      "hit": false,
      "t": 186086.5602500003,
      "d": 58.41125000000466,
      "v": 30
    },
    {
      "midi": 54,
      "hit": false,
      "t": 186276.39681250032,
      "d": 360.68946875003166,
      "v": 33
    },
    {
      "midi": 77,
      "hit": false,
      "t": 186286.61878125032,
      "d": 220.5024687500263,
      "v": 55
    },
    {
      "midi": 60,
      "hit": false,
      "t": 186288.07906250033,
      "d": 322.72215625000536,
      "v": 40
    },
    {
      "midi": 70,
      "hit": false,
      "t": 186326.04637500033,
      "d": 246.78753125001094,
      "v": 30
    },
    {
      "midi": 74,
      "hit": false,
      "t": 186749.52793750033,
      "d": 132.88559374999022,
      "v": 50
    },
    {
      "midi": 54,
      "hit": false,
      "t": 186758.28962500033,
      "d": 150.40896875000908,
      "v": 30
    },
    {
      "midi": 60,
      "hit": false,
      "t": 186786.03496875032,
      "d": 73.01406250000582,
      "v": 30
    },
    {
      "midi": 65,
      "hit": false,
      "t": 186787.49525000033,
      "d": 71.55378124999697,
      "v": 33
    },
    {
      "midi": 54,
      "hit": false,
      "t": 187133.58190625033,
      "d": 557.8274374999746,
      "v": 36
    },
    {
      "midi": 74,
      "hit": false,
      "t": 187133.58190625033,
      "d": 1045.5613749999902,
      "v": 45
    },
    {
      "midi": 70,
      "hit": false,
      "t": 187140.88331250031,
      "d": 687.7924687499763,
      "v": 43
    },
    {
      "midi": 65,
      "hit": false,
      "t": 187146.72443750032,
      "d": 820.6780624999665,
      "v": 34
    },
    {
      "midi": 60,
      "hit": false,
      "t": 187164.2478125003,
      "d": 433.7035312499793,
      "v": 36
    },
    {
      "midi": 54,
      "hit": false,
      "t": 187847.6594375003,
      "d": 146.02812500001164,
      "v": 33
    },
    {
      "midi": 60,
      "hit": false,
      "t": 187854.96084375028,
      "d": 64.25237500001094,
      "v": 36
    },
    {
      "midi": 70,
      "hit": false,
      "t": 188167.4610312503,
      "d": 124.12390625002445,
      "v": 39
    },
    {
      "midi": 69,
      "hit": false,
      "t": 188408.4074375003,
      "d": 33.58646874999977,
      "v": 66
    },
    {
      "midi": 65,
      "hit": false,
      "t": 188409.86771875032,
      "d": 35.04674999997951,
      "v": 58
    },
    {
      "midi": 43,
      "hit": false,
      "t": 188773.4777500003,
      "d": 52.57012499999837,
      "v": 49
    },
    {
      "midi": 53,
      "hit": false,
      "t": 188992.5199375003,
      "d": 245.3272500000021,
      "v": 38
    },
    {
      "midi": 60,
      "hit": false,
      "t": 189005.6624687503,
      "d": 153.32953124999767,
      "v": 46
    },
    {
      "midi": 57,
      "hit": false,
      "t": 189005.6624687503,
      "d": 188.3762812500063,
      "v": 39
    },
    {
      "midi": 43,
      "hit": false,
      "t": 189321.0832187503,
      "d": 1455.9004062500026,
      "v": 26
    },
    {
      "midi": 53,
      "hit": false,
      "t": 189325.4640625003,
      "d": 105.14024999999674,
      "v": 32
    },
    {
      "midi": 50,
      "hit": false,
      "t": 189341.52715625032,
      "d": 810.4560937499919,
      "v": 16
    },
    {
      "midi": 55,
      "hit": false,
      "t": 189480.2538750003,
      "d": 43.80843750000349,
      "v": 33
    },
    {
      "midi": 55,
      "hit": false,
      "t": 189566.41046875028,
      "d": 112.44165625001187,
      "v": 58
    },
    {
      "midi": 57,
      "hit": false,
      "t": 189677.3918437503,
      "d": 81.7757500000007,
      "v": 70
    },
    {
      "midi": 57,
      "hit": false,
      "t": 189798.5951875003,
      "d": 96.37856250000186,
      "v": 60
    },
    {
      "midi": 59,
      "hit": false,
      "t": 189896.4340312503,
      "d": 65.71265624999069,
      "v": 73
    },
    {
      "midi": 59,
      "hit": false,
      "t": 190007.4154062503,
      "d": 86.15659374999814,
      "v": 66
    },
    {
      "midi": 60,
      "hit": false,
      "t": 190103.7939687503,
      "d": 39.427593750006054,
      "v": 71
    },
    {
      "midi": 60,
      "hit": false,
      "t": 190232.2987187503,
      "d": 37.967312499997206,
      "v": 49
    },
    {
      "midi": 43,
      "hit": false,
      "t": 190944.9159687503,
      "d": 81.7757500000007,
      "v": 47
    },
    {
      "midi": 43,
      "hit": false,
      "t": 191217.9885625003,
      "d": 924.3580312499835,
      "v": 45
    },
    {
      "midi": 55,
      "hit": false,
      "t": 191634.1687187503,
      "d": 163.5514999999723,
      "v": 62
    },
    {
      "midi": 53,
      "hit": false,
      "t": 191657.5332187503,
      "d": 575.3508124999935,
      "v": 38
    },
    {
      "midi": 56,
      "hit": false,
      "t": 191832.76696875028,
      "d": 112.44165625001187,
      "v": 45
    },
    {
      "midi": 58,
      "hit": false,
      "t": 191981.71565625028,
      "d": 83.23603125000955,
      "v": 50
    },
    {
      "midi": 59,
      "hit": false,
      "t": 192095.6175937503,
      "d": 97.8388437499816,
      "v": 54
    },
    {
      "midi": 61,
      "hit": false,
      "t": 192221.20178125027,
      "d": 64.25237500001094,
      "v": 60
    },
    {
      "midi": 62,
      "hit": false,
      "t": 192354.0873750003,
      "d": 87.61687500000698,
      "v": 56
    },
    {
      "midi": 64,
      "hit": false,
      "t": 192459.2276250003,
      "d": 71.55378124999697,
      "v": 53
    },
    {
      "midi": 65,
      "hit": false,
      "t": 192587.73237500028,
      "d": 37.967312499997206,
      "v": 40
    },
    {
      "midi": 67,
      "hit": false,
      "t": 192694.3329062503,
      "d": 65.71265624999069,
      "v": 60
    },
    {
      "midi": 68,
      "hit": false,
      "t": 192790.7114687503,
      "d": 90.53743749996647,
      "v": 55
    },
    {
      "midi": 59,
      "hit": false,
      "t": 192812.61568750028,
      "d": 734.5214687499974,
      "v": 26
    },
    {
      "midi": 53,
      "hit": false,
      "t": 192821.37737500027,
      "d": 664.4279687500093,
      "v": 27
    },
    {
      "midi": 64,
      "hit": false,
      "t": 192843.28159375026,
      "d": 178.15431250000256,
      "v": 15
    },
    {
      "midi": 73,
      "hit": false,
      "t": 193100.29109375027,
      "d": 36.50703124998836,
      "v": 33
    },
    {
      "midi": 72,
      "hit": false,
      "t": 193224.41500000027,
      "d": 45.26871875001234,
      "v": 39
    },
    {
      "midi": 76,
      "hit": false,
      "t": 193339.77721875027,
      "d": 89.07715624998673,
      "v": 43
    },
    {
      "midi": 77,
      "hit": false,
      "t": 193449.29831250026,
      "d": 70.09350000001723,
      "v": 38
    },
    {
      "midi": 79,
      "hit": false,
      "t": 193586.56475000028,
      "d": 80.31546874999185,
      "v": 63
    },
    {
      "midi": 80,
      "hit": false,
      "t": 193716.52978125028,
      "d": 128.50474999999278,
      "v": 60
    },
    {
      "midi": 81,
      "hit": false,
      "t": 193899.06493750028,
      "d": 116.82250000000931,
      "v": 26
    },
    {
      "midi": 59,
      "hit": false,
      "t": 193918.04859375028,
      "d": 341.70581249997485,
      "v": 36
    },
    {
      "midi": 64,
      "hit": false,
      "t": 193960.39675000028,
      "d": 296.4370937499916,
      "v": 17
    },
    {
      "midi": 53,
      "hit": false,
      "t": 193983.7612500003,
      "d": 283.2945624999411,
      "v": 24
    },
    {
      "midi": 82,
      "hit": false,
      "t": 194066.99728125028,
      "d": 106.60053124997648,
      "v": 50
    },
    {
      "midi": 83,
      "hit": false,
      "t": 194198.42259375026,
      "d": 122.6636249999865,
      "v": 44
    },
    {
      "midi": 84,
      "hit": false,
      "t": 194375.11662500026,
      "d": 157.7103749999951,
      "v": 37
    },
    {
      "midi": 86,
      "hit": false,
      "t": 194480.25687500025,
      "d": 37.967312499997206,
      "v": 49
    },
    {
      "midi": 88,
      "hit": false,
      "t": 194623.36443750025,
      "d": 83.23603125000955,
      "v": 65
    },
    {
      "midi": 52,
      "hit": false,
      "t": 194637.96725000025,
      "d": 388.43481249999604,
      "v": 46
    },
    {
      "midi": 76,
      "hit": false,
      "t": 195036.62403125025,
      "d": 100.7594062499993,
      "v": 54
    },
    {
      "midi": 65,
      "hit": false,
      "t": 195051.22684375025,
      "d": 45.268718749983236,
      "v": 44
    },
    {
      "midi": 69,
      "hit": false,
      "t": 195054.14740625024,
      "d": 43.80843750000349,
      "v": 45
    },
    {
      "midi": 71,
      "hit": false,
      "t": 195061.44881250022,
      "d": 52.570125000027474,
      "v": 40
    },
    {
      "midi": 64,
      "hit": false,
      "t": 195073.13106250024,
      "d": 62.792093750002095,
      "v": 47
    },
    {
      "midi": 76,
      "hit": false,
      "t": 195419.21771875024,
      "d": 110.98137500003213,
      "v": 52
    },
    {
      "midi": 69,
      "hit": false,
      "t": 195444.04250000024,
      "d": 45.26871875001234,
      "v": 46
    },
    {
      "midi": 64,
      "hit": false,
      "t": 195445.50278125025,
      "d": 83.23603125000955,
      "v": 42
    },
    {
      "midi": 71,
      "hit": false,
      "t": 195449.88362500025,
      "d": 49.64956250000978,
      "v": 41
    },
    {
      "midi": 65,
      "hit": false,
      "t": 195460.10559375025,
      "d": 33.58646874999977,
      "v": 22
    },
    {
      "midi": 62,
      "hit": false,
      "t": 195613.43512500028,
      "d": 97.83884375001071,
      "v": 34
    },
    {
      "midi": 76,
      "hit": false,
      "t": 195752.16184375028,
      "d": 887.8509999999951,
      "v": 43
    },
    {
      "midi": 65,
      "hit": false,
      "t": 195766.76465625028,
      "d": 690.7130312499648,
      "v": 28
    },
    {
      "midi": 69,
      "hit": false,
      "t": 195771.14550000028,
      "d": 743.2831562499632,
      "v": 47
    },
    {
      "midi": 71,
      "hit": false,
      "t": 195781.36746875028,
      "d": 829.4397499999905,
      "v": 40
    },
    {
      "midi": 64,
      "hit": false,
      "t": 195784.28803125027,
      "d": 772.4887812499946,
      "v": 30
    },
    {
      "midi": 52,
      "hit": false,
      "t": 196301.22759375026,
      "d": 229.26415624999208,
      "v": 34
    },
    {
      "midi": 88,
      "hit": false,
      "t": 197199.30056250028,
      "d": 515.47928124998,
      "v": 90
    },
    {
      "midi": 77,
      "hit": false,
      "t": 197447.54837500027,
      "d": 271.61231249998673,
      "v": 26
    },
    {
      "midi": 81,
      "hit": false,
      "t": 197758.58828125027,
      "d": 186.91599999999744,
      "v": 48
    },
    {
      "midi": 76,
      "hit": false,
      "t": 198317.87600000025,
      "d": 728.6803437500203,
      "v": 67
    },
    {
      "midi": 64,
      "hit": false,
      "t": 198344.16106250026,
      "d": 61.33181249999325,
      "v": 29
    },
    {
      "midi": 65,
      "hit": false,
      "t": 198612.85281250026,
      "d": 642.5237500000221,
      "v": 12
    },
    {
      "midi": 69,
      "hit": false,
      "t": 198904.90906250026,
      "d": 407.41846875002375,
      "v": 40
    },
    {
      "midi": 76,
      "hit": false,
      "t": 199321.08921875028,
      "d": 242.4066875000135,
      "v": 55
    },
    {
      "midi": 65,
      "hit": false,
      "t": 199617.5263125003,
      "d": 273.0725937499956,
      "v": 51
    },
    {
      "midi": 68,
      "hit": false,
      "t": 199946.08959375028,
      "d": 366.53059375000885,
      "v": 39
    },
    {
      "midi": 62,
      "hit": false,
      "t": 199985.51718750029,
      "d": 405.9581875000149,
      "v": 30
    },
    {
      "midi": 58,
      "hit": false,
      "t": 199988.43775000027,
      "d": 454.14746875001583,
      "v": 34
    },
    {
      "midi": 52,
      "hit": false,
      "t": 199994.27887500028,
      "d": 927.2785937500012,
      "v": 29
    },
    {
      "midi": 76,
      "hit": false,
      "t": 200311.15990625028,
      "d": 335.8646875000268,
      "v": 50
    },
    {
      "midi": 62,
      "hit": false,
      "t": 200696.67415625032,
      "d": 388.43481249996694,
      "v": 42
    },
    {
      "midi": 65,
      "hit": false,
      "t": 200724.4195000003,
      "d": 341.70581249997485,
      "v": 51
    },
    {
      "midi": 68,
      "hit": false,
      "t": 201061.7444687503,
      "d": 240.94640625000466,
      "v": 62
    },
    {
      "midi": 60,
      "hit": false,
      "t": 201438.4970312503,
      "d": 525.7012499999837,
      "v": 31
    },
    {
      "midi": 64,
      "hit": false,
      "t": 201441.4175937503,
      "d": 521.3204062499863,
      "v": 19
    },
    {
      "midi": 76,
      "hit": false,
      "t": 201450.17928125028,
      "d": 534.4629375000077,
      "v": 71
    },
    {
      "midi": 55,
      "hit": false,
      "t": 201450.17928125028,
      "d": 1247.080187500018,
      "v": 25
    },
    {
      "midi": 59,
      "hit": false,
      "t": 201460.4012500003,
      "d": 467.28999999997905,
      "v": 28
    },
    {
      "midi": 67,
      "hit": false,
      "t": 201853.21690625028,
      "d": 300.81793750001816,
      "v": 51
    },
    {
      "midi": 60,
      "hit": false,
      "t": 202228.5091875003,
      "d": 474.5914062499942,
      "v": 32
    },
    {
      "midi": 69,
      "hit": false,
      "t": 202229.96946875032,
      "d": 2608.06231249994,
      "v": 37
    },
    {
      "midi": 64,
      "hit": false,
      "t": 202232.8900312503,
      "d": 467.29000000000815,
      "v": 29
    },
    {
      "midi": 59,
      "hit": false,
      "t": 202254.7942500003,
      "d": 443.9255000000121,
      "v": 17
    },
    {
      "midi": 60,
      "hit": false,
      "t": 203003.9185312503,
      "d": 62.79209374997299,
      "v": 37
    },
    {
      "midi": 64,
      "hit": false,
      "t": 203006.83909375028,
      "d": 56.95096874999581,
      "v": 30
    },
    {
      "midi": 64,
      "hit": false,
      "t": 203574.88850000026,
      "d": 616.2386875000084,
      "v": 24
    },
    {
      "midi": 60,
      "hit": false,
      "t": 203576.34878125027,
      "d": 643.9840312500019,
      "v": 33
    },
    {
      "midi": 59,
      "hit": false,
      "t": 203601.17356250028,
      "d": 587.033062500006,
      "v": 24
    },
    {
      "midi": 64,
      "hit": false,
      "t": 204681.78168750028,
      "d": 75.93462499999441,
      "v": 24
    },
    {
      "midi": 60,
      "hit": false,
      "t": 204702.22562500028,
      "d": 42.348156249994645,
      "v": 24
    },
    {
      "midi": 71,
      "hit": false,
      "t": 205229.38715625028,
      "d": 544.6849062500114,
      "v": 51
    },
    {
      "midi": 64,
      "hit": false,
      "t": 205255.6722187503,
      "d": 417.64043749999837,
      "v": 29
    },
    {
      "midi": 68,
      "hit": false,
      "t": 205264.43390625028,
      "d": 537.3835000000254,
      "v": 34
    },
    {
      "midi": 63,
      "hit": false,
      "t": 205267.35446875027,
      "d": 518.3998437500268,
      "v": 30
    },
    {
      "midi": 57,
      "hit": false,
      "t": 205268.81475000028,
      "d": 534.4629375000368,
      "v": 35
    },
    {
      "midi": 74,
      "hit": false,
      "t": 206143.5232187503,
      "d": 125.58418750000419,
      "v": 82
    },
    {
      "midi": 63,
      "hit": false,
      "t": 206156.6657500003,
      "d": 138.7267187500256,
      "v": 36
    },
    {
      "midi": 67,
      "hit": false,
      "t": 206165.4274375003,
      "d": 68.63321875000838,
      "v": 39
    },
    {
      "midi": 57,
      "hit": false,
      "t": 206166.8877187503,
      "d": 97.83884375001071,
      "v": 39
    },
    {
      "midi": 72,
      "hit": false,
      "t": 206331.89950000032,
      "d": 68.63321875000838,
      "v": 29
    },
    {
      "midi": 63,
      "hit": false,
      "t": 206491.07015625032,
      "d": 306.65906249999534,
      "v": 25
    },
    {
      "midi": 74,
      "hit": false,
      "t": 206495.45100000032,
      "d": 414.7198749999807,
      "v": 65
    },
    {
      "midi": 67,
      "hit": false,
      "t": 206504.21268750032,
      "d": 262.85062499999185,
      "v": 39
    },
    {
      "midi": 62,
      "hit": false,
      "t": 206507.1332500003,
      "d": 313.9604687500105,
      "v": 34
    },
    {
      "midi": 57,
      "hit": false,
      "t": 206512.9743750003,
      "d": 305.1987812500156,
      "v": 32
    },
    {
      "midi": 71,
      "hit": false,
      "t": 206948.1381875003,
      "d": 1030.958562499989,
      "v": 42
    },
    {
      "midi": 63,
      "hit": false,
      "t": 206952.5190312503,
      "d": 652.7457187499967,
      "v": 32
    },
    {
      "midi": 62,
      "hit": false,
      "t": 206953.9793125003,
      "d": 581.1919374999998,
      "v": 27
    },
    {
      "midi": 57,
      "hit": false,
      "t": 206958.3601562503,
      "d": 591.4139062500035,
      "v": 32
    },
    {
      "midi": 67,
      "hit": false,
      "t": 206968.5821250003,
      "d": 497.9559062499902,
      "v": 24
    },
    {
      "midi": 63,
      "hit": false,
      "t": 207869.5756562503,
      "d": 219.04218749998836,
      "v": 29
    },
    {
      "midi": 67,
      "hit": false,
      "t": 207879.7976250003,
      "d": 147.48840624999139,
      "v": 29
    },
    {
      "midi": 62,
      "hit": false,
      "t": 207885.6387500003,
      "d": 192.75712499997462,
      "v": 24
    },
    {
      "midi": 57,
      "hit": false,
      "t": 207909.0032500003,
      "d": 204.4393749999872,
      "v": 24
    },
    {
      "midi": 95,
      "hit": false,
      "t": 208966.24687500027,
      "d": 45.26871875001234,
      "v": 64
    },
    {
      "midi": 83,
      "hit": false,
      "t": 208972.08800000028,
      "d": 42.34815625002375,
      "v": 50
    },
    {
      "midi": 91,
      "hit": false,
      "t": 208976.46884375028,
      "d": 37.96731250002631,
      "v": 48
    },
    {
      "midi": 88,
      "hit": false,
      "t": 208977.9291250003,
      "d": 35.046750000008615,
      "v": 51
    },
    {
      "midi": 64,
      "hit": false,
      "t": 208983.7702500003,
      "d": 37.967312499997206,
      "v": 54
    },
    {
      "midi": 60,
      "hit": false,
      "t": 208989.6113750003,
      "d": 42.348156249994645,
      "v": 53
    },
    {
      "midi": 59,
      "hit": false,
      "t": 208996.91278125028,
      "d": 37.967312499997206,
      "v": 36
    },
    {
      "midi": 64,
      "hit": false,
      "t": 209743.1165000003,
      "d": 230.72443750000093,
      "v": 51
    },
    {
      "midi": 55,
      "hit": false,
      "t": 209747.4973437503,
      "d": 210.28049999999348,
      "v": 58
    },
    {
      "midi": 95,
      "hit": false,
      "t": 209748.9576250003,
      "d": 186.91599999999744,
      "v": 69
    },
    {
      "midi": 83,
      "hit": false,
      "t": 209751.8781875003,
      "d": 192.75712500000373,
      "v": 57
    },
    {
      "midi": 60,
      "hit": false,
      "t": 209751.8781875003,
      "d": 236.56556250000722,
      "v": 51
    },
    {
      "midi": 91,
      "hit": false,
      "t": 209753.3384687503,
      "d": 219.04218749998836,
      "v": 59
    },
    {
      "midi": 88,
      "hit": false,
      "t": 209754.7987500003,
      "d": 246.78753124998184,
      "v": 60
    },
    {
      "midi": 59,
      "hit": false,
      "t": 209763.5604375003,
      "d": 213.20106249998207,
      "v": 35
    },
    {
      "midi": 93,
      "hit": false,
      "t": 210112.5676562503,
      "d": 91.99771874997532,
      "v": 56
    },
    {
      "midi": 81,
      "hit": false,
      "t": 210127.1704687503,
      "d": 83.23603124998044,
      "v": 36
    },
    {
      "midi": 64,
      "hit": false,
      "t": 210144.69384375028,
      "d": 56.950968749966705,
      "v": 38
    },
    {
      "midi": 60,
      "hit": false,
      "t": 210144.69384375028,
      "d": 81.7757499999716,
      "v": 50
    },
    {
      "midi": 88,
      "hit": false,
      "t": 210149.07468750028,
      "d": 64.25237499998184,
      "v": 29
    },
    {
      "midi": 59,
      "hit": false,
      "t": 210157.83637500028,
      "d": 45.268718749983236,
      "v": 29
    },
    {
      "midi": 55,
      "hit": false,
      "t": 210166.59806250027,
      "d": 32.12618749999092,
      "v": 25
    },
    {
      "midi": 88,
      "hit": false,
      "t": 210299.48365625026,
      "d": 391.35537500001374,
      "v": 55
    },
    {
      "midi": 83,
      "hit": false,
      "t": 210308.24534375026,
      "d": 379.67312500003027,
      "v": 56
    },
    {
      "midi": 91,
      "hit": false,
      "t": 210309.70562500026,
      "d": 416.18015625004773,
      "v": 57
    },
    {
      "midi": 95,
      "hit": false,
      "t": 210311.16590625027,
      "d": 408.8787500000326,
      "v": 66
    },
    {
      "midi": 55,
      "hit": false,
      "t": 210317.00703125028,
      "d": 385.51425000000745,
      "v": 60
    },
    {
      "midi": 60,
      "hit": false,
      "t": 210318.4673125003,
      "d": 429.32268750001094,
      "v": 59
    },
    {
      "midi": 64,
      "hit": false,
      "t": 210319.9275937503,
      "d": 394.2759375000023,
      "v": 58
    },
    {
      "midi": 59,
      "hit": false,
      "t": 210331.6098437503,
      "d": 413.25959375000093,
      "v": 55
    },
    {
      "midi": 60,
      "hit": false,
      "t": 211226.7622500003,
      "d": 382.59368749998976,
      "v": 49
    },
    {
      "midi": 98,
      "hit": false,
      "t": 211229.68281250028,
      "d": 283.2945624999993,
      "v": 65
    },
    {
      "midi": 55,
      "hit": false,
      "t": 211231.1430937503,
      "d": 389.8950937500049,
      "v": 39
    },
    {
      "midi": 64,
      "hit": false,
      "t": 211235.5239375003,
      "d": 346.0866562500014,
      "v": 28
    },
    {
      "midi": 59,
      "hit": false,
      "t": 211239.90478125028,
      "d": 359.2291874999937,
      "v": 31
    },
    {
      "midi": 86,
      "hit": false,
      "t": 211241.3650625003,
      "d": 350.46749999999884,
      "v": 49
    },
    {
      "midi": 94,
      "hit": false,
      "t": 211971.5056875003,
      "d": 671.7293750000244,
      "v": 51
    },
    {
      "midi": 82,
      "hit": false,
      "t": 211972.9659687503,
      "d": 692.1733125000028,
      "v": 37
    },
    {
      "midi": 60,
      "hit": false,
      "t": 211977.3468125003,
      "d": 591.4139062500035,
      "v": 36
    },
    {
      "midi": 54,
      "hit": false,
      "t": 211987.5687812503,
      "d": 595.7947500000009,
      "v": 37
    },
    {
      "midi": 64,
      "hit": false,
      "t": 211990.4893437503,
      "d": 503.7970312500256,
      "v": 34
    },
    {
      "midi": 54,
      "hit": false,
      "t": 212856.4361250003,
      "d": 519.8601249999774,
      "v": 35
    },
    {
      "midi": 93,
      "hit": false,
      "t": 212860.8169687503,
      "d": 511.09843749998254,
      "v": 43
    },
    {
      "midi": 64,
      "hit": false,
      "t": 212875.4197812503,
      "d": 468.7502812499879,
      "v": 30
    },
    {
      "midi": 60,
      "hit": false,
      "t": 212879.8006250003,
      "d": 478.9722499999916,
      "v": 39
    },
    {
      "midi": 81,
      "hit": false,
      "t": 212890.0225937503,
      "d": 530.0820937499811,
      "v": 29
    },
    {
      "midi": 91,
      "hit": false,
      "t": 213650.82912500028,
      "d": 483.35309375001816,
      "v": 45
    },
    {
      "midi": 79,
      "hit": false,
      "t": 213652.2894062503,
      "d": 546.1451874999912,
      "v": 37
    },
    {
      "midi": 64,
      "hit": false,
      "t": 213663.9716562503,
      "d": 512.5587187499914,
      "v": 30
    },
    {
      "midi": 54,
      "hit": false,
      "t": 213665.4319375003,
      "d": 578.2713749999821,
      "v": 30
    },
    {
      "midi": 60,
      "hit": false,
      "t": 213672.7333437503,
      "d": 495.03534375000163,
      "v": 34
    },
    {
      "midi": 87,
      "hit": false,
      "t": 214576.6474375003,
      "d": 411.7993124999921,
      "v": 53
    },
    {
      "midi": 54,
      "hit": false,
      "t": 214576.6474375003,
      "d": 446.8460625000007,
      "v": 37
    },
    {
      "midi": 75,
      "hit": false,
      "t": 214585.4091250003,
      "d": 452.687187500007,
      "v": 36
    },
    {
      "midi": 64,
      "hit": false,
      "t": 214600.0119375003,
      "d": 446.8460625000007,
      "v": 25
    },
    {
      "midi": 60,
      "hit": false,
      "t": 214608.7736250003,
      "d": 391.35537500001374,
      "v": 35
    },
    {
      "midi": 55,
      "hit": false,
      "t": 215343.29509375032,
      "d": 416.1801562499895,
      "v": 28
    },
    {
      "midi": 86,
      "hit": false,
      "t": 215349.13621875033,
      "d": 202.97909375000745,
      "v": 48
    },
    {
      "midi": 74,
      "hit": false,
      "t": 215365.19931250034,
      "d": 313.9604687499814,
      "v": 30
    },
    {
      "midi": 60,
      "hit": false,
      "t": 215368.11987500032,
      "d": 264.3109062500007,
      "v": 30
    },
    {
      "midi": 57,
      "hit": false,
      "t": 215369.58015625033,
      "d": 360.68946874997346,
      "v": 31
    },
    {
      "midi": 65,
      "hit": false,
      "t": 215371.04043750034,
      "d": 261.390343749983,
      "v": 22
    },
    {
      "midi": 53,
      "hit": false,
      "t": 216435.58546875033,
      "d": 458.52831250001327,
      "v": 58
    },
    {
      "midi": 64,
      "hit": false,
      "t": 216439.96631250033,
      "d": 505.25731250003446,
      "v": 54
    },
    {
      "midi": 57,
      "hit": false,
      "t": 216451.64856250034,
      "d": 452.687187500007,
      "v": 53
    },
    {
      "midi": 52,
      "hit": false,
      "t": 216456.02940625034,
      "d": 477.5119687500119,
      "v": 51
    },
    {
      "midi": 60,
      "hit": false,
      "t": 216464.79109375033,
      "d": 483.35309375001816,
      "v": 51
    },
    {
      "midi": 62,
      "hit": false,
      "t": 217000.71431250035,
      "d": 822.1383437500335,
      "v": 35
    },
    {
      "midi": 53,
      "hit": false,
      "t": 217031.38021875036,
      "d": 309.57962500001304,
      "v": 30
    },
    {
      "midi": 50,
      "hit": false,
      "t": 217037.22134375037,
      "d": 915.5963437500468,
      "v": 43
    },
    {
      "midi": 57,
      "hit": false,
      "t": 217038.68162500038,
      "d": 606.0167187500047,
      "v": 42
    },
    {
      "midi": 60,
      "hit": false,
      "t": 217929.4531875004,
      "d": 638.1429062500247,
      "v": 45
    },
    {
      "midi": 57,
      "hit": false,
      "t": 217929.4531875004,
      "d": 645.4443125000107,
      "v": 40
    },
    {
      "midi": 64,
      "hit": false,
      "t": 217939.6751562504,
      "d": 680.4910625000193,
      "v": 35
    },
    {
      "midi": 55,
      "hit": false,
      "t": 217951.3574062504,
      "d": 420.56100000001607,
      "v": 28
    },
    {
      "midi": 43,
      "hit": false,
      "t": 218649.3718437504,
      "d": 712.6172499999811,
      "v": 40
    },
    {
      "midi": 55,
      "hit": false,
      "t": 218871.3345937504,
      "d": 68.63321875000838,
      "v": 46
    },
    {
      "midi": 56,
      "hit": false,
      "t": 218986.6968125004,
      "d": 73.01406250000582,
      "v": 39
    },
    {
      "midi": 58,
      "hit": false,
      "t": 219069.9328437504,
      "d": 75.93462499999441,
      "v": 51
    },
    {
      "midi": 59,
      "hit": false,
      "t": 219173.6128125004,
      "d": 73.01406250000582,
      "v": 60
    },
    {
      "midi": 61,
      "hit": false,
      "t": 219274.3722187504,
      "d": 59.871531250013504,
      "v": 61
    },
    {
      "midi": 53,
      "hit": false,
      "t": 219322.5615000004,
      "d": 173.77346875000512,
      "v": 1
    },
    {
      "midi": 62,
      "hit": false,
      "t": 219414.5592187504,
      "d": 90.53743749999558,
      "v": 44
    },
    {
      "midi": 64,
      "hit": false,
      "t": 219516.7789062504,
      "d": 110.98137500000303,
      "v": 60
    },
    {
      "midi": 65,
      "hit": false,
      "t": 219661.3467500004,
      "d": 46.728999999992084,
      "v": 60
    },
    {
      "midi": 67,
      "hit": false,
      "t": 219785.4706562504,
      "d": 94.91828124999302,
      "v": 62
    },
    {
      "midi": 68,
      "hit": false,
      "t": 219927.11793750038,
      "d": 91.99771875000442,
      "v": 40
    },
    {
      "midi": 70,
      "hit": false,
      "t": 220089.20915625038,
      "d": 55.49068749998696,
      "v": 35
    },
    {
      "midi": 71,
      "hit": false,
      "t": 220233.77700000035,
      "d": 71.55378124999697,
      "v": 34
    },
    {
      "midi": 73,
      "hit": false,
      "t": 220717.13009375034,
      "d": 91.99771875003353,
      "v": 45
    },
    {
      "midi": 59,
      "hit": false,
      "t": 220807.66753125036,
      "d": 446.8460624999716,
      "v": 24
    },
    {
      "midi": 64,
      "hit": false,
      "t": 220816.42921875036,
      "d": 400.1170624999795,
      "v": 20
    },
    {
      "midi": 74,
      "hit": false,
      "t": 220833.95259375035,
      "d": 112.44165625001187,
      "v": 57
    },
    {
      "midi": 53,
      "hit": false,
      "t": 220838.33343750035,
      "d": 499.41618749999907,
      "v": 24
    },
    {
      "midi": 75,
      "hit": false,
      "t": 221009.18634375036,
      "d": 94.91828124999302,
      "v": 58
    },
    {
      "midi": 76,
      "hit": false,
      "t": 221165.43643750035,
      "d": 122.6636249999865,
      "v": 39
    },
    {
      "midi": 77,
      "hit": false,
      "t": 221299.78231250035,
      "d": 99.29912499999045,
      "v": 50
    },
    {
      "midi": 78,
      "hit": false,
      "t": 221469.17493750033,
      "d": 135.8061562499788,
      "v": 57
    },
    {
      "midi": 79,
      "hit": false,
      "t": 221634.1867187503,
      "d": 94.91828124999302,
      "v": 49
    },
    {
      "midi": 81,
      "hit": false,
      "t": 221815.2615937503,
      "d": 106.60053125000559,
      "v": 77
    },
    {
      "midi": 79,
      "hit": false,
      "t": 222005.09815625031,
      "d": 132.88559374999022,
      "v": 64
    },
    {
      "midi": 48,
      "hit": false,
      "t": 222059.12856250032,
      "d": 1109.813749999972,
      "v": 35
    },
    {
      "midi": 55,
      "hit": false,
      "t": 222072.2710937503,
      "d": 1095.210937499971,
      "v": 30
    },
    {
      "midi": 60,
      "hit": false,
      "t": 222250.42540625032,
      "d": 746.2037187499809,
      "v": 1
    },
    {
      "midi": 78,
      "hit": false,
      "t": 222260.64737500032,
      "d": 109.52109374999418,
      "v": 54
    },
    {
      "midi": 79,
      "hit": false,
      "t": 222430.04000000033,
      "d": 132.88559374999022,
      "v": 54
    },
    {
      "midi": 78,
      "hit": false,
      "t": 222576.0681250003,
      "d": 99.29912499999045,
      "v": 50
    },
    {
      "midi": 74,
      "hit": false,
      "t": 222727.9373750003,
      "d": 94.91828124999302,
      "v": 51
    },
    {
      "midi": 69,
      "hit": false,
      "t": 222888.56831250028,
      "d": 73.01406250000582,
      "v": 45
    },
    {
      "midi": 66,
      "hit": false,
      "t": 223037.51700000028,
      "d": 132.88559375001932,
      "v": 46
    },
    {
      "midi": 62,
      "hit": false,
      "t": 223202.5287812503,
      "d": 70.09349999998813,
      "v": 39
    },
    {
      "midi": 64,
      "hit": false,
      "t": 223371.92140625027,
      "d": 679.0307812500105,
      "v": 32
    },
    {
      "midi": 48,
      "hit": false,
      "t": 223411.34900000028,
      "d": 1470.5032187499746,
      "v": 38
    },
    {
      "midi": 55,
      "hit": false,
      "t": 223424.49153125027,
      "d": 417.64043749999837,
      "v": 24
    },
    {
      "midi": 55,
      "hit": false,
      "t": 224319.64393750028,
      "d": 947.7225312499795,
      "v": 30
    },
    {
      "midi": 59,
      "hit": false,
      "t": 224322.56450000027,
      "d": 804.6149687499856,
      "v": 34
    },
    {
      "midi": 64,
      "hit": false,
      "t": 224329.86590625026,
      "d": 874.7084687500028,
      "v": 33
    },
    {
      "midi": 48,
      "hit": false,
      "t": 225493.71006250023,
      "d": 468.750281250017,
      "v": 28
    },
    {
      "midi": 59,
      "hit": false,
      "t": 225495.17034375024,
      "d": 388.43481249999604,
      "v": 28
    },
    {
      "midi": 64,
      "hit": false,
      "t": 225508.31287500024,
      "d": 505.25731250000536,
      "v": 24
    },
    {
      "midi": 55,
      "hit": false,
      "t": 225518.53484375024,
      "d": 446.8460625000007,
      "v": 25
    },
    {
      "midi": 78,
      "hit": false,
      "t": 226805.04262500023,
      "d": 144.5678437500028,
      "v": 68
    },
    {
      "midi": 69,
      "hit": false,
      "t": 226825.48656250024,
      "d": 52.57012499999837,
      "v": 64
    },
    {
      "midi": 74,
      "hit": false,
      "t": 226825.48656250024,
      "d": 96.37856250000186,
      "v": 62
    },
    {
      "midi": 79,
      "hit": false,
      "t": 226984.65721875025,
      "d": 121.20334375000675,
      "v": 70
    },
    {
      "midi": 78,
      "hit": false,
      "t": 227178.87462500026,
      "d": 176.69403125002282,
      "v": 63
    },
    {
      "midi": 74,
      "hit": false,
      "t": 227189.09659375026,
      "d": 147.4884062500205,
      "v": 68
    },
    {
      "midi": 69,
      "hit": false,
      "t": 227199.31856250027,
      "d": 194.21740625001257,
      "v": 68
    },
    {
      "midi": 73,
      "hit": false,
      "t": 227469.47059375027,
      "d": 100.7594062499993,
      "v": 27
    },
    {
      "midi": 71,
      "hit": false,
      "t": 227663.68800000026,
      "d": 191.29684375002398,
      "v": 58
    },
    {
      "midi": 63,
      "hit": false,
      "t": 227675.37025000027,
      "d": 128.50474999999278,
      "v": 52
    },
    {
      "midi": 67,
      "hit": false,
      "t": 227682.67165625026,
      "d": 146.02812500001164,
      "v": 60
    },
    {
      "midi": 62,
      "hit": false,
      "t": 227710.41700000025,
      "d": 68.63321875000838,
      "v": 41
    },
    {
      "midi": 74,
      "hit": false,
      "t": 227876.88906250027,
      "d": 135.80615625000792,
      "v": 64
    },
    {
      "midi": 63,
      "hit": false,
      "t": 227891.49187500027,
      "d": 102.21968750000815,
      "v": 30
    },
    {
      "midi": 67,
      "hit": false,
      "t": 227925.07834375027,
      "d": 55.490687500016065,
      "v": 20
    },
    {
      "midi": 63,
      "hit": false,
      "t": 228071.10646875028,
      "d": 303.73850000000675,
      "v": 48
    },
    {
      "midi": 71,
      "hit": false,
      "t": 228075.48731250028,
      "d": 430.7829687499907,
      "v": 56
    },
    {
      "midi": 67,
      "hit": false,
      "t": 228095.93125000029,
      "d": 226.3435937500035,
      "v": 57
    },
    {
      "midi": 62,
      "hit": false,
      "t": 228104.69293750028,
      "d": 67.17293749999953,
      "v": 36
    },
    {
      "midi": 67,
      "hit": false,
      "t": 228449.31931250027,
      "d": 119.7430624999979,
      "v": 49
    },
    {
      "midi": 63,
      "hit": false,
      "t": 228599.72828125028,
      "d": 73.01406250000582,
      "v": 45
    },
    {
      "midi": 67,
      "hit": false,
      "t": 228823.1513125003,
      "d": 832.3603125000081,
      "v": 35
    },
    {
      "midi": 60,
      "hit": false,
      "t": 228836.2938437503,
      "d": 733.0611875000177,
      "v": 38
    },
    {
      "midi": 59,
      "hit": false,
      "t": 228842.1349687503,
      "d": 886.3907187500154,
      "v": 34
    },
    {
      "midi": 64,
      "hit": false,
      "t": 228856.7377812503,
      "d": 757.8859687500226,
      "v": 32
    },
    {
      "midi": 50,
      "hit": false,
      "t": 228864.03918750028,
      "d": 3444.8034687499166,
      "v": 24
    },
    {
      "midi": 69,
      "hit": false,
      "t": 229754.81075000032,
      "d": 78.85518750001211,
      "v": 42
    },
    {
      "midi": 57,
      "hit": false,
      "t": 229770.87384375033,
      "d": 146.02812500001164,
      "v": 33
    },
    {
      "midi": 69,
      "hit": false,
      "t": 229957.78984375033,
      "d": 113.90193749999162,
      "v": 57
    },
    {
      "midi": 59,
      "hit": false,
      "t": 230003.05856250034,
      "d": 61.33181249999325,
      "v": 31
    },
    {
      "midi": 62,
      "hit": false,
      "t": 230305.3367812503,
      "d": 36.50703124998836,
      "v": 51
    },
    {
      "midi": 74,
      "hit": false,
      "t": 230309.7176250003,
      "d": 83.23603124998044,
      "v": 74
    },
    {
      "midi": 71,
      "hit": false,
      "t": 230530.22009375028,
      "d": 195.6776874999632,
      "v": 52
    },
    {
      "midi": 67,
      "hit": false,
      "t": 230533.14065625027,
      "d": 151.86924999998882,
      "v": 48
    },
    {
      "midi": 64,
      "hit": false,
      "t": 230536.06121875026,
      "d": 140.18700000000536,
      "v": 39
    },
    {
      "midi": 59,
      "hit": false,
      "t": 230547.74346875027,
      "d": 86.15659374999814,
      "v": 46
    },
    {
      "midi": 60,
      "hit": false,
      "t": 230552.12431250027,
      "d": 54.03040625000722,
      "v": 33
    },
    {
      "midi": 69,
      "hit": false,
      "t": 230854.40253125023,
      "d": 78.85518750001211,
      "v": 50
    },
    {
      "midi": 57,
      "hit": false,
      "t": 230914.27406250025,
      "d": 71.55378124999697,
      "v": 30
    },
    {
      "midi": 71,
      "hit": false,
      "t": 231051.54050000024,
      "d": 124.12390624999534,
      "v": 58
    },
    {
      "midi": 67,
      "hit": false,
      "t": 231085.12696875024,
      "d": 61.33181249999325,
      "v": 30
    },
    {
      "midi": 64,
      "hit": false,
      "t": 231093.88865625023,
      "d": 45.26871875001234,
      "v": 25
    },
    {
      "midi": 71,
      "hit": false,
      "t": 231396.16687500023,
      "d": 105.14024999996764,
      "v": 56
    },
    {
      "midi": 59,
      "hit": false,
      "t": 231409.30940625022,
      "d": 51.10984374998952,
      "v": 40
    },
    {
      "midi": 67,
      "hit": false,
      "t": 231410.76968750023,
      "d": 94.91828124996391,
      "v": 46
    },
    {
      "midi": 64,
      "hit": false,
      "t": 231428.29306250022,
      "d": 45.268718749983236,
      "v": 35
    },
    {
      "midi": 71,
      "hit": false,
      "t": 231613.7487812502,
      "d": 113.90193750002072,
      "v": 54
    },
    {
      "midi": 59,
      "hit": false,
      "t": 231626.8913125002,
      "d": 80.31546875002095,
      "v": 37
    },
    {
      "midi": 67,
      "hit": false,
      "t": 231632.7324375002,
      "d": 78.85518750001211,
      "v": 34
    },
    {
      "midi": 60,
      "hit": false,
      "t": 231651.7160937502,
      "d": 48.18928125000093,
      "v": 24
    },
    {
      "midi": 64,
      "hit": false,
      "t": 231651.7160937502,
      "d": 54.03040625000722,
      "v": 33
    },
    {
      "midi": 69,
      "hit": false,
      "t": 231816.72787500022,
      "d": 81.7757500000007,
      "v": 38
    },
    {
      "midi": 57,
      "hit": false,
      "t": 231851.77462500022,
      "d": 81.7757500000007,
      "v": 22
    },
    {
      "midi": 71,
      "hit": false,
      "t": 231974.4382500002,
      "d": 735.9817499999772,
      "v": 60
    },
    {
      "midi": 67,
      "hit": false,
      "t": 231993.4219062502,
      "d": 606.0167187499756,
      "v": 49
    },
    {
      "midi": 59,
      "hit": false,
      "t": 231999.26303125022,
      "d": 725.7597812499735,
      "v": 43
    },
    {
      "midi": 60,
      "hit": false,
      "t": 232003.6438750002,
      "d": 511.09843749998254,
      "v": 32
    },
    {
      "midi": 64,
      "hit": false,
      "t": 232003.6438750002,
      "d": 530.0820937499811,
      "v": 43
    },
    {
      "midi": 69,
      "hit": false,
      "t": 232748.38731250018,
      "d": 267.2314687500184,
      "v": 48
    },
    {
      "midi": 60,
      "hit": false,
      "t": 232768.8312500002,
      "d": 169.39262500000768,
      "v": 29
    },
    {
      "midi": 50,
      "hit": false,
      "t": 232768.8312500002,
      "d": 1273.3652500000317,
      "v": 45
    },
    {
      "midi": 64,
      "hit": false,
      "t": 232790.73546875018,
      "d": 172.31318750002538,
      "v": 25
    },
    {
      "midi": 67,
      "hit": false,
      "t": 232802.4177187502,
      "d": 179.6145937500114,
      "v": 17
    },
    {
      "midi": 73,
      "hit": false,
      "t": 233303.2941875002,
      "d": 370.9114375000063,
      "v": 59
    },
    {
      "midi": 66,
      "hit": false,
      "t": 233317.8970000002,
      "d": 303.73850000000675,
      "v": 74
    },
    {
      "midi": 70,
      "hit": false,
      "t": 233699.0304062502,
      "d": 871.7879062499851,
      "v": 48
    },
    {
      "midi": 61,
      "hit": false,
      "t": 233700.49068750022,
      "d": 695.0938749999914,
      "v": 51
    },
    {
      "midi": 66,
      "hit": false,
      "t": 233704.87153125022,
      "d": 825.058906249993,
      "v": 36
    },
    {
      "midi": 62,
      "hit": false,
      "t": 233725.31546875022,
      "d": 648.3648749999993,
      "v": 46
    },
    {
      "midi": 50,
      "hit": false,
      "t": 234418.9490625002,
      "d": 997.3720937499602,
      "v": 43
    },
    {
      "midi": 74,
      "hit": false,
      "t": 234804.4633125002,
      "d": 230.72443750000093,
      "v": 80
    },
    {
      "midi": 66,
      "hit": false,
      "t": 235087.75787500018,
      "d": 422.0212812499958,
      "v": 59
    },
    {
      "midi": 71,
      "hit": false,
      "t": 235105.28125000017,
      "d": 448.30634375000955,
      "v": 55
    },
    {
      "midi": 62,
      "hit": false,
      "t": 235124.26490625017,
      "d": 289.1356875000056,
      "v": 36
    },
    {
      "midi": 59,
      "hit": false,
      "t": 235144.70884375018,
      "d": 608.9372812499932,
      "v": 39
    },
    {
      "midi": 50,
      "hit": false,
      "t": 235547.74646875018,
      "d": 817.7574999999779,
      "v": 42
    },
    {
      "midi": 78,
      "hit": false,
      "t": 235885.07143750018,
      "d": 229.2641562500212,
      "v": 68
    },
    {
      "midi": 71,
      "hit": false,
      "t": 235890.9125625002,
      "d": 232.18471875000978,
      "v": 75
    },
    {
      "midi": 62,
      "hit": false,
      "t": 235915.7373437502,
      "d": 340.245531249966,
      "v": 51
    },
    {
      "midi": 59,
      "hit": false,
      "t": 235934.7210000002,
      "d": 912.6757812499709,
      "v": 36
    },
    {
      "midi": 74,
      "hit": false,
      "t": 236163.9851562502,
      "d": 270.1520312499779,
      "v": 50
    },
    {
      "midi": 69,
      "hit": false,
      "t": 236185.88937500017,
      "d": 407.41846874999464,
      "v": 44
    },
    {
      "midi": 50,
      "hit": false,
      "t": 236622.51346875017,
      "d": 933.1197187500075,
      "v": 45
    },
    {
      "midi": 74,
      "hit": false,
      "t": 237006.56743750017,
      "d": 217.58190625000861,
      "v": 62
    },
    {
      "midi": 66,
      "hit": false,
      "t": 237016.78940625017,
      "d": 192.75712500000373,
      "v": 46
    },
    {
      "midi": 62,
      "hit": false,
      "t": 237022.63053125018,
      "d": 118.28278125001816,
      "v": 48
    },
    {
      "midi": 59,
      "hit": false,
      "t": 237043.0744687502,
      "d": 1158.003031250002,
      "v": 35
    },
    {
      "midi": 71,
      "hit": false,
      "t": 237288.4017187502,
      "d": 1115.6548749999783,
      "v": 25
    },
    {
      "midi": 66,
      "hit": false,
      "t": 237324.90875000018,
      "d": 544.6849062500114,
      "v": 33
    },
    {
      "midi": 62,
      "hit": false,
      "t": 237326.3690312502,
      "d": 578.2713750000112,
      "v": 40
    },
    {
      "midi": 50,
      "hit": false,
      "t": 237771.75481250018,
      "d": 173.77346875000512,
      "v": 39
    },
    {
      "midi": 68,
      "hit": false,
      "t": 238382.15237500018,
      "d": 1168.2249999999767,
      "v": 42
    },
    {
      "midi": 52,
      "hit": false,
      "t": 238385.07293750017,
      "d": 1794.6856562499597,
      "v": 45
    },
    {
      "midi": 62,
      "hit": false,
      "t": 238386.53321875018,
      "d": 1087.9095312499849,
      "v": 48
    },
    {
      "midi": 65,
      "hit": false,
      "t": 238423.04025000017,
      "d": 1080.6081249999988,
      "v": 37
    },
    {
      "midi": 71,
      "hit": false,
      "t": 240039.57159375015,
      "d": 182.5351562499709,
      "v": 36
    },
    {
      "midi": 68,
      "hit": false,
      "t": 240049.79356250016,
      "d": 154.78981249997742,
      "v": 29
    },
    {
      "midi": 65,
      "hit": false,
      "t": 240058.55525000015,
      "d": 97.8388437499816,
      "v": 39
    },
    {
      "midi": 62,
      "hit": false,
      "t": 240061.47581250014,
      "d": 97.8388437499816,
      "v": 36
    },
    {
      "midi": 56,
      "hit": false,
      "t": 240942.02540625012,
      "d": 124.12390625002445,
      "v": 52
    },
    {
      "midi": 67,
      "hit": false,
      "t": 240952.24737500012,
      "d": 56.95096875002491,
      "v": 60
    },
    {
      "midi": 83,
      "hit": false,
      "t": 240962.46934375013,
      "d": 122.6636250000156,
      "v": 69
    },
    {
      "midi": 71,
      "hit": false,
      "t": 240968.31046875013,
      "d": 71.55378124999697,
      "v": 71
    },
    {
      "midi": 62,
      "hit": false,
      "t": 240969.77075000014,
      "d": 56.95096874999581,
      "v": 39
    },
    {
      "midi": 56,
      "hit": false,
      "t": 241337.76162500013,
      "d": 189.83656249998603,
      "v": 47
    },
    {
      "midi": 88,
      "hit": false,
      "t": 241346.52331250013,
      "d": 157.7103749999951,
      "v": 71
    },
    {
      "midi": 76,
      "hit": false,
      "t": 241356.74528125013,
      "d": 99.29912499999045,
      "v": 59
    },
    {
      "midi": 67,
      "hit": false,
      "t": 241364.04668750011,
      "d": 54.03040625000722,
      "v": 54
    },
    {
      "midi": 62,
      "hit": false,
      "t": 241368.4275312501,
      "d": 138.7267187499965,
      "v": 49
    },
    {
      "midi": 79,
      "hit": false,
      "t": 241724.73615625012,
      "d": 80.31546874996275,
      "v": 57
    },
    {
      "midi": 91,
      "hit": false,
      "t": 241732.0375625001,
      "d": 100.7594062499993,
      "v": 51
    },
    {
      "midi": 56,
      "hit": false,
      "t": 241732.0375625001,
      "d": 118.28278124998906,
      "v": 56
    },
    {
      "midi": 93,
      "hit": false,
      "t": 241736.4184062501,
      "d": 80.31546874999185,
      "v": 55
    },
    {
      "midi": 62,
      "hit": false,
      "t": 241743.7198125001,
      "d": 144.5678437500028,
      "v": 52
    },
    {
      "midi": 67,
      "hit": false,
      "t": 241748.10065625008,
      "d": 55.49068749998696,
      "v": 40
    },
    {
      "midi": 56,
      "hit": false,
      "t": 242053.2994375001,
      "d": 140.18700000003446,
      "v": 49
    },
    {
      "midi": 62,
      "hit": false,
      "t": 242078.1242187501,
      "d": 46.72900000002119,
      "v": 31
    },
    {
      "midi": 93,
      "hit": false,
      "t": 242083.9653437501,
      "d": 51.10984375001863,
      "v": 33
    },
    {
      "midi": 81,
      "hit": false,
      "t": 242088.3461875001,
      "d": 36.50703125001746,
      "v": 24
    },
    {
      "midi": 95,
      "hit": false,
      "t": 242089.80646875012,
      "d": 56.95096875002491,
      "v": 33
    },
    {
      "midi": 89,
      "hit": false,
      "t": 242323.45146875014,
      "d": 557.8274375000037,
      "v": 55
    },
    {
      "midi": 96,
      "hit": false,
      "t": 242324.91175000014,
      "d": 514.0190000000002,
      "v": 68
    },
    {
      "midi": 61,
      "hit": false,
      "t": 242332.21315625013,
      "d": 597.2550312500098,
      "v": 40
    },
    {
      "midi": 55,
      "hit": false,
      "t": 242333.67343750014,
      "d": 484.8133749999979,
      "v": 46
    },
    {
      "midi": 84,
      "hit": false,
      "t": 242333.67343750014,
      "d": 570.969968749996,
      "v": 57
    },
    {
      "midi": 60,
      "hit": false,
      "t": 242343.89540625014,
      "d": 465.8297187499993,
      "v": 30
    },
    {
      "midi": 65,
      "hit": false,
      "t": 242358.49821875014,
      "d": 452.687187500007,
      "v": 17
    },
    {
      "midi": 61,
      "hit": false,
      "t": 243932.68140625017,
      "d": 68.63321875000838,
      "v": 49
    },
    {
      "midi": 51,
      "hit": false,
      "t": 243934.14168750017,
      "d": 113.90193750002072,
      "v": 44
    },
    {
      "midi": 72,
      "hit": false,
      "t": 243935.60196875018,
      "d": 110.98137500000303,
      "v": 49
    },
    {
      "midi": 60,
      "hit": false,
      "t": 243944.36365625018,
      "d": 51.10984374998952,
      "v": 49
    },
    {
      "midi": 65,
      "hit": false,
      "t": 243947.28421875017,
      "d": 45.26871875001234,
      "v": 47
    },
    {
      "midi": 51,
      "hit": false,
      "t": 244528.4761562502,
      "d": 779.7901875000098,
      "v": 42
    },
    {
      "midi": 61,
      "hit": false,
      "t": 244531.39671875018,
      "d": 769.5682187500352,
      "v": 37
    },
    {
      "midi": 72,
      "hit": false,
      "t": 244532.8570000002,
      "d": 857.185093750013,
      "v": 43
    },
    {
      "midi": 65,
      "hit": false,
      "t": 244537.2378437502,
      "d": 833.820593750017,
      "v": 45
    },
    {
      "midi": 68,
      "hit": false,
      "t": 244553.3009375002,
      "d": 874.7084687500028,
      "v": 33
    },
    {
      "midi": 60,
      "hit": false,
      "t": 244566.4434687502,
      "d": 91.99771875000442,
      "v": 34
    },
    {
      "midi": 71,
      "hit": false,
      "t": 245676.2572187502,
      "d": 65.71265624999069,
      "v": 35
    },
    {
      "midi": 71,
      "hit": false,
      "t": 246188.81593750019,
      "d": 908.2949375000026,
      "v": 41
    },
    {
      "midi": 50,
      "hit": false,
      "t": 246204.8790312502,
      "d": 2327.6883124999586,
      "v": 36
    },
    {
      "midi": 64,
      "hit": false,
      "t": 246207.79959375018,
      "d": 917.0566249999974,
      "v": 37
    },
    {
      "midi": 67,
      "hit": false,
      "t": 246213.6407187502,
      "d": 890.7715624999837,
      "v": 34
    },
    {
      "midi": 59,
      "hit": false,
      "t": 246222.40240625018,
      "d": 778.3299062500009,
      "v": 29
    },
    {
      "midi": 57,
      "hit": false,
      "t": 247072.28609375018,
      "d": 97.83884375001071,
      "v": 24
    },
    {
      "midi": 69,
      "hit": false,
      "t": 247078.1272187502,
      "d": 75.93462499999441,
      "v": 33
    },
    {
      "midi": 71,
      "hit": false,
      "t": 247262.1226562502,
      "d": 154.78981250000652,
      "v": 35
    },
    {
      "midi": 60,
      "hit": false,
      "t": 247266.5035000002,
      "d": 86.15659374999814,
      "v": 41
    },
    {
      "midi": 64,
      "hit": false,
      "t": 247279.6460312502,
      "d": 59.871531250013504,
      "v": 31
    },
    {
      "midi": 67,
      "hit": false,
      "t": 247284.02687500019,
      "d": 67.17293749999953,
      "v": 32
    },
    {
      "midi": 59,
      "hit": false,
      "t": 247294.2488437502,
      "d": 54.03040625000722,
      "v": 25
    },
    {
      "midi": 71,
      "hit": false,
      "t": 247803.8870000002,
      "d": 921.4374687499658,
      "v": 33
    },
    {
      "midi": 67,
      "hit": false,
      "t": 247814.1089687502,
      "d": 892.2318437499634,
      "v": 36
    },
    {
      "midi": 64,
      "hit": false,
      "t": 247821.41037500018,
      "d": 883.4701562499686,
      "v": 38
    },
    {
      "midi": 60,
      "hit": false,
      "t": 247825.79121875018,
      "d": 940.4211249999644,
      "v": 30
    },
    {
      "midi": 59,
      "hit": false,
      "t": 247834.55290625017,
      "d": 632.3017812499893,
      "v": 26
    },
    {
      "midi": 43,
      "hit": false,
      "t": 248966.27087500013,
      "d": 807.5355312500033,
      "v": 47
    },
    {
      "midi": 58,
      "hit": false,
      "t": 249341.56315625014,
      "d": 55.490687500016065,
      "v": 38
    },
    {
      "midi": 62,
      "hit": false,
      "t": 249343.02343750015,
      "d": 71.55378124999697,
      "v": 53
    },
    {
      "midi": 57,
      "hit": false,
      "t": 249344.48371875015,
      "d": 39.427593750006054,
      "v": 42
    },
    {
      "midi": 50,
      "hit": false,
      "t": 249392.67300000016,
      "d": 55.49068749998696,
      "v": 25
    },
    {
      "midi": 62,
      "hit": false,
      "t": 251048.63193750015,
      "d": 882.0098750000179,
      "v": 66
    },
    {
      "midi": 58,
      "hit": false,
      "t": 251053.01278125015,
      "d": 884.9304375000065,
      "v": 62
    },
    {
      "midi": 57,
      "hit": false,
      "t": 251061.77446875014,
      "d": 808.9958125000121,
      "v": 58
    },
    {
      "midi": 56,
      "hit": false,
      "t": 252365.80562500015,
      "d": 2948.3078437499644,
      "v": 34
    },
    {
      "midi": 65,
      "hit": false,
      "t": 252374.56731250015,
      "d": 2244.452281249978,
      "v": 25
    },
    {
      "midi": 55,
      "hit": false,
      "t": 252374.56731250015,
      "d": 2961.4503749999567,
      "v": 36
    },
    {
      "midi": 60,
      "hit": false,
      "t": 252396.47153125014,
      "d": 2294.101843749988,
      "v": 48
    },
    {
      "midi": 67,
      "hit": false,
      "t": 252739.63762500015,
      "d": 93.45800000001327,
      "v": 48
    },
    {
      "midi": 68,
      "hit": false,
      "t": 252841.85731250016,
      "d": 90.53743749999558,
      "v": 39
    },
    {
      "midi": 70,
      "hit": false,
      "t": 252944.07700000016,
      "d": 67.17293749999953,
      "v": 52
    },
    {
      "midi": 72,
      "hit": false,
      "t": 253062.35978125015,
      "d": 75.93462499999441,
      "v": 55
    },
    {
      "midi": 74,
      "hit": false,
      "t": 253171.88087500015,
      "d": 58.41125000000466,
      "v": 62
    },
    {
      "midi": 75,
      "hit": false,
      "t": 253314.98843750014,
      "d": 70.09349999998813,
      "v": 67
    },
    {
      "midi": 77,
      "hit": false,
      "t": 253444.95346875014,
      "d": 118.28278124998906,
      "v": 65
    },
    {
      "midi": 74,
      "hit": false,
      "t": 253592.44187500014,
      "d": 75.93462499999441,
      "v": 53
    },
    {
      "midi": 74,
      "hit": false,
      "t": 254196.99831250013,
      "d": 89.07715624998673,
      "v": 81
    },
    {
      "midi": 75,
      "hit": false,
      "t": 254344.48671875012,
      "d": 116.82250000000931,
      "v": 54
    },
    {
      "midi": 74,
      "hit": false,
      "t": 254416.04050000012,
      "d": 121.20334375000675,
      "v": 42
    },
    {
      "midi": 72,
      "hit": false,
      "t": 254548.92609375014,
      "d": 62.792093750002095,
      "v": 34
    },
    {
      "midi": 70,
      "hit": false,
      "t": 254737.30237500012,
      "d": 87.61687500000698,
      "v": 67
    },
    {
      "midi": 68,
      "hit": false,
      "t": 254915.45668750012,
      "d": 71.55378124999697,
      "v": 62
    },
    {
      "midi": 65,
      "hit": false,
      "t": 254930.05950000012,
      "d": 58.41125000000466,
      "v": 31
    },
    {
      "midi": 60,
      "hit": false,
      "t": 254938.8211875001,
      "d": 400.1170624999795,
      "v": 31
    },
    {
      "midi": 70,
      "hit": false,
      "t": 255089.23015625012,
      "d": 96.37856250000186,
      "v": 48
    },
    {
      "midi": 68,
      "hit": false,
      "t": 255140.3400000001,
      "d": 110.98137500000303,
      "v": 49
    },
    {
      "midi": 67,
      "hit": false,
      "t": 255248.40081250013,
      "d": 78.855187499983,
      "v": 49
    },
    {
      "midi": 65,
      "hit": false,
      "t": 255423.63456250008,
      "d": 121.20334375000675,
      "v": 64
    },
    {
      "midi": 62,
      "hit": false,
      "t": 255594.4874687501,
      "d": 192.75712500000373,
      "v": 33
    },
    {
      "midi": 60,
      "hit": false,
      "t": 255807.6885312501,
      "d": 43.80843750000349,
      "v": 30
    },
    {
      "midi": 67,
      "hit": false,
      "t": 255950.7960937501,
      "d": 451.22690624999814,
      "v": 58
    },
    {
      "midi": 65,
      "hit": false,
      "t": 256188.8219375001,
      "d": 242.4066875000135,
      "v": 53
    },
    {
      "midi": 62,
      "hit": false,
      "t": 256447.29171875012,
      "d": 251.16837500000838,
      "v": 41
    },
    {
      "midi": 58,
      "hit": false,
      "t": 256711.60262500012,
      "d": 211.74078125000233,
      "v": 35
    },
    {
      "midi": 57,
      "hit": false,
      "t": 256751.03021875012,
      "d": 67.17293749999953,
      "v": 24
    },
    {
      "midi": 57,
      "hit": false,
      "t": 257100.0374375001,
      "d": 981.3089999999793,
      "v": 24
    },
    {
      "midi": 60,
      "hit": false,
      "t": 257108.7991250001,
      "d": 1200.3511874999676,
      "v": 44
    },
    {
      "midi": 43,
      "hit": false,
      "t": 257130.7033437501,
      "d": 1336.1573437499756,
      "v": 33
    },
    {
      "midi": 53,
      "hit": false,
      "t": 257151.1472812501,
      "d": 773.9490625000035,
      "v": 20
    },
    {
      "midi": 57,
      "hit": false,
      "t": 258339.8162187501,
      "d": 103.67996874998789,
      "v": 40
    },
    {
      "midi": 58,
      "hit": false,
      "t": 258345.6573437501,
      "d": 240.94640624997555,
      "v": 37
    },
    {
      "midi": 65,
      "hit": false,
      "t": 259094.78162500006,
      "d": 544.6849062500114,
      "v": 53
    },
    {
      "midi": 58,
      "hit": false,
      "t": 259110.84471875007,
      "d": 540.304062500014,
      "v": 48
    },
    {
      "midi": 54,
      "hit": false,
      "t": 259113.76528125006,
      "d": 486.27365625000675,
      "v": 36
    },
    {
      "midi": 44,
      "hit": false,
      "t": 259113.76528125006,
      "d": 607.4770000000135,
      "v": 42
    },
    {
      "midi": 62,
      "hit": false,
      "t": 259123.98725000006,
      "d": 530.0820937500102,
      "v": 46
    },
    {
      "midi": 77,
      "hit": false,
      "t": 261095.36693750008,
      "d": 737.442031249986,
      "v": 66
    },
    {
      "midi": 70,
      "hit": false,
      "t": 261124.57256250008,
      "d": 430.7829687499907,
      "v": 69
    },
    {
      "midi": 66,
      "hit": false,
      "t": 261134.79453125008,
      "d": 67.17293749999953,
      "v": 56
    },
    {
      "midi": 66,
      "hit": false,
      "t": 261292.50490625008,
      "d": 316.88103124999907,
      "v": 21
    },
    {
      "midi": 74,
      "hit": false,
      "t": 262124.86521875006,
      "d": 113.90193750002072,
      "v": 57
    },
    {
      "midi": 72,
      "hit": false,
      "t": 262285.49615625007,
      "d": 119.74306250002701,
      "v": 42
    },
    {
      "midi": 60,
      "hit": false,
      "t": 262444.6668125001,
      "d": 722.839218750014,
      "v": 31
    },
    {
      "midi": 71,
      "hit": false,
      "t": 262446.1270937501,
      "d": 1004.6734999999753,
      "v": 47
    },
    {
      "midi": 64,
      "hit": false,
      "t": 262454.8887812501,
      "d": 728.6803437499912,
      "v": 24
    },
    {
      "midi": 59,
      "hit": false,
      "t": 262465.1107500001,
      "d": 668.8088124999776,
      "v": 17
    },
    {
      "midi": 83,
      "hit": false,
      "t": 262811.1974062501,
      "d": 655.6662812499562,
      "v": 54
    },
    {
      "midi": 83,
      "hit": false,
      "t": 264118.14912500005,
      "d": 731.600906250067,
      "v": 39
    },
    {
      "midi": 60,
      "hit": false,
      "t": 264122.5299687501,
      "d": 752.0448437500163,
      "v": 34
    },
    {
      "midi": 64,
      "hit": false,
      "t": 264128.37109375006,
      "d": 674.6499375000712,
      "v": 22
    },
    {
      "midi": 71,
      "hit": false,
      "t": 264129.83137500007,
      "d": 700.9350000000559,
      "v": 29
    },
    {
      "midi": 79,
      "hit": false,
      "t": 264134.2122187501,
      "d": 705.3158437500242,
      "v": 29
    },
    {
      "midi": 55,
      "hit": false,
      "t": 264137.1327812501,
      "d": 700.9349999999977,
      "v": 29
    },
    {
      "midi": 59,
      "hit": false,
      "t": 264150.27531250013,
      "d": 699.4747187499888,
      "v": 32
    },
    {
      "midi": 76,
      "hit": false,
      "t": 264153.19587500015,
      "d": 728.680343749933,
      "v": 38
    },
    {
      "midi": 64,
      "hit": false,
      "t": 265229.42315625004,
      "d": 42.34815625002375,
      "v": 44
    },
    {
      "midi": 60,
      "hit": false,
      "t": 265230.88343750004,
      "d": 58.41125000000466,
      "v": 54
    },
    {
      "midi": 79,
      "hit": false,
      "t": 265241.10540625005,
      "d": 49.64956250000978,
      "v": 52
    },
    {
      "midi": 67,
      "hit": false,
      "t": 265246.94653125,
      "d": 35.04675000003772,
      "v": 56
    },
    {
      "midi": 59,
      "hit": false,
      "t": 265249.86709375004,
      "d": 39.427593750006054,
      "v": 33
    },
    {
      "midi": 81,
      "hit": false,
      "t": 265594.4934687501,
      "d": 108.06081250007264,
      "v": 66
    },
    {
      "midi": 69,
      "hit": false,
      "t": 265595.9537500001,
      "d": 55.49068750004517,
      "v": 64
    },
    {
      "midi": 60,
      "hit": false,
      "t": 265609.0962812501,
      "d": 55.49068750004517,
      "v": 39
    },
    {
      "midi": 83,
      "hit": false,
      "t": 265833.97959375015,
      "d": 214.66134375013644,
      "v": 64
    },
    {
      "midi": 71,
      "hit": false,
      "t": 265835.43987500016,
      "d": 179.61459375009872,
      "v": 66
    },
    {
      "midi": 56,
      "hit": false,
      "t": 265838.3604375002,
      "d": 278.9137187501183,
      "v": 46
    },
    {
      "midi": 64,
      "hit": false,
      "t": 265839.8207187502,
      "d": 261.3903437501285,
      "v": 41
    },
    {
      "midi": 80,
      "hit": false,
      "t": 265842.7412812502,
      "d": 217.58190625009593,
      "v": 36
    },
    {
      "midi": 60,
      "hit": false,
      "t": 265845.6618437502,
      "d": 248.2478125001071,
      "v": 47
    },
    {
      "midi": 76,
      "hit": false,
      "t": 265850.04268750024,
      "d": 163.5515000000014,
      "v": 51
    },
    {
      "midi": 86,
      "hit": false,
      "t": 266307.11071875034,
      "d": 33.58646874997066,
      "v": 72
    },
    {
      "midi": 60,
      "hit": false,
      "t": 266314.4121250003,
      "d": 58.41125000000466,
      "v": 51
    },
    {
      "midi": 74,
      "hit": false,
      "t": 266315.87240625033,
      "d": 46.728999999992084,
      "v": 52
    },
    {
      "midi": 64,
      "hit": false,
      "t": 266317.33268750034,
      "d": 43.80843749997439,
      "v": 44
    },
    {
      "midi": 56,
      "hit": false,
      "t": 266324.6340937503,
      "d": 56.95096874999581,
      "v": 32
    },
    {
      "midi": 83,
      "hit": false,
      "t": 266657.5782187503,
      "d": 121.20334375003586,
      "v": 44
    },
    {
      "midi": 71,
      "hit": false,
      "t": 266660.4987812503,
      "d": 87.61687500000698,
      "v": 38
    },
    {
      "midi": 56,
      "hit": false,
      "t": 266670.7207500003,
      "d": 100.7594062500284,
      "v": 34
    },
    {
      "midi": 80,
      "hit": false,
      "t": 266672.18103125034,
      "d": 86.15659374999814,
      "v": 26
    },
    {
      "midi": 64,
      "hit": false,
      "t": 266673.64131250035,
      "d": 87.61687500000698,
      "v": 33
    },
    {
      "midi": 60,
      "hit": false,
      "t": 266680.94271875033,
      "d": 84.6963125000475,
      "v": 36
    },
    {
      "midi": 76,
      "hit": false,
      "t": 266682.40300000034,
      "d": 49.64956250000978,
      "v": 38
    },
    {
      "midi": 83,
      "hit": false,
      "t": 266971.53868750035,
      "d": 224.88331249996554,
      "v": 44
    },
    {
      "midi": 64,
      "hit": false,
      "t": 266987.6017812503,
      "d": 144.5678437500028,
      "v": 36
    },
    {
      "midi": 71,
      "hit": false,
      "t": 266996.3634687503,
      "d": 160.6309374999837,
      "v": 29
    },
    {
      "midi": 56,
      "hit": false,
      "t": 267019.72796875035,
      "d": 127.04446874995483,
      "v": 29
    },
    {
      "midi": 60,
      "hit": false,
      "t": 267034.3307812503,
      "d": 96.37856250000186,
      "v": 25
    },
    {
      "midi": 83,
      "hit": false,
      "t": 267395.0202500003,
      "d": 2275.1181875001057,
      "v": 30
    },
    {
      "midi": 64,
      "hit": false,
      "t": 267415.4641875003,
      "d": 1344.9190312500577,
      "v": 29
    },
    {
      "midi": 60,
      "hit": false,
      "t": 267416.9244687503,
      "d": 1385.8069062500726,
      "v": 41
    },
    {
      "midi": 71,
      "hit": false,
      "t": 267424.2258750003,
      "d": 2134.9311875000712,
      "v": 24
    },
    {
      "midi": 80,
      "hit": false,
      "t": 267427.1464375003,
      "d": 2155.3751250000787,
      "v": 21
    },
    {
      "midi": 76,
      "hit": false,
      "t": 267434.4478437503,
      "d": 2123.2489375000587,
      "v": 39
    },
    {
      "midi": 56,
      "hit": false,
      "t": 267437.3684062503,
      "d": 1390.187750000041,
      "v": 30
    },
    {
      "midi": 55,
      "hit": false,
      "t": 269154.65915625036,
      "d": 788.5518750000629,
      "v": 34
    },
    {
      "midi": 60,
      "hit": false,
      "t": 269170.72225000034,
      "d": 838.2014375000726,
      "v": 31
    },
    {
      "midi": 64,
      "hit": false,
      "t": 269185.3250625003,
      "d": 832.3603125000955,
      "v": 18
    },
    {
      "midi": 83,
      "hit": false,
      "t": 270241.1084062504,
      "d": 148.94868750002934,
      "v": 88
    },
    {
      "midi": 64,
      "hit": false,
      "t": 270263.01262500044,
      "d": 915.5963437500759,
      "v": 35
    },
    {
      "midi": 60,
      "hit": false,
      "t": 270264.47290625045,
      "d": 924.3580312500708,
      "v": 40
    },
    {
      "midi": 55,
      "hit": false,
      "t": 270273.23459375044,
      "d": 893.6921250000596,
      "v": 47
    },
    {
      "midi": 81,
      "hit": false,
      "t": 270410.50103125046,
      "d": 132.88559374999022,
      "v": 48
    },
    {
      "midi": 83,
      "hit": false,
      "t": 270603.25815625046,
      "d": 115.36221875000047,
      "v": 58
    },
    {
      "midi": 88,
      "hit": false,
      "t": 270779.9521875005,
      "d": 106.60053125000559,
      "v": 66
    },
    {
      "midi": 83,
      "hit": false,
      "t": 270956.6462187505,
      "d": 74.47434374998556,
      "v": 44
    },
    {
      "midi": 83,
      "hit": false,
      "t": 271365.52496875054,
      "d": 106.60053125000559,
      "v": 54
    },
    {
      "midi": 81,
      "hit": false,
      "t": 271549.52040625055,
      "d": 81.7757499999716,
      "v": 35
    },
    {
      "midi": 83,
      "hit": false,
      "t": 271702.84993750055,
      "d": 128.5047500000219,
      "v": 62
    },
    {
      "midi": 60,
      "hit": false,
      "t": 271737.8966875005,
      "d": 360.68946875003166,
      "v": 42
    },
    {
      "midi": 64,
      "hit": false,
      "t": 271739.35696875054,
      "d": 299.3576562500093,
      "v": 31
    },
    {
      "midi": 55,
      "hit": false,
      "t": 271751.03921875055,
      "d": 226.3435937500326,
      "v": 40
    },
    {
      "midi": 81,
      "hit": false,
      "t": 271899.9879062506,
      "d": 122.6636249999865,
      "v": 38
    },
    {
      "midi": 83,
      "hit": false,
      "t": 272075.22165625053,
      "d": 100.7594062500284,
      "v": 50
    },
    {
      "midi": 88,
      "hit": false,
      "t": 272243.15400000056,
      "d": 134.34587499999907,
      "v": 78
    },
    {
      "midi": 55,
      "hit": false,
      "t": 272297.18440625054,
      "d": 42.34815625002375,
      "v": 24
    },
    {
      "midi": 83,
      "hit": false,
      "t": 272446.13309375057,
      "d": 1461.7415312499506,
      "v": 55
    },
    {
      "midi": 54,
      "hit": false,
      "t": 272503.08406250057,
      "d": 1166.7647187499679,
      "v": 39
    },
    {
      "midi": 60,
      "hit": false,
      "t": 272503.08406250057,
      "d": 1185.7483749999665,
      "v": 32
    },
    {
      "midi": 65,
      "hit": false,
      "t": 272541.05137500056,
      "d": 978.3884374999907,
      "v": 38
    },
    {
      "midi": 81,
      "hit": false,
      "t": 273934.1596875005,
      "d": 109.52109375002328,
      "v": 37
    },
    {
      "midi": 83,
      "hit": false,
      "t": 274145.90046875057,
      "d": 113.90193749999162,
      "v": 47
    },
    {
      "midi": 88,
      "hit": false,
      "t": 274319.6739375006,
      "d": 102.21968749997905,
      "v": 57
    },
    {
      "midi": 83,
      "hit": false,
      "t": 274496.36796875054,
      "d": 128.5047500000219,
      "v": 58
    },
    {
      "midi": 54,
      "hit": false,
      "t": 275092.16271875054,
      "d": 324.1824375000433,
      "v": 32
    },
    {
      "midi": 60,
      "hit": false,
      "t": 275103.84496875055,
      "d": 373.8320000000531,
      "v": 40
    },
    {
      "midi": 65,
      "hit": false,
      "t": 275106.76553125057,
      "d": 318.3413125000079,
      "v": 29
    },
    {
      "midi": 54,
      "hit": false,
      "t": 275616.4036875006,
      "d": 147.4884062500205,
      "v": 27
    },
    {
      "midi": 53,
      "hit": false,
      "t": 275909.92021875066,
      "d": 617.698968749959,
      "v": 31
    },
    {
      "midi": 88,
      "hit": false,
      "t": 275917.22162500065,
      "d": 351.9277812499786,
      "v": 39
    },
    {
      "midi": 59,
      "hit": false,
      "t": 275920.14218750066,
      "d": 454.1474687499576,
      "v": 32
    },
    {
      "midi": 76,
      "hit": false,
      "t": 275925.98331250064,
      "d": 458.52831249998417,
      "v": 35
    },
    {
      "midi": 64,
      "hit": false,
      "t": 275930.36415625067,
      "d": 395.73621874995297,
      "v": 25
    },
    {
      "midi": 64,
      "hit": false,
      "t": 277031.41621875064,
      "d": 1505.5499687500414,
      "v": 50
    },
    {
      "midi": 53,
      "hit": false,
      "t": 277037.2573437506,
      "d": 1509.930812500068,
      "v": 40
    },
    {
      "midi": 57,
      "hit": false,
      "t": 277041.63818750065,
      "d": 1454.440125000081,
      "v": 51
    },
    {
      "midi": 59,
      "hit": false,
      "t": 277054.78071875067,
      "d": 1467.5826562500442,
      "v": 40
    },
    {
      "midi": 52,
      "hit": false,
      "t": 277057.7012812507,
      "d": 936.0402812500251,
      "v": 37
    },
    {
      "midi": 43,
      "hit": false,
      "t": 277954.3139687507,
      "d": 743.2831562499632,
      "v": 53
    },
    {
      "midi": 62,
      "hit": false,
      "t": 278691.7560000007,
      "d": 121.20334374997765,
      "v": 55
    },
    {
      "midi": 53,
      "hit": false,
      "t": 278710.7396562507,
      "d": 46.728999999992084,
      "v": 57
    },
    {
      "midi": 50,
      "hit": false,
      "t": 278719.5013437507,
      "d": 55.49068749998696,
      "v": 40
    },
    {
      "midi": 57,
      "hit": false,
      "t": 278720.9616250007,
      "d": 36.50703124998836,
      "v": 49
    },
    {
      "midi": 64,
      "hit": false,
      "t": 279055.3660312507,
      "d": 83.23603124998044,
      "v": 70
    },
    {
      "midi": 52,
      "hit": false,
      "t": 279091.8730625007,
      "d": 67.17293749999953,
      "v": 47
    },
    {
      "midi": 65,
      "hit": false,
      "t": 279348.88256250066,
      "d": 240.94640625000466,
      "v": 54
    },
    {
      "midi": 56,
      "hit": false,
      "t": 279364.94565625064,
      "d": 327.103000000061,
      "v": 46
    },
    {
      "midi": 62,
      "hit": false,
      "t": 279375.16762500064,
      "d": 356.30862500006333,
      "v": 51
    },
    {
      "midi": 53,
      "hit": false,
      "t": 279382.4690312506,
      "d": 322.72215625009267,
      "v": 55
    },
    {
      "midi": 59,
      "hit": false,
      "t": 279383.92931250064,
      "d": 306.65906250005355,
      "v": 45
    },
    {
      "midi": 56,
      "hit": false,
      "t": 279816.1725625007,
      "d": 151.86924999993062,
      "v": 48
    },
    {
      "midi": 67,
      "hit": false,
      "t": 279822.0136875007,
      "d": 140.18699999997625,
      "v": 59
    },
    {
      "midi": 55,
      "hit": false,
      "t": 279830.77537500067,
      "d": 367.9908749999595,
      "v": 54
    },
    {
      "midi": 59,
      "hit": false,
      "t": 279839.53706250066,
      "d": 59.871531250013504,
      "v": 17
    },
    {
      "midi": 59,
      "hit": false,
      "t": 280194.3854062506,
      "d": 1525.9939062499907,
      "v": 53
    },
    {
      "midi": 56,
      "hit": false,
      "t": 280194.3854062506,
      "d": 2514.6043125001015,
      "v": 53
    },
    {
      "midi": 68,
      "hit": false,
      "t": 280195.8456875006,
      "d": 1682.244000000006,
      "v": 44
    },
    {
      "midi": 62,
      "hit": false,
      "t": 280204.6073750006,
      "d": 1588.7859999999637,
      "v": 53
    },
    {
      "midi": 65,
      "hit": false,
      "t": 280210.4485000006,
      "d": 1587.325718750013,
      "v": 42
    },
    {
      "midi": 76,
      "hit": false,
      "t": 282403.7909375006,
      "d": 128.5047500000219,
      "v": 27
    },
    {
      "midi": 76,
      "hit": false,
      "t": 282631.59481250064,
      "d": 928.7388750000973,
      "v": 52
    },
    {
      "midi": 66,
      "hit": false,
      "t": 282640.3565000007,
      "d": 115.36221875000047,
      "v": 48
    },
    {
      "midi": 64,
      "hit": false,
      "t": 282687.0855000007,
      "d": 559.2877187500126,
      "v": 20
    },
    {
      "midi": 66,
      "hit": false,
      "t": 282838.9547500007,
      "d": 496.4956250000396,
      "v": 13
    },
    {
      "midi": 52,
      "hit": false,
      "t": 283027.3310312507,
      "d": 1020.7365937500726,
      "v": 42
    },
    {
      "midi": 76,
      "hit": false,
      "t": 283720.9646250007,
      "d": 3633.1797500001267,
      "v": 61
    },
    {
      "midi": 65,
      "hit": false,
      "t": 283744.32912500075,
      "d": 607.4770000000135,
      "v": 38
    },
    {
      "midi": 71,
      "hit": false,
      "t": 283747.24968750076,
      "d": 971.0870312500047,
      "v": 47
    },
    {
      "midi": 69,
      "hit": false,
      "t": 283756.01137500076,
      "d": 521.3204062500154,
      "v": 44
    },
    {
      "midi": 64,
      "hit": false,
      "t": 283760.3922187508,
      "d": 611.8578437499818,
      "v": 42
    },
    {
      "midi": 52,
      "hit": false,
      "t": 284166.3504062508,
      "d": 1235.3979374999763,
      "v": 33
    },
    {
      "midi": 71,
      "hit": false,
      "t": 284862.9045625008,
      "d": 855.7248125000042,
      "v": 11
    },
    {
      "midi": 65,
      "hit": false,
      "t": 284877.50737500074,
      "d": 903.9140937500633,
      "v": 35
    },
    {
      "midi": 69,
      "hit": false,
      "t": 284900.87187500077,
      "d": 811.9163750000298,
      "v": 33
    },
    {
      "midi": 64,
      "hit": false,
      "t": 284902.3321562508,
      "d": 846.9631250000093,
      "v": 27
    },
    {
      "midi": 52,
      "hit": false,
      "t": 285747.8350000008,
      "d": 351.927781250095,
      "v": 41
    },
    {
      "midi": 70,
      "hit": false,
      "t": 286069.0968750008,
      "d": 1238.3185000000522,
      "v": 27
    },
    {
      "midi": 68,
      "hit": false,
      "t": 286072.0174375008,
      "d": 1228.0965312500484,
      "v": 26
    },
    {
      "midi": 65,
      "hit": false,
      "t": 286076.39828125085,
      "d": 1172.6058437500033,
      "v": 33
    },
    {
      "midi": 64,
      "hit": false,
      "t": 286105.60390625085,
      "d": 959.4047812500503,
      "v": 24
    },
    {
      "midi": 52,
      "hit": false,
      "t": 286943.80534375086,
      "d": 448.30634374998044,
      "v": 41
    },
    {
      "midi": 73,
      "hit": false,
      "t": 288022.9531875008,
      "d": 328.56328125001164,
      "v": 83
    },
    {
      "midi": 49,
      "hit": false,
      "t": 288030.2545937508,
      "d": 384.0539687499986,
      "v": 73
    },
    {
      "midi": 77,
      "hit": false,
      "t": 288430.3716562508,
      "d": 346.0866562500014,
      "v": 91
    },
    {
      "midi": 53,
      "hit": false,
      "t": 288433.2922187508,
      "d": 363.61003124999115,
      "v": 82
    },
    {
      "midi": 48,
      "hit": false,
      "t": 288814.4256250008,
      "d": 37.967312499997206,
      "v": 68
    },
    {
      "midi": 72,
      "hit": false,
      "t": 288814.4256250008,
      "d": 416.1801562500186,
      "v": 66
    },
    {
      "midi": 71,
      "hit": false,
      "t": 289381.0147500008,
      "d": 141.6472812500433,
      "v": 68
    },
    {
      "midi": 60,
      "hit": false,
      "t": 289392.6970000008,
      "d": 1136.0988124999567,
      "v": 31
    },
    {
      "midi": 64,
      "hit": false,
      "t": 289395.6175625008,
      "d": 941.8814062499441,
      "v": 34
    },
    {
      "midi": 55,
      "hit": false,
      "t": 289550.4073750008,
      "d": 1212.033437499951,
      "v": 1
    },
    {
      "midi": 72,
      "hit": false,
      "t": 289559.1690625008,
      "d": 109.52109375002328,
      "v": 36
    },
    {
      "midi": 71,
      "hit": false,
      "t": 289667.22987500083,
      "d": 150.40896874997998,
      "v": 47
    },
    {
      "midi": 59,
      "hit": false,
      "t": 289693.5149375008,
      "d": 893.6921249999432,
      "v": 1
    },
    {
      "midi": 69,
      "hit": false,
      "t": 289826.4005312508,
      "d": 124.12390624999534,
      "v": 49
    },
    {
      "midi": 68,
      "hit": false,
      "t": 290004.5548437508,
      "d": 148.94868749997113,
      "v": 34
    },
    {
      "midi": 71,
      "hit": false,
      "t": 290187.0900000008,
      "d": 144.5678437500028,
      "v": 55
    },
    {
      "midi": 69,
      "hit": false,
      "t": 290371.0854375008,
      "d": 143.10756249999395,
      "v": 61
    },
    {
      "midi": 64,
      "hit": false,
      "t": 290565.30284375075,
      "d": 286.2151250000461,
      "v": 49
    },
    {
      "midi": 62,
      "hit": false,
      "t": 290850.0576875008,
      "d": 143.10756249999395,
      "v": 57
    },
    {
      "midi": 60,
      "hit": false,
      "t": 291085.16296875075,
      "d": 267.2314687499893,
      "v": 24
    },
    {
      "midi": 59,
      "hit": false,
      "t": 291387.4411875007,
      "d": 84.69631249998929,
      "v": 34
    },
    {
      "midi": 62,
      "hit": false,
      "t": 291536.3898750007,
      "d": 373.8319999999949,
      "v": 58
    },
    {
      "midi": 59,
      "hit": false,
      "t": 291943.8083437507,
      "d": 89.07715625001583,
      "v": 32
    },
    {
      "midi": 60,
      "hit": false,
      "t": 292154.08884375077,
      "d": 238.02584374998696,
      "v": 43
    },
    {
      "midi": 62,
      "hit": false,
      "t": 292454.9067812507,
      "d": 37.967312499997206,
      "v": 60
    },
    {
      "midi": 67,
      "hit": false,
      "t": 292685.6312187507,
      "d": 157.71037500002421,
      "v": 53
    },
    {
      "midi": 71,
      "hit": false,
      "t": 293063.84406250075,
      "d": 116.82250000000931,
      "v": 39
    },
    {
      "midi": 67,
      "hit": false,
      "t": 293271.2040000008,
      "d": 122.6636249999865,
      "v": 35
    },
    {
      "midi": 63,
      "hit": false,
      "t": 293275.5848437508,
      "d": 110.98137499997392,
      "v": 23
    },
    {
      "midi": 74,
      "hit": false,
      "t": 293275.5848437508,
      "d": 140.18699999997625,
      "v": 43
    },
    {
      "midi": 41,
      "hit": false,
      "t": 293598.3070000008,
      "d": 127.04446874995483,
      "v": 39
    },
    {
      "midi": 48,
      "hit": false,
      "t": 293602.6878437508,
      "d": 147.48840624990407,
      "v": 34
    },
    {
      "midi": 74,
      "hit": false,
      "t": 293609.9892500008,
      "d": 122.66362499992829,
      "v": 53
    },
    {
      "midi": 63,
      "hit": false,
      "t": 293621.6715000008,
      "d": 71.55378124996787,
      "v": 34
    },
    {
      "midi": 67,
      "hit": false,
      "t": 293627.5126250008,
      "d": 83.23603124998044,
      "v": 47
    },
    {
      "midi": 71,
      "hit": false,
      "t": 293642.11543750076,
      "d": 93.45799999998417,
      "v": 35
    },
    {
      "midi": 74,
      "hit": false,
      "t": 293871.3795937507,
      "d": 124.12390624999534,
      "v": 49
    },
    {
      "midi": 67,
      "hit": false,
      "t": 293900.5852187507,
      "d": 62.79209374997299,
      "v": 31
    },
    {
      "midi": 72,
      "hit": false,
      "t": 294210.1648437507,
      "d": 115.36221875000047,
      "v": 39
    },
    {
      "midi": 63,
      "hit": false,
      "t": 294427.7467500007,
      "d": 40.88787499995669,
      "v": 34
    },
    {
      "midi": 74,
      "hit": false,
      "t": 294430.6673125007,
      "d": 83.23603124998044,
      "v": 44
    },
    {
      "midi": 67,
      "hit": false,
      "t": 294437.9687187507,
      "d": 49.64956249995157,
      "v": 36
    },
    {
      "midi": 71,
      "hit": false,
      "t": 294452.57153125067,
      "d": 62.7920937500312,
      "v": 30
    },
    {
      "midi": 41,
      "hit": false,
      "t": 294462.79350000067,
      "d": 46.728999999992084,
      "v": 28
    },
    {
      "midi": 41,
      "hit": false,
      "t": 294744.6277812507,
      "d": 683.4116250000079,
      "v": 24
    },
    {
      "midi": 74,
      "hit": false,
      "t": 294759.23059375066,
      "d": 96.37856250000186,
      "v": 47
    },
    {
      "midi": 48,
      "hit": false,
      "t": 294760.69087500067,
      "d": 124.12390624999534,
      "v": 32
    },
    {
      "midi": 63,
      "hit": false,
      "t": 294766.53200000065,
      "d": 67.17293749999953,
      "v": 34
    },
    {
      "midi": 67,
      "hit": false,
      "t": 294766.53200000065,
      "d": 71.55378125002608,
      "v": 45
    },
    {
      "midi": 71,
      "hit": false,
      "t": 294788.43621875066,
      "d": 71.55378125002608,
      "v": 32
    },
    {
      "midi": 48,
      "hit": false,
      "t": 295000.17700000067,
      "d": 127.04446875007125,
      "v": 35
    },
    {
      "midi": 63,
      "hit": false,
      "t": 295003.0975625007,
      "d": 267.2314687500475,
      "v": 36
    },
    {
      "midi": 74,
      "hit": false,
      "t": 295007.4784062507,
      "d": 248.2478125000489,
      "v": 46
    },
    {
      "midi": 67,
      "hit": false,
      "t": 295019.1606562507,
      "d": 280.3740000000107,
      "v": 42
    },
    {
      "midi": 72,
      "hit": false,
      "t": 295365.2473125007,
      "d": 78.8551874999539,
      "v": 28
    },
    {
      "midi": 74,
      "hit": false,
      "t": 295541.9413437507,
      "d": 207.359937500034,
      "v": 51
    },
    {
      "midi": 63,
      "hit": false,
      "t": 295565.3058437507,
      "d": 235.10528125002747,
      "v": 30
    },
    {
      "midi": 67,
      "hit": false,
      "t": 295581.3689375007,
      "d": 207.359937500034,
      "v": 36
    },
    {
      "midi": 72,
      "hit": false,
      "t": 295892.4088437507,
      "d": 54.030406249978114,
      "v": 51
    },
    {
      "midi": 67,
      "hit": false,
      "t": 296107.07018750074,
      "d": 642.523749999993,
      "v": 34
    },
    {
      "midi": 64,
      "hit": false,
      "t": 296114.3715937507,
      "d": 657.1265625000233,
      "v": 29
    },
    {
      "midi": 50,
      "hit": false,
      "t": 296114.3715937507,
      "d": 2635.8076562499627,
      "v": 36
    },
    {
      "midi": 60,
      "hit": false,
      "t": 296117.29215625074,
      "d": 668.8088124999776,
      "v": 32
    },
    {
      "midi": 71,
      "hit": false,
      "t": 296118.75243750075,
      "d": 566.5891249999986,
      "v": 47
    },
    {
      "midi": 59,
      "hit": false,
      "t": 296127.51412500074,
      "d": 566.5891249999986,
      "v": 28
    },
    {
      "midi": 69,
      "hit": false,
      "t": 296702.86493750074,
      "d": 189.83656249998603,
      "v": 42
    },
    {
      "midi": 57,
      "hit": false,
      "t": 296733.53084375075,
      "d": 293.5165312499739,
      "v": 25
    },
    {
      "midi": 71,
      "hit": false,
      "t": 297047.49131250073,
      "d": 1268.9844062500051,
      "v": 37
    },
    {
      "midi": 60,
      "hit": false,
      "t": 297048.95159375074,
      "d": 1080.6081249999697,
      "v": 32
    },
    {
      "midi": 67,
      "hit": false,
      "t": 297051.87215625076,
      "d": 1194.5100624999614,
      "v": 35
    },
    {
      "midi": 64,
      "hit": false,
      "t": 297057.71328125073,
      "d": 1162.3838749999995,
      "v": 36
    },
    {
      "midi": 59,
      "hit": false,
      "t": 297075.2366562507,
      "d": 1355.1410000000033,
      "v": 34
    },
    {
      "midi": 59,
      "hit": false,
      "t": 298706.3708125007,
      "d": 77.39490625000326,
      "v": 28
    },
    {
      "midi": 67,
      "hit": false,
      "t": 299081.6630937507,
      "d": 55.49068749998696,
      "v": 41
    },
    {
      "midi": 69,
      "hit": false,
      "t": 299293.4038750007,
      "d": 83.23603124998044,
      "v": 66
    },
    {
      "midi": 68,
      "hit": false,
      "t": 299529.9694375007,
      "d": 833.8205937501043,
      "v": 59
    },
    {
      "midi": 71,
      "hit": false,
      "t": 299532.8900000007,
      "d": 833.8205937501043,
      "v": 62
    },
    {
      "midi": 54,
      "hit": false,
      "t": 299541.6516875007,
      "d": 811.916375000088,
      "v": 37
    },
    {
      "midi": 64,
      "hit": false,
      "t": 299544.5722500007,
      "d": 499.4161875000573,
      "v": 58
    },
    {
      "midi": 60,
      "hit": false,
      "t": 299559.17506250076,
      "d": 746.2037187500391,
      "v": 43
    },
    {
      "midi": 76,
      "hit": false,
      "t": 300425.1218437508,
      "d": 189.83656249998603,
      "v": 64
    },
    {
      "midi": 68,
      "hit": false,
      "t": 302065.0176875008,
      "d": 414.71987499989336,
      "v": 34
    },
    {
      "midi": 71,
      "hit": false,
      "t": 302065.0176875008,
      "d": 458.52831249986775,
      "v": 49
    },
    {
      "midi": 54,
      "hit": false,
      "t": 302072.3190937508,
      "d": 376.75256249989616,
      "v": 40
    },
    {
      "midi": 64,
      "hit": false,
      "t": 302086.92190625076,
      "d": 363.61003124993294,
      "v": 42
    },
    {
      "midi": 60,
      "hit": false,
      "t": 302094.22331250075,
      "d": 319.80159374995856,
      "v": 24
    },
    {
      "midi": 76,
      "hit": false,
      "t": 302817.06253125065,
      "d": 1175.526406250021,
      "v": 46
    },
    {
      "midi": 69,
      "hit": false,
      "t": 302837.50646875065,
      "d": 594.3344687499921,
      "v": 45
    },
    {
      "midi": 65,
      "hit": false,
      "t": 302853.56956250063,
      "d": 467.29000000003725,
      "v": 36
    },
    {
      "midi": 55,
      "hit": false,
      "t": 302866.71209375066,
      "d": 576.8110937500023,
      "v": 22
    },
    {
      "midi": 60,
      "hit": false,
      "t": 302887.15603125066,
      "d": 400.1170624999795,
      "v": 35
    },
    {
      "midi": 57,
      "hit": false,
      "t": 302894.45743750065,
      "d": 560.7480000000214,
      "v": 22
    },
    {
      "midi": 65,
      "hit": false,
      "t": 303745.8014062507,
      "d": 100.7594062499702,
      "v": 30
    },
    {
      "midi": 69,
      "hit": false,
      "t": 303747.2616875007,
      "d": 162.09121874999255,
      "v": 39
    },
    {
      "midi": 55,
      "hit": false,
      "t": 303753.10281250067,
      "d": 108.06081249995623,
      "v": 28
    },
    {
      "midi": 60,
      "hit": false,
      "t": 303770.62618750066,
      "d": 103.67996874998789,
      "v": 27
    },
    {
      "midi": 57,
      "hit": false,
      "t": 303773.5467500007,
      "d": 132.88559374999022,
      "v": 31
    },
    {
      "midi": 88,
      "hit": false,
      "t": 304252.51900000067,
      "d": 147.4884062501369,
      "v": 65
    },
    {
      "midi": 76,
      "hit": false,
      "t": 304262.7409687507,
      "d": 84.6963125000475,
      "v": 56
    },
    {
      "midi": 55,
      "hit": false,
      "t": 304264.2012500007,
      "d": 94.91828125005122,
      "v": 47
    },
    {
      "midi": 65,
      "hit": false,
      "t": 304265.6615312507,
      "d": 97.83884375006892,
      "v": 52
    },
    {
      "midi": 60,
      "hit": false,
      "t": 304278.8040625007,
      "d": 118.28278125007637,
      "v": 48
    },
    {
      "midi": 57,
      "hit": false,
      "t": 304283.18490625074,
      "d": 109.52109375002328,
      "v": 37
    },
    {
      "midi": 93,
      "hit": false,
      "t": 304550.4163750008,
      "d": 181.07487499999115,
      "v": 80
    },
    {
      "midi": 81,
      "hit": false,
      "t": 304557.7177812508,
      "d": 163.5515000000014,
      "v": 64
    },
    {
      "midi": 55,
      "hit": false,
      "t": 304560.6383437508,
      "d": 204.4393750000163,
      "v": 58
    },
    {
      "midi": 65,
      "hit": false,
      "t": 304572.3205937508,
      "d": 208.82021874998463,
      "v": 45
    },
    {
      "midi": 57,
      "hit": false,
      "t": 304573.7808750008,
      "d": 221.96274999994785,
      "v": 52
    },
    {
      "midi": 60,
      "hit": false,
      "t": 304575.2411562508,
      "d": 224.88331249996554,
      "v": 54
    },
    {
      "midi": 84,
      "hit": false,
      "t": 304895.0427500008,
      "d": 78.85518750007031,
      "v": 62
    },
    {
      "midi": 96,
      "hit": false,
      "t": 304899.4235937508,
      "d": 93.45800000004238,
      "v": 53
    },
    {
      "midi": 55,
      "hit": false,
      "t": 304922.78809375083,
      "d": 91.99771875003353,
      "v": 42
    },
    {
      "midi": 65,
      "hit": false,
      "t": 304930.0895000008,
      "d": 58.41125000000466,
      "v": 36
    },
    {
      "midi": 60,
      "hit": false,
      "t": 304933.01006250083,
      "d": 106.60053125000559,
      "v": 36
    },
    {
      "midi": 57,
      "hit": false,
      "t": 304944.69231250085,
      "d": 59.871531250013504,
      "v": 33
    },
    {
      "midi": 55,
      "hit": false,
      "t": 305378.39584375086,
      "d": 514.0190000000293,
      "v": 44
    },
    {
      "midi": 65,
      "hit": false,
      "t": 305388.61781250086,
      "d": 413.25959375000093,
      "v": 42
    },
    {
      "midi": 100,
      "hit": false,
      "t": 305391.5383750009,
      "d": 257.00949999998556,
      "v": 66
    },
    {
      "midi": 60,
      "hit": false,
      "t": 305397.37950000085,
      "d": 408.8787500000326,
      "v": 47
    },
    {
      "midi": 88,
      "hit": false,
      "t": 305404.68090625084,
      "d": 147.4884062500205,
      "v": 47
    },
    {
      "midi": 57,
      "hit": false,
      "t": 305404.68090625084,
      "d": 459.9885937500512,
      "v": 38
    },
    {
      "midi": 98,
      "hit": false,
      "t": 305800.41712500085,
      "d": 103.6799687500461,
      "v": 58
    },
    {
      "midi": 100,
      "hit": false,
      "t": 305987.3331250009,
      "d": 146.02812500001164,
      "v": 57
    },
    {
      "midi": 101,
      "hit": false,
      "t": 305990.2536875009,
      "d": 108.06081250001444,
      "v": 60
    },
    {
      "midi": 59,
      "hit": false,
      "t": 306171.3285625009,
      "d": 439.544656250102,
      "v": 44
    },
    {
      "midi": 53,
      "hit": false,
      "t": 306175.7094062509,
      "d": 451.22690625005635,
      "v": 48
    },
    {
      "midi": 64,
      "hit": false,
      "t": 306180.09025000094,
      "d": 419.1007187500363,
      "v": 43
    },
    {
      "midi": 101,
      "hit": false,
      "t": 306184.47109375097,
      "d": 459.988593749993,
      "v": 57
    },
    {
      "midi": 103,
      "hit": false,
      "t": 306720.39431250095,
      "d": 290.59596875001444,
      "v": 61
    },
    {
      "midi": 63,
      "hit": false,
      "t": 307075.24265625095,
      "d": 597.2550312498934,
      "v": 42
    },
    {
      "midi": 59,
      "hit": false,
      "t": 307089.8454687509,
      "d": 538.8437812499469,
      "v": 38
    },
    {
      "midi": 53,
      "hit": false,
      "t": 307091.30575000093,
      "d": 530.082093749952,
      "v": 38
    },
    {
      "midi": 104,
      "hit": false,
      "t": 307092.76603125094,
      "d": 446.8460624999716,
      "v": 60
    },
    {
      "midi": 63,
      "hit": false,
      "t": 307890.0795937508,
      "d": 502.33675000001676,
      "v": 39
    },
    {
      "midi": 53,
      "hit": false,
      "t": 307903.22212500084,
      "d": 616.2386875000084,
      "v": 32
    },
    {
      "midi": 59,
      "hit": false,
      "t": 307909.0632500008,
      "d": 452.687187500007,
      "v": 42
    },
    {
      "midi": 63,
      "hit": false,
      "t": 308744.3441250009,
      "d": 138.7267187500256,
      "v": 35
    },
    {
      "midi": 59,
      "hit": false,
      "t": 308763.3277812509,
      "d": 124.12390625005355,
      "v": 32
    },
    {
      "midi": 79,
      "hit": false,
      "t": 309195.57103125093,
      "d": 89.07715625001583,
      "v": 44
    },
    {
      "midi": 67,
      "hit": false,
      "t": 309236.45890625095,
      "d": 80.31546875002095,
      "v": 32
    },
    {
      "midi": 76,
      "hit": false,
      "t": 309531.435718751,
      "d": 814.8369375001057,
      "v": 63
    },
    {
      "midi": 48,
      "hit": false,
      "t": 309565.022187501,
      "d": 788.5518750000629,
      "v": 38
    },
    {
      "midi": 55,
      "hit": false,
      "t": 309594.227812501,
      "d": 750.5845625000657,
      "v": 29
    },
    {
      "midi": 60,
      "hit": false,
      "t": 309597.14837500104,
      "d": 734.5214687500265,
      "v": 24
    },
    {
      "midi": 78,
      "hit": false,
      "t": 310114.087937501,
      "d": 100.7594062500284,
      "v": 62
    },
    {
      "midi": 79,
      "hit": false,
      "t": 310295.1628125011,
      "d": 89.07715625001583,
      "v": 61
    },
    {
      "midi": 78,
      "hit": false,
      "t": 310483.5390937511,
      "d": 87.61687500000698,
      "v": 56
    },
    {
      "midi": 74,
      "hit": false,
      "t": 310680.67706250114,
      "d": 112.44165624998277,
      "v": 45
    },
    {
      "midi": 71,
      "hit": false,
      "t": 310845.68884375115,
      "d": 91.99771874997532,
      "v": 54
    },
    {
      "midi": 66,
      "hit": false,
      "t": 311036.98568750115,
      "d": 96.37856250000186,
      "v": 58
    },
    {
      "midi": 64,
      "hit": false,
      "t": 311219.52084375115,
      "d": 172.31318749999627,
      "v": 47
    },
    {
      "midi": 59,
      "hit": false,
      "t": 311602.11453125114,
      "d": 1210.5731562500005,
      "v": 42
    },
    {
      "midi": 66,
      "hit": false,
      "t": 311606.49537500116,
      "d": 1296.7297499999404,
      "v": 33
    },
    {
      "midi": 64,
      "hit": false,
      "t": 311632.78043750115,
      "d": 1242.6993437499623,
      "v": 41
    },
    {
      "midi": 48,
      "hit": false,
      "t": 311638.6215625011,
      "d": 899.5332500000368,
      "v": 34
    },
    {
      "midi": 55,
      "hit": false,
      "t": 311651.76409375115,
      "d": 1330.3162187500275,
      "v": 24
    },
    {
      "midi": 48,
      "hit": false,
      "t": 312917.82793750113,
      "d": 59.871531250013504,
      "v": 47
    },
    {
      "midi": 72,
      "hit": false,
      "t": 313490.2581875012,
      "d": 251.1683750000666,
      "v": 74
    },
    {
      "midi": 69,
      "hit": false,
      "t": 313494.63903125125,
      "d": 316.8810312500573,
      "v": 80
    },
    {
      "midi": 65,
      "hit": false,
      "t": 313497.55959375127,
      "d": 275.9931562500424,
      "v": 78
    },
    {
      "midi": 62,
      "hit": false,
      "t": 313501.9404375013,
      "d": 252.62865625001723,
      "v": 64
    },
    {
      "midi": 60,
      "hit": false,
      "t": 313503.4007187513,
      "d": 249.70809374999953,
      "v": 64
    },
    {
      "midi": 58,
      "hit": false,
      "t": 313512.1624062513,
      "d": 325.64271874999395,
      "v": 53
    },
    {
      "midi": 61,
      "hit": false,
      "t": 314043.70478125126,
      "d": 233.64499999996042,
      "v": 69
    },
    {
      "midi": 66,
      "hit": false,
      "t": 314058.30759375123,
      "d": 230.72443750000093,
      "v": 81
    },
    {
      "midi": 73,
      "hit": false,
      "t": 314058.30759375123,
      "d": 344.62637499999255,
      "v": 61
    },
    {
      "midi": 69,
      "hit": false,
      "t": 314064.1487187512,
      "d": 242.4066875000135,
      "v": 77
    },
    {
      "midi": 59,
      "hit": false,
      "t": 314067.0692812512,
      "d": 167.93234374996973,
      "v": 63
    },
    {
      "midi": 57,
      "hit": false,
      "t": 314087.51321875124,
      "d": 166.47206249996088,
      "v": 38
    },
    {
      "midi": 53,
      "hit": false,
      "t": 314614.6747500012,
      "d": 271.61231250007404,
      "v": 61
    },
    {
      "midi": 72,
      "hit": false,
      "t": 314616.13503125124,
      "d": 257.0095000000438,
      "v": 66
    },
    {
      "midi": 60,
      "hit": false,
      "t": 314626.35700000124,
      "d": 210.2805000000517,
      "v": 58
    },
    {
      "midi": 76,
      "hit": false,
      "t": 314626.35700000124,
      "d": 261.3903437500703,
      "v": 71
    },
    {
      "midi": 69,
      "hit": false,
      "t": 314627.81728125125,
      "d": 214.66134375002002,
      "v": 63
    },
    {
      "midi": 64,
      "hit": false,
      "t": 314632.1981250013,
      "d": 201.5188124999986,
      "v": 64
    },
    {
      "midi": 52,
      "hit": false,
      "t": 315182.72415625135,
      "d": 115.36221875005867,
      "v": 55
    },
    {
      "midi": 62,
      "hit": false,
      "t": 315184.18443750136,
      "d": 188.3762812500354,
      "v": 55
    },
    {
      "midi": 59,
      "hit": false,
      "t": 315187.1050000014,
      "d": 137.26643750001676,
      "v": 50
    },
    {
      "midi": 79,
      "hit": false,
      "t": 315190.0255625014,
      "d": 195.67768750002142,
      "v": 70
    },
    {
      "midi": 74,
      "hit": false,
      "t": 315194.4064062514,
      "d": 176.6940312499646,
      "v": 71
    },
    {
      "midi": 67,
      "hit": false,
      "t": 315201.7078125014,
      "d": 122.6636249999865,
      "v": 66
    },
    {
      "midi": 61,
      "hit": false,
      "t": 315737.63103125145,
      "d": 351.927781250095,
      "v": 59
    },
    {
      "midi": 65,
      "hit": false,
      "t": 315742.0118750015,
      "d": 271.61231250007404,
      "v": 68
    },
    {
      "midi": 84,
      "hit": false,
      "t": 315743.4721562515,
      "d": 284.75484375009546,
      "v": 78
    },
    {
      "midi": 60,
      "hit": false,
      "t": 315746.3927187515,
      "d": 268.69175000005635,
      "v": 58
    },
    {
      "midi": 77,
      "hit": false,
      "t": 315750.77356250153,
      "d": 294.976812500041,
      "v": 69
    },
    {
      "midi": 81,
      "hit": false,
      "t": 315753.69412500155,
      "d": 265.77118750003865,
      "v": 63
    },
    {
      "midi": 55,
      "hit": false,
      "t": 315755.15440625156,
      "d": 281.83428125001956,
      "v": 63
    },
    {
      "midi": 72,
      "hit": false,
      "t": 315756.61468750157,
      "d": 316.88103124999907,
      "v": 66
    },
    {
      "midi": 64,
      "hit": false,
      "t": 316312.98184375156,
      "d": 449.7666250000475,
      "v": 50
    },
    {
      "midi": 60,
      "hit": false,
      "t": 316318.82296875154,
      "d": 481.8928125000675,
      "v": 42
    },
    {
      "midi": 83,
      "hit": false,
      "t": 316320.28325000155,
      "d": 410.33903125004144,
      "v": 66
    },
    {
      "midi": 76,
      "hit": false,
      "t": 316327.58465625154,
      "d": 470.21056250005495,
      "v": 59
    },
    {
      "midi": 71,
      "hit": false,
      "t": 316331.96550000156,
      "d": 417.6404375000275,
      "v": 54
    },
    {
      "midi": 54,
      "hit": false,
      "t": 316336.3463437516,
      "d": 655.6662812500144,
      "v": 39
    },
    {
      "midi": 59,
      "hit": false,
      "t": 316345.1080312516,
      "d": 403.0376249999972,
      "v": 41
    },
    {
      "midi": 81,
      "hit": false,
      "t": 316870.8092812516,
      "d": 105.14024999999674,
      "v": 45
    },
    {
      "midi": 64,
      "hit": false,
      "t": 316876.6504062516,
      "d": 90.53743750002468,
      "v": 24
    },
    {
      "midi": 69,
      "hit": false,
      "t": 316879.5709687516,
      "d": 67.17293749999953,
      "v": 36
    },
    {
      "midi": 60,
      "hit": false,
      "t": 316881.03125000163,
      "d": 109.52109374996508,
      "v": 22
    },
    {
      "midi": 83,
      "hit": false,
      "t": 317192.0711562516,
      "d": 207.3599375001504,
      "v": 59
    },
    {
      "midi": 71,
      "hit": false,
      "t": 317193.5314375016,
      "d": 99.29912500007777,
      "v": 55
    },
    {
      "midi": 79,
      "hit": false,
      "t": 317209.5945312516,
      "d": 166.4720625001355,
      "v": 42
    },
    {
      "midi": 76,
      "hit": false,
      "t": 317213.9753750016,
      "d": 173.77346875012154,
      "v": 52
    },
    {
      "midi": 64,
      "hit": false,
      "t": 317215.4356562516,
      "d": 102.21968750009546,
      "v": 34
    },
    {
      "midi": 60,
      "hit": false,
      "t": 317227.11790625163,
      "d": 109.52109375008149,
      "v": 33
    },
    {
      "midi": 54,
      "hit": false,
      "t": 317228.57818750164,
      "d": 632.3017812501639,
      "v": 29
    },
    {
      "midi": 59,
      "hit": false,
      "t": 317231.49875000166,
      "d": 74.47434375004377,
      "v": 29
    },
    {
      "midi": 71,
      "hit": false,
      "t": 317397.97081250174,
      "d": 108.06081250001444,
      "v": 38
    },
    {
      "midi": 83,
      "hit": false,
      "t": 317536.69753125176,
      "d": 297.8973750000587,
      "v": 19
    },
    {
      "midi": 71,
      "hit": false,
      "t": 317619.93356250174,
      "d": 124.12390624999534,
      "v": 36
    },
    {
      "midi": 60,
      "hit": false,
      "t": 317717.77240625175,
      "d": 115.36221875005867,
      "v": 32
    },
    {
      "midi": 64,
      "hit": false,
      "t": 317748.43831250176,
      "d": 73.01406250003492,
      "v": 32
    },
    {
      "midi": 76,
      "hit": false,
      "t": 317768.88225000177,
      "d": 48.18928125000093,
      "v": 32
    },
    {
      "midi": 79,
      "hit": false,
      "t": 317770.3425312518,
      "d": 45.268718749983236,
      "v": 27
    },
    {
      "midi": 71,
      "hit": false,
      "t": 318380.7400937518,
      "d": 100.75940625008661,
      "v": 53
    },
    {
      "midi": 60,
      "hit": false,
      "t": 318385.12093750184,
      "d": 59.871531250013504,
      "v": 58
    },
    {
      "midi": 64,
      "hit": false,
      "t": 318407.02515625185,
      "d": 42.34815625002375,
      "v": 35
    },
    {
      "midi": 71,
      "hit": false,
      "t": 318729.7473125019,
      "d": 108.06081250001444,
      "v": 48
    },
    {
      "midi": 60,
      "hit": false,
      "t": 318747.2706875019,
      "d": 90.53743750002468,
      "v": 44
    },
    {
      "midi": 64,
      "hit": false,
      "t": 318769.1749062519,
      "d": 52.570125000027474,
      "v": 36
    },
    {
      "midi": 69,
      "hit": false,
      "t": 318915.2030312519,
      "d": 93.45799999998417,
      "v": 34
    },
    {
      "midi": 71,
      "hit": false,
      "t": 319086.0559375019,
      "d": 679.0307812500978,
      "v": 48
    },
    {
      "midi": 60,
      "hit": false,
      "t": 319088.9765000019,
      "d": 696.5541562500875,
      "v": 39
    },
    {
      "midi": 54,
      "hit": false,
      "t": 319100.6587500019,
      "d": 341.70581250003306,
      "v": 31
    },
    {
      "midi": 64,
      "hit": false,
      "t": 319112.34100000194,
      "d": 683.4116250000661,
      "v": 38
    },
    {
      "midi": 59,
      "hit": false,
      "t": 319131.32465625193,
      "d": 369.45115625002654,
      "v": 31
    },
    {
      "midi": 54,
      "hit": false,
      "t": 319629.280562502,
      "d": 547.6054687500582,
      "v": 43
    },
    {
      "midi": 69,
      "hit": false,
      "t": 320025.016781252,
      "d": 344.62637500005076,
      "v": 75
    },
    {
      "midi": 60,
      "hit": false,
      "t": 320039.619593752,
      "d": 319.80159375001676,
      "v": 66
    },
    {
      "midi": 64,
      "hit": false,
      "t": 320042.54015625204,
      "d": 325.64271874999395,
      "v": 62
    },
    {
      "midi": 67,
      "hit": false,
      "t": 320435.35581250204,
      "d": 112.44165624998277,
      "v": 79
    },
    {
      "midi": 64,
      "hit": false,
      "t": 320451.418906252,
      "d": 36.50703124998836,
      "v": 56
    },
    {
      "midi": 38,
      "hit": false,
      "t": 321134.830531252,
      "d": 40.8878750000149,
      "v": 44
    },
    {
      "midi": 66,
      "hit": false,
      "t": 321355.333000002,
      "d": 616.2386875000084,
      "v": 80
    },
    {
      "midi": 58,
      "hit": false,
      "t": 321361.174125002,
      "d": 712.6172500000685,
      "v": 82
    },
    {
      "midi": 61,
      "hit": false,
      "t": 321367.015250002,
      "d": 702.3952812500647,
      "v": 77
    },
    {
      "midi": 50,
      "hit": false,
      "t": 321368.475531252,
      "d": 639.6031875000335,
      "v": 68
    },
    {
      "midi": 67,
      "hit": false,
      "t": 322213.97837500204,
      "d": 116.82250000000931,
      "v": 68
    },
    {
      "midi": 58,
      "hit": false,
      "t": 322225.66062500206,
      "d": 270.152031250007,
      "v": 59
    },
    {
      "midi": 61,
      "hit": false,
      "t": 322227.12090625206,
      "d": 325.64271874999395,
      "v": 61
    },
    {
      "midi": 50,
      "hit": false,
      "t": 322243.18400000205,
      "d": 254.08893750002608,
      "v": 54
    },
    {
      "midi": 69,
      "hit": false,
      "t": 322614.0954375021,
      "d": 208.82021874998463,
      "v": 69
    },
    {
      "midi": 69,
      "hit": false,
      "t": 322995.22884375206,
      "d": 2263.435937500035,
      "v": 57
    },
    {
      "midi": 66,
      "hit": false,
      "t": 322999.6096875021,
      "d": 1356.6012812500703,
      "v": 46
    },
    {
      "midi": 59,
      "hit": false,
      "t": 323011.2919375021,
      "d": 1292.3489062500303,
      "v": 40
    },
    {
      "midi": 62,
      "hit": false,
      "t": 323014.2125000021,
      "d": 1195.9703437500284,
      "v": 51
    },
    {
      "midi": 50,
      "hit": false,
      "t": 323030.2755937521,
      "d": 581.1919375000289,
      "v": 44
    },
    {
      "midi": 50,
      "hit": false,
      "t": 323907.9046250021,
      "d": 445.38578125002095,
      "v": 29
    },
    {
      "midi": 59,
      "hit": false,
      "t": 324636.5849687521,
      "d": 632.3017812499893,
      "v": 35
    },
    {
      "midi": 66,
      "hit": false,
      "t": 324645.3466562521,
      "d": 639.6031874999753,
      "v": 19
    },
    {
      "midi": 62,
      "hit": false,
      "t": 324651.1877812521,
      "d": 645.4443125000107,
      "v": 42
    },
    {
      "midi": 50,
      "hit": false,
      "t": 324657.02890625206,
      "d": 446.8460625000298,
      "v": 31
    },
    {
      "midi": 50,
      "hit": false,
      "t": 325157.90537500207,
      "d": 706.7761250001495,
      "v": 24
    },
    {
      "midi": 67,
      "hit": false,
      "t": 325531.7373750021,
      "d": 373.8320000001113,
      "v": 65
    },
    {
      "midi": 62,
      "hit": false,
      "t": 325531.7373750021,
      "d": 400.1170625000959,
      "v": 68
    },
    {
      "midi": 59,
      "hit": false,
      "t": 325546.34018750215,
      "d": 337.3249687500647,
      "v": 68
    },
    {
      "midi": 55,
      "hit": false,
      "t": 325549.26075000217,
      "d": 362.1497500000405,
      "v": 50
    },
    {
      "midi": 66,
      "hit": false,
      "t": 326001.94793750223,
      "d": 319.80159375001676,
      "v": 69
    },
    {
      "midi": 54,
      "hit": false,
      "t": 326006.32878125226,
      "d": 46.728999999992084,
      "v": 31
    },
    {
      "midi": 52,
      "hit": false,
      "t": 326442.95287500223,
      "d": 589.953625000082,
      "v": 44
    },
    {
      "midi": 40,
      "hit": false,
      "t": 326445.87343750225,
      "d": 500.8764687500079,
      "v": 35
    },
    {
      "midi": 62,
      "hit": false,
      "t": 326447.33371875226,
      "d": 497.9559062499902,
      "v": 49
    },
    {
      "midi": 57,
      "hit": false,
      "t": 326457.55568750226,
      "d": 474.5914062499651,
      "v": 40
    },
    {
      "midi": 66,
      "hit": false,
      "t": 326460.4762500023,
      "d": 607.4770000000135,
      "v": 34
    },
    {
      "midi": 64,
      "hit": false,
      "t": 326978.8760937523,
      "d": 51.10984375001863,
      "v": 34
    },
    {
      "midi": 73,
      "hit": false,
      "t": 327871.10793750227,
      "d": 1190.129218749993,
      "v": 43
    },
    {
      "midi": 66,
      "hit": false,
      "t": 327874.0285000023,
      "d": 1198.890906249988,
      "v": 49
    },
    {
      "midi": 62,
      "hit": false,
      "t": 327885.7107500023,
      "d": 1455.9004062499735,
      "v": 47
    },
    {
      "midi": 69,
      "hit": false,
      "t": 327900.31356250227,
      "d": 1082.0684062499786,
      "v": 49
    },
    {
      "midi": 52,
      "hit": false,
      "t": 328623.1527812522,
      "d": 642.5237500000512,
      "v": 35
    },
    {
      "midi": 66,
      "hit": false,
      "t": 329458.4336562523,
      "d": 224.88331250002375,
      "v": 53
    },
    {
      "midi": 61,
      "hit": false,
      "t": 329765.0927187523,
      "d": 401.57734374998836,
      "v": 39
    },
    {
      "midi": 51,
      "hit": false,
      "t": 329766.5530000023,
      "d": 2951.2284062500694,
      "v": 36
    },
    {
      "midi": 65,
      "hit": false,
      "t": 329768.0132812523,
      "d": 240.94640625000466,
      "v": 47
    },
    {
      "midi": 72,
      "hit": false,
      "t": 330150.6069687523,
      "d": 2121.78865625005,
      "v": 58
    },
    {
      "midi": 61,
      "hit": false,
      "t": 330460.18659375224,
      "d": 74.47434375004377,
      "v": 23
    },
    {
      "midi": 65,
      "hit": false,
      "t": 330468.94828125223,
      "d": 52.570125000027474,
      "v": 49
    },
    {
      "midi": 60,
      "hit": false,
      "t": 330537.5815000023,
      "d": 36.50703124998836,
      "v": 20
    },
    {
      "midi": 61,
      "hit": false,
      "t": 330822.3363437523,
      "d": 89.07715624995762,
      "v": 45
    },
    {
      "midi": 65,
      "hit": false,
      "t": 330857.38309375226,
      "d": 49.64956249995157,
      "v": 36
    },
    {
      "midi": 60,
      "hit": false,
      "t": 330863.22421875224,
      "d": 51.10984375001863,
      "v": 32
    },
    {
      "midi": 61,
      "hit": false,
      "t": 331202.00946875225,
      "d": 75.93462499999441,
      "v": 37
    },
    {
      "midi": 65,
      "hit": false,
      "t": 331210.77115625225,
      "d": 65.71265624999069,
      "v": 46
    },
    {
      "midi": 60,
      "hit": false,
      "t": 331226.8342500022,
      "d": 59.871531250013504,
      "v": 31
    },
    {
      "midi": 61,
      "hit": false,
      "t": 331495.5260000022,
      "d": 83.23603125003865,
      "v": 32
    },
    {
      "midi": 65,
      "hit": false,
      "t": 331507.20825000224,
      "d": 84.6963125000475,
      "v": 44
    },
    {
      "midi": 60,
      "hit": false,
      "t": 331511.58909375226,
      "d": 68.63321875000838,
      "v": 33
    },
    {
      "midi": 61,
      "hit": false,
      "t": 331898.5636250023,
      "d": 445.38578125007916,
      "v": 36
    },
    {
      "midi": 65,
      "hit": false,
      "t": 331911.7061562523,
      "d": 379.67312500003027,
      "v": 47
    },
    {
      "midi": 60,
      "hit": false,
      "t": 331924.8486875023,
      "d": 703.8555625000154,
      "v": 34
    },
    {
      "midi": 65,
      "hit": false,
      "t": 332690.03606250236,
      "d": 115.36221875000047,
      "v": 60
    },
    {
      "midi": 64,
      "hit": false,
      "t": 332853.58756250236,
      "d": 103.67996874998789,
      "v": 51
    },
    {
      "midi": 64,
      "hit": false,
      "t": 333066.7886250024,
      "d": 563.6685624999809,
      "v": 48
    },
    {
      "midi": 50,
      "hit": false,
      "t": 333081.39143750235,
      "d": 1536.2158750000526,
      "v": 35
    },
    {
      "midi": 60,
      "hit": false,
      "t": 333088.69284375233,
      "d": 665.8882500000182,
      "v": 32
    },
    {
      "midi": 63,
      "hit": false,
      "t": 333628.99690625235,
      "d": 1658.8795000000973,
      "v": 33
    },
    {
      "midi": 70,
      "hit": false,
      "t": 333994.06721875235,
      "d": 1314.2531250001048,
      "v": 42
    },
    {
      "midi": 60,
      "hit": false,
      "t": 334024.73312500236,
      "d": 1285.0475000001024,
      "v": 25
    },
    {
      "midi": 50,
      "hit": false,
      "t": 334732.9695312524,
      "d": 1051.4025000000838,
      "v": 39
    },
    {
      "midi": 62,
      "hit": false,
      "t": 336276.4868125025,
      "d": 134.34587499999907,
      "v": 26
    },
    {
      "midi": 67,
      "hit": false,
      "t": 336475.0850625025,
      "d": 2813.961968749878,
      "v": 58
    },
    {
      "midi": 43,
      "hit": false,
      "t": 336491.14815625246,
      "d": 2346.671968749899,
      "v": 31
    },
    {
      "midi": 50,
      "hit": false,
      "t": 336498.44956250244,
      "d": 2304.3238124999334,
      "v": 28
    },
    {
      "midi": 53,
      "hit": false,
      "t": 336523.2743437524,
      "d": 636.6826250000158,
      "v": 16
    },
    {
      "midi": 62,
      "hit": false,
      "t": 336848.9170625024,
      "d": 87.61687500000698,
      "v": 37
    },
    {
      "midi": 62,
      "hit": false,
      "t": 337523.5670000024,
      "d": 116.82250000000931,
      "v": 40
    },
    {
      "midi": 53,
      "hit": false,
      "t": 337533.78896875243,
      "d": 73.01406249997672,
      "v": 26
    },
    {
      "midi": 57,
      "hit": false,
      "t": 337541.0903750024,
      "d": 39.427593750006054,
      "v": 25
    },
    {
      "midi": 62,
      "hit": false,
      "t": 338091.61640625243,
      "d": 1025.1174374999246,
      "v": 27
    },
    {
      "midi": 53,
      "hit": false,
      "t": 338103.29865625245,
      "d": 635.2223437499488,
      "v": 26
    },
    {
      "midi": 58,
      "hit": false,
      "t": 338117.9014687524,
      "d": 1133.178249999939,
      "v": 26
    },
    {
      "midi": 57,
      "hit": false,
      "t": 338119.3617500024,
      "d": 963.7856249999022,
      "v": 26
    },
    {
      "midi": 44,
      "hit": false,
      "t": 339819.12912500236,
      "d": 839.6617187501397,
      "v": 34
    },
    {
      "midi": 51,
      "hit": false,
      "t": 339830.8113750024,
      "d": 858.6453750001383,
      "v": 28
    },
    {
      "midi": 58,
      "hit": false,
      "t": 340026.4890625024,
      "d": 226.3435937500326,
      "v": 43
    },
    {
      "midi": 55,
      "hit": false,
      "t": 340039.6315937524,
      "d": 42.34815625002375,
      "v": 35
    },
    {
      "midi": 56,
      "hit": false,
      "t": 340214.86534375243,
      "d": 153.32953124999767,
      "v": 52
    },
    {
      "midi": 60,
      "hit": false,
      "t": 340226.54759375245,
      "d": 151.86924999998882,
      "v": 64
    },
    {
      "midi": 58,
      "hit": false,
      "t": 340414.9238750024,
      "d": 230.72443750005914,
      "v": 60
    },
    {
      "midi": 62,
      "hit": false,
      "t": 340417.84443750244,
      "d": 135.80615625000792,
      "v": 66
    },
    {
      "midi": 63,
      "hit": false,
      "t": 340603.30015625246,
      "d": 143.10756250005215,
      "v": 59
    },
    {
      "midi": 60,
      "hit": false,
      "t": 340648.5688750025,
      "d": 73.01406250003492,
      "v": 31
    },
    {
      "midi": 58,
      "hit": false,
      "t": 340816.5012187525,
      "d": 115.36221875000047,
      "v": 49
    },
    {
      "midi": 62,
      "hit": false,
      "t": 340823.8026250025,
      "d": 106.60053125000559,
      "v": 55
    },
    {
      "midi": 44,
      "hit": false,
      "t": 340826.72318750253,
      "d": 106.60053125000559,
      "v": 34
    },
    {
      "midi": 44,
      "hit": false,
      "t": 341530.57875000255,
      "d": 292.0562500000233,
      "v": 30
    },
    {
      "midi": 67,
      "hit": false,
      "t": 342076.7239375026,
      "d": 110.98137499997392,
      "v": 62
    },
    {
      "midi": 56,
      "hit": false,
      "t": 342084.0253437526,
      "d": 75.93462499999441,
      "v": 48
    },
    {
      "midi": 60,
      "hit": false,
      "t": 342091.32675000257,
      "d": 74.47434374998556,
      "v": 45
    },
    {
      "midi": 62,
      "hit": false,
      "t": 342111.7706875026,
      "d": 46.728999999992084,
      "v": 34
    },
    {
      "midi": 65,
      "hit": false,
      "t": 342281.16331250255,
      "d": 55.49068749998696,
      "v": 40
    },
    {
      "midi": 56,
      "hit": false,
      "t": 342450.55593750253,
      "d": 449.7666250001057,
      "v": 47
    },
    {
      "midi": 67,
      "hit": false,
      "t": 342452.01621875254,
      "d": 300.81793750007637,
      "v": 64
    },
    {
      "midi": 60,
      "hit": false,
      "t": 342473.92043750256,
      "d": 362.1497500000987,
      "v": 46
    },
    {
      "midi": 62,
      "hit": false,
      "t": 342475.38071875257,
      "d": 335.8646875000559,
      "v": 35
    },
    {
      "midi": 55,
      "hit": false,
      "t": 342498.7452187526,
      "d": 332.9441250000382,
      "v": 35
    },
    {
      "midi": 65,
      "hit": false,
      "t": 342834.60990625265,
      "d": 121.20334374997765,
      "v": 55
    },
    {
      "midi": 44,
      "hit": false,
      "t": 343012.7642187526,
      "d": 118.28278124995995,
      "v": 35
    },
    {
      "midi": 60,
      "hit": false,
      "t": 343014.22450000263,
      "d": 62.79209374997299,
      "v": 41
    },
    {
      "midi": 57,
      "hit": false,
      "t": 343223.0447187526,
      "d": 198.5982499999809,
      "v": 24
    },
    {
      "midi": 43,
      "hit": false,
      "t": 343237.6475312526,
      "d": 176.69403125002282,
      "v": 44
    },
    {
      "midi": 81,
      "hit": false,
      "t": 344013.05687500257,
      "d": 170.85290625004563,
      "v": 62
    },
    {
      "midi": 57,
      "hit": false,
      "t": 344055.4050312526,
      "d": 54.03040625003632,
      "v": 36
    },
    {
      "midi": 69,
      "hit": false,
      "t": 344055.4050312526,
      "d": 73.01406250003492,
      "v": 71
    },
    {
      "midi": 62,
      "hit": false,
      "t": 344067.0872812526,
      "d": 43.808437500032596,
      "v": 41
    },
    {
      "midi": 58,
      "hit": false,
      "t": 344070.0078437526,
      "d": 93.45799999998417,
      "v": 37
    },
    {
      "midi": 84,
      "hit": false,
      "t": 344357.6832500026,
      "d": 113.90193750010803,
      "v": 77
    },
    {
      "midi": 72,
      "hit": false,
      "t": 344370.82578125264,
      "d": 49.64956250006799,
      "v": 65
    },
    {
      "midi": 57,
      "hit": false,
      "t": 344375.20662500267,
      "d": 42.34815625002375,
      "v": 57
    },
    {
      "midi": 58,
      "hit": false,
      "t": 344381.04775000265,
      "d": 87.61687500006519,
      "v": 48
    },
    {
      "midi": 62,
      "hit": false,
      "t": 344383.96831250266,
      "d": 40.88787500007311,
      "v": 53
    },
    {
      "midi": 89,
      "hit": false,
      "t": 344706.69046875276,
      "d": 83.23603124998044,
      "v": 66
    },
    {
      "midi": 57,
      "hit": false,
      "t": 344713.99187500274,
      "d": 42.34815625002375,
      "v": 69
    },
    {
      "midi": 77,
      "hit": false,
      "t": 344713.99187500274,
      "d": 54.030406249978114,
      "v": 67
    },
    {
      "midi": 58,
      "hit": false,
      "t": 344724.21384375275,
      "d": 78.85518750001211,
      "v": 51
    },
    {
      "midi": 62,
      "hit": false,
      "t": 344727.13440625276,
      "d": 35.04674999997951,
      "v": 59
    },
    {
      "midi": 93,
      "hit": false,
      "t": 345001.66728125274,
      "d": 86.15659375005635,
      "v": 72
    },
    {
      "midi": 81,
      "hit": false,
      "t": 345003.12756250275,
      "d": 68.63321875000838,
      "v": 62
    },
    {
      "midi": 57,
      "hit": false,
      "t": 345013.34953125275,
      "d": 61.33181250002235,
      "v": 55
    },
    {
      "midi": 58,
      "hit": false,
      "t": 345029.41262500273,
      "d": 99.29912500007777,
      "v": 37
    },
    {
      "midi": 62,
      "hit": false,
      "t": 345033.79346875276,
      "d": 45.268718750041444,
      "v": 34
    },
    {
      "midi": 57,
      "hit": false,
      "t": 345330.2305625028,
      "d": 109.52109374996508,
      "v": 36
    },
    {
      "midi": 96,
      "hit": false,
      "t": 345330.2305625028,
      "d": 170.85290624998743,
      "v": 48
    },
    {
      "midi": 62,
      "hit": false,
      "t": 345337.5319687528,
      "d": 93.45799999998417,
      "v": 40
    },
    {
      "midi": 84,
      "hit": false,
      "t": 345343.3730937528,
      "d": 146.02812500001164,
      "v": 27
    },
    {
      "midi": 58,
      "hit": false,
      "t": 345344.8333750028,
      "d": 103.67996874998789,
      "v": 37
    },
    {
      "midi": 93,
      "hit": false,
      "t": 345591.6209062528,
      "d": 423.48156250006286,
      "v": 45
    },
    {
      "midi": 62,
      "hit": false,
      "t": 345593.08118750283,
      "d": 623.5400937500526,
      "v": 39
    },
    {
      "midi": 58,
      "hit": false,
      "t": 345604.76343750284,
      "d": 594.3344687500503,
      "v": 33
    },
    {
      "midi": 57,
      "hit": false,
      "t": 345617.90596875286,
      "d": 544.6849062500405,
      "v": 17
    },
    {
      "midi": 84,
      "hit": false,
      "t": 345763.9340937529,
      "d": 327.1030000000028,
      "v": 1
    },
    {
      "midi": 65,
      "hit": false,
      "t": 346949.6824687529,
      "d": 2127.629781250027,
      "v": 44
    },
    {
      "midi": 55,
      "hit": false,
      "t": 346955.52359375294,
      "d": 2530.667406250024,
      "v": 42
    },
    {
      "midi": 56,
      "hit": false,
      "t": 346962.8250000029,
      "d": 2510.2234687500168,
      "v": 32
    },
    {
      "midi": 60,
      "hit": false,
      "t": 346983.26893750293,
      "d": 2421.146312500001,
      "v": 49
    },
    {
      "midi": 67,
      "hit": false,
      "t": 347671.0614062529,
      "d": 118.28278125001816,
      "v": 48
    },
    {
      "midi": 68,
      "hit": false,
      "t": 347837.5334687529,
      "d": 67.17293749999953,
      "v": 52
    },
    {
      "midi": 72,
      "hit": false,
      "t": 348014.22750000295,
      "d": 99.29912500001956,
      "v": 61
    },
    {
      "midi": 75,
      "hit": false,
      "t": 348147.113093753,
      "d": 91.99771874997532,
      "v": 60
    },
    {
      "midi": 79,
      "hit": false,
      "t": 348304.82346875296,
      "d": 96.37856250000186,
      "v": 65
    },
    {
      "midi": 80,
      "hit": false,
      "t": 348453.772156253,
      "d": 178.15431249997346,
      "v": 73
    },
    {
      "midi": 79,
      "hit": false,
      "t": 348604.181125003,
      "d": 100.7594062499702,
      "v": 69
    },
    {
      "midi": 75,
      "hit": false,
      "t": 348839.28640625294,
      "d": 122.6636249999865,
      "v": 60
    },
    {
      "midi": 72,
      "hit": false,
      "t": 349008.6790312529,
      "d": 70.09350000001723,
      "v": 46
    },
    {
      "midi": 68,
      "hit": false,
      "t": 349188.29362500296,
      "d": 129.96503124997253,
      "v": 49
    },
    {
      "midi": 65,
      "hit": false,
      "t": 349243.78431250295,
      "d": 65.71265624999069,
      "v": 31
    },
    {
      "midi": 67,
      "hit": false,
      "t": 349362.0670937529,
      "d": 54.03040625003632,
      "v": 54
    },
    {
      "midi": 70,
      "hit": false,
      "t": 349515.39662500296,
      "d": 147.4884062500205,
      "v": 65
    },
    {
      "midi": 68,
      "hit": false,
      "t": 349699.392062503,
      "d": 122.6636249999865,
      "v": 60
    },
    {
      "midi": 67,
      "hit": false,
      "t": 349896.530031253,
      "d": 157.71037500002421,
      "v": 44
    },
    {
      "midi": 62,
      "hit": false,
      "t": 349918.434250003,
      "d": 825.0589062500512,
      "v": 31
    },
    {
      "midi": 58,
      "hit": false,
      "t": 349919.894531253,
      "d": 874.7084687500028,
      "v": 34
    },
    {
      "midi": 57,
      "hit": false,
      "t": 349922.81509375304,
      "d": 895.1524062500102,
      "v": 24
    },
    {
      "midi": 69,
      "hit": false,
      "t": 350114.11193750304,
      "d": 116.82250000000931,
      "v": 50
    },
    {
      "midi": 65,
      "hit": false,
      "t": 350277.66343750304,
      "d": 480.43253125000047,
      "v": 45
    },
    {
      "midi": 67,
      "hit": false,
      "t": 350740.57259375305,
      "d": 575.3508124999935,
      "v": 54
    },
    {
      "midi": 62,
      "hit": false,
      "t": 351058.91390625306,
      "d": 293.5165312499739,
      "v": 36
    },
    {
      "midi": 60,
      "hit": false,
      "t": 351412.30196875305,
      "d": 138.7267187500256,
      "v": 44
    },
    {
      "midi": 58,
      "hit": false,
      "t": 351613.82078125305,
      "d": 129.96503125003073,
      "v": 34
    },
    {
      "midi": 43,
      "hit": false,
      "t": 351635.72500000306,
      "d": 1295.269468750048,
      "v": 32
    },
    {
      "midi": 53,
      "hit": false,
      "t": 351653.24837500305,
      "d": 725.7597812500899,
      "v": 22
    },
    {
      "midi": 60,
      "hit": false,
      "t": 351834.3232500031,
      "d": 102.21968750003725,
      "v": 34
    },
    {
      "midi": 58,
      "hit": false,
      "t": 351883.9728125031,
      "d": 112.44165625004098,
      "v": 36
    },
    {
      "midi": 57,
      "hit": false,
      "t": 351994.95418750314,
      "d": 176.69403125002282,
      "v": 38
    },
    {
      "midi": 58,
      "hit": false,
      "t": 352253.42396875314,
      "d": 306.65906249999534,
      "v": 31
    },
    {
      "midi": 55,
      "hit": false,
      "t": 352587.8283750031,
      "d": 122.6636249999865,
      "v": 37
    },
    {
      "midi": 53,
      "hit": false,
      "t": 352679.8260937531,
      "d": 426.40212500002235,
      "v": 17
    },
    {
      "midi": 57,
      "hit": false,
      "t": 352815.6322500031,
      "d": 287.67540624999674,
      "v": 40
    },
    {
      "midi": 58,
      "hit": false,
      "t": 353125.2118750031,
      "d": 99.29912499996135,
      "v": 56
    },
    {
      "midi": 43,
      "hit": false,
      "t": 353139.8146875031,
      "d": 846.9631249999511,
      "v": 40
    },
    {
      "midi": 67,
      "hit": false,
      "t": 353593.96215625305,
      "d": 297.89737500000047,
      "v": 49
    },
    {
      "midi": 60,
      "hit": false,
      "t": 353610.02525000303,
      "d": 309.57962500001304,
      "v": 45
    },
    {
      "midi": 56,
      "hit": false,
      "t": 353620.24721875304,
      "d": 302.278218750027,
      "v": 25
    },
    {
      "midi": 55,
      "hit": false,
      "t": 353647.99256250303,
      "d": 292.0562500000233,
      "v": 24
    },
    {
      "midi": 65,
      "hit": false,
      "t": 353966.33387500304,
      "d": 224.88331249996554,
      "v": 48
    },
    {
      "midi": 56,
      "hit": false,
      "t": 354289.056031253,
      "d": 284.75484374997905,
      "v": 36
    },
    {
      "midi": 60,
      "hit": false,
      "t": 354331.404187503,
      "d": 270.152031250007,
      "v": 37
    },
    {
      "midi": 55,
      "hit": false,
      "t": 354350.387843753,
      "d": 80.31546875002095,
      "v": 22
    },
    {
      "midi": 67,
      "hit": false,
      "t": 354657.046906253,
      "d": 287.67540625005495,
      "v": 58
    },
    {
      "midi": 60,
      "hit": false,
      "t": 354670.189437503,
      "d": 78.85518750001211,
      "v": 16
    },
    {
      "midi": 55,
      "hit": false,
      "t": 354715.458156253,
      "d": 91.99771875003353,
      "v": 28
    },
    {
      "midi": 56,
      "hit": false,
      "t": 355011.895250003,
      "d": 1393.1083125000005,
      "v": 34
    },
    {
      "midi": 62,
      "hit": false,
      "t": 355014.81581250305,
      "d": 1362.4424062499893,
      "v": 50
    },
    {
      "midi": 55,
      "hit": false,
      "t": 355042.56115625304,
      "d": 188.3762812500354,
      "v": 38
    },
    {
      "midi": 60,
      "hit": false,
      "t": 355045.48171875306,
      "d": 1306.9517187500023,
      "v": 46
    },
    {
      "midi": 55,
      "hit": false,
      "t": 355381.34640625305,
      "d": 59.871531250013504,
      "v": 46
    },
    {
      "midi": 55,
      "hit": false,
      "t": 355755.17840625305,
      "d": 68.63321875000838,
      "v": 38
    },
    {
      "midi": 55,
      "hit": false,
      "t": 356107.1061875031,
      "d": 143.10756249999395,
      "v": 33
    },
    {
      "midi": 50,
      "hit": false,
      "t": 356391.861031253,
      "d": 89.07715625001583,
      "v": 33
    },
    {
      "midi": 43,
      "hit": false,
      "t": 356575.856468753,
      "d": 918.5169062500354,
      "v": 32
    },
    {
      "midi": 58,
      "hit": false,
      "t": 356581.697593753,
      "d": 2486.8589687499916,
      "v": 39
    },
    {
      "midi": 55,
      "hit": false,
      "t": 356593.379843753,
      "d": 1254.381593750033,
      "v": 29
    },
    {
      "midi": 50,
      "hit": false,
      "t": 356606.522375003,
      "d": 735.9817500000354,
      "v": 17
    },
    {
      "midi": 43,
      "hit": false,
      "t": 357619.95756250306,
      "d": 103.67996874998789,
      "v": 35
    },
    {
      "midi": 50,
      "hit": false,
      "t": 358113.532625003,
      "d": 131.42531249998137,
      "v": 43
    },
    {
      "midi": 43,
      "hit": false,
      "t": 358341.336500003,
      "d": 1092.2903749999823,
      "v": 33
    },
    {
      "midi": 50,
      "hit": false,
      "t": 359223.346375003,
      "d": 538.8437812500051,
      "v": 26
    },
    {
      "midi": 58,
      "hit": false,
      "t": 359224.806656253,
      "d": 579.73165625002,
      "v": 31
    },
    {
      "midi": 53,
      "hit": false,
      "t": 359261.313687503,
      "d": 224.88331250002375,
      "v": 29
    },
    {
      "midi": 43,
      "hit": false,
      "t": 359760.729875003,
      "d": 1280.6666562500177,
      "v": 36
    },
    {
      "midi": 56,
      "hit": false,
      "t": 360000.21600000304,
      "d": 478.9722500000498,
      "v": 28
    },
    {
      "midi": 60,
      "hit": false,
      "t": 360011.89825000305,
      "d": 449.7666250000475,
      "v": 49
    },
    {
      "midi": 55,
      "hit": false,
      "t": 360022.12021875306,
      "d": 416.1801562500186,
      "v": 25
    },
    {
      "midi": 67,
      "hit": false,
      "t": 360907.05065625306,
      "d": 251.16837499995017,
      "v": 72
    },
    {
      "midi": 62,
      "hit": false,
      "t": 360943.55768750305,
      "d": 166.47206249996088,
      "v": 54
    },
    {
      "midi": 60,
      "hit": false,
      "t": 360959.62078125303,
      "d": 138.7267187499674,
      "v": 58
    },
    {
      "midi": 55,
      "hit": false,
      "t": 360974.223593753,
      "d": 147.4884062500205,
      "v": 43
    },
    {
      "midi": 56,
      "hit": false,
      "t": 360980.064718753,
      "d": 102.21968750003725,
      "v": 30
    },
    {
      "midi": 79,
      "hit": false,
      "t": 361491.163156253,
      "d": 192.75712500000373,
      "v": 63
    },
    {
      "midi": 67,
      "hit": false,
      "t": 361532.051031253,
      "d": 135.80615625000792,
      "v": 78
    },
    {
      "midi": 55,
      "hit": false,
      "t": 361572.938906253,
      "d": 224.88331249996554,
      "v": 32
    },
    {
      "midi": 80,
      "hit": false,
      "t": 361857.693750003,
      "d": 148.94868749997113,
      "v": 68
    },
    {
      "midi": 68,
      "hit": false,
      "t": 361863.534875003,
      "d": 115.36221875000047,
      "v": 67
    },
    {
      "midi": 56,
      "hit": false,
      "t": 361879.59796875296,
      "d": 334.4044062499888,
      "v": 56
    },
    {
      "midi": 60,
      "hit": false,
      "t": 362244.66828125296,
      "d": 108.06081250001444,
      "v": 58
    },
    {
      "midi": 84,
      "hit": false,
      "t": 362257.810812503,
      "d": 103.67996874998789,
      "v": 63
    },
    {
      "midi": 72,
      "hit": false,
      "t": 362263.65193750296,
      "d": 68.63321875000838,
      "v": 59
    },
    {
      "midi": 67,
      "hit": false,
      "t": 362641.864781253,
      "d": 124.12390625005355,
      "v": 50
    },
    {
      "midi": 91,
      "hit": false,
      "t": 362643.325062503,
      "d": 124.12390625005355,
      "v": 53
    },
    {
      "midi": 79,
      "hit": false,
      "t": 362644.785343753,
      "d": 118.28278125001816,
      "v": 55
    },
    {
      "midi": 80,
      "hit": false,
      "t": 362989.41171875305,
      "d": 46.72900000005029,
      "v": 42
    },
    {
      "midi": 92,
      "hit": false,
      "t": 362989.41171875305,
      "d": 54.03040625003632,
      "v": 57
    },
    {
      "midi": 68,
      "hit": false,
      "t": 362990.87200000306,
      "d": 32.12618750002002,
      "v": 38
    },
    {
      "midi": 96,
      "hit": false,
      "t": 363398.2904687531,
      "d": 2886.976031249971,
      "v": 50
    },
    {
      "midi": 84,
      "hit": false,
      "t": 363399.7507500031,
      "d": 2989.19571874995,
      "v": 45
    },
    {
      "midi": 62,
      "hit": false,
      "t": 363729.7743125031,
      "d": 42.34815625002375,
      "v": 49
    },
    {
      "midi": 62,
      "hit": false,
      "t": 364150.33531250316,
      "d": 61.331812499964144,
      "v": 57
    },
    {
      "midi": 58,
      "hit": false,
      "t": 364166.39840625314,
      "d": 80.31546875002095,
      "v": 35
    },
    {
      "midi": 60,
      "hit": false,
      "t": 364176.62037500314,
      "d": 36.50703124998836,
      "v": 46
    },
    {
      "midi": 62,
      "hit": false,
      "t": 364519.7864687532,
      "d": 102.21968749992084,
      "v": 50
    },
    {
      "midi": 58,
      "hit": false,
      "t": 364546.07153125317,
      "d": 105.14024999993853,
      "v": 32
    },
    {
      "midi": 60,
      "hit": false,
      "t": 364560.67434375314,
      "d": 45.268718749983236,
      "v": 34
    },
    {
      "midi": 62,
      "hit": false,
      "t": 364918.4432500031,
      "d": 531.5423749999609,
      "v": 35
    },
    {
      "midi": 58,
      "hit": false,
      "t": 364947.6488750031,
      "d": 527.1615312499343,
      "v": 26
    },
    {
      "midi": 60,
      "hit": false,
      "t": 364959.3311250031,
      "d": 476.0516874999739,
      "v": 33
    },
    {
      "midi": 62,
      "hit": false,
      "t": 365669.02781250305,
      "d": 372.37171874998603,
      "v": 35
    },
    {
      "midi": 94,
      "hit": false,
      "t": 366393.32731250307,
      "d": 140.18699999997625,
      "v": 53
    },
    {
      "midi": 93,
      "hit": false,
      "t": 366574.40218750306,
      "d": 106.60053125000559,
      "v": 45
    },
    {
      "midi": 94,
      "hit": false,
      "t": 366774.4607187531,
      "d": 861.5659375000978,
      "v": 46
    },
    {
      "midi": 56,
      "hit": false,
      "t": 366787.6032500031,
      "d": 700.9350000000559,
      "v": 25
    },
    {
      "midi": 55,
      "hit": false,
      "t": 366789.06353125314,
      "d": 759.3462500000605,
      "v": 31
    },
    {
      "midi": 60,
      "hit": false,
      "t": 366812.42803125316,
      "d": 611.8578437499818,
      "v": 34
    },
    {
      "midi": 65,
      "hit": false,
      "t": 366827.03084375313,
      "d": 627.920937500021,
      "v": 16
    },
    {
      "midi": 96,
      "hit": false,
      "t": 367322.06618750317,
      "d": 331.48384375002934,
      "v": 41
    },
    {
      "midi": 91,
      "hit": false,
      "t": 367697.35846875317,
      "d": 1101.0520625000354,
      "v": 31
    },
    {
      "midi": 56,
      "hit": false,
      "t": 368719.5553437532,
      "d": 115.36221875000047,
      "v": 28
    },
    {
      "midi": 62,
      "hit": false,
      "t": 368721.0156250032,
      "d": 86.15659374999814,
      "v": 34
    },
    {
      "midi": 67,
      "hit": false,
      "t": 368728.3170312532,
      "d": 58.41125000000466,
      "v": 27
    },
    {
      "midi": 55,
      "hit": false,
      "t": 368750.2212500032,
      "d": 48.18928125000093,
      "v": 24
    },
    {
      "midi": 62,
      "hit": false,
      "t": 369102.1490312532,
      "d": 97.83884375001071,
      "v": 29
    },
    {
      "midi": 56,
      "hit": false,
      "t": 369103.6093125032,
      "d": 113.90193749999162,
      "v": 27
    },
    {
      "midi": 67,
      "hit": false,
      "t": 369112.3710000032,
      "d": 81.7757500000298,
      "v": 29
    },
    {
      "midi": 55,
      "hit": false,
      "t": 369115.2915625032,
      "d": 87.61687500000698,
      "v": 33
    },
    {
      "midi": 62,
      "hit": false,
      "t": 369502.26609375316,
      "d": 379.67312499991385,
      "v": 23
    },
    {
      "midi": 56,
      "hit": false,
      "t": 369508.10721875314,
      "d": 471.6708437499474,
      "v": 30
    },
    {
      "midi": 67,
      "hit": false,
      "t": 369515.4086250031,
      "d": 388.43481249996694,
      "v": 21
    },
    {
      "midi": 55,
      "hit": false,
      "t": 369515.4086250031,
      "d": 484.8133749999688,
      "v": 25
    },
    {
      "midi": 64,
      "hit": false,
      "t": 370150.6309687531,
      "d": 43.808437500032596,
      "v": 33
    },
    {
      "midi": 60,
      "hit": false,
      "t": 370182.7571562531,
      "d": 39.427593750006054,
      "v": 22
    },
    {
      "midi": 55,
      "hit": false,
      "t": 371012.1969062531,
      "d": 46.728999999992084,
      "v": 18
    },
    {
      "midi": 62,
      "hit": false,
      "t": 371352.4424375031,
      "d": 108.06081250007264,
      "v": 23
    },
    {
      "midi": 58,
      "hit": false,
      "t": 371365.5849687531,
      "d": 134.34587500005728,
      "v": 25
    },
    {
      "midi": 57,
      "hit": false,
      "t": 371384.5686250031,
      "d": 52.570125000027474,
      "v": 24
    },
    {
      "midi": 62,
      "hit": false,
      "t": 371808.05018750316,
      "d": 224.88331250002375,
      "v": 25
    },
    {
      "midi": 58,
      "hit": false,
      "t": 371821.1927187532,
      "d": 207.35993749997579,
      "v": 25
    },
    {
      "midi": 57,
      "hit": false,
      "t": 371831.4146875032,
      "d": 198.5982499999809,
      "v": 24
    },
    {
      "midi": 62,
      "hit": false,
      "t": 372228.61118750315,
      "d": 394.2759374999441,
      "v": 21
    },
    {
      "midi": 58,
      "hit": false,
      "t": 372243.2140000031,
      "d": 424.9418437499553,
      "v": 22
    },
    {
      "midi": 57,
      "hit": false,
      "t": 372259.2770937531,
      "d": 430.7829687499907,
      "v": 18
    },
    {
      "midi": 60,
      "hit": false,
      "t": 374046.6613437531,
      "d": 2431.368281250063,
      "v": 20
    },
    {
      "midi": 55,
      "hit": false,
      "t": 374049.5819062531,
      "d": 2400.7023750000517,
      "v": 18
    },
    {
      "midi": 56,
      "hit": false,
      "t": 374061.26415625314,
      "d": 2330.6088750000345,
      "v": 17
    },
    {
      "midi": 43,
      "hit": false,
      "t": 375715.76281250315,
      "d": 1028.0380000000005,
      "v": 12
    },
    {
      "midi": 62,
      "hit": false,
      "t": 376882.5275312532,
      "d": 362.1497500000405,
      "v": 14
    },
    {
      "midi": 58,
      "hit": false,
      "t": 376889.82893750316,
      "d": 331.48384375002934,
      "v": 13
    },
    {
      "midi": 43,
      "hit": false,
      "t": 376898.59062500315,
      "d": 318.3413125000079,
      "v": 10
    },
    {
      "midi": 53,
      "hit": false,
      "t": 376901.5111875032,
      "d": 235.10528124996927,
      "v": 7
    },
    {
      "midi": 31,
      "hit": false,
      "t": 376936.55793750315,
      "d": 200.05853124998976,
      "v": 11
    },
    {
      "midi": 72,
      "hit": false,
      "t": 377824.40893750323,
      "d": 525.7012500000419,
      "v": 21
    },
    {
      "midi": 69,
      "hit": false,
      "t": 377863.83653125324,
      "d": 486.27365625003586,
      "v": 20
    },
    {
      "midi": 65,
      "hit": false,
      "t": 377890.1215937532,
      "d": 398.65678125002887,
      "v": 14
    },
    {
      "midi": 62,
      "hit": false,
      "t": 377904.7244062532,
      "d": 499.4161875000573,
      "v": 12
    },
    {
      "midi": 58,
      "hit": false,
      "t": 377910.5655312532,
      "d": 716.9980937501532,
      "v": 8
    },
    {
      "midi": 60,
      "hit": false,
      "t": 377938.3108750032,
      "d": 585.5727812500554,
      "v": 10
    },
    {
      "midi": 83,
      "hit": false,
      "t": 378585.2154687533,
      "d": 192.75712500000373,
      "v": 15
    },
    {
      "midi": 72,
      "hit": false,
      "t": 378653.8486875033,
      "d": 176.69403125002282,
      "v": 11
    },
    {
      "midi": 77,
      "hit": false,
      "t": 379435.09915625333,
      "d": 192.75712500000373,
      "v": 15
    },
    {
      "midi": 62,
      "hit": false,
      "t": 379454.08281250333,
      "d": 96.37856250000186,
      "v": 10
    },
    {
      "midi": 72,
      "hit": false,
      "t": 379483.28843750333,
      "d": 170.85290624998743,
      "v": 8
    },
    {
      "midi": 67,
      "hit": false,
      "t": 381353.9087187533,
      "d": 1702.6879375000717,
      "v": 12
    },
    {
      "midi": 56,
      "hit": false,
      "t": 381388.95546875335,
      "d": 1470.503218750062,
      "v": 5
    },
    {
      "midi": 55,
      "hit": false,
      "t": 381390.41575000336,
      "d": 792.932718749973,
      "v": 8
    },
    {
      "midi": 62,
      "hit": false,
      "t": 381391.87603125337,
      "d": 1540.596718750021,
      "v": 6
    },
    {
      "midi": 60,
      "hit": false,
      "t": 381400.63771875337,
      "d": 943.3416875000112,
      "v": 7
    },
    {
      "midi": 43,
      "hit": false,
      "t": 381917.57728125335,
      "d": 611.85784375004,
      "v": 5
    },
    {
      "midi": 62,
      "hit": false,
      "t": 383598.3610000034,
      "d": 617.6989687500172,
      "v": 3
    },
    {
      "midi": 58,
      "hit": false,
      "t": 383601.2815625034,
      "d": 582.6522187499795,
      "v": 4
    },
    {
      "midi": 53,
      "hit": false,
      "t": 383610.0432500034,
      "d": 538.8437812500051,
      "v": 3
    },
    {
      "midi": 31,
      "hit": false,
      "t": 383618.8049375034,
      "d": 654.2060000000056,
      "v": 3
    },
    {
      "midi": 55,
      "hit": false,
      "t": 383627.5666250034,
      "d": 514.0190000000293,
      "v": 2
    },
    {
      "midi": 43,
      "hit": false,
      "t": 383629.0269062534,
      "d": 658.5868437499739,
      "v": 2
    }
  ]
}