{
  "jsonPath": "Rock/German Rock/Westernhagen/kein-gefuehl-affentheatersession.json",
  "path": "Rock\\German Rock\\Westernhagen\\Kein Gefuehl (Affentheatersession).mid",
  "name": "Kein Gefuehl (Affentheatersession)",
  "difficulty": "Advanced",
  "bpm": 133.00053643549697,
  "notes": [
    {
      "midi": 78,
      "hit": false,
      "t": 1644.7302083333334,
      "d": 2875.92825,
      "v": 24
    },
    {
      "midi": 75,
      "hit": false,
      "t": 1715.2186458333333,
      "d": 2777.2444374999995,
      "v": 40
    },
    {
      "midi": 71,
      "hit": false,
      "t": 1757.5117083333332,
      "d": 2697.3575416666663,
      "v": 59
    },
    {
      "midi": 47,
      "hit": false,
      "t": 1804.504,
      "d": 3684.1956666666665,
      "v": 49
    },
    {
      "midi": 66,
      "hit": false,
      "t": 1823.3009166666666,
      "d": 2711.4552291666664,
      "v": 57
    },
    {
      "midi": 66,
      "hit": false,
      "t": 4511.26,
      "d": 230.26222916666666,
      "v": 64
    },
    {
      "midi": 78,
      "hit": false,
      "t": 4511.26,
      "d": 272.55529166666656,
      "v": 71
    },
    {
      "midi": 76,
      "hit": false,
      "t": 4736.823,
      "d": 192.6683958333333,
      "v": 73
    },
    {
      "midi": 64,
      "hit": false,
      "t": 4736.823,
      "d": 211.46531249999953,
      "v": 58
    },
    {
      "midi": 75,
      "hit": false,
      "t": 4962.3859999999995,
      "d": 629.6967083333329,
      "v": 77
    },
    {
      "midi": 63,
      "hit": false,
      "t": 4962.3859999999995,
      "d": 648.4936249999992,
      "v": 59
    },
    {
      "midi": 73,
      "hit": false,
      "t": 5422.910458333333,
      "d": 3054.4989583333327,
      "v": 50
    },
    {
      "midi": 69,
      "hit": false,
      "t": 5427.609687499999,
      "d": 2998.108208333332,
      "v": 59
    },
    {
      "midi": 64,
      "hit": false,
      "t": 5427.609687499999,
      "d": 3063.897416666666,
      "v": 58
    },
    {
      "midi": 42,
      "hit": false,
      "t": 5427.609687499999,
      "d": 3656.0002916666645,
      "v": 46
    },
    {
      "midi": 66,
      "hit": false,
      "t": 8120.267999999998,
      "d": 192.66839583333422,
      "v": 63
    },
    {
      "midi": 78,
      "hit": false,
      "t": 8120.267999999998,
      "d": 197.36762500000077,
      "v": 86
    },
    {
      "midi": 80,
      "hit": false,
      "t": 8345.830999999998,
      "d": 192.66839583333422,
      "v": 68
    },
    {
      "midi": 68,
      "hit": false,
      "t": 8345.830999999998,
      "d": 239.66068749999977,
      "v": 52
    },
    {
      "midi": 81,
      "hit": false,
      "t": 8571.393999999998,
      "d": 390.03602083333317,
      "v": 73
    },
    {
      "midi": 69,
      "hit": false,
      "t": 8571.393999999998,
      "d": 404.13370833333283,
      "v": 73
    },
    {
      "midi": 68,
      "hit": false,
      "t": 9046.016145833331,
      "d": 3547.918020833333,
      "v": 46
    },
    {
      "midi": 64,
      "hit": false,
      "t": 9050.715374999998,
      "d": 3538.5195624999997,
      "v": 57
    },
    {
      "midi": 71,
      "hit": false,
      "t": 9050.715374999998,
      "d": 3538.5195624999997,
      "v": 65
    },
    {
      "midi": 40,
      "hit": false,
      "t": 9050.715374999998,
      "d": 3543.218791666666,
      "v": 50
    },
    {
      "midi": 54,
      "hit": false,
      "t": 12659.723374999998,
      "d": 2946.4166874999974,
      "v": 48
    },
    {
      "midi": 63,
      "hit": false,
      "t": 12659.723374999998,
      "d": 2951.115916666664,
      "v": 51
    },
    {
      "midi": 59,
      "hit": false,
      "t": 12664.422604166664,
      "d": 2904.1236249999984,
      "v": 70
    },
    {
      "midi": 47,
      "hit": false,
      "t": 12692.617979166664,
      "d": 3552.6172499999975,
      "v": 62
    },
    {
      "midi": 57,
      "hit": false,
      "t": 16151.250645833328,
      "d": 3077.9951041666627,
      "v": 57
    },
    {
      "midi": 61,
      "hit": false,
      "t": 16198.242937499996,
      "d": 3035.7020416666637,
      "v": 50
    },
    {
      "midi": 42,
      "hit": false,
      "t": 16245.235229166661,
      "d": 3604.3087708333333,
      "v": 53
    },
    {
      "midi": 68,
      "hit": false,
      "t": 16264.032145833327,
      "d": 916.3496874999983,
      "v": 57
    },
    {
      "midi": 66,
      "hit": false,
      "t": 16682.26354166666,
      "d": 2020.668541666666,
      "v": 66
    },
    {
      "midi": 68,
      "hit": false,
      "t": 18045.039999999997,
      "d": 911.6504583333335,
      "v": 46
    },
    {
      "midi": 80,
      "hit": false,
      "t": 18045.039999999997,
      "d": 935.1466041666681,
      "v": 46
    },
    {
      "midi": 66,
      "hit": false,
      "t": 18947.291999999998,
      "d": 864.658166666668,
      "v": 46
    },
    {
      "midi": 78,
      "hit": false,
      "t": 18947.291999999998,
      "d": 869.3573958333363,
      "v": 46
    },
    {
      "midi": 64,
      "hit": false,
      "t": 19826.04785416666,
      "d": 3209.5735208333354,
      "v": 62
    },
    {
      "midi": 59,
      "hit": false,
      "t": 19844.844770833326,
      "d": 3162.581229166666,
      "v": 64
    },
    {
      "midi": 56,
      "hit": false,
      "t": 19844.844770833326,
      "d": 3176.6789166666676,
      "v": 43
    },
    {
      "midi": 40,
      "hit": false,
      "t": 19849.543999999994,
      "d": 3576.113395833334,
      "v": 57
    },
    {
      "midi": 64,
      "hit": false,
      "t": 19849.544,
      "d": 1400.3702916666662,
      "v": 51
    },
    {
      "midi": 76,
      "hit": false,
      "t": 19849.544,
      "d": 1447.3625833333317,
      "v": 48
    },
    {
      "midi": 78,
      "hit": false,
      "t": 21654.048,
      "d": 479.3213750000032,
      "v": 45
    },
    {
      "midi": 66,
      "hit": false,
      "t": 21654.048,
      "d": 751.8766666666706,
      "v": 42
    },
    {
      "midi": 76,
      "hit": false,
      "t": 22556.300000000003,
      "d": 267.8560624999991,
      "v": 56
    },
    {
      "midi": 64,
      "hit": false,
      "t": 22556.300000000003,
      "d": 366.5398749999986,
      "v": 55
    },
    {
      "midi": 66,
      "hit": false,
      "t": 23458.552000000003,
      "d": 864.658166666668,
      "v": 40
    },
    {
      "midi": 78,
      "hit": false,
      "t": 23458.552000000003,
      "d": 911.6504583333335,
      "v": 36
    },
    {
      "midi": 59,
      "hit": false,
      "t": 23463.25122916666,
      "d": 3298.8588750000017,
      "v": 60
    },
    {
      "midi": 63,
      "hit": false,
      "t": 23467.95045833333,
      "d": 3303.5581041666665,
      "v": 50
    },
    {
      "midi": 66,
      "hit": false,
      "t": 23467.95045833333,
      "d": 3322.3550208333327,
      "v": 51
    },
    {
      "midi": 47,
      "hit": false,
      "t": 23496.14583333333,
      "d": 3599.6095416666685,
      "v": 63
    },
    {
      "midi": 63,
      "hit": false,
      "t": 24360.804000000004,
      "d": 1480.2571874999994,
      "v": 43
    },
    {
      "midi": 75,
      "hit": false,
      "t": 24360.804000000004,
      "d": 1527.249479166665,
      "v": 38
    },
    {
      "midi": 76,
      "hit": false,
      "t": 27067.56,
      "d": 902.2520000000004,
      "v": 55
    },
    {
      "midi": 64,
      "hit": false,
      "t": 27067.56,
      "d": 921.0489166666666,
      "v": 60
    },
    {
      "midi": 64,
      "hit": false,
      "t": 27091.05614583333,
      "d": 2998.108208333335,
      "v": 66
    },
    {
      "midi": 57,
      "hit": false,
      "t": 27091.05614583333,
      "d": 3054.4989583333336,
      "v": 55
    },
    {
      "midi": 61,
      "hit": false,
      "t": 27091.05614583333,
      "d": 3120.2881666666653,
      "v": 44
    },
    {
      "midi": 45,
      "hit": false,
      "t": 27091.05614583333,
      "d": 3585.5118541666634,
      "v": 56
    },
    {
      "midi": 75,
      "hit": false,
      "t": 27969.812,
      "d": 888.1543124999989,
      "v": 41
    },
    {
      "midi": 63,
      "hit": false,
      "t": 27969.812,
      "d": 892.8535416666673,
      "v": 38
    },
    {
      "midi": 59,
      "hit": false,
      "t": 28872.064000000002,
      "d": 845.8612500000017,
      "v": 38
    },
    {
      "midi": 71,
      "hit": false,
      "t": 28872.064000000002,
      "d": 878.7558541666695,
      "v": 37
    },
    {
      "midi": 61,
      "hit": false,
      "t": 29774.316000000006,
      "d": 230.26222916666666,
      "v": 24
    },
    {
      "midi": 73,
      "hit": false,
      "t": 29774.316000000006,
      "d": 249.05914583333288,
      "v": 23
    },
    {
      "midi": 64,
      "hit": false,
      "t": 30676.567999999992,
      "d": 3002.8074374999997,
      "v": 65
    },
    {
      "midi": 56,
      "hit": false,
      "t": 30676.568000000007,
      "d": 841.1620208333334,
      "v": 37
    },
    {
      "midi": 68,
      "hit": false,
      "t": 30676.568000000007,
      "d": 888.1543124999989,
      "v": 38
    },
    {
      "midi": 59,
      "hit": false,
      "t": 30681.26722916666,
      "d": 2984.0105208333334,
      "v": 64
    },
    {
      "midi": 56,
      "hit": false,
      "t": 30681.26722916666,
      "d": 2998.1082083333313,
      "v": 40
    },
    {
      "midi": 40,
      "hit": false,
      "t": 30709.46260416666,
      "d": 3359.9488541666688,
      "v": 54
    },
    {
      "midi": 54,
      "hit": false,
      "t": 31578.820000000007,
      "d": 921.0489166666666,
      "v": 42
    },
    {
      "midi": 66,
      "hit": false,
      "t": 31578.820000000007,
      "d": 921.0489166666666,
      "v": 40
    },
    {
      "midi": 56,
      "hit": false,
      "t": 32481.072000000007,
      "d": 1517.8510208333319,
      "v": 35
    },
    {
      "midi": 68,
      "hit": false,
      "t": 32481.072000000007,
      "d": 1555.4448541666643,
      "v": 40
    },
    {
      "midi": 66,
      "hit": false,
      "t": 34276.177541666664,
      "d": 2913.522083333344,
      "v": 54
    },
    {
      "midi": 63,
      "hit": false,
      "t": 34276.177541666664,
      "d": 2937.018229166679,
      "v": 44
    },
    {
      "midi": 59,
      "hit": false,
      "t": 34280.87677083333,
      "d": 2918.2213125000126,
      "v": 62
    },
    {
      "midi": 47,
      "hit": false,
      "t": 34337.26752083334,
      "d": 3557.3164791666713,
      "v": 58
    },
    {
      "midi": 63,
      "hit": false,
      "t": 35187.82800000001,
      "d": 446.42677083333547,
      "v": 36
    },
    {
      "midi": 75,
      "hit": false,
      "t": 35187.82800000001,
      "d": 484.0206041666679,
      "v": 33
    },
    {
      "midi": 54,
      "hit": false,
      "t": 35638.95400000001,
      "d": 488.719833333329,
      "v": 37
    },
    {
      "midi": 66,
      "hit": false,
      "t": 35638.95400000001,
      "d": 2250.9307708333363,
      "v": 33
    },
    {
      "midi": 75,
      "hit": false,
      "t": 36090.08000000001,
      "d": 1762.2109375,
      "v": 48
    },
    {
      "midi": 63,
      "hit": false,
      "t": 36090.08000000001,
      "d": 1790.406312500003,
      "v": 53
    },
    {
      "midi": 57,
      "hit": false,
      "t": 37758.30635416668,
      "d": 3327.0542499999938,
      "v": 53
    },
    {
      "midi": 61,
      "hit": false,
      "t": 37828.794791666674,
      "d": 3139.0850833333316,
      "v": 46
    },
    {
      "midi": 45,
      "hit": false,
      "t": 37875.78708333334,
      "d": 3623.105687499992,
      "v": 62
    },
    {
      "midi": 68,
      "hit": false,
      "t": 37936.87706250001,
      "d": 1832.6993749999965,
      "v": 60
    },
    {
      "midi": 73,
      "hit": false,
      "t": 39247.962000000014,
      "d": 244.35991666666814,
      "v": 41
    },
    {
      "midi": 78,
      "hit": false,
      "t": 39473.525000000016,
      "d": 202.06685416666733,
      "v": 32
    },
    {
      "midi": 73,
      "hit": false,
      "t": 39699.08800000002,
      "d": 484.0206041666679,
      "v": 50
    },
    {
      "midi": 69,
      "hit": false,
      "t": 39699.08800000002,
      "d": 1160.7096041666664,
      "v": 46
    },
    {
      "midi": 66,
      "hit": false,
      "t": 39736.68183333334,
      "d": 1203.00266666666,
      "v": 51
    },
    {
      "midi": 80,
      "hit": false,
      "t": 39811.869500000015,
      "d": 343.0437291666676,
      "v": 50
    },
    {
      "midi": 78,
      "hit": false,
      "t": 40601.34000000002,
      "d": 263.15683333333436,
      "v": 44
    },
    {
      "midi": 56,
      "hit": false,
      "t": 41498.892770833336,
      "d": 2937.0182291666642,
      "v": 51
    },
    {
      "midi": 59,
      "hit": false,
      "t": 41498.892770833336,
      "d": 2951.115916666662,
      "v": 70
    },
    {
      "midi": 71,
      "hit": false,
      "t": 41503.59200000002,
      "d": 2645.666020833334,
      "v": 52
    },
    {
      "midi": 68,
      "hit": false,
      "t": 41503.59200000002,
      "d": 2692.6583125000034,
      "v": 24
    },
    {
      "midi": 40,
      "hit": false,
      "t": 41522.38891666667,
      "d": 3524.4218749999927,
      "v": 53
    },
    {
      "midi": 63,
      "hit": false,
      "t": 45098.50231249999,
      "d": 3082.69433333334,
      "v": 50
    },
    {
      "midi": 59,
      "hit": false,
      "t": 45103.20154166666,
      "d": 3063.897416666674,
      "v": 66
    },
    {
      "midi": 54,
      "hit": false,
      "t": 45103.20154166666,
      "d": 3092.0927916666697,
      "v": 43
    },
    {
      "midi": 47,
      "hit": false,
      "t": 45159.59229166667,
      "d": 3651.301062499995,
      "v": 55
    },
    {
      "midi": 64,
      "hit": false,
      "t": 48721.60800000002,
      "d": 220.86377083333355,
      "v": 52
    },
    {
      "midi": 76,
      "hit": false,
      "t": 48721.60800000002,
      "d": 234.96145833333867,
      "v": 53
    },
    {
      "midi": 57,
      "hit": false,
      "t": 48740.40491666667,
      "d": 3026.303583333327,
      "v": 57
    },
    {
      "midi": 64,
      "hit": false,
      "t": 48745.104145833335,
      "d": 2979.311291666658,
      "v": 64
    },
    {
      "midi": 61,
      "hit": false,
      "t": 48745.104145833335,
      "d": 3059.198187499991,
      "v": 47
    },
    {
      "midi": 45,
      "hit": false,
      "t": 48745.104145833335,
      "d": 3637.20337499999,
      "v": 57
    },
    {
      "midi": 63,
      "hit": false,
      "t": 48947.171000000024,
      "d": 258.457604166666,
      "v": 33
    },
    {
      "midi": 75,
      "hit": false,
      "t": 48947.171000000024,
      "d": 272.55529166666383,
      "v": 47
    },
    {
      "midi": 73,
      "hit": false,
      "t": 49172.734000000026,
      "d": 192.66839583333058,
      "v": 39
    },
    {
      "midi": 61,
      "hit": false,
      "t": 49172.734000000026,
      "d": 225.56299999999464,
      "v": 47
    },
    {
      "midi": 59,
      "hit": false,
      "t": 49398.29700000002,
      "d": 234.96145833333867,
      "v": 49
    },
    {
      "midi": 71,
      "hit": false,
      "t": 49398.29700000002,
      "d": 239.66068750000704,
      "v": 50
    },
    {
      "midi": 61,
      "hit": false,
      "t": 49623.86000000002,
      "d": 592.1028750000041,
      "v": 40
    },
    {
      "midi": 73,
      "hit": false,
      "t": 49623.86000000002,
      "d": 615.5990208333387,
      "v": 35
    },
    {
      "midi": 59,
      "hit": false,
      "t": 50300.54900000003,
      "d": 230.2622291666703,
      "v": 39
    },
    {
      "midi": 71,
      "hit": false,
      "t": 50300.54900000003,
      "d": 253.7583750000049,
      "v": 33
    },
    {
      "midi": 61,
      "hit": false,
      "t": 50526.11200000003,
      "d": 1776.3086250000051,
      "v": 34
    },
    {
      "midi": 73,
      "hit": false,
      "t": 50526.11200000003,
      "d": 1790.406312500003,
      "v": 33
    },
    {
      "midi": 71,
      "hit": false,
      "t": 52330.61600000003,
      "d": 3500.9257291666654,
      "v": 36
    },
    {
      "midi": 59,
      "hit": false,
      "t": 52330.61600000003,
      "d": 3594.9103124999965,
      "v": 36
    },
    {
      "midi": 64,
      "hit": false,
      "t": 52335.315229166656,
      "d": 6104.298687500006,
      "v": 63
    },
    {
      "midi": 59,
      "hit": false,
      "t": 52382.307520833325,
      "d": 6029.111020833334,
      "v": 66
    },
    {
      "midi": 56,
      "hit": false,
      "t": 52382.307520833325,
      "d": 6057.306395833337,
      "v": 42
    },
    {
      "midi": 40,
      "hit": false,
      "t": 52387.00674999999,
      "d": 6052.6071666666685,
      "v": 54
    },
    {
      "midi": 54,
      "hit": false,
      "t": 59548.632,
      "d": 1249.9949583333291,
      "v": 52
    },
    {
      "midi": 63,
      "hit": false,
      "t": 59548.632,
      "d": 1254.6941874999975,
      "v": 54
    },
    {
      "midi": 59,
      "hit": false,
      "t": 59548.632,
      "d": 1292.28802083333,
      "v": 75
    },
    {
      "midi": 47,
      "hit": false,
      "t": 59548.632,
      "d": 3590.211083333328,
      "v": 73
    },
    {
      "midi": 54,
      "hit": false,
      "t": 61353.13599999999,
      "d": 1254.6941874999975,
      "v": 46
    },
    {
      "midi": 57,
      "hit": false,
      "t": 61353.13599999999,
      "d": 1254.6941874999975,
      "v": 66
    },
    {
      "midi": 63,
      "hit": false,
      "t": 61353.13599999999,
      "d": 1282.8895625000005,
      "v": 51
    },
    {
      "midi": 52,
      "hit": false,
      "t": 63157.63999999999,
      "d": 3101.491249999999,
      "v": 69
    },
    {
      "midi": 56,
      "hit": false,
      "t": 63157.63999999999,
      "d": 3115.5889375000042,
      "v": 68
    },
    {
      "midi": 59,
      "hit": false,
      "t": 63157.63999999999,
      "d": 3157.882000000005,
      "v": 73
    },
    {
      "midi": 40,
      "hit": false,
      "t": 63157.63999999999,
      "d": 3261.2650416666656,
      "v": 69
    },
    {
      "midi": 63,
      "hit": false,
      "t": 66766.64799999999,
      "d": 1090.2211666666553,
      "v": 58
    },
    {
      "midi": 54,
      "hit": false,
      "t": 66766.64799999999,
      "d": 1113.7173124999827,
      "v": 54
    },
    {
      "midi": 59,
      "hit": false,
      "t": 66766.64799999999,
      "d": 1141.9126874999783,
      "v": 74
    },
    {
      "midi": 47,
      "hit": false,
      "t": 66879.42949999998,
      "d": 3552.617249999981,
      "v": 67
    },
    {
      "midi": 57,
      "hit": false,
      "t": 68571.15199999996,
      "d": 1226.4988124999945,
      "v": 71
    },
    {
      "midi": 54,
      "hit": false,
      "t": 68571.15199999996,
      "d": 1235.8972708333313,
      "v": 51
    },
    {
      "midi": 63,
      "hit": false,
      "t": 68571.15199999996,
      "d": 1268.7918749999953,
      "v": 51
    },
    {
      "midi": 56,
      "hit": false,
      "t": 70375.65599999996,
      "d": 1306.3857083333278,
      "v": 63
    },
    {
      "midi": 52,
      "hit": false,
      "t": 70375.65599999996,
      "d": 1320.483395833333,
      "v": 67
    },
    {
      "midi": 59,
      "hit": false,
      "t": 70375.65599999996,
      "d": 1348.6787708333286,
      "v": 78
    },
    {
      "midi": 40,
      "hit": false,
      "t": 70375.65599999996,
      "d": 3308.2573333333276,
      "v": 70
    },
    {
      "midi": 52,
      "hit": false,
      "t": 72180.15999999996,
      "d": 1301.6864791666594,
      "v": 73
    },
    {
      "midi": 56,
      "hit": false,
      "t": 72180.15999999996,
      "d": 1343.9795416666602,
      "v": 62
    },
    {
      "midi": 62,
      "hit": false,
      "t": 72180.15999999996,
      "d": 1358.0772291666653,
      "v": 62
    },
    {
      "midi": 57,
      "hit": false,
      "t": 73984.66399999995,
      "d": 1461.460270833326,
      "v": 74
    },
    {
      "midi": 61,
      "hit": false,
      "t": 73984.66399999995,
      "d": 1461.460270833326,
      "v": 62
    },
    {
      "midi": 64,
      "hit": false,
      "t": 73984.66399999995,
      "d": 1461.460270833326,
      "v": 66
    },
    {
      "midi": 45,
      "hit": false,
      "t": 73984.66399999995,
      "d": 1818.6016874999914,
      "v": 73
    },
    {
      "midi": 58,
      "hit": false,
      "t": 75789.16799999993,
      "d": 1240.5964999999997,
      "v": 57
    },
    {
      "midi": 55,
      "hit": false,
      "t": 75789.16799999993,
      "d": 1264.092645833327,
      "v": 66
    },
    {
      "midi": 64,
      "hit": false,
      "t": 75789.16799999993,
      "d": 1268.7918749999953,
      "v": 67
    },
    {
      "midi": 61,
      "hit": false,
      "t": 75789.16799999993,
      "d": 1311.0849374999962,
      "v": 64
    },
    {
      "midi": 39,
      "hit": false,
      "t": 75789.16799999993,
      "d": 1757.5117083333316,
      "v": 57
    },
    {
      "midi": 59,
      "hit": false,
      "t": 77593.67199999993,
      "d": 784.771270833342,
      "v": 80
    },
    {
      "midi": 63,
      "hit": false,
      "t": 77593.67199999993,
      "d": 803.5681875000155,
      "v": 64
    },
    {
      "midi": 56,
      "hit": false,
      "t": 77593.67199999993,
      "d": 841.1620208333479,
      "v": 69
    },
    {
      "midi": 44,
      "hit": false,
      "t": 77593.67199999993,
      "d": 1785.7070833333419,
      "v": 66
    },
    {
      "midi": 56,
      "hit": false,
      "t": 79398.17599999995,
      "d": 1188.904979166662,
      "v": 66
    },
    {
      "midi": 63,
      "hit": false,
      "t": 79398.17599999995,
      "d": 1188.904979166662,
      "v": 63
    },
    {
      "midi": 53,
      "hit": false,
      "t": 79398.17599999995,
      "d": 1203.0026666666672,
      "v": 71
    },
    {
      "midi": 37,
      "hit": false,
      "t": 79510.95749999995,
      "d": 1766.9101666666684,
      "v": 66
    },
    {
      "midi": 57,
      "hit": false,
      "t": 81202.67999999995,
      "d": 1381.5733750000072,
      "v": 76
    },
    {
      "midi": 61,
      "hit": false,
      "t": 81202.67999999995,
      "d": 1409.768750000003,
      "v": 58
    },
    {
      "midi": 54,
      "hit": false,
      "t": 81202.67999999995,
      "d": 1419.1672083333397,
      "v": 64
    },
    {
      "midi": 42,
      "hit": false,
      "t": 81202.67999999995,
      "d": 1734.0155625000043,
      "v": 63
    },
    {
      "midi": 63,
      "hit": false,
      "t": 83007.18399999995,
      "d": 1452.0618124999892,
      "v": 50
    },
    {
      "midi": 54,
      "hit": false,
      "t": 83007.18399999995,
      "d": 1461.460270833326,
      "v": 57
    },
    {
      "midi": 59,
      "hit": false,
      "t": 83007.18399999995,
      "d": 1466.1594999999943,
      "v": 74
    },
    {
      "midi": 47,
      "hit": false,
      "t": 83007.18399999995,
      "d": 1832.6993749999965,
      "v": 68
    },
    {
      "midi": 40,
      "hit": false,
      "t": 84811.68799999995,
      "d": 2805.439812499986,
      "v": 66
    },
    {
      "midi": 56,
      "hit": false,
      "t": 84811.68799999995,
      "d": 2805.439812499986,
      "v": 48
    },
    {
      "midi": 64,
      "hit": false,
      "t": 84811.68799999995,
      "d": 2810.1390416666545,
      "v": 62
    },
    {
      "midi": 59,
      "hit": false,
      "t": 84811.68799999995,
      "d": 2819.5374999999913,
      "v": 67
    },
    {
      "midi": 54,
      "hit": false,
      "t": 88420.69599999994,
      "d": 1217.1003541666723,
      "v": 58
    },
    {
      "midi": 63,
      "hit": false,
      "t": 88420.69599999994,
      "d": 1221.7995833333407,
      "v": 54
    },
    {
      "midi": 59,
      "hit": false,
      "t": 88420.69599999994,
      "d": 1273.4911041666783,
      "v": 79
    },
    {
      "midi": 47,
      "hit": false,
      "t": 88533.47749999995,
      "d": 3552.6172499999957,
      "v": 69
    },
    {
      "midi": 57,
      "hit": false,
      "t": 90225.19999999995,
      "d": 1353.377999999997,
      "v": 72
    },
    {
      "midi": 54,
      "hit": false,
      "t": 90225.19999999995,
      "d": 1367.475687500002,
      "v": 51
    },
    {
      "midi": 63,
      "hit": false,
      "t": 90225.19999999995,
      "d": 1428.5656666666619,
      "v": 51
    },
    {
      "midi": 52,
      "hit": false,
      "t": 92029.70399999995,
      "d": 3129.6866249999875,
      "v": 74
    },
    {
      "midi": 56,
      "hit": false,
      "t": 92029.70399999995,
      "d": 3157.8819999999832,
      "v": 66
    },
    {
      "midi": 59,
      "hit": false,
      "t": 92029.70399999995,
      "d": 3176.6789166666567,
      "v": 76
    },
    {
      "midi": 40,
      "hit": false,
      "t": 92029.70399999995,
      "d": 3228.3704374999943,
      "v": 66
    },
    {
      "midi": 63,
      "hit": false,
      "t": 95638.71199999994,
      "d": 1362.7764583333337,
      "v": 55
    },
    {
      "midi": 54,
      "hit": false,
      "t": 95638.71199999994,
      "d": 1400.3702916666662,
      "v": 54
    },
    {
      "midi": 59,
      "hit": false,
      "t": 95638.71199999994,
      "d": 1400.3702916666662,
      "v": 70
    },
    {
      "midi": 47,
      "hit": false,
      "t": 95751.49349999994,
      "d": 3552.617250000025,
      "v": 69
    },
    {
      "midi": 57,
      "hit": false,
      "t": 97443.21599999994,
      "d": 1419.1672083333397,
      "v": 72
    },
    {
      "midi": 54,
      "hit": false,
      "t": 97443.21599999994,
      "d": 1433.2648958333448,
      "v": 53
    },
    {
      "midi": 63,
      "hit": false,
      "t": 97443.21599999994,
      "d": 1466.1595000000088,
      "v": 54
    },
    {
      "midi": 52,
      "hit": false,
      "t": 99247.71999999996,
      "d": 1287.5887916666688,
      "v": 66
    },
    {
      "midi": 56,
      "hit": false,
      "t": 99247.71999999996,
      "d": 1292.2880208333372,
      "v": 47
    },
    {
      "midi": 59,
      "hit": false,
      "t": 99247.71999999996,
      "d": 1320.483395833333,
      "v": 69
    },
    {
      "midi": 40,
      "hit": false,
      "t": 99247.71999999996,
      "d": 3609.0080000000016,
      "v": 67
    },
    {
      "midi": 56,
      "hit": false,
      "t": 101052.22399999996,
      "d": 1677.6248124999984,
      "v": 64
    },
    {
      "midi": 62,
      "hit": false,
      "t": 101052.22399999996,
      "d": 1752.8124791666633,
      "v": 60
    },
    {
      "midi": 52,
      "hit": false,
      "t": 101052.22399999996,
      "d": 4891.897562500002,
      "v": 74
    },
    {
      "midi": 45,
      "hit": false,
      "t": 102856.72799999996,
      "d": 3580.812625000006,
      "v": 74
    },
    {
      "midi": 52,
      "hit": false,
      "t": 106465.73599999996,
      "d": 2758.447520833317,
      "v": 73
    },
    {
      "midi": 40,
      "hit": false,
      "t": 106465.73599999996,
      "d": 2984.0105208333116,
      "v": 62
    },
    {
      "midi": 76,
      "hit": false,
      "t": 108044.67700000003,
      "d": 169.1722499999887,
      "v": 60
    },
    {
      "midi": 80,
      "hit": false,
      "t": 108270.24000000002,
      "d": 897.5527708333393,
      "v": 62
    },
    {
      "midi": 58,
      "hit": false,
      "t": 110074.74399999993,
      "d": 488.71983333332173,
      "v": 58
    },
    {
      "midi": 42,
      "hit": false,
      "t": 110074.74399999993,
      "d": 902.2519999999931,
      "v": 54
    },
    {
      "midi": 54,
      "hit": false,
      "t": 110074.74399999993,
      "d": 1691.722499999989,
      "v": 49
    },
    {
      "midi": 66,
      "hit": false,
      "t": 110074.74399999993,
      "d": 3515.023416666678,
      "v": 56
    },
    {
      "midi": 59,
      "hit": false,
      "t": 110976.99599999993,
      "d": 277.2545208333322,
      "v": 72
    },
    {
      "midi": 44,
      "hit": false,
      "t": 110976.99599999993,
      "d": 869.3573958333291,
      "v": 50
    },
    {
      "midi": 60,
      "hit": false,
      "t": 111879.24799999992,
      "d": 408.832937500003,
      "v": 66
    },
    {
      "midi": 45,
      "hit": false,
      "t": 111879.24799999992,
      "d": 911.6504583333444,
      "v": 50
    },
    {
      "midi": 54,
      "hit": false,
      "t": 111879.24799999992,
      "d": 1682.3240416666958,
      "v": 31
    },
    {
      "midi": 46,
      "hit": false,
      "t": 112781.49999999993,
      "d": 747.1774375000095,
      "v": 49
    },
    {
      "midi": 61,
      "hit": false,
      "t": 112781.49999999993,
      "d": 761.2751250000147,
      "v": 51
    },
    {
      "midi": 47,
      "hit": false,
      "t": 113683.75199999995,
      "d": 3684.195666666681,
      "v": 49
    },
    {
      "midi": 66,
      "hit": false,
      "t": 113702.54891666662,
      "d": 2711.455229166677,
      "v": 57
    },
    {
      "midi": 66,
      "hit": false,
      "t": 116390.50800000003,
      "d": 230.26222916666302,
      "v": 64
    },
    {
      "midi": 78,
      "hit": false,
      "t": 116390.50800000003,
      "d": 272.55529166666383,
      "v": 71
    },
    {
      "midi": 76,
      "hit": false,
      "t": 116616.07100000003,
      "d": 192.66839583333058,
      "v": 73
    },
    {
      "midi": 64,
      "hit": false,
      "t": 116616.07100000003,
      "d": 211.46531250000407,
      "v": 58
    },
    {
      "midi": 75,
      "hit": false,
      "t": 116841.63400000003,
      "d": 629.6967083333293,
      "v": 77
    },
    {
      "midi": 63,
      "hit": false,
      "t": 116841.63400000003,
      "d": 648.4936250000028,
      "v": 59
    },
    {
      "midi": 73,
      "hit": false,
      "t": 117302.1584583333,
      "d": 3054.4989583333227,
      "v": 50
    },
    {
      "midi": 69,
      "hit": false,
      "t": 117306.85768749997,
      "d": 2998.1082083333167,
      "v": 59
    },
    {
      "midi": 64,
      "hit": false,
      "t": 117306.85768749997,
      "d": 3063.8974166666594,
      "v": 58
    },
    {
      "midi": 42,
      "hit": false,
      "t": 117306.85768749997,
      "d": 3656.0002916666563,
      "v": 46
    },
    {
      "midi": 66,
      "hit": false,
      "t": 119999.51600000003,
      "d": 192.66839583333058,
      "v": 63
    },
    {
      "midi": 78,
      "hit": false,
      "t": 119999.51600000003,
      "d": 197.36762499999895,
      "v": 86
    },
    {
      "midi": 80,
      "hit": false,
      "t": 120225.07900000003,
      "d": 192.66839583333058,
      "v": 68
    },
    {
      "midi": 68,
      "hit": false,
      "t": 120225.07900000003,
      "d": 239.66068749999977,
      "v": 52
    },
    {
      "midi": 81,
      "hit": false,
      "t": 120450.64200000002,
      "d": 390.0360208333441,
      "v": 73
    },
    {
      "midi": 69,
      "hit": false,
      "t": 120450.64200000002,
      "d": 404.1337083333492,
      "v": 73
    },
    {
      "midi": 68,
      "hit": false,
      "t": 120925.2641458333,
      "d": 3547.9180208333273,
      "v": 46
    },
    {
      "midi": 64,
      "hit": false,
      "t": 120929.96337499996,
      "d": 3538.5195624999906,
      "v": 57
    },
    {
      "midi": 71,
      "hit": false,
      "t": 120929.96337499996,
      "d": 3538.5195624999906,
      "v": 65
    },
    {
      "midi": 40,
      "hit": false,
      "t": 120929.96337499996,
      "d": 3543.218791666659,
      "v": 50
    },
    {
      "midi": 54,
      "hit": false,
      "t": 124510.77599999995,
      "d": 3218.971979166672,
      "v": 69
    },
    {
      "midi": 59,
      "hit": false,
      "t": 124510.77599999995,
      "d": 3242.4681249999994,
      "v": 86
    },
    {
      "midi": 63,
      "hit": false,
      "t": 124510.77599999995,
      "d": 3298.8588750000054,
      "v": 59
    },
    {
      "midi": 47,
      "hit": false,
      "t": 124510.77599999995,
      "d": 3604.3087708333333,
      "v": 79
    },
    {
      "midi": 57,
      "hit": false,
      "t": 128119.78399999996,
      "d": 2913.5220833333296,
      "v": 73
    },
    {
      "midi": 64,
      "hit": false,
      "t": 128119.78399999996,
      "d": 2927.6197708333348,
      "v": 71
    },
    {
      "midi": 61,
      "hit": false,
      "t": 128119.78399999996,
      "d": 2984.0105208333407,
      "v": 73
    },
    {
      "midi": 42,
      "hit": false,
      "t": 128119.78399999996,
      "d": 3557.3164791666786,
      "v": 48
    },
    {
      "midi": 56,
      "hit": false,
      "t": 131728.79199999996,
      "d": 3251.8665833333216,
      "v": 50
    },
    {
      "midi": 59,
      "hit": false,
      "t": 131728.79199999996,
      "d": 3251.8665833333216,
      "v": 71
    },
    {
      "midi": 64,
      "hit": false,
      "t": 131728.79199999996,
      "d": 3294.159645833308,
      "v": 66
    },
    {
      "midi": 40,
      "hit": false,
      "t": 131728.79199999996,
      "d": 3599.609541666636,
      "v": 62
    },
    {
      "midi": 59,
      "hit": false,
      "t": 135337.79999999993,
      "d": 2946.4166874999937,
      "v": 76
    },
    {
      "midi": 63,
      "hit": false,
      "t": 135337.79999999993,
      "d": 2979.3112916666723,
      "v": 53
    },
    {
      "midi": 54,
      "hit": false,
      "t": 135337.79999999993,
      "d": 2988.709750000009,
      "v": 51
    },
    {
      "midi": 47,
      "hit": false,
      "t": 135337.79999999993,
      "d": 3571.4141666666837,
      "v": 70
    },
    {
      "midi": 57,
      "hit": false,
      "t": 138946.80799999996,
      "d": 3280.061958333332,
      "v": 75
    },
    {
      "midi": 52,
      "hit": false,
      "t": 138946.80799999996,
      "d": 3294.159645833337,
      "v": 69
    },
    {
      "midi": 61,
      "hit": false,
      "t": 138946.80799999996,
      "d": 3294.159645833337,
      "v": 66
    },
    {
      "midi": 45,
      "hit": false,
      "t": 138946.80799999996,
      "d": 3627.804916666675,
      "v": 62
    },
    {
      "midi": 52,
      "hit": false,
      "t": 142555.81599999996,
      "d": 3552.617249999981,
      "v": 72
    },
    {
      "midi": 56,
      "hit": false,
      "t": 142555.81599999996,
      "d": 3552.617249999981,
      "v": 64
    },
    {
      "midi": 59,
      "hit": false,
      "t": 142555.81599999996,
      "d": 3552.617249999981,
      "v": 76
    },
    {
      "midi": 40,
      "hit": false,
      "t": 142555.81599999996,
      "d": 3590.211083333328,
      "v": 59
    },
    {
      "midi": 54,
      "hit": false,
      "t": 146164.82399999996,
      "d": 1249.9949583333218,
      "v": 52
    },
    {
      "midi": 63,
      "hit": false,
      "t": 146164.82399999996,
      "d": 1254.6941874999902,
      "v": 54
    },
    {
      "midi": 59,
      "hit": false,
      "t": 146164.82399999996,
      "d": 1292.2880208333372,
      "v": 75
    },
    {
      "midi": 47,
      "hit": false,
      "t": 146164.82399999996,
      "d": 3590.2110833333863,
      "v": 73
    },
    {
      "midi": 54,
      "hit": false,
      "t": 147969.32799999998,
      "d": 1254.6941875000193,
      "v": 46
    },
    {
      "midi": 57,
      "hit": false,
      "t": 147969.32799999998,
      "d": 1254.6941875000193,
      "v": 66
    },
    {
      "midi": 63,
      "hit": false,
      "t": 147969.32799999998,
      "d": 1282.8895625000296,
      "v": 51
    },
    {
      "midi": 52,
      "hit": false,
      "t": 149773.83200000002,
      "d": 3101.491249999992,
      "v": 69
    },
    {
      "midi": 56,
      "hit": false,
      "t": 149773.83200000002,
      "d": 3115.588937499997,
      "v": 68
    },
    {
      "midi": 59,
      "hit": false,
      "t": 149773.83200000002,
      "d": 3157.8819999999832,
      "v": 73
    },
    {
      "midi": 40,
      "hit": false,
      "t": 149773.83200000002,
      "d": 3261.2650416666584,
      "v": 69
    },
    {
      "midi": 63,
      "hit": false,
      "t": 153382.84000000003,
      "d": 1090.2211666666844,
      "v": 58
    },
    {
      "midi": 54,
      "hit": false,
      "t": 153382.84000000003,
      "d": 1113.7173125000263,
      "v": 54
    },
    {
      "midi": 59,
      "hit": false,
      "t": 153382.84000000003,
      "d": 1141.9126875000366,
      "v": 74
    },
    {
      "midi": 47,
      "hit": false,
      "t": 153495.62150000004,
      "d": 3552.6172500000393,
      "v": 67
    },
    {
      "midi": 57,
      "hit": false,
      "t": 155187.34400000007,
      "d": 1226.498812500009,
      "v": 71
    },
    {
      "midi": 54,
      "hit": false,
      "t": 155187.34400000007,
      "d": 1235.8972708333458,
      "v": 51
    },
    {
      "midi": 63,
      "hit": false,
      "t": 155187.34400000007,
      "d": 1268.7918750000244,
      "v": 51
    },
    {
      "midi": 56,
      "hit": false,
      "t": 156991.8480000001,
      "d": 1306.3857083333132,
      "v": 63
    },
    {
      "midi": 52,
      "hit": false,
      "t": 156991.8480000001,
      "d": 1320.4833958333184,
      "v": 67
    },
    {
      "midi": 59,
      "hit": false,
      "t": 156991.8480000001,
      "d": 1348.6787708333286,
      "v": 78
    },
    {
      "midi": 40,
      "hit": false,
      "t": 156991.8480000001,
      "d": 3308.257333333313,
      "v": 70
    },
    {
      "midi": 52,
      "hit": false,
      "t": 158796.35200000007,
      "d": 1301.686479166674,
      "v": 73
    },
    {
      "midi": 56,
      "hit": false,
      "t": 158796.35200000007,
      "d": 1343.9795416666602,
      "v": 62
    },
    {
      "midi": 62,
      "hit": false,
      "t": 158796.35200000007,
      "d": 1358.0772291666653,
      "v": 62
    },
    {
      "midi": 57,
      "hit": false,
      "t": 160600.85600000006,
      "d": 1461.4602708333405,
      "v": 74
    },
    {
      "midi": 61,
      "hit": false,
      "t": 160600.85600000006,
      "d": 1461.4602708333405,
      "v": 62
    },
    {
      "midi": 64,
      "hit": false,
      "t": 160600.85600000006,
      "d": 1461.4602708333405,
      "v": 66
    },
    {
      "midi": 45,
      "hit": false,
      "t": 160600.85600000006,
      "d": 1818.6016875000205,
      "v": 73
    },
    {
      "midi": 58,
      "hit": false,
      "t": 162405.36000000007,
      "d": 1240.5965000000142,
      "v": 57
    },
    {
      "midi": 55,
      "hit": false,
      "t": 162405.36000000007,
      "d": 1264.092645833356,
      "v": 66
    },
    {
      "midi": 64,
      "hit": false,
      "t": 162405.36000000007,
      "d": 1268.7918750000244,
      "v": 67
    },
    {
      "midi": 61,
      "hit": false,
      "t": 162405.36000000007,
      "d": 1311.0849375000107,
      "v": 64
    },
    {
      "midi": 39,
      "hit": false,
      "t": 162405.36000000007,
      "d": 1757.5117083333316,
      "v": 57
    },
    {
      "midi": 59,
      "hit": false,
      "t": 164209.86400000006,
      "d": 784.7712708333274,
      "v": 80
    },
    {
      "midi": 63,
      "hit": false,
      "t": 164209.86400000006,
      "d": 803.5681875000009,
      "v": 64
    },
    {
      "midi": 56,
      "hit": false,
      "t": 164209.86400000006,
      "d": 841.1620208333479,
      "v": 69
    },
    {
      "midi": 44,
      "hit": false,
      "t": 164209.86400000006,
      "d": 1785.7070833333419,
      "v": 66
    },
    {
      "midi": 56,
      "hit": false,
      "t": 166014.36800000007,
      "d": 1188.904979166662,
      "v": 66
    },
    {
      "midi": 63,
      "hit": false,
      "t": 166014.36800000007,
      "d": 1188.904979166662,
      "v": 63
    },
    {
      "midi": 53,
      "hit": false,
      "t": 166014.36800000007,
      "d": 1203.0026666666672,
      "v": 71
    },
    {
      "midi": 37,
      "hit": false,
      "t": 166127.1495000001,
      "d": 1766.9101666666684,
      "v": 66
    },
    {
      "midi": 57,
      "hit": false,
      "t": 167818.8720000001,
      "d": 1381.5733749999781,
      "v": 76
    },
    {
      "midi": 61,
      "hit": false,
      "t": 167818.8720000001,
      "d": 1409.7687499999884,
      "v": 58
    },
    {
      "midi": 54,
      "hit": false,
      "t": 167818.8720000001,
      "d": 1419.167208333325,
      "v": 64
    },
    {
      "midi": 42,
      "hit": false,
      "t": 167818.8720000001,
      "d": 1734.0155624999898,
      "v": 63
    },
    {
      "midi": 63,
      "hit": false,
      "t": 169623.37600000008,
      "d": 1452.0618125000037,
      "v": 50
    },
    {
      "midi": 54,
      "hit": false,
      "t": 169623.37600000008,
      "d": 1461.4602708333405,
      "v": 57
    },
    {
      "midi": 59,
      "hit": false,
      "t": 169623.37600000008,
      "d": 1466.1595000000088,
      "v": 74
    },
    {
      "midi": 47,
      "hit": false,
      "t": 169623.37600000008,
      "d": 1832.6993750000256,
      "v": 68
    },
    {
      "midi": 40,
      "hit": false,
      "t": 171427.8800000001,
      "d": 2805.43981250003,
      "v": 66
    },
    {
      "midi": 56,
      "hit": false,
      "t": 171427.8800000001,
      "d": 2805.43981250003,
      "v": 48
    },
    {
      "midi": 64,
      "hit": false,
      "t": 171427.8800000001,
      "d": 2810.139041666698,
      "v": 62
    },
    {
      "midi": 59,
      "hit": false,
      "t": 171427.8800000001,
      "d": 2819.537500000035,
      "v": 67
    },
    {
      "midi": 54,
      "hit": false,
      "t": 175036.88800000012,
      "d": 1249.9949583333218,
      "v": 52
    },
    {
      "midi": 63,
      "hit": false,
      "t": 175036.88800000012,
      "d": 1254.6941874999902,
      "v": 54
    },
    {
      "midi": 59,
      "hit": false,
      "t": 175036.88800000012,
      "d": 1292.2880208333372,
      "v": 75
    },
    {
      "midi": 47,
      "hit": false,
      "t": 175036.88800000012,
      "d": 3590.2110833333863,
      "v": 73
    },
    {
      "midi": 54,
      "hit": false,
      "t": 176841.39200000014,
      "d": 1254.6941875000193,
      "v": 46
    },
    {
      "midi": 57,
      "hit": false,
      "t": 176841.39200000014,
      "d": 1254.6941875000193,
      "v": 66
    },
    {
      "midi": 63,
      "hit": false,
      "t": 176841.39200000014,
      "d": 1282.8895625000296,
      "v": 51
    },
    {
      "midi": 52,
      "hit": false,
      "t": 178645.89600000018,
      "d": 3101.491249999992,
      "v": 69
    },
    {
      "midi": 56,
      "hit": false,
      "t": 178645.89600000018,
      "d": 3115.588937499997,
      "v": 68
    },
    {
      "midi": 59,
      "hit": false,
      "t": 178645.89600000018,
      "d": 3157.8819999999832,
      "v": 73
    },
    {
      "midi": 40,
      "hit": false,
      "t": 178645.89600000018,
      "d": 3261.2650416666584,
      "v": 69
    },
    {
      "midi": 63,
      "hit": false,
      "t": 182254.90400000018,
      "d": 1090.2211666666844,
      "v": 58
    },
    {
      "midi": 54,
      "hit": false,
      "t": 182254.90400000018,
      "d": 1113.7173125000263,
      "v": 54
    },
    {
      "midi": 59,
      "hit": false,
      "t": 182254.90400000018,
      "d": 1141.9126875000366,
      "v": 74
    },
    {
      "midi": 47,
      "hit": false,
      "t": 182367.6855000002,
      "d": 3552.6172500000393,
      "v": 67
    },
    {
      "midi": 57,
      "hit": false,
      "t": 184059.40800000023,
      "d": 1226.498812500009,
      "v": 71
    },
    {
      "midi": 54,
      "hit": false,
      "t": 184059.40800000023,
      "d": 1235.8972708333458,
      "v": 51
    },
    {
      "midi": 63,
      "hit": false,
      "t": 184059.40800000023,
      "d": 1268.7918750000244,
      "v": 51
    },
    {
      "midi": 56,
      "hit": false,
      "t": 185863.91200000024,
      "d": 1306.3857083333132,
      "v": 63
    },
    {
      "midi": 52,
      "hit": false,
      "t": 185863.91200000024,
      "d": 1320.4833958333184,
      "v": 67
    },
    {
      "midi": 59,
      "hit": false,
      "t": 185863.91200000024,
      "d": 1348.6787708333286,
      "v": 78
    },
    {
      "midi": 40,
      "hit": false,
      "t": 185863.91200000024,
      "d": 3308.257333333313,
      "v": 70
    },
    {
      "midi": 52,
      "hit": false,
      "t": 187668.41600000023,
      "d": 1301.686479166674,
      "v": 73
    },
    {
      "midi": 56,
      "hit": false,
      "t": 187668.41600000023,
      "d": 1343.9795416666602,
      "v": 62
    },
    {
      "midi": 62,
      "hit": false,
      "t": 187668.41600000023,
      "d": 1358.0772291666653,
      "v": 62
    },
    {
      "midi": 57,
      "hit": false,
      "t": 189472.92000000022,
      "d": 1461.4602708333405,
      "v": 74
    },
    {
      "midi": 61,
      "hit": false,
      "t": 189472.92000000022,
      "d": 1461.4602708333405,
      "v": 62
    },
    {
      "midi": 64,
      "hit": false,
      "t": 189472.92000000022,
      "d": 1461.4602708333405,
      "v": 66
    },
    {
      "midi": 45,
      "hit": false,
      "t": 189472.92000000022,
      "d": 1818.6016875000205,
      "v": 73
    },
    {
      "midi": 58,
      "hit": false,
      "t": 191277.42400000023,
      "d": 1240.5965000000142,
      "v": 57
    },
    {
      "midi": 55,
      "hit": false,
      "t": 191277.42400000023,
      "d": 1264.092645833356,
      "v": 66
    },
    {
      "midi": 64,
      "hit": false,
      "t": 191277.42400000023,
      "d": 1268.7918750000244,
      "v": 67
    },
    {
      "midi": 61,
      "hit": false,
      "t": 191277.42400000023,
      "d": 1311.0849375000107,
      "v": 64
    },
    {
      "midi": 39,
      "hit": false,
      "t": 191277.42400000023,
      "d": 1757.5117083333316,
      "v": 57
    },
    {
      "midi": 59,
      "hit": false,
      "t": 193081.92800000022,
      "d": 784.7712708333274,
      "v": 80
    },
    {
      "midi": 63,
      "hit": false,
      "t": 193081.92800000022,
      "d": 803.5681875000009,
      "v": 64
    },
    {
      "midi": 56,
      "hit": false,
      "t": 193081.92800000022,
      "d": 841.1620208333479,
      "v": 69
    },
    {
      "midi": 44,
      "hit": false,
      "t": 193081.92800000022,
      "d": 1785.7070833333419,
      "v": 66
    },
    {
      "midi": 56,
      "hit": false,
      "t": 194886.43200000023,
      "d": 1188.904979166662,
      "v": 66
    },
    {
      "midi": 63,
      "hit": false,
      "t": 194886.43200000023,
      "d": 1188.904979166662,
      "v": 63
    },
    {
      "midi": 53,
      "hit": false,
      "t": 194886.43200000023,
      "d": 1203.0026666666672,
      "v": 71
    },
    {
      "midi": 37,
      "hit": false,
      "t": 194999.21350000025,
      "d": 1766.9101666666684,
      "v": 66
    },
    {
      "midi": 57,
      "hit": false,
      "t": 196690.93600000025,
      "d": 1381.5733749999781,
      "v": 76
    },
    {
      "midi": 61,
      "hit": false,
      "t": 196690.93600000025,
      "d": 1409.7687499999884,
      "v": 58
    },
    {
      "midi": 54,
      "hit": false,
      "t": 196690.93600000025,
      "d": 1419.167208333325,
      "v": 64
    },
    {
      "midi": 42,
      "hit": false,
      "t": 196690.93600000025,
      "d": 1734.0155624999898,
      "v": 63
    },
    {
      "midi": 63,
      "hit": false,
      "t": 198495.44000000024,
      "d": 1452.0618125000037,
      "v": 50
    },
    {
      "midi": 54,
      "hit": false,
      "t": 198495.44000000024,
      "d": 1461.4602708333405,
      "v": 57
    },
    {
      "midi": 59,
      "hit": false,
      "t": 198495.44000000024,
      "d": 1466.1595000000088,
      "v": 74
    },
    {
      "midi": 47,
      "hit": false,
      "t": 198495.44000000024,
      "d": 1832.6993750000256,
      "v": 68
    },
    {
      "midi": 40,
      "hit": false,
      "t": 200299.94400000025,
      "d": 2805.43981250003,
      "v": 66
    },
    {
      "midi": 56,
      "hit": false,
      "t": 200299.94400000025,
      "d": 2805.43981250003,
      "v": 48
    },
    {
      "midi": 64,
      "hit": false,
      "t": 200299.94400000025,
      "d": 2810.139041666698,
      "v": 62
    },
    {
      "midi": 59,
      "hit": false,
      "t": 200299.94400000025,
      "d": 2819.537500000035,
      "v": 67
    },
    {
      "midi": 45,
      "hit": false,
      "t": 203908.95200000028,
      "d": 3580.8126249999914,
      "v": 74
    },
    {
      "midi": 52,
      "hit": false,
      "t": 207517.96000000028,
      "d": 2758.447520833346,
      "v": 73
    },
    {
      "midi": 40,
      "hit": false,
      "t": 207517.96000000028,
      "d": 2984.0105208333407,
      "v": 62
    },
    {
      "midi": 76,
      "hit": false,
      "t": 209096.90100000004,
      "d": 169.17225000000326,
      "v": 60
    },
    {
      "midi": 80,
      "hit": false,
      "t": 209322.46400000004,
      "d": 897.5527708333393,
      "v": 62
    },
    {
      "midi": 58,
      "hit": false,
      "t": 211126.96800000028,
      "d": 488.7198333333363,
      "v": 58
    },
    {
      "midi": 42,
      "hit": false,
      "t": 211126.96800000028,
      "d": 902.2520000000077,
      "v": 54
    },
    {
      "midi": 54,
      "hit": false,
      "t": 211126.96800000028,
      "d": 1691.7225000000326,
      "v": 49
    },
    {
      "midi": 66,
      "hit": false,
      "t": 211126.96800000028,
      "d": 3515.0234166667506,
      "v": 56
    },
    {
      "midi": 59,
      "hit": false,
      "t": 212029.2200000003,
      "d": 277.25452083334676,
      "v": 72
    },
    {
      "midi": 44,
      "hit": false,
      "t": 212029.2200000003,
      "d": 869.3573958333582,
      "v": 50
    },
    {
      "midi": 60,
      "hit": false,
      "t": 212931.47200000033,
      "d": 408.832937500003,
      "v": 66
    },
    {
      "midi": 45,
      "hit": false,
      "t": 212931.47200000033,
      "d": 911.6504583333444,
      "v": 50
    },
    {
      "midi": 54,
      "hit": false,
      "t": 212931.47200000033,
      "d": 1682.3240416666958,
      "v": 31
    },
    {
      "midi": 46,
      "hit": false,
      "t": 213833.72400000034,
      "d": 747.1774375000095,
      "v": 49
    },
    {
      "midi": 61,
      "hit": false,
      "t": 213833.72400000034,
      "d": 761.2751250000147,
      "v": 51
    },
    {
      "midi": 47,
      "hit": false,
      "t": 214735.97600000037,
      "d": 3684.1956666666956,
      "v": 49
    },
    {
      "midi": 66,
      "hit": false,
      "t": 214754.77291666705,
      "d": 2711.4552291666623,
      "v": 57
    },
    {
      "midi": 66,
      "hit": false,
      "t": 217442.73200000005,
      "d": 230.26222916666302,
      "v": 64
    },
    {
      "midi": 78,
      "hit": false,
      "t": 217442.73200000005,
      "d": 272.5552916666493,
      "v": 71
    },
    {
      "midi": 76,
      "hit": false,
      "t": 217668.29500000004,
      "d": 192.66839583331603,
      "v": 73
    },
    {
      "midi": 64,
      "hit": false,
      "t": 217668.29500000004,
      "d": 211.46531249998952,
      "v": 58
    },
    {
      "midi": 75,
      "hit": false,
      "t": 217893.85800000004,
      "d": 629.6967083333293,
      "v": 77
    },
    {
      "midi": 63,
      "hit": false,
      "t": 217893.85800000004,
      "d": 648.4936250000028,
      "v": 59
    },
    {
      "midi": 73,
      "hit": false,
      "t": 218354.3824583337,
      "d": 3054.4989583333663,
      "v": 50
    },
    {
      "midi": 69,
      "hit": false,
      "t": 218359.08168750038,
      "d": 2998.108208333375,
      "v": 59
    },
    {
      "midi": 64,
      "hit": false,
      "t": 218359.08168750038,
      "d": 3063.897416666703,
      "v": 58
    },
    {
      "midi": 42,
      "hit": false,
      "t": 218359.08168750038,
      "d": 3656.0002916667145,
      "v": 46
    },
    {
      "midi": 66,
      "hit": false,
      "t": 221051.74000000005,
      "d": 192.66839583334513,
      "v": 63
    },
    {
      "midi": 78,
      "hit": false,
      "t": 221051.74000000005,
      "d": 197.3676250000135,
      "v": 86
    },
    {
      "midi": 80,
      "hit": false,
      "t": 221277.30300000007,
      "d": 192.66839583334513,
      "v": 68
    },
    {
      "midi": 68,
      "hit": false,
      "t": 221277.30300000007,
      "d": 239.66068750002887,
      "v": 52
    },
    {
      "midi": 81,
      "hit": false,
      "t": 221502.8660000001,
      "d": 390.03602083332953,
      "v": 73
    },
    {
      "midi": 69,
      "hit": false,
      "t": 221502.8660000001,
      "d": 404.13370833333465,
      "v": 73
    },
    {
      "midi": 68,
      "hit": false,
      "t": 221977.48814583375,
      "d": 3547.918020833342,
      "v": 46
    },
    {
      "midi": 64,
      "hit": false,
      "t": 221982.18737500042,
      "d": 3538.519562500005,
      "v": 57
    },
    {
      "midi": 71,
      "hit": false,
      "t": 221982.18737500042,
      "d": 3538.519562500005,
      "v": 65
    },
    {
      "midi": 40,
      "hit": false,
      "t": 221982.18737500042,
      "d": 3543.2187916666735,
      "v": 50
    }
  ]
}