{
  "jsonPath": "Electronic/Kids Dance Party/Music Makers/ameno.json",
  "path": "Electronic\\Kids Dance Party\\Music Makers\\Ameno.mid",
  "name": "Ameno",
  "difficulty": "Intermediate",
  "bpm": 120,
  "notes": [
    {
      "midi": 54,
      "hit": false,
      "t": 9368.027000000002,
      "d": 279.0992499999993,
      "v": 11
    },
    {
      "midi": 58,
      "hit": false,
      "t": 9368.027000000002,
      "d": 279.0992499999993,
      "v": 11
    },
    {
      "midi": 56,
      "hit": false,
      "t": 9659.261,
      "d": 2026.5032499999998,
      "v": 11
    },
    {
      "midi": 59,
      "hit": false,
      "t": 9659.261,
      "d": 2026.5032499999998,
      "v": 11
    },
    {
      "midi": 54,
      "hit": false,
      "t": 11697.899,
      "d": 279.0992499999993,
      "v": 11
    },
    {
      "midi": 58,
      "hit": false,
      "t": 11697.899,
      "d": 279.0992499999993,
      "v": 11
    },
    {
      "midi": 56,
      "hit": false,
      "t": 11989.132999999998,
      "d": 861.5672500000001,
      "v": 11
    },
    {
      "midi": 59,
      "hit": false,
      "t": 11989.132999999998,
      "d": 861.5672500000001,
      "v": 11
    },
    {
      "midi": 54,
      "hit": false,
      "t": 12862.834999999997,
      "d": 279.0992499999993,
      "v": 11
    },
    {
      "midi": 58,
      "hit": false,
      "t": 12862.834999999997,
      "d": 279.0992499999993,
      "v": 11
    },
    {
      "midi": 56,
      "hit": false,
      "t": 13154.068999999996,
      "d": 861.5672500000001,
      "v": 11
    },
    {
      "midi": 59,
      "hit": false,
      "t": 13154.068999999996,
      "d": 861.5672500000001,
      "v": 11
    },
    {
      "midi": 54,
      "hit": false,
      "t": 14027.770999999995,
      "d": 279.0992499999993,
      "v": 11
    },
    {
      "midi": 58,
      "hit": false,
      "t": 14027.770999999995,
      "d": 279.0992499999993,
      "v": 11
    },
    {
      "midi": 70,
      "hit": false,
      "t": 14027.770999999995,
      "d": 279.0992499999993,
      "v": 11
    },
    {
      "midi": 56,
      "hit": false,
      "t": 14319.004999999994,
      "d": 2026.5032499999998,
      "v": 11
    },
    {
      "midi": 59,
      "hit": false,
      "t": 14319.004999999994,
      "d": 2026.5032499999998,
      "v": 11
    },
    {
      "midi": 71,
      "hit": false,
      "t": 14319.004999999994,
      "d": 2026.5032499999998,
      "v": 11
    },
    {
      "midi": 58,
      "hit": false,
      "t": 16357.642999999993,
      "d": 279.0992499999993,
      "v": 11
    },
    {
      "midi": 61,
      "hit": false,
      "t": 16357.642999999993,
      "d": 279.0992499999993,
      "v": 11
    },
    {
      "midi": 56,
      "hit": false,
      "t": 16648.876999999993,
      "d": 861.5672500000001,
      "v": 11
    },
    {
      "midi": 59,
      "hit": false,
      "t": 16648.876999999993,
      "d": 861.5672500000001,
      "v": 11
    },
    {
      "midi": 58,
      "hit": false,
      "t": 17522.578999999994,
      "d": 279.0992499999993,
      "v": 11
    },
    {
      "midi": 61,
      "hit": false,
      "t": 17522.578999999994,
      "d": 279.0992499999993,
      "v": 11
    },
    {
      "midi": 56,
      "hit": false,
      "t": 17813.812999999995,
      "d": 861.5672500000001,
      "v": 11
    },
    {
      "midi": 59,
      "hit": false,
      "t": 17813.812999999995,
      "d": 861.5672500000001,
      "v": 11
    },
    {
      "midi": 56,
      "hit": false,
      "t": 18687.514999999996,
      "d": 279.0992499999993,
      "v": 11
    },
    {
      "midi": 59,
      "hit": false,
      "t": 18687.514999999996,
      "d": 279.0992499999993,
      "v": 11
    },
    {
      "midi": 71,
      "hit": false,
      "t": 18687.514999999996,
      "d": 279.0992499999993,
      "v": 11
    },
    {
      "midi": 54,
      "hit": false,
      "t": 18978.748999999996,
      "d": 2026.5032500000016,
      "v": 11
    },
    {
      "midi": 58,
      "hit": false,
      "t": 18978.748999999996,
      "d": 2026.5032500000016,
      "v": 11
    },
    {
      "midi": 70,
      "hit": false,
      "t": 18978.748999999996,
      "d": 2026.5032500000016,
      "v": 11
    },
    {
      "midi": 56,
      "hit": false,
      "t": 21017.387,
      "d": 279.0992499999993,
      "v": 11
    },
    {
      "midi": 59,
      "hit": false,
      "t": 21017.387,
      "d": 279.0992499999993,
      "v": 11
    },
    {
      "midi": 71,
      "hit": false,
      "t": 21017.387,
      "d": 279.0992499999993,
      "v": 11
    },
    {
      "midi": 54,
      "hit": false,
      "t": 21308.621,
      "d": 2317.7372499999983,
      "v": 11
    },
    {
      "midi": 58,
      "hit": false,
      "t": 21308.621,
      "d": 2317.7372499999983,
      "v": 11
    },
    {
      "midi": 70,
      "hit": false,
      "t": 21308.621,
      "d": 2317.7372499999983,
      "v": 11
    },
    {
      "midi": 56,
      "hit": false,
      "t": 23638.493,
      "d": 2026.5032500000016,
      "v": 11
    },
    {
      "midi": 59,
      "hit": false,
      "t": 23638.493,
      "d": 2026.5032500000016,
      "v": 11
    },
    {
      "midi": 71,
      "hit": false,
      "t": 23638.493,
      "d": 2026.5032500000016,
      "v": 11
    },
    {
      "midi": 58,
      "hit": false,
      "t": 26842.067,
      "d": 279.0992499999993,
      "v": 11
    },
    {
      "midi": 61,
      "hit": false,
      "t": 26842.067,
      "d": 279.0992499999993,
      "v": 11
    },
    {
      "midi": 73,
      "hit": false,
      "t": 26842.067,
      "d": 279.0992499999993,
      "v": 11
    },
    {
      "midi": 59,
      "hit": false,
      "t": 27133.301,
      "d": 2026.5032500000016,
      "v": 11
    },
    {
      "midi": 63,
      "hit": false,
      "t": 27133.301,
      "d": 2026.5032500000016,
      "v": 11
    },
    {
      "midi": 75,
      "hit": false,
      "t": 27133.301,
      "d": 2026.5032500000016,
      "v": 11
    },
    {
      "midi": 58,
      "hit": false,
      "t": 29171.939000000002,
      "d": 279.0992499999993,
      "v": 11
    },
    {
      "midi": 61,
      "hit": false,
      "t": 29171.939000000002,
      "d": 279.0992499999993,
      "v": 11
    },
    {
      "midi": 73,
      "hit": false,
      "t": 29171.939000000002,
      "d": 279.0992499999993,
      "v": 11
    },
    {
      "midi": 59,
      "hit": false,
      "t": 29463.173000000003,
      "d": 861.5672500000001,
      "v": 11
    },
    {
      "midi": 63,
      "hit": false,
      "t": 29463.173000000003,
      "d": 861.5672500000001,
      "v": 11
    },
    {
      "midi": 75,
      "hit": false,
      "t": 29463.173000000003,
      "d": 861.5672500000001,
      "v": 11
    },
    {
      "midi": 58,
      "hit": false,
      "t": 30336.875000000004,
      "d": 279.0992499999993,
      "v": 11
    },
    {
      "midi": 61,
      "hit": false,
      "t": 30336.875000000004,
      "d": 279.0992499999993,
      "v": 11
    },
    {
      "midi": 73,
      "hit": false,
      "t": 30336.875000000004,
      "d": 279.0992499999993,
      "v": 11
    },
    {
      "midi": 59,
      "hit": false,
      "t": 30628.109000000004,
      "d": 861.5672500000001,
      "v": 11
    },
    {
      "midi": 63,
      "hit": false,
      "t": 30628.109000000004,
      "d": 861.5672500000001,
      "v": 11
    },
    {
      "midi": 75,
      "hit": false,
      "t": 30628.109000000004,
      "d": 861.5672500000001,
      "v": 11
    },
    {
      "midi": 58,
      "hit": false,
      "t": 31501.811000000005,
      "d": 279.0992499999993,
      "v": 11
    },
    {
      "midi": 61,
      "hit": false,
      "t": 31501.811000000005,
      "d": 279.0992499999993,
      "v": 11
    },
    {
      "midi": 73,
      "hit": false,
      "t": 31501.811000000005,
      "d": 279.0992499999993,
      "v": 11
    },
    {
      "midi": 59,
      "hit": false,
      "t": 31793.045000000006,
      "d": 2026.5032500000016,
      "v": 11
    },
    {
      "midi": 63,
      "hit": false,
      "t": 31793.045000000006,
      "d": 2026.5032500000016,
      "v": 11
    },
    {
      "midi": 75,
      "hit": false,
      "t": 31793.045000000006,
      "d": 2026.5032500000016,
      "v": 11
    },
    {
      "midi": 58,
      "hit": false,
      "t": 33831.683000000005,
      "d": 279.0992499999993,
      "v": 11
    },
    {
      "midi": 61,
      "hit": false,
      "t": 33831.683000000005,
      "d": 279.0992499999993,
      "v": 11
    },
    {
      "midi": 73,
      "hit": false,
      "t": 33831.683000000005,
      "d": 279.0992499999993,
      "v": 11
    },
    {
      "midi": 56,
      "hit": false,
      "t": 34122.917,
      "d": 861.5672500000001,
      "v": 11
    },
    {
      "midi": 59,
      "hit": false,
      "t": 34122.917,
      "d": 861.5672500000001,
      "v": 11
    },
    {
      "midi": 71,
      "hit": false,
      "t": 34122.917,
      "d": 861.5672500000001,
      "v": 11
    },
    {
      "midi": 58,
      "hit": false,
      "t": 34996.619,
      "d": 279.0992499999993,
      "v": 11
    },
    {
      "midi": 61,
      "hit": false,
      "t": 34996.619,
      "d": 279.0992499999993,
      "v": 11
    },
    {
      "midi": 73,
      "hit": false,
      "t": 34996.619,
      "d": 279.0992499999993,
      "v": 11
    },
    {
      "midi": 56,
      "hit": false,
      "t": 35287.852999999996,
      "d": 1152.8012499999968,
      "v": 11
    },
    {
      "midi": 59,
      "hit": false,
      "t": 35287.852999999996,
      "d": 1152.8012499999968,
      "v": 11
    },
    {
      "midi": 71,
      "hit": false,
      "t": 35287.852999999996,
      "d": 1152.8012499999968,
      "v": 11
    },
    {
      "midi": 54,
      "hit": false,
      "t": 36452.78899999999,
      "d": 2026.5032500000016,
      "v": 11
    },
    {
      "midi": 58,
      "hit": false,
      "t": 36452.78899999999,
      "d": 2026.5032500000016,
      "v": 11
    },
    {
      "midi": 70,
      "hit": false,
      "t": 36452.78899999999,
      "d": 2026.5032500000016,
      "v": 11
    },
    {
      "midi": 56,
      "hit": false,
      "t": 38491.42699999999,
      "d": 279.0992499999993,
      "v": 11
    },
    {
      "midi": 59,
      "hit": false,
      "t": 38491.42699999999,
      "d": 279.0992499999993,
      "v": 11
    },
    {
      "midi": 71,
      "hit": false,
      "t": 38491.42699999999,
      "d": 279.0992499999993,
      "v": 11
    },
    {
      "midi": 54,
      "hit": false,
      "t": 38782.660999999986,
      "d": 2317.7372499999983,
      "v": 11
    },
    {
      "midi": 58,
      "hit": false,
      "t": 38782.660999999986,
      "d": 2317.7372499999983,
      "v": 11
    },
    {
      "midi": 70,
      "hit": false,
      "t": 38782.660999999986,
      "d": 2317.7372499999983,
      "v": 11
    },
    {
      "midi": 56,
      "hit": false,
      "t": 41112.53299999998,
      "d": 1589.6522499999992,
      "v": 11
    },
    {
      "midi": 59,
      "hit": false,
      "t": 41112.53299999998,
      "d": 1589.6522499999992,
      "v": 11
    },
    {
      "midi": 71,
      "hit": false,
      "t": 41112.53299999998,
      "d": 1589.6522499999992,
      "v": 11
    },
    {
      "midi": 56,
      "hit": false,
      "t": 52761.89299999998,
      "d": 279.0992499999993,
      "v": 11
    },
    {
      "midi": 59,
      "hit": false,
      "t": 52761.89299999998,
      "d": 279.0992499999993,
      "v": 11
    },
    {
      "midi": 68,
      "hit": false,
      "t": 52761.89299999998,
      "d": 279.0992499999993,
      "v": 11
    },
    {
      "midi": 51,
      "hit": false,
      "t": 53053.12699999998,
      "d": 279.0992499999993,
      "v": 11
    },
    {
      "midi": 54,
      "hit": false,
      "t": 53053.12699999998,
      "d": 279.0992499999993,
      "v": 11
    },
    {
      "midi": 63,
      "hit": false,
      "t": 53053.12699999998,
      "d": 279.0992499999993,
      "v": 11
    },
    {
      "midi": 52,
      "hit": false,
      "t": 53344.360999999975,
      "d": 1735.2692499999976,
      "v": 11
    },
    {
      "midi": 56,
      "hit": false,
      "t": 53344.360999999975,
      "d": 1735.2692499999976,
      "v": 11
    },
    {
      "midi": 64,
      "hit": false,
      "t": 53344.360999999975,
      "d": 1735.2692499999976,
      "v": 11
    },
    {
      "midi": 56,
      "hit": false,
      "t": 55091.76499999997,
      "d": 279.0992499999993,
      "v": 11
    },
    {
      "midi": 64,
      "hit": false,
      "t": 55091.76499999997,
      "d": 279.0992499999993,
      "v": 11
    },
    {
      "midi": 68,
      "hit": false,
      "t": 55091.76499999997,
      "d": 279.0992499999993,
      "v": 11
    },
    {
      "midi": 51,
      "hit": false,
      "t": 55382.99899999997,
      "d": 279.0992499999993,
      "v": 11
    },
    {
      "midi": 59,
      "hit": false,
      "t": 55382.99899999997,
      "d": 279.0992499999993,
      "v": 11
    },
    {
      "midi": 63,
      "hit": false,
      "t": 55382.99899999997,
      "d": 279.0992499999993,
      "v": 11
    },
    {
      "midi": 52,
      "hit": false,
      "t": 55674.232999999964,
      "d": 279.0992499999993,
      "v": 11
    },
    {
      "midi": 61,
      "hit": false,
      "t": 55674.232999999964,
      "d": 279.0992499999993,
      "v": 11
    },
    {
      "midi": 64,
      "hit": false,
      "t": 55674.232999999964,
      "d": 279.0992499999993,
      "v": 11
    },
    {
      "midi": 56,
      "hit": false,
      "t": 55965.46699999996,
      "d": 2317.7372499999983,
      "v": 11
    },
    {
      "midi": 60,
      "hit": false,
      "t": 55965.46699999996,
      "d": 2317.7372499999983,
      "v": 11
    },
    {
      "midi": 68,
      "hit": false,
      "t": 55965.46699999996,
      "d": 2317.7372499999983,
      "v": 11
    },
    {
      "midi": 54,
      "hit": false,
      "t": 58586.57299999996,
      "d": 861.5672500000001,
      "v": 11
    },
    {
      "midi": 63,
      "hit": false,
      "t": 58586.57299999996,
      "d": 861.5672500000001,
      "v": 11
    },
    {
      "midi": 66,
      "hit": false,
      "t": 58586.57299999996,
      "d": 861.5672500000001,
      "v": 11
    },
    {
      "midi": 52,
      "hit": false,
      "t": 59460.27499999996,
      "d": 570.3332500000033,
      "v": 11
    },
    {
      "midi": 61,
      "hit": false,
      "t": 59460.27499999996,
      "d": 570.3332500000033,
      "v": 11
    },
    {
      "midi": 64,
      "hit": false,
      "t": 59460.27499999996,
      "d": 570.3332500000033,
      "v": 11
    },
    {
      "midi": 56,
      "hit": false,
      "t": 60042.74299999996,
      "d": 2900.205249999999,
      "v": 11
    },
    {
      "midi": 64,
      "hit": false,
      "t": 60042.74299999996,
      "d": 2900.205249999999,
      "v": 11
    },
    {
      "midi": 68,
      "hit": false,
      "t": 60042.74299999996,
      "d": 2900.205249999999,
      "v": 11
    },
    {
      "midi": 54,
      "hit": false,
      "t": 63246.31699999996,
      "d": 861.5672500000001,
      "v": 11
    },
    {
      "midi": 57,
      "hit": false,
      "t": 63246.31699999996,
      "d": 861.5672500000001,
      "v": 11
    },
    {
      "midi": 66,
      "hit": false,
      "t": 63246.31699999996,
      "d": 861.5672500000001,
      "v": 11
    },
    {
      "midi": 52,
      "hit": false,
      "t": 64120.01899999996,
      "d": 570.3332500000033,
      "v": 11
    },
    {
      "midi": 57,
      "hit": false,
      "t": 64120.01899999996,
      "d": 570.3332500000033,
      "v": 11
    },
    {
      "midi": 64,
      "hit": false,
      "t": 64120.01899999996,
      "d": 570.3332500000033,
      "v": 11
    },
    {
      "midi": 59,
      "hit": false,
      "t": 64702.48699999996,
      "d": 2026.5032500000016,
      "v": 11
    },
    {
      "midi": 64,
      "hit": false,
      "t": 64702.48699999996,
      "d": 2026.5032500000016,
      "v": 11
    },
    {
      "midi": 71,
      "hit": false,
      "t": 64702.48699999996,
      "d": 2026.5032500000016,
      "v": 11
    },
    {
      "midi": 56,
      "hit": false,
      "t": 66741.12499999996,
      "d": 279.0992499999993,
      "v": 11
    },
    {
      "midi": 64,
      "hit": false,
      "t": 66741.12499999996,
      "d": 279.0992499999993,
      "v": 11
    },
    {
      "midi": 68,
      "hit": false,
      "t": 66741.12499999996,
      "d": 279.0992499999993,
      "v": 11
    },
    {
      "midi": 51,
      "hit": false,
      "t": 67032.35899999995,
      "d": 279.0992499999993,
      "v": 11
    },
    {
      "midi": 54,
      "hit": false,
      "t": 67032.35899999995,
      "d": 279.0992499999993,
      "v": 11
    },
    {
      "midi": 63,
      "hit": false,
      "t": 67032.35899999995,
      "d": 279.0992499999993,
      "v": 11
    },
    {
      "midi": 52,
      "hit": false,
      "t": 67323.59299999995,
      "d": 279.0992499999993,
      "v": 11
    },
    {
      "midi": 56,
      "hit": false,
      "t": 67323.59299999995,
      "d": 279.0992499999993,
      "v": 11
    },
    {
      "midi": 64,
      "hit": false,
      "t": 67323.59299999995,
      "d": 279.0992499999993,
      "v": 11
    },
    {
      "midi": 56,
      "hit": false,
      "t": 67614.82699999995,
      "d": 1735.2692499999976,
      "v": 11
    },
    {
      "midi": 64,
      "hit": false,
      "t": 67614.82699999995,
      "d": 1735.2692499999976,
      "v": 11
    },
    {
      "midi": 68,
      "hit": false,
      "t": 67614.82699999995,
      "d": 1735.2692499999976,
      "v": 11
    },
    {
      "midi": 51,
      "hit": false,
      "t": 69362.23099999994,
      "d": 279.0992499999993,
      "v": 11
    },
    {
      "midi": 54,
      "hit": false,
      "t": 69362.23099999994,
      "d": 279.0992499999993,
      "v": 11
    },
    {
      "midi": 63,
      "hit": false,
      "t": 69362.23099999994,
      "d": 279.0992499999993,
      "v": 11
    },
    {
      "midi": 52,
      "hit": false,
      "t": 69653.46499999994,
      "d": 279.0992499999993,
      "v": 11
    },
    {
      "midi": 56,
      "hit": false,
      "t": 69653.46499999994,
      "d": 279.0992499999993,
      "v": 11
    },
    {
      "midi": 64,
      "hit": false,
      "t": 69653.46499999994,
      "d": 279.0992499999993,
      "v": 11
    },
    {
      "midi": 56,
      "hit": false,
      "t": 69944.69899999994,
      "d": 2317.7372500000056,
      "v": 11
    },
    {
      "midi": 60,
      "hit": false,
      "t": 69944.69899999994,
      "d": 2317.7372500000056,
      "v": 11
    },
    {
      "midi": 68,
      "hit": false,
      "t": 69944.69899999994,
      "d": 2317.7372500000056,
      "v": 11
    },
    {
      "midi": 54,
      "hit": false,
      "t": 72565.80499999993,
      "d": 861.5672499999928,
      "v": 11
    },
    {
      "midi": 63,
      "hit": false,
      "t": 72565.80499999993,
      "d": 861.5672499999928,
      "v": 11
    },
    {
      "midi": 66,
      "hit": false,
      "t": 72565.80499999993,
      "d": 861.5672499999928,
      "v": 11
    },
    {
      "midi": 52,
      "hit": false,
      "t": 73439.50699999993,
      "d": 570.333249999996,
      "v": 11
    },
    {
      "midi": 61,
      "hit": false,
      "t": 73439.50699999993,
      "d": 570.333249999996,
      "v": 11
    },
    {
      "midi": 64,
      "hit": false,
      "t": 73439.50699999993,
      "d": 570.333249999996,
      "v": 11
    },
    {
      "midi": 56,
      "hit": false,
      "t": 74021.97499999992,
      "d": 2900.205249999999,
      "v": 11
    },
    {
      "midi": 64,
      "hit": false,
      "t": 74021.97499999992,
      "d": 2900.205249999999,
      "v": 11
    },
    {
      "midi": 68,
      "hit": false,
      "t": 74021.97499999992,
      "d": 2900.205249999999,
      "v": 11
    },
    {
      "midi": 54,
      "hit": false,
      "t": 77225.54899999991,
      "d": 861.5672499999928,
      "v": 11
    },
    {
      "midi": 57,
      "hit": false,
      "t": 77225.54899999991,
      "d": 861.5672499999928,
      "v": 11
    },
    {
      "midi": 66,
      "hit": false,
      "t": 77225.54899999991,
      "d": 861.5672499999928,
      "v": 11
    },
    {
      "midi": 52,
      "hit": false,
      "t": 78099.2509999999,
      "d": 570.333249999996,
      "v": 11
    },
    {
      "midi": 57,
      "hit": false,
      "t": 78099.2509999999,
      "d": 570.333249999996,
      "v": 11
    },
    {
      "midi": 64,
      "hit": false,
      "t": 78099.2509999999,
      "d": 570.333249999996,
      "v": 11
    },
    {
      "midi": 59,
      "hit": false,
      "t": 78681.7189999999,
      "d": 1735.2692499999976,
      "v": 11
    },
    {
      "midi": 64,
      "hit": false,
      "t": 78681.7189999999,
      "d": 1735.2692499999976,
      "v": 11
    },
    {
      "midi": 71,
      "hit": false,
      "t": 78681.7189999999,
      "d": 1735.2692499999976,
      "v": 11
    },
    {
      "midi": 57,
      "hit": false,
      "t": 80429.12299999989,
      "d": 279.0992499999993,
      "v": 11
    },
    {
      "midi": 66,
      "hit": false,
      "t": 80429.12299999989,
      "d": 279.0992499999993,
      "v": 11
    },
    {
      "midi": 69,
      "hit": false,
      "t": 80429.12299999989,
      "d": 279.0992499999993,
      "v": 11
    },
    {
      "midi": 56,
      "hit": false,
      "t": 80720.35699999989,
      "d": 279.0992499999993,
      "v": 11
    },
    {
      "midi": 64,
      "hit": false,
      "t": 80720.35699999989,
      "d": 279.0992499999993,
      "v": 11
    },
    {
      "midi": 68,
      "hit": false,
      "t": 80720.35699999989,
      "d": 279.0992499999993,
      "v": 11
    },
    {
      "midi": 54,
      "hit": false,
      "t": 81011.59099999988,
      "d": 279.0992499999993,
      "v": 11
    },
    {
      "midi": 63,
      "hit": false,
      "t": 81011.59099999988,
      "d": 279.0992499999993,
      "v": 11
    },
    {
      "midi": 66,
      "hit": false,
      "t": 81011.59099999988,
      "d": 279.0992499999993,
      "v": 11
    },
    {
      "midi": 52,
      "hit": false,
      "t": 81302.82499999988,
      "d": 279.0992499999993,
      "v": 11
    },
    {
      "midi": 61,
      "hit": false,
      "t": 81302.82499999988,
      "d": 279.0992499999993,
      "v": 11
    },
    {
      "midi": 64,
      "hit": false,
      "t": 81302.82499999988,
      "d": 279.0992499999993,
      "v": 11
    },
    {
      "midi": 56,
      "hit": false,
      "t": 81594.05899999988,
      "d": 2317.7372500000056,
      "v": 11
    },
    {
      "midi": 63,
      "hit": false,
      "t": 81594.05899999988,
      "d": 2317.7372500000056,
      "v": 11
    },
    {
      "midi": 68,
      "hit": false,
      "t": 81594.05899999988,
      "d": 2317.7372500000056,
      "v": 11
    },
    {
      "midi": 56,
      "hit": false,
      "t": 85380.10099999988,
      "d": 279.0992499999993,
      "v": 11
    },
    {
      "midi": 64,
      "hit": false,
      "t": 85380.10099999988,
      "d": 279.0992499999993,
      "v": 11
    },
    {
      "midi": 68,
      "hit": false,
      "t": 85380.10099999988,
      "d": 279.0992499999993,
      "v": 11
    },
    {
      "midi": 51,
      "hit": false,
      "t": 85671.33499999988,
      "d": 279.0992499999993,
      "v": 11
    },
    {
      "midi": 59,
      "hit": false,
      "t": 85671.33499999988,
      "d": 279.0992499999993,
      "v": 11
    },
    {
      "midi": 63,
      "hit": false,
      "t": 85671.33499999988,
      "d": 279.0992499999993,
      "v": 11
    },
    {
      "midi": 52,
      "hit": false,
      "t": 85962.56899999987,
      "d": 1444.0352500000008,
      "v": 11
    },
    {
      "midi": 59,
      "hit": false,
      "t": 85962.56899999987,
      "d": 1444.0352500000008,
      "v": 11
    },
    {
      "midi": 64,
      "hit": false,
      "t": 85962.56899999987,
      "d": 1444.0352500000008,
      "v": 11
    },
    {
      "midi": 56,
      "hit": false,
      "t": 90039.84499999987,
      "d": 279.0992499999993,
      "v": 11
    },
    {
      "midi": 64,
      "hit": false,
      "t": 90039.84499999987,
      "d": 279.0992499999993,
      "v": 11
    },
    {
      "midi": 68,
      "hit": false,
      "t": 90039.84499999987,
      "d": 279.0992499999993,
      "v": 11
    },
    {
      "midi": 51,
      "hit": false,
      "t": 90331.07899999987,
      "d": 279.0992499999993,
      "v": 11
    },
    {
      "midi": 59,
      "hit": false,
      "t": 90331.07899999987,
      "d": 279.0992499999993,
      "v": 11
    },
    {
      "midi": 63,
      "hit": false,
      "t": 90331.07899999987,
      "d": 279.0992499999993,
      "v": 11
    },
    {
      "midi": 52,
      "hit": false,
      "t": 90622.31299999986,
      "d": 1444.0352500000008,
      "v": 11
    },
    {
      "midi": 59,
      "hit": false,
      "t": 90622.31299999986,
      "d": 1444.0352500000008,
      "v": 11
    },
    {
      "midi": 64,
      "hit": false,
      "t": 90622.31299999986,
      "d": 1444.0352500000008,
      "v": 11
    },
    {
      "midi": 58,
      "hit": false,
      "t": 93243.41899999986,
      "d": 279.0992499999993,
      "v": 11
    },
    {
      "midi": 61,
      "hit": false,
      "t": 93243.41899999986,
      "d": 279.0992499999993,
      "v": 11
    },
    {
      "midi": 73,
      "hit": false,
      "t": 93243.41899999986,
      "d": 279.0992499999993,
      "v": 11
    },
    {
      "midi": 59,
      "hit": false,
      "t": 93534.65299999986,
      "d": 2026.5032499999943,
      "v": 11
    },
    {
      "midi": 63,
      "hit": false,
      "t": 93534.65299999986,
      "d": 2026.5032499999943,
      "v": 11
    },
    {
      "midi": 75,
      "hit": false,
      "t": 93534.65299999986,
      "d": 2026.5032499999943,
      "v": 11
    },
    {
      "midi": 58,
      "hit": false,
      "t": 95573.29099999985,
      "d": 279.0992499999993,
      "v": 11
    },
    {
      "midi": 61,
      "hit": false,
      "t": 95573.29099999985,
      "d": 279.0992499999993,
      "v": 11
    },
    {
      "midi": 73,
      "hit": false,
      "t": 95573.29099999985,
      "d": 279.0992499999993,
      "v": 11
    },
    {
      "midi": 59,
      "hit": false,
      "t": 95864.52499999985,
      "d": 861.5672499999928,
      "v": 11
    },
    {
      "midi": 63,
      "hit": false,
      "t": 95864.52499999985,
      "d": 861.5672499999928,
      "v": 11
    },
    {
      "midi": 75,
      "hit": false,
      "t": 95864.52499999985,
      "d": 861.5672499999928,
      "v": 11
    },
    {
      "midi": 58,
      "hit": false,
      "t": 96738.22699999984,
      "d": 279.0992499999993,
      "v": 11
    },
    {
      "midi": 61,
      "hit": false,
      "t": 96738.22699999984,
      "d": 279.0992499999993,
      "v": 11
    },
    {
      "midi": 73,
      "hit": false,
      "t": 96738.22699999984,
      "d": 279.0992499999993,
      "v": 11
    },
    {
      "midi": 59,
      "hit": false,
      "t": 97029.46099999984,
      "d": 861.5672499999928,
      "v": 11
    },
    {
      "midi": 63,
      "hit": false,
      "t": 97029.46099999984,
      "d": 861.5672499999928,
      "v": 11
    },
    {
      "midi": 75,
      "hit": false,
      "t": 97029.46099999984,
      "d": 861.5672499999928,
      "v": 11
    },
    {
      "midi": 58,
      "hit": false,
      "t": 97903.16299999983,
      "d": 279.0992499999993,
      "v": 11
    },
    {
      "midi": 61,
      "hit": false,
      "t": 97903.16299999983,
      "d": 279.0992499999993,
      "v": 11
    },
    {
      "midi": 73,
      "hit": false,
      "t": 97903.16299999983,
      "d": 279.0992499999993,
      "v": 11
    },
    {
      "midi": 59,
      "hit": false,
      "t": 98194.39699999982,
      "d": 2026.5032499999943,
      "v": 11
    },
    {
      "midi": 63,
      "hit": false,
      "t": 98194.39699999982,
      "d": 2026.5032499999943,
      "v": 11
    },
    {
      "midi": 75,
      "hit": false,
      "t": 98194.39699999982,
      "d": 2026.5032499999943,
      "v": 11
    },
    {
      "midi": 58,
      "hit": false,
      "t": 100233.03499999981,
      "d": 279.0992499999993,
      "v": 11
    },
    {
      "midi": 61,
      "hit": false,
      "t": 100233.03499999981,
      "d": 279.0992499999993,
      "v": 11
    },
    {
      "midi": 73,
      "hit": false,
      "t": 100233.03499999981,
      "d": 279.0992499999993,
      "v": 11
    },
    {
      "midi": 56,
      "hit": false,
      "t": 100524.26899999981,
      "d": 861.5672500000073,
      "v": 11
    },
    {
      "midi": 59,
      "hit": false,
      "t": 100524.26899999981,
      "d": 861.5672500000073,
      "v": 11
    },
    {
      "midi": 71,
      "hit": false,
      "t": 100524.26899999981,
      "d": 861.5672500000073,
      "v": 11
    },
    {
      "midi": 58,
      "hit": false,
      "t": 101397.97099999982,
      "d": 279.0992499999993,
      "v": 11
    },
    {
      "midi": 61,
      "hit": false,
      "t": 101397.97099999982,
      "d": 279.0992499999993,
      "v": 11
    },
    {
      "midi": 73,
      "hit": false,
      "t": 101397.97099999982,
      "d": 279.0992499999993,
      "v": 11
    },
    {
      "midi": 56,
      "hit": false,
      "t": 101689.20499999981,
      "d": 1152.801250000004,
      "v": 11
    },
    {
      "midi": 59,
      "hit": false,
      "t": 101689.20499999981,
      "d": 1152.801250000004,
      "v": 11
    },
    {
      "midi": 71,
      "hit": false,
      "t": 101689.20499999981,
      "d": 1152.801250000004,
      "v": 11
    },
    {
      "midi": 54,
      "hit": false,
      "t": 102854.14099999981,
      "d": 2026.5032499999943,
      "v": 11
    },
    {
      "midi": 58,
      "hit": false,
      "t": 102854.14099999981,
      "d": 2026.5032499999943,
      "v": 11
    },
    {
      "midi": 70,
      "hit": false,
      "t": 102854.14099999981,
      "d": 2026.5032499999943,
      "v": 11
    },
    {
      "midi": 56,
      "hit": false,
      "t": 104892.7789999998,
      "d": 279.0992499999993,
      "v": 11
    },
    {
      "midi": 59,
      "hit": false,
      "t": 104892.7789999998,
      "d": 279.0992499999993,
      "v": 11
    },
    {
      "midi": 71,
      "hit": false,
      "t": 104892.7789999998,
      "d": 279.0992499999993,
      "v": 11
    },
    {
      "midi": 54,
      "hit": false,
      "t": 105184.0129999998,
      "d": 2317.7372500000056,
      "v": 11
    },
    {
      "midi": 58,
      "hit": false,
      "t": 105184.0129999998,
      "d": 2317.7372500000056,
      "v": 11
    },
    {
      "midi": 70,
      "hit": false,
      "t": 105184.0129999998,
      "d": 2317.7372500000056,
      "v": 11
    },
    {
      "midi": 56,
      "hit": false,
      "t": 107513.8849999998,
      "d": 1589.6522499999992,
      "v": 11
    },
    {
      "midi": 59,
      "hit": false,
      "t": 107513.8849999998,
      "d": 1589.6522499999992,
      "v": 11
    },
    {
      "midi": 71,
      "hit": false,
      "t": 107513.8849999998,
      "d": 1589.6522499999992,
      "v": 11
    },
    {
      "midi": 56,
      "hit": false,
      "t": 120328.18099999981,
      "d": 279.0992499999993,
      "v": 11
    },
    {
      "midi": 59,
      "hit": false,
      "t": 120328.18099999981,
      "d": 279.0992499999993,
      "v": 11
    },
    {
      "midi": 68,
      "hit": false,
      "t": 120328.18099999981,
      "d": 279.0992499999993,
      "v": 11
    },
    {
      "midi": 51,
      "hit": false,
      "t": 120619.4149999998,
      "d": 279.0992499999993,
      "v": 11
    },
    {
      "midi": 54,
      "hit": false,
      "t": 120619.4149999998,
      "d": 279.0992499999993,
      "v": 11
    },
    {
      "midi": 63,
      "hit": false,
      "t": 120619.4149999998,
      "d": 279.0992499999993,
      "v": 11
    },
    {
      "midi": 52,
      "hit": false,
      "t": 120910.6489999998,
      "d": 1735.2692499999976,
      "v": 11
    },
    {
      "midi": 56,
      "hit": false,
      "t": 120910.6489999998,
      "d": 1735.2692499999976,
      "v": 11
    },
    {
      "midi": 64,
      "hit": false,
      "t": 120910.6489999998,
      "d": 1735.2692499999976,
      "v": 11
    },
    {
      "midi": 56,
      "hit": false,
      "t": 122658.0529999998,
      "d": 279.0992499999993,
      "v": 11
    },
    {
      "midi": 64,
      "hit": false,
      "t": 122658.0529999998,
      "d": 279.0992499999993,
      "v": 11
    },
    {
      "midi": 68,
      "hit": false,
      "t": 122658.0529999998,
      "d": 279.0992499999993,
      "v": 11
    },
    {
      "midi": 51,
      "hit": false,
      "t": 122949.2869999998,
      "d": 279.0992499999993,
      "v": 11
    },
    {
      "midi": 59,
      "hit": false,
      "t": 122949.2869999998,
      "d": 279.0992499999993,
      "v": 11
    },
    {
      "midi": 63,
      "hit": false,
      "t": 122949.2869999998,
      "d": 279.0992499999993,
      "v": 11
    },
    {
      "midi": 52,
      "hit": false,
      "t": 123240.52099999979,
      "d": 279.0992499999993,
      "v": 11
    },
    {
      "midi": 61,
      "hit": false,
      "t": 123240.52099999979,
      "d": 279.0992499999993,
      "v": 11
    },
    {
      "midi": 64,
      "hit": false,
      "t": 123240.52099999979,
      "d": 279.0992499999993,
      "v": 11
    },
    {
      "midi": 56,
      "hit": false,
      "t": 123531.75499999979,
      "d": 2317.7372500000056,
      "v": 11
    },
    {
      "midi": 60,
      "hit": false,
      "t": 123531.75499999979,
      "d": 2317.7372500000056,
      "v": 11
    },
    {
      "midi": 68,
      "hit": false,
      "t": 123531.75499999979,
      "d": 2317.7372500000056,
      "v": 11
    },
    {
      "midi": 54,
      "hit": false,
      "t": 126152.86099999979,
      "d": 861.5672500000073,
      "v": 11
    },
    {
      "midi": 63,
      "hit": false,
      "t": 126152.86099999979,
      "d": 861.5672500000073,
      "v": 11
    },
    {
      "midi": 66,
      "hit": false,
      "t": 126152.86099999979,
      "d": 861.5672500000073,
      "v": 11
    },
    {
      "midi": 52,
      "hit": false,
      "t": 127026.56299999979,
      "d": 570.333249999996,
      "v": 11
    },
    {
      "midi": 61,
      "hit": false,
      "t": 127026.56299999979,
      "d": 570.333249999996,
      "v": 11
    },
    {
      "midi": 64,
      "hit": false,
      "t": 127026.56299999979,
      "d": 570.333249999996,
      "v": 11
    },
    {
      "midi": 56,
      "hit": false,
      "t": 127609.03099999978,
      "d": 2900.205249999999,
      "v": 11
    },
    {
      "midi": 64,
      "hit": false,
      "t": 127609.03099999978,
      "d": 2900.205249999999,
      "v": 11
    },
    {
      "midi": 68,
      "hit": false,
      "t": 127609.03099999978,
      "d": 2900.205249999999,
      "v": 11
    },
    {
      "midi": 54,
      "hit": false,
      "t": 130812.60499999978,
      "d": 861.5672499999928,
      "v": 11
    },
    {
      "midi": 57,
      "hit": false,
      "t": 130812.60499999978,
      "d": 861.5672499999928,
      "v": 11
    },
    {
      "midi": 66,
      "hit": false,
      "t": 130812.60499999978,
      "d": 861.5672499999928,
      "v": 11
    },
    {
      "midi": 52,
      "hit": false,
      "t": 131686.30699999977,
      "d": 570.333249999996,
      "v": 11
    },
    {
      "midi": 57,
      "hit": false,
      "t": 131686.30699999977,
      "d": 570.333249999996,
      "v": 11
    },
    {
      "midi": 64,
      "hit": false,
      "t": 131686.30699999977,
      "d": 570.333249999996,
      "v": 11
    },
    {
      "midi": 59,
      "hit": false,
      "t": 132268.77499999976,
      "d": 2026.5032500000088,
      "v": 11
    },
    {
      "midi": 64,
      "hit": false,
      "t": 132268.77499999976,
      "d": 2026.5032500000088,
      "v": 11
    },
    {
      "midi": 71,
      "hit": false,
      "t": 132268.77499999976,
      "d": 2026.5032500000088,
      "v": 11
    },
    {
      "midi": 56,
      "hit": false,
      "t": 134307.41299999977,
      "d": 279.0992499999993,
      "v": 11
    },
    {
      "midi": 64,
      "hit": false,
      "t": 134307.41299999977,
      "d": 279.0992499999993,
      "v": 11
    },
    {
      "midi": 68,
      "hit": false,
      "t": 134307.41299999977,
      "d": 279.0992499999993,
      "v": 11
    },
    {
      "midi": 51,
      "hit": false,
      "t": 134598.64699999976,
      "d": 279.0992499999993,
      "v": 11
    },
    {
      "midi": 54,
      "hit": false,
      "t": 134598.64699999976,
      "d": 279.0992499999993,
      "v": 11
    },
    {
      "midi": 63,
      "hit": false,
      "t": 134598.64699999976,
      "d": 279.0992499999993,
      "v": 11
    },
    {
      "midi": 52,
      "hit": false,
      "t": 134889.88099999976,
      "d": 279.0992499999993,
      "v": 11
    },
    {
      "midi": 56,
      "hit": false,
      "t": 134889.88099999976,
      "d": 279.0992499999993,
      "v": 11
    },
    {
      "midi": 64,
      "hit": false,
      "t": 134889.88099999976,
      "d": 279.0992499999993,
      "v": 11
    },
    {
      "midi": 56,
      "hit": false,
      "t": 135181.11499999976,
      "d": 1735.269250000012,
      "v": 11
    },
    {
      "midi": 64,
      "hit": false,
      "t": 135181.11499999976,
      "d": 1735.269250000012,
      "v": 11
    },
    {
      "midi": 68,
      "hit": false,
      "t": 135181.11499999976,
      "d": 1735.269250000012,
      "v": 11
    },
    {
      "midi": 61,
      "hit": false,
      "t": 135181.11499999976,
      "d": 2317.7372500000056,
      "v": 11
    },
    {
      "midi": 51,
      "hit": false,
      "t": 136928.51899999977,
      "d": 279.0992499999993,
      "v": 11
    },
    {
      "midi": 54,
      "hit": false,
      "t": 136928.51899999977,
      "d": 279.0992499999993,
      "v": 11
    },
    {
      "midi": 63,
      "hit": false,
      "t": 136928.51899999977,
      "d": 279.0992499999993,
      "v": 11
    },
    {
      "midi": 52,
      "hit": false,
      "t": 137219.75299999976,
      "d": 279.0992499999993,
      "v": 11
    },
    {
      "midi": 56,
      "hit": false,
      "t": 137219.75299999976,
      "d": 279.0992499999993,
      "v": 11
    },
    {
      "midi": 64,
      "hit": false,
      "t": 137219.75299999976,
      "d": 279.0992499999993,
      "v": 11
    },
    {
      "midi": 56,
      "hit": false,
      "t": 137510.98699999976,
      "d": 2317.7372500000056,
      "v": 11
    },
    {
      "midi": 60,
      "hit": false,
      "t": 137510.98699999976,
      "d": 2317.7372500000056,
      "v": 11
    },
    {
      "midi": 63,
      "hit": false,
      "t": 137510.98699999976,
      "d": 2317.7372500000056,
      "v": 11
    },
    {
      "midi": 68,
      "hit": false,
      "t": 137510.98699999976,
      "d": 2317.7372500000056,
      "v": 11
    },
    {
      "midi": 54,
      "hit": false,
      "t": 140132.09299999976,
      "d": 861.5672499999928,
      "v": 11
    },
    {
      "midi": 63,
      "hit": false,
      "t": 140132.09299999976,
      "d": 861.5672499999928,
      "v": 11
    },
    {
      "midi": 66,
      "hit": false,
      "t": 140132.09299999976,
      "d": 861.5672499999928,
      "v": 11
    },
    {
      "midi": 52,
      "hit": false,
      "t": 141005.79499999975,
      "d": 570.333249999996,
      "v": 11
    },
    {
      "midi": 61,
      "hit": false,
      "t": 141005.79499999975,
      "d": 570.333249999996,
      "v": 11
    },
    {
      "midi": 64,
      "hit": false,
      "t": 141005.79499999975,
      "d": 570.333249999996,
      "v": 11
    },
    {
      "midi": 56,
      "hit": false,
      "t": 141588.26299999974,
      "d": 2900.205249999999,
      "v": 11
    },
    {
      "midi": 64,
      "hit": false,
      "t": 141588.26299999974,
      "d": 2900.205249999999,
      "v": 11
    },
    {
      "midi": 68,
      "hit": false,
      "t": 141588.26299999974,
      "d": 2900.205249999999,
      "v": 11
    },
    {
      "midi": 54,
      "hit": false,
      "t": 144791.83699999974,
      "d": 861.5672499999928,
      "v": 11
    },
    {
      "midi": 57,
      "hit": false,
      "t": 144791.83699999974,
      "d": 861.5672499999928,
      "v": 11
    },
    {
      "midi": 66,
      "hit": false,
      "t": 144791.83699999974,
      "d": 861.5672499999928,
      "v": 11
    },
    {
      "midi": 52,
      "hit": false,
      "t": 145665.53899999973,
      "d": 570.333249999996,
      "v": 11
    },
    {
      "midi": 57,
      "hit": false,
      "t": 145665.53899999973,
      "d": 570.333249999996,
      "v": 11
    },
    {
      "midi": 64,
      "hit": false,
      "t": 145665.53899999973,
      "d": 570.333249999996,
      "v": 11
    },
    {
      "midi": 64,
      "hit": false,
      "t": 146248.00699999972,
      "d": 570.333249999996,
      "v": 11
    },
    {
      "midi": 59,
      "hit": false,
      "t": 146248.00699999972,
      "d": 1735.269249999983,
      "v": 11
    },
    {
      "midi": 71,
      "hit": false,
      "t": 146248.00699999972,
      "d": 1735.269249999983,
      "v": 11
    },
    {
      "midi": 57,
      "hit": false,
      "t": 147995.4109999997,
      "d": 279.0992499999993,
      "v": 11
    },
    {
      "midi": 66,
      "hit": false,
      "t": 147995.4109999997,
      "d": 279.0992499999993,
      "v": 11
    },
    {
      "midi": 69,
      "hit": false,
      "t": 147995.4109999997,
      "d": 279.0992499999993,
      "v": 11
    },
    {
      "midi": 56,
      "hit": false,
      "t": 148286.6449999997,
      "d": 279.0992499999993,
      "v": 11
    },
    {
      "midi": 64,
      "hit": false,
      "t": 148286.6449999997,
      "d": 279.0992499999993,
      "v": 11
    },
    {
      "midi": 68,
      "hit": false,
      "t": 148286.6449999997,
      "d": 279.0992499999993,
      "v": 11
    },
    {
      "midi": 54,
      "hit": false,
      "t": 148577.8789999997,
      "d": 279.0992499999993,
      "v": 11
    },
    {
      "midi": 63,
      "hit": false,
      "t": 148577.8789999997,
      "d": 279.0992499999993,
      "v": 11
    },
    {
      "midi": 66,
      "hit": false,
      "t": 148577.8789999997,
      "d": 279.0992499999993,
      "v": 11
    },
    {
      "midi": 52,
      "hit": false,
      "t": 148869.1129999997,
      "d": 279.0992499999993,
      "v": 11
    },
    {
      "midi": 61,
      "hit": false,
      "t": 148869.1129999997,
      "d": 279.0992499999993,
      "v": 11
    },
    {
      "midi": 64,
      "hit": false,
      "t": 148869.1129999997,
      "d": 279.0992499999993,
      "v": 11
    },
    {
      "midi": 56,
      "hit": false,
      "t": 149160.3469999997,
      "d": 1735.269250000012,
      "v": 11
    },
    {
      "midi": 64,
      "hit": false,
      "t": 149160.3469999997,
      "d": 1735.269250000012,
      "v": 11
    },
    {
      "midi": 68,
      "hit": false,
      "t": 149160.3469999997,
      "d": 1735.269250000012,
      "v": 11
    },
    {
      "midi": 51,
      "hit": false,
      "t": 150907.7509999997,
      "d": 279.0992499999993,
      "v": 11
    },
    {
      "midi": 59,
      "hit": false,
      "t": 150907.7509999997,
      "d": 279.0992499999993,
      "v": 11
    },
    {
      "midi": 63,
      "hit": false,
      "t": 150907.7509999997,
      "d": 279.0992499999993,
      "v": 11
    },
    {
      "midi": 52,
      "hit": false,
      "t": 151198.9849999997,
      "d": 279.0992499999993,
      "v": 11
    },
    {
      "midi": 61,
      "hit": false,
      "t": 151198.9849999997,
      "d": 279.0992499999993,
      "v": 11
    },
    {
      "midi": 64,
      "hit": false,
      "t": 151198.9849999997,
      "d": 279.0992499999993,
      "v": 11
    },
    {
      "midi": 56,
      "hit": false,
      "t": 152946.3889999997,
      "d": 279.0992499999993,
      "v": 11
    },
    {
      "midi": 64,
      "hit": false,
      "t": 152946.3889999997,
      "d": 279.0992499999993,
      "v": 11
    },
    {
      "midi": 68,
      "hit": false,
      "t": 152946.3889999997,
      "d": 279.0992499999993,
      "v": 11
    },
    {
      "midi": 51,
      "hit": false,
      "t": 153237.6229999997,
      "d": 279.0992499999993,
      "v": 11
    },
    {
      "midi": 59,
      "hit": false,
      "t": 153237.6229999997,
      "d": 279.0992499999993,
      "v": 11
    },
    {
      "midi": 63,
      "hit": false,
      "t": 153237.6229999997,
      "d": 279.0992499999993,
      "v": 11
    },
    {
      "midi": 52,
      "hit": false,
      "t": 153528.8569999997,
      "d": 570.333249999996,
      "v": 11
    },
    {
      "midi": 61,
      "hit": false,
      "t": 153528.8569999997,
      "d": 570.333249999996,
      "v": 11
    },
    {
      "midi": 64,
      "hit": false,
      "t": 153528.8569999997,
      "d": 570.333249999996,
      "v": 11
    },
    {
      "midi": 54,
      "hit": false,
      "t": 154111.3249999997,
      "d": 861.5672499999928,
      "v": 11
    },
    {
      "midi": 63,
      "hit": false,
      "t": 154111.3249999997,
      "d": 861.5672499999928,
      "v": 11
    },
    {
      "midi": 66,
      "hit": false,
      "t": 154111.3249999997,
      "d": 861.5672499999928,
      "v": 11
    },
    {
      "midi": 52,
      "hit": false,
      "t": 154985.02699999968,
      "d": 570.333249999996,
      "v": 11
    },
    {
      "midi": 61,
      "hit": false,
      "t": 154985.02699999968,
      "d": 570.333249999996,
      "v": 11
    },
    {
      "midi": 64,
      "hit": false,
      "t": 154985.02699999968,
      "d": 570.333249999996,
      "v": 11
    },
    {
      "midi": 56,
      "hit": false,
      "t": 155567.49499999968,
      "d": 2900.205249999999,
      "v": 11
    },
    {
      "midi": 64,
      "hit": false,
      "t": 155567.49499999968,
      "d": 2900.205249999999,
      "v": 11
    },
    {
      "midi": 68,
      "hit": false,
      "t": 155567.49499999968,
      "d": 2900.205249999999,
      "v": 11
    },
    {
      "midi": 54,
      "hit": false,
      "t": 158771.06899999967,
      "d": 861.5672499999928,
      "v": 11
    },
    {
      "midi": 57,
      "hit": false,
      "t": 158771.06899999967,
      "d": 861.5672499999928,
      "v": 11
    },
    {
      "midi": 66,
      "hit": false,
      "t": 158771.06899999967,
      "d": 861.5672499999928,
      "v": 11
    },
    {
      "midi": 52,
      "hit": false,
      "t": 159644.77099999966,
      "d": 570.333249999996,
      "v": 11
    },
    {
      "midi": 57,
      "hit": false,
      "t": 159644.77099999966,
      "d": 570.333249999996,
      "v": 11
    },
    {
      "midi": 64,
      "hit": false,
      "t": 159644.77099999966,
      "d": 570.333249999996,
      "v": 11
    },
    {
      "midi": 64,
      "hit": false,
      "t": 160227.23899999965,
      "d": 570.333249999996,
      "v": 11
    },
    {
      "midi": 59,
      "hit": false,
      "t": 160227.23899999965,
      "d": 1735.269249999983,
      "v": 11
    },
    {
      "midi": 71,
      "hit": false,
      "t": 160227.23899999965,
      "d": 1735.269249999983,
      "v": 11
    },
    {
      "midi": 68,
      "hit": false,
      "t": 160809.70699999965,
      "d": 1152.8012499999895,
      "v": 11
    },
    {
      "midi": 57,
      "hit": false,
      "t": 161974.64299999963,
      "d": 279.0992499999993,
      "v": 11
    },
    {
      "midi": 66,
      "hit": false,
      "t": 161974.64299999963,
      "d": 279.0992499999993,
      "v": 11
    },
    {
      "midi": 69,
      "hit": false,
      "t": 161974.64299999963,
      "d": 279.0992499999993,
      "v": 11
    },
    {
      "midi": 56,
      "hit": false,
      "t": 162265.87699999963,
      "d": 279.0992499999993,
      "v": 11
    },
    {
      "midi": 64,
      "hit": false,
      "t": 162265.87699999963,
      "d": 279.0992499999993,
      "v": 11
    },
    {
      "midi": 68,
      "hit": false,
      "t": 162265.87699999963,
      "d": 279.0992499999993,
      "v": 11
    },
    {
      "midi": 54,
      "hit": false,
      "t": 162557.11099999963,
      "d": 279.0992499999993,
      "v": 11
    },
    {
      "midi": 63,
      "hit": false,
      "t": 162557.11099999963,
      "d": 279.0992499999993,
      "v": 11
    },
    {
      "midi": 66,
      "hit": false,
      "t": 162557.11099999963,
      "d": 279.0992499999993,
      "v": 11
    },
    {
      "midi": 52,
      "hit": false,
      "t": 167508.08899999963,
      "d": 279.0992499999993,
      "v": 11
    },
    {
      "midi": 61,
      "hit": false,
      "t": 167508.08899999963,
      "d": 279.0992499999993,
      "v": 11
    },
    {
      "midi": 64,
      "hit": false,
      "t": 167508.08899999963,
      "d": 279.0992499999993,
      "v": 11
    },
    {
      "midi": 57,
      "hit": false,
      "t": 167799.32299999963,
      "d": 279.0992499999993,
      "v": 11
    },
    {
      "midi": 66,
      "hit": false,
      "t": 167799.32299999963,
      "d": 279.0992499999993,
      "v": 11
    },
    {
      "midi": 69,
      "hit": false,
      "t": 167799.32299999963,
      "d": 279.0992499999993,
      "v": 11
    },
    {
      "midi": 56,
      "hit": false,
      "t": 168090.55699999962,
      "d": 279.0992499999993,
      "v": 11
    },
    {
      "midi": 64,
      "hit": false,
      "t": 168090.55699999962,
      "d": 279.0992499999993,
      "v": 11
    },
    {
      "midi": 68,
      "hit": false,
      "t": 168090.55699999962,
      "d": 279.0992499999993,
      "v": 11
    },
    {
      "midi": 54,
      "hit": false,
      "t": 168381.79099999962,
      "d": 279.0992499999993,
      "v": 11
    },
    {
      "midi": 63,
      "hit": false,
      "t": 168381.79099999962,
      "d": 279.0992499999993,
      "v": 11
    },
    {
      "midi": 66,
      "hit": false,
      "t": 168381.79099999962,
      "d": 279.0992499999993,
      "v": 11
    },
    {
      "midi": 52,
      "hit": false,
      "t": 168673.02499999962,
      "d": 279.0992499999993,
      "v": 11
    },
    {
      "midi": 61,
      "hit": false,
      "t": 168673.02499999962,
      "d": 279.0992499999993,
      "v": 11
    },
    {
      "midi": 64,
      "hit": false,
      "t": 168673.02499999962,
      "d": 279.0992499999993,
      "v": 11
    },
    {
      "midi": 57,
      "hit": false,
      "t": 168964.2589999996,
      "d": 279.0992499999993,
      "v": 11
    },
    {
      "midi": 66,
      "hit": false,
      "t": 168964.2589999996,
      "d": 279.0992499999993,
      "v": 11
    },
    {
      "midi": 69,
      "hit": false,
      "t": 168964.2589999996,
      "d": 279.0992499999993,
      "v": 11
    },
    {
      "midi": 56,
      "hit": false,
      "t": 169255.4929999996,
      "d": 279.0992499999993,
      "v": 11
    },
    {
      "midi": 64,
      "hit": false,
      "t": 169255.4929999996,
      "d": 279.0992499999993,
      "v": 11
    },
    {
      "midi": 68,
      "hit": false,
      "t": 169255.4929999996,
      "d": 279.0992499999993,
      "v": 11
    },
    {
      "midi": 54,
      "hit": false,
      "t": 169546.7269999996,
      "d": 279.0992499999993,
      "v": 11
    },
    {
      "midi": 63,
      "hit": false,
      "t": 169546.7269999996,
      "d": 279.0992499999993,
      "v": 11
    },
    {
      "midi": 66,
      "hit": false,
      "t": 169546.7269999996,
      "d": 279.0992499999993,
      "v": 11
    },
    {
      "midi": 52,
      "hit": false,
      "t": 169837.9609999996,
      "d": 279.0992499999993,
      "v": 11
    },
    {
      "midi": 61,
      "hit": false,
      "t": 169837.9609999996,
      "d": 279.0992499999993,
      "v": 11
    },
    {
      "midi": 64,
      "hit": false,
      "t": 169837.9609999996,
      "d": 279.0992499999993,
      "v": 11
    },
    {
      "midi": 57,
      "hit": false,
      "t": 170129.1949999996,
      "d": 279.0992499999993,
      "v": 11
    },
    {
      "midi": 66,
      "hit": false,
      "t": 170129.1949999996,
      "d": 279.0992499999993,
      "v": 11
    },
    {
      "midi": 69,
      "hit": false,
      "t": 170129.1949999996,
      "d": 279.0992499999993,
      "v": 11
    },
    {
      "midi": 56,
      "hit": false,
      "t": 170420.4289999996,
      "d": 279.0992499999993,
      "v": 11
    },
    {
      "midi": 64,
      "hit": false,
      "t": 170420.4289999996,
      "d": 279.0992499999993,
      "v": 11
    },
    {
      "midi": 68,
      "hit": false,
      "t": 170420.4289999996,
      "d": 279.0992499999993,
      "v": 11
    },
    {
      "midi": 54,
      "hit": false,
      "t": 170711.6629999996,
      "d": 279.0992499999993,
      "v": 11
    },
    {
      "midi": 63,
      "hit": false,
      "t": 170711.6629999996,
      "d": 279.0992499999993,
      "v": 11
    },
    {
      "midi": 66,
      "hit": false,
      "t": 170711.6629999996,
      "d": 279.0992499999993,
      "v": 11
    },
    {
      "midi": 52,
      "hit": false,
      "t": 171002.8969999996,
      "d": 279.0992499999993,
      "v": 11
    },
    {
      "midi": 61,
      "hit": false,
      "t": 171002.8969999996,
      "d": 279.0992499999993,
      "v": 11
    },
    {
      "midi": 64,
      "hit": false,
      "t": 171002.8969999996,
      "d": 279.0992499999993,
      "v": 11
    },
    {
      "midi": 57,
      "hit": false,
      "t": 171294.1309999996,
      "d": 279.0992499999993,
      "v": 11
    },
    {
      "midi": 66,
      "hit": false,
      "t": 171294.1309999996,
      "d": 279.0992499999993,
      "v": 11
    },
    {
      "midi": 69,
      "hit": false,
      "t": 171294.1309999996,
      "d": 279.0992499999993,
      "v": 11
    },
    {
      "midi": 56,
      "hit": false,
      "t": 171585.36499999958,
      "d": 279.0992499999993,
      "v": 11
    },
    {
      "midi": 63,
      "hit": false,
      "t": 171585.36499999958,
      "d": 279.0992499999993,
      "v": 11
    },
    {
      "midi": 68,
      "hit": false,
      "t": 171585.36499999958,
      "d": 279.0992499999993,
      "v": 11
    },
    {
      "midi": 51,
      "hit": false,
      "t": 171876.59899999958,
      "d": 279.0992499999993,
      "v": 11
    },
    {
      "midi": 59,
      "hit": false,
      "t": 171876.59899999958,
      "d": 279.0992499999993,
      "v": 11
    },
    {
      "midi": 63,
      "hit": false,
      "t": 171876.59899999958,
      "d": 279.0992499999993,
      "v": 11
    },
    {
      "midi": 52,
      "hit": false,
      "t": 172167.83299999958,
      "d": 1735.269250000012,
      "v": 11
    },
    {
      "midi": 61,
      "hit": false,
      "t": 172167.83299999958,
      "d": 1735.269250000012,
      "v": 11
    },
    {
      "midi": 64,
      "hit": false,
      "t": 172167.83299999958,
      "d": 1735.269250000012,
      "v": 11
    },
    {
      "midi": 64,
      "hit": false,
      "t": 173915.2369999996,
      "d": 279.0992499999993,
      "v": 11
    },
    {
      "midi": 68,
      "hit": false,
      "t": 173915.2369999996,
      "d": 279.0992499999993,
      "v": 11
    },
    {
      "midi": 59,
      "hit": false,
      "t": 174206.47099999958,
      "d": 279.0992499999993,
      "v": 11
    },
    {
      "midi": 63,
      "hit": false,
      "t": 174206.47099999958,
      "d": 279.0992499999993,
      "v": 11
    },
    {
      "midi": 61,
      "hit": false,
      "t": 174497.70499999958,
      "d": 279.0992499999993,
      "v": 11
    },
    {
      "midi": 64,
      "hit": false,
      "t": 174497.70499999958,
      "d": 279.0992499999993,
      "v": 11
    },
    {
      "midi": 60,
      "hit": false,
      "t": 174788.93899999958,
      "d": 2317.7372500000056,
      "v": 11
    },
    {
      "midi": 68,
      "hit": false,
      "t": 174788.93899999958,
      "d": 2317.7372500000056,
      "v": 11
    },
    {
      "midi": 63,
      "hit": false,
      "t": 177410.04499999958,
      "d": 861.5672499999928,
      "v": 11
    },
    {
      "midi": 66,
      "hit": false,
      "t": 177410.04499999958,
      "d": 861.5672499999928,
      "v": 11
    },
    {
      "midi": 61,
      "hit": false,
      "t": 178283.74699999957,
      "d": 570.333249999996,
      "v": 11
    },
    {
      "midi": 64,
      "hit": false,
      "t": 178283.74699999957,
      "d": 570.333249999996,
      "v": 11
    },
    {
      "midi": 64,
      "hit": false,
      "t": 178866.21499999956,
      "d": 2900.205249999999,
      "v": 11
    },
    {
      "midi": 68,
      "hit": false,
      "t": 178866.21499999956,
      "d": 2900.205249999999,
      "v": 11
    },
    {
      "midi": 57,
      "hit": false,
      "t": 182069.78899999955,
      "d": 861.5672499999928,
      "v": 11
    },
    {
      "midi": 66,
      "hit": false,
      "t": 182069.78899999955,
      "d": 861.5672499999928,
      "v": 11
    },
    {
      "midi": 57,
      "hit": false,
      "t": 182943.49099999954,
      "d": 570.333249999996,
      "v": 11
    },
    {
      "midi": 64,
      "hit": false,
      "t": 182943.49099999954,
      "d": 570.333249999996,
      "v": 11
    },
    {
      "midi": 64,
      "hit": false,
      "t": 183525.95899999954,
      "d": 2026.5032500000088,
      "v": 11
    },
    {
      "midi": 71,
      "hit": false,
      "t": 183525.95899999954,
      "d": 2026.5032500000088,
      "v": 11
    },
    {
      "midi": 56,
      "hit": false,
      "t": 185564.59699999954,
      "d": 279.0992499999993,
      "v": 11
    },
    {
      "midi": 64,
      "hit": false,
      "t": 185564.59699999954,
      "d": 279.0992499999993,
      "v": 11
    },
    {
      "midi": 68,
      "hit": false,
      "t": 185564.59699999954,
      "d": 279.0992499999993,
      "v": 11
    },
    {
      "midi": 51,
      "hit": false,
      "t": 185855.83099999954,
      "d": 279.0992499999993,
      "v": 11
    },
    {
      "midi": 54,
      "hit": false,
      "t": 185855.83099999954,
      "d": 279.0992499999993,
      "v": 11
    },
    {
      "midi": 63,
      "hit": false,
      "t": 185855.83099999954,
      "d": 279.0992499999993,
      "v": 11
    },
    {
      "midi": 52,
      "hit": false,
      "t": 186147.06499999954,
      "d": 279.0992499999993,
      "v": 11
    },
    {
      "midi": 56,
      "hit": false,
      "t": 186147.06499999954,
      "d": 279.0992499999993,
      "v": 11
    },
    {
      "midi": 64,
      "hit": false,
      "t": 186147.06499999954,
      "d": 279.0992499999993,
      "v": 11
    },
    {
      "midi": 56,
      "hit": false,
      "t": 186438.29899999953,
      "d": 1444.0352499999863,
      "v": 11
    },
    {
      "midi": 64,
      "hit": false,
      "t": 186438.29899999953,
      "d": 1444.0352499999863,
      "v": 11
    },
    {
      "midi": 68,
      "hit": false,
      "t": 186438.29899999953,
      "d": 1444.0352499999863,
      "v": 11
    },
    {
      "midi": 61,
      "hit": false,
      "t": 186438.29899999953,
      "d": 2317.7372499999765,
      "v": 11
    },
    {
      "midi": 56,
      "hit": false,
      "t": 187894.46899999952,
      "d": 279.0992499999993,
      "v": 11
    },
    {
      "midi": 64,
      "hit": false,
      "t": 187894.46899999952,
      "d": 279.0992499999993,
      "v": 11
    },
    {
      "midi": 68,
      "hit": false,
      "t": 187894.46899999952,
      "d": 279.0992499999993,
      "v": 11
    },
    {
      "midi": 51,
      "hit": false,
      "t": 188185.7029999995,
      "d": 279.0992499999993,
      "v": 11
    },
    {
      "midi": 54,
      "hit": false,
      "t": 188185.7029999995,
      "d": 279.0992499999993,
      "v": 11
    },
    {
      "midi": 63,
      "hit": false,
      "t": 188185.7029999995,
      "d": 279.0992499999993,
      "v": 11
    },
    {
      "midi": 52,
      "hit": false,
      "t": 188476.9369999995,
      "d": 279.0992499999993,
      "v": 11
    },
    {
      "midi": 56,
      "hit": false,
      "t": 188476.9369999995,
      "d": 279.0992499999993,
      "v": 11
    },
    {
      "midi": 64,
      "hit": false,
      "t": 188476.9369999995,
      "d": 279.0992499999993,
      "v": 11
    },
    {
      "midi": 56,
      "hit": false,
      "t": 188768.1709999995,
      "d": 2317.7372500000056,
      "v": 11
    },
    {
      "midi": 60,
      "hit": false,
      "t": 188768.1709999995,
      "d": 2317.7372500000056,
      "v": 11
    },
    {
      "midi": 63,
      "hit": false,
      "t": 188768.1709999995,
      "d": 2317.7372500000056,
      "v": 11
    },
    {
      "midi": 68,
      "hit": false,
      "t": 188768.1709999995,
      "d": 2317.7372500000056,
      "v": 11
    },
    {
      "midi": 54,
      "hit": false,
      "t": 191389.2769999995,
      "d": 861.5672499999928,
      "v": 11
    },
    {
      "midi": 63,
      "hit": false,
      "t": 191389.2769999995,
      "d": 861.5672499999928,
      "v": 11
    },
    {
      "midi": 66,
      "hit": false,
      "t": 191389.2769999995,
      "d": 861.5672499999928,
      "v": 11
    },
    {
      "midi": 52,
      "hit": false,
      "t": 192262.9789999995,
      "d": 570.333249999996,
      "v": 11
    },
    {
      "midi": 61,
      "hit": false,
      "t": 192262.9789999995,
      "d": 570.333249999996,
      "v": 11
    },
    {
      "midi": 64,
      "hit": false,
      "t": 192262.9789999995,
      "d": 570.333249999996,
      "v": 11
    },
    {
      "midi": 56,
      "hit": false,
      "t": 192845.4469999995,
      "d": 2900.205249999999,
      "v": 11
    },
    {
      "midi": 64,
      "hit": false,
      "t": 192845.4469999995,
      "d": 2900.205249999999,
      "v": 11
    },
    {
      "midi": 68,
      "hit": false,
      "t": 192845.4469999995,
      "d": 2900.205249999999,
      "v": 11
    },
    {
      "midi": 54,
      "hit": false,
      "t": 196049.02099999948,
      "d": 861.5672499999928,
      "v": 11
    },
    {
      "midi": 57,
      "hit": false,
      "t": 196049.02099999948,
      "d": 861.5672499999928,
      "v": 11
    },
    {
      "midi": 66,
      "hit": false,
      "t": 196049.02099999948,
      "d": 861.5672499999928,
      "v": 11
    },
    {
      "midi": 52,
      "hit": false,
      "t": 196922.72299999947,
      "d": 570.333249999996,
      "v": 11
    },
    {
      "midi": 57,
      "hit": false,
      "t": 196922.72299999947,
      "d": 570.333249999996,
      "v": 11
    },
    {
      "midi": 64,
      "hit": false,
      "t": 196922.72299999947,
      "d": 570.333249999996,
      "v": 11
    },
    {
      "midi": 64,
      "hit": false,
      "t": 197505.19099999947,
      "d": 570.333249999996,
      "v": 11
    },
    {
      "midi": 59,
      "hit": false,
      "t": 197505.19099999947,
      "d": 2026.5032499999797,
      "v": 11
    },
    {
      "midi": 71,
      "hit": false,
      "t": 197505.19099999947,
      "d": 2026.5032499999797,
      "v": 11
    },
    {
      "midi": 56,
      "hit": false,
      "t": 199543.82899999944,
      "d": 279.0992499999993,
      "v": 11
    },
    {
      "midi": 64,
      "hit": false,
      "t": 199543.82899999944,
      "d": 279.0992499999993,
      "v": 11
    },
    {
      "midi": 68,
      "hit": false,
      "t": 199543.82899999944,
      "d": 279.0992499999993,
      "v": 11
    },
    {
      "midi": 51,
      "hit": false,
      "t": 199835.06299999944,
      "d": 279.0992499999993,
      "v": 11
    },
    {
      "midi": 59,
      "hit": false,
      "t": 199835.06299999944,
      "d": 279.0992499999993,
      "v": 11
    },
    {
      "midi": 63,
      "hit": false,
      "t": 199835.06299999944,
      "d": 279.0992499999993,
      "v": 11
    },
    {
      "midi": 52,
      "hit": false,
      "t": 200126.29699999944,
      "d": 279.0992499999993,
      "v": 11
    },
    {
      "midi": 61,
      "hit": false,
      "t": 200126.29699999944,
      "d": 279.0992499999993,
      "v": 11
    },
    {
      "midi": 64,
      "hit": false,
      "t": 200126.29699999944,
      "d": 279.0992499999993,
      "v": 11
    },
    {
      "midi": 56,
      "hit": false,
      "t": 201873.70099999945,
      "d": 279.0992499999993,
      "v": 11
    },
    {
      "midi": 64,
      "hit": false,
      "t": 201873.70099999945,
      "d": 279.0992499999993,
      "v": 11
    },
    {
      "midi": 68,
      "hit": false,
      "t": 201873.70099999945,
      "d": 279.0992499999993,
      "v": 11
    },
    {
      "midi": 51,
      "hit": false,
      "t": 202164.93499999944,
      "d": 279.0992499999993,
      "v": 11
    },
    {
      "midi": 59,
      "hit": false,
      "t": 202164.93499999944,
      "d": 279.0992499999993,
      "v": 11
    },
    {
      "midi": 63,
      "hit": false,
      "t": 202164.93499999944,
      "d": 279.0992499999993,
      "v": 11
    },
    {
      "midi": 52,
      "hit": false,
      "t": 202456.16899999944,
      "d": 715.9502499999944,
      "v": 11
    },
    {
      "midi": 61,
      "hit": false,
      "t": 202456.16899999944,
      "d": 715.9502499999944,
      "v": 11
    },
    {
      "midi": 64,
      "hit": false,
      "t": 202456.16899999944,
      "d": 715.9502499999944,
      "v": 11
    },
    {
      "midi": 56,
      "hit": false,
      "t": 204203.57299999942,
      "d": 279.0992499999993,
      "v": 11
    },
    {
      "midi": 64,
      "hit": false,
      "t": 204203.57299999942,
      "d": 279.0992499999993,
      "v": 11
    },
    {
      "midi": 68,
      "hit": false,
      "t": 204203.57299999942,
      "d": 279.0992499999993,
      "v": 11
    },
    {
      "midi": 51,
      "hit": false,
      "t": 204494.80699999942,
      "d": 279.0992499999993,
      "v": 11
    },
    {
      "midi": 59,
      "hit": false,
      "t": 204494.80699999942,
      "d": 279.0992499999993,
      "v": 11
    },
    {
      "midi": 63,
      "hit": false,
      "t": 204494.80699999942,
      "d": 279.0992499999993,
      "v": 11
    },
    {
      "midi": 52,
      "hit": false,
      "t": 204786.04099999942,
      "d": 279.0992499999993,
      "v": 11
    },
    {
      "midi": 61,
      "hit": false,
      "t": 204786.04099999942,
      "d": 279.0992499999993,
      "v": 11
    },
    {
      "midi": 64,
      "hit": false,
      "t": 204786.04099999942,
      "d": 279.0992499999993,
      "v": 11
    },
    {
      "midi": 54,
      "hit": false,
      "t": 205368.5089999994,
      "d": 861.5672499999928,
      "v": 11
    },
    {
      "midi": 63,
      "hit": false,
      "t": 205368.5089999994,
      "d": 861.5672499999928,
      "v": 11
    },
    {
      "midi": 66,
      "hit": false,
      "t": 205368.5089999994,
      "d": 861.5672499999928,
      "v": 11
    },
    {
      "midi": 52,
      "hit": false,
      "t": 206242.2109999994,
      "d": 570.333249999996,
      "v": 11
    },
    {
      "midi": 61,
      "hit": false,
      "t": 206242.2109999994,
      "d": 570.333249999996,
      "v": 11
    },
    {
      "midi": 64,
      "hit": false,
      "t": 206242.2109999994,
      "d": 570.333249999996,
      "v": 11
    },
    {
      "midi": 56,
      "hit": false,
      "t": 206824.6789999994,
      "d": 3191.439249999996,
      "v": 11
    },
    {
      "midi": 64,
      "hit": false,
      "t": 206824.6789999994,
      "d": 3191.439249999996,
      "v": 11
    },
    {
      "midi": 68,
      "hit": false,
      "t": 206824.6789999994,
      "d": 3191.439249999996,
      "v": 11
    },
    {
      "midi": 54,
      "hit": false,
      "t": 210028.2529999994,
      "d": 861.5672499999928,
      "v": 11
    },
    {
      "midi": 57,
      "hit": false,
      "t": 210028.2529999994,
      "d": 861.5672499999928,
      "v": 11
    },
    {
      "midi": 66,
      "hit": false,
      "t": 210028.2529999994,
      "d": 861.5672499999928,
      "v": 11
    },
    {
      "midi": 52,
      "hit": false,
      "t": 210901.95499999938,
      "d": 570.333249999996,
      "v": 11
    },
    {
      "midi": 57,
      "hit": false,
      "t": 210901.95499999938,
      "d": 570.333249999996,
      "v": 11
    },
    {
      "midi": 64,
      "hit": false,
      "t": 210901.95499999938,
      "d": 570.333249999996,
      "v": 11
    },
    {
      "midi": 59,
      "hit": false,
      "t": 211484.42299999937,
      "d": 2026.5032500000088,
      "v": 11
    },
    {
      "midi": 64,
      "hit": false,
      "t": 211484.42299999937,
      "d": 2026.5032500000088,
      "v": 11
    },
    {
      "midi": 71,
      "hit": false,
      "t": 211484.42299999937,
      "d": 2026.5032500000088,
      "v": 11
    },
    {
      "midi": 56,
      "hit": false,
      "t": 213523.06099999938,
      "d": 279.0992499999993,
      "v": 11
    },
    {
      "midi": 64,
      "hit": false,
      "t": 213523.06099999938,
      "d": 279.0992499999993,
      "v": 11
    },
    {
      "midi": 68,
      "hit": false,
      "t": 213523.06099999938,
      "d": 279.0992499999993,
      "v": 11
    },
    {
      "midi": 51,
      "hit": false,
      "t": 213814.29499999937,
      "d": 279.0992499999993,
      "v": 11
    },
    {
      "midi": 54,
      "hit": false,
      "t": 213814.29499999937,
      "d": 279.0992499999993,
      "v": 11
    },
    {
      "midi": 63,
      "hit": false,
      "t": 213814.29499999937,
      "d": 279.0992499999993,
      "v": 11
    },
    {
      "midi": 52,
      "hit": false,
      "t": 214105.52899999937,
      "d": 279.0992499999993,
      "v": 11
    },
    {
      "midi": 56,
      "hit": false,
      "t": 214105.52899999937,
      "d": 279.0992499999993,
      "v": 11
    },
    {
      "midi": 64,
      "hit": false,
      "t": 214105.52899999937,
      "d": 279.0992499999993,
      "v": 11
    },
    {
      "midi": 56,
      "hit": false,
      "t": 214396.76299999937,
      "d": 1735.269250000012,
      "v": 11
    },
    {
      "midi": 64,
      "hit": false,
      "t": 214396.76299999937,
      "d": 1735.269250000012,
      "v": 11
    },
    {
      "midi": 68,
      "hit": false,
      "t": 214396.76299999937,
      "d": 1735.269250000012,
      "v": 11
    },
    {
      "midi": 51,
      "hit": false,
      "t": 216144.16699999938,
      "d": 279.0992499999993,
      "v": 11
    },
    {
      "midi": 54,
      "hit": false,
      "t": 216144.16699999938,
      "d": 279.0992499999993,
      "v": 11
    },
    {
      "midi": 63,
      "hit": false,
      "t": 216144.16699999938,
      "d": 279.0992499999993,
      "v": 11
    },
    {
      "midi": 52,
      "hit": false,
      "t": 216435.40099999937,
      "d": 279.0992499999993,
      "v": 11
    },
    {
      "midi": 56,
      "hit": false,
      "t": 216435.40099999937,
      "d": 279.0992499999993,
      "v": 11
    },
    {
      "midi": 64,
      "hit": false,
      "t": 216435.40099999937,
      "d": 279.0992499999993,
      "v": 11
    },
    {
      "midi": 56,
      "hit": false,
      "t": 216726.63499999937,
      "d": 2317.7372500000056,
      "v": 11
    },
    {
      "midi": 60,
      "hit": false,
      "t": 216726.63499999937,
      "d": 2317.7372500000056,
      "v": 11
    },
    {
      "midi": 68,
      "hit": false,
      "t": 216726.63499999937,
      "d": 2317.7372500000056,
      "v": 11
    },
    {
      "midi": 54,
      "hit": false,
      "t": 219347.74099999937,
      "d": 861.5672499999928,
      "v": 11
    },
    {
      "midi": 63,
      "hit": false,
      "t": 219347.74099999937,
      "d": 861.5672499999928,
      "v": 11
    },
    {
      "midi": 66,
      "hit": false,
      "t": 219347.74099999937,
      "d": 861.5672499999928,
      "v": 11
    },
    {
      "midi": 52,
      "hit": false,
      "t": 220221.44299999936,
      "d": 570.333249999996,
      "v": 11
    },
    {
      "midi": 61,
      "hit": false,
      "t": 220221.44299999936,
      "d": 570.333249999996,
      "v": 11
    },
    {
      "midi": 64,
      "hit": false,
      "t": 220221.44299999936,
      "d": 570.333249999996,
      "v": 11
    },
    {
      "midi": 56,
      "hit": false,
      "t": 220803.91099999935,
      "d": 3191.439249999996,
      "v": 11
    },
    {
      "midi": 64,
      "hit": false,
      "t": 220803.91099999935,
      "d": 3191.439249999996,
      "v": 11
    },
    {
      "midi": 68,
      "hit": false,
      "t": 220803.91099999935,
      "d": 3191.439249999996,
      "v": 11
    },
    {
      "midi": 54,
      "hit": false,
      "t": 224007.48499999935,
      "d": 861.5672499999928,
      "v": 11
    },
    {
      "midi": 57,
      "hit": false,
      "t": 224007.48499999935,
      "d": 861.5672499999928,
      "v": 11
    },
    {
      "midi": 66,
      "hit": false,
      "t": 224007.48499999935,
      "d": 861.5672499999928,
      "v": 11
    },
    {
      "midi": 52,
      "hit": false,
      "t": 224881.18699999934,
      "d": 570.333249999996,
      "v": 11
    },
    {
      "midi": 57,
      "hit": false,
      "t": 224881.18699999934,
      "d": 570.333249999996,
      "v": 11
    },
    {
      "midi": 64,
      "hit": false,
      "t": 224881.18699999934,
      "d": 570.333249999996,
      "v": 11
    },
    {
      "midi": 59,
      "hit": false,
      "t": 225463.65499999933,
      "d": 1735.269250000012,
      "v": 11
    },
    {
      "midi": 64,
      "hit": false,
      "t": 225463.65499999933,
      "d": 1735.269250000012,
      "v": 11
    },
    {
      "midi": 71,
      "hit": false,
      "t": 225463.65499999933,
      "d": 1735.269250000012,
      "v": 11
    },
    {
      "midi": 57,
      "hit": false,
      "t": 227211.05899999934,
      "d": 279.0992499999993,
      "v": 11
    },
    {
      "midi": 66,
      "hit": false,
      "t": 227211.05899999934,
      "d": 279.0992499999993,
      "v": 11
    },
    {
      "midi": 69,
      "hit": false,
      "t": 227211.05899999934,
      "d": 279.0992499999993,
      "v": 11
    },
    {
      "midi": 56,
      "hit": false,
      "t": 227502.29299999934,
      "d": 279.0992499999993,
      "v": 11
    },
    {
      "midi": 64,
      "hit": false,
      "t": 227502.29299999934,
      "d": 279.0992499999993,
      "v": 11
    },
    {
      "midi": 68,
      "hit": false,
      "t": 227502.29299999934,
      "d": 279.0992499999993,
      "v": 11
    },
    {
      "midi": 54,
      "hit": false,
      "t": 227793.52699999933,
      "d": 279.0992499999993,
      "v": 11
    },
    {
      "midi": 63,
      "hit": false,
      "t": 227793.52699999933,
      "d": 279.0992499999993,
      "v": 11
    },
    {
      "midi": 66,
      "hit": false,
      "t": 227793.52699999933,
      "d": 279.0992499999993,
      "v": 11
    },
    {
      "midi": 52,
      "hit": false,
      "t": 228084.76099999933,
      "d": 279.0992499999993,
      "v": 11
    },
    {
      "midi": 61,
      "hit": false,
      "t": 228084.76099999933,
      "d": 279.0992499999993,
      "v": 11
    },
    {
      "midi": 64,
      "hit": false,
      "t": 228084.76099999933,
      "d": 279.0992499999993,
      "v": 11
    },
    {
      "midi": 56,
      "hit": false,
      "t": 228375.99499999933,
      "d": 4647.609250000009,
      "v": 11
    },
    {
      "midi": 63,
      "hit": false,
      "t": 228375.99499999933,
      "d": 4647.609250000009,
      "v": 11
    },
    {
      "midi": 68,
      "hit": false,
      "t": 228375.99499999933,
      "d": 4647.609250000009,
      "v": 11
    }
  ]
}