{
  "jsonPath": "Unknown/Unknown/Various Artists Karaoke - Ameritz/karaoke-heal-the-world.json",
  "path": "Unknown\\Unknown\\Various Artists Karaoke - Ameritz\\Karaoke - Heal The World.mid",
  "name": "Karaoke - Heal The World",
  "difficulty": "Advanced",
  "bpm": 75,
  "notes": [
    {
      "midi": 74,
      "hit": false,
      "t": 0,
      "d": 959.8768791666666,
      "v": 40
    },
    {
      "midi": 78,
      "hit": false,
      "t": 24.691366666666667,
      "d": 898.1484624999999,
      "v": 40
    },
    {
      "midi": 81,
      "hit": false,
      "t": 89.50620416666666,
      "d": 817.9015208333333,
      "v": 40
    },
    {
      "midi": 85,
      "hit": false,
      "t": 98.76546666666667,
      "d": 808.6422583333333,
      "v": 40
    },
    {
      "midi": 73,
      "hit": false,
      "t": 1484.5684208333332,
      "d": 1947.5315458333325,
      "v": 40
    },
    {
      "midi": 76,
      "hit": false,
      "t": 1512.3462083333332,
      "d": 1916.6673374999993,
      "v": 40
    },
    {
      "midi": 78,
      "hit": false,
      "t": 1561.7289416666663,
      "d": 1867.2846041666662,
      "v": 40
    },
    {
      "midi": 81,
      "hit": false,
      "t": 1574.0746249999995,
      "d": 1858.0253416666662,
      "v": 40
    },
    {
      "midi": 74,
      "hit": false,
      "t": 5209.878366666666,
      "d": 1049.3830833333323,
      "v": 40
    },
    {
      "midi": 78,
      "hit": false,
      "t": 5237.656154166666,
      "d": 1006.1731916666658,
      "v": 40
    },
    {
      "midi": 81,
      "hit": false,
      "t": 5299.384570833333,
      "d": 932.099091666666,
      "v": 40
    },
    {
      "midi": 85,
      "hit": false,
      "t": 5339.508041666666,
      "d": 891.9756208333329,
      "v": 40
    },
    {
      "midi": 81,
      "hit": false,
      "t": 6870.372774999998,
      "d": 1447.5313708333324,
      "v": 40
    },
    {
      "midi": 73,
      "hit": false,
      "t": 6882.718458333331,
      "d": 1419.7535833333332,
      "v": 40
    },
    {
      "midi": 76,
      "hit": false,
      "t": 6882.718458333331,
      "d": 1419.7535833333332,
      "v": 40
    },
    {
      "midi": 78,
      "hit": false,
      "t": 6898.150562499997,
      "d": 1419.7535833333332,
      "v": 40
    },
    {
      "midi": 73,
      "hit": false,
      "t": 10719.139554166664,
      "d": 1268.5189625000003,
      "v": 55
    },
    {
      "midi": 69,
      "hit": false,
      "t": 10719.139554166664,
      "d": 1277.778225,
      "v": 59
    },
    {
      "midi": 66,
      "hit": false,
      "t": 10719.139554166664,
      "d": 1305.5560124999993,
      "v": 59
    },
    {
      "midi": 43,
      "hit": false,
      "t": 10719.139554166664,
      "d": 1617.2845166666648,
      "v": 44
    },
    {
      "midi": 62,
      "hit": false,
      "t": 10722.225974999998,
      "d": 1330.2473791666653,
      "v": 59
    },
    {
      "midi": 55,
      "hit": false,
      "t": 10737.658079166664,
      "d": 614.1977458333331,
      "v": 40
    },
    {
      "midi": 50,
      "hit": false,
      "t": 11314.818774999996,
      "d": 762.3459458333327,
      "v": 47
    },
    {
      "midi": 55,
      "hit": false,
      "t": 11802.473266666664,
      "d": 496.91375416666415,
      "v": 61
    },
    {
      "midi": 50,
      "hit": false,
      "t": 12234.572183333328,
      "d": 410.49397083333315,
      "v": 56
    },
    {
      "midi": 42,
      "hit": false,
      "t": 12617.288366666662,
      "d": 1820.9882916666666,
      "v": 47
    },
    {
      "midi": 54,
      "hit": false,
      "t": 12617.288366666662,
      "d": 1907.4080749999994,
      "v": 49
    },
    {
      "midi": 61,
      "hit": false,
      "t": 12645.066154166661,
      "d": 1712.963562500001,
      "v": 52
    },
    {
      "midi": 64,
      "hit": false,
      "t": 12645.066154166661,
      "d": 1712.963562500001,
      "v": 48
    },
    {
      "midi": 66,
      "hit": false,
      "t": 12645.066154166661,
      "d": 1712.963562500001,
      "v": 43
    },
    {
      "midi": 69,
      "hit": false,
      "t": 12645.066154166661,
      "d": 1731.4820875000005,
      "v": 52
    },
    {
      "midi": 43,
      "hit": false,
      "t": 15111.116399999995,
      "d": 1790.1240833333322,
      "v": 40
    },
    {
      "midi": 62,
      "hit": false,
      "t": 15138.894187499995,
      "d": 1734.5685083333337,
      "v": 43
    },
    {
      "midi": 66,
      "hit": false,
      "t": 15197.536183333328,
      "d": 1663.5808291666672,
      "v": 48
    },
    {
      "midi": 69,
      "hit": false,
      "t": 15212.968287499994,
      "d": 1629.6302000000014,
      "v": 55
    },
    {
      "midi": 73,
      "hit": false,
      "t": 15212.968287499994,
      "d": 1632.7166208333347,
      "v": 51
    },
    {
      "midi": 55,
      "hit": false,
      "t": 15262.351020833328,
      "d": 1067.9016083333336,
      "v": 70
    },
    {
      "midi": 50,
      "hit": false,
      "t": 16268.524212499995,
      "d": 604.9384833333334,
      "v": 40
    },
    {
      "midi": 55,
      "hit": false,
      "t": 16833.339224999996,
      "d": 129.6296749999965,
      "v": 40
    },
    {
      "midi": 61,
      "hit": false,
      "t": 18817.907820833327,
      "d": 2151.2353208333334,
      "v": 40
    },
    {
      "midi": 69,
      "hit": false,
      "t": 18842.599187499993,
      "d": 2191.3587916666656,
      "v": 40
    },
    {
      "midi": 64,
      "hit": false,
      "t": 18858.03129166666,
      "d": 2120.371112500001,
      "v": 40
    },
    {
      "midi": 45,
      "hit": false,
      "t": 18870.376974999992,
      "d": 2070.988379166669,
      "v": 40
    },
    {
      "midi": 59,
      "hit": false,
      "t": 18870.376974999992,
      "d": 2126.5439541666674,
      "v": 40
    },
    {
      "midi": 57,
      "hit": false,
      "t": 18910.500445833324,
      "d": 2030.8649083333366,
      "v": 40
    },
    {
      "midi": 52,
      "hit": false,
      "t": 18947.537495833323,
      "d": 1916.6673375000028,
      "v": 40
    },
    {
      "midi": 74,
      "hit": false,
      "t": 22219.14357916666,
      "d": 416.66681249999965,
      "v": 70
    },
    {
      "midi": 76,
      "hit": false,
      "t": 22533.958504166658,
      "d": 472.22238749999815,
      "v": 43
    },
    {
      "midi": 69,
      "hit": false,
      "t": 22867.29195416666,
      "d": 1169.7534958333272,
      "v": 40
    },
    {
      "midi": 62,
      "hit": false,
      "t": 22895.06974166666,
      "d": 1645.0623041666586,
      "v": 40
    },
    {
      "midi": 78,
      "hit": false,
      "t": 22904.32900416666,
      "d": 1095.6793958333292,
      "v": 40
    },
    {
      "midi": 81,
      "hit": false,
      "t": 23666.67494999999,
      "d": 407.40754999999626,
      "v": 40
    },
    {
      "midi": 71,
      "hit": false,
      "t": 24527.786362499985,
      "d": 1425.9264249999978,
      "v": 40
    },
    {
      "midi": 76,
      "hit": false,
      "t": 24555.564149999984,
      "d": 688.2718458333329,
      "v": 40
    },
    {
      "midi": 61,
      "hit": false,
      "t": 24580.25551666665,
      "d": 1401.2350583333318,
      "v": 40
    },
    {
      "midi": 80,
      "hit": false,
      "t": 24641.983933333315,
      "d": 1283.9510666666683,
      "v": 40
    },
    {
      "midi": 76,
      "hit": false,
      "t": 25524.70029166665,
      "d": 391.97544583333365,
      "v": 40
    },
    {
      "midi": 69,
      "hit": false,
      "t": 26700.626629166647,
      "d": 1290.1239083333348,
      "v": 40
    },
    {
      "midi": 74,
      "hit": false,
      "t": 26703.71304999998,
      "d": 1212.9633875,
      "v": 40
    },
    {
      "midi": 59,
      "hit": false,
      "t": 26703.71304999998,
      "d": 1422.8400041666682,
      "v": 40
    },
    {
      "midi": 78,
      "hit": false,
      "t": 27645.071404166647,
      "d": 256.172929166667,
      "v": 40
    },
    {
      "midi": 69,
      "hit": false,
      "t": 28750.010062499983,
      "d": 2280.86499583333,
      "v": 40
    },
    {
      "midi": 57,
      "hit": false,
      "t": 28774.70142916665,
      "d": 1580.247466666664,
      "v": 40
    },
    {
      "midi": 71,
      "hit": false,
      "t": 28802.47921666665,
      "d": 2200.6180541666654,
      "v": 40
    },
    {
      "midi": 73,
      "hit": false,
      "t": 28864.207633333313,
      "d": 2151.2353208333334,
      "v": 40
    },
    {
      "midi": 76,
      "hit": false,
      "t": 28913.590366666645,
      "d": 2101.8525875000014,
      "v": 40
    },
    {
      "midi": 73,
      "hit": false,
      "t": 32728.406516666648,
      "d": 1287.037487499998,
      "v": 40
    },
    {
      "midi": 69,
      "hit": false,
      "t": 32728.406516666648,
      "d": 1311.728854166664,
      "v": 40
    },
    {
      "midi": 66,
      "hit": false,
      "t": 32740.75219999998,
      "d": 1327.1609583333338,
      "v": 40
    },
    {
      "midi": 62,
      "hit": false,
      "t": 32740.75219999998,
      "d": 1361.1115875000032,
      "v": 40
    },
    {
      "midi": 55,
      "hit": false,
      "t": 32756.184304166647,
      "d": 1947.531545833339,
      "v": 40
    },
    {
      "midi": 64,
      "hit": false,
      "t": 34765.44426666665,
      "d": 1820.9882916666684,
      "v": 40
    },
    {
      "midi": 66,
      "hit": false,
      "t": 34768.53068749999,
      "d": 1805.5561874999985,
      "v": 40
    },
    {
      "midi": 61,
      "hit": false,
      "t": 34768.53068749999,
      "d": 1817.9018708333315,
      "v": 40
    },
    {
      "midi": 69,
      "hit": false,
      "t": 34768.53068749999,
      "d": 1817.9018708333315,
      "v": 40
    },
    {
      "midi": 57,
      "hit": false,
      "t": 34817.91342083332,
      "d": 2925.926950000001,
      "v": 40
    },
    {
      "midi": 69,
      "hit": false,
      "t": 38089.51950416665,
      "d": 1080.2472916666738,
      "v": 40
    },
    {
      "midi": 55,
      "hit": false,
      "t": 38089.51950416665,
      "d": 1216.0498083333441,
      "v": 44
    },
    {
      "midi": 66,
      "hit": false,
      "t": 38092.60592499999,
      "d": 1077.160870833337,
      "v": 40
    },
    {
      "midi": 73,
      "hit": false,
      "t": 38104.95160833332,
      "d": 1052.469504166671,
      "v": 40
    },
    {
      "midi": 62,
      "hit": false,
      "t": 38104.95160833332,
      "d": 1104.9386583333398,
      "v": 40
    },
    {
      "midi": 64,
      "hit": false,
      "t": 40950.631616666666,
      "d": 4858.026391666674,
      "v": 40
    },
    {
      "midi": 61,
      "hit": false,
      "t": 40966.063720833336,
      "d": 4858.026391666674,
      "v": 40
    },
    {
      "midi": 57,
      "hit": false,
      "t": 41003.100770833335,
      "d": 4805.557237500005,
      "v": 40
    },
    {
      "midi": 59,
      "hit": false,
      "t": 41052.48350416667,
      "d": 4771.606608333343,
      "v": 40
    },
    {
      "midi": 69,
      "hit": false,
      "t": 41064.8291875,
      "d": 4743.82882083334,
      "v": 40
    },
    {
      "midi": 64,
      "hit": false,
      "t": 61432.120266666665,
      "d": 765.4323666666678,
      "v": 49
    },
    {
      "midi": 57,
      "hit": false,
      "t": 61432.120266666665,
      "d": 793.2101541666707,
      "v": 53
    },
    {
      "midi": 59,
      "hit": false,
      "t": 61432.120266666665,
      "d": 808.6422583333406,
      "v": 47
    },
    {
      "midi": 61,
      "hit": false,
      "t": 61432.120266666665,
      "d": 808.6422583333406,
      "v": 51
    },
    {
      "midi": 57,
      "hit": false,
      "t": 62543.23176666667,
      "d": 95.67904583333438,
      "v": 53
    },
    {
      "midi": 57,
      "hit": false,
      "t": 62913.602266666676,
      "d": 876.5435166666721,
      "v": 55
    },
    {
      "midi": 62,
      "hit": false,
      "t": 62913.602266666676,
      "d": 969.1361416666696,
      "v": 53
    },
    {
      "midi": 66,
      "hit": false,
      "t": 62913.602266666676,
      "d": 996.9139291666725,
      "v": 45
    },
    {
      "midi": 57,
      "hit": false,
      "t": 63839.52851666668,
      "d": 234.56798333333427,
      "v": 40
    },
    {
      "midi": 62,
      "hit": false,
      "t": 64024.71376666668,
      "d": 151.23462083333288,
      "v": 56
    },
    {
      "midi": 66,
      "hit": false,
      "t": 64209.899016666684,
      "d": 95.67904583333438,
      "v": 65
    },
    {
      "midi": 59,
      "hit": false,
      "t": 64395.08426666669,
      "d": 966.0497208333327,
      "v": 46
    },
    {
      "midi": 64,
      "hit": false,
      "t": 64395.08426666669,
      "d": 1070.9880291666632,
      "v": 53
    },
    {
      "midi": 68,
      "hit": false,
      "t": 64395.08426666669,
      "d": 1086.420133333333,
      "v": 48
    },
    {
      "midi": 59,
      "hit": false,
      "t": 65506.195766666686,
      "d": 123.45683333333,
      "v": 56
    },
    {
      "midi": 62,
      "hit": false,
      "t": 65876.56626666668,
      "d": 635.8026916666713,
      "v": 59
    },
    {
      "midi": 57,
      "hit": false,
      "t": 65876.56626666668,
      "d": 1033.9509791666642,
      "v": 58
    },
    {
      "midi": 66,
      "hit": false,
      "t": 65876.56626666668,
      "d": 1228.3954916666698,
      "v": 52
    },
    {
      "midi": 64,
      "hit": false,
      "t": 66432.12201666668,
      "d": 635.8026916666713,
      "v": 51
    },
    {
      "midi": 62,
      "hit": false,
      "t": 66987.67776666667,
      "d": 123.45683333334455,
      "v": 58
    },
    {
      "midi": 57,
      "hit": false,
      "t": 67358.04826666668,
      "d": 984.5682458333322,
      "v": 48
    },
    {
      "midi": 59,
      "hit": false,
      "t": 67358.04826666668,
      "d": 1104.9386583333253,
      "v": 56
    },
    {
      "midi": 61,
      "hit": false,
      "t": 67358.04826666668,
      "d": 1104.9386583333253,
      "v": 59
    },
    {
      "midi": 64,
      "hit": false,
      "t": 67358.04826666668,
      "d": 1104.9386583333253,
      "v": 58
    },
    {
      "midi": 57,
      "hit": false,
      "t": 68469.15976666668,
      "d": 95.67904583332711,
      "v": 63
    },
    {
      "midi": 62,
      "hit": false,
      "t": 68839.53026666667,
      "d": 993.8275083333428,
      "v": 65
    },
    {
      "midi": 57,
      "hit": false,
      "t": 68839.53026666667,
      "d": 1009.2596125000127,
      "v": 61
    },
    {
      "midi": 66,
      "hit": false,
      "t": 68839.53026666667,
      "d": 1037.0374000000156,
      "v": 63
    },
    {
      "midi": 59,
      "hit": false,
      "t": 70321.01226666669,
      "d": 913.5805666666711,
      "v": 58
    },
    {
      "midi": 64,
      "hit": false,
      "t": 70321.01226666669,
      "d": 1015.432454166672,
      "v": 58
    },
    {
      "midi": 68,
      "hit": false,
      "t": 70321.01226666669,
      "d": 1055.5559250000078,
      "v": 48
    },
    {
      "midi": 62,
      "hit": false,
      "t": 71802.49426666669,
      "d": 543.2100666666665,
      "v": 55
    },
    {
      "midi": 64,
      "hit": false,
      "t": 71802.49426666669,
      "d": 641.9755333333305,
      "v": 53
    },
    {
      "midi": 66,
      "hit": false,
      "t": 71802.49426666669,
      "d": 885.8027791666682,
      "v": 55
    },
    {
      "midi": 69,
      "hit": false,
      "t": 71802.49426666669,
      "d": 1151.234970833335,
      "v": 56
    },
    {
      "midi": 62,
      "hit": false,
      "t": 72358.05001666669,
      "d": 530.8643833333335,
      "v": 53
    },
    {
      "midi": 64,
      "hit": false,
      "t": 72913.60576666669,
      "d": 101.85188750000088,
      "v": 55
    },
    {
      "midi": 61,
      "hit": false,
      "t": 73283.9762666667,
      "d": 916.6669874999934,
      "v": 56
    },
    {
      "midi": 57,
      "hit": false,
      "t": 73283.9762666667,
      "d": 1092.5929749999923,
      "v": 51
    },
    {
      "midi": 64,
      "hit": false,
      "t": 73283.9762666667,
      "d": 1203.7041249999893,
      "v": 51
    },
    {
      "midi": 59,
      "hit": false,
      "t": 74395.0877666667,
      "d": 83.33336249999411,
      "v": 51
    },
    {
      "midi": 62,
      "hit": false,
      "t": 74765.45826666668,
      "d": 771.6052083333198,
      "v": 61
    },
    {
      "midi": 57,
      "hit": false,
      "t": 74765.45826666668,
      "d": 796.2965749999858,
      "v": 52
    },
    {
      "midi": 66,
      "hit": false,
      "t": 74765.45826666668,
      "d": 827.1607833333255,
      "v": 56
    },
    {
      "midi": 59,
      "hit": false,
      "t": 76246.94026666667,
      "d": 808.6422583333333,
      "v": 56
    },
    {
      "midi": 64,
      "hit": false,
      "t": 76246.94026666667,
      "d": 895.0620416666643,
      "v": 59
    },
    {
      "midi": 68,
      "hit": false,
      "t": 76246.94026666667,
      "d": 907.4077249999973,
      "v": 48
    },
    {
      "midi": 59,
      "hit": false,
      "t": 77172.86651666668,
      "d": 203.70377500000177,
      "v": 48
    },
    {
      "midi": 64,
      "hit": false,
      "t": 77358.05176666667,
      "d": 83.33336250000866,
      "v": 61
    },
    {
      "midi": 62,
      "hit": false,
      "t": 77728.42226666668,
      "d": 592.592799999984,
      "v": 59
    },
    {
      "midi": 57,
      "hit": false,
      "t": 77728.42226666668,
      "d": 932.0990916666487,
      "v": 59
    },
    {
      "midi": 66,
      "hit": false,
      "t": 77728.42226666668,
      "d": 1222.2226499999815,
      "v": 58
    },
    {
      "midi": 64,
      "hit": false,
      "t": 78283.97801666666,
      "d": 672.8397416666703,
      "v": 49
    },
    {
      "midi": 62,
      "hit": false,
      "t": 78839.53376666666,
      "d": 98.765466666664,
      "v": 40
    },
    {
      "midi": 61,
      "hit": false,
      "t": 79209.90426666666,
      "d": 1111.111499999999,
      "v": 58
    },
    {
      "midi": 59,
      "hit": false,
      "t": 79209.90426666666,
      "d": 1129.6300250000058,
      "v": 53
    },
    {
      "midi": 64,
      "hit": false,
      "t": 79209.90426666666,
      "d": 1129.6300250000058,
      "v": 58
    },
    {
      "midi": 57,
      "hit": false,
      "t": 79209.90426666666,
      "d": 1250.000437499999,
      "v": 48
    },
    {
      "midi": 62,
      "hit": false,
      "t": 80691.38626666667,
      "d": 978.3954041666584,
      "v": 59
    },
    {
      "midi": 57,
      "hit": false,
      "t": 80691.38626666667,
      "d": 996.9139291666652,
      "v": 61
    },
    {
      "midi": 66,
      "hit": false,
      "t": 80691.38626666667,
      "d": 1012.3460333333351,
      "v": 51
    },
    {
      "midi": 68,
      "hit": false,
      "t": 82172.86826666667,
      "d": 728.3953166666761,
      "v": 42
    },
    {
      "midi": 64,
      "hit": false,
      "t": 82172.86826666667,
      "d": 759.2595250000159,
      "v": 51
    },
    {
      "midi": 59,
      "hit": false,
      "t": 82172.86826666667,
      "d": 783.9508916666819,
      "v": 56
    },
    {
      "midi": 69,
      "hit": false,
      "t": 83654.35026666669,
      "d": 1358.0251666666736,
      "v": 45
    },
    {
      "midi": 62,
      "hit": false,
      "t": 83654.35026666669,
      "d": 1373.4572708333435,
      "v": 43
    },
    {
      "midi": 64,
      "hit": false,
      "t": 83654.35026666669,
      "d": 1373.4572708333435,
      "v": 47
    },
    {
      "midi": 66,
      "hit": false,
      "t": 83654.35026666669,
      "d": 1376.5436916666804,
      "v": 48
    },
    {
      "midi": 62,
      "hit": false,
      "t": 85135.83226666671,
      "d": 783.9508916666673,
      "v": 72
    },
    {
      "midi": 57,
      "hit": false,
      "t": 85135.83226666671,
      "d": 793.2101541666634,
      "v": 67
    },
    {
      "midi": 61,
      "hit": false,
      "t": 85135.83226666671,
      "d": 796.2965750000003,
      "v": 65
    },
    {
      "midi": 66,
      "hit": false,
      "t": 85135.83226666671,
      "d": 796.2965750000003,
      "v": 58
    },
    {
      "midi": 47,
      "hit": false,
      "t": 85135.83226666671,
      "d": 1385.8029541666765,
      "v": 56
    },
    {
      "midi": 62,
      "hit": false,
      "t": 86061.75851666671,
      "d": 459.8767041666724,
      "v": 77
    },
    {
      "midi": 66,
      "hit": false,
      "t": 86061.75851666671,
      "d": 459.8767041666724,
      "v": 72
    },
    {
      "midi": 61,
      "hit": false,
      "t": 86061.75851666671,
      "d": 462.9631250000093,
      "v": 61
    },
    {
      "midi": 69,
      "hit": false,
      "t": 86061.75851666671,
      "d": 462.9631250000093,
      "v": 77
    },
    {
      "midi": 68,
      "hit": false,
      "t": 86617.31426666673,
      "d": 299.3828208333289,
      "v": 52
    },
    {
      "midi": 59,
      "hit": false,
      "t": 86617.31426666673,
      "d": 320.987766666658,
      "v": 56
    },
    {
      "midi": 64,
      "hit": false,
      "t": 86617.31426666673,
      "d": 320.987766666658,
      "v": 58
    },
    {
      "midi": 63,
      "hit": false,
      "t": 86617.31426666673,
      "d": 324.0741874999949,
      "v": 59
    },
    {
      "midi": 49,
      "hit": false,
      "t": 86617.31426666673,
      "d": 1398.1486374999804,
      "v": 47
    },
    {
      "midi": 63,
      "hit": false,
      "t": 86987.68476666672,
      "d": 916.6669874999934,
      "v": 54
    },
    {
      "midi": 59,
      "hit": false,
      "t": 86987.68476666672,
      "d": 938.2719333333225,
      "v": 53
    },
    {
      "midi": 64,
      "hit": false,
      "t": 86987.68476666672,
      "d": 938.2719333333225,
      "v": 58
    },
    {
      "midi": 56,
      "hit": false,
      "t": 86987.68476666672,
      "d": 996.9139291666506,
      "v": 50
    },
    {
      "midi": 57,
      "hit": false,
      "t": 88098.7962666667,
      "d": 780.8644708333304,
      "v": 53
    },
    {
      "midi": 66,
      "hit": false,
      "t": 88098.7962666667,
      "d": 941.358354166674,
      "v": 56
    },
    {
      "midi": 62,
      "hit": false,
      "t": 88098.7962666667,
      "d": 975.3089833333361,
      "v": 59
    },
    {
      "midi": 64,
      "hit": false,
      "t": 88098.7962666667,
      "d": 975.3089833333361,
      "v": 49
    },
    {
      "midi": 50,
      "hit": false,
      "t": 88098.7962666667,
      "d": 1490.7412624999852,
      "v": 44
    },
    {
      "midi": 57,
      "hit": false,
      "t": 89024.7225166667,
      "d": 435.1853374999919,
      "v": 45
    },
    {
      "midi": 62,
      "hit": false,
      "t": 89209.9077666667,
      "d": 259.259349999993,
      "v": 53
    },
    {
      "midi": 66,
      "hit": false,
      "t": 89395.0930166667,
      "d": 120.37041249999311,
      "v": 58
    },
    {
      "midi": 59,
      "hit": false,
      "t": 89580.27826666669,
      "d": 854.9385708333284,
      "v": 55
    },
    {
      "midi": 64,
      "hit": false,
      "t": 89580.27826666669,
      "d": 975.3089833333215,
      "v": 55
    },
    {
      "midi": 68,
      "hit": false,
      "t": 89580.27826666669,
      "d": 1009.2596124999836,
      "v": 52
    },
    {
      "midi": 49,
      "hit": false,
      "t": 89580.27826666669,
      "d": 1407.407899999991,
      "v": 44
    },
    {
      "midi": 59,
      "hit": false,
      "t": 90506.20451666668,
      "d": 358.02481666667154,
      "v": 53
    },
    {
      "midi": 64,
      "hit": false,
      "t": 90691.38976666667,
      "d": 169.75314583333966,
      "v": 53
    },
    {
      "midi": 57,
      "hit": false,
      "t": 91061.76026666668,
      "d": 1537.0375750000094,
      "v": 67
    },
    {
      "midi": 66,
      "hit": false,
      "t": 91061.76026666668,
      "d": 1685.1857750000054,
      "v": 61
    },
    {
      "midi": 62,
      "hit": false,
      "t": 91061.76026666668,
      "d": 1688.2721958333423,
      "v": 67
    },
    {
      "midi": 64,
      "hit": false,
      "t": 91061.76026666668,
      "d": 1700.6178791666753,
      "v": 63
    },
    {
      "midi": 57,
      "hit": false,
      "t": 92913.61276666669,
      "d": 179.01240833333577,
      "v": 46
    },
    {
      "midi": 62,
      "hit": false,
      "t": 93283.98326666669,
      "d": 83.33336249999411,
      "v": 74
    },
    {
      "midi": 64,
      "hit": false,
      "t": 93283.98326666669,
      "d": 101.85188750000088,
      "v": 77
    },
    {
      "midi": 66,
      "hit": false,
      "t": 93283.98326666669,
      "d": 114.19757083333388,
      "v": 72
    },
    {
      "midi": 66,
      "hit": false,
      "t": 94024.72426666669,
      "d": 1074.07445,
      "v": 65
    },
    {
      "midi": 69,
      "hit": false,
      "t": 94024.72426666669,
      "d": 1074.07445,
      "v": 65
    },
    {
      "midi": 64,
      "hit": false,
      "t": 94024.72426666669,
      "d": 1080.2472916666738,
      "v": 61
    },
    {
      "midi": 62,
      "hit": false,
      "t": 94024.72426666669,
      "d": 1104.9386583333398,
      "v": 61
    },
    {
      "midi": 69,
      "hit": false,
      "t": 95135.8357666667,
      "d": 58.64199583332811,
      "v": 44
    },
    {
      "midi": 74,
      "hit": false,
      "t": 95506.20626666669,
      "d": 64.81483750000189,
      "v": 72
    },
    {
      "midi": 57,
      "hit": false,
      "t": 96987.6882666667,
      "d": 1104.9386583333253,
      "v": 65
    },
    {
      "midi": 59,
      "hit": false,
      "t": 96987.6882666667,
      "d": 1407.407899999991,
      "v": 67
    },
    {
      "midi": 57,
      "hit": false,
      "t": 98283.98501666669,
      "d": 86.419783333331,
      "v": 56
    }
  ]
}