{
  "jsonPath": "Rock/Art Rock/Donovan/mellow-yellow-2005-digital-remaster-mono.json",
  "path": "Rock\\Art Rock\\Donovan\\Mellow Yellow (2005 Digital Remaster) (Mono).mid",
  "name": "Mellow Yellow (2005 Digital Remaster) (Mono)",
  "difficulty": "Advanced",
  "bpm": 108.00108001080011,
  "notes": [
    {
      "midi": 45,
      "hit": false,
      "t": 34444.1,
      "d": 410.8755208333314,
      "v": 85
    },
    {
      "midi": 45,
      "hit": false,
      "t": 34999.649999999994,
      "d": 413.7690104166686,
      "v": 77
    },
    {
      "midi": 52,
      "hit": false,
      "t": 35555.2,
      "d": 370.3666666666686,
      "v": 81
    },
    {
      "midi": 45,
      "hit": false,
      "t": 35555.2,
      "d": 381.9406250000029,
      "v": 81
    },
    {
      "midi": 57,
      "hit": false,
      "t": 36110.75,
      "d": 309.60338541666715,
      "v": 77
    },
    {
      "midi": 52,
      "hit": false,
      "t": 36110.75,
      "d": 358.7927083333343,
      "v": 81
    },
    {
      "midi": 45,
      "hit": false,
      "t": 36110.75,
      "d": 367.4731770833314,
      "v": 73
    },
    {
      "midi": 45,
      "hit": false,
      "t": 36666.299999999996,
      "d": 353.00572916666715,
      "v": 90
    },
    {
      "midi": 57,
      "hit": false,
      "t": 36666.299999999996,
      "d": 364.57968750000146,
      "v": 94
    },
    {
      "midi": 52,
      "hit": false,
      "t": 36666.299999999996,
      "d": 373.26015624999854,
      "v": 81
    },
    {
      "midi": 57,
      "hit": false,
      "t": 37221.84999999999,
      "d": 376.15364583333576,
      "v": 98
    },
    {
      "midi": 45,
      "hit": false,
      "t": 37221.84999999999,
      "d": 390.62109375,
      "v": 98
    },
    {
      "midi": 52,
      "hit": false,
      "t": 37221.84999999999,
      "d": 390.62109375,
      "v": 98
    },
    {
      "midi": 45,
      "hit": false,
      "t": 37777.399999999994,
      "d": 367.4731770833314,
      "v": 98
    },
    {
      "midi": 57,
      "hit": false,
      "t": 37777.399999999994,
      "d": 367.4731770833314,
      "v": 98
    },
    {
      "midi": 52,
      "hit": false,
      "t": 37777.399999999994,
      "d": 381.94062499999563,
      "v": 103
    },
    {
      "midi": 52,
      "hit": false,
      "t": 38332.94999999999,
      "d": 243.05312499999854,
      "v": 107
    },
    {
      "midi": 45,
      "hit": false,
      "t": 38332.94999999999,
      "d": 254.62708333333285,
      "v": 107
    },
    {
      "midi": 57,
      "hit": false,
      "t": 38332.94999999999,
      "d": 269.0945312499971,
      "v": 103
    },
    {
      "midi": 45,
      "hit": false,
      "t": 38888.499999999985,
      "d": 118.6330729166657,
      "v": 98
    },
    {
      "midi": 38,
      "hit": false,
      "t": 38888.499999999985,
      "d": 159.14192708333576,
      "v": 98
    },
    {
      "midi": 45,
      "hit": false,
      "t": 39444.04999999999,
      "d": 98.3786458333343,
      "v": 85
    },
    {
      "midi": 38,
      "hit": false,
      "t": 39444.04999999999,
      "d": 130.20703125,
      "v": 98
    },
    {
      "midi": 45,
      "hit": false,
      "t": 39999.59999999999,
      "d": 104.16562500000146,
      "v": 81
    },
    {
      "midi": 38,
      "hit": false,
      "t": 39999.59999999999,
      "d": 127.31354166667006,
      "v": 90
    },
    {
      "midi": 45,
      "hit": false,
      "t": 40555.149999999994,
      "d": 118.6330729166657,
      "v": 90
    },
    {
      "midi": 38,
      "hit": false,
      "t": 40555.149999999994,
      "d": 127.31354166666279,
      "v": 98
    },
    {
      "midi": 50,
      "hit": false,
      "t": 41110.69999999999,
      "d": 92.59166666666715,
      "v": 90
    },
    {
      "midi": 43,
      "hit": false,
      "t": 41110.69999999999,
      "d": 127.31354166667006,
      "v": 103
    },
    {
      "midi": 50,
      "hit": false,
      "t": 41666.24999999999,
      "d": 81.01770833333285,
      "v": 90
    },
    {
      "midi": 43,
      "hit": false,
      "t": 41666.24999999999,
      "d": 112.84609374999854,
      "v": 98
    },
    {
      "midi": 43,
      "hit": false,
      "t": 42221.79999999999,
      "d": 127.31354166667006,
      "v": 103
    },
    {
      "midi": 50,
      "hit": false,
      "t": 42221.79999999999,
      "d": 141.7809895833343,
      "v": 90
    },
    {
      "midi": 50,
      "hit": false,
      "t": 42777.34999999999,
      "d": 81.01770833333285,
      "v": 81
    },
    {
      "midi": 43,
      "hit": false,
      "t": 42777.34999999999,
      "d": 115.73958333333576,
      "v": 98
    },
    {
      "midi": 45,
      "hit": false,
      "t": 43332.899999999994,
      "d": 92.59166666666715,
      "v": 94
    },
    {
      "midi": 38,
      "hit": false,
      "t": 43332.899999999994,
      "d": 127.31354166667006,
      "v": 103
    },
    {
      "midi": 45,
      "hit": false,
      "t": 43888.45,
      "d": 83.91119791667006,
      "v": 65
    },
    {
      "midi": 38,
      "hit": false,
      "t": 43888.45,
      "d": 124.42005208334012,
      "v": 98
    },
    {
      "midi": 45,
      "hit": false,
      "t": 44444.00000000001,
      "d": 104.16562500000146,
      "v": 81
    },
    {
      "midi": 38,
      "hit": false,
      "t": 44444.00000000001,
      "d": 115.73958333333576,
      "v": 98
    },
    {
      "midi": 45,
      "hit": false,
      "t": 44999.55000000001,
      "d": 92.59166666666715,
      "v": 98
    },
    {
      "midi": 38,
      "hit": false,
      "t": 44999.55000000001,
      "d": 98.3786458333343,
      "v": 103
    },
    {
      "midi": 52,
      "hit": false,
      "t": 45555.10000000001,
      "d": 92.59166666666715,
      "v": 77
    },
    {
      "midi": 45,
      "hit": false,
      "t": 45555.10000000001,
      "d": 135.99401041666715,
      "v": 103
    },
    {
      "midi": 52,
      "hit": false,
      "t": 46110.650000000016,
      "d": 118.6330729166657,
      "v": 81
    },
    {
      "midi": 45,
      "hit": false,
      "t": 46110.650000000016,
      "d": 130.20703125,
      "v": 103
    },
    {
      "midi": 52,
      "hit": false,
      "t": 46666.20000000002,
      "d": 355.8992187499971,
      "v": 98
    },
    {
      "midi": 45,
      "hit": false,
      "t": 46666.20000000002,
      "d": 387.7276041666628,
      "v": 107
    },
    {
      "midi": 51,
      "hit": false,
      "t": 47221.750000000015,
      "d": 240.1596354166686,
      "v": 81
    },
    {
      "midi": 44,
      "hit": false,
      "t": 47221.750000000015,
      "d": 248.8401041666657,
      "v": 90
    },
    {
      "midi": 50,
      "hit": false,
      "t": 47777.30000000001,
      "d": 81.01770833333285,
      "v": 90
    },
    {
      "midi": 43,
      "hit": false,
      "t": 47777.30000000001,
      "d": 115.73958333333576,
      "v": 98
    },
    {
      "midi": 50,
      "hit": false,
      "t": 48332.85000000001,
      "d": 115.73958333333576,
      "v": 98
    },
    {
      "midi": 43,
      "hit": false,
      "t": 48332.85000000001,
      "d": 135.99401041666715,
      "v": 107
    },
    {
      "midi": 50,
      "hit": false,
      "t": 48888.400000000016,
      "d": 95.48515624999709,
      "v": 94
    },
    {
      "midi": 43,
      "hit": false,
      "t": 48888.400000000016,
      "d": 127.31354166666279,
      "v": 98
    },
    {
      "midi": 50,
      "hit": false,
      "t": 49443.95000000001,
      "d": 95.48515624999709,
      "v": 94
    },
    {
      "midi": 43,
      "hit": false,
      "t": 49443.95000000001,
      "d": 115.73958333332848,
      "v": 103
    },
    {
      "midi": 50,
      "hit": false,
      "t": 49999.50000000001,
      "d": 78.12421875000291,
      "v": 81
    },
    {
      "midi": 43,
      "hit": false,
      "t": 49999.50000000001,
      "d": 112.84609375000582,
      "v": 107
    },
    {
      "midi": 50,
      "hit": false,
      "t": 50555.05000000001,
      "d": 81.01770833333285,
      "v": 77
    },
    {
      "midi": 43,
      "hit": false,
      "t": 50555.05000000001,
      "d": 115.73958333333576,
      "v": 112
    },
    {
      "midi": 50,
      "hit": false,
      "t": 51110.60000000001,
      "d": 72.33723958333576,
      "v": 77
    },
    {
      "midi": 43,
      "hit": false,
      "t": 51110.60000000001,
      "d": 115.73958333333576,
      "v": 107
    },
    {
      "midi": 50,
      "hit": false,
      "t": 51666.150000000016,
      "d": 86.8046875,
      "v": 81
    },
    {
      "midi": 43,
      "hit": false,
      "t": 51666.150000000016,
      "d": 98.3786458333343,
      "v": 103
    },
    {
      "midi": 52,
      "hit": false,
      "t": 52221.70000000002,
      "d": 75.2307291666657,
      "v": 77
    },
    {
      "midi": 45,
      "hit": false,
      "t": 52221.70000000002,
      "d": 124.42005208333285,
      "v": 107
    },
    {
      "midi": 52,
      "hit": false,
      "t": 52777.25000000002,
      "d": 92.59166666666715,
      "v": 65
    },
    {
      "midi": 45,
      "hit": false,
      "t": 52777.25000000002,
      "d": 115.73958333333576,
      "v": 98
    },
    {
      "midi": 52,
      "hit": false,
      "t": 53332.800000000025,
      "d": 95.48515624999709,
      "v": 77
    },
    {
      "midi": 45,
      "hit": false,
      "t": 53332.800000000025,
      "d": 127.31354166666279,
      "v": 98
    },
    {
      "midi": 52,
      "hit": false,
      "t": 53888.35000000002,
      "d": 89.69817708332994,
      "v": 94
    },
    {
      "midi": 45,
      "hit": false,
      "t": 53888.35000000002,
      "d": 115.73958333332848,
      "v": 107
    },
    {
      "midi": 52,
      "hit": false,
      "t": 54443.900000000016,
      "d": 81.01770833333285,
      "v": 85
    },
    {
      "midi": 45,
      "hit": false,
      "t": 54443.900000000016,
      "d": 109.9526041666686,
      "v": 103
    },
    {
      "midi": 52,
      "hit": false,
      "t": 54999.45000000002,
      "d": 101.27213541666424,
      "v": 94
    },
    {
      "midi": 45,
      "hit": false,
      "t": 54999.45000000002,
      "d": 104.16562499999418,
      "v": 103
    },
    {
      "midi": 52,
      "hit": false,
      "t": 55555.000000000015,
      "d": 86.8046875,
      "v": 77
    },
    {
      "midi": 45,
      "hit": false,
      "t": 55555.000000000015,
      "d": 112.84609374999854,
      "v": 107
    },
    {
      "midi": 52,
      "hit": false,
      "t": 56110.55000000001,
      "d": 81.01770833333285,
      "v": 90
    },
    {
      "midi": 45,
      "hit": false,
      "t": 56110.55000000001,
      "d": 104.16562500000146,
      "v": 107
    },
    {
      "midi": 45,
      "hit": false,
      "t": 56666.10000000001,
      "d": 121.52656250000291,
      "v": 85
    },
    {
      "midi": 38,
      "hit": false,
      "t": 56666.10000000001,
      "d": 130.20703125,
      "v": 103
    },
    {
      "midi": 38,
      "hit": false,
      "t": 57221.650000000016,
      "d": 138.8874999999971,
      "v": 103
    },
    {
      "midi": 45,
      "hit": false,
      "t": 57221.650000000016,
      "d": 138.8874999999971,
      "v": 85
    },
    {
      "midi": 45,
      "hit": false,
      "t": 57777.20000000001,
      "d": 127.31354166667006,
      "v": 81
    },
    {
      "midi": 38,
      "hit": false,
      "t": 57777.20000000001,
      "d": 135.99401041666715,
      "v": 98
    },
    {
      "midi": 38,
      "hit": false,
      "t": 58332.750000000015,
      "d": 121.52656250000291,
      "v": 94
    },
    {
      "midi": 45,
      "hit": false,
      "t": 58332.750000000015,
      "d": 130.20703125,
      "v": 77
    },
    {
      "midi": 50,
      "hit": false,
      "t": 58888.30000000002,
      "d": 144.67447916666424,
      "v": 81
    },
    {
      "midi": 43,
      "hit": false,
      "t": 58888.30000000002,
      "d": 150.4614583333314,
      "v": 103
    },
    {
      "midi": 43,
      "hit": false,
      "t": 59443.85000000001,
      "d": 144.67447916666424,
      "v": 103
    },
    {
      "midi": 50,
      "hit": false,
      "t": 59443.85000000001,
      "d": 153.35494791666133,
      "v": 81
    },
    {
      "midi": 52,
      "hit": false,
      "t": 59999.40000000001,
      "d": 118.6330729166657,
      "v": 90
    },
    {
      "midi": 45,
      "hit": false,
      "t": 59999.40000000001,
      "d": 133.10052083332994,
      "v": 103
    },
    {
      "midi": 52,
      "hit": false,
      "t": 60554.950000000004,
      "d": 92.59166666666715,
      "v": 81
    },
    {
      "midi": 45,
      "hit": false,
      "t": 60554.950000000004,
      "d": 118.6330729166657,
      "v": 103
    },
    {
      "midi": 45,
      "hit": false,
      "t": 61110.5,
      "d": 86.8046875,
      "v": 77
    },
    {
      "midi": 38,
      "hit": false,
      "t": 61110.5,
      "d": 121.52656250000291,
      "v": 98
    },
    {
      "midi": 38,
      "hit": false,
      "t": 61666.05,
      "d": 124.42005208333285,
      "v": 94
    },
    {
      "midi": 45,
      "hit": false,
      "t": 61666.05,
      "d": 124.42005208333285,
      "v": 94
    },
    {
      "midi": 45,
      "hit": false,
      "t": 62221.600000000006,
      "d": 118.6330729166657,
      "v": 94
    },
    {
      "midi": 38,
      "hit": false,
      "t": 62221.600000000006,
      "d": 141.7809895833343,
      "v": 107
    },
    {
      "midi": 45,
      "hit": false,
      "t": 62777.15000000001,
      "d": 115.73958333333576,
      "v": 85
    },
    {
      "midi": 38,
      "hit": false,
      "t": 62777.15000000001,
      "d": 138.88750000000437,
      "v": 98
    },
    {
      "midi": 50,
      "hit": false,
      "t": 63332.70000000001,
      "d": 115.73958333333576,
      "v": 85
    },
    {
      "midi": 43,
      "hit": false,
      "t": 63332.70000000001,
      "d": 147.56796875000146,
      "v": 94
    },
    {
      "midi": 50,
      "hit": false,
      "t": 63888.250000000015,
      "d": 104.16562500000146,
      "v": 98
    },
    {
      "midi": 43,
      "hit": false,
      "t": 63888.250000000015,
      "d": 127.31354166667006,
      "v": 107
    },
    {
      "midi": 52,
      "hit": false,
      "t": 64443.80000000002,
      "d": 133.10052083332994,
      "v": 81
    },
    {
      "midi": 45,
      "hit": false,
      "t": 64443.80000000002,
      "d": 147.56796874999418,
      "v": 103
    },
    {
      "midi": 52,
      "hit": false,
      "t": 64999.35000000001,
      "d": 95.48515624999709,
      "v": 94
    },
    {
      "midi": 45,
      "hit": false,
      "t": 64999.35000000001,
      "d": 115.73958333332848,
      "v": 112
    },
    {
      "midi": 45,
      "hit": false,
      "t": 65554.90000000001,
      "d": 52.08281249999709,
      "v": 67
    },
    {
      "midi": 38,
      "hit": false,
      "t": 65554.90000000001,
      "d": 135.99401041665988,
      "v": 98
    },
    {
      "midi": 45,
      "hit": false,
      "t": 66110.45,
      "d": 95.48515624999709,
      "v": 98
    },
    {
      "midi": 38,
      "hit": false,
      "t": 66110.45,
      "d": 121.52656250000291,
      "v": 98
    },
    {
      "midi": 45,
      "hit": false,
      "t": 66666,
      "d": 104.16562499999418,
      "v": 90
    },
    {
      "midi": 38,
      "hit": false,
      "t": 66666,
      "d": 141.7809895833343,
      "v": 107
    },
    {
      "midi": 45,
      "hit": false,
      "t": 67221.55,
      "d": 107.0591145833314,
      "v": 85
    },
    {
      "midi": 38,
      "hit": false,
      "t": 67221.55,
      "d": 121.52656250000291,
      "v": 98
    },
    {
      "midi": 45,
      "hit": false,
      "t": 68888.20000000001,
      "d": 410.8755208333314,
      "v": 85
    },
    {
      "midi": 45,
      "hit": false,
      "t": 69443.75000000001,
      "d": 413.7690104166686,
      "v": 77
    },
    {
      "midi": 52,
      "hit": false,
      "t": 69999.30000000002,
      "d": 370.3666666666686,
      "v": 81
    },
    {
      "midi": 45,
      "hit": false,
      "t": 69999.30000000002,
      "d": 381.9406250000029,
      "v": 81
    },
    {
      "midi": 57,
      "hit": false,
      "t": 70554.85000000002,
      "d": 309.6033854166599,
      "v": 77
    },
    {
      "midi": 52,
      "hit": false,
      "t": 70554.85000000002,
      "d": 358.79270833331975,
      "v": 81
    },
    {
      "midi": 45,
      "hit": false,
      "t": 70554.85000000002,
      "d": 367.47317708331684,
      "v": 73
    },
    {
      "midi": 45,
      "hit": false,
      "t": 71110.40000000001,
      "d": 353.0057291666599,
      "v": 90
    },
    {
      "midi": 57,
      "hit": false,
      "t": 71110.40000000001,
      "d": 364.5796874999942,
      "v": 94
    },
    {
      "midi": 52,
      "hit": false,
      "t": 71110.40000000001,
      "d": 373.26015624999127,
      "v": 81
    },
    {
      "midi": 57,
      "hit": false,
      "t": 71665.95,
      "d": 376.1536458333285,
      "v": 98
    },
    {
      "midi": 45,
      "hit": false,
      "t": 71665.95,
      "d": 390.62109375,
      "v": 98
    },
    {
      "midi": 52,
      "hit": false,
      "t": 71665.95,
      "d": 390.62109375,
      "v": 98
    },
    {
      "midi": 45,
      "hit": false,
      "t": 72221.5,
      "d": 367.4731770833314,
      "v": 98
    },
    {
      "midi": 57,
      "hit": false,
      "t": 72221.5,
      "d": 367.4731770833314,
      "v": 98
    },
    {
      "midi": 52,
      "hit": false,
      "t": 72221.5,
      "d": 381.9406250000029,
      "v": 103
    },
    {
      "midi": 52,
      "hit": false,
      "t": 72777.05,
      "d": 243.05312500000582,
      "v": 107
    },
    {
      "midi": 45,
      "hit": false,
      "t": 72777.05,
      "d": 254.62708333334012,
      "v": 107
    },
    {
      "midi": 57,
      "hit": false,
      "t": 72777.05,
      "d": 269.09453125001164,
      "v": 103
    },
    {
      "midi": 69,
      "hit": false,
      "t": 73332.60000000002,
      "d": 335.6447916666657,
      "v": 94
    },
    {
      "midi": 50,
      "hit": false,
      "t": 73332.60000000002,
      "d": 341.4317708333256,
      "v": 112
    },
    {
      "midi": 57,
      "hit": false,
      "t": 73332.60000000002,
      "d": 347.21874999998545,
      "v": 94
    },
    {
      "midi": 62,
      "hit": false,
      "t": 73332.60000000002,
      "d": 370.36666666665406,
      "v": 103
    },
    {
      "midi": 66,
      "hit": false,
      "t": 73332.60000000002,
      "d": 381.94062499998836,
      "v": 94
    },
    {
      "midi": 50,
      "hit": false,
      "t": 73888.15000000001,
      "d": 257.5205729166628,
      "v": 98
    },
    {
      "midi": 57,
      "hit": false,
      "t": 73888.15000000001,
      "d": 257.5205729166628,
      "v": 81
    },
    {
      "midi": 62,
      "hit": false,
      "t": 73888.15000000001,
      "d": 361.68619791665697,
      "v": 94
    },
    {
      "midi": 66,
      "hit": false,
      "t": 73888.15000000001,
      "d": 405.08854166665697,
      "v": 94
    },
    {
      "midi": 69,
      "hit": false,
      "t": 74443.7,
      "d": 355.8992187499971,
      "v": 98
    },
    {
      "midi": 62,
      "hit": false,
      "t": 74443.7,
      "d": 370.3666666666686,
      "v": 94
    },
    {
      "midi": 66,
      "hit": false,
      "t": 74443.7,
      "d": 370.3666666666686,
      "v": 94
    },
    {
      "midi": 57,
      "hit": false,
      "t": 74814.06666666667,
      "d": 118.6330729166657,
      "v": 81
    },
    {
      "midi": 50,
      "hit": false,
      "t": 74814.06666666667,
      "d": 133.1005208333372,
      "v": 94
    },
    {
      "midi": 66,
      "hit": false,
      "t": 74999.25000000001,
      "d": 78.12421875000291,
      "v": 90
    },
    {
      "midi": 69,
      "hit": false,
      "t": 74999.25000000001,
      "d": 83.91119791666279,
      "v": 98
    },
    {
      "midi": 62,
      "hit": false,
      "t": 74999.25000000001,
      "d": 104.16562499999418,
      "v": 94
    },
    {
      "midi": 59,
      "hit": false,
      "t": 75369.61666666667,
      "d": 115.73958333332848,
      "v": 90
    },
    {
      "midi": 62,
      "hit": false,
      "t": 75369.61666666667,
      "d": 150.4614583333314,
      "v": 94
    },
    {
      "midi": 55,
      "hit": false,
      "t": 75369.61666666667,
      "d": 153.3549479166686,
      "v": 94
    },
    {
      "midi": 62,
      "hit": false,
      "t": 75554.8,
      "d": 370.3666666666686,
      "v": 94
    },
    {
      "midi": 55,
      "hit": false,
      "t": 75554.8,
      "d": 376.1536458333285,
      "v": 81
    },
    {
      "midi": 59,
      "hit": false,
      "t": 75554.8,
      "d": 376.1536458333285,
      "v": 98
    },
    {
      "midi": 43,
      "hit": false,
      "t": 75925.16666666667,
      "d": 671.2895833333023,
      "v": 65
    },
    {
      "midi": 59,
      "hit": false,
      "t": 76110.34999999999,
      "d": 387.7276041666628,
      "v": 94
    },
    {
      "midi": 62,
      "hit": false,
      "t": 76110.34999999999,
      "d": 396.4080729166599,
      "v": 98
    },
    {
      "midi": 55,
      "hit": false,
      "t": 76110.34999999999,
      "d": 402.19505208331975,
      "v": 81
    },
    {
      "midi": 50,
      "hit": false,
      "t": 76480.71666666666,
      "d": 138.88749999998254,
      "v": 94
    },
    {
      "midi": 55,
      "hit": false,
      "t": 76665.89999999998,
      "d": 436.9169270833372,
      "v": 81
    },
    {
      "midi": 62,
      "hit": false,
      "t": 76665.89999999998,
      "d": 436.9169270833372,
      "v": 103
    },
    {
      "midi": 57,
      "hit": false,
      "t": 76665.89999999998,
      "d": 445.5973958333343,
      "v": 98
    },
    {
      "midi": 43,
      "hit": false,
      "t": 77036.26666666665,
      "d": 219.9052083333372,
      "v": 90
    },
    {
      "midi": 59,
      "hit": false,
      "t": 77221.44999999998,
      "d": 101.27213541667152,
      "v": 98
    },
    {
      "midi": 55,
      "hit": false,
      "t": 77221.44999999998,
      "d": 130.20703125,
      "v": 81
    },
    {
      "midi": 62,
      "hit": false,
      "t": 77221.44999999998,
      "d": 130.20703125,
      "v": 98
    },
    {
      "midi": 62,
      "hit": false,
      "t": 77776.99999999999,
      "d": 448.4908854166715,
      "v": 94
    },
    {
      "midi": 54,
      "hit": false,
      "t": 77776.99999999999,
      "d": 468.7453125000029,
      "v": 77
    },
    {
      "midi": 57,
      "hit": false,
      "t": 77776.99999999999,
      "d": 468.7453125000029,
      "v": 90
    },
    {
      "midi": 50,
      "hit": false,
      "t": 78332.54999999999,
      "d": 295.13593749998836,
      "v": 98
    },
    {
      "midi": 62,
      "hit": false,
      "t": 78332.54999999999,
      "d": 387.72760416664823,
      "v": 94
    },
    {
      "midi": 54,
      "hit": false,
      "t": 78332.54999999999,
      "d": 410.87552083331684,
      "v": 69
    },
    {
      "midi": 57,
      "hit": false,
      "t": 78332.54999999999,
      "d": 416.6624999999767,
      "v": 90
    },
    {
      "midi": 50,
      "hit": false,
      "t": 78702.91666666664,
      "d": 127.31354166666279,
      "v": 77
    },
    {
      "midi": 62,
      "hit": false,
      "t": 78888.09999999998,
      "d": 425.3429687500029,
      "v": 94
    },
    {
      "midi": 54,
      "hit": false,
      "t": 78888.09999999998,
      "d": 439.8104166666744,
      "v": 64
    },
    {
      "midi": 57,
      "hit": false,
      "t": 78888.09999999998,
      "d": 448.4908854166715,
      "v": 81
    },
    {
      "midi": 50,
      "hit": false,
      "t": 79258.46666666665,
      "d": 214.1182291666628,
      "v": 98
    },
    {
      "midi": 54,
      "hit": false,
      "t": 79443.64999999998,
      "d": 269.0945312499971,
      "v": 77
    },
    {
      "midi": 57,
      "hit": false,
      "t": 79443.64999999998,
      "d": 283.5619791666686,
      "v": 98
    },
    {
      "midi": 62,
      "hit": false,
      "t": 79443.64999999998,
      "d": 318.2838541666715,
      "v": 98
    },
    {
      "midi": 52,
      "hit": false,
      "t": 79814.01666666665,
      "d": 150.4614583333314,
      "v": 94
    },
    {
      "midi": 64,
      "hit": false,
      "t": 79999.19999999998,
      "d": 393.5145833333372,
      "v": 94
    },
    {
      "midi": 57,
      "hit": false,
      "t": 79999.19999999998,
      "d": 422.4494791666657,
      "v": 94
    },
    {
      "midi": 61,
      "hit": false,
      "t": 79999.19999999998,
      "d": 451.3843749999942,
      "v": 94
    },
    {
      "midi": 45,
      "hit": false,
      "t": 79999.19999999998,
      "d": 653.9286458333227,
      "v": 112
    },
    {
      "midi": 64,
      "hit": false,
      "t": 80554.74999999997,
      "d": 405.0885416666715,
      "v": 98
    },
    {
      "midi": 57,
      "hit": false,
      "t": 80554.74999999997,
      "d": 407.98203125000873,
      "v": 94
    },
    {
      "midi": 61,
      "hit": false,
      "t": 80554.74999999997,
      "d": 431.12994791667734,
      "v": 90
    },
    {
      "midi": 45,
      "hit": false,
      "t": 80925.11666666664,
      "d": 72.33723958334303,
      "v": 90
    },
    {
      "midi": 52,
      "hit": false,
      "t": 80925.11666666664,
      "d": 89.69817708333721,
      "v": 77
    },
    {
      "midi": 57,
      "hit": false,
      "t": 81110.29999999999,
      "d": 159.14192708332848,
      "v": 98
    },
    {
      "midi": 64,
      "hit": false,
      "t": 81110.29999999999,
      "d": 159.14192708332848,
      "v": 103
    },
    {
      "midi": 52,
      "hit": false,
      "t": 81110.29999999999,
      "d": 164.92890624998836,
      "v": 94
    },
    {
      "midi": 45,
      "hit": false,
      "t": 81110.29999999999,
      "d": 176.50286458332266,
      "v": 112
    },
    {
      "midi": 61,
      "hit": false,
      "t": 81110.29999999999,
      "d": 176.50286458332266,
      "v": 94
    },
    {
      "midi": 44,
      "hit": false,
      "t": 81665.84999999999,
      "d": 211.22473958332557,
      "v": 103
    },
    {
      "midi": 56,
      "hit": false,
      "t": 81665.84999999999,
      "d": 228.58567708331975,
      "v": 98
    },
    {
      "midi": 62,
      "hit": false,
      "t": 82221.39999999998,
      "d": 431.1299479166628,
      "v": 94
    },
    {
      "midi": 55,
      "hit": false,
      "t": 82221.39999999998,
      "d": 439.8104166666599,
      "v": 90
    },
    {
      "midi": 59,
      "hit": false,
      "t": 82221.39999999998,
      "d": 439.8104166666599,
      "v": 94
    },
    {
      "midi": 43,
      "hit": false,
      "t": 82221.39999999998,
      "d": 512.1476562499884,
      "v": 103
    },
    {
      "midi": 62,
      "hit": false,
      "t": 82776.94999999997,
      "d": 399.3015624999971,
      "v": 103
    },
    {
      "midi": 55,
      "hit": false,
      "t": 82776.94999999997,
      "d": 405.08854166665697,
      "v": 94
    },
    {
      "midi": 59,
      "hit": false,
      "t": 82776.94999999997,
      "d": 405.08854166665697,
      "v": 103
    },
    {
      "midi": 43,
      "hit": false,
      "t": 83147.31666666664,
      "d": 185.18333333331975,
      "v": 81
    },
    {
      "midi": 62,
      "hit": false,
      "t": 83332.49999999996,
      "d": 150.4614583333314,
      "v": 98
    },
    {
      "midi": 59,
      "hit": false,
      "t": 83332.49999999996,
      "d": 156.24843749999127,
      "v": 103
    },
    {
      "midi": 55,
      "hit": false,
      "t": 83332.49999999996,
      "d": 170.7158854166628,
      "v": 94
    },
    {
      "midi": 55,
      "hit": false,
      "t": 83702.86666666661,
      "d": 286.4554687500058,
      "v": 85
    },
    {
      "midi": 59,
      "hit": false,
      "t": 83702.86666666661,
      "d": 289.34895833334303,
      "v": 98
    },
    {
      "midi": 62,
      "hit": false,
      "t": 83702.86666666661,
      "d": 289.34895833334303,
      "v": 98
    },
    {
      "midi": 50,
      "hit": false,
      "t": 83888.04999999994,
      "d": 115.73958333334303,
      "v": 98
    },
    {
      "midi": 62,
      "hit": false,
      "t": 84073.2333333333,
      "d": 133.1005208333372,
      "v": 90
    },
    {
      "midi": 55,
      "hit": false,
      "t": 84073.2333333333,
      "d": 138.8874999999971,
      "v": 85
    },
    {
      "midi": 59,
      "hit": false,
      "t": 84073.2333333333,
      "d": 138.8874999999971,
      "v": 94
    },
    {
      "midi": 50,
      "hit": false,
      "t": 84258.41666666663,
      "d": 95.48515624999709,
      "v": 103
    },
    {
      "midi": 53,
      "hit": false,
      "t": 84443.59999999996,
      "d": 370.3666666666686,
      "v": 94
    },
    {
      "midi": 62,
      "hit": false,
      "t": 84443.59999999996,
      "d": 376.1536458333285,
      "v": 98
    },
    {
      "midi": 59,
      "hit": false,
      "t": 84443.59999999996,
      "d": 384.8341145833256,
      "v": 94
    },
    {
      "midi": 53,
      "hit": false,
      "t": 84999.14999999997,
      "d": 355.8992187499971,
      "v": 94
    },
    {
      "midi": 59,
      "hit": false,
      "t": 84999.14999999997,
      "d": 376.1536458333285,
      "v": 98
    },
    {
      "midi": 62,
      "hit": false,
      "t": 84999.14999999997,
      "d": 376.1536458333285,
      "v": 98
    },
    {
      "midi": 43,
      "hit": false,
      "t": 85369.51666666663,
      "d": 127.31354166666279,
      "v": 98
    },
    {
      "midi": 53,
      "hit": false,
      "t": 85554.69999999997,
      "d": 370.3666666666686,
      "v": 77
    },
    {
      "midi": 59,
      "hit": false,
      "t": 85554.69999999997,
      "d": 399.3015624999971,
      "v": 94
    },
    {
      "midi": 62,
      "hit": false,
      "t": 85554.69999999997,
      "d": 399.3015624999971,
      "v": 94
    },
    {
      "midi": 43,
      "hit": false,
      "t": 85925.06666666664,
      "d": 133.10052083332266,
      "v": 85
    },
    {
      "midi": 53,
      "hit": false,
      "t": 86110.24999999997,
      "d": 81.01770833334012,
      "v": 90
    },
    {
      "midi": 59,
      "hit": false,
      "t": 86110.24999999997,
      "d": 101.27213541667152,
      "v": 103
    },
    {
      "midi": 62,
      "hit": false,
      "t": 86110.24999999997,
      "d": 121.52656250000291,
      "v": 103
    },
    {
      "midi": 64,
      "hit": false,
      "t": 86665.79999999997,
      "d": 384.8341145833256,
      "v": 90
    },
    {
      "midi": 57,
      "hit": false,
      "t": 86665.79999999997,
      "d": 405.08854166665697,
      "v": 85
    },
    {
      "midi": 61,
      "hit": false,
      "t": 86665.79999999997,
      "d": 410.87552083331684,
      "v": 90
    },
    {
      "midi": 45,
      "hit": false,
      "t": 86665.79999999997,
      "d": 607.6328124999854,
      "v": 94
    },
    {
      "midi": 52,
      "hit": false,
      "t": 86665.79999999997,
      "d": 624.9937499999796,
      "v": 77
    },
    {
      "midi": 61,
      "hit": false,
      "t": 87221.34999999996,
      "d": 416.66249999999127,
      "v": 81
    },
    {
      "midi": 57,
      "hit": false,
      "t": 87221.34999999996,
      "d": 419.5559895833285,
      "v": 90
    },
    {
      "midi": 64,
      "hit": false,
      "t": 87221.34999999996,
      "d": 428.2364583333256,
      "v": 94
    },
    {
      "midi": 45,
      "hit": false,
      "t": 87591.71666666662,
      "d": 72.33723958334303,
      "v": 52
    },
    {
      "midi": 52,
      "hit": false,
      "t": 87591.71666666662,
      "d": 127.31354166667734,
      "v": 62
    },
    {
      "midi": 64,
      "hit": false,
      "t": 87776.89999999995,
      "d": 350.11223958332266,
      "v": 94
    },
    {
      "midi": 61,
      "hit": false,
      "t": 87776.89999999995,
      "d": 358.79270833331975,
      "v": 81
    },
    {
      "midi": 57,
      "hit": false,
      "t": 87776.89999999995,
      "d": 367.47317708331684,
      "v": 85
    },
    {
      "midi": 45,
      "hit": false,
      "t": 88147.2666666666,
      "d": 101.27213541667152,
      "v": 90
    },
    {
      "midi": 52,
      "hit": false,
      "t": 88147.2666666666,
      "d": 115.73958333334303,
      "v": 73
    },
    {
      "midi": 57,
      "hit": false,
      "t": 88332.44999999995,
      "d": 361.6861979166715,
      "v": 60
    },
    {
      "midi": 64,
      "hit": false,
      "t": 88332.44999999995,
      "d": 396.4080729166744,
      "v": 81
    },
    {
      "midi": 61,
      "hit": false,
      "t": 88332.44999999995,
      "d": 413.7690104166686,
      "v": 61
    },
    {
      "midi": 45,
      "hit": false,
      "t": 88702.81666666662,
      "d": 876.7273437499971,
      "v": 90
    },
    {
      "midi": 52,
      "hit": false,
      "t": 88702.81666666662,
      "d": 888.3013020833314,
      "v": 81
    },
    {
      "midi": 57,
      "hit": false,
      "t": 88887.99999999996,
      "d": 358.7927083333343,
      "v": 73
    },
    {
      "midi": 64,
      "hit": false,
      "t": 88887.99999999996,
      "d": 358.7927083333343,
      "v": 90
    },
    {
      "midi": 61,
      "hit": false,
      "t": 88887.99999999996,
      "d": 376.1536458333285,
      "v": 67
    },
    {
      "midi": 57,
      "hit": false,
      "t": 89443.54999999996,
      "d": 361.68619791665697,
      "v": 90
    },
    {
      "midi": 64,
      "hit": false,
      "t": 89443.54999999996,
      "d": 361.68619791665697,
      "v": 94
    },
    {
      "midi": 61,
      "hit": false,
      "t": 89443.54999999996,
      "d": 387.72760416664823,
      "v": 90
    },
    {
      "midi": 45,
      "hit": false,
      "t": 89813.91666666661,
      "d": 636.5677083333285,
      "v": 107
    },
    {
      "midi": 52,
      "hit": false,
      "t": 89813.91666666661,
      "d": 645.2481770833256,
      "v": 90
    },
    {
      "midi": 64,
      "hit": false,
      "t": 89999.09999999995,
      "d": 95.48515624999709,
      "v": 90
    },
    {
      "midi": 57,
      "hit": false,
      "t": 89999.09999999995,
      "d": 107.0591145833314,
      "v": 81
    },
    {
      "midi": 61,
      "hit": false,
      "t": 89999.09999999995,
      "d": 112.84609374999127,
      "v": 81
    },
    {
      "midi": 57,
      "hit": false,
      "t": 90369.4666666666,
      "d": 269.0945312499971,
      "v": 103
    },
    {
      "midi": 61,
      "hit": false,
      "t": 90369.4666666666,
      "d": 269.0945312499971,
      "v": 94
    },
    {
      "midi": 64,
      "hit": false,
      "t": 90369.4666666666,
      "d": 274.88151041665697,
      "v": 107
    },
    {
      "midi": 52,
      "hit": false,
      "t": 90554.64999999994,
      "d": 199.65078124999127,
      "v": 90
    },
    {
      "midi": 45,
      "hit": false,
      "t": 90554.64999999994,
      "d": 211.22473958332557,
      "v": 98
    },
    {
      "midi": 57,
      "hit": false,
      "t": 90739.83333333326,
      "d": 121.52656250000291,
      "v": 98
    },
    {
      "midi": 61,
      "hit": false,
      "t": 90739.83333333326,
      "d": 121.52656250000291,
      "v": 98
    },
    {
      "midi": 64,
      "hit": false,
      "t": 90739.83333333326,
      "d": 127.31354166666279,
      "v": 103
    },
    {
      "midi": 50,
      "hit": false,
      "t": 91110.19999999992,
      "d": 167.82239583334012,
      "v": 107
    },
    {
      "midi": 57,
      "hit": false,
      "t": 91110.19999999992,
      "d": 208.3312500000029,
      "v": 94
    },
    {
      "midi": 69,
      "hit": false,
      "t": 91110.19999999992,
      "d": 254.62708333334012,
      "v": 98
    },
    {
      "midi": 66,
      "hit": false,
      "t": 91110.19999999992,
      "d": 266.2010416666744,
      "v": 90
    },
    {
      "midi": 62,
      "hit": false,
      "t": 91110.19999999992,
      "d": 271.9880208333343,
      "v": 94
    },
    {
      "midi": 50,
      "hit": false,
      "t": 91665.74999999993,
      "d": 112.84609375000582,
      "v": 103
    },
    {
      "midi": 57,
      "hit": false,
      "t": 91665.74999999993,
      "d": 156.24843750000582,
      "v": 98
    },
    {
      "midi": 69,
      "hit": false,
      "t": 91665.74999999993,
      "d": 234.37265625000873,
      "v": 98
    },
    {
      "midi": 66,
      "hit": false,
      "t": 91665.74999999993,
      "d": 263.3075520833372,
      "v": 90
    },
    {
      "midi": 62,
      "hit": false,
      "t": 91665.74999999993,
      "d": 274.8815104166715,
      "v": 90
    },
    {
      "midi": 62,
      "hit": false,
      "t": 92221.29999999993,
      "d": 83.91119791666279,
      "v": 103
    },
    {
      "midi": 66,
      "hit": false,
      "t": 92221.29999999993,
      "d": 89.69817708332266,
      "v": 98
    },
    {
      "midi": 50,
      "hit": false,
      "t": 92221.29999999993,
      "d": 107.05911458331684,
      "v": 103
    },
    {
      "midi": 69,
      "hit": false,
      "t": 92221.29999999993,
      "d": 107.05911458331684,
      "v": 112
    },
    {
      "midi": 57,
      "hit": false,
      "t": 92221.29999999993,
      "d": 121.52656249998836,
      "v": 98
    },
    {
      "midi": 55,
      "hit": false,
      "t": 92776.84999999992,
      "d": 691.5440104166628,
      "v": 107
    },
    {
      "midi": 62,
      "hit": false,
      "t": 92776.84999999992,
      "d": 691.5440104166628,
      "v": 118
    },
    {
      "midi": 71,
      "hit": false,
      "t": 92776.84999999992,
      "d": 960.6385416666599,
      "v": 112
    },
    {
      "midi": 74,
      "hit": false,
      "t": 92776.84999999992,
      "d": 960.6385416666599,
      "v": 112
    },
    {
      "midi": 67,
      "hit": false,
      "t": 92776.84999999992,
      "d": 972.2124999999942,
      "v": 98
    },
    {
      "midi": 62,
      "hit": false,
      "t": 93702.76666666658,
      "d": 86.8046875,
      "v": 112
    },
    {
      "midi": 55,
      "hit": false,
      "t": 93702.76666666658,
      "d": 98.3786458333343,
      "v": 112
    },
    {
      "midi": 71,
      "hit": false,
      "t": 93887.94999999991,
      "d": 92.59166666665988,
      "v": 98
    },
    {
      "midi": 74,
      "hit": false,
      "t": 93887.94999999991,
      "d": 124.42005208332557,
      "v": 98
    },
    {
      "midi": 67,
      "hit": false,
      "t": 93887.94999999991,
      "d": 138.8874999999971,
      "v": 98
    },
    {
      "midi": 55,
      "hit": false,
      "t": 94258.31666666658,
      "d": 92.59166666665988,
      "v": 98
    },
    {
      "midi": 62,
      "hit": false,
      "t": 94258.31666666658,
      "d": 92.59166666665988,
      "v": 98
    },
    {
      "midi": 64,
      "hit": false,
      "t": 94443.4999999999,
      "d": 57.86979166667152,
      "v": 55
    },
    {
      "midi": 57,
      "hit": false,
      "t": 94443.4999999999,
      "d": 78.12421875000291,
      "v": 60
    },
    {
      "midi": 61,
      "hit": false,
      "t": 94443.4999999999,
      "d": 86.8046875,
      "v": 77
    },
    {
      "midi": 61,
      "hit": false,
      "t": 94999.0499999999,
      "d": 112.84609375000582,
      "v": 85
    },
    {
      "midi": 64,
      "hit": false,
      "t": 94999.0499999999,
      "d": 112.84609375000582,
      "v": 103
    },
    {
      "midi": 57,
      "hit": false,
      "t": 94999.0499999999,
      "d": 115.73958333334303,
      "v": 94
    },
    {
      "midi": 50,
      "hit": false,
      "t": 95554.5999999999,
      "d": 254.62708333334012,
      "v": 98
    },
    {
      "midi": 57,
      "hit": false,
      "t": 95554.5999999999,
      "d": 254.62708333334012,
      "v": 85
    },
    {
      "midi": 69,
      "hit": false,
      "t": 95554.5999999999,
      "d": 300.92291666667734,
      "v": 94
    },
    {
      "midi": 62,
      "hit": false,
      "t": 95554.5999999999,
      "d": 318.2838541666715,
      "v": 90
    },
    {
      "midi": 66,
      "hit": false,
      "t": 95554.5999999999,
      "d": 318.2838541666715,
      "v": 81
    },
    {
      "midi": 50,
      "hit": false,
      "t": 96110.1499999999,
      "d": 130.20703125,
      "v": 103
    },
    {
      "midi": 57,
      "hit": false,
      "t": 96110.1499999999,
      "d": 130.20703125,
      "v": 85
    },
    {
      "midi": 69,
      "hit": false,
      "t": 96110.1499999999,
      "d": 182.2898437499971,
      "v": 98
    },
    {
      "midi": 66,
      "hit": false,
      "t": 96110.1499999999,
      "d": 219.9052083333372,
      "v": 90
    },
    {
      "midi": 62,
      "hit": false,
      "t": 96110.1499999999,
      "d": 234.37265625000873,
      "v": 94
    },
    {
      "midi": 66,
      "hit": false,
      "t": 96665.69999999991,
      "d": 78.12421875000291,
      "v": 94
    },
    {
      "midi": 69,
      "hit": false,
      "t": 96665.69999999991,
      "d": 78.12421875000291,
      "v": 103
    },
    {
      "midi": 57,
      "hit": false,
      "t": 96665.69999999991,
      "d": 92.59166666667443,
      "v": 94
    },
    {
      "midi": 50,
      "hit": false,
      "t": 96665.69999999991,
      "d": 95.48515625001164,
      "v": 103
    },
    {
      "midi": 62,
      "hit": false,
      "t": 96665.69999999991,
      "d": 101.27213541667152,
      "v": 103
    },
    {
      "midi": 59,
      "hit": false,
      "t": 97221.24999999993,
      "d": 1041.65625,
      "v": 107
    },
    {
      "midi": 62,
      "hit": false,
      "t": 97221.24999999993,
      "d": 1053.2302083333343,
      "v": 107
    },
    {
      "midi": 55,
      "hit": false,
      "t": 97221.24999999993,
      "d": 1056.1236979166715,
      "v": 103
    },
    {
      "midi": 59,
      "hit": false,
      "t": 98332.34999999993,
      "d": 57.86979166667152,
      "v": 118
    },
    {
      "midi": 55,
      "hit": false,
      "t": 98332.34999999993,
      "d": 63.65677083333139,
      "v": 94
    },
    {
      "midi": 62,
      "hit": false,
      "t": 98332.34999999993,
      "d": 81.01770833332557,
      "v": 112
    },
    {
      "midi": 52,
      "hit": false,
      "t": 98887.89999999992,
      "d": 98.3786458333343,
      "v": 94
    },
    {
      "midi": 45,
      "hit": false,
      "t": 98887.89999999992,
      "d": 107.0591145833314,
      "v": 103
    },
    {
      "midi": 64,
      "hit": false,
      "t": 98887.89999999992,
      "d": 107.0591145833314,
      "v": 98
    },
    {
      "midi": 57,
      "hit": false,
      "t": 98887.89999999992,
      "d": 112.84609374999127,
      "v": 85
    },
    {
      "midi": 61,
      "hit": false,
      "t": 98887.89999999992,
      "d": 112.84609374999127,
      "v": 98
    },
    {
      "midi": 52,
      "hit": false,
      "t": 99443.44999999991,
      "d": 72.33723958332848,
      "v": 85
    },
    {
      "midi": 61,
      "hit": false,
      "t": 99443.44999999991,
      "d": 72.33723958332848,
      "v": 85
    },
    {
      "midi": 64,
      "hit": false,
      "t": 99443.44999999991,
      "d": 81.01770833332557,
      "v": 94
    },
    {
      "midi": 57,
      "hit": false,
      "t": 99443.44999999991,
      "d": 89.69817708332266,
      "v": 98
    },
    {
      "midi": 45,
      "hit": false,
      "t": 99443.44999999991,
      "d": 95.48515624998254,
      "v": 98
    },
    {
      "midi": 57,
      "hit": false,
      "t": 99998.99999999988,
      "d": 266.2010416666599,
      "v": 85
    },
    {
      "midi": 50,
      "hit": false,
      "t": 99998.99999999988,
      "d": 274.88151041665697,
      "v": 98
    },
    {
      "midi": 66,
      "hit": false,
      "t": 99998.99999999988,
      "d": 306.70989583332266,
      "v": 77
    },
    {
      "midi": 69,
      "hit": false,
      "t": 99998.99999999988,
      "d": 312.49687499998254,
      "v": 98
    },
    {
      "midi": 62,
      "hit": false,
      "t": 99998.99999999988,
      "d": 332.75130208331393,
      "v": 94
    },
    {
      "midi": 57,
      "hit": false,
      "t": 100554.54999999986,
      "d": 101.27213541667152,
      "v": 94
    },
    {
      "midi": 50,
      "hit": false,
      "t": 100554.54999999986,
      "d": 115.73958333334303,
      "v": 107
    },
    {
      "midi": 69,
      "hit": false,
      "t": 100554.54999999986,
      "d": 269.09453125001164,
      "v": 103
    },
    {
      "midi": 62,
      "hit": false,
      "t": 100554.54999999986,
      "d": 289.34895833334303,
      "v": 98
    },
    {
      "midi": 66,
      "hit": false,
      "t": 100554.54999999986,
      "d": 289.34895833334303,
      "v": 94
    },
    {
      "midi": 69,
      "hit": false,
      "t": 101110.09999999986,
      "d": 81.01770833334012,
      "v": 103
    },
    {
      "midi": 66,
      "hit": false,
      "t": 101110.09999999986,
      "d": 95.48515625001164,
      "v": 94
    },
    {
      "midi": 62,
      "hit": false,
      "t": 101110.09999999986,
      "d": 115.73958333334303,
      "v": 103
    },
    {
      "midi": 55,
      "hit": false,
      "t": 101665.64999999986,
      "d": 1056.1236979166715,
      "v": 103
    },
    {
      "midi": 59,
      "hit": false,
      "t": 101665.64999999986,
      "d": 1056.1236979166715,
      "v": 112
    },
    {
      "midi": 62,
      "hit": false,
      "t": 101665.64999999986,
      "d": 1056.1236979166715,
      "v": 112
    },
    {
      "midi": 43,
      "hit": false,
      "t": 101665.64999999986,
      "d": 1148.715364583346,
      "v": 118
    },
    {
      "midi": 55,
      "hit": false,
      "t": 102776.74999999987,
      "d": 78.12421875000291,
      "v": 94
    },
    {
      "midi": 59,
      "hit": false,
      "t": 102776.74999999987,
      "d": 78.12421875000291,
      "v": 112
    },
    {
      "midi": 62,
      "hit": false,
      "t": 102776.74999999987,
      "d": 109.9526041666686,
      "v": 112
    },
    {
      "midi": 45,
      "hit": false,
      "t": 103332.29999999987,
      "d": 159.14192708332848,
      "v": 118
    },
    {
      "midi": 45,
      "hit": false,
      "t": 107776.69999999987,
      "d": 118.6330729166657,
      "v": 98
    },
    {
      "midi": 38,
      "hit": false,
      "t": 107776.69999999987,
      "d": 159.14192708332848,
      "v": 98
    },
    {
      "midi": 45,
      "hit": false,
      "t": 108332.24999999985,
      "d": 98.3786458333343,
      "v": 85
    },
    {
      "midi": 38,
      "hit": false,
      "t": 108332.24999999985,
      "d": 130.20703125,
      "v": 98
    },
    {
      "midi": 45,
      "hit": false,
      "t": 108887.79999999986,
      "d": 104.16562499999418,
      "v": 81
    },
    {
      "midi": 38,
      "hit": false,
      "t": 108887.79999999986,
      "d": 127.31354166666279,
      "v": 90
    },
    {
      "midi": 45,
      "hit": false,
      "t": 109443.34999999986,
      "d": 118.6330729166657,
      "v": 90
    },
    {
      "midi": 38,
      "hit": false,
      "t": 109443.34999999986,
      "d": 127.31354166666279,
      "v": 98
    },
    {
      "midi": 50,
      "hit": false,
      "t": 109998.89999999986,
      "d": 92.59166666665988,
      "v": 90
    },
    {
      "midi": 43,
      "hit": false,
      "t": 109998.89999999986,
      "d": 127.31354166666279,
      "v": 103
    },
    {
      "midi": 50,
      "hit": false,
      "t": 110554.44999999987,
      "d": 81.01770833334012,
      "v": 90
    },
    {
      "midi": 43,
      "hit": false,
      "t": 110554.44999999987,
      "d": 112.84609375000582,
      "v": 98
    },
    {
      "midi": 43,
      "hit": false,
      "t": 111109.99999999987,
      "d": 127.31354166666279,
      "v": 103
    },
    {
      "midi": 50,
      "hit": false,
      "t": 111109.99999999987,
      "d": 141.7809895833343,
      "v": 90
    },
    {
      "midi": 50,
      "hit": false,
      "t": 111665.54999999987,
      "d": 81.01770833334012,
      "v": 81
    },
    {
      "midi": 43,
      "hit": false,
      "t": 111665.54999999987,
      "d": 115.73958333334303,
      "v": 98
    },
    {
      "midi": 45,
      "hit": false,
      "t": 112221.09999999987,
      "d": 92.59166666665988,
      "v": 94
    },
    {
      "midi": 38,
      "hit": false,
      "t": 112221.09999999987,
      "d": 127.31354166666279,
      "v": 103
    },
    {
      "midi": 45,
      "hit": false,
      "t": 112776.64999999988,
      "d": 83.91119791666279,
      "v": 65
    },
    {
      "midi": 38,
      "hit": false,
      "t": 112776.64999999988,
      "d": 124.42005208332557,
      "v": 98
    },
    {
      "midi": 45,
      "hit": false,
      "t": 113332.19999999987,
      "d": 104.16562499999418,
      "v": 81
    },
    {
      "midi": 38,
      "hit": false,
      "t": 113332.19999999987,
      "d": 115.73958333332848,
      "v": 98
    },
    {
      "midi": 45,
      "hit": false,
      "t": 113887.74999999985,
      "d": 92.59166666665988,
      "v": 98
    },
    {
      "midi": 38,
      "hit": false,
      "t": 113887.74999999985,
      "d": 98.37864583331975,
      "v": 103
    },
    {
      "midi": 52,
      "hit": false,
      "t": 114443.29999999984,
      "d": 92.59166666665988,
      "v": 77
    },
    {
      "midi": 45,
      "hit": false,
      "t": 114443.29999999984,
      "d": 135.99401041665988,
      "v": 103
    },
    {
      "midi": 52,
      "hit": false,
      "t": 114998.84999999983,
      "d": 118.6330729166657,
      "v": 81
    },
    {
      "midi": 45,
      "hit": false,
      "t": 114998.84999999983,
      "d": 130.20703125,
      "v": 103
    },
    {
      "midi": 52,
      "hit": false,
      "t": 115554.39999999983,
      "d": 355.8992187499971,
      "v": 98
    },
    {
      "midi": 45,
      "hit": false,
      "t": 115554.39999999983,
      "d": 387.7276041666628,
      "v": 107
    },
    {
      "midi": 51,
      "hit": false,
      "t": 116109.94999999984,
      "d": 240.1596354166686,
      "v": 81
    },
    {
      "midi": 44,
      "hit": false,
      "t": 116109.94999999984,
      "d": 248.8401041666657,
      "v": 90
    },
    {
      "midi": 50,
      "hit": false,
      "t": 116665.49999999984,
      "d": 81.01770833334012,
      "v": 90
    },
    {
      "midi": 43,
      "hit": false,
      "t": 116665.49999999984,
      "d": 115.73958333334303,
      "v": 98
    },
    {
      "midi": 50,
      "hit": false,
      "t": 117221.04999999984,
      "d": 115.73958333332848,
      "v": 98
    },
    {
      "midi": 43,
      "hit": false,
      "t": 117221.04999999984,
      "d": 135.99401041665988,
      "v": 107
    },
    {
      "midi": 50,
      "hit": false,
      "t": 117776.59999999983,
      "d": 95.48515624999709,
      "v": 94
    },
    {
      "midi": 43,
      "hit": false,
      "t": 117776.59999999983,
      "d": 127.31354166666279,
      "v": 98
    },
    {
      "midi": 50,
      "hit": false,
      "t": 118332.14999999983,
      "d": 95.48515624999709,
      "v": 94
    },
    {
      "midi": 43,
      "hit": false,
      "t": 118332.14999999983,
      "d": 115.73958333332848,
      "v": 103
    },
    {
      "midi": 50,
      "hit": false,
      "t": 118887.69999999982,
      "d": 78.12421875000291,
      "v": 81
    },
    {
      "midi": 43,
      "hit": false,
      "t": 118887.69999999982,
      "d": 112.84609375000582,
      "v": 107
    },
    {
      "midi": 50,
      "hit": false,
      "t": 119443.24999999983,
      "d": 81.01770833334012,
      "v": 77
    },
    {
      "midi": 43,
      "hit": false,
      "t": 119443.24999999983,
      "d": 115.73958333334303,
      "v": 112
    },
    {
      "midi": 50,
      "hit": false,
      "t": 119998.79999999983,
      "d": 72.33723958332848,
      "v": 77
    },
    {
      "midi": 43,
      "hit": false,
      "t": 119998.79999999983,
      "d": 115.73958333332848,
      "v": 107
    },
    {
      "midi": 50,
      "hit": false,
      "t": 120554.34999999982,
      "d": 86.8046875,
      "v": 81
    },
    {
      "midi": 43,
      "hit": false,
      "t": 120554.34999999982,
      "d": 98.3786458333343,
      "v": 103
    },
    {
      "midi": 52,
      "hit": false,
      "t": 121109.89999999982,
      "d": 75.2307291666657,
      "v": 77
    },
    {
      "midi": 45,
      "hit": false,
      "t": 121109.89999999982,
      "d": 124.42005208332557,
      "v": 107
    },
    {
      "midi": 52,
      "hit": false,
      "t": 121665.44999999981,
      "d": 92.59166666665988,
      "v": 65
    },
    {
      "midi": 45,
      "hit": false,
      "t": 121665.44999999981,
      "d": 115.73958333332848,
      "v": 98
    },
    {
      "midi": 52,
      "hit": false,
      "t": 122220.9999999998,
      "d": 95.48515624999709,
      "v": 77
    },
    {
      "midi": 45,
      "hit": false,
      "t": 122220.9999999998,
      "d": 127.31354166666279,
      "v": 98
    },
    {
      "midi": 52,
      "hit": false,
      "t": 122776.5499999998,
      "d": 89.69817708333721,
      "v": 94
    },
    {
      "midi": 45,
      "hit": false,
      "t": 122776.5499999998,
      "d": 115.73958333334303,
      "v": 107
    },
    {
      "midi": 52,
      "hit": false,
      "t": 123332.0999999998,
      "d": 81.01770833334012,
      "v": 85
    },
    {
      "midi": 45,
      "hit": false,
      "t": 123332.0999999998,
      "d": 109.9526041666686,
      "v": 103
    },
    {
      "midi": 52,
      "hit": false,
      "t": 123887.6499999998,
      "d": 101.27213541667152,
      "v": 94
    },
    {
      "midi": 45,
      "hit": false,
      "t": 123887.6499999998,
      "d": 104.16562500000873,
      "v": 103
    },
    {
      "midi": 52,
      "hit": false,
      "t": 124443.19999999981,
      "d": 86.8046875,
      "v": 77
    },
    {
      "midi": 45,
      "hit": false,
      "t": 124443.19999999981,
      "d": 112.84609375000582,
      "v": 107
    },
    {
      "midi": 52,
      "hit": false,
      "t": 124998.74999999981,
      "d": 81.01770833334012,
      "v": 90
    },
    {
      "midi": 45,
      "hit": false,
      "t": 124998.74999999981,
      "d": 104.16562500000873,
      "v": 107
    },
    {
      "midi": 45,
      "hit": false,
      "t": 125554.29999999981,
      "d": 121.52656250000291,
      "v": 85
    },
    {
      "midi": 38,
      "hit": false,
      "t": 125554.29999999981,
      "d": 130.20703125,
      "v": 103
    },
    {
      "midi": 38,
      "hit": false,
      "t": 126109.84999999982,
      "d": 138.8874999999971,
      "v": 103
    },
    {
      "midi": 45,
      "hit": false,
      "t": 126109.84999999982,
      "d": 138.8874999999971,
      "v": 85
    },
    {
      "midi": 45,
      "hit": false,
      "t": 126665.39999999982,
      "d": 127.31354166666279,
      "v": 81
    },
    {
      "midi": 38,
      "hit": false,
      "t": 126665.39999999982,
      "d": 135.99401041665988,
      "v": 98
    },
    {
      "midi": 38,
      "hit": false,
      "t": 127220.94999999981,
      "d": 121.52656250000291,
      "v": 94
    },
    {
      "midi": 45,
      "hit": false,
      "t": 127220.94999999981,
      "d": 130.20703125,
      "v": 77
    },
    {
      "midi": 50,
      "hit": false,
      "t": 127776.49999999981,
      "d": 144.67447916667152,
      "v": 81
    },
    {
      "midi": 43,
      "hit": false,
      "t": 127776.49999999981,
      "d": 150.4614583333314,
      "v": 103
    },
    {
      "midi": 43,
      "hit": false,
      "t": 128332.04999999981,
      "d": 144.67447916667152,
      "v": 103
    },
    {
      "midi": 50,
      "hit": false,
      "t": 128332.04999999981,
      "d": 153.3549479166686,
      "v": 81
    },
    {
      "midi": 52,
      "hit": false,
      "t": 128887.59999999982,
      "d": 118.6330729166657,
      "v": 90
    },
    {
      "midi": 45,
      "hit": false,
      "t": 128887.59999999982,
      "d": 133.1005208333372,
      "v": 103
    },
    {
      "midi": 52,
      "hit": false,
      "t": 129443.14999999982,
      "d": 92.59166666665988,
      "v": 81
    },
    {
      "midi": 45,
      "hit": false,
      "t": 129443.14999999982,
      "d": 118.6330729166657,
      "v": 103
    },
    {
      "midi": 45,
      "hit": false,
      "t": 129998.69999999982,
      "d": 86.8046875,
      "v": 77
    },
    {
      "midi": 38,
      "hit": false,
      "t": 129998.69999999982,
      "d": 121.52656250000291,
      "v": 98
    },
    {
      "midi": 38,
      "hit": false,
      "t": 130554.24999999983,
      "d": 124.42005208334012,
      "v": 94
    },
    {
      "midi": 45,
      "hit": false,
      "t": 130554.24999999983,
      "d": 124.42005208334012,
      "v": 94
    },
    {
      "midi": 45,
      "hit": false,
      "t": 131109.79999999984,
      "d": 118.63307291668025,
      "v": 94
    },
    {
      "midi": 38,
      "hit": false,
      "t": 131109.79999999984,
      "d": 141.78098958334886,
      "v": 107
    },
    {
      "midi": 45,
      "hit": false,
      "t": 131665.34999999986,
      "d": 115.73958333334303,
      "v": 85
    },
    {
      "midi": 38,
      "hit": false,
      "t": 131665.34999999986,
      "d": 138.88750000001164,
      "v": 98
    },
    {
      "midi": 50,
      "hit": false,
      "t": 132220.89999999988,
      "d": 115.73958333334303,
      "v": 85
    },
    {
      "midi": 43,
      "hit": false,
      "t": 132220.89999999988,
      "d": 147.56796875002328,
      "v": 94
    },
    {
      "midi": 50,
      "hit": false,
      "t": 132776.4499999999,
      "d": 104.16562499999418,
      "v": 98
    },
    {
      "midi": 43,
      "hit": false,
      "t": 132776.4499999999,
      "d": 127.31354166666279,
      "v": 107
    },
    {
      "midi": 52,
      "hit": false,
      "t": 133331.99999999988,
      "d": 133.1005208333372,
      "v": 81
    },
    {
      "midi": 45,
      "hit": false,
      "t": 133331.99999999988,
      "d": 147.56796874999418,
      "v": 103
    },
    {
      "midi": 52,
      "hit": false,
      "t": 133887.54999999987,
      "d": 95.48515625001164,
      "v": 94
    },
    {
      "midi": 45,
      "hit": false,
      "t": 133887.54999999987,
      "d": 115.73958333334303,
      "v": 112
    },
    {
      "midi": 45,
      "hit": false,
      "t": 134443.0999999999,
      "d": 52.08281250001164,
      "v": 67
    },
    {
      "midi": 38,
      "hit": false,
      "t": 134443.0999999999,
      "d": 135.99401041667443,
      "v": 98
    },
    {
      "midi": 45,
      "hit": false,
      "t": 134998.6499999999,
      "d": 95.48515625001164,
      "v": 98
    },
    {
      "midi": 38,
      "hit": false,
      "t": 134998.6499999999,
      "d": 121.52656250001746,
      "v": 98
    },
    {
      "midi": 45,
      "hit": false,
      "t": 135554.19999999992,
      "d": 104.16562499999418,
      "v": 90
    },
    {
      "midi": 38,
      "hit": false,
      "t": 135554.19999999992,
      "d": 141.78098958331975,
      "v": 107
    },
    {
      "midi": 45,
      "hit": false,
      "t": 136109.7499999999,
      "d": 107.0591145833314,
      "v": 85
    },
    {
      "midi": 38,
      "hit": false,
      "t": 136109.7499999999,
      "d": 121.52656249998836,
      "v": 98
    },
    {
      "midi": 45,
      "hit": false,
      "t": 137776.3999999999,
      "d": 410.8755208333314,
      "v": 85
    },
    {
      "midi": 45,
      "hit": false,
      "t": 138331.9499999999,
      "d": 413.7690104166686,
      "v": 77
    },
    {
      "midi": 52,
      "hit": false,
      "t": 138887.49999999988,
      "d": 370.3666666666686,
      "v": 81
    },
    {
      "midi": 45,
      "hit": false,
      "t": 138887.49999999988,
      "d": 381.94062499998836,
      "v": 81
    },
    {
      "midi": 57,
      "hit": false,
      "t": 139443.04999999987,
      "d": 309.6033854166744,
      "v": 77
    },
    {
      "midi": 52,
      "hit": false,
      "t": 139443.04999999987,
      "d": 358.79270833334886,
      "v": 81
    },
    {
      "midi": 45,
      "hit": false,
      "t": 139443.04999999987,
      "d": 367.4731770833605,
      "v": 73
    },
    {
      "midi": 45,
      "hit": false,
      "t": 139998.5999999999,
      "d": 353.0057291666744,
      "v": 90
    },
    {
      "midi": 57,
      "hit": false,
      "t": 139998.5999999999,
      "d": 364.5796874999942,
      "v": 94
    },
    {
      "midi": 52,
      "hit": false,
      "t": 139998.5999999999,
      "d": 373.2601562500058,
      "v": 81
    },
    {
      "midi": 57,
      "hit": false,
      "t": 140554.1499999999,
      "d": 376.15364583334303,
      "v": 98
    },
    {
      "midi": 45,
      "hit": false,
      "t": 140554.1499999999,
      "d": 390.62109375,
      "v": 98
    },
    {
      "midi": 52,
      "hit": false,
      "t": 140554.1499999999,
      "d": 390.62109375,
      "v": 98
    },
    {
      "midi": 45,
      "hit": false,
      "t": 141109.6999999999,
      "d": 367.4731770833314,
      "v": 98
    },
    {
      "midi": 57,
      "hit": false,
      "t": 141109.6999999999,
      "d": 367.4731770833314,
      "v": 98
    },
    {
      "midi": 52,
      "hit": false,
      "t": 141109.6999999999,
      "d": 381.94062499998836,
      "v": 103
    },
    {
      "midi": 52,
      "hit": false,
      "t": 141665.24999999988,
      "d": 243.05312500000582,
      "v": 107
    },
    {
      "midi": 45,
      "hit": false,
      "t": 141665.24999999988,
      "d": 254.62708333332557,
      "v": 107
    },
    {
      "midi": 57,
      "hit": false,
      "t": 141665.24999999988,
      "d": 269.09453124998254,
      "v": 103
    },
    {
      "midi": 69,
      "hit": false,
      "t": 142220.79999999984,
      "d": 335.64479166665114,
      "v": 94
    },
    {
      "midi": 50,
      "hit": false,
      "t": 142220.79999999984,
      "d": 341.4317708333256,
      "v": 112
    },
    {
      "midi": 57,
      "hit": false,
      "t": 142220.79999999984,
      "d": 347.21875,
      "v": 94
    },
    {
      "midi": 62,
      "hit": false,
      "t": 142220.79999999984,
      "d": 370.3666666666686,
      "v": 103
    },
    {
      "midi": 66,
      "hit": false,
      "t": 142220.79999999984,
      "d": 381.94062499998836,
      "v": 94
    },
    {
      "midi": 50,
      "hit": false,
      "t": 142776.34999999983,
      "d": 257.5205729166919,
      "v": 98
    },
    {
      "midi": 57,
      "hit": false,
      "t": 142776.34999999983,
      "d": 257.5205729166919,
      "v": 81
    },
    {
      "midi": 62,
      "hit": false,
      "t": 142776.34999999983,
      "d": 361.68619791668607,
      "v": 94
    },
    {
      "midi": 66,
      "hit": false,
      "t": 142776.34999999983,
      "d": 405.08854166668607,
      "v": 94
    },
    {
      "midi": 69,
      "hit": false,
      "t": 143331.89999999985,
      "d": 355.89921875001164,
      "v": 98
    },
    {
      "midi": 62,
      "hit": false,
      "t": 143331.89999999985,
      "d": 370.3666666666686,
      "v": 94
    },
    {
      "midi": 66,
      "hit": false,
      "t": 143331.89999999985,
      "d": 370.3666666666686,
      "v": 94
    },
    {
      "midi": 57,
      "hit": false,
      "t": 143702.26666666652,
      "d": 118.63307291668025,
      "v": 81
    },
    {
      "midi": 50,
      "hit": false,
      "t": 143702.26666666652,
      "d": 133.1005208333372,
      "v": 94
    },
    {
      "midi": 66,
      "hit": false,
      "t": 143887.44999999984,
      "d": 78.12421874998836,
      "v": 90
    },
    {
      "midi": 69,
      "hit": false,
      "t": 143887.44999999984,
      "d": 83.91119791666279,
      "v": 98
    },
    {
      "midi": 62,
      "hit": false,
      "t": 143887.44999999984,
      "d": 104.16562499999418,
      "v": 94
    },
    {
      "midi": 59,
      "hit": false,
      "t": 144257.8166666665,
      "d": 115.73958333334303,
      "v": 90
    },
    {
      "midi": 62,
      "hit": false,
      "t": 144257.8166666665,
      "d": 150.4614583333314,
      "v": 94
    },
    {
      "midi": 55,
      "hit": false,
      "t": 144257.8166666665,
      "d": 153.3549479166686,
      "v": 94
    },
    {
      "midi": 62,
      "hit": false,
      "t": 144442.99999999985,
      "d": 370.3666666666686,
      "v": 94
    },
    {
      "midi": 55,
      "hit": false,
      "t": 144442.99999999985,
      "d": 376.15364583334303,
      "v": 81
    },
    {
      "midi": 59,
      "hit": false,
      "t": 144442.99999999985,
      "d": 376.15364583334303,
      "v": 98
    },
    {
      "midi": 43,
      "hit": false,
      "t": 144813.36666666652,
      "d": 671.2895833333605,
      "v": 65
    },
    {
      "midi": 59,
      "hit": false,
      "t": 144998.54999999987,
      "d": 387.7276041666628,
      "v": 94
    },
    {
      "midi": 62,
      "hit": false,
      "t": 144998.54999999987,
      "d": 396.4080729166744,
      "v": 98
    },
    {
      "midi": 55,
      "hit": false,
      "t": 144998.54999999987,
      "d": 402.19505208334886,
      "v": 81
    },
    {
      "midi": 50,
      "hit": false,
      "t": 145368.91666666654,
      "d": 138.88750000001164,
      "v": 94
    },
    {
      "midi": 55,
      "hit": false,
      "t": 145554.0999999999,
      "d": 436.9169270833372,
      "v": 81
    },
    {
      "midi": 62,
      "hit": false,
      "t": 145554.0999999999,
      "d": 436.9169270833372,
      "v": 103
    },
    {
      "midi": 57,
      "hit": false,
      "t": 145554.0999999999,
      "d": 445.59739583334886,
      "v": 98
    },
    {
      "midi": 43,
      "hit": false,
      "t": 145924.46666666656,
      "d": 219.9052083333372,
      "v": 90
    },
    {
      "midi": 59,
      "hit": false,
      "t": 146109.6499999999,
      "d": 101.27213541665697,
      "v": 98
    },
    {
      "midi": 55,
      "hit": false,
      "t": 146109.6499999999,
      "d": 130.20703125,
      "v": 81
    },
    {
      "midi": 62,
      "hit": false,
      "t": 146109.6499999999,
      "d": 130.20703125,
      "v": 98
    },
    {
      "midi": 62,
      "hit": false,
      "t": 146665.19999999992,
      "d": 448.49088541665697,
      "v": 94
    },
    {
      "midi": 54,
      "hit": false,
      "t": 146665.19999999992,
      "d": 468.74531249998836,
      "v": 77
    },
    {
      "midi": 57,
      "hit": false,
      "t": 146665.19999999992,
      "d": 468.74531249998836,
      "v": 90
    },
    {
      "midi": 50,
      "hit": false,
      "t": 147220.7499999999,
      "d": 295.13593750001746,
      "v": 98
    },
    {
      "midi": 62,
      "hit": false,
      "t": 147220.7499999999,
      "d": 387.7276041666919,
      "v": 94
    },
    {
      "midi": 54,
      "hit": false,
      "t": 147220.7499999999,
      "d": 410.8755208333605,
      "v": 69
    },
    {
      "midi": 57,
      "hit": false,
      "t": 147220.7499999999,
      "d": 416.6625000000349,
      "v": 90
    },
    {
      "midi": 50,
      "hit": false,
      "t": 147591.1166666666,
      "d": 127.31354166666279,
      "v": 77
    },
    {
      "midi": 62,
      "hit": false,
      "t": 147776.29999999993,
      "d": 425.34296874998836,
      "v": 94
    },
    {
      "midi": 54,
      "hit": false,
      "t": 147776.29999999993,
      "d": 439.8104166666453,
      "v": 64
    },
    {
      "midi": 57,
      "hit": false,
      "t": 147776.29999999993,
      "d": 448.49088541665697,
      "v": 81
    },
    {
      "midi": 50,
      "hit": false,
      "t": 148146.6666666666,
      "d": 214.11822916663368,
      "v": 98
    },
    {
      "midi": 54,
      "hit": false,
      "t": 148331.84999999992,
      "d": 269.09453124995343,
      "v": 77
    },
    {
      "midi": 57,
      "hit": false,
      "t": 148331.84999999992,
      "d": 283.5619791666104,
      "v": 98
    },
    {
      "midi": 62,
      "hit": false,
      "t": 148331.84999999992,
      "d": 318.28385416659876,
      "v": 98
    },
    {
      "midi": 52,
      "hit": false,
      "t": 148702.21666666653,
      "d": 150.4614583333314,
      "v": 94
    },
    {
      "midi": 64,
      "hit": false,
      "t": 148887.39999999985,
      "d": 393.5145833333081,
      "v": 94
    },
    {
      "midi": 57,
      "hit": false,
      "t": 148887.39999999985,
      "d": 422.44947916665114,
      "v": 94
    },
    {
      "midi": 61,
      "hit": false,
      "t": 148887.39999999985,
      "d": 451.3843749999942,
      "v": 94
    },
    {
      "midi": 45,
      "hit": false,
      "t": 148887.39999999985,
      "d": 653.9286458333081,
      "v": 112
    },
    {
      "midi": 64,
      "hit": false,
      "t": 149442.94999999984,
      "d": 405.08854166662786,
      "v": 98
    },
    {
      "midi": 57,
      "hit": false,
      "t": 149442.94999999984,
      "d": 407.9820312499651,
      "v": 94
    },
    {
      "midi": 61,
      "hit": false,
      "t": 149442.94999999984,
      "d": 431.1299479166337,
      "v": 90
    },
    {
      "midi": 45,
      "hit": false,
      "t": 149813.31666666648,
      "d": 72.33723958331393,
      "v": 90
    },
    {
      "midi": 52,
      "hit": false,
      "t": 149813.31666666648,
      "d": 89.69817708330811,
      "v": 77
    },
    {
      "midi": 57,
      "hit": false,
      "t": 149998.49999999977,
      "d": 159.14192708334303,
      "v": 98
    },
    {
      "midi": 64,
      "hit": false,
      "t": 149998.49999999977,
      "d": 159.14192708334303,
      "v": 103
    },
    {
      "midi": 52,
      "hit": false,
      "t": 149998.49999999977,
      "d": 164.92890625001746,
      "v": 94
    },
    {
      "midi": 45,
      "hit": false,
      "t": 149998.49999999977,
      "d": 176.5028645833372,
      "v": 112
    },
    {
      "midi": 61,
      "hit": false,
      "t": 149998.49999999977,
      "d": 176.5028645833372,
      "v": 94
    },
    {
      "midi": 44,
      "hit": false,
      "t": 150554.04999999976,
      "d": 211.22473958335468,
      "v": 103
    },
    {
      "midi": 56,
      "hit": false,
      "t": 150554.04999999976,
      "d": 228.58567708334886,
      "v": 98
    },
    {
      "midi": 62,
      "hit": false,
      "t": 151109.59999999977,
      "d": 431.1299479166919,
      "v": 94
    },
    {
      "midi": 55,
      "hit": false,
      "t": 151109.59999999977,
      "d": 439.81041666670353,
      "v": 90
    },
    {
      "midi": 59,
      "hit": false,
      "t": 151109.59999999977,
      "d": 439.81041666670353,
      "v": 94
    },
    {
      "midi": 43,
      "hit": false,
      "t": 151109.59999999977,
      "d": 512.1476562500466,
      "v": 103
    },
    {
      "midi": 62,
      "hit": false,
      "t": 151665.14999999982,
      "d": 399.30156250001164,
      "v": 103
    },
    {
      "midi": 55,
      "hit": false,
      "t": 151665.14999999982,
      "d": 405.08854166668607,
      "v": 94
    },
    {
      "midi": 59,
      "hit": false,
      "t": 151665.14999999982,
      "d": 405.08854166668607,
      "v": 103
    },
    {
      "midi": 43,
      "hit": false,
      "t": 152035.5166666665,
      "d": 185.18333333334886,
      "v": 81
    },
    {
      "midi": 62,
      "hit": false,
      "t": 152220.69999999984,
      "d": 150.4614583333314,
      "v": 98
    },
    {
      "midi": 59,
      "hit": false,
      "t": 152220.69999999984,
      "d": 156.24843750000582,
      "v": 103
    },
    {
      "midi": 55,
      "hit": false,
      "t": 152220.69999999984,
      "d": 170.7158854166628,
      "v": 94
    },
    {
      "midi": 55,
      "hit": false,
      "t": 152591.0666666665,
      "d": 286.4554687499767,
      "v": 85
    },
    {
      "midi": 59,
      "hit": false,
      "t": 152591.0666666665,
      "d": 289.34895833331393,
      "v": 98
    },
    {
      "midi": 62,
      "hit": false,
      "t": 152591.0666666665,
      "d": 289.34895833331393,
      "v": 98
    },
    {
      "midi": 50,
      "hit": false,
      "t": 152776.24999999983,
      "d": 115.73958333331393,
      "v": 98
    },
    {
      "midi": 62,
      "hit": false,
      "t": 152961.43333333315,
      "d": 133.1005208333372,
      "v": 90
    },
    {
      "midi": 55,
      "hit": false,
      "t": 152961.43333333315,
      "d": 138.88750000001164,
      "v": 85
    },
    {
      "midi": 59,
      "hit": false,
      "t": 152961.43333333315,
      "d": 138.88750000001164,
      "v": 94
    },
    {
      "midi": 50,
      "hit": false,
      "t": 153146.6166666665,
      "d": 95.48515625001164,
      "v": 103
    },
    {
      "midi": 53,
      "hit": false,
      "t": 153331.79999999984,
      "d": 370.3666666666686,
      "v": 94
    },
    {
      "midi": 62,
      "hit": false,
      "t": 153331.79999999984,
      "d": 376.15364583334303,
      "v": 98
    },
    {
      "midi": 59,
      "hit": false,
      "t": 153331.79999999984,
      "d": 384.8341145833547,
      "v": 94
    },
    {
      "midi": 53,
      "hit": false,
      "t": 153887.34999999986,
      "d": 355.89921874998254,
      "v": 94
    },
    {
      "midi": 59,
      "hit": false,
      "t": 153887.34999999986,
      "d": 376.15364583331393,
      "v": 98
    },
    {
      "midi": 62,
      "hit": false,
      "t": 153887.34999999986,
      "d": 376.15364583331393,
      "v": 98
    },
    {
      "midi": 43,
      "hit": false,
      "t": 154257.7166666665,
      "d": 127.31354166666279,
      "v": 98
    },
    {
      "midi": 53,
      "hit": false,
      "t": 154442.89999999982,
      "d": 370.3666666666686,
      "v": 77
    },
    {
      "midi": 59,
      "hit": false,
      "t": 154442.89999999982,
      "d": 399.30156250001164,
      "v": 94
    },
    {
      "midi": 62,
      "hit": false,
      "t": 154442.89999999982,
      "d": 399.30156250001164,
      "v": 94
    },
    {
      "midi": 43,
      "hit": false,
      "t": 154813.2666666665,
      "d": 133.1005208333372,
      "v": 85
    },
    {
      "midi": 53,
      "hit": false,
      "t": 154998.44999999984,
      "d": 81.01770833332557,
      "v": 90
    },
    {
      "midi": 59,
      "hit": false,
      "t": 154998.44999999984,
      "d": 101.27213541665697,
      "v": 103
    },
    {
      "midi": 62,
      "hit": false,
      "t": 154998.44999999984,
      "d": 121.52656249998836,
      "v": 103
    },
    {
      "midi": 64,
      "hit": false,
      "t": 155553.99999999983,
      "d": 384.8341145833547,
      "v": 90
    },
    {
      "midi": 57,
      "hit": false,
      "t": 155553.99999999983,
      "d": 405.08854166668607,
      "v": 85
    },
    {
      "midi": 61,
      "hit": false,
      "t": 155553.99999999983,
      "d": 410.8755208333605,
      "v": 90
    },
    {
      "midi": 45,
      "hit": false,
      "t": 155553.99999999983,
      "d": 607.6328125000291,
      "v": 94
    },
    {
      "midi": 52,
      "hit": false,
      "t": 155553.99999999983,
      "d": 624.9937500000233,
      "v": 77
    },
    {
      "midi": 61,
      "hit": false,
      "t": 156109.54999999984,
      "d": 416.6625000000058,
      "v": 81
    },
    {
      "midi": 57,
      "hit": false,
      "t": 156109.54999999984,
      "d": 419.55598958334303,
      "v": 90
    },
    {
      "midi": 64,
      "hit": false,
      "t": 156109.54999999984,
      "d": 428.2364583333547,
      "v": 94
    },
    {
      "midi": 45,
      "hit": false,
      "t": 156479.9166666665,
      "d": 72.33723958334303,
      "v": 52
    },
    {
      "midi": 52,
      "hit": false,
      "t": 156479.9166666665,
      "d": 127.31354166666279,
      "v": 62
    },
    {
      "midi": 64,
      "hit": false,
      "t": 156665.09999999986,
      "d": 350.1122395833372,
      "v": 94
    },
    {
      "midi": 61,
      "hit": false,
      "t": 156665.09999999986,
      "d": 358.79270833334886,
      "v": 81
    },
    {
      "midi": 57,
      "hit": false,
      "t": 156665.09999999986,
      "d": 367.4731770833605,
      "v": 85
    },
    {
      "midi": 45,
      "hit": false,
      "t": 157035.46666666656,
      "d": 101.27213541665697,
      "v": 90
    },
    {
      "midi": 52,
      "hit": false,
      "t": 157035.46666666656,
      "d": 115.73958333331393,
      "v": 73
    },
    {
      "midi": 57,
      "hit": false,
      "t": 157220.64999999988,
      "d": 361.68619791665697,
      "v": 60
    },
    {
      "midi": 64,
      "hit": false,
      "t": 157220.64999999988,
      "d": 396.4080729166744,
      "v": 81
    },
    {
      "midi": 61,
      "hit": false,
      "t": 157220.64999999988,
      "d": 413.7690104166686,
      "v": 61
    },
    {
      "midi": 45,
      "hit": false,
      "t": 157591.01666666655,
      "d": 876.7273437499825,
      "v": 90
    },
    {
      "midi": 52,
      "hit": false,
      "t": 157591.01666666655,
      "d": 888.3013020833023,
      "v": 81
    },
    {
      "midi": 57,
      "hit": false,
      "t": 157776.19999999987,
      "d": 358.79270833331975,
      "v": 73
    },
    {
      "midi": 64,
      "hit": false,
      "t": 157776.19999999987,
      "d": 358.79270833331975,
      "v": 90
    },
    {
      "midi": 61,
      "hit": false,
      "t": 157776.19999999987,
      "d": 376.15364583331393,
      "v": 67
    },
    {
      "midi": 57,
      "hit": false,
      "t": 158331.74999999985,
      "d": 361.68619791665697,
      "v": 90
    },
    {
      "midi": 64,
      "hit": false,
      "t": 158331.74999999985,
      "d": 361.68619791665697,
      "v": 94
    },
    {
      "midi": 61,
      "hit": false,
      "t": 158331.74999999985,
      "d": 387.7276041666628,
      "v": 90
    },
    {
      "midi": 45,
      "hit": false,
      "t": 158702.11666666652,
      "d": 636.5677083333139,
      "v": 107
    },
    {
      "midi": 52,
      "hit": false,
      "t": 158702.11666666652,
      "d": 645.2481770833256,
      "v": 90
    },
    {
      "midi": 64,
      "hit": false,
      "t": 158887.29999999984,
      "d": 95.48515625001164,
      "v": 90
    },
    {
      "midi": 57,
      "hit": false,
      "t": 158887.29999999984,
      "d": 107.0591145833314,
      "v": 81
    },
    {
      "midi": 61,
      "hit": false,
      "t": 158887.29999999984,
      "d": 112.84609375000582,
      "v": 81
    },
    {
      "midi": 57,
      "hit": false,
      "t": 159257.6666666665,
      "d": 269.09453125001164,
      "v": 103
    },
    {
      "midi": 61,
      "hit": false,
      "t": 159257.6666666665,
      "d": 269.09453125001164,
      "v": 94
    },
    {
      "midi": 64,
      "hit": false,
      "t": 159257.6666666665,
      "d": 274.88151041668607,
      "v": 107
    },
    {
      "midi": 52,
      "hit": false,
      "t": 159442.84999999986,
      "d": 199.65078124997672,
      "v": 90
    },
    {
      "midi": 45,
      "hit": false,
      "t": 159442.84999999986,
      "d": 211.22473958329647,
      "v": 98
    },
    {
      "midi": 57,
      "hit": false,
      "t": 159628.03333333318,
      "d": 121.52656249998836,
      "v": 98
    },
    {
      "midi": 61,
      "hit": false,
      "t": 159628.03333333318,
      "d": 121.52656249998836,
      "v": 98
    },
    {
      "midi": 64,
      "hit": false,
      "t": 159628.03333333318,
      "d": 127.31354166666279,
      "v": 103
    },
    {
      "midi": 50,
      "hit": false,
      "t": 159998.39999999982,
      "d": 167.82239583332557,
      "v": 107
    },
    {
      "midi": 57,
      "hit": false,
      "t": 159998.39999999982,
      "d": 208.33124999998836,
      "v": 94
    },
    {
      "midi": 69,
      "hit": false,
      "t": 159998.39999999982,
      "d": 254.62708333332557,
      "v": 98
    },
    {
      "midi": 66,
      "hit": false,
      "t": 159998.39999999982,
      "d": 266.2010416666453,
      "v": 90
    },
    {
      "midi": 62,
      "hit": false,
      "t": 159998.39999999982,
      "d": 271.98802083331975,
      "v": 94
    },
    {
      "midi": 50,
      "hit": false,
      "t": 160553.9499999998,
      "d": 112.84609375000582,
      "v": 103
    },
    {
      "midi": 57,
      "hit": false,
      "t": 160553.9499999998,
      "d": 156.24843750000582,
      "v": 98
    },
    {
      "midi": 69,
      "hit": false,
      "t": 160553.9499999998,
      "d": 234.37265624999418,
      "v": 98
    },
    {
      "midi": 66,
      "hit": false,
      "t": 160553.9499999998,
      "d": 263.3075520833372,
      "v": 90
    },
    {
      "midi": 62,
      "hit": false,
      "t": 160553.9499999998,
      "d": 274.88151041665697,
      "v": 90
    },
    {
      "midi": 62,
      "hit": false,
      "t": 161109.4999999998,
      "d": 83.91119791666279,
      "v": 103
    },
    {
      "midi": 66,
      "hit": false,
      "t": 161109.4999999998,
      "d": 89.69817708333721,
      "v": 98
    },
    {
      "midi": 50,
      "hit": false,
      "t": 161109.4999999998,
      "d": 107.0591145833314,
      "v": 103
    },
    {
      "midi": 69,
      "hit": false,
      "t": 161109.4999999998,
      "d": 107.0591145833314,
      "v": 112
    },
    {
      "midi": 57,
      "hit": false,
      "t": 161109.4999999998,
      "d": 121.52656249998836,
      "v": 98
    },
    {
      "midi": 55,
      "hit": false,
      "t": 161665.04999999978,
      "d": 691.5440104166628,
      "v": 107
    },
    {
      "midi": 62,
      "hit": false,
      "t": 161665.04999999978,
      "d": 691.5440104166628,
      "v": 118
    },
    {
      "midi": 71,
      "hit": false,
      "t": 161665.04999999978,
      "d": 960.6385416666453,
      "v": 112
    },
    {
      "midi": 74,
      "hit": false,
      "t": 161665.04999999978,
      "d": 960.6385416666453,
      "v": 112
    },
    {
      "midi": 67,
      "hit": false,
      "t": 161665.04999999978,
      "d": 972.2124999999651,
      "v": 98
    },
    {
      "midi": 62,
      "hit": false,
      "t": 162590.96666666644,
      "d": 86.8046874999709,
      "v": 112
    },
    {
      "midi": 55,
      "hit": false,
      "t": 162590.96666666644,
      "d": 98.37864583329065,
      "v": 112
    },
    {
      "midi": 71,
      "hit": false,
      "t": 162776.14999999973,
      "d": 92.59166666667443,
      "v": 98
    },
    {
      "midi": 74,
      "hit": false,
      "t": 162776.14999999973,
      "d": 124.42005208335468,
      "v": 98
    },
    {
      "midi": 67,
      "hit": false,
      "t": 162776.14999999973,
      "d": 138.88750000001164,
      "v": 98
    },
    {
      "midi": 55,
      "hit": false,
      "t": 163146.5166666664,
      "d": 92.59166666667443,
      "v": 98
    },
    {
      "midi": 62,
      "hit": false,
      "t": 163146.5166666664,
      "d": 92.59166666667443,
      "v": 98
    },
    {
      "midi": 64,
      "hit": false,
      "t": 163331.69999999975,
      "d": 57.869791666656965,
      "v": 55
    },
    {
      "midi": 57,
      "hit": false,
      "t": 163331.69999999975,
      "d": 78.12421874998836,
      "v": 60
    },
    {
      "midi": 61,
      "hit": false,
      "t": 163331.69999999975,
      "d": 86.8046875,
      "v": 77
    },
    {
      "midi": 61,
      "hit": false,
      "t": 163887.24999999974,
      "d": 112.84609375000582,
      "v": 85
    },
    {
      "midi": 64,
      "hit": false,
      "t": 163887.24999999974,
      "d": 112.84609375000582,
      "v": 103
    },
    {
      "midi": 57,
      "hit": false,
      "t": 163887.24999999974,
      "d": 115.73958333334303,
      "v": 94
    },
    {
      "midi": 50,
      "hit": false,
      "t": 164442.79999999978,
      "d": 254.62708333332557,
      "v": 98
    },
    {
      "midi": 57,
      "hit": false,
      "t": 164442.79999999978,
      "d": 254.62708333332557,
      "v": 85
    },
    {
      "midi": 69,
      "hit": false,
      "t": 164442.79999999978,
      "d": 300.9229166666628,
      "v": 94
    },
    {
      "midi": 62,
      "hit": false,
      "t": 164442.79999999978,
      "d": 318.28385416665697,
      "v": 90
    },
    {
      "midi": 66,
      "hit": false,
      "t": 164442.79999999978,
      "d": 318.28385416665697,
      "v": 81
    },
    {
      "midi": 50,
      "hit": false,
      "t": 164998.34999999977,
      "d": 130.20703125,
      "v": 103
    },
    {
      "midi": 57,
      "hit": false,
      "t": 164998.34999999977,
      "d": 130.20703125,
      "v": 85
    },
    {
      "midi": 69,
      "hit": false,
      "t": 164998.34999999977,
      "d": 182.28984375001164,
      "v": 98
    },
    {
      "midi": 66,
      "hit": false,
      "t": 164998.34999999977,
      "d": 219.9052083333372,
      "v": 90
    },
    {
      "midi": 62,
      "hit": false,
      "t": 164998.34999999977,
      "d": 234.37265624999418,
      "v": 94
    },
    {
      "midi": 66,
      "hit": false,
      "t": 165553.89999999976,
      "d": 78.12421875001746,
      "v": 94
    },
    {
      "midi": 69,
      "hit": false,
      "t": 165553.89999999976,
      "d": 78.12421875001746,
      "v": 103
    },
    {
      "midi": 57,
      "hit": false,
      "t": 165553.89999999976,
      "d": 92.59166666667443,
      "v": 94
    },
    {
      "midi": 50,
      "hit": false,
      "t": 165553.89999999976,
      "d": 95.48515625001164,
      "v": 103
    },
    {
      "midi": 62,
      "hit": false,
      "t": 165553.89999999976,
      "d": 101.27213541668607,
      "v": 103
    },
    {
      "midi": 59,
      "hit": false,
      "t": 166109.44999999978,
      "d": 1041.65625,
      "v": 107
    },
    {
      "midi": 62,
      "hit": false,
      "t": 166109.44999999978,
      "d": 1053.2302083333198,
      "v": 107
    },
    {
      "midi": 55,
      "hit": false,
      "t": 166109.44999999978,
      "d": 1056.123697916657,
      "v": 103
    },
    {
      "midi": 59,
      "hit": false,
      "t": 167220.54999999976,
      "d": 57.869791666656965,
      "v": 118
    },
    {
      "midi": 55,
      "hit": false,
      "t": 167220.54999999976,
      "d": 63.65677083333139,
      "v": 94
    },
    {
      "midi": 62,
      "hit": false,
      "t": 167220.54999999976,
      "d": 81.01770833332557,
      "v": 112
    },
    {
      "midi": 52,
      "hit": false,
      "t": 167776.09999999974,
      "d": 98.37864583331975,
      "v": 94
    },
    {
      "midi": 45,
      "hit": false,
      "t": 167776.09999999974,
      "d": 107.0591145833314,
      "v": 103
    },
    {
      "midi": 64,
      "hit": false,
      "t": 167776.09999999974,
      "d": 107.0591145833314,
      "v": 98
    },
    {
      "midi": 57,
      "hit": false,
      "t": 167776.09999999974,
      "d": 112.84609375000582,
      "v": 85
    },
    {
      "midi": 61,
      "hit": false,
      "t": 167776.09999999974,
      "d": 112.84609375000582,
      "v": 98
    },
    {
      "midi": 52,
      "hit": false,
      "t": 168331.64999999976,
      "d": 72.33723958334303,
      "v": 85
    },
    {
      "midi": 61,
      "hit": false,
      "t": 168331.64999999976,
      "d": 72.33723958334303,
      "v": 85
    },
    {
      "midi": 64,
      "hit": false,
      "t": 168331.64999999976,
      "d": 81.01770833335468,
      "v": 94
    },
    {
      "midi": 57,
      "hit": false,
      "t": 168331.64999999976,
      "d": 89.69817708336632,
      "v": 98
    },
    {
      "midi": 45,
      "hit": false,
      "t": 168331.64999999976,
      "d": 95.48515625004075,
      "v": 98
    },
    {
      "midi": 50,
      "hit": false,
      "t": 168887.1999999998,
      "d": 167.82239583332557,
      "v": 107
    },
    {
      "midi": 57,
      "hit": false,
      "t": 168887.1999999998,
      "d": 208.33124999998836,
      "v": 94
    },
    {
      "midi": 69,
      "hit": false,
      "t": 168887.1999999998,
      "d": 254.62708333332557,
      "v": 98
    },
    {
      "midi": 66,
      "hit": false,
      "t": 168887.1999999998,
      "d": 266.2010416666453,
      "v": 90
    },
    {
      "midi": 62,
      "hit": false,
      "t": 168887.1999999998,
      "d": 271.98802083331975,
      "v": 94
    },
    {
      "midi": 50,
      "hit": false,
      "t": 169442.7499999998,
      "d": 112.84609375000582,
      "v": 103
    },
    {
      "midi": 57,
      "hit": false,
      "t": 169442.7499999998,
      "d": 156.24843750000582,
      "v": 98
    },
    {
      "midi": 69,
      "hit": false,
      "t": 169442.7499999998,
      "d": 234.37265624999418,
      "v": 98
    },
    {
      "midi": 66,
      "hit": false,
      "t": 169442.7499999998,
      "d": 263.3075520833372,
      "v": 90
    },
    {
      "midi": 62,
      "hit": false,
      "t": 169442.7499999998,
      "d": 274.88151041665697,
      "v": 90
    },
    {
      "midi": 62,
      "hit": false,
      "t": 169998.29999999978,
      "d": 83.91119791666279,
      "v": 103
    },
    {
      "midi": 66,
      "hit": false,
      "t": 169998.29999999978,
      "d": 89.69817708333721,
      "v": 98
    },
    {
      "midi": 50,
      "hit": false,
      "t": 169998.29999999978,
      "d": 107.0591145833314,
      "v": 103
    },
    {
      "midi": 69,
      "hit": false,
      "t": 169998.29999999978,
      "d": 107.0591145833314,
      "v": 112
    },
    {
      "midi": 57,
      "hit": false,
      "t": 169998.29999999978,
      "d": 121.52656249998836,
      "v": 98
    },
    {
      "midi": 55,
      "hit": false,
      "t": 170553.84999999977,
      "d": 691.5440104166628,
      "v": 107
    },
    {
      "midi": 62,
      "hit": false,
      "t": 170553.84999999977,
      "d": 691.5440104166628,
      "v": 118
    },
    {
      "midi": 71,
      "hit": false,
      "t": 170553.84999999977,
      "d": 960.6385416666453,
      "v": 112
    },
    {
      "midi": 74,
      "hit": false,
      "t": 170553.84999999977,
      "d": 960.6385416666453,
      "v": 112
    },
    {
      "midi": 67,
      "hit": false,
      "t": 170553.84999999977,
      "d": 972.2124999999651,
      "v": 98
    },
    {
      "midi": 62,
      "hit": false,
      "t": 171479.76666666643,
      "d": 86.8046874999709,
      "v": 112
    },
    {
      "midi": 55,
      "hit": false,
      "t": 171479.76666666643,
      "d": 98.37864583329065,
      "v": 112
    },
    {
      "midi": 71,
      "hit": false,
      "t": 171664.94999999972,
      "d": 92.59166666667443,
      "v": 98
    },
    {
      "midi": 74,
      "hit": false,
      "t": 171664.94999999972,
      "d": 124.42005208335468,
      "v": 98
    },
    {
      "midi": 67,
      "hit": false,
      "t": 171664.94999999972,
      "d": 138.88750000001164,
      "v": 98
    },
    {
      "midi": 55,
      "hit": false,
      "t": 172035.3166666664,
      "d": 92.59166666667443,
      "v": 98
    },
    {
      "midi": 62,
      "hit": false,
      "t": 172035.3166666664,
      "d": 92.59166666667443,
      "v": 98
    },
    {
      "midi": 64,
      "hit": false,
      "t": 172220.49999999974,
      "d": 57.869791666656965,
      "v": 55
    },
    {
      "midi": 57,
      "hit": false,
      "t": 172220.49999999974,
      "d": 78.12421874998836,
      "v": 60
    },
    {
      "midi": 61,
      "hit": false,
      "t": 172220.49999999974,
      "d": 86.8046875,
      "v": 77
    },
    {
      "midi": 61,
      "hit": false,
      "t": 172776.04999999973,
      "d": 112.84609375000582,
      "v": 85
    },
    {
      "midi": 64,
      "hit": false,
      "t": 172776.04999999973,
      "d": 112.84609375000582,
      "v": 103
    },
    {
      "midi": 57,
      "hit": false,
      "t": 172776.04999999973,
      "d": 115.73958333334303,
      "v": 94
    },
    {
      "midi": 50,
      "hit": false,
      "t": 173331.59999999977,
      "d": 254.62708333332557,
      "v": 98
    },
    {
      "midi": 57,
      "hit": false,
      "t": 173331.59999999977,
      "d": 254.62708333332557,
      "v": 85
    },
    {
      "midi": 69,
      "hit": false,
      "t": 173331.59999999977,
      "d": 300.9229166666628,
      "v": 94
    },
    {
      "midi": 62,
      "hit": false,
      "t": 173331.59999999977,
      "d": 318.28385416665697,
      "v": 90
    },
    {
      "midi": 66,
      "hit": false,
      "t": 173331.59999999977,
      "d": 318.28385416665697,
      "v": 81
    },
    {
      "midi": 50,
      "hit": false,
      "t": 173887.14999999976,
      "d": 130.20703125,
      "v": 103
    },
    {
      "midi": 57,
      "hit": false,
      "t": 173887.14999999976,
      "d": 130.20703125,
      "v": 85
    },
    {
      "midi": 69,
      "hit": false,
      "t": 173887.14999999976,
      "d": 182.28984375001164,
      "v": 98
    },
    {
      "midi": 66,
      "hit": false,
      "t": 173887.14999999976,
      "d": 219.9052083333372,
      "v": 90
    },
    {
      "midi": 62,
      "hit": false,
      "t": 173887.14999999976,
      "d": 234.37265624999418,
      "v": 94
    },
    {
      "midi": 66,
      "hit": false,
      "t": 174442.69999999975,
      "d": 78.12421875001746,
      "v": 94
    },
    {
      "midi": 69,
      "hit": false,
      "t": 174442.69999999975,
      "d": 78.12421875001746,
      "v": 103
    },
    {
      "midi": 57,
      "hit": false,
      "t": 174442.69999999975,
      "d": 92.59166666667443,
      "v": 94
    },
    {
      "midi": 50,
      "hit": false,
      "t": 174442.69999999975,
      "d": 95.48515625001164,
      "v": 103
    },
    {
      "midi": 62,
      "hit": false,
      "t": 174442.69999999975,
      "d": 101.27213541668607,
      "v": 103
    },
    {
      "midi": 59,
      "hit": false,
      "t": 174998.24999999977,
      "d": 1041.65625,
      "v": 107
    },
    {
      "midi": 62,
      "hit": false,
      "t": 174998.24999999977,
      "d": 1053.2302083333198,
      "v": 107
    },
    {
      "midi": 55,
      "hit": false,
      "t": 174998.24999999977,
      "d": 1056.123697916657,
      "v": 103
    },
    {
      "midi": 59,
      "hit": false,
      "t": 176109.34999999974,
      "d": 57.869791666656965,
      "v": 118
    },
    {
      "midi": 55,
      "hit": false,
      "t": 176109.34999999974,
      "d": 63.65677083333139,
      "v": 94
    },
    {
      "midi": 62,
      "hit": false,
      "t": 176109.34999999974,
      "d": 81.01770833332557,
      "v": 112
    },
    {
      "midi": 52,
      "hit": false,
      "t": 176664.89999999973,
      "d": 98.37864583331975,
      "v": 94
    },
    {
      "midi": 45,
      "hit": false,
      "t": 176664.89999999973,
      "d": 107.0591145833314,
      "v": 103
    },
    {
      "midi": 64,
      "hit": false,
      "t": 176664.89999999973,
      "d": 107.0591145833314,
      "v": 98
    },
    {
      "midi": 57,
      "hit": false,
      "t": 176664.89999999973,
      "d": 112.84609375000582,
      "v": 85
    },
    {
      "midi": 61,
      "hit": false,
      "t": 176664.89999999973,
      "d": 112.84609375000582,
      "v": 98
    },
    {
      "midi": 52,
      "hit": false,
      "t": 177220.44999999975,
      "d": 72.33723958334303,
      "v": 85
    },
    {
      "midi": 61,
      "hit": false,
      "t": 177220.44999999975,
      "d": 72.33723958334303,
      "v": 85
    },
    {
      "midi": 64,
      "hit": false,
      "t": 177220.44999999975,
      "d": 81.01770833335468,
      "v": 94
    },
    {
      "midi": 57,
      "hit": false,
      "t": 177220.44999999975,
      "d": 89.69817708336632,
      "v": 98
    },
    {
      "midi": 45,
      "hit": false,
      "t": 177220.44999999975,
      "d": 95.48515625004075,
      "v": 98
    },
    {
      "midi": 57,
      "hit": false,
      "t": 177775.9999999998,
      "d": 4493.589322916669,
      "v": 107
    },
    {
      "midi": 38,
      "hit": false,
      "t": 177775.9999999998,
      "d": 4496.482812500006,
      "v": 112
    },
    {
      "midi": 62,
      "hit": false,
      "t": 177775.9999999998,
      "d": 4505.1632812500175,
      "v": 112
    },
    {
      "midi": 54,
      "hit": false,
      "t": 177775.9999999998,
      "d": 4508.056770833355,
      "v": 85
    }
  ]
}