{
  "jsonPath": "Unknown/Unknown/Quentin Harris feat Margaret Grace/my-joy-harry-choo-choo-romero-remix.json",
  "path": "Unknown\\Unknown\\Quentin Harris feat Margaret Grace\\My Joy (Harry Choo Choo Romero Remix).mid",
  "name": "My Joy (Harry Choo Choo Romero Remix)",
  "difficulty": "Advanced",
  "bpm": 130.00041166797027,
  "notes": [
    {
      "midi": 34,
      "hit": false,
      "t": 16622.543515625002,
      "d": 713.9400468750064,
      "v": 108
    },
    {
      "midi": 46,
      "hit": false,
      "t": 16629.755031250003,
      "d": 697.1131770833381,
      "v": 112
    },
    {
      "midi": 61,
      "hit": false,
      "t": 16834.081307291668,
      "d": 62.49980208333727,
      "v": 117
    },
    {
      "midi": 56,
      "hit": false,
      "t": 16836.485145833336,
      "d": 60.095963541669335,
      "v": 117
    },
    {
      "midi": 65,
      "hit": false,
      "t": 16838.888984375004,
      "d": 60.095963541669335,
      "v": 112
    },
    {
      "midi": 56,
      "hit": false,
      "t": 17088.88819270834,
      "d": 480.7677083333365,
      "v": 117
    },
    {
      "midi": 65,
      "hit": false,
      "t": 17091.292031250006,
      "d": 466.34467708333614,
      "v": 123
    },
    {
      "midi": 61,
      "hit": false,
      "t": 17091.292031250006,
      "d": 514.4214479166694,
      "v": 117
    },
    {
      "midi": 34,
      "hit": false,
      "t": 17545.61751562501,
      "d": 730.7669166666674,
      "v": 108
    },
    {
      "midi": 46,
      "hit": false,
      "t": 17545.61751562501,
      "d": 783.6513645833329,
      "v": 112
    },
    {
      "midi": 56,
      "hit": false,
      "t": 17769.17450000001,
      "d": 632.2095364583365,
      "v": 123
    },
    {
      "midi": 61,
      "hit": false,
      "t": 17769.17450000001,
      "d": 658.6517604166693,
      "v": 123
    },
    {
      "midi": 65,
      "hit": false,
      "t": 17771.578338541676,
      "d": 629.8056979166686,
      "v": 123
    },
    {
      "midi": 48,
      "hit": false,
      "t": 18485.51838541668,
      "d": 735.5745937500033,
      "v": 95
    },
    {
      "midi": 36,
      "hit": false,
      "t": 18492.72990104168,
      "d": 735.5745937500033,
      "v": 112
    },
    {
      "midi": 63,
      "hit": false,
      "t": 18709.07536979168,
      "d": 55.28828645833346,
      "v": 103
    },
    {
      "midi": 67,
      "hit": false,
      "t": 18711.47920833335,
      "d": 45.67293229166535,
      "v": 108
    },
    {
      "midi": 58,
      "hit": false,
      "t": 18711.47920833335,
      "d": 50.480609374997584,
      "v": 108
    },
    {
      "midi": 63,
      "hit": false,
      "t": 18937.440031250015,
      "d": 495.1907395833332,
      "v": 123
    },
    {
      "midi": 58,
      "hit": false,
      "t": 18939.843869791683,
      "d": 495.1907395833332,
      "v": 127
    },
    {
      "midi": 67,
      "hit": false,
      "t": 18942.24770833335,
      "d": 447.1139687499963,
      "v": 127
    },
    {
      "midi": 36,
      "hit": false,
      "t": 19384.554000000015,
      "d": 461.53700000000026,
      "v": 103
    },
    {
      "midi": 48,
      "hit": false,
      "t": 19389.361677083347,
      "d": 874.9972291666672,
      "v": 99
    },
    {
      "midi": 63,
      "hit": false,
      "t": 19612.91866145835,
      "d": 612.9788281250003,
      "v": 117
    },
    {
      "midi": 67,
      "hit": false,
      "t": 19615.322500000017,
      "d": 596.151958333332,
      "v": 117
    },
    {
      "midi": 58,
      "hit": false,
      "t": 19615.322500000017,
      "d": 749.9976249999963,
      "v": 117
    },
    {
      "midi": 49,
      "hit": false,
      "t": 20305.224161458347,
      "d": 733.1707552083317,
      "v": 117
    },
    {
      "midi": 56,
      "hit": false,
      "t": 20528.781145833345,
      "d": 64.90364062500157,
      "v": 103
    },
    {
      "midi": 60,
      "hit": false,
      "t": 20533.588822916678,
      "d": 52.88444791666916,
      "v": 108
    },
    {
      "midi": 65,
      "hit": false,
      "t": 20543.204177083346,
      "d": 43.26909375000105,
      "v": 99
    },
    {
      "midi": 56,
      "hit": false,
      "t": 20773.972677083348,
      "d": 473.55619270832904,
      "v": 123
    },
    {
      "midi": 65,
      "hit": false,
      "t": 20778.78035416668,
      "d": 360.5757812499978,
      "v": 123
    },
    {
      "midi": 60,
      "hit": false,
      "t": 20778.78035416668,
      "d": 459.1331614583287,
      "v": 117
    },
    {
      "midi": 49,
      "hit": false,
      "t": 21192.240583333343,
      "d": 855.7665208333347,
      "v": 117
    },
    {
      "midi": 60,
      "hit": false,
      "t": 21456.662822916678,
      "d": 697.1131770833344,
      "v": 123
    },
    {
      "midi": 56,
      "hit": false,
      "t": 21456.662822916678,
      "d": 718.747723958335,
      "v": 123
    },
    {
      "midi": 65,
      "hit": false,
      "t": 21461.47050000001,
      "d": 579.3250885416674,
      "v": 117
    },
    {
      "midi": 41,
      "hit": false,
      "t": 22158.583677083345,
      "d": 884.6125833333354,
      "v": 112
    },
    {
      "midi": 53,
      "hit": false,
      "t": 22365.31379166668,
      "d": 52.88444791666552,
      "v": 117
    },
    {
      "midi": 56,
      "hit": false,
      "t": 22365.31379166668,
      "d": 62.499802083333634,
      "v": 117
    },
    {
      "midi": 63,
      "hit": false,
      "t": 22365.31379166668,
      "d": 64.90364062500157,
      "v": 108
    },
    {
      "midi": 60,
      "hit": false,
      "t": 22370.12146875001,
      "d": 43.26909375000105,
      "v": 117
    },
    {
      "midi": 53,
      "hit": false,
      "t": 22603.29380729168,
      "d": 84.13434895833416,
      "v": 123
    },
    {
      "midi": 63,
      "hit": false,
      "t": 22605.69764583335,
      "d": 237.9800156249985,
      "v": 123
    },
    {
      "midi": 56,
      "hit": false,
      "t": 22605.69764583335,
      "d": 266.8260781249992,
      "v": 123
    },
    {
      "midi": 60,
      "hit": false,
      "t": 22608.101484375016,
      "d": 249.9992083333309,
      "v": 127
    },
    {
      "midi": 53,
      "hit": false,
      "t": 22810.023921875014,
      "d": 88.9420260416664,
      "v": 82
    },
    {
      "midi": 60,
      "hit": false,
      "t": 22971.081104166682,
      "d": 36.057578124997235,
      "v": 123
    },
    {
      "midi": 63,
      "hit": false,
      "t": 22971.081104166682,
      "d": 48.07677083332965,
      "v": 117
    },
    {
      "midi": 53,
      "hit": false,
      "t": 22975.888781250014,
      "d": 43.26909374999741,
      "v": 99
    },
    {
      "midi": 56,
      "hit": false,
      "t": 22975.888781250014,
      "d": 45.67293229166535,
      "v": 103
    },
    {
      "midi": 41,
      "hit": false,
      "t": 23182.618895833348,
      "d": 86.53818749999846,
      "v": 123
    },
    {
      "midi": 53,
      "hit": false,
      "t": 23283.580114583347,
      "d": 358.17194270833716,
      "v": 117
    },
    {
      "midi": 56,
      "hit": false,
      "t": 23285.983953125015,
      "d": 774.0360104166684,
      "v": 117
    },
    {
      "midi": 63,
      "hit": false,
      "t": 23288.387791666682,
      "d": 661.0555989583336,
      "v": 108
    },
    {
      "midi": 60,
      "hit": false,
      "t": 23290.79163020835,
      "d": 624.9980208333327,
      "v": 117
    },
    {
      "midi": 41,
      "hit": false,
      "t": 23540.790838541685,
      "d": 444.710130208332,
      "v": 123
    },
    {
      "midi": 53,
      "hit": false,
      "t": 23682.617312500017,
      "d": 206.7301145833335,
      "v": 45
    },
    {
      "midi": 46,
      "hit": false,
      "t": 24011.94319270835,
      "d": 757.2091406250038,
      "v": 117
    },
    {
      "midi": 61,
      "hit": false,
      "t": 24216.269468750015,
      "d": 67.30747916666951,
      "v": 112
    },
    {
      "midi": 56,
      "hit": false,
      "t": 24223.480984375015,
      "d": 50.48060937500122,
      "v": 112
    },
    {
      "midi": 65,
      "hit": false,
      "t": 24225.884822916683,
      "d": 48.076770833333285,
      "v": 103
    },
    {
      "midi": 65,
      "hit": false,
      "t": 24468.672515625018,
      "d": 377.40265104166974,
      "v": 117
    },
    {
      "midi": 56,
      "hit": false,
      "t": 24471.076354166686,
      "d": 449.51780729166785,
      "v": 117
    },
    {
      "midi": 61,
      "hit": false,
      "t": 24471.076354166686,
      "d": 497.59457812500114,
      "v": 117
    },
    {
      "midi": 46,
      "hit": false,
      "t": 24922.99800000002,
      "d": 829.3242968750019,
      "v": 117
    },
    {
      "midi": 61,
      "hit": false,
      "t": 25136.939630208355,
      "d": 637.0172135416688,
      "v": 117
    },
    {
      "midi": 56,
      "hit": false,
      "t": 25139.343468750023,
      "d": 588.9404427083318,
      "v": 117
    },
    {
      "midi": 65,
      "hit": false,
      "t": 25144.151145833355,
      "d": 572.1135729166672,
      "v": 117
    },
    {
      "midi": 48,
      "hit": false,
      "t": 25836.456645833357,
      "d": 759.6129791666717,
      "v": 103
    },
    {
      "midi": 63,
      "hit": false,
      "t": 26064.82130729169,
      "d": 55.2882864583371,
      "v": 108
    },
    {
      "midi": 67,
      "hit": false,
      "t": 26067.22514583336,
      "d": 52.88444791666916,
      "v": 108
    },
    {
      "midi": 58,
      "hit": false,
      "t": 26069.628984375027,
      "d": 48.076770833333285,
      "v": 99
    },
    {
      "midi": 58,
      "hit": false,
      "t": 26317.224354166694,
      "d": 471.1523541666684,
      "v": 112
    },
    {
      "midi": 67,
      "hit": false,
      "t": 26319.628192708362,
      "d": 360.57578125000146,
      "v": 112
    },
    {
      "midi": 63,
      "hit": false,
      "t": 26319.628192708362,
      "d": 519.2291250000017,
      "v": 112
    },
    {
      "midi": 48,
      "hit": false,
      "t": 26757.126807291697,
      "d": 843.7473281250022,
      "v": 108
    },
    {
      "midi": 63,
      "hit": false,
      "t": 27007.126015625032,
      "d": 757.2091406250038,
      "v": 117
    },
    {
      "midi": 67,
      "hit": false,
      "t": 27011.933692708364,
      "d": 555.2867031250025,
      "v": 112
    },
    {
      "midi": 58,
      "hit": false,
      "t": 27014.337531250032,
      "d": 331.72971875000076,
      "v": 112
    },
    {
      "midi": 58,
      "hit": false,
      "t": 27389.336343750034,
      "d": 206.7301145833335,
      "v": 65
    },
    {
      "midi": 49,
      "hit": false,
      "t": 27692.220000000034,
      "d": 759.6129791666644,
      "v": 99
    },
    {
      "midi": 60,
      "hit": false,
      "t": 27918.180822916704,
      "d": 103.3650572916631,
      "v": 112
    },
    {
      "midi": 56,
      "hit": false,
      "t": 27922.988500000036,
      "d": 86.53818749999846,
      "v": 108
    },
    {
      "midi": 65,
      "hit": false,
      "t": 27927.796177083368,
      "d": 112.98041145833122,
      "v": 99
    },
    {
      "midi": 56,
      "hit": false,
      "t": 28156.1608385417,
      "d": 324.5182031250006,
      "v": 108
    },
    {
      "midi": 65,
      "hit": false,
      "t": 28158.564677083366,
      "d": 379.80648958333404,
      "v": 108
    },
    {
      "midi": 60,
      "hit": false,
      "t": 28158.564677083366,
      "d": 519.2291250000017,
      "v": 112
    },
    {
      "midi": 49,
      "hit": false,
      "t": 28586.447937500034,
      "d": 848.5550052083381,
      "v": 108
    },
    {
      "midi": 56,
      "hit": false,
      "t": 28838.850984375036,
      "d": 286.0567864583354,
      "v": 117
    },
    {
      "midi": 65,
      "hit": false,
      "t": 28841.254822916704,
      "d": 569.7097343749992,
      "v": 99
    },
    {
      "midi": 60,
      "hit": false,
      "t": 28841.254822916704,
      "d": 576.9212499999994,
      "v": 117
    },
    {
      "midi": 56,
      "hit": false,
      "t": 29254.71505208337,
      "d": 156.24950520833227,
      "v": 63
    },
    {
      "midi": 41,
      "hit": false,
      "t": 29540.771838541707,
      "d": 874.9972291666709,
      "v": 108
    },
    {
      "midi": 56,
      "hit": false,
      "t": 29764.32882291671,
      "d": 43.26909375000105,
      "v": 108
    },
    {
      "midi": 60,
      "hit": false,
      "t": 29769.13650000004,
      "d": 28.8460625000007,
      "v": 112
    },
    {
      "midi": 53,
      "hit": false,
      "t": 29769.13650000004,
      "d": 36.05757812500087,
      "v": 103
    },
    {
      "midi": 63,
      "hit": false,
      "t": 29769.13650000004,
      "d": 36.05757812500087,
      "v": 99
    },
    {
      "midi": 63,
      "hit": false,
      "t": 30002.30883854171,
      "d": 221.15314583333384,
      "v": 112
    },
    {
      "midi": 53,
      "hit": false,
      "t": 30004.71267708338,
      "d": 67.30747916666587,
      "v": 117
    },
    {
      "midi": 56,
      "hit": false,
      "t": 30004.71267708338,
      "d": 242.78769270833072,
      "v": 123
    },
    {
      "midi": 60,
      "hit": false,
      "t": 30011.92419270838,
      "d": 216.34546874999796,
      "v": 112
    },
    {
      "midi": 53,
      "hit": false,
      "t": 30187.404406250043,
      "d": 96.15354166666657,
      "v": 82
    },
    {
      "midi": 60,
      "hit": false,
      "t": 30341.25007291671,
      "d": 38.46141666666517,
      "v": 117
    },
    {
      "midi": 63,
      "hit": false,
      "t": 30341.25007291671,
      "d": 52.88444791666552,
      "v": 117
    },
    {
      "midi": 56,
      "hit": false,
      "t": 30353.269265625044,
      "d": 31.249901041664998,
      "v": 72
    },
    {
      "midi": 41,
      "hit": false,
      "t": 30540.768671875045,
      "d": 74.51899479166605,
      "v": 103
    },
    {
      "midi": 63,
      "hit": false,
      "t": 30653.749083333376,
      "d": 706.7285312499989,
      "v": 108
    },
    {
      "midi": 56,
      "hit": false,
      "t": 30653.749083333376,
      "d": 723.5554010416672,
      "v": 117
    },
    {
      "midi": 53,
      "hit": false,
      "t": 30658.556760416708,
      "d": 694.7093385416665,
      "v": 117
    },
    {
      "midi": 60,
      "hit": false,
      "t": 30663.36443750004,
      "d": 699.5170156250024,
      "v": 103
    },
    {
      "midi": 39,
      "hit": false,
      "t": 31420.573578125044,
      "d": 1213.9384635416754,
      "v": 103
    },
    {
      "midi": 61,
      "hit": false,
      "t": 31605.669145833377,
      "d": 247.59536979166296,
      "v": 123
    },
    {
      "midi": 63,
      "hit": false,
      "t": 31605.669145833377,
      "d": 298.07597916666055,
      "v": 123
    },
    {
      "midi": 66,
      "hit": false,
      "t": 31610.47682291671,
      "d": 302.8836562499964,
      "v": 112
    },
    {
      "midi": 70,
      "hit": false,
      "t": 31615.28450000004,
      "d": 257.2107239583311,
      "v": 112
    },
    {
      "midi": 61,
      "hit": false,
      "t": 31978.264119791707,
      "d": 45.67293229167262,
      "v": 86
    },
    {
      "midi": 70,
      "hit": false,
      "t": 31980.667958333375,
      "d": 60.09596354167297,
      "v": 82
    },
    {
      "midi": 66,
      "hit": false,
      "t": 31983.071796875043,
      "d": 28.8460625000007,
      "v": 70
    },
    {
      "midi": 63,
      "hit": false,
      "t": 31983.071796875043,
      "d": 31.249901041668636,
      "v": 72
    },
    {
      "midi": 66,
      "hit": false,
      "t": 32302.782322916715,
      "d": 841.3434895833379,
      "v": 112
    },
    {
      "midi": 61,
      "hit": false,
      "t": 32305.186161458383,
      "d": 774.0360104166684,
      "v": 117
    },
    {
      "midi": 63,
      "hit": false,
      "t": 32307.59000000005,
      "d": 850.9588437500024,
      "v": 108
    },
    {
      "midi": 70,
      "hit": false,
      "t": 32309.99383854172,
      "d": 786.0552031249972,
      "v": 99
    },
    {
      "midi": 51,
      "hit": false,
      "t": 32648.93507291672,
      "d": 499.9984166666691,
      "v": 74
    },
    {
      "midi": 44,
      "hit": false,
      "t": 33237.875515625055,
      "d": 605.7673125000001,
      "v": 112
    },
    {
      "midi": 60,
      "hit": false,
      "t": 33463.836338541725,
      "d": 230.7684999999983,
      "v": 112
    },
    {
      "midi": 68,
      "hit": false,
      "t": 33463.836338541725,
      "d": 252.40304687499884,
      "v": 123
    },
    {
      "midi": 66,
      "hit": false,
      "t": 33463.836338541725,
      "d": 262.0184010416633,
      "v": 123
    },
    {
      "midi": 63,
      "hit": false,
      "t": 33463.836338541725,
      "d": 269.2299166666635,
      "v": 123
    },
    {
      "midi": 63,
      "hit": false,
      "t": 33805.18141145839,
      "d": 40.86525520832947,
      "v": 90
    },
    {
      "midi": 60,
      "hit": false,
      "t": 33805.18141145839,
      "d": 52.88444791666552,
      "v": 95
    },
    {
      "midi": 66,
      "hit": false,
      "t": 33807.585250000055,
      "d": 38.46141666666517,
      "v": 103
    },
    {
      "midi": 68,
      "hit": false,
      "t": 33807.585250000055,
      "d": 52.88444791666552,
      "v": 99
    },
    {
      "midi": 44,
      "hit": false,
      "t": 34033.54607291672,
      "d": 72.11515625000175,
      "v": 108
    },
    {
      "midi": 60,
      "hit": false,
      "t": 34148.93032291672,
      "d": 225.9608229166697,
      "v": 112
    },
    {
      "midi": 68,
      "hit": false,
      "t": 34148.93032291672,
      "d": 249.9992083333418,
      "v": 112
    },
    {
      "midi": 63,
      "hit": false,
      "t": 34148.93032291672,
      "d": 252.4030468750061,
      "v": 117
    },
    {
      "midi": 66,
      "hit": false,
      "t": 34148.93032291672,
      "d": 257.210723958342,
      "v": 117
    },
    {
      "midi": 44,
      "hit": false,
      "t": 34379.698822916725,
      "d": 108.17273437500262,
      "v": 108
    },
    {
      "midi": 63,
      "hit": false,
      "t": 34495.08307291673,
      "d": 33.653739583336574,
      "v": 117
    },
    {
      "midi": 60,
      "hit": false,
      "t": 34495.08307291673,
      "d": 43.26909375000105,
      "v": 103
    },
    {
      "midi": 66,
      "hit": false,
      "t": 34495.08307291673,
      "d": 43.26909375000105,
      "v": 112
    },
    {
      "midi": 68,
      "hit": false,
      "t": 34495.08307291673,
      "d": 52.88444791666552,
      "v": 103
    },
    {
      "midi": 44,
      "hit": false,
      "t": 34725.85157291673,
      "d": 64.90364062500157,
      "v": 103
    },
    {
      "midi": 60,
      "hit": false,
      "t": 34841.23582291673,
      "d": 192.30708333333314,
      "v": 117
    },
    {
      "midi": 68,
      "hit": false,
      "t": 34841.23582291673,
      "d": 192.30708333333314,
      "v": 127
    },
    {
      "midi": 63,
      "hit": false,
      "t": 34841.23582291673,
      "d": 204.3262760416692,
      "v": 117
    },
    {
      "midi": 66,
      "hit": false,
      "t": 34841.23582291673,
      "d": 204.3262760416692,
      "v": 127
    },
    {
      "midi": 39,
      "hit": false,
      "t": 35115.27341666673,
      "d": 624.9980208333291,
      "v": 108
    },
    {
      "midi": 63,
      "hit": false,
      "t": 35326.8112083334,
      "d": 264.4222395833349,
      "v": 117
    },
    {
      "midi": 66,
      "hit": false,
      "t": 35331.618885416734,
      "d": 266.8260781249992,
      "v": 117
    },
    {
      "midi": 61,
      "hit": false,
      "t": 35334.0227239584,
      "d": 221.15314583333384,
      "v": 112
    },
    {
      "midi": 70,
      "hit": false,
      "t": 35336.42656250006,
      "d": 233.1723385416699,
      "v": 108
    },
    {
      "midi": 51,
      "hit": false,
      "t": 35528.733645833396,
      "d": 62.49980208333727,
      "v": 63
    },
    {
      "midi": 63,
      "hit": false,
      "t": 35653.73325000006,
      "d": 55.28828645832982,
      "v": 95
    },
    {
      "midi": 61,
      "hit": false,
      "t": 35658.5409270834,
      "d": 50.480609374993946,
      "v": 99
    },
    {
      "midi": 66,
      "hit": false,
      "t": 35660.94476562506,
      "d": 31.249901041664998,
      "v": 86
    },
    {
      "midi": 70,
      "hit": false,
      "t": 35660.94476562506,
      "d": 64.9036406249943,
      "v": 86
    },
    {
      "midi": 39,
      "hit": false,
      "t": 35877.29023437506,
      "d": 490.38306249999005,
      "v": 108
    },
    {
      "midi": 61,
      "hit": false,
      "t": 35980.65529166673,
      "d": 829.324296874991,
      "v": 123
    },
    {
      "midi": 63,
      "hit": false,
      "t": 35983.05913020839,
      "d": 980.7661249999946,
      "v": 117
    },
    {
      "midi": 66,
      "hit": false,
      "t": 35985.46296875006,
      "d": 891.8240989583282,
      "v": 117
    },
    {
      "midi": 70,
      "hit": false,
      "t": 35987.86680729172,
      "d": 831.7281354166626,
      "v": 112
    },
    {
      "midi": 51,
      "hit": false,
      "t": 36394.11552083339,
      "d": 437.4986145833318,
      "v": 82
    },
    {
      "midi": 44,
      "hit": false,
      "t": 36934.979192708386,
      "d": 1716.3407187499688,
      "v": 108
    },
    {
      "midi": 63,
      "hit": false,
      "t": 37151.324661458384,
      "d": 38.46141666666517,
      "v": 117
    },
    {
      "midi": 68,
      "hit": false,
      "t": 37153.72850000005,
      "d": 38.46141666666517,
      "v": 112
    },
    {
      "midi": 66,
      "hit": false,
      "t": 37156.13233854171,
      "d": 33.653739583336574,
      "v": 117
    },
    {
      "midi": 60,
      "hit": false,
      "t": 37163.34385416671,
      "d": 38.46141666666517,
      "v": 95
    },
    {
      "midi": 63,
      "hit": false,
      "t": 37257.09355729171,
      "d": 45.67293229166535,
      "v": 95
    },
    {
      "midi": 66,
      "hit": false,
      "t": 37259.49739583337,
      "d": 48.07677083332965,
      "v": 99
    },
    {
      "midi": 60,
      "hit": false,
      "t": 37264.30507291671,
      "d": 40.86525520832947,
      "v": 69
    },
    {
      "midi": 68,
      "hit": false,
      "t": 37264.30507291671,
      "d": 48.07677083332965,
      "v": 99
    },
    {
      "midi": 63,
      "hit": false,
      "t": 37514.304281250035,
      "d": 36.05757812500087,
      "v": 108
    },
    {
      "midi": 66,
      "hit": false,
      "t": 37514.304281250035,
      "d": 38.46141666666517,
      "v": 112
    },
    {
      "midi": 68,
      "hit": false,
      "t": 37516.7081197917,
      "d": 43.26909375000105,
      "v": 108
    },
    {
      "midi": 60,
      "hit": false,
      "t": 37521.515796875035,
      "d": 40.86525520832947,
      "v": 86
    },
    {
      "midi": 56,
      "hit": false,
      "t": 37766.707328125034,
      "d": 478.3638697916613,
      "v": 117
    },
    {
      "midi": 60,
      "hit": false,
      "t": 37855.6493541667,
      "d": 548.0751874999914,
      "v": 117
    },
    {
      "midi": 66,
      "hit": false,
      "t": 37855.6493541667,
      "d": 766.8244947916537,
      "v": 123
    },
    {
      "midi": 63,
      "hit": false,
      "t": 37858.053192708365,
      "d": 629.8056979166577,
      "v": 117
    },
    {
      "midi": 68,
      "hit": false,
      "t": 37860.45703125003,
      "d": 764.4206562499894,
      "v": 108
    },
    {
      "midi": 60,
      "hit": false,
      "t": 38449.39747395836,
      "d": 156.24950520833227,
      "v": 65
    },
    {
      "midi": 63,
      "hit": false,
      "t": 38576.80091666669,
      "d": 88.9420260416664,
      "v": 90
    },
    {
      "midi": 39,
      "hit": false,
      "t": 38759.49264583336,
      "d": 649.0364062500157,
      "v": 103
    },
    {
      "midi": 61,
      "hit": false,
      "t": 38968.626598958355,
      "d": 276.44143229167094,
      "v": 117
    },
    {
      "midi": 63,
      "hit": false,
      "t": 38973.43427604169,
      "d": 276.44143229167094,
      "v": 108
    },
    {
      "midi": 70,
      "hit": false,
      "t": 38980.64579166669,
      "d": 240.38385416667006,
      "v": 103
    },
    {
      "midi": 67,
      "hit": false,
      "t": 39019.10720833336,
      "d": 197.11476041666901,
      "v": 51
    },
    {
      "midi": 51,
      "hit": false,
      "t": 39237.856515625026,
      "d": 110.5765729166742,
      "v": 26
    },
    {
      "midi": 63,
      "hit": false,
      "t": 39336.413895833364,
      "d": 48.07677083333692,
      "v": 103
    },
    {
      "midi": 61,
      "hit": false,
      "t": 39338.81773437503,
      "d": 50.4806093750085,
      "v": 103
    },
    {
      "midi": 70,
      "hit": false,
      "t": 39338.81773437503,
      "d": 62.49980208334455,
      "v": 95
    },
    {
      "midi": 66,
      "hit": false,
      "t": 39343.625411458364,
      "d": 26.4422239583364,
      "v": 86
    },
    {
      "midi": 39,
      "hit": false,
      "t": 39547.95168750004,
      "d": 737.9784322916676,
      "v": 99
    },
    {
      "midi": 61,
      "hit": false,
      "t": 39665.73977604171,
      "d": 298.0759791666642,
      "v": 123
    },
    {
      "midi": 63,
      "hit": false,
      "t": 39665.73977604171,
      "d": 939.9008697916724,
      "v": 117
    },
    {
      "midi": 66,
      "hit": false,
      "t": 39668.14361458337,
      "d": 918.2663229166719,
      "v": 117
    },
    {
      "midi": 70,
      "hit": false,
      "t": 39670.54745312504,
      "d": 305.28749479167163,
      "v": 112
    },
    {
      "midi": 70,
      "hit": false,
      "t": 40019.10404166671,
      "d": 531.2483177083341,
      "v": 82
    },
    {
      "midi": 61,
      "hit": false,
      "t": 40026.31555729171,
      "d": 252.40304687499884,
      "v": 86
    },
    {
      "midi": 51,
      "hit": false,
      "t": 40312.372343750045,
      "d": 302.88365625000006,
      "v": 82
    },
    {
      "midi": 61,
      "hit": false,
      "t": 40372.46830729171,
      "d": 170.67253645833262,
      "v": 108
    },
    {
      "midi": 44,
      "hit": false,
      "t": 40641.69822395838,
      "d": 682.6901458333305,
      "v": 108
    },
    {
      "midi": 66,
      "hit": false,
      "t": 40846.02450000005,
      "d": 276.44143229166366,
      "v": 117
    },
    {
      "midi": 60,
      "hit": false,
      "t": 40848.428338541715,
      "d": 237.9800156249985,
      "v": 108
    },
    {
      "midi": 68,
      "hit": false,
      "t": 40848.428338541715,
      "d": 262.0184010416633,
      "v": 117
    },
    {
      "midi": 63,
      "hit": false,
      "t": 40848.428338541715,
      "d": 276.44143229166366,
      "v": 123
    },
    {
      "midi": 56,
      "hit": false,
      "t": 41035.92774479171,
      "d": 283.65294791666383,
      "v": 69
    },
    {
      "midi": 66,
      "hit": false,
      "t": 41180.15805729171,
      "d": 50.48060937500122,
      "v": 108
    },
    {
      "midi": 63,
      "hit": false,
      "t": 41180.15805729171,
      "d": 57.6921250000014,
      "v": 103
    },
    {
      "midi": 60,
      "hit": false,
      "t": 41182.56189583337,
      "d": 62.49980208333727,
      "v": 112
    },
    {
      "midi": 68,
      "hit": false,
      "t": 41187.36957291671,
      "d": 55.2882864583371,
      "v": 103
    },
    {
      "midi": 60,
      "hit": false,
      "t": 41519.09929166671,
      "d": 548.075187500006,
      "v": 112
    },
    {
      "midi": 63,
      "hit": false,
      "t": 41519.09929166671,
      "d": 584.1327656250069,
      "v": 117
    },
    {
      "midi": 66,
      "hit": false,
      "t": 41519.09929166671,
      "d": 608.1711510416717,
      "v": 117
    },
    {
      "midi": 68,
      "hit": false,
      "t": 41523.906968750045,
      "d": 560.0943802083348,
      "v": 117
    },
    {
      "midi": 44,
      "hit": false,
      "t": 41523.906968750045,
      "d": 858.170359374999,
      "v": 103
    },
    {
      "midi": 56,
      "hit": false,
      "t": 41942.17487500005,
      "d": 141.82647395833192,
      "v": 63
    },
    {
      "midi": 63,
      "hit": false,
      "t": 42192.17408333338,
      "d": 331.72971875000076,
      "v": 108
    },
    {
      "midi": 66,
      "hit": false,
      "t": 42194.57792187505,
      "d": 302.88365625000006,
      "v": 108
    },
    {
      "midi": 60,
      "hit": false,
      "t": 42196.98176041671,
      "d": 168.26869791666832,
      "v": 103
    },
    {
      "midi": 68,
      "hit": false,
      "t": 42201.78943750005,
      "d": 274.03759374999936,
      "v": 103
    },
    {
      "midi": 39,
      "hit": false,
      "t": 42461.404000000046,
      "d": 1293.265135416681,
      "v": 103
    },
    {
      "midi": 63,
      "hit": false,
      "t": 42668.13411458339,
      "d": 288.4606249999997,
      "v": 112
    },
    {
      "midi": 66,
      "hit": false,
      "t": 42668.13411458339,
      "d": 295.6721406249999,
      "v": 117
    },
    {
      "midi": 61,
      "hit": false,
      "t": 42672.94179166672,
      "d": 230.7684999999983,
      "v": 117
    },
    {
      "midi": 70,
      "hit": false,
      "t": 42672.94179166672,
      "d": 247.59536979166296,
      "v": 112
    },
    {
      "midi": 61,
      "hit": false,
      "t": 43011.88302604172,
      "d": 60.0959635416657,
      "v": 99
    },
    {
      "midi": 66,
      "hit": false,
      "t": 43014.28686458339,
      "d": 43.26909375000105,
      "v": 86
    },
    {
      "midi": 63,
      "hit": false,
      "t": 43014.28686458339,
      "d": 45.67293229166535,
      "v": 74
    },
    {
      "midi": 70,
      "hit": false,
      "t": 43019.094541666724,
      "d": 81.73051041666622,
      "v": 95
    },
    {
      "midi": 51,
      "hit": false,
      "t": 43273.90142708339,
      "d": 170.67253645832534,
      "v": 95
    },
    {
      "midi": 61,
      "hit": false,
      "t": 43372.45880729172,
      "d": 247.59536979166296,
      "v": 117
    },
    {
      "midi": 63,
      "hit": false,
      "t": 43372.45880729172,
      "d": 290.864463541664,
      "v": 123
    },
    {
      "midi": 66,
      "hit": false,
      "t": 43374.86264583338,
      "d": 293.2683020833356,
      "v": 117
    },
    {
      "midi": 70,
      "hit": false,
      "t": 43377.266484375046,
      "d": 259.614562499999,
      "v": 112
    },
    {
      "midi": 51,
      "hit": false,
      "t": 43687.361656250054,
      "d": 591.344281250007,
      "v": 95
    },
    {
      "midi": 63,
      "hit": false,
      "t": 43708.996203125054,
      "d": 79.3266718750092,
      "v": 99
    },
    {
      "midi": 66,
      "hit": false,
      "t": 43713.80388020839,
      "d": 55.2882864583371,
      "v": 103
    },
    {
      "midi": 61,
      "hit": false,
      "t": 43716.207718750054,
      "d": 57.69212500000867,
      "v": 103
    },
    {
      "midi": 70,
      "hit": false,
      "t": 43721.01539583339,
      "d": 91.34586458333797,
      "v": 99
    },
    {
      "midi": 61,
      "hit": false,
      "t": 44069.57198437506,
      "d": 206.7301145833335,
      "v": 117
    },
    {
      "midi": 63,
      "hit": false,
      "t": 44069.57198437506,
      "d": 211.5377916666621,
      "v": 112
    },
    {
      "midi": 66,
      "hit": false,
      "t": 44071.97582291673,
      "d": 230.7684999999983,
      "v": 108
    },
    {
      "midi": 70,
      "hit": false,
      "t": 44076.78350000006,
      "d": 216.34546874999796,
      "v": 103
    },
    {
      "midi": 44,
      "hit": false,
      "t": 44329.18654687506,
      "d": 656.2479218750159,
      "v": 112
    },
    {
      "midi": 66,
      "hit": false,
      "t": 44545.53201562506,
      "d": 264.4222395833349,
      "v": 117
    },
    {
      "midi": 68,
      "hit": false,
      "t": 44547.935854166724,
      "d": 257.2107239583347,
      "v": 112
    },
    {
      "midi": 63,
      "hit": false,
      "t": 44547.935854166724,
      "d": 266.82607812500646,
      "v": 117
    },
    {
      "midi": 60,
      "hit": false,
      "t": 44550.33969270839,
      "d": 230.7685000000056,
      "v": 112
    },
    {
      "midi": 56,
      "hit": false,
      "t": 44733.03142187506,
      "d": 247.5953697916848,
      "v": 82
    },
    {
      "midi": 63,
      "hit": false,
      "t": 44879.66557291673,
      "d": 52.8844479166728,
      "v": 103
    },
    {
      "midi": 66,
      "hit": false,
      "t": 44886.87708854173,
      "d": 36.05757812500087,
      "v": 99
    },
    {
      "midi": 60,
      "hit": false,
      "t": 44886.87708854173,
      "d": 45.67293229167262,
      "v": 95
    },
    {
      "midi": 68,
      "hit": false,
      "t": 44891.68476562507,
      "d": 36.05757812500087,
      "v": 95
    },
    {
      "midi": 44,
      "hit": false,
      "t": 45127.26094270841,
      "d": 932.6893541666723,
      "v": 103
    },
    {
      "midi": 60,
      "hit": false,
      "t": 45213.79913020841,
      "d": 495.1907395833332,
      "v": 117
    },
    {
      "midi": 63,
      "hit": false,
      "t": 45216.202968750076,
      "d": 543.2675104166701,
      "v": 117
    },
    {
      "midi": 66,
      "hit": false,
      "t": 45216.202968750076,
      "d": 545.6713489583344,
      "v": 123
    },
    {
      "midi": 68,
      "hit": false,
      "t": 45221.01064583341,
      "d": 524.0368020833339,
      "v": 112
    },
    {
      "midi": 66,
      "hit": false,
      "t": 45906.104630208414,
      "d": 276.44143229167094,
      "v": 127
    },
    {
      "midi": 63,
      "hit": false,
      "t": 45908.50846875008,
      "d": 290.8644635416713,
      "v": 117
    },
    {
      "midi": 68,
      "hit": false,
      "t": 45910.91230729174,
      "d": 286.0567864583427,
      "v": 112
    },
    {
      "midi": 60,
      "hit": false,
      "t": 45915.71998437508,
      "d": 199.5185989583333,
      "v": 112
    },
    {
      "midi": 39,
      "hit": false,
      "t": 46163.31535416675,
      "d": 1177.880885416671,
      "v": 99
    },
    {
      "midi": 63,
      "hit": false,
      "t": 46362.83395312508,
      "d": 300.4798177083285,
      "v": 117
    },
    {
      "midi": 70,
      "hit": false,
      "t": 46365.23779166675,
      "d": 235.5761770833342,
      "v": 112
    },
    {
      "midi": 66,
      "hit": false,
      "t": 46365.23779166675,
      "d": 298.0759791666642,
      "v": 117
    },
    {
      "midi": 61,
      "hit": false,
      "t": 46367.64163020841,
      "d": 221.15314583333384,
      "v": 117
    },
    {
      "midi": 63,
      "hit": false,
      "t": 46711.39054166675,
      "d": 52.8844479166728,
      "v": 82
    },
    {
      "midi": 61,
      "hit": false,
      "t": 46711.39054166675,
      "d": 57.69212500000867,
      "v": 112
    },
    {
      "midi": 70,
      "hit": false,
      "t": 46711.39054166675,
      "d": 88.94202604167367,
      "v": 90
    },
    {
      "midi": 66,
      "hit": false,
      "t": 46716.19821875008,
      "d": 43.26909375000105,
      "v": 99
    },
    {
      "midi": 51,
      "hit": false,
      "t": 46966.19742708342,
      "d": 96.15354166666657,
      "v": 95
    },
    {
      "midi": 61,
      "hit": false,
      "t": 47052.73561458342,
      "d": 245.19153124999866,
      "v": 123
    },
    {
      "midi": 63,
      "hit": false,
      "t": 47055.139453125084,
      "d": 286.0567864583354,
      "v": 117
    },
    {
      "midi": 66,
      "hit": false,
      "t": 47057.54329166675,
      "d": 283.6529479166711,
      "v": 112
    },
    {
      "midi": 70,
      "hit": false,
      "t": 47062.350968750085,
      "d": 247.59536979167024,
      "v": 112
    },
    {
      "midi": 51,
      "hit": false,
      "t": 47302.734822916755,
      "d": 329.32588020833646,
      "v": 82
    },
    {
      "midi": 66,
      "hit": false,
      "t": 47408.503718750086,
      "d": 38.46141666666517,
      "v": 95
    },
    {
      "midi": 63,
      "hit": false,
      "t": 47410.90755729175,
      "d": 40.86525520833675,
      "v": 95
    },
    {
      "midi": 61,
      "hit": false,
      "t": 47410.90755729175,
      "d": 45.67293229167262,
      "v": 99
    },
    {
      "midi": 70,
      "hit": false,
      "t": 47413.311395833414,
      "d": 64.90364062500885,
      "v": 86
    },
    {
      "midi": 44,
      "hit": false,
      "t": 47646.48373437509,
      "d": 48.07677083333692,
      "v": 60
    },
    {
      "midi": 51,
      "hit": false,
      "t": 47742.637276041765,
      "d": 137.01879687499604,
      "v": 86
    },
    {
      "midi": 63,
      "hit": false,
      "t": 47745.04111458343,
      "d": 271.6337552083278,
      "v": 117
    },
    {
      "midi": 66,
      "hit": false,
      "t": 47747.444953125094,
      "d": 305.28749479166436,
      "v": 108
    },
    {
      "midi": 61,
      "hit": false,
      "t": 47749.84879166676,
      "d": 213.94163020833366,
      "v": 117
    },
    {
      "midi": 70,
      "hit": false,
      "t": 47754.656468750094,
      "d": 233.1723385416626,
      "v": 103
    },
    {
      "midi": 44,
      "hit": false,
      "t": 47997.44416145842,
      "d": 627.4018593750079,
      "v": 117
    },
    {
      "midi": 66,
      "hit": false,
      "t": 48208.98195312509,
      "d": 276.44143229167094,
      "v": 112
    },
    {
      "midi": 68,
      "hit": false,
      "t": 48211.385791666755,
      "d": 274.03759375000664,
      "v": 103
    },
    {
      "midi": 63,
      "hit": false,
      "t": 48211.385791666755,
      "d": 276.44143229167094,
      "v": 112
    },
    {
      "midi": 60,
      "hit": false,
      "t": 48216.19346875009,
      "d": 249.99920833333454,
      "v": 103
    },
    {
      "midi": 56,
      "hit": false,
      "t": 48427.73126041676,
      "d": 189.90324479166884,
      "v": 82
    },
    {
      "midi": 66,
      "hit": false,
      "t": 48567.15389583343,
      "d": 48.07677083333692,
      "v": 108
    },
    {
      "midi": 63,
      "hit": false,
      "t": 48569.55773437509,
      "d": 45.67293229167262,
      "v": 112
    },
    {
      "midi": 68,
      "hit": false,
      "t": 48571.961572916756,
      "d": 50.4806093750085,
      "v": 103
    },
    {
      "midi": 60,
      "hit": false,
      "t": 48576.76925000009,
      "d": 33.653739583336574,
      "v": 74
    },
    {
      "midi": 44,
      "hit": false,
      "t": 48817.15310416676,
      "d": 889.420260416664,
      "v": 108
    },
    {
      "midi": 60,
      "hit": false,
      "t": 48937.34503125009,
      "d": 754.8053020833322,
      "v": 117
    },
    {
      "midi": 66,
      "hit": false,
      "t": 48939.74886979176,
      "d": 766.8244947916683,
      "v": 127
    },
    {
      "midi": 63,
      "hit": false,
      "t": 48939.74886979176,
      "d": 774.0360104166684,
      "v": 123
    },
    {
      "midi": 68,
      "hit": false,
      "t": 48942.15270833342,
      "d": 757.2091406250038,
      "v": 117
    },
    {
      "midi": 63,
      "hit": false,
      "t": 49845.996000000094,
      "d": 1725.9560729166624,
      "v": 108
    },
    {
      "midi": 41,
      "hit": false,
      "t": 49848.39983854176,
      "d": 1694.7061718749974,
      "v": 112
    },
    {
      "midi": 65,
      "hit": false,
      "t": 49848.39983854176,
      "d": 1704.3215260416619,
      "v": 108
    },
    {
      "midi": 57,
      "hit": false,
      "t": 49850.80367708342,
      "d": 1692.302333333333,
      "v": 99
    },
    {
      "midi": 60,
      "hit": false,
      "t": 49850.80367708342,
      "d": 1766.8213281249991,
      "v": 103
    },
    {
      "midi": 46,
      "hit": false,
      "t": 51680.12480729175,
      "d": 656.2479218749941,
      "v": 108
    },
    {
      "midi": 53,
      "hit": false,
      "t": 51913.29714583342,
      "d": 266.8260781249992,
      "v": 117
    },
    {
      "midi": 62,
      "hit": false,
      "t": 51918.10482291676,
      "d": 293.2683020833283,
      "v": 112
    },
    {
      "midi": 58,
      "hit": false,
      "t": 51920.50866145842,
      "d": 305.28749479166436,
      "v": 112
    },
    {
      "midi": 65,
      "hit": false,
      "t": 51922.912500000086,
      "d": 266.8260781249992,
      "v": 108
    },
    {
      "midi": 62,
      "hit": false,
      "t": 52257.04605729175,
      "d": 57.69212499999412,
      "v": 95
    },
    {
      "midi": 58,
      "hit": false,
      "t": 52259.449895833415,
      "d": 52.88444791666552,
      "v": 103
    },
    {
      "midi": 53,
      "hit": false,
      "t": 52266.661411458415,
      "d": 48.07677083332965,
      "v": 95
    },
    {
      "midi": 65,
      "hit": false,
      "t": 52266.661411458415,
      "d": 64.9036406249943,
      "v": 82
    },
    {
      "midi": 46,
      "hit": false,
      "t": 52502.23758854174,
      "d": 956.7277395833298,
      "v": 99
    },
    {
      "midi": 53,
      "hit": false,
      "t": 52591.17961458341,
      "d": 858.170359374999,
      "v": 112
    },
    {
      "midi": 62,
      "hit": false,
      "t": 52591.17961458341,
      "d": 877.4010677083279,
      "v": 117
    },
    {
      "midi": 58,
      "hit": false,
      "t": 52595.987291666745,
      "d": 889.4202604166567,
      "v": 117
    },
    {
      "midi": 65,
      "hit": false,
      "t": 52603.198807291745,
      "d": 836.5358124999984,
      "v": 103
    },
    {
      "midi": 46,
      "hit": false,
      "t": 53533.48432291674,
      "d": 1783.6481979166638,
      "v": 103
    },
    {
      "midi": 53,
      "hit": false,
      "t": 53543.0996770834,
      "d": 1709.1292031249977,
      "v": 99
    },
    {
      "midi": 62,
      "hit": false,
      "t": 53543.0996770834,
      "d": 1752.3982968749988,
      "v": 112
    },
    {
      "midi": 57,
      "hit": false,
      "t": 53545.50351562507,
      "d": 1742.7829427083343,
      "v": 103
    },
    {
      "midi": 65,
      "hit": false,
      "t": 53550.3111927084,
      "d": 1740.3791041666627,
      "v": 99
    },
    {
      "midi": 48,
      "hit": false,
      "t": 55382.0361614584,
      "d": 612.9788281250003,
      "v": 99
    },
    {
      "midi": 67,
      "hit": false,
      "t": 55612.8046614584,
      "d": 259.614562499999,
      "v": 117
    },
    {
      "midi": 63,
      "hit": false,
      "t": 55612.8046614584,
      "d": 271.63375520833506,
      "v": 103
    },
    {
      "midi": 58,
      "hit": false,
      "t": 55612.8046614584,
      "d": 274.03759374999936,
      "v": 112
    },
    {
      "midi": 55,
      "hit": false,
      "t": 55615.208500000066,
      "d": 252.40304687499884,
      "v": 117
    },
    {
      "midi": 58,
      "hit": false,
      "t": 55937.3228645834,
      "d": 52.8844479166728,
      "v": 99
    },
    {
      "midi": 63,
      "hit": false,
      "t": 55942.13054166674,
      "d": 50.48060937500122,
      "v": 99
    },
    {
      "midi": 67,
      "hit": false,
      "t": 55942.13054166674,
      "d": 67.30747916666587,
      "v": 95
    },
    {
      "midi": 55,
      "hit": false,
      "t": 55946.938218750074,
      "d": 50.480609374993946,
      "v": 103
    },
    {
      "midi": 48,
      "hit": false,
      "t": 56148.86065625007,
      "d": 52.88444791666552,
      "v": 112
    },
    {
      "midi": 63,
      "hit": false,
      "t": 56276.2640989584,
      "d": 290.86446354165673,
      "v": 112
    },
    {
      "midi": 55,
      "hit": false,
      "t": 56278.66793750007,
      "d": 249.99920833332726,
      "v": 108
    },
    {
      "midi": 58,
      "hit": false,
      "t": 56278.66793750007,
      "d": 278.84527083332796,
      "v": 123
    },
    {
      "midi": 67,
      "hit": false,
      "t": 56281.07177604173,
      "d": 259.614562499999,
      "v": 117
    },
    {
      "midi": 48,
      "hit": false,
      "t": 56511.84027604173,
      "d": 76.92283333333035,
      "v": 108
    },
    {
      "midi": 58,
      "hit": false,
      "t": 56620.013010416726,
      "d": 55.2882864583371,
      "v": 86
    },
    {
      "midi": 63,
      "hit": false,
      "t": 56624.82068750006,
      "d": 48.07677083333692,
      "v": 72
    },
    {
      "midi": 55,
      "hit": false,
      "t": 56624.82068750006,
      "d": 55.2882864583371,
      "v": 95
    },
    {
      "midi": 67,
      "hit": false,
      "t": 56629.6283645834,
      "d": 86.5381875000021,
      "v": 82
    },
    {
      "midi": 48,
      "hit": false,
      "t": 56855.58918750007,
      "d": 43.26909375000105,
      "v": 82
    },
    {
      "midi": 63,
      "hit": false,
      "t": 56990.2041458334,
      "d": 221.15314583333384,
      "v": 108
    },
    {
      "midi": 55,
      "hit": false,
      "t": 56990.2041458334,
      "d": 293.2683020833356,
      "v": 108
    },
    {
      "midi": 58,
      "hit": false,
      "t": 56990.2041458334,
      "d": 338.94123437500093,
      "v": 112
    },
    {
      "midi": 67,
      "hit": false,
      "t": 56995.011822916735,
      "d": 228.364661458334,
      "v": 112
    },
    {
      "midi": 41,
      "hit": false,
      "t": 57232.99183854173,
      "d": 1774.0328437499847,
      "v": 117
    },
    {
      "midi": 57,
      "hit": false,
      "t": 57456.54882291673,
      "d": 1254.803718749994,
      "v": 112
    },
    {
      "midi": 60,
      "hit": false,
      "t": 57458.952661458396,
      "d": 1264.4190729166658,
      "v": 112
    },
    {
      "midi": 65,
      "hit": false,
      "t": 57461.35650000006,
      "d": 1237.9768489583294,
      "v": 108
    },
    {
      "midi": 53,
      "hit": false,
      "t": 57937.31653125006,
      "d": 740.3822708333319,
      "v": 20
    },
    {
      "midi": 63,
      "hit": false,
      "t": 58769.04466666673,
      "d": 300.4798177083212,
      "v": 103
    },
    {
      "midi": 65,
      "hit": false,
      "t": 58771.44850520839,
      "d": 343.74891145832953,
      "v": 108
    },
    {
      "midi": 57,
      "hit": false,
      "t": 58773.852343750055,
      "d": 266.8260781249919,
      "v": 112
    },
    {
      "midi": 53,
      "hit": false,
      "t": 58773.852343750055,
      "d": 300.4798177083285,
      "v": 123
    },
    {
      "midi": 60,
      "hit": false,
      "t": 58776.25618229172,
      "d": 350.960427083337,
      "v": 117
    },
    {
      "midi": 46,
      "hit": false,
      "t": 59038.27458333338,
      "d": 692.3055000000095,
      "v": 108
    },
    {
      "midi": 53,
      "hit": false,
      "t": 59271.44692187506,
      "d": 300.4798177083285,
      "v": 117
    },
    {
      "midi": 62,
      "hit": false,
      "t": 59271.44692187506,
      "d": 326.9220416666649,
      "v": 108
    },
    {
      "midi": 65,
      "hit": false,
      "t": 59273.850760416724,
      "d": 298.0759791666642,
      "v": 99
    },
    {
      "midi": 58,
      "hit": false,
      "t": 59276.25459895839,
      "d": 338.94123437500093,
      "v": 108
    },
    {
      "midi": 53,
      "hit": false,
      "t": 59663.27260416673,
      "d": 55.28828645832982,
      "v": 103
    },
    {
      "midi": 58,
      "hit": false,
      "t": 59665.67644270839,
      "d": 43.26909375000105,
      "v": 86
    },
    {
      "midi": 62,
      "hit": false,
      "t": 59665.67644270839,
      "d": 57.6921250000014,
      "v": 103
    },
    {
      "midi": 65,
      "hit": false,
      "t": 59665.67644270839,
      "d": 81.73051041666622,
      "v": 86
    },
    {
      "midi": 46,
      "hit": false,
      "t": 59843.56049479172,
      "d": 1009.6121874999953,
      "v": 99
    },
    {
      "midi": 53,
      "hit": false,
      "t": 59966.15626041673,
      "d": 877.4010677083279,
      "v": 108
    },
    {
      "midi": 62,
      "hit": false,
      "t": 59968.56009895839,
      "d": 894.2279374999925,
      "v": 117
    },
    {
      "midi": 58,
      "hit": false,
      "t": 59970.963937500055,
      "d": 913.4586458333288,
      "v": 117
    },
    {
      "midi": 65,
      "hit": false,
      "t": 59973.36777604172,
      "d": 850.9588437499988,
      "v": 103
    },
    {
      "midi": 46,
      "hit": false,
      "t": 60922.88400000005,
      "d": 1810.0904218750002,
      "v": 99
    },
    {
      "midi": 53,
      "hit": false,
      "t": 60930.09551562505,
      "d": 1016.8237031250028,
      "v": 108
    },
    {
      "midi": 57,
      "hit": false,
      "t": 60932.49935416671,
      "d": 1067.3043125000113,
      "v": 103
    },
    {
      "midi": 65,
      "hit": false,
      "t": 60937.30703125005,
      "d": 1014.4198645833385,
      "v": 103
    },
    {
      "midi": 62,
      "hit": false,
      "t": 60937.30703125005,
      "d": 1069.7081510416756,
      "v": 108
    },
    {
      "midi": 57,
      "hit": false,
      "t": 62057.495791666726,
      "d": 658.6517604166584,
      "v": 103
    },
    {
      "midi": 53,
      "hit": false,
      "t": 62059.89963020839,
      "d": 624.9980208333291,
      "v": 117
    },
    {
      "midi": 62,
      "hit": false,
      "t": 62059.89963020839,
      "d": 653.8440833333298,
      "v": 108
    },
    {
      "midi": 65,
      "hit": false,
      "t": 62069.514984375055,
      "d": 641.824890625001,
      "v": 99
    },
    {
      "midi": 48,
      "hit": false,
      "t": 62766.628161458386,
      "d": 661.0555989583372,
      "v": 103
    },
    {
      "midi": 55,
      "hit": false,
      "t": 62997.396661458384,
      "d": 271.6337552083278,
      "v": 108
    },
    {
      "midi": 63,
      "hit": false,
      "t": 62999.80050000005,
      "d": 286.05678645832813,
      "v": 108
    },
    {
      "midi": 60,
      "hit": false,
      "t": 62999.80050000005,
      "d": 293.2683020833283,
      "v": 117
    },
    {
      "midi": 58,
      "hit": false,
      "t": 62999.80050000005,
      "d": 298.0759791666642,
      "v": 112
    },
    {
      "midi": 60,
      "hit": false,
      "t": 63350.76092708338,
      "d": 48.07677083333692,
      "v": 95
    },
    {
      "midi": 58,
      "hit": false,
      "t": 63355.568604166714,
      "d": 55.2882864583371,
      "v": 90
    },
    {
      "midi": 63,
      "hit": false,
      "t": 63355.568604166714,
      "d": 67.30747916667315,
      "v": 99
    },
    {
      "midi": 55,
      "hit": false,
      "t": 63362.780119791714,
      "d": 40.86525520833675,
      "v": 74
    },
    {
      "midi": 48,
      "hit": false,
      "t": 63569.510234375055,
      "d": 62.499802083329996,
      "v": 99
    },
    {
      "midi": 55,
      "hit": false,
      "t": 63672.87529166672,
      "d": 259.61456249999173,
      "v": 112
    },
    {
      "midi": 63,
      "hit": false,
      "t": 63672.87529166672,
      "d": 278.84527083332796,
      "v": 108
    },
    {
      "midi": 60,
      "hit": false,
      "t": 63675.279130208386,
      "d": 290.864463541664,
      "v": 127
    },
    {
      "midi": 58,
      "hit": false,
      "t": 63677.68296875005,
      "d": 274.03759374999936,
      "v": 117
    },
    {
      "midi": 48,
      "hit": false,
      "t": 63915.66298437505,
      "d": 663.4594375000015,
      "v": 103
    },
    {
      "midi": 63,
      "hit": false,
      "t": 64009.41268750005,
      "d": 531.2483177083268,
      "v": 99
    },
    {
      "midi": 58,
      "hit": false,
      "t": 64009.41268750005,
      "d": 562.4982187499991,
      "v": 86
    },
    {
      "midi": 55,
      "hit": false,
      "t": 64011.816526041715,
      "d": 223.55698437499814,
      "v": 99
    },
    {
      "midi": 60,
      "hit": false,
      "t": 64011.816526041715,
      "d": 533.6521562499984,
      "v": 103
    },
    {
      "midi": 55,
      "hit": false,
      "t": 64329.123213541716,
      "d": 156.24950520833227,
      "v": 70
    },
    {
      "midi": 41,
      "hit": false,
      "t": 64603.160807291715,
      "d": 653.8440833333298,
      "v": 117
    },
    {
      "midi": 53,
      "hit": false,
      "t": 64821.910114583385,
      "d": 274.03759374999936,
      "v": 108
    },
    {
      "midi": 57,
      "hit": false,
      "t": 64821.910114583385,
      "d": 286.05678645832813,
      "v": 108
    },
    {
      "midi": 60,
      "hit": false,
      "t": 64826.71779166672,
      "d": 278.84527083332796,
      "v": 117
    },
    {
      "midi": 63,
      "hit": false,
      "t": 64829.121630208385,
      "d": 281.24910937499226,
      "v": 112
    },
    {
      "midi": 63,
      "hit": false,
      "t": 65172.87054166671,
      "d": 79.32667187500192,
      "v": 99
    },
    {
      "midi": 60,
      "hit": false,
      "t": 65175.27438020837,
      "d": 50.48060937500122,
      "v": 99
    },
    {
      "midi": 57,
      "hit": false,
      "t": 65177.678218750036,
      "d": 50.48060937500122,
      "v": 90
    },
    {
      "midi": 53,
      "hit": false,
      "t": 65177.678218750036,
      "d": 55.2882864583371,
      "v": 82
    },
    {
      "midi": 41,
      "hit": false,
      "t": 65398.83136458338,
      "d": 915.8624843749931,
      "v": 99
    },
    {
      "midi": 53,
      "hit": false,
      "t": 65516.619453125044,
      "d": 593.7481197916713,
      "v": 108
    },
    {
      "midi": 63,
      "hit": false,
      "t": 65516.619453125044,
      "d": 793.2667187499974,
      "v": 99
    },
    {
      "midi": 60,
      "hit": false,
      "t": 65519.02329166671,
      "d": 793.2667187499974,
      "v": 117
    },
    {
      "midi": 57,
      "hit": false,
      "t": 65519.02329166671,
      "d": 805.2859114583334,
      "v": 117
    },
    {
      "midi": 53,
      "hit": false,
      "t": 66129.59828125004,
      "d": 132.21111979166744,
      "v": 55
    },
    {
      "midi": 46,
      "hit": false,
      "t": 66470.94335416671,
      "d": 800.4782343749976,
      "v": 127
    },
    {
      "midi": 53,
      "hit": false,
      "t": 66927.67267708338,
      "d": 360.5757812499942,
      "v": 127
    },
    {
      "midi": 62,
      "hit": false,
      "t": 66927.67267708338,
      "d": 389.4218437499949,
      "v": 123
    },
    {
      "midi": 58,
      "hit": false,
      "t": 66927.67267708338,
      "d": 435.0947760416602,
      "v": 127
    },
    {
      "midi": 46,
      "hit": false,
      "t": 67386.80583854171,
      "d": 812.4974270833336,
      "v": 127
    },
    {
      "midi": 53,
      "hit": false,
      "t": 67838.72748437505,
      "d": 358.1719427083299,
      "v": 117
    },
    {
      "midi": 62,
      "hit": false,
      "t": 67841.13132291671,
      "d": 403.8448749999952,
      "v": 117
    },
    {
      "midi": 58,
      "hit": false,
      "t": 67841.13132291671,
      "d": 430.2870989583316,
      "v": 127
    },
    {
      "midi": 46,
      "hit": false,
      "t": 68309.87983854172,
      "d": 903.8432916666497,
      "v": 117
    },
    {
      "midi": 62,
      "hit": false,
      "t": 68766.60916145839,
      "d": 350.96042708332243,
      "v": 123
    },
    {
      "midi": 53,
      "hit": false,
      "t": 68769.01300000005,
      "d": 317.30668749999313,
      "v": 123
    },
    {
      "midi": 58,
      "hit": false,
      "t": 68769.01300000005,
      "d": 379.8064895833231,
      "v": 127
    },
    {
      "midi": 41,
      "hit": false,
      "t": 69458.91466145837,
      "d": 252.40304687499884,
      "v": 123
    },
    {
      "midi": 43,
      "hit": false,
      "t": 69687.2793229167,
      "d": 259.6145625000063,
      "v": 117
    },
    {
      "midi": 45,
      "hit": false,
      "t": 69918.0478229167,
      "d": 218.74930729166954,
      "v": 123
    },
    {
      "midi": 46,
      "hit": false,
      "t": 70151.22016145838,
      "d": 394.22952083333803,
      "v": 123
    },
    {
      "midi": 53,
      "hit": false,
      "t": 70610.35332291671,
      "d": 322.1143645833363,
      "v": 123
    },
    {
      "midi": 58,
      "hit": false,
      "t": 70610.35332291671,
      "d": 374.9988125000091,
      "v": 123
    },
    {
      "midi": 62,
      "hit": false,
      "t": 70610.35332291671,
      "d": 374.9988125000091,
      "v": 117
    },
    {
      "midi": 46,
      "hit": false,
      "t": 71067.08264583339,
      "d": 802.8820729166619,
      "v": 117
    },
    {
      "midi": 53,
      "hit": false,
      "t": 71533.42732291673,
      "d": 317.30668749999313,
      "v": 112
    },
    {
      "midi": 62,
      "hit": false,
      "t": 71533.42732291673,
      "d": 370.1911354166514,
      "v": 123
    },
    {
      "midi": 58,
      "hit": false,
      "t": 71535.8311614584,
      "d": 362.9796197916585,
      "v": 127
    },
    {
      "midi": 46,
      "hit": false,
      "t": 71994.96432291671,
      "d": 783.6513645833475,
      "v": 103
    },
    {
      "midi": 53,
      "hit": false,
      "t": 72461.30900000005,
      "d": 305.28749479167163,
      "v": 123
    },
    {
      "midi": 62,
      "hit": false,
      "t": 72461.30900000005,
      "d": 346.1527500000084,
      "v": 123
    },
    {
      "midi": 58,
      "hit": false,
      "t": 72461.30900000005,
      "d": 372.5949739583448,
      "v": 127
    },
    {
      "midi": 43,
      "hit": false,
      "t": 73156.01833854173,
      "d": 271.6337552083278,
      "v": 123
    },
    {
      "midi": 45,
      "hit": false,
      "t": 73381.9791614584,
      "d": 249.99920833331998,
      "v": 112
    },
    {
      "midi": 47,
      "hit": false,
      "t": 73610.34382291672,
      "d": 235.57617708331964,
      "v": 112
    },
    {
      "midi": 48,
      "hit": false,
      "t": 73845.92000000004,
      "d": 435.0947760416602,
      "v": 123
    },
    {
      "midi": 55,
      "hit": false,
      "t": 74302.6493229167,
      "d": 334.1335572916578,
      "v": 123
    },
    {
      "midi": 64,
      "hit": false,
      "t": 74302.6493229167,
      "d": 348.55658854165813,
      "v": 117
    },
    {
      "midi": 60,
      "hit": false,
      "t": 74305.05316145836,
      "d": 411.0563906249881,
      "v": 123
    },
    {
      "midi": 55,
      "hit": false,
      "t": 75220.91564583335,
      "d": 396.6333593750023,
      "v": 123
    },
    {
      "midi": 64,
      "hit": false,
      "t": 75220.91564583335,
      "d": 396.6333593750023,
      "v": 123
    },
    {
      "midi": 60,
      "hit": false,
      "t": 75220.91564583335,
      "d": 449.5178072916751,
      "v": 127
    },
    {
      "midi": 48,
      "hit": false,
      "t": 75677.64496875001,
      "d": 1747.5906197916484,
      "v": 112
    },
    {
      "midi": 55,
      "hit": false,
      "t": 76153.60500000001,
      "d": 355.7681041666656,
      "v": 123
    },
    {
      "midi": 64,
      "hit": false,
      "t": 76153.60500000001,
      "d": 362.9796197916585,
      "v": 123
    },
    {
      "midi": 60,
      "hit": false,
      "t": 76153.60500000001,
      "d": 399.0371979166521,
      "v": 127
    },
    {
      "midi": 55,
      "hit": false,
      "t": 77064.65980729167,
      "d": 439.9024531249888,
      "v": 117
    },
    {
      "midi": 60,
      "hit": false,
      "t": 77064.65980729167,
      "d": 456.7293229166535,
      "v": 123
    },
    {
      "midi": 64,
      "hit": false,
      "t": 77067.06364583333,
      "d": 430.2870989583316,
      "v": 123
    },
    {
      "midi": 41,
      "hit": false,
      "t": 77557.44670833331,
      "d": 653.8440833333152,
      "v": 117
    },
    {
      "midi": 56,
      "hit": false,
      "t": 77776.19601562498,
      "d": 257.21072395832743,
      "v": 112
    },
    {
      "midi": 65,
      "hit": false,
      "t": 77776.19601562498,
      "d": 271.6337552083278,
      "v": 123
    },
    {
      "midi": 60,
      "hit": false,
      "t": 77776.19601562498,
      "d": 293.26830208332103,
      "v": 123
    },
    {
      "midi": 56,
      "hit": false,
      "t": 78117.54108854163,
      "d": 60.0959635416657,
      "v": 99
    },
    {
      "midi": 60,
      "hit": false,
      "t": 78119.9449270833,
      "d": 48.07677083332965,
      "v": 99
    },
    {
      "midi": 65,
      "hit": false,
      "t": 78119.9449270833,
      "d": 76.92283333333035,
      "v": 99
    },
    {
      "midi": 41,
      "hit": false,
      "t": 78360.32878124996,
      "d": 1031.2467343749886,
      "v": 103
    },
    {
      "midi": 56,
      "hit": false,
      "t": 78466.0976770833,
      "d": 841.3434895833198,
      "v": 117
    },
    {
      "midi": 65,
      "hit": false,
      "t": 78470.90535416662,
      "d": 817.3051041666622,
      "v": 112
    },
    {
      "midi": 60,
      "hit": false,
      "t": 78470.90535416662,
      "d": 865.3818749999919,
      "v": 123
    },
    {
      "midi": 46,
      "hit": false,
      "t": 79425.22925520828,
      "d": 812.497427083319,
      "v": 117
    },
    {
      "midi": 65,
      "hit": false,
      "t": 79427.63309374994,
      "d": 855.7665208333201,
      "v": 117
    },
    {
      "midi": 61,
      "hit": false,
      "t": 79427.63309374994,
      "d": 961.5354166666511,
      "v": 117
    },
    {
      "midi": 56,
      "hit": false,
      "t": 79430.03693229161,
      "d": 757.2091406249965,
      "v": 117
    },
    {
      "midi": 48,
      "hit": false,
      "t": 80314.64951562493,
      "d": 822.1127812499763,
      "v": 103
    },
    {
      "midi": 58,
      "hit": false,
      "t": 80543.01417708326,
      "d": 249.99920833333454,
      "v": 117
    },
    {
      "midi": 63,
      "hit": false,
      "t": 80543.01417708326,
      "d": 288.46062499999243,
      "v": 117
    },
    {
      "midi": 67,
      "hit": false,
      "t": 80545.41801562492,
      "d": 252.40304687499884,
      "v": 123
    },
    {
      "midi": 58,
      "hit": false,
      "t": 80898.78228124992,
      "d": 173.07637499998964,
      "v": 112
    },
    {
      "midi": 63,
      "hit": false,
      "t": 80901.18611979159,
      "d": 108.17273437499534,
      "v": 117
    },
    {
      "midi": 67,
      "hit": false,
      "t": 80901.18611979159,
      "d": 112.98041145832394,
      "v": 123
    },
    {
      "midi": 41,
      "hit": false,
      "t": 81237.72351562491,
      "d": 637.0172135416506,
      "v": 103
    },
    {
      "midi": 56,
      "hit": false,
      "t": 81461.2804999999,
      "d": 245.19153125000594,
      "v": 117
    },
    {
      "midi": 65,
      "hit": false,
      "t": 81461.2804999999,
      "d": 249.99920833333454,
      "v": 117
    },
    {
      "midi": 60,
      "hit": false,
      "t": 81461.2804999999,
      "d": 276.44143229167094,
      "v": 117
    },
    {
      "midi": 60,
      "hit": false,
      "t": 81797.81789583324,
      "d": 52.884447916658246,
      "v": 112
    },
    {
      "midi": 56,
      "hit": false,
      "t": 81800.2217343749,
      "d": 50.480609374993946,
      "v": 103
    },
    {
      "midi": 65,
      "hit": false,
      "t": 81800.2217343749,
      "d": 72.1151562499872,
      "v": 103
    },
    {
      "midi": 41,
      "hit": false,
      "t": 82021.37488020823,
      "d": 990.3814791666664,
      "v": 112
    },
    {
      "midi": 56,
      "hit": false,
      "t": 82134.35529166656,
      "d": 540.8636718749913,
      "v": 117
    },
    {
      "midi": 65,
      "hit": false,
      "t": 82139.1629687499,
      "d": 841.3434895833343,
      "v": 117
    },
    {
      "midi": 60,
      "hit": false,
      "t": 82139.1629687499,
      "d": 850.958843750006,
      "v": 123
    },
    {
      "midi": 56,
      "hit": false,
      "t": 82761.75715104156,
      "d": 175.4802135416685,
      "v": 70
    },
    {
      "midi": 46,
      "hit": false,
      "t": 83059.83313020822,
      "d": 302.8836562499928,
      "v": 103
    },
    {
      "midi": 56,
      "hit": false,
      "t": 83302.62082291655,
      "d": 254.8068854166777,
      "v": 117
    },
    {
      "midi": 61,
      "hit": false,
      "t": 83307.42849999988,
      "d": 278.8452708333498,
      "v": 123
    },
    {
      "midi": 65,
      "hit": false,
      "t": 83307.42849999988,
      "d": 283.6529479166784,
      "v": 123
    },
    {
      "midi": 46,
      "hit": false,
      "t": 83504.54326041655,
      "d": 387.018005208316,
      "v": 86
    },
    {
      "midi": 65,
      "hit": false,
      "t": 83639.15821874989,
      "d": 76.9228333333158,
      "v": 108
    },
    {
      "midi": 61,
      "hit": false,
      "t": 83643.96589583321,
      "d": 50.480609374993946,
      "v": 103
    },
    {
      "midi": 56,
      "hit": false,
      "t": 83643.96589583321,
      "d": 55.288286458322546,
      "v": 95
    },
    {
      "midi": 63,
      "hit": false,
      "t": 83997.3301614582,
      "d": 252.40304687499884,
      "v": 117
    },
    {
      "midi": 48,
      "hit": false,
      "t": 83997.3301614582,
      "d": 358.1719427083299,
      "v": 99
    },
    {
      "midi": 58,
      "hit": false,
      "t": 83999.73399999987,
      "d": 225.96082291666244,
      "v": 127
    },
    {
      "midi": 67,
      "hit": false,
      "t": 83999.73399999987,
      "d": 235.5761770833342,
      "v": 117
    },
    {
      "midi": 63,
      "hit": false,
      "t": 84317.04068749987,
      "d": 48.07677083332965,
      "v": 108
    },
    {
      "midi": 58,
      "hit": false,
      "t": 84319.44452604154,
      "d": 52.884447916658246,
      "v": 103
    },
    {
      "midi": 67,
      "hit": false,
      "t": 84319.44452604154,
      "d": 91.3458645833307,
      "v": 117
    },
    {
      "midi": 48,
      "hit": false,
      "t": 84569.44373437487,
      "d": 57.6921250000014,
      "v": 112
    },
    {
      "midi": 58,
      "hit": false,
      "t": 84677.61646874987,
      "d": 276.44143229167094,
      "v": 117
    },
    {
      "midi": 63,
      "hit": false,
      "t": 84677.61646874987,
      "d": 331.72971875000803,
      "v": 117
    },
    {
      "midi": 67,
      "hit": false,
      "t": 84680.02030729153,
      "d": 189.90324479166884,
      "v": 123
    },
    {
      "midi": 41,
      "hit": false,
      "t": 84963.67325520821,
      "d": 668.2671145833301,
      "v": 123
    },
    {
      "midi": 56,
      "hit": false,
      "t": 85167.99953124988,
      "d": 269.2299166666635,
      "v": 112
    },
    {
      "midi": 65,
      "hit": false,
      "t": 85167.99953124988,
      "d": 278.84527083333523,
      "v": 112
    },
    {
      "midi": 60,
      "hit": false,
      "t": 85170.40336979154,
      "d": 302.88365625000733,
      "v": 112
    },
    {
      "midi": 60,
      "hit": false,
      "t": 85521.36379687488,
      "d": 45.67293229166535,
      "v": 95
    },
    {
      "midi": 56,
      "hit": false,
      "t": 85521.36379687488,
      "d": 52.884447916658246,
      "v": 95
    },
    {
      "midi": 65,
      "hit": false,
      "t": 85523.76763541655,
      "d": 74.51899479166605,
      "v": 95
    },
    {
      "midi": 41,
      "hit": false,
      "t": 85829.0551302082,
      "d": 862.9780364583276,
      "v": 99
    },
    {
      "midi": 56,
      "hit": false,
      "t": 85843.4781614582,
      "d": 930.2855156250007,
      "v": 117
    },
    {
      "midi": 65,
      "hit": false,
      "t": 85845.88199999987,
      "d": 846.1511666666629,
      "v": 123
    },
    {
      "midi": 60,
      "hit": false,
      "t": 85848.28583854153,
      "d": 947.1123854166653,
      "v": 123
    },
    {
      "midi": 46,
      "hit": false,
      "t": 86776.16751562487,
      "d": 783.6513645833329,
      "v": 99
    },
    {
      "midi": 56,
      "hit": false,
      "t": 87002.12833854153,
      "d": 259.6145625000063,
      "v": 112
    },
    {
      "midi": 65,
      "hit": false,
      "t": 87002.12833854153,
      "d": 262.0184010416706,
      "v": 117
    },
    {
      "midi": 61,
      "hit": false,
      "t": 87002.12833854153,
      "d": 281.24910937499953,
      "v": 112
    },
    {
      "midi": 61,
      "hit": false,
      "t": 87343.4734114582,
      "d": 67.30747916667315,
      "v": 117
    },
    {
      "midi": 56,
      "hit": false,
      "t": 87343.4734114582,
      "d": 72.11515625000175,
      "v": 108
    },
    {
      "midi": 65,
      "hit": false,
      "t": 87343.4734114582,
      "d": 115.3842500000028,
      "v": 112
    },
    {
      "midi": 58,
      "hit": false,
      "t": 87675.2031302082,
      "d": 786.0552031249972,
      "v": 112
    },
    {
      "midi": 63,
      "hit": false,
      "t": 87675.2031302082,
      "d": 819.708942708341,
      "v": 108
    },
    {
      "midi": 67,
      "hit": false,
      "t": 87677.60696874987,
      "d": 742.7861093749962,
      "v": 117
    },
    {
      "midi": 48,
      "hit": false,
      "t": 87682.4146458332,
      "d": 802.8820729166764,
      "v": 103
    },
    {
      "midi": 41,
      "hit": false,
      "t": 88595.87329166655,
      "d": 651.4402447916364,
      "v": 123
    },
    {
      "midi": 56,
      "hit": false,
      "t": 88836.25714583321,
      "d": 247.59536979165568,
      "v": 117
    },
    {
      "midi": 65,
      "hit": false,
      "t": 88841.06482291654,
      "d": 247.59536979165568,
      "v": 117
    },
    {
      "midi": 60,
      "hit": false,
      "t": 88841.06482291654,
      "d": 266.82607812498463,
      "v": 117
    },
    {
      "midi": 65,
      "hit": false,
      "t": 89167.98686458319,
      "d": 74.51899479166605,
      "v": 99
    },
    {
      "midi": 56,
      "hit": false,
      "t": 89172.79454166652,
      "d": 52.8844479166728,
      "v": 103
    },
    {
      "midi": 60,
      "hit": false,
      "t": 89172.79454166652,
      "d": 52.8844479166728,
      "v": 112
    },
    {
      "midi": 41,
      "hit": false,
      "t": 89417.98607291652,
      "d": 88.9420260416664,
      "v": 108
    },
    {
      "midi": 56,
      "hit": false,
      "t": 89530.96648437486,
      "d": 38.46141666667245,
      "v": 117
    },
    {
      "midi": 65,
      "hit": false,
      "t": 89530.96648437486,
      "d": 257.21072395832743,
      "v": 117
    },
    {
      "midi": 60,
      "hit": false,
      "t": 89530.96648437486,
      "d": 266.8260781249992,
      "v": 123
    },
    {
      "midi": 41,
      "hit": false,
      "t": 89766.5426614582,
      "d": 584.1327656250069,
      "v": 103
    },
    {
      "midi": 56,
      "hit": false,
      "t": 89881.9269114582,
      "d": 199.5185989583406,
      "v": 103
    },
    {
      "midi": 65,
      "hit": false,
      "t": 89881.9269114582,
      "d": 204.3262760416692,
      "v": 103
    },
    {
      "midi": 60,
      "hit": false,
      "t": 89881.9269114582,
      "d": 228.3646614583413,
      "v": 117
    },
    {
      "midi": 56,
      "hit": false,
      "t": 90225.67582291654,
      "d": 182.6917291666614,
      "v": 108
    },
    {
      "midi": 60,
      "hit": false,
      "t": 90225.67582291654,
      "d": 204.32627604165464,
      "v": 117
    },
    {
      "midi": 65,
      "hit": false,
      "t": 90225.67582291654,
      "d": 204.32627604165464,
      "v": 108
    },
    {
      "midi": 46,
      "hit": false,
      "t": 90458.8481614582,
      "d": 874.9972291666782,
      "v": 103
    },
    {
      "midi": 56,
      "hit": false,
      "t": 90689.6166614582,
      "d": 290.8644635416713,
      "v": 103
    },
    {
      "midi": 65,
      "hit": false,
      "t": 90689.6166614582,
      "d": 338.94123437500093,
      "v": 112
    },
    {
      "midi": 61,
      "hit": false,
      "t": 90689.6166614582,
      "d": 341.34507291666523,
      "v": 117
    },
    {
      "midi": 56,
      "hit": false,
      "t": 91040.57708854154,
      "d": 192.30708333333314,
      "v": 103
    },
    {
      "midi": 65,
      "hit": false,
      "t": 91040.57708854154,
      "d": 223.55698437499814,
      "v": 95
    },
    {
      "midi": 61,
      "hit": false,
      "t": 91040.57708854154,
      "d": 235.5761770833342,
      "v": 99
    },
    {
      "midi": 67,
      "hit": false,
      "t": 91381.9221614582,
      "d": 360.5757812499942,
      "v": 123
    },
    {
      "midi": 48,
      "hit": false,
      "t": 91381.9221614582,
      "d": 752.4014635416534,
      "v": 117
    },
    {
      "midi": 58,
      "hit": false,
      "t": 91384.32599999987,
      "d": 358.1719427083299,
      "v": 117
    },
    {
      "midi": 63,
      "hit": false,
      "t": 91384.32599999987,
      "d": 401.4410364583309,
      "v": 117
    },
    {
      "midi": 67,
      "hit": false,
      "t": 91845.86299999987,
      "d": 257.21072395832743,
      "v": 112
    },
    {
      "midi": 58,
      "hit": false,
      "t": 91845.86299999987,
      "d": 278.8452708333207,
      "v": 117
    },
    {
      "midi": 63,
      "hit": false,
      "t": 91845.86299999987,
      "d": 300.4798177083285,
      "v": 123
    },
    {
      "midi": 29,
      "hit": false,
      "t": 92304.9961614582,
      "d": 1805.2827447916497,
      "v": 112
    },
    {
      "midi": 68,
      "hit": false,
      "t": 92307.39999999986,
      "d": 1786.0520364583354,
      "v": 117
    },
    {
      "midi": 65,
      "hit": false,
      "t": 92307.39999999986,
      "d": 1790.859713541664,
      "v": 127
    },
    {
      "midi": 60,
      "hit": false,
      "t": 92307.39999999986,
      "d": 1798.0712291666568,
      "v": 123
    },
    {
      "midi": 41,
      "hit": false,
      "t": 92307.39999999986,
      "d": 1807.686583333314,
      "v": 108
    },
    {
      "midi": 46,
      "hit": false,
      "t": 94163.1633541665,
      "d": 620.1903437499859,
      "v": 127
    },
    {
      "midi": 56,
      "hit": false,
      "t": 94386.7203385415,
      "d": 276.4414322916564,
      "v": 127
    },
    {
      "midi": 61,
      "hit": false,
      "t": 94389.12417708317,
      "d": 271.6337552083278,
      "v": 127
    },
    {
      "midi": 53,
      "hit": false,
      "t": 94391.52801562483,
      "d": 271.6337552083278,
      "v": 117
    },
    {
      "midi": 56,
      "hit": false,
      "t": 94744.89228124983,
      "d": 33.6537395833293,
      "v": 99
    },
    {
      "midi": 53,
      "hit": false,
      "t": 94744.89228124983,
      "d": 36.0575781249936,
      "v": 78
    },
    {
      "midi": 61,
      "hit": false,
      "t": 94744.89228124983,
      "d": 48.07677083332965,
      "v": 117
    },
    {
      "midi": 61,
      "hit": false,
      "t": 94901.14178645816,
      "d": 28.8460625000007,
      "v": 70
    },
    {
      "midi": 46,
      "hit": false,
      "t": 94946.81471874983,
      "d": 72.11515625000175,
      "v": 117
    },
    {
      "midi": 53,
      "hit": false,
      "t": 95062.19896874983,
      "d": 254.80688541664858,
      "v": 123
    },
    {
      "midi": 61,
      "hit": false,
      "t": 95064.60280729149,
      "d": 247.59536979165568,
      "v": 127
    },
    {
      "midi": 56,
      "hit": false,
      "t": 95067.00664583316,
      "d": 249.99920833331998,
      "v": 127
    },
    {
      "midi": 46,
      "hit": false,
      "t": 95278.54443749982,
      "d": 117.78808854165254,
      "v": 99
    },
    {
      "midi": 61,
      "hit": false,
      "t": 95401.1402031248,
      "d": 48.07677083332965,
      "v": 117
    },
    {
      "midi": 56,
      "hit": false,
      "t": 95403.54404166646,
      "d": 31.249901041664998,
      "v": 90
    },
    {
      "midi": 53,
      "hit": false,
      "t": 95410.75555729146,
      "d": 24.0383854166721,
      "v": 53
    },
    {
      "midi": 61,
      "hit": false,
      "t": 95559.79354687479,
      "d": 38.46141666667245,
      "v": 69
    },
    {
      "midi": 46,
      "hit": false,
      "t": 95655.94708854146,
      "d": 1360.5726145833178,
      "v": 123
    },
    {
      "midi": 61,
      "hit": false,
      "t": 95761.7159843748,
      "d": 1269.226749999987,
      "v": 127
    },
    {
      "midi": 53,
      "hit": false,
      "t": 95764.11982291646,
      "d": 1230.7653333333292,
      "v": 123
    },
    {
      "midi": 56,
      "hit": false,
      "t": 95764.11982291646,
      "d": 1274.0344270833157,
      "v": 127
    },
    {
      "midi": 46,
      "hit": false,
      "t": 97131.90395312477,
      "d": 562.49821874997,
      "v": 95
    },
    {
      "midi": 53,
      "hit": false,
      "t": 97134.30779166643,
      "d": 288.46062499999243,
      "v": 112
    },
    {
      "midi": 61,
      "hit": false,
      "t": 97136.7116302081,
      "d": 307.6913333333214,
      "v": 123
    },
    {
      "midi": 56,
      "hit": false,
      "t": 97136.7116302081,
      "d": 314.9028489583143,
      "v": 127
    },
    {
      "midi": 61,
      "hit": false,
      "t": 97509.30660416641,
      "d": 269.2299166666635,
      "v": 117
    },
    {
      "midi": 53,
      "hit": false,
      "t": 97511.71044270808,
      "d": 235.5761770833342,
      "v": 108
    },
    {
      "midi": 56,
      "hit": false,
      "t": 97511.71044270808,
      "d": 278.84527083333523,
      "v": 117
    },
    {
      "midi": 41,
      "hit": false,
      "t": 97841.0363229164,
      "d": 634.6133749999863,
      "v": 123
    },
    {
      "midi": 56,
      "hit": false,
      "t": 98057.38179166641,
      "d": 276.44143229167094,
      "v": 127
    },
    {
      "midi": 53,
      "hit": false,
      "t": 98062.18946874974,
      "d": 233.1723385416699,
      "v": 127
    },
    {
      "midi": 65,
      "hit": false,
      "t": 98062.18946874974,
      "d": 259.6145625000063,
      "v": 123
    },
    {
      "midi": 60,
      "hit": false,
      "t": 98064.5933072914,
      "d": 269.22991666667804,
      "v": 123
    },
    {
      "midi": 56,
      "hit": false,
      "t": 98398.72686458308,
      "d": 55.288286458322546,
      "v": 112
    },
    {
      "midi": 53,
      "hit": false,
      "t": 98401.13070312474,
      "d": 55.288286458322546,
      "v": 108
    },
    {
      "midi": 65,
      "hit": false,
      "t": 98401.13070312474,
      "d": 74.5189947916515,
      "v": 108
    },
    {
      "midi": 60,
      "hit": false,
      "t": 98403.5345416664,
      "d": 33.6537395833293,
      "v": 108
    },
    {
      "midi": 41,
      "hit": false,
      "t": 98631.89920312473,
      "d": 531.2483177082904,
      "v": 108
    },
    {
      "midi": 56,
      "hit": false,
      "t": 98742.47577604139,
      "d": 278.8452708333207,
      "v": 123
    },
    {
      "midi": 53,
      "hit": false,
      "t": 98744.87961458306,
      "d": 98.55738020833815,
      "v": 123
    },
    {
      "midi": 60,
      "hit": false,
      "t": 98744.87961458306,
      "d": 240.3838541666628,
      "v": 123
    },
    {
      "midi": 65,
      "hit": false,
      "t": 98747.28345312472,
      "d": 274.0375937499921,
      "v": 123
    },
    {
      "midi": 53,
      "hit": false,
      "t": 98966.03276041639,
      "d": 108.17273437499534,
      "v": 103
    },
    {
      "midi": 65,
      "hit": false,
      "t": 99095.84004166638,
      "d": 38.4614166666579,
      "v": 103
    },
    {
      "midi": 60,
      "hit": false,
      "t": 99095.84004166638,
      "d": 43.269093749986496,
      "v": 123
    },
    {
      "midi": 56,
      "hit": false,
      "t": 99100.64771874971,
      "d": 43.269093749986496,
      "v": 103
    },
    {
      "midi": 41,
      "hit": false,
      "t": 99302.57015624968,
      "d": 84.1343489583378,
      "v": 103
    },
    {
      "midi": 53,
      "hit": false,
      "t": 99422.76208333301,
      "d": 1317.3035208333313,
      "v": 117
    },
    {
      "midi": 65,
      "hit": false,
      "t": 99425.16592187468,
      "d": 1310.0920052083384,
      "v": 127
    },
    {
      "midi": 56,
      "hit": false,
      "t": 99425.16592187468,
      "d": 1355.7649375000037,
      "v": 123
    },
    {
      "midi": 60,
      "hit": false,
      "t": 99425.16592187468,
      "d": 1358.168776041668,
      "v": 127
    },
    {
      "midi": 41,
      "hit": false,
      "t": 99660.74209895801,
      "d": 1721.1483958333265,
      "v": 127
    },
    {
      "midi": 56,
      "hit": false,
      "t": 100845.83449999968,
      "d": 658.6517604166584,
      "v": 117
    },
    {
      "midi": 65,
      "hit": false,
      "t": 100848.23833854134,
      "d": 538.459833333327,
      "v": 123
    },
    {
      "midi": 53,
      "hit": false,
      "t": 100848.23833854134,
      "d": 586.5366041666566,
      "v": 112
    },
    {
      "midi": 60,
      "hit": false,
      "t": 100853.04601562467,
      "d": 591.3442812499998,
      "v": 117
    },
    {
      "midi": 36,
      "hit": false,
      "t": 101533.33232291634,
      "d": 843.7473281249986,
      "v": 127
    },
    {
      "midi": 52,
      "hit": false,
      "t": 101749.67779166634,
      "d": 105.76889583333104,
      "v": 117
    },
    {
      "midi": 60,
      "hit": false,
      "t": 101749.67779166634,
      "d": 137.01879687499604,
      "v": 117
    },
    {
      "midi": 55,
      "hit": false,
      "t": 101752.081630208,
      "d": 153.8456666666607,
      "v": 117
    },
    {
      "midi": 52,
      "hit": false,
      "t": 101975.638614583,
      "d": 74.51899479166605,
      "v": 99
    },
    {
      "midi": 55,
      "hit": false,
      "t": 101975.638614583,
      "d": 110.57657291665964,
      "v": 117
    },
    {
      "midi": 60,
      "hit": false,
      "t": 101980.44629166633,
      "d": 105.76889583333104,
      "v": 112
    },
    {
      "midi": 52,
      "hit": false,
      "t": 102216.02246874967,
      "d": 76.92283333333035,
      "v": 78
    },
    {
      "midi": 60,
      "hit": false,
      "t": 102218.42630729133,
      "d": 98.55738020833815,
      "v": 99
    },
    {
      "midi": 55,
      "hit": false,
      "t": 102220.830145833,
      "d": 96.15354166667385,
      "v": 95
    },
    {
      "midi": 43,
      "hit": false,
      "t": 102444.38713020801,
      "d": 447.1139687499817,
      "v": 123
    },
    {
      "midi": 55,
      "hit": false,
      "t": 102451.598645833,
      "d": 370.19113541666593,
      "v": 123
    },
    {
      "midi": 59,
      "hit": false,
      "t": 102451.598645833,
      "d": 377.4026510416588,
      "v": 123
    },
    {
      "midi": 65,
      "hit": false,
      "t": 102451.598645833,
      "d": 391.8256822916592,
      "v": 127
    },
    {
      "midi": 64,
      "hit": false,
      "t": 102937.17403124965,
      "d": 338.94123437500093,
      "v": 123
    },
    {
      "midi": 36,
      "hit": false,
      "t": 102937.17403124965,
      "d": 403.8448749999952,
      "v": 127
    },
    {
      "midi": 55,
      "hit": false,
      "t": 102939.57786979132,
      "d": 322.1143645833363,
      "v": 112
    },
    {
      "midi": 58,
      "hit": false,
      "t": 102941.98170833298,
      "d": 334.13355729167233,
      "v": 117
    },
    {
      "midi": 41,
      "hit": false,
      "t": 103425.15325520799,
      "d": 1641.8217239582882,
      "v": 123
    },
    {
      "midi": 53,
      "hit": false,
      "t": 103631.88336979132,
      "d": 264.4222395833349,
      "v": 117
    },
    {
      "midi": 56,
      "hit": false,
      "t": 103631.88336979132,
      "d": 312.49901041666453,
      "v": 123
    },
    {
      "midi": 65,
      "hit": false,
      "t": 103634.28720833299,
      "d": 276.44143229167094,
      "v": 123
    },
    {
      "midi": 60,
      "hit": false,
      "t": 103634.28720833299,
      "d": 314.90284895832883,
      "v": 127
    },
    {
      "midi": 53,
      "hit": false,
      "t": 104081.40117708298,
      "d": 300.4798177083285,
      "v": 108
    },
    {
      "midi": 56,
      "hit": false,
      "t": 104081.40117708298,
      "d": 343.74891145832953,
      "v": 112
    },
    {
      "midi": 65,
      "hit": false,
      "t": 104086.20885416631,
      "d": 307.69133333333593,
      "v": 108
    },
    {
      "midi": 60,
      "hit": false,
      "t": 104086.20885416631,
      "d": 346.15274999999383,
      "v": 103
    },
    {
      "midi": 65,
      "hit": false,
      "t": 104552.55353124964,
      "d": 293.26830208332103,
      "v": 108
    },
    {
      "midi": 56,
      "hit": false,
      "t": 104557.36120833296,
      "d": 302.8836562499928,
      "v": 108
    },
    {
      "midi": 53,
      "hit": false,
      "t": 104559.76504687463,
      "d": 271.6337552083278,
      "v": 112
    },
    {
      "midi": 60,
      "hit": false,
      "t": 104564.57272395796,
      "d": 310.09517187500023,
      "v": 99
    },
    {
      "midi": 56,
      "hit": false,
      "t": 104999.66749999962,
      "d": 305.2874947916571,
      "v": 112
    },
    {
      "midi": 60,
      "hit": false,
      "t": 105002.07133854128,
      "d": 218.749307291655,
      "v": 112
    },
    {
      "midi": 53,
      "hit": false,
      "t": 105002.07133854128,
      "d": 252.40304687499884,
      "v": 108
    },
    {
      "midi": 65,
      "hit": false,
      "t": 105004.47517708295,
      "d": 194.71092187499744,
      "v": 117
    },
    {
      "midi": 41,
      "hit": false,
      "t": 105230.43599999961,
      "d": 1709.1292031249614,
      "v": 123
    },
    {
      "midi": 65,
      "hit": false,
      "t": 105453.9929843746,
      "d": 305.2874947916571,
      "v": 112
    },
    {
      "midi": 53,
      "hit": false,
      "t": 105456.39682291627,
      "d": 295.6721406249999,
      "v": 117
    },
    {
      "midi": 56,
      "hit": false,
      "t": 105458.80066145794,
      "d": 334.1335572916578,
      "v": 112
    },
    {
      "midi": 60,
      "hit": false,
      "t": 105458.80066145794,
      "d": 346.15274999999383,
      "v": 117
    },
    {
      "midi": 65,
      "hit": false,
      "t": 105929.95301562459,
      "d": 295.6721406249999,
      "v": 112
    },
    {
      "midi": 56,
      "hit": false,
      "t": 105929.95301562459,
      "d": 319.710526041672,
      "v": 117
    },
    {
      "midi": 53,
      "hit": false,
      "t": 105932.35685416625,
      "d": 269.2299166666635,
      "v": 117
    },
    {
      "midi": 60,
      "hit": false,
      "t": 105932.35685416625,
      "d": 334.13355729167233,
      "v": 123
    },
    {
      "midi": 56,
      "hit": false,
      "t": 106374.66314583292,
      "d": 379.8064895833231,
      "v": 117
    },
    {
      "midi": 53,
      "hit": false,
      "t": 106377.06698437459,
      "d": 329.3258802083292,
      "v": 123
    },
    {
      "midi": 65,
      "hit": false,
      "t": 106377.06698437459,
      "d": 343.74891145832953,
      "v": 112
    },
    {
      "midi": 60,
      "hit": false,
      "t": 106379.47082291625,
      "d": 379.8064895833231,
      "v": 117
    },
    {
      "midi": 56,
      "hit": false,
      "t": 106848.21933854124,
      "d": 235.57617708330508,
      "v": 123
    },
    {
      "midi": 65,
      "hit": false,
      "t": 106850.6231770829,
      "d": 213.9416302083264,
      "v": 117
    },
    {
      "midi": 53,
      "hit": false,
      "t": 106850.6231770829,
      "d": 221.1531458333193,
      "v": 123
    },
    {
      "midi": 60,
      "hit": false,
      "t": 106853.02701562457,
      "d": 225.96082291664788,
      "v": 123
    },
    {
      "midi": 46,
      "hit": false,
      "t": 107119.85309374954,
      "d": 634.6133749999863,
      "v": 112
    },
    {
      "midi": 61,
      "hit": false,
      "t": 107312.16017708287,
      "d": 286.0567864583427,
      "v": 123
    },
    {
      "midi": 65,
      "hit": false,
      "t": 107314.56401562454,
      "d": 262.0184010416706,
      "v": 123
    },
    {
      "midi": 56,
      "hit": false,
      "t": 107314.56401562454,
      "d": 274.03759375000664,
      "v": 123
    },
    {
      "midi": 61,
      "hit": false,
      "t": 107658.31292708288,
      "d": 52.884447916658246,
      "v": 103
    },
    {
      "midi": 56,
      "hit": false,
      "t": 107658.31292708288,
      "d": 60.095963541651145,
      "v": 103
    },
    {
      "midi": 65,
      "hit": false,
      "t": 107660.71676562454,
      "d": 76.9228333333158,
      "v": 99
    },
    {
      "midi": 46,
      "hit": false,
      "t": 107893.88910416618,
      "d": 913.458645833336,
      "v": 103
    },
    {
      "midi": 56,
      "hit": false,
      "t": 107999.65799999952,
      "d": 540.8636718750058,
      "v": 117
    },
    {
      "midi": 65,
      "hit": false,
      "t": 107999.65799999952,
      "d": 749.9976250000036,
      "v": 123
    },
    {
      "midi": 61,
      "hit": false,
      "t": 107999.65799999952,
      "d": 829.3242968749983,
      "v": 123
    },
    {
      "midi": 56,
      "hit": false,
      "t": 108591.00228124952,
      "d": 163.46102083333244,
      "v": 70
    },
    {
      "midi": 48,
      "hit": false,
      "t": 108917.92432291618,
      "d": 274.03759375000664,
      "v": 99
    },
    {
      "midi": 63,
      "hit": false,
      "t": 109148.69282291619,
      "d": 276.44143229167094,
      "v": 117
    },
    {
      "midi": 58,
      "hit": false,
      "t": 109151.09666145785,
      "d": 223.55698437499814,
      "v": 117
    },
    {
      "midi": 67,
      "hit": false,
      "t": 109151.09666145785,
      "d": 249.99920833333454,
      "v": 123
    },
    {
      "midi": 48,
      "hit": false,
      "t": 109374.65364583285,
      "d": 187.49940625000454,
      "v": 95
    },
    {
      "midi": 63,
      "hit": false,
      "t": 109492.44173437453,
      "d": 55.288286458322546,
      "v": 103
    },
    {
      "midi": 58,
      "hit": false,
      "t": 109494.8455729162,
      "d": 50.480609374993946,
      "v": 99
    },
    {
      "midi": 67,
      "hit": false,
      "t": 109494.8455729162,
      "d": 57.692124999986845,
      "v": 103
    },
    {
      "midi": 48,
      "hit": false,
      "t": 109725.61407291619,
      "d": 72.11515625000175,
      "v": 103
    },
    {
      "midi": 58,
      "hit": false,
      "t": 109840.99832291619,
      "d": 245.19153125000594,
      "v": 117
    },
    {
      "midi": 63,
      "hit": false,
      "t": 109840.99832291619,
      "d": 281.24910937499953,
      "v": 112
    },
    {
      "midi": 67,
      "hit": false,
      "t": 109843.40216145785,
      "d": 257.210723958342,
      "v": 117
    },
    {
      "midi": 48,
      "hit": false,
      "t": 110074.17066145786,
      "d": 108.17273437499534,
      "v": 112
    },
    {
      "midi": 63,
      "hit": false,
      "t": 110184.74723437452,
      "d": 62.499802083329996,
      "v": 95
    },
    {
      "midi": 58,
      "hit": false,
      "t": 110187.15107291618,
      "d": 52.8844479166728,
      "v": 95
    },
    {
      "midi": 67,
      "hit": false,
      "t": 110187.15107291618,
      "d": 98.55738020833815,
      "v": 99
    },
    {
      "midi": 48,
      "hit": false,
      "t": 110420.32341145785,
      "d": 269.2299166666635,
      "v": 90
    },
    {
      "midi": 58,
      "hit": false,
      "t": 110535.70766145785,
      "d": 175.4802135416685,
      "v": 112
    },
    {
      "midi": 63,
      "hit": false,
      "t": 110535.70766145785,
      "d": 192.30708333333314,
      "v": 108
    },
    {
      "midi": 67,
      "hit": false,
      "t": 110538.11149999952,
      "d": 163.46102083333244,
      "v": 108
    },
    {
      "midi": 41,
      "hit": false,
      "t": 110773.68767708285,
      "d": 656.247921874965,
      "v": 117
    },
    {
      "midi": 53,
      "hit": false,
      "t": 110997.24466145785,
      "d": 245.19153124999139,
      "v": 117
    },
    {
      "midi": 65,
      "hit": false,
      "t": 110999.64849999952,
      "d": 264.42223958332033,
      "v": 99
    },
    {
      "midi": 60,
      "hit": false,
      "t": 110999.64849999952,
      "d": 276.4414322916564,
      "v": 108
    },
    {
      "midi": 56,
      "hit": false,
      "t": 110999.64849999952,
      "d": 281.249109374985,
      "v": 103
    },
    {
      "midi": 56,
      "hit": false,
      "t": 111343.39741145783,
      "d": 55.288286458322546,
      "v": 82
    },
    {
      "midi": 60,
      "hit": false,
      "t": 111348.20508854116,
      "d": 28.8460625000007,
      "v": 78
    },
    {
      "midi": 53,
      "hit": false,
      "t": 111348.20508854116,
      "d": 48.07677083332965,
      "v": 82
    },
    {
      "midi": 65,
      "hit": false,
      "t": 111350.60892708282,
      "d": 45.67293229166535,
      "v": 72
    },
    {
      "midi": 41,
      "hit": false,
      "t": 111581.37742708281,
      "d": 860.5741979166778,
      "v": 99
    },
    {
      "midi": 53,
      "hit": false,
      "t": 111689.55016145781,
      "d": 572.1135729166708,
      "v": 117
    },
    {
      "midi": 65,
      "hit": false,
      "t": 111689.55016145781,
      "d": 581.7289270833426,
      "v": 117
    },
    {
      "midi": 60,
      "hit": false,
      "t": 111689.55016145781,
      "d": 983.1699635416735,
      "v": 123
    },
    {
      "midi": 56,
      "hit": false,
      "t": 111689.55016145781,
      "d": 990.3814791666664,
      "v": 117
    },
    {
      "midi": 65,
      "hit": false,
      "t": 112369.83646874949,
      "d": 225.96082291666244,
      "v": 78
    },
    {
      "midi": 53,
      "hit": false,
      "t": 112374.64414583282,
      "d": 281.24910937499953,
      "v": 86
    },
    {
      "midi": 41,
      "hit": false,
      "t": 112617.43183854115,
      "d": 617.7865052083216,
      "v": 108
    },
    {
      "midi": 53,
      "hit": false,
      "t": 112840.98882291614,
      "d": 221.15314583333384,
      "v": 117
    },
    {
      "midi": 65,
      "hit": false,
      "t": 112840.98882291614,
      "d": 235.5761770833342,
      "v": 123
    },
    {
      "midi": 60,
      "hit": false,
      "t": 112840.98882291614,
      "d": 242.78769270832709,
      "v": 123
    },
    {
      "midi": 56,
      "hit": false,
      "t": 112840.98882291614,
      "d": 262.01840104165603,
      "v": 123
    },
    {
      "midi": 56,
      "hit": false,
      "t": 113177.52621874947,
      "d": 62.499802083329996,
      "v": 99
    },
    {
      "midi": 60,
      "hit": false,
      "t": 113179.93005729113,
      "d": 38.46141666667245,
      "v": 108
    },
    {
      "midi": 53,
      "hit": false,
      "t": 113179.93005729113,
      "d": 57.6921250000014,
      "v": 95
    },
    {
      "midi": 65,
      "hit": false,
      "t": 113179.93005729113,
      "d": 72.11515625000175,
      "v": 103
    },
    {
      "midi": 41,
      "hit": false,
      "t": 113420.3139114578,
      "d": 925.477838541643,
      "v": 103
    },
    {
      "midi": 53,
      "hit": false,
      "t": 113533.29432291613,
      "d": 540.8636718749913,
      "v": 123
    },
    {
      "midi": 60,
      "hit": false,
      "t": 113533.29432291613,
      "d": 790.8628802083113,
      "v": 123
    },
    {
      "midi": 65,
      "hit": false,
      "t": 113535.6981614578,
      "d": 769.228333333318,
      "v": 117
    },
    {
      "midi": 56,
      "hit": false,
      "t": 113535.6981614578,
      "d": 814.9012656249688,
      "v": 123
    },
    {
      "midi": 53,
      "hit": false,
      "t": 114213.58063020778,
      "d": 103.36505729166674,
      "v": 86
    },
    {
      "midi": 65,
      "hit": false,
      "t": 114458.77216145776,
      "d": 519.229124999998,
      "v": 117
    },
    {
      "midi": 46,
      "hit": false,
      "t": 114458.77216145776,
      "d": 521.6329635416623,
      "v": 108
    },
    {
      "midi": 56,
      "hit": false,
      "t": 114461.17599999942,
      "d": 538.459833333327,
      "v": 112
    },
    {
      "midi": 61,
      "hit": false,
      "t": 114461.17599999942,
      "d": 562.4982187499991,
      "v": 117
    },
    {
      "midi": 61,
      "hit": false,
      "t": 115153.48149999943,
      "d": 79.32667187499464,
      "v": 123
    },
    {
      "midi": 56,
      "hit": false,
      "t": 115155.88533854109,
      "d": 74.51899479166605,
      "v": 117
    },
    {
      "midi": 65,
      "hit": false,
      "t": 115155.88533854109,
      "d": 110.57657291665964,
      "v": 112
    },
    {
      "midi": 46,
      "hit": false,
      "t": 115155.88533854109,
      "d": 483.1715468749899,
      "v": 117
    },
    {
      "midi": 56,
      "hit": false,
      "t": 115607.80698437442,
      "d": 338.94123437500093,
      "v": 117
    },
    {
      "midi": 65,
      "hit": false,
      "t": 115607.80698437442,
      "d": 362.97961979167303,
      "v": 117
    },
    {
      "midi": 61,
      "hit": false,
      "t": 115607.80698437442,
      "d": 603.3634739583358,
      "v": 112
    },
    {
      "midi": 46,
      "hit": false,
      "t": 115838.57548437442,
      "d": 394.2295208333235,
      "v": 95
    },
    {
      "midi": 56,
      "hit": false,
      "t": 116069.34398437443,
      "d": 110.57657291665964,
      "v": 67
    },
    {
      "midi": 65,
      "hit": false,
      "t": 116069.34398437443,
      "d": 127.40344270832429,
      "v": 90
    },
    {
      "midi": 67,
      "hit": false,
      "t": 116304.92016145775,
      "d": 509.61377083332627,
      "v": 123
    },
    {
      "midi": 58,
      "hit": false,
      "t": 116304.92016145775,
      "d": 512.0176093749906,
      "v": 99
    },
    {
      "midi": 63,
      "hit": false,
      "t": 116304.92016145775,
      "d": 562.4982187499845,
      "v": 108
    },
    {
      "midi": 48,
      "hit": false,
      "t": 116307.32399999941,
      "d": 697.1131770833163,
      "v": 103
    },
    {
      "midi": 63,
      "hit": false,
      "t": 116994.82182291607,
      "d": 74.5189947916515,
      "v": 117
    },
    {
      "midi": 58,
      "hit": false,
      "t": 116997.22566145773,
      "d": 52.884447916658246,
      "v": 108
    },
    {
      "midi": 67,
      "hit": false,
      "t": 116997.22566145773,
      "d": 64.9036406249943,
      "v": 117
    },
    {
      "midi": 63,
      "hit": false,
      "t": 117451.55114583272,
      "d": 399.0371979166521,
      "v": 103
    },
    {
      "midi": 58,
      "hit": false,
      "t": 117453.95498437439,
      "d": 329.3258802083292,
      "v": 103
    },
    {
      "midi": 67,
      "hit": false,
      "t": 117453.95498437439,
      "d": 346.15274999999383,
      "v": 108
    },
    {
      "midi": 48,
      "hit": false,
      "t": 117689.53116145772,
      "d": 358.1719427083153,
      "v": 95
    },
    {
      "midi": 63,
      "hit": false,
      "t": 117915.49198437437,
      "d": 175.4802135416685,
      "v": 95
    },
    {
      "midi": 67,
      "hit": false,
      "t": 117917.89582291603,
      "d": 139.4226354166749,
      "v": 103
    },
    {
      "midi": 58,
      "hit": false,
      "t": 117917.89582291603,
      "d": 153.84566666667524,
      "v": 99
    },
    {
      "midi": 41,
      "hit": false,
      "t": 118148.66432291604,
      "d": 774.0360104166612,
      "v": 108
    },
    {
      "midi": 53,
      "hit": false,
      "t": 118377.02898437437,
      "d": 334.13355729167233,
      "v": 108
    },
    {
      "midi": 56,
      "hit": false,
      "t": 118377.02898437437,
      "d": 370.19113541666593,
      "v": 112
    },
    {
      "midi": 65,
      "hit": false,
      "t": 118379.43282291603,
      "d": 322.1143645833363,
      "v": 108
    },
    {
      "midi": 60,
      "hit": false,
      "t": 118379.43282291603,
      "d": 377.4026510416734,
      "v": 108
    },
    {
      "midi": 53,
      "hit": false,
      "t": 118845.77749999937,
      "d": 752.4014635416534,
      "v": 123
    },
    {
      "midi": 65,
      "hit": false,
      "t": 118845.77749999937,
      "d": 776.4398489583255,
      "v": 112
    },
    {
      "midi": 56,
      "hit": false,
      "t": 118845.77749999937,
      "d": 798.0743958333187,
      "v": 117
    },
    {
      "midi": 60,
      "hit": false,
      "t": 118845.77749999937,
      "d": 824.5166197916551,
      "v": 117
    },
    {
      "midi": 41,
      "hit": false,
      "t": 119535.6791614577,
      "d": 317.30668749999313,
      "v": 99
    },
    {
      "midi": 56,
      "hit": false,
      "t": 119761.63998437436,
      "d": 170.67253645832534,
      "v": 70
    },
    {
      "midi": 53,
      "hit": false,
      "t": 119764.04382291602,
      "d": 79.32667187499464,
      "v": 70
    },
    {
      "midi": 65,
      "hit": false,
      "t": 119764.04382291602,
      "d": 129.8072812499886,
      "v": 86
    },
    {
      "midi": 60,
      "hit": false,
      "t": 119766.44766145769,
      "d": 93.749703124995,
      "v": 70
    },
    {
      "midi": 46,
      "hit": false,
      "t": 120023.65838541601,
      "d": 79.32667187499464,
      "v": 117
    },
    {
      "midi": 58,
      "hit": false,
      "t": 120122.21576562434,
      "d": 62.499802083329996,
      "v": 123
    },
    {
      "midi": 70,
      "hit": false,
      "t": 120232.792338541,
      "d": 79.32667187499464,
      "v": 112
    },
    {
      "midi": 61,
      "hit": false,
      "t": 120235.19617708266,
      "d": 62.499802083329996,
      "v": 117
    },
    {
      "midi": 68,
      "hit": false,
      "t": 120235.19617708266,
      "d": 62.499802083329996,
      "v": 117
    },
    {
      "midi": 73,
      "hit": false,
      "t": 120237.60001562432,
      "d": 60.0959635416657,
      "v": 99
    },
    {
      "midi": 65,
      "hit": false,
      "t": 120237.60001562432,
      "d": 69.71131770833745,
      "v": 112
    },
    {
      "midi": 65,
      "hit": false,
      "t": 120480.38770833265,
      "d": 401.4410364583309,
      "v": 127
    },
    {
      "midi": 61,
      "hit": false,
      "t": 120480.38770833265,
      "d": 411.0563906250027,
      "v": 127
    },
    {
      "midi": 73,
      "hit": false,
      "t": 120482.79154687432,
      "d": 370.19113541666593,
      "v": 123
    },
    {
      "midi": 70,
      "hit": false,
      "t": 120482.79154687432,
      "d": 415.8640677083313,
      "v": 117
    },
    {
      "midi": 68,
      "hit": false,
      "t": 120485.19538541598,
      "d": 384.6141666666663,
      "v": 123
    },
    {
      "midi": 39,
      "hit": false,
      "t": 120915.48248437431,
      "d": 86.5381875000021,
      "v": 117
    },
    {
      "midi": 51,
      "hit": false,
      "t": 121028.46289583265,
      "d": 57.6921250000014,
      "v": 112
    },
    {
      "midi": 70,
      "hit": false,
      "t": 121139.03946874932,
      "d": 81.73051041665894,
      "v": 112
    },
    {
      "midi": 61,
      "hit": false,
      "t": 121143.84714583265,
      "d": 60.0959635416657,
      "v": 123
    },
    {
      "midi": 63,
      "hit": false,
      "t": 121143.84714583265,
      "d": 67.3074791666586,
      "v": 117
    },
    {
      "midi": 67,
      "hit": false,
      "t": 121146.25098437432,
      "d": 74.51899479166605,
      "v": 117
    },
    {
      "midi": 61,
      "hit": false,
      "t": 121379.42332291599,
      "d": 317.30668749999313,
      "v": 127
    },
    {
      "midi": 67,
      "hit": false,
      "t": 121379.42332291599,
      "d": 336.5373958333221,
      "v": 127
    },
    {
      "midi": 70,
      "hit": false,
      "t": 121381.82716145765,
      "d": 329.3258802083292,
      "v": 123
    },
    {
      "midi": 63,
      "hit": false,
      "t": 121381.82716145765,
      "d": 343.74891145832953,
      "v": 123
    },
    {
      "midi": 44,
      "hit": false,
      "t": 121845.76799999931,
      "d": 329.32588020834373,
      "v": 117
    },
    {
      "midi": 56,
      "hit": false,
      "t": 122076.53649999932,
      "d": 98.55738020833815,
      "v": 127
    },
    {
      "midi": 60,
      "hit": false,
      "t": 122307.30499999932,
      "d": 262.0184010416706,
      "v": 127
    },
    {
      "midi": 68,
      "hit": false,
      "t": 122307.30499999932,
      "d": 288.460625000007,
      "v": 123
    },
    {
      "midi": 63,
      "hit": false,
      "t": 122307.30499999932,
      "d": 298.07597916667874,
      "v": 127
    },
    {
      "midi": 36,
      "hit": false,
      "t": 122768.84199999933,
      "d": 192.30708333333314,
      "v": 117
    },
    {
      "midi": 48,
      "hit": false,
      "t": 122997.20666145766,
      "d": 84.1343489583378,
      "v": 123
    },
    {
      "midi": 58,
      "hit": false,
      "t": 123230.37899999933,
      "d": 305.28749479167163,
      "v": 123
    },
    {
      "midi": 67,
      "hit": false,
      "t": 123230.37899999933,
      "d": 307.69133333333593,
      "v": 123
    },
    {
      "midi": 63,
      "hit": false,
      "t": 123230.37899999933,
      "d": 379.8064895833377,
      "v": 117
    },
    {
      "midi": 34,
      "hit": false,
      "t": 123694.319838541,
      "d": 223.55698437499814,
      "v": 108
    },
    {
      "midi": 46,
      "hit": false,
      "t": 123917.876822916,
      "d": 76.92283333333035,
      "v": 117
    },
    {
      "midi": 56,
      "hit": false,
      "t": 124155.856838541,
      "d": 322.1143645833363,
      "v": 123
    },
    {
      "midi": 65,
      "hit": false,
      "t": 124155.856838541,
      "d": 343.74891145832953,
      "v": 127
    },
    {
      "midi": 61,
      "hit": false,
      "t": 124155.856838541,
      "d": 360.5757812499942,
      "v": 123
    },
    {
      "midi": 39,
      "hit": false,
      "t": 124612.58616145767,
      "d": 274.0375937499921,
      "v": 112
    },
    {
      "midi": 51,
      "hit": false,
      "t": 124840.950822916,
      "d": 74.51899479166605,
      "v": 117
    },
    {
      "midi": 63,
      "hit": false,
      "t": 125069.31548437433,
      "d": 391.8256822916592,
      "v": 123
    },
    {
      "midi": 58,
      "hit": false,
      "t": 125071.71932291599,
      "d": 331.7297187499935,
      "v": 127
    },
    {
      "midi": 67,
      "hit": false,
      "t": 125071.71932291599,
      "d": 358.1719427083299,
      "v": 123
    },
    {
      "midi": 44,
      "hit": false,
      "t": 125535.66016145765,
      "d": 286.05678645832813,
      "v": 117
    },
    {
      "midi": 56,
      "hit": false,
      "t": 125761.62098437431,
      "d": 79.32667187499464,
      "v": 117
    },
    {
      "midi": 60,
      "hit": false,
      "t": 125992.3894843743,
      "d": 271.6337552083278,
      "v": 127
    },
    {
      "midi": 68,
      "hit": false,
      "t": 125992.3894843743,
      "d": 271.6337552083278,
      "v": 127
    },
    {
      "midi": 63,
      "hit": false,
      "t": 125994.79332291597,
      "d": 298.0759791666642,
      "v": 127
    },
    {
      "midi": 36,
      "hit": false,
      "t": 126456.33032291596,
      "d": 199.5185989583406,
      "v": 112
    },
    {
      "midi": 48,
      "hit": false,
      "t": 126682.29114583264,
      "d": 86.5381875000021,
      "v": 127
    },
    {
      "midi": 58,
      "hit": false,
      "t": 126917.86732291598,
      "d": 319.710526041672,
      "v": 127
    },
    {
      "midi": 67,
      "hit": false,
      "t": 126917.86732291598,
      "d": 322.1143645833363,
      "v": 123
    },
    {
      "midi": 63,
      "hit": false,
      "t": 126917.86732291598,
      "d": 399.0371979166666,
      "v": 123
    },
    {
      "midi": 34,
      "hit": false,
      "t": 127384.21199999932,
      "d": 240.38385416667734,
      "v": 103
    },
    {
      "midi": 46,
      "hit": false,
      "t": 127614.98049999932,
      "d": 88.9420260416664,
      "v": 123
    },
    {
      "midi": 61,
      "hit": false,
      "t": 127845.74899999933,
      "d": 365.3834583333228,
      "v": 123
    },
    {
      "midi": 56,
      "hit": false,
      "t": 127848.15283854099,
      "d": 302.8836562499928,
      "v": 117
    },
    {
      "midi": 65,
      "hit": false,
      "t": 127848.15283854099,
      "d": 336.5373958333221,
      "v": 123
    },
    {
      "midi": 39,
      "hit": false,
      "t": 128302.47832291598,
      "d": 242.78769270832709,
      "v": 112
    },
    {
      "midi": 51,
      "hit": false,
      "t": 128538.05449999931,
      "d": 76.92283333333035,
      "v": 117
    },
    {
      "midi": 67,
      "hit": false,
      "t": 128768.8229999993,
      "d": 370.19113541666593,
      "v": 127
    },
    {
      "midi": 63,
      "hit": false,
      "t": 128768.8229999993,
      "d": 384.6141666666663,
      "v": 117
    },
    {
      "midi": 58,
      "hit": false,
      "t": 128771.22683854097,
      "d": 324.5182031250006,
      "v": 123
    },
    {
      "midi": 44,
      "hit": false,
      "t": 129225.55232291597,
      "d": 341.34507291666523,
      "v": 117
    },
    {
      "midi": 56,
      "hit": false,
      "t": 129461.12849999931,
      "d": 91.3458645833307,
      "v": 112
    },
    {
      "midi": 60,
      "hit": false,
      "t": 129689.49316145763,
      "d": 358.1719427083299,
      "v": 117
    },
    {
      "midi": 68,
      "hit": false,
      "t": 129689.49316145763,
      "d": 362.9796197916585,
      "v": 117
    },
    {
      "midi": 63,
      "hit": false,
      "t": 129689.49316145763,
      "d": 396.6333593749878,
      "v": 123
    },
    {
      "midi": 36,
      "hit": false,
      "t": 130148.62632291595,
      "d": 197.11476041666174,
      "v": 117
    },
    {
      "midi": 48,
      "hit": false,
      "t": 130379.39482291594,
      "d": 91.3458645833307,
      "v": 117
    },
    {
      "midi": 58,
      "hit": false,
      "t": 130612.56716145761,
      "d": 353.3642656250013,
      "v": 123
    },
    {
      "midi": 63,
      "hit": false,
      "t": 130612.56716145761,
      "d": 415.86406770834583,
      "v": 117
    },
    {
      "midi": 67,
      "hit": false,
      "t": 130614.97099999928,
      "d": 360.57578125000873,
      "v": 123
    },
    {
      "midi": 34,
      "hit": false,
      "t": 131074.10416145762,
      "d": 223.55698437499814,
      "v": 117
    },
    {
      "midi": 46,
      "hit": false,
      "t": 131304.87266145763,
      "d": 105.7688958333456,
      "v": 127
    },
    {
      "midi": 65,
      "hit": false,
      "t": 131533.237322916,
      "d": 348.55658854168723,
      "v": 117
    },
    {
      "midi": 61,
      "hit": false,
      "t": 131533.237322916,
      "d": 365.3834583333519,
      "v": 117
    },
    {
      "midi": 56,
      "hit": false,
      "t": 131535.64116145766,
      "d": 305.28749479167163,
      "v": 117
    },
    {
      "midi": 39,
      "hit": false,
      "t": 131985.15896874934,
      "d": 223.55698437499814,
      "v": 117
    },
    {
      "midi": 51,
      "hit": false,
      "t": 132223.13898437432,
      "d": 117.78808854165254,
      "v": 123
    },
    {
      "midi": 58,
      "hit": false,
      "t": 132453.9074843743,
      "d": 329.32588020834373,
      "v": 123
    },
    {
      "midi": 67,
      "hit": false,
      "t": 132453.9074843743,
      "d": 377.40265104168793,
      "v": 127
    },
    {
      "midi": 63,
      "hit": false,
      "t": 132453.9074843743,
      "d": 413.4602291666961,
      "v": 117
    },
    {
      "midi": 44,
      "hit": false,
      "t": 132915.44448437434,
      "d": 343.74891145832953,
      "v": 117
    },
    {
      "midi": 56,
      "hit": false,
      "t": 133148.616822916,
      "d": 91.3458645833307,
      "v": 123
    },
    {
      "midi": 60,
      "hit": false,
      "t": 133379.385322916,
      "d": 326.9220416666649,
      "v": 123
    },
    {
      "midi": 68,
      "hit": false,
      "t": 133379.385322916,
      "d": 350.960427083337,
      "v": 123
    },
    {
      "midi": 63,
      "hit": false,
      "t": 133379.385322916,
      "d": 374.9988125000091,
      "v": 123
    },
    {
      "midi": 36,
      "hit": false,
      "t": 133836.11464583268,
      "d": 360.5757812499942,
      "v": 123
    },
    {
      "midi": 48,
      "hit": false,
      "t": 134066.8831458327,
      "d": 115.3842500000028,
      "v": 123
    },
    {
      "midi": 67,
      "hit": false,
      "t": 134302.45932291602,
      "d": 322.1143645833363,
      "v": 123
    },
    {
      "midi": 58,
      "hit": false,
      "t": 134302.45932291602,
      "d": 336.5373958333221,
      "v": 127
    },
    {
      "midi": 63,
      "hit": false,
      "t": 134302.45932291602,
      "d": 401.4410364583309,
      "v": 123
    },
    {
      "midi": 34,
      "hit": false,
      "t": 134766.40016145768,
      "d": 329.32588020831463,
      "v": 112
    },
    {
      "midi": 46,
      "hit": false,
      "t": 134999.57249999934,
      "d": 103.36505729166674,
      "v": 127
    },
    {
      "midi": 65,
      "hit": false,
      "t": 135232.744838541,
      "d": 329.32588020834373,
      "v": 123
    },
    {
      "midi": 61,
      "hit": false,
      "t": 135232.744838541,
      "d": 353.36426562501583,
      "v": 127
    },
    {
      "midi": 56,
      "hit": false,
      "t": 135235.14867708267,
      "d": 288.460625000007,
      "v": 123
    },
    {
      "midi": 39,
      "hit": false,
      "t": 135689.47416145768,
      "d": 343.74891145835863,
      "v": 117
    },
    {
      "midi": 51,
      "hit": false,
      "t": 135927.4541770827,
      "d": 86.5381875000021,
      "v": 123
    },
    {
      "midi": 67,
      "hit": false,
      "t": 136153.41499999937,
      "d": 262.01840104165603,
      "v": 127
    },
    {
      "midi": 58,
      "hit": false,
      "t": 136153.41499999937,
      "d": 266.82607812498463,
      "v": 127
    },
    {
      "midi": 63,
      "hit": false,
      "t": 136153.41499999937,
      "d": 281.24910937497043,
      "v": 123
    },
    {
      "midi": 44,
      "hit": false,
      "t": 136614.95199999935,
      "d": 492.7869010416907,
      "v": 127
    },
    {
      "midi": 56,
      "hit": false,
      "t": 136850.52817708268,
      "d": 201.9224375000049,
      "v": 123
    },
    {
      "midi": 60,
      "hit": false,
      "t": 137076.48899999936,
      "d": 399.0371979166812,
      "v": 123
    },
    {
      "midi": 68,
      "hit": false,
      "t": 137076.48899999936,
      "d": 399.0371979166812,
      "v": 123
    },
    {
      "midi": 63,
      "hit": false,
      "t": 137076.48899999936,
      "d": 432.6909375000105,
      "v": 123
    },
    {
      "midi": 41,
      "hit": false,
      "t": 137540.42983854105,
      "d": 653.8440833333298,
      "v": 123
    },
    {
      "midi": 53,
      "hit": false,
      "t": 137768.79449999938,
      "d": 382.21032812501653,
      "v": 117
    },
    {
      "midi": 63,
      "hit": false,
      "t": 137997.1591614577,
      "d": 454.3254843750037,
      "v": 123
    },
    {
      "midi": 68,
      "hit": false,
      "t": 137999.56299999938,
      "d": 399.0371979166521,
      "v": 117
    },
    {
      "midi": 60,
      "hit": false,
      "t": 137999.56299999938,
      "d": 427.8832604166528,
      "v": 127
    },
    {
      "midi": 34,
      "hit": false,
      "t": 138468.31151562437,
      "d": 425.47942187503213,
      "v": 117
    },
    {
      "midi": 56,
      "hit": false,
      "t": 138699.08001562438,
      "d": 233.17233854168444,
      "v": 123
    },
    {
      "midi": 61,
      "hit": false,
      "t": 138699.08001562438,
      "d": 259.6145625000063,
      "v": 123
    },
    {
      "midi": 65,
      "hit": false,
      "t": 138701.48385416606,
      "d": 235.5761770833342,
      "v": 108
    },
    {
      "midi": 46,
      "hit": false,
      "t": 138927.44467708273,
      "d": 57.69212499997229,
      "v": 117
    },
    {
      "midi": 61,
      "hit": false,
      "t": 139035.6174114577,
      "d": 50.48060937502305,
      "v": 123
    },
    {
      "midi": 56,
      "hit": false,
      "t": 139035.6174114577,
      "d": 64.90364062500885,
      "v": 108
    },
    {
      "midi": 65,
      "hit": false,
      "t": 139038.02124999938,
      "d": 64.90364062500885,
      "v": 112
    },
    {
      "midi": 39,
      "hit": false,
      "t": 139278.40510416604,
      "d": 560.0943802083784,
      "v": 112
    },
    {
      "midi": 58,
      "hit": false,
      "t": 139384.1739999994,
      "d": 129.8072812499886,
      "v": 123
    },
    {
      "midi": 63,
      "hit": false,
      "t": 139384.1739999994,
      "d": 247.59536979167024,
      "v": 123
    },
    {
      "midi": 67,
      "hit": false,
      "t": 139384.1739999994,
      "d": 249.9992083333491,
      "v": 123
    },
    {
      "midi": 58,
      "hit": false,
      "t": 139600.51946874938,
      "d": 115.3842500000319,
      "v": 67
    },
    {
      "midi": 67,
      "hit": false,
      "t": 139725.51907291607,
      "d": 48.0767708333442,
      "v": 112
    },
    {
      "midi": 63,
      "hit": false,
      "t": 139725.51907291607,
      "d": 52.8844479166728,
      "v": 117
    },
    {
      "midi": 51,
      "hit": false,
      "t": 139946.67221874942,
      "d": 50.480609374993946,
      "v": 117
    },
    {
      "midi": 63,
      "hit": false,
      "t": 140064.46030729107,
      "d": 223.55698437499814,
      "v": 117
    },
    {
      "midi": 58,
      "hit": false,
      "t": 140066.86414583275,
      "d": 146.63415104165324,
      "v": 112
    },
    {
      "midi": 67,
      "hit": false,
      "t": 140066.86414583275,
      "d": 187.49940624999,
      "v": 123
    },
    {
      "midi": 44,
      "hit": false,
      "t": 140314.4595156244,
      "d": 504.8060937500268,
      "v": 123
    },
    {
      "midi": 56,
      "hit": false,
      "t": 140542.82417708272,
      "d": 228.36466145835584,
      "v": 117
    },
    {
      "midi": 63,
      "hit": false,
      "t": 140768.7849999994,
      "d": 413.4602291666961,
      "v": 123
    },
    {
      "midi": 60,
      "hit": false,
      "t": 140768.7849999994,
      "d": 432.6909375000396,
      "v": 117
    },
    {
      "midi": 68,
      "hit": false,
      "t": 140768.7849999994,
      "d": 447.1139687500254,
      "v": 123
    },
    {
      "midi": 41,
      "hit": false,
      "t": 141223.11048437443,
      "d": 603.3634739583358,
      "v": 127
    },
    {
      "midi": 53,
      "hit": false,
      "t": 141458.68666145776,
      "d": 307.6913333333214,
      "v": 112
    },
    {
      "midi": 68,
      "hit": false,
      "t": 141691.85899999941,
      "d": 360.5757812500233,
      "v": 123
    },
    {
      "midi": 60,
      "hit": false,
      "t": 141691.85899999941,
      "d": 387.01800520834513,
      "v": 123
    },
    {
      "midi": 63,
      "hit": false,
      "t": 141691.85899999941,
      "d": 408.6525520833384,
      "v": 123
    },
    {
      "midi": 34,
      "hit": false,
      "t": 142153.39599999943,
      "d": 466.34467708331067,
      "v": 117
    },
    {
      "midi": 46,
      "hit": false,
      "t": 142386.56833854108,
      "d": 343.74891145832953,
      "v": 123
    },
    {
      "midi": 56,
      "hit": false,
      "t": 142614.9329999994,
      "d": 374.9988125000091,
      "v": 127
    },
    {
      "midi": 65,
      "hit": false,
      "t": 142614.9329999994,
      "d": 387.01800520834513,
      "v": 127
    },
    {
      "midi": 61,
      "hit": false,
      "t": 142614.9329999994,
      "d": 406.24871354168863,
      "v": 127
    },
    {
      "midi": 39,
      "hit": false,
      "t": 143071.6623229161,
      "d": 610.5749895833433,
      "v": 117
    },
    {
      "midi": 67,
      "hit": false,
      "t": 143302.4308229161,
      "d": 302.8836562499928,
      "v": 127
    },
    {
      "midi": 58,
      "hit": false,
      "t": 143302.4308229161,
      "d": 307.6913333333214,
      "v": 123
    },
    {
      "midi": 63,
      "hit": false,
      "t": 143302.4308229161,
      "d": 360.5757812499942,
      "v": 117
    },
    {
      "midi": 51,
      "hit": false,
      "t": 143538.00699999943,
      "d": 310.09517187500023,
      "v": 117
    },
    {
      "midi": 58,
      "hit": false,
      "t": 143766.37166145776,
      "d": 170.67253645835444,
      "v": 123
    },
    {
      "midi": 67,
      "hit": false,
      "t": 143766.37166145776,
      "d": 185.09556770834024,
      "v": 123
    },
    {
      "midi": 63,
      "hit": false,
      "t": 143766.37166145776,
      "d": 228.36466145832674,
      "v": 123
    },
    {
      "midi": 44,
      "hit": false,
      "t": 144004.35167708274,
      "d": 629.8056979166868,
      "v": 117
    },
    {
      "midi": 60,
      "hit": false,
      "t": 144230.31249999942,
      "d": 283.6529479166784,
      "v": 127
    },
    {
      "midi": 68,
      "hit": false,
      "t": 144230.31249999942,
      "d": 312.4990104166791,
      "v": 127
    },
    {
      "midi": 63,
      "hit": false,
      "t": 144232.7163385411,
      "d": 314.90284895832883,
      "v": 127
    },
    {
      "midi": 56,
      "hit": false,
      "t": 144458.67716145777,
      "d": 139.4226354166458,
      "v": 117
    },
    {
      "midi": 68,
      "hit": false,
      "t": 144684.63798437442,
      "d": 230.7685000000056,
      "v": 127
    },
    {
      "midi": 63,
      "hit": false,
      "t": 144684.63798437442,
      "d": 237.98001562501304,
      "v": 123
    },
    {
      "midi": 60,
      "hit": false,
      "t": 144684.63798437442,
      "d": 247.59536979167024,
      "v": 127
    },
    {
      "midi": 41,
      "hit": false,
      "t": 144922.61799999943,
      "d": 572.1135729166563,
      "v": 123
    },
    {
      "midi": 60,
      "hit": false,
      "t": 145146.17498437443,
      "d": 262.01840104168514,
      "v": 123
    },
    {
      "midi": 68,
      "hit": false,
      "t": 145148.5788229161,
      "d": 288.460625000007,
      "v": 117
    },
    {
      "midi": 63,
      "hit": false,
      "t": 145148.5788229161,
      "d": 302.8836562499928,
      "v": 123
    },
    {
      "midi": 53,
      "hit": false,
      "t": 145374.5396458328,
      "d": 110.57657291664509,
      "v": 112
    },
    {
      "midi": 60,
      "hit": false,
      "t": 145602.9043072911,
      "d": 288.460625000007,
      "v": 117
    },
    {
      "midi": 68,
      "hit": false,
      "t": 145605.30814583277,
      "d": 269.2299166666635,
      "v": 117
    },
    {
      "midi": 63,
      "hit": false,
      "t": 145605.30814583277,
      "d": 300.47981770831393,
      "v": 117
    },
    {
      "midi": 34,
      "hit": false,
      "t": 145845.69199999943,
      "d": 524.0368020833121,
      "v": 117
    },
    {
      "midi": 56,
      "hit": false,
      "t": 146071.65282291608,
      "d": 271.63375520834234,
      "v": 123
    },
    {
      "midi": 65,
      "hit": false,
      "t": 146071.65282291608,
      "d": 271.63375520834234,
      "v": 123
    },
    {
      "midi": 61,
      "hit": false,
      "t": 146071.65282291608,
      "d": 307.6913333333214,
      "v": 123
    },
    {
      "midi": 46,
      "hit": false,
      "t": 146307.2289999994,
      "d": 221.1531458333484,
      "v": 112
    },
    {
      "midi": 61,
      "hit": false,
      "t": 146437.0362812494,
      "d": 64.90364062500885,
      "v": 127
    },
    {
      "midi": 56,
      "hit": false,
      "t": 146437.0362812494,
      "d": 67.3074791666877,
      "v": 117
    },
    {
      "midi": 65,
      "hit": false,
      "t": 146437.0362812494,
      "d": 96.1535416666884,
      "v": 123
    },
    {
      "midi": 39,
      "hit": false,
      "t": 146662.99710416608,
      "d": 413.460229166667,
      "v": 112
    },
    {
      "midi": 58,
      "hit": false,
      "t": 146773.57367708275,
      "d": 158.6533437499893,
      "v": 123
    },
    {
      "midi": 67,
      "hit": false,
      "t": 146773.57367708275,
      "d": 197.1147604166472,
      "v": 127
    },
    {
      "midi": 63,
      "hit": false,
      "t": 146773.57367708275,
      "d": 310.09517187500023,
      "v": 117
    },
    {
      "midi": 58,
      "hit": false,
      "t": 147009.14985416605,
      "d": 67.3074791666877,
      "v": 99
    },
    {
      "midi": 67,
      "hit": false,
      "t": 147011.55369270773,
      "d": 86.5381875000021,
      "v": 95
    },
    {
      "midi": 51,
      "hit": false,
      "t": 147235.11067708273,
      "d": 64.90364062500885,
      "v": 123
    },
    {
      "midi": 58,
      "hit": false,
      "t": 147357.70644270774,
      "d": 225.960822916677,
      "v": 117
    },
    {
      "midi": 67,
      "hit": false,
      "t": 147357.70644270774,
      "d": 242.78769270834164,
      "v": 127
    },
    {
      "midi": 63,
      "hit": false,
      "t": 147357.70644270774,
      "d": 269.2299166666635,
      "v": 117
    },
    {
      "midi": 44,
      "hit": false,
      "t": 147689.43616145774,
      "d": 586.5366041666421,
      "v": 123
    },
    {
      "midi": 60,
      "hit": false,
      "t": 147920.20466145774,
      "d": 307.6913333333214,
      "v": 117
    },
    {
      "midi": 68,
      "hit": false,
      "t": 147920.20466145774,
      "d": 319.71052604165743,
      "v": 123
    },
    {
      "midi": 63,
      "hit": false,
      "t": 147920.20466145774,
      "d": 334.1335572916432,
      "v": 123
    },
    {
      "midi": 56,
      "hit": false,
      "t": 148148.56932291607,
      "d": 100.96121874998789,
      "v": 117
    },
    {
      "midi": 60,
      "hit": false,
      "t": 148374.53014583272,
      "d": 262.01840104168514,
      "v": 117
    },
    {
      "midi": 68,
      "hit": false,
      "t": 148374.53014583272,
      "d": 262.01840104168514,
      "v": 117
    },
    {
      "midi": 63,
      "hit": false,
      "t": 148376.9339843744,
      "d": 281.24910937499953,
      "v": 117
    },
    {
      "midi": 41,
      "hit": false,
      "t": 148617.31783854106,
      "d": 545.6713489583344,
      "v": 117
    },
    {
      "midi": 60,
      "hit": false,
      "t": 148845.68249999938,
      "d": 281.24910937499953,
      "v": 127
    },
    {
      "midi": 68,
      "hit": false,
      "t": 148845.68249999938,
      "d": 295.67214062498533,
      "v": 127
    },
    {
      "midi": 63,
      "hit": false,
      "t": 148845.68249999938,
      "d": 310.09517187500023,
      "v": 127
    },
    {
      "midi": 53,
      "hit": false,
      "t": 149071.64332291606,
      "d": 76.9228333333158,
      "v": 123
    },
    {
      "midi": 68,
      "hit": false,
      "t": 149302.41182291607,
      "d": 235.5761770833342,
      "v": 117
    },
    {
      "midi": 63,
      "hit": false,
      "t": 149302.41182291607,
      "d": 240.3838541666628,
      "v": 123
    },
    {
      "midi": 60,
      "hit": false,
      "t": 149302.41182291607,
      "d": 264.4222395833349,
      "v": 117
    },
    {
      "midi": 34,
      "hit": false,
      "t": 149537.9879999994,
      "d": 449.51780729170423,
      "v": 112
    },
    {
      "midi": 61,
      "hit": false,
      "t": 149759.14114583275,
      "d": 290.86446354168584,
      "v": 123
    },
    {
      "midi": 56,
      "hit": false,
      "t": 149761.54498437443,
      "d": 259.6145625000063,
      "v": 117
    },
    {
      "midi": 65,
      "hit": false,
      "t": 149761.54498437443,
      "d": 262.01840104168514,
      "v": 117
    },
    {
      "midi": 46,
      "hit": false,
      "t": 149994.7173229161,
      "d": 194.71092187502654,
      "v": 108
    },
    {
      "midi": 61,
      "hit": false,
      "t": 150112.50541145777,
      "d": 43.2690937500156,
      "v": 123
    },
    {
      "midi": 56,
      "hit": false,
      "t": 150114.90924999944,
      "d": 48.0767708333442,
      "v": 112
    },
    {
      "midi": 65,
      "hit": false,
      "t": 150114.90924999944,
      "d": 67.3074791666877,
      "v": 108
    },
    {
      "midi": 39,
      "hit": false,
      "t": 150345.67774999948,
      "d": 533.6521562499984,
      "v": 108
    },
    {
      "midi": 58,
      "hit": false,
      "t": 150456.25432291615,
      "d": 91.3458645833307,
      "v": 123
    },
    {
      "midi": 67,
      "hit": false,
      "t": 150456.25432291615,
      "d": 170.67253645832534,
      "v": 123
    },
    {
      "midi": 63,
      "hit": false,
      "t": 150456.25432291615,
      "d": 247.59536979167024,
      "v": 117
    },
    {
      "midi": 58,
      "hit": false,
      "t": 150684.61898437448,
      "d": 74.51899479166605,
      "v": 90
    },
    {
      "midi": 63,
      "hit": false,
      "t": 150807.2147499995,
      "d": 43.269093749986496,
      "v": 117
    },
    {
      "midi": 67,
      "hit": false,
      "t": 150807.2147499995,
      "d": 76.9228333333158,
      "v": 112
    },
    {
      "midi": 51,
      "hit": false,
      "t": 151035.57941145782,
      "d": 48.0767708333442,
      "v": 127
    },
    {
      "midi": 58,
      "hit": false,
      "t": 151150.96366145782,
      "d": 122.59576562501024,
      "v": 127
    },
    {
      "midi": 67,
      "hit": false,
      "t": 151150.96366145782,
      "d": 134.6149583333463,
      "v": 127
    },
    {
      "midi": 63,
      "hit": false,
      "t": 151150.96366145782,
      "d": 144.2303125000035,
      "v": 117
    },
    {
      "midi": 44,
      "hit": false,
      "t": 151388.94367708283,
      "d": 658.6517604166584,
      "v": 103
    },
    {
      "midi": 56,
      "hit": false,
      "t": 151610.09682291615,
      "d": 257.21072395832743,
      "v": 117
    },
    {
      "midi": 65,
      "hit": false,
      "t": 151610.09682291615,
      "d": 264.4222395833349,
      "v": 112
    },
    {
      "midi": 63,
      "hit": false,
      "t": 151610.09682291615,
      "d": 290.86446354165673,
      "v": 108
    },
    {
      "midi": 60,
      "hit": false,
      "t": 151610.09682291615,
      "d": 293.2683020833356,
      "v": 117
    },
    {
      "midi": 63,
      "hit": false,
      "t": 151956.24957291616,
      "d": 38.4614166666579,
      "v": 90
    },
    {
      "midi": 65,
      "hit": false,
      "t": 151956.24957291616,
      "d": 48.076770833315095,
      "v": 90
    },
    {
      "midi": 56,
      "hit": false,
      "t": 151956.24957291616,
      "d": 52.884447916643694,
      "v": 99
    },
    {
      "midi": 60,
      "hit": false,
      "t": 151956.24957291616,
      "d": 60.095963541651145,
      "v": 103
    },
    {
      "midi": 44,
      "hit": false,
      "t": 152196.63342708282,
      "d": 533.6521562500275,
      "v": 90
    },
    {
      "midi": 56,
      "hit": false,
      "t": 152302.40232291617,
      "d": 129.8072812499886,
      "v": 117
    },
    {
      "midi": 65,
      "hit": false,
      "t": 152302.40232291617,
      "d": 257.21072395829833,
      "v": 117
    },
    {
      "midi": 63,
      "hit": false,
      "t": 152302.40232291617,
      "d": 262.01840104162693,
      "v": 117
    },
    {
      "midi": 60,
      "hit": false,
      "t": 152302.40232291617,
      "d": 283.6529479166202,
      "v": 123
    },
    {
      "midi": 56,
      "hit": false,
      "t": 152533.17082291614,
      "d": 110.57657291664509,
      "v": 69
    },
    {
      "midi": 63,
      "hit": false,
      "t": 152650.9589114578,
      "d": 48.0767708333733,
      "v": 112
    },
    {
      "midi": 65,
      "hit": false,
      "t": 152653.36274999948,
      "d": 45.67293229169445,
      "v": 74
    },
    {
      "midi": 60,
      "hit": false,
      "t": 152655.76658854116,
      "d": 31.24990104167955,
      "v": 90
    },
    {
      "midi": 44,
      "hit": false,
      "t": 152891.34276562452,
      "d": 685.0939843750384,
      "v": 103
    },
    {
      "midi": 63,
      "hit": false,
      "t": 152997.11166145786,
      "d": 800.4782343750121,
      "v": 117
    },
    {
      "midi": 65,
      "hit": false,
      "t": 152999.51549999954,
      "d": 673.0747916666733,
      "v": 117
    },
    {
      "midi": 56,
      "hit": false,
      "t": 152999.51549999954,
      "d": 752.4014635416679,
      "v": 112
    },
    {
      "midi": 60,
      "hit": false,
      "t": 152999.51549999954,
      "d": 798.0743958333333,
      "v": 117
    },
    {
      "midi": 44,
      "hit": false,
      "t": 153696.6286770829,
      "d": 262.01840104168514,
      "v": 103
    },
    {
      "midi": 60,
      "hit": false,
      "t": 153920.1856614579,
      "d": 353.36426562501583,
      "v": 123
    },
    {
      "midi": 56,
      "hit": false,
      "t": 153922.58949999957,
      "d": 271.63375520834234,
      "v": 108
    },
    {
      "midi": 65,
      "hit": false,
      "t": 153922.58949999957,
      "d": 286.05678645832813,
      "v": 117
    },
    {
      "midi": 63,
      "hit": false,
      "t": 153922.58949999957,
      "d": 343.74891145832953,
      "v": 117
    },
    {
      "midi": 44,
      "hit": false,
      "t": 154150.95416145792,
      "d": 810.0935885416693,
      "v": 82
    },
    {
      "midi": 60,
      "hit": false,
      "t": 154372.10730729124,
      "d": 639.421052083344,
      "v": 99
    },
    {
      "midi": 63,
      "hit": false,
      "t": 154372.10730729124,
      "d": 644.2287291666726,
      "v": 86
    },
    {
      "midi": 56,
      "hit": false,
      "t": 154374.51114583292,
      "d": 317.3066875000077,
      "v": 82
    },
    {
      "midi": 65,
      "hit": false,
      "t": 154747.10611979125,
      "d": 2.4038385416788515,
      "v": 82
    },
    {
      "midi": 56,
      "hit": false,
      "t": 154833.64430729125,
      "d": 153.8456666666607,
      "v": 72
    },
    {
      "midi": 46,
      "hit": false,
      "t": 155071.62432291624,
      "d": 874.9972291667073,
      "v": 103
    },
    {
      "midi": 56,
      "hit": false,
      "t": 155299.98898437456,
      "d": 286.05678645832813,
      "v": 127
    },
    {
      "midi": 65,
      "hit": false,
      "t": 155299.98898437456,
      "d": 334.13355729167233,
      "v": 112
    },
    {
      "midi": 61,
      "hit": false,
      "t": 155299.98898437456,
      "d": 338.94123437500093,
      "v": 117
    },
    {
      "midi": 56,
      "hit": false,
      "t": 155662.96860416624,
      "d": 170.67253645835444,
      "v": 95
    },
    {
      "midi": 65,
      "hit": false,
      "t": 155662.96860416624,
      "d": 252.40304687502794,
      "v": 95
    },
    {
      "midi": 61,
      "hit": false,
      "t": 155665.3724427079,
      "d": 237.98001562501304,
      "v": 86
    },
    {
      "midi": 39,
      "hit": false,
      "t": 155989.89064583293,
      "d": 411.05639062501723,
      "v": 117
    },
    {
      "midi": 67,
      "hit": false,
      "t": 156220.65914583293,
      "d": 322.1143645833363,
      "v": 123
    },
    {
      "midi": 61,
      "hit": false,
      "t": 156220.65914583293,
      "d": 350.960427083337,
      "v": 117
    },
    {
      "midi": 51,
      "hit": false,
      "t": 156451.42764583294,
      "d": 374.9988125000091,
      "v": 90
    },
    {
      "midi": 63,
      "hit": false,
      "t": 156588.44644270794,
      "d": 7.211515625007451,
      "v": 72
    },
    {
      "midi": 67,
      "hit": false,
      "t": 156590.85028124962,
      "d": 201.9224375000049,
      "v": 86
    },
    {
      "midi": 61,
      "hit": false,
      "t": 156590.85028124962,
      "d": 254.8068854166777,
      "v": 82
    },
    {
      "midi": 46,
      "hit": false,
      "t": 156917.77232291628,
      "d": 286.05678645832813,
      "v": 103
    },
    {
      "midi": 61,
      "hit": false,
      "t": 156932.19535416627,
      "d": 62.499802083329996,
      "v": 48
    },
    {
      "midi": 65,
      "hit": false,
      "t": 157146.1369843746,
      "d": 310.09517187500023,
      "v": 117
    },
    {
      "midi": 58,
      "hit": false,
      "t": 157148.5408229163,
      "d": 264.4222395833058,
      "v": 112
    },
    {
      "midi": 61,
      "hit": false,
      "t": 157148.5408229163,
      "d": 283.6529479166493,
      "v": 108
    },
    {
      "midi": 46,
      "hit": false,
      "t": 157283.1557812496,
      "d": 456.7293229166535,
      "v": 99
    },
    {
      "midi": 65,
      "hit": false,
      "t": 157494.69357291627,
      "d": 216.3454687499907,
      "v": 90
    },
    {
      "midi": 58,
      "hit": false,
      "t": 157494.69357291627,
      "d": 228.36466145832674,
      "v": 108
    },
    {
      "midi": 68,
      "hit": false,
      "t": 157494.69357291627,
      "d": 240.3838541666628,
      "v": 112
    },
    {
      "midi": 61,
      "hit": false,
      "t": 157494.69357291627,
      "d": 281.24910937499953,
      "v": 112
    },
    {
      "midi": 63,
      "hit": false,
      "t": 157838.4424843746,
      "d": 829.3242968750419,
      "v": 112
    },
    {
      "midi": 61,
      "hit": false,
      "t": 157838.4424843746,
      "d": 838.9396510416991,
      "v": 117
    },
    {
      "midi": 39,
      "hit": false,
      "t": 157840.84632291627,
      "d": 432.6909375000105,
      "v": 117
    },
    {
      "midi": 58,
      "hit": false,
      "t": 157840.84632291627,
      "d": 538.4598333333561,
      "v": 99
    },
    {
      "midi": 67,
      "hit": false,
      "t": 157840.84632291627,
      "d": 774.0360104166903,
      "v": 112
    },
    {
      "midi": 51,
      "hit": false,
      "t": 158304.78716145796,
      "d": 379.8064895833377,
      "v": 82
    },
    {
      "midi": 58,
      "hit": false,
      "t": 158427.38292708297,
      "d": 170.67253645832534,
      "v": 67
    },
    {
      "midi": 46,
      "hit": false,
      "t": 158761.51648437465,
      "d": 283.6529479166784,
      "v": 103
    },
    {
      "midi": 58,
      "hit": false,
      "t": 158992.28498437465,
      "d": 242.78769270834164,
      "v": 123
    },
    {
      "midi": 68,
      "hit": false,
      "t": 158994.68882291633,
      "d": 262.01840104165603,
      "v": 123
    },
    {
      "midi": 61,
      "hit": false,
      "t": 158994.68882291633,
      "d": 271.63375520831323,
      "v": 123
    },
    {
      "midi": 65,
      "hit": false,
      "t": 158994.68882291633,
      "d": 286.05678645829903,
      "v": 117
    },
    {
      "midi": 46,
      "hit": false,
      "t": 159215.84196874965,
      "d": 374.99881249998,
      "v": 99
    },
    {
      "midi": 68,
      "hit": false,
      "t": 159331.22621874962,
      "d": 81.7305104166735,
      "v": 86
    },
    {
      "midi": 58,
      "hit": false,
      "t": 159333.6300572913,
      "d": 60.09596354168025,
      "v": 72
    },
    {
      "midi": 65,
      "hit": false,
      "t": 159336.03389583298,
      "d": 38.4614166666579,
      "v": 86
    },
    {
      "midi": 61,
      "hit": false,
      "t": 159336.03389583298,
      "d": 67.3074791666586,
      "v": 90
    },
    {
      "midi": 51,
      "hit": false,
      "t": 159590.84078124963,
      "d": 894.2279374999925,
      "v": 117
    },
    {
      "midi": 67,
      "hit": false,
      "t": 159686.9943229163,
      "d": 281.24910937499953,
      "v": 123
    },
    {
      "midi": 61,
      "hit": false,
      "t": 159686.9943229163,
      "d": 288.460625000007,
      "v": 117
    },
    {
      "midi": 63,
      "hit": false,
      "t": 159686.9943229163,
      "d": 298.0759791666642,
      "v": 117
    },
    {
      "midi": 63,
      "hit": false,
      "t": 160030.74323437462,
      "d": 516.8252864583337,
      "v": 112
    },
    {
      "midi": 67,
      "hit": false,
      "t": 160033.1470729163,
      "d": 483.1715468750044,
      "v": 108
    },
    {
      "midi": 61,
      "hit": false,
      "t": 160033.1470729163,
      "d": 497.5945781249902,
      "v": 108
    },
    {
      "midi": 46,
      "hit": false,
      "t": 160610.06832291628,
      "d": 865.381875000021,
      "v": 103
    },
    {
      "midi": 68,
      "hit": false,
      "t": 160838.4329843746,
      "d": 276.44143229167094,
      "v": 117
    },
    {
      "midi": 61,
      "hit": false,
      "t": 160840.8368229163,
      "d": 233.17233854165534,
      "v": 112
    },
    {
      "midi": 65,
      "hit": false,
      "t": 160843.24066145797,
      "d": 264.4222395833058,
      "v": 103
    },
    {
      "midi": 58,
      "hit": false,
      "t": 161059.58613020796,
      "d": 281.24910937499953,
      "v": 70
    },
    {
      "midi": 68,
      "hit": false,
      "t": 161177.3742187496,
      "d": 79.32667187502375,
      "v": 86
    },
    {
      "midi": 61,
      "hit": false,
      "t": 161179.7780572913,
      "d": 69.71131770833745,
      "v": 103
    },
    {
      "midi": 65,
      "hit": false,
      "t": 161179.7780572913,
      "d": 98.55738020833815,
      "v": 90
    },
    {
      "midi": 51,
      "hit": false,
      "t": 161525.9308072913,
      "d": 918.2663229166646,
      "v": 90
    },
    {
      "midi": 67,
      "hit": false,
      "t": 161530.73848437463,
      "d": 930.2855156250007,
      "v": 117
    },
    {
      "midi": 63,
      "hit": false,
      "t": 161530.73848437463,
      "d": 1026.43905729166,
      "v": 112
    },
    {
      "midi": 61,
      "hit": false,
      "t": 161533.1423229163,
      "d": 855.7665208333347,
      "v": 112
    },
    {
      "midi": 39,
      "hit": false,
      "t": 161891.31426562465,
      "d": 182.6917291666614,
      "v": 90
    },
    {
      "midi": 44,
      "hit": false,
      "t": 162456.2163229163,
      "d": 853.3626822916558,
      "v": 108
    },
    {
      "midi": 60,
      "hit": false,
      "t": 162686.98482291627,
      "d": 338.94123437500093,
      "v": 108
    },
    {
      "midi": 63,
      "hit": false,
      "t": 162686.98482291627,
      "d": 730.7669166666747,
      "v": 117
    },
    {
      "midi": 68,
      "hit": false,
      "t": 162689.38866145795,
      "d": 728.3630781249958,
      "v": 117
    },
    {
      "midi": 56,
      "hit": false,
      "t": 162905.73413020794,
      "d": 432.6909375000105,
      "v": 95
    },
    {
      "midi": 60,
      "hit": false,
      "t": 163141.31030729128,
      "d": 283.6529479166784,
      "v": 82
    },
    {
      "midi": 36,
      "hit": false,
      "t": 163381.69416145794,
      "d": 425.47942187503213,
      "v": 117
    },
    {
      "midi": 67,
      "hit": false,
      "t": 163610.0588229163,
      "d": 591.3442812499998,
      "v": 123
    },
    {
      "midi": 58,
      "hit": false,
      "t": 163610.0588229163,
      "d": 593.7481197916786,
      "v": 112
    },
    {
      "midi": 63,
      "hit": false,
      "t": 163610.0588229163,
      "d": 615.3826666666719,
      "v": 117
    },
    {
      "midi": 48,
      "hit": false,
      "t": 163850.44267708296,
      "d": 406.24871354168863,
      "v": 82
    },
    {
      "midi": 46,
      "hit": false,
      "t": 164304.768161458,
      "d": 874.9972291666782,
      "v": 112
    },
    {
      "midi": 58,
      "hit": false,
      "t": 164540.34433854133,
      "d": 233.17233854165534,
      "v": 127
    },
    {
      "midi": 68,
      "hit": false,
      "t": 164540.34433854133,
      "d": 257.21072395832743,
      "v": 117
    },
    {
      "midi": 61,
      "hit": false,
      "t": 164540.34433854133,
      "d": 262.01840104165603,
      "v": 127
    },
    {
      "midi": 65,
      "hit": false,
      "t": 164540.34433854133,
      "d": 269.2299166666635,
      "v": 123
    },
    {
      "midi": 65,
      "hit": false,
      "t": 164879.28557291633,
      "d": 62.4998020833591,
      "v": 117
    },
    {
      "midi": 61,
      "hit": false,
      "t": 164879.28557291633,
      "d": 79.32667187502375,
      "v": 112
    },
    {
      "midi": 68,
      "hit": false,
      "t": 164879.28557291633,
      "d": 93.74970312500955,
      "v": 123
    },
    {
      "midi": 58,
      "hit": false,
      "t": 164881.689411458,
      "d": 60.09596354168025,
      "v": 108
    },
    {
      "midi": 67,
      "hit": false,
      "t": 165225.43832291634,
      "d": 769.2283333333617,
      "v": 117
    },
    {
      "midi": 58,
      "hit": false,
      "t": 165225.43832291634,
      "d": 786.0552031250263,
      "v": 123
    },
    {
      "midi": 63,
      "hit": false,
      "t": 165225.43832291634,
      "d": 788.4590416667052,
      "v": 117
    },
    {
      "midi": 61,
      "hit": false,
      "t": 165227.84216145801,
      "d": 788.4590416667052,
      "v": 112
    },
    {
      "midi": 39,
      "hit": false,
      "t": 165230.2459999997,
      "d": 752.4014635416679,
      "v": 117
    },
    {
      "midi": 68,
      "hit": false,
      "t": 166619.66467708306,
      "d": 389.4218437499949,
      "v": 127
    },
    {
      "midi": 56,
      "hit": false,
      "t": 166622.06851562473,
      "d": 343.74891145832953,
      "v": 112
    },
    {
      "midi": 60,
      "hit": false,
      "t": 166622.06851562473,
      "d": 367.78729687500163,
      "v": 127
    },
    {
      "midi": 44,
      "hit": false,
      "t": 166622.06851562473,
      "d": 372.59497395833023,
      "v": 127
    },
    {
      "midi": 63,
      "hit": false,
      "t": 166622.06851562473,
      "d": 396.6333593749732,
      "v": 123
    },
    {
      "midi": 55,
      "hit": false,
      "t": 167078.7978385414,
      "d": 319.71052604168653,
      "v": 108
    },
    {
      "midi": 43,
      "hit": false,
      "t": 167081.20167708307,
      "d": 322.1143645833363,
      "v": 123
    },
    {
      "midi": 59,
      "hit": false,
      "t": 167081.20167708307,
      "d": 331.7297187499935,
      "v": 117
    },
    {
      "midi": 62,
      "hit": false,
      "t": 167081.20167708307,
      "d": 353.36426562498673,
      "v": 127
    },
    {
      "midi": 67,
      "hit": false,
      "t": 167081.20167708307,
      "d": 358.1719427083153,
      "v": 123
    },
    {
      "midi": 61,
      "hit": false,
      "t": 167535.52716145804,
      "d": 350.960427083337,
      "v": 127
    },
    {
      "midi": 42,
      "hit": false,
      "t": 167537.93099999972,
      "d": 307.6913333333214,
      "v": 127
    },
    {
      "midi": 54,
      "hit": false,
      "t": 167537.93099999972,
      "d": 312.49901041665,
      "v": 99
    },
    {
      "midi": 58,
      "hit": false,
      "t": 167537.93099999972,
      "d": 314.90284895832883,
      "v": 117
    },
    {
      "midi": 66,
      "hit": false,
      "t": 167537.93099999972,
      "d": 343.74891145832953,
      "v": 117
    },
    {
      "midi": 65,
      "hit": false,
      "t": 167994.66032291637,
      "d": 1752.398296875006,
      "v": 127
    },
    {
      "midi": 53,
      "hit": false,
      "t": 167997.06416145805,
      "d": 1733.1675885416626,
      "v": 127
    },
    {
      "midi": 63,
      "hit": false,
      "t": 167997.06416145805,
      "d": 1747.5906197916484,
      "v": 123
    },
    {
      "midi": 57,
      "hit": false,
      "t": 167997.06416145805,
      "d": 1762.0136510416633,
      "v": 127
    },
    {
      "midi": 60,
      "hit": false,
      "t": 167997.06416145805,
      "d": 1762.0136510416633,
      "v": 127
    },
    {
      "midi": 41,
      "hit": false,
      "t": 167997.06416145805,
      "d": 1776.436682291649,
      "v": 127
    },
    {
      "midi": 62,
      "hit": false,
      "t": 169850.42367708305,
      "d": 1718.7445572917059,
      "v": 95
    },
    {
      "midi": 65,
      "hit": false,
      "t": 169850.42367708305,
      "d": 1733.1675885416917,
      "v": 108
    },
    {
      "midi": 70,
      "hit": false,
      "t": 169852.82751562473,
      "d": 1677.87930208334,
      "v": 99
    },
    {
      "midi": 46,
      "hit": false,
      "t": 169852.82751562473,
      "d": 1709.1292031250196,
      "v": 112
    },
    {
      "midi": 69,
      "hit": false,
      "t": 171686.9563229164,
      "d": 1733.1675885416626,
      "v": 108
    },
    {
      "midi": 65,
      "hit": false,
      "t": 171686.9563229164,
      "d": 1752.398296875006,
      "v": 108
    },
    {
      "midi": 46,
      "hit": false,
      "t": 171686.9563229164,
      "d": 1754.802135416685,
      "v": 103
    },
    {
      "midi": 62,
      "hit": false,
      "t": 171686.9563229164,
      "d": 1766.821328125021,
      "v": 108
    },
    {
      "midi": 58,
      "hit": false,
      "t": 173537.91199999975,
      "d": 1728.359911458363,
      "v": 99
    },
    {
      "midi": 68,
      "hit": false,
      "t": 173537.91199999975,
      "d": 1774.0328437500284,
      "v": 86
    },
    {
      "midi": 62,
      "hit": false,
      "t": 173540.31583854143,
      "d": 1740.37910416667,
      "v": 103
    },
    {
      "midi": 65,
      "hit": false,
      "t": 173540.31583854143,
      "d": 1771.6290052083496,
      "v": 108
    },
    {
      "midi": 46,
      "hit": false,
      "t": 173542.7196770831,
      "d": 1447.1108020833344,
      "v": 95
    },
    {
      "midi": 46,
      "hit": false,
      "t": 175153.2914999998,
      "d": 247.59536979167024,
      "v": 112
    },
    {
      "midi": 59,
      "hit": false,
      "t": 175386.46383854144,
      "d": 1711.5330416666693,
      "v": 117
    },
    {
      "midi": 65,
      "hit": false,
      "t": 175386.46383854144,
      "d": 1805.2827447916497,
      "v": 108
    },
    {
      "midi": 62,
      "hit": false,
      "t": 175388.86767708312,
      "d": 1605.7641458333237,
      "v": 123
    },
    {
      "midi": 68,
      "hit": false,
      "t": 175388.86767708312,
      "d": 1718.7445572916477,
      "v": 103
    },
    {
      "midi": 47,
      "hit": false,
      "t": 175388.86767708312,
      "d": 1865.37870833333,
      "v": 127
    },
    {
      "midi": 63,
      "hit": false,
      "t": 177227.8041614581,
      "d": 1747.5906197916775,
      "v": 108
    },
    {
      "midi": 67,
      "hit": false,
      "t": 177230.20799999978,
      "d": 1711.5330416666693,
      "v": 103
    },
    {
      "midi": 48,
      "hit": false,
      "t": 177230.20799999978,
      "d": 1759.6098124999844,
      "v": 117
    },
    {
      "midi": 60,
      "hit": false,
      "t": 177230.20799999978,
      "d": 1805.2827447916497,
      "v": 117
    },
    {
      "midi": 67,
      "hit": false,
      "t": 179071.54832291644,
      "d": 1745.1867812499986,
      "v": 99
    },
    {
      "midi": 58,
      "hit": false,
      "t": 179071.54832291644,
      "d": 1771.6290052083205,
      "v": 99
    },
    {
      "midi": 63,
      "hit": false,
      "t": 179071.54832291644,
      "d": 1802.87890625,
      "v": 95
    },
    {
      "midi": 48,
      "hit": false,
      "t": 179073.95216145812,
      "d": 1764.417489583313,
      "v": 99
    },
    {
      "midi": 63,
      "hit": false,
      "t": 180920.1001614581,
      "d": 1757.2059739583638,
      "v": 99
    },
    {
      "midi": 58,
      "hit": false,
      "t": 180922.50399999978,
      "d": 1627.398692708346,
      "v": 103
    },
    {
      "midi": 66,
      "hit": false,
      "t": 180922.50399999978,
      "d": 1709.1292031250196,
      "v": 99
    },
    {
      "midi": 60,
      "hit": false,
      "t": 180922.50399999978,
      "d": 1742.7829427083489,
      "v": 108
    },
    {
      "midi": 48,
      "hit": false,
      "t": 180922.50399999978,
      "d": 1817.301937500015,
      "v": 99
    },
    {
      "midi": 63,
      "hit": false,
      "t": 182759.03664583314,
      "d": 699.5170156250242,
      "v": 99
    },
    {
      "midi": 57,
      "hit": false,
      "t": 182761.44048437482,
      "d": 665.8632760416658,
      "v": 108
    },
    {
      "midi": 65,
      "hit": false,
      "t": 182761.44048437482,
      "d": 668.2671145833447,
      "v": 108
    },
    {
      "midi": 60,
      "hit": false,
      "t": 182761.44048437482,
      "d": 680.2863072916807,
      "v": 117
    },
    {
      "midi": 41,
      "hit": false,
      "t": 182761.44048437482,
      "d": 1391.8225156250119,
      "v": 117
    },
    {
      "midi": 60,
      "hit": false,
      "t": 183458.55366145817,
      "d": 1189.900078125036,
      "v": 117
    },
    {
      "midi": 63,
      "hit": false,
      "t": 183458.55366145817,
      "d": 1189.900078125036,
      "v": 82
    },
    {
      "midi": 57,
      "hit": false,
      "t": 183920.09066145818,
      "d": 706.7285312500317,
      "v": 117
    },
    {
      "midi": 53,
      "hit": false,
      "t": 184153.26299999983,
      "d": 266.82607812501374,
      "v": 127
    },
    {
      "midi": 41,
      "hit": false,
      "t": 184379.2238229165,
      "d": 245.1915312500205,
      "v": 127
    },
    {
      "midi": 46,
      "hit": false,
      "t": 184614.79999999984,
      "d": 3567.2963958334003,
      "v": 103
    },
    {
      "midi": 65,
      "hit": false,
      "t": 184617.20383854152,
      "d": 21.63454687502235,
      "v": 103
    },
    {
      "midi": 70,
      "hit": false,
      "t": 184617.20383854152,
      "d": 1713.9368802083482,
      "v": 103
    },
    {
      "midi": 62,
      "hit": false,
      "t": 184617.20383854152,
      "d": 1721.1483958333556,
      "v": 103
    },
    {
      "midi": 69,
      "hit": false,
      "t": 186460.9479999999,
      "d": 1692.302333333355,
      "v": 108
    },
    {
      "midi": 65,
      "hit": false,
      "t": 186463.35183854157,
      "d": 1718.7445572916768,
      "v": 112
    },
    {
      "midi": 62,
      "hit": false,
      "t": 186465.75567708325,
      "d": 1725.956072916655,
      "v": 112
    },
    {
      "midi": 58,
      "hit": false,
      "t": 188295.07680729157,
      "d": 1399.0340312500193,
      "v": 95
    },
    {
      "midi": 65,
      "hit": false,
      "t": 188295.07680729157,
      "d": 1718.7445572916768,
      "v": 103
    },
    {
      "midi": 62,
      "hit": false,
      "t": 188295.07680729157,
      "d": 1733.1675885416626,
      "v": 108
    },
    {
      "midi": 68,
      "hit": false,
      "t": 188297.48064583325,
      "d": 1733.1675885416626,
      "v": 86
    },
    {
      "midi": 46,
      "hit": false,
      "t": 188299.88448437492,
      "d": 1800.4750677083211,
      "v": 99
    },
    {
      "midi": 62,
      "hit": false,
      "t": 190143.62864583323,
      "d": 1593.7449531250168,
      "v": 108
    },
    {
      "midi": 59,
      "hit": false,
      "t": 190143.62864583323,
      "d": 1718.7445572916768,
      "v": 108
    },
    {
      "midi": 68,
      "hit": false,
      "t": 190146.0324843749,
      "d": 1718.7445572916768,
      "v": 90
    },
    {
      "midi": 65,
      "hit": false,
      "t": 190146.0324843749,
      "d": 1790.859713541664,
      "v": 103
    },
    {
      "midi": 47,
      "hit": false,
      "t": 190148.4363229166,
      "d": 1807.6865833333286,
      "v": 117
    },
    {
      "midi": 48,
      "hit": false,
      "t": 191982.56513020824,
      "d": 1742.7829427083198,
      "v": 108
    },
    {
      "midi": 67,
      "hit": false,
      "t": 191984.96896874992,
      "d": 1713.936880208319,
      "v": 103
    },
    {
      "midi": 63,
      "hit": false,
      "t": 191989.77664583325,
      "d": 1762.0136510416341,
      "v": 117
    },
    {
      "midi": 58,
      "hit": false,
      "t": 193189.2920781249,
      "d": 536.0559947916481,
      "v": 69
    },
    {
      "midi": 58,
      "hit": false,
      "t": 193819.09777604154,
      "d": 1473.5530260416854,
      "v": 103
    },
    {
      "midi": 63,
      "hit": false,
      "t": 193819.09777604154,
      "d": 1778.840520833328,
      "v": 95
    },
    {
      "midi": 67,
      "hit": false,
      "t": 193826.30929166655,
      "d": 1716.340718749998,
      "v": 95
    },
    {
      "midi": 48,
      "hit": false,
      "t": 193826.30929166655,
      "d": 1749.9944583333272,
      "v": 95
    },
    {
      "midi": 58,
      "hit": false,
      "t": 195682.0726458332,
      "d": 1543.2643437499937,
      "v": 90
    },
    {
      "midi": 48,
      "hit": false,
      "t": 195682.0726458332,
      "d": 1822.1096145833435,
      "v": 95
    },
    {
      "midi": 66,
      "hit": false,
      "t": 195686.88032291652,
      "d": 1637.0140468750033,
      "v": 103
    },
    {
      "midi": 60,
      "hit": false,
      "t": 195686.88032291652,
      "d": 1723.5522343750054,
      "v": 99
    },
    {
      "midi": 63,
      "hit": false,
      "t": 195686.88032291652,
      "d": 1730.7637500000128,
      "v": 99
    },
    {
      "midi": 57,
      "hit": false,
      "t": 197504.18226041654,
      "d": 624.9980208333582,
      "v": 103
    },
    {
      "midi": 60,
      "hit": false,
      "t": 197504.18226041654,
      "d": 670.6709531250235,
      "v": 117
    },
    {
      "midi": 63,
      "hit": false,
      "t": 197508.98993749986,
      "d": 668.2671145833738,
      "v": 103
    },
    {
      "midi": 41,
      "hit": false,
      "t": 197511.39377604154,
      "d": 1312.4958437500463,
      "v": 103
    },
    {
      "midi": 65,
      "hit": false,
      "t": 197513.79761458322,
      "d": 644.2287291666726,
      "v": 103
    },
    {
      "midi": 57,
      "hit": false,
      "t": 198225.33382291658,
      "d": 1057.6889583333395,
      "v": 103
    },
    {
      "midi": 65,
      "hit": false,
      "t": 198227.73766145826,
      "d": 1060.0927968749893,
      "v": 108
    },
    {
      "midi": 63,
      "hit": false,
      "t": 198227.73766145826,
      "d": 1072.1119895833253,
      "v": 99
    },
    {
      "midi": 60,
      "hit": false,
      "t": 198227.73766145826,
      "d": 1076.919666666654,
      "v": 108
    },
    {
      "midi": 41,
      "hit": false,
      "t": 198920.04316145825,
      "d": 362.97961979167303,
      "v": 123
    },
    {
      "midi": 42,
      "hit": false,
      "t": 199386.3878385416,
      "d": 624.9980208333873,
      "v": 108
    },
    {
      "midi": 61,
      "hit": false,
      "t": 199612.34866145827,
      "d": 252.40304687499884,
      "v": 117
    },
    {
      "midi": 70,
      "hit": false,
      "t": 199612.34866145827,
      "d": 264.4222395833349,
      "v": 117
    },
    {
      "midi": 66,
      "hit": false,
      "t": 199612.34866145827,
      "d": 283.6529479166784,
      "v": 117
    },
    {
      "midi": 61,
      "hit": false,
      "t": 199956.09757291662,
      "d": 60.09596354170935,
      "v": 103
    },
    {
      "midi": 66,
      "hit": false,
      "t": 199958.5014114583,
      "d": 40.86525520833675,
      "v": 103
    },
    {
      "midi": 70,
      "hit": false,
      "t": 199958.5014114583,
      "d": 55.28828645835165,
      "v": 99
    },
    {
      "midi": 42,
      "hit": false,
      "t": 200191.67375,
      "d": 96.1535416666593,
      "v": 99
    },
    {
      "midi": 61,
      "hit": false,
      "t": 200302.25032291663,
      "d": 230.7685000000056,
      "v": 117
    },
    {
      "midi": 66,
      "hit": false,
      "t": 200302.25032291663,
      "d": 257.21072395835654,
      "v": 123
    },
    {
      "midi": 70,
      "hit": false,
      "t": 200304.6541614583,
      "d": 247.59536979167024,
      "v": 117
    },
    {
      "midi": 54,
      "hit": false,
      "t": 200533.01882291664,
      "d": 69.71131770833745,
      "v": 99
    },
    {
      "midi": 61,
      "hit": false,
      "t": 200648.40307291664,
      "d": 40.86525520833675,
      "v": 82
    },
    {
      "midi": 66,
      "hit": false,
      "t": 200648.40307291664,
      "d": 43.2690937500156,
      "v": 108
    },
    {
      "midi": 70,
      "hit": false,
      "t": 200648.40307291664,
      "d": 50.48060937502305,
      "v": 86
    },
    {
      "midi": 42,
      "hit": false,
      "t": 200881.57541145833,
      "d": 69.71131770833745,
      "v": 99
    },
    {
      "midi": 61,
      "hit": false,
      "t": 200994.55582291665,
      "d": 245.19153124999139,
      "v": 117
    },
    {
      "midi": 66,
      "hit": false,
      "t": 200994.55582291665,
      "d": 290.86446354165673,
      "v": 117
    },
    {
      "midi": 70,
      "hit": false,
      "t": 200996.95966145833,
      "d": 252.40304687496973,
      "v": 103
    },
    {
      "midi": 44,
      "hit": false,
      "t": 201230.13199999998,
      "d": 677.8824687500601,
      "v": 112
    },
    {
      "midi": 66,
      "hit": false,
      "t": 201458.4966614583,
      "d": 252.40304687502794,
      "v": 117
    },
    {
      "midi": 68,
      "hit": false,
      "t": 201460.9005,
      "d": 242.78769270834164,
      "v": 112
    },
    {
      "midi": 60,
      "hit": false,
      "t": 201460.9005,
      "d": 245.1915312500205,
      "v": 108
    },
    {
      "midi": 63,
      "hit": false,
      "t": 201460.9005,
      "d": 249.9992083333491,
      "v": 112
    },
    {
      "midi": 60,
      "hit": false,
      "t": 201802.24557291667,
      "d": 36.05757812500815,
      "v": 82
    },
    {
      "midi": 66,
      "hit": false,
      "t": 201802.24557291667,
      "d": 38.461416666687,
      "v": 99
    },
    {
      "midi": 63,
      "hit": false,
      "t": 201802.24557291667,
      "d": 40.86525520836585,
      "v": 95
    },
    {
      "midi": 68,
      "hit": false,
      "t": 201802.24557291667,
      "d": 45.67293229169445,
      "v": 99
    },
    {
      "midi": 44,
      "hit": false,
      "t": 202145.99448437506,
      "d": 848.5550052083563,
      "v": 103
    },
    {
      "midi": 60,
      "hit": false,
      "t": 202148.39832291674,
      "d": 509.61377083332627,
      "v": 108
    },
    {
      "midi": 68,
      "hit": false,
      "t": 202148.39832291674,
      "d": 524.0368020833121,
      "v": 117
    },
    {
      "midi": 66,
      "hit": false,
      "t": 202148.39832291674,
      "d": 531.2483177083195,
      "v": 123
    },
    {
      "midi": 63,
      "hit": false,
      "t": 202148.39832291674,
      "d": 536.0559947916481,
      "v": 117
    },
    {
      "midi": 66,
      "hit": false,
      "t": 202730.12725000005,
      "d": 24.0383854166721,
      "v": 103
    },
    {
      "midi": 63,
      "hit": false,
      "t": 202730.12725000005,
      "d": 31.24990104167955,
      "v": 103
    },
    {
      "midi": 60,
      "hit": false,
      "t": 202730.12725000005,
      "d": 33.6537395833584,
      "v": 103
    },
    {
      "midi": 68,
      "hit": false,
      "t": 202730.12725000005,
      "d": 33.6537395833584,
      "v": 103
    },
    {
      "midi": 42,
      "hit": false,
      "t": 203081.08767708341,
      "d": 504.80609374996857,
      "v": 103
    },
    {
      "midi": 61,
      "hit": false,
      "t": 203304.6446614584,
      "d": 247.59536979167024,
      "v": 117
    },
    {
      "midi": 66,
      "hit": false,
      "t": 203304.6446614584,
      "d": 262.01840104165603,
      "v": 117
    },
    {
      "midi": 70,
      "hit": false,
      "t": 203307.0485000001,
      "d": 240.3838541666628,
      "v": 112
    },
    {
      "midi": 54,
      "hit": false,
      "t": 203537.8170000001,
      "d": 38.46141666662879,
      "v": 44
    },
    {
      "midi": 66,
      "hit": false,
      "t": 203648.3935729167,
      "d": 45.67293229166535,
      "v": 82
    },
    {
      "midi": 61,
      "hit": false,
      "t": 203648.3935729167,
      "d": 48.0767708333442,
      "v": 95
    },
    {
      "midi": 70,
      "hit": false,
      "t": 203648.3935729167,
      "d": 60.09596354168025,
      "v": 86
    },
    {
      "midi": 42,
      "hit": false,
      "t": 203989.7386458334,
      "d": 749.9976250000473,
      "v": 99
    },
    {
      "midi": 61,
      "hit": false,
      "t": 203992.14248437507,
      "d": 262.01840104168514,
      "v": 117
    },
    {
      "midi": 66,
      "hit": false,
      "t": 203992.14248437507,
      "d": 384.6141666666954,
      "v": 117
    },
    {
      "midi": 70,
      "hit": false,
      "t": 203994.54632291675,
      "d": 262.01840104168514,
      "v": 108
    },
    {
      "midi": 61,
      "hit": false,
      "t": 204338.2952343751,
      "d": 52.884447916643694,
      "v": 117
    },
    {
      "midi": 70,
      "hit": false,
      "t": 204338.2952343751,
      "d": 60.095963541651145,
      "v": 103
    },
    {
      "midi": 70,
      "hit": false,
      "t": 204686.85182291677,
      "d": 240.3838541666628,
      "v": 112
    },
    {
      "midi": 66,
      "hit": false,
      "t": 204686.85182291677,
      "d": 252.40304687499884,
      "v": 117
    },
    {
      "midi": 61,
      "hit": false,
      "t": 204686.85182291677,
      "d": 266.82607812498463,
      "v": 117
    },
    {
      "midi": 44,
      "hit": false,
      "t": 204922.4280000001,
      "d": 677.882468750031,
      "v": 117
    },
    {
      "midi": 68,
      "hit": false,
      "t": 205153.19650000008,
      "d": 240.3838541666628,
      "v": 108
    },
    {
      "midi": 60,
      "hit": false,
      "t": 205153.19650000008,
      "d": 242.78769270834164,
      "v": 103
    },
    {
      "midi": 63,
      "hit": false,
      "t": 205153.19650000008,
      "d": 247.59536979167024,
      "v": 103
    },
    {
      "midi": 66,
      "hit": false,
      "t": 205153.19650000008,
      "d": 247.59536979167024,
      "v": 123
    },
    {
      "midi": 60,
      "hit": false,
      "t": 205494.54157291676,
      "d": 36.05757812500815,
      "v": 82
    },
    {
      "midi": 66,
      "hit": false,
      "t": 205494.54157291676,
      "d": 38.461416666687,
      "v": 103
    },
    {
      "midi": 68,
      "hit": false,
      "t": 205494.54157291676,
      "d": 40.86525520836585,
      "v": 99
    },
    {
      "midi": 63,
      "hit": false,
      "t": 205494.54157291676,
      "d": 52.8844479167019,
      "v": 103
    },
    {
      "midi": 60,
      "hit": false,
      "t": 205840.6943229168,
      "d": 274.0375937499921,
      "v": 108
    },
    {
      "midi": 68,
      "hit": false,
      "t": 205840.6943229168,
      "d": 302.8836562499928,
      "v": 112
    },
    {
      "midi": 63,
      "hit": false,
      "t": 205840.6943229168,
      "d": 319.71052604165743,
      "v": 117
    },
    {
      "midi": 66,
      "hit": false,
      "t": 205840.6943229168,
      "d": 319.71052604165743,
      "v": 117
    },
    {
      "midi": 44,
      "hit": false,
      "t": 205840.6943229168,
      "d": 877.4010677083279,
      "v": 99
    },
    {
      "midi": 63,
      "hit": false,
      "t": 206186.84707291677,
      "d": 43.2690937500156,
      "v": 99
    },
    {
      "midi": 68,
      "hit": false,
      "t": 206186.84707291677,
      "d": 57.6921250000014,
      "v": 95
    },
    {
      "midi": 66,
      "hit": false,
      "t": 206189.25091145845,
      "d": 33.6537395833293,
      "v": 82
    },
    {
      "midi": 60,
      "hit": false,
      "t": 206189.25091145845,
      "d": 36.05757812500815,
      "v": 78
    },
    {
      "midi": 60,
      "hit": false,
      "t": 206532.99982291678,
      "d": 192.3070833333477,
      "v": 108
    },
    {
      "midi": 68,
      "hit": false,
      "t": 206532.99982291678,
      "d": 216.3454687500198,
      "v": 99
    },
    {
      "midi": 66,
      "hit": false,
      "t": 206532.99982291678,
      "d": 237.98001562501304,
      "v": 108
    },
    {
      "midi": 63,
      "hit": false,
      "t": 206532.99982291678,
      "d": 317.3066875000077,
      "v": 108
    },
    {
      "midi": 42,
      "hit": false,
      "t": 206770.9798385418,
      "d": 1492.7837343750289,
      "v": 99
    },
    {
      "midi": 66,
      "hit": false,
      "t": 206996.94066145844,
      "d": 264.422239583364,
      "v": 112
    },
    {
      "midi": 61,
      "hit": false,
      "t": 206999.34450000012,
      "d": 237.98001562501304,
      "v": 117
    },
    {
      "midi": 70,
      "hit": false,
      "t": 206999.34450000012,
      "d": 259.6145625000063,
      "v": 103
    },
    {
      "midi": 66,
      "hit": false,
      "t": 207340.6895729168,
      "d": 43.269093749986496,
      "v": 103
    },
    {
      "midi": 61,
      "hit": false,
      "t": 207340.6895729168,
      "d": 45.67293229166535,
      "v": 90
    },
    {
      "midi": 70,
      "hit": false,
      "t": 207340.6895729168,
      "d": 52.8844479166728,
      "v": 95
    },
    {
      "midi": 54,
      "hit": false,
      "t": 207691.65000000014,
      "d": 245.19153124999139,
      "v": 95
    },
    {
      "midi": 61,
      "hit": false,
      "t": 207691.65000000014,
      "d": 245.19153124999139,
      "v": 117
    },
    {
      "midi": 70,
      "hit": false,
      "t": 207691.65000000014,
      "d": 252.40304687499884,
      "v": 112
    },
    {
      "midi": 66,
      "hit": false,
      "t": 207691.65000000014,
      "d": 276.44143229167094,
      "v": 117
    },
    {
      "midi": 66,
      "hit": false,
      "t": 208032.99507291682,
      "d": 43.269093749986496,
      "v": 74
    },
    {
      "midi": 61,
      "hit": false,
      "t": 208032.99507291682,
      "d": 62.499802083329996,
      "v": 108
    },
    {
      "midi": 70,
      "hit": false,
      "t": 208032.99507291682,
      "d": 62.499802083329996,
      "v": 99
    },
    {
      "midi": 54,
      "hit": false,
      "t": 208268.57125000015,
      "d": 269.2299166666635,
      "v": 65
    },
    {
      "midi": 66,
      "hit": false,
      "t": 208381.55166145848,
      "d": 197.1147604166763,
      "v": 112
    },
    {
      "midi": 61,
      "hit": false,
      "t": 208381.55166145848,
      "d": 199.51859895835514,
      "v": 112
    },
    {
      "midi": 70,
      "hit": false,
      "t": 208381.55166145848,
      "d": 199.51859895835514,
      "v": 108
    },
    {
      "midi": 44,
      "hit": false,
      "t": 208617.12783854184,
      "d": 663.4594375000743,
      "v": 112
    },
    {
      "midi": 68,
      "hit": false,
      "t": 208847.89633854185,
      "d": 240.3838541666628,
      "v": 117
    },
    {
      "midi": 60,
      "hit": false,
      "t": 208847.89633854185,
      "d": 247.59536979167024,
      "v": 108
    },
    {
      "midi": 63,
      "hit": false,
      "t": 208847.89633854185,
      "d": 249.9992083333491,
      "v": 117
    },
    {
      "midi": 66,
      "hit": false,
      "t": 208847.89633854185,
      "d": 249.9992083333491,
      "v": 117
    },
    {
      "midi": 68,
      "hit": false,
      "t": 209186.83757291688,
      "d": 60.09596354170935,
      "v": 99
    },
    {
      "midi": 60,
      "hit": false,
      "t": 209189.24141145856,
      "d": 36.05757812500815,
      "v": 90
    },
    {
      "midi": 66,
      "hit": false,
      "t": 209189.24141145856,
      "d": 38.461416666687,
      "v": 103
    },
    {
      "midi": 63,
      "hit": false,
      "t": 209189.24141145856,
      "d": 45.67293229169445,
      "v": 95
    },
    {
      "midi": 44,
      "hit": false,
      "t": 209422.41375000024,
      "d": 692.305500000075,
      "v": 95
    },
    {
      "midi": 60,
      "hit": false,
      "t": 209532.9903229169,
      "d": 300.47981770834303,
      "v": 112
    },
    {
      "midi": 68,
      "hit": false,
      "t": 209532.9903229169,
      "d": 302.8836562500219,
      "v": 117
    },
    {
      "midi": 66,
      "hit": false,
      "t": 209532.9903229169,
      "d": 310.09517187502934,
      "v": 117
    },
    {
      "midi": 63,
      "hit": false,
      "t": 209532.9903229169,
      "d": 317.3066875000368,
      "v": 117
    },
    {
      "midi": 56,
      "hit": false,
      "t": 209773.37417708358,
      "d": 79.32667187505285,
      "v": 95
    },
    {
      "midi": 63,
      "hit": false,
      "t": 209883.9507500003,
      "d": 31.24990104167955,
      "v": 72
    },
    {
      "midi": 66,
      "hit": false,
      "t": 209883.9507500003,
      "d": 31.24990104167955,
      "v": 69
    },
    {
      "midi": 68,
      "hit": false,
      "t": 209883.9507500003,
      "d": 40.86525520833675,
      "v": 78
    },
    {
      "midi": 56,
      "hit": false,
      "t": 210119.52692708364,
      "d": 52.8844479166728,
      "v": 99
    },
    {
      "midi": 68,
      "hit": false,
      "t": 210227.69966145864,
      "d": 141.82647395832464,
      "v": 112
    },
    {
      "midi": 66,
      "hit": false,
      "t": 210227.69966145864,
      "d": 151.44182812498184,
      "v": 123
    },
    {
      "midi": 60,
      "hit": false,
      "t": 210230.10350000032,
      "d": 124.99960416665999,
      "v": 108
    },
    {
      "midi": 63,
      "hit": false,
      "t": 210230.10350000032,
      "d": 158.6533437499602,
      "v": 117
    },
    {
      "midi": 41,
      "hit": false,
      "t": 210475.29503125028,
      "d": 1759.6098125000426,
      "v": 117
    },
    {
      "midi": 60,
      "hit": false,
      "t": 210698.85201562528,
      "d": 269.2299166666926,
      "v": 117
    },
    {
      "midi": 68,
      "hit": false,
      "t": 210701.25585416696,
      "d": 262.01840104168514,
      "v": 123
    },
    {
      "midi": 63,
      "hit": false,
      "t": 210703.65969270864,
      "d": 264.4222395833349,
      "v": 117
    },
    {
      "midi": 63,
      "hit": false,
      "t": 211025.77405729197,
      "d": 55.288286458322546,
      "v": 103
    },
    {
      "midi": 68,
      "hit": false,
      "t": 211032.98557291698,
      "d": 48.076770833315095,
      "v": 108
    },
    {
      "midi": 60,
      "hit": false,
      "t": 211037.7932500003,
      "d": 33.6537395833293,
      "v": 69
    },
    {
      "midi": 53,
      "hit": false,
      "t": 211307.02316666697,
      "d": 896.6317760417005,
      "v": 103
    },
    {
      "midi": 68,
      "hit": false,
      "t": 211383.94600000032,
      "d": 824.5166197916842,
      "v": 123
    },
    {
      "midi": 63,
      "hit": false,
      "t": 211386.349838542,
      "d": 836.5358124999912,
      "v": 117
    },
    {
      "midi": 60,
      "hit": false,
      "t": 211386.349838542,
      "d": 870.1895520833205,
      "v": 112
    },
    {
      "midi": 46,
      "hit": false,
      "t": 212307.0200000003,
      "d": 632.2095364583656,
      "v": 103
    },
    {
      "midi": 62,
      "hit": false,
      "t": 212540.19233854197,
      "d": 225.960822916677,
      "v": 117
    },
    {
      "midi": 56,
      "hit": false,
      "t": 212540.19233854197,
      "d": 228.36466145835584,
      "v": 123
    },
    {
      "midi": 58,
      "hit": false,
      "t": 212542.59617708364,
      "d": 230.7685000000056,
      "v": 112
    },
    {
      "midi": 58,
      "hit": false,
      "t": 212826.24912500032,
      "d": 52.8844479166728,
      "v": 99
    },
    {
      "midi": 62,
      "hit": false,
      "t": 212833.46064062533,
      "d": 57.6921250000014,
      "v": 99
    },
    {
      "midi": 56,
      "hit": false,
      "t": 212840.67215625034,
      "d": 33.6537395833293,
      "v": 59
    },
    {
      "midi": 46,
      "hit": false,
      "t": 213105.09439583367,
      "d": 956.7277395833225,
      "v": 103
    },
    {
      "midi": 56,
      "hit": false,
      "t": 213213.26713020867,
      "d": 853.3626822916558,
      "v": 117
    },
    {
      "midi": 58,
      "hit": false,
      "t": 213213.26713020867,
      "d": 853.3626822916558,
      "v": 123
    },
    {
      "midi": 62,
      "hit": false,
      "t": 213215.67096875035,
      "d": 841.3434895833198,
      "v": 117
    },
    {
      "midi": 51,
      "hit": false,
      "t": 214153.16800000033,
      "d": 639.421052083344,
      "v": 117
    },
    {
      "midi": 58,
      "hit": false,
      "t": 214381.53266145865,
      "d": 242.78769270834164,
      "v": 117
    },
    {
      "midi": 63,
      "hit": false,
      "t": 214383.93650000033,
      "d": 254.80688541664858,
      "v": 117
    },
    {
      "midi": 67,
      "hit": false,
      "t": 214383.93650000033,
      "d": 257.21072395832743,
      "v": 123
    },
    {
      "midi": 63,
      "hit": false,
      "t": 214725.28157291698,
      "d": 40.86525520836585,
      "v": 86
    },
    {
      "midi": 58,
      "hit": false,
      "t": 214727.68541145866,
      "d": 36.05757812500815,
      "v": 67
    },
    {
      "midi": 67,
      "hit": false,
      "t": 214727.68541145866,
      "d": 36.05757812500815,
      "v": 90
    },
    {
      "midi": 51,
      "hit": false,
      "t": 214960.85775000034,
      "d": 937.4970312500081,
      "v": 95
    },
    {
      "midi": 67,
      "hit": false,
      "t": 215076.24200000035,
      "d": 822.1127812500054,
      "v": 112
    },
    {
      "midi": 58,
      "hit": false,
      "t": 215076.24200000035,
      "d": 846.1511666666775,
      "v": 108
    },
    {
      "midi": 63,
      "hit": false,
      "t": 215076.24200000035,
      "d": 913.458645833336,
      "v": 117
    },
    {
      "midi": 51,
      "hit": false,
      "t": 216001.71983854202,
      "d": 641.8248906250228,
      "v": 103
    },
    {
      "midi": 63,
      "hit": false,
      "t": 216230.08450000035,
      "d": 245.19153124999139,
      "v": 112
    },
    {
      "midi": 66,
      "hit": false,
      "t": 216230.08450000035,
      "d": 245.19153124999139,
      "v": 108
    },
    {
      "midi": 61,
      "hit": false,
      "t": 216230.08450000035,
      "d": 252.40304687499884,
      "v": 108
    },
    {
      "midi": 58,
      "hit": false,
      "t": 216230.08450000035,
      "d": 264.4222395833349,
      "v": 108
    },
    {
      "midi": 66,
      "hit": false,
      "t": 216573.83341145868,
      "d": 33.6537395833584,
      "v": 95
    },
    {
      "midi": 58,
      "hit": false,
      "t": 216576.23725000035,
      "d": 24.0383854166721,
      "v": 67
    },
    {
      "midi": 61,
      "hit": false,
      "t": 216576.23725000035,
      "d": 26.44222395835095,
      "v": 67
    },
    {
      "midi": 63,
      "hit": false,
      "t": 216576.23725000035,
      "d": 26.44222395835095,
      "v": 82
    },
    {
      "midi": 51,
      "hit": false,
      "t": 216807.0057500004,
      "d": 57.6921250000014,
      "v": 103
    },
    {
      "midi": 61,
      "hit": false,
      "t": 216919.9861614587,
      "d": 237.98001562501304,
      "v": 112
    },
    {
      "midi": 66,
      "hit": false,
      "t": 216919.9861614587,
      "d": 240.3838541666919,
      "v": 112
    },
    {
      "midi": 63,
      "hit": false,
      "t": 216919.9861614587,
      "d": 242.78769270837074,
      "v": 123
    },
    {
      "midi": 58,
      "hit": false,
      "t": 216919.9861614587,
      "d": 252.40304687502794,
      "v": 112
    },
    {
      "midi": 51,
      "hit": false,
      "t": 217150.75466145872,
      "d": 69.71131770836655,
      "v": 78
    },
    {
      "midi": 63,
      "hit": false,
      "t": 217263.73507291707,
      "d": 28.8460625000007,
      "v": 95
    },
    {
      "midi": 61,
      "hit": false,
      "t": 217266.13891145875,
      "d": 21.634546874993248,
      "v": 63
    },
    {
      "midi": 51,
      "hit": false,
      "t": 217499.3112500004,
      "d": 38.4614166666579,
      "v": 103
    },
    {
      "midi": 66,
      "hit": false,
      "t": 217609.88782291705,
      "d": 194.71092187502654,
      "v": 112
    },
    {
      "midi": 63,
      "hit": false,
      "t": 217612.29166145873,
      "d": 189.90324479166884,
      "v": 112
    },
    {
      "midi": 61,
      "hit": false,
      "t": 217612.29166145873,
      "d": 194.71092187502654,
      "v": 108
    },
    {
      "midi": 58,
      "hit": false,
      "t": 217612.29166145873,
      "d": 230.7685000000347,
      "v": 103
    },
    {
      "midi": 46,
      "hit": false,
      "t": 217850.27167708377,
      "d": 593.7481197917077,
      "v": 117
    },
    {
      "midi": 62,
      "hit": false,
      "t": 218076.23250000045,
      "d": 254.80688541664858,
      "v": 117
    },
    {
      "midi": 65,
      "hit": false,
      "t": 218076.23250000045,
      "d": 266.82607812498463,
      "v": 95
    },
    {
      "midi": 58,
      "hit": false,
      "t": 218076.23250000045,
      "d": 269.2299166666635,
      "v": 108
    },
    {
      "midi": 53,
      "hit": false,
      "t": 218304.59716145878,
      "d": 117.78808854168165,
      "v": 90
    },
    {
      "midi": 62,
      "hit": false,
      "t": 218422.38525000046,
      "d": 43.2690937500156,
      "v": 123
    },
    {
      "midi": 58,
      "hit": false,
      "t": 218424.78908854214,
      "d": 28.8460625000007,
      "v": 78
    },
    {
      "midi": 46,
      "hit": false,
      "t": 218653.15375000046,
      "d": 72.1151562499872,
      "v": 103
    },
    {
      "midi": 53,
      "hit": false,
      "t": 218768.53800000044,
      "d": 230.7685000000056,
      "v": 108
    },
    {
      "midi": 65,
      "hit": false,
      "t": 218768.53800000044,
      "d": 254.8068854166777,
      "v": 108
    },
    {
      "midi": 62,
      "hit": false,
      "t": 218768.53800000044,
      "d": 257.21072395835654,
      "v": 117
    },
    {
      "midi": 58,
      "hit": false,
      "t": 218768.53800000044,
      "d": 259.6145625000354,
      "v": 117
    },
    {
      "midi": 46,
      "hit": false,
      "t": 218996.90266145876,
      "d": 91.3458645833889,
      "v": 99
    },
    {
      "midi": 53,
      "hit": false,
      "t": 219109.88307291715,
      "d": 45.67293229166535,
      "v": 90
    },
    {
      "midi": 58,
      "hit": false,
      "t": 219109.88307291715,
      "d": 55.28828645835165,
      "v": 95
    },
    {
      "midi": 62,
      "hit": false,
      "t": 219109.88307291715,
      "d": 57.6921250000305,
      "v": 103
    },
    {
      "midi": 65,
      "hit": false,
      "t": 219112.28691145882,
      "d": 50.480609374993946,
      "v": 69
    },
    {
      "midi": 46,
      "hit": false,
      "t": 219343.05541145883,
      "d": 96.1535416666593,
      "v": 117
    },
    {
      "midi": 53,
      "hit": false,
      "t": 219458.43966145883,
      "d": 180.28789062501164,
      "v": 103
    },
    {
      "midi": 62,
      "hit": false,
      "t": 219458.43966145883,
      "d": 197.1147604166763,
      "v": 112
    },
    {
      "midi": 58,
      "hit": false,
      "t": 219458.43966145883,
      "d": 295.67214062501444,
      "v": 117
    },
    {
      "midi": 65,
      "hit": false,
      "t": 219460.8435000005,
      "d": 197.1147604166763,
      "v": 95
    },
    {
      "midi": 43,
      "hit": false,
      "t": 219691.61200000052,
      "d": 538.4598333333561,
      "v": 112
    },
    {
      "midi": 62,
      "hit": false,
      "t": 219922.38050000052,
      "d": 228.36466145832674,
      "v": 117
    },
    {
      "midi": 65,
      "hit": false,
      "t": 219922.38050000052,
      "d": 240.3838541666628,
      "v": 103
    },
    {
      "midi": 59,
      "hit": false,
      "t": 219922.38050000052,
      "d": 247.59536979167024,
      "v": 123
    },
    {
      "midi": 55,
      "hit": false,
      "t": 219922.38050000052,
      "d": 341.3450729166798,
      "v": 112
    },
    {
      "midi": 62,
      "hit": false,
      "t": 220266.12941145888,
      "d": 31.24990104167955,
      "v": 123
    },
    {
      "midi": 59,
      "hit": false,
      "t": 220266.12941145888,
      "d": 36.05757812500815,
      "v": 103
    },
    {
      "midi": 65,
      "hit": false,
      "t": 220266.12941145888,
      "d": 40.86525520833675,
      "v": 95
    },
    {
      "midi": 43,
      "hit": false,
      "t": 220492.09023437556,
      "d": 79.32667187499464,
      "v": 112
    },
    {
      "midi": 55,
      "hit": false,
      "t": 220609.8783229172,
      "d": 117.78808854165254,
      "v": 103
    },
    {
      "midi": 62,
      "hit": false,
      "t": 220609.8783229172,
      "d": 194.71092187496834,
      "v": 117
    },
    {
      "midi": 65,
      "hit": false,
      "t": 220609.8783229172,
      "d": 197.1147604166472,
      "v": 112
    },
    {
      "midi": 59,
      "hit": false,
      "t": 220609.8783229172,
      "d": 213.94163020831184,
      "v": 117
    },
    {
      "midi": 50,
      "hit": false,
      "t": 220737.28176562552,
      "d": 50.480609374993946,
      "v": 103
    },
    {
      "midi": 59,
      "hit": false,
      "t": 220850.26217708385,
      "d": 48.0767708333442,
      "v": 103
    },
    {
      "midi": 65,
      "hit": false,
      "t": 220850.26217708385,
      "d": 48.0767708333442,
      "v": 90
    },
    {
      "midi": 62,
      "hit": false,
      "t": 220852.66601562552,
      "d": 26.442223958321847,
      "v": 103
    },
    {
      "midi": 43,
      "hit": false,
      "t": 221083.43451562553,
      "d": 112.98041145832394,
      "v": 95
    },
    {
      "midi": 55,
      "hit": false,
      "t": 221297.37614583384,
      "d": 199.51859895832604,
      "v": 103
    },
    {
      "midi": 65,
      "hit": false,
      "t": 221297.37614583384,
      "d": 206.7301145833335,
      "v": 108
    },
    {
      "midi": 62,
      "hit": false,
      "t": 221297.37614583384,
      "d": 209.13395312501234,
      "v": 117
    },
    {
      "midi": 59,
      "hit": false,
      "t": 221297.37614583384,
      "d": 213.94163020834094,
      "v": 112
    },
    {
      "midi": 55,
      "hit": false,
      "t": 221532.95232291718,
      "d": 74.51899479166605,
      "v": 48
    },
    {
      "midi": 48,
      "hit": false,
      "t": 221537.7600000005,
      "d": 266.82607812501374,
      "v": 78
    },
    {
      "midi": 55,
      "hit": false,
      "t": 221768.5285000005,
      "d": 158.6533437500184,
      "v": 117
    },
    {
      "midi": 67,
      "hit": false,
      "t": 221768.5285000005,
      "d": 216.3454687500198,
      "v": 123
    },
    {
      "midi": 63,
      "hit": false,
      "t": 221768.5285000005,
      "d": 235.5761770833342,
      "v": 117
    },
    {
      "midi": 58,
      "hit": false,
      "t": 221768.5285000005,
      "d": 262.01840104165603,
      "v": 117
    },
    {
      "midi": 48,
      "hit": false,
      "t": 221994.4893229172,
      "d": 115.38424999997369,
      "v": 99
    },
    {
      "midi": 55,
      "hit": false,
      "t": 221999.29700000052,
      "d": 67.3074791666586,
      "v": 39
    },
    {
      "midi": 58,
      "hit": false,
      "t": 222114.6812500005,
      "d": 31.24990104167955,
      "v": 90
    },
    {
      "midi": 63,
      "hit": false,
      "t": 222114.6812500005,
      "d": 33.6537395833584,
      "v": 103
    },
    {
      "midi": 67,
      "hit": false,
      "t": 222114.6812500005,
      "d": 43.2690937500156,
      "v": 99
    },
    {
      "midi": 48,
      "hit": false,
      "t": 222343.04591145884,
      "d": 86.5381875000021,
      "v": 70
    },
    {
      "midi": 63,
      "hit": false,
      "t": 222458.43016145885,
      "d": 237.98001562501304,
      "v": 117
    },
    {
      "midi": 55,
      "hit": false,
      "t": 222458.43016145885,
      "d": 257.21072395835654,
      "v": 108
    },
    {
      "midi": 67,
      "hit": false,
      "t": 222460.83400000053,
      "d": 230.7685000000056,
      "v": 112
    },
    {
      "midi": 58,
      "hit": false,
      "t": 222460.83400000053,
      "d": 242.78769270834164,
      "v": 117
    },
    {
      "midi": 48,
      "hit": false,
      "t": 222689.19866145885,
      "d": 76.9228333333449,
      "v": 78
    },
    {
      "midi": 63,
      "hit": false,
      "t": 222802.1790729172,
      "d": 38.4614166666579,
      "v": 99
    },
    {
      "midi": 58,
      "hit": false,
      "t": 222802.1790729172,
      "d": 43.269093749986496,
      "v": 86
    },
    {
      "midi": 67,
      "hit": false,
      "t": 222802.1790729172,
      "d": 52.884447916643694,
      "v": 103
    },
    {
      "midi": 48,
      "hit": false,
      "t": 223032.94757291718,
      "d": 45.67293229166535,
      "v": 69
    },
    {
      "midi": 55,
      "hit": false,
      "t": 223153.1395000005,
      "d": 156.24950520833954,
      "v": 95
    },
    {
      "midi": 67,
      "hit": false,
      "t": 223153.1395000005,
      "d": 173.0763750000042,
      "v": 112
    },
    {
      "midi": 63,
      "hit": false,
      "t": 223153.1395000005,
      "d": 312.4990104166791,
      "v": 112
    },
    {
      "midi": 58,
      "hit": false,
      "t": 223153.1395000005,
      "d": 324.51820312501513,
      "v": 103
    },
    {
      "midi": 41,
      "hit": false,
      "t": 223383.90800000052,
      "d": 641.8248906249937,
      "v": 112
    },
    {
      "midi": 65,
      "hit": false,
      "t": 223614.67650000053,
      "d": 223.55698437499814,
      "v": 123
    },
    {
      "midi": 63,
      "hit": false,
      "t": 223614.67650000053,
      "d": 230.7685000000056,
      "v": 117
    },
    {
      "midi": 60,
      "hit": false,
      "t": 223614.67650000053,
      "d": 249.9992083333491,
      "v": 123
    },
    {
      "midi": 57,
      "hit": false,
      "t": 223614.67650000053,
      "d": 278.8452708333498,
      "v": 112
    },
    {
      "midi": 60,
      "hit": false,
      "t": 223956.0215729172,
      "d": 33.6537395833293,
      "v": 103
    },
    {
      "midi": 63,
      "hit": false,
      "t": 223956.0215729172,
      "d": 33.6537395833293,
      "v": 99
    },
    {
      "midi": 65,
      "hit": false,
      "t": 223956.0215729172,
      "d": 48.076770833315095,
      "v": 103
    },
    {
      "midi": 63,
      "hit": false,
      "t": 224299.7704843755,
      "d": 817.3051041666768,
      "v": 112
    },
    {
      "midi": 57,
      "hit": false,
      "t": 224302.17432291718,
      "d": 545.6713489583344,
      "v": 112
    },
    {
      "midi": 65,
      "hit": false,
      "t": 224302.17432291718,
      "d": 790.8628802083258,
      "v": 117
    },
    {
      "midi": 60,
      "hit": false,
      "t": 224302.17432291718,
      "d": 817.3051041666768,
      "v": 117
    },
    {
      "midi": 57,
      "hit": false,
      "t": 224888.71092708386,
      "d": 165.86485937499674,
      "v": 67
    },
    {
      "midi": 46,
      "hit": false,
      "t": 225227.65216145886,
      "d": 254.8068854166777,
      "v": 112
    },
    {
      "midi": 53,
      "hit": false,
      "t": 225458.42066145886,
      "d": 112.98041145835305,
      "v": 112
    },
    {
      "midi": 62,
      "hit": false,
      "t": 225458.42066145886,
      "d": 237.98001562501304,
      "v": 123
    },
    {
      "midi": 65,
      "hit": false,
      "t": 225458.42066145886,
      "d": 249.9992083333491,
      "v": 108
    },
    {
      "midi": 58,
      "hit": false,
      "t": 225458.42066145886,
      "d": 257.21072395835654,
      "v": 117
    },
    {
      "midi": 53,
      "hit": false,
      "t": 225684.38148437554,
      "d": 165.86485937505495,
      "v": 50
    },
    {
      "midi": 58,
      "hit": false,
      "t": 225802.16957291722,
      "d": 45.67293229169445,
      "v": 90
    },
    {
      "midi": 62,
      "hit": false,
      "t": 225802.16957291722,
      "d": 52.8844479167019,
      "v": 103
    },
    {
      "midi": 65,
      "hit": false,
      "t": 225804.5734114589,
      "d": 19.2307083333435,
      "v": 48
    },
    {
      "midi": 46,
      "hit": false,
      "t": 226032.93807291726,
      "d": 50.480609374993946,
      "v": 112
    },
    {
      "midi": 53,
      "hit": false,
      "t": 226148.32232291726,
      "d": 259.6145625000063,
      "v": 103
    },
    {
      "midi": 65,
      "hit": false,
      "t": 226150.72616145894,
      "d": 254.80688541664858,
      "v": 90
    },
    {
      "midi": 62,
      "hit": false,
      "t": 226150.72616145894,
      "d": 259.6145625000063,
      "v": 117
    },
    {
      "midi": 58,
      "hit": false,
      "t": 226150.72616145894,
      "d": 264.422239583364,
      "v": 112
    },
    {
      "midi": 46,
      "hit": false,
      "t": 226379.09082291726,
      "d": 33.6537395833584,
      "v": 112
    },
    {
      "midi": 58,
      "hit": false,
      "t": 226496.87891145897,
      "d": 108.17273437499534,
      "v": 99
    },
    {
      "midi": 65,
      "hit": false,
      "t": 226496.87891145897,
      "d": 132.21111979166744,
      "v": 82
    },
    {
      "midi": 53,
      "hit": false,
      "t": 226496.87891145897,
      "d": 141.82647395832464,
      "v": 90
    },
    {
      "midi": 62,
      "hit": false,
      "t": 226496.87891145897,
      "d": 163.4610208333179,
      "v": 99
    },
    {
      "midi": 46,
      "hit": false,
      "t": 226722.83973437562,
      "d": 64.90364062500885,
      "v": 112
    },
    {
      "midi": 53,
      "hit": false,
      "t": 226843.03166145895,
      "d": 86.5381875000021,
      "v": 95
    },
    {
      "midi": 58,
      "hit": false,
      "t": 226843.03166145895,
      "d": 127.40344270833884,
      "v": 99
    },
    {
      "midi": 62,
      "hit": false,
      "t": 226843.03166145895,
      "d": 156.24950520833954,
      "v": 103
    },
    {
      "midi": 65,
      "hit": false,
      "t": 226845.43550000063,
      "d": 156.24950520833954,
      "v": 95
    },
    {
      "midi": 41,
      "hit": false,
      "t": 227081.01167708397,
      "d": 379.8064895833377,
      "v": 117
    },
    {
      "midi": 69,
      "hit": false,
      "t": 227309.3763385423,
      "d": 194.71092187499744,
      "v": 108
    },
    {
      "midi": 77,
      "hit": false,
      "t": 227309.3763385423,
      "d": 216.3454687499907,
      "v": 112
    },
    {
      "midi": 75,
      "hit": false,
      "t": 227309.3763385423,
      "d": 221.1531458333193,
      "v": 117
    },
    {
      "midi": 72,
      "hit": false,
      "t": 227311.78017708397,
      "d": 223.55698437496903,
      "v": 103
    },
    {
      "midi": 72,
      "hit": false,
      "t": 227648.31757291727,
      "d": 33.6537395833293,
      "v": 99
    },
    {
      "midi": 75,
      "hit": false,
      "t": 227648.31757291727,
      "d": 33.6537395833293,
      "v": 103
    },
    {
      "midi": 77,
      "hit": false,
      "t": 227648.31757291727,
      "d": 52.8844479166728,
      "v": 103
    },
    {
      "midi": 69,
      "hit": false,
      "t": 227648.31757291727,
      "d": 57.6921250000014,
      "v": 95
    },
    {
      "midi": 41,
      "hit": false,
      "t": 227874.27839583394,
      "d": 79.32667187499464,
      "v": 108
    },
    {
      "midi": 69,
      "hit": false,
      "t": 227994.47032291727,
      "d": 213.94163020834094,
      "v": 112
    },
    {
      "midi": 77,
      "hit": false,
      "t": 227994.47032291727,
      "d": 235.5761770833342,
      "v": 117
    },
    {
      "midi": 72,
      "hit": false,
      "t": 227994.47032291727,
      "d": 245.19153124999139,
      "v": 117
    },
    {
      "midi": 75,
      "hit": false,
      "t": 227994.47032291727,
      "d": 245.19153124999139,
      "v": 117
    },
    {
      "midi": 41,
      "hit": false,
      "t": 228225.23882291728,
      "d": 76.9228333333158,
      "v": 86
    },
    {
      "midi": 72,
      "hit": false,
      "t": 228338.2192343756,
      "d": 33.6537395833293,
      "v": 103
    },
    {
      "midi": 75,
      "hit": false,
      "t": 228338.2192343756,
      "d": 36.05757812500815,
      "v": 103
    },
    {
      "midi": 69,
      "hit": false,
      "t": 228338.2192343756,
      "d": 50.480609374993946,
      "v": 103
    },
    {
      "midi": 77,
      "hit": false,
      "t": 228338.2192343756,
      "d": 55.288286458322546,
      "v": 99
    },
    {
      "midi": 41,
      "hit": false,
      "t": 228571.39157291726,
      "d": 64.90364062500885,
      "v": 99
    },
    {
      "midi": 77,
      "hit": false,
      "t": 228689.17966145894,
      "d": 81.7305104166735,
      "v": 108
    },
    {
      "midi": 69,
      "hit": false,
      "t": 228689.17966145894,
      "d": 86.5381875000021,
      "v": 112
    },
    {
      "midi": 72,
      "hit": false,
      "t": 228689.17966145894,
      "d": 88.94202604168095,
      "v": 117
    },
    {
      "midi": 75,
      "hit": false,
      "t": 228689.17966145894,
      "d": 88.94202604168095,
      "v": 123
    },
    {
      "midi": 46,
      "hit": false,
      "t": 228924.75583854227,
      "d": 612.9788281250221,
      "v": 123
    },
    {
      "midi": 53,
      "hit": false,
      "t": 229150.71666145895,
      "d": 110.5765729166742,
      "v": 117
    },
    {
      "midi": 62,
      "hit": false,
      "t": 229150.71666145895,
      "d": 245.1915312500205,
      "v": 117
    },
    {
      "midi": 58,
      "hit": false,
      "t": 229150.71666145895,
      "d": 257.21072395835654,
      "v": 117
    },
    {
      "midi": 65,
      "hit": false,
      "t": 229153.12050000063,
      "d": 259.6145625000063,
      "v": 108
    },
    {
      "midi": 53,
      "hit": false,
      "t": 229273.31242708396,
      "d": 110.5765729166742,
      "v": 67
    },
    {
      "midi": 58,
      "hit": false,
      "t": 229496.86941145896,
      "d": 26.442223958321847,
      "v": 90
    },
    {
      "midi": 62,
      "hit": false,
      "t": 229496.86941145896,
      "d": 28.8460625000007,
      "v": 99
    },
    {
      "midi": 46,
      "hit": false,
      "t": 229730.04175000064,
      "d": 52.8844479166728,
      "v": 117
    },
    {
      "midi": 53,
      "hit": false,
      "t": 229845.42600000065,
      "d": 86.5381875000021,
      "v": 108
    },
    {
      "midi": 62,
      "hit": false,
      "t": 229845.42600000065,
      "d": 235.5761770833342,
      "v": 117
    },
    {
      "midi": 65,
      "hit": false,
      "t": 229845.42600000065,
      "d": 245.19153124999139,
      "v": 108
    },
    {
      "midi": 58,
      "hit": false,
      "t": 229845.42600000065,
      "d": 254.80688541664858,
      "v": 127
    },
    {
      "midi": 53,
      "hit": false,
      "t": 230071.38682291732,
      "d": 100.96121874995879,
      "v": 99
    },
    {
      "midi": 58,
      "hit": false,
      "t": 230189.17491145895,
      "d": 26.442223958321847,
      "v": 95
    },
    {
      "midi": 62,
      "hit": false,
      "t": 230189.17491145895,
      "d": 28.8460625000007,
      "v": 112
    },
    {
      "midi": 46,
      "hit": false,
      "t": 230419.94341145895,
      "d": 33.6537395833293,
      "v": 117
    },
    {
      "midi": 53,
      "hit": false,
      "t": 230535.32766145896,
      "d": 161.05718229166814,
      "v": 99
    },
    {
      "midi": 62,
      "hit": false,
      "t": 230535.32766145896,
      "d": 194.71092187499744,
      "v": 123
    },
    {
      "midi": 58,
      "hit": false,
      "t": 230535.32766145896,
      "d": 201.9224375000049,
      "v": 123
    },
    {
      "midi": 65,
      "hit": false,
      "t": 230535.32766145896,
      "d": 206.7301145833335,
      "v": 103
    },
    {
      "midi": 38,
      "hit": false,
      "t": 230770.9038385423,
      "d": 459.1331614583614,
      "v": 123
    },
    {
      "midi": 60,
      "hit": false,
      "t": 230999.26850000062,
      "d": 228.36466145835584,
      "v": 117
    },
    {
      "midi": 62,
      "hit": false,
      "t": 230999.26850000062,
      "d": 228.36466145835584,
      "v": 123
    },
    {
      "midi": 66,
      "hit": false,
      "t": 230999.26850000062,
      "d": 235.5761770833633,
      "v": 112
    },
    {
      "midi": 57,
      "hit": false,
      "t": 230999.26850000062,
      "d": 240.3838541666919,
      "v": 117
    },
    {
      "midi": 50,
      "hit": false,
      "t": 231225.2293229173,
      "d": 45.67293229169445,
      "v": 99
    },
    {
      "midi": 62,
      "hit": false,
      "t": 231338.20973437565,
      "d": 33.6537395833584,
      "v": 103
    },
    {
      "midi": 66,
      "hit": false,
      "t": 231340.61357291733,
      "d": 48.0767708333442,
      "v": 90
    },
    {
      "midi": 38,
      "hit": false,
      "t": 231576.18975000066,
      "d": 615.3826666666719,
      "v": 103
    },
    {
      "midi": 57,
      "hit": false,
      "t": 231686.76632291733,
      "d": 86.5381875000021,
      "v": 117
    },
    {
      "midi": 62,
      "hit": false,
      "t": 231689.170161459,
      "d": 228.36466145832674,
      "v": 123
    },
    {
      "midi": 66,
      "hit": false,
      "t": 231689.170161459,
      "d": 235.5761770833342,
      "v": 117
    },
    {
      "midi": 60,
      "hit": false,
      "t": 231689.170161459,
      "d": 252.40304687499884,
      "v": 123
    },
    {
      "midi": 57,
      "hit": false,
      "t": 231917.53482291734,
      "d": 110.5765729166742,
      "v": 99
    },
    {
      "midi": 66,
      "hit": false,
      "t": 232032.91907291734,
      "d": 48.076770833315095,
      "v": 108
    },
    {
      "midi": 62,
      "hit": false,
      "t": 232035.32291145902,
      "d": 26.442223958321847,
      "v": 95
    },
    {
      "midi": 60,
      "hit": false,
      "t": 232035.32291145902,
      "d": 31.249901041650446,
      "v": 82
    },
    {
      "midi": 50,
      "hit": false,
      "t": 232263.68757291732,
      "d": 40.86525520833675,
      "v": 117
    },
    {
      "midi": 57,
      "hit": false,
      "t": 232381.475661459,
      "d": 146.63415104168234,
      "v": 103
    },
    {
      "midi": 60,
      "hit": false,
      "t": 232381.475661459,
      "d": 199.51859895835514,
      "v": 112
    },
    {
      "midi": 62,
      "hit": false,
      "t": 232383.87950000068,
      "d": 185.09556770834024,
      "v": 108
    },
    {
      "midi": 66,
      "hit": false,
      "t": 232383.87950000068,
      "d": 199.51859895835514,
      "v": 95
    },
    {
      "midi": 43,
      "hit": false,
      "t": 232614.6480000007,
      "d": 624.9980208333291,
      "v": 117
    },
    {
      "midi": 62,
      "hit": false,
      "t": 232843.01266145904,
      "d": 228.36466145832674,
      "v": 123
    },
    {
      "midi": 67,
      "hit": false,
      "t": 232843.01266145904,
      "d": 249.99920833331998,
      "v": 117
    },
    {
      "midi": 58,
      "hit": false,
      "t": 232843.01266145904,
      "d": 262.01840104165603,
      "v": 117
    },
    {
      "midi": 55,
      "hit": false,
      "t": 233071.37732291737,
      "d": 100.96121874998789,
      "v": 112
    },
    {
      "midi": 58,
      "hit": false,
      "t": 233189.16541145902,
      "d": 31.24990104167955,
      "v": 95
    },
    {
      "midi": 62,
      "hit": false,
      "t": 233191.5692500007,
      "d": 24.0383854166721,
      "v": 108
    },
    {
      "midi": 67,
      "hit": false,
      "t": 233191.5692500007,
      "d": 24.0383854166721,
      "v": 66
    },
    {
      "midi": 43,
      "hit": false,
      "t": 233419.93391145905,
      "d": 45.67293229166535,
      "v": 86
    },
    {
      "midi": 55,
      "hit": false,
      "t": 233535.31816145906,
      "d": 110.5765729166742,
      "v": 117
    },
    {
      "midi": 67,
      "hit": false,
      "t": 233535.31816145906,
      "d": 213.94163020834094,
      "v": 123
    },
    {
      "midi": 62,
      "hit": false,
      "t": 233535.31816145906,
      "d": 218.74930729166954,
      "v": 123
    },
    {
      "midi": 58,
      "hit": false,
      "t": 233535.31816145906,
      "d": 245.1915312500205,
      "v": 117
    },
    {
      "midi": 43,
      "hit": false,
      "t": 233761.27898437573,
      "d": 84.13434895835235,
      "v": 99
    },
    {
      "midi": 62,
      "hit": false,
      "t": 233879.06707291742,
      "d": 28.8460625000007,
      "v": 99
    },
    {
      "midi": 58,
      "hit": false,
      "t": 233879.06707291742,
      "d": 33.6537395833293,
      "v": 82
    },
    {
      "midi": 67,
      "hit": false,
      "t": 233879.06707291742,
      "d": 45.67293229166535,
      "v": 82
    },
    {
      "midi": 43,
      "hit": false,
      "t": 234105.0278958341,
      "d": 69.71131770833745,
      "v": 95
    },
    {
      "midi": 55,
      "hit": false,
      "t": 234225.21982291742,
      "d": 103.36505729166674,
      "v": 112
    },
    {
      "midi": 62,
      "hit": false,
      "t": 234225.21982291742,
      "d": 137.01879687499604,
      "v": 117
    },
    {
      "midi": 67,
      "hit": false,
      "t": 234225.21982291742,
      "d": 146.63415104165324,
      "v": 117
    },
    {
      "midi": 58,
      "hit": false,
      "t": 234225.21982291742,
      "d": 240.3838541666628,
      "v": 108
    },
    {
      "midi": 60,
      "hit": false,
      "t": 234686.7568229174,
      "d": 235.5761770833342,
      "v": 112
    },
    {
      "midi": 63,
      "hit": false,
      "t": 234686.7568229174,
      "d": 235.5761770833342,
      "v": 108
    },
    {
      "midi": 41,
      "hit": false,
      "t": 234686.7568229174,
      "d": 644.2287291666726,
      "v": 95
    },
    {
      "midi": 56,
      "hit": false,
      "t": 234929.54451562575,
      "d": 7.211515625007451,
      "v": 99
    },
    {
      "midi": 63,
      "hit": false,
      "t": 234929.54451562575,
      "d": 60.09596354168025,
      "v": 123
    },
    {
      "midi": 60,
      "hit": false,
      "t": 235028.1018958341,
      "d": 28.8460625000007,
      "v": 117
    },
    {
      "midi": 62,
      "hit": false,
      "t": 235381.46616145907,
      "d": 218.74930729166954,
      "v": 117
    },
    {
      "midi": 58,
      "hit": false,
      "t": 235381.46616145907,
      "d": 223.55698437499814,
      "v": 117
    },
    {
      "midi": 56,
      "hit": false,
      "t": 235381.46616145907,
      "d": 235.5761770833342,
      "v": 108
    },
    {
      "midi": 46,
      "hit": false,
      "t": 235383.87000000075,
      "d": 355.7681041666656,
      "v": 108
    },
    {
      "midi": 62,
      "hit": false,
      "t": 235722.81123437575,
      "d": 40.86525520833675,
      "v": 112
    },
    {
      "midi": 58,
      "hit": false,
      "t": 235725.21507291743,
      "d": 26.442223958321847,
      "v": 95
    },
    {
      "midi": 56,
      "hit": false,
      "t": 235725.21507291743,
      "d": 28.8460625000007,
      "v": 82
    },
    {
      "midi": 46,
      "hit": false,
      "t": 235955.98357291744,
      "d": 48.0767708333442,
      "v": 117
    },
    {
      "midi": 62,
      "hit": false,
      "t": 236071.36782291744,
      "d": 175.48021354165394,
      "v": 123
    },
    {
      "midi": 56,
      "hit": false,
      "t": 236071.36782291744,
      "d": 182.6917291666614,
      "v": 112
    },
    {
      "midi": 58,
      "hit": false,
      "t": 236071.36782291744,
      "d": 204.32627604165464,
      "v": 117
    },
    {
      "midi": 39,
      "hit": false,
      "t": 236306.94400000077,
      "d": 629.8056979166868,
      "v": 123
    },
    {
      "midi": 63,
      "hit": false,
      "t": 236535.3086614591,
      "d": 180.28789062501164,
      "v": 123
    },
    {
      "midi": 67,
      "hit": false,
      "t": 236535.3086614591,
      "d": 216.3454687500198,
      "v": 117
    },
    {
      "midi": 58,
      "hit": false,
      "t": 236535.3086614591,
      "d": 252.40304687499884,
      "v": 123
    },
    {
      "midi": 55,
      "hit": false,
      "t": 236761.26948437578,
      "d": 79.32667187499464,
      "v": 82
    },
    {
      "midi": 58,
      "hit": false,
      "t": 236881.4614114591,
      "d": 36.05757812500815,
      "v": 103
    },
    {
      "midi": 63,
      "hit": false,
      "t": 236881.4614114591,
      "d": 43.2690937500156,
      "v": 112
    },
    {
      "midi": 67,
      "hit": false,
      "t": 236883.8652500008,
      "d": 28.8460625000007,
      "v": 67
    },
    {
      "midi": 39,
      "hit": false,
      "t": 237114.6337500008,
      "d": 603.3634739583649,
      "v": 99
    },
    {
      "midi": 55,
      "hit": false,
      "t": 237230.0180000008,
      "d": 52.8844479166728,
      "v": 103
    },
    {
      "midi": 67,
      "hit": false,
      "t": 237230.0180000008,
      "d": 165.86485937499674,
      "v": 117
    },
    {
      "midi": 63,
      "hit": false,
      "t": 237230.0180000008,
      "d": 225.960822916677,
      "v": 117
    },
    {
      "midi": 58,
      "hit": false,
      "t": 237230.0180000008,
      "d": 254.8068854166777,
      "v": 117
    },
    {
      "midi": 55,
      "hit": false,
      "t": 237458.38266145915,
      "d": 103.36505729166674,
      "v": 90
    },
    {
      "midi": 67,
      "hit": false,
      "t": 237571.36307291748,
      "d": 43.2690937500156,
      "v": 99
    },
    {
      "midi": 58,
      "hit": false,
      "t": 237573.76691145916,
      "d": 28.8460625000007,
      "v": 82
    },
    {
      "midi": 63,
      "hit": false,
      "t": 237573.76691145916,
      "d": 36.05757812500815,
      "v": 108
    },
    {
      "midi": 51,
      "hit": false,
      "t": 237802.13157291748,
      "d": 48.0767708333442,
      "v": 99
    },
    {
      "midi": 55,
      "hit": false,
      "t": 237919.91966145916,
      "d": 117.78808854168165,
      "v": 95
    },
    {
      "midi": 67,
      "hit": false,
      "t": 237919.91966145916,
      "d": 161.05718229166814,
      "v": 112
    },
    {
      "midi": 58,
      "hit": false,
      "t": 237919.91966145916,
      "d": 338.94123437500093,
      "v": 103
    },
    {
      "midi": 63,
      "hit": false,
      "t": 237922.32350000084,
      "d": 201.92243749997579,
      "v": 103
    },
    {
      "midi": 41,
      "hit": false,
      "t": 238153.09200000082,
      "d": 524.0368020833703,
      "v": 112
    },
    {
      "midi": 63,
      "hit": false,
      "t": 238379.0528229175,
      "d": 230.7685000000347,
      "v": 112
    },
    {
      "midi": 65,
      "hit": false,
      "t": 238379.0528229175,
      "d": 235.5761770833633,
      "v": 112
    },
    {
      "midi": 60,
      "hit": false,
      "t": 238379.0528229175,
      "d": 257.21072395835654,
      "v": 117
    },
    {
      "midi": 57,
      "hit": false,
      "t": 238381.45666145917,
      "d": 120.1919270833314,
      "v": 99
    },
    {
      "midi": 57,
      "hit": false,
      "t": 238607.41748437585,
      "d": 93.74970312500955,
      "v": 70
    },
    {
      "midi": 63,
      "hit": false,
      "t": 238722.80173437585,
      "d": 40.86525520833675,
      "v": 112
    },
    {
      "midi": 60,
      "hit": false,
      "t": 238722.80173437585,
      "d": 43.2690937500156,
      "v": 99
    },
    {
      "midi": 65,
      "hit": false,
      "t": 238722.80173437585,
      "d": 45.67293229169445,
      "v": 117
    },
    {
      "midi": 41,
      "hit": false,
      "t": 238963.18558854255,
      "d": 971.1507708333666,
      "v": 95
    },
    {
      "midi": 57,
      "hit": false,
      "t": 239073.76216145922,
      "d": 96.1535416666884,
      "v": 103
    },
    {
      "midi": 63,
      "hit": false,
      "t": 239073.76216145922,
      "d": 228.36466145832674,
      "v": 123
    },
    {
      "midi": 65,
      "hit": false,
      "t": 239076.1660000009,
      "d": 211.5377916666621,
      "v": 123
    },
    {
      "midi": 60,
      "hit": false,
      "t": 239076.1660000009,
      "d": 257.21072395832743,
      "v": 123
    },
    {
      "midi": 57,
      "hit": false,
      "t": 239304.53066145923,
      "d": 84.13434895832324,
      "v": 86
    },
    {
      "midi": 65,
      "hit": false,
      "t": 239419.91491145923,
      "d": 31.24990104167955,
      "v": 108
    },
    {
      "midi": 63,
      "hit": false,
      "t": 239419.91491145923,
      "d": 33.6537395833584,
      "v": 108
    },
    {
      "midi": 60,
      "hit": false,
      "t": 239422.3187500009,
      "d": 31.24990104167955,
      "v": 74
    },
    {
      "midi": 57,
      "hit": false,
      "t": 239768.47150000092,
      "d": 149.0379895833321,
      "v": 112
    },
    {
      "midi": 65,
      "hit": false,
      "t": 239768.47150000092,
      "d": 165.86485937499674,
      "v": 117
    },
    {
      "midi": 60,
      "hit": false,
      "t": 239768.47150000092,
      "d": 170.67253645832534,
      "v": 127
    },
    {
      "midi": 63,
      "hit": false,
      "t": 239770.8753385426,
      "d": 168.2686979166465,
      "v": 123
    },
    {
      "midi": 57,
      "hit": false,
      "t": 239996.83616145924,
      "d": 88.94202604165184,
      "v": 70
    },
    {
      "midi": 46,
      "hit": false,
      "t": 240001.64383854257,
      "d": 557.6905416666414,
      "v": 103
    },
    {
      "midi": 65,
      "hit": false,
      "t": 240230.0085000009,
      "d": 206.7301145833335,
      "v": 95
    },
    {
      "midi": 62,
      "hit": false,
      "t": 240230.0085000009,
      "d": 228.36466145832674,
      "v": 117
    },
    {
      "midi": 58,
      "hit": false,
      "t": 240230.0085000009,
      "d": 242.78769270831253,
      "v": 117
    },
    {
      "midi": 53,
      "hit": false,
      "t": 240458.37316145923,
      "d": 134.6149583333172,
      "v": 103
    },
    {
      "midi": 58,
      "hit": false,
      "t": 240576.16125000088,
      "d": 28.8460625000007,
      "v": 99
    },
    {
      "midi": 62,
      "hit": false,
      "t": 240576.16125000088,
      "d": 31.24990104167955,
      "v": 112
    },
    {
      "midi": 46,
      "hit": false,
      "t": 240806.92975000088,
      "d": 55.288286458322546,
      "v": 117
    },
    {
      "midi": 53,
      "hit": false,
      "t": 240922.3140000009,
      "d": 74.51899479166605,
      "v": 99
    },
    {
      "midi": 65,
      "hit": false,
      "t": 240922.3140000009,
      "d": 199.51859895832604,
      "v": 95
    },
    {
      "midi": 62,
      "hit": false,
      "t": 240922.3140000009,
      "d": 216.3454687499907,
      "v": 127
    },
    {
      "midi": 58,
      "hit": false,
      "t": 240922.3140000009,
      "d": 240.3838541666628,
      "v": 117
    },
    {
      "midi": 53,
      "hit": false,
      "t": 241150.6786614592,
      "d": 112.98041145832394,
      "v": 108
    },
    {
      "midi": 58,
      "hit": false,
      "t": 241268.46675000087,
      "d": 24.0383854166721,
      "v": 69
    },
    {
      "midi": 62,
      "hit": false,
      "t": 241268.46675000087,
      "d": 28.8460625000007,
      "v": 90
    },
    {
      "midi": 46,
      "hit": false,
      "t": 241496.8314114592,
      "d": 103.36505729166674,
      "v": 112
    },
    {
      "midi": 53,
      "hit": false,
      "t": 241614.61950000084,
      "d": 129.8072812499886,
      "v": 103
    },
    {
      "midi": 62,
      "hit": false,
      "t": 241614.61950000084,
      "d": 170.67253645832534,
      "v": 112
    },
    {
      "midi": 65,
      "hit": false,
      "t": 241614.61950000084,
      "d": 177.8840520833328,
      "v": 99
    },
    {
      "midi": 58,
      "hit": false,
      "t": 241614.61950000084,
      "d": 189.90324479166884,
      "v": 108
    },
    {
      "midi": 41,
      "hit": false,
      "t": 241847.7918385425,
      "d": 603.3634739583649,
      "v": 112
    },
    {
      "midi": 65,
      "hit": false,
      "t": 242071.3488229175,
      "d": 225.960822916677,
      "v": 117
    },
    {
      "midi": 63,
      "hit": false,
      "t": 242071.3488229175,
      "d": 230.7685000000056,
      "v": 112
    },
    {
      "midi": 57,
      "hit": false,
      "t": 242071.3488229175,
      "d": 249.9992083333491,
      "v": 103
    },
    {
      "midi": 60,
      "hit": false,
      "t": 242071.3488229175,
      "d": 254.8068854166777,
      "v": 112
    },
    {
      "midi": 63,
      "hit": false,
      "t": 242415.09773437586,
      "d": 31.24990104167955,
      "v": 103
    },
    {
      "midi": 60,
      "hit": false,
      "t": 242415.09773437586,
      "d": 43.2690937500156,
      "v": 99
    },
    {
      "midi": 65,
      "hit": false,
      "t": 242415.09773437586,
      "d": 57.6921250000014,
      "v": 103
    },
    {
      "midi": 53,
      "hit": false,
      "t": 242542.5011770842,
      "d": 52.8844479166728,
      "v": 112
    },
    {
      "midi": 57,
      "hit": false,
      "t": 242761.25048437587,
      "d": 98.55738020833815,
      "v": 103
    },
    {
      "midi": 65,
      "hit": false,
      "t": 242761.25048437587,
      "d": 225.960822916677,
      "v": 112
    },
    {
      "midi": 63,
      "hit": false,
      "t": 242761.25048437587,
      "d": 257.21072395835654,
      "v": 117
    },
    {
      "midi": 60,
      "hit": false,
      "t": 242761.25048437587,
      "d": 271.63375520834234,
      "v": 117
    },
    {
      "midi": 41,
      "hit": false,
      "t": 242994.42282291755,
      "d": 120.1919270833314,
      "v": 103
    },
    {
      "midi": 57,
      "hit": false,
      "t": 243109.80707291755,
      "d": 38.4614166666579,
      "v": 86
    },
    {
      "midi": 63,
      "hit": false,
      "t": 243109.80707291755,
      "d": 38.4614166666579,
      "v": 112
    },
    {
      "midi": 60,
      "hit": false,
      "t": 243109.80707291755,
      "d": 57.6921250000014,
      "v": 108
    },
    {
      "midi": 65,
      "hit": false,
      "t": 243109.80707291755,
      "d": 76.9228333333449,
      "v": 103
    },
    {
      "midi": 53,
      "hit": false,
      "t": 243340.57557291756,
      "d": 33.6537395833293,
      "v": 117
    },
    {
      "midi": 57,
      "hit": false,
      "t": 243458.3636614592,
      "d": 69.71131770833745,
      "v": 103
    },
    {
      "midi": 63,
      "hit": false,
      "t": 243458.3636614592,
      "d": 76.9228333333449,
      "v": 108
    },
    {
      "midi": 60,
      "hit": false,
      "t": 243458.3636614592,
      "d": 84.13434895835235,
      "v": 117
    },
    {
      "midi": 65,
      "hit": false,
      "t": 243458.3636614592,
      "d": 84.13434895835235,
      "v": 108
    },
    {
      "midi": 43,
      "hit": false,
      "t": 243708.36286979256,
      "d": 576.9212499999849,
      "v": 112
    },
    {
      "midi": 55,
      "hit": false,
      "t": 243929.51601562588,
      "d": 310.09517187500023,
      "v": 103
    },
    {
      "midi": 59,
      "hit": false,
      "t": 244150.6691614592,
      "d": 100.961218750017,
      "v": 123
    },
    {
      "midi": 67,
      "hit": false,
      "t": 244150.6691614592,
      "d": 334.13355729170144,
      "v": 123
    },
    {
      "midi": 62,
      "hit": false,
      "t": 244150.6691614592,
      "d": 353.36426562504494,
      "v": 127
    },
    {
      "midi": 59,
      "hit": false,
      "t": 244379.03382291755,
      "d": 93.74970312500955,
      "v": 74
    },
    {
      "midi": 43,
      "hit": false,
      "t": 244612.20616145924,
      "d": 413.460229166667,
      "v": 103
    },
    {
      "midi": 55,
      "hit": false,
      "t": 244845.3785000009,
      "d": 634.6133750000445,
      "v": 82
    },
    {
      "midi": 59,
      "hit": false,
      "t": 245073.74316145925,
      "d": 76.9228333333449,
      "v": 117
    },
    {
      "midi": 62,
      "hit": false,
      "t": 245073.74316145925,
      "d": 206.7301145833335,
      "v": 123
    },
    {
      "midi": 67,
      "hit": false,
      "t": 245073.74316145925,
      "d": 319.71052604168653,
      "v": 123
    },
    {
      "midi": 59,
      "hit": false,
      "t": 245299.70398437593,
      "d": 91.3458645833307,
      "v": 74
    },
    {
      "midi": 48,
      "hit": false,
      "t": 245535.28016145926,
      "d": 673.0747916666733,
      "v": 112
    },
    {
      "midi": 60,
      "hit": false,
      "t": 245768.45250000092,
      "d": 524.0368020833412,
      "v": 95
    },
    {
      "midi": 64,
      "hit": false,
      "t": 245999.22100000092,
      "d": 266.82607812501374,
      "v": 117
    },
    {
      "midi": 76,
      "hit": false,
      "t": 245999.22100000092,
      "d": 271.63375520834234,
      "v": 117
    },
    {
      "midi": 72,
      "hit": false,
      "t": 245999.22100000092,
      "d": 310.09517187500023,
      "v": 123
    },
    {
      "midi": 67,
      "hit": false,
      "t": 245999.22100000092,
      "d": 317.3066875000077,
      "v": 123
    },
    {
      "midi": 48,
      "hit": false,
      "t": 246352.58526562594,
      "d": 588.94044270835,
      "v": 99
    },
    {
      "midi": 60,
      "hit": false,
      "t": 246691.52650000094,
      "d": 274.0375937500212,
      "v": 99
    },
    {
      "midi": 64,
      "hit": false,
      "t": 246922.29500000094,
      "d": 127.40344270833884,
      "v": 123
    },
    {
      "midi": 76,
      "hit": false,
      "t": 246922.29500000094,
      "d": 247.59536979167024,
      "v": 123
    },
    {
      "midi": 72,
      "hit": false,
      "t": 246922.29500000094,
      "d": 266.82607812501374,
      "v": 123
    },
    {
      "midi": 67,
      "hit": false,
      "t": 246922.29500000094,
      "d": 288.4606250000361,
      "v": 127
    },
    {
      "midi": 64,
      "hit": false,
      "t": 247157.87117708428,
      "d": 33.6537395833584,
      "v": 82
    },
    {
      "midi": 44,
      "hit": false,
      "t": 247412.67806250099,
      "d": 735.5745937500033,
      "v": 112
    },
    {
      "midi": 56,
      "hit": false,
      "t": 247614.600500001,
      "d": 117.78808854165254,
      "v": 108
    },
    {
      "midi": 63,
      "hit": false,
      "t": 247614.600500001,
      "d": 257.21072395832743,
      "v": 117
    },
    {
      "midi": 60,
      "hit": false,
      "t": 247614.600500001,
      "d": 810.0935885416984,
      "v": 117
    },
    {
      "midi": 65,
      "hit": false,
      "t": 247842.96516145932,
      "d": 177.8840520833328,
      "v": 103
    },
    {
      "midi": 56,
      "hit": false,
      "t": 248071.32982291764,
      "d": 211.5377916666912,
      "v": 78
    },
    {
      "midi": 63,
      "hit": false,
      "t": 248071.32982291764,
      "d": 264.422239583364,
      "v": 108
    },
    {
      "midi": 44,
      "hit": false,
      "t": 248304.50216145933,
      "d": 841.3434895833489,
      "v": 108
    },
    {
      "midi": 63,
      "hit": false,
      "t": 248537.674500001,
      "d": 259.6145625000063,
      "v": 117
    },
    {
      "midi": 56,
      "hit": false,
      "t": 248537.674500001,
      "d": 552.8828645833419,
      "v": 112
    },
    {
      "midi": 60,
      "hit": false,
      "t": 248537.674500001,
      "d": 610.5749895833433,
      "v": 112
    },
    {
      "midi": 65,
      "hit": false,
      "t": 248768.44300000102,
      "d": 249.9992083333491,
      "v": 103
    },
    {
      "midi": 63,
      "hit": false,
      "t": 248999.21150000102,
      "d": 362.97961979167303,
      "v": 103
    },
    {
      "midi": 46,
      "hit": false,
      "t": 249227.57616145935,
      "d": 872.5933906250284,
      "v": 99
    },
    {
      "midi": 61,
      "hit": false,
      "t": 249458.34466145936,
      "d": 372.59497395833023,
      "v": 103
    },
    {
      "midi": 56,
      "hit": false,
      "t": 249460.74850000103,
      "d": 307.6913333333214,
      "v": 117
    },
    {
      "midi": 65,
      "hit": false,
      "t": 249460.74850000103,
      "d": 331.7297187499935,
      "v": 103
    },
    {
      "midi": 56,
      "hit": false,
      "t": 249917.4778229177,
      "d": 146.63415104168234,
      "v": 90
    },
    {
      "midi": 65,
      "hit": false,
      "t": 249917.4778229177,
      "d": 355.7681041666947,
      "v": 99
    },
    {
      "midi": 61,
      "hit": false,
      "t": 249919.88166145937,
      "d": 391.82568229167373,
      "v": 95
    },
    {
      "midi": 51,
      "hit": false,
      "t": 250150.65016145937,
      "d": 860.574197916605,
      "v": 108
    },
    {
      "midi": 58,
      "hit": false,
      "t": 250379.0148229177,
      "d": 324.51820312498603,
      "v": 117
    },
    {
      "midi": 67,
      "hit": false,
      "t": 250379.0148229177,
      "d": 341.3450729166507,
      "v": 103
    },
    {
      "midi": 63,
      "hit": false,
      "t": 250379.0148229177,
      "d": 663.4594374999579,
      "v": 108
    },
    {
      "midi": 67,
      "hit": false,
      "t": 250840.55182291768,
      "d": 127.40344270830974,
      "v": 82
    },
    {
      "midi": 58,
      "hit": false,
      "t": 250845.359500001,
      "d": 72.1151562499872,
      "v": 66
    },
    {
      "midi": 46,
      "hit": false,
      "t": 251073.72416145934,
      "d": 858.1703593750135,
      "v": 99
    },
    {
      "midi": 58,
      "hit": false,
      "t": 251304.49266145934,
      "d": 312.4990104166791,
      "v": 112
    },
    {
      "midi": 65,
      "hit": false,
      "t": 251304.49266145934,
      "d": 350.960427083337,
      "v": 117
    },
    {
      "midi": 61,
      "hit": false,
      "t": 251304.49266145934,
      "d": 387.01800520834513,
      "v": 117
    },
    {
      "midi": 58,
      "hit": false,
      "t": 251763.62582291767,
      "d": 93.74970312500955,
      "v": 82
    },
    {
      "midi": 65,
      "hit": false,
      "t": 251763.62582291767,
      "d": 197.1147604166763,
      "v": 103
    },
    {
      "midi": 61,
      "hit": false,
      "t": 251763.62582291767,
      "d": 365.3834583333519,
      "v": 95
    },
    {
      "midi": 51,
      "hit": false,
      "t": 251996.79816145936,
      "d": 858.1703593750135,
      "v": 99
    },
    {
      "midi": 63,
      "hit": false,
      "t": 252227.56666145936,
      "d": 343.74891145832953,
      "v": 117
    },
    {
      "midi": 67,
      "hit": false,
      "t": 252229.97050000104,
      "d": 290.86446354165673,
      "v": 117
    },
    {
      "midi": 58,
      "hit": false,
      "t": 252229.97050000104,
      "d": 307.6913333333214,
      "v": 117
    },
    {
      "midi": 63,
      "hit": false,
      "t": 252691.50750000103,
      "d": 180.28789062501164,
      "v": 86
    },
    {
      "midi": 58,
      "hit": false,
      "t": 252693.9113385427,
      "d": 88.94202604168095,
      "v": 86
    },
    {
      "midi": 67,
      "hit": false,
      "t": 252693.9113385427,
      "d": 115.3842500000028,
      "v": 86
    },
    {
      "midi": 44,
      "hit": false,
      "t": 252922.27600000103,
      "d": 742.7861093750398,
      "v": 108
    },
    {
      "midi": 63,
      "hit": false,
      "t": 253148.2368229177,
      "d": 276.44143229167094,
      "v": 99
    },
    {
      "midi": 56,
      "hit": false,
      "t": 253150.6406614594,
      "d": 293.2683020833356,
      "v": 117
    },
    {
      "midi": 60,
      "hit": false,
      "t": 253150.6406614594,
      "d": 396.6333593750023,
      "v": 103
    },
    {
      "midi": 65,
      "hit": false,
      "t": 253379.0053229177,
      "d": 194.71092187499744,
      "v": 82
    },
    {
      "midi": 51,
      "hit": false,
      "t": 253607.36998437604,
      "d": 67.3074791666877,
      "v": 28
    },
    {
      "midi": 63,
      "hit": false,
      "t": 253609.77382291772,
      "d": 358.17194270834443,
      "v": 103
    },
    {
      "midi": 56,
      "hit": false,
      "t": 253612.1776614594,
      "d": 302.8836562499928,
      "v": 112
    },
    {
      "midi": 60,
      "hit": false,
      "t": 253612.1776614594,
      "d": 362.97961979167303,
      "v": 99
    },
    {
      "midi": 44,
      "hit": false,
      "t": 253842.9461614594,
      "d": 302.8836562500219,
      "v": 112
    },
    {
      "midi": 63,
      "hit": false,
      "t": 254073.7146614594,
      "d": 367.78729687500163,
      "v": 99
    },
    {
      "midi": 56,
      "hit": false,
      "t": 254076.1185000011,
      "d": 290.86446354165673,
      "v": 117
    },
    {
      "midi": 60,
      "hit": false,
      "t": 254076.1185000011,
      "d": 370.1911354166514,
      "v": 103
    },
    {
      "midi": 44,
      "hit": false,
      "t": 254304.48316145941,
      "d": 406.24871354168863,
      "v": 95
    },
    {
      "midi": 56,
      "hit": false,
      "t": 254535.25166145942,
      "d": 93.74970312500955,
      "v": 90
    },
    {
      "midi": 60,
      "hit": false,
      "t": 254535.25166145942,
      "d": 112.98041145835305,
      "v": 99
    },
    {
      "midi": 63,
      "hit": false,
      "t": 254535.25166145942,
      "d": 192.3070833333477,
      "v": 90
    },
    {
      "midi": 63,
      "hit": false,
      "t": 254766.02016145943,
      "d": 129.8072812499886,
      "v": 65
    },
    {
      "midi": 46,
      "hit": false,
      "t": 254766.02016145943,
      "d": 762.0168177083251,
      "v": 103
    },
    {
      "midi": 62,
      "hit": false,
      "t": 254994.38482291775,
      "d": 350.960427083337,
      "v": 123
    },
    {
      "midi": 58,
      "hit": false,
      "t": 254996.78866145943,
      "d": 290.86446354165673,
      "v": 123
    },
    {
      "midi": 65,
      "hit": false,
      "t": 254996.78866145943,
      "d": 341.3450729166507,
      "v": 108
    },
    {
      "midi": 62,
      "hit": false,
      "t": 255453.51798437609,
      "d": 360.5757812499942,
      "v": 112
    },
    {
      "midi": 58,
      "hit": false,
      "t": 255455.92182291776,
      "d": 105.76889583331649,
      "v": 86
    },
    {
      "midi": 65,
      "hit": false,
      "t": 255455.92182291776,
      "d": 341.3450729166507,
      "v": 99
    },
    {
      "midi": 58,
      "hit": false,
      "t": 255583.32526562607,
      "d": 93.74970312500955,
      "v": 52
    },
    {
      "midi": 46,
      "hit": false,
      "t": 255686.69032291774,
      "d": 879.804906250065,
      "v": 86
    },
    {
      "midi": 65,
      "hit": false,
      "t": 255919.86266145942,
      "d": 305.28749479170074,
      "v": 103
    },
    {
      "midi": 62,
      "hit": false,
      "t": 255919.86266145942,
      "d": 598.5557968750363,
      "v": 112
    },
    {
      "midi": 58,
      "hit": false,
      "t": 255922.2665000011,
      "d": 360.5757812500233,
      "v": 117
    },
    {
      "midi": 67,
      "hit": false,
      "t": 256148.22732291778,
      "d": 221.1531458333484,
      "v": 95
    },
    {
      "midi": 65,
      "hit": false,
      "t": 256378.9958229178,
      "d": 213.94163020834094,
      "v": 74
    },
    {
      "midi": 48,
      "hit": false,
      "t": 256609.7643229178,
      "d": 879.8049062499776,
      "v": 99
    },
    {
      "midi": 58,
      "hit": false,
      "t": 256842.93666145945,
      "d": 290.86446354165673,
      "v": 112
    },
    {
      "midi": 67,
      "hit": false,
      "t": 256842.93666145945,
      "d": 324.51820312498603,
      "v": 117
    },
    {
      "midi": 63,
      "hit": false,
      "t": 256842.93666145945,
      "d": 661.0555989583081,
      "v": 117
    },
    {
      "midi": 67,
      "hit": false,
      "t": 257297.26214583442,
      "d": 153.8456666666898,
      "v": 82
    },
    {
      "midi": 58,
      "hit": false,
      "t": 257299.6659843761,
      "d": 103.36505729166674,
      "v": 74
    },
    {
      "midi": 41,
      "hit": false,
      "t": 257530.43448437608,
      "d": 836.5358125000785,
      "v": 108
    },
    {
      "midi": 59,
      "hit": false,
      "t": 257542.4536770844,
      "d": 60.09596354168025,
      "v": 63
    },
    {
      "midi": 65,
      "hit": false,
      "t": 257766.01066145944,
      "d": 348.55658854168723,
      "v": 108
    },
    {
      "midi": 63,
      "hit": false,
      "t": 257766.01066145944,
      "d": 382.21032812501653,
      "v": 117
    },
    {
      "midi": 57,
      "hit": false,
      "t": 257768.41450000112,
      "d": 298.0759791666642,
      "v": 103
    },
    {
      "midi": 60,
      "hit": false,
      "t": 257768.41450000112,
      "d": 372.59497395833023,
      "v": 117
    },
    {
      "midi": 53,
      "hit": false,
      "t": 258107.35573437612,
      "d": 228.36466145835584,
      "v": 40
    },
    {
      "midi": 60,
      "hit": false,
      "t": 258225.1438229178,
      "d": 165.86485937502584,
      "v": 86
    },
    {
      "midi": 57,
      "hit": false,
      "t": 258227.54766145948,
      "d": 100.96121874998789,
      "v": 69
    },
    {
      "midi": 65,
      "hit": false,
      "t": 258227.54766145948,
      "d": 204.32627604168374,
      "v": 86
    },
    {
      "midi": 63,
      "hit": false,
      "t": 258227.54766145948,
      "d": 317.3066875000077,
      "v": 78
    },
    {
      "midi": 63,
      "hit": false,
      "t": 258686.6808229178,
      "d": 399.0371979166812,
      "v": 99
    },
    {
      "midi": 58,
      "hit": false,
      "t": 258689.0846614595,
      "d": 293.2683020833356,
      "v": 103
    },
    {
      "midi": 67,
      "hit": false,
      "t": 258689.0846614595,
      "d": 329.32588020834373,
      "v": 103
    },
    {
      "midi": 48,
      "hit": false,
      "t": 258691.48850000117,
      "d": 644.2287291666726,
      "v": 99
    },
    {
      "midi": 63,
      "hit": false,
      "t": 259145.81398437617,
      "d": 346.1527500000084,
      "v": 78
    },
    {
      "midi": 58,
      "hit": false,
      "t": 259148.21782291785,
      "d": 204.32627604165464,
      "v": 99
    },
    {
      "midi": 67,
      "hit": false,
      "t": 259148.21782291785,
      "d": 269.2299166666635,
      "v": 95
    },
    {
      "midi": 41,
      "hit": false,
      "t": 259376.58248437618,
      "d": 805.2859114583116,
      "v": 103
    },
    {
      "midi": 57,
      "hit": false,
      "t": 259609.75482291784,
      "d": 293.2683020833356,
      "v": 103
    },
    {
      "midi": 63,
      "hit": false,
      "t": 259609.75482291784,
      "d": 372.59497395833023,
      "v": 103
    },
    {
      "midi": 65,
      "hit": false,
      "t": 259612.1586614595,
      "d": 353.36426562498673,
      "v": 108
    },
    {
      "midi": 60,
      "hit": false,
      "t": 259612.1586614595,
      "d": 396.6333593749732,
      "v": 103
    },
    {
      "midi": 53,
      "hit": false,
      "t": 259840.52332291784,
      "d": 346.1527499999793,
      "v": 82
    },
    {
      "midi": 60,
      "hit": false,
      "t": 260071.29182291782,
      "d": 110.5765729166742,
      "v": 99
    },
    {
      "midi": 57,
      "hit": false,
      "t": 260071.29182291782,
      "d": 117.78808854168165,
      "v": 82
    },
    {
      "midi": 65,
      "hit": false,
      "t": 260073.6956614595,
      "d": 175.48021354168304,
      "v": 86
    },
    {
      "midi": 63,
      "hit": false,
      "t": 260073.6956614595,
      "d": 295.67214062501444,
      "v": 86
    },
    {
      "midi": 46,
      "hit": false,
      "t": 260304.4641614595,
      "d": 817.3051041666768,
      "v": 90
    },
    {
      "midi": 65,
      "hit": false,
      "t": 260535.2326614595,
      "d": 271.63375520834234,
      "v": 108
    },
    {
      "midi": 58,
      "hit": false,
      "t": 260535.2326614595,
      "d": 312.4990104166791,
      "v": 123
    },
    {
      "midi": 62,
      "hit": false,
      "t": 260535.2326614595,
      "d": 358.17194270834443,
      "v": 117
    },
    {
      "midi": 67,
      "hit": false,
      "t": 260761.19348437618,
      "d": 165.86485937499674,
      "v": 72
    },
    {
      "midi": 65,
      "hit": false,
      "t": 260994.36582291784,
      "d": 377.4026510416588,
      "v": 103
    },
    {
      "midi": 62,
      "hit": false,
      "t": 260994.36582291784,
      "d": 384.6141666666663,
      "v": 112
    },
    {
      "midi": 58,
      "hit": false,
      "t": 260996.76966145952,
      "d": 324.51820312498603,
      "v": 112
    },
    {
      "midi": 46,
      "hit": false,
      "t": 261225.13432291785,
      "d": 882.2087447916565,
      "v": 82
    },
    {
      "midi": 62,
      "hit": false,
      "t": 261458.3066614595,
      "d": 334.13355729167233,
      "v": 123
    },
    {
      "midi": 65,
      "hit": false,
      "t": 261458.3066614595,
      "d": 346.1527500000084,
      "v": 112
    },
    {
      "midi": 58,
      "hit": false,
      "t": 261460.71050000118,
      "d": 290.86446354165673,
      "v": 117
    },
    {
      "midi": 58,
      "hit": false,
      "t": 261919.8436614595,
      "d": 146.63415104165324,
      "v": 72
    },
    {
      "midi": 65,
      "hit": false,
      "t": 261919.8436614595,
      "d": 314.90284895832883,
      "v": 90
    },
    {
      "midi": 62,
      "hit": false,
      "t": 261919.8436614595,
      "d": 358.1719427083153,
      "v": 103
    },
    {
      "midi": 48,
      "hit": false,
      "t": 262153.01600000117,
      "d": 608.1711510416353,
      "v": 99
    },
    {
      "midi": 58,
      "hit": false,
      "t": 262383.7845000012,
      "d": 242.78769270831253,
      "v": 112
    },
    {
      "midi": 67,
      "hit": false,
      "t": 262383.7845000012,
      "d": 245.19153124996228,
      "v": 108
    },
    {
      "midi": 63,
      "hit": false,
      "t": 262383.7845000012,
      "d": 262.01840104162693,
      "v": 103
    },
    {
      "midi": 63,
      "hit": false,
      "t": 262727.5334114595,
      "d": 50.480609374993946,
      "v": 90
    },
    {
      "midi": 58,
      "hit": false,
      "t": 262729.9372500011,
      "d": 21.63454687502235,
      "v": 56
    },
    {
      "midi": 67,
      "hit": false,
      "t": 262729.9372500011,
      "d": 55.28828645835165,
      "v": 86
    },
    {
      "midi": 48,
      "hit": false,
      "t": 262960.7057500011,
      "d": 50.480609374993946,
      "v": 78
    },
    {
      "midi": 58,
      "hit": false,
      "t": 263076.09000000113,
      "d": 137.01879687502515,
      "v": 112
    },
    {
      "midi": 67,
      "hit": false,
      "t": 263076.09000000113,
      "d": 247.59536979167024,
      "v": 123
    },
    {
      "midi": 63,
      "hit": false,
      "t": 263076.09000000113,
      "d": 274.0375937499921,
      "v": 112
    },
    {
      "midi": 48,
      "hit": false,
      "t": 263306.85850000114,
      "d": 74.51899479166605,
      "v": 65
    },
    {
      "midi": 58,
      "hit": false,
      "t": 263422.24275000114,
      "d": 45.67293229169445,
      "v": 60
    },
    {
      "midi": 63,
      "hit": false,
      "t": 263422.24275000114,
      "d": 52.8844479167019,
      "v": 74
    },
    {
      "midi": 67,
      "hit": false,
      "t": 263422.24275000114,
      "d": 76.922833333374,
      "v": 82
    },
    {
      "midi": 48,
      "hit": false,
      "t": 263653.0112500012,
      "d": 57.6921250000014,
      "v": 99
    },
    {
      "midi": 67,
      "hit": false,
      "t": 263768.3955000012,
      "d": 201.92243749997579,
      "v": 117
    },
    {
      "midi": 58,
      "hit": false,
      "t": 263768.3955000012,
      "d": 211.53779166663298,
      "v": 112
    },
    {
      "midi": 63,
      "hit": false,
      "t": 263768.3955000012,
      "d": 230.76849999994738,
      "v": 112
    },
    {
      "midi": 46,
      "hit": false,
      "t": 263999.16400000115,
      "d": 721.1515624999884,
      "v": 117
    },
    {
      "midi": 58,
      "hit": false,
      "t": 264229.93250000116,
      "d": 288.460625000007,
      "v": 103
    },
    {
      "midi": 70,
      "hit": false,
      "t": 264229.93250000116,
      "d": 295.67214062501444,
      "v": 108
    },
    {
      "midi": 65,
      "hit": false,
      "t": 264229.93250000116,
      "d": 326.922041666694,
      "v": 112
    },
    {
      "midi": 62,
      "hit": false,
      "t": 264232.3363385428,
      "d": 324.51820312504424,
      "v": 117
    },
    {
      "midi": 62,
      "hit": false,
      "t": 264580.8929270845,
      "d": 57.69212499994319,
      "v": 99
    },
    {
      "midi": 70,
      "hit": false,
      "t": 264580.8929270845,
      "d": 84.13434895826504,
      "v": 95
    },
    {
      "midi": 65,
      "hit": false,
      "t": 264583.2967656262,
      "d": 36.057578124979045,
      "v": 99
    },
    {
      "midi": 58,
      "hit": false,
      "t": 264583.2967656262,
      "d": 52.884447916643694,
      "v": 95
    },
    {
      "midi": 46,
      "hit": false,
      "t": 264915.02648437617,
      "d": 901.4394531249418,
      "v": 103
    },
    {
      "midi": 58,
      "hit": false,
      "t": 264927.0456770845,
      "d": 600.9596354166861,
      "v": 108
    },
    {
      "midi": 70,
      "hit": false,
      "t": 264927.0456770845,
      "d": 745.1899479166605,
      "v": 103
    },
    {
      "midi": 62,
      "hit": false,
      "t": 264927.0456770845,
      "d": 764.4206562499749,
      "v": 112
    },
    {
      "midi": 65,
      "hit": false,
      "t": 264927.0456770845,
      "d": 776.4398489582818,
      "v": 117
    },
    {
      "midi": 55,
      "hit": false,
      "t": 265845.3120000011,
      "d": 603.3634739582194,
      "v": 103
    },
    {
      "midi": 71,
      "hit": false,
      "t": 266073.67666145944,
      "d": 254.80688541661948,
      "v": 112
    },
    {
      "midi": 65,
      "hit": false,
      "t": 266076.0805000011,
      "d": 249.99920833331998,
      "v": 103
    },
    {
      "midi": 67,
      "hit": false,
      "t": 266076.0805000011,
      "d": 254.80688541661948,
      "v": 108
    },
    {
      "midi": 74,
      "hit": false,
      "t": 266076.0805000011,
      "d": 254.80688541661948,
      "v": 117
    },
    {
      "midi": 71,
      "hit": false,
      "t": 266417.4255729177,
      "d": 33.65373958327109,
      "v": 82
    },
    {
      "midi": 67,
      "hit": false,
      "t": 266417.4255729177,
      "d": 52.884447916585486,
      "v": 99
    },
    {
      "midi": 74,
      "hit": false,
      "t": 266417.4255729177,
      "d": 62.499802083242685,
      "v": 103
    },
    {
      "midi": 65,
      "hit": false,
      "t": 266419.82941145933,
      "d": 28.846062499971595,
      "v": 60
    },
    {
      "midi": 55,
      "hit": false,
      "t": 266650.5979114593,
      "d": 968.7469322916586,
      "v": 108
    },
    {
      "midi": 65,
      "hit": false,
      "t": 266763.57832291763,
      "d": 528.8444791666698,
      "v": 108
    },
    {
      "midi": 71,
      "hit": false,
      "t": 266763.57832291763,
      "d": 798.0743958333042,
      "v": 117
    },
    {
      "midi": 67,
      "hit": false,
      "t": 266763.57832291763,
      "d": 829.3242968749837,
      "v": 117
    },
    {
      "midi": 74,
      "hit": false,
      "t": 266765.9821614593,
      "d": 766.8244947916828,
      "v": 117
    },
    {
      "midi": 65,
      "hit": false,
      "t": 267458.2876614593,
      "d": 117.78808854165254,
      "v": 69
    },
    {
      "midi": 48,
      "hit": false,
      "t": 267691.46000000095,
      "d": 605.7673124999856,
      "v": 112
    },
    {
      "midi": 58,
      "hit": false,
      "t": 267922.22850000096,
      "d": 223.55698437499814,
      "v": 117
    },
    {
      "midi": 67,
      "hit": false,
      "t": 267922.22850000096,
      "d": 235.57617708330508,
      "v": 112
    },
    {
      "midi": 63,
      "hit": false,
      "t": 267922.22850000096,
      "d": 252.40304687496973,
      "v": 117
    },
    {
      "midi": 58,
      "hit": false,
      "t": 268263.5735729176,
      "d": 43.269093749986496,
      "v": 82
    },
    {
      "midi": 63,
      "hit": false,
      "t": 268263.5735729176,
      "d": 50.480609374993946,
      "v": 99
    },
    {
      "midi": 67,
      "hit": false,
      "t": 268263.5735729176,
      "d": 57.6921250000014,
      "v": 99
    },
    {
      "midi": 48,
      "hit": false,
      "t": 268496.74591145926,
      "d": 709.132369791565,
      "v": 86
    },
    {
      "midi": 67,
      "hit": false,
      "t": 268609.7263229176,
      "d": 269.2299166666344,
      "v": 117
    },
    {
      "midi": 58,
      "hit": false,
      "t": 268609.7263229176,
      "d": 281.2491093749413,
      "v": 108
    },
    {
      "midi": 63,
      "hit": false,
      "t": 268609.7263229176,
      "d": 290.8644635415985,
      "v": 112
    },
    {
      "midi": 55,
      "hit": false,
      "t": 268845.3025000009,
      "d": 548.075187499926,
      "v": 95
    },
    {
      "midi": 63,
      "hit": false,
      "t": 268960.68675000087,
      "d": 55.28828645829344,
      "v": 86
    },
    {
      "midi": 58,
      "hit": false,
      "t": 268960.68675000087,
      "d": 64.90364062495064,
      "v": 82
    },
    {
      "midi": 67,
      "hit": false,
      "t": 268963.0905885425,
      "d": 69.71131770830834,
      "v": 70
    },
    {
      "midi": 48,
      "hit": false,
      "t": 269297.22414583416,
      "d": 177.8840520833619,
      "v": 69
    },
    {
      "midi": 58,
      "hit": false,
      "t": 269304.43566145917,
      "d": 132.21111979166744,
      "v": 95
    },
    {
      "midi": 67,
      "hit": false,
      "t": 269304.43566145917,
      "d": 165.86485937499674,
      "v": 103
    },
    {
      "midi": 63,
      "hit": false,
      "t": 269304.43566145917,
      "d": 286.05678645835724,
      "v": 95
    },
    {
      "midi": 41,
      "hit": false,
      "t": 269535.2041614592,
      "d": 394.2295208332944,
      "v": 108
    },
    {
      "midi": 63,
      "hit": false,
      "t": 269763.5688229175,
      "d": 245.19153124996228,
      "v": 117
    },
    {
      "midi": 65,
      "hit": false,
      "t": 269763.5688229175,
      "d": 247.59536979161203,
      "v": 108
    },
    {
      "midi": 60,
      "hit": false,
      "t": 269763.5688229175,
      "d": 271.63375520828413,
      "v": 112
    },
    {
      "midi": 57,
      "hit": false,
      "t": 269888.5684270842,
      "d": 12.019192708306946,
      "v": 50
    },
    {
      "midi": 60,
      "hit": false,
      "t": 270109.7215729175,
      "d": 40.86525520833675,
      "v": 82
    },
    {
      "midi": 65,
      "hit": false,
      "t": 270109.7215729175,
      "d": 45.67293229169445,
      "v": 90
    },
    {
      "midi": 63,
      "hit": false,
      "t": 270109.7215729175,
      "d": 48.0767708333442,
      "v": 108
    },
    {
      "midi": 41,
      "hit": false,
      "t": 270342.89391145913,
      "d": 346.1527500000084,
      "v": 103
    },
    {
      "midi": 57,
      "hit": false,
      "t": 270455.8743229175,
      "d": 548.0751874999842,
      "v": 103
    },
    {
      "midi": 65,
      "hit": false,
      "t": 270455.8743229175,
      "d": 610.5749895833433,
      "v": 117
    },
    {
      "midi": 63,
      "hit": false,
      "t": 270455.8743229175,
      "d": 781.2475260416395,
      "v": 117
    },
    {
      "midi": 60,
      "hit": false,
      "t": 270458.27816145914,
      "d": 591.3442812500289,
      "v": 127
    },
    {
      "midi": 53,
      "hit": false,
      "t": 270797.21939583414,
      "d": 461.53699999995297,
      "v": 74
    },
    {
      "midi": 57,
      "hit": false,
      "t": 271044.8147656258,
      "d": 74.51899479166605,
      "v": 65
    },
    {
      "midi": 60,
      "hit": false,
      "t": 271145.7759843758,
      "d": 84.13434895832324,
      "v": 60
    },
    {
      "midi": 65,
      "hit": false,
      "t": 271145.7759843758,
      "d": 100.96121874998789,
      "v": 70
    },
    {
      "midi": 48,
      "hit": false,
      "t": 271378.94832291745,
      "d": 641.824890625081,
      "v": 103
    },
    {
      "midi": 60,
      "hit": false,
      "t": 271612.1206614591,
      "d": 221.1531458333484,
      "v": 117
    },
    {
      "midi": 63,
      "hit": false,
      "t": 271612.1206614591,
      "d": 242.78769270837074,
      "v": 117
    },
    {
      "midi": 67,
      "hit": false,
      "t": 271612.1206614591,
      "d": 247.59536979172844,
      "v": 117
    },
    {
      "midi": 70,
      "hit": false,
      "t": 271612.1206614591,
      "d": 254.8068854167359,
      "v": 108
    },
    {
      "midi": 67,
      "hit": false,
      "t": 271955.8695729175,
      "d": 38.461416666687,
      "v": 95
    },
    {
      "midi": 63,
      "hit": false,
      "t": 271955.8695729175,
      "d": 40.86525520833675,
      "v": 72
    },
    {
      "midi": 70,
      "hit": false,
      "t": 271955.8695729175,
      "d": 50.480609374993946,
      "v": 90
    },
    {
      "midi": 48,
      "hit": false,
      "t": 272189.0419114592,
      "d": 1024.035218749952,
      "v": 103
    },
    {
      "midi": 60,
      "hit": false,
      "t": 272304.4261614592,
      "d": 110.57657291664509,
      "v": 112
    },
    {
      "midi": 67,
      "hit": false,
      "t": 272304.4261614592,
      "d": 228.36466145829763,
      "v": 112
    },
    {
      "midi": 70,
      "hit": false,
      "t": 272304.4261614592,
      "d": 237.98001562495483,
      "v": 99
    },
    {
      "midi": 63,
      "hit": false,
      "t": 272304.4261614592,
      "d": 269.2299166666344,
      "v": 112
    },
    {
      "midi": 60,
      "hit": false,
      "t": 272532.7908229175,
      "d": 141.82647395832464,
      "v": 82
    },
    {
      "midi": 67,
      "hit": false,
      "t": 272648.1750729175,
      "d": 33.6537395833293,
      "v": 99
    },
    {
      "midi": 70,
      "hit": false,
      "t": 272648.1750729175,
      "d": 60.095963541651145,
      "v": 99
    },
    {
      "midi": 63,
      "hit": false,
      "t": 272650.57891145913,
      "d": 40.86525520833675,
      "v": 82
    },
    {
      "midi": 70,
      "hit": false,
      "t": 272994.3278229175,
      "d": 201.92243749997579,
      "v": 82
    },
    {
      "midi": 67,
      "hit": false,
      "t": 272996.73166145914,
      "d": 185.09556770831114,
      "v": 95
    },
    {
      "midi": 60,
      "hit": false,
      "t": 272996.73166145914,
      "d": 338.94123437500093,
      "v": 103
    },
    {
      "midi": 63,
      "hit": false,
      "t": 272996.73166145914,
      "d": 374.99881249998,
      "v": 99
    },
    {
      "midi": 53,
      "hit": false,
      "t": 273234.71167708415,
      "d": 848.5550052082399,
      "v": 99
    },
    {
      "midi": 65,
      "hit": false,
      "t": 273460.6725000008,
      "d": 286.05678645835724,
      "v": 117
    },
    {
      "midi": 69,
      "hit": false,
      "t": 273463.07633854245,
      "d": 269.2299166666926,
      "v": 112
    },
    {
      "midi": 60,
      "hit": false,
      "t": 273463.07633854245,
      "d": 278.8452708333498,
      "v": 117
    },
    {
      "midi": 63,
      "hit": false,
      "t": 273463.07633854245,
      "d": 290.86446354171494,
      "v": 112
    },
    {
      "midi": 63,
      "hit": false,
      "t": 273806.8252500008,
      "d": 33.65373958327109,
      "v": 70
    },
    {
      "midi": 65,
      "hit": false,
      "t": 273806.8252500008,
      "d": 33.65373958327109,
      "v": 90
    },
    {
      "midi": 69,
      "hit": false,
      "t": 273806.8252500008,
      "d": 62.499802083242685,
      "v": 95
    },
    {
      "midi": 60,
      "hit": false,
      "t": 273809.22908854246,
      "d": 28.846062499971595,
      "v": 65
    },
    {
      "midi": 41,
      "hit": false,
      "t": 274150.57416145905,
      "d": 319.7105260416283,
      "v": 103
    },
    {
      "midi": 65,
      "hit": false,
      "t": 274150.57416145905,
      "d": 841.3434895833489,
      "v": 112
    },
    {
      "midi": 60,
      "hit": false,
      "t": 274152.9780000007,
      "d": 552.8828645832837,
      "v": 112
    },
    {
      "midi": 63,
      "hit": false,
      "t": 274152.9780000007,
      "d": 800.4782343750121,
      "v": 108
    },
    {
      "midi": 69,
      "hit": false,
      "t": 274152.9780000007,
      "d": 807.6897500000196,
      "v": 112
    },
    {
      "midi": 53,
      "hit": false,
      "t": 274503.938427084,
      "d": 411.05639062501723,
      "v": 86
    },
    {
      "midi": 60,
      "hit": false,
      "t": 274835.668145834,
      "d": 139.4226354167331,
      "v": 59
    },
    {
      "midi": 46,
      "hit": false,
      "t": 275076.0520000007,
      "d": 584.1327656250214,
      "v": 99
    },
    {
      "midi": 62,
      "hit": false,
      "t": 275304.4166614591,
      "d": 242.78769270831253,
      "v": 117
    },
    {
      "midi": 70,
      "hit": false,
      "t": 275304.4166614591,
      "d": 257.21072395832743,
      "v": 123
    },
    {
      "midi": 65,
      "hit": false,
      "t": 275306.82050000073,
      "d": 262.01840104168514,
      "v": 123
    },
    {
      "midi": 58,
      "hit": false,
      "t": 275532.7813229174,
      "d": 55.28828645835165,
      "v": 56
    },
    {
      "midi": 65,
      "hit": false,
      "t": 275650.5694114591,
      "d": 40.86525520833675,
      "v": 95
    },
    {
      "midi": 70,
      "hit": false,
      "t": 275650.5694114591,
      "d": 57.6921250000014,
      "v": 82
    },
    {
      "midi": 62,
      "hit": false,
      "t": 275652.97325000074,
      "d": 38.461416666687,
      "v": 72
    },
    {
      "midi": 58,
      "hit": false,
      "t": 275881.3379114591,
      "d": 48.0767708333442,
      "v": 103
    },
    {
      "midi": 62,
      "hit": false,
      "t": 275996.7221614591,
      "d": 259.6145624999772,
      "v": 112
    },
    {
      "midi": 65,
      "hit": false,
      "t": 275999.12600000075,
      "d": 288.460625000007,
      "v": 117
    },
    {
      "midi": 70,
      "hit": false,
      "t": 275999.12600000075,
      "d": 293.2683020833647,
      "v": 103
    },
    {
      "midi": 46,
      "hit": false,
      "t": 276229.89450000075,
      "d": 144.2303124999744,
      "v": 95
    },
    {
      "midi": 70,
      "hit": false,
      "t": 276345.27875000075,
      "d": 153.8456666666316,
      "v": 82
    },
    {
      "midi": 65,
      "hit": false,
      "t": 276345.27875000075,
      "d": 182.69172916660318,
      "v": 103
    },
    {
      "midi": 62,
      "hit": false,
      "t": 276347.6825885424,
      "d": 127.40344270830974,
      "v": 99
    },
    {
      "midi": 74,
      "hit": false,
      "t": 276350.08642708405,
      "d": 134.6149583333172,
      "v": 86
    },
    {
      "midi": 58,
      "hit": false,
      "t": 276573.64341145905,
      "d": 40.86525520833675,
      "v": 112
    },
    {
      "midi": 62,
      "hit": false,
      "t": 276691.4315000007,
      "d": 103.36505729163764,
      "v": 103
    },
    {
      "midi": 74,
      "hit": false,
      "t": 276691.4315000007,
      "d": 168.2686979166465,
      "v": 117
    },
    {
      "midi": 65,
      "hit": false,
      "t": 276691.4315000007,
      "d": 213.94163020834094,
      "v": 117
    },
    {
      "midi": 70,
      "hit": false,
      "t": 276693.83533854235,
      "d": 213.94163020834094,
      "v": 90
    },
    {
      "midi": 62,
      "hit": false,
      "t": 276919.796161459,
      "d": 91.3458645833307,
      "v": 72
    },
    {
      "midi": 53,
      "hit": false,
      "t": 276924.60383854236,
      "d": 295.6721406249562,
      "v": 112
    },
    {
      "midi": 60,
      "hit": false,
      "t": 277148.16082291736,
      "d": 259.614562499919,
      "v": 103
    },
    {
      "midi": 65,
      "hit": false,
      "t": 277148.16082291736,
      "d": 286.0567864582408,
      "v": 112
    },
    {
      "midi": 69,
      "hit": false,
      "t": 277150.564661459,
      "d": 257.2107239582692,
      "v": 103
    },
    {
      "midi": 63,
      "hit": false,
      "t": 277150.564661459,
      "d": 293.2683020832483,
      "v": 108
    },
    {
      "midi": 41,
      "hit": false,
      "t": 277378.9293229173,
      "d": 274.0375937499921,
      "v": 99
    },
    {
      "midi": 65,
      "hit": false,
      "t": 277499.1212500006,
      "d": 45.67293229169445,
      "v": 95
    },
    {
      "midi": 60,
      "hit": false,
      "t": 277499.1212500006,
      "d": 48.0767708333442,
      "v": 95
    },
    {
      "midi": 63,
      "hit": false,
      "t": 277499.1212500006,
      "d": 57.6921250000014,
      "v": 103
    },
    {
      "midi": 69,
      "hit": false,
      "t": 277499.1212500006,
      "d": 62.4998020833591,
      "v": 90
    },
    {
      "midi": 53,
      "hit": false,
      "t": 277732.2935885423,
      "d": 38.461416666687,
      "v": 99
    },
    {
      "midi": 60,
      "hit": false,
      "t": 277845.2740000007,
      "d": 144.2303124999744,
      "v": 108
    },
    {
      "midi": 69,
      "hit": false,
      "t": 277845.2740000007,
      "d": 274.0375937499921,
      "v": 103
    },
    {
      "midi": 65,
      "hit": false,
      "t": 277845.2740000007,
      "d": 278.8452708333498,
      "v": 112
    },
    {
      "midi": 63,
      "hit": false,
      "t": 277845.2740000007,
      "d": 295.67214062501444,
      "v": 103
    },
    {
      "midi": 60,
      "hit": false,
      "t": 278071.2348229173,
      "d": 86.5381875000312,
      "v": 72
    },
    {
      "midi": 41,
      "hit": false,
      "t": 278080.850177084,
      "d": 139.4226354166749,
      "v": 108
    },
    {
      "midi": 60,
      "hit": false,
      "t": 278193.83058854233,
      "d": 194.71092187496834,
      "v": 99
    },
    {
      "midi": 69,
      "hit": false,
      "t": 278193.83058854233,
      "d": 201.92243749997579,
      "v": 99
    },
    {
      "midi": 63,
      "hit": false,
      "t": 278193.83058854233,
      "d": 233.17233854159713,
      "v": 90
    },
    {
      "midi": 65,
      "hit": false,
      "t": 278193.83058854233,
      "d": 247.59536979161203,
      "v": 103
    },
    {
      "midi": 53,
      "hit": false,
      "t": 278424.5990885423,
      "d": 55.28828645835165,
      "v": 117
    },
    {
      "midi": 60,
      "hit": false,
      "t": 278539.9833385423,
      "d": 103.36505729163764,
      "v": 108
    },
    {
      "midi": 65,
      "hit": false,
      "t": 278539.9833385423,
      "d": 105.76889583328739,
      "v": 123
    },
    {
      "midi": 69,
      "hit": false,
      "t": 278539.9833385423,
      "d": 110.57657291664509,
      "v": 112
    },
    {
      "midi": 63,
      "hit": false,
      "t": 278539.9833385423,
      "d": 112.98041145829484,
      "v": 117
    },
    {
      "midi": 34,
      "hit": false,
      "t": 278768.3480000006,
      "d": 396.6333593750023,
      "v": 108
    },
    {
      "midi": 46,
      "hit": false,
      "t": 278999.1165000006,
      "d": 163.461020833347,
      "v": 99
    },
    {
      "midi": 58,
      "hit": false,
      "t": 279227.48116145894,
      "d": 86.53818749997299,
      "v": 117
    },
    {
      "midi": 65,
      "hit": false,
      "t": 279229.8850000006,
      "d": 365.3834583333228,
      "v": 123
    },
    {
      "midi": 61,
      "hit": false,
      "t": 279229.8850000006,
      "d": 374.99881249998,
      "v": 123
    },
    {
      "midi": 58,
      "hit": false,
      "t": 279460.6535000006,
      "d": 117.78808854165254,
      "v": 99
    },
    {
      "midi": 34,
      "hit": false,
      "t": 279689.0181614589,
      "d": 379.8064895832795,
      "v": 90
    },
    {
      "midi": 46,
      "hit": false,
      "t": 279922.19050000055,
      "d": 93.74970312498044,
      "v": 90
    },
    {
      "midi": 58,
      "hit": false,
      "t": 280150.55516145885,
      "d": 86.53818749997299,
      "v": 117
    },
    {
      "midi": 66,
      "hit": false,
      "t": 280150.55516145885,
      "d": 360.57578124990687,
      "v": 123
    },
    {
      "midi": 63,
      "hit": false,
      "t": 280150.55516145885,
      "d": 389.42184374987846,
      "v": 117
    },
    {
      "midi": 58,
      "hit": false,
      "t": 280381.3236614588,
      "d": 93.74970312498044,
      "v": 99
    },
    {
      "midi": 34,
      "hit": false,
      "t": 280612.09216145874,
      "d": 314.90284895832883,
      "v": 90
    },
    {
      "midi": 46,
      "hit": false,
      "t": 280840.4568229171,
      "d": 170.67253645829624,
      "v": 99
    },
    {
      "midi": 58,
      "hit": false,
      "t": 281073.62916145875,
      "d": 88.94202604168095,
      "v": 117
    },
    {
      "midi": 61,
      "hit": false,
      "t": 281073.62916145875,
      "d": 353.36426562501583,
      "v": 123
    },
    {
      "midi": 65,
      "hit": false,
      "t": 281073.62916145875,
      "d": 353.36426562501583,
      "v": 127
    },
    {
      "midi": 58,
      "hit": false,
      "t": 281304.39766145876,
      "d": 108.17273437499534,
      "v": 95
    },
    {
      "midi": 39,
      "hit": false,
      "t": 281537.5700000004,
      "d": 252.40304687496973,
      "v": 99
    },
    {
      "midi": 51,
      "hit": false,
      "t": 281770.74233854207,
      "d": 117.78808854165254,
      "v": 108
    },
    {
      "midi": 58,
      "hit": false,
      "t": 281996.7031614587,
      "d": 74.51899479166605,
      "v": 117
    },
    {
      "midi": 66,
      "hit": false,
      "t": 281996.7031614587,
      "d": 353.3642656249576,
      "v": 112
    },
    {
      "midi": 63,
      "hit": false,
      "t": 281996.7031614587,
      "d": 389.42184374993667,
      "v": 117
    },
    {
      "midi": 58,
      "hit": false,
      "t": 282227.4716614587,
      "d": 103.36505729163764,
      "v": 86
    },
    {
      "midi": 42,
      "hit": false,
      "t": 282458.24016145867,
      "d": 524.0368020833121,
      "v": 99
    },
    {
      "midi": 58,
      "hit": false,
      "t": 282691.4125000003,
      "d": 72.1151562500163,
      "v": 117
    },
    {
      "midi": 66,
      "hit": false,
      "t": 282691.4125000003,
      "d": 237.98001562501304,
      "v": 103
    },
    {
      "midi": 70,
      "hit": false,
      "t": 282691.4125000003,
      "d": 237.98001562501304,
      "v": 117
    },
    {
      "midi": 61,
      "hit": false,
      "t": 282691.4125000003,
      "d": 249.99920833331998,
      "v": 123
    },
    {
      "midi": 61,
      "hit": false,
      "t": 283032.757572917,
      "d": 36.057578124979045,
      "v": 99
    },
    {
      "midi": 66,
      "hit": false,
      "t": 283035.1614114586,
      "d": 33.6537395833293,
      "v": 82
    },
    {
      "midi": 70,
      "hit": false,
      "t": 283035.1614114586,
      "d": 60.095963541651145,
      "v": 99
    },
    {
      "midi": 42,
      "hit": false,
      "t": 283265.92991145863,
      "d": 612.9788281248766,
      "v": 95
    },
    {
      "midi": 58,
      "hit": false,
      "t": 283378.910322917,
      "d": 112.98041145829484,
      "v": 112
    },
    {
      "midi": 66,
      "hit": false,
      "t": 283381.31416145863,
      "d": 247.59536979161203,
      "v": 108
    },
    {
      "midi": 70,
      "hit": false,
      "t": 283381.31416145863,
      "d": 266.8260781249264,
      "v": 112
    },
    {
      "midi": 61,
      "hit": false,
      "t": 283381.31416145863,
      "d": 278.84527083323337,
      "v": 117
    },
    {
      "midi": 58,
      "hit": false,
      "t": 283609.67882291693,
      "d": 81.73051041661529,
      "v": 70
    },
    {
      "midi": 54,
      "hit": false,
      "t": 283612.0826614586,
      "d": 81.73051041661529,
      "v": 70
    },
    {
      "midi": 70,
      "hit": false,
      "t": 283727.4669114585,
      "d": 55.28828645829344,
      "v": 82
    },
    {
      "midi": 66,
      "hit": false,
      "t": 283729.8707500002,
      "d": 33.6537395833293,
      "v": 57
    },
    {
      "midi": 54,
      "hit": false,
      "t": 283960.6392500002,
      "d": 38.461416666687,
      "v": 103
    },
    {
      "midi": 58,
      "hit": false,
      "t": 284076.0235000002,
      "d": 149.0379895833321,
      "v": 112
    },
    {
      "midi": 70,
      "hit": false,
      "t": 284076.0235000002,
      "d": 163.461020833347,
      "v": 112
    },
    {
      "midi": 66,
      "hit": false,
      "t": 284076.0235000002,
      "d": 173.0763750000042,
      "v": 103
    },
    {
      "midi": 61,
      "hit": false,
      "t": 284076.0235000002,
      "d": 187.4994062500191,
      "v": 117
    },
    {
      "midi": 41,
      "hit": false,
      "t": 284309.1958385419,
      "d": 487.979223958333,
      "v": 108
    },
    {
      "midi": 63,
      "hit": false,
      "t": 284537.56050000025,
      "d": 249.99920833331998,
      "v": 108
    },
    {
      "midi": 57,
      "hit": false,
      "t": 284539.9643385419,
      "d": 223.55698437499814,
      "v": 103
    },
    {
      "midi": 69,
      "hit": false,
      "t": 284539.9643385419,
      "d": 247.59536979167024,
      "v": 108
    },
    {
      "midi": 60,
      "hit": false,
      "t": 284539.9643385419,
      "d": 259.6145624999772,
      "v": 108
    },
    {
      "midi": 53,
      "hit": false,
      "t": 284765.92516145855,
      "d": 69.71131770830834,
      "v": 74
    },
    {
      "midi": 63,
      "hit": false,
      "t": 284883.7132500002,
      "d": 52.884447916643694,
      "v": 108
    },
    {
      "midi": 60,
      "hit": false,
      "t": 284883.7132500002,
      "d": 57.69212499994319,
      "v": 103
    },
    {
      "midi": 57,
      "hit": false,
      "t": 284886.11708854185,
      "d": 52.884447916643694,
      "v": 70
    },
    {
      "midi": 69,
      "hit": false,
      "t": 284886.11708854185,
      "d": 52.884447916643694,
      "v": 95
    },
    {
      "midi": 41,
      "hit": false,
      "t": 285116.8855885418,
      "d": 637.0172135416651,
      "v": 99
    },
    {
      "midi": 57,
      "hit": false,
      "t": 285232.2698385418,
      "d": 795.6705572916544,
      "v": 108
    },
    {
      "midi": 69,
      "hit": false,
      "t": 285232.2698385418,
      "d": 800.4782343750121,
      "v": 117
    },
    {
      "midi": 60,
      "hit": false,
      "t": 285232.2698385418,
      "d": 843.7473281249986,
      "v": 117
    },
    {
      "midi": 63,
      "hit": false,
      "t": 285232.2698385418,
      "d": 891.8240989583428,
      "v": 117
    },
    {
      "midi": 34,
      "hit": false,
      "t": 286150.53616145847,
      "d": 254.8068854166777,
      "v": 103
    },
    {
      "midi": 46,
      "hit": false,
      "t": 286383.7085000001,
      "d": 192.3070833333768,
      "v": 95
    },
    {
      "midi": 58,
      "hit": false,
      "t": 286612.0731614585,
      "d": 88.94202604168095,
      "v": 112
    },
    {
      "midi": 61,
      "hit": false,
      "t": 286612.0731614585,
      "d": 326.922041666694,
      "v": 112
    },
    {
      "midi": 65,
      "hit": false,
      "t": 286612.0731614585,
      "d": 326.922041666694,
      "v": 117
    },
    {
      "midi": 58,
      "hit": false,
      "t": 286840.43782291684,
      "d": 98.55738020833815,
      "v": 99
    },
    {
      "midi": 39,
      "hit": false,
      "t": 287068.8024843752,
      "d": 516.8252864583046,
      "v": 95
    },
    {
      "midi": 51,
      "hit": false,
      "t": 287304.3786614585,
      "d": 254.8068854166777,
      "v": 86
    },
    {
      "midi": 58,
      "hit": false,
      "t": 287532.74332291685,
      "d": 91.3458645833307,
      "v": 117
    },
    {
      "midi": 66,
      "hit": false,
      "t": 287532.74332291685,
      "d": 374.99881249998,
      "v": 112
    },
    {
      "midi": 63,
      "hit": false,
      "t": 287535.1471614585,
      "d": 439.9024531249888,
      "v": 108
    },
    {
      "midi": 58,
      "hit": false,
      "t": 287768.31950000016,
      "d": 117.78808854165254,
      "v": 95
    },
    {
      "midi": 34,
      "hit": false,
      "t": 287994.2803229168,
      "d": 341.3450729166507,
      "v": 103
    },
    {
      "midi": 46,
      "hit": false,
      "t": 288227.45266145846,
      "d": 170.67253645835444,
      "v": 95
    },
    {
      "midi": 58,
      "hit": false,
      "t": 288455.8173229168,
      "d": 60.095963541651145,
      "v": 108
    },
    {
      "midi": 61,
      "hit": false,
      "t": 288455.8173229168,
      "d": 249.99920833331998,
      "v": 112
    },
    {
      "midi": 65,
      "hit": false,
      "t": 288455.8173229168,
      "d": 326.9220416666358,
      "v": 108
    },
    {
      "midi": 58,
      "hit": false,
      "t": 288686.5858229168,
      "d": 86.53818749997299,
      "v": 86
    },
    {
      "midi": 39,
      "hit": false,
      "t": 288917.35432291677,
      "d": 391.8256822916446,
      "v": 95
    },
    {
      "midi": 51,
      "hit": false,
      "t": 289150.5266614584,
      "d": 199.51859895832604,
      "v": 90
    },
    {
      "midi": 58,
      "hit": false,
      "t": 289378.8913229167,
      "d": 60.095963541651145,
      "v": 108
    },
    {
      "midi": 66,
      "hit": false,
      "t": 289378.8913229167,
      "d": 362.97961979167303,
      "v": 112
    },
    {
      "midi": 63,
      "hit": false,
      "t": 289378.8913229167,
      "d": 430.2870989583316,
      "v": 117
    },
    {
      "midi": 58,
      "hit": false,
      "t": 289609.6598229167,
      "d": 110.57657291664509,
      "v": 62
    },
    {
      "midi": 34,
      "hit": false,
      "t": 289838.024484375,
      "d": 415.8640677083167,
      "v": 95
    },
    {
      "midi": 46,
      "hit": false,
      "t": 290071.1968229167,
      "d": 524.0368020833703,
      "v": 95
    },
    {
      "midi": 58,
      "hit": false,
      "t": 290301.9653229167,
      "d": 81.7305104166735,
      "v": 117
    },
    {
      "midi": 61,
      "hit": false,
      "t": 290301.9653229167,
      "d": 358.17194270837354,
      "v": 112
    },
    {
      "midi": 65,
      "hit": false,
      "t": 290301.9653229167,
      "d": 358.17194270837354,
      "v": 117
    },
    {
      "midi": 58,
      "hit": false,
      "t": 290532.7338229167,
      "d": 93.74970312503865,
      "v": 70
    },
    {
      "midi": 39,
      "hit": false,
      "t": 290763.5023229167,
      "d": 528.8444791666698,
      "v": 82
    },
    {
      "midi": 51,
      "hit": false,
      "t": 290999.0785,
      "d": 254.8068854166777,
      "v": 90
    },
    {
      "midi": 58,
      "hit": false,
      "t": 291227.44316145836,
      "d": 79.32667187502375,
      "v": 112
    },
    {
      "midi": 66,
      "hit": false,
      "t": 291227.44316145836,
      "d": 384.6141666666954,
      "v": 117
    },
    {
      "midi": 63,
      "hit": false,
      "t": 291227.44316145836,
      "d": 454.3254843750037,
      "v": 112
    },
    {
      "midi": 58,
      "hit": false,
      "t": 291460.6155000001,
      "d": 117.78808854165254,
      "v": 95
    },
    {
      "midi": 34,
      "hit": false,
      "t": 291686.5763229167,
      "d": 322.1143645832781,
      "v": 95
    },
    {
      "midi": 46,
      "hit": false,
      "t": 291922.1525,
      "d": 249.99920833326178,
      "v": 90
    },
    {
      "midi": 58,
      "hit": false,
      "t": 292150.5171614583,
      "d": 69.71131770830834,
      "v": 117
    },
    {
      "midi": 65,
      "hit": false,
      "t": 292150.5171614583,
      "d": 399.0371979166521,
      "v": 123
    },
    {
      "midi": 61,
      "hit": false,
      "t": 292152.921,
      "d": 391.8256822916446,
      "v": 117
    },
    {
      "midi": 58,
      "hit": false,
      "t": 292383.6895,
      "d": 127.40344270830974,
      "v": 86
    },
    {
      "midi": 39,
      "hit": false,
      "t": 292612.05416145833,
      "d": 262.01840104162693,
      "v": 99
    },
    {
      "midi": 51,
      "hit": false,
      "t": 292845.2265,
      "d": 129.8072812499595,
      "v": 99
    },
    {
      "midi": 58,
      "hit": false,
      "t": 293073.5911614583,
      "d": 74.51899479166605,
      "v": 112
    },
    {
      "midi": 66,
      "hit": false,
      "t": 293073.5911614583,
      "d": 367.7872968749725,
      "v": 117
    },
    {
      "midi": 63,
      "hit": false,
      "t": 293073.5911614583,
      "d": 396.6333593749441,
      "v": 117
    },
    {
      "midi": 58,
      "hit": false,
      "t": 293306.76349999994,
      "d": 108.17273437499534,
      "v": 72
    },
    {
      "midi": 42,
      "hit": false,
      "t": 293535.12816145824,
      "d": 680.286307291768,
      "v": 103
    },
    {
      "midi": 58,
      "hit": false,
      "t": 293765.89666145825,
      "d": 108.17273437499534,
      "v": 117
    },
    {
      "midi": 66,
      "hit": false,
      "t": 293765.89666145825,
      "d": 252.40304687502794,
      "v": 117
    },
    {
      "midi": 61,
      "hit": false,
      "t": 293765.89666145825,
      "d": 276.44143229170004,
      "v": 123
    },
    {
      "midi": 70,
      "hit": false,
      "t": 293765.89666145825,
      "d": 276.44143229170004,
      "v": 117
    },
    {
      "midi": 58,
      "hit": false,
      "t": 293994.2613229166,
      "d": 173.0763750000624,
      "v": 82
    },
    {
      "midi": 61,
      "hit": false,
      "t": 294114.45324999996,
      "d": 33.6537395833293,
      "v": 99
    },
    {
      "midi": 66,
      "hit": false,
      "t": 294114.45324999996,
      "d": 48.0767708333442,
      "v": 95
    },
    {
      "midi": 70,
      "hit": false,
      "t": 294114.45324999996,
      "d": 48.0767708333442,
      "v": 90
    },
    {
      "midi": 42,
      "hit": false,
      "t": 294345.22175,
      "d": 889.420260416693,
      "v": 95
    },
    {
      "midi": 58,
      "hit": false,
      "t": 294458.2021614584,
      "d": 526.44064062502,
      "v": 112
    },
    {
      "midi": 61,
      "hit": false,
      "t": 294458.2021614584,
      "d": 612.978828124993,
      "v": 123
    },
    {
      "midi": 70,
      "hit": false,
      "t": 294458.2021614584,
      "d": 730.7669166666456,
      "v": 117
    },
    {
      "midi": 66,
      "hit": false,
      "t": 294458.2021614584,
      "d": 769.2283333333326,
      "v": 123
    },
    {
      "midi": 58,
      "hit": false,
      "t": 295145.69998437504,
      "d": 64.90364062500885,
      "v": 61
    },
    {
      "midi": 61,
      "hit": false,
      "t": 295148.1038229167,
      "d": 88.94202604168095,
      "v": 52
    },
    {
      "midi": 41,
      "hit": false,
      "t": 295383.68000000005,
      "d": 509.61377083329717,
      "v": 95
    },
    {
      "midi": 60,
      "hit": false,
      "t": 295609.6408229167,
      "d": 120.19192708330229,
      "v": 117
    },
    {
      "midi": 65,
      "hit": false,
      "t": 295609.6408229167,
      "d": 252.40304687496973,
      "v": 117
    },
    {
      "midi": 63,
      "hit": false,
      "t": 295612.04466145835,
      "d": 257.21072395832743,
      "v": 108
    },
    {
      "midi": 69,
      "hit": false,
      "t": 295612.04466145835,
      "d": 257.21072395832743,
      "v": 112
    },
    {
      "midi": 53,
      "hit": false,
      "t": 295838.005484375,
      "d": 48.0767708333442,
      "v": 69
    },
    {
      "midi": 65,
      "hit": false,
      "t": 295953.389734375,
      "d": 45.67293229163624,
      "v": 99
    },
    {
      "midi": 63,
      "hit": false,
      "t": 295955.79357291665,
      "d": 40.86525520833675,
      "v": 95
    },
    {
      "midi": 69,
      "hit": false,
      "t": 295955.79357291665,
      "d": 43.269093749986496,
      "v": 82
    },
    {
      "midi": 41,
      "hit": false,
      "t": 296196.1774270833,
      "d": 658.6517604166293,
      "v": 90
    },
    {
      "midi": 60,
      "hit": false,
      "t": 296301.94632291666,
      "d": 100.96121874998789,
      "v": 112
    },
    {
      "midi": 65,
      "hit": false,
      "t": 296301.94632291666,
      "d": 269.2299166666344,
      "v": 117
    },
    {
      "midi": 69,
      "hit": false,
      "t": 296301.94632291666,
      "d": 278.8452708332916,
      "v": 117
    },
    {
      "midi": 63,
      "hit": false,
      "t": 296301.94632291666,
      "d": 288.4606249999488,
      "v": 108
    },
    {
      "midi": 60,
      "hit": false,
      "t": 296527.9071458333,
      "d": 86.53818749997299,
      "v": 78
    },
    {
      "midi": 65,
      "hit": false,
      "t": 296648.0990729166,
      "d": 40.86525520833675,
      "v": 108
    },
    {
      "midi": 63,
      "hit": false,
      "t": 296648.0990729166,
      "d": 48.0767708333442,
      "v": 108
    },
    {
      "midi": 69,
      "hit": false,
      "t": 296648.0990729166,
      "d": 57.6921250000014,
      "v": 95
    },
    {
      "midi": 65,
      "hit": false,
      "t": 296994.2518229166,
      "d": 158.6533437499893,
      "v": 103
    },
    {
      "midi": 69,
      "hit": false,
      "t": 296996.65566145827,
      "d": 146.63415104168234,
      "v": 95
    },
    {
      "midi": 60,
      "hit": false,
      "t": 296996.65566145827,
      "d": 153.8456666666898,
      "v": 103
    },
    {
      "midi": 63,
      "hit": false,
      "t": 296996.65566145827,
      "d": 185.09556770831114,
      "v": 108
    },
    {
      "midi": 34,
      "hit": false,
      "t": 297229.8279999999,
      "d": 437.4986145833391,
      "v": 99
    },
    {
      "midi": 58,
      "hit": false,
      "t": 297460.5964999999,
      "d": 298.0759791666642,
      "v": 112
    },
    {
      "midi": 61,
      "hit": false,
      "t": 297460.5964999999,
      "d": 360.5757812500233,
      "v": 117
    },
    {
      "midi": 65,
      "hit": false,
      "t": 297460.5964999999,
      "d": 389.4218437499949,
      "v": 123
    },
    {
      "midi": 46,
      "hit": false,
      "t": 297691.36499999993,
      "d": 290.8644635415985,
      "v": 99
    },
    {
      "midi": 65,
      "hit": false,
      "t": 297917.3258229166,
      "d": 33.6537395833293,
      "v": 99
    },
    {
      "midi": 58,
      "hit": false,
      "t": 297917.3258229166,
      "d": 36.057578124979045,
      "v": 69
    },
    {
      "midi": 61,
      "hit": false,
      "t": 297917.3258229166,
      "d": 48.07677083328599,
      "v": 86
    },
    {
      "midi": 39,
      "hit": false,
      "t": 298150.4981614582,
      "d": 627.4018593748915,
      "v": 99
    },
    {
      "midi": 58,
      "hit": false,
      "t": 298152.9019999998,
      "d": 235.57617708330508,
      "v": 112
    },
    {
      "midi": 66,
      "hit": false,
      "t": 298152.9019999998,
      "d": 240.3838541666628,
      "v": 123
    },
    {
      "midi": 63,
      "hit": false,
      "t": 298152.9019999998,
      "d": 264.4222395833349,
      "v": 112
    },
    {
      "midi": 66,
      "hit": false,
      "t": 298494.2470729165,
      "d": 52.884447916643694,
      "v": 95
    },
    {
      "midi": 63,
      "hit": false,
      "t": 298496.6509114581,
      "d": 26.442223958321847,
      "v": 78
    },
    {
      "midi": 58,
      "hit": false,
      "t": 298496.6509114581,
      "d": 36.057578124979045,
      "v": 72
    },
    {
      "midi": 51,
      "hit": false,
      "t": 298722.6117343748,
      "d": 52.884447916643694,
      "v": 112
    },
    {
      "midi": 66,
      "hit": false,
      "t": 298840.3998229164,
      "d": 228.36466145835584,
      "v": 108
    },
    {
      "midi": 58,
      "hit": false,
      "t": 298840.3998229164,
      "d": 249.99920833331998,
      "v": 103
    },
    {
      "midi": 63,
      "hit": false,
      "t": 298840.3998229164,
      "d": 343.7489114583004,
      "v": 112
    },
    {
      "midi": 34,
      "hit": false,
      "t": 299078.37983854144,
      "d": 396.6333593749441,
      "v": 103
    },
    {
      "midi": 58,
      "hit": false,
      "t": 299306.74449999974,
      "d": 247.59536979161203,
      "v": 112
    },
    {
      "midi": 65,
      "hit": false,
      "t": 299306.74449999974,
      "d": 266.8260781249264,
      "v": 123
    },
    {
      "midi": 61,
      "hit": false,
      "t": 299306.74449999974,
      "d": 271.63375520828413,
      "v": 123
    },
    {
      "midi": 46,
      "hit": false,
      "t": 299535.10916145804,
      "d": 269.2299166666344,
      "v": 99
    },
    {
      "midi": 61,
      "hit": false,
      "t": 299652.8972499997,
      "d": 43.269093749986496,
      "v": 95
    },
    {
      "midi": 58,
      "hit": false,
      "t": 299652.8972499997,
      "d": 48.0767708333442,
      "v": 74
    },
    {
      "midi": 65,
      "hit": false,
      "t": 299652.8972499997,
      "d": 48.0767708333442,
      "v": 103
    },
    {
      "midi": 39,
      "hit": false,
      "t": 299886.06958854134,
      "d": 526.44064062502,
      "v": 95
    },
    {
      "midi": 58,
      "hit": false,
      "t": 299996.646161458,
      "d": 108.17273437499534,
      "v": 112
    },
    {
      "midi": 66,
      "hit": false,
      "t": 299996.646161458,
      "d": 271.63375520834234,
      "v": 117
    },
    {
      "midi": 63,
      "hit": false,
      "t": 299996.646161458,
      "d": 286.05678645835724,
      "v": 117
    },
    {
      "midi": 58,
      "hit": false,
      "t": 300121.64576562465,
      "d": 91.3458645833307,
      "v": 67
    },
    {
      "midi": 51,
      "hit": false,
      "t": 300234.626177083,
      "d": 88.94202604168095,
      "v": 90
    },
    {
      "midi": 63,
      "hit": false,
      "t": 300345.2027499997,
      "d": 50.480609374993946,
      "v": 95
    },
    {
      "midi": 66,
      "hit": false,
      "t": 300345.2027499997,
      "d": 67.3074791666586,
      "v": 82
    },
    {
      "midi": 51,
      "hit": false,
      "t": 300578.37508854136,
      "d": 26.442223958321847,
      "v": 99
    },
    {
      "midi": 66,
      "hit": false,
      "t": 300691.35549999966,
      "d": 168.2686979166465,
      "v": 103
    },
    {
      "midi": 63,
      "hit": false,
      "t": 300691.35549999966,
      "d": 230.7685000000056,
      "v": 103
    },
    {
      "midi": 58,
      "hit": false,
      "t": 300691.35549999966,
      "d": 242.78769270831253,
      "v": 108
    },
    {
      "midi": 34,
      "hit": false,
      "t": 300922.12399999966,
      "d": 57.6921250000014,
      "v": 103
    },
    {
      "midi": 65,
      "hit": false,
      "t": 300922.12399999966,
      "d": 81.7305104166735,
      "v": 99
    },
    {
      "midi": 61,
      "hit": false,
      "t": 300922.12399999966,
      "d": 100.96121874998789,
      "v": 95
    },
    {
      "midi": 41,
      "hit": false,
      "t": 301383.6609999997,
      "d": 509.6137708333554,
      "v": 127
    },
    {
      "midi": 65,
      "hit": false,
      "t": 301383.6609999997,
      "d": 1302.88048958336,
      "v": 127
    },
    {
      "midi": 63,
      "hit": false,
      "t": 301383.6609999997,
      "d": 1314.899682291667,
      "v": 127
    },
    {
      "midi": 57,
      "hit": false,
      "t": 301383.6609999997,
      "d": 1322.1111979166744,
      "v": 127
    },
    {
      "midi": 60,
      "hit": false,
      "t": 301383.6609999997,
      "d": 1326.9188750000321,
      "v": 127
    },
    {
      "midi": 43,
      "hit": false,
      "t": 301845.1979999997,
      "d": 466.3446770833689,
      "v": 127
    },
    {
      "midi": 45,
      "hit": false,
      "t": 302304.33116145805,
      "d": 406.2487135416595,
      "v": 127
    },
    {
      "midi": 58,
      "hit": false,
      "t": 302768.2719999997,
      "d": 942.3047083333367,
      "v": 103
    },
    {
      "midi": 46,
      "hit": false,
      "t": 302768.2719999997,
      "d": 5454.309651041578,
      "v": 108
    },
    {
      "midi": 62,
      "hit": false,
      "t": 302770.67583854136,
      "d": 1237.9768489583512,
      "v": 117
    },
    {
      "midi": 70,
      "hit": false,
      "t": 302770.67583854136,
      "d": 1276.4382656250382,
      "v": 108
    },
    {
      "midi": 65,
      "hit": false,
      "t": 302770.67583854136,
      "d": 1762.0136510417215,
      "v": 117
    },
    {
      "midi": 58,
      "hit": false,
      "t": 303922.11449999973,
      "d": 1629.8025312499376,
      "v": 103
    },
    {
      "midi": 62,
      "hit": false,
      "t": 304152.88299999974,
      "d": 360.5757812500233,
      "v": 86
    },
    {
      "midi": 70,
      "hit": false,
      "t": 304152.88299999974,
      "d": 389.4218437499949,
      "v": 95
    },
    {
      "midi": 65,
      "hit": false,
      "t": 304612.01616145804,
      "d": 1307.6881666666013,
      "v": 108
    },
    {
      "midi": 62,
      "hit": false,
      "t": 304614.4199999997,
      "d": 1242.7845260416507,
      "v": 117
    },
    {
      "midi": 69,
      "hit": false,
      "t": 304614.4199999997,
      "d": 1293.2651354166446,
      "v": 112
    },
    {
      "midi": 58,
      "hit": false,
      "t": 305768.26249999966,
      "d": 1677.87930208334,
      "v": 72
    },
    {
      "midi": 62,
      "hit": false,
      "t": 305999.03099999967,
      "d": 346.1527500000084,
      "v": 117
    },
    {
      "midi": 65,
      "hit": false,
      "t": 305999.03099999967,
      "d": 396.6333593750023,
      "v": 108
    },
    {
      "midi": 69,
      "hit": false,
      "t": 305999.03099999967,
      "d": 420.6717447916744,
      "v": 103
    },
    {
      "midi": 62,
      "hit": false,
      "t": 306460.5679999997,
      "d": 1252.3998802083079,
      "v": 123
    },
    {
      "midi": 65,
      "hit": false,
      "t": 306460.5679999997,
      "d": 1288.457458333287,
      "v": 108
    },
    {
      "midi": 68,
      "hit": false,
      "t": 306460.5679999997,
      "d": 1300.4766510415939,
      "v": 99
    },
    {
      "midi": 58,
      "hit": false,
      "t": 307614.41049999965,
      "d": 624.9980208333,
      "v": 95
    },
    {
      "midi": 65,
      "hit": false,
      "t": 307845.1789999996,
      "d": 401.44103645836003,
      "v": 103
    },
    {
      "midi": 68,
      "hit": false,
      "t": 307845.1789999996,
      "d": 403.8448750000098,
      "v": 95
    },
    {
      "midi": 62,
      "hit": false,
      "t": 307845.1789999996,
      "d": 427.8832604166819,
      "v": 99
    },
    {
      "midi": 68,
      "hit": false,
      "t": 308309.11983854126,
      "d": 1478.3607031249558,
      "v": 103
    },
    {
      "midi": 71,
      "hit": false,
      "t": 308311.5236770829,
      "d": 1442.3031249999767,
      "v": 117
    },
    {
      "midi": 65,
      "hit": false,
      "t": 308313.92751562456,
      "d": 1487.9760572916712,
      "v": 103
    },
    {
      "midi": 62,
      "hit": false,
      "t": 308313.92751562456,
      "d": 1687.4946562499972,
      "v": 108
    },
    {
      "midi": 59,
      "hit": false,
      "t": 308313.92751562456,
      "d": 1778.840520833328,
      "v": 112
    },
    {
      "midi": 67,
      "hit": false,
      "t": 310152.86399999954,
      "d": 1627.3986927082879,
      "v": 108
    },
    {
      "midi": 63,
      "hit": false,
      "t": 310155.2678385412,
      "d": 1651.43707812496,
      "v": 108
    },
    {
      "midi": 60,
      "hit": false,
      "t": 310155.2678385412,
      "d": 1709.1292031249614,
      "v": 117
    },
    {
      "midi": 70,
      "hit": false,
      "t": 310157.67167708284,
      "d": 1689.898494791647,
      "v": 95
    },
    {
      "midi": 48,
      "hit": false,
      "t": 310157.67167708284,
      "d": 1723.5522343749763,
      "v": 112
    },
    {
      "midi": 63,
      "hit": false,
      "t": 311979.78129166615,
      "d": 1661.0524322916754,
      "v": 95
    },
    {
      "midi": 60,
      "hit": false,
      "t": 311982.1851302078,
      "d": 1485.5722187500214,
      "v": 103
    },
    {
      "midi": 70,
      "hit": false,
      "t": 311982.1851302078,
      "d": 1752.3982968750643,
      "v": 90
    },
    {
      "midi": 66,
      "hit": false,
      "t": 311986.99280729116,
      "d": 1725.9560729166842,
      "v": 95
    },
    {
      "midi": 48,
      "hit": false,
      "t": 311991.8004843745,
      "d": 1225.957656249986,
      "v": 108
    },
    {
      "midi": 65,
      "hit": false,
      "t": 313842.75616145786,
      "d": 252.40304687502794,
      "v": 103
    },
    {
      "midi": 53,
      "hit": false,
      "t": 313842.75616145786,
      "d": 262.01840104168514,
      "v": 123
    },
    {
      "midi": 69,
      "hit": false,
      "t": 314066.31314583286,
      "d": 240.3838541666628,
      "v": 112
    },
    {
      "midi": 77,
      "hit": false,
      "t": 314066.31314583286,
      "d": 245.1915312500205,
      "v": 112
    },
    {
      "midi": 75,
      "hit": false,
      "t": 314066.31314583286,
      "d": 276.44143229170004,
      "v": 117
    },
    {
      "midi": 72,
      "hit": false,
      "t": 314071.1208229162,
      "d": 274.0375937499921,
      "v": 117
    },
    {
      "midi": 53,
      "hit": false,
      "t": 314294.6778072912,
      "d": 117.78808854165254,
      "v": 108
    },
    {
      "midi": 65,
      "hit": false,
      "t": 314297.08164583286,
      "d": 103.36505729169585,
      "v": 95
    },
    {
      "midi": 75,
      "hit": false,
      "t": 314431.6966041662,
      "d": 36.057578124979045,
      "v": 95
    },
    {
      "midi": 69,
      "hit": false,
      "t": 314431.6966041662,
      "d": 43.269093749986496,
      "v": 99
    },
    {
      "midi": 77,
      "hit": false,
      "t": 314431.6966041662,
      "d": 45.67293229163624,
      "v": 99
    },
    {
      "midi": 72,
      "hit": false,
      "t": 314431.6966041662,
      "d": 48.07677083328599,
      "v": 112
    },
    {
      "midi": 53,
      "hit": false,
      "t": 314672.0804583328,
      "d": 91.3458645833307,
      "v": 108
    },
    {
      "midi": 65,
      "hit": false,
      "t": 314674.48429687443,
      "d": 79.32667187502375,
      "v": 117
    },
    {
      "midi": 69,
      "hit": false,
      "t": 314777.84935416613,
      "d": 204.32627604162553,
      "v": 117
    },
    {
      "midi": 75,
      "hit": false,
      "t": 314780.2531927078,
      "d": 240.38385416660458,
      "v": 117
    },
    {
      "midi": 77,
      "hit": false,
      "t": 314782.65703124943,
      "d": 213.94163020834094,
      "v": 117
    },
    {
      "midi": 72,
      "hit": false,
      "t": 314782.65703124943,
      "d": 237.98001562495483,
      "v": 117
    },
    {
      "midi": 65,
      "hit": false,
      "t": 314999.0024999994,
      "d": 81.73051041661529,
      "v": 103
    },
    {
      "midi": 53,
      "hit": false,
      "t": 315001.40633854107,
      "d": 88.94202604162274,
      "v": 99
    },
    {
      "midi": 75,
      "hit": false,
      "t": 315124.002104166,
      "d": 55.28828645835165,
      "v": 112
    },
    {
      "midi": 72,
      "hit": false,
      "t": 315124.002104166,
      "d": 64.90364062500885,
      "v": 123
    },
    {
      "midi": 69,
      "hit": false,
      "t": 315128.8097812494,
      "d": 62.49980208330089,
      "v": 103
    },
    {
      "midi": 77,
      "hit": false,
      "t": 315128.8097812494,
      "d": 84.13434895832324,
      "v": 112
    },
    {
      "midi": 53,
      "hit": false,
      "t": 315342.7514114577,
      "d": 84.13434895832324,
      "v": 99
    },
    {
      "midi": 65,
      "hit": false,
      "t": 315345.15524999937,
      "d": 79.32667187502375,
      "v": 108
    },
    {
      "midi": 75,
      "hit": false,
      "t": 315460.5394999994,
      "d": 242.78769270825433,
      "v": 112
    },
    {
      "midi": 69,
      "hit": false,
      "t": 315462.943338541,
      "d": 204.32627604162553,
      "v": 112
    },
    {
      "midi": 77,
      "hit": false,
      "t": 315465.3471770827,
      "d": 216.3454687499907,
      "v": 117
    },
    {
      "midi": 72,
      "hit": false,
      "t": 315465.3471770827,
      "d": 240.38385416660458,
      "v": 123
    },
    {
      "midi": 65,
      "hit": false,
      "t": 315691.3079999993,
      "d": 93.74970312498044,
      "v": 95
    },
    {
      "midi": 53,
      "hit": false,
      "t": 315691.3079999993,
      "d": 105.76889583328739,
      "v": 103
    },
    {
      "midi": 72,
      "hit": false,
      "t": 315830.73063541594,
      "d": 45.67293229163624,
      "v": 123
    },
    {
      "midi": 75,
      "hit": false,
      "t": 315830.73063541594,
      "d": 45.67293229163624,
      "v": 112
    },
    {
      "midi": 69,
      "hit": false,
      "t": 315833.1344739576,
      "d": 52.884447916643694,
      "v": 103
    },
    {
      "midi": 77,
      "hit": false,
      "t": 315835.53831249924,
      "d": 67.3074791666586,
      "v": 112
    },
    {
      "midi": 53,
      "hit": false,
      "t": 316037.4607499992,
      "d": 88.94202604162274,
      "v": 103
    },
    {
      "midi": 65,
      "hit": false,
      "t": 316039.86458854086,
      "d": 84.13434895832324,
      "v": 99
    },
    {
      "midi": 75,
      "hit": false,
      "t": 316155.2488385408,
      "d": 242.78769270831253,
      "v": 103
    },
    {
      "midi": 69,
      "hit": false,
      "t": 316157.65267708246,
      "d": 199.51859895832604,
      "v": 108
    },
    {
      "midi": 77,
      "hit": false,
      "t": 316157.65267708246,
      "d": 221.1531458333484,
      "v": 117
    },
    {
      "midi": 72,
      "hit": false,
      "t": 316160.0565156241,
      "d": 237.98001562501304,
      "v": 112
    },
    {
      "midi": 65,
      "hit": false,
      "t": 316388.42117708246,
      "d": 79.32667187496554,
      "v": 103
    },
    {
      "midi": 53,
      "hit": false,
      "t": 316388.42117708246,
      "d": 81.73051041661529,
      "v": 99
    },
    {
      "midi": 75,
      "hit": false,
      "t": 316503.8054270824,
      "d": 52.8844479167019,
      "v": 112
    },
    {
      "midi": 72,
      "hit": false,
      "t": 316503.8054270824,
      "d": 57.692125000059605,
      "v": 123
    },
    {
      "midi": 69,
      "hit": false,
      "t": 316506.20926562406,
      "d": 62.49980208341731,
      "v": 103
    },
    {
      "midi": 77,
      "hit": false,
      "t": 316511.0169427074,
      "d": 79.32667187508196,
      "v": 112
    },
    {
      "midi": 53,
      "hit": false,
      "t": 316710.53554166586,
      "d": 86.53818749997299,
      "v": 103
    },
    {
      "midi": 65,
      "hit": false,
      "t": 316712.9393802075,
      "d": 72.1151562500163,
      "v": 108
    },
    {
      "midi": 75,
      "hit": false,
      "t": 316835.5351458325,
      "d": 259.6145624999772,
      "v": 112
    },
    {
      "midi": 69,
      "hit": false,
      "t": 316837.93898437417,
      "d": 218.74930729164043,
      "v": 117
    },
    {
      "midi": 77,
      "hit": false,
      "t": 316840.3428229158,
      "d": 221.1531458333484,
      "v": 112
    },
    {
      "midi": 72,
      "hit": false,
      "t": 316842.74666145747,
      "d": 247.59536979167024,
      "v": 108
    },
    {
      "midi": 65,
      "hit": false,
      "t": 317073.5151614575,
      "d": 122.59576562501024,
      "v": 117
    },
    {
      "midi": 53,
      "hit": false,
      "t": 317073.5151614575,
      "d": 134.6149583333172,
      "v": 117
    },
    {
      "midi": 75,
      "hit": false,
      "t": 317287.4567916658,
      "d": 218.74930729158223,
      "v": 117
    },
    {
      "midi": 77,
      "hit": false,
      "t": 317289.86063020746,
      "d": 211.53779166663298,
      "v": 117
    },
    {
      "midi": 69,
      "hit": false,
      "t": 317289.86063020746,
      "d": 213.94163020828273,
      "v": 112
    },
    {
      "midi": 72,
      "hit": false,
      "t": 317292.2644687491,
      "d": 225.96082291658968,
      "v": 123
    },
    {
      "midi": 58,
      "hit": false,
      "t": 317537.455999999,
      "d": 1699.5138489583042,
      "v": 99
    },
    {
      "midi": 46,
      "hit": false,
      "t": 317537.455999999,
      "d": 1771.6290052083205,
      "v": 103
    },
    {
      "midi": 62,
      "hit": false,
      "t": 317539.85983854067,
      "d": 1718.7445572916768,
      "v": 108
    },
    {
      "midi": 70,
      "hit": false,
      "t": 317539.85983854067,
      "d": 1745.1867812499986,
      "v": 95
    },
    {
      "midi": 65,
      "hit": false,
      "t": 317539.85983854067,
      "d": 1749.9944583333563,
      "v": 103
    },
    {
      "midi": 46,
      "hit": false,
      "t": 319381.20016145735,
      "d": 3562.4887187499553,
      "v": 86
    },
    {
      "midi": 58,
      "hit": false,
      "t": 319383.603999999,
      "d": 971.1507708333083,
      "v": 108
    },
    {
      "midi": 62,
      "hit": false,
      "t": 319383.603999999,
      "d": 1230.7653333333437,
      "v": 123
    },
    {
      "midi": 65,
      "hit": false,
      "t": 319383.603999999,
      "d": 1276.4382656250382,
      "v": 103
    },
    {
      "midi": 69,
      "hit": false,
      "t": 319383.603999999,
      "d": 1278.842104166688,
      "v": 103
    },
    {
      "midi": 58,
      "hit": false,
      "t": 320532.6388229157,
      "d": 2346.1464166666265,
      "v": 103
    },
    {
      "midi": 62,
      "hit": false,
      "t": 320765.8111614573,
      "d": 362.97961979167303,
      "v": 103
    },
    {
      "midi": 65,
      "hit": false,
      "t": 320765.8111614573,
      "d": 420.6717447916744,
      "v": 99
    },
    {
      "midi": 69,
      "hit": false,
      "t": 320765.8111614573,
      "d": 435.09477604168933,
      "v": 103
    },
    {
      "midi": 65,
      "hit": false,
      "t": 321229.751999999,
      "d": 1730.7637499999837,
      "v": 99
    },
    {
      "midi": 62,
      "hit": false,
      "t": 321229.751999999,
      "d": 1745.1867812499986,
      "v": 123
    },
    {
      "midi": 68,
      "hit": false,
      "t": 321229.751999999,
      "d": 1757.2059739583055,
      "v": 108
    },
    {
      "midi": 62,
      "hit": false,
      "t": 323073.49616145727,
      "d": 1608.1679843749735,
      "v": 112
    },
    {
      "midi": 59,
      "hit": false,
      "t": 323073.49616145727,
      "d": 1677.8793020832818,
      "v": 117
    },
    {
      "midi": 65,
      "hit": false,
      "t": 323073.49616145727,
      "d": 1814.898098958307,
      "v": 103
    },
    {
      "midi": 47,
      "hit": false,
      "t": 323075.8999999989,
      "d": 1826.917291666672,
      "v": 117
    },
    {
      "midi": 68,
      "hit": false,
      "t": 324119.16592708224,
      "d": 524.0368020833121,
      "v": 74
    },
    {
      "midi": 67,
      "hit": false,
      "t": 324919.64416145725,
      "d": 1725.956072916626,
      "v": 103
    },
    {
      "midi": 48,
      "hit": false,
      "t": 324922.0479999989,
      "d": 1697.1100104166544,
      "v": 117
    },
    {
      "midi": 58,
      "hit": false,
      "t": 324922.0479999989,
      "d": 1716.3407187499688,
      "v": 103
    },
    {
      "midi": 63,
      "hit": false,
      "t": 324922.0479999989,
      "d": 1774.0328437499702,
      "v": 95
    },
    {
      "midi": 58,
      "hit": false,
      "t": 326763.38832291553,
      "d": 1653.840916666668,
      "v": 99
    },
    {
      "midi": 66,
      "hit": false,
      "t": 326763.38832291553,
      "d": 1745.1867812499986,
      "v": 108
    },
    {
      "midi": 63,
      "hit": false,
      "t": 326763.38832291553,
      "d": 1766.821328125021,
      "v": 103
    },
    {
      "midi": 48,
      "hit": false,
      "t": 326763.38832291553,
      "d": 1807.6865833333577,
      "v": 103
    },
    {
      "midi": 53,
      "hit": false,
      "t": 328611.9401614572,
      "d": 752.4014635416679,
      "v": 108
    },
    {
      "midi": 69,
      "hit": false,
      "t": 328845.1124999989,
      "d": 240.3838541666628,
      "v": 112
    },
    {
      "midi": 72,
      "hit": false,
      "t": 328845.1124999989,
      "d": 252.40304687496973,
      "v": 117
    },
    {
      "midi": 77,
      "hit": false,
      "t": 328847.51633854053,
      "d": 233.17233854165534,
      "v": 112
    },
    {
      "midi": 75,
      "hit": false,
      "t": 328847.51633854053,
      "d": 240.3838541666628,
      "v": 108
    },
    {
      "midi": 69,
      "hit": false,
      "t": 329188.8614114572,
      "d": 45.67293229169445,
      "v": 86
    },
    {
      "midi": 72,
      "hit": false,
      "t": 329188.8614114572,
      "d": 45.67293229169445,
      "v": 103
    },
    {
      "midi": 75,
      "hit": false,
      "t": 329188.8614114572,
      "d": 45.67293229169445,
      "v": 103
    },
    {
      "midi": 77,
      "hit": false,
      "t": 329188.8614114572,
      "d": 52.8844479167019,
      "v": 108
    },
    {
      "midi": 65,
      "hit": false,
      "t": 329422.0337499989,
      "d": 81.7305104166735,
      "v": 108
    },
    {
      "midi": 77,
      "hit": false,
      "t": 329532.61032291554,
      "d": 245.19153124996228,
      "v": 112
    },
    {
      "midi": 69,
      "hit": false,
      "t": 329535.0141614572,
      "d": 223.55698437499814,
      "v": 108
    },
    {
      "midi": 75,
      "hit": false,
      "t": 329535.0141614572,
      "d": 240.3838541666628,
      "v": 117
    },
    {
      "midi": 72,
      "hit": false,
      "t": 329535.0141614572,
      "d": 242.78769270831253,
      "v": 108
    },
    {
      "midi": 65,
      "hit": false,
      "t": 329765.7826614572,
      "d": 69.71131770830834,
      "v": 90
    },
    {
      "midi": 53,
      "hit": false,
      "t": 329765.7826614572,
      "d": 88.94202604162274,
      "v": 103
    },
    {
      "midi": 72,
      "hit": false,
      "t": 329878.7630729155,
      "d": 33.6537395833293,
      "v": 103
    },
    {
      "midi": 75,
      "hit": false,
      "t": 329878.7630729155,
      "d": 36.057578124979045,
      "v": 108
    },
    {
      "midi": 77,
      "hit": false,
      "t": 329878.7630729155,
      "d": 52.884447916643694,
      "v": 112
    },
    {
      "midi": 69,
      "hit": false,
      "t": 329881.16691145714,
      "d": 40.86525520833675,
      "v": 82
    },
    {
      "midi": 53,
      "hit": false,
      "t": 330114.3392499988,
      "d": 72.1151562500163,
      "v": 99
    },
    {
      "midi": 65,
      "hit": false,
      "t": 330114.3392499988,
      "d": 72.1151562500163,
      "v": 99
    },
    {
      "midi": 69,
      "hit": false,
      "t": 330227.31966145715,
      "d": 209.13395312498324,
      "v": 108
    },
    {
      "midi": 77,
      "hit": false,
      "t": 330227.31966145715,
      "d": 259.6145624999772,
      "v": 108
    },
    {
      "midi": 75,
      "hit": false,
      "t": 330227.31966145715,
      "d": 262.01840104162693,
      "v": 117
    },
    {
      "midi": 72,
      "hit": false,
      "t": 330229.7234999988,
      "d": 259.6145624999772,
      "v": 108
    },
    {
      "midi": 53,
      "hit": false,
      "t": 330458.08816145716,
      "d": 105.76889583328739,
      "v": 99
    },
    {
      "midi": 65,
      "hit": false,
      "t": 330460.4919999988,
      "d": 105.76889583328739,
      "v": 86
    },
    {
      "midi": 75,
      "hit": false,
      "t": 330575.87624999875,
      "d": 31.249901041621342,
      "v": 103
    },
    {
      "midi": 72,
      "hit": false,
      "t": 330575.87624999875,
      "d": 33.65373958327109,
      "v": 103
    },
    {
      "midi": 77,
      "hit": false,
      "t": 330575.87624999875,
      "d": 50.48060937493574,
      "v": 103
    },
    {
      "midi": 69,
      "hit": false,
      "t": 330578.2800885404,
      "d": 36.057578124979045,
      "v": 103
    },
    {
      "midi": 65,
      "hit": false,
      "t": 330804.24091145705,
      "d": 69.71131770830834,
      "v": 95
    },
    {
      "midi": 53,
      "hit": false,
      "t": 330804.24091145705,
      "d": 79.32667187496554,
      "v": 103
    },
    {
      "midi": 77,
      "hit": false,
      "t": 330917.22132291534,
      "d": 247.59536979161203,
      "v": 108
    },
    {
      "midi": 75,
      "hit": false,
      "t": 330917.22132291534,
      "d": 254.80688541661948,
      "v": 108
    },
    {
      "midi": 69,
      "hit": false,
      "t": 330919.625161457,
      "d": 216.3454687499907,
      "v": 103
    },
    {
      "midi": 72,
      "hit": false,
      "t": 330919.625161457,
      "d": 252.40304687496973,
      "v": 95
    },
    {
      "midi": 53,
      "hit": false,
      "t": 331152.79749999865,
      "d": 60.095963541651145,
      "v": 86
    },
    {
      "midi": 65,
      "hit": false,
      "t": 331152.79749999865,
      "d": 64.90364062500885,
      "v": 82
    },
    {
      "midi": 72,
      "hit": false,
      "t": 331265.777911457,
      "d": 40.86525520833675,
      "v": 103
    },
    {
      "midi": 75,
      "hit": false,
      "t": 331265.777911457,
      "d": 40.86525520833675,
      "v": 108
    },
    {
      "midi": 69,
      "hit": false,
      "t": 331265.777911457,
      "d": 50.480609374993946,
      "v": 95
    },
    {
      "midi": 77,
      "hit": false,
      "t": 331265.777911457,
      "d": 62.49980208330089,
      "v": 108
    },
    {
      "midi": 65,
      "hit": false,
      "t": 331494.1425729153,
      "d": 57.6921250000014,
      "v": 86
    },
    {
      "midi": 53,
      "hit": false,
      "t": 331494.1425729153,
      "d": 72.1151562500163,
      "v": 86
    },
    {
      "midi": 75,
      "hit": false,
      "t": 331609.5268229153,
      "d": 288.4606249999488,
      "v": 117
    },
    {
      "midi": 69,
      "hit": false,
      "t": 331611.93066145695,
      "d": 262.01840104162693,
      "v": 108
    },
    {
      "midi": 72,
      "hit": false,
      "t": 331611.93066145695,
      "d": 290.86446354165673,
      "v": 108
    },
    {
      "midi": 77,
      "hit": false,
      "t": 331611.93066145695,
      "d": 295.67214062501444,
      "v": 108
    },
    {
      "midi": 53,
      "hit": false,
      "t": 331845.1029999986,
      "d": 213.94163020834094,
      "v": 117
    },
    {
      "midi": 65,
      "hit": false,
      "t": 331847.50683854026,
      "d": 201.922437500034,
      "v": 117
    },
    {
      "midi": 69,
      "hit": false,
      "t": 332073.46766145696,
      "d": 199.51859895832604,
      "v": 117
    },
    {
      "midi": 77,
      "hit": false,
      "t": 332073.46766145696,
      "d": 209.13395312498324,
      "v": 117
    },
    {
      "midi": 75,
      "hit": false,
      "t": 332073.46766145696,
      "d": 216.3454687499907,
      "v": 123
    },
    {
      "midi": 72,
      "hit": false,
      "t": 332073.46766145696,
      "d": 218.74930729164043,
      "v": 127
    },
    {
      "midi": 58,
      "hit": false,
      "t": 332306.6399999986,
      "d": 355.7681041666656,
      "v": 112
    },
    {
      "midi": 70,
      "hit": false,
      "t": 332306.6399999986,
      "d": 605.7673124999856,
      "v": 117
    },
    {
      "midi": 62,
      "hit": false,
      "t": 332306.6399999986,
      "d": 610.5749895833433,
      "v": 123
    },
    {
      "midi": 46,
      "hit": false,
      "t": 332306.6399999986,
      "d": 646.6325677083223,
      "v": 112
    },
    {
      "midi": 65,
      "hit": false,
      "t": 332306.6399999986,
      "d": 668.2671145833447,
      "v": 123
    },
    {
      "midi": 60,
      "hit": false,
      "t": 333001.3493385403,
      "d": 963.9392552083009,
      "v": 117
    },
    {
      "midi": 63,
      "hit": false,
      "t": 333001.3493385403,
      "d": 1014.4198645832948,
      "v": 123
    },
    {
      "midi": 41,
      "hit": false,
      "t": 333003.75317708193,
      "d": 673.0747916666442,
      "v": 117
    },
    {
      "midi": 53,
      "hit": false,
      "t": 333003.75317708193,
      "d": 995.1891562499804,
      "v": 108
    },
    {
      "midi": 68,
      "hit": false,
      "t": 333003.75317708193,
      "d": 1021.6313802083023,
      "v": 108
    },
    {
      "midi": 58,
      "hit": false,
      "t": 334155.19183854025,
      "d": 319.71052604168653,
      "v": 103
    },
    {
      "midi": 62,
      "hit": false,
      "t": 334155.19183854025,
      "d": 492.7869010416907,
      "v": 117
    },
    {
      "midi": 70,
      "hit": false,
      "t": 334155.19183854025,
      "d": 555.2867031250498,
      "v": 112
    },
    {
      "midi": 46,
      "hit": false,
      "t": 334155.19183854025,
      "d": 557.6905416666996,
      "v": 112
    },
    {
      "midi": 65,
      "hit": false,
      "t": 334155.19183854025,
      "d": 564.902057291707,
      "v": 103
    },
    {
      "midi": 41,
      "hit": false,
      "t": 334845.0934999986,
      "d": 704.3246927083237,
      "v": 123
    },
    {
      "midi": 60,
      "hit": false,
      "t": 334845.0934999986,
      "d": 985.5738020833232,
      "v": 112
    },
    {
      "midi": 53,
      "hit": false,
      "t": 334845.0934999986,
      "d": 1024.0352187500102,
      "v": 108
    },
    {
      "midi": 63,
      "hit": false,
      "t": 334845.0934999986,
      "d": 1028.842895833368,
      "v": 117
    },
    {
      "midi": 68,
      "hit": false,
      "t": 334845.0934999986,
      "d": 1043.2659270833828,
      "v": 112
    },
    {
      "midi": 62,
      "hit": false,
      "t": 335996.532161457,
      "d": 548.0751874999842,
      "v": 123
    },
    {
      "midi": 65,
      "hit": false,
      "t": 335996.532161457,
      "d": 584.1327656250214,
      "v": 112
    },
    {
      "midi": 58,
      "hit": false,
      "t": 335998.93599999865,
      "d": 312.4990104166791,
      "v": 99
    },
    {
      "midi": 46,
      "hit": false,
      "t": 335998.93599999865,
      "d": 576.921250000014,
      "v": 117
    },
    {
      "midi": 70,
      "hit": false,
      "t": 335998.93599999865,
      "d": 600.9596354166861,
      "v": 112
    },
    {
      "midi": 41,
      "hit": false,
      "t": 336688.837661457,
      "d": 762.0168177083251,
      "v": 117
    },
    {
      "midi": 53,
      "hit": false,
      "t": 336688.837661457,
      "d": 1043.2659270833246,
      "v": 103
    },
    {
      "midi": 60,
      "hit": false,
      "t": 336691.24149999866,
      "d": 971.1507708333666,
      "v": 103
    },
    {
      "midi": 63,
      "hit": false,
      "t": 336691.24149999866,
      "d": 1012.0160260417033,
      "v": 112
    },
    {
      "midi": 68,
      "hit": false,
      "t": 336691.24149999866,
      "d": 1048.0736041666823,
      "v": 117
    },
    {
      "midi": 58,
      "hit": false,
      "t": 337842.680161457,
      "d": 305.28749479167163,
      "v": 108
    },
    {
      "midi": 62,
      "hit": false,
      "t": 337842.680161457,
      "d": 552.8828645833419,
      "v": 123
    },
    {
      "midi": 46,
      "hit": false,
      "t": 337842.680161457,
      "d": 572.1135729166563,
      "v": 112
    },
    {
      "midi": 65,
      "hit": false,
      "t": 337842.680161457,
      "d": 572.1135729166563,
      "v": 117
    },
    {
      "midi": 70,
      "hit": false,
      "t": 337845.08399999863,
      "d": 576.921250000014,
      "v": 108
    },
    {
      "midi": 41,
      "hit": false,
      "t": 338534.985661457,
      "d": 689.9016614583088,
      "v": 117
    },
    {
      "midi": 53,
      "hit": false,
      "t": 338534.985661457,
      "d": 1007.2083489582874,
      "v": 103
    },
    {
      "midi": 60,
      "hit": false,
      "t": 338537.38949999865,
      "d": 889.4202604166348,
      "v": 103
    },
    {
      "midi": 63,
      "hit": false,
      "t": 338537.38949999865,
      "d": 899.035614583292,
      "v": 117
    },
    {
      "midi": 68,
      "hit": false,
      "t": 338537.38949999865,
      "d": 1026.43905729166,
      "v": 112
    },
    {
      "midi": 70,
      "hit": false,
      "t": 339688.828161457,
      "d": 733.1707552082953,
      "v": 108
    },
    {
      "midi": 62,
      "hit": false,
      "t": 339688.828161457,
      "d": 749.99762499996,
      "v": 112
    },
    {
      "midi": 46,
      "hit": false,
      "t": 339688.828161457,
      "d": 774.036010416632,
      "v": 108
    },
    {
      "midi": 65,
      "hit": false,
      "t": 339688.828161457,
      "d": 790.8628802082967,
      "v": 123
    },
    {
      "midi": 58,
      "hit": false,
      "t": 339691.2319999986,
      "d": 367.7872968749725,
      "v": 108
    },
    {
      "midi": 60,
      "hit": false,
      "t": 340609.4983229153,
      "d": 663.459437499987,
      "v": 123
    },
    {
      "midi": 63,
      "hit": false,
      "t": 340609.4983229153,
      "d": 735.5745937500033,
      "v": 117
    },
    {
      "midi": 69,
      "hit": false,
      "t": 340609.4983229153,
      "d": 759.6129791666754,
      "v": 112
    },
    {
      "midi": 65,
      "hit": false,
      "t": 340609.4983229153,
      "d": 800.4782343750121,
      "v": 123
    },
    {
      "midi": 41,
      "hit": false,
      "t": 340611.90216145694,
      "d": 437.4986145833391,
      "v": 117
    },
    {
      "midi": 53,
      "hit": false,
      "t": 340611.90216145694,
      "d": 776.43984895834,
      "v": 112
    },
    {
      "midi": 62,
      "hit": false,
      "t": 341534.97616145696,
      "d": 288.460625000007,
      "v": 123
    },
    {
      "midi": 65,
      "hit": false,
      "t": 341534.97616145696,
      "d": 466.3446770833689,
      "v": 117
    },
    {
      "midi": 70,
      "hit": false,
      "t": 341534.97616145696,
      "d": 483.1715468750335,
      "v": 117
    },
    {
      "midi": 58,
      "hit": false,
      "t": 341537.3799999986,
      "d": 367.78729687503073,
      "v": 112
    },
    {
      "midi": 46,
      "hit": false,
      "t": 341537.3799999986,
      "d": 487.97922395839123,
      "v": 108
    },
    {
      "midi": 62,
      "hit": false,
      "t": 341994.1093229153,
      "d": 108.17273437499534,
      "v": 74
    },
    {
      "midi": 41,
      "hit": false,
      "t": 342227.281661457,
      "d": 290.86446354165673,
      "v": 117
    },
    {
      "midi": 68,
      "hit": false,
      "t": 342227.281661457,
      "d": 877.4010677082697,
      "v": 112
    },
    {
      "midi": 63,
      "hit": false,
      "t": 342227.281661457,
      "d": 884.6125833332771,
      "v": 117
    },
    {
      "midi": 60,
      "hit": false,
      "t": 342227.281661457,
      "d": 983.1699635416153,
      "v": 117
    },
    {
      "midi": 53,
      "hit": false,
      "t": 342229.6854999986,
      "d": 432.6909374999814,
      "v": 112
    },
    {
      "midi": 41,
      "hit": false,
      "t": 342686.4148229153,
      "d": 247.59536979161203,
      "v": 123
    },
    {
      "midi": 53,
      "hit": false,
      "t": 342921.9909999986,
      "d": 350.9604270833661,
      "v": 127
    },
    {
      "midi": 46,
      "hit": false,
      "t": 343381.12416145694,
      "d": 531.2483177083195,
      "v": 117
    },
    {
      "midi": 70,
      "hit": false,
      "t": 343383.5279999986,
      "d": 538.459833333327,
      "v": 108
    },
    {
      "midi": 62,
      "hit": false,
      "t": 343383.5279999986,
      "d": 543.2675104166847,
      "v": 108
    },
    {
      "midi": 65,
      "hit": false,
      "t": 343383.5279999986,
      "d": 545.6713489583344,
      "v": 112
    },
    {
      "midi": 58,
      "hit": false,
      "t": 343837.8534843736,
      "d": 67.3074791666586,
      "v": 108
    },
    {
      "midi": 41,
      "hit": false,
      "t": 344071.02582291525,
      "d": 459.1331614583614,
      "v": 117
    },
    {
      "midi": 68,
      "hit": false,
      "t": 344071.02582291525,
      "d": 932.6893541667378,
      "v": 117
    },
    {
      "midi": 60,
      "hit": false,
      "t": 344071.02582291525,
      "d": 999.9968333333964,
      "v": 112
    },
    {
      "midi": 63,
      "hit": false,
      "t": 344071.02582291525,
      "d": 1052.88128125004,
      "v": 117
    },
    {
      "midi": 53,
      "hit": false,
      "t": 344534.966661457,
      "d": 242.78769270837074,
      "v": 127
    },
    {
      "midi": 41,
      "hit": false,
      "t": 344763.3313229153,
      "d": 201.922437500034,
      "v": 117
    },
    {
      "midi": 53,
      "hit": false,
      "t": 344994.09982291533,
      "d": 103.36505729163764,
      "v": 108
    },
    {
      "midi": 46,
      "hit": false,
      "t": 345224.8683229153,
      "d": 254.80688541661948,
      "v": 112
    },
    {
      "midi": 62,
      "hit": false,
      "t": 345224.8683229153,
      "d": 579.3250885416637,
      "v": 103
    },
    {
      "midi": 70,
      "hit": false,
      "t": 345224.8683229153,
      "d": 581.7289270833135,
      "v": 112
    },
    {
      "midi": 65,
      "hit": false,
      "t": 345224.8683229153,
      "d": 596.1519583332702,
      "v": 117
    },
    {
      "midi": 58,
      "hit": false,
      "t": 345450.8291458319,
      "d": 295.67214062501444,
      "v": 108
    },
    {
      "midi": 46,
      "hit": false,
      "t": 345684.0014843736,
      "d": 124.99960416665999,
      "v": 108
    },
    {
      "midi": 41,
      "hit": false,
      "t": 345917.17382291524,
      "d": 468.7485156249604,
      "v": 127
    },
    {
      "midi": 60,
      "hit": false,
      "t": 345917.17382291524,
      "d": 975.9584479166078,
      "v": 108
    },
    {
      "midi": 68,
      "hit": false,
      "t": 345919.5776614569,
      "d": 908.6509687500075,
      "v": 117
    },
    {
      "midi": 63,
      "hit": false,
      "t": 345919.5776614569,
      "d": 930.2855156249716,
      "v": 117
    },
    {
      "midi": 53,
      "hit": false,
      "t": 346383.51849999855,
      "d": 139.4226354166749,
      "v": 123
    },
    {
      "midi": 44,
      "hit": false,
      "t": 346614.28699999856,
      "d": 209.13395312498324,
      "v": 117
    },
    {
      "midi": 56,
      "hit": false,
      "t": 346840.2478229152,
      "d": 134.6149583333172,
      "v": 108
    },
    {
      "midi": 46,
      "hit": false,
      "t": 347071.0163229152,
      "d": 372.59497395833023,
      "v": 117
    },
    {
      "midi": 62,
      "hit": false,
      "t": 347071.0163229152,
      "d": 533.6521562499693,
      "v": 103
    },
    {
      "midi": 70,
      "hit": false,
      "t": 347071.0163229152,
      "d": 552.8828645832837,
      "v": 108
    },
    {
      "midi": 65,
      "hit": false,
      "t": 347073.42016145686,
      "d": 569.7097343749483,
      "v": 117
    },
    {
      "midi": 58,
      "hit": false,
      "t": 347301.7848229152,
      "d": 132.21111979166744,
      "v": 103
    },
    {
      "midi": 41,
      "hit": false,
      "t": 347996.4941614568,
      "d": 454.3254843750037,
      "v": 127
    },
    {
      "midi": 60,
      "hit": false,
      "t": 347996.4941614568,
      "d": 555.2867031249916,
      "v": 112
    },
    {
      "midi": 69,
      "hit": false,
      "t": 347996.4941614568,
      "d": 557.6905416666414,
      "v": 117
    },
    {
      "midi": 65,
      "hit": false,
      "t": 347996.4941614568,
      "d": 572.1135729166563,
      "v": 117
    },
    {
      "midi": 63,
      "hit": false,
      "t": 347996.4941614568,
      "d": 574.517411458306,
      "v": 112
    },
    {
      "midi": 62,
      "hit": false,
      "t": 348919.5681614568,
      "d": 5516.809453124937,
      "v": 117
    },
    {
      "midi": 70,
      "hit": false,
      "t": 348919.5681614568,
      "d": 5519.213291666587,
      "v": 108
    },
    {
      "midi": 46,
      "hit": false,
      "t": 348919.5681614568,
      "d": 5533.636322916602,
      "v": 112
    },
    {
      "midi": 58,
      "hit": false,
      "t": 348921.97199999844,
      "d": 5499.982583333331,
      "v": 117
    },
    {
      "midi": 65,
      "hit": false,
      "t": 348921.97199999844,
      "d": 5512.001776041638,
      "v": 123
    },
    {
      "midi": 46,
      "hit": false,
      "t": 393215.1009687484,
      "d": 778.8436874999898,
      "v": 117
    },
    {
      "midi": 58,
      "hit": false,
      "t": 393474.71553124837,
      "d": 555.2867031249916,
      "v": 72
    },
    {
      "midi": 62,
      "hit": false,
      "t": 393662.2149374984,
      "d": 100.96121874998789,
      "v": 127
    },
    {
      "midi": 70,
      "hit": false,
      "t": 393664.61877604004,
      "d": 382.2103281249874,
      "v": 127
    },
    {
      "midi": 65,
      "hit": false,
      "t": 393664.61877604004,
      "d": 391.8256822916446,
      "v": 127
    },
    {
      "midi": 62,
      "hit": false,
      "t": 393912.2141458317,
      "d": 110.57657291664509,
      "v": 99
    },
    {
      "midi": 46,
      "hit": false,
      "t": 394142.98264583165,
      "d": 798.0743958333624,
      "v": 99
    },
    {
      "midi": 58,
      "hit": false,
      "t": 394407.404885415,
      "d": 314.90284895832883,
      "v": 72
    },
    {
      "midi": 62,
      "hit": false,
      "t": 394614.1349999983,
      "d": 86.53818749997299,
      "v": 127
    },
    {
      "midi": 70,
      "hit": false,
      "t": 394614.1349999983,
      "d": 343.74891145835863,
      "v": 123
    },
    {
      "midi": 65,
      "hit": false,
      "t": 394614.1349999983,
      "d": 346.1527500000084,
      "v": 127
    },
    {
      "midi": 62,
      "hit": false,
      "t": 394861.73036979,
      "d": 100.96121874998789,
      "v": 99
    },
    {
      "midi": 38,
      "hit": false,
      "t": 395085.287354165,
      "d": 745.1899479166605,
      "v": 117
    },
    {
      "midi": 50,
      "hit": false,
      "t": 395316.055854165,
      "d": 555.2867031249916,
      "v": 103
    },
    {
      "midi": 57,
      "hit": false,
      "t": 395522.7859687483,
      "d": 81.7305104166735,
      "v": 127
    },
    {
      "midi": 66,
      "hit": false,
      "t": 395522.7859687483,
      "d": 350.9604270833079,
      "v": 123
    },
    {
      "midi": 62,
      "hit": false,
      "t": 395522.7859687483,
      "d": 353.3642656249576,
      "v": 127
    },
    {
      "midi": 60,
      "hit": false,
      "t": 395527.5936458317,
      "d": 346.1527499999502,
      "v": 123
    },
    {
      "midi": 57,
      "hit": false,
      "t": 395760.76598437334,
      "d": 91.3458645833307,
      "v": 86
    },
    {
      "midi": 38,
      "hit": false,
      "t": 395986.72680728993,
      "d": 437.4986145833391,
      "v": 103
    },
    {
      "midi": 50,
      "hit": false,
      "t": 396229.51449999824,
      "d": 637.0172135416651,
      "v": 103
    },
    {
      "midi": 66,
      "hit": false,
      "t": 396438.6484531233,
      "d": 353.3642656249576,
      "v": 117
    },
    {
      "midi": 57,
      "hit": false,
      "t": 396441.05229166494,
      "d": 81.7305104166735,
      "v": 123
    },
    {
      "midi": 60,
      "hit": false,
      "t": 396441.05229166494,
      "d": 367.7872968749725,
      "v": 123
    },
    {
      "midi": 62,
      "hit": false,
      "t": 396443.4561302066,
      "d": 353.36426562501583,
      "v": 117
    },
    {
      "midi": 69,
      "hit": false,
      "t": 396448.26380728994,
      "d": 281.24910937499953,
      "v": 103
    },
    {
      "midi": 57,
      "hit": false,
      "t": 396695.8591770816,
      "d": 67.3074791666586,
      "v": 61
    },
    {
      "midi": 55,
      "hit": false,
      "t": 396698.26301562326,
      "d": 45.67293229169445,
      "v": 63
    },
    {
      "midi": 43,
      "hit": false,
      "t": 396900.18545312324,
      "d": 771.6321718749823,
      "v": 103
    },
    {
      "midi": 55,
      "hit": false,
      "t": 397152.58849999827,
      "d": 572.1135729165981,
      "v": 103
    },
    {
      "midi": 58,
      "hit": false,
      "t": 397378.5493229149,
      "d": 86.53818749997299,
      "v": 123
    },
    {
      "midi": 62,
      "hit": false,
      "t": 397380.95316145656,
      "d": 365.3834583333228,
      "v": 127
    },
    {
      "midi": 67,
      "hit": false,
      "t": 397383.3569999982,
      "d": 329.32588020834373,
      "v": 123
    },
    {
      "midi": 58,
      "hit": false,
      "t": 397592.4909531232,
      "d": 115.3842500000028,
      "v": 66
    },
    {
      "midi": 43,
      "hit": false,
      "t": 397811.2402604149,
      "d": 860.5741979166633,
      "v": 108
    },
    {
      "midi": 55,
      "hit": false,
      "t": 398073.2586614566,
      "d": 550.4790260416339,
      "v": 99
    },
    {
      "midi": 67,
      "hit": false,
      "t": 398289.6041302066,
      "d": 358.1719427083153,
      "v": 123
    },
    {
      "midi": 62,
      "hit": false,
      "t": 398292.0079687482,
      "d": 225.96082291664788,
      "v": 123
    },
    {
      "midi": 58,
      "hit": false,
      "t": 398294.4118072899,
      "d": 64.90364062500885,
      "v": 117
    },
    {
      "midi": 58,
      "hit": false,
      "t": 398503.54576041485,
      "d": 141.82647395838285,
      "v": 82
    },
    {
      "midi": 41,
      "hit": false,
      "t": 398741.52577603987,
      "d": 848.5550052082399,
      "v": 108
    },
    {
      "midi": 53,
      "hit": false,
      "t": 398984.3134687482,
      "d": 545.6713489582762,
      "v": 108
    },
    {
      "midi": 56,
      "hit": false,
      "t": 399210.2742916648,
      "d": 74.51899479160784,
      "v": 123
    },
    {
      "midi": 65,
      "hit": false,
      "t": 399212.6781302065,
      "d": 348.55658854165813,
      "v": 117
    },
    {
      "midi": 63,
      "hit": false,
      "t": 399212.6781302065,
      "d": 382.2103281249874,
      "v": 112
    },
    {
      "midi": 60,
      "hit": false,
      "t": 399215.0819687481,
      "d": 362.97961979167303,
      "v": 127
    },
    {
      "midi": 56,
      "hit": false,
      "t": 399438.6389531231,
      "d": 100.96121874998789,
      "v": 78
    },
    {
      "midi": 46,
      "hit": false,
      "t": 399700.6573541648,
      "d": 889.420260416693,
      "v": 103
    },
    {
      "midi": 56,
      "hit": false,
      "t": 399900.17595312314,
      "d": 48.0767708333442,
      "v": 59
    },
    {
      "midi": 62,
      "hit": false,
      "t": 400138.15596874815,
      "d": 365.3834583333228,
      "v": 123
    },
    {
      "midi": 58,
      "hit": false,
      "t": 400138.15596874815,
      "d": 389.4218437499949,
      "v": 123
    },
    {
      "midi": 56,
      "hit": false,
      "t": 400142.9636458315,
      "d": 69.71131770830834,
      "v": 123
    },
    {
      "midi": 65,
      "hit": false,
      "t": 400142.9636458315,
      "d": 317.3066874999786,
      "v": 117
    },
    {
      "midi": 56,
      "hit": false,
      "t": 400354.50143749814,
      "d": 100.96121874998789,
      "v": 78
    },
    {
      "midi": 39,
      "hit": false,
      "t": 400614.1159999982,
      "d": 757.2091406249092,
      "v": 103
    },
    {
      "midi": 51,
      "hit": false,
      "t": 400832.8653072898,
      "d": 579.3250885416055,
      "v": 99
    },
    {
      "midi": 63,
      "hit": false,
      "t": 401051.61461458146,
      "d": 420.6717447916162,
      "v": 117
    },
    {
      "midi": 58,
      "hit": false,
      "t": 401054.0184531231,
      "d": 281.24910937499953,
      "v": 123
    },
    {
      "midi": 67,
      "hit": false,
      "t": 401054.0184531231,
      "d": 377.4026510416297,
      "v": 123
    },
    {
      "midi": 55,
      "hit": false,
      "t": 401260.74856770644,
      "d": 180.28789062495343,
      "v": 99
    },
    {
      "midi": 39,
      "hit": false,
      "t": 401529.9784843731,
      "d": 564.902057291707,
      "v": 86
    },
    {
      "midi": 58,
      "hit": false,
      "t": 401541.9976770814,
      "d": 67.3074791666586,
      "v": 53
    },
    {
      "midi": 63,
      "hit": false,
      "t": 401763.15082291473,
      "d": 28.846062500029802,
      "v": 58
    },
    {
      "midi": 58,
      "hit": false,
      "t": 401767.9584999981,
      "d": 21.63454687502235,
      "v": 55
    },
    {
      "midi": 55,
      "hit": false,
      "t": 401979.4962916648,
      "d": 84.13434895832324,
      "v": 127
    },
    {
      "midi": 58,
      "hit": false,
      "t": 401979.4962916648,
      "d": 281.24910937499953,
      "v": 123
    },
    {
      "midi": 51,
      "hit": false,
      "t": 401979.4962916648,
      "d": 322.1143645833363,
      "v": 103
    },
    {
      "midi": 63,
      "hit": false,
      "t": 401979.4962916648,
      "d": 406.2487135416595,
      "v": 117
    },
    {
      "midi": 67,
      "hit": false,
      "t": 401986.7078072898,
      "d": 350.9604270833079,
      "v": 117
    },
    {
      "midi": 55,
      "hit": false,
      "t": 402217.4763072898,
      "d": 110.57657291664509,
      "v": 82
    },
    {
      "midi": 58,
      "hit": false,
      "t": 402344.8797499981,
      "d": 69.71131770830834,
      "v": 66
    },
    {
      "midi": 41,
      "hit": false,
      "t": 402469.87935416476,
      "d": 737.978432291653,
      "v": 95
    },
    {
      "midi": 53,
      "hit": false,
      "t": 402693.43633853976,
      "d": 569.7097343750065,
      "v": 99
    },
    {
      "midi": 65,
      "hit": false,
      "t": 402900.1664531231,
      "d": 346.1527500000084,
      "v": 123
    },
    {
      "midi": 60,
      "hit": false,
      "t": 402900.1664531231,
      "d": 370.1911354166805,
      "v": 127
    },
    {
      "midi": 63,
      "hit": false,
      "t": 402900.1664531231,
      "d": 379.8064895833377,
      "v": 117
    },
    {
      "midi": 57,
      "hit": false,
      "t": 402902.57029166474,
      "d": 67.3074791666586,
      "v": 112
    },
    {
      "midi": 57,
      "hit": false,
      "t": 403133.33879166475,
      "d": 98.55738020833815,
      "v": 90
    },
    {
      "midi": 41,
      "hit": false,
      "t": 403366.5111302064,
      "d": 437.4986145833391,
      "v": 86
    },
    {
      "midi": 65,
      "hit": false,
      "t": 403816.02893749805,
      "d": 382.2103281249292,
      "v": 117
    },
    {
      "midi": 57,
      "hit": false,
      "t": 403820.8366145814,
      "d": 64.90364062495064,
      "v": 117
    },
    {
      "midi": 63,
      "hit": false,
      "t": 403820.8366145814,
      "d": 185.09556770831114,
      "v": 112
    },
    {
      "midi": 60,
      "hit": false,
      "t": 403820.8366145814,
      "d": 365.38345833326457,
      "v": 127
    },
    {
      "midi": 53,
      "hit": false,
      "t": 403832.8558072897,
      "d": 336.537395833293,
      "v": 95
    },
    {
      "midi": 57,
      "hit": false,
      "t": 404034.7782447897,
      "d": 112.98041145835305,
      "v": 86
    },
    {
      "midi": 63,
      "hit": false,
      "t": 404150.1624947897,
      "d": 69.71131770830834,
      "v": 66
    },
    {
      "midi": 46,
      "hit": false,
      "t": 404282.37361458136,
      "d": 622.5941822917084,
      "v": 108
    },
    {
      "midi": 70,
      "hit": false,
      "t": 404525.1613072897,
      "d": 247.59536979172844,
      "v": 123
    },
    {
      "midi": 62,
      "hit": false,
      "t": 404529.96898437303,
      "d": 91.3458645833307,
      "v": 117
    },
    {
      "midi": 65,
      "hit": false,
      "t": 404529.96898437303,
      "d": 252.40304687502794,
      "v": 117
    },
    {
      "midi": 58,
      "hit": false,
      "t": 404700.6415208314,
      "d": 228.36466145835584,
      "v": 99
    },
    {
      "midi": 62,
      "hit": false,
      "t": 404717.46839062305,
      "d": 57.6921250000014,
      "v": 70
    },
    {
      "midi": 70,
      "hit": false,
      "t": 404859.2948645814,
      "d": 52.8844479167019,
      "v": 90
    },
    {
      "midi": 65,
      "hit": false,
      "t": 404864.10254166473,
      "d": 38.461416666687,
      "v": 99
    },
    {
      "midi": 46,
      "hit": false,
      "t": 405092.4672031231,
      "d": 742.7861093749525,
      "v": 103
    },
    {
      "midi": 62,
      "hit": false,
      "t": 405210.25529166474,
      "d": 76.9228333333158,
      "v": 117
    },
    {
      "midi": 70,
      "hit": false,
      "t": 405210.25529166474,
      "d": 254.80688541661948,
      "v": 123
    },
    {
      "midi": 65,
      "hit": false,
      "t": 405212.6591302064,
      "d": 269.2299166666344,
      "v": 123
    },
    {
      "midi": 62,
      "hit": false,
      "t": 405421.7930833314,
      "d": 98.55738020833815,
      "v": 108
    },
    {
      "midi": 70,
      "hit": false,
      "t": 405561.21571874805,
      "d": 57.6921250000014,
      "v": 82
    },
    {
      "midi": 65,
      "hit": false,
      "t": 405566.0233958314,
      "d": 43.269093749986496,
      "v": 86
    },
    {
      "midi": 58,
      "hit": false,
      "t": 405746.31128645636,
      "d": 55.28828645835165,
      "v": 108
    },
    {
      "midi": 62,
      "hit": false,
      "t": 405895.3492760397,
      "d": 149.0379895833321,
      "v": 103
    },
    {
      "midi": 65,
      "hit": false,
      "t": 405895.3492760397,
      "d": 189.90324479166884,
      "v": 117
    },
    {
      "midi": 70,
      "hit": false,
      "t": 405895.3492760397,
      "d": 197.1147604166763,
      "v": 108
    },
    {
      "midi": 44,
      "hit": false,
      "t": 405965.060593748,
      "d": 33.6537395833293,
      "v": 54
    },
    {
      "midi": 62,
      "hit": false,
      "t": 406123.71393749805,
      "d": 72.11515624995809,
      "v": 66
    },
    {
      "midi": 41,
      "hit": false,
      "t": 406135.73313020635,
      "d": 675.4786302082939,
      "v": 117
    },
    {
      "midi": 65,
      "hit": false,
      "t": 406368.905468748,
      "d": 245.1915312500205,
      "v": 123
    },
    {
      "midi": 60,
      "hit": false,
      "t": 406368.905468748,
      "d": 254.8068854166777,
      "v": 123
    },
    {
      "midi": 69,
      "hit": false,
      "t": 406371.30930728966,
      "d": 249.9992083333782,
      "v": 123
    },
    {
      "midi": 63,
      "hit": false,
      "t": 406371.30930728966,
      "d": 259.6145625000354,
      "v": 123
    },
    {
      "midi": 53,
      "hit": false,
      "t": 406575.63558333134,
      "d": 252.40304687496973,
      "v": 86
    },
    {
      "midi": 65,
      "hit": false,
      "t": 406691.01983333135,
      "d": 45.67293229163624,
      "v": 108
    },
    {
      "midi": 69,
      "hit": false,
      "t": 406693.423671873,
      "d": 81.7305104166735,
      "v": 103
    },
    {
      "midi": 60,
      "hit": false,
      "t": 406700.635187498,
      "d": 38.46141666662879,
      "v": 86
    },
    {
      "midi": 63,
      "hit": false,
      "t": 406700.635187498,
      "d": 43.269093749986496,
      "v": 95
    },
    {
      "midi": 41,
      "hit": false,
      "t": 406960.249749998,
      "d": 627.4018593750079,
      "v": 103
    },
    {
      "midi": 60,
      "hit": false,
      "t": 407049.19177603966,
      "d": 74.51899479160784,
      "v": 117
    },
    {
      "midi": 65,
      "hit": false,
      "t": 407049.19177603966,
      "d": 264.42223958321847,
      "v": 117
    },
    {
      "midi": 63,
      "hit": false,
      "t": 407051.5956145813,
      "d": 278.84527083323337,
      "v": 117
    },
    {
      "midi": 69,
      "hit": false,
      "t": 407053.99945312296,
      "d": 257.2107239582692,
      "v": 112
    },
    {
      "midi": 60,
      "hit": false,
      "t": 407251.1142135396,
      "d": 74.51899479160784,
      "v": 99
    },
    {
      "midi": 65,
      "hit": false,
      "t": 407395.34452603955,
      "d": 40.865255208394956,
      "v": 103
    },
    {
      "midi": 69,
      "hit": false,
      "t": 407395.34452603955,
      "d": 62.49980208341731,
      "v": 103
    },
    {
      "midi": 63,
      "hit": false,
      "t": 407400.1522031229,
      "d": 48.076770833402406,
      "v": 99
    },
    {
      "midi": 60,
      "hit": false,
      "t": 407404.95988020627,
      "d": 38.461416666687,
      "v": 82
    },
    {
      "midi": 53,
      "hit": false,
      "t": 407626.1130260397,
      "d": 374.99881249998,
      "v": 103
    },
    {
      "midi": 60,
      "hit": false,
      "t": 407753.516468748,
      "d": 153.8456666666898,
      "v": 112
    },
    {
      "midi": 69,
      "hit": false,
      "t": 407760.727984373,
      "d": 185.09556770836934,
      "v": 112
    },
    {
      "midi": 65,
      "hit": false,
      "t": 407760.727984373,
      "d": 192.3070833333768,
      "v": 117
    },
    {
      "midi": 63,
      "hit": false,
      "t": 407760.727984373,
      "d": 204.32627604168374,
      "v": 117
    },
    {
      "midi": 46,
      "hit": false,
      "t": 407998.707999998,
      "d": 733.1707552082953,
      "v": 117
    },
    {
      "midi": 58,
      "hit": false,
      "t": 408229.476499998,
      "d": 531.2483177082613,
      "v": 112
    },
    {
      "midi": 62,
      "hit": false,
      "t": 408460.244999998,
      "d": 76.9228333333158,
      "v": 117
    },
    {
      "midi": 65,
      "hit": false,
      "t": 408460.244999998,
      "d": 317.3066874999204,
      "v": 123
    },
    {
      "midi": 70,
      "hit": false,
      "t": 408460.244999998,
      "d": 317.3066874999204,
      "v": 117
    },
    {
      "midi": 62,
      "hit": false,
      "t": 408688.6096614563,
      "d": 88.94202604162274,
      "v": 90
    },
    {
      "midi": 46,
      "hit": false,
      "t": 408921.7819999979,
      "d": 543.2675104166847,
      "v": 90
    },
    {
      "midi": 58,
      "hit": false,
      "t": 409152.5504999979,
      "d": 254.8068854166777,
      "v": 95
    },
    {
      "midi": 62,
      "hit": false,
      "t": 409380.9151614563,
      "d": 81.7305104166735,
      "v": 117
    },
    {
      "midi": 65,
      "hit": false,
      "t": 409380.9151614563,
      "d": 319.71052604168653,
      "v": 127
    },
    {
      "midi": 70,
      "hit": false,
      "t": 409380.9151614563,
      "d": 324.51820312504424,
      "v": 117
    },
    {
      "midi": 62,
      "hit": false,
      "t": 409611.6836614563,
      "d": 96.1535416666884,
      "v": 103
    },
    {
      "midi": 38,
      "hit": false,
      "t": 409842.4521614563,
      "d": 774.0360104166903,
      "v": 117
    },
    {
      "midi": 50,
      "hit": false,
      "t": 410073.2206614563,
      "d": 579.3250885417219,
      "v": 117
    },
    {
      "midi": 60,
      "hit": false,
      "t": 410303.9891614563,
      "d": 74.51899479166605,
      "v": 123
    },
    {
      "midi": 66,
      "hit": false,
      "t": 410303.9891614563,
      "d": 223.55698437499814,
      "v": 123
    },
    {
      "midi": 69,
      "hit": false,
      "t": 410303.9891614563,
      "d": 322.1143645833363,
      "v": 127
    },
    {
      "midi": 62,
      "hit": false,
      "t": 410303.9891614563,
      "d": 343.74891145835863,
      "v": 123
    },
    {
      "midi": 60,
      "hit": false,
      "t": 410537.16149999795,
      "d": 72.1151562500163,
      "v": 82
    },
    {
      "midi": 66,
      "hit": false,
      "t": 410544.37301562296,
      "d": 48.0767708333442,
      "v": 47
    },
    {
      "midi": 38,
      "hit": false,
      "t": 410765.52616145636,
      "d": 372.59497395833023,
      "v": 108
    },
    {
      "midi": 50,
      "hit": false,
      "t": 410998.698499998,
      "d": 581.7289270832553,
      "v": 103
    },
    {
      "midi": 60,
      "hit": false,
      "t": 411227.0631614564,
      "d": 76.9228333333158,
      "v": 127
    },
    {
      "midi": 62,
      "hit": false,
      "t": 411227.0631614564,
      "d": 194.71092187496834,
      "v": 127
    },
    {
      "midi": 69,
      "hit": false,
      "t": 411229.466999998,
      "d": 312.4990104166209,
      "v": 127
    },
    {
      "midi": 66,
      "hit": false,
      "t": 411229.466999998,
      "d": 331.7297187499353,
      "v": 127
    },
    {
      "midi": 60,
      "hit": false,
      "t": 411455.4278229147,
      "d": 86.53818749997299,
      "v": 82
    },
    {
      "midi": 62,
      "hit": false,
      "t": 411568.40823437297,
      "d": 50.480609374993946,
      "v": 69
    },
    {
      "midi": 43,
      "hit": false,
      "t": 411688.60016145627,
      "d": 632.2095364583074,
      "v": 117
    },
    {
      "midi": 58,
      "hit": false,
      "t": 411924.1763385396,
      "d": 230.7685000000056,
      "v": 123
    },
    {
      "midi": 62,
      "hit": false,
      "t": 411924.1763385396,
      "d": 242.78769270831253,
      "v": 127
    },
    {
      "midi": 67,
      "hit": false,
      "t": 411924.1763385396,
      "d": 245.19153124996228,
      "v": 123
    },
    {
      "midi": 55,
      "hit": false,
      "t": 412152.54099999793,
      "d": 132.21111979160924,
      "v": 72
    },
    {
      "midi": 62,
      "hit": false,
      "t": 412263.1175729145,
      "d": 52.8844479167019,
      "v": 103
    },
    {
      "midi": 67,
      "hit": false,
      "t": 412263.1175729145,
      "d": 62.49980208341731,
      "v": 99
    },
    {
      "midi": 43,
      "hit": false,
      "t": 412498.69374999794,
      "d": 721.1515624999302,
      "v": 103
    },
    {
      "midi": 58,
      "hit": false,
      "t": 412611.6741614563,
      "d": 84.13434895832324,
      "v": 112
    },
    {
      "midi": 67,
      "hit": false,
      "t": 412611.6741614563,
      "d": 252.40304687496973,
      "v": 127
    },
    {
      "midi": 62,
      "hit": false,
      "t": 412614.07799999794,
      "d": 242.78769270831253,
      "v": 123
    },
    {
      "midi": 58,
      "hit": false,
      "t": 412837.63498437294,
      "d": 69.71131770830834,
      "v": 70
    },
    {
      "midi": 62,
      "hit": false,
      "t": 412955.4230729146,
      "d": 31.249901041621342,
      "v": 99
    },
    {
      "midi": 67,
      "hit": false,
      "t": 412957.82691145624,
      "d": 40.86525520827854,
      "v": 78
    },
    {
      "midi": 55,
      "hit": false,
      "t": 413186.19157291454,
      "d": 38.461416666687,
      "v": 117
    },
    {
      "midi": 58,
      "hit": false,
      "t": 413301.57582291454,
      "d": 115.3842500000028,
      "v": 108
    },
    {
      "midi": 67,
      "hit": false,
      "t": 413301.57582291454,
      "d": 168.2686979166465,
      "v": 112
    },
    {
      "midi": 62,
      "hit": false,
      "t": 413303.9796614562,
      "d": 175.48021354165394,
      "v": 123
    },
    {
      "midi": 41,
      "hit": false,
      "t": 413534.7481614562,
      "d": 569.7097343750647,
      "v": 123
    },
    {
      "midi": 60,
      "hit": false,
      "t": 413765.5166614562,
      "d": 266.82607812504284,
      "v": 117
    },
    {
      "midi": 68,
      "hit": false,
      "t": 413765.5166614562,
      "d": 269.2299166666926,
      "v": 123
    },
    {
      "midi": 63,
      "hit": false,
      "t": 413765.5166614562,
      "d": 276.44143229170004,
      "v": 123
    },
    {
      "midi": 53,
      "hit": false,
      "t": 413993.88132291456,
      "d": 305.28749479172984,
      "v": 103
    },
    {
      "midi": 63,
      "hit": false,
      "t": 414109.2655729146,
      "d": 55.28828645835165,
      "v": 117
    },
    {
      "midi": 68,
      "hit": false,
      "t": 414109.2655729146,
      "d": 62.4998020833591,
      "v": 112
    },
    {
      "midi": 60,
      "hit": false,
      "t": 414111.66941145627,
      "d": 38.461416666687,
      "v": 95
    },
    {
      "midi": 46,
      "hit": false,
      "t": 414349.6494270813,
      "d": 336.537395833293,
      "v": 108
    },
    {
      "midi": 56,
      "hit": false,
      "t": 414460.2259999979,
      "d": 86.53818749997299,
      "v": 95
    },
    {
      "midi": 62,
      "hit": false,
      "t": 414460.2259999979,
      "d": 230.7685000000056,
      "v": 123
    },
    {
      "midi": 58,
      "hit": false,
      "t": 414460.2259999979,
      "d": 249.99920833331998,
      "v": 117
    },
    {
      "midi": 65,
      "hit": false,
      "t": 414462.6298385396,
      "d": 230.7685000000056,
      "v": 66
    },
    {
      "midi": 65,
      "hit": false,
      "t": 414799.16723437293,
      "d": 36.057578124979045,
      "v": 82
    },
    {
      "midi": 58,
      "hit": false,
      "t": 414799.16723437293,
      "d": 45.67293229163624,
      "v": 82
    },
    {
      "midi": 62,
      "hit": false,
      "t": 414801.5710729146,
      "d": 26.442223958321847,
      "v": 90
    },
    {
      "midi": 46,
      "hit": false,
      "t": 414926.57067708124,
      "d": 355.7681041666656,
      "v": 112
    },
    {
      "midi": 56,
      "hit": false,
      "t": 415145.3199843729,
      "d": 74.51899479166605,
      "v": 108
    },
    {
      "midi": 65,
      "hit": false,
      "t": 415145.3199843729,
      "d": 177.8840520833619,
      "v": 103
    },
    {
      "midi": 62,
      "hit": false,
      "t": 415145.3199843729,
      "d": 223.55698437505635,
      "v": 123
    },
    {
      "midi": 58,
      "hit": false,
      "t": 415145.3199843729,
      "d": 358.17194270843174,
      "v": 117
    },
    {
      "midi": 51,
      "hit": false,
      "t": 415383.29999999795,
      "d": 735.5745937500033,
      "v": 108
    },
    {
      "midi": 58,
      "hit": false,
      "t": 415609.26082291466,
      "d": 271.63375520828413,
      "v": 117
    },
    {
      "midi": 63,
      "hit": false,
      "t": 415609.26082291466,
      "d": 274.0375937499339,
      "v": 117
    },
    {
      "midi": 67,
      "hit": false,
      "t": 415611.6646614563,
      "d": 266.82607812498463,
      "v": 117
    },
    {
      "midi": 63,
      "hit": false,
      "t": 415957.81741145626,
      "d": 36.057578124979045,
      "v": 90
    },
    {
      "midi": 67,
      "hit": false,
      "t": 415960.2212499979,
      "d": 38.461416666687,
      "v": 90
    },
    {
      "midi": 39,
      "hit": false,
      "t": 416299.16248437297,
      "d": 516.8252864583628,
      "v": 108
    },
    {
      "midi": 58,
      "hit": false,
      "t": 416303.9701614563,
      "d": 141.82647395832464,
      "v": 112
    },
    {
      "midi": 63,
      "hit": false,
      "t": 416303.9701614563,
      "d": 225.96082291664788,
      "v": 117
    },
    {
      "midi": 67,
      "hit": false,
      "t": 416303.9701614563,
      "d": 233.17233854165534,
      "v": 112
    },
    {
      "midi": 63,
      "hit": false,
      "t": 416645.315234373,
      "d": 31.24990104167955,
      "v": 99
    },
    {
      "midi": 58,
      "hit": false,
      "t": 416645.315234373,
      "d": 38.461416666687,
      "v": 86
    },
    {
      "midi": 67,
      "hit": false,
      "t": 416647.7190729146,
      "d": 21.63454687502235,
      "v": 66
    },
    {
      "midi": 51,
      "hit": false,
      "t": 416876.083734373,
      "d": 43.269093749986496,
      "v": 117
    },
    {
      "midi": 67,
      "hit": false,
      "t": 416993.87182291463,
      "d": 206.7301145833335,
      "v": 117
    },
    {
      "midi": 63,
      "hit": false,
      "t": 416993.87182291463,
      "d": 314.9028489582706,
      "v": 117
    },
    {
      "midi": 58,
      "hit": false,
      "t": 416996.2756614563,
      "d": 276.44143229164183,
      "v": 123
    },
    {
      "midi": 41,
      "hit": false,
      "t": 417229.44799999794,
      "d": 423.0755833333242,
      "v": 123
    },
    {
      "midi": 65,
      "hit": false,
      "t": 417455.4088229146,
      "d": 235.5761770833633,
      "v": 117
    },
    {
      "midi": 57,
      "hit": false,
      "t": 417457.81266145624,
      "d": 105.7688958333456,
      "v": 112
    },
    {
      "midi": 63,
      "hit": false,
      "t": 417457.81266145624,
      "d": 221.1531458333484,
      "v": 112
    },
    {
      "midi": 60,
      "hit": false,
      "t": 417457.81266145624,
      "d": 257.21072395838564,
      "v": 117
    },
    {
      "midi": 57,
      "hit": false,
      "t": 417681.36964583123,
      "d": 103.36505729175406,
      "v": 62
    },
    {
      "midi": 53,
      "hit": false,
      "t": 417686.1773229146,
      "d": 74.51899479172425,
      "v": 99
    },
    {
      "midi": 60,
      "hit": false,
      "t": 417801.56157291465,
      "d": 40.86525520833675,
      "v": 95
    },
    {
      "midi": 63,
      "hit": false,
      "t": 417801.56157291465,
      "d": 45.67293229169445,
      "v": 108
    },
    {
      "midi": 65,
      "hit": false,
      "t": 417801.56157291465,
      "d": 55.28828645835165,
      "v": 112
    },
    {
      "midi": 41,
      "hit": false,
      "t": 418041.9454270813,
      "d": 608.1711510415771,
      "v": 108
    },
    {
      "midi": 57,
      "hit": false,
      "t": 418152.52199999796,
      "d": 67.3074791666586,
      "v": 108
    },
    {
      "midi": 65,
      "hit": false,
      "t": 418152.52199999796,
      "d": 206.7301145833335,
      "v": 117
    },
    {
      "midi": 63,
      "hit": false,
      "t": 418152.52199999796,
      "d": 209.13395312498324,
      "v": 123
    },
    {
      "midi": 60,
      "hit": false,
      "t": 418152.52199999796,
      "d": 252.40304687496973,
      "v": 123
    },
    {
      "midi": 57,
      "hit": false,
      "t": 418380.88666145626,
      "d": 115.3842500000028,
      "v": 95
    },
    {
      "midi": 60,
      "hit": false,
      "t": 418498.6747499979,
      "d": 33.6537395833293,
      "v": 99
    },
    {
      "midi": 63,
      "hit": false,
      "t": 418498.6747499979,
      "d": 33.6537395833293,
      "v": 117
    },
    {
      "midi": 65,
      "hit": false,
      "t": 418498.6747499979,
      "d": 48.0767708333442,
      "v": 117
    },
    {
      "midi": 53,
      "hit": false,
      "t": 418727.0394114562,
      "d": 100.96121874998789,
      "v": 103
    },
    {
      "midi": 57,
      "hit": false,
      "t": 418844.82749999786,
      "d": 112.98041145835305,
      "v": 108
    },
    {
      "midi": 63,
      "hit": false,
      "t": 418844.82749999786,
      "d": 168.2686979167047,
      "v": 117
    },
    {
      "midi": 65,
      "hit": false,
      "t": 418844.82749999786,
      "d": 168.2686979167047,
      "v": 117
    },
    {
      "midi": 60,
      "hit": false,
      "t": 418844.82749999786,
      "d": 295.67214062507264,
      "v": 117
    },
    {
      "midi": 46,
      "hit": false,
      "t": 419077.9998385396,
      "d": 266.82607812504284,
      "v": 123
    },
    {
      "midi": 62,
      "hit": false,
      "t": 419303.9606614563,
      "d": 161.05718229169725,
      "v": 127
    },
    {
      "midi": 65,
      "hit": false,
      "t": 419303.9606614563,
      "d": 170.67253645835444,
      "v": 112
    },
    {
      "midi": 58,
      "hit": false,
      "t": 419306.36449999793,
      "d": 100.9612187500461,
      "v": 117
    },
    {
      "midi": 58,
      "hit": false,
      "t": 419529.921484373,
      "d": 69.71131770830834,
      "v": 66
    },
    {
      "midi": 46,
      "hit": false,
      "t": 419532.32532291464,
      "d": 182.6917291666614,
      "v": 112
    },
    {
      "midi": 70,
      "hit": false,
      "t": 419996.2661614563,
      "d": 185.09556770831114,
      "v": 99
    },
    {
      "midi": 65,
      "hit": false,
      "t": 419996.2661614563,
      "d": 213.94163020828273,
      "v": 108
    },
    {
      "midi": 62,
      "hit": false,
      "t": 419996.2661614563,
      "d": 266.82607812498463,
      "v": 117
    },
    {
      "midi": 58,
      "hit": false,
      "t": 420224.6308229146,
      "d": 98.55738020833815,
      "v": 112
    },
    {
      "midi": 70,
      "hit": false,
      "t": 420340.0150729146,
      "d": 40.86525520833675,
      "v": 82
    },
    {
      "midi": 62,
      "hit": false,
      "t": 420340.0150729146,
      "d": 62.4998020833591,
      "v": 108
    },
    {
      "midi": 65,
      "hit": false,
      "t": 420342.41891145625,
      "d": 38.461416666687,
      "v": 69
    },
    {
      "midi": 46,
      "hit": false,
      "t": 420570.7835729146,
      "d": 88.94202604168095,
      "v": 117
    },
    {
      "midi": 58,
      "hit": false,
      "t": 420686.1678229146,
      "d": 129.8072812500177,
      "v": 108
    },
    {
      "midi": 70,
      "hit": false,
      "t": 420686.1678229146,
      "d": 158.6533437499893,
      "v": 108
    },
    {
      "midi": 65,
      "hit": false,
      "t": 420686.1678229146,
      "d": 187.49940624996088,
      "v": 112
    },
    {
      "midi": 62,
      "hit": false,
      "t": 420686.1678229146,
      "d": 192.3070833333186,
      "v": 117
    },
    {
      "midi": 41,
      "hit": false,
      "t": 420921.7439999979,
      "d": 538.4598333332106,
      "v": 117
    },
    {
      "midi": 60,
      "hit": false,
      "t": 421147.70482291456,
      "d": 96.15354166663019,
      "v": 112
    },
    {
      "midi": 65,
      "hit": false,
      "t": 421147.70482291456,
      "d": 247.59536979155382,
      "v": 123
    },
    {
      "midi": 69,
      "hit": false,
      "t": 421150.1086614562,
      "d": 211.53779166663298,
      "v": 117
    },
    {
      "midi": 63,
      "hit": false,
      "t": 421150.1086614562,
      "d": 262.0184010415687,
      "v": 117
    },
    {
      "midi": 60,
      "hit": false,
      "t": 421373.66564583115,
      "d": 69.71131770830834,
      "v": 70
    },
    {
      "midi": 53,
      "hit": false,
      "t": 421376.0694843728,
      "d": 112.98041145829484,
      "v": 86
    },
    {
      "midi": 65,
      "hit": false,
      "t": 421493.85757291445,
      "d": 31.249901041621342,
      "v": 99
    },
    {
      "midi": 63,
      "hit": false,
      "t": 421496.2614114561,
      "d": 26.442223958321847,
      "v": 86
    },
    {
      "midi": 60,
      "hit": false,
      "t": 421496.2614114561,
      "d": 40.86525520827854,
      "v": 82
    },
    {
      "midi": 69,
      "hit": false,
      "t": 421496.2614114561,
      "d": 40.86525520827854,
      "v": 90
    },
    {
      "midi": 41,
      "hit": false,
      "t": 421727.02991145605,
      "d": 649.0364062500303,
      "v": 95
    },
    {
      "midi": 57,
      "hit": false,
      "t": 421840.0103229144,
      "d": 69.71131770830834,
      "v": 103
    },
    {
      "midi": 65,
      "hit": false,
      "t": 421840.0103229144,
      "d": 225.96082291664788,
      "v": 123
    },
    {
      "midi": 63,
      "hit": false,
      "t": 421840.0103229144,
      "d": 233.17233854165534,
      "v": 117
    },
    {
      "midi": 60,
      "hit": false,
      "t": 421840.0103229144,
      "d": 274.0375937499921,
      "v": 123
    },
    {
      "midi": 57,
      "hit": false,
      "t": 422070.7788229144,
      "d": 141.82647395832464,
      "v": 95
    },
    {
      "midi": 60,
      "hit": false,
      "t": 422188.56691145606,
      "d": 38.461416666687,
      "v": 95
    },
    {
      "midi": 63,
      "hit": false,
      "t": 422188.56691145606,
      "d": 45.67293229169445,
      "v": 112
    },
    {
      "midi": 65,
      "hit": false,
      "t": 422188.56691145606,
      "d": 60.09596354170935,
      "v": 99
    },
    {
      "midi": 53,
      "hit": false,
      "t": 422419.33541145606,
      "d": 48.0767708333442,
      "v": 108
    },
    {
      "midi": 57,
      "hit": false,
      "t": 422537.1234999977,
      "d": 117.78808854165254,
      "v": 103
    },
    {
      "midi": 65,
      "hit": false,
      "t": 422537.1234999977,
      "d": 124.99960416665999,
      "v": 123
    },
    {
      "midi": 63,
      "hit": false,
      "t": 422537.1234999977,
      "d": 141.82647395832464,
      "v": 117
    },
    {
      "midi": 60,
      "hit": false,
      "t": 422537.1234999977,
      "d": 146.63415104168234,
      "v": 117
    },
    {
      "midi": 53,
      "hit": false,
      "t": 422767.8919999977,
      "d": 353.36426562501583,
      "v": 123
    },
    {
      "midi": 58,
      "hit": false,
      "t": 422767.8919999977,
      "d": 411.05639062501723,
      "v": 127
    },
    {
      "midi": 62,
      "hit": false,
      "t": 422767.8919999977,
      "d": 427.8832604166819,
      "v": 127
    },
    {
      "midi": 46,
      "hit": false,
      "t": 422767.8919999977,
      "d": 622.5941822917084,
      "v": 123
    },
    {
      "midi": 53,
      "hit": false,
      "t": 423229.42899999773,
      "d": 120.1919270833605,
      "v": 108
    },
    {
      "midi": 58,
      "hit": false,
      "t": 423229.42899999773,
      "d": 134.6149583333754,
      "v": 103
    },
    {
      "midi": 62,
      "hit": false,
      "t": 423229.42899999773,
      "d": 134.6149583333754,
      "v": 103
    },
    {
      "midi": 53,
      "hit": false,
      "t": 423460.19749999774,
      "d": 367.7872968749725,
      "v": 123
    },
    {
      "midi": 56,
      "hit": false,
      "t": 423460.19749999774,
      "d": 411.056390624959,
      "v": 123
    },
    {
      "midi": 63,
      "hit": false,
      "t": 423460.19749999774,
      "d": 418.2679062499665,
      "v": 117
    },
    {
      "midi": 60,
      "hit": false,
      "t": 423460.19749999774,
      "d": 430.2870989582734,
      "v": 127
    },
    {
      "midi": 41,
      "hit": false,
      "t": 423460.19749999774,
      "d": 1062.496635416639,
      "v": 127
    },
    {
      "midi": 53,
      "hit": false,
      "t": 423921.7344999977,
      "d": 562.4982187499991,
      "v": 117
    },
    {
      "midi": 56,
      "hit": false,
      "t": 423921.7344999977,
      "d": 576.921250000014,
      "v": 117
    },
    {
      "midi": 63,
      "hit": false,
      "t": 423921.7344999977,
      "d": 584.1327656250214,
      "v": 123
    },
    {
      "midi": 60,
      "hit": false,
      "t": 423921.7344999977,
      "d": 622.5941822917084,
      "v": 127
    },
    {
      "midi": 53,
      "hit": false,
      "t": 424614.0399999977,
      "d": 293.2683020833065,
      "v": 123
    },
    {
      "midi": 62,
      "hit": false,
      "t": 424614.0399999977,
      "d": 560.0943802082911,
      "v": 127
    },
    {
      "midi": 46,
      "hit": false,
      "t": 424614.0399999977,
      "d": 562.4982187499409,
      "v": 117
    },
    {
      "midi": 58,
      "hit": false,
      "t": 424614.0399999977,
      "d": 564.9020572915906,
      "v": 127
    },
    {
      "midi": 53,
      "hit": false,
      "t": 425075.57699999766,
      "d": 84.13434895832324,
      "v": 90
    },
    {
      "midi": 56,
      "hit": false,
      "t": 425306.3454999976,
      "d": 262.01840104168514,
      "v": 123
    },
    {
      "midi": 63,
      "hit": false,
      "t": 425306.3454999976,
      "d": 262.01840104168514,
      "v": 117
    },
    {
      "midi": 53,
      "hit": false,
      "t": 425306.3454999976,
      "d": 264.4222395833349,
      "v": 112
    },
    {
      "midi": 60,
      "hit": false,
      "t": 425306.3454999976,
      "d": 264.4222395833349,
      "v": 117
    },
    {
      "midi": 41,
      "hit": false,
      "t": 425306.3454999976,
      "d": 401.44103645836003,
      "v": 123
    },
    {
      "midi": 60,
      "hit": false,
      "t": 425652.4982499976,
      "d": 24.0383854166721,
      "v": 103
    },
    {
      "midi": 53,
      "hit": false,
      "t": 425652.4982499976,
      "d": 33.6537395833293,
      "v": 86
    },
    {
      "midi": 56,
      "hit": false,
      "t": 425652.4982499976,
      "d": 38.461416666687,
      "v": 103
    },
    {
      "midi": 63,
      "hit": false,
      "t": 425652.4982499976,
      "d": 43.2690937500447,
      "v": 112
    },
    {
      "midi": 41,
      "hit": false,
      "t": 425883.2667499976,
      "d": 43.269093749986496,
      "v": 112
    },
    {
      "midi": 53,
      "hit": false,
      "t": 425998.6509999976,
      "d": 338.94123437500093,
      "v": 127
    },
    {
      "midi": 63,
      "hit": false,
      "t": 425998.6509999976,
      "d": 350.9604270833079,
      "v": 123
    },
    {
      "midi": 56,
      "hit": false,
      "t": 425998.6509999976,
      "d": 353.3642656249576,
      "v": 127
    },
    {
      "midi": 60,
      "hit": false,
      "t": 425998.6509999976,
      "d": 384.6141666666372,
      "v": 127
    },
    {
      "midi": 41,
      "hit": false,
      "t": 426229.41949999763,
      "d": 161.05718229163904,
      "v": 123
    },
    {
      "midi": 53,
      "hit": false,
      "t": 426460.1879999976,
      "d": 305.28749479167163,
      "v": 117
    },
    {
      "midi": 58,
      "hit": false,
      "t": 426460.1879999976,
      "d": 399.0371979166521,
      "v": 127
    },
    {
      "midi": 62,
      "hit": false,
      "t": 426460.1879999976,
      "d": 576.921250000014,
      "v": 127
    },
    {
      "midi": 46,
      "hit": false,
      "t": 426460.1879999976,
      "d": 584.1327656250214,
      "v": 123
    },
    {
      "midi": 53,
      "hit": false,
      "t": 426921.7249999976,
      "d": 100.96121874998789,
      "v": 99
    },
    {
      "midi": 58,
      "hit": false,
      "t": 426921.7249999976,
      "d": 117.78808854165254,
      "v": 95
    },
    {
      "midi": 56,
      "hit": false,
      "t": 427152.4934999976,
      "d": 999.9968333333381,
      "v": 123
    },
    {
      "midi": 63,
      "hit": false,
      "t": 427152.4934999976,
      "d": 1004.8045104166958,
      "v": 123
    },
    {
      "midi": 53,
      "hit": false,
      "t": 427152.4934999976,
      "d": 1016.8237031250028,
      "v": 117
    },
    {
      "midi": 41,
      "hit": false,
      "t": 427152.4934999976,
      "d": 1060.0927968749893,
      "v": 123
    },
    {
      "midi": 60,
      "hit": false,
      "t": 427152.4934999976,
      "d": 1076.919666666654,
      "v": 117
    },
    {
      "midi": 46,
      "hit": false,
      "t": 428306.33599999757,
      "d": 288.460625000007,
      "v": 117
    },
    {
      "midi": 53,
      "hit": false,
      "t": 428306.33599999757,
      "d": 298.0759791666642,
      "v": 123
    },
    {
      "midi": 62,
      "hit": false,
      "t": 428306.33599999757,
      "d": 341.3450729166507,
      "v": 127
    },
    {
      "midi": 58,
      "hit": false,
      "t": 428306.33599999757,
      "d": 365.3834583333228,
      "v": 127
    },
    {
      "midi": 56,
      "hit": false,
      "t": 428998.6414999976,
      "d": 197.1147604166763,
      "v": 123
    },
    {
      "midi": 63,
      "hit": false,
      "t": 428998.6414999976,
      "d": 259.6145625000354,
      "v": 123
    },
    {
      "midi": 46,
      "hit": false,
      "t": 428998.6414999976,
      "d": 269.2299166666926,
      "v": 123
    },
    {
      "midi": 58,
      "hit": false,
      "t": 428998.6414999976,
      "d": 290.86446354171494,
      "v": 123
    },
    {
      "midi": 60,
      "hit": false,
      "t": 428998.6414999976,
      "d": 307.6913333333796,
      "v": 127
    },
    {
      "midi": 46,
      "hit": false,
      "t": 429690.94699999766,
      "d": 158.6533437499893,
      "v": 123
    },
    {
      "midi": 53,
      "hit": false,
      "t": 429690.94699999766,
      "d": 173.0763750000042,
      "v": 123
    },
    {
      "midi": 58,
      "hit": false,
      "t": 429690.94699999766,
      "d": 197.1147604166763,
      "v": 127
    },
    {
      "midi": 62,
      "hit": false,
      "t": 429690.94699999766,
      "d": 199.51859895832604,
      "v": 127
    },
    {
      "midi": 46,
      "hit": false,
      "t": 429921.71549999766,
      "d": 158.6533437499893,
      "v": 117
    },
    {
      "midi": 53,
      "hit": false,
      "t": 429921.71549999766,
      "d": 168.2686979166465,
      "v": 123
    },
    {
      "midi": 58,
      "hit": false,
      "t": 429921.71549999766,
      "d": 194.71092187496834,
      "v": 117
    },
    {
      "midi": 62,
      "hit": false,
      "t": 429921.71549999766,
      "d": 197.11476041661808,
      "v": 117
    },
    {
      "midi": 46,
      "hit": false,
      "t": 430152.4839999976,
      "d": 197.1147604166763,
      "v": 123
    },
    {
      "midi": 62,
      "hit": false,
      "t": 430152.4839999976,
      "d": 228.36466145835584,
      "v": 123
    },
    {
      "midi": 53,
      "hit": false,
      "t": 430152.4839999976,
      "d": 230.7685000000056,
      "v": 123
    },
    {
      "midi": 58,
      "hit": false,
      "t": 430152.4839999976,
      "d": 240.3838541666628,
      "v": 117
    }
  ]
}