{
  "jsonPath": "Jazz/Jazz Funk/David Sanborn/straight-to-the-heart-album-version-as-we-speak.json",
  "path": "Jazz\\Jazz Funk\\David Sanborn\\Straight To The Heart (Album Version-As We Speak).mid",
  "name": "Straight To The Heart (Album Version-As We Speak)",
  "difficulty": "Advanced",
  "bpm": 80,
  "notes": [
    {
      "midi": 59,
      "hit": false,
      "t": 6000,
      "d": 375,
      "v": 62
    },
    {
      "midi": 62,
      "hit": false,
      "t": 6015.625,
      "d": 375,
      "v": 71
    },
    {
      "midi": 60,
      "hit": false,
      "t": 6382.8125,
      "d": 343.75,
      "v": 58
    },
    {
      "midi": 63,
      "hit": false,
      "t": 6390.625,
      "d": 406.25,
      "v": 60
    },
    {
      "midi": 62,
      "hit": false,
      "t": 6750,
      "d": 375,
      "v": 68
    },
    {
      "midi": 65,
      "hit": false,
      "t": 6765.625,
      "d": 406.25,
      "v": 70
    },
    {
      "midi": 63,
      "hit": false,
      "t": 7125,
      "d": 343.75,
      "v": 62
    },
    {
      "midi": 67,
      "hit": false,
      "t": 7132.8125,
      "d": 343.75,
      "v": 74
    },
    {
      "midi": 60,
      "hit": false,
      "t": 7500,
      "d": 1562.5,
      "v": 68
    },
    {
      "midi": 63,
      "hit": false,
      "t": 7523.4375,
      "d": 1562.5,
      "v": 70
    },
    {
      "midi": 65,
      "hit": false,
      "t": 7546.875,
      "d": 1562.5,
      "v": 74
    },
    {
      "midi": 68,
      "hit": false,
      "t": 7562.5,
      "d": 1593.75,
      "v": 80
    },
    {
      "midi": 71,
      "hit": false,
      "t": 9406.25,
      "d": 62.5,
      "v": 61
    },
    {
      "midi": 72,
      "hit": false,
      "t": 9429.6875,
      "d": 156.25,
      "v": 78
    },
    {
      "midi": 67,
      "hit": false,
      "t": 9609.375,
      "d": 125,
      "v": 62
    },
    {
      "midi": 58,
      "hit": false,
      "t": 9757.8125,
      "d": 593.75,
      "v": 62
    },
    {
      "midi": 63,
      "hit": false,
      "t": 9765.625,
      "d": 656.25,
      "v": 62
    },
    {
      "midi": 67,
      "hit": false,
      "t": 9781.25,
      "d": 656.25,
      "v": 62
    },
    {
      "midi": 70,
      "hit": false,
      "t": 9796.875,
      "d": 687.5,
      "v": 84
    },
    {
      "midi": 57,
      "hit": false,
      "t": 10484.375,
      "d": 625,
      "v": 72
    },
    {
      "midi": 59,
      "hit": false,
      "t": 10500,
      "d": 625,
      "v": 68
    },
    {
      "midi": 63,
      "hit": false,
      "t": 10515.625,
      "d": 625,
      "v": 66
    },
    {
      "midi": 67,
      "hit": false,
      "t": 10531.25,
      "d": 687.5,
      "v": 78
    },
    {
      "midi": 53,
      "hit": false,
      "t": 11250,
      "d": 1343.75,
      "v": 70
    },
    {
      "midi": 56,
      "hit": false,
      "t": 11250,
      "d": 1343.75,
      "v": 70
    },
    {
      "midi": 60,
      "hit": false,
      "t": 11250,
      "d": 1343.75,
      "v": 70
    },
    {
      "midi": 63,
      "hit": false,
      "t": 11250,
      "d": 1343.75,
      "v": 70
    },
    {
      "midi": 55,
      "hit": false,
      "t": 12750,
      "d": 1312.5,
      "v": 68
    },
    {
      "midi": 63,
      "hit": false,
      "t": 12765.625,
      "d": 1312.5,
      "v": 82
    },
    {
      "midi": 58,
      "hit": false,
      "t": 12781.25,
      "d": 1312.5,
      "v": 62
    },
    {
      "midi": 58,
      "hit": false,
      "t": 14242.1875,
      "d": 656.25,
      "v": 62
    },
    {
      "midi": 55,
      "hit": false,
      "t": 14250,
      "d": 625,
      "v": 62
    },
    {
      "midi": 62,
      "hit": false,
      "t": 14250,
      "d": 625,
      "v": 62
    },
    {
      "midi": 65,
      "hit": false,
      "t": 14250,
      "d": 687.5,
      "v": 70
    },
    {
      "midi": 58,
      "hit": false,
      "t": 14992.1875,
      "d": 718.75,
      "v": 62
    },
    {
      "midi": 61,
      "hit": false,
      "t": 15000,
      "d": 468.75,
      "v": 62
    },
    {
      "midi": 64,
      "hit": false,
      "t": 15000,
      "d": 718.75,
      "v": 74
    },
    {
      "midi": 55,
      "hit": false,
      "t": 15007.8125,
      "d": 687.5,
      "v": 41
    },
    {
      "midi": 53,
      "hit": false,
      "t": 15757.8125,
      "d": 1281.25,
      "v": 78
    },
    {
      "midi": 57,
      "hit": false,
      "t": 15765.625,
      "d": 1281.25,
      "v": 78
    },
    {
      "midi": 64,
      "hit": false,
      "t": 15789.0625,
      "d": 1312.5,
      "v": 86
    },
    {
      "midi": 57,
      "hit": false,
      "t": 17234.375,
      "d": 656.25,
      "v": 67
    },
    {
      "midi": 65,
      "hit": false,
      "t": 17234.375,
      "d": 718.75,
      "v": 82
    },
    {
      "midi": 60,
      "hit": false,
      "t": 17234.375,
      "d": 750,
      "v": 74
    },
    {
      "midi": 59,
      "hit": false,
      "t": 17984.375,
      "d": 687.5,
      "v": 70
    },
    {
      "midi": 67,
      "hit": false,
      "t": 17984.375,
      "d": 687.5,
      "v": 67
    },
    {
      "midi": 63,
      "hit": false,
      "t": 17984.375,
      "d": 718.75,
      "v": 74
    },
    {
      "midi": 62,
      "hit": false,
      "t": 18750,
      "d": 1312.5,
      "v": 74
    },
    {
      "midi": 59,
      "hit": false,
      "t": 18750,
      "d": 1343.75,
      "v": 70
    },
    {
      "midi": 67,
      "hit": false,
      "t": 18765.625,
      "d": 1343.75,
      "v": 74
    },
    {
      "midi": 67,
      "hit": false,
      "t": 20257.8125,
      "d": 500,
      "v": 75
    },
    {
      "midi": 72,
      "hit": false,
      "t": 20257.8125,
      "d": 500,
      "v": 72
    },
    {
      "midi": 65,
      "hit": false,
      "t": 20265.625,
      "d": 437.5,
      "v": 74
    },
    {
      "midi": 61,
      "hit": false,
      "t": 20828.125,
      "d": 781.25,
      "v": 74
    },
    {
      "midi": 65,
      "hit": false,
      "t": 20828.125,
      "d": 781.25,
      "v": 78
    },
    {
      "midi": 70,
      "hit": false,
      "t": 20828.125,
      "d": 843.75,
      "v": 76
    },
    {
      "midi": 63,
      "hit": false,
      "t": 21734.375,
      "d": 2031.25,
      "v": 70
    },
    {
      "midi": 56,
      "hit": false,
      "t": 21742.1875,
      "d": 2000,
      "v": 86
    },
    {
      "midi": 60,
      "hit": false,
      "t": 21742.1875,
      "d": 2062.5,
      "v": 61
    },
    {
      "midi": 63,
      "hit": false,
      "t": 23843.75,
      "d": 843.75,
      "v": 86
    },
    {
      "midi": 53,
      "hit": false,
      "t": 23843.75,
      "d": 906.25,
      "v": 67
    },
    {
      "midi": 59,
      "hit": false,
      "t": 23843.75,
      "d": 937.5,
      "v": 78
    },
    {
      "midi": 58,
      "hit": false,
      "t": 24757.8125,
      "d": 1375,
      "v": 90
    },
    {
      "midi": 63,
      "hit": false,
      "t": 24765.625,
      "d": 1406.25,
      "v": 78
    },
    {
      "midi": 55,
      "hit": false,
      "t": 24765.625,
      "d": 1437.5,
      "v": 52
    },
    {
      "midi": 59,
      "hit": false,
      "t": 26250,
      "d": 406.25,
      "v": 70
    },
    {
      "midi": 62,
      "hit": false,
      "t": 26250,
      "d": 406.25,
      "v": 74
    },
    {
      "midi": 60,
      "hit": false,
      "t": 26640.625,
      "d": 281.25,
      "v": 64
    },
    {
      "midi": 63,
      "hit": false,
      "t": 26640.625,
      "d": 343.75,
      "v": 59
    },
    {
      "midi": 62,
      "hit": false,
      "t": 27023.4375,
      "d": 343.75,
      "v": 82
    },
    {
      "midi": 65,
      "hit": false,
      "t": 27023.4375,
      "d": 343.75,
      "v": 78
    },
    {
      "midi": 63,
      "hit": false,
      "t": 27359.375,
      "d": 375,
      "v": 90
    },
    {
      "midi": 67,
      "hit": false,
      "t": 27367.1875,
      "d": 375,
      "v": 70
    },
    {
      "midi": 60,
      "hit": false,
      "t": 27773.4375,
      "d": 1468.75,
      "v": 54
    },
    {
      "midi": 63,
      "hit": false,
      "t": 27796.875,
      "d": 1437.5,
      "v": 54
    },
    {
      "midi": 68,
      "hit": false,
      "t": 27812.5,
      "d": 1562.5,
      "v": 78
    },
    {
      "midi": 80,
      "hit": false,
      "t": 28406.25,
      "d": 1093.75,
      "v": 50
    },
    {
      "midi": 77,
      "hit": false,
      "t": 28476.5625,
      "d": 968.75,
      "v": 67
    },
    {
      "midi": 75,
      "hit": false,
      "t": 28539.0625,
      "d": 937.5,
      "v": 48
    },
    {
      "midi": 72,
      "hit": false,
      "t": 28617.1875,
      "d": 875,
      "v": 48
    },
    {
      "midi": 58,
      "hit": false,
      "t": 30007.8125,
      "d": 593.75,
      "v": 62
    },
    {
      "midi": 63,
      "hit": false,
      "t": 30015.625,
      "d": 656.25,
      "v": 62
    },
    {
      "midi": 67,
      "hit": false,
      "t": 30031.25,
      "d": 656.25,
      "v": 62
    },
    {
      "midi": 70,
      "hit": false,
      "t": 30046.875,
      "d": 687.5,
      "v": 80
    },
    {
      "midi": 57,
      "hit": false,
      "t": 30734.375,
      "d": 625,
      "v": 62
    },
    {
      "midi": 59,
      "hit": false,
      "t": 30750,
      "d": 625,
      "v": 62
    },
    {
      "midi": 63,
      "hit": false,
      "t": 30765.625,
      "d": 625,
      "v": 64
    },
    {
      "midi": 67,
      "hit": false,
      "t": 30781.25,
      "d": 687.5,
      "v": 74
    },
    {
      "midi": 56,
      "hit": false,
      "t": 31500,
      "d": 1437.5,
      "v": 62
    },
    {
      "midi": 53,
      "hit": false,
      "t": 31500,
      "d": 1468.75,
      "v": 58
    },
    {
      "midi": 60,
      "hit": false,
      "t": 31500,
      "d": 1468.75,
      "v": 64
    },
    {
      "midi": 63,
      "hit": false,
      "t": 31500,
      "d": 1468.75,
      "v": 70
    },
    {
      "midi": 67,
      "hit": false,
      "t": 33000,
      "d": 1281.25,
      "v": 62
    },
    {
      "midi": 51,
      "hit": false,
      "t": 33000,
      "d": 1468.75,
      "v": 64
    },
    {
      "midi": 55,
      "hit": false,
      "t": 33000,
      "d": 1468.75,
      "v": 56
    },
    {
      "midi": 58,
      "hit": false,
      "t": 33000,
      "d": 1468.75,
      "v": 56
    },
    {
      "midi": 63,
      "hit": false,
      "t": 33000,
      "d": 1468.75,
      "v": 56
    },
    {
      "midi": 70,
      "hit": false,
      "t": 33195.3125,
      "d": 1218.75,
      "v": 62
    },
    {
      "midi": 77,
      "hit": false,
      "t": 33578.125,
      "d": 875,
      "v": 56
    },
    {
      "midi": 67,
      "hit": false,
      "t": 34445.3125,
      "d": 1312.5,
      "v": 62
    },
    {
      "midi": 70,
      "hit": false,
      "t": 34523.4375,
      "d": 1250,
      "v": 56
    },
    {
      "midi": 77,
      "hit": false,
      "t": 34562.5,
      "d": 625,
      "v": 52
    },
    {
      "midi": 73,
      "hit": false,
      "t": 35234.375,
      "d": 531.25,
      "v": 54
    },
    {
      "midi": 76,
      "hit": false,
      "t": 35250,
      "d": 718.75,
      "v": 58
    },
    {
      "midi": 53,
      "hit": false,
      "t": 36007.8125,
      "d": 1281.25,
      "v": 78
    },
    {
      "midi": 57,
      "hit": false,
      "t": 36015.625,
      "d": 1281.25,
      "v": 78
    },
    {
      "midi": 64,
      "hit": false,
      "t": 36039.0625,
      "d": 1312.5,
      "v": 86
    },
    {
      "midi": 57,
      "hit": false,
      "t": 37484.375,
      "d": 656.25,
      "v": 67
    },
    {
      "midi": 65,
      "hit": false,
      "t": 37484.375,
      "d": 718.75,
      "v": 82
    },
    {
      "midi": 60,
      "hit": false,
      "t": 37484.375,
      "d": 750,
      "v": 74
    },
    {
      "midi": 59,
      "hit": false,
      "t": 38234.375,
      "d": 687.5,
      "v": 70
    },
    {
      "midi": 67,
      "hit": false,
      "t": 38234.375,
      "d": 687.5,
      "v": 67
    },
    {
      "midi": 63,
      "hit": false,
      "t": 38234.375,
      "d": 718.75,
      "v": 74
    },
    {
      "midi": 62,
      "hit": false,
      "t": 39000,
      "d": 1312.5,
      "v": 74
    },
    {
      "midi": 59,
      "hit": false,
      "t": 39000,
      "d": 1343.75,
      "v": 70
    },
    {
      "midi": 67,
      "hit": false,
      "t": 39015.625,
      "d": 1343.75,
      "v": 74
    },
    {
      "midi": 67,
      "hit": false,
      "t": 40507.8125,
      "d": 500,
      "v": 86
    },
    {
      "midi": 72,
      "hit": false,
      "t": 40507.8125,
      "d": 500,
      "v": 86
    },
    {
      "midi": 65,
      "hit": false,
      "t": 40515.625,
      "d": 437.5,
      "v": 74
    },
    {
      "midi": 61,
      "hit": false,
      "t": 41078.125,
      "d": 781.25,
      "v": 110
    },
    {
      "midi": 65,
      "hit": false,
      "t": 41078.125,
      "d": 781.25,
      "v": 78
    },
    {
      "midi": 70,
      "hit": false,
      "t": 41078.125,
      "d": 843.75,
      "v": 90
    },
    {
      "midi": 63,
      "hit": false,
      "t": 41984.375,
      "d": 2031.25,
      "v": 70
    },
    {
      "midi": 56,
      "hit": false,
      "t": 41992.1875,
      "d": 2000,
      "v": 86
    },
    {
      "midi": 60,
      "hit": false,
      "t": 41992.1875,
      "d": 2062.5,
      "v": 61
    },
    {
      "midi": 63,
      "hit": false,
      "t": 44093.75,
      "d": 843.75,
      "v": 86
    },
    {
      "midi": 53,
      "hit": false,
      "t": 44093.75,
      "d": 906.25,
      "v": 67
    },
    {
      "midi": 59,
      "hit": false,
      "t": 44093.75,
      "d": 937.5,
      "v": 78
    },
    {
      "midi": 55,
      "hit": false,
      "t": 45000,
      "d": 1437.5,
      "v": 72
    },
    {
      "midi": 58,
      "hit": false,
      "t": 45007.8125,
      "d": 1375,
      "v": 78
    },
    {
      "midi": 63,
      "hit": false,
      "t": 45015.625,
      "d": 1406.25,
      "v": 84
    },
    {
      "midi": 59,
      "hit": false,
      "t": 46500,
      "d": 406.25,
      "v": 60
    },
    {
      "midi": 62,
      "hit": false,
      "t": 46500,
      "d": 406.25,
      "v": 60
    },
    {
      "midi": 60,
      "hit": false,
      "t": 46890.625,
      "d": 281.25,
      "v": 64
    },
    {
      "midi": 63,
      "hit": false,
      "t": 46890.625,
      "d": 343.75,
      "v": 64
    },
    {
      "midi": 62,
      "hit": false,
      "t": 47273.4375,
      "d": 343.75,
      "v": 72
    },
    {
      "midi": 65,
      "hit": false,
      "t": 47273.4375,
      "d": 343.75,
      "v": 68
    },
    {
      "midi": 63,
      "hit": false,
      "t": 47609.375,
      "d": 375,
      "v": 80
    },
    {
      "midi": 67,
      "hit": false,
      "t": 47617.1875,
      "d": 375,
      "v": 70
    },
    {
      "midi": 60,
      "hit": false,
      "t": 48023.4375,
      "d": 1468.75,
      "v": 64
    },
    {
      "midi": 63,
      "hit": false,
      "t": 48046.875,
      "d": 1437.5,
      "v": 72
    },
    {
      "midi": 68,
      "hit": false,
      "t": 48062.5,
      "d": 1562.5,
      "v": 78
    },
    {
      "midi": 80,
      "hit": false,
      "t": 48671.875,
      "d": 1093.75,
      "v": 70
    },
    {
      "midi": 77,
      "hit": false,
      "t": 48726.5625,
      "d": 968.75,
      "v": 66
    },
    {
      "midi": 75,
      "hit": false,
      "t": 48789.0625,
      "d": 937.5,
      "v": 64
    },
    {
      "midi": 72,
      "hit": false,
      "t": 48843.75,
      "d": 875,
      "v": 58
    },
    {
      "midi": 58,
      "hit": false,
      "t": 50257.8125,
      "d": 593.75,
      "v": 62
    },
    {
      "midi": 63,
      "hit": false,
      "t": 50265.625,
      "d": 656.25,
      "v": 62
    },
    {
      "midi": 67,
      "hit": false,
      "t": 50281.25,
      "d": 656.25,
      "v": 62
    },
    {
      "midi": 70,
      "hit": false,
      "t": 50296.875,
      "d": 687.5,
      "v": 80
    },
    {
      "midi": 57,
      "hit": false,
      "t": 50984.375,
      "d": 625,
      "v": 62
    },
    {
      "midi": 59,
      "hit": false,
      "t": 51000,
      "d": 625,
      "v": 62
    },
    {
      "midi": 63,
      "hit": false,
      "t": 51015.625,
      "d": 625,
      "v": 64
    },
    {
      "midi": 67,
      "hit": false,
      "t": 51031.25,
      "d": 687.5,
      "v": 74
    },
    {
      "midi": 53,
      "hit": false,
      "t": 51750,
      "d": 1343.75,
      "v": 70
    },
    {
      "midi": 56,
      "hit": false,
      "t": 51750,
      "d": 1343.75,
      "v": 70
    },
    {
      "midi": 60,
      "hit": false,
      "t": 51750,
      "d": 1343.75,
      "v": 70
    },
    {
      "midi": 63,
      "hit": false,
      "t": 51750,
      "d": 1343.75,
      "v": 70
    },
    {
      "midi": 63,
      "hit": false,
      "t": 53250,
      "d": 1406.25,
      "v": 84
    },
    {
      "midi": 59,
      "hit": false,
      "t": 53257.8125,
      "d": 1375,
      "v": 84
    },
    {
      "midi": 53,
      "hit": false,
      "t": 53257.8125,
      "d": 1406.25,
      "v": 76
    },
    {
      "midi": 55,
      "hit": false,
      "t": 54750,
      "d": 1000,
      "v": 75
    },
    {
      "midi": 58,
      "hit": false,
      "t": 54750,
      "d": 1000,
      "v": 68
    },
    {
      "midi": 60,
      "hit": false,
      "t": 54757.8125,
      "d": 1000,
      "v": 84
    },
    {
      "midi": 63,
      "hit": false,
      "t": 54765.625,
      "d": 1000,
      "v": 92
    },
    {
      "midi": 55,
      "hit": false,
      "t": 55875,
      "d": 62.5,
      "v": 86
    },
    {
      "midi": 58,
      "hit": false,
      "t": 55875,
      "d": 93.75,
      "v": 86
    },
    {
      "midi": 60,
      "hit": false,
      "t": 55875,
      "d": 93.75,
      "v": 86
    },
    {
      "midi": 63,
      "hit": false,
      "t": 55890.625,
      "d": 93.75,
      "v": 92
    },
    {
      "midi": 57,
      "hit": false,
      "t": 56250,
      "d": 1343.75,
      "v": 86
    },
    {
      "midi": 63,
      "hit": false,
      "t": 56257.8125,
      "d": 1343.75,
      "v": 98
    },
    {
      "midi": 67,
      "hit": false,
      "t": 56265.625,
      "d": 1375,
      "v": 104
    },
    {
      "midi": 53,
      "hit": false,
      "t": 57757.8125,
      "d": 1312.5,
      "v": 84
    },
    {
      "midi": 56,
      "hit": false,
      "t": 57765.625,
      "d": 1312.5,
      "v": 92
    },
    {
      "midi": 63,
      "hit": false,
      "t": 57773.4375,
      "d": 1312.5,
      "v": 104
    },
    {
      "midi": 53,
      "hit": false,
      "t": 59250,
      "d": 1125,
      "v": 86
    },
    {
      "midi": 59,
      "hit": false,
      "t": 59250,
      "d": 1156.25,
      "v": 84
    },
    {
      "midi": 63,
      "hit": false,
      "t": 59250,
      "d": 1156.25,
      "v": 104
    },
    {
      "midi": 55,
      "hit": false,
      "t": 60570.3125,
      "d": 843.75,
      "v": 76
    },
    {
      "midi": 58,
      "hit": false,
      "t": 60570.3125,
      "d": 843.75,
      "v": 82
    },
    {
      "midi": 60,
      "hit": false,
      "t": 60578.125,
      "d": 843.75,
      "v": 88
    },
    {
      "midi": 63,
      "hit": false,
      "t": 60578.125,
      "d": 843.75,
      "v": 96
    },
    {
      "midi": 60,
      "hit": false,
      "t": 61867.1875,
      "d": 93.75,
      "v": 92
    },
    {
      "midi": 58,
      "hit": false,
      "t": 61867.1875,
      "d": 125,
      "v": 84
    },
    {
      "midi": 55,
      "hit": false,
      "t": 61875,
      "d": 125,
      "v": 70
    },
    {
      "midi": 63,
      "hit": false,
      "t": 61890.625,
      "d": 93.75,
      "v": 94
    },
    {
      "midi": 57,
      "hit": false,
      "t": 62257.8125,
      "d": 1250,
      "v": 84
    },
    {
      "midi": 63,
      "hit": false,
      "t": 62257.8125,
      "d": 1312.5,
      "v": 104
    },
    {
      "midi": 67,
      "hit": false,
      "t": 62257.8125,
      "d": 1343.75,
      "v": 96
    },
    {
      "midi": 63,
      "hit": false,
      "t": 63734.375,
      "d": 93.75,
      "v": 112
    },
    {
      "midi": 60,
      "hit": false,
      "t": 63742.1875,
      "d": 125,
      "v": 84
    },
    {
      "midi": 68,
      "hit": false,
      "t": 63742.1875,
      "d": 125,
      "v": 104
    },
    {
      "midi": 68,
      "hit": false,
      "t": 64109.375,
      "d": 125,
      "v": 88
    },
    {
      "midi": 63,
      "hit": false,
      "t": 64117.1875,
      "d": 125,
      "v": 96
    },
    {
      "midi": 60,
      "hit": false,
      "t": 64117.1875,
      "d": 156.25,
      "v": 96
    },
    {
      "midi": 63,
      "hit": false,
      "t": 64500,
      "d": 406.25,
      "v": 104
    },
    {
      "midi": 67,
      "hit": false,
      "t": 64500,
      "d": 406.25,
      "v": 96
    },
    {
      "midi": 58,
      "hit": false,
      "t": 64507.8125,
      "d": 375,
      "v": 88
    },
    {
      "midi": 53,
      "hit": false,
      "t": 65250,
      "d": 1093.75,
      "v": 81
    },
    {
      "midi": 59,
      "hit": false,
      "t": 65250,
      "d": 1093.75,
      "v": 96
    },
    {
      "midi": 63,
      "hit": false,
      "t": 65250,
      "d": 1093.75,
      "v": 75
    },
    {
      "midi": 53,
      "hit": false,
      "t": 66578.125,
      "d": 125,
      "v": 78
    },
    {
      "midi": 59,
      "hit": false,
      "t": 66578.125,
      "d": 125,
      "v": 92
    },
    {
      "midi": 63,
      "hit": false,
      "t": 66585.9375,
      "d": 125,
      "v": 70
    },
    {
      "midi": 55,
      "hit": false,
      "t": 67117.1875,
      "d": 125,
      "v": 70
    },
    {
      "midi": 58,
      "hit": false,
      "t": 67117.1875,
      "d": 125,
      "v": 73
    },
    {
      "midi": 60,
      "hit": false,
      "t": 67117.1875,
      "d": 125,
      "v": 84
    },
    {
      "midi": 63,
      "hit": false,
      "t": 67125,
      "d": 125,
      "v": 81
    },
    {
      "midi": 55,
      "hit": false,
      "t": 67890.625,
      "d": 125,
      "v": 70
    },
    {
      "midi": 58,
      "hit": false,
      "t": 67890.625,
      "d": 125,
      "v": 68
    },
    {
      "midi": 60,
      "hit": false,
      "t": 67890.625,
      "d": 125,
      "v": 78
    },
    {
      "midi": 63,
      "hit": false,
      "t": 67898.4375,
      "d": 125,
      "v": 86
    },
    {
      "midi": 67,
      "hit": false,
      "t": 68257.8125,
      "d": 1406.25,
      "v": 84
    },
    {
      "midi": 57,
      "hit": false,
      "t": 68257.8125,
      "d": 1437.5,
      "v": 84
    },
    {
      "midi": 63,
      "hit": false,
      "t": 68257.8125,
      "d": 1437.5,
      "v": 112
    },
    {
      "midi": 58,
      "hit": false,
      "t": 69750,
      "d": 1093.75,
      "v": 84
    },
    {
      "midi": 46,
      "hit": false,
      "t": 69750,
      "d": 1343.75,
      "v": 76
    },
    {
      "midi": 70,
      "hit": false,
      "t": 70312.5,
      "d": 531.25,
      "v": 68
    },
    {
      "midi": 75,
      "hit": false,
      "t": 70312.5,
      "d": 531.25,
      "v": 76
    },
    {
      "midi": 79,
      "hit": false,
      "t": 70312.5,
      "d": 531.25,
      "v": 78
    },
    {
      "midi": 58,
      "hit": false,
      "t": 70875,
      "d": 62.5,
      "v": 76
    },
    {
      "midi": 68,
      "hit": false,
      "t": 70875,
      "d": 93.75,
      "v": 72
    },
    {
      "midi": 72,
      "hit": false,
      "t": 70875,
      "d": 93.75,
      "v": 72
    },
    {
      "midi": 77,
      "hit": false,
      "t": 70875,
      "d": 93.75,
      "v": 78
    },
    {
      "midi": 43,
      "hit": false,
      "t": 71250,
      "d": 1343.75,
      "v": 84
    },
    {
      "midi": 55,
      "hit": false,
      "t": 71250,
      "d": 1343.75,
      "v": 84
    },
    {
      "midi": 71,
      "hit": false,
      "t": 71796.875,
      "d": 687.5,
      "v": 64
    },
    {
      "midi": 75,
      "hit": false,
      "t": 71812.5,
      "d": 687.5,
      "v": 66
    },
    {
      "midi": 79,
      "hit": false,
      "t": 71843.75,
      "d": 687.5,
      "v": 70
    },
    {
      "midi": 60,
      "hit": false,
      "t": 72562.5,
      "d": 93.75,
      "v": 100
    },
    {
      "midi": 58,
      "hit": false,
      "t": 72562.5,
      "d": 125,
      "v": 100
    },
    {
      "midi": 67,
      "hit": false,
      "t": 72570.3125,
      "d": 93.75,
      "v": 81
    },
    {
      "midi": 63,
      "hit": false,
      "t": 72570.3125,
      "d": 125,
      "v": 98
    },
    {
      "midi": 55,
      "hit": false,
      "t": 73132.8125,
      "d": 156.25,
      "v": 84
    },
    {
      "midi": 58,
      "hit": false,
      "t": 73132.8125,
      "d": 156.25,
      "v": 84
    },
    {
      "midi": 60,
      "hit": false,
      "t": 73132.8125,
      "d": 156.25,
      "v": 84
    },
    {
      "midi": 63,
      "hit": false,
      "t": 73132.8125,
      "d": 156.25,
      "v": 84
    },
    {
      "midi": 55,
      "hit": false,
      "t": 73882.8125,
      "d": 156.25,
      "v": 84
    },
    {
      "midi": 58,
      "hit": false,
      "t": 73882.8125,
      "d": 156.25,
      "v": 84
    },
    {
      "midi": 60,
      "hit": false,
      "t": 73882.8125,
      "d": 156.25,
      "v": 84
    },
    {
      "midi": 63,
      "hit": false,
      "t": 73882.8125,
      "d": 156.25,
      "v": 84
    },
    {
      "midi": 67,
      "hit": false,
      "t": 74250,
      "d": 437.5,
      "v": 92
    },
    {
      "midi": 57,
      "hit": false,
      "t": 74257.8125,
      "d": 437.5,
      "v": 100
    },
    {
      "midi": 60,
      "hit": false,
      "t": 74265.625,
      "d": 437.5,
      "v": 100
    },
    {
      "midi": 63,
      "hit": false,
      "t": 74273.4375,
      "d": 468.75,
      "v": 96
    },
    {
      "midi": 57,
      "hit": false,
      "t": 74804.6875,
      "d": 93.75,
      "v": 86
    },
    {
      "midi": 60,
      "hit": false,
      "t": 74804.6875,
      "d": 93.75,
      "v": 86
    },
    {
      "midi": 55,
      "hit": false,
      "t": 74812.5,
      "d": 93.75,
      "v": 86
    },
    {
      "midi": 63,
      "hit": false,
      "t": 74812.5,
      "d": 93.75,
      "v": 94
    },
    {
      "midi": 67,
      "hit": false,
      "t": 74812.5,
      "d": 156.25,
      "v": 64
    },
    {
      "midi": 67,
      "hit": false,
      "t": 75187.5,
      "d": 93.75,
      "v": 86
    },
    {
      "midi": 69,
      "hit": false,
      "t": 75187.5,
      "d": 93.75,
      "v": 88
    },
    {
      "midi": 72,
      "hit": false,
      "t": 75187.5,
      "d": 93.75,
      "v": 90
    },
    {
      "midi": 75,
      "hit": false,
      "t": 75187.5,
      "d": 93.75,
      "v": 86
    },
    {
      "midi": 58,
      "hit": false,
      "t": 75750,
      "d": 656.25,
      "v": 100
    },
    {
      "midi": 63,
      "hit": false,
      "t": 75750,
      "d": 656.25,
      "v": 100
    },
    {
      "midi": 67,
      "hit": false,
      "t": 75750,
      "d": 687.5,
      "v": 100
    },
    {
      "midi": 59,
      "hit": false,
      "t": 76484.375,
      "d": 656.25,
      "v": 104
    },
    {
      "midi": 56,
      "hit": false,
      "t": 76492.1875,
      "d": 625,
      "v": 73
    },
    {
      "midi": 62,
      "hit": false,
      "t": 76492.1875,
      "d": 625,
      "v": 81
    },
    {
      "midi": 65,
      "hit": false,
      "t": 76492.1875,
      "d": 656.25,
      "v": 100
    },
    {
      "midi": 75,
      "hit": false,
      "t": 77250,
      "d": 468.75,
      "v": 66
    },
    {
      "midi": 79,
      "hit": false,
      "t": 77257.8125,
      "d": 468.75,
      "v": 61
    },
    {
      "midi": 77,
      "hit": false,
      "t": 77812.5,
      "d": 312.5,
      "v": 50
    },
    {
      "midi": 74,
      "hit": false,
      "t": 77812.5,
      "d": 343.75,
      "v": 56
    },
    {
      "midi": 72,
      "hit": false,
      "t": 78179.6875,
      "d": 531.25,
      "v": 56
    },
    {
      "midi": 75,
      "hit": false,
      "t": 78187.5,
      "d": 531.25,
      "v": 66
    },
    {
      "midi": 71,
      "hit": false,
      "t": 78750,
      "d": 375,
      "v": 56
    },
    {
      "midi": 74,
      "hit": false,
      "t": 78750,
      "d": 375,
      "v": 56
    },
    {
      "midi": 53,
      "hit": false,
      "t": 78773.4375,
      "d": 1343.75,
      "v": 40
    },
    {
      "midi": 72,
      "hit": false,
      "t": 79125,
      "d": 312.5,
      "v": 56
    },
    {
      "midi": 75,
      "hit": false,
      "t": 79132.8125,
      "d": 312.5,
      "v": 56
    },
    {
      "midi": 74,
      "hit": false,
      "t": 79500,
      "d": 343.75,
      "v": 66
    },
    {
      "midi": 77,
      "hit": false,
      "t": 79507.8125,
      "d": 375,
      "v": 66
    },
    {
      "midi": 75,
      "hit": false,
      "t": 79875,
      "d": 281.25,
      "v": 68
    },
    {
      "midi": 79,
      "hit": false,
      "t": 79890.625,
      "d": 281.25,
      "v": 68
    },
    {
      "midi": 80,
      "hit": false,
      "t": 80242.1875,
      "d": 531.25,
      "v": 61
    },
    {
      "midi": 75,
      "hit": false,
      "t": 80242.1875,
      "d": 1343.75,
      "v": 50
    },
    {
      "midi": 72,
      "hit": false,
      "t": 80250,
      "d": 1343.75,
      "v": 56
    },
    {
      "midi": 58,
      "hit": false,
      "t": 80250,
      "d": 1375,
      "v": 48
    },
    {
      "midi": 82,
      "hit": false,
      "t": 80828.125,
      "d": 875,
      "v": 72
    },
    {
      "midi": 51,
      "hit": false,
      "t": 81734.375,
      "d": 1281.25,
      "v": 74
    },
    {
      "midi": 62,
      "hit": false,
      "t": 81765.625,
      "d": 562.5,
      "v": 64
    },
    {
      "midi": 58,
      "hit": false,
      "t": 81773.4375,
      "d": 500,
      "v": 80
    },
    {
      "midi": 65,
      "hit": false,
      "t": 81773.4375,
      "d": 562.5,
      "v": 68
    },
    {
      "midi": 55,
      "hit": false,
      "t": 81789.0625,
      "d": 1187.5,
      "v": 74
    },
    {
      "midi": 60,
      "hit": false,
      "t": 82343.75,
      "d": 625,
      "v": 48
    },
    {
      "midi": 63,
      "hit": false,
      "t": 82343.75,
      "d": 625,
      "v": 72
    },
    {
      "midi": 58,
      "hit": false,
      "t": 82367.1875,
      "d": 531.25,
      "v": 40
    },
    {
      "midi": 43,
      "hit": false,
      "t": 83250,
      "d": 437.5,
      "v": 78
    },
    {
      "midi": 67,
      "hit": false,
      "t": 83250,
      "d": 562.5,
      "v": 94
    },
    {
      "midi": 64,
      "hit": false,
      "t": 83273.4375,
      "d": 437.5,
      "v": 88
    },
    {
      "midi": 59,
      "hit": false,
      "t": 83273.4375,
      "d": 468.75,
      "v": 84
    },
    {
      "midi": 53,
      "hit": false,
      "t": 83273.4375,
      "d": 500,
      "v": 78
    },
    {
      "midi": 43,
      "hit": false,
      "t": 83820.3125,
      "d": 625,
      "v": 78
    },
    {
      "midi": 59,
      "hit": false,
      "t": 83828.125,
      "d": 625,
      "v": 55
    },
    {
      "midi": 63,
      "hit": false,
      "t": 83828.125,
      "d": 656.25,
      "v": 93
    },
    {
      "midi": 68,
      "hit": false,
      "t": 83828.125,
      "d": 656.25,
      "v": 92
    },
    {
      "midi": 63,
      "hit": false,
      "t": 84546.875,
      "d": 843.75,
      "v": 88
    },
    {
      "midi": 68,
      "hit": false,
      "t": 84546.875,
      "d": 843.75,
      "v": 84
    },
    {
      "midi": 59,
      "hit": false,
      "t": 84554.6875,
      "d": 812.5,
      "v": 76
    },
    {
      "midi": 43,
      "hit": false,
      "t": 84570.3125,
      "d": 937.5,
      "v": 38
    },
    {
      "midi": 62,
      "hit": false,
      "t": 85500,
      "d": 687.5,
      "v": 80
    },
    {
      "midi": 48,
      "hit": false,
      "t": 85500,
      "d": 718.75,
      "v": 53
    },
    {
      "midi": 58,
      "hit": false,
      "t": 85507.8125,
      "d": 625,
      "v": 64
    },
    {
      "midi": 63,
      "hit": false,
      "t": 85507.8125,
      "d": 687.5,
      "v": 76
    },
    {
      "midi": 67,
      "hit": false,
      "t": 85507.8125,
      "d": 687.5,
      "v": 76
    },
    {
      "midi": 63,
      "hit": false,
      "t": 86250,
      "d": 656.25,
      "v": 80
    },
    {
      "midi": 41,
      "hit": false,
      "t": 86250,
      "d": 718.75,
      "v": 58
    },
    {
      "midi": 60,
      "hit": false,
      "t": 86257.8125,
      "d": 625,
      "v": 64
    },
    {
      "midi": 68,
      "hit": false,
      "t": 86257.8125,
      "d": 625,
      "v": 84
    },
    {
      "midi": 67,
      "hit": false,
      "t": 86960.9375,
      "d": 781.25,
      "v": 61
    },
    {
      "midi": 58,
      "hit": false,
      "t": 86968.75,
      "d": 687.5,
      "v": 46
    },
    {
      "midi": 63,
      "hit": false,
      "t": 86968.75,
      "d": 750,
      "v": 68
    },
    {
      "midi": 43,
      "hit": false,
      "t": 86968.75,
      "d": 781.25,
      "v": 53
    },
    {
      "midi": 46,
      "hit": false,
      "t": 87757.8125,
      "d": 1437.5,
      "v": 48
    },
    {
      "midi": 60,
      "hit": false,
      "t": 87765.625,
      "d": 1250,
      "v": 92
    },
    {
      "midi": 56,
      "hit": false,
      "t": 87765.625,
      "d": 1406.25,
      "v": 68
    },
    {
      "midi": 63,
      "hit": false,
      "t": 87765.625,
      "d": 1406.25,
      "v": 58
    },
    {
      "midi": 53,
      "hit": false,
      "t": 87765.625,
      "d": 1437.5,
      "v": 44
    },
    {
      "midi": 58,
      "hit": false,
      "t": 89250,
      "d": 1250,
      "v": 53
    },
    {
      "midi": 55,
      "hit": false,
      "t": 89250,
      "d": 1437.5,
      "v": 53
    },
    {
      "midi": 48,
      "hit": false,
      "t": 89250,
      "d": 1468.75,
      "v": 46
    },
    {
      "midi": 62,
      "hit": false,
      "t": 89265.625,
      "d": 1484.375,
      "v": 76
    },
    {
      "midi": 65,
      "hit": false,
      "t": 89281.25,
      "d": 1531.25,
      "v": 68
    },
    {
      "midi": 55,
      "hit": false,
      "t": 90750,
      "d": 1312.5,
      "v": 56
    },
    {
      "midi": 62,
      "hit": false,
      "t": 90750,
      "d": 1328.125,
      "v": 64
    },
    {
      "midi": 48,
      "hit": false,
      "t": 90750,
      "d": 1375,
      "v": 56
    },
    {
      "midi": 64,
      "hit": false,
      "t": 90750,
      "d": 1437.5,
      "v": 72
    },
    {
      "midi": 55,
      "hit": false,
      "t": 92179.6875,
      "d": 1406.25,
      "v": 38
    },
    {
      "midi": 48,
      "hit": false,
      "t": 92226.5625,
      "d": 1437.5,
      "v": 56
    },
    {
      "midi": 58,
      "hit": false,
      "t": 92250,
      "d": 1250,
      "v": 55
    },
    {
      "midi": 62,
      "hit": false,
      "t": 92273.4375,
      "d": 1468.75,
      "v": 50
    },
    {
      "midi": 65,
      "hit": false,
      "t": 92296.875,
      "d": 1468.75,
      "v": 72
    },
    {
      "midi": 48,
      "hit": false,
      "t": 93750,
      "d": 1406.25,
      "v": 56
    },
    {
      "midi": 55,
      "hit": false,
      "t": 93765.625,
      "d": 1375,
      "v": 56
    },
    {
      "midi": 62,
      "hit": false,
      "t": 93796.875,
      "d": 1312.5,
      "v": 56
    },
    {
      "midi": 64,
      "hit": false,
      "t": 93843.75,
      "d": 1312.5,
      "v": 72
    },
    {
      "midi": 53,
      "hit": false,
      "t": 95257.8125,
      "d": 1281.25,
      "v": 78
    },
    {
      "midi": 57,
      "hit": false,
      "t": 95265.625,
      "d": 1281.25,
      "v": 78
    },
    {
      "midi": 64,
      "hit": false,
      "t": 95289.0625,
      "d": 1312.5,
      "v": 86
    },
    {
      "midi": 57,
      "hit": false,
      "t": 96734.375,
      "d": 656.25,
      "v": 67
    },
    {
      "midi": 65,
      "hit": false,
      "t": 96734.375,
      "d": 718.75,
      "v": 82
    },
    {
      "midi": 60,
      "hit": false,
      "t": 96734.375,
      "d": 750,
      "v": 74
    },
    {
      "midi": 59,
      "hit": false,
      "t": 97484.375,
      "d": 687.5,
      "v": 70
    },
    {
      "midi": 67,
      "hit": false,
      "t": 97484.375,
      "d": 687.5,
      "v": 67
    },
    {
      "midi": 63,
      "hit": false,
      "t": 97484.375,
      "d": 718.75,
      "v": 74
    },
    {
      "midi": 62,
      "hit": false,
      "t": 98250,
      "d": 1312.5,
      "v": 74
    },
    {
      "midi": 59,
      "hit": false,
      "t": 98250,
      "d": 1343.75,
      "v": 70
    },
    {
      "midi": 67,
      "hit": false,
      "t": 98265.625,
      "d": 1343.75,
      "v": 74
    },
    {
      "midi": 67,
      "hit": false,
      "t": 99757.8125,
      "d": 500,
      "v": 86
    },
    {
      "midi": 72,
      "hit": false,
      "t": 99757.8125,
      "d": 500,
      "v": 86
    },
    {
      "midi": 65,
      "hit": false,
      "t": 99765.625,
      "d": 437.5,
      "v": 74
    },
    {
      "midi": 70,
      "hit": false,
      "t": 100328.125,
      "d": 687.5,
      "v": 90
    },
    {
      "midi": 61,
      "hit": false,
      "t": 100328.125,
      "d": 781.25,
      "v": 110
    },
    {
      "midi": 65,
      "hit": false,
      "t": 100328.125,
      "d": 781.25,
      "v": 78
    }
  ]
}