{
  "jsonPath": "Classical/Classical/Béla Bartok/joc-cu-bata-danse-du-baton.json",
  "path": "Classical\\Classical\\Béla Bartok\\Joc cu bâta (Danse du bâton).mid",
  "name": "Joc cu bâta (Danse du bâton)",
  "difficulty": "Advanced",
  "bpm": 120,
  "notes": [
    {
      "midi": 72,
      "hit": false,
      "t": 2000,
      "d": 208.33333333333303,
      "v": 88
    },
    {
      "midi": 71,
      "hit": false,
      "t": 2437.4999999999995,
      "d": 57.291666666666515,
      "v": 86
    },
    {
      "midi": 45,
      "hit": false,
      "t": 2460.9374999999995,
      "d": 252.60416666666652,
      "v": 63
    },
    {
      "midi": 72,
      "hit": false,
      "t": 2578.1249999999995,
      "d": 41.666666666666515,
      "v": 94
    },
    {
      "midi": 74,
      "hit": false,
      "t": 2716.1458333333326,
      "d": 622.395833333333,
      "v": 94
    },
    {
      "midi": 64,
      "hit": false,
      "t": 3070.312499999999,
      "d": 242.1875,
      "v": 89
    },
    {
      "midi": 60,
      "hit": false,
      "t": 3075.5208333333326,
      "d": 260.4166666666665,
      "v": 80
    },
    {
      "midi": 57,
      "hit": false,
      "t": 3078.124999999999,
      "d": 273.4375,
      "v": 77
    },
    {
      "midi": 72,
      "hit": false,
      "t": 3374.999999999999,
      "d": 161.45833333333348,
      "v": 105
    },
    {
      "midi": 74,
      "hit": false,
      "t": 3731.7708333333326,
      "d": 132.81249999999955,
      "v": 111
    },
    {
      "midi": 38,
      "hit": false,
      "t": 3736.9791666666656,
      "d": 351.56249999999955,
      "v": 88
    },
    {
      "midi": 76,
      "hit": false,
      "t": 3882.8124999999986,
      "d": 104.16666666666652,
      "v": 106
    },
    {
      "midi": 76,
      "hit": false,
      "t": 4036.4583333333317,
      "d": 677.0833333333344,
      "v": 108
    },
    {
      "midi": 62,
      "hit": false,
      "t": 4374.999999999998,
      "d": 208.33333333333394,
      "v": 92
    },
    {
      "midi": 57,
      "hit": false,
      "t": 4385.416666666665,
      "d": 234.3750000000009,
      "v": 79
    },
    {
      "midi": 60,
      "hit": false,
      "t": 4388.020833333332,
      "d": 221.35416666666697,
      "v": 79
    },
    {
      "midi": 78,
      "hit": false,
      "t": 4671.874999999999,
      "d": 119.79166666666697,
      "v": 101
    },
    {
      "midi": 78,
      "hit": false,
      "t": 4973.958333333333,
      "d": 190.10416666666697,
      "v": 103
    },
    {
      "midi": 43,
      "hit": false,
      "t": 4984.375,
      "d": 395.83333333333303,
      "v": 64
    },
    {
      "midi": 79,
      "hit": false,
      "t": 5114.583333333333,
      "d": 88.54166666666697,
      "v": 105
    },
    {
      "midi": 79,
      "hit": false,
      "t": 5263.020833333333,
      "d": 807.291666666667,
      "v": 110
    },
    {
      "midi": 60,
      "hit": false,
      "t": 5593.75,
      "d": 395.83333333333303,
      "v": 45
    },
    {
      "midi": 62,
      "hit": false,
      "t": 5601.5625,
      "d": 518.229166666667,
      "v": 86
    },
    {
      "midi": 59,
      "hit": false,
      "t": 5989.583333333333,
      "d": 151.04166666666788,
      "v": 62
    },
    {
      "midi": 77,
      "hit": false,
      "t": 6000,
      "d": 161.45833333333394,
      "v": 97
    },
    {
      "midi": 76,
      "hit": false,
      "t": 6130.208333333334,
      "d": 41.66666666666697,
      "v": 101
    },
    {
      "midi": 76,
      "hit": false,
      "t": 6273.437500000001,
      "d": 221.35416666666788,
      "v": 98
    },
    {
      "midi": 60,
      "hit": false,
      "t": 6276.041666666668,
      "d": 307.2916666666679,
      "v": 78
    },
    {
      "midi": 59,
      "hit": false,
      "t": 6278.645833333335,
      "d": 270.83333333333394,
      "v": 49
    },
    {
      "midi": 74,
      "hit": false,
      "t": 6455.729166666669,
      "d": 218.75,
      "v": 97
    },
    {
      "midi": 72,
      "hit": false,
      "t": 6638.020833333336,
      "d": 213.54166666666606,
      "v": 96
    },
    {
      "midi": 45,
      "hit": false,
      "t": 6856.770833333335,
      "d": 481.77083333333394,
      "v": 66
    },
    {
      "midi": 52,
      "hit": false,
      "t": 6937.500000000002,
      "d": 359.375,
      "v": 74
    },
    {
      "midi": 72,
      "hit": false,
      "t": 6960.937500000002,
      "d": 419.27083333333394,
      "v": 79
    },
    {
      "midi": 57,
      "hit": false,
      "t": 6981.770833333335,
      "d": 242.1875,
      "v": 72
    },
    {
      "midi": 71,
      "hit": false,
      "t": 7630.208333333336,
      "d": 83.33333333333303,
      "v": 101
    },
    {
      "midi": 40,
      "hit": false,
      "t": 7645.833333333336,
      "d": 395.83333333333303,
      "v": 62
    },
    {
      "midi": 72,
      "hit": false,
      "t": 7783.854166666669,
      "d": 101.5625,
      "v": 106
    },
    {
      "midi": 74,
      "hit": false,
      "t": 7927.083333333336,
      "d": 520.8333333333321,
      "v": 100
    },
    {
      "midi": 59,
      "hit": false,
      "t": 8377.604166666668,
      "d": 497.3958333333321,
      "v": 86
    },
    {
      "midi": 52,
      "hit": false,
      "t": 8380.208333333334,
      "d": 2091.1458333333303,
      "v": 80
    },
    {
      "midi": 55,
      "hit": false,
      "t": 8393.229166666668,
      "d": 361.97916666666606,
      "v": 70
    },
    {
      "midi": 71,
      "hit": false,
      "t": 8901.041666666666,
      "d": 59.89583333333394,
      "v": 84
    },
    {
      "midi": 74,
      "hit": false,
      "t": 8955.729166666666,
      "d": 119.79166666666606,
      "v": 99
    },
    {
      "midi": 72,
      "hit": false,
      "t": 9010.416666666666,
      "d": 531.2499999999982,
      "v": 110
    },
    {
      "midi": 60,
      "hit": false,
      "t": 9023.4375,
      "d": 416.66666666666606,
      "v": 92
    },
    {
      "midi": 57,
      "hit": false,
      "t": 9023.4375,
      "d": 591.1458333333303,
      "v": 87
    },
    {
      "midi": 69,
      "hit": false,
      "t": 9499.999999999998,
      "d": 114.58333333333212,
      "v": 101
    },
    {
      "midi": 71,
      "hit": false,
      "t": 9588.541666666664,
      "d": 104.16666666666788,
      "v": 96
    },
    {
      "midi": 62,
      "hit": false,
      "t": 9604.166666666664,
      "d": 627.6041666666679,
      "v": 91
    },
    {
      "midi": 59,
      "hit": false,
      "t": 9619.791666666664,
      "d": 580.7291666666679,
      "v": 75
    },
    {
      "midi": 67,
      "hit": false,
      "t": 9927.083333333332,
      "d": 88.54166666666606,
      "v": 105
    },
    {
      "midi": 69,
      "hit": false,
      "t": 10328.124999999998,
      "d": 723.9583333333339,
      "v": 109
    },
    {
      "midi": 57,
      "hit": false,
      "t": 10338.541666666664,
      "d": 414.0625,
      "v": 73
    },
    {
      "midi": 64,
      "hit": false,
      "t": 10346.354166666664,
      "d": 369.79166666666606,
      "v": 84
    },
    {
      "midi": 61,
      "hit": false,
      "t": 10346.354166666664,
      "d": 398.4375,
      "v": 73
    },
    {
      "midi": 45,
      "hit": false,
      "t": 11023.437499999998,
      "d": 33.85416666666788,
      "v": 98
    },
    {
      "midi": 61,
      "hit": false,
      "t": 11630.208333333332,
      "d": 408.8541666666679,
      "v": 81
    },
    {
      "midi": 57,
      "hit": false,
      "t": 11630.208333333332,
      "d": 815.1041666666679,
      "v": 106
    },
    {
      "midi": 64,
      "hit": false,
      "t": 11645.833333333332,
      "d": 294.27083333333394,
      "v": 79
    },
    {
      "midi": 33,
      "hit": false,
      "t": 12421.875,
      "d": 36.45833333333394,
      "v": 79
    },
    {
      "midi": 72,
      "hit": false,
      "t": 13135.416666666668,
      "d": 41.66666666666606,
      "v": 92
    },
    {
      "midi": 66,
      "hit": false,
      "t": 13273.4375,
      "d": 382.8125000000018,
      "v": 61
    },
    {
      "midi": 71,
      "hit": false,
      "t": 13278.645833333334,
      "d": 158.85416666666788,
      "v": 81
    },
    {
      "midi": 62,
      "hit": false,
      "t": 13312.500000000002,
      "d": 346.35416666666606,
      "v": 50
    },
    {
      "midi": 57,
      "hit": false,
      "t": 13312.500000000002,
      "d": 382.8124999999982,
      "v": 55
    },
    {
      "midi": 72,
      "hit": false,
      "t": 13427.083333333336,
      "d": 39.0625,
      "v": 94
    },
    {
      "midi": 74,
      "hit": false,
      "t": 13567.708333333336,
      "d": 671.8749999999964,
      "v": 94
    },
    {
      "midi": 45,
      "hit": false,
      "t": 13932.291666666666,
      "d": 31.25,
      "v": 89
    },
    {
      "midi": 72,
      "hit": false,
      "t": 14239.583333333332,
      "d": 203.125,
      "v": 106
    },
    {
      "midi": 57,
      "hit": false,
      "t": 14567.708333333332,
      "d": 351.5625000000018,
      "v": 67
    },
    {
      "midi": 74,
      "hit": false,
      "t": 14572.916666666666,
      "d": 190.10416666666606,
      "v": 108
    },
    {
      "midi": 64,
      "hit": false,
      "t": 14572.916666666666,
      "d": 382.8125000000018,
      "v": 72
    },
    {
      "midi": 60,
      "hit": false,
      "t": 14580.729166666666,
      "d": 333.33333333333394,
      "v": 71
    },
    {
      "midi": 76,
      "hit": false,
      "t": 14729.166666666666,
      "d": 46.875,
      "v": 106
    },
    {
      "midi": 76,
      "hit": false,
      "t": 14869.791666666666,
      "d": 744.7916666666679,
      "v": 106
    },
    {
      "midi": 50,
      "hit": false,
      "t": 15132.812500000002,
      "d": 424.47916666666606,
      "v": 61
    },
    {
      "midi": 57,
      "hit": false,
      "t": 15177.083333333336,
      "d": 361.97916666666606,
      "v": 70
    },
    {
      "midi": 62,
      "hit": false,
      "t": 15239.583333333336,
      "d": 372.3958333333321,
      "v": 83
    },
    {
      "midi": 78,
      "hit": false,
      "t": 15562.500000000002,
      "d": 127.60416666666606,
      "v": 100
    },
    {
      "midi": 62,
      "hit": false,
      "t": 15888.020833333334,
      "d": 401.04166666666606,
      "v": 96
    },
    {
      "midi": 78,
      "hit": false,
      "t": 15898.4375,
      "d": 236.97916666666606,
      "v": 99
    },
    {
      "midi": 60,
      "hit": false,
      "t": 15901.041666666666,
      "d": 356.77083333333394,
      "v": 88
    },
    {
      "midi": 79,
      "hit": false,
      "t": 16085.9375,
      "d": 101.5625,
      "v": 105
    },
    {
      "midi": 79,
      "hit": false,
      "t": 16257.8125,
      "d": 934.8958333333285,
      "v": 103
    },
    {
      "midi": 43,
      "hit": false,
      "t": 16557.291666666668,
      "d": 455.72916666666424,
      "v": 60
    },
    {
      "midi": 50,
      "hit": false,
      "t": 16632.8125,
      "d": 424.47916666666424,
      "v": 56
    },
    {
      "midi": 59,
      "hit": false,
      "t": 16778.645833333332,
      "d": 346.35416666666424,
      "v": 68
    },
    {
      "midi": 77,
      "hit": false,
      "t": 17130.20833333333,
      "d": 184.89583333333212,
      "v": 101
    },
    {
      "midi": 76,
      "hit": false,
      "t": 17276.04166666666,
      "d": 57.29166666666788,
      "v": 107
    },
    {
      "midi": 76,
      "hit": false,
      "t": 17450.52083333333,
      "d": 190.10416666666424,
      "v": 97
    },
    {
      "midi": 57,
      "hit": false,
      "t": 17463.54166666666,
      "d": 200.52083333333212,
      "v": 84
    },
    {
      "midi": 64,
      "hit": false,
      "t": 17466.14583333333,
      "d": 385.4166666666606,
      "v": 85
    },
    {
      "midi": 55,
      "hit": false,
      "t": 17479.16666666666,
      "d": 408.8541666666606,
      "v": 60
    },
    {
      "midi": 74,
      "hit": false,
      "t": 17609.374999999993,
      "d": 140.625,
      "v": 94
    },
    {
      "midi": 59,
      "hit": false,
      "t": 17614.583333333325,
      "d": 125,
      "v": 75
    },
    {
      "midi": 60,
      "hit": false,
      "t": 17763.020833333325,
      "d": 101.56249999999636,
      "v": 88
    },
    {
      "midi": 72,
      "hit": false,
      "t": 17776.041666666657,
      "d": 161.45833333332848,
      "v": 97
    },
    {
      "midi": 36,
      "hit": false,
      "t": 18151.041666666653,
      "d": 109.375,
      "v": 102
    },
    {
      "midi": 72,
      "hit": false,
      "t": 18161.45833333332,
      "d": 437.5,
      "v": 96
    },
    {
      "midi": 38,
      "hit": false,
      "t": 18494.791666666653,
      "d": 101.5625,
      "v": 97
    },
    {
      "midi": 71,
      "hit": false,
      "t": 18921.87499999999,
      "d": 151.04166666666788,
      "v": 86
    },
    {
      "midi": 40,
      "hit": false,
      "t": 18924.479166666657,
      "d": 341.1458333333321,
      "v": 104
    },
    {
      "midi": 72,
      "hit": false,
      "t": 19065.104166666657,
      "d": 143.22916666666788,
      "v": 92
    },
    {
      "midi": 74,
      "hit": false,
      "t": 19221.354166666657,
      "d": 153.64583333333212,
      "v": 94
    },
    {
      "midi": 74,
      "hit": false,
      "t": 19541.666666666657,
      "d": 242.1875,
      "v": 102
    },
    {
      "midi": 59,
      "hit": false,
      "t": 19562.49999999999,
      "d": 638.0208333333358,
      "v": 81
    },
    {
      "midi": 55,
      "hit": false,
      "t": 19572.916666666657,
      "d": 651.0416666666679,
      "v": 68
    },
    {
      "midi": 52,
      "hit": false,
      "t": 19593.74999999999,
      "d": 1981.7708333333358,
      "v": 52
    },
    {
      "midi": 71,
      "hit": false,
      "t": 19869.791666666657,
      "d": 93.75,
      "v": 92
    },
    {
      "midi": 74,
      "hit": false,
      "t": 20169.270833333325,
      "d": 93.75,
      "v": 91
    },
    {
      "midi": 72,
      "hit": false,
      "t": 20208.333333333325,
      "d": 143.22916666666788,
      "v": 101
    },
    {
      "midi": 60,
      "hit": false,
      "t": 20216.145833333325,
      "d": 492.18750000000364,
      "v": 83
    },
    {
      "midi": 57,
      "hit": false,
      "t": 20226.562499999993,
      "d": 638.0208333333358,
      "v": 71
    },
    {
      "midi": 69,
      "hit": false,
      "t": 20552.08333333333,
      "d": 117.1875,
      "v": 100
    },
    {
      "midi": 72,
      "hit": false,
      "t": 20817.70833333333,
      "d": 46.875,
      "v": 93
    },
    {
      "midi": 71,
      "hit": false,
      "t": 20841.14583333333,
      "d": 119.79166666666788,
      "v": 90
    },
    {
      "midi": 62,
      "hit": false,
      "t": 20864.58333333333,
      "d": 505.2083333333321,
      "v": 73
    },
    {
      "midi": 59,
      "hit": false,
      "t": 20874.999999999996,
      "d": 460.93749999999636,
      "v": 57
    },
    {
      "midi": 67,
      "hit": false,
      "t": 21177.08333333333,
      "d": 145.83333333333212,
      "v": 98
    },
    {
      "midi": 69,
      "hit": false,
      "t": 21539.062499999993,
      "d": 635.4166666666642,
      "v": 101
    },
    {
      "midi": 61,
      "hit": false,
      "t": 21546.874999999993,
      "d": 351.56249999999636,
      "v": 72
    },
    {
      "midi": 64,
      "hit": false,
      "t": 21549.47916666666,
      "d": 328.12499999999636,
      "v": 83
    },
    {
      "midi": 57,
      "hit": false,
      "t": 21562.499999999993,
      "d": 354.16666666666424,
      "v": 71
    },
    {
      "midi": 45,
      "hit": false,
      "t": 22216.145833333325,
      "d": 33.85416666666788,
      "v": 92
    },
    {
      "midi": 57,
      "hit": false,
      "t": 22874.999999999993,
      "d": 901.0416666666679,
      "v": 98
    },
    {
      "midi": 61,
      "hit": false,
      "t": 22882.812499999993,
      "d": 325.5208333333321,
      "v": 68
    },
    {
      "midi": 64,
      "hit": false,
      "t": 22893.22916666666,
      "d": 208.33333333333212,
      "v": 78
    },
    {
      "midi": 33,
      "hit": false,
      "t": 23687.499999999993,
      "d": 31.25,
      "v": 91
    },
    {
      "midi": 67,
      "hit": false,
      "t": 24479.16666666666,
      "d": 41.66666666666788,
      "v": 75
    },
    {
      "midi": 69,
      "hit": false,
      "t": 24578.124999999996,
      "d": 989.5833333333321,
      "v": 91
    },
    {
      "midi": 66,
      "hit": false,
      "t": 25231.77083333333,
      "d": 427.08333333333576,
      "v": 56
    },
    {
      "midi": 62,
      "hit": false,
      "t": 25255.20833333333,
      "d": 354.1666666666679,
      "v": 44
    },
    {
      "midi": 57,
      "hit": false,
      "t": 25265.624999999996,
      "d": 348.9583333333321,
      "v": 44
    },
    {
      "midi": 72,
      "hit": false,
      "t": 25578.124999999996,
      "d": 54.6875,
      "v": 67
    },
    {
      "midi": 71,
      "hit": false,
      "t": 25658.854166666664,
      "d": 65.10416666666788,
      "v": 58
    },
    {
      "midi": 72,
      "hit": false,
      "t": 25750,
      "d": 109.375,
      "v": 69
    },
    {
      "midi": 64,
      "hit": false,
      "t": 25856.770833333332,
      "d": 393.2291666666679,
      "v": 52
    },
    {
      "midi": 74,
      "hit": false,
      "t": 25877.604166666668,
      "d": 445.31249999999636,
      "v": 69
    },
    {
      "midi": 60,
      "hit": false,
      "t": 25882.8125,
      "d": 372.3958333333321,
      "v": 42
    },
    {
      "midi": 55,
      "hit": false,
      "t": 25885.416666666668,
      "d": 335.9375,
      "v": 37
    },
    {
      "midi": 69,
      "hit": false,
      "t": 26356.770833333332,
      "d": 57.29166666666788,
      "v": 55
    },
    {
      "midi": 74,
      "hit": false,
      "t": 26442.708333333332,
      "d": 78.125,
      "v": 61
    },
    {
      "midi": 62,
      "hit": false,
      "t": 26455.729166666664,
      "d": 455.7291666666679,
      "v": 48
    },
    {
      "midi": 54,
      "hit": false,
      "t": 26463.541666666664,
      "d": 593.7500000000036,
      "v": 36
    },
    {
      "midi": 59,
      "hit": false,
      "t": 26471.354166666664,
      "d": 398.43750000000364,
      "v": 41
    },
    {
      "midi": 71,
      "hit": false,
      "t": 26796.875,
      "d": 93.75,
      "v": 57
    },
    {
      "midi": 72,
      "hit": false,
      "t": 27140.625,
      "d": 1083.3333333333321,
      "v": 75
    },
    {
      "midi": 60,
      "hit": false,
      "t": 27164.0625,
      "d": 234.37499999999636,
      "v": 44
    },
    {
      "midi": 59,
      "hit": false,
      "t": 27169.270833333332,
      "d": 255.20833333333212,
      "v": 30
    },
    {
      "midi": 52,
      "hit": false,
      "t": 27200.520833333332,
      "d": 239.58333333333212,
      "v": 47
    },
    {
      "midi": 33,
      "hit": false,
      "t": 27848.958333333332,
      "d": 140.625,
      "v": 65
    },
    {
      "midi": 71,
      "hit": false,
      "t": 28169.270833333332,
      "d": 286.4583333333321,
      "v": 69
    },
    {
      "midi": 60,
      "hit": false,
      "t": 28489.583333333332,
      "d": 283.85416666666424,
      "v": 64
    },
    {
      "midi": 72,
      "hit": false,
      "t": 28494.791666666664,
      "d": 312.49999999999636,
      "v": 82
    },
    {
      "midi": 57,
      "hit": false,
      "t": 28513.020833333332,
      "d": 247.39583333333212,
      "v": 50
    },
    {
      "midi": 52,
      "hit": false,
      "t": 28518.229166666664,
      "d": 276.04166666666424,
      "v": 50
    },
    {
      "midi": 76,
      "hit": false,
      "t": 28958.33333333333,
      "d": 62.5,
      "v": 89
    },
    {
      "midi": 55,
      "hit": false,
      "t": 29062.499999999996,
      "d": 302.0833333333321,
      "v": 80
    },
    {
      "midi": 45,
      "hit": false,
      "t": 29067.70833333333,
      "d": 283.8541666666679,
      "v": 86
    },
    {
      "midi": 81,
      "hit": false,
      "t": 29070.312499999996,
      "d": 164.0625,
      "v": 100
    },
    {
      "midi": 83,
      "hit": false,
      "t": 29401.04166666666,
      "d": 192.70833333333212,
      "v": 96
    },
    {
      "midi": 64,
      "hit": false,
      "t": 29734.374999999993,
      "d": 294.27083333333576,
      "v": 92
    },
    {
      "midi": 84,
      "hit": false,
      "t": 29736.97916666666,
      "d": 367.1875,
      "v": 106
    },
    {
      "midi": 57,
      "hit": false,
      "t": 29752.60416666666,
      "d": 304.6875,
      "v": 74
    },
    {
      "midi": 53,
      "hit": false,
      "t": 29752.60416666666,
      "d": 322.9166666666679,
      "v": 71
    },
    {
      "midi": 84,
      "hit": false,
      "t": 30182.29166666666,
      "d": 104.16666666666424,
      "v": 20
    },
    {
      "midi": 83,
      "hit": false,
      "t": 30265.624999999993,
      "d": 138.02083333333212,
      "v": 84
    },
    {
      "midi": 38,
      "hit": false,
      "t": 30369.791666666657,
      "d": 39.0625,
      "v": 93
    },
    {
      "midi": 81,
      "hit": false,
      "t": 30369.791666666657,
      "d": 78.125,
      "v": 103
    },
    {
      "midi": 79,
      "hit": false,
      "t": 30705.729166666657,
      "d": 208.33333333333212,
      "v": 103
    },
    {
      "midi": 62,
      "hit": false,
      "t": 31026.041666666653,
      "d": 223.95833333333212,
      "v": 91
    },
    {
      "midi": 77,
      "hit": false,
      "t": 31028.64583333332,
      "d": 169.27083333333212,
      "v": 105
    },
    {
      "midi": 59,
      "hit": false,
      "t": 31036.45833333332,
      "d": 231.77083333333212,
      "v": 78
    },
    {
      "midi": 55,
      "hit": false,
      "t": 31041.666666666653,
      "d": 250,
      "v": 80
    },
    {
      "midi": 76,
      "hit": false,
      "t": 31484.374999999985,
      "d": 135.41666666666788,
      "v": 97
    },
    {
      "midi": 40,
      "hit": false,
      "t": 31593.749999999985,
      "d": 31.25,
      "v": 94
    },
    {
      "midi": 74,
      "hit": false,
      "t": 31593.749999999985,
      "d": 98.95833333333212,
      "v": 105
    },
    {
      "midi": 71,
      "hit": false,
      "t": 31945.312499999985,
      "d": 88.54166666666788,
      "v": 92
    },
    {
      "midi": 74,
      "hit": false,
      "t": 32276.041666666653,
      "d": 218.75000000000364,
      "v": 101
    },
    {
      "midi": 60,
      "hit": false,
      "t": 32281.249999999985,
      "d": 484.37500000000364,
      "v": 75
    },
    {
      "midi": 52,
      "hit": false,
      "t": 32291.666666666653,
      "d": 492.18750000000364,
      "v": 60
    },
    {
      "midi": 59,
      "hit": false,
      "t": 32294.27083333332,
      "d": 455.7291666666679,
      "v": 64
    },
    {
      "midi": 72,
      "hit": false,
      "t": 32447.916666666657,
      "d": 67.70833333333212,
      "v": 102
    },
    {
      "midi": 72,
      "hit": false,
      "t": 32591.14583333332,
      "d": 765.6250000000073,
      "v": 99
    },
    {
      "midi": 45,
      "hit": false,
      "t": 33002.60416666666,
      "d": 216.14583333333576,
      "v": 91
    },
    {
      "midi": 71,
      "hit": false,
      "t": 33312.49999999999,
      "d": 403.6458333333285,
      "v": 82
    },
    {
      "midi": 60,
      "hit": false,
      "t": 33687.49999999999,
      "d": 270.8333333333285,
      "v": 57
    },
    {
      "midi": 72,
      "hit": false,
      "t": 33697.91666666666,
      "d": 552.0833333333285,
      "v": 83
    },
    {
      "midi": 57,
      "hit": false,
      "t": 33713.54166666666,
      "d": 263.0208333333285,
      "v": 49
    },
    {
      "midi": 52,
      "hit": false,
      "t": 33716.14583333332,
      "d": 286.4583333333285,
      "v": 41
    },
    {
      "midi": 71,
      "hit": false,
      "t": 34268.22916666665,
      "d": 52.08333333333576,
      "v": 61
    },
    {
      "midi": 72,
      "hit": false,
      "t": 34406.249999999985,
      "d": 312.5,
      "v": 54
    },
    {
      "midi": 43,
      "hit": false,
      "t": 34414.062499999985,
      "d": 635.4166666666715,
      "v": 51
    },
    {
      "midi": 67,
      "hit": false,
      "t": 34789.062499999985,
      "d": 75.52083333333576,
      "v": 61
    },
    {
      "midi": 69,
      "hit": false,
      "t": 35283.85416666666,
      "d": 981.7708333333212,
      "v": 49
    },
    {
      "midi": 41,
      "hit": false,
      "t": 35302.08333333332,
      "d": 283.85416666666424,
      "v": 39
    },
    {
      "midi": 63,
      "hit": false,
      "t": 35994.79166666665,
      "d": 882.8125000000073,
      "v": 35
    },
    {
      "midi": 57,
      "hit": false,
      "t": 36013.020833333314,
      "d": 765.6250000000073,
      "v": 36
    },
    {
      "midi": 72,
      "hit": false,
      "t": 36307.29166666664,
      "d": 54.6875,
      "v": 55
    },
    {
      "midi": 71,
      "hit": false,
      "t": 36382.81249999998,
      "d": 67.70833333333576,
      "v": 54
    },
    {
      "midi": 72,
      "hit": false,
      "t": 36455.72916666665,
      "d": 91.14583333333576,
      "v": 63
    },
    {
      "midi": 74,
      "hit": false,
      "t": 36575.52083333332,
      "d": 427.08333333333576,
      "v": 78
    },
    {
      "midi": 69,
      "hit": false,
      "t": 37080.72916666666,
      "d": 57.29166666667152,
      "v": 55
    },
    {
      "midi": 57,
      "hit": false,
      "t": 37111.97916666666,
      "d": 309.89583333334303,
      "v": 43
    },
    {
      "midi": 52,
      "hit": false,
      "t": 37124.99999999999,
      "d": 325.52083333334303,
      "v": 44
    },
    {
      "midi": 74,
      "hit": false,
      "t": 37200.52083333333,
      "d": 80.72916666666424,
      "v": 65
    },
    {
      "midi": 64,
      "hit": false,
      "t": 37216.14583333333,
      "d": 132.8125,
      "v": 60
    },
    {
      "midi": 71,
      "hit": false,
      "t": 37544.270833333336,
      "d": 44.27083333333576,
      "v": 69
    },
    {
      "midi": 74,
      "hit": false,
      "t": 37877.60416666667,
      "d": 200.52083333333576,
      "v": 93
    },
    {
      "midi": 38,
      "hit": false,
      "t": 37888.020833333336,
      "d": 138.02083333333576,
      "v": 49
    },
    {
      "midi": 72,
      "hit": false,
      "t": 38046.87500000001,
      "d": 41.66666666666424,
      "v": 85
    },
    {
      "midi": 72,
      "hit": false,
      "t": 38197.91666666667,
      "d": 541.6666666666715,
      "v": 57
    },
    {
      "midi": 66,
      "hit": false,
      "t": 38523.43750000001,
      "d": 1554.6875000000073,
      "v": 54
    },
    {
      "midi": 60,
      "hit": false,
      "t": 38557.29166666667,
      "d": 1531.2500000000073,
      "v": 46
    },
    {
      "midi": 57,
      "hit": false,
      "t": 38578.12500000001,
      "d": 1497.395833333343,
      "v": 43
    },
    {
      "midi": 74,
      "hit": false,
      "t": 38885.41666666668,
      "d": 46.875,
      "v": 65
    },
    {
      "midi": 72,
      "hit": false,
      "t": 38950.52083333334,
      "d": 78.125,
      "v": 82
    },
    {
      "midi": 74,
      "hit": false,
      "t": 39049.47916666668,
      "d": 49.47916666666424,
      "v": 67
    },
    {
      "midi": 76,
      "hit": false,
      "t": 39166.66666666668,
      "d": 611.9791666666715,
      "v": 89
    },
    {
      "midi": 72,
      "hit": false,
      "t": 39726.562500000015,
      "d": 67.70833333333576,
      "v": 64
    },
    {
      "midi": 67,
      "hit": false,
      "t": 39856.77083333335,
      "d": 174.47916666666424,
      "v": 65
    },
    {
      "midi": 69,
      "hit": false,
      "t": 40486.97916666668,
      "d": 46.875,
      "v": 74
    },
    {
      "midi": 76,
      "hit": false,
      "t": 40820.312500000015,
      "d": 57.29166666666424,
      "v": 68
    },
    {
      "midi": 54,
      "hit": false,
      "t": 41127.60416666668,
      "d": 354.16666666666424,
      "v": 50
    },
    {
      "midi": 69,
      "hit": false,
      "t": 41132.812500000015,
      "d": 54.6875,
      "v": 63
    },
    {
      "midi": 60,
      "hit": false,
      "t": 41138.02083333335,
      "d": 346.35416666665697,
      "v": 51
    },
    {
      "midi": 50,
      "hit": false,
      "t": 41153.64583333335,
      "d": 320.3124999999927,
      "v": 49
    },
    {
      "midi": 76,
      "hit": false,
      "t": 41455.72916666668,
      "d": 44.27083333332848,
      "v": 84
    },
    {
      "midi": 66,
      "hit": false,
      "t": 41755.20833333334,
      "d": 98.95833333333576,
      "v": 88
    },
    {
      "midi": 69,
      "hit": false,
      "t": 41763.02083333334,
      "d": 39.0625,
      "v": 96
    },
    {
      "midi": 57,
      "hit": false,
      "t": 41778.64583333334,
      "d": 44.27083333333576,
      "v": 81
    },
    {
      "midi": 60,
      "hit": false,
      "t": 41778.64583333334,
      "d": 49.47916666667152,
      "v": 78
    },
    {
      "midi": 76,
      "hit": false,
      "t": 42104.16666666668,
      "d": 26.04166666666424,
      "v": 105
    },
    {
      "midi": 62,
      "hit": false,
      "t": 42411.45833333334,
      "d": 101.56250000000728,
      "v": 103
    },
    {
      "midi": 56,
      "hit": false,
      "t": 42414.06250000001,
      "d": 111.9791666666788,
      "v": 92
    },
    {
      "midi": 69,
      "hit": false,
      "t": 42419.27083333334,
      "d": 109.37500000000728,
      "v": 108
    },
    {
      "midi": 52,
      "hit": false,
      "t": 42424.47916666668,
      "d": 83.33333333333576,
      "v": 97
    },
    {
      "midi": 76,
      "hit": false,
      "t": 42731.77083333335,
      "d": 75.52083333333576,
      "v": 111
    },
    {
      "midi": 61,
      "hit": false,
      "t": 43052.08333333335,
      "d": 346.35416666665697,
      "v": 94
    },
    {
      "midi": 69,
      "hit": false,
      "t": 43057.291666666686,
      "d": 575.5208333333212,
      "v": 109
    },
    {
      "midi": 57,
      "hit": false,
      "t": 43067.70833333335,
      "d": 263.0208333333285,
      "v": 87
    },
    {
      "midi": 52,
      "hit": false,
      "t": 43070.312500000015,
      "d": 294.2708333333285,
      "v": 78
    },
    {
      "midi": 45,
      "hit": false,
      "t": 43687.50000000001,
      "d": 36.45833333333576,
      "v": 108
    },
    {
      "midi": 56,
      "hit": false,
      "t": 44257.81250000001,
      "d": 130.20833333332848,
      "v": 83
    },
    {
      "midi": 64,
      "hit": false,
      "t": 44307.29166666667,
      "d": 356.7708333333285,
      "v": 100
    },
    {
      "midi": 61,
      "hit": false,
      "t": 44307.29166666667,
      "d": 432.29166666666424,
      "v": 85
    },
    {
      "midi": 57,
      "hit": false,
      "t": 44307.29166666667,
      "d": 817.7083333333285,
      "v": 105
    },
    {
      "midi": 33,
      "hit": false,
      "t": 45098.958333333336,
      "d": 28.645833333328483,
      "v": 97
    },
    {
      "midi": 67,
      "hit": false,
      "t": 45752.604166666664,
      "d": 153.64583333332848,
      "v": 95
    },
    {
      "midi": 69,
      "hit": false,
      "t": 45877.604166666664,
      "d": 958.3333333333212,
      "v": 101
    },
    {
      "midi": 64,
      "hit": false,
      "t": 45885.416666666664,
      "d": 257.8124999999927,
      "v": 86
    },
    {
      "midi": 53,
      "hit": false,
      "t": 45885.416666666664,
      "d": 315.10416666665697,
      "v": 80
    },
    {
      "midi": 60,
      "hit": false,
      "t": 45903.64583333333,
      "d": 263.0208333333285,
      "v": 80
    },
    {
      "midi": 41,
      "hit": false,
      "t": 46499.999999999985,
      "d": 39.0625,
      "v": 89
    },
    {
      "midi": 72,
      "hit": false,
      "t": 46820.312499999985,
      "d": 49.47916666666424,
      "v": 83
    },
    {
      "midi": 71,
      "hit": false,
      "t": 46874.999999999985,
      "d": 125,
      "v": 81
    },
    {
      "midi": 72,
      "hit": false,
      "t": 46973.95833333332,
      "d": 130.20833333332848,
      "v": 90
    },
    {
      "midi": 74,
      "hit": false,
      "t": 47080.72916666665,
      "d": 458.33333333333576,
      "v": 103
    },
    {
      "midi": 69,
      "hit": false,
      "t": 47533.85416666665,
      "d": 122.39583333333576,
      "v": 87
    },
    {
      "midi": 74,
      "hit": false,
      "t": 47643.22916666665,
      "d": 177.08333333334303,
      "v": 79
    },
    {
      "midi": 67,
      "hit": false,
      "t": 47643.22916666665,
      "d": 447.9166666666788,
      "v": 88
    },
    {
      "midi": 59,
      "hit": false,
      "t": 47661.45833333332,
      "d": 432.2916666666715,
      "v": 61
    },
    {
      "midi": 52,
      "hit": false,
      "t": 47666.66666666666,
      "d": 520.8333333333358,
      "v": 63
    },
    {
      "midi": 71,
      "hit": false,
      "t": 47989.58333333333,
      "d": 130.20833333332848,
      "v": 81
    },
    {
      "midi": 74,
      "hit": false,
      "t": 48307.29166666666,
      "d": 148.4375,
      "v": 98
    },
    {
      "midi": 57,
      "hit": false,
      "t": 48307.29166666666,
      "d": 291.6666666666715,
      "v": 71
    },
    {
      "midi": 65,
      "hit": false,
      "t": 48307.29166666666,
      "d": 596.3541666666715,
      "v": 89
    },
    {
      "midi": 50,
      "hit": false,
      "t": 48322.91666666666,
      "d": 289.0625000000073,
      "v": 63
    },
    {
      "midi": 72,
      "hit": false,
      "t": 48463.54166666666,
      "d": 44.27083333333576,
      "v": 96
    },
    {
      "midi": 72,
      "hit": false,
      "t": 48614.58333333333,
      "d": 687.5000000000073,
      "v": 94
    },
    {
      "midi": 38,
      "hit": false,
      "t": 48916.666666666664,
      "d": 36.45833333333576,
      "v": 76
    },
    {
      "midi": 71,
      "hit": false,
      "t": 49263.020833333336,
      "d": 283.85416666666424,
      "v": 73
    },
    {
      "midi": 72,
      "hit": false,
      "t": 49606.770833333336,
      "d": 93.75,
      "v": 102
    },
    {
      "midi": 76,
      "hit": false,
      "t": 50132.8125,
      "d": 44.27083333333576,
      "v": 92
    },
    {
      "midi": 81,
      "hit": false,
      "t": 50239.583333333336,
      "d": 138.02083333333576,
      "v": 101
    },
    {
      "midi": 53,
      "hit": false,
      "t": 50244.79166666667,
      "d": 471.35416666666424,
      "v": 74
    },
    {
      "midi": 50,
      "hit": false,
      "t": 50250.00000000001,
      "d": 419.2708333333285,
      "v": 66
    },
    {
      "midi": 48,
      "hit": false,
      "t": 50260.41666666667,
      "d": 510.41666666666424,
      "v": 52
    },
    {
      "midi": 83,
      "hit": false,
      "t": 50567.708333333336,
      "d": 401.04166666666424,
      "v": 92
    },
    {
      "midi": 84,
      "hit": false,
      "t": 50947.91666666667,
      "d": 520.8333333333358,
      "v": 95
    },
    {
      "midi": 55,
      "hit": false,
      "t": 50958.333333333336,
      "d": 364.58333333333576,
      "v": 59
    },
    {
      "midi": 52,
      "hit": false,
      "t": 50968.75,
      "d": 270.83333333333576,
      "v": 56
    },
    {
      "midi": 47,
      "hit": false,
      "t": 50971.354166666664,
      "d": 315.1041666666715,
      "v": 48
    },
    {
      "midi": 83,
      "hit": false,
      "t": 51447.91666666667,
      "d": 109.375,
      "v": 75
    },
    {
      "midi": 81,
      "hit": false,
      "t": 51539.06250000001,
      "d": 39.0625,
      "v": 99
    },
    {
      "midi": 60,
      "hit": false,
      "t": 51565.10416666667,
      "d": 309.89583333333576,
      "v": 66
    },
    {
      "midi": 64,
      "hit": false,
      "t": 51565.10416666667,
      "d": 367.1875000000073,
      "v": 65
    },
    {
      "midi": 59,
      "hit": false,
      "t": 51570.31250000001,
      "d": 385.4166666666715,
      "v": 52
    },
    {
      "midi": 79,
      "hit": false,
      "t": 51888.02083333334,
      "d": 356.77083333333576,
      "v": 101
    },
    {
      "midi": 77,
      "hit": false,
      "t": 52218.75000000001,
      "d": 174.47916666667152,
      "v": 100
    },
    {
      "midi": 65,
      "hit": false,
      "t": 52226.56250000001,
      "d": 341.14583333333576,
      "v": 74
    },
    {
      "midi": 57,
      "hit": false,
      "t": 52239.58333333334,
      "d": 322.9166666666715,
      "v": 64
    },
    {
      "midi": 62,
      "hit": false,
      "t": 52239.58333333334,
      "d": 325.52083333333576,
      "v": 67
    },
    {
      "midi": 60,
      "hit": false,
      "t": 52250.000000000015,
      "d": 359.3749999999927,
      "v": 71
    },
    {
      "midi": 76,
      "hit": false,
      "t": 52671.87500000001,
      "d": 78.125,
      "v": 92
    },
    {
      "midi": 74,
      "hit": false,
      "t": 52776.04166666667,
      "d": 140.625,
      "v": 101
    },
    {
      "midi": 65,
      "hit": false,
      "t": 52794.270833333336,
      "d": 494.7916666666788,
      "v": 74
    },
    {
      "midi": 60,
      "hit": false,
      "t": 52802.083333333336,
      "d": 356.77083333334303,
      "v": 53
    },
    {
      "midi": 56,
      "hit": false,
      "t": 52807.29166666667,
      "d": 507.81250000001455,
      "v": 55
    },
    {
      "midi": 62,
      "hit": false,
      "t": 52812.50000000001,
      "d": 593.7500000000146,
      "v": 68
    },
    {
      "midi": 71,
      "hit": false,
      "t": 53132.81250000001,
      "d": 169.27083333334303,
      "v": 85
    },
    {
      "midi": 55,
      "hit": false,
      "t": 53427.08333333336,
      "d": 479.16666666666424,
      "v": 60
    },
    {
      "midi": 60,
      "hit": false,
      "t": 53440.10416666669,
      "d": 416.66666666666424,
      "v": 63
    },
    {
      "midi": 74,
      "hit": false,
      "t": 53471.35416666669,
      "d": 177.08333333333576,
      "v": 95
    },
    {
      "midi": 65,
      "hit": false,
      "t": 53471.35416666669,
      "d": 359.375,
      "v": 82
    },
    {
      "midi": 72,
      "hit": false,
      "t": 53619.79166666669,
      "d": 46.875,
      "v": 98
    },
    {
      "midi": 72,
      "hit": false,
      "t": 53760.41666666669,
      "d": 744.791666666657,
      "v": 86
    },
    {
      "midi": 43,
      "hit": false,
      "t": 54171.87500000002,
      "d": 41.66666666666424,
      "v": 79
    },
    {
      "midi": 71,
      "hit": false,
      "t": 54471.354166666686,
      "d": 281.25,
      "v": 76
    },
    {
      "midi": 74,
      "hit": false,
      "t": 54760.416666666686,
      "d": 130.20833333332848,
      "v": 71
    },
    {
      "midi": 64,
      "hit": false,
      "t": 54817.70833333335,
      "d": 286.4583333333285,
      "v": 54
    },
    {
      "midi": 72,
      "hit": false,
      "t": 54828.125000000015,
      "d": 552.0833333333358,
      "v": 77
    },
    {
      "midi": 60,
      "hit": false,
      "t": 54835.937500000015,
      "d": 289.0625,
      "v": 44
    },
    {
      "midi": 55,
      "hit": false,
      "t": 54835.937500000015,
      "d": 328.125,
      "v": 45
    },
    {
      "midi": 71,
      "hit": false,
      "t": 55382.812500000015,
      "d": 67.70833333333576,
      "v": 63
    },
    {
      "midi": 72,
      "hit": false,
      "t": 55523.437500000015,
      "d": 270.83333333333576,
      "v": 61
    },
    {
      "midi": 42,
      "hit": false,
      "t": 55528.64583333335,
      "d": 648.4375,
      "v": 44
    },
    {
      "midi": 67,
      "hit": false,
      "t": 55898.437500000015,
      "d": 83.33333333333576,
      "v": 64
    },
    {
      "midi": 41,
      "hit": false,
      "t": 56369.791666666686,
      "d": 283.8541666666715,
      "v": 47
    },
    {
      "midi": 69,
      "hit": false,
      "t": 56375.00000000002,
      "d": 971.3541666666715,
      "v": 70
    },
    {
      "midi": 63,
      "hit": false,
      "t": 57041.66666666669,
      "d": 914.0625000000073,
      "v": 47
    },
    {
      "midi": 57,
      "hit": false,
      "t": 57070.31250000003,
      "d": 898.4375000000073,
      "v": 44
    },
    {
      "midi": 72,
      "hit": false,
      "t": 57369.79166666669,
      "d": 54.6875,
      "v": 75
    },
    {
      "midi": 71,
      "hit": false,
      "t": 57460.93750000003,
      "d": 96.35416666667152,
      "v": 68
    },
    {
      "midi": 72,
      "hit": false,
      "t": 57552.083333333365,
      "d": 122.39583333333576,
      "v": 81
    },
    {
      "midi": 74,
      "hit": false,
      "t": 57664.06250000004,
      "d": 429.6875,
      "v": 84
    },
    {
      "midi": 69,
      "hit": false,
      "t": 58101.56250000004,
      "d": 119.79166666666424,
      "v": 66
    },
    {
      "midi": 63,
      "hit": false,
      "t": 58236.9791666667,
      "d": 195.3125,
      "v": 47
    },
    {
      "midi": 74,
      "hit": false,
      "t": 58244.7916666667,
      "d": 109.375,
      "v": 74
    },
    {
      "midi": 57,
      "hit": false,
      "t": 58257.81250000004,
      "d": 192.70833333332848,
      "v": 47
    },
    {
      "midi": 71,
      "hit": false,
      "t": 58562.50000000003,
      "d": 39.0625,
      "v": 70
    },
    {
      "midi": 74,
      "hit": false,
      "t": 58898.43750000003,
      "d": 171.875,
      "v": 75
    },
    {
      "midi": 40,
      "hit": false,
      "t": 58916.66666666669,
      "d": 322.9166666666715,
      "v": 47
    },
    {
      "midi": 72,
      "hit": false,
      "t": 59062.50000000003,
      "d": 46.875,
      "v": 73
    },
    {
      "midi": 72,
      "hit": false,
      "t": 59195.31250000003,
      "d": 565.1041666666715,
      "v": 67
    },
    {
      "midi": 64,
      "hit": false,
      "t": 59552.083333333365,
      "d": 1385.416666666686,
      "v": 48
    },
    {
      "midi": 57,
      "hit": false,
      "t": 59552.083333333365,
      "d": 1401.041666666686,
      "v": 52
    },
    {
      "midi": 74,
      "hit": false,
      "t": 59880.208333333365,
      "d": 52.08333333333576,
      "v": 64
    },
    {
      "midi": 72,
      "hit": false,
      "t": 59947.9166666667,
      "d": 72.91666666666424,
      "v": 75
    },
    {
      "midi": 74,
      "hit": false,
      "t": 60044.270833333365,
      "d": 62.5,
      "v": 70
    },
    {
      "midi": 76,
      "hit": false,
      "t": 60166.6666666667,
      "d": 494.7916666666715,
      "v": 79
    },
    {
      "midi": 72,
      "hit": false,
      "t": 60674.47916666671,
      "d": 70.3125,
      "v": 56
    },
    {
      "midi": 67,
      "hit": false,
      "t": 60778.64583333338,
      "d": 192.70833333333576,
      "v": 51
    },
    {
      "midi": 69,
      "hit": false,
      "t": 61382.81250000005,
      "d": 80.72916666666424,
      "v": 70
    },
    {
      "midi": 51,
      "hit": false,
      "t": 61398.43750000005,
      "d": 557.2916666666715,
      "v": 43
    },
    {
      "midi": 60,
      "hit": false,
      "t": 61403.64583333339,
      "d": 382.8125,
      "v": 42
    },
    {
      "midi": 55,
      "hit": false,
      "t": 61406.25000000005,
      "d": 481.77083333333576,
      "v": 42
    },
    {
      "midi": 76,
      "hit": false,
      "t": 61726.56250000005,
      "d": 72.91666666667152,
      "v": 78
    },
    {
      "midi": 60,
      "hit": false,
      "t": 62018.22916666672,
      "d": 369.79166666666424,
      "v": 76
    },
    {
      "midi": 69,
      "hit": false,
      "t": 62020.83333333339,
      "d": 98.95833333333576,
      "v": 81
    },
    {
      "midi": 54,
      "hit": false,
      "t": 62023.43750000005,
      "d": 354.1666666666715,
      "v": 64
    },
    {
      "midi": 50,
      "hit": false,
      "t": 62028.64583333339,
      "d": 364.5833333333285,
      "v": 74
    },
    {
      "midi": 76,
      "hit": false,
      "t": 62330.72916666672,
      "d": 174.47916666665697,
      "v": 98
    },
    {
      "midi": 69,
      "hit": false,
      "t": 62619.791666666715,
      "d": 62.5,
      "v": 93
    },
    {
      "midi": 66,
      "hit": false,
      "t": 62619.791666666715,
      "d": 351.5625000000073,
      "v": 85
    },
    {
      "midi": 60,
      "hit": false,
      "t": 62638.02083333338,
      "d": 320.3125000000073,
      "v": 65
    },
    {
      "midi": 57,
      "hit": false,
      "t": 62645.83333333338,
      "d": 320.3125000000073,
      "v": 74
    },
    {
      "midi": 76,
      "hit": false,
      "t": 62937.50000000005,
      "d": 101.56250000000728,
      "v": 100
    },
    {
      "midi": 62,
      "hit": false,
      "t": 63234.37500000006,
      "d": 351.5625,
      "v": 89
    },
    {
      "midi": 56,
      "hit": false,
      "t": 63234.37500000006,
      "d": 393.22916666666424,
      "v": 81
    },
    {
      "midi": 69,
      "hit": false,
      "t": 63239.583333333394,
      "d": 166.66666666666424,
      "v": 98
    },
    {
      "midi": 52,
      "hit": false,
      "t": 63244.79166666673,
      "d": 341.1458333333285,
      "v": 80
    },
    {
      "midi": 76,
      "hit": false,
      "t": 63562.50000000006,
      "d": 140.625,
      "v": 107
    },
    {
      "midi": 62,
      "hit": false,
      "t": 63875.00000000006,
      "d": 437.49999999998545,
      "v": 96
    },
    {
      "midi": 69,
      "hit": false,
      "t": 63875.00000000006,
      "d": 760.416666666657,
      "v": 111
    },
    {
      "midi": 52,
      "hit": false,
      "t": 63880.20833333339,
      "d": 447.91666666665697,
      "v": 88
    },
    {
      "midi": 57,
      "hit": false,
      "t": 63882.81250000005,
      "d": 411.4583333333285,
      "v": 92
    },
    {
      "midi": 45,
      "hit": false,
      "t": 64614.58333333338,
      "d": 49.47916666667152,
      "v": 105
    },
    {
      "midi": 56,
      "hit": false,
      "t": 65252.604166666715,
      "d": 122.39583333333576,
      "v": 82
    },
    {
      "midi": 64,
      "hit": false,
      "t": 65312.50000000005,
      "d": 520.8333333333358,
      "v": 92
    },
    {
      "midi": 61,
      "hit": false,
      "t": 65315.104166666715,
      "d": 580.7291666666715,
      "v": 80
    },
    {
      "midi": 57,
      "hit": false,
      "t": 65322.916666666715,
      "d": 1205.7291666666715,
      "v": 103
    },
    {
      "midi": 33,
      "hit": false,
      "t": 66346.35416666672,
      "d": 33.85416666667152,
      "v": 95
    }
  ]
}