{
  "jsonPath": "Pop/Classic Uk Pop/Tony Christie/rhinestone-cowboy.json",
  "path": "Pop\\Classic Uk Pop\\Tony Christie\\Rhinestone Cowboy.mid",
  "name": "Rhinestone Cowboy",
  "difficulty": "Advanced",
  "bpm": 116.00008506672904,
  "notes": [
    {
      "midi": 1,
      "hit": false,
      "t": 0,
      "d": 2068.9640000000004,
      "v": 1
    },
    {
      "midi": 1,
      "hit": false,
      "t": 0,
      "d": 2025.8605833333336,
      "v": 1
    },
    {
      "midi": 67,
      "hit": false,
      "t": 4154.091781250001,
      "d": 360.991114583333,
      "v": 127
    },
    {
      "midi": 76,
      "hit": false,
      "t": 4154.091781250001,
      "d": 377.1548958333333,
      "v": 127
    },
    {
      "midi": 48,
      "hit": false,
      "t": 4154.091781250001,
      "d": 3970.9022604166666,
      "v": 127
    },
    {
      "midi": 67,
      "hit": false,
      "t": 4671.332781250001,
      "d": 107.75854166666704,
      "v": 127
    },
    {
      "midi": 76,
      "hit": false,
      "t": 4671.332781250001,
      "d": 107.75854166666704,
      "v": 127
    },
    {
      "midi": 76,
      "hit": false,
      "t": 4924.565354166668,
      "d": 80.8189062499996,
      "v": 127
    },
    {
      "midi": 67,
      "hit": false,
      "t": 4924.565354166668,
      "d": 86.20683333333272,
      "v": 127
    },
    {
      "midi": 36,
      "hit": false,
      "t": 4924.565354166668,
      "d": 118.53439583333238,
      "v": 127
    },
    {
      "midi": 67,
      "hit": false,
      "t": 5167.022072916667,
      "d": 102.37061458333301,
      "v": 127
    },
    {
      "midi": 76,
      "hit": false,
      "t": 5167.022072916667,
      "d": 118.53439583333329,
      "v": 127
    },
    {
      "midi": 36,
      "hit": false,
      "t": 5167.022072916667,
      "d": 883.620041666667,
      "v": 127
    },
    {
      "midi": 69,
      "hit": false,
      "t": 5425.642572916667,
      "d": 635.7753958333333,
      "v": 127
    },
    {
      "midi": 77,
      "hit": false,
      "t": 5425.642572916667,
      "d": 651.9391770833336,
      "v": 127
    },
    {
      "midi": 36,
      "hit": false,
      "t": 6201.504072916667,
      "d": 630.3874687500002,
      "v": 127
    },
    {
      "midi": 71,
      "hit": false,
      "t": 6223.05578125,
      "d": 360.991114583333,
      "v": 127
    },
    {
      "midi": 79,
      "hit": false,
      "t": 6223.05578125,
      "d": 360.991114583333,
      "v": 127
    },
    {
      "midi": 71,
      "hit": false,
      "t": 6740.29678125,
      "d": 107.75854166666704,
      "v": 127
    },
    {
      "midi": 79,
      "hit": false,
      "t": 6740.29678125,
      "d": 107.75854166666704,
      "v": 127
    },
    {
      "midi": 71,
      "hit": false,
      "t": 6993.529354166667,
      "d": 86.20683333333363,
      "v": 127
    },
    {
      "midi": 79,
      "hit": false,
      "t": 6993.529354166667,
      "d": 86.20683333333363,
      "v": 127
    },
    {
      "midi": 36,
      "hit": false,
      "t": 6993.529354166667,
      "d": 123.92232291666733,
      "v": 127
    },
    {
      "midi": 36,
      "hit": false,
      "t": 7235.986072916668,
      "d": 840.5166250000002,
      "v": 127
    },
    {
      "midi": 71,
      "hit": false,
      "t": 7257.537781250001,
      "d": 96.98268749999988,
      "v": 127
    },
    {
      "midi": 79,
      "hit": false,
      "t": 7262.925708333334,
      "d": 75.43097916666648,
      "v": 127
    },
    {
      "midi": 69,
      "hit": false,
      "t": 7510.770354166668,
      "d": 565.7323437499999,
      "v": 127
    },
    {
      "midi": 77,
      "hit": false,
      "t": 7510.770354166668,
      "d": 565.7323437499999,
      "v": 127
    },
    {
      "midi": 36,
      "hit": false,
      "t": 8259.69221875,
      "d": 818.9649166666677,
      "v": 127
    },
    {
      "midi": 48,
      "hit": false,
      "t": 8259.69221875,
      "d": 4051.721166666668,
      "v": 127
    },
    {
      "midi": 67,
      "hit": false,
      "t": 8292.019781250001,
      "d": 371.76696875000016,
      "v": 127
    },
    {
      "midi": 76,
      "hit": false,
      "t": 8292.019781250001,
      "d": 387.93074999999953,
      "v": 127
    },
    {
      "midi": 67,
      "hit": false,
      "t": 8798.484927083335,
      "d": 96.98268749999988,
      "v": 127
    },
    {
      "midi": 76,
      "hit": false,
      "t": 8798.484927083335,
      "d": 96.98268749999988,
      "v": 127
    },
    {
      "midi": 67,
      "hit": false,
      "t": 9046.329572916668,
      "d": 96.9826875000017,
      "v": 127
    },
    {
      "midi": 76,
      "hit": false,
      "t": 9046.329572916668,
      "d": 96.9826875000017,
      "v": 127
    },
    {
      "midi": 36,
      "hit": false,
      "t": 9116.372625000002,
      "d": 107.75854166666795,
      "v": 127
    },
    {
      "midi": 67,
      "hit": false,
      "t": 9299.562145833337,
      "d": 145.47403124999983,
      "v": 127
    },
    {
      "midi": 76,
      "hit": false,
      "t": 9299.562145833337,
      "d": 145.47403124999983,
      "v": 127
    },
    {
      "midi": 36,
      "hit": false,
      "t": 9299.562145833337,
      "d": 689.6546666666673,
      "v": 127
    },
    {
      "midi": 69,
      "hit": false,
      "t": 9563.570572916671,
      "d": 506.46514583333374,
      "v": 127
    },
    {
      "midi": 77,
      "hit": false,
      "t": 9563.570572916671,
      "d": 522.6289270833331,
      "v": 127
    },
    {
      "midi": 71,
      "hit": false,
      "t": 10360.983781250005,
      "d": 366.37904166666704,
      "v": 127
    },
    {
      "midi": 36,
      "hit": false,
      "t": 10360.983781250005,
      "d": 581.8961249999993,
      "v": 127
    },
    {
      "midi": 79,
      "hit": false,
      "t": 10366.371708333338,
      "d": 360.9911145833339,
      "v": 127
    },
    {
      "midi": 71,
      "hit": false,
      "t": 10872.836854166671,
      "d": 102.37061458333301,
      "v": 127
    },
    {
      "midi": 79,
      "hit": false,
      "t": 10872.836854166671,
      "d": 102.37061458333301,
      "v": 127
    },
    {
      "midi": 79,
      "hit": false,
      "t": 11115.293572916671,
      "d": 102.37061458333301,
      "v": 127
    },
    {
      "midi": 36,
      "hit": false,
      "t": 11115.293572916671,
      "d": 123.92232291666551,
      "v": 127
    },
    {
      "midi": 71,
      "hit": false,
      "t": 11126.069427083337,
      "d": 91.59476041666676,
      "v": 127
    },
    {
      "midi": 79,
      "hit": false,
      "t": 11384.689927083336,
      "d": 96.98268749999988,
      "v": 127
    },
    {
      "midi": 71,
      "hit": false,
      "t": 11384.689927083336,
      "d": 113.14646874999926,
      "v": 127
    },
    {
      "midi": 36,
      "hit": false,
      "t": 11384.689927083336,
      "d": 689.6546666666654,
      "v": 127
    },
    {
      "midi": 77,
      "hit": false,
      "t": 11654.086281250002,
      "d": 355.6031875000008,
      "v": 127
    },
    {
      "midi": 69,
      "hit": false,
      "t": 11654.086281250002,
      "d": 404.0945312500007,
      "v": 127
    },
    {
      "midi": 64,
      "hit": false,
      "t": 12424.559854166668,
      "d": 1443.964458333332,
      "v": 127
    },
    {
      "midi": 48,
      "hit": false,
      "t": 12424.559854166668,
      "d": 1519.3954374999994,
      "v": 127
    },
    {
      "midi": 55,
      "hit": false,
      "t": 12429.94778125,
      "d": 1406.2489687500001,
      "v": 127
    },
    {
      "midi": 60,
      "hit": false,
      "t": 12429.94778125,
      "d": 1422.4127499999995,
      "v": 127
    },
    {
      "midi": 57,
      "hit": false,
      "t": 13987.058708333334,
      "d": 387.93074999999953,
      "v": 127
    },
    {
      "midi": 60,
      "hit": false,
      "t": 13987.058708333334,
      "d": 420.2583125000001,
      "v": 127
    },
    {
      "midi": 65,
      "hit": false,
      "t": 13992.446635416667,
      "d": 382.5428229166664,
      "v": 127
    },
    {
      "midi": 48,
      "hit": false,
      "t": 14498.91178125,
      "d": 899.7838229166664,
      "v": 127
    },
    {
      "midi": 60,
      "hit": false,
      "t": 14498.91178125,
      "d": 1637.9298333333336,
      "v": 127
    },
    {
      "midi": 64,
      "hit": false,
      "t": 14498.91178125,
      "d": 1654.093614583333,
      "v": 127
    },
    {
      "midi": 55,
      "hit": false,
      "t": 14504.299708333334,
      "d": 1648.7056874999998,
      "v": 127
    },
    {
      "midi": 55,
      "hit": false,
      "t": 16562.487854166666,
      "d": 1379.3093333333345,
      "v": 127
    },
    {
      "midi": 60,
      "hit": false,
      "t": 16562.487854166666,
      "d": 1406.248968750002,
      "v": 127
    },
    {
      "midi": 64,
      "hit": false,
      "t": 16562.487854166666,
      "d": 1422.4127500000031,
      "v": 127
    },
    {
      "midi": 48,
      "hit": false,
      "t": 16562.487854166666,
      "d": 1524.783364583338,
      "v": 127
    },
    {
      "midi": 57,
      "hit": false,
      "t": 18119.598781250003,
      "d": 398.7066041666658,
      "v": 127
    },
    {
      "midi": 65,
      "hit": false,
      "t": 18119.598781250003,
      "d": 398.7066041666658,
      "v": 127
    },
    {
      "midi": 60,
      "hit": false,
      "t": 18119.598781250003,
      "d": 420.2583124999983,
      "v": 127
    },
    {
      "midi": 48,
      "hit": false,
      "t": 18642.227708333336,
      "d": 1492.455802083332,
      "v": 127
    },
    {
      "midi": 55,
      "hit": false,
      "t": 18663.779416666668,
      "d": 1551.7229999999981,
      "v": 127
    },
    {
      "midi": 64,
      "hit": false,
      "t": 18663.779416666668,
      "d": 1567.8867812499993,
      "v": 127
    },
    {
      "midi": 60,
      "hit": false,
      "t": 18663.779416666668,
      "d": 1589.4384895833318,
      "v": 127
    },
    {
      "midi": 60,
      "hit": false,
      "t": 20700.415854166666,
      "d": 1379.3093333333381,
      "v": 127
    },
    {
      "midi": 64,
      "hit": false,
      "t": 20700.415854166666,
      "d": 1379.3093333333381,
      "v": 127
    },
    {
      "midi": 48,
      "hit": false,
      "t": 20705.80378125,
      "d": 285.56013541666834,
      "v": 127
    },
    {
      "midi": 55,
      "hit": false,
      "t": 20705.80378125,
      "d": 1346.9817708333358,
      "v": 127
    },
    {
      "midi": 65,
      "hit": false,
      "t": 22262.914708333337,
      "d": 344.82733333333454,
      "v": 127
    },
    {
      "midi": 57,
      "hit": false,
      "t": 22262.914708333337,
      "d": 355.6031875000008,
      "v": 127
    },
    {
      "midi": 60,
      "hit": false,
      "t": 22262.914708333337,
      "d": 371.766968750002,
      "v": 127
    },
    {
      "midi": 55,
      "hit": false,
      "t": 22769.379854166673,
      "d": 1470.9040937499994,
      "v": 127
    },
    {
      "midi": 60,
      "hit": false,
      "t": 22769.379854166673,
      "d": 1514.0075104166644,
      "v": 127
    },
    {
      "midi": 64,
      "hit": false,
      "t": 22769.379854166673,
      "d": 1530.1712916666656,
      "v": 127
    },
    {
      "midi": 55,
      "hit": false,
      "t": 24838.343854166673,
      "d": 1179.9560312500034,
      "v": 127
    },
    {
      "midi": 59,
      "hit": false,
      "t": 24838.343854166673,
      "d": 1336.2059166666695,
      "v": 127
    },
    {
      "midi": 62,
      "hit": false,
      "t": 24838.343854166673,
      "d": 1352.3696979166707,
      "v": 127
    },
    {
      "midi": 67,
      "hit": false,
      "t": 24843.731781250008,
      "d": 1363.145552083337,
      "v": 127
    },
    {
      "midi": 55,
      "hit": false,
      "t": 26384.678927083343,
      "d": 404.0945312500007,
      "v": 127
    },
    {
      "midi": 60,
      "hit": false,
      "t": 26384.678927083343,
      "d": 420.2583125000019,
      "v": 127
    },
    {
      "midi": 62,
      "hit": false,
      "t": 26384.678927083343,
      "d": 420.2583125000019,
      "v": 127
    },
    {
      "midi": 67,
      "hit": false,
      "t": 26390.06685416668,
      "d": 414.870385416667,
      "v": 127
    },
    {
      "midi": 55,
      "hit": false,
      "t": 26901.919927083345,
      "d": 1115.3009062500023,
      "v": 127
    },
    {
      "midi": 59,
      "hit": false,
      "t": 26907.30785416668,
      "d": 1352.369697916667,
      "v": 127
    },
    {
      "midi": 62,
      "hit": false,
      "t": 26907.30785416668,
      "d": 1352.369697916667,
      "v": 127
    },
    {
      "midi": 67,
      "hit": false,
      "t": 26907.30785416668,
      "d": 1578.6626354166692,
      "v": 127
    },
    {
      "midi": 55,
      "hit": false,
      "t": 28200.41035416668,
      "d": 544.1806354166656,
      "v": 127
    },
    {
      "midi": 62,
      "hit": false,
      "t": 28459.030854166682,
      "d": 285.5601354166647,
      "v": 127
    },
    {
      "midi": 67,
      "hit": false,
      "t": 28701.48757291668,
      "d": 156.24988541666607,
      "v": 127
    },
    {
      "midi": 57,
      "hit": false,
      "t": 28976.27185416668,
      "d": 996.7665104166699,
      "v": 127
    },
    {
      "midi": 60,
      "hit": false,
      "t": 28976.27185416668,
      "d": 1012.9302916666711,
      "v": 127
    },
    {
      "midi": 65,
      "hit": false,
      "t": 28976.27185416668,
      "d": 1012.9302916666711,
      "v": 127
    },
    {
      "midi": 53,
      "hit": false,
      "t": 28981.659781250015,
      "d": 1029.0940729166687,
      "v": 127
    },
    {
      "midi": 65,
      "hit": false,
      "t": 30527.994854166685,
      "d": 328.66355208333334,
      "v": 127
    },
    {
      "midi": 53,
      "hit": false,
      "t": 30527.994854166685,
      "d": 360.9911145833321,
      "v": 127
    },
    {
      "midi": 60,
      "hit": false,
      "t": 30527.994854166685,
      "d": 360.9911145833321,
      "v": 127
    },
    {
      "midi": 58,
      "hit": false,
      "t": 30533.38278125002,
      "d": 371.76696874999834,
      "v": 127
    },
    {
      "midi": 53,
      "hit": false,
      "t": 31029.072072916686,
      "d": 1066.8095625000024,
      "v": 127
    },
    {
      "midi": 60,
      "hit": false,
      "t": 31056.011708333353,
      "d": 1131.4646874999999,
      "v": 127
    },
    {
      "midi": 65,
      "hit": false,
      "t": 31056.011708333353,
      "d": 1131.4646874999999,
      "v": 127
    },
    {
      "midi": 57,
      "hit": false,
      "t": 31061.39963541669,
      "d": 1126.076760416665,
      "v": 127
    },
    {
      "midi": 53,
      "hit": false,
      "t": 32327.56250000002,
      "d": 323.2756249999984,
      "v": 127
    },
    {
      "midi": 65,
      "hit": false,
      "t": 32580.795072916684,
      "d": 409.48245833333203,
      "v": 127
    },
    {
      "midi": 60,
      "hit": false,
      "t": 32591.57092708335,
      "d": 398.7066041666658,
      "v": 127
    },
    {
      "midi": 58,
      "hit": false,
      "t": 32591.57092708335,
      "d": 409.48245833333567,
      "v": 127
    },
    {
      "midi": 65,
      "hit": false,
      "t": 33114.19985416668,
      "d": 1212.2835937499985,
      "v": 127
    },
    {
      "midi": 60,
      "hit": false,
      "t": 33114.19985416668,
      "d": 1228.447374999996,
      "v": 127
    },
    {
      "midi": 53,
      "hit": false,
      "t": 33114.19985416668,
      "d": 1298.4904270833285,
      "v": 127
    },
    {
      "midi": 57,
      "hit": false,
      "t": 33119.58778125002,
      "d": 1190.731885416666,
      "v": 127
    },
    {
      "midi": 60,
      "hit": false,
      "t": 34660.53492708335,
      "d": 355.60318749999715,
      "v": 127
    },
    {
      "midi": 65,
      "hit": false,
      "t": 34660.53492708335,
      "d": 355.60318749999715,
      "v": 127
    },
    {
      "midi": 58,
      "hit": false,
      "t": 34660.53492708335,
      "d": 371.7669687499947,
      "v": 127
    },
    {
      "midi": 53,
      "hit": false,
      "t": 35161.612145833344,
      "d": 824.352843749999,
      "v": 127
    },
    {
      "midi": 60,
      "hit": false,
      "t": 35183.163854166676,
      "d": 581.8961249999993,
      "v": 127
    },
    {
      "midi": 65,
      "hit": false,
      "t": 35183.163854166676,
      "d": 619.6116145833294,
      "v": 127
    },
    {
      "midi": 57,
      "hit": false,
      "t": 35183.163854166676,
      "d": 668.1029583333293,
      "v": 127
    },
    {
      "midi": 57,
      "hit": false,
      "t": 35959.025354166675,
      "d": 242.4567187499997,
      "v": 127
    },
    {
      "midi": 72,
      "hit": false,
      "t": 36217.64585416667,
      "d": 280.17220833332976,
      "v": 127
    },
    {
      "midi": 69,
      "hit": false,
      "t": 36217.64585416667,
      "d": 307.1118437499972,
      "v": 127
    },
    {
      "midi": 67,
      "hit": false,
      "t": 36589.41282291667,
      "d": 274.7842812500021,
      "v": 127
    },
    {
      "midi": 71,
      "hit": false,
      "t": 36589.41282291667,
      "d": 290.94806249999965,
      "v": 127
    },
    {
      "midi": 65,
      "hit": false,
      "t": 36966.56771875,
      "d": 172.41366666666727,
      "v": 127
    },
    {
      "midi": 69,
      "hit": false,
      "t": 36966.56771875,
      "d": 253.2325729166696,
      "v": 127
    },
    {
      "midi": 48,
      "hit": false,
      "t": 37230.576145833336,
      "d": 829.740770833334,
      "v": 127
    },
    {
      "midi": 67,
      "hit": false,
      "t": 37252.12785416667,
      "d": 851.2924791666665,
      "v": 127
    },
    {
      "midi": 64,
      "hit": false,
      "t": 37252.12785416667,
      "d": 883.6200416666688,
      "v": 127
    },
    {
      "midi": 57,
      "hit": false,
      "t": 38782.299145833334,
      "d": 393.3186770833345,
      "v": 127
    },
    {
      "midi": 60,
      "hit": false,
      "t": 38782.299145833334,
      "d": 404.09453125000437,
      "v": 127
    },
    {
      "midi": 65,
      "hit": false,
      "t": 38787.68707291667,
      "d": 371.766968750002,
      "v": 127
    },
    {
      "midi": 48,
      "hit": false,
      "t": 39288.764291666674,
      "d": 619.6116145833294,
      "v": 127
    },
    {
      "midi": 55,
      "hit": false,
      "t": 39304.92807291667,
      "d": 775.8614999999991,
      "v": 127
    },
    {
      "midi": 60,
      "hit": false,
      "t": 39304.92807291667,
      "d": 797.4132083333316,
      "v": 127
    },
    {
      "midi": 64,
      "hit": false,
      "t": 39304.92807291667,
      "d": 851.2924791666665,
      "v": 127
    },
    {
      "midi": 48,
      "hit": false,
      "t": 40075.401645833335,
      "d": 285.5601354166647,
      "v": 127
    },
    {
      "midi": 62,
      "hit": false,
      "t": 40323.24629166667,
      "d": 118.53439583333238,
      "v": 127
    },
    {
      "midi": 67,
      "hit": false,
      "t": 40323.24629166667,
      "d": 867.456260416664,
      "v": 127
    },
    {
      "midi": 64,
      "hit": false,
      "t": 40457.94446875,
      "d": 188.57744791666482,
      "v": 127
    },
    {
      "midi": 60,
      "hit": false,
      "t": 40619.58228125,
      "d": 447.19794791666936,
      "v": 127
    },
    {
      "midi": 64,
      "hit": false,
      "t": 40678.84947916667,
      "d": 511.85307291666686,
      "v": 115
    },
    {
      "midi": 60,
      "hit": false,
      "t": 41136.82328125,
      "d": 113.14646875000471,
      "v": 127
    },
    {
      "midi": 55,
      "hit": false,
      "t": 41373.89207291667,
      "d": 619.6116145833366,
      "v": 127
    },
    {
      "midi": 59,
      "hit": false,
      "t": 41373.89207291667,
      "d": 1357.7576250000056,
      "v": 127
    },
    {
      "midi": 62,
      "hit": false,
      "t": 41373.89207291667,
      "d": 1379.3093333333381,
      "v": 127
    },
    {
      "midi": 67,
      "hit": false,
      "t": 41373.89207291667,
      "d": 1379.3093333333381,
      "v": 127
    },
    {
      "midi": 55,
      "hit": false,
      "t": 42144.36564583334,
      "d": 404.0945312499971,
      "v": 127
    },
    {
      "midi": 55,
      "hit": false,
      "t": 42677.77042708334,
      "d": 237.06879166666477,
      "v": 127
    },
    {
      "midi": 60,
      "hit": false,
      "t": 42925.61507291668,
      "d": 398.7066041666694,
      "v": 127
    },
    {
      "midi": 67,
      "hit": false,
      "t": 42925.61507291668,
      "d": 398.7066041666694,
      "v": 127
    },
    {
      "midi": 62,
      "hit": false,
      "t": 42925.61507291668,
      "d": 414.870385416667,
      "v": 127
    },
    {
      "midi": 55,
      "hit": false,
      "t": 43442.85607291668,
      "d": 608.8357604166667,
      "v": 127
    },
    {
      "midi": 59,
      "hit": false,
      "t": 43464.40778125001,
      "d": 792.0252812500039,
      "v": 127
    },
    {
      "midi": 62,
      "hit": false,
      "t": 43464.40778125001,
      "d": 813.5769895833364,
      "v": 127
    },
    {
      "midi": 67,
      "hit": false,
      "t": 43464.40778125001,
      "d": 845.9045520833388,
      "v": 127
    },
    {
      "midi": 55,
      "hit": false,
      "t": 44229.49342708335,
      "d": 840.5166250000038,
      "v": 127
    },
    {
      "midi": 67,
      "hit": false,
      "t": 44730.57064583335,
      "d": 463.3617291666669,
      "v": 127
    },
    {
      "midi": 62,
      "hit": false,
      "t": 44730.57064583335,
      "d": 479.5255104166645,
      "v": 127
    },
    {
      "midi": 55,
      "hit": false,
      "t": 45237.03579166668,
      "d": 156.2498854166697,
      "v": 127
    },
    {
      "midi": 53,
      "hit": false,
      "t": 45506.43214583335,
      "d": 619.6116145833366,
      "v": 127
    },
    {
      "midi": 57,
      "hit": false,
      "t": 45506.43214583335,
      "d": 867.4562604166713,
      "v": 127
    },
    {
      "midi": 60,
      "hit": false,
      "t": 45506.43214583335,
      "d": 1039.8699270833386,
      "v": 127
    },
    {
      "midi": 65,
      "hit": false,
      "t": 45506.43214583335,
      "d": 1363.1455520833333,
      "v": 127
    },
    {
      "midi": 53,
      "hit": false,
      "t": 46282.29364583336,
      "d": 937.4993124999964,
      "v": 127
    },
    {
      "midi": 57,
      "hit": false,
      "t": 46562.46585416669,
      "d": 619.6116145833366,
      "v": 127
    },
    {
      "midi": 60,
      "hit": false,
      "t": 46804.92257291669,
      "d": 377.1548958333369,
      "v": 127
    },
    {
      "midi": 65,
      "hit": false,
      "t": 47074.31892708335,
      "d": 177.8015937500022,
      "v": 127
    },
    {
      "midi": 64,
      "hit": false,
      "t": 47591.559927083355,
      "d": 1363.1455520833333,
      "v": 127
    },
    {
      "midi": 67,
      "hit": false,
      "t": 47591.559927083355,
      "d": 1487.0678750000006,
      "v": 127
    },
    {
      "midi": 60,
      "hit": false,
      "t": 47596.94785416669,
      "d": 964.4389479166639,
      "v": 127
    },
    {
      "midi": 72,
      "hit": false,
      "t": 47596.94785416669,
      "d": 1896.5503333333327,
      "v": 127
    },
    {
      "midi": 60,
      "hit": false,
      "t": 48884.662427083356,
      "d": 624.9995416666643,
      "v": 127
    },
    {
      "midi": 64,
      "hit": false,
      "t": 49132.50707291669,
      "d": 274.7842812500021,
      "v": 127
    },
    {
      "midi": 67,
      "hit": false,
      "t": 49380.351718750026,
      "d": 156.24988541666244,
      "v": 127
    },
    {
      "midi": 65,
      "hit": false,
      "t": 49649.748072916685,
      "d": 1519.395437500003,
      "v": 127
    },
    {
      "midi": 69,
      "hit": false,
      "t": 49649.748072916685,
      "d": 1540.9471458333355,
      "v": 127
    },
    {
      "midi": 60,
      "hit": false,
      "t": 49649.748072916685,
      "d": 1573.274708333338,
      "v": 127
    },
    {
      "midi": 53,
      "hit": false,
      "t": 49655.13600000002,
      "d": 1519.395437500003,
      "v": 127
    },
    {
      "midi": 62,
      "hit": false,
      "t": 51718.71207291669,
      "d": 1503.2316562499982,
      "v": 127
    },
    {
      "midi": 74,
      "hit": false,
      "t": 51718.71207291669,
      "d": 1519.3954374999958,
      "v": 127
    },
    {
      "midi": 66,
      "hit": false,
      "t": 51718.71207291669,
      "d": 1578.6626354166656,
      "v": 127
    },
    {
      "midi": 55,
      "hit": false,
      "t": 53787.67607291669,
      "d": 641.1633229166619,
      "v": 127
    },
    {
      "midi": 60,
      "hit": false,
      "t": 53787.67607291669,
      "d": 840.5166249999966,
      "v": 127
    },
    {
      "midi": 67,
      "hit": false,
      "t": 53787.67607291669,
      "d": 1330.817989583331,
      "v": 127
    },
    {
      "midi": 62,
      "hit": false,
      "t": 53803.83985416669,
      "d": 851.2924791666665,
      "v": 127
    },
    {
      "midi": 55,
      "hit": false,
      "t": 54585.089281250024,
      "d": 808.1890625000015,
      "v": 127
    },
    {
      "midi": 60,
      "hit": false,
      "t": 54838.32185416669,
      "d": 829.7407708333412,
      "v": 127
    },
    {
      "midi": 62,
      "hit": false,
      "t": 55091.554427083356,
      "d": 592.6719791666692,
      "v": 127
    },
    {
      "midi": 67,
      "hit": false,
      "t": 55334.011145833356,
      "d": 371.766968750002,
      "v": 127
    },
    {
      "midi": 55,
      "hit": false,
      "t": 55592.63164583336,
      "d": 172.41366666666727,
      "v": 127
    },
    {
      "midi": 59,
      "hit": false,
      "t": 55851.25214583336,
      "d": 603.4478333333318,
      "v": 127
    },
    {
      "midi": 62,
      "hit": false,
      "t": 55851.25214583336,
      "d": 619.6116145833294,
      "v": 127
    },
    {
      "midi": 55,
      "hit": false,
      "t": 55856.64007291669,
      "d": 614.2236874999944,
      "v": 127
    },
    {
      "midi": 67,
      "hit": false,
      "t": 55856.64007291669,
      "d": 635.7753958333269,
      "v": 127
    },
    {
      "midi": 53,
      "hit": false,
      "t": 56891.12207291669,
      "d": 323.27562500000204,
      "v": 127
    },
    {
      "midi": 60,
      "hit": false,
      "t": 56891.12207291669,
      "d": 323.27562500000204,
      "v": 127
    },
    {
      "midi": 65,
      "hit": false,
      "t": 56891.12207291669,
      "d": 355.6031875000044,
      "v": 127
    },
    {
      "midi": 69,
      "hit": false,
      "t": 56891.12207291669,
      "d": 355.6031875000044,
      "v": 127
    },
    {
      "midi": 62,
      "hit": false,
      "t": 57397.58721875003,
      "d": 226.29293750000215,
      "v": 127
    },
    {
      "midi": 71,
      "hit": false,
      "t": 57397.58721875003,
      "d": 242.4567187499997,
      "v": 127
    },
    {
      "midi": 55,
      "hit": false,
      "t": 57429.91478125003,
      "d": 161.63781249999738,
      "v": 127
    },
    {
      "midi": 67,
      "hit": false,
      "t": 57429.91478125003,
      "d": 210.12915624999732,
      "v": 127
    },
    {
      "midi": 72,
      "hit": false,
      "t": 57941.7678541667,
      "d": 1223.0594479166684,
      "v": 127
    },
    {
      "midi": 64,
      "hit": false,
      "t": 57947.15578125003,
      "d": 387.93074999999953,
      "v": 127
    },
    {
      "midi": 60,
      "hit": false,
      "t": 57947.15578125003,
      "d": 528.0168541666644,
      "v": 127
    },
    {
      "midi": 67,
      "hit": false,
      "t": 57947.15578125003,
      "d": 1196.119812500001,
      "v": 127
    },
    {
      "midi": 64,
      "hit": false,
      "t": 58453.620927083364,
      "d": 673.4908854166715,
      "v": 127
    },
    {
      "midi": 60,
      "hit": false,
      "t": 58701.4655729167,
      "d": 156.2498854166697,
      "v": 127
    },
    {
      "midi": 60,
      "hit": false,
      "t": 58970.861927083366,
      "d": 188.57744791666482,
      "v": 127
    },
    {
      "midi": 60,
      "hit": false,
      "t": 59493.4908541667,
      "d": 334.0514791666719,
      "v": 127
    },
    {
      "midi": 65,
      "hit": false,
      "t": 59493.4908541667,
      "d": 366.3790416666743,
      "v": 127
    },
    {
      "midi": 69,
      "hit": false,
      "t": 59493.4908541667,
      "d": 393.31867708334175,
      "v": 127
    },
    {
      "midi": 72,
      "hit": false,
      "t": 59498.87878125004,
      "d": 355.6031875000044,
      "v": 127
    },
    {
      "midi": 60,
      "hit": false,
      "t": 59989.18014583338,
      "d": 581.8961249999993,
      "v": 127
    },
    {
      "midi": 72,
      "hit": false,
      "t": 59989.18014583338,
      "d": 1470.904093750003,
      "v": 127
    },
    {
      "midi": 64,
      "hit": false,
      "t": 59989.18014583338,
      "d": 1503.2316562500055,
      "v": 127
    },
    {
      "midi": 67,
      "hit": false,
      "t": 59994.568072916714,
      "d": 1514.007510416668,
      "v": 127
    },
    {
      "midi": 60,
      "hit": false,
      "t": 60765.04164583338,
      "d": 150.86195833333477,
      "v": 127
    },
    {
      "midi": 60,
      "hit": false,
      "t": 61045.213854166715,
      "d": 603.4478333333318,
      "v": 127
    },
    {
      "midi": 72,
      "hit": false,
      "t": 61573.23070833338,
      "d": 134.6981770833372,
      "v": 127
    },
    {
      "midi": 74,
      "hit": false,
      "t": 61821.075354166715,
      "d": 113.14646874999744,
      "v": 127
    },
    {
      "midi": 60,
      "hit": false,
      "t": 62085.08378125005,
      "d": 490.30136458333436,
      "v": 127
    },
    {
      "midi": 67,
      "hit": false,
      "t": 62085.08378125005,
      "d": 867.456260416664,
      "v": 127
    },
    {
      "midi": 71,
      "hit": false,
      "t": 62085.08378125005,
      "d": 1330.817989583331,
      "v": 127
    },
    {
      "midi": 76,
      "hit": false,
      "t": 62090.47170833338,
      "d": 1567.8867812499957,
      "v": 127
    },
    {
      "midi": 60,
      "hit": false,
      "t": 62855.55735416671,
      "d": 781.249427083334,
      "v": 127
    },
    {
      "midi": 67,
      "hit": false,
      "t": 63356.63457291671,
      "d": 554.9564895833391,
      "v": 127
    },
    {
      "midi": 71,
      "hit": false,
      "t": 63631.41885416671,
      "d": 280.17220833333704,
      "v": 127
    },
    {
      "midi": 76,
      "hit": false,
      "t": 63884.65142708338,
      "d": 107.75854166666977,
      "v": 127
    },
    {
      "midi": 60,
      "hit": false,
      "t": 64143.271927083384,
      "d": 608.8357604166667,
      "v": 127
    },
    {
      "midi": 71,
      "hit": false,
      "t": 64143.271927083384,
      "d": 1206.8956666666709,
      "v": 127
    },
    {
      "midi": 79,
      "hit": false,
      "t": 64148.65985416672,
      "d": 1632.5419062500005,
      "v": 127
    },
    {
      "midi": 76,
      "hit": false,
      "t": 64148.65985416672,
      "d": 1648.705687499998,
      "v": 127
    },
    {
      "midi": 60,
      "hit": false,
      "t": 64924.52135416672,
      "d": 872.844187499999,
      "v": 127
    },
    {
      "midi": 71,
      "hit": false,
      "t": 65711.15870833339,
      "d": 118.5343958333251,
      "v": 127
    },
    {
      "midi": 62,
      "hit": false,
      "t": 66223.01178125004,
      "d": 1681.0332499999931,
      "v": 127
    },
    {
      "midi": 74,
      "hit": false,
      "t": 66239.17556250004,
      "d": 592.6719791666692,
      "v": 127
    },
    {
      "midi": 65,
      "hit": false,
      "t": 66460.0805729167,
      "d": 878.2321145833412,
      "v": 127
    },
    {
      "midi": 69,
      "hit": false,
      "t": 66718.70107291671,
      "d": 899.7838229166664,
      "v": 127
    },
    {
      "midi": 74,
      "hit": false,
      "t": 66977.32157291671,
      "d": 1848.058989583311,
      "v": 127
    },
    {
      "midi": 65,
      "hit": false,
      "t": 67494.56257291671,
      "d": 619.6116145833221,
      "v": 127
    },
    {
      "midi": 69,
      "hit": false,
      "t": 67774.73478125004,
      "d": 479.5255104166572,
      "v": 127
    },
    {
      "midi": 62,
      "hit": false,
      "t": 68038.74320833337,
      "d": 544.180635416662,
      "v": 127
    },
    {
      "midi": 71,
      "hit": false,
      "t": 68265.03614583336,
      "d": 765.0856458333292,
      "v": 127
    },
    {
      "midi": 67,
      "hit": false,
      "t": 68539.82042708337,
      "d": 371.7669687499874,
      "v": 127
    },
    {
      "midi": 62,
      "hit": false,
      "t": 68782.27714583336,
      "d": 414.870385416667,
      "v": 127
    },
    {
      "midi": 71,
      "hit": false,
      "t": 69057.06142708336,
      "d": 156.24988541666244,
      "v": 127
    },
    {
      "midi": 74,
      "hit": false,
      "t": 69057.06142708336,
      "d": 156.24988541666244,
      "v": 127
    },
    {
      "midi": 65,
      "hit": false,
      "t": 69321.0698541667,
      "d": 425.64623958333686,
      "v": 127
    },
    {
      "midi": 69,
      "hit": false,
      "t": 69321.0698541667,
      "d": 452.5858750000043,
      "v": 127
    },
    {
      "midi": 72,
      "hit": false,
      "t": 69321.0698541667,
      "d": 468.74965625000186,
      "v": 127
    },
    {
      "midi": 71,
      "hit": false,
      "t": 69843.69878125003,
      "d": 237.06879166666477,
      "v": 127
    },
    {
      "midi": 74,
      "hit": false,
      "t": 69843.69878125003,
      "d": 242.45671874999243,
      "v": 127
    },
    {
      "midi": 67,
      "hit": false,
      "t": 69843.69878125003,
      "d": 258.62049999999,
      "v": 127
    },
    {
      "midi": 60,
      "hit": false,
      "t": 70339.38807291668,
      "d": 571.1202708333294,
      "v": 127
    },
    {
      "midi": 67,
      "hit": false,
      "t": 70344.77600000001,
      "d": 387.93074999999953,
      "v": 127
    },
    {
      "midi": 76,
      "hit": false,
      "t": 70344.77600000001,
      "d": 1298.4904270833358,
      "v": 127
    },
    {
      "midi": 67,
      "hit": false,
      "t": 70867.40492708335,
      "d": 748.9218645833316,
      "v": 127
    },
    {
      "midi": 60,
      "hit": false,
      "t": 71115.24957291668,
      "d": 204.74122916666965,
      "v": 127
    },
    {
      "midi": 60,
      "hit": false,
      "t": 71654.04228125002,
      "d": 226.29293749999488,
      "v": 127
    },
    {
      "midi": 69,
      "hit": false,
      "t": 71923.43863541668,
      "d": 404.0945312499971,
      "v": 127
    },
    {
      "midi": 72,
      "hit": false,
      "t": 71923.43863541668,
      "d": 404.0945312499971,
      "v": 127
    },
    {
      "midi": 77,
      "hit": false,
      "t": 71923.43863541668,
      "d": 420.25831249999464,
      "v": 127
    },
    {
      "midi": 60,
      "hit": false,
      "t": 72435.29170833335,
      "d": 511.85307291666686,
      "v": 127
    },
    {
      "midi": 76,
      "hit": false,
      "t": 72435.29170833335,
      "d": 1594.8264166666777,
      "v": 127
    },
    {
      "midi": 67,
      "hit": false,
      "t": 72440.67963541667,
      "d": 856.6804062500014,
      "v": 127
    },
    {
      "midi": 72,
      "hit": false,
      "t": 72467.61927083334,
      "d": 1266.1628645833553,
      "v": 127
    },
    {
      "midi": 60,
      "hit": false,
      "t": 73184.21357291668,
      "d": 323.2756250000093,
      "v": 127
    },
    {
      "midi": 67,
      "hit": false,
      "t": 73458.99785416668,
      "d": 889.0079687500111,
      "v": 127
    },
    {
      "midi": 60,
      "hit": false,
      "t": 73712.23042708336,
      "d": 414.870385416667,
      "v": 127
    },
    {
      "midi": 72,
      "hit": false,
      "t": 73970.85092708336,
      "d": 307.1118437499972,
      "v": 127
    },
    {
      "midi": 74,
      "hit": false,
      "t": 74234.85935416669,
      "d": 172.41366666666,
      "v": 127
    },
    {
      "midi": 67,
      "hit": false,
      "t": 74509.64363541668,
      "d": 646.5512499999895,
      "v": 127
    },
    {
      "midi": 76,
      "hit": false,
      "t": 74509.64363541668,
      "d": 1072.1974895833264,
      "v": 127
    },
    {
      "midi": 71,
      "hit": false,
      "t": 74515.03156250001,
      "d": 792.0252812499966,
      "v": 127
    },
    {
      "midi": 64,
      "hit": false,
      "t": 74515.03156250001,
      "d": 1390.0851874999935,
      "v": 127
    },
    {
      "midi": 67,
      "hit": false,
      "t": 75263.95342708334,
      "d": 878.2321145833266,
      "v": 127
    },
    {
      "midi": 71,
      "hit": false,
      "t": 75522.57392708334,
      "d": 765.0856458333292,
      "v": 127
    },
    {
      "midi": 76,
      "hit": false,
      "t": 75781.19442708333,
      "d": 506.4651458333392,
      "v": 127
    },
    {
      "midi": 67,
      "hit": false,
      "t": 76287.65957291667,
      "d": 150.86195833333477,
      "v": 127
    },
    {
      "midi": 60,
      "hit": false,
      "t": 76546.28007291668,
      "d": 576.5081979166571,
      "v": 127
    },
    {
      "midi": 67,
      "hit": false,
      "t": 76546.28007291668,
      "d": 797.4132083333243,
      "v": 127
    },
    {
      "midi": 71,
      "hit": false,
      "t": 76578.60763541667,
      "d": 748.9218645833316,
      "v": 127
    },
    {
      "midi": 76,
      "hit": false,
      "t": 76578.60763541667,
      "d": 915.947604166664,
      "v": 127
    },
    {
      "midi": 60,
      "hit": false,
      "t": 77338.30535416667,
      "d": 317.88769791665254,
      "v": 127
    },
    {
      "midi": 76,
      "hit": false,
      "t": 77596.92585416666,
      "d": 689.6546666666545,
      "v": 127
    },
    {
      "midi": 79,
      "hit": false,
      "t": 77602.31378124999,
      "d": 651.9391770833317,
      "v": 127
    },
    {
      "midi": 60,
      "hit": false,
      "t": 77839.38257291666,
      "d": 247.84464583333465,
      "v": 127
    },
    {
      "midi": 72,
      "hit": false,
      "t": 78119.55478124999,
      "d": 199.35330208332743,
      "v": 127
    },
    {
      "midi": 60,
      "hit": false,
      "t": 78351.23564583331,
      "d": 86.20683333333,
      "v": 127
    },
    {
      "midi": 65,
      "hit": false,
      "t": 78631.40785416664,
      "d": 404.0945312499971,
      "v": 127
    },
    {
      "midi": 62,
      "hit": false,
      "t": 78631.40785416664,
      "d": 598.0599062499969,
      "v": 127
    },
    {
      "midi": 69,
      "hit": false,
      "t": 78631.40785416664,
      "d": 657.3271041666594,
      "v": 127
    },
    {
      "midi": 74,
      "hit": false,
      "t": 78631.40785416664,
      "d": 840.5166249999893,
      "v": 127
    },
    {
      "midi": 65,
      "hit": false,
      "t": 79154.03678124998,
      "d": 651.9391770833172,
      "v": 127
    },
    {
      "midi": 69,
      "hit": false,
      "t": 79391.10557291663,
      "d": 3119.609781249994,
      "v": 127
    },
    {
      "midi": 74,
      "hit": false,
      "t": 79671.27778124996,
      "d": 2855.6013541666616,
      "v": 127
    },
    {
      "midi": 65,
      "hit": false,
      "t": 79929.89828124996,
      "d": 414.870385416667,
      "v": 127
    },
    {
      "midi": 65,
      "hit": false,
      "t": 80420.19964583329,
      "d": 1961.2054583333374,
      "v": 127
    },
    {
      "midi": 65,
      "hit": false,
      "t": 82780.11170833328,
      "d": 754.3097916666593,
      "v": 127
    },
    {
      "midi": 64,
      "hit": false,
      "t": 83529.03357291661,
      "d": 770.4735729166568,
      "v": 127
    },
    {
      "midi": 62,
      "hit": false,
      "t": 84304.8950729166,
      "d": 792.0252812499966,
      "v": 127
    },
    {
      "midi": 60,
      "hit": false,
      "t": 85091.53242708326,
      "d": 781.2494270833267,
      "v": 127
    },
    {
      "midi": 59,
      "hit": false,
      "t": 85867.39392708326,
      "d": 533.4047812499921,
      "v": 127
    },
    {
      "midi": 57,
      "hit": false,
      "t": 86400.79870833326,
      "d": 495.68929166665475,
      "v": 127
    },
    {
      "midi": 55,
      "hit": false,
      "t": 86891.10007291658,
      "d": 781.2494270833267,
      "v": 127
    },
    {
      "midi": 53,
      "hit": false,
      "t": 87666.96157291658,
      "d": 770.4735729166568,
      "v": 127
    },
    {
      "midi": 52,
      "hit": false,
      "t": 88453.59892708324,
      "d": 808.1890624999942,
      "v": 127
    },
    {
      "midi": 50,
      "hit": false,
      "t": 89234.84835416656,
      "d": 366.3790416666743,
      "v": 127
    },
    {
      "midi": 53,
      "hit": false,
      "t": 89994.54607291656,
      "d": 328.663552083337,
      "v": 127
    },
    {
      "midi": 57,
      "hit": false,
      "t": 89994.54607291656,
      "d": 355.6031875000044,
      "v": 127
    },
    {
      "midi": 60,
      "hit": false,
      "t": 89994.54607291656,
      "d": 371.766968750002,
      "v": 127
    },
    {
      "midi": 62,
      "hit": false,
      "t": 90527.95085416657,
      "d": 237.06879166666477,
      "v": 127
    },
    {
      "midi": 55,
      "hit": false,
      "t": 90527.95085416657,
      "d": 258.62050000000454,
      "v": 127
    },
    {
      "midi": 59,
      "hit": false,
      "t": 90527.95085416657,
      "d": 258.62050000000454,
      "v": 127
    },
    {
      "midi": 64,
      "hit": false,
      "t": 91045.19185416658,
      "d": 1443.9644583333284,
      "v": 127
    },
    {
      "midi": 48,
      "hit": false,
      "t": 91045.19185416658,
      "d": 1519.3954374999885,
      "v": 127
    },
    {
      "midi": 55,
      "hit": false,
      "t": 91050.57978124991,
      "d": 1406.2489687500056,
      "v": 127
    },
    {
      "midi": 60,
      "hit": false,
      "t": 91050.57978124991,
      "d": 1422.4127500000031,
      "v": 127
    },
    {
      "midi": 57,
      "hit": false,
      "t": 92607.69070833323,
      "d": 387.93074999999953,
      "v": 127
    },
    {
      "midi": 60,
      "hit": false,
      "t": 92607.69070833323,
      "d": 420.25831249999464,
      "v": 127
    },
    {
      "midi": 65,
      "hit": false,
      "t": 92613.07863541656,
      "d": 382.54282291667187,
      "v": 127
    },
    {
      "midi": 48,
      "hit": false,
      "t": 93119.5437812499,
      "d": 899.7838229166664,
      "v": 127
    },
    {
      "midi": 60,
      "hit": false,
      "t": 93119.5437812499,
      "d": 1637.9298333333281,
      "v": 127
    },
    {
      "midi": 64,
      "hit": false,
      "t": 93119.5437812499,
      "d": 1654.0936145833257,
      "v": 127
    },
    {
      "midi": 55,
      "hit": false,
      "t": 93124.93170833323,
      "d": 1648.705687499998,
      "v": 127
    },
    {
      "midi": 55,
      "hit": false,
      "t": 95183.11985416657,
      "d": 1379.3093333333381,
      "v": 127
    },
    {
      "midi": 60,
      "hit": false,
      "t": 95183.11985416657,
      "d": 1406.2489687500056,
      "v": 127
    },
    {
      "midi": 64,
      "hit": false,
      "t": 95183.11985416657,
      "d": 1422.4127500000031,
      "v": 127
    },
    {
      "midi": 48,
      "hit": false,
      "t": 95183.11985416657,
      "d": 1524.7833645833307,
      "v": 127
    },
    {
      "midi": 57,
      "hit": false,
      "t": 96740.23078124989,
      "d": 398.70660416665487,
      "v": 127
    },
    {
      "midi": 60,
      "hit": false,
      "t": 96740.23078124989,
      "d": 420.25831249999464,
      "v": 127
    },
    {
      "midi": 65,
      "hit": false,
      "t": 96745.61870833322,
      "d": 393.3186770833272,
      "v": 127
    },
    {
      "midi": 48,
      "hit": false,
      "t": 97262.85970833321,
      "d": 1492.4558020833356,
      "v": 127
    },
    {
      "midi": 55,
      "hit": false,
      "t": 97284.41141666655,
      "d": 1551.7229999999981,
      "v": 127
    },
    {
      "midi": 64,
      "hit": false,
      "t": 97284.41141666655,
      "d": 1567.8867812499957,
      "v": 127
    },
    {
      "midi": 60,
      "hit": false,
      "t": 97284.41141666655,
      "d": 1589.4384895833355,
      "v": 127
    },
    {
      "midi": 60,
      "hit": false,
      "t": 99321.04785416655,
      "d": 1379.3093333333381,
      "v": 127
    },
    {
      "midi": 64,
      "hit": false,
      "t": 99321.04785416655,
      "d": 1379.3093333333381,
      "v": 127
    },
    {
      "midi": 48,
      "hit": false,
      "t": 99326.43578124988,
      "d": 285.560135416672,
      "v": 127
    },
    {
      "midi": 55,
      "hit": false,
      "t": 99326.43578124988,
      "d": 1346.981770833343,
      "v": 127
    },
    {
      "midi": 65,
      "hit": false,
      "t": 100883.54670833322,
      "d": 344.82733333333454,
      "v": 127
    },
    {
      "midi": 60,
      "hit": false,
      "t": 100883.54670833322,
      "d": 371.766968750002,
      "v": 127
    },
    {
      "midi": 57,
      "hit": false,
      "t": 100888.93463541655,
      "d": 350.21526041667676,
      "v": 127
    },
    {
      "midi": 55,
      "hit": false,
      "t": 101390.01185416656,
      "d": 1470.9040937499958,
      "v": 127
    },
    {
      "midi": 60,
      "hit": false,
      "t": 101390.01185416656,
      "d": 1514.0075104166608,
      "v": 127
    },
    {
      "midi": 64,
      "hit": false,
      "t": 101390.01185416656,
      "d": 1530.1712916666584,
      "v": 127
    },
    {
      "midi": 55,
      "hit": false,
      "t": 103458.97585416655,
      "d": 1179.9560312499962,
      "v": 127
    },
    {
      "midi": 59,
      "hit": false,
      "t": 103458.97585416655,
      "d": 1336.2059166666586,
      "v": 127
    },
    {
      "midi": 62,
      "hit": false,
      "t": 103458.97585416655,
      "d": 1352.3696979166562,
      "v": 127
    },
    {
      "midi": 67,
      "hit": false,
      "t": 103464.36378124988,
      "d": 1363.145552083326,
      "v": 127
    },
    {
      "midi": 55,
      "hit": false,
      "t": 105005.3109270832,
      "d": 404.0945312499971,
      "v": 127
    },
    {
      "midi": 60,
      "hit": false,
      "t": 105005.3109270832,
      "d": 420.25831249999464,
      "v": 127
    },
    {
      "midi": 62,
      "hit": false,
      "t": 105010.69885416653,
      "d": 414.870385416667,
      "v": 127
    },
    {
      "midi": 67,
      "hit": false,
      "t": 105010.69885416653,
      "d": 414.870385416667,
      "v": 127
    },
    {
      "midi": 55,
      "hit": false,
      "t": 105522.5519270832,
      "d": 1115.3009062499914,
      "v": 127
    },
    {
      "midi": 59,
      "hit": false,
      "t": 105527.93985416653,
      "d": 1352.3696979166562,
      "v": 127
    },
    {
      "midi": 62,
      "hit": false,
      "t": 105527.93985416653,
      "d": 1352.3696979166562,
      "v": 127
    },
    {
      "midi": 67,
      "hit": false,
      "t": 105527.93985416653,
      "d": 1578.662635416651,
      "v": 127
    },
    {
      "midi": 55,
      "hit": false,
      "t": 106821.04235416652,
      "d": 544.180635416662,
      "v": 127
    },
    {
      "midi": 62,
      "hit": false,
      "t": 107079.66285416651,
      "d": 285.560135416672,
      "v": 127
    },
    {
      "midi": 67,
      "hit": false,
      "t": 107322.11957291652,
      "d": 156.24988541666244,
      "v": 127
    },
    {
      "midi": 57,
      "hit": false,
      "t": 107596.90385416652,
      "d": 996.7665104166663,
      "v": 127
    },
    {
      "midi": 60,
      "hit": false,
      "t": 107596.90385416652,
      "d": 1012.9302916666638,
      "v": 127
    },
    {
      "midi": 65,
      "hit": false,
      "t": 107602.29178124985,
      "d": 1007.5423645833362,
      "v": 127
    },
    {
      "midi": 53,
      "hit": false,
      "t": 107602.29178124985,
      "d": 1029.094072916676,
      "v": 127
    },
    {
      "midi": 65,
      "hit": false,
      "t": 109148.62685416652,
      "d": 328.66355208332243,
      "v": 127
    },
    {
      "midi": 53,
      "hit": false,
      "t": 109148.62685416652,
      "d": 360.99111458331754,
      "v": 127
    },
    {
      "midi": 60,
      "hit": false,
      "t": 109148.62685416652,
      "d": 360.99111458331754,
      "v": 127
    },
    {
      "midi": 58,
      "hit": false,
      "t": 109154.01478124985,
      "d": 371.7669687499874,
      "v": 127
    },
    {
      "midi": 53,
      "hit": false,
      "t": 109649.7040729165,
      "d": 1066.8095624999987,
      "v": 127
    },
    {
      "midi": 60,
      "hit": false,
      "t": 109676.64370833317,
      "d": 1131.4646875000035,
      "v": 127
    },
    {
      "midi": 65,
      "hit": false,
      "t": 109676.64370833317,
      "d": 1131.4646875000035,
      "v": 127
    },
    {
      "midi": 57,
      "hit": false,
      "t": 109682.0316354165,
      "d": 1126.0767604166758,
      "v": 127
    },
    {
      "midi": 53,
      "hit": false,
      "t": 110948.19449999984,
      "d": 323.27562499999476,
      "v": 127
    },
    {
      "midi": 65,
      "hit": false,
      "t": 111201.4270729165,
      "d": 409.4824583333393,
      "v": 127
    },
    {
      "midi": 60,
      "hit": false,
      "t": 111212.20292708317,
      "d": 398.7066041666694,
      "v": 127
    },
    {
      "midi": 58,
      "hit": false,
      "t": 111212.20292708317,
      "d": 409.4824583333393,
      "v": 127
    },
    {
      "midi": 65,
      "hit": false,
      "t": 111734.8318541665,
      "d": 1212.2835937499913,
      "v": 127
    },
    {
      "midi": 60,
      "hit": false,
      "t": 111734.8318541665,
      "d": 1228.4473749999888,
      "v": 127
    },
    {
      "midi": 53,
      "hit": false,
      "t": 111734.8318541665,
      "d": 1298.4904270833213,
      "v": 127
    },
    {
      "midi": 57,
      "hit": false,
      "t": 111740.21978124983,
      "d": 1190.731885416666,
      "v": 127
    },
    {
      "midi": 60,
      "hit": false,
      "t": 113281.16692708316,
      "d": 355.6031875000044,
      "v": 127
    },
    {
      "midi": 65,
      "hit": false,
      "t": 113281.16692708316,
      "d": 355.6031875000044,
      "v": 127
    },
    {
      "midi": 58,
      "hit": false,
      "t": 113281.16692708316,
      "d": 371.766968750002,
      "v": 127
    },
    {
      "midi": 53,
      "hit": false,
      "t": 113782.24414583316,
      "d": 824.3528437500063,
      "v": 127
    },
    {
      "midi": 57,
      "hit": false,
      "t": 113798.40792708316,
      "d": 673.4908854166715,
      "v": 127
    },
    {
      "midi": 60,
      "hit": false,
      "t": 113803.79585416648,
      "d": 581.8961249999993,
      "v": 127
    },
    {
      "midi": 65,
      "hit": false,
      "t": 113803.79585416648,
      "d": 619.6116145833366,
      "v": 127
    },
    {
      "midi": 57,
      "hit": false,
      "t": 114579.6573541665,
      "d": 242.45671875000698,
      "v": 127
    },
    {
      "midi": 72,
      "hit": false,
      "t": 114838.2778541665,
      "d": 280.17220833332976,
      "v": 127
    },
    {
      "midi": 69,
      "hit": false,
      "t": 114838.2778541665,
      "d": 307.1118437499972,
      "v": 127
    },
    {
      "midi": 71,
      "hit": false,
      "t": 115210.0448229165,
      "d": 290.94806249999965,
      "v": 127
    },
    {
      "midi": 67,
      "hit": false,
      "t": 115210.0448229165,
      "d": 1514.0075104166608,
      "v": 127
    },
    {
      "midi": 65,
      "hit": false,
      "t": 115587.19971874983,
      "d": 172.41366666666,
      "v": 127
    },
    {
      "midi": 69,
      "hit": false,
      "t": 115587.19971874983,
      "d": 253.23257291666232,
      "v": 127
    },
    {
      "midi": 48,
      "hit": false,
      "t": 115851.20814583317,
      "d": 829.740770833334,
      "v": 127
    },
    {
      "midi": 64,
      "hit": false,
      "t": 115872.7598541665,
      "d": 883.6200416666543,
      "v": 127
    },
    {
      "midi": 57,
      "hit": false,
      "t": 117402.93114583316,
      "d": 393.3186770833272,
      "v": 127
    },
    {
      "midi": 60,
      "hit": false,
      "t": 117402.93114583316,
      "d": 404.0945312499971,
      "v": 127
    },
    {
      "midi": 65,
      "hit": false,
      "t": 117408.31907291649,
      "d": 371.766968750002,
      "v": 127
    },
    {
      "midi": 48,
      "hit": false,
      "t": 117909.39629166649,
      "d": 619.6116145833221,
      "v": 127
    },
    {
      "midi": 55,
      "hit": false,
      "t": 117925.56007291649,
      "d": 775.8614999999845,
      "v": 127
    },
    {
      "midi": 60,
      "hit": false,
      "t": 117925.56007291649,
      "d": 797.4132083333243,
      "v": 127
    },
    {
      "midi": 64,
      "hit": false,
      "t": 117930.94799999981,
      "d": 845.9045520833315,
      "v": 127
    },
    {
      "midi": 48,
      "hit": false,
      "t": 118696.03364583314,
      "d": 285.560135416672,
      "v": 127
    },
    {
      "midi": 62,
      "hit": false,
      "t": 118943.87829166648,
      "d": 118.53439583333966,
      "v": 127
    },
    {
      "midi": 67,
      "hit": false,
      "t": 118943.87829166648,
      "d": 867.4562604166713,
      "v": 127
    },
    {
      "midi": 64,
      "hit": false,
      "t": 119078.57646874982,
      "d": 188.5774479166721,
      "v": 127
    },
    {
      "midi": 60,
      "hit": false,
      "t": 119240.21428124982,
      "d": 447.1979479166621,
      "v": 127
    },
    {
      "midi": 64,
      "hit": false,
      "t": 119299.48147916648,
      "d": 511.85307291666686,
      "v": 115
    },
    {
      "midi": 60,
      "hit": false,
      "t": 119762.84320833314,
      "d": 107.75854166666977,
      "v": 127
    },
    {
      "midi": 55,
      "hit": false,
      "t": 119994.52407291648,
      "d": 619.6116145833221,
      "v": 127
    },
    {
      "midi": 59,
      "hit": false,
      "t": 119994.52407291648,
      "d": 1357.7576249999838,
      "v": 127
    },
    {
      "midi": 62,
      "hit": false,
      "t": 119994.52407291648,
      "d": 1379.3093333333236,
      "v": 127
    },
    {
      "midi": 67,
      "hit": false,
      "t": 119999.91199999981,
      "d": 1373.921406249996,
      "v": 127
    },
    {
      "midi": 55,
      "hit": false,
      "t": 120764.99764583314,
      "d": 404.0945312499971,
      "v": 127
    },
    {
      "midi": 55,
      "hit": false,
      "t": 121298.40242708313,
      "d": 237.06879166667932,
      "v": 127
    },
    {
      "midi": 60,
      "hit": false,
      "t": 121546.24707291648,
      "d": 398.7066041666694,
      "v": 127
    },
    {
      "midi": 67,
      "hit": false,
      "t": 121546.24707291648,
      "d": 398.7066041666694,
      "v": 127
    },
    {
      "midi": 62,
      "hit": false,
      "t": 121546.24707291648,
      "d": 414.870385416667,
      "v": 127
    },
    {
      "midi": 55,
      "hit": false,
      "t": 122063.48807291647,
      "d": 608.8357604166667,
      "v": 127
    },
    {
      "midi": 59,
      "hit": false,
      "t": 122085.03978124981,
      "d": 792.0252812499966,
      "v": 127
    },
    {
      "midi": 62,
      "hit": false,
      "t": 122085.03978124981,
      "d": 813.5769895833364,
      "v": 127
    },
    {
      "midi": 67,
      "hit": false,
      "t": 122085.03978124981,
      "d": 845.9045520833315,
      "v": 127
    },
    {
      "midi": 55,
      "hit": false,
      "t": 122850.12542708314,
      "d": 840.5166250000038,
      "v": 127
    },
    {
      "midi": 67,
      "hit": false,
      "t": 123351.20264583314,
      "d": 463.3617291666742,
      "v": 127
    },
    {
      "midi": 62,
      "hit": false,
      "t": 123351.20264583314,
      "d": 479.52551041667175,
      "v": 127
    },
    {
      "midi": 55,
      "hit": false,
      "t": 123857.66779166648,
      "d": 156.24988541666244,
      "v": 127
    },
    {
      "midi": 57,
      "hit": false,
      "t": 124127.06414583314,
      "d": 867.4562604166567,
      "v": 127
    },
    {
      "midi": 60,
      "hit": false,
      "t": 124127.06414583314,
      "d": 1039.8699270833167,
      "v": 127
    },
    {
      "midi": 65,
      "hit": false,
      "t": 124127.06414583314,
      "d": 1363.145552083326,
      "v": 127
    },
    {
      "midi": 53,
      "hit": false,
      "t": 124132.45207291647,
      "d": 614.2236874999944,
      "v": 127
    },
    {
      "midi": 53,
      "hit": false,
      "t": 124902.92564583312,
      "d": 937.4993125000183,
      "v": 127
    },
    {
      "midi": 57,
      "hit": false,
      "t": 125183.09785416645,
      "d": 619.6116145833512,
      "v": 127
    },
    {
      "midi": 60,
      "hit": false,
      "t": 125425.55457291646,
      "d": 377.1548958333442,
      "v": 127
    },
    {
      "midi": 65,
      "hit": false,
      "t": 125694.95092708313,
      "d": 177.8015937500022,
      "v": 127
    },
    {
      "midi": 64,
      "hit": false,
      "t": 126212.19192708314,
      "d": 1363.145552083326,
      "v": 127
    },
    {
      "midi": 60,
      "hit": false,
      "t": 126217.57985416647,
      "d": 964.4389479166712,
      "v": 127
    },
    {
      "midi": 67,
      "hit": false,
      "t": 126217.57985416647,
      "d": 1481.6799479166657,
      "v": 127
    },
    {
      "midi": 72,
      "hit": false,
      "t": 126217.57985416647,
      "d": 1896.5503333333327,
      "v": 127
    },
    {
      "midi": 60,
      "hit": false,
      "t": 127505.29442708314,
      "d": 624.9995416666643,
      "v": 127
    },
    {
      "midi": 64,
      "hit": false,
      "t": 127753.13907291647,
      "d": 274.7842812500021,
      "v": 127
    },
    {
      "midi": 67,
      "hit": false,
      "t": 128000.9837187498,
      "d": 156.24988541666244,
      "v": 127
    },
    {
      "midi": 65,
      "hit": false,
      "t": 128270.38007291646,
      "d": 1519.3954374999885,
      "v": 127
    },
    {
      "midi": 69,
      "hit": false,
      "t": 128270.38007291646,
      "d": 1540.9471458333137,
      "v": 127
    },
    {
      "midi": 60,
      "hit": false,
      "t": 128270.38007291646,
      "d": 1573.2747083333088,
      "v": 127
    },
    {
      "midi": 53,
      "hit": false,
      "t": 128275.76799999979,
      "d": 1519.3954374999885,
      "v": 127
    },
    {
      "midi": 62,
      "hit": false,
      "t": 130339.34407291644,
      "d": 1503.2316562500055,
      "v": 127
    },
    {
      "midi": 74,
      "hit": false,
      "t": 130339.34407291644,
      "d": 1519.3954375000176,
      "v": 127
    },
    {
      "midi": 66,
      "hit": false,
      "t": 130339.34407291644,
      "d": 1578.6626354166801,
      "v": 127
    },
    {
      "midi": 55,
      "hit": false,
      "t": 132408.30807291646,
      "d": 641.163322916691,
      "v": 127
    },
    {
      "midi": 60,
      "hit": false,
      "t": 132408.30807291646,
      "d": 840.5166250000475,
      "v": 127
    },
    {
      "midi": 67,
      "hit": false,
      "t": 132408.30807291646,
      "d": 1330.8179895833891,
      "v": 127
    },
    {
      "midi": 62,
      "hit": false,
      "t": 132424.47185416648,
      "d": 851.2924791667028,
      "v": 127
    },
    {
      "midi": 55,
      "hit": false,
      "t": 133205.72128124983,
      "d": 808.1890625000233,
      "v": 127
    },
    {
      "midi": 60,
      "hit": false,
      "t": 133458.95385416652,
      "d": 829.740770833334,
      "v": 127
    },
    {
      "midi": 62,
      "hit": false,
      "t": 133712.1864270832,
      "d": 592.6719791666837,
      "v": 127
    },
    {
      "midi": 67,
      "hit": false,
      "t": 133954.6431458332,
      "d": 371.76696875001653,
      "v": 127
    },
    {
      "midi": 55,
      "hit": false,
      "t": 134213.26364583318,
      "d": 172.4136666666891,
      "v": 127
    },
    {
      "midi": 59,
      "hit": false,
      "t": 134471.8841458332,
      "d": 603.4478333333391,
      "v": 127
    },
    {
      "midi": 55,
      "hit": false,
      "t": 134471.8841458332,
      "d": 619.6116145833512,
      "v": 127
    },
    {
      "midi": 62,
      "hit": false,
      "t": 134471.8841458332,
      "d": 619.6116145833512,
      "v": 127
    },
    {
      "midi": 67,
      "hit": false,
      "t": 134471.8841458332,
      "d": 641.163322916691,
      "v": 127
    },
    {
      "midi": 60,
      "hit": false,
      "t": 135511.75407291655,
      "d": 323.2756249999802,
      "v": 127
    },
    {
      "midi": 65,
      "hit": false,
      "t": 135511.75407291655,
      "d": 355.6031874999753,
      "v": 127
    },
    {
      "midi": 69,
      "hit": false,
      "t": 135511.75407291655,
      "d": 355.6031874999753,
      "v": 127
    },
    {
      "midi": 53,
      "hit": false,
      "t": 135517.14199999988,
      "d": 317.88769791665254,
      "v": 127
    },
    {
      "midi": 62,
      "hit": false,
      "t": 136018.21921874984,
      "d": 226.29293749999488,
      "v": 127
    },
    {
      "midi": 71,
      "hit": false,
      "t": 136018.21921874984,
      "d": 242.45671875000698,
      "v": 127
    },
    {
      "midi": 55,
      "hit": false,
      "t": 136050.54678124984,
      "d": 161.63781250000466,
      "v": 127
    },
    {
      "midi": 67,
      "hit": false,
      "t": 136050.54678124984,
      "d": 210.12915625001187,
      "v": 127
    },
    {
      "midi": 64,
      "hit": false,
      "t": 136567.78778124985,
      "d": 387.93074999999953,
      "v": 127
    },
    {
      "midi": 60,
      "hit": false,
      "t": 136567.78778124985,
      "d": 528.0168541666644,
      "v": 127
    },
    {
      "midi": 67,
      "hit": false,
      "t": 136567.78778124985,
      "d": 1196.1198125000228,
      "v": 127
    },
    {
      "midi": 72,
      "hit": false,
      "t": 136567.78778124985,
      "d": 1217.6715208333626,
      "v": 127
    },
    {
      "midi": 64,
      "hit": false,
      "t": 137068.86499999985,
      "d": 678.8788125000137,
      "v": 127
    },
    {
      "midi": 60,
      "hit": false,
      "t": 137322.0975729165,
      "d": 156.249885416677,
      "v": 127
    },
    {
      "midi": 60,
      "hit": false,
      "t": 137591.49392708318,
      "d": 188.5774479167012,
      "v": 127
    },
    {
      "midi": 60,
      "hit": false,
      "t": 138114.12285416655,
      "d": 334.05147916666465,
      "v": 127
    },
    {
      "midi": 65,
      "hit": false,
      "t": 138114.12285416655,
      "d": 366.37904166665976,
      "v": 127
    },
    {
      "midi": 72,
      "hit": false,
      "t": 138119.51078124988,
      "d": 355.6031875000044,
      "v": 127
    },
    {
      "midi": 69,
      "hit": false,
      "t": 138119.51078124988,
      "d": 387.93074999999953,
      "v": 127
    },
    {
      "midi": 60,
      "hit": false,
      "t": 138609.81214583322,
      "d": 581.8961249999993,
      "v": 127
    },
    {
      "midi": 72,
      "hit": false,
      "t": 138609.81214583322,
      "d": 1470.9040937499958,
      "v": 127
    },
    {
      "midi": 64,
      "hit": false,
      "t": 138609.81214583322,
      "d": 1503.231656249991,
      "v": 127
    },
    {
      "midi": 67,
      "hit": false,
      "t": 138615.20007291654,
      "d": 1514.0075104166754,
      "v": 127
    },
    {
      "midi": 60,
      "hit": false,
      "t": 139385.67364583322,
      "d": 150.86195833332022,
      "v": 127
    },
    {
      "midi": 60,
      "hit": false,
      "t": 139665.84585416655,
      "d": 603.4478333333391,
      "v": 127
    },
    {
      "midi": 72,
      "hit": false,
      "t": 140193.8627083332,
      "d": 134.6981770833372,
      "v": 127
    },
    {
      "midi": 74,
      "hit": false,
      "t": 140441.70735416654,
      "d": 113.14646874999744,
      "v": 127
    },
    {
      "midi": 60,
      "hit": false,
      "t": 140705.71578124986,
      "d": 490.30136458334164,
      "v": 127
    },
    {
      "midi": 67,
      "hit": false,
      "t": 140705.71578124986,
      "d": 867.4562604166858,
      "v": 127
    },
    {
      "midi": 71,
      "hit": false,
      "t": 140711.1037083332,
      "d": 1325.4300625000324,
      "v": 127
    },
    {
      "midi": 76,
      "hit": false,
      "t": 140711.1037083332,
      "d": 1567.8867812500393,
      "v": 127
    },
    {
      "midi": 60,
      "hit": false,
      "t": 141476.18935416653,
      "d": 781.2494270833558,
      "v": 127
    },
    {
      "midi": 67,
      "hit": false,
      "t": 141977.26657291656,
      "d": 554.9564895833319,
      "v": 127
    },
    {
      "midi": 71,
      "hit": false,
      "t": 142252.05085416656,
      "d": 280.17220833332976,
      "v": 127
    },
    {
      "midi": 76,
      "hit": false,
      "t": 142505.28342708322,
      "d": 107.75854166666977,
      "v": 127
    },
    {
      "midi": 60,
      "hit": false,
      "t": 142763.9039270832,
      "d": 608.8357604166667,
      "v": 127
    },
    {
      "midi": 71,
      "hit": false,
      "t": 142769.29185416654,
      "d": 1201.5077395833214,
      "v": 127
    },
    {
      "midi": 79,
      "hit": false,
      "t": 142769.29185416654,
      "d": 1632.5419062500005,
      "v": 127
    },
    {
      "midi": 76,
      "hit": false,
      "t": 142769.29185416654,
      "d": 1648.7056875000126,
      "v": 127
    },
    {
      "midi": 60,
      "hit": false,
      "t": 143545.15335416654,
      "d": 872.8441875000135,
      "v": 127
    },
    {
      "midi": 71,
      "hit": false,
      "t": 144331.7907083332,
      "d": 118.53439583335421,
      "v": 127
    },
    {
      "midi": 62,
      "hit": false,
      "t": 144843.64378124988,
      "d": 1681.0332500000077,
      "v": 127
    },
    {
      "midi": 74,
      "hit": false,
      "t": 144859.8075624999,
      "d": 592.6719791666546,
      "v": 127
    },
    {
      "midi": 65,
      "hit": false,
      "t": 145080.71257291656,
      "d": 878.2321145833121,
      "v": 127
    },
    {
      "midi": 69,
      "hit": false,
      "t": 145339.33307291655,
      "d": 899.7838229166518,
      "v": 127
    },
    {
      "midi": 74,
      "hit": false,
      "t": 145597.95357291654,
      "d": 1848.058989583369,
      "v": 127
    },
    {
      "midi": 65,
      "hit": false,
      "t": 146115.19457291655,
      "d": 619.6116145833512,
      "v": 127
    },
    {
      "midi": 69,
      "hit": false,
      "t": 146395.36678124988,
      "d": 479.5255104166863,
      "v": 127
    },
    {
      "midi": 62,
      "hit": false,
      "t": 146659.37520833322,
      "d": 544.1806354166765,
      "v": 127
    },
    {
      "midi": 71,
      "hit": false,
      "t": 146885.66814583322,
      "d": 765.0856458333437,
      "v": 127
    },
    {
      "midi": 67,
      "hit": false,
      "t": 147160.45242708322,
      "d": 371.76696875001653,
      "v": 127
    },
    {
      "midi": 62,
      "hit": false,
      "t": 147402.90914583323,
      "d": 414.870385416667,
      "v": 127
    },
    {
      "midi": 71,
      "hit": false,
      "t": 147677.69342708323,
      "d": 156.249885416677,
      "v": 127
    },
    {
      "midi": 74,
      "hit": false,
      "t": 147677.69342708323,
      "d": 156.249885416677,
      "v": 127
    },
    {
      "midi": 65,
      "hit": false,
      "t": 147941.70185416657,
      "d": 425.6462395833223,
      "v": 127
    },
    {
      "midi": 69,
      "hit": false,
      "t": 147941.70185416657,
      "d": 452.58587499998976,
      "v": 127
    },
    {
      "midi": 72,
      "hit": false,
      "t": 147941.70185416657,
      "d": 468.74965625000186,
      "v": 127
    },
    {
      "midi": 71,
      "hit": false,
      "t": 148464.3307812499,
      "d": 237.06879166667932,
      "v": 127
    },
    {
      "midi": 74,
      "hit": false,
      "t": 148464.3307812499,
      "d": 242.45671875000698,
      "v": 127
    },
    {
      "midi": 67,
      "hit": false,
      "t": 148464.3307812499,
      "d": 258.6205000000191,
      "v": 127
    },
    {
      "midi": 60,
      "hit": false,
      "t": 148960.0200729166,
      "d": 571.120270833344,
      "v": 127
    },
    {
      "midi": 67,
      "hit": false,
      "t": 148965.40799999994,
      "d": 387.93074999999953,
      "v": 127
    },
    {
      "midi": 76,
      "hit": false,
      "t": 148965.40799999994,
      "d": 1298.4904270833358,
      "v": 127
    },
    {
      "midi": 67,
      "hit": false,
      "t": 149488.03692708327,
      "d": 748.9218645833316,
      "v": 127
    },
    {
      "midi": 60,
      "hit": false,
      "t": 149735.8815729166,
      "d": 204.7412291666551,
      "v": 127
    },
    {
      "midi": 60,
      "hit": false,
      "t": 150274.67428124993,
      "d": 226.29293749999488,
      "v": 127
    },
    {
      "midi": 69,
      "hit": false,
      "t": 150544.0706354166,
      "d": 404.09453124998254,
      "v": 127
    },
    {
      "midi": 77,
      "hit": false,
      "t": 150544.0706354166,
      "d": 420.25831249999464,
      "v": 127
    },
    {
      "midi": 72,
      "hit": false,
      "t": 150549.45856249993,
      "d": 398.70660416665487,
      "v": 127
    },
    {
      "midi": 60,
      "hit": false,
      "t": 151055.92370833326,
      "d": 511.8530729166523,
      "v": 127
    },
    {
      "midi": 67,
      "hit": false,
      "t": 151055.92370833326,
      "d": 862.0683333333291,
      "v": 127
    },
    {
      "midi": 76,
      "hit": false,
      "t": 151055.92370833326,
      "d": 1594.8264166666777,
      "v": 127
    },
    {
      "midi": 72,
      "hit": false,
      "t": 151088.25127083325,
      "d": 1266.1628645833407,
      "v": 127
    },
    {
      "midi": 60,
      "hit": false,
      "t": 151804.8455729166,
      "d": 323.2756250000093,
      "v": 127
    },
    {
      "midi": 67,
      "hit": false,
      "t": 152079.6298541666,
      "d": 889.0079687500547,
      "v": 127
    },
    {
      "midi": 60,
      "hit": false,
      "t": 152332.86242708325,
      "d": 414.8703854166961,
      "v": 127
    },
    {
      "midi": 72,
      "hit": false,
      "t": 152591.48292708327,
      "d": 307.1118437500263,
      "v": 127
    },
    {
      "midi": 74,
      "hit": false,
      "t": 152855.49135416662,
      "d": 172.4136666666891,
      "v": 127
    },
    {
      "midi": 67,
      "hit": false,
      "t": 153130.27563541665,
      "d": 646.5512499999895,
      "v": 127
    },
    {
      "midi": 71,
      "hit": false,
      "t": 153130.27563541665,
      "d": 797.4132083333388,
      "v": 127
    },
    {
      "midi": 76,
      "hit": false,
      "t": 153130.27563541665,
      "d": 1072.197489583341,
      "v": 127
    },
    {
      "midi": 64,
      "hit": false,
      "t": 153135.66356249998,
      "d": 1390.0851874999935,
      "v": 127
    },
    {
      "midi": 67,
      "hit": false,
      "t": 153884.5854270833,
      "d": 878.2321145833412,
      "v": 127
    },
    {
      "midi": 71,
      "hit": false,
      "t": 154148.59385416665,
      "d": 759.697718749987,
      "v": 127
    },
    {
      "midi": 76,
      "hit": false,
      "t": 154401.82642708332,
      "d": 506.46514583332464,
      "v": 127
    },
    {
      "midi": 67,
      "hit": false,
      "t": 154908.29157291664,
      "d": 150.86195833332022,
      "v": 127
    },
    {
      "midi": 60,
      "hit": false,
      "t": 155166.91207291663,
      "d": 576.5081979166716,
      "v": 127
    },
    {
      "midi": 67,
      "hit": false,
      "t": 155166.91207291663,
      "d": 797.4132083333097,
      "v": 127
    },
    {
      "midi": 71,
      "hit": false,
      "t": 155199.23963541663,
      "d": 748.9218645833316,
      "v": 127
    },
    {
      "midi": 76,
      "hit": false,
      "t": 155199.23963541663,
      "d": 915.9476041666348,
      "v": 127
    },
    {
      "midi": 60,
      "hit": false,
      "t": 155958.9373541666,
      "d": 317.88769791665254,
      "v": 127
    },
    {
      "midi": 76,
      "hit": false,
      "t": 156217.5578541666,
      "d": 689.6546666666691,
      "v": 127
    },
    {
      "midi": 79,
      "hit": false,
      "t": 156222.94578124993,
      "d": 651.9391770833463,
      "v": 127
    },
    {
      "midi": 60,
      "hit": false,
      "t": 156460.0145729166,
      "d": 247.84464583333465,
      "v": 127
    },
    {
      "midi": 72,
      "hit": false,
      "t": 156740.18678124994,
      "d": 199.35330208332743,
      "v": 127
    },
    {
      "midi": 60,
      "hit": false,
      "t": 156971.86764583326,
      "d": 86.20683333333,
      "v": 127
    },
    {
      "midi": 65,
      "hit": false,
      "t": 157252.0398541666,
      "d": 404.09453125001164,
      "v": 127
    },
    {
      "midi": 62,
      "hit": false,
      "t": 157252.0398541666,
      "d": 598.0599062500114,
      "v": 127
    },
    {
      "midi": 69,
      "hit": false,
      "t": 157252.0398541666,
      "d": 657.327104166674,
      "v": 127
    },
    {
      "midi": 74,
      "hit": false,
      "t": 157252.0398541666,
      "d": 840.5166250000184,
      "v": 127
    },
    {
      "midi": 65,
      "hit": false,
      "t": 157774.66878124993,
      "d": 651.9391770833463,
      "v": 127
    },
    {
      "midi": 69,
      "hit": false,
      "t": 158011.7375729166,
      "d": 3119.6097812500084,
      "v": 127
    },
    {
      "midi": 74,
      "hit": false,
      "t": 158291.90978124994,
      "d": 2855.6013541666907,
      "v": 127
    },
    {
      "midi": 65,
      "hit": false,
      "t": 158550.53028124993,
      "d": 414.870385416667,
      "v": 127
    },
    {
      "midi": 65,
      "hit": false,
      "t": 159040.83164583327,
      "d": 1961.2054583333374,
      "v": 127
    },
    {
      "midi": 65,
      "hit": false,
      "t": 161400.7437083333,
      "d": 754.3097916666593,
      "v": 127
    },
    {
      "midi": 64,
      "hit": false,
      "t": 162149.66557291662,
      "d": 770.4735729166714,
      "v": 127
    },
    {
      "midi": 62,
      "hit": false,
      "t": 162925.52707291662,
      "d": 792.0252812499821,
      "v": 127
    },
    {
      "midi": 60,
      "hit": false,
      "t": 163712.16442708328,
      "d": 781.2494270833267,
      "v": 127
    },
    {
      "midi": 59,
      "hit": false,
      "t": 164488.02592708328,
      "d": 533.4047812499921,
      "v": 127
    },
    {
      "midi": 57,
      "hit": false,
      "t": 165021.43070833327,
      "d": 495.6892916666693,
      "v": 127
    },
    {
      "midi": 55,
      "hit": false,
      "t": 165511.7320729166,
      "d": 781.2494270833267,
      "v": 127
    },
    {
      "midi": 53,
      "hit": false,
      "t": 166287.5935729166,
      "d": 770.4735729166714,
      "v": 127
    },
    {
      "midi": 52,
      "hit": false,
      "t": 167074.2309270833,
      "d": 808.1890624999942,
      "v": 127
    },
    {
      "midi": 50,
      "hit": false,
      "t": 167855.48035416662,
      "d": 366.37904166665976,
      "v": 127
    },
    {
      "midi": 53,
      "hit": false,
      "t": 168615.1780729166,
      "d": 328.663552083337,
      "v": 127
    },
    {
      "midi": 57,
      "hit": false,
      "t": 168615.1780729166,
      "d": 355.6031875000044,
      "v": 127
    },
    {
      "midi": 60,
      "hit": false,
      "t": 168615.1780729166,
      "d": 371.76696875001653,
      "v": 127
    },
    {
      "midi": 62,
      "hit": false,
      "t": 169148.58285416663,
      "d": 237.06879166667932,
      "v": 127
    },
    {
      "midi": 55,
      "hit": false,
      "t": 169148.58285416663,
      "d": 258.6205000000191,
      "v": 127
    },
    {
      "midi": 59,
      "hit": false,
      "t": 169148.58285416663,
      "d": 258.6205000000191,
      "v": 127
    },
    {
      "midi": 72,
      "hit": false,
      "t": 169665.82385416664,
      "d": 1223.0594479166903,
      "v": 127
    },
    {
      "midi": 64,
      "hit": false,
      "t": 169671.21178124996,
      "d": 387.93074999999953,
      "v": 127
    },
    {
      "midi": 60,
      "hit": false,
      "t": 169671.21178124996,
      "d": 528.0168541666644,
      "v": 127
    },
    {
      "midi": 67,
      "hit": false,
      "t": 169671.21178124996,
      "d": 1196.1198125000228,
      "v": 127
    },
    {
      "midi": 64,
      "hit": false,
      "t": 170177.6769270833,
      "d": 673.4908854166861,
      "v": 127
    },
    {
      "midi": 60,
      "hit": false,
      "t": 170425.52157291662,
      "d": 156.249885416677,
      "v": 127
    },
    {
      "midi": 60,
      "hit": false,
      "t": 170694.9179270833,
      "d": 188.5774479167012,
      "v": 127
    },
    {
      "midi": 60,
      "hit": false,
      "t": 171217.54685416666,
      "d": 334.05147916666465,
      "v": 127
    },
    {
      "midi": 65,
      "hit": false,
      "t": 171217.54685416666,
      "d": 366.37904166665976,
      "v": 127
    },
    {
      "midi": 69,
      "hit": false,
      "t": 171217.54685416666,
      "d": 393.3186770833272,
      "v": 127
    },
    {
      "midi": 72,
      "hit": false,
      "t": 171222.93478125,
      "d": 355.6031875000044,
      "v": 127
    },
    {
      "midi": 60,
      "hit": false,
      "t": 171713.23614583333,
      "d": 581.8961249999993,
      "v": 127
    },
    {
      "midi": 72,
      "hit": false,
      "t": 171713.23614583333,
      "d": 1470.9040937499958,
      "v": 127
    },
    {
      "midi": 64,
      "hit": false,
      "t": 171713.23614583333,
      "d": 1503.231656249991,
      "v": 127
    },
    {
      "midi": 67,
      "hit": false,
      "t": 171718.62407291666,
      "d": 1514.0075104166754,
      "v": 127
    },
    {
      "midi": 60,
      "hit": false,
      "t": 172489.09764583333,
      "d": 150.86195833332022,
      "v": 127
    },
    {
      "midi": 60,
      "hit": false,
      "t": 172769.26985416666,
      "d": 603.4478333333391,
      "v": 127
    },
    {
      "midi": 72,
      "hit": false,
      "t": 173297.28670833333,
      "d": 134.6981770833372,
      "v": 127
    },
    {
      "midi": 74,
      "hit": false,
      "t": 173545.13135416666,
      "d": 113.14646874999744,
      "v": 127
    },
    {
      "midi": 60,
      "hit": false,
      "t": 173809.13978124998,
      "d": 490.30136458334164,
      "v": 127
    },
    {
      "midi": 67,
      "hit": false,
      "t": 173809.13978124998,
      "d": 867.4562604166858,
      "v": 127
    },
    {
      "midi": 71,
      "hit": false,
      "t": 173814.5277083333,
      "d": 1325.4300625000324,
      "v": 127
    },
    {
      "midi": 76,
      "hit": false,
      "t": 173814.5277083333,
      "d": 1567.8867812500393,
      "v": 127
    },
    {
      "midi": 60,
      "hit": false,
      "t": 174579.61335416665,
      "d": 781.2494270833558,
      "v": 127
    },
    {
      "midi": 67,
      "hit": false,
      "t": 175080.69057291668,
      "d": 554.9564895833319,
      "v": 127
    },
    {
      "midi": 71,
      "hit": false,
      "t": 175355.47485416668,
      "d": 280.17220833332976,
      "v": 127
    },
    {
      "midi": 76,
      "hit": false,
      "t": 175608.70742708334,
      "d": 107.75854166666977,
      "v": 127
    },
    {
      "midi": 60,
      "hit": false,
      "t": 175867.32792708333,
      "d": 608.8357604166667,
      "v": 127
    },
    {
      "midi": 71,
      "hit": false,
      "t": 175872.71585416666,
      "d": 1201.5077395833214,
      "v": 127
    },
    {
      "midi": 79,
      "hit": false,
      "t": 175872.71585416666,
      "d": 1632.5419062500005,
      "v": 127
    },
    {
      "midi": 76,
      "hit": false,
      "t": 175872.71585416666,
      "d": 1648.7056875000126,
      "v": 127
    },
    {
      "midi": 60,
      "hit": false,
      "t": 176648.57735416666,
      "d": 872.8441875000135,
      "v": 127
    },
    {
      "midi": 71,
      "hit": false,
      "t": 177435.2147083333,
      "d": 118.53439583335421,
      "v": 127
    },
    {
      "midi": 62,
      "hit": false,
      "t": 177947.06778125,
      "d": 1681.0332500000077,
      "v": 127
    },
    {
      "midi": 74,
      "hit": false,
      "t": 177963.2315625,
      "d": 592.6719791666546,
      "v": 127
    },
    {
      "midi": 65,
      "hit": false,
      "t": 178184.13657291667,
      "d": 878.2321145833121,
      "v": 127
    },
    {
      "midi": 69,
      "hit": false,
      "t": 178442.75707291666,
      "d": 899.7838229166518,
      "v": 127
    },
    {
      "midi": 74,
      "hit": false,
      "t": 178701.37757291665,
      "d": 1848.058989583369,
      "v": 127
    },
    {
      "midi": 65,
      "hit": false,
      "t": 179218.61857291666,
      "d": 619.6116145833512,
      "v": 127
    },
    {
      "midi": 69,
      "hit": false,
      "t": 179498.79078125,
      "d": 479.5255104166863,
      "v": 127
    },
    {
      "midi": 62,
      "hit": false,
      "t": 179762.79920833334,
      "d": 544.1806354166765,
      "v": 127
    },
    {
      "midi": 71,
      "hit": false,
      "t": 179989.09214583333,
      "d": 765.0856458333437,
      "v": 127
    },
    {
      "midi": 67,
      "hit": false,
      "t": 180263.87642708333,
      "d": 371.76696875001653,
      "v": 127
    },
    {
      "midi": 62,
      "hit": false,
      "t": 180506.33314583334,
      "d": 414.870385416667,
      "v": 127
    },
    {
      "midi": 71,
      "hit": false,
      "t": 180781.11742708334,
      "d": 156.249885416677,
      "v": 127
    },
    {
      "midi": 74,
      "hit": false,
      "t": 180781.11742708334,
      "d": 156.249885416677,
      "v": 127
    },
    {
      "midi": 65,
      "hit": false,
      "t": 181045.1258541667,
      "d": 425.6462395833223,
      "v": 127
    },
    {
      "midi": 69,
      "hit": false,
      "t": 181045.1258541667,
      "d": 452.58587499998976,
      "v": 127
    },
    {
      "midi": 72,
      "hit": false,
      "t": 181045.1258541667,
      "d": 468.74965625000186,
      "v": 127
    },
    {
      "midi": 71,
      "hit": false,
      "t": 181567.75478125003,
      "d": 237.06879166667932,
      "v": 127
    },
    {
      "midi": 74,
      "hit": false,
      "t": 181567.75478125003,
      "d": 242.45671875000698,
      "v": 127
    },
    {
      "midi": 67,
      "hit": false,
      "t": 181567.75478125003,
      "d": 258.6205000000191,
      "v": 127
    },
    {
      "midi": 67,
      "hit": false,
      "t": 182063.44407291673,
      "d": 393.3186770833272,
      "v": 127
    },
    {
      "midi": 60,
      "hit": false,
      "t": 182063.44407291673,
      "d": 571.120270833344,
      "v": 127
    },
    {
      "midi": 76,
      "hit": false,
      "t": 182068.83200000005,
      "d": 1298.4904270833358,
      "v": 127
    },
    {
      "midi": 67,
      "hit": false,
      "t": 182591.4609270834,
      "d": 748.9218645833316,
      "v": 127
    },
    {
      "midi": 60,
      "hit": false,
      "t": 182839.30557291672,
      "d": 204.7412291666551,
      "v": 127
    },
    {
      "midi": 60,
      "hit": false,
      "t": 183378.09828125004,
      "d": 226.29293749999488,
      "v": 127
    },
    {
      "midi": 69,
      "hit": false,
      "t": 183647.49463541672,
      "d": 404.09453125001164,
      "v": 127
    },
    {
      "midi": 72,
      "hit": false,
      "t": 183647.49463541672,
      "d": 404.09453125001164,
      "v": 127
    },
    {
      "midi": 77,
      "hit": false,
      "t": 183647.49463541672,
      "d": 420.25831250002375,
      "v": 127
    },
    {
      "midi": 60,
      "hit": false,
      "t": 184159.3477083334,
      "d": 511.8530729166523,
      "v": 127
    },
    {
      "midi": 67,
      "hit": false,
      "t": 184159.3477083334,
      "d": 862.0683333333291,
      "v": 127
    },
    {
      "midi": 76,
      "hit": false,
      "t": 184159.3477083334,
      "d": 1594.8264166666777,
      "v": 127
    },
    {
      "midi": 72,
      "hit": false,
      "t": 184191.6752708334,
      "d": 1266.1628645833407,
      "v": 127
    },
    {
      "midi": 60,
      "hit": false,
      "t": 184908.26957291673,
      "d": 323.2756250000093,
      "v": 127
    },
    {
      "midi": 67,
      "hit": false,
      "t": 185183.05385416673,
      "d": 889.0079687500547,
      "v": 127
    },
    {
      "midi": 60,
      "hit": false,
      "t": 185436.2864270834,
      "d": 414.8703854166961,
      "v": 127
    },
    {
      "midi": 72,
      "hit": false,
      "t": 185694.90692708342,
      "d": 307.1118437500263,
      "v": 127
    },
    {
      "midi": 74,
      "hit": false,
      "t": 185958.91535416676,
      "d": 172.4136666666891,
      "v": 127
    },
    {
      "midi": 67,
      "hit": false,
      "t": 186233.6996354168,
      "d": 646.5512499999895,
      "v": 127
    },
    {
      "midi": 71,
      "hit": false,
      "t": 186233.6996354168,
      "d": 797.4132083333388,
      "v": 127
    },
    {
      "midi": 76,
      "hit": false,
      "t": 186233.6996354168,
      "d": 1072.197489583341,
      "v": 127
    },
    {
      "midi": 64,
      "hit": false,
      "t": 186239.08756250012,
      "d": 1390.0851874999935,
      "v": 127
    },
    {
      "midi": 67,
      "hit": false,
      "t": 186988.00942708345,
      "d": 878.2321145833412,
      "v": 127
    },
    {
      "midi": 71,
      "hit": false,
      "t": 187246.62992708347,
      "d": 765.0856458333146,
      "v": 127
    },
    {
      "midi": 76,
      "hit": false,
      "t": 187505.25042708346,
      "d": 506.46514583332464,
      "v": 127
    },
    {
      "midi": 67,
      "hit": false,
      "t": 188011.7155729168,
      "d": 150.86195833332022,
      "v": 127
    },
    {
      "midi": 60,
      "hit": false,
      "t": 188270.33607291678,
      "d": 576.5081979166716,
      "v": 127
    },
    {
      "midi": 67,
      "hit": false,
      "t": 188275.7240000001,
      "d": 792.0252812499821,
      "v": 127
    },
    {
      "midi": 71,
      "hit": false,
      "t": 188302.66363541677,
      "d": 748.9218645833316,
      "v": 127
    },
    {
      "midi": 76,
      "hit": false,
      "t": 188302.66363541677,
      "d": 915.9476041666348,
      "v": 127
    },
    {
      "midi": 60,
      "hit": false,
      "t": 189062.36135416676,
      "d": 317.88769791665254,
      "v": 127
    },
    {
      "midi": 79,
      "hit": false,
      "t": 189320.98185416675,
      "d": 657.327104166674,
      "v": 127
    },
    {
      "midi": 76,
      "hit": false,
      "t": 189320.98185416675,
      "d": 689.6546666666691,
      "v": 127
    },
    {
      "midi": 60,
      "hit": false,
      "t": 189563.43857291676,
      "d": 247.84464583333465,
      "v": 127
    },
    {
      "midi": 72,
      "hit": false,
      "t": 189843.61078125008,
      "d": 199.35330208332743,
      "v": 127
    },
    {
      "midi": 60,
      "hit": false,
      "t": 190075.2916458334,
      "d": 86.20683333333,
      "v": 127
    },
    {
      "midi": 65,
      "hit": false,
      "t": 190355.46385416674,
      "d": 404.09453125001164,
      "v": 127
    },
    {
      "midi": 62,
      "hit": false,
      "t": 190355.46385416674,
      "d": 598.0599062500114,
      "v": 127
    },
    {
      "midi": 69,
      "hit": false,
      "t": 190355.46385416674,
      "d": 657.327104166674,
      "v": 127
    },
    {
      "midi": 74,
      "hit": false,
      "t": 190355.46385416674,
      "d": 840.5166250000184,
      "v": 127
    },
    {
      "midi": 65,
      "hit": false,
      "t": 190878.09278125007,
      "d": 651.9391770833463,
      "v": 127
    },
    {
      "midi": 69,
      "hit": false,
      "t": 191115.16157291675,
      "d": 3119.6097812500084,
      "v": 127
    },
    {
      "midi": 74,
      "hit": false,
      "t": 191395.33378125008,
      "d": 2855.6013541666907,
      "v": 127
    },
    {
      "midi": 65,
      "hit": false,
      "t": 191653.95428125007,
      "d": 414.870385416667,
      "v": 127
    },
    {
      "midi": 65,
      "hit": false,
      "t": 192144.25564583341,
      "d": 1961.2054583333374,
      "v": 127
    },
    {
      "midi": 65,
      "hit": false,
      "t": 194504.16770833344,
      "d": 754.3097916666593,
      "v": 127
    },
    {
      "midi": 64,
      "hit": false,
      "t": 195253.08957291677,
      "d": 770.4735729166714,
      "v": 127
    },
    {
      "midi": 62,
      "hit": false,
      "t": 196028.95107291677,
      "d": 792.0252812499821,
      "v": 127
    },
    {
      "midi": 60,
      "hit": false,
      "t": 196815.58842708342,
      "d": 781.2494270833267,
      "v": 127
    },
    {
      "midi": 59,
      "hit": false,
      "t": 197591.44992708342,
      "d": 533.4047812499921,
      "v": 127
    },
    {
      "midi": 57,
      "hit": false,
      "t": 198124.8547083334,
      "d": 495.6892916666693,
      "v": 127
    },
    {
      "midi": 55,
      "hit": false,
      "t": 198615.15607291675,
      "d": 781.2494270833267,
      "v": 127
    },
    {
      "midi": 53,
      "hit": false,
      "t": 199391.01757291675,
      "d": 770.4735729166714,
      "v": 127
    },
    {
      "midi": 52,
      "hit": false,
      "t": 200177.65492708344,
      "d": 808.1890624999942,
      "v": 127
    },
    {
      "midi": 50,
      "hit": false,
      "t": 200958.90435416676,
      "d": 366.37904166665976,
      "v": 127
    },
    {
      "midi": 53,
      "hit": false,
      "t": 201718.60207291675,
      "d": 328.663552083337,
      "v": 127
    },
    {
      "midi": 57,
      "hit": false,
      "t": 201718.60207291675,
      "d": 355.6031875000044,
      "v": 127
    },
    {
      "midi": 60,
      "hit": false,
      "t": 201718.60207291675,
      "d": 371.76696875001653,
      "v": 127
    },
    {
      "midi": 62,
      "hit": false,
      "t": 202246.61892708344,
      "d": 242.45671875000698,
      "v": 127
    },
    {
      "midi": 55,
      "hit": false,
      "t": 202252.00685416677,
      "d": 258.6205000000191,
      "v": 127
    },
    {
      "midi": 59,
      "hit": false,
      "t": 202252.00685416677,
      "d": 258.6205000000191,
      "v": 127
    },
    {
      "midi": 62,
      "hit": false,
      "t": 202774.63578125014,
      "d": 2020.47265625,
      "v": 127
    },
    {
      "midi": 48,
      "hit": false,
      "t": 202774.63578125014,
      "d": 3195.040760416654,
      "v": 127
    },
    {
      "midi": 64,
      "hit": false,
      "t": 202774.63578125014,
      "d": 3195.040760416654,
      "v": 127
    },
    {
      "midi": 67,
      "hit": false,
      "t": 202780.02370833347,
      "d": 3124.997708333336,
      "v": 127
    }
  ]
}