{
  "jsonPath": "Classical/Russian Modern Classical/Dmitry Kabalevsky/polka-op39-no2.json",
  "path": "Classical\\Russian Modern Classical\\Dmitry Kabalevsky\\Polka Op39, No2.mid",
  "name": "Polka Op39, No2",
  "difficulty": "Intermediate",
  "bpm": 100,
  "notes": [
    {
      "midi": 60,
      "hit": false,
      "t": 0,
      "d": 600,
      "v": 68
    },
    {
      "midi": 72,
      "hit": false,
      "t": 600,
      "d": 600,
      "v": 64
    },
    {
      "midi": 76,
      "hit": false,
      "t": 600,
      "d": 600,
      "v": 64
    },
    {
      "midi": 64,
      "hit": false,
      "t": 600,
      "d": 600,
      "v": 82
    },
    {
      "midi": 67,
      "hit": false,
      "t": 1200,
      "d": 600,
      "v": 86
    },
    {
      "midi": 72,
      "hit": false,
      "t": 1800,
      "d": 600,
      "v": 67
    },
    {
      "midi": 76,
      "hit": false,
      "t": 1800,
      "d": 600,
      "v": 67
    },
    {
      "midi": 64,
      "hit": false,
      "t": 1800,
      "d": 600,
      "v": 73
    },
    {
      "midi": 67,
      "hit": false,
      "t": 2400,
      "d": 600,
      "v": 87
    },
    {
      "midi": 71,
      "hit": false,
      "t": 3000,
      "d": 600,
      "v": 68
    },
    {
      "midi": 79,
      "hit": false,
      "t": 3000,
      "d": 600,
      "v": 68
    },
    {
      "midi": 65,
      "hit": false,
      "t": 3000,
      "d": 600,
      "v": 74
    },
    {
      "midi": 62,
      "hit": false,
      "t": 3600,
      "d": 1200,
      "v": 66
    },
    {
      "midi": 71,
      "hit": false,
      "t": 4200,
      "d": 600,
      "v": 67
    },
    {
      "midi": 79,
      "hit": false,
      "t": 4200,
      "d": 600,
      "v": 67
    },
    {
      "midi": 67,
      "hit": false,
      "t": 4800,
      "d": 600,
      "v": 86
    },
    {
      "midi": 71,
      "hit": false,
      "t": 5400,
      "d": 600,
      "v": 71
    },
    {
      "midi": 79,
      "hit": false,
      "t": 5400,
      "d": 600,
      "v": 71
    },
    {
      "midi": 65,
      "hit": false,
      "t": 5400,
      "d": 600,
      "v": 75
    },
    {
      "midi": 62,
      "hit": false,
      "t": 6000,
      "d": 1200,
      "v": 72
    },
    {
      "midi": 71,
      "hit": false,
      "t": 6600,
      "d": 600,
      "v": 64
    },
    {
      "midi": 79,
      "hit": false,
      "t": 6600,
      "d": 600,
      "v": 64
    },
    {
      "midi": 67,
      "hit": false,
      "t": 7200,
      "d": 600,
      "v": 83
    },
    {
      "midi": 72,
      "hit": false,
      "t": 7800,
      "d": 600,
      "v": 70
    },
    {
      "midi": 76,
      "hit": false,
      "t": 7800,
      "d": 600,
      "v": 70
    },
    {
      "midi": 64,
      "hit": false,
      "t": 7800,
      "d": 600,
      "v": 68
    },
    {
      "midi": 60,
      "hit": false,
      "t": 8400,
      "d": 1200,
      "v": 68
    },
    {
      "midi": 72,
      "hit": false,
      "t": 9000,
      "d": 600,
      "v": 71
    },
    {
      "midi": 76,
      "hit": false,
      "t": 9000,
      "d": 600,
      "v": 71
    },
    {
      "midi": 60,
      "hit": false,
      "t": 9600,
      "d": 600,
      "v": 73
    },
    {
      "midi": 72,
      "hit": false,
      "t": 10200,
      "d": 600,
      "v": 66
    },
    {
      "midi": 76,
      "hit": false,
      "t": 10200,
      "d": 600,
      "v": 66
    },
    {
      "midi": 64,
      "hit": false,
      "t": 10200,
      "d": 600,
      "v": 82
    },
    {
      "midi": 67,
      "hit": false,
      "t": 10800,
      "d": 600,
      "v": 86
    },
    {
      "midi": 72,
      "hit": false,
      "t": 11400,
      "d": 600,
      "v": 71
    },
    {
      "midi": 76,
      "hit": false,
      "t": 11400,
      "d": 600,
      "v": 71
    },
    {
      "midi": 64,
      "hit": false,
      "t": 11400,
      "d": 600,
      "v": 77
    },
    {
      "midi": 69,
      "hit": false,
      "t": 12000,
      "d": 600,
      "v": 85
    },
    {
      "midi": 72,
      "hit": false,
      "t": 12600,
      "d": 600,
      "v": 68
    },
    {
      "midi": 81,
      "hit": false,
      "t": 12600,
      "d": 600,
      "v": 68
    },
    {
      "midi": 67,
      "hit": false,
      "t": 12600,
      "d": 600,
      "v": 73
    },
    {
      "midi": 65,
      "hit": false,
      "t": 13200,
      "d": 1200,
      "v": 71
    },
    {
      "midi": 72,
      "hit": false,
      "t": 13800,
      "d": 600,
      "v": 66
    },
    {
      "midi": 81,
      "hit": false,
      "t": 13800,
      "d": 600,
      "v": 66
    },
    {
      "midi": 67,
      "hit": false,
      "t": 14400,
      "d": 600,
      "v": 82
    },
    {
      "midi": 71,
      "hit": false,
      "t": 15000,
      "d": 600,
      "v": 69
    },
    {
      "midi": 79,
      "hit": false,
      "t": 15000,
      "d": 600,
      "v": 69
    },
    {
      "midi": 65,
      "hit": false,
      "t": 15000,
      "d": 600,
      "v": 74
    },
    {
      "midi": 64,
      "hit": false,
      "t": 15600,
      "d": 600,
      "v": 68
    },
    {
      "midi": 71,
      "hit": false,
      "t": 16200,
      "d": 600,
      "v": 66
    },
    {
      "midi": 79,
      "hit": false,
      "t": 16200,
      "d": 600,
      "v": 66
    },
    {
      "midi": 62,
      "hit": false,
      "t": 16200,
      "d": 600,
      "v": 71
    },
    {
      "midi": 60,
      "hit": false,
      "t": 16800,
      "d": 1200,
      "v": 72
    },
    {
      "midi": 71,
      "hit": false,
      "t": 17400,
      "d": 600,
      "v": 72
    },
    {
      "midi": 79,
      "hit": false,
      "t": 17400,
      "d": 600,
      "v": 72
    },
    {
      "midi": 72,
      "hit": false,
      "t": 18000,
      "d": 1200,
      "v": 69
    },
    {
      "midi": 76,
      "hit": false,
      "t": 18000,
      "d": 1200,
      "v": 69
    },
    {
      "midi": 60,
      "hit": false,
      "t": 18000,
      "d": 1200,
      "v": 73
    }
  ]
}