{
  "jsonPath": "Rock/Pop Rock/Heather Nova/fool-for-you.json",
  "path": "Rock\\Pop Rock\\Heather Nova\\Fool For You.mid",
  "name": "Fool For You",
  "difficulty": "Advanced",
  "bpm": 65.99999340000066,
  "notes": [
    {
      "midi": 60,
      "hit": false,
      "t": 3636.3639999999996,
      "d": 1628.7880416666658,
      "v": 115
    },
    {
      "midi": 60,
      "hit": false,
      "t": 3636.364,
      "d": 3371.212458333333,
      "v": 93
    },
    {
      "midi": 64,
      "hit": false,
      "t": 3939.3943333333327,
      "d": 1022.7273749999995,
      "v": 94
    },
    {
      "midi": 67,
      "hit": false,
      "t": 4242.424666666666,
      "d": 378.7879166666662,
      "v": 94
    },
    {
      "midi": 72,
      "hit": false,
      "t": 4545.454999999999,
      "d": 1590.9092499999997,
      "v": 103
    },
    {
      "midi": 67,
      "hit": false,
      "t": 4848.485333333332,
      "d": 946.9697916666664,
      "v": 103
    },
    {
      "midi": 64,
      "hit": false,
      "t": 5151.515666666665,
      "d": 416.6667083333332,
      "v": 94
    },
    {
      "midi": 60,
      "hit": false,
      "t": 5454.5459999999985,
      "d": 1628.7880416666676,
      "v": 103
    },
    {
      "midi": 64,
      "hit": false,
      "t": 5757.576333333332,
      "d": 1060.6061666666674,
      "v": 90
    },
    {
      "midi": 67,
      "hit": false,
      "t": 6060.606666666666,
      "d": 378.7879166666662,
      "v": 103
    },
    {
      "midi": 72,
      "hit": false,
      "t": 6363.636999999999,
      "d": 909.0910000000003,
      "v": 112
    },
    {
      "midi": 67,
      "hit": false,
      "t": 6666.667333333332,
      "d": 606.0606666666672,
      "v": 90
    },
    {
      "midi": 64,
      "hit": false,
      "t": 6969.697666666666,
      "d": 340.90912500000013,
      "v": 94
    },
    {
      "midi": 72,
      "hit": false,
      "t": 7234.849208333333,
      "d": 3446.9700416666674,
      "v": 86
    },
    {
      "midi": 64,
      "hit": false,
      "t": 7234.849208333333,
      "d": 3484.8488333333335,
      "v": 97
    },
    {
      "midi": 57,
      "hit": false,
      "t": 7272.727999999999,
      "d": 1742.4244166666685,
      "v": 121
    },
    {
      "midi": 45,
      "hit": false,
      "t": 7272.728,
      "d": 3371.2124583333343,
      "v": 79
    },
    {
      "midi": 57,
      "hit": false,
      "t": 7272.728,
      "d": 3371.2124583333343,
      "v": 86
    },
    {
      "midi": 60,
      "hit": false,
      "t": 7575.758333333333,
      "d": 1098.4849583333344,
      "v": 94
    },
    {
      "midi": 64,
      "hit": false,
      "t": 7878.788666666666,
      "d": 416.6667083333332,
      "v": 90
    },
    {
      "midi": 69,
      "hit": false,
      "t": 8181.8189999999995,
      "d": 1704.5456250000043,
      "v": 103
    },
    {
      "midi": 64,
      "hit": false,
      "t": 8484.849333333334,
      "d": 984.8485833333361,
      "v": 82
    },
    {
      "midi": 60,
      "hit": false,
      "t": 8787.879666666668,
      "d": 492.42429166666807,
      "v": 90
    },
    {
      "midi": 57,
      "hit": false,
      "t": 9090.910000000002,
      "d": 1628.7880416666703,
      "v": 103
    },
    {
      "midi": 60,
      "hit": false,
      "t": 9393.940333333336,
      "d": 1136.3637500000023,
      "v": 90
    },
    {
      "midi": 64,
      "hit": false,
      "t": 9696.97066666667,
      "d": 416.6667083333341,
      "v": 90
    },
    {
      "midi": 69,
      "hit": false,
      "t": 10000.001000000004,
      "d": 833.3334166666682,
      "v": 112
    },
    {
      "midi": 64,
      "hit": false,
      "t": 10303.031333333338,
      "d": 606.0606666666681,
      "v": 90
    },
    {
      "midi": 60,
      "hit": false,
      "t": 10606.061666666672,
      "d": 340.90912500000013,
      "v": 103
    },
    {
      "midi": 41,
      "hit": false,
      "t": 10871.213208333333,
      "d": 3484.8488333333335,
      "v": 93
    },
    {
      "midi": 72,
      "hit": false,
      "t": 10871.213208333333,
      "d": 3560.6064166666656,
      "v": 93
    },
    {
      "midi": 65,
      "hit": false,
      "t": 10871.213208333333,
      "d": 3598.4852083333317,
      "v": 116
    },
    {
      "midi": 53,
      "hit": false,
      "t": 10909.091999999999,
      "d": 3484.8488333333335,
      "v": 67
    },
    {
      "midi": 53,
      "hit": false,
      "t": 10909.092000000006,
      "d": 1742.4244166666685,
      "v": 121
    },
    {
      "midi": 57,
      "hit": false,
      "t": 11212.122333333338,
      "d": 1098.4849583333362,
      "v": 90
    },
    {
      "midi": 60,
      "hit": false,
      "t": 11515.152666666672,
      "d": 416.6667083333341,
      "v": 94
    },
    {
      "midi": 65,
      "hit": false,
      "t": 11818.183000000006,
      "d": 1742.4244166666704,
      "v": 103
    },
    {
      "midi": 60,
      "hit": false,
      "t": 12121.21333333334,
      "d": 984.8485833333361,
      "v": 86
    },
    {
      "midi": 57,
      "hit": false,
      "t": 12424.243666666674,
      "d": 492.42429166666807,
      "v": 94
    },
    {
      "midi": 53,
      "hit": false,
      "t": 12727.274000000009,
      "d": 1704.5456250000043,
      "v": 103
    },
    {
      "midi": 57,
      "hit": false,
      "t": 13030.304333333343,
      "d": 1098.4849583333362,
      "v": 86
    },
    {
      "midi": 60,
      "hit": false,
      "t": 13333.334666666677,
      "d": 416.6667083333341,
      "v": 86
    },
    {
      "midi": 65,
      "hit": false,
      "t": 13636.36500000001,
      "d": 1022.7273750000004,
      "v": 121
    },
    {
      "midi": 60,
      "hit": false,
      "t": 13939.395333333345,
      "d": 681.8182500000003,
      "v": 90
    },
    {
      "midi": 67,
      "hit": false,
      "t": 14204.546874999998,
      "d": 75.75758333333397,
      "v": 24
    },
    {
      "midi": 57,
      "hit": false,
      "t": 14242.425666666679,
      "d": 340.90912500000013,
      "v": 94
    },
    {
      "midi": 62,
      "hit": false,
      "t": 14507.57720833333,
      "d": 3484.8488333333316,
      "v": 97
    },
    {
      "midi": 67,
      "hit": false,
      "t": 14507.57720833333,
      "d": 3484.8488333333316,
      "v": 89
    },
    {
      "midi": 43,
      "hit": false,
      "t": 14545.455999999996,
      "d": 3333.3336666666673,
      "v": 86
    },
    {
      "midi": 55,
      "hit": false,
      "t": 14545.455999999996,
      "d": 3409.0912499999995,
      "v": 73
    },
    {
      "midi": 55,
      "hit": false,
      "t": 14545.456000000013,
      "d": 1704.5456250000025,
      "v": 112
    },
    {
      "midi": 59,
      "hit": false,
      "t": 14848.486333333345,
      "d": 1098.4849583333362,
      "v": 94
    },
    {
      "midi": 62,
      "hit": false,
      "t": 15151.51666666668,
      "d": 416.6667083333341,
      "v": 94
    },
    {
      "midi": 67,
      "hit": false,
      "t": 15454.547000000013,
      "d": 1704.5456250000025,
      "v": 112
    },
    {
      "midi": 62,
      "hit": false,
      "t": 15757.577333333347,
      "d": 1022.7273750000004,
      "v": 82
    },
    {
      "midi": 59,
      "hit": false,
      "t": 16060.607666666681,
      "d": 454.5455000000002,
      "v": 94
    },
    {
      "midi": 55,
      "hit": false,
      "t": 16363.638000000015,
      "d": 1628.7880416666612,
      "v": 112
    },
    {
      "midi": 59,
      "hit": false,
      "t": 16666.66833333335,
      "d": 1098.4849583333307,
      "v": 90
    },
    {
      "midi": 62,
      "hit": false,
      "t": 16969.69866666668,
      "d": 416.66670833333046,
      "v": 90
    },
    {
      "midi": 67,
      "hit": false,
      "t": 17272.729000000014,
      "d": 946.9697916666628,
      "v": 121
    },
    {
      "midi": 62,
      "hit": false,
      "t": 17575.759333333346,
      "d": 606.0606666666645,
      "v": 90
    },
    {
      "midi": 59,
      "hit": false,
      "t": 17878.78966666668,
      "d": 265.15154166666616,
      "v": 94
    },
    {
      "midi": 48,
      "hit": false,
      "t": 18143.94120833333,
      "d": 3484.84883333333,
      "v": 76
    },
    {
      "midi": 72,
      "hit": false,
      "t": 18143.94120833333,
      "d": 3484.84883333333,
      "v": 106
    },
    {
      "midi": 67,
      "hit": false,
      "t": 18143.94120833333,
      "d": 3598.485208333328,
      "v": 97
    },
    {
      "midi": 60,
      "hit": false,
      "t": 18181.819999999996,
      "d": 3371.2124583333316,
      "v": 93
    },
    {
      "midi": 60,
      "hit": false,
      "t": 18181.82000000001,
      "d": 1628.7880416666594,
      "v": 115
    },
    {
      "midi": 64,
      "hit": false,
      "t": 18484.850333333343,
      "d": 1022.7273749999949,
      "v": 94
    },
    {
      "midi": 67,
      "hit": false,
      "t": 18787.880666666675,
      "d": 378.7879166666644,
      "v": 94
    },
    {
      "midi": 72,
      "hit": false,
      "t": 19090.911000000007,
      "d": 1590.9092499999933,
      "v": 103
    },
    {
      "midi": 67,
      "hit": false,
      "t": 19393.94133333334,
      "d": 946.9697916666628,
      "v": 103
    },
    {
      "midi": 64,
      "hit": false,
      "t": 19696.97166666667,
      "d": 416.66670833333046,
      "v": 94
    },
    {
      "midi": 60,
      "hit": false,
      "t": 20000.002000000004,
      "d": 1628.788041666663,
      "v": 103
    },
    {
      "midi": 64,
      "hit": false,
      "t": 20303.032333333336,
      "d": 1060.6061666666646,
      "v": 90
    },
    {
      "midi": 67,
      "hit": false,
      "t": 20606.06266666667,
      "d": 378.7879166666644,
      "v": 103
    },
    {
      "midi": 72,
      "hit": false,
      "t": 20909.093,
      "d": 909.0910000000003,
      "v": 112
    },
    {
      "midi": 67,
      "hit": false,
      "t": 21212.123333333333,
      "d": 606.0606666666681,
      "v": 90
    },
    {
      "midi": 64,
      "hit": false,
      "t": 21515.15366666667,
      "d": 340.9091249999983,
      "v": 94
    },
    {
      "midi": 72,
      "hit": false,
      "t": 21780.305208333324,
      "d": 3446.9700416666637,
      "v": 86
    },
    {
      "midi": 64,
      "hit": false,
      "t": 21780.305208333324,
      "d": 3484.84883333333,
      "v": 97
    },
    {
      "midi": 45,
      "hit": false,
      "t": 21818.18399999999,
      "d": 3371.2124583333316,
      "v": 79
    },
    {
      "midi": 57,
      "hit": false,
      "t": 21818.18399999999,
      "d": 3371.2124583333316,
      "v": 86
    },
    {
      "midi": 57,
      "hit": false,
      "t": 21818.184,
      "d": 1742.4244166666613,
      "v": 121
    },
    {
      "midi": 60,
      "hit": false,
      "t": 22121.214333333333,
      "d": 1098.4849583333307,
      "v": 94
    },
    {
      "midi": 64,
      "hit": false,
      "t": 22424.244666666666,
      "d": 416.66670833333046,
      "v": 90
    },
    {
      "midi": 69,
      "hit": false,
      "t": 22727.274999999998,
      "d": 1704.5456249999952,
      "v": 103
    },
    {
      "midi": 64,
      "hit": false,
      "t": 23030.30533333333,
      "d": 984.8485833333289,
      "v": 82
    },
    {
      "midi": 60,
      "hit": false,
      "t": 23333.335666666662,
      "d": 492.42429166666625,
      "v": 90
    },
    {
      "midi": 57,
      "hit": false,
      "t": 23636.365999999995,
      "d": 1628.7880416666594,
      "v": 103
    },
    {
      "midi": 60,
      "hit": false,
      "t": 23939.396333333327,
      "d": 1136.3637499999968,
      "v": 90
    },
    {
      "midi": 64,
      "hit": false,
      "t": 24242.42666666666,
      "d": 416.66670833333046,
      "v": 90
    },
    {
      "midi": 69,
      "hit": false,
      "t": 24545.45699999999,
      "d": 833.3334166666609,
      "v": 112
    },
    {
      "midi": 64,
      "hit": false,
      "t": 24848.487333333323,
      "d": 606.0606666666608,
      "v": 90
    },
    {
      "midi": 60,
      "hit": false,
      "t": 25151.517666666656,
      "d": 340.9091249999947,
      "v": 103
    },
    {
      "midi": 41,
      "hit": false,
      "t": 25416.669208333322,
      "d": 3484.84883333333,
      "v": 93
    },
    {
      "midi": 72,
      "hit": false,
      "t": 25416.669208333322,
      "d": 3560.606416666662,
      "v": 93
    },
    {
      "midi": 65,
      "hit": false,
      "t": 25416.669208333322,
      "d": 3598.485208333328,
      "v": 116
    },
    {
      "midi": 53,
      "hit": false,
      "t": 25454.547999999984,
      "d": 1742.4244166666613,
      "v": 121
    },
    {
      "midi": 53,
      "hit": false,
      "t": 25454.547999999988,
      "d": 3484.84883333333,
      "v": 67
    },
    {
      "midi": 57,
      "hit": false,
      "t": 25757.578333333317,
      "d": 1098.4849583333307,
      "v": 90
    },
    {
      "midi": 60,
      "hit": false,
      "t": 26060.60866666665,
      "d": 416.66670833333046,
      "v": 94
    },
    {
      "midi": 65,
      "hit": false,
      "t": 26363.63899999998,
      "d": 1742.4244166666613,
      "v": 103
    },
    {
      "midi": 60,
      "hit": false,
      "t": 26666.669333333313,
      "d": 984.8485833333289,
      "v": 86
    },
    {
      "midi": 57,
      "hit": false,
      "t": 26969.699666666645,
      "d": 492.42429166666625,
      "v": 94
    },
    {
      "midi": 53,
      "hit": false,
      "t": 27272.729999999978,
      "d": 1704.5456249999952,
      "v": 103
    },
    {
      "midi": 57,
      "hit": false,
      "t": 27575.76033333331,
      "d": 1098.4849583333307,
      "v": 86
    },
    {
      "midi": 60,
      "hit": false,
      "t": 27878.790666666642,
      "d": 416.66670833333046,
      "v": 86
    },
    {
      "midi": 65,
      "hit": false,
      "t": 28181.820999999974,
      "d": 1022.7273749999949,
      "v": 121
    },
    {
      "midi": 60,
      "hit": false,
      "t": 28484.851333333307,
      "d": 681.8182499999966,
      "v": 90
    },
    {
      "midi": 67,
      "hit": false,
      "t": 28750.002874999987,
      "d": 75.75758333333215,
      "v": 24
    },
    {
      "midi": 57,
      "hit": false,
      "t": 28787.88166666664,
      "d": 340.9091249999983,
      "v": 94
    },
    {
      "midi": 62,
      "hit": false,
      "t": 29053.033208333316,
      "d": 3484.84883333333,
      "v": 97
    },
    {
      "midi": 67,
      "hit": false,
      "t": 29053.033208333316,
      "d": 3484.84883333333,
      "v": 89
    },
    {
      "midi": 55,
      "hit": false,
      "t": 29090.91199999997,
      "d": 1704.5456249999952,
      "v": 112
    },
    {
      "midi": 43,
      "hit": false,
      "t": 29090.911999999982,
      "d": 3333.3336666666655,
      "v": 86
    },
    {
      "midi": 55,
      "hit": false,
      "t": 29090.911999999982,
      "d": 3409.0912499999977,
      "v": 73
    },
    {
      "midi": 59,
      "hit": false,
      "t": 29393.942333333303,
      "d": 1098.4849583333307,
      "v": 94
    },
    {
      "midi": 62,
      "hit": false,
      "t": 29696.972666666636,
      "d": 416.66670833333046,
      "v": 94
    },
    {
      "midi": 67,
      "hit": false,
      "t": 30000.002999999968,
      "d": 1704.5456249999988,
      "v": 112
    },
    {
      "midi": 62,
      "hit": false,
      "t": 30303.0333333333,
      "d": 1022.7273749999986,
      "v": 82
    },
    {
      "midi": 59,
      "hit": false,
      "t": 30606.063666666632,
      "d": 454.5455000000002,
      "v": 94
    },
    {
      "midi": 55,
      "hit": false,
      "t": 30909.093999999965,
      "d": 1628.788041666663,
      "v": 112
    },
    {
      "midi": 59,
      "hit": false,
      "t": 31212.1243333333,
      "d": 1098.4849583333307,
      "v": 90
    },
    {
      "midi": 62,
      "hit": false,
      "t": 31515.154666666633,
      "d": 416.66670833333046,
      "v": 90
    },
    {
      "midi": 67,
      "hit": false,
      "t": 31818.184999999965,
      "d": 946.9697916666628,
      "v": 121
    },
    {
      "midi": 62,
      "hit": false,
      "t": 32121.215333333297,
      "d": 606.0606666666645,
      "v": 90
    },
    {
      "midi": 59,
      "hit": false,
      "t": 32424.24566666663,
      "d": 265.15154166666616,
      "v": 94
    },
    {
      "midi": 48,
      "hit": false,
      "t": 32689.397208333314,
      "d": 3484.84883333333,
      "v": 76
    },
    {
      "midi": 72,
      "hit": false,
      "t": 32689.397208333314,
      "d": 3484.84883333333,
      "v": 106
    },
    {
      "midi": 67,
      "hit": false,
      "t": 32689.397208333314,
      "d": 3598.4852083333317,
      "v": 97
    },
    {
      "midi": 60,
      "hit": false,
      "t": 32727.27599999996,
      "d": 1742.4244166666685,
      "v": 112
    },
    {
      "midi": 60,
      "hit": false,
      "t": 32727.27599999998,
      "d": 3446.9700416666637,
      "v": 93
    },
    {
      "midi": 64,
      "hit": false,
      "t": 33030.3063333333,
      "d": 1022.7273750000022,
      "v": 90
    },
    {
      "midi": 67,
      "hit": false,
      "t": 33333.33666666663,
      "d": 454.5455000000002,
      "v": 103
    },
    {
      "midi": 72,
      "hit": false,
      "t": 33636.36699999997,
      "d": 1704.5456249999916,
      "v": 112
    },
    {
      "midi": 67,
      "hit": false,
      "t": 33939.3973333333,
      "d": 1022.7273749999949,
      "v": 90
    },
    {
      "midi": 64,
      "hit": false,
      "t": 34242.427666666634,
      "d": 454.5454999999929,
      "v": 94
    },
    {
      "midi": 60,
      "hit": false,
      "t": 34545.45799999996,
      "d": 1666.6668333333364,
      "v": 112
    },
    {
      "midi": 64,
      "hit": false,
      "t": 34848.48833333329,
      "d": 1022.7273750000095,
      "v": 86
    },
    {
      "midi": 67,
      "hit": false,
      "t": 35151.51866666663,
      "d": 416.66670833333774,
      "v": 94
    },
    {
      "midi": 72,
      "hit": false,
      "t": 35454.54899999996,
      "d": 833.3334166666682,
      "v": 103
    },
    {
      "midi": 67,
      "hit": false,
      "t": 35757.5793333333,
      "d": 606.0606666666645,
      "v": 94
    },
    {
      "midi": 64,
      "hit": false,
      "t": 36060.609666666634,
      "d": 340.9091249999983,
      "v": 103
    },
    {
      "midi": 64,
      "hit": false,
      "t": 36325.761208333315,
      "d": 3522.727625000007,
      "v": 111
    },
    {
      "midi": 72,
      "hit": false,
      "t": 36325.761208333315,
      "d": 3674.2427916666784,
      "v": 97
    },
    {
      "midi": 57,
      "hit": false,
      "t": 36363.63999999996,
      "d": 1704.545625000006,
      "v": 121
    },
    {
      "midi": 57,
      "hit": false,
      "t": 36363.639999999985,
      "d": 3446.9700416666674,
      "v": 82
    },
    {
      "midi": 45,
      "hit": false,
      "t": 36363.639999999985,
      "d": 3522.727625000007,
      "v": 97
    },
    {
      "midi": 60,
      "hit": false,
      "t": 36666.6703333333,
      "d": 1060.606166666672,
      "v": 90
    },
    {
      "midi": 64,
      "hit": false,
      "t": 36969.700666666635,
      "d": 416.66670833333774,
      "v": 94
    },
    {
      "midi": 69,
      "hit": false,
      "t": 37272.73099999997,
      "d": 1666.6668333333364,
      "v": 112
    },
    {
      "midi": 64,
      "hit": false,
      "t": 37575.76133333331,
      "d": 946.9697916666701,
      "v": 86
    },
    {
      "midi": 60,
      "hit": false,
      "t": 37878.791666666635,
      "d": 416.66670833333774,
      "v": 94
    },
    {
      "midi": 57,
      "hit": false,
      "t": 38181.82199999997,
      "d": 1666.6668333333218,
      "v": 103
    },
    {
      "midi": 60,
      "hit": false,
      "t": 38484.85233333331,
      "d": 1136.3637499999895,
      "v": 86
    },
    {
      "midi": 64,
      "hit": false,
      "t": 38787.88266666664,
      "d": 378.78791666666075,
      "v": 90
    },
    {
      "midi": 69,
      "hit": false,
      "t": 39090.91299999997,
      "d": 909.0909999999858,
      "v": 112
    },
    {
      "midi": 64,
      "hit": false,
      "t": 39393.9433333333,
      "d": 606.0606666666572,
      "v": 86
    },
    {
      "midi": 60,
      "hit": false,
      "t": 39696.97366666663,
      "d": 378.78791666666075,
      "v": 94
    },
    {
      "midi": 67,
      "hit": false,
      "t": 39962.125208333324,
      "d": 3484.848833333337,
      "v": 79
    },
    {
      "midi": 62,
      "hit": false,
      "t": 39962.125208333324,
      "d": 3522.727625000007,
      "v": 82
    },
    {
      "midi": 55,
      "hit": false,
      "t": 40000.00399999996,
      "d": 1742.4244166666613,
      "v": 121
    },
    {
      "midi": 43,
      "hit": false,
      "t": 40000.00399999999,
      "d": 3446.9700416666674,
      "v": 97
    },
    {
      "midi": 55,
      "hit": false,
      "t": 40000.00399999999,
      "d": 3484.848833333337,
      "v": 82
    },
    {
      "midi": 59,
      "hit": false,
      "t": 40303.034333333286,
      "d": 1136.363750000004,
      "v": 90
    },
    {
      "midi": 62,
      "hit": false,
      "t": 40606.06466666662,
      "d": 416.66670833333774,
      "v": 94
    },
    {
      "midi": 67,
      "hit": false,
      "t": 40909.09499999996,
      "d": 1666.6668333333218,
      "v": 112
    },
    {
      "midi": 62,
      "hit": false,
      "t": 41212.12533333329,
      "d": 1022.7273749999877,
      "v": 90
    },
    {
      "midi": 59,
      "hit": false,
      "t": 41515.15566666662,
      "d": 530.303083333325,
      "v": 90
    },
    {
      "midi": 55,
      "hit": false,
      "t": 41818.18599999995,
      "d": 1742.4244166666467,
      "v": 112
    },
    {
      "midi": 59,
      "hit": false,
      "t": 42121.21633333328,
      "d": 1060.6061666666574,
      "v": 94
    },
    {
      "midi": 62,
      "hit": false,
      "t": 42424.246666666615,
      "d": 454.5454999999929,
      "v": 94
    },
    {
      "midi": 67,
      "hit": false,
      "t": 42727.276999999944,
      "d": 1704.5456249999843,
      "v": 112
    },
    {
      "midi": 62,
      "hit": false,
      "t": 43030.30733333327,
      "d": 1022.7273749999877,
      "v": 94
    },
    {
      "midi": 59,
      "hit": false,
      "t": 43333.3376666666,
      "d": 454.5454999999929,
      "v": 103
    },
    {
      "midi": 43,
      "hit": false,
      "t": 43598.48920833333,
      "d": 1439.39408333334,
      "v": 89
    },
    {
      "midi": 62,
      "hit": false,
      "t": 43598.48920833333,
      "d": 3636.3640000000087,
      "v": 86
    },
    {
      "midi": 55,
      "hit": false,
      "t": 43636.36799999993,
      "d": 1704.5456249999988,
      "v": 103
    },
    {
      "midi": 55,
      "hit": false,
      "t": 43636.368,
      "d": 1401.5152916666702,
      "v": 79
    },
    {
      "midi": 67,
      "hit": false,
      "t": 43636.368,
      "d": 3598.485208333339,
      "v": 86
    },
    {
      "midi": 59,
      "hit": false,
      "t": 43939.39833333326,
      "d": 1060.606166666672,
      "v": 90
    },
    {
      "midi": 62,
      "hit": false,
      "t": 44242.428666666594,
      "d": 416.66670833333774,
      "v": 90
    },
    {
      "midi": 67,
      "hit": false,
      "t": 44545.45899999993,
      "d": 1742.4244166666613,
      "v": 112
    },
    {
      "midi": 62,
      "hit": false,
      "t": 44848.489333333266,
      "d": 1060.6061666666646,
      "v": 86
    },
    {
      "midi": 43,
      "hit": false,
      "t": 45113.640875000005,
      "d": 265.15154166666616,
      "v": 93
    },
    {
      "midi": 55,
      "hit": false,
      "t": 45113.640875000005,
      "d": 265.15154166666616,
      "v": 102
    },
    {
      "midi": 59,
      "hit": false,
      "t": 45151.519666666594,
      "d": 492.4242916666699,
      "v": 94
    },
    {
      "midi": 55,
      "hit": false,
      "t": 45454.54999999993,
      "d": 1780.303208333331,
      "v": 112
    },
    {
      "midi": 43,
      "hit": false,
      "t": 45454.55,
      "d": 757.575833333336,
      "v": 82
    },
    {
      "midi": 55,
      "hit": false,
      "t": 45454.55,
      "d": 795.4546250000058,
      "v": 93
    },
    {
      "midi": 59,
      "hit": false,
      "t": 45757.580333333266,
      "d": 1098.484958333327,
      "v": 94
    },
    {
      "midi": 62,
      "hit": false,
      "t": 46060.610666666595,
      "d": 416.66670833333046,
      "v": 86
    },
    {
      "midi": 43,
      "hit": false,
      "t": 46325.76220833334,
      "d": 909.0910000000003,
      "v": 89
    },
    {
      "midi": 55,
      "hit": false,
      "t": 46325.76220833334,
      "d": 946.9697916666701,
      "v": 93
    },
    {
      "midi": 67,
      "hit": false,
      "t": 46363.64099999992,
      "d": 833.3334166666682,
      "v": 121
    },
    {
      "midi": 62,
      "hit": false,
      "t": 46666.67133333326,
      "d": 568.181875000002,
      "v": 86
    },
    {
      "midi": 59,
      "hit": false,
      "t": 46969.701666666595,
      "d": 265.15154166666616,
      "v": 94
    },
    {
      "midi": 60,
      "hit": false,
      "t": 47272.73199999993,
      "d": 1628.788041666674,
      "v": 115
    },
    {
      "midi": 60,
      "hit": false,
      "t": 47272.73200000001,
      "d": 3333.3336666666655,
      "v": 93
    },
    {
      "midi": 48,
      "hit": false,
      "t": 47272.73200000001,
      "d": 3409.0912499999977,
      "v": 89
    },
    {
      "midi": 72,
      "hit": false,
      "t": 47272.73200000001,
      "d": 3446.9700416666674,
      "v": 102
    },
    {
      "midi": 67,
      "hit": false,
      "t": 47272.73200000001,
      "d": 3560.6064166666692,
      "v": 106
    },
    {
      "midi": 64,
      "hit": false,
      "t": 47575.76233333327,
      "d": 1022.7273750000022,
      "v": 94
    },
    {
      "midi": 67,
      "hit": false,
      "t": 47878.7926666666,
      "d": 378.787916666668,
      "v": 94
    },
    {
      "midi": 72,
      "hit": false,
      "t": 48181.82299999994,
      "d": 1590.9092500000042,
      "v": 103
    },
    {
      "midi": 67,
      "hit": false,
      "t": 48484.85333333327,
      "d": 946.9697916666773,
      "v": 103
    },
    {
      "midi": 64,
      "hit": false,
      "t": 48787.8836666666,
      "d": 416.66670833333774,
      "v": 94
    },
    {
      "midi": 60,
      "hit": false,
      "t": 49090.91399999994,
      "d": 1628.7880416666594,
      "v": 103
    },
    {
      "midi": 64,
      "hit": false,
      "t": 49393.944333333275,
      "d": 1060.6061666666574,
      "v": 90
    },
    {
      "midi": 67,
      "hit": false,
      "t": 49696.97466666661,
      "d": 378.78791666666075,
      "v": 103
    },
    {
      "midi": 72,
      "hit": false,
      "t": 50000.00499999994,
      "d": 909.0909999999931,
      "v": 112
    },
    {
      "midi": 67,
      "hit": false,
      "t": 50303.03533333327,
      "d": 606.0606666666645,
      "v": 90
    },
    {
      "midi": 64,
      "hit": false,
      "t": 50606.0656666666,
      "d": 340.9091250000056,
      "v": 94
    },
    {
      "midi": 57,
      "hit": false,
      "t": 50871.21720833335,
      "d": 3409.091250000005,
      "v": 86
    },
    {
      "midi": 72,
      "hit": false,
      "t": 50871.21720833335,
      "d": 3446.9700416666747,
      "v": 86
    },
    {
      "midi": 64,
      "hit": false,
      "t": 50871.21720833335,
      "d": 3484.8488333333444,
      "v": 97
    },
    {
      "midi": 57,
      "hit": false,
      "t": 50909.09599999993,
      "d": 1742.4244166666758,
      "v": 121
    },
    {
      "midi": 45,
      "hit": false,
      "t": 50909.09600000002,
      "d": 3371.2124583333352,
      "v": 79
    },
    {
      "midi": 60,
      "hit": false,
      "t": 51212.12633333327,
      "d": 1098.4849583333416,
      "v": 94
    },
    {
      "midi": 64,
      "hit": false,
      "t": 51515.156666666604,
      "d": 416.66670833333774,
      "v": 90
    },
    {
      "midi": 69,
      "hit": false,
      "t": 51818.18699999994,
      "d": 1704.5456249999988,
      "v": 103
    },
    {
      "midi": 64,
      "hit": false,
      "t": 52121.217333333276,
      "d": 984.8485833333325,
      "v": 82
    },
    {
      "midi": 60,
      "hit": false,
      "t": 52424.24766666661,
      "d": 492.4242916666626,
      "v": 90
    },
    {
      "midi": 57,
      "hit": false,
      "t": 52727.27799999994,
      "d": 1628.7880416666667,
      "v": 103
    },
    {
      "midi": 60,
      "hit": false,
      "t": 53030.308333333276,
      "d": 1136.3637499999968,
      "v": 90
    },
    {
      "midi": 64,
      "hit": false,
      "t": 53333.338666666605,
      "d": 416.66670833333774,
      "v": 90
    },
    {
      "midi": 69,
      "hit": false,
      "t": 53636.36899999994,
      "d": 871.2122083333306,
      "v": 112
    },
    {
      "midi": 64,
      "hit": false,
      "t": 53939.39933333328,
      "d": 606.0606666666645,
      "v": 90
    },
    {
      "midi": 60,
      "hit": false,
      "t": 54242.429666666605,
      "d": 340.9091250000056,
      "v": 103
    },
    {
      "midi": 72,
      "hit": false,
      "t": 54507.58120833336,
      "d": 3560.6064166666765,
      "v": 93
    },
    {
      "midi": 65,
      "hit": false,
      "t": 54507.58120833336,
      "d": 3598.4852083333462,
      "v": 116
    },
    {
      "midi": 53,
      "hit": false,
      "t": 54545.45999999994,
      "d": 1742.4244166666758,
      "v": 121
    },
    {
      "midi": 41,
      "hit": false,
      "t": 54545.46000000003,
      "d": 3484.848833333337,
      "v": 93
    },
    {
      "midi": 53,
      "hit": false,
      "t": 54545.46000000003,
      "d": 3484.848833333337,
      "v": 67
    },
    {
      "midi": 57,
      "hit": false,
      "t": 54848.49033333328,
      "d": 1098.4849583333416,
      "v": 90
    },
    {
      "midi": 60,
      "hit": false,
      "t": 55151.52066666661,
      "d": 416.66670833333774,
      "v": 94
    },
    {
      "midi": 65,
      "hit": false,
      "t": 55454.55099999995,
      "d": 1742.4244166666613,
      "v": 103
    },
    {
      "midi": 60,
      "hit": false,
      "t": 55757.581333333284,
      "d": 984.8485833333325,
      "v": 86
    },
    {
      "midi": 57,
      "hit": false,
      "t": 56060.61166666662,
      "d": 492.4242916666626,
      "v": 94
    },
    {
      "midi": 53,
      "hit": false,
      "t": 56363.64199999995,
      "d": 1704.5456249999988,
      "v": 103
    },
    {
      "midi": 57,
      "hit": false,
      "t": 56666.672333333285,
      "d": 1098.484958333327,
      "v": 86
    },
    {
      "midi": 60,
      "hit": false,
      "t": 56969.70266666661,
      "d": 416.66670833333046,
      "v": 86
    },
    {
      "midi": 65,
      "hit": false,
      "t": 57272.73299999994,
      "d": 1060.606166666672,
      "v": 121
    },
    {
      "midi": 60,
      "hit": false,
      "t": 57575.76333333328,
      "d": 681.8182500000039,
      "v": 90
    },
    {
      "midi": 67,
      "hit": false,
      "t": 57840.91487500003,
      "d": 75.75758333333215,
      "v": 24
    },
    {
      "midi": 57,
      "hit": false,
      "t": 57878.793666666614,
      "d": 378.787916666668,
      "v": 94
    },
    {
      "midi": 67,
      "hit": false,
      "t": 58143.945208333374,
      "d": 3484.848833333337,
      "v": 89
    },
    {
      "midi": 55,
      "hit": false,
      "t": 58181.82399999995,
      "d": 1704.545625000006,
      "v": 112
    },
    {
      "midi": 43,
      "hit": false,
      "t": 58181.824000000044,
      "d": 3333.3336666666655,
      "v": 86
    },
    {
      "midi": 55,
      "hit": false,
      "t": 58181.824000000044,
      "d": 3409.0912499999977,
      "v": 73
    },
    {
      "midi": 62,
      "hit": false,
      "t": 58181.824000000044,
      "d": 3446.9700416666674,
      "v": 97
    },
    {
      "midi": 59,
      "hit": false,
      "t": 58484.85433333328,
      "d": 1098.4849583333416,
      "v": 94
    },
    {
      "midi": 62,
      "hit": false,
      "t": 58787.884666666614,
      "d": 416.66670833333774,
      "v": 94
    },
    {
      "midi": 67,
      "hit": false,
      "t": 59090.91499999995,
      "d": 1704.545625000006,
      "v": 112
    },
    {
      "midi": 62,
      "hit": false,
      "t": 59393.945333333286,
      "d": 1022.7273750000022,
      "v": 82
    },
    {
      "midi": 59,
      "hit": false,
      "t": 59696.97566666662,
      "d": 454.5455000000002,
      "v": 94
    },
    {
      "midi": 55,
      "hit": false,
      "t": 60000.00599999996,
      "d": 1628.788041666674,
      "v": 112
    },
    {
      "midi": 59,
      "hit": false,
      "t": 60303.036333333286,
      "d": 1098.4849583333416,
      "v": 90
    },
    {
      "midi": 62,
      "hit": false,
      "t": 60606.06666666662,
      "d": 416.66670833333774,
      "v": 90
    },
    {
      "midi": 67,
      "hit": false,
      "t": 60909.09699999996,
      "d": 946.9697916666773,
      "v": 121
    },
    {
      "midi": 62,
      "hit": false,
      "t": 61212.127333333294,
      "d": 606.0606666666718,
      "v": 90
    },
    {
      "midi": 59,
      "hit": false,
      "t": 61515.15766666663,
      "d": 265.15154166666616,
      "v": 94
    },
    {
      "midi": 60,
      "hit": false,
      "t": 61818.187999999966,
      "d": 1742.4244166666613,
      "v": 112
    },
    {
      "midi": 48,
      "hit": false,
      "t": 61818.188000000046,
      "d": 3446.9700416666674,
      "v": 76
    },
    {
      "midi": 60,
      "hit": false,
      "t": 61818.188000000046,
      "d": 3446.9700416666674,
      "v": 93
    },
    {
      "midi": 72,
      "hit": false,
      "t": 61818.188000000046,
      "d": 3446.9700416666674,
      "v": 106
    },
    {
      "midi": 67,
      "hit": false,
      "t": 61818.188000000046,
      "d": 3560.6064166666692,
      "v": 97
    },
    {
      "midi": 64,
      "hit": false,
      "t": 62121.2183333333,
      "d": 1060.6061666666646,
      "v": 90
    },
    {
      "midi": 67,
      "hit": false,
      "t": 62424.24866666664,
      "d": 454.5455000000002,
      "v": 103
    },
    {
      "midi": 72,
      "hit": false,
      "t": 62727.27899999997,
      "d": 1704.5456249999843,
      "v": 112
    },
    {
      "midi": 67,
      "hit": false,
      "t": 63030.3093333333,
      "d": 1022.7273749999877,
      "v": 90
    },
    {
      "midi": 64,
      "hit": false,
      "t": 63333.33966666663,
      "d": 454.5454999999929,
      "v": 94
    },
    {
      "midi": 60,
      "hit": false,
      "t": 63636.36999999996,
      "d": 1628.788041666674,
      "v": 112
    },
    {
      "midi": 64,
      "hit": false,
      "t": 63939.40033333329,
      "d": 1022.7273750000095,
      "v": 86
    },
    {
      "midi": 67,
      "hit": false,
      "t": 64242.43066666662,
      "d": 416.66670833333774,
      "v": 94
    },
    {
      "midi": 72,
      "hit": false,
      "t": 64545.46099999996,
      "d": 833.3334166666755,
      "v": 103
    },
    {
      "midi": 67,
      "hit": false,
      "t": 64848.491333333295,
      "d": 606.0606666666718,
      "v": 94
    },
    {
      "midi": 64,
      "hit": false,
      "t": 65151.52166666663,
      "d": 340.9091250000056,
      "v": 103
    },
    {
      "midi": 64,
      "hit": false,
      "t": 65416.673208333385,
      "d": 3522.727625000007,
      "v": 111
    },
    {
      "midi": 45,
      "hit": false,
      "t": 65416.673208333385,
      "d": 3560.6064166666692,
      "v": 97
    },
    {
      "midi": 72,
      "hit": false,
      "t": 65416.673208333385,
      "d": 3674.242791666671,
      "v": 97
    },
    {
      "midi": 57,
      "hit": false,
      "t": 65454.55199999997,
      "d": 1704.5456249999843,
      "v": 121
    },
    {
      "midi": 57,
      "hit": false,
      "t": 65454.552000000054,
      "d": 3484.848833333337,
      "v": 82
    },
    {
      "midi": 60,
      "hit": false,
      "t": 65757.58233333331,
      "d": 1060.60616666665,
      "v": 90
    },
    {
      "midi": 64,
      "hit": false,
      "t": 66060.61266666664,
      "d": 416.66670833333046,
      "v": 94
    },
    {
      "midi": 69,
      "hit": false,
      "t": 66363.64299999997,
      "d": 1666.6668333333073,
      "v": 112
    },
    {
      "midi": 64,
      "hit": false,
      "t": 66666.6733333333,
      "d": 946.9697916666482,
      "v": 86
    },
    {
      "midi": 60,
      "hit": false,
      "t": 66969.70366666662,
      "d": 416.66670833333046,
      "v": 94
    },
    {
      "midi": 57,
      "hit": false,
      "t": 67272.73399999995,
      "d": 1666.6668333333218,
      "v": 103
    },
    {
      "midi": 60,
      "hit": false,
      "t": 67575.76433333328,
      "d": 1136.3637499999895,
      "v": 86
    },
    {
      "midi": 64,
      "hit": false,
      "t": 67878.79466666661,
      "d": 416.66670833333046,
      "v": 90
    },
    {
      "midi": 69,
      "hit": false,
      "t": 68181.82499999994,
      "d": 909.0910000000003,
      "v": 112
    },
    {
      "midi": 64,
      "hit": false,
      "t": 68484.85533333327,
      "d": 606.0606666666718,
      "v": 86
    },
    {
      "midi": 60,
      "hit": false,
      "t": 68787.88566666661,
      "d": 378.787916666668,
      "v": 94
    },
    {
      "midi": 67,
      "hit": false,
      "t": 69053.0372083334,
      "d": 3484.8488333333225,
      "v": 79
    },
    {
      "midi": 55,
      "hit": false,
      "t": 69090.91599999994,
      "d": 1742.4244166666758,
      "v": 121
    },
    {
      "midi": 43,
      "hit": false,
      "t": 69090.91600000006,
      "d": 3446.97004166666,
      "v": 97
    },
    {
      "midi": 55,
      "hit": false,
      "t": 69090.91600000006,
      "d": 3484.8488333333225,
      "v": 82
    },
    {
      "midi": 62,
      "hit": false,
      "t": 69090.91600000006,
      "d": 3484.8488333333225,
      "v": 82
    },
    {
      "midi": 59,
      "hit": false,
      "t": 69393.94633333328,
      "d": 1136.3637499999895,
      "v": 90
    },
    {
      "midi": 62,
      "hit": false,
      "t": 69696.97666666661,
      "d": 416.66670833333046,
      "v": 94
    },
    {
      "midi": 67,
      "hit": false,
      "t": 70000.00699999994,
      "d": 1666.666833333351,
      "v": 112
    },
    {
      "midi": 62,
      "hit": false,
      "t": 70303.03733333327,
      "d": 1022.7273750000313,
      "v": 90
    },
    {
      "midi": 59,
      "hit": false,
      "t": 70606.06766666661,
      "d": 530.3030833333469,
      "v": 90
    },
    {
      "midi": 55,
      "hit": false,
      "t": 70909.09799999995,
      "d": 1742.4244166666613,
      "v": 112
    },
    {
      "midi": 59,
      "hit": false,
      "t": 71212.1283333333,
      "d": 1060.60616666665,
      "v": 94
    },
    {
      "midi": 62,
      "hit": false,
      "t": 71515.15866666663,
      "d": 454.5454999999929,
      "v": 94
    },
    {
      "midi": 67,
      "hit": false,
      "t": 71818.18899999995,
      "d": 1704.5456249999843,
      "v": 112
    },
    {
      "midi": 62,
      "hit": false,
      "t": 72121.21933333328,
      "d": 1022.7273750000022,
      "v": 94
    },
    {
      "midi": 59,
      "hit": false,
      "t": 72424.24966666661,
      "d": 454.54550000000745,
      "v": 103
    },
    {
      "midi": 62,
      "hit": false,
      "t": 72689.40120833338,
      "d": 3636.363999999987,
      "v": 86
    },
    {
      "midi": 55,
      "hit": false,
      "t": 72727.27999999996,
      "d": 1704.5456249999697,
      "v": 103
    },
    {
      "midi": 55,
      "hit": false,
      "t": 72727.28000000004,
      "d": 1401.5152916666702,
      "v": 79
    },
    {
      "midi": 43,
      "hit": false,
      "t": 72727.28000000004,
      "d": 1439.3940833333327,
      "v": 89
    },
    {
      "midi": 67,
      "hit": false,
      "t": 72727.28000000004,
      "d": 3598.4852083333244,
      "v": 86
    },
    {
      "midi": 59,
      "hit": false,
      "t": 73030.31033333328,
      "d": 1060.60616666665,
      "v": 90
    },
    {
      "midi": 62,
      "hit": false,
      "t": 73333.34066666661,
      "d": 416.66670833333046,
      "v": 90
    },
    {
      "midi": 67,
      "hit": false,
      "t": 73636.37099999994,
      "d": 1742.4244166666467,
      "v": 112
    },
    {
      "midi": 62,
      "hit": false,
      "t": 73939.40133333327,
      "d": 1060.60616666665,
      "v": 86
    },
    {
      "midi": 43,
      "hit": false,
      "t": 74204.55287500004,
      "d": 265.15154166666616,
      "v": 93
    },
    {
      "midi": 55,
      "hit": false,
      "t": 74204.55287500004,
      "d": 265.15154166666616,
      "v": 102
    },
    {
      "midi": 59,
      "hit": false,
      "t": 74242.4316666666,
      "d": 492.42429166665534,
      "v": 94
    },
    {
      "midi": 43,
      "hit": false,
      "t": 74507.58320833337,
      "d": 795.4546249999985,
      "v": 82
    },
    {
      "midi": 55,
      "hit": false,
      "t": 74507.58320833337,
      "d": 833.3334166666609,
      "v": 93
    },
    {
      "midi": 55,
      "hit": false,
      "t": 74545.46199999993,
      "d": 1780.3032083333237,
      "v": 112
    },
    {
      "midi": 59,
      "hit": false,
      "t": 74848.49233333326,
      "d": 1098.484958333327,
      "v": 94
    },
    {
      "midi": 62,
      "hit": false,
      "t": 75151.52266666658,
      "d": 416.666708333345,
      "v": 86
    },
    {
      "midi": 43,
      "hit": false,
      "t": 75416.67420833337,
      "d": 946.9697916666628,
      "v": 89
    },
    {
      "midi": 55,
      "hit": false,
      "t": 75416.67420833337,
      "d": 946.9697916666628,
      "v": 93
    },
    {
      "midi": 67,
      "hit": false,
      "t": 75454.55299999993,
      "d": 833.3334166666609,
      "v": 121
    },
    {
      "midi": 62,
      "hit": false,
      "t": 75757.58333333326,
      "d": 568.1818749999948,
      "v": 86
    },
    {
      "midi": 59,
      "hit": false,
      "t": 76060.61366666658,
      "d": 303.0303333333286,
      "v": 94
    },
    {
      "midi": 60,
      "hit": false,
      "t": 76363.64399999991,
      "d": 1704.5456249999697,
      "v": 127
    },
    {
      "midi": 60,
      "hit": false,
      "t": 76363.64400000003,
      "d": 3409.0912499999977,
      "v": 93
    },
    {
      "midi": 48,
      "hit": false,
      "t": 76363.64400000003,
      "d": 3446.97004166666,
      "v": 97
    },
    {
      "midi": 67,
      "hit": false,
      "t": 76363.64400000003,
      "d": 3484.8488333333225,
      "v": 127
    },
    {
      "midi": 72,
      "hit": false,
      "t": 76363.64400000003,
      "d": 3484.8488333333225,
      "v": 102
    },
    {
      "midi": 64,
      "hit": false,
      "t": 76666.67433333324,
      "d": 1060.60616666665,
      "v": 86
    },
    {
      "midi": 67,
      "hit": false,
      "t": 76969.70466666657,
      "d": 416.66670833333046,
      "v": 86
    },
    {
      "midi": 72,
      "hit": false,
      "t": 77272.7349999999,
      "d": 1628.7880416666594,
      "v": 112
    },
    {
      "midi": 67,
      "hit": false,
      "t": 77575.76533333323,
      "d": 984.8485833333252,
      "v": 90
    },
    {
      "midi": 64,
      "hit": false,
      "t": 77878.79566666656,
      "d": 454.5454999999929,
      "v": 90
    },
    {
      "midi": 60,
      "hit": false,
      "t": 78181.82599999988,
      "d": 1590.909249999997,
      "v": 103
    },
    {
      "midi": 64,
      "hit": false,
      "t": 78484.85633333321,
      "d": 1022.7273750000168,
      "v": 82
    },
    {
      "midi": 67,
      "hit": false,
      "t": 78787.88666666656,
      "d": 378.787916666668,
      "v": 86
    },
    {
      "midi": 72,
      "hit": false,
      "t": 79090.91699999988,
      "d": 643.9394583333342,
      "v": 103
    },
    {
      "midi": 67,
      "hit": false,
      "t": 79393.94733333323,
      "d": 492.42429166665534,
      "v": 86
    },
    {
      "midi": 64,
      "hit": false,
      "t": 79696.97766666656,
      "d": 303.0303333333286,
      "v": 94
    },
    {
      "midi": 67,
      "hit": false,
      "t": 79962.12920833335,
      "d": 3484.8488333333225,
      "v": 122
    },
    {
      "midi": 74,
      "hit": false,
      "t": 79962.12920833335,
      "d": 3484.8488333333225,
      "v": 111
    },
    {
      "midi": 55,
      "hit": false,
      "t": 80000.00799999989,
      "d": 1666.6668333333218,
      "v": 121
    },
    {
      "midi": 43,
      "hit": false,
      "t": 80000.00800000002,
      "d": 3446.97004166666,
      "v": 111
    },
    {
      "midi": 55,
      "hit": false,
      "t": 80000.00800000002,
      "d": 3484.8488333333225,
      "v": 116
    },
    {
      "midi": 59,
      "hit": false,
      "t": 80303.03833333321,
      "d": 909.0910000000003,
      "v": 90
    },
    {
      "midi": 62,
      "hit": false,
      "t": 80606.06866666654,
      "d": 378.787916666668,
      "v": 94
    },
    {
      "midi": 67,
      "hit": false,
      "t": 80909.09899999987,
      "d": 1590.9092500000115,
      "v": 103
    },
    {
      "midi": 62,
      "hit": false,
      "t": 81212.12933333321,
      "d": 984.8485833333252,
      "v": 90
    },
    {
      "midi": 59,
      "hit": false,
      "t": 81515.15966666654,
      "d": 416.66670833333046,
      "v": 90
    },
    {
      "midi": 55,
      "hit": false,
      "t": 81818.18999999987,
      "d": 1666.666833333351,
      "v": 94
    },
    {
      "midi": 59,
      "hit": false,
      "t": 82121.2203333332,
      "d": 946.9697916666773,
      "v": 90
    },
    {
      "midi": 62,
      "hit": false,
      "t": 82424.25066666654,
      "d": 340.9091250000056,
      "v": 86
    },
    {
      "midi": 67,
      "hit": false,
      "t": 82727.28099999989,
      "d": 681.8182499999966,
      "v": 103
    },
    {
      "midi": 62,
      "hit": false,
      "t": 83030.31133333321,
      "d": 606.0606666666718,
      "v": 90
    },
    {
      "midi": 59,
      "hit": false,
      "t": 83333.34166666654,
      "d": 378.7879166666826,
      "v": 94
    },
    {
      "midi": 76,
      "hit": false,
      "t": 83598.49320833334,
      "d": 3484.8488333333225,
      "v": 122
    },
    {
      "midi": 69,
      "hit": false,
      "t": 83598.49320833334,
      "d": 3522.727624999985,
      "v": 122
    },
    {
      "midi": 45,
      "hit": false,
      "t": 83598.49320833334,
      "d": 3560.6064166666474,
      "v": 106
    },
    {
      "midi": 57,
      "hit": false,
      "t": 83636.37199999989,
      "d": 1590.909250000026,
      "v": 103
    },
    {
      "midi": 57,
      "hit": false,
      "t": 83636.372,
      "d": 3522.727624999985,
      "v": 111
    },
    {
      "midi": 60,
      "hit": false,
      "t": 83939.40233333323,
      "d": 984.8485833333398,
      "v": 94
    },
    {
      "midi": 64,
      "hit": false,
      "t": 84242.43266666656,
      "d": 378.787916666668,
      "v": 94
    },
    {
      "midi": 69,
      "hit": false,
      "t": 84545.46299999989,
      "d": 1515.1516666667012,
      "v": 103
    },
    {
      "midi": 64,
      "hit": false,
      "t": 84848.49333333323,
      "d": 984.8485833333543,
      "v": 94
    },
    {
      "midi": 60,
      "hit": false,
      "t": 85151.52366666657,
      "d": 416.666708333345,
      "v": 94
    },
    {
      "midi": 57,
      "hit": false,
      "t": 85454.55399999992,
      "d": 1666.6668333333218,
      "v": 112
    },
    {
      "midi": 60,
      "hit": false,
      "t": 85757.58433333325,
      "d": 984.8485833333398,
      "v": 94
    },
    {
      "midi": 64,
      "hit": false,
      "t": 86060.61466666659,
      "d": 340.90912499999104,
      "v": 90
    },
    {
      "midi": 69,
      "hit": false,
      "t": 86363.64499999992,
      "d": 568.1818749999948,
      "v": 112
    },
    {
      "midi": 64,
      "hit": false,
      "t": 86666.67533333325,
      "d": 606.0606666666572,
      "v": 86
    },
    {
      "midi": 60,
      "hit": false,
      "t": 86969.70566666657,
      "d": 340.90912499999104,
      "v": 94
    },
    {
      "midi": 52,
      "hit": false,
      "t": 87272.7359999999,
      "d": 1666.6668333333073,
      "v": 103
    },
    {
      "midi": 64,
      "hit": false,
      "t": 87272.73599999999,
      "d": 3030.3033333333296,
      "v": 102
    },
    {
      "midi": 71,
      "hit": false,
      "t": 87272.73599999999,
      "d": 3219.6972916666564,
      "v": 102
    },
    {
      "midi": 76,
      "hit": false,
      "t": 87272.73599999999,
      "d": 3257.576083333319,
      "v": 116
    },
    {
      "midi": 52,
      "hit": false,
      "t": 87272.73599999999,
      "d": 3295.4548749999813,
      "v": 116
    },
    {
      "midi": 55,
      "hit": false,
      "t": 87575.76633333323,
      "d": 909.0909999999858,
      "v": 90
    },
    {
      "midi": 59,
      "hit": false,
      "t": 87878.79666666656,
      "d": 340.90912499999104,
      "v": 94
    },
    {
      "midi": 64,
      "hit": false,
      "t": 88181.82699999989,
      "d": 1590.909249999997,
      "v": 103
    },
    {
      "midi": 59,
      "hit": false,
      "t": 88484.85733333322,
      "d": 946.9697916666628,
      "v": 90
    },
    {
      "midi": 55,
      "hit": false,
      "t": 88787.88766666655,
      "d": 378.787916666668,
      "v": 86
    },
    {
      "midi": 52,
      "hit": false,
      "t": 89090.91799999987,
      "d": 1628.788041666674,
      "v": 90
    },
    {
      "midi": 55,
      "hit": false,
      "t": 89393.94833333322,
      "d": 946.9697916666628,
      "v": 86
    },
    {
      "midi": 59,
      "hit": false,
      "t": 89696.97866666655,
      "d": 340.9091250000056,
      "v": 86
    },
    {
      "midi": 64,
      "hit": false,
      "t": 90000.00899999989,
      "d": 871.2122083333234,
      "v": 103
    },
    {
      "midi": 59,
      "hit": false,
      "t": 90303.03933333322,
      "d": 606.0606666666572,
      "v": 86
    },
    {
      "midi": 55,
      "hit": false,
      "t": 90606.06966666655,
      "d": 303.0303333333286,
      "v": 103
    },
    {
      "midi": 77,
      "hit": false,
      "t": 90871.2212083333,
      "d": 3257.5760833333334,
      "v": 106
    },
    {
      "midi": 72,
      "hit": false,
      "t": 90871.2212083333,
      "d": 3295.454874999996,
      "v": 111
    },
    {
      "midi": 53,
      "hit": false,
      "t": 90871.2212083333,
      "d": 3522.727624999985,
      "v": 102
    },
    {
      "midi": 53,
      "hit": false,
      "t": 90909.09999999987,
      "d": 1666.6668333333073,
      "v": 112
    },
    {
      "midi": 65,
      "hit": false,
      "t": 90909.09999999996,
      "d": 3446.97004166666,
      "v": 86
    },
    {
      "midi": 57,
      "hit": false,
      "t": 91212.1303333332,
      "d": 1060.60616666665,
      "v": 90
    },
    {
      "midi": 60,
      "hit": false,
      "t": 91515.16066666653,
      "d": 416.66670833333046,
      "v": 90
    },
    {
      "midi": 65,
      "hit": false,
      "t": 91818.19099999986,
      "d": 1590.909249999997,
      "v": 103
    },
    {
      "midi": 60,
      "hit": false,
      "t": 92121.22133333319,
      "d": 984.8485833333252,
      "v": 86
    },
    {
      "midi": 57,
      "hit": false,
      "t": 92424.25166666652,
      "d": 454.5454999999929,
      "v": 86
    },
    {
      "midi": 53,
      "hit": false,
      "t": 92727.28199999985,
      "d": 1628.7880416666885,
      "v": 112
    },
    {
      "midi": 57,
      "hit": false,
      "t": 93030.31233333318,
      "d": 1022.7273750000313,
      "v": 86
    },
    {
      "midi": 60,
      "hit": false,
      "t": 93333.34266666652,
      "d": 378.7879166666826,
      "v": 90
    },
    {
      "midi": 65,
      "hit": false,
      "t": 93636.37299999986,
      "d": 795.454625000013,
      "v": 112
    },
    {
      "midi": 60,
      "hit": false,
      "t": 93939.4033333332,
      "d": 492.4242916666699,
      "v": 90
    },
    {
      "midi": 57,
      "hit": false,
      "t": 94242.43366666653,
      "d": 303.03033333334315,
      "v": 94
    },
    {
      "midi": 79,
      "hit": false,
      "t": 94507.58520833329,
      "d": 3295.454874999996,
      "v": 116
    },
    {
      "midi": 67,
      "hit": false,
      "t": 94507.58520833329,
      "d": 3409.0912499999977,
      "v": 106
    },
    {
      "midi": 55,
      "hit": false,
      "t": 94545.46399999988,
      "d": 1590.9092500000115,
      "v": 121
    },
    {
      "midi": 74,
      "hit": false,
      "t": 94545.46399999995,
      "d": 3295.454874999996,
      "v": 116
    },
    {
      "midi": 55,
      "hit": false,
      "t": 94545.46399999995,
      "d": 3371.2124583333352,
      "v": 122
    },
    {
      "midi": 59,
      "hit": false,
      "t": 94848.4943333332,
      "d": 984.8485833333398,
      "v": 94
    },
    {
      "midi": 62,
      "hit": false,
      "t": 95151.52466666653,
      "d": 378.787916666668,
      "v": 94
    },
    {
      "midi": 67,
      "hit": false,
      "t": 95454.55499999986,
      "d": 1553.0304583333636,
      "v": 103
    },
    {
      "midi": 62,
      "hit": false,
      "t": 95757.5853333332,
      "d": 946.9697916666919,
      "v": 90
    },
    {
      "midi": 59,
      "hit": false,
      "t": 96060.61566666655,
      "d": 378.7879166666826,
      "v": 90
    },
    {
      "midi": 55,
      "hit": false,
      "t": 96363.64599999989,
      "d": 1666.6668333333218,
      "v": 103
    },
    {
      "midi": 59,
      "hit": false,
      "t": 96666.67633333323,
      "d": 1060.60616666665,
      "v": 82
    },
    {
      "midi": 62,
      "hit": false,
      "t": 96969.70666666656,
      "d": 416.66670833333046,
      "v": 90
    },
    {
      "midi": 67,
      "hit": false,
      "t": 97272.73699999989,
      "d": 871.2122083333234,
      "v": 112
    },
    {
      "midi": 62,
      "hit": false,
      "t": 97575.76733333322,
      "d": 606.0606666666572,
      "v": 86
    },
    {
      "midi": 59,
      "hit": false,
      "t": 97878.79766666655,
      "d": 265.15154166666616,
      "v": 103
    },
    {
      "midi": 67,
      "hit": false,
      "t": 98143.94920833329,
      "d": 3522.7276249999995,
      "v": 116
    },
    {
      "midi": 72,
      "hit": false,
      "t": 98143.94920833329,
      "d": 3522.7276249999995,
      "v": 102
    },
    {
      "midi": 60,
      "hit": false,
      "t": 98181.82799999988,
      "d": 1742.4244166666613,
      "v": 103
    },
    {
      "midi": 48,
      "hit": false,
      "t": 98181.82799999995,
      "d": 3484.848833333337,
      "v": 93
    },
    {
      "midi": 60,
      "hit": false,
      "t": 98181.82799999995,
      "d": 3522.7276249999995,
      "v": 102
    },
    {
      "midi": 64,
      "hit": false,
      "t": 98484.8583333332,
      "d": 1060.6061666666646,
      "v": 86
    },
    {
      "midi": 67,
      "hit": false,
      "t": 98787.88866666653,
      "d": 378.787916666668,
      "v": 90
    },
    {
      "midi": 72,
      "hit": false,
      "t": 99090.91899999986,
      "d": 1628.788041666674,
      "v": 112
    },
    {
      "midi": 67,
      "hit": false,
      "t": 99393.9493333332,
      "d": 1060.6061666666646,
      "v": 86
    },
    {
      "midi": 64,
      "hit": false,
      "t": 99696.97966666654,
      "d": 454.54550000000745,
      "v": 86
    },
    {
      "midi": 60,
      "hit": false,
      "t": 100000.00999999988,
      "d": 1666.6668333333364,
      "v": 94
    },
    {
      "midi": 64,
      "hit": false,
      "t": 100303.0403333332,
      "d": 984.8485833333398,
      "v": 90
    },
    {
      "midi": 67,
      "hit": false,
      "t": 100606.07066666654,
      "d": 378.787916666668,
      "v": 86
    },
    {
      "midi": 72,
      "hit": false,
      "t": 100909.10099999986,
      "d": 1363.6365000000224,
      "v": 112
    },
    {
      "midi": 67,
      "hit": false,
      "t": 101212.13133333321,
      "d": 909.0910000000149,
      "v": 82
    },
    {
      "midi": 64,
      "hit": false,
      "t": 101515.16166666655,
      "d": 378.787916666668,
      "v": 90
    },
    {
      "midi": 48,
      "hit": false,
      "t": 101780.31320833329,
      "d": 3484.8488333333225,
      "v": 82
    },
    {
      "midi": 60,
      "hit": false,
      "t": 101818.19199999988,
      "d": 1704.5456249999988,
      "v": 103
    },
    {
      "midi": 67,
      "hit": false,
      "t": 101818.19199999995,
      "d": 3446.97004166666,
      "v": 111
    },
    {
      "midi": 72,
      "hit": false,
      "t": 101818.19199999995,
      "d": 3446.97004166666,
      "v": 93
    },
    {
      "midi": 60,
      "hit": false,
      "t": 101818.19199999995,
      "d": 3484.8488333333225,
      "v": 102
    },
    {
      "midi": 64,
      "hit": false,
      "t": 102121.22233333322,
      "d": 1022.7273750000022,
      "v": 86
    },
    {
      "midi": 67,
      "hit": false,
      "t": 102424.25266666655,
      "d": 378.787916666668,
      "v": 94
    },
    {
      "midi": 70,
      "hit": false,
      "t": 102727.28299999988,
      "d": 1628.7880416666594,
      "v": 112
    },
    {
      "midi": 67,
      "hit": false,
      "t": 103030.31333333322,
      "d": 1060.60616666665,
      "v": 82
    },
    {
      "midi": 64,
      "hit": false,
      "t": 103333.34366666655,
      "d": 492.42429166665534,
      "v": 90
    },
    {
      "midi": 60,
      "hit": false,
      "t": 103636.37399999988,
      "d": 1590.9092500000115,
      "v": 94
    },
    {
      "midi": 64,
      "hit": false,
      "t": 103939.40433333321,
      "d": 984.8485833333398,
      "v": 86
    },
    {
      "midi": 67,
      "hit": false,
      "t": 104242.43466666654,
      "d": 378.787916666668,
      "v": 90
    },
    {
      "midi": 70,
      "hit": false,
      "t": 104545.46499999987,
      "d": 833.3334166667046,
      "v": 103
    },
    {
      "midi": 67,
      "hit": false,
      "t": 104848.49533333321,
      "d": 454.545500000022,
      "v": 90
    },
    {
      "midi": 64,
      "hit": false,
      "t": 105151.52566666655,
      "d": 303.0303333333577,
      "v": 90
    },
    {
      "midi": 53,
      "hit": false,
      "t": 105454.55599999991,
      "d": 1666.6668333333218,
      "v": 112
    },
    {
      "midi": 65,
      "hit": false,
      "t": 105454.55599999994,
      "d": 1553.0304583333345,
      "v": 106
    },
    {
      "midi": 77,
      "hit": false,
      "t": 105454.55599999994,
      "d": 1553.0304583333345,
      "v": 111
    },
    {
      "midi": 72,
      "hit": false,
      "t": 105454.55599999994,
      "d": 1590.909249999997,
      "v": 102
    },
    {
      "midi": 53,
      "hit": false,
      "t": 105454.55599999994,
      "d": 1742.4244166666613,
      "v": 127
    },
    {
      "midi": 57,
      "hit": false,
      "t": 105757.58633333324,
      "d": 1136.3637499999895,
      "v": 90
    },
    {
      "midi": 60,
      "hit": false,
      "t": 106060.61666666657,
      "d": 416.66670833333046,
      "v": 94
    },
    {
      "midi": 65,
      "hit": false,
      "t": 106363.6469999999,
      "d": 833.3334166666609,
      "v": 103
    },
    {
      "midi": 60,
      "hit": false,
      "t": 106666.67733333322,
      "d": 492.4242916666699,
      "v": 86
    },
    {
      "midi": 57,
      "hit": false,
      "t": 106969.70766666657,
      "d": 303.0303333333286,
      "v": 94
    },
    {
      "midi": 67,
      "hit": false,
      "t": 107234.85920833326,
      "d": 1628.7880416666594,
      "v": 111
    },
    {
      "midi": 74,
      "hit": false,
      "t": 107234.85920833326,
      "d": 1628.7880416666594,
      "v": 122
    },
    {
      "midi": 79,
      "hit": false,
      "t": 107234.85920833326,
      "d": 1628.7880416666594,
      "v": 116
    },
    {
      "midi": 55,
      "hit": false,
      "t": 107272.7379999999,
      "d": 1742.4244166666613,
      "v": 112
    },
    {
      "midi": 55,
      "hit": false,
      "t": 107272.73799999992,
      "d": 1742.4244166666613,
      "v": 122
    },
    {
      "midi": 59,
      "hit": false,
      "t": 107575.76833333322,
      "d": 1136.3637499999895,
      "v": 90
    },
    {
      "midi": 62,
      "hit": false,
      "t": 107878.79866666655,
      "d": 340.90912499999104,
      "v": 94
    },
    {
      "midi": 67,
      "hit": false,
      "t": 108181.82899999988,
      "d": 871.2122083333379,
      "v": 103
    },
    {
      "midi": 62,
      "hit": false,
      "t": 108484.85933333321,
      "d": 606.0606666666718,
      "v": 90
    },
    {
      "midi": 59,
      "hit": false,
      "t": 108787.88966666655,
      "d": 303.0303333333286,
      "v": 94
    },
    {
      "midi": 53,
      "hit": false,
      "t": 109090.91999999988,
      "d": 1704.5456249999697,
      "v": 112
    },
    {
      "midi": 77,
      "hit": false,
      "t": 109090.91999999993,
      "d": 1553.0304583333345,
      "v": 111
    },
    {
      "midi": 65,
      "hit": false,
      "t": 109090.91999999993,
      "d": 1628.788041666674,
      "v": 93
    },
    {
      "midi": 72,
      "hit": false,
      "t": 109090.91999999993,
      "d": 1628.788041666674,
      "v": 111
    },
    {
      "midi": 53,
      "hit": false,
      "t": 109090.91999999993,
      "d": 1780.3032083333383,
      "v": 97
    },
    {
      "midi": 57,
      "hit": false,
      "t": 109393.95033333321,
      "d": 1098.4849583333125,
      "v": 86
    },
    {
      "midi": 60,
      "hit": false,
      "t": 109696.98066666654,
      "d": 416.66670833333046,
      "v": 86
    },
    {
      "midi": 65,
      "hit": false,
      "t": 110000.01099999987,
      "d": 871.2122083333234,
      "v": 112
    },
    {
      "midi": 60,
      "hit": false,
      "t": 110303.0413333332,
      "d": 606.0606666666572,
      "v": 90
    },
    {
      "midi": 57,
      "hit": false,
      "t": 110606.07166666652,
      "d": 416.66670833333046,
      "v": 94
    },
    {
      "midi": 51,
      "hit": false,
      "t": 110909.10199999985,
      "d": 1704.5456249999697,
      "v": 103
    },
    {
      "midi": 63,
      "hit": false,
      "t": 110909.10199999993,
      "d": 1590.909249999997,
      "v": 86
    },
    {
      "midi": 70,
      "hit": false,
      "t": 110909.10199999993,
      "d": 1590.909249999997,
      "v": 111
    },
    {
      "midi": 75,
      "hit": false,
      "t": 110909.10199999993,
      "d": 1628.7880416666594,
      "v": 116
    },
    {
      "midi": 51,
      "hit": false,
      "t": 110909.10199999993,
      "d": 1780.3032083333237,
      "v": 106
    },
    {
      "midi": 55,
      "hit": false,
      "t": 111212.13233333318,
      "d": 1098.4849583333125,
      "v": 90
    },
    {
      "midi": 58,
      "hit": false,
      "t": 111515.16266666651,
      "d": 416.66670833333046,
      "v": 90
    },
    {
      "midi": 63,
      "hit": false,
      "t": 111818.19299999984,
      "d": 946.9697916666482,
      "v": 103
    },
    {
      "midi": 58,
      "hit": false,
      "t": 112121.22333333317,
      "d": 606.0606666666572,
      "v": 86
    },
    {
      "midi": 55,
      "hit": false,
      "t": 112424.2536666665,
      "d": 340.90912499999104,
      "v": 90
    },
    {
      "midi": 53,
      "hit": false,
      "t": 112689.40520833325,
      "d": 1818.1819999999861,
      "v": 106
    },
    {
      "midi": 53,
      "hit": false,
      "t": 112727.28399999983,
      "d": 1666.6668333333218,
      "v": 103
    },
    {
      "midi": 77,
      "hit": false,
      "t": 112727.28399999991,
      "d": 1590.909249999997,
      "v": 89
    },
    {
      "midi": 65,
      "hit": false,
      "t": 112727.28399999991,
      "d": 1628.7880416666594,
      "v": 79
    },
    {
      "midi": 72,
      "hit": false,
      "t": 112727.28399999991,
      "d": 1666.6668333333218,
      "v": 106
    },
    {
      "midi": 57,
      "hit": false,
      "t": 113030.31433333315,
      "d": 1098.484958333327,
      "v": 86
    },
    {
      "midi": 60,
      "hit": false,
      "t": 113333.34466666648,
      "d": 378.787916666668,
      "v": 103
    },
    {
      "midi": 65,
      "hit": false,
      "t": 113636.37499999981,
      "d": 757.575833333336,
      "v": 103
    },
    {
      "midi": 60,
      "hit": false,
      "t": 113939.40533333315,
      "d": 492.42429166665534,
      "v": 103
    },
    {
      "midi": 57,
      "hit": false,
      "t": 114242.43566666648,
      "d": 303.0303333333286,
      "v": 94
    },
    {
      "midi": 79,
      "hit": false,
      "t": 114507.58720833324,
      "d": 1704.5456249999988,
      "v": 122
    },
    {
      "midi": 74,
      "hit": false,
      "t": 114507.58720833324,
      "d": 1742.4244166666613,
      "v": 111
    },
    {
      "midi": 55,
      "hit": false,
      "t": 114545.46599999981,
      "d": 1628.7880416666594,
      "v": 112
    },
    {
      "midi": 67,
      "hit": false,
      "t": 114545.4659999999,
      "d": 1666.6668333333364,
      "v": 106
    },
    {
      "midi": 55,
      "hit": false,
      "t": 114545.4659999999,
      "d": 1780.3032083333383,
      "v": 127
    },
    {
      "midi": 59,
      "hit": false,
      "t": 114848.49633333314,
      "d": 1098.484958333327,
      "v": 90
    },
    {
      "midi": 62,
      "hit": false,
      "t": 115151.52666666647,
      "d": 378.787916666668,
      "v": 94
    },
    {
      "midi": 67,
      "hit": false,
      "t": 115454.5569999998,
      "d": 530.3030833333323,
      "v": 103
    },
    {
      "midi": 62,
      "hit": false,
      "t": 115757.58733333314,
      "d": 568.1818749999948,
      "v": 94
    },
    {
      "midi": 59,
      "hit": false,
      "t": 116060.61766666647,
      "d": 303.0303333333286,
      "v": 103
    },
    {
      "midi": 67,
      "hit": false,
      "t": 116325.76920833324,
      "d": 3371.2124583333207,
      "v": 116
    },
    {
      "midi": 58,
      "hit": false,
      "t": 116363.6479999998,
      "d": 75.75758333333943,
      "v": 90
    },
    {
      "midi": 60,
      "hit": false,
      "t": 116363.6479999998,
      "d": 1742.4244166666758,
      "v": 103
    },
    {
      "midi": 72,
      "hit": false,
      "t": 116363.6479999999,
      "d": 3295.454874999996,
      "v": 93
    },
    {
      "midi": 79,
      "hit": false,
      "t": 116363.6479999999,
      "d": 3333.3336666666582,
      "v": 111
    },
    {
      "midi": 60,
      "hit": false,
      "t": 116363.6479999999,
      "d": 3598.4852083333244,
      "v": 111
    },
    {
      "midi": 64,
      "hit": false,
      "t": 116666.67833333314,
      "d": 1136.3637499999895,
      "v": 103
    },
    {
      "midi": 67,
      "hit": false,
      "t": 116969.70866666647,
      "d": 416.66670833333046,
      "v": 94
    },
    {
      "midi": 72,
      "hit": false,
      "t": 117272.7389999998,
      "d": 1515.151666666672,
      "v": 94
    },
    {
      "midi": 67,
      "hit": false,
      "t": 117575.76933333313,
      "d": 946.9697916666773,
      "v": 90
    },
    {
      "midi": 64,
      "hit": false,
      "t": 117878.79966666647,
      "d": 416.666708333345,
      "v": 94
    },
    {
      "midi": 60,
      "hit": false,
      "t": 118181.82999999981,
      "d": 1590.9092499999824,
      "v": 94
    },
    {
      "midi": 64,
      "hit": false,
      "t": 118484.86033333314,
      "d": 1022.7273749999877,
      "v": 86
    },
    {
      "midi": 67,
      "hit": false,
      "t": 118787.89066666647,
      "d": 340.90912499999104,
      "v": 90
    },
    {
      "midi": 70,
      "hit": false,
      "t": 119090.9209999998,
      "d": 606.0606666666572,
      "v": 112
    },
    {
      "midi": 67,
      "hit": false,
      "t": 119393.95133333313,
      "d": 568.1818749999948,
      "v": 90
    },
    {
      "midi": 64,
      "hit": false,
      "t": 119696.98166666646,
      "d": 303.0303333333286,
      "v": 90
    },
    {
      "midi": 65,
      "hit": false,
      "t": 119962.13320833322,
      "d": 1590.909249999997,
      "v": 93
    },
    {
      "midi": 72,
      "hit": false,
      "t": 119962.13320833322,
      "d": 1628.7880416666594,
      "v": 116
    },
    {
      "midi": 77,
      "hit": false,
      "t": 119962.13320833322,
      "d": 1628.7880416666594,
      "v": 111
    },
    {
      "midi": 53,
      "hit": false,
      "t": 119962.13320833322,
      "d": 1818.1819999999861,
      "v": 86
    },
    {
      "midi": 53,
      "hit": false,
      "t": 120000.01199999978,
      "d": 1628.7880416666449,
      "v": 103
    },
    {
      "midi": 57,
      "hit": false,
      "t": 120303.04233333311,
      "d": 1098.4849583333125,
      "v": 90
    },
    {
      "midi": 60,
      "hit": false,
      "t": 120606.07266666644,
      "d": 416.66670833333046,
      "v": 94
    },
    {
      "midi": 65,
      "hit": false,
      "t": 120909.10299999977,
      "d": 643.9394583333196,
      "v": 103
    },
    {
      "midi": 60,
      "hit": false,
      "t": 121212.1333333331,
      "d": 416.66670833333046,
      "v": 103
    },
    {
      "midi": 57,
      "hit": false,
      "t": 121515.16366666643,
      "d": 303.0303333333286,
      "v": 94
    },
    {
      "midi": 55,
      "hit": false,
      "t": 121780.31520833321,
      "d": 1818.1819999999861,
      "v": 127
    },
    {
      "midi": 55,
      "hit": false,
      "t": 121818.19399999976,
      "d": 1780.3032083333237,
      "v": 112
    },
    {
      "midi": 74,
      "hit": false,
      "t": 121818.19399999987,
      "d": 1590.909249999997,
      "v": 122
    },
    {
      "midi": 79,
      "hit": false,
      "t": 121818.19399999987,
      "d": 1590.909249999997,
      "v": 116
    },
    {
      "midi": 67,
      "hit": false,
      "t": 121818.19399999987,
      "d": 1628.7880416666594,
      "v": 106
    },
    {
      "midi": 59,
      "hit": false,
      "t": 122121.22433333308,
      "d": 1098.484958333327,
      "v": 90
    },
    {
      "midi": 62,
      "hit": false,
      "t": 122424.25466666641,
      "d": 378.787916666668,
      "v": 94
    },
    {
      "midi": 67,
      "hit": false,
      "t": 122727.28499999974,
      "d": 643.9394583333342,
      "v": 103
    },
    {
      "midi": 62,
      "hit": false,
      "t": 123030.31533333308,
      "d": 606.0606666666572,
      "v": 90
    },
    {
      "midi": 59,
      "hit": false,
      "t": 123333.34566666641,
      "d": 303.0303333333286,
      "v": 94
    },
    {
      "midi": 77,
      "hit": false,
      "t": 123598.4972083332,
      "d": 1666.6668333333218,
      "v": 106
    },
    {
      "midi": 72,
      "hit": false,
      "t": 123598.4972083332,
      "d": 1704.5456249999843,
      "v": 111
    },
    {
      "midi": 53,
      "hit": false,
      "t": 123636.37599999974,
      "d": 1704.5456249999697,
      "v": 121
    },
    {
      "midi": 65,
      "hit": false,
      "t": 123636.37599999986,
      "d": 1666.6668333333218,
      "v": 97
    },
    {
      "midi": 53,
      "hit": false,
      "t": 123636.37599999986,
      "d": 1780.3032083333237,
      "v": 93
    },
    {
      "midi": 57,
      "hit": false,
      "t": 123939.40633333307,
      "d": 1098.4849583333125,
      "v": 86
    },
    {
      "midi": 60,
      "hit": false,
      "t": 124242.4366666664,
      "d": 416.66670833333046,
      "v": 94
    },
    {
      "midi": 65,
      "hit": false,
      "t": 124545.46699999973,
      "d": 871.2122083333234,
      "v": 103
    },
    {
      "midi": 60,
      "hit": false,
      "t": 124848.49733333306,
      "d": 606.0606666666572,
      "v": 94
    },
    {
      "midi": 57,
      "hit": false,
      "t": 125151.52766666638,
      "d": 416.66670833333046,
      "v": 94
    },
    {
      "midi": 70,
      "hit": false,
      "t": 125416.67920833318,
      "d": 1704.5456249999988,
      "v": 106
    },
    {
      "midi": 75,
      "hit": false,
      "t": 125416.67920833318,
      "d": 1704.5456249999988,
      "v": 116
    },
    {
      "midi": 51,
      "hit": false,
      "t": 125416.67920833318,
      "d": 1780.3032083333383,
      "v": 102
    },
    {
      "midi": 51,
      "hit": false,
      "t": 125454.55799999971,
      "d": 1704.5456249999843,
      "v": 94
    },
    {
      "midi": 63,
      "hit": false,
      "t": 125454.55799999984,
      "d": 1628.788041666674,
      "v": 93
    },
    {
      "midi": 55,
      "hit": false,
      "t": 125757.58833333304,
      "d": 1136.3637499999895,
      "v": 86
    },
    {
      "midi": 58,
      "hit": false,
      "t": 126060.61866666637,
      "d": 416.66670833333046,
      "v": 90
    },
    {
      "midi": 63,
      "hit": false,
      "t": 126363.6489999997,
      "d": 871.2122083333379,
      "v": 103
    },
    {
      "midi": 58,
      "hit": false,
      "t": 126666.67933333303,
      "d": 606.0606666666718,
      "v": 94
    },
    {
      "midi": 55,
      "hit": false,
      "t": 126969.70966666637,
      "d": 378.787916666668,
      "v": 94
    },
    {
      "midi": 65,
      "hit": false,
      "t": 127234.86120833318,
      "d": 1590.909249999997,
      "v": 93
    },
    {
      "midi": 72,
      "hit": false,
      "t": 127234.86120833318,
      "d": 1628.7880416666594,
      "v": 106
    },
    {
      "midi": 53,
      "hit": false,
      "t": 127234.86120833318,
      "d": 1856.0607916666486,
      "v": 102
    },
    {
      "midi": 53,
      "hit": false,
      "t": 127272.7399999997,
      "d": 1666.6668333333218,
      "v": 103
    },
    {
      "midi": 77,
      "hit": false,
      "t": 127272.73999999985,
      "d": 1553.0304583333345,
      "v": 111
    },
    {
      "midi": 57,
      "hit": false,
      "t": 127575.77033333304,
      "d": 1098.4849583333125,
      "v": 90
    },
    {
      "midi": 60,
      "hit": false,
      "t": 127878.80066666637,
      "d": 454.5454999999929,
      "v": 103
    },
    {
      "midi": 65,
      "hit": false,
      "t": 128181.8309999997,
      "d": 568.1818749999948,
      "v": 94
    },
    {
      "midi": 60,
      "hit": false,
      "t": 128484.86133333303,
      "d": 416.66670833333046,
      "v": 94
    },
    {
      "midi": 57,
      "hit": false,
      "t": 128787.89166666636,
      "d": 303.0303333333286,
      "v": 94
    },
    {
      "midi": 79,
      "hit": false,
      "t": 129053.04320833317,
      "d": 1666.6668333333218,
      "v": 122
    },
    {
      "midi": 74,
      "hit": false,
      "t": 129053.04320833317,
      "d": 1704.5456249999843,
      "v": 122
    },
    {
      "midi": 55,
      "hit": false,
      "t": 129053.04320833317,
      "d": 1818.1819999999861,
      "v": 116
    },
    {
      "midi": 55,
      "hit": false,
      "t": 129090.92199999969,
      "d": 1628.7880416666594,
      "v": 103
    },
    {
      "midi": 67,
      "hit": false,
      "t": 129090.92199999983,
      "d": 1628.7880416666594,
      "v": 102
    },
    {
      "midi": 59,
      "hit": false,
      "t": 129393.95233333301,
      "d": 1098.484958333327,
      "v": 86
    },
    {
      "midi": 62,
      "hit": false,
      "t": 129696.98266666634,
      "d": 378.787916666668,
      "v": 94
    },
    {
      "midi": 67,
      "hit": false,
      "t": 130000.01299999967,
      "d": 492.4242916666699,
      "v": 103
    },
    {
      "midi": 62,
      "hit": false,
      "t": 130303.04333333301,
      "d": 606.0606666666572,
      "v": 94
    },
    {
      "midi": 59,
      "hit": false,
      "t": 130606.07366666634,
      "d": 265.15154166666616,
      "v": 103
    },
    {
      "midi": 72,
      "hit": false,
      "t": 130871.22520833316,
      "d": 1628.7880416666594,
      "v": 102
    },
    {
      "midi": 79,
      "hit": false,
      "t": 130871.22520833316,
      "d": 1628.7880416666594,
      "v": 111
    },
    {
      "midi": 60,
      "hit": false,
      "t": 130909.10399999967,
      "d": 1553.030458333349,
      "v": 103
    },
    {
      "midi": 67,
      "hit": false,
      "t": 130909.10399999982,
      "d": 1590.909249999997,
      "v": 116
    },
    {
      "midi": 60,
      "hit": false,
      "t": 130909.10399999982,
      "d": 1704.5456249999988,
      "v": 116
    },
    {
      "midi": 64,
      "hit": false,
      "t": 131212.134333333,
      "d": 1098.4849583333416,
      "v": 103
    },
    {
      "midi": 67,
      "hit": false,
      "t": 131515.16466666633,
      "d": 378.7879166666535,
      "v": 90
    },
    {
      "midi": 72,
      "hit": false,
      "t": 131818.19499999966,
      "d": 454.54550000000745,
      "v": 112
    },
    {
      "midi": 67,
      "hit": false,
      "t": 132121.225333333,
      "d": 568.1818750000384,
      "v": 94
    },
    {
      "midi": 64,
      "hit": false,
      "t": 132424.25566666634,
      "d": 265.1515416666807,
      "v": 94
    },
    {
      "midi": 74,
      "hit": false,
      "t": 132689.40720833314,
      "d": 719.6970416666882,
      "v": 122
    },
    {
      "midi": 55,
      "hit": false,
      "t": 132727.2859999997,
      "d": 1628.7880416666449,
      "v": 103
    },
    {
      "midi": 55,
      "hit": false,
      "t": 132727.28599999982,
      "d": 681.8182500000112,
      "v": 127
    },
    {
      "midi": 67,
      "hit": false,
      "t": 132727.28599999982,
      "d": 681.8182500000112,
      "v": 106
    },
    {
      "midi": 79,
      "hit": false,
      "t": 132727.28599999982,
      "d": 681.8182500000112,
      "v": 111
    },
    {
      "midi": 59,
      "hit": false,
      "t": 133030.31633333303,
      "d": 984.8485833333107,
      "v": 86
    },
    {
      "midi": 62,
      "hit": false,
      "t": 133333.34666666636,
      "d": 378.7879166666535,
      "v": 94
    },
    {
      "midi": 74,
      "hit": false,
      "t": 133598.49820833316,
      "d": 909.0909999999858,
      "v": 122
    },
    {
      "midi": 79,
      "hit": false,
      "t": 133598.49820833316,
      "d": 909.0909999999858,
      "v": 111
    },
    {
      "midi": 67,
      "hit": false,
      "t": 133636.3769999997,
      "d": 454.54549999997835,
      "v": 112
    },
    {
      "midi": 55,
      "hit": false,
      "t": 133636.37699999983,
      "d": 75.75758333332487,
      "v": 127
    },
    {
      "midi": 67,
      "hit": false,
      "t": 133636.37699999983,
      "d": 871.2122083333088,
      "v": 111
    },
    {
      "midi": 57,
      "hit": false,
      "t": 133901.52854166648,
      "d": 113.63637500000186,
      "v": 127
    },
    {
      "midi": 62,
      "hit": false,
      "t": 133939.40733333302,
      "d": 378.7879166666535,
      "v": 90
    },
    {
      "midi": 59,
      "hit": false,
      "t": 134204.5588749998,
      "d": 113.63637500000186,
      "v": 122
    },
    {
      "midi": 59,
      "hit": false,
      "t": 134242.43766666634,
      "d": 227.27275000000373,
      "v": 94
    },
    {
      "midi": 60,
      "hit": false,
      "t": 134545.46799999967,
      "d": 1628.7880416666449,
      "v": 115
    },
    {
      "midi": 72,
      "hit": false,
      "t": 134545.46799999982,
      "d": 37.87879166667699,
      "v": 111
    },
    {
      "midi": 76,
      "hit": false,
      "t": 134545.46799999982,
      "d": 75.75758333335398,
      "v": 122
    },
    {
      "midi": 79,
      "hit": false,
      "t": 134545.46799999982,
      "d": 113.63637500003097,
      "v": 122
    },
    {
      "midi": 60,
      "hit": false,
      "t": 134545.46799999982,
      "d": 1401.5152916667575,
      "v": 116
    },
    {
      "midi": 72,
      "hit": false,
      "t": 134810.61954166653,
      "d": 75.75758333332487,
      "v": 70
    },
    {
      "midi": 76,
      "hit": false,
      "t": 134810.61954166653,
      "d": 113.63637500000186,
      "v": 122
    },
    {
      "midi": 79,
      "hit": false,
      "t": 134810.61954166653,
      "d": 113.63637500000186,
      "v": 116
    },
    {
      "midi": 64,
      "hit": false,
      "t": 134848.498333333,
      "d": 1022.7273749999877,
      "v": 94
    },
    {
      "midi": 79,
      "hit": false,
      "t": 135113.64987499986,
      "d": 75.75758333335398,
      "v": 102
    },
    {
      "midi": 67,
      "hit": false,
      "t": 135151.52866666633,
      "d": 378.7879166666535,
      "v": 94
    },
    {
      "midi": 72,
      "hit": false,
      "t": 135151.52866666653,
      "d": 37.87879166667699,
      "v": 67
    },
    {
      "midi": 76,
      "hit": false,
      "t": 135151.52866666653,
      "d": 37.87879166667699,
      "v": 116
    },
    {
      "midi": 72,
      "hit": false,
      "t": 135416.68020833321,
      "d": 75.75758333332487,
      "v": 86
    },
    {
      "midi": 76,
      "hit": false,
      "t": 135416.68020833321,
      "d": 113.63637500000186,
      "v": 122
    },
    {
      "midi": 79,
      "hit": false,
      "t": 135416.68020833321,
      "d": 113.63637500000186,
      "v": 122
    },
    {
      "midi": 72,
      "hit": false,
      "t": 135454.55899999966,
      "d": 1590.909249999997,
      "v": 103
    },
    {
      "midi": 79,
      "hit": false,
      "t": 135719.71054166654,
      "d": 113.63637500003097,
      "v": 116
    },
    {
      "midi": 67,
      "hit": false,
      "t": 135757.589333333,
      "d": 946.9697916666628,
      "v": 103
    },
    {
      "midi": 72,
      "hit": false,
      "t": 135757.58933333322,
      "d": 37.87879166667699,
      "v": 73
    },
    {
      "midi": 76,
      "hit": false,
      "t": 135757.58933333322,
      "d": 75.75758333335398,
      "v": 122
    },
    {
      "midi": 79,
      "hit": false,
      "t": 136022.7408749999,
      "d": 75.75758333335398,
      "v": 122
    },
    {
      "midi": 76,
      "hit": false,
      "t": 136022.7408749999,
      "d": 113.63637500003097,
      "v": 116
    },
    {
      "midi": 60,
      "hit": false,
      "t": 136022.7408749999,
      "d": 189.39395833335584,
      "v": 116
    },
    {
      "midi": 64,
      "hit": false,
      "t": 136060.61966666632,
      "d": 416.66670833333046,
      "v": 94
    },
    {
      "midi": 72,
      "hit": false,
      "t": 136060.61966666658,
      "d": 37.87879166667699,
      "v": 73
    },
    {
      "midi": 79,
      "hit": false,
      "t": 136325.77120833326,
      "d": 113.63637500003097,
      "v": 122
    },
    {
      "midi": 60,
      "hit": false,
      "t": 136363.64999999964,
      "d": 1628.788041666703,
      "v": 103
    },
    {
      "midi": 72,
      "hit": false,
      "t": 136363.64999999994,
      "d": 37.87879166667699,
      "v": 82
    },
    {
      "midi": 76,
      "hit": false,
      "t": 136363.64999999994,
      "d": 75.75758333335398,
      "v": 122
    },
    {
      "midi": 60,
      "hit": false,
      "t": 136363.64999999994,
      "d": 757.5758333333943,
      "v": 116
    },
    {
      "midi": 79,
      "hit": false,
      "t": 136628.80154166662,
      "d": 75.75758333335398,
      "v": 111
    },
    {
      "midi": 76,
      "hit": false,
      "t": 136628.80154166662,
      "d": 113.63637500003097,
      "v": 116
    },
    {
      "midi": 64,
      "hit": false,
      "t": 136666.68033333297,
      "d": 1060.6061666666938,
      "v": 90
    },
    {
      "midi": 72,
      "hit": false,
      "t": 136666.6803333333,
      "d": 37.87879166667699,
      "v": 70
    },
    {
      "midi": 79,
      "hit": false,
      "t": 136931.83187499997,
      "d": 75.75758333335398,
      "v": 116
    },
    {
      "midi": 76,
      "hit": false,
      "t": 136931.83187499997,
      "d": 113.63637500003097,
      "v": 116
    },
    {
      "midi": 67,
      "hit": false,
      "t": 136969.71066666633,
      "d": 378.7879166666535,
      "v": 103
    },
    {
      "midi": 72,
      "hit": false,
      "t": 136969.71066666665,
      "d": 37.87879166667699,
      "v": 73
    },
    {
      "midi": 79,
      "hit": false,
      "t": 137234.86220833333,
      "d": 113.63637500003097,
      "v": 127
    },
    {
      "midi": 60,
      "hit": false,
      "t": 137234.86220833333,
      "d": 719.6970416667464,
      "v": 122
    },
    {
      "midi": 72,
      "hit": false,
      "t": 137272.74099999966,
      "d": 909.0910000000149,
      "v": 112
    },
    {
      "midi": 72,
      "hit": false,
      "t": 137272.741,
      "d": 37.87879166667699,
      "v": 86
    },
    {
      "midi": 76,
      "hit": false,
      "t": 137272.741,
      "d": 75.75758333335398,
      "v": 122
    },
    {
      "midi": 76,
      "hit": false,
      "t": 137537.8925416667,
      "d": 75.75758333335398,
      "v": 116
    },
    {
      "midi": 79,
      "hit": false,
      "t": 137537.8925416667,
      "d": 75.75758333335398,
      "v": 116
    },
    {
      "midi": 67,
      "hit": false,
      "t": 137575.771333333,
      "d": 606.0606666666863,
      "v": 90
    },
    {
      "midi": 72,
      "hit": false,
      "t": 137575.77133333337,
      "d": 37.87879166667699,
      "v": 60
    },
    {
      "midi": 76,
      "hit": false,
      "t": 137840.92287500005,
      "d": 113.63637500003097,
      "v": 116
    },
    {
      "midi": 64,
      "hit": false,
      "t": 137878.80166666635,
      "d": 340.9091250000056,
      "v": 94
    },
    {
      "midi": 72,
      "hit": false,
      "t": 137878.80166666672,
      "d": 37.87879166667699,
      "v": 86
    },
    {
      "midi": 79,
      "hit": false,
      "t": 137878.80166666672,
      "d": 75.75758333335398,
      "v": 122
    },
    {
      "midi": 81,
      "hit": false,
      "t": 138143.9532083334,
      "d": 75.75758333335398,
      "v": 116
    },
    {
      "midi": 76,
      "hit": false,
      "t": 138143.9532083334,
      "d": 113.63637500003097,
      "v": 122
    },
    {
      "midi": 57,
      "hit": false,
      "t": 138143.9532083334,
      "d": 1363.6365000001097,
      "v": 127
    },
    {
      "midi": 57,
      "hit": false,
      "t": 138181.83199999967,
      "d": 1742.4244166666758,
      "v": 121
    },
    {
      "midi": 72,
      "hit": false,
      "t": 138181.83200000008,
      "d": 75.75758333335398,
      "v": 89
    },
    {
      "midi": 81,
      "hit": false,
      "t": 138446.98354166676,
      "d": 113.63637500003097,
      "v": 106
    },
    {
      "midi": 60,
      "hit": false,
      "t": 138484.86233333303,
      "d": 1098.4849583333125,
      "v": 94
    },
    {
      "midi": 72,
      "hit": false,
      "t": 138484.86233333344,
      "d": 37.87879166667699,
      "v": 76
    },
    {
      "midi": 76,
      "hit": false,
      "t": 138484.86233333344,
      "d": 75.75758333335398,
      "v": 116
    },
    {
      "midi": 72,
      "hit": false,
      "t": 138750.01387500012,
      "d": 75.75758333335398,
      "v": 76
    },
    {
      "midi": 76,
      "hit": false,
      "t": 138750.01387500012,
      "d": 113.63637500003097,
      "v": 122
    },
    {
      "midi": 64,
      "hit": false,
      "t": 138787.89266666636,
      "d": 416.66670833333046,
      "v": 90
    },
    {
      "midi": 81,
      "hit": false,
      "t": 138787.8926666668,
      "d": 37.87879166667699,
      "v": 106
    },
    {
      "midi": 72,
      "hit": false,
      "t": 139053.04420833348,
      "d": 75.75758333332487,
      "v": 86
    },
    {
      "midi": 81,
      "hit": false,
      "t": 139053.04420833348,
      "d": 75.75758333332487,
      "v": 111
    },
    {
      "midi": 76,
      "hit": false,
      "t": 139053.04420833348,
      "d": 113.63637500000186,
      "v": 122
    },
    {
      "midi": 69,
      "hit": false,
      "t": 139090.9229999997,
      "d": 1704.5456249999697,
      "v": 103
    },
    {
      "midi": 81,
      "hit": false,
      "t": 139356.0745416668,
      "d": 75.75758333335398,
      "v": 111
    },
    {
      "midi": 76,
      "hit": false,
      "t": 139356.0745416668,
      "d": 113.63637500003097,
      "v": 116
    },
    {
      "midi": 64,
      "hit": false,
      "t": 139393.95333333302,
      "d": 1022.7273749999877,
      "v": 82
    },
    {
      "midi": 72,
      "hit": false,
      "t": 139393.95333333348,
      "d": 37.87879166667699,
      "v": 73
    },
    {
      "midi": 57,
      "hit": false,
      "t": 139659.1048750002,
      "d": 151.51516666670796,
      "v": 122
    },
    {
      "midi": 60,
      "hit": false,
      "t": 139696.98366666635,
      "d": 492.42429166665534,
      "v": 90
    },
    {
      "midi": 72,
      "hit": false,
      "t": 139696.98366666687,
      "d": 37.87879166667699,
      "v": 73
    },
    {
      "midi": 81,
      "hit": false,
      "t": 139696.98366666687,
      "d": 37.87879166667699,
      "v": 111
    },
    {
      "midi": 76,
      "hit": false,
      "t": 139696.98366666687,
      "d": 75.75758333335398,
      "v": 122
    },
    {
      "midi": 76,
      "hit": false,
      "t": 139962.13520833358,
      "d": 113.63637500003097,
      "v": 116
    },
    {
      "midi": 81,
      "hit": false,
      "t": 139962.13520833358,
      "d": 113.63637500003097,
      "v": 102
    },
    {
      "midi": 57,
      "hit": false,
      "t": 139962.13520833358,
      "d": 757.5758333334234,
      "v": 127
    },
    {
      "midi": 57,
      "hit": false,
      "t": 140000.01399999968,
      "d": 1628.7880416666449,
      "v": 103
    },
    {
      "midi": 72,
      "hit": false,
      "t": 140000.01400000026,
      "d": 37.87879166667699,
      "v": 86
    },
    {
      "midi": 72,
      "hit": false,
      "t": 140265.16554166694,
      "d": 75.75758333335398,
      "v": 76
    },
    {
      "midi": 76,
      "hit": false,
      "t": 140265.16554166694,
      "d": 113.63637500003097,
      "v": 116
    },
    {
      "midi": 60,
      "hit": false,
      "t": 140303.044333333,
      "d": 1136.3637499999895,
      "v": 90
    },
    {
      "midi": 81,
      "hit": false,
      "t": 140303.04433333362,
      "d": 37.87879166667699,
      "v": 97
    },
    {
      "midi": 81,
      "hit": false,
      "t": 140568.1958750003,
      "d": 75.75758333335398,
      "v": 106
    },
    {
      "midi": 76,
      "hit": false,
      "t": 140568.1958750003,
      "d": 113.63637500003097,
      "v": 116
    },
    {
      "midi": 64,
      "hit": false,
      "t": 140606.07466666633,
      "d": 416.66670833333046,
      "v": 90
    },
    {
      "midi": 72,
      "hit": false,
      "t": 140606.07466666697,
      "d": 37.87879166667699,
      "v": 73
    },
    {
      "midi": 69,
      "hit": false,
      "t": 140909.10499999966,
      "d": 871.2122083333379,
      "v": 112
    },
    {
      "midi": 72,
      "hit": false,
      "t": 140909.10500000033,
      "d": 37.87879166667699,
      "v": 86
    },
    {
      "midi": 81,
      "hit": false,
      "t": 140909.10500000033,
      "d": 37.87879166667699,
      "v": 106
    },
    {
      "midi": 76,
      "hit": false,
      "t": 140909.10500000033,
      "d": 75.75758333335398,
      "v": 122
    },
    {
      "midi": 57,
      "hit": false,
      "t": 140909.10500000033,
      "d": 719.6970416666882,
      "v": 127
    },
    {
      "midi": 72,
      "hit": false,
      "t": 141174.256541667,
      "d": 75.75758333332487,
      "v": 76
    },
    {
      "midi": 76,
      "hit": false,
      "t": 141174.256541667,
      "d": 75.75758333332487,
      "v": 122
    },
    {
      "midi": 81,
      "hit": false,
      "t": 141174.256541667,
      "d": 75.75758333332487,
      "v": 106
    },
    {
      "midi": 64,
      "hit": false,
      "t": 141212.135333333,
      "d": 606.0606666666863,
      "v": 90
    },
    {
      "midi": 72,
      "hit": false,
      "t": 141477.28687500034,
      "d": 113.63637500000186,
      "v": 93
    },
    {
      "midi": 76,
      "hit": false,
      "t": 141477.28687500034,
      "d": 113.63637500000186,
      "v": 122
    },
    {
      "midi": 81,
      "hit": false,
      "t": 141477.28687500034,
      "d": 113.63637500000186,
      "v": 111
    },
    {
      "midi": 60,
      "hit": false,
      "t": 141515.16566666632,
      "d": 378.7879166666826,
      "v": 103
    },
    {
      "midi": 77,
      "hit": false,
      "t": 141780.3172083337,
      "d": 113.63637500000186,
      "v": 116
    },
    {
      "midi": 81,
      "hit": false,
      "t": 141780.3172083337,
      "d": 113.63637500000186,
      "v": 122
    },
    {
      "midi": 53,
      "hit": false,
      "t": 141818.19599999968,
      "d": 1742.4244166666467,
      "v": 121
    },
    {
      "midi": 72,
      "hit": false,
      "t": 141818.19600000037,
      "d": 75.75758333332487,
      "v": 89
    },
    {
      "midi": 53,
      "hit": false,
      "t": 141818.19600000037,
      "d": 1325.7577083332872,
      "v": 122
    },
    {
      "midi": 72,
      "hit": false,
      "t": 142083.34754166703,
      "d": 75.75758333332487,
      "v": 73
    },
    {
      "midi": 77,
      "hit": false,
      "t": 142083.34754166703,
      "d": 75.75758333332487,
      "v": 97
    },
    {
      "midi": 81,
      "hit": false,
      "t": 142083.34754166703,
      "d": 75.75758333332487,
      "v": 102
    },
    {
      "midi": 57,
      "hit": false,
      "t": 142121.226333333,
      "d": 1098.4849583333125,
      "v": 90
    },
    {
      "midi": 72,
      "hit": false,
      "t": 142386.37787500035,
      "d": 75.75758333332487,
      "v": 76
    },
    {
      "midi": 77,
      "hit": false,
      "t": 142386.37787500035,
      "d": 75.75758333332487,
      "v": 102
    },
    {
      "midi": 81,
      "hit": false,
      "t": 142386.37787500035,
      "d": 75.75758333332487,
      "v": 111
    },
    {
      "midi": 60,
      "hit": false,
      "t": 142424.25666666633,
      "d": 416.66670833333046,
      "v": 94
    },
    {
      "midi": 72,
      "hit": false,
      "t": 142689.40820833368,
      "d": 75.75758333332487,
      "v": 89
    },
    {
      "midi": 81,
      "hit": false,
      "t": 142689.40820833368,
      "d": 75.75758333332487,
      "v": 102
    },
    {
      "midi": 77,
      "hit": false,
      "t": 142689.40820833368,
      "d": 113.63637500000186,
      "v": 111
    },
    {
      "midi": 65,
      "hit": false,
      "t": 142727.28699999966,
      "d": 1742.4244166666467,
      "v": 103
    },
    {
      "midi": 72,
      "hit": false,
      "t": 142992.438541667,
      "d": 75.75758333332487,
      "v": 76
    },
    {
      "midi": 77,
      "hit": false,
      "t": 142992.438541667,
      "d": 75.75758333332487,
      "v": 106
    },
    {
      "midi": 81,
      "hit": false,
      "t": 142992.438541667,
      "d": 75.75758333332487,
      "v": 106
    },
    {
      "midi": 60,
      "hit": false,
      "t": 143030.317333333,
      "d": 984.8485833333107,
      "v": 86
    },
    {
      "midi": 77,
      "hit": false,
      "t": 143295.46887500034,
      "d": 113.63637500003097,
      "v": 97
    },
    {
      "midi": 53,
      "hit": false,
      "t": 143295.46887500034,
      "d": 151.51516666670796,
      "v": 122
    },
    {
      "midi": 57,
      "hit": false,
      "t": 143333.34766666632,
      "d": 492.42429166665534,
      "v": 94
    },
    {
      "midi": 72,
      "hit": false,
      "t": 143333.34766666702,
      "d": 37.87879166667699,
      "v": 76
    },
    {
      "midi": 81,
      "hit": false,
      "t": 143333.34766666702,
      "d": 75.75758333335398,
      "v": 111
    },
    {
      "midi": 53,
      "hit": false,
      "t": 143598.49920833373,
      "d": 795.4546250000421,
      "v": 116
    },
    {
      "midi": 53,
      "hit": false,
      "t": 143636.37799999965,
      "d": 1704.5456249999697,
      "v": 103
    },
    {
      "midi": 72,
      "hit": false,
      "t": 143636.3780000004,
      "d": 37.87879166667699,
      "v": 89
    },
    {
      "midi": 77,
      "hit": false,
      "t": 143636.3780000004,
      "d": 75.75758333335398,
      "v": 116
    },
    {
      "midi": 81,
      "hit": false,
      "t": 143636.3780000004,
      "d": 75.75758333335398,
      "v": 116
    },
    {
      "midi": 81,
      "hit": false,
      "t": 143901.52954166709,
      "d": 75.75758333335398,
      "v": 106
    },
    {
      "midi": 77,
      "hit": false,
      "t": 143901.52954166709,
      "d": 113.63637500003097,
      "v": 102
    },
    {
      "midi": 57,
      "hit": false,
      "t": 143939.40833333298,
      "d": 1098.4849583333125,
      "v": 86
    },
    {
      "midi": 72,
      "hit": false,
      "t": 143939.40833333376,
      "d": 37.87879166667699,
      "v": 73
    },
    {
      "midi": 72,
      "hit": false,
      "t": 144204.55987500044,
      "d": 75.75758333332487,
      "v": 82
    },
    {
      "midi": 77,
      "hit": false,
      "t": 144204.55987500044,
      "d": 75.75758333332487,
      "v": 102
    },
    {
      "midi": 81,
      "hit": false,
      "t": 144204.55987500044,
      "d": 75.75758333332487,
      "v": 111
    },
    {
      "midi": 60,
      "hit": false,
      "t": 144242.4386666663,
      "d": 416.66670833333046,
      "v": 86
    },
    {
      "midi": 81,
      "hit": false,
      "t": 144507.59020833377,
      "d": 113.63637500000186,
      "v": 106
    },
    {
      "midi": 65,
      "hit": false,
      "t": 144545.46899999963,
      "d": 1022.7273750000168,
      "v": 121
    },
    {
      "midi": 72,
      "hit": false,
      "t": 144545.46900000045,
      "d": 75.75758333332487,
      "v": 93
    },
    {
      "midi": 77,
      "hit": false,
      "t": 144545.46900000045,
      "d": 75.75758333332487,
      "v": 93
    },
    {
      "midi": 53,
      "hit": false,
      "t": 144545.46900000045,
      "d": 719.6970416666882,
      "v": 111
    },
    {
      "midi": 81,
      "hit": false,
      "t": 144810.6205416671,
      "d": 75.75758333335398,
      "v": 106
    },
    {
      "midi": 77,
      "hit": false,
      "t": 144810.6205416671,
      "d": 113.63637500003097,
      "v": 97
    },
    {
      "midi": 60,
      "hit": false,
      "t": 144848.49933333296,
      "d": 681.8182500000112,
      "v": 90
    },
    {
      "midi": 72,
      "hit": false,
      "t": 144848.49933333378,
      "d": 75.75758333335398,
      "v": 82
    },
    {
      "midi": 77,
      "hit": false,
      "t": 145113.65087500046,
      "d": 75.75758333332487,
      "v": 97
    },
    {
      "midi": 72,
      "hit": false,
      "t": 145113.65087500046,
      "d": 113.63637500000186,
      "v": 86
    },
    {
      "midi": 81,
      "hit": false,
      "t": 145113.65087500046,
      "d": 113.63637500000186,
      "v": 102
    },
    {
      "midi": 57,
      "hit": false,
      "t": 145151.5296666663,
      "d": 340.9091250000056,
      "v": 94
    },
    {
      "midi": 83,
      "hit": false,
      "t": 145416.68120833382,
      "d": 75.75758333335398,
      "v": 116
    },
    {
      "midi": 55,
      "hit": false,
      "t": 145416.68120833382,
      "d": 1363.6365000000515,
      "v": 127
    },
    {
      "midi": 55,
      "hit": false,
      "t": 145454.55999999962,
      "d": 1704.5456249999988,
      "v": 112
    },
    {
      "midi": 74,
      "hit": false,
      "t": 145454.5600000005,
      "d": 37.87879166667699,
      "v": 111
    },
    {
      "midi": 79,
      "hit": false,
      "t": 145719.71154166717,
      "d": 75.75758333335398,
      "v": 111
    },
    {
      "midi": 74,
      "hit": false,
      "t": 145719.71154166717,
      "d": 113.63637500003097,
      "v": 106
    },
    {
      "midi": 59,
      "hit": false,
      "t": 145757.59033333298,
      "d": 1098.4849583333125,
      "v": 94
    },
    {
      "midi": 83,
      "hit": false,
      "t": 145757.59033333385,
      "d": 37.87879166667699,
      "v": 106
    },
    {
      "midi": 74,
      "hit": false,
      "t": 146022.74187500053,
      "d": 75.75758333332487,
      "v": 102
    },
    {
      "midi": 79,
      "hit": false,
      "t": 146022.74187500053,
      "d": 75.75758333332487,
      "v": 116
    },
    {
      "midi": 83,
      "hit": false,
      "t": 146022.74187500053,
      "d": 75.75758333332487,
      "v": 106
    },
    {
      "midi": 62,
      "hit": false,
      "t": 146060.6206666663,
      "d": 416.66670833333046,
      "v": 94
    },
    {
      "midi": 74,
      "hit": false,
      "t": 146325.77220833386,
      "d": 75.75758333332487,
      "v": 102
    },
    {
      "midi": 79,
      "hit": false,
      "t": 146325.77220833386,
      "d": 75.75758333332487,
      "v": 122
    },
    {
      "midi": 83,
      "hit": false,
      "t": 146325.77220833386,
      "d": 75.75758333332487,
      "v": 102
    },
    {
      "midi": 67,
      "hit": false,
      "t": 146363.65099999963,
      "d": 1704.5456249999988,
      "v": 112
    },
    {
      "midi": 74,
      "hit": false,
      "t": 146628.8025416672,
      "d": 75.75758333335398,
      "v": 106
    },
    {
      "midi": 79,
      "hit": false,
      "t": 146628.8025416672,
      "d": 75.75758333335398,
      "v": 122
    },
    {
      "midi": 62,
      "hit": false,
      "t": 146666.68133333296,
      "d": 1022.7273750000168,
      "v": 82
    },
    {
      "midi": 83,
      "hit": false,
      "t": 146666.68133333387,
      "d": 37.87879166667699,
      "v": 111
    },
    {
      "midi": 79,
      "hit": false,
      "t": 146931.83287500055,
      "d": 75.75758333335398,
      "v": 122
    },
    {
      "midi": 55,
      "hit": false,
      "t": 146931.83287500055,
      "d": 113.63637500003097,
      "v": 127
    },
    {
      "midi": 59,
      "hit": false,
      "t": 146969.7116666663,
      "d": 454.54550000000745,
      "v": 94
    },
    {
      "midi": 83,
      "hit": false,
      "t": 146969.71166666722,
      "d": 37.87879166667699,
      "v": 111
    },
    {
      "midi": 74,
      "hit": false,
      "t": 146969.71166666722,
      "d": 75.75758333335398,
      "v": 111
    },
    {
      "midi": 55,
      "hit": false,
      "t": 147234.8632083339,
      "d": 795.4546250000421,
      "v": 127
    },
    {
      "midi": 55,
      "hit": false,
      "t": 147272.74199999962,
      "d": 1628.788041666674,
      "v": 112
    },
    {
      "midi": 83,
      "hit": false,
      "t": 147272.74200000058,
      "d": 37.87879166667699,
      "v": 116
    },
    {
      "midi": 74,
      "hit": false,
      "t": 147272.74200000058,
      "d": 75.75758333335398,
      "v": 116
    },
    {
      "midi": 79,
      "hit": false,
      "t": 147272.74200000058,
      "d": 75.75758333335398,
      "v": 122
    },
    {
      "midi": 74,
      "hit": false,
      "t": 147537.89354166726,
      "d": 75.75758333332487,
      "v": 106
    },
    {
      "midi": 79,
      "hit": false,
      "t": 147537.89354166726,
      "d": 75.75758333332487,
      "v": 111
    },
    {
      "midi": 83,
      "hit": false,
      "t": 147537.89354166726,
      "d": 75.75758333332487,
      "v": 106
    },
    {
      "midi": 59,
      "hit": false,
      "t": 147575.77233333298,
      "d": 1098.4849583333125,
      "v": 90
    },
    {
      "midi": 74,
      "hit": false,
      "t": 147840.9238750006,
      "d": 75.75758333335398,
      "v": 106
    },
    {
      "midi": 62,
      "hit": false,
      "t": 147878.8026666663,
      "d": 416.66670833333046,
      "v": 90
    },
    {
      "midi": 79,
      "hit": false,
      "t": 147878.80266666727,
      "d": 37.87879166667699,
      "v": 122
    },
    {
      "midi": 83,
      "hit": false,
      "t": 147878.80266666727,
      "d": 37.87879166667699,
      "v": 111
    },
    {
      "midi": 74,
      "hit": false,
      "t": 148143.95420833395,
      "d": 75.75758333335398,
      "v": 116
    },
    {
      "midi": 79,
      "hit": false,
      "t": 148143.95420833395,
      "d": 75.75758333335398,
      "v": 127
    },
    {
      "midi": 83,
      "hit": false,
      "t": 148143.95420833395,
      "d": 75.75758333335398,
      "v": 116
    },
    {
      "midi": 67,
      "hit": false,
      "t": 148181.83299999963,
      "d": 946.9697916666919,
      "v": 121
    },
    {
      "midi": 55,
      "hit": false,
      "t": 148181.83300000062,
      "d": 681.8182500000694,
      "v": 127
    },
    {
      "midi": 74,
      "hit": false,
      "t": 148446.9845416673,
      "d": 75.75758333335398,
      "v": 111
    },
    {
      "midi": 83,
      "hit": false,
      "t": 148446.9845416673,
      "d": 75.75758333335398,
      "v": 111
    },
    {
      "midi": 62,
      "hit": false,
      "t": 148484.86333333296,
      "d": 606.0606666666863,
      "v": 90
    },
    {
      "midi": 79,
      "hit": false,
      "t": 148484.86333333398,
      "d": 37.87879166667699,
      "v": 122
    },
    {
      "midi": 79,
      "hit": false,
      "t": 148750.01487500066,
      "d": 75.75758333335398,
      "v": 127
    },
    {
      "midi": 83,
      "hit": false,
      "t": 148750.01487500066,
      "d": 75.75758333335398,
      "v": 122
    },
    {
      "midi": 59,
      "hit": false,
      "t": 148787.8936666663,
      "d": 265.1515416666807,
      "v": 94
    },
    {
      "midi": 74,
      "hit": false,
      "t": 148787.89366666734,
      "d": 75.75758333335398,
      "v": 116
    },
    {
      "midi": 60,
      "hit": false,
      "t": 149090.92399999965,
      "d": 1704.545625000028,
      "v": 112
    },
    {
      "midi": 72,
      "hit": false,
      "t": 149090.9240000007,
      "d": 75.75758333332487,
      "v": 93
    },
    {
      "midi": 76,
      "hit": false,
      "t": 149090.9240000007,
      "d": 75.75758333332487,
      "v": 127
    },
    {
      "midi": 79,
      "hit": false,
      "t": 149090.9240000007,
      "d": 75.75758333332487,
      "v": 122
    },
    {
      "midi": 60,
      "hit": false,
      "t": 149090.9240000007,
      "d": 1325.7577083333163,
      "v": 122
    },
    {
      "midi": 72,
      "hit": false,
      "t": 149356.07554166735,
      "d": 75.75758333332487,
      "v": 70
    },
    {
      "midi": 76,
      "hit": false,
      "t": 149356.07554166735,
      "d": 75.75758333332487,
      "v": 116
    },
    {
      "midi": 79,
      "hit": false,
      "t": 149356.07554166735,
      "d": 75.75758333332487,
      "v": 102
    },
    {
      "midi": 64,
      "hit": false,
      "t": 149393.954333333,
      "d": 1022.7273750000168,
      "v": 90
    },
    {
      "midi": 72,
      "hit": false,
      "t": 149659.10587500068,
      "d": 75.75758333332487,
      "v": 76
    },
    {
      "midi": 79,
      "hit": false,
      "t": 149659.10587500068,
      "d": 75.75758333332487,
      "v": 106
    },
    {
      "midi": 76,
      "hit": false,
      "t": 149659.10587500068,
      "d": 113.63637500000186,
      "v": 116
    },
    {
      "midi": 67,
      "hit": false,
      "t": 149696.98466666634,
      "d": 454.54550000000745,
      "v": 103
    },
    {
      "midi": 76,
      "hit": false,
      "t": 149962.136208334,
      "d": 113.63637500000186,
      "v": 122
    },
    {
      "midi": 72,
      "hit": false,
      "t": 150000.01499999966,
      "d": 1704.545625000028,
      "v": 112
    },
    {
      "midi": 72,
      "hit": false,
      "t": 150000.01500000068,
      "d": 75.75758333332487,
      "v": 86
    },
    {
      "midi": 79,
      "hit": false,
      "t": 150000.01500000068,
      "d": 75.75758333332487,
      "v": 102
    },
    {
      "midi": 76,
      "hit": false,
      "t": 150265.16654166733,
      "d": 75.75758333335398,
      "v": 122
    },
    {
      "midi": 79,
      "hit": false,
      "t": 150265.16654166733,
      "d": 75.75758333335398,
      "v": 111
    },
    {
      "midi": 67,
      "hit": false,
      "t": 150303.04533333302,
      "d": 1022.7273750000168,
      "v": 90
    },
    {
      "midi": 72,
      "hit": false,
      "t": 150303.045333334,
      "d": 37.87879166667699,
      "v": 70
    },
    {
      "midi": 60,
      "hit": false,
      "t": 150568.1968750007,
      "d": 151.51516666670796,
      "v": 127
    },
    {
      "midi": 64,
      "hit": false,
      "t": 150606.07566666635,
      "d": 454.54550000000745,
      "v": 94
    },
    {
      "midi": 72,
      "hit": false,
      "t": 150606.07566666737,
      "d": 37.87879166667699,
      "v": 73
    },
    {
      "midi": 79,
      "hit": false,
      "t": 150606.07566666737,
      "d": 37.87879166667699,
      "v": 111
    },
    {
      "midi": 76,
      "hit": false,
      "t": 150606.07566666737,
      "d": 75.75758333335398,
      "v": 122
    },
    {
      "midi": 60,
      "hit": false,
      "t": 150871.22720833408,
      "d": 1628.7880416667322,
      "v": 122
    },
    {
      "midi": 60,
      "hit": false,
      "t": 150909.10599999968,
      "d": 1666.666833333351,
      "v": 112
    },
    {
      "midi": 72,
      "hit": false,
      "t": 150909.10600000076,
      "d": 37.87879166667699,
      "v": 82
    },
    {
      "midi": 76,
      "hit": false,
      "t": 150909.10600000076,
      "d": 75.75758333335398,
      "v": 122
    },
    {
      "midi": 79,
      "hit": false,
      "t": 150909.10600000076,
      "d": 75.75758333335398,
      "v": 111
    },
    {
      "midi": 76,
      "hit": false,
      "t": 151174.25754166744,
      "d": 75.75758333335398,
      "v": 116
    },
    {
      "midi": 79,
      "hit": false,
      "t": 151174.25754166744,
      "d": 75.75758333335398,
      "v": 106
    },
    {
      "midi": 64,
      "hit": false,
      "t": 151212.13633333304,
      "d": 1022.7273749999877,
      "v": 86
    },
    {
      "midi": 72,
      "hit": false,
      "t": 151212.1363333341,
      "d": 37.87879166667699,
      "v": 70
    },
    {
      "midi": 72,
      "hit": false,
      "t": 151477.2878750008,
      "d": 75.75758333332487,
      "v": 79
    },
    {
      "midi": 76,
      "hit": false,
      "t": 151477.2878750008,
      "d": 113.63637500000186,
      "v": 116
    },
    {
      "midi": 79,
      "hit": false,
      "t": 151477.2878750008,
      "d": 113.63637500000186,
      "v": 111
    },
    {
      "midi": 67,
      "hit": false,
      "t": 151515.16666666637,
      "d": 416.66670833333046,
      "v": 94
    },
    {
      "midi": 79,
      "hit": false,
      "t": 151780.31820833412,
      "d": 75.75758333335398,
      "v": 122
    },
    {
      "midi": 72,
      "hit": false,
      "t": 151818.1969999997,
      "d": 833.3334166666609,
      "v": 103
    },
    {
      "midi": 72,
      "hit": false,
      "t": 151818.1970000008,
      "d": 75.75758333335398,
      "v": 82
    },
    {
      "midi": 76,
      "hit": false,
      "t": 151818.1970000008,
      "d": 75.75758333335398,
      "v": 127
    },
    {
      "midi": 72,
      "hit": false,
      "t": 152083.34854166748,
      "d": 75.75758333332487,
      "v": 79
    },
    {
      "midi": 76,
      "hit": false,
      "t": 152083.34854166748,
      "d": 75.75758333332487,
      "v": 127
    },
    {
      "midi": 79,
      "hit": false,
      "t": 152083.34854166748,
      "d": 75.75758333332487,
      "v": 106
    },
    {
      "midi": 67,
      "hit": false,
      "t": 152121.22733333302,
      "d": 606.0606666666572,
      "v": 94
    },
    {
      "midi": 79,
      "hit": false,
      "t": 152386.3788750008,
      "d": 75.75758333332487,
      "v": 111
    },
    {
      "midi": 72,
      "hit": false,
      "t": 152386.3788750008,
      "d": 113.63637500000186,
      "v": 79
    },
    {
      "midi": 76,
      "hit": false,
      "t": 152386.3788750008,
      "d": 113.63637500000186,
      "v": 122
    },
    {
      "midi": 64,
      "hit": false,
      "t": 152424.25766666635,
      "d": 340.9091250000056,
      "v": 103
    },
    {
      "midi": 76,
      "hit": false,
      "t": 152689.40920833414,
      "d": 113.63637500003097,
      "v": 127
    },
    {
      "midi": 57,
      "hit": false,
      "t": 152689.40920833414,
      "d": 1363.6365000000515,
      "v": 127
    },
    {
      "midi": 57,
      "hit": false,
      "t": 152727.28799999968,
      "d": 1704.545625000028,
      "v": 121
    },
    {
      "midi": 72,
      "hit": false,
      "t": 152727.28800000082,
      "d": 37.87879166667699,
      "v": 86
    },
    {
      "midi": 81,
      "hit": false,
      "t": 152727.28800000082,
      "d": 75.75758333335398,
      "v": 116
    },
    {
      "midi": 72,
      "hit": false,
      "t": 152992.4395416675,
      "d": 75.75758333335398,
      "v": 76
    },
    {
      "midi": 76,
      "hit": false,
      "t": 152992.4395416675,
      "d": 113.63637500003097,
      "v": 116
    },
    {
      "midi": 60,
      "hit": false,
      "t": 153030.31833333304,
      "d": 1060.6061666666646,
      "v": 90
    },
    {
      "midi": 81,
      "hit": false,
      "t": 153030.31833333417,
      "d": 37.87879166667699,
      "v": 102
    },
    {
      "midi": 72,
      "hit": false,
      "t": 153295.46987500085,
      "d": 75.75758333332487,
      "v": 73
    },
    {
      "midi": 76,
      "hit": false,
      "t": 153295.46987500085,
      "d": 75.75758333332487,
      "v": 116
    },
    {
      "midi": 81,
      "hit": false,
      "t": 153295.46987500085,
      "d": 75.75758333332487,
      "v": 111
    },
    {
      "midi": 64,
      "hit": false,
      "t": 153333.34866666637,
      "d": 416.66670833333046,
      "v": 94
    },
    {
      "midi": 81,
      "hit": false,
      "t": 153598.50020833418,
      "d": 75.75758333335398,
      "v": 111
    },
    {
      "midi": 76,
      "hit": false,
      "t": 153598.50020833418,
      "d": 113.63637500003097,
      "v": 122
    },
    {
      "midi": 69,
      "hit": false,
      "t": 153636.3789999997,
      "d": 1666.66683333338,
      "v": 112
    },
    {
      "midi": 72,
      "hit": false,
      "t": 153636.37900000086,
      "d": 75.75758333335398,
      "v": 82
    },
    {
      "midi": 72,
      "hit": false,
      "t": 153901.53054166754,
      "d": 75.75758333332487,
      "v": 76
    },
    {
      "midi": 76,
      "hit": false,
      "t": 153901.53054166754,
      "d": 75.75758333332487,
      "v": 116
    },
    {
      "midi": 81,
      "hit": false,
      "t": 153901.53054166754,
      "d": 75.75758333332487,
      "v": 106
    },
    {
      "midi": 64,
      "hit": false,
      "t": 153939.40933333302,
      "d": 946.9697916666919,
      "v": 86
    },
    {
      "midi": 76,
      "hit": false,
      "t": 154204.56087500087,
      "d": 113.63637500000186,
      "v": 122
    },
    {
      "midi": 57,
      "hit": false,
      "t": 154204.56087500087,
      "d": 151.51516666667885,
      "v": 127
    },
    {
      "midi": 60,
      "hit": false,
      "t": 154242.43966666638,
      "d": 416.66670833333046,
      "v": 94
    },
    {
      "midi": 72,
      "hit": false,
      "t": 154242.43966666755,
      "d": 75.75758333332487,
      "v": 82
    },
    {
      "midi": 81,
      "hit": false,
      "t": 154242.43966666755,
      "d": 75.75758333332487,
      "v": 102
    },
    {
      "midi": 57,
      "hit": false,
      "t": 154507.59120833423,
      "d": 1628.788041666703,
      "v": 122
    },
    {
      "midi": 57,
      "hit": false,
      "t": 154545.4699999997,
      "d": 1666.66683333338,
      "v": 103
    },
    {
      "midi": 72,
      "hit": false,
      "t": 154545.4700000009,
      "d": 75.75758333332487,
      "v": 86
    },
    {
      "midi": 76,
      "hit": false,
      "t": 154545.4700000009,
      "d": 75.75758333332487,
      "v": 122
    },
    {
      "midi": 81,
      "hit": false,
      "t": 154545.4700000009,
      "d": 75.75758333332487,
      "v": 106
    },
    {
      "midi": 72,
      "hit": false,
      "t": 154810.62154166755,
      "d": 75.75758333332487,
      "v": 86
    },
    {
      "midi": 76,
      "hit": false,
      "t": 154810.62154166755,
      "d": 75.75758333332487,
      "v": 122
    },
    {
      "midi": 81,
      "hit": false,
      "t": 154810.62154166755,
      "d": 75.75758333332487,
      "v": 111
    },
    {
      "midi": 60,
      "hit": false,
      "t": 154848.50033333304,
      "d": 1136.3637500000477,
      "v": 86
    },
    {
      "midi": 76,
      "hit": false,
      "t": 155113.65187500088,
      "d": 75.75758333335398,
      "v": 122
    },
    {
      "midi": 81,
      "hit": false,
      "t": 155113.65187500088,
      "d": 75.75758333335398,
      "v": 111
    },
    {
      "midi": 64,
      "hit": false,
      "t": 155151.5306666664,
      "d": 378.7879166666826,
      "v": 90
    },
    {
      "midi": 72,
      "hit": false,
      "t": 155151.53066666756,
      "d": 37.87879166667699,
      "v": 86
    },
    {
      "midi": 81,
      "hit": false,
      "t": 155416.68220833424,
      "d": 75.75758333332487,
      "v": 106
    },
    {
      "midi": 72,
      "hit": false,
      "t": 155416.68220833424,
      "d": 113.63637500000186,
      "v": 97
    },
    {
      "midi": 76,
      "hit": false,
      "t": 155416.68220833424,
      "d": 113.63637500000186,
      "v": 127
    },
    {
      "midi": 69,
      "hit": false,
      "t": 155454.56099999975,
      "d": 909.0910000000149,
      "v": 112
    },
    {
      "midi": 81,
      "hit": false,
      "t": 155719.71254166757,
      "d": 75.75758333332487,
      "v": 111
    },
    {
      "midi": 72,
      "hit": false,
      "t": 155719.71254166757,
      "d": 113.63637500000186,
      "v": 89
    },
    {
      "midi": 76,
      "hit": false,
      "t": 155719.71254166757,
      "d": 113.63637500000186,
      "v": 116
    },
    {
      "midi": 64,
      "hit": false,
      "t": 155757.59133333308,
      "d": 606.0606666666863,
      "v": 86
    },
    {
      "midi": 76,
      "hit": false,
      "t": 156022.7428750009,
      "d": 113.63637500003097,
      "v": 116
    },
    {
      "midi": 81,
      "hit": false,
      "t": 156022.7428750009,
      "d": 113.63637500003097,
      "v": 116
    },
    {
      "midi": 60,
      "hit": false,
      "t": 156060.6216666664,
      "d": 378.7879166666826,
      "v": 94
    },
    {
      "midi": 72,
      "hit": false,
      "t": 156060.62166666758,
      "d": 37.87879166667699,
      "v": 86
    },
    {
      "midi": 55,
      "hit": false,
      "t": 156325.77320833426,
      "d": 1401.5152916667575,
      "v": 127
    },
    {
      "midi": 55,
      "hit": false,
      "t": 156363.65199999977,
      "d": 1742.4244166666467,
      "v": 121
    },
    {
      "midi": 79,
      "hit": false,
      "t": 156363.65200000093,
      "d": 37.87879166667699,
      "v": 116
    },
    {
      "midi": 83,
      "hit": false,
      "t": 156363.65200000093,
      "d": 37.87879166667699,
      "v": 122
    },
    {
      "midi": 74,
      "hit": false,
      "t": 156363.65200000093,
      "d": 75.75758333335398,
      "v": 116
    },
    {
      "midi": 74,
      "hit": false,
      "t": 156628.8035416676,
      "d": 75.75758333335398,
      "v": 106
    },
    {
      "midi": 83,
      "hit": false,
      "t": 156628.8035416676,
      "d": 75.75758333335398,
      "v": 111
    },
    {
      "midi": 59,
      "hit": false,
      "t": 156666.6823333331,
      "d": 1136.3637499999895,
      "v": 90
    },
    {
      "midi": 79,
      "hit": false,
      "t": 156666.6823333343,
      "d": 37.87879166667699,
      "v": 122
    },
    {
      "midi": 79,
      "hit": false,
      "t": 156931.83387500097,
      "d": 75.75758333335398,
      "v": 122
    },
    {
      "midi": 62,
      "hit": false,
      "t": 156969.71266666643,
      "d": 416.66670833333046,
      "v": 94
    },
    {
      "midi": 83,
      "hit": false,
      "t": 156969.71266666765,
      "d": 37.87879166667699,
      "v": 106
    },
    {
      "midi": 74,
      "hit": false,
      "t": 156969.71266666765,
      "d": 75.75758333335398,
      "v": 111
    },
    {
      "midi": 74,
      "hit": false,
      "t": 157234.86420833433,
      "d": 75.75758333332487,
      "v": 116
    },
    {
      "midi": 79,
      "hit": false,
      "t": 157234.86420833433,
      "d": 75.75758333332487,
      "v": 127
    },
    {
      "midi": 83,
      "hit": false,
      "t": 157234.86420833433,
      "d": 75.75758333332487,
      "v": 116
    },
    {
      "midi": 67,
      "hit": false,
      "t": 157272.74299999975,
      "d": 1666.6668333333218,
      "v": 112
    },
    {
      "midi": 74,
      "hit": false,
      "t": 157537.89454166766,
      "d": 75.75758333335398,
      "v": 106
    },
    {
      "midi": 62,
      "hit": false,
      "t": 157575.77333333308,
      "d": 1022.7273749999877,
      "v": 90
    },
    {
      "midi": 83,
      "hit": false,
      "t": 157575.77333333433,
      "d": 37.87879166667699,
      "v": 106
    },
    {
      "midi": 79,
      "hit": false,
      "t": 157575.77333333433,
      "d": 75.75758333335398,
      "v": 122
    },
    {
      "midi": 79,
      "hit": false,
      "t": 157840.92487500102,
      "d": 75.75758333335398,
      "v": 116
    },
    {
      "midi": 55,
      "hit": false,
      "t": 157840.92487500102,
      "d": 151.51516666667885,
      "v": 127
    },
    {
      "midi": 59,
      "hit": false,
      "t": 157878.8036666664,
      "d": 530.3030833333323,
      "v": 90
    },
    {
      "midi": 74,
      "hit": false,
      "t": 157878.8036666677,
      "d": 37.87879166667699,
      "v": 106
    },
    {
      "midi": 83,
      "hit": false,
      "t": 157878.8036666677,
      "d": 37.87879166667699,
      "v": 97
    },
    {
      "midi": 79,
      "hit": false,
      "t": 158143.95520833437,
      "d": 75.75758333335398,
      "v": 116
    },
    {
      "midi": 55,
      "hit": false,
      "t": 158143.95520833437,
      "d": 1704.5456250001153,
      "v": 127
    },
    {
      "midi": 55,
      "hit": false,
      "t": 158181.83399999974,
      "d": 1742.424416666705,
      "v": 112
    },
    {
      "midi": 74,
      "hit": false,
      "t": 158181.83400000105,
      "d": 37.87879166667699,
      "v": 116
    },
    {
      "midi": 83,
      "hit": false,
      "t": 158181.83400000105,
      "d": 37.87879166667699,
      "v": 116
    },
    {
      "midi": 74,
      "hit": false,
      "t": 158446.98554166773,
      "d": 75.75758333332487,
      "v": 102
    },
    {
      "midi": 79,
      "hit": false,
      "t": 158446.98554166773,
      "d": 75.75758333332487,
      "v": 111
    },
    {
      "midi": 83,
      "hit": false,
      "t": 158446.98554166773,
      "d": 75.75758333332487,
      "v": 102
    },
    {
      "midi": 59,
      "hit": false,
      "t": 158484.86433333307,
      "d": 1098.4849583333707,
      "v": 94
    },
    {
      "midi": 74,
      "hit": false,
      "t": 158750.01587500106,
      "d": 37.87879166667699,
      "v": 97
    },
    {
      "midi": 79,
      "hit": false,
      "t": 158750.01587500106,
      "d": 75.75758333335398,
      "v": 116
    },
    {
      "midi": 83,
      "hit": false,
      "t": 158750.01587500106,
      "d": 75.75758333335398,
      "v": 97
    },
    {
      "midi": 62,
      "hit": false,
      "t": 158787.8946666664,
      "d": 454.54550000003655,
      "v": 94
    },
    {
      "midi": 79,
      "hit": false,
      "t": 159053.04620833442,
      "d": 75.75758333335398,
      "v": 127
    },
    {
      "midi": 83,
      "hit": false,
      "t": 159053.04620833442,
      "d": 75.75758333335398,
      "v": 116
    },
    {
      "midi": 67,
      "hit": false,
      "t": 159090.92499999976,
      "d": 1704.545625000028,
      "v": 112
    },
    {
      "midi": 74,
      "hit": false,
      "t": 159090.9250000011,
      "d": 75.75758333335398,
      "v": 116
    },
    {
      "midi": 79,
      "hit": false,
      "t": 159356.07654166778,
      "d": 75.75758333335398,
      "v": 106
    },
    {
      "midi": 62,
      "hit": false,
      "t": 159393.9553333331,
      "d": 1022.7273750000168,
      "v": 94
    },
    {
      "midi": 83,
      "hit": false,
      "t": 159393.95533333445,
      "d": 37.87879166667699,
      "v": 106
    },
    {
      "midi": 79,
      "hit": false,
      "t": 159659.10687500113,
      "d": 75.75758333335398,
      "v": 127
    },
    {
      "midi": 83,
      "hit": false,
      "t": 159659.10687500113,
      "d": 75.75758333335398,
      "v": 106
    },
    {
      "midi": 59,
      "hit": false,
      "t": 159696.98566666644,
      "d": 454.54550000000745,
      "v": 103
    },
    {
      "midi": 74,
      "hit": false,
      "t": 159696.9856666678,
      "d": 37.87879166667699,
      "v": 106
    },
    {
      "midi": 79,
      "hit": false,
      "t": 159962.1372083345,
      "d": 113.63637500003097,
      "v": 127
    },
    {
      "midi": 55,
      "hit": false,
      "t": 159962.1372083345,
      "d": 1363.6365000000806,
      "v": 127
    },
    {
      "midi": 55,
      "hit": false,
      "t": 160000.01599999977,
      "d": 1704.545625000028,
      "v": 103
    },
    {
      "midi": 74,
      "hit": false,
      "t": 160000.01600000117,
      "d": 37.87879166667699,
      "v": 111
    },
    {
      "midi": 83,
      "hit": false,
      "t": 160000.01600000117,
      "d": 37.87879166667699,
      "v": 111
    },
    {
      "midi": 74,
      "hit": false,
      "t": 160265.16754166785,
      "d": 75.75758333335398,
      "v": 106
    },
    {
      "midi": 79,
      "hit": false,
      "t": 160265.16754166785,
      "d": 75.75758333335398,
      "v": 116
    },
    {
      "midi": 59,
      "hit": false,
      "t": 160303.04633333313,
      "d": 1060.6061666666646,
      "v": 90
    },
    {
      "midi": 83,
      "hit": false,
      "t": 160303.04633333453,
      "d": 37.87879166667699,
      "v": 97
    },
    {
      "midi": 74,
      "hit": false,
      "t": 160568.1978750012,
      "d": 37.87879166667699,
      "v": 106
    },
    {
      "midi": 79,
      "hit": false,
      "t": 160568.1978750012,
      "d": 75.75758333335398,
      "v": 116
    },
    {
      "midi": 83,
      "hit": false,
      "t": 160568.1978750012,
      "d": 75.75758333335398,
      "v": 106
    },
    {
      "midi": 62,
      "hit": false,
      "t": 160606.07666666646,
      "d": 416.66670833333046,
      "v": 90
    },
    {
      "midi": 79,
      "hit": false,
      "t": 160871.22820833456,
      "d": 75.75758333335398,
      "v": 111
    },
    {
      "midi": 83,
      "hit": false,
      "t": 160871.22820833456,
      "d": 75.75758333335398,
      "v": 111
    },
    {
      "midi": 67,
      "hit": false,
      "t": 160909.10699999979,
      "d": 1742.424416666705,
      "v": 112
    },
    {
      "midi": 74,
      "hit": false,
      "t": 160909.10700000124,
      "d": 37.87879166667699,
      "v": 111
    },
    {
      "midi": 74,
      "hit": false,
      "t": 161174.25854166792,
      "d": 75.75758333332487,
      "v": 106
    },
    {
      "midi": 79,
      "hit": false,
      "t": 161174.25854166792,
      "d": 75.75758333332487,
      "v": 122
    },
    {
      "midi": 83,
      "hit": false,
      "t": 161174.25854166792,
      "d": 75.75758333332487,
      "v": 106
    },
    {
      "midi": 62,
      "hit": false,
      "t": 161212.1373333331,
      "d": 1060.6061666666938,
      "v": 86
    },
    {
      "midi": 74,
      "hit": false,
      "t": 161477.28887500125,
      "d": 75.75758333332487,
      "v": 106
    },
    {
      "midi": 79,
      "hit": false,
      "t": 161477.28887500125,
      "d": 75.75758333332487,
      "v": 122
    },
    {
      "midi": 83,
      "hit": false,
      "t": 161477.28887500125,
      "d": 75.75758333332487,
      "v": 111
    },
    {
      "midi": 55,
      "hit": false,
      "t": 161477.28887500125,
      "d": 151.51516666664975,
      "v": 127
    },
    {
      "midi": 59,
      "hit": false,
      "t": 161515.16766666647,
      "d": 492.42429166665534,
      "v": 94
    },
    {
      "midi": 83,
      "hit": false,
      "t": 161780.31920833458,
      "d": 75.75758333335398,
      "v": 111
    },
    {
      "midi": 79,
      "hit": false,
      "t": 161780.31920833458,
      "d": 113.63637500003097,
      "v": 127
    },
    {
      "midi": 55,
      "hit": false,
      "t": 161780.31920833458,
      "d": 757.5758333333652,
      "v": 127
    },
    {
      "midi": 55,
      "hit": false,
      "t": 161818.1979999998,
      "d": 1780.3032083333528,
      "v": 112
    },
    {
      "midi": 74,
      "hit": false,
      "t": 161818.19800000126,
      "d": 37.87879166667699,
      "v": 116
    },
    {
      "midi": 74,
      "hit": false,
      "t": 162083.34954166794,
      "d": 75.75758333332487,
      "v": 102
    },
    {
      "midi": 79,
      "hit": false,
      "t": 162083.34954166794,
      "d": 75.75758333332487,
      "v": 106
    },
    {
      "midi": 83,
      "hit": false,
      "t": 162083.34954166794,
      "d": 75.75758333332487,
      "v": 102
    },
    {
      "midi": 59,
      "hit": false,
      "t": 162121.22833333313,
      "d": 1098.4849583333416,
      "v": 94
    },
    {
      "midi": 74,
      "hit": false,
      "t": 162386.37987500126,
      "d": 75.75758333335398,
      "v": 111
    },
    {
      "midi": 83,
      "hit": false,
      "t": 162386.37987500126,
      "d": 75.75758333335398,
      "v": 111
    },
    {
      "midi": 62,
      "hit": false,
      "t": 162424.2586666665,
      "d": 416.66670833333046,
      "v": 86
    },
    {
      "midi": 79,
      "hit": false,
      "t": 162424.25866666794,
      "d": 37.87879166667699,
      "v": 122
    },
    {
      "midi": 74,
      "hit": false,
      "t": 162689.41020833462,
      "d": 37.87879166667699,
      "v": 116
    },
    {
      "midi": 79,
      "hit": false,
      "t": 162689.41020833462,
      "d": 37.87879166667699,
      "v": 127
    },
    {
      "midi": 55,
      "hit": false,
      "t": 162689.41020833462,
      "d": 719.6970416667173,
      "v": 127
    },
    {
      "midi": 67,
      "hit": false,
      "t": 162727.28899999982,
      "d": 833.3334166666609,
      "v": 121
    },
    {
      "midi": 74,
      "hit": false,
      "t": 162992.44054166798,
      "d": 75.75758333332487,
      "v": 111
    },
    {
      "midi": 79,
      "hit": false,
      "t": 162992.44054166798,
      "d": 75.75758333332487,
      "v": 122
    },
    {
      "midi": 83,
      "hit": false,
      "t": 162992.44054166798,
      "d": 75.75758333332487,
      "v": 111
    },
    {
      "midi": 62,
      "hit": false,
      "t": 163030.31933333314,
      "d": 568.1818750000093,
      "v": 86
    },
    {
      "midi": 79,
      "hit": false,
      "t": 163295.4708750013,
      "d": 75.75758333335398,
      "v": 116
    },
    {
      "midi": 83,
      "hit": false,
      "t": 163295.4708750013,
      "d": 75.75758333335398,
      "v": 116
    },
    {
      "midi": 59,
      "hit": false,
      "t": 163333.34966666647,
      "d": 303.0303333333577,
      "v": 94
    },
    {
      "midi": 74,
      "hit": false,
      "t": 163333.349666668,
      "d": 37.87879166667699,
      "v": 102
    },
    {
      "midi": 60,
      "hit": false,
      "t": 163636.37999999983,
      "d": 1628.7880416666449,
      "v": 115
    },
    {
      "midi": 72,
      "hit": false,
      "t": 163636.38000000134,
      "d": 37.87879166667699,
      "v": 111
    },
    {
      "midi": 76,
      "hit": false,
      "t": 163636.38000000134,
      "d": 75.75758333335398,
      "v": 122
    },
    {
      "midi": 79,
      "hit": false,
      "t": 163636.38000000134,
      "d": 113.63637500003097,
      "v": 122
    },
    {
      "midi": 60,
      "hit": false,
      "t": 163636.38000000134,
      "d": 1401.5152916667284,
      "v": 116
    },
    {
      "midi": 79,
      "hit": false,
      "t": 163901.53154166805,
      "d": 113.63637500003097,
      "v": 116
    },
    {
      "midi": 64,
      "hit": false,
      "t": 163939.41033333316,
      "d": 1022.7273749999877,
      "v": 94
    },
    {
      "midi": 72,
      "hit": false,
      "t": 163939.41033333473,
      "d": 37.87879166667699,
      "v": 70
    },
    {
      "midi": 76,
      "hit": false,
      "t": 163939.41033333473,
      "d": 75.75758333335398,
      "v": 122
    },
    {
      "midi": 72,
      "hit": false,
      "t": 164204.5618750014,
      "d": 75.75758333332487,
      "v": 67
    },
    {
      "midi": 76,
      "hit": false,
      "t": 164204.5618750014,
      "d": 75.75758333332487,
      "v": 116
    },
    {
      "midi": 79,
      "hit": false,
      "t": 164204.5618750014,
      "d": 75.75758333332487,
      "v": 102
    },
    {
      "midi": 67,
      "hit": false,
      "t": 164242.4406666665,
      "d": 378.7879166666535,
      "v": 94
    },
    {
      "midi": 72,
      "hit": false,
      "t": 164507.59220833474,
      "d": 75.75758333332487,
      "v": 86
    },
    {
      "midi": 76,
      "hit": false,
      "t": 164507.59220833474,
      "d": 113.63637500000186,
      "v": 122
    },
    {
      "midi": 79,
      "hit": false,
      "t": 164507.59220833474,
      "d": 113.63637500000186,
      "v": 122
    },
    {
      "midi": 72,
      "hit": false,
      "t": 164545.47099999982,
      "d": 1590.909249999997,
      "v": 103
    },
    {
      "midi": 72,
      "hit": false,
      "t": 164810.62254166807,
      "d": 75.75758333332487,
      "v": 73
    },
    {
      "midi": 76,
      "hit": false,
      "t": 164810.62254166807,
      "d": 113.63637500000186,
      "v": 122
    },
    {
      "midi": 79,
      "hit": false,
      "t": 164810.62254166807,
      "d": 113.63637500000186,
      "v": 116
    },
    {
      "midi": 67,
      "hit": false,
      "t": 164848.50133333314,
      "d": 946.9697916666628,
      "v": 103
    },
    {
      "midi": 76,
      "hit": false,
      "t": 165113.6528750014,
      "d": 113.63637500003097,
      "v": 116
    },
    {
      "midi": 64,
      "hit": false,
      "t": 165151.53166666647,
      "d": 416.66670833333046,
      "v": 94
    },
    {
      "midi": 79,
      "hit": false,
      "t": 165151.53166666807,
      "d": 37.87879166667699,
      "v": 122
    },
    {
      "midi": 60,
      "hit": false,
      "t": 165151.53166666807,
      "d": 151.51516666667885,
      "v": 116
    },
    {
      "midi": 76,
      "hit": false,
      "t": 165416.68320833475,
      "d": 113.63637500003097,
      "v": 122
    },
    {
      "midi": 79,
      "hit": false,
      "t": 165416.68320833475,
      "d": 113.63637500003097,
      "v": 122
    },
    {
      "midi": 60,
      "hit": false,
      "t": 165454.5619999998,
      "d": 1628.788041666703,
      "v": 103
    },
    {
      "midi": 72,
      "hit": false,
      "t": 165454.56200000143,
      "d": 37.87879166667699,
      "v": 82
    },
    {
      "midi": 60,
      "hit": false,
      "t": 165454.56200000143,
      "d": 757.5758333333943,
      "v": 116
    },
    {
      "midi": 76,
      "hit": false,
      "t": 165719.7135416681,
      "d": 113.63637500003097,
      "v": 116
    },
    {
      "midi": 64,
      "hit": false,
      "t": 165757.59233333313,
      "d": 1060.6061666666938,
      "v": 90
    },
    {
      "midi": 72,
      "hit": false,
      "t": 165757.5923333348,
      "d": 37.87879166667699,
      "v": 70
    },
    {
      "midi": 79,
      "hit": false,
      "t": 165757.5923333348,
      "d": 37.87879166667699,
      "v": 111
    },
    {
      "midi": 79,
      "hit": false,
      "t": 166022.74387500147,
      "d": 75.75758333335398,
      "v": 116
    },
    {
      "midi": 76,
      "hit": false,
      "t": 166022.74387500147,
      "d": 113.63637500003097,
      "v": 116
    },
    {
      "midi": 67,
      "hit": false,
      "t": 166060.6226666665,
      "d": 378.7879166666535,
      "v": 103
    },
    {
      "midi": 72,
      "hit": false,
      "t": 166060.62266666815,
      "d": 37.87879166667699,
      "v": 73
    },
    {
      "midi": 72,
      "hit": false,
      "t": 166325.77420833483,
      "d": 75.75758333335398,
      "v": 86
    },
    {
      "midi": 79,
      "hit": false,
      "t": 166325.77420833483,
      "d": 113.63637500003097,
      "v": 127
    },
    {
      "midi": 60,
      "hit": false,
      "t": 166325.77420833483,
      "d": 719.6970416667464,
      "v": 122
    },
    {
      "midi": 72,
      "hit": false,
      "t": 166363.65299999982,
      "d": 909.0910000000149,
      "v": 112
    },
    {
      "midi": 76,
      "hit": false,
      "t": 166363.6530000015,
      "d": 75.75758333335398,
      "v": 122
    },
    {
      "midi": 72,
      "hit": false,
      "t": 166628.80454166819,
      "d": 37.87879166667699,
      "v": 60
    },
    {
      "midi": 76,
      "hit": false,
      "t": 166628.80454166819,
      "d": 75.75758333335398,
      "v": 116
    },
    {
      "midi": 79,
      "hit": false,
      "t": 166628.80454166819,
      "d": 75.75758333335398,
      "v": 116
    },
    {
      "midi": 67,
      "hit": false,
      "t": 166666.68333333315,
      "d": 606.0606666666863,
      "v": 90
    },
    {
      "midi": 79,
      "hit": false,
      "t": 166931.83487500154,
      "d": 75.75758333335398,
      "v": 122
    },
    {
      "midi": 76,
      "hit": false,
      "t": 166931.83487500154,
      "d": 113.63637500003097,
      "v": 116
    },
    {
      "midi": 64,
      "hit": false,
      "t": 166969.7136666665,
      "d": 340.9091250000056,
      "v": 94
    },
    {
      "midi": 72,
      "hit": false,
      "t": 166969.71366666822,
      "d": 37.87879166667699,
      "v": 86
    },
    {
      "midi": 81,
      "hit": false,
      "t": 167234.8652083349,
      "d": 75.75758333335398,
      "v": 116
    },
    {
      "midi": 76,
      "hit": false,
      "t": 167234.8652083349,
      "d": 113.63637500003097,
      "v": 122
    },
    {
      "midi": 57,
      "hit": false,
      "t": 167272.74399999983,
      "d": 1742.4244166666758,
      "v": 121
    },
    {
      "midi": 72,
      "hit": false,
      "t": 167272.74400000158,
      "d": 37.87879166667699,
      "v": 89
    },
    {
      "midi": 57,
      "hit": false,
      "t": 167272.74400000158,
      "d": 1325.7577083334327,
      "v": 127
    },
    {
      "midi": 76,
      "hit": false,
      "t": 167537.89554166826,
      "d": 75.75758333335398,
      "v": 116
    },
    {
      "midi": 81,
      "hit": false,
      "t": 167537.89554166826,
      "d": 113.63637500003097,
      "v": 106
    },
    {
      "midi": 60,
      "hit": false,
      "t": 167575.7743333332,
      "d": 1098.4849583333125,
      "v": 94
    },
    {
      "midi": 72,
      "hit": false,
      "t": 167575.77433333494,
      "d": 37.87879166667699,
      "v": 76
    },
    {
      "midi": 72,
      "hit": false,
      "t": 167840.92587500162,
      "d": 75.75758333335398,
      "v": 76
    },
    {
      "midi": 76,
      "hit": false,
      "t": 167840.92587500162,
      "d": 113.63637500003097,
      "v": 122
    },
    {
      "midi": 64,
      "hit": false,
      "t": 167878.80466666652,
      "d": 416.66670833333046,
      "v": 90
    },
    {
      "midi": 81,
      "hit": false,
      "t": 167878.8046666683,
      "d": 37.87879166667699,
      "v": 106
    },
    {
      "midi": 72,
      "hit": false,
      "t": 168143.95620833497,
      "d": 75.75758333332487,
      "v": 86
    },
    {
      "midi": 81,
      "hit": false,
      "t": 168143.95620833497,
      "d": 75.75758333332487,
      "v": 111
    },
    {
      "midi": 76,
      "hit": false,
      "t": 168143.95620833497,
      "d": 113.63637500000186,
      "v": 122
    },
    {
      "midi": 69,
      "hit": false,
      "t": 168181.83499999985,
      "d": 1704.5456249999697,
      "v": 103
    },
    {
      "midi": 81,
      "hit": false,
      "t": 168446.9865416683,
      "d": 75.75758333335398,
      "v": 111
    },
    {
      "midi": 76,
      "hit": false,
      "t": 168446.9865416683,
      "d": 113.63637500003097,
      "v": 116
    },
    {
      "midi": 64,
      "hit": false,
      "t": 168484.86533333317,
      "d": 984.8485833333107,
      "v": 82
    },
    {
      "midi": 72,
      "hit": false,
      "t": 168484.86533333498,
      "d": 37.87879166667699,
      "v": 73
    },
    {
      "midi": 57,
      "hit": false,
      "t": 168750.0168750017,
      "d": 151.51516666670796,
      "v": 122
    },
    {
      "midi": 60,
      "hit": false,
      "t": 168787.8956666665,
      "d": 492.42429166665534,
      "v": 90
    },
    {
      "midi": 72,
      "hit": false,
      "t": 168787.89566666837,
      "d": 37.87879166667699,
      "v": 73
    },
    {
      "midi": 81,
      "hit": false,
      "t": 168787.89566666837,
      "d": 37.87879166667699,
      "v": 111
    },
    {
      "midi": 76,
      "hit": false,
      "t": 168787.89566666837,
      "d": 75.75758333335398,
      "v": 122
    },
    {
      "midi": 72,
      "hit": false,
      "t": 169053.04720833508,
      "d": 75.75758333332487,
      "v": 86
    },
    {
      "midi": 76,
      "hit": false,
      "t": 169053.04720833508,
      "d": 113.63637500000186,
      "v": 116
    },
    {
      "midi": 81,
      "hit": false,
      "t": 169053.04720833508,
      "d": 113.63637500000186,
      "v": 102
    },
    {
      "midi": 57,
      "hit": false,
      "t": 169053.04720833508,
      "d": 757.5758333333652,
      "v": 127
    },
    {
      "midi": 57,
      "hit": false,
      "t": 169090.92599999983,
      "d": 1628.7880416666449,
      "v": 103
    },
    {
      "midi": 72,
      "hit": false,
      "t": 169356.0775416684,
      "d": 75.75758333332487,
      "v": 76
    },
    {
      "midi": 81,
      "hit": false,
      "t": 169356.0775416684,
      "d": 75.75758333332487,
      "v": 97
    },
    {
      "midi": 76,
      "hit": false,
      "t": 169356.0775416684,
      "d": 113.63637500000186,
      "v": 116
    },
    {
      "midi": 60,
      "hit": false,
      "t": 169393.95633333316,
      "d": 1136.3637499999895,
      "v": 90
    },
    {
      "midi": 76,
      "hit": false,
      "t": 169659.10787500173,
      "d": 113.63637500003097,
      "v": 116
    },
    {
      "midi": 64,
      "hit": false,
      "t": 169696.9866666665,
      "d": 416.66670833333046,
      "v": 90
    },
    {
      "midi": 72,
      "hit": false,
      "t": 169696.9866666684,
      "d": 37.87879166667699,
      "v": 73
    },
    {
      "midi": 81,
      "hit": false,
      "t": 169696.9866666684,
      "d": 37.87879166667699,
      "v": 106
    },
    {
      "midi": 76,
      "hit": false,
      "t": 169962.13820833512,
      "d": 113.63637500003097,
      "v": 122
    },
    {
      "midi": 57,
      "hit": false,
      "t": 169962.13820833512,
      "d": 757.5758333333943,
      "v": 127
    },
    {
      "midi": 69,
      "hit": false,
      "t": 170000.01699999982,
      "d": 871.2122083333379,
      "v": 112
    },
    {
      "midi": 72,
      "hit": false,
      "t": 170000.0170000018,
      "d": 37.87879166667699,
      "v": 86
    },
    {
      "midi": 81,
      "hit": false,
      "t": 170000.0170000018,
      "d": 75.75758333335398,
      "v": 106
    },
    {
      "midi": 76,
      "hit": false,
      "t": 170265.16854166848,
      "d": 75.75758333335398,
      "v": 122
    },
    {
      "midi": 81,
      "hit": false,
      "t": 170265.16854166848,
      "d": 75.75758333335398,
      "v": 106
    },
    {
      "midi": 64,
      "hit": false,
      "t": 170303.04733333315,
      "d": 606.0606666666863,
      "v": 90
    },
    {
      "midi": 72,
      "hit": false,
      "t": 170303.04733333515,
      "d": 37.87879166667699,
      "v": 76
    },
    {
      "midi": 72,
      "hit": false,
      "t": 170568.19887500184,
      "d": 113.63637500000186,
      "v": 93
    },
    {
      "midi": 76,
      "hit": false,
      "t": 170568.19887500184,
      "d": 113.63637500000186,
      "v": 122
    },
    {
      "midi": 81,
      "hit": false,
      "t": 170568.19887500184,
      "d": 113.63637500000186,
      "v": 111
    },
    {
      "midi": 60,
      "hit": false,
      "t": 170606.07766666648,
      "d": 378.7879166666826,
      "v": 103
    },
    {
      "midi": 77,
      "hit": false,
      "t": 170871.2292083352,
      "d": 113.63637500000186,
      "v": 116
    },
    {
      "midi": 81,
      "hit": false,
      "t": 170871.2292083352,
      "d": 113.63637500000186,
      "v": 122
    },
    {
      "midi": 53,
      "hit": false,
      "t": 170871.2292083352,
      "d": 1363.6365000000224,
      "v": 122
    },
    {
      "midi": 53,
      "hit": false,
      "t": 170909.10799999983,
      "d": 1742.4244166666467,
      "v": 121
    },
    {
      "midi": 72,
      "hit": false,
      "t": 170909.10800000187,
      "d": 75.75758333332487,
      "v": 89
    },
    {
      "midi": 72,
      "hit": false,
      "t": 171174.25954166852,
      "d": 75.75758333335398,
      "v": 73
    },
    {
      "midi": 81,
      "hit": false,
      "t": 171174.25954166852,
      "d": 75.75758333335398,
      "v": 102
    },
    {
      "midi": 57,
      "hit": false,
      "t": 171212.13833333316,
      "d": 1098.4849583333125,
      "v": 90
    },
    {
      "midi": 77,
      "hit": false,
      "t": 171212.1383333352,
      "d": 37.87879166667699,
      "v": 97
    },
    {
      "midi": 72,
      "hit": false,
      "t": 171477.28987500188,
      "d": 75.75758333332487,
      "v": 76
    },
    {
      "midi": 77,
      "hit": false,
      "t": 171477.28987500188,
      "d": 75.75758333332487,
      "v": 102
    },
    {
      "midi": 81,
      "hit": false,
      "t": 171477.28987500188,
      "d": 75.75758333332487,
      "v": 111
    },
    {
      "midi": 60,
      "hit": false,
      "t": 171515.1686666665,
      "d": 416.66670833333046,
      "v": 94
    },
    {
      "midi": 81,
      "hit": false,
      "t": 171780.3202083352,
      "d": 75.75758333335398,
      "v": 102
    },
    {
      "midi": 65,
      "hit": false,
      "t": 171818.19899999982,
      "d": 1742.4244166666467,
      "v": 103
    },
    {
      "midi": 72,
      "hit": false,
      "t": 171818.19900000188,
      "d": 75.75758333335398,
      "v": 89
    },
    {
      "midi": 77,
      "hit": false,
      "t": 171818.19900000188,
      "d": 75.75758333335398,
      "v": 111
    },
    {
      "midi": 72,
      "hit": false,
      "t": 172083.35054166857,
      "d": 75.75758333332487,
      "v": 76
    },
    {
      "midi": 77,
      "hit": false,
      "t": 172083.35054166857,
      "d": 75.75758333332487,
      "v": 106
    },
    {
      "midi": 81,
      "hit": false,
      "t": 172083.35054166857,
      "d": 75.75758333332487,
      "v": 106
    },
    {
      "midi": 60,
      "hit": false,
      "t": 172121.22933333315,
      "d": 984.8485833333107,
      "v": 86
    },
    {
      "midi": 77,
      "hit": false,
      "t": 172386.3808750019,
      "d": 113.63637500003097,
      "v": 97
    },
    {
      "midi": 53,
      "hit": false,
      "t": 172386.3808750019,
      "d": 151.51516666670796,
      "v": 122
    },
    {
      "midi": 57,
      "hit": false,
      "t": 172424.25966666648,
      "d": 492.42429166665534,
      "v": 94
    },
    {
      "midi": 72,
      "hit": false,
      "t": 172424.25966666857,
      "d": 37.87879166667699,
      "v": 76
    },
    {
      "midi": 81,
      "hit": false,
      "t": 172424.25966666857,
      "d": 75.75758333335398,
      "v": 111
    },
    {
      "midi": 53,
      "hit": false,
      "t": 172689.41120833528,
      "d": 795.4546250000712,
      "v": 116
    },
    {
      "midi": 53,
      "hit": false,
      "t": 172727.2899999998,
      "d": 1704.5456249999697,
      "v": 103
    },
    {
      "midi": 72,
      "hit": false,
      "t": 172727.29000000196,
      "d": 37.87879166667699,
      "v": 89
    },
    {
      "midi": 77,
      "hit": false,
      "t": 172727.29000000196,
      "d": 75.75758333335398,
      "v": 116
    },
    {
      "midi": 81,
      "hit": false,
      "t": 172727.29000000196,
      "d": 75.75758333335398,
      "v": 116
    },
    {
      "midi": 77,
      "hit": false,
      "t": 172992.44154166864,
      "d": 113.63637500003097,
      "v": 102
    },
    {
      "midi": 57,
      "hit": false,
      "t": 173030.32033333313,
      "d": 1098.4849583333125,
      "v": 86
    },
    {
      "midi": 72,
      "hit": false,
      "t": 173030.32033333532,
      "d": 37.87879166667699,
      "v": 73
    },
    {
      "midi": 81,
      "hit": false,
      "t": 173030.32033333532,
      "d": 37.87879166667699,
      "v": 106
    },
    {
      "midi": 72,
      "hit": false,
      "t": 173295.471875002,
      "d": 75.75758333335398,
      "v": 82
    },
    {
      "midi": 81,
      "hit": false,
      "t": 173295.471875002,
      "d": 75.75758333335398,
      "v": 111
    },
    {
      "midi": 60,
      "hit": false,
      "t": 173333.35066666646,
      "d": 416.66670833333046,
      "v": 86
    },
    {
      "midi": 77,
      "hit": false,
      "t": 173333.35066666867,
      "d": 75.75758333335398,
      "v": 102
    },
    {
      "midi": 81,
      "hit": false,
      "t": 173598.50220833535,
      "d": 113.63637500000186,
      "v": 106
    },
    {
      "midi": 65,
      "hit": false,
      "t": 173636.3809999998,
      "d": 1022.7273750000168,
      "v": 121
    },
    {
      "midi": 72,
      "hit": false,
      "t": 173636.38100000203,
      "d": 75.75758333332487,
      "v": 93
    },
    {
      "midi": 77,
      "hit": false,
      "t": 173636.38100000203,
      "d": 75.75758333332487,
      "v": 93
    },
    {
      "midi": 53,
      "hit": false,
      "t": 173636.38100000203,
      "d": 719.6970416666882,
      "v": 111
    },
    {
      "midi": 72,
      "hit": false,
      "t": 173901.53254166868,
      "d": 75.75758333332487,
      "v": 82
    },
    {
      "midi": 81,
      "hit": false,
      "t": 173901.53254166868,
      "d": 75.75758333332487,
      "v": 106
    },
    {
      "midi": 77,
      "hit": false,
      "t": 173901.53254166868,
      "d": 113.63637500000186,
      "v": 97
    },
    {
      "midi": 60,
      "hit": false,
      "t": 173939.41133333312,
      "d": 681.8182500000112,
      "v": 90
    },
    {
      "midi": 72,
      "hit": false,
      "t": 174204.562875002,
      "d": 113.63637500003097,
      "v": 86
    },
    {
      "midi": 81,
      "hit": false,
      "t": 174204.562875002,
      "d": 113.63637500003097,
      "v": 102
    },
    {
      "midi": 57,
      "hit": false,
      "t": 174242.44166666645,
      "d": 340.9091250000056,
      "v": 94
    },
    {
      "midi": 77,
      "hit": false,
      "t": 174242.4416666687,
      "d": 37.87879166667699,
      "v": 97
    },
    {
      "midi": 55,
      "hit": false,
      "t": 174545.47199999978,
      "d": 1704.5456249999988,
      "v": 112
    },
    {
      "midi": 74,
      "hit": false,
      "t": 174545.47200000205,
      "d": 37.87879166667699,
      "v": 111
    },
    {
      "midi": 83,
      "hit": false,
      "t": 174545.47200000205,
      "d": 37.87879166667699,
      "v": 116
    },
    {
      "midi": 55,
      "hit": false,
      "t": 174545.47200000205,
      "d": 1325.7577083334036,
      "v": 127
    },
    {
      "midi": 79,
      "hit": false,
      "t": 174810.62354166873,
      "d": 75.75758333332487,
      "v": 111
    },
    {
      "midi": 83,
      "hit": false,
      "t": 174810.62354166873,
      "d": 75.75758333332487,
      "v": 106
    },
    {
      "midi": 74,
      "hit": false,
      "t": 174810.62354166873,
      "d": 113.63637500000186,
      "v": 106
    },
    {
      "midi": 59,
      "hit": false,
      "t": 174848.50233333313,
      "d": 1098.4849583333125,
      "v": 94
    },
    {
      "midi": 79,
      "hit": false,
      "t": 175113.65387500206,
      "d": 75.75758333335398,
      "v": 116
    },
    {
      "midi": 83,
      "hit": false,
      "t": 175113.65387500206,
      "d": 75.75758333335398,
      "v": 106
    },
    {
      "midi": 62,
      "hit": false,
      "t": 175151.53266666646,
      "d": 416.66670833333046,
      "v": 94
    },
    {
      "midi": 74,
      "hit": false,
      "t": 175151.53266666873,
      "d": 37.87879166667699,
      "v": 102
    },
    {
      "midi": 79,
      "hit": false,
      "t": 175416.6842083354,
      "d": 75.75758333335398,
      "v": 122
    },
    {
      "midi": 67,
      "hit": false,
      "t": 175454.5629999998,
      "d": 1704.5456249999988,
      "v": 112
    },
    {
      "midi": 74,
      "hit": false,
      "t": 175454.5630000021,
      "d": 37.87879166667699,
      "v": 102
    },
    {
      "midi": 83,
      "hit": false,
      "t": 175454.5630000021,
      "d": 37.87879166667699,
      "v": 102
    },
    {
      "midi": 74,
      "hit": false,
      "t": 175719.71454166877,
      "d": 75.75758333335398,
      "v": 106
    },
    {
      "midi": 79,
      "hit": false,
      "t": 175719.71454166877,
      "d": 75.75758333335398,
      "v": 122
    },
    {
      "midi": 62,
      "hit": false,
      "t": 175757.59333333312,
      "d": 1022.7273750000168,
      "v": 82
    },
    {
      "midi": 83,
      "hit": false,
      "t": 175757.59333333545,
      "d": 37.87879166667699,
      "v": 111
    },
    {
      "midi": 79,
      "hit": false,
      "t": 176022.74487500213,
      "d": 75.75758333335398,
      "v": 122
    },
    {
      "midi": 55,
      "hit": false,
      "t": 176022.74487500213,
      "d": 113.63637500003097,
      "v": 127
    },
    {
      "midi": 59,
      "hit": false,
      "t": 176060.62366666645,
      "d": 454.54550000000745,
      "v": 94
    },
    {
      "midi": 83,
      "hit": false,
      "t": 176060.6236666688,
      "d": 37.87879166667699,
      "v": 111
    },
    {
      "midi": 74,
      "hit": false,
      "t": 176060.6236666688,
      "d": 75.75758333335398,
      "v": 111
    },
    {
      "midi": 79,
      "hit": false,
      "t": 176325.7752083355,
      "d": 113.63637500003097,
      "v": 122
    },
    {
      "midi": 55,
      "hit": false,
      "t": 176325.7752083355,
      "d": 795.4546250000712,
      "v": 127
    },
    {
      "midi": 55,
      "hit": false,
      "t": 176363.65399999978,
      "d": 1628.788041666674,
      "v": 112
    },
    {
      "midi": 83,
      "hit": false,
      "t": 176363.65400000216,
      "d": 37.87879166667699,
      "v": 116
    },
    {
      "midi": 74,
      "hit": false,
      "t": 176363.65400000216,
      "d": 75.75758333335398,
      "v": 116
    },
    {
      "midi": 74,
      "hit": false,
      "t": 176628.80554166884,
      "d": 75.75758333335398,
      "v": 106
    },
    {
      "midi": 59,
      "hit": false,
      "t": 176666.68433333313,
      "d": 1098.4849583333125,
      "v": 90
    },
    {
      "midi": 79,
      "hit": false,
      "t": 176666.68433333552,
      "d": 37.87879166667699,
      "v": 111
    },
    {
      "midi": 83,
      "hit": false,
      "t": 176666.68433333552,
      "d": 37.87879166667699,
      "v": 106
    },
    {
      "midi": 74,
      "hit": false,
      "t": 176931.8358750022,
      "d": 75.75758333335398,
      "v": 106
    },
    {
      "midi": 79,
      "hit": false,
      "t": 176931.8358750022,
      "d": 75.75758333335398,
      "v": 122
    },
    {
      "midi": 62,
      "hit": false,
      "t": 176969.71466666646,
      "d": 416.66670833333046,
      "v": 90
    },
    {
      "midi": 83,
      "hit": false,
      "t": 176969.71466666888,
      "d": 37.87879166667699,
      "v": 111
    },
    {
      "midi": 74,
      "hit": false,
      "t": 177234.86620833556,
      "d": 75.75758333335398,
      "v": 116
    },
    {
      "midi": 79,
      "hit": false,
      "t": 177234.86620833556,
      "d": 75.75758333335398,
      "v": 127
    },
    {
      "midi": 83,
      "hit": false,
      "t": 177234.86620833556,
      "d": 75.75758333335398,
      "v": 116
    },
    {
      "midi": 67,
      "hit": false,
      "t": 177272.7449999998,
      "d": 946.9697916666919,
      "v": 121
    },
    {
      "midi": 55,
      "hit": false,
      "t": 177272.74500000224,
      "d": 681.8182500000403,
      "v": 127
    },
    {
      "midi": 74,
      "hit": false,
      "t": 177537.89654166892,
      "d": 75.75758333332487,
      "v": 111
    },
    {
      "midi": 79,
      "hit": false,
      "t": 177537.89654166892,
      "d": 75.75758333332487,
      "v": 122
    },
    {
      "midi": 83,
      "hit": false,
      "t": 177537.89654166892,
      "d": 75.75758333332487,
      "v": 111
    },
    {
      "midi": 62,
      "hit": false,
      "t": 177575.77533333312,
      "d": 606.0606666666863,
      "v": 90
    },
    {
      "midi": 79,
      "hit": false,
      "t": 177840.92687500225,
      "d": 75.75758333335398,
      "v": 127
    },
    {
      "midi": 83,
      "hit": false,
      "t": 177840.92687500225,
      "d": 75.75758333335398,
      "v": 122
    },
    {
      "midi": 59,
      "hit": false,
      "t": 177878.80566666645,
      "d": 265.1515416666807,
      "v": 94
    },
    {
      "midi": 74,
      "hit": false,
      "t": 177878.80566666892,
      "d": 75.75758333335398,
      "v": 116
    },
    {
      "midi": 60,
      "hit": false,
      "t": 178181.8359999998,
      "d": 1704.545625000028,
      "v": 112
    },
    {
      "midi": 72,
      "hit": false,
      "t": 178181.83600000228,
      "d": 75.75758333332487,
      "v": 93
    },
    {
      "midi": 76,
      "hit": false,
      "t": 178181.83600000228,
      "d": 75.75758333332487,
      "v": 127
    },
    {
      "midi": 79,
      "hit": false,
      "t": 178181.83600000228,
      "d": 75.75758333332487,
      "v": 122
    },
    {
      "midi": 60,
      "hit": false,
      "t": 178181.83600000228,
      "d": 1325.7577083333163,
      "v": 122
    },
    {
      "midi": 72,
      "hit": false,
      "t": 178446.98754166893,
      "d": 75.75758333332487,
      "v": 70
    },
    {
      "midi": 76,
      "hit": false,
      "t": 178446.98754166893,
      "d": 75.75758333332487,
      "v": 116
    },
    {
      "midi": 79,
      "hit": false,
      "t": 178446.98754166893,
      "d": 75.75758333332487,
      "v": 102
    },
    {
      "midi": 64,
      "hit": false,
      "t": 178484.86633333316,
      "d": 1022.7273750000168,
      "v": 90
    },
    {
      "midi": 72,
      "hit": false,
      "t": 178750.01787500226,
      "d": 75.75758333335398,
      "v": 76
    },
    {
      "midi": 76,
      "hit": false,
      "t": 178750.01787500226,
      "d": 113.63637500003097,
      "v": 116
    },
    {
      "midi": 67,
      "hit": false,
      "t": 178787.8966666665,
      "d": 454.54550000000745,
      "v": 103
    },
    {
      "midi": 79,
      "hit": false,
      "t": 178787.89666666894,
      "d": 37.87879166667699,
      "v": 106
    },
    {
      "midi": 72,
      "hit": false,
      "t": 179053.04820833562,
      "d": 75.75758333332487,
      "v": 86
    },
    {
      "midi": 79,
      "hit": false,
      "t": 179053.04820833562,
      "d": 75.75758333332487,
      "v": 102
    },
    {
      "midi": 76,
      "hit": false,
      "t": 179053.04820833562,
      "d": 113.63637500000186,
      "v": 122
    },
    {
      "midi": 72,
      "hit": false,
      "t": 179090.92699999982,
      "d": 1704.545625000028,
      "v": 112
    },
    {
      "midi": 72,
      "hit": false,
      "t": 179356.07854166895,
      "d": 75.75758333332487,
      "v": 70
    },
    {
      "midi": 76,
      "hit": false,
      "t": 179356.07854166895,
      "d": 75.75758333332487,
      "v": 122
    },
    {
      "midi": 79,
      "hit": false,
      "t": 179356.07854166895,
      "d": 75.75758333332487,
      "v": 111
    },
    {
      "midi": 67,
      "hit": false,
      "t": 179393.95733333318,
      "d": 1022.7273750000168,
      "v": 90
    },
    {
      "midi": 60,
      "hit": false,
      "t": 179659.10887500228,
      "d": 151.51516666670796,
      "v": 127
    },
    {
      "midi": 64,
      "hit": false,
      "t": 179696.9876666665,
      "d": 454.54550000000745,
      "v": 94
    },
    {
      "midi": 72,
      "hit": false,
      "t": 179696.98766666895,
      "d": 37.87879166667699,
      "v": 73
    },
    {
      "midi": 79,
      "hit": false,
      "t": 179696.98766666895,
      "d": 37.87879166667699,
      "v": 111
    },
    {
      "midi": 76,
      "hit": false,
      "t": 179696.98766666895,
      "d": 75.75758333335398,
      "v": 122
    },
    {
      "midi": 60,
      "hit": false,
      "t": 179962.13920833566,
      "d": 1628.7880416667613,
      "v": 122
    },
    {
      "midi": 60,
      "hit": false,
      "t": 180000.01799999984,
      "d": 1666.66683333338,
      "v": 112
    },
    {
      "midi": 72,
      "hit": false,
      "t": 180000.01800000234,
      "d": 37.87879166667699,
      "v": 82
    },
    {
      "midi": 76,
      "hit": false,
      "t": 180000.01800000234,
      "d": 75.75758333335398,
      "v": 122
    },
    {
      "midi": 79,
      "hit": false,
      "t": 180000.01800000234,
      "d": 75.75758333335398,
      "v": 111
    },
    {
      "midi": 76,
      "hit": false,
      "t": 180265.16954166902,
      "d": 75.75758333335398,
      "v": 116
    },
    {
      "midi": 79,
      "hit": false,
      "t": 180265.16954166902,
      "d": 75.75758333335398,
      "v": 106
    },
    {
      "midi": 64,
      "hit": false,
      "t": 180303.0483333332,
      "d": 1060.6061666666646,
      "v": 86
    },
    {
      "midi": 72,
      "hit": false,
      "t": 180303.0483333357,
      "d": 37.87879166667699,
      "v": 70
    },
    {
      "midi": 72,
      "hit": false,
      "t": 180568.19987500238,
      "d": 75.75758333332487,
      "v": 79
    },
    {
      "midi": 76,
      "hit": false,
      "t": 180568.19987500238,
      "d": 113.63637500000186,
      "v": 116
    },
    {
      "midi": 79,
      "hit": false,
      "t": 180568.19987500238,
      "d": 113.63637500000186,
      "v": 111
    },
    {
      "midi": 67,
      "hit": false,
      "t": 180606.07866666652,
      "d": 416.66670833333046,
      "v": 94
    },
    {
      "midi": 79,
      "hit": false,
      "t": 180871.2302083357,
      "d": 75.75758333335398,
      "v": 122
    },
    {
      "midi": 72,
      "hit": false,
      "t": 180909.10899999985,
      "d": 833.33341666669,
      "v": 103
    },
    {
      "midi": 72,
      "hit": false,
      "t": 180909.10900000238,
      "d": 75.75758333335398,
      "v": 82
    },
    {
      "midi": 76,
      "hit": false,
      "t": 180909.10900000238,
      "d": 75.75758333335398,
      "v": 127
    },
    {
      "midi": 72,
      "hit": false,
      "t": 181174.26054166906,
      "d": 75.75758333332487,
      "v": 79
    },
    {
      "midi": 76,
      "hit": false,
      "t": 181174.26054166906,
      "d": 75.75758333332487,
      "v": 127
    },
    {
      "midi": 79,
      "hit": false,
      "t": 181174.26054166906,
      "d": 75.75758333332487,
      "v": 106
    },
    {
      "midi": 67,
      "hit": false,
      "t": 181212.13933333318,
      "d": 606.0606666666863,
      "v": 94
    },
    {
      "midi": 76,
      "hit": false,
      "t": 181477.2908750024,
      "d": 113.63637500003097,
      "v": 122
    },
    {
      "midi": 64,
      "hit": false,
      "t": 181515.16966666654,
      "d": 340.9091250000056,
      "v": 103
    },
    {
      "midi": 79,
      "hit": false,
      "t": 181515.16966666907,
      "d": 37.87879166667699,
      "v": 111
    },
    {
      "midi": 72,
      "hit": false,
      "t": 181515.16966666907,
      "d": 75.75758333335398,
      "v": 79
    },
    {
      "midi": 81,
      "hit": false,
      "t": 181780.32120833575,
      "d": 75.75758333335398,
      "v": 116
    },
    {
      "midi": 76,
      "hit": false,
      "t": 181780.32120833575,
      "d": 113.63637500003097,
      "v": 127
    },
    {
      "midi": 57,
      "hit": false,
      "t": 181780.32120833575,
      "d": 1363.6365000000515,
      "v": 127
    },
    {
      "midi": 57,
      "hit": false,
      "t": 181818.19999999987,
      "d": 1704.545625000028,
      "v": 121
    },
    {
      "midi": 72,
      "hit": false,
      "t": 181818.20000000243,
      "d": 75.75758333335398,
      "v": 86
    },
    {
      "midi": 72,
      "hit": false,
      "t": 182083.3515416691,
      "d": 75.75758333335398,
      "v": 76
    },
    {
      "midi": 76,
      "hit": false,
      "t": 182083.3515416691,
      "d": 113.63637500003097,
      "v": 116
    },
    {
      "midi": 60,
      "hit": false,
      "t": 182121.23033333322,
      "d": 1060.6061666666646,
      "v": 90
    },
    {
      "midi": 81,
      "hit": false,
      "t": 182121.23033333578,
      "d": 37.87879166667699,
      "v": 102
    },
    {
      "midi": 72,
      "hit": false,
      "t": 182386.38187500247,
      "d": 75.75758333332487,
      "v": 73
    },
    {
      "midi": 76,
      "hit": false,
      "t": 182386.38187500247,
      "d": 75.75758333332487,
      "v": 116
    },
    {
      "midi": 81,
      "hit": false,
      "t": 182386.38187500247,
      "d": 75.75758333332487,
      "v": 111
    },
    {
      "midi": 64,
      "hit": false,
      "t": 182424.26066666655,
      "d": 416.66670833333046,
      "v": 94
    },
    {
      "midi": 81,
      "hit": false,
      "t": 182689.4122083358,
      "d": 75.75758333335398,
      "v": 111
    },
    {
      "midi": 76,
      "hit": false,
      "t": 182689.4122083358,
      "d": 113.63637500003097,
      "v": 122
    },
    {
      "midi": 69,
      "hit": false,
      "t": 182727.29099999988,
      "d": 1666.66683333338,
      "v": 112
    },
    {
      "midi": 72,
      "hit": false,
      "t": 182727.29100000247,
      "d": 75.75758333335398,
      "v": 82
    },
    {
      "midi": 72,
      "hit": false,
      "t": 182992.44254166915,
      "d": 75.75758333332487,
      "v": 76
    },
    {
      "midi": 76,
      "hit": false,
      "t": 182992.44254166915,
      "d": 75.75758333332487,
      "v": 116
    },
    {
      "midi": 81,
      "hit": false,
      "t": 182992.44254166915,
      "d": 75.75758333332487,
      "v": 106
    },
    {
      "midi": 64,
      "hit": false,
      "t": 183030.3213333332,
      "d": 946.9697916666919,
      "v": 86
    },
    {
      "midi": 72,
      "hit": false,
      "t": 183295.47287500248,
      "d": 75.75758333335398,
      "v": 82
    },
    {
      "midi": 76,
      "hit": false,
      "t": 183295.47287500248,
      "d": 113.63637500003097,
      "v": 122
    },
    {
      "midi": 57,
      "hit": false,
      "t": 183295.47287500248,
      "d": 151.51516666670796,
      "v": 127
    },
    {
      "midi": 60,
      "hit": false,
      "t": 183333.35166666657,
      "d": 416.66670833333046,
      "v": 94
    },
    {
      "midi": 81,
      "hit": false,
      "t": 183333.35166666916,
      "d": 75.75758333335398,
      "v": 102
    },
    {
      "midi": 81,
      "hit": false,
      "t": 183598.50320833587,
      "d": 113.63637500000186,
      "v": 106
    },
    {
      "midi": 57,
      "hit": false,
      "t": 183598.50320833587,
      "d": 1628.7880416667613,
      "v": 122
    },
    {
      "midi": 57,
      "hit": false,
      "t": 183636.3819999999,
      "d": 1666.66683333338,
      "v": 103
    },
    {
      "midi": 72,
      "hit": false,
      "t": 183636.38200000254,
      "d": 75.75758333332487,
      "v": 86
    },
    {
      "midi": 76,
      "hit": false,
      "t": 183636.38200000254,
      "d": 75.75758333332487,
      "v": 122
    },
    {
      "midi": 76,
      "hit": false,
      "t": 183901.5335416692,
      "d": 75.75758333335398,
      "v": 122
    },
    {
      "midi": 81,
      "hit": false,
      "t": 183901.5335416692,
      "d": 75.75758333335398,
      "v": 111
    },
    {
      "midi": 60,
      "hit": false,
      "t": 183939.41233333322,
      "d": 1136.3637500000477,
      "v": 86
    },
    {
      "midi": 72,
      "hit": false,
      "t": 183939.41233333587,
      "d": 37.87879166667699,
      "v": 86
    },
    {
      "midi": 76,
      "hit": false,
      "t": 184204.56387500255,
      "d": 75.75758333335398,
      "v": 122
    },
    {
      "midi": 81,
      "hit": false,
      "t": 184204.56387500255,
      "d": 75.75758333335398,
      "v": 111
    },
    {
      "midi": 64,
      "hit": false,
      "t": 184242.44266666658,
      "d": 378.7879166666826,
      "v": 90
    },
    {
      "midi": 72,
      "hit": false,
      "t": 184242.44266666923,
      "d": 37.87879166667699,
      "v": 86
    },
    {
      "midi": 81,
      "hit": false,
      "t": 184507.5942083359,
      "d": 75.75758333332487,
      "v": 106
    },
    {
      "midi": 72,
      "hit": false,
      "t": 184507.5942083359,
      "d": 113.63637500000186,
      "v": 97
    },
    {
      "midi": 76,
      "hit": false,
      "t": 184507.5942083359,
      "d": 113.63637500000186,
      "v": 127
    },
    {
      "midi": 69,
      "hit": false,
      "t": 184545.47299999994,
      "d": 909.0910000000149,
      "v": 112
    },
    {
      "midi": 72,
      "hit": false,
      "t": 184810.62454166924,
      "d": 113.63637500003097,
      "v": 89
    },
    {
      "midi": 76,
      "hit": false,
      "t": 184810.62454166924,
      "d": 113.63637500003097,
      "v": 116
    },
    {
      "midi": 64,
      "hit": false,
      "t": 184848.50333333327,
      "d": 606.0606666666863,
      "v": 86
    },
    {
      "midi": 81,
      "hit": false,
      "t": 184848.50333333592,
      "d": 37.87879166667699,
      "v": 111
    },
    {
      "midi": 76,
      "hit": false,
      "t": 185113.6548750026,
      "d": 113.63637500003097,
      "v": 116
    },
    {
      "midi": 60,
      "hit": false,
      "t": 185151.5336666666,
      "d": 378.7879166666826,
      "v": 94
    },
    {
      "midi": 72,
      "hit": false,
      "t": 185151.53366666927,
      "d": 37.87879166667699,
      "v": 86
    },
    {
      "midi": 81,
      "hit": false,
      "t": 185151.53366666927,
      "d": 75.75758333335398,
      "v": 116
    },
    {
      "midi": 79,
      "hit": false,
      "t": 185416.68520833596,
      "d": 75.75758333335398,
      "v": 122
    },
    {
      "midi": 55,
      "hit": false,
      "t": 185454.56399999995,
      "d": 1742.4244166666467,
      "v": 121
    },
    {
      "midi": 71,
      "hit": false,
      "t": 185454.56400000263,
      "d": 75.75758333335398,
      "v": 111
    },
    {
      "midi": 74,
      "hit": false,
      "t": 185454.56400000263,
      "d": 75.75758333335398,
      "v": 127
    },
    {
      "midi": 55,
      "hit": false,
      "t": 185454.56400000263,
      "d": 1363.6365000000224,
      "v": 127
    },
    {
      "midi": 74,
      "hit": false,
      "t": 185719.7155416693,
      "d": 113.63637500003097,
      "v": 116
    },
    {
      "midi": 79,
      "hit": false,
      "t": 185719.7155416693,
      "d": 113.63637500003097,
      "v": 106
    },
    {
      "midi": 59,
      "hit": false,
      "t": 185757.59433333328,
      "d": 1136.3637499999895,
      "v": 90
    },
    {
      "midi": 71,
      "hit": false,
      "t": 185757.594333336,
      "d": 37.87879166667699,
      "v": 93
    },
    {
      "midi": 71,
      "hit": false,
      "t": 186022.74587500267,
      "d": 75.75758333332487,
      "v": 97
    },
    {
      "midi": 79,
      "hit": false,
      "t": 186022.74587500267,
      "d": 75.75758333332487,
      "v": 106
    },
    {
      "midi": 74,
      "hit": false,
      "t": 186022.74587500267,
      "d": 113.63637500000186,
      "v": 122
    },
    {
      "midi": 62,
      "hit": false,
      "t": 186060.6246666666,
      "d": 416.66670833333046,
      "v": 94
    },
    {
      "midi": 71,
      "hit": false,
      "t": 186325.776208336,
      "d": 75.75758333332487,
      "v": 111
    },
    {
      "midi": 79,
      "hit": false,
      "t": 186325.776208336,
      "d": 75.75758333332487,
      "v": 116
    },
    {
      "midi": 74,
      "hit": false,
      "t": 186325.776208336,
      "d": 113.63637500000186,
      "v": 127
    },
    {
      "midi": 67,
      "hit": false,
      "t": 186363.65499999994,
      "d": 1666.6668333333218,
      "v": 112
    },
    {
      "midi": 71,
      "hit": false,
      "t": 186628.80654166933,
      "d": 75.75758333332487,
      "v": 106
    },
    {
      "midi": 79,
      "hit": false,
      "t": 186628.80654166933,
      "d": 75.75758333332487,
      "v": 116
    },
    {
      "midi": 74,
      "hit": false,
      "t": 186628.80654166933,
      "d": 113.63637500000186,
      "v": 127
    },
    {
      "midi": 62,
      "hit": false,
      "t": 186666.68533333327,
      "d": 1022.7273749999877,
      "v": 90
    },
    {
      "midi": 74,
      "hit": false,
      "t": 186931.83687500266,
      "d": 75.75758333335398,
      "v": 122
    },
    {
      "midi": 79,
      "hit": false,
      "t": 186931.83687500266,
      "d": 75.75758333335398,
      "v": 111
    },
    {
      "midi": 55,
      "hit": false,
      "t": 186931.83687500266,
      "d": 189.39395833335584,
      "v": 127
    },
    {
      "midi": 59,
      "hit": false,
      "t": 186969.7156666666,
      "d": 492.42429166665534,
      "v": 90
    },
    {
      "midi": 71,
      "hit": false,
      "t": 186969.71566666933,
      "d": 37.87879166667699,
      "v": 102
    },
    {
      "midi": 74,
      "hit": false,
      "t": 187234.867208336,
      "d": 113.63637500003097,
      "v": 122
    },
    {
      "midi": 55,
      "hit": false,
      "t": 187234.867208336,
      "d": 1666.6668333334674,
      "v": 122
    },
    {
      "midi": 55,
      "hit": false,
      "t": 187272.74599999993,
      "d": 1742.424416666734,
      "v": 112
    },
    {
      "midi": 79,
      "hit": false,
      "t": 187272.7460000027,
      "d": 37.87879166667699,
      "v": 116
    },
    {
      "midi": 71,
      "hit": false,
      "t": 187272.7460000027,
      "d": 75.75758333335398,
      "v": 106
    },
    {
      "midi": 71,
      "hit": false,
      "t": 187537.89754166937,
      "d": 75.75758333335398,
      "v": 102
    },
    {
      "midi": 59,
      "hit": false,
      "t": 187575.77633333326,
      "d": 1060.6061666667229,
      "v": 94
    },
    {
      "midi": 79,
      "hit": false,
      "t": 187575.77633333605,
      "d": 37.87879166667699,
      "v": 111
    },
    {
      "midi": 74,
      "hit": false,
      "t": 187575.77633333605,
      "d": 75.75758333335398,
      "v": 122
    },
    {
      "midi": 71,
      "hit": false,
      "t": 187840.92787500273,
      "d": 75.75758333335398,
      "v": 106
    },
    {
      "midi": 74,
      "hit": false,
      "t": 187840.92787500273,
      "d": 113.63637500003097,
      "v": 122
    },
    {
      "midi": 62,
      "hit": false,
      "t": 187878.80666666658,
      "d": 454.54550000003655,
      "v": 94
    },
    {
      "midi": 79,
      "hit": false,
      "t": 187878.8066666694,
      "d": 37.87879166667699,
      "v": 111
    },
    {
      "midi": 71,
      "hit": false,
      "t": 188143.9582083361,
      "d": 75.75758333335398,
      "v": 106
    },
    {
      "midi": 74,
      "hit": false,
      "t": 188143.9582083361,
      "d": 113.63637500003097,
      "v": 127
    },
    {
      "midi": 67,
      "hit": false,
      "t": 188181.83699999994,
      "d": 1704.545625000057,
      "v": 112
    },
    {
      "midi": 79,
      "hit": false,
      "t": 188181.83700000276,
      "d": 37.87879166667699,
      "v": 122
    },
    {
      "midi": 74,
      "hit": false,
      "t": 188446.98854166945,
      "d": 75.75758333335398,
      "v": 122
    },
    {
      "midi": 79,
      "hit": false,
      "t": 188446.98854166945,
      "d": 75.75758333335398,
      "v": 102
    },
    {
      "midi": 62,
      "hit": false,
      "t": 188484.8673333333,
      "d": 1022.7273750000459,
      "v": 94
    },
    {
      "midi": 71,
      "hit": false,
      "t": 188484.86733333612,
      "d": 37.87879166667699,
      "v": 102
    },
    {
      "midi": 74,
      "hit": false,
      "t": 188750.0188750028,
      "d": 75.75758333335398,
      "v": 122
    },
    {
      "midi": 59,
      "hit": false,
      "t": 188787.89766666666,
      "d": 454.54550000000745,
      "v": 103
    },
    {
      "midi": 71,
      "hit": false,
      "t": 188787.89766666948,
      "d": 37.87879166667699,
      "v": 97
    },
    {
      "midi": 79,
      "hit": false,
      "t": 188787.89766666948,
      "d": 37.87879166667699,
      "v": 106
    },
    {
      "midi": 71,
      "hit": false,
      "t": 189053.04920833616,
      "d": 75.75758333335398,
      "v": 106
    },
    {
      "midi": 74,
      "hit": false,
      "t": 189053.04920833616,
      "d": 75.75758333335398,
      "v": 127
    },
    {
      "midi": 79,
      "hit": false,
      "t": 189053.04920833616,
      "d": 75.75758333335398,
      "v": 116
    },
    {
      "midi": 55,
      "hit": false,
      "t": 189090.92799999999,
      "d": 1704.545625000028,
      "v": 103
    },
    {
      "midi": 55,
      "hit": false,
      "t": 189090.92800000284,
      "d": 151.51516666667885,
      "v": 127
    },
    {
      "midi": 74,
      "hit": false,
      "t": 189356.07954166952,
      "d": 75.75758333335398,
      "v": 111
    },
    {
      "midi": 55,
      "hit": false,
      "t": 189356.07954166952,
      "d": 113.63637500003097,
      "v": 122
    },
    {
      "midi": 59,
      "hit": false,
      "t": 189393.95833333334,
      "d": 1060.6061666666646,
      "v": 90
    },
    {
      "midi": 71,
      "hit": false,
      "t": 189393.9583333362,
      "d": 37.87879166667699,
      "v": 89
    },
    {
      "midi": 79,
      "hit": false,
      "t": 189393.9583333362,
      "d": 37.87879166667699,
      "v": 106
    },
    {
      "midi": 55,
      "hit": false,
      "t": 189659.10987500288,
      "d": 113.63637500003097,
      "v": 122
    },
    {
      "midi": 62,
      "hit": false,
      "t": 189696.98866666667,
      "d": 416.66670833333046,
      "v": 90
    },
    {
      "midi": 71,
      "hit": false,
      "t": 189696.98866666955,
      "d": 37.87879166667699,
      "v": 79
    },
    {
      "midi": 79,
      "hit": false,
      "t": 189696.98866666955,
      "d": 37.87879166667699,
      "v": 106
    },
    {
      "midi": 74,
      "hit": false,
      "t": 189696.98866666955,
      "d": 75.75758333335398,
      "v": 116
    },
    {
      "midi": 71,
      "hit": false,
      "t": 189962.14020833623,
      "d": 75.75758333335398,
      "v": 97
    },
    {
      "midi": 74,
      "hit": false,
      "t": 189962.14020833623,
      "d": 113.63637500003097,
      "v": 122
    },
    {
      "midi": 55,
      "hit": false,
      "t": 189962.14020833623,
      "d": 151.51516666670796,
      "v": 127
    },
    {
      "midi": 67,
      "hit": false,
      "t": 190000.019,
      "d": 1742.424416666705,
      "v": 112
    },
    {
      "midi": 79,
      "hit": false,
      "t": 190000.0190000029,
      "d": 75.75758333335398,
      "v": 116
    },
    {
      "midi": 55,
      "hit": false,
      "t": 190265.17054166962,
      "d": 113.63637500003097,
      "v": 127
    },
    {
      "midi": 71,
      "hit": false,
      "t": 190265.17054166962,
      "d": 113.63637500003097,
      "v": 93
    },
    {
      "midi": 74,
      "hit": false,
      "t": 190265.17054166962,
      "d": 113.63637500003097,
      "v": 122
    },
    {
      "midi": 62,
      "hit": false,
      "t": 190303.04933333333,
      "d": 1060.6061666666938,
      "v": 86
    },
    {
      "midi": 79,
      "hit": false,
      "t": 190303.0493333363,
      "d": 37.87879166667699,
      "v": 111
    },
    {
      "midi": 74,
      "hit": false,
      "t": 190568.20087500298,
      "d": 113.63637500000186,
      "v": 127
    },
    {
      "midi": 55,
      "hit": false,
      "t": 190568.20087500298,
      "d": 151.51516666667885,
      "v": 127
    },
    {
      "midi": 59,
      "hit": false,
      "t": 190606.0796666667,
      "d": 492.42429166665534,
      "v": 94
    },
    {
      "midi": 71,
      "hit": false,
      "t": 190606.07966666966,
      "d": 75.75758333332487,
      "v": 102
    },
    {
      "midi": 79,
      "hit": false,
      "t": 190606.07966666966,
      "d": 75.75758333332487,
      "v": 111
    },
    {
      "midi": 55,
      "hit": false,
      "t": 190871.23120833634,
      "d": 151.51516666667885,
      "v": 127
    },
    {
      "midi": 55,
      "hit": false,
      "t": 190909.11000000002,
      "d": 1780.3032083333528,
      "v": 112
    },
    {
      "midi": 71,
      "hit": false,
      "t": 190909.110000003,
      "d": 75.75758333332487,
      "v": 102
    },
    {
      "midi": 74,
      "hit": false,
      "t": 190909.110000003,
      "d": 75.75758333332487,
      "v": 122
    },
    {
      "midi": 79,
      "hit": false,
      "t": 190909.110000003,
      "d": 75.75758333332487,
      "v": 111
    },
    {
      "midi": 74,
      "hit": false,
      "t": 191174.2615416697,
      "d": 113.63637500000186,
      "v": 122
    },
    {
      "midi": 59,
      "hit": false,
      "t": 191212.14033333334,
      "d": 1098.4849583333416,
      "v": 94
    },
    {
      "midi": 55,
      "hit": false,
      "t": 191212.14033333637,
      "d": 75.75758333332487,
      "v": 127
    },
    {
      "midi": 71,
      "hit": false,
      "t": 191212.14033333637,
      "d": 75.75758333332487,
      "v": 102
    },
    {
      "midi": 79,
      "hit": false,
      "t": 191212.14033333637,
      "d": 75.75758333332487,
      "v": 116
    },
    {
      "midi": 74,
      "hit": false,
      "t": 191477.29187500302,
      "d": 113.63637500000186,
      "v": 127
    },
    {
      "midi": 79,
      "hit": false,
      "t": 191477.29187500302,
      "d": 113.63637500000186,
      "v": 116
    },
    {
      "midi": 62,
      "hit": false,
      "t": 191515.1706666667,
      "d": 416.66670833333046,
      "v": 86
    },
    {
      "midi": 71,
      "hit": false,
      "t": 191515.1706666697,
      "d": 75.75758333332487,
      "v": 106
    },
    {
      "midi": 55,
      "hit": false,
      "t": 191515.1706666697,
      "d": 113.63637500000186,
      "v": 127
    },
    {
      "midi": 74,
      "hit": false,
      "t": 191780.32220833638,
      "d": 113.63637500000186,
      "v": 127
    },
    {
      "midi": 55,
      "hit": false,
      "t": 191780.32220833638,
      "d": 151.51516666667885,
      "v": 127
    },
    {
      "midi": 67,
      "hit": false,
      "t": 191818.20100000003,
      "d": 833.3334166666609,
      "v": 121
    },
    {
      "midi": 71,
      "hit": false,
      "t": 191818.20100000306,
      "d": 75.75758333332487,
      "v": 89
    },
    {
      "midi": 79,
      "hit": false,
      "t": 191818.20100000306,
      "d": 75.75758333332487,
      "v": 116
    },
    {
      "midi": 55,
      "hit": false,
      "t": 192083.35254166974,
      "d": 151.51516666670796,
      "v": 127
    },
    {
      "midi": 62,
      "hit": false,
      "t": 192121.23133333336,
      "d": 568.1818750000093,
      "v": 86
    },
    {
      "midi": 71,
      "hit": false,
      "t": 192121.2313333364,
      "d": 37.87879166667699,
      "v": 102
    },
    {
      "midi": 74,
      "hit": false,
      "t": 192121.2313333364,
      "d": 75.75758333335398,
      "v": 127
    },
    {
      "midi": 79,
      "hit": false,
      "t": 192121.2313333364,
      "d": 75.75758333335398,
      "v": 122
    },
    {
      "midi": 74,
      "hit": false,
      "t": 192386.38287500312,
      "d": 113.63637500000186,
      "v": 127
    },
    {
      "midi": 79,
      "hit": false,
      "t": 192386.38287500312,
      "d": 151.51516666667885,
      "v": 122
    },
    {
      "midi": 55,
      "hit": false,
      "t": 192386.38287500312,
      "d": 189.39395833335584,
      "v": 127
    },
    {
      "midi": 59,
      "hit": false,
      "t": 192424.2616666667,
      "d": 303.0303333333577,
      "v": 94
    },
    {
      "midi": 71,
      "hit": false,
      "t": 192424.2616666698,
      "d": 75.75758333332487,
      "v": 102
    },
    {
      "midi": 60,
      "hit": false,
      "t": 192727.29200000004,
      "d": 1704.5456249999988,
      "v": 127
    },
    {
      "midi": 76,
      "hit": false,
      "t": 192727.29200000316,
      "d": 75.75758333332487,
      "v": 127
    },
    {
      "midi": 79,
      "hit": false,
      "t": 192727.29200000316,
      "d": 75.75758333332487,
      "v": 127
    },
    {
      "midi": 84,
      "hit": false,
      "t": 192727.29200000316,
      "d": 113.63637500000186,
      "v": 111
    },
    {
      "midi": 60,
      "hit": false,
      "t": 192727.29200000316,
      "d": 1325.7577083333454,
      "v": 102
    },
    {
      "midi": 76,
      "hit": false,
      "t": 192992.44354166984,
      "d": 75.75758333332487,
      "v": 116
    },
    {
      "midi": 79,
      "hit": false,
      "t": 192992.44354166984,
      "d": 113.63637500000186,
      "v": 116
    },
    {
      "midi": 84,
      "hit": false,
      "t": 192992.44354166984,
      "d": 113.63637500000186,
      "v": 106
    },
    {
      "midi": 64,
      "hit": false,
      "t": 193030.32233333337,
      "d": 1060.6061666666646,
      "v": 86
    },
    {
      "midi": 76,
      "hit": false,
      "t": 193295.47387500317,
      "d": 113.63637500000186,
      "v": 122
    },
    {
      "midi": 79,
      "hit": false,
      "t": 193295.47387500317,
      "d": 113.63637500000186,
      "v": 122
    },
    {
      "midi": 84,
      "hit": false,
      "t": 193295.47387500317,
      "d": 113.63637500000186,
      "v": 106
    },
    {
      "midi": 67,
      "hit": false,
      "t": 193333.3526666667,
      "d": 416.66670833333046,
      "v": 86
    },
    {
      "midi": 76,
      "hit": false,
      "t": 193598.5042083365,
      "d": 113.63637500000186,
      "v": 122
    },
    {
      "midi": 84,
      "hit": false,
      "t": 193598.5042083365,
      "d": 113.63637500000186,
      "v": 106
    },
    {
      "midi": 72,
      "hit": false,
      "t": 193636.38300000003,
      "d": 1628.788041666703,
      "v": 112
    },
    {
      "midi": 79,
      "hit": false,
      "t": 193636.38300000317,
      "d": 75.75758333332487,
      "v": 122
    },
    {
      "midi": 76,
      "hit": false,
      "t": 193901.53454166983,
      "d": 113.63637500000186,
      "v": 116
    },
    {
      "midi": 79,
      "hit": false,
      "t": 193901.53454166983,
      "d": 113.63637500000186,
      "v": 116
    },
    {
      "midi": 84,
      "hit": false,
      "t": 193901.53454166983,
      "d": 113.63637500000186,
      "v": 111
    },
    {
      "midi": 67,
      "hit": false,
      "t": 193939.41333333336,
      "d": 984.8485833333689,
      "v": 90
    },
    {
      "midi": 79,
      "hit": false,
      "t": 194204.56487500318,
      "d": 113.63637500000186,
      "v": 116
    },
    {
      "midi": 84,
      "hit": false,
      "t": 194204.56487500318,
      "d": 113.63637500000186,
      "v": 106
    },
    {
      "midi": 64,
      "hit": false,
      "t": 194242.44366666672,
      "d": 454.54550000000745,
      "v": 90
    },
    {
      "midi": 60,
      "hit": false,
      "t": 194242.44366666986,
      "d": 113.63637500000186,
      "v": 116
    },
    {
      "midi": 76,
      "hit": false,
      "t": 194242.44366666986,
      "d": 113.63637500000186,
      "v": 127
    },
    {
      "midi": 76,
      "hit": false,
      "t": 194507.59520833654,
      "d": 113.63637500000186,
      "v": 127
    },
    {
      "midi": 84,
      "hit": false,
      "t": 194507.59520833654,
      "d": 113.63637500000186,
      "v": 111
    },
    {
      "midi": 60,
      "hit": false,
      "t": 194507.59520833654,
      "d": 795.4546250000712,
      "v": 116
    },
    {
      "midi": 60,
      "hit": false,
      "t": 194545.47400000005,
      "d": 1590.909250000026,
      "v": 103
    },
    {
      "midi": 79,
      "hit": false,
      "t": 194545.47400000322,
      "d": 113.63637500000186,
      "v": 127
    },
    {
      "midi": 84,
      "hit": false,
      "t": 194810.6255416699,
      "d": 75.75758333335398,
      "v": 106
    },
    {
      "midi": 79,
      "hit": false,
      "t": 194810.6255416699,
      "d": 113.63637500003097,
      "v": 122
    },
    {
      "midi": 64,
      "hit": false,
      "t": 194848.5043333334,
      "d": 1022.7273749999877,
      "v": 82
    },
    {
      "midi": 76,
      "hit": false,
      "t": 194848.50433333658,
      "d": 75.75758333335398,
      "v": 116
    },
    {
      "midi": 79,
      "hit": false,
      "t": 195113.65587500326,
      "d": 151.51516666667885,
      "v": 122
    },
    {
      "midi": 67,
      "hit": false,
      "t": 195151.53466666673,
      "d": 378.7879166666535,
      "v": 86
    },
    {
      "midi": 84,
      "hit": false,
      "t": 195151.53466666993,
      "d": 75.75758333332487,
      "v": 102
    },
    {
      "midi": 76,
      "hit": false,
      "t": 195151.53466666993,
      "d": 113.63637500000186,
      "v": 122
    },
    {
      "midi": 76,
      "hit": false,
      "t": 195416.6862083366,
      "d": 151.51516666667885,
      "v": 122
    },
    {
      "midi": 79,
      "hit": false,
      "t": 195416.6862083366,
      "d": 151.51516666667885,
      "v": 122
    },
    {
      "midi": 72,
      "hit": false,
      "t": 195454.56500000006,
      "d": 643.9394583333342,
      "v": 103
    },
    {
      "midi": 84,
      "hit": false,
      "t": 195454.5650000033,
      "d": 75.75758333332487,
      "v": 106
    },
    {
      "midi": 60,
      "hit": false,
      "t": 195454.5650000033,
      "d": 795.4546250000421,
      "v": 111
    },
    {
      "midi": 84,
      "hit": false,
      "t": 195719.71654166997,
      "d": 75.75758333335398,
      "v": 106
    },
    {
      "midi": 79,
      "hit": false,
      "t": 195719.71654166997,
      "d": 113.63637500003097,
      "v": 122
    },
    {
      "midi": 67,
      "hit": false,
      "t": 195757.5953333334,
      "d": 492.42429166668444,
      "v": 86
    },
    {
      "midi": 76,
      "hit": false,
      "t": 195757.59533333665,
      "d": 75.75758333335398,
      "v": 122
    },
    {
      "midi": 76,
      "hit": false,
      "t": 196022.74687500333,
      "d": 113.63637500000186,
      "v": 122
    },
    {
      "midi": 79,
      "hit": false,
      "t": 196022.74687500333,
      "d": 113.63637500000186,
      "v": 122
    },
    {
      "midi": 64,
      "hit": false,
      "t": 196060.62566666672,
      "d": 303.0303333333577,
      "v": 94
    },
    {
      "midi": 84,
      "hit": false,
      "t": 196060.62566667,
      "d": 75.75758333332487,
      "v": 111
    },
    {
      "midi": 74,
      "hit": false,
      "t": 196325.77720833666,
      "d": 113.63637500000186,
      "v": 116
    },
    {
      "midi": 55,
      "hit": false,
      "t": 196363.65600000008,
      "d": 1666.6668333333218,
      "v": 121
    },
    {
      "midi": 79,
      "hit": false,
      "t": 196363.65600000334,
      "d": 75.75758333332487,
      "v": 122
    },
    {
      "midi": 83,
      "hit": false,
      "t": 196363.65600000334,
      "d": 113.63637500000186,
      "v": 127
    },
    {
      "midi": 55,
      "hit": false,
      "t": 196363.65600000334,
      "d": 1325.7577083333745,
      "v": 127
    },
    {
      "midi": 74,
      "hit": false,
      "t": 196628.80754167002,
      "d": 113.63637500000186,
      "v": 106
    },
    {
      "midi": 79,
      "hit": false,
      "t": 196628.80754167002,
      "d": 113.63637500000186,
      "v": 111
    },
    {
      "midi": 59,
      "hit": false,
      "t": 196666.6863333334,
      "d": 909.0909999999858,
      "v": 90
    },
    {
      "midi": 83,
      "hit": false,
      "t": 196666.6863333367,
      "d": 75.75758333332487,
      "v": 106
    },
    {
      "midi": 74,
      "hit": false,
      "t": 196931.83787500334,
      "d": 113.63637500000186,
      "v": 111
    },
    {
      "midi": 79,
      "hit": false,
      "t": 196931.83787500334,
      "d": 113.63637500000186,
      "v": 122
    },
    {
      "midi": 62,
      "hit": false,
      "t": 196969.71666666673,
      "d": 378.7879166666535,
      "v": 94
    },
    {
      "midi": 83,
      "hit": false,
      "t": 196969.71666667002,
      "d": 75.75758333332487,
      "v": 111
    },
    {
      "midi": 83,
      "hit": false,
      "t": 197234.86820833667,
      "d": 75.75758333335398,
      "v": 116
    },
    {
      "midi": 79,
      "hit": false,
      "t": 197234.86820833667,
      "d": 113.63637500003097,
      "v": 122
    },
    {
      "midi": 67,
      "hit": false,
      "t": 197272.74700000006,
      "d": 1590.909249999997,
      "v": 103
    },
    {
      "midi": 74,
      "hit": false,
      "t": 197272.74700000335,
      "d": 75.75758333335398,
      "v": 111
    },
    {
      "midi": 83,
      "hit": false,
      "t": 197537.89854167003,
      "d": 75.75758333332487,
      "v": 106
    },
    {
      "midi": 74,
      "hit": false,
      "t": 197537.89854167003,
      "d": 113.63637500000186,
      "v": 102
    },
    {
      "midi": 79,
      "hit": false,
      "t": 197537.89854167003,
      "d": 113.63637500000186,
      "v": 111
    },
    {
      "midi": 62,
      "hit": false,
      "t": 197575.7773333334,
      "d": 984.8485833333398,
      "v": 90
    },
    {
      "midi": 74,
      "hit": false,
      "t": 197840.9288750034,
      "d": 113.63637500003097,
      "v": 111
    },
    {
      "midi": 79,
      "hit": false,
      "t": 197840.9288750034,
      "d": 113.63637500003097,
      "v": 122
    },
    {
      "midi": 59,
      "hit": false,
      "t": 197878.80766666672,
      "d": 416.66670833335957,
      "v": 90
    },
    {
      "midi": 83,
      "hit": false,
      "t": 197878.80766667007,
      "d": 37.87879166667699,
      "v": 111
    },
    {
      "midi": 55,
      "hit": false,
      "t": 197878.80766667007,
      "d": 113.63637500003097,
      "v": 127
    },
    {
      "midi": 55,
      "hit": false,
      "t": 198181.83800000008,
      "d": 1666.666833333351,
      "v": 94
    },
    {
      "midi": 83,
      "hit": false,
      "t": 198181.83800000342,
      "d": 75.75758333332487,
      "v": 122
    },
    {
      "midi": 74,
      "hit": false,
      "t": 198181.83800000342,
      "d": 113.63637500000186,
      "v": 111
    },
    {
      "midi": 79,
      "hit": false,
      "t": 198181.83800000342,
      "d": 113.63637500000186,
      "v": 127
    },
    {
      "midi": 55,
      "hit": false,
      "t": 198181.83800000342,
      "d": 833.33341666669,
      "v": 127
    },
    {
      "midi": 74,
      "hit": false,
      "t": 198446.9895416701,
      "d": 75.75758333332487,
      "v": 106
    },
    {
      "midi": 79,
      "hit": false,
      "t": 198446.9895416701,
      "d": 75.75758333332487,
      "v": 116
    },
    {
      "midi": 83,
      "hit": false,
      "t": 198446.9895416701,
      "d": 75.75758333332487,
      "v": 102
    },
    {
      "midi": 59,
      "hit": false,
      "t": 198484.8683333334,
      "d": 946.9697916666919,
      "v": 90
    },
    {
      "midi": 79,
      "hit": false,
      "t": 198750.01987500343,
      "d": 113.63637500000186,
      "v": 122
    },
    {
      "midi": 83,
      "hit": false,
      "t": 198750.01987500343,
      "d": 113.63637500000186,
      "v": 116
    },
    {
      "midi": 62,
      "hit": false,
      "t": 198787.89866666673,
      "d": 340.9091250000056,
      "v": 86
    },
    {
      "midi": 74,
      "hit": false,
      "t": 198787.8986666701,
      "d": 75.75758333332487,
      "v": 111
    },
    {
      "midi": 83,
      "hit": false,
      "t": 199053.0502083368,
      "d": 113.63637500000186,
      "v": 122
    },
    {
      "midi": 79,
      "hit": false,
      "t": 199053.0502083368,
      "d": 151.51516666667885,
      "v": 127
    },
    {
      "midi": 67,
      "hit": false,
      "t": 199090.92900000006,
      "d": 681.8182500000403,
      "v": 103
    },
    {
      "midi": 74,
      "hit": false,
      "t": 199090.92900000347,
      "d": 75.75758333332487,
      "v": 116
    },
    {
      "midi": 55,
      "hit": false,
      "t": 199090.92900000347,
      "d": 795.4546250000421,
      "v": 127
    },
    {
      "midi": 74,
      "hit": false,
      "t": 199356.08054167015,
      "d": 75.75758333332487,
      "v": 111
    },
    {
      "midi": 83,
      "hit": false,
      "t": 199356.08054167015,
      "d": 75.75758333332487,
      "v": 122
    },
    {
      "midi": 79,
      "hit": false,
      "t": 199356.08054167015,
      "d": 113.63637500000186,
      "v": 116
    },
    {
      "midi": 62,
      "hit": false,
      "t": 199393.95933333342,
      "d": 606.0606666666863,
      "v": 90
    },
    {
      "midi": 83,
      "hit": false,
      "t": 199659.11087500348,
      "d": 75.75758333335398,
      "v": 116
    },
    {
      "midi": 79,
      "hit": false,
      "t": 199659.11087500348,
      "d": 113.63637500003097,
      "v": 122
    },
    {
      "midi": 59,
      "hit": false,
      "t": 199696.98966666678,
      "d": 378.7879166666535,
      "v": 94
    },
    {
      "midi": 74,
      "hit": false,
      "t": 199696.98966667015,
      "d": 75.75758333335398,
      "v": 111
    },
    {
      "midi": 76,
      "hit": false,
      "t": 199962.14120833683,
      "d": 113.63637500000186,
      "v": 127
    },
    {
      "midi": 57,
      "hit": false,
      "t": 199962.14120833683,
      "d": 1363.6364999999932,
      "v": 127
    },
    {
      "midi": 57,
      "hit": false,
      "t": 200000.0200000001,
      "d": 1590.9092499999679,
      "v": 103
    },
    {
      "midi": 72,
      "hit": false,
      "t": 200000.0200000035,
      "d": 75.75758333332487,
      "v": 97
    },
    {
      "midi": 81,
      "hit": false,
      "t": 200000.0200000035,
      "d": 75.75758333332487,
      "v": 116
    },
    {
      "midi": 72,
      "hit": false,
      "t": 200265.17154167016,
      "d": 75.75758333332487,
      "v": 82
    },
    {
      "midi": 81,
      "hit": false,
      "t": 200265.17154167016,
      "d": 75.75758333332487,
      "v": 111
    },
    {
      "midi": 76,
      "hit": false,
      "t": 200265.17154167016,
      "d": 113.63637500000186,
      "v": 116
    },
    {
      "midi": 60,
      "hit": false,
      "t": 200303.05033333343,
      "d": 984.8485833333107,
      "v": 94
    },
    {
      "midi": 72,
      "hit": false,
      "t": 200568.2018750035,
      "d": 75.75758333332487,
      "v": 86
    },
    {
      "midi": 76,
      "hit": false,
      "t": 200568.2018750035,
      "d": 113.63637500000186,
      "v": 122
    },
    {
      "midi": 81,
      "hit": false,
      "t": 200568.2018750035,
      "d": 113.63637500000186,
      "v": 111
    },
    {
      "midi": 64,
      "hit": false,
      "t": 200606.08066666676,
      "d": 378.7879166666535,
      "v": 94
    },
    {
      "midi": 72,
      "hit": false,
      "t": 200871.23220833682,
      "d": 75.75758333332487,
      "v": 76
    },
    {
      "midi": 76,
      "hit": false,
      "t": 200871.23220833682,
      "d": 113.63637500000186,
      "v": 122
    },
    {
      "midi": 81,
      "hit": false,
      "t": 200871.23220833682,
      "d": 113.63637500000186,
      "v": 111
    },
    {
      "midi": 69,
      "hit": false,
      "t": 200909.1110000001,
      "d": 1515.151666666643,
      "v": 103
    },
    {
      "midi": 72,
      "hit": false,
      "t": 201174.26254167015,
      "d": 75.75758333332487,
      "v": 89
    },
    {
      "midi": 76,
      "hit": false,
      "t": 201174.26254167015,
      "d": 113.63637500000186,
      "v": 122
    },
    {
      "midi": 81,
      "hit": false,
      "t": 201174.26254167015,
      "d": 113.63637500000186,
      "v": 111
    },
    {
      "midi": 64,
      "hit": false,
      "t": 201212.14133333342,
      "d": 984.8485833333107,
      "v": 94
    },
    {
      "midi": 72,
      "hit": false,
      "t": 201477.2928750035,
      "d": 75.75758333332487,
      "v": 89
    },
    {
      "midi": 81,
      "hit": false,
      "t": 201477.2928750035,
      "d": 113.63637500000186,
      "v": 116
    },
    {
      "midi": 57,
      "hit": false,
      "t": 201477.2928750035,
      "d": 151.51516666667885,
      "v": 127
    },
    {
      "midi": 76,
      "hit": false,
      "t": 201477.2928750035,
      "d": 151.51516666667885,
      "v": 122
    },
    {
      "midi": 60,
      "hit": false,
      "t": 201515.17166666675,
      "d": 416.66670833333046,
      "v": 94
    },
    {
      "midi": 72,
      "hit": false,
      "t": 201780.32320833686,
      "d": 113.63637500000186,
      "v": 93
    },
    {
      "midi": 76,
      "hit": false,
      "t": 201780.32320833686,
      "d": 113.63637500000186,
      "v": 127
    },
    {
      "midi": 81,
      "hit": false,
      "t": 201780.32320833686,
      "d": 113.63637500000186,
      "v": 116
    },
    {
      "midi": 57,
      "hit": false,
      "t": 201780.32320833686,
      "d": 719.6970416666591,
      "v": 122
    },
    {
      "midi": 57,
      "hit": false,
      "t": 201818.20200000008,
      "d": 1666.666833333351,
      "v": 112
    },
    {
      "midi": 81,
      "hit": false,
      "t": 202083.3535416702,
      "d": 113.63637500000186,
      "v": 106
    },
    {
      "midi": 60,
      "hit": false,
      "t": 202121.2323333334,
      "d": 984.8485833333398,
      "v": 94
    },
    {
      "midi": 72,
      "hit": false,
      "t": 202121.23233333687,
      "d": 75.75758333332487,
      "v": 79
    },
    {
      "midi": 76,
      "hit": false,
      "t": 202121.23233333687,
      "d": 75.75758333332487,
      "v": 116
    },
    {
      "midi": 72,
      "hit": false,
      "t": 202386.38387500352,
      "d": 113.63637500000186,
      "v": 82
    },
    {
      "midi": 76,
      "hit": false,
      "t": 202386.38387500352,
      "d": 113.63637500000186,
      "v": 116
    },
    {
      "midi": 81,
      "hit": false,
      "t": 202386.38387500352,
      "d": 113.63637500000186,
      "v": 116
    },
    {
      "midi": 64,
      "hit": false,
      "t": 202424.26266666673,
      "d": 340.9091250000056,
      "v": 90
    },
    {
      "midi": 81,
      "hit": false,
      "t": 202689.41420833685,
      "d": 113.63637500000186,
      "v": 111
    },
    {
      "midi": 57,
      "hit": false,
      "t": 202689.41420833685,
      "d": 833.33341666669,
      "v": 127
    },
    {
      "midi": 69,
      "hit": false,
      "t": 202727.29300000006,
      "d": 568.1818750000093,
      "v": 112
    },
    {
      "midi": 72,
      "hit": false,
      "t": 202727.29300000353,
      "d": 75.75758333332487,
      "v": 97
    },
    {
      "midi": 76,
      "hit": false,
      "t": 202727.29300000353,
      "d": 113.63637500000186,
      "v": 122
    },
    {
      "midi": 72,
      "hit": false,
      "t": 202992.4445416702,
      "d": 113.63637500000186,
      "v": 82
    },
    {
      "midi": 76,
      "hit": false,
      "t": 202992.4445416702,
      "d": 113.63637500000186,
      "v": 122
    },
    {
      "midi": 81,
      "hit": false,
      "t": 202992.4445416702,
      "d": 113.63637500000186,
      "v": 102
    },
    {
      "midi": 64,
      "hit": false,
      "t": 203030.32333333342,
      "d": 643.9394583333633,
      "v": 86
    },
    {
      "midi": 76,
      "hit": false,
      "t": 203295.47487500354,
      "d": 113.63637500000186,
      "v": 122
    },
    {
      "midi": 60,
      "hit": false,
      "t": 203333.35366666675,
      "d": 340.9091250000347,
      "v": 94
    },
    {
      "midi": 72,
      "hit": false,
      "t": 203333.3536666702,
      "d": 75.75758333332487,
      "v": 86
    },
    {
      "midi": 81,
      "hit": false,
      "t": 203333.3536666702,
      "d": 75.75758333332487,
      "v": 102
    },
    {
      "midi": 79,
      "hit": false,
      "t": 203598.50520833686,
      "d": 113.63637500000186,
      "v": 122
    },
    {
      "midi": 52,
      "hit": false,
      "t": 203636.3840000001,
      "d": 1666.66683333338,
      "v": 103
    },
    {
      "midi": 71,
      "hit": false,
      "t": 203636.38400000354,
      "d": 75.75758333332487,
      "v": 102
    },
    {
      "midi": 76,
      "hit": false,
      "t": 203636.38400000354,
      "d": 75.75758333332487,
      "v": 122
    },
    {
      "midi": 52,
      "hit": false,
      "t": 203636.38400000354,
      "d": 1287.8789166666393,
      "v": 127
    },
    {
      "midi": 71,
      "hit": false,
      "t": 203901.5355416702,
      "d": 75.75758333332487,
      "v": 97
    },
    {
      "midi": 76,
      "hit": false,
      "t": 203901.5355416702,
      "d": 113.63637500000186,
      "v": 111
    },
    {
      "midi": 79,
      "hit": false,
      "t": 203901.5355416702,
      "d": 113.63637500000186,
      "v": 111
    },
    {
      "midi": 55,
      "hit": false,
      "t": 203939.41433333347,
      "d": 909.0910000000149,
      "v": 90
    },
    {
      "midi": 76,
      "hit": false,
      "t": 204204.56587500352,
      "d": 113.63637500000186,
      "v": 116
    },
    {
      "midi": 79,
      "hit": false,
      "t": 204204.56587500352,
      "d": 113.63637500000186,
      "v": 106
    },
    {
      "midi": 59,
      "hit": false,
      "t": 204242.4446666668,
      "d": 340.9091250000056,
      "v": 94
    },
    {
      "midi": 71,
      "hit": false,
      "t": 204242.4446666702,
      "d": 75.75758333332487,
      "v": 106
    },
    {
      "midi": 71,
      "hit": false,
      "t": 204507.59620833685,
      "d": 113.63637500000186,
      "v": 102
    },
    {
      "midi": 76,
      "hit": false,
      "t": 204507.59620833685,
      "d": 113.63637500000186,
      "v": 116
    },
    {
      "midi": 79,
      "hit": false,
      "t": 204507.59620833685,
      "d": 113.63637500000186,
      "v": 122
    },
    {
      "midi": 64,
      "hit": false,
      "t": 204545.47500000012,
      "d": 1590.909250000026,
      "v": 103
    },
    {
      "midi": 71,
      "hit": false,
      "t": 204810.62654167018,
      "d": 113.63637500000186,
      "v": 106
    },
    {
      "midi": 76,
      "hit": false,
      "t": 204810.62654167018,
      "d": 113.63637500000186,
      "v": 116
    },
    {
      "midi": 79,
      "hit": false,
      "t": 204810.62654167018,
      "d": 113.63637500000186,
      "v": 116
    },
    {
      "midi": 59,
      "hit": false,
      "t": 204848.50533333348,
      "d": 984.8485833333398,
      "v": 90
    },
    {
      "midi": 76,
      "hit": false,
      "t": 205113.6568750035,
      "d": 113.63637500000186,
      "v": 116
    },
    {
      "midi": 52,
      "hit": false,
      "t": 205113.6568750035,
      "d": 151.51516666667885,
      "v": 122
    },
    {
      "midi": 55,
      "hit": false,
      "t": 205151.5356666668,
      "d": 378.7879166666826,
      "v": 86
    },
    {
      "midi": 71,
      "hit": false,
      "t": 205151.53566667018,
      "d": 75.75758333332487,
      "v": 106
    },
    {
      "midi": 79,
      "hit": false,
      "t": 205151.53566667018,
      "d": 75.75758333332487,
      "v": 122
    },
    {
      "midi": 71,
      "hit": false,
      "t": 205416.68720833687,
      "d": 75.75758333335398,
      "v": 106
    },
    {
      "midi": 79,
      "hit": false,
      "t": 205416.68720833687,
      "d": 113.63637500003097,
      "v": 122
    },
    {
      "midi": 52,
      "hit": false,
      "t": 205416.68720833687,
      "d": 719.6970416666882,
      "v": 127
    },
    {
      "midi": 52,
      "hit": false,
      "t": 205454.56600000017,
      "d": 1628.788041666703,
      "v": 90
    },
    {
      "midi": 76,
      "hit": false,
      "t": 205454.56600000354,
      "d": 75.75758333335398,
      "v": 116
    },
    {
      "midi": 71,
      "hit": false,
      "t": 205719.71754167022,
      "d": 113.63637500000186,
      "v": 102
    },
    {
      "midi": 76,
      "hit": false,
      "t": 205719.71754167022,
      "d": 113.63637500000186,
      "v": 116
    },
    {
      "midi": 79,
      "hit": false,
      "t": 205719.71754167022,
      "d": 113.63637500000186,
      "v": 111
    },
    {
      "midi": 55,
      "hit": false,
      "t": 205757.5963333335,
      "d": 946.9697916666919,
      "v": 86
    },
    {
      "midi": 79,
      "hit": false,
      "t": 206022.74787500355,
      "d": 113.63637500000186,
      "v": 116
    },
    {
      "midi": 59,
      "hit": false,
      "t": 206060.62666666682,
      "d": 340.9091250000056,
      "v": 86
    },
    {
      "midi": 71,
      "hit": false,
      "t": 206060.62666667023,
      "d": 75.75758333332487,
      "v": 106
    },
    {
      "midi": 76,
      "hit": false,
      "t": 206060.62666667023,
      "d": 75.75758333332487,
      "v": 122
    },
    {
      "midi": 71,
      "hit": false,
      "t": 206325.77820833688,
      "d": 75.75758333332487,
      "v": 122
    },
    {
      "midi": 76,
      "hit": false,
      "t": 206325.77820833688,
      "d": 113.63637500000186,
      "v": 116
    },
    {
      "midi": 79,
      "hit": false,
      "t": 206325.77820833688,
      "d": 113.63637500000186,
      "v": 127
    },
    {
      "midi": 52,
      "hit": false,
      "t": 206325.77820833688,
      "d": 757.575833333336,
      "v": 127
    },
    {
      "midi": 64,
      "hit": false,
      "t": 206363.65700000015,
      "d": 871.2122083333961,
      "v": 103
    },
    {
      "midi": 71,
      "hit": false,
      "t": 206628.8085416702,
      "d": 113.63637500000186,
      "v": 111
    },
    {
      "midi": 79,
      "hit": false,
      "t": 206628.8085416702,
      "d": 113.63637500000186,
      "v": 116
    },
    {
      "midi": 59,
      "hit": false,
      "t": 206666.6873333335,
      "d": 606.0606666667154,
      "v": 86
    },
    {
      "midi": 76,
      "hit": false,
      "t": 206666.6873333369,
      "d": 75.75758333332487,
      "v": 122
    },
    {
      "midi": 71,
      "hit": false,
      "t": 206931.83887500354,
      "d": 113.63637500000186,
      "v": 89
    },
    {
      "midi": 79,
      "hit": false,
      "t": 206931.83887500354,
      "d": 113.63637500000186,
      "v": 116
    },
    {
      "midi": 55,
      "hit": false,
      "t": 206969.71766666687,
      "d": 303.0303333333577,
      "v": 103
    },
    {
      "midi": 76,
      "hit": false,
      "t": 206969.7176666702,
      "d": 75.75758333332487,
      "v": 111
    },
    {
      "midi": 72,
      "hit": false,
      "t": 207234.8692083369,
      "d": 113.63637500000186,
      "v": 102
    },
    {
      "midi": 77,
      "hit": false,
      "t": 207234.8692083369,
      "d": 113.63637500000186,
      "v": 122
    },
    {
      "midi": 81,
      "hit": false,
      "t": 207234.8692083369,
      "d": 113.63637500000186,
      "v": 116
    },
    {
      "midi": 53,
      "hit": false,
      "t": 207272.74800000023,
      "d": 1666.666833333351,
      "v": 112
    },
    {
      "midi": 53,
      "hit": false,
      "t": 207272.74800000357,
      "d": 1325.7577083333163,
      "v": 116
    },
    {
      "midi": 72,
      "hit": false,
      "t": 207537.89954167022,
      "d": 113.63637500000186,
      "v": 89
    },
    {
      "midi": 81,
      "hit": false,
      "t": 207537.89954167022,
      "d": 113.63637500000186,
      "v": 106
    },
    {
      "midi": 57,
      "hit": false,
      "t": 207575.77833333355,
      "d": 1060.6061666666646,
      "v": 90
    },
    {
      "midi": 77,
      "hit": false,
      "t": 207575.7783333369,
      "d": 75.75758333332487,
      "v": 111
    },
    {
      "midi": 72,
      "hit": false,
      "t": 207840.92987500355,
      "d": 113.63637500000186,
      "v": 86
    },
    {
      "midi": 77,
      "hit": false,
      "t": 207840.92987500355,
      "d": 113.63637500000186,
      "v": 106
    },
    {
      "midi": 81,
      "hit": false,
      "t": 207840.92987500355,
      "d": 113.63637500000186,
      "v": 111
    },
    {
      "midi": 60,
      "hit": false,
      "t": 207878.80866666688,
      "d": 416.66670833333046,
      "v": 90
    },
    {
      "midi": 77,
      "hit": false,
      "t": 208143.96020833688,
      "d": 113.63637500000186,
      "v": 111
    },
    {
      "midi": 81,
      "hit": false,
      "t": 208143.96020833688,
      "d": 113.63637500000186,
      "v": 111
    },
    {
      "midi": 65,
      "hit": false,
      "t": 208181.8390000002,
      "d": 1590.909250000026,
      "v": 103
    },
    {
      "midi": 72,
      "hit": false,
      "t": 208181.83900000356,
      "d": 75.75758333332487,
      "v": 97
    },
    {
      "midi": 77,
      "hit": false,
      "t": 208446.9905416702,
      "d": 113.63637500000186,
      "v": 102
    },
    {
      "midi": 81,
      "hit": false,
      "t": 208446.9905416702,
      "d": 113.63637500000186,
      "v": 97
    },
    {
      "midi": 60,
      "hit": false,
      "t": 208484.86933333354,
      "d": 984.8485833333689,
      "v": 86
    },
    {
      "midi": 72,
      "hit": false,
      "t": 208484.8693333369,
      "d": 75.75758333332487,
      "v": 82
    },
    {
      "midi": 77,
      "hit": false,
      "t": 208750.02087500357,
      "d": 113.63637500000186,
      "v": 111
    },
    {
      "midi": 81,
      "hit": false,
      "t": 208750.02087500357,
      "d": 113.63637500000186,
      "v": 116
    },
    {
      "midi": 53,
      "hit": false,
      "t": 208750.02087500357,
      "d": 151.51516666667885,
      "v": 122
    },
    {
      "midi": 57,
      "hit": false,
      "t": 208787.8996666669,
      "d": 416.66670833335957,
      "v": 86
    },
    {
      "midi": 72,
      "hit": false,
      "t": 208787.89966667024,
      "d": 75.75758333332487,
      "v": 86
    },
    {
      "midi": 77,
      "hit": false,
      "t": 209053.05120833692,
      "d": 151.51516666667885,
      "v": 116
    },
    {
      "midi": 53,
      "hit": false,
      "t": 209053.05120833692,
      "d": 757.5758333333652,
      "v": 127
    },
    {
      "midi": 53,
      "hit": false,
      "t": 209090.93000000025,
      "d": 1628.788041666674,
      "v": 112
    },
    {
      "midi": 72,
      "hit": false,
      "t": 209090.9300000036,
      "d": 75.75758333332487,
      "v": 86
    },
    {
      "midi": 81,
      "hit": false,
      "t": 209090.9300000036,
      "d": 75.75758333332487,
      "v": 116
    },
    {
      "midi": 77,
      "hit": false,
      "t": 209356.08154167028,
      "d": 113.63637500000186,
      "v": 102
    },
    {
      "midi": 81,
      "hit": false,
      "t": 209356.08154167028,
      "d": 113.63637500000186,
      "v": 106
    },
    {
      "midi": 57,
      "hit": false,
      "t": 209393.96033333358,
      "d": 1060.6061666666646,
      "v": 86
    },
    {
      "midi": 72,
      "hit": false,
      "t": 209393.96033333696,
      "d": 75.75758333332487,
      "v": 82
    },
    {
      "midi": 81,
      "hit": false,
      "t": 209659.1118750036,
      "d": 113.63637500000186,
      "v": 111
    },
    {
      "midi": 77,
      "hit": false,
      "t": 209659.1118750036,
      "d": 151.51516666667885,
      "v": 111
    },
    {
      "midi": 60,
      "hit": false,
      "t": 209696.9906666669,
      "d": 378.7879166666535,
      "v": 90
    },
    {
      "midi": 72,
      "hit": false,
      "t": 209696.9906666703,
      "d": 75.75758333332487,
      "v": 82
    },
    {
      "midi": 53,
      "hit": false,
      "t": 209962.14220833697,
      "d": 681.8182500000403,
      "v": 127
    },
    {
      "midi": 65,
      "hit": false,
      "t": 210000.02100000024,
      "d": 795.454625000013,
      "v": 112
    },
    {
      "midi": 72,
      "hit": false,
      "t": 210000.02100000365,
      "d": 37.87879166667699,
      "v": 82
    },
    {
      "midi": 77,
      "hit": false,
      "t": 210000.02100000365,
      "d": 75.75758333335398,
      "v": 106
    },
    {
      "midi": 81,
      "hit": false,
      "t": 210000.02100000365,
      "d": 75.75758333335398,
      "v": 106
    },
    {
      "midi": 72,
      "hit": false,
      "t": 210265.17254167033,
      "d": 113.63637500000186,
      "v": 82
    },
    {
      "midi": 77,
      "hit": false,
      "t": 210265.17254167033,
      "d": 113.63637500000186,
      "v": 102
    },
    {
      "midi": 81,
      "hit": false,
      "t": 210265.17254167033,
      "d": 113.63637500000186,
      "v": 116
    },
    {
      "midi": 60,
      "hit": false,
      "t": 210303.05133333357,
      "d": 492.42429166668444,
      "v": 90
    },
    {
      "midi": 77,
      "hit": false,
      "t": 210568.20287500366,
      "d": 113.63637500003097,
      "v": 106
    },
    {
      "midi": 81,
      "hit": false,
      "t": 210568.20287500366,
      "d": 113.63637500003097,
      "v": 116
    },
    {
      "midi": 57,
      "hit": false,
      "t": 210606.08166666693,
      "d": 303.0303333333286,
      "v": 94
    },
    {
      "midi": 72,
      "hit": false,
      "t": 210606.08166667033,
      "d": 75.75758333335398,
      "v": 86
    },
    {
      "midi": 74,
      "hit": false,
      "t": 210871.233208337,
      "d": 113.63637500000186,
      "v": 116
    },
    {
      "midi": 79,
      "hit": false,
      "t": 210871.233208337,
      "d": 113.63637500000186,
      "v": 122
    },
    {
      "midi": 55,
      "hit": false,
      "t": 210871.233208337,
      "d": 1363.6365000000224,
      "v": 127
    },
    {
      "midi": 55,
      "hit": false,
      "t": 210909.11200000026,
      "d": 1590.9092499999679,
      "v": 121
    },
    {
      "midi": 83,
      "hit": false,
      "t": 210909.1120000037,
      "d": 75.75758333332487,
      "v": 122
    },
    {
      "midi": 74,
      "hit": false,
      "t": 211174.26354167034,
      "d": 113.63637500000186,
      "v": 102
    },
    {
      "midi": 79,
      "hit": false,
      "t": 211174.26354167034,
      "d": 113.63637500000186,
      "v": 116
    },
    {
      "midi": 59,
      "hit": false,
      "t": 211212.14233333358,
      "d": 984.8485833333107,
      "v": 94
    },
    {
      "midi": 83,
      "hit": false,
      "t": 211212.14233333702,
      "d": 75.75758333332487,
      "v": 111
    },
    {
      "midi": 83,
      "hit": false,
      "t": 211477.29387500367,
      "d": 113.63637500000186,
      "v": 111
    },
    {
      "midi": 62,
      "hit": false,
      "t": 211515.1726666669,
      "d": 378.7879166666535,
      "v": 94
    },
    {
      "midi": 74,
      "hit": false,
      "t": 211515.17266667035,
      "d": 75.75758333332487,
      "v": 106
    },
    {
      "midi": 79,
      "hit": false,
      "t": 211515.17266667035,
      "d": 75.75758333332487,
      "v": 116
    },
    {
      "midi": 79,
      "hit": false,
      "t": 211780.324208337,
      "d": 113.63637500000186,
      "v": 116
    },
    {
      "midi": 83,
      "hit": false,
      "t": 211780.324208337,
      "d": 113.63637500000186,
      "v": 116
    },
    {
      "midi": 67,
      "hit": false,
      "t": 211818.20300000024,
      "d": 1553.030458333349,
      "v": 103
    },
    {
      "midi": 74,
      "hit": false,
      "t": 211818.20300000368,
      "d": 75.75758333332487,
      "v": 106
    },
    {
      "midi": 74,
      "hit": false,
      "t": 212083.35454167033,
      "d": 113.63637500003097,
      "v": 102
    },
    {
      "midi": 83,
      "hit": false,
      "t": 212083.35454167033,
      "d": 113.63637500003097,
      "v": 116
    },
    {
      "midi": 62,
      "hit": false,
      "t": 212121.23333333357,
      "d": 946.9697916666628,
      "v": 90
    },
    {
      "midi": 79,
      "hit": false,
      "t": 212121.233333337,
      "d": 37.87879166667699,
      "v": 102
    },
    {
      "midi": 79,
      "hit": false,
      "t": 212386.3848750037,
      "d": 113.63637500003097,
      "v": 122
    },
    {
      "midi": 59,
      "hit": false,
      "t": 212424.2636666669,
      "d": 378.7879166666535,
      "v": 90
    },
    {
      "midi": 83,
      "hit": false,
      "t": 212424.2636666704,
      "d": 37.87879166667699,
      "v": 122
    },
    {
      "midi": 55,
      "hit": false,
      "t": 212424.2636666704,
      "d": 75.75758333335398,
      "v": 127
    },
    {
      "midi": 74,
      "hit": false,
      "t": 212424.2636666704,
      "d": 75.75758333335398,
      "v": 116
    },
    {
      "midi": 55,
      "hit": false,
      "t": 212689.41520833707,
      "d": 795.4546250000421,
      "v": 122
    },
    {
      "midi": 55,
      "hit": false,
      "t": 212727.29400000023,
      "d": 1666.6668333334092,
      "v": 103
    },
    {
      "midi": 74,
      "hit": false,
      "t": 212727.29400000375,
      "d": 75.75758333332487,
      "v": 116
    },
    {
      "midi": 79,
      "hit": false,
      "t": 212727.29400000375,
      "d": 75.75758333332487,
      "v": 122
    },
    {
      "midi": 83,
      "hit": false,
      "t": 212727.29400000375,
      "d": 75.75758333332487,
      "v": 116
    },
    {
      "midi": 79,
      "hit": false,
      "t": 212992.4455416704,
      "d": 113.63637500003097,
      "v": 116
    },
    {
      "midi": 59,
      "hit": false,
      "t": 213030.32433333356,
      "d": 1060.6061666667229,
      "v": 82
    },
    {
      "midi": 83,
      "hit": false,
      "t": 213030.32433333708,
      "d": 37.87879166667699,
      "v": 116
    },
    {
      "midi": 74,
      "hit": false,
      "t": 213030.32433333708,
      "d": 75.75758333335398,
      "v": 111
    },
    {
      "midi": 74,
      "hit": false,
      "t": 213295.47587500376,
      "d": 75.75758333335398,
      "v": 116
    },
    {
      "midi": 79,
      "hit": false,
      "t": 213295.47587500376,
      "d": 75.75758333335398,
      "v": 122
    },
    {
      "midi": 62,
      "hit": false,
      "t": 213333.3546666669,
      "d": 416.66670833335957,
      "v": 90
    },
    {
      "midi": 83,
      "hit": false,
      "t": 213333.35466667044,
      "d": 37.87879166667699,
      "v": 116
    },
    {
      "midi": 79,
      "hit": false,
      "t": 213598.50620833712,
      "d": 113.63637500000186,
      "v": 122
    },
    {
      "midi": 55,
      "hit": false,
      "t": 213598.50620833712,
      "d": 871.212208333367,
      "v": 122
    },
    {
      "midi": 67,
      "hit": false,
      "t": 213636.38500000027,
      "d": 871.212208333367,
      "v": 112
    },
    {
      "midi": 74,
      "hit": false,
      "t": 213636.3850000038,
      "d": 75.75758333332487,
      "v": 116
    },
    {
      "midi": 83,
      "hit": false,
      "t": 213636.3850000038,
      "d": 75.75758333332487,
      "v": 122
    },
    {
      "midi": 74,
      "hit": false,
      "t": 213901.53654167044,
      "d": 113.63637500003097,
      "v": 106
    },
    {
      "midi": 79,
      "hit": false,
      "t": 213901.53654167044,
      "d": 113.63637500003097,
      "v": 122
    },
    {
      "midi": 62,
      "hit": false,
      "t": 213939.4153333336,
      "d": 568.1818750000384,
      "v": 86
    },
    {
      "midi": 83,
      "hit": false,
      "t": 213939.41533333712,
      "d": 37.87879166667699,
      "v": 111
    },
    {
      "midi": 74,
      "hit": false,
      "t": 214204.5668750038,
      "d": 113.63637500000186,
      "v": 111
    },
    {
      "midi": 79,
      "hit": false,
      "t": 214204.5668750038,
      "d": 113.63637500000186,
      "v": 122
    },
    {
      "midi": 83,
      "hit": false,
      "t": 214204.5668750038,
      "d": 113.63637500000186,
      "v": 122
    },
    {
      "midi": 59,
      "hit": false,
      "t": 214242.44566666696,
      "d": 265.1515416666807,
      "v": 103
    },
    {
      "midi": 60,
      "hit": false,
      "t": 214545.47600000032,
      "d": 1666.666833333351,
      "v": 115
    },
    {
      "midi": 76,
      "hit": false,
      "t": 214545.4760000038,
      "d": 75.75758333332487,
      "v": 127
    },
    {
      "midi": 79,
      "hit": false,
      "t": 214545.4760000038,
      "d": 75.75758333332487,
      "v": 127
    },
    {
      "midi": 84,
      "hit": false,
      "t": 214545.4760000038,
      "d": 75.75758333332487,
      "v": 111
    },
    {
      "midi": 60,
      "hit": false,
      "t": 214545.4760000038,
      "d": 1363.6365000000515,
      "v": 122
    },
    {
      "midi": 79,
      "hit": false,
      "t": 214810.62754167046,
      "d": 75.75758333332487,
      "v": 111
    },
    {
      "midi": 76,
      "hit": false,
      "t": 214810.62754167046,
      "d": 113.63637500000186,
      "v": 122
    },
    {
      "midi": 84,
      "hit": false,
      "t": 214810.62754167046,
      "d": 113.63637500000186,
      "v": 97
    },
    {
      "midi": 64,
      "hit": false,
      "t": 214848.50633333364,
      "d": 984.8485833333398,
      "v": 90
    },
    {
      "midi": 76,
      "hit": false,
      "t": 215113.6578750038,
      "d": 113.63637500000186,
      "v": 116
    },
    {
      "midi": 84,
      "hit": false,
      "t": 215113.6578750038,
      "d": 113.63637500000186,
      "v": 106
    },
    {
      "midi": 79,
      "hit": false,
      "t": 215113.6578750038,
      "d": 151.51516666667885,
      "v": 122
    },
    {
      "midi": 67,
      "hit": false,
      "t": 215151.53666666697,
      "d": 340.9091250000056,
      "v": 94
    },
    {
      "midi": 76,
      "hit": false,
      "t": 215416.68820833715,
      "d": 151.51516666667885,
      "v": 122
    },
    {
      "midi": 79,
      "hit": false,
      "t": 215416.68820833715,
      "d": 151.51516666667885,
      "v": 122
    },
    {
      "midi": 72,
      "hit": false,
      "t": 215454.5670000003,
      "d": 1628.788041666703,
      "v": 112
    },
    {
      "midi": 84,
      "hit": false,
      "t": 215454.56700000382,
      "d": 113.63637500000186,
      "v": 106
    },
    {
      "midi": 76,
      "hit": false,
      "t": 215719.7185416705,
      "d": 113.63637500000186,
      "v": 127
    },
    {
      "midi": 79,
      "hit": false,
      "t": 215719.7185416705,
      "d": 113.63637500000186,
      "v": 122
    },
    {
      "midi": 67,
      "hit": false,
      "t": 215757.59733333366,
      "d": 984.8485833333398,
      "v": 90
    },
    {
      "midi": 84,
      "hit": false,
      "t": 215757.59733333718,
      "d": 113.63637500000186,
      "v": 111
    },
    {
      "midi": 84,
      "hit": false,
      "t": 216022.74887500386,
      "d": 113.63637500000186,
      "v": 102
    },
    {
      "midi": 79,
      "hit": false,
      "t": 216022.74887500386,
      "d": 151.51516666667885,
      "v": 127
    },
    {
      "midi": 64,
      "hit": false,
      "t": 216060.627666667,
      "d": 416.66670833335957,
      "v": 90
    },
    {
      "midi": 76,
      "hit": false,
      "t": 216060.62766667054,
      "d": 75.75758333332487,
      "v": 122
    },
    {
      "midi": 60,
      "hit": false,
      "t": 216060.62766667054,
      "d": 113.63637500000186,
      "v": 111
    },
    {
      "midi": 76,
      "hit": false,
      "t": 216325.77920833722,
      "d": 151.51516666667885,
      "v": 127
    },
    {
      "midi": 79,
      "hit": false,
      "t": 216325.77920833722,
      "d": 151.51516666667885,
      "v": 127
    },
    {
      "midi": 60,
      "hit": false,
      "t": 216363.65800000035,
      "d": 1666.6668333333218,
      "v": 112
    },
    {
      "midi": 84,
      "hit": false,
      "t": 216363.6580000039,
      "d": 113.63637500000186,
      "v": 106
    },
    {
      "midi": 60,
      "hit": false,
      "t": 216363.6580000039,
      "d": 719.6970416666882,
      "v": 116
    },
    {
      "midi": 76,
      "hit": false,
      "t": 216628.80954167058,
      "d": 113.63637500000186,
      "v": 116
    },
    {
      "midi": 79,
      "hit": false,
      "t": 216628.80954167058,
      "d": 113.63637500000186,
      "v": 111
    },
    {
      "midi": 64,
      "hit": false,
      "t": 216666.68833333367,
      "d": 1060.6061666666646,
      "v": 86
    },
    {
      "midi": 84,
      "hit": false,
      "t": 216666.68833333725,
      "d": 75.75758333332487,
      "v": 106
    },
    {
      "midi": 76,
      "hit": false,
      "t": 216931.8398750039,
      "d": 151.51516666667885,
      "v": 122
    },
    {
      "midi": 79,
      "hit": false,
      "t": 216931.8398750039,
      "d": 151.51516666667885,
      "v": 122
    },
    {
      "midi": 67,
      "hit": false,
      "t": 216969.718666667,
      "d": 378.7879166666535,
      "v": 94
    },
    {
      "midi": 84,
      "hit": false,
      "t": 216969.71866667058,
      "d": 113.63637500000186,
      "v": 106
    },
    {
      "midi": 79,
      "hit": false,
      "t": 217234.87020833726,
      "d": 151.51516666667885,
      "v": 122
    },
    {
      "midi": 84,
      "hit": false,
      "t": 217234.87020833726,
      "d": 151.51516666667885,
      "v": 111
    },
    {
      "midi": 72,
      "hit": false,
      "t": 217272.74900000033,
      "d": 681.8182500000112,
      "v": 112
    },
    {
      "midi": 76,
      "hit": false,
      "t": 217272.74900000394,
      "d": 113.63637500000186,
      "v": 127
    },
    {
      "midi": 60,
      "hit": false,
      "t": 217272.74900000394,
      "d": 681.8182500000112,
      "v": 116
    },
    {
      "midi": 76,
      "hit": false,
      "t": 217537.90054167062,
      "d": 113.63637500000186,
      "v": 116
    },
    {
      "midi": 79,
      "hit": false,
      "t": 217537.90054167062,
      "d": 113.63637500000186,
      "v": 102
    },
    {
      "midi": 84,
      "hit": false,
      "t": 217537.90054167062,
      "d": 113.63637500000186,
      "v": 102
    },
    {
      "midi": 67,
      "hit": false,
      "t": 217575.77933333366,
      "d": 492.42429166668444,
      "v": 94
    },
    {
      "midi": 84,
      "hit": false,
      "t": 217840.93087500395,
      "d": 75.75758333332487,
      "v": 111
    },
    {
      "midi": 76,
      "hit": false,
      "t": 217840.93087500395,
      "d": 113.63637500000186,
      "v": 116
    },
    {
      "midi": 79,
      "hit": false,
      "t": 217840.93087500395,
      "d": 113.63637500000186,
      "v": 116
    },
    {
      "midi": 64,
      "hit": false,
      "t": 217878.80966666702,
      "d": 303.0303333333286,
      "v": 94
    },
    {
      "midi": 76,
      "hit": false,
      "t": 218143.96120833728,
      "d": 113.63637500000186,
      "v": 127
    },
    {
      "midi": 84,
      "hit": false,
      "t": 218143.96120833728,
      "d": 113.63637500000186,
      "v": 111
    },
    {
      "midi": 81,
      "hit": false,
      "t": 218143.96120833728,
      "d": 151.51516666667885,
      "v": 127
    },
    {
      "midi": 57,
      "hit": false,
      "t": 218181.84000000035,
      "d": 1704.5456249999988,
      "v": 112
    },
    {
      "midi": 57,
      "hit": false,
      "t": 218181.84000000395,
      "d": 1287.8789166666975,
      "v": 127
    },
    {
      "midi": 84,
      "hit": false,
      "t": 218446.99154167064,
      "d": 75.75758333332487,
      "v": 97
    },
    {
      "midi": 76,
      "hit": false,
      "t": 218446.99154167064,
      "d": 113.63637500000186,
      "v": 122
    },
    {
      "midi": 81,
      "hit": false,
      "t": 218446.99154167064,
      "d": 113.63637500000186,
      "v": 102
    },
    {
      "midi": 60,
      "hit": false,
      "t": 218484.87033333367,
      "d": 984.8485833333398,
      "v": 90
    },
    {
      "midi": 84,
      "hit": false,
      "t": 218750.02187500396,
      "d": 113.63637500000186,
      "v": 106
    },
    {
      "midi": 64,
      "hit": false,
      "t": 218787.900666667,
      "d": 340.9091250000056,
      "v": 94
    },
    {
      "midi": 76,
      "hit": false,
      "t": 218787.90066667064,
      "d": 75.75758333332487,
      "v": 122
    },
    {
      "midi": 81,
      "hit": false,
      "t": 218787.90066667064,
      "d": 75.75758333332487,
      "v": 106
    },
    {
      "midi": 81,
      "hit": false,
      "t": 219053.0522083373,
      "d": 113.63637500000186,
      "v": 122
    },
    {
      "midi": 84,
      "hit": false,
      "t": 219053.0522083373,
      "d": 113.63637500000186,
      "v": 111
    },
    {
      "midi": 69,
      "hit": false,
      "t": 219090.93100000033,
      "d": 1666.666833333351,
      "v": 112
    },
    {
      "midi": 76,
      "hit": false,
      "t": 219090.93100000397,
      "d": 75.75758333332487,
      "v": 127
    },
    {
      "midi": 81,
      "hit": false,
      "t": 219356.08254167062,
      "d": 113.63637500003097,
      "v": 102
    },
    {
      "midi": 64,
      "hit": false,
      "t": 219393.9613333337,
      "d": 909.0909999999858,
      "v": 90
    },
    {
      "midi": 84,
      "hit": false,
      "t": 219393.9613333373,
      "d": 37.87879166667699,
      "v": 102
    },
    {
      "midi": 76,
      "hit": false,
      "t": 219393.9613333373,
      "d": 75.75758333335398,
      "v": 116
    },
    {
      "midi": 84,
      "hit": false,
      "t": 219659.11287500398,
      "d": 113.63637500000186,
      "v": 111
    },
    {
      "midi": 57,
      "hit": false,
      "t": 219659.11287500398,
      "d": 151.51516666667885,
      "v": 127
    },
    {
      "midi": 60,
      "hit": false,
      "t": 219696.99166666702,
      "d": 530.3030833333323,
      "v": 94
    },
    {
      "midi": 76,
      "hit": false,
      "t": 219696.99166667066,
      "d": 75.75758333332487,
      "v": 122
    },
    {
      "midi": 81,
      "hit": false,
      "t": 219696.99166667066,
      "d": 75.75758333332487,
      "v": 122
    },
    {
      "midi": 81,
      "hit": false,
      "t": 219962.14320833734,
      "d": 151.51516666667885,
      "v": 122
    },
    {
      "midi": 57,
      "hit": false,
      "t": 219962.14320833734,
      "d": 757.5758333333652,
      "v": 127
    },
    {
      "midi": 57,
      "hit": false,
      "t": 220000.02200000035,
      "d": 1704.545625000028,
      "v": 115
    },
    {
      "midi": 76,
      "hit": false,
      "t": 220000.022000004,
      "d": 113.63637500000186,
      "v": 116
    },
    {
      "midi": 84,
      "hit": false,
      "t": 220000.022000004,
      "d": 113.63637500000186,
      "v": 111
    },
    {
      "midi": 81,
      "hit": false,
      "t": 220265.1735416707,
      "d": 113.63637500000186,
      "v": 116
    },
    {
      "midi": 60,
      "hit": false,
      "t": 220303.05233333368,
      "d": 1098.4849583333707,
      "v": 94
    },
    {
      "midi": 76,
      "hit": false,
      "t": 220303.05233333737,
      "d": 75.75758333332487,
      "v": 116
    },
    {
      "midi": 84,
      "hit": false,
      "t": 220303.05233333737,
      "d": 75.75758333332487,
      "v": 102
    },
    {
      "midi": 81,
      "hit": false,
      "t": 220568.20387500402,
      "d": 113.63637500000186,
      "v": 122
    },
    {
      "midi": 84,
      "hit": false,
      "t": 220568.20387500402,
      "d": 113.63637500000186,
      "v": 106
    },
    {
      "midi": 64,
      "hit": false,
      "t": 220606.082666667,
      "d": 378.7879166666826,
      "v": 90
    },
    {
      "midi": 76,
      "hit": false,
      "t": 220606.0826666707,
      "d": 75.75758333332487,
      "v": 122
    },
    {
      "midi": 84,
      "hit": false,
      "t": 220871.23420833738,
      "d": 113.63637500000186,
      "v": 106
    },
    {
      "midi": 81,
      "hit": false,
      "t": 220871.23420833738,
      "d": 151.51516666667885,
      "v": 127
    },
    {
      "midi": 57,
      "hit": false,
      "t": 220871.23420833738,
      "d": 757.5758333333943,
      "v": 127
    },
    {
      "midi": 69,
      "hit": false,
      "t": 220909.11300000036,
      "d": 454.54550000000745,
      "v": 112
    },
    {
      "midi": 76,
      "hit": false,
      "t": 220909.11300000406,
      "d": 75.75758333332487,
      "v": 122
    },
    {
      "midi": 81,
      "hit": false,
      "t": 221174.26454167074,
      "d": 151.51516666667885,
      "v": 111
    },
    {
      "midi": 64,
      "hit": false,
      "t": 221212.1433333337,
      "d": 568.1818750000093,
      "v": 86
    },
    {
      "midi": 84,
      "hit": false,
      "t": 221212.14333333742,
      "d": 75.75758333332487,
      "v": 111
    },
    {
      "midi": 76,
      "hit": false,
      "t": 221212.14333333742,
      "d": 113.63637500000186,
      "v": 122
    },
    {
      "midi": 84,
      "hit": false,
      "t": 221477.2948750041,
      "d": 113.63637500000186,
      "v": 111
    },
    {
      "midi": 81,
      "hit": false,
      "t": 221477.2948750041,
      "d": 151.51516666667885,
      "v": 116
    },
    {
      "midi": 60,
      "hit": false,
      "t": 221515.17366666705,
      "d": 303.0303333333286,
      "v": 103
    },
    {
      "midi": 76,
      "hit": false,
      "t": 221515.17366667077,
      "d": 75.75758333332487,
      "v": 122
    },
    {
      "midi": 77,
      "hit": false,
      "t": 221780.32520833745,
      "d": 151.51516666667885,
      "v": 116
    },
    {
      "midi": 81,
      "hit": false,
      "t": 221780.32520833745,
      "d": 151.51516666667885,
      "v": 122
    },
    {
      "midi": 53,
      "hit": false,
      "t": 221780.32520833745,
      "d": 1325.7577083334327,
      "v": 116
    },
    {
      "midi": 53,
      "hit": false,
      "t": 221818.20400000038,
      "d": 1628.788041666674,
      "v": 121
    },
    {
      "midi": 84,
      "hit": false,
      "t": 221818.20400000413,
      "d": 75.75758333332487,
      "v": 111
    },
    {
      "midi": 77,
      "hit": false,
      "t": 222083.3555416708,
      "d": 113.63637500000186,
      "v": 106
    },
    {
      "midi": 84,
      "hit": false,
      "t": 222083.3555416708,
      "d": 113.63637500000186,
      "v": 97
    },
    {
      "midi": 81,
      "hit": false,
      "t": 222083.3555416708,
      "d": 151.51516666667885,
      "v": 111
    },
    {
      "midi": 57,
      "hit": false,
      "t": 222121.2343333337,
      "d": 1060.6061666666646,
      "v": 90
    },
    {
      "midi": 77,
      "hit": false,
      "t": 222386.38587500417,
      "d": 113.63637500000186,
      "v": 116
    },
    {
      "midi": 81,
      "hit": false,
      "t": 222386.38587500417,
      "d": 113.63637500000186,
      "v": 122
    },
    {
      "midi": 84,
      "hit": false,
      "t": 222386.38587500417,
      "d": 151.51516666667885,
      "v": 111
    },
    {
      "midi": 60,
      "hit": false,
      "t": 222424.26466666703,
      "d": 378.7879166666535,
      "v": 103
    },
    {
      "midi": 81,
      "hit": false,
      "t": 222689.41620833753,
      "d": 151.51516666667885,
      "v": 127
    },
    {
      "midi": 84,
      "hit": false,
      "t": 222689.41620833753,
      "d": 151.51516666667885,
      "v": 106
    },
    {
      "midi": 65,
      "hit": false,
      "t": 222727.29500000036,
      "d": 1553.030458333349,
      "v": 121
    },
    {
      "midi": 77,
      "hit": false,
      "t": 222727.2950000042,
      "d": 113.63637500000186,
      "v": 111
    },
    {
      "midi": 77,
      "hit": false,
      "t": 222992.44654167088,
      "d": 113.63637500000186,
      "v": 111
    },
    {
      "midi": 81,
      "hit": false,
      "t": 222992.44654167088,
      "d": 113.63637500000186,
      "v": 122
    },
    {
      "midi": 84,
      "hit": false,
      "t": 222992.44654167088,
      "d": 113.63637500000186,
      "v": 106
    },
    {
      "midi": 60,
      "hit": false,
      "t": 223030.3253333337,
      "d": 984.8485833333398,
      "v": 94
    },
    {
      "midi": 81,
      "hit": false,
      "t": 223295.4768750042,
      "d": 113.63637500000186,
      "v": 122
    },
    {
      "midi": 84,
      "hit": false,
      "t": 223295.4768750042,
      "d": 113.63637500000186,
      "v": 111
    },
    {
      "midi": 53,
      "hit": false,
      "t": 223295.4768750042,
      "d": 151.51516666667885,
      "v": 111
    },
    {
      "midi": 57,
      "hit": false,
      "t": 223333.35566666705,
      "d": 416.66670833333046,
      "v": 94
    },
    {
      "midi": 77,
      "hit": false,
      "t": 223333.3556666709,
      "d": 75.75758333332487,
      "v": 116
    },
    {
      "midi": 81,
      "hit": false,
      "t": 223598.50720833757,
      "d": 151.51516666667885,
      "v": 127
    },
    {
      "midi": 84,
      "hit": false,
      "t": 223598.50720833757,
      "d": 151.51516666667885,
      "v": 106
    },
    {
      "midi": 53,
      "hit": false,
      "t": 223598.50720833757,
      "d": 795.4546250000421,
      "v": 122
    },
    {
      "midi": 53,
      "hit": false,
      "t": 223636.38600000038,
      "d": 1590.9092500000552,
      "v": 112
    },
    {
      "midi": 77,
      "hit": false,
      "t": 223636.38600000425,
      "d": 113.63637500000186,
      "v": 111
    },
    {
      "midi": 84,
      "hit": false,
      "t": 223901.53754167093,
      "d": 75.75758333335398,
      "v": 106
    },
    {
      "midi": 81,
      "hit": false,
      "t": 223901.53754167093,
      "d": 113.63637500003097,
      "v": 122
    },
    {
      "midi": 57,
      "hit": false,
      "t": 223939.4163333337,
      "d": 1060.6061666667229,
      "v": 82
    },
    {
      "midi": 77,
      "hit": false,
      "t": 223939.4163333376,
      "d": 75.75758333335398,
      "v": 111
    },
    {
      "midi": 81,
      "hit": false,
      "t": 224204.5678750043,
      "d": 113.63637500000186,
      "v": 122
    },
    {
      "midi": 60,
      "hit": false,
      "t": 224242.44666666703,
      "d": 340.9091250000347,
      "v": 94
    },
    {
      "midi": 77,
      "hit": false,
      "t": 224242.44666667096,
      "d": 75.75758333332487,
      "v": 106
    },
    {
      "midi": 84,
      "hit": false,
      "t": 224242.44666667096,
      "d": 75.75758333332487,
      "v": 106
    },
    {
      "midi": 81,
      "hit": false,
      "t": 224507.59820833761,
      "d": 113.63637500000186,
      "v": 127
    },
    {
      "midi": 53,
      "hit": false,
      "t": 224507.59820833761,
      "d": 757.5758333333652,
      "v": 116
    },
    {
      "midi": 65,
      "hit": false,
      "t": 224545.4770000004,
      "d": 984.848583333398,
      "v": 121
    },
    {
      "midi": 77,
      "hit": false,
      "t": 224545.4770000043,
      "d": 75.75758333332487,
      "v": 111
    },
    {
      "midi": 84,
      "hit": false,
      "t": 224545.4770000043,
      "d": 113.63637500000186,
      "v": 111
    },
    {
      "midi": 81,
      "hit": false,
      "t": 224810.62854167097,
      "d": 113.63637500000186,
      "v": 116
    },
    {
      "midi": 84,
      "hit": false,
      "t": 224810.62854167097,
      "d": 113.63637500000186,
      "v": 111
    },
    {
      "midi": 60,
      "hit": false,
      "t": 224848.50733333375,
      "d": 643.9394583333633,
      "v": 94
    },
    {
      "midi": 77,
      "hit": false,
      "t": 224848.50733333765,
      "d": 75.75758333332487,
      "v": 111
    },
    {
      "midi": 81,
      "hit": false,
      "t": 225113.6588750043,
      "d": 113.63637500000186,
      "v": 102
    },
    {
      "midi": 57,
      "hit": false,
      "t": 225151.5376666671,
      "d": 378.7879166666826,
      "v": 103
    },
    {
      "midi": 77,
      "hit": false,
      "t": 225151.53766667098,
      "d": 75.75758333332487,
      "v": 102
    },
    {
      "midi": 84,
      "hit": false,
      "t": 225151.53766667098,
      "d": 75.75758333332487,
      "v": 106
    },
    {
      "midi": 53,
      "hit": false,
      "t": 225416.68920833766,
      "d": 1628.788041666674,
      "v": 116
    },
    {
      "midi": 53,
      "hit": false,
      "t": 225454.56800000044,
      "d": 1590.909250000026,
      "v": 115
    },
    {
      "midi": 77,
      "hit": false,
      "t": 225454.56800000434,
      "d": 75.75758333332487,
      "v": 116
    },
    {
      "midi": 80,
      "hit": false,
      "t": 225454.56800000434,
      "d": 113.63637500000186,
      "v": 111
    },
    {
      "midi": 84,
      "hit": false,
      "t": 225454.56800000434,
      "d": 113.63637500000186,
      "v": 111
    },
    {
      "midi": 80,
      "hit": false,
      "t": 225719.71954167102,
      "d": 113.63637500000186,
      "v": 97
    },
    {
      "midi": 84,
      "hit": false,
      "t": 225719.71954167102,
      "d": 113.63637500000186,
      "v": 93
    },
    {
      "midi": 56,
      "hit": false,
      "t": 225757.5983333338,
      "d": 984.8485833333398,
      "v": 94
    },
    {
      "midi": 77,
      "hit": false,
      "t": 225757.5983333377,
      "d": 75.75758333332487,
      "v": 89
    },
    {
      "midi": 80,
      "hit": false,
      "t": 226022.74987500435,
      "d": 113.63637500000186,
      "v": 111
    },
    {
      "midi": 84,
      "hit": false,
      "t": 226022.74987500435,
      "d": 113.63637500000186,
      "v": 106
    },
    {
      "midi": 60,
      "hit": false,
      "t": 226060.62866666712,
      "d": 340.9091250000056,
      "v": 103
    },
    {
      "midi": 77,
      "hit": false,
      "t": 226060.62866667102,
      "d": 75.75758333332487,
      "v": 102
    },
    {
      "midi": 77,
      "hit": false,
      "t": 226325.78020833767,
      "d": 113.63637500000186,
      "v": 106
    },
    {
      "midi": 80,
      "hit": false,
      "t": 226325.78020833767,
      "d": 113.63637500000186,
      "v": 111
    },
    {
      "midi": 84,
      "hit": false,
      "t": 226325.78020833767,
      "d": 113.63637500000186,
      "v": 111
    },
    {
      "midi": 65,
      "hit": false,
      "t": 226363.65900000045,
      "d": 984.8485833333689,
      "v": 121
    },
    {
      "midi": 84,
      "hit": false,
      "t": 226628.810541671,
      "d": 75.75758333332487,
      "v": 102
    },
    {
      "midi": 77,
      "hit": false,
      "t": 226628.810541671,
      "d": 113.63637500000186,
      "v": 106
    },
    {
      "midi": 80,
      "hit": false,
      "t": 226628.810541671,
      "d": 113.63637500000186,
      "v": 106
    },
    {
      "midi": 60,
      "hit": false,
      "t": 226666.6893333338,
      "d": 757.575833333336,
      "v": 94
    },
    {
      "midi": 84,
      "hit": false,
      "t": 226931.84087500433,
      "d": 75.75758333332487,
      "v": 102
    },
    {
      "midi": 77,
      "hit": false,
      "t": 226931.84087500433,
      "d": 113.63637500000186,
      "v": 93
    },
    {
      "midi": 80,
      "hit": false,
      "t": 226931.84087500433,
      "d": 113.63637500000186,
      "v": 111
    },
    {
      "midi": 56,
      "hit": false,
      "t": 226969.71966666714,
      "d": 340.9091250000056,
      "v": 103
    },
    {
      "midi": 80,
      "hit": false,
      "t": 227234.87120833766,
      "d": 151.51516666667885,
      "v": 116
    },
    {
      "midi": 84,
      "hit": false,
      "t": 227234.87120833766,
      "d": 151.51516666667885,
      "v": 116
    },
    {
      "midi": 53,
      "hit": false,
      "t": 227234.87120833766,
      "d": 227.27275000000373,
      "v": 122
    },
    {
      "midi": 53,
      "hit": false,
      "t": 227272.75000000047,
      "d": 1590.9092500000552,
      "v": 112
    },
    {
      "midi": 77,
      "hit": false,
      "t": 227272.75000000434,
      "d": 113.63637500000186,
      "v": 111
    },
    {
      "midi": 53,
      "hit": false,
      "t": 227537.901541671,
      "d": 151.51516666667885,
      "v": 106
    },
    {
      "midi": 80,
      "hit": false,
      "t": 227537.901541671,
      "d": 151.51516666667885,
      "v": 102
    },
    {
      "midi": 84,
      "hit": false,
      "t": 227537.901541671,
      "d": 151.51516666667885,
      "v": 102
    },
    {
      "midi": 56,
      "hit": false,
      "t": 227575.78033333382,
      "d": 871.2122083333379,
      "v": 94
    },
    {
      "midi": 77,
      "hit": false,
      "t": 227575.78033333767,
      "d": 75.75758333332487,
      "v": 106
    },
    {
      "midi": 80,
      "hit": false,
      "t": 227840.93187500435,
      "d": 151.51516666667885,
      "v": 111
    },
    {
      "midi": 53,
      "hit": false,
      "t": 227840.93187500435,
      "d": 189.39395833335584,
      "v": 127
    },
    {
      "midi": 60,
      "hit": false,
      "t": 227878.81066666715,
      "d": 303.0303333333286,
      "v": 103
    },
    {
      "midi": 77,
      "hit": false,
      "t": 227878.81066667102,
      "d": 75.75758333332487,
      "v": 106
    },
    {
      "midi": 84,
      "hit": false,
      "t": 227878.81066667102,
      "d": 113.63637500000186,
      "v": 106
    },
    {
      "midi": 80,
      "hit": false,
      "t": 228143.9622083377,
      "d": 189.39395833335584,
      "v": 116
    },
    {
      "midi": 86,
      "hit": false,
      "t": 228143.9622083377,
      "d": 189.39395833335584,
      "v": 127
    },
    {
      "midi": 53,
      "hit": false,
      "t": 228143.9622083377,
      "d": 227.27275000003283,
      "v": 122
    },
    {
      "midi": 62,
      "hit": false,
      "t": 228181.84100000048,
      "d": 378.7879166666826,
      "v": 112
    },
    {
      "midi": 77,
      "hit": false,
      "t": 228181.84100000438,
      "d": 151.51516666667885,
      "v": 102
    },
    {
      "midi": 53,
      "hit": false,
      "t": 228446.99254167106,
      "d": 189.39395833335584,
      "v": 116
    },
    {
      "midi": 80,
      "hit": false,
      "t": 228446.99254167106,
      "d": 189.39395833335584,
      "v": 111
    },
    {
      "midi": 60,
      "hit": false,
      "t": 228484.87133333384,
      "d": 340.9091250000056,
      "v": 94
    },
    {
      "midi": 77,
      "hit": false,
      "t": 228484.87133333774,
      "d": 113.63637500000186,
      "v": 106
    },
    {
      "midi": 84,
      "hit": false,
      "t": 228484.87133333774,
      "d": 151.51516666667885,
      "v": 111
    },
    {
      "midi": 53,
      "hit": false,
      "t": 228750.02287500442,
      "d": 151.51516666667885,
      "v": 122
    },
    {
      "midi": 77,
      "hit": false,
      "t": 228750.02287500442,
      "d": 151.51516666667885,
      "v": 106
    },
    {
      "midi": 80,
      "hit": false,
      "t": 228750.02287500442,
      "d": 151.51516666667885,
      "v": 111
    },
    {
      "midi": 62,
      "hit": false,
      "t": 228787.90166666717,
      "d": 265.1515416666807,
      "v": 103
    },
    {
      "midi": 86,
      "hit": false,
      "t": 228787.9016666711,
      "d": 151.51516666667885,
      "v": 122
    },
    {
      "midi": 48,
      "hit": false,
      "t": 229053.05320833778,
      "d": 3636.3640000000014,
      "v": 111
    },
    {
      "midi": 88,
      "hit": false,
      "t": 229053.05320833778,
      "d": 3636.3640000000014,
      "v": 127
    },
    {
      "midi": 55,
      "hit": false,
      "t": 229090.93200000052,
      "d": 3598.4852083333244,
      "v": 121
    },
    {
      "midi": 60,
      "hit": false,
      "t": 229090.93200000052,
      "d": 3598.4852083333244,
      "v": 103
    },
    {
      "midi": 64,
      "hit": false,
      "t": 229090.93200000052,
      "d": 3598.4852083333244,
      "v": 112
    },
    {
      "midi": 60,
      "hit": false,
      "t": 229090.93200000445,
      "d": 3598.4852083333244,
      "v": 111
    },
    {
      "midi": 79,
      "hit": false,
      "t": 229090.93200000445,
      "d": 3598.4852083333244,
      "v": 116
    },
    {
      "midi": 84,
      "hit": false,
      "t": 229090.93200000445,
      "d": 3598.4852083333244,
      "v": 93
    }
  ]
}