{
  "jsonPath": "Soul/New Jack Swing/Full Force/all-i-have-to-give.json",
  "path": "Soul\\New Jack Swing\\Full Force\\All I Have to Give.mid",
  "name": "All I Have to Give",
  "difficulty": "Advanced",
  "bpm": 100,
  "notes": [
    {
      "midi": 75,
      "hit": false,
      "t": 1500,
      "d": 300,
      "v": 72
    },
    {
      "midi": 74,
      "hit": false,
      "t": 1800,
      "d": 300,
      "v": 73
    },
    {
      "midi": 75,
      "hit": false,
      "t": 2100,
      "d": 300,
      "v": 77
    },
    {
      "midi": 75,
      "hit": false,
      "t": 2400,
      "d": 1200,
      "v": 78
    },
    {
      "midi": 56,
      "hit": false,
      "t": 2400,
      "d": 600,
      "v": 66
    },
    {
      "midi": 60,
      "hit": false,
      "t": 2400,
      "d": 600,
      "v": 66
    },
    {
      "midi": 56,
      "hit": false,
      "t": 3600,
      "d": 600,
      "v": 66
    },
    {
      "midi": 60,
      "hit": false,
      "t": 3600,
      "d": 600,
      "v": 66
    },
    {
      "midi": 70,
      "hit": false,
      "t": 3900,
      "d": 300,
      "v": 67
    },
    {
      "midi": 72,
      "hit": false,
      "t": 4200,
      "d": 300,
      "v": 80
    },
    {
      "midi": 74,
      "hit": false,
      "t": 4500,
      "d": 600,
      "v": 83
    },
    {
      "midi": 48,
      "hit": false,
      "t": 4800,
      "d": 1800,
      "v": 75
    },
    {
      "midi": 51,
      "hit": false,
      "t": 4800,
      "d": 1800,
      "v": 75
    },
    {
      "midi": 55,
      "hit": false,
      "t": 4800,
      "d": 1800,
      "v": 75
    },
    {
      "midi": 74,
      "hit": false,
      "t": 5100,
      "d": 300,
      "v": 71
    },
    {
      "midi": 75,
      "hit": false,
      "t": 5400,
      "d": 300,
      "v": 78
    },
    {
      "midi": 74,
      "hit": false,
      "t": 5700,
      "d": 300,
      "v": 73
    },
    {
      "midi": 74,
      "hit": false,
      "t": 6000,
      "d": 900,
      "v": 72
    },
    {
      "midi": 51,
      "hit": false,
      "t": 6600,
      "d": 300,
      "v": 71
    },
    {
      "midi": 70,
      "hit": false,
      "t": 6900,
      "d": 300,
      "v": 66
    },
    {
      "midi": 55,
      "hit": false,
      "t": 6900,
      "d": 300,
      "v": 100
    },
    {
      "midi": 75,
      "hit": false,
      "t": 7200,
      "d": 300,
      "v": 87
    },
    {
      "midi": 56,
      "hit": false,
      "t": 7200,
      "d": 1200,
      "v": 82
    },
    {
      "midi": 75,
      "hit": false,
      "t": 7500,
      "d": 300,
      "v": 79
    },
    {
      "midi": 74,
      "hit": false,
      "t": 7800,
      "d": 300,
      "v": 74
    },
    {
      "midi": 72,
      "hit": false,
      "t": 8100,
      "d": 300,
      "v": 73
    },
    {
      "midi": 74,
      "hit": false,
      "t": 8400,
      "d": 300,
      "v": 78
    },
    {
      "midi": 58,
      "hit": false,
      "t": 8400,
      "d": 1200,
      "v": 81
    },
    {
      "midi": 72,
      "hit": false,
      "t": 8700,
      "d": 600,
      "v": 68
    },
    {
      "midi": 70,
      "hit": false,
      "t": 9300,
      "d": 300,
      "v": 71
    },
    {
      "midi": 70,
      "hit": false,
      "t": 9600,
      "d": 300,
      "v": 73
    },
    {
      "midi": 55,
      "hit": false,
      "t": 9600,
      "d": 600,
      "v": 75
    },
    {
      "midi": 58,
      "hit": false,
      "t": 9600,
      "d": 600,
      "v": 75
    },
    {
      "midi": 72,
      "hit": false,
      "t": 9900,
      "d": 300,
      "v": 85
    },
    {
      "midi": 56,
      "hit": false,
      "t": 10200,
      "d": 600,
      "v": 100
    },
    {
      "midi": 53,
      "hit": false,
      "t": 10800,
      "d": 600,
      "v": 100
    },
    {
      "midi": 75,
      "hit": false,
      "t": 11100,
      "d": 300,
      "v": 71
    },
    {
      "midi": 74,
      "hit": false,
      "t": 11400,
      "d": 300,
      "v": 67
    },
    {
      "midi": 75,
      "hit": false,
      "t": 11700,
      "d": 1200,
      "v": 80
    },
    {
      "midi": 51,
      "hit": false,
      "t": 12300,
      "d": 300,
      "v": 69
    },
    {
      "midi": 60,
      "hit": false,
      "t": 12600,
      "d": 600,
      "v": 91
    },
    {
      "midi": 70,
      "hit": false,
      "t": 12900,
      "d": 300,
      "v": 64
    },
    {
      "midi": 70,
      "hit": false,
      "t": 13200,
      "d": 300,
      "v": 72
    },
    {
      "midi": 62,
      "hit": false,
      "t": 13200,
      "d": 600,
      "v": 83
    },
    {
      "midi": 72,
      "hit": false,
      "t": 13500,
      "d": 300,
      "v": 82
    },
    {
      "midi": 75,
      "hit": false,
      "t": 13800,
      "d": 300,
      "v": 86
    },
    {
      "midi": 60,
      "hit": false,
      "t": 13800,
      "d": 600,
      "v": 74
    },
    {
      "midi": 77,
      "hit": false,
      "t": 14100,
      "d": 600,
      "v": 80
    },
    {
      "midi": 50,
      "hit": false,
      "t": 14400,
      "d": 1200,
      "v": 73
    },
    {
      "midi": 58,
      "hit": false,
      "t": 14400,
      "d": 1200,
      "v": 73
    },
    {
      "midi": 79,
      "hit": false,
      "t": 14700,
      "d": 300,
      "v": 81
    },
    {
      "midi": 75,
      "hit": false,
      "t": 15300,
      "d": 300,
      "v": 69
    },
    {
      "midi": 75,
      "hit": false,
      "t": 15600,
      "d": 300,
      "v": 76
    },
    {
      "midi": 55,
      "hit": false,
      "t": 15600,
      "d": 600,
      "v": 77
    },
    {
      "midi": 77,
      "hit": false,
      "t": 15900,
      "d": 300,
      "v": 80
    },
    {
      "midi": 79,
      "hit": false,
      "t": 16200,
      "d": 300,
      "v": 78
    },
    {
      "midi": 51,
      "hit": false,
      "t": 16200,
      "d": 600,
      "v": 73
    },
    {
      "midi": 75,
      "hit": false,
      "t": 16500,
      "d": 300,
      "v": 69
    },
    {
      "midi": 80,
      "hit": false,
      "t": 16800,
      "d": 600,
      "v": 86
    },
    {
      "midi": 49,
      "hit": false,
      "t": 16800,
      "d": 1200,
      "v": 69
    },
    {
      "midi": 53,
      "hit": false,
      "t": 16800,
      "d": 1200,
      "v": 83
    },
    {
      "midi": 56,
      "hit": false,
      "t": 16800,
      "d": 1200,
      "v": 83
    },
    {
      "midi": 79,
      "hit": false,
      "t": 17400,
      "d": 300,
      "v": 73
    },
    {
      "midi": 77,
      "hit": false,
      "t": 17700,
      "d": 600,
      "v": 71
    },
    {
      "midi": 75,
      "hit": false,
      "t": 18300,
      "d": 300,
      "v": 73
    },
    {
      "midi": 79,
      "hit": false,
      "t": 18600,
      "d": 1800,
      "v": 81
    },
    {
      "midi": 48,
      "hit": false,
      "t": 19200,
      "d": 900,
      "v": 72
    },
    {
      "midi": 51,
      "hit": false,
      "t": 19200,
      "d": 900,
      "v": 72
    },
    {
      "midi": 55,
      "hit": false,
      "t": 19200,
      "d": 900,
      "v": 72
    },
    {
      "midi": 48,
      "hit": false,
      "t": 20100,
      "d": 300,
      "v": 70
    },
    {
      "midi": 48,
      "hit": false,
      "t": 20400,
      "d": 1200,
      "v": 74
    },
    {
      "midi": 75,
      "hit": false,
      "t": 20700,
      "d": 300,
      "v": 73
    },
    {
      "midi": 74,
      "hit": false,
      "t": 21000,
      "d": 300,
      "v": 70
    },
    {
      "midi": 75,
      "hit": false,
      "t": 21300,
      "d": 1200,
      "v": 78
    },
    {
      "midi": 56,
      "hit": false,
      "t": 21600,
      "d": 1200,
      "v": 97
    },
    {
      "midi": 60,
      "hit": false,
      "t": 21600,
      "d": 1200,
      "v": 97
    },
    {
      "midi": 51,
      "hit": false,
      "t": 22800,
      "d": 600,
      "v": 80
    },
    {
      "midi": 70,
      "hit": false,
      "t": 23100,
      "d": 300,
      "v": 69
    },
    {
      "midi": 72,
      "hit": false,
      "t": 23400,
      "d": 300,
      "v": 76
    },
    {
      "midi": 56,
      "hit": false,
      "t": 23400,
      "d": 600,
      "v": 73
    },
    {
      "midi": 74,
      "hit": false,
      "t": 23700,
      "d": 600,
      "v": 83
    },
    {
      "midi": 48,
      "hit": false,
      "t": 24000,
      "d": 1800,
      "v": 73
    },
    {
      "midi": 51,
      "hit": false,
      "t": 24000,
      "d": 1800,
      "v": 73
    },
    {
      "midi": 55,
      "hit": false,
      "t": 24000,
      "d": 1800,
      "v": 73
    },
    {
      "midi": 75,
      "hit": false,
      "t": 24300,
      "d": 300,
      "v": 82
    },
    {
      "midi": 74,
      "hit": false,
      "t": 24600,
      "d": 300,
      "v": 75
    },
    {
      "midi": 72,
      "hit": false,
      "t": 24900,
      "d": 900,
      "v": 69
    },
    {
      "midi": 70,
      "hit": false,
      "t": 25800,
      "d": 300,
      "v": 74
    },
    {
      "midi": 51,
      "hit": false,
      "t": 25800,
      "d": 300,
      "v": 75
    },
    {
      "midi": 72,
      "hit": false,
      "t": 26100,
      "d": 300,
      "v": 85
    },
    {
      "midi": 51,
      "hit": false,
      "t": 26100,
      "d": 300,
      "v": 100
    },
    {
      "midi": 75,
      "hit": false,
      "t": 26400,
      "d": 600,
      "v": 80
    },
    {
      "midi": 56,
      "hit": false,
      "t": 26400,
      "d": 1200,
      "v": 91
    },
    {
      "midi": 60,
      "hit": false,
      "t": 26400,
      "d": 1200,
      "v": 91
    },
    {
      "midi": 63,
      "hit": false,
      "t": 26400,
      "d": 1200,
      "v": 100
    },
    {
      "midi": 74,
      "hit": false,
      "t": 27000,
      "d": 600,
      "v": 74
    },
    {
      "midi": 72,
      "hit": false,
      "t": 27600,
      "d": 300,
      "v": 72
    },
    {
      "midi": 58,
      "hit": false,
      "t": 27600,
      "d": 600,
      "v": 75
    },
    {
      "midi": 62,
      "hit": false,
      "t": 27600,
      "d": 600,
      "v": 100
    },
    {
      "midi": 70,
      "hit": false,
      "t": 27900,
      "d": 600,
      "v": 74
    },
    {
      "midi": 70,
      "hit": false,
      "t": 28500,
      "d": 600,
      "v": 78
    },
    {
      "midi": 55,
      "hit": false,
      "t": 28800,
      "d": 1200,
      "v": 77
    },
    {
      "midi": 62,
      "hit": false,
      "t": 28800,
      "d": 1200,
      "v": 77
    },
    {
      "midi": 68,
      "hit": false,
      "t": 29100,
      "d": 150,
      "v": 72
    },
    {
      "midi": 67,
      "hit": false,
      "t": 29250,
      "d": 150,
      "v": 73
    },
    {
      "midi": 65,
      "hit": false,
      "t": 29400,
      "d": 600,
      "v": 75
    },
    {
      "midi": 58,
      "hit": false,
      "t": 30000,
      "d": 300,
      "v": 72
    },
    {
      "midi": 70,
      "hit": false,
      "t": 30300,
      "d": 300,
      "v": 69
    },
    {
      "midi": 56,
      "hit": false,
      "t": 30300,
      "d": 150,
      "v": 100
    },
    {
      "midi": 55,
      "hit": false,
      "t": 30450,
      "d": 150,
      "v": 100
    },
    {
      "midi": 72,
      "hit": false,
      "t": 30600,
      "d": 300,
      "v": 82
    },
    {
      "midi": 53,
      "hit": false,
      "t": 30600,
      "d": 600,
      "v": 100
    },
    {
      "midi": 70,
      "hit": false,
      "t": 30900,
      "d": 600,
      "v": 70
    },
    {
      "midi": 72,
      "hit": false,
      "t": 31500,
      "d": 300,
      "v": 79
    },
    {
      "midi": 51,
      "hit": false,
      "t": 31500,
      "d": 300,
      "v": 70
    },
    {
      "midi": 60,
      "hit": false,
      "t": 31800,
      "d": 600,
      "v": 92
    },
    {
      "midi": 70,
      "hit": false,
      "t": 32100,
      "d": 300,
      "v": 77
    },
    {
      "midi": 70,
      "hit": false,
      "t": 32400,
      "d": 300,
      "v": 76
    },
    {
      "midi": 62,
      "hit": false,
      "t": 32400,
      "d": 600,
      "v": 85
    },
    {
      "midi": 72,
      "hit": false,
      "t": 32700,
      "d": 300,
      "v": 81
    },
    {
      "midi": 75,
      "hit": false,
      "t": 33000,
      "d": 300,
      "v": 86
    },
    {
      "midi": 53,
      "hit": false,
      "t": 33000,
      "d": 600,
      "v": 72
    },
    {
      "midi": 77,
      "hit": false,
      "t": 33300,
      "d": 450,
      "v": 81
    },
    {
      "midi": 49,
      "hit": false,
      "t": 33600,
      "d": 1200,
      "v": 78
    },
    {
      "midi": 53,
      "hit": false,
      "t": 33600,
      "d": 1200,
      "v": 78
    },
    {
      "midi": 56,
      "hit": false,
      "t": 33600,
      "d": 1200,
      "v": 78
    },
    {
      "midi": 75,
      "hit": false,
      "t": 33750,
      "d": 150,
      "v": 69
    },
    {
      "midi": 73,
      "hit": false,
      "t": 33900,
      "d": 300,
      "v": 72
    },
    {
      "midi": 70,
      "hit": false,
      "t": 34500,
      "d": 300,
      "v": 68
    },
    {
      "midi": 75,
      "hit": false,
      "t": 34800,
      "d": 300,
      "v": 87
    },
    {
      "midi": 48,
      "hit": false,
      "t": 34800,
      "d": 900,
      "v": 67
    },
    {
      "midi": 77,
      "hit": false,
      "t": 35100,
      "d": 300,
      "v": 79
    },
    {
      "midi": 79,
      "hit": false,
      "t": 35400,
      "d": 300,
      "v": 84
    },
    {
      "midi": 75,
      "hit": false,
      "t": 35700,
      "d": 300,
      "v": 67
    },
    {
      "midi": 55,
      "hit": false,
      "t": 35700,
      "d": 300,
      "v": 80
    },
    {
      "midi": 80,
      "hit": false,
      "t": 36000,
      "d": 600,
      "v": 83
    },
    {
      "midi": 60,
      "hit": false,
      "t": 36000,
      "d": 600,
      "v": 86
    },
    {
      "midi": 79,
      "hit": false,
      "t": 36600,
      "d": 300,
      "v": 71
    },
    {
      "midi": 60,
      "hit": false,
      "t": 36600,
      "d": 600,
      "v": 69
    },
    {
      "midi": 77,
      "hit": false,
      "t": 36900,
      "d": 600,
      "v": 71
    },
    {
      "midi": 58,
      "hit": false,
      "t": 37200,
      "d": 600,
      "v": 72
    },
    {
      "midi": 75,
      "hit": false,
      "t": 37500,
      "d": 300,
      "v": 72
    },
    {
      "midi": 79,
      "hit": false,
      "t": 37800,
      "d": 1200,
      "v": 81
    },
    {
      "midi": 55,
      "hit": false,
      "t": 37800,
      "d": 600,
      "v": 71
    },
    {
      "midi": 48,
      "hit": false,
      "t": 38400,
      "d": 600,
      "v": 77
    },
    {
      "midi": 51,
      "hit": false,
      "t": 38400,
      "d": 600,
      "v": 77
    },
    {
      "midi": 55,
      "hit": false,
      "t": 38400,
      "d": 600,
      "v": 77
    },
    {
      "midi": 48,
      "hit": false,
      "t": 39000,
      "d": 600,
      "v": 71
    },
    {
      "midi": 79,
      "hit": false,
      "t": 39300,
      "d": 300,
      "v": 77
    },
    {
      "midi": 77,
      "hit": false,
      "t": 39600,
      "d": 300,
      "v": 73
    },
    {
      "midi": 75,
      "hit": false,
      "t": 39900,
      "d": 300,
      "v": 74
    },
    {
      "midi": 74,
      "hit": false,
      "t": 40200,
      "d": 300,
      "v": 68
    },
    {
      "midi": 48,
      "hit": false,
      "t": 40200,
      "d": 300,
      "v": 71
    },
    {
      "midi": 72,
      "hit": false,
      "t": 40500,
      "d": 300,
      "v": 72
    },
    {
      "midi": 48,
      "hit": false,
      "t": 40500,
      "d": 300,
      "v": 100
    },
    {
      "midi": 72,
      "hit": false,
      "t": 40800,
      "d": 600,
      "v": 78
    },
    {
      "midi": 56,
      "hit": false,
      "t": 40800,
      "d": 1200,
      "v": 97
    },
    {
      "midi": 60,
      "hit": false,
      "t": 40800,
      "d": 1200,
      "v": 97
    },
    {
      "midi": 75,
      "hit": false,
      "t": 41400,
      "d": 300,
      "v": 82
    },
    {
      "midi": 74,
      "hit": false,
      "t": 41700,
      "d": 900,
      "v": 76
    },
    {
      "midi": 58,
      "hit": false,
      "t": 42000,
      "d": 1200,
      "v": 76
    },
    {
      "midi": 62,
      "hit": false,
      "t": 42000,
      "d": 1200,
      "v": 100
    },
    {
      "midi": 75,
      "hit": false,
      "t": 42600,
      "d": 300,
      "v": 80
    },
    {
      "midi": 75,
      "hit": false,
      "t": 42900,
      "d": 300,
      "v": 77
    },
    {
      "midi": 75,
      "hit": false,
      "t": 43200,
      "d": 900,
      "v": 72
    },
    {
      "midi": 48,
      "hit": false,
      "t": 43200,
      "d": 600,
      "v": 83
    },
    {
      "midi": 55,
      "hit": false,
      "t": 43800,
      "d": 600,
      "v": 73
    },
    {
      "midi": 79,
      "hit": false,
      "t": 44100,
      "d": 300,
      "v": 85
    },
    {
      "midi": 77,
      "hit": false,
      "t": 44400,
      "d": 300,
      "v": 70
    },
    {
      "midi": 63,
      "hit": false,
      "t": 44400,
      "d": 1200,
      "v": 70
    },
    {
      "midi": 75,
      "hit": false,
      "t": 44700,
      "d": 300,
      "v": 76
    },
    {
      "midi": 74,
      "hit": false,
      "t": 45000,
      "d": 300,
      "v": 73
    },
    {
      "midi": 72,
      "hit": false,
      "t": 45300,
      "d": 300,
      "v": 74
    },
    {
      "midi": 72,
      "hit": false,
      "t": 45600,
      "d": 600,
      "v": 75
    },
    {
      "midi": 56,
      "hit": false,
      "t": 45600,
      "d": 1200,
      "v": 81
    },
    {
      "midi": 60,
      "hit": false,
      "t": 45600,
      "d": 1200,
      "v": 100
    },
    {
      "midi": 75,
      "hit": false,
      "t": 46200,
      "d": 300,
      "v": 87
    },
    {
      "midi": 74,
      "hit": false,
      "t": 46500,
      "d": 900,
      "v": 74
    },
    {
      "midi": 58,
      "hit": false,
      "t": 46800,
      "d": 1200,
      "v": 81
    },
    {
      "midi": 62,
      "hit": false,
      "t": 46800,
      "d": 1200,
      "v": 100
    },
    {
      "midi": 75,
      "hit": false,
      "t": 47400,
      "d": 300,
      "v": 83
    },
    {
      "midi": 77,
      "hit": false,
      "t": 47700,
      "d": 1200,
      "v": 79
    },
    {
      "midi": 55,
      "hit": false,
      "t": 48000,
      "d": 1200,
      "v": 75
    },
    {
      "midi": 58,
      "hit": false,
      "t": 48000,
      "d": 1200,
      "v": 75
    },
    {
      "midi": 62,
      "hit": false,
      "t": 48000,
      "d": 1200,
      "v": 100
    },
    {
      "midi": 70,
      "hit": false,
      "t": 48900,
      "d": 300,
      "v": 62
    },
    {
      "midi": 75,
      "hit": false,
      "t": 49200,
      "d": 300,
      "v": 85
    },
    {
      "midi": 77,
      "hit": false,
      "t": 49500,
      "d": 300,
      "v": 79
    },
    {
      "midi": 79,
      "hit": false,
      "t": 49800,
      "d": 300,
      "v": 82
    },
    {
      "midi": 82,
      "hit": false,
      "t": 50100,
      "d": 300,
      "v": 77
    },
    {
      "midi": 82,
      "hit": false,
      "t": 50400,
      "d": 600,
      "v": 100
    },
    {
      "midi": 51,
      "hit": false,
      "t": 50400,
      "d": 600,
      "v": 70
    },
    {
      "midi": 55,
      "hit": false,
      "t": 50400,
      "d": 600,
      "v": 100
    },
    {
      "midi": 58,
      "hit": false,
      "t": 50400,
      "d": 600,
      "v": 100
    },
    {
      "midi": 80,
      "hit": false,
      "t": 51000,
      "d": 300,
      "v": 71
    },
    {
      "midi": 79,
      "hit": false,
      "t": 51300,
      "d": 900,
      "v": 76
    },
    {
      "midi": 58,
      "hit": false,
      "t": 51600,
      "d": 600,
      "v": 86
    },
    {
      "midi": 62,
      "hit": false,
      "t": 51600,
      "d": 600,
      "v": 86
    },
    {
      "midi": 77,
      "hit": false,
      "t": 52200,
      "d": 300,
      "v": 65
    },
    {
      "midi": 60,
      "hit": false,
      "t": 52200,
      "d": 600,
      "v": 77
    },
    {
      "midi": 80,
      "hit": false,
      "t": 52500,
      "d": 300,
      "v": 85
    },
    {
      "midi": 79,
      "hit": false,
      "t": 52800,
      "d": 900,
      "v": 73
    },
    {
      "midi": 50,
      "hit": false,
      "t": 52800,
      "d": 1200,
      "v": 72
    },
    {
      "midi": 58,
      "hit": false,
      "t": 52800,
      "d": 1200,
      "v": 72
    },
    {
      "midi": 70,
      "hit": false,
      "t": 53700,
      "d": 300,
      "v": 63
    },
    {
      "midi": 75,
      "hit": false,
      "t": 54000,
      "d": 300,
      "v": 89
    },
    {
      "midi": 55,
      "hit": false,
      "t": 54000,
      "d": 600,
      "v": 72
    },
    {
      "midi": 77,
      "hit": false,
      "t": 54300,
      "d": 300,
      "v": 82
    },
    {
      "midi": 79,
      "hit": false,
      "t": 54600,
      "d": 300,
      "v": 80
    },
    {
      "midi": 51,
      "hit": false,
      "t": 54600,
      "d": 600,
      "v": 67
    },
    {
      "midi": 82,
      "hit": false,
      "t": 54900,
      "d": 300,
      "v": 85
    },
    {
      "midi": 80,
      "hit": false,
      "t": 55200,
      "d": 600,
      "v": 69
    },
    {
      "midi": 49,
      "hit": false,
      "t": 55200,
      "d": 900,
      "v": 70
    },
    {
      "midi": 53,
      "hit": false,
      "t": 55200,
      "d": 900,
      "v": 83
    },
    {
      "midi": 56,
      "hit": false,
      "t": 55200,
      "d": 900,
      "v": 83
    },
    {
      "midi": 79,
      "hit": false,
      "t": 55800,
      "d": 300,
      "v": 77
    },
    {
      "midi": 77,
      "hit": false,
      "t": 56100,
      "d": 2400,
      "v": 73
    },
    {
      "midi": 49,
      "hit": false,
      "t": 56100,
      "d": 300,
      "v": 72
    },
    {
      "midi": 49,
      "hit": false,
      "t": 57000,
      "d": 300,
      "v": 100
    },
    {
      "midi": 49,
      "hit": false,
      "t": 57300,
      "d": 300,
      "v": 100
    },
    {
      "midi": 46,
      "hit": false,
      "t": 57600,
      "d": 1800,
      "v": 73
    },
    {
      "midi": 51,
      "hit": false,
      "t": 57600,
      "d": 1800,
      "v": 73
    },
    {
      "midi": 53,
      "hit": false,
      "t": 57600,
      "d": 1800,
      "v": 73
    },
    {
      "midi": 75,
      "hit": false,
      "t": 59100,
      "d": 300,
      "v": 73
    },
    {
      "midi": 74,
      "hit": false,
      "t": 59400,
      "d": 300,
      "v": 77
    },
    {
      "midi": 75,
      "hit": false,
      "t": 59700,
      "d": 300,
      "v": 84
    },
    {
      "midi": 80,
      "hit": false,
      "t": 60000,
      "d": 600,
      "v": 86
    },
    {
      "midi": 49,
      "hit": false,
      "t": 60000,
      "d": 900,
      "v": 78
    },
    {
      "midi": 53,
      "hit": false,
      "t": 60000,
      "d": 900,
      "v": 65
    },
    {
      "midi": 79,
      "hit": false,
      "t": 60600,
      "d": 300,
      "v": 74
    },
    {
      "midi": 77,
      "hit": false,
      "t": 60900,
      "d": 3600,
      "v": 72
    },
    {
      "midi": 49,
      "hit": false,
      "t": 60900,
      "d": 300,
      "v": 81
    },
    {
      "midi": 49,
      "hit": false,
      "t": 61800,
      "d": 300,
      "v": 100
    },
    {
      "midi": 49,
      "hit": false,
      "t": 62100,
      "d": 300,
      "v": 100
    },
    {
      "midi": 46,
      "hit": false,
      "t": 62400,
      "d": 1800,
      "v": 74
    },
    {
      "midi": 51,
      "hit": false,
      "t": 62400,
      "d": 1800,
      "v": 74
    },
    {
      "midi": 53,
      "hit": false,
      "t": 62400,
      "d": 1800,
      "v": 74
    },
    {
      "midi": 75,
      "hit": false,
      "t": 64200,
      "d": 300,
      "v": 71
    },
    {
      "midi": 77,
      "hit": false,
      "t": 64500,
      "d": 300,
      "v": 80
    },
    {
      "midi": 75,
      "hit": false,
      "t": 64800,
      "d": 1800,
      "v": 73
    },
    {
      "midi": 48,
      "hit": false,
      "t": 64800,
      "d": 900,
      "v": 67
    },
    {
      "midi": 51,
      "hit": false,
      "t": 64800,
      "d": 900,
      "v": 67
    },
    {
      "midi": 55,
      "hit": false,
      "t": 64800,
      "d": 900,
      "v": 67
    },
    {
      "midi": 48,
      "hit": false,
      "t": 65700,
      "d": 300,
      "v": 100
    },
    {
      "midi": 51,
      "hit": false,
      "t": 65700,
      "d": 300,
      "v": 100
    },
    {
      "midi": 55,
      "hit": false,
      "t": 65700,
      "d": 300,
      "v": 100
    },
    {
      "midi": 48,
      "hit": false,
      "t": 66000,
      "d": 600,
      "v": 100
    },
    {
      "midi": 51,
      "hit": false,
      "t": 66000,
      "d": 600,
      "v": 100
    },
    {
      "midi": 55,
      "hit": false,
      "t": 66000,
      "d": 600,
      "v": 100
    },
    {
      "midi": 75,
      "hit": false,
      "t": 66600,
      "d": 300,
      "v": 75
    },
    {
      "midi": 48,
      "hit": false,
      "t": 66600,
      "d": 600,
      "v": 100
    },
    {
      "midi": 51,
      "hit": false,
      "t": 66600,
      "d": 600,
      "v": 100
    },
    {
      "midi": 55,
      "hit": false,
      "t": 66600,
      "d": 600,
      "v": 100
    },
    {
      "midi": 75,
      "hit": false,
      "t": 66900,
      "d": 600,
      "v": 73
    },
    {
      "midi": 51,
      "hit": false,
      "t": 67200,
      "d": 1200,
      "v": 80
    },
    {
      "midi": 55,
      "hit": false,
      "t": 67200,
      "d": 1200,
      "v": 80
    },
    {
      "midi": 58,
      "hit": false,
      "t": 67200,
      "d": 1200,
      "v": 80
    },
    {
      "midi": 77,
      "hit": false,
      "t": 67500,
      "d": 300,
      "v": 78
    },
    {
      "midi": 82,
      "hit": false,
      "t": 68100,
      "d": 300,
      "v": 69
    },
    {
      "midi": 80,
      "hit": false,
      "t": 68400,
      "d": 300,
      "v": 73
    },
    {
      "midi": 58,
      "hit": false,
      "t": 68400,
      "d": 600,
      "v": 100
    },
    {
      "midi": 63,
      "hit": false,
      "t": 68400,
      "d": 600,
      "v": 100
    },
    {
      "midi": 79,
      "hit": false,
      "t": 68700,
      "d": 300,
      "v": 74
    },
    {
      "midi": 77,
      "hit": false,
      "t": 69000,
      "d": 300,
      "v": 70
    },
    {
      "midi": 75,
      "hit": false,
      "t": 69300,
      "d": 300,
      "v": 73
    },
    {
      "midi": 77,
      "hit": false,
      "t": 69600,
      "d": 300,
      "v": 81
    },
    {
      "midi": 58,
      "hit": false,
      "t": 69600,
      "d": 1200,
      "v": 83
    },
    {
      "midi": 62,
      "hit": false,
      "t": 69600,
      "d": 1200,
      "v": 83
    },
    {
      "midi": 79,
      "hit": false,
      "t": 69900,
      "d": 600,
      "v": 84
    },
    {
      "midi": 79,
      "hit": false,
      "t": 70500,
      "d": 900,
      "v": 76
    },
    {
      "midi": 55,
      "hit": false,
      "t": 70800,
      "d": 600,
      "v": 100
    },
    {
      "midi": 70,
      "hit": false,
      "t": 71400,
      "d": 300,
      "v": 58
    },
    {
      "midi": 51,
      "hit": false,
      "t": 71400,
      "d": 600,
      "v": 100
    },
    {
      "midi": 72,
      "hit": false,
      "t": 71700,
      "d": 300,
      "v": 81
    },
    {
      "midi": 70,
      "hit": false,
      "t": 72000,
      "d": 300,
      "v": 70
    },
    {
      "midi": 44,
      "hit": false,
      "t": 72000,
      "d": 600,
      "v": 72
    },
    {
      "midi": 51,
      "hit": false,
      "t": 72000,
      "d": 600,
      "v": 72
    },
    {
      "midi": 72,
      "hit": false,
      "t": 72300,
      "d": 300,
      "v": 81
    },
    {
      "midi": 51,
      "hit": false,
      "t": 72600,
      "d": 300,
      "v": 100
    },
    {
      "midi": 53,
      "hit": false,
      "t": 72900,
      "d": 300,
      "v": 100
    },
    {
      "midi": 55,
      "hit": false,
      "t": 73200,
      "d": 300,
      "v": 100
    },
    {
      "midi": 56,
      "hit": false,
      "t": 73500,
      "d": 300,
      "v": 100
    },
    {
      "midi": 70,
      "hit": false,
      "t": 73800,
      "d": 300,
      "v": 68
    },
    {
      "midi": 58,
      "hit": false,
      "t": 73800,
      "d": 600,
      "v": 81
    },
    {
      "midi": 75,
      "hit": false,
      "t": 74100,
      "d": 300,
      "v": 91
    },
    {
      "midi": 77,
      "hit": false,
      "t": 74400,
      "d": 300,
      "v": 83
    },
    {
      "midi": 60,
      "hit": false,
      "t": 74400,
      "d": 1200,
      "v": 80
    },
    {
      "midi": 75,
      "hit": false,
      "t": 74700,
      "d": 600,
      "v": 66
    },
    {
      "midi": 74,
      "hit": false,
      "t": 75300,
      "d": 300,
      "v": 71
    },
    {
      "midi": 72,
      "hit": false,
      "t": 75600,
      "d": 600,
      "v": 71
    },
    {
      "midi": 62,
      "hit": false,
      "t": 75600,
      "d": 1200,
      "v": 81
    },
    {
      "midi": 70,
      "hit": false,
      "t": 76200,
      "d": 300,
      "v": 69
    },
    {
      "midi": 72,
      "hit": false,
      "t": 76500,
      "d": 300,
      "v": 81
    },
    {
      "midi": 72,
      "hit": false,
      "t": 76800,
      "d": 300,
      "v": 78
    },
    {
      "midi": 63,
      "hit": false,
      "t": 76800,
      "d": 1200,
      "v": 77
    },
    {
      "midi": 75,
      "hit": false,
      "t": 77100,
      "d": 300,
      "v": 81
    },
    {
      "midi": 74,
      "hit": false,
      "t": 77400,
      "d": 300,
      "v": 74
    },
    {
      "midi": 72,
      "hit": false,
      "t": 77700,
      "d": 300,
      "v": 73
    },
    {
      "midi": 70,
      "hit": false,
      "t": 78000,
      "d": 450,
      "v": 74
    },
    {
      "midi": 56,
      "hit": false,
      "t": 78000,
      "d": 1200,
      "v": 72
    },
    {
      "midi": 60,
      "hit": false,
      "t": 78000,
      "d": 1200,
      "v": 72
    },
    {
      "midi": 63,
      "hit": false,
      "t": 78000,
      "d": 1200,
      "v": 72
    },
    {
      "midi": 70,
      "hit": false,
      "t": 78450,
      "d": 150,
      "v": 73
    },
    {
      "midi": 72,
      "hit": false,
      "t": 78600,
      "d": 300,
      "v": 82
    },
    {
      "midi": 75,
      "hit": false,
      "t": 78900,
      "d": 300,
      "v": 79
    },
    {
      "midi": 77,
      "hit": false,
      "t": 79200,
      "d": 300,
      "v": 82
    },
    {
      "midi": 50,
      "hit": false,
      "t": 79200,
      "d": 900,
      "v": 64
    },
    {
      "midi": 79,
      "hit": false,
      "t": 79500,
      "d": 600,
      "v": 87
    },
    {
      "midi": 79,
      "hit": false,
      "t": 80100,
      "d": 900,
      "v": 78
    },
    {
      "midi": 51,
      "hit": false,
      "t": 80100,
      "d": 1200,
      "v": 77
    },
    {
      "midi": 75,
      "hit": false,
      "t": 81000,
      "d": 300,
      "v": 68
    },
    {
      "midi": 77,
      "hit": false,
      "t": 81300,
      "d": 300,
      "v": 86
    },
    {
      "midi": 80,
      "hit": false,
      "t": 81600,
      "d": 900,
      "v": 85
    },
    {
      "midi": 49,
      "hit": false,
      "t": 81600,
      "d": 1200,
      "v": 81
    },
    {
      "midi": 53,
      "hit": false,
      "t": 81600,
      "d": 1200,
      "v": 81
    },
    {
      "midi": 56,
      "hit": false,
      "t": 81600,
      "d": 1200,
      "v": 81
    },
    {
      "midi": 79,
      "hit": false,
      "t": 82500,
      "d": 900,
      "v": 71
    },
    {
      "midi": 49,
      "hit": false,
      "t": 82800,
      "d": 600,
      "v": 81
    },
    {
      "midi": 53,
      "hit": false,
      "t": 82800,
      "d": 600,
      "v": 81
    },
    {
      "midi": 56,
      "hit": false,
      "t": 82800,
      "d": 600,
      "v": 81
    },
    {
      "midi": 77,
      "hit": false,
      "t": 83400,
      "d": 300,
      "v": 72
    },
    {
      "midi": 49,
      "hit": false,
      "t": 83400,
      "d": 300,
      "v": 81
    },
    {
      "midi": 53,
      "hit": false,
      "t": 83400,
      "d": 300,
      "v": 81
    },
    {
      "midi": 56,
      "hit": false,
      "t": 83400,
      "d": 300,
      "v": 81
    },
    {
      "midi": 79,
      "hit": false,
      "t": 83700,
      "d": 600,
      "v": 79
    },
    {
      "midi": 49,
      "hit": false,
      "t": 83700,
      "d": 300,
      "v": 81
    },
    {
      "midi": 53,
      "hit": false,
      "t": 83700,
      "d": 300,
      "v": 81
    },
    {
      "midi": 56,
      "hit": false,
      "t": 83700,
      "d": 300,
      "v": 81
    },
    {
      "midi": 48,
      "hit": false,
      "t": 84000,
      "d": 1200,
      "v": 83
    },
    {
      "midi": 58,
      "hit": false,
      "t": 84000,
      "d": 1200,
      "v": 83
    },
    {
      "midi": 77,
      "hit": false,
      "t": 84300,
      "d": 150,
      "v": 71
    },
    {
      "midi": 75,
      "hit": false,
      "t": 84450,
      "d": 150,
      "v": 70
    },
    {
      "midi": 72,
      "hit": false,
      "t": 84600,
      "d": 600,
      "v": 66
    },
    {
      "midi": 48,
      "hit": false,
      "t": 85200,
      "d": 1200,
      "v": 74
    },
    {
      "midi": 51,
      "hit": false,
      "t": 85200,
      "d": 1200,
      "v": 74
    },
    {
      "midi": 55,
      "hit": false,
      "t": 85200,
      "d": 1200,
      "v": 74
    },
    {
      "midi": 79,
      "hit": false,
      "t": 85500,
      "d": 300,
      "v": 70
    },
    {
      "midi": 77,
      "hit": false,
      "t": 85800,
      "d": 150,
      "v": 70
    },
    {
      "midi": 75,
      "hit": false,
      "t": 85950,
      "d": 150,
      "v": 70
    },
    {
      "midi": 77,
      "hit": false,
      "t": 86100,
      "d": 300,
      "v": 81
    },
    {
      "midi": 75,
      "hit": false,
      "t": 86400,
      "d": 900,
      "v": 73
    },
    {
      "midi": 56,
      "hit": false,
      "t": 86400,
      "d": 1200,
      "v": 89
    },
    {
      "midi": 60,
      "hit": false,
      "t": 86400,
      "d": 1200,
      "v": 89
    },
    {
      "midi": 77,
      "hit": false,
      "t": 87300,
      "d": 300,
      "v": 75
    },
    {
      "midi": 77,
      "hit": false,
      "t": 87600,
      "d": 600,
      "v": 72
    },
    {
      "midi": 58,
      "hit": false,
      "t": 87600,
      "d": 900,
      "v": 80
    },
    {
      "midi": 62,
      "hit": false,
      "t": 87600,
      "d": 900,
      "v": 80
    },
    {
      "midi": 60,
      "hit": false,
      "t": 88500,
      "d": 300,
      "v": 69
    },
    {
      "midi": 60,
      "hit": false,
      "t": 88800,
      "d": 600,
      "v": 74
    },
    {
      "midi": 48,
      "hit": false,
      "t": 89400,
      "d": 1200,
      "v": 73
    },
    {
      "midi": 51,
      "hit": false,
      "t": 89400,
      "d": 1200,
      "v": 73
    },
    {
      "midi": 55,
      "hit": false,
      "t": 89400,
      "d": 1200,
      "v": 73
    },
    {
      "midi": 67,
      "hit": false,
      "t": 89700,
      "d": 300,
      "v": 72
    },
    {
      "midi": 65,
      "hit": false,
      "t": 90000,
      "d": 300,
      "v": 71
    },
    {
      "midi": 63,
      "hit": false,
      "t": 90300,
      "d": 300,
      "v": 71
    },
    {
      "midi": 62,
      "hit": false,
      "t": 90600,
      "d": 600,
      "v": 72
    },
    {
      "midi": 51,
      "hit": false,
      "t": 90600,
      "d": 300,
      "v": 73
    },
    {
      "midi": 48,
      "hit": false,
      "t": 90900,
      "d": 300,
      "v": 72
    },
    {
      "midi": 44,
      "hit": false,
      "t": 91200,
      "d": 1200,
      "v": 75
    },
    {
      "midi": 63,
      "hit": false,
      "t": 91500,
      "d": 300,
      "v": 72
    },
    {
      "midi": 63,
      "hit": false,
      "t": 91800,
      "d": 300,
      "v": 80
    },
    {
      "midi": 63,
      "hit": false,
      "t": 92100,
      "d": 300,
      "v": 74
    },
    {
      "midi": 67,
      "hit": false,
      "t": 92400,
      "d": 300,
      "v": 82
    },
    {
      "midi": 46,
      "hit": false,
      "t": 92400,
      "d": 1200,
      "v": 84
    },
    {
      "midi": 70,
      "hit": false,
      "t": 92700,
      "d": 300,
      "v": 82
    },
    {
      "midi": 72,
      "hit": false,
      "t": 93000,
      "d": 150,
      "v": 86
    },
    {
      "midi": 70,
      "hit": false,
      "t": 93150,
      "d": 150,
      "v": 68
    },
    {
      "midi": 75,
      "hit": false,
      "t": 93300,
      "d": 600,
      "v": 86
    },
    {
      "midi": 48,
      "hit": false,
      "t": 93600,
      "d": 1200,
      "v": 66
    },
    {
      "midi": 79,
      "hit": false,
      "t": 93900,
      "d": 300,
      "v": 83
    },
    {
      "midi": 77,
      "hit": false,
      "t": 94200,
      "d": 150,
      "v": 70
    },
    {
      "midi": 75,
      "hit": false,
      "t": 94350,
      "d": 150,
      "v": 71
    },
    {
      "midi": 75,
      "hit": false,
      "t": 94500,
      "d": 300,
      "v": 77
    },
    {
      "midi": 79,
      "hit": false,
      "t": 94800,
      "d": 300,
      "v": 84
    },
    {
      "midi": 50,
      "hit": false,
      "t": 94800,
      "d": 600,
      "v": 80
    },
    {
      "midi": 77,
      "hit": false,
      "t": 95100,
      "d": 150,
      "v": 72
    },
    {
      "midi": 75,
      "hit": false,
      "t": 95250,
      "d": 150,
      "v": 75
    },
    {
      "midi": 75,
      "hit": false,
      "t": 95400,
      "d": 300,
      "v": 77
    },
    {
      "midi": 51,
      "hit": false,
      "t": 95400,
      "d": 600,
      "v": 80
    },
    {
      "midi": 55,
      "hit": false,
      "t": 95400,
      "d": 600,
      "v": 80
    },
    {
      "midi": 72,
      "hit": false,
      "t": 95700,
      "d": 300,
      "v": 67
    },
    {
      "midi": 74,
      "hit": false,
      "t": 96000,
      "d": 1800,
      "v": 77
    },
    {
      "midi": 44,
      "hit": false,
      "t": 96000,
      "d": 1200,
      "v": 69
    },
    {
      "midi": 51,
      "hit": false,
      "t": 96000,
      "d": 1200,
      "v": 69
    },
    {
      "midi": 46,
      "hit": false,
      "t": 97200,
      "d": 600,
      "v": 72
    },
    {
      "midi": 50,
      "hit": false,
      "t": 97200,
      "d": 600,
      "v": 72
    },
    {
      "midi": 72,
      "hit": false,
      "t": 97800,
      "d": 600,
      "v": 68
    },
    {
      "midi": 53,
      "hit": false,
      "t": 97800,
      "d": 600,
      "v": 81
    },
    {
      "midi": 74,
      "hit": false,
      "t": 98400,
      "d": 150,
      "v": 81
    },
    {
      "midi": 48,
      "hit": false,
      "t": 98400,
      "d": 1200,
      "v": 84
    },
    {
      "midi": 58,
      "hit": false,
      "t": 98400,
      "d": 1200,
      "v": 84
    },
    {
      "midi": 74,
      "hit": false,
      "t": 98550,
      "d": 150,
      "v": 78
    },
    {
      "midi": 74,
      "hit": false,
      "t": 98700,
      "d": 150,
      "v": 76
    },
    {
      "midi": 74,
      "hit": false,
      "t": 98850,
      "d": 150,
      "v": 79
    },
    {
      "midi": 74,
      "hit": false,
      "t": 99000,
      "d": 300,
      "v": 73
    },
    {
      "midi": 72,
      "hit": false,
      "t": 99300,
      "d": 300,
      "v": 73
    },
    {
      "midi": 70,
      "hit": false,
      "t": 99600,
      "d": 300,
      "v": 71
    },
    {
      "midi": 48,
      "hit": false,
      "t": 99600,
      "d": 600,
      "v": 75
    },
    {
      "midi": 58,
      "hit": false,
      "t": 99600,
      "d": 600,
      "v": 75
    },
    {
      "midi": 74,
      "hit": false,
      "t": 99900,
      "d": 300,
      "v": 81
    },
    {
      "midi": 55,
      "hit": false,
      "t": 100200,
      "d": 300,
      "v": 73
    },
    {
      "midi": 55,
      "hit": false,
      "t": 100500,
      "d": 300,
      "v": 81
    },
    {
      "midi": 79,
      "hit": false,
      "t": 100800,
      "d": 600,
      "v": 67
    },
    {
      "midi": 48,
      "hit": false,
      "t": 100800,
      "d": 1200,
      "v": 77
    },
    {
      "midi": 51,
      "hit": false,
      "t": 100800,
      "d": 1200,
      "v": 77
    },
    {
      "midi": 55,
      "hit": false,
      "t": 100800,
      "d": 1200,
      "v": 77
    },
    {
      "midi": 79,
      "hit": false,
      "t": 101400,
      "d": 600,
      "v": 78
    },
    {
      "midi": 79,
      "hit": false,
      "t": 102000,
      "d": 300,
      "v": 75
    },
    {
      "midi": 50,
      "hit": false,
      "t": 102000,
      "d": 1200,
      "v": 71
    },
    {
      "midi": 79,
      "hit": false,
      "t": 102300,
      "d": 300,
      "v": 77
    },
    {
      "midi": 77,
      "hit": false,
      "t": 102600,
      "d": 300,
      "v": 70
    },
    {
      "midi": 77,
      "hit": false,
      "t": 102900,
      "d": 300,
      "v": 77
    },
    {
      "midi": 79,
      "hit": false,
      "t": 103200,
      "d": 900,
      "v": 83
    },
    {
      "midi": 44,
      "hit": false,
      "t": 103200,
      "d": 1800,
      "v": 78
    },
    {
      "midi": 51,
      "hit": false,
      "t": 103200,
      "d": 1800,
      "v": 78
    },
    {
      "midi": 79,
      "hit": false,
      "t": 104100,
      "d": 300,
      "v": 82
    },
    {
      "midi": 77,
      "hit": false,
      "t": 104400,
      "d": 300,
      "v": 69
    },
    {
      "midi": 75,
      "hit": false,
      "t": 104700,
      "d": 300,
      "v": 69
    },
    {
      "midi": 82,
      "hit": false,
      "t": 105000,
      "d": 1200,
      "v": 89
    },
    {
      "midi": 43,
      "hit": false,
      "t": 105000,
      "d": 600,
      "v": 69
    },
    {
      "midi": 44,
      "hit": false,
      "t": 105600,
      "d": 900,
      "v": 82
    },
    {
      "midi": 51,
      "hit": false,
      "t": 105600,
      "d": 900,
      "v": 82
    },
    {
      "midi": 80,
      "hit": false,
      "t": 106200,
      "d": 150,
      "v": 68
    },
    {
      "midi": 79,
      "hit": false,
      "t": 106350,
      "d": 150,
      "v": 72
    },
    {
      "midi": 77,
      "hit": false,
      "t": 106500,
      "d": 600,
      "v": 69
    },
    {
      "midi": 46,
      "hit": false,
      "t": 106500,
      "d": 300,
      "v": 71
    },
    {
      "midi": 50,
      "hit": false,
      "t": 106500,
      "d": 300,
      "v": 71
    },
    {
      "midi": 79,
      "hit": false,
      "t": 107100,
      "d": 300,
      "v": 78
    },
    {
      "midi": 75,
      "hit": false,
      "t": 107400,
      "d": 300,
      "v": 68
    },
    {
      "midi": 53,
      "hit": false,
      "t": 107400,
      "d": 600,
      "v": 76
    },
    {
      "midi": 75,
      "hit": false,
      "t": 107700,
      "d": 300,
      "v": 74
    },
    {
      "midi": 79,
      "hit": false,
      "t": 108000,
      "d": 300,
      "v": 85
    },
    {
      "midi": 50,
      "hit": false,
      "t": 108000,
      "d": 900,
      "v": 77
    },
    {
      "midi": 58,
      "hit": false,
      "t": 108000,
      "d": 900,
      "v": 77
    },
    {
      "midi": 80,
      "hit": false,
      "t": 108300,
      "d": 300,
      "v": 85
    },
    {
      "midi": 79,
      "hit": false,
      "t": 108600,
      "d": 300,
      "v": 74
    },
    {
      "midi": 77,
      "hit": false,
      "t": 108900,
      "d": 900,
      "v": 72
    },
    {
      "midi": 51,
      "hit": false,
      "t": 108900,
      "d": 300,
      "v": 75
    },
    {
      "midi": 55,
      "hit": false,
      "t": 108900,
      "d": 300,
      "v": 75
    },
    {
      "midi": 79,
      "hit": false,
      "t": 109800,
      "d": 300,
      "v": 81
    },
    {
      "midi": 77,
      "hit": false,
      "t": 110100,
      "d": 2100,
      "v": 70
    },
    {
      "midi": 49,
      "hit": false,
      "t": 110400,
      "d": 900,
      "v": 75
    },
    {
      "midi": 53,
      "hit": false,
      "t": 110400,
      "d": 900,
      "v": 75
    },
    {
      "midi": 56,
      "hit": false,
      "t": 110400,
      "d": 900,
      "v": 75
    },
    {
      "midi": 49,
      "hit": false,
      "t": 111300,
      "d": 300,
      "v": 77
    },
    {
      "midi": 49,
      "hit": false,
      "t": 111600,
      "d": 900,
      "v": 80
    },
    {
      "midi": 46,
      "hit": false,
      "t": 112500,
      "d": 300,
      "v": 73
    },
    {
      "midi": 82,
      "hit": false,
      "t": 112800,
      "d": 1200,
      "v": 93
    },
    {
      "midi": 46,
      "hit": false,
      "t": 112800,
      "d": 600,
      "v": 78
    },
    {
      "midi": 51,
      "hit": false,
      "t": 112800,
      "d": 600,
      "v": 78
    },
    {
      "midi": 53,
      "hit": false,
      "t": 112800,
      "d": 600,
      "v": 78
    },
    {
      "midi": 46,
      "hit": false,
      "t": 113400,
      "d": 1200,
      "v": 78
    },
    {
      "midi": 51,
      "hit": false,
      "t": 113400,
      "d": 1200,
      "v": 78
    },
    {
      "midi": 53,
      "hit": false,
      "t": 113400,
      "d": 1200,
      "v": 78
    },
    {
      "midi": 79,
      "hit": false,
      "t": 114000,
      "d": 300,
      "v": 69
    },
    {
      "midi": 80,
      "hit": false,
      "t": 114300,
      "d": 300,
      "v": 77
    },
    {
      "midi": 79,
      "hit": false,
      "t": 114600,
      "d": 300,
      "v": 70
    },
    {
      "midi": 82,
      "hit": false,
      "t": 114900,
      "d": 900,
      "v": 82
    },
    {
      "midi": 56,
      "hit": false,
      "t": 115200,
      "d": 1200,
      "v": 72
    },
    {
      "midi": 60,
      "hit": false,
      "t": 115200,
      "d": 1200,
      "v": 72
    },
    {
      "midi": 63,
      "hit": false,
      "t": 115200,
      "d": 1200,
      "v": 72
    },
    {
      "midi": 75,
      "hit": false,
      "t": 115800,
      "d": 300,
      "v": 59
    },
    {
      "midi": 74,
      "hit": false,
      "t": 116100,
      "d": 900,
      "v": 70
    },
    {
      "midi": 75,
      "hit": false,
      "t": 117000,
      "d": 300,
      "v": 77
    },
    {
      "midi": 62,
      "hit": false,
      "t": 117000,
      "d": 600,
      "v": 100
    },
    {
      "midi": 75,
      "hit": false,
      "t": 117300,
      "d": 1200,
      "v": 73
    },
    {
      "midi": 60,
      "hit": false,
      "t": 117600,
      "d": 600,
      "v": 69
    },
    {
      "midi": 48,
      "hit": false,
      "t": 118200,
      "d": 1200,
      "v": 76
    },
    {
      "midi": 51,
      "hit": false,
      "t": 118200,
      "d": 1200,
      "v": 76
    },
    {
      "midi": 55,
      "hit": false,
      "t": 118200,
      "d": 1200,
      "v": 76
    },
    {
      "midi": 79,
      "hit": false,
      "t": 118500,
      "d": 300,
      "v": 89
    },
    {
      "midi": 77,
      "hit": false,
      "t": 118800,
      "d": 300,
      "v": 69
    },
    {
      "midi": 70,
      "hit": false,
      "t": 119100,
      "d": 300,
      "v": 61
    },
    {
      "midi": 74,
      "hit": false,
      "t": 119400,
      "d": 300,
      "v": 84
    },
    {
      "midi": 51,
      "hit": false,
      "t": 119400,
      "d": 600,
      "v": 72
    },
    {
      "midi": 72,
      "hit": false,
      "t": 119700,
      "d": 900,
      "v": 72
    },
    {
      "midi": 56,
      "hit": false,
      "t": 120000,
      "d": 1200,
      "v": 100
    },
    {
      "midi": 60,
      "hit": false,
      "t": 120000,
      "d": 1200,
      "v": 100
    },
    {
      "midi": 63,
      "hit": false,
      "t": 120000,
      "d": 1200,
      "v": 100
    },
    {
      "midi": 75,
      "hit": false,
      "t": 120600,
      "d": 300,
      "v": 84
    },
    {
      "midi": 74,
      "hit": false,
      "t": 120900,
      "d": 300,
      "v": 71
    },
    {
      "midi": 74,
      "hit": false,
      "t": 121200,
      "d": 600,
      "v": 76
    },
    {
      "midi": 58,
      "hit": false,
      "t": 121200,
      "d": 1200,
      "v": 77
    },
    {
      "midi": 62,
      "hit": false,
      "t": 121200,
      "d": 1200,
      "v": 77
    },
    {
      "midi": 75,
      "hit": false,
      "t": 121800,
      "d": 300,
      "v": 75
    },
    {
      "midi": 77,
      "hit": false,
      "t": 122100,
      "d": 300,
      "v": 81
    },
    {
      "midi": 77,
      "hit": false,
      "t": 122400,
      "d": 900,
      "v": 76
    },
    {
      "midi": 55,
      "hit": false,
      "t": 122400,
      "d": 600,
      "v": 73
    },
    {
      "midi": 58,
      "hit": false,
      "t": 123000,
      "d": 600,
      "v": 78
    },
    {
      "midi": 70,
      "hit": false,
      "t": 123300,
      "d": 300,
      "v": 65
    },
    {
      "midi": 75,
      "hit": false,
      "t": 123600,
      "d": 300,
      "v": 82
    },
    {
      "midi": 56,
      "hit": false,
      "t": 123600,
      "d": 1200,
      "v": 78
    },
    {
      "midi": 60,
      "hit": false,
      "t": 123600,
      "d": 1200,
      "v": 78
    },
    {
      "midi": 77,
      "hit": false,
      "t": 123900,
      "d": 300,
      "v": 82
    },
    {
      "midi": 79,
      "hit": false,
      "t": 124200,
      "d": 300,
      "v": 82
    },
    {
      "midi": 82,
      "hit": false,
      "t": 124500,
      "d": 900,
      "v": 85
    },
    {
      "midi": 55,
      "hit": false,
      "t": 124800,
      "d": 600,
      "v": 73
    },
    {
      "midi": 80,
      "hit": false,
      "t": 125400,
      "d": 300,
      "v": 69
    },
    {
      "midi": 58,
      "hit": false,
      "t": 125400,
      "d": 600,
      "v": 78
    },
    {
      "midi": 79,
      "hit": false,
      "t": 125700,
      "d": 900,
      "v": 72
    },
    {
      "midi": 58,
      "hit": false,
      "t": 126000,
      "d": 1200,
      "v": 72
    },
    {
      "midi": 77,
      "hit": false,
      "t": 126600,
      "d": 300,
      "v": 71
    },
    {
      "midi": 80,
      "hit": false,
      "t": 126900,
      "d": 300,
      "v": 84
    },
    {
      "midi": 79,
      "hit": false,
      "t": 127200,
      "d": 900,
      "v": 74
    },
    {
      "midi": 50,
      "hit": false,
      "t": 127200,
      "d": 600,
      "v": 76
    },
    {
      "midi": 58,
      "hit": false,
      "t": 127200,
      "d": 600,
      "v": 76
    },
    {
      "midi": 58,
      "hit": false,
      "t": 127800,
      "d": 600,
      "v": 77
    },
    {
      "midi": 70,
      "hit": false,
      "t": 128100,
      "d": 300,
      "v": 59
    },
    {
      "midi": 75,
      "hit": false,
      "t": 128400,
      "d": 300,
      "v": 85
    },
    {
      "midi": 55,
      "hit": false,
      "t": 128400,
      "d": 1200,
      "v": 73
    },
    {
      "midi": 77,
      "hit": false,
      "t": 128700,
      "d": 300,
      "v": 81
    },
    {
      "midi": 79,
      "hit": false,
      "t": 129000,
      "d": 300,
      "v": 76
    },
    {
      "midi": 82,
      "hit": false,
      "t": 129300,
      "d": 300,
      "v": 80
    },
    {
      "midi": 80,
      "hit": false,
      "t": 129600,
      "d": 600,
      "v": 71
    },
    {
      "midi": 49,
      "hit": false,
      "t": 129600,
      "d": 900,
      "v": 78
    },
    {
      "midi": 53,
      "hit": false,
      "t": 129600,
      "d": 900,
      "v": 75
    },
    {
      "midi": 56,
      "hit": false,
      "t": 129600,
      "d": 900,
      "v": 75
    },
    {
      "midi": 79,
      "hit": false,
      "t": 130200,
      "d": 300,
      "v": 71
    },
    {
      "midi": 77,
      "hit": false,
      "t": 130500,
      "d": 1800,
      "v": 71
    },
    {
      "midi": 49,
      "hit": false,
      "t": 130500,
      "d": 1200,
      "v": 77
    },
    {
      "midi": 46,
      "hit": false,
      "t": 132000,
      "d": 1800,
      "v": 74
    },
    {
      "midi": 51,
      "hit": false,
      "t": 132000,
      "d": 1800,
      "v": 74
    },
    {
      "midi": 53,
      "hit": false,
      "t": 132000,
      "d": 1800,
      "v": 74
    },
    {
      "midi": 79,
      "hit": false,
      "t": 132900,
      "d": 300,
      "v": 68
    },
    {
      "midi": 77,
      "hit": false,
      "t": 133200,
      "d": 300,
      "v": 68
    },
    {
      "midi": 75,
      "hit": false,
      "t": 133500,
      "d": 300,
      "v": 67
    },
    {
      "midi": 74,
      "hit": false,
      "t": 133800,
      "d": 300,
      "v": 72
    },
    {
      "midi": 72,
      "hit": false,
      "t": 134100,
      "d": 300,
      "v": 72
    },
    {
      "midi": 72,
      "hit": false,
      "t": 134400,
      "d": 900,
      "v": 73
    },
    {
      "midi": 56,
      "hit": false,
      "t": 135000,
      "d": 600,
      "v": 67
    },
    {
      "midi": 60,
      "hit": false,
      "t": 135000,
      "d": 600,
      "v": 67
    },
    {
      "midi": 75,
      "hit": false,
      "t": 135300,
      "d": 300,
      "v": 81
    },
    {
      "midi": 74,
      "hit": false,
      "t": 135600,
      "d": 900,
      "v": 74
    },
    {
      "midi": 58,
      "hit": false,
      "t": 135600,
      "d": 900,
      "v": 77
    },
    {
      "midi": 75,
      "hit": false,
      "t": 136500,
      "d": 300,
      "v": 82
    },
    {
      "midi": 75,
      "hit": false,
      "t": 136800,
      "d": 4800,
      "v": 73
    },
    {
      "midi": 58,
      "hit": false,
      "t": 138000,
      "d": 600,
      "v": 69
    },
    {
      "midi": 55,
      "hit": false,
      "t": 138600,
      "d": 600,
      "v": 76
    },
    {
      "midi": 58,
      "hit": false,
      "t": 138600,
      "d": 600,
      "v": 76
    },
    {
      "midi": 51,
      "hit": false,
      "t": 139200,
      "d": 2400,
      "v": 74
    },
    {
      "midi": 55,
      "hit": false,
      "t": 139200,
      "d": 2400,
      "v": 74
    },
    {
      "midi": 58,
      "hit": false,
      "t": 139200,
      "d": 2400,
      "v": 74
    }
  ]
}