{
  "jsonPath": "Unknown/Unknown/Yarrow And Lipton/puff-the-magic-dragon.json",
  "path": "Unknown\\Unknown\\Yarrow And Lipton\\Puff the Magic Dragon.mid",
  "name": "Puff the Magic Dragon",
  "difficulty": "Advanced",
  "bpm": 130.00013000013,
  "notes": [
    {
      "midi": 72,
      "hit": false,
      "t": 0,
      "d": 692.3069999999999,
      "v": 84
    },
    {
      "midi": 48,
      "hit": false,
      "t": 0,
      "d": 461.53799999999995,
      "v": 74
    },
    {
      "midi": 52,
      "hit": false,
      "t": 461.53799999999995,
      "d": 461.53799999999995,
      "v": 72
    },
    {
      "midi": 55,
      "hit": false,
      "t": 461.53799999999995,
      "d": 461.53799999999995,
      "v": 64
    },
    {
      "midi": 72,
      "hit": false,
      "t": 692.3069999999999,
      "d": 230.769,
      "v": 84
    },
    {
      "midi": 72,
      "hit": false,
      "t": 923.0759999999999,
      "d": 461.5379999999999,
      "v": 84
    },
    {
      "midi": 48,
      "hit": false,
      "t": 923.0759999999999,
      "d": 461.5379999999999,
      "v": 68
    },
    {
      "midi": 72,
      "hit": false,
      "t": 1384.6139999999998,
      "d": 461.538,
      "v": 80
    },
    {
      "midi": 52,
      "hit": false,
      "t": 1384.6139999999998,
      "d": 461.538,
      "v": 80
    },
    {
      "midi": 55,
      "hit": false,
      "t": 1384.6139999999998,
      "d": 461.538,
      "v": 66
    },
    {
      "midi": 71,
      "hit": false,
      "t": 1846.1519999999998,
      "d": 923.0759999999998,
      "v": 92
    },
    {
      "midi": 52,
      "hit": false,
      "t": 1846.1519999999998,
      "d": 461.5379999999998,
      "v": 80
    },
    {
      "midi": 55,
      "hit": false,
      "t": 2307.6899999999996,
      "d": 461.538,
      "v": 69
    },
    {
      "midi": 59,
      "hit": false,
      "t": 2307.6899999999996,
      "d": 461.538,
      "v": 64
    },
    {
      "midi": 67,
      "hit": false,
      "t": 2769.2279999999996,
      "d": 923.076,
      "v": 87
    },
    {
      "midi": 52,
      "hit": false,
      "t": 2769.2279999999996,
      "d": 461.538,
      "v": 69
    },
    {
      "midi": 55,
      "hit": false,
      "t": 3230.7659999999996,
      "d": 461.538,
      "v": 74
    },
    {
      "midi": 59,
      "hit": false,
      "t": 3230.7659999999996,
      "d": 461.538,
      "v": 72
    },
    {
      "midi": 69,
      "hit": false,
      "t": 3692.3039999999996,
      "d": 923.0759999999996,
      "v": 87
    },
    {
      "midi": 53,
      "hit": false,
      "t": 3692.3039999999996,
      "d": 461.538,
      "v": 78
    },
    {
      "midi": 57,
      "hit": false,
      "t": 4153.842,
      "d": 461.53799999999956,
      "v": 72
    },
    {
      "midi": 60,
      "hit": false,
      "t": 4153.842,
      "d": 461.53799999999956,
      "v": 58
    },
    {
      "midi": 72,
      "hit": false,
      "t": 4615.379999999999,
      "d": 461.53799999999956,
      "v": 78
    },
    {
      "midi": 53,
      "hit": false,
      "t": 4615.379999999999,
      "d": 461.53799999999956,
      "v": 72
    },
    {
      "midi": 72,
      "hit": false,
      "t": 5076.917999999999,
      "d": 461.53799999999956,
      "v": 76
    },
    {
      "midi": 57,
      "hit": false,
      "t": 5076.917999999999,
      "d": 461.53799999999956,
      "v": 64
    },
    {
      "midi": 60,
      "hit": false,
      "t": 5076.917999999999,
      "d": 461.53799999999956,
      "v": 57
    },
    {
      "midi": 67,
      "hit": false,
      "t": 5538.455999999998,
      "d": 1384.6139999999996,
      "v": 82
    },
    {
      "midi": 48,
      "hit": false,
      "t": 5538.455999999998,
      "d": 461.53799999999956,
      "v": 69
    },
    {
      "midi": 52,
      "hit": false,
      "t": 5999.993999999998,
      "d": 461.53799999999956,
      "v": 74
    },
    {
      "midi": 55,
      "hit": false,
      "t": 5999.993999999998,
      "d": 461.53799999999956,
      "v": 63
    },
    {
      "midi": 48,
      "hit": false,
      "t": 6461.531999999997,
      "d": 461.53799999999956,
      "v": 64
    },
    {
      "midi": 52,
      "hit": false,
      "t": 6923.069999999997,
      "d": 461.53799999999956,
      "v": 76
    },
    {
      "midi": 55,
      "hit": false,
      "t": 6923.069999999997,
      "d": 461.53799999999956,
      "v": 65
    },
    {
      "midi": 67,
      "hit": false,
      "t": 6923.069999999998,
      "d": 461.53799999999956,
      "v": 78
    },
    {
      "midi": 50,
      "hit": false,
      "t": 7384.6079999999965,
      "d": 461.53799999999956,
      "v": 66
    },
    {
      "midi": 65,
      "hit": false,
      "t": 7384.607999999997,
      "d": 230.76900000000023,
      "v": 76
    },
    {
      "midi": 65,
      "hit": false,
      "t": 7615.376999999998,
      "d": 692.3069999999998,
      "v": 82
    },
    {
      "midi": 53,
      "hit": false,
      "t": 7846.145999999996,
      "d": 461.53799999999956,
      "v": 66
    },
    {
      "midi": 57,
      "hit": false,
      "t": 7846.145999999996,
      "d": 461.53799999999956,
      "v": 59
    },
    {
      "midi": 50,
      "hit": false,
      "t": 8307.683999999996,
      "d": 461.53800000000047,
      "v": 69
    },
    {
      "midi": 67,
      "hit": false,
      "t": 8307.683999999997,
      "d": 461.53800000000047,
      "v": 92
    },
    {
      "midi": 55,
      "hit": false,
      "t": 8769.221999999996,
      "d": 461.53800000000047,
      "v": 78
    },
    {
      "midi": 59,
      "hit": false,
      "t": 8769.221999999996,
      "d": 461.53800000000047,
      "v": 66
    },
    {
      "midi": 65,
      "hit": false,
      "t": 8769.221999999998,
      "d": 461.53800000000047,
      "v": 78
    },
    {
      "midi": 48,
      "hit": false,
      "t": 9230.759999999997,
      "d": 461.53800000000047,
      "v": 60
    },
    {
      "midi": 64,
      "hit": false,
      "t": 9230.759999999998,
      "d": 230.76900000000023,
      "v": 76
    },
    {
      "midi": 67,
      "hit": false,
      "t": 9461.528999999999,
      "d": 692.3070000000007,
      "v": 76
    },
    {
      "midi": 52,
      "hit": false,
      "t": 9692.297999999997,
      "d": 461.53800000000047,
      "v": 71
    },
    {
      "midi": 55,
      "hit": false,
      "t": 9692.297999999997,
      "d": 461.53800000000047,
      "v": 64
    },
    {
      "midi": 45,
      "hit": false,
      "t": 10153.835999999998,
      "d": 461.53800000000047,
      "v": 78
    },
    {
      "midi": 72,
      "hit": false,
      "t": 10153.836,
      "d": 461.53800000000047,
      "v": 95
    },
    {
      "midi": 48,
      "hit": false,
      "t": 10615.373999999998,
      "d": 461.53800000000047,
      "v": 71
    },
    {
      "midi": 52,
      "hit": false,
      "t": 10615.373999999998,
      "d": 461.53800000000047,
      "v": 72
    },
    {
      "midi": 72,
      "hit": false,
      "t": 10615.374,
      "d": 230.76900000000023,
      "v": 82
    },
    {
      "midi": 72,
      "hit": false,
      "t": 10846.143,
      "d": 230.76900000000023,
      "v": 89
    },
    {
      "midi": 50,
      "hit": false,
      "t": 11076.911999999998,
      "d": 461.53800000000047,
      "v": 84
    },
    {
      "midi": 72,
      "hit": false,
      "t": 11076.912,
      "d": 461.53800000000047,
      "v": 66
    },
    {
      "midi": 54,
      "hit": false,
      "t": 11538.449999999999,
      "d": 461.53800000000047,
      "v": 77
    },
    {
      "midi": 57,
      "hit": false,
      "t": 11538.449999999999,
      "d": 461.53800000000047,
      "v": 63
    },
    {
      "midi": 69,
      "hit": false,
      "t": 11538.45,
      "d": 461.53800000000047,
      "v": 78
    },
    {
      "midi": 50,
      "hit": false,
      "t": 11999.988,
      "d": 461.53800000000047,
      "v": 78
    },
    {
      "midi": 71,
      "hit": false,
      "t": 11999.988000000001,
      "d": 230.76900000000023,
      "v": 87
    },
    {
      "midi": 72,
      "hit": false,
      "t": 12230.757000000001,
      "d": 692.3070000000007,
      "v": 72
    },
    {
      "midi": 54,
      "hit": false,
      "t": 12461.526,
      "d": 461.53800000000047,
      "v": 66
    },
    {
      "midi": 57,
      "hit": false,
      "t": 12461.526,
      "d": 461.53800000000047,
      "v": 66
    },
    {
      "midi": 55,
      "hit": false,
      "t": 12923.064,
      "d": 461.53800000000047,
      "v": 82
    },
    {
      "midi": 74,
      "hit": false,
      "t": 12923.064000000002,
      "d": 1846.152,
      "v": 82
    },
    {
      "midi": 59,
      "hit": false,
      "t": 13384.602,
      "d": 461.53800000000047,
      "v": 82
    },
    {
      "midi": 62,
      "hit": false,
      "t": 13384.602,
      "d": 461.53800000000047,
      "v": 66
    },
    {
      "midi": 55,
      "hit": false,
      "t": 13846.140000000001,
      "d": 461.53800000000047,
      "v": 76
    },
    {
      "midi": 59,
      "hit": false,
      "t": 14307.678000000002,
      "d": 461.53800000000047,
      "v": 87
    },
    {
      "midi": 62,
      "hit": false,
      "t": 14307.678000000002,
      "d": 461.53800000000047,
      "v": 63
    },
    {
      "midi": 72,
      "hit": false,
      "t": 14769.216000000002,
      "d": 230.76900000000023,
      "v": 64
    },
    {
      "midi": 48,
      "hit": false,
      "t": 14769.216000000002,
      "d": 461.53800000000047,
      "v": 95
    },
    {
      "midi": 72,
      "hit": false,
      "t": 14999.985000000002,
      "d": 692.3070000000007,
      "v": 80
    },
    {
      "midi": 52,
      "hit": false,
      "t": 15230.754000000003,
      "d": 461.53800000000047,
      "v": 72
    },
    {
      "midi": 55,
      "hit": false,
      "t": 15230.754000000003,
      "d": 461.53800000000047,
      "v": 56
    },
    {
      "midi": 72,
      "hit": false,
      "t": 15692.292000000003,
      "d": 461.53800000000047,
      "v": 66
    },
    {
      "midi": 48,
      "hit": false,
      "t": 15692.292000000003,
      "d": 461.53800000000047,
      "v": 78
    },
    {
      "midi": 72,
      "hit": false,
      "t": 16153.830000000004,
      "d": 461.53799999999865,
      "v": 76
    },
    {
      "midi": 52,
      "hit": false,
      "t": 16153.830000000004,
      "d": 461.53799999999865,
      "v": 69
    },
    {
      "midi": 55,
      "hit": false,
      "t": 16153.830000000004,
      "d": 461.53799999999865,
      "v": 61
    },
    {
      "midi": 71,
      "hit": false,
      "t": 16615.368000000002,
      "d": 923.0760000000009,
      "v": 95
    },
    {
      "midi": 52,
      "hit": false,
      "t": 16615.368000000002,
      "d": 461.53800000000047,
      "v": 80
    },
    {
      "midi": 55,
      "hit": false,
      "t": 17076.906000000003,
      "d": 461.53800000000047,
      "v": 71
    },
    {
      "midi": 59,
      "hit": false,
      "t": 17076.906000000003,
      "d": 461.53800000000047,
      "v": 74
    },
    {
      "midi": 67,
      "hit": false,
      "t": 17538.444000000003,
      "d": 923.0760000000009,
      "v": 72
    },
    {
      "midi": 52,
      "hit": false,
      "t": 17538.444000000003,
      "d": 461.53800000000047,
      "v": 69
    },
    {
      "midi": 55,
      "hit": false,
      "t": 17999.982000000004,
      "d": 461.53800000000047,
      "v": 69
    },
    {
      "midi": 59,
      "hit": false,
      "t": 17999.982000000004,
      "d": 461.53800000000047,
      "v": 76
    },
    {
      "midi": 69,
      "hit": false,
      "t": 18461.520000000004,
      "d": 461.53800000000047,
      "v": 84
    },
    {
      "midi": 53,
      "hit": false,
      "t": 18461.520000000004,
      "d": 461.53800000000047,
      "v": 78
    },
    {
      "midi": 69,
      "hit": false,
      "t": 18923.058000000005,
      "d": 461.53800000000047,
      "v": 74
    },
    {
      "midi": 57,
      "hit": false,
      "t": 18923.058000000005,
      "d": 461.53800000000047,
      "v": 76
    },
    {
      "midi": 60,
      "hit": false,
      "t": 18923.058000000005,
      "d": 461.53800000000047,
      "v": 65
    },
    {
      "midi": 72,
      "hit": false,
      "t": 19384.596000000005,
      "d": 461.53800000000047,
      "v": 78
    },
    {
      "midi": 53,
      "hit": false,
      "t": 19384.596000000005,
      "d": 461.53800000000047,
      "v": 74
    },
    {
      "midi": 72,
      "hit": false,
      "t": 19846.134000000005,
      "d": 461.53800000000047,
      "v": 74
    },
    {
      "midi": 57,
      "hit": false,
      "t": 19846.134000000005,
      "d": 461.53800000000047,
      "v": 71
    },
    {
      "midi": 60,
      "hit": false,
      "t": 19846.134000000005,
      "d": 461.53800000000047,
      "v": 60
    },
    {
      "midi": 67,
      "hit": false,
      "t": 20307.672000000006,
      "d": 1384.6140000000014,
      "v": 67
    },
    {
      "midi": 48,
      "hit": false,
      "t": 20307.672000000006,
      "d": 461.53800000000047,
      "v": 78
    },
    {
      "midi": 52,
      "hit": false,
      "t": 20769.210000000006,
      "d": 461.53800000000047,
      "v": 76
    },
    {
      "midi": 55,
      "hit": false,
      "t": 20769.210000000006,
      "d": 461.53800000000047,
      "v": 66
    },
    {
      "midi": 48,
      "hit": false,
      "t": 21230.748000000007,
      "d": 461.53800000000047,
      "v": 68
    },
    {
      "midi": 67,
      "hit": false,
      "t": 21692.286000000007,
      "d": 461.53800000000047,
      "v": 71
    },
    {
      "midi": 52,
      "hit": false,
      "t": 21692.286000000007,
      "d": 461.53800000000047,
      "v": 66
    },
    {
      "midi": 55,
      "hit": false,
      "t": 21692.286000000007,
      "d": 461.53800000000047,
      "v": 68
    },
    {
      "midi": 65,
      "hit": false,
      "t": 22153.824000000008,
      "d": 461.53800000000047,
      "v": 71
    },
    {
      "midi": 50,
      "hit": false,
      "t": 22153.824000000008,
      "d": 461.53800000000047,
      "v": 74
    },
    {
      "midi": 65,
      "hit": false,
      "t": 22615.36200000001,
      "d": 461.53800000000047,
      "v": 65
    },
    {
      "midi": 53,
      "hit": false,
      "t": 22615.36200000001,
      "d": 461.53800000000047,
      "v": 71
    },
    {
      "midi": 57,
      "hit": false,
      "t": 22615.36200000001,
      "d": 461.53800000000047,
      "v": 65
    },
    {
      "midi": 67,
      "hit": false,
      "t": 23076.90000000001,
      "d": 461.53800000000047,
      "v": 74
    },
    {
      "midi": 50,
      "hit": false,
      "t": 23076.90000000001,
      "d": 461.53800000000047,
      "v": 72
    },
    {
      "midi": 65,
      "hit": false,
      "t": 23538.43800000001,
      "d": 461.53800000000047,
      "v": 69
    },
    {
      "midi": 55,
      "hit": false,
      "t": 23538.43800000001,
      "d": 461.53800000000047,
      "v": 80
    },
    {
      "midi": 59,
      "hit": false,
      "t": 23538.43800000001,
      "d": 461.53800000000047,
      "v": 61
    },
    {
      "midi": 64,
      "hit": false,
      "t": 23999.97600000001,
      "d": 230.76900000000023,
      "v": 74
    },
    {
      "midi": 48,
      "hit": false,
      "t": 23999.97600000001,
      "d": 461.53800000000047,
      "v": 62
    },
    {
      "midi": 67,
      "hit": false,
      "t": 24230.74500000001,
      "d": 692.3070000000007,
      "v": 82
    },
    {
      "midi": 52,
      "hit": false,
      "t": 24461.51400000001,
      "d": 461.53800000000047,
      "v": 67
    },
    {
      "midi": 55,
      "hit": false,
      "t": 24461.51400000001,
      "d": 461.53800000000047,
      "v": 59
    },
    {
      "midi": 72,
      "hit": false,
      "t": 24923.05200000001,
      "d": 461.53800000000047,
      "v": 74
    },
    {
      "midi": 45,
      "hit": false,
      "t": 24923.05200000001,
      "d": 461.53800000000047,
      "v": 84
    },
    {
      "midi": 72,
      "hit": false,
      "t": 25384.59000000001,
      "d": 461.53800000000047,
      "v": 84
    },
    {
      "midi": 48,
      "hit": false,
      "t": 25384.59000000001,
      "d": 461.53800000000047,
      "v": 69
    },
    {
      "midi": 52,
      "hit": false,
      "t": 25384.59000000001,
      "d": 461.53800000000047,
      "v": 62
    },
    {
      "midi": 69,
      "hit": false,
      "t": 25846.12800000001,
      "d": 230.76900000000023,
      "v": 92
    },
    {
      "midi": 50,
      "hit": false,
      "t": 25846.12800000001,
      "d": 461.53800000000047,
      "v": 80
    },
    {
      "midi": 72,
      "hit": false,
      "t": 26076.89700000001,
      "d": 692.3070000000007,
      "v": 76
    },
    {
      "midi": 53,
      "hit": false,
      "t": 26307.666000000012,
      "d": 461.53800000000047,
      "v": 69
    },
    {
      "midi": 57,
      "hit": false,
      "t": 26307.666000000012,
      "d": 461.53800000000047,
      "v": 60
    },
    {
      "midi": 71,
      "hit": false,
      "t": 26769.204000000012,
      "d": 461.53800000000047,
      "v": 89
    },
    {
      "midi": 43,
      "hit": false,
      "t": 26769.204000000012,
      "d": 461.53800000000047,
      "v": 92
    },
    {
      "midi": 74,
      "hit": false,
      "t": 27230.742000000013,
      "d": 461.53800000000047,
      "v": 82
    },
    {
      "midi": 47,
      "hit": false,
      "t": 27230.742000000013,
      "d": 461.53800000000047,
      "v": 87
    },
    {
      "midi": 50,
      "hit": false,
      "t": 27230.742000000013,
      "d": 461.53800000000047,
      "v": 57
    },
    {
      "midi": 72,
      "hit": false,
      "t": 27692.280000000013,
      "d": 923.0760000000009,
      "v": 74
    },
    {
      "midi": 48,
      "hit": false,
      "t": 27692.280000000013,
      "d": 461.53800000000047,
      "v": 72
    },
    {
      "midi": 52,
      "hit": false,
      "t": 28153.818000000014,
      "d": 461.53800000000047,
      "v": 76
    },
    {
      "midi": 55,
      "hit": false,
      "t": 28153.818000000014,
      "d": 461.53800000000047,
      "v": 65
    },
    {
      "midi": 71,
      "hit": false,
      "t": 28615.356000000014,
      "d": 923.0760000000009,
      "v": 97
    },
    {
      "midi": 43,
      "hit": false,
      "t": 28615.356000000014,
      "d": 461.53800000000047,
      "v": 80
    },
    {
      "midi": 47,
      "hit": false,
      "t": 29076.894000000015,
      "d": 461.53800000000047,
      "v": 87
    },
    {
      "midi": 50,
      "hit": false,
      "t": 29076.894000000015,
      "d": 461.53800000000047,
      "v": 61
    },
    {
      "midi": 72,
      "hit": false,
      "t": 29538.432000000015,
      "d": 692.3070000000007,
      "v": 84
    },
    {
      "midi": 48,
      "hit": false,
      "t": 29538.432000000015,
      "d": 461.53800000000047,
      "v": 66
    },
    {
      "midi": 52,
      "hit": false,
      "t": 29999.970000000016,
      "d": 461.53800000000047,
      "v": 57
    },
    {
      "midi": 55,
      "hit": false,
      "t": 29999.970000000016,
      "d": 461.53800000000047,
      "v": 60
    },
    {
      "midi": 72,
      "hit": false,
      "t": 30230.739000000016,
      "d": 230.76900000000023,
      "v": 68
    },
    {
      "midi": 72,
      "hit": false,
      "t": 30461.508000000016,
      "d": 461.53800000000047,
      "v": 69
    },
    {
      "midi": 48,
      "hit": false,
      "t": 30461.508000000016,
      "d": 461.53800000000047,
      "v": 72
    },
    {
      "midi": 72,
      "hit": false,
      "t": 30923.046000000017,
      "d": 461.53800000000047,
      "v": 69
    },
    {
      "midi": 52,
      "hit": false,
      "t": 30923.046000000017,
      "d": 461.53800000000047,
      "v": 78
    },
    {
      "midi": 55,
      "hit": false,
      "t": 30923.046000000017,
      "d": 461.53800000000047,
      "v": 71
    },
    {
      "midi": 71,
      "hit": false,
      "t": 31384.584000000017,
      "d": 923.0760000000009,
      "v": 89
    },
    {
      "midi": 52,
      "hit": false,
      "t": 31384.584000000017,
      "d": 461.53800000000047,
      "v": 76
    },
    {
      "midi": 55,
      "hit": false,
      "t": 31846.122000000018,
      "d": 461.53800000000047,
      "v": 80
    },
    {
      "midi": 59,
      "hit": false,
      "t": 31846.122000000018,
      "d": 461.53800000000047,
      "v": 67
    },
    {
      "midi": 67,
      "hit": false,
      "t": 32307.660000000018,
      "d": 923.0760000000009,
      "v": 76
    },
    {
      "midi": 52,
      "hit": false,
      "t": 32307.660000000018,
      "d": 461.53800000000047,
      "v": 66
    },
    {
      "midi": 55,
      "hit": false,
      "t": 32769.19800000002,
      "d": 461.53800000000047,
      "v": 80
    },
    {
      "midi": 59,
      "hit": false,
      "t": 32769.19800000002,
      "d": 461.53800000000047,
      "v": 72
    },
    {
      "midi": 69,
      "hit": false,
      "t": 33230.73600000002,
      "d": 923.0760000000009,
      "v": 78
    },
    {
      "midi": 53,
      "hit": false,
      "t": 33230.73600000002,
      "d": 461.53800000000047,
      "v": 92
    },
    {
      "midi": 57,
      "hit": false,
      "t": 33692.27400000002,
      "d": 461.53800000000047,
      "v": 71
    },
    {
      "midi": 60,
      "hit": false,
      "t": 33692.27400000002,
      "d": 461.53800000000047,
      "v": 58
    },
    {
      "midi": 72,
      "hit": false,
      "t": 34153.81200000002,
      "d": 461.53800000000047,
      "v": 82
    },
    {
      "midi": 53,
      "hit": false,
      "t": 34153.81200000002,
      "d": 461.53800000000047,
      "v": 78
    },
    {
      "midi": 72,
      "hit": false,
      "t": 34615.35000000002,
      "d": 461.53800000000047,
      "v": 78
    },
    {
      "midi": 57,
      "hit": false,
      "t": 34615.35000000002,
      "d": 461.53800000000047,
      "v": 74
    },
    {
      "midi": 60,
      "hit": false,
      "t": 34615.35000000002,
      "d": 461.53800000000047,
      "v": 56
    },
    {
      "midi": 67,
      "hit": false,
      "t": 35076.88800000002,
      "d": 1384.6140000000014,
      "v": 76
    },
    {
      "midi": 48,
      "hit": false,
      "t": 35076.88800000002,
      "d": 461.53800000000047,
      "v": 68
    },
    {
      "midi": 52,
      "hit": false,
      "t": 35538.42600000002,
      "d": 461.53800000000047,
      "v": 72
    },
    {
      "midi": 55,
      "hit": false,
      "t": 35538.42600000002,
      "d": 461.53800000000047,
      "v": 60
    },
    {
      "midi": 48,
      "hit": false,
      "t": 35999.96400000002,
      "d": 461.53800000000047,
      "v": 67
    },
    {
      "midi": 67,
      "hit": false,
      "t": 36461.50200000002,
      "d": 461.53800000000047,
      "v": 67
    },
    {
      "midi": 52,
      "hit": false,
      "t": 36461.50200000002,
      "d": 461.53800000000047,
      "v": 67
    },
    {
      "midi": 55,
      "hit": false,
      "t": 36461.50200000002,
      "d": 461.53800000000047,
      "v": 71
    },
    {
      "midi": 65,
      "hit": false,
      "t": 36923.04000000002,
      "d": 230.76900000000023,
      "v": 71
    },
    {
      "midi": 50,
      "hit": false,
      "t": 36923.04000000002,
      "d": 461.53800000000047,
      "v": 72
    },
    {
      "midi": 65,
      "hit": false,
      "t": 37153.80900000002,
      "d": 692.3070000000007,
      "v": 82
    },
    {
      "midi": 53,
      "hit": false,
      "t": 37384.57800000002,
      "d": 461.53800000000047,
      "v": 59
    },
    {
      "midi": 57,
      "hit": false,
      "t": 37384.57800000002,
      "d": 461.53800000000047,
      "v": 59
    },
    {
      "midi": 67,
      "hit": false,
      "t": 37846.11600000002,
      "d": 461.53800000000047,
      "v": 78
    },
    {
      "midi": 50,
      "hit": false,
      "t": 37846.11600000002,
      "d": 461.53800000000047,
      "v": 69
    },
    {
      "midi": 65,
      "hit": false,
      "t": 38307.654000000024,
      "d": 461.53800000000047,
      "v": 76
    },
    {
      "midi": 55,
      "hit": false,
      "t": 38307.654000000024,
      "d": 461.53800000000047,
      "v": 84
    },
    {
      "midi": 59,
      "hit": false,
      "t": 38307.654000000024,
      "d": 461.53800000000047,
      "v": 69
    },
    {
      "midi": 64,
      "hit": false,
      "t": 38769.192000000025,
      "d": 230.76900000000023,
      "v": 74
    },
    {
      "midi": 48,
      "hit": false,
      "t": 38769.192000000025,
      "d": 461.53800000000047,
      "v": 63
    },
    {
      "midi": 67,
      "hit": false,
      "t": 38999.961000000025,
      "d": 692.3070000000007,
      "v": 74
    },
    {
      "midi": 52,
      "hit": false,
      "t": 39230.730000000025,
      "d": 461.53800000000047,
      "v": 69
    },
    {
      "midi": 55,
      "hit": false,
      "t": 39230.730000000025,
      "d": 461.53800000000047,
      "v": 56
    },
    {
      "midi": 72,
      "hit": false,
      "t": 39692.268000000025,
      "d": 461.53800000000047,
      "v": 82
    },
    {
      "midi": 45,
      "hit": false,
      "t": 39692.268000000025,
      "d": 461.53800000000047,
      "v": 76
    },
    {
      "midi": 72,
      "hit": false,
      "t": 40153.806000000026,
      "d": 230.76900000000023,
      "v": 76
    },
    {
      "midi": 48,
      "hit": false,
      "t": 40153.806000000026,
      "d": 461.53800000000047,
      "v": 76
    },
    {
      "midi": 52,
      "hit": false,
      "t": 40153.806000000026,
      "d": 461.53800000000047,
      "v": 64
    },
    {
      "midi": 72,
      "hit": false,
      "t": 40384.575000000026,
      "d": 230.76900000000023,
      "v": 82
    },
    {
      "midi": 72,
      "hit": false,
      "t": 40615.34400000003,
      "d": 461.53800000000047,
      "v": 84
    },
    {
      "midi": 50,
      "hit": false,
      "t": 40615.34400000003,
      "d": 461.53800000000047,
      "v": 65
    },
    {
      "midi": 69,
      "hit": false,
      "t": 41076.88200000003,
      "d": 461.53800000000047,
      "v": 71
    },
    {
      "midi": 54,
      "hit": false,
      "t": 41076.88200000003,
      "d": 461.53800000000047,
      "v": 69
    },
    {
      "midi": 57,
      "hit": false,
      "t": 41076.88200000003,
      "d": 461.53800000000047,
      "v": 59
    },
    {
      "midi": 71,
      "hit": false,
      "t": 41538.42000000003,
      "d": 230.76900000000023,
      "v": 95
    },
    {
      "midi": 50,
      "hit": false,
      "t": 41538.42000000003,
      "d": 461.53800000000047,
      "v": 68
    },
    {
      "midi": 72,
      "hit": false,
      "t": 41769.18900000003,
      "d": 692.3070000000007,
      "v": 84
    },
    {
      "midi": 54,
      "hit": false,
      "t": 41999.95800000003,
      "d": 461.53800000000047,
      "v": 69
    },
    {
      "midi": 57,
      "hit": false,
      "t": 41999.95800000003,
      "d": 461.53800000000047,
      "v": 56
    },
    {
      "midi": 74,
      "hit": false,
      "t": 42461.49600000003,
      "d": 1846.1520000000019,
      "v": 92
    },
    {
      "midi": 43,
      "hit": false,
      "t": 42461.49600000003,
      "d": 461.53800000000047,
      "v": 42
    },
    {
      "midi": 47,
      "hit": false,
      "t": 42923.03400000003,
      "d": 461.53800000000047,
      "v": 101
    },
    {
      "midi": 50,
      "hit": false,
      "t": 42923.03400000003,
      "d": 461.53800000000047,
      "v": 68
    },
    {
      "midi": 43,
      "hit": false,
      "t": 43384.57200000003,
      "d": 461.53800000000047,
      "v": 78
    },
    {
      "midi": 47,
      "hit": false,
      "t": 43846.11000000003,
      "d": 461.53800000000047,
      "v": 95
    },
    {
      "midi": 50,
      "hit": false,
      "t": 43846.11000000003,
      "d": 461.53800000000047,
      "v": 64
    },
    {
      "midi": 72,
      "hit": false,
      "t": 44307.64800000003,
      "d": 692.3070000000007,
      "v": 82
    },
    {
      "midi": 48,
      "hit": false,
      "t": 44307.64800000003,
      "d": 461.53800000000047,
      "v": 84
    },
    {
      "midi": 52,
      "hit": false,
      "t": 44769.18600000003,
      "d": 461.53800000000047,
      "v": 80
    },
    {
      "midi": 55,
      "hit": false,
      "t": 44769.18600000003,
      "d": 461.53800000000047,
      "v": 64
    },
    {
      "midi": 72,
      "hit": false,
      "t": 44999.95500000003,
      "d": 230.76900000000023,
      "v": 87
    },
    {
      "midi": 72,
      "hit": false,
      "t": 45230.72400000003,
      "d": 461.53800000000047,
      "v": 55
    },
    {
      "midi": 48,
      "hit": false,
      "t": 45230.72400000003,
      "d": 461.53800000000047,
      "v": 67
    },
    {
      "midi": 72,
      "hit": false,
      "t": 45692.26200000003,
      "d": 461.53800000000047,
      "v": 78
    },
    {
      "midi": 52,
      "hit": false,
      "t": 45692.26200000003,
      "d": 461.53800000000047,
      "v": 80
    },
    {
      "midi": 55,
      "hit": false,
      "t": 45692.26200000003,
      "d": 461.53800000000047,
      "v": 67
    },
    {
      "midi": 71,
      "hit": false,
      "t": 46153.80000000003,
      "d": 923.0760000000009,
      "v": 95
    },
    {
      "midi": 52,
      "hit": false,
      "t": 46153.80000000003,
      "d": 461.53800000000047,
      "v": 71
    },
    {
      "midi": 55,
      "hit": false,
      "t": 46615.33800000003,
      "d": 461.53800000000047,
      "v": 71
    },
    {
      "midi": 59,
      "hit": false,
      "t": 46615.33800000003,
      "d": 461.53800000000047,
      "v": 66
    },
    {
      "midi": 67,
      "hit": false,
      "t": 47076.87600000003,
      "d": 923.0760000000009,
      "v": 87
    },
    {
      "midi": 52,
      "hit": false,
      "t": 47076.87600000003,
      "d": 461.53800000000047,
      "v": 74
    },
    {
      "midi": 55,
      "hit": false,
      "t": 47538.41400000003,
      "d": 461.53800000000047,
      "v": 78
    },
    {
      "midi": 59,
      "hit": false,
      "t": 47538.41400000003,
      "d": 461.53800000000047,
      "v": 66
    },
    {
      "midi": 69,
      "hit": false,
      "t": 47999.952000000034,
      "d": 923.0760000000009,
      "v": 92
    },
    {
      "midi": 53,
      "hit": false,
      "t": 47999.952000000034,
      "d": 461.53800000000047,
      "v": 82
    },
    {
      "midi": 57,
      "hit": false,
      "t": 48461.490000000034,
      "d": 461.53800000000047,
      "v": 71
    },
    {
      "midi": 60,
      "hit": false,
      "t": 48461.490000000034,
      "d": 461.53800000000047,
      "v": 63
    },
    {
      "midi": 72,
      "hit": false,
      "t": 48923.028000000035,
      "d": 461.53800000000047,
      "v": 87
    },
    {
      "midi": 53,
      "hit": false,
      "t": 48923.028000000035,
      "d": 461.53800000000047,
      "v": 78
    },
    {
      "midi": 72,
      "hit": false,
      "t": 49384.566000000035,
      "d": 461.53800000000047,
      "v": 72
    },
    {
      "midi": 57,
      "hit": false,
      "t": 49384.566000000035,
      "d": 461.53800000000047,
      "v": 71
    },
    {
      "midi": 60,
      "hit": false,
      "t": 49384.566000000035,
      "d": 461.53800000000047,
      "v": 59
    },
    {
      "midi": 67,
      "hit": false,
      "t": 49846.104000000036,
      "d": 1384.6140000000014,
      "v": 82
    },
    {
      "midi": 48,
      "hit": false,
      "t": 49846.104000000036,
      "d": 461.53800000000047,
      "v": 76
    },
    {
      "midi": 52,
      "hit": false,
      "t": 50307.642000000036,
      "d": 461.53800000000047,
      "v": 66
    },
    {
      "midi": 55,
      "hit": false,
      "t": 50307.642000000036,
      "d": 461.53800000000047,
      "v": 59
    },
    {
      "midi": 48,
      "hit": false,
      "t": 50769.18000000004,
      "d": 461.53800000000047,
      "v": 71
    },
    {
      "midi": 67,
      "hit": false,
      "t": 51230.71800000004,
      "d": 461.53800000000047,
      "v": 92
    },
    {
      "midi": 52,
      "hit": false,
      "t": 51230.71800000004,
      "d": 461.53800000000047,
      "v": 74
    },
    {
      "midi": 55,
      "hit": false,
      "t": 51230.71800000004,
      "d": 461.53800000000047,
      "v": 68
    },
    {
      "midi": 65,
      "hit": false,
      "t": 51692.25600000004,
      "d": 230.76900000000023,
      "v": 80
    },
    {
      "midi": 50,
      "hit": false,
      "t": 51692.25600000004,
      "d": 461.53800000000047,
      "v": 78
    },
    {
      "midi": 65,
      "hit": false,
      "t": 51923.02500000004,
      "d": 692.3070000000007,
      "v": 92
    },
    {
      "midi": 53,
      "hit": false,
      "t": 52153.79400000004,
      "d": 461.53800000000047,
      "v": 71
    },
    {
      "midi": 57,
      "hit": false,
      "t": 52153.79400000004,
      "d": 461.53800000000047,
      "v": 64
    },
    {
      "midi": 67,
      "hit": false,
      "t": 52615.33200000004,
      "d": 461.53800000000047,
      "v": 87
    },
    {
      "midi": 50,
      "hit": false,
      "t": 52615.33200000004,
      "d": 461.53800000000047,
      "v": 67
    },
    {
      "midi": 65,
      "hit": false,
      "t": 53076.87000000004,
      "d": 461.53800000000047,
      "v": 76
    },
    {
      "midi": 55,
      "hit": false,
      "t": 53076.87000000004,
      "d": 461.53800000000047,
      "v": 82
    },
    {
      "midi": 59,
      "hit": false,
      "t": 53076.87000000004,
      "d": 461.53800000000047,
      "v": 63
    },
    {
      "midi": 64,
      "hit": false,
      "t": 53538.40800000004,
      "d": 230.76900000000023,
      "v": 76
    },
    {
      "midi": 48,
      "hit": false,
      "t": 53538.40800000004,
      "d": 461.53800000000047,
      "v": 67
    },
    {
      "midi": 67,
      "hit": false,
      "t": 53769.17700000004,
      "d": 692.3070000000007,
      "v": 92
    },
    {
      "midi": 52,
      "hit": false,
      "t": 53999.94600000004,
      "d": 461.53800000000047,
      "v": 67
    },
    {
      "midi": 55,
      "hit": false,
      "t": 53999.94600000004,
      "d": 461.53800000000047,
      "v": 61
    },
    {
      "midi": 72,
      "hit": false,
      "t": 54461.48400000004,
      "d": 461.53800000000047,
      "v": 82
    },
    {
      "midi": 45,
      "hit": false,
      "t": 54461.48400000004,
      "d": 461.53800000000047,
      "v": 82
    },
    {
      "midi": 72,
      "hit": false,
      "t": 54923.02200000004,
      "d": 230.76900000000023,
      "v": 80
    },
    {
      "midi": 48,
      "hit": false,
      "t": 54923.02200000004,
      "d": 461.53800000000047,
      "v": 68
    },
    {
      "midi": 52,
      "hit": false,
      "t": 54923.02200000004,
      "d": 461.53800000000047,
      "v": 62
    },
    {
      "midi": 72,
      "hit": false,
      "t": 55153.79100000004,
      "d": 230.76900000000023,
      "v": 78
    },
    {
      "midi": 69,
      "hit": false,
      "t": 55384.56000000004,
      "d": 461.53800000000047,
      "v": 76
    },
    {
      "midi": 50,
      "hit": false,
      "t": 55384.56000000004,
      "d": 461.53800000000047,
      "v": 72
    },
    {
      "midi": 72,
      "hit": false,
      "t": 55846.09800000004,
      "d": 461.53800000000047,
      "v": 80
    },
    {
      "midi": 53,
      "hit": false,
      "t": 55846.09800000004,
      "d": 461.53800000000047,
      "v": 64
    },
    {
      "midi": 57,
      "hit": false,
      "t": 55846.09800000004,
      "d": 461.53800000000047,
      "v": 61
    },
    {
      "midi": 71,
      "hit": false,
      "t": 56307.63600000004,
      "d": 230.76900000000023,
      "v": 89
    },
    {
      "midi": 43,
      "hit": false,
      "t": 56307.63600000004,
      "d": 461.53800000000047,
      "v": 87
    },
    {
      "midi": 74,
      "hit": false,
      "t": 56538.40500000004,
      "d": 692.3070000000007,
      "v": 89
    },
    {
      "midi": 47,
      "hit": false,
      "t": 56769.17400000004,
      "d": 461.53800000000047,
      "v": 95
    },
    {
      "midi": 50,
      "hit": false,
      "t": 56769.17400000004,
      "d": 461.53800000000047,
      "v": 63
    },
    {
      "midi": 72,
      "hit": false,
      "t": 57230.71200000004,
      "d": 1384.6140000000014,
      "v": 89
    },
    {
      "midi": 48,
      "hit": false,
      "t": 57230.71200000004,
      "d": 461.53800000000047,
      "v": 71
    },
    {
      "midi": 52,
      "hit": false,
      "t": 57692.250000000044,
      "d": 461.53800000000047,
      "v": 74
    },
    {
      "midi": 55,
      "hit": false,
      "t": 57692.250000000044,
      "d": 461.53800000000047,
      "v": 65
    },
    {
      "midi": 48,
      "hit": false,
      "t": 58153.788000000044,
      "d": 461.53800000000047,
      "v": 74
    },
    {
      "midi": 52,
      "hit": false,
      "t": 58615.326000000045,
      "d": 461.53800000000047,
      "v": 69
    },
    {
      "midi": 55,
      "hit": false,
      "t": 58615.326000000045,
      "d": 461.53800000000047,
      "v": 66
    },
    {
      "midi": 72,
      "hit": false,
      "t": 58846.095000000045,
      "d": 230.76900000000023,
      "v": 101
    },
    {
      "midi": 72,
      "hit": false,
      "t": 59076.864000000045,
      "d": 461.53800000000047,
      "v": 89
    },
    {
      "midi": 48,
      "hit": false,
      "t": 59076.864000000045,
      "d": 461.53800000000047,
      "v": 69
    },
    {
      "midi": 72,
      "hit": false,
      "t": 59538.402000000046,
      "d": 461.53800000000047,
      "v": 87
    },
    {
      "midi": 52,
      "hit": false,
      "t": 59538.402000000046,
      "d": 461.53800000000047,
      "v": 74
    },
    {
      "midi": 55,
      "hit": false,
      "t": 59538.402000000046,
      "d": 461.53800000000047,
      "v": 64
    },
    {
      "midi": 72,
      "hit": false,
      "t": 59999.940000000046,
      "d": 461.53800000000047,
      "v": 74
    },
    {
      "midi": 48,
      "hit": false,
      "t": 59999.940000000046,
      "d": 461.53800000000047,
      "v": 71
    },
    {
      "midi": 72,
      "hit": false,
      "t": 60461.47800000005,
      "d": 461.53800000000047,
      "v": 84
    },
    {
      "midi": 52,
      "hit": false,
      "t": 60461.47800000005,
      "d": 461.53800000000047,
      "v": 71
    },
    {
      "midi": 55,
      "hit": false,
      "t": 60461.47800000005,
      "d": 461.53800000000047,
      "v": 65
    },
    {
      "midi": 71,
      "hit": false,
      "t": 60923.01600000005,
      "d": 461.53800000000047,
      "v": 92
    },
    {
      "midi": 52,
      "hit": false,
      "t": 60923.01600000005,
      "d": 461.53800000000047,
      "v": 78
    },
    {
      "midi": 67,
      "hit": false,
      "t": 61384.55400000005,
      "d": 923.0760000000009,
      "v": 80
    },
    {
      "midi": 55,
      "hit": false,
      "t": 61384.55400000005,
      "d": 461.53800000000047,
      "v": 68
    },
    {
      "midi": 59,
      "hit": false,
      "t": 61384.55400000005,
      "d": 461.53800000000047,
      "v": 67
    },
    {
      "midi": 52,
      "hit": false,
      "t": 61846.09200000005,
      "d": 461.53800000000047,
      "v": 71
    },
    {
      "midi": 67,
      "hit": false,
      "t": 62307.63000000005,
      "d": 230.76900000000023,
      "v": 78
    },
    {
      "midi": 55,
      "hit": false,
      "t": 62307.63000000005,
      "d": 461.53800000000047,
      "v": 78
    },
    {
      "midi": 59,
      "hit": false,
      "t": 62307.63000000005,
      "d": 461.53800000000047,
      "v": 72
    },
    {
      "midi": 67,
      "hit": false,
      "t": 62538.39900000005,
      "d": 230.76900000000023,
      "v": 89
    },
    {
      "midi": 69,
      "hit": false,
      "t": 62769.16800000005,
      "d": 461.53800000000047,
      "v": 84
    },
    {
      "midi": 53,
      "hit": false,
      "t": 62769.16800000005,
      "d": 461.53800000000047,
      "v": 65
    },
    {
      "midi": 69,
      "hit": false,
      "t": 63230.70600000005,
      "d": 461.53800000000047,
      "v": 84
    },
    {
      "midi": 57,
      "hit": false,
      "t": 63230.70600000005,
      "d": 461.53800000000047,
      "v": 67
    },
    {
      "midi": 60,
      "hit": false,
      "t": 63230.70600000005,
      "d": 461.53800000000047,
      "v": 64
    },
    {
      "midi": 69,
      "hit": false,
      "t": 63692.24400000005,
      "d": 230.76900000000023,
      "v": 82
    },
    {
      "midi": 53,
      "hit": false,
      "t": 63692.24400000005,
      "d": 461.53800000000047,
      "v": 71
    },
    {
      "midi": 72,
      "hit": false,
      "t": 63923.01300000005,
      "d": 692.3070000000007,
      "v": 76
    },
    {
      "midi": 57,
      "hit": false,
      "t": 64153.78200000005,
      "d": 461.53800000000047,
      "v": 68
    },
    {
      "midi": 60,
      "hit": false,
      "t": 64153.78200000005,
      "d": 461.53800000000047,
      "v": 61
    },
    {
      "midi": 67,
      "hit": false,
      "t": 64615.32000000005,
      "d": 1846.1520000000019,
      "v": 82
    },
    {
      "midi": 48,
      "hit": false,
      "t": 64615.32000000005,
      "d": 461.53800000000047,
      "v": 72
    },
    {
      "midi": 52,
      "hit": false,
      "t": 65076.85800000005,
      "d": 461.53800000000047,
      "v": 72
    },
    {
      "midi": 55,
      "hit": false,
      "t": 65076.85800000005,
      "d": 461.53800000000047,
      "v": 56
    },
    {
      "midi": 48,
      "hit": false,
      "t": 65538.39600000005,
      "d": 461.53800000000047,
      "v": 68
    },
    {
      "midi": 52,
      "hit": false,
      "t": 65999.93400000005,
      "d": 461.53800000000047,
      "v": 68
    },
    {
      "midi": 55,
      "hit": false,
      "t": 65999.93400000005,
      "d": 461.53800000000047,
      "v": 63
    },
    {
      "midi": 65,
      "hit": false,
      "t": 66461.47200000005,
      "d": 230.76900000000023,
      "v": 76
    },
    {
      "midi": 50,
      "hit": false,
      "t": 66461.47200000005,
      "d": 461.53800000000047,
      "v": 68
    },
    {
      "midi": 65,
      "hit": false,
      "t": 66692.24100000005,
      "d": 692.3070000000007,
      "v": 87
    },
    {
      "midi": 53,
      "hit": false,
      "t": 66923.01000000005,
      "d": 461.53800000000047,
      "v": 61
    },
    {
      "midi": 57,
      "hit": false,
      "t": 66923.01000000005,
      "d": 461.53800000000047,
      "v": 59
    },
    {
      "midi": 67,
      "hit": false,
      "t": 67384.54800000005,
      "d": 461.53800000000047,
      "v": 74
    },
    {
      "midi": 50,
      "hit": false,
      "t": 67384.54800000005,
      "d": 461.53800000000047,
      "v": 65
    },
    {
      "midi": 65,
      "hit": false,
      "t": 67846.08600000005,
      "d": 461.53800000000047,
      "v": 72
    },
    {
      "midi": 55,
      "hit": false,
      "t": 67846.08600000005,
      "d": 461.53800000000047,
      "v": 76
    },
    {
      "midi": 59,
      "hit": false,
      "t": 67846.08600000005,
      "d": 461.53800000000047,
      "v": 60
    },
    {
      "midi": 64,
      "hit": false,
      "t": 68307.62400000005,
      "d": 230.76900000000023,
      "v": 76
    },
    {
      "midi": 48,
      "hit": false,
      "t": 68307.62400000005,
      "d": 461.53800000000047,
      "v": 67
    },
    {
      "midi": 67,
      "hit": false,
      "t": 68538.39300000005,
      "d": 692.3070000000007,
      "v": 80
    },
    {
      "midi": 52,
      "hit": false,
      "t": 68769.16200000005,
      "d": 461.53800000000047,
      "v": 74
    },
    {
      "midi": 55,
      "hit": false,
      "t": 68769.16200000005,
      "d": 461.53800000000047,
      "v": 55
    },
    {
      "midi": 72,
      "hit": false,
      "t": 69230.70000000006,
      "d": 461.53800000000047,
      "v": 80
    },
    {
      "midi": 45,
      "hit": false,
      "t": 69230.70000000006,
      "d": 461.53800000000047,
      "v": 84
    },
    {
      "midi": 72,
      "hit": false,
      "t": 69692.23800000006,
      "d": 461.53800000000047,
      "v": 69
    },
    {
      "midi": 48,
      "hit": false,
      "t": 69692.23800000006,
      "d": 461.53800000000047,
      "v": 76
    },
    {
      "midi": 52,
      "hit": false,
      "t": 69692.23800000006,
      "d": 461.53800000000047,
      "v": 64
    },
    {
      "midi": 72,
      "hit": false,
      "t": 70153.77600000006,
      "d": 461.53800000000047,
      "v": 78
    },
    {
      "midi": 50,
      "hit": false,
      "t": 70153.77600000006,
      "d": 461.53800000000047,
      "v": 84
    },
    {
      "midi": 69,
      "hit": false,
      "t": 70615.31400000006,
      "d": 461.53800000000047,
      "v": 78
    },
    {
      "midi": 54,
      "hit": false,
      "t": 70615.31400000006,
      "d": 461.53800000000047,
      "v": 53
    },
    {
      "midi": 57,
      "hit": false,
      "t": 70615.31400000006,
      "d": 461.53800000000047,
      "v": 59
    },
    {
      "midi": 71,
      "hit": false,
      "t": 71076.85200000006,
      "d": 230.76900000000023,
      "v": 87
    },
    {
      "midi": 50,
      "hit": false,
      "t": 71076.85200000006,
      "d": 461.53800000000047,
      "v": 71
    },
    {
      "midi": 72,
      "hit": false,
      "t": 71307.62100000006,
      "d": 692.3070000000007,
      "v": 78
    },
    {
      "midi": 54,
      "hit": false,
      "t": 71538.39000000006,
      "d": 461.53800000000047,
      "v": 65
    },
    {
      "midi": 57,
      "hit": false,
      "t": 71538.39000000006,
      "d": 461.53800000000047,
      "v": 64
    },
    {
      "midi": 74,
      "hit": false,
      "t": 71999.92800000006,
      "d": 1846.1520000000019,
      "v": 89
    },
    {
      "midi": 43,
      "hit": false,
      "t": 71999.92800000006,
      "d": 461.53800000000047,
      "v": 68
    },
    {
      "midi": 47,
      "hit": false,
      "t": 72461.46600000006,
      "d": 461.53800000000047,
      "v": 92
    },
    {
      "midi": 50,
      "hit": false,
      "t": 72461.46600000006,
      "d": 461.53800000000047,
      "v": 62
    },
    {
      "midi": 43,
      "hit": false,
      "t": 72923.00400000006,
      "d": 461.53800000000047,
      "v": 65
    },
    {
      "midi": 47,
      "hit": false,
      "t": 73384.54200000006,
      "d": 461.53800000000047,
      "v": 78
    },
    {
      "midi": 50,
      "hit": false,
      "t": 73384.54200000006,
      "d": 461.53800000000047,
      "v": 61
    },
    {
      "midi": 72,
      "hit": false,
      "t": 73846.08000000006,
      "d": 461.53800000000047,
      "v": 82
    },
    {
      "midi": 48,
      "hit": false,
      "t": 73846.08000000006,
      "d": 461.53800000000047,
      "v": 69
    },
    {
      "midi": 72,
      "hit": false,
      "t": 74307.61800000006,
      "d": 461.53800000000047,
      "v": 89
    },
    {
      "midi": 52,
      "hit": false,
      "t": 74307.61800000006,
      "d": 461.53800000000047,
      "v": 69
    },
    {
      "midi": 55,
      "hit": false,
      "t": 74307.61800000006,
      "d": 461.53800000000047,
      "v": 63
    },
    {
      "midi": 72,
      "hit": false,
      "t": 74769.15600000006,
      "d": 461.53800000000047,
      "v": 69
    },
    {
      "midi": 48,
      "hit": false,
      "t": 74769.15600000006,
      "d": 461.53800000000047,
      "v": 68
    },
    {
      "midi": 72,
      "hit": false,
      "t": 75230.69400000006,
      "d": 461.53800000000047,
      "v": 82
    },
    {
      "midi": 52,
      "hit": false,
      "t": 75230.69400000006,
      "d": 461.53800000000047,
      "v": 82
    },
    {
      "midi": 55,
      "hit": false,
      "t": 75230.69400000006,
      "d": 461.53800000000047,
      "v": 66
    },
    {
      "midi": 71,
      "hit": false,
      "t": 75692.23200000006,
      "d": 461.53800000000047,
      "v": 89
    },
    {
      "midi": 52,
      "hit": false,
      "t": 75692.23200000006,
      "d": 461.53800000000047,
      "v": 76
    },
    {
      "midi": 67,
      "hit": false,
      "t": 76153.77000000006,
      "d": 923.0760000000009,
      "v": 82
    },
    {
      "midi": 55,
      "hit": false,
      "t": 76153.77000000006,
      "d": 461.53800000000047,
      "v": 64
    },
    {
      "midi": 59,
      "hit": false,
      "t": 76153.77000000006,
      "d": 461.53800000000047,
      "v": 69
    },
    {
      "midi": 52,
      "hit": false,
      "t": 76615.30800000006,
      "d": 461.53800000000047,
      "v": 71
    },
    {
      "midi": 67,
      "hit": false,
      "t": 77076.84600000006,
      "d": 461.53800000000047,
      "v": 82
    },
    {
      "midi": 55,
      "hit": false,
      "t": 77076.84600000006,
      "d": 461.53800000000047,
      "v": 78
    },
    {
      "midi": 59,
      "hit": false,
      "t": 77076.84600000006,
      "d": 461.53800000000047,
      "v": 80
    },
    {
      "midi": 69,
      "hit": false,
      "t": 77538.38400000006,
      "d": 461.53800000000047,
      "v": 80
    },
    {
      "midi": 53,
      "hit": false,
      "t": 77538.38400000006,
      "d": 461.53800000000047,
      "v": 57
    },
    {
      "midi": 69,
      "hit": false,
      "t": 77999.92200000006,
      "d": 461.53800000000047,
      "v": 80
    },
    {
      "midi": 57,
      "hit": false,
      "t": 77999.92200000006,
      "d": 461.53800000000047,
      "v": 71
    },
    {
      "midi": 60,
      "hit": false,
      "t": 77999.92200000006,
      "d": 461.53800000000047,
      "v": 67
    },
    {
      "midi": 72,
      "hit": false,
      "t": 78461.46000000006,
      "d": 461.53800000000047,
      "v": 80
    },
    {
      "midi": 53,
      "hit": false,
      "t": 78461.46000000006,
      "d": 461.53800000000047,
      "v": 78
    },
    {
      "midi": 72,
      "hit": false,
      "t": 78922.99800000007,
      "d": 461.53800000000047,
      "v": 61
    },
    {
      "midi": 57,
      "hit": false,
      "t": 78922.99800000007,
      "d": 461.53800000000047,
      "v": 68
    },
    {
      "midi": 60,
      "hit": false,
      "t": 78922.99800000007,
      "d": 461.53800000000047,
      "v": 64
    },
    {
      "midi": 67,
      "hit": false,
      "t": 79384.53600000007,
      "d": 1846.1520000000019,
      "v": 82
    },
    {
      "midi": 48,
      "hit": false,
      "t": 79384.53600000007,
      "d": 461.53800000000047,
      "v": 69
    },
    {
      "midi": 52,
      "hit": false,
      "t": 79846.07400000007,
      "d": 461.53800000000047,
      "v": 64
    },
    {
      "midi": 55,
      "hit": false,
      "t": 79846.07400000007,
      "d": 461.53800000000047,
      "v": 57
    },
    {
      "midi": 48,
      "hit": false,
      "t": 80307.61200000007,
      "d": 461.53800000000047,
      "v": 72
    },
    {
      "midi": 52,
      "hit": false,
      "t": 80769.15000000007,
      "d": 461.53800000000047,
      "v": 71
    },
    {
      "midi": 55,
      "hit": false,
      "t": 80769.15000000007,
      "d": 461.53800000000047,
      "v": 68
    },
    {
      "midi": 65,
      "hit": false,
      "t": 81230.68800000007,
      "d": 461.53800000000047,
      "v": 74
    },
    {
      "midi": 50,
      "hit": false,
      "t": 81230.68800000007,
      "d": 461.53800000000047,
      "v": 74
    },
    {
      "midi": 65,
      "hit": false,
      "t": 81692.22600000007,
      "d": 461.53800000000047,
      "v": 72
    },
    {
      "midi": 53,
      "hit": false,
      "t": 81692.22600000007,
      "d": 461.53800000000047,
      "v": 65
    },
    {
      "midi": 57,
      "hit": false,
      "t": 81692.22600000007,
      "d": 461.53800000000047,
      "v": 62
    },
    {
      "midi": 67,
      "hit": false,
      "t": 82153.76400000007,
      "d": 461.53800000000047,
      "v": 89
    },
    {
      "midi": 50,
      "hit": false,
      "t": 82153.76400000007,
      "d": 461.53800000000047,
      "v": 72
    },
    {
      "midi": 65,
      "hit": false,
      "t": 82615.30200000007,
      "d": 461.53800000000047,
      "v": 80
    },
    {
      "midi": 55,
      "hit": false,
      "t": 82615.30200000007,
      "d": 461.53800000000047,
      "v": 82
    },
    {
      "midi": 59,
      "hit": false,
      "t": 82615.30200000007,
      "d": 461.53800000000047,
      "v": 63
    },
    {
      "midi": 64,
      "hit": false,
      "t": 83076.84000000007,
      "d": 230.76900000000023,
      "v": 82
    },
    {
      "midi": 48,
      "hit": false,
      "t": 83076.84000000007,
      "d": 461.53800000000047,
      "v": 63
    },
    {
      "midi": 67,
      "hit": false,
      "t": 83307.60900000007,
      "d": 692.3070000000007,
      "v": 95
    },
    {
      "midi": 52,
      "hit": false,
      "t": 83538.37800000007,
      "d": 461.53800000000047,
      "v": 72
    },
    {
      "midi": 55,
      "hit": false,
      "t": 83538.37800000007,
      "d": 461.53800000000047,
      "v": 58
    },
    {
      "midi": 72,
      "hit": false,
      "t": 83999.91600000007,
      "d": 461.53800000000047,
      "v": 82
    },
    {
      "midi": 45,
      "hit": false,
      "t": 83999.91600000007,
      "d": 461.53800000000047,
      "v": 82
    },
    {
      "midi": 72,
      "hit": false,
      "t": 84461.45400000007,
      "d": 461.53800000000047,
      "v": 82
    },
    {
      "midi": 48,
      "hit": false,
      "t": 84461.45400000007,
      "d": 461.53800000000047,
      "v": 63
    },
    {
      "midi": 52,
      "hit": false,
      "t": 84461.45400000007,
      "d": 461.53800000000047,
      "v": 64
    },
    {
      "midi": 69,
      "hit": false,
      "t": 84922.99200000007,
      "d": 461.53800000000047,
      "v": 82
    },
    {
      "midi": 50,
      "hit": false,
      "t": 84922.99200000007,
      "d": 461.53800000000047,
      "v": 54
    },
    {
      "midi": 72,
      "hit": false,
      "t": 85384.53000000007,
      "d": 461.53800000000047,
      "v": 71
    },
    {
      "midi": 53,
      "hit": false,
      "t": 85384.53000000007,
      "d": 461.53800000000047,
      "v": 55
    },
    {
      "midi": 57,
      "hit": false,
      "t": 85384.53000000007,
      "d": 461.53800000000047,
      "v": 62
    },
    {
      "midi": 71,
      "hit": false,
      "t": 85846.06800000007,
      "d": 461.53800000000047,
      "v": 87
    },
    {
      "midi": 43,
      "hit": false,
      "t": 85846.06800000007,
      "d": 461.53800000000047,
      "v": 82
    },
    {
      "midi": 74,
      "hit": false,
      "t": 86307.60600000007,
      "d": 461.53800000000047,
      "v": 92
    },
    {
      "midi": 47,
      "hit": false,
      "t": 86307.60600000007,
      "d": 461.53800000000047,
      "v": 92
    },
    {
      "midi": 50,
      "hit": false,
      "t": 86307.60600000007,
      "d": 461.53800000000047,
      "v": 59
    },
    {
      "midi": 72,
      "hit": false,
      "t": 86769.14400000007,
      "d": 923.0760000000009,
      "v": 76
    },
    {
      "midi": 48,
      "hit": false,
      "t": 86769.14400000007,
      "d": 461.53800000000047,
      "v": 59
    },
    {
      "midi": 52,
      "hit": false,
      "t": 87230.68200000007,
      "d": 461.53800000000047,
      "v": 80
    },
    {
      "midi": 55,
      "hit": false,
      "t": 87230.68200000007,
      "d": 461.53800000000047,
      "v": 66
    },
    {
      "midi": 71,
      "hit": false,
      "t": 87692.22000000007,
      "d": 923.0760000000009,
      "v": 101
    },
    {
      "midi": 43,
      "hit": false,
      "t": 87692.22000000007,
      "d": 461.53800000000047,
      "v": 82
    },
    {
      "midi": 47,
      "hit": false,
      "t": 88153.75800000007,
      "d": 461.53800000000047,
      "v": 108
    },
    {
      "midi": 50,
      "hit": false,
      "t": 88153.75800000007,
      "d": 461.53800000000047,
      "v": 72
    },
    {
      "midi": 72,
      "hit": false,
      "t": 88615.29600000007,
      "d": 692.3070000000007,
      "v": 68
    },
    {
      "midi": 48,
      "hit": false,
      "t": 88615.29600000007,
      "d": 461.53800000000047,
      "v": 80
    },
    {
      "midi": 52,
      "hit": false,
      "t": 89076.83400000008,
      "d": 461.53800000000047,
      "v": 66
    },
    {
      "midi": 55,
      "hit": false,
      "t": 89076.83400000008,
      "d": 461.53800000000047,
      "v": 64
    },
    {
      "midi": 72,
      "hit": false,
      "t": 89307.60300000008,
      "d": 230.76900000000023,
      "v": 89
    },
    {
      "midi": 72,
      "hit": false,
      "t": 89538.37200000008,
      "d": 461.53800000000047,
      "v": 89
    },
    {
      "midi": 48,
      "hit": false,
      "t": 89538.37200000008,
      "d": 461.53800000000047,
      "v": 71
    },
    {
      "midi": 72,
      "hit": false,
      "t": 89999.91000000008,
      "d": 461.53800000000047,
      "v": 76
    },
    {
      "midi": 52,
      "hit": false,
      "t": 89999.91000000008,
      "d": 461.53800000000047,
      "v": 71
    },
    {
      "midi": 55,
      "hit": false,
      "t": 89999.91000000008,
      "d": 461.53800000000047,
      "v": 78
    },
    {
      "midi": 71,
      "hit": false,
      "t": 90461.44800000008,
      "d": 923.0760000000009,
      "v": 97
    },
    {
      "midi": 52,
      "hit": false,
      "t": 90461.44800000008,
      "d": 461.53800000000047,
      "v": 82
    },
    {
      "midi": 55,
      "hit": false,
      "t": 90922.98600000008,
      "d": 461.53800000000047,
      "v": 65
    },
    {
      "midi": 59,
      "hit": false,
      "t": 90922.98600000008,
      "d": 461.53800000000047,
      "v": 69
    },
    {
      "midi": 67,
      "hit": false,
      "t": 91384.52400000008,
      "d": 923.0760000000009,
      "v": 84
    },
    {
      "midi": 52,
      "hit": false,
      "t": 91384.52400000008,
      "d": 461.53800000000047,
      "v": 69
    },
    {
      "midi": 55,
      "hit": false,
      "t": 91846.06200000008,
      "d": 461.53800000000047,
      "v": 68
    },
    {
      "midi": 59,
      "hit": false,
      "t": 91846.06200000008,
      "d": 461.53800000000047,
      "v": 80
    },
    {
      "midi": 69,
      "hit": false,
      "t": 92307.60000000008,
      "d": 923.0760000000009,
      "v": 84
    },
    {
      "midi": 53,
      "hit": false,
      "t": 92307.60000000008,
      "d": 461.53800000000047,
      "v": 68
    },
    {
      "midi": 57,
      "hit": false,
      "t": 92769.13800000008,
      "d": 461.53800000000047,
      "v": 72
    },
    {
      "midi": 60,
      "hit": false,
      "t": 92769.13800000008,
      "d": 461.53800000000047,
      "v": 64
    },
    {
      "midi": 72,
      "hit": false,
      "t": 93230.67600000008,
      "d": 461.53800000000047,
      "v": 89
    },
    {
      "midi": 53,
      "hit": false,
      "t": 93230.67600000008,
      "d": 461.53800000000047,
      "v": 76
    },
    {
      "midi": 72,
      "hit": false,
      "t": 93692.21400000008,
      "d": 461.53800000000047,
      "v": 69
    },
    {
      "midi": 57,
      "hit": false,
      "t": 93692.21400000008,
      "d": 461.53800000000047,
      "v": 71
    },
    {
      "midi": 60,
      "hit": false,
      "t": 93692.21400000008,
      "d": 461.53800000000047,
      "v": 62
    },
    {
      "midi": 67,
      "hit": false,
      "t": 94153.75200000008,
      "d": 1384.6140000000014,
      "v": 87
    },
    {
      "midi": 48,
      "hit": false,
      "t": 94153.75200000008,
      "d": 461.53800000000047,
      "v": 65
    },
    {
      "midi": 52,
      "hit": false,
      "t": 94615.29000000008,
      "d": 461.53800000000047,
      "v": 69
    },
    {
      "midi": 55,
      "hit": false,
      "t": 94615.29000000008,
      "d": 461.53800000000047,
      "v": 69
    },
    {
      "midi": 48,
      "hit": false,
      "t": 95076.82800000008,
      "d": 461.53800000000047,
      "v": 63
    },
    {
      "midi": 67,
      "hit": false,
      "t": 95538.36600000008,
      "d": 461.53800000000047,
      "v": 76
    },
    {
      "midi": 52,
      "hit": false,
      "t": 95538.36600000008,
      "d": 461.53800000000047,
      "v": 69
    },
    {
      "midi": 55,
      "hit": false,
      "t": 95538.36600000008,
      "d": 461.53800000000047,
      "v": 67
    },
    {
      "midi": 65,
      "hit": false,
      "t": 95999.90400000008,
      "d": 230.76900000000023,
      "v": 71
    },
    {
      "midi": 50,
      "hit": false,
      "t": 95999.90400000008,
      "d": 461.53800000000047,
      "v": 65
    },
    {
      "midi": 65,
      "hit": false,
      "t": 96230.67300000008,
      "d": 692.3070000000007,
      "v": 89
    },
    {
      "midi": 53,
      "hit": false,
      "t": 96461.44200000008,
      "d": 461.53800000000047,
      "v": 61
    },
    {
      "midi": 57,
      "hit": false,
      "t": 96461.44200000008,
      "d": 461.53800000000047,
      "v": 63
    },
    {
      "midi": 67,
      "hit": false,
      "t": 96922.98000000008,
      "d": 461.53800000000047,
      "v": 87
    },
    {
      "midi": 50,
      "hit": false,
      "t": 96922.98000000008,
      "d": 461.53800000000047,
      "v": 80
    },
    {
      "midi": 65,
      "hit": false,
      "t": 97384.51800000008,
      "d": 461.53800000000047,
      "v": 80
    },
    {
      "midi": 55,
      "hit": false,
      "t": 97384.51800000008,
      "d": 461.53800000000047,
      "v": 80
    },
    {
      "midi": 59,
      "hit": false,
      "t": 97384.51800000008,
      "d": 461.53800000000047,
      "v": 67
    },
    {
      "midi": 64,
      "hit": false,
      "t": 97846.05600000008,
      "d": 230.76900000000023,
      "v": 80
    },
    {
      "midi": 48,
      "hit": false,
      "t": 97846.05600000008,
      "d": 461.53800000000047,
      "v": 69
    },
    {
      "midi": 67,
      "hit": false,
      "t": 98076.82500000008,
      "d": 692.3070000000007,
      "v": 80
    },
    {
      "midi": 52,
      "hit": false,
      "t": 98307.59400000008,
      "d": 461.53800000000047,
      "v": 71
    },
    {
      "midi": 55,
      "hit": false,
      "t": 98307.59400000008,
      "d": 461.53800000000047,
      "v": 56
    },
    {
      "midi": 72,
      "hit": false,
      "t": 98769.13200000009,
      "d": 461.53800000000047,
      "v": 68
    },
    {
      "midi": 45,
      "hit": false,
      "t": 98769.13200000009,
      "d": 461.53800000000047,
      "v": 89
    },
    {
      "midi": 72,
      "hit": false,
      "t": 99230.67000000009,
      "d": 230.76900000000023,
      "v": 76
    },
    {
      "midi": 48,
      "hit": false,
      "t": 99230.67000000009,
      "d": 461.53800000000047,
      "v": 61
    },
    {
      "midi": 52,
      "hit": false,
      "t": 99230.67000000009,
      "d": 461.53800000000047,
      "v": 69
    },
    {
      "midi": 72,
      "hit": false,
      "t": 99461.43900000009,
      "d": 230.76900000000023,
      "v": 89
    },
    {
      "midi": 72,
      "hit": false,
      "t": 99692.20800000009,
      "d": 461.53800000000047,
      "v": 87
    },
    {
      "midi": 50,
      "hit": false,
      "t": 99692.20800000009,
      "d": 461.53800000000047,
      "v": 72
    },
    {
      "midi": 69,
      "hit": false,
      "t": 100153.74600000009,
      "d": 461.53800000000047,
      "v": 82
    },
    {
      "midi": 54,
      "hit": false,
      "t": 100153.74600000009,
      "d": 461.53800000000047,
      "v": 72
    },
    {
      "midi": 57,
      "hit": false,
      "t": 100153.74600000009,
      "d": 461.53800000000047,
      "v": 57
    },
    {
      "midi": 71,
      "hit": false,
      "t": 100615.28400000009,
      "d": 230.76900000000023,
      "v": 92
    },
    {
      "midi": 50,
      "hit": false,
      "t": 100615.28400000009,
      "d": 461.53800000000047,
      "v": 76
    },
    {
      "midi": 72,
      "hit": false,
      "t": 100846.05300000009,
      "d": 461.53800000000047,
      "v": 82
    },
    {
      "midi": 54,
      "hit": false,
      "t": 101076.82200000009,
      "d": 461.53800000000047,
      "v": 35
    },
    {
      "midi": 57,
      "hit": false,
      "t": 101076.82200000009,
      "d": 461.53800000000047,
      "v": 64
    },
    {
      "midi": 74,
      "hit": false,
      "t": 101307.59100000009,
      "d": 230.76900000000023,
      "v": 89
    },
    {
      "midi": 43,
      "hit": false,
      "t": 101538.36000000009,
      "d": 461.53800000000047,
      "v": 71
    },
    {
      "midi": 47,
      "hit": false,
      "t": 101999.89800000009,
      "d": 461.53800000000047,
      "v": 101
    },
    {
      "midi": 50,
      "hit": false,
      "t": 101999.89800000009,
      "d": 461.53800000000047,
      "v": 65
    },
    {
      "midi": 43,
      "hit": false,
      "t": 102461.43600000009,
      "d": 461.53800000000047,
      "v": 74
    },
    {
      "midi": 47,
      "hit": false,
      "t": 102922.97400000009,
      "d": 461.53800000000047,
      "v": 92
    },
    {
      "midi": 50,
      "hit": false,
      "t": 102922.97400000009,
      "d": 461.53800000000047,
      "v": 69
    },
    {
      "midi": 72,
      "hit": false,
      "t": 103384.51200000009,
      "d": 692.3070000000007,
      "v": 87
    },
    {
      "midi": 48,
      "hit": false,
      "t": 103384.51200000009,
      "d": 461.53800000000047,
      "v": 80
    },
    {
      "midi": 52,
      "hit": false,
      "t": 103846.05000000009,
      "d": 461.53800000000047,
      "v": 72
    },
    {
      "midi": 55,
      "hit": false,
      "t": 103846.05000000009,
      "d": 461.53800000000047,
      "v": 67
    },
    {
      "midi": 72,
      "hit": false,
      "t": 104076.81900000009,
      "d": 230.76900000000023,
      "v": 84
    },
    {
      "midi": 72,
      "hit": false,
      "t": 104307.58800000009,
      "d": 461.53800000000047,
      "v": 80
    },
    {
      "midi": 48,
      "hit": false,
      "t": 104307.58800000009,
      "d": 461.53800000000047,
      "v": 71
    },
    {
      "midi": 72,
      "hit": false,
      "t": 104769.12600000009,
      "d": 461.53800000000047,
      "v": 82
    },
    {
      "midi": 52,
      "hit": false,
      "t": 104769.12600000009,
      "d": 461.53800000000047,
      "v": 78
    },
    {
      "midi": 55,
      "hit": false,
      "t": 104769.12600000009,
      "d": 461.53800000000047,
      "v": 71
    },
    {
      "midi": 71,
      "hit": false,
      "t": 105230.66400000009,
      "d": 923.0760000000009,
      "v": 92
    },
    {
      "midi": 52,
      "hit": false,
      "t": 105230.66400000009,
      "d": 461.53800000000047,
      "v": 80
    },
    {
      "midi": 55,
      "hit": false,
      "t": 105692.20200000009,
      "d": 461.53800000000047,
      "v": 76
    },
    {
      "midi": 59,
      "hit": false,
      "t": 105692.20200000009,
      "d": 461.53800000000047,
      "v": 84
    },
    {
      "midi": 67,
      "hit": false,
      "t": 106153.74000000009,
      "d": 923.0760000000009,
      "v": 84
    },
    {
      "midi": 52,
      "hit": false,
      "t": 106153.74000000009,
      "d": 461.53800000000047,
      "v": 78
    },
    {
      "midi": 55,
      "hit": false,
      "t": 106615.2780000001,
      "d": 461.53800000000047,
      "v": 74
    },
    {
      "midi": 59,
      "hit": false,
      "t": 106615.2780000001,
      "d": 461.53800000000047,
      "v": 78
    },
    {
      "midi": 69,
      "hit": false,
      "t": 107076.8160000001,
      "d": 923.0760000000009,
      "v": 95
    },
    {
      "midi": 53,
      "hit": false,
      "t": 107076.8160000001,
      "d": 461.53800000000047,
      "v": 67
    },
    {
      "midi": 57,
      "hit": false,
      "t": 107538.3540000001,
      "d": 461.53800000000047,
      "v": 74
    },
    {
      "midi": 60,
      "hit": false,
      "t": 107538.3540000001,
      "d": 461.53800000000047,
      "v": 68
    },
    {
      "midi": 72,
      "hit": false,
      "t": 107999.8920000001,
      "d": 461.53800000000047,
      "v": 80
    },
    {
      "midi": 53,
      "hit": false,
      "t": 107999.8920000001,
      "d": 461.53800000000047,
      "v": 76
    },
    {
      "midi": 72,
      "hit": false,
      "t": 108461.4300000001,
      "d": 461.53800000000047,
      "v": 72
    },
    {
      "midi": 57,
      "hit": false,
      "t": 108461.4300000001,
      "d": 461.53800000000047,
      "v": 72
    },
    {
      "midi": 60,
      "hit": false,
      "t": 108461.4300000001,
      "d": 461.53800000000047,
      "v": 64
    },
    {
      "midi": 67,
      "hit": false,
      "t": 108922.9680000001,
      "d": 1384.6140000000014,
      "v": 89
    },
    {
      "midi": 48,
      "hit": false,
      "t": 108922.9680000001,
      "d": 461.53800000000047,
      "v": 80
    },
    {
      "midi": 52,
      "hit": false,
      "t": 109384.5060000001,
      "d": 461.53800000000047,
      "v": 74
    },
    {
      "midi": 55,
      "hit": false,
      "t": 109384.5060000001,
      "d": 461.53800000000047,
      "v": 71
    },
    {
      "midi": 48,
      "hit": false,
      "t": 109846.0440000001,
      "d": 461.53800000000047,
      "v": 72
    },
    {
      "midi": 67,
      "hit": false,
      "t": 110307.5820000001,
      "d": 461.53800000000047,
      "v": 74
    },
    {
      "midi": 52,
      "hit": false,
      "t": 110307.5820000001,
      "d": 461.53800000000047,
      "v": 76
    },
    {
      "midi": 55,
      "hit": false,
      "t": 110307.5820000001,
      "d": 461.53800000000047,
      "v": 74
    },
    {
      "midi": 65,
      "hit": false,
      "t": 110769.1200000001,
      "d": 230.76900000000023,
      "v": 71
    },
    {
      "midi": 50,
      "hit": false,
      "t": 110769.1200000001,
      "d": 461.53800000000047,
      "v": 82
    },
    {
      "midi": 65,
      "hit": false,
      "t": 110999.8890000001,
      "d": 692.3070000000007,
      "v": 89
    },
    {
      "midi": 53,
      "hit": false,
      "t": 111230.6580000001,
      "d": 461.53800000000047,
      "v": 58
    },
    {
      "midi": 57,
      "hit": false,
      "t": 111230.6580000001,
      "d": 461.53800000000047,
      "v": 63
    },
    {
      "midi": 67,
      "hit": false,
      "t": 111692.1960000001,
      "d": 461.53800000000047,
      "v": 84
    },
    {
      "midi": 50,
      "hit": false,
      "t": 111692.1960000001,
      "d": 461.53800000000047,
      "v": 101
    },
    {
      "midi": 65,
      "hit": false,
      "t": 112153.7340000001,
      "d": 461.53800000000047,
      "v": 80
    },
    {
      "midi": 55,
      "hit": false,
      "t": 112153.7340000001,
      "d": 461.53800000000047,
      "v": 95
    },
    {
      "midi": 59,
      "hit": false,
      "t": 112153.7340000001,
      "d": 461.53800000000047,
      "v": 66
    },
    {
      "midi": 64,
      "hit": false,
      "t": 112615.2720000001,
      "d": 230.76900000000023,
      "v": 82
    },
    {
      "midi": 48,
      "hit": false,
      "t": 112615.2720000001,
      "d": 461.53800000000047,
      "v": 71
    },
    {
      "midi": 67,
      "hit": false,
      "t": 112846.0410000001,
      "d": 692.3070000000007,
      "v": 92
    },
    {
      "midi": 52,
      "hit": false,
      "t": 113076.8100000001,
      "d": 461.53800000000047,
      "v": 69
    },
    {
      "midi": 55,
      "hit": false,
      "t": 113076.8100000001,
      "d": 461.53800000000047,
      "v": 74
    },
    {
      "midi": 72,
      "hit": false,
      "t": 113538.3480000001,
      "d": 461.53800000000047,
      "v": 72
    },
    {
      "midi": 45,
      "hit": false,
      "t": 113538.3480000001,
      "d": 461.53800000000047,
      "v": 87
    },
    {
      "midi": 72,
      "hit": false,
      "t": 113999.8860000001,
      "d": 230.76900000000023,
      "v": 80
    },
    {
      "midi": 48,
      "hit": false,
      "t": 113999.8860000001,
      "d": 461.53800000000047,
      "v": 63
    },
    {
      "midi": 52,
      "hit": false,
      "t": 113999.8860000001,
      "d": 461.53800000000047,
      "v": 71
    },
    {
      "midi": 72,
      "hit": false,
      "t": 114230.6550000001,
      "d": 230.76900000000023,
      "v": 84
    },
    {
      "midi": 69,
      "hit": false,
      "t": 114461.4240000001,
      "d": 923.0760000000009,
      "v": 97
    },
    {
      "midi": 50,
      "hit": false,
      "t": 114461.4240000001,
      "d": 461.53800000000047,
      "v": 80
    },
    {
      "midi": 53,
      "hit": false,
      "t": 114922.9620000001,
      "d": 461.53800000000047,
      "v": 71
    },
    {
      "midi": 57,
      "hit": false,
      "t": 114922.9620000001,
      "d": 461.53800000000047,
      "v": 64
    },
    {
      "midi": 72,
      "hit": false,
      "t": 115384.5000000001,
      "d": 923.0760000000009,
      "v": 82
    },
    {
      "midi": 50,
      "hit": false,
      "t": 115384.5000000001,
      "d": 461.53800000000047,
      "v": 78
    },
    {
      "midi": 53,
      "hit": false,
      "t": 115846.0380000001,
      "d": 461.53800000000047,
      "v": 68
    },
    {
      "midi": 57,
      "hit": false,
      "t": 115846.0380000001,
      "d": 461.53800000000047,
      "v": 55
    },
    {
      "midi": 71,
      "hit": false,
      "t": 116307.5760000001,
      "d": 923.0760000000009,
      "v": 101
    },
    {
      "midi": 43,
      "hit": false,
      "t": 116307.5760000001,
      "d": 461.53800000000047,
      "v": 82
    },
    {
      "midi": 47,
      "hit": false,
      "t": 116769.1140000001,
      "d": 461.53800000000047,
      "v": 82
    },
    {
      "midi": 50,
      "hit": false,
      "t": 116769.1140000001,
      "d": 461.53800000000047,
      "v": 68
    },
    {
      "midi": 74,
      "hit": false,
      "t": 117230.6520000001,
      "d": 923.0760000000009,
      "v": 84
    },
    {
      "midi": 43,
      "hit": false,
      "t": 117230.6520000001,
      "d": 461.53800000000047,
      "v": 74
    },
    {
      "midi": 47,
      "hit": false,
      "t": 117692.1900000001,
      "d": 461.53800000000047,
      "v": 84
    },
    {
      "midi": 50,
      "hit": false,
      "t": 117692.1900000001,
      "d": 461.53800000000047,
      "v": 74
    },
    {
      "midi": 72,
      "hit": false,
      "t": 118153.7280000001,
      "d": 1846.1520000000019,
      "v": 84
    },
    {
      "midi": 48,
      "hit": false,
      "t": 118153.7280000001,
      "d": 461.53800000000047,
      "v": 72
    },
    {
      "midi": 52,
      "hit": false,
      "t": 118615.2660000001,
      "d": 461.53800000000047,
      "v": 71
    },
    {
      "midi": 55,
      "hit": false,
      "t": 118615.2660000001,
      "d": 461.53800000000047,
      "v": 68
    },
    {
      "midi": 48,
      "hit": false,
      "t": 119076.8040000001,
      "d": 461.53800000000047,
      "v": 71
    },
    {
      "midi": 52,
      "hit": false,
      "t": 119538.3420000001,
      "d": 461.53800000000047,
      "v": 80
    },
    {
      "midi": 55,
      "hit": false,
      "t": 119538.3420000001,
      "d": 461.53800000000047,
      "v": 66
    },
    {
      "midi": 48,
      "hit": false,
      "t": 119999.8800000001,
      "d": 1846.1520000000019,
      "v": 87
    }
  ]
}