{
  "jsonPath": "Rock/German Rock/Puhdys/sunshine-of-your-love.json",
  "path": "Rock\\German Rock\\Puhdys\\Sunshine Of your Love.mid",
  "name": "Sunshine Of your Love",
  "difficulty": "Advanced",
  "bpm": 118.00245445105259,
  "notes": [
    {
      "midi": 50,
      "hit": false,
      "t": 12203.135999999999,
      "d": 143.0054999999993,
      "v": 127
    },
    {
      "midi": 38,
      "hit": false,
      "t": 12457.367999999999,
      "d": 217.15649999999914,
      "v": 122
    },
    {
      "midi": 50,
      "hit": false,
      "t": 12457.367999999999,
      "d": 222.45299999999952,
      "v": 117
    },
    {
      "midi": 48,
      "hit": false,
      "t": 12711.599999999999,
      "d": 201.26699999999983,
      "v": 122
    },
    {
      "midi": 36,
      "hit": false,
      "t": 12711.599999999999,
      "d": 238.34250000000065,
      "v": 117
    },
    {
      "midi": 50,
      "hit": false,
      "t": 12965.831999999999,
      "d": 180.08100000000013,
      "v": 122
    },
    {
      "midi": 38,
      "hit": false,
      "t": 12965.831999999999,
      "d": 201.26699999999983,
      "v": 127
    },
    {
      "midi": 57,
      "hit": false,
      "t": 13474.295999999998,
      "d": 148.30199999999968,
      "v": 100
    },
    {
      "midi": 45,
      "hit": false,
      "t": 13474.295999999998,
      "d": 158.89500000000044,
      "v": 117
    },
    {
      "midi": 33,
      "hit": false,
      "t": 13474.295999999998,
      "d": 169.4880000000012,
      "v": 104
    },
    {
      "midi": 56,
      "hit": false,
      "t": 13982.76,
      "d": 121.8194999999996,
      "v": 117
    },
    {
      "midi": 44,
      "hit": false,
      "t": 13982.76,
      "d": 174.78449999999975,
      "v": 112
    },
    {
      "midi": 32,
      "hit": false,
      "t": 13982.76,
      "d": 195.97049999999945,
      "v": 104
    },
    {
      "midi": 31,
      "hit": false,
      "t": 14491.224,
      "d": 116.52299999999923,
      "v": 100
    },
    {
      "midi": 55,
      "hit": false,
      "t": 14491.224,
      "d": 137.70899999999892,
      "v": 122
    },
    {
      "midi": 43,
      "hit": false,
      "t": 14491.224,
      "d": 195.97049999999945,
      "v": 112
    },
    {
      "midi": 50,
      "hit": false,
      "t": 14999.688,
      "d": 158.89500000000044,
      "v": 108
    },
    {
      "midi": 38,
      "hit": false,
      "t": 14999.688,
      "d": 222.45300000000134,
      "v": 112
    },
    {
      "midi": 53,
      "hit": false,
      "t": 15253.920000000002,
      "d": 471.3884999999991,
      "v": 122
    },
    {
      "midi": 41,
      "hit": false,
      "t": 15253.920000000002,
      "d": 513.7605000000003,
      "v": 127
    },
    {
      "midi": 38,
      "hit": false,
      "t": 15762.384000000002,
      "d": 169.4880000000012,
      "v": 117
    },
    {
      "midi": 50,
      "hit": false,
      "t": 15762.384000000002,
      "d": 243.63900000000103,
      "v": 104
    },
    {
      "midi": 50,
      "hit": false,
      "t": 16270.848000000004,
      "d": 169.48799999999937,
      "v": 127
    },
    {
      "midi": 38,
      "hit": false,
      "t": 16525.08,
      "d": 201.26699999999983,
      "v": 117
    },
    {
      "midi": 50,
      "hit": false,
      "t": 16525.08,
      "d": 201.26699999999983,
      "v": 108
    },
    {
      "midi": 48,
      "hit": false,
      "t": 16779.312,
      "d": 153.59850000000006,
      "v": 112
    },
    {
      "midi": 36,
      "hit": false,
      "t": 16779.312,
      "d": 238.34249999999884,
      "v": 108
    },
    {
      "midi": 38,
      "hit": false,
      "t": 17033.544,
      "d": 132.41249999999854,
      "v": 108
    },
    {
      "midi": 50,
      "hit": false,
      "t": 17033.544,
      "d": 148.30199999999968,
      "v": 122
    },
    {
      "midi": 57,
      "hit": false,
      "t": 17542.008,
      "d": 121.81950000000143,
      "v": 104
    },
    {
      "midi": 45,
      "hit": false,
      "t": 17542.008,
      "d": 158.89500000000044,
      "v": 117
    },
    {
      "midi": 56,
      "hit": false,
      "t": 18050.472,
      "d": 116.52300000000105,
      "v": 112
    },
    {
      "midi": 44,
      "hit": false,
      "t": 18050.472,
      "d": 148.30199999999968,
      "v": 117
    },
    {
      "midi": 55,
      "hit": false,
      "t": 18558.936,
      "d": 100.63349999999991,
      "v": 117
    },
    {
      "midi": 43,
      "hit": false,
      "t": 18558.936,
      "d": 148.30199999999968,
      "v": 108
    },
    {
      "midi": 50,
      "hit": false,
      "t": 19067.4,
      "d": 185.3774999999987,
      "v": 104
    },
    {
      "midi": 38,
      "hit": false,
      "t": 19067.4,
      "d": 264.8250000000007,
      "v": 104
    },
    {
      "midi": 41,
      "hit": false,
      "t": 19321.632,
      "d": 439.6095000000023,
      "v": 127
    },
    {
      "midi": 53,
      "hit": false,
      "t": 19321.632,
      "d": 466.09200000000055,
      "v": 122
    },
    {
      "midi": 43,
      "hit": false,
      "t": 19830.096,
      "d": 286.0109999999986,
      "v": 108
    },
    {
      "midi": 55,
      "hit": false,
      "t": 19830.096,
      "d": 487.2779999999984,
      "v": 122
    },
    {
      "midi": 50,
      "hit": false,
      "t": 20338.56,
      "d": 127.1160000000018,
      "v": 112
    },
    {
      "midi": 50,
      "hit": false,
      "t": 20592.792000000005,
      "d": 206.5635000000002,
      "v": 117
    },
    {
      "midi": 38,
      "hit": false,
      "t": 20592.792000000005,
      "d": 217.15650000000096,
      "v": 117
    },
    {
      "midi": 48,
      "hit": false,
      "t": 20847.024000000005,
      "d": 185.3774999999987,
      "v": 112
    },
    {
      "midi": 36,
      "hit": false,
      "t": 20847.024000000005,
      "d": 233.04599999999846,
      "v": 112
    },
    {
      "midi": 38,
      "hit": false,
      "t": 21101.256000000005,
      "d": 121.81950000000143,
      "v": 122
    },
    {
      "midi": 50,
      "hit": false,
      "t": 21101.256000000005,
      "d": 148.30199999999968,
      "v": 122
    },
    {
      "midi": 45,
      "hit": false,
      "t": 21609.720000000005,
      "d": 153.59850000000006,
      "v": 112
    },
    {
      "midi": 57,
      "hit": false,
      "t": 21609.720000000005,
      "d": 153.59850000000006,
      "v": 104
    },
    {
      "midi": 56,
      "hit": false,
      "t": 22118.184000000005,
      "d": 121.81950000000143,
      "v": 112
    },
    {
      "midi": 44,
      "hit": false,
      "t": 22118.184000000005,
      "d": 148.30199999999968,
      "v": 117
    },
    {
      "midi": 55,
      "hit": false,
      "t": 22626.648000000005,
      "d": 111.22650000000067,
      "v": 112
    },
    {
      "midi": 43,
      "hit": false,
      "t": 22626.648000000005,
      "d": 132.41250000000218,
      "v": 112
    },
    {
      "midi": 50,
      "hit": false,
      "t": 23135.11200000001,
      "d": 185.3774999999987,
      "v": 100
    },
    {
      "midi": 38,
      "hit": false,
      "t": 23135.11200000001,
      "d": 227.74949999999808,
      "v": 112
    },
    {
      "midi": 41,
      "hit": false,
      "t": 23389.344000000005,
      "d": 455.4989999999998,
      "v": 117
    },
    {
      "midi": 53,
      "hit": false,
      "t": 23389.344000000005,
      "d": 455.4989999999998,
      "v": 112
    },
    {
      "midi": 38,
      "hit": false,
      "t": 23897.808000000005,
      "d": 190.67399999999907,
      "v": 108
    },
    {
      "midi": 50,
      "hit": false,
      "t": 23897.808000000005,
      "d": 280.7144999999982,
      "v": 112
    },
    {
      "midi": 50,
      "hit": false,
      "t": 24406.272000000004,
      "d": 153.59850000000006,
      "v": 122
    },
    {
      "midi": 38,
      "hit": false,
      "t": 24660.504000000004,
      "d": 190.67399999999907,
      "v": 108
    },
    {
      "midi": 50,
      "hit": false,
      "t": 24660.504000000004,
      "d": 190.67399999999907,
      "v": 96
    },
    {
      "midi": 48,
      "hit": false,
      "t": 24914.736000000004,
      "d": 185.3774999999987,
      "v": 100
    },
    {
      "midi": 36,
      "hit": false,
      "t": 24914.736000000004,
      "d": 238.34249999999884,
      "v": 104
    },
    {
      "midi": 38,
      "hit": false,
      "t": 25168.968000000004,
      "d": 127.1160000000018,
      "v": 112
    },
    {
      "midi": 50,
      "hit": false,
      "t": 25168.968000000004,
      "d": 143.00550000000294,
      "v": 117
    },
    {
      "midi": 57,
      "hit": false,
      "t": 25677.432000000008,
      "d": 148.30199999999968,
      "v": 100
    },
    {
      "midi": 45,
      "hit": false,
      "t": 25677.432000000008,
      "d": 153.59850000000006,
      "v": 108
    },
    {
      "midi": 56,
      "hit": false,
      "t": 26185.896000000008,
      "d": 121.81950000000143,
      "v": 112
    },
    {
      "midi": 44,
      "hit": false,
      "t": 26185.896000000008,
      "d": 195.97050000000309,
      "v": 112
    },
    {
      "midi": 55,
      "hit": false,
      "t": 26694.36000000001,
      "d": 132.41249999999854,
      "v": 127
    },
    {
      "midi": 43,
      "hit": false,
      "t": 26694.36000000001,
      "d": 211.85999999999694,
      "v": 122
    },
    {
      "midi": 50,
      "hit": false,
      "t": 27202.824000000008,
      "d": 185.3774999999987,
      "v": 108
    },
    {
      "midi": 38,
      "hit": false,
      "t": 27202.824000000008,
      "d": 217.15649999999732,
      "v": 117
    },
    {
      "midi": 53,
      "hit": false,
      "t": 27457.056000000004,
      "d": 810.3644999999997,
      "v": 122
    },
    {
      "midi": 41,
      "hit": false,
      "t": 27457.056000000004,
      "d": 926.8875000000007,
      "v": 122
    },
    {
      "midi": 50,
      "hit": false,
      "t": 28473.984000000004,
      "d": 180.0809999999983,
      "v": 122
    },
    {
      "midi": 38,
      "hit": false,
      "t": 28728.216000000004,
      "d": 195.97049999999945,
      "v": 108
    },
    {
      "midi": 50,
      "hit": false,
      "t": 28728.216000000004,
      "d": 195.97049999999945,
      "v": 104
    },
    {
      "midi": 48,
      "hit": false,
      "t": 28982.448000000004,
      "d": 164.19150000000081,
      "v": 100
    },
    {
      "midi": 36,
      "hit": false,
      "t": 28982.448000000004,
      "d": 233.0460000000021,
      "v": 117
    },
    {
      "midi": 38,
      "hit": false,
      "t": 29236.680000000008,
      "d": 169.4880000000012,
      "v": 122
    },
    {
      "midi": 50,
      "hit": false,
      "t": 29236.680000000008,
      "d": 174.78450000000157,
      "v": 122
    },
    {
      "midi": 57,
      "hit": false,
      "t": 29745.144000000008,
      "d": 127.1160000000018,
      "v": 112
    },
    {
      "midi": 45,
      "hit": false,
      "t": 29745.144000000008,
      "d": 158.89500000000044,
      "v": 117
    },
    {
      "midi": 56,
      "hit": false,
      "t": 30253.608000000007,
      "d": 153.59850000000006,
      "v": 127
    },
    {
      "midi": 44,
      "hit": false,
      "t": 30253.608000000007,
      "d": 158.89500000000044,
      "v": 122
    },
    {
      "midi": 55,
      "hit": false,
      "t": 30762.072000000007,
      "d": 127.1160000000018,
      "v": 117
    },
    {
      "midi": 43,
      "hit": false,
      "t": 30762.072000000007,
      "d": 158.89500000000044,
      "v": 117
    },
    {
      "midi": 50,
      "hit": false,
      "t": 31270.536000000007,
      "d": 169.4880000000012,
      "v": 100
    },
    {
      "midi": 38,
      "hit": false,
      "t": 31270.536000000007,
      "d": 222.45300000000134,
      "v": 122
    },
    {
      "midi": 41,
      "hit": false,
      "t": 31524.768000000007,
      "d": 460.7955000000002,
      "v": 127
    },
    {
      "midi": 53,
      "hit": false,
      "t": 31524.768000000007,
      "d": 460.7955000000002,
      "v": 122
    },
    {
      "midi": 38,
      "hit": false,
      "t": 32033.232000000007,
      "d": 201.26699999999983,
      "v": 117
    },
    {
      "midi": 50,
      "hit": false,
      "t": 32033.232000000007,
      "d": 259.52850000000035,
      "v": 112
    },
    {
      "midi": 50,
      "hit": false,
      "t": 32541.696000000007,
      "d": 174.78450000000157,
      "v": 127
    },
    {
      "midi": 50,
      "hit": false,
      "t": 32795.92800000001,
      "d": 206.56349999999657,
      "v": 100
    },
    {
      "midi": 38,
      "hit": false,
      "t": 32795.92800000001,
      "d": 211.8599999999933,
      "v": 100
    },
    {
      "midi": 48,
      "hit": false,
      "t": 33050.16,
      "d": 222.45300000000134,
      "v": 108
    },
    {
      "midi": 36,
      "hit": false,
      "t": 33050.16,
      "d": 238.34249999999884,
      "v": 104
    },
    {
      "midi": 38,
      "hit": false,
      "t": 33304.392,
      "d": 116.52300000000105,
      "v": 117
    },
    {
      "midi": 50,
      "hit": false,
      "t": 33304.392,
      "d": 127.1160000000018,
      "v": 117
    },
    {
      "midi": 57,
      "hit": false,
      "t": 33812.856,
      "d": 143.0054999999993,
      "v": 100
    },
    {
      "midi": 45,
      "hit": false,
      "t": 33812.856,
      "d": 180.0809999999983,
      "v": 108
    },
    {
      "midi": 56,
      "hit": false,
      "t": 34321.32,
      "d": 137.70900000000256,
      "v": 108
    },
    {
      "midi": 44,
      "hit": false,
      "t": 34321.32,
      "d": 169.48800000000483,
      "v": 117
    },
    {
      "midi": 43,
      "hit": false,
      "t": 34829.78400000001,
      "d": 153.59850000000006,
      "v": 100
    },
    {
      "midi": 55,
      "hit": false,
      "t": 34829.78400000001,
      "d": 164.19150000000081,
      "v": 122
    },
    {
      "midi": 50,
      "hit": false,
      "t": 35338.24800000001,
      "d": 217.15649999999732,
      "v": 100
    },
    {
      "midi": 38,
      "hit": false,
      "t": 35338.24800000001,
      "d": 222.45299999999406,
      "v": 108
    },
    {
      "midi": 41,
      "hit": false,
      "t": 35592.48,
      "d": 926.8874999999971,
      "v": 127
    },
    {
      "midi": 53,
      "hit": false,
      "t": 35592.48,
      "d": 932.1839999999938,
      "v": 117
    },
    {
      "midi": 60,
      "hit": false,
      "t": 36609.407999999996,
      "d": 248.9354999999996,
      "v": 112
    },
    {
      "midi": 57,
      "hit": false,
      "t": 36609.407999999996,
      "d": 259.5284999999931,
      "v": 108
    },
    {
      "midi": 50,
      "hit": false,
      "t": 36609.407999999996,
      "d": 264.8249999999898,
      "v": 92
    },
    {
      "midi": 53,
      "hit": false,
      "t": 36609.407999999996,
      "d": 280.7144999999873,
      "v": 108
    },
    {
      "midi": 38,
      "hit": false,
      "t": 36863.63999999999,
      "d": 100.633499999989,
      "v": 96
    },
    {
      "midi": 36,
      "hit": false,
      "t": 37117.87199999998,
      "d": 233.0460000000021,
      "v": 104
    },
    {
      "midi": 48,
      "hit": false,
      "t": 37117.87199999998,
      "d": 238.34249999999884,
      "v": 86
    },
    {
      "midi": 50,
      "hit": false,
      "t": 37372.10399999998,
      "d": 84.74399999999878,
      "v": 104
    },
    {
      "midi": 38,
      "hit": false,
      "t": 37372.10399999998,
      "d": 90.04049999999552,
      "v": 122
    },
    {
      "midi": 45,
      "hit": false,
      "t": 37880.56799999997,
      "d": 137.70900000000256,
      "v": 104
    },
    {
      "midi": 57,
      "hit": false,
      "t": 37880.56799999997,
      "d": 137.70900000000256,
      "v": 100
    },
    {
      "midi": 56,
      "hit": false,
      "t": 38389.03199999997,
      "d": 105.93000000000029,
      "v": 92
    },
    {
      "midi": 44,
      "hit": false,
      "t": 38389.03199999997,
      "d": 132.41249999999854,
      "v": 112
    },
    {
      "midi": 55,
      "hit": false,
      "t": 38897.49599999997,
      "d": 100.63350000000355,
      "v": 104
    },
    {
      "midi": 43,
      "hit": false,
      "t": 38897.49599999997,
      "d": 111.22650000000431,
      "v": 112
    },
    {
      "midi": 50,
      "hit": false,
      "t": 39405.95999999998,
      "d": 164.19150000000081,
      "v": 96
    },
    {
      "midi": 38,
      "hit": false,
      "t": 39405.95999999998,
      "d": 227.74949999999808,
      "v": 104
    },
    {
      "midi": 41,
      "hit": false,
      "t": 39660.19199999997,
      "d": 450.2024999999994,
      "v": 108
    },
    {
      "midi": 53,
      "hit": false,
      "t": 39660.19199999997,
      "d": 460.7955000000002,
      "v": 108
    },
    {
      "midi": 38,
      "hit": false,
      "t": 40168.65599999997,
      "d": 206.56349999999657,
      "v": 108
    },
    {
      "midi": 50,
      "hit": false,
      "t": 40168.65599999997,
      "d": 286.0109999999986,
      "v": 100
    },
    {
      "midi": 50,
      "hit": false,
      "t": 40677.11999999997,
      "d": 153.59850000000006,
      "v": 100
    },
    {
      "midi": 50,
      "hit": false,
      "t": 40931.35199999998,
      "d": 190.67399999999907,
      "v": 96
    },
    {
      "midi": 38,
      "hit": false,
      "t": 40931.35199999998,
      "d": 211.86000000000058,
      "v": 100
    },
    {
      "midi": 48,
      "hit": false,
      "t": 41185.58399999998,
      "d": 217.15649999999732,
      "v": 100
    },
    {
      "midi": 36,
      "hit": false,
      "t": 41185.58399999998,
      "d": 291.30749999999534,
      "v": 104
    },
    {
      "midi": 38,
      "hit": false,
      "t": 41439.81599999998,
      "d": 116.52300000000105,
      "v": 112
    },
    {
      "midi": 50,
      "hit": false,
      "t": 41439.81599999998,
      "d": 153.59850000000006,
      "v": 117
    },
    {
      "midi": 57,
      "hit": false,
      "t": 41948.27999999998,
      "d": 116.52300000000105,
      "v": 100
    },
    {
      "midi": 45,
      "hit": false,
      "t": 41948.27999999998,
      "d": 153.59850000000006,
      "v": 108
    },
    {
      "midi": 56,
      "hit": false,
      "t": 42456.74399999998,
      "d": 127.1160000000018,
      "v": 108
    },
    {
      "midi": 44,
      "hit": false,
      "t": 42456.74399999998,
      "d": 164.19150000000081,
      "v": 112
    },
    {
      "midi": 55,
      "hit": false,
      "t": 42965.20799999998,
      "d": 105.93000000000029,
      "v": 112
    },
    {
      "midi": 43,
      "hit": false,
      "t": 42965.20799999998,
      "d": 116.52300000000105,
      "v": 112
    },
    {
      "midi": 50,
      "hit": false,
      "t": 43473.67199999998,
      "d": 195.97050000000309,
      "v": 117
    },
    {
      "midi": 38,
      "hit": false,
      "t": 43473.67199999998,
      "d": 233.0460000000021,
      "v": 108
    },
    {
      "midi": 41,
      "hit": false,
      "t": 43727.90399999998,
      "d": 413.1270000000004,
      "v": 117
    },
    {
      "midi": 53,
      "hit": false,
      "t": 43727.90399999998,
      "d": 582.614999999998,
      "v": 108
    },
    {
      "midi": 41,
      "hit": false,
      "t": 44363.483999999975,
      "d": 58.261500000000524,
      "v": 127
    },
    {
      "midi": 55,
      "hit": false,
      "t": 44490.59999999998,
      "d": 185.37750000000233,
      "v": 92
    },
    {
      "midi": 50,
      "hit": false,
      "t": 44490.59999999998,
      "d": 206.56350000000384,
      "v": 96
    },
    {
      "midi": 59,
      "hit": false,
      "t": 44490.59999999998,
      "d": 222.45300000000134,
      "v": 117
    },
    {
      "midi": 50,
      "hit": false,
      "t": 44744.83199999998,
      "d": 127.1160000000018,
      "v": 92
    },
    {
      "midi": 53,
      "hit": false,
      "t": 44744.83199999998,
      "d": 169.48800000000483,
      "v": 100
    },
    {
      "midi": 50,
      "hit": false,
      "t": 44999.063999999984,
      "d": 95.33699999999953,
      "v": 84
    },
    {
      "midi": 38,
      "hit": false,
      "t": 44999.063999999984,
      "d": 195.97050000000309,
      "v": 112
    },
    {
      "midi": 48,
      "hit": false,
      "t": 45253.29599999999,
      "d": 211.86000000000058,
      "v": 108
    },
    {
      "midi": 36,
      "hit": false,
      "t": 45253.29599999999,
      "d": 227.74949999999808,
      "v": 108
    },
    {
      "midi": 38,
      "hit": false,
      "t": 45507.527999999984,
      "d": 121.81949999999779,
      "v": 117
    },
    {
      "midi": 50,
      "hit": false,
      "t": 45507.527999999984,
      "d": 143.0054999999993,
      "v": 117
    },
    {
      "midi": 57,
      "hit": false,
      "t": 46015.991999999984,
      "d": 127.1160000000018,
      "v": 100
    },
    {
      "midi": 45,
      "hit": false,
      "t": 46015.991999999984,
      "d": 143.0054999999993,
      "v": 112
    },
    {
      "midi": 56,
      "hit": false,
      "t": 46524.455999999984,
      "d": 116.52300000000105,
      "v": 112
    },
    {
      "midi": 44,
      "hit": false,
      "t": 46524.455999999984,
      "d": 148.30200000000332,
      "v": 117
    },
    {
      "midi": 55,
      "hit": false,
      "t": 47032.919999999984,
      "d": 100.63350000000355,
      "v": 122
    },
    {
      "midi": 43,
      "hit": false,
      "t": 47032.919999999984,
      "d": 121.81950000000506,
      "v": 112
    },
    {
      "midi": 50,
      "hit": false,
      "t": 47541.38399999999,
      "d": 164.19150000000081,
      "v": 104
    },
    {
      "midi": 38,
      "hit": false,
      "t": 47541.38399999999,
      "d": 227.74949999999808,
      "v": 117
    },
    {
      "midi": 53,
      "hit": false,
      "t": 47795.61599999999,
      "d": 450.2024999999994,
      "v": 117
    },
    {
      "midi": 41,
      "hit": false,
      "t": 47795.61599999999,
      "d": 513.7604999999967,
      "v": 112
    },
    {
      "midi": 38,
      "hit": false,
      "t": 48304.07999999999,
      "d": 132.41249999999854,
      "v": 108
    },
    {
      "midi": 50,
      "hit": false,
      "t": 48304.07999999999,
      "d": 233.0460000000021,
      "v": 100
    },
    {
      "midi": 50,
      "hit": false,
      "t": 48812.54399999999,
      "d": 169.48799999999756,
      "v": 127
    },
    {
      "midi": 50,
      "hit": false,
      "t": 49066.77599999998,
      "d": 185.37750000000233,
      "v": 100
    },
    {
      "midi": 38,
      "hit": false,
      "t": 49066.77599999998,
      "d": 217.1565000000046,
      "v": 104
    },
    {
      "midi": 48,
      "hit": false,
      "t": 49321.00799999999,
      "d": 217.15649999999732,
      "v": 104
    },
    {
      "midi": 36,
      "hit": false,
      "t": 49321.00799999999,
      "d": 317.7899999999936,
      "v": 104
    },
    {
      "midi": 38,
      "hit": false,
      "t": 49575.23999999998,
      "d": 116.52299999999377,
      "v": 122
    },
    {
      "midi": 50,
      "hit": false,
      "t": 49575.23999999998,
      "d": 132.41249999999127,
      "v": 117
    },
    {
      "midi": 57,
      "hit": false,
      "t": 50083.703999999976,
      "d": 137.70900000000256,
      "v": 112
    },
    {
      "midi": 45,
      "hit": false,
      "t": 50083.703999999976,
      "d": 143.0054999999993,
      "v": 108
    },
    {
      "midi": 56,
      "hit": false,
      "t": 50592.167999999976,
      "d": 116.52300000000105,
      "v": 127
    },
    {
      "midi": 44,
      "hit": false,
      "t": 50592.167999999976,
      "d": 169.48799999999756,
      "v": 117
    },
    {
      "midi": 55,
      "hit": false,
      "t": 51100.631999999976,
      "d": 121.81949999999779,
      "v": 108
    },
    {
      "midi": 43,
      "hit": false,
      "t": 51100.631999999976,
      "d": 127.11599999999453,
      "v": 117
    },
    {
      "midi": 38,
      "hit": false,
      "t": 51481.979999999974,
      "d": 709.7309999999998,
      "v": 122
    },
    {
      "midi": 54,
      "hit": false,
      "t": 51609.095999999976,
      "d": 26.482499999998254,
      "v": 127
    },
    {
      "midi": 50,
      "hit": false,
      "t": 51609.095999999976,
      "d": 153.59850000000006,
      "v": 108
    },
    {
      "midi": 55,
      "hit": false,
      "t": 51609.095999999976,
      "d": 164.19150000000081,
      "v": 108
    },
    {
      "midi": 59,
      "hit": false,
      "t": 51609.095999999976,
      "d": 190.67399999999907,
      "v": 117
    },
    {
      "midi": 57,
      "hit": false,
      "t": 51863.32799999997,
      "d": 767.992499999993,
      "v": 108
    },
    {
      "midi": 48,
      "hit": false,
      "t": 51863.32799999997,
      "d": 805.067999999992,
      "v": 122
    },
    {
      "midi": 53,
      "hit": false,
      "t": 51863.32799999997,
      "d": 910.9979999999923,
      "v": 112
    },
    {
      "midi": 38,
      "hit": false,
      "t": 52371.79199999997,
      "d": 143.0054999999993,
      "v": 127
    },
    {
      "midi": 38,
      "hit": false,
      "t": 52626.02399999997,
      "d": 195.9704999999958,
      "v": 108
    },
    {
      "midi": 55,
      "hit": false,
      "t": 52880.255999999965,
      "d": 132.41249999999854,
      "v": 117
    },
    {
      "midi": 43,
      "hit": false,
      "t": 53134.48799999996,
      "d": 174.78450000000157,
      "v": 112
    },
    {
      "midi": 55,
      "hit": false,
      "t": 53134.48799999996,
      "d": 195.97050000000309,
      "v": 127
    },
    {
      "midi": 53,
      "hit": false,
      "t": 53388.719999999965,
      "d": 238.34249999999884,
      "v": 122
    },
    {
      "midi": 41,
      "hit": false,
      "t": 53388.719999999965,
      "d": 248.9354999999996,
      "v": 112
    },
    {
      "midi": 43,
      "hit": false,
      "t": 53642.95199999996,
      "d": 100.63350000000355,
      "v": 127
    },
    {
      "midi": 55,
      "hit": false,
      "t": 53642.95199999996,
      "d": 105.93000000000029,
      "v": 112
    },
    {
      "midi": 62,
      "hit": false,
      "t": 54151.41599999996,
      "d": 127.1160000000018,
      "v": 112
    },
    {
      "midi": 38,
      "hit": false,
      "t": 54151.41599999996,
      "d": 180.0809999999983,
      "v": 122
    },
    {
      "midi": 37,
      "hit": false,
      "t": 54659.87999999996,
      "d": 158.8949999999968,
      "v": 117
    },
    {
      "midi": 61,
      "hit": false,
      "t": 54659.87999999996,
      "d": 180.0809999999983,
      "v": 117
    },
    {
      "midi": 36,
      "hit": false,
      "t": 55168.34399999996,
      "d": 105.93000000000029,
      "v": 122
    },
    {
      "midi": 60,
      "hit": false,
      "t": 55168.34399999996,
      "d": 137.70900000000256,
      "v": 122
    },
    {
      "midi": 31,
      "hit": false,
      "t": 55549.691999999966,
      "d": 270.1215000000011,
      "v": 108
    },
    {
      "midi": 55,
      "hit": false,
      "t": 55676.80799999997,
      "d": 180.0809999999983,
      "v": 108
    },
    {
      "midi": 64,
      "hit": false,
      "t": 55676.80799999997,
      "d": 180.0809999999983,
      "v": 117
    },
    {
      "midi": 60,
      "hit": false,
      "t": 55676.80799999997,
      "d": 190.67399999999907,
      "v": 122
    },
    {
      "midi": 55,
      "hit": false,
      "t": 55931.039999999964,
      "d": 58.261500000000524,
      "v": 86
    },
    {
      "midi": 58,
      "hit": false,
      "t": 55931.039999999964,
      "d": 100.63350000000355,
      "v": 117
    },
    {
      "midi": 62,
      "hit": false,
      "t": 55931.039999999964,
      "d": 227.74950000000536,
      "v": 108
    },
    {
      "midi": 43,
      "hit": false,
      "t": 55931.039999999964,
      "d": 317.79000000000815,
      "v": 117
    },
    {
      "midi": 55,
      "hit": false,
      "t": 56439.50399999997,
      "d": 105.93000000000029,
      "v": 108
    },
    {
      "midi": 43,
      "hit": false,
      "t": 56439.50399999997,
      "d": 158.8949999999968,
      "v": 122
    },
    {
      "midi": 53,
      "hit": false,
      "t": 56693.73599999997,
      "d": 180.0809999999983,
      "v": 88
    },
    {
      "midi": 41,
      "hit": false,
      "t": 56693.73599999997,
      "d": 206.56349999999657,
      "v": 108
    },
    {
      "midi": 55,
      "hit": false,
      "t": 56947.967999999964,
      "d": 169.48799999999756,
      "v": 122
    },
    {
      "midi": 55,
      "hit": false,
      "t": 57202.19999999996,
      "d": 195.97050000000309,
      "v": 104
    },
    {
      "midi": 43,
      "hit": false,
      "t": 57202.19999999996,
      "d": 201.26699999999983,
      "v": 112
    },
    {
      "midi": 53,
      "hit": false,
      "t": 57456.43199999996,
      "d": 180.0809999999983,
      "v": 108
    },
    {
      "midi": 41,
      "hit": false,
      "t": 57456.43199999996,
      "d": 248.9354999999996,
      "v": 108
    },
    {
      "midi": 43,
      "hit": false,
      "t": 57710.66399999995,
      "d": 127.1160000000018,
      "v": 108
    },
    {
      "midi": 55,
      "hit": false,
      "t": 57710.66399999995,
      "d": 148.30200000000332,
      "v": 122
    },
    {
      "midi": 50,
      "hit": false,
      "t": 58219.12799999995,
      "d": 148.30200000000332,
      "v": 122
    },
    {
      "midi": 38,
      "hit": false,
      "t": 58219.12799999995,
      "d": 158.89500000000407,
      "v": 122
    },
    {
      "midi": 49,
      "hit": false,
      "t": 58727.59199999996,
      "d": 121.81949999999779,
      "v": 127
    },
    {
      "midi": 37,
      "hit": false,
      "t": 58727.59199999996,
      "d": 169.48799999999756,
      "v": 117
    },
    {
      "midi": 48,
      "hit": false,
      "t": 59236.05599999996,
      "d": 116.52300000000105,
      "v": 122
    },
    {
      "midi": 36,
      "hit": false,
      "t": 59236.05599999996,
      "d": 127.1160000000018,
      "v": 122
    },
    {
      "midi": 43,
      "hit": false,
      "t": 59744.51999999996,
      "d": 174.78450000000157,
      "v": 108
    },
    {
      "midi": 31,
      "hit": false,
      "t": 59744.51999999996,
      "d": 217.1565000000046,
      "v": 108
    },
    {
      "midi": 46,
      "hit": false,
      "t": 59998.751999999964,
      "d": 423.72000000000116,
      "v": 127
    },
    {
      "midi": 34,
      "hit": false,
      "t": 59998.751999999964,
      "d": 466.0920000000042,
      "v": 117
    },
    {
      "midi": 36,
      "hit": false,
      "t": 60507.21599999997,
      "d": 201.26699999999983,
      "v": 122
    },
    {
      "midi": 48,
      "hit": false,
      "t": 60507.21599999997,
      "d": 211.86000000000058,
      "v": 122
    },
    {
      "midi": 50,
      "hit": false,
      "t": 61015.67999999997,
      "d": 127.1160000000018,
      "v": 127
    },
    {
      "midi": 38,
      "hit": false,
      "t": 61269.911999999975,
      "d": 180.0809999999983,
      "v": 108
    },
    {
      "midi": 50,
      "hit": false,
      "t": 61269.911999999975,
      "d": 190.67399999999907,
      "v": 112
    },
    {
      "midi": 36,
      "hit": false,
      "t": 61524.14399999997,
      "d": 174.78450000000157,
      "v": 112
    },
    {
      "midi": 48,
      "hit": false,
      "t": 61524.14399999997,
      "d": 238.34249999999884,
      "v": 112
    },
    {
      "midi": 50,
      "hit": false,
      "t": 61778.37599999997,
      "d": 116.52300000000105,
      "v": 100
    },
    {
      "midi": 38,
      "hit": false,
      "t": 61778.37599999997,
      "d": 121.81949999999779,
      "v": 122
    },
    {
      "midi": 57,
      "hit": false,
      "t": 62286.83999999997,
      "d": 121.81949999999779,
      "v": 117
    },
    {
      "midi": 45,
      "hit": false,
      "t": 62286.83999999997,
      "d": 143.0054999999993,
      "v": 108
    },
    {
      "midi": 56,
      "hit": false,
      "t": 62795.30399999997,
      "d": 121.81949999999779,
      "v": 122
    },
    {
      "midi": 44,
      "hit": false,
      "t": 62795.30399999997,
      "d": 132.41249999999854,
      "v": 112
    },
    {
      "midi": 55,
      "hit": false,
      "t": 63303.76799999997,
      "d": 100.63350000000355,
      "v": 117
    },
    {
      "midi": 43,
      "hit": false,
      "t": 63303.76799999997,
      "d": 137.70900000000256,
      "v": 104
    },
    {
      "midi": 50,
      "hit": false,
      "t": 63812.23199999997,
      "d": 169.48799999999756,
      "v": 104
    },
    {
      "midi": 38,
      "hit": false,
      "t": 63812.23199999997,
      "d": 233.04599999999482,
      "v": 112
    },
    {
      "midi": 53,
      "hit": false,
      "t": 64066.46399999996,
      "d": 439.60949999999866,
      "v": 127
    },
    {
      "midi": 41,
      "hit": false,
      "t": 64066.46399999996,
      "d": 450.2024999999994,
      "v": 122
    },
    {
      "midi": 38,
      "hit": false,
      "t": 64574.92799999996,
      "d": 222.45300000000134,
      "v": 122
    },
    {
      "midi": 50,
      "hit": false,
      "t": 64574.92799999996,
      "d": 307.1970000000001,
      "v": 117
    },
    {
      "midi": 50,
      "hit": false,
      "t": 65083.39199999996,
      "d": 143.0054999999993,
      "v": 92
    },
    {
      "midi": 50,
      "hit": false,
      "t": 65337.62399999996,
      "d": 185.37750000000233,
      "v": 117
    },
    {
      "midi": 38,
      "hit": false,
      "t": 65337.62399999996,
      "d": 264.8249999999898,
      "v": 104
    },
    {
      "midi": 48,
      "hit": false,
      "t": 65591.85599999996,
      "d": 180.08099999999104,
      "v": 122
    },
    {
      "midi": 36,
      "hit": false,
      "t": 65591.85599999996,
      "d": 211.85999999998603,
      "v": 112
    },
    {
      "midi": 50,
      "hit": false,
      "t": 65846.08799999995,
      "d": 116.52300000000105,
      "v": 122
    },
    {
      "midi": 38,
      "hit": false,
      "t": 65846.08799999995,
      "d": 121.81949999999779,
      "v": 117
    },
    {
      "midi": 57,
      "hit": false,
      "t": 66354.55199999994,
      "d": 121.81949999999779,
      "v": 127
    },
    {
      "midi": 45,
      "hit": false,
      "t": 66354.55199999994,
      "d": 153.59849999999278,
      "v": 112
    },
    {
      "midi": 56,
      "hit": false,
      "t": 66863.01599999993,
      "d": 121.81949999999779,
      "v": 127
    },
    {
      "midi": 44,
      "hit": false,
      "t": 66863.01599999993,
      "d": 158.89500000000407,
      "v": 122
    },
    {
      "midi": 55,
      "hit": false,
      "t": 67371.47999999994,
      "d": 121.81949999999779,
      "v": 122
    },
    {
      "midi": 43,
      "hit": false,
      "t": 67371.47999999994,
      "d": 127.11599999999453,
      "v": 122
    },
    {
      "midi": 50,
      "hit": false,
      "t": 67879.94399999993,
      "d": 158.89500000000407,
      "v": 92
    },
    {
      "midi": 38,
      "hit": false,
      "t": 67879.94399999993,
      "d": 206.56350000000384,
      "v": 104
    },
    {
      "midi": 53,
      "hit": false,
      "t": 68134.17599999993,
      "d": 466.0920000000042,
      "v": 127
    },
    {
      "midi": 41,
      "hit": false,
      "t": 68134.17599999993,
      "d": 471.38850000000093,
      "v": 122
    },
    {
      "midi": 38,
      "hit": false,
      "t": 68642.63999999994,
      "d": 137.70900000000256,
      "v": 117
    },
    {
      "midi": 50,
      "hit": false,
      "t": 68642.63999999994,
      "d": 301.9005000000034,
      "v": 104
    },
    {
      "midi": 50,
      "hit": false,
      "t": 85676.18399999995,
      "d": 206.56350000000384,
      "v": 117
    },
    {
      "midi": 38,
      "hit": false,
      "t": 85676.18399999995,
      "d": 222.45300000000861,
      "v": 108
    },
    {
      "midi": 48,
      "hit": false,
      "t": 85930.41599999995,
      "d": 185.37750000000233,
      "v": 104
    },
    {
      "midi": 36,
      "hit": false,
      "t": 85930.41599999995,
      "d": 270.1215000000084,
      "v": 100
    },
    {
      "midi": 38,
      "hit": false,
      "t": 86184.64799999996,
      "d": 100.63350000001083,
      "v": 117
    },
    {
      "midi": 50,
      "hit": false,
      "t": 86184.64799999996,
      "d": 100.63350000001083,
      "v": 117
    },
    {
      "midi": 57,
      "hit": false,
      "t": 86693.11199999996,
      "d": 84.74400000000605,
      "v": 100
    },
    {
      "midi": 45,
      "hit": false,
      "t": 86693.11199999996,
      "d": 100.63350000001083,
      "v": 104
    },
    {
      "midi": 56,
      "hit": false,
      "t": 87201.57599999997,
      "d": 84.74400000000605,
      "v": 117
    },
    {
      "midi": 44,
      "hit": false,
      "t": 87201.57599999997,
      "d": 95.33699999999953,
      "v": 117
    },
    {
      "midi": 55,
      "hit": false,
      "t": 87710.03999999996,
      "d": 74.15099999999802,
      "v": 117
    },
    {
      "midi": 43,
      "hit": false,
      "t": 87710.03999999996,
      "d": 100.63349999999627,
      "v": 108
    },
    {
      "midi": 50,
      "hit": false,
      "t": 88218.50399999996,
      "d": 169.48799999999756,
      "v": 104
    },
    {
      "midi": 38,
      "hit": false,
      "t": 88218.50399999996,
      "d": 243.63899999999558,
      "v": 104
    },
    {
      "midi": 53,
      "hit": false,
      "t": 88472.73599999995,
      "d": 450.2024999999994,
      "v": 122
    },
    {
      "midi": 41,
      "hit": false,
      "t": 88472.73599999995,
      "d": 481.9814999999944,
      "v": 117
    },
    {
      "midi": 38,
      "hit": false,
      "t": 88981.19999999994,
      "d": 127.11599999999453,
      "v": 108
    },
    {
      "midi": 50,
      "hit": false,
      "t": 88981.19999999994,
      "d": 254.23199999998906,
      "v": 104
    },
    {
      "midi": 50,
      "hit": false,
      "t": 89489.66399999993,
      "d": 158.89500000000407,
      "v": 122
    },
    {
      "midi": 50,
      "hit": false,
      "t": 89743.89599999994,
      "d": 195.9704999999958,
      "v": 92
    },
    {
      "midi": 38,
      "hit": false,
      "t": 89743.89599999994,
      "d": 238.34249999999884,
      "v": 100
    },
    {
      "midi": 48,
      "hit": false,
      "t": 89998.12799999994,
      "d": 211.86000000000058,
      "v": 112
    },
    {
      "midi": 36,
      "hit": false,
      "t": 89998.12799999994,
      "d": 286.0109999999986,
      "v": 108
    },
    {
      "midi": 38,
      "hit": false,
      "t": 90252.35999999994,
      "d": 100.63349999999627,
      "v": 122
    },
    {
      "midi": 50,
      "hit": false,
      "t": 90252.35999999994,
      "d": 100.63349999999627,
      "v": 117
    },
    {
      "midi": 57,
      "hit": false,
      "t": 90760.82399999994,
      "d": 116.52300000000105,
      "v": 117
    },
    {
      "midi": 45,
      "hit": false,
      "t": 90760.82399999994,
      "d": 143.0054999999993,
      "v": 108
    },
    {
      "midi": 44,
      "hit": false,
      "t": 91269.28799999993,
      "d": 132.41250000000582,
      "v": 117
    },
    {
      "midi": 56,
      "hit": false,
      "t": 91269.28799999993,
      "d": 137.70900000000256,
      "v": 122
    },
    {
      "midi": 55,
      "hit": false,
      "t": 91777.75199999993,
      "d": 74.15099999999802,
      "v": 100
    },
    {
      "midi": 38,
      "hit": false,
      "t": 92159.09999999993,
      "d": 95.33699999999953,
      "v": 112
    },
    {
      "midi": 66,
      "hit": false,
      "t": 92286.21599999993,
      "d": 74.15099999999802,
      "v": 127
    },
    {
      "midi": 62,
      "hit": false,
      "t": 92286.21599999993,
      "d": 148.30199999999604,
      "v": 100
    },
    {
      "midi": 71,
      "hit": false,
      "t": 92286.21599999993,
      "d": 164.19150000000081,
      "v": 127
    },
    {
      "midi": 67,
      "hit": false,
      "t": 92413.33199999992,
      "d": 100.63350000001083,
      "v": 82
    },
    {
      "midi": 69,
      "hit": false,
      "t": 92540.44799999993,
      "d": 233.0460000000021,
      "v": 108
    },
    {
      "midi": 65,
      "hit": false,
      "t": 92540.44799999993,
      "d": 248.93550000000687,
      "v": 117
    },
    {
      "midi": 60,
      "hit": false,
      "t": 92540.44799999993,
      "d": 323.0865000000049,
      "v": 117
    },
    {
      "midi": 57,
      "hit": false,
      "t": 92921.79599999993,
      "d": 5.29649999999674,
      "v": 74
    },
    {
      "midi": 38,
      "hit": false,
      "t": 93048.91199999992,
      "d": 15.889500000004773,
      "v": 68
    },
    {
      "midi": 50,
      "hit": false,
      "t": 93048.91199999992,
      "d": 127.11600000000908,
      "v": 112
    },
    {
      "midi": 36,
      "hit": false,
      "t": 93176.02799999993,
      "d": 238.34249999999884,
      "v": 92
    },
    {
      "midi": 48,
      "hit": false,
      "t": 93303.14399999993,
      "d": 222.45300000000861,
      "v": 112
    },
    {
      "midi": 50,
      "hit": false,
      "t": 93557.37599999993,
      "d": 185.37750000000233,
      "v": 122
    },
    {
      "midi": 38,
      "hit": false,
      "t": 93811.60799999993,
      "d": 206.56350000000384,
      "v": 104
    },
    {
      "midi": 50,
      "hit": false,
      "t": 93811.60799999993,
      "d": 222.45300000000861,
      "v": 108
    },
    {
      "midi": 36,
      "hit": false,
      "t": 94065.83999999994,
      "d": 323.0865000000049,
      "v": 108
    },
    {
      "midi": 48,
      "hit": false,
      "t": 94065.83999999994,
      "d": 323.0865000000049,
      "v": 112
    },
    {
      "midi": 50,
      "hit": false,
      "t": 94320.07199999994,
      "d": 90.0405000000028,
      "v": 112
    },
    {
      "midi": 38,
      "hit": false,
      "t": 94320.07199999994,
      "d": 100.63349999999627,
      "v": 117
    },
    {
      "midi": 57,
      "hit": false,
      "t": 94828.53599999993,
      "d": 111.22650000000431,
      "v": 104
    },
    {
      "midi": 45,
      "hit": false,
      "t": 94828.53599999993,
      "d": 148.3020000000106,
      "v": 104
    },
    {
      "midi": 44,
      "hit": false,
      "t": 95336.99999999994,
      "d": 100.63349999999627,
      "v": 117
    },
    {
      "midi": 56,
      "hit": false,
      "t": 95336.99999999994,
      "d": 100.63349999999627,
      "v": 122
    },
    {
      "midi": 55,
      "hit": false,
      "t": 95845.46399999993,
      "d": 90.0405000000028,
      "v": 112
    },
    {
      "midi": 43,
      "hit": false,
      "t": 95845.46399999993,
      "d": 100.63349999999627,
      "v": 112
    },
    {
      "midi": 50,
      "hit": false,
      "t": 96353.92799999993,
      "d": 190.67399999999907,
      "v": 100
    },
    {
      "midi": 38,
      "hit": false,
      "t": 96353.92799999993,
      "d": 238.34249999999884,
      "v": 112
    },
    {
      "midi": 53,
      "hit": false,
      "t": 96608.15999999993,
      "d": 476.6849999999977,
      "v": 117
    },
    {
      "midi": 41,
      "hit": false,
      "t": 96608.15999999993,
      "d": 508.46399999999267,
      "v": 117
    },
    {
      "midi": 38,
      "hit": false,
      "t": 97116.62399999992,
      "d": 111.22650000000431,
      "v": 112
    },
    {
      "midi": 50,
      "hit": false,
      "t": 97116.62399999992,
      "d": 206.56350000000384,
      "v": 104
    },
    {
      "midi": 38,
      "hit": false,
      "t": 97625.08799999993,
      "d": 143.0054999999993,
      "v": 117
    },
    {
      "midi": 50,
      "hit": false,
      "t": 97625.08799999993,
      "d": 164.19150000000081,
      "v": 127
    },
    {
      "midi": 50,
      "hit": false,
      "t": 97879.31999999993,
      "d": 190.67399999999907,
      "v": 104
    },
    {
      "midi": 38,
      "hit": false,
      "t": 97879.31999999993,
      "d": 211.86000000000058,
      "v": 108
    },
    {
      "midi": 48,
      "hit": false,
      "t": 98133.55199999994,
      "d": 195.9704999999958,
      "v": 104
    },
    {
      "midi": 36,
      "hit": false,
      "t": 98133.55199999994,
      "d": 238.34249999999884,
      "v": 100
    },
    {
      "midi": 38,
      "hit": false,
      "t": 98387.78399999994,
      "d": 111.22650000000431,
      "v": 108
    },
    {
      "midi": 50,
      "hit": false,
      "t": 98387.78399999994,
      "d": 127.11600000000908,
      "v": 122
    },
    {
      "midi": 57,
      "hit": false,
      "t": 98896.24799999995,
      "d": 111.22650000000431,
      "v": 108
    },
    {
      "midi": 45,
      "hit": false,
      "t": 98896.24799999995,
      "d": 132.41250000000582,
      "v": 112
    },
    {
      "midi": 44,
      "hit": false,
      "t": 99404.71199999996,
      "d": 121.81949999999779,
      "v": 117
    },
    {
      "midi": 56,
      "hit": false,
      "t": 99404.71199999996,
      "d": 121.81949999999779,
      "v": 122
    },
    {
      "midi": 55,
      "hit": false,
      "t": 99913.17599999995,
      "d": 111.22650000000431,
      "v": 127
    },
    {
      "midi": 43,
      "hit": false,
      "t": 99913.17599999995,
      "d": 143.0054999999993,
      "v": 112
    },
    {
      "midi": 50,
      "hit": false,
      "t": 100421.63999999994,
      "d": 201.2670000000071,
      "v": 108
    },
    {
      "midi": 38,
      "hit": false,
      "t": 100421.63999999994,
      "d": 243.63900000001013,
      "v": 108
    },
    {
      "midi": 41,
      "hit": false,
      "t": 100675.87199999994,
      "d": 492.57450000000244,
      "v": 122
    },
    {
      "midi": 53,
      "hit": false,
      "t": 100675.87199999994,
      "d": 513.760500000004,
      "v": 122
    },
    {
      "midi": 50,
      "hit": false,
      "t": 101692.79999999994,
      "d": 180.0810000000056,
      "v": 117
    },
    {
      "midi": 50,
      "hit": false,
      "t": 101947.03199999995,
      "d": 211.86000000000058,
      "v": 100
    },
    {
      "midi": 38,
      "hit": false,
      "t": 101947.03199999995,
      "d": 227.74950000000536,
      "v": 96
    },
    {
      "midi": 48,
      "hit": false,
      "t": 102201.26399999995,
      "d": 185.37750000000233,
      "v": 108
    },
    {
      "midi": 36,
      "hit": false,
      "t": 102201.26399999995,
      "d": 254.2320000000036,
      "v": 112
    },
    {
      "midi": 38,
      "hit": false,
      "t": 102455.49599999996,
      "d": 90.0405000000028,
      "v": 122
    },
    {
      "midi": 50,
      "hit": false,
      "t": 102455.49599999996,
      "d": 143.0054999999993,
      "v": 117
    },
    {
      "midi": 57,
      "hit": false,
      "t": 102963.95999999995,
      "d": 137.70900000000256,
      "v": 100
    },
    {
      "midi": 45,
      "hit": false,
      "t": 102963.95999999995,
      "d": 153.59850000000733,
      "v": 108
    },
    {
      "midi": 44,
      "hit": false,
      "t": 103472.42399999996,
      "d": 116.52300000000105,
      "v": 108
    },
    {
      "midi": 56,
      "hit": false,
      "t": 103472.42399999996,
      "d": 116.52300000000105,
      "v": 112
    },
    {
      "midi": 55,
      "hit": false,
      "t": 103980.88799999996,
      "d": 95.33699999999953,
      "v": 112
    },
    {
      "midi": 43,
      "hit": false,
      "t": 103980.88799999996,
      "d": 116.52300000000105,
      "v": 104
    },
    {
      "midi": 50,
      "hit": false,
      "t": 104489.35199999997,
      "d": 153.59849999999278,
      "v": 88
    },
    {
      "midi": 38,
      "hit": false,
      "t": 104489.35199999997,
      "d": 248.93549999999232,
      "v": 108
    },
    {
      "midi": 41,
      "hit": false,
      "t": 104743.58399999996,
      "d": 217.15649999999732,
      "v": 108
    },
    {
      "midi": 53,
      "hit": false,
      "t": 104743.58399999996,
      "d": 333.67949999999837,
      "v": 108
    },
    {
      "midi": 38,
      "hit": false,
      "t": 105379.16399999996,
      "d": 248.93549999999232,
      "v": 122
    },
    {
      "midi": 54,
      "hit": false,
      "t": 105506.27999999996,
      "d": 52.96499999999651,
      "v": 117
    },
    {
      "midi": 50,
      "hit": false,
      "t": 105506.27999999996,
      "d": 153.59849999999278,
      "v": 100
    },
    {
      "midi": 59,
      "hit": false,
      "t": 105506.27999999996,
      "d": 195.9704999999958,
      "v": 92
    },
    {
      "midi": 53,
      "hit": false,
      "t": 105760.51199999994,
      "d": 195.9704999999958,
      "v": 104
    },
    {
      "midi": 57,
      "hit": false,
      "t": 105760.51199999994,
      "d": 201.26699999999255,
      "v": 100
    },
    {
      "midi": 50,
      "hit": false,
      "t": 106014.74399999993,
      "d": 42.37200000000303,
      "v": 51
    },
    {
      "midi": 48,
      "hit": false,
      "t": 106268.97599999994,
      "d": 84.74400000000605,
      "v": 84
    },
    {
      "midi": 36,
      "hit": false,
      "t": 106268.97599999994,
      "d": 105.93000000000757,
      "v": 104
    },
    {
      "midi": 50,
      "hit": false,
      "t": 106523.20799999994,
      "d": 158.89500000000407,
      "v": 108
    },
    {
      "midi": 38,
      "hit": false,
      "t": 106523.20799999994,
      "d": 169.48799999999756,
      "v": 122
    },
    {
      "midi": 45,
      "hit": false,
      "t": 107031.67199999993,
      "d": 90.0405000000028,
      "v": 100
    },
    {
      "midi": 57,
      "hit": false,
      "t": 107158.78799999994,
      "d": 90.0405000000028,
      "v": 48
    },
    {
      "midi": 44,
      "hit": false,
      "t": 107540.13599999994,
      "d": 105.92999999999302,
      "v": 117
    },
    {
      "midi": 56,
      "hit": false,
      "t": 107540.13599999994,
      "d": 111.22649999998976,
      "v": 122
    },
    {
      "midi": 55,
      "hit": false,
      "t": 108048.59999999993,
      "d": 90.0405000000028,
      "v": 117
    },
    {
      "midi": 43,
      "hit": false,
      "t": 108048.59999999993,
      "d": 121.81949999999779,
      "v": 112
    },
    {
      "midi": 50,
      "hit": false,
      "t": 108557.06399999993,
      "d": 185.37750000000233,
      "v": 100
    },
    {
      "midi": 38,
      "hit": false,
      "t": 108557.06399999993,
      "d": 233.0460000000021,
      "v": 108
    },
    {
      "midi": 41,
      "hit": false,
      "t": 108811.29599999993,
      "d": 418.4235000000044,
      "v": 127
    },
    {
      "midi": 53,
      "hit": false,
      "t": 108811.29599999993,
      "d": 503.1675000000105,
      "v": 127
    },
    {
      "midi": 41,
      "hit": false,
      "t": 109446.87599999995,
      "d": 68.85450000000128,
      "v": 127
    },
    {
      "midi": 54,
      "hit": false,
      "t": 109573.99199999994,
      "d": 74.15099999999802,
      "v": 127
    },
    {
      "midi": 50,
      "hit": false,
      "t": 109573.99199999994,
      "d": 180.08099999999104,
      "v": 108
    },
    {
      "midi": 59,
      "hit": false,
      "t": 109573.99199999994,
      "d": 195.9704999999958,
      "v": 112
    },
    {
      "midi": 55,
      "hit": false,
      "t": 109701.10799999993,
      "d": 105.93000000000757,
      "v": 82
    },
    {
      "midi": 53,
      "hit": false,
      "t": 109828.22399999994,
      "d": 190.67399999999907,
      "v": 112
    },
    {
      "midi": 57,
      "hit": false,
      "t": 109828.22399999994,
      "d": 190.67399999999907,
      "v": 104
    },
    {
      "midi": 50,
      "hit": false,
      "t": 110082.45599999995,
      "d": 116.52300000000105,
      "v": 96
    },
    {
      "midi": 38,
      "hit": false,
      "t": 110082.45599999995,
      "d": 174.7844999999943,
      "v": 112
    },
    {
      "midi": 48,
      "hit": false,
      "t": 110336.68799999994,
      "d": 201.2670000000071,
      "v": 100
    },
    {
      "midi": 36,
      "hit": false,
      "t": 110336.68799999994,
      "d": 233.0460000000021,
      "v": 104
    },
    {
      "midi": 50,
      "hit": false,
      "t": 110590.91999999994,
      "d": 132.41250000000582,
      "v": 108
    },
    {
      "midi": 38,
      "hit": false,
      "t": 110590.91999999994,
      "d": 143.0054999999993,
      "v": 117
    },
    {
      "midi": 57,
      "hit": false,
      "t": 111099.38399999993,
      "d": 111.22650000000431,
      "v": 112
    },
    {
      "midi": 45,
      "hit": false,
      "t": 111099.38399999993,
      "d": 164.19150000000081,
      "v": 108
    },
    {
      "midi": 44,
      "hit": false,
      "t": 111607.84799999994,
      "d": 143.0054999999993,
      "v": 112
    },
    {
      "midi": 56,
      "hit": false,
      "t": 111607.84799999994,
      "d": 153.59849999999278,
      "v": 122
    },
    {
      "midi": 55,
      "hit": false,
      "t": 112116.31199999993,
      "d": 100.63349999999627,
      "v": 117
    },
    {
      "midi": 43,
      "hit": false,
      "t": 112116.31199999993,
      "d": 116.52300000000105,
      "v": 100
    },
    {
      "midi": 50,
      "hit": false,
      "t": 112624.77599999994,
      "d": 259.52850000000035,
      "v": 96
    },
    {
      "midi": 38,
      "hit": false,
      "t": 112624.77599999994,
      "d": 275.4180000000051,
      "v": 100
    },
    {
      "midi": 53,
      "hit": false,
      "t": 112879.00799999994,
      "d": 227.74950000000536,
      "v": 112
    },
    {
      "midi": 41,
      "hit": false,
      "t": 112879.00799999994,
      "d": 429.01650000001246,
      "v": 112
    },
    {
      "midi": 38,
      "hit": false,
      "t": 113514.58799999996,
      "d": 238.34249999999884,
      "v": 104
    },
    {
      "midi": 66,
      "hit": false,
      "t": 113641.70399999995,
      "d": 74.15099999999802,
      "v": 127
    },
    {
      "midi": 62,
      "hit": false,
      "t": 113641.70399999995,
      "d": 169.4880000000121,
      "v": 92
    },
    {
      "midi": 71,
      "hit": false,
      "t": 113641.70399999995,
      "d": 185.37750000001688,
      "v": 122
    },
    {
      "midi": 67,
      "hit": false,
      "t": 113768.81999999996,
      "d": 132.41250000000582,
      "v": 74
    },
    {
      "midi": 65,
      "hit": false,
      "t": 113895.93599999997,
      "d": 174.7844999999943,
      "v": 112
    },
    {
      "midi": 69,
      "hit": false,
      "t": 113895.93599999997,
      "d": 185.37749999998778,
      "v": 104
    },
    {
      "midi": 60,
      "hit": false,
      "t": 113895.93599999997,
      "d": 211.85999999998603,
      "v": 122
    },
    {
      "midi": 48,
      "hit": false,
      "t": 114404.39999999997,
      "d": 185.37750000000233,
      "v": 108
    },
    {
      "midi": 36,
      "hit": false,
      "t": 114404.39999999997,
      "d": 296.60400000000664,
      "v": 96
    },
    {
      "midi": 38,
      "hit": false,
      "t": 114658.63199999997,
      "d": 116.52300000000105,
      "v": 117
    },
    {
      "midi": 50,
      "hit": false,
      "t": 114658.63199999997,
      "d": 121.81949999999779,
      "v": 117
    },
    {
      "midi": 57,
      "hit": false,
      "t": 115167.09599999996,
      "d": 132.41250000000582,
      "v": 117
    },
    {
      "midi": 45,
      "hit": false,
      "t": 115167.09599999996,
      "d": 180.0810000000056,
      "v": 108
    },
    {
      "midi": 44,
      "hit": false,
      "t": 115675.55999999997,
      "d": 148.30199999999604,
      "v": 117
    },
    {
      "midi": 56,
      "hit": false,
      "t": 115675.55999999997,
      "d": 153.59849999999278,
      "v": 127
    },
    {
      "midi": 55,
      "hit": false,
      "t": 116184.02399999996,
      "d": 132.41250000000582,
      "v": 122
    },
    {
      "midi": 43,
      "hit": false,
      "t": 116184.02399999996,
      "d": 143.0054999999993,
      "v": 104
    },
    {
      "midi": 50,
      "hit": false,
      "t": 116692.48799999995,
      "d": 153.59849999999278,
      "v": 96
    },
    {
      "midi": 38,
      "hit": false,
      "t": 116692.48799999995,
      "d": 201.26699999999255,
      "v": 104
    },
    {
      "midi": 53,
      "hit": false,
      "t": 116946.71999999994,
      "d": 460.7954999999929,
      "v": 122
    },
    {
      "midi": 41,
      "hit": false,
      "t": 116946.71999999994,
      "d": 508.46399999999267,
      "v": 117
    },
    {
      "midi": 42,
      "hit": false,
      "t": 117455.18399999994,
      "d": 190.67399999999907,
      "v": 108
    },
    {
      "midi": 54,
      "hit": false,
      "t": 117455.18399999994,
      "d": 333.67949999999837,
      "v": 108
    },
    {
      "midi": 55,
      "hit": false,
      "t": 117963.64799999993,
      "d": 153.59849999999278,
      "v": 122
    },
    {
      "midi": 43,
      "hit": false,
      "t": 118217.87999999992,
      "d": 195.9704999999958,
      "v": 108
    },
    {
      "midi": 55,
      "hit": false,
      "t": 118217.87999999992,
      "d": 195.9704999999958,
      "v": 117
    },
    {
      "midi": 53,
      "hit": false,
      "t": 118472.1119999999,
      "d": 206.56350000000384,
      "v": 122
    },
    {
      "midi": 41,
      "hit": false,
      "t": 118472.1119999999,
      "d": 222.45300000000861,
      "v": 117
    },
    {
      "midi": 55,
      "hit": false,
      "t": 118726.34399999991,
      "d": 116.52300000000105,
      "v": 122
    },
    {
      "midi": 43,
      "hit": false,
      "t": 118726.34399999991,
      "d": 137.70900000000256,
      "v": 112
    },
    {
      "midi": 50,
      "hit": false,
      "t": 119234.80799999992,
      "d": 158.89500000000407,
      "v": 117
    },
    {
      "midi": 38,
      "hit": false,
      "t": 119234.80799999992,
      "d": 174.78450000000885,
      "v": 117
    },
    {
      "midi": 49,
      "hit": false,
      "t": 119743.27199999992,
      "d": 148.30199999999604,
      "v": 122
    },
    {
      "midi": 37,
      "hit": false,
      "t": 119743.27199999992,
      "d": 169.48799999999756,
      "v": 108
    },
    {
      "midi": 36,
      "hit": false,
      "t": 120251.73599999992,
      "d": 121.81949999999779,
      "v": 112
    },
    {
      "midi": 48,
      "hit": false,
      "t": 120251.73599999992,
      "d": 137.70900000000256,
      "v": 112
    },
    {
      "midi": 43,
      "hit": false,
      "t": 120760.19999999992,
      "d": 158.89500000000407,
      "v": 104
    },
    {
      "midi": 31,
      "hit": false,
      "t": 120760.19999999992,
      "d": 201.2670000000071,
      "v": 112
    },
    {
      "midi": 46,
      "hit": false,
      "t": 121014.43199999993,
      "d": 460.7954999999929,
      "v": 127
    },
    {
      "midi": 34,
      "hit": false,
      "t": 121014.43199999993,
      "d": 497.8709999999992,
      "v": 117
    },
    {
      "midi": 43,
      "hit": false,
      "t": 121522.89599999992,
      "d": 74.15099999999802,
      "v": 104
    },
    {
      "midi": 31,
      "hit": false,
      "t": 121522.89599999992,
      "d": 190.67399999999907,
      "v": 112
    },
    {
      "midi": 55,
      "hit": false,
      "t": 122031.35999999991,
      "d": 143.0054999999993,
      "v": 127
    },
    {
      "midi": 43,
      "hit": false,
      "t": 122285.59199999992,
      "d": 190.67399999999907,
      "v": 108
    },
    {
      "midi": 55,
      "hit": false,
      "t": 122285.59199999992,
      "d": 195.9704999999958,
      "v": 117
    },
    {
      "midi": 41,
      "hit": false,
      "t": 122539.8239999999,
      "d": 238.34249999999884,
      "v": 112
    },
    {
      "midi": 53,
      "hit": false,
      "t": 122539.8239999999,
      "d": 238.34249999999884,
      "v": 122
    },
    {
      "midi": 43,
      "hit": false,
      "t": 122794.05599999991,
      "d": 95.33699999999953,
      "v": 112
    },
    {
      "midi": 55,
      "hit": false,
      "t": 122794.05599999991,
      "d": 111.22650000000431,
      "v": 108
    },
    {
      "midi": 62,
      "hit": false,
      "t": 123302.51999999992,
      "d": 137.70900000000256,
      "v": 112
    },
    {
      "midi": 50,
      "hit": false,
      "t": 123302.51999999992,
      "d": 185.37750000000233,
      "v": 122
    },
    {
      "midi": 61,
      "hit": false,
      "t": 123810.98399999992,
      "d": 116.52300000000105,
      "v": 112
    },
    {
      "midi": 49,
      "hit": false,
      "t": 123810.98399999992,
      "d": 158.89500000000407,
      "v": 117
    },
    {
      "midi": 48,
      "hit": false,
      "t": 124319.44799999993,
      "d": 127.11599999999453,
      "v": 112
    },
    {
      "midi": 60,
      "hit": false,
      "t": 124319.44799999993,
      "d": 132.41249999999127,
      "v": 122
    },
    {
      "midi": 43,
      "hit": false,
      "t": 124827.91199999992,
      "d": 227.74950000000536,
      "v": 104
    },
    {
      "midi": 55,
      "hit": false,
      "t": 125082.14399999993,
      "d": 402.53399999999965,
      "v": 117
    },
    {
      "midi": 64,
      "hit": false,
      "t": 125082.14399999993,
      "d": 418.4235000000044,
      "v": 127
    },
    {
      "midi": 48,
      "hit": false,
      "t": 125082.14399999993,
      "d": 444.9060000000027,
      "v": 127
    },
    {
      "midi": 60,
      "hit": false,
      "t": 125082.14399999993,
      "d": 455.49899999999616,
      "v": 127
    },
    {
      "midi": 46,
      "hit": false,
      "t": 125590.60799999992,
      "d": 296.60400000000664,
      "v": 122
    },
    {
      "midi": 62,
      "hit": false,
      "t": 125590.60799999992,
      "d": 397.2375000000029,
      "v": 96
    },
    {
      "midi": 58,
      "hit": false,
      "t": 125590.60799999992,
      "d": 407.8304999999964,
      "v": 122
    },
    {
      "midi": 53,
      "hit": false,
      "t": 125590.60799999992,
      "d": 429.0164999999979,
      "v": 117
    },
    {
      "midi": 62,
      "hit": false,
      "t": 126099.07199999991,
      "d": 158.89500000000407,
      "v": 108
    },
    {
      "midi": 38,
      "hit": false,
      "t": 126353.30399999992,
      "d": 222.45299999999406,
      "v": 108
    },
    {
      "midi": 62,
      "hit": false,
      "t": 126353.30399999992,
      "d": 233.04599999998754,
      "v": 100
    },
    {
      "midi": 60,
      "hit": false,
      "t": 126607.5359999999,
      "d": 222.45299999999406,
      "v": 112
    },
    {
      "midi": 36,
      "hit": false,
      "t": 126607.5359999999,
      "d": 233.04599999998754,
      "v": 112
    },
    {
      "midi": 38,
      "hit": false,
      "t": 126861.7679999999,
      "d": 111.22650000000431,
      "v": 112
    },
    {
      "midi": 62,
      "hit": false,
      "t": 126861.7679999999,
      "d": 111.22650000000431,
      "v": 96
    },
    {
      "midi": 57,
      "hit": false,
      "t": 127370.2319999999,
      "d": 121.81949999999779,
      "v": 112
    },
    {
      "midi": 45,
      "hit": false,
      "t": 127370.2319999999,
      "d": 153.59849999999278,
      "v": 108
    },
    {
      "midi": 44,
      "hit": false,
      "t": 127878.6959999999,
      "d": 153.59849999999278,
      "v": 104
    },
    {
      "midi": 56,
      "hit": false,
      "t": 127878.6959999999,
      "d": 190.67399999999907,
      "v": 117
    },
    {
      "midi": 55,
      "hit": false,
      "t": 128387.15999999989,
      "d": 132.41250000000582,
      "v": 122
    },
    {
      "midi": 43,
      "hit": false,
      "t": 128387.15999999989,
      "d": 143.0054999999993,
      "v": 108
    },
    {
      "midi": 50,
      "hit": false,
      "t": 128895.62399999988,
      "d": 201.2670000000071,
      "v": 104
    },
    {
      "midi": 38,
      "hit": false,
      "t": 128895.62399999988,
      "d": 233.0460000000021,
      "v": 108
    },
    {
      "midi": 53,
      "hit": false,
      "t": 129149.85599999988,
      "d": 455.49899999999616,
      "v": 127
    },
    {
      "midi": 41,
      "hit": false,
      "t": 129149.85599999988,
      "d": 476.6849999999977,
      "v": 127
    },
    {
      "midi": 38,
      "hit": false,
      "t": 129658.31999999988,
      "d": 201.2670000000071,
      "v": 122
    },
    {
      "midi": 50,
      "hit": false,
      "t": 129658.31999999988,
      "d": 307.1970000000001,
      "v": 122
    },
    {
      "midi": 50,
      "hit": false,
      "t": 130166.78399999988,
      "d": 148.30199999999604,
      "v": 127
    },
    {
      "midi": 50,
      "hit": false,
      "t": 130421.01599999987,
      "d": 201.2670000000071,
      "v": 108
    },
    {
      "midi": 38,
      "hit": false,
      "t": 130421.01599999987,
      "d": 259.52850000000035,
      "v": 100
    },
    {
      "midi": 36,
      "hit": false,
      "t": 130675.24799999988,
      "d": 111.22649999998976,
      "v": 108
    },
    {
      "midi": 48,
      "hit": false,
      "t": 130675.24799999988,
      "d": 248.93549999999232,
      "v": 117
    },
    {
      "midi": 38,
      "hit": false,
      "t": 130929.47999999986,
      "d": 111.22650000000431,
      "v": 108
    },
    {
      "midi": 50,
      "hit": false,
      "t": 130929.47999999986,
      "d": 132.41250000000582,
      "v": 117
    },
    {
      "midi": 57,
      "hit": false,
      "t": 131437.94399999987,
      "d": 158.89499999998952,
      "v": 122
    },
    {
      "midi": 45,
      "hit": false,
      "t": 131437.94399999987,
      "d": 169.487999999983,
      "v": 108
    },
    {
      "midi": 56,
      "hit": false,
      "t": 131946.40799999985,
      "d": 121.81950000001234,
      "v": 122
    },
    {
      "midi": 44,
      "hit": false,
      "t": 131946.40799999985,
      "d": 158.89500000001863,
      "v": 112
    },
    {
      "midi": 55,
      "hit": false,
      "t": 132454.87199999986,
      "d": 127.11600000000908,
      "v": 122
    },
    {
      "midi": 43,
      "hit": false,
      "t": 132454.87199999986,
      "d": 153.5985000000219,
      "v": 117
    },
    {
      "midi": 50,
      "hit": false,
      "t": 132963.3359999999,
      "d": 195.9704999999958,
      "v": 104
    },
    {
      "midi": 38,
      "hit": false,
      "t": 132963.3359999999,
      "d": 248.93549999999232,
      "v": 112
    },
    {
      "midi": 41,
      "hit": false,
      "t": 133217.56799999988,
      "d": 995.7419999999984,
      "v": 127
    },
    {
      "midi": 53,
      "hit": false,
      "t": 133217.56799999988,
      "d": 995.7419999999984,
      "v": 127
    },
    {
      "midi": 62,
      "hit": false,
      "t": 150505.34399999987,
      "d": 143.0054999999993,
      "v": 122
    },
    {
      "midi": 50,
      "hit": false,
      "t": 150759.57599999986,
      "d": 180.0810000000056,
      "v": 104
    },
    {
      "midi": 62,
      "hit": false,
      "t": 150759.57599999986,
      "d": 190.67399999999907,
      "v": 104
    },
    {
      "midi": 48,
      "hit": false,
      "t": 151013.80799999984,
      "d": 217.15650000001187,
      "v": 108
    },
    {
      "midi": 60,
      "hit": false,
      "t": 151013.80799999984,
      "d": 227.74950000000536,
      "v": 117
    },
    {
      "midi": 62,
      "hit": false,
      "t": 151268.03999999986,
      "d": 111.22649999998976,
      "v": 112
    },
    {
      "midi": 50,
      "hit": false,
      "t": 151268.03999999986,
      "d": 121.81949999998324,
      "v": 122
    },
    {
      "midi": 45,
      "hit": false,
      "t": 151776.50399999984,
      "d": 137.70900000000256,
      "v": 108
    },
    {
      "midi": 57,
      "hit": false,
      "t": 151776.50399999984,
      "d": 137.70900000000256,
      "v": 112
    },
    {
      "midi": 44,
      "hit": false,
      "t": 152284.96799999985,
      "d": 121.81950000001234,
      "v": 108
    },
    {
      "midi": 56,
      "hit": false,
      "t": 152284.96799999985,
      "d": 132.41250000000582,
      "v": 117
    },
    {
      "midi": 43,
      "hit": false,
      "t": 152793.43199999986,
      "d": 95.33699999999953,
      "v": 108
    },
    {
      "midi": 55,
      "hit": false,
      "t": 152793.43199999986,
      "d": 116.5229999999865,
      "v": 122
    },
    {
      "midi": 50,
      "hit": false,
      "t": 153301.89599999983,
      "d": 190.67399999999907,
      "v": 104
    },
    {
      "midi": 38,
      "hit": false,
      "t": 153301.89599999983,
      "d": 206.5634999999893,
      "v": 92
    },
    {
      "midi": 53,
      "hit": false,
      "t": 153556.12799999982,
      "d": 481.9814999999944,
      "v": 117
    },
    {
      "midi": 41,
      "hit": false,
      "t": 153556.12799999982,
      "d": 508.4640000000072,
      "v": 117
    },
    {
      "midi": 38,
      "hit": false,
      "t": 154064.59199999983,
      "d": 148.30199999999604,
      "v": 104
    },
    {
      "midi": 50,
      "hit": false,
      "t": 154064.59199999983,
      "d": 238.34249999999884,
      "v": 104
    },
    {
      "midi": 50,
      "hit": false,
      "t": 154573.05599999984,
      "d": 127.11600000000908,
      "v": 100
    },
    {
      "midi": 38,
      "hit": false,
      "t": 154827.28799999985,
      "d": 90.0405000000028,
      "v": 84
    },
    {
      "midi": 50,
      "hit": false,
      "t": 154827.28799999985,
      "d": 158.89499999998952,
      "v": 108
    },
    {
      "midi": 36,
      "hit": false,
      "t": 155081.51999999984,
      "d": 79.44750000000931,
      "v": 100
    },
    {
      "midi": 48,
      "hit": false,
      "t": 155081.51999999984,
      "d": 116.5230000000156,
      "v": 96
    },
    {
      "midi": 50,
      "hit": false,
      "t": 155335.75199999986,
      "d": 105.92999999999302,
      "v": 96
    },
    {
      "midi": 38,
      "hit": false,
      "t": 155335.75199999986,
      "d": 132.41250000000582,
      "v": 108
    },
    {
      "midi": 57,
      "hit": false,
      "t": 155844.21599999987,
      "d": 132.41250000000582,
      "v": 108
    },
    {
      "midi": 45,
      "hit": false,
      "t": 155844.21599999987,
      "d": 153.59849999999278,
      "v": 104
    },
    {
      "midi": 56,
      "hit": false,
      "t": 156352.67999999988,
      "d": 100.63349999999627,
      "v": 104
    },
    {
      "midi": 44,
      "hit": false,
      "t": 156352.67999999988,
      "d": 127.11600000000908,
      "v": 117
    },
    {
      "midi": 55,
      "hit": false,
      "t": 156861.14399999988,
      "d": 74.15100000001257,
      "v": 108
    },
    {
      "midi": 67,
      "hit": false,
      "t": 156861.14399999988,
      "d": 84.74400000000605,
      "v": 88
    },
    {
      "midi": 48,
      "hit": false,
      "t": 157369.6079999999,
      "d": 90.0405000000028,
      "v": 108
    },
    {
      "midi": 36,
      "hit": false,
      "t": 157369.6079999999,
      "d": 132.41250000000582,
      "v": 104
    },
    {
      "midi": 38,
      "hit": false,
      "t": 157496.7239999999,
      "d": 116.5229999999865,
      "v": 112
    },
    {
      "midi": 50,
      "hit": false,
      "t": 157496.7239999999,
      "d": 143.0054999999702,
      "v": 122
    },
    {
      "midi": 41,
      "hit": false,
      "t": 157623.83999999988,
      "d": 90.0405000000028,
      "v": 127
    },
    {
      "midi": 53,
      "hit": false,
      "t": 157623.83999999988,
      "d": 111.22649999998976,
      "v": 117
    },
    {
      "midi": 43,
      "hit": false,
      "t": 157750.95599999986,
      "d": 79.44750000000931,
      "v": 112
    },
    {
      "midi": 55,
      "hit": false,
      "t": 157750.95599999986,
      "d": 137.70900000000256,
      "v": 104
    },
    {
      "midi": 53,
      "hit": false,
      "t": 157878.07199999987,
      "d": 222.4529999999795,
      "v": 122
    },
    {
      "midi": 41,
      "hit": false,
      "t": 157878.07199999987,
      "d": 270.1214999999793,
      "v": 108
    },
    {
      "midi": 38,
      "hit": false,
      "t": 158132.30399999986,
      "d": 439.6094999999914,
      "v": 122
    },
    {
      "midi": 50,
      "hit": false,
      "t": 158132.30399999986,
      "d": 450.20249999998487,
      "v": 108
    },
    {
      "midi": 50,
      "hit": false,
      "t": 158640.76799999984,
      "d": 180.0810000000056,
      "v": 96
    },
    {
      "midi": 50,
      "hit": false,
      "t": 158894.99999999985,
      "d": 201.26699999999255,
      "v": 100
    },
    {
      "midi": 38,
      "hit": false,
      "t": 158894.99999999985,
      "d": 217.15649999998277,
      "v": 92
    },
    {
      "midi": 36,
      "hit": false,
      "t": 159149.23199999984,
      "d": 111.22649999998976,
      "v": 100
    },
    {
      "midi": 48,
      "hit": false,
      "t": 159149.23199999984,
      "d": 185.37750000000233,
      "v": 96
    },
    {
      "midi": 50,
      "hit": false,
      "t": 159403.46399999983,
      "d": 90.0405000000028,
      "v": 104
    },
    {
      "midi": 38,
      "hit": false,
      "t": 159403.46399999983,
      "d": 95.33699999999953,
      "v": 108
    },
    {
      "midi": 45,
      "hit": false,
      "t": 159911.92799999984,
      "d": 95.33699999999953,
      "v": 92
    },
    {
      "midi": 57,
      "hit": false,
      "t": 159911.92799999984,
      "d": 95.33699999999953,
      "v": 96
    },
    {
      "midi": 44,
      "hit": false,
      "t": 160420.39199999985,
      "d": 90.0405000000028,
      "v": 112
    },
    {
      "midi": 56,
      "hit": false,
      "t": 160420.39199999985,
      "d": 100.63349999999627,
      "v": 122
    },
    {
      "midi": 55,
      "hit": false,
      "t": 160928.85599999985,
      "d": 90.0405000000028,
      "v": 117
    },
    {
      "midi": 43,
      "hit": false,
      "t": 160928.85599999985,
      "d": 95.33699999999953,
      "v": 104
    },
    {
      "midi": 50,
      "hit": false,
      "t": 161437.31999999986,
      "d": 180.0810000000056,
      "v": 100
    },
    {
      "midi": 38,
      "hit": false,
      "t": 161437.31999999986,
      "d": 254.23200000001816,
      "v": 92
    },
    {
      "midi": 53,
      "hit": false,
      "t": 161691.55199999988,
      "d": 301.9004999999888,
      "v": 104
    },
    {
      "midi": 41,
      "hit": false,
      "t": 161691.55199999988,
      "d": 455.4989999999816,
      "v": 108
    },
    {
      "midi": 38,
      "hit": false,
      "t": 162200.01599999986,
      "d": 121.81950000001234,
      "v": 108
    },
    {
      "midi": 50,
      "hit": false,
      "t": 162200.01599999986,
      "d": 153.5985000000219,
      "v": 108
    },
    {
      "midi": 38,
      "hit": false,
      "t": 162708.4799999999,
      "d": 105.92999999999302,
      "v": 104
    },
    {
      "midi": 50,
      "hit": false,
      "t": 162708.4799999999,
      "d": 121.81949999998324,
      "v": 117
    },
    {
      "midi": 50,
      "hit": false,
      "t": 162962.71199999988,
      "d": 190.67399999999907,
      "v": 104
    },
    {
      "midi": 38,
      "hit": false,
      "t": 162962.71199999988,
      "d": 217.15650000001187,
      "v": 92
    },
    {
      "midi": 48,
      "hit": false,
      "t": 163216.9439999999,
      "d": 233.0460000000021,
      "v": 108
    },
    {
      "midi": 36,
      "hit": false,
      "t": 163216.9439999999,
      "d": 238.34249999999884,
      "v": 104
    },
    {
      "midi": 50,
      "hit": false,
      "t": 163471.1759999999,
      "d": 105.92999999999302,
      "v": 117
    },
    {
      "midi": 38,
      "hit": false,
      "t": 163471.1759999999,
      "d": 116.5229999999865,
      "v": 104
    },
    {
      "midi": 57,
      "hit": false,
      "t": 163979.63999999987,
      "d": 132.41250000000582,
      "v": 112
    },
    {
      "midi": 45,
      "hit": false,
      "t": 163979.63999999987,
      "d": 148.30199999999604,
      "v": 104
    },
    {
      "midi": 44,
      "hit": false,
      "t": 164488.10399999988,
      "d": 100.63349999999627,
      "v": 117
    },
    {
      "midi": 56,
      "hit": false,
      "t": 164488.10399999988,
      "d": 127.11600000000908,
      "v": 127
    },
    {
      "midi": 43,
      "hit": false,
      "t": 164996.56799999988,
      "d": 79.44750000000931,
      "v": 108
    },
    {
      "midi": 55,
      "hit": false,
      "t": 164996.56799999988,
      "d": 84.74400000000605,
      "v": 108
    },
    {
      "midi": 50,
      "hit": false,
      "t": 165505.0319999999,
      "d": 26.482500000012806,
      "v": 56
    },
    {
      "midi": 38,
      "hit": false,
      "t": 165505.0319999999,
      "d": 238.34249999999884,
      "v": 96
    },
    {
      "midi": 60,
      "hit": false,
      "t": 165759.26399999988,
      "d": 360.1620000000112,
      "v": 127
    },
    {
      "midi": 57,
      "hit": false,
      "t": 165759.26399999988,
      "d": 429.0164999999979,
      "v": 127
    },
    {
      "midi": 41,
      "hit": false,
      "t": 165759.26399999988,
      "d": 471.38850000000093,
      "v": 127
    },
    {
      "midi": 53,
      "hit": false,
      "t": 165759.26399999988,
      "d": 508.4640000000072,
      "v": 127
    },
    {
      "midi": 55,
      "hit": false,
      "t": 166267.7279999999,
      "d": 354.86550000001444,
      "v": 104
    },
    {
      "midi": 59,
      "hit": false,
      "t": 166267.7279999999,
      "d": 386.644500000024,
      "v": 104
    },
    {
      "midi": 43,
      "hit": false,
      "t": 166267.7279999999,
      "d": 418.4235000000335,
      "v": 112
    },
    {
      "midi": 50,
      "hit": false,
      "t": 166267.7279999999,
      "d": 423.72000000003027,
      "v": 108
    },
    {
      "midi": 57,
      "hit": false,
      "t": 166776.19199999992,
      "d": 137.70900000000256,
      "v": 100
    },
    {
      "midi": 62,
      "hit": false,
      "t": 166776.19199999992,
      "d": 158.89499999998952,
      "v": 112
    },
    {
      "midi": 65,
      "hit": false,
      "t": 166776.19199999992,
      "d": 174.78449999997974,
      "v": 108
    },
    {
      "midi": 43,
      "hit": false,
      "t": 167030.4239999999,
      "d": 132.41250000000582,
      "v": 96
    },
    {
      "midi": 57,
      "hit": false,
      "t": 167030.4239999999,
      "d": 143.0054999999993,
      "v": 112
    },
    {
      "midi": 62,
      "hit": false,
      "t": 167030.4239999999,
      "d": 164.19149999998626,
      "v": 122
    },
    {
      "midi": 65,
      "hit": false,
      "t": 167030.4239999999,
      "d": 164.19149999998626,
      "v": 100
    },
    {
      "midi": 43,
      "hit": false,
      "t": 167284.6559999999,
      "d": 143.0054999999993,
      "v": 112
    },
    {
      "midi": 60,
      "hit": false,
      "t": 167284.6559999999,
      "d": 153.59849999999278,
      "v": 100
    },
    {
      "midi": 55,
      "hit": false,
      "t": 167284.6559999999,
      "d": 174.78449999997974,
      "v": 104
    },
    {
      "midi": 64,
      "hit": false,
      "t": 167284.6559999999,
      "d": 190.67399999996996,
      "v": 108
    },
    {
      "midi": 43,
      "hit": false,
      "t": 167538.88799999986,
      "d": 116.5229999999865,
      "v": 112
    },
    {
      "midi": 59,
      "hit": false,
      "t": 167538.88799999986,
      "d": 153.59849999999278,
      "v": 108
    },
    {
      "midi": 62,
      "hit": false,
      "t": 167538.88799999986,
      "d": 164.19149999998626,
      "v": 104
    },
    {
      "midi": 55,
      "hit": false,
      "t": 167538.88799999986,
      "d": 174.78449999997974,
      "v": 100
    },
    {
      "midi": 61,
      "hit": false,
      "t": 168555.81599999985,
      "d": 84.74400000000605,
      "v": 112
    },
    {
      "midi": 49,
      "hit": false,
      "t": 168555.81599999985,
      "d": 100.63349999999627,
      "v": 112
    },
    {
      "midi": 48,
      "hit": false,
      "t": 169064.27999999985,
      "d": 111.22649999998976,
      "v": 117
    },
    {
      "midi": 60,
      "hit": false,
      "t": 169064.27999999985,
      "d": 116.5229999999865,
      "v": 122
    },
    {
      "midi": 55,
      "hit": false,
      "t": 169572.74399999983,
      "d": 195.9704999999958,
      "v": 104
    },
    {
      "midi": 43,
      "hit": false,
      "t": 169572.74399999983,
      "d": 227.74950000000536,
      "v": 96
    },
    {
      "midi": 58,
      "hit": false,
      "t": 169826.97599999985,
      "d": 460.79550000000745,
      "v": 122
    },
    {
      "midi": 46,
      "hit": false,
      "t": 169826.97599999985,
      "d": 471.38850000000093,
      "v": 117
    },
    {
      "midi": 55,
      "hit": false,
      "t": 170335.43999999986,
      "d": 95.33699999999953,
      "v": 100
    },
    {
      "midi": 43,
      "hit": false,
      "t": 170335.43999999986,
      "d": 105.92999999999302,
      "v": 104
    },
    {
      "midi": 55,
      "hit": false,
      "t": 170843.90399999986,
      "d": 137.70900000000256,
      "v": 96
    },
    {
      "midi": 62,
      "hit": false,
      "t": 170843.90399999986,
      "d": 174.78450000000885,
      "v": 86
    },
    {
      "midi": 65,
      "hit": false,
      "t": 170843.90399999986,
      "d": 180.0810000000056,
      "v": 96
    },
    {
      "midi": 55,
      "hit": false,
      "t": 171098.13599999988,
      "d": 148.30199999999604,
      "v": 104
    },
    {
      "midi": 65,
      "hit": false,
      "t": 171098.13599999988,
      "d": 153.59849999999278,
      "v": 92
    },
    {
      "midi": 43,
      "hit": false,
      "t": 171098.13599999988,
      "d": 158.89499999998952,
      "v": 88
    },
    {
      "midi": 62,
      "hit": false,
      "t": 171098.13599999988,
      "d": 185.37750000000233,
      "v": 112
    },
    {
      "midi": 43,
      "hit": false,
      "t": 171352.36799999987,
      "d": 143.0054999999993,
      "v": 117
    },
    {
      "midi": 60,
      "hit": false,
      "t": 171352.36799999987,
      "d": 143.0054999999993,
      "v": 117
    },
    {
      "midi": 64,
      "hit": false,
      "t": 171352.36799999987,
      "d": 190.67399999999907,
      "v": 122
    },
    {
      "midi": 55,
      "hit": false,
      "t": 171352.36799999987,
      "d": 238.34249999999884,
      "v": 108
    },
    {
      "midi": 62,
      "hit": false,
      "t": 171606.59999999986,
      "d": 132.41250000000582,
      "v": 108
    },
    {
      "midi": 59,
      "hit": false,
      "t": 171606.59999999986,
      "d": 137.70900000000256,
      "v": 108
    },
    {
      "midi": 43,
      "hit": false,
      "t": 171606.59999999986,
      "d": 143.0054999999993,
      "v": 112
    },
    {
      "midi": 50,
      "hit": false,
      "t": 172115.06399999987,
      "d": 95.33699999999953,
      "v": 117
    },
    {
      "midi": 62,
      "hit": false,
      "t": 172115.06399999987,
      "d": 100.63349999999627,
      "v": 104
    },
    {
      "midi": 49,
      "hit": false,
      "t": 172623.52799999987,
      "d": 100.63349999999627,
      "v": 117
    },
    {
      "midi": 61,
      "hit": false,
      "t": 172623.52799999987,
      "d": 111.22649999998976,
      "v": 127
    },
    {
      "midi": 48,
      "hit": false,
      "t": 173131.99199999985,
      "d": 95.33699999999953,
      "v": 117
    },
    {
      "midi": 60,
      "hit": false,
      "t": 173131.99199999985,
      "d": 95.33699999999953,
      "v": 122
    },
    {
      "midi": 55,
      "hit": false,
      "t": 173640.45599999986,
      "d": 190.67399999999907,
      "v": 108
    },
    {
      "midi": 43,
      "hit": false,
      "t": 173640.45599999986,
      "d": 222.45300000000861,
      "v": 108
    },
    {
      "midi": 48,
      "hit": false,
      "t": 173894.68799999988,
      "d": 471.38850000000093,
      "v": 117
    },
    {
      "midi": 60,
      "hit": false,
      "t": 173894.68799999988,
      "d": 497.87100000001374,
      "v": 127
    },
    {
      "midi": 46,
      "hit": false,
      "t": 174403.15199999989,
      "d": 148.30199999999604,
      "v": 122
    },
    {
      "midi": 58,
      "hit": false,
      "t": 174403.15199999989,
      "d": 185.37750000000233,
      "v": 122
    },
    {
      "midi": 57,
      "hit": false,
      "t": 174911.6159999999,
      "d": 164.19149999998626,
      "v": 117
    },
    {
      "midi": 62,
      "hit": false,
      "t": 174911.6159999999,
      "d": 174.78449999997974,
      "v": 112
    },
    {
      "midi": 38,
      "hit": false,
      "t": 175165.84799999988,
      "d": 158.89499999998952,
      "v": 104
    },
    {
      "midi": 57,
      "hit": false,
      "t": 175165.84799999988,
      "d": 164.19149999998626,
      "v": 112
    },
    {
      "midi": 62,
      "hit": false,
      "t": 175165.84799999988,
      "d": 174.78449999997974,
      "v": 92
    },
    {
      "midi": 50,
      "hit": false,
      "t": 175420.07999999987,
      "d": 105.92999999999302,
      "v": 96
    },
    {
      "midi": 36,
      "hit": false,
      "t": 175420.07999999987,
      "d": 217.15649999998277,
      "v": 112
    },
    {
      "midi": 50,
      "hit": false,
      "t": 175674.31199999986,
      "d": 79.44750000000931,
      "v": 96
    },
    {
      "midi": 38,
      "hit": false,
      "t": 175674.31199999986,
      "d": 127.11600000000908,
      "v": 122
    },
    {
      "midi": 57,
      "hit": false,
      "t": 176182.77599999987,
      "d": 95.33699999999953,
      "v": 112
    },
    {
      "midi": 45,
      "hit": false,
      "t": 176182.77599999987,
      "d": 116.5229999999865,
      "v": 117
    },
    {
      "midi": 44,
      "hit": false,
      "t": 176691.23999999985,
      "d": 127.11600000000908,
      "v": 117
    },
    {
      "midi": 56,
      "hit": false,
      "t": 176691.23999999985,
      "d": 127.11600000000908,
      "v": 127
    },
    {
      "midi": 55,
      "hit": false,
      "t": 177199.70399999985,
      "d": 100.63349999999627,
      "v": 117
    },
    {
      "midi": 43,
      "hit": false,
      "t": 177199.70399999985,
      "d": 121.81949999998324,
      "v": 112
    },
    {
      "midi": 50,
      "hit": false,
      "t": 177708.16799999983,
      "d": 84.74400000000605,
      "v": 84
    },
    {
      "midi": 38,
      "hit": false,
      "t": 177708.16799999983,
      "d": 190.67399999999907,
      "v": 100
    },
    {
      "midi": 53,
      "hit": false,
      "t": 177962.39999999982,
      "d": 471.38850000000093,
      "v": 117
    },
    {
      "midi": 41,
      "hit": false,
      "t": 177962.39999999982,
      "d": 503.1675000000105,
      "v": 122
    },
    {
      "midi": 38,
      "hit": false,
      "t": 178470.86399999983,
      "d": 148.30199999999604,
      "v": 108
    },
    {
      "midi": 50,
      "hit": false,
      "t": 178470.86399999983,
      "d": 286.0109999999986,
      "v": 108
    },
    {
      "midi": 50,
      "hit": false,
      "t": 178979.32799999983,
      "d": 148.30199999999604,
      "v": 100
    },
    {
      "midi": 62,
      "hit": false,
      "t": 178979.32799999983,
      "d": 180.0810000000056,
      "v": 104
    },
    {
      "midi": 62,
      "hit": false,
      "t": 179233.55999999985,
      "d": 158.89499999998952,
      "v": 78
    },
    {
      "midi": 50,
      "hit": false,
      "t": 179233.55999999985,
      "d": 174.78449999997974,
      "v": 100
    },
    {
      "midi": 38,
      "hit": false,
      "t": 179233.55999999985,
      "d": 206.5634999999893,
      "v": 104
    },
    {
      "midi": 55,
      "hit": false,
      "t": 179487.79199999984,
      "d": 153.59849999999278,
      "v": 112
    },
    {
      "midi": 48,
      "hit": false,
      "t": 179487.79199999984,
      "d": 174.78449999997974,
      "v": 108
    },
    {
      "midi": 60,
      "hit": false,
      "t": 179487.79199999984,
      "d": 190.67399999996996,
      "v": 104
    },
    {
      "midi": 36,
      "hit": false,
      "t": 179487.79199999984,
      "d": 238.34249999996973,
      "v": 112
    },
    {
      "midi": 38,
      "hit": false,
      "t": 179742.0239999998,
      "d": 153.59849999999278,
      "v": 122
    },
    {
      "midi": 57,
      "hit": false,
      "t": 179742.0239999998,
      "d": 158.89499999998952,
      "v": 117
    },
    {
      "midi": 53,
      "hit": false,
      "t": 179742.0239999998,
      "d": 169.487999999983,
      "v": 117
    },
    {
      "midi": 62,
      "hit": false,
      "t": 179742.0239999998,
      "d": 174.78449999997974,
      "v": 82
    },
    {
      "midi": 57,
      "hit": false,
      "t": 180250.48799999978,
      "d": 121.81950000001234,
      "v": 122
    },
    {
      "midi": 45,
      "hit": false,
      "t": 180250.48799999978,
      "d": 143.0054999999993,
      "v": 96
    },
    {
      "midi": 56,
      "hit": false,
      "t": 180758.9519999998,
      "d": 132.41250000000582,
      "v": 127
    },
    {
      "midi": 44,
      "hit": false,
      "t": 180758.9519999998,
      "d": 158.89500000001863,
      "v": 117
    },
    {
      "midi": 43,
      "hit": false,
      "t": 181267.4159999998,
      "d": 116.5229999999865,
      "v": 117
    },
    {
      "midi": 55,
      "hit": false,
      "t": 181267.4159999998,
      "d": 121.81949999998324,
      "v": 127
    },
    {
      "midi": 38,
      "hit": false,
      "t": 181648.76399999976,
      "d": 248.93550000002142,
      "v": 122
    },
    {
      "midi": 50,
      "hit": false,
      "t": 181775.87999999977,
      "d": 148.30200000002515,
      "v": 100
    },
    {
      "midi": 55,
      "hit": false,
      "t": 181775.87999999977,
      "d": 148.30200000002515,
      "v": 64
    },
    {
      "midi": 59,
      "hit": false,
      "t": 181775.87999999977,
      "d": 180.0810000000347,
      "v": 117
    },
    {
      "midi": 57,
      "hit": false,
      "t": 182030.11199999982,
      "d": 397.23749999998836,
      "v": 112
    },
    {
      "midi": 50,
      "hit": false,
      "t": 182030.11199999982,
      "d": 418.4234999999753,
      "v": 112
    },
    {
      "midi": 53,
      "hit": false,
      "t": 182030.11199999982,
      "d": 418.4234999999753,
      "v": 112
    },
    {
      "midi": 38,
      "hit": false,
      "t": 182030.11199999982,
      "d": 847.4399999999732,
      "v": 100
    },
    {
      "midi": 62,
      "hit": false,
      "t": 182538.5759999998,
      "d": 280.71450000000186,
      "v": 117
    },
    {
      "midi": 57,
      "hit": false,
      "t": 182538.5759999998,
      "d": 291.30749999999534,
      "v": 122
    },
    {
      "midi": 50,
      "hit": false,
      "t": 182538.5759999998,
      "d": 296.6039999999921,
      "v": 104
    },
    {
      "midi": 50,
      "hit": false,
      "t": 199317.8879999998,
      "d": 137.70900000000256,
      "v": 122
    },
    {
      "midi": 50,
      "hit": false,
      "t": 199572.1199999998,
      "d": 190.67399999999907,
      "v": 122
    },
    {
      "midi": 38,
      "hit": false,
      "t": 199572.1199999998,
      "d": 206.5634999999893,
      "v": 112
    },
    {
      "midi": 48,
      "hit": false,
      "t": 199826.35199999978,
      "d": 211.85999999998603,
      "v": 122
    },
    {
      "midi": 36,
      "hit": false,
      "t": 199826.35199999978,
      "d": 317.78999999997905,
      "v": 122
    },
    {
      "midi": 50,
      "hit": false,
      "t": 200080.58399999977,
      "d": 95.33699999999953,
      "v": 112
    },
    {
      "midi": 38,
      "hit": false,
      "t": 200080.58399999977,
      "d": 105.92999999999302,
      "v": 122
    },
    {
      "midi": 57,
      "hit": false,
      "t": 200589.04799999978,
      "d": 111.22649999998976,
      "v": 122
    },
    {
      "midi": 45,
      "hit": false,
      "t": 200589.04799999978,
      "d": 148.30199999999604,
      "v": 112
    },
    {
      "midi": 56,
      "hit": false,
      "t": 201097.51199999978,
      "d": 127.11600000000908,
      "v": 127
    },
    {
      "midi": 44,
      "hit": false,
      "t": 201097.51199999978,
      "d": 132.41250000000582,
      "v": 117
    },
    {
      "midi": 55,
      "hit": false,
      "t": 201605.9759999998,
      "d": 121.81950000001234,
      "v": 127
    },
    {
      "midi": 43,
      "hit": false,
      "t": 201605.9759999998,
      "d": 158.89500000001863,
      "v": 104
    },
    {
      "midi": 50,
      "hit": false,
      "t": 202114.4399999998,
      "d": 180.0810000000056,
      "v": 108
    },
    {
      "midi": 38,
      "hit": false,
      "t": 202114.4399999998,
      "d": 227.74950000000536,
      "v": 104
    },
    {
      "midi": 53,
      "hit": false,
      "t": 202368.67199999982,
      "d": 455.4990000000107,
      "v": 127
    },
    {
      "midi": 41,
      "hit": false,
      "t": 202368.67199999982,
      "d": 524.3534999999974,
      "v": 127
    },
    {
      "midi": 38,
      "hit": false,
      "t": 202877.13599999982,
      "d": 153.59849999999278,
      "v": 117
    },
    {
      "midi": 50,
      "hit": false,
      "t": 202877.13599999982,
      "d": 201.26699999999255,
      "v": 117
    },
    {
      "midi": 50,
      "hit": false,
      "t": 203385.5999999998,
      "d": 153.59849999999278,
      "v": 127
    },
    {
      "midi": 50,
      "hit": false,
      "t": 203639.8319999998,
      "d": 201.26699999999255,
      "v": 112
    },
    {
      "midi": 38,
      "hit": false,
      "t": 203639.8319999998,
      "d": 217.15649999998277,
      "v": 112
    },
    {
      "midi": 48,
      "hit": false,
      "t": 203894.06399999978,
      "d": 195.9704999999958,
      "v": 112
    },
    {
      "midi": 36,
      "hit": false,
      "t": 203894.06399999978,
      "d": 238.34249999999884,
      "v": 108
    },
    {
      "midi": 38,
      "hit": false,
      "t": 204148.29599999977,
      "d": 95.33699999999953,
      "v": 112
    },
    {
      "midi": 50,
      "hit": false,
      "t": 204148.29599999977,
      "d": 132.41250000000582,
      "v": 122
    },
    {
      "midi": 57,
      "hit": false,
      "t": 204656.75999999978,
      "d": 121.81950000001234,
      "v": 122
    },
    {
      "midi": 45,
      "hit": false,
      "t": 204656.75999999978,
      "d": 185.37750000000233,
      "v": 112
    },
    {
      "midi": 56,
      "hit": false,
      "t": 205165.22399999978,
      "d": 132.41250000000582,
      "v": 112
    },
    {
      "midi": 44,
      "hit": false,
      "t": 205165.22399999978,
      "d": 148.30199999999604,
      "v": 112
    },
    {
      "midi": 43,
      "hit": false,
      "t": 205673.6879999998,
      "d": 233.0460000000021,
      "v": 112
    },
    {
      "midi": 55,
      "hit": false,
      "t": 205673.6879999998,
      "d": 259.5285000000149,
      "v": 104
    },
    {
      "midi": 38,
      "hit": false,
      "t": 206182.1519999998,
      "d": 211.85999999998603,
      "v": 92
    },
    {
      "midi": 68,
      "hit": false,
      "t": 206436.3839999998,
      "d": 68.85449999998673,
      "v": 127
    },
    {
      "midi": 72,
      "hit": false,
      "t": 206436.3839999998,
      "d": 386.6444999999658,
      "v": 127
    },
    {
      "midi": 43,
      "hit": false,
      "t": 206436.3839999998,
      "d": 423.71999999997206,
      "v": 122
    },
    {
      "midi": 69,
      "hit": false,
      "t": 206563.49999999977,
      "d": 354.86549999998533,
      "v": 84
    },
    {
      "midi": 71,
      "hit": false,
      "t": 206944.84799999977,
      "d": 450.20250000001397,
      "v": 122
    },
    {
      "midi": 67,
      "hit": false,
      "t": 206944.84799999977,
      "d": 455.4990000000107,
      "v": 122
    },
    {
      "midi": 41,
      "hit": false,
      "t": 206944.84799999977,
      "d": 481.9815000000235,
      "v": 122
    },
    {
      "midi": 62,
      "hit": false,
      "t": 206944.84799999977,
      "d": 497.87100000001374,
      "v": 112
    },
    {
      "midi": 50,
      "hit": false,
      "t": 207707.5439999998,
      "d": 158.89499999998952,
      "v": 62
    },
    {
      "midi": 38,
      "hit": false,
      "t": 207707.5439999998,
      "d": 195.9704999999958,
      "v": 100
    },
    {
      "midi": 48,
      "hit": false,
      "t": 207961.77599999978,
      "d": 180.0810000000056,
      "v": 108
    },
    {
      "midi": 36,
      "hit": false,
      "t": 207961.77599999978,
      "d": 238.34249999999884,
      "v": 104
    },
    {
      "midi": 38,
      "hit": false,
      "t": 208216.00799999977,
      "d": 100.63349999999627,
      "v": 117
    },
    {
      "midi": 50,
      "hit": false,
      "t": 208216.00799999977,
      "d": 116.5229999999865,
      "v": 122
    },
    {
      "midi": 57,
      "hit": false,
      "t": 208724.47199999975,
      "d": 132.41250000000582,
      "v": 122
    },
    {
      "midi": 45,
      "hit": false,
      "t": 208724.47199999975,
      "d": 153.59849999999278,
      "v": 112
    },
    {
      "midi": 56,
      "hit": false,
      "t": 209232.93599999975,
      "d": 116.5229999999865,
      "v": 127
    },
    {
      "midi": 44,
      "hit": false,
      "t": 209232.93599999975,
      "d": 137.70899999997346,
      "v": 117
    },
    {
      "midi": 55,
      "hit": false,
      "t": 209741.39999999973,
      "d": 116.5229999999865,
      "v": 122
    },
    {
      "midi": 43,
      "hit": false,
      "t": 209741.39999999973,
      "d": 153.59849999999278,
      "v": 108
    },
    {
      "midi": 50,
      "hit": false,
      "t": 210249.86399999974,
      "d": 217.15650000001187,
      "v": 100
    },
    {
      "midi": 38,
      "hit": false,
      "t": 210249.86399999974,
      "d": 259.5285000000149,
      "v": 104
    },
    {
      "midi": 41,
      "hit": false,
      "t": 210504.09599999976,
      "d": 248.93549999999232,
      "v": 122
    },
    {
      "midi": 62,
      "hit": false,
      "t": 210758.32799999975,
      "d": 137.70900000000256,
      "v": 117
    },
    {
      "midi": 50,
      "hit": false,
      "t": 210758.32799999975,
      "d": 153.59849999999278,
      "v": 108
    },
    {
      "midi": 41,
      "hit": false,
      "t": 211012.55999999974,
      "d": 15.889499999990221,
      "v": 72
    },
    {
      "midi": 62,
      "hit": false,
      "t": 211139.67599999972,
      "d": 291.30749999999534,
      "v": 117
    },
    {
      "midi": 50,
      "hit": false,
      "t": 211139.67599999972,
      "d": 312.4934999999823,
      "v": 127
    },
    {
      "midi": 59,
      "hit": false,
      "t": 211139.67599999972,
      "d": 328.3829999999725,
      "v": 117
    },
    {
      "midi": 55,
      "hit": false,
      "t": 211139.67599999972,
      "d": 333.67949999996927,
      "v": 127
    },
    {
      "midi": 41,
      "hit": false,
      "t": 211266.79199999972,
      "d": 195.9704999999667,
      "v": 122
    },
    {
      "midi": 57,
      "hit": false,
      "t": 211521.02399999968,
      "d": 185.37750000000233,
      "v": 122
    },
    {
      "midi": 62,
      "hit": false,
      "t": 211521.02399999968,
      "d": 185.37750000000233,
      "v": 112
    },
    {
      "midi": 50,
      "hit": false,
      "t": 211775.25599999967,
      "d": 105.92999999999302,
      "v": 108
    },
    {
      "midi": 48,
      "hit": false,
      "t": 212029.48799999966,
      "d": 217.15650000001187,
      "v": 100
    },
    {
      "midi": 36,
      "hit": false,
      "t": 212029.48799999966,
      "d": 254.23200000001816,
      "v": 104
    },
    {
      "midi": 50,
      "hit": false,
      "t": 212283.71999999968,
      "d": 95.33699999999953,
      "v": 117
    },
    {
      "midi": 38,
      "hit": false,
      "t": 212283.71999999968,
      "d": 121.81950000001234,
      "v": 122
    },
    {
      "midi": 50,
      "hit": false,
      "t": 212792.1839999997,
      "d": 90.0405000000028,
      "v": 96
    },
    {
      "midi": 45,
      "hit": false,
      "t": 212792.1839999997,
      "d": 137.70900000000256,
      "v": 112
    },
    {
      "midi": 57,
      "hit": false,
      "t": 212792.1839999997,
      "d": 206.5634999999893,
      "v": 112
    },
    {
      "midi": 57,
      "hit": false,
      "t": 213173.5319999997,
      "d": 37.075500000006286,
      "v": 82
    },
    {
      "midi": 50,
      "hit": false,
      "t": 213427.7639999997,
      "d": 100.63349999999627,
      "v": 112
    },
    {
      "midi": 68,
      "hit": false,
      "t": 213554.8799999997,
      "d": 68.85449999998673,
      "v": 127
    },
    {
      "midi": 65,
      "hit": false,
      "t": 213554.8799999997,
      "d": 137.70899999997346,
      "v": 92
    },
    {
      "midi": 72,
      "hit": false,
      "t": 213554.8799999997,
      "d": 201.26699999999255,
      "v": 117
    },
    {
      "midi": 50,
      "hit": false,
      "t": 213681.9959999997,
      "d": 42.37200000000303,
      "v": 100
    },
    {
      "midi": 69,
      "hit": false,
      "t": 213681.9959999997,
      "d": 84.74400000000605,
      "v": 88
    },
    {
      "midi": 62,
      "hit": false,
      "t": 213809.1119999997,
      "d": 105.92999999999302,
      "v": 112
    },
    {
      "midi": 67,
      "hit": false,
      "t": 213809.1119999997,
      "d": 121.81949999998324,
      "v": 88
    },
    {
      "midi": 71,
      "hit": false,
      "t": 213809.1119999997,
      "d": 127.11599999997998,
      "v": 104
    },
    {
      "midi": 60,
      "hit": false,
      "t": 214063.3439999997,
      "d": 105.92999999999302,
      "v": 86
    },
    {
      "midi": 65,
      "hit": false,
      "t": 214063.3439999997,
      "d": 111.22649999998976,
      "v": 117
    },
    {
      "midi": 69,
      "hit": false,
      "t": 214063.3439999997,
      "d": 132.41249999997672,
      "v": 112
    },
    {
      "midi": 59,
      "hit": false,
      "t": 214317.57599999968,
      "d": 111.22649999998976,
      "v": 104
    },
    {
      "midi": 67,
      "hit": false,
      "t": 214317.57599999968,
      "d": 116.5229999999865,
      "v": 76
    },
    {
      "midi": 62,
      "hit": false,
      "t": 214317.57599999968,
      "d": 143.0054999999702,
      "v": 86
    },
    {
      "midi": 50,
      "hit": false,
      "t": 214444.69199999966,
      "d": 100.63349999999627,
      "v": 122
    },
    {
      "midi": 65,
      "hit": false,
      "t": 214571.80799999967,
      "d": 116.5229999999865,
      "v": 112
    },
    {
      "midi": 60,
      "hit": false,
      "t": 214571.80799999967,
      "d": 137.70899999997346,
      "v": 117
    },
    {
      "midi": 57,
      "hit": false,
      "t": 214571.80799999967,
      "d": 148.30199999996694,
      "v": 104
    },
    {
      "midi": 56,
      "hit": false,
      "t": 214826.03999999963,
      "d": 100.63349999999627,
      "v": 103
    },
    {
      "midi": 62,
      "hit": false,
      "t": 214826.03999999963,
      "d": 174.78450000000885,
      "v": 103
    },
    {
      "midi": 50,
      "hit": false,
      "t": 214953.15599999964,
      "d": 63.55799999998999,
      "v": 101
    },
    {
      "midi": 55,
      "hit": false,
      "t": 215080.27199999962,
      "d": 211.85999999998603,
      "v": 100
    },
    {
      "midi": 62,
      "hit": false,
      "t": 215080.27199999962,
      "d": 211.85999999998603,
      "v": 100
    },
    {
      "midi": 50,
      "hit": false,
      "t": 215207.38799999963,
      "d": 15.889499999990221,
      "v": 98
    },
    {
      "midi": 53,
      "hit": false,
      "t": 215334.5039999996,
      "d": 58.26149999999325,
      "v": 96
    },
    {
      "midi": 50,
      "hit": false,
      "t": 215461.6199999996,
      "d": 52.96499999999651,
      "v": 94
    },
    {
      "midi": 50,
      "hit": false,
      "t": 215588.7359999996,
      "d": 121.81950000001234,
      "v": 92
    },
    {
      "midi": 50,
      "hit": false,
      "t": 215842.96799999962,
      "d": 190.67399999999907,
      "v": 112
    },
    {
      "midi": 38,
      "hit": false,
      "t": 215842.96799999962,
      "d": 233.0460000000021,
      "v": 117
    },
    {
      "midi": 48,
      "hit": false,
      "t": 216097.1999999996,
      "d": 185.37750000000233,
      "v": 104
    },
    {
      "midi": 36,
      "hit": false,
      "t": 216097.1999999996,
      "d": 270.1214999999793,
      "v": 108
    },
    {
      "midi": 38,
      "hit": false,
      "t": 216351.4319999996,
      "d": 116.5229999999865,
      "v": 117
    },
    {
      "midi": 50,
      "hit": false,
      "t": 216351.4319999996,
      "d": 158.89499999998952,
      "v": 122
    },
    {
      "midi": 57,
      "hit": false,
      "t": 216859.89599999957,
      "d": 143.0054999999993,
      "v": 108
    },
    {
      "midi": 45,
      "hit": false,
      "t": 216859.89599999957,
      "d": 164.19149999998626,
      "v": 108
    },
    {
      "midi": 56,
      "hit": false,
      "t": 217368.35999999955,
      "d": 148.30199999999604,
      "v": 127
    },
    {
      "midi": 44,
      "hit": false,
      "t": 217368.35999999955,
      "d": 153.59849999999278,
      "v": 117
    },
    {
      "midi": 55,
      "hit": false,
      "t": 217876.82399999956,
      "d": 127.11600000000908,
      "v": 122
    },
    {
      "midi": 43,
      "hit": false,
      "t": 217876.82399999956,
      "d": 143.0054999999993,
      "v": 112
    },
    {
      "midi": 50,
      "hit": false,
      "t": 218385.28799999956,
      "d": 217.15650000001187,
      "v": 117
    },
    {
      "midi": 38,
      "hit": false,
      "t": 218385.28799999956,
      "d": 259.5285000000149,
      "v": 117
    },
    {
      "midi": 53,
      "hit": false,
      "t": 218639.51999999958,
      "d": 444.9059999999881,
      "v": 122
    },
    {
      "midi": 41,
      "hit": false,
      "t": 218639.51999999958,
      "d": 503.1674999999814,
      "v": 127
    },
    {
      "midi": 38,
      "hit": false,
      "t": 219147.98399999956,
      "d": 275.4180000000051,
      "v": 122
    },
    {
      "midi": 50,
      "hit": false,
      "t": 219147.98399999956,
      "d": 312.4935000000114,
      "v": 112
    },
    {
      "midi": 50,
      "hit": false,
      "t": 219656.44799999957,
      "d": 164.19149999998626,
      "v": 127
    },
    {
      "midi": 50,
      "hit": false,
      "t": 219910.67999999956,
      "d": 206.5634999999893,
      "v": 112
    },
    {
      "midi": 38,
      "hit": false,
      "t": 219910.67999999956,
      "d": 238.34249999999884,
      "v": 104
    },
    {
      "midi": 48,
      "hit": false,
      "t": 220164.91199999955,
      "d": 174.78450000000885,
      "v": 112
    },
    {
      "midi": 36,
      "hit": false,
      "t": 220164.91199999955,
      "d": 338.9760000000242,
      "v": 112
    },
    {
      "midi": 38,
      "hit": false,
      "t": 220419.14399999956,
      "d": 153.59849999999278,
      "v": 117
    },
    {
      "midi": 50,
      "hit": false,
      "t": 220419.14399999956,
      "d": 153.59849999999278,
      "v": 122
    },
    {
      "midi": 57,
      "hit": false,
      "t": 220927.60799999957,
      "d": 121.81950000001234,
      "v": 122
    },
    {
      "midi": 45,
      "hit": false,
      "t": 220927.60799999957,
      "d": 164.19150000001537,
      "v": 104
    },
    {
      "midi": 56,
      "hit": false,
      "t": 221436.07199999958,
      "d": 153.59849999999278,
      "v": 127
    },
    {
      "midi": 44,
      "hit": false,
      "t": 221436.07199999958,
      "d": 169.487999999983,
      "v": 117
    },
    {
      "midi": 55,
      "hit": false,
      "t": 221944.53599999956,
      "d": 127.11600000000908,
      "v": 127
    },
    {
      "midi": 43,
      "hit": false,
      "t": 221944.53599999956,
      "d": 169.4880000000121,
      "v": 112
    },
    {
      "midi": 50,
      "hit": false,
      "t": 222452.99999999956,
      "d": 169.4880000000121,
      "v": 117
    },
    {
      "midi": 38,
      "hit": false,
      "t": 222452.99999999956,
      "d": 248.93550000002142,
      "v": 112
    },
    {
      "midi": 53,
      "hit": false,
      "t": 222707.23199999958,
      "d": 471.38850000000093,
      "v": 127
    },
    {
      "midi": 41,
      "hit": false,
      "t": 222707.23199999958,
      "d": 503.1675000000105,
      "v": 122
    },
    {
      "midi": 38,
      "hit": false,
      "t": 223215.6959999996,
      "d": 280.71450000000186,
      "v": 122
    },
    {
      "midi": 50,
      "hit": false,
      "t": 223215.6959999996,
      "d": 312.4935000000114,
      "v": 122
    },
    {
      "midi": 50,
      "hit": false,
      "t": 223724.1599999996,
      "d": 148.30199999999604,
      "v": 108
    },
    {
      "midi": 62,
      "hit": false,
      "t": 223724.1599999996,
      "d": 158.89499999998952,
      "v": 117
    },
    {
      "midi": 50,
      "hit": false,
      "t": 223978.39199999959,
      "d": 137.70900000000256,
      "v": 86
    },
    {
      "midi": 62,
      "hit": false,
      "t": 223978.39199999959,
      "d": 201.26699999999255,
      "v": 104
    },
    {
      "midi": 38,
      "hit": false,
      "t": 223978.39199999959,
      "d": 211.85999999998603,
      "v": 104
    },
    {
      "midi": 48,
      "hit": false,
      "t": 224232.62399999957,
      "d": 111.22649999998976,
      "v": 88
    },
    {
      "midi": 60,
      "hit": false,
      "t": 224232.62399999957,
      "d": 195.9704999999958,
      "v": 108
    },
    {
      "midi": 36,
      "hit": false,
      "t": 224232.62399999957,
      "d": 206.5634999999893,
      "v": 92
    },
    {
      "midi": 62,
      "hit": false,
      "t": 224486.85599999956,
      "d": 169.4880000000121,
      "v": 112
    },
    {
      "midi": 38,
      "hit": false,
      "t": 224486.85599999956,
      "d": 185.37750000000233,
      "v": 112
    },
    {
      "midi": 50,
      "hit": false,
      "t": 224486.85599999956,
      "d": 233.0460000000021,
      "v": 108
    },
    {
      "midi": 57,
      "hit": false,
      "t": 224995.31999999957,
      "d": 137.70900000000256,
      "v": 127
    },
    {
      "midi": 45,
      "hit": false,
      "t": 224995.31999999957,
      "d": 164.19150000001537,
      "v": 117
    },
    {
      "midi": 56,
      "hit": false,
      "t": 225503.78399999958,
      "d": 127.11600000000908,
      "v": 127
    },
    {
      "midi": 44,
      "hit": false,
      "t": 225503.78399999958,
      "d": 180.0810000000056,
      "v": 108
    },
    {
      "midi": 55,
      "hit": false,
      "t": 226012.24799999958,
      "d": 143.0054999999993,
      "v": 117
    },
    {
      "midi": 43,
      "hit": false,
      "t": 226012.24799999958,
      "d": 185.37750000000233,
      "v": 112
    },
    {
      "midi": 50,
      "hit": false,
      "t": 226520.7119999996,
      "d": 190.67399999999907,
      "v": 117
    },
    {
      "midi": 38,
      "hit": false,
      "t": 226520.7119999996,
      "d": 270.1214999999793,
      "v": 112
    },
    {
      "midi": 41,
      "hit": false,
      "t": 226774.94399999958,
      "d": 450.20249999998487,
      "v": 127
    },
    {
      "midi": 53,
      "hit": false,
      "t": 226774.94399999958,
      "d": 450.20249999998487,
      "v": 127
    },
    {
      "midi": 38,
      "hit": false,
      "t": 227283.40799999956,
      "d": 280.71450000000186,
      "v": 117
    },
    {
      "midi": 50,
      "hit": false,
      "t": 227283.40799999956,
      "d": 280.71450000000186,
      "v": 122
    },
    {
      "midi": 50,
      "hit": false,
      "t": 227791.87199999957,
      "d": 158.89499999998952,
      "v": 122
    },
    {
      "midi": 38,
      "hit": false,
      "t": 228046.10399999956,
      "d": 227.74950000000536,
      "v": 104
    },
    {
      "midi": 50,
      "hit": false,
      "t": 228046.10399999956,
      "d": 264.82500000001164,
      "v": 104
    },
    {
      "midi": 48,
      "hit": false,
      "t": 228300.33599999957,
      "d": 217.15649999998277,
      "v": 104
    },
    {
      "midi": 36,
      "hit": false,
      "t": 228300.33599999957,
      "d": 286.0109999999986,
      "v": 108
    },
    {
      "midi": 38,
      "hit": false,
      "t": 228554.56799999956,
      "d": 143.0054999999993,
      "v": 117
    },
    {
      "midi": 50,
      "hit": false,
      "t": 228554.56799999956,
      "d": 217.15650000001187,
      "v": 100
    },
    {
      "midi": 57,
      "hit": false,
      "t": 229063.03199999957,
      "d": 153.59849999999278,
      "v": 117
    },
    {
      "midi": 45,
      "hit": false,
      "t": 229063.03199999957,
      "d": 185.37750000000233,
      "v": 112
    },
    {
      "midi": 56,
      "hit": false,
      "t": 229571.49599999958,
      "d": 148.30199999999604,
      "v": 127
    },
    {
      "midi": 44,
      "hit": false,
      "t": 229571.49599999958,
      "d": 164.19149999998626,
      "v": 122
    },
    {
      "midi": 43,
      "hit": false,
      "t": 230079.95999999956,
      "d": 111.22649999998976,
      "v": 112
    },
    {
      "midi": 55,
      "hit": false,
      "t": 230079.95999999956,
      "d": 323.0864999999758,
      "v": 117
    },
    {
      "midi": 50,
      "hit": false,
      "t": 230461.30799999952,
      "d": 42.37200000000303,
      "v": 92
    },
    {
      "midi": 38,
      "hit": false,
      "t": 230715.5399999995,
      "d": 550.8360000000102,
      "v": 122
    },
    {
      "midi": 56,
      "hit": false,
      "t": 230842.65599999952,
      "d": 79.44750000000931,
      "v": 127
    },
    {
      "midi": 53,
      "hit": false,
      "t": 230842.65599999952,
      "d": 174.78450000000885,
      "v": 112
    },
    {
      "midi": 60,
      "hit": false,
      "t": 230842.65599999952,
      "d": 201.26700000002165,
      "v": 127
    },
    {
      "midi": 57,
      "hit": false,
      "t": 230842.65599999952,
      "d": 211.86000000001513,
      "v": 104
    },
    {
      "midi": 60,
      "hit": false,
      "t": 231096.88799999954,
      "d": 5.29649999999674,
      "v": 62
    },
    {
      "midi": 62,
      "hit": false,
      "t": 231096.88799999954,
      "d": 158.89499999998952,
      "v": 100
    },
    {
      "midi": 55,
      "hit": false,
      "t": 231096.88799999954,
      "d": 206.5634999999893,
      "v": 117
    },
    {
      "midi": 60,
      "hit": false,
      "t": 231351.11999999953,
      "d": 10.59299999999348,
      "v": 104
    },
    {
      "midi": 57,
      "hit": false,
      "t": 231351.11999999953,
      "d": 413.1269999999786,
      "v": 88
    },
    {
      "midi": 62,
      "hit": false,
      "t": 231351.11999999953,
      "d": 466.0919999999751,
      "v": 112
    },
    {
      "midi": 65,
      "hit": false,
      "t": 231351.11999999953,
      "d": 466.0919999999751,
      "v": 117
    },
    {
      "midi": 50,
      "hit": false,
      "t": 231605.35199999952,
      "d": 190.67399999999907,
      "v": 117
    },
    {
      "midi": 55,
      "hit": false,
      "t": 231859.5839999995,
      "d": 127.11600000000908,
      "v": 127
    },
    {
      "midi": 43,
      "hit": false,
      "t": 232113.81599999953,
      "d": 190.67399999999907,
      "v": 112
    },
    {
      "midi": 55,
      "hit": false,
      "t": 232113.81599999953,
      "d": 195.9704999999958,
      "v": 122
    },
    {
      "midi": 53,
      "hit": false,
      "t": 232368.04799999952,
      "d": 180.0810000000056,
      "v": 127
    },
    {
      "midi": 41,
      "hit": false,
      "t": 232368.04799999952,
      "d": 238.34249999999884,
      "v": 117
    },
    {
      "midi": 43,
      "hit": false,
      "t": 232622.2799999995,
      "d": 121.81950000001234,
      "v": 112
    },
    {
      "midi": 55,
      "hit": false,
      "t": 232622.2799999995,
      "d": 143.0054999999993,
      "v": 117
    },
    {
      "midi": 62,
      "hit": false,
      "t": 233130.7439999995,
      "d": 137.70900000000256,
      "v": 117
    },
    {
      "midi": 50,
      "hit": false,
      "t": 233130.7439999995,
      "d": 158.89499999998952,
      "v": 122
    },
    {
      "midi": 61,
      "hit": false,
      "t": 233639.2079999995,
      "d": 121.81950000001234,
      "v": 127
    },
    {
      "midi": 49,
      "hit": false,
      "t": 233639.2079999995,
      "d": 137.70900000000256,
      "v": 122
    },
    {
      "midi": 48,
      "hit": false,
      "t": 234147.6719999995,
      "d": 127.11600000000908,
      "v": 117
    },
    {
      "midi": 60,
      "hit": false,
      "t": 234147.6719999995,
      "d": 137.70900000000256,
      "v": 117
    },
    {
      "midi": 55,
      "hit": false,
      "t": 234656.1359999995,
      "d": 164.19149999998626,
      "v": 108
    },
    {
      "midi": 64,
      "hit": false,
      "t": 234656.1359999995,
      "d": 185.37749999997322,
      "v": 108
    },
    {
      "midi": 60,
      "hit": false,
      "t": 234656.1359999995,
      "d": 201.26699999996345,
      "v": 108
    },
    {
      "midi": 58,
      "hit": false,
      "t": 234910.36799999946,
      "d": 100.63349999999627,
      "v": 122
    },
    {
      "midi": 55,
      "hit": false,
      "t": 234910.36799999946,
      "d": 323.0865000000049,
      "v": 104
    },
    {
      "midi": 62,
      "hit": false,
      "t": 234910.36799999946,
      "d": 434.31299999999464,
      "v": 117
    },
    {
      "midi": 59,
      "hit": false,
      "t": 235037.48399999947,
      "d": 301.9004999999888,
      "v": 112
    },
    {
      "midi": 55,
      "hit": false,
      "t": 235418.83199999947,
      "d": 344.27249999999185,
      "v": 122
    },
    {
      "midi": 55,
      "hit": false,
      "t": 235927.29599999945,
      "d": 153.59849999999278,
      "v": 112
    },
    {
      "midi": 43,
      "hit": false,
      "t": 236181.52799999944,
      "d": 201.26699999999255,
      "v": 86
    },
    {
      "midi": 55,
      "hit": false,
      "t": 236181.52799999944,
      "d": 201.26699999999255,
      "v": 108
    },
    {
      "midi": 53,
      "hit": false,
      "t": 236435.75999999943,
      "d": 206.5634999999893,
      "v": 122
    },
    {
      "midi": 41,
      "hit": false,
      "t": 236435.75999999943,
      "d": 248.93549999999232,
      "v": 112
    },
    {
      "midi": 43,
      "hit": false,
      "t": 236689.99199999942,
      "d": 105.92999999999302,
      "v": 112
    },
    {
      "midi": 55,
      "hit": false,
      "t": 236689.99199999942,
      "d": 111.22649999998976,
      "v": 122
    },
    {
      "midi": 50,
      "hit": false,
      "t": 237198.4559999994,
      "d": 116.5229999999865,
      "v": 117
    },
    {
      "midi": 62,
      "hit": false,
      "t": 237198.4559999994,
      "d": 127.11599999997998,
      "v": 108
    },
    {
      "midi": 49,
      "hit": false,
      "t": 237706.91999999937,
      "d": 132.41250000000582,
      "v": 117
    },
    {
      "midi": 61,
      "hit": false,
      "t": 237706.91999999937,
      "d": 132.41250000000582,
      "v": 122
    },
    {
      "midi": 60,
      "hit": false,
      "t": 238215.38399999938,
      "d": 111.22649999998976,
      "v": 127
    },
    {
      "midi": 48,
      "hit": false,
      "t": 238215.38399999938,
      "d": 137.70900000000256,
      "v": 108
    },
    {
      "midi": 55,
      "hit": false,
      "t": 238723.8479999994,
      "d": 180.0810000000056,
      "v": 108
    },
    {
      "midi": 43,
      "hit": false,
      "t": 238723.8479999994,
      "d": 201.26699999999255,
      "v": 108
    },
    {
      "midi": 58,
      "hit": false,
      "t": 238978.07999999938,
      "d": 460.79550000000745,
      "v": 122
    },
    {
      "midi": 46,
      "hit": false,
      "t": 238978.07999999938,
      "d": 503.1675000000105,
      "v": 122
    },
    {
      "midi": 43,
      "hit": false,
      "t": 239486.54399999938,
      "d": 127.11600000000908,
      "v": 117
    },
    {
      "midi": 55,
      "hit": false,
      "t": 239486.54399999938,
      "d": 360.1620000000112,
      "v": 112
    },
    {
      "midi": 45,
      "hit": false,
      "t": 239740.7759999994,
      "d": 185.37750000000233,
      "v": 84
    },
    {
      "midi": 62,
      "hit": false,
      "t": 239995.0079999994,
      "d": 127.11600000000908,
      "v": 117
    },
    {
      "midi": 62,
      "hit": false,
      "t": 240249.2399999994,
      "d": 201.26699999999255,
      "v": 127
    },
    {
      "midi": 50,
      "hit": false,
      "t": 240249.2399999994,
      "d": 217.15649999998277,
      "v": 108
    },
    {
      "midi": 60,
      "hit": false,
      "t": 240503.4719999994,
      "d": 211.85999999998603,
      "v": 117
    },
    {
      "midi": 48,
      "hit": false,
      "t": 240503.4719999994,
      "d": 243.63899999999558,
      "v": 112
    },
    {
      "midi": 50,
      "hit": false,
      "t": 240757.7039999994,
      "d": 105.92999999999302,
      "v": 122
    },
    {
      "midi": 62,
      "hit": false,
      "t": 240757.7039999994,
      "d": 116.5229999999865,
      "v": 104
    },
    {
      "midi": 57,
      "hit": false,
      "t": 241266.16799999936,
      "d": 132.41250000000582,
      "v": 117
    },
    {
      "midi": 45,
      "hit": false,
      "t": 241266.16799999936,
      "d": 158.89500000001863,
      "v": 117
    },
    {
      "midi": 56,
      "hit": false,
      "t": 241774.63199999937,
      "d": 137.70900000000256,
      "v": 127
    },
    {
      "midi": 44,
      "hit": false,
      "t": 241774.63199999937,
      "d": 143.0054999999993,
      "v": 112
    },
    {
      "midi": 43,
      "hit": false,
      "t": 242283.09599999938,
      "d": 95.33699999999953,
      "v": 88
    },
    {
      "midi": 55,
      "hit": false,
      "t": 242283.09599999938,
      "d": 95.33699999999953,
      "v": 122
    },
    {
      "midi": 38,
      "hit": false,
      "t": 242664.44399999938,
      "d": 100.63349999999627,
      "v": 117
    },
    {
      "midi": 66,
      "hit": false,
      "t": 242791.5599999994,
      "d": 90.0405000000028,
      "v": 127
    },
    {
      "midi": 62,
      "hit": false,
      "t": 242791.5599999994,
      "d": 180.0810000000056,
      "v": 84
    },
    {
      "midi": 71,
      "hit": false,
      "t": 242791.5599999994,
      "d": 190.67399999999907,
      "v": 117
    },
    {
      "midi": 50,
      "hit": false,
      "t": 242791.5599999994,
      "d": 418.4235000000044,
      "v": 108
    },
    {
      "midi": 67,
      "hit": false,
      "t": 242918.6759999994,
      "d": 100.63349999999627,
      "v": 51
    },
    {
      "midi": 65,
      "hit": false,
      "t": 243045.7919999994,
      "d": 116.5229999999865,
      "v": 112
    },
    {
      "midi": 69,
      "hit": false,
      "t": 243045.7919999994,
      "d": 137.70899999997346,
      "v": 112
    },
    {
      "midi": 60,
      "hit": false,
      "t": 243045.7919999994,
      "d": 164.19149999998626,
      "v": 117
    },
    {
      "midi": 62,
      "hit": false,
      "t": 243300.0239999994,
      "d": 84.74400000000605,
      "v": 108
    },
    {
      "midi": 60,
      "hit": false,
      "t": 243427.1399999994,
      "d": 58.26149999999325,
      "v": 117
    },
    {
      "midi": 62,
      "hit": false,
      "t": 243554.25599999938,
      "d": 190.67399999999907,
      "v": 127
    },
    {
      "midi": 45,
      "hit": false,
      "t": 243808.48799999937,
      "d": 95.33699999999953,
      "v": 104
    },
    {
      "midi": 50,
      "hit": false,
      "t": 244062.71999999936,
      "d": 127.11600000000908,
      "v": 112
    },
    {
      "midi": 50,
      "hit": false,
      "t": 244316.95199999938,
      "d": 190.67399999999907,
      "v": 108
    },
    {
      "midi": 38,
      "hit": false,
      "t": 244316.95199999938,
      "d": 270.1214999999793,
      "v": 104
    },
    {
      "midi": 48,
      "hit": false,
      "t": 244571.18399999937,
      "d": 190.67399999999907,
      "v": 117
    },
    {
      "midi": 36,
      "hit": false,
      "t": 244571.18399999937,
      "d": 296.6039999999921,
      "v": 108
    },
    {
      "midi": 50,
      "hit": false,
      "t": 244825.41599999936,
      "d": 137.70900000000256,
      "v": 112
    },
    {
      "midi": 38,
      "hit": false,
      "t": 244825.41599999936,
      "d": 143.0054999999993,
      "v": 122
    },
    {
      "midi": 57,
      "hit": false,
      "t": 245333.87999999936,
      "d": 116.5229999999865,
      "v": 112
    },
    {
      "midi": 45,
      "hit": false,
      "t": 245333.87999999936,
      "d": 158.89499999998952,
      "v": 112
    },
    {
      "midi": 56,
      "hit": false,
      "t": 245842.34399999934,
      "d": 116.5229999999865,
      "v": 117
    },
    {
      "midi": 44,
      "hit": false,
      "t": 245842.34399999934,
      "d": 143.0054999999993,
      "v": 117
    },
    {
      "midi": 55,
      "hit": false,
      "t": 246350.80799999935,
      "d": 105.92999999999302,
      "v": 117
    },
    {
      "midi": 43,
      "hit": false,
      "t": 246350.80799999935,
      "d": 127.11599999997998,
      "v": 100
    },
    {
      "midi": 50,
      "hit": false,
      "t": 246859.27199999933,
      "d": 185.37750000000233,
      "v": 100
    },
    {
      "midi": 38,
      "hit": false,
      "t": 246859.27199999933,
      "d": 227.74950000000536,
      "v": 96
    },
    {
      "midi": 53,
      "hit": false,
      "t": 247113.50399999935,
      "d": 455.4990000000107,
      "v": 122
    },
    {
      "midi": 41,
      "hit": false,
      "t": 247113.50399999935,
      "d": 487.27800000002026,
      "v": 112
    },
    {
      "midi": 50,
      "hit": false,
      "t": 247621.96799999935,
      "d": 301.9004999999888,
      "v": 104
    },
    {
      "midi": 38,
      "hit": false,
      "t": 247621.96799999935,
      "d": 307.19699999998556,
      "v": 108
    },
    {
      "midi": 88,
      "hit": false,
      "t": 266435.13599999936,
      "d": 275.4180000000051,
      "v": 72
    },
    {
      "midi": 93,
      "hit": false,
      "t": 266435.13599999936,
      "d": 286.0109999999986,
      "v": 88
    },
    {
      "midi": 91,
      "hit": false,
      "t": 266435.13599999936,
      "d": 296.6039999999921,
      "v": 80
    },
    {
      "midi": 81,
      "hit": false,
      "t": 266435.13599999936,
      "d": 312.4934999999823,
      "v": 76
    },
    {
      "midi": 93,
      "hit": false,
      "t": 266816.48399999936,
      "d": 227.74949999997625,
      "v": 68
    },
    {
      "midi": 81,
      "hit": false,
      "t": 266816.48399999936,
      "d": 233.045999999973,
      "v": 66
    },
    {
      "midi": 91,
      "hit": false,
      "t": 266816.48399999936,
      "d": 248.9354999999632,
      "v": 56
    },
    {
      "midi": 88,
      "hit": false,
      "t": 266816.48399999936,
      "d": 254.23199999995995,
      "v": 72
    },
    {
      "midi": 93,
      "hit": false,
      "t": 267197.8319999993,
      "d": 333.6795000000275,
      "v": 88
    },
    {
      "midi": 88,
      "hit": false,
      "t": 267197.8319999993,
      "d": 376.0515000000014,
      "v": 92
    },
    {
      "midi": 91,
      "hit": false,
      "t": 267197.8319999993,
      "d": 376.0515000000014,
      "v": 80
    },
    {
      "midi": 81,
      "hit": false,
      "t": 267197.8319999993,
      "d": 730.9169999999576,
      "v": 66
    },
    {
      "midi": 93,
      "hit": false,
      "t": 267706.2959999993,
      "d": 291.30749999999534,
      "v": 66
    },
    {
      "midi": 91,
      "hit": false,
      "t": 267706.2959999993,
      "d": 344.27250000002095,
      "v": 50
    },
    {
      "midi": 88,
      "hit": false,
      "t": 267706.2959999993,
      "d": 413.1270000000368,
      "v": 72
    },
    {
      "midi": 81,
      "hit": false,
      "t": 268214.7599999993,
      "d": 158.89500000001863,
      "v": 68
    },
    {
      "midi": 93,
      "hit": false,
      "t": 268214.7599999993,
      "d": 190.67399999999907,
      "v": 84
    },
    {
      "midi": 90,
      "hit": false,
      "t": 268214.7599999993,
      "d": 206.5634999999893,
      "v": 88
    },
    {
      "midi": 86,
      "hit": false,
      "t": 268214.7599999993,
      "d": 243.63899999996647,
      "v": 84
    },
    {
      "midi": 88,
      "hit": false,
      "t": 268468.99199999927,
      "d": 233.045999999973,
      "v": 42
    },
    {
      "midi": 93,
      "hit": false,
      "t": 268468.99199999927,
      "d": 270.1214999999502,
      "v": 80
    },
    {
      "midi": 81,
      "hit": false,
      "t": 268468.99199999927,
      "d": 307.19699999992736,
      "v": 68
    },
    {
      "midi": 91,
      "hit": false,
      "t": 268468.99199999927,
      "d": 307.19699999992736,
      "v": 66
    },
    {
      "midi": 93,
      "hit": false,
      "t": 268850.3399999992,
      "d": 233.045999999973,
      "v": 62
    },
    {
      "midi": 81,
      "hit": false,
      "t": 268850.3399999992,
      "d": 259.5284999999567,
      "v": 54
    },
    {
      "midi": 88,
      "hit": false,
      "t": 268850.3399999992,
      "d": 275.4179999999469,
      "v": 58
    },
    {
      "midi": 91,
      "hit": false,
      "t": 268850.3399999992,
      "d": 286.0109999999404,
      "v": 35
    },
    {
      "midi": 81,
      "hit": false,
      "t": 269231.68799999915,
      "d": 444.90600000001723,
      "v": 66
    },
    {
      "midi": 91,
      "hit": false,
      "t": 269231.68799999915,
      "d": 720.3240000000224,
      "v": 68
    },
    {
      "midi": 88,
      "hit": false,
      "t": 269231.68799999915,
      "d": 778.5855000000447,
      "v": 66
    },
    {
      "midi": 93,
      "hit": false,
      "t": 269231.68799999915,
      "d": 820.9575000000186,
      "v": 84
    },
    {
      "midi": 81,
      "hit": false,
      "t": 269740.1519999992,
      "d": 291.30749999999534,
      "v": 54
    },
    {
      "midi": 93,
      "hit": false,
      "t": 270248.61599999917,
      "d": 153.5985000000219,
      "v": 66
    },
    {
      "midi": 81,
      "hit": false,
      "t": 270248.61599999917,
      "d": 164.19150000001537,
      "v": 64
    },
    {
      "midi": 90,
      "hit": false,
      "t": 270248.61599999917,
      "d": 174.78450000000885,
      "v": 80
    },
    {
      "midi": 86,
      "hit": false,
      "t": 270248.61599999917,
      "d": 195.9704999999958,
      "v": 66
    },
    {
      "midi": 93,
      "hit": false,
      "t": 270502.8479999992,
      "d": 291.30749999999534,
      "v": 84
    },
    {
      "midi": 81,
      "hit": false,
      "t": 270502.8479999992,
      "d": 301.9004999999888,
      "v": 64
    },
    {
      "midi": 88,
      "hit": false,
      "t": 270502.8479999992,
      "d": 307.19699999998556,
      "v": 80
    },
    {
      "midi": 91,
      "hit": false,
      "t": 270502.8479999992,
      "d": 307.19699999998556,
      "v": 60
    },
    {
      "midi": 93,
      "hit": false,
      "t": 270884.1959999992,
      "d": 211.85999999998603,
      "v": 72
    },
    {
      "midi": 81,
      "hit": false,
      "t": 270884.1959999992,
      "d": 233.045999999973,
      "v": 68
    },
    {
      "midi": 91,
      "hit": false,
      "t": 270884.1959999992,
      "d": 248.9354999999632,
      "v": 52
    },
    {
      "midi": 88,
      "hit": false,
      "t": 270884.1959999992,
      "d": 259.5284999999567,
      "v": 68
    },
    {
      "midi": 93,
      "hit": false,
      "t": 271265.5439999991,
      "d": 317.78999999997905,
      "v": 80
    },
    {
      "midi": 81,
      "hit": false,
      "t": 271265.5439999991,
      "d": 360.16199999995297,
      "v": 64
    },
    {
      "midi": 91,
      "hit": false,
      "t": 271265.5439999991,
      "d": 391.9409999999334,
      "v": 76
    },
    {
      "midi": 88,
      "hit": false,
      "t": 271265.5439999991,
      "d": 402.5339999999269,
      "v": 68
    },
    {
      "midi": 93,
      "hit": false,
      "t": 271774.00799999904,
      "d": 275.4180000000051,
      "v": 76
    },
    {
      "midi": 91,
      "hit": false,
      "t": 271774.00799999904,
      "d": 280.71450000000186,
      "v": 56
    },
    {
      "midi": 81,
      "hit": false,
      "t": 271774.00799999904,
      "d": 307.19699999998556,
      "v": 52
    },
    {
      "midi": 88,
      "hit": false,
      "t": 271774.00799999904,
      "d": 423.71999999997206,
      "v": 72
    },
    {
      "midi": 81,
      "hit": false,
      "t": 272282.471999999,
      "d": 158.89500000001863,
      "v": 66
    },
    {
      "midi": 86,
      "hit": false,
      "t": 272282.471999999,
      "d": 164.19150000001537,
      "v": 72
    },
    {
      "midi": 93,
      "hit": false,
      "t": 272282.471999999,
      "d": 164.19150000001537,
      "v": 68
    },
    {
      "midi": 90,
      "hit": false,
      "t": 272282.471999999,
      "d": 206.5634999999893,
      "v": 68
    },
    {
      "midi": 93,
      "hit": false,
      "t": 272536.70399999904,
      "d": 280.71450000000186,
      "v": 72
    },
    {
      "midi": 91,
      "hit": false,
      "t": 272536.70399999904,
      "d": 286.0109999999986,
      "v": 52
    },
    {
      "midi": 81,
      "hit": false,
      "t": 272536.70399999904,
      "d": 291.30749999999534,
      "v": 64
    },
    {
      "midi": 88,
      "hit": false,
      "t": 272536.70399999904,
      "d": 312.4934999999823,
      "v": 88
    },
    {
      "midi": 93,
      "hit": false,
      "t": 272918.05199999904,
      "d": 201.26699999999255,
      "v": 80
    },
    {
      "midi": 81,
      "hit": false,
      "t": 272918.05199999904,
      "d": 222.4529999999795,
      "v": 62
    },
    {
      "midi": 91,
      "hit": false,
      "t": 272918.05199999904,
      "d": 248.9354999999632,
      "v": 60
    },
    {
      "midi": 88,
      "hit": false,
      "t": 272918.05199999904,
      "d": 259.5284999999567,
      "v": 76
    },
    {
      "midi": 93,
      "hit": false,
      "t": 273299.399999999,
      "d": 264.82500000001164,
      "v": 84
    },
    {
      "midi": 81,
      "hit": false,
      "t": 273299.399999999,
      "d": 301.9004999999888,
      "v": 56
    },
    {
      "midi": 91,
      "hit": false,
      "t": 273299.399999999,
      "d": 323.0864999999758,
      "v": 66
    },
    {
      "midi": 88,
      "hit": false,
      "t": 273299.399999999,
      "d": 344.27249999996275,
      "v": 80
    },
    {
      "midi": 81,
      "hit": false,
      "t": 273680.7479999989,
      "d": 376.0515000000014,
      "v": 58
    },
    {
      "midi": 91,
      "hit": false,
      "t": 273680.7479999989,
      "d": 497.87099999998463,
      "v": 60
    },
    {
      "midi": 93,
      "hit": false,
      "t": 273680.7479999989,
      "d": 508.4639999999781,
      "v": 66
    },
    {
      "midi": 88,
      "hit": false,
      "t": 273680.7479999989,
      "d": 550.835999999952,
      "v": 68
    },
    {
      "midi": 81,
      "hit": false,
      "t": 274189.2119999989,
      "d": 222.4529999999795,
      "v": 68
    },
    {
      "midi": 93,
      "hit": false,
      "t": 274316.3279999989,
      "d": 148.30200000002515,
      "v": 80
    },
    {
      "midi": 86,
      "hit": false,
      "t": 274316.3279999989,
      "d": 153.5985000000219,
      "v": 84
    },
    {
      "midi": 90,
      "hit": false,
      "t": 274316.3279999989,
      "d": 174.78450000000885,
      "v": 72
    },
    {
      "midi": 85,
      "hit": false,
      "t": 274570.5599999989,
      "d": 291.30749999999534,
      "v": 68
    },
    {
      "midi": 81,
      "hit": false,
      "t": 274570.5599999989,
      "d": 296.6039999999921,
      "v": 84
    },
    {
      "midi": 93,
      "hit": false,
      "t": 274570.5599999989,
      "d": 296.6039999999921,
      "v": 80
    },
    {
      "midi": 88,
      "hit": false,
      "t": 274570.5599999989,
      "d": 333.67949999996927,
      "v": 84
    },
    {
      "midi": 93,
      "hit": false,
      "t": 274951.9079999989,
      "d": 185.37750000000233,
      "v": 76
    },
    {
      "midi": 81,
      "hit": false,
      "t": 274951.9079999989,
      "d": 201.26699999999255,
      "v": 76
    },
    {
      "midi": 85,
      "hit": false,
      "t": 274951.9079999989,
      "d": 211.85999999998603,
      "v": 62
    },
    {
      "midi": 88,
      "hit": false,
      "t": 274951.9079999989,
      "d": 233.045999999973,
      "v": 44
    },
    {
      "midi": 93,
      "hit": false,
      "t": 275333.2559999989,
      "d": 323.0864999999758,
      "v": 84
    },
    {
      "midi": 81,
      "hit": false,
      "t": 275333.2559999989,
      "d": 344.27249999996275,
      "v": 66
    },
    {
      "midi": 85,
      "hit": false,
      "t": 275333.2559999989,
      "d": 365.4584999999497,
      "v": 88
    },
    {
      "midi": 88,
      "hit": false,
      "t": 275333.2559999989,
      "d": 402.5339999999269,
      "v": 92
    },
    {
      "midi": 81,
      "hit": false,
      "t": 275841.7199999988,
      "d": 275.4180000000051,
      "v": 64
    },
    {
      "midi": 93,
      "hit": false,
      "t": 275841.7199999988,
      "d": 286.0109999999986,
      "v": 88
    },
    {
      "midi": 85,
      "hit": false,
      "t": 275841.7199999988,
      "d": 323.0864999999758,
      "v": 68
    },
    {
      "midi": 88,
      "hit": false,
      "t": 275841.7199999988,
      "d": 381.34799999999814,
      "v": 80
    },
    {
      "midi": 93,
      "hit": false,
      "t": 276350.1839999988,
      "d": 169.4880000000121,
      "v": 68
    },
    {
      "midi": 81,
      "hit": false,
      "t": 276350.1839999988,
      "d": 190.67399999999907,
      "v": 40
    },
    {
      "midi": 90,
      "hit": false,
      "t": 276350.1839999988,
      "d": 211.85999999998603,
      "v": 68
    },
    {
      "midi": 86,
      "hit": false,
      "t": 276350.1839999988,
      "d": 243.63899999996647,
      "v": 66
    },
    {
      "midi": 88,
      "hit": false,
      "t": 276604.41599999875,
      "d": 280.71450000000186,
      "v": 68
    },
    {
      "midi": 93,
      "hit": false,
      "t": 276604.41599999875,
      "d": 280.71450000000186,
      "v": 80
    },
    {
      "midi": 91,
      "hit": false,
      "t": 276604.41599999875,
      "d": 296.6039999999921,
      "v": 62
    },
    {
      "midi": 81,
      "hit": false,
      "t": 276604.41599999875,
      "d": 312.4934999999823,
      "v": 62
    },
    {
      "midi": 93,
      "hit": false,
      "t": 276985.76399999874,
      "d": 222.4529999999795,
      "v": 80
    },
    {
      "midi": 81,
      "hit": false,
      "t": 276985.76399999874,
      "d": 243.63899999996647,
      "v": 68
    },
    {
      "midi": 91,
      "hit": false,
      "t": 276985.76399999874,
      "d": 243.63899999996647,
      "v": 58
    },
    {
      "midi": 88,
      "hit": false,
      "t": 276985.76399999874,
      "d": 270.1214999999502,
      "v": 80
    },
    {
      "midi": 93,
      "hit": false,
      "t": 277367.1119999987,
      "d": 275.4180000000051,
      "v": 72
    },
    {
      "midi": 81,
      "hit": false,
      "t": 277367.1119999987,
      "d": 307.19699999998556,
      "v": 52
    },
    {
      "midi": 91,
      "hit": false,
      "t": 277367.1119999987,
      "d": 307.19699999998556,
      "v": 56
    },
    {
      "midi": 88,
      "hit": false,
      "t": 277367.1119999987,
      "d": 333.67949999996927,
      "v": 66
    },
    {
      "midi": 91,
      "hit": false,
      "t": 277875.57599999866,
      "d": 291.30749999999534,
      "v": 72
    },
    {
      "midi": 93,
      "hit": false,
      "t": 277875.57599999866,
      "d": 301.9004999999888,
      "v": 68
    },
    {
      "midi": 81,
      "hit": false,
      "t": 277875.57599999866,
      "d": 354.86550000001444,
      "v": 88
    },
    {
      "midi": 88,
      "hit": false,
      "t": 277875.57599999866,
      "d": 444.90600000001723,
      "v": 88
    },
    {
      "midi": 81,
      "hit": false,
      "t": 278384.0399999987,
      "d": 143.0055000000284,
      "v": 38
    },
    {
      "midi": 93,
      "hit": false,
      "t": 278384.0399999987,
      "d": 143.0055000000284,
      "v": 80
    },
    {
      "midi": 86,
      "hit": false,
      "t": 278384.0399999987,
      "d": 158.89500000001863,
      "v": 72
    },
    {
      "midi": 90,
      "hit": false,
      "t": 278384.0399999987,
      "d": 185.37750000000233,
      "v": 84
    },
    {
      "midi": 79,
      "hit": false,
      "t": 278638.2719999987,
      "d": 217.15649999998277,
      "v": 52
    },
    {
      "midi": 85,
      "hit": false,
      "t": 278638.2719999987,
      "d": 248.9354999999632,
      "v": 88
    },
    {
      "midi": 93,
      "hit": false,
      "t": 278638.2719999987,
      "d": 264.82499999995343,
      "v": 68
    },
    {
      "midi": 88,
      "hit": false,
      "t": 278638.2719999987,
      "d": 280.71449999994365,
      "v": 76
    },
    {
      "midi": 93,
      "hit": false,
      "t": 279019.61999999866,
      "d": 222.4529999999795,
      "v": 76
    },
    {
      "midi": 79,
      "hit": false,
      "t": 279019.61999999866,
      "d": 233.045999999973,
      "v": 36
    },
    {
      "midi": 85,
      "hit": false,
      "t": 279019.61999999866,
      "d": 243.63899999996647,
      "v": 80
    },
    {
      "midi": 88,
      "hit": false,
      "t": 279019.61999999866,
      "d": 275.4179999999469,
      "v": 72
    },
    {
      "midi": 93,
      "hit": false,
      "t": 279400.9679999986,
      "d": 264.82500000001164,
      "v": 84
    },
    {
      "midi": 85,
      "hit": false,
      "t": 279400.9679999986,
      "d": 312.4935000000405,
      "v": 76
    },
    {
      "midi": 79,
      "hit": false,
      "t": 279400.9679999986,
      "d": 333.6795000000275,
      "v": 44
    },
    {
      "midi": 88,
      "hit": false,
      "t": 279400.9679999986,
      "d": 354.86550000001444,
      "v": 72
    },
    {
      "midi": 79,
      "hit": false,
      "t": 279909.43199999863,
      "d": 312.4934999999823,
      "v": 54
    },
    {
      "midi": 93,
      "hit": false,
      "t": 279909.43199999863,
      "d": 354.8654999999562,
      "v": 68
    },
    {
      "midi": 85,
      "hit": false,
      "t": 279909.43199999863,
      "d": 370.75499999994645,
      "v": 76
    },
    {
      "midi": 88,
      "hit": false,
      "t": 279909.43199999863,
      "d": 381.34799999993993,
      "v": 76
    },
    {
      "midi": 93,
      "hit": false,
      "t": 280417.89599999855,
      "d": 180.0810000000056,
      "v": 76
    },
    {
      "midi": 81,
      "hit": false,
      "t": 280417.89599999855,
      "d": 195.9704999999958,
      "v": 48
    },
    {
      "midi": 90,
      "hit": false,
      "t": 280417.89599999855,
      "d": 206.5634999999893,
      "v": 76
    },
    {
      "midi": 86,
      "hit": false,
      "t": 280417.89599999855,
      "d": 227.74949999997625,
      "v": 84
    },
    {
      "midi": 88,
      "hit": false,
      "t": 280672.1279999985,
      "d": 259.5285000000149,
      "v": 60
    },
    {
      "midi": 93,
      "hit": false,
      "t": 280672.1279999985,
      "d": 270.1215000000084,
      "v": 72
    },
    {
      "midi": 91,
      "hit": false,
      "t": 280672.1279999985,
      "d": 291.30749999999534,
      "v": 56
    },
    {
      "midi": 81,
      "hit": false,
      "t": 280672.1279999985,
      "d": 307.19699999998556,
      "v": 48
    },
    {
      "midi": 93,
      "hit": false,
      "t": 281053.4759999985,
      "d": 211.85999999998603,
      "v": 80
    },
    {
      "midi": 81,
      "hit": false,
      "t": 281053.4759999985,
      "d": 222.4529999999795,
      "v": 62
    },
    {
      "midi": 91,
      "hit": false,
      "t": 281053.4759999985,
      "d": 227.74949999997625,
      "v": 72
    },
    {
      "midi": 88,
      "hit": false,
      "t": 281053.4759999985,
      "d": 248.9354999999632,
      "v": 88
    },
    {
      "midi": 81,
      "hit": false,
      "t": 281434.82399999845,
      "d": 243.63900000002468,
      "v": 58
    },
    {
      "midi": 93,
      "hit": false,
      "t": 281434.82399999845,
      "d": 243.63900000002468,
      "v": 68
    },
    {
      "midi": 91,
      "hit": false,
      "t": 281434.82399999845,
      "d": 275.4180000000051,
      "v": 62
    },
    {
      "midi": 88,
      "hit": false,
      "t": 281434.82399999845,
      "d": 307.19699999998556,
      "v": 68
    },
    {
      "midi": 93,
      "hit": false,
      "t": 281816.17199999845,
      "d": 190.67399999999907,
      "v": 66
    },
    {
      "midi": 81,
      "hit": false,
      "t": 281816.17199999845,
      "d": 217.15649999998277,
      "v": 62
    },
    {
      "midi": 88,
      "hit": false,
      "t": 281816.17199999845,
      "d": 243.63899999996647,
      "v": 68
    },
    {
      "midi": 91,
      "hit": false,
      "t": 281816.17199999845,
      "d": 243.63899999996647,
      "v": 52
    },
    {
      "midi": 88,
      "hit": false,
      "t": 282197.5199999984,
      "d": 127.11599999997998,
      "v": 56
    },
    {
      "midi": 93,
      "hit": false,
      "t": 282197.5199999984,
      "d": 127.11599999997998,
      "v": 76
    },
    {
      "midi": 81,
      "hit": false,
      "t": 282197.5199999984,
      "d": 132.41249999997672,
      "v": 52
    },
    {
      "midi": 91,
      "hit": false,
      "t": 282197.5199999984,
      "d": 132.41249999997672,
      "v": 66
    },
    {
      "midi": 81,
      "hit": false,
      "t": 282451.75199999835,
      "d": 180.0810000000056,
      "v": 62
    },
    {
      "midi": 93,
      "hit": false,
      "t": 282451.75199999835,
      "d": 180.0810000000056,
      "v": 68
    },
    {
      "midi": 86,
      "hit": false,
      "t": 282451.75199999835,
      "d": 195.9704999999958,
      "v": 76
    },
    {
      "midi": 90,
      "hit": false,
      "t": 282451.75199999835,
      "d": 211.85999999998603,
      "v": 68
    },
    {
      "midi": 93,
      "hit": false,
      "t": 282705.9839999983,
      "d": 243.63900000002468,
      "v": 68
    },
    {
      "midi": 79,
      "hit": false,
      "t": 282705.9839999983,
      "d": 286.0109999999986,
      "v": 68
    },
    {
      "midi": 85,
      "hit": false,
      "t": 282705.9839999983,
      "d": 286.0109999999986,
      "v": 84
    },
    {
      "midi": 88,
      "hit": false,
      "t": 282705.9839999983,
      "d": 323.0864999999758,
      "v": 88
    },
    {
      "midi": 85,
      "hit": false,
      "t": 283087.3319999983,
      "d": 264.82500000001164,
      "v": 68
    },
    {
      "midi": 93,
      "hit": false,
      "t": 283087.3319999983,
      "d": 264.82500000001164,
      "v": 76
    },
    {
      "midi": 79,
      "hit": false,
      "t": 283087.3319999983,
      "d": 270.1215000000084,
      "v": 44
    },
    {
      "midi": 88,
      "hit": false,
      "t": 283087.3319999983,
      "d": 291.30749999999534,
      "v": 76
    },
    {
      "midi": 85,
      "hit": false,
      "t": 283468.6799999983,
      "d": 254.23200000001816,
      "v": 76
    },
    {
      "midi": 79,
      "hit": false,
      "t": 283468.6799999983,
      "d": 259.5285000000149,
      "v": 50
    },
    {
      "midi": 93,
      "hit": false,
      "t": 283468.6799999983,
      "d": 259.5285000000149,
      "v": 88
    },
    {
      "midi": 88,
      "hit": false,
      "t": 283468.6799999983,
      "d": 270.1215000000084,
      "v": 88
    },
    {
      "midi": 79,
      "hit": false,
      "t": 283850.0279999983,
      "d": 280.71450000000186,
      "v": 54
    },
    {
      "midi": 85,
      "hit": false,
      "t": 283850.0279999983,
      "d": 280.71450000000186,
      "v": 84
    },
    {
      "midi": 93,
      "hit": false,
      "t": 283850.0279999983,
      "d": 280.71450000000186,
      "v": 80
    },
    {
      "midi": 88,
      "hit": false,
      "t": 283850.0279999983,
      "d": 296.6039999999921,
      "v": 84
    },
    {
      "midi": 79,
      "hit": false,
      "t": 284231.3759999983,
      "d": 153.5985000000219,
      "v": 37
    },
    {
      "midi": 93,
      "hit": false,
      "t": 284231.3759999983,
      "d": 174.78450000000885,
      "v": 88
    },
    {
      "midi": 88,
      "hit": false,
      "t": 284231.3759999983,
      "d": 195.9704999999958,
      "v": 76
    },
    {
      "midi": 85,
      "hit": false,
      "t": 284231.3759999983,
      "d": 211.85999999998603,
      "v": 72
    },
    {
      "midi": 81,
      "hit": false,
      "t": 284485.60799999826,
      "d": 164.19150000001537,
      "v": 76
    },
    {
      "midi": 90,
      "hit": false,
      "t": 284485.60799999826,
      "d": 180.0810000000056,
      "v": 66
    },
    {
      "midi": 93,
      "hit": false,
      "t": 284485.60799999826,
      "d": 180.0810000000056,
      "v": 66
    },
    {
      "midi": 86,
      "hit": false,
      "t": 284485.60799999826,
      "d": 206.5634999999893,
      "v": 88
    },
    {
      "midi": 88,
      "hit": false,
      "t": 284739.8399999983,
      "d": 222.4529999999795,
      "v": 56
    },
    {
      "midi": 93,
      "hit": false,
      "t": 284739.8399999983,
      "d": 254.23199999995995,
      "v": 88
    },
    {
      "midi": 81,
      "hit": false,
      "t": 284739.8399999983,
      "d": 270.1214999999502,
      "v": 64
    },
    {
      "midi": 91,
      "hit": false,
      "t": 284739.8399999983,
      "d": 286.0109999999404,
      "v": 68
    },
    {
      "midi": 93,
      "hit": false,
      "t": 285121.1879999982,
      "d": 248.93550000002142,
      "v": 68
    },
    {
      "midi": 81,
      "hit": false,
      "t": 285121.1879999982,
      "d": 254.23200000001816,
      "v": 66
    },
    {
      "midi": 91,
      "hit": false,
      "t": 285121.1879999982,
      "d": 270.1215000000084,
      "v": 56
    },
    {
      "midi": 88,
      "hit": false,
      "t": 285121.1879999982,
      "d": 291.30749999999534,
      "v": 72
    },
    {
      "midi": 93,
      "hit": false,
      "t": 285502.5359999982,
      "d": 270.1215000000084,
      "v": 88
    },
    {
      "midi": 81,
      "hit": false,
      "t": 285502.5359999982,
      "d": 291.30749999999534,
      "v": 64
    },
    {
      "midi": 91,
      "hit": false,
      "t": 285502.5359999982,
      "d": 301.9004999999888,
      "v": 64
    },
    {
      "midi": 88,
      "hit": false,
      "t": 285502.5359999982,
      "d": 312.4934999999823,
      "v": 92
    },
    {
      "midi": 93,
      "hit": false,
      "t": 285883.8839999982,
      "d": 259.5285000000149,
      "v": 84
    },
    {
      "midi": 81,
      "hit": false,
      "t": 285883.8839999982,
      "d": 275.4180000000051,
      "v": 68
    },
    {
      "midi": 88,
      "hit": false,
      "t": 285883.8839999982,
      "d": 286.0109999999986,
      "v": 80
    },
    {
      "midi": 91,
      "hit": false,
      "t": 285883.8839999982,
      "d": 291.30749999999534,
      "v": 54
    },
    {
      "midi": 81,
      "hit": false,
      "t": 286265.2319999982,
      "d": 121.81949999998324,
      "v": 62
    },
    {
      "midi": 93,
      "hit": false,
      "t": 286265.2319999982,
      "d": 137.70899999997346,
      "v": 72
    },
    {
      "midi": 91,
      "hit": false,
      "t": 286265.2319999982,
      "d": 143.0054999999702,
      "v": 46
    },
    {
      "midi": 88,
      "hit": false,
      "t": 286265.2319999982,
      "d": 158.89499999996042,
      "v": 88
    },
    {
      "midi": 79,
      "hit": false,
      "t": 286519.4639999982,
      "d": 143.0055000000284,
      "v": 62
    },
    {
      "midi": 93,
      "hit": false,
      "t": 286519.4639999982,
      "d": 190.67400000005728,
      "v": 80
    },
    {
      "midi": 86,
      "hit": false,
      "t": 286519.4639999982,
      "d": 195.97050000005402,
      "v": 72
    },
    {
      "midi": 90,
      "hit": false,
      "t": 286519.4639999982,
      "d": 217.15650000004098,
      "v": 72
    },
    {
      "midi": 81,
      "hit": false,
      "t": 286773.6959999982,
      "d": 275.4180000000051,
      "v": 84
    },
    {
      "midi": 93,
      "hit": false,
      "t": 286773.6959999982,
      "d": 280.71450000000186,
      "v": 80
    },
    {
      "midi": 79,
      "hit": false,
      "t": 286773.6959999982,
      "d": 286.0109999999986,
      "v": 46
    },
    {
      "midi": 85,
      "hit": false,
      "t": 286773.6959999982,
      "d": 291.30749999999534,
      "v": 88
    },
    {
      "midi": 88,
      "hit": false,
      "t": 286773.6959999982,
      "d": 328.3829999999725,
      "v": 84
    },
    {
      "midi": 81,
      "hit": false,
      "t": 287155.0439999982,
      "d": 259.5285000000149,
      "v": 64
    },
    {
      "midi": 79,
      "hit": false,
      "t": 287155.0439999982,
      "d": 264.82500000001164,
      "v": 35
    },
    {
      "midi": 85,
      "hit": false,
      "t": 287155.0439999982,
      "d": 264.82500000001164,
      "v": 64
    },
    {
      "midi": 93,
      "hit": false,
      "t": 287155.0439999982,
      "d": 264.82500000001164,
      "v": 76
    },
    {
      "midi": 88,
      "hit": false,
      "t": 287155.0439999982,
      "d": 291.30749999999534,
      "v": 72
    },
    {
      "midi": 81,
      "hit": false,
      "t": 287536.3919999982,
      "d": 270.1215000000084,
      "v": 66
    },
    {
      "midi": 79,
      "hit": false,
      "t": 287536.3919999982,
      "d": 280.71450000000186,
      "v": 44
    },
    {
      "midi": 93,
      "hit": false,
      "t": 287536.3919999982,
      "d": 280.71450000000186,
      "v": 84
    },
    {
      "midi": 85,
      "hit": false,
      "t": 287536.3919999982,
      "d": 296.6039999999921,
      "v": 88
    },
    {
      "midi": 88,
      "hit": false,
      "t": 287536.3919999982,
      "d": 328.3829999999725,
      "v": 80
    },
    {
      "midi": 79,
      "hit": false,
      "t": 287917.7399999982,
      "d": 286.0109999999986,
      "v": 52
    },
    {
      "midi": 81,
      "hit": false,
      "t": 287917.7399999982,
      "d": 286.0109999999986,
      "v": 72
    },
    {
      "midi": 93,
      "hit": false,
      "t": 287917.7399999982,
      "d": 301.9004999999888,
      "v": 84
    },
    {
      "midi": 85,
      "hit": false,
      "t": 287917.7399999982,
      "d": 333.67949999996927,
      "v": 84
    },
    {
      "midi": 88,
      "hit": false,
      "t": 287917.7399999982,
      "d": 360.16199999995297,
      "v": 76
    },
    {
      "midi": 93,
      "hit": false,
      "t": 288426.20399999816,
      "d": 42.37199999997392,
      "v": 37
    },
    {
      "midi": 93,
      "hit": false,
      "t": 288553.31999999814,
      "d": 158.89500000001863,
      "v": 68
    },
    {
      "midi": 81,
      "hit": false,
      "t": 288553.31999999814,
      "d": 164.19150000001537,
      "v": 66
    },
    {
      "midi": 90,
      "hit": false,
      "t": 288553.31999999814,
      "d": 174.78450000000885,
      "v": 68
    },
    {
      "midi": 86,
      "hit": false,
      "t": 288553.31999999814,
      "d": 206.5634999999893,
      "v": 76
    },
    {
      "midi": 88,
      "hit": false,
      "t": 288807.55199999816,
      "d": 280.71450000000186,
      "v": 76
    },
    {
      "midi": 93,
      "hit": false,
      "t": 288807.55199999816,
      "d": 286.0109999999986,
      "v": 84
    },
    {
      "midi": 91,
      "hit": false,
      "t": 288807.55199999816,
      "d": 296.6039999999921,
      "v": 60
    },
    {
      "midi": 81,
      "hit": false,
      "t": 288807.55199999816,
      "d": 312.4934999999823,
      "v": 64
    },
    {
      "midi": 93,
      "hit": false,
      "t": 289188.89999999816,
      "d": 217.15649999998277,
      "v": 76
    },
    {
      "midi": 81,
      "hit": false,
      "t": 289188.89999999816,
      "d": 243.63899999996647,
      "v": 68
    },
    {
      "midi": 88,
      "hit": false,
      "t": 289188.89999999816,
      "d": 270.1214999999502,
      "v": 76
    },
    {
      "midi": 91,
      "hit": false,
      "t": 289188.89999999816,
      "d": 286.0109999999404,
      "v": 56
    },
    {
      "midi": 81,
      "hit": false,
      "t": 289570.2479999981,
      "d": 275.4180000000051,
      "v": 64
    },
    {
      "midi": 91,
      "hit": false,
      "t": 289570.2479999981,
      "d": 296.6039999999921,
      "v": 68
    },
    {
      "midi": 93,
      "hit": false,
      "t": 289570.2479999981,
      "d": 296.6039999999921,
      "v": 88
    },
    {
      "midi": 88,
      "hit": false,
      "t": 289570.2479999981,
      "d": 328.3829999999725,
      "v": 88
    },
    {
      "midi": 81,
      "hit": false,
      "t": 289951.5959999981,
      "d": 280.71450000000186,
      "v": 62
    },
    {
      "midi": 86,
      "hit": false,
      "t": 289951.5959999981,
      "d": 280.71450000000186,
      "v": 84
    },
    {
      "midi": 93,
      "hit": false,
      "t": 289951.5959999981,
      "d": 296.6039999999921,
      "v": 84
    },
    {
      "midi": 90,
      "hit": false,
      "t": 289951.5959999981,
      "d": 338.975999999966,
      "v": 80
    },
    {
      "midi": 81,
      "hit": false,
      "t": 290332.94399999804,
      "d": 132.41249999997672,
      "v": 76
    },
    {
      "midi": 93,
      "hit": false,
      "t": 290332.94399999804,
      "d": 185.37750000000233,
      "v": 80
    },
    {
      "midi": 85,
      "hit": false,
      "t": 290332.94399999804,
      "d": 217.15649999998277,
      "v": 84
    },
    {
      "midi": 88,
      "hit": false,
      "t": 290332.94399999804,
      "d": 222.4529999999795,
      "v": 92
    },
    {
      "midi": 81,
      "hit": false,
      "t": 290587.175999998,
      "d": 158.89500000001863,
      "v": 76
    },
    {
      "midi": 93,
      "hit": false,
      "t": 290587.175999998,
      "d": 164.19150000001537,
      "v": 80
    },
    {
      "midi": 86,
      "hit": false,
      "t": 290587.175999998,
      "d": 185.37750000000233,
      "v": 84
    },
    {
      "midi": 90,
      "hit": false,
      "t": 290587.175999998,
      "d": 217.15649999998277,
      "v": 76
    },
    {
      "midi": 81,
      "hit": false,
      "t": 290841.40799999796,
      "d": 280.71450000000186,
      "v": 88
    },
    {
      "midi": 79,
      "hit": false,
      "t": 290841.40799999796,
      "d": 291.30749999999534,
      "v": 68
    },
    {
      "midi": 85,
      "hit": false,
      "t": 290841.40799999796,
      "d": 296.6039999999921,
      "v": 92
    },
    {
      "midi": 88,
      "hit": false,
      "t": 290841.40799999796,
      "d": 323.0864999999758,
      "v": 92
    },
    {
      "midi": 93,
      "hit": false,
      "t": 290841.40799999796,
      "d": 333.67949999996927,
      "v": 92
    },
    {
      "midi": 81,
      "hit": false,
      "t": 291222.75599999796,
      "d": 227.74949999997625,
      "v": 62
    },
    {
      "midi": 93,
      "hit": false,
      "t": 291222.75599999796,
      "d": 227.74949999997625,
      "v": 58
    },
    {
      "midi": 79,
      "hit": false,
      "t": 291222.75599999796,
      "d": 233.045999999973,
      "v": 35
    },
    {
      "midi": 85,
      "hit": false,
      "t": 291222.75599999796,
      "d": 233.045999999973,
      "v": 64
    },
    {
      "midi": 88,
      "hit": false,
      "t": 291222.75599999796,
      "d": 254.23199999995995,
      "v": 56
    },
    {
      "midi": 81,
      "hit": false,
      "t": 291604.1039999979,
      "d": 354.86550000001444,
      "v": 72
    },
    {
      "midi": 79,
      "hit": false,
      "t": 291604.1039999979,
      "d": 365.4585000000079,
      "v": 50
    },
    {
      "midi": 93,
      "hit": false,
      "t": 291604.1039999979,
      "d": 370.75500000000466,
      "v": 76
    },
    {
      "midi": 85,
      "hit": false,
      "t": 291604.1039999979,
      "d": 476.6849999999977,
      "v": 68
    },
    {
      "midi": 88,
      "hit": false,
      "t": 291604.1039999979,
      "d": 556.132500000007,
      "v": 62
    },
    {
      "midi": 81,
      "hit": false,
      "t": 292112.5679999979,
      "d": 132.41250000003492,
      "v": 68
    },
    {
      "midi": 86,
      "hit": false,
      "t": 292112.5679999979,
      "d": 148.30200000002515,
      "v": 68
    },
    {
      "midi": 90,
      "hit": false,
      "t": 292112.5679999979,
      "d": 259.5285000000149,
      "v": 84
    },
    {
      "midi": 93,
      "hit": false,
      "t": 292112.5679999979,
      "d": 397.23749999998836,
      "v": 84
    },
    {
      "midi": 81,
      "hit": false,
      "t": 292366.7999999979,
      "d": 132.41249999997672,
      "v": 80
    },
    {
      "midi": 88,
      "hit": false,
      "t": 292366.7999999979,
      "d": 195.9704999999958,
      "v": 72
    },
    {
      "midi": 85,
      "hit": false,
      "t": 292366.7999999979,
      "d": 222.4529999999795,
      "v": 84
    },
    {
      "midi": 81,
      "hit": false,
      "t": 292621.03199999785,
      "d": 95.33699999999953,
      "v": 58
    },
    {
      "midi": 93,
      "hit": false,
      "t": 292621.03199999785,
      "d": 137.70899999997346,
      "v": 64
    },
    {
      "midi": 90,
      "hit": false,
      "t": 292621.03199999785,
      "d": 148.30199999996694,
      "v": 64
    },
    {
      "midi": 86,
      "hit": false,
      "t": 292621.03199999785,
      "d": 180.08099999994738,
      "v": 80
    },
    {
      "midi": 93,
      "hit": false,
      "t": 292875.2639999978,
      "d": 312.4934999999823,
      "v": 84
    },
    {
      "midi": 91,
      "hit": false,
      "t": 292875.2639999978,
      "d": 317.78999999997905,
      "v": 64
    },
    {
      "midi": 88,
      "hit": false,
      "t": 292875.2639999978,
      "d": 323.0864999999758,
      "v": 72
    },
    {
      "midi": 81,
      "hit": false,
      "t": 292875.2639999978,
      "d": 328.3829999999725,
      "v": 66
    },
    {
      "midi": 81,
      "hit": false,
      "t": 293256.6119999978,
      "d": 233.045999999973,
      "v": 68
    },
    {
      "midi": 93,
      "hit": false,
      "t": 293256.6119999978,
      "d": 238.34249999996973,
      "v": 66
    },
    {
      "midi": 88,
      "hit": false,
      "t": 293256.6119999978,
      "d": 270.1214999999502,
      "v": 72
    },
    {
      "midi": 91,
      "hit": false,
      "t": 293256.6119999978,
      "d": 270.1214999999502,
      "v": 62
    },
    {
      "midi": 88,
      "hit": false,
      "t": 293637.95999999775,
      "d": 270.1215000000084,
      "v": 68
    },
    {
      "midi": 93,
      "hit": false,
      "t": 293637.95999999775,
      "d": 270.1215000000084,
      "v": 64
    },
    {
      "midi": 91,
      "hit": false,
      "t": 293637.95999999775,
      "d": 280.71450000000186,
      "v": 58
    },
    {
      "midi": 81,
      "hit": false,
      "t": 293637.95999999775,
      "d": 301.9004999999888,
      "v": 46
    },
    {
      "midi": 93,
      "hit": false,
      "t": 294019.30799999775,
      "d": 248.93550000002142,
      "v": 68
    },
    {
      "midi": 81,
      "hit": false,
      "t": 294019.30799999775,
      "d": 264.82500000001164,
      "v": 72
    },
    {
      "midi": 88,
      "hit": false,
      "t": 294019.30799999775,
      "d": 286.0109999999986,
      "v": 84
    },
    {
      "midi": 91,
      "hit": false,
      "t": 294019.30799999775,
      "d": 286.0109999999986,
      "v": 54
    },
    {
      "midi": 93,
      "hit": false,
      "t": 294400.65599999775,
      "d": 95.33699999999953,
      "v": 56
    },
    {
      "midi": 81,
      "hit": false,
      "t": 294400.65599999775,
      "d": 132.41249999997672,
      "v": 60
    },
    {
      "midi": 91,
      "hit": false,
      "t": 294400.65599999775,
      "d": 148.30199999996694,
      "v": 60
    },
    {
      "midi": 88,
      "hit": false,
      "t": 294400.65599999775,
      "d": 153.59849999996368,
      "v": 80
    },
    {
      "midi": 81,
      "hit": false,
      "t": 294654.8879999977,
      "d": 153.5985000000219,
      "v": 72
    },
    {
      "midi": 86,
      "hit": false,
      "t": 294654.8879999977,
      "d": 185.37750000000233,
      "v": 72
    },
    {
      "midi": 93,
      "hit": false,
      "t": 294654.8879999977,
      "d": 195.9704999999958,
      "v": 68
    },
    {
      "midi": 81,
      "hit": false,
      "t": 294909.1199999977,
      "d": 259.5285000000149,
      "v": 72
    },
    {
      "midi": 85,
      "hit": false,
      "t": 294909.1199999977,
      "d": 270.1215000000084,
      "v": 76
    },
    {
      "midi": 93,
      "hit": false,
      "t": 294909.1199999977,
      "d": 286.0109999999986,
      "v": 68
    },
    {
      "midi": 88,
      "hit": false,
      "t": 294909.1199999977,
      "d": 296.6039999999921,
      "v": 80
    },
    {
      "midi": 81,
      "hit": false,
      "t": 295290.4679999977,
      "d": 254.23200000001816,
      "v": 72
    },
    {
      "midi": 93,
      "hit": false,
      "t": 295290.4679999977,
      "d": 264.82500000001164,
      "v": 84
    },
    {
      "midi": 85,
      "hit": false,
      "t": 295290.4679999977,
      "d": 270.1215000000084,
      "v": 68
    },
    {
      "midi": 88,
      "hit": false,
      "t": 295290.4679999977,
      "d": 296.6039999999921,
      "v": 80
    },
    {
      "midi": 81,
      "hit": false,
      "t": 295671.8159999977,
      "d": 360.1620000000112,
      "v": 72
    },
    {
      "midi": 93,
      "hit": false,
      "t": 295671.8159999977,
      "d": 381.34799999999814,
      "v": 84
    },
    {
      "midi": 85,
      "hit": false,
      "t": 295671.8159999977,
      "d": 418.4234999999753,
      "v": 84
    },
    {
      "midi": 88,
      "hit": false,
      "t": 295671.8159999977,
      "d": 429.0164999999688,
      "v": 84
    },
    {
      "midi": 86,
      "hit": false,
      "t": 296180.2799999977,
      "d": 158.89500000001863,
      "v": 80
    },
    {
      "midi": 81,
      "hit": false,
      "t": 296180.2799999977,
      "d": 164.19150000001537,
      "v": 64
    },
    {
      "midi": 90,
      "hit": false,
      "t": 296180.2799999977,
      "d": 238.34250000002794,
      "v": 80
    },
    {
      "midi": 93,
      "hit": false,
      "t": 296180.2799999977,
      "d": 391.9410000000498,
      "v": 76
    },
    {
      "midi": 81,
      "hit": false,
      "t": 296434.5119999977,
      "d": 90.0405000000028,
      "v": 66
    },
    {
      "midi": 85,
      "hit": false,
      "t": 296434.5119999977,
      "d": 143.0055000000284,
      "v": 68
    },
    {
      "midi": 88,
      "hit": false,
      "t": 296434.5119999977,
      "d": 180.0810000000056,
      "v": 76
    },
    {
      "midi": 81,
      "hit": false,
      "t": 296688.74399999774,
      "d": 90.0405000000028,
      "v": 60
    },
    {
      "midi": 93,
      "hit": false,
      "t": 296688.74399999774,
      "d": 132.41249999997672,
      "v": 66
    },
    {
      "midi": 90,
      "hit": false,
      "t": 296688.74399999774,
      "d": 158.89499999996042,
      "v": 68
    },
    {
      "midi": 86,
      "hit": false,
      "t": 296688.74399999774,
      "d": 190.67399999994086,
      "v": 68
    },
    {
      "midi": 88,
      "hit": false,
      "t": 296942.9759999977,
      "d": 264.82500000001164,
      "v": 84
    },
    {
      "midi": 93,
      "hit": false,
      "t": 296942.9759999977,
      "d": 280.71450000000186,
      "v": 84
    },
    {
      "midi": 81,
      "hit": false,
      "t": 296942.9759999977,
      "d": 301.9004999999888,
      "v": 58
    },
    {
      "midi": 91,
      "hit": false,
      "t": 296942.9759999977,
      "d": 307.19699999998556,
      "v": 62
    },
    {
      "midi": 93,
      "hit": false,
      "t": 297324.3239999977,
      "d": 211.85999999998603,
      "v": 68
    },
    {
      "midi": 81,
      "hit": false,
      "t": 297324.3239999977,
      "d": 238.34249999996973,
      "v": 56
    },
    {
      "midi": 88,
      "hit": false,
      "t": 297324.3239999977,
      "d": 238.34249999996973,
      "v": 84
    },
    {
      "midi": 91,
      "hit": false,
      "t": 297324.3239999977,
      "d": 248.9354999999632,
      "v": 56
    },
    {
      "midi": 91,
      "hit": false,
      "t": 297705.67199999763,
      "d": 360.1620000000112,
      "v": 80
    },
    {
      "midi": 93,
      "hit": false,
      "t": 297705.67199999763,
      "d": 381.34799999999814,
      "v": 80
    },
    {
      "midi": 81,
      "hit": false,
      "t": 297705.67199999763,
      "d": 386.6444999999949,
      "v": 54
    },
    {
      "midi": 88,
      "hit": false,
      "t": 297705.67199999763,
      "d": 423.71999999997206,
      "v": 68
    },
    {
      "midi": 81,
      "hit": false,
      "t": 298214.1359999976,
      "d": 164.19150000001537,
      "v": 72
    },
    {
      "midi": 86,
      "hit": false,
      "t": 298214.1359999976,
      "d": 174.78450000000885,
      "v": 80
    },
    {
      "midi": 93,
      "hit": false,
      "t": 298214.1359999976,
      "d": 206.5634999999893,
      "v": 80
    },
    {
      "midi": 90,
      "hit": false,
      "t": 298214.1359999976,
      "d": 227.74949999997625,
      "v": 80
    },
    {
      "midi": 93,
      "hit": false,
      "t": 298468.3679999976,
      "d": 354.86550000001444,
      "v": 64
    },
    {
      "midi": 85,
      "hit": false,
      "t": 298468.3679999976,
      "d": 376.0515000000014,
      "v": 92
    },
    {
      "midi": 88,
      "hit": false,
      "t": 298468.3679999976,
      "d": 376.0515000000014,
      "v": 92
    },
    {
      "midi": 81,
      "hit": false,
      "t": 298468.3679999976,
      "d": 381.34799999999814,
      "v": 84
    },
    {
      "midi": 50,
      "hit": false,
      "t": 298976.83199999755,
      "d": 148.30200000002515,
      "v": 127
    },
    {
      "midi": 38,
      "hit": false,
      "t": 299231.06399999757,
      "d": 222.4529999999795,
      "v": 112
    },
    {
      "midi": 50,
      "hit": false,
      "t": 299231.06399999757,
      "d": 227.74949999997625,
      "v": 108
    },
    {
      "midi": 48,
      "hit": false,
      "t": 299485.2959999975,
      "d": 180.0810000000056,
      "v": 108
    },
    {
      "midi": 36,
      "hit": false,
      "t": 299485.2959999975,
      "d": 248.93550000002142,
      "v": 112
    },
    {
      "midi": 38,
      "hit": false,
      "t": 299739.52799999755,
      "d": 116.5229999999865,
      "v": 127
    },
    {
      "midi": 50,
      "hit": false,
      "t": 299739.52799999755,
      "d": 116.5229999999865,
      "v": 127
    },
    {
      "midi": 57,
      "hit": false,
      "t": 300247.9919999975,
      "d": 148.30200000002515,
      "v": 117
    },
    {
      "midi": 33,
      "hit": false,
      "t": 300247.9919999975,
      "d": 158.89500000001863,
      "v": 104
    },
    {
      "midi": 45,
      "hit": false,
      "t": 300247.9919999975,
      "d": 164.19150000001537,
      "v": 112
    },
    {
      "midi": 44,
      "hit": false,
      "t": 300756.45599999756,
      "d": 158.89500000001863,
      "v": 112
    },
    {
      "midi": 56,
      "hit": false,
      "t": 300756.45599999756,
      "d": 169.4880000000121,
      "v": 122
    },
    {
      "midi": 32,
      "hit": false,
      "t": 300756.45599999756,
      "d": 190.67399999999907,
      "v": 104
    },
    {
      "midi": 43,
      "hit": false,
      "t": 301264.91999999754,
      "d": 95.33699999999953,
      "v": 112
    },
    {
      "midi": 31,
      "hit": false,
      "t": 301264.91999999754,
      "d": 132.41249999997672,
      "v": 108
    },
    {
      "midi": 55,
      "hit": false,
      "t": 301264.91999999754,
      "d": 148.30199999996694,
      "v": 122
    },
    {
      "midi": 38,
      "hit": false,
      "t": 301773.3839999975,
      "d": 95.33699999999953,
      "v": 88
    },
    {
      "midi": 50,
      "hit": false,
      "t": 301773.3839999975,
      "d": 153.5985000000219,
      "v": 108
    },
    {
      "midi": 26,
      "hit": false,
      "t": 301773.3839999975,
      "d": 211.86000000004424,
      "v": 100
    },
    {
      "midi": 29,
      "hit": false,
      "t": 302027.61599999754,
      "d": 95.33699999999953,
      "v": 117
    },
    {
      "midi": 53,
      "hit": false,
      "t": 302027.61599999754,
      "d": 127.11599999997998,
      "v": 122
    },
    {
      "midi": 57,
      "hit": false,
      "t": 302536.0799999975,
      "d": 4030.6365000000224,
      "v": 84
    },
    {
      "midi": 53,
      "hit": false,
      "t": 302536.0799999975,
      "d": 4131.270000000019,
      "v": 117
    },
    {
      "midi": 62,
      "hit": false,
      "t": 302536.0799999975,
      "d": 4141.863000000012,
      "v": 108
    },
    {
      "midi": 43,
      "hit": false,
      "t": 302536.0799999975,
      "d": 4163.048999999999,
      "v": 122
    },
    {
      "midi": 26,
      "hit": false,
      "t": 307112.2559999975,
      "d": 227.74949999997625,
      "v": 100
    },
    {
      "midi": 50,
      "hit": false,
      "t": 307112.2559999975,
      "d": 238.34249999996973,
      "v": 112
    },
    {
      "midi": 57,
      "hit": false,
      "t": 307112.2559999975,
      "d": 248.9354999999632,
      "v": 112
    },
    {
      "midi": 62,
      "hit": false,
      "t": 307112.2559999975,
      "d": 248.9354999999632,
      "v": 104
    }
  ]
}