{
  "jsonPath": "Rock/Alternative Rock/Pulp/disco-2000.json",
  "path": "Rock\\Alternative Rock\\Pulp\\Disco 2000.mid",
  "name": "Disco 2000",
  "difficulty": "Advanced",
  "bpm": 133.00053643549697,
  "notes": [
    {
      "midi": 60,
      "hit": false,
      "t": 3609.0080000000003,
      "d": 124.5295729166669,
      "v": 113
    },
    {
      "midi": 69,
      "hit": false,
      "t": 3609.0080000000003,
      "d": 155.0745625000004,
      "v": 97
    },
    {
      "midi": 65,
      "hit": false,
      "t": 3609.0080000000003,
      "d": 171.5218645833338,
      "v": 101
    },
    {
      "midi": 70,
      "hit": false,
      "t": 3834.571000000001,
      "d": 148.02571875000012,
      "v": 100
    },
    {
      "midi": 62,
      "hit": false,
      "t": 3834.571000000001,
      "d": 159.77379166666697,
      "v": 91
    },
    {
      "midi": 65,
      "hit": false,
      "t": 3834.571000000001,
      "d": 183.2699375000002,
      "v": 86
    },
    {
      "midi": 60,
      "hit": false,
      "t": 4060.134000000001,
      "d": 138.627260416667,
      "v": 127
    },
    {
      "midi": 69,
      "hit": false,
      "t": 4060.134000000001,
      "d": 152.72494791666668,
      "v": 101
    },
    {
      "midi": 65,
      "hit": false,
      "t": 4060.134000000001,
      "d": 155.07456249999996,
      "v": 101
    },
    {
      "midi": 60,
      "hit": false,
      "t": 4736.823000000001,
      "d": 131.57841666666627,
      "v": 127
    },
    {
      "midi": 69,
      "hit": false,
      "t": 4736.823000000001,
      "d": 169.17224999999962,
      "v": 101
    },
    {
      "midi": 65,
      "hit": false,
      "t": 4736.823000000001,
      "d": 180.920322916666,
      "v": 104
    },
    {
      "midi": 70,
      "hit": false,
      "t": 4962.386,
      "d": 143.32648958333357,
      "v": 100
    },
    {
      "midi": 62,
      "hit": false,
      "t": 4962.386,
      "d": 155.07456249999996,
      "v": 83
    },
    {
      "midi": 65,
      "hit": false,
      "t": 4962.386,
      "d": 171.5218645833329,
      "v": 83
    },
    {
      "midi": 69,
      "hit": false,
      "t": 5187.949,
      "d": 173.8714791666671,
      "v": 108
    },
    {
      "midi": 65,
      "hit": false,
      "t": 5187.949,
      "d": 187.96916666666675,
      "v": 108
    },
    {
      "midi": 60,
      "hit": false,
      "t": 5187.949,
      "d": 192.6683958333333,
      "v": 122
    },
    {
      "midi": 65,
      "hit": false,
      "t": 5639.075,
      "d": 187.96916666666675,
      "v": 104
    },
    {
      "midi": 69,
      "hit": false,
      "t": 5639.075,
      "d": 199.71723958333314,
      "v": 104
    },
    {
      "midi": 60,
      "hit": false,
      "t": 5639.075,
      "d": 223.21338541666682,
      "v": 127
    },
    {
      "midi": 60,
      "hit": false,
      "t": 6090.201,
      "d": 119.83034374999988,
      "v": 117
    },
    {
      "midi": 69,
      "hit": false,
      "t": 6090.201,
      "d": 143.32648958333357,
      "v": 81
    },
    {
      "midi": 65,
      "hit": false,
      "t": 6090.201,
      "d": 166.82263541666725,
      "v": 97
    },
    {
      "midi": 70,
      "hit": false,
      "t": 6315.764000000001,
      "d": 133.92803124999955,
      "v": 100
    },
    {
      "midi": 65,
      "hit": false,
      "t": 6315.764000000001,
      "d": 157.42417708333323,
      "v": 94
    },
    {
      "midi": 62,
      "hit": false,
      "t": 6315.764000000001,
      "d": 159.7737916666665,
      "v": 88
    },
    {
      "midi": 70,
      "hit": false,
      "t": 6541.327000000001,
      "d": 129.228802083333,
      "v": 83
    },
    {
      "midi": 62,
      "hit": false,
      "t": 6541.327000000001,
      "d": 143.32648958333266,
      "v": 79
    },
    {
      "midi": 65,
      "hit": false,
      "t": 6541.327000000001,
      "d": 166.82263541666634,
      "v": 88
    },
    {
      "midi": 69,
      "hit": false,
      "t": 6766.890000000001,
      "d": 136.27764583333374,
      "v": 108
    },
    {
      "midi": 65,
      "hit": false,
      "t": 6766.890000000001,
      "d": 138.627260416667,
      "v": 113
    },
    {
      "midi": 60,
      "hit": false,
      "t": 6766.890000000001,
      "d": 150.3753333333334,
      "v": 122
    },
    {
      "midi": 60,
      "hit": false,
      "t": 7218.016000000001,
      "d": 140.9768750000003,
      "v": 127
    },
    {
      "midi": 69,
      "hit": false,
      "t": 7218.016000000001,
      "d": 162.1234062500007,
      "v": 104
    },
    {
      "midi": 65,
      "hit": false,
      "t": 7218.016000000001,
      "d": 197.36762500000077,
      "v": 97
    },
    {
      "midi": 70,
      "hit": false,
      "t": 7443.579000000002,
      "d": 155.07456249999996,
      "v": 87
    },
    {
      "midi": 62,
      "hit": false,
      "t": 7443.579000000002,
      "d": 171.5218645833329,
      "v": 88
    },
    {
      "midi": 65,
      "hit": false,
      "t": 7443.579000000002,
      "d": 187.96916666666584,
      "v": 83
    },
    {
      "midi": 60,
      "hit": false,
      "t": 7669.142000000002,
      "d": 155.07456249999996,
      "v": 117
    },
    {
      "midi": 65,
      "hit": false,
      "t": 7669.142000000002,
      "d": 162.1234062499998,
      "v": 104
    },
    {
      "midi": 69,
      "hit": false,
      "t": 7669.142000000002,
      "d": 173.87147916666618,
      "v": 113
    },
    {
      "midi": 60,
      "hit": false,
      "t": 8345.831000000002,
      "d": 148.0257187499992,
      "v": 117
    },
    {
      "midi": 69,
      "hit": false,
      "t": 8345.831000000002,
      "d": 166.82263541666543,
      "v": 104
    },
    {
      "midi": 65,
      "hit": false,
      "t": 8345.831000000002,
      "d": 399.43447916666446,
      "v": 104
    },
    {
      "midi": 70,
      "hit": false,
      "t": 8571.394,
      "d": 133.92803124999955,
      "v": 91
    },
    {
      "midi": 62,
      "hit": false,
      "t": 8571.394,
      "d": 162.12340624999888,
      "v": 88
    },
    {
      "midi": 65,
      "hit": false,
      "t": 8796.957,
      "d": 187.96916666666584,
      "v": 97
    },
    {
      "midi": 69,
      "hit": false,
      "t": 8796.957,
      "d": 190.31878125000003,
      "v": 97
    },
    {
      "midi": 60,
      "hit": false,
      "t": 8796.957,
      "d": 211.46531250000044,
      "v": 117
    },
    {
      "midi": 65,
      "hit": false,
      "t": 9248.083,
      "d": 230.26222916666666,
      "v": 104
    },
    {
      "midi": 69,
      "hit": false,
      "t": 9248.083,
      "d": 230.26222916666666,
      "v": 104
    },
    {
      "midi": 60,
      "hit": false,
      "t": 9248.083,
      "d": 258.457604166666,
      "v": 127
    },
    {
      "midi": 60,
      "hit": false,
      "t": 9699.209,
      "d": 129.228802083333,
      "v": 104
    },
    {
      "midi": 69,
      "hit": false,
      "t": 9699.209,
      "d": 169.17224999999962,
      "v": 94
    },
    {
      "midi": 65,
      "hit": false,
      "t": 9699.209,
      "d": 176.22109375000036,
      "v": 91
    },
    {
      "midi": 70,
      "hit": false,
      "t": 9924.772,
      "d": 115.13111458333333,
      "v": 95
    },
    {
      "midi": 65,
      "hit": false,
      "t": 9924.772,
      "d": 131.57841666666718,
      "v": 91
    },
    {
      "midi": 62,
      "hit": false,
      "t": 9924.772,
      "d": 148.02571875000103,
      "v": 91
    },
    {
      "midi": 70,
      "hit": false,
      "t": 10150.335000000003,
      "d": 126.87918750000063,
      "v": 83
    },
    {
      "midi": 62,
      "hit": false,
      "t": 10150.335000000003,
      "d": 138.62726041666792,
      "v": 88
    },
    {
      "midi": 65,
      "hit": false,
      "t": 10150.335000000003,
      "d": 138.62726041666792,
      "v": 91
    },
    {
      "midi": 69,
      "hit": false,
      "t": 10375.898000000005,
      "d": 152.72494791666577,
      "v": 113
    },
    {
      "midi": 65,
      "hit": false,
      "t": 10375.898000000005,
      "d": 164.47302083333307,
      "v": 113
    },
    {
      "midi": 60,
      "hit": false,
      "t": 10375.898000000005,
      "d": 183.2699374999993,
      "v": 127
    },
    {
      "midi": 60,
      "hit": false,
      "t": 10827.024000000005,
      "d": 150.3753333333334,
      "v": 122
    },
    {
      "midi": 69,
      "hit": false,
      "t": 10827.024000000005,
      "d": 166.82263541666725,
      "v": 91
    },
    {
      "midi": 65,
      "hit": false,
      "t": 10827.024000000005,
      "d": 392.38563541666736,
      "v": 97
    },
    {
      "midi": 70,
      "hit": false,
      "t": 11052.587000000005,
      "d": 136.27764583333374,
      "v": 95
    },
    {
      "midi": 62,
      "hit": false,
      "t": 11052.587000000005,
      "d": 150.3753333333334,
      "v": 71
    },
    {
      "midi": 60,
      "hit": false,
      "t": 11278.150000000005,
      "d": 162.1234062500007,
      "v": 113
    },
    {
      "midi": 69,
      "hit": false,
      "t": 11278.150000000005,
      "d": 162.1234062500007,
      "v": 97
    },
    {
      "midi": 65,
      "hit": false,
      "t": 11278.150000000005,
      "d": 171.5218645833338,
      "v": 94
    },
    {
      "midi": 60,
      "hit": false,
      "t": 11954.839000000005,
      "d": 133.92803124999955,
      "v": 127
    },
    {
      "midi": 69,
      "hit": false,
      "t": 11954.839000000005,
      "d": 171.521864583332,
      "v": 104
    },
    {
      "midi": 65,
      "hit": false,
      "t": 11954.839000000005,
      "d": 187.96916666666584,
      "v": 104
    },
    {
      "midi": 70,
      "hit": false,
      "t": 12180.402000000004,
      "d": 126.87918750000063,
      "v": 95
    },
    {
      "midi": 62,
      "hit": false,
      "t": 12180.402000000004,
      "d": 136.27764583333374,
      "v": 81
    },
    {
      "midi": 65,
      "hit": false,
      "t": 12180.402000000004,
      "d": 152.7249479166676,
      "v": 94
    },
    {
      "midi": 69,
      "hit": false,
      "t": 12405.965000000004,
      "d": 223.21338541666591,
      "v": 104
    },
    {
      "midi": 65,
      "hit": false,
      "t": 12405.965000000004,
      "d": 237.31107291666558,
      "v": 97
    },
    {
      "midi": 60,
      "hit": false,
      "t": 12405.965000000004,
      "d": 253.75837499999943,
      "v": 117
    },
    {
      "midi": 69,
      "hit": false,
      "t": 12857.091000000004,
      "d": 237.3110729166674,
      "v": 108
    },
    {
      "midi": 60,
      "hit": false,
      "t": 12857.091000000004,
      "d": 253.75837500000125,
      "v": 122
    },
    {
      "midi": 65,
      "hit": false,
      "t": 12857.091000000004,
      "d": 253.75837500000125,
      "v": 101
    },
    {
      "midi": 60,
      "hit": false,
      "t": 13308.217000000006,
      "d": 140.9768750000003,
      "v": 122
    },
    {
      "midi": 69,
      "hit": false,
      "t": 13308.217000000006,
      "d": 157.42417708333414,
      "v": 101
    },
    {
      "midi": 65,
      "hit": false,
      "t": 13308.217000000006,
      "d": 185.61955208333347,
      "v": 104
    },
    {
      "midi": 70,
      "hit": false,
      "t": 13533.780000000006,
      "d": 115.13111458333333,
      "v": 83
    },
    {
      "midi": 62,
      "hit": false,
      "t": 13533.780000000006,
      "d": 126.87918750000063,
      "v": 91
    },
    {
      "midi": 65,
      "hit": false,
      "t": 13533.780000000006,
      "d": 129.2288020833348,
      "v": 86
    },
    {
      "midi": 70,
      "hit": false,
      "t": 13759.343000000008,
      "d": 133.92803124999955,
      "v": 83
    },
    {
      "midi": 62,
      "hit": false,
      "t": 13759.343000000008,
      "d": 145.67610416666685,
      "v": 81
    },
    {
      "midi": 65,
      "hit": false,
      "t": 13759.343000000008,
      "d": 152.7249479166676,
      "v": 91
    },
    {
      "midi": 69,
      "hit": false,
      "t": 13984.906000000008,
      "d": 183.2699374999993,
      "v": 101
    },
    {
      "midi": 65,
      "hit": false,
      "t": 13984.906000000008,
      "d": 197.36762499999895,
      "v": 101
    },
    {
      "midi": 60,
      "hit": false,
      "t": 13984.906000000008,
      "d": 213.8149270833328,
      "v": 122
    },
    {
      "midi": 60,
      "hit": false,
      "t": 14436.032000000008,
      "d": 124.52957291666644,
      "v": 127
    },
    {
      "midi": 69,
      "hit": false,
      "t": 14436.032000000008,
      "d": 159.7737916666665,
      "v": 113
    },
    {
      "midi": 65,
      "hit": false,
      "t": 14436.032000000008,
      "d": 162.1234062500007,
      "v": 108
    },
    {
      "midi": 70,
      "hit": false,
      "t": 14661.595000000008,
      "d": 140.9768750000003,
      "v": 73
    },
    {
      "midi": 62,
      "hit": false,
      "t": 14661.595000000008,
      "d": 155.07456249999996,
      "v": 79
    },
    {
      "midi": 65,
      "hit": false,
      "t": 14661.595000000008,
      "d": 180.92032291666692,
      "v": 86
    },
    {
      "midi": 69,
      "hit": false,
      "t": 14887.158000000009,
      "d": 223.21338541666591,
      "v": 101
    },
    {
      "midi": 65,
      "hit": false,
      "t": 14887.158000000009,
      "d": 225.5630000000001,
      "v": 94
    },
    {
      "midi": 60,
      "hit": false,
      "t": 14887.158000000009,
      "d": 267.8560625000009,
      "v": 117
    },
    {
      "midi": 60,
      "hit": false,
      "t": 15563.847000000009,
      "d": 103.38304166666603,
      "v": 122
    },
    {
      "midi": 69,
      "hit": false,
      "t": 15563.847000000009,
      "d": 129.228802083333,
      "v": 104
    },
    {
      "midi": 65,
      "hit": false,
      "t": 15563.847000000009,
      "d": 133.92803124999955,
      "v": 104
    },
    {
      "midi": 70,
      "hit": false,
      "t": 15789.410000000009,
      "d": 131.57841666666718,
      "v": 71
    },
    {
      "midi": 65,
      "hit": false,
      "t": 15789.410000000009,
      "d": 150.3753333333334,
      "v": 91
    },
    {
      "midi": 62,
      "hit": false,
      "t": 15789.410000000009,
      "d": 157.42417708333414,
      "v": 77
    },
    {
      "midi": 60,
      "hit": false,
      "t": 16014.973000000009,
      "d": 237.3110729166674,
      "v": 113
    },
    {
      "midi": 65,
      "hit": false,
      "t": 16014.973000000009,
      "d": 237.3110729166674,
      "v": 108
    },
    {
      "midi": 69,
      "hit": false,
      "t": 16014.973000000009,
      "d": 237.3110729166674,
      "v": 113
    },
    {
      "midi": 65,
      "hit": false,
      "t": 16466.09900000001,
      "d": 246.7095312499987,
      "v": 108
    },
    {
      "midi": 69,
      "hit": false,
      "t": 16466.09900000001,
      "d": 258.457604166666,
      "v": 108
    },
    {
      "midi": 60,
      "hit": false,
      "t": 16466.09900000001,
      "d": 267.8560624999991,
      "v": 117
    },
    {
      "midi": 60,
      "hit": false,
      "t": 16917.22500000001,
      "d": 84.58612500000163,
      "v": 108
    },
    {
      "midi": 69,
      "hit": false,
      "t": 16917.22500000001,
      "d": 117.48072916666933,
      "v": 97
    },
    {
      "midi": 65,
      "hit": false,
      "t": 16917.22500000001,
      "d": 136.27764583333555,
      "v": 91
    },
    {
      "midi": 70,
      "hit": false,
      "t": 17142.78800000001,
      "d": 129.228802083333,
      "v": 100
    },
    {
      "midi": 62,
      "hit": false,
      "t": 17142.78800000001,
      "d": 131.57841666666718,
      "v": 75
    },
    {
      "midi": 65,
      "hit": false,
      "t": 17142.78800000001,
      "d": 131.57841666666718,
      "v": 77
    },
    {
      "midi": 70,
      "hit": false,
      "t": 17368.351000000013,
      "d": 108.08227083333259,
      "v": 71
    },
    {
      "midi": 65,
      "hit": false,
      "t": 17368.351000000013,
      "d": 124.52957291666462,
      "v": 88
    },
    {
      "midi": 62,
      "hit": false,
      "t": 17368.351000000013,
      "d": 126.8791874999988,
      "v": 79
    },
    {
      "midi": 60,
      "hit": false,
      "t": 17593.91400000001,
      "d": 75.18766666666488,
      "v": 122
    },
    {
      "midi": 65,
      "hit": false,
      "t": 17593.91400000001,
      "d": 89.28535416666637,
      "v": 113
    },
    {
      "midi": 69,
      "hit": false,
      "t": 17593.91400000001,
      "d": 101.03342708333366,
      "v": 101
    },
    {
      "midi": 65,
      "hit": false,
      "t": 18045.04000000001,
      "d": 119.83034374999988,
      "v": 81
    },
    {
      "midi": 74,
      "hit": false,
      "t": 18045.04000000001,
      "d": 148.0257187499992,
      "v": 113
    },
    {
      "midi": 70,
      "hit": false,
      "t": 18045.04000000001,
      "d": 164.47302083333125,
      "v": 95
    },
    {
      "midi": 75,
      "hit": false,
      "t": 18270.60300000001,
      "d": 152.7249479166676,
      "v": 65
    },
    {
      "midi": 67,
      "hit": false,
      "t": 18270.60300000001,
      "d": 176.22109375000218,
      "v": 81
    },
    {
      "midi": 70,
      "hit": false,
      "t": 18270.60300000001,
      "d": 187.96916666666948,
      "v": 80
    },
    {
      "midi": 74,
      "hit": false,
      "t": 18496.166000000012,
      "d": 202.06685416666733,
      "v": 91
    },
    {
      "midi": 65,
      "hit": false,
      "t": 18496.166000000012,
      "d": 204.4164687500015,
      "v": 91
    },
    {
      "midi": 70,
      "hit": false,
      "t": 18496.166000000012,
      "d": 209.1156979166699,
      "v": 83
    },
    {
      "midi": 65,
      "hit": false,
      "t": 19172.855000000014,
      "d": 145.67610416666503,
      "v": 94
    },
    {
      "midi": 74,
      "hit": false,
      "t": 19172.855000000014,
      "d": 157.42417708333232,
      "v": 104
    },
    {
      "midi": 70,
      "hit": false,
      "t": 19172.855000000014,
      "d": 173.87147916666436,
      "v": 95
    },
    {
      "midi": 75,
      "hit": false,
      "t": 19398.418000000012,
      "d": 148.0257187499992,
      "v": 91
    },
    {
      "midi": 67,
      "hit": false,
      "t": 19398.418000000012,
      "d": 164.47302083333125,
      "v": 79
    },
    {
      "midi": 70,
      "hit": false,
      "t": 19398.418000000012,
      "d": 176.22109374999854,
      "v": 76
    },
    {
      "midi": 74,
      "hit": false,
      "t": 19623.98100000001,
      "d": 190.31878125000003,
      "v": 101
    },
    {
      "midi": 65,
      "hit": false,
      "t": 19623.98100000001,
      "d": 199.71723958333314,
      "v": 83
    },
    {
      "midi": 70,
      "hit": false,
      "t": 19623.98100000001,
      "d": 199.71723958333314,
      "v": 91
    },
    {
      "midi": 70,
      "hit": false,
      "t": 20075.10700000001,
      "d": 246.7095312499987,
      "v": 87
    },
    {
      "midi": 74,
      "hit": false,
      "t": 20075.10700000001,
      "d": 246.7095312499987,
      "v": 97
    },
    {
      "midi": 65,
      "hit": false,
      "t": 20075.10700000001,
      "d": 251.40876041666706,
      "v": 91
    },
    {
      "midi": 65,
      "hit": false,
      "t": 20526.23300000001,
      "d": 86.93573958333218,
      "v": 88
    },
    {
      "midi": 74,
      "hit": false,
      "t": 20526.23300000001,
      "d": 143.32648958333084,
      "v": 97
    },
    {
      "midi": 70,
      "hit": false,
      "t": 20526.23300000001,
      "d": 150.37533333332976,
      "v": 87
    },
    {
      "midi": 75,
      "hit": false,
      "t": 20751.796000000006,
      "d": 129.228802083333,
      "v": 71
    },
    {
      "midi": 70,
      "hit": false,
      "t": 20751.796000000006,
      "d": 150.3753333333334,
      "v": 76
    },
    {
      "midi": 67,
      "hit": false,
      "t": 20751.796000000006,
      "d": 155.07456250000178,
      "v": 86
    },
    {
      "midi": 75,
      "hit": false,
      "t": 20977.359000000008,
      "d": 124.52957291666826,
      "v": 80
    },
    {
      "midi": 67,
      "hit": false,
      "t": 20977.359000000008,
      "d": 150.3753333333334,
      "v": 71
    },
    {
      "midi": 70,
      "hit": false,
      "t": 20977.359000000008,
      "d": 157.42417708333232,
      "v": 80
    },
    {
      "midi": 70,
      "hit": false,
      "t": 21202.922000000006,
      "d": 138.6272604166661,
      "v": 87
    },
    {
      "midi": 74,
      "hit": false,
      "t": 21202.922000000006,
      "d": 140.9768750000003,
      "v": 101
    },
    {
      "midi": 65,
      "hit": false,
      "t": 21202.922000000006,
      "d": 145.67610416666867,
      "v": 88
    },
    {
      "midi": 65,
      "hit": false,
      "t": 21654.048000000006,
      "d": 122.17995833333407,
      "v": 104
    },
    {
      "midi": 74,
      "hit": false,
      "t": 21654.048000000006,
      "d": 155.07456250000178,
      "v": 108
    },
    {
      "midi": 70,
      "hit": false,
      "t": 21654.048000000006,
      "d": 180.92032291666692,
      "v": 104
    },
    {
      "midi": 75,
      "hit": false,
      "t": 21879.611000000008,
      "d": 126.8791874999988,
      "v": 91
    },
    {
      "midi": 67,
      "hit": false,
      "t": 21879.611000000008,
      "d": 140.9768750000003,
      "v": 73
    },
    {
      "midi": 70,
      "hit": false,
      "t": 21879.611000000008,
      "d": 157.42417708333232,
      "v": 73
    },
    {
      "midi": 74,
      "hit": false,
      "t": 22105.174000000006,
      "d": 176.22109374999854,
      "v": 108
    },
    {
      "midi": 70,
      "hit": false,
      "t": 22105.174000000006,
      "d": 180.92032291666692,
      "v": 83
    },
    {
      "midi": 65,
      "hit": false,
      "t": 22105.174000000006,
      "d": 190.31878125000003,
      "v": 88
    },
    {
      "midi": 65,
      "hit": false,
      "t": 22781.863000000005,
      "d": 105.7326562499984,
      "v": 104
    },
    {
      "midi": 74,
      "hit": false,
      "t": 22781.863000000005,
      "d": 133.92803124999773,
      "v": 97
    },
    {
      "midi": 70,
      "hit": false,
      "t": 22781.863000000005,
      "d": 171.52186458333017,
      "v": 100
    },
    {
      "midi": 75,
      "hit": false,
      "t": 23007.426000000003,
      "d": 115.13111458333515,
      "v": 87
    },
    {
      "midi": 67,
      "hit": false,
      "t": 23007.426000000003,
      "d": 131.57841666666718,
      "v": 79
    },
    {
      "midi": 70,
      "hit": false,
      "t": 23007.426000000003,
      "d": 159.7737916666665,
      "v": 68
    },
    {
      "midi": 65,
      "hit": false,
      "t": 23232.989,
      "d": 246.7095312499987,
      "v": 81
    },
    {
      "midi": 70,
      "hit": false,
      "t": 23232.989,
      "d": 251.40876041666706,
      "v": 76
    },
    {
      "midi": 74,
      "hit": false,
      "t": 23232.989,
      "d": 258.457604166666,
      "v": 88
    },
    {
      "midi": 74,
      "hit": false,
      "t": 23684.115,
      "d": 249.05914583333288,
      "v": 104
    },
    {
      "midi": 70,
      "hit": false,
      "t": 23684.115,
      "d": 251.40876041666706,
      "v": 95
    },
    {
      "midi": 65,
      "hit": false,
      "t": 23684.115,
      "d": 260.8072187500002,
      "v": 88
    },
    {
      "midi": 65,
      "hit": false,
      "t": 24135.241,
      "d": 110.43188541666677,
      "v": 79
    },
    {
      "midi": 74,
      "hit": false,
      "t": 24135.241,
      "d": 138.6272604166661,
      "v": 88
    },
    {
      "midi": 70,
      "hit": false,
      "t": 24135.241,
      "d": 152.7249479166676,
      "v": 83
    },
    {
      "midi": 75,
      "hit": false,
      "t": 24360.804000000004,
      "d": 91.63496875000055,
      "v": 83
    },
    {
      "midi": 67,
      "hit": false,
      "t": 24360.804000000004,
      "d": 101.03342708333366,
      "v": 70
    },
    {
      "midi": 70,
      "hit": false,
      "t": 24360.804000000004,
      "d": 117.4807291666657,
      "v": 61
    },
    {
      "midi": 75,
      "hit": false,
      "t": 24586.367000000002,
      "d": 112.78150000000096,
      "v": 80
    },
    {
      "midi": 70,
      "hit": false,
      "t": 24586.367000000002,
      "d": 115.13111458333515,
      "v": 87
    },
    {
      "midi": 67,
      "hit": false,
      "t": 24586.367000000002,
      "d": 122.17995833333407,
      "v": 91
    },
    {
      "midi": 74,
      "hit": false,
      "t": 24811.930000000004,
      "d": 68.13882291666596,
      "v": 83
    },
    {
      "midi": 70,
      "hit": false,
      "t": 24811.930000000004,
      "d": 101.03342708333366,
      "v": 80
    },
    {
      "midi": 65,
      "hit": false,
      "t": 24811.930000000004,
      "d": 112.78150000000096,
      "v": 79
    },
    {
      "midi": 60,
      "hit": false,
      "t": 25263.056000000004,
      "d": 115.13111458333151,
      "v": 127
    },
    {
      "midi": 69,
      "hit": false,
      "t": 25263.056000000004,
      "d": 136.27764583333192,
      "v": 108
    },
    {
      "midi": 65,
      "hit": false,
      "t": 25263.056000000004,
      "d": 380.63756250000006,
      "v": 113
    },
    {
      "midi": 70,
      "hit": false,
      "t": 25488.619000000002,
      "d": 155.07456250000178,
      "v": 95
    },
    {
      "midi": 62,
      "hit": false,
      "t": 25488.619000000002,
      "d": 171.5218645833338,
      "v": 77
    },
    {
      "midi": 60,
      "hit": false,
      "t": 25714.182000000004,
      "d": 112.78150000000096,
      "v": 122
    },
    {
      "midi": 65,
      "hit": false,
      "t": 25714.182000000004,
      "d": 117.48072916666933,
      "v": 117
    },
    {
      "midi": 69,
      "hit": false,
      "t": 25714.182000000004,
      "d": 129.22880208333663,
      "v": 113
    },
    {
      "midi": 69,
      "hit": false,
      "t": 26390.871000000006,
      "d": 140.9768750000003,
      "v": 104
    },
    {
      "midi": 60,
      "hit": false,
      "t": 26390.871000000006,
      "d": 148.0257187499992,
      "v": 127
    },
    {
      "midi": 65,
      "hit": false,
      "t": 26390.871000000006,
      "d": 385.33679166666843,
      "v": 113
    },
    {
      "midi": 70,
      "hit": false,
      "t": 26616.434000000005,
      "d": 143.32648958333448,
      "v": 87
    },
    {
      "midi": 62,
      "hit": false,
      "t": 26616.434000000005,
      "d": 155.07456250000178,
      "v": 86
    },
    {
      "midi": 60,
      "hit": false,
      "t": 26841.997000000007,
      "d": 110.43188541666677,
      "v": 127
    },
    {
      "midi": 65,
      "hit": false,
      "t": 26841.997000000007,
      "d": 117.4807291666657,
      "v": 104
    },
    {
      "midi": 69,
      "hit": false,
      "t": 26841.997000000007,
      "d": 133.92803124999773,
      "v": 94
    },
    {
      "midi": 65,
      "hit": false,
      "t": 27293.123000000003,
      "d": 79.88689583333326,
      "v": 97
    },
    {
      "midi": 69,
      "hit": false,
      "t": 27293.123000000003,
      "d": 91.63496875000055,
      "v": 97
    },
    {
      "midi": 60,
      "hit": false,
      "t": 27293.123000000003,
      "d": 98.68381249999948,
      "v": 117
    },
    {
      "midi": 60,
      "hit": false,
      "t": 27744.249000000003,
      "d": 124.52957291666826,
      "v": 127
    },
    {
      "midi": 69,
      "hit": false,
      "t": 27744.249000000003,
      "d": 159.7737916666665,
      "v": 104
    },
    {
      "midi": 65,
      "hit": false,
      "t": 27744.249000000003,
      "d": 368.88948958333276,
      "v": 117
    },
    {
      "midi": 62,
      "hit": false,
      "t": 27969.812,
      "d": 131.57841666666718,
      "v": 91
    },
    {
      "midi": 70,
      "hit": false,
      "t": 27969.812,
      "d": 131.57841666666718,
      "v": 95
    },
    {
      "midi": 70,
      "hit": false,
      "t": 28195.375000000004,
      "d": 138.6272604166661,
      "v": 91
    },
    {
      "midi": 62,
      "hit": false,
      "t": 28195.375000000004,
      "d": 162.1234062500007,
      "v": 88
    },
    {
      "midi": 65,
      "hit": false,
      "t": 28195.375000000004,
      "d": 180.92032291666692,
      "v": 97
    },
    {
      "midi": 65,
      "hit": false,
      "t": 28420.938000000006,
      "d": 91.63496875000055,
      "v": 101
    },
    {
      "midi": 60,
      "hit": false,
      "t": 28420.938000000006,
      "d": 98.68381249999948,
      "v": 127
    },
    {
      "midi": 69,
      "hit": false,
      "t": 28420.938000000006,
      "d": 108.08227083333259,
      "v": 97
    },
    {
      "midi": 60,
      "hit": false,
      "t": 28872.064000000006,
      "d": 169.17224999999962,
      "v": 127
    },
    {
      "midi": 69,
      "hit": false,
      "t": 28872.064000000006,
      "d": 176.22109374999854,
      "v": 108
    },
    {
      "midi": 65,
      "hit": false,
      "t": 28872.064000000006,
      "d": 392.3856354166637,
      "v": 113
    },
    {
      "midi": 70,
      "hit": false,
      "t": 29097.627000000004,
      "d": 145.67610416666503,
      "v": 71
    },
    {
      "midi": 62,
      "hit": false,
      "t": 29097.627000000004,
      "d": 152.72494791666395,
      "v": 81
    },
    {
      "midi": 60,
      "hit": false,
      "t": 29323.190000000002,
      "d": 133.92803125000137,
      "v": 113
    },
    {
      "midi": 65,
      "hit": false,
      "t": 29323.190000000002,
      "d": 136.27764583333555,
      "v": 101
    },
    {
      "midi": 69,
      "hit": false,
      "t": 29323.190000000002,
      "d": 136.27764583333555,
      "v": 113
    },
    {
      "midi": 60,
      "hit": false,
      "t": 29999.879000000004,
      "d": 185.61955208333166,
      "v": 122
    },
    {
      "midi": 69,
      "hit": false,
      "t": 29999.879000000004,
      "d": 185.61955208333166,
      "v": 101
    },
    {
      "midi": 65,
      "hit": false,
      "t": 29999.879000000004,
      "d": 392.3856354166637,
      "v": 108
    },
    {
      "midi": 70,
      "hit": false,
      "t": 30225.442000000003,
      "d": 126.8791874999988,
      "v": 87
    },
    {
      "midi": 62,
      "hit": false,
      "t": 30225.442000000003,
      "d": 131.57841666666718,
      "v": 81
    },
    {
      "midi": 60,
      "hit": false,
      "t": 30451.005,
      "d": 124.52957291666826,
      "v": 122
    },
    {
      "midi": 69,
      "hit": false,
      "t": 30451.005,
      "d": 129.22880208333663,
      "v": 108
    },
    {
      "midi": 65,
      "hit": false,
      "t": 30451.005,
      "d": 136.27764583333555,
      "v": 97
    },
    {
      "midi": 60,
      "hit": false,
      "t": 30902.131000000005,
      "d": 152.7249479166676,
      "v": 127
    },
    {
      "midi": 65,
      "hit": false,
      "t": 30902.131000000005,
      "d": 155.07456250000178,
      "v": 94
    },
    {
      "midi": 69,
      "hit": false,
      "t": 30902.131000000005,
      "d": 157.42417708333596,
      "v": 94
    },
    {
      "midi": 60,
      "hit": false,
      "t": 31353.25700000001,
      "d": 155.07456250000178,
      "v": 127
    },
    {
      "midi": 69,
      "hit": false,
      "t": 31353.25700000001,
      "d": 176.22109375000218,
      "v": 97
    },
    {
      "midi": 65,
      "hit": false,
      "t": 31353.25700000001,
      "d": 366.5398750000022,
      "v": 108
    },
    {
      "midi": 70,
      "hit": false,
      "t": 31578.82000000001,
      "d": 133.92803125000137,
      "v": 91
    },
    {
      "midi": 62,
      "hit": false,
      "t": 31578.82000000001,
      "d": 143.32648958333448,
      "v": 81
    },
    {
      "midi": 70,
      "hit": false,
      "t": 31804.383000000013,
      "d": 131.57841666666718,
      "v": 71
    },
    {
      "midi": 62,
      "hit": false,
      "t": 31804.383000000013,
      "d": 138.6272604166661,
      "v": 83
    },
    {
      "midi": 65,
      "hit": false,
      "t": 31804.383000000013,
      "d": 148.0257187499992,
      "v": 88
    },
    {
      "midi": 60,
      "hit": false,
      "t": 32029.94600000001,
      "d": 77.53728124999907,
      "v": 127
    },
    {
      "midi": 69,
      "hit": false,
      "t": 32029.94600000001,
      "d": 105.7326562499984,
      "v": 94
    },
    {
      "midi": 65,
      "hit": false,
      "t": 32029.94600000001,
      "d": 110.43188541666677,
      "v": 101
    },
    {
      "midi": 65,
      "hit": false,
      "t": 32481.07200000001,
      "d": 145.67610416666503,
      "v": 79
    },
    {
      "midi": 74,
      "hit": false,
      "t": 32481.07200000001,
      "d": 145.67610416666503,
      "v": 101
    },
    {
      "midi": 70,
      "hit": false,
      "t": 32481.07200000001,
      "d": 312.4987395833341,
      "v": 87
    },
    {
      "midi": 75,
      "hit": false,
      "t": 32706.63500000001,
      "d": 93.98458333333838,
      "v": 65
    },
    {
      "midi": 65,
      "hit": false,
      "t": 32932.19800000001,
      "d": 138.6272604166661,
      "v": 101
    },
    {
      "midi": 74,
      "hit": false,
      "t": 32932.19800000001,
      "d": 148.02571875000285,
      "v": 97
    },
    {
      "midi": 70,
      "hit": false,
      "t": 32932.19800000001,
      "d": 162.1234062500007,
      "v": 91
    },
    {
      "midi": 65,
      "hit": false,
      "t": 33608.88700000001,
      "d": 119.83034374999988,
      "v": 104
    },
    {
      "midi": 74,
      "hit": false,
      "t": 33608.88700000001,
      "d": 140.9768750000003,
      "v": 108
    },
    {
      "midi": 70,
      "hit": false,
      "t": 33608.88700000001,
      "d": 371.2391041666706,
      "v": 104
    },
    {
      "midi": 67,
      "hit": false,
      "t": 33834.45000000001,
      "d": 150.37533333333704,
      "v": 86
    },
    {
      "midi": 75,
      "hit": false,
      "t": 33834.45000000001,
      "d": 162.1234062500007,
      "v": 95
    },
    {
      "midi": 74,
      "hit": false,
      "t": 34060.01300000001,
      "d": 117.4807291666657,
      "v": 94
    },
    {
      "midi": 70,
      "hit": false,
      "t": 34060.01300000001,
      "d": 140.9768750000003,
      "v": 87
    },
    {
      "midi": 65,
      "hit": false,
      "t": 34060.01300000001,
      "d": 145.67610416666867,
      "v": 86
    },
    {
      "midi": 74,
      "hit": false,
      "t": 34511.13900000002,
      "d": 117.4807291666657,
      "v": 97
    },
    {
      "midi": 70,
      "hit": false,
      "t": 34511.13900000002,
      "d": 126.87918750000244,
      "v": 100
    },
    {
      "midi": 65,
      "hit": false,
      "t": 34511.13900000002,
      "d": 152.72494791667123,
      "v": 108
    },
    {
      "midi": 65,
      "hit": false,
      "t": 34962.26500000002,
      "d": 148.02571875000285,
      "v": 91
    },
    {
      "midi": 74,
      "hit": false,
      "t": 34962.26500000002,
      "d": 155.0745625000054,
      "v": 94
    },
    {
      "midi": 70,
      "hit": false,
      "t": 34962.26500000002,
      "d": 347.742958333336,
      "v": 100
    },
    {
      "midi": 75,
      "hit": false,
      "t": 35187.82800000002,
      "d": 131.57841666667082,
      "v": 95
    },
    {
      "midi": 67,
      "hit": false,
      "t": 35187.82800000002,
      "d": 143.32648958333448,
      "v": 91
    },
    {
      "midi": 75,
      "hit": false,
      "t": 35413.391000000025,
      "d": 126.87918750000244,
      "v": 76
    },
    {
      "midi": 67,
      "hit": false,
      "t": 35413.391000000025,
      "d": 138.6272604166661,
      "v": 79
    },
    {
      "midi": 70,
      "hit": false,
      "t": 35413.391000000025,
      "d": 145.67610416666867,
      "v": 83
    },
    {
      "midi": 65,
      "hit": false,
      "t": 35638.95400000003,
      "d": 115.13111458333151,
      "v": 88
    },
    {
      "midi": 74,
      "hit": false,
      "t": 35638.95400000003,
      "d": 129.22880208332936,
      "v": 101
    },
    {
      "midi": 70,
      "hit": false,
      "t": 35638.95400000003,
      "d": 131.57841666666354,
      "v": 91
    },
    {
      "midi": 65,
      "hit": false,
      "t": 36090.08000000002,
      "d": 145.67610416666867,
      "v": 94
    },
    {
      "midi": 74,
      "hit": false,
      "t": 36090.08000000002,
      "d": 157.42417708333232,
      "v": 113
    },
    {
      "midi": 70,
      "hit": false,
      "t": 36090.08000000002,
      "d": 380.63756250000733,
      "v": 104
    },
    {
      "midi": 75,
      "hit": false,
      "t": 36315.643000000025,
      "d": 143.32648958333448,
      "v": 87
    },
    {
      "midi": 67,
      "hit": false,
      "t": 36315.643000000025,
      "d": 150.37533333333704,
      "v": 88
    },
    {
      "midi": 74,
      "hit": false,
      "t": 36541.20600000003,
      "d": 112.78149999999732,
      "v": 91
    },
    {
      "midi": 65,
      "hit": false,
      "t": 36541.20600000003,
      "d": 124.52957291666098,
      "v": 88
    },
    {
      "midi": 70,
      "hit": false,
      "t": 36541.20600000003,
      "d": 143.3264895833272,
      "v": 87
    },
    {
      "midi": 65,
      "hit": false,
      "t": 37217.89500000002,
      "d": 136.27764583333192,
      "v": 101
    },
    {
      "midi": 74,
      "hit": false,
      "t": 37217.89500000002,
      "d": 164.47302083333489,
      "v": 113
    },
    {
      "midi": 70,
      "hit": false,
      "t": 37217.89500000002,
      "d": 392.3856354166637,
      "v": 100
    },
    {
      "midi": 67,
      "hit": false,
      "t": 37443.45800000002,
      "d": 150.37533333332976,
      "v": 88
    },
    {
      "midi": 75,
      "hit": false,
      "t": 37443.45800000002,
      "d": 164.4730208333276,
      "v": 91
    },
    {
      "midi": 74,
      "hit": false,
      "t": 37669.021000000015,
      "d": 145.67610416666867,
      "v": 91
    },
    {
      "midi": 65,
      "hit": false,
      "t": 37669.021000000015,
      "d": 157.42417708333232,
      "v": 101
    },
    {
      "midi": 70,
      "hit": false,
      "t": 37669.021000000015,
      "d": 169.17224999999598,
      "v": 80
    },
    {
      "midi": 65,
      "hit": false,
      "t": 38120.14700000001,
      "d": 119.83034374999988,
      "v": 101
    },
    {
      "midi": 70,
      "hit": false,
      "t": 38120.14700000001,
      "d": 124.52957291666826,
      "v": 100
    },
    {
      "midi": 74,
      "hit": false,
      "t": 38120.14700000001,
      "d": 145.67610416666867,
      "v": 113
    },
    {
      "midi": 65,
      "hit": false,
      "t": 38571.273000000016,
      "d": 133.92803124999773,
      "v": 91
    },
    {
      "midi": 74,
      "hit": false,
      "t": 38571.273000000016,
      "d": 150.37533333332976,
      "v": 108
    },
    {
      "midi": 70,
      "hit": false,
      "t": 38571.273000000016,
      "d": 305.4498958333279,
      "v": 100
    },
    {
      "midi": 67,
      "hit": false,
      "t": 38796.83600000001,
      "d": 112.78149999999732,
      "v": 81
    },
    {
      "midi": 75,
      "hit": false,
      "t": 38796.83600000001,
      "d": 115.13111458333151,
      "v": 80
    },
    {
      "midi": 75,
      "hit": false,
      "t": 39022.399000000005,
      "d": 129.22880208333663,
      "v": 76
    },
    {
      "midi": 67,
      "hit": false,
      "t": 39022.399000000005,
      "d": 148.02571875000285,
      "v": 81
    },
    {
      "midi": 70,
      "hit": false,
      "t": 39022.399000000005,
      "d": 162.1234062500007,
      "v": 95
    },
    {
      "midi": 70,
      "hit": false,
      "t": 39247.96200000001,
      "d": 119.83034374999988,
      "v": 91
    },
    {
      "midi": 65,
      "hit": false,
      "t": 39247.96200000001,
      "d": 122.17995833333407,
      "v": 101
    },
    {
      "midi": 74,
      "hit": false,
      "t": 39247.96200000001,
      "d": 136.27764583333192,
      "v": 94
    },
    {
      "midi": 69,
      "hit": false,
      "t": 39699.088,
      "d": 119.83034374999988,
      "v": 91
    },
    {
      "midi": 60,
      "hit": false,
      "t": 39699.088,
      "d": 138.6272604166661,
      "v": 104
    },
    {
      "midi": 65,
      "hit": false,
      "t": 39699.088,
      "d": 399.4344791666663,
      "v": 101
    },
    {
      "midi": 70,
      "hit": false,
      "t": 39924.651000000005,
      "d": 157.42417708333232,
      "v": 76
    },
    {
      "midi": 62,
      "hit": false,
      "t": 39924.651000000005,
      "d": 159.7737916666665,
      "v": 73
    },
    {
      "midi": 69,
      "hit": false,
      "t": 40150.214,
      "d": 105.73265625000204,
      "v": 94
    },
    {
      "midi": 65,
      "hit": false,
      "t": 40150.214,
      "d": 117.4807291666657,
      "v": 97
    },
    {
      "midi": 60,
      "hit": false,
      "t": 40150.214,
      "d": 119.83034374999988,
      "v": 117
    },
    {
      "midi": 60,
      "hit": false,
      "t": 40826.903,
      "d": 136.27764583333192,
      "v": 117
    },
    {
      "midi": 69,
      "hit": false,
      "t": 40826.903,
      "d": 166.8226354166618,
      "v": 101
    },
    {
      "midi": 65,
      "hit": false,
      "t": 40826.903,
      "d": 404.1337083333274,
      "v": 113
    },
    {
      "midi": 70,
      "hit": false,
      "t": 41052.46599999999,
      "d": 140.9768750000003,
      "v": 91
    },
    {
      "midi": 62,
      "hit": false,
      "t": 41052.46599999999,
      "d": 173.87147916666436,
      "v": 83
    },
    {
      "midi": 60,
      "hit": false,
      "t": 41278.028999999995,
      "d": 79.88689583333326,
      "v": 117
    },
    {
      "midi": 65,
      "hit": false,
      "t": 41278.028999999995,
      "d": 98.68381249999948,
      "v": 97
    },
    {
      "midi": 69,
      "hit": false,
      "t": 41278.028999999995,
      "d": 98.68381249999948,
      "v": 97
    },
    {
      "midi": 60,
      "hit": false,
      "t": 41729.15499999999,
      "d": 93.9845833333311,
      "v": 122
    },
    {
      "midi": 65,
      "hit": false,
      "t": 41729.15499999999,
      "d": 93.9845833333311,
      "v": 97
    },
    {
      "midi": 69,
      "hit": false,
      "t": 41729.15499999999,
      "d": 103.38304166666785,
      "v": 94
    },
    {
      "midi": 60,
      "hit": false,
      "t": 42180.280999999995,
      "d": 138.6272604166661,
      "v": 127
    },
    {
      "midi": 69,
      "hit": false,
      "t": 42180.280999999995,
      "d": 173.87147916666436,
      "v": 101
    },
    {
      "midi": 65,
      "hit": false,
      "t": 42180.280999999995,
      "d": 373.5887187499975,
      "v": 108
    },
    {
      "midi": 70,
      "hit": false,
      "t": 42405.84399999999,
      "d": 119.83034374999988,
      "v": 95
    },
    {
      "midi": 62,
      "hit": false,
      "t": 42405.84399999999,
      "d": 124.52957291666826,
      "v": 83
    },
    {
      "midi": 70,
      "hit": false,
      "t": 42631.40699999999,
      "d": 169.17225000000326,
      "v": 95
    },
    {
      "midi": 62,
      "hit": false,
      "t": 42631.40699999999,
      "d": 206.7660833333357,
      "v": 88
    },
    {
      "midi": 65,
      "hit": false,
      "t": 42631.40699999999,
      "d": 206.7660833333357,
      "v": 94
    },
    {
      "midi": 65,
      "hit": false,
      "t": 42856.969999999994,
      "d": 82.23651041666744,
      "v": 97
    },
    {
      "midi": 60,
      "hit": false,
      "t": 42856.969999999994,
      "d": 84.58612500000163,
      "v": 108
    },
    {
      "midi": 69,
      "hit": false,
      "t": 42856.969999999994,
      "d": 93.98458333333838,
      "v": 108
    },
    {
      "midi": 60,
      "hit": false,
      "t": 43308.096,
      "d": 140.9768750000003,
      "v": 122
    },
    {
      "midi": 69,
      "hit": false,
      "t": 43308.096,
      "d": 176.22109374999854,
      "v": 104
    },
    {
      "midi": 65,
      "hit": false,
      "t": 43308.096,
      "d": 399.4344791666663,
      "v": 104
    },
    {
      "midi": 70,
      "hit": false,
      "t": 43533.659,
      "d": 136.27764583333192,
      "v": 104
    },
    {
      "midi": 62,
      "hit": false,
      "t": 43533.659,
      "d": 150.37533333332976,
      "v": 86
    },
    {
      "midi": 60,
      "hit": false,
      "t": 43759.221999999994,
      "d": 119.83034374999988,
      "v": 122
    },
    {
      "midi": 69,
      "hit": false,
      "t": 43759.221999999994,
      "d": 129.22880208333663,
      "v": 88
    },
    {
      "midi": 65,
      "hit": false,
      "t": 43759.221999999994,
      "d": 131.57841666667082,
      "v": 94
    },
    {
      "midi": 60,
      "hit": false,
      "t": 44435.911,
      "d": 171.52186458333017,
      "v": 127
    },
    {
      "midi": 69,
      "hit": false,
      "t": 44435.911,
      "d": 183.26993749999383,
      "v": 108
    },
    {
      "midi": 65,
      "hit": false,
      "t": 44435.911,
      "d": 413.5321666666641,
      "v": 117
    },
    {
      "midi": 70,
      "hit": false,
      "t": 44661.473999999995,
      "d": 145.67610416666867,
      "v": 91
    },
    {
      "midi": 62,
      "hit": false,
      "t": 44661.473999999995,
      "d": 162.1234062500007,
      "v": 94
    },
    {
      "midi": 60,
      "hit": false,
      "t": 44887.037,
      "d": 110.43188541666314,
      "v": 108
    },
    {
      "midi": 65,
      "hit": false,
      "t": 44887.037,
      "d": 115.13111458333151,
      "v": 88
    },
    {
      "midi": 69,
      "hit": false,
      "t": 44887.037,
      "d": 122.17995833333407,
      "v": 101
    },
    {
      "midi": 65,
      "hit": false,
      "t": 45338.163,
      "d": 133.92803124999773,
      "v": 104
    },
    {
      "midi": 69,
      "hit": false,
      "t": 45338.163,
      "d": 140.9768750000003,
      "v": 101
    },
    {
      "midi": 60,
      "hit": false,
      "t": 45338.163,
      "d": 169.17225000000326,
      "v": 127
    },
    {
      "midi": 60,
      "hit": false,
      "t": 45789.289000000004,
      "d": 110.43188541666314,
      "v": 113
    },
    {
      "midi": 69,
      "hit": false,
      "t": 45789.289000000004,
      "d": 136.27764583333192,
      "v": 94
    },
    {
      "midi": 65,
      "hit": false,
      "t": 45789.289000000004,
      "d": 373.5887187499975,
      "v": 97
    },
    {
      "midi": 70,
      "hit": false,
      "t": 46014.852000000006,
      "d": 110.43188541666314,
      "v": 100
    },
    {
      "midi": 62,
      "hit": false,
      "t": 46014.852000000006,
      "d": 126.87918749999517,
      "v": 86
    },
    {
      "midi": 62,
      "hit": false,
      "t": 46240.415,
      "d": 138.6272604166661,
      "v": 91
    },
    {
      "midi": 70,
      "hit": false,
      "t": 46240.415,
      "d": 152.72494791666395,
      "v": 80
    },
    {
      "midi": 65,
      "hit": false,
      "t": 46240.415,
      "d": 159.7737916666665,
      "v": 97
    },
    {
      "midi": 60,
      "hit": false,
      "t": 46465.978,
      "d": 70.48843749999651,
      "v": 117
    },
    {
      "midi": 65,
      "hit": false,
      "t": 46465.978,
      "d": 93.9845833333311,
      "v": 104
    },
    {
      "midi": 69,
      "hit": false,
      "t": 46465.978,
      "d": 101.03342708333366,
      "v": 113
    },
    {
      "midi": 65,
      "hit": false,
      "t": 46917.10400000001,
      "d": 119.83034374999988,
      "v": 81
    },
    {
      "midi": 74,
      "hit": false,
      "t": 46917.10400000001,
      "d": 143.32648958333448,
      "v": 97
    },
    {
      "midi": 70,
      "hit": false,
      "t": 46917.10400000001,
      "d": 392.385635416671,
      "v": 95
    },
    {
      "midi": 67,
      "hit": false,
      "t": 47142.66700000001,
      "d": 164.47302083333489,
      "v": 86
    },
    {
      "midi": 75,
      "hit": false,
      "t": 47142.66700000001,
      "d": 164.47302083333489,
      "v": 95
    },
    {
      "midi": 74,
      "hit": false,
      "t": 47368.23000000001,
      "d": 91.63496874999691,
      "v": 91
    },
    {
      "midi": 65,
      "hit": false,
      "t": 47368.23000000001,
      "d": 96.33419791666529,
      "v": 94
    },
    {
      "midi": 70,
      "hit": false,
      "t": 47368.23000000001,
      "d": 110.43188541666314,
      "v": 95
    },
    {
      "midi": 65,
      "hit": false,
      "t": 48044.91900000001,
      "d": 157.42417708333232,
      "v": 101
    },
    {
      "midi": 74,
      "hit": false,
      "t": 48044.91900000001,
      "d": 171.52186458333017,
      "v": 104
    },
    {
      "midi": 70,
      "hit": false,
      "t": 48044.91900000001,
      "d": 335.9948854166578,
      "v": 110
    },
    {
      "midi": 75,
      "hit": false,
      "t": 48270.482,
      "d": 136.27764583333192,
      "v": 100
    },
    {
      "midi": 67,
      "hit": false,
      "t": 48270.482,
      "d": 140.9768750000003,
      "v": 91
    },
    {
      "midi": 65,
      "hit": false,
      "t": 48496.045000000006,
      "d": 77.53728124999907,
      "v": 81
    },
    {
      "midi": 74,
      "hit": false,
      "t": 48496.045000000006,
      "d": 89.28535416666273,
      "v": 101
    },
    {
      "midi": 70,
      "hit": false,
      "t": 48496.045000000006,
      "d": 93.9845833333311,
      "v": 95
    },
    {
      "midi": 65,
      "hit": false,
      "t": 48947.171,
      "d": 79.88689583333326,
      "v": 113
    },
    {
      "midi": 70,
      "hit": false,
      "t": 48947.171,
      "d": 79.88689583333326,
      "v": 104
    },
    {
      "midi": 74,
      "hit": false,
      "t": 48947.171,
      "d": 101.03342708333366,
      "v": 113
    },
    {
      "midi": 65,
      "hit": false,
      "t": 49398.297000000006,
      "d": 171.52186458333017,
      "v": 86
    },
    {
      "midi": 74,
      "hit": false,
      "t": 49398.297000000006,
      "d": 190.3187812499964,
      "v": 94
    },
    {
      "midi": 70,
      "hit": false,
      "t": 49398.297000000006,
      "d": 350.0925729166629,
      "v": 100
    },
    {
      "midi": 75,
      "hit": false,
      "t": 49623.86,
      "d": 105.73265625000204,
      "v": 95
    },
    {
      "midi": 67,
      "hit": false,
      "t": 49623.86,
      "d": 131.57841666667082,
      "v": 86
    },
    {
      "midi": 67,
      "hit": false,
      "t": 49849.423,
      "d": 150.37533333332976,
      "v": 81
    },
    {
      "midi": 75,
      "hit": false,
      "t": 49849.423,
      "d": 155.07456249999814,
      "v": 80
    },
    {
      "midi": 70,
      "hit": false,
      "t": 49849.423,
      "d": 169.17224999999598,
      "v": 76
    },
    {
      "midi": 74,
      "hit": false,
      "t": 50074.986,
      "d": 98.68381249999948,
      "v": 101
    },
    {
      "midi": 70,
      "hit": false,
      "t": 50074.986,
      "d": 101.03342708333366,
      "v": 100
    },
    {
      "midi": 65,
      "hit": false,
      "t": 50074.986,
      "d": 105.73265625000204,
      "v": 97
    },
    {
      "midi": 65,
      "hit": false,
      "t": 50526.112,
      "d": 145.67610416666867,
      "v": 113
    },
    {
      "midi": 74,
      "hit": false,
      "t": 50526.112,
      "d": 185.6195520833353,
      "v": 117
    },
    {
      "midi": 70,
      "hit": false,
      "t": 50526.112,
      "d": 390.0360208333368,
      "v": 110
    },
    {
      "midi": 67,
      "hit": false,
      "t": 50751.675,
      "d": 140.9768750000003,
      "v": 79
    },
    {
      "midi": 75,
      "hit": false,
      "t": 50751.675,
      "d": 155.07456249999814,
      "v": 100
    },
    {
      "midi": 65,
      "hit": false,
      "t": 50977.238000000005,
      "d": 96.33419791666529,
      "v": 104
    },
    {
      "midi": 74,
      "hit": false,
      "t": 50977.238000000005,
      "d": 105.73265625000204,
      "v": 94
    },
    {
      "midi": 70,
      "hit": false,
      "t": 50977.238000000005,
      "d": 119.83034374999988,
      "v": 95
    },
    {
      "midi": 65,
      "hit": false,
      "t": 51653.927,
      "d": 150.37533333332976,
      "v": 113
    },
    {
      "midi": 74,
      "hit": false,
      "t": 51653.927,
      "d": 192.66839583333058,
      "v": 127
    },
    {
      "midi": 70,
      "hit": false,
      "t": 51653.927,
      "d": 361.84064583332656,
      "v": 110
    },
    {
      "midi": 67,
      "hit": false,
      "t": 51879.49,
      "d": 148.02571874999558,
      "v": 88
    },
    {
      "midi": 75,
      "hit": false,
      "t": 51879.49,
      "d": 155.07456249999814,
      "v": 91
    },
    {
      "midi": 74,
      "hit": false,
      "t": 52105.05299999999,
      "d": 129.22880208333663,
      "v": 97
    },
    {
      "midi": 65,
      "hit": false,
      "t": 52105.05299999999,
      "d": 136.2776458333392,
      "v": 97
    },
    {
      "midi": 70,
      "hit": false,
      "t": 52105.05299999999,
      "d": 145.67610416667594,
      "v": 83
    },
    {
      "midi": 74,
      "hit": false,
      "t": 52556.179000000004,
      "d": 108.08227083333622,
      "v": 113
    },
    {
      "midi": 70,
      "hit": false,
      "t": 52556.179000000004,
      "d": 126.87918750000244,
      "v": 104
    },
    {
      "midi": 65,
      "hit": false,
      "t": 52556.179000000004,
      "d": 138.6272604166661,
      "v": 108
    },
    {
      "midi": 70,
      "hit": false,
      "t": 53007.305,
      "d": 145.67610416666867,
      "v": 100
    },
    {
      "midi": 65,
      "hit": false,
      "t": 53007.305,
      "d": 150.37533333333704,
      "v": 88
    },
    {
      "midi": 74,
      "hit": false,
      "t": 53007.305,
      "d": 176.22109375000582,
      "v": 97
    },
    {
      "midi": 67,
      "hit": false,
      "t": 53232.86800000001,
      "d": 108.08227083333622,
      "v": 94
    },
    {
      "midi": 75,
      "hit": false,
      "t": 53232.86800000001,
      "d": 110.43188541667041,
      "v": 104
    },
    {
      "midi": 70,
      "hit": false,
      "t": 53232.86800000001,
      "d": 112.7815000000046,
      "v": 80
    },
    {
      "midi": 75,
      "hit": false,
      "t": 53458.43100000001,
      "d": 108.08227083333622,
      "v": 71
    },
    {
      "midi": 67,
      "hit": false,
      "t": 53458.43100000001,
      "d": 115.13111458333879,
      "v": 70
    },
    {
      "midi": 70,
      "hit": false,
      "t": 53458.43100000001,
      "d": 131.57841666667082,
      "v": 73
    },
    {
      "midi": 65,
      "hit": false,
      "t": 53683.99400000001,
      "d": 140.9768750000003,
      "v": 104
    },
    {
      "midi": 74,
      "hit": false,
      "t": 53683.99400000001,
      "d": 150.37533333333704,
      "v": 108
    },
    {
      "midi": 70,
      "hit": false,
      "t": 53683.99400000001,
      "d": 152.72494791667123,
      "v": 100
    },
    {
      "midi": 36,
      "hit": false,
      "t": 54135.12000000002,
      "d": 3294.1596458333297,
      "v": 127
    },
    {
      "midi": 67,
      "hit": false,
      "t": 54135.12000000002,
      "d": 3303.5581041666665,
      "v": 113
    },
    {
      "midi": 60,
      "hit": false,
      "t": 54135.12000000002,
      "d": 3336.4527083333305,
      "v": 127
    },
    {
      "midi": 63,
      "hit": false,
      "t": 54135.12000000002,
      "d": 3355.2496249999967,
      "v": 110
    },
    {
      "midi": 60,
      "hit": false,
      "t": 57744.12800000001,
      "d": 3277.7123437499977,
      "v": 127
    },
    {
      "midi": 63,
      "hit": false,
      "t": 57744.12800000001,
      "d": 3343.501552083333,
      "v": 95
    },
    {
      "midi": 67,
      "hit": false,
      "t": 57744.12800000001,
      "d": 3406.9411458333343,
      "v": 108
    },
    {
      "midi": 36,
      "hit": false,
      "t": 57744.12800000001,
      "d": 3425.7380625000005,
      "v": 117
    },
    {
      "midi": 55,
      "hit": false,
      "t": 61353.13600000001,
      "d": 3096.7920208333308,
      "v": 101
    },
    {
      "midi": 60,
      "hit": false,
      "t": 61353.13600000001,
      "d": 3244.8177395833336,
      "v": 127
    },
    {
      "midi": 63,
      "hit": false,
      "t": 61353.13600000001,
      "d": 3280.061958333332,
      "v": 91
    },
    {
      "midi": 36,
      "hit": false,
      "t": 61353.13600000001,
      "d": 3442.1853645833326,
      "v": 104
    },
    {
      "midi": 67,
      "hit": false,
      "t": 64962.144000000015,
      "d": 2457.696854166672,
      "v": 104
    },
    {
      "midi": 60,
      "hit": false,
      "t": 64962.144000000015,
      "d": 2483.5426145833335,
      "v": 127
    },
    {
      "midi": 63,
      "hit": false,
      "t": 64962.144000000015,
      "d": 2546.9822083333274,
      "v": 104
    },
    {
      "midi": 36,
      "hit": false,
      "t": 64962.144000000015,
      "d": 2617.470645833324,
      "v": 127
    },
    {
      "midi": 60,
      "hit": false,
      "t": 68571.152,
      "d": 1522.5502500000002,
      "v": 127
    },
    {
      "midi": 57,
      "hit": false,
      "t": 68571.152,
      "d": 1536.6479375000054,
      "v": 101
    },
    {
      "midi": 65,
      "hit": false,
      "t": 68571.152,
      "d": 1546.046395833342,
      "v": 117
    },
    {
      "midi": 41,
      "hit": false,
      "t": 68571.152,
      "d": 1557.794468750013,
      "v": 117
    },
    {
      "midi": 70,
      "hit": false,
      "t": 72180.16000000002,
      "d": 108.08227083332895,
      "v": 110
    },
    {
      "midi": 65,
      "hit": false,
      "t": 72180.16000000002,
      "d": 119.83034374999988,
      "v": 104
    },
    {
      "midi": 74,
      "hit": false,
      "t": 72180.16000000002,
      "d": 136.2776458333392,
      "v": 113
    },
    {
      "midi": 46,
      "hit": false,
      "t": 72180.16000000002,
      "d": 150.37533333334432,
      "v": 110
    },
    {
      "midi": 70,
      "hit": false,
      "t": 72405.72300000003,
      "d": 124.52957291666826,
      "v": 100
    },
    {
      "midi": 65,
      "hit": false,
      "t": 72405.72300000003,
      "d": 131.57841666667082,
      "v": 88
    },
    {
      "midi": 46,
      "hit": false,
      "t": 72405.72300000003,
      "d": 133.928031250005,
      "v": 83
    },
    {
      "midi": 74,
      "hit": false,
      "t": 72405.72300000003,
      "d": 138.62726041667338,
      "v": 104
    },
    {
      "midi": 46,
      "hit": false,
      "t": 72631.28600000004,
      "d": 119.83034374999988,
      "v": 95
    },
    {
      "midi": 70,
      "hit": false,
      "t": 72631.28600000004,
      "d": 124.52957291666826,
      "v": 100
    },
    {
      "midi": 65,
      "hit": false,
      "t": 72631.28600000004,
      "d": 138.62726041667338,
      "v": 86
    },
    {
      "midi": 74,
      "hit": false,
      "t": 72631.28600000004,
      "d": 138.62726041667338,
      "v": 113
    },
    {
      "midi": 74,
      "hit": false,
      "t": 72856.84900000005,
      "d": 385.33679166666116,
      "v": 122
    },
    {
      "midi": 70,
      "hit": false,
      "t": 72856.84900000005,
      "d": 390.03602083332953,
      "v": 110
    },
    {
      "midi": 65,
      "hit": false,
      "t": 72856.84900000005,
      "d": 404.13370833333465,
      "v": 97
    },
    {
      "midi": 46,
      "hit": false,
      "t": 72856.84900000005,
      "d": 850.5604791666701,
      "v": 104
    },
    {
      "midi": 65,
      "hit": false,
      "t": 73307.97500000005,
      "d": 150.37533333332976,
      "v": 94
    },
    {
      "midi": 70,
      "hit": false,
      "t": 73307.97500000005,
      "d": 155.07456249999814,
      "v": 104
    },
    {
      "midi": 70,
      "hit": false,
      "t": 73533.53800000004,
      "d": 169.17225000000326,
      "v": 95
    },
    {
      "midi": 65,
      "hit": false,
      "t": 73533.53800000004,
      "d": 171.52186458333745,
      "v": 81
    },
    {
      "midi": 72,
      "hit": false,
      "t": 73759.10100000005,
      "d": 392.3856354166637,
      "v": 127
    },
    {
      "midi": 65,
      "hit": false,
      "t": 73759.10100000005,
      "d": 406.48332291666884,
      "v": 97
    },
    {
      "midi": 46,
      "hit": false,
      "t": 73759.10100000005,
      "d": 1649.4294375000172,
      "v": 91
    },
    {
      "midi": 70,
      "hit": false,
      "t": 74210.22700000006,
      "d": 380.6375624999928,
      "v": 110
    },
    {
      "midi": 65,
      "hit": false,
      "t": 74210.22700000006,
      "d": 394.7352499999979,
      "v": 94
    },
    {
      "midi": 65,
      "hit": false,
      "t": 74661.35300000006,
      "d": 373.5887187500048,
      "v": 101
    },
    {
      "midi": 72,
      "hit": false,
      "t": 74661.35300000006,
      "d": 390.0360208333441,
      "v": 117
    },
    {
      "midi": 65,
      "hit": false,
      "t": 75112.47900000006,
      "d": 528.6632812500029,
      "v": 97
    },
    {
      "midi": 74,
      "hit": false,
      "t": 75112.47900000006,
      "d": 578.0051875000063,
      "v": 122
    },
    {
      "midi": 69,
      "hit": false,
      "t": 75789.16800000008,
      "d": 131.57841666667082,
      "v": 127
    },
    {
      "midi": 50,
      "hit": false,
      "t": 75789.16800000008,
      "d": 136.2776458333392,
      "v": 127
    },
    {
      "midi": 74,
      "hit": false,
      "t": 75789.16800000008,
      "d": 162.1234062500007,
      "v": 122
    },
    {
      "midi": 50,
      "hit": false,
      "t": 76014.73100000007,
      "d": 117.4807291666657,
      "v": 113
    },
    {
      "midi": 69,
      "hit": false,
      "t": 76014.73100000007,
      "d": 122.17995833333407,
      "v": 108
    },
    {
      "midi": 74,
      "hit": false,
      "t": 76014.73100000007,
      "d": 138.62726041667338,
      "v": 97
    },
    {
      "midi": 50,
      "hit": false,
      "t": 76240.29400000008,
      "d": 105.73265624999476,
      "v": 117
    },
    {
      "midi": 69,
      "hit": false,
      "t": 76240.29400000008,
      "d": 119.83034374999988,
      "v": 113
    },
    {
      "midi": 74,
      "hit": false,
      "t": 76240.29400000008,
      "d": 122.17995833333407,
      "v": 108
    },
    {
      "midi": 69,
      "hit": false,
      "t": 76465.85700000008,
      "d": 352.4421874999971,
      "v": 122
    },
    {
      "midi": 74,
      "hit": false,
      "t": 76465.85700000008,
      "d": 359.49103124999965,
      "v": 122
    },
    {
      "midi": 50,
      "hit": false,
      "t": 76465.85700000008,
      "d": 2680.9102395833324,
      "v": 117
    },
    {
      "midi": 75,
      "hit": false,
      "t": 76916.98300000008,
      "d": 317.19796874999884,
      "v": 95
    },
    {
      "midi": 69,
      "hit": false,
      "t": 76916.98300000008,
      "d": 338.34449999999197,
      "v": 122
    },
    {
      "midi": 69,
      "hit": false,
      "t": 77368.10900000007,
      "d": 397.0848645833321,
      "v": 113
    },
    {
      "midi": 74,
      "hit": false,
      "t": 77368.10900000007,
      "d": 415.8817812500056,
      "v": 117
    },
    {
      "midi": 65,
      "hit": false,
      "t": 77819.23500000007,
      "d": 382.98717708332697,
      "v": 113
    },
    {
      "midi": 69,
      "hit": false,
      "t": 77819.23500000007,
      "d": 390.03602083332953,
      "v": 127
    },
    {
      "midi": 74,
      "hit": false,
      "t": 78270.36100000006,
      "d": 352.4421874999971,
      "v": 113
    },
    {
      "midi": 69,
      "hit": false,
      "t": 78270.36100000006,
      "d": 368.8894895833364,
      "v": 113
    },
    {
      "midi": 69,
      "hit": false,
      "t": 78721.48700000007,
      "d": 364.190260416668,
      "v": 127
    },
    {
      "midi": 72,
      "hit": false,
      "t": 78721.48700000007,
      "d": 371.2391041666706,
      "v": 127
    },
    {
      "midi": 72,
      "hit": false,
      "t": 79172.61300000007,
      "d": 425.2802395833278,
      "v": 127
    },
    {
      "midi": 55,
      "hit": false,
      "t": 79398.17600000006,
      "d": 3320.0054062499985,
      "v": 122
    },
    {
      "midi": 70,
      "hit": false,
      "t": 79623.73900000006,
      "d": 202.06685416666733,
      "v": 104
    },
    {
      "midi": 69,
      "hit": false,
      "t": 79849.30200000005,
      "d": 164.47302083333489,
      "v": 101
    },
    {
      "midi": 70,
      "hit": false,
      "t": 80074.86500000005,
      "d": 368.8894895833364,
      "v": 104
    },
    {
      "midi": 67,
      "hit": false,
      "t": 80074.86500000005,
      "d": 378.28794791667315,
      "v": 127
    },
    {
      "midi": 70,
      "hit": false,
      "t": 80525.99100000005,
      "d": 375.93833333333896,
      "v": 87
    },
    {
      "midi": 67,
      "hit": false,
      "t": 80525.99100000005,
      "d": 392.38563541667827,
      "v": 113
    },
    {
      "midi": 70,
      "hit": false,
      "t": 80977.11700000007,
      "d": 392.3856354166637,
      "v": 104
    },
    {
      "midi": 67,
      "hit": false,
      "t": 80977.11700000007,
      "d": 397.0848645833321,
      "v": 127
    },
    {
      "midi": 67,
      "hit": false,
      "t": 81428.24300000007,
      "d": 183.26993749999383,
      "v": 108
    },
    {
      "midi": 70,
      "hit": false,
      "t": 81428.24300000007,
      "d": 183.26993749999383,
      "v": 91
    },
    {
      "midi": 70,
      "hit": false,
      "t": 81653.80600000007,
      "d": 361.84064583333384,
      "v": 100
    },
    {
      "midi": 67,
      "hit": false,
      "t": 81653.80600000007,
      "d": 382.98717708332697,
      "v": 122
    },
    {
      "midi": 70,
      "hit": false,
      "t": 82104.93200000006,
      "d": 387.68640624999534,
      "v": 104
    },
    {
      "midi": 67,
      "hit": false,
      "t": 82104.93200000006,
      "d": 397.0848645833321,
      "v": 127
    },
    {
      "midi": 67,
      "hit": false,
      "t": 82556.05800000006,
      "d": 206.7660833333357,
      "v": 127
    },
    {
      "midi": 70,
      "hit": false,
      "t": 82556.05800000006,
      "d": 209.1156979166699,
      "v": 104
    },
    {
      "midi": 60,
      "hit": false,
      "t": 83007.18400000007,
      "d": 411.1825520833372,
      "v": 127
    },
    {
      "midi": 70,
      "hit": false,
      "t": 83007.18400000007,
      "d": 434.67869791666453,
      "v": 110
    },
    {
      "midi": 74,
      "hit": false,
      "t": 83007.18400000007,
      "d": 476.97176041666535,
      "v": 122
    },
    {
      "midi": 75,
      "hit": false,
      "t": 83458.31000000007,
      "d": 392.3856354166637,
      "v": 104
    },
    {
      "midi": 60,
      "hit": false,
      "t": 83458.31000000007,
      "d": 1148.9615312499955,
      "v": 127
    },
    {
      "midi": 72,
      "hit": false,
      "t": 83909.43600000007,
      "d": 265.5064479166613,
      "v": 108
    },
    {
      "midi": 70,
      "hit": false,
      "t": 84134.99900000007,
      "d": 404.13370833333465,
      "v": 104
    },
    {
      "midi": 74,
      "hit": false,
      "t": 84811.68800000007,
      "d": 824.7147187499941,
      "v": 117
    },
    {
      "midi": 70,
      "hit": false,
      "t": 84811.68800000007,
      "d": 843.5116354166676,
      "v": 104
    },
    {
      "midi": 65,
      "hit": false,
      "t": 84811.68800000007,
      "d": 845.8612500000017,
      "v": 108
    },
    {
      "midi": 69,
      "hit": false,
      "t": 85713.94000000008,
      "d": 763.6247395833343,
      "v": 127
    },
    {
      "midi": 65,
      "hit": false,
      "t": 85713.94000000008,
      "d": 770.6735833333369,
      "v": 91
    },
    {
      "midi": 72,
      "hit": false,
      "t": 85713.94000000008,
      "d": 770.6735833333369,
      "v": 113
    },
    {
      "midi": 70,
      "hit": false,
      "t": 86616.19200000008,
      "d": 108.08227083332895,
      "v": 110
    },
    {
      "midi": 65,
      "hit": false,
      "t": 86616.19200000008,
      "d": 119.83034374999988,
      "v": 104
    },
    {
      "midi": 74,
      "hit": false,
      "t": 86616.19200000008,
      "d": 136.2776458333392,
      "v": 113
    },
    {
      "midi": 46,
      "hit": false,
      "t": 86616.19200000008,
      "d": 150.37533333334432,
      "v": 110
    },
    {
      "midi": 70,
      "hit": false,
      "t": 86841.75500000009,
      "d": 124.52957291666826,
      "v": 100
    },
    {
      "midi": 65,
      "hit": false,
      "t": 86841.75500000009,
      "d": 131.57841666667082,
      "v": 88
    },
    {
      "midi": 46,
      "hit": false,
      "t": 86841.75500000009,
      "d": 133.928031250005,
      "v": 83
    },
    {
      "midi": 74,
      "hit": false,
      "t": 86841.75500000009,
      "d": 138.62726041667338,
      "v": 104
    },
    {
      "midi": 46,
      "hit": false,
      "t": 87067.3180000001,
      "d": 119.83034374999988,
      "v": 95
    },
    {
      "midi": 70,
      "hit": false,
      "t": 87067.3180000001,
      "d": 124.52957291666826,
      "v": 100
    },
    {
      "midi": 65,
      "hit": false,
      "t": 87067.3180000001,
      "d": 138.62726041667338,
      "v": 86
    },
    {
      "midi": 74,
      "hit": false,
      "t": 87067.3180000001,
      "d": 138.62726041667338,
      "v": 113
    },
    {
      "midi": 74,
      "hit": false,
      "t": 87292.88100000011,
      "d": 385.33679166666116,
      "v": 122
    },
    {
      "midi": 70,
      "hit": false,
      "t": 87292.88100000011,
      "d": 390.03602083332953,
      "v": 110
    },
    {
      "midi": 65,
      "hit": false,
      "t": 87292.88100000011,
      "d": 404.13370833333465,
      "v": 97
    },
    {
      "midi": 46,
      "hit": false,
      "t": 87292.88100000011,
      "d": 850.5604791666701,
      "v": 104
    },
    {
      "midi": 65,
      "hit": false,
      "t": 87744.00700000011,
      "d": 150.37533333332976,
      "v": 94
    },
    {
      "midi": 70,
      "hit": false,
      "t": 87744.00700000011,
      "d": 155.07456249999814,
      "v": 104
    },
    {
      "midi": 70,
      "hit": false,
      "t": 87969.57000000011,
      "d": 169.17225000000326,
      "v": 95
    },
    {
      "midi": 65,
      "hit": false,
      "t": 87969.57000000011,
      "d": 171.52186458333745,
      "v": 81
    },
    {
      "midi": 72,
      "hit": false,
      "t": 88195.13300000012,
      "d": 392.3856354166637,
      "v": 127
    },
    {
      "midi": 65,
      "hit": false,
      "t": 88195.13300000012,
      "d": 406.48332291666884,
      "v": 97
    },
    {
      "midi": 46,
      "hit": false,
      "t": 88195.13300000012,
      "d": 1649.4294375000172,
      "v": 91
    },
    {
      "midi": 70,
      "hit": false,
      "t": 88646.25900000012,
      "d": 380.6375624999928,
      "v": 110
    },
    {
      "midi": 65,
      "hit": false,
      "t": 88646.25900000012,
      "d": 394.7352499999979,
      "v": 94
    },
    {
      "midi": 65,
      "hit": false,
      "t": 89097.38500000013,
      "d": 373.5887187500048,
      "v": 101
    },
    {
      "midi": 72,
      "hit": false,
      "t": 89097.38500000013,
      "d": 390.0360208333441,
      "v": 117
    },
    {
      "midi": 65,
      "hit": false,
      "t": 89548.51100000013,
      "d": 528.6632812500029,
      "v": 97
    },
    {
      "midi": 74,
      "hit": false,
      "t": 89548.51100000013,
      "d": 578.0051875000063,
      "v": 122
    },
    {
      "midi": 69,
      "hit": false,
      "t": 90225.20000000014,
      "d": 131.57841666667082,
      "v": 127
    },
    {
      "midi": 50,
      "hit": false,
      "t": 90225.20000000014,
      "d": 136.2776458333392,
      "v": 127
    },
    {
      "midi": 74,
      "hit": false,
      "t": 90225.20000000014,
      "d": 162.1234062500007,
      "v": 122
    },
    {
      "midi": 50,
      "hit": false,
      "t": 90450.76300000014,
      "d": 117.4807291666657,
      "v": 113
    },
    {
      "midi": 69,
      "hit": false,
      "t": 90450.76300000014,
      "d": 122.17995833333407,
      "v": 108
    },
    {
      "midi": 74,
      "hit": false,
      "t": 90450.76300000014,
      "d": 138.62726041667338,
      "v": 97
    },
    {
      "midi": 50,
      "hit": false,
      "t": 90676.32600000015,
      "d": 105.73265624999476,
      "v": 117
    },
    {
      "midi": 69,
      "hit": false,
      "t": 90676.32600000015,
      "d": 119.83034374999988,
      "v": 113
    },
    {
      "midi": 74,
      "hit": false,
      "t": 90676.32600000015,
      "d": 122.17995833333407,
      "v": 108
    },
    {
      "midi": 69,
      "hit": false,
      "t": 90901.88900000014,
      "d": 352.4421874999971,
      "v": 122
    },
    {
      "midi": 74,
      "hit": false,
      "t": 90901.88900000014,
      "d": 359.49103124999965,
      "v": 122
    },
    {
      "midi": 50,
      "hit": false,
      "t": 90901.88900000014,
      "d": 2680.9102395833324,
      "v": 117
    },
    {
      "midi": 75,
      "hit": false,
      "t": 91353.01500000014,
      "d": 317.19796874999884,
      "v": 95
    },
    {
      "midi": 69,
      "hit": false,
      "t": 91353.01500000014,
      "d": 338.34449999999197,
      "v": 122
    },
    {
      "midi": 69,
      "hit": false,
      "t": 91804.14100000013,
      "d": 397.0848645833321,
      "v": 113
    },
    {
      "midi": 74,
      "hit": false,
      "t": 91804.14100000013,
      "d": 415.8817812500056,
      "v": 117
    },
    {
      "midi": 65,
      "hit": false,
      "t": 92255.26700000014,
      "d": 382.98717708332697,
      "v": 113
    },
    {
      "midi": 69,
      "hit": false,
      "t": 92255.26700000014,
      "d": 390.03602083332953,
      "v": 127
    },
    {
      "midi": 74,
      "hit": false,
      "t": 92706.39300000013,
      "d": 352.4421874999971,
      "v": 113
    },
    {
      "midi": 69,
      "hit": false,
      "t": 92706.39300000013,
      "d": 368.8894895833364,
      "v": 113
    },
    {
      "midi": 69,
      "hit": false,
      "t": 93157.51900000013,
      "d": 364.190260416668,
      "v": 127
    },
    {
      "midi": 72,
      "hit": false,
      "t": 93157.51900000013,
      "d": 371.2391041666706,
      "v": 127
    },
    {
      "midi": 72,
      "hit": false,
      "t": 93608.64500000014,
      "d": 425.2802395833278,
      "v": 127
    },
    {
      "midi": 55,
      "hit": false,
      "t": 93834.20800000013,
      "d": 3320.0054062499985,
      "v": 122
    },
    {
      "midi": 70,
      "hit": false,
      "t": 94059.77100000012,
      "d": 202.06685416666733,
      "v": 104
    },
    {
      "midi": 69,
      "hit": false,
      "t": 94285.33400000012,
      "d": 164.47302083333489,
      "v": 101
    },
    {
      "midi": 70,
      "hit": false,
      "t": 94510.89700000011,
      "d": 368.8894895833364,
      "v": 104
    },
    {
      "midi": 67,
      "hit": false,
      "t": 94510.89700000011,
      "d": 378.28794791667315,
      "v": 127
    },
    {
      "midi": 70,
      "hit": false,
      "t": 94962.02300000012,
      "d": 375.93833333333896,
      "v": 87
    },
    {
      "midi": 67,
      "hit": false,
      "t": 94962.02300000012,
      "d": 392.38563541667827,
      "v": 113
    },
    {
      "midi": 70,
      "hit": false,
      "t": 95413.14900000014,
      "d": 392.3856354166637,
      "v": 104
    },
    {
      "midi": 67,
      "hit": false,
      "t": 95413.14900000014,
      "d": 397.0848645833321,
      "v": 127
    },
    {
      "midi": 67,
      "hit": false,
      "t": 95864.27500000014,
      "d": 183.26993749999383,
      "v": 108
    },
    {
      "midi": 70,
      "hit": false,
      "t": 95864.27500000014,
      "d": 183.26993749999383,
      "v": 91
    },
    {
      "midi": 70,
      "hit": false,
      "t": 96089.83800000013,
      "d": 361.84064583333384,
      "v": 100
    },
    {
      "midi": 67,
      "hit": false,
      "t": 96089.83800000013,
      "d": 382.98717708332697,
      "v": 122
    },
    {
      "midi": 70,
      "hit": false,
      "t": 96540.96400000012,
      "d": 387.68640624999534,
      "v": 104
    },
    {
      "midi": 67,
      "hit": false,
      "t": 96540.96400000012,
      "d": 397.0848645833321,
      "v": 127
    },
    {
      "midi": 67,
      "hit": false,
      "t": 96992.09000000013,
      "d": 206.7660833333357,
      "v": 127
    },
    {
      "midi": 70,
      "hit": false,
      "t": 96992.09000000013,
      "d": 209.1156979166699,
      "v": 104
    },
    {
      "midi": 60,
      "hit": false,
      "t": 97443.21600000013,
      "d": 411.1825520833372,
      "v": 127
    },
    {
      "midi": 70,
      "hit": false,
      "t": 97443.21600000013,
      "d": 434.67869791666453,
      "v": 110
    },
    {
      "midi": 74,
      "hit": false,
      "t": 97443.21600000013,
      "d": 476.97176041666535,
      "v": 122
    },
    {
      "midi": 75,
      "hit": false,
      "t": 97894.34200000014,
      "d": 392.3856354166637,
      "v": 104
    },
    {
      "midi": 60,
      "hit": false,
      "t": 97894.34200000014,
      "d": 1148.9615312499955,
      "v": 127
    },
    {
      "midi": 72,
      "hit": false,
      "t": 98345.46800000014,
      "d": 265.5064479166613,
      "v": 108
    },
    {
      "midi": 70,
      "hit": false,
      "t": 98571.03100000013,
      "d": 404.13370833333465,
      "v": 104
    },
    {
      "midi": 74,
      "hit": false,
      "t": 99247.72000000013,
      "d": 824.7147187499941,
      "v": 117
    },
    {
      "midi": 70,
      "hit": false,
      "t": 99247.72000000013,
      "d": 843.5116354166676,
      "v": 104
    },
    {
      "midi": 65,
      "hit": false,
      "t": 99247.72000000013,
      "d": 845.8612500000017,
      "v": 108
    },
    {
      "midi": 69,
      "hit": false,
      "t": 100149.97200000014,
      "d": 763.6247395833343,
      "v": 127
    },
    {
      "midi": 65,
      "hit": false,
      "t": 100149.97200000014,
      "d": 770.6735833333369,
      "v": 91
    },
    {
      "midi": 72,
      "hit": false,
      "t": 100149.97200000014,
      "d": 770.6735833333369,
      "v": 113
    },
    {
      "midi": 60,
      "hit": false,
      "t": 101052.22400000015,
      "d": 115.13111458333151,
      "v": 127
    },
    {
      "midi": 69,
      "hit": false,
      "t": 101052.22400000015,
      "d": 136.27764583332464,
      "v": 108
    },
    {
      "midi": 65,
      "hit": false,
      "t": 101052.22400000015,
      "d": 380.6375624999928,
      "v": 113
    },
    {
      "midi": 70,
      "hit": false,
      "t": 101277.78700000014,
      "d": 155.07456249999814,
      "v": 95
    },
    {
      "midi": 62,
      "hit": false,
      "t": 101277.78700000014,
      "d": 171.52186458333745,
      "v": 77
    },
    {
      "midi": 60,
      "hit": false,
      "t": 101503.35000000015,
      "d": 112.78149999999732,
      "v": 122
    },
    {
      "midi": 65,
      "hit": false,
      "t": 101503.35000000015,
      "d": 117.4807291666657,
      "v": 117
    },
    {
      "midi": 69,
      "hit": false,
      "t": 101503.35000000015,
      "d": 129.22880208333663,
      "v": 113
    },
    {
      "midi": 69,
      "hit": false,
      "t": 102180.03900000015,
      "d": 140.97687499999302,
      "v": 104
    },
    {
      "midi": 60,
      "hit": false,
      "t": 102180.03900000015,
      "d": 148.02571874999558,
      "v": 127
    },
    {
      "midi": 65,
      "hit": false,
      "t": 102180.03900000015,
      "d": 385.33679166666116,
      "v": 113
    },
    {
      "midi": 70,
      "hit": false,
      "t": 102405.60200000014,
      "d": 143.3264895833272,
      "v": 87
    },
    {
      "midi": 62,
      "hit": false,
      "t": 102405.60200000014,
      "d": 155.07456249999814,
      "v": 86
    },
    {
      "midi": 60,
      "hit": false,
      "t": 102631.16500000014,
      "d": 110.43188541666314,
      "v": 127
    },
    {
      "midi": 65,
      "hit": false,
      "t": 102631.16500000014,
      "d": 117.4807291666657,
      "v": 104
    },
    {
      "midi": 69,
      "hit": false,
      "t": 102631.16500000014,
      "d": 133.928031250005,
      "v": 94
    },
    {
      "midi": 65,
      "hit": false,
      "t": 103082.29100000014,
      "d": 79.88689583333326,
      "v": 97
    },
    {
      "midi": 69,
      "hit": false,
      "t": 103082.29100000014,
      "d": 91.63496875000419,
      "v": 97
    },
    {
      "midi": 60,
      "hit": false,
      "t": 103082.29100000014,
      "d": 98.68381250000675,
      "v": 117
    },
    {
      "midi": 60,
      "hit": false,
      "t": 103533.41700000015,
      "d": 124.52957291666826,
      "v": 127
    },
    {
      "midi": 69,
      "hit": false,
      "t": 103533.41700000015,
      "d": 159.7737916666665,
      "v": 104
    },
    {
      "midi": 65,
      "hit": false,
      "t": 103533.41700000015,
      "d": 368.8894895833364,
      "v": 117
    },
    {
      "midi": 62,
      "hit": false,
      "t": 103758.98000000014,
      "d": 131.57841666667082,
      "v": 91
    },
    {
      "midi": 70,
      "hit": false,
      "t": 103758.98000000014,
      "d": 131.57841666667082,
      "v": 95
    },
    {
      "midi": 70,
      "hit": false,
      "t": 103984.54300000015,
      "d": 138.62726041667338,
      "v": 91
    },
    {
      "midi": 62,
      "hit": false,
      "t": 103984.54300000015,
      "d": 162.1234062500007,
      "v": 88
    },
    {
      "midi": 65,
      "hit": false,
      "t": 103984.54300000015,
      "d": 180.9203229166742,
      "v": 97
    },
    {
      "midi": 65,
      "hit": false,
      "t": 104210.10600000016,
      "d": 91.63496875000419,
      "v": 101
    },
    {
      "midi": 60,
      "hit": false,
      "t": 104210.10600000016,
      "d": 98.68381250000675,
      "v": 127
    },
    {
      "midi": 69,
      "hit": false,
      "t": 104210.10600000016,
      "d": 108.0822708333435,
      "v": 97
    },
    {
      "midi": 60,
      "hit": false,
      "t": 104661.23200000016,
      "d": 169.17225000000326,
      "v": 127
    },
    {
      "midi": 69,
      "hit": false,
      "t": 104661.23200000016,
      "d": 176.22109375000582,
      "v": 108
    },
    {
      "midi": 65,
      "hit": false,
      "t": 104661.23200000016,
      "d": 392.38563541667827,
      "v": 113
    },
    {
      "midi": 70,
      "hit": false,
      "t": 104886.79500000017,
      "d": 145.6761041666614,
      "v": 71
    },
    {
      "midi": 62,
      "hit": false,
      "t": 104886.79500000017,
      "d": 152.72494791666395,
      "v": 81
    },
    {
      "midi": 60,
      "hit": false,
      "t": 105112.35800000018,
      "d": 133.928031250005,
      "v": 113
    },
    {
      "midi": 65,
      "hit": false,
      "t": 105112.35800000018,
      "d": 136.2776458333392,
      "v": 101
    },
    {
      "midi": 69,
      "hit": false,
      "t": 105112.35800000018,
      "d": 136.2776458333392,
      "v": 113
    },
    {
      "midi": 60,
      "hit": false,
      "t": 105789.0470000002,
      "d": 185.61955208332802,
      "v": 122
    },
    {
      "midi": 69,
      "hit": false,
      "t": 105789.0470000002,
      "d": 185.61955208332802,
      "v": 101
    },
    {
      "midi": 65,
      "hit": false,
      "t": 105789.0470000002,
      "d": 392.3856354166637,
      "v": 108
    },
    {
      "midi": 70,
      "hit": false,
      "t": 106014.61000000019,
      "d": 126.87918750000244,
      "v": 87
    },
    {
      "midi": 62,
      "hit": false,
      "t": 106014.61000000019,
      "d": 131.57841666667082,
      "v": 81
    },
    {
      "midi": 60,
      "hit": false,
      "t": 106240.1730000002,
      "d": 124.52957291666826,
      "v": 122
    },
    {
      "midi": 69,
      "hit": false,
      "t": 106240.1730000002,
      "d": 129.22880208333663,
      "v": 108
    },
    {
      "midi": 65,
      "hit": false,
      "t": 106240.1730000002,
      "d": 136.2776458333392,
      "v": 97
    },
    {
      "midi": 60,
      "hit": false,
      "t": 106691.2990000002,
      "d": 152.72494791666395,
      "v": 127
    },
    {
      "midi": 65,
      "hit": false,
      "t": 106691.2990000002,
      "d": 155.07456249999814,
      "v": 94
    },
    {
      "midi": 69,
      "hit": false,
      "t": 106691.2990000002,
      "d": 157.42417708333232,
      "v": 94
    },
    {
      "midi": 60,
      "hit": false,
      "t": 107142.4250000002,
      "d": 155.07456249999814,
      "v": 127
    },
    {
      "midi": 69,
      "hit": false,
      "t": 107142.4250000002,
      "d": 176.22109374999127,
      "v": 97
    },
    {
      "midi": 65,
      "hit": false,
      "t": 107142.4250000002,
      "d": 366.5398750000022,
      "v": 108
    },
    {
      "midi": 70,
      "hit": false,
      "t": 107367.9880000002,
      "d": 133.928031250005,
      "v": 91
    },
    {
      "midi": 62,
      "hit": false,
      "t": 107367.9880000002,
      "d": 143.32648958334175,
      "v": 81
    },
    {
      "midi": 70,
      "hit": false,
      "t": 107593.55100000021,
      "d": 131.57841666667082,
      "v": 71
    },
    {
      "midi": 62,
      "hit": false,
      "t": 107593.55100000021,
      "d": 138.62726041667338,
      "v": 83
    },
    {
      "midi": 65,
      "hit": false,
      "t": 107593.55100000021,
      "d": 148.02571875001013,
      "v": 88
    },
    {
      "midi": 60,
      "hit": false,
      "t": 107819.11400000022,
      "d": 77.53728124999907,
      "v": 127
    },
    {
      "midi": 69,
      "hit": false,
      "t": 107819.11400000022,
      "d": 105.73265624999476,
      "v": 94
    },
    {
      "midi": 65,
      "hit": false,
      "t": 107819.11400000022,
      "d": 110.43188541666314,
      "v": 101
    },
    {
      "midi": 65,
      "hit": false,
      "t": 108270.24000000021,
      "d": 145.6761041666614,
      "v": 79
    },
    {
      "midi": 74,
      "hit": false,
      "t": 108270.24000000021,
      "d": 145.6761041666614,
      "v": 101
    },
    {
      "midi": 70,
      "hit": false,
      "t": 108270.24000000021,
      "d": 312.49873958333046,
      "v": 87
    },
    {
      "midi": 75,
      "hit": false,
      "t": 108495.8030000002,
      "d": 93.98458333333838,
      "v": 65
    },
    {
      "midi": 65,
      "hit": false,
      "t": 108721.36600000021,
      "d": 138.62726041667338,
      "v": 101
    },
    {
      "midi": 74,
      "hit": false,
      "t": 108721.36600000021,
      "d": 148.02571875001013,
      "v": 97
    },
    {
      "midi": 70,
      "hit": false,
      "t": 108721.36600000021,
      "d": 162.12340625001525,
      "v": 91
    },
    {
      "midi": 65,
      "hit": false,
      "t": 109398.05500000023,
      "d": 119.83034374999988,
      "v": 104
    },
    {
      "midi": 74,
      "hit": false,
      "t": 109398.05500000023,
      "d": 140.97687499999302,
      "v": 108
    },
    {
      "midi": 70,
      "hit": false,
      "t": 109398.05500000023,
      "d": 371.23910416665603,
      "v": 104
    },
    {
      "midi": 67,
      "hit": false,
      "t": 109623.61800000022,
      "d": 150.37533333332976,
      "v": 86
    },
    {
      "midi": 75,
      "hit": false,
      "t": 109623.61800000022,
      "d": 162.1234062500007,
      "v": 95
    },
    {
      "midi": 74,
      "hit": false,
      "t": 109849.18100000022,
      "d": 117.4807291666657,
      "v": 94
    },
    {
      "midi": 70,
      "hit": false,
      "t": 109849.18100000022,
      "d": 140.97687499999302,
      "v": 87
    },
    {
      "midi": 65,
      "hit": false,
      "t": 109849.18100000022,
      "d": 145.6761041666614,
      "v": 86
    },
    {
      "midi": 74,
      "hit": false,
      "t": 110300.3070000002,
      "d": 117.4807291666657,
      "v": 97
    },
    {
      "midi": 70,
      "hit": false,
      "t": 110300.3070000002,
      "d": 126.87918750000244,
      "v": 100
    },
    {
      "midi": 65,
      "hit": false,
      "t": 110300.3070000002,
      "d": 152.72494791666395,
      "v": 108
    },
    {
      "midi": 65,
      "hit": false,
      "t": 110751.43300000021,
      "d": 148.02571874999558,
      "v": 91
    },
    {
      "midi": 74,
      "hit": false,
      "t": 110751.43300000021,
      "d": 155.07456249999814,
      "v": 94
    },
    {
      "midi": 70,
      "hit": false,
      "t": 110751.43300000021,
      "d": 347.7429583333287,
      "v": 100
    },
    {
      "midi": 75,
      "hit": false,
      "t": 110976.9960000002,
      "d": 131.57841666667082,
      "v": 95
    },
    {
      "midi": 67,
      "hit": false,
      "t": 110976.9960000002,
      "d": 143.32648958334175,
      "v": 91
    },
    {
      "midi": 75,
      "hit": false,
      "t": 111202.55900000021,
      "d": 126.87918750000244,
      "v": 76
    },
    {
      "midi": 67,
      "hit": false,
      "t": 111202.55900000021,
      "d": 138.62726041667338,
      "v": 79
    },
    {
      "midi": 70,
      "hit": false,
      "t": 111202.55900000021,
      "d": 145.67610416667594,
      "v": 83
    },
    {
      "midi": 65,
      "hit": false,
      "t": 111428.12200000022,
      "d": 115.13111458333151,
      "v": 88
    },
    {
      "midi": 74,
      "hit": false,
      "t": 111428.12200000022,
      "d": 129.22880208333663,
      "v": 101
    },
    {
      "midi": 70,
      "hit": false,
      "t": 111428.12200000022,
      "d": 131.57841666667082,
      "v": 91
    },
    {
      "midi": 65,
      "hit": false,
      "t": 111879.24800000023,
      "d": 145.6761041666614,
      "v": 94
    },
    {
      "midi": 74,
      "hit": false,
      "t": 111879.24800000023,
      "d": 157.42417708333232,
      "v": 113
    },
    {
      "midi": 70,
      "hit": false,
      "t": 111879.24800000023,
      "d": 380.6375624999928,
      "v": 104
    },
    {
      "midi": 75,
      "hit": false,
      "t": 112104.81100000022,
      "d": 143.3264895833272,
      "v": 87
    },
    {
      "midi": 67,
      "hit": false,
      "t": 112104.81100000022,
      "d": 150.37533333332976,
      "v": 88
    },
    {
      "midi": 74,
      "hit": false,
      "t": 112330.37400000021,
      "d": 112.78149999999732,
      "v": 91
    },
    {
      "midi": 65,
      "hit": false,
      "t": 112330.37400000021,
      "d": 124.52957291666826,
      "v": 88
    },
    {
      "midi": 70,
      "hit": false,
      "t": 112330.37400000021,
      "d": 143.32648958334175,
      "v": 87
    },
    {
      "midi": 65,
      "hit": false,
      "t": 113007.06300000023,
      "d": 136.2776458333392,
      "v": 101
    },
    {
      "midi": 74,
      "hit": false,
      "t": 113007.06300000023,
      "d": 164.47302083333489,
      "v": 113
    },
    {
      "midi": 70,
      "hit": false,
      "t": 113007.06300000023,
      "d": 392.3856354166637,
      "v": 100
    },
    {
      "midi": 67,
      "hit": false,
      "t": 113232.62600000022,
      "d": 150.37533333332976,
      "v": 88
    },
    {
      "midi": 75,
      "hit": false,
      "t": 113232.62600000022,
      "d": 164.47302083333489,
      "v": 91
    },
    {
      "midi": 74,
      "hit": false,
      "t": 113458.18900000023,
      "d": 145.6761041666614,
      "v": 91
    },
    {
      "midi": 65,
      "hit": false,
      "t": 113458.18900000023,
      "d": 157.42417708333232,
      "v": 101
    },
    {
      "midi": 70,
      "hit": false,
      "t": 113458.18900000023,
      "d": 169.17225000000326,
      "v": 80
    },
    {
      "midi": 65,
      "hit": false,
      "t": 113909.31500000024,
      "d": 119.83034374999988,
      "v": 101
    },
    {
      "midi": 70,
      "hit": false,
      "t": 113909.31500000024,
      "d": 124.52957291666826,
      "v": 100
    },
    {
      "midi": 74,
      "hit": false,
      "t": 113909.31500000024,
      "d": 145.6761041666614,
      "v": 113
    },
    {
      "midi": 65,
      "hit": false,
      "t": 114360.44100000022,
      "d": 133.928031250005,
      "v": 91
    },
    {
      "midi": 74,
      "hit": false,
      "t": 114360.44100000022,
      "d": 150.37533333334432,
      "v": 108
    },
    {
      "midi": 70,
      "hit": false,
      "t": 114360.44100000022,
      "d": 305.44989583334245,
      "v": 100
    },
    {
      "midi": 67,
      "hit": false,
      "t": 114586.00400000023,
      "d": 112.78149999999732,
      "v": 81
    },
    {
      "midi": 75,
      "hit": false,
      "t": 114586.00400000023,
      "d": 115.13111458333151,
      "v": 80
    },
    {
      "midi": 75,
      "hit": false,
      "t": 114811.56700000023,
      "d": 129.22880208333663,
      "v": 76
    },
    {
      "midi": 67,
      "hit": false,
      "t": 114811.56700000023,
      "d": 148.02571875001013,
      "v": 81
    },
    {
      "midi": 70,
      "hit": false,
      "t": 114811.56700000023,
      "d": 162.12340625001525,
      "v": 95
    },
    {
      "midi": 70,
      "hit": false,
      "t": 115037.13000000024,
      "d": 119.83034374999988,
      "v": 91
    },
    {
      "midi": 65,
      "hit": false,
      "t": 115037.13000000024,
      "d": 122.17995833333407,
      "v": 101
    },
    {
      "midi": 74,
      "hit": false,
      "t": 115037.13000000024,
      "d": 136.2776458333392,
      "v": 94
    },
    {
      "midi": 69,
      "hit": false,
      "t": 115488.25600000024,
      "d": 119.83034374999988,
      "v": 91
    },
    {
      "midi": 60,
      "hit": false,
      "t": 115488.25600000024,
      "d": 138.62726041667338,
      "v": 104
    },
    {
      "midi": 65,
      "hit": false,
      "t": 115488.25600000024,
      "d": 399.43447916668083,
      "v": 101
    },
    {
      "midi": 70,
      "hit": false,
      "t": 115713.81900000025,
      "d": 157.42417708333232,
      "v": 76
    },
    {
      "midi": 62,
      "hit": false,
      "t": 115713.81900000025,
      "d": 159.7737916666665,
      "v": 73
    },
    {
      "midi": 69,
      "hit": false,
      "t": 115939.38200000026,
      "d": 105.73265624999476,
      "v": 94
    },
    {
      "midi": 65,
      "hit": false,
      "t": 115939.38200000026,
      "d": 117.4807291666657,
      "v": 97
    },
    {
      "midi": 60,
      "hit": false,
      "t": 115939.38200000026,
      "d": 119.83034374999988,
      "v": 117
    },
    {
      "midi": 60,
      "hit": false,
      "t": 116616.07100000026,
      "d": 136.2776458333392,
      "v": 117
    },
    {
      "midi": 69,
      "hit": false,
      "t": 116616.07100000026,
      "d": 166.82263541666907,
      "v": 101
    },
    {
      "midi": 65,
      "hit": false,
      "t": 116616.07100000026,
      "d": 404.13370833333465,
      "v": 113
    },
    {
      "midi": 70,
      "hit": false,
      "t": 116841.63400000027,
      "d": 140.97687499999302,
      "v": 91
    },
    {
      "midi": 62,
      "hit": false,
      "t": 116841.63400000027,
      "d": 173.87147916665708,
      "v": 83
    },
    {
      "midi": 60,
      "hit": false,
      "t": 117067.19700000026,
      "d": 79.88689583333326,
      "v": 117
    },
    {
      "midi": 65,
      "hit": false,
      "t": 117067.19700000026,
      "d": 98.68381250000675,
      "v": 97
    },
    {
      "midi": 69,
      "hit": false,
      "t": 117067.19700000026,
      "d": 98.68381250000675,
      "v": 97
    },
    {
      "midi": 60,
      "hit": false,
      "t": 117518.32300000027,
      "d": 93.98458333333838,
      "v": 122
    },
    {
      "midi": 65,
      "hit": false,
      "t": 117518.32300000027,
      "d": 93.98458333333838,
      "v": 97
    },
    {
      "midi": 69,
      "hit": false,
      "t": 117518.32300000027,
      "d": 103.38304166667513,
      "v": 94
    },
    {
      "midi": 60,
      "hit": false,
      "t": 117969.44900000027,
      "d": 138.62726041667338,
      "v": 127
    },
    {
      "midi": 69,
      "hit": false,
      "t": 117969.44900000027,
      "d": 173.87147916667163,
      "v": 101
    },
    {
      "midi": 65,
      "hit": false,
      "t": 117969.44900000027,
      "d": 373.5887187500048,
      "v": 108
    },
    {
      "midi": 70,
      "hit": false,
      "t": 118195.01200000028,
      "d": 119.83034374999988,
      "v": 95
    },
    {
      "midi": 62,
      "hit": false,
      "t": 118195.01200000028,
      "d": 124.52957291666826,
      "v": 83
    },
    {
      "midi": 70,
      "hit": false,
      "t": 118420.57500000027,
      "d": 169.17225000000326,
      "v": 95
    },
    {
      "midi": 62,
      "hit": false,
      "t": 118420.57500000027,
      "d": 206.7660833333357,
      "v": 88
    },
    {
      "midi": 65,
      "hit": false,
      "t": 118420.57500000027,
      "d": 206.7660833333357,
      "v": 94
    },
    {
      "midi": 65,
      "hit": false,
      "t": 118646.13800000028,
      "d": 82.23651041666744,
      "v": 97
    },
    {
      "midi": 60,
      "hit": false,
      "t": 118646.13800000028,
      "d": 84.58612500000163,
      "v": 108
    },
    {
      "midi": 69,
      "hit": false,
      "t": 118646.13800000028,
      "d": 93.98458333333838,
      "v": 108
    },
    {
      "midi": 60,
      "hit": false,
      "t": 119097.26400000029,
      "d": 140.97687499999302,
      "v": 122
    },
    {
      "midi": 69,
      "hit": false,
      "t": 119097.26400000029,
      "d": 176.22109374999127,
      "v": 104
    },
    {
      "midi": 65,
      "hit": false,
      "t": 119097.26400000029,
      "d": 399.4344791666663,
      "v": 104
    },
    {
      "midi": 70,
      "hit": false,
      "t": 119322.82700000028,
      "d": 136.2776458333392,
      "v": 104
    },
    {
      "midi": 62,
      "hit": false,
      "t": 119322.82700000028,
      "d": 150.37533333334432,
      "v": 86
    },
    {
      "midi": 60,
      "hit": false,
      "t": 119548.39000000029,
      "d": 119.83034374999988,
      "v": 122
    },
    {
      "midi": 69,
      "hit": false,
      "t": 119548.39000000029,
      "d": 129.22880208333663,
      "v": 88
    },
    {
      "midi": 65,
      "hit": false,
      "t": 119548.39000000029,
      "d": 131.57841666667082,
      "v": 94
    },
    {
      "midi": 60,
      "hit": false,
      "t": 120225.07900000029,
      "d": 171.52186458333745,
      "v": 127
    },
    {
      "midi": 69,
      "hit": false,
      "t": 120225.07900000029,
      "d": 183.26993750000838,
      "v": 108
    },
    {
      "midi": 65,
      "hit": false,
      "t": 120225.07900000029,
      "d": 413.5321666666714,
      "v": 117
    },
    {
      "midi": 70,
      "hit": false,
      "t": 120450.6420000003,
      "d": 145.6761041666614,
      "v": 91
    },
    {
      "midi": 62,
      "hit": false,
      "t": 120450.6420000003,
      "d": 162.1234062500007,
      "v": 94
    },
    {
      "midi": 60,
      "hit": false,
      "t": 120676.2050000003,
      "d": 110.43188541666314,
      "v": 108
    },
    {
      "midi": 65,
      "hit": false,
      "t": 120676.2050000003,
      "d": 115.13111458333151,
      "v": 88
    },
    {
      "midi": 69,
      "hit": false,
      "t": 120676.2050000003,
      "d": 122.17995833333407,
      "v": 101
    },
    {
      "midi": 65,
      "hit": false,
      "t": 121127.3310000003,
      "d": 133.928031250005,
      "v": 104
    },
    {
      "midi": 69,
      "hit": false,
      "t": 121127.3310000003,
      "d": 140.97687500000757,
      "v": 101
    },
    {
      "midi": 60,
      "hit": false,
      "t": 121127.3310000003,
      "d": 169.17225000000326,
      "v": 127
    },
    {
      "midi": 60,
      "hit": false,
      "t": 121578.4570000003,
      "d": 110.43188541666314,
      "v": 113
    },
    {
      "midi": 69,
      "hit": false,
      "t": 121578.4570000003,
      "d": 136.27764583332464,
      "v": 94
    },
    {
      "midi": 65,
      "hit": false,
      "t": 121578.4570000003,
      "d": 373.5887187499902,
      "v": 97
    },
    {
      "midi": 70,
      "hit": false,
      "t": 121804.0200000003,
      "d": 110.43188541666314,
      "v": 100
    },
    {
      "midi": 62,
      "hit": false,
      "t": 121804.0200000003,
      "d": 126.87918750000244,
      "v": 86
    },
    {
      "midi": 62,
      "hit": false,
      "t": 122029.58300000029,
      "d": 138.62726041667338,
      "v": 91
    },
    {
      "midi": 70,
      "hit": false,
      "t": 122029.58300000029,
      "d": 152.7249479166785,
      "v": 80
    },
    {
      "midi": 65,
      "hit": false,
      "t": 122029.58300000029,
      "d": 159.77379166668106,
      "v": 97
    },
    {
      "midi": 60,
      "hit": false,
      "t": 122255.1460000003,
      "d": 70.48843749999651,
      "v": 117
    },
    {
      "midi": 65,
      "hit": false,
      "t": 122255.1460000003,
      "d": 93.98458333332383,
      "v": 104
    },
    {
      "midi": 69,
      "hit": false,
      "t": 122255.1460000003,
      "d": 101.03342708332639,
      "v": 113
    },
    {
      "midi": 65,
      "hit": false,
      "t": 122706.27200000029,
      "d": 119.83034374999988,
      "v": 81
    },
    {
      "midi": 74,
      "hit": false,
      "t": 122706.27200000029,
      "d": 143.3264895833272,
      "v": 97
    },
    {
      "midi": 70,
      "hit": false,
      "t": 122706.27200000029,
      "d": 392.3856354166637,
      "v": 95
    },
    {
      "midi": 67,
      "hit": false,
      "t": 122931.83500000028,
      "d": 164.47302083333489,
      "v": 86
    },
    {
      "midi": 75,
      "hit": false,
      "t": 122931.83500000028,
      "d": 164.47302083333489,
      "v": 95
    },
    {
      "midi": 74,
      "hit": false,
      "t": 123157.39800000029,
      "d": 91.63496875000419,
      "v": 91
    },
    {
      "midi": 65,
      "hit": false,
      "t": 123157.39800000029,
      "d": 96.33419791667257,
      "v": 94
    },
    {
      "midi": 70,
      "hit": false,
      "t": 123157.39800000029,
      "d": 110.43188541667769,
      "v": 95
    },
    {
      "midi": 65,
      "hit": false,
      "t": 123834.0870000003,
      "d": 157.42417708333232,
      "v": 101
    },
    {
      "midi": 74,
      "hit": false,
      "t": 123834.0870000003,
      "d": 171.52186458333745,
      "v": 104
    },
    {
      "midi": 70,
      "hit": false,
      "t": 123834.0870000003,
      "d": 335.99488541667233,
      "v": 110
    },
    {
      "midi": 75,
      "hit": false,
      "t": 124059.65000000031,
      "d": 136.27764583332464,
      "v": 100
    },
    {
      "midi": 67,
      "hit": false,
      "t": 124059.65000000031,
      "d": 140.97687499999302,
      "v": 91
    },
    {
      "midi": 65,
      "hit": false,
      "t": 124285.21300000031,
      "d": 77.53728124999907,
      "v": 81
    },
    {
      "midi": 74,
      "hit": false,
      "t": 124285.21300000031,
      "d": 89.28535416667,
      "v": 101
    },
    {
      "midi": 70,
      "hit": false,
      "t": 124285.21300000031,
      "d": 93.98458333333838,
      "v": 95
    },
    {
      "midi": 65,
      "hit": false,
      "t": 124736.33900000031,
      "d": 79.88689583333326,
      "v": 113
    },
    {
      "midi": 70,
      "hit": false,
      "t": 124736.33900000031,
      "d": 79.88689583333326,
      "v": 104
    },
    {
      "midi": 74,
      "hit": false,
      "t": 124736.33900000031,
      "d": 101.03342708332639,
      "v": 113
    },
    {
      "midi": 65,
      "hit": false,
      "t": 125187.4650000003,
      "d": 171.52186458333745,
      "v": 86
    },
    {
      "midi": 74,
      "hit": false,
      "t": 125187.4650000003,
      "d": 190.31878125001094,
      "v": 94
    },
    {
      "midi": 70,
      "hit": false,
      "t": 125187.4650000003,
      "d": 350.09257291667745,
      "v": 100
    },
    {
      "midi": 75,
      "hit": false,
      "t": 125413.02800000031,
      "d": 105.73265624999476,
      "v": 95
    },
    {
      "midi": 67,
      "hit": false,
      "t": 125413.02800000031,
      "d": 131.57841666667082,
      "v": 86
    },
    {
      "midi": 67,
      "hit": false,
      "t": 125638.59100000032,
      "d": 150.37533333332976,
      "v": 81
    },
    {
      "midi": 75,
      "hit": false,
      "t": 125638.59100000032,
      "d": 155.07456249999814,
      "v": 80
    },
    {
      "midi": 70,
      "hit": false,
      "t": 125638.59100000032,
      "d": 169.17225000000326,
      "v": 76
    },
    {
      "midi": 74,
      "hit": false,
      "t": 125864.15400000033,
      "d": 98.68381250000675,
      "v": 101
    },
    {
      "midi": 70,
      "hit": false,
      "t": 125864.15400000033,
      "d": 101.03342708334094,
      "v": 100
    },
    {
      "midi": 65,
      "hit": false,
      "t": 125864.15400000033,
      "d": 105.73265625000931,
      "v": 97
    },
    {
      "midi": 65,
      "hit": false,
      "t": 126315.28000000033,
      "d": 145.6761041666614,
      "v": 113
    },
    {
      "midi": 74,
      "hit": false,
      "t": 126315.28000000033,
      "d": 185.61955208332802,
      "v": 117
    },
    {
      "midi": 70,
      "hit": false,
      "t": 126315.28000000033,
      "d": 390.03602083332953,
      "v": 110
    },
    {
      "midi": 67,
      "hit": false,
      "t": 126540.84300000033,
      "d": 140.97687499999302,
      "v": 79
    },
    {
      "midi": 75,
      "hit": false,
      "t": 126540.84300000033,
      "d": 155.07456249999814,
      "v": 100
    },
    {
      "midi": 65,
      "hit": false,
      "t": 126766.40600000032,
      "d": 96.33419791667257,
      "v": 104
    },
    {
      "midi": 74,
      "hit": false,
      "t": 126766.40600000032,
      "d": 105.73265625000931,
      "v": 94
    },
    {
      "midi": 70,
      "hit": false,
      "t": 126766.40600000032,
      "d": 119.83034375001444,
      "v": 95
    },
    {
      "midi": 65,
      "hit": false,
      "t": 127443.09500000034,
      "d": 150.37533333332976,
      "v": 113
    },
    {
      "midi": 74,
      "hit": false,
      "t": 127443.09500000034,
      "d": 192.66839583333058,
      "v": 127
    },
    {
      "midi": 70,
      "hit": false,
      "t": 127443.09500000034,
      "d": 361.84064583333384,
      "v": 110
    },
    {
      "midi": 67,
      "hit": false,
      "t": 127668.65800000033,
      "d": 148.02571875001013,
      "v": 88
    },
    {
      "midi": 75,
      "hit": false,
      "t": 127668.65800000033,
      "d": 155.0745625000127,
      "v": 91
    },
    {
      "midi": 74,
      "hit": false,
      "t": 127894.22100000034,
      "d": 129.22880208333663,
      "v": 97
    },
    {
      "midi": 65,
      "hit": false,
      "t": 127894.22100000034,
      "d": 136.2776458333392,
      "v": 97
    },
    {
      "midi": 70,
      "hit": false,
      "t": 127894.22100000034,
      "d": 145.67610416667594,
      "v": 83
    },
    {
      "midi": 74,
      "hit": false,
      "t": 128345.34700000034,
      "d": 108.08227083332895,
      "v": 113
    },
    {
      "midi": 70,
      "hit": false,
      "t": 128345.34700000034,
      "d": 126.87918750000244,
      "v": 104
    },
    {
      "midi": 65,
      "hit": false,
      "t": 128345.34700000034,
      "d": 138.62726041667338,
      "v": 108
    },
    {
      "midi": 70,
      "hit": false,
      "t": 128796.47300000035,
      "d": 145.6761041666614,
      "v": 100
    },
    {
      "midi": 65,
      "hit": false,
      "t": 128796.47300000035,
      "d": 150.37533333332976,
      "v": 88
    },
    {
      "midi": 74,
      "hit": false,
      "t": 128796.47300000035,
      "d": 176.22109374999127,
      "v": 97
    },
    {
      "midi": 67,
      "hit": false,
      "t": 129022.03600000034,
      "d": 108.08227083332895,
      "v": 94
    },
    {
      "midi": 75,
      "hit": false,
      "t": 129022.03600000034,
      "d": 110.43188541666314,
      "v": 104
    },
    {
      "midi": 70,
      "hit": false,
      "t": 129022.03600000034,
      "d": 112.78149999999732,
      "v": 80
    },
    {
      "midi": 75,
      "hit": false,
      "t": 129247.59900000034,
      "d": 108.08227083332895,
      "v": 71
    },
    {
      "midi": 67,
      "hit": false,
      "t": 129247.59900000034,
      "d": 115.13111458333151,
      "v": 70
    },
    {
      "midi": 70,
      "hit": false,
      "t": 129247.59900000034,
      "d": 131.57841666667082,
      "v": 73
    },
    {
      "midi": 65,
      "hit": false,
      "t": 129473.16200000035,
      "d": 140.97687499999302,
      "v": 104
    },
    {
      "midi": 74,
      "hit": false,
      "t": 129473.16200000035,
      "d": 150.37533333332976,
      "v": 108
    },
    {
      "midi": 70,
      "hit": false,
      "t": 129473.16200000035,
      "d": 152.72494791666395,
      "v": 100
    },
    {
      "midi": 36,
      "hit": false,
      "t": 129924.28800000035,
      "d": 3294.159645833337,
      "v": 127
    },
    {
      "midi": 67,
      "hit": false,
      "t": 129924.28800000035,
      "d": 3303.5581041666737,
      "v": 113
    },
    {
      "midi": 60,
      "hit": false,
      "t": 129924.28800000035,
      "d": 3336.4527083333523,
      "v": 127
    },
    {
      "midi": 63,
      "hit": false,
      "t": 129924.28800000035,
      "d": 3355.249625000026,
      "v": 110
    },
    {
      "midi": 60,
      "hit": false,
      "t": 133533.29600000038,
      "d": 3277.7123437499977,
      "v": 127
    },
    {
      "midi": 63,
      "hit": false,
      "t": 133533.29600000038,
      "d": 3343.501552083326,
      "v": 95
    },
    {
      "midi": 67,
      "hit": false,
      "t": 133533.29600000038,
      "d": 3406.9411458333198,
      "v": 108
    },
    {
      "midi": 36,
      "hit": false,
      "t": 133533.29600000038,
      "d": 3425.7380624999932,
      "v": 117
    },
    {
      "midi": 55,
      "hit": false,
      "t": 137142.30400000038,
      "d": 3096.7920208333235,
      "v": 101
    },
    {
      "midi": 60,
      "hit": false,
      "t": 137142.30400000038,
      "d": 3244.817739583319,
      "v": 127
    },
    {
      "midi": 63,
      "hit": false,
      "t": 137142.30400000038,
      "d": 3280.061958333332,
      "v": 91
    },
    {
      "midi": 36,
      "hit": false,
      "t": 137142.30400000038,
      "d": 3442.1853645833326,
      "v": 104
    },
    {
      "midi": 67,
      "hit": false,
      "t": 140751.31200000038,
      "d": 2457.6968541666574,
      "v": 104
    },
    {
      "midi": 60,
      "hit": false,
      "t": 140751.31200000038,
      "d": 2483.5426145833335,
      "v": 127
    },
    {
      "midi": 63,
      "hit": false,
      "t": 140751.31200000038,
      "d": 2546.9822083333274,
      "v": 104
    },
    {
      "midi": 36,
      "hit": false,
      "t": 140751.31200000038,
      "d": 2617.470645833324,
      "v": 127
    },
    {
      "midi": 60,
      "hit": false,
      "t": 144360.32000000039,
      "d": 1522.5502500000002,
      "v": 127
    },
    {
      "midi": 57,
      "hit": false,
      "t": 144360.32000000039,
      "d": 1536.6479375000054,
      "v": 101
    },
    {
      "midi": 65,
      "hit": false,
      "t": 144360.32000000039,
      "d": 1546.046395833342,
      "v": 117
    },
    {
      "midi": 41,
      "hit": false,
      "t": 144360.32000000039,
      "d": 1557.794468750013,
      "v": 117
    },
    {
      "midi": 70,
      "hit": false,
      "t": 147969.3280000004,
      "d": 108.0822708333435,
      "v": 110
    },
    {
      "midi": 65,
      "hit": false,
      "t": 147969.3280000004,
      "d": 119.83034375001444,
      "v": 104
    },
    {
      "midi": 74,
      "hit": false,
      "t": 147969.3280000004,
      "d": 136.27764583335374,
      "v": 113
    },
    {
      "midi": 46,
      "hit": false,
      "t": 147969.3280000004,
      "d": 150.37533333335887,
      "v": 110
    },
    {
      "midi": 70,
      "hit": false,
      "t": 148194.8910000004,
      "d": 124.5295729166537,
      "v": 100
    },
    {
      "midi": 65,
      "hit": false,
      "t": 148194.8910000004,
      "d": 131.57841666665627,
      "v": 88
    },
    {
      "midi": 46,
      "hit": false,
      "t": 148194.8910000004,
      "d": 133.92803124999045,
      "v": 83
    },
    {
      "midi": 74,
      "hit": false,
      "t": 148194.8910000004,
      "d": 138.62726041665883,
      "v": 104
    },
    {
      "midi": 46,
      "hit": false,
      "t": 148420.4540000004,
      "d": 119.83034375001444,
      "v": 95
    },
    {
      "midi": 70,
      "hit": false,
      "t": 148420.4540000004,
      "d": 124.52957291668281,
      "v": 100
    },
    {
      "midi": 65,
      "hit": false,
      "t": 148420.4540000004,
      "d": 138.62726041668793,
      "v": 86
    },
    {
      "midi": 74,
      "hit": false,
      "t": 148420.4540000004,
      "d": 138.62726041668793,
      "v": 113
    },
    {
      "midi": 74,
      "hit": false,
      "t": 148646.01700000043,
      "d": 385.33679166666116,
      "v": 122
    },
    {
      "midi": 70,
      "hit": false,
      "t": 148646.01700000043,
      "d": 390.03602083332953,
      "v": 110
    },
    {
      "midi": 65,
      "hit": false,
      "t": 148646.01700000043,
      "d": 404.13370833333465,
      "v": 97
    },
    {
      "midi": 46,
      "hit": false,
      "t": 148646.01700000043,
      "d": 850.5604791666556,
      "v": 104
    },
    {
      "midi": 65,
      "hit": false,
      "t": 149097.14300000042,
      "d": 150.37533333332976,
      "v": 94
    },
    {
      "midi": 70,
      "hit": false,
      "t": 149097.14300000042,
      "d": 155.07456249999814,
      "v": 104
    },
    {
      "midi": 70,
      "hit": false,
      "t": 149322.7060000004,
      "d": 169.17225000000326,
      "v": 95
    },
    {
      "midi": 65,
      "hit": false,
      "t": 149322.7060000004,
      "d": 171.52186458333745,
      "v": 81
    },
    {
      "midi": 72,
      "hit": false,
      "t": 149548.2690000004,
      "d": 392.3856354166637,
      "v": 127
    },
    {
      "midi": 65,
      "hit": false,
      "t": 149548.2690000004,
      "d": 406.48332291666884,
      "v": 97
    },
    {
      "midi": 46,
      "hit": false,
      "t": 149548.2690000004,
      "d": 1649.429437499959,
      "v": 91
    },
    {
      "midi": 70,
      "hit": false,
      "t": 149999.3950000004,
      "d": 380.6375624999928,
      "v": 110
    },
    {
      "midi": 65,
      "hit": false,
      "t": 149999.3950000004,
      "d": 394.7352499999979,
      "v": 94
    },
    {
      "midi": 65,
      "hit": false,
      "t": 150450.5210000004,
      "d": 373.5887187499902,
      "v": 101
    },
    {
      "midi": 72,
      "hit": false,
      "t": 150450.5210000004,
      "d": 390.03602083332953,
      "v": 117
    },
    {
      "midi": 65,
      "hit": false,
      "t": 150901.64700000038,
      "d": 528.6632812499884,
      "v": 97
    },
    {
      "midi": 74,
      "hit": false,
      "t": 150901.64700000038,
      "d": 578.0051874999772,
      "v": 122
    },
    {
      "midi": 69,
      "hit": false,
      "t": 151578.33600000036,
      "d": 131.57841666665627,
      "v": 127
    },
    {
      "midi": 50,
      "hit": false,
      "t": 151578.33600000036,
      "d": 136.27764583332464,
      "v": 127
    },
    {
      "midi": 74,
      "hit": false,
      "t": 151578.33600000036,
      "d": 162.1234062500007,
      "v": 122
    },
    {
      "midi": 50,
      "hit": false,
      "t": 151803.89900000035,
      "d": 117.48072916668025,
      "v": 113
    },
    {
      "midi": 69,
      "hit": false,
      "t": 151803.89900000035,
      "d": 122.17995833334862,
      "v": 108
    },
    {
      "midi": 74,
      "hit": false,
      "t": 151803.89900000035,
      "d": 138.62726041668793,
      "v": 97
    },
    {
      "midi": 50,
      "hit": false,
      "t": 152029.46200000038,
      "d": 105.73265625000931,
      "v": 117
    },
    {
      "midi": 69,
      "hit": false,
      "t": 152029.46200000038,
      "d": 119.83034375001444,
      "v": 113
    },
    {
      "midi": 74,
      "hit": false,
      "t": 152029.46200000038,
      "d": 122.17995833334862,
      "v": 108
    },
    {
      "midi": 69,
      "hit": false,
      "t": 152255.0250000004,
      "d": 352.44218750001164,
      "v": 122
    },
    {
      "midi": 74,
      "hit": false,
      "t": 152255.0250000004,
      "d": 359.4910312500142,
      "v": 122
    },
    {
      "midi": 50,
      "hit": false,
      "t": 152255.0250000004,
      "d": 2680.910239583376,
      "v": 117
    },
    {
      "midi": 75,
      "hit": false,
      "t": 152706.15100000042,
      "d": 317.19796874999884,
      "v": 95
    },
    {
      "midi": 69,
      "hit": false,
      "t": 152706.15100000042,
      "d": 338.3445000000065,
      "v": 122
    },
    {
      "midi": 69,
      "hit": false,
      "t": 153157.27700000044,
      "d": 397.0848645833321,
      "v": 113
    },
    {
      "midi": 74,
      "hit": false,
      "t": 153157.27700000044,
      "d": 415.8817812500056,
      "v": 117
    },
    {
      "midi": 65,
      "hit": false,
      "t": 153608.40300000046,
      "d": 382.98717708332697,
      "v": 113
    },
    {
      "midi": 69,
      "hit": false,
      "t": 153608.40300000046,
      "d": 390.03602083332953,
      "v": 127
    },
    {
      "midi": 74,
      "hit": false,
      "t": 154059.52900000045,
      "d": 352.44218750001164,
      "v": 113
    },
    {
      "midi": 69,
      "hit": false,
      "t": 154059.52900000045,
      "d": 368.88948958335095,
      "v": 113
    },
    {
      "midi": 69,
      "hit": false,
      "t": 154510.65500000046,
      "d": 364.1902604166535,
      "v": 127
    },
    {
      "midi": 72,
      "hit": false,
      "t": 154510.65500000046,
      "d": 371.23910416665603,
      "v": 127
    },
    {
      "midi": 72,
      "hit": false,
      "t": 154961.78100000045,
      "d": 425.28023958334234,
      "v": 127
    },
    {
      "midi": 55,
      "hit": false,
      "t": 155187.34400000045,
      "d": 3320.005406249955,
      "v": 122
    },
    {
      "midi": 70,
      "hit": false,
      "t": 155412.90700000047,
      "d": 202.06685416665277,
      "v": 104
    },
    {
      "midi": 69,
      "hit": false,
      "t": 155638.47000000047,
      "d": 164.47302083333489,
      "v": 101
    },
    {
      "midi": 70,
      "hit": false,
      "t": 155864.03300000046,
      "d": 368.88948958332185,
      "v": 104
    },
    {
      "midi": 67,
      "hit": false,
      "t": 155864.03300000046,
      "d": 378.2879479166586,
      "v": 127
    },
    {
      "midi": 70,
      "hit": false,
      "t": 156315.15900000045,
      "d": 375.9383333333244,
      "v": 87
    },
    {
      "midi": 67,
      "hit": false,
      "t": 156315.15900000045,
      "d": 392.3856354166637,
      "v": 113
    },
    {
      "midi": 70,
      "hit": false,
      "t": 156766.28500000044,
      "d": 392.3856354166637,
      "v": 104
    },
    {
      "midi": 67,
      "hit": false,
      "t": 156766.28500000044,
      "d": 397.0848645833321,
      "v": 127
    },
    {
      "midi": 67,
      "hit": false,
      "t": 157217.41100000043,
      "d": 183.26993750000838,
      "v": 108
    },
    {
      "midi": 70,
      "hit": false,
      "t": 157217.41100000043,
      "d": 183.26993750000838,
      "v": 91
    },
    {
      "midi": 70,
      "hit": false,
      "t": 157442.97400000042,
      "d": 361.8406458333193,
      "v": 100
    },
    {
      "midi": 67,
      "hit": false,
      "t": 157442.97400000042,
      "d": 382.98717708332697,
      "v": 122
    },
    {
      "midi": 70,
      "hit": false,
      "t": 157894.1000000004,
      "d": 387.68640624999534,
      "v": 104
    },
    {
      "midi": 67,
      "hit": false,
      "t": 157894.1000000004,
      "d": 397.0848645833321,
      "v": 127
    },
    {
      "midi": 67,
      "hit": false,
      "t": 158345.2260000004,
      "d": 206.76608333332115,
      "v": 127
    },
    {
      "midi": 70,
      "hit": false,
      "t": 158345.2260000004,
      "d": 209.11569791665534,
      "v": 104
    },
    {
      "midi": 60,
      "hit": false,
      "t": 158796.3520000004,
      "d": 411.1825520833372,
      "v": 127
    },
    {
      "midi": 70,
      "hit": false,
      "t": 158796.3520000004,
      "d": 434.6786979166791,
      "v": 110
    },
    {
      "midi": 74,
      "hit": false,
      "t": 158796.3520000004,
      "d": 476.97176041669445,
      "v": 122
    },
    {
      "midi": 75,
      "hit": false,
      "t": 159247.4780000004,
      "d": 392.3856354166637,
      "v": 104
    },
    {
      "midi": 60,
      "hit": false,
      "t": 159247.4780000004,
      "d": 1148.961531249981,
      "v": 127
    },
    {
      "midi": 72,
      "hit": false,
      "t": 159698.6040000004,
      "d": 265.5064479166758,
      "v": 108
    },
    {
      "midi": 70,
      "hit": false,
      "t": 159924.1670000004,
      "d": 404.13370833333465,
      "v": 104
    },
    {
      "midi": 74,
      "hit": false,
      "t": 160600.85600000038,
      "d": 824.7147187500086,
      "v": 117
    },
    {
      "midi": 70,
      "hit": false,
      "t": 160600.85600000038,
      "d": 843.5116354166821,
      "v": 104
    },
    {
      "midi": 65,
      "hit": false,
      "t": 160600.85600000038,
      "d": 845.8612500000163,
      "v": 108
    },
    {
      "midi": 69,
      "hit": false,
      "t": 161503.1080000004,
      "d": 763.6247395833198,
      "v": 127
    },
    {
      "midi": 65,
      "hit": false,
      "t": 161503.1080000004,
      "d": 770.6735833333223,
      "v": 91
    },
    {
      "midi": 72,
      "hit": false,
      "t": 161503.1080000004,
      "d": 770.6735833333223,
      "v": 113
    },
    {
      "midi": 70,
      "hit": false,
      "t": 162405.36000000036,
      "d": 108.0822708333435,
      "v": 110
    },
    {
      "midi": 65,
      "hit": false,
      "t": 162405.36000000036,
      "d": 119.83034375001444,
      "v": 104
    },
    {
      "midi": 74,
      "hit": false,
      "t": 162405.36000000036,
      "d": 136.27764583335374,
      "v": 113
    },
    {
      "midi": 46,
      "hit": false,
      "t": 162405.36000000036,
      "d": 150.37533333335887,
      "v": 110
    },
    {
      "midi": 70,
      "hit": false,
      "t": 162630.9230000004,
      "d": 124.5295729166537,
      "v": 100
    },
    {
      "midi": 65,
      "hit": false,
      "t": 162630.9230000004,
      "d": 131.57841666665627,
      "v": 88
    },
    {
      "midi": 46,
      "hit": false,
      "t": 162630.9230000004,
      "d": 133.92803124999045,
      "v": 83
    },
    {
      "midi": 74,
      "hit": false,
      "t": 162630.9230000004,
      "d": 138.62726041665883,
      "v": 104
    },
    {
      "midi": 46,
      "hit": false,
      "t": 162856.48600000038,
      "d": 119.83034375001444,
      "v": 95
    },
    {
      "midi": 70,
      "hit": false,
      "t": 162856.48600000038,
      "d": 124.52957291668281,
      "v": 100
    },
    {
      "midi": 65,
      "hit": false,
      "t": 162856.48600000038,
      "d": 138.62726041668793,
      "v": 86
    },
    {
      "midi": 74,
      "hit": false,
      "t": 162856.48600000038,
      "d": 138.62726041668793,
      "v": 113
    },
    {
      "midi": 74,
      "hit": false,
      "t": 163082.0490000004,
      "d": 385.33679166666116,
      "v": 122
    },
    {
      "midi": 70,
      "hit": false,
      "t": 163082.0490000004,
      "d": 390.03602083332953,
      "v": 110
    },
    {
      "midi": 65,
      "hit": false,
      "t": 163082.0490000004,
      "d": 404.13370833333465,
      "v": 97
    },
    {
      "midi": 46,
      "hit": false,
      "t": 163082.0490000004,
      "d": 850.5604791666556,
      "v": 104
    },
    {
      "midi": 65,
      "hit": false,
      "t": 163533.1750000004,
      "d": 150.37533333332976,
      "v": 94
    },
    {
      "midi": 70,
      "hit": false,
      "t": 163533.1750000004,
      "d": 155.07456249999814,
      "v": 104
    },
    {
      "midi": 70,
      "hit": false,
      "t": 163758.7380000004,
      "d": 169.17225000000326,
      "v": 95
    },
    {
      "midi": 65,
      "hit": false,
      "t": 163758.7380000004,
      "d": 171.52186458333745,
      "v": 81
    },
    {
      "midi": 72,
      "hit": false,
      "t": 163984.30100000039,
      "d": 392.3856354166637,
      "v": 127
    },
    {
      "midi": 65,
      "hit": false,
      "t": 163984.30100000039,
      "d": 406.48332291666884,
      "v": 97
    },
    {
      "midi": 46,
      "hit": false,
      "t": 163984.30100000039,
      "d": 1649.429437499959,
      "v": 91
    },
    {
      "midi": 70,
      "hit": false,
      "t": 164435.42700000037,
      "d": 380.6375624999928,
      "v": 110
    },
    {
      "midi": 65,
      "hit": false,
      "t": 164435.42700000037,
      "d": 394.7352499999979,
      "v": 94
    },
    {
      "midi": 65,
      "hit": false,
      "t": 164886.55300000036,
      "d": 373.5887187499902,
      "v": 101
    },
    {
      "midi": 72,
      "hit": false,
      "t": 164886.55300000036,
      "d": 390.03602083332953,
      "v": 117
    },
    {
      "midi": 65,
      "hit": false,
      "t": 165337.67900000035,
      "d": 528.6632812499884,
      "v": 97
    },
    {
      "midi": 74,
      "hit": false,
      "t": 165337.67900000035,
      "d": 578.0051874999772,
      "v": 122
    },
    {
      "midi": 69,
      "hit": false,
      "t": 166014.36800000034,
      "d": 131.57841666665627,
      "v": 127
    },
    {
      "midi": 50,
      "hit": false,
      "t": 166014.36800000034,
      "d": 136.27764583332464,
      "v": 127
    },
    {
      "midi": 74,
      "hit": false,
      "t": 166014.36800000034,
      "d": 162.1234062500007,
      "v": 122
    },
    {
      "midi": 50,
      "hit": false,
      "t": 166239.93100000033,
      "d": 117.48072916668025,
      "v": 113
    },
    {
      "midi": 69,
      "hit": false,
      "t": 166239.93100000033,
      "d": 122.17995833334862,
      "v": 108
    },
    {
      "midi": 74,
      "hit": false,
      "t": 166239.93100000033,
      "d": 138.62726041668793,
      "v": 97
    },
    {
      "midi": 50,
      "hit": false,
      "t": 166465.49400000036,
      "d": 105.73265625000931,
      "v": 117
    },
    {
      "midi": 69,
      "hit": false,
      "t": 166465.49400000036,
      "d": 119.83034375001444,
      "v": 113
    },
    {
      "midi": 74,
      "hit": false,
      "t": 166465.49400000036,
      "d": 122.17995833334862,
      "v": 108
    },
    {
      "midi": 69,
      "hit": false,
      "t": 166691.05700000038,
      "d": 352.44218750001164,
      "v": 122
    },
    {
      "midi": 74,
      "hit": false,
      "t": 166691.05700000038,
      "d": 359.4910312500142,
      "v": 122
    },
    {
      "midi": 50,
      "hit": false,
      "t": 166691.05700000038,
      "d": 2680.910239583376,
      "v": 117
    },
    {
      "midi": 75,
      "hit": false,
      "t": 167142.1830000004,
      "d": 317.19796874999884,
      "v": 95
    },
    {
      "midi": 69,
      "hit": false,
      "t": 167142.1830000004,
      "d": 338.3445000000065,
      "v": 122
    },
    {
      "midi": 69,
      "hit": false,
      "t": 167593.30900000042,
      "d": 397.0848645833321,
      "v": 113
    },
    {
      "midi": 74,
      "hit": false,
      "t": 167593.30900000042,
      "d": 415.8817812500056,
      "v": 117
    },
    {
      "midi": 65,
      "hit": false,
      "t": 168044.43500000043,
      "d": 382.98717708332697,
      "v": 113
    },
    {
      "midi": 69,
      "hit": false,
      "t": 168044.43500000043,
      "d": 390.03602083332953,
      "v": 127
    },
    {
      "midi": 74,
      "hit": false,
      "t": 168495.56100000042,
      "d": 352.44218750001164,
      "v": 113
    },
    {
      "midi": 69,
      "hit": false,
      "t": 168495.56100000042,
      "d": 368.88948958335095,
      "v": 113
    },
    {
      "midi": 69,
      "hit": false,
      "t": 168946.68700000044,
      "d": 364.1902604166535,
      "v": 127
    },
    {
      "midi": 72,
      "hit": false,
      "t": 168946.68700000044,
      "d": 371.23910416665603,
      "v": 127
    },
    {
      "midi": 72,
      "hit": false,
      "t": 169397.81300000043,
      "d": 425.28023958334234,
      "v": 127
    },
    {
      "midi": 55,
      "hit": false,
      "t": 169623.37600000043,
      "d": 3320.005406249955,
      "v": 122
    },
    {
      "midi": 70,
      "hit": false,
      "t": 169848.93900000045,
      "d": 202.06685416665277,
      "v": 104
    },
    {
      "midi": 69,
      "hit": false,
      "t": 170074.50200000044,
      "d": 164.47302083333489,
      "v": 101
    },
    {
      "midi": 70,
      "hit": false,
      "t": 170300.06500000044,
      "d": 368.88948958332185,
      "v": 104
    },
    {
      "midi": 67,
      "hit": false,
      "t": 170300.06500000044,
      "d": 378.2879479166586,
      "v": 127
    },
    {
      "midi": 70,
      "hit": false,
      "t": 170751.19100000043,
      "d": 375.9383333333244,
      "v": 87
    },
    {
      "midi": 67,
      "hit": false,
      "t": 170751.19100000043,
      "d": 392.3856354166637,
      "v": 113
    },
    {
      "midi": 70,
      "hit": false,
      "t": 171202.31700000042,
      "d": 392.3856354166637,
      "v": 104
    },
    {
      "midi": 67,
      "hit": false,
      "t": 171202.31700000042,
      "d": 397.0848645833321,
      "v": 127
    },
    {
      "midi": 67,
      "hit": false,
      "t": 171653.4430000004,
      "d": 183.26993750000838,
      "v": 108
    },
    {
      "midi": 70,
      "hit": false,
      "t": 171653.4430000004,
      "d": 183.26993750000838,
      "v": 91
    },
    {
      "midi": 70,
      "hit": false,
      "t": 171879.0060000004,
      "d": 361.8406458333193,
      "v": 100
    },
    {
      "midi": 67,
      "hit": false,
      "t": 171879.0060000004,
      "d": 382.98717708332697,
      "v": 122
    },
    {
      "midi": 70,
      "hit": false,
      "t": 172330.1320000004,
      "d": 387.68640624999534,
      "v": 104
    },
    {
      "midi": 67,
      "hit": false,
      "t": 172330.1320000004,
      "d": 397.0848645833321,
      "v": 127
    },
    {
      "midi": 67,
      "hit": false,
      "t": 172781.25800000038,
      "d": 206.76608333332115,
      "v": 127
    },
    {
      "midi": 70,
      "hit": false,
      "t": 172781.25800000038,
      "d": 209.11569791665534,
      "v": 104
    },
    {
      "midi": 60,
      "hit": false,
      "t": 173232.38400000037,
      "d": 411.1825520833372,
      "v": 127
    },
    {
      "midi": 70,
      "hit": false,
      "t": 173232.38400000037,
      "d": 434.6786979166791,
      "v": 110
    },
    {
      "midi": 74,
      "hit": false,
      "t": 173232.38400000037,
      "d": 476.97176041669445,
      "v": 122
    },
    {
      "midi": 75,
      "hit": false,
      "t": 173683.5100000004,
      "d": 392.3856354166637,
      "v": 104
    },
    {
      "midi": 60,
      "hit": false,
      "t": 173683.5100000004,
      "d": 1148.961531249981,
      "v": 127
    },
    {
      "midi": 72,
      "hit": false,
      "t": 174134.63600000038,
      "d": 265.5064479166758,
      "v": 108
    },
    {
      "midi": 70,
      "hit": false,
      "t": 174360.19900000037,
      "d": 404.13370833333465,
      "v": 104
    },
    {
      "midi": 74,
      "hit": false,
      "t": 175036.88800000036,
      "d": 824.7147187500086,
      "v": 117
    },
    {
      "midi": 70,
      "hit": false,
      "t": 175036.88800000036,
      "d": 843.5116354166821,
      "v": 104
    },
    {
      "midi": 65,
      "hit": false,
      "t": 175036.88800000036,
      "d": 845.8612500000163,
      "v": 108
    },
    {
      "midi": 69,
      "hit": false,
      "t": 175939.14000000036,
      "d": 763.6247395833198,
      "v": 127
    },
    {
      "midi": 65,
      "hit": false,
      "t": 175939.14000000036,
      "d": 770.6735833333223,
      "v": 91
    },
    {
      "midi": 72,
      "hit": false,
      "t": 175939.14000000036,
      "d": 770.6735833333223,
      "v": 113
    },
    {
      "midi": 36,
      "hit": false,
      "t": 191277.42400000035,
      "d": 3294.159645833337,
      "v": 127
    },
    {
      "midi": 67,
      "hit": false,
      "t": 191277.42400000035,
      "d": 3303.5581041666737,
      "v": 113
    },
    {
      "midi": 60,
      "hit": false,
      "t": 191277.42400000035,
      "d": 3336.4527083333523,
      "v": 127
    },
    {
      "midi": 63,
      "hit": false,
      "t": 191277.42400000035,
      "d": 3355.249625000026,
      "v": 110
    },
    {
      "midi": 60,
      "hit": false,
      "t": 194886.43200000038,
      "d": 3277.7123437499977,
      "v": 127
    },
    {
      "midi": 63,
      "hit": false,
      "t": 194886.43200000038,
      "d": 3343.501552083326,
      "v": 95
    },
    {
      "midi": 67,
      "hit": false,
      "t": 194886.43200000038,
      "d": 3406.9411458333198,
      "v": 108
    },
    {
      "midi": 36,
      "hit": false,
      "t": 194886.43200000038,
      "d": 3425.7380624999932,
      "v": 117
    },
    {
      "midi": 55,
      "hit": false,
      "t": 198495.44000000038,
      "d": 3096.7920208333235,
      "v": 101
    },
    {
      "midi": 60,
      "hit": false,
      "t": 198495.44000000038,
      "d": 3244.817739583319,
      "v": 127
    },
    {
      "midi": 63,
      "hit": false,
      "t": 198495.44000000038,
      "d": 3280.061958333332,
      "v": 91
    },
    {
      "midi": 36,
      "hit": false,
      "t": 198495.44000000038,
      "d": 3442.1853645833326,
      "v": 104
    },
    {
      "midi": 67,
      "hit": false,
      "t": 202104.44800000038,
      "d": 2457.6968541666574,
      "v": 104
    },
    {
      "midi": 60,
      "hit": false,
      "t": 202104.44800000038,
      "d": 2483.5426145833335,
      "v": 127
    },
    {
      "midi": 63,
      "hit": false,
      "t": 202104.44800000038,
      "d": 2546.9822083333274,
      "v": 104
    },
    {
      "midi": 36,
      "hit": false,
      "t": 202104.44800000038,
      "d": 2617.470645833324,
      "v": 127
    },
    {
      "midi": 60,
      "hit": false,
      "t": 205713.45600000038,
      "d": 1522.5502500000002,
      "v": 127
    },
    {
      "midi": 57,
      "hit": false,
      "t": 205713.45600000038,
      "d": 1536.6479375000054,
      "v": 101
    },
    {
      "midi": 65,
      "hit": false,
      "t": 205713.45600000038,
      "d": 1546.046395833342,
      "v": 117
    },
    {
      "midi": 41,
      "hit": false,
      "t": 205713.45600000038,
      "d": 1557.794468750013,
      "v": 117
    },
    {
      "midi": 70,
      "hit": false,
      "t": 209322.4640000004,
      "d": 108.0822708333435,
      "v": 110
    },
    {
      "midi": 65,
      "hit": false,
      "t": 209322.4640000004,
      "d": 119.83034375001444,
      "v": 104
    },
    {
      "midi": 74,
      "hit": false,
      "t": 209322.4640000004,
      "d": 136.27764583335374,
      "v": 113
    },
    {
      "midi": 46,
      "hit": false,
      "t": 209322.4640000004,
      "d": 150.37533333335887,
      "v": 110
    },
    {
      "midi": 70,
      "hit": false,
      "t": 209548.0270000004,
      "d": 124.5295729166537,
      "v": 100
    },
    {
      "midi": 65,
      "hit": false,
      "t": 209548.0270000004,
      "d": 131.57841666665627,
      "v": 88
    },
    {
      "midi": 46,
      "hit": false,
      "t": 209548.0270000004,
      "d": 133.92803124999045,
      "v": 83
    },
    {
      "midi": 74,
      "hit": false,
      "t": 209548.0270000004,
      "d": 138.62726041665883,
      "v": 104
    },
    {
      "midi": 46,
      "hit": false,
      "t": 209773.5900000004,
      "d": 119.83034375001444,
      "v": 95
    },
    {
      "midi": 70,
      "hit": false,
      "t": 209773.5900000004,
      "d": 124.52957291668281,
      "v": 100
    },
    {
      "midi": 65,
      "hit": false,
      "t": 209773.5900000004,
      "d": 138.62726041668793,
      "v": 86
    },
    {
      "midi": 74,
      "hit": false,
      "t": 209773.5900000004,
      "d": 138.62726041668793,
      "v": 113
    },
    {
      "midi": 74,
      "hit": false,
      "t": 209999.15300000043,
      "d": 385.33679166666116,
      "v": 122
    },
    {
      "midi": 70,
      "hit": false,
      "t": 209999.15300000043,
      "d": 390.03602083332953,
      "v": 110
    },
    {
      "midi": 65,
      "hit": false,
      "t": 209999.15300000043,
      "d": 404.13370833333465,
      "v": 97
    },
    {
      "midi": 46,
      "hit": false,
      "t": 209999.15300000043,
      "d": 850.5604791666556,
      "v": 104
    },
    {
      "midi": 65,
      "hit": false,
      "t": 210450.27900000042,
      "d": 150.37533333332976,
      "v": 94
    },
    {
      "midi": 70,
      "hit": false,
      "t": 210450.27900000042,
      "d": 155.07456249999814,
      "v": 104
    },
    {
      "midi": 70,
      "hit": false,
      "t": 210675.8420000004,
      "d": 169.17225000000326,
      "v": 95
    },
    {
      "midi": 65,
      "hit": false,
      "t": 210675.8420000004,
      "d": 171.52186458333745,
      "v": 81
    },
    {
      "midi": 72,
      "hit": false,
      "t": 210901.4050000004,
      "d": 392.3856354166637,
      "v": 127
    },
    {
      "midi": 65,
      "hit": false,
      "t": 210901.4050000004,
      "d": 406.48332291666884,
      "v": 97
    },
    {
      "midi": 46,
      "hit": false,
      "t": 210901.4050000004,
      "d": 1649.429437499959,
      "v": 91
    },
    {
      "midi": 70,
      "hit": false,
      "t": 211352.5310000004,
      "d": 380.6375624999928,
      "v": 110
    },
    {
      "midi": 65,
      "hit": false,
      "t": 211352.5310000004,
      "d": 394.7352499999979,
      "v": 94
    },
    {
      "midi": 65,
      "hit": false,
      "t": 211803.65700000038,
      "d": 373.5887187499902,
      "v": 101
    },
    {
      "midi": 72,
      "hit": false,
      "t": 211803.65700000038,
      "d": 390.03602083332953,
      "v": 117
    },
    {
      "midi": 65,
      "hit": false,
      "t": 212254.78300000037,
      "d": 528.6632812499884,
      "v": 97
    },
    {
      "midi": 74,
      "hit": false,
      "t": 212254.78300000037,
      "d": 578.0051874999772,
      "v": 122
    },
    {
      "midi": 69,
      "hit": false,
      "t": 212931.47200000036,
      "d": 131.57841666665627,
      "v": 127
    },
    {
      "midi": 50,
      "hit": false,
      "t": 212931.47200000036,
      "d": 136.27764583332464,
      "v": 127
    },
    {
      "midi": 74,
      "hit": false,
      "t": 212931.47200000036,
      "d": 162.1234062500007,
      "v": 122
    },
    {
      "midi": 50,
      "hit": false,
      "t": 213157.03500000035,
      "d": 117.48072916668025,
      "v": 113
    },
    {
      "midi": 69,
      "hit": false,
      "t": 213157.03500000035,
      "d": 122.17995833334862,
      "v": 108
    },
    {
      "midi": 74,
      "hit": false,
      "t": 213157.03500000035,
      "d": 138.62726041668793,
      "v": 97
    },
    {
      "midi": 50,
      "hit": false,
      "t": 213382.59800000038,
      "d": 105.73265625000931,
      "v": 117
    },
    {
      "midi": 69,
      "hit": false,
      "t": 213382.59800000038,
      "d": 119.83034375001444,
      "v": 113
    },
    {
      "midi": 74,
      "hit": false,
      "t": 213382.59800000038,
      "d": 122.17995833334862,
      "v": 108
    },
    {
      "midi": 69,
      "hit": false,
      "t": 213608.1610000004,
      "d": 352.44218750001164,
      "v": 122
    },
    {
      "midi": 74,
      "hit": false,
      "t": 213608.1610000004,
      "d": 359.4910312500142,
      "v": 122
    },
    {
      "midi": 50,
      "hit": false,
      "t": 213608.1610000004,
      "d": 2680.910239583376,
      "v": 117
    },
    {
      "midi": 75,
      "hit": false,
      "t": 214059.28700000042,
      "d": 317.19796874999884,
      "v": 95
    },
    {
      "midi": 69,
      "hit": false,
      "t": 214059.28700000042,
      "d": 338.3445000000065,
      "v": 122
    },
    {
      "midi": 69,
      "hit": false,
      "t": 214510.41300000044,
      "d": 397.0848645833321,
      "v": 113
    },
    {
      "midi": 74,
      "hit": false,
      "t": 214510.41300000044,
      "d": 415.8817812500056,
      "v": 117
    },
    {
      "midi": 65,
      "hit": false,
      "t": 214961.53900000046,
      "d": 382.98717708332697,
      "v": 113
    },
    {
      "midi": 69,
      "hit": false,
      "t": 214961.53900000046,
      "d": 390.03602083332953,
      "v": 127
    },
    {
      "midi": 74,
      "hit": false,
      "t": 215412.66500000044,
      "d": 352.44218750001164,
      "v": 113
    },
    {
      "midi": 69,
      "hit": false,
      "t": 215412.66500000044,
      "d": 368.88948958335095,
      "v": 113
    },
    {
      "midi": 69,
      "hit": false,
      "t": 215863.79100000046,
      "d": 364.1902604166535,
      "v": 127
    },
    {
      "midi": 72,
      "hit": false,
      "t": 215863.79100000046,
      "d": 371.23910416665603,
      "v": 127
    },
    {
      "midi": 72,
      "hit": false,
      "t": 216314.91700000045,
      "d": 425.28023958334234,
      "v": 127
    },
    {
      "midi": 55,
      "hit": false,
      "t": 216540.48000000045,
      "d": 3320.005406249955,
      "v": 122
    },
    {
      "midi": 70,
      "hit": false,
      "t": 216766.04300000047,
      "d": 202.06685416665277,
      "v": 104
    },
    {
      "midi": 69,
      "hit": false,
      "t": 216991.60600000047,
      "d": 164.47302083333489,
      "v": 101
    },
    {
      "midi": 70,
      "hit": false,
      "t": 217217.16900000046,
      "d": 368.88948958332185,
      "v": 104
    },
    {
      "midi": 67,
      "hit": false,
      "t": 217217.16900000046,
      "d": 378.2879479166586,
      "v": 127
    },
    {
      "midi": 70,
      "hit": false,
      "t": 217668.29500000045,
      "d": 375.9383333333244,
      "v": 87
    },
    {
      "midi": 67,
      "hit": false,
      "t": 217668.29500000045,
      "d": 392.3856354166637,
      "v": 113
    },
    {
      "midi": 70,
      "hit": false,
      "t": 218119.42100000044,
      "d": 392.3856354166637,
      "v": 104
    },
    {
      "midi": 67,
      "hit": false,
      "t": 218119.42100000044,
      "d": 397.0848645833321,
      "v": 127
    },
    {
      "midi": 67,
      "hit": false,
      "t": 218570.54700000043,
      "d": 183.26993750000838,
      "v": 108
    },
    {
      "midi": 70,
      "hit": false,
      "t": 218570.54700000043,
      "d": 183.26993750000838,
      "v": 91
    },
    {
      "midi": 70,
      "hit": false,
      "t": 218796.11000000042,
      "d": 361.8406458333193,
      "v": 100
    },
    {
      "midi": 67,
      "hit": false,
      "t": 218796.11000000042,
      "d": 382.98717708332697,
      "v": 122
    },
    {
      "midi": 70,
      "hit": false,
      "t": 219247.2360000004,
      "d": 387.68640624999534,
      "v": 104
    },
    {
      "midi": 67,
      "hit": false,
      "t": 219247.2360000004,
      "d": 397.0848645833321,
      "v": 127
    },
    {
      "midi": 67,
      "hit": false,
      "t": 219698.3620000004,
      "d": 206.76608333332115,
      "v": 127
    },
    {
      "midi": 70,
      "hit": false,
      "t": 219698.3620000004,
      "d": 209.11569791665534,
      "v": 104
    },
    {
      "midi": 60,
      "hit": false,
      "t": 220149.4880000004,
      "d": 411.1825520833372,
      "v": 127
    },
    {
      "midi": 70,
      "hit": false,
      "t": 220149.4880000004,
      "d": 434.6786979166791,
      "v": 110
    },
    {
      "midi": 74,
      "hit": false,
      "t": 220149.4880000004,
      "d": 476.97176041669445,
      "v": 122
    },
    {
      "midi": 75,
      "hit": false,
      "t": 220600.6140000004,
      "d": 392.3856354166637,
      "v": 104
    },
    {
      "midi": 60,
      "hit": false,
      "t": 220600.6140000004,
      "d": 1148.961531249981,
      "v": 127
    },
    {
      "midi": 72,
      "hit": false,
      "t": 221051.7400000004,
      "d": 265.5064479166758,
      "v": 108
    },
    {
      "midi": 70,
      "hit": false,
      "t": 221277.3030000004,
      "d": 404.13370833333465,
      "v": 104
    },
    {
      "midi": 74,
      "hit": false,
      "t": 221953.99200000038,
      "d": 824.7147187500086,
      "v": 117
    },
    {
      "midi": 70,
      "hit": false,
      "t": 221953.99200000038,
      "d": 843.5116354166821,
      "v": 104
    },
    {
      "midi": 65,
      "hit": false,
      "t": 221953.99200000038,
      "d": 845.8612500000163,
      "v": 108
    },
    {
      "midi": 69,
      "hit": false,
      "t": 222856.24400000038,
      "d": 763.6247395833198,
      "v": 127
    },
    {
      "midi": 65,
      "hit": false,
      "t": 222856.24400000038,
      "d": 770.6735833333223,
      "v": 91
    },
    {
      "midi": 72,
      "hit": false,
      "t": 222856.24400000038,
      "d": 770.6735833333223,
      "v": 113
    },
    {
      "midi": 70,
      "hit": false,
      "t": 223758.49600000036,
      "d": 108.0822708333435,
      "v": 110
    },
    {
      "midi": 65,
      "hit": false,
      "t": 223758.49600000036,
      "d": 119.83034375001444,
      "v": 104
    },
    {
      "midi": 74,
      "hit": false,
      "t": 223758.49600000036,
      "d": 136.27764583335374,
      "v": 113
    },
    {
      "midi": 46,
      "hit": false,
      "t": 223758.49600000036,
      "d": 150.37533333335887,
      "v": 110
    },
    {
      "midi": 70,
      "hit": false,
      "t": 223984.0590000004,
      "d": 124.5295729166537,
      "v": 100
    },
    {
      "midi": 65,
      "hit": false,
      "t": 223984.0590000004,
      "d": 131.57841666665627,
      "v": 88
    },
    {
      "midi": 46,
      "hit": false,
      "t": 223984.0590000004,
      "d": 133.92803124999045,
      "v": 83
    },
    {
      "midi": 74,
      "hit": false,
      "t": 223984.0590000004,
      "d": 138.62726041665883,
      "v": 104
    },
    {
      "midi": 46,
      "hit": false,
      "t": 224209.62200000038,
      "d": 119.83034375001444,
      "v": 95
    },
    {
      "midi": 70,
      "hit": false,
      "t": 224209.62200000038,
      "d": 124.52957291668281,
      "v": 100
    },
    {
      "midi": 65,
      "hit": false,
      "t": 224209.62200000038,
      "d": 138.62726041668793,
      "v": 86
    },
    {
      "midi": 74,
      "hit": false,
      "t": 224209.62200000038,
      "d": 138.62726041668793,
      "v": 113
    },
    {
      "midi": 74,
      "hit": false,
      "t": 224435.1850000004,
      "d": 385.33679166666116,
      "v": 122
    },
    {
      "midi": 70,
      "hit": false,
      "t": 224435.1850000004,
      "d": 390.03602083332953,
      "v": 110
    },
    {
      "midi": 65,
      "hit": false,
      "t": 224435.1850000004,
      "d": 404.13370833333465,
      "v": 97
    },
    {
      "midi": 46,
      "hit": false,
      "t": 224435.1850000004,
      "d": 850.5604791666556,
      "v": 104
    },
    {
      "midi": 65,
      "hit": false,
      "t": 224886.3110000004,
      "d": 150.37533333332976,
      "v": 94
    },
    {
      "midi": 70,
      "hit": false,
      "t": 224886.3110000004,
      "d": 155.07456249999814,
      "v": 104
    },
    {
      "midi": 70,
      "hit": false,
      "t": 225111.8740000004,
      "d": 169.17225000000326,
      "v": 95
    },
    {
      "midi": 65,
      "hit": false,
      "t": 225111.8740000004,
      "d": 171.52186458333745,
      "v": 81
    },
    {
      "midi": 72,
      "hit": false,
      "t": 225337.43700000038,
      "d": 392.3856354166637,
      "v": 127
    },
    {
      "midi": 65,
      "hit": false,
      "t": 225337.43700000038,
      "d": 406.48332291666884,
      "v": 97
    },
    {
      "midi": 46,
      "hit": false,
      "t": 225337.43700000038,
      "d": 1649.429437499959,
      "v": 91
    },
    {
      "midi": 70,
      "hit": false,
      "t": 225788.56300000037,
      "d": 380.6375624999928,
      "v": 110
    },
    {
      "midi": 65,
      "hit": false,
      "t": 225788.56300000037,
      "d": 394.7352499999979,
      "v": 94
    },
    {
      "midi": 65,
      "hit": false,
      "t": 226239.68900000036,
      "d": 373.5887187499902,
      "v": 101
    },
    {
      "midi": 72,
      "hit": false,
      "t": 226239.68900000036,
      "d": 390.03602083332953,
      "v": 117
    },
    {
      "midi": 65,
      "hit": false,
      "t": 226690.81500000035,
      "d": 528.6632812499884,
      "v": 97
    },
    {
      "midi": 74,
      "hit": false,
      "t": 226690.81500000035,
      "d": 578.0051874999772,
      "v": 122
    },
    {
      "midi": 69,
      "hit": false,
      "t": 227367.50400000034,
      "d": 131.57841666665627,
      "v": 127
    },
    {
      "midi": 50,
      "hit": false,
      "t": 227367.50400000034,
      "d": 136.27764583332464,
      "v": 127
    },
    {
      "midi": 74,
      "hit": false,
      "t": 227367.50400000034,
      "d": 162.1234062500007,
      "v": 122
    },
    {
      "midi": 50,
      "hit": false,
      "t": 227593.06700000033,
      "d": 117.48072916668025,
      "v": 113
    },
    {
      "midi": 69,
      "hit": false,
      "t": 227593.06700000033,
      "d": 122.17995833334862,
      "v": 108
    },
    {
      "midi": 74,
      "hit": false,
      "t": 227593.06700000033,
      "d": 138.62726041668793,
      "v": 97
    },
    {
      "midi": 50,
      "hit": false,
      "t": 227818.63000000035,
      "d": 105.73265625000931,
      "v": 117
    },
    {
      "midi": 69,
      "hit": false,
      "t": 227818.63000000035,
      "d": 119.83034375001444,
      "v": 113
    },
    {
      "midi": 74,
      "hit": false,
      "t": 227818.63000000035,
      "d": 122.17995833334862,
      "v": 108
    },
    {
      "midi": 69,
      "hit": false,
      "t": 228044.19300000038,
      "d": 352.44218750001164,
      "v": 122
    },
    {
      "midi": 74,
      "hit": false,
      "t": 228044.19300000038,
      "d": 359.4910312500142,
      "v": 122
    },
    {
      "midi": 50,
      "hit": false,
      "t": 228044.19300000038,
      "d": 2680.910239583376,
      "v": 117
    },
    {
      "midi": 75,
      "hit": false,
      "t": 228495.3190000004,
      "d": 317.19796874999884,
      "v": 95
    },
    {
      "midi": 69,
      "hit": false,
      "t": 228495.3190000004,
      "d": 338.3445000000065,
      "v": 122
    },
    {
      "midi": 69,
      "hit": false,
      "t": 228946.4450000004,
      "d": 397.0848645833321,
      "v": 113
    },
    {
      "midi": 74,
      "hit": false,
      "t": 228946.4450000004,
      "d": 415.8817812500056,
      "v": 117
    },
    {
      "midi": 65,
      "hit": false,
      "t": 229397.57100000043,
      "d": 382.98717708332697,
      "v": 113
    },
    {
      "midi": 69,
      "hit": false,
      "t": 229397.57100000043,
      "d": 390.03602083332953,
      "v": 127
    },
    {
      "midi": 74,
      "hit": false,
      "t": 229848.69700000042,
      "d": 352.44218750001164,
      "v": 113
    },
    {
      "midi": 69,
      "hit": false,
      "t": 229848.69700000042,
      "d": 368.88948958335095,
      "v": 113
    },
    {
      "midi": 69,
      "hit": false,
      "t": 230299.82300000044,
      "d": 364.1902604166535,
      "v": 127
    },
    {
      "midi": 72,
      "hit": false,
      "t": 230299.82300000044,
      "d": 371.23910416665603,
      "v": 127
    },
    {
      "midi": 72,
      "hit": false,
      "t": 230750.94900000043,
      "d": 425.28023958334234,
      "v": 127
    },
    {
      "midi": 55,
      "hit": false,
      "t": 230976.51200000042,
      "d": 3320.005406249955,
      "v": 122
    },
    {
      "midi": 70,
      "hit": false,
      "t": 231202.07500000045,
      "d": 202.06685416665277,
      "v": 104
    },
    {
      "midi": 69,
      "hit": false,
      "t": 231427.63800000044,
      "d": 164.47302083333489,
      "v": 101
    },
    {
      "midi": 70,
      "hit": false,
      "t": 231653.20100000044,
      "d": 368.88948958332185,
      "v": 104
    },
    {
      "midi": 67,
      "hit": false,
      "t": 231653.20100000044,
      "d": 378.2879479166586,
      "v": 127
    },
    {
      "midi": 70,
      "hit": false,
      "t": 232104.32700000043,
      "d": 375.9383333333244,
      "v": 87
    },
    {
      "midi": 67,
      "hit": false,
      "t": 232104.32700000043,
      "d": 392.3856354166637,
      "v": 113
    },
    {
      "midi": 70,
      "hit": false,
      "t": 232555.45300000042,
      "d": 392.3856354166637,
      "v": 104
    },
    {
      "midi": 67,
      "hit": false,
      "t": 232555.45300000042,
      "d": 397.0848645833321,
      "v": 127
    },
    {
      "midi": 67,
      "hit": false,
      "t": 233006.5790000004,
      "d": 183.26993750000838,
      "v": 108
    },
    {
      "midi": 70,
      "hit": false,
      "t": 233006.5790000004,
      "d": 183.26993750000838,
      "v": 91
    },
    {
      "midi": 70,
      "hit": false,
      "t": 233232.1420000004,
      "d": 361.8406458333193,
      "v": 100
    },
    {
      "midi": 67,
      "hit": false,
      "t": 233232.1420000004,
      "d": 382.98717708332697,
      "v": 122
    },
    {
      "midi": 70,
      "hit": false,
      "t": 233683.2680000004,
      "d": 387.68640624999534,
      "v": 104
    },
    {
      "midi": 67,
      "hit": false,
      "t": 233683.2680000004,
      "d": 397.0848645833321,
      "v": 127
    },
    {
      "midi": 67,
      "hit": false,
      "t": 234134.39400000038,
      "d": 206.76608333332115,
      "v": 127
    },
    {
      "midi": 70,
      "hit": false,
      "t": 234134.39400000038,
      "d": 209.11569791665534,
      "v": 104
    },
    {
      "midi": 60,
      "hit": false,
      "t": 234585.52000000037,
      "d": 411.1825520833372,
      "v": 127
    },
    {
      "midi": 70,
      "hit": false,
      "t": 234585.52000000037,
      "d": 434.6786979166791,
      "v": 110
    },
    {
      "midi": 74,
      "hit": false,
      "t": 234585.52000000037,
      "d": 476.97176041669445,
      "v": 122
    },
    {
      "midi": 75,
      "hit": false,
      "t": 235036.6460000004,
      "d": 392.3856354166637,
      "v": 104
    },
    {
      "midi": 60,
      "hit": false,
      "t": 235036.6460000004,
      "d": 1148.961531249981,
      "v": 127
    },
    {
      "midi": 72,
      "hit": false,
      "t": 235487.77200000038,
      "d": 265.5064479166758,
      "v": 108
    },
    {
      "midi": 70,
      "hit": false,
      "t": 235713.33500000037,
      "d": 404.13370833333465,
      "v": 104
    },
    {
      "midi": 74,
      "hit": false,
      "t": 236390.02400000035,
      "d": 824.7147187500086,
      "v": 117
    },
    {
      "midi": 70,
      "hit": false,
      "t": 236390.02400000035,
      "d": 843.5116354166821,
      "v": 104
    },
    {
      "midi": 65,
      "hit": false,
      "t": 236390.02400000035,
      "d": 845.8612500000163,
      "v": 108
    },
    {
      "midi": 69,
      "hit": false,
      "t": 237292.27600000036,
      "d": 763.6247395833198,
      "v": 127
    },
    {
      "midi": 65,
      "hit": false,
      "t": 237292.27600000036,
      "d": 770.6735833333223,
      "v": 91
    },
    {
      "midi": 72,
      "hit": false,
      "t": 237292.27600000036,
      "d": 770.6735833333223,
      "v": 113
    },
    {
      "midi": 70,
      "hit": false,
      "t": 238194.52800000034,
      "d": 1057.3265625000058,
      "v": 100
    },
    {
      "midi": 74,
      "hit": false,
      "t": 238194.52800000034,
      "d": 1057.3265625000058,
      "v": 113
    },
    {
      "midi": 70,
      "hit": false,
      "t": 239322.34300000034,
      "d": 185.61955208334257,
      "v": 71
    },
    {
      "midi": 74,
      "hit": false,
      "t": 239322.34300000034,
      "d": 187.96916666667676,
      "v": 83
    },
    {
      "midi": 74,
      "hit": false,
      "t": 239547.90600000037,
      "d": 157.42417708333232,
      "v": 71
    },
    {
      "midi": 70,
      "hit": false,
      "t": 239547.90600000037,
      "d": 169.17225000000326,
      "v": 71
    },
    {
      "midi": 70,
      "hit": false,
      "t": 239773.46900000036,
      "d": 1463.8098854166747,
      "v": 80
    },
    {
      "midi": 74,
      "hit": false,
      "t": 239773.46900000036,
      "d": 1463.8098854166747,
      "v": 91
    },
    {
      "midi": 74,
      "hit": false,
      "t": 241352.41000000038,
      "d": 328.94604166666977,
      "v": 88
    },
    {
      "midi": 70,
      "hit": false,
      "t": 241352.41000000038,
      "d": 373.5887187499902,
      "v": 95
    },
    {
      "midi": 74,
      "hit": false,
      "t": 241803.53600000037,
      "d": 989.1877395833435,
      "v": 86
    },
    {
      "midi": 69,
      "hit": false,
      "t": 241803.53600000037,
      "d": 998.5861979166802,
      "v": 113
    },
    {
      "midi": 74,
      "hit": false,
      "t": 242931.35100000037,
      "d": 152.72494791666395,
      "v": 86
    },
    {
      "midi": 69,
      "hit": false,
      "t": 242931.35100000037,
      "d": 164.47302083333489,
      "v": 86
    },
    {
      "midi": 74,
      "hit": false,
      "t": 243156.91400000037,
      "d": 138.62726041665883,
      "v": 79
    },
    {
      "midi": 69,
      "hit": false,
      "t": 243156.91400000037,
      "d": 150.37533333332976,
      "v": 81
    },
    {
      "midi": 69,
      "hit": false,
      "t": 243382.47700000036,
      "d": 1489.6556458333216,
      "v": 108
    },
    {
      "midi": 74,
      "hit": false,
      "t": 243382.47700000036,
      "d": 1489.6556458333216,
      "v": 101
    },
    {
      "midi": 74,
      "hit": false,
      "t": 244961.41800000035,
      "d": 333.64527083333815,
      "v": 91
    },
    {
      "midi": 69,
      "hit": false,
      "t": 244961.41800000035,
      "d": 352.44218750001164,
      "v": 97
    },
    {
      "midi": 70,
      "hit": false,
      "t": 245412.54400000037,
      "d": 1012.6838854166563,
      "v": 95
    },
    {
      "midi": 67,
      "hit": false,
      "t": 245412.54400000037,
      "d": 1033.830416666664,
      "v": 83
    },
    {
      "midi": 70,
      "hit": false,
      "t": 246540.35900000038,
      "d": 133.92803124999045,
      "v": 87
    },
    {
      "midi": 67,
      "hit": false,
      "t": 246540.35900000038,
      "d": 143.3264895833272,
      "v": 81
    },
    {
      "midi": 70,
      "hit": false,
      "t": 246765.92200000037,
      "d": 133.92803124999045,
      "v": 91
    },
    {
      "midi": 67,
      "hit": false,
      "t": 246765.92200000037,
      "d": 150.37533333332976,
      "v": 77
    },
    {
      "midi": 67,
      "hit": false,
      "t": 246991.48500000036,
      "d": 1459.1106562500063,
      "v": 86
    },
    {
      "midi": 70,
      "hit": false,
      "t": 246991.48500000036,
      "d": 1468.509114583343,
      "v": 91
    },
    {
      "midi": 70,
      "hit": false,
      "t": 248570.42600000039,
      "d": 382.98717708332697,
      "v": 91
    },
    {
      "midi": 67,
      "hit": false,
      "t": 248570.42600000039,
      "d": 390.03602083332953,
      "v": 113
    },
    {
      "midi": 70,
      "hit": false,
      "t": 249021.55200000037,
      "d": 1602.4371458333335,
      "v": 87
    },
    {
      "midi": 67,
      "hit": false,
      "t": 249021.55200000037,
      "d": 1625.9332916666754,
      "v": 113
    },
    {
      "midi": 74,
      "hit": false,
      "t": 250826.0560000004,
      "d": 817.665875000006,
      "v": 101
    },
    {
      "midi": 70,
      "hit": false,
      "t": 250826.0560000004,
      "d": 820.0154895833402,
      "v": 104
    },
    {
      "midi": 72,
      "hit": false,
      "t": 251728.3080000004,
      "d": 444.07715624998673,
      "v": 97
    },
    {
      "midi": 69,
      "hit": false,
      "t": 251728.3080000004,
      "d": 453.4756145833235,
      "v": 94
    },
    {
      "midi": 77,
      "hit": false,
      "t": 252630.56000000038,
      "d": 108.0822708333435,
      "v": 68
    },
    {
      "midi": 74,
      "hit": false,
      "t": 252630.56000000038,
      "d": 119.83034375001444,
      "v": 86
    },
    {
      "midi": 74,
      "hit": false,
      "t": 252856.1230000004,
      "d": 110.43188541667769,
      "v": 77
    },
    {
      "midi": 77,
      "hit": false,
      "t": 252856.1230000004,
      "d": 117.48072916668025,
      "v": 77
    },
    {
      "midi": 77,
      "hit": false,
      "t": 253081.68600000042,
      "d": 124.5295729166537,
      "v": 86
    },
    {
      "midi": 74,
      "hit": false,
      "t": 253081.68600000042,
      "d": 129.22880208332208,
      "v": 97
    },
    {
      "midi": 77,
      "hit": false,
      "t": 253307.24900000042,
      "d": 375.9383333333244,
      "v": 86
    },
    {
      "midi": 74,
      "hit": false,
      "t": 253307.24900000042,
      "d": 385.33679166666116,
      "v": 104
    },
    {
      "midi": 74,
      "hit": false,
      "t": 253758.3750000004,
      "d": 129.22880208332208,
      "v": 91
    },
    {
      "midi": 77,
      "hit": false,
      "t": 253758.3750000004,
      "d": 131.57841666665627,
      "v": 75
    },
    {
      "midi": 74,
      "hit": false,
      "t": 253983.9380000004,
      "d": 112.78150000001187,
      "v": 79
    },
    {
      "midi": 77,
      "hit": false,
      "t": 253983.9380000004,
      "d": 131.57841666668537,
      "v": 91
    },
    {
      "midi": 77,
      "hit": false,
      "t": 254209.50100000043,
      "d": 594.4524895833456,
      "v": 94
    },
    {
      "midi": 74,
      "hit": false,
      "t": 254209.50100000043,
      "d": 599.151718750014,
      "v": 104
    },
    {
      "midi": 77,
      "hit": false,
      "t": 254886.19000000044,
      "d": 387.68640624999534,
      "v": 91
    },
    {
      "midi": 74,
      "hit": false,
      "t": 254886.19000000044,
      "d": 392.3856354166637,
      "v": 91
    },
    {
      "midi": 74,
      "hit": false,
      "t": 255337.31600000043,
      "d": 382.98717708332697,
      "v": 88
    },
    {
      "midi": 77,
      "hit": false,
      "t": 255337.31600000043,
      "d": 385.33679166666116,
      "v": 94
    },
    {
      "midi": 77,
      "hit": false,
      "t": 255788.44200000042,
      "d": 347.74295833334327,
      "v": 83
    },
    {
      "midi": 74,
      "hit": false,
      "t": 255788.44200000042,
      "d": 366.53987500001676,
      "v": 88
    },
    {
      "midi": 74,
      "hit": false,
      "t": 256239.56800000044,
      "d": 159.7737916666665,
      "v": 79
    },
    {
      "midi": 77,
      "hit": false,
      "t": 256239.56800000044,
      "d": 164.47302083333489,
      "v": 81
    },
    {
      "midi": 74,
      "hit": false,
      "t": 256465.13100000043,
      "d": 148.02571874999558,
      "v": 79
    },
    {
      "midi": 77,
      "hit": false,
      "t": 256465.13100000043,
      "d": 157.42417708333232,
      "v": 79
    },
    {
      "midi": 74,
      "hit": false,
      "t": 256690.69400000043,
      "d": 152.72494791666395,
      "v": 81
    },
    {
      "midi": 77,
      "hit": false,
      "t": 256690.69400000043,
      "d": 152.72494791666395,
      "v": 91
    },
    {
      "midi": 77,
      "hit": false,
      "t": 256916.25700000042,
      "d": 347.74295833334327,
      "v": 94
    },
    {
      "midi": 74,
      "hit": false,
      "t": 256916.25700000042,
      "d": 364.1902604166826,
      "v": 86
    },
    {
      "midi": 74,
      "hit": false,
      "t": 257367.38300000044,
      "d": 117.48072916668025,
      "v": 86
    },
    {
      "midi": 77,
      "hit": false,
      "t": 257367.38300000044,
      "d": 126.879187500017,
      "v": 83
    },
    {
      "midi": 77,
      "hit": false,
      "t": 257592.94600000046,
      "d": 124.5295729166537,
      "v": 86
    },
    {
      "midi": 74,
      "hit": false,
      "t": 257592.94600000046,
      "d": 126.87918749998789,
      "v": 88
    },
    {
      "midi": 74,
      "hit": false,
      "t": 257818.50900000046,
      "d": 556.8586562499986,
      "v": 91
    },
    {
      "midi": 77,
      "hit": false,
      "t": 257818.50900000046,
      "d": 556.8586562499986,
      "v": 94
    },
    {
      "midi": 74,
      "hit": false,
      "t": 258495.19800000047,
      "d": 392.3856354166637,
      "v": 101
    },
    {
      "midi": 74,
      "hit": false,
      "t": 258946.32400000046,
      "d": 373.5887187499902,
      "v": 91
    },
    {
      "midi": 74,
      "hit": false,
      "t": 259397.45000000045,
      "d": 357.14141666668,
      "v": 91
    },
    {
      "midi": 79,
      "hit": false,
      "t": 259848.57600000047,
      "d": 112.78150000001187,
      "v": 71
    },
    {
      "midi": 74,
      "hit": false,
      "t": 259848.57600000047,
      "d": 131.57841666668537,
      "v": 83
    },
    {
      "midi": 79,
      "hit": false,
      "t": 260074.1390000005,
      "d": 133.92803124999045,
      "v": 77
    },
    {
      "midi": 74,
      "hit": false,
      "t": 260074.1390000005,
      "d": 138.62726041665883,
      "v": 83
    },
    {
      "midi": 79,
      "hit": false,
      "t": 260299.70200000048,
      "d": 133.92803124999045,
      "v": 81
    },
    {
      "midi": 74,
      "hit": false,
      "t": 260299.70200000048,
      "d": 143.3264895833272,
      "v": 83
    },
    {
      "midi": 79,
      "hit": false,
      "t": 260525.26500000048,
      "d": 359.4910312500142,
      "v": 81
    },
    {
      "midi": 74,
      "hit": false,
      "t": 260525.26500000048,
      "d": 378.2879479166877,
      "v": 88
    },
    {
      "midi": 79,
      "hit": false,
      "t": 260976.3910000005,
      "d": 140.97687499999302,
      "v": 79
    },
    {
      "midi": 74,
      "hit": false,
      "t": 260976.3910000005,
      "d": 148.02571874999558,
      "v": 86
    },
    {
      "midi": 79,
      "hit": false,
      "t": 261201.9540000005,
      "d": 129.22880208332208,
      "v": 73
    },
    {
      "midi": 74,
      "hit": false,
      "t": 261201.9540000005,
      "d": 131.57841666665627,
      "v": 75
    },
    {
      "midi": 79,
      "hit": false,
      "t": 261427.5170000005,
      "d": 354.79180208334583,
      "v": 83
    },
    {
      "midi": 74,
      "hit": false,
      "t": 261427.5170000005,
      "d": 361.8406458333484,
      "v": 83
    },
    {
      "midi": 70,
      "hit": false,
      "t": 261878.6430000005,
      "d": 599.151718750014,
      "v": 65
    },
    {
      "midi": 74,
      "hit": false,
      "t": 261878.6430000005,
      "d": 622.6478645833558,
      "v": 88
    },
    {
      "midi": 70,
      "hit": false,
      "t": 262555.3320000005,
      "d": 335.9948854166432,
      "v": 59
    },
    {
      "midi": 74,
      "hit": false,
      "t": 262555.3320000005,
      "d": 373.5887187499902,
      "v": 94
    },
    {
      "midi": 74,
      "hit": false,
      "t": 263006.4580000005,
      "d": 220.86377083335537,
      "v": 101
    },
    {
      "midi": 70,
      "hit": false,
      "t": 263006.4580000005,
      "d": 227.91261458332883,
      "v": 73
    },
    {
      "midi": 74,
      "hit": false,
      "t": 263908.7100000005,
      "d": 361.8406458333484,
      "v": 77
    },
    {
      "midi": 70,
      "hit": false,
      "t": 263908.7100000005,
      "d": 380.6375625000219,
      "v": 59
    },
    {
      "midi": 70,
      "hit": false,
      "t": 264359.83600000053,
      "d": 397.0848645833321,
      "v": 59
    },
    {
      "midi": 74,
      "hit": false,
      "t": 264359.83600000053,
      "d": 401.78409375000047,
      "v": 88
    },
    {
      "midi": 74,
      "hit": false,
      "t": 264810.9620000005,
      "d": 352.44218750001164,
      "v": 83
    },
    {
      "midi": 70,
      "hit": false,
      "t": 264810.9620000005,
      "d": 371.23910416668514,
      "v": 71
    },
    {
      "midi": 70,
      "hit": false,
      "t": 265262.0880000006,
      "d": 758.9255104166805,
      "v": 87
    },
    {
      "midi": 74,
      "hit": false,
      "t": 265262.0880000006,
      "d": 791.8201145833591,
      "v": 91
    }
  ]
}