{
  "jsonPath": "Ambient/Lounge/101 Strings Orchestra/stranger-on-the-shore.json",
  "path": "Ambient\\Lounge\\101 Strings Orchestra\\Stranger On the Shore.mid",
  "name": "Stranger On the Shore",
  "difficulty": "Intermediate",
  "bpm": 88.00002346667293,
  "notes": [
    {
      "midi": 62,
      "hit": false,
      "t": 2727.2719999999995,
      "d": 1356.533729166667,
      "v": 69
    },
    {
      "midi": 65,
      "hit": false,
      "t": 2727.2719999999995,
      "d": 1356.533729166667,
      "v": 62
    },
    {
      "midi": 70,
      "hit": false,
      "t": 2727.2719999999995,
      "d": 1356.533729166667,
      "v": 67
    },
    {
      "midi": 59,
      "hit": false,
      "t": 4090.908,
      "d": 1356.533729166667,
      "v": 63
    },
    {
      "midi": 62,
      "hit": false,
      "t": 4090.908,
      "d": 1356.533729166667,
      "v": 58
    },
    {
      "midi": 68,
      "hit": false,
      "t": 4090.908,
      "d": 1356.533729166667,
      "v": 62
    },
    {
      "midi": 67,
      "hit": false,
      "t": 5454.544,
      "d": 1356.5337291666665,
      "v": 60
    },
    {
      "midi": 60,
      "hit": false,
      "t": 5454.544,
      "d": 1789.772249999999,
      "v": 59
    },
    {
      "midi": 63,
      "hit": false,
      "t": 5454.544,
      "d": 1789.772249999999,
      "v": 57
    },
    {
      "midi": 69,
      "hit": false,
      "t": 6818.179999999999,
      "d": 426.13624999999956,
      "v": 66
    },
    {
      "midi": 60,
      "hit": false,
      "t": 7251.418520833332,
      "d": 923.295208333333,
      "v": 54
    },
    {
      "midi": 63,
      "hit": false,
      "t": 7251.418520833332,
      "d": 923.295208333333,
      "v": 65
    },
    {
      "midi": 69,
      "hit": false,
      "t": 7251.418520833332,
      "d": 923.295208333333,
      "v": 62
    },
    {
      "midi": 62,
      "hit": false,
      "t": 8181.815999999998,
      "d": 1356.5337291666665,
      "v": 55
    },
    {
      "midi": 65,
      "hit": false,
      "t": 8181.815999999998,
      "d": 1356.5337291666665,
      "v": 62
    },
    {
      "midi": 70,
      "hit": false,
      "t": 8181.815999999998,
      "d": 1356.5337291666665,
      "v": 65
    },
    {
      "midi": 62,
      "hit": false,
      "t": 9545.451999999997,
      "d": 1356.5337291666674,
      "v": 63
    },
    {
      "midi": 65,
      "hit": false,
      "t": 9545.451999999997,
      "d": 1356.5337291666674,
      "v": 65
    },
    {
      "midi": 68,
      "hit": false,
      "t": 9545.451999999997,
      "d": 1356.5337291666674,
      "v": 69
    },
    {
      "midi": 58,
      "hit": false,
      "t": 10909.087999999998,
      "d": 1789.77225,
      "v": 67
    },
    {
      "midi": 63,
      "hit": false,
      "t": 10909.087999999998,
      "d": 1789.77225,
      "v": 63
    },
    {
      "midi": 67,
      "hit": false,
      "t": 10909.087999999998,
      "d": 1789.77225,
      "v": 60
    },
    {
      "midi": 58,
      "hit": false,
      "t": 12705.962520833331,
      "d": 923.295208333333,
      "v": 56
    },
    {
      "midi": 63,
      "hit": false,
      "t": 12705.962520833331,
      "d": 923.295208333333,
      "v": 61
    },
    {
      "midi": 67,
      "hit": false,
      "t": 12705.962520833331,
      "d": 923.295208333333,
      "v": 63
    },
    {
      "midi": 62,
      "hit": false,
      "t": 13636.359999999997,
      "d": 1356.5337291666674,
      "v": 63
    },
    {
      "midi": 65,
      "hit": false,
      "t": 13636.359999999997,
      "d": 1356.5337291666674,
      "v": 69
    },
    {
      "midi": 70,
      "hit": false,
      "t": 13636.359999999997,
      "d": 1356.5337291666674,
      "v": 60
    },
    {
      "midi": 58,
      "hit": false,
      "t": 14999.995999999997,
      "d": 1356.5337291666674,
      "v": 67
    },
    {
      "midi": 62,
      "hit": false,
      "t": 14999.995999999997,
      "d": 1356.5337291666674,
      "v": 68
    },
    {
      "midi": 67,
      "hit": false,
      "t": 14999.995999999997,
      "d": 1356.5337291666674,
      "v": 63
    },
    {
      "midi": 60,
      "hit": false,
      "t": 16363.631999999998,
      "d": 1789.7722500000018,
      "v": 57
    },
    {
      "midi": 64,
      "hit": false,
      "t": 16363.631999999998,
      "d": 1789.7722500000018,
      "v": 59
    },
    {
      "midi": 67,
      "hit": false,
      "t": 16363.631999999998,
      "d": 1789.7722500000018,
      "v": 56
    },
    {
      "midi": 60,
      "hit": false,
      "t": 18160.506520833333,
      "d": 923.295208333333,
      "v": 56
    },
    {
      "midi": 64,
      "hit": false,
      "t": 18160.506520833333,
      "d": 923.295208333333,
      "v": 68
    },
    {
      "midi": 67,
      "hit": false,
      "t": 18160.506520833333,
      "d": 923.295208333333,
      "v": 57
    },
    {
      "midi": 60,
      "hit": false,
      "t": 19090.904,
      "d": 1356.5337291666656,
      "v": 64
    },
    {
      "midi": 63,
      "hit": false,
      "t": 19090.904,
      "d": 1356.5337291666656,
      "v": 64
    },
    {
      "midi": 67,
      "hit": false,
      "t": 19090.904,
      "d": 1356.5337291666656,
      "v": 67
    },
    {
      "midi": 60,
      "hit": false,
      "t": 20454.539999999997,
      "d": 1356.5337291666656,
      "v": 52
    },
    {
      "midi": 63,
      "hit": false,
      "t": 20454.539999999997,
      "d": 1356.5337291666656,
      "v": 61
    },
    {
      "midi": 67,
      "hit": false,
      "t": 20454.539999999997,
      "d": 1356.5337291666656,
      "v": 62
    },
    {
      "midi": 60,
      "hit": false,
      "t": 21818.175999999996,
      "d": 1796.8745208333348,
      "v": 54
    },
    {
      "midi": 63,
      "hit": false,
      "t": 21818.175999999996,
      "d": 1796.8745208333348,
      "v": 61
    },
    {
      "midi": 69,
      "hit": false,
      "t": 21818.175999999996,
      "d": 1796.8745208333348,
      "v": 61
    },
    {
      "midi": 60,
      "hit": false,
      "t": 23622.152791666664,
      "d": 916.1929375,
      "v": 66
    },
    {
      "midi": 63,
      "hit": false,
      "t": 23622.152791666664,
      "d": 916.1929375,
      "v": 61
    },
    {
      "midi": 69,
      "hit": false,
      "t": 23622.152791666664,
      "d": 916.1929375,
      "v": 69
    },
    {
      "midi": 62,
      "hit": false,
      "t": 24545.447999999997,
      "d": 1356.5337291666656,
      "v": 68
    },
    {
      "midi": 65,
      "hit": false,
      "t": 24545.447999999997,
      "d": 1356.5337291666656,
      "v": 69
    },
    {
      "midi": 70,
      "hit": false,
      "t": 24545.447999999997,
      "d": 1356.5337291666656,
      "v": 65
    },
    {
      "midi": 59,
      "hit": false,
      "t": 25909.083999999995,
      "d": 1356.5337291666656,
      "v": 54
    },
    {
      "midi": 62,
      "hit": false,
      "t": 25909.083999999995,
      "d": 1356.5337291666656,
      "v": 67
    },
    {
      "midi": 68,
      "hit": false,
      "t": 25909.083999999995,
      "d": 1356.5337291666656,
      "v": 66
    },
    {
      "midi": 67,
      "hit": false,
      "t": 27272.719999999994,
      "d": 1356.5337291666656,
      "v": 62
    },
    {
      "midi": 60,
      "hit": false,
      "t": 27272.719999999994,
      "d": 1789.7722499999982,
      "v": 55
    },
    {
      "midi": 63,
      "hit": false,
      "t": 27272.719999999994,
      "d": 1789.7722499999982,
      "v": 69
    },
    {
      "midi": 69,
      "hit": false,
      "t": 28636.355999999992,
      "d": 426.13624999999956,
      "v": 58
    },
    {
      "midi": 60,
      "hit": false,
      "t": 29069.594520833325,
      "d": 923.295208333333,
      "v": 54
    },
    {
      "midi": 63,
      "hit": false,
      "t": 29069.594520833325,
      "d": 923.295208333333,
      "v": 65
    },
    {
      "midi": 69,
      "hit": false,
      "t": 29069.594520833325,
      "d": 923.295208333333,
      "v": 68
    },
    {
      "midi": 62,
      "hit": false,
      "t": 29999.99199999999,
      "d": 1356.5337291666656,
      "v": 66
    },
    {
      "midi": 65,
      "hit": false,
      "t": 29999.99199999999,
      "d": 1356.5337291666656,
      "v": 66
    },
    {
      "midi": 70,
      "hit": false,
      "t": 29999.99199999999,
      "d": 1356.5337291666656,
      "v": 61
    },
    {
      "midi": 62,
      "hit": false,
      "t": 31363.62799999999,
      "d": 1356.5337291666656,
      "v": 63
    },
    {
      "midi": 65,
      "hit": false,
      "t": 31363.62799999999,
      "d": 1356.5337291666656,
      "v": 54
    },
    {
      "midi": 68,
      "hit": false,
      "t": 31363.62799999999,
      "d": 1356.5337291666656,
      "v": 66
    },
    {
      "midi": 67,
      "hit": false,
      "t": 32727.26399999999,
      "d": 1356.5337291666656,
      "v": 57
    },
    {
      "midi": 58,
      "hit": false,
      "t": 32727.26399999999,
      "d": 1789.7722500000018,
      "v": 64
    },
    {
      "midi": 63,
      "hit": false,
      "t": 32727.26399999999,
      "d": 1789.7722500000018,
      "v": 52
    },
    {
      "midi": 66,
      "hit": false,
      "t": 34090.89999999999,
      "d": 426.1362500000032,
      "v": 65
    },
    {
      "midi": 58,
      "hit": false,
      "t": 34524.13852083332,
      "d": 923.2952083333366,
      "v": 60
    },
    {
      "midi": 63,
      "hit": false,
      "t": 34524.13852083332,
      "d": 923.2952083333366,
      "v": 61
    },
    {
      "midi": 66,
      "hit": false,
      "t": 34524.13852083332,
      "d": 923.2952083333366,
      "v": 63
    },
    {
      "midi": 62,
      "hit": false,
      "t": 35454.53599999999,
      "d": 1356.5337291666656,
      "v": 60
    },
    {
      "midi": 65,
      "hit": false,
      "t": 35454.53599999999,
      "d": 1356.5337291666656,
      "v": 66
    },
    {
      "midi": 70,
      "hit": false,
      "t": 35454.53599999999,
      "d": 1356.5337291666656,
      "v": 60
    },
    {
      "midi": 58,
      "hit": false,
      "t": 36818.17199999999,
      "d": 1356.5337291666656,
      "v": 59
    },
    {
      "midi": 62,
      "hit": false,
      "t": 36818.17199999999,
      "d": 1356.5337291666656,
      "v": 57
    },
    {
      "midi": 67,
      "hit": false,
      "t": 36818.17199999999,
      "d": 1356.5337291666656,
      "v": 59
    },
    {
      "midi": 69,
      "hit": false,
      "t": 38181.80799999999,
      "d": 1356.5337291666656,
      "v": 69
    },
    {
      "midi": 62,
      "hit": false,
      "t": 38181.80799999999,
      "d": 1789.7722500000018,
      "v": 66
    },
    {
      "midi": 65,
      "hit": false,
      "t": 38181.80799999999,
      "d": 1789.7722500000018,
      "v": 66
    },
    {
      "midi": 68,
      "hit": false,
      "t": 39545.44399999999,
      "d": 426.1362500000032,
      "v": 57
    },
    {
      "midi": 62,
      "hit": false,
      "t": 39978.682520833325,
      "d": 923.2952083333366,
      "v": 54
    },
    {
      "midi": 65,
      "hit": false,
      "t": 39978.682520833325,
      "d": 923.2952083333366,
      "v": 62
    },
    {
      "midi": 68,
      "hit": false,
      "t": 39978.682520833325,
      "d": 923.2952083333366,
      "v": 66
    },
    {
      "midi": 60,
      "hit": false,
      "t": 40909.079999999994,
      "d": 1356.5337291666656,
      "v": 66
    },
    {
      "midi": 63,
      "hit": false,
      "t": 40909.079999999994,
      "d": 1356.5337291666656,
      "v": 63
    },
    {
      "midi": 67,
      "hit": false,
      "t": 40909.079999999994,
      "d": 1356.5337291666656,
      "v": 62
    },
    {
      "midi": 60,
      "hit": false,
      "t": 42272.71599999999,
      "d": 1356.5337291666656,
      "v": 55
    },
    {
      "midi": 63,
      "hit": false,
      "t": 42272.71599999999,
      "d": 1356.5337291666656,
      "v": 69
    },
    {
      "midi": 69,
      "hit": false,
      "t": 42272.71599999999,
      "d": 1356.5337291666656,
      "v": 64
    },
    {
      "midi": 70,
      "hit": false,
      "t": 43636.35199999999,
      "d": 1356.5337291666656,
      "v": 69
    },
    {
      "midi": 62,
      "hit": false,
      "t": 43636.35199999999,
      "d": 1789.7722500000018,
      "v": 63
    },
    {
      "midi": 65,
      "hit": false,
      "t": 43636.35199999999,
      "d": 1789.7722500000018,
      "v": 69
    },
    {
      "midi": 68,
      "hit": false,
      "t": 44999.98799999999,
      "d": 426.1362500000032,
      "v": 69
    },
    {
      "midi": 62,
      "hit": false,
      "t": 45433.22652083333,
      "d": 923.2952083333366,
      "v": 68
    },
    {
      "midi": 65,
      "hit": false,
      "t": 45433.22652083333,
      "d": 923.2952083333366,
      "v": 57
    },
    {
      "midi": 68,
      "hit": false,
      "t": 45433.22652083333,
      "d": 923.2952083333366,
      "v": 69
    },
    {
      "midi": 58,
      "hit": false,
      "t": 46363.623999999996,
      "d": 1356.5337291666656,
      "v": 57
    },
    {
      "midi": 63,
      "hit": false,
      "t": 46363.623999999996,
      "d": 1356.5337291666656,
      "v": 68
    },
    {
      "midi": 67,
      "hit": false,
      "t": 46363.623999999996,
      "d": 1356.5337291666656,
      "v": 63
    },
    {
      "midi": 58,
      "hit": false,
      "t": 47727.259999999995,
      "d": 1356.5337291666656,
      "v": 68
    },
    {
      "midi": 63,
      "hit": false,
      "t": 47727.259999999995,
      "d": 1356.5337291666656,
      "v": 57
    },
    {
      "midi": 67,
      "hit": false,
      "t": 47727.259999999995,
      "d": 1356.5337291666656,
      "v": 69
    },
    {
      "midi": 62,
      "hit": false,
      "t": 49090.89599999999,
      "d": 1789.7722500000018,
      "v": 61
    },
    {
      "midi": 65,
      "hit": false,
      "t": 49090.89599999999,
      "d": 1789.7722500000018,
      "v": 62
    },
    {
      "midi": 70,
      "hit": false,
      "t": 49090.89599999999,
      "d": 1789.7722500000018,
      "v": 63
    },
    {
      "midi": 62,
      "hit": false,
      "t": 50887.77052083333,
      "d": 923.2952083333366,
      "v": 64
    },
    {
      "midi": 65,
      "hit": false,
      "t": 50887.77052083333,
      "d": 923.2952083333366,
      "v": 69
    },
    {
      "midi": 70,
      "hit": false,
      "t": 50887.77052083333,
      "d": 923.2952083333366,
      "v": 63
    },
    {
      "midi": 60,
      "hit": false,
      "t": 51818.168,
      "d": 1356.5337291666656,
      "v": 54
    },
    {
      "midi": 63,
      "hit": false,
      "t": 51818.168,
      "d": 1356.5337291666656,
      "v": 67
    },
    {
      "midi": 67,
      "hit": false,
      "t": 51818.168,
      "d": 1356.5337291666656,
      "v": 62
    },
    {
      "midi": 60,
      "hit": false,
      "t": 53181.804,
      "d": 1356.5337291666656,
      "v": 65
    },
    {
      "midi": 63,
      "hit": false,
      "t": 53181.804,
      "d": 1356.5337291666656,
      "v": 61
    },
    {
      "midi": 69,
      "hit": false,
      "t": 53181.804,
      "d": 1356.5337291666656,
      "v": 65
    },
    {
      "midi": 70,
      "hit": false,
      "t": 54545.439999999995,
      "d": 1356.5337291666656,
      "v": 60
    },
    {
      "midi": 62,
      "hit": false,
      "t": 54545.439999999995,
      "d": 1789.7722500000018,
      "v": 56
    },
    {
      "midi": 65,
      "hit": false,
      "t": 54545.439999999995,
      "d": 1789.7722500000018,
      "v": 64
    },
    {
      "midi": 68,
      "hit": false,
      "t": 55909.075999999994,
      "d": 426.1362500000032,
      "v": 66
    },
    {
      "midi": 62,
      "hit": false,
      "t": 56342.31452083333,
      "d": 923.2952083333366,
      "v": 65
    },
    {
      "midi": 65,
      "hit": false,
      "t": 56342.31452083333,
      "d": 923.2952083333366,
      "v": 66
    },
    {
      "midi": 68,
      "hit": false,
      "t": 56342.31452083333,
      "d": 923.2952083333366,
      "v": 64
    },
    {
      "midi": 58,
      "hit": false,
      "t": 57272.712,
      "d": 1356.5337291666656,
      "v": 62
    },
    {
      "midi": 63,
      "hit": false,
      "t": 57272.712,
      "d": 1356.5337291666656,
      "v": 68
    },
    {
      "midi": 67,
      "hit": false,
      "t": 57272.712,
      "d": 1356.5337291666656,
      "v": 64
    },
    {
      "midi": 60,
      "hit": false,
      "t": 58636.348,
      "d": 1356.5337291666656,
      "v": 69
    },
    {
      "midi": 63,
      "hit": false,
      "t": 58636.348,
      "d": 1356.5337291666656,
      "v": 66
    },
    {
      "midi": 67,
      "hit": false,
      "t": 58636.348,
      "d": 1356.5337291666656,
      "v": 64
    },
    {
      "midi": 62,
      "hit": false,
      "t": 59999.984,
      "d": 1356.5337291666656,
      "v": 68
    },
    {
      "midi": 65,
      "hit": false,
      "t": 59999.984,
      "d": 1356.5337291666656,
      "v": 68
    },
    {
      "midi": 69,
      "hit": false,
      "t": 59999.984,
      "d": 1356.5337291666656,
      "v": 61
    },
    {
      "midi": 59,
      "hit": false,
      "t": 61363.619999999995,
      "d": 426.1362500000032,
      "v": 58
    },
    {
      "midi": 62,
      "hit": false,
      "t": 61363.619999999995,
      "d": 426.1362500000032,
      "v": 63
    },
    {
      "midi": 65,
      "hit": false,
      "t": 61363.619999999995,
      "d": 426.1362500000032,
      "v": 69
    },
    {
      "midi": 59,
      "hit": false,
      "t": 61796.85852083333,
      "d": 923.2952083333366,
      "v": 67
    },
    {
      "midi": 62,
      "hit": false,
      "t": 61796.85852083333,
      "d": 923.2952083333366,
      "v": 59
    },
    {
      "midi": 65,
      "hit": false,
      "t": 61796.85852083333,
      "d": 923.2952083333366,
      "v": 64
    },
    {
      "midi": 60,
      "hit": false,
      "t": 62727.256,
      "d": 1356.5337291666656,
      "v": 69
    },
    {
      "midi": 64,
      "hit": false,
      "t": 62727.256,
      "d": 1356.5337291666656,
      "v": 57
    },
    {
      "midi": 67,
      "hit": false,
      "t": 62727.256,
      "d": 1356.5337291666656,
      "v": 60
    },
    {
      "midi": 58,
      "hit": false,
      "t": 64090.892,
      "d": 1356.5337291666656,
      "v": 68
    },
    {
      "midi": 64,
      "hit": false,
      "t": 64090.892,
      "d": 1356.5337291666656,
      "v": 64
    },
    {
      "midi": 67,
      "hit": false,
      "t": 64090.892,
      "d": 1356.5337291666656,
      "v": 60
    },
    {
      "midi": 65,
      "hit": false,
      "t": 65454.528,
      "d": 1356.5337291666729,
      "v": 69
    },
    {
      "midi": 60,
      "hit": false,
      "t": 65454.528,
      "d": 1789.7722500000018,
      "v": 63
    },
    {
      "midi": 69,
      "hit": false,
      "t": 65454.528,
      "d": 1789.7722500000018,
      "v": 61
    },
    {
      "midi": 63,
      "hit": false,
      "t": 66818.164,
      "d": 426.1362499999959,
      "v": 51
    },
    {
      "midi": 60,
      "hit": false,
      "t": 67251.40252083333,
      "d": 923.2952083333366,
      "v": 62
    },
    {
      "midi": 63,
      "hit": false,
      "t": 67251.40252083333,
      "d": 923.2952083333366,
      "v": 63
    },
    {
      "midi": 69,
      "hit": false,
      "t": 67251.40252083333,
      "d": 923.2952083333366,
      "v": 55
    },
    {
      "midi": 62,
      "hit": false,
      "t": 68181.8,
      "d": 1356.5337291666656,
      "v": 59
    },
    {
      "midi": 65,
      "hit": false,
      "t": 68181.8,
      "d": 1356.5337291666656,
      "v": 68
    },
    {
      "midi": 70,
      "hit": false,
      "t": 68181.8,
      "d": 1356.5337291666656,
      "v": 63
    },
    {
      "midi": 59,
      "hit": false,
      "t": 69545.436,
      "d": 1356.5337291666656,
      "v": 53
    },
    {
      "midi": 62,
      "hit": false,
      "t": 69545.436,
      "d": 1356.5337291666656,
      "v": 67
    },
    {
      "midi": 68,
      "hit": false,
      "t": 69545.436,
      "d": 1356.5337291666656,
      "v": 64
    },
    {
      "midi": 67,
      "hit": false,
      "t": 70909.072,
      "d": 1356.5337291666656,
      "v": 60
    },
    {
      "midi": 60,
      "hit": false,
      "t": 70909.072,
      "d": 1789.7722499999945,
      "v": 59
    },
    {
      "midi": 63,
      "hit": false,
      "t": 70909.072,
      "d": 1789.7722499999945,
      "v": 59
    },
    {
      "midi": 69,
      "hit": false,
      "t": 72272.708,
      "d": 426.1362499999959,
      "v": 55
    },
    {
      "midi": 60,
      "hit": false,
      "t": 72705.94652083333,
      "d": 923.2952083333366,
      "v": 69
    },
    {
      "midi": 63,
      "hit": false,
      "t": 72705.94652083333,
      "d": 923.2952083333366,
      "v": 64
    },
    {
      "midi": 69,
      "hit": false,
      "t": 72705.94652083333,
      "d": 923.2952083333366,
      "v": 67
    },
    {
      "midi": 62,
      "hit": false,
      "t": 73636.344,
      "d": 1356.5337291666656,
      "v": 63
    },
    {
      "midi": 65,
      "hit": false,
      "t": 73636.344,
      "d": 1356.5337291666656,
      "v": 56
    },
    {
      "midi": 70,
      "hit": false,
      "t": 73636.344,
      "d": 1356.5337291666656,
      "v": 63
    },
    {
      "midi": 62,
      "hit": false,
      "t": 74999.98,
      "d": 1356.5337291666656,
      "v": 63
    },
    {
      "midi": 65,
      "hit": false,
      "t": 74999.98,
      "d": 1356.5337291666656,
      "v": 60
    },
    {
      "midi": 68,
      "hit": false,
      "t": 74999.98,
      "d": 1356.5337291666656,
      "v": 65
    },
    {
      "midi": 58,
      "hit": false,
      "t": 76363.616,
      "d": 1796.8745208333276,
      "v": 60
    },
    {
      "midi": 63,
      "hit": false,
      "t": 76363.616,
      "d": 1796.8745208333276,
      "v": 69
    },
    {
      "midi": 67,
      "hit": false,
      "t": 76363.616,
      "d": 1796.8745208333276,
      "v": 57
    },
    {
      "midi": 58,
      "hit": false,
      "t": 78167.59279166666,
      "d": 916.1929375000036,
      "v": 53
    },
    {
      "midi": 63,
      "hit": false,
      "t": 78167.59279166666,
      "d": 916.1929375000036,
      "v": 62
    },
    {
      "midi": 67,
      "hit": false,
      "t": 78167.59279166666,
      "d": 916.1929375000036,
      "v": 69
    },
    {
      "midi": 62,
      "hit": false,
      "t": 79090.88799999999,
      "d": 1356.5337291666656,
      "v": 69
    },
    {
      "midi": 65,
      "hit": false,
      "t": 79090.88799999999,
      "d": 1356.5337291666656,
      "v": 65
    },
    {
      "midi": 70,
      "hit": false,
      "t": 79090.88799999999,
      "d": 1356.5337291666656,
      "v": 68
    },
    {
      "midi": 58,
      "hit": false,
      "t": 80454.52399999999,
      "d": 1356.5337291666656,
      "v": 59
    },
    {
      "midi": 62,
      "hit": false,
      "t": 80454.52399999999,
      "d": 1356.5337291666656,
      "v": 58
    },
    {
      "midi": 67,
      "hit": false,
      "t": 80454.52399999999,
      "d": 1356.5337291666656,
      "v": 62
    },
    {
      "midi": 62,
      "hit": false,
      "t": 81818.15999999999,
      "d": 1789.7722499999945,
      "v": 66
    },
    {
      "midi": 65,
      "hit": false,
      "t": 81818.15999999999,
      "d": 1789.7722499999945,
      "v": 67
    },
    {
      "midi": 69,
      "hit": false,
      "t": 81818.15999999999,
      "d": 1789.7722499999945,
      "v": 68
    },
    {
      "midi": 62,
      "hit": false,
      "t": 83615.03452083332,
      "d": 923.2952083333366,
      "v": 68
    },
    {
      "midi": 65,
      "hit": false,
      "t": 83615.03452083332,
      "d": 923.2952083333366,
      "v": 56
    },
    {
      "midi": 69,
      "hit": false,
      "t": 83615.03452083332,
      "d": 923.2952083333366,
      "v": 64
    },
    {
      "midi": 60,
      "hit": false,
      "t": 84545.43199999999,
      "d": 1356.5337291666656,
      "v": 52
    },
    {
      "midi": 63,
      "hit": false,
      "t": 84545.43199999999,
      "d": 1356.5337291666656,
      "v": 58
    },
    {
      "midi": 67,
      "hit": false,
      "t": 84545.43199999999,
      "d": 1356.5337291666656,
      "v": 55
    },
    {
      "midi": 60,
      "hit": false,
      "t": 85909.06799999998,
      "d": 1356.5337291666656,
      "v": 60
    },
    {
      "midi": 63,
      "hit": false,
      "t": 85909.06799999998,
      "d": 1356.5337291666656,
      "v": 54
    },
    {
      "midi": 69,
      "hit": false,
      "t": 85909.06799999998,
      "d": 1356.5337291666656,
      "v": 59
    },
    {
      "midi": 70,
      "hit": false,
      "t": 87272.70399999998,
      "d": 1356.5337291666656,
      "v": 62
    },
    {
      "midi": 62,
      "hit": false,
      "t": 87272.70399999998,
      "d": 1789.7722499999945,
      "v": 57
    },
    {
      "midi": 65,
      "hit": false,
      "t": 87272.70399999998,
      "d": 1789.7722499999945,
      "v": 60
    },
    {
      "midi": 68,
      "hit": false,
      "t": 88636.33999999998,
      "d": 426.1362499999959,
      "v": 66
    },
    {
      "midi": 62,
      "hit": false,
      "t": 89069.57852083331,
      "d": 923.2952083333366,
      "v": 62
    },
    {
      "midi": 65,
      "hit": false,
      "t": 89069.57852083331,
      "d": 923.2952083333366,
      "v": 66
    },
    {
      "midi": 68,
      "hit": false,
      "t": 89069.57852083331,
      "d": 923.2952083333366,
      "v": 68
    },
    {
      "midi": 58,
      "hit": false,
      "t": 89999.97599999998,
      "d": 1356.5337291666656,
      "v": 68
    },
    {
      "midi": 63,
      "hit": false,
      "t": 89999.97599999998,
      "d": 1356.5337291666656,
      "v": 63
    },
    {
      "midi": 67,
      "hit": false,
      "t": 89999.97599999998,
      "d": 1356.5337291666656,
      "v": 69
    },
    {
      "midi": 58,
      "hit": false,
      "t": 91363.61199999998,
      "d": 1356.5337291666656,
      "v": 68
    },
    {
      "midi": 63,
      "hit": false,
      "t": 91363.61199999998,
      "d": 1356.5337291666656,
      "v": 54
    },
    {
      "midi": 67,
      "hit": false,
      "t": 91363.61199999998,
      "d": 1356.5337291666656,
      "v": 61
    },
    {
      "midi": 60,
      "hit": false,
      "t": 92727.24799999998,
      "d": 1356.5337291666656,
      "v": 65
    },
    {
      "midi": 65,
      "hit": false,
      "t": 92727.24799999998,
      "d": 1789.7722499999945,
      "v": 65
    },
    {
      "midi": 68,
      "hit": false,
      "t": 92727.24799999998,
      "d": 1789.7722499999945,
      "v": 69
    },
    {
      "midi": 62,
      "hit": false,
      "t": 94090.88399999998,
      "d": 426.1362499999959,
      "v": 65
    },
    {
      "midi": 62,
      "hit": false,
      "t": 94524.1225208333,
      "d": 923.2952083333366,
      "v": 59
    },
    {
      "midi": 65,
      "hit": false,
      "t": 94524.1225208333,
      "d": 923.2952083333366,
      "v": 69
    },
    {
      "midi": 68,
      "hit": false,
      "t": 94524.1225208333,
      "d": 923.2952083333366,
      "v": 58
    },
    {
      "midi": 58,
      "hit": false,
      "t": 95454.51999999997,
      "d": 1356.5337291666656,
      "v": 67
    },
    {
      "midi": 63,
      "hit": false,
      "t": 95454.51999999997,
      "d": 1356.5337291666656,
      "v": 53
    },
    {
      "midi": 67,
      "hit": false,
      "t": 95454.51999999997,
      "d": 1356.5337291666656,
      "v": 56
    },
    {
      "midi": 58,
      "hit": false,
      "t": 96818.15599999997,
      "d": 1356.5337291666656,
      "v": 57
    },
    {
      "midi": 61,
      "hit": false,
      "t": 96818.15599999997,
      "d": 1356.5337291666656,
      "v": 67
    },
    {
      "midi": 67,
      "hit": false,
      "t": 96818.15599999997,
      "d": 1356.5337291666656,
      "v": 65
    },
    {
      "midi": 60,
      "hit": false,
      "t": 98181.79199999997,
      "d": 1789.7722499999945,
      "v": 66
    },
    {
      "midi": 63,
      "hit": false,
      "t": 98181.79199999997,
      "d": 1789.7722499999945,
      "v": 59
    },
    {
      "midi": 68,
      "hit": false,
      "t": 98181.79199999997,
      "d": 1789.7722499999945,
      "v": 63
    },
    {
      "midi": 60,
      "hit": false,
      "t": 99978.6665208333,
      "d": 923.2952083333366,
      "v": 65
    },
    {
      "midi": 63,
      "hit": false,
      "t": 99978.6665208333,
      "d": 923.2952083333366,
      "v": 69
    },
    {
      "midi": 68,
      "hit": false,
      "t": 99978.6665208333,
      "d": 923.2952083333366,
      "v": 62
    },
    {
      "midi": 58,
      "hit": false,
      "t": 100909.06399999997,
      "d": 1356.5337291666656,
      "v": 59
    },
    {
      "midi": 63,
      "hit": false,
      "t": 100909.06399999997,
      "d": 1356.5337291666656,
      "v": 55
    },
    {
      "midi": 67,
      "hit": false,
      "t": 100909.06399999997,
      "d": 1356.5337291666656,
      "v": 67
    },
    {
      "midi": 60,
      "hit": false,
      "t": 102272.69999999997,
      "d": 1356.5337291666656,
      "v": 64
    },
    {
      "midi": 63,
      "hit": false,
      "t": 102272.69999999997,
      "d": 1356.5337291666656,
      "v": 69
    },
    {
      "midi": 67,
      "hit": false,
      "t": 102272.69999999997,
      "d": 1356.5337291666656,
      "v": 62
    },
    {
      "midi": 62,
      "hit": false,
      "t": 103636.33599999997,
      "d": 1356.5337291666656,
      "v": 69
    },
    {
      "midi": 58,
      "hit": false,
      "t": 103636.33599999997,
      "d": 1789.7722499999945,
      "v": 67
    },
    {
      "midi": 67,
      "hit": false,
      "t": 103636.33599999997,
      "d": 1789.7722499999945,
      "v": 61
    },
    {
      "midi": 61,
      "hit": false,
      "t": 104999.97199999997,
      "d": 426.1362499999959,
      "v": 67
    },
    {
      "midi": 58,
      "hit": false,
      "t": 105433.2105208333,
      "d": 923.2952083333366,
      "v": 64
    },
    {
      "midi": 61,
      "hit": false,
      "t": 105433.2105208333,
      "d": 923.2952083333366,
      "v": 68
    },
    {
      "midi": 67,
      "hit": false,
      "t": 105433.2105208333,
      "d": 923.2952083333366,
      "v": 62
    },
    {
      "midi": 60,
      "hit": false,
      "t": 106363.60799999996,
      "d": 1356.5337291666656,
      "v": 68
    },
    {
      "midi": 65,
      "hit": false,
      "t": 106363.60799999996,
      "d": 1356.5337291666656,
      "v": 56
    },
    {
      "midi": 68,
      "hit": false,
      "t": 106363.60799999996,
      "d": 1356.5337291666656,
      "v": 68
    },
    {
      "midi": 62,
      "hit": false,
      "t": 107727.24399999996,
      "d": 1356.5337291666656,
      "v": 69
    },
    {
      "midi": 65,
      "hit": false,
      "t": 107727.24399999996,
      "d": 1356.5337291666656,
      "v": 66
    },
    {
      "midi": 68,
      "hit": false,
      "t": 107727.24399999996,
      "d": 1356.5337291666656,
      "v": 63
    },
    {
      "midi": 58,
      "hit": false,
      "t": 109090.87999999996,
      "d": 1789.7722499999945,
      "v": 65
    },
    {
      "midi": 63,
      "hit": false,
      "t": 109090.87999999996,
      "d": 1789.7722499999945,
      "v": 65
    },
    {
      "midi": 67,
      "hit": false,
      "t": 109090.87999999996,
      "d": 1789.7722499999945,
      "v": 62
    },
    {
      "midi": 58,
      "hit": false,
      "t": 110887.75452083329,
      "d": 923.2952083333366,
      "v": 61
    },
    {
      "midi": 63,
      "hit": false,
      "t": 110887.75452083329,
      "d": 923.2952083333366,
      "v": 64
    },
    {
      "midi": 67,
      "hit": false,
      "t": 110887.75452083329,
      "d": 923.2952083333366,
      "v": 65
    },
    {
      "midi": 58,
      "hit": false,
      "t": 111818.15199999996,
      "d": 1356.5337291666656,
      "v": 53
    },
    {
      "midi": 63,
      "hit": false,
      "t": 111818.15199999996,
      "d": 1356.5337291666656,
      "v": 66
    },
    {
      "midi": 67,
      "hit": false,
      "t": 111818.15199999996,
      "d": 1356.5337291666656,
      "v": 53
    },
    {
      "midi": 58,
      "hit": false,
      "t": 113181.78799999996,
      "d": 1356.5337291666656,
      "v": 68
    },
    {
      "midi": 63,
      "hit": false,
      "t": 113181.78799999996,
      "d": 1356.5337291666656,
      "v": 65
    },
    {
      "midi": 67,
      "hit": false,
      "t": 113181.78799999996,
      "d": 1356.5337291666656,
      "v": 58
    },
    {
      "midi": 62,
      "hit": false,
      "t": 114545.42399999996,
      "d": 1789.7722499999945,
      "v": 63
    },
    {
      "midi": 65,
      "hit": false,
      "t": 114545.42399999996,
      "d": 1789.7722499999945,
      "v": 69
    },
    {
      "midi": 70,
      "hit": false,
      "t": 114545.42399999996,
      "d": 1789.7722499999945,
      "v": 64
    },
    {
      "midi": 62,
      "hit": false,
      "t": 116342.29852083328,
      "d": 923.2952083333366,
      "v": 59
    },
    {
      "midi": 65,
      "hit": false,
      "t": 116342.29852083328,
      "d": 923.2952083333366,
      "v": 58
    },
    {
      "midi": 70,
      "hit": false,
      "t": 116342.29852083328,
      "d": 923.2952083333366,
      "v": 68
    },
    {
      "midi": 60,
      "hit": false,
      "t": 117272.69599999995,
      "d": 1356.5337291666656,
      "v": 53
    },
    {
      "midi": 63,
      "hit": false,
      "t": 117272.69599999995,
      "d": 1356.5337291666656,
      "v": 66
    },
    {
      "midi": 67,
      "hit": false,
      "t": 117272.69599999995,
      "d": 1356.5337291666656,
      "v": 63
    },
    {
      "midi": 60,
      "hit": false,
      "t": 118636.33199999995,
      "d": 1356.5337291666656,
      "v": 57
    },
    {
      "midi": 63,
      "hit": false,
      "t": 118636.33199999995,
      "d": 1356.5337291666656,
      "v": 69
    },
    {
      "midi": 69,
      "hit": false,
      "t": 118636.33199999995,
      "d": 1356.5337291666656,
      "v": 60
    },
    {
      "midi": 70,
      "hit": false,
      "t": 119999.96799999995,
      "d": 1356.5337291666656,
      "v": 63
    },
    {
      "midi": 62,
      "hit": false,
      "t": 119999.96799999995,
      "d": 1789.7722499999945,
      "v": 68
    },
    {
      "midi": 65,
      "hit": false,
      "t": 119999.96799999995,
      "d": 1789.7722499999945,
      "v": 65
    },
    {
      "midi": 68,
      "hit": false,
      "t": 121363.60399999995,
      "d": 426.1362499999959,
      "v": 63
    },
    {
      "midi": 62,
      "hit": false,
      "t": 121796.84252083328,
      "d": 923.2952083333366,
      "v": 61
    },
    {
      "midi": 65,
      "hit": false,
      "t": 121796.84252083328,
      "d": 923.2952083333366,
      "v": 67
    },
    {
      "midi": 68,
      "hit": false,
      "t": 121796.84252083328,
      "d": 923.2952083333366,
      "v": 61
    },
    {
      "midi": 58,
      "hit": false,
      "t": 122727.23999999995,
      "d": 1356.5337291666656,
      "v": 67
    },
    {
      "midi": 63,
      "hit": false,
      "t": 122727.23999999995,
      "d": 1356.5337291666656,
      "v": 66
    },
    {
      "midi": 67,
      "hit": false,
      "t": 122727.23999999995,
      "d": 1356.5337291666656,
      "v": 54
    },
    {
      "midi": 60,
      "hit": false,
      "t": 124090.87599999995,
      "d": 1356.5337291666656,
      "v": 60
    },
    {
      "midi": 63,
      "hit": false,
      "t": 124090.87599999995,
      "d": 1356.5337291666656,
      "v": 55
    },
    {
      "midi": 67,
      "hit": false,
      "t": 124090.87599999995,
      "d": 1356.5337291666656,
      "v": 68
    },
    {
      "midi": 62,
      "hit": false,
      "t": 125454.51199999994,
      "d": 1356.5337291666656,
      "v": 62
    },
    {
      "midi": 65,
      "hit": false,
      "t": 125454.51199999994,
      "d": 1356.5337291666656,
      "v": 62
    },
    {
      "midi": 69,
      "hit": false,
      "t": 125454.51199999994,
      "d": 1356.5337291666656,
      "v": 63
    },
    {
      "midi": 59,
      "hit": false,
      "t": 126818.14799999994,
      "d": 426.1362499999959,
      "v": 55
    },
    {
      "midi": 62,
      "hit": false,
      "t": 126818.14799999994,
      "d": 426.1362499999959,
      "v": 61
    },
    {
      "midi": 65,
      "hit": false,
      "t": 126818.14799999994,
      "d": 426.1362499999959,
      "v": 61
    },
    {
      "midi": 59,
      "hit": false,
      "t": 127251.38652083327,
      "d": 923.2952083333366,
      "v": 54
    },
    {
      "midi": 62,
      "hit": false,
      "t": 127251.38652083327,
      "d": 923.2952083333366,
      "v": 52
    },
    {
      "midi": 65,
      "hit": false,
      "t": 127251.38652083327,
      "d": 923.2952083333366,
      "v": 57
    },
    {
      "midi": 60,
      "hit": false,
      "t": 128181.78399999994,
      "d": 1356.5337291666656,
      "v": 52
    },
    {
      "midi": 64,
      "hit": false,
      "t": 128181.78399999994,
      "d": 1356.5337291666656,
      "v": 65
    },
    {
      "midi": 67,
      "hit": false,
      "t": 128181.78399999994,
      "d": 1356.5337291666656,
      "v": 67
    },
    {
      "midi": 58,
      "hit": false,
      "t": 129545.41999999994,
      "d": 1356.5337291666656,
      "v": 63
    },
    {
      "midi": 64,
      "hit": false,
      "t": 129545.41999999994,
      "d": 1356.5337291666656,
      "v": 68
    },
    {
      "midi": 67,
      "hit": false,
      "t": 129545.41999999994,
      "d": 1356.5337291666656,
      "v": 58
    },
    {
      "midi": 65,
      "hit": false,
      "t": 130909.05599999994,
      "d": 1356.5337291666801,
      "v": 65
    },
    {
      "midi": 60,
      "hit": false,
      "t": 130909.05599999994,
      "d": 1789.7722500000236,
      "v": 64
    },
    {
      "midi": 69,
      "hit": false,
      "t": 130909.05599999994,
      "d": 1789.7722500000236,
      "v": 66
    },
    {
      "midi": 63,
      "hit": false,
      "t": 132272.69199999995,
      "d": 426.1362500000105,
      "v": 69
    },
    {
      "midi": 60,
      "hit": false,
      "t": 132705.9305208333,
      "d": 923.2952083333221,
      "v": 69
    },
    {
      "midi": 63,
      "hit": false,
      "t": 132705.9305208333,
      "d": 923.2952083333221,
      "v": 65
    },
    {
      "midi": 69,
      "hit": false,
      "t": 132705.9305208333,
      "d": 923.2952083333221,
      "v": 65
    },
    {
      "midi": 62,
      "hit": false,
      "t": 133636.32799999995,
      "d": 1356.5337291666656,
      "v": 65
    },
    {
      "midi": 65,
      "hit": false,
      "t": 133636.32799999995,
      "d": 1356.5337291666656,
      "v": 54
    },
    {
      "midi": 70,
      "hit": false,
      "t": 133636.32799999995,
      "d": 1356.5337291666656,
      "v": 66
    },
    {
      "midi": 59,
      "hit": false,
      "t": 134999.96399999995,
      "d": 1356.5337291666656,
      "v": 59
    },
    {
      "midi": 62,
      "hit": false,
      "t": 134999.96399999995,
      "d": 1356.5337291666656,
      "v": 60
    },
    {
      "midi": 68,
      "hit": false,
      "t": 134999.96399999995,
      "d": 1356.5337291666656,
      "v": 58
    },
    {
      "midi": 67,
      "hit": false,
      "t": 136363.59999999995,
      "d": 1356.5337291666656,
      "v": 66
    },
    {
      "midi": 60,
      "hit": false,
      "t": 136363.59999999995,
      "d": 1789.772250000009,
      "v": 57
    },
    {
      "midi": 63,
      "hit": false,
      "t": 136363.59999999995,
      "d": 1789.772250000009,
      "v": 66
    },
    {
      "midi": 69,
      "hit": false,
      "t": 137727.23599999995,
      "d": 426.1362500000105,
      "v": 61
    },
    {
      "midi": 60,
      "hit": false,
      "t": 138160.4745208333,
      "d": 923.2952083333221,
      "v": 61
    },
    {
      "midi": 63,
      "hit": false,
      "t": 138160.4745208333,
      "d": 923.2952083333221,
      "v": 66
    },
    {
      "midi": 69,
      "hit": false,
      "t": 138160.4745208333,
      "d": 923.2952083333221,
      "v": 69
    },
    {
      "midi": 62,
      "hit": false,
      "t": 139090.87199999994,
      "d": 1356.5337291666656,
      "v": 65
    },
    {
      "midi": 65,
      "hit": false,
      "t": 139090.87199999994,
      "d": 1356.5337291666656,
      "v": 63
    },
    {
      "midi": 70,
      "hit": false,
      "t": 139090.87199999994,
      "d": 1356.5337291666656,
      "v": 60
    },
    {
      "midi": 62,
      "hit": false,
      "t": 140454.50799999994,
      "d": 1356.5337291666656,
      "v": 52
    },
    {
      "midi": 65,
      "hit": false,
      "t": 140454.50799999994,
      "d": 1356.5337291666656,
      "v": 65
    },
    {
      "midi": 68,
      "hit": false,
      "t": 140454.50799999994,
      "d": 1356.5337291666656,
      "v": 65
    },
    {
      "midi": 58,
      "hit": false,
      "t": 141818.14399999994,
      "d": 1796.874520833342,
      "v": 62
    },
    {
      "midi": 63,
      "hit": false,
      "t": 141818.14399999994,
      "d": 1796.874520833342,
      "v": 57
    },
    {
      "midi": 67,
      "hit": false,
      "t": 141818.14399999994,
      "d": 1796.874520833342,
      "v": 60
    },
    {
      "midi": 58,
      "hit": false,
      "t": 143622.12079166662,
      "d": 916.1929374999891,
      "v": 69
    },
    {
      "midi": 63,
      "hit": false,
      "t": 143622.12079166662,
      "d": 916.1929374999891,
      "v": 63
    },
    {
      "midi": 67,
      "hit": false,
      "t": 143622.12079166662,
      "d": 916.1929374999891,
      "v": 60
    },
    {
      "midi": 62,
      "hit": false,
      "t": 144545.41599999994,
      "d": 1356.5337291666656,
      "v": 60
    },
    {
      "midi": 65,
      "hit": false,
      "t": 144545.41599999994,
      "d": 1356.5337291666656,
      "v": 58
    },
    {
      "midi": 70,
      "hit": false,
      "t": 144545.41599999994,
      "d": 1356.5337291666656,
      "v": 58
    },
    {
      "midi": 58,
      "hit": false,
      "t": 145909.05199999994,
      "d": 1356.5337291666656,
      "v": 65
    },
    {
      "midi": 62,
      "hit": false,
      "t": 145909.05199999994,
      "d": 1356.5337291666656,
      "v": 56
    },
    {
      "midi": 67,
      "hit": false,
      "t": 145909.05199999994,
      "d": 1356.5337291666656,
      "v": 64
    },
    {
      "midi": 62,
      "hit": false,
      "t": 147272.68799999994,
      "d": 1789.772250000009,
      "v": 69
    },
    {
      "midi": 65,
      "hit": false,
      "t": 147272.68799999994,
      "d": 1789.772250000009,
      "v": 62
    },
    {
      "midi": 69,
      "hit": false,
      "t": 147272.68799999994,
      "d": 1789.772250000009,
      "v": 62
    },
    {
      "midi": 62,
      "hit": false,
      "t": 149069.56252083328,
      "d": 923.2952083333221,
      "v": 61
    },
    {
      "midi": 65,
      "hit": false,
      "t": 149069.56252083328,
      "d": 923.2952083333221,
      "v": 69
    },
    {
      "midi": 69,
      "hit": false,
      "t": 149069.56252083328,
      "d": 923.2952083333221,
      "v": 65
    },
    {
      "midi": 60,
      "hit": false,
      "t": 149999.95999999993,
      "d": 1356.5337291666656,
      "v": 57
    },
    {
      "midi": 63,
      "hit": false,
      "t": 149999.95999999993,
      "d": 1356.5337291666656,
      "v": 67
    },
    {
      "midi": 67,
      "hit": false,
      "t": 149999.95999999993,
      "d": 1356.5337291666656,
      "v": 64
    },
    {
      "midi": 60,
      "hit": false,
      "t": 151363.59599999993,
      "d": 1356.5337291666656,
      "v": 62
    },
    {
      "midi": 63,
      "hit": false,
      "t": 151363.59599999993,
      "d": 1356.5337291666656,
      "v": 60
    },
    {
      "midi": 69,
      "hit": false,
      "t": 151363.59599999993,
      "d": 1356.5337291666656,
      "v": 62
    },
    {
      "midi": 61,
      "hit": false,
      "t": 152727.23199999993,
      "d": 4772.725999999995,
      "v": 63
    },
    {
      "midi": 64,
      "hit": false,
      "t": 152727.23199999993,
      "d": 4772.725999999995,
      "v": 67
    },
    {
      "midi": 66,
      "hit": false,
      "t": 152727.23199999993,
      "d": 4772.725999999995,
      "v": 68
    },
    {
      "midi": 70,
      "hit": false,
      "t": 152727.23199999993,
      "d": 4772.725999999995,
      "v": 65
    },
    {
      "midi": 58,
      "hit": false,
      "t": 158181.77599999993,
      "d": 4772.725999999995,
      "v": 66
    },
    {
      "midi": 62,
      "hit": false,
      "t": 158181.77599999993,
      "d": 4772.725999999995,
      "v": 65
    },
    {
      "midi": 65,
      "hit": false,
      "t": 158181.77599999993,
      "d": 4772.725999999995,
      "v": 58
    },
    {
      "midi": 68,
      "hit": false,
      "t": 158181.77599999993,
      "d": 4772.725999999995,
      "v": 60
    },
    {
      "midi": 72,
      "hit": false,
      "t": 158181.77599999993,
      "d": 4772.725999999995,
      "v": 62
    }
  ]
}