{
  "jsonPath": "Rock/Album Rock/Loggins  Messina/long-tail-cat.json",
  "path": "Rock\\Album Rock\\Loggins  Messina\\Long Tail Cat.mid",
  "name": "Long Tail Cat",
  "difficulty": "Advanced",
  "bpm": 142.0000710000355,
  "notes": [
    {
      "midi": 57,
      "hit": false,
      "t": 27042.239999999998,
      "d": 84.50700000000143,
      "v": 127
    },
    {
      "midi": 64,
      "hit": false,
      "t": 27042.239999999998,
      "d": 98.59150000000227,
      "v": 127
    },
    {
      "midi": 69,
      "hit": false,
      "t": 27042.239999999998,
      "d": 109.15487500000381,
      "v": 119
    },
    {
      "midi": 57,
      "hit": false,
      "t": 27746.465,
      "d": 80.98587499999849,
      "v": 127
    },
    {
      "midi": 64,
      "hit": false,
      "t": 27746.465,
      "d": 91.54925000000003,
      "v": 127
    },
    {
      "midi": 33,
      "hit": false,
      "t": 27746.465,
      "d": 116.19712499999878,
      "v": 119
    },
    {
      "midi": 69,
      "hit": false,
      "t": 27746.465,
      "d": 116.19712499999878,
      "v": 119
    },
    {
      "midi": 59,
      "hit": false,
      "t": 28309.844999999998,
      "d": 14.084500000000844,
      "v": 107
    },
    {
      "midi": 57,
      "hit": false,
      "t": 28309.844999999998,
      "d": 66.90137500000128,
      "v": 119
    },
    {
      "midi": 64,
      "hit": false,
      "t": 28309.844999999998,
      "d": 80.98587500000212,
      "v": 127
    },
    {
      "midi": 69,
      "hit": false,
      "t": 28309.844999999998,
      "d": 116.19712500000242,
      "v": 119
    },
    {
      "midi": 33,
      "hit": false,
      "t": 28309.844999999998,
      "d": 176.05625000000146,
      "v": 113
    },
    {
      "midi": 78,
      "hit": false,
      "t": 28732.379999999997,
      "d": 45.774624999998196,
      "v": 98
    },
    {
      "midi": 74,
      "hit": false,
      "t": 28732.379999999997,
      "d": 105.63374999999724,
      "v": 102
    },
    {
      "midi": 76,
      "hit": false,
      "t": 28732.379999999997,
      "d": 2619.7170000000006,
      "v": 76
    },
    {
      "midi": 73,
      "hit": false,
      "t": 28732.379999999997,
      "d": 2626.759249999999,
      "v": 93
    },
    {
      "midi": 33,
      "hit": false,
      "t": 28732.379999999997,
      "d": 2690.1394999999975,
      "v": 113
    },
    {
      "midi": 72,
      "hit": false,
      "t": 28873.224999999995,
      "d": 433.0983750000014,
      "v": 60
    },
    {
      "midi": 67,
      "hit": false,
      "t": 28873.224999999995,
      "d": 2602.1113750000004,
      "v": 102
    },
    {
      "midi": 66,
      "hit": false,
      "t": 31549.279999999995,
      "d": 436.6195000000007,
      "v": 119
    },
    {
      "midi": 72,
      "hit": false,
      "t": 31549.279999999995,
      "d": 485.91525000000183,
      "v": 127
    },
    {
      "midi": 75,
      "hit": false,
      "t": 31549.279999999995,
      "d": 489.43637500000114,
      "v": 127
    },
    {
      "midi": 32,
      "hit": false,
      "t": 31549.279999999995,
      "d": 549.2955000000002,
      "v": 119
    },
    {
      "midi": 72,
      "hit": false,
      "t": 32112.659999999996,
      "d": 28.169000000001688,
      "v": 93
    },
    {
      "midi": 76,
      "hit": false,
      "t": 32112.659999999996,
      "d": 2693.660625000004,
      "v": 113
    },
    {
      "midi": 33,
      "hit": false,
      "t": 32112.659999999996,
      "d": 2711.2662500000006,
      "v": 107
    },
    {
      "midi": 67,
      "hit": false,
      "t": 32112.659999999996,
      "d": 2721.8296249999985,
      "v": 113
    },
    {
      "midi": 73,
      "hit": false,
      "t": 32112.659999999996,
      "d": 2725.350749999998,
      "v": 113
    },
    {
      "midi": 73,
      "hit": false,
      "t": 34929.55999999999,
      "d": 144.36612500000047,
      "v": 119
    },
    {
      "midi": 67,
      "hit": false,
      "t": 34929.55999999999,
      "d": 151.40837499999907,
      "v": 107
    },
    {
      "midi": 76,
      "hit": false,
      "t": 34929.55999999999,
      "d": 151.40837499999907,
      "v": 119
    },
    {
      "midi": 33,
      "hit": false,
      "t": 34929.55999999999,
      "d": 228.87312499999825,
      "v": 98
    },
    {
      "midi": 66,
      "hit": false,
      "t": 35352.09499999999,
      "d": 2721.8296249999985,
      "v": 119
    },
    {
      "midi": 76,
      "hit": false,
      "t": 35352.09499999999,
      "d": 2757.040874999999,
      "v": 113
    },
    {
      "midi": 72,
      "hit": false,
      "t": 35352.09499999999,
      "d": 2764.0831249999974,
      "v": 127
    },
    {
      "midi": 38,
      "hit": false,
      "t": 35352.09499999999,
      "d": 2813.378874999995,
      "v": 119
    },
    {
      "midi": 74,
      "hit": false,
      "t": 38309.83999999998,
      "d": 70.42250000000058,
      "v": 107
    },
    {
      "midi": 76,
      "hit": false,
      "t": 38309.83999999998,
      "d": 264.08437499999854,
      "v": 102
    },
    {
      "midi": 73,
      "hit": false,
      "t": 38309.83999999998,
      "d": 281.68999999999505,
      "v": 107
    },
    {
      "midi": 67,
      "hit": false,
      "t": 38309.83999999998,
      "d": 295.77449999999226,
      "v": 113
    },
    {
      "midi": 32,
      "hit": false,
      "t": 38309.83999999998,
      "d": 334.50687499999185,
      "v": 107
    },
    {
      "midi": 76,
      "hit": false,
      "t": 38732.37499999997,
      "d": 2901.4069999999992,
      "v": 113
    },
    {
      "midi": 73,
      "hit": false,
      "t": 38732.37499999997,
      "d": 2904.9281249999985,
      "v": 127
    },
    {
      "midi": 67,
      "hit": false,
      "t": 38732.37499999997,
      "d": 2936.6182499999995,
      "v": 119
    },
    {
      "midi": 33,
      "hit": false,
      "t": 38732.37499999997,
      "d": 3383.801124999998,
      "v": 113
    },
    {
      "midi": 59,
      "hit": false,
      "t": 42253.49999999997,
      "d": 225.35199999999895,
      "v": 127
    },
    {
      "midi": 64,
      "hit": false,
      "t": 42253.49999999997,
      "d": 228.87312499999825,
      "v": 113
    },
    {
      "midi": 56,
      "hit": false,
      "t": 42253.49999999997,
      "d": 239.43649999999616,
      "v": 119
    },
    {
      "midi": 40,
      "hit": false,
      "t": 42253.49999999997,
      "d": 390.84487499998795,
      "v": 107
    },
    {
      "midi": 59,
      "hit": false,
      "t": 42535.189999999966,
      "d": 52.8168749999968,
      "v": 102
    },
    {
      "midi": 56,
      "hit": false,
      "t": 42535.189999999966,
      "d": 63.3802499999947,
      "v": 93
    },
    {
      "midi": 64,
      "hit": false,
      "t": 42535.189999999966,
      "d": 80.98587499999121,
      "v": 98
    },
    {
      "midi": 57,
      "hit": false,
      "t": 43943.639999999956,
      "d": 207.74637500000244,
      "v": 127
    },
    {
      "midi": 62,
      "hit": false,
      "t": 43943.639999999956,
      "d": 207.74637500000244,
      "v": 119
    },
    {
      "midi": 38,
      "hit": false,
      "t": 43943.639999999956,
      "d": 211.26750000000175,
      "v": 127
    },
    {
      "midi": 54,
      "hit": false,
      "t": 43943.639999999956,
      "d": 334.5068749999991,
      "v": 119
    },
    {
      "midi": 57,
      "hit": false,
      "t": 44225.32999999996,
      "d": 66.901374999994,
      "v": 98
    },
    {
      "midi": 62,
      "hit": false,
      "t": 44225.32999999996,
      "d": 66.901374999994,
      "v": 98
    },
    {
      "midi": 38,
      "hit": false,
      "t": 44225.32999999996,
      "d": 98.591499999995,
      "v": 85
    },
    {
      "midi": 60,
      "hit": false,
      "t": 45211.24499999995,
      "d": 225.35199999999895,
      "v": 127
    },
    {
      "midi": 36,
      "hit": false,
      "t": 45211.24499999995,
      "d": 249.99987500000134,
      "v": 127
    },
    {
      "midi": 57,
      "hit": false,
      "t": 45492.934999999954,
      "d": 440.140625,
      "v": 98
    },
    {
      "midi": 33,
      "hit": false,
      "t": 45492.934999999954,
      "d": 2264.0833749999947,
      "v": 98
    },
    {
      "midi": 57,
      "hit": false,
      "t": 46056.31499999995,
      "d": 1693.6611249999987,
      "v": 113
    },
    {
      "midi": 64,
      "hit": false,
      "t": 46056.31499999995,
      "d": 1704.2244999999966,
      "v": 119
    },
    {
      "midi": 69,
      "hit": false,
      "t": 46056.31499999995,
      "d": 1739.435749999997,
      "v": 119
    },
    {
      "midi": 93,
      "hit": false,
      "t": 49052.792375,
      "d": 88.02812499999709,
      "v": 107
    },
    {
      "midi": 90,
      "hit": false,
      "t": 49144.341624999994,
      "d": 73.94362499999988,
      "v": 76
    },
    {
      "midi": 93,
      "hit": false,
      "t": 49242.933124999996,
      "d": 73.94362499999988,
      "v": 76
    },
    {
      "midi": 90,
      "hit": false,
      "t": 49313.355625,
      "d": 56.3379999999961,
      "v": 68
    },
    {
      "midi": 93,
      "hit": false,
      "t": 49394.341499999995,
      "d": 80.98587499999849,
      "v": 68
    },
    {
      "midi": 90,
      "hit": false,
      "t": 49464.763999999996,
      "d": 56.3379999999961,
      "v": 62
    },
    {
      "midi": 93,
      "hit": false,
      "t": 49549.27099999999,
      "d": 73.94362499999988,
      "v": 59
    },
    {
      "midi": 90,
      "hit": false,
      "t": 49616.172374999995,
      "d": 66.90137500000128,
      "v": 62
    },
    {
      "midi": 93,
      "hit": false,
      "t": 49700.67937499999,
      "d": 80.98587499999849,
      "v": 57
    },
    {
      "midi": 90,
      "hit": false,
      "t": 49774.62299999999,
      "d": 63.38025000000198,
      "v": 62
    },
    {
      "midi": 93,
      "hit": false,
      "t": 49852.08774999999,
      "d": 84.50699999999779,
      "v": 62
    },
    {
      "midi": 90,
      "hit": false,
      "t": 49940.11587499999,
      "d": 49.2957499999975,
      "v": 49
    },
    {
      "midi": 93,
      "hit": false,
      "t": 50003.49612499998,
      "d": 84.50699999999779,
      "v": 62
    },
    {
      "midi": 90,
      "hit": false,
      "t": 50095.04537499998,
      "d": 52.8168749999968,
      "v": 46
    },
    {
      "midi": 93,
      "hit": false,
      "t": 50161.946749999974,
      "d": 73.94362499999988,
      "v": 62
    },
    {
      "midi": 90,
      "hit": false,
      "t": 50239.41149999997,
      "d": 49.2957499999975,
      "v": 43
    },
    {
      "midi": 93,
      "hit": false,
      "t": 50309.83399999997,
      "d": 70.42250000000058,
      "v": 60
    },
    {
      "midi": 90,
      "hit": false,
      "t": 50373.214249999975,
      "d": 207.74637499999517,
      "v": 49
    },
    {
      "midi": 93,
      "hit": false,
      "t": 50457.72124999997,
      "d": 91.54924999999639,
      "v": 60
    },
    {
      "midi": 93,
      "hit": false,
      "t": 50975.32662499997,
      "d": 102.1126249999943,
      "v": 80
    },
    {
      "midi": 92,
      "hit": false,
      "t": 51063.35474999997,
      "d": 56.3379999999961,
      "v": 62
    },
    {
      "midi": 91,
      "hit": false,
      "t": 51109.12937499997,
      "d": 63.3802499999947,
      "v": 98
    },
    {
      "midi": 90,
      "hit": false,
      "t": 51179.55187499996,
      "d": 239.43649999999616,
      "v": 107
    },
    {
      "midi": 93,
      "hit": false,
      "t": 51415.46724999996,
      "d": 56.3379999999961,
      "v": 72
    },
    {
      "midi": 96,
      "hit": false,
      "t": 51559.83337499995,
      "d": 239.43650000000343,
      "v": 113
    },
    {
      "midi": 95,
      "hit": false,
      "t": 51943.635999999955,
      "d": 281.6900000000023,
      "v": 89
    },
    {
      "midi": 90,
      "hit": false,
      "t": 52271.100624999955,
      "d": 105.63375000000087,
      "v": 44
    },
    {
      "midi": 96,
      "hit": false,
      "t": 52401.38224999996,
      "d": 88.02812499999709,
      "v": 93
    },
    {
      "midi": 97,
      "hit": false,
      "t": 52528.142749999955,
      "d": 126.76049999999668,
      "v": 72
    },
    {
      "midi": 93,
      "hit": false,
      "t": 52676.029999999955,
      "d": 126.76049999999668,
      "v": 57
    },
    {
      "midi": 90,
      "hit": false,
      "t": 52838.00174999995,
      "d": 211.26750000000175,
      "v": 64
    },
    {
      "midi": 88,
      "hit": false,
      "t": 53123.212874999954,
      "d": 84.50699999999779,
      "v": 60
    },
    {
      "midi": 93,
      "hit": false,
      "t": 53239.40999999995,
      "d": 242.95762500000274,
      "v": 76
    },
    {
      "midi": 88,
      "hit": false,
      "t": 53545.74787499996,
      "d": 73.94362499999988,
      "v": 60
    },
    {
      "midi": 90,
      "hit": false,
      "t": 53683.07174999996,
      "d": 232.39424999999756,
      "v": 62
    },
    {
      "midi": 88,
      "hit": false,
      "t": 53964.761749999954,
      "d": 98.59150000000227,
      "v": 57
    },
    {
      "midi": 91,
      "hit": false,
      "t": 54095.04337499996,
      "d": 98.59150000000227,
      "v": 76
    },
    {
      "midi": 88,
      "hit": false,
      "t": 54197.15599999996,
      "d": 84.50699999999779,
      "v": 72
    },
    {
      "midi": 91,
      "hit": false,
      "t": 54235.88837499996,
      "d": 102.11262500000157,
      "v": 68
    },
    {
      "midi": 81,
      "hit": false,
      "t": 54408.42349999996,
      "d": 116.19712499999878,
      "v": 98
    },
    {
      "midi": 86,
      "hit": false,
      "t": 54570.39524999996,
      "d": 169.01400000000285,
      "v": 98
    },
    {
      "midi": 90,
      "hit": false,
      "t": 54570.39524999996,
      "d": 176.05625000000146,
      "v": 76
    },
    {
      "midi": 81,
      "hit": false,
      "t": 54788.70499999996,
      "d": 88.02812499999709,
      "v": 76
    },
    {
      "midi": 84,
      "hit": false,
      "t": 54940.11337499996,
      "d": 84.50699999999779,
      "v": 98
    },
    {
      "midi": 88,
      "hit": false,
      "t": 54947.155624999956,
      "d": 654.929250000001,
      "v": 62
    },
    {
      "midi": 85,
      "hit": false,
      "t": 55035.18374999995,
      "d": 390.8448750000025,
      "v": 76
    },
    {
      "midi": 85,
      "hit": false,
      "t": 55626.73274999996,
      "d": 109.15487500000017,
      "v": 113
    },
    {
      "midi": 86,
      "hit": false,
      "t": 55764.05662499996,
      "d": 88.02812499999709,
      "v": 107
    },
    {
      "midi": 87,
      "hit": false,
      "t": 55890.81712499996,
      "d": 98.59150000000227,
      "v": 62
    },
    {
      "midi": 87,
      "hit": false,
      "t": 56021.09874999996,
      "d": 299.29562499999884,
      "v": 60
    },
    {
      "midi": 95,
      "hit": false,
      "t": 56024.61987499996,
      "d": 408.450499999999,
      "v": 102
    },
    {
      "midi": 88,
      "hit": false,
      "t": 56461.23937499996,
      "d": 295.7745000000068,
      "v": 68
    },
    {
      "midi": 97,
      "hit": false,
      "t": 56591.520999999964,
      "d": 257.04212499999994,
      "v": 102
    },
    {
      "midi": 89,
      "hit": false,
      "t": 56876.732124999966,
      "d": 334.5068749999991,
      "v": 93
    },
    {
      "midi": 98,
      "hit": false,
      "t": 57031.661624999964,
      "d": 186.61962499999936,
      "v": 107
    },
    {
      "midi": 90,
      "hit": false,
      "t": 57299.26712499996,
      "d": 401.4082500000004,
      "v": 107
    },
    {
      "midi": 99,
      "hit": false,
      "t": 57299.26712499996,
      "d": 471.830750000001,
      "v": 102
    },
    {
      "midi": 90,
      "hit": false,
      "t": 57799.266874999965,
      "d": 109.15487500000017,
      "v": 113
    },
    {
      "midi": 97,
      "hit": false,
      "t": 57894.33724999997,
      "d": 239.43649999999616,
      "v": 107
    },
    {
      "midi": 95,
      "hit": false,
      "t": 58330.95674999996,
      "d": 225.35199999999895,
      "v": 107
    },
    {
      "midi": 97,
      "hit": false,
      "t": 58609.12562499996,
      "d": 161.97174999999697,
      "v": 76
    },
    {
      "midi": 95,
      "hit": false,
      "t": 59049.26624999996,
      "d": 102.11262500000157,
      "v": 93
    },
    {
      "midi": 100,
      "hit": false,
      "t": 59158.42112499996,
      "d": 249.99987500000134,
      "v": 102
    },
    {
      "midi": 100,
      "hit": false,
      "t": 59595.04062499996,
      "d": 204.22525000000314,
      "v": 113
    },
    {
      "midi": 100,
      "hit": false,
      "t": 60010.53337499996,
      "d": 239.43650000000343,
      "v": 107
    },
    {
      "midi": 95,
      "hit": false,
      "t": 60264.05437499996,
      "d": 116.19712499999878,
      "v": 72
    },
    {
      "midi": 97,
      "hit": false,
      "t": 60422.50499999996,
      "d": 186.61962499999936,
      "v": 107
    },
    {
      "midi": 100,
      "hit": false,
      "t": 60714.75837499996,
      "d": 1158.450125000003,
      "v": 113
    },
    {
      "midi": 69,
      "hit": false,
      "t": 62401.37724999996,
      "d": 73.94362499999261,
      "v": 59
    },
    {
      "midi": 68,
      "hit": false,
      "t": 62411.94062499996,
      "d": 45.774624999998196,
      "v": 55
    },
    {
      "midi": 72,
      "hit": false,
      "t": 62524.61662499995,
      "d": 28.169000000001688,
      "v": 89
    },
    {
      "midi": 61,
      "hit": false,
      "t": 62535.17999999995,
      "d": 204.22525000000314,
      "v": 119
    },
    {
      "midi": 64,
      "hit": false,
      "t": 62535.17999999995,
      "d": 204.22525000000314,
      "v": 107
    },
    {
      "midi": 57,
      "hit": false,
      "t": 62535.17999999995,
      "d": 214.78862500000105,
      "v": 107
    },
    {
      "midi": 76,
      "hit": false,
      "t": 62552.78562499995,
      "d": 246.47875000000204,
      "v": 60
    },
    {
      "midi": 73,
      "hit": false,
      "t": 62559.82787499995,
      "d": 211.26750000000175,
      "v": 89
    },
    {
      "midi": 61,
      "hit": false,
      "t": 62816.86999999995,
      "d": 35.21125000000029,
      "v": 89
    },
    {
      "midi": 64,
      "hit": false,
      "t": 62816.86999999995,
      "d": 35.21125000000029,
      "v": 68
    },
    {
      "midi": 57,
      "hit": false,
      "t": 62816.86999999995,
      "d": 49.2957499999975,
      "v": 80
    },
    {
      "midi": 78,
      "hit": false,
      "t": 62961.23612499995,
      "d": 246.47874999999476,
      "v": 89
    },
    {
      "midi": 74,
      "hit": false,
      "t": 62964.75724999995,
      "d": 232.39424999999756,
      "v": 72
    },
    {
      "midi": 69,
      "hit": false,
      "t": 63225.32049999994,
      "d": 98.59150000000227,
      "v": 62
    },
    {
      "midi": 72,
      "hit": false,
      "t": 63366.165499999945,
      "d": 45.774624999998196,
      "v": 102
    },
    {
      "midi": 76,
      "hit": false,
      "t": 63380.24999999994,
      "d": 267.6055000000051,
      "v": 57
    },
    {
      "midi": 64,
      "hit": false,
      "t": 63380.24999999995,
      "d": 186.61962499999936,
      "v": 102
    },
    {
      "midi": 57,
      "hit": false,
      "t": 63380.24999999995,
      "d": 193.66187499999796,
      "v": 107
    },
    {
      "midi": 61,
      "hit": false,
      "t": 63380.24999999995,
      "d": 193.66187499999796,
      "v": 107
    },
    {
      "midi": 73,
      "hit": false,
      "t": 63404.897874999944,
      "d": 211.26750000000175,
      "v": 85
    },
    {
      "midi": 64,
      "hit": false,
      "t": 63661.939999999944,
      "d": 38.73237499999959,
      "v": 76
    },
    {
      "midi": 61,
      "hit": false,
      "t": 63661.939999999944,
      "d": 45.774624999998196,
      "v": 93
    },
    {
      "midi": 57,
      "hit": false,
      "t": 63661.939999999944,
      "d": 49.2957499999975,
      "v": 72
    },
    {
      "midi": 69,
      "hit": false,
      "t": 63690.108999999946,
      "d": 88.02812499999709,
      "v": 25
    },
    {
      "midi": 74,
      "hit": false,
      "t": 63809.827249999944,
      "d": 239.43650000000343,
      "v": 89
    },
    {
      "midi": 78,
      "hit": false,
      "t": 63809.827249999944,
      "d": 249.99987500000134,
      "v": 85
    },
    {
      "midi": 69,
      "hit": false,
      "t": 64084.47499999995,
      "d": 91.54924999999639,
      "v": 59
    },
    {
      "midi": 72,
      "hit": false,
      "t": 64200.67212499995,
      "d": 63.3802499999947,
      "v": 93
    },
    {
      "midi": 76,
      "hit": false,
      "t": 64211.235499999944,
      "d": 274.64774999999645,
      "v": 56
    },
    {
      "midi": 64,
      "hit": false,
      "t": 64225.31999999994,
      "d": 214.78862500000105,
      "v": 107
    },
    {
      "midi": 61,
      "hit": false,
      "t": 64225.31999999994,
      "d": 221.83087499999965,
      "v": 119
    },
    {
      "midi": 57,
      "hit": false,
      "t": 64225.31999999994,
      "d": 232.39424999999756,
      "v": 107
    },
    {
      "midi": 73,
      "hit": false,
      "t": 64267.57349999994,
      "d": 207.74637500000244,
      "v": 89
    },
    {
      "midi": 61,
      "hit": false,
      "t": 64507.00999999994,
      "d": 49.2957499999975,
      "v": 98
    },
    {
      "midi": 57,
      "hit": false,
      "t": 64507.00999999994,
      "d": 56.3379999999961,
      "v": 89
    },
    {
      "midi": 64,
      "hit": false,
      "t": 64507.00999999994,
      "d": 56.3379999999961,
      "v": 89
    },
    {
      "midi": 74,
      "hit": false,
      "t": 64640.81274999994,
      "d": 267.60549999999785,
      "v": 68
    },
    {
      "midi": 78,
      "hit": false,
      "t": 64651.37612499994,
      "d": 260.56324999999924,
      "v": 60
    },
    {
      "midi": 69,
      "hit": false,
      "t": 64929.54499999993,
      "d": 109.15487500000017,
      "v": 89
    },
    {
      "midi": 64,
      "hit": false,
      "t": 65070.389999999934,
      "d": 207.74637500000244,
      "v": 107
    },
    {
      "midi": 61,
      "hit": false,
      "t": 65070.389999999934,
      "d": 221.83087499999965,
      "v": 113
    },
    {
      "midi": 57,
      "hit": false,
      "t": 65070.389999999934,
      "d": 225.35199999999895,
      "v": 102
    },
    {
      "midi": 71,
      "hit": false,
      "t": 65073.91112499993,
      "d": 63.3802499999947,
      "v": 56
    },
    {
      "midi": 72,
      "hit": false,
      "t": 65087.99562499993,
      "d": 126.76049999999668,
      "v": 107
    },
    {
      "midi": 71,
      "hit": false,
      "t": 65221.798374999926,
      "d": 91.54925000000367,
      "v": 64
    },
    {
      "midi": 69,
      "hit": false,
      "t": 65292.220874999926,
      "d": 140.84500000000116,
      "v": 42
    },
    {
      "midi": 57,
      "hit": false,
      "t": 65352.079999999936,
      "d": 49.2957499999975,
      "v": 89
    },
    {
      "midi": 61,
      "hit": false,
      "t": 65352.079999999936,
      "d": 49.2957499999975,
      "v": 98
    },
    {
      "midi": 64,
      "hit": false,
      "t": 65352.079999999936,
      "d": 52.8168749999968,
      "v": 93
    },
    {
      "midi": 66,
      "hit": false,
      "t": 65485.882749999924,
      "d": 221.83087500000693,
      "v": 89
    },
    {
      "midi": 64,
      "hit": false,
      "t": 65725.31924999993,
      "d": 105.6337499999936,
      "v": 55
    },
    {
      "midi": 61,
      "hit": false,
      "t": 65774.61499999993,
      "d": 35.211249999993015,
      "v": 43
    },
    {
      "midi": 72,
      "hit": false,
      "t": 65904.89662499992,
      "d": 63.38025000000198,
      "v": 93
    },
    {
      "midi": 61,
      "hit": false,
      "t": 65915.45999999992,
      "d": 232.39424999999756,
      "v": 113
    },
    {
      "midi": 64,
      "hit": false,
      "t": 65915.45999999992,
      "d": 232.39424999999756,
      "v": 113
    },
    {
      "midi": 57,
      "hit": false,
      "t": 65915.45999999992,
      "d": 345.0702500000043,
      "v": 98
    },
    {
      "midi": 76,
      "hit": false,
      "t": 65926.02337499992,
      "d": 214.78862500000105,
      "v": 60
    },
    {
      "midi": 73,
      "hit": false,
      "t": 65971.79799999992,
      "d": 190.14074999999139,
      "v": 85
    },
    {
      "midi": 69,
      "hit": false,
      "t": 66190.10774999991,
      "d": 102.1126249999943,
      "v": 62
    },
    {
      "midi": 61,
      "hit": false,
      "t": 66197.14999999992,
      "d": 52.816875000004075,
      "v": 93
    },
    {
      "midi": 64,
      "hit": false,
      "t": 66197.14999999992,
      "d": 52.816875000004075,
      "v": 85
    },
    {
      "midi": 78,
      "hit": false,
      "t": 66330.95274999991,
      "d": 211.26750000000175,
      "v": 76
    },
    {
      "midi": 74,
      "hit": false,
      "t": 66337.99499999991,
      "d": 214.78862500000105,
      "v": 80
    },
    {
      "midi": 69,
      "hit": false,
      "t": 66584.4737499999,
      "d": 91.54924999999639,
      "v": 62
    },
    {
      "midi": 72,
      "hit": false,
      "t": 66728.8398749999,
      "d": 38.73237499999232,
      "v": 93
    },
    {
      "midi": 76,
      "hit": false,
      "t": 66742.9243749999,
      "d": 285.2111249999871,
      "v": 55
    },
    {
      "midi": 63,
      "hit": false,
      "t": 66760.52999999993,
      "d": 31.690124999993714,
      "v": 57
    },
    {
      "midi": 64,
      "hit": false,
      "t": 66760.52999999993,
      "d": 190.14074999999139,
      "v": 93
    },
    {
      "midi": 61,
      "hit": false,
      "t": 66760.52999999993,
      "d": 204.2252499999886,
      "v": 102
    },
    {
      "midi": 57,
      "hit": false,
      "t": 66760.52999999993,
      "d": 225.3519999999844,
      "v": 89
    },
    {
      "midi": 73,
      "hit": false,
      "t": 66764.0511249999,
      "d": 246.47874999999476,
      "v": 89
    },
    {
      "midi": 69,
      "hit": false,
      "t": 67042.21999999988,
      "d": 116.19712500000605,
      "v": 51
    },
    {
      "midi": 61,
      "hit": false,
      "t": 67042.21999999991,
      "d": 49.29575000000477,
      "v": 89
    },
    {
      "midi": 64,
      "hit": false,
      "t": 67042.21999999991,
      "d": 52.816875000004075,
      "v": 89
    },
    {
      "midi": 57,
      "hit": false,
      "t": 67042.21999999991,
      "d": 56.338000000003376,
      "v": 85
    },
    {
      "midi": 78,
      "hit": false,
      "t": 67186.58612499989,
      "d": 232.39424999999756,
      "v": 85
    },
    {
      "midi": 74,
      "hit": false,
      "t": 67190.10724999988,
      "d": 225.35199999999895,
      "v": 89
    },
    {
      "midi": 69,
      "hit": false,
      "t": 67454.19162499988,
      "d": 105.6337499999936,
      "v": 62
    },
    {
      "midi": 72,
      "hit": false,
      "t": 67591.51549999986,
      "d": 45.77462499999092,
      "v": 93
    },
    {
      "midi": 76,
      "hit": false,
      "t": 67605.59999999986,
      "d": 278.1688749999885,
      "v": 62
    },
    {
      "midi": 63,
      "hit": false,
      "t": 67605.59999999992,
      "d": 28.168999999994412,
      "v": 85
    },
    {
      "midi": 64,
      "hit": false,
      "t": 67605.59999999992,
      "d": 211.2674999999872,
      "v": 113
    },
    {
      "midi": 61,
      "hit": false,
      "t": 67605.59999999992,
      "d": 228.8731249999837,
      "v": 127
    },
    {
      "midi": 57,
      "hit": false,
      "t": 67605.59999999992,
      "d": 239.4364999999816,
      "v": 107
    },
    {
      "midi": 73,
      "hit": false,
      "t": 67640.81124999985,
      "d": 214.78862500000105,
      "v": 89
    },
    {
      "midi": 64,
      "hit": false,
      "t": 67887.2899999999,
      "d": 49.29575000000477,
      "v": 89
    },
    {
      "midi": 57,
      "hit": false,
      "t": 67887.2899999999,
      "d": 52.816875000004075,
      "v": 85
    },
    {
      "midi": 61,
      "hit": false,
      "t": 67887.2899999999,
      "d": 52.816875000004075,
      "v": 98
    },
    {
      "midi": 69,
      "hit": false,
      "t": 67908.41674999984,
      "d": 91.54924999999639,
      "v": 42
    },
    {
      "midi": 74,
      "hit": false,
      "t": 68038.69837499985,
      "d": 207.74637500000244,
      "v": 93
    },
    {
      "midi": 78,
      "hit": false,
      "t": 68038.69837499985,
      "d": 211.26750000000175,
      "v": 85
    },
    {
      "midi": 69,
      "hit": false,
      "t": 68274.61374999984,
      "d": 116.19712500000605,
      "v": 60
    },
    {
      "midi": 71,
      "hit": false,
      "t": 68422.50099999984,
      "d": 88.02812499999709,
      "v": 72
    },
    {
      "midi": 63,
      "hit": false,
      "t": 68450.66999999991,
      "d": 21.12674999999581,
      "v": 55
    },
    {
      "midi": 64,
      "hit": false,
      "t": 68450.66999999991,
      "d": 193.6618749999907,
      "v": 113
    },
    {
      "midi": 61,
      "hit": false,
      "t": 68450.66999999991,
      "d": 197.18299999999,
      "v": 119
    },
    {
      "midi": 57,
      "hit": false,
      "t": 68450.66999999991,
      "d": 204.2252499999886,
      "v": 113
    },
    {
      "midi": 72,
      "hit": false,
      "t": 68454.19112499984,
      "d": 123.23937500000466,
      "v": 93
    },
    {
      "midi": 71,
      "hit": false,
      "t": 68573.90937499984,
      "d": 109.1548749999929,
      "v": 62
    },
    {
      "midi": 69,
      "hit": false,
      "t": 68668.97974999984,
      "d": 126.76050000000396,
      "v": 62
    },
    {
      "midi": 64,
      "hit": false,
      "t": 68732.3599999999,
      "d": 45.77462500000547,
      "v": 80
    },
    {
      "midi": 61,
      "hit": false,
      "t": 68732.3599999999,
      "d": 49.29575000000477,
      "v": 89
    },
    {
      "midi": 57,
      "hit": false,
      "t": 68732.3599999999,
      "d": 56.338000000003376,
      "v": 80
    },
    {
      "midi": 66,
      "hit": false,
      "t": 68862.64162499984,
      "d": 204.22525000000314,
      "v": 85
    },
    {
      "midi": 64,
      "hit": false,
      "t": 69087.99362499984,
      "d": 154.92949999999837,
      "v": 56
    },
    {
      "midi": 60,
      "hit": false,
      "t": 69295.7399999999,
      "d": 211.26750000000175,
      "v": 113
    },
    {
      "midi": 64,
      "hit": false,
      "t": 69295.7399999999,
      "d": 239.43649999999616,
      "v": 113
    },
    {
      "midi": 57,
      "hit": false,
      "t": 69295.7399999999,
      "d": 345.0702500000043,
      "v": 102
    },
    {
      "midi": 76,
      "hit": false,
      "t": 69299.26112499984,
      "d": 239.43649999999616,
      "v": 72
    },
    {
      "midi": 72,
      "hit": false,
      "t": 69302.78224999984,
      "d": 257.04212499999267,
      "v": 93
    },
    {
      "midi": 69,
      "hit": false,
      "t": 69566.86662499984,
      "d": 109.1548749999929,
      "v": 64
    },
    {
      "midi": 60,
      "hit": false,
      "t": 69577.4299999999,
      "d": 52.816875000004075,
      "v": 89
    },
    {
      "midi": 64,
      "hit": false,
      "t": 69577.4299999999,
      "d": 52.816875000004075,
      "v": 89
    },
    {
      "midi": 74,
      "hit": false,
      "t": 69718.27499999983,
      "d": 239.43649999999616,
      "v": 85
    },
    {
      "midi": 78,
      "hit": false,
      "t": 69725.31724999983,
      "d": 249.99987499999406,
      "v": 85
    },
    {
      "midi": 69,
      "hit": false,
      "t": 69999.96499999982,
      "d": 91.54924999999639,
      "v": 47
    },
    {
      "midi": 72,
      "hit": false,
      "t": 70116.16212499981,
      "d": 309.85899999999674,
      "v": 68
    },
    {
      "midi": 76,
      "hit": false,
      "t": 70123.20437499981,
      "d": 309.85899999999674,
      "v": 64
    },
    {
      "midi": 62,
      "hit": false,
      "t": 70140.80999999991,
      "d": 28.168999999994412,
      "v": 76
    },
    {
      "midi": 60,
      "hit": false,
      "t": 70140.80999999991,
      "d": 197.18299999999,
      "v": 119
    },
    {
      "midi": 64,
      "hit": false,
      "t": 70140.80999999991,
      "d": 204.2252499999886,
      "v": 107
    },
    {
      "midi": 57,
      "hit": false,
      "t": 70140.80999999991,
      "d": 309.8589999999822,
      "v": 102
    },
    {
      "midi": 60,
      "hit": false,
      "t": 70422.4999999999,
      "d": 52.81687499998952,
      "v": 76
    },
    {
      "midi": 64,
      "hit": false,
      "t": 70422.4999999999,
      "d": 70.42249999998603,
      "v": 76
    },
    {
      "midi": 69,
      "hit": false,
      "t": 70443.6267499998,
      "d": 105.6337499999936,
      "v": 40
    },
    {
      "midi": 74,
      "hit": false,
      "t": 70566.8661249998,
      "d": 257.04212499999267,
      "v": 68
    },
    {
      "midi": 78,
      "hit": false,
      "t": 70584.4717499998,
      "d": 221.83087499999965,
      "v": 76
    },
    {
      "midi": 69,
      "hit": false,
      "t": 70862.6406249998,
      "d": 109.1548749999929,
      "v": 41
    },
    {
      "midi": 72,
      "hit": false,
      "t": 70975.31662499979,
      "d": 295.77449999999953,
      "v": 60
    },
    {
      "midi": 76,
      "hit": false,
      "t": 70985.87999999979,
      "d": 285.21112500000163,
      "v": 60
    },
    {
      "midi": 60,
      "hit": false,
      "t": 70985.87999999989,
      "d": 193.66187500000524,
      "v": 113
    },
    {
      "midi": 64,
      "hit": false,
      "t": 70985.87999999989,
      "d": 204.22525000000314,
      "v": 107
    },
    {
      "midi": 57,
      "hit": false,
      "t": 70985.87999999989,
      "d": 221.83087499999965,
      "v": 107
    },
    {
      "midi": 57,
      "hit": false,
      "t": 71267.56999999989,
      "d": 52.816875000004075,
      "v": 72
    },
    {
      "midi": 64,
      "hit": false,
      "t": 71267.56999999989,
      "d": 56.338000000003376,
      "v": 89
    },
    {
      "midi": 60,
      "hit": false,
      "t": 71267.56999999989,
      "d": 63.38025000000198,
      "v": 85
    },
    {
      "midi": 69,
      "hit": false,
      "t": 71285.17562499979,
      "d": 119.7182499999908,
      "v": 27
    },
    {
      "midi": 74,
      "hit": false,
      "t": 71376.72487499978,
      "d": 285.21112500000163,
      "v": 68
    },
    {
      "midi": 78,
      "hit": false,
      "t": 71464.75299999978,
      "d": 225.35199999999895,
      "v": 49
    },
    {
      "midi": 69,
      "hit": false,
      "t": 71676.02049999978,
      "d": 116.1971249999915,
      "v": 68
    },
    {
      "midi": 71,
      "hit": false,
      "t": 71806.30212499977,
      "d": 91.54924999999639,
      "v": 72
    },
    {
      "midi": 60,
      "hit": false,
      "t": 71830.9499999999,
      "d": 176.05624999999418,
      "v": 119
    },
    {
      "midi": 64,
      "hit": false,
      "t": 71830.9499999999,
      "d": 190.14074999999139,
      "v": 102
    },
    {
      "midi": 57,
      "hit": false,
      "t": 71830.9499999999,
      "d": 295.774499999985,
      "v": 107
    },
    {
      "midi": 72,
      "hit": false,
      "t": 71869.68237499977,
      "d": 116.1971249999915,
      "v": 76
    },
    {
      "midi": 71,
      "hit": false,
      "t": 71982.35837499976,
      "d": 91.54924999999639,
      "v": 62
    },
    {
      "midi": 69,
      "hit": false,
      "t": 72070.38649999976,
      "d": 140.84500000000116,
      "v": 52
    },
    {
      "midi": 60,
      "hit": false,
      "t": 72112.63999999988,
      "d": 66.90137500000128,
      "v": 80
    },
    {
      "midi": 64,
      "hit": false,
      "t": 72112.63999999988,
      "d": 66.90137500000128,
      "v": 72
    },
    {
      "midi": 66,
      "hit": false,
      "t": 72253.48499999977,
      "d": 228.87312499999825,
      "v": 93
    },
    {
      "midi": 64,
      "hit": false,
      "t": 72507.00599999976,
      "d": 140.84500000000116,
      "v": 50
    },
    {
      "midi": 63,
      "hit": false,
      "t": 72676.01999999989,
      "d": 35.211249999993015,
      "v": 62
    },
    {
      "midi": 61,
      "hit": false,
      "t": 72676.01999999989,
      "d": 193.6618749999907,
      "v": 107
    },
    {
      "midi": 64,
      "hit": false,
      "t": 72676.01999999989,
      "d": 197.18299999999,
      "v": 98
    },
    {
      "midi": 57,
      "hit": false,
      "t": 72676.01999999989,
      "d": 207.7463749999879,
      "v": 98
    },
    {
      "midi": 72,
      "hit": false,
      "t": 72686.58337499977,
      "d": 49.29574999999022,
      "v": 102
    },
    {
      "midi": 76,
      "hit": false,
      "t": 72700.66787499977,
      "d": 246.47874999999476,
      "v": 72
    },
    {
      "midi": 73,
      "hit": false,
      "t": 72732.35799999976,
      "d": 225.35199999999895,
      "v": 98
    },
    {
      "midi": 61,
      "hit": false,
      "t": 72957.70999999988,
      "d": 49.29575000000477,
      "v": 93
    },
    {
      "midi": 57,
      "hit": false,
      "t": 72957.70999999988,
      "d": 56.338000000003376,
      "v": 76
    },
    {
      "midi": 64,
      "hit": false,
      "t": 72957.70999999988,
      "d": 66.90137500000128,
      "v": 76
    },
    {
      "midi": 69,
      "hit": false,
      "t": 72992.92124999975,
      "d": 84.50699999999779,
      "v": 37
    },
    {
      "midi": 74,
      "hit": false,
      "t": 73119.68174999976,
      "d": 249.99987499999406,
      "v": 80
    },
    {
      "midi": 78,
      "hit": false,
      "t": 73123.20287499976,
      "d": 264.08437499999127,
      "v": 72
    },
    {
      "midi": 69,
      "hit": false,
      "t": 73401.37174999974,
      "d": 102.1126249999943,
      "v": 52
    },
    {
      "midi": 61,
      "hit": false,
      "t": 73521.08999999988,
      "d": 207.74637500000244,
      "v": 127
    },
    {
      "midi": 57,
      "hit": false,
      "t": 73521.08999999988,
      "d": 214.78862500000105,
      "v": 107
    },
    {
      "midi": 64,
      "hit": false,
      "t": 73521.08999999988,
      "d": 214.78862500000105,
      "v": 107
    },
    {
      "midi": 72,
      "hit": false,
      "t": 73528.13224999973,
      "d": 70.42250000000058,
      "v": 98
    },
    {
      "midi": 76,
      "hit": false,
      "t": 73538.69562499973,
      "d": 267.60549999999057,
      "v": 62
    },
    {
      "midi": 73,
      "hit": false,
      "t": 73609.11812499973,
      "d": 172.53512499999488,
      "v": 76
    },
    {
      "midi": 57,
      "hit": false,
      "t": 73802.77999999988,
      "d": 49.29575000000477,
      "v": 85
    },
    {
      "midi": 61,
      "hit": false,
      "t": 73802.77999999988,
      "d": 49.29575000000477,
      "v": 93
    },
    {
      "midi": 64,
      "hit": false,
      "t": 73802.77999999988,
      "d": 66.90137500000128,
      "v": 89
    },
    {
      "midi": 69,
      "hit": false,
      "t": 73823.90674999972,
      "d": 133.80275000000256,
      "v": 50
    },
    {
      "midi": 74,
      "hit": false,
      "t": 73961.23062499972,
      "d": 193.66187500000524,
      "v": 93
    },
    {
      "midi": 78,
      "hit": false,
      "t": 73968.27287499972,
      "d": 232.3942500000121,
      "v": 85
    },
    {
      "midi": 69,
      "hit": false,
      "t": 74197.14599999973,
      "d": 119.71825000000536,
      "v": 56
    },
    {
      "midi": 76,
      "hit": false,
      "t": 74366.15999999974,
      "d": 70.42250000000058,
      "v": 60
    },
    {
      "midi": 61,
      "hit": false,
      "t": 74366.15999999989,
      "d": 197.18300000000454,
      "v": 119
    },
    {
      "midi": 64,
      "hit": false,
      "t": 74366.15999999989,
      "d": 204.22525000000314,
      "v": 107
    },
    {
      "midi": 57,
      "hit": false,
      "t": 74366.15999999989,
      "d": 214.78862500000105,
      "v": 107
    },
    {
      "midi": 79,
      "hit": false,
      "t": 74418.97687499975,
      "d": 119.7182499999908,
      "v": 85
    },
    {
      "midi": 76,
      "hit": false,
      "t": 74510.52612499974,
      "d": 102.1126249999943,
      "v": 62
    },
    {
      "midi": 69,
      "hit": false,
      "t": 74633.76549999973,
      "d": 109.1548749999929,
      "v": 72
    },
    {
      "midi": 61,
      "hit": false,
      "t": 74647.84999999989,
      "d": 49.29575000000477,
      "v": 89
    },
    {
      "midi": 64,
      "hit": false,
      "t": 74647.84999999989,
      "d": 49.29575000000477,
      "v": 72
    },
    {
      "midi": 57,
      "hit": false,
      "t": 74647.84999999989,
      "d": 52.816875000004075,
      "v": 59
    },
    {
      "midi": 74,
      "hit": false,
      "t": 74774.61049999972,
      "d": 242.95762499999546,
      "v": 85
    },
    {
      "midi": 78,
      "hit": false,
      "t": 74778.13162499972,
      "d": 257.04212499999267,
      "v": 72
    },
    {
      "midi": 69,
      "hit": false,
      "t": 75073.90612499972,
      "d": 73.94362499999988,
      "v": 42
    },
    {
      "midi": 72,
      "hit": false,
      "t": 75168.97649999971,
      "d": 70.42250000000058,
      "v": 93
    },
    {
      "midi": 76,
      "hit": false,
      "t": 75179.53987499971,
      "d": 285.21112500000163,
      "v": 60
    },
    {
      "midi": 64,
      "hit": false,
      "t": 75211.2299999999,
      "d": 190.14075000000594,
      "v": 102
    },
    {
      "midi": 61,
      "hit": false,
      "t": 75211.2299999999,
      "d": 207.74637500000244,
      "v": 113
    },
    {
      "midi": 57,
      "hit": false,
      "t": 75211.2299999999,
      "d": 214.78862500000105,
      "v": 102
    },
    {
      "midi": 73,
      "hit": false,
      "t": 75239.39899999971,
      "d": 211.26750000000175,
      "v": 93
    },
    {
      "midi": 69,
      "hit": false,
      "t": 75485.87774999971,
      "d": 119.71825000000536,
      "v": 68
    },
    {
      "midi": 61,
      "hit": false,
      "t": 75492.9199999999,
      "d": 66.90137500000128,
      "v": 93
    },
    {
      "midi": 64,
      "hit": false,
      "t": 75492.9199999999,
      "d": 66.90137500000128,
      "v": 80
    },
    {
      "midi": 57,
      "hit": false,
      "t": 75492.9199999999,
      "d": 73.94362499999988,
      "v": 72
    },
    {
      "midi": 74,
      "hit": false,
      "t": 75602.07487499971,
      "d": 225.35199999999895,
      "v": 85
    },
    {
      "midi": 78,
      "hit": false,
      "t": 75619.68049999971,
      "d": 190.14075000000594,
      "v": 89
    },
    {
      "midi": 68,
      "hit": false,
      "t": 75887.28599999972,
      "d": 514.0842499999999,
      "v": 62
    },
    {
      "midi": 76,
      "hit": false,
      "t": 75890.80712499972,
      "d": 397.88712499999383,
      "v": 102
    },
    {
      "midi": 73,
      "hit": false,
      "t": 75897.84937499971,
      "d": 401.40824999999313,
      "v": 107
    },
    {
      "midi": 59,
      "hit": false,
      "t": 76056.2999999999,
      "d": 193.66187500000524,
      "v": 119
    },
    {
      "midi": 64,
      "hit": false,
      "t": 76056.2999999999,
      "d": 207.74637500000244,
      "v": 107
    },
    {
      "midi": 56,
      "hit": false,
      "t": 76056.2999999999,
      "d": 221.83087499999965,
      "v": 113
    },
    {
      "midi": 56,
      "hit": false,
      "t": 76337.9899999999,
      "d": 45.77462500000547,
      "v": 62
    },
    {
      "midi": 59,
      "hit": false,
      "t": 76337.9899999999,
      "d": 52.816875000004075,
      "v": 72
    },
    {
      "midi": 64,
      "hit": false,
      "t": 76337.9899999999,
      "d": 66.90137500000128,
      "v": 68
    },
    {
      "midi": 76,
      "hit": false,
      "t": 76345.03224999971,
      "d": 56.338000000003376,
      "v": 89
    },
    {
      "midi": 73,
      "hit": false,
      "t": 76348.55337499971,
      "d": 45.77462500000547,
      "v": 93
    },
    {
      "midi": 68,
      "hit": false,
      "t": 76749.96162499972,
      "d": 73.94362499999988,
      "v": 59
    },
    {
      "midi": 64,
      "hit": false,
      "t": 76901.36999999991,
      "d": 179.57737499999348,
      "v": 102
    },
    {
      "midi": 59,
      "hit": false,
      "t": 76901.36999999991,
      "d": 193.6618749999907,
      "v": 113
    },
    {
      "midi": 56,
      "hit": false,
      "t": 76901.36999999991,
      "d": 214.7886249999865,
      "v": 107
    },
    {
      "midi": 76,
      "hit": false,
      "t": 76911.93337499972,
      "d": 214.78862500000105,
      "v": 62
    },
    {
      "midi": 73,
      "hit": false,
      "t": 76911.93337499972,
      "d": 221.83087499999965,
      "v": 60
    },
    {
      "midi": 68,
      "hit": false,
      "t": 76922.49674999971,
      "d": 214.78862500000105,
      "v": 56
    },
    {
      "midi": 56,
      "hit": false,
      "t": 77183.0599999999,
      "d": 70.42250000000058,
      "v": 46
    },
    {
      "midi": 64,
      "hit": false,
      "t": 77183.0599999999,
      "d": 70.42250000000058,
      "v": 85
    },
    {
      "midi": 59,
      "hit": false,
      "t": 77183.0599999999,
      "d": 80.98587499999849,
      "v": 80
    },
    {
      "midi": 76,
      "hit": false,
      "t": 77190.10224999972,
      "d": 80.98587499999849,
      "v": 76
    },
    {
      "midi": 68,
      "hit": false,
      "t": 77200.66562499972,
      "d": 63.38025000000198,
      "v": 76
    },
    {
      "midi": 73,
      "hit": false,
      "t": 77200.66562499972,
      "d": 66.90137500000128,
      "v": 85
    },
    {
      "midi": 72,
      "hit": false,
      "t": 77616.15837499972,
      "d": 362.6758750000008,
      "v": 76
    },
    {
      "midi": 74,
      "hit": false,
      "t": 77623.20062499972,
      "d": 345.0702500000043,
      "v": 72
    },
    {
      "midi": 66,
      "hit": false,
      "t": 77623.20062499972,
      "d": 362.6758750000008,
      "v": 80
    },
    {
      "midi": 60,
      "hit": false,
      "t": 77746.4399999999,
      "d": 204.22525000000314,
      "v": 113
    },
    {
      "midi": 64,
      "hit": false,
      "t": 77746.4399999999,
      "d": 204.22525000000314,
      "v": 102
    },
    {
      "midi": 54,
      "hit": false,
      "t": 77746.4399999999,
      "d": 228.87312499999825,
      "v": 102
    },
    {
      "midi": 72,
      "hit": false,
      "t": 78028.12999999973,
      "d": 63.38025000000198,
      "v": 76
    },
    {
      "midi": 64,
      "hit": false,
      "t": 78028.1299999999,
      "d": 56.338000000003376,
      "v": 72
    },
    {
      "midi": 54,
      "hit": false,
      "t": 78028.1299999999,
      "d": 63.38025000000198,
      "v": 57
    },
    {
      "midi": 60,
      "hit": false,
      "t": 78028.1299999999,
      "d": 70.42250000000058,
      "v": 80
    },
    {
      "midi": 66,
      "hit": false,
      "t": 78031.65112499973,
      "d": 56.338000000003376,
      "v": 64
    },
    {
      "midi": 74,
      "hit": false,
      "t": 78035.17224999973,
      "d": 49.29575000000477,
      "v": 89
    },
    {
      "midi": 66,
      "hit": false,
      "t": 78457.70724999973,
      "d": 334.5068750000064,
      "v": 55
    },
    {
      "midi": 72,
      "hit": false,
      "t": 78584.46774999973,
      "d": 267.6055000000051,
      "v": 102
    },
    {
      "midi": 64,
      "hit": false,
      "t": 78591.50999999991,
      "d": 190.14075000000594,
      "v": 107
    },
    {
      "midi": 60,
      "hit": false,
      "t": 78591.50999999991,
      "d": 193.66187500000524,
      "v": 113
    },
    {
      "midi": 54,
      "hit": false,
      "t": 78591.50999999991,
      "d": 207.74637500000244,
      "v": 102
    },
    {
      "midi": 74,
      "hit": false,
      "t": 78595.03112499973,
      "d": 257.0421250000072,
      "v": 98
    },
    {
      "midi": 54,
      "hit": false,
      "t": 78873.19999999991,
      "d": 52.816875000004075,
      "v": 53
    },
    {
      "midi": 60,
      "hit": false,
      "t": 78873.19999999991,
      "d": 70.42250000000058,
      "v": 76
    },
    {
      "midi": 64,
      "hit": false,
      "t": 78873.19999999991,
      "d": 70.42250000000058,
      "v": 76
    },
    {
      "midi": 66,
      "hit": false,
      "t": 78894.32674999975,
      "d": 91.54924999999639,
      "v": 89
    },
    {
      "midi": 72,
      "hit": false,
      "t": 79003.48162499974,
      "d": 369.7181249999994,
      "v": 107
    },
    {
      "midi": 67,
      "hit": false,
      "t": 79436.57999999991,
      "d": 21.12674999999581,
      "v": 68
    },
    {
      "midi": 64,
      "hit": false,
      "t": 79436.57999999991,
      "d": 193.6618749999907,
      "v": 119
    },
    {
      "midi": 69,
      "hit": false,
      "t": 79436.57999999991,
      "d": 193.6618749999907,
      "v": 113
    },
    {
      "midi": 61,
      "hit": false,
      "t": 79436.57999999991,
      "d": 214.7886249999865,
      "v": 107
    },
    {
      "midi": 69,
      "hit": false,
      "t": 79447.14337499974,
      "d": 2038.731375000003,
      "v": 93
    },
    {
      "midi": 64,
      "hit": false,
      "t": 79718.2699999999,
      "d": 49.29575000000477,
      "v": 76
    },
    {
      "midi": 61,
      "hit": false,
      "t": 79718.2699999999,
      "d": 52.816875000004075,
      "v": 62
    },
    {
      "midi": 69,
      "hit": false,
      "t": 79718.2699999999,
      "d": 52.816875000004075,
      "v": 85
    },
    {
      "midi": 67,
      "hit": false,
      "t": 80281.6499999999,
      "d": 28.168999999994412,
      "v": 89
    },
    {
      "midi": 64,
      "hit": false,
      "t": 80281.6499999999,
      "d": 193.6618749999907,
      "v": 119
    },
    {
      "midi": 69,
      "hit": false,
      "t": 80281.6499999999,
      "d": 197.18299999999,
      "v": 113
    },
    {
      "midi": 61,
      "hit": false,
      "t": 80281.6499999999,
      "d": 214.7886249999865,
      "v": 107
    },
    {
      "midi": 64,
      "hit": false,
      "t": 80563.3399999999,
      "d": 45.77462500000547,
      "v": 72
    },
    {
      "midi": 61,
      "hit": false,
      "t": 80563.3399999999,
      "d": 49.29575000000477,
      "v": 68
    },
    {
      "midi": 69,
      "hit": false,
      "t": 80563.3399999999,
      "d": 63.38025000000198,
      "v": 80
    },
    {
      "midi": 67,
      "hit": false,
      "t": 81126.7199999999,
      "d": 28.168999999994412,
      "v": 62
    },
    {
      "midi": 64,
      "hit": false,
      "t": 81126.7199999999,
      "d": 193.6618749999907,
      "v": 107
    },
    {
      "midi": 69,
      "hit": false,
      "t": 81126.7199999999,
      "d": 204.2252499999886,
      "v": 107
    },
    {
      "midi": 61,
      "hit": false,
      "t": 81126.7199999999,
      "d": 221.8308749999851,
      "v": 107
    },
    {
      "midi": 64,
      "hit": false,
      "t": 81408.40999999989,
      "d": 56.338000000003376,
      "v": 80
    },
    {
      "midi": 61,
      "hit": false,
      "t": 81408.40999999989,
      "d": 63.38025000000198,
      "v": 62
    },
    {
      "midi": 69,
      "hit": false,
      "t": 81408.40999999989,
      "d": 63.38025000000198,
      "v": 89
    },
    {
      "midi": 64,
      "hit": false,
      "t": 81971.78999999989,
      "d": 225.35199999999895,
      "v": 107
    },
    {
      "midi": 61,
      "hit": false,
      "t": 81971.78999999989,
      "d": 232.39424999999756,
      "v": 113
    },
    {
      "midi": 69,
      "hit": false,
      "t": 81971.78999999989,
      "d": 232.39424999999756,
      "v": 107
    },
    {
      "midi": 64,
      "hit": false,
      "t": 82253.4799999999,
      "d": 49.29575000000477,
      "v": 76
    },
    {
      "midi": 61,
      "hit": false,
      "t": 82253.4799999999,
      "d": 66.90137500000128,
      "v": 85
    },
    {
      "midi": 69,
      "hit": false,
      "t": 82253.4799999999,
      "d": 70.42250000000058,
      "v": 93
    },
    {
      "midi": 78,
      "hit": false,
      "t": 82816.8599999999,
      "d": 45.77462500000547,
      "v": 98
    },
    {
      "midi": 74,
      "hit": false,
      "t": 82816.8599999999,
      "d": 105.63375000000815,
      "v": 102
    },
    {
      "midi": 76,
      "hit": false,
      "t": 82816.8599999999,
      "d": 2619.717000000004,
      "v": 76
    },
    {
      "midi": 73,
      "hit": false,
      "t": 82816.8599999999,
      "d": 2626.759250000003,
      "v": 93
    },
    {
      "midi": 33,
      "hit": false,
      "t": 82816.8599999999,
      "d": 2690.139500000005,
      "v": 113
    },
    {
      "midi": 72,
      "hit": false,
      "t": 82957.7049999999,
      "d": 433.0983750000014,
      "v": 60
    },
    {
      "midi": 67,
      "hit": false,
      "t": 82957.7049999999,
      "d": 2602.1113750000077,
      "v": 102
    },
    {
      "midi": 66,
      "hit": false,
      "t": 85633.75999999991,
      "d": 436.6195000000007,
      "v": 119
    },
    {
      "midi": 72,
      "hit": false,
      "t": 85633.75999999991,
      "d": 485.91525000000547,
      "v": 127
    },
    {
      "midi": 75,
      "hit": false,
      "t": 85633.75999999991,
      "d": 489.4363750000048,
      "v": 127
    },
    {
      "midi": 32,
      "hit": false,
      "t": 85633.75999999991,
      "d": 549.2955000000075,
      "v": 119
    },
    {
      "midi": 72,
      "hit": false,
      "t": 86197.13999999991,
      "d": 28.168999999994412,
      "v": 93
    },
    {
      "midi": 76,
      "hit": false,
      "t": 86197.13999999991,
      "d": 2693.6606249999895,
      "v": 113
    },
    {
      "midi": 33,
      "hit": false,
      "t": 86197.13999999991,
      "d": 2711.266249999986,
      "v": 107
    },
    {
      "midi": 67,
      "hit": false,
      "t": 86197.13999999991,
      "d": 2721.829624999984,
      "v": 113
    },
    {
      "midi": 73,
      "hit": false,
      "t": 86197.13999999991,
      "d": 2725.3507499999832,
      "v": 113
    },
    {
      "midi": 73,
      "hit": false,
      "t": 89014.03999999989,
      "d": 144.36612500000047,
      "v": 119
    },
    {
      "midi": 67,
      "hit": false,
      "t": 89014.03999999989,
      "d": 151.40837499999907,
      "v": 107
    },
    {
      "midi": 76,
      "hit": false,
      "t": 89014.03999999989,
      "d": 151.40837499999907,
      "v": 119
    },
    {
      "midi": 33,
      "hit": false,
      "t": 89014.03999999989,
      "d": 228.87312499999825,
      "v": 98
    },
    {
      "midi": 66,
      "hit": false,
      "t": 89436.5749999999,
      "d": 2721.8296249999985,
      "v": 119
    },
    {
      "midi": 76,
      "hit": false,
      "t": 89436.5749999999,
      "d": 2757.0408749999915,
      "v": 113
    },
    {
      "midi": 72,
      "hit": false,
      "t": 89436.5749999999,
      "d": 2764.08312499999,
      "v": 127
    },
    {
      "midi": 38,
      "hit": false,
      "t": 89436.5749999999,
      "d": 2813.378874999995,
      "v": 119
    },
    {
      "midi": 74,
      "hit": false,
      "t": 92394.31999999989,
      "d": 70.42250000000058,
      "v": 107
    },
    {
      "midi": 76,
      "hit": false,
      "t": 92394.31999999989,
      "d": 264.0843750000058,
      "v": 102
    },
    {
      "midi": 73,
      "hit": false,
      "t": 92394.31999999989,
      "d": 281.6900000000023,
      "v": 107
    },
    {
      "midi": 67,
      "hit": false,
      "t": 92394.31999999989,
      "d": 295.77449999999953,
      "v": 113
    },
    {
      "midi": 32,
      "hit": false,
      "t": 92394.31999999989,
      "d": 334.5068750000064,
      "v": 107
    },
    {
      "midi": 76,
      "hit": false,
      "t": 92816.8549999999,
      "d": 2901.4070000000065,
      "v": 113
    },
    {
      "midi": 73,
      "hit": false,
      "t": 92816.8549999999,
      "d": 2904.928125000006,
      "v": 127
    },
    {
      "midi": 67,
      "hit": false,
      "t": 92816.8549999999,
      "d": 2936.6182499999995,
      "v": 119
    },
    {
      "midi": 33,
      "hit": false,
      "t": 92816.8549999999,
      "d": 3383.801124999998,
      "v": 113
    },
    {
      "midi": 83,
      "hit": false,
      "t": 96197.13499999975,
      "d": 88.02812499999709,
      "v": 119
    },
    {
      "midi": 88,
      "hit": false,
      "t": 96337.97999999975,
      "d": 49.29575000000477,
      "v": 119
    },
    {
      "midi": 92,
      "hit": false,
      "t": 96337.97999999975,
      "d": 52.816875000004075,
      "v": 113
    },
    {
      "midi": 83,
      "hit": false,
      "t": 96337.97999999975,
      "d": 70.42250000000058,
      "v": 102
    },
    {
      "midi": 59,
      "hit": false,
      "t": 96337.9799999999,
      "d": 225.35199999999895,
      "v": 127
    },
    {
      "midi": 64,
      "hit": false,
      "t": 96337.9799999999,
      "d": 228.87312499999825,
      "v": 113
    },
    {
      "midi": 56,
      "hit": false,
      "t": 96337.9799999999,
      "d": 239.43649999999616,
      "v": 119
    },
    {
      "midi": 40,
      "hit": false,
      "t": 96337.9799999999,
      "d": 390.8448749999952,
      "v": 107
    },
    {
      "midi": 83,
      "hit": false,
      "t": 96478.82499999975,
      "d": 49.29575000000477,
      "v": 85
    },
    {
      "midi": 88,
      "hit": false,
      "t": 96478.82499999975,
      "d": 49.29575000000477,
      "v": 102
    },
    {
      "midi": 92,
      "hit": false,
      "t": 96478.82499999975,
      "d": 63.38025000000198,
      "v": 113
    },
    {
      "midi": 81,
      "hit": false,
      "t": 96619.66999999975,
      "d": 98.591499999995,
      "v": 107
    },
    {
      "midi": 59,
      "hit": false,
      "t": 96619.6699999999,
      "d": 52.816875000004075,
      "v": 102
    },
    {
      "midi": 56,
      "hit": false,
      "t": 96619.6699999999,
      "d": 63.38025000000198,
      "v": 93
    },
    {
      "midi": 64,
      "hit": false,
      "t": 96619.6699999999,
      "d": 80.98587499999849,
      "v": 98
    },
    {
      "midi": 90,
      "hit": false,
      "t": 96760.51499999975,
      "d": 52.816875000004075,
      "v": 102
    },
    {
      "midi": 86,
      "hit": false,
      "t": 96760.51499999975,
      "d": 80.98587499999849,
      "v": 113
    },
    {
      "midi": 81,
      "hit": false,
      "t": 96760.51499999975,
      "d": 172.53512499999488,
      "v": 62
    },
    {
      "midi": 90,
      "hit": false,
      "t": 96901.35999999975,
      "d": 63.38024999998743,
      "v": 93
    },
    {
      "midi": 86,
      "hit": false,
      "t": 96901.35999999975,
      "d": 66.90137499998673,
      "v": 76
    },
    {
      "midi": 80,
      "hit": false,
      "t": 97042.20499999974,
      "d": 320.4223750000092,
      "v": 89
    },
    {
      "midi": 85,
      "hit": false,
      "t": 97183.04999999974,
      "d": 63.38025000000198,
      "v": 107
    },
    {
      "midi": 88,
      "hit": false,
      "t": 97183.04999999974,
      "d": 63.38025000000198,
      "v": 98
    },
    {
      "midi": 85,
      "hit": false,
      "t": 97323.89499999974,
      "d": 70.42250000000058,
      "v": 93
    },
    {
      "midi": 88,
      "hit": false,
      "t": 97323.89499999974,
      "d": 84.50699999999779,
      "v": 93
    },
    {
      "midi": 78,
      "hit": false,
      "t": 97464.73999999974,
      "d": 348.5913750000036,
      "v": 89
    },
    {
      "midi": 86,
      "hit": false,
      "t": 97605.58499999974,
      "d": 49.29575000000477,
      "v": 113
    },
    {
      "midi": 83,
      "hit": false,
      "t": 97605.58499999974,
      "d": 70.42250000000058,
      "v": 102
    },
    {
      "midi": 83,
      "hit": false,
      "t": 97746.42999999975,
      "d": 73.94362499999988,
      "v": 93
    },
    {
      "midi": 86,
      "hit": false,
      "t": 97746.42999999975,
      "d": 80.98587499999849,
      "v": 93
    },
    {
      "midi": 78,
      "hit": false,
      "t": 97887.27499999975,
      "d": 338.0279999999766,
      "v": 80
    },
    {
      "midi": 86,
      "hit": false,
      "t": 98028.11999999975,
      "d": 35.211249999993015,
      "v": 47
    },
    {
      "midi": 83,
      "hit": false,
      "t": 98028.11999999975,
      "d": 70.42249999998603,
      "v": 64
    },
    {
      "midi": 57,
      "hit": false,
      "t": 98028.1199999999,
      "d": 207.74637500000244,
      "v": 127
    },
    {
      "midi": 62,
      "hit": false,
      "t": 98028.1199999999,
      "d": 207.74637500000244,
      "v": 119
    },
    {
      "midi": 38,
      "hit": false,
      "t": 98028.1199999999,
      "d": 211.26750000000175,
      "v": 127
    },
    {
      "midi": 54,
      "hit": false,
      "t": 98028.1199999999,
      "d": 334.5068750000064,
      "v": 119
    },
    {
      "midi": 83,
      "hit": false,
      "t": 98168.96499999973,
      "d": 35.211249999993015,
      "v": 64
    },
    {
      "midi": 86,
      "hit": false,
      "t": 98168.96499999973,
      "d": 84.50699999998324,
      "v": 102
    },
    {
      "midi": 78,
      "hit": false,
      "t": 98309.80999999972,
      "d": 119.71825000000536,
      "v": 80
    },
    {
      "midi": 57,
      "hit": false,
      "t": 98309.8099999999,
      "d": 66.90137500000128,
      "v": 98
    },
    {
      "midi": 62,
      "hit": false,
      "t": 98309.8099999999,
      "d": 66.90137500000128,
      "v": 98
    },
    {
      "midi": 38,
      "hit": false,
      "t": 98309.8099999999,
      "d": 98.591499999995,
      "v": 85
    },
    {
      "midi": 84,
      "hit": false,
      "t": 98450.65499999972,
      "d": 84.50699999999779,
      "v": 80
    },
    {
      "midi": 81,
      "hit": false,
      "t": 98450.65499999972,
      "d": 116.1971249999915,
      "v": 93
    },
    {
      "midi": 81,
      "hit": false,
      "t": 98591.49999999971,
      "d": 137.32387500000186,
      "v": 76
    },
    {
      "midi": 84,
      "hit": false,
      "t": 98591.49999999971,
      "d": 137.32387500000186,
      "v": 93
    },
    {
      "midi": 76,
      "hit": false,
      "t": 98732.34499999971,
      "d": 91.54924999999639,
      "v": 102
    },
    {
      "midi": 83,
      "hit": false,
      "t": 98873.18999999971,
      "d": 52.816875000004075,
      "v": 93
    },
    {
      "midi": 80,
      "hit": false,
      "t": 98873.18999999971,
      "d": 73.94362499999988,
      "v": 93
    },
    {
      "midi": 83,
      "hit": false,
      "t": 99014.03499999971,
      "d": 88.02812499999709,
      "v": 85
    },
    {
      "midi": 80,
      "hit": false,
      "t": 99084.45749999971,
      "d": 31.690124999993714,
      "v": 42
    },
    {
      "midi": 76,
      "hit": false,
      "t": 99154.87999999971,
      "d": 98.591499999995,
      "v": 93
    },
    {
      "midi": 78,
      "hit": false,
      "t": 99295.72499999971,
      "d": 249.99987499999406,
      "v": 107
    },
    {
      "midi": 81,
      "hit": false,
      "t": 99295.72499999971,
      "d": 264.08437499999127,
      "v": 102
    },
    {
      "midi": 60,
      "hit": false,
      "t": 99295.72499999989,
      "d": 225.35199999999895,
      "v": 127
    },
    {
      "midi": 36,
      "hit": false,
      "t": 99295.72499999989,
      "d": 249.99987499999406,
      "v": 127
    },
    {
      "midi": 76,
      "hit": false,
      "t": 99577.4149999997,
      "d": 73.94362499999988,
      "v": 93
    },
    {
      "midi": 57,
      "hit": false,
      "t": 99577.41499999988,
      "d": 440.140625,
      "v": 98
    },
    {
      "midi": 33,
      "hit": false,
      "t": 99577.41499999988,
      "d": 2264.083375000002,
      "v": 98
    },
    {
      "midi": 76,
      "hit": false,
      "t": 99718.2599999997,
      "d": 221.83087499999965,
      "v": 113
    },
    {
      "midi": 81,
      "hit": false,
      "t": 99718.2599999997,
      "d": 267.6055000000051,
      "v": 107
    },
    {
      "midi": 76,
      "hit": false,
      "t": 100140.7949999997,
      "d": 70.42250000000058,
      "v": 53
    },
    {
      "midi": 57,
      "hit": false,
      "t": 100140.79499999988,
      "d": 1693.6611249999987,
      "v": 113
    },
    {
      "midi": 64,
      "hit": false,
      "t": 100140.79499999988,
      "d": 1704.2244999999966,
      "v": 119
    },
    {
      "midi": 69,
      "hit": false,
      "t": 100140.79499999988,
      "d": 1739.4357499999896,
      "v": 119
    },
    {
      "midi": 79,
      "hit": false,
      "t": 100211.21749999971,
      "d": 137.32387500000186,
      "v": 89
    },
    {
      "midi": 76,
      "hit": false,
      "t": 100281.63999999971,
      "d": 119.71825000000536,
      "v": 56
    },
    {
      "midi": 69,
      "hit": false,
      "t": 100422.48499999971,
      "d": 98.591499999995,
      "v": 60
    },
    {
      "midi": 78,
      "hit": false,
      "t": 100563.32999999971,
      "d": 119.71825000000536,
      "v": 102
    },
    {
      "midi": 74,
      "hit": false,
      "t": 100563.32999999971,
      "d": 137.32387500000186,
      "v": 102
    },
    {
      "midi": 72,
      "hit": false,
      "t": 100845.01999999971,
      "d": 119.71825000000536,
      "v": 113
    },
    {
      "midi": 76,
      "hit": false,
      "t": 100845.01999999971,
      "d": 239.43649999999616,
      "v": 102
    },
    {
      "midi": 73,
      "hit": false,
      "t": 100985.86499999971,
      "d": 123.2393749999901,
      "v": 76
    },
    {
      "midi": 69,
      "hit": false,
      "t": 101126.7099999997,
      "d": 66.90137500000128,
      "v": 89
    },
    {
      "midi": 66,
      "hit": false,
      "t": 101267.5549999997,
      "d": 102.1126249999943,
      "v": 102
    },
    {
      "midi": 69,
      "hit": false,
      "t": 101418.9633749997,
      "d": 598.5912499999977,
      "v": 76
    },
    {
      "midi": 93,
      "hit": false,
      "t": 105059.80662499969,
      "d": 102.1126249999943,
      "v": 80
    },
    {
      "midi": 92,
      "hit": false,
      "t": 105147.83474999969,
      "d": 56.337999999988824,
      "v": 62
    },
    {
      "midi": 91,
      "hit": false,
      "t": 105193.60937499968,
      "d": 63.38025000000198,
      "v": 98
    },
    {
      "midi": 90,
      "hit": false,
      "t": 105264.03187499968,
      "d": 239.43649999999616,
      "v": 107
    },
    {
      "midi": 93,
      "hit": false,
      "t": 105499.94724999968,
      "d": 56.338000000003376,
      "v": 72
    },
    {
      "midi": 96,
      "hit": false,
      "t": 105644.31337499968,
      "d": 239.43649999999616,
      "v": 113
    },
    {
      "midi": 95,
      "hit": false,
      "t": 106028.11599999967,
      "d": 281.6900000000023,
      "v": 89
    },
    {
      "midi": 90,
      "hit": false,
      "t": 106355.58062499968,
      "d": 105.6337499999936,
      "v": 44
    },
    {
      "midi": 96,
      "hit": false,
      "t": 106485.86224999967,
      "d": 88.02812499999709,
      "v": 93
    },
    {
      "midi": 97,
      "hit": false,
      "t": 106612.62274999967,
      "d": 126.76050000000396,
      "v": 72
    },
    {
      "midi": 93,
      "hit": false,
      "t": 106760.50999999967,
      "d": 126.76050000000396,
      "v": 57
    },
    {
      "midi": 90,
      "hit": false,
      "t": 106922.48174999967,
      "d": 211.26750000000175,
      "v": 64
    },
    {
      "midi": 88,
      "hit": false,
      "t": 107207.69287499967,
      "d": 84.50699999999779,
      "v": 60
    },
    {
      "midi": 93,
      "hit": false,
      "t": 107323.88999999966,
      "d": 242.95762499999546,
      "v": 76
    },
    {
      "midi": 88,
      "hit": false,
      "t": 107630.22787499966,
      "d": 73.94362499999988,
      "v": 60
    },
    {
      "midi": 90,
      "hit": false,
      "t": 107767.55174999966,
      "d": 232.39424999999756,
      "v": 62
    },
    {
      "midi": 88,
      "hit": false,
      "t": 108049.24174999967,
      "d": 98.591499999995,
      "v": 57
    },
    {
      "midi": 91,
      "hit": false,
      "t": 108179.52337499966,
      "d": 98.591499999995,
      "v": 76
    },
    {
      "midi": 88,
      "hit": false,
      "t": 108281.63599999965,
      "d": 84.50700000001234,
      "v": 72
    },
    {
      "midi": 91,
      "hit": false,
      "t": 108320.36837499966,
      "d": 102.11262500000885,
      "v": 68
    },
    {
      "midi": 81,
      "hit": false,
      "t": 108492.90349999967,
      "d": 116.19712500000605,
      "v": 98
    },
    {
      "midi": 86,
      "hit": false,
      "t": 108654.87524999968,
      "d": 169.01399999999558,
      "v": 98
    },
    {
      "midi": 90,
      "hit": false,
      "t": 108654.87524999968,
      "d": 176.05624999999418,
      "v": 76
    },
    {
      "midi": 81,
      "hit": false,
      "t": 108873.18499999968,
      "d": 88.02812499999709,
      "v": 76
    },
    {
      "midi": 84,
      "hit": false,
      "t": 109024.59337499968,
      "d": 84.50699999999779,
      "v": 98
    },
    {
      "midi": 88,
      "hit": false,
      "t": 109031.63562499968,
      "d": 654.9292499999865,
      "v": 62
    },
    {
      "midi": 85,
      "hit": false,
      "t": 109119.66374999967,
      "d": 390.8448749999952,
      "v": 76
    },
    {
      "midi": 85,
      "hit": false,
      "t": 109711.21274999966,
      "d": 109.1548749999929,
      "v": 113
    },
    {
      "midi": 86,
      "hit": false,
      "t": 109848.53662499964,
      "d": 88.02812499999709,
      "v": 107
    },
    {
      "midi": 87,
      "hit": false,
      "t": 109975.29712499965,
      "d": 98.591499999995,
      "v": 62
    },
    {
      "midi": 87,
      "hit": false,
      "t": 110105.57874999964,
      "d": 299.29562499999884,
      "v": 60
    },
    {
      "midi": 95,
      "hit": false,
      "t": 110109.09987499964,
      "d": 408.4505000000063,
      "v": 102
    },
    {
      "midi": 88,
      "hit": false,
      "t": 110545.71937499964,
      "d": 295.77449999999953,
      "v": 68
    },
    {
      "midi": 97,
      "hit": false,
      "t": 110676.00099999964,
      "d": 257.04212499999267,
      "v": 102
    },
    {
      "midi": 89,
      "hit": false,
      "t": 110961.21212499963,
      "d": 334.50687499999185,
      "v": 93
    },
    {
      "midi": 98,
      "hit": false,
      "t": 111116.14162499963,
      "d": 186.61962499999208,
      "v": 107
    },
    {
      "midi": 90,
      "hit": false,
      "t": 111383.74712499962,
      "d": 401.40824999999313,
      "v": 107
    },
    {
      "midi": 99,
      "hit": false,
      "t": 111383.74712499962,
      "d": 471.8307499999937,
      "v": 102
    },
    {
      "midi": 90,
      "hit": false,
      "t": 111883.7468749996,
      "d": 109.1548749999929,
      "v": 113
    },
    {
      "midi": 97,
      "hit": false,
      "t": 111978.8172499996,
      "d": 239.43649999999616,
      "v": 107
    },
    {
      "midi": 95,
      "hit": false,
      "t": 112415.4367499996,
      "d": 225.35199999999895,
      "v": 107
    },
    {
      "midi": 97,
      "hit": false,
      "t": 112693.6056249996,
      "d": 161.97174999999697,
      "v": 76
    },
    {
      "midi": 95,
      "hit": false,
      "t": 113133.7462499996,
      "d": 102.1126249999943,
      "v": 93
    },
    {
      "midi": 100,
      "hit": false,
      "t": 113242.9011249996,
      "d": 249.99987499999406,
      "v": 102
    },
    {
      "midi": 100,
      "hit": false,
      "t": 113679.5206249996,
      "d": 204.22525000000314,
      "v": 113
    },
    {
      "midi": 100,
      "hit": false,
      "t": 114095.0133749996,
      "d": 239.43649999999616,
      "v": 107
    },
    {
      "midi": 95,
      "hit": false,
      "t": 114348.5343749996,
      "d": 116.19712500000605,
      "v": 72
    },
    {
      "midi": 97,
      "hit": false,
      "t": 114506.98499999961,
      "d": 186.61962500000664,
      "v": 107
    },
    {
      "midi": 100,
      "hit": false,
      "t": 114799.23837499961,
      "d": 1158.450125000003,
      "v": 113
    },
    {
      "midi": 61,
      "hit": false,
      "t": 116619.65999999987,
      "d": 204.22525000000314,
      "v": 119
    },
    {
      "midi": 64,
      "hit": false,
      "t": 116619.65999999987,
      "d": 204.22525000000314,
      "v": 107
    },
    {
      "midi": 57,
      "hit": false,
      "t": 116619.65999999987,
      "d": 214.78862500000105,
      "v": 107
    },
    {
      "midi": 61,
      "hit": false,
      "t": 116901.34999999987,
      "d": 35.211249999993015,
      "v": 89
    },
    {
      "midi": 64,
      "hit": false,
      "t": 116901.34999999987,
      "d": 35.211249999993015,
      "v": 68
    },
    {
      "midi": 57,
      "hit": false,
      "t": 116901.34999999987,
      "d": 49.29574999999022,
      "v": 80
    },
    {
      "midi": 64,
      "hit": false,
      "t": 117464.72999999986,
      "d": 186.61962500000664,
      "v": 102
    },
    {
      "midi": 57,
      "hit": false,
      "t": 117464.72999999986,
      "d": 193.66187500000524,
      "v": 107
    },
    {
      "midi": 61,
      "hit": false,
      "t": 117464.72999999986,
      "d": 193.66187500000524,
      "v": 107
    },
    {
      "midi": 64,
      "hit": false,
      "t": 117746.41999999987,
      "d": 38.73237500000687,
      "v": 76
    },
    {
      "midi": 61,
      "hit": false,
      "t": 117746.41999999987,
      "d": 45.77462500000547,
      "v": 93
    },
    {
      "midi": 57,
      "hit": false,
      "t": 117746.41999999987,
      "d": 49.29575000000477,
      "v": 72
    },
    {
      "midi": 64,
      "hit": false,
      "t": 118309.79999999987,
      "d": 214.78862500000105,
      "v": 107
    },
    {
      "midi": 61,
      "hit": false,
      "t": 118309.79999999987,
      "d": 221.83087499999965,
      "v": 119
    },
    {
      "midi": 57,
      "hit": false,
      "t": 118309.79999999987,
      "d": 232.39424999999756,
      "v": 107
    },
    {
      "midi": 61,
      "hit": false,
      "t": 118591.48999999987,
      "d": 49.29575000000477,
      "v": 98
    },
    {
      "midi": 57,
      "hit": false,
      "t": 118591.48999999987,
      "d": 56.338000000003376,
      "v": 89
    },
    {
      "midi": 64,
      "hit": false,
      "t": 118591.48999999987,
      "d": 56.338000000003376,
      "v": 89
    },
    {
      "midi": 64,
      "hit": false,
      "t": 119154.86999999988,
      "d": 207.74637500000244,
      "v": 107
    },
    {
      "midi": 61,
      "hit": false,
      "t": 119154.86999999988,
      "d": 221.83087499999965,
      "v": 113
    },
    {
      "midi": 57,
      "hit": false,
      "t": 119154.86999999988,
      "d": 225.35199999999895,
      "v": 102
    },
    {
      "midi": 57,
      "hit": false,
      "t": 119436.55999999988,
      "d": 49.29575000000477,
      "v": 89
    },
    {
      "midi": 61,
      "hit": false,
      "t": 119436.55999999988,
      "d": 49.29575000000477,
      "v": 98
    },
    {
      "midi": 64,
      "hit": false,
      "t": 119436.55999999988,
      "d": 52.816875000004075,
      "v": 93
    },
    {
      "midi": 61,
      "hit": false,
      "t": 119859.09499999988,
      "d": 35.211249999993015,
      "v": 43
    },
    {
      "midi": 61,
      "hit": false,
      "t": 119999.93999999987,
      "d": 232.39424999999756,
      "v": 113
    },
    {
      "midi": 64,
      "hit": false,
      "t": 119999.93999999987,
      "d": 232.39424999999756,
      "v": 113
    },
    {
      "midi": 57,
      "hit": false,
      "t": 119999.93999999987,
      "d": 345.0702500000043,
      "v": 98
    },
    {
      "midi": 61,
      "hit": false,
      "t": 120281.62999999987,
      "d": 52.816875000004075,
      "v": 93
    },
    {
      "midi": 64,
      "hit": false,
      "t": 120281.62999999987,
      "d": 52.816875000004075,
      "v": 85
    },
    {
      "midi": 63,
      "hit": false,
      "t": 120845.00999999988,
      "d": 31.690124999993714,
      "v": 57
    },
    {
      "midi": 64,
      "hit": false,
      "t": 120845.00999999988,
      "d": 190.14074999999139,
      "v": 93
    },
    {
      "midi": 61,
      "hit": false,
      "t": 120845.00999999988,
      "d": 204.2252499999886,
      "v": 102
    },
    {
      "midi": 57,
      "hit": false,
      "t": 120845.00999999988,
      "d": 225.3519999999844,
      "v": 89
    },
    {
      "midi": 61,
      "hit": false,
      "t": 121126.69999999987,
      "d": 49.29575000000477,
      "v": 89
    },
    {
      "midi": 64,
      "hit": false,
      "t": 121126.69999999987,
      "d": 52.816875000004075,
      "v": 89
    },
    {
      "midi": 57,
      "hit": false,
      "t": 121126.69999999987,
      "d": 56.338000000003376,
      "v": 85
    },
    {
      "midi": 63,
      "hit": false,
      "t": 121690.07999999987,
      "d": 28.168999999994412,
      "v": 85
    },
    {
      "midi": 64,
      "hit": false,
      "t": 121690.07999999987,
      "d": 211.2674999999872,
      "v": 113
    },
    {
      "midi": 61,
      "hit": false,
      "t": 121690.07999999987,
      "d": 228.8731249999837,
      "v": 127
    },
    {
      "midi": 57,
      "hit": false,
      "t": 121690.07999999987,
      "d": 239.4364999999816,
      "v": 107
    },
    {
      "midi": 64,
      "hit": false,
      "t": 121971.76999999986,
      "d": 49.29575000000477,
      "v": 89
    },
    {
      "midi": 57,
      "hit": false,
      "t": 121971.76999999986,
      "d": 52.816875000004075,
      "v": 85
    },
    {
      "midi": 61,
      "hit": false,
      "t": 121971.76999999986,
      "d": 52.816875000004075,
      "v": 98
    },
    {
      "midi": 63,
      "hit": false,
      "t": 122535.14999999986,
      "d": 21.12674999999581,
      "v": 55
    },
    {
      "midi": 64,
      "hit": false,
      "t": 122535.14999999986,
      "d": 193.6618749999907,
      "v": 113
    },
    {
      "midi": 61,
      "hit": false,
      "t": 122535.14999999986,
      "d": 197.18299999999,
      "v": 119
    },
    {
      "midi": 57,
      "hit": false,
      "t": 122535.14999999986,
      "d": 204.2252499999886,
      "v": 113
    },
    {
      "midi": 64,
      "hit": false,
      "t": 122816.83999999985,
      "d": 45.77462500000547,
      "v": 80
    },
    {
      "midi": 61,
      "hit": false,
      "t": 122816.83999999985,
      "d": 49.29575000000477,
      "v": 89
    },
    {
      "midi": 57,
      "hit": false,
      "t": 122816.83999999985,
      "d": 56.338000000003376,
      "v": 80
    },
    {
      "midi": 60,
      "hit": false,
      "t": 123380.21999999986,
      "d": 211.26750000000175,
      "v": 113
    },
    {
      "midi": 64,
      "hit": false,
      "t": 123380.21999999986,
      "d": 239.43649999999616,
      "v": 113
    },
    {
      "midi": 57,
      "hit": false,
      "t": 123380.21999999986,
      "d": 345.0702500000043,
      "v": 102
    },
    {
      "midi": 60,
      "hit": false,
      "t": 123661.90999999986,
      "d": 52.816875000004075,
      "v": 89
    },
    {
      "midi": 64,
      "hit": false,
      "t": 123661.90999999986,
      "d": 52.816875000004075,
      "v": 89
    },
    {
      "midi": 62,
      "hit": false,
      "t": 124225.28999999986,
      "d": 28.168999999994412,
      "v": 76
    },
    {
      "midi": 60,
      "hit": false,
      "t": 124225.28999999986,
      "d": 197.18299999999,
      "v": 119
    },
    {
      "midi": 64,
      "hit": false,
      "t": 124225.28999999986,
      "d": 204.2252499999886,
      "v": 107
    },
    {
      "midi": 57,
      "hit": false,
      "t": 124225.28999999986,
      "d": 309.8589999999822,
      "v": 102
    },
    {
      "midi": 60,
      "hit": false,
      "t": 124506.97999999985,
      "d": 52.81687499998952,
      "v": 76
    },
    {
      "midi": 64,
      "hit": false,
      "t": 124506.97999999985,
      "d": 70.42249999998603,
      "v": 76
    },
    {
      "midi": 60,
      "hit": false,
      "t": 125070.35999999984,
      "d": 193.66187500000524,
      "v": 113
    },
    {
      "midi": 64,
      "hit": false,
      "t": 125070.35999999984,
      "d": 204.22525000000314,
      "v": 107
    },
    {
      "midi": 57,
      "hit": false,
      "t": 125070.35999999984,
      "d": 221.83087499999965,
      "v": 107
    },
    {
      "midi": 57,
      "hit": false,
      "t": 125352.04999999984,
      "d": 52.816875000004075,
      "v": 72
    },
    {
      "midi": 64,
      "hit": false,
      "t": 125352.04999999984,
      "d": 56.338000000003376,
      "v": 89
    },
    {
      "midi": 60,
      "hit": false,
      "t": 125352.04999999984,
      "d": 63.38025000000198,
      "v": 85
    },
    {
      "midi": 60,
      "hit": false,
      "t": 125915.42999999985,
      "d": 176.05624999999418,
      "v": 119
    },
    {
      "midi": 64,
      "hit": false,
      "t": 125915.42999999985,
      "d": 190.14074999999139,
      "v": 102
    },
    {
      "midi": 57,
      "hit": false,
      "t": 125915.42999999985,
      "d": 295.774499999985,
      "v": 107
    },
    {
      "midi": 60,
      "hit": false,
      "t": 126197.11999999984,
      "d": 66.90137500000128,
      "v": 80
    },
    {
      "midi": 64,
      "hit": false,
      "t": 126197.11999999984,
      "d": 66.90137500000128,
      "v": 72
    },
    {
      "midi": 63,
      "hit": false,
      "t": 126760.49999999984,
      "d": 35.211249999993015,
      "v": 62
    },
    {
      "midi": 61,
      "hit": false,
      "t": 126760.49999999984,
      "d": 193.6618749999907,
      "v": 107
    },
    {
      "midi": 64,
      "hit": false,
      "t": 126760.49999999984,
      "d": 197.18299999999,
      "v": 98
    },
    {
      "midi": 57,
      "hit": false,
      "t": 126760.49999999984,
      "d": 207.7463749999879,
      "v": 98
    },
    {
      "midi": 61,
      "hit": false,
      "t": 127042.18999999983,
      "d": 49.29575000000477,
      "v": 93
    },
    {
      "midi": 57,
      "hit": false,
      "t": 127042.18999999983,
      "d": 56.338000000003376,
      "v": 76
    },
    {
      "midi": 64,
      "hit": false,
      "t": 127042.18999999983,
      "d": 66.90137500000128,
      "v": 76
    },
    {
      "midi": 61,
      "hit": false,
      "t": 127605.56999999983,
      "d": 207.74637500000244,
      "v": 127
    },
    {
      "midi": 57,
      "hit": false,
      "t": 127605.56999999983,
      "d": 214.78862500000105,
      "v": 107
    },
    {
      "midi": 64,
      "hit": false,
      "t": 127605.56999999983,
      "d": 214.78862500000105,
      "v": 107
    },
    {
      "midi": 57,
      "hit": false,
      "t": 127887.25999999983,
      "d": 49.29575000000477,
      "v": 85
    },
    {
      "midi": 61,
      "hit": false,
      "t": 127887.25999999983,
      "d": 49.29575000000477,
      "v": 93
    },
    {
      "midi": 64,
      "hit": false,
      "t": 127887.25999999983,
      "d": 66.90137500000128,
      "v": 89
    },
    {
      "midi": 61,
      "hit": false,
      "t": 128450.63999999984,
      "d": 197.18300000000454,
      "v": 119
    },
    {
      "midi": 64,
      "hit": false,
      "t": 128450.63999999984,
      "d": 204.22525000000314,
      "v": 107
    },
    {
      "midi": 57,
      "hit": false,
      "t": 128450.63999999984,
      "d": 214.78862500000105,
      "v": 107
    },
    {
      "midi": 61,
      "hit": false,
      "t": 128732.32999999984,
      "d": 49.29575000000477,
      "v": 89
    },
    {
      "midi": 64,
      "hit": false,
      "t": 128732.32999999984,
      "d": 49.29575000000477,
      "v": 72
    },
    {
      "midi": 57,
      "hit": false,
      "t": 128732.32999999984,
      "d": 52.816875000004075,
      "v": 59
    },
    {
      "midi": 64,
      "hit": false,
      "t": 129295.70999999985,
      "d": 190.14075000000594,
      "v": 102
    },
    {
      "midi": 61,
      "hit": false,
      "t": 129295.70999999985,
      "d": 207.74637500000244,
      "v": 113
    },
    {
      "midi": 57,
      "hit": false,
      "t": 129295.70999999985,
      "d": 214.78862500000105,
      "v": 102
    },
    {
      "midi": 61,
      "hit": false,
      "t": 129577.39999999985,
      "d": 66.90137500000128,
      "v": 93
    },
    {
      "midi": 64,
      "hit": false,
      "t": 129577.39999999985,
      "d": 66.90137500000128,
      "v": 80
    },
    {
      "midi": 57,
      "hit": false,
      "t": 129577.39999999985,
      "d": 73.94362499999988,
      "v": 72
    },
    {
      "midi": 59,
      "hit": false,
      "t": 130140.77999999985,
      "d": 193.66187500000524,
      "v": 119
    },
    {
      "midi": 64,
      "hit": false,
      "t": 130140.77999999985,
      "d": 207.74637500000244,
      "v": 107
    },
    {
      "midi": 56,
      "hit": false,
      "t": 130140.77999999985,
      "d": 221.83087499999965,
      "v": 113
    },
    {
      "midi": 56,
      "hit": false,
      "t": 130422.46999999986,
      "d": 45.77462500000547,
      "v": 62
    },
    {
      "midi": 59,
      "hit": false,
      "t": 130422.46999999986,
      "d": 52.816875000004075,
      "v": 72
    },
    {
      "midi": 64,
      "hit": false,
      "t": 130422.46999999986,
      "d": 66.90137500000128,
      "v": 68
    },
    {
      "midi": 64,
      "hit": false,
      "t": 130985.84999999986,
      "d": 179.57737499999348,
      "v": 102
    },
    {
      "midi": 59,
      "hit": false,
      "t": 130985.84999999986,
      "d": 193.6618749999907,
      "v": 113
    },
    {
      "midi": 56,
      "hit": false,
      "t": 130985.84999999986,
      "d": 214.7886249999865,
      "v": 107
    },
    {
      "midi": 56,
      "hit": false,
      "t": 131267.53999999983,
      "d": 70.42249999998603,
      "v": 46
    },
    {
      "midi": 64,
      "hit": false,
      "t": 131267.53999999983,
      "d": 70.42249999998603,
      "v": 85
    },
    {
      "midi": 59,
      "hit": false,
      "t": 131267.53999999983,
      "d": 80.98587499998393,
      "v": 80
    },
    {
      "midi": 60,
      "hit": false,
      "t": 131830.9199999998,
      "d": 204.2252499999886,
      "v": 113
    },
    {
      "midi": 64,
      "hit": false,
      "t": 131830.9199999998,
      "d": 204.2252499999886,
      "v": 102
    },
    {
      "midi": 54,
      "hit": false,
      "t": 131830.9199999998,
      "d": 228.8731249999837,
      "v": 102
    },
    {
      "midi": 64,
      "hit": false,
      "t": 132112.60999999978,
      "d": 56.337999999988824,
      "v": 72
    },
    {
      "midi": 54,
      "hit": false,
      "t": 132112.60999999978,
      "d": 63.38024999998743,
      "v": 57
    },
    {
      "midi": 60,
      "hit": false,
      "t": 132112.60999999978,
      "d": 70.42249999998603,
      "v": 80
    },
    {
      "midi": 64,
      "hit": false,
      "t": 132675.98999999976,
      "d": 190.14074999999139,
      "v": 107
    },
    {
      "midi": 60,
      "hit": false,
      "t": 132675.98999999976,
      "d": 193.6618749999907,
      "v": 113
    },
    {
      "midi": 54,
      "hit": false,
      "t": 132675.98999999976,
      "d": 207.7463749999879,
      "v": 102
    },
    {
      "midi": 54,
      "hit": false,
      "t": 132957.67999999976,
      "d": 52.81687499998952,
      "v": 53
    },
    {
      "midi": 60,
      "hit": false,
      "t": 132957.67999999976,
      "d": 70.42249999998603,
      "v": 76
    },
    {
      "midi": 64,
      "hit": false,
      "t": 132957.67999999976,
      "d": 70.42249999998603,
      "v": 76
    },
    {
      "midi": 67,
      "hit": false,
      "t": 133521.05999999974,
      "d": 21.12674999999581,
      "v": 68
    },
    {
      "midi": 64,
      "hit": false,
      "t": 133521.05999999974,
      "d": 193.6618749999907,
      "v": 119
    },
    {
      "midi": 69,
      "hit": false,
      "t": 133521.05999999974,
      "d": 193.6618749999907,
      "v": 113
    },
    {
      "midi": 61,
      "hit": false,
      "t": 133521.05999999974,
      "d": 214.7886249999865,
      "v": 107
    },
    {
      "midi": 64,
      "hit": false,
      "t": 133802.7499999997,
      "d": 49.29574999999022,
      "v": 76
    },
    {
      "midi": 61,
      "hit": false,
      "t": 133802.7499999997,
      "d": 52.81687499998952,
      "v": 62
    },
    {
      "midi": 69,
      "hit": false,
      "t": 133802.7499999997,
      "d": 52.81687499998952,
      "v": 85
    },
    {
      "midi": 67,
      "hit": false,
      "t": 134366.12999999968,
      "d": 28.168999999994412,
      "v": 89
    },
    {
      "midi": 64,
      "hit": false,
      "t": 134366.12999999968,
      "d": 193.6618749999907,
      "v": 119
    },
    {
      "midi": 69,
      "hit": false,
      "t": 134366.12999999968,
      "d": 197.18299999999,
      "v": 113
    },
    {
      "midi": 61,
      "hit": false,
      "t": 134366.12999999968,
      "d": 214.7886249999865,
      "v": 107
    },
    {
      "midi": 64,
      "hit": false,
      "t": 134647.81999999966,
      "d": 45.77462499999092,
      "v": 72
    },
    {
      "midi": 61,
      "hit": false,
      "t": 134647.81999999966,
      "d": 49.29574999999022,
      "v": 68
    },
    {
      "midi": 69,
      "hit": false,
      "t": 134647.81999999966,
      "d": 63.38024999998743,
      "v": 80
    },
    {
      "midi": 67,
      "hit": false,
      "t": 135211.19999999963,
      "d": 28.168999999994412,
      "v": 62
    },
    {
      "midi": 64,
      "hit": false,
      "t": 135211.19999999963,
      "d": 193.6618749999907,
      "v": 107
    },
    {
      "midi": 69,
      "hit": false,
      "t": 135211.19999999963,
      "d": 204.2252499999886,
      "v": 107
    },
    {
      "midi": 61,
      "hit": false,
      "t": 135211.19999999963,
      "d": 221.8308749999851,
      "v": 107
    },
    {
      "midi": 64,
      "hit": false,
      "t": 135492.8899999996,
      "d": 56.337999999988824,
      "v": 80
    },
    {
      "midi": 61,
      "hit": false,
      "t": 135492.8899999996,
      "d": 63.38024999998743,
      "v": 62
    },
    {
      "midi": 69,
      "hit": false,
      "t": 135492.8899999996,
      "d": 63.38024999998743,
      "v": 89
    },
    {
      "midi": 64,
      "hit": false,
      "t": 136056.26999999958,
      "d": 225.3520000000135,
      "v": 107
    },
    {
      "midi": 61,
      "hit": false,
      "t": 136056.26999999958,
      "d": 232.3942500000121,
      "v": 113
    },
    {
      "midi": 69,
      "hit": false,
      "t": 136056.26999999958,
      "d": 232.3942500000121,
      "v": 107
    },
    {
      "midi": 64,
      "hit": false,
      "t": 136337.95999999958,
      "d": 49.29574999999022,
      "v": 76
    },
    {
      "midi": 61,
      "hit": false,
      "t": 136337.95999999958,
      "d": 66.90137499998673,
      "v": 85
    },
    {
      "midi": 69,
      "hit": false,
      "t": 136337.95999999958,
      "d": 70.42249999998603,
      "v": 93
    },
    {
      "midi": 59,
      "hit": false,
      "t": 136901.33999999956,
      "d": 193.6618749999907,
      "v": 119
    },
    {
      "midi": 64,
      "hit": false,
      "t": 136901.33999999956,
      "d": 207.7463749999879,
      "v": 107
    },
    {
      "midi": 56,
      "hit": false,
      "t": 136901.33999999956,
      "d": 221.8308749999851,
      "v": 113
    },
    {
      "midi": 56,
      "hit": false,
      "t": 137183.02999999953,
      "d": 45.77462499999092,
      "v": 62
    },
    {
      "midi": 59,
      "hit": false,
      "t": 137183.02999999953,
      "d": 52.81687499998952,
      "v": 72
    },
    {
      "midi": 64,
      "hit": false,
      "t": 137183.02999999953,
      "d": 66.90137499998673,
      "v": 68
    },
    {
      "midi": 64,
      "hit": false,
      "t": 137746.4099999995,
      "d": 179.57737499999348,
      "v": 102
    },
    {
      "midi": 59,
      "hit": false,
      "t": 137746.4099999995,
      "d": 193.6618749999907,
      "v": 113
    },
    {
      "midi": 56,
      "hit": false,
      "t": 137746.4099999995,
      "d": 214.7886249999865,
      "v": 107
    },
    {
      "midi": 56,
      "hit": false,
      "t": 138028.09999999948,
      "d": 70.42249999998603,
      "v": 46
    },
    {
      "midi": 64,
      "hit": false,
      "t": 138028.09999999948,
      "d": 70.42249999998603,
      "v": 85
    },
    {
      "midi": 59,
      "hit": false,
      "t": 138028.09999999948,
      "d": 80.98587499998393,
      "v": 80
    },
    {
      "midi": 100,
      "hit": false,
      "t": 143211.19599999962,
      "d": 88.02812499998254,
      "v": 68
    },
    {
      "midi": 99,
      "hit": false,
      "t": 143278.0973749996,
      "d": 66.90137499998673,
      "v": 107
    },
    {
      "midi": 97,
      "hit": false,
      "t": 143320.3508749996,
      "d": 56.337999999988824,
      "v": 107
    },
    {
      "midi": 95,
      "hit": false,
      "t": 143362.6043749996,
      "d": 56.337999999988824,
      "v": 107
    },
    {
      "midi": 93,
      "hit": false,
      "t": 143401.33674999958,
      "d": 56.337999999988824,
      "v": 107
    },
    {
      "midi": 92,
      "hit": false,
      "t": 143436.54799999957,
      "d": 56.337999999988824,
      "v": 113
    },
    {
      "midi": 90,
      "hit": false,
      "t": 143471.75924999957,
      "d": 56.337999999988824,
      "v": 113
    },
    {
      "midi": 88,
      "hit": false,
      "t": 143496.40712499956,
      "d": 35.211249999993015,
      "v": 127
    },
    {
      "midi": 87,
      "hit": false,
      "t": 143524.57612499956,
      "d": 28.168999999994412,
      "v": 127
    },
    {
      "midi": 85,
      "hit": false,
      "t": 143549.22399999955,
      "d": 14.084499999997206,
      "v": 113
    },
    {
      "midi": 85,
      "hit": false,
      "t": 143591.47749999954,
      "d": 17.605624999996508,
      "v": 57
    },
    {
      "midi": 61,
      "hit": false,
      "t": 143661.89999999947,
      "d": 204.2252499999886,
      "v": 102
    },
    {
      "midi": 52,
      "hit": false,
      "t": 143661.89999999947,
      "d": 207.7463749999879,
      "v": 98
    },
    {
      "midi": 57,
      "hit": false,
      "t": 143661.89999999947,
      "d": 207.7463749999879,
      "v": 102
    },
    {
      "midi": 57,
      "hit": false,
      "t": 143943.58999999947,
      "d": 52.81687499998952,
      "v": 89
    },
    {
      "midi": 52,
      "hit": false,
      "t": 143943.58999999947,
      "d": 56.337999999988824,
      "v": 62
    },
    {
      "midi": 61,
      "hit": false,
      "t": 143943.58999999947,
      "d": 56.337999999988824,
      "v": 72
    },
    {
      "midi": 61,
      "hit": false,
      "t": 144506.96999999945,
      "d": 172.53512499999488,
      "v": 102
    },
    {
      "midi": 57,
      "hit": false,
      "t": 144506.96999999945,
      "d": 179.57737499999348,
      "v": 102
    },
    {
      "midi": 52,
      "hit": false,
      "t": 144506.96999999945,
      "d": 190.14074999999139,
      "v": 102
    },
    {
      "midi": 61,
      "hit": false,
      "t": 144788.65999999945,
      "d": 63.38024999998743,
      "v": 76
    },
    {
      "midi": 57,
      "hit": false,
      "t": 144788.65999999945,
      "d": 66.90137499998673,
      "v": 89
    },
    {
      "midi": 52,
      "hit": false,
      "t": 144788.65999999945,
      "d": 70.42249999998603,
      "v": 48
    },
    {
      "midi": 61,
      "hit": false,
      "t": 145352.03999999943,
      "d": 176.05624999999418,
      "v": 102
    },
    {
      "midi": 57,
      "hit": false,
      "t": 145352.03999999943,
      "d": 190.14074999999139,
      "v": 113
    },
    {
      "midi": 52,
      "hit": false,
      "t": 145352.03999999943,
      "d": 295.77449999999953,
      "v": 98
    },
    {
      "midi": 57,
      "hit": false,
      "t": 145633.72999999943,
      "d": 63.38024999998743,
      "v": 72
    },
    {
      "midi": 61,
      "hit": false,
      "t": 145633.72999999943,
      "d": 66.90137499998673,
      "v": 56
    },
    {
      "midi": 57,
      "hit": false,
      "t": 146197.1099999994,
      "d": 123.23937500000466,
      "v": 113
    },
    {
      "midi": 61,
      "hit": false,
      "t": 146197.1099999994,
      "d": 133.80275000000256,
      "v": 107
    },
    {
      "midi": 52,
      "hit": false,
      "t": 146197.1099999994,
      "d": 281.6900000000023,
      "v": 107
    },
    {
      "midi": 57,
      "hit": false,
      "t": 146478.7999999994,
      "d": 66.90137499998673,
      "v": 72
    },
    {
      "midi": 61,
      "hit": false,
      "t": 146478.7999999994,
      "d": 80.98587499998393,
      "v": 85
    },
    {
      "midi": 61,
      "hit": false,
      "t": 147042.17999999938,
      "d": 137.32387500000186,
      "v": 102
    },
    {
      "midi": 52,
      "hit": false,
      "t": 147042.17999999938,
      "d": 161.97174999999697,
      "v": 102
    },
    {
      "midi": 57,
      "hit": false,
      "t": 147042.17999999938,
      "d": 176.05624999999418,
      "v": 107
    },
    {
      "midi": 52,
      "hit": false,
      "t": 147323.86999999938,
      "d": 56.337999999988824,
      "v": 60
    },
    {
      "midi": 61,
      "hit": false,
      "t": 147323.86999999938,
      "d": 66.90137499998673,
      "v": 80
    },
    {
      "midi": 57,
      "hit": false,
      "t": 147323.86999999938,
      "d": 70.42249999998603,
      "v": 76
    },
    {
      "midi": 57,
      "hit": false,
      "t": 147887.24999999936,
      "d": 137.32387500000186,
      "v": 113
    },
    {
      "midi": 61,
      "hit": false,
      "t": 147887.24999999936,
      "d": 140.84500000000116,
      "v": 107
    },
    {
      "midi": 52,
      "hit": false,
      "t": 147887.24999999936,
      "d": 151.40837499999907,
      "v": 107
    },
    {
      "midi": 52,
      "hit": false,
      "t": 148168.93999999936,
      "d": 66.90137499998673,
      "v": 64
    },
    {
      "midi": 57,
      "hit": false,
      "t": 148168.93999999936,
      "d": 70.42249999998603,
      "v": 80
    },
    {
      "midi": 61,
      "hit": false,
      "t": 148168.93999999936,
      "d": 73.94362499998533,
      "v": 89
    },
    {
      "midi": 59,
      "hit": false,
      "t": 148732.31999999934,
      "d": 31.690124999993714,
      "v": 60
    },
    {
      "midi": 57,
      "hit": false,
      "t": 148732.31999999934,
      "d": 137.32387500000186,
      "v": 113
    },
    {
      "midi": 61,
      "hit": false,
      "t": 148732.31999999934,
      "d": 137.32387500000186,
      "v": 113
    },
    {
      "midi": 52,
      "hit": false,
      "t": 148732.31999999934,
      "d": 151.40837499999907,
      "v": 107
    },
    {
      "midi": 57,
      "hit": false,
      "t": 149014.00999999934,
      "d": 52.81687499998952,
      "v": 76
    },
    {
      "midi": 52,
      "hit": false,
      "t": 149014.00999999934,
      "d": 66.90137499998673,
      "v": 62
    },
    {
      "midi": 61,
      "hit": false,
      "t": 149014.00999999934,
      "d": 70.42249999998603,
      "v": 76
    },
    {
      "midi": 61,
      "hit": false,
      "t": 149577.38999999932,
      "d": 144.36612500000047,
      "v": 113
    },
    {
      "midi": 57,
      "hit": false,
      "t": 149577.38999999932,
      "d": 151.40837499999907,
      "v": 113
    },
    {
      "midi": 52,
      "hit": false,
      "t": 149577.38999999932,
      "d": 169.01399999999558,
      "v": 102
    },
    {
      "midi": 52,
      "hit": false,
      "t": 149859.07999999932,
      "d": 63.38024999998743,
      "v": 68
    },
    {
      "midi": 57,
      "hit": false,
      "t": 149859.07999999932,
      "d": 63.38024999998743,
      "v": 76
    },
    {
      "midi": 61,
      "hit": false,
      "t": 149859.07999999932,
      "d": 88.02812499998254,
      "v": 89
    },
    {
      "midi": 62,
      "hit": false,
      "t": 150422.4599999993,
      "d": 151.40837499999907,
      "v": 107
    },
    {
      "midi": 57,
      "hit": false,
      "t": 150422.4599999993,
      "d": 158.45062499999767,
      "v": 107
    },
    {
      "midi": 54,
      "hit": false,
      "t": 150422.4599999993,
      "d": 169.01399999999558,
      "v": 98
    },
    {
      "midi": 54,
      "hit": false,
      "t": 150704.1499999993,
      "d": 63.38024999998743,
      "v": 51
    },
    {
      "midi": 57,
      "hit": false,
      "t": 150704.1499999993,
      "d": 63.38024999998743,
      "v": 64
    },
    {
      "midi": 62,
      "hit": false,
      "t": 150704.1499999993,
      "d": 84.50699999998324,
      "v": 72
    },
    {
      "midi": 62,
      "hit": false,
      "t": 151267.52999999927,
      "d": 151.40837499999907,
      "v": 107
    },
    {
      "midi": 57,
      "hit": false,
      "t": 151267.52999999927,
      "d": 161.97174999999697,
      "v": 113
    },
    {
      "midi": 54,
      "hit": false,
      "t": 151267.52999999927,
      "d": 169.01399999999558,
      "v": 107
    },
    {
      "midi": 54,
      "hit": false,
      "t": 151549.21999999927,
      "d": 70.42249999998603,
      "v": 62
    },
    {
      "midi": 57,
      "hit": false,
      "t": 151549.21999999927,
      "d": 70.42249999998603,
      "v": 80
    },
    {
      "midi": 62,
      "hit": false,
      "t": 151549.21999999927,
      "d": 73.94362499998533,
      "v": 89
    },
    {
      "midi": 57,
      "hit": false,
      "t": 152112.59999999925,
      "d": 137.32387500000186,
      "v": 113
    },
    {
      "midi": 62,
      "hit": false,
      "t": 152112.59999999925,
      "d": 137.32387500000186,
      "v": 113
    },
    {
      "midi": 54,
      "hit": false,
      "t": 152112.59999999925,
      "d": 144.36612500000047,
      "v": 107
    },
    {
      "midi": 57,
      "hit": false,
      "t": 152394.28999999925,
      "d": 80.98587500001304,
      "v": 68
    },
    {
      "midi": 62,
      "hit": false,
      "t": 152394.28999999925,
      "d": 88.02812500001164,
      "v": 76
    },
    {
      "midi": 54,
      "hit": false,
      "t": 152394.28999999925,
      "d": 91.54925000001094,
      "v": 57
    },
    {
      "midi": 57,
      "hit": false,
      "t": 152957.66999999926,
      "d": 169.01399999999558,
      "v": 102
    },
    {
      "midi": 54,
      "hit": false,
      "t": 152957.66999999926,
      "d": 172.53512499999488,
      "v": 98
    },
    {
      "midi": 62,
      "hit": false,
      "t": 152957.66999999926,
      "d": 172.53512499999488,
      "v": 107
    },
    {
      "midi": 57,
      "hit": false,
      "t": 153239.35999999926,
      "d": 63.38024999998743,
      "v": 89
    },
    {
      "midi": 54,
      "hit": false,
      "t": 153239.35999999926,
      "d": 73.94362499998533,
      "v": 76
    },
    {
      "midi": 62,
      "hit": false,
      "t": 153239.35999999926,
      "d": 84.50699999998324,
      "v": 93
    },
    {
      "midi": 57,
      "hit": false,
      "t": 153802.73999999923,
      "d": 169.01399999999558,
      "v": 107
    },
    {
      "midi": 61,
      "hit": false,
      "t": 153802.73999999923,
      "d": 169.01399999999558,
      "v": 98
    },
    {
      "midi": 52,
      "hit": false,
      "t": 153802.73999999923,
      "d": 186.61962499999208,
      "v": 98
    },
    {
      "midi": 52,
      "hit": false,
      "t": 154084.42999999924,
      "d": 66.90137499998673,
      "v": 57
    },
    {
      "midi": 57,
      "hit": false,
      "t": 154084.42999999924,
      "d": 73.94362499998533,
      "v": 76
    },
    {
      "midi": 61,
      "hit": false,
      "t": 154084.42999999924,
      "d": 73.94362499998533,
      "v": 72
    },
    {
      "midi": 57,
      "hit": false,
      "t": 154647.8099999992,
      "d": 119.71825000000536,
      "v": 107
    },
    {
      "midi": 61,
      "hit": false,
      "t": 154647.8099999992,
      "d": 119.71825000000536,
      "v": 93
    },
    {
      "midi": 52,
      "hit": false,
      "t": 154647.8099999992,
      "d": 133.80275000000256,
      "v": 102
    },
    {
      "midi": 52,
      "hit": false,
      "t": 154929.4999999992,
      "d": 73.94362500001444,
      "v": 62
    },
    {
      "midi": 57,
      "hit": false,
      "t": 154929.4999999992,
      "d": 80.98587500001304,
      "v": 72
    },
    {
      "midi": 61,
      "hit": false,
      "t": 154929.4999999992,
      "d": 91.54925000001094,
      "v": 85
    },
    {
      "midi": 52,
      "hit": false,
      "t": 155492.87999999922,
      "d": 154.92949999999837,
      "v": 107
    },
    {
      "midi": 57,
      "hit": false,
      "t": 155492.87999999922,
      "d": 154.92949999999837,
      "v": 113
    },
    {
      "midi": 61,
      "hit": false,
      "t": 155492.87999999922,
      "d": 154.92949999999837,
      "v": 107
    },
    {
      "midi": 52,
      "hit": false,
      "t": 155774.56999999922,
      "d": 73.94362500001444,
      "v": 59
    },
    {
      "midi": 57,
      "hit": false,
      "t": 155774.56999999922,
      "d": 80.98587500001304,
      "v": 72
    },
    {
      "midi": 61,
      "hit": false,
      "t": 155774.56999999922,
      "d": 88.02812500001164,
      "v": 80
    },
    {
      "midi": 52,
      "hit": false,
      "t": 156337.94999999923,
      "d": 154.92949999999837,
      "v": 102
    },
    {
      "midi": 61,
      "hit": false,
      "t": 156337.94999999923,
      "d": 158.45062499999767,
      "v": 107
    },
    {
      "midi": 57,
      "hit": false,
      "t": 156337.94999999923,
      "d": 161.97174999999697,
      "v": 107
    },
    {
      "midi": 52,
      "hit": false,
      "t": 156619.63999999923,
      "d": 70.42249999998603,
      "v": 59
    },
    {
      "midi": 57,
      "hit": false,
      "t": 156619.63999999923,
      "d": 91.54924999998184,
      "v": 72
    },
    {
      "midi": 61,
      "hit": false,
      "t": 156619.63999999923,
      "d": 105.63374999997905,
      "v": 85
    },
    {
      "midi": 64,
      "hit": false,
      "t": 157183.0199999992,
      "d": 158.45062499999767,
      "v": 107
    },
    {
      "midi": 62,
      "hit": false,
      "t": 157183.0199999992,
      "d": 176.05624999999418,
      "v": 113
    },
    {
      "midi": 56,
      "hit": false,
      "t": 157183.0199999992,
      "d": 313.38012499999604,
      "v": 107
    },
    {
      "midi": 64,
      "hit": false,
      "t": 157464.7099999992,
      "d": 66.90137499998673,
      "v": 72
    },
    {
      "midi": 62,
      "hit": false,
      "t": 157464.7099999992,
      "d": 73.94362499998533,
      "v": 72
    },
    {
      "midi": 64,
      "hit": false,
      "t": 158028.08999999918,
      "d": 133.80275000000256,
      "v": 107
    },
    {
      "midi": 62,
      "hit": false,
      "t": 158028.08999999918,
      "d": 140.84500000000116,
      "v": 107
    },
    {
      "midi": 56,
      "hit": false,
      "t": 158028.08999999918,
      "d": 169.01399999999558,
      "v": 107
    },
    {
      "midi": 64,
      "hit": false,
      "t": 158309.77999999918,
      "d": 80.98587500001304,
      "v": 72
    },
    {
      "midi": 56,
      "hit": false,
      "t": 158309.77999999918,
      "d": 98.59150000000955,
      "v": 80
    },
    {
      "midi": 62,
      "hit": false,
      "t": 158309.77999999918,
      "d": 98.59150000000955,
      "v": 72
    },
    {
      "midi": 62,
      "hit": false,
      "t": 158873.1599999992,
      "d": 126.76050000000396,
      "v": 107
    },
    {
      "midi": 60,
      "hit": false,
      "t": 158873.1599999992,
      "d": 144.36612500000047,
      "v": 113
    },
    {
      "midi": 54,
      "hit": false,
      "t": 158873.1599999992,
      "d": 161.97174999999697,
      "v": 107
    },
    {
      "midi": 62,
      "hit": false,
      "t": 159154.8499999992,
      "d": 80.98587500001304,
      "v": 72
    },
    {
      "midi": 60,
      "hit": false,
      "t": 159154.8499999992,
      "d": 84.50700000001234,
      "v": 80
    },
    {
      "midi": 54,
      "hit": false,
      "t": 159154.8499999992,
      "d": 91.54925000001094,
      "v": 76
    },
    {
      "midi": 62,
      "hit": false,
      "t": 159718.2299999992,
      "d": 123.23937500000466,
      "v": 107
    },
    {
      "midi": 54,
      "hit": false,
      "t": 159718.2299999992,
      "d": 133.80275000000256,
      "v": 107
    },
    {
      "midi": 60,
      "hit": false,
      "t": 159718.2299999992,
      "d": 144.36612500000047,
      "v": 119
    },
    {
      "midi": 54,
      "hit": false,
      "t": 159999.9199999992,
      "d": 73.94362500001444,
      "v": 62
    },
    {
      "midi": 60,
      "hit": false,
      "t": 159999.9199999992,
      "d": 91.54925000001094,
      "v": 80
    },
    {
      "midi": 62,
      "hit": false,
      "t": 159999.9199999992,
      "d": 91.54925000001094,
      "v": 76
    }
  ]
}