{
  "jsonPath": "Jazz/Deep Jazz Fusion/Niacin/birdland.json",
  "path": "Jazz\\Deep Jazz Fusion\\Niacin\\Birdland.mid",
  "name": "Birdland",
  "difficulty": "Advanced",
  "bpm": 154.000154000154,
  "notes": [
    {
      "midi": 58,
      "hit": false,
      "t": 14220.765000000001,
      "d": 189.1231874999994,
      "v": 97
    },
    {
      "midi": 61,
      "hit": false,
      "t": 14220.765000000001,
      "d": 205.35693750000064,
      "v": 115
    },
    {
      "midi": 62,
      "hit": false,
      "t": 14423.686875000001,
      "d": 75.48693749999984,
      "v": 96
    },
    {
      "midi": 59,
      "hit": false,
      "t": 14427.745312500001,
      "d": 71.42849999999999,
      "v": 87
    },
    {
      "midi": 53,
      "hit": false,
      "t": 14606.316562500002,
      "d": 69.80512500000077,
      "v": 87
    },
    {
      "midi": 43,
      "hit": false,
      "t": 14801.121562500002,
      "d": 1069.8041250000006,
      "v": 90
    },
    {
      "midi": 59,
      "hit": false,
      "t": 14999.985000000002,
      "d": 830.3563125000001,
      "v": 95
    },
    {
      "midi": 53,
      "hit": false,
      "t": 14999.985000000002,
      "d": 840.9082500000004,
      "v": 92
    },
    {
      "midi": 62,
      "hit": false,
      "t": 15001.608375000002,
      "d": 832.7913750000007,
      "v": 102
    },
    {
      "midi": 55,
      "hit": false,
      "t": 21623.355000000003,
      "d": 383.9281875000015,
      "v": 68
    },
    {
      "midi": 71,
      "hit": false,
      "t": 21623.355000000003,
      "d": 402.5970000000016,
      "v": 76
    },
    {
      "midi": 74,
      "hit": false,
      "t": 21623.355000000003,
      "d": 416.39568750000035,
      "v": 81
    },
    {
      "midi": 69,
      "hit": false,
      "t": 22021.081875000003,
      "d": 41.39606249999997,
      "v": 68
    },
    {
      "midi": 72,
      "hit": false,
      "t": 22025.140312500003,
      "d": 22.727249999999913,
      "v": 76
    },
    {
      "midi": 71,
      "hit": false,
      "t": 22215.886875000004,
      "d": 132.30506249999962,
      "v": 78
    },
    {
      "midi": 74,
      "hit": false,
      "t": 22215.886875000004,
      "d": 132.30506249999962,
      "v": 80
    },
    {
      "midi": 69,
      "hit": false,
      "t": 22408.256812500003,
      "d": 33.27918750000026,
      "v": 55
    },
    {
      "midi": 72,
      "hit": false,
      "t": 22408.256812500003,
      "d": 102.27262500000143,
      "v": 56
    },
    {
      "midi": 67,
      "hit": false,
      "t": 22609.555312500004,
      "d": 286.52568750000137,
      "v": 70
    },
    {
      "midi": 71,
      "hit": false,
      "t": 22609.555312500004,
      "d": 378.24637500000244,
      "v": 78
    },
    {
      "midi": 67,
      "hit": false,
      "t": 22999.16531250001,
      "d": 43.019437499999185,
      "v": 62
    },
    {
      "midi": 64,
      "hit": false,
      "t": 22999.16531250001,
      "d": 47.07787499999904,
      "v": 60
    },
    {
      "midi": 67,
      "hit": false,
      "t": 23189.91187500001,
      "d": 512.1748125000013,
      "v": 75
    },
    {
      "midi": 71,
      "hit": false,
      "t": 23189.91187500001,
      "d": 570.6163125000021,
      "v": 84
    },
    {
      "midi": 67,
      "hit": false,
      "t": 23766.21000000001,
      "d": 38.96099999999933,
      "v": 75
    },
    {
      "midi": 64,
      "hit": false,
      "t": 23766.21000000001,
      "d": 43.019437499999185,
      "v": 64
    },
    {
      "midi": 71,
      "hit": false,
      "t": 24161.50181250001,
      "d": 297.0776250000017,
      "v": 70
    },
    {
      "midi": 67,
      "hit": false,
      "t": 24161.50181250001,
      "d": 313.31137500000114,
      "v": 65
    },
    {
      "midi": 69,
      "hit": false,
      "t": 24547.05337500001,
      "d": 41.39606249999997,
      "v": 71
    },
    {
      "midi": 72,
      "hit": false,
      "t": 24547.05337500001,
      "d": 65.7466874999991,
      "v": 77
    },
    {
      "midi": 71,
      "hit": false,
      "t": 24736.176562500008,
      "d": 568.9929374999992,
      "v": 75
    },
    {
      "midi": 74,
      "hit": false,
      "t": 24736.176562500008,
      "d": 574.6747499999983,
      "v": 86
    },
    {
      "midi": 69,
      "hit": false,
      "t": 25314.098062500005,
      "d": 146.91543749999983,
      "v": 67
    },
    {
      "midi": 72,
      "hit": false,
      "t": 25314.098062500005,
      "d": 157.46737500000017,
      "v": 75
    },
    {
      "midi": 71,
      "hit": false,
      "t": 25710.201562500006,
      "d": 248.37637499999983,
      "v": 67
    },
    {
      "midi": 67,
      "hit": false,
      "t": 25710.201562500006,
      "d": 249.99974999999904,
      "v": 68
    },
    {
      "midi": 64,
      "hit": false,
      "t": 26103.870000000006,
      "d": 49.51293749999968,
      "v": 73
    },
    {
      "midi": 67,
      "hit": false,
      "t": 26103.870000000006,
      "d": 71.42849999999817,
      "v": 84
    },
    {
      "midi": 67,
      "hit": false,
      "t": 26304.356812500006,
      "d": 77.92199999999866,
      "v": 81
    },
    {
      "midi": 62,
      "hit": false,
      "t": 26304.356812500006,
      "d": 222.40237499999785,
      "v": 74
    },
    {
      "midi": 62,
      "hit": false,
      "t": 26700.460312500003,
      "d": 1072.2391874999994,
      "v": 69
    },
    {
      "midi": 67,
      "hit": false,
      "t": 26700.460312500003,
      "d": 1077.9209999999985,
      "v": 78
    },
    {
      "midi": 71,
      "hit": false,
      "t": 26700.460312500003,
      "d": 1077.9209999999985,
      "v": 81
    },
    {
      "midi": 71,
      "hit": false,
      "t": 27862.7968125,
      "d": 402.5970000000016,
      "v": 94
    },
    {
      "midi": 74,
      "hit": false,
      "t": 27862.7968125,
      "d": 417.2073750000018,
      "v": 92
    },
    {
      "midi": 69,
      "hit": false,
      "t": 28248.348375,
      "d": 41.39606249999997,
      "v": 58
    },
    {
      "midi": 72,
      "hit": false,
      "t": 28248.348375,
      "d": 60.06487500000003,
      "v": 55
    },
    {
      "midi": 71,
      "hit": false,
      "t": 28447.2118125,
      "d": 211.85043750000114,
      "v": 85
    },
    {
      "midi": 74,
      "hit": false,
      "t": 28447.2118125,
      "d": 228.08418750000055,
      "v": 79
    },
    {
      "midi": 69,
      "hit": false,
      "t": 28632.276562500003,
      "d": 47.07787499999904,
      "v": 60
    },
    {
      "midi": 72,
      "hit": false,
      "t": 28632.276562500003,
      "d": 47.07787499999904,
      "v": 64
    },
    {
      "midi": 67,
      "hit": false,
      "t": 28836.821812500002,
      "d": 299.5126874999987,
      "v": 82
    },
    {
      "midi": 71,
      "hit": false,
      "t": 28836.821812500002,
      "d": 378.2463749999988,
      "v": 88
    },
    {
      "midi": 67,
      "hit": false,
      "t": 29232.9253125,
      "d": 33.27918750000026,
      "v": 51
    },
    {
      "midi": 64,
      "hit": false,
      "t": 29232.9253125,
      "d": 38.96099999999933,
      "v": 50
    },
    {
      "midi": 67,
      "hit": false,
      "t": 29427.7303125,
      "d": 573.0513749999991,
      "v": 89
    },
    {
      "midi": 71,
      "hit": false,
      "t": 29427.7303125,
      "d": 585.2266874999987,
      "v": 86
    },
    {
      "midi": 67,
      "hit": false,
      "t": 30005.6518125,
      "d": 27.597374999997555,
      "v": 74
    },
    {
      "midi": 64,
      "hit": false,
      "t": 30005.6518125,
      "d": 163.14918749999924,
      "v": 70
    },
    {
      "midi": 71,
      "hit": false,
      "t": 30395.2618125,
      "d": 362.0126249999994,
      "v": 71
    },
    {
      "midi": 67,
      "hit": false,
      "t": 30395.2618125,
      "d": 386.3632499999985,
      "v": 79
    },
    {
      "midi": 69,
      "hit": false,
      "t": 30775.1315625,
      "d": 37.337625000000116,
      "v": 66
    },
    {
      "midi": 72,
      "hit": false,
      "t": 30775.1315625,
      "d": 71.4285000000018,
      "v": 67
    },
    {
      "midi": 71,
      "hit": false,
      "t": 30975.618375000002,
      "d": 547.0773750000008,
      "v": 90
    },
    {
      "midi": 74,
      "hit": false,
      "t": 30975.618375000002,
      "d": 605.5188750000016,
      "v": 82
    },
    {
      "midi": 72,
      "hit": false,
      "t": 31566.526875000003,
      "d": 124.18818749999991,
      "v": 79
    },
    {
      "midi": 69,
      "hit": false,
      "t": 31566.526875000003,
      "d": 128.24662499999977,
      "v": 74
    },
    {
      "midi": 67,
      "hit": false,
      "t": 31956.136875000004,
      "d": 268.6685624999991,
      "v": 80
    },
    {
      "midi": 71,
      "hit": false,
      "t": 31956.136875000004,
      "d": 268.6685624999991,
      "v": 77
    },
    {
      "midi": 64,
      "hit": false,
      "t": 32343.311812500004,
      "d": 39.77268750000076,
      "v": 84
    },
    {
      "midi": 67,
      "hit": false,
      "t": 32343.311812500004,
      "d": 69.80512499999895,
      "v": 86
    },
    {
      "midi": 67,
      "hit": false,
      "t": 32550.292125000004,
      "d": 134.74012500000026,
      "v": 86
    },
    {
      "midi": 62,
      "hit": false,
      "t": 32550.292125000004,
      "d": 210.22706250000192,
      "v": 82
    },
    {
      "midi": 59,
      "hit": false,
      "t": 32934.22031250001,
      "d": 1049.5119374999995,
      "v": 77
    },
    {
      "midi": 62,
      "hit": false,
      "t": 32934.22031250001,
      "d": 1049.5119374999995,
      "v": 82
    },
    {
      "midi": 67,
      "hit": false,
      "t": 32934.22031250001,
      "d": 1072.239187500003,
      "v": 93
    },
    {
      "midi": 55,
      "hit": false,
      "t": 34090.875000000015,
      "d": 383.9281875000015,
      "v": 80
    },
    {
      "midi": 71,
      "hit": false,
      "t": 34090.875000000015,
      "d": 402.5970000000016,
      "v": 89
    },
    {
      "midi": 74,
      "hit": false,
      "t": 34090.875000000015,
      "d": 416.39568750000035,
      "v": 95
    },
    {
      "midi": 69,
      "hit": false,
      "t": 34488.601875000015,
      "d": 41.39606249999633,
      "v": 79
    },
    {
      "midi": 72,
      "hit": false,
      "t": 34492.66031250002,
      "d": 22.727249999996275,
      "v": 88
    },
    {
      "midi": 71,
      "hit": false,
      "t": 34683.40687500001,
      "d": 132.30506250000326,
      "v": 91
    },
    {
      "midi": 74,
      "hit": false,
      "t": 34683.40687500001,
      "d": 132.30506250000326,
      "v": 94
    },
    {
      "midi": 69,
      "hit": false,
      "t": 34875.77681250001,
      "d": 33.279187499996624,
      "v": 65
    },
    {
      "midi": 72,
      "hit": false,
      "t": 34875.77681250001,
      "d": 102.27262499999779,
      "v": 66
    },
    {
      "midi": 67,
      "hit": false,
      "t": 35077.075312500005,
      "d": 286.52568749999773,
      "v": 82
    },
    {
      "midi": 71,
      "hit": false,
      "t": 35077.075312500005,
      "d": 378.24637499999517,
      "v": 91
    },
    {
      "midi": 67,
      "hit": false,
      "t": 35466.6853125,
      "d": 43.019437499999185,
      "v": 72
    },
    {
      "midi": 64,
      "hit": false,
      "t": 35466.6853125,
      "d": 47.07787500000268,
      "v": 69
    },
    {
      "midi": 67,
      "hit": false,
      "t": 35657.431875,
      "d": 512.1748125000013,
      "v": 86
    },
    {
      "midi": 71,
      "hit": false,
      "t": 35657.431875,
      "d": 570.6163125000021,
      "v": 97
    },
    {
      "midi": 67,
      "hit": false,
      "t": 36233.73,
      "d": 38.96100000000297,
      "v": 86
    },
    {
      "midi": 64,
      "hit": false,
      "t": 36233.73,
      "d": 43.01943750000646,
      "v": 74
    },
    {
      "midi": 71,
      "hit": false,
      "t": 36629.02181250001,
      "d": 297.0776249999981,
      "v": 81
    },
    {
      "midi": 67,
      "hit": false,
      "t": 36629.02181250001,
      "d": 313.3113749999975,
      "v": 75
    },
    {
      "midi": 69,
      "hit": false,
      "t": 37014.57337500001,
      "d": 41.39606250000361,
      "v": 81
    },
    {
      "midi": 72,
      "hit": false,
      "t": 37014.57337500001,
      "d": 65.74668750000274,
      "v": 88
    },
    {
      "midi": 71,
      "hit": false,
      "t": 37203.69656250001,
      "d": 568.9929374999992,
      "v": 86
    },
    {
      "midi": 74,
      "hit": false,
      "t": 37203.69656250001,
      "d": 574.6747499999983,
      "v": 100
    },
    {
      "midi": 69,
      "hit": false,
      "t": 37781.618062500005,
      "d": 146.91543749999983,
      "v": 78
    },
    {
      "midi": 72,
      "hit": false,
      "t": 37781.618062500005,
      "d": 157.46737500000017,
      "v": 86
    },
    {
      "midi": 71,
      "hit": false,
      "t": 38177.7215625,
      "d": 248.37637499999983,
      "v": 78
    },
    {
      "midi": 67,
      "hit": false,
      "t": 38177.7215625,
      "d": 249.99975000000268,
      "v": 79
    },
    {
      "midi": 64,
      "hit": false,
      "t": 38571.39000000001,
      "d": 49.51293750000332,
      "v": 83
    },
    {
      "midi": 67,
      "hit": false,
      "t": 38571.39000000001,
      "d": 71.4285000000018,
      "v": 96
    },
    {
      "midi": 67,
      "hit": false,
      "t": 38771.876812500006,
      "d": 77.92199999999866,
      "v": 92
    },
    {
      "midi": 62,
      "hit": false,
      "t": 38771.876812500006,
      "d": 222.40237499999785,
      "v": 84
    },
    {
      "midi": 62,
      "hit": false,
      "t": 39167.9803125,
      "d": 1072.239187500003,
      "v": 79
    },
    {
      "midi": 67,
      "hit": false,
      "t": 39167.9803125,
      "d": 1077.921000000002,
      "v": 90
    },
    {
      "midi": 71,
      "hit": false,
      "t": 39167.9803125,
      "d": 1077.921000000002,
      "v": 93
    },
    {
      "midi": 71,
      "hit": false,
      "t": 40330.31681250001,
      "d": 402.5969999999943,
      "v": 109
    },
    {
      "midi": 74,
      "hit": false,
      "t": 40330.31681250001,
      "d": 417.20737499999086,
      "v": 107
    },
    {
      "midi": 69,
      "hit": false,
      "t": 40715.868375000005,
      "d": 41.39606249999633,
      "v": 68
    },
    {
      "midi": 72,
      "hit": false,
      "t": 40715.868375000005,
      "d": 60.06487499999639,
      "v": 63
    },
    {
      "midi": 71,
      "hit": false,
      "t": 40914.7318125,
      "d": 211.8504374999975,
      "v": 98
    },
    {
      "midi": 74,
      "hit": false,
      "t": 40914.7318125,
      "d": 228.08418749999691,
      "v": 91
    },
    {
      "midi": 69,
      "hit": false,
      "t": 41099.7965625,
      "d": 47.07787500000268,
      "v": 70
    },
    {
      "midi": 72,
      "hit": false,
      "t": 41099.7965625,
      "d": 47.07787500000268,
      "v": 74
    },
    {
      "midi": 67,
      "hit": false,
      "t": 41304.3418125,
      "d": 299.5126874999987,
      "v": 94
    },
    {
      "midi": 71,
      "hit": false,
      "t": 41304.3418125,
      "d": 378.24637499999517,
      "v": 100
    },
    {
      "midi": 67,
      "hit": false,
      "t": 41700.4453125,
      "d": 33.279187499996624,
      "v": 59
    },
    {
      "midi": 64,
      "hit": false,
      "t": 41700.4453125,
      "d": 38.96099999999569,
      "v": 58
    },
    {
      "midi": 67,
      "hit": false,
      "t": 41895.25031249999,
      "d": 573.0513750000027,
      "v": 103
    },
    {
      "midi": 71,
      "hit": false,
      "t": 41895.25031249999,
      "d": 585.2266875000059,
      "v": 99
    },
    {
      "midi": 67,
      "hit": false,
      "t": 42473.1718125,
      "d": 27.59737500000483,
      "v": 85
    },
    {
      "midi": 64,
      "hit": false,
      "t": 42473.1718125,
      "d": 163.14918750000652,
      "v": 81
    },
    {
      "midi": 71,
      "hit": false,
      "t": 42862.781812500005,
      "d": 362.012625000003,
      "v": 81
    },
    {
      "midi": 67,
      "hit": false,
      "t": 42862.781812500005,
      "d": 386.36325000000215,
      "v": 90
    },
    {
      "midi": 69,
      "hit": false,
      "t": 43242.65156250001,
      "d": 37.337625000000116,
      "v": 75
    },
    {
      "midi": 72,
      "hit": false,
      "t": 43242.65156250001,
      "d": 71.4285000000018,
      "v": 78
    },
    {
      "midi": 71,
      "hit": false,
      "t": 43443.13837500001,
      "d": 547.0773750000008,
      "v": 104
    },
    {
      "midi": 74,
      "hit": false,
      "t": 43443.13837500001,
      "d": 605.5188749999943,
      "v": 95
    },
    {
      "midi": 72,
      "hit": false,
      "t": 44034.04687500001,
      "d": 124.18818749999627,
      "v": 91
    },
    {
      "midi": 69,
      "hit": false,
      "t": 44034.04687500001,
      "d": 128.24662499999977,
      "v": 86
    },
    {
      "midi": 67,
      "hit": false,
      "t": 44423.65687500001,
      "d": 268.66856250000274,
      "v": 92
    },
    {
      "midi": 71,
      "hit": false,
      "t": 44423.65687500001,
      "d": 268.66856250000274,
      "v": 89
    },
    {
      "midi": 64,
      "hit": false,
      "t": 44810.83181250001,
      "d": 39.77268750000076,
      "v": 97
    },
    {
      "midi": 67,
      "hit": false,
      "t": 44810.83181250001,
      "d": 69.80512499999895,
      "v": 99
    },
    {
      "midi": 67,
      "hit": false,
      "t": 45017.812125000004,
      "d": 134.74012499999662,
      "v": 99
    },
    {
      "midi": 62,
      "hit": false,
      "t": 45017.812125000004,
      "d": 210.22706249999464,
      "v": 94
    },
    {
      "midi": 59,
      "hit": false,
      "t": 45401.7403125,
      "d": 1049.5119374999995,
      "v": 72
    },
    {
      "midi": 62,
      "hit": false,
      "t": 45401.7403125,
      "d": 1049.5119374999995,
      "v": 76
    },
    {
      "midi": 67,
      "hit": false,
      "t": 45401.7403125,
      "d": 1072.239187500003,
      "v": 87
    },
    {
      "midi": 62,
      "hit": false,
      "t": 46560.018375,
      "d": 504.0579375000016,
      "v": 101
    },
    {
      "midi": 67,
      "hit": false,
      "t": 46560.018375,
      "d": 514.6098750000019,
      "v": 97
    },
    {
      "midi": 70,
      "hit": false,
      "t": 46560.018375,
      "d": 520.291687500001,
      "v": 89
    },
    {
      "midi": 31,
      "hit": false,
      "t": 46564.0768125,
      "d": 1202.1091875000056,
      "v": 96
    },
    {
      "midi": 60,
      "hit": false,
      "t": 47144.433375,
      "d": 124.99987500000134,
      "v": 84
    },
    {
      "midi": 65,
      "hit": false,
      "t": 47144.433375,
      "d": 124.99987500000134,
      "v": 74
    },
    {
      "midi": 69,
      "hit": false,
      "t": 47144.433375,
      "d": 134.7401250000039,
      "v": 81
    },
    {
      "midi": 65,
      "hit": false,
      "t": 47339.238375,
      "d": 122.5648125000007,
      "v": 86
    },
    {
      "midi": 60,
      "hit": false,
      "t": 47339.238375,
      "d": 141.23362500000076,
      "v": 68
    },
    {
      "midi": 69,
      "hit": false,
      "t": 47339.238375,
      "d": 146.91543749999983,
      "v": 79
    },
    {
      "midi": 33,
      "hit": false,
      "t": 47727.225000000006,
      "d": 298.70100000000093,
      "v": 75
    },
    {
      "midi": 34,
      "hit": false,
      "t": 48116.83500000001,
      "d": 1081.9794374999983,
      "v": 96
    },
    {
      "midi": 60,
      "hit": false,
      "t": 48118.458375,
      "d": 482.1423750000031,
      "v": 97
    },
    {
      "midi": 69,
      "hit": false,
      "t": 48118.458375,
      "d": 530.8436250000013,
      "v": 89
    },
    {
      "midi": 65,
      "hit": false,
      "t": 48118.458375,
      "d": 534.9020625000048,
      "v": 103
    },
    {
      "midi": 58,
      "hit": false,
      "t": 48702.87337500001,
      "d": 130.6816875000004,
      "v": 81
    },
    {
      "midi": 63,
      "hit": false,
      "t": 48702.87337500001,
      "d": 145.29206249999697,
      "v": 74
    },
    {
      "midi": 67,
      "hit": false,
      "t": 48702.87337500001,
      "d": 157.46737500000017,
      "v": 69
    },
    {
      "midi": 63,
      "hit": false,
      "t": 48901.736812500014,
      "d": 98.21418750000157,
      "v": 74
    },
    {
      "midi": 67,
      "hit": false,
      "t": 48901.736812500014,
      "d": 146.9154375000071,
      "v": 82
    },
    {
      "midi": 58,
      "hit": false,
      "t": 48904.171875000015,
      "d": 99.83756250000442,
      "v": 83
    },
    {
      "midi": 34,
      "hit": false,
      "t": 49285.66500000001,
      "d": 197.24006250000093,
      "v": 76
    },
    {
      "midi": 36,
      "hit": false,
      "t": 49480.47000000001,
      "d": 132.30506250000326,
      "v": 79
    },
    {
      "midi": 38,
      "hit": false,
      "t": 49675.27500000001,
      "d": 773.5381875000021,
      "v": 93
    },
    {
      "midi": 65,
      "hit": false,
      "t": 49676.89837500002,
      "d": 495.94106250000186,
      "v": 106
    },
    {
      "midi": 60,
      "hit": false,
      "t": 49676.89837500002,
      "d": 514.6098750000019,
      "v": 95
    },
    {
      "midi": 69,
      "hit": false,
      "t": 49680.95681250002,
      "d": 461.8501875000002,
      "v": 85
    },
    {
      "midi": 57,
      "hit": false,
      "t": 50265.37181250002,
      "d": 134.74012499999662,
      "v": 77
    },
    {
      "midi": 60,
      "hit": false,
      "t": 50265.37181250002,
      "d": 134.74012499999662,
      "v": 77
    },
    {
      "midi": 65,
      "hit": false,
      "t": 50265.37181250002,
      "d": 153.40893749999668,
      "v": 94
    },
    {
      "midi": 43,
      "hit": false,
      "t": 50454.49500000001,
      "d": 98.21418750000157,
      "v": 76
    },
    {
      "midi": 60,
      "hit": false,
      "t": 50462.61187500002,
      "d": 128.24662499999977,
      "v": 76
    },
    {
      "midi": 57,
      "hit": false,
      "t": 50462.61187500002,
      "d": 132.30506250000326,
      "v": 65
    },
    {
      "midi": 65,
      "hit": false,
      "t": 50462.61187500002,
      "d": 164.7725625000021,
      "v": 81
    },
    {
      "midi": 33,
      "hit": false,
      "t": 50844.10500000001,
      "d": 181.0063125000015,
      "v": 78
    },
    {
      "midi": 36,
      "hit": false,
      "t": 51233.71500000001,
      "d": 1133.1157499999972,
      "v": 88
    },
    {
      "midi": 60,
      "hit": false,
      "t": 51233.71500000002,
      "d": 530.0319375000036,
      "v": 88
    },
    {
      "midi": 69,
      "hit": false,
      "t": 51233.71500000002,
      "d": 548.7007500000036,
      "v": 84
    },
    {
      "midi": 65,
      "hit": false,
      "t": 51233.71500000002,
      "d": 564.934500000003,
      "v": 92
    },
    {
      "midi": 67,
      "hit": false,
      "t": 51823.81181250002,
      "d": 88.47393749999901,
      "v": 65
    },
    {
      "midi": 58,
      "hit": false,
      "t": 51823.81181250002,
      "d": 98.21418750000157,
      "v": 74
    },
    {
      "midi": 63,
      "hit": false,
      "t": 51823.81181250002,
      "d": 110.38950000000477,
      "v": 64
    },
    {
      "midi": 63,
      "hit": false,
      "t": 52018.616812500026,
      "d": 159.09075000000303,
      "v": 75
    },
    {
      "midi": 58,
      "hit": false,
      "t": 52018.616812500026,
      "d": 173.7011249999996,
      "v": 74
    },
    {
      "midi": 67,
      "hit": false,
      "t": 52018.616812500026,
      "d": 173.7011249999996,
      "v": 83
    },
    {
      "midi": 33,
      "hit": false,
      "t": 52402.545000000006,
      "d": 228.08418749999691,
      "v": 82
    },
    {
      "midi": 34,
      "hit": false,
      "t": 52597.350000000006,
      "d": 175.32449999999517,
      "v": 83
    },
    {
      "midi": 35,
      "hit": false,
      "t": 52792.155,
      "d": 331.16849999999977,
      "v": 95
    },
    {
      "midi": 60,
      "hit": false,
      "t": 52792.15500000003,
      "d": 521.9150624999966,
      "v": 91
    },
    {
      "midi": 69,
      "hit": false,
      "t": 52792.15500000003,
      "d": 521.9150624999966,
      "v": 87
    },
    {
      "midi": 65,
      "hit": false,
      "t": 52792.15500000003,
      "d": 532.4669999999969,
      "v": 99
    },
    {
      "midi": 38,
      "hit": false,
      "t": 53181.765,
      "d": 163.14918749999924,
      "v": 83
    },
    {
      "midi": 62,
      "hit": false,
      "t": 53372.511562500025,
      "d": 124.18818750000355,
      "v": 77
    },
    {
      "midi": 59,
      "hit": false,
      "t": 53372.511562500025,
      "d": 134.7401250000039,
      "v": 79
    },
    {
      "midi": 67,
      "hit": false,
      "t": 53372.511562500025,
      "d": 134.7401250000039,
      "v": 77
    },
    {
      "midi": 40,
      "hit": false,
      "t": 53376.57,
      "d": 126.62324999999691,
      "v": 83
    },
    {
      "midi": 43,
      "hit": false,
      "t": 53571.375,
      "d": 704.5447500000009,
      "v": 87
    },
    {
      "midi": 59,
      "hit": false,
      "t": 53572.99837500003,
      "d": 625.8110624999972,
      "v": 71
    },
    {
      "midi": 62,
      "hit": false,
      "t": 53572.99837500003,
      "d": 633.9279374999969,
      "v": 84
    },
    {
      "midi": 67,
      "hit": false,
      "t": 53572.99837500003,
      "d": 670.4538749999992,
      "v": 81
    },
    {
      "midi": 67,
      "hit": false,
      "t": 54346.536562500034,
      "d": 63.311625000002095,
      "v": 106
    },
    {
      "midi": 62,
      "hit": false,
      "t": 54346.536562500034,
      "d": 69.80512499999895,
      "v": 94
    },
    {
      "midi": 70,
      "hit": false,
      "t": 54346.536562500034,
      "d": 152.5972499999989,
      "v": 99
    },
    {
      "midi": 36,
      "hit": false,
      "t": 54350.595,
      "d": 379.869749999998,
      "v": 89
    },
    {
      "midi": 38,
      "hit": false,
      "t": 54740.205,
      "d": 201.29849999999715,
      "v": 82
    },
    {
      "midi": 39,
      "hit": false,
      "t": 54935.01,
      "d": 915.5834999999934,
      "v": 89
    },
    {
      "midi": 60,
      "hit": false,
      "t": 54935.01000000003,
      "d": 1305.1935000000012,
      "v": 88
    },
    {
      "midi": 65,
      "hit": false,
      "t": 54935.01000000003,
      "d": 1305.1935000000012,
      "v": 103
    },
    {
      "midi": 69,
      "hit": false,
      "t": 54935.01000000003,
      "d": 1305.1935000000012,
      "v": 95
    },
    {
      "midi": 31,
      "hit": false,
      "t": 56298.645,
      "d": 233.76600000000326,
      "v": 78
    },
    {
      "midi": 59,
      "hit": false,
      "t": 56300.26837500003,
      "d": 112.82456249999814,
      "v": 84
    },
    {
      "midi": 62,
      "hit": false,
      "t": 56300.26837500003,
      "d": 112.82456249999814,
      "v": 81
    },
    {
      "midi": 67,
      "hit": false,
      "t": 56300.26837500003,
      "d": 177.7595624999958,
      "v": 80
    },
    {
      "midi": 35,
      "hit": false,
      "t": 56688.255,
      "d": 237.82443749999948,
      "v": 82
    },
    {
      "midi": 67,
      "hit": false,
      "t": 56689.87837500002,
      "d": 118.5063749999972,
      "v": 81
    },
    {
      "midi": 62,
      "hit": false,
      "t": 56689.87837500002,
      "d": 138.79856250000012,
      "v": 70
    },
    {
      "midi": 70,
      "hit": false,
      "t": 56689.87837500002,
      "d": 145.29206249999697,
      "v": 95
    },
    {
      "midi": 59,
      "hit": false,
      "t": 57069.74812500002,
      "d": 150.97387500000332,
      "v": 70
    },
    {
      "midi": 67,
      "hit": false,
      "t": 57069.74812500002,
      "d": 160.71412500000588,
      "v": 79
    },
    {
      "midi": 62,
      "hit": false,
      "t": 57073.80656250002,
      "d": 130.6816875000004,
      "v": 77
    },
    {
      "midi": 36,
      "hit": false,
      "t": 57077.865,
      "d": 224.0257500000007,
      "v": 73
    },
    {
      "midi": 59,
      "hit": false,
      "t": 57268.611562500024,
      "d": 232.1426250000004,
      "v": 58
    },
    {
      "midi": 62,
      "hit": false,
      "t": 57268.611562500024,
      "d": 232.1426250000004,
      "v": 65
    },
    {
      "midi": 67,
      "hit": false,
      "t": 57268.611562500024,
      "d": 237.82443749999948,
      "v": 68
    },
    {
      "midi": 38,
      "hit": false,
      "t": 57272.67,
      "d": 181.0063125000015,
      "v": 77
    },
    {
      "midi": 31,
      "hit": false,
      "t": 57467.475,
      "d": 233.76600000000326,
      "v": 83
    },
    {
      "midi": 33,
      "hit": false,
      "t": 57662.28,
      "d": 197.24006250000093,
      "v": 81
    },
    {
      "midi": 36,
      "hit": false,
      "t": 57857.085,
      "d": 1357.953187500003,
      "v": 92
    },
    {
      "midi": 58,
      "hit": false,
      "t": 59025.91500000002,
      "d": 455.35668749999604,
      "v": 79
    },
    {
      "midi": 50,
      "hit": false,
      "t": 59025.91500000002,
      "d": 6731.324437499992,
      "v": 88
    },
    {
      "midi": 55,
      "hit": false,
      "t": 59025.91500000002,
      "d": 6796.25943749999,
      "v": 95
    },
    {
      "midi": 59,
      "hit": false,
      "t": 59042.14875000002,
      "d": 6775.967249999987,
      "v": 99
    },
    {
      "midi": 55,
      "hit": false,
      "t": 59813.251875,
      "d": 359.5775625000024,
      "v": 94
    },
    {
      "midi": 55,
      "hit": false,
      "t": 60580.29656250001,
      "d": 574.6747499999983,
      "v": 89
    },
    {
      "midi": 55,
      "hit": false,
      "t": 61355.458125000005,
      "d": 329.5451249999969,
      "v": 81
    },
    {
      "midi": 54,
      "hit": false,
      "t": 61749.1265625,
      "d": 130.6816875000004,
      "v": 59
    },
    {
      "midi": 60,
      "hit": false,
      "t": 61749.1265625,
      "d": 172.8894375000018,
      "v": 108
    },
    {
      "midi": 65,
      "hit": false,
      "t": 61775.1005625,
      "d": 142.85699999999633,
      "v": 78
    },
    {
      "midi": 58,
      "hit": false,
      "t": 62138.7365625,
      "d": 38.96100000000297,
      "v": 82
    },
    {
      "midi": 62,
      "hit": false,
      "t": 62138.7365625,
      "d": 3172.0747499999998,
      "v": 77
    },
    {
      "midi": 53,
      "hit": false,
      "t": 62138.7365625,
      "d": 3261.360375000004,
      "v": 83
    },
    {
      "midi": 59,
      "hit": false,
      "t": 62167.145625000005,
      "d": 3174.5098125000004,
      "v": 97
    },
    {
      "midi": 60,
      "hit": false,
      "t": 66430.12837500001,
      "d": 167.20762499999546,
      "v": 112
    },
    {
      "midi": 62,
      "hit": false,
      "t": 66624.93337500001,
      "d": 60.06487499999639,
      "v": 70
    },
    {
      "midi": 60,
      "hit": false,
      "t": 66819.738375,
      "d": 469.9670624999999,
      "v": 110
    },
    {
      "midi": 62,
      "hit": false,
      "t": 66819.738375,
      "d": 475.64887499999895,
      "v": 84
    },
    {
      "midi": 53,
      "hit": false,
      "t": 66819.738375,
      "d": 568.992937499992,
      "v": 81
    },
    {
      "midi": 65,
      "hit": false,
      "t": 66819.738375,
      "d": 621.7526249999937,
      "v": 94
    },
    {
      "midi": 62,
      "hit": false,
      "t": 67398.4715625,
      "d": 69.80512499999895,
      "v": 79
    },
    {
      "midi": 60,
      "hit": false,
      "t": 67784.02312499999,
      "d": 73.86356250000244,
      "v": 114
    },
    {
      "midi": 62,
      "hit": false,
      "t": 67784.02312499999,
      "d": 83.603812500005,
      "v": 69
    },
    {
      "midi": 53,
      "hit": false,
      "t": 67788.0815625,
      "d": 75.48693749999802,
      "v": 61
    },
    {
      "midi": 65,
      "hit": false,
      "t": 67788.0815625,
      "d": 87.6622500000085,
      "v": 85
    },
    {
      "midi": 60,
      "hit": false,
      "t": 68372.4965625,
      "d": 65.74668750001001,
      "v": 73
    },
    {
      "midi": 62,
      "hit": false,
      "t": 68372.4965625,
      "d": 75.48693750001257,
      "v": 43
    },
    {
      "midi": 53,
      "hit": false,
      "t": 68372.4965625,
      "d": 86.03887500001292,
      "v": 40
    },
    {
      "midi": 65,
      "hit": false,
      "t": 68376.55500000001,
      "d": 83.603812500005,
      "v": 65
    },
    {
      "midi": 62,
      "hit": false,
      "t": 69151.71656250002,
      "d": 86.03887500001292,
      "v": 60
    },
    {
      "midi": 60,
      "hit": false,
      "t": 69155.77500000002,
      "d": 67.37006250000559,
      "v": 98
    },
    {
      "midi": 65,
      "hit": false,
      "t": 69155.77500000002,
      "d": 67.37006250000559,
      "v": 60
    },
    {
      "midi": 53,
      "hit": false,
      "t": 69155.77500000002,
      "d": 87.6622500000085,
      "v": 54
    },
    {
      "midi": 53,
      "hit": false,
      "t": 69547.00837500003,
      "d": 65.74668749999546,
      "v": 67
    },
    {
      "midi": 60,
      "hit": false,
      "t": 69547.00837500003,
      "d": 76.29862499999581,
      "v": 90
    },
    {
      "midi": 62,
      "hit": false,
      "t": 69741.81337500003,
      "d": 60.06487499999639,
      "v": 35
    },
    {
      "midi": 60,
      "hit": false,
      "t": 69936.61837500002,
      "d": 455.35668749999604,
      "v": 100
    },
    {
      "midi": 62,
      "hit": false,
      "t": 69936.61837500002,
      "d": 455.35668749999604,
      "v": 92
    },
    {
      "midi": 53,
      "hit": false,
      "t": 69936.61837500002,
      "d": 844.9666874999966,
      "v": 87
    },
    {
      "midi": 65,
      "hit": false,
      "t": 69936.61837500002,
      "d": 934.2523125000007,
      "v": 115
    },
    {
      "midi": 62,
      "hit": false,
      "t": 70519.41000000002,
      "d": 272.72699999999895,
      "v": 70
    },
    {
      "midi": 60,
      "hit": false,
      "t": 70521.03337500001,
      "d": 49.51293749999604,
      "v": 54
    },
    {
      "midi": 60,
      "hit": false,
      "t": 70910.64337500001,
      "d": 64.12331249999988,
      "v": 102
    },
    {
      "midi": 65,
      "hit": false,
      "t": 70910.64337500001,
      "d": 69.80512499999895,
      "v": 58
    },
    {
      "midi": 62,
      "hit": false,
      "t": 70910.64337500001,
      "d": 96.59081249999872,
      "v": 75
    },
    {
      "midi": 53,
      "hit": false,
      "t": 70910.64337500001,
      "d": 106.33106250000128,
      "v": 72
    },
    {
      "midi": 59,
      "hit": false,
      "t": 71493.43500000003,
      "d": 61.68825000000652,
      "v": 89
    },
    {
      "midi": 62,
      "hit": false,
      "t": 71493.43500000003,
      "d": 71.42850000000908,
      "v": 66
    },
    {
      "midi": 55,
      "hit": false,
      "t": 71493.43500000003,
      "d": 87.6622500000085,
      "v": 58
    },
    {
      "midi": 55,
      "hit": false,
      "t": 72079.47337500003,
      "d": 65.74668749999546,
      "v": 52
    },
    {
      "midi": 59,
      "hit": false,
      "t": 72079.47337500003,
      "d": 69.80512499999895,
      "v": 80
    },
    {
      "midi": 62,
      "hit": false,
      "t": 72079.47337500003,
      "d": 215.9088749999937,
      "v": 70
    },
    {
      "midi": 60,
      "hit": false,
      "t": 72663.88837500002,
      "d": 199.6751249999943,
      "v": 100
    },
    {
      "midi": 62,
      "hit": false,
      "t": 72857.07000000002,
      "d": 172.88943749999453,
      "v": 64
    },
    {
      "midi": 62,
      "hit": false,
      "t": 73051.87500000001,
      "d": 499.9994999999908,
      "v": 74
    },
    {
      "midi": 60,
      "hit": false,
      "t": 73053.49837500001,
      "d": 495.94106250000186,
      "v": 95
    },
    {
      "midi": 53,
      "hit": false,
      "t": 73053.49837500001,
      "d": 660.7136249999894,
      "v": 77
    },
    {
      "midi": 65,
      "hit": false,
      "t": 73053.49837500001,
      "d": 909.9016874999943,
      "v": 97
    },
    {
      "midi": 62,
      "hit": false,
      "t": 73632.2315625,
      "d": 75.48693749999802,
      "v": 67
    },
    {
      "midi": 55,
      "hit": false,
      "t": 73831.095,
      "d": 75.48693749999802,
      "v": 67
    },
    {
      "midi": 60,
      "hit": false,
      "t": 74027.523375,
      "d": 53.571374999999534,
      "v": 101
    },
    {
      "midi": 53,
      "hit": false,
      "t": 74027.523375,
      "d": 81.98043749999488,
      "v": 67
    },
    {
      "midi": 65,
      "hit": false,
      "t": 74027.523375,
      "d": 81.98043749999488,
      "v": 90
    },
    {
      "midi": 62,
      "hit": false,
      "t": 74027.523375,
      "d": 90.09731250000186,
      "v": 72
    },
    {
      "midi": 60,
      "hit": false,
      "t": 74611.93837500001,
      "d": 65.74668749999546,
      "v": 109
    },
    {
      "midi": 62,
      "hit": false,
      "t": 74611.93837500001,
      "d": 81.98043749999488,
      "v": 64
    },
    {
      "midi": 53,
      "hit": false,
      "t": 74611.93837500001,
      "d": 92.53237499999523,
      "v": 60
    },
    {
      "midi": 65,
      "hit": false,
      "t": 74611.93837500001,
      "d": 102.27262499999779,
      "v": 72
    },
    {
      "midi": 53,
      "hit": false,
      "t": 75585.963375,
      "d": 264.61012499999197,
      "v": 67
    },
    {
      "midi": 60,
      "hit": false,
      "t": 75780.768375,
      "d": 173.70112499999232,
      "v": 115
    },
    {
      "midi": 62,
      "hit": false,
      "t": 75975.57337499999,
      "d": 49.51293749999604,
      "v": 58
    },
    {
      "midi": 60,
      "hit": false,
      "t": 76170.37837499999,
      "d": 475.64887499999895,
      "v": 96
    },
    {
      "midi": 62,
      "hit": false,
      "t": 76170.37837499999,
      "d": 486.2008124999993,
      "v": 99
    },
    {
      "midi": 53,
      "hit": false,
      "t": 76170.37837499999,
      "d": 637.9863749999931,
      "v": 80
    },
    {
      "midi": 65,
      "hit": false,
      "t": 76170.37837499999,
      "d": 660.7136249999894,
      "v": 108
    },
    {
      "midi": 62,
      "hit": false,
      "t": 76749.11156249998,
      "d": 179.38293749999139,
      "v": 74
    },
    {
      "midi": 60,
      "hit": false,
      "t": 76754.79337499998,
      "d": 130.68168749999313,
      "v": 65
    },
    {
      "midi": 60,
      "hit": false,
      "t": 77142.77999999997,
      "d": 87.66224999999395,
      "v": 70
    },
    {
      "midi": 62,
      "hit": false,
      "t": 77142.77999999997,
      "d": 103.89599999999336,
      "v": 74
    },
    {
      "midi": 65,
      "hit": false,
      "t": 77144.40337499997,
      "d": 73.86356250000244,
      "v": 40
    },
    {
      "midi": 53,
      "hit": false,
      "t": 77144.40337499997,
      "d": 96.59081249999872,
      "v": 61
    },
    {
      "midi": 53,
      "hit": false,
      "t": 77534.01337499997,
      "d": 43.83112499999697,
      "v": 31
    },
    {
      "midi": 59,
      "hit": false,
      "t": 77728.81837499996,
      "d": 96.59081249999872,
      "v": 57
    },
    {
      "midi": 55,
      "hit": false,
      "t": 77728.81837499996,
      "d": 130.68168749999313,
      "v": 51
    },
    {
      "midi": 62,
      "hit": false,
      "t": 77728.81837499996,
      "d": 150.97387499999604,
      "v": 65
    },
    {
      "midi": 55,
      "hit": false,
      "t": 78313.23337499995,
      "d": 163.14918749999197,
      "v": 74
    },
    {
      "midi": 59,
      "hit": false,
      "t": 78313.23337499995,
      "d": 372.5645624999888,
      "v": 79
    },
    {
      "midi": 62,
      "hit": false,
      "t": 78313.23337499995,
      "d": 388.79831249998824,
      "v": 75
    },
    {
      "midi": 55,
      "hit": false,
      "t": 78702.84337499994,
      "d": 37.337625000000116,
      "v": 42
    },
    {
      "midi": 60,
      "hit": false,
      "t": 78897.64837499993,
      "d": 222.40237499999057,
      "v": 110
    },
    {
      "midi": 62,
      "hit": false,
      "t": 79086.77156249993,
      "d": 112.01287500000035,
      "v": 70
    },
    {
      "midi": 60,
      "hit": false,
      "t": 79281.57656249993,
      "d": 504.0579374999943,
      "v": 90
    },
    {
      "midi": 62,
      "hit": false,
      "t": 79281.57656249993,
      "d": 504.0579374999943,
      "v": 84
    },
    {
      "midi": 53,
      "hit": false,
      "t": 79281.57656249993,
      "d": 654.2201249999925,
      "v": 85
    },
    {
      "midi": 65,
      "hit": false,
      "t": 79287.25837499993,
      "d": 706.9798124999943,
      "v": 110
    },
    {
      "midi": 62,
      "hit": false,
      "t": 79865.99156249993,
      "d": 102.27262499999779,
      "v": 66
    },
    {
      "midi": 60,
      "hit": false,
      "t": 79871.67337499993,
      "d": 37.337625000000116,
      "v": 56
    },
    {
      "midi": 62,
      "hit": false,
      "t": 80255.60156249993,
      "d": 75.48693749999802,
      "v": 60
    },
    {
      "midi": 60,
      "hit": false,
      "t": 80261.28337499993,
      "d": 65.74668749999546,
      "v": 66
    },
    {
      "midi": 53,
      "hit": false,
      "t": 80261.28337499993,
      "d": 80.3570624999993,
      "v": 62
    },
    {
      "midi": 65,
      "hit": false,
      "t": 80261.28337499993,
      "d": 90.09731250000186,
      "v": 79
    },
    {
      "midi": 53,
      "hit": false,
      "t": 80845.69837499993,
      "d": 92.53237499999523,
      "v": 80
    },
    {
      "midi": 60,
      "hit": false,
      "t": 80845.69837499993,
      "d": 96.59081249999872,
      "v": 72
    },
    {
      "midi": 62,
      "hit": false,
      "t": 80845.69837499993,
      "d": 102.27262499999779,
      "v": 76
    },
    {
      "midi": 65,
      "hit": false,
      "t": 80845.69837499993,
      "d": 112.82456249999814,
      "v": 81
    },
    {
      "midi": 53,
      "hit": false,
      "t": 81430.11337499993,
      "d": 179.38293750000594,
      "v": 85
    },
    {
      "midi": 62,
      "hit": false,
      "t": 81430.11337499993,
      "d": 183.44137500000943,
      "v": 77
    },
    {
      "midi": 60,
      "hit": false,
      "t": 81430.11337499993,
      "d": 189.9348750000063,
      "v": 82
    },
    {
      "midi": 65,
      "hit": false,
      "t": 81430.11337499993,
      "d": 189.9348750000063,
      "v": 72
    },
    {
      "midi": 62,
      "hit": false,
      "t": 82018.58681249994,
      "d": 21.1038750000007,
      "v": 66
    },
    {
      "midi": 60,
      "hit": false,
      "t": 82018.58681249994,
      "d": 179.38293750000594,
      "v": 110
    },
    {
      "midi": 62,
      "hit": false,
      "t": 82207.70999999995,
      "d": 107.95443749999686,
      "v": 72
    },
    {
      "midi": 60,
      "hit": false,
      "t": 82404.13837499995,
      "d": 463.473562500003,
      "v": 105
    },
    {
      "midi": 62,
      "hit": false,
      "t": 82404.13837499995,
      "d": 475.64887499999895,
      "v": 89
    },
    {
      "midi": 53,
      "hit": false,
      "t": 82404.13837499995,
      "d": 715.0966874999867,
      "v": 88
    },
    {
      "midi": 65,
      "hit": false,
      "t": 82404.13837499995,
      "d": 762.1745624999894,
      "v": 110
    },
    {
      "midi": 62,
      "hit": false,
      "t": 82988.55337499994,
      "d": 81.98043749999488,
      "v": 75
    },
    {
      "midi": 53,
      "hit": false,
      "t": 83187.41681249994,
      "d": 45.4545000000071,
      "v": 25
    },
    {
      "midi": 60,
      "hit": false,
      "t": 83378.16337499995,
      "d": 65.74668749999546,
      "v": 74
    },
    {
      "midi": 62,
      "hit": false,
      "t": 83378.16337499995,
      "d": 65.74668749999546,
      "v": 74
    },
    {
      "midi": 53,
      "hit": false,
      "t": 83378.16337499995,
      "d": 134.74012499999662,
      "v": 64
    },
    {
      "midi": 35,
      "hit": false,
      "t": 83960.955,
      "d": 3081.16575,
      "v": 108
    },
    {
      "midi": 59,
      "hit": false,
      "t": 83962.57837499995,
      "d": 76.29862500001036,
      "v": 65
    },
    {
      "midi": 62,
      "hit": false,
      "t": 83962.57837499995,
      "d": 76.29862500001036,
      "v": 73
    },
    {
      "midi": 55,
      "hit": false,
      "t": 83962.57837499995,
      "d": 195.61668750000536,
      "v": 67
    },
    {
      "midi": 59,
      "hit": false,
      "t": 84541.31156249995,
      "d": 120.12974999999278,
      "v": 54
    },
    {
      "midi": 55,
      "hit": false,
      "t": 84541.31156249995,
      "d": 140.4219374999957,
      "v": 44
    },
    {
      "midi": 62,
      "hit": false,
      "t": 84541.31156249995,
      "d": 156.6556874999951,
      "v": 57
    },
    {
      "midi": 55,
      "hit": false,
      "t": 84930.92156249995,
      "d": 47.07787500000268,
      "v": 42
    },
    {
      "midi": 60,
      "hit": false,
      "t": 85131.40837499996,
      "d": 171.26606249999895,
      "v": 102
    },
    {
      "midi": 62,
      "hit": false,
      "t": 85326.21337499995,
      "d": 98.2141874999943,
      "v": 42
    },
    {
      "midi": 60,
      "hit": false,
      "t": 85521.01837499994,
      "d": 465.9086249999964,
      "v": 99
    },
    {
      "midi": 62,
      "hit": false,
      "t": 85521.01837499994,
      "d": 465.9086249999964,
      "v": 94
    },
    {
      "midi": 53,
      "hit": false,
      "t": 85521.01837499994,
      "d": 686.6876249999914,
      "v": 75
    },
    {
      "midi": 65,
      "hit": false,
      "t": 85521.01837499994,
      "d": 723.2135624999937,
      "v": 104
    },
    {
      "midi": 62,
      "hit": false,
      "t": 86099.75156249994,
      "d": 112.01287500000035,
      "v": 68
    },
    {
      "midi": 60,
      "hit": false,
      "t": 86489.36156249994,
      "d": 69.80512499999895,
      "v": 65
    },
    {
      "midi": 62,
      "hit": false,
      "t": 86489.36156249994,
      "d": 69.80512499999895,
      "v": 67
    },
    {
      "midi": 65,
      "hit": false,
      "t": 86489.36156249994,
      "d": 71.42849999999453,
      "v": 66
    },
    {
      "midi": 53,
      "hit": false,
      "t": 86489.36156249994,
      "d": 98.2141874999943,
      "v": 58
    },
    {
      "midi": 60,
      "hit": false,
      "t": 87077.83499999993,
      "d": 65.74668749999546,
      "v": 64
    },
    {
      "midi": 62,
      "hit": false,
      "t": 87077.83499999993,
      "d": 67.37006249999104,
      "v": 68
    },
    {
      "midi": 36,
      "hit": false,
      "t": 87077.835,
      "d": 2890.419187499996,
      "v": 101
    },
    {
      "midi": 53,
      "hit": false,
      "t": 87079.45837499993,
      "d": 69.80512499999895,
      "v": 54
    },
    {
      "midi": 65,
      "hit": false,
      "t": 87079.45837499993,
      "d": 73.86356250000244,
      "v": 70
    },
    {
      "midi": 62,
      "hit": false,
      "t": 87658.19156249994,
      "d": 87.66224999999395,
      "v": 56
    },
    {
      "midi": 60,
      "hit": false,
      "t": 87662.24999999994,
      "d": 83.60381249999045,
      "v": 54
    },
    {
      "midi": 65,
      "hit": false,
      "t": 87663.87337499994,
      "d": 86.03887499999837,
      "v": 70
    },
    {
      "midi": 53,
      "hit": false,
      "t": 87663.87337499994,
      "d": 96.59081249999872,
      "v": 51
    },
    {
      "midi": 53,
      "hit": false,
      "t": 88053.48337499994,
      "d": 41.39606250000361,
      "v": 44
    },
    {
      "midi": 60,
      "hit": false,
      "t": 88248.28837499995,
      "d": 134.74012499999662,
      "v": 102
    },
    {
      "midi": 62,
      "hit": false,
      "t": 88252.34681249995,
      "d": 11.363624999998137,
      "v": 61
    },
    {
      "midi": 62,
      "hit": false,
      "t": 88437.41156249994,
      "d": 114.44793749999371,
      "v": 74
    },
    {
      "midi": 60,
      "hit": false,
      "t": 88637.89837499993,
      "d": 431.0060625000042,
      "v": 97
    },
    {
      "midi": 62,
      "hit": false,
      "t": 88637.89837499993,
      "d": 439.1229375000112,
      "v": 96
    },
    {
      "midi": 53,
      "hit": false,
      "t": 88637.89837499993,
      "d": 650.1616875000036,
      "v": 79
    },
    {
      "midi": 65,
      "hit": false,
      "t": 88637.89837499993,
      "d": 796.2654374999984,
      "v": 109
    },
    {
      "midi": 62,
      "hit": false,
      "t": 89216.63156249994,
      "d": 69.80512499999895,
      "v": 72
    },
    {
      "midi": 60,
      "hit": false,
      "t": 89606.24156249993,
      "d": 86.03887499999837,
      "v": 76
    },
    {
      "midi": 55,
      "hit": false,
      "t": 89606.24156249993,
      "d": 91.72068749999744,
      "v": 67
    },
    {
      "midi": 62,
      "hit": false,
      "t": 89606.24156249993,
      "d": 91.72068749999744,
      "v": 80
    },
    {
      "midi": 55,
      "hit": false,
      "t": 90190.65656249992,
      "d": 98.2141874999943,
      "v": 65
    },
    {
      "midi": 38,
      "hit": false,
      "t": 90194.715,
      "d": 3085.2241875000036,
      "v": 106
    },
    {
      "midi": 59,
      "hit": false,
      "t": 90196.33837499992,
      "d": 69.80512499999895,
      "v": 68
    },
    {
      "midi": 62,
      "hit": false,
      "t": 90196.33837499992,
      "d": 90.09731250000186,
      "v": 73
    },
    {
      "midi": 59,
      "hit": false,
      "t": 90784.81181249992,
      "d": 65.74668749999546,
      "v": 85
    },
    {
      "midi": 55,
      "hit": false,
      "t": 90784.81181249992,
      "d": 179.38293749999139,
      "v": 76
    },
    {
      "midi": 62,
      "hit": false,
      "t": 90784.81181249992,
      "d": 199.6751249999943,
      "v": 89
    },
    {
      "midi": 60,
      "hit": false,
      "t": 90787.24687499991,
      "d": 14.610375000003842,
      "v": 56
    },
    {
      "midi": 59,
      "hit": false,
      "t": 90973.93499999991,
      "d": 33.279187499996624,
      "v": 29
    },
    {
      "midi": 60,
      "hit": false,
      "t": 91369.22681249991,
      "d": 81.98043749999488,
      "v": 115
    },
    {
      "midi": 55,
      "hit": false,
      "t": 91371.6618749999,
      "d": 30.84412500000326,
      "v": 39
    },
    {
      "midi": 62,
      "hit": false,
      "t": 91564.0318124999,
      "d": 60.06487499999639,
      "v": 37
    },
    {
      "midi": 60,
      "hit": false,
      "t": 91758.8368124999,
      "d": 439.1229374999966,
      "v": 98
    },
    {
      "midi": 62,
      "hit": false,
      "t": 91758.8368124999,
      "d": 459.41512499999953,
      "v": 92
    },
    {
      "midi": 65,
      "hit": false,
      "t": 91758.8368124999,
      "d": 796.2654374999984,
      "v": 114
    },
    {
      "midi": 53,
      "hit": false,
      "t": 91758.8368124999,
      "d": 816.5576250000013,
      "v": 96
    },
    {
      "midi": 62,
      "hit": false,
      "t": 92339.1933749999,
      "d": 260.551687500003,
      "v": 68
    },
    {
      "midi": 60,
      "hit": false,
      "t": 92723.1215624999,
      "d": 59.2531874999986,
      "v": 79
    },
    {
      "midi": 62,
      "hit": false,
      "t": 92723.1215624999,
      "d": 69.80512499999895,
      "v": 80
    },
    {
      "midi": 53,
      "hit": false,
      "t": 92723.1215624999,
      "d": 79.54537500000151,
      "v": 67
    },
    {
      "midi": 65,
      "hit": false,
      "t": 92727.1799999999,
      "d": 67.37006249999104,
      "v": 90
    },
    {
      "midi": 65,
      "hit": false,
      "t": 92917.92656249991,
      "d": 47.07787500000268,
      "v": 39
    },
    {
      "midi": 53,
      "hit": false,
      "t": 92917.92656249991,
      "d": 49.51293749999604,
      "v": 30
    },
    {
      "midi": 60,
      "hit": false,
      "t": 92917.92656249991,
      "d": 63.311625000002095,
      "v": 45
    },
    {
      "midi": 62,
      "hit": false,
      "t": 92917.92656249991,
      "d": 86.03887499999837,
      "v": 58
    },
    {
      "midi": 40,
      "hit": false,
      "t": 93303.478125,
      "d": 26.785687499999767,
      "v": 93
    },
    {
      "midi": 53,
      "hit": false,
      "t": 93307.53656249991,
      "d": 69.80512499999895,
      "v": 60
    },
    {
      "midi": 65,
      "hit": false,
      "t": 93307.53656249991,
      "d": 69.80512499999895,
      "v": 72
    },
    {
      "midi": 60,
      "hit": false,
      "t": 93307.53656249991,
      "d": 75.48693749999802,
      "v": 62
    },
    {
      "midi": 62,
      "hit": false,
      "t": 93307.53656249991,
      "d": 75.48693749999802,
      "v": 60
    },
    {
      "midi": 60,
      "hit": false,
      "t": 93891.9515624999,
      "d": 65.74668749999546,
      "v": 74
    },
    {
      "midi": 62,
      "hit": false,
      "t": 93891.9515624999,
      "d": 71.42849999999453,
      "v": 75
    },
    {
      "midi": 65,
      "hit": false,
      "t": 93891.9515624999,
      "d": 75.48693749999802,
      "v": 87
    },
    {
      "midi": 53,
      "hit": false,
      "t": 93891.9515624999,
      "d": 95.77912500000093,
      "v": 68
    },
    {
      "midi": 53,
      "hit": false,
      "t": 94281.5615624999,
      "d": 38.96099999999569,
      "v": 46
    },
    {
      "midi": 60,
      "hit": false,
      "t": 94482.0483749999,
      "d": 96.59081249999872,
      "v": 110
    },
    {
      "midi": 62,
      "hit": false,
      "t": 94676.85337499989,
      "d": 73.86356250000244,
      "v": 50
    },
    {
      "midi": 64,
      "hit": false,
      "t": 94871.6583749999,
      "d": 11.363624999998137,
      "v": 75
    },
    {
      "midi": 60,
      "hit": false,
      "t": 94871.6583749999,
      "d": 482.1423749999958,
      "v": 101
    },
    {
      "midi": 62,
      "hit": false,
      "t": 94871.6583749999,
      "d": 482.1423749999958,
      "v": 100
    },
    {
      "midi": 53,
      "hit": false,
      "t": 94871.6583749999,
      "d": 605.5188749999943,
      "v": 98
    },
    {
      "midi": 65,
      "hit": false,
      "t": 94871.6583749999,
      "d": 605.5188749999943,
      "v": 111
    },
    {
      "midi": 62,
      "hit": false,
      "t": 95454.4499999999,
      "d": 272.72699999999895,
      "v": 70
    },
    {
      "midi": 60,
      "hit": false,
      "t": 95456.07337499989,
      "d": 49.51293749999604,
      "v": 54
    },
    {
      "midi": 60,
      "hit": false,
      "t": 95845.68337499989,
      "d": 64.12331249999988,
      "v": 102
    },
    {
      "midi": 62,
      "hit": false,
      "t": 95845.68337499989,
      "d": 96.59081249999872,
      "v": 75
    },
    {
      "midi": 53,
      "hit": false,
      "t": 95845.68337499989,
      "d": 118.5063749999972,
      "v": 72
    },
    {
      "midi": 65,
      "hit": false,
      "t": 95845.68337499989,
      "d": 118.5063749999972,
      "v": 58
    },
    {
      "midi": 59,
      "hit": false,
      "t": 96428.47499999989,
      "d": 61.68825000000652,
      "v": 89
    },
    {
      "midi": 62,
      "hit": false,
      "t": 96428.47499999989,
      "d": 71.42850000000908,
      "v": 66
    },
    {
      "midi": 55,
      "hit": false,
      "t": 96428.47499999989,
      "d": 87.6622500000085,
      "v": 58
    },
    {
      "midi": 55,
      "hit": false,
      "t": 96428.47499999999,
      "d": 668.0188124999986,
      "v": 102
    },
    {
      "midi": 65,
      "hit": false,
      "t": 96428.47499999999,
      "d": 698.8629375000019,
      "v": 108
    },
    {
      "midi": 71,
      "hit": false,
      "t": 96428.47499999999,
      "d": 704.5447500000009,
      "v": 98
    },
    {
      "midi": 62,
      "hit": false,
      "t": 96428.47499999999,
      "d": 708.6031875000044,
      "v": 99
    },
    {
      "midi": 62,
      "hit": false,
      "t": 97209.318375,
      "d": 751.6226250000036,
      "v": 67
    },
    {
      "midi": 55,
      "hit": false,
      "t": 97213.3768125,
      "d": 754.057687499997,
      "v": 72
    },
    {
      "midi": 65,
      "hit": false,
      "t": 97213.3768125,
      "d": 754.057687499997,
      "v": 77
    },
    {
      "midi": 71,
      "hit": false,
      "t": 97213.3768125,
      "d": 754.057687499997,
      "v": 73
    },
    {
      "midi": 62,
      "hit": false,
      "t": 97988.538375,
      "d": 90.09731250000186,
      "v": 80
    },
    {
      "midi": 65,
      "hit": false,
      "t": 97988.538375,
      "d": 98.21418750000885,
      "v": 85
    },
    {
      "midi": 71,
      "hit": false,
      "t": 97988.538375,
      "d": 114.44793750000827,
      "v": 72
    },
    {
      "midi": 55,
      "hit": false,
      "t": 97988.538375,
      "d": 124.99987500000861,
      "v": 76
    },
    {
      "midi": 67,
      "hit": false,
      "t": 98183.34337500001,
      "d": 271.1036250000034,
      "v": 85
    },
    {
      "midi": 72,
      "hit": false,
      "t": 98183.34337500001,
      "d": 271.1036250000034,
      "v": 88
    },
    {
      "midi": 64,
      "hit": false,
      "t": 98183.34337500001,
      "d": 280.84387500000594,
      "v": 72
    },
    {
      "midi": 55,
      "hit": false,
      "t": 98183.34337500001,
      "d": 325.4866875000007,
      "v": 74
    },
    {
      "midi": 62,
      "hit": false,
      "t": 98572.95337500001,
      "d": 37.337625000000116,
      "v": 65
    },
    {
      "midi": 65,
      "hit": false,
      "t": 98572.95337500001,
      "d": 47.889562500000466,
      "v": 69
    },
    {
      "midi": 71,
      "hit": false,
      "t": 98572.95337500001,
      "d": 60.06487499999639,
      "v": 62
    },
    {
      "midi": 55,
      "hit": false,
      "t": 98572.95337500001,
      "d": 76.29862499999581,
      "v": 68
    },
    {
      "midi": 69,
      "hit": false,
      "t": 98767.758375,
      "d": 206.1686250000057,
      "v": 96
    },
    {
      "midi": 65,
      "hit": false,
      "t": 98767.758375,
      "d": 226.46081250000861,
      "v": 96
    },
    {
      "midi": 74,
      "hit": false,
      "t": 98767.758375,
      "d": 226.46081250000861,
      "v": 94
    },
    {
      "midi": 55,
      "hit": false,
      "t": 98767.758375,
      "d": 309.25293750001583,
      "v": 84
    },
    {
      "midi": 69,
      "hit": false,
      "t": 99350.55000000002,
      "d": 1305.193499999994,
      "v": 101
    },
    {
      "midi": 74,
      "hit": false,
      "t": 99350.55000000002,
      "d": 1305.193499999994,
      "v": 99
    },
    {
      "midi": 65,
      "hit": false,
      "t": 99350.55000000002,
      "d": 1309.2519374999974,
      "v": 101
    },
    {
      "midi": 55,
      "hit": false,
      "t": 99350.55000000002,
      "d": 1333.6025625000038,
      "v": 98
    },
    {
      "midi": 77,
      "hit": false,
      "t": 99350.55000000002,
      "d": 1333.6025625000038,
      "v": 111
    },
    {
      "midi": 65,
      "hit": false,
      "t": 102857.04000000002,
      "d": 562.4994374999951,
      "v": 103
    },
    {
      "midi": 71,
      "hit": false,
      "t": 102857.04000000002,
      "d": 568.992937499992,
      "v": 98
    },
    {
      "midi": 62,
      "hit": false,
      "t": 102857.04000000002,
      "d": 570.6163124999875,
      "v": 97
    },
    {
      "midi": 55,
      "hit": false,
      "t": 102857.04000000002,
      "d": 574.674749999991,
      "v": 95
    },
    {
      "midi": 62,
      "hit": false,
      "t": 103443.07837500001,
      "d": 599.8370625000098,
      "v": 64
    },
    {
      "midi": 65,
      "hit": false,
      "t": 103443.07837500001,
      "d": 625.8110625000118,
      "v": 72
    },
    {
      "midi": 55,
      "hit": false,
      "t": 103443.07837500001,
      "d": 644.4798750000045,
      "v": 66
    },
    {
      "midi": 71,
      "hit": false,
      "t": 103443.07837500001,
      "d": 644.4798750000045,
      "v": 71
    },
    {
      "midi": 62,
      "hit": false,
      "t": 104222.29837500001,
      "d": 98.2141874999943,
      "v": 79
    },
    {
      "midi": 65,
      "hit": false,
      "t": 104222.29837500001,
      "d": 106.33106250000128,
      "v": 86
    },
    {
      "midi": 71,
      "hit": false,
      "t": 104222.29837500001,
      "d": 130.68168750000768,
      "v": 83
    },
    {
      "midi": 55,
      "hit": false,
      "t": 104222.29837500001,
      "d": 134.74012500001118,
      "v": 71
    },
    {
      "midi": 67,
      "hit": false,
      "t": 104417.10337500002,
      "d": 219.9673124999972,
      "v": 92
    },
    {
      "midi": 72,
      "hit": false,
      "t": 104417.10337500002,
      "d": 238.63612499999,
      "v": 89
    },
    {
      "midi": 64,
      "hit": false,
      "t": 104417.10337500002,
      "d": 254.8698749999894,
      "v": 74
    },
    {
      "midi": 55,
      "hit": false,
      "t": 104417.10337500002,
      "d": 293.0191874999873,
      "v": 86
    },
    {
      "midi": 62,
      "hit": false,
      "t": 104806.713375,
      "d": 37.337625000000116,
      "v": 65
    },
    {
      "midi": 65,
      "hit": false,
      "t": 104806.713375,
      "d": 37.337625000000116,
      "v": 71
    },
    {
      "midi": 71,
      "hit": false,
      "t": 104806.713375,
      "d": 60.06487499999639,
      "v": 63
    },
    {
      "midi": 55,
      "hit": false,
      "t": 104806.713375,
      "d": 80.3570624999993,
      "v": 62
    },
    {
      "midi": 55,
      "hit": false,
      "t": 105001.518375,
      "d": 222.40237499999057,
      "v": 74
    },
    {
      "midi": 74,
      "hit": false,
      "t": 105001.518375,
      "d": 238.63612499999,
      "v": 92
    },
    {
      "midi": 69,
      "hit": false,
      "t": 105001.518375,
      "d": 258.9283124999929,
      "v": 91
    },
    {
      "midi": 65,
      "hit": false,
      "t": 105001.518375,
      "d": 268.66856249999546,
      "v": 88
    },
    {
      "midi": 69,
      "hit": false,
      "t": 105585.933375,
      "d": 790.5836249999993,
      "v": 99
    },
    {
      "midi": 74,
      "hit": false,
      "t": 105585.933375,
      "d": 796.2654374999984,
      "v": 104
    },
    {
      "midi": 55,
      "hit": false,
      "t": 105585.933375,
      "d": 804.3823125000054,
      "v": 78
    },
    {
      "midi": 77,
      "hit": false,
      "t": 105585.933375,
      "d": 810.8758125000022,
      "v": 101
    },
    {
      "midi": 65,
      "hit": false,
      "t": 105585.933375,
      "d": 816.5576250000013,
      "v": 96
    },
    {
      "midi": 41,
      "hit": false,
      "t": 111428.4599999999,
      "d": 440.74631250000675,
      "v": 91
    },
    {
      "midi": 57,
      "hit": false,
      "t": 111814.01156249999,
      "d": 183.44137500000943,
      "v": 91
    },
    {
      "midi": 60,
      "hit": false,
      "t": 111814.01156249999,
      "d": 185.064750000005,
      "v": 99
    },
    {
      "midi": 42,
      "hit": false,
      "t": 111818.0699999999,
      "d": 383.9281875000015,
      "v": 85
    },
    {
      "midi": 53,
      "hit": false,
      "t": 111818.06999999999,
      "d": 146.9154375000071,
      "v": 94
    },
    {
      "midi": 61,
      "hit": false,
      "t": 111998.264625,
      "d": 177.7595624999958,
      "v": 95
    },
    {
      "midi": 58,
      "hit": false,
      "t": 111998.264625,
      "d": 193.99331249999523,
      "v": 101
    },
    {
      "midi": 54,
      "hit": false,
      "t": 111998.264625,
      "d": 219.9673124999972,
      "v": 98
    },
    {
      "midi": 43,
      "hit": false,
      "t": 112207.6799999999,
      "d": 465.0969374999986,
      "v": 77
    },
    {
      "midi": 59,
      "hit": false,
      "t": 112207.68,
      "d": 244.3179375000036,
      "v": 116
    },
    {
      "midi": 62,
      "hit": false,
      "t": 112207.68,
      "d": 244.3179375000036,
      "v": 106
    },
    {
      "midi": 55,
      "hit": false,
      "t": 112207.68,
      "d": 254.05818750000617,
      "v": 88
    },
    {
      "midi": 67,
      "hit": false,
      "t": 113571.315,
      "d": 124.18818749999627,
      "v": 106
    },
    {
      "midi": 73,
      "hit": false,
      "t": 113762.06156249999,
      "d": 6.493499999996857,
      "v": 119
    },
    {
      "midi": 79,
      "hit": false,
      "t": 113762.06156249999,
      "d": 156.6556874999951,
      "v": 102
    },
    {
      "midi": 74,
      "hit": false,
      "t": 113832.67837499999,
      "d": 33.279187499996624,
      "v": 80
    },
    {
      "midi": 73,
      "hit": false,
      "t": 113891.93156249999,
      "d": 30.84412500000326,
      "v": 101
    },
    {
      "midi": 67,
      "hit": false,
      "t": 113960.92499999999,
      "d": 55.19474999999511,
      "v": 106
    },
    {
      "midi": 58,
      "hit": false,
      "t": 114356.21681249999,
      "d": 189.93487499999173,
      "v": 98
    },
    {
      "midi": 61,
      "hit": false,
      "t": 114356.21681249999,
      "d": 202.11018749998766,
      "v": 105
    },
    {
      "midi": 62,
      "hit": false,
      "t": 114545.33999999998,
      "d": 136.3634999999922,
      "v": 91
    },
    {
      "midi": 59,
      "hit": false,
      "t": 114545.33999999998,
      "d": 159.09074999998847,
      "v": 91
    },
    {
      "midi": 55,
      "hit": false,
      "t": 114732.02812499997,
      "d": 86.03887499999837,
      "v": 112
    },
    {
      "midi": 57,
      "hit": false,
      "t": 114934.94999999997,
      "d": 124.18818749999627,
      "v": 88
    },
    {
      "midi": 60,
      "hit": false,
      "t": 114934.94999999997,
      "d": 130.68168749999313,
      "v": 88
    },
    {
      "midi": 53,
      "hit": false,
      "t": 114934.94999999997,
      "d": 146.91543749999255,
      "v": 78
    },
    {
      "midi": 58,
      "hit": false,
      "t": 115129.75499999996,
      "d": 132.30506250000326,
      "v": 80
    },
    {
      "midi": 61,
      "hit": false,
      "t": 115129.75499999996,
      "d": 136.36350000000675,
      "v": 85
    },
    {
      "midi": 54,
      "hit": false,
      "t": 115129.75499999996,
      "d": 164.7725625000021,
      "v": 72
    },
    {
      "midi": 62,
      "hit": false,
      "t": 115324.55999999997,
      "d": 152.59725000000617,
      "v": 84
    },
    {
      "midi": 59,
      "hit": false,
      "t": 115324.55999999997,
      "d": 168.8310000000056,
      "v": 78
    },
    {
      "midi": 55,
      "hit": false,
      "t": 115324.55999999997,
      "d": 175.32450000000244,
      "v": 81
    },
    {
      "midi": 62,
      "hit": false,
      "t": 115738.52062499998,
      "d": 2703.73106250001,
      "v": 98
    },
    {
      "midi": 59,
      "hit": false,
      "t": 115748.26087499998,
      "d": 3085.224187499989,
      "v": 94
    },
    {
      "midi": 53,
      "hit": false,
      "t": 115748.26087499998,
      "d": 3095.7761249999894,
      "v": 90
    },
    {
      "midi": 62,
      "hit": false,
      "t": 118447.12181249999,
      "d": 65.74668749999546,
      "v": 107
    },
    {
      "midi": 67,
      "hit": false,
      "t": 118447.12181249999,
      "d": 65.74668749999546,
      "v": 101
    },
    {
      "midi": 55,
      "hit": false,
      "t": 118447.12181249999,
      "d": 81.98043749999488,
      "v": 82
    },
    {
      "midi": 62,
      "hit": false,
      "t": 118637.86837499998,
      "d": 90.09731250000186,
      "v": 71
    },
    {
      "midi": 67,
      "hit": false,
      "t": 118637.86837499998,
      "d": 102.27262499999779,
      "v": 67
    },
    {
      "midi": 55,
      "hit": false,
      "t": 118831.04999999997,
      "d": 43.019437499999185,
      "v": 58
    },
    {
      "midi": 61,
      "hit": false,
      "t": 119220.65999999997,
      "d": 67.37006249999104,
      "v": 80
    },
    {
      "midi": 67,
      "hit": false,
      "t": 119222.28337499997,
      "d": 254.8698749999894,
      "v": 88
    },
    {
      "midi": 62,
      "hit": false,
      "t": 119222.28337499997,
      "d": 258.9283124999929,
      "v": 90
    },
    {
      "midi": 61,
      "hit": false,
      "t": 120005.56181249996,
      "d": 60.06487499999639,
      "v": 66
    },
    {
      "midi": 62,
      "hit": false,
      "t": 120005.56181249996,
      "d": 353.89574999999604,
      "v": 89
    },
    {
      "midi": 67,
      "hit": false,
      "t": 120005.56181249996,
      "d": 353.89574999999604,
      "v": 86
    },
    {
      "midi": 55,
      "hit": false,
      "t": 120385.43156249996,
      "d": 79.54537500000151,
      "v": 45
    },
    {
      "midi": 61,
      "hit": false,
      "t": 120585.91837499996,
      "d": 11.363624999998137,
      "v": 48
    },
    {
      "midi": 62,
      "hit": false,
      "t": 120585.91837499996,
      "d": 37.337625000000116,
      "v": 68
    },
    {
      "midi": 67,
      "hit": false,
      "t": 120585.91837499996,
      "d": 49.51293749999604,
      "v": 75
    },
    {
      "midi": 61,
      "hit": false,
      "t": 121359.45656249997,
      "d": 26.785687499999767,
      "v": 81
    },
    {
      "midi": 55,
      "hit": false,
      "t": 121359.45656249997,
      "d": 331.16849999999977,
      "v": 85
    },
    {
      "midi": 67,
      "hit": false,
      "t": 121359.45656249997,
      "d": 331.16849999999977,
      "v": 104
    },
    {
      "midi": 62,
      "hit": false,
      "t": 121359.45656249997,
      "d": 345.7788750000036,
      "v": 102
    },
    {
      "midi": 62,
      "hit": false,
      "t": 121754.74837499997,
      "d": 60.06487499999639,
      "v": 82
    },
    {
      "midi": 67,
      "hit": false,
      "t": 121754.74837499997,
      "d": 69.80512499999895,
      "v": 81
    },
    {
      "midi": 55,
      "hit": false,
      "t": 121943.87156249996,
      "d": 47.07787500000268,
      "v": 77
    },
    {
      "midi": 61,
      "hit": false,
      "t": 122343.22181249996,
      "d": 118.5063749999972,
      "v": 82
    },
    {
      "midi": 62,
      "hit": false,
      "t": 122343.22181249996,
      "d": 368.5061249999999,
      "v": 91
    },
    {
      "midi": 67,
      "hit": false,
      "t": 122345.65687499996,
      "d": 345.7788750000036,
      "v": 99
    },
    {
      "midi": 55,
      "hit": false,
      "t": 122728.77337499996,
      "d": 155.03231249999953,
      "v": 69
    },
    {
      "midi": 67,
      "hit": false,
      "t": 122930.07187499997,
      "d": 132.30506250000326,
      "v": 88
    },
    {
      "midi": 62,
      "hit": false,
      "t": 122930.07187499997,
      "d": 134.74012499999662,
      "v": 98
    },
    {
      "midi": 59,
      "hit": false,
      "t": 124482.01837499996,
      "d": 469.9670624999999,
      "v": 94
    },
    {
      "midi": 62,
      "hit": false,
      "t": 124482.01837499996,
      "d": 469.9670624999999,
      "v": 101
    },
    {
      "midi": 67,
      "hit": false,
      "t": 124482.01837499996,
      "d": 486.2008124999993,
      "v": 108
    },
    {
      "midi": 62,
      "hit": false,
      "t": 125060.75156249995,
      "d": 43.019437499999185,
      "v": 91
    },
    {
      "midi": 59,
      "hit": false,
      "t": 125060.75156249995,
      "d": 69.80512499999895,
      "v": 85
    },
    {
      "midi": 69,
      "hit": false,
      "t": 125060.75156249995,
      "d": 150.97387499999604,
      "v": 89
    },
    {
      "midi": 62,
      "hit": false,
      "t": 125456.04337499995,
      "d": 106.33106250000128,
      "v": 85
    },
    {
      "midi": 67,
      "hit": false,
      "t": 125456.04337499995,
      "d": 112.82456249999814,
      "v": 98
    },
    {
      "midi": 59,
      "hit": false,
      "t": 125456.04337499995,
      "d": 114.44793749999371,
      "v": 76
    },
    {
      "midi": 55,
      "hit": false,
      "t": 126040.45837499994,
      "d": 508.1163749999978,
      "v": 106
    },
    {
      "midi": 59,
      "hit": false,
      "t": 126040.45837499994,
      "d": 518.6683124999981,
      "v": 104
    },
    {
      "midi": 57,
      "hit": false,
      "t": 126624.87337499994,
      "d": 47.889562500000466,
      "v": 86
    },
    {
      "midi": 60,
      "hit": false,
      "t": 126624.87337499994,
      "d": 80.3570624999993,
      "v": 88
    },
    {
      "midi": 55,
      "hit": false,
      "t": 126624.87337499994,
      "d": 114.44793749999371,
      "v": 85
    },
    {
      "midi": 59,
      "hit": false,
      "t": 127014.48337499994,
      "d": 64.12331249999988,
      "v": 77
    },
    {
      "midi": 55,
      "hit": false,
      "t": 127014.48337499994,
      "d": 106.33106250000128,
      "v": 76
    },
    {
      "midi": 62,
      "hit": false,
      "t": 127014.48337499994,
      "d": 122.5648125000007,
      "v": 80
    },
    {
      "midi": 69,
      "hit": false,
      "t": 127598.89837499995,
      "d": 544.6423125000292,
      "v": 101
    },
    {
      "midi": 57,
      "hit": false,
      "t": 127602.95681249995,
      "d": 508.11637500001234,
      "v": 91
    },
    {
      "midi": 66,
      "hit": false,
      "t": 127602.95681249995,
      "d": 532.4670000000187,
      "v": 98
    },
    {
      "midi": 62,
      "hit": false,
      "t": 127602.95681249995,
      "d": 548.7007500000327,
      "v": 96
    },
    {
      "midi": 62,
      "hit": false,
      "t": 128567.24156249998,
      "d": 536.5254374999931,
      "v": 96
    },
    {
      "midi": 65,
      "hit": false,
      "t": 128567.24156249998,
      "d": 552.7591874999925,
      "v": 94
    },
    {
      "midi": 59,
      "hit": false,
      "t": 128567.24156249998,
      "d": 568.992937499992,
      "v": 98
    },
    {
      "midi": 70,
      "hit": false,
      "t": 128567.24156249998,
      "d": 601.4604374999908,
      "v": 89
    },
    {
      "midi": 64,
      "hit": false,
      "t": 129352.14337499997,
      "d": 124.99987499999406,
      "v": 98
    },
    {
      "midi": 67,
      "hit": false,
      "t": 129352.14337499997,
      "d": 163.14918749999197,
      "v": 92
    },
    {
      "midi": 57,
      "hit": false,
      "t": 129352.14337499997,
      "d": 260.551687500003,
      "v": 92
    },
    {
      "midi": 69,
      "hit": false,
      "t": 129551.00681249997,
      "d": 21.1038750000007,
      "v": 64
    },
    {
      "midi": 62,
      "hit": false,
      "t": 129551.00681249997,
      "d": 56.00643750000745,
      "v": 98
    },
    {
      "midi": 66,
      "hit": false,
      "t": 129551.00681249997,
      "d": 60.06487500001094,
      "v": 89
    },
    {
      "midi": 62,
      "hit": false,
      "t": 130714.15499999997,
      "d": 525.9734999999928,
      "v": 113
    },
    {
      "midi": 67,
      "hit": false,
      "t": 130714.15499999997,
      "d": 525.9734999999928,
      "v": 111
    },
    {
      "midi": 59,
      "hit": false,
      "t": 130714.15499999997,
      "d": 532.4670000000042,
      "v": 111
    },
    {
      "midi": 62,
      "hit": false,
      "t": 131300.19337499997,
      "d": 43.83112499999697,
      "v": 103
    },
    {
      "midi": 59,
      "hit": false,
      "t": 131300.19337499997,
      "d": 64.12331249998533,
      "v": 103
    },
    {
      "midi": 69,
      "hit": false,
      "t": 131300.19337499997,
      "d": 80.3570624999993,
      "v": 111
    },
    {
      "midi": 62,
      "hit": false,
      "t": 131689.80337499996,
      "d": 43.83112499999697,
      "v": 94
    },
    {
      "midi": 59,
      "hit": false,
      "t": 131689.80337499996,
      "d": 60.06487500001094,
      "v": 88
    },
    {
      "midi": 67,
      "hit": false,
      "t": 131689.80337499996,
      "d": 76.29862500002491,
      "v": 91
    },
    {
      "midi": 55,
      "hit": false,
      "t": 132274.218375,
      "d": 491.88262499999837,
      "v": 99
    },
    {
      "midi": 60,
      "hit": false,
      "t": 132274.218375,
      "d": 491.88262499999837,
      "v": 104
    },
    {
      "midi": 64,
      "hit": false,
      "t": 132274.218375,
      "d": 491.88262499999837,
      "v": 111
    },
    {
      "midi": 64,
      "hit": false,
      "t": 132857.01,
      "d": 77.92199999999139,
      "v": 96
    },
    {
      "midi": 55,
      "hit": false,
      "t": 132858.633375,
      "d": 4.870124999986729,
      "v": 69
    },
    {
      "midi": 67,
      "hit": false,
      "t": 132858.633375,
      "d": 80.3570624999993,
      "v": 99
    },
    {
      "midi": 60,
      "hit": false,
      "t": 133248.243375,
      "d": 69.8051250000135,
      "v": 98
    },
    {
      "midi": 64,
      "hit": false,
      "t": 133248.243375,
      "d": 86.03887500002747,
      "v": 96
    },
    {
      "midi": 55,
      "hit": false,
      "t": 133248.243375,
      "d": 90.09731250003097,
      "v": 91
    },
    {
      "midi": 55,
      "hit": false,
      "t": 133832.65837500003,
      "d": 1648.5373125000042,
      "v": 86
    },
    {
      "midi": 60,
      "hit": false,
      "t": 133832.65837500003,
      "d": 1655.0308125000156,
      "v": 106
    },
    {
      "midi": 67,
      "hit": false,
      "t": 133832.65837500003,
      "d": 1672.8879375000251,
      "v": 106
    },
    {
      "midi": 64,
      "hit": false,
      "t": 133832.65837500003,
      "d": 1681.0048125000321,
      "v": 106
    },
    {
      "midi": 64,
      "hit": false,
      "t": 135584.28000000006,
      "d": 12.986999999993714,
      "v": 64
    },
    {
      "midi": 67,
      "hit": false,
      "t": 135584.28000000006,
      "d": 140.42193749998114,
      "v": 86
    },
    {
      "midi": 55,
      "hit": false,
      "t": 135584.28000000006,
      "d": 168.83099999997648,
      "v": 83
    },
    {
      "midi": 60,
      "hit": false,
      "t": 135585.90337500005,
      "d": 49.51293749999604,
      "v": 91
    },
    {
      "midi": 62,
      "hit": false,
      "t": 135780.70837500005,
      "d": 37.33762500001467,
      "v": 74
    },
    {
      "midi": 55,
      "hit": false,
      "t": 135780.70837500005,
      "d": 49.51293749999604,
      "v": 61
    },
    {
      "midi": 67,
      "hit": false,
      "t": 135780.70837500005,
      "d": 73.86356249998789,
      "v": 83
    },
    {
      "midi": 60,
      "hit": false,
      "t": 135784.76681250005,
      "d": 43.83112499999697,
      "v": 72
    },
    {
      "midi": 60,
      "hit": false,
      "t": 136170.31837500003,
      "d": 49.51293749999604,
      "v": 85
    },
    {
      "midi": 55,
      "hit": false,
      "t": 136170.31837500003,
      "d": 69.8051249999844,
      "v": 69
    },
    {
      "midi": 67,
      "hit": false,
      "t": 136170.31837500003,
      "d": 80.3570624999702,
      "v": 85
    },
    {
      "midi": 60,
      "hit": false,
      "t": 136558.305,
      "d": 293.01918749997276,
      "v": 79
    },
    {
      "midi": 67,
      "hit": false,
      "t": 136558.305,
      "d": 309.25293749998673,
      "v": 76
    },
    {
      "midi": 55,
      "hit": false,
      "t": 136558.305,
      "d": 318.9931874999893,
      "v": 73
    },
    {
      "midi": 62,
      "hit": false,
      "t": 136559.928375,
      "d": 280.8438749999914,
      "v": 79
    },
    {
      "midi": 59,
      "hit": false,
      "t": 136949.53837499997,
      "d": 469.96706249998533,
      "v": 94
    },
    {
      "midi": 62,
      "hit": false,
      "t": 136949.53837499997,
      "d": 469.96706249998533,
      "v": 101
    },
    {
      "midi": 67,
      "hit": false,
      "t": 136949.53837499997,
      "d": 486.2008124999993,
      "v": 108
    },
    {
      "midi": 62,
      "hit": false,
      "t": 137528.27156249998,
      "d": 43.01943750001374,
      "v": 91
    },
    {
      "midi": 59,
      "hit": false,
      "t": 137528.27156249998,
      "d": 69.8051250000135,
      "v": 85
    },
    {
      "midi": 69,
      "hit": false,
      "t": 137528.27156249998,
      "d": 150.97387500002515,
      "v": 89
    },
    {
      "midi": 62,
      "hit": false,
      "t": 137923.563375,
      "d": 106.33106249998673,
      "v": 85
    },
    {
      "midi": 67,
      "hit": false,
      "t": 137923.563375,
      "d": 112.82456249999814,
      "v": 98
    },
    {
      "midi": 59,
      "hit": false,
      "t": 137923.563375,
      "d": 114.44793750002282,
      "v": 76
    },
    {
      "midi": 55,
      "hit": false,
      "t": 138507.978375,
      "d": 508.11637500001234,
      "v": 106
    },
    {
      "midi": 59,
      "hit": false,
      "t": 138507.978375,
      "d": 518.6683124999981,
      "v": 104
    },
    {
      "midi": 57,
      "hit": false,
      "t": 139092.39337499999,
      "d": 47.889562500000466,
      "v": 86
    },
    {
      "midi": 60,
      "hit": false,
      "t": 139092.39337499999,
      "d": 80.3570624999993,
      "v": 88
    },
    {
      "midi": 55,
      "hit": false,
      "t": 139092.39337499999,
      "d": 114.44793749999371,
      "v": 85
    },
    {
      "midi": 59,
      "hit": false,
      "t": 139482.00337499997,
      "d": 64.12331250001444,
      "v": 77
    },
    {
      "midi": 55,
      "hit": false,
      "t": 139482.00337499997,
      "d": 106.33106249998673,
      "v": 76
    },
    {
      "midi": 69,
      "hit": false,
      "t": 140066.41837499995,
      "d": 544.6423125000147,
      "v": 101
    },
    {
      "midi": 57,
      "hit": false,
      "t": 140070.47681249995,
      "d": 508.11637500001234,
      "v": 91
    },
    {
      "midi": 66,
      "hit": false,
      "t": 140070.47681249995,
      "d": 532.4670000000042,
      "v": 98
    },
    {
      "midi": 62,
      "hit": false,
      "t": 140070.47681249995,
      "d": 548.7007500000182,
      "v": 96
    },
    {
      "midi": 62,
      "hit": false,
      "t": 141034.76156249997,
      "d": 536.5254375000077,
      "v": 96
    },
    {
      "midi": 65,
      "hit": false,
      "t": 141034.76156249997,
      "d": 552.7591875000217,
      "v": 94
    },
    {
      "midi": 59,
      "hit": false,
      "t": 141034.76156249997,
      "d": 568.9929375000356,
      "v": 98
    },
    {
      "midi": 70,
      "hit": false,
      "t": 141034.76156249997,
      "d": 601.4604375000345,
      "v": 89
    },
    {
      "midi": 64,
      "hit": false,
      "t": 141819.663375,
      "d": 124.99987500000861,
      "v": 98
    },
    {
      "midi": 67,
      "hit": false,
      "t": 141819.663375,
      "d": 163.14918750000652,
      "v": 92
    },
    {
      "midi": 57,
      "hit": false,
      "t": 141819.663375,
      "d": 260.551687500003,
      "v": 92
    },
    {
      "midi": 69,
      "hit": false,
      "t": 142018.5268125,
      "d": 21.1038750000007,
      "v": 64
    },
    {
      "midi": 62,
      "hit": false,
      "t": 142018.5268125,
      "d": 56.00643750000745,
      "v": 98
    },
    {
      "midi": 66,
      "hit": false,
      "t": 142018.5268125,
      "d": 60.06487500001094,
      "v": 89
    },
    {
      "midi": 62,
      "hit": false,
      "t": 143181.67500000002,
      "d": 525.9734999999928,
      "v": 113
    },
    {
      "midi": 67,
      "hit": false,
      "t": 143181.67500000002,
      "d": 525.9734999999928,
      "v": 101
    },
    {
      "midi": 59,
      "hit": false,
      "t": 143181.67500000002,
      "d": 532.4670000000042,
      "v": 111
    },
    {
      "midi": 62,
      "hit": false,
      "t": 143767.71337500002,
      "d": 43.83112499999697,
      "v": 89
    },
    {
      "midi": 59,
      "hit": false,
      "t": 143767.71337500002,
      "d": 64.12331249998533,
      "v": 83
    },
    {
      "midi": 69,
      "hit": false,
      "t": 143767.71337500002,
      "d": 80.3570624999993,
      "v": 116
    },
    {
      "midi": 62,
      "hit": false,
      "t": 144157.323375,
      "d": 43.83112499999697,
      "v": 94
    },
    {
      "midi": 59,
      "hit": false,
      "t": 144157.323375,
      "d": 60.06487500001094,
      "v": 88
    },
    {
      "midi": 67,
      "hit": false,
      "t": 144157.323375,
      "d": 76.29862500002491,
      "v": 91
    },
    {
      "midi": 55,
      "hit": false,
      "t": 144741.73837500004,
      "d": 491.88262499999837,
      "v": 99
    },
    {
      "midi": 60,
      "hit": false,
      "t": 144741.73837500004,
      "d": 491.88262499999837,
      "v": 104
    },
    {
      "midi": 64,
      "hit": false,
      "t": 144741.73837500004,
      "d": 491.88262499999837,
      "v": 111
    },
    {
      "midi": 64,
      "hit": false,
      "t": 145324.53000000006,
      "d": 77.92199999999139,
      "v": 96
    },
    {
      "midi": 55,
      "hit": false,
      "t": 145326.15337500005,
      "d": 4.870124999986729,
      "v": 69
    },
    {
      "midi": 67,
      "hit": false,
      "t": 145326.15337500005,
      "d": 80.3570624999993,
      "v": 99
    },
    {
      "midi": 60,
      "hit": false,
      "t": 145715.76337500004,
      "d": 69.8051250000135,
      "v": 98
    },
    {
      "midi": 64,
      "hit": false,
      "t": 145715.76337500004,
      "d": 86.03887500002747,
      "v": 96
    },
    {
      "midi": 55,
      "hit": false,
      "t": 145715.76337500004,
      "d": 90.09731250003097,
      "v": 91
    },
    {
      "midi": 72,
      "hit": false,
      "t": 146298.5549999999,
      "d": 1909.9006874999905,
      "v": 69
    },
    {
      "midi": 76,
      "hit": false,
      "t": 146298.5549999999,
      "d": 1909.9006874999905,
      "v": 77
    },
    {
      "midi": 79,
      "hit": false,
      "t": 146298.5549999999,
      "d": 1918.0175624999974,
      "v": 66
    },
    {
      "midi": 60,
      "hit": false,
      "t": 146300.17837500008,
      "d": 1655.0308124999865,
      "v": 106
    },
    {
      "midi": 64,
      "hit": false,
      "t": 146300.17837500008,
      "d": 1672.887937499996,
      "v": 106
    },
    {
      "midi": 67,
      "hit": false,
      "t": 146300.17837500008,
      "d": 1681.004812500003,
      "v": 106
    },
    {
      "midi": 86,
      "hit": false,
      "t": 147300.9890624999,
      "d": 903.4081874999974,
      "v": 94
    },
    {
      "midi": 64,
      "hit": false,
      "t": 148051.80000000008,
      "d": 12.986999999993714,
      "v": 64
    },
    {
      "midi": 67,
      "hit": false,
      "t": 148051.80000000008,
      "d": 140.42193749998114,
      "v": 86
    },
    {
      "midi": 55,
      "hit": false,
      "t": 148051.80000000008,
      "d": 168.83099999997648,
      "v": 83
    },
    {
      "midi": 60,
      "hit": false,
      "t": 148053.42337500007,
      "d": 49.51293749999604,
      "v": 91
    },
    {
      "midi": 62,
      "hit": false,
      "t": 148248.22837500006,
      "d": 37.33762500001467,
      "v": 74
    },
    {
      "midi": 55,
      "hit": false,
      "t": 148248.22837500006,
      "d": 49.51293749999604,
      "v": 61
    },
    {
      "midi": 67,
      "hit": false,
      "t": 148248.22837500006,
      "d": 73.86356249998789,
      "v": 83
    },
    {
      "midi": 60,
      "hit": false,
      "t": 148252.28681250007,
      "d": 43.83112499999697,
      "v": 72
    },
    {
      "midi": 60,
      "hit": false,
      "t": 148637.83837500005,
      "d": 49.51293749999604,
      "v": 85
    },
    {
      "midi": 55,
      "hit": false,
      "t": 148637.83837500005,
      "d": 69.8051249999844,
      "v": 69
    },
    {
      "midi": 67,
      "hit": false,
      "t": 148637.83837500005,
      "d": 80.3570624999702,
      "v": 85
    },
    {
      "midi": 60,
      "hit": false,
      "t": 149025.825,
      "d": 293.01918749997276,
      "v": 79
    },
    {
      "midi": 67,
      "hit": false,
      "t": 149025.825,
      "d": 309.25293749998673,
      "v": 76
    },
    {
      "midi": 55,
      "hit": false,
      "t": 149025.825,
      "d": 318.9931874999893,
      "v": 73
    },
    {
      "midi": 62,
      "hit": false,
      "t": 149027.448375,
      "d": 280.8438749999914,
      "v": 79
    },
    {
      "midi": 59,
      "hit": false,
      "t": 149417.058375,
      "d": 469.96706249998533,
      "v": 94
    },
    {
      "midi": 62,
      "hit": false,
      "t": 149417.058375,
      "d": 469.96706249998533,
      "v": 101
    },
    {
      "midi": 67,
      "hit": false,
      "t": 149417.058375,
      "d": 486.2008124999993,
      "v": 108
    },
    {
      "midi": 62,
      "hit": false,
      "t": 149995.7915625,
      "d": 43.01943750001374,
      "v": 91
    },
    {
      "midi": 59,
      "hit": false,
      "t": 149995.7915625,
      "d": 69.8051250000135,
      "v": 85
    },
    {
      "midi": 69,
      "hit": false,
      "t": 149995.7915625,
      "d": 150.97387500002515,
      "v": 89
    },
    {
      "midi": 62,
      "hit": false,
      "t": 150391.08337500002,
      "d": 106.33106249998673,
      "v": 85
    },
    {
      "midi": 67,
      "hit": false,
      "t": 150391.08337500002,
      "d": 112.82456249999814,
      "v": 98
    },
    {
      "midi": 59,
      "hit": false,
      "t": 150391.08337500002,
      "d": 114.44793750002282,
      "v": 76
    },
    {
      "midi": 55,
      "hit": false,
      "t": 150975.49837500002,
      "d": 508.11637500001234,
      "v": 106
    },
    {
      "midi": 59,
      "hit": false,
      "t": 150975.49837500002,
      "d": 518.6683124999981,
      "v": 104
    },
    {
      "midi": 57,
      "hit": false,
      "t": 151559.913375,
      "d": 47.889562500000466,
      "v": 86
    },
    {
      "midi": 60,
      "hit": false,
      "t": 151559.913375,
      "d": 80.3570624999993,
      "v": 88
    },
    {
      "midi": 55,
      "hit": false,
      "t": 151559.913375,
      "d": 114.44793749999371,
      "v": 85
    },
    {
      "midi": 59,
      "hit": false,
      "t": 151949.523375,
      "d": 64.12331250001444,
      "v": 77
    },
    {
      "midi": 55,
      "hit": false,
      "t": 151949.523375,
      "d": 106.33106249998673,
      "v": 76
    },
    {
      "midi": 62,
      "hit": false,
      "t": 151949.523375,
      "d": 122.5648125000007,
      "v": 80
    },
    {
      "midi": 69,
      "hit": false,
      "t": 152533.93837499997,
      "d": 544.6423125000147,
      "v": 101
    },
    {
      "midi": 57,
      "hit": false,
      "t": 152537.99681249997,
      "d": 508.11637500001234,
      "v": 91
    },
    {
      "midi": 66,
      "hit": false,
      "t": 152537.99681249997,
      "d": 532.4670000000042,
      "v": 98
    },
    {
      "midi": 62,
      "hit": false,
      "t": 152537.99681249997,
      "d": 548.7007500000182,
      "v": 96
    },
    {
      "midi": 62,
      "hit": false,
      "t": 153502.2815625,
      "d": 536.5254375000077,
      "v": 96
    },
    {
      "midi": 65,
      "hit": false,
      "t": 153502.2815625,
      "d": 552.7591875000217,
      "v": 94
    },
    {
      "midi": 59,
      "hit": false,
      "t": 153502.2815625,
      "d": 568.9929375000356,
      "v": 98
    },
    {
      "midi": 70,
      "hit": false,
      "t": 153502.2815625,
      "d": 601.4604375000345,
      "v": 89
    },
    {
      "midi": 64,
      "hit": false,
      "t": 154287.18337500002,
      "d": 124.99987500000861,
      "v": 98
    },
    {
      "midi": 67,
      "hit": false,
      "t": 154287.18337500002,
      "d": 163.14918750000652,
      "v": 92
    },
    {
      "midi": 57,
      "hit": false,
      "t": 154287.18337500002,
      "d": 260.551687500003,
      "v": 92
    },
    {
      "midi": 69,
      "hit": false,
      "t": 154486.04681250002,
      "d": 21.1038750000007,
      "v": 64
    },
    {
      "midi": 62,
      "hit": false,
      "t": 154486.04681250002,
      "d": 56.00643750000745,
      "v": 98
    },
    {
      "midi": 66,
      "hit": false,
      "t": 154486.04681250002,
      "d": 60.06487500001094,
      "v": 89
    },
    {
      "midi": 62,
      "hit": false,
      "t": 155649.19500000004,
      "d": 525.9734999999928,
      "v": 113
    },
    {
      "midi": 67,
      "hit": false,
      "t": 155649.19500000004,
      "d": 525.9734999999928,
      "v": 101
    },
    {
      "midi": 59,
      "hit": false,
      "t": 155649.19500000004,
      "d": 532.4670000000042,
      "v": 111
    },
    {
      "midi": 62,
      "hit": false,
      "t": 156235.23337500004,
      "d": 43.83112499999697,
      "v": 89
    },
    {
      "midi": 59,
      "hit": false,
      "t": 156235.23337500004,
      "d": 64.12331249998533,
      "v": 83
    },
    {
      "midi": 69,
      "hit": false,
      "t": 156235.23337500004,
      "d": 80.3570624999993,
      "v": 116
    },
    {
      "midi": 62,
      "hit": false,
      "t": 156624.84337500003,
      "d": 43.83112499999697,
      "v": 94
    },
    {
      "midi": 59,
      "hit": false,
      "t": 156624.84337500003,
      "d": 60.06487500001094,
      "v": 88
    },
    {
      "midi": 67,
      "hit": false,
      "t": 156624.84337500003,
      "d": 76.29862500002491,
      "v": 91
    },
    {
      "midi": 55,
      "hit": false,
      "t": 157209.25837500006,
      "d": 491.88262499999837,
      "v": 99
    },
    {
      "midi": 60,
      "hit": false,
      "t": 157209.25837500006,
      "d": 491.88262499999837,
      "v": 104
    },
    {
      "midi": 64,
      "hit": false,
      "t": 157209.25837500006,
      "d": 491.88262499999837,
      "v": 111
    },
    {
      "midi": 64,
      "hit": false,
      "t": 157792.05000000008,
      "d": 77.92199999999139,
      "v": 96
    },
    {
      "midi": 55,
      "hit": false,
      "t": 157793.67337500007,
      "d": 4.870124999986729,
      "v": 69
    },
    {
      "midi": 67,
      "hit": false,
      "t": 157793.67337500007,
      "d": 80.3570624999993,
      "v": 99
    },
    {
      "midi": 60,
      "hit": false,
      "t": 158183.28337500006,
      "d": 69.8051250000135,
      "v": 98
    },
    {
      "midi": 64,
      "hit": false,
      "t": 158183.28337500006,
      "d": 86.03887500002747,
      "v": 96
    },
    {
      "midi": 55,
      "hit": false,
      "t": 158183.28337500006,
      "d": 90.09731250003097,
      "v": 91
    },
    {
      "midi": 57,
      "hit": false,
      "t": 158767.6983750001,
      "d": 1648.5373125000042,
      "v": 86
    },
    {
      "midi": 59,
      "hit": false,
      "t": 158767.6983750001,
      "d": 1655.0308125000156,
      "v": 106
    },
    {
      "midi": 66,
      "hit": false,
      "t": 158767.6983750001,
      "d": 1672.8879375000251,
      "v": 106
    },
    {
      "midi": 62,
      "hit": false,
      "t": 158767.6983750001,
      "d": 1681.0048125000321,
      "v": 106
    },
    {
      "midi": 64,
      "hit": false,
      "t": 160519.32000000012,
      "d": 12.986999999993714,
      "v": 64
    },
    {
      "midi": 67,
      "hit": false,
      "t": 160519.32000000012,
      "d": 140.42193749998114,
      "v": 86
    },
    {
      "midi": 55,
      "hit": false,
      "t": 160519.32000000012,
      "d": 168.83099999997648,
      "v": 83
    },
    {
      "midi": 60,
      "hit": false,
      "t": 160520.94337500012,
      "d": 49.51293749999604,
      "v": 91
    },
    {
      "midi": 62,
      "hit": false,
      "t": 160715.7483750001,
      "d": 37.33762500001467,
      "v": 74
    },
    {
      "midi": 55,
      "hit": false,
      "t": 160715.7483750001,
      "d": 49.51293749999604,
      "v": 61
    },
    {
      "midi": 67,
      "hit": false,
      "t": 160715.7483750001,
      "d": 73.86356249998789,
      "v": 83
    },
    {
      "midi": 60,
      "hit": false,
      "t": 160719.80681250012,
      "d": 43.83112499999697,
      "v": 72
    },
    {
      "midi": 60,
      "hit": false,
      "t": 161105.3583750001,
      "d": 49.51293749999604,
      "v": 85
    },
    {
      "midi": 55,
      "hit": false,
      "t": 161105.3583750001,
      "d": 69.8051249999844,
      "v": 69
    },
    {
      "midi": 67,
      "hit": false,
      "t": 161105.3583750001,
      "d": 80.3570624999702,
      "v": 85
    },
    {
      "midi": 60,
      "hit": false,
      "t": 161493.34500000006,
      "d": 293.01918749997276,
      "v": 79
    },
    {
      "midi": 67,
      "hit": false,
      "t": 161493.34500000006,
      "d": 309.25293749998673,
      "v": 76
    },
    {
      "midi": 55,
      "hit": false,
      "t": 161493.34500000006,
      "d": 318.9931874999893,
      "v": 73
    },
    {
      "midi": 62,
      "hit": false,
      "t": 161494.96837500005,
      "d": 280.8438749999914,
      "v": 79
    },
    {
      "midi": 31,
      "hit": false,
      "t": 162077.75999999998,
      "d": 570.6163125000021,
      "v": 89
    },
    {
      "midi": 31,
      "hit": false,
      "t": 162667.8568125,
      "d": 938.3107500000333,
      "v": 80
    },
    {
      "midi": 43,
      "hit": false,
      "t": 162874.837125,
      "d": 540.5838750000112,
      "v": 80
    },
    {
      "midi": 43,
      "hit": false,
      "t": 163437.33656250002,
      "d": 919.6419375000114,
      "v": 76
    },
    {
      "midi": 31,
      "hit": false,
      "t": 163636.2,
      "d": 568.9929375000065,
      "v": 85
    },
    {
      "midi": 31,
      "hit": false,
      "t": 164220.61500000002,
      "d": 922.0770000000193,
      "v": 74
    },
    {
      "midi": 43,
      "hit": false,
      "t": 164431.65375000003,
      "d": 546.2656875000102,
      "v": 96
    },
    {
      "midi": 43,
      "hit": false,
      "t": 164995.77656250005,
      "d": 923.7003750000149,
      "v": 85
    },
    {
      "midi": 31,
      "hit": false,
      "t": 165194.64000000004,
      "d": 578.7331875000091,
      "v": 95
    },
    {
      "midi": 31,
      "hit": false,
      "t": 165779.05500000005,
      "d": 935.8756874999963,
      "v": 76
    },
    {
      "midi": 43,
      "hit": false,
      "t": 165991.71712500005,
      "d": 536.5254375000077,
      "v": 89
    },
    {
      "midi": 43,
      "hit": false,
      "t": 166554.21656250005,
      "d": 919.6419375000114,
      "v": 81
    },
    {
      "midi": 31,
      "hit": false,
      "t": 166753.08000000005,
      "d": 578.7331875000091,
      "v": 89
    },
    {
      "midi": 31,
      "hit": false,
      "t": 167337.49500000005,
      "d": 938.3107500000042,
      "v": 88
    },
    {
      "midi": 43,
      "hit": false,
      "t": 167537.98181250007,
      "d": 543.01893749999,
      "v": 90
    },
    {
      "midi": 69,
      "hit": false,
      "t": 168112.65656250005,
      "d": 98.21418750003795,
      "v": 108
    },
    {
      "midi": 43,
      "hit": false,
      "t": 168112.65656250005,
      "d": 919.6419375000114,
      "v": 99
    },
    {
      "midi": 70,
      "hit": false,
      "t": 168116.71500000005,
      "d": 49.512937500025146,
      "v": 114
    },
    {
      "midi": 74,
      "hit": false,
      "t": 168128.89031250007,
      "d": 146.91543750002165,
      "v": 98
    },
    {
      "midi": 71,
      "hit": false,
      "t": 168145.12406250008,
      "d": 146.91543750002165,
      "v": 92
    },
    {
      "midi": 31,
      "hit": false,
      "t": 168311.52000000005,
      "d": 578.7331875000091,
      "v": 98
    },
    {
      "midi": 72,
      "hit": false,
      "t": 168524.1821250001,
      "d": 167.20762500001,
      "v": 72
    },
    {
      "midi": 69,
      "hit": false,
      "t": 168524.1821250001,
      "d": 177.7595624999958,
      "v": 70
    },
    {
      "midi": 71,
      "hit": false,
      "t": 168725.4806250001,
      "d": 901.7848125000019,
      "v": 56
    },
    {
      "midi": 67,
      "hit": false,
      "t": 168735.22087500012,
      "d": 904.2198750000098,
      "v": 59
    },
    {
      "midi": 31,
      "hit": false,
      "t": 168901.61681250005,
      "d": 938.3107500000042,
      "v": 81
    },
    {
      "midi": 43,
      "hit": false,
      "t": 169106.97375000006,
      "d": 548.7007499999891,
      "v": 87
    },
    {
      "midi": 43,
      "hit": false,
      "t": 169671.09656250005,
      "d": 919.6419375000114,
      "v": 89
    },
    {
      "midi": 31,
      "hit": false,
      "t": 169869.96000000005,
      "d": 568.9929375000065,
      "v": 76
    },
    {
      "midi": 31,
      "hit": false,
      "t": 170454.37500000006,
      "d": 927.7588125000184,
      "v": 67
    },
    {
      "midi": 43,
      "hit": false,
      "t": 170654.86181250008,
      "d": 540.5838750000112,
      "v": 78
    },
    {
      "midi": 43,
      "hit": false,
      "t": 171229.53656250008,
      "d": 919.6419374999823,
      "v": 66
    },
    {
      "midi": 31,
      "hit": false,
      "t": 171428.40000000008,
      "d": 581.1682499999879,
      "v": 73
    },
    {
      "midi": 31,
      "hit": false,
      "t": 172018.49681250006,
      "d": 920.4536249999946,
      "v": 61
    },
    {
      "midi": 43,
      "hit": false,
      "t": 172219.79531250006,
      "d": 562.4994374999951,
      "v": 67
    },
    {
      "midi": 43,
      "hit": false,
      "t": 172787.97656250006,
      "d": 978.89512500001,
      "v": 56
    },
    {
      "midi": 31,
      "hit": false,
      "t": 172986.84000000005,
      "d": 578.7331875000091,
      "v": 67
    },
    {
      "midi": 31,
      "hit": false,
      "t": 173571.25500000006,
      "d": 935.8756874999963,
      "v": 58
    },
    {
      "midi": 43,
      "hit": false,
      "t": 173782.29375000007,
      "d": 552.7591874999925,
      "v": 63
    },
    {
      "midi": 43,
      "hit": false,
      "t": 174346.41656250006,
      "d": 923.7003750000149,
      "v": 56
    },
    {
      "midi": 69,
      "hit": false,
      "t": 174346.41656250012,
      "d": 75.48693750001257,
      "v": 93
    },
    {
      "midi": 70,
      "hit": false,
      "t": 174350.47500000012,
      "d": 55.19474999999511,
      "v": 95
    },
    {
      "midi": 74,
      "hit": false,
      "t": 174352.09837500012,
      "d": 33.279187500011176,
      "v": 82
    },
    {
      "midi": 71,
      "hit": false,
      "t": 174356.15681250012,
      "d": 76.29862499999581,
      "v": 111
    },
    {
      "midi": 31,
      "hit": false,
      "t": 174545.28000000006,
      "d": 570.6163125000021,
      "v": 53
    },
    {
      "midi": 72,
      "hit": false,
      "t": 174757.94212500012,
      "d": 167.20762500001,
      "v": 77
    },
    {
      "midi": 69,
      "hit": false,
      "t": 174757.94212500012,
      "d": 177.7595624999958,
      "v": 75
    },
    {
      "midi": 71,
      "hit": false,
      "t": 174959.24062500012,
      "d": 901.7848125000019,
      "v": 60
    },
    {
      "midi": 67,
      "hit": false,
      "t": 174968.98087500012,
      "d": 904.2198750000098,
      "v": 65
    },
    {
      "midi": 31,
      "hit": false,
      "t": 175135.37681250006,
      "d": 938.3107500000333,
      "v": 46
    },
    {
      "midi": 43,
      "hit": false,
      "t": 175342.35712500007,
      "d": 540.5838750000112,
      "v": 54
    },
    {
      "midi": 43,
      "hit": false,
      "t": 175904.8565625001,
      "d": 919.6419375000114,
      "v": 40
    },
    {
      "midi": 31,
      "hit": false,
      "t": 176103.7200000001,
      "d": 568.9929375000065,
      "v": 59
    },
    {
      "midi": 31,
      "hit": false,
      "t": 176688.1350000001,
      "d": 922.0770000000193,
      "v": 52
    },
    {
      "midi": 43,
      "hit": false,
      "t": 176899.1737500001,
      "d": 546.2656875000102,
      "v": 68
    },
    {
      "midi": 43,
      "hit": false,
      "t": 177463.29656250012,
      "d": 923.7003750000149,
      "v": 61
    },
    {
      "midi": 31,
      "hit": false,
      "t": 177662.16000000012,
      "d": 570.6163125000021,
      "v": 76
    },
    {
      "midi": 31,
      "hit": false,
      "t": 178246.57500000013,
      "d": 935.8756874999963,
      "v": 56
    },
    {
      "midi": 43,
      "hit": false,
      "t": 178459.23712500013,
      "d": 536.5254375000077,
      "v": 66
    },
    {
      "midi": 43,
      "hit": false,
      "t": 179021.73656250013,
      "d": 919.6419375000114,
      "v": 62
    },
    {
      "midi": 31,
      "hit": false,
      "t": 179220.60000000012,
      "d": 578.7331875000091,
      "v": 62
    },
    {
      "midi": 58,
      "hit": false,
      "t": 179433.26212500012,
      "d": 179.38293749999139,
      "v": 92
    },
    {
      "midi": 61,
      "hit": false,
      "t": 179433.26212500012,
      "d": 179.38293749999139,
      "v": 98
    },
    {
      "midi": 59,
      "hit": false,
      "t": 179622.38531250012,
      "d": 120.12974999999278,
      "v": 62
    },
    {
      "midi": 62,
      "hit": false,
      "t": 179622.38531250012,
      "d": 144.48037499998463,
      "v": 59
    },
    {
      "midi": 31,
      "hit": false,
      "t": 179805.01500000013,
      "d": 938.3107500000042,
      "v": 56
    },
    {
      "midi": 55,
      "hit": false,
      "t": 179837.4825000001,
      "d": 525.9734999999928,
      "v": 69
    },
    {
      "midi": 43,
      "hit": false,
      "t": 180005.50181250015,
      "d": 543.01893749999,
      "v": 62
    },
    {
      "midi": 58,
      "hit": false,
      "t": 180028.2290625001,
      "d": 550.3241250000137,
      "v": 48
    },
    {
      "midi": 61,
      "hit": false,
      "t": 180028.2290625001,
      "d": 550.3241250000137,
      "v": 51
    },
    {
      "midi": 43,
      "hit": false,
      "t": 180580.17656250013,
      "d": 919.6419375000114,
      "v": 58
    },
    {
      "midi": 59,
      "hit": false,
      "t": 180600.46875000012,
      "d": 3517.0419375000056,
      "v": 62
    },
    {
      "midi": 62,
      "hit": false,
      "t": 180602.0921250001,
      "d": 3515.41856250001,
      "v": 61
    },
    {
      "midi": 31,
      "hit": false,
      "t": 180779.04000000012,
      "d": 578.7331875000091,
      "v": 67
    },
    {
      "midi": 53,
      "hit": false,
      "t": 180833.42306250014,
      "d": 3284.0876249999856,
      "v": 59
    },
    {
      "midi": 31,
      "hit": false,
      "t": 181369.13681250013,
      "d": 938.3107500000042,
      "v": 55
    },
    {
      "midi": 43,
      "hit": false,
      "t": 181574.49375000014,
      "d": 548.7007499999891,
      "v": 62
    },
    {
      "midi": 43,
      "hit": false,
      "t": 182138.61656250013,
      "d": 919.6419375000114,
      "v": 69
    },
    {
      "midi": 31,
      "hit": false,
      "t": 182337.48000000013,
      "d": 568.9929375000065,
      "v": 73
    },
    {
      "midi": 31,
      "hit": false,
      "t": 182921.89500000014,
      "d": 927.7588125000184,
      "v": 68
    },
    {
      "midi": 43,
      "hit": false,
      "t": 183122.38181250016,
      "d": 540.5838750000112,
      "v": 79
    },
    {
      "midi": 43,
      "hit": false,
      "t": 183697.05656250016,
      "d": 919.6419374999823,
      "v": 68
    },
    {
      "midi": 31,
      "hit": false,
      "t": 183895.92000000016,
      "d": 581.1682499999879,
      "v": 74
    },
    {
      "midi": 31,
      "hit": false,
      "t": 184486.01681250014,
      "d": 920.4536249999946,
      "v": 64
    },
    {
      "midi": 43,
      "hit": false,
      "t": 184687.31531250014,
      "d": 562.4994374999951,
      "v": 64
    },
    {
      "midi": 43,
      "hit": false,
      "t": 185255.49656250014,
      "d": 978.89512500001,
      "v": 59
    },
    {
      "midi": 31,
      "hit": false,
      "t": 185454.36000000013,
      "d": 578.7331875000091,
      "v": 70
    },
    {
      "midi": 31,
      "hit": false,
      "t": 186038.77500000014,
      "d": 935.8756874999963,
      "v": 60
    },
    {
      "midi": 43,
      "hit": false,
      "t": 186249.81375000015,
      "d": 552.7591874999925,
      "v": 69
    },
    {
      "midi": 69,
      "hit": false,
      "t": 186813.9365625001,
      "d": 95.77912500003004,
      "v": 105
    },
    {
      "midi": 43,
      "hit": false,
      "t": 186813.93656250014,
      "d": 923.7003750000149,
      "v": 60
    },
    {
      "midi": 70,
      "hit": false,
      "t": 186817.9950000001,
      "d": 49.512937500025146,
      "v": 111
    },
    {
      "midi": 74,
      "hit": false,
      "t": 186830.17031250012,
      "d": 144.48037500001374,
      "v": 96
    },
    {
      "midi": 71,
      "hit": false,
      "t": 186846.40406250014,
      "d": 144.48037500001374,
      "v": 90
    },
    {
      "midi": 31,
      "hit": false,
      "t": 187012.80000000013,
      "d": 570.6163125000021,
      "v": 78
    },
    {
      "midi": 72,
      "hit": false,
      "t": 187225.46212500014,
      "d": 163.14918750000652,
      "v": 70
    },
    {
      "midi": 69,
      "hit": false,
      "t": 187225.46212500014,
      "d": 173.70112499999232,
      "v": 68
    },
    {
      "midi": 71,
      "hit": false,
      "t": 187426.76062500014,
      "d": 881.4926250000135,
      "v": 54
    },
    {
      "midi": 67,
      "hit": false,
      "t": 187436.50087500014,
      "d": 885.551062500017,
      "v": 57
    },
    {
      "midi": 31,
      "hit": false,
      "t": 187602.89681250014,
      "d": 938.3107500000333,
      "v": 61
    },
    {
      "midi": 43,
      "hit": false,
      "t": 187809.87712500014,
      "d": 540.5838750000112,
      "v": 62
    },
    {
      "midi": 43,
      "hit": false,
      "t": 188372.37656250017,
      "d": 919.6419374999823,
      "v": 62
    },
    {
      "midi": 31,
      "hit": false,
      "t": 188571.24000000017,
      "d": 558.4409999999916,
      "v": 71
    },
    {
      "midi": 31,
      "hit": false,
      "t": 189155.65500000014,
      "d": 922.0770000000193,
      "v": 58
    },
    {
      "midi": 43,
      "hit": false,
      "t": 189366.69375000015,
      "d": 546.2656875000102,
      "v": 69
    },
    {
      "midi": 43,
      "hit": false,
      "t": 189930.81656250017,
      "d": 923.7003750000149,
      "v": 67
    },
    {
      "midi": 31,
      "hit": false,
      "t": 190129.68000000017,
      "d": 578.7331875000091,
      "v": 77
    },
    {
      "midi": 31,
      "hit": false,
      "t": 190714.09500000018,
      "d": 935.8756874999963,
      "v": 71
    },
    {
      "midi": 43,
      "hit": false,
      "t": 190926.75712500018,
      "d": 536.5254375000077,
      "v": 88
    },
    {
      "midi": 43,
      "hit": false,
      "t": 191489.25656250017,
      "d": 919.6419375000114,
      "v": 83
    },
    {
      "midi": 31,
      "hit": false,
      "t": 191688.12000000017,
      "d": 578.7331875000091,
      "v": 92
    },
    {
      "midi": 31,
      "hit": false,
      "t": 192272.53500000018,
      "d": 938.3107500000042,
      "v": 94
    },
    {
      "midi": 43,
      "hit": false,
      "t": 192473.0218125002,
      "d": 543.01893749999,
      "v": 97
    },
    {
      "midi": 43,
      "hit": false,
      "t": 193047.69656250018,
      "d": 919.6419375000114,
      "v": 122
    },
    {
      "midi": 59,
      "hit": false,
      "t": 217402.38000000015,
      "d": 1219.966312500008,
      "v": 80
    },
    {
      "midi": 55,
      "hit": false,
      "t": 217402.38000000015,
      "d": 1311.6870000000054,
      "v": 80
    },
    {
      "midi": 82,
      "hit": false,
      "t": 221209.19437500017,
      "d": 18.668812499992782,
      "v": 85
    },
    {
      "midi": 83,
      "hit": false,
      "t": 221218.93462500017,
      "d": 498.3761249999807,
      "v": 62
    },
    {
      "midi": 91,
      "hit": false,
      "t": 221235.16837500015,
      "d": 1222.4013749999867,
      "v": 86
    },
    {
      "midi": 70,
      "hit": false,
      "t": 226160.48812500015,
      "d": 57.62981249997392,
      "v": 105
    },
    {
      "midi": 67,
      "hit": false,
      "t": 226160.48812500015,
      "d": 83.60381249996135,
      "v": 86
    },
    {
      "midi": 74,
      "hit": false,
      "t": 226160.48812500015,
      "d": 95.77912499997183,
      "v": 93
    },
    {
      "midi": 71,
      "hit": false,
      "t": 226186.46212500014,
      "d": 64.12331249998533,
      "v": 98
    },
    {
      "midi": 72,
      "hit": false,
      "t": 226462.4358750001,
      "d": 86.03887499999837,
      "v": 94
    },
    {
      "midi": 64,
      "hit": false,
      "t": 226462.4358750001,
      "d": 92.53237500000978,
      "v": 92
    },
    {
      "midi": 69,
      "hit": false,
      "t": 226462.4358750001,
      "d": 92.53237500000978,
      "v": 99
    },
    {
      "midi": 70,
      "hit": false,
      "t": 226748.96156250013,
      "d": 69.8051250000135,
      "v": 73
    },
    {
      "midi": 67,
      "hit": false,
      "t": 226748.96156250013,
      "d": 91.72068750002654,
      "v": 76
    },
    {
      "midi": 62,
      "hit": false,
      "t": 226748.96156250013,
      "d": 286.52568750001956,
      "v": 70
    },
    {
      "midi": 71,
      "hit": false,
      "t": 226765.19531250015,
      "d": 264.6101250000065,
      "v": 75
    },
    {
      "midi": 67,
      "hit": false,
      "t": 227046.85087500015,
      "d": 193.99331250000978,
      "v": 50
    },
    {
      "midi": 64,
      "hit": false,
      "t": 227046.85087500015,
      "d": 203.73356250001234,
      "v": 71
    },
    {
      "midi": 60,
      "hit": false,
      "t": 227046.85087500015,
      "d": 219.9673125000263,
      "v": 71
    },
    {
      "midi": 59,
      "hit": false,
      "t": 227375.58431250017,
      "d": 595.7786250000063,
      "v": 61
    },
    {
      "midi": 67,
      "hit": false,
      "t": 227378.01937500018,
      "d": 589.2851249999949,
      "v": 64
    },
    {
      "midi": 62,
      "hit": false,
      "t": 227378.01937500018,
      "d": 605.5188750000088,
      "v": 66
    },
    {
      "midi": 55,
      "hit": false,
      "t": 233571.19500000018,
      "d": 383.92818749998696,
      "v": 80
    },
    {
      "midi": 71,
      "hit": false,
      "t": 233571.19500000018,
      "d": 402.59700000000885,
      "v": 89
    },
    {
      "midi": 74,
      "hit": false,
      "t": 233571.19500000018,
      "d": 416.3956875000149,
      "v": 95
    },
    {
      "midi": 69,
      "hit": false,
      "t": 233968.92187500017,
      "d": 41.39606250001816,
      "v": 79
    },
    {
      "midi": 72,
      "hit": false,
      "t": 233972.98031250018,
      "d": 22.72725000002538,
      "v": 88
    },
    {
      "midi": 71,
      "hit": false,
      "t": 234163.7268750002,
      "d": 132.30506250000326,
      "v": 91
    },
    {
      "midi": 74,
      "hit": false,
      "t": 234163.7268750002,
      "d": 132.30506250000326,
      "v": 94
    },
    {
      "midi": 69,
      "hit": false,
      "t": 234356.0968125002,
      "d": 33.279187500011176,
      "v": 65
    },
    {
      "midi": 72,
      "hit": false,
      "t": 234356.0968125002,
      "d": 102.27262500001234,
      "v": 66
    },
    {
      "midi": 67,
      "hit": false,
      "t": 234557.39531250022,
      "d": 286.52568749999045,
      "v": 82
    },
    {
      "midi": 71,
      "hit": false,
      "t": 234557.39531250022,
      "d": 378.2463749999879,
      "v": 91
    },
    {
      "midi": 67,
      "hit": false,
      "t": 234947.0053125002,
      "d": 43.01943750001374,
      "v": 72
    },
    {
      "midi": 64,
      "hit": false,
      "t": 234947.0053125002,
      "d": 47.07787500001723,
      "v": 69
    },
    {
      "midi": 67,
      "hit": false,
      "t": 235137.75187500022,
      "d": 512.1748124999867,
      "v": 86
    },
    {
      "midi": 71,
      "hit": false,
      "t": 235137.75187500022,
      "d": 570.616312499973,
      "v": 97
    },
    {
      "midi": 67,
      "hit": false,
      "t": 235714.0500000002,
      "d": 38.961000000010245,
      "v": 86
    },
    {
      "midi": 64,
      "hit": false,
      "t": 235714.0500000002,
      "d": 43.01943750001374,
      "v": 74
    },
    {
      "midi": 71,
      "hit": false,
      "t": 236109.3418125002,
      "d": 297.07762500000536,
      "v": 81
    },
    {
      "midi": 67,
      "hit": false,
      "t": 236109.3418125002,
      "d": 313.3113750000193,
      "v": 75
    },
    {
      "midi": 69,
      "hit": false,
      "t": 236494.89337500022,
      "d": 41.39606249998906,
      "v": 81
    },
    {
      "midi": 72,
      "hit": false,
      "t": 236494.89337500022,
      "d": 65.74668749998091,
      "v": 88
    },
    {
      "midi": 71,
      "hit": false,
      "t": 236684.0165625002,
      "d": 568.9929375000065,
      "v": 86
    },
    {
      "midi": 74,
      "hit": false,
      "t": 236684.0165625002,
      "d": 574.6747500000056,
      "v": 100
    },
    {
      "midi": 69,
      "hit": false,
      "t": 237261.9380625002,
      "d": 146.91543749999255,
      "v": 78
    },
    {
      "midi": 72,
      "hit": false,
      "t": 237261.9380625002,
      "d": 157.46737499997835,
      "v": 86
    },
    {
      "midi": 71,
      "hit": false,
      "t": 237658.04156250018,
      "d": 248.37637499999255,
      "v": 78
    },
    {
      "midi": 67,
      "hit": false,
      "t": 237658.04156250018,
      "d": 249.99974999998813,
      "v": 79
    },
    {
      "midi": 64,
      "hit": false,
      "t": 238051.71000000017,
      "d": 49.51293749999604,
      "v": 83
    },
    {
      "midi": 67,
      "hit": false,
      "t": 238051.71000000017,
      "d": 71.42850000000908,
      "v": 96
    },
    {
      "midi": 67,
      "hit": false,
      "t": 238252.1968125002,
      "d": 77.92199999999139,
      "v": 92
    },
    {
      "midi": 62,
      "hit": false,
      "t": 238252.1968125002,
      "d": 222.40237500000512,
      "v": 84
    },
    {
      "midi": 62,
      "hit": false,
      "t": 238648.30031250019,
      "d": 1072.239187500003,
      "v": 79
    },
    {
      "midi": 67,
      "hit": false,
      "t": 238648.30031250019,
      "d": 1077.921000000002,
      "v": 90
    },
    {
      "midi": 71,
      "hit": false,
      "t": 238648.30031250019,
      "d": 1077.921000000002,
      "v": 93
    },
    {
      "midi": 71,
      "hit": false,
      "t": 239810.6368125002,
      "d": 402.59700000000885,
      "v": 109
    },
    {
      "midi": 74,
      "hit": false,
      "t": 239810.6368125002,
      "d": 417.20737499999814,
      "v": 107
    },
    {
      "midi": 69,
      "hit": false,
      "t": 240196.1883750002,
      "d": 41.39606249998906,
      "v": 68
    },
    {
      "midi": 72,
      "hit": false,
      "t": 240196.1883750002,
      "d": 60.06487499998184,
      "v": 63
    },
    {
      "midi": 71,
      "hit": false,
      "t": 240395.05181250017,
      "d": 211.85043749999022,
      "v": 98
    },
    {
      "midi": 74,
      "hit": false,
      "t": 240395.05181250017,
      "d": 228.0841875000042,
      "v": 91
    },
    {
      "midi": 69,
      "hit": false,
      "t": 240580.11656250016,
      "d": 47.07787500001723,
      "v": 70
    },
    {
      "midi": 72,
      "hit": false,
      "t": 240580.11656250016,
      "d": 47.07787500001723,
      "v": 74
    },
    {
      "midi": 67,
      "hit": false,
      "t": 240784.66181250018,
      "d": 299.51268750001327,
      "v": 94
    },
    {
      "midi": 71,
      "hit": false,
      "t": 240784.66181250018,
      "d": 378.246375000017,
      "v": 100
    },
    {
      "midi": 67,
      "hit": false,
      "t": 241180.7653125002,
      "d": 33.279187500011176,
      "v": 59
    },
    {
      "midi": 64,
      "hit": false,
      "t": 241180.7653125002,
      "d": 38.961000000010245,
      "v": 58
    },
    {
      "midi": 67,
      "hit": false,
      "t": 241375.57031250023,
      "d": 573.05137500001,
      "v": 103
    },
    {
      "midi": 71,
      "hit": false,
      "t": 241375.57031250023,
      "d": 585.2266874999914,
      "v": 99
    },
    {
      "midi": 67,
      "hit": false,
      "t": 241953.49181250023,
      "d": 27.597374999983003,
      "v": 85
    },
    {
      "midi": 64,
      "hit": false,
      "t": 241953.49181250023,
      "d": 163.14918749997742,
      "v": 81
    },
    {
      "midi": 71,
      "hit": false,
      "t": 242343.10181250022,
      "d": 362.012625000003,
      "v": 81
    },
    {
      "midi": 67,
      "hit": false,
      "t": 242343.10181250022,
      "d": 386.363250000024,
      "v": 90
    },
    {
      "midi": 69,
      "hit": false,
      "t": 242722.97156250023,
      "d": 37.33762500001467,
      "v": 75
    },
    {
      "midi": 72,
      "hit": false,
      "t": 242722.97156250023,
      "d": 71.42850000000908,
      "v": 78
    },
    {
      "midi": 71,
      "hit": false,
      "t": 242923.45837500025,
      "d": 547.0773749999935,
      "v": 104
    },
    {
      "midi": 74,
      "hit": false,
      "t": 242923.45837500025,
      "d": 605.5188749999797,
      "v": 95
    },
    {
      "midi": 72,
      "hit": false,
      "t": 243514.36687500024,
      "d": 124.18818749999627,
      "v": 91
    },
    {
      "midi": 69,
      "hit": false,
      "t": 243514.36687500024,
      "d": 128.24662499999977,
      "v": 86
    },
    {
      "midi": 67,
      "hit": false,
      "t": 243903.97687500023,
      "d": 268.66856250001,
      "v": 92
    },
    {
      "midi": 71,
      "hit": false,
      "t": 243903.97687500023,
      "d": 268.66856250001,
      "v": 89
    },
    {
      "midi": 64,
      "hit": false,
      "t": 244291.15181250023,
      "d": 39.77268749999348,
      "v": 97
    },
    {
      "midi": 67,
      "hit": false,
      "t": 244291.15181250023,
      "d": 69.8051249999844,
      "v": 99
    },
    {
      "midi": 67,
      "hit": false,
      "t": 244498.1321250002,
      "d": 134.74012500001118,
      "v": 99
    },
    {
      "midi": 62,
      "hit": false,
      "t": 244498.1321250002,
      "d": 210.22706250002375,
      "v": 94
    },
    {
      "midi": 59,
      "hit": false,
      "t": 244882.06031250022,
      "d": 1049.5119375000068,
      "v": 66
    },
    {
      "midi": 62,
      "hit": false,
      "t": 244882.06031250022,
      "d": 1049.5119375000068,
      "v": 70
    },
    {
      "midi": 67,
      "hit": false,
      "t": 244882.06031250022,
      "d": 1072.239187500003,
      "v": 80
    },
    {
      "midi": 69,
      "hit": false,
      "t": 246040.3383749999,
      "d": 15.42206250000163,
      "v": 60
    },
    {
      "midi": 64,
      "hit": false,
      "t": 246040.3383749999,
      "d": 25.16231250000419,
      "v": 85
    },
    {
      "midi": 62,
      "hit": false,
      "t": 246040.3383749999,
      "d": 504.05793750000885,
      "v": 101
    },
    {
      "midi": 67,
      "hit": false,
      "t": 246040.3383749999,
      "d": 514.6098749999946,
      "v": 97
    },
    {
      "midi": 71,
      "hit": false,
      "t": 246040.3383749999,
      "d": 520.2916874999937,
      "v": 89
    },
    {
      "midi": 31,
      "hit": false,
      "t": 246044.39681250023,
      "d": 1202.1091874999984,
      "v": 88
    },
    {
      "midi": 60,
      "hit": false,
      "t": 246624.7533749999,
      "d": 124.99987500000861,
      "v": 84
    },
    {
      "midi": 65,
      "hit": false,
      "t": 246624.7533749999,
      "d": 124.99987500000861,
      "v": 74
    },
    {
      "midi": 69,
      "hit": false,
      "t": 246624.7533749999,
      "d": 134.74012500001118,
      "v": 81
    },
    {
      "midi": 65,
      "hit": false,
      "t": 246819.55837499994,
      "d": 122.5648125000007,
      "v": 86
    },
    {
      "midi": 60,
      "hit": false,
      "t": 246819.55837499994,
      "d": 141.23362499999348,
      "v": 68
    },
    {
      "midi": 69,
      "hit": false,
      "t": 246819.55837499994,
      "d": 146.91543749999255,
      "v": 79
    },
    {
      "midi": 33,
      "hit": false,
      "t": 247207.54500000022,
      "d": 298.70100000000093,
      "v": 69
    },
    {
      "midi": 34,
      "hit": false,
      "t": 247597.15500000023,
      "d": 1081.9794375000056,
      "v": 88
    },
    {
      "midi": 60,
      "hit": false,
      "t": 247598.77837499994,
      "d": 482.1423750000249,
      "v": 97
    },
    {
      "midi": 69,
      "hit": false,
      "t": 247598.77837499994,
      "d": 530.8436250000377,
      "v": 89
    },
    {
      "midi": 65,
      "hit": false,
      "t": 247598.77837499994,
      "d": 534.9020625000412,
      "v": 103
    },
    {
      "midi": 67,
      "hit": false,
      "t": 247602.83681249994,
      "d": 0.81168750001234,
      "v": 61
    },
    {
      "midi": 58,
      "hit": false,
      "t": 248183.19337499997,
      "d": 130.68168750000768,
      "v": 81
    },
    {
      "midi": 63,
      "hit": false,
      "t": 248183.19337499997,
      "d": 145.29206249999697,
      "v": 74
    },
    {
      "midi": 67,
      "hit": false,
      "t": 248183.19337499997,
      "d": 157.46737500000745,
      "v": 69
    },
    {
      "midi": 63,
      "hit": false,
      "t": 248382.05681249997,
      "d": 98.21418750000885,
      "v": 74
    },
    {
      "midi": 67,
      "hit": false,
      "t": 248382.05681249997,
      "d": 146.91543750002165,
      "v": 82
    },
    {
      "midi": 58,
      "hit": false,
      "t": 248384.49187499998,
      "d": 99.83756250000442,
      "v": 83
    },
    {
      "midi": 34,
      "hit": false,
      "t": 248765.98500000025,
      "d": 197.24006250000093,
      "v": 70
    },
    {
      "midi": 36,
      "hit": false,
      "t": 248960.79000000024,
      "d": 132.30506250000326,
      "v": 72
    },
    {
      "midi": 38,
      "hit": false,
      "t": 249155.59500000023,
      "d": 773.5381875000021,
      "v": 85
    },
    {
      "midi": 65,
      "hit": false,
      "t": 249157.218375,
      "d": 495.94106250000186,
      "v": 106
    },
    {
      "midi": 60,
      "hit": false,
      "t": 249157.218375,
      "d": 514.6098749999946,
      "v": 95
    },
    {
      "midi": 67,
      "hit": false,
      "t": 249161.2768125,
      "d": 17.045437499997206,
      "v": 82
    },
    {
      "midi": 69,
      "hit": false,
      "t": 249161.2768125,
      "d": 461.85018750000745,
      "v": 85
    },
    {
      "midi": 57,
      "hit": false,
      "t": 249745.69181249998,
      "d": 134.74012500001118,
      "v": 77
    },
    {
      "midi": 60,
      "hit": false,
      "t": 249745.69181249998,
      "d": 134.74012500001118,
      "v": 77
    },
    {
      "midi": 65,
      "hit": false,
      "t": 249745.69181249998,
      "d": 153.40893750000396,
      "v": 94
    },
    {
      "midi": 43,
      "hit": false,
      "t": 249934.81500000024,
      "d": 98.21418750000885,
      "v": 70
    },
    {
      "midi": 60,
      "hit": false,
      "t": 249942.93187499998,
      "d": 128.24662499999977,
      "v": 76
    },
    {
      "midi": 57,
      "hit": false,
      "t": 249942.93187499998,
      "d": 132.30506250000326,
      "v": 65
    },
    {
      "midi": 65,
      "hit": false,
      "t": 249942.93187499998,
      "d": 164.7725625000021,
      "v": 81
    },
    {
      "midi": 33,
      "hit": false,
      "t": 250324.42500000025,
      "d": 181.00631249998696,
      "v": 71
    },
    {
      "midi": 60,
      "hit": false,
      "t": 250714.03499999997,
      "d": 530.0319374999963,
      "v": 88
    },
    {
      "midi": 69,
      "hit": false,
      "t": 250714.03499999997,
      "d": 548.7007499999891,
      "v": 84
    },
    {
      "midi": 65,
      "hit": false,
      "t": 250714.03499999997,
      "d": 564.934500000003,
      "v": 92
    },
    {
      "midi": 36,
      "hit": false,
      "t": 250714.03500000024,
      "d": 1133.1157499999972,
      "v": 81
    },
    {
      "midi": 67,
      "hit": false,
      "t": 251304.13181249998,
      "d": 88.47393750000629,
      "v": 65
    },
    {
      "midi": 58,
      "hit": false,
      "t": 251304.13181249998,
      "d": 98.21418750000885,
      "v": 74
    },
    {
      "midi": 63,
      "hit": false,
      "t": 251304.13181249998,
      "d": 110.38950000001932,
      "v": 64
    },
    {
      "midi": 63,
      "hit": false,
      "t": 251498.9368125,
      "d": 159.09075000000303,
      "v": 75
    },
    {
      "midi": 58,
      "hit": false,
      "t": 251498.9368125,
      "d": 173.70112499999232,
      "v": 74
    },
    {
      "midi": 67,
      "hit": false,
      "t": 251498.9368125,
      "d": 173.70112499999232,
      "v": 83
    },
    {
      "midi": 33,
      "hit": false,
      "t": 251882.86500000022,
      "d": 228.0841875000042,
      "v": 75
    },
    {
      "midi": 34,
      "hit": false,
      "t": 252077.67000000022,
      "d": 175.324500000017,
      "v": 76
    },
    {
      "midi": 60,
      "hit": false,
      "t": 252272.475,
      "d": 521.9150624999893,
      "v": 91
    },
    {
      "midi": 69,
      "hit": false,
      "t": 252272.475,
      "d": 521.9150624999893,
      "v": 87
    },
    {
      "midi": 65,
      "hit": false,
      "t": 252272.475,
      "d": 532.4669999999751,
      "v": 99
    },
    {
      "midi": 35,
      "hit": false,
      "t": 252272.47500000024,
      "d": 331.16849999999977,
      "v": 87
    },
    {
      "midi": 67,
      "hit": false,
      "t": 252278.1568125,
      "d": 7.305187499994645,
      "v": 61
    },
    {
      "midi": 38,
      "hit": false,
      "t": 252662.08500000022,
      "d": 163.14918750000652,
      "v": 76
    },
    {
      "midi": 62,
      "hit": false,
      "t": 252852.83156249998,
      "d": 124.18818749999627,
      "v": 77
    },
    {
      "midi": 59,
      "hit": false,
      "t": 252852.83156249998,
      "d": 134.74012499998207,
      "v": 79
    },
    {
      "midi": 67,
      "hit": false,
      "t": 252852.83156249998,
      "d": 134.74012499998207,
      "v": 77
    },
    {
      "midi": 40,
      "hit": false,
      "t": 252856.89000000022,
      "d": 126.62325000000419,
      "v": 76
    },
    {
      "midi": 43,
      "hit": false,
      "t": 253051.6950000002,
      "d": 704.5447500000009,
      "v": 80
    },
    {
      "midi": 59,
      "hit": false,
      "t": 253053.31837499997,
      "d": 625.8110624999972,
      "v": 71
    },
    {
      "midi": 62,
      "hit": false,
      "t": 253053.31837499997,
      "d": 633.9279375000042,
      "v": 84
    },
    {
      "midi": 67,
      "hit": false,
      "t": 253053.31837499997,
      "d": 670.4538750000065,
      "v": 81
    },
    {
      "midi": 67,
      "hit": false,
      "t": 253826.85656249998,
      "d": 63.311625000002095,
      "v": 106
    },
    {
      "midi": 62,
      "hit": false,
      "t": 253826.85656249998,
      "d": 69.8051250000135,
      "v": 94
    },
    {
      "midi": 70,
      "hit": false,
      "t": 253826.85656249998,
      "d": 152.59725000002072,
      "v": 99
    },
    {
      "midi": 36,
      "hit": false,
      "t": 253830.9150000002,
      "d": 379.8697500000126,
      "v": 82
    },
    {
      "midi": 38,
      "hit": false,
      "t": 254220.52500000023,
      "d": 201.29850000000442,
      "v": 75
    },
    {
      "midi": 60,
      "hit": false,
      "t": 254415.33,
      "d": 1305.193499999994,
      "v": 88
    },
    {
      "midi": 65,
      "hit": false,
      "t": 254415.33,
      "d": 1305.193499999994,
      "v": 103
    },
    {
      "midi": 69,
      "hit": false,
      "t": 254415.33,
      "d": 1305.193499999994,
      "v": 95
    },
    {
      "midi": 39,
      "hit": false,
      "t": 254415.33000000022,
      "d": 915.5835000000079,
      "v": 82
    },
    {
      "midi": 31,
      "hit": false,
      "t": 255778.96500000023,
      "d": 233.76600000000326,
      "v": 71
    },
    {
      "midi": 59,
      "hit": false,
      "t": 255780.588375,
      "d": 112.82456249999814,
      "v": 84
    },
    {
      "midi": 62,
      "hit": false,
      "t": 255780.588375,
      "d": 112.82456249999814,
      "v": 81
    },
    {
      "midi": 67,
      "hit": false,
      "t": 255780.588375,
      "d": 177.7595624999958,
      "v": 80
    },
    {
      "midi": 35,
      "hit": false,
      "t": 256168.57500000024,
      "d": 237.82443750000675,
      "v": 75
    },
    {
      "midi": 67,
      "hit": false,
      "t": 256170.19837499998,
      "d": 118.5063749999972,
      "v": 81
    },
    {
      "midi": 62,
      "hit": false,
      "t": 256170.19837499998,
      "d": 138.79856249998556,
      "v": 70
    },
    {
      "midi": 70,
      "hit": false,
      "t": 256170.19837499998,
      "d": 145.29206249999697,
      "v": 95
    },
    {
      "midi": 59,
      "hit": false,
      "t": 256550.06812499996,
      "d": 150.97387500002515,
      "v": 70
    },
    {
      "midi": 67,
      "hit": false,
      "t": 256550.06812499996,
      "d": 160.7141250000277,
      "v": 79
    },
    {
      "midi": 62,
      "hit": false,
      "t": 256554.12656249997,
      "d": 130.68168750000768,
      "v": 77
    },
    {
      "midi": 36,
      "hit": false,
      "t": 256558.18500000026,
      "d": 224.0257500000007,
      "v": 67
    },
    {
      "midi": 59,
      "hit": false,
      "t": 256748.9315625,
      "d": 232.14262500000768,
      "v": 58
    },
    {
      "midi": 62,
      "hit": false,
      "t": 256748.9315625,
      "d": 232.14262500000768,
      "v": 65
    },
    {
      "midi": 67,
      "hit": false,
      "t": 256748.9315625,
      "d": 237.82443750000675,
      "v": 68
    },
    {
      "midi": 38,
      "hit": false,
      "t": 256752.99000000025,
      "d": 181.00631250001607,
      "v": 71
    },
    {
      "midi": 31,
      "hit": false,
      "t": 256947.79500000027,
      "d": 233.76600000000326,
      "v": 76
    },
    {
      "midi": 33,
      "hit": false,
      "t": 257142.60000000027,
      "d": 197.24006250003004,
      "v": 74
    },
    {
      "midi": 36,
      "hit": false,
      "t": 257337.4050000003,
      "d": 1357.9531875000102,
      "v": 84
    },
    {
      "midi": 55,
      "hit": false,
      "t": 258506.235,
      "d": 970.778250000003,
      "v": 96
    },
    {
      "midi": 59,
      "hit": false,
      "t": 258511.91681249999,
      "d": 1342.5311249999795,
      "v": 96
    },
    {
      "midi": 62,
      "hit": false,
      "t": 258514.351875,
      "d": 1340.0960624999716,
      "v": 99
    },
    {
      "midi": 55,
      "hit": false,
      "t": 259481.88337499998,
      "d": 37.337624999985565,
      "v": 42
    },
    {
      "midi": 60,
      "hit": false,
      "t": 259676.68837499997,
      "d": 222.40237500000512,
      "v": 110
    },
    {
      "midi": 62,
      "hit": false,
      "t": 259865.81156249996,
      "d": 112.0128750000149,
      "v": 70
    },
    {
      "midi": 60,
      "hit": false,
      "t": 260060.61656249998,
      "d": 504.05793750000885,
      "v": 90
    },
    {
      "midi": 62,
      "hit": false,
      "t": 260060.61656249998,
      "d": 504.05793750000885,
      "v": 84
    },
    {
      "midi": 53,
      "hit": false,
      "t": 260060.61656249998,
      "d": 654.2201249999925,
      "v": 85
    },
    {
      "midi": 65,
      "hit": false,
      "t": 260066.29837499998,
      "d": 706.9798124999797,
      "v": 110
    },
    {
      "midi": 62,
      "hit": false,
      "t": 260645.0315625,
      "d": 102.27262499998324,
      "v": 66
    },
    {
      "midi": 60,
      "hit": false,
      "t": 260650.713375,
      "d": 37.337624999985565,
      "v": 56
    },
    {
      "midi": 62,
      "hit": false,
      "t": 261034.64156249995,
      "d": 75.48693750001257,
      "v": 60
    },
    {
      "midi": 60,
      "hit": false,
      "t": 261040.32337499995,
      "d": 65.74668750001001,
      "v": 66
    },
    {
      "midi": 53,
      "hit": false,
      "t": 261040.32337499995,
      "d": 80.3570624999993,
      "v": 62
    },
    {
      "midi": 65,
      "hit": false,
      "t": 261040.32337499995,
      "d": 90.09731250000186,
      "v": 79
    },
    {
      "midi": 53,
      "hit": false,
      "t": 261624.73837499996,
      "d": 92.53237500000978,
      "v": 80
    },
    {
      "midi": 60,
      "hit": false,
      "t": 261624.73837499996,
      "d": 96.59081250001327,
      "v": 72
    },
    {
      "midi": 62,
      "hit": false,
      "t": 261624.73837499996,
      "d": 102.27262500001234,
      "v": 76
    },
    {
      "midi": 65,
      "hit": false,
      "t": 261624.73837499996,
      "d": 112.82456249999814,
      "v": 81
    },
    {
      "midi": 53,
      "hit": false,
      "t": 262209.15337499994,
      "d": 179.3829375000205,
      "v": 85
    },
    {
      "midi": 62,
      "hit": false,
      "t": 262209.15337499994,
      "d": 183.44137499999488,
      "v": 77
    },
    {
      "midi": 60,
      "hit": false,
      "t": 262209.15337499994,
      "d": 189.93487499997718,
      "v": 82
    },
    {
      "midi": 65,
      "hit": false,
      "t": 262209.15337499994,
      "d": 189.93487499997718,
      "v": 72
    },
    {
      "midi": 62,
      "hit": false,
      "t": 262797.6268124999,
      "d": 21.103874999971595,
      "v": 66
    },
    {
      "midi": 60,
      "hit": false,
      "t": 262797.6268124999,
      "d": 179.38293749996228,
      "v": 110
    },
    {
      "midi": 62,
      "hit": false,
      "t": 262986.7499999998,
      "d": 107.9544374999823,
      "v": 72
    },
    {
      "midi": 31,
      "hit": false,
      "t": 263181.5550000003,
      "d": 1544.6413124999963,
      "v": 98
    },
    {
      "midi": 60,
      "hit": false,
      "t": 263183.1783749998,
      "d": 463.4735624999739,
      "v": 105
    },
    {
      "midi": 62,
      "hit": false,
      "t": 263183.1783749998,
      "d": 475.6488749999553,
      "v": 89
    },
    {
      "midi": 53,
      "hit": false,
      "t": 263183.1783749998,
      "d": 715.0966874999576,
      "v": 88
    },
    {
      "midi": 65,
      "hit": false,
      "t": 263183.1783749998,
      "d": 762.1745624999749,
      "v": 110
    },
    {
      "midi": 62,
      "hit": false,
      "t": 263767.59337499976,
      "d": 81.98043749999488,
      "v": 75
    },
    {
      "midi": 53,
      "hit": false,
      "t": 263966.45681249973,
      "d": 45.45449999999255,
      "v": 25
    },
    {
      "midi": 60,
      "hit": false,
      "t": 264157.2033749997,
      "d": 65.74668749998091,
      "v": 74
    },
    {
      "midi": 62,
      "hit": false,
      "t": 264157.2033749997,
      "d": 65.74668749998091,
      "v": 74
    },
    {
      "midi": 53,
      "hit": false,
      "t": 264157.2033749997,
      "d": 134.74012499995297,
      "v": 64
    },
    {
      "midi": 35,
      "hit": false,
      "t": 264739.9950000003,
      "d": 3081.1657499999856,
      "v": 108
    },
    {
      "midi": 59,
      "hit": false,
      "t": 264741.6183749996,
      "d": 76.29862499999581,
      "v": 65
    },
    {
      "midi": 62,
      "hit": false,
      "t": 264741.6183749996,
      "d": 76.29862499999581,
      "v": 73
    },
    {
      "midi": 55,
      "hit": false,
      "t": 264741.6183749996,
      "d": 195.61668749997625,
      "v": 67
    },
    {
      "midi": 59,
      "hit": false,
      "t": 265320.35156249965,
      "d": 120.12975000002189,
      "v": 60
    },
    {
      "midi": 55,
      "hit": false,
      "t": 265320.35156249965,
      "d": 140.42193750001024,
      "v": 50
    },
    {
      "midi": 62,
      "hit": false,
      "t": 265320.35156249965,
      "d": 156.65568750002421,
      "v": 64
    },
    {
      "midi": 55,
      "hit": false,
      "t": 265709.9615624997,
      "d": 47.07787500001723,
      "v": 46
    },
    {
      "midi": 60,
      "hit": false,
      "t": 265910.4483749997,
      "d": 171.2660625000135,
      "v": 115
    },
    {
      "midi": 62,
      "hit": false,
      "t": 266105.2533749997,
      "d": 98.21418750000885,
      "v": 46
    },
    {
      "midi": 60,
      "hit": false,
      "t": 266300.0583749997,
      "d": 465.90862499998184,
      "v": 81
    },
    {
      "midi": 62,
      "hit": false,
      "t": 266300.0583749997,
      "d": 465.90862499998184,
      "v": 83
    },
    {
      "midi": 53,
      "hit": false,
      "t": 266300.0583749997,
      "d": 686.6876249999623,
      "v": 72
    },
    {
      "midi": 65,
      "hit": false,
      "t": 266300.0583749997,
      "d": 723.2135624999646,
      "v": 105
    },
    {
      "midi": 62,
      "hit": false,
      "t": 266878.79156249965,
      "d": 112.0128749999567,
      "v": 76
    },
    {
      "midi": 60,
      "hit": false,
      "t": 267268.40156249964,
      "d": 69.8051250000135,
      "v": 72
    },
    {
      "midi": 62,
      "hit": false,
      "t": 267268.40156249964,
      "d": 69.8051250000135,
      "v": 74
    },
    {
      "midi": 65,
      "hit": false,
      "t": 267268.40156249964,
      "d": 71.42850000003818,
      "v": 73
    },
    {
      "midi": 53,
      "hit": false,
      "t": 267268.40156249964,
      "d": 98.21418750006706,
      "v": 65
    },
    {
      "midi": 60,
      "hit": false,
      "t": 267856.8749999997,
      "d": 65.74668750003912,
      "v": 71
    },
    {
      "midi": 62,
      "hit": false,
      "t": 267856.8749999997,
      "d": 67.3700625000638,
      "v": 76
    },
    {
      "midi": 36,
      "hit": false,
      "t": 267856.8750000003,
      "d": 1818.9916874999763,
      "v": 101
    },
    {
      "midi": 53,
      "hit": false,
      "t": 267858.49837499973,
      "d": 69.8051250000135,
      "v": 60
    },
    {
      "midi": 65,
      "hit": false,
      "t": 267858.49837499973,
      "d": 73.86356249998789,
      "v": 79
    },
    {
      "midi": 62,
      "hit": false,
      "t": 268437.2315624997,
      "d": 87.66224999999395,
      "v": 62
    },
    {
      "midi": 60,
      "hit": false,
      "t": 268441.2899999997,
      "d": 83.60381250001956,
      "v": 60
    },
    {
      "midi": 65,
      "hit": false,
      "t": 268442.9133749997,
      "d": 86.03887499996927,
      "v": 79
    },
    {
      "midi": 53,
      "hit": false,
      "t": 268442.9133749997,
      "d": 96.59081249998417,
      "v": 56
    },
    {
      "midi": 53,
      "hit": false,
      "t": 268832.5233749997,
      "d": 41.39606250001816,
      "v": 50
    },
    {
      "midi": 60,
      "hit": false,
      "t": 269027.3283749997,
      "d": 134.74012499995297,
      "v": 115
    },
    {
      "midi": 62,
      "hit": false,
      "t": 269031.38681249967,
      "d": 11.363624999998137,
      "v": 69
    },
    {
      "midi": 62,
      "hit": false,
      "t": 269216.4515624996,
      "d": 114.44793750002282,
      "v": 83
    },
    {
      "midi": 60,
      "hit": false,
      "t": 269416.9383749997,
      "d": 431.0060625000042,
      "v": 111
    },
    {
      "midi": 62,
      "hit": false,
      "t": 269416.9383749997,
      "d": 439.1229375000112,
      "v": 96
    },
    {
      "midi": 53,
      "hit": false,
      "t": 269416.9383749997,
      "d": 650.1616875000764,
      "v": 88
    },
    {
      "midi": 65,
      "hit": false,
      "t": 269416.9383749997,
      "d": 796.2654375000857,
      "v": 123
    },
    {
      "midi": 62,
      "hit": false,
      "t": 269995.6715624997,
      "d": 69.8051250000135,
      "v": 81
    },
    {
      "midi": 60,
      "hit": false,
      "t": 270385.28156249976,
      "d": 86.03887500002747,
      "v": 86
    },
    {
      "midi": 55,
      "hit": false,
      "t": 270385.28156249976,
      "d": 91.72068750002654,
      "v": 74
    },
    {
      "midi": 62,
      "hit": false,
      "t": 270385.28156249976,
      "d": 91.72068750002654,
      "v": 89
    },
    {
      "midi": 31,
      "hit": false,
      "t": 270973.7549999998,
      "d": 189.12318749999395,
      "v": 111
    },
    {
      "midi": 59,
      "hit": false,
      "t": 270975.37837500026,
      "d": 469.96706250001444,
      "v": 100
    },
    {
      "midi": 62,
      "hit": false,
      "t": 270975.37837500026,
      "d": 469.96706250001444,
      "v": 107
    },
    {
      "midi": 67,
      "hit": false,
      "t": 270975.37837500026,
      "d": 486.2008125000284,
      "v": 115
    },
    {
      "midi": 62,
      "hit": false,
      "t": 271554.1115625003,
      "d": 43.01943749998463,
      "v": 96
    },
    {
      "midi": 59,
      "hit": false,
      "t": 271554.1115625003,
      "d": 69.8051250000135,
      "v": 89
    },
    {
      "midi": 69,
      "hit": false,
      "t": 271554.1115625003,
      "d": 150.97387500002515,
      "v": 94
    },
    {
      "midi": 62,
      "hit": false,
      "t": 271949.40337500034,
      "d": 106.33106250001583,
      "v": 89
    },
    {
      "midi": 67,
      "hit": false,
      "t": 271949.40337500034,
      "d": 112.82456249999814,
      "v": 102
    },
    {
      "midi": 59,
      "hit": false,
      "t": 271949.40337500034,
      "d": 114.44793749996461,
      "v": 79
    },
    {
      "midi": 55,
      "hit": false,
      "t": 272533.8183750003,
      "d": 508.11637499998324,
      "v": 109
    },
    {
      "midi": 59,
      "hit": false,
      "t": 272533.8183750003,
      "d": 518.6683124999981,
      "v": 107
    },
    {
      "midi": 57,
      "hit": false,
      "t": 273118.2333750003,
      "d": 47.889562500000466,
      "v": 86
    },
    {
      "midi": 60,
      "hit": false,
      "t": 273118.2333750003,
      "d": 80.3570625000284,
      "v": 88
    },
    {
      "midi": 55,
      "hit": false,
      "t": 273118.2333750003,
      "d": 114.44793750002282,
      "v": 85
    },
    {
      "midi": 59,
      "hit": false,
      "t": 273507.84337500035,
      "d": 64.12331250001444,
      "v": 77
    },
    {
      "midi": 55,
      "hit": false,
      "t": 273507.84337500035,
      "d": 106.33106250001583,
      "v": 76
    },
    {
      "midi": 62,
      "hit": false,
      "t": 273507.84337500035,
      "d": 122.5648125000298,
      "v": 80
    },
    {
      "midi": 69,
      "hit": false,
      "t": 274092.2583750004,
      "d": 544.6423124999856,
      "v": 101
    },
    {
      "midi": 57,
      "hit": false,
      "t": 274096.31681250036,
      "d": 508.11637499998324,
      "v": 91
    },
    {
      "midi": 66,
      "hit": false,
      "t": 274096.31681250036,
      "d": 532.4670000000042,
      "v": 98
    },
    {
      "midi": 62,
      "hit": false,
      "t": 274096.31681250036,
      "d": 548.7007500000182,
      "v": 96
    },
    {
      "midi": 62,
      "hit": false,
      "t": 275060.60156250035,
      "d": 536.5254375000368,
      "v": 96
    },
    {
      "midi": 65,
      "hit": false,
      "t": 275060.60156250035,
      "d": 552.7591875000508,
      "v": 94
    },
    {
      "midi": 59,
      "hit": false,
      "t": 275060.60156250035,
      "d": 568.9929375000647,
      "v": 98
    },
    {
      "midi": 70,
      "hit": false,
      "t": 275060.60156250035,
      "d": 601.4604375000927,
      "v": 89
    },
    {
      "midi": 64,
      "hit": false,
      "t": 275845.50337500044,
      "d": 124.99987500003772,
      "v": 98
    },
    {
      "midi": 67,
      "hit": false,
      "t": 275845.50337500044,
      "d": 163.14918750006473,
      "v": 92
    },
    {
      "midi": 57,
      "hit": false,
      "t": 275845.50337500044,
      "d": 260.55168750003213,
      "v": 92
    },
    {
      "midi": 69,
      "hit": false,
      "t": 276044.3668125005,
      "d": 21.103874999971595,
      "v": 64
    },
    {
      "midi": 62,
      "hit": false,
      "t": 276044.3668125005,
      "d": 56.00643749994924,
      "v": 98
    },
    {
      "midi": 66,
      "hit": false,
      "t": 276044.3668125005,
      "d": 60.06487499992363,
      "v": 89
    },
    {
      "midi": 62,
      "hit": false,
      "t": 277207.5150000005,
      "d": 525.9735000000219,
      "v": 113
    },
    {
      "midi": 67,
      "hit": false,
      "t": 277207.5150000005,
      "d": 525.9735000000219,
      "v": 111
    },
    {
      "midi": 59,
      "hit": false,
      "t": 277207.5150000005,
      "d": 532.4670000000042,
      "v": 111
    },
    {
      "midi": 62,
      "hit": false,
      "t": 277793.5533750005,
      "d": 43.83112500002608,
      "v": 103
    },
    {
      "midi": 59,
      "hit": false,
      "t": 277793.5533750005,
      "d": 64.12331250001444,
      "v": 103
    },
    {
      "midi": 69,
      "hit": false,
      "t": 277793.5533750005,
      "d": 80.3570625000284,
      "v": 111
    },
    {
      "midi": 62,
      "hit": false,
      "t": 278183.1633750005,
      "d": 43.83112500002608,
      "v": 94
    },
    {
      "midi": 59,
      "hit": false,
      "t": 278183.1633750005,
      "d": 60.06487500004005,
      "v": 88
    },
    {
      "midi": 67,
      "hit": false,
      "t": 278183.1633750005,
      "d": 76.29862500005402,
      "v": 91
    },
    {
      "midi": 55,
      "hit": false,
      "t": 278767.57837500056,
      "d": 491.8826250000275,
      "v": 99
    },
    {
      "midi": 60,
      "hit": false,
      "t": 278767.57837500056,
      "d": 491.8826250000275,
      "v": 104
    },
    {
      "midi": 64,
      "hit": false,
      "t": 278767.57837500056,
      "d": 491.8826250000275,
      "v": 111
    },
    {
      "midi": 64,
      "hit": false,
      "t": 279350.3700000006,
      "d": 77.92200000002049,
      "v": 96
    },
    {
      "midi": 55,
      "hit": false,
      "t": 279351.9933750006,
      "d": 4.8701250000158325,
      "v": 69
    },
    {
      "midi": 67,
      "hit": false,
      "t": 279351.9933750006,
      "d": 80.3570624999702,
      "v": 99
    },
    {
      "midi": 60,
      "hit": false,
      "t": 279741.6033750006,
      "d": 69.8051250000135,
      "v": 98
    },
    {
      "midi": 64,
      "hit": false,
      "t": 279741.6033750006,
      "d": 86.03887500002747,
      "v": 96
    },
    {
      "midi": 55,
      "hit": false,
      "t": 279741.6033750006,
      "d": 90.09731250000186,
      "v": 91
    },
    {
      "midi": 55,
      "hit": false,
      "t": 280326.01837500057,
      "d": 1648.5373125000042,
      "v": 86
    },
    {
      "midi": 60,
      "hit": false,
      "t": 280326.01837500057,
      "d": 1655.0308124999865,
      "v": 106
    },
    {
      "midi": 67,
      "hit": false,
      "t": 280326.01837500057,
      "d": 1672.887937499967,
      "v": 106
    },
    {
      "midi": 64,
      "hit": false,
      "t": 280326.01837500057,
      "d": 1681.004812499974,
      "v": 106
    },
    {
      "midi": 64,
      "hit": false,
      "t": 282077.64000000054,
      "d": 12.987000000022817,
      "v": 64
    },
    {
      "midi": 67,
      "hit": false,
      "t": 282077.64000000054,
      "d": 140.42193750006845,
      "v": 86
    },
    {
      "midi": 55,
      "hit": false,
      "t": 282077.64000000054,
      "d": 168.8310000000638,
      "v": 83
    },
    {
      "midi": 60,
      "hit": false,
      "t": 282079.26337500056,
      "d": 49.512937500025146,
      "v": 91
    },
    {
      "midi": 62,
      "hit": false,
      "t": 282274.0683750006,
      "d": 37.337624999985565,
      "v": 74
    },
    {
      "midi": 55,
      "hit": false,
      "t": 282274.0683750006,
      "d": 49.512937500025146,
      "v": 61
    },
    {
      "midi": 67,
      "hit": false,
      "t": 282274.0683750006,
      "d": 73.8635625000461,
      "v": 83
    },
    {
      "midi": 60,
      "hit": false,
      "t": 282278.1268125006,
      "d": 43.83112500002608,
      "v": 72
    },
    {
      "midi": 60,
      "hit": false,
      "t": 282663.67837500066,
      "d": 49.512937500025146,
      "v": 85
    },
    {
      "midi": 55,
      "hit": false,
      "t": 282663.67837500066,
      "d": 69.8051250000135,
      "v": 69
    },
    {
      "midi": 67,
      "hit": false,
      "t": 282663.67837500066,
      "d": 80.3570625000284,
      "v": 85
    },
    {
      "midi": 60,
      "hit": false,
      "t": 283051.6650000007,
      "d": 293.01918750006007,
      "v": 79
    },
    {
      "midi": 67,
      "hit": false,
      "t": 283051.6650000007,
      "d": 309.25293750007404,
      "v": 76
    },
    {
      "midi": 55,
      "hit": false,
      "t": 283051.6650000007,
      "d": 318.9931875000475,
      "v": 73
    },
    {
      "midi": 62,
      "hit": false,
      "t": 283053.2883750007,
      "d": 280.8438750000205,
      "v": 79
    },
    {
      "midi": 59,
      "hit": false,
      "t": 283442.89837500075,
      "d": 469.96706250001444,
      "v": 94
    },
    {
      "midi": 62,
      "hit": false,
      "t": 283442.89837500075,
      "d": 469.96706250001444,
      "v": 101
    },
    {
      "midi": 67,
      "hit": false,
      "t": 283442.89837500075,
      "d": 486.2008125000284,
      "v": 108
    },
    {
      "midi": 62,
      "hit": false,
      "t": 284021.6315625007,
      "d": 43.01943749998463,
      "v": 91
    },
    {
      "midi": 59,
      "hit": false,
      "t": 284021.6315625007,
      "d": 69.8051250000135,
      "v": 85
    },
    {
      "midi": 69,
      "hit": false,
      "t": 284021.6315625007,
      "d": 150.97387500002515,
      "v": 89
    },
    {
      "midi": 62,
      "hit": false,
      "t": 284416.92337500077,
      "d": 106.33106250001583,
      "v": 85
    },
    {
      "midi": 67,
      "hit": false,
      "t": 284416.92337500077,
      "d": 112.82456249999814,
      "v": 98
    },
    {
      "midi": 59,
      "hit": false,
      "t": 284416.92337500077,
      "d": 114.44793749996461,
      "v": 76
    },
    {
      "midi": 55,
      "hit": false,
      "t": 285001.33837500075,
      "d": 508.11637499998324,
      "v": 106
    },
    {
      "midi": 59,
      "hit": false,
      "t": 285001.33837500075,
      "d": 518.6683124999981,
      "v": 104
    },
    {
      "midi": 57,
      "hit": false,
      "t": 285585.7533750007,
      "d": 47.889562500000466,
      "v": 86
    },
    {
      "midi": 60,
      "hit": false,
      "t": 285585.7533750007,
      "d": 80.3570625000284,
      "v": 88
    },
    {
      "midi": 55,
      "hit": false,
      "t": 285585.7533750007,
      "d": 114.44793750002282,
      "v": 85
    },
    {
      "midi": 59,
      "hit": false,
      "t": 285975.3633750008,
      "d": 64.12331250001444,
      "v": 77
    },
    {
      "midi": 55,
      "hit": false,
      "t": 285975.3633750008,
      "d": 106.33106250001583,
      "v": 76
    },
    {
      "midi": 69,
      "hit": false,
      "t": 286559.77837500075,
      "d": 544.6423124999856,
      "v": 101
    },
    {
      "midi": 57,
      "hit": false,
      "t": 286563.8368125007,
      "d": 508.11637499998324,
      "v": 91
    },
    {
      "midi": 66,
      "hit": false,
      "t": 286563.8368125007,
      "d": 532.4670000000042,
      "v": 98
    },
    {
      "midi": 62,
      "hit": false,
      "t": 286563.8368125007,
      "d": 548.7007500000182,
      "v": 96
    },
    {
      "midi": 86,
      "hit": false,
      "t": 287515.94624999975,
      "d": 903.4081875000265,
      "v": 111
    },
    {
      "midi": 62,
      "hit": false,
      "t": 287528.1215625007,
      "d": 536.5254375000368,
      "v": 96
    },
    {
      "midi": 65,
      "hit": false,
      "t": 287528.1215625007,
      "d": 552.7591875000508,
      "v": 94
    },
    {
      "midi": 59,
      "hit": false,
      "t": 287528.1215625007,
      "d": 568.9929375000647,
      "v": 98
    },
    {
      "midi": 70,
      "hit": false,
      "t": 287528.1215625007,
      "d": 601.4604375000927,
      "v": 89
    },
    {
      "midi": 64,
      "hit": false,
      "t": 288313.0233750008,
      "d": 124.99987500003772,
      "v": 98
    },
    {
      "midi": 67,
      "hit": false,
      "t": 288313.0233750008,
      "d": 163.14918750006473,
      "v": 92
    },
    {
      "midi": 57,
      "hit": false,
      "t": 288313.0233750008,
      "d": 260.55168750003213,
      "v": 92
    },
    {
      "midi": 69,
      "hit": false,
      "t": 288511.8868125009,
      "d": 21.103874999971595,
      "v": 64
    },
    {
      "midi": 62,
      "hit": false,
      "t": 288511.8868125009,
      "d": 56.00643749994924,
      "v": 98
    },
    {
      "midi": 66,
      "hit": false,
      "t": 288511.8868125009,
      "d": 60.06487499992363,
      "v": 89
    },
    {
      "midi": 62,
      "hit": false,
      "t": 289675.03500000085,
      "d": 525.9735000000219,
      "v": 113
    },
    {
      "midi": 67,
      "hit": false,
      "t": 289675.03500000085,
      "d": 525.9735000000219,
      "v": 101
    },
    {
      "midi": 59,
      "hit": false,
      "t": 289675.03500000085,
      "d": 532.4670000000042,
      "v": 111
    },
    {
      "midi": 62,
      "hit": false,
      "t": 290261.07337500085,
      "d": 43.83112500002608,
      "v": 89
    },
    {
      "midi": 59,
      "hit": false,
      "t": 290261.07337500085,
      "d": 64.12331250001444,
      "v": 83
    },
    {
      "midi": 69,
      "hit": false,
      "t": 290261.07337500085,
      "d": 80.3570625000284,
      "v": 116
    },
    {
      "midi": 62,
      "hit": false,
      "t": 290650.6833750009,
      "d": 43.83112500002608,
      "v": 94
    },
    {
      "midi": 59,
      "hit": false,
      "t": 290650.6833750009,
      "d": 60.06487500004005,
      "v": 88
    },
    {
      "midi": 67,
      "hit": false,
      "t": 290650.6833750009,
      "d": 76.29862500005402,
      "v": 91
    },
    {
      "midi": 55,
      "hit": false,
      "t": 291235.09837500093,
      "d": 491.8826250000275,
      "v": 99
    },
    {
      "midi": 60,
      "hit": false,
      "t": 291235.09837500093,
      "d": 491.8826250000275,
      "v": 104
    },
    {
      "midi": 64,
      "hit": false,
      "t": 291235.09837500093,
      "d": 491.8826250000275,
      "v": 111
    },
    {
      "midi": 64,
      "hit": false,
      "t": 291817.89000000095,
      "d": 77.92200000002049,
      "v": 96
    },
    {
      "midi": 55,
      "hit": false,
      "t": 291819.51337500097,
      "d": 4.8701250000158325,
      "v": 69
    },
    {
      "midi": 67,
      "hit": false,
      "t": 291819.51337500097,
      "d": 80.3570624999702,
      "v": 99
    },
    {
      "midi": 60,
      "hit": false,
      "t": 292209.12337500096,
      "d": 69.8051250000135,
      "v": 98
    },
    {
      "midi": 64,
      "hit": false,
      "t": 292209.12337500096,
      "d": 86.03887500002747,
      "v": 96
    },
    {
      "midi": 55,
      "hit": false,
      "t": 292209.12337500096,
      "d": 90.09731250000186,
      "v": 91
    },
    {
      "midi": 71,
      "hit": false,
      "t": 292791.91499999975,
      "d": 1909.9006875000196,
      "v": 69
    },
    {
      "midi": 74,
      "hit": false,
      "t": 292791.91499999975,
      "d": 1909.9006875000196,
      "v": 77
    },
    {
      "midi": 78,
      "hit": false,
      "t": 292791.91499999975,
      "d": 1918.0175625000265,
      "v": 66
    },
    {
      "midi": 55,
      "hit": false,
      "t": 292793.53837500094,
      "d": 1648.5373125000042,
      "v": 86
    },
    {
      "midi": 60,
      "hit": false,
      "t": 292793.53837500094,
      "d": 1655.0308124999865,
      "v": 106
    },
    {
      "midi": 67,
      "hit": false,
      "t": 292793.53837500094,
      "d": 1672.887937499967,
      "v": 106
    },
    {
      "midi": 64,
      "hit": false,
      "t": 292793.53837500094,
      "d": 1681.004812499974,
      "v": 106
    },
    {
      "midi": 86,
      "hit": false,
      "t": 293794.34906249976,
      "d": 903.4081875000265,
      "v": 94
    },
    {
      "midi": 64,
      "hit": false,
      "t": 294545.1600000009,
      "d": 12.987000000022817,
      "v": 66
    },
    {
      "midi": 67,
      "hit": false,
      "t": 294545.1600000009,
      "d": 140.42193750006845,
      "v": 89
    },
    {
      "midi": 55,
      "hit": false,
      "t": 294545.1600000009,
      "d": 168.8310000000638,
      "v": 86
    },
    {
      "midi": 60,
      "hit": false,
      "t": 294546.78337500093,
      "d": 49.512937500025146,
      "v": 94
    },
    {
      "midi": 62,
      "hit": false,
      "t": 294741.588375001,
      "d": 37.337624999985565,
      "v": 76
    },
    {
      "midi": 55,
      "hit": false,
      "t": 294741.588375001,
      "d": 49.512937500025146,
      "v": 63
    },
    {
      "midi": 67,
      "hit": false,
      "t": 294741.588375001,
      "d": 73.8635625000461,
      "v": 86
    },
    {
      "midi": 60,
      "hit": false,
      "t": 294745.64681250096,
      "d": 43.83112500002608,
      "v": 74
    },
    {
      "midi": 60,
      "hit": false,
      "t": 295131.198375001,
      "d": 49.512937500025146,
      "v": 88
    },
    {
      "midi": 55,
      "hit": false,
      "t": 295131.198375001,
      "d": 69.8051250000135,
      "v": 71
    },
    {
      "midi": 67,
      "hit": false,
      "t": 295131.198375001,
      "d": 80.3570625000284,
      "v": 88
    },
    {
      "midi": 60,
      "hit": false,
      "t": 295519.18500000105,
      "d": 293.01918750006007,
      "v": 82
    },
    {
      "midi": 67,
      "hit": false,
      "t": 295519.18500000105,
      "d": 309.25293750007404,
      "v": 78
    },
    {
      "midi": 55,
      "hit": false,
      "t": 295519.18500000105,
      "d": 318.9931875000475,
      "v": 75
    },
    {
      "midi": 62,
      "hit": false,
      "t": 295520.80837500107,
      "d": 280.8438750000205,
      "v": 82
    },
    {
      "midi": 59,
      "hit": false,
      "t": 295910.4183750011,
      "d": 469.96706250001444,
      "v": 97
    },
    {
      "midi": 62,
      "hit": false,
      "t": 295910.4183750011,
      "d": 469.96706250001444,
      "v": 104
    },
    {
      "midi": 67,
      "hit": false,
      "t": 295910.4183750011,
      "d": 486.2008125000284,
      "v": 112
    },
    {
      "midi": 62,
      "hit": false,
      "t": 296489.15156250115,
      "d": 43.01943749998463,
      "v": 94
    },
    {
      "midi": 59,
      "hit": false,
      "t": 296489.15156250115,
      "d": 69.8051250000135,
      "v": 88
    },
    {
      "midi": 69,
      "hit": false,
      "t": 296489.15156250115,
      "d": 150.97387500002515,
      "v": 92
    },
    {
      "midi": 62,
      "hit": false,
      "t": 296884.4433750012,
      "d": 106.33106250001583,
      "v": 88
    },
    {
      "midi": 67,
      "hit": false,
      "t": 296884.4433750012,
      "d": 112.82456249999814,
      "v": 101
    },
    {
      "midi": 59,
      "hit": false,
      "t": 296884.4433750012,
      "d": 114.44793749996461,
      "v": 78
    },
    {
      "midi": 55,
      "hit": false,
      "t": 297468.8583750012,
      "d": 508.11637499998324,
      "v": 110
    },
    {
      "midi": 59,
      "hit": false,
      "t": 297468.8583750012,
      "d": 518.6683124999981,
      "v": 108
    },
    {
      "midi": 57,
      "hit": false,
      "t": 298053.27337500115,
      "d": 47.889562500000466,
      "v": 89
    },
    {
      "midi": 60,
      "hit": false,
      "t": 298053.27337500115,
      "d": 80.3570625000284,
      "v": 91
    },
    {
      "midi": 55,
      "hit": false,
      "t": 298053.27337500115,
      "d": 114.44793750002282,
      "v": 88
    },
    {
      "midi": 59,
      "hit": false,
      "t": 298442.8833750012,
      "d": 64.12331250001444,
      "v": 80
    },
    {
      "midi": 55,
      "hit": false,
      "t": 298442.8833750012,
      "d": 106.33106250001583,
      "v": 78
    },
    {
      "midi": 62,
      "hit": false,
      "t": 298442.8833750012,
      "d": 122.5648125000298,
      "v": 83
    },
    {
      "midi": 69,
      "hit": false,
      "t": 299027.29837500124,
      "d": 544.6423124999856,
      "v": 103
    },
    {
      "midi": 57,
      "hit": false,
      "t": 299031.3568125012,
      "d": 508.11637499998324,
      "v": 93
    },
    {
      "midi": 66,
      "hit": false,
      "t": 299031.3568125012,
      "d": 532.4670000000042,
      "v": 100
    },
    {
      "midi": 62,
      "hit": false,
      "t": 299031.3568125012,
      "d": 548.7007500000182,
      "v": 98
    },
    {
      "midi": 62,
      "hit": false,
      "t": 299995.6415625012,
      "d": 536.5254375000368,
      "v": 98
    },
    {
      "midi": 65,
      "hit": false,
      "t": 299995.6415625012,
      "d": 552.7591875000508,
      "v": 96
    },
    {
      "midi": 59,
      "hit": false,
      "t": 299995.6415625012,
      "d": 568.9929375000647,
      "v": 100
    },
    {
      "midi": 70,
      "hit": false,
      "t": 299995.6415625012,
      "d": 601.4604375000927,
      "v": 91
    },
    {
      "midi": 64,
      "hit": false,
      "t": 300780.5433750013,
      "d": 124.99987500003772,
      "v": 100
    },
    {
      "midi": 67,
      "hit": false,
      "t": 300780.5433750013,
      "d": 163.14918750006473,
      "v": 94
    },
    {
      "midi": 57,
      "hit": false,
      "t": 300780.5433750013,
      "d": 260.55168750003213,
      "v": 94
    },
    {
      "midi": 69,
      "hit": false,
      "t": 300979.4068125014,
      "d": 21.103874999971595,
      "v": 65
    },
    {
      "midi": 62,
      "hit": false,
      "t": 300979.4068125014,
      "d": 56.00643749994924,
      "v": 100
    },
    {
      "midi": 66,
      "hit": false,
      "t": 300979.4068125014,
      "d": 60.06487499992363,
      "v": 91
    },
    {
      "midi": 62,
      "hit": false,
      "t": 302142.55500000133,
      "d": 525.9735000000219,
      "v": 116
    },
    {
      "midi": 67,
      "hit": false,
      "t": 302142.55500000133,
      "d": 525.9735000000219,
      "v": 103
    },
    {
      "midi": 59,
      "hit": false,
      "t": 302142.55500000133,
      "d": 532.4670000000042,
      "v": 114
    },
    {
      "midi": 62,
      "hit": false,
      "t": 302728.59337500134,
      "d": 43.83112500002608,
      "v": 91
    },
    {
      "midi": 59,
      "hit": false,
      "t": 302728.59337500134,
      "d": 64.12331250001444,
      "v": 85
    },
    {
      "midi": 69,
      "hit": false,
      "t": 302728.59337500134,
      "d": 80.3570625000284,
      "v": 119
    },
    {
      "midi": 62,
      "hit": false,
      "t": 303118.2033750014,
      "d": 43.83112500002608,
      "v": 96
    },
    {
      "midi": 59,
      "hit": false,
      "t": 303118.2033750014,
      "d": 60.06487500004005,
      "v": 90
    },
    {
      "midi": 67,
      "hit": false,
      "t": 303118.2033750014,
      "d": 76.29862500005402,
      "v": 93
    },
    {
      "midi": 55,
      "hit": false,
      "t": 303702.6183750014,
      "d": 491.8826250000275,
      "v": 101
    },
    {
      "midi": 60,
      "hit": false,
      "t": 303702.6183750014,
      "d": 491.8826250000275,
      "v": 107
    },
    {
      "midi": 64,
      "hit": false,
      "t": 303702.6183750014,
      "d": 491.8826250000275,
      "v": 114
    },
    {
      "midi": 64,
      "hit": false,
      "t": 304285.41000000143,
      "d": 77.92200000002049,
      "v": 97
    },
    {
      "midi": 55,
      "hit": false,
      "t": 304287.03337500145,
      "d": 4.8701250000158325,
      "v": 70
    },
    {
      "midi": 67,
      "hit": false,
      "t": 304287.03337500145,
      "d": 80.3570624999702,
      "v": 100
    },
    {
      "midi": 60,
      "hit": false,
      "t": 304676.64337500144,
      "d": 69.8051250000135,
      "v": 99
    },
    {
      "midi": 64,
      "hit": false,
      "t": 304676.64337500144,
      "d": 86.03887500002747,
      "v": 97
    },
    {
      "midi": 55,
      "hit": false,
      "t": 304676.64337500144,
      "d": 90.09731250000186,
      "v": 92
    },
    {
      "midi": 57,
      "hit": false,
      "t": 305261.0583750014,
      "d": 1648.5373125000042,
      "v": 87
    },
    {
      "midi": 59,
      "hit": false,
      "t": 305261.0583750014,
      "d": 1655.0308124999865,
      "v": 108
    },
    {
      "midi": 66,
      "hit": false,
      "t": 305261.0583750014,
      "d": 1672.887937499967,
      "v": 108
    },
    {
      "midi": 62,
      "hit": false,
      "t": 305261.0583750014,
      "d": 1681.004812499974,
      "v": 108
    },
    {
      "midi": 64,
      "hit": false,
      "t": 307012.6800000014,
      "d": 12.987000000022817,
      "v": 65
    },
    {
      "midi": 67,
      "hit": false,
      "t": 307012.6800000014,
      "d": 140.42193750006845,
      "v": 87
    },
    {
      "midi": 55,
      "hit": false,
      "t": 307012.6800000014,
      "d": 168.8310000000638,
      "v": 84
    },
    {
      "midi": 60,
      "hit": false,
      "t": 307014.3033750014,
      "d": 49.512937500025146,
      "v": 92
    },
    {
      "midi": 62,
      "hit": false,
      "t": 307209.10837500147,
      "d": 37.337624999985565,
      "v": 75
    },
    {
      "midi": 55,
      "hit": false,
      "t": 307209.10837500147,
      "d": 49.512937500025146,
      "v": 62
    },
    {
      "midi": 67,
      "hit": false,
      "t": 307209.10837500147,
      "d": 73.8635625000461,
      "v": 84
    },
    {
      "midi": 60,
      "hit": false,
      "t": 307213.16681250144,
      "d": 43.83112500002608,
      "v": 73
    },
    {
      "midi": 60,
      "hit": false,
      "t": 307598.7183750015,
      "d": 49.512937500025146,
      "v": 86
    },
    {
      "midi": 55,
      "hit": false,
      "t": 307598.7183750015,
      "d": 69.8051250000135,
      "v": 70
    },
    {
      "midi": 67,
      "hit": false,
      "t": 307598.7183750015,
      "d": 80.3570625000284,
      "v": 86
    },
    {
      "midi": 60,
      "hit": false,
      "t": 307986.70500000153,
      "d": 293.01918750006007,
      "v": 80
    },
    {
      "midi": 67,
      "hit": false,
      "t": 307986.70500000153,
      "d": 309.25293750007404,
      "v": 77
    },
    {
      "midi": 55,
      "hit": false,
      "t": 307986.70500000153,
      "d": 318.9931875000475,
      "v": 74
    },
    {
      "midi": 62,
      "hit": false,
      "t": 307988.32837500155,
      "d": 280.8438750000205,
      "v": 80
    },
    {
      "midi": 62,
      "hit": false,
      "t": 308376.3150000016,
      "d": 525.9735000000219,
      "v": 105
    },
    {
      "midi": 67,
      "hit": false,
      "t": 308376.3150000016,
      "d": 525.9735000000219,
      "v": 102
    },
    {
      "midi": 59,
      "hit": false,
      "t": 308376.3150000016,
      "d": 532.4670000000042,
      "v": 93
    },
    {
      "midi": 62,
      "hit": false,
      "t": 308765.92499999976,
      "d": 191.55825000000186,
      "v": 91
    },
    {
      "midi": 62,
      "hit": false,
      "t": 308962.3533749998,
      "d": 0.8116874999832362,
      "v": 66
    },
    {
      "midi": 69,
      "hit": false,
      "t": 308962.3533749998,
      "d": 69.8051249999553,
      "v": 82
    },
    {
      "midi": 74,
      "hit": false,
      "t": 308962.3533749998,
      "d": 114.44793749996461,
      "v": 94
    },
    {
      "midi": 62,
      "hit": false,
      "t": 308962.3533750016,
      "d": 43.83112500002608,
      "v": 89
    },
    {
      "midi": 59,
      "hit": false,
      "t": 308962.3533750016,
      "d": 64.12331250001444,
      "v": 83
    },
    {
      "midi": 69,
      "hit": false,
      "t": 308962.3533750016,
      "d": 80.3570625000284,
      "v": 116
    },
    {
      "midi": 62,
      "hit": false,
      "t": 309157.15837499977,
      "d": 73.86356249998789,
      "v": 87
    },
    {
      "midi": 62,
      "hit": false,
      "t": 309350.33999999973,
      "d": 146.91543750005076,
      "v": 77
    },
    {
      "midi": 67,
      "hit": false,
      "t": 309351.96337499976,
      "d": 112.82456249999814,
      "v": 86
    },
    {
      "midi": 74,
      "hit": false,
      "t": 309351.96337499976,
      "d": 112.82456249999814,
      "v": 95
    },
    {
      "midi": 62,
      "hit": false,
      "t": 309351.9633750016,
      "d": 43.83112500002608,
      "v": 94
    },
    {
      "midi": 59,
      "hit": false,
      "t": 309351.9633750016,
      "d": 60.06487500004005,
      "v": 88
    },
    {
      "midi": 67,
      "hit": false,
      "t": 309351.9633750016,
      "d": 76.29862500005402,
      "v": 91
    },
    {
      "midi": 67,
      "hit": false,
      "t": 309546.7683749998,
      "d": 96.59081249998417,
      "v": 67
    },
    {
      "midi": 62,
      "hit": false,
      "t": 309546.7683749998,
      "d": 118.5063749999972,
      "v": 81
    },
    {
      "midi": 74,
      "hit": false,
      "t": 309546.7683749998,
      "d": 134.74012500001118,
      "v": 71
    },
    {
      "midi": 64,
      "hit": false,
      "t": 309739.94999999984,
      "d": 67.37006250000559,
      "v": 76
    },
    {
      "midi": 74,
      "hit": false,
      "t": 309936.37837499985,
      "d": 60.06487500004005,
      "v": 80
    },
    {
      "midi": 67,
      "hit": false,
      "t": 309936.37837499985,
      "d": 69.8051250000135,
      "v": 79
    },
    {
      "midi": 55,
      "hit": false,
      "t": 309936.37837500166,
      "d": 491.8826250000275,
      "v": 99
    },
    {
      "midi": 60,
      "hit": false,
      "t": 309936.37837500166,
      "d": 491.8826250000275,
      "v": 104
    },
    {
      "midi": 64,
      "hit": false,
      "t": 309936.37837500166,
      "d": 491.8826250000275,
      "v": 111
    },
    {
      "midi": 62,
      "hit": false,
      "t": 310129.5599999999,
      "d": 59.2531874999986,
      "v": 80
    },
    {
      "midi": 64,
      "hit": false,
      "t": 310325.9883749999,
      "d": 33.279187500011176,
      "v": 65
    },
    {
      "midi": 64,
      "hit": false,
      "t": 310519.1700000017,
      "d": 77.92200000002049,
      "v": 96
    },
    {
      "midi": 69,
      "hit": false,
      "t": 310520.7933749999,
      "d": 90.09731250000186,
      "v": 87
    },
    {
      "midi": 74,
      "hit": false,
      "t": 310520.7933749999,
      "d": 90.09731250000186,
      "v": 91
    },
    {
      "midi": 55,
      "hit": false,
      "t": 310520.7933750017,
      "d": 4.8701250000158325,
      "v": 69
    },
    {
      "midi": 67,
      "hit": false,
      "t": 310520.7933750017,
      "d": 80.3570624999702,
      "v": 99
    },
    {
      "midi": 62,
      "hit": false,
      "t": 310715.5983749999,
      "d": 92.53237500000978,
      "v": 39
    },
    {
      "midi": 67,
      "hit": false,
      "t": 310908.7799999999,
      "d": 87.66224999999395,
      "v": 90
    },
    {
      "midi": 74,
      "hit": false,
      "t": 310908.7799999999,
      "d": 120.12975000002189,
      "v": 87
    },
    {
      "midi": 60,
      "hit": false,
      "t": 310910.4033750017,
      "d": 69.8051250000135,
      "v": 98
    },
    {
      "midi": 64,
      "hit": false,
      "t": 310910.4033750017,
      "d": 86.03887500002747,
      "v": 96
    },
    {
      "midi": 55,
      "hit": false,
      "t": 310910.4033750017,
      "d": 90.09731250000186,
      "v": 91
    },
    {
      "midi": 67,
      "hit": false,
      "t": 311105.20837499993,
      "d": 141.23362499999348,
      "v": 72
    },
    {
      "midi": 74,
      "hit": false,
      "t": 311105.20837499993,
      "d": 141.23362499999348,
      "v": 73
    },
    {
      "midi": 66,
      "hit": false,
      "t": 311494.81837500166,
      "d": 698.8629375000019,
      "v": 106
    },
    {
      "midi": 62,
      "hit": false,
      "t": 311494.81837500166,
      "d": 1291.394812499988,
      "v": 106
    },
    {
      "midi": 59,
      "hit": false,
      "t": 311494.81837500166,
      "d": 1362.8233124999679,
      "v": 106
    },
    {
      "midi": 59,
      "hit": false,
      "t": 312079.2333749999,
      "d": 80.3570625000284,
      "v": 87
    },
    {
      "midi": 62,
      "hit": false,
      "t": 312079.2333749999,
      "d": 80.3570625000284,
      "v": 101
    },
    {
      "midi": 66,
      "hit": false,
      "t": 312079.2333749999,
      "d": 138.79856250004377,
      "v": 96
    },
    {
      "midi": 62,
      "hit": false,
      "t": 312468.84337499994,
      "d": 632.3045624999795,
      "v": 87
    },
    {
      "midi": 59,
      "hit": false,
      "t": 312468.84337499994,
      "d": 747.5641874999856,
      "v": 87
    },
    {
      "midi": 65,
      "hit": false,
      "t": 312468.84337499994,
      "d": 832.7913749999716,
      "v": 95
    },
    {
      "midi": 64,
      "hit": false,
      "t": 313246.44000000163,
      "d": 34.902562500035856,
      "v": 74
    },
    {
      "midi": 67,
      "hit": false,
      "t": 313246.44000000163,
      "d": 43.01943750004284,
      "v": 100
    },
    {
      "midi": 55,
      "hit": false,
      "t": 313246.44000000163,
      "d": 71.42850000003818,
      "v": 96
    },
    {
      "midi": 60,
      "hit": false,
      "t": 313248.06337500166,
      "d": 49.512937500025146,
      "v": 106
    },
    {
      "midi": 62,
      "hit": false,
      "t": 313442.86837500165,
      "d": 37.337624999985565,
      "v": 86
    },
    {
      "midi": 55,
      "hit": false,
      "t": 313442.86837500165,
      "d": 49.512937500025146,
      "v": 71
    },
    {
      "midi": 67,
      "hit": false,
      "t": 313442.86837500165,
      "d": 73.8635625000461,
      "v": 96
    },
    {
      "midi": 60,
      "hit": false,
      "t": 313446.9268125016,
      "d": 43.83112500002608,
      "v": 83
    },
    {
      "midi": 60,
      "hit": false,
      "t": 313832.4783750017,
      "d": 49.512937500025146,
      "v": 99
    },
    {
      "midi": 55,
      "hit": false,
      "t": 313832.4783750017,
      "d": 69.8051250000135,
      "v": 80
    },
    {
      "midi": 67,
      "hit": false,
      "t": 313832.4783750017,
      "d": 80.3570625000284,
      "v": 99
    },
    {
      "midi": 60,
      "hit": false,
      "t": 314220.4650000017,
      "d": 293.01918750006007,
      "v": 92
    },
    {
      "midi": 67,
      "hit": false,
      "t": 314220.4650000017,
      "d": 309.25293750007404,
      "v": 88
    },
    {
      "midi": 55,
      "hit": false,
      "t": 314220.4650000017,
      "d": 318.9931875000475,
      "v": 85
    },
    {
      "midi": 62,
      "hit": false,
      "t": 314222.08837500174,
      "d": 280.8438750000205,
      "v": 110
    },
    {
      "midi": 62,
      "hit": false,
      "t": 314610.07500000176,
      "d": 525.9735000000219,
      "v": 113
    },
    {
      "midi": 67,
      "hit": false,
      "t": 314610.07500000176,
      "d": 525.9735000000219,
      "v": 97
    },
    {
      "midi": 59,
      "hit": false,
      "t": 314610.07500000176,
      "d": 532.4670000000042,
      "v": 109
    },
    {
      "midi": 62,
      "hit": false,
      "t": 315001.3083749999,
      "d": 502.4345625000424,
      "v": 88
    },
    {
      "midi": 74,
      "hit": false,
      "t": 315194.48999999993,
      "d": 581.1682500000461,
      "v": 100
    },
    {
      "midi": 62,
      "hit": false,
      "t": 315196.11337500176,
      "d": 43.83112500002608,
      "v": 89
    },
    {
      "midi": 59,
      "hit": false,
      "t": 315196.11337500176,
      "d": 64.12331250001444,
      "v": 83
    },
    {
      "midi": 69,
      "hit": false,
      "t": 315196.11337500176,
      "d": 80.3570625000284,
      "v": 116
    },
    {
      "midi": 71,
      "hit": false,
      "t": 315389.2949999999,
      "d": 465.0969375000568,
      "v": 72
    },
    {
      "midi": 62,
      "hit": false,
      "t": 315584.1,
      "d": 136.36350000003586,
      "v": 88
    },
    {
      "midi": 62,
      "hit": false,
      "t": 315585.7233750018,
      "d": 43.83112500002608,
      "v": 94
    },
    {
      "midi": 59,
      "hit": false,
      "t": 315585.7233750018,
      "d": 60.06487500004005,
      "v": 88
    },
    {
      "midi": 67,
      "hit": false,
      "t": 315585.7233750018,
      "d": 76.29862500005402,
      "v": 91
    },
    {
      "midi": 62,
      "hit": false,
      "t": 315774.8465625,
      "d": 773.5381875000312,
      "v": 74
    },
    {
      "midi": 67,
      "hit": false,
      "t": 315973.71,
      "d": 558.4409999999916,
      "v": 94
    },
    {
      "midi": 71,
      "hit": false,
      "t": 316170.13837500004,
      "d": 382.3048124999623,
      "v": 116
    },
    {
      "midi": 55,
      "hit": false,
      "t": 316170.13837500184,
      "d": 491.8826250000275,
      "v": 99
    },
    {
      "midi": 60,
      "hit": false,
      "t": 316170.13837500184,
      "d": 491.8826250000275,
      "v": 104
    },
    {
      "midi": 64,
      "hit": false,
      "t": 316170.13837500184,
      "d": 491.8826250000275,
      "v": 111
    },
    {
      "midi": 62,
      "hit": false,
      "t": 316554.0665625,
      "d": 260.5516874999739,
      "v": 90
    },
    {
      "midi": 64,
      "hit": false,
      "t": 316752.93000000186,
      "d": 77.92200000002049,
      "v": 96
    },
    {
      "midi": 67,
      "hit": false,
      "t": 316754.553375,
      "d": 228.0841875000042,
      "v": 94
    },
    {
      "midi": 59,
      "hit": false,
      "t": 316754.553375,
      "d": 329.5451250000042,
      "v": 96
    },
    {
      "midi": 55,
      "hit": false,
      "t": 316754.5533750019,
      "d": 4.8701250000158325,
      "v": 69
    },
    {
      "midi": 67,
      "hit": false,
      "t": 316754.5533750019,
      "d": 80.3570624999702,
      "v": 99
    },
    {
      "midi": 62,
      "hit": false,
      "t": 316949.358375,
      "d": 222.40237500000512,
      "v": 61
    },
    {
      "midi": 76,
      "hit": false,
      "t": 317144.163375,
      "d": 199.67512500000885,
      "v": 84
    },
    {
      "midi": 58,
      "hit": false,
      "t": 317144.163375,
      "d": 417.20737499999814,
      "v": 97
    },
    {
      "midi": 60,
      "hit": false,
      "t": 317144.16337500187,
      "d": 69.8051250000135,
      "v": 98
    },
    {
      "midi": 64,
      "hit": false,
      "t": 317144.16337500187,
      "d": 86.03887500002747,
      "v": 96
    },
    {
      "midi": 55,
      "hit": false,
      "t": 317144.16337500187,
      "d": 90.09731250000186,
      "v": 91
    },
    {
      "midi": 62,
      "hit": false,
      "t": 317338.968375,
      "d": 463.4735624999739,
      "v": 59
    },
    {
      "midi": 66,
      "hit": false,
      "t": 317533.773375,
      "d": 210.22706249996554,
      "v": 90
    },
    {
      "midi": 71,
      "hit": false,
      "t": 317728.578375,
      "d": 693.1811250000028,
      "v": 104
    },
    {
      "midi": 66,
      "hit": false,
      "t": 317728.57837500185,
      "d": 601.4604374999763,
      "v": 106
    },
    {
      "midi": 59,
      "hit": false,
      "t": 317728.57837500185,
      "d": 1168.0183124999749,
      "v": 106
    },
    {
      "midi": 62,
      "hit": false,
      "t": 317728.57837500185,
      "d": 1291.394812499988,
      "v": 106
    },
    {
      "midi": 59,
      "hit": false,
      "t": 317732.63681249996,
      "d": 597.4020000000019,
      "v": 87
    },
    {
      "midi": 64,
      "hit": false,
      "t": 319480.2000000018,
      "d": 12.987000000022817,
      "v": 75
    },
    {
      "midi": 67,
      "hit": false,
      "t": 319480.2000000018,
      "d": 140.42193750006845,
      "v": 101
    },
    {
      "midi": 55,
      "hit": false,
      "t": 319480.2000000018,
      "d": 168.8310000000638,
      "v": 98
    },
    {
      "midi": 60,
      "hit": false,
      "t": 319481.82337500184,
      "d": 49.512937500025146,
      "v": 107
    },
    {
      "midi": 62,
      "hit": false,
      "t": 319676.6283750019,
      "d": 37.337624999985565,
      "v": 87
    },
    {
      "midi": 55,
      "hit": false,
      "t": 319676.6283750019,
      "d": 49.512937500025146,
      "v": 72
    },
    {
      "midi": 67,
      "hit": false,
      "t": 319676.6283750019,
      "d": 73.8635625000461,
      "v": 98
    },
    {
      "midi": 60,
      "hit": false,
      "t": 319680.68681250187,
      "d": 43.83112500002608,
      "v": 85
    },
    {
      "midi": 60,
      "hit": false,
      "t": 320066.23837500194,
      "d": 49.512937500025146,
      "v": 100
    },
    {
      "midi": 55,
      "hit": false,
      "t": 320066.23837500194,
      "d": 69.8051250000135,
      "v": 81
    },
    {
      "midi": 67,
      "hit": false,
      "t": 320066.23837500194,
      "d": 80.3570625000284,
      "v": 100
    },
    {
      "midi": 60,
      "hit": false,
      "t": 320454.22500000196,
      "d": 293.01918750006007,
      "v": 93
    },
    {
      "midi": 67,
      "hit": false,
      "t": 320454.22500000196,
      "d": 309.25293750007404,
      "v": 90
    },
    {
      "midi": 55,
      "hit": false,
      "t": 320454.22500000196,
      "d": 318.9931875000475,
      "v": 86
    },
    {
      "midi": 62,
      "hit": false,
      "t": 320455.848375002,
      "d": 280.8438750000205,
      "v": 93
    },
    {
      "midi": 62,
      "hit": false,
      "t": 320843.835000002,
      "d": 525.9735000000219,
      "v": 125
    },
    {
      "midi": 67,
      "hit": false,
      "t": 320843.835000002,
      "d": 525.9735000000219,
      "v": 119
    },
    {
      "midi": 59,
      "hit": false,
      "t": 320843.835000002,
      "d": 532.4670000000042,
      "v": 109
    },
    {
      "midi": 62,
      "hit": false,
      "t": 321233.44499999995,
      "d": 191.55825000000186,
      "v": 91
    },
    {
      "midi": 62,
      "hit": false,
      "t": 321429.87337499997,
      "d": 0.8116874999832362,
      "v": 66
    },
    {
      "midi": 69,
      "hit": false,
      "t": 321429.87337499997,
      "d": 69.8051249999553,
      "v": 82
    },
    {
      "midi": 74,
      "hit": false,
      "t": 321429.87337499997,
      "d": 114.44793749996461,
      "v": 94
    },
    {
      "midi": 62,
      "hit": false,
      "t": 321429.873375002,
      "d": 43.83112500002608,
      "v": 89
    },
    {
      "midi": 59,
      "hit": false,
      "t": 321429.873375002,
      "d": 64.12331250001444,
      "v": 83
    },
    {
      "midi": 69,
      "hit": false,
      "t": 321429.873375002,
      "d": 80.3570625000284,
      "v": 116
    },
    {
      "midi": 62,
      "hit": false,
      "t": 321624.67837499996,
      "d": 73.86356249998789,
      "v": 87
    },
    {
      "midi": 62,
      "hit": false,
      "t": 321817.8599999999,
      "d": 146.91543750005076,
      "v": 77
    },
    {
      "midi": 67,
      "hit": false,
      "t": 321819.48337499995,
      "d": 112.82456249999814,
      "v": 86
    },
    {
      "midi": 74,
      "hit": false,
      "t": 321819.48337499995,
      "d": 112.82456249999814,
      "v": 95
    },
    {
      "midi": 62,
      "hit": false,
      "t": 321819.48337500205,
      "d": 43.83112500002608,
      "v": 94
    },
    {
      "midi": 59,
      "hit": false,
      "t": 321819.48337500205,
      "d": 60.06487500004005,
      "v": 88
    },
    {
      "midi": 67,
      "hit": false,
      "t": 321819.48337500205,
      "d": 76.29862500005402,
      "v": 91
    },
    {
      "midi": 67,
      "hit": false,
      "t": 322014.288375,
      "d": 96.59081249998417,
      "v": 67
    },
    {
      "midi": 62,
      "hit": false,
      "t": 322014.288375,
      "d": 118.5063749999972,
      "v": 81
    },
    {
      "midi": 74,
      "hit": false,
      "t": 322014.288375,
      "d": 134.74012500001118,
      "v": 71
    },
    {
      "midi": 64,
      "hit": false,
      "t": 322207.47000000003,
      "d": 67.37006250000559,
      "v": 76
    },
    {
      "midi": 74,
      "hit": false,
      "t": 322403.89837500005,
      "d": 60.06487500004005,
      "v": 80
    },
    {
      "midi": 67,
      "hit": false,
      "t": 322403.89837500005,
      "d": 69.8051250000135,
      "v": 79
    },
    {
      "midi": 55,
      "hit": false,
      "t": 322403.8983750021,
      "d": 491.8826250000275,
      "v": 99
    },
    {
      "midi": 60,
      "hit": false,
      "t": 322403.8983750021,
      "d": 491.8826250000275,
      "v": 104
    },
    {
      "midi": 64,
      "hit": false,
      "t": 322403.8983750021,
      "d": 491.8826250000275,
      "v": 111
    },
    {
      "midi": 62,
      "hit": false,
      "t": 322597.0800000001,
      "d": 59.2531874999986,
      "v": 80
    },
    {
      "midi": 64,
      "hit": false,
      "t": 322793.5083750001,
      "d": 33.279187500011176,
      "v": 65
    },
    {
      "midi": 64,
      "hit": false,
      "t": 322986.6900000021,
      "d": 77.92200000002049,
      "v": 96
    },
    {
      "midi": 69,
      "hit": false,
      "t": 322988.3133750001,
      "d": 90.09731250000186,
      "v": 87
    },
    {
      "midi": 74,
      "hit": false,
      "t": 322988.3133750001,
      "d": 90.09731250000186,
      "v": 91
    },
    {
      "midi": 55,
      "hit": false,
      "t": 322988.3133750021,
      "d": 4.8701250000158325,
      "v": 69
    },
    {
      "midi": 67,
      "hit": false,
      "t": 322988.3133750021,
      "d": 80.3570624999702,
      "v": 99
    },
    {
      "midi": 62,
      "hit": false,
      "t": 323183.1183750001,
      "d": 92.53237500000978,
      "v": 39
    },
    {
      "midi": 67,
      "hit": false,
      "t": 323376.3000000001,
      "d": 87.66224999999395,
      "v": 90
    },
    {
      "midi": 74,
      "hit": false,
      "t": 323376.3000000001,
      "d": 120.12975000002189,
      "v": 87
    },
    {
      "midi": 60,
      "hit": false,
      "t": 323377.9233750021,
      "d": 69.8051250000135,
      "v": 98
    },
    {
      "midi": 64,
      "hit": false,
      "t": 323377.9233750021,
      "d": 86.03887500002747,
      "v": 96
    },
    {
      "midi": 55,
      "hit": false,
      "t": 323377.9233750021,
      "d": 90.09731250000186,
      "v": 91
    },
    {
      "midi": 67,
      "hit": false,
      "t": 323572.7283750001,
      "d": 141.23362499999348,
      "v": 72
    },
    {
      "midi": 74,
      "hit": false,
      "t": 323572.7283750001,
      "d": 141.23362499999348,
      "v": 73
    },
    {
      "midi": 66,
      "hit": false,
      "t": 323962.3383750021,
      "d": 698.8629375000019,
      "v": 106
    },
    {
      "midi": 62,
      "hit": false,
      "t": 323962.3383750021,
      "d": 1291.394812499988,
      "v": 106
    },
    {
      "midi": 59,
      "hit": false,
      "t": 323962.3383750021,
      "d": 1362.8233124999679,
      "v": 106
    },
    {
      "midi": 59,
      "hit": false,
      "t": 324546.75337500015,
      "d": 80.3570625000284,
      "v": 87
    },
    {
      "midi": 62,
      "hit": false,
      "t": 324546.75337500015,
      "d": 80.3570625000284,
      "v": 101
    },
    {
      "midi": 66,
      "hit": false,
      "t": 324546.75337500015,
      "d": 138.79856250004377,
      "v": 96
    },
    {
      "midi": 62,
      "hit": false,
      "t": 324936.3633750002,
      "d": 632.3045624999795,
      "v": 87
    },
    {
      "midi": 59,
      "hit": false,
      "t": 324936.3633750002,
      "d": 747.5641874999856,
      "v": 87
    },
    {
      "midi": 65,
      "hit": false,
      "t": 324936.3633750002,
      "d": 832.7913749999716,
      "v": 95
    },
    {
      "midi": 64,
      "hit": false,
      "t": 325713.96000000206,
      "d": 12.987000000022817,
      "v": 75
    },
    {
      "midi": 67,
      "hit": false,
      "t": 325713.96000000206,
      "d": 140.42193750006845,
      "v": 101
    },
    {
      "midi": 55,
      "hit": false,
      "t": 325713.96000000206,
      "d": 168.8310000000638,
      "v": 98
    },
    {
      "midi": 60,
      "hit": false,
      "t": 325715.5833750021,
      "d": 49.512937500025146,
      "v": 107
    },
    {
      "midi": 62,
      "hit": false,
      "t": 325910.38837500213,
      "d": 37.337624999985565,
      "v": 87
    },
    {
      "midi": 55,
      "hit": false,
      "t": 325910.38837500213,
      "d": 49.512937500025146,
      "v": 72
    },
    {
      "midi": 67,
      "hit": false,
      "t": 325910.38837500213,
      "d": 73.8635625000461,
      "v": 98
    },
    {
      "midi": 60,
      "hit": false,
      "t": 325914.4468125021,
      "d": 43.83112500002608,
      "v": 85
    },
    {
      "midi": 60,
      "hit": false,
      "t": 326299.9983750022,
      "d": 49.512937500025146,
      "v": 100
    },
    {
      "midi": 55,
      "hit": false,
      "t": 326299.9983750022,
      "d": 69.8051250000135,
      "v": 81
    },
    {
      "midi": 67,
      "hit": false,
      "t": 326299.9983750022,
      "d": 80.3570625000284,
      "v": 100
    },
    {
      "midi": 60,
      "hit": false,
      "t": 326687.9850000022,
      "d": 293.01918750006007,
      "v": 93
    },
    {
      "midi": 67,
      "hit": false,
      "t": 326687.9850000022,
      "d": 309.25293750007404,
      "v": 90
    },
    {
      "midi": 55,
      "hit": false,
      "t": 326687.9850000022,
      "d": 318.9931875000475,
      "v": 86
    },
    {
      "midi": 62,
      "hit": false,
      "t": 326689.6083750022,
      "d": 280.8438750000205,
      "v": 93
    },
    {
      "midi": 62,
      "hit": false,
      "t": 327077.59500000224,
      "d": 525.9735000000219,
      "v": 127
    },
    {
      "midi": 67,
      "hit": false,
      "t": 327077.59500000224,
      "d": 525.9735000000219,
      "v": 119
    },
    {
      "midi": 59,
      "hit": false,
      "t": 327077.59500000224,
      "d": 532.4670000000042,
      "v": 109
    },
    {
      "midi": 62,
      "hit": false,
      "t": 327468.82837500016,
      "d": 502.4345625000424,
      "v": 88
    },
    {
      "midi": 74,
      "hit": false,
      "t": 327662.0100000002,
      "d": 581.1682500000461,
      "v": 100
    },
    {
      "midi": 62,
      "hit": false,
      "t": 327663.63337500225,
      "d": 43.83112500002608,
      "v": 89
    },
    {
      "midi": 59,
      "hit": false,
      "t": 327663.63337500225,
      "d": 64.12331250001444,
      "v": 83
    },
    {
      "midi": 69,
      "hit": false,
      "t": 327663.63337500225,
      "d": 80.3570625000284,
      "v": 116
    },
    {
      "midi": 71,
      "hit": false,
      "t": 327856.8150000002,
      "d": 465.0969375000568,
      "v": 72
    },
    {
      "midi": 62,
      "hit": false,
      "t": 328051.6200000002,
      "d": 136.36350000003586,
      "v": 88
    },
    {
      "midi": 62,
      "hit": false,
      "t": 328053.2433750023,
      "d": 43.83112500002608,
      "v": 94
    },
    {
      "midi": 59,
      "hit": false,
      "t": 328053.2433750023,
      "d": 60.06487500004005,
      "v": 88
    },
    {
      "midi": 67,
      "hit": false,
      "t": 328053.2433750023,
      "d": 76.29862500005402,
      "v": 91
    },
    {
      "midi": 62,
      "hit": false,
      "t": 328242.36656250025,
      "d": 773.5381875000312,
      "v": 74
    },
    {
      "midi": 67,
      "hit": false,
      "t": 328441.2300000003,
      "d": 558.4409999999916,
      "v": 94
    },
    {
      "midi": 71,
      "hit": false,
      "t": 328637.6583750003,
      "d": 382.3048124999623,
      "v": 116
    },
    {
      "midi": 55,
      "hit": false,
      "t": 328637.6583750023,
      "d": 491.8826250000275,
      "v": 99
    },
    {
      "midi": 60,
      "hit": false,
      "t": 328637.6583750023,
      "d": 491.8826250000275,
      "v": 104
    },
    {
      "midi": 64,
      "hit": false,
      "t": 328637.6583750023,
      "d": 491.8826250000275,
      "v": 111
    },
    {
      "midi": 62,
      "hit": false,
      "t": 329021.5865625003,
      "d": 260.5516874999739,
      "v": 90
    },
    {
      "midi": 64,
      "hit": false,
      "t": 329220.45000000234,
      "d": 77.92200000002049,
      "v": 96
    },
    {
      "midi": 67,
      "hit": false,
      "t": 329222.07337500027,
      "d": 228.0841875000042,
      "v": 94
    },
    {
      "midi": 59,
      "hit": false,
      "t": 329222.07337500027,
      "d": 329.5451250000042,
      "v": 96
    },
    {
      "midi": 55,
      "hit": false,
      "t": 329222.07337500236,
      "d": 4.8701250000158325,
      "v": 69
    },
    {
      "midi": 67,
      "hit": false,
      "t": 329222.07337500236,
      "d": 80.3570624999702,
      "v": 99
    },
    {
      "midi": 62,
      "hit": false,
      "t": 329416.87837500026,
      "d": 222.40237500000512,
      "v": 61
    },
    {
      "midi": 76,
      "hit": false,
      "t": 329611.68337500026,
      "d": 199.67512500000885,
      "v": 84
    },
    {
      "midi": 58,
      "hit": false,
      "t": 329611.68337500026,
      "d": 417.20737499999814,
      "v": 97
    },
    {
      "midi": 60,
      "hit": false,
      "t": 329611.68337500235,
      "d": 69.8051250000135,
      "v": 98
    },
    {
      "midi": 64,
      "hit": false,
      "t": 329611.68337500235,
      "d": 86.03887500002747,
      "v": 96
    },
    {
      "midi": 55,
      "hit": false,
      "t": 329611.68337500235,
      "d": 90.09731250000186,
      "v": 91
    },
    {
      "midi": 62,
      "hit": false,
      "t": 329806.48837500025,
      "d": 463.4735624999739,
      "v": 59
    },
    {
      "midi": 66,
      "hit": false,
      "t": 330001.29337500024,
      "d": 210.22706249996554,
      "v": 90
    },
    {
      "midi": 71,
      "hit": false,
      "t": 330196.09837500023,
      "d": 693.1811250000028,
      "v": 104
    },
    {
      "midi": 66,
      "hit": false,
      "t": 330196.09837500233,
      "d": 601.4604374999763,
      "v": 106
    },
    {
      "midi": 59,
      "hit": false,
      "t": 330196.09837500233,
      "d": 1168.0183124999749,
      "v": 106
    },
    {
      "midi": 62,
      "hit": false,
      "t": 330196.09837500233,
      "d": 1291.394812499988,
      "v": 106
    },
    {
      "midi": 59,
      "hit": false,
      "t": 330200.1568125002,
      "d": 597.4020000000019,
      "v": 87
    },
    {
      "midi": 64,
      "hit": false,
      "t": 331947.7200000023,
      "d": 12.987000000022817,
      "v": 75
    },
    {
      "midi": 67,
      "hit": false,
      "t": 331947.7200000023,
      "d": 140.42193750006845,
      "v": 101
    },
    {
      "midi": 55,
      "hit": false,
      "t": 331947.7200000023,
      "d": 168.8310000000638,
      "v": 98
    },
    {
      "midi": 60,
      "hit": false,
      "t": 331949.3433750023,
      "d": 49.512937500025146,
      "v": 107
    },
    {
      "midi": 62,
      "hit": false,
      "t": 332144.1483750024,
      "d": 37.337624999985565,
      "v": 87
    },
    {
      "midi": 55,
      "hit": false,
      "t": 332144.1483750024,
      "d": 49.512937500025146,
      "v": 72
    },
    {
      "midi": 67,
      "hit": false,
      "t": 332144.1483750024,
      "d": 73.8635625000461,
      "v": 98
    },
    {
      "midi": 60,
      "hit": false,
      "t": 332148.20681250235,
      "d": 43.83112500002608,
      "v": 85
    },
    {
      "midi": 60,
      "hit": false,
      "t": 332533.7583750024,
      "d": 49.512937500025146,
      "v": 100
    },
    {
      "midi": 55,
      "hit": false,
      "t": 332533.7583750024,
      "d": 69.8051250000135,
      "v": 81
    },
    {
      "midi": 67,
      "hit": false,
      "t": 332533.7583750024,
      "d": 80.3570625000284,
      "v": 100
    },
    {
      "midi": 60,
      "hit": false,
      "t": 332921.74500000244,
      "d": 293.01918750006007,
      "v": 93
    },
    {
      "midi": 67,
      "hit": false,
      "t": 332921.74500000244,
      "d": 309.25293750007404,
      "v": 90
    },
    {
      "midi": 55,
      "hit": false,
      "t": 332921.74500000244,
      "d": 318.9931875000475,
      "v": 86
    },
    {
      "midi": 62,
      "hit": false,
      "t": 332923.36837500246,
      "d": 280.8438750000205,
      "v": 93
    },
    {
      "midi": 62,
      "hit": false,
      "t": 333311.3550000025,
      "d": 525.9735000000219,
      "v": 117
    },
    {
      "midi": 67,
      "hit": false,
      "t": 333311.3550000025,
      "d": 525.9735000000219,
      "v": 115
    },
    {
      "midi": 59,
      "hit": false,
      "t": 333311.3550000025,
      "d": 532.4670000000042,
      "v": 99
    },
    {
      "midi": 62,
      "hit": false,
      "t": 333700.9650000002,
      "d": 191.55825000000186,
      "v": 91
    },
    {
      "midi": 62,
      "hit": false,
      "t": 333897.3933750002,
      "d": 0.8116874999832362,
      "v": 66
    },
    {
      "midi": 69,
      "hit": false,
      "t": 333897.3933750002,
      "d": 69.8051249999553,
      "v": 82
    },
    {
      "midi": 74,
      "hit": false,
      "t": 333897.3933750002,
      "d": 114.44793749996461,
      "v": 94
    },
    {
      "midi": 62,
      "hit": false,
      "t": 333897.3933750025,
      "d": 43.83112500002608,
      "v": 89
    },
    {
      "midi": 59,
      "hit": false,
      "t": 333897.3933750025,
      "d": 64.12331250001444,
      "v": 83
    },
    {
      "midi": 69,
      "hit": false,
      "t": 333897.3933750025,
      "d": 80.3570625000284,
      "v": 116
    },
    {
      "midi": 62,
      "hit": false,
      "t": 334092.1983750002,
      "d": 73.86356249998789,
      "v": 87
    },
    {
      "midi": 62,
      "hit": false,
      "t": 334285.3800000002,
      "d": 146.91543750005076,
      "v": 77
    },
    {
      "midi": 67,
      "hit": false,
      "t": 334287.0033750002,
      "d": 112.82456249999814,
      "v": 86
    },
    {
      "midi": 74,
      "hit": false,
      "t": 334287.0033750002,
      "d": 112.82456249999814,
      "v": 95
    },
    {
      "midi": 62,
      "hit": false,
      "t": 334287.00337500253,
      "d": 43.83112500002608,
      "v": 94
    },
    {
      "midi": 59,
      "hit": false,
      "t": 334287.00337500253,
      "d": 60.06487500004005,
      "v": 88
    },
    {
      "midi": 67,
      "hit": false,
      "t": 334287.00337500253,
      "d": 76.29862500005402,
      "v": 91
    },
    {
      "midi": 67,
      "hit": false,
      "t": 334481.80837500026,
      "d": 96.59081249998417,
      "v": 67
    },
    {
      "midi": 62,
      "hit": false,
      "t": 334481.80837500026,
      "d": 118.5063749999972,
      "v": 81
    },
    {
      "midi": 74,
      "hit": false,
      "t": 334481.80837500026,
      "d": 134.74012500001118,
      "v": 71
    },
    {
      "midi": 64,
      "hit": false,
      "t": 334674.9900000003,
      "d": 67.37006250000559,
      "v": 76
    },
    {
      "midi": 74,
      "hit": false,
      "t": 334871.4183750003,
      "d": 60.06487500004005,
      "v": 80
    },
    {
      "midi": 67,
      "hit": false,
      "t": 334871.4183750003,
      "d": 69.8051250000135,
      "v": 79
    },
    {
      "midi": 55,
      "hit": false,
      "t": 334871.41837500257,
      "d": 491.8826250000275,
      "v": 99
    },
    {
      "midi": 60,
      "hit": false,
      "t": 334871.41837500257,
      "d": 491.8826250000275,
      "v": 104
    },
    {
      "midi": 64,
      "hit": false,
      "t": 334871.41837500257,
      "d": 491.8826250000275,
      "v": 111
    },
    {
      "midi": 62,
      "hit": false,
      "t": 335064.6000000003,
      "d": 59.2531874999986,
      "v": 80
    },
    {
      "midi": 64,
      "hit": false,
      "t": 335261.02837500034,
      "d": 33.279187500011176,
      "v": 65
    },
    {
      "midi": 64,
      "hit": false,
      "t": 335454.2100000026,
      "d": 77.92200000002049,
      "v": 96
    },
    {
      "midi": 69,
      "hit": false,
      "t": 335455.83337500034,
      "d": 90.09731250000186,
      "v": 87
    },
    {
      "midi": 74,
      "hit": false,
      "t": 335455.83337500034,
      "d": 90.09731250000186,
      "v": 91
    },
    {
      "midi": 55,
      "hit": false,
      "t": 335455.8333750026,
      "d": 4.8701250000158325,
      "v": 69
    },
    {
      "midi": 67,
      "hit": false,
      "t": 335455.8333750026,
      "d": 80.3570624999702,
      "v": 99
    },
    {
      "midi": 62,
      "hit": false,
      "t": 335650.63837500033,
      "d": 92.53237500000978,
      "v": 39
    },
    {
      "midi": 67,
      "hit": false,
      "t": 335843.82000000036,
      "d": 87.66224999999395,
      "v": 90
    },
    {
      "midi": 74,
      "hit": false,
      "t": 335843.82000000036,
      "d": 120.12975000002189,
      "v": 87
    },
    {
      "midi": 60,
      "hit": false,
      "t": 335845.4433750026,
      "d": 69.8051250000135,
      "v": 98
    },
    {
      "midi": 64,
      "hit": false,
      "t": 335845.4433750026,
      "d": 86.03887500002747,
      "v": 96
    },
    {
      "midi": 55,
      "hit": false,
      "t": 335845.4433750026,
      "d": 90.09731250000186,
      "v": 91
    },
    {
      "midi": 67,
      "hit": false,
      "t": 336040.2483750004,
      "d": 141.23362499999348,
      "v": 72
    },
    {
      "midi": 74,
      "hit": false,
      "t": 336040.2483750004,
      "d": 141.23362499999348,
      "v": 73
    },
    {
      "midi": 66,
      "hit": false,
      "t": 336429.8583750026,
      "d": 698.8629375000019,
      "v": 106
    },
    {
      "midi": 62,
      "hit": false,
      "t": 336429.8583750026,
      "d": 1291.394812499988,
      "v": 106
    },
    {
      "midi": 59,
      "hit": false,
      "t": 336429.8583750026,
      "d": 1362.8233124999679,
      "v": 106
    },
    {
      "midi": 59,
      "hit": false,
      "t": 337014.27337500034,
      "d": 80.3570625000284,
      "v": 87
    },
    {
      "midi": 62,
      "hit": false,
      "t": 337014.27337500034,
      "d": 80.3570625000284,
      "v": 101
    },
    {
      "midi": 66,
      "hit": false,
      "t": 337014.27337500034,
      "d": 138.79856250004377,
      "v": 96
    },
    {
      "midi": 62,
      "hit": false,
      "t": 337403.8833750004,
      "d": 632.3045624999795,
      "v": 87
    },
    {
      "midi": 59,
      "hit": false,
      "t": 337403.8833750004,
      "d": 747.5641874999856,
      "v": 87
    },
    {
      "midi": 65,
      "hit": false,
      "t": 337403.8833750004,
      "d": 832.7913749999716,
      "v": 95
    },
    {
      "midi": 64,
      "hit": false,
      "t": 338181.48000000254,
      "d": 12.987000000022817,
      "v": 75
    },
    {
      "midi": 67,
      "hit": false,
      "t": 338181.48000000254,
      "d": 140.42193750006845,
      "v": 101
    },
    {
      "midi": 55,
      "hit": false,
      "t": 338181.48000000254,
      "d": 168.8310000000638,
      "v": 98
    },
    {
      "midi": 60,
      "hit": false,
      "t": 338183.10337500257,
      "d": 49.512937500025146,
      "v": 107
    },
    {
      "midi": 62,
      "hit": false,
      "t": 338377.9083750026,
      "d": 37.337624999985565,
      "v": 87
    },
    {
      "midi": 55,
      "hit": false,
      "t": 338377.9083750026,
      "d": 49.512937500025146,
      "v": 72
    },
    {
      "midi": 67,
      "hit": false,
      "t": 338377.9083750026,
      "d": 73.8635625000461,
      "v": 98
    },
    {
      "midi": 60,
      "hit": false,
      "t": 338381.9668125026,
      "d": 43.83112500002608,
      "v": 85
    },
    {
      "midi": 60,
      "hit": false,
      "t": 338767.51837500266,
      "d": 49.512937500025146,
      "v": 100
    },
    {
      "midi": 55,
      "hit": false,
      "t": 338767.51837500266,
      "d": 69.8051250000135,
      "v": 81
    },
    {
      "midi": 67,
      "hit": false,
      "t": 338767.51837500266,
      "d": 80.3570625000284,
      "v": 100
    },
    {
      "midi": 60,
      "hit": false,
      "t": 339155.5050000027,
      "d": 293.01918750006007,
      "v": 93
    },
    {
      "midi": 67,
      "hit": false,
      "t": 339155.5050000027,
      "d": 309.25293750007404,
      "v": 90
    },
    {
      "midi": 55,
      "hit": false,
      "t": 339155.5050000027,
      "d": 318.9931875000475,
      "v": 86
    },
    {
      "midi": 62,
      "hit": false,
      "t": 339157.1283750027,
      "d": 280.8438750000205,
      "v": 93
    },
    {
      "midi": 62,
      "hit": false,
      "t": 339545.1150000027,
      "d": 525.9735000000219,
      "v": 119
    },
    {
      "midi": 67,
      "hit": false,
      "t": 339545.1150000027,
      "d": 525.9735000000219,
      "v": 116
    },
    {
      "midi": 59,
      "hit": false,
      "t": 339545.1150000027,
      "d": 532.4670000000042,
      "v": 89
    },
    {
      "midi": 62,
      "hit": false,
      "t": 339936.34837500035,
      "d": 502.4345625000424,
      "v": 88
    },
    {
      "midi": 74,
      "hit": false,
      "t": 340129.5300000004,
      "d": 581.1682500000461,
      "v": 100
    },
    {
      "midi": 62,
      "hit": false,
      "t": 340131.15337500273,
      "d": 43.83112500002608,
      "v": 89
    },
    {
      "midi": 59,
      "hit": false,
      "t": 340131.15337500273,
      "d": 64.12331250001444,
      "v": 83
    },
    {
      "midi": 69,
      "hit": false,
      "t": 340131.15337500273,
      "d": 80.3570625000284,
      "v": 116
    },
    {
      "midi": 71,
      "hit": false,
      "t": 340324.33500000037,
      "d": 465.0969375000568,
      "v": 72
    },
    {
      "midi": 62,
      "hit": false,
      "t": 340519.1400000004,
      "d": 136.36350000003586,
      "v": 88
    },
    {
      "midi": 62,
      "hit": false,
      "t": 340520.7633750028,
      "d": 43.83112500002608,
      "v": 94
    },
    {
      "midi": 59,
      "hit": false,
      "t": 340520.7633750028,
      "d": 60.06487500004005,
      "v": 88
    },
    {
      "midi": 67,
      "hit": false,
      "t": 340520.7633750028,
      "d": 76.29862500005402,
      "v": 91
    },
    {
      "midi": 62,
      "hit": false,
      "t": 340709.88656250044,
      "d": 773.5381875000312,
      "v": 74
    },
    {
      "midi": 67,
      "hit": false,
      "t": 340908.75000000047,
      "d": 558.4409999999916,
      "v": 94
    },
    {
      "midi": 71,
      "hit": false,
      "t": 341105.1783750005,
      "d": 382.3048124999623,
      "v": 116
    },
    {
      "midi": 55,
      "hit": false,
      "t": 341105.1783750028,
      "d": 491.8826250000275,
      "v": 99
    },
    {
      "midi": 60,
      "hit": false,
      "t": 341105.1783750028,
      "d": 491.8826250000275,
      "v": 104
    },
    {
      "midi": 64,
      "hit": false,
      "t": 341105.1783750028,
      "d": 491.8826250000275,
      "v": 111
    },
    {
      "midi": 62,
      "hit": false,
      "t": 341489.10656250047,
      "d": 260.5516874999739,
      "v": 90
    },
    {
      "midi": 64,
      "hit": false,
      "t": 341687.9700000028,
      "d": 77.92200000002049,
      "v": 96
    },
    {
      "midi": 67,
      "hit": false,
      "t": 341689.59337500046,
      "d": 228.0841875000042,
      "v": 94
    },
    {
      "midi": 59,
      "hit": false,
      "t": 341689.59337500046,
      "d": 329.5451250000042,
      "v": 96
    },
    {
      "midi": 55,
      "hit": false,
      "t": 341689.59337500285,
      "d": 4.8701250000158325,
      "v": 69
    },
    {
      "midi": 67,
      "hit": false,
      "t": 341689.59337500285,
      "d": 80.3570624999702,
      "v": 99
    },
    {
      "midi": 62,
      "hit": false,
      "t": 341884.39837500046,
      "d": 222.40237500000512,
      "v": 61
    },
    {
      "midi": 76,
      "hit": false,
      "t": 342079.20337500045,
      "d": 199.67512500000885,
      "v": 84
    },
    {
      "midi": 58,
      "hit": false,
      "t": 342079.20337500045,
      "d": 417.20737500005635,
      "v": 97
    },
    {
      "midi": 60,
      "hit": false,
      "t": 342079.20337500283,
      "d": 69.8051250000135,
      "v": 98
    },
    {
      "midi": 64,
      "hit": false,
      "t": 342079.20337500283,
      "d": 86.03887500002747,
      "v": 96
    },
    {
      "midi": 55,
      "hit": false,
      "t": 342079.20337500283,
      "d": 90.09731250000186,
      "v": 91
    },
    {
      "midi": 62,
      "hit": false,
      "t": 342274.00837500044,
      "d": 463.47356250003213,
      "v": 59
    },
    {
      "midi": 66,
      "hit": false,
      "t": 342468.8133750005,
      "d": 210.22706249996554,
      "v": 90
    },
    {
      "midi": 71,
      "hit": false,
      "t": 342663.6183750005,
      "d": 693.1811250000028,
      "v": 104
    },
    {
      "midi": 66,
      "hit": false,
      "t": 342663.6183750029,
      "d": 601.4604374999763,
      "v": 106
    },
    {
      "midi": 59,
      "hit": false,
      "t": 342663.6183750029,
      "d": 1168.0183124999749,
      "v": 106
    },
    {
      "midi": 62,
      "hit": false,
      "t": 342663.6183750029,
      "d": 1291.394812499988,
      "v": 106
    },
    {
      "midi": 59,
      "hit": false,
      "t": 342667.67681250046,
      "d": 597.4020000000019,
      "v": 87
    },
    {
      "midi": 64,
      "hit": false,
      "t": 344415.24000000284,
      "d": 12.987000000022817,
      "v": 75
    },
    {
      "midi": 67,
      "hit": false,
      "t": 344415.24000000284,
      "d": 140.42193750006845,
      "v": 101
    },
    {
      "midi": 55,
      "hit": false,
      "t": 344415.24000000284,
      "d": 168.8310000000638,
      "v": 98
    },
    {
      "midi": 60,
      "hit": false,
      "t": 344416.86337500287,
      "d": 49.512937500025146,
      "v": 107
    },
    {
      "midi": 62,
      "hit": false,
      "t": 344611.6683750029,
      "d": 37.337624999985565,
      "v": 87
    },
    {
      "midi": 55,
      "hit": false,
      "t": 344611.6683750029,
      "d": 49.512937500025146,
      "v": 72
    },
    {
      "midi": 67,
      "hit": false,
      "t": 344611.6683750029,
      "d": 73.8635625000461,
      "v": 98
    },
    {
      "midi": 60,
      "hit": false,
      "t": 344615.7268125029,
      "d": 43.83112500002608,
      "v": 85
    },
    {
      "midi": 60,
      "hit": false,
      "t": 345001.27837500296,
      "d": 49.512937500025146,
      "v": 100
    },
    {
      "midi": 55,
      "hit": false,
      "t": 345001.27837500296,
      "d": 69.8051250000135,
      "v": 81
    },
    {
      "midi": 67,
      "hit": false,
      "t": 345001.27837500296,
      "d": 80.3570625000284,
      "v": 100
    },
    {
      "midi": 60,
      "hit": false,
      "t": 345389.265000003,
      "d": 293.01918750006007,
      "v": 93
    },
    {
      "midi": 67,
      "hit": false,
      "t": 345389.265000003,
      "d": 309.25293750007404,
      "v": 90
    },
    {
      "midi": 55,
      "hit": false,
      "t": 345389.265000003,
      "d": 318.9931875000475,
      "v": 86
    },
    {
      "midi": 62,
      "hit": false,
      "t": 345390.888375003,
      "d": 280.8438750000205,
      "v": 93
    },
    {
      "midi": 62,
      "hit": false,
      "t": 345778.875000003,
      "d": 525.9735000000219,
      "v": 119
    },
    {
      "midi": 67,
      "hit": false,
      "t": 345778.875000003,
      "d": 525.9735000000219,
      "v": 116
    },
    {
      "midi": 59,
      "hit": false,
      "t": 345778.875000003,
      "d": 532.4670000000042,
      "v": 109
    },
    {
      "midi": 62,
      "hit": false,
      "t": 346168.48500000045,
      "d": 191.55825000000186,
      "v": 91
    },
    {
      "midi": 62,
      "hit": false,
      "t": 346364.91337500047,
      "d": 0.8116874999832362,
      "v": 66
    },
    {
      "midi": 69,
      "hit": false,
      "t": 346364.91337500047,
      "d": 69.8051249999553,
      "v": 82
    },
    {
      "midi": 74,
      "hit": false,
      "t": 346364.91337500047,
      "d": 114.44793749996461,
      "v": 94
    },
    {
      "midi": 62,
      "hit": false,
      "t": 346364.91337500303,
      "d": 43.83112500002608,
      "v": 89
    },
    {
      "midi": 59,
      "hit": false,
      "t": 346364.91337500303,
      "d": 64.12331250001444,
      "v": 83
    },
    {
      "midi": 69,
      "hit": false,
      "t": 346364.91337500303,
      "d": 80.3570625000284,
      "v": 116
    },
    {
      "midi": 62,
      "hit": false,
      "t": 346559.71837500046,
      "d": 73.86356249998789,
      "v": 87
    },
    {
      "midi": 62,
      "hit": false,
      "t": 346752.90000000043,
      "d": 146.91543750005076,
      "v": 77
    },
    {
      "midi": 67,
      "hit": false,
      "t": 346754.52337500046,
      "d": 112.82456249999814,
      "v": 86
    },
    {
      "midi": 74,
      "hit": false,
      "t": 346754.52337500046,
      "d": 112.82456249999814,
      "v": 95
    },
    {
      "midi": 62,
      "hit": false,
      "t": 346754.5233750031,
      "d": 43.83112500002608,
      "v": 94
    },
    {
      "midi": 59,
      "hit": false,
      "t": 346754.5233750031,
      "d": 60.06487500004005,
      "v": 88
    },
    {
      "midi": 67,
      "hit": false,
      "t": 346754.5233750031,
      "d": 76.29862500005402,
      "v": 91
    },
    {
      "midi": 67,
      "hit": false,
      "t": 346949.3283750005,
      "d": 96.59081249998417,
      "v": 67
    },
    {
      "midi": 62,
      "hit": false,
      "t": 346949.3283750005,
      "d": 118.5063749999972,
      "v": 81
    },
    {
      "midi": 74,
      "hit": false,
      "t": 346949.3283750005,
      "d": 134.74012500001118,
      "v": 71
    },
    {
      "midi": 64,
      "hit": false,
      "t": 347142.51000000053,
      "d": 67.37006250000559,
      "v": 76
    },
    {
      "midi": 74,
      "hit": false,
      "t": 347338.93837500055,
      "d": 60.06487500004005,
      "v": 80
    },
    {
      "midi": 67,
      "hit": false,
      "t": 347338.93837500055,
      "d": 69.8051250000135,
      "v": 79
    },
    {
      "midi": 55,
      "hit": false,
      "t": 347338.93837500317,
      "d": 491.8826250000275,
      "v": 99
    },
    {
      "midi": 60,
      "hit": false,
      "t": 347338.93837500317,
      "d": 491.8826250000275,
      "v": 104
    },
    {
      "midi": 64,
      "hit": false,
      "t": 347338.93837500317,
      "d": 491.8826250000275,
      "v": 111
    },
    {
      "midi": 62,
      "hit": false,
      "t": 347532.1200000006,
      "d": 59.2531874999986,
      "v": 80
    },
    {
      "midi": 64,
      "hit": false,
      "t": 347728.5483750006,
      "d": 33.279187500011176,
      "v": 65
    },
    {
      "midi": 64,
      "hit": false,
      "t": 347921.7300000032,
      "d": 77.92200000002049,
      "v": 96
    },
    {
      "midi": 69,
      "hit": false,
      "t": 347923.35337500065,
      "d": 90.09731250000186,
      "v": 87
    },
    {
      "midi": 74,
      "hit": false,
      "t": 347923.35337500065,
      "d": 90.09731250000186,
      "v": 91
    },
    {
      "midi": 55,
      "hit": false,
      "t": 347923.3533750032,
      "d": 4.8701250000158325,
      "v": 69
    },
    {
      "midi": 67,
      "hit": false,
      "t": 347923.3533750032,
      "d": 80.3570624999702,
      "v": 99
    },
    {
      "midi": 62,
      "hit": false,
      "t": 348118.15837500064,
      "d": 92.53237500000978,
      "v": 39
    },
    {
      "midi": 67,
      "hit": false,
      "t": 348311.34000000067,
      "d": 87.66224999999395,
      "v": 90
    },
    {
      "midi": 74,
      "hit": false,
      "t": 348311.34000000067,
      "d": 120.12975000002189,
      "v": 87
    },
    {
      "midi": 60,
      "hit": false,
      "t": 348312.9633750032,
      "d": 69.8051250000135,
      "v": 98
    },
    {
      "midi": 64,
      "hit": false,
      "t": 348312.9633750032,
      "d": 86.03887500002747,
      "v": 96
    },
    {
      "midi": 55,
      "hit": false,
      "t": 348312.9633750032,
      "d": 90.09731250000186,
      "v": 91
    },
    {
      "midi": 67,
      "hit": false,
      "t": 348507.7683750007,
      "d": 141.23362499999348,
      "v": 72
    },
    {
      "midi": 74,
      "hit": false,
      "t": 348507.7683750007,
      "d": 141.23362499999348,
      "v": 73
    },
    {
      "midi": 66,
      "hit": false,
      "t": 348897.37837500323,
      "d": 698.8629375000019,
      "v": 106
    },
    {
      "midi": 62,
      "hit": false,
      "t": 348897.37837500323,
      "d": 1291.394812499988,
      "v": 106
    },
    {
      "midi": 59,
      "hit": false,
      "t": 348897.37837500323,
      "d": 1362.8233124999679,
      "v": 106
    },
    {
      "midi": 59,
      "hit": false,
      "t": 349481.7933750007,
      "d": 80.3570625000284,
      "v": 87
    },
    {
      "midi": 62,
      "hit": false,
      "t": 349481.7933750007,
      "d": 80.3570625000284,
      "v": 101
    },
    {
      "midi": 66,
      "hit": false,
      "t": 349481.7933750007,
      "d": 138.79856250004377,
      "v": 96
    },
    {
      "midi": 62,
      "hit": false,
      "t": 349871.40337500075,
      "d": 632.3045625000377,
      "v": 87
    },
    {
      "midi": 59,
      "hit": false,
      "t": 349871.40337500075,
      "d": 747.5641875000438,
      "v": 87
    },
    {
      "midi": 65,
      "hit": false,
      "t": 349871.40337500075,
      "d": 832.7913750000298,
      "v": 95
    },
    {
      "midi": 64,
      "hit": false,
      "t": 350649.0000000032,
      "d": 12.987000000022817,
      "v": 64
    },
    {
      "midi": 67,
      "hit": false,
      "t": 350649.0000000032,
      "d": 140.42193750006845,
      "v": 86
    },
    {
      "midi": 55,
      "hit": false,
      "t": 350649.0000000032,
      "d": 168.8310000000638,
      "v": 83
    },
    {
      "midi": 60,
      "hit": false,
      "t": 350650.6233750032,
      "d": 49.512937500025146,
      "v": 91
    },
    {
      "midi": 62,
      "hit": false,
      "t": 350845.4283750033,
      "d": 37.337624999985565,
      "v": 74
    },
    {
      "midi": 55,
      "hit": false,
      "t": 350845.4283750033,
      "d": 49.512937500025146,
      "v": 61
    },
    {
      "midi": 67,
      "hit": false,
      "t": 350845.4283750033,
      "d": 73.8635625000461,
      "v": 83
    },
    {
      "midi": 60,
      "hit": false,
      "t": 350849.48681250325,
      "d": 43.83112500002608,
      "v": 72
    },
    {
      "midi": 60,
      "hit": false,
      "t": 351235.0383750033,
      "d": 49.512937500025146,
      "v": 85
    },
    {
      "midi": 55,
      "hit": false,
      "t": 351235.0383750033,
      "d": 69.8051250000135,
      "v": 69
    },
    {
      "midi": 67,
      "hit": false,
      "t": 351235.0383750033,
      "d": 80.3570625000284,
      "v": 85
    },
    {
      "midi": 60,
      "hit": false,
      "t": 351623.02500000334,
      "d": 293.01918750006007,
      "v": 79
    },
    {
      "midi": 67,
      "hit": false,
      "t": 351623.02500000334,
      "d": 309.25293750007404,
      "v": 76
    },
    {
      "midi": 55,
      "hit": false,
      "t": 351623.02500000334,
      "d": 318.9931875000475,
      "v": 73
    },
    {
      "midi": 62,
      "hit": false,
      "t": 351624.64837500337,
      "d": 280.8438750000205,
      "v": 79
    },
    {
      "midi": 62,
      "hit": false,
      "t": 352012.6350000034,
      "d": 525.9735000000219,
      "v": 113
    },
    {
      "midi": 67,
      "hit": false,
      "t": 352012.6350000034,
      "d": 525.9735000000219,
      "v": 101
    },
    {
      "midi": 59,
      "hit": false,
      "t": 352012.6350000034,
      "d": 532.4670000000042,
      "v": 111
    },
    {
      "midi": 62,
      "hit": false,
      "t": 352403.86837500083,
      "d": 502.4345625000424,
      "v": 88
    },
    {
      "midi": 74,
      "hit": false,
      "t": 352597.05000000086,
      "d": 581.1682500000461,
      "v": 100
    },
    {
      "midi": 62,
      "hit": false,
      "t": 352598.6733750034,
      "d": 43.83112500002608,
      "v": 89
    },
    {
      "midi": 60,
      "hit": false,
      "t": 352598.6733750034,
      "d": 64.12331250001444,
      "v": 83
    },
    {
      "midi": 69,
      "hit": false,
      "t": 352598.6733750034,
      "d": 80.3570625000284,
      "v": 116
    },
    {
      "midi": 71,
      "hit": false,
      "t": 352791.85500000085,
      "d": 465.0969375000568,
      "v": 72
    },
    {
      "midi": 62,
      "hit": false,
      "t": 352986.6600000009,
      "d": 136.36350000003586,
      "v": 88
    },
    {
      "midi": 62,
      "hit": false,
      "t": 352988.28337500343,
      "d": 43.83112500002608,
      "v": 94
    },
    {
      "midi": 59,
      "hit": false,
      "t": 352988.28337500343,
      "d": 60.06487500004005,
      "v": 88
    },
    {
      "midi": 67,
      "hit": false,
      "t": 352988.28337500343,
      "d": 76.29862500005402,
      "v": 91
    },
    {
      "midi": 62,
      "hit": false,
      "t": 353177.4065625009,
      "d": 773.5381875000894,
      "v": 74
    },
    {
      "midi": 67,
      "hit": false,
      "t": 353376.27000000095,
      "d": 558.4410000000498,
      "v": 94
    },
    {
      "midi": 71,
      "hit": false,
      "t": 353572.69837500097,
      "d": 382.3048125000205,
      "v": 116
    },
    {
      "midi": 55,
      "hit": false,
      "t": 353572.69837500347,
      "d": 491.8826250000275,
      "v": 99
    },
    {
      "midi": 60,
      "hit": false,
      "t": 353572.69837500347,
      "d": 491.8826250000275,
      "v": 104
    },
    {
      "midi": 64,
      "hit": false,
      "t": 353572.69837500347,
      "d": 491.8826250000275,
      "v": 111
    },
    {
      "midi": 62,
      "hit": false,
      "t": 353956.626562501,
      "d": 260.5516874999739,
      "v": 90
    },
    {
      "midi": 64,
      "hit": false,
      "t": 354155.4900000035,
      "d": 77.92200000002049,
      "v": 96
    },
    {
      "midi": 67,
      "hit": false,
      "t": 354157.113375001,
      "d": 228.0841875000042,
      "v": 94
    },
    {
      "midi": 59,
      "hit": false,
      "t": 354157.113375001,
      "d": 329.5451250000042,
      "v": 96
    },
    {
      "midi": 55,
      "hit": false,
      "t": 354157.1133750035,
      "d": 4.8701250000158325,
      "v": 69
    },
    {
      "midi": 67,
      "hit": false,
      "t": 354157.1133750035,
      "d": 80.3570624999702,
      "v": 99
    },
    {
      "midi": 62,
      "hit": false,
      "t": 354351.918375001,
      "d": 222.40237500006333,
      "v": 61
    },
    {
      "midi": 76,
      "hit": false,
      "t": 354546.72337500105,
      "d": 199.67512500000885,
      "v": 84
    },
    {
      "midi": 58,
      "hit": false,
      "t": 354546.72337500105,
      "d": 417.20737499999814,
      "v": 97
    },
    {
      "midi": 60,
      "hit": false,
      "t": 354546.7233750035,
      "d": 69.8051250000135,
      "v": 98
    },
    {
      "midi": 64,
      "hit": false,
      "t": 354546.7233750035,
      "d": 86.03887500002747,
      "v": 96
    },
    {
      "midi": 55,
      "hit": false,
      "t": 354546.7233750035,
      "d": 90.09731250000186,
      "v": 91
    },
    {
      "midi": 62,
      "hit": false,
      "t": 354741.52837500104,
      "d": 463.47356250003213,
      "v": 59
    }
  ]
}