{
  "jsonPath": "Classical/Classical/Felix Mendelssohn/lieder-ohne-worte-op85-no1.json",
  "path": "Classical\\Classical\\Felix Mendelssohn\\Lieder ohne Worte, Op85 No1.mid",
  "name": "Lieder ohne Worte, Op85 No1",
  "difficulty": "Advanced",
  "bpm": 60,
  "notes": [
    {
      "midi": 41,
      "hit": false,
      "t": 0,
      "d": 166.66666666666666,
      "v": 90
    },
    {
      "midi": 48,
      "hit": false,
      "t": 166.66666666666666,
      "d": 166.66666666666666,
      "v": 90
    },
    {
      "midi": 53,
      "hit": false,
      "t": 333.3333333333333,
      "d": 166.66666666666669,
      "v": 90
    },
    {
      "midi": 57,
      "hit": false,
      "t": 500,
      "d": 166.66666666666663,
      "v": 90
    },
    {
      "midi": 60,
      "hit": false,
      "t": 666.6666666666666,
      "d": 166.66666666666663,
      "v": 90
    },
    {
      "midi": 65,
      "hit": false,
      "t": 833.3333333333333,
      "d": 166.66666666666663,
      "v": 90
    },
    {
      "midi": 41,
      "hit": false,
      "t": 1000,
      "d": 166.66666666666674,
      "v": 90
    },
    {
      "midi": 48,
      "hit": false,
      "t": 1166.6666666666667,
      "d": 166.66666666666674,
      "v": 90
    },
    {
      "midi": 53,
      "hit": false,
      "t": 1333.3333333333335,
      "d": 166.66666666666674,
      "v": 90
    },
    {
      "midi": 57,
      "hit": false,
      "t": 1500,
      "d": 166.66666666666674,
      "v": 90
    },
    {
      "midi": 60,
      "hit": false,
      "t": 1666.6666666666667,
      "d": 166.66666666666674,
      "v": 90
    },
    {
      "midi": 65,
      "hit": false,
      "t": 1833.3333333333335,
      "d": 166.66666666666674,
      "v": 90
    },
    {
      "midi": 72,
      "hit": false,
      "t": 2000.0000000000002,
      "d": 499.9999999999998,
      "v": 90
    },
    {
      "midi": 41,
      "hit": false,
      "t": 2000.0000000000002,
      "d": 166.66666666666674,
      "v": 90
    },
    {
      "midi": 48,
      "hit": false,
      "t": 2166.666666666667,
      "d": 166.66666666666652,
      "v": 90
    },
    {
      "midi": 53,
      "hit": false,
      "t": 2333.3333333333335,
      "d": 166.66666666666652,
      "v": 90
    },
    {
      "midi": 57,
      "hit": false,
      "t": 2500,
      "d": 500,
      "v": 90
    },
    {
      "midi": 60,
      "hit": false,
      "t": 2666.6666666666665,
      "d": 166.66666666666652,
      "v": 90
    },
    {
      "midi": 65,
      "hit": false,
      "t": 2833.333333333333,
      "d": 166.66666666666652,
      "v": 90
    },
    {
      "midi": 74,
      "hit": false,
      "t": 2999.9999999999995,
      "d": 500,
      "v": 90
    },
    {
      "midi": 41,
      "hit": false,
      "t": 3000,
      "d": 166.66666666666652,
      "v": 90
    },
    {
      "midi": 50,
      "hit": false,
      "t": 3166.6666666666665,
      "d": 166.66666666666652,
      "v": 90
    },
    {
      "midi": 53,
      "hit": false,
      "t": 3333.333333333333,
      "d": 166.66666666666652,
      "v": 90
    },
    {
      "midi": 77,
      "hit": false,
      "t": 3499.9999999999995,
      "d": 250,
      "v": 90
    },
    {
      "midi": 58,
      "hit": false,
      "t": 3499.9999999999995,
      "d": 500,
      "v": 90
    },
    {
      "midi": 62,
      "hit": false,
      "t": 3499.9999999999995,
      "d": 500,
      "v": 90
    },
    {
      "midi": 65,
      "hit": false,
      "t": 3749.9999999999995,
      "d": 250,
      "v": 90
    },
    {
      "midi": 72,
      "hit": false,
      "t": 3999.9999999999995,
      "d": 500.00000000000045,
      "v": 90
    },
    {
      "midi": 41,
      "hit": false,
      "t": 3999.9999999999995,
      "d": 166.66666666666652,
      "v": 90
    },
    {
      "midi": 48,
      "hit": false,
      "t": 4166.666666666666,
      "d": 166.66666666666697,
      "v": 90
    },
    {
      "midi": 53,
      "hit": false,
      "t": 4333.333333333333,
      "d": 166.66666666666697,
      "v": 90
    },
    {
      "midi": 57,
      "hit": false,
      "t": 4500,
      "d": 500,
      "v": 90
    },
    {
      "midi": 60,
      "hit": false,
      "t": 4666.666666666667,
      "d": 166.66666666666697,
      "v": 90
    },
    {
      "midi": 65,
      "hit": false,
      "t": 4833.333333333334,
      "d": 166.66666666666697,
      "v": 90
    },
    {
      "midi": 41,
      "hit": false,
      "t": 5000,
      "d": 166.66666666666697,
      "v": 90
    },
    {
      "midi": 72,
      "hit": false,
      "t": 5000.000000000001,
      "d": 250,
      "v": 90
    },
    {
      "midi": 48,
      "hit": false,
      "t": 5166.666666666667,
      "d": 166.66666666666697,
      "v": 90
    },
    {
      "midi": 69,
      "hit": false,
      "t": 5250.000000000001,
      "d": 250,
      "v": 90
    },
    {
      "midi": 53,
      "hit": false,
      "t": 5333.333333333334,
      "d": 166.66666666666697,
      "v": 90
    },
    {
      "midi": 67,
      "hit": false,
      "t": 5500.000000000001,
      "d": 166.66666666666697,
      "v": 90
    },
    {
      "midi": 57,
      "hit": false,
      "t": 5500.000000000001,
      "d": 500,
      "v": 90
    },
    {
      "midi": 60,
      "hit": false,
      "t": 5666.666666666668,
      "d": 166.66666666666697,
      "v": 90
    },
    {
      "midi": 65,
      "hit": false,
      "t": 5833.333333333335,
      "d": 166.66666666666697,
      "v": 90
    },
    {
      "midi": 43,
      "hit": false,
      "t": 6000.000000000001,
      "d": 166.66666666666697,
      "v": 90
    },
    {
      "midi": 64,
      "hit": false,
      "t": 6000.000000000002,
      "d": 500,
      "v": 90
    },
    {
      "midi": 48,
      "hit": false,
      "t": 6166.666666666668,
      "d": 166.66666666666697,
      "v": 90
    },
    {
      "midi": 55,
      "hit": false,
      "t": 6333.333333333335,
      "d": 166.66666666666697,
      "v": 90
    },
    {
      "midi": 58,
      "hit": false,
      "t": 6500.000000000002,
      "d": 166.66666666666697,
      "v": 90
    },
    {
      "midi": 60,
      "hit": false,
      "t": 6666.666666666669,
      "d": 166.66666666666697,
      "v": 90
    },
    {
      "midi": 65,
      "hit": false,
      "t": 6833.333333333336,
      "d": 166.66666666666697,
      "v": 90
    },
    {
      "midi": 36,
      "hit": false,
      "t": 7000.000000000002,
      "d": 166.66666666666697,
      "v": 90
    },
    {
      "midi": 67,
      "hit": false,
      "t": 7000.000000000003,
      "d": 500,
      "v": 90
    },
    {
      "midi": 48,
      "hit": false,
      "t": 7166.666666666669,
      "d": 166.66666666666697,
      "v": 90
    },
    {
      "midi": 52,
      "hit": false,
      "t": 7333.333333333336,
      "d": 166.66666666666697,
      "v": 90
    },
    {
      "midi": 70,
      "hit": false,
      "t": 7500.000000000003,
      "d": 250,
      "v": 90
    },
    {
      "midi": 55,
      "hit": false,
      "t": 7500.000000000003,
      "d": 500,
      "v": 90
    },
    {
      "midi": 58,
      "hit": false,
      "t": 7500.000000000003,
      "d": 500,
      "v": 90
    },
    {
      "midi": 60,
      "hit": false,
      "t": 7750.000000000003,
      "d": 250,
      "v": 90
    },
    {
      "midi": 70,
      "hit": false,
      "t": 8000.000000000003,
      "d": 1000.0000000000009,
      "v": 90
    },
    {
      "midi": 41,
      "hit": false,
      "t": 8000.000000000003,
      "d": 166.66666666666697,
      "v": 90
    },
    {
      "midi": 48,
      "hit": false,
      "t": 8166.66666666667,
      "d": 166.66666666666606,
      "v": 90
    },
    {
      "midi": 52,
      "hit": false,
      "t": 8333.333333333336,
      "d": 166.66666666666606,
      "v": 90
    },
    {
      "midi": 55,
      "hit": false,
      "t": 8500.000000000002,
      "d": 166.66666666666606,
      "v": 90
    },
    {
      "midi": 58,
      "hit": false,
      "t": 8666.666666666668,
      "d": 166.66666666666606,
      "v": 90
    },
    {
      "midi": 60,
      "hit": false,
      "t": 8833.333333333334,
      "d": 166.66666666666606,
      "v": 90
    },
    {
      "midi": 41,
      "hit": false,
      "t": 9000,
      "d": 166.66666666666606,
      "v": 90
    },
    {
      "midi": 69,
      "hit": false,
      "t": 9000.000000000004,
      "d": 500,
      "v": 90
    },
    {
      "midi": 48,
      "hit": false,
      "t": 9166.666666666666,
      "d": 166.66666666666606,
      "v": 90
    },
    {
      "midi": 53,
      "hit": false,
      "t": 9333.333333333332,
      "d": 166.66666666666606,
      "v": 90
    },
    {
      "midi": 57,
      "hit": false,
      "t": 9500.000000000004,
      "d": 166.66666666666606,
      "v": 90
    },
    {
      "midi": 60,
      "hit": false,
      "t": 9666.66666666667,
      "d": 166.66666666666606,
      "v": 90
    },
    {
      "midi": 65,
      "hit": false,
      "t": 9833.333333333336,
      "d": 166.66666666666606,
      "v": 90
    },
    {
      "midi": 38,
      "hit": false,
      "t": 9999.999999999998,
      "d": 166.66666666666606,
      "v": 90
    },
    {
      "midi": 69,
      "hit": false,
      "t": 10000.000000000002,
      "d": 500,
      "v": 90
    },
    {
      "midi": 50,
      "hit": false,
      "t": 10166.666666666664,
      "d": 166.66666666666606,
      "v": 90
    },
    {
      "midi": 53,
      "hit": false,
      "t": 10333.33333333333,
      "d": 166.66666666666606,
      "v": 90
    },
    {
      "midi": 57,
      "hit": false,
      "t": 10499.999999999996,
      "d": 500,
      "v": 90
    },
    {
      "midi": 62,
      "hit": false,
      "t": 10666.666666666668,
      "d": 166.66666666666606,
      "v": 90
    },
    {
      "midi": 65,
      "hit": false,
      "t": 10833.333333333334,
      "d": 166.66666666666606,
      "v": 90
    },
    {
      "midi": 38,
      "hit": false,
      "t": 10999.999999999996,
      "d": 166.66666666666606,
      "v": 90
    },
    {
      "midi": 70,
      "hit": false,
      "t": 11000,
      "d": 500,
      "v": 90
    },
    {
      "midi": 50,
      "hit": false,
      "t": 11166.666666666662,
      "d": 166.66666666666606,
      "v": 90
    },
    {
      "midi": 52,
      "hit": false,
      "t": 11333.333333333328,
      "d": 166.66666666666606,
      "v": 90
    },
    {
      "midi": 55,
      "hit": false,
      "t": 11499.999999999995,
      "d": 500,
      "v": 90
    },
    {
      "midi": 58,
      "hit": false,
      "t": 11499.999999999995,
      "d": 500,
      "v": 90
    },
    {
      "midi": 74,
      "hit": false,
      "t": 11500,
      "d": 250,
      "v": 90
    },
    {
      "midi": 62,
      "hit": false,
      "t": 11750,
      "d": 250,
      "v": 90
    },
    {
      "midi": 38,
      "hit": false,
      "t": 11999.999999999995,
      "d": 166.66666666666606,
      "v": 90
    },
    {
      "midi": 69,
      "hit": false,
      "t": 12000,
      "d": 500,
      "v": 90
    },
    {
      "midi": 50,
      "hit": false,
      "t": 12166.66666666666,
      "d": 166.66666666666606,
      "v": 90
    },
    {
      "midi": 53,
      "hit": false,
      "t": 12333.333333333327,
      "d": 166.66666666666606,
      "v": 90
    },
    {
      "midi": 57,
      "hit": false,
      "t": 12499.999999999993,
      "d": 500,
      "v": 90
    },
    {
      "midi": 62,
      "hit": false,
      "t": 12666.666666666666,
      "d": 166.66666666666606,
      "v": 90
    },
    {
      "midi": 65,
      "hit": false,
      "t": 12833.333333333332,
      "d": 166.66666666666606,
      "v": 90
    },
    {
      "midi": 38,
      "hit": false,
      "t": 12999.999999999993,
      "d": 166.66666666666606,
      "v": 90
    },
    {
      "midi": 70,
      "hit": false,
      "t": 12999.999999999998,
      "d": 500,
      "v": 90
    },
    {
      "midi": 50,
      "hit": false,
      "t": 13166.666666666659,
      "d": 166.66666666666606,
      "v": 90
    },
    {
      "midi": 52,
      "hit": false,
      "t": 13333.333333333325,
      "d": 166.66666666666606,
      "v": 90
    },
    {
      "midi": 55,
      "hit": false,
      "t": 13499.99999999999,
      "d": 500,
      "v": 90
    },
    {
      "midi": 58,
      "hit": false,
      "t": 13499.99999999999,
      "d": 500,
      "v": 90
    },
    {
      "midi": 74,
      "hit": false,
      "t": 13499.999999999998,
      "d": 250,
      "v": 90
    },
    {
      "midi": 62,
      "hit": false,
      "t": 13749.999999999998,
      "d": 250,
      "v": 90
    },
    {
      "midi": 38,
      "hit": false,
      "t": 13999.99999999999,
      "d": 166.66666666666606,
      "v": 90
    },
    {
      "midi": 69,
      "hit": false,
      "t": 13999.999999999998,
      "d": 750,
      "v": 90
    },
    {
      "midi": 50,
      "hit": false,
      "t": 14166.666666666657,
      "d": 166.66666666666606,
      "v": 90
    },
    {
      "midi": 53,
      "hit": false,
      "t": 14333.333333333323,
      "d": 166.66666666666606,
      "v": 90
    },
    {
      "midi": 57,
      "hit": false,
      "t": 14499.999999999989,
      "d": 500,
      "v": 90
    },
    {
      "midi": 62,
      "hit": false,
      "t": 14749.999999999998,
      "d": 250,
      "v": 90
    },
    {
      "midi": 65,
      "hit": false,
      "t": 14749.999999999998,
      "d": 250,
      "v": 90
    },
    {
      "midi": 69,
      "hit": false,
      "t": 14749.999999999998,
      "d": 250,
      "v": 90
    },
    {
      "midi": 34,
      "hit": false,
      "t": 14999.999999999989,
      "d": 166.66666666666606,
      "v": 90
    },
    {
      "midi": 72,
      "hit": false,
      "t": 14999.999999999998,
      "d": 250,
      "v": 90
    },
    {
      "midi": 46,
      "hit": false,
      "t": 15166.666666666655,
      "d": 166.66666666666606,
      "v": 90
    },
    {
      "midi": 70,
      "hit": false,
      "t": 15249.999999999998,
      "d": 250,
      "v": 90
    },
    {
      "midi": 50,
      "hit": false,
      "t": 15333.333333333321,
      "d": 166.66666666666606,
      "v": 90
    },
    {
      "midi": 53,
      "hit": false,
      "t": 15499.999999999987,
      "d": 500,
      "v": 90
    },
    {
      "midi": 55,
      "hit": false,
      "t": 15499.999999999987,
      "d": 500,
      "v": 90
    },
    {
      "midi": 69,
      "hit": false,
      "t": 15499.999999999998,
      "d": 250,
      "v": 90
    },
    {
      "midi": 62,
      "hit": false,
      "t": 15749.999999999998,
      "d": 250,
      "v": 90
    },
    {
      "midi": 67,
      "hit": false,
      "t": 15749.999999999998,
      "d": 250,
      "v": 90
    },
    {
      "midi": 36,
      "hit": false,
      "t": 15999.999999999987,
      "d": 166.66666666666606,
      "v": 90
    },
    {
      "midi": 67,
      "hit": false,
      "t": 15999.999999999998,
      "d": 750.0000000000018,
      "v": 90
    },
    {
      "midi": 48,
      "hit": false,
      "t": 16166.666666666653,
      "d": 166.66666666666606,
      "v": 90
    },
    {
      "midi": 52,
      "hit": false,
      "t": 16333.33333333332,
      "d": 166.66666666666606,
      "v": 90
    },
    {
      "midi": 55,
      "hit": false,
      "t": 16499.999999999985,
      "d": 500,
      "v": 90
    },
    {
      "midi": 58,
      "hit": false,
      "t": 16499.999999999985,
      "d": 500,
      "v": 90
    },
    {
      "midi": 60,
      "hit": false,
      "t": 16750,
      "d": 250,
      "v": 90
    },
    {
      "midi": 66,
      "hit": false,
      "t": 16750,
      "d": 250,
      "v": 90
    },
    {
      "midi": 48,
      "hit": false,
      "t": 16999.999999999985,
      "d": 1000,
      "v": 90
    },
    {
      "midi": 58,
      "hit": false,
      "t": 16999.999999999985,
      "d": 1000,
      "v": 90
    },
    {
      "midi": 67,
      "hit": false,
      "t": 17000,
      "d": 250,
      "v": 90
    },
    {
      "midi": 60,
      "hit": false,
      "t": 17250,
      "d": 250,
      "v": 90
    },
    {
      "midi": 69,
      "hit": false,
      "t": 17250,
      "d": 250,
      "v": 90
    },
    {
      "midi": 70,
      "hit": false,
      "t": 17500,
      "d": 166.66666666666788,
      "v": 90
    },
    {
      "midi": 67,
      "hit": false,
      "t": 17666.666666666668,
      "d": 166.66666666666788,
      "v": 90
    },
    {
      "midi": 71,
      "hit": false,
      "t": 17833.333333333336,
      "d": 166.66666666666788,
      "v": 90
    },
    {
      "midi": 41,
      "hit": false,
      "t": 17999.999999999985,
      "d": 166.66666666666788,
      "v": 90
    },
    {
      "midi": 72,
      "hit": false,
      "t": 18000.000000000004,
      "d": 500,
      "v": 90
    },
    {
      "midi": 48,
      "hit": false,
      "t": 18166.666666666653,
      "d": 166.66666666666788,
      "v": 90
    },
    {
      "midi": 53,
      "hit": false,
      "t": 18333.33333333332,
      "d": 166.66666666666788,
      "v": 90
    },
    {
      "midi": 57,
      "hit": false,
      "t": 18499.99999999999,
      "d": 500,
      "v": 90
    },
    {
      "midi": 60,
      "hit": false,
      "t": 18666.66666666667,
      "d": 166.66666666666788,
      "v": 90
    },
    {
      "midi": 65,
      "hit": false,
      "t": 18833.33333333334,
      "d": 166.66666666666788,
      "v": 90
    },
    {
      "midi": 41,
      "hit": false,
      "t": 18999.99999999999,
      "d": 166.66666666666788,
      "v": 90
    },
    {
      "midi": 74,
      "hit": false,
      "t": 19000.000000000007,
      "d": 500,
      "v": 90
    },
    {
      "midi": 50,
      "hit": false,
      "t": 19166.666666666657,
      "d": 166.66666666666788,
      "v": 90
    },
    {
      "midi": 53,
      "hit": false,
      "t": 19333.333333333325,
      "d": 166.66666666666788,
      "v": 90
    },
    {
      "midi": 58,
      "hit": false,
      "t": 19499.999999999993,
      "d": 500,
      "v": 90
    },
    {
      "midi": 62,
      "hit": false,
      "t": 19499.999999999993,
      "d": 500,
      "v": 90
    },
    {
      "midi": 77,
      "hit": false,
      "t": 19500.000000000007,
      "d": 250,
      "v": 90
    },
    {
      "midi": 65,
      "hit": false,
      "t": 19750.000000000007,
      "d": 250,
      "v": 90
    },
    {
      "midi": 41,
      "hit": false,
      "t": 19999.999999999993,
      "d": 166.66666666666788,
      "v": 90
    },
    {
      "midi": 72,
      "hit": false,
      "t": 20000.000000000007,
      "d": 750,
      "v": 90
    },
    {
      "midi": 48,
      "hit": false,
      "t": 20166.66666666666,
      "d": 166.66666666666788,
      "v": 90
    },
    {
      "midi": 53,
      "hit": false,
      "t": 20333.33333333333,
      "d": 166.66666666666788,
      "v": 90
    },
    {
      "midi": 57,
      "hit": false,
      "t": 20499.999999999996,
      "d": 500,
      "v": 90
    },
    {
      "midi": 60,
      "hit": false,
      "t": 20499.999999999996,
      "d": 500,
      "v": 90
    },
    {
      "midi": 65,
      "hit": false,
      "t": 20750.000000000007,
      "d": 250,
      "v": 90
    },
    {
      "midi": 69,
      "hit": false,
      "t": 20750.000000000007,
      "d": 250,
      "v": 90
    },
    {
      "midi": 45,
      "hit": false,
      "t": 20999.999999999996,
      "d": 166.66666666666788,
      "v": 90
    },
    {
      "midi": 72,
      "hit": false,
      "t": 21000.000000000007,
      "d": 250,
      "v": 90
    },
    {
      "midi": 48,
      "hit": false,
      "t": 21166.666666666664,
      "d": 166.66666666666788,
      "v": 90
    },
    {
      "midi": 69,
      "hit": false,
      "t": 21250.000000000007,
      "d": 250,
      "v": 90
    },
    {
      "midi": 53,
      "hit": false,
      "t": 21333.333333333332,
      "d": 166.66666666666788,
      "v": 90
    },
    {
      "midi": 57,
      "hit": false,
      "t": 21500,
      "d": 500,
      "v": 90
    },
    {
      "midi": 67,
      "hit": false,
      "t": 21500.000000000007,
      "d": 166.66666666666788,
      "v": 90
    },
    {
      "midi": 60,
      "hit": false,
      "t": 21666.666666666675,
      "d": 166.66666666666788,
      "v": 90
    },
    {
      "midi": 65,
      "hit": false,
      "t": 21833.333333333343,
      "d": 166.66666666666788,
      "v": 90
    },
    {
      "midi": 43,
      "hit": false,
      "t": 22000,
      "d": 166.66666666666788,
      "v": 90
    },
    {
      "midi": 64,
      "hit": false,
      "t": 22000.00000000001,
      "d": 500,
      "v": 90
    },
    {
      "midi": 48,
      "hit": false,
      "t": 22166.666666666668,
      "d": 166.66666666666788,
      "v": 90
    },
    {
      "midi": 55,
      "hit": false,
      "t": 22333.333333333336,
      "d": 166.66666666666788,
      "v": 90
    },
    {
      "midi": 58,
      "hit": false,
      "t": 22500.00000000001,
      "d": 166.66666666666788,
      "v": 90
    },
    {
      "midi": 60,
      "hit": false,
      "t": 22666.66666666668,
      "d": 166.66666666666788,
      "v": 90
    },
    {
      "midi": 65,
      "hit": false,
      "t": 22833.333333333347,
      "d": 166.66666666666788,
      "v": 90
    },
    {
      "midi": 40,
      "hit": false,
      "t": 23000.000000000004,
      "d": 166.66666666666788,
      "v": 90
    },
    {
      "midi": 67,
      "hit": false,
      "t": 23000.000000000015,
      "d": 500,
      "v": 90
    },
    {
      "midi": 48,
      "hit": false,
      "t": 23166.66666666667,
      "d": 166.66666666666788,
      "v": 90
    },
    {
      "midi": 52,
      "hit": false,
      "t": 23333.33333333334,
      "d": 166.66666666666788,
      "v": 90
    },
    {
      "midi": 55,
      "hit": false,
      "t": 23500.000000000007,
      "d": 500,
      "v": 90
    },
    {
      "midi": 58,
      "hit": false,
      "t": 23500.000000000007,
      "d": 500,
      "v": 90
    },
    {
      "midi": 70,
      "hit": false,
      "t": 23500.000000000015,
      "d": 250,
      "v": 90
    },
    {
      "midi": 60,
      "hit": false,
      "t": 23750.000000000015,
      "d": 250,
      "v": 90
    },
    {
      "midi": 36,
      "hit": false,
      "t": 24000.000000000007,
      "d": 166.66666666666788,
      "v": 90
    },
    {
      "midi": 70,
      "hit": false,
      "t": 24000.000000000015,
      "d": 750,
      "v": 90
    },
    {
      "midi": 48,
      "hit": false,
      "t": 24166.666666666675,
      "d": 166.66666666666788,
      "v": 90
    },
    {
      "midi": 52,
      "hit": false,
      "t": 24333.333333333343,
      "d": 166.66666666666788,
      "v": 90
    },
    {
      "midi": 55,
      "hit": false,
      "t": 24500.00000000001,
      "d": 500,
      "v": 90
    },
    {
      "midi": 58,
      "hit": false,
      "t": 24500.00000000001,
      "d": 500,
      "v": 90
    },
    {
      "midi": 60,
      "hit": false,
      "t": 24750.000000000015,
      "d": 250,
      "v": 90
    },
    {
      "midi": 41,
      "hit": false,
      "t": 25000.00000000001,
      "d": 166.66666666666788,
      "v": 90
    },
    {
      "midi": 69,
      "hit": false,
      "t": 25000.000000000015,
      "d": 500,
      "v": 90
    },
    {
      "midi": 48,
      "hit": false,
      "t": 25166.66666666668,
      "d": 166.66666666666788,
      "v": 90
    },
    {
      "midi": 53,
      "hit": false,
      "t": 25333.333333333347,
      "d": 166.66666666666788,
      "v": 90
    },
    {
      "midi": 57,
      "hit": false,
      "t": 25500.000000000015,
      "d": 166.66666666666788,
      "v": 90
    },
    {
      "midi": 60,
      "hit": false,
      "t": 25666.666666666682,
      "d": 166.66666666666788,
      "v": 90
    },
    {
      "midi": 65,
      "hit": false,
      "t": 25833.33333333335,
      "d": 166.66666666666788,
      "v": 90
    },
    {
      "midi": 33,
      "hit": false,
      "t": 26000.000000000015,
      "d": 166.66666666666788,
      "v": 90
    },
    {
      "midi": 64,
      "hit": false,
      "t": 26000.00000000002,
      "d": 500,
      "v": 90
    },
    {
      "midi": 45,
      "hit": false,
      "t": 26166.666666666682,
      "d": 166.66666666666788,
      "v": 90
    },
    {
      "midi": 49,
      "hit": false,
      "t": 26333.33333333335,
      "d": 166.66666666666788,
      "v": 90
    },
    {
      "midi": 52,
      "hit": false,
      "t": 26500.00000000002,
      "d": 500,
      "v": 90
    },
    {
      "midi": 57,
      "hit": false,
      "t": 26666.666666666686,
      "d": 166.66666666666788,
      "v": 90
    },
    {
      "midi": 61,
      "hit": false,
      "t": 26833.333333333354,
      "d": 166.66666666666788,
      "v": 90
    },
    {
      "midi": 33,
      "hit": false,
      "t": 27000.00000000002,
      "d": 166.66666666666788,
      "v": 90
    },
    {
      "midi": 65,
      "hit": false,
      "t": 27000.000000000022,
      "d": 500,
      "v": 90
    },
    {
      "midi": 45,
      "hit": false,
      "t": 27166.666666666686,
      "d": 166.66666666666788,
      "v": 90
    },
    {
      "midi": 47,
      "hit": false,
      "t": 27333.333333333354,
      "d": 166.66666666666788,
      "v": 90
    },
    {
      "midi": 69,
      "hit": false,
      "t": 27500.000000000022,
      "d": 250,
      "v": 90
    },
    {
      "midi": 50,
      "hit": false,
      "t": 27500.000000000022,
      "d": 500,
      "v": 90
    },
    {
      "midi": 53,
      "hit": false,
      "t": 27500.000000000022,
      "d": 500,
      "v": 90
    },
    {
      "midi": 57,
      "hit": false,
      "t": 27750.000000000022,
      "d": 250,
      "v": 90
    },
    {
      "midi": 64,
      "hit": false,
      "t": 28000.000000000022,
      "d": 500,
      "v": 90
    },
    {
      "midi": 33,
      "hit": false,
      "t": 28000.000000000022,
      "d": 166.66666666666788,
      "v": 90
    },
    {
      "midi": 45,
      "hit": false,
      "t": 28166.66666666669,
      "d": 166.66666666666788,
      "v": 90
    },
    {
      "midi": 49,
      "hit": false,
      "t": 28333.333333333358,
      "d": 166.66666666666788,
      "v": 90
    },
    {
      "midi": 52,
      "hit": false,
      "t": 28500.000000000025,
      "d": 500,
      "v": 90
    },
    {
      "midi": 57,
      "hit": false,
      "t": 28666.66666666669,
      "d": 166.66666666666788,
      "v": 90
    },
    {
      "midi": 61,
      "hit": false,
      "t": 28833.333333333358,
      "d": 166.66666666666788,
      "v": 90
    },
    {
      "midi": 65,
      "hit": false,
      "t": 29000.000000000025,
      "d": 500,
      "v": 90
    },
    {
      "midi": 38,
      "hit": false,
      "t": 29000.000000000025,
      "d": 166.66666666666788,
      "v": 90
    },
    {
      "midi": 45,
      "hit": false,
      "t": 29166.666666666693,
      "d": 166.66666666666788,
      "v": 90
    },
    {
      "midi": 50,
      "hit": false,
      "t": 29333.33333333336,
      "d": 166.66666666666788,
      "v": 90
    },
    {
      "midi": 69,
      "hit": false,
      "t": 29500.000000000025,
      "d": 166.66666666666788,
      "v": 90
    },
    {
      "midi": 53,
      "hit": false,
      "t": 29500.00000000003,
      "d": 500,
      "v": 90
    },
    {
      "midi": 57,
      "hit": false,
      "t": 29666.666666666693,
      "d": 166.66666666666788,
      "v": 90
    },
    {
      "midi": 59,
      "hit": false,
      "t": 29833.33333333336,
      "d": 166.66666666666788,
      "v": 90
    },
    {
      "midi": 64,
      "hit": false,
      "t": 30000.00000000003,
      "d": 500,
      "v": 90
    },
    {
      "midi": 40,
      "hit": false,
      "t": 30000.00000000003,
      "d": 166.66666666666788,
      "v": 90
    },
    {
      "midi": 48,
      "hit": false,
      "t": 30166.666666666697,
      "d": 166.66666666666788,
      "v": 90
    },
    {
      "midi": 52,
      "hit": false,
      "t": 30333.333333333365,
      "d": 166.66666666666788,
      "v": 90
    },
    {
      "midi": 57,
      "hit": false,
      "t": 30500.000000000033,
      "d": 500,
      "v": 90
    },
    {
      "midi": 60,
      "hit": false,
      "t": 30666.666666666697,
      "d": 166.66666666666788,
      "v": 90
    },
    {
      "midi": 64,
      "hit": false,
      "t": 30833.333333333365,
      "d": 166.66666666666788,
      "v": 90
    },
    {
      "midi": 68,
      "hit": false,
      "t": 31000.000000000033,
      "d": 500,
      "v": 90
    },
    {
      "midi": 40,
      "hit": false,
      "t": 31000.000000000033,
      "d": 166.66666666666788,
      "v": 90
    },
    {
      "midi": 50,
      "hit": false,
      "t": 31166.6666666667,
      "d": 166.66666666666788,
      "v": 90
    },
    {
      "midi": 52,
      "hit": false,
      "t": 31333.33333333337,
      "d": 166.66666666666788,
      "v": 90
    },
    {
      "midi": 71,
      "hit": false,
      "t": 31500.000000000033,
      "d": 250,
      "v": 90
    },
    {
      "midi": 56,
      "hit": false,
      "t": 31500.000000000036,
      "d": 500,
      "v": 90
    },
    {
      "midi": 59,
      "hit": false,
      "t": 31500.000000000036,
      "d": 500,
      "v": 90
    },
    {
      "midi": 64,
      "hit": false,
      "t": 31750.000000000033,
      "d": 250,
      "v": 90
    },
    {
      "midi": 69,
      "hit": false,
      "t": 32000.000000000033,
      "d": 500,
      "v": 90
    },
    {
      "midi": 33,
      "hit": false,
      "t": 32000.000000000036,
      "d": 166.66666666666788,
      "v": 90
    },
    {
      "midi": 45,
      "hit": false,
      "t": 32166.666666666704,
      "d": 166.66666666666788,
      "v": 90
    },
    {
      "midi": 48,
      "hit": false,
      "t": 32333.333333333372,
      "d": 166.66666666666788,
      "v": 90
    },
    {
      "midi": 52,
      "hit": false,
      "t": 32500.00000000004,
      "d": 500.00000000000364,
      "v": 90
    },
    {
      "midi": 57,
      "hit": false,
      "t": 32666.6666666667,
      "d": 166.66666666666424,
      "v": 90
    },
    {
      "midi": 60,
      "hit": false,
      "t": 32833.333333333365,
      "d": 166.66666666666424,
      "v": 90
    },
    {
      "midi": 33,
      "hit": false,
      "t": 33000.000000000044,
      "d": 166.66666666666424,
      "v": 90
    },
    {
      "midi": 45,
      "hit": false,
      "t": 33166.66666666671,
      "d": 166.66666666666424,
      "v": 90
    },
    {
      "midi": 48,
      "hit": false,
      "t": 33333.33333333337,
      "d": 166.66666666666424,
      "v": 90
    },
    {
      "midi": 69,
      "hit": false,
      "t": 33500.00000000003,
      "d": 166.66666666666424,
      "v": 90
    },
    {
      "midi": 52,
      "hit": false,
      "t": 33500.00000000004,
      "d": 500,
      "v": 90
    },
    {
      "midi": 57,
      "hit": false,
      "t": 33666.66666666669,
      "d": 166.66666666666424,
      "v": 90
    },
    {
      "midi": 60,
      "hit": false,
      "t": 33833.33333333336,
      "d": 166.66666666666424,
      "v": 90
    },
    {
      "midi": 69,
      "hit": false,
      "t": 34000.00000000002,
      "d": 500,
      "v": 90
    },
    {
      "midi": 36,
      "hit": false,
      "t": 34000.00000000004,
      "d": 166.66666666666424,
      "v": 90
    },
    {
      "midi": 48,
      "hit": false,
      "t": 34166.6666666667,
      "d": 166.66666666666424,
      "v": 90
    },
    {
      "midi": 51,
      "hit": false,
      "t": 34333.333333333365,
      "d": 166.66666666666424,
      "v": 90
    },
    {
      "midi": 69,
      "hit": false,
      "t": 34500.00000000002,
      "d": 166.66666666666424,
      "v": 90
    },
    {
      "midi": 57,
      "hit": false,
      "t": 34500.00000000003,
      "d": 500,
      "v": 90
    },
    {
      "midi": 60,
      "hit": false,
      "t": 34666.666666666686,
      "d": 166.66666666666424,
      "v": 90
    },
    {
      "midi": 63,
      "hit": false,
      "t": 34833.33333333335,
      "d": 166.66666666666424,
      "v": 90
    },
    {
      "midi": 72,
      "hit": false,
      "t": 35000.000000000015,
      "d": 500,
      "v": 90
    },
    {
      "midi": 36,
      "hit": false,
      "t": 35000.00000000003,
      "d": 166.66666666666424,
      "v": 90
    },
    {
      "midi": 48,
      "hit": false,
      "t": 35166.66666666669,
      "d": 166.66666666666424,
      "v": 90
    },
    {
      "midi": 51,
      "hit": false,
      "t": 35333.33333333336,
      "d": 166.66666666666424,
      "v": 90
    },
    {
      "midi": 70,
      "hit": false,
      "t": 35500.000000000015,
      "d": 250,
      "v": 90
    },
    {
      "midi": 57,
      "hit": false,
      "t": 35500.00000000002,
      "d": 500,
      "v": 90
    },
    {
      "midi": 60,
      "hit": false,
      "t": 35750.000000000015,
      "d": 250,
      "v": 90
    },
    {
      "midi": 63,
      "hit": false,
      "t": 35750.000000000015,
      "d": 250,
      "v": 90
    },
    {
      "midi": 69,
      "hit": false,
      "t": 35750.000000000015,
      "d": 250,
      "v": 90
    },
    {
      "midi": 67,
      "hit": false,
      "t": 36000.000000000015,
      "d": 500,
      "v": 90
    },
    {
      "midi": 38,
      "hit": false,
      "t": 36000.00000000002,
      "d": 166.66666666666424,
      "v": 90
    },
    {
      "midi": 50,
      "hit": false,
      "t": 36166.666666666686,
      "d": 166.66666666666424,
      "v": 90
    },
    {
      "midi": 57,
      "hit": false,
      "t": 36333.33333333335,
      "d": 166.66666666666424,
      "v": 90
    },
    {
      "midi": 60,
      "hit": false,
      "t": 36500.000000000015,
      "d": 500,
      "v": 90
    },
    {
      "midi": 62,
      "hit": false,
      "t": 36666.66666666668,
      "d": 166.66666666666424,
      "v": 90
    },
    {
      "midi": 66,
      "hit": false,
      "t": 36833.33333333334,
      "d": 166.66666666666424,
      "v": 90
    },
    {
      "midi": 69,
      "hit": false,
      "t": 37000.00000000001,
      "d": 500,
      "v": 90
    },
    {
      "midi": 38,
      "hit": false,
      "t": 37000.000000000015,
      "d": 166.66666666666424,
      "v": 90
    },
    {
      "midi": 50,
      "hit": false,
      "t": 37166.66666666668,
      "d": 166.66666666666424,
      "v": 90
    },
    {
      "midi": 54,
      "hit": false,
      "t": 37333.33333333334,
      "d": 166.66666666666424,
      "v": 90
    },
    {
      "midi": 60,
      "hit": false,
      "t": 37500.00000000001,
      "d": 500,
      "v": 90
    },
    {
      "midi": 62,
      "hit": false,
      "t": 37500.00000000001,
      "d": 500,
      "v": 90
    },
    {
      "midi": 57,
      "hit": false,
      "t": 37500.00000000001,
      "d": 500,
      "v": 90
    },
    {
      "midi": 70,
      "hit": false,
      "t": 38000.00000000001,
      "d": 500,
      "v": 90
    },
    {
      "midi": 43,
      "hit": false,
      "t": 38000.00000000001,
      "d": 166.66666666666424,
      "v": 90
    },
    {
      "midi": 50,
      "hit": false,
      "t": 38166.66666666667,
      "d": 166.66666666666424,
      "v": 90
    },
    {
      "midi": 55,
      "hit": false,
      "t": 38333.333333333336,
      "d": 166.66666666666424,
      "v": 90
    },
    {
      "midi": 58,
      "hit": false,
      "t": 38500,
      "d": 500,
      "v": 90
    },
    {
      "midi": 70,
      "hit": false,
      "t": 38500.00000000001,
      "d": 166.66666666666424,
      "v": 90
    },
    {
      "midi": 62,
      "hit": false,
      "t": 38666.66666666667,
      "d": 166.66666666666424,
      "v": 90
    },
    {
      "midi": 67,
      "hit": false,
      "t": 38833.333333333336,
      "d": 166.66666666666424,
      "v": 90
    },
    {
      "midi": 75,
      "hit": false,
      "t": 39000,
      "d": 500,
      "v": 90
    },
    {
      "midi": 39,
      "hit": false,
      "t": 39000,
      "d": 166.66666666666424,
      "v": 90
    },
    {
      "midi": 51,
      "hit": false,
      "t": 39166.666666666664,
      "d": 166.66666666666424,
      "v": 90
    },
    {
      "midi": 55,
      "hit": false,
      "t": 39333.33333333333,
      "d": 166.66666666666424,
      "v": 90
    },
    {
      "midi": 60,
      "hit": false,
      "t": 39499.99999999999,
      "d": 500,
      "v": 90
    },
    {
      "midi": 74,
      "hit": false,
      "t": 39500,
      "d": 250,
      "v": 90
    },
    {
      "midi": 63,
      "hit": false,
      "t": 39750,
      "d": 250,
      "v": 90
    },
    {
      "midi": 67,
      "hit": false,
      "t": 39750,
      "d": 250,
      "v": 90
    },
    {
      "midi": 72,
      "hit": false,
      "t": 39750,
      "d": 250,
      "v": 90
    },
    {
      "midi": 41,
      "hit": false,
      "t": 39999.99999999999,
      "d": 166.66666666666424,
      "v": 90
    },
    {
      "midi": 70,
      "hit": false,
      "t": 40000,
      "d": 500,
      "v": 90
    },
    {
      "midi": 51,
      "hit": false,
      "t": 40166.66666666666,
      "d": 166.66666666666424,
      "v": 90
    },
    {
      "midi": 53,
      "hit": false,
      "t": 40333.33333333332,
      "d": 166.66666666666424,
      "v": 90
    },
    {
      "midi": 60,
      "hit": false,
      "t": 40500,
      "d": 166.66666666666424,
      "v": 90
    },
    {
      "midi": 63,
      "hit": false,
      "t": 40666.666666666664,
      "d": 166.66666666666424,
      "v": 90
    },
    {
      "midi": 69,
      "hit": false,
      "t": 40833.33333333333,
      "d": 166.66666666666424,
      "v": 90
    },
    {
      "midi": 41,
      "hit": false,
      "t": 40999.999999999985,
      "d": 166.66666666666424,
      "v": 90
    },
    {
      "midi": 72,
      "hit": false,
      "t": 40999.99999999999,
      "d": 500,
      "v": 90
    },
    {
      "midi": 53,
      "hit": false,
      "t": 41166.66666666665,
      "d": 166.66666666666424,
      "v": 90
    },
    {
      "midi": 57,
      "hit": false,
      "t": 41333.333333333314,
      "d": 166.66666666666424,
      "v": 90
    },
    {
      "midi": 60,
      "hit": false,
      "t": 41499.99999999999,
      "d": 500,
      "v": 90
    },
    {
      "midi": 63,
      "hit": false,
      "t": 41499.99999999999,
      "d": 500,
      "v": 90
    },
    {
      "midi": 65,
      "hit": false,
      "t": 41499.99999999999,
      "d": 500,
      "v": 90
    },
    {
      "midi": 46,
      "hit": false,
      "t": 41999.99999999998,
      "d": 166.66666666666424,
      "v": 90
    },
    {
      "midi": 74,
      "hit": false,
      "t": 41999.99999999999,
      "d": 500,
      "v": 90
    },
    {
      "midi": 53,
      "hit": false,
      "t": 42166.66666666664,
      "d": 166.66666666666424,
      "v": 90
    },
    {
      "midi": 58,
      "hit": false,
      "t": 42333.33333333331,
      "d": 166.66666666666424,
      "v": 90
    },
    {
      "midi": 74,
      "hit": false,
      "t": 42499.99999999999,
      "d": 166.66666666666424,
      "v": 90
    },
    {
      "midi": 65,
      "hit": false,
      "t": 42666.66666666666,
      "d": 166.66666666666424,
      "v": 90
    },
    {
      "midi": 70,
      "hit": false,
      "t": 42833.33333333332,
      "d": 166.66666666666424,
      "v": 90
    },
    {
      "midi": 46,
      "hit": false,
      "t": 42999.99999999997,
      "d": 166.66666666666424,
      "v": 90
    },
    {
      "midi": 82,
      "hit": false,
      "t": 42999.999999999985,
      "d": 500,
      "v": 90
    },
    {
      "midi": 55,
      "hit": false,
      "t": 43166.666666666635,
      "d": 166.66666666666424,
      "v": 90
    },
    {
      "midi": 58,
      "hit": false,
      "t": 43333.3333333333,
      "d": 166.66666666666424,
      "v": 90
    },
    {
      "midi": 62,
      "hit": false,
      "t": 43499.999999999985,
      "d": 250,
      "v": 90
    },
    {
      "midi": 81,
      "hit": false,
      "t": 43499.999999999985,
      "d": 250,
      "v": 90
    },
    {
      "midi": 67,
      "hit": false,
      "t": 43749.999999999985,
      "d": 250,
      "v": 90
    },
    {
      "midi": 70,
      "hit": false,
      "t": 43749.999999999985,
      "d": 250,
      "v": 90
    },
    {
      "midi": 79,
      "hit": false,
      "t": 43749.999999999985,
      "d": 250,
      "v": 90
    },
    {
      "midi": 46,
      "hit": false,
      "t": 43999.99999999996,
      "d": 166.66666666666424,
      "v": 90
    },
    {
      "midi": 77,
      "hit": false,
      "t": 43999.999999999985,
      "d": 500,
      "v": 90
    },
    {
      "midi": 55,
      "hit": false,
      "t": 44166.66666666663,
      "d": 166.66666666666424,
      "v": 90
    },
    {
      "midi": 60,
      "hit": false,
      "t": 44333.33333333329,
      "d": 166.66666666666424,
      "v": 90
    },
    {
      "midi": 64,
      "hit": false,
      "t": 44499.999999999956,
      "d": 500,
      "v": 90
    },
    {
      "midi": 76,
      "hit": false,
      "t": 44499.999999999985,
      "d": 166.66666666666424,
      "v": 90
    },
    {
      "midi": 67,
      "hit": false,
      "t": 44666.66666666665,
      "d": 166.66666666666424,
      "v": 90
    },
    {
      "midi": 72,
      "hit": false,
      "t": 44833.333333333314,
      "d": 166.66666666666424,
      "v": 90
    },
    {
      "midi": 45,
      "hit": false,
      "t": 44999.999999999956,
      "d": 166.66666666666424,
      "v": 90
    },
    {
      "midi": 79,
      "hit": false,
      "t": 44999.99999999998,
      "d": 500,
      "v": 90
    },
    {
      "midi": 57,
      "hit": false,
      "t": 45166.66666666662,
      "d": 166.66666666666424,
      "v": 90
    },
    {
      "midi": 60,
      "hit": false,
      "t": 45333.333333333285,
      "d": 166.66666666666424,
      "v": 90
    },
    {
      "midi": 77,
      "hit": false,
      "t": 45499.99999999998,
      "d": 166.66666666666424,
      "v": 90
    },
    {
      "midi": 69,
      "hit": false,
      "t": 45666.66666666664,
      "d": 166.66666666666424,
      "v": 90
    },
    {
      "midi": 72,
      "hit": false,
      "t": 45833.33333333331,
      "d": 166.66666666666424,
      "v": 90
    },
    {
      "midi": 46,
      "hit": false,
      "t": 45999.99999999995,
      "d": 166.66666666666424,
      "v": 90
    },
    {
      "midi": 76,
      "hit": false,
      "t": 45999.99999999997,
      "d": 500,
      "v": 90
    },
    {
      "midi": 53,
      "hit": false,
      "t": 46166.66666666661,
      "d": 166.66666666666424,
      "v": 90
    },
    {
      "midi": 55,
      "hit": false,
      "t": 46333.33333333328,
      "d": 166.66666666666424,
      "v": 90
    },
    {
      "midi": 74,
      "hit": false,
      "t": 46499.99999999997,
      "d": 166.66666666666424,
      "v": 90
    },
    {
      "midi": 65,
      "hit": false,
      "t": 46666.666666666635,
      "d": 166.66666666666424,
      "v": 90
    },
    {
      "midi": 67,
      "hit": false,
      "t": 46833.3333333333,
      "d": 166.66666666666424,
      "v": 90
    },
    {
      "midi": 46,
      "hit": false,
      "t": 46999.99999999994,
      "d": 166.66666666666424,
      "v": 90
    },
    {
      "midi": 70,
      "hit": false,
      "t": 46999.99999999996,
      "d": 500,
      "v": 90
    },
    {
      "midi": 53,
      "hit": false,
      "t": 47166.666666666606,
      "d": 166.66666666666424,
      "v": 90
    },
    {
      "midi": 55,
      "hit": false,
      "t": 47333.33333333327,
      "d": 166.66666666666424,
      "v": 90
    },
    {
      "midi": 69,
      "hit": false,
      "t": 47499.99999999996,
      "d": 166.66666666666424,
      "v": 90
    },
    {
      "midi": 65,
      "hit": false,
      "t": 47666.66666666663,
      "d": 166.66666666666424,
      "v": 90
    },
    {
      "midi": 67,
      "hit": false,
      "t": 47833.33333333329,
      "d": 166.66666666666424,
      "v": 90
    },
    {
      "midi": 36,
      "hit": false,
      "t": 47999.999999999935,
      "d": 166.66666666666424,
      "v": 90
    },
    {
      "midi": 67,
      "hit": false,
      "t": 47999.999999999956,
      "d": 500,
      "v": 90
    },
    {
      "midi": 48,
      "hit": false,
      "t": 48166.6666666666,
      "d": 166.66666666666424,
      "v": 90
    },
    {
      "midi": 52,
      "hit": false,
      "t": 48333.33333333326,
      "d": 166.66666666666424,
      "v": 90
    },
    {
      "midi": 55,
      "hit": false,
      "t": 48499.999999999956,
      "d": 166.66666666666424,
      "v": 90
    },
    {
      "midi": 60,
      "hit": false,
      "t": 48666.66666666662,
      "d": 166.66666666666424,
      "v": 90
    },
    {
      "midi": 64,
      "hit": false,
      "t": 48833.333333333285,
      "d": 166.66666666666424,
      "v": 90
    },
    {
      "midi": 36,
      "hit": false,
      "t": 48999.99999999993,
      "d": 166.66666666666424,
      "v": 90
    },
    {
      "midi": 48,
      "hit": false,
      "t": 49166.66666666659,
      "d": 166.66666666666424,
      "v": 90
    },
    {
      "midi": 52,
      "hit": false,
      "t": 49333.333333333256,
      "d": 166.66666666666424,
      "v": 90
    },
    {
      "midi": 59,
      "hit": false,
      "t": 49499.99999999995,
      "d": 166.66666666666424,
      "v": 90
    },
    {
      "midi": 60,
      "hit": false,
      "t": 49666.66666666661,
      "d": 166.66666666666424,
      "v": 90
    },
    {
      "midi": 64,
      "hit": false,
      "t": 49833.33333333328,
      "d": 166.66666666666424,
      "v": 90
    },
    {
      "midi": 36,
      "hit": false,
      "t": 49999.99999999992,
      "d": 166.66666666666424,
      "v": 90
    },
    {
      "midi": 67,
      "hit": false,
      "t": 49999.99999999994,
      "d": 500,
      "v": 90
    },
    {
      "midi": 48,
      "hit": false,
      "t": 50166.666666666584,
      "d": 166.66666666666424,
      "v": 90
    },
    {
      "midi": 52,
      "hit": false,
      "t": 50333.33333333325,
      "d": 166.66666666666424,
      "v": 90
    },
    {
      "midi": 58,
      "hit": false,
      "t": 50499.99999999994,
      "d": 166.66666666666424,
      "v": 90
    },
    {
      "midi": 60,
      "hit": false,
      "t": 50666.666666666606,
      "d": 166.66666666666424,
      "v": 90
    },
    {
      "midi": 64,
      "hit": false,
      "t": 50833.33333333327,
      "d": 166.66666666666424,
      "v": 90
    },
    {
      "midi": 41,
      "hit": false,
      "t": 50999.99999999991,
      "d": 166.66666666666424,
      "v": 90
    },
    {
      "midi": 68,
      "hit": false,
      "t": 50999.999999999935,
      "d": 500,
      "v": 90
    },
    {
      "midi": 48,
      "hit": false,
      "t": 51166.66666666658,
      "d": 166.66666666666424,
      "v": 90
    },
    {
      "midi": 53,
      "hit": false,
      "t": 51333.33333333324,
      "d": 166.66666666666424,
      "v": 90
    },
    {
      "midi": 56,
      "hit": false,
      "t": 51499.999999999905,
      "d": 500,
      "v": 90
    },
    {
      "midi": 72,
      "hit": false,
      "t": 51499.999999999935,
      "d": 166.66666666666424,
      "v": 90
    },
    {
      "midi": 60,
      "hit": false,
      "t": 51666.6666666666,
      "d": 166.66666666666424,
      "v": 90
    },
    {
      "midi": 65,
      "hit": false,
      "t": 51833.33333333326,
      "d": 166.66666666666424,
      "v": 90
    },
    {
      "midi": 40,
      "hit": false,
      "t": 51999.999999999905,
      "d": 166.66666666666424,
      "v": 90
    },
    {
      "midi": 67,
      "hit": false,
      "t": 51999.99999999993,
      "d": 500,
      "v": 90
    },
    {
      "midi": 48,
      "hit": false,
      "t": 52166.66666666657,
      "d": 166.66666666666424,
      "v": 90
    },
    {
      "midi": 52,
      "hit": false,
      "t": 52333.333333333234,
      "d": 166.66666666666424,
      "v": 90
    },
    {
      "midi": 55,
      "hit": false,
      "t": 52499.9999999999,
      "d": 500,
      "v": 90
    },
    {
      "midi": 60,
      "hit": false,
      "t": 52666.66666666659,
      "d": 166.66666666666424,
      "v": 90
    },
    {
      "midi": 64,
      "hit": false,
      "t": 52833.333333333256,
      "d": 166.66666666666424,
      "v": 90
    },
    {
      "midi": 48,
      "hit": false,
      "t": 52999.9999999999,
      "d": 166.66666666666424,
      "v": 90
    },
    {
      "midi": 52,
      "hit": false,
      "t": 53166.66666666656,
      "d": 166.66666666666424,
      "v": 90
    },
    {
      "midi": 55,
      "hit": false,
      "t": 53333.33333333323,
      "d": 166.66666666666424,
      "v": 90
    },
    {
      "midi": 59,
      "hit": false,
      "t": 53499.99999999992,
      "d": 166.66666666666424,
      "v": 90
    },
    {
      "midi": 60,
      "hit": false,
      "t": 53666.666666666584,
      "d": 166.66666666666424,
      "v": 90
    },
    {
      "midi": 64,
      "hit": false,
      "t": 53833.33333333325,
      "d": 166.66666666666424,
      "v": 90
    },
    {
      "midi": 36,
      "hit": false,
      "t": 53999.99999999989,
      "d": 166.66666666666424,
      "v": 90
    },
    {
      "midi": 67,
      "hit": false,
      "t": 53999.99999999991,
      "d": 500,
      "v": 90
    },
    {
      "midi": 48,
      "hit": false,
      "t": 54166.666666666555,
      "d": 166.66666666666424,
      "v": 90
    },
    {
      "midi": 52,
      "hit": false,
      "t": 54333.33333333322,
      "d": 166.66666666666424,
      "v": 90
    },
    {
      "midi": 58,
      "hit": false,
      "t": 54499.99999999991,
      "d": 166.66666666666424,
      "v": 90
    },
    {
      "midi": 60,
      "hit": false,
      "t": 54666.66666666658,
      "d": 166.66666666666424,
      "v": 90
    },
    {
      "midi": 64,
      "hit": false,
      "t": 54833.33333333324,
      "d": 166.66666666666424,
      "v": 90
    },
    {
      "midi": 41,
      "hit": false,
      "t": 54999.99999999988,
      "d": 166.66666666666424,
      "v": 90
    },
    {
      "midi": 68,
      "hit": false,
      "t": 54999.999999999905,
      "d": 500,
      "v": 90
    },
    {
      "midi": 48,
      "hit": false,
      "t": 55166.66666666655,
      "d": 166.66666666666424,
      "v": 90
    },
    {
      "midi": 53,
      "hit": false,
      "t": 55333.33333333321,
      "d": 166.66666666666424,
      "v": 90
    },
    {
      "midi": 56,
      "hit": false,
      "t": 55499.999999999876,
      "d": 500,
      "v": 90
    },
    {
      "midi": 72,
      "hit": false,
      "t": 55499.999999999905,
      "d": 166.66666666666424,
      "v": 90
    },
    {
      "midi": 60,
      "hit": false,
      "t": 55666.66666666657,
      "d": 166.66666666666424,
      "v": 90
    },
    {
      "midi": 65,
      "hit": false,
      "t": 55833.333333333234,
      "d": 166.66666666666424,
      "v": 90
    },
    {
      "midi": 40,
      "hit": false,
      "t": 55999.999999999876,
      "d": 166.66666666666424,
      "v": 90
    },
    {
      "midi": 67,
      "hit": false,
      "t": 55999.9999999999,
      "d": 500,
      "v": 90
    },
    {
      "midi": 48,
      "hit": false,
      "t": 56166.66666666654,
      "d": 166.66666666666424,
      "v": 90
    },
    {
      "midi": 52,
      "hit": false,
      "t": 56333.333333333205,
      "d": 166.66666666666424,
      "v": 90
    },
    {
      "midi": 55,
      "hit": false,
      "t": 56499.99999999987,
      "d": 500,
      "v": 90
    },
    {
      "midi": 60,
      "hit": false,
      "t": 56666.66666666656,
      "d": 166.66666666666424,
      "v": 90
    },
    {
      "midi": 64,
      "hit": false,
      "t": 56833.33333333323,
      "d": 166.66666666666424,
      "v": 90
    },
    {
      "midi": 46,
      "hit": false,
      "t": 56999.99999999987,
      "d": 166.66666666666424,
      "v": 90
    },
    {
      "midi": 48,
      "hit": false,
      "t": 57166.66666666653,
      "d": 166.66666666666424,
      "v": 90
    },
    {
      "midi": 52,
      "hit": false,
      "t": 57333.3333333332,
      "d": 166.66666666666424,
      "v": 90
    },
    {
      "midi": 55,
      "hit": false,
      "t": 57499.99999999986,
      "d": 500,
      "v": 90
    },
    {
      "midi": 60,
      "hit": false,
      "t": 57666.666666666555,
      "d": 166.66666666666424,
      "v": 90
    },
    {
      "midi": 64,
      "hit": false,
      "t": 57833.33333333322,
      "d": 166.66666666666424,
      "v": 90
    },
    {
      "midi": 45,
      "hit": false,
      "t": 57999.99999999986,
      "d": 166.66666666666424,
      "v": 90
    },
    {
      "midi": 72,
      "hit": false,
      "t": 57999.99999999988,
      "d": 500,
      "v": 90
    },
    {
      "midi": 51,
      "hit": false,
      "t": 58166.666666666526,
      "d": 166.66666666666424,
      "v": 90
    },
    {
      "midi": 54,
      "hit": false,
      "t": 58333.33333333319,
      "d": 166.66666666666424,
      "v": 90
    },
    {
      "midi": 60,
      "hit": false,
      "t": 58499.99999999988,
      "d": 166.66666666666424,
      "v": 90
    },
    {
      "midi": 63,
      "hit": false,
      "t": 58666.66666666655,
      "d": 166.66666666666424,
      "v": 90
    },
    {
      "midi": 66,
      "hit": false,
      "t": 58833.33333333321,
      "d": 166.66666666666424,
      "v": 90
    },
    {
      "midi": 46,
      "hit": false,
      "t": 58999.999999999854,
      "d": 166.66666666666424,
      "v": 90
    },
    {
      "midi": 74,
      "hit": false,
      "t": 58999.999999999876,
      "d": 500,
      "v": 90
    },
    {
      "midi": 50,
      "hit": false,
      "t": 59166.66666666652,
      "d": 166.66666666666424,
      "v": 90
    },
    {
      "midi": 55,
      "hit": false,
      "t": 59333.33333333318,
      "d": 166.66666666666424,
      "v": 90
    },
    {
      "midi": 62,
      "hit": false,
      "t": 59499.99999999985,
      "d": 500,
      "v": 90
    },
    {
      "midi": 77,
      "hit": false,
      "t": 59499.999999999876,
      "d": 166.66666666666424,
      "v": 90
    },
    {
      "midi": 65,
      "hit": false,
      "t": 59666.66666666654,
      "d": 166.66666666666424,
      "v": 90
    },
    {
      "midi": 67,
      "hit": false,
      "t": 59833.333333333205,
      "d": 166.66666666666424,
      "v": 90
    },
    {
      "midi": 36,
      "hit": false,
      "t": 59999.99999999985,
      "d": 166.66666666666424,
      "v": 90
    },
    {
      "midi": 72,
      "hit": false,
      "t": 59999.99999999987,
      "d": 500,
      "v": 90
    },
    {
      "midi": 48,
      "hit": false,
      "t": 60166.66666666651,
      "d": 166.66666666666424,
      "v": 90
    },
    {
      "midi": 53,
      "hit": false,
      "t": 60333.333333333176,
      "d": 166.66666666666424,
      "v": 90
    },
    {
      "midi": 57,
      "hit": false,
      "t": 60499.99999999984,
      "d": 500,
      "v": 90
    },
    {
      "midi": 60,
      "hit": false,
      "t": 60666.66666666653,
      "d": 166.66666666666424,
      "v": 90
    },
    {
      "midi": 65,
      "hit": false,
      "t": 60833.3333333332,
      "d": 166.66666666666424,
      "v": 90
    },
    {
      "midi": 36,
      "hit": false,
      "t": 60999.99999999984,
      "d": 166.66666666666424,
      "v": 90
    },
    {
      "midi": 72,
      "hit": false,
      "t": 60999.99999999986,
      "d": 250,
      "v": 90
    },
    {
      "midi": 48,
      "hit": false,
      "t": 61166.666666666504,
      "d": 166.66666666666424,
      "v": 90
    },
    {
      "midi": 69,
      "hit": false,
      "t": 61249.99999999986,
      "d": 250,
      "v": 90
    },
    {
      "midi": 53,
      "hit": false,
      "t": 61333.33333333317,
      "d": 166.66666666666424,
      "v": 90
    },
    {
      "midi": 57,
      "hit": false,
      "t": 61499.99999999983,
      "d": 500,
      "v": 90
    },
    {
      "midi": 60,
      "hit": false,
      "t": 61499.99999999983,
      "d": 500,
      "v": 90
    },
    {
      "midi": 67,
      "hit": false,
      "t": 61499.99999999986,
      "d": 250,
      "v": 90
    },
    {
      "midi": 65,
      "hit": false,
      "t": 61749.99999999986,
      "d": 250,
      "v": 90
    },
    {
      "midi": 36,
      "hit": false,
      "t": 61999.99999999983,
      "d": 166.66666666666424,
      "v": 90
    },
    {
      "midi": 64,
      "hit": false,
      "t": 61999.99999999986,
      "d": 750,
      "v": 90
    },
    {
      "midi": 48,
      "hit": false,
      "t": 62166.6666666665,
      "d": 166.66666666666424,
      "v": 90
    },
    {
      "midi": 55,
      "hit": false,
      "t": 62333.33333333316,
      "d": 166.66666666666424,
      "v": 90
    },
    {
      "midi": 58,
      "hit": false,
      "t": 62499.999999999825,
      "d": 500,
      "v": 90
    },
    {
      "midi": 60,
      "hit": false,
      "t": 62499.999999999825,
      "d": 500,
      "v": 90
    },
    {
      "midi": 65,
      "hit": false,
      "t": 62749.99999999986,
      "d": 250,
      "v": 90
    },
    {
      "midi": 36,
      "hit": false,
      "t": 62999.999999999825,
      "d": 166.66666666666424,
      "v": 90
    },
    {
      "midi": 67,
      "hit": false,
      "t": 62999.99999999986,
      "d": 500,
      "v": 90
    },
    {
      "midi": 48,
      "hit": false,
      "t": 63166.66666666649,
      "d": 166.66666666666424,
      "v": 90
    },
    {
      "midi": 52,
      "hit": false,
      "t": 63333.333333333154,
      "d": 166.66666666666424,
      "v": 90
    },
    {
      "midi": 58,
      "hit": false,
      "t": 63499.99999999982,
      "d": 500,
      "v": 90
    },
    {
      "midi": 60,
      "hit": false,
      "t": 63499.99999999982,
      "d": 500,
      "v": 90
    },
    {
      "midi": 70,
      "hit": false,
      "t": 63499.99999999986,
      "d": 250,
      "v": 90
    },
    {
      "midi": 67,
      "hit": false,
      "t": 63749.99999999986,
      "d": 250,
      "v": 90
    },
    {
      "midi": 36,
      "hit": false,
      "t": 63999.99999999982,
      "d": 166.66666666666424,
      "v": 90
    },
    {
      "midi": 70,
      "hit": false,
      "t": 63999.99999999986,
      "d": 500,
      "v": 90
    },
    {
      "midi": 48,
      "hit": false,
      "t": 64166.66666666648,
      "d": 166.66666666666424,
      "v": 90
    },
    {
      "midi": 53,
      "hit": false,
      "t": 64333.33333333315,
      "d": 166.66666666666424,
      "v": 90
    },
    {
      "midi": 57,
      "hit": false,
      "t": 64499.99999999981,
      "d": 500,
      "v": 90
    },
    {
      "midi": 69,
      "hit": false,
      "t": 64499.99999999986,
      "d": 166.66666666666424,
      "v": 90
    },
    {
      "midi": 60,
      "hit": false,
      "t": 64666.666666666526,
      "d": 166.66666666666424,
      "v": 90
    },
    {
      "midi": 65,
      "hit": false,
      "t": 64833.33333333319,
      "d": 166.66666666666424,
      "v": 90
    },
    {
      "midi": 36,
      "hit": false,
      "t": 64999.99999999981,
      "d": 166.66666666666424,
      "v": 90
    },
    {
      "midi": 72,
      "hit": false,
      "t": 64999.999999999854,
      "d": 250,
      "v": 90
    },
    {
      "midi": 48,
      "hit": false,
      "t": 65166.666666666475,
      "d": 166.66666666666424,
      "v": 90
    },
    {
      "midi": 69,
      "hit": false,
      "t": 65249.999999999854,
      "d": 250,
      "v": 90
    },
    {
      "midi": 53,
      "hit": false,
      "t": 65333.33333333314,
      "d": 166.66666666666424,
      "v": 90
    },
    {
      "midi": 57,
      "hit": false,
      "t": 65499.9999999998,
      "d": 499.9999999999927,
      "v": 90
    },
    {
      "midi": 60,
      "hit": false,
      "t": 65499.9999999998,
      "d": 499.9999999999927,
      "v": 90
    },
    {
      "midi": 67,
      "hit": false,
      "t": 65499.999999999854,
      "d": 250,
      "v": 90
    },
    {
      "midi": 65,
      "hit": false,
      "t": 65749.99999999985,
      "d": 250,
      "v": 90
    },
    {
      "midi": 36,
      "hit": false,
      "t": 65999.9999999998,
      "d": 166.66666666667152,
      "v": 90
    },
    {
      "midi": 64,
      "hit": false,
      "t": 65999.99999999985,
      "d": 250,
      "v": 90
    },
    {
      "midi": 48,
      "hit": false,
      "t": 66166.66666666647,
      "d": 166.66666666667152,
      "v": 90
    },
    {
      "midi": 65,
      "hit": false,
      "t": 66249.99999999985,
      "d": 250,
      "v": 90
    },
    {
      "midi": 55,
      "hit": false,
      "t": 66333.33333333314,
      "d": 166.66666666667152,
      "v": 90
    },
    {
      "midi": 58,
      "hit": false,
      "t": 66499.99999999981,
      "d": 500,
      "v": 90
    },
    {
      "midi": 60,
      "hit": false,
      "t": 66499.99999999981,
      "d": 500,
      "v": 90
    },
    {
      "midi": 66,
      "hit": false,
      "t": 66499.99999999985,
      "d": 250,
      "v": 90
    },
    {
      "midi": 64,
      "hit": false,
      "t": 66749.99999999985,
      "d": 250,
      "v": 90
    },
    {
      "midi": 67,
      "hit": false,
      "t": 66749.99999999985,
      "d": 250,
      "v": 90
    },
    {
      "midi": 36,
      "hit": false,
      "t": 66999.99999999981,
      "d": 166.66666666667152,
      "v": 90
    },
    {
      "midi": 69,
      "hit": false,
      "t": 66999.99999999985,
      "d": 250,
      "v": 90
    },
    {
      "midi": 48,
      "hit": false,
      "t": 67166.66666666648,
      "d": 166.66666666667152,
      "v": 90
    },
    {
      "midi": 70,
      "hit": false,
      "t": 67249.99999999985,
      "d": 250,
      "v": 90
    },
    {
      "midi": 52,
      "hit": false,
      "t": 67333.33333333315,
      "d": 166.66666666667152,
      "v": 90
    },
    {
      "midi": 58,
      "hit": false,
      "t": 67499.99999999983,
      "d": 500,
      "v": 90
    },
    {
      "midi": 60,
      "hit": false,
      "t": 67499.99999999983,
      "d": 500,
      "v": 90
    },
    {
      "midi": 74,
      "hit": false,
      "t": 67499.99999999985,
      "d": 250,
      "v": 90
    },
    {
      "midi": 64,
      "hit": false,
      "t": 67749.99999999985,
      "d": 250,
      "v": 90
    },
    {
      "midi": 72,
      "hit": false,
      "t": 67749.99999999985,
      "d": 250,
      "v": 90
    },
    {
      "midi": 37,
      "hit": false,
      "t": 67999.99999999983,
      "d": 166.66666666667152,
      "v": 90
    },
    {
      "midi": 70,
      "hit": false,
      "t": 67999.99999999985,
      "d": 500,
      "v": 90
    },
    {
      "midi": 49,
      "hit": false,
      "t": 68166.6666666665,
      "d": 166.66666666667152,
      "v": 90
    },
    {
      "midi": 52,
      "hit": false,
      "t": 68333.33333333317,
      "d": 166.66666666667152,
      "v": 90
    },
    {
      "midi": 55,
      "hit": false,
      "t": 68499.99999999984,
      "d": 500,
      "v": 90
    },
    {
      "midi": 69,
      "hit": false,
      "t": 68499.99999999985,
      "d": 166.66666666667152,
      "v": 90
    },
    {
      "midi": 57,
      "hit": false,
      "t": 68666.66666666653,
      "d": 166.66666666667152,
      "v": 90
    },
    {
      "midi": 64,
      "hit": false,
      "t": 68833.3333333332,
      "d": 166.66666666667152,
      "v": 90
    },
    {
      "midi": 38,
      "hit": false,
      "t": 68999.99999999984,
      "d": 166.66666666667152,
      "v": 90
    },
    {
      "midi": 50,
      "hit": false,
      "t": 69166.66666666651,
      "d": 166.66666666667152,
      "v": 90
    },
    {
      "midi": 69,
      "hit": false,
      "t": 69249.99999999987,
      "d": 250,
      "v": 90
    },
    {
      "midi": 53,
      "hit": false,
      "t": 69333.33333333318,
      "d": 166.66666666667152,
      "v": 90
    },
    {
      "midi": 57,
      "hit": false,
      "t": 69499.99999999985,
      "d": 500,
      "v": 90
    },
    {
      "midi": 69,
      "hit": false,
      "t": 69499.99999999987,
      "d": 250,
      "v": 90
    },
    {
      "midi": 62,
      "hit": false,
      "t": 69749.99999999987,
      "d": 250,
      "v": 90
    },
    {
      "midi": 65,
      "hit": false,
      "t": 69749.99999999987,
      "d": 250,
      "v": 90
    },
    {
      "midi": 69,
      "hit": false,
      "t": 69749.99999999987,
      "d": 250,
      "v": 90
    },
    {
      "midi": 38,
      "hit": false,
      "t": 69999.99999999985,
      "d": 166.66666666667152,
      "v": 90
    },
    {
      "midi": 72,
      "hit": false,
      "t": 69999.99999999987,
      "d": 500,
      "v": 90
    },
    {
      "midi": 50,
      "hit": false,
      "t": 70166.66666666653,
      "d": 166.66666666667152,
      "v": 90
    },
    {
      "midi": 53,
      "hit": false,
      "t": 70333.3333333332,
      "d": 166.66666666667152,
      "v": 90
    },
    {
      "midi": 71,
      "hit": false,
      "t": 70499.99999999987,
      "d": 166.66666666667152,
      "v": 90
    },
    {
      "midi": 56,
      "hit": false,
      "t": 70499.99999999987,
      "d": 500,
      "v": 90
    },
    {
      "midi": 62,
      "hit": false,
      "t": 70666.66666666654,
      "d": 166.66666666667152,
      "v": 90
    },
    {
      "midi": 65,
      "hit": false,
      "t": 70833.33333333321,
      "d": 166.66666666667152,
      "v": 90
    },
    {
      "midi": 40,
      "hit": false,
      "t": 70999.99999999987,
      "d": 166.66666666667152,
      "v": 90
    },
    {
      "midi": 79,
      "hit": false,
      "t": 70999.99999999988,
      "d": 500,
      "v": 90
    },
    {
      "midi": 52,
      "hit": false,
      "t": 71166.66666666654,
      "d": 166.66666666667152,
      "v": 90
    },
    {
      "midi": 55,
      "hit": false,
      "t": 71333.33333333321,
      "d": 166.66666666667152,
      "v": 90
    },
    {
      "midi": 70,
      "hit": false,
      "t": 71499.99999999988,
      "d": 166.66666666667152,
      "v": 90
    },
    {
      "midi": 58,
      "hit": false,
      "t": 71499.99999999988,
      "d": 500,
      "v": 90
    },
    {
      "midi": 60,
      "hit": false,
      "t": 71666.66666666656,
      "d": 166.66666666667152,
      "v": 90
    },
    {
      "midi": 67,
      "hit": false,
      "t": 71833.33333333323,
      "d": 166.66666666667152,
      "v": 90
    },
    {
      "midi": 42,
      "hit": false,
      "t": 71999.99999999988,
      "d": 166.66666666667152,
      "v": 90
    },
    {
      "midi": 69,
      "hit": false,
      "t": 71999.9999999999,
      "d": 500,
      "v": 90
    },
    {
      "midi": 54,
      "hit": false,
      "t": 72166.66666666656,
      "d": 166.66666666667152,
      "v": 90
    },
    {
      "midi": 57,
      "hit": false,
      "t": 72333.33333333323,
      "d": 166.66666666667152,
      "v": 90
    },
    {
      "midi": 72,
      "hit": false,
      "t": 72499.9999999999,
      "d": 166.66666666667152,
      "v": 90
    },
    {
      "midi": 60,
      "hit": false,
      "t": 72499.9999999999,
      "d": 500,
      "v": 90
    },
    {
      "midi": 62,
      "hit": false,
      "t": 72666.66666666657,
      "d": 166.66666666667152,
      "v": 90
    },
    {
      "midi": 69,
      "hit": false,
      "t": 72833.33333333324,
      "d": 166.66666666667152,
      "v": 90
    },
    {
      "midi": 43,
      "hit": false,
      "t": 72999.9999999999,
      "d": 166.66666666667152,
      "v": 90
    },
    {
      "midi": 70,
      "hit": false,
      "t": 72999.99999999991,
      "d": 500,
      "v": 90
    },
    {
      "midi": 50,
      "hit": false,
      "t": 73166.66666666657,
      "d": 166.66666666667152,
      "v": 90
    },
    {
      "midi": 55,
      "hit": false,
      "t": 73333.33333333324,
      "d": 166.66666666667152,
      "v": 90
    },
    {
      "midi": 62,
      "hit": false,
      "t": 73499.99999999991,
      "d": 500,
      "v": 90
    },
    {
      "midi": 67,
      "hit": false,
      "t": 73499.99999999991,
      "d": 500,
      "v": 90
    },
    {
      "midi": 58,
      "hit": false,
      "t": 73499.99999999991,
      "d": 500,
      "v": 90
    },
    {
      "midi": 65,
      "hit": false,
      "t": 73999.99999999991,
      "d": 500,
      "v": 90
    },
    {
      "midi": 36,
      "hit": false,
      "t": 73999.99999999991,
      "d": 166.66666666667152,
      "v": 90
    },
    {
      "midi": 48,
      "hit": false,
      "t": 74166.66666666658,
      "d": 166.66666666667152,
      "v": 90
    },
    {
      "midi": 53,
      "hit": false,
      "t": 74333.33333333326,
      "d": 166.66666666667152,
      "v": 90
    },
    {
      "midi": 64,
      "hit": false,
      "t": 74499.99999999991,
      "d": 250,
      "v": 90
    },
    {
      "midi": 57,
      "hit": false,
      "t": 74499.99999999993,
      "d": 500,
      "v": 90
    },
    {
      "midi": 60,
      "hit": false,
      "t": 74499.99999999993,
      "d": 500,
      "v": 90
    },
    {
      "midi": 65,
      "hit": false,
      "t": 74749.99999999991,
      "d": 250,
      "v": 90
    },
    {
      "midi": 69,
      "hit": false,
      "t": 74999.99999999991,
      "d": 500,
      "v": 90
    },
    {
      "midi": 36,
      "hit": false,
      "t": 74999.99999999993,
      "d": 166.66666666667152,
      "v": 90
    },
    {
      "midi": 48,
      "hit": false,
      "t": 75166.6666666666,
      "d": 166.66666666667152,
      "v": 90
    },
    {
      "midi": 52,
      "hit": false,
      "t": 75333.33333333327,
      "d": 166.66666666667152,
      "v": 90
    },
    {
      "midi": 58,
      "hit": false,
      "t": 75499.99999999994,
      "d": 500,
      "v": 90
    },
    {
      "midi": 60,
      "hit": false,
      "t": 75666.66666666658,
      "d": 166.66666666667152,
      "v": 90
    },
    {
      "midi": 67,
      "hit": false,
      "t": 75833.33333333326,
      "d": 166.66666666667152,
      "v": 90
    },
    {
      "midi": 65,
      "hit": false,
      "t": 75999.99999999993,
      "d": 750,
      "v": 90
    },
    {
      "midi": 41,
      "hit": false,
      "t": 75999.99999999994,
      "d": 166.66666666667152,
      "v": 90
    },
    {
      "midi": 48,
      "hit": false,
      "t": 76166.66666666661,
      "d": 166.66666666667152,
      "v": 90
    },
    {
      "midi": 53,
      "hit": false,
      "t": 76333.33333333328,
      "d": 166.66666666667152,
      "v": 90
    },
    {
      "midi": 57,
      "hit": false,
      "t": 76499.99999999996,
      "d": 500,
      "v": 90
    },
    {
      "midi": 60,
      "hit": false,
      "t": 76749.99999999993,
      "d": 250,
      "v": 90
    },
    {
      "midi": 41,
      "hit": false,
      "t": 76999.99999999996,
      "d": 166.66666666667152,
      "v": 90
    },
    {
      "midi": 52,
      "hit": false,
      "t": 77166.66666666663,
      "d": 166.66666666667152,
      "v": 90
    },
    {
      "midi": 53,
      "hit": false,
      "t": 77333.3333333333,
      "d": 166.66666666667152,
      "v": 90
    },
    {
      "midi": 57,
      "hit": false,
      "t": 77499.99999999997,
      "d": 500,
      "v": 90
    },
    {
      "midi": 60,
      "hit": false,
      "t": 77666.6666666666,
      "d": 166.66666666667152,
      "v": 90
    },
    {
      "midi": 65,
      "hit": false,
      "t": 77833.33333333327,
      "d": 166.66666666667152,
      "v": 90
    },
    {
      "midi": 72,
      "hit": false,
      "t": 77999.99999999994,
      "d": 500,
      "v": 90
    },
    {
      "midi": 41,
      "hit": false,
      "t": 77999.99999999997,
      "d": 166.66666666667152,
      "v": 90
    },
    {
      "midi": 51,
      "hit": false,
      "t": 78166.66666666664,
      "d": 166.66666666667152,
      "v": 90
    },
    {
      "midi": 53,
      "hit": false,
      "t": 78333.33333333331,
      "d": 166.66666666667152,
      "v": 90
    },
    {
      "midi": 57,
      "hit": false,
      "t": 78499.99999999999,
      "d": 500,
      "v": 90
    },
    {
      "midi": 60,
      "hit": false,
      "t": 78666.66666666661,
      "d": 166.66666666667152,
      "v": 90
    },
    {
      "midi": 65,
      "hit": false,
      "t": 78833.33333333328,
      "d": 166.66666666667152,
      "v": 90
    },
    {
      "midi": 74,
      "hit": false,
      "t": 78999.99999999996,
      "d": 500,
      "v": 90
    },
    {
      "midi": 41,
      "hit": false,
      "t": 78999.99999999999,
      "d": 166.66666666667152,
      "v": 90
    },
    {
      "midi": 50,
      "hit": false,
      "t": 79166.66666666666,
      "d": 166.66666666667152,
      "v": 90
    },
    {
      "midi": 53,
      "hit": false,
      "t": 79333.33333333333,
      "d": 166.66666666667152,
      "v": 90
    },
    {
      "midi": 77,
      "hit": false,
      "t": 79499.99999999996,
      "d": 166.66666666667152,
      "v": 90
    },
    {
      "midi": 58,
      "hit": false,
      "t": 79500,
      "d": 500,
      "v": 90
    },
    {
      "midi": 62,
      "hit": false,
      "t": 79666.66666666663,
      "d": 166.66666666667152,
      "v": 90
    },
    {
      "midi": 65,
      "hit": false,
      "t": 79833.3333333333,
      "d": 166.66666666667152,
      "v": 90
    },
    {
      "midi": 72,
      "hit": false,
      "t": 79999.99999999997,
      "d": 500,
      "v": 90
    },
    {
      "midi": 41,
      "hit": false,
      "t": 80000,
      "d": 166.66666666667152,
      "v": 90
    },
    {
      "midi": 55,
      "hit": false,
      "t": 80166.66666666667,
      "d": 166.66666666667152,
      "v": 90
    },
    {
      "midi": 58,
      "hit": false,
      "t": 80333.33333333334,
      "d": 166.66666666667152,
      "v": 90
    },
    {
      "midi": 60,
      "hit": false,
      "t": 80499.99999999997,
      "d": 166.66666666667152,
      "v": 90
    },
    {
      "midi": 64,
      "hit": false,
      "t": 80666.66666666664,
      "d": 166.66666666667152,
      "v": 90
    },
    {
      "midi": 67,
      "hit": false,
      "t": 80833.33333333331,
      "d": 166.66666666667152,
      "v": 90
    },
    {
      "midi": 72,
      "hit": false,
      "t": 80999.99999999999,
      "d": 500,
      "v": 90
    },
    {
      "midi": 41,
      "hit": false,
      "t": 81000.00000000001,
      "d": 166.66666666667152,
      "v": 90
    },
    {
      "midi": 53,
      "hit": false,
      "t": 81166.66666666669,
      "d": 166.66666666667152,
      "v": 90
    },
    {
      "midi": 57,
      "hit": false,
      "t": 81333.33333333336,
      "d": 166.66666666667152,
      "v": 90
    },
    {
      "midi": 60,
      "hit": false,
      "t": 81499.99999999999,
      "d": 166.66666666667152,
      "v": 90
    },
    {
      "midi": 65,
      "hit": false,
      "t": 81666.66666666666,
      "d": 166.66666666667152,
      "v": 90
    },
    {
      "midi": 69,
      "hit": false,
      "t": 81833.33333333333,
      "d": 166.66666666667152,
      "v": 90
    },
    {
      "midi": 72,
      "hit": false,
      "t": 82000,
      "d": 500,
      "v": 90
    },
    {
      "midi": 41,
      "hit": false,
      "t": 82000.00000000003,
      "d": 166.66666666667152,
      "v": 90
    },
    {
      "midi": 51,
      "hit": false,
      "t": 82166.6666666667,
      "d": 166.66666666667152,
      "v": 90
    },
    {
      "midi": 53,
      "hit": false,
      "t": 82333.33333333337,
      "d": 166.66666666667152,
      "v": 90
    },
    {
      "midi": 60,
      "hit": false,
      "t": 82500,
      "d": 166.66666666667152,
      "v": 90
    },
    {
      "midi": 65,
      "hit": false,
      "t": 82666.66666666667,
      "d": 166.66666666667152,
      "v": 90
    },
    {
      "midi": 69,
      "hit": false,
      "t": 82833.33333333334,
      "d": 166.66666666667152,
      "v": 90
    },
    {
      "midi": 74,
      "hit": false,
      "t": 83000.00000000001,
      "d": 500,
      "v": 90
    },
    {
      "midi": 41,
      "hit": false,
      "t": 83000.00000000004,
      "d": 166.66666666667152,
      "v": 90
    },
    {
      "midi": 50,
      "hit": false,
      "t": 83166.66666666672,
      "d": 166.66666666667152,
      "v": 90
    },
    {
      "midi": 53,
      "hit": false,
      "t": 83333.33333333339,
      "d": 166.66666666667152,
      "v": 90
    },
    {
      "midi": 77,
      "hit": false,
      "t": 83500.00000000001,
      "d": 166.66666666667152,
      "v": 90
    },
    {
      "midi": 58,
      "hit": false,
      "t": 83500.00000000006,
      "d": 500,
      "v": 90
    },
    {
      "midi": 62,
      "hit": false,
      "t": 83666.66666666669,
      "d": 166.66666666667152,
      "v": 90
    },
    {
      "midi": 65,
      "hit": false,
      "t": 83833.33333333336,
      "d": 166.66666666667152,
      "v": 90
    },
    {
      "midi": 72,
      "hit": false,
      "t": 84000.00000000003,
      "d": 500,
      "v": 90
    },
    {
      "midi": 41,
      "hit": false,
      "t": 84000.00000000006,
      "d": 166.66666666667152,
      "v": 90
    },
    {
      "midi": 55,
      "hit": false,
      "t": 84166.66666666673,
      "d": 166.66666666667152,
      "v": 90
    },
    {
      "midi": 58,
      "hit": false,
      "t": 84333.3333333334,
      "d": 166.66666666667152,
      "v": 90
    },
    {
      "midi": 60,
      "hit": false,
      "t": 84500.00000000003,
      "d": 166.66666666667152,
      "v": 90
    },
    {
      "midi": 64,
      "hit": false,
      "t": 84666.6666666667,
      "d": 166.66666666667152,
      "v": 90
    },
    {
      "midi": 67,
      "hit": false,
      "t": 84833.33333333337,
      "d": 166.66666666667152,
      "v": 90
    },
    {
      "midi": 53,
      "hit": false,
      "t": 85000.00000000007,
      "d": 1000,
      "v": 90
    },
    {
      "midi": 60,
      "hit": false,
      "t": 85000.00000000007,
      "d": 1000,
      "v": 90
    },
    {
      "midi": 67,
      "hit": false,
      "t": 85250.00000000004,
      "d": 250,
      "v": 90
    },
    {
      "midi": 72,
      "hit": false,
      "t": 85500.00000000004,
      "d": 166.66666666667152,
      "v": 90
    },
    {
      "midi": 76,
      "hit": false,
      "t": 85666.66666666672,
      "d": 166.66666666667152,
      "v": 90
    },
    {
      "midi": 79,
      "hit": false,
      "t": 85833.33333333339,
      "d": 166.66666666667152,
      "v": 90
    },
    {
      "midi": 72,
      "hit": false,
      "t": 86000.00000000006,
      "d": 500,
      "v": 90
    },
    {
      "midi": 41,
      "hit": false,
      "t": 86000.00000000007,
      "d": 166.66666666667152,
      "v": 90
    },
    {
      "midi": 48,
      "hit": false,
      "t": 86166.66666666674,
      "d": 166.66666666667152,
      "v": 90
    },
    {
      "midi": 53,
      "hit": false,
      "t": 86333.33333333342,
      "d": 166.66666666667152,
      "v": 90
    },
    {
      "midi": 57,
      "hit": false,
      "t": 86500.00000000009,
      "d": 500,
      "v": 90
    },
    {
      "midi": 60,
      "hit": false,
      "t": 86666.66666666673,
      "d": 166.66666666667152,
      "v": 90
    },
    {
      "midi": 65,
      "hit": false,
      "t": 86833.3333333334,
      "d": 166.66666666667152,
      "v": 90
    },
    {
      "midi": 69,
      "hit": false,
      "t": 87000.00000000007,
      "d": 250,
      "v": 90
    },
    {
      "midi": 53,
      "hit": false,
      "t": 87000.00000000009,
      "d": 1000,
      "v": 90
    },
    {
      "midi": 60,
      "hit": false,
      "t": 87000.00000000009,
      "d": 1000,
      "v": 90
    },
    {
      "midi": 65,
      "hit": false,
      "t": 87250.00000000007,
      "d": 250,
      "v": 90
    },
    {
      "midi": 72,
      "hit": false,
      "t": 87500.00000000007,
      "d": 166.66666666667152,
      "v": 90
    },
    {
      "midi": 77,
      "hit": false,
      "t": 87666.66666666674,
      "d": 166.66666666667152,
      "v": 90
    },
    {
      "midi": 81,
      "hit": false,
      "t": 87833.33333333342,
      "d": 166.66666666667152,
      "v": 90
    },
    {
      "midi": 72,
      "hit": false,
      "t": 88000.00000000009,
      "d": 500,
      "v": 90
    },
    {
      "midi": 41,
      "hit": false,
      "t": 88000.00000000009,
      "d": 166.66666666667152,
      "v": 90
    },
    {
      "midi": 55,
      "hit": false,
      "t": 88166.66666666676,
      "d": 166.66666666667152,
      "v": 90
    },
    {
      "midi": 58,
      "hit": false,
      "t": 88333.33333333343,
      "d": 166.66666666667152,
      "v": 90
    },
    {
      "midi": 60,
      "hit": false,
      "t": 88500.00000000009,
      "d": 166.66666666667152,
      "v": 90
    },
    {
      "midi": 64,
      "hit": false,
      "t": 88666.66666666676,
      "d": 166.66666666667152,
      "v": 90
    },
    {
      "midi": 67,
      "hit": false,
      "t": 88833.33333333343,
      "d": 166.66666666667152,
      "v": 90
    },
    {
      "midi": 53,
      "hit": false,
      "t": 89000.0000000001,
      "d": 1000,
      "v": 90
    },
    {
      "midi": 60,
      "hit": false,
      "t": 89000.0000000001,
      "d": 1000,
      "v": 90
    },
    {
      "midi": 67,
      "hit": false,
      "t": 89250.0000000001,
      "d": 250,
      "v": 90
    },
    {
      "midi": 72,
      "hit": false,
      "t": 89500.0000000001,
      "d": 166.66666666667152,
      "v": 90
    },
    {
      "midi": 76,
      "hit": false,
      "t": 89666.66666666677,
      "d": 166.66666666667152,
      "v": 90
    },
    {
      "midi": 79,
      "hit": false,
      "t": 89833.33333333344,
      "d": 166.66666666667152,
      "v": 90
    },
    {
      "midi": 41,
      "hit": false,
      "t": 90000.0000000001,
      "d": 166.66666666667152,
      "v": 90
    },
    {
      "midi": 72,
      "hit": false,
      "t": 90000.00000000012,
      "d": 500,
      "v": 90
    },
    {
      "midi": 48,
      "hit": false,
      "t": 90166.66666666677,
      "d": 166.66666666667152,
      "v": 90
    },
    {
      "midi": 53,
      "hit": false,
      "t": 90333.33333333344,
      "d": 166.66666666667152,
      "v": 90
    },
    {
      "midi": 57,
      "hit": false,
      "t": 90500.00000000012,
      "d": 500,
      "v": 90
    },
    {
      "midi": 60,
      "hit": false,
      "t": 90666.66666666679,
      "d": 166.66666666667152,
      "v": 90
    },
    {
      "midi": 65,
      "hit": false,
      "t": 90833.33333333346,
      "d": 166.66666666667152,
      "v": 90
    },
    {
      "midi": 53,
      "hit": false,
      "t": 91000.00000000012,
      "d": 1000,
      "v": 90
    },
    {
      "midi": 69,
      "hit": false,
      "t": 91000.00000000013,
      "d": 166.66666666667152,
      "v": 90
    },
    {
      "midi": 60,
      "hit": false,
      "t": 91166.6666666668,
      "d": 166.66666666667152,
      "v": 90
    },
    {
      "midi": 65,
      "hit": false,
      "t": 91333.33333333347,
      "d": 166.66666666667152,
      "v": 90
    },
    {
      "midi": 72,
      "hit": false,
      "t": 91500.00000000015,
      "d": 166.66666666667152,
      "v": 90
    },
    {
      "midi": 77,
      "hit": false,
      "t": 91666.66666666682,
      "d": 166.66666666667152,
      "v": 90
    },
    {
      "midi": 81,
      "hit": false,
      "t": 91833.33333333349,
      "d": 166.66666666667152,
      "v": 90
    },
    {
      "midi": 53,
      "hit": false,
      "t": 92000.00000000012,
      "d": 1000,
      "v": 90
    },
    {
      "midi": 72,
      "hit": false,
      "t": 92000.00000000016,
      "d": 166.66666666667152,
      "v": 90
    },
    {
      "midi": 60,
      "hit": false,
      "t": 92166.66666666683,
      "d": 166.66666666667152,
      "v": 90
    },
    {
      "midi": 65,
      "hit": false,
      "t": 92333.3333333335,
      "d": 166.66666666667152,
      "v": 90
    },
    {
      "midi": 69,
      "hit": false,
      "t": 92500.00000000017,
      "d": 166.66666666667152,
      "v": 90
    },
    {
      "midi": 77,
      "hit": false,
      "t": 92666.66666666685,
      "d": 166.66666666667152,
      "v": 90
    },
    {
      "midi": 81,
      "hit": false,
      "t": 92833.33333333352,
      "d": 166.66666666667152,
      "v": 90
    },
    {
      "midi": 69,
      "hit": false,
      "t": 93000.00000000019,
      "d": 166.66666666667152,
      "v": 90
    },
    {
      "midi": 72,
      "hit": false,
      "t": 93166.66666666686,
      "d": 166.66666666667152,
      "v": 90
    },
    {
      "midi": 77,
      "hit": false,
      "t": 93333.33333333353,
      "d": 166.66666666667152,
      "v": 90
    },
    {
      "midi": 81,
      "hit": false,
      "t": 93500.0000000002,
      "d": 166.66666666667152,
      "v": 90
    },
    {
      "midi": 84,
      "hit": false,
      "t": 93666.66666666688,
      "d": 166.66666666667152,
      "v": 90
    },
    {
      "midi": 89,
      "hit": false,
      "t": 93833.33333333355,
      "d": 166.66666666667152,
      "v": 90
    },
    {
      "midi": 72,
      "hit": false,
      "t": 94000.00000000022,
      "d": 250,
      "v": 90
    },
    {
      "midi": 77,
      "hit": false,
      "t": 94250.00000000022,
      "d": 250,
      "v": 90
    },
    {
      "midi": 81,
      "hit": false,
      "t": 94500.00000000022,
      "d": 166.66666666667152,
      "v": 90
    },
    {
      "midi": 84,
      "hit": false,
      "t": 94666.66666666689,
      "d": 166.66666666667152,
      "v": 90
    },
    {
      "midi": 89,
      "hit": false,
      "t": 94833.33333333356,
      "d": 166.66666666667152,
      "v": 90
    },
    {
      "midi": 69,
      "hit": false,
      "t": 95000.00000000023,
      "d": 166.66666666667152,
      "v": 90
    },
    {
      "midi": 77,
      "hit": false,
      "t": 95166.6666666669,
      "d": 166.66666666667152,
      "v": 90
    },
    {
      "midi": 81,
      "hit": false,
      "t": 95333.33333333358,
      "d": 166.66666666667152,
      "v": 90
    },
    {
      "midi": 84,
      "hit": false,
      "t": 95500.00000000025,
      "d": 166.66666666667152,
      "v": 90
    },
    {
      "midi": 89,
      "hit": false,
      "t": 95666.66666666692,
      "d": 166.66666666667152,
      "v": 90
    },
    {
      "midi": 93,
      "hit": false,
      "t": 95833.33333333359,
      "d": 166.66666666667152,
      "v": 90
    },
    {
      "midi": 96,
      "hit": false,
      "t": 96000.00000000026,
      "d": 1000,
      "v": 90
    },
    {
      "midi": 29,
      "hit": false,
      "t": 97000.00000000012,
      "d": 1000,
      "v": 90
    },
    {
      "midi": 41,
      "hit": false,
      "t": 97000.00000000012,
      "d": 1000,
      "v": 90
    },
    {
      "midi": 57,
      "hit": false,
      "t": 97000.00000000026,
      "d": 1000,
      "v": 90
    },
    {
      "midi": 60,
      "hit": false,
      "t": 97000.00000000026,
      "d": 1000,
      "v": 90
    },
    {
      "midi": 65,
      "hit": false,
      "t": 97000.00000000026,
      "d": 1000,
      "v": 90
    },
    {
      "midi": 29,
      "hit": false,
      "t": 98000.00000000012,
      "d": 2000,
      "v": 90
    },
    {
      "midi": 41,
      "hit": false,
      "t": 98000.00000000012,
      "d": 2000,
      "v": 90
    },
    {
      "midi": 57,
      "hit": false,
      "t": 98000.00000000026,
      "d": 2000,
      "v": 90
    },
    {
      "midi": 60,
      "hit": false,
      "t": 98000.00000000026,
      "d": 2000,
      "v": 90
    },
    {
      "midi": 65,
      "hit": false,
      "t": 98000.00000000026,
      "d": 2000,
      "v": 90
    }
  ]
}