{
  "jsonPath": "Classical/Classical/Carl Philipp Emanuel Bach/rondo.json",
  "path": "Classical\\Classical\\Carl Philipp Emanuel Bach\\Rondo.mid",
  "name": "Rondo",
  "difficulty": "Advanced",
  "bpm": 66.000066000066,
  "notes": [
    {
      "midi": 67,
      "hit": false,
      "t": 0,
      "d": 454.545,
      "v": 127
    },
    {
      "midi": 70,
      "hit": false,
      "t": 0,
      "d": 454.545,
      "v": 127
    },
    {
      "midi": 70,
      "hit": false,
      "t": 454.545,
      "d": 454.545,
      "v": 127
    },
    {
      "midi": 51,
      "hit": false,
      "t": 454.545,
      "d": 909.0899999999999,
      "v": 127
    },
    {
      "midi": 79,
      "hit": false,
      "t": 909.09,
      "d": 454.54499999999996,
      "v": 127
    },
    {
      "midi": 77,
      "hit": false,
      "t": 1363.635,
      "d": 454.5450000000001,
      "v": 127
    },
    {
      "midi": 51,
      "hit": false,
      "t": 1363.635,
      "d": 454.5450000000001,
      "v": 127
    },
    {
      "midi": 75,
      "hit": false,
      "t": 1818.18,
      "d": 454.54499999999985,
      "v": 127
    },
    {
      "midi": 75,
      "hit": false,
      "t": 2272.725,
      "d": 909.0900000000001,
      "v": 127
    },
    {
      "midi": 53,
      "hit": false,
      "t": 2272.725,
      "d": 909.0900000000001,
      "v": 127
    },
    {
      "midi": 74,
      "hit": false,
      "t": 3181.815,
      "d": 454.5450000000001,
      "v": 127
    },
    {
      "midi": 53,
      "hit": false,
      "t": 3181.815,
      "d": 454.5450000000001,
      "v": 127
    },
    {
      "midi": 68,
      "hit": false,
      "t": 3636.36,
      "d": 454.5450000000001,
      "v": 127
    },
    {
      "midi": 68,
      "hit": false,
      "t": 4090.905,
      "d": 454.5449999999996,
      "v": 127
    },
    {
      "midi": 53,
      "hit": false,
      "t": 4090.905,
      "d": 909.0899999999997,
      "v": 127
    },
    {
      "midi": 80,
      "hit": false,
      "t": 4545.45,
      "d": 454.5450000000001,
      "v": 127
    },
    {
      "midi": 79,
      "hit": false,
      "t": 4999.995,
      "d": 454.5450000000001,
      "v": 127
    },
    {
      "midi": 53,
      "hit": false,
      "t": 4999.995,
      "d": 454.5450000000001,
      "v": 127
    },
    {
      "midi": 77,
      "hit": false,
      "t": 5454.54,
      "d": 454.5450000000001,
      "v": 127
    },
    {
      "midi": 77,
      "hit": false,
      "t": 5909.085,
      "d": 909.0900000000001,
      "v": 127
    },
    {
      "midi": 55,
      "hit": false,
      "t": 5909.085,
      "d": 909.0900000000001,
      "v": 127
    },
    {
      "midi": 75,
      "hit": false,
      "t": 6818.175,
      "d": 454.5450000000001,
      "v": 127
    },
    {
      "midi": 55,
      "hit": false,
      "t": 6818.175,
      "d": 454.5450000000001,
      "v": 127
    },
    {
      "midi": 70,
      "hit": false,
      "t": 7272.72,
      "d": 454.5450000000001,
      "v": 127
    },
    {
      "midi": 70,
      "hit": false,
      "t": 7727.265,
      "d": 454.5450000000001,
      "v": 127
    },
    {
      "midi": 55,
      "hit": false,
      "t": 7727.265,
      "d": 909.0899999999992,
      "v": 127
    },
    {
      "midi": 82,
      "hit": false,
      "t": 8181.81,
      "d": 454.54499999999916,
      "v": 127
    },
    {
      "midi": 80,
      "hit": false,
      "t": 8636.355,
      "d": 454.5450000000001,
      "v": 127
    },
    {
      "midi": 55,
      "hit": false,
      "t": 8636.355,
      "d": 454.5450000000001,
      "v": 127
    },
    {
      "midi": 79,
      "hit": false,
      "t": 9090.9,
      "d": 454.5450000000001,
      "v": 127
    },
    {
      "midi": 79,
      "hit": false,
      "t": 9545.445,
      "d": 454.5450000000001,
      "v": 127
    },
    {
      "midi": 56,
      "hit": false,
      "t": 9545.445,
      "d": 909.0900000000001,
      "v": 127
    },
    {
      "midi": 76,
      "hit": false,
      "t": 9999.99,
      "d": 454.5450000000001,
      "v": 127
    },
    {
      "midi": 77,
      "hit": false,
      "t": 10454.535,
      "d": 454.5450000000001,
      "v": 127
    },
    {
      "midi": 56,
      "hit": false,
      "t": 10454.535,
      "d": 454.5450000000001,
      "v": 127
    },
    {
      "midi": 84,
      "hit": false,
      "t": 10909.08,
      "d": 454.5450000000001,
      "v": 127
    },
    {
      "midi": 82,
      "hit": false,
      "t": 11363.625,
      "d": 454.5450000000001,
      "v": 127
    },
    {
      "midi": 56,
      "hit": false,
      "t": 11363.625,
      "d": 909.0900000000001,
      "v": 127
    },
    {
      "midi": 72,
      "hit": false,
      "t": 11818.17,
      "d": 454.5450000000001,
      "v": 127
    },
    {
      "midi": 80,
      "hit": false,
      "t": 11818.17,
      "d": 454.5450000000001,
      "v": 127
    },
    {
      "midi": 70,
      "hit": false,
      "t": 12272.715,
      "d": 454.5450000000001,
      "v": 127
    },
    {
      "midi": 79,
      "hit": false,
      "t": 12272.715,
      "d": 454.5450000000001,
      "v": 127
    },
    {
      "midi": 56,
      "hit": false,
      "t": 12272.715,
      "d": 454.5450000000001,
      "v": 127
    },
    {
      "midi": 68,
      "hit": false,
      "t": 12727.26,
      "d": 454.5450000000001,
      "v": 127
    },
    {
      "midi": 77,
      "hit": false,
      "t": 12727.26,
      "d": 454.5450000000001,
      "v": 127
    },
    {
      "midi": 67,
      "hit": false,
      "t": 13181.805,
      "d": 909.0900000000001,
      "v": 127
    },
    {
      "midi": 75,
      "hit": false,
      "t": 13181.805,
      "d": 909.0900000000001,
      "v": 127
    },
    {
      "midi": 58,
      "hit": false,
      "t": 13181.805,
      "d": 1363.6350000000002,
      "v": 127
    },
    {
      "midi": 65,
      "hit": false,
      "t": 14090.895,
      "d": 454.5450000000001,
      "v": 127
    },
    {
      "midi": 74,
      "hit": false,
      "t": 14090.895,
      "d": 454.5450000000001,
      "v": 127
    },
    {
      "midi": 34,
      "hit": false,
      "t": 14545.44,
      "d": 454.5450000000001,
      "v": 127
    },
    {
      "midi": 46,
      "hit": false,
      "t": 14545.44,
      "d": 454.5450000000001,
      "v": 127
    },
    {
      "midi": 34,
      "hit": false,
      "t": 14999.985,
      "d": 454.5450000000001,
      "v": 127
    },
    {
      "midi": 46,
      "hit": false,
      "t": 14999.985,
      "d": 454.5450000000001,
      "v": 127
    },
    {
      "midi": 70,
      "hit": false,
      "t": 15454.53,
      "d": 454.5450000000001,
      "v": 127
    },
    {
      "midi": 79,
      "hit": false,
      "t": 15454.53,
      "d": 454.5450000000001,
      "v": 127
    },
    {
      "midi": 68,
      "hit": false,
      "t": 15909.075,
      "d": 454.5450000000001,
      "v": 127
    },
    {
      "midi": 77,
      "hit": false,
      "t": 15909.075,
      "d": 454.5450000000001,
      "v": 127
    },
    {
      "midi": 67,
      "hit": false,
      "t": 16363.62,
      "d": 454.5450000000001,
      "v": 127
    },
    {
      "midi": 75,
      "hit": false,
      "t": 16363.62,
      "d": 454.5450000000001,
      "v": 127
    },
    {
      "midi": 67,
      "hit": false,
      "t": 16818.165,
      "d": 909.0900000000001,
      "v": 127
    },
    {
      "midi": 75,
      "hit": false,
      "t": 16818.165,
      "d": 909.0900000000001,
      "v": 127
    },
    {
      "midi": 57,
      "hit": false,
      "t": 17272.71,
      "d": 454.54499999999825,
      "v": 127
    },
    {
      "midi": 58,
      "hit": false,
      "t": 17727.254999999997,
      "d": 454.54499999999825,
      "v": 127
    },
    {
      "midi": 65,
      "hit": false,
      "t": 17727.255,
      "d": 454.54499999999825,
      "v": 127
    },
    {
      "midi": 74,
      "hit": false,
      "t": 17727.255,
      "d": 454.54499999999825,
      "v": 127
    },
    {
      "midi": 34,
      "hit": false,
      "t": 18181.799999999996,
      "d": 454.54499999999825,
      "v": 127
    },
    {
      "midi": 46,
      "hit": false,
      "t": 18181.799999999996,
      "d": 454.54499999999825,
      "v": 127
    },
    {
      "midi": 34,
      "hit": false,
      "t": 18636.344999999994,
      "d": 454.54499999999825,
      "v": 127
    },
    {
      "midi": 46,
      "hit": false,
      "t": 18636.344999999994,
      "d": 454.54499999999825,
      "v": 127
    },
    {
      "midi": 72,
      "hit": false,
      "t": 19090.89,
      "d": 454.54499999999825,
      "v": 127
    },
    {
      "midi": 80,
      "hit": false,
      "t": 19090.89,
      "d": 454.54499999999825,
      "v": 127
    },
    {
      "midi": 70,
      "hit": false,
      "t": 19545.434999999998,
      "d": 454.54499999999825,
      "v": 127
    },
    {
      "midi": 79,
      "hit": false,
      "t": 19545.434999999998,
      "d": 454.54499999999825,
      "v": 127
    },
    {
      "midi": 68,
      "hit": false,
      "t": 19999.979999999996,
      "d": 454.54499999999825,
      "v": 127
    },
    {
      "midi": 77,
      "hit": false,
      "t": 19999.979999999996,
      "d": 454.54499999999825,
      "v": 127
    },
    {
      "midi": 68,
      "hit": false,
      "t": 20454.524999999994,
      "d": 909.0900000000001,
      "v": 127
    },
    {
      "midi": 77,
      "hit": false,
      "t": 20454.524999999994,
      "d": 909.0900000000001,
      "v": 127
    },
    {
      "midi": 62,
      "hit": false,
      "t": 20909.069999999992,
      "d": 454.54499999999825,
      "v": 127
    },
    {
      "midi": 63,
      "hit": false,
      "t": 21363.61499999999,
      "d": 454.54499999999825,
      "v": 127
    },
    {
      "midi": 67,
      "hit": false,
      "t": 21363.614999999994,
      "d": 454.54499999999825,
      "v": 127
    },
    {
      "midi": 75,
      "hit": false,
      "t": 21363.614999999994,
      "d": 454.54499999999825,
      "v": 127
    },
    {
      "midi": 32,
      "hit": false,
      "t": 21818.15999999999,
      "d": 454.54499999999825,
      "v": 127
    },
    {
      "midi": 44,
      "hit": false,
      "t": 21818.15999999999,
      "d": 454.54499999999825,
      "v": 127
    },
    {
      "midi": 56,
      "hit": false,
      "t": 21818.159999999993,
      "d": 454.54499999999825,
      "v": 127
    },
    {
      "midi": 32,
      "hit": false,
      "t": 22272.704999999987,
      "d": 454.54499999999825,
      "v": 127
    },
    {
      "midi": 44,
      "hit": false,
      "t": 22272.704999999987,
      "d": 454.54499999999825,
      "v": 127
    },
    {
      "midi": 56,
      "hit": false,
      "t": 22272.70499999999,
      "d": 454.54499999999825,
      "v": 127
    },
    {
      "midi": 32,
      "hit": false,
      "t": 22727.249999999985,
      "d": 454.54499999999825,
      "v": 127
    },
    {
      "midi": 44,
      "hit": false,
      "t": 22727.249999999985,
      "d": 454.54499999999825,
      "v": 127
    },
    {
      "midi": 56,
      "hit": false,
      "t": 22727.24999999999,
      "d": 454.54499999999825,
      "v": 127
    },
    {
      "midi": 32,
      "hit": false,
      "t": 23181.794999999984,
      "d": 454.54499999999825,
      "v": 127
    },
    {
      "midi": 44,
      "hit": false,
      "t": 23181.794999999984,
      "d": 454.54499999999825,
      "v": 127
    },
    {
      "midi": 56,
      "hit": false,
      "t": 23181.794999999987,
      "d": 454.54499999999825,
      "v": 127
    },
    {
      "midi": 32,
      "hit": false,
      "t": 23636.339999999982,
      "d": 454.54499999999825,
      "v": 127
    },
    {
      "midi": 44,
      "hit": false,
      "t": 23636.339999999982,
      "d": 454.54499999999825,
      "v": 127
    },
    {
      "midi": 56,
      "hit": false,
      "t": 23636.339999999986,
      "d": 454.54499999999825,
      "v": 127
    },
    {
      "midi": 56,
      "hit": false,
      "t": 24090.88499999998,
      "d": 909.0900000000001,
      "v": 127
    },
    {
      "midi": 62,
      "hit": false,
      "t": 24090.88499999998,
      "d": 909.0900000000001,
      "v": 127
    },
    {
      "midi": 65,
      "hit": false,
      "t": 24090.88499999998,
      "d": 909.0900000000001,
      "v": 127
    },
    {
      "midi": 74,
      "hit": false,
      "t": 24090.884999999984,
      "d": 909.0900000000001,
      "v": 127
    },
    {
      "midi": 77,
      "hit": false,
      "t": 24090.884999999984,
      "d": 909.0900000000001,
      "v": 127
    },
    {
      "midi": 84,
      "hit": false,
      "t": 24090.884999999984,
      "d": 909.0900000000001,
      "v": 127
    },
    {
      "midi": 56,
      "hit": false,
      "t": 24999.97499999998,
      "d": 454.54499999999825,
      "v": 127
    },
    {
      "midi": 58,
      "hit": false,
      "t": 24999.97499999998,
      "d": 454.54499999999825,
      "v": 127
    },
    {
      "midi": 65,
      "hit": false,
      "t": 24999.97499999998,
      "d": 454.54499999999825,
      "v": 127
    },
    {
      "midi": 74,
      "hit": false,
      "t": 24999.974999999984,
      "d": 454.54499999999825,
      "v": 127
    },
    {
      "midi": 55,
      "hit": false,
      "t": 25909.064999999977,
      "d": 454.54499999999825,
      "v": 127
    },
    {
      "midi": 75,
      "hit": false,
      "t": 25909.06499999998,
      "d": 227.27249999999913,
      "v": 127
    },
    {
      "midi": 70,
      "hit": false,
      "t": 26136.33749999998,
      "d": 227.27249999999913,
      "v": 127
    },
    {
      "midi": 56,
      "hit": false,
      "t": 26363.609999999975,
      "d": 454.54499999999825,
      "v": 127
    },
    {
      "midi": 72,
      "hit": false,
      "t": 26363.60999999998,
      "d": 227.27249999999913,
      "v": 127
    },
    {
      "midi": 68,
      "hit": false,
      "t": 26590.882499999978,
      "d": 227.27249999999913,
      "v": 127
    },
    {
      "midi": 58,
      "hit": false,
      "t": 26818.154999999973,
      "d": 454.54499999999825,
      "v": 127
    },
    {
      "midi": 67,
      "hit": false,
      "t": 26818.154999999977,
      "d": 454.54499999999825,
      "v": 127
    },
    {
      "midi": 46,
      "hit": false,
      "t": 27272.69999999997,
      "d": 454.54499999999825,
      "v": 127
    },
    {
      "midi": 65,
      "hit": false,
      "t": 27272.699999999975,
      "d": 454.54499999999825,
      "v": 127
    },
    {
      "midi": 51,
      "hit": false,
      "t": 27727.24499999997,
      "d": 454.54499999999825,
      "v": 127
    },
    {
      "midi": 63,
      "hit": false,
      "t": 27727.244999999974,
      "d": 909.0900000000001,
      "v": 127
    },
    {
      "midi": 46,
      "hit": false,
      "t": 28181.789999999968,
      "d": 454.54499999999825,
      "v": 127
    },
    {
      "midi": 39,
      "hit": false,
      "t": 28636.334999999966,
      "d": 454.54499999999825,
      "v": 127
    },
    {
      "midi": 70,
      "hit": false,
      "t": 29090.879999999972,
      "d": 454.54499999999825,
      "v": 127
    },
    {
      "midi": 70,
      "hit": false,
      "t": 29545.42499999997,
      "d": 454.54499999999825,
      "v": 127
    },
    {
      "midi": 58,
      "hit": false,
      "t": 29999.96999999997,
      "d": 454.54499999999825,
      "v": 127
    },
    {
      "midi": 51,
      "hit": false,
      "t": 30454.514999999963,
      "d": 454.54499999999825,
      "v": 127
    },
    {
      "midi": 55,
      "hit": false,
      "t": 30454.514999999963,
      "d": 454.54499999999825,
      "v": 127
    },
    {
      "midi": 67,
      "hit": false,
      "t": 30454.514999999967,
      "d": 454.54499999999825,
      "v": 127
    },
    {
      "midi": 63,
      "hit": false,
      "t": 30909.059999999965,
      "d": 454.54499999999825,
      "v": 127
    },
    {
      "midi": 53,
      "hit": false,
      "t": 31363.60499999996,
      "d": 909.0900000000001,
      "v": 127
    },
    {
      "midi": 56,
      "hit": false,
      "t": 31363.60499999996,
      "d": 909.0900000000001,
      "v": 127
    },
    {
      "midi": 63,
      "hit": false,
      "t": 31363.604999999963,
      "d": 909.0900000000001,
      "v": 127
    },
    {
      "midi": 53,
      "hit": false,
      "t": 32272.69499999996,
      "d": 454.54499999999825,
      "v": 127
    },
    {
      "midi": 56,
      "hit": false,
      "t": 32272.69499999996,
      "d": 454.54499999999825,
      "v": 127
    },
    {
      "midi": 62,
      "hit": false,
      "t": 32272.694999999963,
      "d": 454.54499999999825,
      "v": 127
    },
    {
      "midi": 70,
      "hit": false,
      "t": 32727.23999999996,
      "d": 454.54499999999825,
      "v": 127
    },
    {
      "midi": 70,
      "hit": false,
      "t": 33181.78499999996,
      "d": 454.54499999999825,
      "v": 127
    },
    {
      "midi": 68,
      "hit": false,
      "t": 33636.32999999996,
      "d": 454.54499999999825,
      "v": 127
    },
    {
      "midi": 62,
      "hit": false,
      "t": 34090.874999999956,
      "d": 454.54499999999825,
      "v": 127
    },
    {
      "midi": 53,
      "hit": false,
      "t": 34090.874999999956,
      "d": 454.54499999999825,
      "v": 127
    },
    {
      "midi": 56,
      "hit": false,
      "t": 34090.874999999956,
      "d": 454.54499999999825,
      "v": 127
    },
    {
      "midi": 65,
      "hit": false,
      "t": 34545.419999999955,
      "d": 454.54499999999825,
      "v": 127
    },
    {
      "midi": 65,
      "hit": false,
      "t": 34999.96499999995,
      "d": 909.0899999999965,
      "v": 127
    },
    {
      "midi": 55,
      "hit": false,
      "t": 34999.96499999995,
      "d": 909.0899999999965,
      "v": 127
    },
    {
      "midi": 58,
      "hit": false,
      "t": 34999.96499999995,
      "d": 909.0899999999965,
      "v": 127
    },
    {
      "midi": 63,
      "hit": false,
      "t": 35909.05499999995,
      "d": 454.54499999999825,
      "v": 127
    },
    {
      "midi": 55,
      "hit": false,
      "t": 35909.05499999995,
      "d": 454.54499999999825,
      "v": 127
    },
    {
      "midi": 58,
      "hit": false,
      "t": 35909.05499999995,
      "d": 454.54499999999825,
      "v": 127
    },
    {
      "midi": 70,
      "hit": false,
      "t": 36363.59999999995,
      "d": 454.54499999999825,
      "v": 127
    },
    {
      "midi": 70,
      "hit": false,
      "t": 36818.144999999946,
      "d": 454.54499999999825,
      "v": 127
    },
    {
      "midi": 63,
      "hit": false,
      "t": 37272.689999999944,
      "d": 454.54499999999825,
      "v": 127
    },
    {
      "midi": 67,
      "hit": false,
      "t": 37727.23499999994,
      "d": 454.54499999999825,
      "v": 127
    },
    {
      "midi": 51,
      "hit": false,
      "t": 37727.23499999995,
      "d": 454.54499999999825,
      "v": 127
    },
    {
      "midi": 58,
      "hit": false,
      "t": 38181.77999999994,
      "d": 454.54499999999825,
      "v": 127
    },
    {
      "midi": 61,
      "hit": false,
      "t": 38636.32499999994,
      "d": 454.54499999999825,
      "v": 127
    },
    {
      "midi": 56,
      "hit": false,
      "t": 38636.324999999946,
      "d": 909.0899999999965,
      "v": 127
    },
    {
      "midi": 59,
      "hit": false,
      "t": 39090.86999999994,
      "d": 454.54499999999825,
      "v": 127
    },
    {
      "midi": 67,
      "hit": false,
      "t": 39090.86999999994,
      "d": 454.54499999999825,
      "v": 127
    },
    {
      "midi": 60,
      "hit": false,
      "t": 39545.414999999935,
      "d": 454.54499999999825,
      "v": 127
    },
    {
      "midi": 68,
      "hit": false,
      "t": 39545.414999999935,
      "d": 454.54499999999825,
      "v": 127
    },
    {
      "midi": 44,
      "hit": false,
      "t": 39545.41499999994,
      "d": 454.54499999999825,
      "v": 127
    },
    {
      "midi": 72,
      "hit": false,
      "t": 39999.959999999934,
      "d": 454.54499999999825,
      "v": 127
    },
    {
      "midi": 65,
      "hit": false,
      "t": 40454.50499999993,
      "d": 454.54499999999825,
      "v": 127
    },
    {
      "midi": 48,
      "hit": false,
      "t": 40454.50499999994,
      "d": 909.0899999999965,
      "v": 127
    },
    {
      "midi": 72,
      "hit": false,
      "t": 40909.04999999993,
      "d": 454.54499999999825,
      "v": 127
    },
    {
      "midi": 68,
      "hit": false,
      "t": 41363.59499999993,
      "d": 454.54499999999825,
      "v": 127
    },
    {
      "midi": 44,
      "hit": false,
      "t": 41363.594999999936,
      "d": 454.54499999999825,
      "v": 127
    },
    {
      "midi": 48,
      "hit": false,
      "t": 41363.594999999936,
      "d": 454.54499999999825,
      "v": 127
    },
    {
      "midi": 60,
      "hit": false,
      "t": 41363.594999999936,
      "d": 454.54499999999825,
      "v": 127
    },
    {
      "midi": 65,
      "hit": false,
      "t": 41818.13999999993,
      "d": 454.54499999999825,
      "v": 127
    },
    {
      "midi": 63,
      "hit": false,
      "t": 42272.684999999925,
      "d": 909.0899999999965,
      "v": 127
    },
    {
      "midi": 55,
      "hit": false,
      "t": 42272.68499999993,
      "d": 909.0899999999965,
      "v": 127
    },
    {
      "midi": 62,
      "hit": false,
      "t": 43181.77499999992,
      "d": 454.54499999999825,
      "v": 127
    },
    {
      "midi": 53,
      "hit": false,
      "t": 43181.77499999993,
      "d": 454.54499999999825,
      "v": 127
    },
    {
      "midi": 70,
      "hit": false,
      "t": 43636.31999999992,
      "d": 454.54499999999825,
      "v": 127
    },
    {
      "midi": 82,
      "hit": false,
      "t": 43636.31999999992,
      "d": 454.54499999999825,
      "v": 127
    },
    {
      "midi": 70,
      "hit": false,
      "t": 44090.86499999992,
      "d": 454.54499999999825,
      "v": 127
    },
    {
      "midi": 82,
      "hit": false,
      "t": 44090.86499999992,
      "d": 454.54499999999825,
      "v": 127
    },
    {
      "midi": 55,
      "hit": false,
      "t": 44545.40999999992,
      "d": 454.54499999999825,
      "v": 127
    },
    {
      "midi": 58,
      "hit": false,
      "t": 44545.40999999992,
      "d": 454.54499999999825,
      "v": 127
    },
    {
      "midi": 53,
      "hit": false,
      "t": 44999.95499999992,
      "d": 454.54499999999825,
      "v": 127
    },
    {
      "midi": 56,
      "hit": false,
      "t": 44999.95499999992,
      "d": 454.54499999999825,
      "v": 127
    },
    {
      "midi": 51,
      "hit": false,
      "t": 45454.49999999992,
      "d": 454.54499999999825,
      "v": 127
    },
    {
      "midi": 55,
      "hit": false,
      "t": 45454.49999999992,
      "d": 454.54499999999825,
      "v": 127
    },
    {
      "midi": 51,
      "hit": false,
      "t": 45909.04499999992,
      "d": 909.0899999999965,
      "v": 127
    },
    {
      "midi": 55,
      "hit": false,
      "t": 45909.04499999992,
      "d": 909.0899999999965,
      "v": 127
    },
    {
      "midi": 50,
      "hit": false,
      "t": 46818.134999999915,
      "d": 454.54499999999825,
      "v": 127
    },
    {
      "midi": 53,
      "hit": false,
      "t": 46818.134999999915,
      "d": 454.54499999999825,
      "v": 127
    },
    {
      "midi": 70,
      "hit": false,
      "t": 47272.67999999991,
      "d": 454.54499999999825,
      "v": 127
    },
    {
      "midi": 82,
      "hit": false,
      "t": 47272.67999999991,
      "d": 454.54499999999825,
      "v": 127
    },
    {
      "midi": 70,
      "hit": false,
      "t": 47727.22499999991,
      "d": 454.54499999999825,
      "v": 127
    },
    {
      "midi": 82,
      "hit": false,
      "t": 47727.22499999991,
      "d": 454.54499999999825,
      "v": 127
    },
    {
      "midi": 50,
      "hit": false,
      "t": 48181.76999999991,
      "d": 454.54499999999825,
      "v": 127
    },
    {
      "midi": 53,
      "hit": false,
      "t": 48181.76999999991,
      "d": 454.54499999999825,
      "v": 127
    },
    {
      "midi": 51,
      "hit": false,
      "t": 48636.31499999991,
      "d": 454.54499999999825,
      "v": 127
    },
    {
      "midi": 55,
      "hit": false,
      "t": 48636.31499999991,
      "d": 454.54499999999825,
      "v": 127
    },
    {
      "midi": 53,
      "hit": false,
      "t": 49090.859999999906,
      "d": 454.54499999999825,
      "v": 127
    },
    {
      "midi": 56,
      "hit": false,
      "t": 49090.859999999906,
      "d": 454.54499999999825,
      "v": 127
    },
    {
      "midi": 53,
      "hit": false,
      "t": 49545.404999999904,
      "d": 909.0899999999965,
      "v": 127
    },
    {
      "midi": 56,
      "hit": false,
      "t": 49545.404999999904,
      "d": 909.0899999999965,
      "v": 127
    },
    {
      "midi": 51,
      "hit": false,
      "t": 50454.4949999999,
      "d": 454.54499999999825,
      "v": 127
    },
    {
      "midi": 55,
      "hit": false,
      "t": 50454.4949999999,
      "d": 454.54499999999825,
      "v": 127
    },
    {
      "midi": 75,
      "hit": false,
      "t": 50909.039999999906,
      "d": 454.54499999999825,
      "v": 127
    },
    {
      "midi": 87,
      "hit": false,
      "t": 50909.039999999906,
      "d": 454.54499999999825,
      "v": 127
    },
    {
      "midi": 75,
      "hit": false,
      "t": 51363.584999999905,
      "d": 454.54499999999825,
      "v": 127
    },
    {
      "midi": 87,
      "hit": false,
      "t": 51363.584999999905,
      "d": 454.54499999999825,
      "v": 127
    },
    {
      "midi": 37,
      "hit": false,
      "t": 51818.129999999896,
      "d": 454.54499999999825,
      "v": 127
    },
    {
      "midi": 49,
      "hit": false,
      "t": 51818.129999999896,
      "d": 454.54499999999825,
      "v": 127
    },
    {
      "midi": 58,
      "hit": false,
      "t": 51818.1299999999,
      "d": 454.54499999999825,
      "v": 127
    },
    {
      "midi": 63,
      "hit": false,
      "t": 51818.1299999999,
      "d": 454.54499999999825,
      "v": 127
    },
    {
      "midi": 67,
      "hit": false,
      "t": 51818.1299999999,
      "d": 454.54499999999825,
      "v": 127
    },
    {
      "midi": 37,
      "hit": false,
      "t": 52272.674999999894,
      "d": 454.54499999999825,
      "v": 127
    },
    {
      "midi": 49,
      "hit": false,
      "t": 52272.674999999894,
      "d": 454.54499999999825,
      "v": 127
    },
    {
      "midi": 58,
      "hit": false,
      "t": 52272.6749999999,
      "d": 454.54499999999825,
      "v": 127
    },
    {
      "midi": 63,
      "hit": false,
      "t": 52272.6749999999,
      "d": 454.54499999999825,
      "v": 127
    },
    {
      "midi": 67,
      "hit": false,
      "t": 52272.6749999999,
      "d": 454.54499999999825,
      "v": 127
    },
    {
      "midi": 36,
      "hit": false,
      "t": 52727.21999999989,
      "d": 454.54499999999825,
      "v": 127
    },
    {
      "midi": 48,
      "hit": false,
      "t": 52727.21999999989,
      "d": 454.54499999999825,
      "v": 127
    },
    {
      "midi": 60,
      "hit": false,
      "t": 52727.2199999999,
      "d": 454.54499999999825,
      "v": 127
    },
    {
      "midi": 63,
      "hit": false,
      "t": 52727.2199999999,
      "d": 454.54499999999825,
      "v": 127
    },
    {
      "midi": 68,
      "hit": false,
      "t": 52727.2199999999,
      "d": 454.54499999999825,
      "v": 127
    },
    {
      "midi": 36,
      "hit": false,
      "t": 53181.76499999989,
      "d": 454.54499999999825,
      "v": 127
    },
    {
      "midi": 48,
      "hit": false,
      "t": 53181.76499999989,
      "d": 454.54499999999825,
      "v": 127
    },
    {
      "midi": 60,
      "hit": false,
      "t": 53181.7649999999,
      "d": 454.54499999999825,
      "v": 127
    },
    {
      "midi": 63,
      "hit": false,
      "t": 53181.7649999999,
      "d": 454.54499999999825,
      "v": 127
    },
    {
      "midi": 68,
      "hit": false,
      "t": 53181.7649999999,
      "d": 454.54499999999825,
      "v": 127
    },
    {
      "midi": 35,
      "hit": false,
      "t": 53636.30999999989,
      "d": 454.54499999999825,
      "v": 127
    },
    {
      "midi": 47,
      "hit": false,
      "t": 53636.30999999989,
      "d": 454.54499999999825,
      "v": 127
    },
    {
      "midi": 63,
      "hit": false,
      "t": 53636.309999999896,
      "d": 454.54499999999825,
      "v": 127
    },
    {
      "midi": 69,
      "hit": false,
      "t": 53636.309999999896,
      "d": 454.54499999999825,
      "v": 127
    },
    {
      "midi": 35,
      "hit": false,
      "t": 54090.85499999989,
      "d": 454.54499999999825,
      "v": 127
    },
    {
      "midi": 47,
      "hit": false,
      "t": 54090.85499999989,
      "d": 454.54499999999825,
      "v": 127
    },
    {
      "midi": 63,
      "hit": false,
      "t": 54090.854999999894,
      "d": 454.54499999999825,
      "v": 127
    },
    {
      "midi": 69,
      "hit": false,
      "t": 54090.854999999894,
      "d": 454.54499999999825,
      "v": 127
    },
    {
      "midi": 34,
      "hit": false,
      "t": 54545.399999999885,
      "d": 454.54499999999825,
      "v": 127
    },
    {
      "midi": 46,
      "hit": false,
      "t": 54545.399999999885,
      "d": 454.54499999999825,
      "v": 127
    },
    {
      "midi": 62,
      "hit": false,
      "t": 54545.39999999989,
      "d": 454.54499999999825,
      "v": 127
    },
    {
      "midi": 70,
      "hit": false,
      "t": 54545.39999999989,
      "d": 454.54499999999825,
      "v": 127
    },
    {
      "midi": 32,
      "hit": false,
      "t": 54999.94499999988,
      "d": 909.0899999999965,
      "v": 127
    },
    {
      "midi": 44,
      "hit": false,
      "t": 54999.94499999988,
      "d": 909.0899999999965,
      "v": 127
    },
    {
      "midi": 60,
      "hit": false,
      "t": 54999.94499999989,
      "d": 909.0899999999965,
      "v": 127
    },
    {
      "midi": 63,
      "hit": false,
      "t": 54999.94499999989,
      "d": 909.0899999999965,
      "v": 127
    },
    {
      "midi": 72,
      "hit": false,
      "t": 54999.94499999989,
      "d": 909.0899999999965,
      "v": 127
    },
    {
      "midi": 46,
      "hit": false,
      "t": 55909.03499999988,
      "d": 454.54499999999825,
      "v": 127
    },
    {
      "midi": 53,
      "hit": false,
      "t": 55909.03499999988,
      "d": 454.54499999999825,
      "v": 127
    },
    {
      "midi": 56,
      "hit": false,
      "t": 55909.03499999988,
      "d": 454.54499999999825,
      "v": 127
    },
    {
      "midi": 62,
      "hit": false,
      "t": 55909.03499999989,
      "d": 454.54499999999825,
      "v": 127
    },
    {
      "midi": 51,
      "hit": false,
      "t": 56818.124999999876,
      "d": 454.54499999999825,
      "v": 127
    },
    {
      "midi": 63,
      "hit": false,
      "t": 56818.12499999988,
      "d": 909.0899999999965,
      "v": 127
    },
    {
      "midi": 46,
      "hit": false,
      "t": 57272.669999999875,
      "d": 454.54499999999825,
      "v": 127
    },
    {
      "midi": 39,
      "hit": false,
      "t": 57727.21499999987,
      "d": 454.54499999999825,
      "v": 127
    },
    {
      "midi": 67,
      "hit": false,
      "t": 58181.75999999988,
      "d": 454.54499999999825,
      "v": 127
    },
    {
      "midi": 67,
      "hit": false,
      "t": 58636.30499999988,
      "d": 454.54499999999825,
      "v": 127
    },
    {
      "midi": 62,
      "hit": false,
      "t": 59090.84999999987,
      "d": 454.54499999999825,
      "v": 127
    },
    {
      "midi": 71,
      "hit": false,
      "t": 59090.849999999875,
      "d": 454.54499999999825,
      "v": 127
    },
    {
      "midi": 67,
      "hit": false,
      "t": 59545.394999999866,
      "d": 454.54499999999825,
      "v": 127
    },
    {
      "midi": 74,
      "hit": false,
      "t": 59545.39499999987,
      "d": 454.54499999999825,
      "v": 127
    },
    {
      "midi": 63,
      "hit": false,
      "t": 59999.939999999864,
      "d": 909.0899999999965,
      "v": 127
    },
    {
      "midi": 67,
      "hit": false,
      "t": 59999.93999999987,
      "d": 454.54499999999825,
      "v": 127
    },
    {
      "midi": 72,
      "hit": false,
      "t": 59999.93999999987,
      "d": 454.54499999999825,
      "v": 127
    },
    {
      "midi": 67,
      "hit": false,
      "t": 60454.48499999987,
      "d": 454.54499999999825,
      "v": 127
    },
    {
      "midi": 59,
      "hit": false,
      "t": 60909.02999999986,
      "d": 454.54499999999825,
      "v": 127
    },
    {
      "midi": 74,
      "hit": false,
      "t": 60909.02999999987,
      "d": 454.54499999999825,
      "v": 127
    },
    {
      "midi": 62,
      "hit": false,
      "t": 61363.57499999986,
      "d": 454.54499999999825,
      "v": 127
    },
    {
      "midi": 77,
      "hit": false,
      "t": 61363.574999999866,
      "d": 454.54499999999825,
      "v": 127
    },
    {
      "midi": 60,
      "hit": false,
      "t": 61818.11999999986,
      "d": 909.0899999999965,
      "v": 127
    },
    {
      "midi": 67,
      "hit": false,
      "t": 61818.119999999864,
      "d": 454.54499999999825,
      "v": 127
    },
    {
      "midi": 75,
      "hit": false,
      "t": 61818.119999999864,
      "d": 454.54499999999825,
      "v": 127
    },
    {
      "midi": 79,
      "hit": false,
      "t": 62272.66499999986,
      "d": 454.54499999999825,
      "v": 127
    },
    {
      "midi": 48,
      "hit": false,
      "t": 62727.20999999985,
      "d": 454.54499999999825,
      "v": 127
    },
    {
      "midi": 67,
      "hit": false,
      "t": 62727.20999999986,
      "d": 454.54499999999825,
      "v": 127
    },
    {
      "midi": 75,
      "hit": false,
      "t": 62727.20999999986,
      "d": 454.54499999999825,
      "v": 127
    },
    {
      "midi": 50,
      "hit": false,
      "t": 63181.75499999985,
      "d": 454.54499999999825,
      "v": 127
    },
    {
      "midi": 65,
      "hit": false,
      "t": 63181.75499999986,
      "d": 454.54499999999825,
      "v": 127
    },
    {
      "midi": 74,
      "hit": false,
      "t": 63181.75499999986,
      "d": 454.54499999999825,
      "v": 127
    },
    {
      "midi": 51,
      "hit": false,
      "t": 63636.29999999985,
      "d": 454.54499999999825,
      "v": 127
    },
    {
      "midi": 63,
      "hit": false,
      "t": 63636.29999999986,
      "d": 454.54499999999825,
      "v": 127
    },
    {
      "midi": 72,
      "hit": false,
      "t": 63636.29999999986,
      "d": 454.54499999999825,
      "v": 127
    },
    {
      "midi": 53,
      "hit": false,
      "t": 64090.84499999985,
      "d": 1363.635000000002,
      "v": 127
    },
    {
      "midi": 62,
      "hit": false,
      "t": 64090.844999999856,
      "d": 909.0899999999965,
      "v": 127
    },
    {
      "midi": 70,
      "hit": false,
      "t": 64090.844999999856,
      "d": 909.0899999999965,
      "v": 127
    },
    {
      "midi": 60,
      "hit": false,
      "t": 64999.93499999985,
      "d": 454.54499999999825,
      "v": 127
    },
    {
      "midi": 69,
      "hit": false,
      "t": 64999.93499999985,
      "d": 454.54499999999825,
      "v": 127
    },
    {
      "midi": 65,
      "hit": false,
      "t": 65454.47999999985,
      "d": 454.54499999999825,
      "v": 127
    },
    {
      "midi": 57,
      "hit": false,
      "t": 65454.47999999985,
      "d": 454.54499999999825,
      "v": 127
    },
    {
      "midi": 65,
      "hit": false,
      "t": 65909.02499999985,
      "d": 454.54499999999825,
      "v": 127
    },
    {
      "midi": 57,
      "hit": false,
      "t": 65909.02499999985,
      "d": 454.54499999999825,
      "v": 127
    },
    {
      "midi": 67,
      "hit": false,
      "t": 66363.56999999985,
      "d": 454.54499999999825,
      "v": 127
    },
    {
      "midi": 58,
      "hit": false,
      "t": 66363.56999999985,
      "d": 454.54499999999825,
      "v": 127
    },
    {
      "midi": 67,
      "hit": false,
      "t": 66818.11499999985,
      "d": 454.54499999999825,
      "v": 127
    },
    {
      "midi": 58,
      "hit": false,
      "t": 66818.11499999985,
      "d": 454.54499999999825,
      "v": 127
    },
    {
      "midi": 69,
      "hit": false,
      "t": 67272.65999999984,
      "d": 454.54499999999825,
      "v": 127
    },
    {
      "midi": 60,
      "hit": false,
      "t": 67272.65999999984,
      "d": 454.54499999999825,
      "v": 127
    },
    {
      "midi": 69,
      "hit": false,
      "t": 67727.20499999984,
      "d": 909.0899999999965,
      "v": 127
    },
    {
      "midi": 60,
      "hit": false,
      "t": 67727.20499999984,
      "d": 454.54499999999825,
      "v": 127
    },
    {
      "midi": 53,
      "hit": false,
      "t": 68181.74999999984,
      "d": 454.54499999999825,
      "v": 127
    },
    {
      "midi": 70,
      "hit": false,
      "t": 68636.29499999984,
      "d": 454.54499999999825,
      "v": 127
    },
    {
      "midi": 61,
      "hit": false,
      "t": 68636.29499999984,
      "d": 454.54499999999825,
      "v": 127
    },
    {
      "midi": 67,
      "hit": false,
      "t": 69090.83999999984,
      "d": 454.54499999999825,
      "v": 127
    },
    {
      "midi": 58,
      "hit": false,
      "t": 69090.83999999984,
      "d": 454.54499999999825,
      "v": 127
    },
    {
      "midi": 67,
      "hit": false,
      "t": 69545.38499999983,
      "d": 454.54499999999825,
      "v": 127
    },
    {
      "midi": 58,
      "hit": false,
      "t": 69545.38499999983,
      "d": 454.54499999999825,
      "v": 127
    },
    {
      "midi": 69,
      "hit": false,
      "t": 69999.92999999983,
      "d": 454.54499999999825,
      "v": 127
    },
    {
      "midi": 60,
      "hit": false,
      "t": 69999.92999999983,
      "d": 454.54499999999825,
      "v": 127
    },
    {
      "midi": 69,
      "hit": false,
      "t": 70454.47499999983,
      "d": 454.54499999999825,
      "v": 127
    },
    {
      "midi": 60,
      "hit": false,
      "t": 70454.47499999983,
      "d": 454.54499999999825,
      "v": 127
    },
    {
      "midi": 71,
      "hit": false,
      "t": 70909.01999999983,
      "d": 454.54499999999825,
      "v": 127
    },
    {
      "midi": 62,
      "hit": false,
      "t": 70909.01999999983,
      "d": 454.54499999999825,
      "v": 127
    },
    {
      "midi": 71,
      "hit": false,
      "t": 71363.56499999983,
      "d": 909.0899999999965,
      "v": 127
    },
    {
      "midi": 62,
      "hit": false,
      "t": 71363.56499999983,
      "d": 454.54499999999825,
      "v": 127
    },
    {
      "midi": 53,
      "hit": false,
      "t": 71818.10999999983,
      "d": 454.54499999999825,
      "v": 127
    },
    {
      "midi": 72,
      "hit": false,
      "t": 72272.65499999982,
      "d": 454.54499999999825,
      "v": 127
    },
    {
      "midi": 63,
      "hit": false,
      "t": 72272.65499999982,
      "d": 454.54499999999825,
      "v": 127
    },
    {
      "midi": 69,
      "hit": false,
      "t": 72727.19999999982,
      "d": 454.54499999999825,
      "v": 127
    },
    {
      "midi": 60,
      "hit": false,
      "t": 72727.19999999982,
      "d": 454.54499999999825,
      "v": 127
    },
    {
      "midi": 69,
      "hit": false,
      "t": 73181.74499999982,
      "d": 454.54499999999825,
      "v": 127
    },
    {
      "midi": 60,
      "hit": false,
      "t": 73181.74499999982,
      "d": 454.54499999999825,
      "v": 127
    },
    {
      "midi": 70,
      "hit": false,
      "t": 73636.28999999982,
      "d": 454.54499999999825,
      "v": 127
    },
    {
      "midi": 61,
      "hit": false,
      "t": 73636.28999999982,
      "d": 454.54499999999825,
      "v": 127
    },
    {
      "midi": 70,
      "hit": false,
      "t": 74090.83499999982,
      "d": 454.54499999999825,
      "v": 127
    },
    {
      "midi": 61,
      "hit": false,
      "t": 74090.83499999982,
      "d": 454.54499999999825,
      "v": 127
    },
    {
      "midi": 71,
      "hit": false,
      "t": 74545.37999999982,
      "d": 454.54499999999825,
      "v": 127
    },
    {
      "midi": 62,
      "hit": false,
      "t": 74545.37999999982,
      "d": 454.54499999999825,
      "v": 127
    },
    {
      "midi": 71,
      "hit": false,
      "t": 74999.92499999981,
      "d": 454.54499999999825,
      "v": 127
    },
    {
      "midi": 62,
      "hit": false,
      "t": 74999.92499999981,
      "d": 454.54499999999825,
      "v": 127
    },
    {
      "midi": 63,
      "hit": false,
      "t": 75454.46999999981,
      "d": 454.54499999999825,
      "v": 127
    },
    {
      "midi": 72,
      "hit": false,
      "t": 75454.46999999981,
      "d": 454.54499999999825,
      "v": 127
    },
    {
      "midi": 63,
      "hit": false,
      "t": 75909.01499999981,
      "d": 454.54499999999825,
      "v": 127
    },
    {
      "midi": 72,
      "hit": false,
      "t": 75909.01499999981,
      "d": 454.54499999999825,
      "v": 127
    },
    {
      "midi": 64,
      "hit": false,
      "t": 76363.55999999981,
      "d": 454.54499999999825,
      "v": 127
    },
    {
      "midi": 73,
      "hit": false,
      "t": 76363.55999999981,
      "d": 454.54499999999825,
      "v": 127
    },
    {
      "midi": 64,
      "hit": false,
      "t": 76818.1049999998,
      "d": 454.54499999999825,
      "v": 127
    },
    {
      "midi": 73,
      "hit": false,
      "t": 76818.1049999998,
      "d": 454.54499999999825,
      "v": 127
    },
    {
      "midi": 65,
      "hit": false,
      "t": 77272.6499999998,
      "d": 454.54499999999825,
      "v": 127
    },
    {
      "midi": 74,
      "hit": false,
      "t": 77272.6499999998,
      "d": 454.54499999999825,
      "v": 127
    },
    {
      "midi": 66,
      "hit": false,
      "t": 77727.1949999998,
      "d": 454.54499999999825,
      "v": 127
    },
    {
      "midi": 75,
      "hit": false,
      "t": 77727.1949999998,
      "d": 454.54499999999825,
      "v": 127
    },
    {
      "midi": 67,
      "hit": false,
      "t": 78181.7399999998,
      "d": 454.54499999999825,
      "v": 127
    },
    {
      "midi": 76,
      "hit": false,
      "t": 78181.7399999998,
      "d": 454.54499999999825,
      "v": 127
    },
    {
      "midi": 77,
      "hit": false,
      "t": 78636.2849999998,
      "d": 454.54499999999825,
      "v": 127
    },
    {
      "midi": 63,
      "hit": false,
      "t": 79090.8299999998,
      "d": 454.54499999999825,
      "v": 127
    },
    {
      "midi": 63,
      "hit": false,
      "t": 79545.3749999998,
      "d": 454.54499999999825,
      "v": 127
    },
    {
      "midi": 72,
      "hit": false,
      "t": 79999.9199999998,
      "d": 454.54499999999825,
      "v": 127
    },
    {
      "midi": 81,
      "hit": false,
      "t": 79999.9199999998,
      "d": 454.54499999999825,
      "v": 127
    },
    {
      "midi": 81,
      "hit": false,
      "t": 80454.4649999998,
      "d": 454.54499999999825,
      "v": 127
    },
    {
      "midi": 63,
      "hit": false,
      "t": 80909.00999999979,
      "d": 454.54499999999825,
      "v": 127
    },
    {
      "midi": 51,
      "hit": false,
      "t": 80909.0099999998,
      "d": 454.54499999999825,
      "v": 127
    },
    {
      "midi": 63,
      "hit": false,
      "t": 81363.55499999979,
      "d": 454.54499999999825,
      "v": 127
    },
    {
      "midi": 51,
      "hit": false,
      "t": 81363.5549999998,
      "d": 454.54499999999825,
      "v": 127
    },
    {
      "midi": 81,
      "hit": false,
      "t": 81818.09999999979,
      "d": 454.54499999999825,
      "v": 127
    },
    {
      "midi": 84,
      "hit": false,
      "t": 81818.09999999979,
      "d": 454.54499999999825,
      "v": 127
    },
    {
      "midi": 81,
      "hit": false,
      "t": 82272.64499999979,
      "d": 1363.6349999999948,
      "v": 127
    },
    {
      "midi": 84,
      "hit": false,
      "t": 82272.64499999979,
      "d": 1363.6349999999948,
      "v": 127
    },
    {
      "midi": 39,
      "hit": false,
      "t": 82727.1899999998,
      "d": 454.54499999999825,
      "v": 127
    },
    {
      "midi": 51,
      "hit": false,
      "t": 82727.1899999998,
      "d": 454.54499999999825,
      "v": 127
    },
    {
      "midi": 39,
      "hit": false,
      "t": 83181.7349999998,
      "d": 454.54499999999825,
      "v": 127
    },
    {
      "midi": 51,
      "hit": false,
      "t": 83181.7349999998,
      "d": 454.54499999999825,
      "v": 127
    },
    {
      "midi": 81,
      "hit": false,
      "t": 83636.27999999978,
      "d": 454.54499999999825,
      "v": 127
    },
    {
      "midi": 89,
      "hit": false,
      "t": 83636.27999999978,
      "d": 454.54499999999825,
      "v": 127
    },
    {
      "midi": 81,
      "hit": false,
      "t": 84090.82499999978,
      "d": 1363.6349999999948,
      "v": 127
    },
    {
      "midi": 89,
      "hit": false,
      "t": 84090.82499999978,
      "d": 1363.6349999999948,
      "v": 127
    },
    {
      "midi": 65,
      "hit": false,
      "t": 85454.45999999977,
      "d": 454.54499999999825,
      "v": 127
    },
    {
      "midi": 65,
      "hit": false,
      "t": 85909.00499999977,
      "d": 454.54499999999825,
      "v": 127
    },
    {
      "midi": 46,
      "hit": false,
      "t": 85909.0049999998,
      "d": 909.0899999999965,
      "v": 127
    },
    {
      "midi": 74,
      "hit": false,
      "t": 86363.54999999977,
      "d": 454.54499999999825,
      "v": 127
    },
    {
      "midi": 72,
      "hit": false,
      "t": 86818.09499999977,
      "d": 454.54499999999825,
      "v": 127
    },
    {
      "midi": 46,
      "hit": false,
      "t": 86818.0949999998,
      "d": 454.54499999999825,
      "v": 127
    },
    {
      "midi": 70,
      "hit": false,
      "t": 87272.63999999977,
      "d": 454.54499999999825,
      "v": 127
    },
    {
      "midi": 70,
      "hit": false,
      "t": 87727.18499999976,
      "d": 909.0899999999965,
      "v": 127
    },
    {
      "midi": 48,
      "hit": false,
      "t": 87727.1849999998,
      "d": 909.0899999999965,
      "v": 127
    },
    {
      "midi": 69,
      "hit": false,
      "t": 88636.27499999976,
      "d": 454.54499999999825,
      "v": 127
    },
    {
      "midi": 48,
      "hit": false,
      "t": 88636.27499999979,
      "d": 454.54499999999825,
      "v": 127
    },
    {
      "midi": 63,
      "hit": false,
      "t": 89090.81999999976,
      "d": 454.54499999999825,
      "v": 127
    },
    {
      "midi": 63,
      "hit": false,
      "t": 89545.36499999976,
      "d": 454.54499999999825,
      "v": 127
    },
    {
      "midi": 48,
      "hit": false,
      "t": 89545.36499999979,
      "d": 909.0899999999965,
      "v": 127
    },
    {
      "midi": 75,
      "hit": false,
      "t": 89999.90999999976,
      "d": 454.54499999999825,
      "v": 127
    },
    {
      "midi": 74,
      "hit": false,
      "t": 90454.45499999975,
      "d": 454.54499999999825,
      "v": 127
    },
    {
      "midi": 48,
      "hit": false,
      "t": 90454.45499999978,
      "d": 454.54499999999825,
      "v": 127
    },
    {
      "midi": 72,
      "hit": false,
      "t": 90908.99999999975,
      "d": 454.54499999999825,
      "v": 127
    },
    {
      "midi": 72,
      "hit": false,
      "t": 91363.54499999975,
      "d": 909.0899999999965,
      "v": 127
    },
    {
      "midi": 50,
      "hit": false,
      "t": 91363.54499999978,
      "d": 909.0899999999965,
      "v": 127
    },
    {
      "midi": 70,
      "hit": false,
      "t": 92272.63499999975,
      "d": 454.54499999999825,
      "v": 127
    },
    {
      "midi": 50,
      "hit": false,
      "t": 92272.63499999978,
      "d": 454.54499999999825,
      "v": 127
    },
    {
      "midi": 65,
      "hit": false,
      "t": 92727.17999999975,
      "d": 454.54499999999825,
      "v": 127
    },
    {
      "midi": 65,
      "hit": false,
      "t": 93181.72499999974,
      "d": 454.54499999999825,
      "v": 127
    },
    {
      "midi": 50,
      "hit": false,
      "t": 93181.72499999977,
      "d": 909.0899999999965,
      "v": 127
    },
    {
      "midi": 77,
      "hit": false,
      "t": 93636.26999999974,
      "d": 454.54499999999825,
      "v": 127
    },
    {
      "midi": 75,
      "hit": false,
      "t": 94090.81499999974,
      "d": 454.54499999999825,
      "v": 127
    },
    {
      "midi": 50,
      "hit": false,
      "t": 94090.81499999977,
      "d": 454.54499999999825,
      "v": 127
    },
    {
      "midi": 74,
      "hit": false,
      "t": 94545.35999999974,
      "d": 454.54499999999825,
      "v": 127
    },
    {
      "midi": 74,
      "hit": false,
      "t": 94999.90499999974,
      "d": 454.54499999999825,
      "v": 127
    },
    {
      "midi": 51,
      "hit": false,
      "t": 94999.90499999977,
      "d": 909.0899999999965,
      "v": 127
    },
    {
      "midi": 71,
      "hit": false,
      "t": 95454.44999999974,
      "d": 454.54499999999825,
      "v": 127
    },
    {
      "midi": 72,
      "hit": false,
      "t": 95908.99499999973,
      "d": 454.54499999999825,
      "v": 127
    },
    {
      "midi": 51,
      "hit": false,
      "t": 95908.99499999976,
      "d": 454.54499999999825,
      "v": 127
    },
    {
      "midi": 79,
      "hit": false,
      "t": 96363.53999999973,
      "d": 454.54499999999825,
      "v": 127
    },
    {
      "midi": 77,
      "hit": false,
      "t": 96818.08499999973,
      "d": 454.54499999999825,
      "v": 127
    },
    {
      "midi": 51,
      "hit": false,
      "t": 96818.08499999976,
      "d": 909.0899999999965,
      "v": 127
    },
    {
      "midi": 67,
      "hit": false,
      "t": 97272.62999999973,
      "d": 454.54499999999825,
      "v": 127
    },
    {
      "midi": 75,
      "hit": false,
      "t": 97272.62999999973,
      "d": 454.54499999999825,
      "v": 127
    },
    {
      "midi": 65,
      "hit": false,
      "t": 97727.17499999973,
      "d": 454.54499999999825,
      "v": 127
    },
    {
      "midi": 74,
      "hit": false,
      "t": 97727.17499999973,
      "d": 454.54499999999825,
      "v": 127
    },
    {
      "midi": 51,
      "hit": false,
      "t": 97727.17499999976,
      "d": 454.54499999999825,
      "v": 127
    },
    {
      "midi": 63,
      "hit": false,
      "t": 98181.71999999972,
      "d": 454.54499999999825,
      "v": 127
    },
    {
      "midi": 72,
      "hit": false,
      "t": 98181.71999999972,
      "d": 454.54499999999825,
      "v": 127
    },
    {
      "midi": 62,
      "hit": false,
      "t": 98636.26499999972,
      "d": 909.0899999999965,
      "v": 127
    },
    {
      "midi": 70,
      "hit": false,
      "t": 98636.26499999972,
      "d": 909.0899999999965,
      "v": 127
    },
    {
      "midi": 53,
      "hit": false,
      "t": 98636.26499999975,
      "d": 1363.6349999999948,
      "v": 127
    },
    {
      "midi": 60,
      "hit": false,
      "t": 99545.35499999972,
      "d": 454.54499999999825,
      "v": 127
    },
    {
      "midi": 69,
      "hit": false,
      "t": 99545.35499999972,
      "d": 454.54499999999825,
      "v": 127
    },
    {
      "midi": 41,
      "hit": false,
      "t": 99999.89999999975,
      "d": 454.54499999999825,
      "v": 127
    },
    {
      "midi": 53,
      "hit": false,
      "t": 99999.89999999975,
      "d": 454.54499999999825,
      "v": 127
    },
    {
      "midi": 41,
      "hit": false,
      "t": 100454.44499999975,
      "d": 454.54499999999825,
      "v": 127
    },
    {
      "midi": 53,
      "hit": false,
      "t": 100454.44499999975,
      "d": 454.54499999999825,
      "v": 127
    },
    {
      "midi": 77,
      "hit": false,
      "t": 100908.98999999971,
      "d": 454.54499999999825,
      "v": 127
    },
    {
      "midi": 86,
      "hit": false,
      "t": 100908.98999999971,
      "d": 454.54499999999825,
      "v": 127
    },
    {
      "midi": 75,
      "hit": false,
      "t": 101363.53499999971,
      "d": 454.54499999999825,
      "v": 127
    },
    {
      "midi": 84,
      "hit": false,
      "t": 101363.53499999971,
      "d": 454.54499999999825,
      "v": 127
    },
    {
      "midi": 74,
      "hit": false,
      "t": 101818.07999999971,
      "d": 454.54499999999825,
      "v": 127
    },
    {
      "midi": 82,
      "hit": false,
      "t": 101818.07999999971,
      "d": 454.54499999999825,
      "v": 127
    },
    {
      "midi": 74,
      "hit": false,
      "t": 102272.62499999971,
      "d": 909.0899999999965,
      "v": 127
    },
    {
      "midi": 82,
      "hit": false,
      "t": 102272.62499999971,
      "d": 909.0899999999965,
      "v": 127
    },
    {
      "midi": 63,
      "hit": false,
      "t": 102727.16999999974,
      "d": 454.54499999999825,
      "v": 127
    },
    {
      "midi": 72,
      "hit": false,
      "t": 103181.7149999997,
      "d": 454.54499999999825,
      "v": 127
    },
    {
      "midi": 81,
      "hit": false,
      "t": 103181.7149999997,
      "d": 454.54499999999825,
      "v": 127
    },
    {
      "midi": 65,
      "hit": false,
      "t": 103181.71499999973,
      "d": 454.54499999999825,
      "v": 127
    },
    {
      "midi": 41,
      "hit": false,
      "t": 103636.25999999973,
      "d": 454.54499999999825,
      "v": 127
    },
    {
      "midi": 53,
      "hit": false,
      "t": 103636.25999999973,
      "d": 454.54499999999825,
      "v": 127
    },
    {
      "midi": 41,
      "hit": false,
      "t": 104090.80499999973,
      "d": 454.54499999999825,
      "v": 127
    },
    {
      "midi": 53,
      "hit": false,
      "t": 104090.80499999973,
      "d": 454.54499999999825,
      "v": 127
    },
    {
      "midi": 79,
      "hit": false,
      "t": 104545.3499999997,
      "d": 454.54499999999825,
      "v": 127
    },
    {
      "midi": 87,
      "hit": false,
      "t": 104545.3499999997,
      "d": 454.54499999999825,
      "v": 127
    },
    {
      "midi": 77,
      "hit": false,
      "t": 104999.8949999997,
      "d": 454.54499999999825,
      "v": 127
    },
    {
      "midi": 86,
      "hit": false,
      "t": 104999.8949999997,
      "d": 454.54499999999825,
      "v": 127
    },
    {
      "midi": 75,
      "hit": false,
      "t": 105454.4399999997,
      "d": 454.54499999999825,
      "v": 127
    },
    {
      "midi": 84,
      "hit": false,
      "t": 105454.4399999997,
      "d": 454.54499999999825,
      "v": 127
    },
    {
      "midi": 75,
      "hit": false,
      "t": 105908.9849999997,
      "d": 909.0899999999965,
      "v": 127
    },
    {
      "midi": 84,
      "hit": false,
      "t": 105908.9849999997,
      "d": 909.0899999999965,
      "v": 127
    },
    {
      "midi": 66,
      "hit": false,
      "t": 106363.52999999972,
      "d": 454.54499999999825,
      "v": 127
    },
    {
      "midi": 74,
      "hit": false,
      "t": 106818.07499999969,
      "d": 454.54499999999825,
      "v": 127
    },
    {
      "midi": 82,
      "hit": false,
      "t": 106818.07499999969,
      "d": 454.54499999999825,
      "v": 127
    },
    {
      "midi": 67,
      "hit": false,
      "t": 106818.07499999972,
      "d": 454.54499999999825,
      "v": 127
    },
    {
      "midi": 63,
      "hit": false,
      "t": 107272.61999999969,
      "d": 454.54499999999825,
      "v": 127
    },
    {
      "midi": 39,
      "hit": false,
      "t": 107272.61999999972,
      "d": 454.54499999999825,
      "v": 127
    },
    {
      "midi": 51,
      "hit": false,
      "t": 107272.61999999972,
      "d": 454.54499999999825,
      "v": 127
    },
    {
      "midi": 63,
      "hit": false,
      "t": 107727.16499999969,
      "d": 454.54499999999825,
      "v": 127
    },
    {
      "midi": 39,
      "hit": false,
      "t": 107727.16499999972,
      "d": 454.54499999999825,
      "v": 127
    },
    {
      "midi": 51,
      "hit": false,
      "t": 107727.16499999972,
      "d": 454.54499999999825,
      "v": 127
    },
    {
      "midi": 63,
      "hit": false,
      "t": 108181.70999999969,
      "d": 454.54499999999825,
      "v": 127
    },
    {
      "midi": 39,
      "hit": false,
      "t": 108181.70999999972,
      "d": 454.54499999999825,
      "v": 127
    },
    {
      "midi": 51,
      "hit": false,
      "t": 108181.70999999972,
      "d": 454.54499999999825,
      "v": 127
    },
    {
      "midi": 63,
      "hit": false,
      "t": 108636.25499999968,
      "d": 454.54499999999825,
      "v": 127
    },
    {
      "midi": 39,
      "hit": false,
      "t": 108636.25499999971,
      "d": 454.54499999999825,
      "v": 127
    },
    {
      "midi": 51,
      "hit": false,
      "t": 108636.25499999971,
      "d": 454.54499999999825,
      "v": 127
    },
    {
      "midi": 63,
      "hit": false,
      "t": 109090.79999999968,
      "d": 454.54499999999825,
      "v": 127
    },
    {
      "midi": 39,
      "hit": false,
      "t": 109090.79999999971,
      "d": 454.54499999999825,
      "v": 127
    },
    {
      "midi": 51,
      "hit": false,
      "t": 109090.79999999971,
      "d": 454.54499999999825,
      "v": 127
    },
    {
      "midi": 69,
      "hit": false,
      "t": 109545.34499999968,
      "d": 909.0899999999965,
      "v": 127
    },
    {
      "midi": 72,
      "hit": false,
      "t": 109545.34499999968,
      "d": 909.0899999999965,
      "v": 127
    },
    {
      "midi": 79,
      "hit": false,
      "t": 109545.34499999968,
      "d": 909.0899999999965,
      "v": 127
    },
    {
      "midi": 51,
      "hit": false,
      "t": 109545.34499999971,
      "d": 909.0899999999965,
      "v": 127
    },
    {
      "midi": 57,
      "hit": false,
      "t": 109545.34499999971,
      "d": 909.0899999999965,
      "v": 127
    },
    {
      "midi": 60,
      "hit": false,
      "t": 109545.34499999971,
      "d": 909.0899999999965,
      "v": 127
    },
    {
      "midi": 69,
      "hit": false,
      "t": 110454.43499999968,
      "d": 454.54499999999825,
      "v": 127
    },
    {
      "midi": 51,
      "hit": false,
      "t": 110454.4349999997,
      "d": 454.54499999999825,
      "v": 127
    },
    {
      "midi": 53,
      "hit": false,
      "t": 110454.4349999997,
      "d": 454.54499999999825,
      "v": 127
    },
    {
      "midi": 60,
      "hit": false,
      "t": 110454.4349999997,
      "d": 454.54499999999825,
      "v": 127
    },
    {
      "midi": 70,
      "hit": false,
      "t": 111363.52499999967,
      "d": 227.2725000000064,
      "v": 127
    },
    {
      "midi": 50,
      "hit": false,
      "t": 111363.5249999997,
      "d": 454.54499999999825,
      "v": 127
    },
    {
      "midi": 65,
      "hit": false,
      "t": 111590.79749999968,
      "d": 227.2725000000064,
      "v": 127
    },
    {
      "midi": 67,
      "hit": false,
      "t": 111818.06999999969,
      "d": 227.2725000000064,
      "v": 127
    },
    {
      "midi": 51,
      "hit": false,
      "t": 111818.0699999997,
      "d": 454.54499999999825,
      "v": 127
    },
    {
      "midi": 63,
      "hit": false,
      "t": 112045.3424999997,
      "d": 227.2725000000064,
      "v": 127
    },
    {
      "midi": 62,
      "hit": false,
      "t": 112272.6149999997,
      "d": 454.54499999999825,
      "v": 127
    },
    {
      "midi": 53,
      "hit": false,
      "t": 112272.6149999997,
      "d": 454.54499999999825,
      "v": 127
    },
    {
      "midi": 60,
      "hit": false,
      "t": 112727.1599999997,
      "d": 454.54499999999825,
      "v": 127
    },
    {
      "midi": 41,
      "hit": false,
      "t": 112727.1599999997,
      "d": 454.54499999999825,
      "v": 127
    },
    {
      "midi": 58,
      "hit": false,
      "t": 113181.7049999997,
      "d": 909.0899999999965,
      "v": 127
    },
    {
      "midi": 46,
      "hit": false,
      "t": 113181.7049999997,
      "d": 454.54499999999825,
      "v": 127
    },
    {
      "midi": 41,
      "hit": false,
      "t": 113636.2499999997,
      "d": 454.54499999999825,
      "v": 127
    },
    {
      "midi": 34,
      "hit": false,
      "t": 114090.79499999969,
      "d": 454.54499999999825,
      "v": 127
    },
    {
      "midi": 70,
      "hit": false,
      "t": 114999.88499999969,
      "d": 1363.6349999999948,
      "v": 127
    },
    {
      "midi": 62,
      "hit": false,
      "t": 116818.06499999968,
      "d": 909.0899999999965,
      "v": 127
    },
    {
      "midi": 56,
      "hit": false,
      "t": 116818.0649999997,
      "d": 909.0899999999965,
      "v": 127
    },
    {
      "midi": 63,
      "hit": false,
      "t": 117727.15499999968,
      "d": 454.54499999999825,
      "v": 127
    },
    {
      "midi": 54,
      "hit": false,
      "t": 117727.1549999997,
      "d": 454.54499999999825,
      "v": 127
    },
    {
      "midi": 65,
      "hit": false,
      "t": 118636.24499999968,
      "d": 909.0899999999965,
      "v": 127
    },
    {
      "midi": 68,
      "hit": false,
      "t": 118636.24499999968,
      "d": 909.0899999999965,
      "v": 127
    },
    {
      "midi": 50,
      "hit": false,
      "t": 118636.24499999969,
      "d": 909.0899999999965,
      "v": 127
    },
    {
      "midi": 63,
      "hit": false,
      "t": 119545.33499999967,
      "d": 454.54499999999825,
      "v": 127
    },
    {
      "midi": 66,
      "hit": false,
      "t": 119545.33499999967,
      "d": 454.54499999999825,
      "v": 127
    },
    {
      "midi": 51,
      "hit": false,
      "t": 119545.33499999969,
      "d": 454.54499999999825,
      "v": 127
    },
    {
      "midi": 63,
      "hit": false,
      "t": 120454.42499999967,
      "d": 909.0899999999965,
      "v": 127
    },
    {
      "midi": 66,
      "hit": false,
      "t": 120454.42499999967,
      "d": 909.0899999999965,
      "v": 127
    },
    {
      "midi": 46,
      "hit": false,
      "t": 120454.42499999968,
      "d": 1363.6349999999948,
      "v": 127
    },
    {
      "midi": 62,
      "hit": false,
      "t": 121363.51499999966,
      "d": 454.54499999999825,
      "v": 127
    },
    {
      "midi": 65,
      "hit": false,
      "t": 121363.51499999966,
      "d": 454.54499999999825,
      "v": 127
    },
    {
      "midi": 65,
      "hit": false,
      "t": 122272.60499999966,
      "d": 1363.6349999999948,
      "v": 127
    },
    {
      "midi": 74,
      "hit": false,
      "t": 122272.60499999966,
      "d": 1363.6349999999948,
      "v": 127
    },
    {
      "midi": 35,
      "hit": false,
      "t": 124090.78499999968,
      "d": 1363.6349999999948,
      "v": 127
    },
    {
      "midi": 47,
      "hit": false,
      "t": 124090.78499999968,
      "d": 1363.6349999999948,
      "v": 127
    },
    {
      "midi": 66,
      "hit": false,
      "t": 124999.87499999965,
      "d": 454.54499999999825,
      "v": 127
    },
    {
      "midi": 75,
      "hit": false,
      "t": 124999.87499999965,
      "d": 454.54499999999825,
      "v": 127
    },
    {
      "midi": 45,
      "hit": false,
      "t": 125908.96499999968,
      "d": 909.0899999999965,
      "v": 127
    },
    {
      "midi": 63,
      "hit": false,
      "t": 126818.05499999964,
      "d": 454.54499999999825,
      "v": 127
    },
    {
      "midi": 54,
      "hit": false,
      "t": 126818.05499999967,
      "d": 454.54499999999825,
      "v": 127
    },
    {
      "midi": 44,
      "hit": false,
      "t": 127727.14499999967,
      "d": 1363.6349999999948,
      "v": 127
    },
    {
      "midi": 53,
      "hit": false,
      "t": 127727.14499999967,
      "d": 1363.6349999999948,
      "v": 127
    },
    {
      "midi": 62,
      "hit": false,
      "t": 128636.23499999964,
      "d": 454.54499999999825,
      "v": 127
    },
    {
      "midi": 43,
      "hit": false,
      "t": 129545.32499999966,
      "d": 1363.6349999999948,
      "v": 127
    },
    {
      "midi": 49,
      "hit": false,
      "t": 129545.32499999966,
      "d": 1363.6349999999948,
      "v": 127
    },
    {
      "midi": 58,
      "hit": false,
      "t": 130454.41499999963,
      "d": 454.54499999999825,
      "v": 127
    },
    {
      "midi": 70,
      "hit": false,
      "t": 130454.41499999963,
      "d": 454.54499999999825,
      "v": 127
    },
    {
      "midi": 48,
      "hit": false,
      "t": 131363.50499999966,
      "d": 1363.6350000000093,
      "v": 127
    },
    {
      "midi": 51,
      "hit": false,
      "t": 131363.50499999966,
      "d": 1363.6350000000093,
      "v": 127
    },
    {
      "midi": 54,
      "hit": false,
      "t": 131363.50499999966,
      "d": 1363.6350000000093,
      "v": 127
    },
    {
      "midi": 56,
      "hit": false,
      "t": 132272.59499999962,
      "d": 454.5450000000128,
      "v": 127
    },
    {
      "midi": 68,
      "hit": false,
      "t": 132272.59499999962,
      "d": 454.5450000000128,
      "v": 127
    },
    {
      "midi": 51,
      "hit": false,
      "t": 133181.68499999968,
      "d": 1363.6350000000093,
      "v": 127
    },
    {
      "midi": 54,
      "hit": false,
      "t": 133181.68499999968,
      "d": 1363.6350000000093,
      "v": 127
    },
    {
      "midi": 68,
      "hit": false,
      "t": 134090.77499999964,
      "d": 454.5450000000128,
      "v": 127
    },
    {
      "midi": 80,
      "hit": false,
      "t": 134090.77499999964,
      "d": 454.5450000000128,
      "v": 127
    },
    {
      "midi": 51,
      "hit": false,
      "t": 134999.8649999997,
      "d": 909.0899999999965,
      "v": 127
    },
    {
      "midi": 54,
      "hit": false,
      "t": 134999.8649999997,
      "d": 909.0899999999965,
      "v": 127
    },
    {
      "midi": 49,
      "hit": false,
      "t": 135908.9549999997,
      "d": 454.5450000000128,
      "v": 127
    },
    {
      "midi": 53,
      "hit": false,
      "t": 135908.9549999997,
      "d": 454.5450000000128,
      "v": 127
    },
    {
      "midi": 68,
      "hit": false,
      "t": 136363.49999999965,
      "d": 454.5450000000128,
      "v": 127
    },
    {
      "midi": 68,
      "hit": false,
      "t": 136818.04499999966,
      "d": 454.5450000000128,
      "v": 127
    },
    {
      "midi": 77,
      "hit": false,
      "t": 137272.58999999968,
      "d": 454.5450000000128,
      "v": 127
    },
    {
      "midi": 75,
      "hit": false,
      "t": 137727.1349999997,
      "d": 454.5450000000128,
      "v": 127
    },
    {
      "midi": 73,
      "hit": false,
      "t": 138181.6799999997,
      "d": 454.5450000000128,
      "v": 127
    },
    {
      "midi": 73,
      "hit": false,
      "t": 138636.22499999971,
      "d": 909.0899999999965,
      "v": 127
    },
    {
      "midi": 51,
      "hit": false,
      "t": 138636.22499999971,
      "d": 1363.6350000000093,
      "v": 127
    },
    {
      "midi": 54,
      "hit": false,
      "t": 138636.22499999971,
      "d": 1363.6350000000093,
      "v": 127
    },
    {
      "midi": 72,
      "hit": false,
      "t": 139545.3149999997,
      "d": 454.5450000000128,
      "v": 127
    },
    {
      "midi": 66,
      "hit": false,
      "t": 139999.85999999972,
      "d": 454.5450000000128,
      "v": 127
    },
    {
      "midi": 66,
      "hit": false,
      "t": 140454.40499999974,
      "d": 454.5450000000128,
      "v": 127
    },
    {
      "midi": 51,
      "hit": false,
      "t": 140454.40499999974,
      "d": 1363.6350000000093,
      "v": 127
    },
    {
      "midi": 60,
      "hit": false,
      "t": 140454.40499999974,
      "d": 1363.6350000000093,
      "v": 127
    },
    {
      "midi": 78,
      "hit": false,
      "t": 140908.94999999975,
      "d": 454.5450000000128,
      "v": 127
    },
    {
      "midi": 77,
      "hit": false,
      "t": 141363.49499999976,
      "d": 454.5450000000128,
      "v": 127
    },
    {
      "midi": 75,
      "hit": false,
      "t": 141818.03999999978,
      "d": 454.5450000000128,
      "v": 127
    },
    {
      "midi": 53,
      "hit": false,
      "t": 142272.58499999976,
      "d": 1363.6350000000093,
      "v": 127
    },
    {
      "midi": 56,
      "hit": false,
      "t": 142272.58499999976,
      "d": 1363.6350000000093,
      "v": 127
    },
    {
      "midi": 75,
      "hit": false,
      "t": 142272.5849999998,
      "d": 909.0899999999965,
      "v": 127
    },
    {
      "midi": 73,
      "hit": false,
      "t": 143181.67499999978,
      "d": 454.5450000000128,
      "v": 127
    },
    {
      "midi": 68,
      "hit": false,
      "t": 143636.2199999998,
      "d": 454.5450000000128,
      "v": 127
    },
    {
      "midi": 53,
      "hit": false,
      "t": 144090.76499999978,
      "d": 1363.6350000000093,
      "v": 127
    },
    {
      "midi": 61,
      "hit": false,
      "t": 144090.76499999978,
      "d": 1363.6350000000093,
      "v": 127
    },
    {
      "midi": 68,
      "hit": false,
      "t": 144090.7649999998,
      "d": 454.5450000000128,
      "v": 127
    },
    {
      "midi": 80,
      "hit": false,
      "t": 144545.30999999982,
      "d": 454.5450000000128,
      "v": 127
    },
    {
      "midi": 78,
      "hit": false,
      "t": 144999.85499999984,
      "d": 454.5450000000128,
      "v": 127
    },
    {
      "midi": 77,
      "hit": false,
      "t": 145454.39999999985,
      "d": 454.5450000000128,
      "v": 127
    },
    {
      "midi": 54,
      "hit": false,
      "t": 145908.9449999998,
      "d": 1363.6350000000093,
      "v": 127
    },
    {
      "midi": 58,
      "hit": false,
      "t": 145908.9449999998,
      "d": 1363.6350000000093,
      "v": 127
    },
    {
      "midi": 77,
      "hit": false,
      "t": 145908.94499999986,
      "d": 454.5450000000128,
      "v": 127
    },
    {
      "midi": 74,
      "hit": false,
      "t": 146363.48999999987,
      "d": 454.5450000000128,
      "v": 127
    },
    {
      "midi": 75,
      "hit": false,
      "t": 146818.0349999999,
      "d": 454.5450000000128,
      "v": 127
    },
    {
      "midi": 82,
      "hit": false,
      "t": 147272.5799999999,
      "d": 454.5450000000128,
      "v": 127
    },
    {
      "midi": 54,
      "hit": false,
      "t": 147727.12499999983,
      "d": 1363.6350000000093,
      "v": 127
    },
    {
      "midi": 58,
      "hit": false,
      "t": 147727.12499999983,
      "d": 1363.6350000000093,
      "v": 127
    },
    {
      "midi": 80,
      "hit": false,
      "t": 147727.1249999999,
      "d": 454.5450000000128,
      "v": 127
    },
    {
      "midi": 78,
      "hit": false,
      "t": 148181.66999999993,
      "d": 454.5450000000128,
      "v": 127
    },
    {
      "midi": 77,
      "hit": false,
      "t": 148636.21499999994,
      "d": 454.5450000000128,
      "v": 127
    },
    {
      "midi": 75,
      "hit": false,
      "t": 149090.75999999995,
      "d": 454.5450000000128,
      "v": 127
    },
    {
      "midi": 56,
      "hit": false,
      "t": 149545.30499999985,
      "d": 1363.6350000000093,
      "v": 127
    },
    {
      "midi": 73,
      "hit": false,
      "t": 149545.30499999996,
      "d": 909.0899999999965,
      "v": 127
    },
    {
      "midi": 72,
      "hit": false,
      "t": 150454.39499999996,
      "d": 454.5450000000128,
      "v": 127
    },
    {
      "midi": 68,
      "hit": false,
      "t": 150908.93999999997,
      "d": 454.5450000000128,
      "v": 127
    },
    {
      "midi": 68,
      "hit": false,
      "t": 151363.485,
      "d": 454.5450000000128,
      "v": 127
    },
    {
      "midi": 56,
      "hit": false,
      "t": 151818.03,
      "d": 454.5450000000128,
      "v": 127
    },
    {
      "midi": 49,
      "hit": false,
      "t": 152272.57499999987,
      "d": 454.5450000000128,
      "v": 127
    },
    {
      "midi": 53,
      "hit": false,
      "t": 152272.57499999987,
      "d": 454.5450000000128,
      "v": 127
    },
    {
      "midi": 65,
      "hit": false,
      "t": 152272.575,
      "d": 454.5450000000128,
      "v": 127
    },
    {
      "midi": 61,
      "hit": false,
      "t": 152727.12000000002,
      "d": 454.5450000000128,
      "v": 127
    },
    {
      "midi": 51,
      "hit": false,
      "t": 153181.6649999999,
      "d": 909.0899999999965,
      "v": 127
    },
    {
      "midi": 54,
      "hit": false,
      "t": 153181.6649999999,
      "d": 909.0899999999965,
      "v": 127
    },
    {
      "midi": 61,
      "hit": false,
      "t": 153181.66500000004,
      "d": 909.0899999999965,
      "v": 127
    },
    {
      "midi": 51,
      "hit": false,
      "t": 154090.7549999999,
      "d": 454.5450000000128,
      "v": 127
    },
    {
      "midi": 54,
      "hit": false,
      "t": 154090.7549999999,
      "d": 454.5450000000128,
      "v": 127
    },
    {
      "midi": 60,
      "hit": false,
      "t": 154090.75500000003,
      "d": 454.5450000000128,
      "v": 127
    },
    {
      "midi": 68,
      "hit": false,
      "t": 154545.30000000005,
      "d": 454.5450000000128,
      "v": 127
    },
    {
      "midi": 68,
      "hit": false,
      "t": 154999.84500000006,
      "d": 454.5450000000128,
      "v": 127
    },
    {
      "midi": 66,
      "hit": false,
      "t": 155454.39000000007,
      "d": 454.5450000000128,
      "v": 127
    },
    {
      "midi": 51,
      "hit": false,
      "t": 155908.9349999999,
      "d": 454.5450000000128,
      "v": 127
    },
    {
      "midi": 54,
      "hit": false,
      "t": 155908.9349999999,
      "d": 454.5450000000128,
      "v": 127
    },
    {
      "midi": 60,
      "hit": false,
      "t": 155908.93500000008,
      "d": 454.5450000000128,
      "v": 127
    },
    {
      "midi": 63,
      "hit": false,
      "t": 156363.4800000001,
      "d": 454.5450000000128,
      "v": 127
    },
    {
      "midi": 53,
      "hit": false,
      "t": 156818.02499999994,
      "d": 909.0899999999965,
      "v": 127
    },
    {
      "midi": 56,
      "hit": false,
      "t": 156818.02499999994,
      "d": 909.0899999999965,
      "v": 127
    },
    {
      "midi": 63,
      "hit": false,
      "t": 156818.0250000001,
      "d": 909.0899999999965,
      "v": 127
    },
    {
      "midi": 53,
      "hit": false,
      "t": 157727.11499999993,
      "d": 454.5450000000128,
      "v": 127
    },
    {
      "midi": 56,
      "hit": false,
      "t": 157727.11499999993,
      "d": 454.5450000000128,
      "v": 127
    },
    {
      "midi": 61,
      "hit": false,
      "t": 157727.1150000001,
      "d": 454.5450000000128,
      "v": 127
    },
    {
      "midi": 30,
      "hit": false,
      "t": 158181.65999999995,
      "d": 454.5450000000128,
      "v": 127
    },
    {
      "midi": 42,
      "hit": false,
      "t": 158181.65999999995,
      "d": 454.5450000000128,
      "v": 127
    },
    {
      "midi": 54,
      "hit": false,
      "t": 158181.65999999995,
      "d": 454.5450000000128,
      "v": 127
    },
    {
      "midi": 30,
      "hit": false,
      "t": 158636.20499999996,
      "d": 454.5450000000128,
      "v": 127
    },
    {
      "midi": 42,
      "hit": false,
      "t": 158636.20499999996,
      "d": 454.5450000000128,
      "v": 127
    },
    {
      "midi": 54,
      "hit": false,
      "t": 158636.20499999996,
      "d": 454.5450000000128,
      "v": 127
    },
    {
      "midi": 30,
      "hit": false,
      "t": 159090.74999999997,
      "d": 454.5450000000128,
      "v": 127
    },
    {
      "midi": 42,
      "hit": false,
      "t": 159090.74999999997,
      "d": 454.5450000000128,
      "v": 127
    },
    {
      "midi": 54,
      "hit": false,
      "t": 159090.74999999997,
      "d": 454.5450000000128,
      "v": 127
    },
    {
      "midi": 30,
      "hit": false,
      "t": 159545.29499999998,
      "d": 454.5450000000128,
      "v": 127
    },
    {
      "midi": 42,
      "hit": false,
      "t": 159545.29499999998,
      "d": 454.5450000000128,
      "v": 127
    },
    {
      "midi": 54,
      "hit": false,
      "t": 159545.29499999998,
      "d": 454.5450000000128,
      "v": 127
    },
    {
      "midi": 30,
      "hit": false,
      "t": 159999.84,
      "d": 454.5450000000128,
      "v": 127
    },
    {
      "midi": 42,
      "hit": false,
      "t": 159999.84,
      "d": 454.5450000000128,
      "v": 127
    },
    {
      "midi": 54,
      "hit": false,
      "t": 159999.84,
      "d": 454.5450000000128,
      "v": 127
    },
    {
      "midi": 54,
      "hit": false,
      "t": 160454.385,
      "d": 909.0899999999965,
      "v": 127
    },
    {
      "midi": 60,
      "hit": false,
      "t": 160454.385,
      "d": 909.0899999999965,
      "v": 127
    },
    {
      "midi": 63,
      "hit": false,
      "t": 160454.385,
      "d": 909.0899999999965,
      "v": 127
    },
    {
      "midi": 72,
      "hit": false,
      "t": 160454.38500000013,
      "d": 909.0899999999965,
      "v": 127
    },
    {
      "midi": 75,
      "hit": false,
      "t": 160454.38500000013,
      "d": 909.0899999999965,
      "v": 127
    },
    {
      "midi": 82,
      "hit": false,
      "t": 160454.38500000013,
      "d": 909.0899999999965,
      "v": 127
    },
    {
      "midi": 54,
      "hit": false,
      "t": 161363.475,
      "d": 454.5450000000128,
      "v": 127
    },
    {
      "midi": 56,
      "hit": false,
      "t": 161363.475,
      "d": 454.5450000000128,
      "v": 127
    },
    {
      "midi": 63,
      "hit": false,
      "t": 161363.475,
      "d": 454.5450000000128,
      "v": 127
    },
    {
      "midi": 72,
      "hit": false,
      "t": 161363.47500000012,
      "d": 454.5450000000128,
      "v": 127
    },
    {
      "midi": 53,
      "hit": false,
      "t": 162272.56500000003,
      "d": 454.5450000000128,
      "v": 127
    },
    {
      "midi": 73,
      "hit": false,
      "t": 162272.56500000015,
      "d": 227.27249999999185,
      "v": 127
    },
    {
      "midi": 68,
      "hit": false,
      "t": 162499.83750000014,
      "d": 227.27249999999185,
      "v": 127
    },
    {
      "midi": 54,
      "hit": false,
      "t": 162727.11000000004,
      "d": 454.5450000000128,
      "v": 127
    },
    {
      "midi": 70,
      "hit": false,
      "t": 162727.11000000013,
      "d": 227.27249999999185,
      "v": 127
    },
    {
      "midi": 66,
      "hit": false,
      "t": 162954.38250000012,
      "d": 227.27249999999185,
      "v": 127
    },
    {
      "midi": 56,
      "hit": false,
      "t": 163181.65500000006,
      "d": 454.5450000000128,
      "v": 127
    },
    {
      "midi": 65,
      "hit": false,
      "t": 163181.65500000012,
      "d": 454.5450000000128,
      "v": 127
    },
    {
      "midi": 44,
      "hit": false,
      "t": 163636.20000000007,
      "d": 454.5450000000128,
      "v": 127
    },
    {
      "midi": 63,
      "hit": false,
      "t": 163636.20000000013,
      "d": 454.5450000000128,
      "v": 127
    },
    {
      "midi": 56,
      "hit": false,
      "t": 164090.74500000008,
      "d": 909.0899999999965,
      "v": 127
    },
    {
      "midi": 62,
      "hit": false,
      "t": 164090.74500000008,
      "d": 909.0899999999965,
      "v": 127
    },
    {
      "midi": 65,
      "hit": false,
      "t": 164090.74500000008,
      "d": 909.0899999999965,
      "v": 127
    },
    {
      "midi": 70,
      "hit": false,
      "t": 164090.74500000014,
      "d": 909.0899999999965,
      "v": 127
    },
    {
      "midi": 74,
      "hit": false,
      "t": 164090.74500000014,
      "d": 909.0899999999965,
      "v": 127
    },
    {
      "midi": 77,
      "hit": false,
      "t": 164090.74500000014,
      "d": 909.0899999999965,
      "v": 127
    },
    {
      "midi": 82,
      "hit": false,
      "t": 164090.74500000014,
      "d": 909.0899999999965,
      "v": 127
    },
    {
      "midi": 56,
      "hit": false,
      "t": 164999.83500000008,
      "d": 454.5450000000128,
      "v": 127
    },
    {
      "midi": 58,
      "hit": false,
      "t": 164999.83500000008,
      "d": 454.5450000000128,
      "v": 127
    },
    {
      "midi": 65,
      "hit": false,
      "t": 164999.83500000008,
      "d": 454.5450000000128,
      "v": 127
    },
    {
      "midi": 74,
      "hit": false,
      "t": 164999.83500000014,
      "d": 454.5450000000128,
      "v": 127
    },
    {
      "midi": 54,
      "hit": false,
      "t": 165908.9250000001,
      "d": 454.5450000000128,
      "v": 127
    },
    {
      "midi": 75,
      "hit": false,
      "t": 165908.92500000016,
      "d": 227.27249999999185,
      "v": 127
    },
    {
      "midi": 70,
      "hit": false,
      "t": 166136.19750000015,
      "d": 227.27249999999185,
      "v": 127
    },
    {
      "midi": 56,
      "hit": false,
      "t": 166363.47000000012,
      "d": 454.5450000000128,
      "v": 127
    },
    {
      "midi": 71,
      "hit": false,
      "t": 166363.47000000015,
      "d": 227.27249999999185,
      "v": 127
    },
    {
      "midi": 68,
      "hit": false,
      "t": 166590.74250000014,
      "d": 227.27249999999185,
      "v": 127
    },
    {
      "midi": 67,
      "hit": false,
      "t": 166818.01500000013,
      "d": 454.5450000000128,
      "v": 127
    },
    {
      "midi": 58,
      "hit": false,
      "t": 166818.01500000013,
      "d": 454.5450000000128,
      "v": 127
    },
    {
      "midi": 65,
      "hit": false,
      "t": 167272.56000000014,
      "d": 454.5450000000128,
      "v": 127
    },
    {
      "midi": 46,
      "hit": false,
      "t": 167272.56000000014,
      "d": 454.5450000000128,
      "v": 127
    },
    {
      "midi": 72,
      "hit": false,
      "t": 167727.10500000016,
      "d": 909.0899999999965,
      "v": 127
    },
    {
      "midi": 76,
      "hit": false,
      "t": 167727.10500000016,
      "d": 909.0899999999965,
      "v": 127
    },
    {
      "midi": 79,
      "hit": false,
      "t": 167727.10500000016,
      "d": 909.0899999999965,
      "v": 127
    },
    {
      "midi": 84,
      "hit": false,
      "t": 167727.10500000016,
      "d": 909.0899999999965,
      "v": 127
    },
    {
      "midi": 58,
      "hit": false,
      "t": 167727.10500000016,
      "d": 909.0899999999965,
      "v": 127
    },
    {
      "midi": 64,
      "hit": false,
      "t": 167727.10500000016,
      "d": 909.0899999999965,
      "v": 127
    },
    {
      "midi": 67,
      "hit": false,
      "t": 167727.10500000016,
      "d": 909.0899999999965,
      "v": 127
    },
    {
      "midi": 48,
      "hit": false,
      "t": 169090.74000000017,
      "d": 454.5450000000128,
      "v": 127
    },
    {
      "midi": 48,
      "hit": false,
      "t": 169545.28500000018,
      "d": 454.5450000000128,
      "v": 127
    },
    {
      "midi": 60,
      "hit": false,
      "t": 169999.83000000016,
      "d": 454.5450000000128,
      "v": 127
    },
    {
      "midi": 56,
      "hit": false,
      "t": 169999.8300000002,
      "d": 454.5450000000128,
      "v": 127
    },
    {
      "midi": 64,
      "hit": false,
      "t": 170454.37500000017,
      "d": 454.5450000000128,
      "v": 127
    },
    {
      "midi": 55,
      "hit": false,
      "t": 170454.3750000002,
      "d": 454.5450000000128,
      "v": 127
    },
    {
      "midi": 65,
      "hit": false,
      "t": 170908.9200000002,
      "d": 454.5450000000128,
      "v": 127
    },
    {
      "midi": 53,
      "hit": false,
      "t": 170908.92000000022,
      "d": 454.5450000000128,
      "v": 127
    },
    {
      "midi": 68,
      "hit": false,
      "t": 171363.4650000002,
      "d": 909.0899999999965,
      "v": 127
    },
    {
      "midi": 53,
      "hit": false,
      "t": 171363.46500000023,
      "d": 909.0899999999965,
      "v": 127
    },
    {
      "midi": 67,
      "hit": false,
      "t": 172272.5550000002,
      "d": 454.5450000000128,
      "v": 127
    },
    {
      "midi": 52,
      "hit": false,
      "t": 172272.55500000023,
      "d": 454.5450000000128,
      "v": 127
    },
    {
      "midi": 48,
      "hit": false,
      "t": 172727.10000000024,
      "d": 454.5450000000128,
      "v": 127
    },
    {
      "midi": 48,
      "hit": false,
      "t": 173181.64500000025,
      "d": 454.5450000000128,
      "v": 127
    },
    {
      "midi": 64,
      "hit": false,
      "t": 173636.1900000002,
      "d": 454.5450000000128,
      "v": 127
    },
    {
      "midi": 73,
      "hit": false,
      "t": 173636.1900000002,
      "d": 454.5450000000128,
      "v": 127
    },
    {
      "midi": 58,
      "hit": false,
      "t": 173636.19000000026,
      "d": 454.5450000000128,
      "v": 127
    },
    {
      "midi": 65,
      "hit": false,
      "t": 174090.73500000022,
      "d": 454.5450000000128,
      "v": 127
    },
    {
      "midi": 72,
      "hit": false,
      "t": 174090.73500000022,
      "d": 454.5450000000128,
      "v": 127
    },
    {
      "midi": 56,
      "hit": false,
      "t": 174090.73500000028,
      "d": 454.5450000000128,
      "v": 127
    },
    {
      "midi": 64,
      "hit": false,
      "t": 174545.28000000023,
      "d": 454.5450000000128,
      "v": 127
    },
    {
      "midi": 70,
      "hit": false,
      "t": 174545.28000000023,
      "d": 454.5450000000128,
      "v": 127
    },
    {
      "midi": 55,
      "hit": false,
      "t": 174545.2800000003,
      "d": 454.5450000000128,
      "v": 127
    },
    {
      "midi": 64,
      "hit": false,
      "t": 174999.82500000024,
      "d": 909.0899999999965,
      "v": 127
    },
    {
      "midi": 70,
      "hit": false,
      "t": 174999.82500000024,
      "d": 909.0899999999965,
      "v": 127
    },
    {
      "midi": 55,
      "hit": false,
      "t": 174999.8250000003,
      "d": 909.0899999999965,
      "v": 127
    },
    {
      "midi": 65,
      "hit": false,
      "t": 175908.91500000024,
      "d": 454.5450000000128,
      "v": 127
    },
    {
      "midi": 68,
      "hit": false,
      "t": 175908.91500000024,
      "d": 454.5450000000128,
      "v": 127
    },
    {
      "midi": 53,
      "hit": false,
      "t": 175908.9150000003,
      "d": 454.5450000000128,
      "v": 127
    },
    {
      "midi": 59,
      "hit": false,
      "t": 176363.46000000025,
      "d": 454.5450000000128,
      "v": 127
    },
    {
      "midi": 71,
      "hit": false,
      "t": 176363.46000000025,
      "d": 454.5450000000128,
      "v": 127
    },
    {
      "midi": 59,
      "hit": false,
      "t": 176818.00500000027,
      "d": 1363.6350000000093,
      "v": 127
    },
    {
      "midi": 71,
      "hit": false,
      "t": 176818.00500000027,
      "d": 1363.6350000000093,
      "v": 127
    },
    {
      "midi": 49,
      "hit": false,
      "t": 177272.5500000003,
      "d": 454.5450000000128,
      "v": 127
    },
    {
      "midi": 53,
      "hit": false,
      "t": 177272.5500000003,
      "d": 454.5450000000128,
      "v": 127
    },
    {
      "midi": 49,
      "hit": false,
      "t": 177727.09500000032,
      "d": 454.5450000000128,
      "v": 127
    },
    {
      "midi": 53,
      "hit": false,
      "t": 177727.09500000032,
      "d": 454.5450000000128,
      "v": 127
    },
    {
      "midi": 59,
      "hit": false,
      "t": 178181.64000000028,
      "d": 454.5450000000128,
      "v": 127
    },
    {
      "midi": 71,
      "hit": false,
      "t": 178181.64000000028,
      "d": 454.5450000000128,
      "v": 127
    },
    {
      "midi": 59,
      "hit": false,
      "t": 178636.1850000003,
      "d": 1363.6350000000093,
      "v": 127
    },
    {
      "midi": 71,
      "hit": false,
      "t": 178636.1850000003,
      "d": 1363.6350000000093,
      "v": 127
    },
    {
      "midi": 53,
      "hit": false,
      "t": 179090.73000000033,
      "d": 454.5450000000128,
      "v": 127
    },
    {
      "midi": 56,
      "hit": false,
      "t": 179090.73000000033,
      "d": 454.5450000000128,
      "v": 127
    },
    {
      "midi": 53,
      "hit": false,
      "t": 179545.27500000034,
      "d": 454.5450000000128,
      "v": 127
    },
    {
      "midi": 56,
      "hit": false,
      "t": 179545.27500000034,
      "d": 454.5450000000128,
      "v": 127
    },
    {
      "midi": 59,
      "hit": false,
      "t": 181818.0000000003,
      "d": 454.5450000000128,
      "v": 127
    },
    {
      "midi": 71,
      "hit": false,
      "t": 181818.0000000003,
      "d": 454.5450000000128,
      "v": 127
    },
    {
      "midi": 59,
      "hit": false,
      "t": 182272.5450000003,
      "d": 1363.6350000000093,
      "v": 127
    },
    {
      "midi": 71,
      "hit": false,
      "t": 182272.5450000003,
      "d": 1363.6350000000093,
      "v": 127
    },
    {
      "midi": 44,
      "hit": false,
      "t": 182727.09000000035,
      "d": 454.5450000000128,
      "v": 127
    },
    {
      "midi": 50,
      "hit": false,
      "t": 182727.09000000035,
      "d": 454.5450000000128,
      "v": 127
    },
    {
      "midi": 44,
      "hit": false,
      "t": 183181.63500000036,
      "d": 454.5450000000128,
      "v": 127
    },
    {
      "midi": 50,
      "hit": false,
      "t": 183181.63500000036,
      "d": 454.5450000000128,
      "v": 127
    },
    {
      "midi": 59,
      "hit": false,
      "t": 183636.1800000003,
      "d": 454.5450000000128,
      "v": 127
    },
    {
      "midi": 71,
      "hit": false,
      "t": 183636.1800000003,
      "d": 454.5450000000128,
      "v": 127
    },
    {
      "midi": 59,
      "hit": false,
      "t": 184090.72500000033,
      "d": 909.0899999999965,
      "v": 127
    },
    {
      "midi": 71,
      "hit": false,
      "t": 184090.72500000033,
      "d": 909.0899999999965,
      "v": 127
    },
    {
      "midi": 48,
      "hit": false,
      "t": 184090.72500000038,
      "d": 1363.6350000000093,
      "v": 127
    },
    {
      "midi": 52,
      "hit": false,
      "t": 184090.72500000038,
      "d": 1363.6350000000093,
      "v": 127
    },
    {
      "midi": 57,
      "hit": false,
      "t": 184999.81500000032,
      "d": 454.5450000000128,
      "v": 127
    },
    {
      "midi": 69,
      "hit": false,
      "t": 184999.81500000032,
      "d": 454.5450000000128,
      "v": 127
    },
    {
      "midi": 60,
      "hit": false,
      "t": 185454.36000000034,
      "d": 454.5450000000128,
      "v": 127
    },
    {
      "midi": 64,
      "hit": false,
      "t": 185454.36000000034,
      "d": 454.5450000000128,
      "v": 127
    },
    {
      "midi": 64,
      "hit": false,
      "t": 185908.90500000035,
      "d": 454.5450000000128,
      "v": 127
    },
    {
      "midi": 45,
      "hit": false,
      "t": 185908.9050000004,
      "d": 909.0899999999965,
      "v": 127
    },
    {
      "midi": 72,
      "hit": false,
      "t": 186363.45000000036,
      "d": 454.5450000000128,
      "v": 127
    },
    {
      "midi": 71,
      "hit": false,
      "t": 186817.99500000037,
      "d": 454.5450000000128,
      "v": 127
    },
    {
      "midi": 45,
      "hit": false,
      "t": 186817.9950000004,
      "d": 454.5450000000128,
      "v": 127
    },
    {
      "midi": 69,
      "hit": false,
      "t": 187272.5400000004,
      "d": 454.5450000000128,
      "v": 127
    },
    {
      "midi": 69,
      "hit": false,
      "t": 187727.0850000004,
      "d": 909.0899999999965,
      "v": 127
    },
    {
      "midi": 47,
      "hit": false,
      "t": 187727.08500000043,
      "d": 909.0899999999965,
      "v": 127
    },
    {
      "midi": 68,
      "hit": false,
      "t": 188636.1750000004,
      "d": 454.5450000000128,
      "v": 127
    },
    {
      "midi": 47,
      "hit": false,
      "t": 188636.17500000042,
      "d": 454.5450000000128,
      "v": 127
    },
    {
      "midi": 62,
      "hit": false,
      "t": 189090.7200000004,
      "d": 454.5450000000128,
      "v": 127
    },
    {
      "midi": 62,
      "hit": false,
      "t": 189545.26500000042,
      "d": 454.5450000000128,
      "v": 127
    },
    {
      "midi": 47,
      "hit": false,
      "t": 189545.26500000045,
      "d": 909.0899999999965,
      "v": 127
    },
    {
      "midi": 74,
      "hit": false,
      "t": 189999.81000000043,
      "d": 454.5450000000128,
      "v": 127
    },
    {
      "midi": 72,
      "hit": false,
      "t": 190454.35500000045,
      "d": 454.5450000000128,
      "v": 127
    },
    {
      "midi": 47,
      "hit": false,
      "t": 190454.35500000045,
      "d": 454.5450000000128,
      "v": 127
    },
    {
      "midi": 71,
      "hit": false,
      "t": 190908.90000000046,
      "d": 454.5450000000128,
      "v": 127
    },
    {
      "midi": 71,
      "hit": false,
      "t": 191363.44500000047,
      "d": 909.0899999999965,
      "v": 127
    },
    {
      "midi": 48,
      "hit": false,
      "t": 191363.44500000047,
      "d": 909.0899999999965,
      "v": 127
    },
    {
      "midi": 69,
      "hit": false,
      "t": 192272.53500000047,
      "d": 454.5450000000128,
      "v": 127
    },
    {
      "midi": 48,
      "hit": false,
      "t": 192272.53500000047,
      "d": 454.5450000000128,
      "v": 127
    },
    {
      "midi": 64,
      "hit": false,
      "t": 192727.08000000048,
      "d": 454.5450000000128,
      "v": 127
    },
    {
      "midi": 64,
      "hit": false,
      "t": 193181.6250000005,
      "d": 454.5450000000128,
      "v": 127
    },
    {
      "midi": 48,
      "hit": false,
      "t": 193181.6250000005,
      "d": 909.0899999999965,
      "v": 127
    },
    {
      "midi": 76,
      "hit": false,
      "t": 193636.1700000005,
      "d": 454.5450000000128,
      "v": 127
    },
    {
      "midi": 48,
      "hit": false,
      "t": 194090.7150000005,
      "d": 454.5450000000128,
      "v": 127
    },
    {
      "midi": 74,
      "hit": false,
      "t": 194090.71500000052,
      "d": 454.5450000000128,
      "v": 127
    },
    {
      "midi": 72,
      "hit": false,
      "t": 194545.26000000053,
      "d": 454.5450000000128,
      "v": 127
    },
    {
      "midi": 50,
      "hit": false,
      "t": 194999.80500000052,
      "d": 909.0899999999965,
      "v": 127
    },
    {
      "midi": 72,
      "hit": false,
      "t": 194999.80500000055,
      "d": 454.5450000000128,
      "v": 127
    },
    {
      "midi": 70,
      "hit": false,
      "t": 195454.35000000056,
      "d": 454.5450000000128,
      "v": 127
    },
    {
      "midi": 50,
      "hit": false,
      "t": 195908.8950000005,
      "d": 454.5450000000128,
      "v": 127
    },
    {
      "midi": 71,
      "hit": false,
      "t": 195908.89500000057,
      "d": 454.5450000000128,
      "v": 127
    },
    {
      "midi": 77,
      "hit": false,
      "t": 196363.44000000058,
      "d": 454.5450000000128,
      "v": 127
    },
    {
      "midi": 50,
      "hit": false,
      "t": 196817.98500000054,
      "d": 909.0899999999965,
      "v": 127
    },
    {
      "midi": 76,
      "hit": false,
      "t": 196817.9850000006,
      "d": 454.5450000000128,
      "v": 127
    },
    {
      "midi": 65,
      "hit": false,
      "t": 197272.5300000006,
      "d": 454.5450000000128,
      "v": 127
    },
    {
      "midi": 74,
      "hit": false,
      "t": 197272.5300000006,
      "d": 454.5450000000128,
      "v": 127
    },
    {
      "midi": 50,
      "hit": false,
      "t": 197727.07500000054,
      "d": 454.5450000000128,
      "v": 127
    },
    {
      "midi": 64,
      "hit": false,
      "t": 197727.07500000062,
      "d": 454.5450000000128,
      "v": 127
    },
    {
      "midi": 72,
      "hit": false,
      "t": 197727.07500000062,
      "d": 454.5450000000128,
      "v": 127
    },
    {
      "midi": 62,
      "hit": false,
      "t": 198181.62000000064,
      "d": 454.5450000000128,
      "v": 127
    },
    {
      "midi": 71,
      "hit": false,
      "t": 198181.62000000064,
      "d": 454.5450000000128,
      "v": 127
    },
    {
      "midi": 52,
      "hit": false,
      "t": 198636.16500000056,
      "d": 1363.6350000000093,
      "v": 127
    },
    {
      "midi": 60,
      "hit": false,
      "t": 198636.16500000065,
      "d": 909.0899999999965,
      "v": 127
    },
    {
      "midi": 69,
      "hit": false,
      "t": 198636.16500000065,
      "d": 909.0899999999965,
      "v": 127
    },
    {
      "midi": 59,
      "hit": false,
      "t": 199545.25500000064,
      "d": 454.5450000000128,
      "v": 127
    },
    {
      "midi": 68,
      "hit": false,
      "t": 199545.25500000064,
      "d": 454.5450000000128,
      "v": 127
    },
    {
      "midi": 40,
      "hit": false,
      "t": 199999.80000000057,
      "d": 454.5450000000128,
      "v": 127
    },
    {
      "midi": 52,
      "hit": false,
      "t": 199999.80000000057,
      "d": 454.5450000000128,
      "v": 127
    },
    {
      "midi": 40,
      "hit": false,
      "t": 200454.34500000058,
      "d": 1363.6350000000093,
      "v": 127
    },
    {
      "midi": 52,
      "hit": false,
      "t": 200454.34500000058,
      "d": 1363.6350000000093,
      "v": 127
    },
    {
      "midi": 76,
      "hit": false,
      "t": 200908.89000000065,
      "d": 454.5450000000128,
      "v": 127
    },
    {
      "midi": 74,
      "hit": false,
      "t": 201363.43500000067,
      "d": 454.5450000000128,
      "v": 127
    },
    {
      "midi": 80,
      "hit": false,
      "t": 201363.43500000067,
      "d": 454.5450000000128,
      "v": 127
    },
    {
      "midi": 81,
      "hit": false,
      "t": 201817.98000000068,
      "d": 454.5450000000128,
      "v": 127
    },
    {
      "midi": 71,
      "hit": false,
      "t": 202272.5250000007,
      "d": 454.5450000000128,
      "v": 127
    },
    {
      "midi": 78,
      "hit": false,
      "t": 202727.0700000007,
      "d": 454.5450000000128,
      "v": 127
    },
    {
      "midi": 81,
      "hit": false,
      "t": 203181.61500000072,
      "d": 454.5450000000128,
      "v": 127
    },
    {
      "midi": 40,
      "hit": false,
      "t": 203636.1600000006,
      "d": 454.5450000000128,
      "v": 127
    },
    {
      "midi": 52,
      "hit": false,
      "t": 203636.1600000006,
      "d": 454.5450000000128,
      "v": 127
    },
    {
      "midi": 79,
      "hit": false,
      "t": 203636.16000000073,
      "d": 909.0899999999965,
      "v": 127
    },
    {
      "midi": 40,
      "hit": false,
      "t": 204090.7050000006,
      "d": 1363.6350000000093,
      "v": 127
    },
    {
      "midi": 52,
      "hit": false,
      "t": 204090.7050000006,
      "d": 1363.6350000000093,
      "v": 127
    },
    {
      "midi": 72,
      "hit": false,
      "t": 204545.25000000073,
      "d": 454.5450000000128,
      "v": 127
    },
    {
      "midi": 76,
      "hit": false,
      "t": 204999.79500000074,
      "d": 454.5450000000128,
      "v": 127
    },
    {
      "midi": 77,
      "hit": false,
      "t": 205454.34000000075,
      "d": 454.5450000000128,
      "v": 127
    },
    {
      "midi": 68,
      "hit": false,
      "t": 205908.88500000077,
      "d": 454.5450000000128,
      "v": 127
    },
    {
      "midi": 75,
      "hit": false,
      "t": 206363.43000000078,
      "d": 454.5450000000128,
      "v": 127
    },
    {
      "midi": 76,
      "hit": false,
      "t": 206817.9750000008,
      "d": 454.5450000000128,
      "v": 127
    },
    {
      "midi": 41,
      "hit": false,
      "t": 207272.5200000006,
      "d": 454.5450000000128,
      "v": 127
    },
    {
      "midi": 53,
      "hit": false,
      "t": 207272.5200000006,
      "d": 454.5450000000128,
      "v": 127
    },
    {
      "midi": 65,
      "hit": false,
      "t": 207272.5200000008,
      "d": 454.5450000000128,
      "v": 127
    },
    {
      "midi": 41,
      "hit": false,
      "t": 207727.0650000006,
      "d": 454.5450000000128,
      "v": 127
    },
    {
      "midi": 53,
      "hit": false,
      "t": 207727.0650000006,
      "d": 454.5450000000128,
      "v": 127
    },
    {
      "midi": 65,
      "hit": false,
      "t": 207727.06500000082,
      "d": 454.5450000000128,
      "v": 127
    },
    {
      "midi": 41,
      "hit": false,
      "t": 208181.61000000063,
      "d": 454.5450000000128,
      "v": 127
    },
    {
      "midi": 53,
      "hit": false,
      "t": 208181.61000000063,
      "d": 454.5450000000128,
      "v": 127
    },
    {
      "midi": 65,
      "hit": false,
      "t": 208181.61000000083,
      "d": 454.5450000000128,
      "v": 127
    },
    {
      "midi": 41,
      "hit": false,
      "t": 208636.15500000064,
      "d": 454.5450000000128,
      "v": 127
    },
    {
      "midi": 53,
      "hit": false,
      "t": 208636.15500000064,
      "d": 454.5450000000128,
      "v": 127
    },
    {
      "midi": 65,
      "hit": false,
      "t": 208636.15500000084,
      "d": 454.5450000000128,
      "v": 127
    },
    {
      "midi": 74,
      "hit": false,
      "t": 209090.70000000086,
      "d": 454.5450000000128,
      "v": 127
    },
    {
      "midi": 86,
      "hit": false,
      "t": 209090.70000000086,
      "d": 454.5450000000128,
      "v": 127
    },
    {
      "midi": 74,
      "hit": false,
      "t": 209545.24500000087,
      "d": 454.5450000000128,
      "v": 127
    },
    {
      "midi": 86,
      "hit": false,
      "t": 209545.24500000087,
      "d": 454.5450000000128,
      "v": 127
    },
    {
      "midi": 74,
      "hit": false,
      "t": 209999.79000000088,
      "d": 454.5450000000128,
      "v": 127
    },
    {
      "midi": 86,
      "hit": false,
      "t": 209999.79000000088,
      "d": 454.5450000000128,
      "v": 127
    },
    {
      "midi": 74,
      "hit": false,
      "t": 210454.3350000009,
      "d": 454.5450000000128,
      "v": 127
    },
    {
      "midi": 86,
      "hit": false,
      "t": 210454.3350000009,
      "d": 454.5450000000128,
      "v": 127
    },
    {
      "midi": 42,
      "hit": false,
      "t": 210908.88000000064,
      "d": 454.5450000000128,
      "v": 127
    },
    {
      "midi": 54,
      "hit": false,
      "t": 210908.88000000064,
      "d": 454.5450000000128,
      "v": 127
    },
    {
      "midi": 66,
      "hit": false,
      "t": 210908.8800000009,
      "d": 454.5450000000128,
      "v": 127
    },
    {
      "midi": 42,
      "hit": false,
      "t": 211363.42500000066,
      "d": 454.5450000000128,
      "v": 127
    },
    {
      "midi": 54,
      "hit": false,
      "t": 211363.42500000066,
      "d": 454.5450000000128,
      "v": 127
    },
    {
      "midi": 66,
      "hit": false,
      "t": 211363.42500000092,
      "d": 454.5450000000128,
      "v": 127
    },
    {
      "midi": 42,
      "hit": false,
      "t": 211817.97000000067,
      "d": 454.5450000000128,
      "v": 127
    },
    {
      "midi": 54,
      "hit": false,
      "t": 211817.97000000067,
      "d": 454.5450000000128,
      "v": 127
    },
    {
      "midi": 66,
      "hit": false,
      "t": 211817.97000000093,
      "d": 454.5450000000128,
      "v": 127
    },
    {
      "midi": 42,
      "hit": false,
      "t": 212272.51500000068,
      "d": 454.5450000000128,
      "v": 127
    },
    {
      "midi": 54,
      "hit": false,
      "t": 212272.51500000068,
      "d": 454.5450000000128,
      "v": 127
    },
    {
      "midi": 66,
      "hit": false,
      "t": 212272.51500000095,
      "d": 454.5450000000128,
      "v": 127
    },
    {
      "midi": 74,
      "hit": false,
      "t": 212727.06000000096,
      "d": 454.5450000000128,
      "v": 127
    },
    {
      "midi": 86,
      "hit": false,
      "t": 212727.06000000096,
      "d": 454.5450000000128,
      "v": 127
    },
    {
      "midi": 74,
      "hit": false,
      "t": 213181.60500000097,
      "d": 909.0899999999965,
      "v": 127
    },
    {
      "midi": 86,
      "hit": false,
      "t": 213181.60500000097,
      "d": 909.0899999999965,
      "v": 127
    },
    {
      "midi": 54,
      "hit": false,
      "t": 213636.1500000007,
      "d": 909.0899999999965,
      "v": 127
    },
    {
      "midi": 60,
      "hit": false,
      "t": 213636.1500000007,
      "d": 909.0899999999965,
      "v": 127
    },
    {
      "midi": 74,
      "hit": false,
      "t": 214090.69500000097,
      "d": 454.5450000000128,
      "v": 127
    },
    {
      "midi": 86,
      "hit": false,
      "t": 214090.69500000097,
      "d": 454.5450000000128,
      "v": 127
    },
    {
      "midi": 55,
      "hit": false,
      "t": 214545.2400000007,
      "d": 909.0899999999965,
      "v": 127
    },
    {
      "midi": 59,
      "hit": false,
      "t": 214545.2400000007,
      "d": 909.0899999999965,
      "v": 127
    },
    {
      "midi": 74,
      "hit": false,
      "t": 214999.785000001,
      "d": 909.0899999999965,
      "v": 127
    },
    {
      "midi": 86,
      "hit": false,
      "t": 214999.785000001,
      "d": 909.0899999999965,
      "v": 127
    },
    {
      "midi": 57,
      "hit": false,
      "t": 215454.3300000007,
      "d": 909.0899999999965,
      "v": 127
    },
    {
      "midi": 60,
      "hit": false,
      "t": 215454.3300000007,
      "d": 909.0899999999965,
      "v": 127
    },
    {
      "midi": 66,
      "hit": false,
      "t": 215454.3300000007,
      "d": 909.0899999999965,
      "v": 127
    },
    {
      "midi": 74,
      "hit": false,
      "t": 215908.875000001,
      "d": 454.5450000000128,
      "v": 127
    },
    {
      "midi": 86,
      "hit": false,
      "t": 215908.875000001,
      "d": 454.5450000000128,
      "v": 127
    },
    {
      "midi": 59,
      "hit": false,
      "t": 216363.42000000068,
      "d": 454.5450000000128,
      "v": 127
    },
    {
      "midi": 62,
      "hit": false,
      "t": 216363.42000000068,
      "d": 454.5450000000128,
      "v": 127
    },
    {
      "midi": 67,
      "hit": false,
      "t": 216363.42000000068,
      "d": 454.5450000000128,
      "v": 127
    },
    {
      "midi": 59,
      "hit": false,
      "t": 216817.9650000007,
      "d": 227.27249999999185,
      "v": 127
    },
    {
      "midi": 62,
      "hit": false,
      "t": 217045.2375000007,
      "d": 227.27249999999185,
      "v": 127
    },
    {
      "midi": 65,
      "hit": false,
      "t": 217272.510000001,
      "d": 227.27249999999185,
      "v": 127
    },
    {
      "midi": 68,
      "hit": false,
      "t": 217499.782500001,
      "d": 227.27249999999185,
      "v": 127
    },
    {
      "midi": 71,
      "hit": false,
      "t": 217727.05500000098,
      "d": 227.27249999999185,
      "v": 127
    },
    {
      "midi": 74,
      "hit": false,
      "t": 217954.32750000097,
      "d": 227.27249999999185,
      "v": 127
    },
    {
      "midi": 77,
      "hit": false,
      "t": 218181.60000000097,
      "d": 227.27249999999185,
      "v": 127
    },
    {
      "midi": 80,
      "hit": false,
      "t": 218408.87250000096,
      "d": 227.27249999999185,
      "v": 127
    },
    {
      "midi": 65,
      "hit": false,
      "t": 218636.14500000095,
      "d": 227.27249999999185,
      "v": 127
    },
    {
      "midi": 68,
      "hit": false,
      "t": 218863.41750000094,
      "d": 227.27249999999185,
      "v": 127
    },
    {
      "midi": 71,
      "hit": false,
      "t": 219090.69000000093,
      "d": 227.27249999999185,
      "v": 127
    },
    {
      "midi": 74,
      "hit": false,
      "t": 219317.96250000093,
      "d": 227.27249999999185,
      "v": 127
    },
    {
      "midi": 77,
      "hit": false,
      "t": 219545.23500000092,
      "d": 227.27249999999185,
      "v": 127
    },
    {
      "midi": 80,
      "hit": false,
      "t": 219772.5075000009,
      "d": 227.27249999999185,
      "v": 127
    },
    {
      "midi": 83,
      "hit": false,
      "t": 219999.7800000009,
      "d": 227.27249999999185,
      "v": 127
    },
    {
      "midi": 86,
      "hit": false,
      "t": 220227.0525000009,
      "d": 227.27249999999185,
      "v": 127
    },
    {
      "midi": 89,
      "hit": false,
      "t": 220454.32500000088,
      "d": 909.0899999999965,
      "v": 127
    },
    {
      "midi": 55,
      "hit": false,
      "t": 221817.9600000007,
      "d": 454.5450000000128,
      "v": 127
    },
    {
      "midi": 55,
      "hit": false,
      "t": 222272.5050000007,
      "d": 454.5450000000128,
      "v": 127
    },
    {
      "midi": 63,
      "hit": false,
      "t": 222727.05000000072,
      "d": 454.5450000000128,
      "v": 127
    },
    {
      "midi": 62,
      "hit": false,
      "t": 223181.59500000073,
      "d": 454.5450000000128,
      "v": 127
    },
    {
      "midi": 60,
      "hit": false,
      "t": 223636.14000000074,
      "d": 454.5450000000128,
      "v": 127
    },
    {
      "midi": 60,
      "hit": false,
      "t": 224090.68500000075,
      "d": 909.0899999999965,
      "v": 127
    },
    {
      "midi": 59,
      "hit": false,
      "t": 224999.77500000075,
      "d": 454.5450000000128,
      "v": 127
    },
    {
      "midi": 53,
      "hit": false,
      "t": 225908.86500000078,
      "d": 454.5450000000128,
      "v": 127
    },
    {
      "midi": 65,
      "hit": false,
      "t": 226363.4100000008,
      "d": 454.5450000000128,
      "v": 127
    },
    {
      "midi": 63,
      "hit": false,
      "t": 226817.9550000008,
      "d": 454.5450000000128,
      "v": 127
    },
    {
      "midi": 62,
      "hit": false,
      "t": 227272.50000000081,
      "d": 454.5450000000128,
      "v": 127
    },
    {
      "midi": 62,
      "hit": false,
      "t": 227727.04500000083,
      "d": 909.0899999999965,
      "v": 127
    },
    {
      "midi": 60,
      "hit": false,
      "t": 228636.13500000082,
      "d": 454.5450000000128,
      "v": 127
    },
    {
      "midi": 51,
      "hit": false,
      "t": 229545.22500000085,
      "d": 1363.6350000000093,
      "v": 127
    },
    {
      "midi": 55,
      "hit": false,
      "t": 229545.22500000085,
      "d": 1363.6350000000093,
      "v": 127
    },
    {
      "midi": 67,
      "hit": false,
      "t": 229999.7700000009,
      "d": 454.5450000000128,
      "v": 127
    },
    {
      "midi": 65,
      "hit": false,
      "t": 230454.3150000009,
      "d": 454.5450000000128,
      "v": 127
    },
    {
      "midi": 63,
      "hit": false,
      "t": 230908.86000000092,
      "d": 454.5450000000128,
      "v": 127
    },
    {
      "midi": 53,
      "hit": false,
      "t": 231363.40500000087,
      "d": 1363.6350000000093,
      "v": 127
    },
    {
      "midi": 56,
      "hit": false,
      "t": 231363.40500000087,
      "d": 1363.6350000000093,
      "v": 127
    },
    {
      "midi": 63,
      "hit": false,
      "t": 231363.40500000093,
      "d": 454.5450000000128,
      "v": 127
    },
    {
      "midi": 61,
      "hit": false,
      "t": 231817.95000000094,
      "d": 454.5450000000128,
      "v": 127
    },
    {
      "midi": 62,
      "hit": false,
      "t": 232272.49500000096,
      "d": 454.5450000000128,
      "v": 127
    },
    {
      "midi": 68,
      "hit": false,
      "t": 232727.04000000097,
      "d": 454.5450000000128,
      "v": 127
    },
    {
      "midi": 53,
      "hit": false,
      "t": 233181.5850000009,
      "d": 1363.6350000000093,
      "v": 127
    },
    {
      "midi": 56,
      "hit": false,
      "t": 233181.5850000009,
      "d": 1363.6350000000093,
      "v": 127
    },
    {
      "midi": 67,
      "hit": false,
      "t": 233181.58500000098,
      "d": 454.5450000000128,
      "v": 127
    },
    {
      "midi": 65,
      "hit": false,
      "t": 233636.130000001,
      "d": 454.5450000000128,
      "v": 127
    },
    {
      "midi": 63,
      "hit": false,
      "t": 234090.675000001,
      "d": 454.5450000000128,
      "v": 127
    },
    {
      "midi": 62,
      "hit": false,
      "t": 234545.22000000102,
      "d": 454.5450000000128,
      "v": 127
    },
    {
      "midi": 55,
      "hit": false,
      "t": 234999.76500000092,
      "d": 1363.6350000000093,
      "v": 127
    },
    {
      "midi": 60,
      "hit": false,
      "t": 234999.76500000103,
      "d": 909.0899999999965,
      "v": 127
    },
    {
      "midi": 59,
      "hit": false,
      "t": 235908.85500000103,
      "d": 454.5450000000128,
      "v": 127
    },
    {
      "midi": 67,
      "hit": false,
      "t": 236363.40000000104,
      "d": 454.5450000000128,
      "v": 127
    },
    {
      "midi": 79,
      "hit": false,
      "t": 236363.40000000104,
      "d": 454.5450000000128,
      "v": 127
    },
    {
      "midi": 67,
      "hit": false,
      "t": 236817.94500000105,
      "d": 454.5450000000128,
      "v": 127
    },
    {
      "midi": 79,
      "hit": false,
      "t": 236817.94500000105,
      "d": 454.5450000000128,
      "v": 127
    },
    {
      "midi": 51,
      "hit": false,
      "t": 237272.49000000092,
      "d": 454.5450000000128,
      "v": 127
    },
    {
      "midi": 55,
      "hit": false,
      "t": 237272.49000000092,
      "d": 454.5450000000128,
      "v": 127
    },
    {
      "midi": 50,
      "hit": false,
      "t": 237727.03500000093,
      "d": 454.5450000000128,
      "v": 127
    },
    {
      "midi": 53,
      "hit": false,
      "t": 237727.03500000093,
      "d": 454.5450000000128,
      "v": 127
    },
    {
      "midi": 48,
      "hit": false,
      "t": 238181.58000000095,
      "d": 454.5450000000128,
      "v": 127
    },
    {
      "midi": 51,
      "hit": false,
      "t": 238181.58000000095,
      "d": 454.5450000000128,
      "v": 127
    },
    {
      "midi": 48,
      "hit": false,
      "t": 238636.12500000096,
      "d": 909.0899999999965,
      "v": 127
    },
    {
      "midi": 51,
      "hit": false,
      "t": 238636.12500000096,
      "d": 909.0899999999965,
      "v": 127
    },
    {
      "midi": 47,
      "hit": false,
      "t": 239545.21500000096,
      "d": 454.5450000000128,
      "v": 127
    },
    {
      "midi": 50,
      "hit": false,
      "t": 239545.21500000096,
      "d": 454.5450000000128,
      "v": 127
    },
    {
      "midi": 67,
      "hit": false,
      "t": 239999.76000000106,
      "d": 454.5450000000128,
      "v": 127
    },
    {
      "midi": 79,
      "hit": false,
      "t": 239999.76000000106,
      "d": 454.5450000000128,
      "v": 127
    },
    {
      "midi": 67,
      "hit": false,
      "t": 240454.30500000107,
      "d": 454.5450000000128,
      "v": 127
    },
    {
      "midi": 79,
      "hit": false,
      "t": 240454.30500000107,
      "d": 454.5450000000128,
      "v": 127
    },
    {
      "midi": 47,
      "hit": false,
      "t": 240908.85000000097,
      "d": 454.5450000000128,
      "v": 127
    },
    {
      "midi": 50,
      "hit": false,
      "t": 240908.85000000097,
      "d": 454.5450000000128,
      "v": 127
    },
    {
      "midi": 48,
      "hit": false,
      "t": 241363.39500000098,
      "d": 454.5450000000128,
      "v": 127
    },
    {
      "midi": 51,
      "hit": false,
      "t": 241363.39500000098,
      "d": 454.5450000000128,
      "v": 127
    },
    {
      "midi": 50,
      "hit": false,
      "t": 241817.940000001,
      "d": 454.5450000000128,
      "v": 127
    },
    {
      "midi": 53,
      "hit": false,
      "t": 241817.940000001,
      "d": 454.5450000000128,
      "v": 127
    },
    {
      "midi": 50,
      "hit": false,
      "t": 242272.485000001,
      "d": 909.0899999999965,
      "v": 127
    },
    {
      "midi": 53,
      "hit": false,
      "t": 242272.485000001,
      "d": 909.0899999999965,
      "v": 127
    },
    {
      "midi": 48,
      "hit": false,
      "t": 243181.575000001,
      "d": 454.5450000000128,
      "v": 127
    },
    {
      "midi": 51,
      "hit": false,
      "t": 243181.575000001,
      "d": 454.5450000000128,
      "v": 127
    },
    {
      "midi": 44,
      "hit": false,
      "t": 243636.120000001,
      "d": 454.5450000000128,
      "v": 127
    },
    {
      "midi": 56,
      "hit": false,
      "t": 243636.120000001,
      "d": 454.5450000000128,
      "v": 127
    },
    {
      "midi": 44,
      "hit": false,
      "t": 244090.66500000103,
      "d": 454.5450000000128,
      "v": 127
    },
    {
      "midi": 56,
      "hit": false,
      "t": 244090.66500000103,
      "d": 454.5450000000128,
      "v": 127
    },
    {
      "midi": 44,
      "hit": false,
      "t": 244545.21000000104,
      "d": 454.5450000000128,
      "v": 127
    },
    {
      "midi": 56,
      "hit": false,
      "t": 244545.21000000104,
      "d": 454.5450000000128,
      "v": 127
    },
    {
      "midi": 44,
      "hit": false,
      "t": 244999.75500000105,
      "d": 454.5450000000128,
      "v": 127
    },
    {
      "midi": 56,
      "hit": false,
      "t": 244999.75500000105,
      "d": 454.5450000000128,
      "v": 127
    },
    {
      "midi": 56,
      "hit": false,
      "t": 245454.30000000107,
      "d": 454.5450000000128,
      "v": 127
    },
    {
      "midi": 58,
      "hit": false,
      "t": 245454.30000000107,
      "d": 454.5450000000128,
      "v": 127
    },
    {
      "midi": 58,
      "hit": false,
      "t": 245908.84500000108,
      "d": 454.5450000000128,
      "v": 127
    },
    {
      "midi": 58,
      "hit": false,
      "t": 246363.3900000011,
      "d": 454.5450000000128,
      "v": 127
    },
    {
      "midi": 58,
      "hit": false,
      "t": 246817.9350000011,
      "d": 454.5450000000128,
      "v": 127
    },
    {
      "midi": 63,
      "hit": false,
      "t": 247272.4800000011,
      "d": 454.5450000000128,
      "v": 127
    },
    {
      "midi": 58,
      "hit": false,
      "t": 247272.48000000112,
      "d": 454.5450000000128,
      "v": 127
    },
    {
      "midi": 63,
      "hit": false,
      "t": 247727.0250000011,
      "d": 454.5450000000128,
      "v": 127
    },
    {
      "midi": 54,
      "hit": false,
      "t": 247727.02500000113,
      "d": 909.0899999999965,
      "v": 127
    },
    {
      "midi": 63,
      "hit": false,
      "t": 248181.5700000011,
      "d": 454.5450000000128,
      "v": 127
    },
    {
      "midi": 63,
      "hit": false,
      "t": 248636.11500000113,
      "d": 454.5450000000128,
      "v": 127
    },
    {
      "midi": 57,
      "hit": false,
      "t": 248636.11500000113,
      "d": 454.5450000000128,
      "v": 127
    },
    {
      "midi": 63,
      "hit": false,
      "t": 249090.66000000114,
      "d": 454.5450000000128,
      "v": 127
    },
    {
      "midi": 69,
      "hit": false,
      "t": 249090.66000000114,
      "d": 454.5450000000128,
      "v": 127
    },
    {
      "midi": 60,
      "hit": false,
      "t": 249090.66000000114,
      "d": 454.5450000000128,
      "v": 127
    },
    {
      "midi": 69,
      "hit": false,
      "t": 249545.20500000115,
      "d": 454.5450000000128,
      "v": 127
    },
    {
      "midi": 60,
      "hit": false,
      "t": 249545.20500000115,
      "d": 909.0899999999965,
      "v": 127
    },
    {
      "midi": 69,
      "hit": false,
      "t": 249999.75000000116,
      "d": 454.5450000000128,
      "v": 127
    },
    {
      "midi": 57,
      "hit": false,
      "t": 250454.29500000115,
      "d": 454.5450000000128,
      "v": 127
    },
    {
      "midi": 69,
      "hit": false,
      "t": 250454.29500000118,
      "d": 454.5450000000128,
      "v": 127
    },
    {
      "midi": 69,
      "hit": false,
      "t": 250908.8400000012,
      "d": 454.5450000000128,
      "v": 127
    },
    {
      "midi": 74,
      "hit": false,
      "t": 250908.8400000012,
      "d": 454.5450000000128,
      "v": 127
    },
    {
      "midi": 54,
      "hit": false,
      "t": 251363.38500000117,
      "d": 909.0899999999965,
      "v": 127
    },
    {
      "midi": 60,
      "hit": false,
      "t": 251363.38500000117,
      "d": 909.0899999999965,
      "v": 127
    },
    {
      "midi": 74,
      "hit": false,
      "t": 251363.3850000012,
      "d": 454.5450000000128,
      "v": 127
    },
    {
      "midi": 74,
      "hit": false,
      "t": 251817.93000000122,
      "d": 454.5450000000128,
      "v": 127
    },
    {
      "midi": 53,
      "hit": false,
      "t": 252272.47500000117,
      "d": 454.5450000000128,
      "v": 127
    },
    {
      "midi": 59,
      "hit": false,
      "t": 252272.47500000117,
      "d": 454.5450000000128,
      "v": 127
    },
    {
      "midi": 74,
      "hit": false,
      "t": 252272.47500000123,
      "d": 454.5450000000128,
      "v": 127
    },
    {
      "midi": 74,
      "hit": false,
      "t": 252727.02000000124,
      "d": 454.5450000000128,
      "v": 127
    },
    {
      "midi": 79,
      "hit": false,
      "t": 252727.02000000124,
      "d": 454.5450000000128,
      "v": 127
    },
    {
      "midi": 51,
      "hit": false,
      "t": 253181.5650000012,
      "d": 909.0899999999965,
      "v": 127
    },
    {
      "midi": 55,
      "hit": false,
      "t": 253181.5650000012,
      "d": 909.0899999999965,
      "v": 127
    },
    {
      "midi": 79,
      "hit": false,
      "t": 253181.56500000125,
      "d": 454.5450000000128,
      "v": 127
    },
    {
      "midi": 79,
      "hit": false,
      "t": 253636.11000000127,
      "d": 454.5450000000128,
      "v": 127
    },
    {
      "midi": 51,
      "hit": false,
      "t": 254090.6550000012,
      "d": 454.5450000000128,
      "v": 127
    },
    {
      "midi": 79,
      "hit": false,
      "t": 254090.65500000128,
      "d": 454.5450000000128,
      "v": 127
    },
    {
      "midi": 79,
      "hit": false,
      "t": 254545.2000000013,
      "d": 454.5450000000128,
      "v": 127
    },
    {
      "midi": 84,
      "hit": false,
      "t": 254545.2000000013,
      "d": 454.5450000000128,
      "v": 127
    },
    {
      "midi": 53,
      "hit": false,
      "t": 254999.74500000122,
      "d": 909.0899999999965,
      "v": 127
    },
    {
      "midi": 56,
      "hit": false,
      "t": 254999.74500000122,
      "d": 909.0899999999965,
      "v": 127
    },
    {
      "midi": 84,
      "hit": false,
      "t": 254999.7450000013,
      "d": 227.27249999999185,
      "v": 127
    },
    {
      "midi": 80,
      "hit": false,
      "t": 255227.0175000013,
      "d": 227.27249999999185,
      "v": 127
    },
    {
      "midi": 79,
      "hit": false,
      "t": 255454.2900000013,
      "d": 227.27249999999185,
      "v": 127
    },
    {
      "midi": 77,
      "hit": false,
      "t": 255681.56250000128,
      "d": 227.27249999999185,
      "v": 127
    },
    {
      "midi": 55,
      "hit": false,
      "t": 255908.8350000012,
      "d": 454.5450000000128,
      "v": 127
    },
    {
      "midi": 75,
      "hit": false,
      "t": 255908.83500000127,
      "d": 454.5450000000128,
      "v": 127
    },
    {
      "midi": 43,
      "hit": false,
      "t": 256363.38000000123,
      "d": 454.5450000000128,
      "v": 127
    },
    {
      "midi": 74,
      "hit": false,
      "t": 256363.38000000129,
      "d": 454.5450000000128,
      "v": 127
    },
    {
      "midi": 48,
      "hit": false,
      "t": 256817.92500000124,
      "d": 454.5450000000128,
      "v": 127
    },
    {
      "midi": 72,
      "hit": false,
      "t": 256817.9250000013,
      "d": 909.0899999999965,
      "v": 127
    },
    {
      "midi": 43,
      "hit": false,
      "t": 257272.47000000125,
      "d": 227.27249999999185,
      "v": 127
    },
    {
      "midi": 39,
      "hit": false,
      "t": 257499.74250000124,
      "d": 227.27249999999185,
      "v": 127
    },
    {
      "midi": 36,
      "hit": false,
      "t": 257727.01500000124,
      "d": 454.5450000000128,
      "v": 127
    },
    {
      "midi": 67,
      "hit": false,
      "t": 258181.5600000013,
      "d": 454.5450000000128,
      "v": 127
    },
    {
      "midi": 67,
      "hit": false,
      "t": 258636.10500000132,
      "d": 454.5450000000128,
      "v": 127
    },
    {
      "midi": 73,
      "hit": false,
      "t": 259090.65000000133,
      "d": 454.5450000000128,
      "v": 127
    },
    {
      "midi": 64,
      "hit": false,
      "t": 259545.19500000126,
      "d": 454.5450000000128,
      "v": 127
    },
    {
      "midi": 72,
      "hit": false,
      "t": 259545.19500000135,
      "d": 454.5450000000128,
      "v": 127
    },
    {
      "midi": 70,
      "hit": false,
      "t": 259999.74000000136,
      "d": 454.5450000000128,
      "v": 127
    },
    {
      "midi": 65,
      "hit": false,
      "t": 260454.28500000128,
      "d": 909.0899999999965,
      "v": 127
    },
    {
      "midi": 70,
      "hit": false,
      "t": 260454.28500000137,
      "d": 909.0899999999965,
      "v": 127
    },
    {
      "midi": 53,
      "hit": false,
      "t": 261363.37500000128,
      "d": 454.5450000000128,
      "v": 127
    },
    {
      "midi": 69,
      "hit": false,
      "t": 261363.37500000137,
      "d": 454.5450000000128,
      "v": 127
    },
    {
      "midi": 69,
      "hit": false,
      "t": 261817.92000000138,
      "d": 454.5449999999837,
      "v": 127
    },
    {
      "midi": 66,
      "hit": false,
      "t": 262272.4650000013,
      "d": 909.0900000000256,
      "v": 127
    },
    {
      "midi": 69,
      "hit": false,
      "t": 262272.46500000136,
      "d": 454.5449999999837,
      "v": 127
    },
    {
      "midi": 75,
      "hit": false,
      "t": 262727.01000000135,
      "d": 454.5449999999837,
      "v": 127
    },
    {
      "midi": 74,
      "hit": false,
      "t": 263181.55500000133,
      "d": 454.5449999999837,
      "v": 127
    },
    {
      "midi": 72,
      "hit": false,
      "t": 263636.1000000013,
      "d": 454.5449999999837,
      "v": 127
    },
    {
      "midi": 62,
      "hit": false,
      "t": 263636.1000000013,
      "d": 454.5449999999837,
      "v": 127
    },
    {
      "midi": 72,
      "hit": false,
      "t": 264090.6450000013,
      "d": 454.5449999999837,
      "v": 127
    },
    {
      "midi": 62,
      "hit": false,
      "t": 264090.6450000013,
      "d": 454.5449999999837,
      "v": 127
    },
    {
      "midi": 74,
      "hit": false,
      "t": 264545.1900000013,
      "d": 454.5449999999837,
      "v": 127
    },
    {
      "midi": 68,
      "hit": false,
      "t": 264545.1900000013,
      "d": 454.5449999999837,
      "v": 127
    },
    {
      "midi": 74,
      "hit": false,
      "t": 264999.73500000127,
      "d": 454.5449999999837,
      "v": 127
    },
    {
      "midi": 67,
      "hit": false,
      "t": 264999.73500000127,
      "d": 454.5449999999837,
      "v": 127
    },
    {
      "midi": 80,
      "hit": false,
      "t": 265454.28000000125,
      "d": 454.5449999999837,
      "v": 127
    },
    {
      "midi": 65,
      "hit": false,
      "t": 265454.28000000125,
      "d": 454.5449999999837,
      "v": 127
    },
    {
      "midi": 79,
      "hit": false,
      "t": 265908.82500000123,
      "d": 454.5449999999837,
      "v": 127
    },
    {
      "midi": 63,
      "hit": false,
      "t": 265908.82500000123,
      "d": 454.5449999999837,
      "v": 127
    },
    {
      "midi": 77,
      "hit": false,
      "t": 266363.3700000012,
      "d": 454.5449999999837,
      "v": 127
    },
    {
      "midi": 83,
      "hit": false,
      "t": 266363.3700000012,
      "d": 454.5449999999837,
      "v": 127
    },
    {
      "midi": 62,
      "hit": false,
      "t": 266363.3700000012,
      "d": 454.5449999999837,
      "v": 127
    },
    {
      "midi": 83,
      "hit": false,
      "t": 266817.9150000012,
      "d": 454.5449999999837,
      "v": 127
    },
    {
      "midi": 60,
      "hit": false,
      "t": 266817.9150000012,
      "d": 454.5449999999837,
      "v": 127
    },
    {
      "midi": 89,
      "hit": false,
      "t": 267272.4600000012,
      "d": 454.5449999999837,
      "v": 127
    },
    {
      "midi": 59,
      "hit": false,
      "t": 267272.4600000012,
      "d": 454.5449999999837,
      "v": 127
    },
    {
      "midi": 68,
      "hit": false,
      "t": 267272.4600000012,
      "d": 454.5449999999837,
      "v": 127
    },
    {
      "midi": 89,
      "hit": false,
      "t": 267727.00500000117,
      "d": 454.5449999999837,
      "v": 127
    },
    {
      "midi": 60,
      "hit": false,
      "t": 267727.00500000117,
      "d": 454.5449999999837,
      "v": 127
    },
    {
      "midi": 68,
      "hit": false,
      "t": 267727.00500000117,
      "d": 454.5449999999837,
      "v": 127
    },
    {
      "midi": 79,
      "hit": false,
      "t": 268181.55000000115,
      "d": 454.5449999999837,
      "v": 127
    },
    {
      "midi": 87,
      "hit": false,
      "t": 268181.55000000115,
      "d": 454.5449999999837,
      "v": 127
    },
    {
      "midi": 48,
      "hit": false,
      "t": 268181.55000000115,
      "d": 454.5449999999837,
      "v": 127
    },
    {
      "midi": 77,
      "hit": false,
      "t": 268636.09500000114,
      "d": 454.5449999999837,
      "v": 127
    },
    {
      "midi": 86,
      "hit": false,
      "t": 268636.09500000114,
      "d": 454.5449999999837,
      "v": 127
    },
    {
      "midi": 48,
      "hit": false,
      "t": 268636.09500000114,
      "d": 454.5449999999837,
      "v": 127
    },
    {
      "midi": 75,
      "hit": false,
      "t": 269090.6400000011,
      "d": 454.5449999999837,
      "v": 127
    },
    {
      "midi": 84,
      "hit": false,
      "t": 269090.6400000011,
      "d": 454.5449999999837,
      "v": 127
    },
    {
      "midi": 56,
      "hit": false,
      "t": 269090.6400000011,
      "d": 454.5449999999837,
      "v": 127
    },
    {
      "midi": 60,
      "hit": false,
      "t": 269090.6400000011,
      "d": 454.5449999999837,
      "v": 127
    },
    {
      "midi": 86,
      "hit": false,
      "t": 269545.1850000011,
      "d": 454.5449999999837,
      "v": 127
    },
    {
      "midi": 56,
      "hit": false,
      "t": 269545.1850000011,
      "d": 454.5449999999837,
      "v": 127
    },
    {
      "midi": 60,
      "hit": false,
      "t": 269545.1850000011,
      "d": 454.5449999999837,
      "v": 127
    },
    {
      "midi": 65,
      "hit": false,
      "t": 269999.7300000011,
      "d": 454.5449999999837,
      "v": 127
    },
    {
      "midi": 68,
      "hit": false,
      "t": 269999.7300000011,
      "d": 454.5449999999837,
      "v": 127
    },
    {
      "midi": 63,
      "hit": false,
      "t": 270454.2750000011,
      "d": 454.5449999999837,
      "v": 127
    },
    {
      "midi": 67,
      "hit": false,
      "t": 270454.2750000011,
      "d": 454.5449999999837,
      "v": 127
    },
    {
      "midi": 84,
      "hit": false,
      "t": 270454.2750000011,
      "d": 454.5449999999837,
      "v": 127
    },
    {
      "midi": 62,
      "hit": false,
      "t": 270908.82000000105,
      "d": 454.5449999999837,
      "v": 127
    },
    {
      "midi": 65,
      "hit": false,
      "t": 270908.82000000105,
      "d": 454.5449999999837,
      "v": 127
    },
    {
      "midi": 83,
      "hit": false,
      "t": 270908.82000000105,
      "d": 454.5449999999837,
      "v": 127
    },
    {
      "midi": 62,
      "hit": false,
      "t": 271363.36500000104,
      "d": 909.0900000000256,
      "v": 127
    },
    {
      "midi": 65,
      "hit": false,
      "t": 271363.36500000104,
      "d": 909.0900000000256,
      "v": 127
    },
    {
      "midi": 83,
      "hit": false,
      "t": 271363.36500000104,
      "d": 909.0900000000256,
      "v": 127
    },
    {
      "midi": 60,
      "hit": false,
      "t": 272272.45500000106,
      "d": 454.5449999999837,
      "v": 127
    },
    {
      "midi": 63,
      "hit": false,
      "t": 272272.45500000106,
      "d": 454.5449999999837,
      "v": 127
    },
    {
      "midi": 84,
      "hit": false,
      "t": 272272.45500000106,
      "d": 454.5449999999837,
      "v": 127
    },
    {
      "midi": 78,
      "hit": false,
      "t": 273181.54500000103,
      "d": 1363.6350000000093,
      "v": 127
    },
    {
      "midi": 69,
      "hit": false,
      "t": 274999.725000001,
      "d": 909.0900000000256,
      "v": 127
    },
    {
      "midi": 60,
      "hit": false,
      "t": 274999.7250000011,
      "d": 909.0900000000256,
      "v": 127
    },
    {
      "midi": 63,
      "hit": false,
      "t": 274999.7250000011,
      "d": 909.0900000000256,
      "v": 127
    },
    {
      "midi": 77,
      "hit": false,
      "t": 275908.81500000105,
      "d": 454.5449999999837,
      "v": 127
    },
    {
      "midi": 61,
      "hit": false,
      "t": 275908.8150000011,
      "d": 454.5449999999837,
      "v": 127
    },
    {
      "midi": 65,
      "hit": false,
      "t": 275908.8150000011,
      "d": 454.5449999999837,
      "v": 127
    },
    {
      "midi": 72,
      "hit": false,
      "t": 276817.905000001,
      "d": 909.0900000000256,
      "v": 127
    },
    {
      "midi": 57,
      "hit": false,
      "t": 276817.9050000011,
      "d": 1363.6350000000093,
      "v": 127
    },
    {
      "midi": 65,
      "hit": false,
      "t": 276817.9050000011,
      "d": 1363.6350000000093,
      "v": 127
    },
    {
      "midi": 75,
      "hit": false,
      "t": 277726.99500000104,
      "d": 454.5449999999837,
      "v": 127
    },
    {
      "midi": 75,
      "hit": false,
      "t": 278636.085000001,
      "d": 909.0900000000256,
      "v": 127
    },
    {
      "midi": 58,
      "hit": false,
      "t": 278636.08500000107,
      "d": 1363.6350000000093,
      "v": 127
    },
    {
      "midi": 65,
      "hit": false,
      "t": 278636.08500000107,
      "d": 1363.6350000000093,
      "v": 127
    },
    {
      "midi": 73,
      "hit": false,
      "t": 279545.17500000104,
      "d": 454.5449999999837,
      "v": 127
    },
    {
      "midi": 80,
      "hit": false,
      "t": 280454.265000001,
      "d": 1363.6350000000093,
      "v": 127
    },
    {
      "midi": 71,
      "hit": false,
      "t": 282272.445000001,
      "d": 909.0900000000256,
      "v": 127
    },
    {
      "midi": 62,
      "hit": false,
      "t": 282272.44500000105,
      "d": 909.0900000000256,
      "v": 127
    },
    {
      "midi": 65,
      "hit": false,
      "t": 282272.44500000105,
      "d": 909.0900000000256,
      "v": 127
    },
    {
      "midi": 79,
      "hit": false,
      "t": 283181.535000001,
      "d": 454.5449999999837,
      "v": 127
    },
    {
      "midi": 63,
      "hit": false,
      "t": 283181.5350000011,
      "d": 454.5449999999837,
      "v": 127
    },
    {
      "midi": 67,
      "hit": false,
      "t": 283181.5350000011,
      "d": 454.5449999999837,
      "v": 127
    },
    {
      "midi": 74,
      "hit": false,
      "t": 284090.625000001,
      "d": 909.0900000000256,
      "v": 127
    },
    {
      "midi": 59,
      "hit": false,
      "t": 284090.62500000105,
      "d": 1363.6350000000093,
      "v": 127
    },
    {
      "midi": 67,
      "hit": false,
      "t": 284090.62500000105,
      "d": 1363.6350000000093,
      "v": 127
    },
    {
      "midi": 77,
      "hit": false,
      "t": 284999.715000001,
      "d": 454.5449999999837,
      "v": 127
    },
    {
      "midi": 77,
      "hit": false,
      "t": 285908.805000001,
      "d": 909.0900000000256,
      "v": 127
    },
    {
      "midi": 58,
      "hit": false,
      "t": 285908.80500000104,
      "d": 1363.6350000000093,
      "v": 127
    },
    {
      "midi": 67,
      "hit": false,
      "t": 285908.80500000104,
      "d": 1363.6350000000093,
      "v": 127
    },
    {
      "midi": 76,
      "hit": false,
      "t": 286817.895000001,
      "d": 454.5449999999837,
      "v": 127
    },
    {
      "midi": 57,
      "hit": false,
      "t": 287726.98500000103,
      "d": 1363.6350000000093,
      "v": 127
    },
    {
      "midi": 66,
      "hit": false,
      "t": 287726.98500000103,
      "d": 1363.6350000000093,
      "v": 127
    },
    {
      "midi": 72,
      "hit": false,
      "t": 288636.075000001,
      "d": 454.5449999999837,
      "v": 127
    },
    {
      "midi": 84,
      "hit": false,
      "t": 288636.075000001,
      "d": 454.5449999999837,
      "v": 127
    },
    {
      "midi": 56,
      "hit": false,
      "t": 289545.165000001,
      "d": 1363.6350000000093,
      "v": 127
    },
    {
      "midi": 65,
      "hit": false,
      "t": 289545.165000001,
      "d": 1363.6350000000093,
      "v": 127
    },
    {
      "midi": 72,
      "hit": false,
      "t": 290454.255000001,
      "d": 454.5449999999837,
      "v": 127
    },
    {
      "midi": 84,
      "hit": false,
      "t": 290454.255000001,
      "d": 454.5449999999837,
      "v": 127
    },
    {
      "midi": 55,
      "hit": false,
      "t": 291363.345000001,
      "d": 1363.6350000000093,
      "v": 127
    },
    {
      "midi": 64,
      "hit": false,
      "t": 291363.345000001,
      "d": 1363.6350000000093,
      "v": 127
    },
    {
      "midi": 72,
      "hit": false,
      "t": 292272.435000001,
      "d": 454.5449999999837,
      "v": 127
    },
    {
      "midi": 84,
      "hit": false,
      "t": 292272.435000001,
      "d": 454.5449999999837,
      "v": 127
    },
    {
      "midi": 54,
      "hit": false,
      "t": 293181.525000001,
      "d": 1363.6350000000093,
      "v": 127
    },
    {
      "midi": 63,
      "hit": false,
      "t": 293181.525000001,
      "d": 1363.6350000000093,
      "v": 127
    },
    {
      "midi": 72,
      "hit": false,
      "t": 294090.615000001,
      "d": 454.5449999999837,
      "v": 127
    },
    {
      "midi": 84,
      "hit": false,
      "t": 294090.615000001,
      "d": 454.5449999999837,
      "v": 127
    },
    {
      "midi": 53,
      "hit": false,
      "t": 294999.705000001,
      "d": 1363.6350000000093,
      "v": 127
    },
    {
      "midi": 56,
      "hit": false,
      "t": 294999.705000001,
      "d": 1363.6350000000093,
      "v": 127
    },
    {
      "midi": 73,
      "hit": false,
      "t": 295454.250000001,
      "d": 454.5449999999837,
      "v": 127
    },
    {
      "midi": 85,
      "hit": false,
      "t": 295454.250000001,
      "d": 454.5449999999837,
      "v": 127
    },
    {
      "midi": 73,
      "hit": false,
      "t": 295908.795000001,
      "d": 454.5449999999837,
      "v": 127
    },
    {
      "midi": 85,
      "hit": false,
      "t": 295908.795000001,
      "d": 454.5449999999837,
      "v": 127
    },
    {
      "midi": 65,
      "hit": false,
      "t": 296363.340000001,
      "d": 454.5449999999837,
      "v": 127
    },
    {
      "midi": 68,
      "hit": false,
      "t": 296363.340000001,
      "d": 454.5449999999837,
      "v": 127
    },
    {
      "midi": 63,
      "hit": false,
      "t": 296817.885000001,
      "d": 1363.6350000000093,
      "v": 127
    },
    {
      "midi": 67,
      "hit": false,
      "t": 296817.885000001,
      "d": 1363.6350000000093,
      "v": 127
    },
    {
      "midi": 72,
      "hit": false,
      "t": 297272.430000001,
      "d": 454.5449999999837,
      "v": 127
    },
    {
      "midi": 84,
      "hit": false,
      "t": 297272.430000001,
      "d": 454.5449999999837,
      "v": 127
    },
    {
      "midi": 72,
      "hit": false,
      "t": 297726.97500000097,
      "d": 454.5449999999837,
      "v": 127
    },
    {
      "midi": 84,
      "hit": false,
      "t": 297726.97500000097,
      "d": 454.5449999999837,
      "v": 127
    },
    {
      "midi": 63,
      "hit": false,
      "t": 298181.520000001,
      "d": 454.5449999999837,
      "v": 127
    },
    {
      "midi": 67,
      "hit": false,
      "t": 298181.520000001,
      "d": 454.5449999999837,
      "v": 127
    },
    {
      "midi": 61,
      "hit": false,
      "t": 298636.065000001,
      "d": 909.0900000000256,
      "v": 127
    },
    {
      "midi": 65,
      "hit": false,
      "t": 298636.065000001,
      "d": 909.0900000000256,
      "v": 127
    },
    {
      "midi": 70,
      "hit": false,
      "t": 299090.610000001,
      "d": 909.0900000000256,
      "v": 127
    },
    {
      "midi": 82,
      "hit": false,
      "t": 299090.610000001,
      "d": 909.0900000000256,
      "v": 127
    },
    {
      "midi": 60,
      "hit": false,
      "t": 299545.155000001,
      "d": 454.5449999999837,
      "v": 127
    },
    {
      "midi": 65,
      "hit": false,
      "t": 299545.155000001,
      "d": 454.5449999999837,
      "v": 127
    },
    {
      "midi": 68,
      "hit": false,
      "t": 299999.700000001,
      "d": 454.5449999999837,
      "v": 127
    },
    {
      "midi": 80,
      "hit": false,
      "t": 299999.700000001,
      "d": 454.5449999999837,
      "v": 127
    },
    {
      "midi": 68,
      "hit": false,
      "t": 300454.245000001,
      "d": 909.0900000000256,
      "v": 127
    },
    {
      "midi": 80,
      "hit": false,
      "t": 300454.245000001,
      "d": 909.0900000000256,
      "v": 127
    },
    {
      "midi": 63,
      "hit": false,
      "t": 300454.245000001,
      "d": 1363.6350000000093,
      "v": 127
    },
    {
      "midi": 67,
      "hit": false,
      "t": 301363.335000001,
      "d": 454.5449999999837,
      "v": 127
    },
    {
      "midi": 79,
      "hit": false,
      "t": 301363.335000001,
      "d": 454.5449999999837,
      "v": 127
    },
    {
      "midi": 63,
      "hit": false,
      "t": 301817.880000001,
      "d": 454.5449999999837,
      "v": 127
    },
    {
      "midi": 63,
      "hit": false,
      "t": 302272.425000001,
      "d": 454.5449999999837,
      "v": 127
    },
    {
      "midi": 44,
      "hit": false,
      "t": 302272.425000001,
      "d": 909.0900000000256,
      "v": 127
    },
    {
      "midi": 48,
      "hit": false,
      "t": 302272.425000001,
      "d": 909.0900000000256,
      "v": 127
    },
    {
      "midi": 72,
      "hit": false,
      "t": 302726.97000000096,
      "d": 454.5449999999837,
      "v": 127
    },
    {
      "midi": 70,
      "hit": false,
      "t": 303181.51500000095,
      "d": 454.5449999999837,
      "v": 127
    },
    {
      "midi": 44,
      "hit": false,
      "t": 303181.515000001,
      "d": 454.5449999999837,
      "v": 127
    },
    {
      "midi": 48,
      "hit": false,
      "t": 303181.515000001,
      "d": 454.5449999999837,
      "v": 127
    },
    {
      "midi": 68,
      "hit": false,
      "t": 303636.0600000009,
      "d": 454.5449999999837,
      "v": 127
    },
    {
      "midi": 68,
      "hit": false,
      "t": 304090.6050000009,
      "d": 909.0900000000256,
      "v": 127
    },
    {
      "midi": 46,
      "hit": false,
      "t": 304090.605000001,
      "d": 909.0900000000256,
      "v": 127
    },
    {
      "midi": 49,
      "hit": false,
      "t": 304090.605000001,
      "d": 909.0900000000256,
      "v": 127
    },
    {
      "midi": 67,
      "hit": false,
      "t": 304999.69500000094,
      "d": 454.5449999999837,
      "v": 127
    },
    {
      "midi": 46,
      "hit": false,
      "t": 304999.695000001,
      "d": 454.5449999999837,
      "v": 127
    },
    {
      "midi": 49,
      "hit": false,
      "t": 304999.695000001,
      "d": 454.5449999999837,
      "v": 127
    },
    {
      "midi": 61,
      "hit": false,
      "t": 305454.2400000009,
      "d": 454.5449999999837,
      "v": 127
    },
    {
      "midi": 61,
      "hit": false,
      "t": 305908.7850000009,
      "d": 454.5449999999837,
      "v": 127
    },
    {
      "midi": 73,
      "hit": false,
      "t": 306363.3300000009,
      "d": 454.5449999999837,
      "v": 127
    },
    {
      "midi": 72,
      "hit": false,
      "t": 306817.8750000009,
      "d": 454.5449999999837,
      "v": 127
    },
    {
      "midi": 46,
      "hit": false,
      "t": 306817.875000001,
      "d": 454.5449999999837,
      "v": 127
    },
    {
      "midi": 49,
      "hit": false,
      "t": 306817.875000001,
      "d": 454.5449999999837,
      "v": 127
    },
    {
      "midi": 55,
      "hit": false,
      "t": 306817.875000001,
      "d": 454.5449999999837,
      "v": 127
    },
    {
      "midi": 70,
      "hit": false,
      "t": 307272.42000000086,
      "d": 454.5449999999837,
      "v": 127
    },
    {
      "midi": 70,
      "hit": false,
      "t": 307726.96500000084,
      "d": 909.0900000000256,
      "v": 127
    },
    {
      "midi": 48,
      "hit": false,
      "t": 307726.96500000096,
      "d": 909.0900000000256,
      "v": 127
    },
    {
      "midi": 51,
      "hit": false,
      "t": 307726.96500000096,
      "d": 909.0900000000256,
      "v": 127
    },
    {
      "midi": 68,
      "hit": false,
      "t": 308636.05500000087,
      "d": 454.5449999999837,
      "v": 127
    },
    {
      "midi": 48,
      "hit": false,
      "t": 308636.055000001,
      "d": 454.5449999999837,
      "v": 127
    },
    {
      "midi": 51,
      "hit": false,
      "t": 308636.055000001,
      "d": 454.5449999999837,
      "v": 127
    },
    {
      "midi": 63,
      "hit": false,
      "t": 309090.60000000085,
      "d": 454.5449999999837,
      "v": 127
    },
    {
      "midi": 63,
      "hit": false,
      "t": 309545.14500000083,
      "d": 454.5449999999837,
      "v": 127
    },
    {
      "midi": 75,
      "hit": false,
      "t": 309999.6900000008,
      "d": 454.5449999999837,
      "v": 127
    },
    {
      "midi": 73,
      "hit": false,
      "t": 310454.2350000008,
      "d": 454.5449999999837,
      "v": 127
    },
    {
      "midi": 48,
      "hit": false,
      "t": 310454.235000001,
      "d": 454.5449999999837,
      "v": 127
    },
    {
      "midi": 51,
      "hit": false,
      "t": 310454.235000001,
      "d": 454.5449999999837,
      "v": 127
    },
    {
      "midi": 56,
      "hit": false,
      "t": 310454.235000001,
      "d": 454.5449999999837,
      "v": 127
    },
    {
      "midi": 72,
      "hit": false,
      "t": 310908.7800000008,
      "d": 454.5449999999837,
      "v": 127
    },
    {
      "midi": 72,
      "hit": false,
      "t": 311363.32500000077,
      "d": 454.5449999999837,
      "v": 127
    },
    {
      "midi": 49,
      "hit": false,
      "t": 311363.32500000094,
      "d": 909.0900000000256,
      "v": 127
    },
    {
      "midi": 53,
      "hit": false,
      "t": 311363.32500000094,
      "d": 909.0900000000256,
      "v": 127
    },
    {
      "midi": 69,
      "hit": false,
      "t": 311817.87000000075,
      "d": 454.5449999999837,
      "v": 127
    },
    {
      "midi": 70,
      "hit": false,
      "t": 312272.41500000074,
      "d": 454.5449999999837,
      "v": 127
    },
    {
      "midi": 49,
      "hit": false,
      "t": 312272.41500000097,
      "d": 454.5449999999837,
      "v": 127
    },
    {
      "midi": 53,
      "hit": false,
      "t": 312272.41500000097,
      "d": 454.5449999999837,
      "v": 127
    },
    {
      "midi": 77,
      "hit": false,
      "t": 312726.9600000007,
      "d": 454.5449999999837,
      "v": 127
    },
    {
      "midi": 75,
      "hit": false,
      "t": 313181.5050000007,
      "d": 454.5449999999837,
      "v": 127
    },
    {
      "midi": 73,
      "hit": false,
      "t": 313636.0500000007,
      "d": 454.5449999999837,
      "v": 127
    },
    {
      "midi": 72,
      "hit": false,
      "t": 314090.59500000067,
      "d": 454.5449999999837,
      "v": 127
    },
    {
      "midi": 49,
      "hit": false,
      "t": 314090.59500000096,
      "d": 454.5449999999837,
      "v": 127
    },
    {
      "midi": 53,
      "hit": false,
      "t": 314090.59500000096,
      "d": 454.5449999999837,
      "v": 127
    },
    {
      "midi": 70,
      "hit": false,
      "t": 314545.14000000065,
      "d": 454.5449999999837,
      "v": 127
    },
    {
      "midi": 68,
      "hit": false,
      "t": 314999.68500000064,
      "d": 909.0900000000256,
      "v": 127
    },
    {
      "midi": 51,
      "hit": false,
      "t": 314999.6850000009,
      "d": 1363.6350000000093,
      "v": 127
    },
    {
      "midi": 67,
      "hit": false,
      "t": 315908.77500000066,
      "d": 454.5449999999837,
      "v": 127
    },
    {
      "midi": 51,
      "hit": false,
      "t": 316363.32000000094,
      "d": 454.5449999999837,
      "v": 127
    },
    {
      "midi": 51,
      "hit": false,
      "t": 316817.8650000009,
      "d": 454.5449999999837,
      "v": 127
    },
    {
      "midi": 60,
      "hit": false,
      "t": 317272.4100000009,
      "d": 454.5449999999837,
      "v": 127
    },
    {
      "midi": 58,
      "hit": false,
      "t": 317726.9550000009,
      "d": 454.5449999999837,
      "v": 127
    },
    {
      "midi": 56,
      "hit": false,
      "t": 318181.5000000009,
      "d": 909.0900000000256,
      "v": 127
    },
    {
      "midi": 56,
      "hit": false,
      "t": 318636.0450000006,
      "d": 1363.6350000000093,
      "v": 127
    },
    {
      "midi": 48,
      "hit": false,
      "t": 319090.5900000009,
      "d": 454.5449999999837,
      "v": 127
    },
    {
      "midi": 51,
      "hit": false,
      "t": 319545.1350000009,
      "d": 454.5449999999837,
      "v": 127
    },
    {
      "midi": 53,
      "hit": false,
      "t": 319999.68000000087,
      "d": 454.5449999999837,
      "v": 127
    },
    {
      "midi": 54,
      "hit": false,
      "t": 320454.22500000085,
      "d": 1363.6350000000093,
      "v": 127
    },
    {
      "midi": 56,
      "hit": false,
      "t": 320908.77000000066,
      "d": 454.5449999999837,
      "v": 127
    },
    {
      "midi": 56,
      "hit": false,
      "t": 321363.31500000064,
      "d": 454.5449999999837,
      "v": 127
    },
    {
      "midi": 68,
      "hit": false,
      "t": 321817.8600000006,
      "d": 454.5449999999837,
      "v": 127
    },
    {
      "midi": 68,
      "hit": false,
      "t": 322272.4050000006,
      "d": 1363.6350000000093,
      "v": 127
    },
    {
      "midi": 48,
      "hit": false,
      "t": 322726.9500000009,
      "d": 454.5449999999837,
      "v": 127
    },
    {
      "midi": 51,
      "hit": false,
      "t": 323181.49500000087,
      "d": 454.5449999999837,
      "v": 127
    },
    {
      "midi": 54,
      "hit": false,
      "t": 323636.04000000085,
      "d": 454.5449999999837,
      "v": 127
    },
    {
      "midi": 49,
      "hit": false,
      "t": 324090.58500000084,
      "d": 454.5449999999837,
      "v": 127
    },
    {
      "midi": 52,
      "hit": false,
      "t": 324545.1300000008,
      "d": 454.5449999999837,
      "v": 127
    },
    {
      "midi": 53,
      "hit": false,
      "t": 324999.6750000008,
      "d": 454.5449999999837,
      "v": 127
    },
    {
      "midi": 65,
      "hit": false,
      "t": 325454.2200000006,
      "d": 454.5449999999837,
      "v": 127
    },
    {
      "midi": 56,
      "hit": false,
      "t": 325454.2200000008,
      "d": 454.5449999999837,
      "v": 127
    },
    {
      "midi": 63,
      "hit": false,
      "t": 325908.7650000006,
      "d": 909.0900000000256,
      "v": 127
    },
    {
      "midi": 54,
      "hit": false,
      "t": 325908.76500000077,
      "d": 909.0900000000256,
      "v": 127
    },
    {
      "midi": 61,
      "hit": false,
      "t": 326817.8550000006,
      "d": 454.5449999999837,
      "v": 127
    },
    {
      "midi": 53,
      "hit": false,
      "t": 326817.8550000008,
      "d": 454.5449999999837,
      "v": 127
    },
    {
      "midi": 53,
      "hit": false,
      "t": 327272.4000000008,
      "d": 454.5449999999837,
      "v": 127
    },
    {
      "midi": 53,
      "hit": false,
      "t": 327726.94500000076,
      "d": 454.5449999999837,
      "v": 127
    },
    {
      "midi": 61,
      "hit": false,
      "t": 328181.49000000063,
      "d": 454.5449999999837,
      "v": 127
    },
    {
      "midi": 60,
      "hit": false,
      "t": 328636.0350000006,
      "d": 454.5449999999837,
      "v": 127
    },
    {
      "midi": 58,
      "hit": false,
      "t": 329090.5800000006,
      "d": 454.5449999999837,
      "v": 127
    },
    {
      "midi": 58,
      "hit": false,
      "t": 329545.1250000006,
      "d": 1363.6350000000093,
      "v": 127
    },
    {
      "midi": 50,
      "hit": false,
      "t": 329999.67000000074,
      "d": 454.5449999999837,
      "v": 127
    },
    {
      "midi": 53,
      "hit": false,
      "t": 330454.2150000007,
      "d": 454.5449999999837,
      "v": 127
    },
    {
      "midi": 55,
      "hit": false,
      "t": 330908.7600000007,
      "d": 454.5449999999837,
      "v": 127
    },
    {
      "midi": 56,
      "hit": false,
      "t": 331363.3050000007,
      "d": 1363.6350000000093,
      "v": 127
    },
    {
      "midi": 58,
      "hit": false,
      "t": 331817.8500000006,
      "d": 454.5449999999837,
      "v": 127
    },
    {
      "midi": 58,
      "hit": false,
      "t": 332272.3950000006,
      "d": 454.5449999999837,
      "v": 127
    },
    {
      "midi": 70,
      "hit": false,
      "t": 332726.9400000006,
      "d": 454.5449999999837,
      "v": 127
    },
    {
      "midi": 70,
      "hit": false,
      "t": 333181.48500000057,
      "d": 1363.6350000000093,
      "v": 127
    },
    {
      "midi": 50,
      "hit": false,
      "t": 333636.0300000007,
      "d": 454.5449999999837,
      "v": 127
    },
    {
      "midi": 53,
      "hit": false,
      "t": 334090.5750000007,
      "d": 454.5449999999837,
      "v": 127
    },
    {
      "midi": 56,
      "hit": false,
      "t": 334545.1200000007,
      "d": 454.5449999999837,
      "v": 127
    },
    {
      "midi": 51,
      "hit": false,
      "t": 334999.6650000007,
      "d": 454.5449999999837,
      "v": 127
    },
    {
      "midi": 54,
      "hit": false,
      "t": 335454.21000000066,
      "d": 454.5449999999837,
      "v": 127
    },
    {
      "midi": 55,
      "hit": false,
      "t": 335908.75500000064,
      "d": 454.5449999999837,
      "v": 127
    },
    {
      "midi": 67,
      "hit": false,
      "t": 336363.30000000057,
      "d": 454.5449999999837,
      "v": 127
    },
    {
      "midi": 58,
      "hit": false,
      "t": 336363.3000000006,
      "d": 454.5449999999837,
      "v": 127
    },
    {
      "midi": 65,
      "hit": false,
      "t": 336817.84500000055,
      "d": 909.0900000000256,
      "v": 127
    },
    {
      "midi": 56,
      "hit": false,
      "t": 336817.8450000006,
      "d": 909.0900000000256,
      "v": 127
    },
    {
      "midi": 63,
      "hit": false,
      "t": 337726.9350000006,
      "d": 454.5449999999837,
      "v": 127
    },
    {
      "midi": 55,
      "hit": false,
      "t": 337726.93500000064,
      "d": 454.5449999999837,
      "v": 127
    },
    {
      "midi": 63,
      "hit": false,
      "t": 338181.48000000056,
      "d": 454.5449999999837,
      "v": 127
    },
    {
      "midi": 55,
      "hit": false,
      "t": 338181.4800000006,
      "d": 454.5449999999837,
      "v": 127
    },
    {
      "midi": 63,
      "hit": false,
      "t": 338636.02500000055,
      "d": 454.5449999999837,
      "v": 127
    },
    {
      "midi": 55,
      "hit": false,
      "t": 338636.0250000006,
      "d": 454.5449999999837,
      "v": 127
    },
    {
      "midi": 65,
      "hit": false,
      "t": 339090.57000000053,
      "d": 454.5449999999837,
      "v": 127
    },
    {
      "midi": 56,
      "hit": false,
      "t": 339090.5700000006,
      "d": 454.5449999999837,
      "v": 127
    },
    {
      "midi": 65,
      "hit": false,
      "t": 339545.1150000005,
      "d": 454.5449999999837,
      "v": 127
    },
    {
      "midi": 56,
      "hit": false,
      "t": 339545.1150000006,
      "d": 454.5449999999837,
      "v": 127
    },
    {
      "midi": 67,
      "hit": false,
      "t": 339999.6600000005,
      "d": 454.5449999999837,
      "v": 127
    },
    {
      "midi": 58,
      "hit": false,
      "t": 339999.66000000056,
      "d": 454.5449999999837,
      "v": 127
    },
    {
      "midi": 67,
      "hit": false,
      "t": 340454.2050000005,
      "d": 909.0900000000256,
      "v": 127
    },
    {
      "midi": 58,
      "hit": false,
      "t": 340454.20500000054,
      "d": 454.5449999999837,
      "v": 127
    },
    {
      "midi": 39,
      "hit": false,
      "t": 340908.7500000005,
      "d": 454.5449999999837,
      "v": 127
    },
    {
      "midi": 68,
      "hit": false,
      "t": 341363.2950000005,
      "d": 454.5449999999837,
      "v": 127
    },
    {
      "midi": 60,
      "hit": false,
      "t": 341363.2950000005,
      "d": 454.5449999999837,
      "v": 127
    },
    {
      "midi": 65,
      "hit": false,
      "t": 341817.8400000005,
      "d": 454.5449999999837,
      "v": 127
    },
    {
      "midi": 56,
      "hit": false,
      "t": 341817.8400000005,
      "d": 454.5449999999837,
      "v": 127
    },
    {
      "midi": 65,
      "hit": false,
      "t": 342272.3850000005,
      "d": 454.5449999999837,
      "v": 127
    },
    {
      "midi": 56,
      "hit": false,
      "t": 342272.3850000005,
      "d": 454.5449999999837,
      "v": 127
    },
    {
      "midi": 67,
      "hit": false,
      "t": 342726.93000000046,
      "d": 454.5449999999837,
      "v": 127
    },
    {
      "midi": 58,
      "hit": false,
      "t": 342726.93000000046,
      "d": 454.5449999999837,
      "v": 127
    },
    {
      "midi": 67,
      "hit": false,
      "t": 343181.47500000044,
      "d": 454.5449999999837,
      "v": 127
    },
    {
      "midi": 58,
      "hit": false,
      "t": 343181.47500000044,
      "d": 454.5449999999837,
      "v": 127
    },
    {
      "midi": 68,
      "hit": false,
      "t": 343636.0200000004,
      "d": 454.5449999999837,
      "v": 127
    },
    {
      "midi": 60,
      "hit": false,
      "t": 343636.0200000004,
      "d": 454.5449999999837,
      "v": 127
    },
    {
      "midi": 68,
      "hit": false,
      "t": 344090.5650000004,
      "d": 909.0900000000256,
      "v": 127
    },
    {
      "midi": 60,
      "hit": false,
      "t": 344090.5650000004,
      "d": 454.5449999999837,
      "v": 127
    },
    {
      "midi": 39,
      "hit": false,
      "t": 344545.1100000004,
      "d": 454.5449999999837,
      "v": 127
    },
    {
      "midi": 61,
      "hit": false,
      "t": 344999.6550000004,
      "d": 454.5449999999837,
      "v": 127
    },
    {
      "midi": 70,
      "hit": false,
      "t": 344999.65500000044,
      "d": 454.5449999999837,
      "v": 127
    },
    {
      "midi": 58,
      "hit": false,
      "t": 345454.20000000036,
      "d": 454.5449999999837,
      "v": 127
    },
    {
      "midi": 67,
      "hit": false,
      "t": 345454.2000000004,
      "d": 454.5449999999837,
      "v": 127
    },
    {
      "midi": 58,
      "hit": false,
      "t": 345908.74500000034,
      "d": 454.5449999999837,
      "v": 127
    },
    {
      "midi": 67,
      "hit": false,
      "t": 345908.7450000004,
      "d": 454.5449999999837,
      "v": 127
    },
    {
      "midi": 59,
      "hit": false,
      "t": 346363.2900000003,
      "d": 454.5449999999837,
      "v": 127
    },
    {
      "midi": 68,
      "hit": false,
      "t": 346363.2900000004,
      "d": 454.5449999999837,
      "v": 127
    },
    {
      "midi": 59,
      "hit": false,
      "t": 346817.8350000003,
      "d": 454.5449999999837,
      "v": 127
    },
    {
      "midi": 68,
      "hit": false,
      "t": 346817.83500000037,
      "d": 454.5449999999837,
      "v": 127
    },
    {
      "midi": 60,
      "hit": false,
      "t": 347272.3800000003,
      "d": 454.5449999999837,
      "v": 127
    },
    {
      "midi": 69,
      "hit": false,
      "t": 347272.38000000035,
      "d": 454.5449999999837,
      "v": 127
    },
    {
      "midi": 60,
      "hit": false,
      "t": 347726.9250000003,
      "d": 454.5449999999837,
      "v": 127
    },
    {
      "midi": 69,
      "hit": false,
      "t": 347726.92500000034,
      "d": 454.5449999999837,
      "v": 127
    },
    {
      "midi": 61,
      "hit": false,
      "t": 348181.47000000026,
      "d": 454.5449999999837,
      "v": 127
    },
    {
      "midi": 70,
      "hit": false,
      "t": 348181.4700000003,
      "d": 454.5449999999837,
      "v": 127
    },
    {
      "midi": 61,
      "hit": false,
      "t": 348636.01500000025,
      "d": 454.5449999999837,
      "v": 127
    },
    {
      "midi": 70,
      "hit": false,
      "t": 348636.0150000003,
      "d": 454.5449999999837,
      "v": 127
    },
    {
      "midi": 62,
      "hit": false,
      "t": 349090.56000000023,
      "d": 454.5449999999837,
      "v": 127
    },
    {
      "midi": 71,
      "hit": false,
      "t": 349090.5600000003,
      "d": 454.5449999999837,
      "v": 127
    },
    {
      "midi": 63,
      "hit": false,
      "t": 349545.1050000002,
      "d": 909.0900000000256,
      "v": 127
    },
    {
      "midi": 71,
      "hit": false,
      "t": 349545.1050000003,
      "d": 454.5449999999837,
      "v": 127
    },
    {
      "midi": 72,
      "hit": false,
      "t": 349999.65000000026,
      "d": 909.0900000000256,
      "v": 127
    },
    {
      "midi": 59,
      "hit": false,
      "t": 350454.19500000024,
      "d": 454.5449999999837,
      "v": 127
    },
    {
      "midi": 74,
      "hit": false,
      "t": 350908.7400000003,
      "d": 909.0900000000256,
      "v": 127
    },
    {
      "midi": 60,
      "hit": false,
      "t": 351363.2850000002,
      "d": 909.0900000000256,
      "v": 127
    },
    {
      "midi": 75,
      "hit": false,
      "t": 351817.8300000003,
      "d": 909.0900000000256,
      "v": 127
    },
    {
      "midi": 55,
      "hit": false,
      "t": 352272.37500000023,
      "d": 454.5449999999837,
      "v": 127
    },
    {
      "midi": 58,
      "hit": false,
      "t": 352272.37500000023,
      "d": 454.5449999999837,
      "v": 127
    },
    {
      "midi": 76,
      "hit": false,
      "t": 352726.92000000033,
      "d": 909.0900000000256,
      "v": 127
    },
    {
      "midi": 56,
      "hit": false,
      "t": 353181.4650000002,
      "d": 909.0900000000256,
      "v": 127
    },
    {
      "midi": 60,
      "hit": false,
      "t": 353181.4650000002,
      "d": 909.0900000000256,
      "v": 127
    },
    {
      "midi": 77,
      "hit": false,
      "t": 353636.01000000036,
      "d": 909.0900000000256,
      "v": 127
    },
    {
      "midi": 52,
      "hit": false,
      "t": 354090.5550000002,
      "d": 454.5449999999837,
      "v": 127
    },
    {
      "midi": 60,
      "hit": false,
      "t": 354090.5550000002,
      "d": 454.5449999999837,
      "v": 127
    },
    {
      "midi": 79,
      "hit": false,
      "t": 354545.1000000004,
      "d": 909.0900000000256,
      "v": 127
    },
    {
      "midi": 53,
      "hit": false,
      "t": 354999.6450000002,
      "d": 909.0900000000256,
      "v": 127
    },
    {
      "midi": 60,
      "hit": false,
      "t": 354999.6450000002,
      "d": 909.0900000000256,
      "v": 127
    },
    {
      "midi": 80,
      "hit": false,
      "t": 355454.1900000004,
      "d": 909.0900000000256,
      "v": 127
    },
    {
      "midi": 55,
      "hit": false,
      "t": 355908.7350000002,
      "d": 454.5449999999837,
      "v": 127
    },
    {
      "midi": 83,
      "hit": false,
      "t": 356363.28000000044,
      "d": 909.0900000000256,
      "v": 127
    },
    {
      "midi": 56,
      "hit": false,
      "t": 356817.8250000002,
      "d": 1363.6350000000093,
      "v": 127
    },
    {
      "midi": 84,
      "hit": false,
      "t": 357272.37000000046,
      "d": 454.5449999999837,
      "v": 127
    },
    {
      "midi": 82,
      "hit": false,
      "t": 357726.91500000044,
      "d": 227.27250000002095,
      "v": 127
    },
    {
      "midi": 80,
      "hit": false,
      "t": 357954.18750000047,
      "d": 227.27250000002095,
      "v": 127
    },
    {
      "midi": 79,
      "hit": false,
      "t": 358181.4600000005,
      "d": 227.27250000002095,
      "v": 127
    },
    {
      "midi": 77,
      "hit": false,
      "t": 358408.7325000005,
      "d": 227.27250000002095,
      "v": 127
    },
    {
      "midi": 75,
      "hit": false,
      "t": 358636.0050000005,
      "d": 909.0900000000256,
      "v": 127
    },
    {
      "midi": 46,
      "hit": false,
      "t": 359090.5500000002,
      "d": 454.5449999999837,
      "v": 127
    },
    {
      "midi": 58,
      "hit": false,
      "t": 359545.0950000002,
      "d": 454.5449999999837,
      "v": 127
    },
    {
      "midi": 74,
      "hit": false,
      "t": 359545.09500000055,
      "d": 454.5449999999837,
      "v": 127
    },
    {
      "midi": 70,
      "hit": false,
      "t": 359999.64000000054,
      "d": 454.5449999999837,
      "v": 127
    },
    {
      "midi": 82,
      "hit": false,
      "t": 359999.64000000054,
      "d": 454.5449999999837,
      "v": 127
    },
    {
      "midi": 70,
      "hit": false,
      "t": 360454.1850000005,
      "d": 1363.6350000000093,
      "v": 127
    },
    {
      "midi": 82,
      "hit": false,
      "t": 360454.1850000005,
      "d": 1363.6350000000093,
      "v": 127
    },
    {
      "midi": 44,
      "hit": false,
      "t": 360908.7300000002,
      "d": 454.5449999999837,
      "v": 127
    },
    {
      "midi": 56,
      "hit": false,
      "t": 360908.7300000002,
      "d": 454.5449999999837,
      "v": 127
    },
    {
      "midi": 44,
      "hit": false,
      "t": 361363.2750000002,
      "d": 454.5449999999837,
      "v": 127
    },
    {
      "midi": 56,
      "hit": false,
      "t": 361363.2750000002,
      "d": 454.5449999999837,
      "v": 127
    },
    {
      "midi": 74,
      "hit": false,
      "t": 361817.82000000053,
      "d": 454.5449999999837,
      "v": 127
    },
    {
      "midi": 86,
      "hit": false,
      "t": 361817.82000000053,
      "d": 454.5449999999837,
      "v": 127
    },
    {
      "midi": 74,
      "hit": false,
      "t": 362272.3650000005,
      "d": 1363.6350000000093,
      "v": 127
    },
    {
      "midi": 86,
      "hit": false,
      "t": 362272.3650000005,
      "d": 1363.6350000000093,
      "v": 127
    },
    {
      "midi": 44,
      "hit": false,
      "t": 362726.9100000002,
      "d": 454.5449999999837,
      "v": 127
    },
    {
      "midi": 56,
      "hit": false,
      "t": 362726.9100000002,
      "d": 454.5449999999837,
      "v": 127
    },
    {
      "midi": 44,
      "hit": false,
      "t": 363181.4550000002,
      "d": 454.5449999999837,
      "v": 127
    },
    {
      "midi": 56,
      "hit": false,
      "t": 363181.4550000002,
      "d": 454.5449999999837,
      "v": 127
    },
    {
      "midi": 58,
      "hit": false,
      "t": 363636.0000000005,
      "d": 454.5449999999837,
      "v": 127
    },
    {
      "midi": 70,
      "hit": false,
      "t": 363636.0000000005,
      "d": 454.5449999999837,
      "v": 127
    },
    {
      "midi": 58,
      "hit": false,
      "t": 364090.5450000005,
      "d": 1363.6350000000093,
      "v": 127
    },
    {
      "midi": 70,
      "hit": false,
      "t": 364090.5450000005,
      "d": 1363.6350000000093,
      "v": 127
    },
    {
      "midi": 44,
      "hit": false,
      "t": 364545.0900000002,
      "d": 454.5449999999837,
      "v": 127
    },
    {
      "midi": 56,
      "hit": false,
      "t": 364545.0900000002,
      "d": 454.5449999999837,
      "v": 127
    },
    {
      "midi": 44,
      "hit": false,
      "t": 364999.6350000002,
      "d": 454.5449999999837,
      "v": 127
    },
    {
      "midi": 56,
      "hit": false,
      "t": 364999.6350000002,
      "d": 454.5449999999837,
      "v": 127
    },
    {
      "midi": 77,
      "hit": false,
      "t": 365454.1800000005,
      "d": 454.5449999999837,
      "v": 127
    },
    {
      "midi": 89,
      "hit": false,
      "t": 365454.1800000005,
      "d": 454.5449999999837,
      "v": 127
    },
    {
      "midi": 77,
      "hit": false,
      "t": 365908.7250000005,
      "d": 1363.6350000000093,
      "v": 127
    },
    {
      "midi": 89,
      "hit": false,
      "t": 365908.7250000005,
      "d": 1363.6350000000093,
      "v": 127
    },
    {
      "midi": 72,
      "hit": false,
      "t": 366817.8150000002,
      "d": 454.5449999999837,
      "v": 127
    },
    {
      "midi": 70,
      "hit": false,
      "t": 367726.90500000014,
      "d": 909.0900000000256,
      "v": 127
    },
    {
      "midi": 62,
      "hit": false,
      "t": 368635.99500000017,
      "d": 454.5449999999837,
      "v": 127
    },
    {
      "midi": 68,
      "hit": false,
      "t": 368635.99500000017,
      "d": 454.5449999999837,
      "v": 127
    },
    {
      "midi": 70,
      "hit": false,
      "t": 369090.5400000005,
      "d": 454.5449999999837,
      "v": 127
    },
    {
      "midi": 63,
      "hit": false,
      "t": 369545.08500000014,
      "d": 1363.6350000000093,
      "v": 127
    },
    {
      "midi": 67,
      "hit": false,
      "t": 369545.08500000014,
      "d": 1363.6350000000093,
      "v": 127
    },
    {
      "midi": 70,
      "hit": false,
      "t": 369545.0850000005,
      "d": 454.5449999999837,
      "v": 127
    },
    {
      "midi": 79,
      "hit": false,
      "t": 369999.63000000047,
      "d": 454.5449999999837,
      "v": 127
    },
    {
      "midi": 77,
      "hit": false,
      "t": 370454.17500000045,
      "d": 454.5449999999837,
      "v": 127
    },
    {
      "midi": 75,
      "hit": false,
      "t": 370908.72000000044,
      "d": 454.5449999999837,
      "v": 127
    },
    {
      "midi": 53,
      "hit": false,
      "t": 371363.26500000013,
      "d": 909.0900000000256,
      "v": 127
    },
    {
      "midi": 75,
      "hit": false,
      "t": 371363.2650000004,
      "d": 909.0900000000256,
      "v": 127
    },
    {
      "midi": 53,
      "hit": false,
      "t": 372272.35500000016,
      "d": 454.5449999999837,
      "v": 127
    },
    {
      "midi": 74,
      "hit": false,
      "t": 372272.35500000045,
      "d": 454.5449999999837,
      "v": 127
    },
    {
      "midi": 68,
      "hit": false,
      "t": 372726.90000000043,
      "d": 454.5449999999837,
      "v": 127
    },
    {
      "midi": 53,
      "hit": false,
      "t": 373181.4450000001,
      "d": 909.0900000000256,
      "v": 127
    },
    {
      "midi": 68,
      "hit": false,
      "t": 373181.4450000004,
      "d": 454.5449999999837,
      "v": 127
    },
    {
      "midi": 80,
      "hit": false,
      "t": 373635.9900000004,
      "d": 454.5449999999837,
      "v": 127
    },
    {
      "midi": 53,
      "hit": false,
      "t": 374090.53500000015,
      "d": 454.5449999999837,
      "v": 127
    },
    {
      "midi": 79,
      "hit": false,
      "t": 374090.5350000004,
      "d": 454.5449999999837,
      "v": 127
    },
    {
      "midi": 77,
      "hit": false,
      "t": 374545.08000000037,
      "d": 454.5449999999837,
      "v": 127
    },
    {
      "midi": 55,
      "hit": false,
      "t": 374999.6250000001,
      "d": 909.0900000000256,
      "v": 127
    },
    {
      "midi": 77,
      "hit": false,
      "t": 374999.62500000035,
      "d": 909.0900000000256,
      "v": 127
    },
    {
      "midi": 55,
      "hit": false,
      "t": 375908.71500000014,
      "d": 454.5449999999837,
      "v": 127
    },
    {
      "midi": 75,
      "hit": false,
      "t": 375908.7150000004,
      "d": 454.5449999999837,
      "v": 127
    },
    {
      "midi": 70,
      "hit": false,
      "t": 376363.26000000036,
      "d": 454.5449999999837,
      "v": 127
    },
    {
      "midi": 55,
      "hit": false,
      "t": 376817.8050000001,
      "d": 909.0900000000256,
      "v": 127
    },
    {
      "midi": 70,
      "hit": false,
      "t": 376817.80500000034,
      "d": 454.5449999999837,
      "v": 127
    },
    {
      "midi": 82,
      "hit": false,
      "t": 377272.3500000003,
      "d": 454.5449999999837,
      "v": 127
    },
    {
      "midi": 55,
      "hit": false,
      "t": 377726.89500000014,
      "d": 454.5449999999837,
      "v": 127
    },
    {
      "midi": 80,
      "hit": false,
      "t": 377726.8950000003,
      "d": 454.5449999999837,
      "v": 127
    },
    {
      "midi": 79,
      "hit": false,
      "t": 378181.4400000003,
      "d": 454.5449999999837,
      "v": 127
    },
    {
      "midi": 56,
      "hit": false,
      "t": 378635.9850000001,
      "d": 909.0900000000256,
      "v": 127
    },
    {
      "midi": 79,
      "hit": false,
      "t": 378635.9850000003,
      "d": 454.5449999999837,
      "v": 127
    },
    {
      "midi": 76,
      "hit": false,
      "t": 379090.53000000026,
      "d": 454.5449999999837,
      "v": 127
    },
    {
      "midi": 56,
      "hit": false,
      "t": 379545.0750000001,
      "d": 454.5449999999837,
      "v": 127
    },
    {
      "midi": 77,
      "hit": false,
      "t": 379545.07500000024,
      "d": 454.5449999999837,
      "v": 127
    },
    {
      "midi": 84,
      "hit": false,
      "t": 379999.6200000002,
      "d": 454.5449999999837,
      "v": 127
    },
    {
      "midi": 56,
      "hit": false,
      "t": 380454.1650000001,
      "d": 909.0900000000256,
      "v": 127
    },
    {
      "midi": 82,
      "hit": false,
      "t": 380454.1650000002,
      "d": 454.5449999999837,
      "v": 127
    },
    {
      "midi": 72,
      "hit": false,
      "t": 380908.7100000002,
      "d": 454.5449999999837,
      "v": 127
    },
    {
      "midi": 80,
      "hit": false,
      "t": 380908.7100000002,
      "d": 454.5449999999837,
      "v": 127
    },
    {
      "midi": 56,
      "hit": false,
      "t": 381363.2550000001,
      "d": 454.5449999999837,
      "v": 127
    },
    {
      "midi": 70,
      "hit": false,
      "t": 381363.2550000002,
      "d": 454.5449999999837,
      "v": 127
    },
    {
      "midi": 79,
      "hit": false,
      "t": 381363.2550000002,
      "d": 454.5449999999837,
      "v": 127
    },
    {
      "midi": 68,
      "hit": false,
      "t": 381817.80000000016,
      "d": 454.5449999999837,
      "v": 127
    },
    {
      "midi": 77,
      "hit": false,
      "t": 381817.80000000016,
      "d": 454.5449999999837,
      "v": 127
    },
    {
      "midi": 58,
      "hit": false,
      "t": 382272.3450000001,
      "d": 1363.6350000000093,
      "v": 127
    },
    {
      "midi": 67,
      "hit": false,
      "t": 382272.34500000015,
      "d": 909.0900000000256,
      "v": 127
    },
    {
      "midi": 75,
      "hit": false,
      "t": 382272.34500000015,
      "d": 909.0900000000256,
      "v": 127
    },
    {
      "midi": 65,
      "hit": false,
      "t": 383181.4350000002,
      "d": 454.5449999999837,
      "v": 127
    },
    {
      "midi": 74,
      "hit": false,
      "t": 383181.4350000002,
      "d": 454.5449999999837,
      "v": 127
    },
    {
      "midi": 34,
      "hit": false,
      "t": 383635.9800000001,
      "d": 454.5449999999837,
      "v": 127
    },
    {
      "midi": 46,
      "hit": false,
      "t": 383635.9800000001,
      "d": 454.5449999999837,
      "v": 127
    },
    {
      "midi": 34,
      "hit": false,
      "t": 384090.5250000001,
      "d": 454.5449999999837,
      "v": 127
    },
    {
      "midi": 46,
      "hit": false,
      "t": 384090.5250000001,
      "d": 454.5449999999837,
      "v": 127
    },
    {
      "midi": 70,
      "hit": false,
      "t": 384545.0700000002,
      "d": 454.5449999999837,
      "v": 127
    },
    {
      "midi": 79,
      "hit": false,
      "t": 384545.0700000002,
      "d": 454.5449999999837,
      "v": 127
    },
    {
      "midi": 68,
      "hit": false,
      "t": 384999.61500000017,
      "d": 454.5449999999837,
      "v": 127
    },
    {
      "midi": 77,
      "hit": false,
      "t": 384999.61500000017,
      "d": 454.5449999999837,
      "v": 127
    },
    {
      "midi": 67,
      "hit": false,
      "t": 385454.16000000015,
      "d": 454.5449999999837,
      "v": 127
    },
    {
      "midi": 75,
      "hit": false,
      "t": 385454.16000000015,
      "d": 454.5449999999837,
      "v": 127
    },
    {
      "midi": 67,
      "hit": false,
      "t": 385908.70500000013,
      "d": 909.0900000000256,
      "v": 127
    },
    {
      "midi": 75,
      "hit": false,
      "t": 385908.70500000013,
      "d": 909.0900000000256,
      "v": 127
    },
    {
      "midi": 57,
      "hit": false,
      "t": 386363.25000000006,
      "d": 454.5449999999837,
      "v": 127
    },
    {
      "midi": 58,
      "hit": false,
      "t": 386817.79500000004,
      "d": 454.5449999999837,
      "v": 127
    },
    {
      "midi": 65,
      "hit": false,
      "t": 386817.79500000016,
      "d": 454.5449999999837,
      "v": 127
    },
    {
      "midi": 74,
      "hit": false,
      "t": 386817.79500000016,
      "d": 454.5449999999837,
      "v": 127
    },
    {
      "midi": 34,
      "hit": false,
      "t": 387272.34,
      "d": 454.5449999999837,
      "v": 127
    },
    {
      "midi": 46,
      "hit": false,
      "t": 387272.34,
      "d": 454.5449999999837,
      "v": 127
    },
    {
      "midi": 34,
      "hit": false,
      "t": 387726.885,
      "d": 454.5449999999837,
      "v": 127
    },
    {
      "midi": 46,
      "hit": false,
      "t": 387726.885,
      "d": 454.5449999999837,
      "v": 127
    },
    {
      "midi": 72,
      "hit": false,
      "t": 388181.43000000017,
      "d": 454.5449999999837,
      "v": 127
    },
    {
      "midi": 80,
      "hit": false,
      "t": 388181.43000000017,
      "d": 454.5449999999837,
      "v": 127
    },
    {
      "midi": 70,
      "hit": false,
      "t": 388635.97500000015,
      "d": 454.5449999999837,
      "v": 127
    },
    {
      "midi": 79,
      "hit": false,
      "t": 388635.97500000015,
      "d": 454.5449999999837,
      "v": 127
    },
    {
      "midi": 68,
      "hit": false,
      "t": 389090.52000000014,
      "d": 454.5449999999837,
      "v": 127
    },
    {
      "midi": 77,
      "hit": false,
      "t": 389090.52000000014,
      "d": 454.5449999999837,
      "v": 127
    },
    {
      "midi": 68,
      "hit": false,
      "t": 389545.0650000001,
      "d": 909.0900000000256,
      "v": 127
    },
    {
      "midi": 77,
      "hit": false,
      "t": 389545.0650000001,
      "d": 909.0900000000256,
      "v": 127
    },
    {
      "midi": 62,
      "hit": false,
      "t": 389999.61,
      "d": 454.5449999999837,
      "v": 127
    },
    {
      "midi": 63,
      "hit": false,
      "t": 390454.15499999997,
      "d": 454.5449999999837,
      "v": 127
    },
    {
      "midi": 67,
      "hit": false,
      "t": 390454.15500000014,
      "d": 454.5449999999837,
      "v": 127
    },
    {
      "midi": 75,
      "hit": false,
      "t": 390454.15500000014,
      "d": 454.5449999999837,
      "v": 127
    },
    {
      "midi": 32,
      "hit": false,
      "t": 390908.69999999995,
      "d": 454.5449999999837,
      "v": 127
    },
    {
      "midi": 44,
      "hit": false,
      "t": 390908.69999999995,
      "d": 454.5449999999837,
      "v": 127
    },
    {
      "midi": 56,
      "hit": false,
      "t": 390908.7000000001,
      "d": 454.5449999999837,
      "v": 127
    },
    {
      "midi": 32,
      "hit": false,
      "t": 391363.24499999994,
      "d": 454.5449999999837,
      "v": 127
    },
    {
      "midi": 44,
      "hit": false,
      "t": 391363.24499999994,
      "d": 454.5449999999837,
      "v": 127
    },
    {
      "midi": 56,
      "hit": false,
      "t": 391363.2450000001,
      "d": 454.5449999999837,
      "v": 127
    },
    {
      "midi": 32,
      "hit": false,
      "t": 391817.7899999999,
      "d": 454.5449999999837,
      "v": 127
    },
    {
      "midi": 44,
      "hit": false,
      "t": 391817.7899999999,
      "d": 454.5449999999837,
      "v": 127
    },
    {
      "midi": 56,
      "hit": false,
      "t": 391817.7900000001,
      "d": 454.5449999999837,
      "v": 127
    },
    {
      "midi": 32,
      "hit": false,
      "t": 392272.3349999999,
      "d": 454.5449999999837,
      "v": 127
    },
    {
      "midi": 44,
      "hit": false,
      "t": 392272.3349999999,
      "d": 454.5449999999837,
      "v": 127
    },
    {
      "midi": 56,
      "hit": false,
      "t": 392272.3350000001,
      "d": 454.5449999999837,
      "v": 127
    },
    {
      "midi": 32,
      "hit": false,
      "t": 392726.8799999999,
      "d": 454.5449999999837,
      "v": 127
    },
    {
      "midi": 44,
      "hit": false,
      "t": 392726.8799999999,
      "d": 454.5449999999837,
      "v": 127
    },
    {
      "midi": 56,
      "hit": false,
      "t": 392726.88000000006,
      "d": 454.5449999999837,
      "v": 127
    },
    {
      "midi": 56,
      "hit": false,
      "t": 393181.4249999999,
      "d": 909.0900000000256,
      "v": 127
    },
    {
      "midi": 62,
      "hit": false,
      "t": 393181.4249999999,
      "d": 909.0900000000256,
      "v": 127
    },
    {
      "midi": 65,
      "hit": false,
      "t": 393181.4249999999,
      "d": 909.0900000000256,
      "v": 127
    },
    {
      "midi": 74,
      "hit": false,
      "t": 393181.42500000005,
      "d": 909.0900000000256,
      "v": 127
    },
    {
      "midi": 77,
      "hit": false,
      "t": 393181.42500000005,
      "d": 909.0900000000256,
      "v": 127
    },
    {
      "midi": 84,
      "hit": false,
      "t": 393181.42500000005,
      "d": 909.0900000000256,
      "v": 127
    },
    {
      "midi": 56,
      "hit": false,
      "t": 394090.5149999999,
      "d": 454.5449999999837,
      "v": 127
    },
    {
      "midi": 58,
      "hit": false,
      "t": 394090.5149999999,
      "d": 454.5449999999837,
      "v": 127
    },
    {
      "midi": 65,
      "hit": false,
      "t": 394090.5149999999,
      "d": 454.5449999999837,
      "v": 127
    },
    {
      "midi": 74,
      "hit": false,
      "t": 394090.5150000001,
      "d": 454.5449999999837,
      "v": 127
    },
    {
      "midi": 55,
      "hit": false,
      "t": 394999.60499999986,
      "d": 454.5449999999837,
      "v": 127
    },
    {
      "midi": 75,
      "hit": false,
      "t": 394999.60500000004,
      "d": 227.27250000002095,
      "v": 127
    },
    {
      "midi": 70,
      "hit": false,
      "t": 395226.87750000006,
      "d": 227.27250000002095,
      "v": 127
    },
    {
      "midi": 56,
      "hit": false,
      "t": 395454.14999999985,
      "d": 454.5449999999837,
      "v": 127
    },
    {
      "midi": 72,
      "hit": false,
      "t": 395454.1500000001,
      "d": 227.27250000002095,
      "v": 127
    },
    {
      "midi": 68,
      "hit": false,
      "t": 395681.4225000001,
      "d": 227.27250000002095,
      "v": 127
    },
    {
      "midi": 58,
      "hit": false,
      "t": 395908.69499999983,
      "d": 454.5449999999837,
      "v": 127
    },
    {
      "midi": 67,
      "hit": false,
      "t": 395908.6950000001,
      "d": 454.5449999999837,
      "v": 127
    },
    {
      "midi": 46,
      "hit": false,
      "t": 396363.2399999998,
      "d": 454.5449999999837,
      "v": 127
    },
    {
      "midi": 65,
      "hit": false,
      "t": 396363.2400000001,
      "d": 454.5449999999837,
      "v": 127
    },
    {
      "midi": 51,
      "hit": false,
      "t": 396817.7849999998,
      "d": 454.5449999999837,
      "v": 127
    },
    {
      "midi": 63,
      "hit": false,
      "t": 396817.7850000001,
      "d": 909.0900000000256,
      "v": 127
    },
    {
      "midi": 46,
      "hit": false,
      "t": 397272.3299999998,
      "d": 454.5449999999837,
      "v": 127
    },
    {
      "midi": 39,
      "hit": false,
      "t": 397726.87499999977,
      "d": 454.5449999999837,
      "v": 127
    },
    {
      "midi": 58,
      "hit": false,
      "t": 398181.4200000001,
      "d": 454.5449999999837,
      "v": 127
    },
    {
      "midi": 58,
      "hit": false,
      "t": 398635.9650000001,
      "d": 454.5449999999837,
      "v": 127
    },
    {
      "midi": 63,
      "hit": false,
      "t": 399090.51000000007,
      "d": 454.5449999999837,
      "v": 127
    },
    {
      "midi": 62,
      "hit": false,
      "t": 399545.05500000005,
      "d": 454.5449999999837,
      "v": 127
    },
    {
      "midi": 67,
      "hit": false,
      "t": 399999.60000000003,
      "d": 454.5449999999837,
      "v": 127
    },
    {
      "midi": 65,
      "hit": false,
      "t": 400454.145,
      "d": 454.5449999999837,
      "v": 127
    },
    {
      "midi": 63,
      "hit": false,
      "t": 400908.69,
      "d": 454.5449999999837,
      "v": 127
    },
    {
      "midi": 62,
      "hit": false,
      "t": 401363.235,
      "d": 454.5449999999837,
      "v": 127
    },
    {
      "midi": 65,
      "hit": false,
      "t": 401817.77999999997,
      "d": 454.5449999999837,
      "v": 127
    },
    {
      "midi": 63,
      "hit": false,
      "t": 402272.32499999995,
      "d": 227.27250000002095,
      "v": 127
    },
    {
      "midi": 62,
      "hit": false,
      "t": 402499.5975,
      "d": 227.27250000002095,
      "v": 127
    },
    {
      "midi": 60,
      "hit": false,
      "t": 402954.1425,
      "d": 227.27250000002095,
      "v": 127
    },
    {
      "midi": 58,
      "hit": false,
      "t": 403181.41500000004,
      "d": 227.27250000002095,
      "v": 127
    },
    {
      "midi": 55,
      "hit": false,
      "t": 403408.68750000006,
      "d": 227.27250000002095,
      "v": 127
    },
    {
      "midi": 53,
      "hit": false,
      "t": 403863.2325000001,
      "d": 227.27250000002095,
      "v": 127
    },
    {
      "midi": 58,
      "hit": false,
      "t": 404090.5050000001,
      "d": 1363.6350000000093,
      "v": 127
    },
    {
      "midi": 41,
      "hit": false,
      "t": 404999.59499999974,
      "d": 454.5449999999837,
      "v": 127
    },
    {
      "midi": 41,
      "hit": false,
      "t": 405908.6849999997,
      "d": 1363.6350000000093,
      "v": 127
    },
    {
      "midi": 50,
      "hit": false,
      "t": 405908.6849999997,
      "d": 1363.6350000000093,
      "v": 127
    },
    {
      "midi": 56,
      "hit": false,
      "t": 405908.6850000001,
      "d": 1363.6350000000093,
      "v": 127
    },
    {
      "midi": 56,
      "hit": false,
      "t": 407272.3200000001,
      "d": 454.5449999999837,
      "v": 127
    },
    {
      "midi": 56,
      "hit": false,
      "t": 407726.8650000001,
      "d": 454.5449999999837,
      "v": 127
    },
    {
      "midi": 65,
      "hit": false,
      "t": 408181.4100000001,
      "d": 454.5449999999837,
      "v": 127
    },
    {
      "midi": 63,
      "hit": false,
      "t": 408635.9550000001,
      "d": 454.5449999999837,
      "v": 127
    },
    {
      "midi": 62,
      "hit": false,
      "t": 409090.50000000006,
      "d": 454.5449999999837,
      "v": 127
    },
    {
      "midi": 70,
      "hit": false,
      "t": 409545.04500000004,
      "d": 454.5449999999837,
      "v": 127
    },
    {
      "midi": 68,
      "hit": false,
      "t": 409999.59,
      "d": 454.5449999999837,
      "v": 127
    },
    {
      "midi": 67,
      "hit": false,
      "t": 410454.135,
      "d": 454.5449999999837,
      "v": 127
    },
    {
      "midi": 65,
      "hit": false,
      "t": 410908.68,
      "d": 454.5449999999837,
      "v": 127
    },
    {
      "midi": 63,
      "hit": false,
      "t": 411363.225,
      "d": 227.27250000002095,
      "v": 127
    },
    {
      "midi": 62,
      "hit": false,
      "t": 411590.4975,
      "d": 227.27250000002095,
      "v": 127
    },
    {
      "midi": 60,
      "hit": false,
      "t": 412045.04250000004,
      "d": 227.27250000002095,
      "v": 127
    },
    {
      "midi": 58,
      "hit": false,
      "t": 412272.3149999997,
      "d": 227.27250000002095,
      "v": 127
    },
    {
      "midi": 56,
      "hit": false,
      "t": 412499.58749999973,
      "d": 227.27250000002095,
      "v": 127
    },
    {
      "midi": 55,
      "hit": false,
      "t": 412954.1324999998,
      "d": 227.27250000002095,
      "v": 127
    },
    {
      "midi": 53,
      "hit": false,
      "t": 413181.4049999998,
      "d": 909.0900000000256,
      "v": 127
    },
    {
      "midi": 43,
      "hit": false,
      "t": 414090.4949999998,
      "d": 454.5449999999837,
      "v": 127
    },
    {
      "midi": 51,
      "hit": false,
      "t": 414999.5849999998,
      "d": 909.0900000000256,
      "v": 127
    },
    {
      "midi": 51,
      "hit": false,
      "t": 415908.6749999998,
      "d": 454.5449999999837,
      "v": 127
    },
    {
      "midi": 58,
      "hit": false,
      "t": 416363.2200000001,
      "d": 454.5449999999837,
      "v": 127
    },
    {
      "midi": 43,
      "hit": false,
      "t": 416817.7649999998,
      "d": 1363.6350000000093,
      "v": 127
    },
    {
      "midi": 58,
      "hit": false,
      "t": 416817.7650000001,
      "d": 454.5449999999837,
      "v": 127
    },
    {
      "midi": 70,
      "hit": false,
      "t": 417272.31000000006,
      "d": 454.5449999999837,
      "v": 127
    },
    {
      "midi": 68,
      "hit": false,
      "t": 417726.85500000004,
      "d": 454.5449999999837,
      "v": 127
    },
    {
      "midi": 67,
      "hit": false,
      "t": 418181.4,
      "d": 454.5449999999837,
      "v": 127
    },
    {
      "midi": 44,
      "hit": false,
      "t": 418635.9449999998,
      "d": 1363.6350000000093,
      "v": 127
    },
    {
      "midi": 67,
      "hit": false,
      "t": 418635.945,
      "d": 454.5449999999837,
      "v": 127
    },
    {
      "midi": 64,
      "hit": false,
      "t": 419090.49,
      "d": 454.5449999999837,
      "v": 127
    },
    {
      "midi": 65,
      "hit": false,
      "t": 419545.035,
      "d": 454.5449999999837,
      "v": 127
    },
    {
      "midi": 53,
      "hit": false,
      "t": 420454.12499999977,
      "d": 1363.6350000000093,
      "v": 127
    },
    {
      "midi": 60,
      "hit": false,
      "t": 420454.12499999994,
      "d": 454.5449999999837,
      "v": 127
    },
    {
      "midi": 72,
      "hit": false,
      "t": 420908.6699999999,
      "d": 454.5449999999837,
      "v": 127
    },
    {
      "midi": 70,
      "hit": false,
      "t": 421363.2149999999,
      "d": 454.5449999999837,
      "v": 127
    },
    {
      "midi": 68,
      "hit": false,
      "t": 421817.7599999999,
      "d": 454.5449999999837,
      "v": 127
    },
    {
      "midi": 46,
      "hit": false,
      "t": 422272.30499999976,
      "d": 1363.6350000000093,
      "v": 127
    },
    {
      "midi": 68,
      "hit": false,
      "t": 422272.3049999999,
      "d": 454.5449999999837,
      "v": 127
    },
    {
      "midi": 66,
      "hit": false,
      "t": 422726.84999999986,
      "d": 454.5449999999837,
      "v": 127
    },
    {
      "midi": 67,
      "hit": false,
      "t": 423181.39499999984,
      "d": 454.5449999999837,
      "v": 127
    },
    {
      "midi": 55,
      "hit": false,
      "t": 424090.48499999975,
      "d": 1363.6350000000093,
      "v": 127
    },
    {
      "midi": 61,
      "hit": false,
      "t": 424090.4849999998,
      "d": 454.5449999999837,
      "v": 127
    },
    {
      "midi": 73,
      "hit": false,
      "t": 424545.0299999998,
      "d": 454.5449999999837,
      "v": 127
    },
    {
      "midi": 72,
      "hit": false,
      "t": 424999.5749999998,
      "d": 454.5449999999837,
      "v": 127
    },
    {
      "midi": 70,
      "hit": false,
      "t": 425454.11999999976,
      "d": 454.5449999999837,
      "v": 127
    },
    {
      "midi": 70,
      "hit": false,
      "t": 425908.66499999975,
      "d": 454.5449999999837,
      "v": 127
    },
    {
      "midi": 48,
      "hit": false,
      "t": 425908.66499999975,
      "d": 1363.6350000000093,
      "v": 127
    },
    {
      "midi": 51,
      "hit": false,
      "t": 425908.66499999975,
      "d": 1363.6350000000093,
      "v": 127
    },
    {
      "midi": 67,
      "hit": false,
      "t": 426363.20999999973,
      "d": 454.5449999999837,
      "v": 127
    },
    {
      "midi": 70,
      "hit": false,
      "t": 426817.7549999997,
      "d": 454.5449999999837,
      "v": 127
    },
    {
      "midi": 68,
      "hit": false,
      "t": 427272.2999999997,
      "d": 454.5449999999837,
      "v": 127
    },
    {
      "midi": 67,
      "hit": false,
      "t": 427726.8449999997,
      "d": 454.5449999999837,
      "v": 127
    },
    {
      "midi": 44,
      "hit": false,
      "t": 427726.84499999974,
      "d": 1363.6350000000093,
      "v": 127
    },
    {
      "midi": 48,
      "hit": false,
      "t": 427726.84499999974,
      "d": 1363.6350000000093,
      "v": 127
    },
    {
      "midi": 65,
      "hit": false,
      "t": 428181.38999999966,
      "d": 454.5449999999837,
      "v": 127
    },
    {
      "midi": 71,
      "hit": false,
      "t": 428635.93499999965,
      "d": 454.5449999999837,
      "v": 127
    },
    {
      "midi": 72,
      "hit": false,
      "t": 429090.47999999963,
      "d": 454.5449999999837,
      "v": 127
    },
    {
      "midi": 63,
      "hit": false,
      "t": 429545.0249999996,
      "d": 909.0900000000256,
      "v": 127
    },
    {
      "midi": 46,
      "hit": false,
      "t": 429545.02499999973,
      "d": 1363.6350000000093,
      "v": 127
    },
    {
      "midi": 62,
      "hit": false,
      "t": 430454.11499999964,
      "d": 454.5449999999837,
      "v": 127
    },
    {
      "midi": 67,
      "hit": false,
      "t": 430908.6599999996,
      "d": 454.5449999999837,
      "v": 127
    },
    {
      "midi": 67,
      "hit": false,
      "t": 431363.2049999996,
      "d": 227.27250000002095,
      "v": 127
    },
    {
      "midi": 70,
      "hit": false,
      "t": 431363.2049999996,
      "d": 227.27250000002095,
      "v": 127
    },
    {
      "midi": 39,
      "hit": false,
      "t": 431363.2049999997,
      "d": 1363.6350000000093,
      "v": 127
    },
    {
      "midi": 67,
      "hit": false,
      "t": 431590.47749999963,
      "d": 227.27250000002095,
      "v": 127
    },
    {
      "midi": 68,
      "hit": false,
      "t": 431590.47749999963,
      "d": 227.27250000002095,
      "v": 127
    },
    {
      "midi": 68,
      "hit": false,
      "t": 431817.74999999965,
      "d": 227.27250000002095,
      "v": 127
    },
    {
      "midi": 70,
      "hit": false,
      "t": 431817.74999999965,
      "d": 227.27250000002095,
      "v": 127
    },
    {
      "midi": 72,
      "hit": false,
      "t": 432045.0224999997,
      "d": 227.27250000002095,
      "v": 127
    },
    {
      "midi": 74,
      "hit": false,
      "t": 432045.0224999997,
      "d": 227.27250000002095,
      "v": 127
    },
    {
      "midi": 75,
      "hit": false,
      "t": 432272.2949999997,
      "d": 227.27250000002095,
      "v": 127
    },
    {
      "midi": 77,
      "hit": false,
      "t": 432272.2949999997,
      "d": 227.27250000002095,
      "v": 127
    },
    {
      "midi": 77,
      "hit": false,
      "t": 432499.5674999997,
      "d": 227.27250000002095,
      "v": 127
    },
    {
      "midi": 79,
      "hit": false,
      "t": 432499.5674999997,
      "d": 227.27250000002095,
      "v": 127
    },
    {
      "midi": 74,
      "hit": false,
      "t": 432726.83999999973,
      "d": 227.27250000002095,
      "v": 127
    },
    {
      "midi": 75,
      "hit": false,
      "t": 432726.83999999973,
      "d": 227.27250000002095,
      "v": 127
    },
    {
      "midi": 70,
      "hit": false,
      "t": 432954.11249999976,
      "d": 227.27250000002095,
      "v": 127
    },
    {
      "midi": 72,
      "hit": false,
      "t": 432954.11249999976,
      "d": 227.27250000002095,
      "v": 127
    },
    {
      "midi": 68,
      "hit": false,
      "t": 433181.3849999998,
      "d": 454.5449999999837,
      "v": 127
    },
    {
      "midi": 53,
      "hit": false,
      "t": 433635.92999999976,
      "d": 454.5449999999837,
      "v": 127
    },
    {
      "midi": 62,
      "hit": false,
      "t": 433635.92999999976,
      "d": 454.5449999999837,
      "v": 127
    },
    {
      "midi": 53,
      "hit": false,
      "t": 434090.47499999974,
      "d": 454.5449999999837,
      "v": 127
    },
    {
      "midi": 62,
      "hit": false,
      "t": 434090.47499999974,
      "d": 454.5449999999837,
      "v": 127
    },
    {
      "midi": 68,
      "hit": false,
      "t": 434545.0199999998,
      "d": 454.5449999999837,
      "v": 127
    },
    {
      "midi": 41,
      "hit": false,
      "t": 434999.5649999997,
      "d": 1363.6350000000093,
      "v": 127
    },
    {
      "midi": 68,
      "hit": false,
      "t": 434999.56499999977,
      "d": 227.27250000002095,
      "v": 127
    },
    {
      "midi": 72,
      "hit": false,
      "t": 434999.56499999977,
      "d": 227.27250000002095,
      "v": 127
    },
    {
      "midi": 68,
      "hit": false,
      "t": 435226.8374999998,
      "d": 227.27250000002095,
      "v": 127
    },
    {
      "midi": 70,
      "hit": false,
      "t": 435226.8374999998,
      "d": 227.27250000002095,
      "v": 127
    },
    {
      "midi": 70,
      "hit": false,
      "t": 435454.1099999998,
      "d": 227.27250000002095,
      "v": 127
    },
    {
      "midi": 72,
      "hit": false,
      "t": 435454.1099999998,
      "d": 227.27250000002095,
      "v": 127
    },
    {
      "midi": 74,
      "hit": false,
      "t": 435681.38249999983,
      "d": 227.27250000002095,
      "v": 127
    },
    {
      "midi": 75,
      "hit": false,
      "t": 435681.38249999983,
      "d": 227.27250000002095,
      "v": 127
    },
    {
      "midi": 77,
      "hit": false,
      "t": 435908.65499999985,
      "d": 227.27250000002095,
      "v": 127
    },
    {
      "midi": 79,
      "hit": false,
      "t": 435908.65499999985,
      "d": 227.27250000002095,
      "v": 127
    },
    {
      "midi": 79,
      "hit": false,
      "t": 436135.9274999999,
      "d": 227.27250000002095,
      "v": 127
    },
    {
      "midi": 80,
      "hit": false,
      "t": 436135.9274999999,
      "d": 227.27250000002095,
      "v": 127
    },
    {
      "midi": 75,
      "hit": false,
      "t": 436363.1999999999,
      "d": 227.27250000002095,
      "v": 127
    },
    {
      "midi": 77,
      "hit": false,
      "t": 436363.1999999999,
      "d": 227.27250000002095,
      "v": 127
    },
    {
      "midi": 72,
      "hit": false,
      "t": 436590.4724999999,
      "d": 227.27250000002095,
      "v": 127
    },
    {
      "midi": 74,
      "hit": false,
      "t": 436590.4724999999,
      "d": 227.27250000002095,
      "v": 127
    },
    {
      "midi": 70,
      "hit": false,
      "t": 436817.74499999994,
      "d": 454.5449999999837,
      "v": 127
    },
    {
      "midi": 55,
      "hit": false,
      "t": 437272.28999999975,
      "d": 454.5449999999837,
      "v": 127
    },
    {
      "midi": 63,
      "hit": false,
      "t": 437272.28999999975,
      "d": 454.5449999999837,
      "v": 127
    },
    {
      "midi": 55,
      "hit": false,
      "t": 437726.83499999973,
      "d": 454.5449999999837,
      "v": 127
    },
    {
      "midi": 63,
      "hit": false,
      "t": 437726.83499999973,
      "d": 454.5449999999837,
      "v": 127
    },
    {
      "midi": 70,
      "hit": false,
      "t": 438181.37999999995,
      "d": 454.5449999999837,
      "v": 127
    },
    {
      "midi": 43,
      "hit": false,
      "t": 438635.9249999997,
      "d": 1363.6350000000093,
      "v": 127
    },
    {
      "midi": 70,
      "hit": false,
      "t": 438635.92499999993,
      "d": 227.27250000002095,
      "v": 127
    },
    {
      "midi": 74,
      "hit": false,
      "t": 438635.92499999993,
      "d": 227.27250000002095,
      "v": 127
    },
    {
      "midi": 70,
      "hit": false,
      "t": 438863.19749999995,
      "d": 227.27250000002095,
      "v": 127
    },
    {
      "midi": 72,
      "hit": false,
      "t": 438863.19749999995,
      "d": 227.27250000002095,
      "v": 127
    },
    {
      "midi": 72,
      "hit": false,
      "t": 439090.47,
      "d": 227.27250000002095,
      "v": 127
    },
    {
      "midi": 74,
      "hit": false,
      "t": 439090.47,
      "d": 227.27250000002095,
      "v": 127
    },
    {
      "midi": 75,
      "hit": false,
      "t": 439317.7425,
      "d": 227.27250000002095,
      "v": 127
    },
    {
      "midi": 77,
      "hit": false,
      "t": 439317.7425,
      "d": 227.27250000002095,
      "v": 127
    },
    {
      "midi": 79,
      "hit": false,
      "t": 439545.015,
      "d": 227.27250000002095,
      "v": 127
    },
    {
      "midi": 80,
      "hit": false,
      "t": 439545.015,
      "d": 227.27250000002095,
      "v": 127
    },
    {
      "midi": 77,
      "hit": false,
      "t": 439772.28750000003,
      "d": 227.27250000002095,
      "v": 127
    },
    {
      "midi": 79,
      "hit": false,
      "t": 439772.28750000003,
      "d": 227.27250000002095,
      "v": 127
    },
    {
      "midi": 74,
      "hit": false,
      "t": 439999.56000000006,
      "d": 227.27250000002095,
      "v": 127
    },
    {
      "midi": 75,
      "hit": false,
      "t": 439999.56000000006,
      "d": 227.27250000002095,
      "v": 127
    },
    {
      "midi": 70,
      "hit": false,
      "t": 440226.8325000001,
      "d": 227.27250000002095,
      "v": 127
    },
    {
      "midi": 72,
      "hit": false,
      "t": 440226.8325000001,
      "d": 227.27250000002095,
      "v": 127
    },
    {
      "midi": 44,
      "hit": false,
      "t": 440454.1049999997,
      "d": 1363.6350000000093,
      "v": 127
    },
    {
      "midi": 72,
      "hit": false,
      "t": 440454.1050000001,
      "d": 227.27250000002095,
      "v": 127
    },
    {
      "midi": 74,
      "hit": false,
      "t": 440454.1050000001,
      "d": 227.27250000002095,
      "v": 127
    },
    {
      "midi": 74,
      "hit": false,
      "t": 440681.3775000001,
      "d": 227.27250000002095,
      "v": 127
    },
    {
      "midi": 75,
      "hit": false,
      "t": 440681.3775000001,
      "d": 227.27250000002095,
      "v": 127
    },
    {
      "midi": 70,
      "hit": false,
      "t": 440908.65000000014,
      "d": 227.27250000002095,
      "v": 127
    },
    {
      "midi": 72,
      "hit": false,
      "t": 440908.65000000014,
      "d": 227.27250000002095,
      "v": 127
    },
    {
      "midi": 67,
      "hit": false,
      "t": 441135.92250000016,
      "d": 227.27250000002095,
      "v": 127
    },
    {
      "midi": 68,
      "hit": false,
      "t": 441135.92250000016,
      "d": 227.27250000002095,
      "v": 127
    },
    {
      "midi": 65,
      "hit": false,
      "t": 441363.1950000002,
      "d": 227.27250000002095,
      "v": 127
    },
    {
      "midi": 67,
      "hit": false,
      "t": 441363.1950000002,
      "d": 227.27250000002095,
      "v": 127
    },
    {
      "midi": 67,
      "hit": false,
      "t": 441590.4675000002,
      "d": 227.27250000002095,
      "v": 127
    },
    {
      "midi": 68,
      "hit": false,
      "t": 441590.4675000002,
      "d": 227.27250000002095,
      "v": 127
    },
    {
      "midi": 63,
      "hit": false,
      "t": 441817.7400000002,
      "d": 227.27250000002095,
      "v": 127
    },
    {
      "midi": 65,
      "hit": false,
      "t": 441817.7400000002,
      "d": 227.27250000002095,
      "v": 127
    },
    {
      "midi": 60,
      "hit": false,
      "t": 442045.01250000024,
      "d": 227.27250000002095,
      "v": 127
    },
    {
      "midi": 62,
      "hit": false,
      "t": 442045.01250000024,
      "d": 227.27250000002095,
      "v": 127
    },
    {
      "midi": 46,
      "hit": false,
      "t": 442272.2849999997,
      "d": 1363.6350000000093,
      "v": 127
    },
    {
      "midi": 58,
      "hit": false,
      "t": 442272.28500000027,
      "d": 227.27250000002095,
      "v": 127
    },
    {
      "midi": 60,
      "hit": false,
      "t": 442272.28500000027,
      "d": 227.27250000002095,
      "v": 127
    },
    {
      "midi": 62,
      "hit": false,
      "t": 442499.5575000003,
      "d": 227.27250000002095,
      "v": 127
    },
    {
      "midi": 63,
      "hit": false,
      "t": 442499.5575000003,
      "d": 227.27250000002095,
      "v": 127
    },
    {
      "midi": 65,
      "hit": false,
      "t": 442726.8300000003,
      "d": 227.27250000002095,
      "v": 127
    },
    {
      "midi": 67,
      "hit": false,
      "t": 442726.8300000003,
      "d": 227.27250000002095,
      "v": 127
    },
    {
      "midi": 67,
      "hit": false,
      "t": 442954.1025000003,
      "d": 227.27250000002095,
      "v": 127
    },
    {
      "midi": 68,
      "hit": false,
      "t": 442954.1025000003,
      "d": 227.27250000002095,
      "v": 127
    },
    {
      "midi": 63,
      "hit": false,
      "t": 443181.37500000035,
      "d": 227.27250000002095,
      "v": 127
    },
    {
      "midi": 65,
      "hit": false,
      "t": 443181.37500000035,
      "d": 227.27250000002095,
      "v": 127
    },
    {
      "midi": 60,
      "hit": false,
      "t": 443408.64750000037,
      "d": 227.27250000002095,
      "v": 127
    },
    {
      "midi": 62,
      "hit": false,
      "t": 443408.64750000037,
      "d": 227.27250000002095,
      "v": 127
    },
    {
      "midi": 56,
      "hit": false,
      "t": 443635.9199999997,
      "d": 227.27250000002095,
      "v": 127
    },
    {
      "midi": 58,
      "hit": false,
      "t": 443635.9199999997,
      "d": 227.27250000002095,
      "v": 127
    },
    {
      "midi": 53,
      "hit": false,
      "t": 443863.1924999997,
      "d": 227.27250000002095,
      "v": 127
    },
    {
      "midi": 55,
      "hit": false,
      "t": 443863.1924999997,
      "d": 227.27250000002095,
      "v": 127
    },
    {
      "midi": 39,
      "hit": false,
      "t": 444090.46499999973,
      "d": 454.5449999999837,
      "v": 127
    },
    {
      "midi": 51,
      "hit": false,
      "t": 444090.46499999973,
      "d": 454.5449999999837,
      "v": 127
    },
    {
      "midi": 55,
      "hit": false,
      "t": 444545.0099999997,
      "d": 454.5449999999837,
      "v": 127
    },
    {
      "midi": 58,
      "hit": false,
      "t": 444545.0099999997,
      "d": 454.5449999999837,
      "v": 127
    },
    {
      "midi": 55,
      "hit": false,
      "t": 444999.5549999997,
      "d": 454.5449999999837,
      "v": 127
    },
    {
      "midi": 58,
      "hit": false,
      "t": 444999.5549999997,
      "d": 454.5449999999837,
      "v": 127
    },
    {
      "midi": 58,
      "hit": false,
      "t": 445454.0999999997,
      "d": 454.5449999999837,
      "v": 127
    },
    {
      "midi": 67,
      "hit": false,
      "t": 445454.1000000004,
      "d": 454.5449999999837,
      "v": 127
    },
    {
      "midi": 56,
      "hit": false,
      "t": 445908.64499999967,
      "d": 909.0900000000256,
      "v": 127
    },
    {
      "midi": 65,
      "hit": false,
      "t": 445908.64500000037,
      "d": 909.0900000000256,
      "v": 127
    },
    {
      "midi": 55,
      "hit": false,
      "t": 446817.7349999997,
      "d": 454.5449999999837,
      "v": 127
    },
    {
      "midi": 63,
      "hit": false,
      "t": 446817.7350000004,
      "d": 454.5449999999837,
      "v": 127
    },
    {
      "midi": 79,
      "hit": false,
      "t": 447272.2800000004,
      "d": 454.5449999999837,
      "v": 127
    },
    {
      "midi": 82,
      "hit": false,
      "t": 447272.2800000004,
      "d": 454.5449999999837,
      "v": 127
    },
    {
      "midi": 77,
      "hit": false,
      "t": 447726.82500000036,
      "d": 1363.6350000000093,
      "v": 127
    },
    {
      "midi": 84,
      "hit": false,
      "t": 447726.82500000036,
      "d": 1363.6350000000093,
      "v": 127
    },
    {
      "midi": 75,
      "hit": false,
      "t": 449545.00500000035,
      "d": 909.0900000000256,
      "v": 127
    },
    {
      "midi": 79,
      "hit": false,
      "t": 449545.00500000035,
      "d": 909.0900000000256,
      "v": 127
    }
  ]
}