{
  "jsonPath": "Rock/Art Rock/The Zombies/shes-not-there.json",
  "path": "Rock\\Art Rock\\The Zombies\\Shes Not There.mid",
  "name": "Shes Not There",
  "difficulty": "Advanced",
  "bpm": 128,
  "notes": [
    {
      "midi": 71,
      "hit": false,
      "t": 6074.21875,
      "d": 585.9375,
      "v": 86
    },
    {
      "midi": 60,
      "hit": false,
      "t": 6079.1015625,
      "d": 537.109375,
      "v": 78
    },
    {
      "midi": 64,
      "hit": false,
      "t": 6083.984375,
      "d": 537.109375,
      "v": 82
    },
    {
      "midi": 69,
      "hit": false,
      "t": 6787.109375,
      "d": 468.75,
      "v": 71
    },
    {
      "midi": 66,
      "hit": false,
      "t": 6791.9921875,
      "d": 361.328125,
      "v": 50
    },
    {
      "midi": 62,
      "hit": false,
      "t": 6796.875,
      "d": 346.6796875,
      "v": 54
    },
    {
      "midi": 67,
      "hit": false,
      "t": 7250.9765625,
      "d": 468.75,
      "v": 56
    },
    {
      "midi": 60,
      "hit": false,
      "t": 7275.390625,
      "d": 458.984375,
      "v": 69
    },
    {
      "midi": 64,
      "hit": false,
      "t": 7280.2734375,
      "d": 390.625,
      "v": 62
    },
    {
      "midi": 62,
      "hit": false,
      "t": 7934.5703125,
      "d": 610.3515625,
      "v": 69
    },
    {
      "midi": 66,
      "hit": false,
      "t": 7939.453125,
      "d": 712.890625,
      "v": 71
    },
    {
      "midi": 59,
      "hit": false,
      "t": 7944.3359375,
      "d": 605.46875,
      "v": 65
    },
    {
      "midi": 64,
      "hit": false,
      "t": 8666.9921875,
      "d": 517.578125,
      "v": 65
    },
    {
      "midi": 60,
      "hit": false,
      "t": 8671.875,
      "d": 356.4453125,
      "v": 69
    },
    {
      "midi": 57,
      "hit": false,
      "t": 8691.40625,
      "d": 351.5625,
      "v": 71
    },
    {
      "midi": 62,
      "hit": false,
      "t": 9140.625,
      "d": 273.4375,
      "v": 58
    },
    {
      "midi": 59,
      "hit": false,
      "t": 9145.5078125,
      "d": 429.6875,
      "v": 41
    },
    {
      "midi": 66,
      "hit": false,
      "t": 9150.390625,
      "d": 415.0390625,
      "v": 70
    },
    {
      "midi": 71,
      "hit": false,
      "t": 9824.21875,
      "d": 551.7578125,
      "v": 66
    },
    {
      "midi": 64,
      "hit": false,
      "t": 9829.1015625,
      "d": 478.515625,
      "v": 67
    },
    {
      "midi": 67,
      "hit": false,
      "t": 9833.984375,
      "d": 498.046875,
      "v": 66
    },
    {
      "midi": 60,
      "hit": false,
      "t": 9838.8671875,
      "d": 483.3984375,
      "v": 84
    },
    {
      "midi": 66,
      "hit": false,
      "t": 10522.4609375,
      "d": 332.03125,
      "v": 78
    },
    {
      "midi": 69,
      "hit": false,
      "t": 10527.34375,
      "d": 454.1015625,
      "v": 51
    },
    {
      "midi": 62,
      "hit": false,
      "t": 10532.2265625,
      "d": 307.6171875,
      "v": 60
    },
    {
      "midi": 64,
      "hit": false,
      "t": 10981.4453125,
      "d": 444.3359375,
      "v": 60
    },
    {
      "midi": 67,
      "hit": false,
      "t": 10991.2109375,
      "d": 439.453125,
      "v": 81
    },
    {
      "midi": 60,
      "hit": false,
      "t": 11005.859375,
      "d": 429.6875,
      "v": 57
    },
    {
      "midi": 66,
      "hit": false,
      "t": 11669.921875,
      "d": 629.8828125,
      "v": 80
    },
    {
      "midi": 59,
      "hit": false,
      "t": 11674.8046875,
      "d": 581.0546875,
      "v": 68
    },
    {
      "midi": 62,
      "hit": false,
      "t": 11679.6875,
      "d": 561.5234375,
      "v": 69
    },
    {
      "midi": 57,
      "hit": false,
      "t": 12397.4609375,
      "d": 341.796875,
      "v": 73
    },
    {
      "midi": 64,
      "hit": false,
      "t": 12397.4609375,
      "d": 498.046875,
      "v": 66
    },
    {
      "midi": 60,
      "hit": false,
      "t": 12407.2265625,
      "d": 322.265625,
      "v": 68
    },
    {
      "midi": 62,
      "hit": false,
      "t": 12871.09375,
      "d": 224.609375,
      "v": 73
    },
    {
      "midi": 66,
      "hit": false,
      "t": 12880.859375,
      "d": 229.4921875,
      "v": 77
    },
    {
      "midi": 57,
      "hit": false,
      "t": 13090.8203125,
      "d": 610.3515625,
      "v": 60
    },
    {
      "midi": 64,
      "hit": false,
      "t": 13588.8671875,
      "d": 634.765625,
      "v": 69
    },
    {
      "midi": 60,
      "hit": false,
      "t": 13593.75,
      "d": 551.7578125,
      "v": 65
    },
    {
      "midi": 66,
      "hit": false,
      "t": 14277.34375,
      "d": 439.453125,
      "v": 69
    },
    {
      "midi": 62,
      "hit": false,
      "t": 14282.2265625,
      "d": 463.8671875,
      "v": 64
    },
    {
      "midi": 64,
      "hit": false,
      "t": 14746.09375,
      "d": 629.8828125,
      "v": 65
    },
    {
      "midi": 67,
      "hit": false,
      "t": 14760.7421875,
      "d": 571.2890625,
      "v": 68
    },
    {
      "midi": 62,
      "hit": false,
      "t": 15449.21875,
      "d": 737.3046875,
      "v": 69
    },
    {
      "midi": 66,
      "hit": false,
      "t": 15454.1015625,
      "d": 688.4765625,
      "v": 76
    },
    {
      "midi": 64,
      "hit": false,
      "t": 16157.2265625,
      "d": 517.578125,
      "v": 62
    },
    {
      "midi": 60,
      "hit": false,
      "t": 16176.7578125,
      "d": 454.1015625,
      "v": 72
    },
    {
      "midi": 66,
      "hit": false,
      "t": 16650.390625,
      "d": 234.375,
      "v": 68
    },
    {
      "midi": 62,
      "hit": false,
      "t": 16655.2734375,
      "d": 224.609375,
      "v": 63
    },
    {
      "midi": 57,
      "hit": false,
      "t": 16875,
      "d": 346.6796875,
      "v": 71
    },
    {
      "midi": 57,
      "hit": false,
      "t": 17314.453125,
      "d": 87.890625,
      "v": 69
    },
    {
      "midi": 60,
      "hit": false,
      "t": 17319.3359375,
      "d": 68.359375,
      "v": 72
    },
    {
      "midi": 64,
      "hit": false,
      "t": 17324.21875,
      "d": 78.125,
      "v": 70
    },
    {
      "midi": 60,
      "hit": false,
      "t": 17553.7109375,
      "d": 439.453125,
      "v": 86
    },
    {
      "midi": 57,
      "hit": false,
      "t": 17558.59375,
      "d": 253.90625,
      "v": 83
    },
    {
      "midi": 65,
      "hit": false,
      "t": 17563.4765625,
      "d": 512.6953125,
      "v": 80
    },
    {
      "midi": 57,
      "hit": false,
      "t": 18076.171875,
      "d": 156.25,
      "v": 52
    },
    {
      "midi": 60,
      "hit": false,
      "t": 18286.1328125,
      "d": 341.796875,
      "v": 67
    },
    {
      "midi": 57,
      "hit": false,
      "t": 18291.015625,
      "d": 346.6796875,
      "v": 64
    },
    {
      "midi": 64,
      "hit": false,
      "t": 18295.8984375,
      "d": 332.03125,
      "v": 68
    },
    {
      "midi": 57,
      "hit": false,
      "t": 18759.765625,
      "d": 541.9921875,
      "v": 90
    },
    {
      "midi": 71,
      "hit": false,
      "t": 19194.3359375,
      "d": 410.15625,
      "v": 80
    },
    {
      "midi": 60,
      "hit": false,
      "t": 19204.1015625,
      "d": 283.203125,
      "v": 86
    },
    {
      "midi": 64,
      "hit": false,
      "t": 19208.984375,
      "d": 395.5078125,
      "v": 90
    },
    {
      "midi": 67,
      "hit": false,
      "t": 19208.984375,
      "d": 419.921875,
      "v": 76
    },
    {
      "midi": 57,
      "hit": false,
      "t": 19453.125,
      "d": 229.4921875,
      "v": 75
    },
    {
      "midi": 59,
      "hit": false,
      "t": 19682.6171875,
      "d": 659.1796875,
      "v": 87
    },
    {
      "midi": 69,
      "hit": false,
      "t": 19921.875,
      "d": 405.2734375,
      "v": 87
    },
    {
      "midi": 66,
      "hit": false,
      "t": 19926.7578125,
      "d": 302.734375,
      "v": 97
    },
    {
      "midi": 62,
      "hit": false,
      "t": 19926.7578125,
      "d": 385.7421875,
      "v": 87
    },
    {
      "midi": 67,
      "hit": false,
      "t": 20361.328125,
      "d": 229.4921875,
      "v": 66
    },
    {
      "midi": 64,
      "hit": false,
      "t": 20366.2109375,
      "d": 219.7265625,
      "v": 89
    },
    {
      "midi": 60,
      "hit": false,
      "t": 20371.09375,
      "d": 214.84375,
      "v": 75
    },
    {
      "midi": 57,
      "hit": false,
      "t": 20625,
      "d": 527.34375,
      "v": 95
    },
    {
      "midi": 67,
      "hit": false,
      "t": 21083.984375,
      "d": 561.5234375,
      "v": 83
    },
    {
      "midi": 64,
      "hit": false,
      "t": 21083.984375,
      "d": 571.2890625,
      "v": 90
    },
    {
      "midi": 60,
      "hit": false,
      "t": 21088.8671875,
      "d": 498.046875,
      "v": 82
    },
    {
      "midi": 57,
      "hit": false,
      "t": 21347.65625,
      "d": 205.078125,
      "v": 73
    },
    {
      "midi": 59,
      "hit": false,
      "t": 21572.265625,
      "d": 805.6640625,
      "v": 72
    },
    {
      "midi": 66,
      "hit": false,
      "t": 21787.109375,
      "d": 454.1015625,
      "v": 109
    },
    {
      "midi": 62,
      "hit": false,
      "t": 21791.9921875,
      "d": 366.2109375,
      "v": 85
    },
    {
      "midi": 69,
      "hit": false,
      "t": 21796.875,
      "d": 419.921875,
      "v": 82
    },
    {
      "midi": 64,
      "hit": false,
      "t": 22255.859375,
      "d": 258.7890625,
      "v": 78
    },
    {
      "midi": 60,
      "hit": false,
      "t": 22260.7421875,
      "d": 268.5546875,
      "v": 76
    },
    {
      "midi": 67,
      "hit": false,
      "t": 22270.5078125,
      "d": 249.0234375,
      "v": 69
    },
    {
      "midi": 57,
      "hit": false,
      "t": 22490.234375,
      "d": 527.34375,
      "v": 66
    },
    {
      "midi": 60,
      "hit": false,
      "t": 22939.453125,
      "d": 429.6875,
      "v": 87
    },
    {
      "midi": 64,
      "hit": false,
      "t": 22939.453125,
      "d": 561.5234375,
      "v": 87
    },
    {
      "midi": 67,
      "hit": false,
      "t": 22944.3359375,
      "d": 571.2890625,
      "v": 85
    },
    {
      "midi": 57,
      "hit": false,
      "t": 23183.59375,
      "d": 253.90625,
      "v": 60
    },
    {
      "midi": 59,
      "hit": false,
      "t": 23427.734375,
      "d": 732.421875,
      "v": 70
    },
    {
      "midi": 62,
      "hit": false,
      "t": 23666.9921875,
      "d": 366.2109375,
      "v": 75
    },
    {
      "midi": 66,
      "hit": false,
      "t": 23666.9921875,
      "d": 444.3359375,
      "v": 103
    },
    {
      "midi": 69,
      "hit": false,
      "t": 23671.875,
      "d": 405.2734375,
      "v": 78
    },
    {
      "midi": 64,
      "hit": false,
      "t": 24130.859375,
      "d": 200.1953125,
      "v": 77
    },
    {
      "midi": 60,
      "hit": false,
      "t": 24140.625,
      "d": 209.9609375,
      "v": 75
    },
    {
      "midi": 67,
      "hit": false,
      "t": 24145.5078125,
      "d": 200.1953125,
      "v": 66
    },
    {
      "midi": 57,
      "hit": false,
      "t": 24389.6484375,
      "d": 346.6796875,
      "v": 95
    },
    {
      "midi": 57,
      "hit": false,
      "t": 24814.453125,
      "d": 185.546875,
      "v": 86
    },
    {
      "midi": 64,
      "hit": false,
      "t": 24819.3359375,
      "d": 234.375,
      "v": 90
    },
    {
      "midi": 60,
      "hit": false,
      "t": 24824.21875,
      "d": 229.4921875,
      "v": 90
    },
    {
      "midi": 57,
      "hit": false,
      "t": 25073.2421875,
      "d": 273.4375,
      "v": 75
    },
    {
      "midi": 65,
      "hit": false,
      "t": 25083.0078125,
      "d": 297.8515625,
      "v": 95
    },
    {
      "midi": 57,
      "hit": false,
      "t": 25356.4453125,
      "d": 107.421875,
      "v": 75
    },
    {
      "midi": 60,
      "hit": false,
      "t": 25532.2265625,
      "d": 410.15625,
      "v": 93
    },
    {
      "midi": 65,
      "hit": false,
      "t": 25546.875,
      "d": 366.2109375,
      "v": 71
    },
    {
      "midi": 57,
      "hit": false,
      "t": 25551.7578125,
      "d": 410.15625,
      "v": 101
    },
    {
      "midi": 65,
      "hit": false,
      "t": 26010.7421875,
      "d": 253.90625,
      "v": 62
    },
    {
      "midi": 57,
      "hit": false,
      "t": 26015.625,
      "d": 366.2109375,
      "v": 55
    },
    {
      "midi": 60,
      "hit": false,
      "t": 26020.5078125,
      "d": 239.2578125,
      "v": 85
    },
    {
      "midi": 45,
      "hit": false,
      "t": 26235.3515625,
      "d": 1611.328125,
      "v": 103
    },
    {
      "midi": 61,
      "hit": false,
      "t": 26254.8828125,
      "d": 244.140625,
      "v": 103
    },
    {
      "midi": 64,
      "hit": false,
      "t": 26264.6484375,
      "d": 273.4375,
      "v": 103
    },
    {
      "midi": 57,
      "hit": false,
      "t": 26523.4375,
      "d": 200.1953125,
      "v": 76
    },
    {
      "midi": 61,
      "hit": false,
      "t": 26743.1640625,
      "d": 161.1328125,
      "v": 115
    },
    {
      "midi": 64,
      "hit": false,
      "t": 26743.1640625,
      "d": 205.078125,
      "v": 83
    },
    {
      "midi": 57,
      "hit": false,
      "t": 26962.890625,
      "d": 175.78125,
      "v": 65
    },
    {
      "midi": 62,
      "hit": false,
      "t": 27172.8515625,
      "d": 180.6640625,
      "v": 105
    },
    {
      "midi": 59,
      "hit": false,
      "t": 27177.734375,
      "d": 273.4375,
      "v": 57
    },
    {
      "midi": 61,
      "hit": false,
      "t": 27416.9921875,
      "d": 439.453125,
      "v": 66
    },
    {
      "midi": 64,
      "hit": false,
      "t": 27416.9921875,
      "d": 463.8671875,
      "v": 78
    },
    {
      "midi": 57,
      "hit": false,
      "t": 27910.15625,
      "d": 214.84375,
      "v": 89
    },
    {
      "midi": 57,
      "hit": false,
      "t": 28125,
      "d": 29.296875,
      "v": 83
    },
    {
      "midi": 62,
      "hit": false,
      "t": 28125,
      "d": 346.6796875,
      "v": 92
    },
    {
      "midi": 66,
      "hit": false,
      "t": 28125,
      "d": 346.6796875,
      "v": 93
    },
    {
      "midi": 54,
      "hit": false,
      "t": 28125,
      "d": 351.5625,
      "v": 93
    },
    {
      "midi": 54,
      "hit": false,
      "t": 28593.75,
      "d": 390.625,
      "v": 101
    },
    {
      "midi": 62,
      "hit": false,
      "t": 28598.6328125,
      "d": 273.4375,
      "v": 99
    },
    {
      "midi": 57,
      "hit": false,
      "t": 28603.515625,
      "d": 97.65625,
      "v": 80
    },
    {
      "midi": 66,
      "hit": false,
      "t": 28603.515625,
      "d": 263.671875,
      "v": 103
    },
    {
      "midi": 57,
      "hit": false,
      "t": 28828.125,
      "d": 146.484375,
      "v": 81
    },
    {
      "midi": 53,
      "hit": false,
      "t": 29057.6171875,
      "d": 356.4453125,
      "v": 76
    },
    {
      "midi": 65,
      "hit": false,
      "t": 29057.6171875,
      "d": 361.328125,
      "v": 73
    },
    {
      "midi": 60,
      "hit": false,
      "t": 29062.5,
      "d": 356.4453125,
      "v": 97
    },
    {
      "midi": 57,
      "hit": false,
      "t": 29067.3828125,
      "d": 341.796875,
      "v": 92
    },
    {
      "midi": 65,
      "hit": false,
      "t": 29531.25,
      "d": 366.2109375,
      "v": 95
    },
    {
      "midi": 57,
      "hit": false,
      "t": 29531.25,
      "d": 419.921875,
      "v": 87
    },
    {
      "midi": 53,
      "hit": false,
      "t": 29536.1328125,
      "d": 468.75,
      "v": 85
    },
    {
      "midi": 60,
      "hit": false,
      "t": 29780.2734375,
      "d": 166.015625,
      "v": 93
    },
    {
      "midi": 64,
      "hit": false,
      "t": 30000,
      "d": 288.0859375,
      "v": 101
    },
    {
      "midi": 60,
      "hit": false,
      "t": 30000,
      "d": 297.8515625,
      "v": 107
    },
    {
      "midi": 45,
      "hit": false,
      "t": 30000,
      "d": 913.0859375,
      "v": 77
    },
    {
      "midi": 64,
      "hit": false,
      "t": 30468.75,
      "d": 297.8515625,
      "v": 101
    },
    {
      "midi": 60,
      "hit": false,
      "t": 30473.6328125,
      "d": 234.375,
      "v": 105
    },
    {
      "midi": 57,
      "hit": false,
      "t": 30722.65625,
      "d": 185.546875,
      "v": 56
    },
    {
      "midi": 62,
      "hit": false,
      "t": 30942.3828125,
      "d": 185.546875,
      "v": 99
    },
    {
      "midi": 59,
      "hit": false,
      "t": 30942.3828125,
      "d": 288.0859375,
      "v": 95
    },
    {
      "midi": 60,
      "hit": false,
      "t": 31186.5234375,
      "d": 224.609375,
      "v": 87
    },
    {
      "midi": 64,
      "hit": false,
      "t": 31186.5234375,
      "d": 229.4921875,
      "v": 87
    },
    {
      "midi": 57,
      "hit": false,
      "t": 31406.25,
      "d": 268.5546875,
      "v": 81
    },
    {
      "midi": 64,
      "hit": false,
      "t": 31645.5078125,
      "d": 205.078125,
      "v": 80
    },
    {
      "midi": 60,
      "hit": false,
      "t": 31650.390625,
      "d": 200.1953125,
      "v": 44
    },
    {
      "midi": 52,
      "hit": false,
      "t": 31889.6484375,
      "d": 1142.578125,
      "v": 99
    },
    {
      "midi": 64,
      "hit": false,
      "t": 32124.0234375,
      "d": 73.2421875,
      "v": 75
    },
    {
      "midi": 59,
      "hit": false,
      "t": 32128.90625,
      "d": 68.359375,
      "v": 93
    },
    {
      "midi": 59,
      "hit": false,
      "t": 32358.3984375,
      "d": 209.9609375,
      "v": 113
    },
    {
      "midi": 64,
      "hit": false,
      "t": 32363.28125,
      "d": 263.671875,
      "v": 105
    },
    {
      "midi": 55,
      "hit": false,
      "t": 32563.4765625,
      "d": 224.609375,
      "v": 46
    },
    {
      "midi": 62,
      "hit": false,
      "t": 32812.5,
      "d": 200.1953125,
      "v": 107
    },
    {
      "midi": 59,
      "hit": false,
      "t": 32812.5,
      "d": 297.8515625,
      "v": 107
    },
    {
      "midi": 64,
      "hit": false,
      "t": 33056.640625,
      "d": 605.46875,
      "v": 82
    },
    {
      "midi": 55,
      "hit": false,
      "t": 33261.71875,
      "d": 229.4921875,
      "v": 57
    },
    {
      "midi": 57,
      "hit": false,
      "t": 33496.09375,
      "d": 244.140625,
      "v": 98
    },
    {
      "midi": 63,
      "hit": false,
      "t": 33735.3515625,
      "d": 78.125,
      "v": 126
    },
    {
      "midi": 64,
      "hit": false,
      "t": 33784.1796875,
      "d": 156.25,
      "v": 83
    },
    {
      "midi": 69,
      "hit": false,
      "t": 33925.78125,
      "d": 253.90625,
      "v": 103
    },
    {
      "midi": 63,
      "hit": false,
      "t": 34213.8671875,
      "d": 97.65625,
      "v": 121
    },
    {
      "midi": 62,
      "hit": false,
      "t": 34248.046875,
      "d": 126.953125,
      "v": 74
    },
    {
      "midi": 60,
      "hit": false,
      "t": 34335.9375,
      "d": 102.5390625,
      "v": 107
    },
    {
      "midi": 57,
      "hit": false,
      "t": 34423.828125,
      "d": 258.7890625,
      "v": 95
    },
    {
      "midi": 59,
      "hit": false,
      "t": 34702.1484375,
      "d": 68.359375,
      "v": 64
    },
    {
      "midi": 60,
      "hit": false,
      "t": 34707.03125,
      "d": 151.3671875,
      "v": 109
    },
    {
      "midi": 57,
      "hit": false,
      "t": 34838.8671875,
      "d": 107.421875,
      "v": 93
    },
    {
      "midi": 55,
      "hit": false,
      "t": 34965.8203125,
      "d": 117.1875,
      "v": 68
    },
    {
      "midi": 57,
      "hit": false,
      "t": 35092.7734375,
      "d": 97.65625,
      "v": 80
    },
    {
      "midi": 60,
      "hit": false,
      "t": 35200.1953125,
      "d": 219.7265625,
      "v": 119
    },
    {
      "midi": 57,
      "hit": false,
      "t": 35410.15625,
      "d": 136.71875,
      "v": 95
    },
    {
      "midi": 54,
      "hit": false,
      "t": 35639.6484375,
      "d": 332.03125,
      "v": 101
    },
    {
      "midi": 54,
      "hit": false,
      "t": 36059.5703125,
      "d": 322.265625,
      "v": 94
    },
    {
      "midi": 66,
      "hit": false,
      "t": 36064.453125,
      "d": 258.7890625,
      "v": 114
    },
    {
      "midi": 62,
      "hit": false,
      "t": 36069.3359375,
      "d": 253.90625,
      "v": 98
    },
    {
      "midi": 57,
      "hit": false,
      "t": 36303.7109375,
      "d": 209.9609375,
      "v": 62
    },
    {
      "midi": 60,
      "hit": false,
      "t": 36533.203125,
      "d": 307.6171875,
      "v": 105
    },
    {
      "midi": 53,
      "hit": false,
      "t": 36533.203125,
      "d": 341.796875,
      "v": 86
    },
    {
      "midi": 65,
      "hit": false,
      "t": 36538.0859375,
      "d": 288.0859375,
      "v": 95
    },
    {
      "midi": 65,
      "hit": false,
      "t": 37021.484375,
      "d": 332.03125,
      "v": 87
    },
    {
      "midi": 60,
      "hit": false,
      "t": 37026.3671875,
      "d": 278.3203125,
      "v": 97
    },
    {
      "midi": 53,
      "hit": false,
      "t": 37031.25,
      "d": 302.734375,
      "v": 80
    },
    {
      "midi": 57,
      "hit": false,
      "t": 37285.15625,
      "d": 141.6015625,
      "v": 76
    },
    {
      "midi": 48,
      "hit": false,
      "t": 37509.765625,
      "d": 615.234375,
      "v": 103
    },
    {
      "midi": 60,
      "hit": false,
      "t": 37978.515625,
      "d": 224.609375,
      "v": 109
    },
    {
      "midi": 64,
      "hit": false,
      "t": 37978.515625,
      "d": 385.7421875,
      "v": 101
    },
    {
      "midi": 55,
      "hit": false,
      "t": 38193.359375,
      "d": 234.375,
      "v": 60
    },
    {
      "midi": 48,
      "hit": false,
      "t": 38203.125,
      "d": 1025.390625,
      "v": 60
    },
    {
      "midi": 62,
      "hit": false,
      "t": 38447.265625,
      "d": 180.6640625,
      "v": 99
    },
    {
      "midi": 58,
      "hit": false,
      "t": 38447.265625,
      "d": 214.84375,
      "v": 97
    },
    {
      "midi": 64,
      "hit": false,
      "t": 38666.9921875,
      "d": 644.53125,
      "v": 82
    },
    {
      "midi": 60,
      "hit": false,
      "t": 38681.640625,
      "d": 429.6875,
      "v": 78
    },
    {
      "midi": 55,
      "hit": false,
      "t": 38906.25,
      "d": 283.203125,
      "v": 76
    },
    {
      "midi": 58,
      "hit": false,
      "t": 39150.390625,
      "d": 234.375,
      "v": 102
    },
    {
      "midi": 56,
      "hit": false,
      "t": 39375,
      "d": 97.65625,
      "v": 72
    },
    {
      "midi": 62,
      "hit": false,
      "t": 39384.765625,
      "d": 92.7734375,
      "v": 66
    },
    {
      "midi": 64,
      "hit": false,
      "t": 39389.6484375,
      "d": 97.65625,
      "v": 60
    },
    {
      "midi": 59,
      "hit": false,
      "t": 39389.6484375,
      "d": 112.3046875,
      "v": 66
    },
    {
      "midi": 52,
      "hit": false,
      "t": 39394.53125,
      "d": 68.359375,
      "v": 47
    },
    {
      "midi": 52,
      "hit": false,
      "t": 39599.609375,
      "d": 97.65625,
      "v": 52
    },
    {
      "midi": 64,
      "hit": false,
      "t": 39604.4921875,
      "d": 112.3046875,
      "v": 62
    },
    {
      "midi": 56,
      "hit": false,
      "t": 39609.375,
      "d": 97.65625,
      "v": 66
    },
    {
      "midi": 62,
      "hit": false,
      "t": 39614.2578125,
      "d": 92.7734375,
      "v": 70
    },
    {
      "midi": 59,
      "hit": false,
      "t": 39614.2578125,
      "d": 107.421875,
      "v": 60
    },
    {
      "midi": 52,
      "hit": false,
      "t": 39843.75,
      "d": 92.7734375,
      "v": 56
    },
    {
      "midi": 56,
      "hit": false,
      "t": 39848.6328125,
      "d": 107.421875,
      "v": 75
    },
    {
      "midi": 62,
      "hit": false,
      "t": 39853.515625,
      "d": 107.421875,
      "v": 71
    },
    {
      "midi": 64,
      "hit": false,
      "t": 39853.515625,
      "d": 107.421875,
      "v": 71
    },
    {
      "midi": 59,
      "hit": false,
      "t": 39858.3984375,
      "d": 112.3046875,
      "v": 67
    },
    {
      "midi": 56,
      "hit": false,
      "t": 40073.2421875,
      "d": 122.0703125,
      "v": 80
    },
    {
      "midi": 52,
      "hit": false,
      "t": 40078.125,
      "d": 107.421875,
      "v": 66
    },
    {
      "midi": 62,
      "hit": false,
      "t": 40087.890625,
      "d": 117.1875,
      "v": 82
    },
    {
      "midi": 59,
      "hit": false,
      "t": 40087.890625,
      "d": 122.0703125,
      "v": 82
    },
    {
      "midi": 64,
      "hit": false,
      "t": 40092.7734375,
      "d": 102.5390625,
      "v": 81
    },
    {
      "midi": 56,
      "hit": false,
      "t": 40312.5,
      "d": 107.421875,
      "v": 81
    },
    {
      "midi": 52,
      "hit": false,
      "t": 40317.3828125,
      "d": 97.65625,
      "v": 75
    },
    {
      "midi": 64,
      "hit": false,
      "t": 40322.265625,
      "d": 107.421875,
      "v": 87
    },
    {
      "midi": 62,
      "hit": false,
      "t": 40322.265625,
      "d": 112.3046875,
      "v": 93
    },
    {
      "midi": 59,
      "hit": false,
      "t": 40327.1484375,
      "d": 112.3046875,
      "v": 85
    },
    {
      "midi": 56,
      "hit": false,
      "t": 40537.109375,
      "d": 112.3046875,
      "v": 85
    },
    {
      "midi": 52,
      "hit": false,
      "t": 40541.9921875,
      "d": 92.7734375,
      "v": 77
    },
    {
      "midi": 62,
      "hit": false,
      "t": 40546.875,
      "d": 112.3046875,
      "v": 97
    },
    {
      "midi": 64,
      "hit": false,
      "t": 40551.7578125,
      "d": 102.5390625,
      "v": 90
    },
    {
      "midi": 59,
      "hit": false,
      "t": 40556.640625,
      "d": 102.5390625,
      "v": 90
    },
    {
      "midi": 56,
      "hit": false,
      "t": 40776.3671875,
      "d": 107.421875,
      "v": 93
    },
    {
      "midi": 52,
      "hit": false,
      "t": 40786.1328125,
      "d": 92.7734375,
      "v": 83
    },
    {
      "midi": 62,
      "hit": false,
      "t": 40791.015625,
      "d": 97.65625,
      "v": 107
    },
    {
      "midi": 64,
      "hit": false,
      "t": 40795.8984375,
      "d": 87.890625,
      "v": 99
    },
    {
      "midi": 59,
      "hit": false,
      "t": 40795.8984375,
      "d": 92.7734375,
      "v": 99
    },
    {
      "midi": 56,
      "hit": false,
      "t": 41005.859375,
      "d": 102.5390625,
      "v": 89
    },
    {
      "midi": 52,
      "hit": false,
      "t": 41010.7421875,
      "d": 92.7734375,
      "v": 82
    },
    {
      "midi": 62,
      "hit": false,
      "t": 41020.5078125,
      "d": 107.421875,
      "v": 97
    },
    {
      "midi": 64,
      "hit": false,
      "t": 41025.390625,
      "d": 92.7734375,
      "v": 90
    },
    {
      "midi": 59,
      "hit": false,
      "t": 41030.2734375,
      "d": 102.5390625,
      "v": 90
    },
    {
      "midi": 52,
      "hit": false,
      "t": 41245.1171875,
      "d": 97.65625,
      "v": 89
    },
    {
      "midi": 56,
      "hit": false,
      "t": 41245.1171875,
      "d": 107.421875,
      "v": 99
    },
    {
      "midi": 62,
      "hit": false,
      "t": 41254.8828125,
      "d": 107.421875,
      "v": 105
    },
    {
      "midi": 64,
      "hit": false,
      "t": 41259.765625,
      "d": 87.890625,
      "v": 99
    },
    {
      "midi": 59,
      "hit": false,
      "t": 41259.765625,
      "d": 92.7734375,
      "v": 99
    },
    {
      "midi": 52,
      "hit": false,
      "t": 41484.375,
      "d": 102.5390625,
      "v": 89
    },
    {
      "midi": 56,
      "hit": false,
      "t": 41484.375,
      "d": 107.421875,
      "v": 101
    },
    {
      "midi": 62,
      "hit": false,
      "t": 41489.2578125,
      "d": 102.5390625,
      "v": 107
    },
    {
      "midi": 59,
      "hit": false,
      "t": 41494.140625,
      "d": 92.7734375,
      "v": 99
    },
    {
      "midi": 64,
      "hit": false,
      "t": 41499.0234375,
      "d": 83.0078125,
      "v": 101
    },
    {
      "midi": 56,
      "hit": false,
      "t": 41708.984375,
      "d": 112.3046875,
      "v": 103
    },
    {
      "midi": 52,
      "hit": false,
      "t": 41713.8671875,
      "d": 102.5390625,
      "v": 90
    },
    {
      "midi": 62,
      "hit": false,
      "t": 41718.75,
      "d": 107.421875,
      "v": 111
    },
    {
      "midi": 64,
      "hit": false,
      "t": 41723.6328125,
      "d": 92.7734375,
      "v": 101
    },
    {
      "midi": 59,
      "hit": false,
      "t": 41728.515625,
      "d": 92.7734375,
      "v": 101
    },
    {
      "midi": 56,
      "hit": false,
      "t": 41953.125,
      "d": 112.3046875,
      "v": 113
    },
    {
      "midi": 52,
      "hit": false,
      "t": 41958.0078125,
      "d": 92.7734375,
      "v": 99
    },
    {
      "midi": 59,
      "hit": false,
      "t": 41962.890625,
      "d": 87.890625,
      "v": 103
    },
    {
      "midi": 64,
      "hit": false,
      "t": 41967.7734375,
      "d": 83.0078125,
      "v": 103
    },
    {
      "midi": 62,
      "hit": false,
      "t": 41967.7734375,
      "d": 92.7734375,
      "v": 113
    },
    {
      "midi": 62,
      "hit": false,
      "t": 42182.6171875,
      "d": 102.5390625,
      "v": 111
    },
    {
      "midi": 56,
      "hit": false,
      "t": 42187.5,
      "d": 97.65625,
      "v": 111
    },
    {
      "midi": 59,
      "hit": false,
      "t": 42192.3828125,
      "d": 83.0078125,
      "v": 107
    },
    {
      "midi": 64,
      "hit": false,
      "t": 42192.3828125,
      "d": 83.0078125,
      "v": 103
    },
    {
      "midi": 52,
      "hit": false,
      "t": 42197.265625,
      "d": 78.125,
      "v": 99
    },
    {
      "midi": 62,
      "hit": false,
      "t": 42416.9921875,
      "d": 117.1875,
      "v": 117
    },
    {
      "midi": 59,
      "hit": false,
      "t": 42421.875,
      "d": 87.890625,
      "v": 109
    },
    {
      "midi": 64,
      "hit": false,
      "t": 42426.7578125,
      "d": 92.7734375,
      "v": 109
    },
    {
      "midi": 56,
      "hit": false,
      "t": 42431.640625,
      "d": 87.890625,
      "v": 119
    },
    {
      "midi": 52,
      "hit": false,
      "t": 42431.640625,
      "d": 102.5390625,
      "v": 105
    },
    {
      "midi": 52,
      "hit": false,
      "t": 42651.3671875,
      "d": 92.7734375,
      "v": 103
    },
    {
      "midi": 56,
      "hit": false,
      "t": 42651.3671875,
      "d": 92.7734375,
      "v": 119
    },
    {
      "midi": 62,
      "hit": false,
      "t": 42656.25,
      "d": 117.1875,
      "v": 111
    },
    {
      "midi": 59,
      "hit": false,
      "t": 42661.1328125,
      "d": 87.890625,
      "v": 101
    },
    {
      "midi": 64,
      "hit": false,
      "t": 42666.015625,
      "d": 97.65625,
      "v": 105
    },
    {
      "midi": 56,
      "hit": false,
      "t": 42885.7421875,
      "d": 87.890625,
      "v": 126
    },
    {
      "midi": 52,
      "hit": false,
      "t": 42890.625,
      "d": 92.7734375,
      "v": 115
    },
    {
      "midi": 64,
      "hit": false,
      "t": 42895.5078125,
      "d": 141.6015625,
      "v": 121
    },
    {
      "midi": 62,
      "hit": false,
      "t": 42895.5078125,
      "d": 166.015625,
      "v": 127
    },
    {
      "midi": 59,
      "hit": false,
      "t": 42900.390625,
      "d": 117.1875,
      "v": 115
    },
    {
      "midi": 60,
      "hit": false,
      "t": 43032.2265625,
      "d": 14.6484375,
      "v": 42
    },
    {
      "midi": 45,
      "hit": false,
      "t": 43129.8828125,
      "d": 839.84375,
      "v": 113
    },
    {
      "midi": 64,
      "hit": false,
      "t": 43369.140625,
      "d": 117.1875,
      "v": 89
    },
    {
      "midi": 60,
      "hit": false,
      "t": 43369.140625,
      "d": 122.0703125,
      "v": 95
    },
    {
      "midi": 57,
      "hit": false,
      "t": 43374.0234375,
      "d": 97.65625,
      "v": 89
    },
    {
      "midi": 57,
      "hit": false,
      "t": 43583.984375,
      "d": 78.125,
      "v": 99
    },
    {
      "midi": 64,
      "hit": false,
      "t": 43583.984375,
      "d": 273.4375,
      "v": 111
    },
    {
      "midi": 60,
      "hit": false,
      "t": 43588.8671875,
      "d": 268.5546875,
      "v": 115
    },
    {
      "midi": 57,
      "hit": false,
      "t": 43828.125,
      "d": 249.0234375,
      "v": 93
    },
    {
      "midi": 50,
      "hit": false,
      "t": 44033.203125,
      "d": 820.3125,
      "v": 113
    },
    {
      "midi": 66,
      "hit": false,
      "t": 44296.875,
      "d": 97.65625,
      "v": 123
    },
    {
      "midi": 62,
      "hit": false,
      "t": 44301.7578125,
      "d": 97.65625,
      "v": 113
    },
    {
      "midi": 57,
      "hit": false,
      "t": 44306.640625,
      "d": 78.125,
      "v": 105
    },
    {
      "midi": 66,
      "hit": false,
      "t": 44521.484375,
      "d": 219.7265625,
      "v": 123
    },
    {
      "midi": 57,
      "hit": false,
      "t": 44521.484375,
      "d": 366.2109375,
      "v": 107
    },
    {
      "midi": 62,
      "hit": false,
      "t": 44526.3671875,
      "d": 126.953125,
      "v": 117
    },
    {
      "midi": 64,
      "hit": false,
      "t": 44755.859375,
      "d": 151.3671875,
      "v": 85
    },
    {
      "midi": 60,
      "hit": false,
      "t": 44755.859375,
      "d": 156.25,
      "v": 92
    },
    {
      "midi": 45,
      "hit": false,
      "t": 45000,
      "d": 571.2890625,
      "v": 92
    },
    {
      "midi": 60,
      "hit": false,
      "t": 45244.140625,
      "d": 117.1875,
      "v": 90
    },
    {
      "midi": 64,
      "hit": false,
      "t": 45244.140625,
      "d": 126.953125,
      "v": 85
    },
    {
      "midi": 57,
      "hit": false,
      "t": 45249.0234375,
      "d": 107.421875,
      "v": 83
    },
    {
      "midi": 57,
      "hit": false,
      "t": 45463.8671875,
      "d": 166.015625,
      "v": 101
    },
    {
      "midi": 64,
      "hit": false,
      "t": 45463.8671875,
      "d": 283.203125,
      "v": 109
    },
    {
      "midi": 60,
      "hit": false,
      "t": 45468.75,
      "d": 244.140625,
      "v": 111
    },
    {
      "midi": 57,
      "hit": false,
      "t": 45683.59375,
      "d": 131.8359375,
      "v": 65
    },
    {
      "midi": 45,
      "hit": false,
      "t": 45693.359375,
      "d": 229.4921875,
      "v": 87
    },
    {
      "midi": 53,
      "hit": false,
      "t": 45917.96875,
      "d": 830.078125,
      "v": 89
    },
    {
      "midi": 57,
      "hit": false,
      "t": 46171.875,
      "d": 180.6640625,
      "v": 109
    },
    {
      "midi": 65,
      "hit": false,
      "t": 46176.7578125,
      "d": 170.8984375,
      "v": 103
    },
    {
      "midi": 60,
      "hit": false,
      "t": 46181.640625,
      "d": 185.546875,
      "v": 109
    },
    {
      "midi": 57,
      "hit": false,
      "t": 46430.6640625,
      "d": 473.6328125,
      "v": 107
    },
    {
      "midi": 65,
      "hit": false,
      "t": 46435.546875,
      "d": 258.7890625,
      "v": 113
    },
    {
      "midi": 60,
      "hit": false,
      "t": 46435.546875,
      "d": 468.75,
      "v": 119
    },
    {
      "midi": 45,
      "hit": false,
      "t": 46894.53125,
      "d": 874.0234375,
      "v": 109
    },
    {
      "midi": 57,
      "hit": false,
      "t": 47133.7890625,
      "d": 78.125,
      "v": 81
    },
    {
      "midi": 64,
      "hit": false,
      "t": 47138.671875,
      "d": 73.2421875,
      "v": 87
    },
    {
      "midi": 60,
      "hit": false,
      "t": 47143.5546875,
      "d": 63.4765625,
      "v": 87
    },
    {
      "midi": 60,
      "hit": false,
      "t": 47363.28125,
      "d": 268.5546875,
      "v": 117
    },
    {
      "midi": 57,
      "hit": false,
      "t": 47368.1640625,
      "d": 68.359375,
      "v": 97
    },
    {
      "midi": 64,
      "hit": false,
      "t": 47368.1640625,
      "d": 268.5546875,
      "v": 109
    },
    {
      "midi": 57,
      "hit": false,
      "t": 47587.890625,
      "d": 117.1875,
      "v": 89
    },
    {
      "midi": 50,
      "hit": false,
      "t": 47822.265625,
      "d": 859.375,
      "v": 109
    },
    {
      "midi": 57,
      "hit": false,
      "t": 48041.9921875,
      "d": 63.4765625,
      "v": 85
    },
    {
      "midi": 62,
      "hit": false,
      "t": 48046.875,
      "d": 53.7109375,
      "v": 99
    },
    {
      "midi": 66,
      "hit": false,
      "t": 48046.875,
      "d": 58.59375,
      "v": 105
    },
    {
      "midi": 66,
      "hit": false,
      "t": 48286.1328125,
      "d": 224.609375,
      "v": 125
    },
    {
      "midi": 62,
      "hit": false,
      "t": 48291.015625,
      "d": 156.25,
      "v": 119
    },
    {
      "midi": 57,
      "hit": false,
      "t": 48291.015625,
      "d": 327.1484375,
      "v": 101
    },
    {
      "midi": 64,
      "hit": false,
      "t": 48525.390625,
      "d": 122.0703125,
      "v": 71
    },
    {
      "midi": 60,
      "hit": false,
      "t": 48535.15625,
      "d": 117.1875,
      "v": 81
    },
    {
      "midi": 45,
      "hit": false,
      "t": 48725.5859375,
      "d": 922.8515625,
      "v": 75
    },
    {
      "midi": 57,
      "hit": false,
      "t": 48994.140625,
      "d": 87.890625,
      "v": 90
    },
    {
      "midi": 64,
      "hit": false,
      "t": 49218.75,
      "d": 288.0859375,
      "v": 109
    },
    {
      "midi": 60,
      "hit": false,
      "t": 49223.6328125,
      "d": 273.4375,
      "v": 109
    },
    {
      "midi": 57,
      "hit": false,
      "t": 49228.515625,
      "d": 87.890625,
      "v": 87
    },
    {
      "midi": 57,
      "hit": false,
      "t": 49453.125,
      "d": 146.484375,
      "v": 71
    },
    {
      "midi": 53,
      "hit": false,
      "t": 49672.8515625,
      "d": 810.546875,
      "v": 93
    },
    {
      "midi": 57,
      "hit": false,
      "t": 49907.2265625,
      "d": 263.671875,
      "v": 89
    },
    {
      "midi": 60,
      "hit": false,
      "t": 50131.8359375,
      "d": 244.140625,
      "v": 115
    },
    {
      "midi": 65,
      "hit": false,
      "t": 50136.71875,
      "d": 268.5546875,
      "v": 107
    },
    {
      "midi": 57,
      "hit": false,
      "t": 50351.5625,
      "d": 131.8359375,
      "v": 67
    },
    {
      "midi": 45,
      "hit": false,
      "t": 50595.703125,
      "d": 893.5546875,
      "v": 92
    },
    {
      "midi": 57,
      "hit": false,
      "t": 50849.609375,
      "d": 170.8984375,
      "v": 77
    },
    {
      "midi": 64,
      "hit": false,
      "t": 51088.8671875,
      "d": 214.84375,
      "v": 107
    },
    {
      "midi": 60,
      "hit": false,
      "t": 51093.75,
      "d": 214.84375,
      "v": 109
    },
    {
      "midi": 57,
      "hit": false,
      "t": 51313.4765625,
      "d": 136.71875,
      "v": 64
    },
    {
      "midi": 50,
      "hit": false,
      "t": 51567.3828125,
      "d": 854.4921875,
      "v": 115
    },
    {
      "midi": 62,
      "hit": false,
      "t": 51572.265625,
      "d": 92.7734375,
      "v": 50
    },
    {
      "midi": 66,
      "hit": false,
      "t": 51572.265625,
      "d": 102.5390625,
      "v": 54
    },
    {
      "midi": 57,
      "hit": false,
      "t": 51577.1484375,
      "d": 107.421875,
      "v": 44
    },
    {
      "midi": 66,
      "hit": false,
      "t": 51772.4609375,
      "d": 151.3671875,
      "v": 64
    },
    {
      "midi": 57,
      "hit": false,
      "t": 51782.2265625,
      "d": 122.0703125,
      "v": 45
    },
    {
      "midi": 62,
      "hit": false,
      "t": 51787.109375,
      "d": 126.953125,
      "v": 49
    },
    {
      "midi": 62,
      "hit": false,
      "t": 52031.25,
      "d": 141.6015625,
      "v": 95
    },
    {
      "midi": 66,
      "hit": false,
      "t": 52036.1328125,
      "d": 122.0703125,
      "v": 87
    },
    {
      "midi": 57,
      "hit": false,
      "t": 52041.015625,
      "d": 117.1875,
      "v": 89
    },
    {
      "midi": 62,
      "hit": false,
      "t": 52260.7421875,
      "d": 112.3046875,
      "v": 93
    },
    {
      "midi": 66,
      "hit": false,
      "t": 52265.625,
      "d": 146.484375,
      "v": 97
    },
    {
      "midi": 57,
      "hit": false,
      "t": 52270.5078125,
      "d": 131.8359375,
      "v": 90
    },
    {
      "midi": 67,
      "hit": false,
      "t": 52480.46875,
      "d": 117.1875,
      "v": 72
    },
    {
      "midi": 64,
      "hit": false,
      "t": 52485.3515625,
      "d": 102.5390625,
      "v": 78
    },
    {
      "midi": 45,
      "hit": false,
      "t": 52490.234375,
      "d": 102.5390625,
      "v": 81
    },
    {
      "midi": 55,
      "hit": false,
      "t": 52490.234375,
      "d": 126.953125,
      "v": 78
    },
    {
      "midi": 60,
      "hit": false,
      "t": 52495.1171875,
      "d": 87.890625,
      "v": 76
    },
    {
      "midi": 60,
      "hit": false,
      "t": 52763.671875,
      "d": 83.0078125,
      "v": 47
    },
    {
      "midi": 57,
      "hit": false,
      "t": 52763.671875,
      "d": 112.3046875,
      "v": 34
    },
    {
      "midi": 64,
      "hit": false,
      "t": 52768.5546875,
      "d": 78.125,
      "v": 54
    },
    {
      "midi": 67,
      "hit": false,
      "t": 52773.4375,
      "d": 102.5390625,
      "v": 41
    },
    {
      "midi": 57,
      "hit": false,
      "t": 52963.8671875,
      "d": 126.953125,
      "v": 40
    },
    {
      "midi": 67,
      "hit": false,
      "t": 52968.75,
      "d": 122.0703125,
      "v": 33
    },
    {
      "midi": 60,
      "hit": false,
      "t": 52973.6328125,
      "d": 112.3046875,
      "v": 59
    },
    {
      "midi": 64,
      "hit": false,
      "t": 52973.6328125,
      "d": 112.3046875,
      "v": 53
    },
    {
      "midi": 67,
      "hit": false,
      "t": 53208.0078125,
      "d": 117.1875,
      "v": 60
    },
    {
      "midi": 64,
      "hit": false,
      "t": 53212.890625,
      "d": 107.421875,
      "v": 66
    },
    {
      "midi": 57,
      "hit": false,
      "t": 53212.890625,
      "d": 112.3046875,
      "v": 54
    },
    {
      "midi": 60,
      "hit": false,
      "t": 53217.7734375,
      "d": 97.65625,
      "v": 73
    },
    {
      "midi": 67,
      "hit": false,
      "t": 53422.8515625,
      "d": 107.421875,
      "v": 60
    },
    {
      "midi": 64,
      "hit": false,
      "t": 53427.734375,
      "d": 102.5390625,
      "v": 67
    },
    {
      "midi": 57,
      "hit": false,
      "t": 53432.6171875,
      "d": 87.890625,
      "v": 64
    },
    {
      "midi": 60,
      "hit": false,
      "t": 53432.6171875,
      "d": 92.7734375,
      "v": 69
    },
    {
      "midi": 67,
      "hit": false,
      "t": 53662.109375,
      "d": 107.421875,
      "v": 74
    },
    {
      "midi": 64,
      "hit": false,
      "t": 53666.9921875,
      "d": 97.65625,
      "v": 77
    },
    {
      "midi": 60,
      "hit": false,
      "t": 53671.875,
      "d": 87.890625,
      "v": 80
    },
    {
      "midi": 57,
      "hit": false,
      "t": 53676.7578125,
      "d": 83.0078125,
      "v": 68
    },
    {
      "midi": 67,
      "hit": false,
      "t": 53906.25,
      "d": 107.421875,
      "v": 83
    },
    {
      "midi": 60,
      "hit": false,
      "t": 53911.1328125,
      "d": 107.421875,
      "v": 99
    },
    {
      "midi": 64,
      "hit": false,
      "t": 53911.1328125,
      "d": 117.1875,
      "v": 90
    },
    {
      "midi": 57,
      "hit": false,
      "t": 53916.015625,
      "d": 87.890625,
      "v": 92
    },
    {
      "midi": 67,
      "hit": false,
      "t": 54125.9765625,
      "d": 117.1875,
      "v": 89
    },
    {
      "midi": 64,
      "hit": false,
      "t": 54130.859375,
      "d": 122.0703125,
      "v": 93
    },
    {
      "midi": 57,
      "hit": false,
      "t": 54135.7421875,
      "d": 87.890625,
      "v": 99
    },
    {
      "midi": 60,
      "hit": false,
      "t": 54135.7421875,
      "d": 112.3046875,
      "v": 105
    },
    {
      "midi": 55,
      "hit": false,
      "t": 54140.625,
      "d": 87.890625,
      "v": 78
    },
    {
      "midi": 45,
      "hit": false,
      "t": 54365.234375,
      "d": 151.3671875,
      "v": 79
    },
    {
      "midi": 55,
      "hit": false,
      "t": 54370.1171875,
      "d": 146.484375,
      "v": 92
    },
    {
      "midi": 67,
      "hit": false,
      "t": 54370.1171875,
      "d": 161.1328125,
      "v": 98
    },
    {
      "midi": 57,
      "hit": false,
      "t": 54375,
      "d": 156.25,
      "v": 106
    },
    {
      "midi": 64,
      "hit": false,
      "t": 54379.8828125,
      "d": 161.1328125,
      "v": 108
    },
    {
      "midi": 60,
      "hit": false,
      "t": 54384.765625,
      "d": 151.3671875,
      "v": 112
    },
    {
      "midi": 71,
      "hit": false,
      "t": 56699.21875,
      "d": 551.7578125,
      "v": 66
    },
    {
      "midi": 64,
      "hit": false,
      "t": 56704.1015625,
      "d": 478.515625,
      "v": 67
    },
    {
      "midi": 67,
      "hit": false,
      "t": 56708.984375,
      "d": 498.046875,
      "v": 66
    },
    {
      "midi": 60,
      "hit": false,
      "t": 56713.8671875,
      "d": 483.3984375,
      "v": 84
    },
    {
      "midi": 66,
      "hit": false,
      "t": 57397.4609375,
      "d": 332.03125,
      "v": 78
    },
    {
      "midi": 69,
      "hit": false,
      "t": 57402.34375,
      "d": 454.1015625,
      "v": 51
    },
    {
      "midi": 62,
      "hit": false,
      "t": 57407.2265625,
      "d": 307.6171875,
      "v": 60
    },
    {
      "midi": 64,
      "hit": false,
      "t": 57856.4453125,
      "d": 444.3359375,
      "v": 60
    },
    {
      "midi": 67,
      "hit": false,
      "t": 57866.2109375,
      "d": 439.453125,
      "v": 81
    },
    {
      "midi": 60,
      "hit": false,
      "t": 57880.859375,
      "d": 429.6875,
      "v": 57
    },
    {
      "midi": 66,
      "hit": false,
      "t": 58544.921875,
      "d": 629.8828125,
      "v": 80
    },
    {
      "midi": 59,
      "hit": false,
      "t": 58549.8046875,
      "d": 581.0546875,
      "v": 68
    },
    {
      "midi": 62,
      "hit": false,
      "t": 58554.6875,
      "d": 561.5234375,
      "v": 69
    },
    {
      "midi": 57,
      "hit": false,
      "t": 59272.4609375,
      "d": 341.796875,
      "v": 73
    },
    {
      "midi": 64,
      "hit": false,
      "t": 59272.4609375,
      "d": 498.046875,
      "v": 66
    },
    {
      "midi": 60,
      "hit": false,
      "t": 59282.2265625,
      "d": 322.265625,
      "v": 68
    },
    {
      "midi": 62,
      "hit": false,
      "t": 59746.09375,
      "d": 224.609375,
      "v": 73
    },
    {
      "midi": 66,
      "hit": false,
      "t": 59755.859375,
      "d": 229.4921875,
      "v": 77
    },
    {
      "midi": 57,
      "hit": false,
      "t": 59965.8203125,
      "d": 610.3515625,
      "v": 60
    },
    {
      "midi": 71,
      "hit": false,
      "t": 60449.21875,
      "d": 551.7578125,
      "v": 66
    },
    {
      "midi": 64,
      "hit": false,
      "t": 60454.1015625,
      "d": 478.515625,
      "v": 67
    },
    {
      "midi": 67,
      "hit": false,
      "t": 60458.984375,
      "d": 498.046875,
      "v": 66
    },
    {
      "midi": 60,
      "hit": false,
      "t": 60463.8671875,
      "d": 483.3984375,
      "v": 84
    },
    {
      "midi": 66,
      "hit": false,
      "t": 61147.4609375,
      "d": 332.03125,
      "v": 78
    },
    {
      "midi": 69,
      "hit": false,
      "t": 61152.34375,
      "d": 454.1015625,
      "v": 51
    },
    {
      "midi": 62,
      "hit": false,
      "t": 61157.2265625,
      "d": 307.6171875,
      "v": 60
    },
    {
      "midi": 64,
      "hit": false,
      "t": 61606.4453125,
      "d": 444.3359375,
      "v": 60
    },
    {
      "midi": 67,
      "hit": false,
      "t": 61616.2109375,
      "d": 439.453125,
      "v": 81
    },
    {
      "midi": 60,
      "hit": false,
      "t": 61630.859375,
      "d": 429.6875,
      "v": 57
    },
    {
      "midi": 66,
      "hit": false,
      "t": 62294.921875,
      "d": 629.8828125,
      "v": 80
    },
    {
      "midi": 59,
      "hit": false,
      "t": 62299.8046875,
      "d": 581.0546875,
      "v": 68
    },
    {
      "midi": 62,
      "hit": false,
      "t": 62304.6875,
      "d": 561.5234375,
      "v": 69
    },
    {
      "midi": 57,
      "hit": false,
      "t": 63022.4609375,
      "d": 341.796875,
      "v": 73
    },
    {
      "midi": 64,
      "hit": false,
      "t": 63022.4609375,
      "d": 498.046875,
      "v": 66
    },
    {
      "midi": 60,
      "hit": false,
      "t": 63032.2265625,
      "d": 322.265625,
      "v": 68
    },
    {
      "midi": 62,
      "hit": false,
      "t": 63496.09375,
      "d": 224.609375,
      "v": 73
    },
    {
      "midi": 66,
      "hit": false,
      "t": 63505.859375,
      "d": 229.4921875,
      "v": 77
    },
    {
      "midi": 57,
      "hit": false,
      "t": 63710.9375,
      "d": 605.46875,
      "v": 81
    },
    {
      "midi": 64,
      "hit": false,
      "t": 64213.8671875,
      "d": 634.765625,
      "v": 69
    },
    {
      "midi": 60,
      "hit": false,
      "t": 64218.75,
      "d": 551.7578125,
      "v": 65
    },
    {
      "midi": 66,
      "hit": false,
      "t": 64902.34375,
      "d": 439.453125,
      "v": 69
    },
    {
      "midi": 62,
      "hit": false,
      "t": 64907.2265625,
      "d": 463.8671875,
      "v": 64
    },
    {
      "midi": 64,
      "hit": false,
      "t": 65371.09375,
      "d": 629.8828125,
      "v": 65
    },
    {
      "midi": 67,
      "hit": false,
      "t": 65385.7421875,
      "d": 571.2890625,
      "v": 68
    },
    {
      "midi": 62,
      "hit": false,
      "t": 66074.21875,
      "d": 737.3046875,
      "v": 69
    },
    {
      "midi": 66,
      "hit": false,
      "t": 66079.1015625,
      "d": 688.4765625,
      "v": 76
    },
    {
      "midi": 67,
      "hit": false,
      "t": 66806.640625,
      "d": 478.515625,
      "v": 62
    },
    {
      "midi": 64,
      "hit": false,
      "t": 66821.2890625,
      "d": 454.1015625,
      "v": 72
    },
    {
      "midi": 66,
      "hit": false,
      "t": 67275.390625,
      "d": 234.375,
      "v": 68
    },
    {
      "midi": 62,
      "hit": false,
      "t": 67280.2734375,
      "d": 224.609375,
      "v": 63
    },
    {
      "midi": 57,
      "hit": false,
      "t": 67500,
      "d": 346.6796875,
      "v": 71
    },
    {
      "midi": 57,
      "hit": false,
      "t": 67939.453125,
      "d": 87.890625,
      "v": 69
    },
    {
      "midi": 60,
      "hit": false,
      "t": 67944.3359375,
      "d": 68.359375,
      "v": 72
    },
    {
      "midi": 64,
      "hit": false,
      "t": 67949.21875,
      "d": 78.125,
      "v": 70
    },
    {
      "midi": 57,
      "hit": false,
      "t": 68193.359375,
      "d": 107.421875,
      "v": 49
    },
    {
      "midi": 60,
      "hit": false,
      "t": 68437.5,
      "d": 156.25,
      "v": 86
    },
    {
      "midi": 57,
      "hit": false,
      "t": 68437.5,
      "d": 180.6640625,
      "v": 83
    },
    {
      "midi": 65,
      "hit": false,
      "t": 68442.3828125,
      "d": 190.4296875,
      "v": 80
    },
    {
      "midi": 60,
      "hit": false,
      "t": 68681.640625,
      "d": 302.734375,
      "v": 86
    },
    {
      "midi": 65,
      "hit": false,
      "t": 68686.5234375,
      "d": 434.5703125,
      "v": 80
    },
    {
      "midi": 57,
      "hit": false,
      "t": 68701.171875,
      "d": 312.5,
      "v": 81
    },
    {
      "midi": 60,
      "hit": false,
      "t": 69140.625,
      "d": 341.796875,
      "v": 67
    },
    {
      "midi": 57,
      "hit": false,
      "t": 69145.5078125,
      "d": 175.78125,
      "v": 64
    },
    {
      "midi": 64,
      "hit": false,
      "t": 69150.390625,
      "d": 332.03125,
      "v": 68
    },
    {
      "midi": 57,
      "hit": false,
      "t": 69384.765625,
      "d": 541.9921875,
      "v": 90
    },
    {
      "midi": 71,
      "hit": false,
      "t": 69819.3359375,
      "d": 263.671875,
      "v": 80
    },
    {
      "midi": 60,
      "hit": false,
      "t": 69829.1015625,
      "d": 283.203125,
      "v": 86
    },
    {
      "midi": 67,
      "hit": false,
      "t": 69833.984375,
      "d": 214.84375,
      "v": 76
    },
    {
      "midi": 64,
      "hit": false,
      "t": 69833.984375,
      "d": 239.2578125,
      "v": 90
    },
    {
      "midi": 57,
      "hit": false,
      "t": 70078.125,
      "d": 200.1953125,
      "v": 95
    },
    {
      "midi": 69,
      "hit": false,
      "t": 70546.875,
      "d": 493.1640625,
      "v": 87
    },
    {
      "midi": 66,
      "hit": false,
      "t": 70551.7578125,
      "d": 302.734375,
      "v": 97
    },
    {
      "midi": 62,
      "hit": false,
      "t": 70551.7578125,
      "d": 483.3984375,
      "v": 87
    },
    {
      "midi": 67,
      "hit": false,
      "t": 71015.625,
      "d": 224.609375,
      "v": 66
    },
    {
      "midi": 64,
      "hit": false,
      "t": 71020.5078125,
      "d": 219.7265625,
      "v": 89
    },
    {
      "midi": 60,
      "hit": false,
      "t": 71025.390625,
      "d": 209.9609375,
      "v": 75
    },
    {
      "midi": 57,
      "hit": false,
      "t": 71250,
      "d": 527.34375,
      "v": 95
    },
    {
      "midi": 67,
      "hit": false,
      "t": 71708.984375,
      "d": 561.5234375,
      "v": 83
    },
    {
      "midi": 64,
      "hit": false,
      "t": 71708.984375,
      "d": 571.2890625,
      "v": 90
    },
    {
      "midi": 60,
      "hit": false,
      "t": 71713.8671875,
      "d": 498.046875,
      "v": 82
    },
    {
      "midi": 57,
      "hit": false,
      "t": 71972.65625,
      "d": 205.078125,
      "v": 73
    },
    {
      "midi": 59,
      "hit": false,
      "t": 72197.265625,
      "d": 805.6640625,
      "v": 72
    },
    {
      "midi": 66,
      "hit": false,
      "t": 72412.109375,
      "d": 454.1015625,
      "v": 109
    },
    {
      "midi": 62,
      "hit": false,
      "t": 72416.9921875,
      "d": 366.2109375,
      "v": 85
    },
    {
      "midi": 64,
      "hit": false,
      "t": 72880.859375,
      "d": 258.7890625,
      "v": 78
    },
    {
      "midi": 60,
      "hit": false,
      "t": 72885.7421875,
      "d": 268.5546875,
      "v": 76
    },
    {
      "midi": 57,
      "hit": false,
      "t": 73115.234375,
      "d": 527.34375,
      "v": 66
    },
    {
      "midi": 60,
      "hit": false,
      "t": 73564.453125,
      "d": 322.265625,
      "v": 87
    },
    {
      "midi": 64,
      "hit": false,
      "t": 73564.453125,
      "d": 395.5078125,
      "v": 87
    },
    {
      "midi": 57,
      "hit": false,
      "t": 73808.59375,
      "d": 1127.9296875,
      "v": 60
    },
    {
      "midi": 62,
      "hit": false,
      "t": 74291.9921875,
      "d": 366.2109375,
      "v": 75
    },
    {
      "midi": 66,
      "hit": false,
      "t": 74291.9921875,
      "d": 444.3359375,
      "v": 103
    },
    {
      "midi": 64,
      "hit": false,
      "t": 74755.859375,
      "d": 200.1953125,
      "v": 77
    },
    {
      "midi": 60,
      "hit": false,
      "t": 74765.625,
      "d": 209.9609375,
      "v": 75
    },
    {
      "midi": 57,
      "hit": false,
      "t": 75014.6484375,
      "d": 346.6796875,
      "v": 95
    },
    {
      "midi": 57,
      "hit": false,
      "t": 75439.453125,
      "d": 185.546875,
      "v": 86
    },
    {
      "midi": 64,
      "hit": false,
      "t": 75444.3359375,
      "d": 234.375,
      "v": 90
    },
    {
      "midi": 60,
      "hit": false,
      "t": 75449.21875,
      "d": 229.4921875,
      "v": 90
    },
    {
      "midi": 57,
      "hit": false,
      "t": 75698.2421875,
      "d": 654.296875,
      "v": 75
    },
    {
      "midi": 65,
      "hit": false,
      "t": 75708.0078125,
      "d": 668.9453125,
      "v": 95
    },
    {
      "midi": 60,
      "hit": false,
      "t": 75712.890625,
      "d": 566.40625,
      "v": 51
    },
    {
      "midi": 64,
      "hit": false,
      "t": 76406.25,
      "d": 253.90625,
      "v": 62
    },
    {
      "midi": 57,
      "hit": false,
      "t": 76411.1328125,
      "d": 366.2109375,
      "v": 55
    },
    {
      "midi": 60,
      "hit": false,
      "t": 76416.015625,
      "d": 239.2578125,
      "v": 85
    },
    {
      "midi": 45,
      "hit": false,
      "t": 76860.3515625,
      "d": 1611.328125,
      "v": 103
    },
    {
      "midi": 57,
      "hit": false,
      "t": 76879.8828125,
      "d": 244.140625,
      "v": 103
    },
    {
      "midi": 57,
      "hit": false,
      "t": 77148.4375,
      "d": 200.1953125,
      "v": 76
    },
    {
      "midi": 61,
      "hit": false,
      "t": 77368.1640625,
      "d": 161.1328125,
      "v": 115
    },
    {
      "midi": 64,
      "hit": false,
      "t": 77368.1640625,
      "d": 205.078125,
      "v": 83
    },
    {
      "midi": 57,
      "hit": false,
      "t": 77587.890625,
      "d": 175.78125,
      "v": 65
    },
    {
      "midi": 62,
      "hit": false,
      "t": 77797.8515625,
      "d": 180.6640625,
      "v": 105
    },
    {
      "midi": 59,
      "hit": false,
      "t": 77802.734375,
      "d": 273.4375,
      "v": 57
    },
    {
      "midi": 64,
      "hit": false,
      "t": 78041.9921875,
      "d": 415.0390625,
      "v": 78
    },
    {
      "midi": 61,
      "hit": false,
      "t": 78041.9921875,
      "d": 439.453125,
      "v": 66
    },
    {
      "midi": 57,
      "hit": false,
      "t": 78291.015625,
      "d": 244.140625,
      "v": 89
    },
    {
      "midi": 64,
      "hit": false,
      "t": 78515.625,
      "d": 234.375,
      "v": 73
    },
    {
      "midi": 62,
      "hit": false,
      "t": 78750,
      "d": 346.6796875,
      "v": 92
    },
    {
      "midi": 66,
      "hit": false,
      "t": 78750,
      "d": 346.6796875,
      "v": 93
    },
    {
      "midi": 54,
      "hit": false,
      "t": 78750,
      "d": 351.5625,
      "v": 93
    },
    {
      "midi": 57,
      "hit": false,
      "t": 78750,
      "d": 361.328125,
      "v": 83
    },
    {
      "midi": 54,
      "hit": false,
      "t": 79218.75,
      "d": 390.625,
      "v": 101
    },
    {
      "midi": 62,
      "hit": false,
      "t": 79223.6328125,
      "d": 273.4375,
      "v": 99
    },
    {
      "midi": 57,
      "hit": false,
      "t": 79228.515625,
      "d": 97.65625,
      "v": 80
    },
    {
      "midi": 66,
      "hit": false,
      "t": 79228.515625,
      "d": 263.671875,
      "v": 103
    },
    {
      "midi": 57,
      "hit": false,
      "t": 79453.125,
      "d": 146.484375,
      "v": 81
    },
    {
      "midi": 53,
      "hit": false,
      "t": 79682.6171875,
      "d": 356.4453125,
      "v": 76
    },
    {
      "midi": 65,
      "hit": false,
      "t": 79682.6171875,
      "d": 361.328125,
      "v": 73
    },
    {
      "midi": 60,
      "hit": false,
      "t": 79687.5,
      "d": 356.4453125,
      "v": 97
    },
    {
      "midi": 57,
      "hit": false,
      "t": 79692.3828125,
      "d": 341.796875,
      "v": 92
    },
    {
      "midi": 65,
      "hit": false,
      "t": 80156.25,
      "d": 366.2109375,
      "v": 95
    },
    {
      "midi": 57,
      "hit": false,
      "t": 80156.25,
      "d": 419.921875,
      "v": 87
    },
    {
      "midi": 53,
      "hit": false,
      "t": 80161.1328125,
      "d": 468.75,
      "v": 85
    },
    {
      "midi": 60,
      "hit": false,
      "t": 80405.2734375,
      "d": 166.015625,
      "v": 93
    },
    {
      "midi": 64,
      "hit": false,
      "t": 80625,
      "d": 288.0859375,
      "v": 101
    },
    {
      "midi": 60,
      "hit": false,
      "t": 80625,
      "d": 297.8515625,
      "v": 107
    },
    {
      "midi": 45,
      "hit": false,
      "t": 80625,
      "d": 913.0859375,
      "v": 77
    },
    {
      "midi": 64,
      "hit": false,
      "t": 81093.75,
      "d": 297.8515625,
      "v": 101
    },
    {
      "midi": 60,
      "hit": false,
      "t": 81098.6328125,
      "d": 234.375,
      "v": 105
    },
    {
      "midi": 57,
      "hit": false,
      "t": 81347.65625,
      "d": 185.546875,
      "v": 56
    },
    {
      "midi": 62,
      "hit": false,
      "t": 81567.3828125,
      "d": 185.546875,
      "v": 99
    },
    {
      "midi": 59,
      "hit": false,
      "t": 81567.3828125,
      "d": 288.0859375,
      "v": 95
    },
    {
      "midi": 60,
      "hit": false,
      "t": 81811.5234375,
      "d": 224.609375,
      "v": 87
    },
    {
      "midi": 64,
      "hit": false,
      "t": 81811.5234375,
      "d": 229.4921875,
      "v": 87
    },
    {
      "midi": 57,
      "hit": false,
      "t": 82031.25,
      "d": 268.5546875,
      "v": 81
    },
    {
      "midi": 64,
      "hit": false,
      "t": 82270.5078125,
      "d": 205.078125,
      "v": 80
    },
    {
      "midi": 60,
      "hit": false,
      "t": 82275.390625,
      "d": 200.1953125,
      "v": 44
    },
    {
      "midi": 64,
      "hit": false,
      "t": 82500,
      "d": 410.15625,
      "v": 75
    },
    {
      "midi": 59,
      "hit": false,
      "t": 82504.8828125,
      "d": 371.09375,
      "v": 93
    },
    {
      "midi": 52,
      "hit": false,
      "t": 82504.8828125,
      "d": 1142.578125,
      "v": 99
    },
    {
      "midi": 59,
      "hit": false,
      "t": 82983.3984375,
      "d": 209.9609375,
      "v": 113
    },
    {
      "midi": 64,
      "hit": false,
      "t": 82988.28125,
      "d": 263.671875,
      "v": 105
    },
    {
      "midi": 55,
      "hit": false,
      "t": 83188.4765625,
      "d": 224.609375,
      "v": 46
    },
    {
      "midi": 62,
      "hit": false,
      "t": 83437.5,
      "d": 200.1953125,
      "v": 107
    },
    {
      "midi": 59,
      "hit": false,
      "t": 83437.5,
      "d": 297.8515625,
      "v": 107
    },
    {
      "midi": 64,
      "hit": false,
      "t": 83681.640625,
      "d": 478.515625,
      "v": 82
    },
    {
      "midi": 55,
      "hit": false,
      "t": 83886.71875,
      "d": 229.4921875,
      "v": 57
    },
    {
      "midi": 57,
      "hit": false,
      "t": 84121.09375,
      "d": 244.140625,
      "v": 98
    },
    {
      "midi": 63,
      "hit": false,
      "t": 84248.046875,
      "d": 68.359375,
      "v": 87
    },
    {
      "midi": 64,
      "hit": false,
      "t": 84296.875,
      "d": 205.078125,
      "v": 117
    },
    {
      "midi": 69,
      "hit": false,
      "t": 84404.296875,
      "d": 302.734375,
      "v": 101
    },
    {
      "midi": 63,
      "hit": false,
      "t": 84697.265625,
      "d": 107.421875,
      "v": 99
    },
    {
      "midi": 62,
      "hit": false,
      "t": 84760.7421875,
      "d": 78.125,
      "v": 73
    },
    {
      "midi": 60,
      "hit": false,
      "t": 84809.5703125,
      "d": 92.7734375,
      "v": 97
    },
    {
      "midi": 57,
      "hit": false,
      "t": 84877.9296875,
      "d": 249.0234375,
      "v": 83
    },
    {
      "midi": 60,
      "hit": false,
      "t": 85078.125,
      "d": 102.5390625,
      "v": 105
    },
    {
      "midi": 57,
      "hit": false,
      "t": 85131.8359375,
      "d": 87.890625,
      "v": 95
    },
    {
      "midi": 55,
      "hit": false,
      "t": 85205.078125,
      "d": 107.421875,
      "v": 90
    },
    {
      "midi": 52,
      "hit": false,
      "t": 85292.96875,
      "d": 97.65625,
      "v": 71
    },
    {
      "midi": 57,
      "hit": false,
      "t": 85361.328125,
      "d": 214.84375,
      "v": 84
    },
    {
      "midi": 60,
      "hit": false,
      "t": 85556.640625,
      "d": 224.609375,
      "v": 109
    },
    {
      "midi": 57,
      "hit": false,
      "t": 85781.25,
      "d": 273.4375,
      "v": 106
    },
    {
      "midi": 55,
      "hit": false,
      "t": 86025.390625,
      "d": 190.4296875,
      "v": 81
    },
    {
      "midi": 54,
      "hit": false,
      "t": 86264.6484375,
      "d": 332.03125,
      "v": 78
    },
    {
      "midi": 54,
      "hit": false,
      "t": 86684.5703125,
      "d": 322.265625,
      "v": 94
    },
    {
      "midi": 66,
      "hit": false,
      "t": 86689.453125,
      "d": 258.7890625,
      "v": 114
    },
    {
      "midi": 62,
      "hit": false,
      "t": 86694.3359375,
      "d": 253.90625,
      "v": 98
    },
    {
      "midi": 57,
      "hit": false,
      "t": 86928.7109375,
      "d": 209.9609375,
      "v": 62
    },
    {
      "midi": 53,
      "hit": false,
      "t": 87158.203125,
      "d": 341.796875,
      "v": 86
    },
    {
      "midi": 60,
      "hit": false,
      "t": 87158.203125,
      "d": 458.984375,
      "v": 105
    },
    {
      "midi": 65,
      "hit": false,
      "t": 87163.0859375,
      "d": 458.984375,
      "v": 95
    },
    {
      "midi": 65,
      "hit": false,
      "t": 87646.484375,
      "d": 332.03125,
      "v": 87
    },
    {
      "midi": 60,
      "hit": false,
      "t": 87651.3671875,
      "d": 278.3203125,
      "v": 97
    },
    {
      "midi": 53,
      "hit": false,
      "t": 87656.25,
      "d": 302.734375,
      "v": 80
    },
    {
      "midi": 57,
      "hit": false,
      "t": 87910.15625,
      "d": 141.6015625,
      "v": 76
    },
    {
      "midi": 48,
      "hit": false,
      "t": 88134.765625,
      "d": 615.234375,
      "v": 103
    },
    {
      "midi": 55,
      "hit": false,
      "t": 88388.671875,
      "d": 234.375,
      "v": 60
    },
    {
      "midi": 60,
      "hit": false,
      "t": 88603.515625,
      "d": 224.609375,
      "v": 109
    },
    {
      "midi": 64,
      "hit": false,
      "t": 88603.515625,
      "d": 385.7421875,
      "v": 101
    },
    {
      "midi": 55,
      "hit": false,
      "t": 88818.359375,
      "d": 234.375,
      "v": 60
    },
    {
      "midi": 48,
      "hit": false,
      "t": 88828.125,
      "d": 1025.390625,
      "v": 60
    },
    {
      "midi": 62,
      "hit": false,
      "t": 89072.265625,
      "d": 180.6640625,
      "v": 99
    },
    {
      "midi": 59,
      "hit": false,
      "t": 89072.265625,
      "d": 214.84375,
      "v": 97
    },
    {
      "midi": 64,
      "hit": false,
      "t": 89291.9921875,
      "d": 644.53125,
      "v": 82
    },
    {
      "midi": 60,
      "hit": false,
      "t": 89306.640625,
      "d": 429.6875,
      "v": 78
    },
    {
      "midi": 55,
      "hit": false,
      "t": 89531.25,
      "d": 283.203125,
      "v": 76
    },
    {
      "midi": 60,
      "hit": false,
      "t": 89775.390625,
      "d": 234.375,
      "v": 102
    },
    {
      "midi": 56,
      "hit": false,
      "t": 90000,
      "d": 97.65625,
      "v": 72
    },
    {
      "midi": 59,
      "hit": false,
      "t": 90000,
      "d": 166.015625,
      "v": 66
    },
    {
      "midi": 62,
      "hit": false,
      "t": 90009.765625,
      "d": 92.7734375,
      "v": 66
    },
    {
      "midi": 64,
      "hit": false,
      "t": 90014.6484375,
      "d": 97.65625,
      "v": 60
    },
    {
      "midi": 52,
      "hit": false,
      "t": 90019.53125,
      "d": 68.359375,
      "v": 47
    },
    {
      "midi": 52,
      "hit": false,
      "t": 90224.609375,
      "d": 97.65625,
      "v": 52
    },
    {
      "midi": 64,
      "hit": false,
      "t": 90229.4921875,
      "d": 112.3046875,
      "v": 62
    },
    {
      "midi": 56,
      "hit": false,
      "t": 90234.375,
      "d": 97.65625,
      "v": 66
    },
    {
      "midi": 62,
      "hit": false,
      "t": 90239.2578125,
      "d": 92.7734375,
      "v": 70
    },
    {
      "midi": 59,
      "hit": false,
      "t": 90239.2578125,
      "d": 107.421875,
      "v": 60
    },
    {
      "midi": 52,
      "hit": false,
      "t": 90468.75,
      "d": 92.7734375,
      "v": 56
    },
    {
      "midi": 56,
      "hit": false,
      "t": 90473.6328125,
      "d": 107.421875,
      "v": 75
    },
    {
      "midi": 62,
      "hit": false,
      "t": 90478.515625,
      "d": 107.421875,
      "v": 71
    },
    {
      "midi": 64,
      "hit": false,
      "t": 90478.515625,
      "d": 107.421875,
      "v": 71
    },
    {
      "midi": 59,
      "hit": false,
      "t": 90483.3984375,
      "d": 112.3046875,
      "v": 67
    },
    {
      "midi": 56,
      "hit": false,
      "t": 90698.2421875,
      "d": 122.0703125,
      "v": 80
    },
    {
      "midi": 52,
      "hit": false,
      "t": 90703.125,
      "d": 107.421875,
      "v": 66
    },
    {
      "midi": 62,
      "hit": false,
      "t": 90712.890625,
      "d": 117.1875,
      "v": 82
    },
    {
      "midi": 59,
      "hit": false,
      "t": 90712.890625,
      "d": 122.0703125,
      "v": 82
    },
    {
      "midi": 64,
      "hit": false,
      "t": 90717.7734375,
      "d": 102.5390625,
      "v": 81
    },
    {
      "midi": 56,
      "hit": false,
      "t": 90937.5,
      "d": 107.421875,
      "v": 81
    },
    {
      "midi": 52,
      "hit": false,
      "t": 90942.3828125,
      "d": 97.65625,
      "v": 75
    },
    {
      "midi": 64,
      "hit": false,
      "t": 90947.265625,
      "d": 107.421875,
      "v": 87
    },
    {
      "midi": 62,
      "hit": false,
      "t": 90947.265625,
      "d": 112.3046875,
      "v": 93
    },
    {
      "midi": 59,
      "hit": false,
      "t": 90952.1484375,
      "d": 112.3046875,
      "v": 85
    },
    {
      "midi": 56,
      "hit": false,
      "t": 91162.109375,
      "d": 112.3046875,
      "v": 85
    },
    {
      "midi": 52,
      "hit": false,
      "t": 91166.9921875,
      "d": 92.7734375,
      "v": 77
    },
    {
      "midi": 62,
      "hit": false,
      "t": 91171.875,
      "d": 112.3046875,
      "v": 97
    },
    {
      "midi": 64,
      "hit": false,
      "t": 91176.7578125,
      "d": 102.5390625,
      "v": 90
    },
    {
      "midi": 59,
      "hit": false,
      "t": 91181.640625,
      "d": 102.5390625,
      "v": 90
    },
    {
      "midi": 56,
      "hit": false,
      "t": 91401.3671875,
      "d": 107.421875,
      "v": 93
    },
    {
      "midi": 52,
      "hit": false,
      "t": 91411.1328125,
      "d": 92.7734375,
      "v": 83
    },
    {
      "midi": 62,
      "hit": false,
      "t": 91416.015625,
      "d": 97.65625,
      "v": 107
    },
    {
      "midi": 64,
      "hit": false,
      "t": 91420.8984375,
      "d": 87.890625,
      "v": 99
    },
    {
      "midi": 59,
      "hit": false,
      "t": 91420.8984375,
      "d": 92.7734375,
      "v": 99
    },
    {
      "midi": 56,
      "hit": false,
      "t": 91630.859375,
      "d": 102.5390625,
      "v": 89
    },
    {
      "midi": 52,
      "hit": false,
      "t": 91635.7421875,
      "d": 92.7734375,
      "v": 82
    },
    {
      "midi": 62,
      "hit": false,
      "t": 91645.5078125,
      "d": 107.421875,
      "v": 97
    },
    {
      "midi": 64,
      "hit": false,
      "t": 91650.390625,
      "d": 92.7734375,
      "v": 90
    },
    {
      "midi": 59,
      "hit": false,
      "t": 91655.2734375,
      "d": 102.5390625,
      "v": 90
    },
    {
      "midi": 52,
      "hit": false,
      "t": 91870.1171875,
      "d": 97.65625,
      "v": 89
    },
    {
      "midi": 56,
      "hit": false,
      "t": 91870.1171875,
      "d": 107.421875,
      "v": 99
    },
    {
      "midi": 62,
      "hit": false,
      "t": 91879.8828125,
      "d": 107.421875,
      "v": 105
    },
    {
      "midi": 64,
      "hit": false,
      "t": 91884.765625,
      "d": 87.890625,
      "v": 99
    },
    {
      "midi": 59,
      "hit": false,
      "t": 91884.765625,
      "d": 92.7734375,
      "v": 99
    },
    {
      "midi": 52,
      "hit": false,
      "t": 92109.375,
      "d": 102.5390625,
      "v": 89
    },
    {
      "midi": 56,
      "hit": false,
      "t": 92109.375,
      "d": 107.421875,
      "v": 101
    },
    {
      "midi": 62,
      "hit": false,
      "t": 92114.2578125,
      "d": 102.5390625,
      "v": 107
    },
    {
      "midi": 59,
      "hit": false,
      "t": 92119.140625,
      "d": 92.7734375,
      "v": 99
    },
    {
      "midi": 64,
      "hit": false,
      "t": 92124.0234375,
      "d": 83.0078125,
      "v": 101
    },
    {
      "midi": 56,
      "hit": false,
      "t": 92333.984375,
      "d": 112.3046875,
      "v": 103
    },
    {
      "midi": 52,
      "hit": false,
      "t": 92338.8671875,
      "d": 102.5390625,
      "v": 90
    },
    {
      "midi": 62,
      "hit": false,
      "t": 92343.75,
      "d": 107.421875,
      "v": 111
    },
    {
      "midi": 64,
      "hit": false,
      "t": 92348.6328125,
      "d": 92.7734375,
      "v": 101
    },
    {
      "midi": 59,
      "hit": false,
      "t": 92353.515625,
      "d": 92.7734375,
      "v": 101
    },
    {
      "midi": 56,
      "hit": false,
      "t": 92578.125,
      "d": 112.3046875,
      "v": 113
    },
    {
      "midi": 52,
      "hit": false,
      "t": 92583.0078125,
      "d": 92.7734375,
      "v": 99
    },
    {
      "midi": 59,
      "hit": false,
      "t": 92587.890625,
      "d": 87.890625,
      "v": 103
    },
    {
      "midi": 64,
      "hit": false,
      "t": 92592.7734375,
      "d": 83.0078125,
      "v": 103
    },
    {
      "midi": 62,
      "hit": false,
      "t": 92592.7734375,
      "d": 92.7734375,
      "v": 113
    },
    {
      "midi": 62,
      "hit": false,
      "t": 92807.6171875,
      "d": 102.5390625,
      "v": 111
    },
    {
      "midi": 56,
      "hit": false,
      "t": 92812.5,
      "d": 97.65625,
      "v": 111
    },
    {
      "midi": 59,
      "hit": false,
      "t": 92817.3828125,
      "d": 83.0078125,
      "v": 107
    },
    {
      "midi": 64,
      "hit": false,
      "t": 92817.3828125,
      "d": 83.0078125,
      "v": 103
    },
    {
      "midi": 52,
      "hit": false,
      "t": 92822.265625,
      "d": 78.125,
      "v": 99
    },
    {
      "midi": 62,
      "hit": false,
      "t": 93041.9921875,
      "d": 117.1875,
      "v": 117
    },
    {
      "midi": 59,
      "hit": false,
      "t": 93046.875,
      "d": 87.890625,
      "v": 109
    },
    {
      "midi": 64,
      "hit": false,
      "t": 93051.7578125,
      "d": 92.7734375,
      "v": 109
    },
    {
      "midi": 56,
      "hit": false,
      "t": 93056.640625,
      "d": 87.890625,
      "v": 119
    },
    {
      "midi": 52,
      "hit": false,
      "t": 93056.640625,
      "d": 102.5390625,
      "v": 105
    },
    {
      "midi": 52,
      "hit": false,
      "t": 93276.3671875,
      "d": 92.7734375,
      "v": 103
    },
    {
      "midi": 56,
      "hit": false,
      "t": 93276.3671875,
      "d": 92.7734375,
      "v": 119
    },
    {
      "midi": 62,
      "hit": false,
      "t": 93281.25,
      "d": 117.1875,
      "v": 111
    },
    {
      "midi": 59,
      "hit": false,
      "t": 93286.1328125,
      "d": 87.890625,
      "v": 101
    },
    {
      "midi": 64,
      "hit": false,
      "t": 93291.015625,
      "d": 97.65625,
      "v": 105
    },
    {
      "midi": 56,
      "hit": false,
      "t": 93510.7421875,
      "d": 87.890625,
      "v": 126
    },
    {
      "midi": 52,
      "hit": false,
      "t": 93515.625,
      "d": 92.7734375,
      "v": 115
    },
    {
      "midi": 64,
      "hit": false,
      "t": 93520.5078125,
      "d": 141.6015625,
      "v": 121
    },
    {
      "midi": 62,
      "hit": false,
      "t": 93520.5078125,
      "d": 166.015625,
      "v": 127
    },
    {
      "midi": 59,
      "hit": false,
      "t": 93525.390625,
      "d": 117.1875,
      "v": 115
    },
    {
      "midi": 45,
      "hit": false,
      "t": 93754.8828125,
      "d": 839.84375,
      "v": 113
    },
    {
      "midi": 64,
      "hit": false,
      "t": 93994.140625,
      "d": 117.1875,
      "v": 89
    },
    {
      "midi": 60,
      "hit": false,
      "t": 93994.140625,
      "d": 122.0703125,
      "v": 95
    },
    {
      "midi": 57,
      "hit": false,
      "t": 93999.0234375,
      "d": 97.65625,
      "v": 89
    },
    {
      "midi": 57,
      "hit": false,
      "t": 94208.984375,
      "d": 78.125,
      "v": 99
    },
    {
      "midi": 64,
      "hit": false,
      "t": 94208.984375,
      "d": 273.4375,
      "v": 111
    },
    {
      "midi": 60,
      "hit": false,
      "t": 94213.8671875,
      "d": 268.5546875,
      "v": 115
    },
    {
      "midi": 57,
      "hit": false,
      "t": 94453.125,
      "d": 249.0234375,
      "v": 93
    },
    {
      "midi": 50,
      "hit": false,
      "t": 94658.203125,
      "d": 820.3125,
      "v": 113
    },
    {
      "midi": 66,
      "hit": false,
      "t": 94921.875,
      "d": 97.65625,
      "v": 123
    },
    {
      "midi": 62,
      "hit": false,
      "t": 94926.7578125,
      "d": 97.65625,
      "v": 113
    },
    {
      "midi": 57,
      "hit": false,
      "t": 94931.640625,
      "d": 78.125,
      "v": 105
    },
    {
      "midi": 66,
      "hit": false,
      "t": 95146.484375,
      "d": 219.7265625,
      "v": 123
    },
    {
      "midi": 57,
      "hit": false,
      "t": 95146.484375,
      "d": 366.2109375,
      "v": 107
    },
    {
      "midi": 62,
      "hit": false,
      "t": 95151.3671875,
      "d": 126.953125,
      "v": 117
    },
    {
      "midi": 64,
      "hit": false,
      "t": 95380.859375,
      "d": 151.3671875,
      "v": 85
    },
    {
      "midi": 60,
      "hit": false,
      "t": 95380.859375,
      "d": 156.25,
      "v": 92
    },
    {
      "midi": 45,
      "hit": false,
      "t": 95625,
      "d": 571.2890625,
      "v": 92
    },
    {
      "midi": 60,
      "hit": false,
      "t": 95869.140625,
      "d": 117.1875,
      "v": 90
    },
    {
      "midi": 64,
      "hit": false,
      "t": 95869.140625,
      "d": 126.953125,
      "v": 85
    },
    {
      "midi": 57,
      "hit": false,
      "t": 95874.0234375,
      "d": 107.421875,
      "v": 83
    },
    {
      "midi": 57,
      "hit": false,
      "t": 96088.8671875,
      "d": 166.015625,
      "v": 101
    },
    {
      "midi": 64,
      "hit": false,
      "t": 96088.8671875,
      "d": 283.203125,
      "v": 109
    },
    {
      "midi": 60,
      "hit": false,
      "t": 96093.75,
      "d": 244.140625,
      "v": 111
    },
    {
      "midi": 45,
      "hit": false,
      "t": 96318.359375,
      "d": 229.4921875,
      "v": 87
    },
    {
      "midi": 57,
      "hit": false,
      "t": 96333.0078125,
      "d": 131.8359375,
      "v": 65
    },
    {
      "midi": 57,
      "hit": false,
      "t": 96562.5,
      "d": 180.6640625,
      "v": 109
    },
    {
      "midi": 53,
      "hit": false,
      "t": 96562.5,
      "d": 830.078125,
      "v": 89
    },
    {
      "midi": 65,
      "hit": false,
      "t": 96567.3828125,
      "d": 170.8984375,
      "v": 103
    },
    {
      "midi": 60,
      "hit": false,
      "t": 96567.3828125,
      "d": 185.546875,
      "v": 64
    },
    {
      "midi": 57,
      "hit": false,
      "t": 96796.875,
      "d": 180.6640625,
      "v": 84
    },
    {
      "midi": 65,
      "hit": false,
      "t": 96801.7578125,
      "d": 170.8984375,
      "v": 84
    },
    {
      "midi": 60,
      "hit": false,
      "t": 96806.640625,
      "d": 185.546875,
      "v": 84
    },
    {
      "midi": 57,
      "hit": false,
      "t": 97055.6640625,
      "d": 473.6328125,
      "v": 107
    },
    {
      "midi": 65,
      "hit": false,
      "t": 97060.546875,
      "d": 258.7890625,
      "v": 113
    },
    {
      "midi": 60,
      "hit": false,
      "t": 97060.546875,
      "d": 468.75,
      "v": 119
    },
    {
      "midi": 45,
      "hit": false,
      "t": 97519.53125,
      "d": 874.0234375,
      "v": 109
    },
    {
      "midi": 57,
      "hit": false,
      "t": 97758.7890625,
      "d": 78.125,
      "v": 81
    },
    {
      "midi": 64,
      "hit": false,
      "t": 97763.671875,
      "d": 73.2421875,
      "v": 87
    },
    {
      "midi": 60,
      "hit": false,
      "t": 97768.5546875,
      "d": 63.4765625,
      "v": 87
    },
    {
      "midi": 60,
      "hit": false,
      "t": 97988.28125,
      "d": 268.5546875,
      "v": 117
    },
    {
      "midi": 57,
      "hit": false,
      "t": 97993.1640625,
      "d": 68.359375,
      "v": 97
    },
    {
      "midi": 64,
      "hit": false,
      "t": 97993.1640625,
      "d": 268.5546875,
      "v": 109
    },
    {
      "midi": 57,
      "hit": false,
      "t": 98212.890625,
      "d": 117.1875,
      "v": 89
    },
    {
      "midi": 50,
      "hit": false,
      "t": 98447.265625,
      "d": 859.375,
      "v": 109
    },
    {
      "midi": 57,
      "hit": false,
      "t": 98666.9921875,
      "d": 63.4765625,
      "v": 85
    },
    {
      "midi": 62,
      "hit": false,
      "t": 98671.875,
      "d": 53.7109375,
      "v": 99
    },
    {
      "midi": 66,
      "hit": false,
      "t": 98671.875,
      "d": 58.59375,
      "v": 105
    },
    {
      "midi": 66,
      "hit": false,
      "t": 98911.1328125,
      "d": 224.609375,
      "v": 125
    },
    {
      "midi": 62,
      "hit": false,
      "t": 98916.015625,
      "d": 156.25,
      "v": 119
    },
    {
      "midi": 57,
      "hit": false,
      "t": 98916.015625,
      "d": 327.1484375,
      "v": 101
    },
    {
      "midi": 64,
      "hit": false,
      "t": 99150.390625,
      "d": 122.0703125,
      "v": 71
    },
    {
      "midi": 60,
      "hit": false,
      "t": 99160.15625,
      "d": 117.1875,
      "v": 81
    },
    {
      "midi": 45,
      "hit": false,
      "t": 99350.5859375,
      "d": 922.8515625,
      "v": 75
    },
    {
      "midi": 57,
      "hit": false,
      "t": 99619.140625,
      "d": 87.890625,
      "v": 90
    },
    {
      "midi": 64,
      "hit": false,
      "t": 99843.75,
      "d": 288.0859375,
      "v": 109
    },
    {
      "midi": 60,
      "hit": false,
      "t": 99848.6328125,
      "d": 273.4375,
      "v": 109
    },
    {
      "midi": 57,
      "hit": false,
      "t": 99853.515625,
      "d": 87.890625,
      "v": 87
    },
    {
      "midi": 57,
      "hit": false,
      "t": 100078.125,
      "d": 146.484375,
      "v": 71
    },
    {
      "midi": 53,
      "hit": false,
      "t": 100297.8515625,
      "d": 810.546875,
      "v": 93
    },
    {
      "midi": 57,
      "hit": false,
      "t": 100532.2265625,
      "d": 263.671875,
      "v": 89
    },
    {
      "midi": 60,
      "hit": false,
      "t": 100756.8359375,
      "d": 244.140625,
      "v": 115
    },
    {
      "midi": 65,
      "hit": false,
      "t": 100761.71875,
      "d": 268.5546875,
      "v": 107
    },
    {
      "midi": 57,
      "hit": false,
      "t": 100976.5625,
      "d": 131.8359375,
      "v": 67
    },
    {
      "midi": 45,
      "hit": false,
      "t": 101220.703125,
      "d": 893.5546875,
      "v": 92
    },
    {
      "midi": 57,
      "hit": false,
      "t": 101474.609375,
      "d": 170.8984375,
      "v": 77
    },
    {
      "midi": 64,
      "hit": false,
      "t": 101713.8671875,
      "d": 214.84375,
      "v": 107
    },
    {
      "midi": 60,
      "hit": false,
      "t": 101718.75,
      "d": 214.84375,
      "v": 109
    },
    {
      "midi": 57,
      "hit": false,
      "t": 101938.4765625,
      "d": 136.71875,
      "v": 64
    },
    {
      "midi": 50,
      "hit": false,
      "t": 102192.3828125,
      "d": 854.4921875,
      "v": 115
    },
    {
      "midi": 62,
      "hit": false,
      "t": 102197.265625,
      "d": 92.7734375,
      "v": 50
    },
    {
      "midi": 66,
      "hit": false,
      "t": 102197.265625,
      "d": 102.5390625,
      "v": 54
    },
    {
      "midi": 57,
      "hit": false,
      "t": 102202.1484375,
      "d": 107.421875,
      "v": 44
    },
    {
      "midi": 66,
      "hit": false,
      "t": 102397.4609375,
      "d": 151.3671875,
      "v": 64
    },
    {
      "midi": 57,
      "hit": false,
      "t": 102407.2265625,
      "d": 122.0703125,
      "v": 45
    },
    {
      "midi": 62,
      "hit": false,
      "t": 102412.109375,
      "d": 126.953125,
      "v": 49
    },
    {
      "midi": 62,
      "hit": false,
      "t": 102656.25,
      "d": 141.6015625,
      "v": 95
    },
    {
      "midi": 66,
      "hit": false,
      "t": 102661.1328125,
      "d": 122.0703125,
      "v": 87
    },
    {
      "midi": 57,
      "hit": false,
      "t": 102666.015625,
      "d": 117.1875,
      "v": 89
    },
    {
      "midi": 62,
      "hit": false,
      "t": 102885.7421875,
      "d": 112.3046875,
      "v": 93
    },
    {
      "midi": 66,
      "hit": false,
      "t": 102890.625,
      "d": 146.484375,
      "v": 97
    },
    {
      "midi": 57,
      "hit": false,
      "t": 102895.5078125,
      "d": 131.8359375,
      "v": 90
    },
    {
      "midi": 67,
      "hit": false,
      "t": 103105.46875,
      "d": 117.1875,
      "v": 72
    },
    {
      "midi": 45,
      "hit": false,
      "t": 103115.234375,
      "d": 102.5390625,
      "v": 81
    },
    {
      "midi": 55,
      "hit": false,
      "t": 103115.234375,
      "d": 126.953125,
      "v": 78
    },
    {
      "midi": 60,
      "hit": false,
      "t": 103120.1171875,
      "d": 87.890625,
      "v": 76
    },
    {
      "midi": 60,
      "hit": false,
      "t": 103388.671875,
      "d": 83.0078125,
      "v": 47
    },
    {
      "midi": 57,
      "hit": false,
      "t": 103388.671875,
      "d": 112.3046875,
      "v": 34
    },
    {
      "midi": 67,
      "hit": false,
      "t": 103398.4375,
      "d": 102.5390625,
      "v": 41
    },
    {
      "midi": 57,
      "hit": false,
      "t": 103588.8671875,
      "d": 126.953125,
      "v": 40
    },
    {
      "midi": 67,
      "hit": false,
      "t": 103593.75,
      "d": 122.0703125,
      "v": 33
    },
    {
      "midi": 60,
      "hit": false,
      "t": 103598.6328125,
      "d": 112.3046875,
      "v": 59
    },
    {
      "midi": 67,
      "hit": false,
      "t": 103833.0078125,
      "d": 117.1875,
      "v": 60
    },
    {
      "midi": 57,
      "hit": false,
      "t": 103837.890625,
      "d": 112.3046875,
      "v": 54
    },
    {
      "midi": 60,
      "hit": false,
      "t": 103842.7734375,
      "d": 97.65625,
      "v": 73
    },
    {
      "midi": 67,
      "hit": false,
      "t": 104047.8515625,
      "d": 107.421875,
      "v": 60
    },
    {
      "midi": 57,
      "hit": false,
      "t": 104057.6171875,
      "d": 87.890625,
      "v": 64
    },
    {
      "midi": 60,
      "hit": false,
      "t": 104057.6171875,
      "d": 92.7734375,
      "v": 69
    },
    {
      "midi": 67,
      "hit": false,
      "t": 104287.109375,
      "d": 107.421875,
      "v": 74
    },
    {
      "midi": 60,
      "hit": false,
      "t": 104296.875,
      "d": 87.890625,
      "v": 80
    },
    {
      "midi": 57,
      "hit": false,
      "t": 104301.7578125,
      "d": 83.0078125,
      "v": 68
    },
    {
      "midi": 67,
      "hit": false,
      "t": 104531.25,
      "d": 107.421875,
      "v": 83
    },
    {
      "midi": 60,
      "hit": false,
      "t": 104536.1328125,
      "d": 107.421875,
      "v": 99
    },
    {
      "midi": 64,
      "hit": false,
      "t": 104536.1328125,
      "d": 117.1875,
      "v": 90
    },
    {
      "midi": 57,
      "hit": false,
      "t": 104541.015625,
      "d": 87.890625,
      "v": 92
    },
    {
      "midi": 67,
      "hit": false,
      "t": 104750.9765625,
      "d": 117.1875,
      "v": 89
    },
    {
      "midi": 64,
      "hit": false,
      "t": 104755.859375,
      "d": 122.0703125,
      "v": 93
    },
    {
      "midi": 57,
      "hit": false,
      "t": 104760.7421875,
      "d": 87.890625,
      "v": 99
    },
    {
      "midi": 60,
      "hit": false,
      "t": 104760.7421875,
      "d": 112.3046875,
      "v": 105
    },
    {
      "midi": 55,
      "hit": false,
      "t": 104765.625,
      "d": 87.890625,
      "v": 78
    },
    {
      "midi": 45,
      "hit": false,
      "t": 104990.234375,
      "d": 151.3671875,
      "v": 79
    },
    {
      "midi": 55,
      "hit": false,
      "t": 104995.1171875,
      "d": 146.484375,
      "v": 92
    },
    {
      "midi": 67,
      "hit": false,
      "t": 104995.1171875,
      "d": 161.1328125,
      "v": 98
    },
    {
      "midi": 57,
      "hit": false,
      "t": 105000,
      "d": 156.25,
      "v": 106
    },
    {
      "midi": 64,
      "hit": false,
      "t": 105004.8828125,
      "d": 161.1328125,
      "v": 108
    },
    {
      "midi": 60,
      "hit": false,
      "t": 105009.765625,
      "d": 151.3671875,
      "v": 112
    },
    {
      "midi": 75,
      "hit": false,
      "t": 105966.796875,
      "d": 19.53125,
      "v": 117
    },
    {
      "midi": 81,
      "hit": false,
      "t": 105971.6796875,
      "d": 107.421875,
      "v": 99
    },
    {
      "midi": 75,
      "hit": false,
      "t": 105976.5625,
      "d": 19.53125,
      "v": 117
    },
    {
      "midi": 81,
      "hit": false,
      "t": 105981.4453125,
      "d": 107.421875,
      "v": 99
    },
    {
      "midi": 76,
      "hit": false,
      "t": 105981.4453125,
      "d": 87.890625,
      "v": 119
    },
    {
      "midi": 76,
      "hit": false,
      "t": 105991.2109375,
      "d": 87.890625,
      "v": 119
    },
    {
      "midi": 76,
      "hit": false,
      "t": 106201.171875,
      "d": 92.7734375,
      "v": 107
    },
    {
      "midi": 81,
      "hit": false,
      "t": 106201.171875,
      "d": 107.421875,
      "v": 99
    },
    {
      "midi": 76,
      "hit": false,
      "t": 106210.9375,
      "d": 92.7734375,
      "v": 107
    },
    {
      "midi": 81,
      "hit": false,
      "t": 106210.9375,
      "d": 107.421875,
      "v": 99
    },
    {
      "midi": 75,
      "hit": false,
      "t": 106420.8984375,
      "d": 24.4140625,
      "v": 123
    },
    {
      "midi": 81,
      "hit": false,
      "t": 106425.78125,
      "d": 126.953125,
      "v": 75
    },
    {
      "midi": 75,
      "hit": false,
      "t": 106430.6640625,
      "d": 24.4140625,
      "v": 123
    },
    {
      "midi": 81,
      "hit": false,
      "t": 106435.546875,
      "d": 126.953125,
      "v": 75
    },
    {
      "midi": 76,
      "hit": false,
      "t": 106450.1953125,
      "d": 34.1796875,
      "v": 111
    },
    {
      "midi": 76,
      "hit": false,
      "t": 106459.9609375,
      "d": 34.1796875,
      "v": 111
    },
    {
      "midi": 74,
      "hit": false,
      "t": 106513.671875,
      "d": 112.3046875,
      "v": 89
    },
    {
      "midi": 74,
      "hit": false,
      "t": 106523.4375,
      "d": 112.3046875,
      "v": 89
    },
    {
      "midi": 72,
      "hit": false,
      "t": 106616.2109375,
      "d": 68.359375,
      "v": 87
    },
    {
      "midi": 72,
      "hit": false,
      "t": 106625.9765625,
      "d": 68.359375,
      "v": 87
    },
    {
      "midi": 69,
      "hit": false,
      "t": 106875,
      "d": 224.609375,
      "v": 125
    },
    {
      "midi": 69,
      "hit": false,
      "t": 106884.765625,
      "d": 224.609375,
      "v": 125
    },
    {
      "midi": 72,
      "hit": false,
      "t": 107119.140625,
      "d": 97.65625,
      "v": 95
    },
    {
      "midi": 72,
      "hit": false,
      "t": 107128.90625,
      "d": 97.65625,
      "v": 95
    },
    {
      "midi": 69,
      "hit": false,
      "t": 107211.9140625,
      "d": 122.0703125,
      "v": 95
    },
    {
      "midi": 69,
      "hit": false,
      "t": 107221.6796875,
      "d": 122.0703125,
      "v": 95
    },
    {
      "midi": 67,
      "hit": false,
      "t": 107333.984375,
      "d": 122.0703125,
      "v": 93
    },
    {
      "midi": 67,
      "hit": false,
      "t": 107343.75,
      "d": 122.0703125,
      "v": 93
    },
    {
      "midi": 69,
      "hit": false,
      "t": 107451.171875,
      "d": 97.65625,
      "v": 99
    },
    {
      "midi": 69,
      "hit": false,
      "t": 107460.9375,
      "d": 97.65625,
      "v": 99
    },
    {
      "midi": 72,
      "hit": false,
      "t": 107563.4765625,
      "d": 102.5390625,
      "v": 99
    },
    {
      "midi": 72,
      "hit": false,
      "t": 107573.2421875,
      "d": 102.5390625,
      "v": 99
    },
    {
      "midi": 69,
      "hit": false,
      "t": 107661.1328125,
      "d": 156.25,
      "v": 81
    },
    {
      "midi": 69,
      "hit": false,
      "t": 107670.8984375,
      "d": 156.25,
      "v": 81
    },
    {
      "midi": 67,
      "hit": false,
      "t": 107778.3203125,
      "d": 102.5390625,
      "v": 93
    },
    {
      "midi": 67,
      "hit": false,
      "t": 107788.0859375,
      "d": 102.5390625,
      "v": 93
    },
    {
      "midi": 64,
      "hit": false,
      "t": 107900.390625,
      "d": 102.5390625,
      "v": 90
    },
    {
      "midi": 64,
      "hit": false,
      "t": 107910.15625,
      "d": 102.5390625,
      "v": 90
    },
    {
      "midi": 62,
      "hit": false,
      "t": 108012.6953125,
      "d": 126.953125,
      "v": 81
    },
    {
      "midi": 62,
      "hit": false,
      "t": 108022.4609375,
      "d": 126.953125,
      "v": 81
    },
    {
      "midi": 60,
      "hit": false,
      "t": 108159.1796875,
      "d": 73.2421875,
      "v": 90
    },
    {
      "midi": 60,
      "hit": false,
      "t": 108168.9453125,
      "d": 73.2421875,
      "v": 90
    },
    {
      "midi": 62,
      "hit": false,
      "t": 108261.71875,
      "d": 131.8359375,
      "v": 83
    },
    {
      "midi": 62,
      "hit": false,
      "t": 108271.484375,
      "d": 131.8359375,
      "v": 83
    },
    {
      "midi": 63,
      "hit": false,
      "t": 108388.671875,
      "d": 112.3046875,
      "v": 111
    },
    {
      "midi": 63,
      "hit": false,
      "t": 108398.4375,
      "d": 112.3046875,
      "v": 111
    },
    {
      "midi": 62,
      "hit": false,
      "t": 108500.9765625,
      "d": 112.3046875,
      "v": 90
    },
    {
      "midi": 62,
      "hit": false,
      "t": 108510.7421875,
      "d": 112.3046875,
      "v": 90
    },
    {
      "midi": 60,
      "hit": false,
      "t": 108627.9296875,
      "d": 68.359375,
      "v": 90
    },
    {
      "midi": 60,
      "hit": false,
      "t": 108637.6953125,
      "d": 68.359375,
      "v": 90
    },
    {
      "midi": 57,
      "hit": false,
      "t": 108740.234375,
      "d": 229.4921875,
      "v": 123
    },
    {
      "midi": 57,
      "hit": false,
      "t": 108750,
      "d": 229.4921875,
      "v": 123
    },
    {
      "midi": 60,
      "hit": false,
      "t": 108964.84375,
      "d": 175.78125,
      "v": 83
    },
    {
      "midi": 60,
      "hit": false,
      "t": 108974.609375,
      "d": 175.78125,
      "v": 83
    },
    {
      "midi": 57,
      "hit": false,
      "t": 109072.265625,
      "d": 131.8359375,
      "v": 93
    },
    {
      "midi": 57,
      "hit": false,
      "t": 109082.03125,
      "d": 131.8359375,
      "v": 93
    },
    {
      "midi": 55,
      "hit": false,
      "t": 109160.15625,
      "d": 112.3046875,
      "v": 87
    },
    {
      "midi": 55,
      "hit": false,
      "t": 109169.921875,
      "d": 112.3046875,
      "v": 87
    },
    {
      "midi": 52,
      "hit": false,
      "t": 109252.9296875,
      "d": 117.1875,
      "v": 85
    },
    {
      "midi": 52,
      "hit": false,
      "t": 109262.6953125,
      "d": 117.1875,
      "v": 85
    },
    {
      "midi": 55,
      "hit": false,
      "t": 109360.3515625,
      "d": 102.5390625,
      "v": 97
    },
    {
      "midi": 55,
      "hit": false,
      "t": 109370.1171875,
      "d": 102.5390625,
      "v": 97
    },
    {
      "midi": 57,
      "hit": false,
      "t": 109423.828125,
      "d": 239.2578125,
      "v": 109
    },
    {
      "midi": 57,
      "hit": false,
      "t": 109433.59375,
      "d": 239.2578125,
      "v": 109
    },
    {
      "midi": 60,
      "hit": false,
      "t": 109609.375,
      "d": 219.7265625,
      "v": 115
    },
    {
      "midi": 60,
      "hit": false,
      "t": 109619.140625,
      "d": 219.7265625,
      "v": 115
    },
    {
      "midi": 57,
      "hit": false,
      "t": 109843.75,
      "d": 214.84375,
      "v": 105
    },
    {
      "midi": 57,
      "hit": false,
      "t": 109853.515625,
      "d": 214.84375,
      "v": 105
    },
    {
      "midi": 60,
      "hit": false,
      "t": 109990.234375,
      "d": 68.359375,
      "v": 97
    },
    {
      "midi": 60,
      "hit": false,
      "t": 110000,
      "d": 68.359375,
      "v": 97
    },
    {
      "midi": 62,
      "hit": false,
      "t": 110146.484375,
      "d": 268.5546875,
      "v": 115
    },
    {
      "midi": 62,
      "hit": false,
      "t": 110156.25,
      "d": 268.5546875,
      "v": 115
    },
    {
      "midi": 60,
      "hit": false,
      "t": 110415.0390625,
      "d": 68.359375,
      "v": 83
    },
    {
      "midi": 60,
      "hit": false,
      "t": 110424.8046875,
      "d": 68.359375,
      "v": 83
    },
    {
      "midi": 62,
      "hit": false,
      "t": 110551.7578125,
      "d": 53.7109375,
      "v": 85
    },
    {
      "midi": 62,
      "hit": false,
      "t": 110561.5234375,
      "d": 53.7109375,
      "v": 85
    },
    {
      "midi": 63,
      "hit": false,
      "t": 110561.5234375,
      "d": 102.5390625,
      "v": 111
    },
    {
      "midi": 63,
      "hit": false,
      "t": 110571.2890625,
      "d": 92.7734375,
      "v": 111
    },
    {
      "midi": 64,
      "hit": false,
      "t": 110615.234375,
      "d": 185.546875,
      "v": 99
    },
    {
      "midi": 64,
      "hit": false,
      "t": 110625,
      "d": 185.546875,
      "v": 99
    },
    {
      "midi": 69,
      "hit": false,
      "t": 110810.546875,
      "d": 112.3046875,
      "v": 92
    },
    {
      "midi": 69,
      "hit": false,
      "t": 110820.3125,
      "d": 112.3046875,
      "v": 92
    },
    {
      "midi": 62,
      "hit": false,
      "t": 110878.90625,
      "d": 83.0078125,
      "v": 92
    },
    {
      "midi": 62,
      "hit": false,
      "t": 110888.671875,
      "d": 83.0078125,
      "v": 92
    },
    {
      "midi": 63,
      "hit": false,
      "t": 110932.6171875,
      "d": 97.65625,
      "v": 111
    },
    {
      "midi": 63,
      "hit": false,
      "t": 110942.3828125,
      "d": 97.65625,
      "v": 111
    },
    {
      "midi": 64,
      "hit": false,
      "t": 110981.4453125,
      "d": 175.78125,
      "v": 90
    },
    {
      "midi": 64,
      "hit": false,
      "t": 110991.2109375,
      "d": 175.78125,
      "v": 90
    },
    {
      "midi": 69,
      "hit": false,
      "t": 111157.2265625,
      "d": 112.3046875,
      "v": 111
    },
    {
      "midi": 69,
      "hit": false,
      "t": 111166.9921875,
      "d": 112.3046875,
      "v": 111
    },
    {
      "midi": 62,
      "hit": false,
      "t": 111245.1171875,
      "d": 97.65625,
      "v": 83
    },
    {
      "midi": 62,
      "hit": false,
      "t": 111254.8828125,
      "d": 97.65625,
      "v": 83
    },
    {
      "midi": 63,
      "hit": false,
      "t": 111298.828125,
      "d": 92.7734375,
      "v": 107
    },
    {
      "midi": 63,
      "hit": false,
      "t": 111308.59375,
      "d": 92.7734375,
      "v": 107
    },
    {
      "midi": 64,
      "hit": false,
      "t": 111376.953125,
      "d": 102.5390625,
      "v": 83
    },
    {
      "midi": 64,
      "hit": false,
      "t": 111386.71875,
      "d": 102.5390625,
      "v": 83
    },
    {
      "midi": 69,
      "hit": false,
      "t": 111474.609375,
      "d": 73.2421875,
      "v": 103
    },
    {
      "midi": 69,
      "hit": false,
      "t": 111484.375,
      "d": 73.2421875,
      "v": 103
    },
    {
      "midi": 63,
      "hit": false,
      "t": 111591.796875,
      "d": 87.890625,
      "v": 113
    },
    {
      "midi": 63,
      "hit": false,
      "t": 111601.5625,
      "d": 87.890625,
      "v": 113
    },
    {
      "midi": 62,
      "hit": false,
      "t": 111684.5703125,
      "d": 73.2421875,
      "v": 77
    },
    {
      "midi": 62,
      "hit": false,
      "t": 111694.3359375,
      "d": 73.2421875,
      "v": 77
    },
    {
      "midi": 60,
      "hit": false,
      "t": 111752.9296875,
      "d": 73.2421875,
      "v": 83
    },
    {
      "midi": 60,
      "hit": false,
      "t": 111762.6953125,
      "d": 73.2421875,
      "v": 83
    },
    {
      "midi": 62,
      "hit": false,
      "t": 111840.8203125,
      "d": 78.125,
      "v": 93
    },
    {
      "midi": 62,
      "hit": false,
      "t": 111850.5859375,
      "d": 78.125,
      "v": 93
    },
    {
      "midi": 63,
      "hit": false,
      "t": 111923.828125,
      "d": 48.828125,
      "v": 119
    },
    {
      "midi": 63,
      "hit": false,
      "t": 111933.59375,
      "d": 48.828125,
      "v": 119
    },
    {
      "midi": 64,
      "hit": false,
      "t": 112001.953125,
      "d": 58.59375,
      "v": 93
    },
    {
      "midi": 64,
      "hit": false,
      "t": 112011.71875,
      "d": 58.59375,
      "v": 93
    },
    {
      "midi": 67,
      "hit": false,
      "t": 112080.078125,
      "d": 63.4765625,
      "v": 97
    },
    {
      "midi": 67,
      "hit": false,
      "t": 112089.84375,
      "d": 63.4765625,
      "v": 97
    },
    {
      "midi": 69,
      "hit": false,
      "t": 112128.90625,
      "d": 63.4765625,
      "v": 115
    },
    {
      "midi": 69,
      "hit": false,
      "t": 112138.671875,
      "d": 63.4765625,
      "v": 115
    },
    {
      "midi": 72,
      "hit": false,
      "t": 112226.5625,
      "d": 122.0703125,
      "v": 113
    },
    {
      "midi": 72,
      "hit": false,
      "t": 112236.328125,
      "d": 122.0703125,
      "v": 113
    },
    {
      "midi": 71,
      "hit": false,
      "t": 112294.921875,
      "d": 48.828125,
      "v": 80
    },
    {
      "midi": 71,
      "hit": false,
      "t": 112304.6875,
      "d": 48.828125,
      "v": 80
    },
    {
      "midi": 69,
      "hit": false,
      "t": 112348.6328125,
      "d": 58.59375,
      "v": 111
    },
    {
      "midi": 69,
      "hit": false,
      "t": 112358.3984375,
      "d": 58.59375,
      "v": 111
    },
    {
      "midi": 67,
      "hit": false,
      "t": 112407.2265625,
      "d": 68.359375,
      "v": 99
    },
    {
      "midi": 67,
      "hit": false,
      "t": 112416.9921875,
      "d": 68.359375,
      "v": 99
    },
    {
      "midi": 64,
      "hit": false,
      "t": 112485.3515625,
      "d": 112.3046875,
      "v": 92
    },
    {
      "midi": 64,
      "hit": false,
      "t": 112495.1171875,
      "d": 102.5390625,
      "v": 92
    },
    {
      "midi": 62,
      "hit": false,
      "t": 112553.7109375,
      "d": 58.59375,
      "v": 92
    },
    {
      "midi": 62,
      "hit": false,
      "t": 112563.4765625,
      "d": 58.59375,
      "v": 92
    },
    {
      "midi": 63,
      "hit": false,
      "t": 112597.65625,
      "d": 205.078125,
      "v": 121
    },
    {
      "midi": 63,
      "hit": false,
      "t": 112607.421875,
      "d": 205.078125,
      "v": 121
    },
    {
      "midi": 60,
      "hit": false,
      "t": 112944.3359375,
      "d": 185.546875,
      "v": 119
    },
    {
      "midi": 60,
      "hit": false,
      "t": 112954.1015625,
      "d": 185.546875,
      "v": 119
    },
    {
      "midi": 55,
      "hit": false,
      "t": 113276.3671875,
      "d": 87.890625,
      "v": 99
    },
    {
      "midi": 55,
      "hit": false,
      "t": 113286.1328125,
      "d": 87.890625,
      "v": 99
    },
    {
      "midi": 56,
      "hit": false,
      "t": 113339.84375,
      "d": 102.5390625,
      "v": 95
    },
    {
      "midi": 56,
      "hit": false,
      "t": 113349.609375,
      "d": 102.5390625,
      "v": 95
    },
    {
      "midi": 57,
      "hit": false,
      "t": 113408.203125,
      "d": 151.3671875,
      "v": 90
    },
    {
      "midi": 57,
      "hit": false,
      "t": 113417.96875,
      "d": 151.3671875,
      "v": 90
    },
    {
      "midi": 60,
      "hit": false,
      "t": 113583.984375,
      "d": 273.4375,
      "v": 107
    },
    {
      "midi": 60,
      "hit": false,
      "t": 113593.75,
      "d": 273.4375,
      "v": 107
    },
    {
      "midi": 55,
      "hit": false,
      "t": 113906.25,
      "d": 63.4765625,
      "v": 101
    },
    {
      "midi": 55,
      "hit": false,
      "t": 113916.015625,
      "d": 63.4765625,
      "v": 101
    },
    {
      "midi": 57,
      "hit": false,
      "t": 114008.7890625,
      "d": 102.5390625,
      "v": 97
    },
    {
      "midi": 57,
      "hit": false,
      "t": 114018.5546875,
      "d": 102.5390625,
      "v": 97
    },
    {
      "midi": 60,
      "hit": false,
      "t": 114150.390625,
      "d": 97.65625,
      "v": 82
    },
    {
      "midi": 60,
      "hit": false,
      "t": 114160.15625,
      "d": 97.65625,
      "v": 82
    },
    {
      "midi": 62,
      "hit": false,
      "t": 114257.8125,
      "d": 83.0078125,
      "v": 70
    },
    {
      "midi": 62,
      "hit": false,
      "t": 114267.578125,
      "d": 83.0078125,
      "v": 70
    },
    {
      "midi": 60,
      "hit": false,
      "t": 114379.8828125,
      "d": 87.890625,
      "v": 83
    },
    {
      "midi": 60,
      "hit": false,
      "t": 114389.6484375,
      "d": 87.890625,
      "v": 83
    },
    {
      "midi": 62,
      "hit": false,
      "t": 114497.0703125,
      "d": 83.0078125,
      "v": 87
    },
    {
      "midi": 62,
      "hit": false,
      "t": 114506.8359375,
      "d": 83.0078125,
      "v": 87
    },
    {
      "midi": 63,
      "hit": false,
      "t": 114609.375,
      "d": 53.7109375,
      "v": 111
    },
    {
      "midi": 63,
      "hit": false,
      "t": 114619.140625,
      "d": 53.7109375,
      "v": 111
    },
    {
      "midi": 64,
      "hit": false,
      "t": 114726.5625,
      "d": 63.4765625,
      "v": 69
    },
    {
      "midi": 64,
      "hit": false,
      "t": 114736.328125,
      "d": 63.4765625,
      "v": 69
    },
    {
      "midi": 67,
      "hit": false,
      "t": 114824.21875,
      "d": 83.0078125,
      "v": 76
    },
    {
      "midi": 67,
      "hit": false,
      "t": 114833.984375,
      "d": 83.0078125,
      "v": 76
    },
    {
      "midi": 72,
      "hit": false,
      "t": 114926.7578125,
      "d": 92.7734375,
      "v": 92
    },
    {
      "midi": 72,
      "hit": false,
      "t": 114936.5234375,
      "d": 92.7734375,
      "v": 92
    },
    {
      "midi": 67,
      "hit": false,
      "t": 115053.7109375,
      "d": 122.0703125,
      "v": 92
    },
    {
      "midi": 67,
      "hit": false,
      "t": 115063.4765625,
      "d": 122.0703125,
      "v": 92
    },
    {
      "midi": 71,
      "hit": false,
      "t": 115185.546875,
      "d": 117.1875,
      "v": 113
    },
    {
      "midi": 71,
      "hit": false,
      "t": 115195.3125,
      "d": 117.1875,
      "v": 113
    },
    {
      "midi": 69,
      "hit": false,
      "t": 115302.734375,
      "d": 97.65625,
      "v": 107
    },
    {
      "midi": 69,
      "hit": false,
      "t": 115312.5,
      "d": 97.65625,
      "v": 107
    },
    {
      "midi": 67,
      "hit": false,
      "t": 115424.8046875,
      "d": 87.890625,
      "v": 72
    },
    {
      "midi": 67,
      "hit": false,
      "t": 115434.5703125,
      "d": 87.890625,
      "v": 72
    },
    {
      "midi": 71,
      "hit": false,
      "t": 115541.9921875,
      "d": 122.0703125,
      "v": 115
    },
    {
      "midi": 71,
      "hit": false,
      "t": 115551.7578125,
      "d": 122.0703125,
      "v": 115
    },
    {
      "midi": 69,
      "hit": false,
      "t": 115664.0625,
      "d": 102.5390625,
      "v": 107
    },
    {
      "midi": 69,
      "hit": false,
      "t": 115673.828125,
      "d": 102.5390625,
      "v": 107
    },
    {
      "midi": 64,
      "hit": false,
      "t": 115786.1328125,
      "d": 92.7734375,
      "v": 93
    },
    {
      "midi": 64,
      "hit": false,
      "t": 115795.8984375,
      "d": 92.7734375,
      "v": 93
    },
    {
      "midi": 63,
      "hit": false,
      "t": 115917.96875,
      "d": 136.71875,
      "v": 86
    },
    {
      "midi": 63,
      "hit": false,
      "t": 115927.734375,
      "d": 136.71875,
      "v": 86
    },
    {
      "midi": 62,
      "hit": false,
      "t": 116030.2734375,
      "d": 112.3046875,
      "v": 68
    },
    {
      "midi": 62,
      "hit": false,
      "t": 116040.0390625,
      "d": 112.3046875,
      "v": 68
    },
    {
      "midi": 60,
      "hit": false,
      "t": 116142.578125,
      "d": 87.890625,
      "v": 103
    },
    {
      "midi": 60,
      "hit": false,
      "t": 116152.34375,
      "d": 87.890625,
      "v": 103
    },
    {
      "midi": 62,
      "hit": false,
      "t": 116220.703125,
      "d": 53.7109375,
      "v": 101
    },
    {
      "midi": 62,
      "hit": false,
      "t": 116230.46875,
      "d": 43.9453125,
      "v": 101
    },
    {
      "midi": 63,
      "hit": false,
      "t": 116235.3515625,
      "d": 297.8515625,
      "v": 123
    },
    {
      "midi": 63,
      "hit": false,
      "t": 116245.1171875,
      "d": 288.0859375,
      "v": 123
    },
    {
      "midi": 62,
      "hit": false,
      "t": 116499.0234375,
      "d": 117.1875,
      "v": 107
    },
    {
      "midi": 62,
      "hit": false,
      "t": 116508.7890625,
      "d": 117.1875,
      "v": 107
    },
    {
      "midi": 60,
      "hit": false,
      "t": 116611.328125,
      "d": 97.65625,
      "v": 89
    },
    {
      "midi": 60,
      "hit": false,
      "t": 116621.09375,
      "d": 97.65625,
      "v": 89
    },
    {
      "midi": 57,
      "hit": false,
      "t": 116723.6328125,
      "d": 117.1875,
      "v": 68
    },
    {
      "midi": 57,
      "hit": false,
      "t": 116733.3984375,
      "d": 117.1875,
      "v": 68
    },
    {
      "midi": 55,
      "hit": false,
      "t": 116835.9375,
      "d": 78.125,
      "v": 87
    },
    {
      "midi": 55,
      "hit": false,
      "t": 116845.703125,
      "d": 78.125,
      "v": 87
    },
    {
      "midi": 57,
      "hit": false,
      "t": 116953.125,
      "d": 58.59375,
      "v": 75
    },
    {
      "midi": 57,
      "hit": false,
      "t": 116962.890625,
      "d": 58.59375,
      "v": 75
    },
    {
      "midi": 60,
      "hit": false,
      "t": 117080.078125,
      "d": 312.5,
      "v": 115
    },
    {
      "midi": 60,
      "hit": false,
      "t": 117089.84375,
      "d": 312.5,
      "v": 115
    },
    {
      "midi": 59,
      "hit": false,
      "t": 117368.1640625,
      "d": 141.6015625,
      "v": 90
    },
    {
      "midi": 59,
      "hit": false,
      "t": 117377.9296875,
      "d": 141.6015625,
      "v": 90
    },
    {
      "midi": 57,
      "hit": false,
      "t": 117446.2890625,
      "d": 107.421875,
      "v": 78
    },
    {
      "midi": 57,
      "hit": false,
      "t": 117456.0546875,
      "d": 107.421875,
      "v": 78
    },
    {
      "midi": 55,
      "hit": false,
      "t": 117509.765625,
      "d": 92.7734375,
      "v": 65
    },
    {
      "midi": 55,
      "hit": false,
      "t": 117519.53125,
      "d": 92.7734375,
      "v": 65
    },
    {
      "midi": 52,
      "hit": false,
      "t": 117631.8359375,
      "d": 126.953125,
      "v": 93
    },
    {
      "midi": 52,
      "hit": false,
      "t": 117641.6015625,
      "d": 126.953125,
      "v": 93
    },
    {
      "midi": 55,
      "hit": false,
      "t": 117773.4375,
      "d": 97.65625,
      "v": 101
    },
    {
      "midi": 55,
      "hit": false,
      "t": 117783.203125,
      "d": 97.65625,
      "v": 101
    },
    {
      "midi": 56,
      "hit": false,
      "t": 117880.859375,
      "d": 244.140625,
      "v": 117
    },
    {
      "midi": 56,
      "hit": false,
      "t": 117890.625,
      "d": 244.140625,
      "v": 117
    },
    {
      "midi": 57,
      "hit": false,
      "t": 118125,
      "d": 258.7890625,
      "v": 97
    },
    {
      "midi": 57,
      "hit": false,
      "t": 118134.765625,
      "d": 258.7890625,
      "v": 97
    },
    {
      "midi": 60,
      "hit": false,
      "t": 118388.671875,
      "d": 78.125,
      "v": 90
    },
    {
      "midi": 60,
      "hit": false,
      "t": 118398.4375,
      "d": 78.125,
      "v": 90
    },
    {
      "midi": 62,
      "hit": false,
      "t": 118496.09375,
      "d": 87.890625,
      "v": 95
    },
    {
      "midi": 62,
      "hit": false,
      "t": 118505.859375,
      "d": 87.890625,
      "v": 95
    },
    {
      "midi": 60,
      "hit": false,
      "t": 118593.75,
      "d": 78.125,
      "v": 89
    },
    {
      "midi": 60,
      "hit": false,
      "t": 118603.515625,
      "d": 78.125,
      "v": 89
    },
    {
      "midi": 62,
      "hit": false,
      "t": 118818.359375,
      "d": 83.0078125,
      "v": 87
    },
    {
      "midi": 62,
      "hit": false,
      "t": 118828.125,
      "d": 83.0078125,
      "v": 87
    },
    {
      "midi": 63,
      "hit": false,
      "t": 118872.0703125,
      "d": 73.2421875,
      "v": 85
    },
    {
      "midi": 63,
      "hit": false,
      "t": 118881.8359375,
      "d": 73.2421875,
      "v": 85
    },
    {
      "midi": 64,
      "hit": false,
      "t": 118950.1953125,
      "d": 73.2421875,
      "v": 80
    },
    {
      "midi": 64,
      "hit": false,
      "t": 118959.9609375,
      "d": 73.2421875,
      "v": 80
    },
    {
      "midi": 69,
      "hit": false,
      "t": 119038.0859375,
      "d": 249.0234375,
      "v": 109
    },
    {
      "midi": 69,
      "hit": false,
      "t": 119047.8515625,
      "d": 249.0234375,
      "v": 109
    },
    {
      "midi": 63,
      "hit": false,
      "t": 119296.875,
      "d": 131.8359375,
      "v": 87
    },
    {
      "midi": 63,
      "hit": false,
      "t": 119306.640625,
      "d": 131.8359375,
      "v": 87
    },
    {
      "midi": 62,
      "hit": false,
      "t": 119375,
      "d": 117.1875,
      "v": 92
    },
    {
      "midi": 62,
      "hit": false,
      "t": 119384.765625,
      "d": 117.1875,
      "v": 92
    },
    {
      "midi": 60,
      "hit": false,
      "t": 119472.65625,
      "d": 73.2421875,
      "v": 107
    },
    {
      "midi": 60,
      "hit": false,
      "t": 119482.421875,
      "d": 73.2421875,
      "v": 107
    },
    {
      "midi": 57,
      "hit": false,
      "t": 119531.25,
      "d": 268.5546875,
      "v": 93
    },
    {
      "midi": 57,
      "hit": false,
      "t": 119541.015625,
      "d": 268.5546875,
      "v": 93
    },
    {
      "midi": 60,
      "hit": false,
      "t": 119804.6875,
      "d": 87.890625,
      "v": 95
    },
    {
      "midi": 60,
      "hit": false,
      "t": 119814.453125,
      "d": 87.890625,
      "v": 95
    },
    {
      "midi": 57,
      "hit": false,
      "t": 119873.046875,
      "d": 48.828125,
      "v": 82
    },
    {
      "midi": 57,
      "hit": false,
      "t": 119882.8125,
      "d": 48.828125,
      "v": 82
    },
    {
      "midi": 55,
      "hit": false,
      "t": 119936.5234375,
      "d": 63.4765625,
      "v": 75
    },
    {
      "midi": 55,
      "hit": false,
      "t": 119946.2890625,
      "d": 63.4765625,
      "v": 75
    },
    {
      "midi": 57,
      "hit": false,
      "t": 119995.1171875,
      "d": 351.5625,
      "v": 78
    },
    {
      "midi": 57,
      "hit": false,
      "t": 120004.8828125,
      "d": 273.4375,
      "v": 78
    },
    {
      "midi": 55,
      "hit": false,
      "t": 120244.140625,
      "d": 102.5390625,
      "v": 106
    },
    {
      "midi": 61,
      "hit": false,
      "t": 120244.140625,
      "d": 117.1875,
      "v": 106
    },
    {
      "midi": 64,
      "hit": false,
      "t": 120244.140625,
      "d": 131.8359375,
      "v": 106
    },
    {
      "midi": 52,
      "hit": false,
      "t": 120244.140625,
      "d": 92.7734375,
      "v": 31
    },
    {
      "midi": 55,
      "hit": false,
      "t": 120244.140625,
      "d": 102.5390625,
      "v": 33
    },
    {
      "midi": 61,
      "hit": false,
      "t": 120244.140625,
      "d": 117.1875,
      "v": 54
    },
    {
      "midi": 64,
      "hit": false,
      "t": 120244.140625,
      "d": 131.8359375,
      "v": 34
    },
    {
      "midi": 57,
      "hit": false,
      "t": 120478.515625,
      "d": 97.65625,
      "v": 100
    },
    {
      "midi": 55,
      "hit": false,
      "t": 120478.515625,
      "d": 107.421875,
      "v": 100
    },
    {
      "midi": 61,
      "hit": false,
      "t": 120478.515625,
      "d": 112.3046875,
      "v": 100
    },
    {
      "midi": 64,
      "hit": false,
      "t": 120478.515625,
      "d": 112.3046875,
      "v": 100
    },
    {
      "midi": 57,
      "hit": false,
      "t": 120478.515625,
      "d": 97.65625,
      "v": 60
    },
    {
      "midi": 52,
      "hit": false,
      "t": 120478.515625,
      "d": 102.5390625,
      "v": 29
    },
    {
      "midi": 55,
      "hit": false,
      "t": 120478.515625,
      "d": 107.421875,
      "v": 48
    },
    {
      "midi": 61,
      "hit": false,
      "t": 120478.515625,
      "d": 112.3046875,
      "v": 67
    },
    {
      "midi": 64,
      "hit": false,
      "t": 120478.515625,
      "d": 112.3046875,
      "v": 49
    },
    {
      "midi": 57,
      "hit": false,
      "t": 120703.125,
      "d": 87.890625,
      "v": 96
    },
    {
      "midi": 64,
      "hit": false,
      "t": 120703.125,
      "d": 92.7734375,
      "v": 96
    },
    {
      "midi": 61,
      "hit": false,
      "t": 120703.125,
      "d": 102.5390625,
      "v": 96
    },
    {
      "midi": 55,
      "hit": false,
      "t": 120703.125,
      "d": 87.890625,
      "v": 60
    },
    {
      "midi": 57,
      "hit": false,
      "t": 120703.125,
      "d": 87.890625,
      "v": 66
    },
    {
      "midi": 64,
      "hit": false,
      "t": 120703.125,
      "d": 92.7734375,
      "v": 64
    },
    {
      "midi": 52,
      "hit": false,
      "t": 120703.125,
      "d": 102.5390625,
      "v": 50
    },
    {
      "midi": 61,
      "hit": false,
      "t": 120703.125,
      "d": 102.5390625,
      "v": 68
    },
    {
      "midi": 57,
      "hit": false,
      "t": 120937.5,
      "d": 122.0703125,
      "v": 92
    },
    {
      "midi": 64,
      "hit": false,
      "t": 120937.5,
      "d": 126.953125,
      "v": 92
    },
    {
      "midi": 61,
      "hit": false,
      "t": 120937.5,
      "d": 141.6015625,
      "v": 92
    },
    {
      "midi": 52,
      "hit": false,
      "t": 120937.5,
      "d": 122.0703125,
      "v": 73
    },
    {
      "midi": 57,
      "hit": false,
      "t": 120937.5,
      "d": 122.0703125,
      "v": 97
    },
    {
      "midi": 55,
      "hit": false,
      "t": 120937.5,
      "d": 126.953125,
      "v": 93
    },
    {
      "midi": 64,
      "hit": false,
      "t": 120937.5,
      "d": 126.953125,
      "v": 83
    },
    {
      "midi": 61,
      "hit": false,
      "t": 120937.5,
      "d": 141.6015625,
      "v": 99
    },
    {
      "midi": 64,
      "hit": false,
      "t": 121181.640625,
      "d": 112.3046875,
      "v": 82
    },
    {
      "midi": 61,
      "hit": false,
      "t": 121181.640625,
      "d": 126.953125,
      "v": 93
    },
    {
      "midi": 55,
      "hit": false,
      "t": 121181.640625,
      "d": 102.5390625,
      "v": 89
    },
    {
      "midi": 57,
      "hit": false,
      "t": 121181.640625,
      "d": 107.421875,
      "v": 95
    },
    {
      "midi": 52,
      "hit": false,
      "t": 121181.640625,
      "d": 112.3046875,
      "v": 72
    },
    {
      "midi": 64,
      "hit": false,
      "t": 121181.640625,
      "d": 112.3046875,
      "v": 82
    },
    {
      "midi": 61,
      "hit": false,
      "t": 121181.640625,
      "d": 126.953125,
      "v": 93
    },
    {
      "midi": 64,
      "hit": false,
      "t": 121416.015625,
      "d": 112.3046875,
      "v": 89
    },
    {
      "midi": 61,
      "hit": false,
      "t": 121416.015625,
      "d": 122.0703125,
      "v": 105
    },
    {
      "midi": 55,
      "hit": false,
      "t": 121416.015625,
      "d": 97.65625,
      "v": 97
    },
    {
      "midi": 57,
      "hit": false,
      "t": 121416.015625,
      "d": 107.421875,
      "v": 105
    },
    {
      "midi": 52,
      "hit": false,
      "t": 121416.015625,
      "d": 112.3046875,
      "v": 75
    },
    {
      "midi": 64,
      "hit": false,
      "t": 121416.015625,
      "d": 112.3046875,
      "v": 89
    },
    {
      "midi": 61,
      "hit": false,
      "t": 121416.015625,
      "d": 122.0703125,
      "v": 105
    },
    {
      "midi": 61,
      "hit": false,
      "t": 121640.625,
      "d": 112.3046875,
      "v": 109
    },
    {
      "midi": 64,
      "hit": false,
      "t": 121640.625,
      "d": 117.1875,
      "v": 93
    },
    {
      "midi": 55,
      "hit": false,
      "t": 121640.625,
      "d": 83.0078125,
      "v": 95
    },
    {
      "midi": 57,
      "hit": false,
      "t": 121640.625,
      "d": 102.5390625,
      "v": 103
    },
    {
      "midi": 52,
      "hit": false,
      "t": 121640.625,
      "d": 107.421875,
      "v": 78
    },
    {
      "midi": 61,
      "hit": false,
      "t": 121640.625,
      "d": 112.3046875,
      "v": 109
    },
    {
      "midi": 64,
      "hit": false,
      "t": 121640.625,
      "d": 117.1875,
      "v": 93
    },
    {
      "midi": 57,
      "hit": false,
      "t": 121875,
      "d": 97.65625,
      "v": 109
    },
    {
      "midi": 55,
      "hit": false,
      "t": 121875,
      "d": 102.5390625,
      "v": 105
    },
    {
      "midi": 61,
      "hit": false,
      "t": 121875,
      "d": 112.3046875,
      "v": 113
    },
    {
      "midi": 52,
      "hit": false,
      "t": 121875,
      "d": 117.1875,
      "v": 78
    },
    {
      "midi": 64,
      "hit": false,
      "t": 121875,
      "d": 117.1875,
      "v": 99
    },
    {
      "midi": 61,
      "hit": false,
      "t": 121884.765625,
      "d": 117.1875,
      "v": 99
    },
    {
      "midi": 57,
      "hit": false,
      "t": 122119.140625,
      "d": 97.65625,
      "v": 105
    },
    {
      "midi": 55,
      "hit": false,
      "t": 122119.140625,
      "d": 112.3046875,
      "v": 101
    },
    {
      "midi": 61,
      "hit": false,
      "t": 122119.140625,
      "d": 112.3046875,
      "v": 111
    },
    {
      "midi": 64,
      "hit": false,
      "t": 122119.140625,
      "d": 112.3046875,
      "v": 95
    },
    {
      "midi": 52,
      "hit": false,
      "t": 122119.140625,
      "d": 117.1875,
      "v": 86
    },
    {
      "midi": 61,
      "hit": false,
      "t": 122128.90625,
      "d": 112.3046875,
      "v": 95
    },
    {
      "midi": 57,
      "hit": false,
      "t": 122353.515625,
      "d": 97.65625,
      "v": 111
    },
    {
      "midi": 55,
      "hit": false,
      "t": 122353.515625,
      "d": 102.5390625,
      "v": 105
    },
    {
      "midi": 52,
      "hit": false,
      "t": 122353.515625,
      "d": 112.3046875,
      "v": 99
    },
    {
      "midi": 61,
      "hit": false,
      "t": 122353.515625,
      "d": 112.3046875,
      "v": 117
    },
    {
      "midi": 64,
      "hit": false,
      "t": 122353.515625,
      "d": 117.1875,
      "v": 101
    },
    {
      "midi": 61,
      "hit": false,
      "t": 122363.28125,
      "d": 117.1875,
      "v": 101
    },
    {
      "midi": 57,
      "hit": false,
      "t": 122578.125,
      "d": 87.890625,
      "v": 111
    },
    {
      "midi": 52,
      "hit": false,
      "t": 122578.125,
      "d": 92.7734375,
      "v": 103
    },
    {
      "midi": 55,
      "hit": false,
      "t": 122578.125,
      "d": 97.65625,
      "v": 105
    },
    {
      "midi": 61,
      "hit": false,
      "t": 122578.125,
      "d": 107.421875,
      "v": 115
    },
    {
      "midi": 64,
      "hit": false,
      "t": 122578.125,
      "d": 112.3046875,
      "v": 95
    },
    {
      "midi": 61,
      "hit": false,
      "t": 122587.890625,
      "d": 112.3046875,
      "v": 95
    },
    {
      "midi": 55,
      "hit": false,
      "t": 122812.5,
      "d": 97.65625,
      "v": 105
    },
    {
      "midi": 57,
      "hit": false,
      "t": 122812.5,
      "d": 97.65625,
      "v": 111
    },
    {
      "midi": 52,
      "hit": false,
      "t": 122812.5,
      "d": 107.421875,
      "v": 101
    },
    {
      "midi": 61,
      "hit": false,
      "t": 122812.5,
      "d": 112.3046875,
      "v": 115
    },
    {
      "midi": 64,
      "hit": false,
      "t": 122812.5,
      "d": 112.3046875,
      "v": 95
    },
    {
      "midi": 61,
      "hit": false,
      "t": 122822.265625,
      "d": 112.3046875,
      "v": 95
    },
    {
      "midi": 52,
      "hit": false,
      "t": 123056.640625,
      "d": 92.7734375,
      "v": 105
    },
    {
      "midi": 55,
      "hit": false,
      "t": 123056.640625,
      "d": 97.65625,
      "v": 101
    },
    {
      "midi": 57,
      "hit": false,
      "t": 123056.640625,
      "d": 107.421875,
      "v": 107
    },
    {
      "midi": 61,
      "hit": false,
      "t": 123056.640625,
      "d": 107.421875,
      "v": 113
    },
    {
      "midi": 64,
      "hit": false,
      "t": 123056.640625,
      "d": 107.421875,
      "v": 92
    },
    {
      "midi": 61,
      "hit": false,
      "t": 123066.40625,
      "d": 107.421875,
      "v": 92
    },
    {
      "midi": 55,
      "hit": false,
      "t": 123291.015625,
      "d": 117.1875,
      "v": 107
    },
    {
      "midi": 57,
      "hit": false,
      "t": 123291.015625,
      "d": 117.1875,
      "v": 115
    },
    {
      "midi": 52,
      "hit": false,
      "t": 123291.015625,
      "d": 122.0703125,
      "v": 115
    },
    {
      "midi": 61,
      "hit": false,
      "t": 123291.015625,
      "d": 122.0703125,
      "v": 119
    },
    {
      "midi": 64,
      "hit": false,
      "t": 123291.015625,
      "d": 122.0703125,
      "v": 103
    },
    {
      "midi": 61,
      "hit": false,
      "t": 123300.78125,
      "d": 122.0703125,
      "v": 103
    },
    {
      "midi": 52,
      "hit": false,
      "t": 123515.625,
      "d": 97.65625,
      "v": 111
    },
    {
      "midi": 61,
      "hit": false,
      "t": 123515.625,
      "d": 126.953125,
      "v": 121
    },
    {
      "midi": 64,
      "hit": false,
      "t": 123515.625,
      "d": 136.71875,
      "v": 107
    },
    {
      "midi": 55,
      "hit": false,
      "t": 123515.625,
      "d": 141.6015625,
      "v": 101
    },
    {
      "midi": 57,
      "hit": false,
      "t": 123515.625,
      "d": 151.3671875,
      "v": 113
    },
    {
      "midi": 61,
      "hit": false,
      "t": 123525.390625,
      "d": 136.71875,
      "v": 107
    },
    {
      "midi": 57,
      "hit": false,
      "t": 123750,
      "d": 361.328125,
      "v": 83
    },
    {
      "midi": 54,
      "hit": false,
      "t": 124218.75,
      "d": 390.625,
      "v": 101
    },
    {
      "midi": 62,
      "hit": false,
      "t": 124223.6328125,
      "d": 273.4375,
      "v": 99
    },
    {
      "midi": 57,
      "hit": false,
      "t": 124228.515625,
      "d": 97.65625,
      "v": 80
    },
    {
      "midi": 66,
      "hit": false,
      "t": 124228.515625,
      "d": 263.671875,
      "v": 103
    },
    {
      "midi": 57,
      "hit": false,
      "t": 124453.125,
      "d": 146.484375,
      "v": 81
    },
    {
      "midi": 57,
      "hit": false,
      "t": 124692.3828125,
      "d": 341.796875,
      "v": 92
    },
    {
      "midi": 65,
      "hit": false,
      "t": 125156.25,
      "d": 366.2109375,
      "v": 95
    },
    {
      "midi": 57,
      "hit": false,
      "t": 125156.25,
      "d": 419.921875,
      "v": 87
    },
    {
      "midi": 53,
      "hit": false,
      "t": 125161.1328125,
      "d": 468.75,
      "v": 85
    },
    {
      "midi": 60,
      "hit": false,
      "t": 125405.2734375,
      "d": 166.015625,
      "v": 93
    },
    {
      "midi": 45,
      "hit": false,
      "t": 125625,
      "d": 913.0859375,
      "v": 77
    },
    {
      "midi": 57,
      "hit": false,
      "t": 125859.375,
      "d": 288.0859375,
      "v": 101
    },
    {
      "midi": 64,
      "hit": false,
      "t": 126093.75,
      "d": 297.8515625,
      "v": 101
    },
    {
      "midi": 60,
      "hit": false,
      "t": 126098.6328125,
      "d": 234.375,
      "v": 105
    },
    {
      "midi": 57,
      "hit": false,
      "t": 126347.65625,
      "d": 185.546875,
      "v": 56
    },
    {
      "midi": 62,
      "hit": false,
      "t": 126567.3828125,
      "d": 185.546875,
      "v": 99
    },
    {
      "midi": 59,
      "hit": false,
      "t": 126567.3828125,
      "d": 288.0859375,
      "v": 95
    },
    {
      "midi": 60,
      "hit": false,
      "t": 126811.5234375,
      "d": 224.609375,
      "v": 87
    },
    {
      "midi": 64,
      "hit": false,
      "t": 126811.5234375,
      "d": 229.4921875,
      "v": 87
    },
    {
      "midi": 57,
      "hit": false,
      "t": 127031.25,
      "d": 268.5546875,
      "v": 81
    },
    {
      "midi": 64,
      "hit": false,
      "t": 127270.5078125,
      "d": 449.21875,
      "v": 80
    },
    {
      "midi": 59,
      "hit": false,
      "t": 127275.390625,
      "d": 419.921875,
      "v": 95
    },
    {
      "midi": 40,
      "hit": false,
      "t": 127504.8828125,
      "d": 1142.578125,
      "v": 78
    },
    {
      "midi": 59,
      "hit": false,
      "t": 127744.140625,
      "d": 146.484375,
      "v": 113
    },
    {
      "midi": 64,
      "hit": false,
      "t": 127749.0234375,
      "d": 185.546875,
      "v": 76
    },
    {
      "midi": 59,
      "hit": false,
      "t": 127983.3984375,
      "d": 209.9609375,
      "v": 76
    },
    {
      "midi": 64,
      "hit": false,
      "t": 127988.28125,
      "d": 263.671875,
      "v": 98
    },
    {
      "midi": 55,
      "hit": false,
      "t": 128212.890625,
      "d": 224.609375,
      "v": 98
    },
    {
      "midi": 62,
      "hit": false,
      "t": 128461.9140625,
      "d": 200.1953125,
      "v": 107
    },
    {
      "midi": 59,
      "hit": false,
      "t": 128461.9140625,
      "d": 297.8515625,
      "v": 107
    },
    {
      "midi": 64,
      "hit": false,
      "t": 128681.640625,
      "d": 478.515625,
      "v": 82
    },
    {
      "midi": 55,
      "hit": false,
      "t": 128886.71875,
      "d": 229.4921875,
      "v": 57
    },
    {
      "midi": 57,
      "hit": false,
      "t": 129121.09375,
      "d": 244.140625,
      "v": 98
    },
    {
      "midi": 63,
      "hit": false,
      "t": 129248.046875,
      "d": 68.359375,
      "v": 87
    },
    {
      "midi": 64,
      "hit": false,
      "t": 129296.875,
      "d": 205.078125,
      "v": 117
    },
    {
      "midi": 69,
      "hit": false,
      "t": 129384.765625,
      "d": 302.734375,
      "v": 101
    },
    {
      "midi": 63,
      "hit": false,
      "t": 129677.734375,
      "d": 107.421875,
      "v": 99
    },
    {
      "midi": 62,
      "hit": false,
      "t": 129741.2109375,
      "d": 78.125,
      "v": 73
    },
    {
      "midi": 60,
      "hit": false,
      "t": 129790.0390625,
      "d": 92.7734375,
      "v": 97
    },
    {
      "midi": 57,
      "hit": false,
      "t": 129858.3984375,
      "d": 249.0234375,
      "v": 83
    },
    {
      "midi": 60,
      "hit": false,
      "t": 130078.125,
      "d": 126.953125,
      "v": 105
    },
    {
      "midi": 55,
      "hit": false,
      "t": 130175.78125,
      "d": 107.421875,
      "v": 90
    },
    {
      "midi": 52,
      "hit": false,
      "t": 130292.96875,
      "d": 97.65625,
      "v": 71
    },
    {
      "midi": 57,
      "hit": false,
      "t": 130361.328125,
      "d": 214.84375,
      "v": 84
    },
    {
      "midi": 60,
      "hit": false,
      "t": 130556.640625,
      "d": 224.609375,
      "v": 109
    },
    {
      "midi": 57,
      "hit": false,
      "t": 130781.25,
      "d": 273.4375,
      "v": 106
    },
    {
      "midi": 55,
      "hit": false,
      "t": 131025.390625,
      "d": 190.4296875,
      "v": 81
    },
    {
      "midi": 54,
      "hit": false,
      "t": 131264.6484375,
      "d": 332.03125,
      "v": 78
    },
    {
      "midi": 54,
      "hit": false,
      "t": 131684.5703125,
      "d": 322.265625,
      "v": 94
    },
    {
      "midi": 66,
      "hit": false,
      "t": 131689.453125,
      "d": 258.7890625,
      "v": 114
    },
    {
      "midi": 62,
      "hit": false,
      "t": 131694.3359375,
      "d": 253.90625,
      "v": 98
    },
    {
      "midi": 57,
      "hit": false,
      "t": 131928.7109375,
      "d": 209.9609375,
      "v": 62
    },
    {
      "midi": 53,
      "hit": false,
      "t": 132158.203125,
      "d": 341.796875,
      "v": 86
    },
    {
      "midi": 60,
      "hit": false,
      "t": 132158.203125,
      "d": 458.984375,
      "v": 105
    },
    {
      "midi": 65,
      "hit": false,
      "t": 132163.0859375,
      "d": 458.984375,
      "v": 95
    },
    {
      "midi": 65,
      "hit": false,
      "t": 132646.484375,
      "d": 332.03125,
      "v": 87
    },
    {
      "midi": 60,
      "hit": false,
      "t": 132651.3671875,
      "d": 278.3203125,
      "v": 97
    },
    {
      "midi": 53,
      "hit": false,
      "t": 132656.25,
      "d": 302.734375,
      "v": 80
    },
    {
      "midi": 57,
      "hit": false,
      "t": 132910.15625,
      "d": 141.6015625,
      "v": 76
    },
    {
      "midi": 48,
      "hit": false,
      "t": 133134.765625,
      "d": 615.234375,
      "v": 103
    },
    {
      "midi": 55,
      "hit": false,
      "t": 133388.671875,
      "d": 234.375,
      "v": 60
    },
    {
      "midi": 60,
      "hit": false,
      "t": 133603.515625,
      "d": 224.609375,
      "v": 109
    },
    {
      "midi": 64,
      "hit": false,
      "t": 133603.515625,
      "d": 385.7421875,
      "v": 101
    },
    {
      "midi": 55,
      "hit": false,
      "t": 133818.359375,
      "d": 234.375,
      "v": 60
    },
    {
      "midi": 48,
      "hit": false,
      "t": 133828.125,
      "d": 1025.390625,
      "v": 60
    },
    {
      "midi": 62,
      "hit": false,
      "t": 134072.265625,
      "d": 180.6640625,
      "v": 99
    },
    {
      "midi": 59,
      "hit": false,
      "t": 134072.265625,
      "d": 214.84375,
      "v": 97
    },
    {
      "midi": 64,
      "hit": false,
      "t": 134291.9921875,
      "d": 644.53125,
      "v": 82
    },
    {
      "midi": 60,
      "hit": false,
      "t": 134306.640625,
      "d": 429.6875,
      "v": 78
    },
    {
      "midi": 55,
      "hit": false,
      "t": 134531.25,
      "d": 283.203125,
      "v": 76
    },
    {
      "midi": 60,
      "hit": false,
      "t": 134775.390625,
      "d": 234.375,
      "v": 102
    },
    {
      "midi": 56,
      "hit": false,
      "t": 135000,
      "d": 97.65625,
      "v": 72
    },
    {
      "midi": 59,
      "hit": false,
      "t": 135000,
      "d": 166.015625,
      "v": 66
    },
    {
      "midi": 62,
      "hit": false,
      "t": 135009.765625,
      "d": 92.7734375,
      "v": 66
    },
    {
      "midi": 64,
      "hit": false,
      "t": 135014.6484375,
      "d": 97.65625,
      "v": 60
    },
    {
      "midi": 52,
      "hit": false,
      "t": 135019.53125,
      "d": 68.359375,
      "v": 47
    },
    {
      "midi": 52,
      "hit": false,
      "t": 135224.609375,
      "d": 97.65625,
      "v": 52
    },
    {
      "midi": 64,
      "hit": false,
      "t": 135229.4921875,
      "d": 112.3046875,
      "v": 62
    },
    {
      "midi": 56,
      "hit": false,
      "t": 135234.375,
      "d": 97.65625,
      "v": 66
    },
    {
      "midi": 62,
      "hit": false,
      "t": 135239.2578125,
      "d": 92.7734375,
      "v": 70
    },
    {
      "midi": 59,
      "hit": false,
      "t": 135239.2578125,
      "d": 107.421875,
      "v": 60
    },
    {
      "midi": 52,
      "hit": false,
      "t": 135468.75,
      "d": 92.7734375,
      "v": 56
    },
    {
      "midi": 56,
      "hit": false,
      "t": 135473.6328125,
      "d": 107.421875,
      "v": 75
    },
    {
      "midi": 62,
      "hit": false,
      "t": 135478.515625,
      "d": 107.421875,
      "v": 71
    },
    {
      "midi": 64,
      "hit": false,
      "t": 135478.515625,
      "d": 107.421875,
      "v": 71
    },
    {
      "midi": 59,
      "hit": false,
      "t": 135483.3984375,
      "d": 112.3046875,
      "v": 67
    },
    {
      "midi": 56,
      "hit": false,
      "t": 135698.2421875,
      "d": 122.0703125,
      "v": 80
    },
    {
      "midi": 52,
      "hit": false,
      "t": 135703.125,
      "d": 107.421875,
      "v": 66
    },
    {
      "midi": 62,
      "hit": false,
      "t": 135712.890625,
      "d": 117.1875,
      "v": 82
    },
    {
      "midi": 59,
      "hit": false,
      "t": 135712.890625,
      "d": 122.0703125,
      "v": 82
    },
    {
      "midi": 64,
      "hit": false,
      "t": 135717.7734375,
      "d": 102.5390625,
      "v": 81
    },
    {
      "midi": 56,
      "hit": false,
      "t": 135937.5,
      "d": 107.421875,
      "v": 81
    },
    {
      "midi": 52,
      "hit": false,
      "t": 135942.3828125,
      "d": 97.65625,
      "v": 75
    },
    {
      "midi": 64,
      "hit": false,
      "t": 135947.265625,
      "d": 107.421875,
      "v": 87
    },
    {
      "midi": 62,
      "hit": false,
      "t": 135947.265625,
      "d": 112.3046875,
      "v": 93
    },
    {
      "midi": 59,
      "hit": false,
      "t": 135952.1484375,
      "d": 112.3046875,
      "v": 85
    },
    {
      "midi": 56,
      "hit": false,
      "t": 136162.109375,
      "d": 112.3046875,
      "v": 85
    },
    {
      "midi": 52,
      "hit": false,
      "t": 136166.9921875,
      "d": 92.7734375,
      "v": 77
    },
    {
      "midi": 62,
      "hit": false,
      "t": 136171.875,
      "d": 112.3046875,
      "v": 97
    },
    {
      "midi": 64,
      "hit": false,
      "t": 136176.7578125,
      "d": 102.5390625,
      "v": 90
    },
    {
      "midi": 59,
      "hit": false,
      "t": 136181.640625,
      "d": 102.5390625,
      "v": 90
    },
    {
      "midi": 56,
      "hit": false,
      "t": 136401.3671875,
      "d": 107.421875,
      "v": 93
    },
    {
      "midi": 52,
      "hit": false,
      "t": 136411.1328125,
      "d": 92.7734375,
      "v": 83
    },
    {
      "midi": 62,
      "hit": false,
      "t": 136416.015625,
      "d": 97.65625,
      "v": 107
    },
    {
      "midi": 64,
      "hit": false,
      "t": 136420.8984375,
      "d": 87.890625,
      "v": 99
    },
    {
      "midi": 59,
      "hit": false,
      "t": 136420.8984375,
      "d": 92.7734375,
      "v": 99
    },
    {
      "midi": 56,
      "hit": false,
      "t": 136630.859375,
      "d": 102.5390625,
      "v": 89
    },
    {
      "midi": 52,
      "hit": false,
      "t": 136635.7421875,
      "d": 92.7734375,
      "v": 82
    },
    {
      "midi": 62,
      "hit": false,
      "t": 136645.5078125,
      "d": 107.421875,
      "v": 97
    },
    {
      "midi": 64,
      "hit": false,
      "t": 136650.390625,
      "d": 92.7734375,
      "v": 90
    },
    {
      "midi": 59,
      "hit": false,
      "t": 136655.2734375,
      "d": 102.5390625,
      "v": 90
    },
    {
      "midi": 52,
      "hit": false,
      "t": 136870.1171875,
      "d": 97.65625,
      "v": 89
    },
    {
      "midi": 56,
      "hit": false,
      "t": 136870.1171875,
      "d": 107.421875,
      "v": 99
    },
    {
      "midi": 62,
      "hit": false,
      "t": 136879.8828125,
      "d": 107.421875,
      "v": 105
    },
    {
      "midi": 64,
      "hit": false,
      "t": 136884.765625,
      "d": 87.890625,
      "v": 99
    },
    {
      "midi": 59,
      "hit": false,
      "t": 136884.765625,
      "d": 92.7734375,
      "v": 99
    },
    {
      "midi": 52,
      "hit": false,
      "t": 137109.375,
      "d": 102.5390625,
      "v": 89
    },
    {
      "midi": 56,
      "hit": false,
      "t": 137109.375,
      "d": 107.421875,
      "v": 101
    },
    {
      "midi": 62,
      "hit": false,
      "t": 137114.2578125,
      "d": 102.5390625,
      "v": 107
    },
    {
      "midi": 59,
      "hit": false,
      "t": 137119.140625,
      "d": 92.7734375,
      "v": 99
    },
    {
      "midi": 64,
      "hit": false,
      "t": 137124.0234375,
      "d": 83.0078125,
      "v": 101
    },
    {
      "midi": 56,
      "hit": false,
      "t": 137333.984375,
      "d": 112.3046875,
      "v": 103
    },
    {
      "midi": 52,
      "hit": false,
      "t": 137338.8671875,
      "d": 102.5390625,
      "v": 90
    },
    {
      "midi": 62,
      "hit": false,
      "t": 137343.75,
      "d": 107.421875,
      "v": 111
    },
    {
      "midi": 64,
      "hit": false,
      "t": 137348.6328125,
      "d": 92.7734375,
      "v": 101
    },
    {
      "midi": 59,
      "hit": false,
      "t": 137353.515625,
      "d": 92.7734375,
      "v": 101
    },
    {
      "midi": 56,
      "hit": false,
      "t": 137578.125,
      "d": 112.3046875,
      "v": 113
    },
    {
      "midi": 52,
      "hit": false,
      "t": 137583.0078125,
      "d": 92.7734375,
      "v": 99
    },
    {
      "midi": 59,
      "hit": false,
      "t": 137587.890625,
      "d": 87.890625,
      "v": 103
    },
    {
      "midi": 64,
      "hit": false,
      "t": 137592.7734375,
      "d": 83.0078125,
      "v": 103
    },
    {
      "midi": 62,
      "hit": false,
      "t": 137592.7734375,
      "d": 92.7734375,
      "v": 113
    },
    {
      "midi": 62,
      "hit": false,
      "t": 137807.6171875,
      "d": 102.5390625,
      "v": 111
    },
    {
      "midi": 56,
      "hit": false,
      "t": 137812.5,
      "d": 97.65625,
      "v": 111
    },
    {
      "midi": 59,
      "hit": false,
      "t": 137817.3828125,
      "d": 83.0078125,
      "v": 107
    },
    {
      "midi": 64,
      "hit": false,
      "t": 137817.3828125,
      "d": 83.0078125,
      "v": 103
    },
    {
      "midi": 52,
      "hit": false,
      "t": 137822.265625,
      "d": 78.125,
      "v": 99
    },
    {
      "midi": 62,
      "hit": false,
      "t": 138041.9921875,
      "d": 117.1875,
      "v": 117
    },
    {
      "midi": 59,
      "hit": false,
      "t": 138046.875,
      "d": 87.890625,
      "v": 109
    },
    {
      "midi": 64,
      "hit": false,
      "t": 138051.7578125,
      "d": 92.7734375,
      "v": 109
    },
    {
      "midi": 56,
      "hit": false,
      "t": 138056.640625,
      "d": 87.890625,
      "v": 119
    },
    {
      "midi": 52,
      "hit": false,
      "t": 138056.640625,
      "d": 102.5390625,
      "v": 105
    },
    {
      "midi": 52,
      "hit": false,
      "t": 138276.3671875,
      "d": 92.7734375,
      "v": 103
    },
    {
      "midi": 56,
      "hit": false,
      "t": 138276.3671875,
      "d": 92.7734375,
      "v": 119
    },
    {
      "midi": 62,
      "hit": false,
      "t": 138281.25,
      "d": 117.1875,
      "v": 111
    },
    {
      "midi": 59,
      "hit": false,
      "t": 138286.1328125,
      "d": 87.890625,
      "v": 101
    },
    {
      "midi": 64,
      "hit": false,
      "t": 138291.015625,
      "d": 97.65625,
      "v": 105
    },
    {
      "midi": 56,
      "hit": false,
      "t": 138510.7421875,
      "d": 87.890625,
      "v": 126
    },
    {
      "midi": 52,
      "hit": false,
      "t": 138515.625,
      "d": 263.671875,
      "v": 115
    },
    {
      "midi": 62,
      "hit": false,
      "t": 138520.5078125,
      "d": 166.015625,
      "v": 127
    },
    {
      "midi": 64,
      "hit": false,
      "t": 138520.5078125,
      "d": 410.15625,
      "v": 121
    },
    {
      "midi": 59,
      "hit": false,
      "t": 138525.390625,
      "d": 117.1875,
      "v": 115
    },
    {
      "midi": 45,
      "hit": false,
      "t": 138754.8828125,
      "d": 839.84375,
      "v": 113
    },
    {
      "midi": 64,
      "hit": false,
      "t": 139208.984375,
      "d": 405.2734375,
      "v": 111
    },
    {
      "midi": 60,
      "hit": false,
      "t": 139213.8671875,
      "d": 419.921875,
      "v": 115
    },
    {
      "midi": 57,
      "hit": false,
      "t": 139453.125,
      "d": 185.546875,
      "v": 93
    },
    {
      "midi": 50,
      "hit": false,
      "t": 139658.203125,
      "d": 820.3125,
      "v": 113
    },
    {
      "midi": 57,
      "hit": false,
      "t": 139667.96875,
      "d": 234.375,
      "v": 84
    },
    {
      "midi": 66,
      "hit": false,
      "t": 139921.875,
      "d": 97.65625,
      "v": 123
    },
    {
      "midi": 62,
      "hit": false,
      "t": 139926.7578125,
      "d": 97.65625,
      "v": 113
    },
    {
      "midi": 57,
      "hit": false,
      "t": 139931.640625,
      "d": 78.125,
      "v": 105
    },
    {
      "midi": 66,
      "hit": false,
      "t": 140146.484375,
      "d": 219.7265625,
      "v": 123
    },
    {
      "midi": 57,
      "hit": false,
      "t": 140146.484375,
      "d": 366.2109375,
      "v": 107
    },
    {
      "midi": 62,
      "hit": false,
      "t": 140151.3671875,
      "d": 126.953125,
      "v": 117
    },
    {
      "midi": 64,
      "hit": false,
      "t": 140380.859375,
      "d": 151.3671875,
      "v": 85
    },
    {
      "midi": 60,
      "hit": false,
      "t": 140380.859375,
      "d": 156.25,
      "v": 92
    },
    {
      "midi": 45,
      "hit": false,
      "t": 140625,
      "d": 571.2890625,
      "v": 92
    },
    {
      "midi": 60,
      "hit": false,
      "t": 140869.140625,
      "d": 117.1875,
      "v": 76
    },
    {
      "midi": 64,
      "hit": false,
      "t": 140869.140625,
      "d": 126.953125,
      "v": 76
    },
    {
      "midi": 57,
      "hit": false,
      "t": 140874.0234375,
      "d": 107.421875,
      "v": 75
    },
    {
      "midi": 57,
      "hit": false,
      "t": 141088.8671875,
      "d": 166.015625,
      "v": 101
    },
    {
      "midi": 64,
      "hit": false,
      "t": 141088.8671875,
      "d": 283.203125,
      "v": 109
    },
    {
      "midi": 60,
      "hit": false,
      "t": 141093.75,
      "d": 244.140625,
      "v": 111
    },
    {
      "midi": 45,
      "hit": false,
      "t": 141318.359375,
      "d": 229.4921875,
      "v": 87
    },
    {
      "midi": 57,
      "hit": false,
      "t": 141333.0078125,
      "d": 131.8359375,
      "v": 65
    },
    {
      "midi": 57,
      "hit": false,
      "t": 141562.5,
      "d": 180.6640625,
      "v": 109
    },
    {
      "midi": 53,
      "hit": false,
      "t": 141562.5,
      "d": 830.078125,
      "v": 89
    },
    {
      "midi": 60,
      "hit": false,
      "t": 141567.3828125,
      "d": 185.546875,
      "v": 100
    },
    {
      "midi": 64,
      "hit": false,
      "t": 141567.3828125,
      "d": 224.609375,
      "v": 80
    },
    {
      "midi": 57,
      "hit": false,
      "t": 141796.875,
      "d": 180.6640625,
      "v": 84
    },
    {
      "midi": 65,
      "hit": false,
      "t": 141801.7578125,
      "d": 170.8984375,
      "v": 84
    },
    {
      "midi": 60,
      "hit": false,
      "t": 141806.640625,
      "d": 185.546875,
      "v": 84
    },
    {
      "midi": 57,
      "hit": false,
      "t": 142055.6640625,
      "d": 473.6328125,
      "v": 107
    },
    {
      "midi": 65,
      "hit": false,
      "t": 142060.546875,
      "d": 258.7890625,
      "v": 113
    },
    {
      "midi": 60,
      "hit": false,
      "t": 142060.546875,
      "d": 468.75,
      "v": 119
    },
    {
      "midi": 45,
      "hit": false,
      "t": 142519.53125,
      "d": 874.0234375,
      "v": 109
    },
    {
      "midi": 57,
      "hit": false,
      "t": 142758.7890625,
      "d": 78.125,
      "v": 81
    },
    {
      "midi": 64,
      "hit": false,
      "t": 142763.671875,
      "d": 73.2421875,
      "v": 87
    },
    {
      "midi": 60,
      "hit": false,
      "t": 142768.5546875,
      "d": 63.4765625,
      "v": 87
    },
    {
      "midi": 60,
      "hit": false,
      "t": 142988.28125,
      "d": 268.5546875,
      "v": 117
    },
    {
      "midi": 57,
      "hit": false,
      "t": 142993.1640625,
      "d": 68.359375,
      "v": 97
    },
    {
      "midi": 64,
      "hit": false,
      "t": 142993.1640625,
      "d": 268.5546875,
      "v": 109
    },
    {
      "midi": 57,
      "hit": false,
      "t": 143212.890625,
      "d": 117.1875,
      "v": 89
    },
    {
      "midi": 50,
      "hit": false,
      "t": 143447.265625,
      "d": 859.375,
      "v": 109
    },
    {
      "midi": 57,
      "hit": false,
      "t": 143666.9921875,
      "d": 63.4765625,
      "v": 85
    },
    {
      "midi": 62,
      "hit": false,
      "t": 143671.875,
      "d": 53.7109375,
      "v": 99
    },
    {
      "midi": 66,
      "hit": false,
      "t": 143671.875,
      "d": 58.59375,
      "v": 105
    },
    {
      "midi": 66,
      "hit": false,
      "t": 143911.1328125,
      "d": 224.609375,
      "v": 125
    },
    {
      "midi": 62,
      "hit": false,
      "t": 143916.015625,
      "d": 156.25,
      "v": 119
    },
    {
      "midi": 57,
      "hit": false,
      "t": 143916.015625,
      "d": 327.1484375,
      "v": 101
    },
    {
      "midi": 64,
      "hit": false,
      "t": 144150.390625,
      "d": 122.0703125,
      "v": 71
    },
    {
      "midi": 60,
      "hit": false,
      "t": 144160.15625,
      "d": 117.1875,
      "v": 81
    },
    {
      "midi": 45,
      "hit": false,
      "t": 144350.5859375,
      "d": 922.8515625,
      "v": 75
    },
    {
      "midi": 57,
      "hit": false,
      "t": 144619.140625,
      "d": 87.890625,
      "v": 90
    },
    {
      "midi": 64,
      "hit": false,
      "t": 144843.75,
      "d": 288.0859375,
      "v": 109
    },
    {
      "midi": 60,
      "hit": false,
      "t": 144848.6328125,
      "d": 273.4375,
      "v": 109
    },
    {
      "midi": 57,
      "hit": false,
      "t": 144853.515625,
      "d": 87.890625,
      "v": 87
    },
    {
      "midi": 57,
      "hit": false,
      "t": 145078.125,
      "d": 146.484375,
      "v": 71
    },
    {
      "midi": 53,
      "hit": false,
      "t": 145297.8515625,
      "d": 810.546875,
      "v": 93
    },
    {
      "midi": 57,
      "hit": false,
      "t": 145532.2265625,
      "d": 263.671875,
      "v": 89
    },
    {
      "midi": 60,
      "hit": false,
      "t": 145756.8359375,
      "d": 244.140625,
      "v": 115
    },
    {
      "midi": 65,
      "hit": false,
      "t": 145761.71875,
      "d": 268.5546875,
      "v": 107
    },
    {
      "midi": 57,
      "hit": false,
      "t": 145976.5625,
      "d": 131.8359375,
      "v": 67
    },
    {
      "midi": 45,
      "hit": false,
      "t": 146220.703125,
      "d": 893.5546875,
      "v": 92
    },
    {
      "midi": 57,
      "hit": false,
      "t": 146474.609375,
      "d": 170.8984375,
      "v": 77
    },
    {
      "midi": 64,
      "hit": false,
      "t": 146713.8671875,
      "d": 214.84375,
      "v": 107
    },
    {
      "midi": 60,
      "hit": false,
      "t": 146718.75,
      "d": 214.84375,
      "v": 109
    },
    {
      "midi": 57,
      "hit": false,
      "t": 146938.4765625,
      "d": 136.71875,
      "v": 64
    },
    {
      "midi": 50,
      "hit": false,
      "t": 147192.3828125,
      "d": 854.4921875,
      "v": 115
    },
    {
      "midi": 62,
      "hit": false,
      "t": 147197.265625,
      "d": 92.7734375,
      "v": 50
    },
    {
      "midi": 66,
      "hit": false,
      "t": 147197.265625,
      "d": 102.5390625,
      "v": 54
    },
    {
      "midi": 57,
      "hit": false,
      "t": 147202.1484375,
      "d": 107.421875,
      "v": 44
    },
    {
      "midi": 66,
      "hit": false,
      "t": 147397.4609375,
      "d": 151.3671875,
      "v": 64
    },
    {
      "midi": 57,
      "hit": false,
      "t": 147407.2265625,
      "d": 122.0703125,
      "v": 45
    },
    {
      "midi": 62,
      "hit": false,
      "t": 147412.109375,
      "d": 126.953125,
      "v": 49
    },
    {
      "midi": 62,
      "hit": false,
      "t": 147656.25,
      "d": 141.6015625,
      "v": 95
    },
    {
      "midi": 66,
      "hit": false,
      "t": 147661.1328125,
      "d": 122.0703125,
      "v": 87
    },
    {
      "midi": 57,
      "hit": false,
      "t": 147666.015625,
      "d": 117.1875,
      "v": 89
    },
    {
      "midi": 62,
      "hit": false,
      "t": 147885.7421875,
      "d": 112.3046875,
      "v": 93
    },
    {
      "midi": 66,
      "hit": false,
      "t": 147890.625,
      "d": 146.484375,
      "v": 97
    },
    {
      "midi": 57,
      "hit": false,
      "t": 147895.5078125,
      "d": 131.8359375,
      "v": 90
    },
    {
      "midi": 67,
      "hit": false,
      "t": 148105.46875,
      "d": 117.1875,
      "v": 72
    },
    {
      "midi": 69,
      "hit": false,
      "t": 148105.46875,
      "d": 117.1875,
      "v": 79
    },
    {
      "midi": 45,
      "hit": false,
      "t": 148115.234375,
      "d": 102.5390625,
      "v": 81
    },
    {
      "midi": 55,
      "hit": false,
      "t": 148115.234375,
      "d": 126.953125,
      "v": 78
    },
    {
      "midi": 60,
      "hit": false,
      "t": 148120.1171875,
      "d": 87.890625,
      "v": 76
    },
    {
      "midi": 60,
      "hit": false,
      "t": 148388.671875,
      "d": 83.0078125,
      "v": 47
    },
    {
      "midi": 57,
      "hit": false,
      "t": 148388.671875,
      "d": 112.3046875,
      "v": 34
    },
    {
      "midi": 67,
      "hit": false,
      "t": 148398.4375,
      "d": 102.5390625,
      "v": 41
    },
    {
      "midi": 69,
      "hit": false,
      "t": 148398.4375,
      "d": 102.5390625,
      "v": 48
    },
    {
      "midi": 69,
      "hit": false,
      "t": 148588.8671875,
      "d": 122.0703125,
      "v": 40
    },
    {
      "midi": 57,
      "hit": false,
      "t": 148588.8671875,
      "d": 126.953125,
      "v": 40
    },
    {
      "midi": 67,
      "hit": false,
      "t": 148593.75,
      "d": 122.0703125,
      "v": 33
    },
    {
      "midi": 60,
      "hit": false,
      "t": 148598.6328125,
      "d": 112.3046875,
      "v": 59
    },
    {
      "midi": 69,
      "hit": false,
      "t": 148833.0078125,
      "d": 112.3046875,
      "v": 67
    },
    {
      "midi": 67,
      "hit": false,
      "t": 148833.0078125,
      "d": 117.1875,
      "v": 60
    },
    {
      "midi": 57,
      "hit": false,
      "t": 148837.890625,
      "d": 112.3046875,
      "v": 54
    },
    {
      "midi": 60,
      "hit": false,
      "t": 148842.7734375,
      "d": 97.65625,
      "v": 73
    },
    {
      "midi": 67,
      "hit": false,
      "t": 149047.8515625,
      "d": 107.421875,
      "v": 60
    },
    {
      "midi": 69,
      "hit": false,
      "t": 149047.8515625,
      "d": 107.421875,
      "v": 67
    },
    {
      "midi": 57,
      "hit": false,
      "t": 149057.6171875,
      "d": 87.890625,
      "v": 64
    },
    {
      "midi": 60,
      "hit": false,
      "t": 149057.6171875,
      "d": 92.7734375,
      "v": 69
    },
    {
      "midi": 69,
      "hit": false,
      "t": 149287.109375,
      "d": 102.5390625,
      "v": 81
    },
    {
      "midi": 67,
      "hit": false,
      "t": 149287.109375,
      "d": 107.421875,
      "v": 74
    },
    {
      "midi": 60,
      "hit": false,
      "t": 149296.875,
      "d": 87.890625,
      "v": 80
    },
    {
      "midi": 57,
      "hit": false,
      "t": 149301.7578125,
      "d": 83.0078125,
      "v": 68
    },
    {
      "midi": 69,
      "hit": false,
      "t": 149526.3671875,
      "d": 112.3046875,
      "v": 90
    },
    {
      "midi": 67,
      "hit": false,
      "t": 149531.25,
      "d": 107.421875,
      "v": 83
    },
    {
      "midi": 60,
      "hit": false,
      "t": 149536.1328125,
      "d": 107.421875,
      "v": 99
    },
    {
      "midi": 64,
      "hit": false,
      "t": 149536.1328125,
      "d": 117.1875,
      "v": 90
    },
    {
      "midi": 57,
      "hit": false,
      "t": 149541.015625,
      "d": 87.890625,
      "v": 92
    },
    {
      "midi": 69,
      "hit": false,
      "t": 149750.9765625,
      "d": 112.3046875,
      "v": 96
    },
    {
      "midi": 67,
      "hit": false,
      "t": 149750.9765625,
      "d": 117.1875,
      "v": 89
    },
    {
      "midi": 64,
      "hit": false,
      "t": 149755.859375,
      "d": 122.0703125,
      "v": 93
    },
    {
      "midi": 57,
      "hit": false,
      "t": 149760.7421875,
      "d": 87.890625,
      "v": 99
    },
    {
      "midi": 60,
      "hit": false,
      "t": 149760.7421875,
      "d": 112.3046875,
      "v": 105
    },
    {
      "midi": 55,
      "hit": false,
      "t": 149765.625,
      "d": 87.890625,
      "v": 78
    },
    {
      "midi": 45,
      "hit": false,
      "t": 149990.234375,
      "d": 151.3671875,
      "v": 79
    },
    {
      "midi": 55,
      "hit": false,
      "t": 149995.1171875,
      "d": 146.484375,
      "v": 92
    },
    {
      "midi": 67,
      "hit": false,
      "t": 149995.1171875,
      "d": 161.1328125,
      "v": 98
    },
    {
      "midi": 69,
      "hit": false,
      "t": 149995.1171875,
      "d": 161.1328125,
      "v": 105
    },
    {
      "midi": 57,
      "hit": false,
      "t": 150000,
      "d": 156.25,
      "v": 106
    },
    {
      "midi": 64,
      "hit": false,
      "t": 150004.8828125,
      "d": 161.1328125,
      "v": 108
    },
    {
      "midi": 60,
      "hit": false,
      "t": 150009.765625,
      "d": 151.3671875,
      "v": 112
    }
  ]
}