{
  "jsonPath": "World/Chanson/Natasha St-Pier/pourquoi-tant-de-larmes.json",
  "path": "World\\Chanson\\Natasha St-Pier\\Pourquoi Tant De Larmes.mid",
  "name": "Pourquoi Tant De Larmes",
  "difficulty": "Advanced",
  "bpm": 72.000288001152,
  "notes": [
    {
      "midi": 66,
      "hit": false,
      "t": 11984.375,
      "d": 839.84375,
      "v": 122
    },
    {
      "midi": 50,
      "hit": false,
      "t": 12000,
      "d": 2980.46875,
      "v": 110
    },
    {
      "midi": 69,
      "hit": false,
      "t": 12015.625,
      "d": 847.65625,
      "v": 122
    },
    {
      "midi": 62,
      "hit": false,
      "t": 12742.1875,
      "d": 824.21875,
      "v": 90
    },
    {
      "midi": 69,
      "hit": false,
      "t": 13484.375,
      "d": 832.03125,
      "v": 114
    },
    {
      "midi": 66,
      "hit": false,
      "t": 13500,
      "d": 800.78125,
      "v": 117
    },
    {
      "midi": 62,
      "hit": false,
      "t": 14257.8125,
      "d": 808.59375,
      "v": 80
    },
    {
      "midi": 64,
      "hit": false,
      "t": 14984.375,
      "d": 832.03125,
      "v": 117
    },
    {
      "midi": 49,
      "hit": false,
      "t": 15000,
      "d": 2980.46875,
      "v": 110
    },
    {
      "midi": 69,
      "hit": false,
      "t": 15007.8125,
      "d": 894.53125,
      "v": 112
    },
    {
      "midi": 61,
      "hit": false,
      "t": 15750,
      "d": 800.78125,
      "v": 103
    },
    {
      "midi": 69,
      "hit": false,
      "t": 16500,
      "d": 777.34375,
      "v": 112
    },
    {
      "midi": 64,
      "hit": false,
      "t": 16500,
      "d": 816.40625,
      "v": 114
    },
    {
      "midi": 61,
      "hit": false,
      "t": 17265.625,
      "d": 722.65625,
      "v": 84
    },
    {
      "midi": 47,
      "hit": false,
      "t": 18000,
      "d": 2230.46875,
      "v": 110
    },
    {
      "midi": 67,
      "hit": false,
      "t": 18007.8125,
      "d": 832.03125,
      "v": 114
    },
    {
      "midi": 62,
      "hit": false,
      "t": 18015.625,
      "d": 792.96875,
      "v": 119
    },
    {
      "midi": 59,
      "hit": false,
      "t": 18765.625,
      "d": 816.40625,
      "v": 97
    },
    {
      "midi": 62,
      "hit": false,
      "t": 19492.1875,
      "d": 839.84375,
      "v": 119
    },
    {
      "midi": 67,
      "hit": false,
      "t": 19507.8125,
      "d": 847.65625,
      "v": 101
    },
    {
      "midi": 43,
      "hit": false,
      "t": 20250,
      "d": 410.15625,
      "v": 110
    },
    {
      "midi": 59,
      "hit": false,
      "t": 20257.8125,
      "d": 816.40625,
      "v": 97
    },
    {
      "midi": 45,
      "hit": false,
      "t": 20625,
      "d": 324.21875,
      "v": 110
    },
    {
      "midi": 46,
      "hit": false,
      "t": 21000,
      "d": 2933.59375,
      "v": 127
    },
    {
      "midi": 62,
      "hit": false,
      "t": 21007.8125,
      "d": 792.96875,
      "v": 119
    },
    {
      "midi": 67,
      "hit": false,
      "t": 21015.625,
      "d": 832.03125,
      "v": 114
    },
    {
      "midi": 58,
      "hit": false,
      "t": 21742.1875,
      "d": 816.40625,
      "v": 97
    },
    {
      "midi": 66,
      "hit": false,
      "t": 22484.375,
      "d": 707.03125,
      "v": 101
    },
    {
      "midi": 62,
      "hit": false,
      "t": 22507.8125,
      "d": 714.84375,
      "v": 119
    },
    {
      "midi": 58,
      "hit": false,
      "t": 23234.375,
      "d": 816.40625,
      "v": 97
    },
    {
      "midi": 64,
      "hit": false,
      "t": 23265.625,
      "d": 816.40625,
      "v": 97
    },
    {
      "midi": 66,
      "hit": false,
      "t": 23984.375,
      "d": 910.15625,
      "v": 117
    },
    {
      "midi": 45,
      "hit": false,
      "t": 24000,
      "d": 2980.46875,
      "v": 110
    },
    {
      "midi": 62,
      "hit": false,
      "t": 24007.8125,
      "d": 878.90625,
      "v": 125
    },
    {
      "midi": 57,
      "hit": false,
      "t": 24742.1875,
      "d": 777.34375,
      "v": 97
    },
    {
      "midi": 62,
      "hit": false,
      "t": 25484.375,
      "d": 292.96875,
      "v": 125
    },
    {
      "midi": 66,
      "hit": false,
      "t": 25515.625,
      "d": 386.71875,
      "v": 119
    },
    {
      "midi": 57,
      "hit": false,
      "t": 25882.8125,
      "d": 761.71875,
      "v": 103
    },
    {
      "midi": 62,
      "hit": false,
      "t": 26242.1875,
      "d": 457.03125,
      "v": 114
    },
    {
      "midi": 69,
      "hit": false,
      "t": 26609.375,
      "d": 277.34375,
      "v": 114
    },
    {
      "midi": 61,
      "hit": false,
      "t": 27000,
      "d": 808.59375,
      "v": 125
    },
    {
      "midi": 45,
      "hit": false,
      "t": 27000,
      "d": 2980.46875,
      "v": 110
    },
    {
      "midi": 64,
      "hit": false,
      "t": 27007.8125,
      "d": 746.09375,
      "v": 114
    },
    {
      "midi": 69,
      "hit": false,
      "t": 27007.8125,
      "d": 847.65625,
      "v": 122
    },
    {
      "midi": 57,
      "hit": false,
      "t": 27750,
      "d": 707.03125,
      "v": 101
    },
    {
      "midi": 69,
      "hit": false,
      "t": 28492.1875,
      "d": 847.65625,
      "v": 122
    },
    {
      "midi": 64,
      "hit": false,
      "t": 28500,
      "d": 746.09375,
      "v": 114
    },
    {
      "midi": 61,
      "hit": false,
      "t": 28507.8125,
      "d": 808.59375,
      "v": 125
    },
    {
      "midi": 57,
      "hit": false,
      "t": 29234.375,
      "d": 707.03125,
      "v": 101
    },
    {
      "midi": 59,
      "hit": false,
      "t": 29992.1875,
      "d": 1074.21875,
      "v": 125
    },
    {
      "midi": 38,
      "hit": false,
      "t": 30000,
      "d": 2980.46875,
      "v": 110
    },
    {
      "midi": 67,
      "hit": false,
      "t": 30015.625,
      "d": 1074.21875,
      "v": 125
    },
    {
      "midi": 61,
      "hit": false,
      "t": 31117.1875,
      "d": 1097.65625,
      "v": 117
    },
    {
      "midi": 69,
      "hit": false,
      "t": 31132.8125,
      "d": 1277.34375,
      "v": 117
    },
    {
      "midi": 59,
      "hit": false,
      "t": 32242.1875,
      "d": 699.21875,
      "v": 117
    },
    {
      "midi": 67,
      "hit": false,
      "t": 32242.1875,
      "d": 792.96875,
      "v": 117
    },
    {
      "midi": 66,
      "hit": false,
      "t": 33000,
      "d": 2972.65625,
      "v": 122
    },
    {
      "midi": 38,
      "hit": false,
      "t": 33000,
      "d": 2980.46875,
      "v": 110
    },
    {
      "midi": 57,
      "hit": false,
      "t": 33015.625,
      "d": 2972.65625,
      "v": 122
    },
    {
      "midi": 62,
      "hit": false,
      "t": 36000,
      "d": 714.84375,
      "v": 126
    },
    {
      "midi": 66,
      "hit": false,
      "t": 36000,
      "d": 738.28125,
      "v": 126
    },
    {
      "midi": 38,
      "hit": false,
      "t": 36000,
      "d": 2980.46875,
      "v": 117
    },
    {
      "midi": 50,
      "hit": false,
      "t": 36000,
      "d": 2980.46875,
      "v": 118
    },
    {
      "midi": 57,
      "hit": false,
      "t": 36750,
      "d": 792.96875,
      "v": 115
    },
    {
      "midi": 62,
      "hit": false,
      "t": 37492.1875,
      "d": 714.84375,
      "v": 125
    },
    {
      "midi": 66,
      "hit": false,
      "t": 37507.8125,
      "d": 738.28125,
      "v": 125
    },
    {
      "midi": 57,
      "hit": false,
      "t": 38234.375,
      "d": 753.90625,
      "v": 116
    },
    {
      "midi": 66,
      "hit": false,
      "t": 38992.1875,
      "d": 753.90625,
      "v": 126
    },
    {
      "midi": 42,
      "hit": false,
      "t": 39000,
      "d": 2980.46875,
      "v": 114
    },
    {
      "midi": 54,
      "hit": false,
      "t": 39000,
      "d": 2980.46875,
      "v": 115
    },
    {
      "midi": 69,
      "hit": false,
      "t": 39007.8125,
      "d": 832.03125,
      "v": 125
    },
    {
      "midi": 62,
      "hit": false,
      "t": 39742.1875,
      "d": 878.90625,
      "v": 122
    },
    {
      "midi": 66,
      "hit": false,
      "t": 40492.1875,
      "d": 738.28125,
      "v": 127
    },
    {
      "midi": 69,
      "hit": false,
      "t": 40507.8125,
      "d": 722.65625,
      "v": 126
    },
    {
      "midi": 62,
      "hit": false,
      "t": 41250,
      "d": 722.65625,
      "v": 114
    },
    {
      "midi": 43,
      "hit": false,
      "t": 42000,
      "d": 2980.46875,
      "v": 117
    },
    {
      "midi": 55,
      "hit": false,
      "t": 42000,
      "d": 2980.46875,
      "v": 118
    },
    {
      "midi": 62,
      "hit": false,
      "t": 42007.8125,
      "d": 785.15625,
      "v": 127
    },
    {
      "midi": 67,
      "hit": false,
      "t": 42007.8125,
      "d": 808.59375,
      "v": 125
    },
    {
      "midi": 59,
      "hit": false,
      "t": 42757.8125,
      "d": 847.65625,
      "v": 110
    },
    {
      "midi": 62,
      "hit": false,
      "t": 43507.8125,
      "d": 769.53125,
      "v": 125
    },
    {
      "midi": 67,
      "hit": false,
      "t": 43507.8125,
      "d": 800.78125,
      "v": 124
    },
    {
      "midi": 59,
      "hit": false,
      "t": 44257.8125,
      "d": 824.21875,
      "v": 116
    },
    {
      "midi": 62,
      "hit": false,
      "t": 44523.4375,
      "d": 160.15625,
      "v": 100
    },
    {
      "midi": 69,
      "hit": false,
      "t": 44921.875,
      "d": 2878.90625,
      "v": 125
    },
    {
      "midi": 43,
      "hit": false,
      "t": 45000,
      "d": 2980.46875,
      "v": 111
    },
    {
      "midi": 55,
      "hit": false,
      "t": 45000,
      "d": 2980.46875,
      "v": 112
    },
    {
      "midi": 67,
      "hit": false,
      "t": 45007.8125,
      "d": 792.96875,
      "v": 124
    },
    {
      "midi": 62,
      "hit": false,
      "t": 45007.8125,
      "d": 816.40625,
      "v": 125
    },
    {
      "midi": 67,
      "hit": false,
      "t": 45273.4375,
      "d": 2542.96875,
      "v": 120
    },
    {
      "midi": 62,
      "hit": false,
      "t": 45687.5,
      "d": 2175.78125,
      "v": 125
    },
    {
      "midi": 59,
      "hit": false,
      "t": 45742.1875,
      "d": 832.03125,
      "v": 114
    },
    {
      "midi": 62,
      "hit": false,
      "t": 46484.375,
      "d": 769.53125,
      "v": 125
    },
    {
      "midi": 67,
      "hit": false,
      "t": 46500,
      "d": 707.03125,
      "v": 124
    },
    {
      "midi": 59,
      "hit": false,
      "t": 47257.8125,
      "d": 730.46875,
      "v": 117
    },
    {
      "midi": 66,
      "hit": false,
      "t": 47953.125,
      "d": 1457.03125,
      "v": 113
    },
    {
      "midi": 62,
      "hit": false,
      "t": 48000,
      "d": 769.53125,
      "v": 126
    },
    {
      "midi": 33,
      "hit": false,
      "t": 48000,
      "d": 2980.46875,
      "v": 116
    },
    {
      "midi": 45,
      "hit": false,
      "t": 48000,
      "d": 2980.46875,
      "v": 116
    },
    {
      "midi": 66,
      "hit": false,
      "t": 48007.8125,
      "d": 761.71875,
      "v": 124
    },
    {
      "midi": 57,
      "hit": false,
      "t": 48734.375,
      "d": 792.96875,
      "v": 115
    },
    {
      "midi": 66,
      "hit": false,
      "t": 49429.6875,
      "d": 1550.78125,
      "v": 107
    },
    {
      "midi": 66,
      "hit": false,
      "t": 49500,
      "d": 824.21875,
      "v": 125
    },
    {
      "midi": 62,
      "hit": false,
      "t": 49507.8125,
      "d": 746.09375,
      "v": 126
    },
    {
      "midi": 57,
      "hit": false,
      "t": 50257.8125,
      "d": 722.65625,
      "v": 112
    },
    {
      "midi": 64,
      "hit": false,
      "t": 50992.1875,
      "d": 738.28125,
      "v": 125
    },
    {
      "midi": 33,
      "hit": false,
      "t": 51000,
      "d": 2980.46875,
      "v": 112
    },
    {
      "midi": 45,
      "hit": false,
      "t": 51000,
      "d": 2980.46875,
      "v": 112
    },
    {
      "midi": 64,
      "hit": false,
      "t": 51000,
      "d": 2261.71875,
      "v": 111
    },
    {
      "midi": 61,
      "hit": false,
      "t": 51007.8125,
      "d": 777.34375,
      "v": 125
    },
    {
      "midi": 57,
      "hit": false,
      "t": 51750,
      "d": 816.40625,
      "v": 116
    },
    {
      "midi": 61,
      "hit": false,
      "t": 52500,
      "d": 214.84375,
      "v": 127
    },
    {
      "midi": 64,
      "hit": false,
      "t": 52507.8125,
      "d": 714.84375,
      "v": 127
    },
    {
      "midi": 62,
      "hit": false,
      "t": 53242.1875,
      "d": 167.96875,
      "v": 127
    },
    {
      "midi": 62,
      "hit": false,
      "t": 53281.25,
      "d": 285.15625,
      "v": 123
    },
    {
      "midi": 64,
      "hit": false,
      "t": 53585.9375,
      "d": 425.78125,
      "v": 111
    },
    {
      "midi": 64,
      "hit": false,
      "t": 53625,
      "d": 191.40625,
      "v": 127
    },
    {
      "midi": 33,
      "hit": false,
      "t": 54000,
      "d": 2980.46875,
      "v": 115
    },
    {
      "midi": 45,
      "hit": false,
      "t": 54000,
      "d": 2980.46875,
      "v": 115
    },
    {
      "midi": 62,
      "hit": false,
      "t": 54007.8125,
      "d": 792.96875,
      "v": 127
    },
    {
      "midi": 66,
      "hit": false,
      "t": 54007.8125,
      "d": 816.40625,
      "v": 127
    },
    {
      "midi": 66,
      "hit": false,
      "t": 54031.25,
      "d": 1449.21875,
      "v": 122
    },
    {
      "midi": 57,
      "hit": false,
      "t": 54757.8125,
      "d": 777.34375,
      "v": 117
    },
    {
      "midi": 62,
      "hit": false,
      "t": 55484.375,
      "d": 785.15625,
      "v": 125
    },
    {
      "midi": 66,
      "hit": false,
      "t": 55484.375,
      "d": 886.71875,
      "v": 125
    },
    {
      "midi": 66,
      "hit": false,
      "t": 55500,
      "d": 722.65625,
      "v": 121
    },
    {
      "midi": 57,
      "hit": false,
      "t": 56234.375,
      "d": 285.15625,
      "v": 113
    },
    {
      "midi": 57,
      "hit": false,
      "t": 56242.1875,
      "d": 269.53125,
      "v": 104
    },
    {
      "midi": 66,
      "hit": false,
      "t": 56531.25,
      "d": 417.96875,
      "v": 120
    },
    {
      "midi": 66,
      "hit": false,
      "t": 56617.1875,
      "d": 191.40625,
      "v": 127
    },
    {
      "midi": 64,
      "hit": false,
      "t": 56968.75,
      "d": 2074.21875,
      "v": 127
    },
    {
      "midi": 61,
      "hit": false,
      "t": 56992.1875,
      "d": 2808.59375,
      "v": 125
    },
    {
      "midi": 64,
      "hit": false,
      "t": 57000,
      "d": 2769.53125,
      "v": 127
    },
    {
      "midi": 33,
      "hit": false,
      "t": 57000,
      "d": 2980.46875,
      "v": 113
    },
    {
      "midi": 45,
      "hit": false,
      "t": 57000,
      "d": 2980.46875,
      "v": 113
    },
    {
      "midi": 61,
      "hit": false,
      "t": 59984.375,
      "d": 1355.46875,
      "v": 126
    },
    {
      "midi": 66,
      "hit": false,
      "t": 59992.1875,
      "d": 1347.65625,
      "v": 127
    },
    {
      "midi": 42,
      "hit": false,
      "t": 60000,
      "d": 1480.46875,
      "v": 117
    },
    {
      "midi": 54,
      "hit": false,
      "t": 60000,
      "d": 1480.46875,
      "v": 118
    },
    {
      "midi": 66,
      "hit": false,
      "t": 60000,
      "d": 1480.46875,
      "v": 111
    },
    {
      "midi": 57,
      "hit": false,
      "t": 60750,
      "d": 707.03125,
      "v": 122
    },
    {
      "midi": 62,
      "hit": false,
      "t": 61500,
      "d": 1308.59375,
      "v": 124
    },
    {
      "midi": 43,
      "hit": false,
      "t": 61500,
      "d": 1480.46875,
      "v": 115
    },
    {
      "midi": 55,
      "hit": false,
      "t": 61500,
      "d": 1480.46875,
      "v": 116
    },
    {
      "midi": 67,
      "hit": false,
      "t": 61500,
      "d": 1480.46875,
      "v": 111
    },
    {
      "midi": 67,
      "hit": false,
      "t": 61507.8125,
      "d": 1332.03125,
      "v": 117
    },
    {
      "midi": 59,
      "hit": false,
      "t": 62242.1875,
      "d": 730.46875,
      "v": 117
    },
    {
      "midi": 33,
      "hit": false,
      "t": 63000,
      "d": 2980.46875,
      "v": 118
    },
    {
      "midi": 45,
      "hit": false,
      "t": 63000,
      "d": 2980.46875,
      "v": 118
    },
    {
      "midi": 61,
      "hit": false,
      "t": 63000,
      "d": 5941.40625,
      "v": 124
    },
    {
      "midi": 64,
      "hit": false,
      "t": 63000,
      "d": 1480.46875,
      "v": 111
    },
    {
      "midi": 64,
      "hit": false,
      "t": 63007.8125,
      "d": 5964.84375,
      "v": 124
    },
    {
      "midi": 45,
      "hit": false,
      "t": 63750,
      "d": 730.46875,
      "v": 83
    },
    {
      "midi": 57,
      "hit": false,
      "t": 63757.8125,
      "d": 2222.65625,
      "v": 115
    },
    {
      "midi": 45,
      "hit": false,
      "t": 64500,
      "d": 730.46875,
      "v": 83
    },
    {
      "midi": 45,
      "hit": false,
      "t": 65250,
      "d": 730.46875,
      "v": 76
    },
    {
      "midi": 57,
      "hit": false,
      "t": 65625,
      "d": 277.34375,
      "v": 120
    },
    {
      "midi": 33,
      "hit": false,
      "t": 66000,
      "d": 2980.46875,
      "v": 115
    },
    {
      "midi": 45,
      "hit": false,
      "t": 66000,
      "d": 2980.46875,
      "v": 115
    },
    {
      "midi": 76,
      "hit": false,
      "t": 66000,
      "d": 425.78125,
      "v": 123
    },
    {
      "midi": 45,
      "hit": false,
      "t": 66000,
      "d": 730.46875,
      "v": 76
    },
    {
      "midi": 69,
      "hit": false,
      "t": 66375,
      "d": 308.59375,
      "v": 123
    },
    {
      "midi": 45,
      "hit": false,
      "t": 66750,
      "d": 730.46875,
      "v": 76
    },
    {
      "midi": 69,
      "hit": false,
      "t": 66750,
      "d": 1964.84375,
      "v": 89
    },
    {
      "midi": 71,
      "hit": false,
      "t": 66750,
      "d": 1964.84375,
      "v": 125
    },
    {
      "midi": 45,
      "hit": false,
      "t": 67500,
      "d": 730.46875,
      "v": 76
    },
    {
      "midi": 64,
      "hit": false,
      "t": 67500,
      "d": 730.46875,
      "v": 113
    },
    {
      "midi": 45,
      "hit": false,
      "t": 68250,
      "d": 730.46875,
      "v": 87
    },
    {
      "midi": 62,
      "hit": false,
      "t": 69000,
      "d": 480.46875,
      "v": 125
    },
    {
      "midi": 67,
      "hit": false,
      "t": 69000,
      "d": 785.15625,
      "v": 123
    },
    {
      "midi": 59,
      "hit": false,
      "t": 69000,
      "d": 1207.03125,
      "v": 117
    },
    {
      "midi": 43,
      "hit": false,
      "t": 69000,
      "d": 2980.46875,
      "v": 117
    },
    {
      "midi": 55,
      "hit": false,
      "t": 69000,
      "d": 2980.46875,
      "v": 118
    },
    {
      "midi": 62,
      "hit": false,
      "t": 69750,
      "d": 316.40625,
      "v": 127
    },
    {
      "midi": 67,
      "hit": false,
      "t": 70125,
      "d": 292.96875,
      "v": 124
    },
    {
      "midi": 67,
      "hit": false,
      "t": 70125,
      "d": 82.03125,
      "v": 91
    },
    {
      "midi": 71,
      "hit": false,
      "t": 70500,
      "d": 660.15625,
      "v": 126
    },
    {
      "midi": 71,
      "hit": false,
      "t": 70500,
      "d": 1152.34375,
      "v": 126
    },
    {
      "midi": 67,
      "hit": false,
      "t": 70875,
      "d": 691.40625,
      "v": 116
    },
    {
      "midi": 67,
      "hit": false,
      "t": 70875,
      "d": 1105.46875,
      "v": 93
    },
    {
      "midi": 62,
      "hit": false,
      "t": 71250,
      "d": 707.03125,
      "v": 126
    },
    {
      "midi": 62,
      "hit": false,
      "t": 71250,
      "d": 402.34375,
      "v": 111
    },
    {
      "midi": 69,
      "hit": false,
      "t": 71984.375,
      "d": 902.34375,
      "v": 127
    },
    {
      "midi": 73,
      "hit": false,
      "t": 72000,
      "d": 964.84375,
      "v": 127
    },
    {
      "midi": 45,
      "hit": false,
      "t": 72000,
      "d": 2980.46875,
      "v": 117
    },
    {
      "midi": 57,
      "hit": false,
      "t": 72000,
      "d": 2980.46875,
      "v": 118
    },
    {
      "midi": 64,
      "hit": false,
      "t": 72742.1875,
      "d": 832.03125,
      "v": 116
    },
    {
      "midi": 73,
      "hit": false,
      "t": 73500,
      "d": 824.21875,
      "v": 127
    },
    {
      "midi": 69,
      "hit": false,
      "t": 73507.8125,
      "d": 769.53125,
      "v": 127
    },
    {
      "midi": 64,
      "hit": false,
      "t": 74242.1875,
      "d": 808.59375,
      "v": 112
    },
    {
      "midi": 69,
      "hit": false,
      "t": 74992.1875,
      "d": 855.46875,
      "v": 127
    },
    {
      "midi": 42,
      "hit": false,
      "t": 75000,
      "d": 2980.46875,
      "v": 113
    },
    {
      "midi": 54,
      "hit": false,
      "t": 75000,
      "d": 2980.46875,
      "v": 114
    },
    {
      "midi": 66,
      "hit": false,
      "t": 75007.8125,
      "d": 863.28125,
      "v": 126
    },
    {
      "midi": 61,
      "hit": false,
      "t": 75734.375,
      "d": 777.34375,
      "v": 118
    },
    {
      "midi": 69,
      "hit": false,
      "t": 76492.1875,
      "d": 917.96875,
      "v": 125
    },
    {
      "midi": 66,
      "hit": false,
      "t": 76507.8125,
      "d": 847.65625,
      "v": 123
    },
    {
      "midi": 61,
      "hit": false,
      "t": 77234.375,
      "d": 769.53125,
      "v": 116
    },
    {
      "midi": 71,
      "hit": false,
      "t": 77992.1875,
      "d": 2222.65625,
      "v": 125
    },
    {
      "midi": 43,
      "hit": false,
      "t": 78000,
      "d": 2980.46875,
      "v": 116
    },
    {
      "midi": 55,
      "hit": false,
      "t": 78000,
      "d": 2980.46875,
      "v": 117
    },
    {
      "midi": 62,
      "hit": false,
      "t": 78007.8125,
      "d": 2230.46875,
      "v": 125
    },
    {
      "midi": 67,
      "hit": false,
      "t": 78007.8125,
      "d": 2269.53125,
      "v": 125
    },
    {
      "midi": 62,
      "hit": false,
      "t": 80257.8125,
      "d": 2597.65625,
      "v": 127
    },
    {
      "midi": 67,
      "hit": false,
      "t": 80632.8125,
      "d": 2292.96875,
      "v": 124
    },
    {
      "midi": 69,
      "hit": false,
      "t": 81000,
      "d": 1847.65625,
      "v": 127
    },
    {
      "midi": 45,
      "hit": false,
      "t": 81000,
      "d": 2980.46875,
      "v": 112
    },
    {
      "midi": 57,
      "hit": false,
      "t": 81000,
      "d": 2980.46875,
      "v": 113
    },
    {
      "midi": 62,
      "hit": false,
      "t": 82867.1875,
      "d": 988.28125,
      "v": 127
    },
    {
      "midi": 62,
      "hit": false,
      "t": 82945.3125,
      "d": 1214.84375,
      "v": 125
    },
    {
      "midi": 64,
      "hit": false,
      "t": 83257.8125,
      "d": 574.21875,
      "v": 125
    },
    {
      "midi": 64,
      "hit": false,
      "t": 83265.625,
      "d": 1925.78125,
      "v": 100
    },
    {
      "midi": 67,
      "hit": false,
      "t": 83632.8125,
      "d": 332.03125,
      "v": 123
    },
    {
      "midi": 67,
      "hit": false,
      "t": 83640.625,
      "d": 3480.46875,
      "v": 109
    },
    {
      "midi": 61,
      "hit": false,
      "t": 83984.375,
      "d": 2699.21875,
      "v": 125
    },
    {
      "midi": 69,
      "hit": false,
      "t": 83992.1875,
      "d": 2761.71875,
      "v": 127
    },
    {
      "midi": 64,
      "hit": false,
      "t": 84000,
      "d": 2472.65625,
      "v": 125
    },
    {
      "midi": 45,
      "hit": false,
      "t": 84000,
      "d": 2917.96875,
      "v": 114
    },
    {
      "midi": 57,
      "hit": false,
      "t": 84000,
      "d": 2917.96875,
      "v": 115
    },
    {
      "midi": 67,
      "hit": false,
      "t": 84007.8125,
      "d": 2847.65625,
      "v": 125
    },
    {
      "midi": 69,
      "hit": false,
      "t": 84031.25,
      "d": 2902.34375,
      "v": 125
    },
    {
      "midi": 50,
      "hit": false,
      "t": 87000,
      "d": 2980.46875,
      "v": 110
    },
    {
      "midi": 69,
      "hit": false,
      "t": 87015.625,
      "d": 847.65625,
      "v": 122
    },
    {
      "midi": 62,
      "hit": false,
      "t": 87742.1875,
      "d": 824.21875,
      "v": 90
    },
    {
      "midi": 69,
      "hit": false,
      "t": 88484.375,
      "d": 832.03125,
      "v": 114
    },
    {
      "midi": 66,
      "hit": false,
      "t": 88500,
      "d": 800.78125,
      "v": 117
    },
    {
      "midi": 62,
      "hit": false,
      "t": 89257.8125,
      "d": 808.59375,
      "v": 80
    },
    {
      "midi": 64,
      "hit": false,
      "t": 89984.375,
      "d": 832.03125,
      "v": 117
    },
    {
      "midi": 49,
      "hit": false,
      "t": 90000,
      "d": 2980.46875,
      "v": 110
    },
    {
      "midi": 69,
      "hit": false,
      "t": 90007.8125,
      "d": 894.53125,
      "v": 112
    },
    {
      "midi": 61,
      "hit": false,
      "t": 90750,
      "d": 800.78125,
      "v": 103
    },
    {
      "midi": 69,
      "hit": false,
      "t": 91500,
      "d": 777.34375,
      "v": 112
    },
    {
      "midi": 64,
      "hit": false,
      "t": 91500,
      "d": 816.40625,
      "v": 114
    },
    {
      "midi": 61,
      "hit": false,
      "t": 92265.625,
      "d": 722.65625,
      "v": 84
    },
    {
      "midi": 47,
      "hit": false,
      "t": 93000,
      "d": 2230.46875,
      "v": 110
    },
    {
      "midi": 67,
      "hit": false,
      "t": 93007.8125,
      "d": 832.03125,
      "v": 114
    },
    {
      "midi": 62,
      "hit": false,
      "t": 93015.625,
      "d": 792.96875,
      "v": 119
    },
    {
      "midi": 59,
      "hit": false,
      "t": 93765.625,
      "d": 816.40625,
      "v": 97
    },
    {
      "midi": 62,
      "hit": false,
      "t": 94492.1875,
      "d": 839.84375,
      "v": 119
    },
    {
      "midi": 67,
      "hit": false,
      "t": 94507.8125,
      "d": 847.65625,
      "v": 101
    },
    {
      "midi": 43,
      "hit": false,
      "t": 95250,
      "d": 410.15625,
      "v": 110
    },
    {
      "midi": 59,
      "hit": false,
      "t": 95257.8125,
      "d": 816.40625,
      "v": 97
    },
    {
      "midi": 45,
      "hit": false,
      "t": 95625,
      "d": 324.21875,
      "v": 110
    },
    {
      "midi": 46,
      "hit": false,
      "t": 96000,
      "d": 2933.59375,
      "v": 127
    },
    {
      "midi": 62,
      "hit": false,
      "t": 96007.8125,
      "d": 792.96875,
      "v": 119
    },
    {
      "midi": 67,
      "hit": false,
      "t": 96015.625,
      "d": 832.03125,
      "v": 114
    },
    {
      "midi": 58,
      "hit": false,
      "t": 96742.1875,
      "d": 816.40625,
      "v": 97
    },
    {
      "midi": 66,
      "hit": false,
      "t": 97484.375,
      "d": 707.03125,
      "v": 101
    },
    {
      "midi": 62,
      "hit": false,
      "t": 97507.8125,
      "d": 714.84375,
      "v": 119
    },
    {
      "midi": 58,
      "hit": false,
      "t": 98234.375,
      "d": 816.40625,
      "v": 97
    },
    {
      "midi": 64,
      "hit": false,
      "t": 98265.625,
      "d": 816.40625,
      "v": 97
    },
    {
      "midi": 66,
      "hit": false,
      "t": 98984.375,
      "d": 910.15625,
      "v": 117
    },
    {
      "midi": 45,
      "hit": false,
      "t": 99000,
      "d": 2980.46875,
      "v": 110
    },
    {
      "midi": 62,
      "hit": false,
      "t": 99007.8125,
      "d": 878.90625,
      "v": 125
    },
    {
      "midi": 57,
      "hit": false,
      "t": 99742.1875,
      "d": 777.34375,
      "v": 97
    },
    {
      "midi": 62,
      "hit": false,
      "t": 100484.375,
      "d": 292.96875,
      "v": 125
    },
    {
      "midi": 66,
      "hit": false,
      "t": 100515.625,
      "d": 386.71875,
      "v": 119
    },
    {
      "midi": 57,
      "hit": false,
      "t": 100882.8125,
      "d": 761.71875,
      "v": 103
    },
    {
      "midi": 62,
      "hit": false,
      "t": 101242.1875,
      "d": 457.03125,
      "v": 114
    },
    {
      "midi": 69,
      "hit": false,
      "t": 101609.375,
      "d": 277.34375,
      "v": 114
    },
    {
      "midi": 61,
      "hit": false,
      "t": 102000,
      "d": 808.59375,
      "v": 125
    },
    {
      "midi": 45,
      "hit": false,
      "t": 102000,
      "d": 2980.46875,
      "v": 110
    },
    {
      "midi": 64,
      "hit": false,
      "t": 102007.8125,
      "d": 746.09375,
      "v": 114
    },
    {
      "midi": 69,
      "hit": false,
      "t": 102007.8125,
      "d": 847.65625,
      "v": 122
    },
    {
      "midi": 57,
      "hit": false,
      "t": 102750,
      "d": 707.03125,
      "v": 101
    },
    {
      "midi": 69,
      "hit": false,
      "t": 103492.1875,
      "d": 847.65625,
      "v": 122
    },
    {
      "midi": 64,
      "hit": false,
      "t": 103500,
      "d": 746.09375,
      "v": 114
    },
    {
      "midi": 61,
      "hit": false,
      "t": 103507.8125,
      "d": 808.59375,
      "v": 125
    },
    {
      "midi": 57,
      "hit": false,
      "t": 104234.375,
      "d": 707.03125,
      "v": 101
    },
    {
      "midi": 59,
      "hit": false,
      "t": 104992.1875,
      "d": 1074.21875,
      "v": 125
    },
    {
      "midi": 38,
      "hit": false,
      "t": 105000,
      "d": 2980.46875,
      "v": 110
    },
    {
      "midi": 67,
      "hit": false,
      "t": 105015.625,
      "d": 1074.21875,
      "v": 125
    },
    {
      "midi": 61,
      "hit": false,
      "t": 106117.1875,
      "d": 1097.65625,
      "v": 117
    },
    {
      "midi": 69,
      "hit": false,
      "t": 106132.8125,
      "d": 1277.34375,
      "v": 117
    },
    {
      "midi": 59,
      "hit": false,
      "t": 107242.1875,
      "d": 699.21875,
      "v": 117
    },
    {
      "midi": 67,
      "hit": false,
      "t": 107242.1875,
      "d": 792.96875,
      "v": 117
    },
    {
      "midi": 66,
      "hit": false,
      "t": 108000,
      "d": 2972.65625,
      "v": 122
    },
    {
      "midi": 38,
      "hit": false,
      "t": 108000,
      "d": 2980.46875,
      "v": 110
    },
    {
      "midi": 57,
      "hit": false,
      "t": 108015.625,
      "d": 2972.65625,
      "v": 122
    },
    {
      "midi": 50,
      "hit": false,
      "t": 162000,
      "d": 2980.46875,
      "v": 110
    },
    {
      "midi": 69,
      "hit": false,
      "t": 162015.625,
      "d": 847.65625,
      "v": 122
    },
    {
      "midi": 62,
      "hit": false,
      "t": 162742.1875,
      "d": 824.21875,
      "v": 90
    },
    {
      "midi": 69,
      "hit": false,
      "t": 163484.375,
      "d": 832.03125,
      "v": 114
    },
    {
      "midi": 66,
      "hit": false,
      "t": 163500,
      "d": 800.78125,
      "v": 117
    },
    {
      "midi": 62,
      "hit": false,
      "t": 164257.8125,
      "d": 808.59375,
      "v": 80
    },
    {
      "midi": 64,
      "hit": false,
      "t": 164984.375,
      "d": 832.03125,
      "v": 117
    },
    {
      "midi": 49,
      "hit": false,
      "t": 165000,
      "d": 2980.46875,
      "v": 110
    },
    {
      "midi": 69,
      "hit": false,
      "t": 165007.8125,
      "d": 894.53125,
      "v": 112
    },
    {
      "midi": 61,
      "hit": false,
      "t": 165750,
      "d": 800.78125,
      "v": 103
    },
    {
      "midi": 69,
      "hit": false,
      "t": 166500,
      "d": 777.34375,
      "v": 112
    },
    {
      "midi": 64,
      "hit": false,
      "t": 166500,
      "d": 816.40625,
      "v": 114
    },
    {
      "midi": 61,
      "hit": false,
      "t": 167265.625,
      "d": 722.65625,
      "v": 84
    },
    {
      "midi": 47,
      "hit": false,
      "t": 168000,
      "d": 2230.46875,
      "v": 110
    },
    {
      "midi": 67,
      "hit": false,
      "t": 168007.8125,
      "d": 832.03125,
      "v": 114
    },
    {
      "midi": 62,
      "hit": false,
      "t": 168015.625,
      "d": 792.96875,
      "v": 119
    },
    {
      "midi": 59,
      "hit": false,
      "t": 168765.625,
      "d": 816.40625,
      "v": 97
    },
    {
      "midi": 62,
      "hit": false,
      "t": 169492.1875,
      "d": 839.84375,
      "v": 119
    },
    {
      "midi": 67,
      "hit": false,
      "t": 169507.8125,
      "d": 847.65625,
      "v": 101
    },
    {
      "midi": 43,
      "hit": false,
      "t": 170250,
      "d": 410.15625,
      "v": 110
    },
    {
      "midi": 59,
      "hit": false,
      "t": 170257.8125,
      "d": 816.40625,
      "v": 97
    },
    {
      "midi": 45,
      "hit": false,
      "t": 170625,
      "d": 324.21875,
      "v": 110
    },
    {
      "midi": 46,
      "hit": false,
      "t": 171000,
      "d": 2933.59375,
      "v": 127
    },
    {
      "midi": 62,
      "hit": false,
      "t": 171007.8125,
      "d": 792.96875,
      "v": 119
    },
    {
      "midi": 67,
      "hit": false,
      "t": 171015.625,
      "d": 832.03125,
      "v": 114
    },
    {
      "midi": 58,
      "hit": false,
      "t": 171742.1875,
      "d": 816.40625,
      "v": 97
    },
    {
      "midi": 66,
      "hit": false,
      "t": 172484.375,
      "d": 707.03125,
      "v": 101
    },
    {
      "midi": 62,
      "hit": false,
      "t": 172507.8125,
      "d": 714.84375,
      "v": 119
    },
    {
      "midi": 58,
      "hit": false,
      "t": 173234.375,
      "d": 816.40625,
      "v": 97
    },
    {
      "midi": 64,
      "hit": false,
      "t": 173265.625,
      "d": 816.40625,
      "v": 97
    },
    {
      "midi": 66,
      "hit": false,
      "t": 173984.375,
      "d": 910.15625,
      "v": 117
    },
    {
      "midi": 45,
      "hit": false,
      "t": 174000,
      "d": 2980.46875,
      "v": 110
    },
    {
      "midi": 62,
      "hit": false,
      "t": 174007.8125,
      "d": 878.90625,
      "v": 125
    },
    {
      "midi": 57,
      "hit": false,
      "t": 174742.1875,
      "d": 777.34375,
      "v": 97
    },
    {
      "midi": 62,
      "hit": false,
      "t": 175484.375,
      "d": 292.96875,
      "v": 125
    },
    {
      "midi": 66,
      "hit": false,
      "t": 175515.625,
      "d": 386.71875,
      "v": 119
    },
    {
      "midi": 57,
      "hit": false,
      "t": 175882.8125,
      "d": 761.71875,
      "v": 103
    },
    {
      "midi": 62,
      "hit": false,
      "t": 176242.1875,
      "d": 457.03125,
      "v": 114
    },
    {
      "midi": 69,
      "hit": false,
      "t": 176609.375,
      "d": 277.34375,
      "v": 114
    },
    {
      "midi": 61,
      "hit": false,
      "t": 177000,
      "d": 808.59375,
      "v": 125
    },
    {
      "midi": 45,
      "hit": false,
      "t": 177000,
      "d": 2980.46875,
      "v": 110
    },
    {
      "midi": 64,
      "hit": false,
      "t": 177007.8125,
      "d": 746.09375,
      "v": 114
    },
    {
      "midi": 69,
      "hit": false,
      "t": 177007.8125,
      "d": 847.65625,
      "v": 122
    },
    {
      "midi": 57,
      "hit": false,
      "t": 177750,
      "d": 707.03125,
      "v": 101
    },
    {
      "midi": 69,
      "hit": false,
      "t": 178492.1875,
      "d": 847.65625,
      "v": 122
    },
    {
      "midi": 64,
      "hit": false,
      "t": 178500,
      "d": 746.09375,
      "v": 114
    },
    {
      "midi": 61,
      "hit": false,
      "t": 178507.8125,
      "d": 808.59375,
      "v": 125
    },
    {
      "midi": 57,
      "hit": false,
      "t": 179234.375,
      "d": 707.03125,
      "v": 101
    },
    {
      "midi": 59,
      "hit": false,
      "t": 179992.1875,
      "d": 1074.21875,
      "v": 125
    },
    {
      "midi": 38,
      "hit": false,
      "t": 180000,
      "d": 2980.46875,
      "v": 110
    },
    {
      "midi": 67,
      "hit": false,
      "t": 180015.625,
      "d": 1074.21875,
      "v": 125
    },
    {
      "midi": 61,
      "hit": false,
      "t": 181117.1875,
      "d": 1097.65625,
      "v": 117
    },
    {
      "midi": 69,
      "hit": false,
      "t": 181132.8125,
      "d": 1277.34375,
      "v": 117
    },
    {
      "midi": 59,
      "hit": false,
      "t": 182242.1875,
      "d": 699.21875,
      "v": 117
    },
    {
      "midi": 67,
      "hit": false,
      "t": 182242.1875,
      "d": 792.96875,
      "v": 117
    },
    {
      "midi": 66,
      "hit": false,
      "t": 183000,
      "d": 2972.65625,
      "v": 122
    },
    {
      "midi": 38,
      "hit": false,
      "t": 183000,
      "d": 2980.46875,
      "v": 110
    },
    {
      "midi": 57,
      "hit": false,
      "t": 183015.625,
      "d": 2972.65625,
      "v": 122
    },
    {
      "midi": 64,
      "hit": false,
      "t": 194523.4375,
      "d": 160.15625,
      "v": 100
    },
    {
      "midi": 71,
      "hit": false,
      "t": 194921.875,
      "d": 2878.90625,
      "v": 125
    },
    {
      "midi": 69,
      "hit": false,
      "t": 195273.4375,
      "d": 2542.96875,
      "v": 120
    },
    {
      "midi": 64,
      "hit": false,
      "t": 195687.5,
      "d": 2175.78125,
      "v": 125
    },
    {
      "midi": 68,
      "hit": false,
      "t": 197953.125,
      "d": 1457.03125,
      "v": 113
    },
    {
      "midi": 68,
      "hit": false,
      "t": 199429.6875,
      "d": 1550.78125,
      "v": 107
    },
    {
      "midi": 66,
      "hit": false,
      "t": 201000,
      "d": 2261.71875,
      "v": 111
    },
    {
      "midi": 64,
      "hit": false,
      "t": 203281.25,
      "d": 285.15625,
      "v": 123
    },
    {
      "midi": 66,
      "hit": false,
      "t": 203585.9375,
      "d": 425.78125,
      "v": 111
    },
    {
      "midi": 68,
      "hit": false,
      "t": 204031.25,
      "d": 1449.21875,
      "v": 122
    },
    {
      "midi": 68,
      "hit": false,
      "t": 205500,
      "d": 722.65625,
      "v": 121
    },
    {
      "midi": 59,
      "hit": false,
      "t": 206242.1875,
      "d": 269.53125,
      "v": 104
    },
    {
      "midi": 68,
      "hit": false,
      "t": 206531.25,
      "d": 417.96875,
      "v": 120
    },
    {
      "midi": 66,
      "hit": false,
      "t": 206968.75,
      "d": 2074.21875,
      "v": 127
    },
    {
      "midi": 68,
      "hit": false,
      "t": 210000,
      "d": 1480.46875,
      "v": 111
    },
    {
      "midi": 69,
      "hit": false,
      "t": 211500,
      "d": 1480.46875,
      "v": 111
    },
    {
      "midi": 66,
      "hit": false,
      "t": 213000,
      "d": 1480.46875,
      "v": 111
    },
    {
      "midi": 47,
      "hit": false,
      "t": 213750,
      "d": 730.46875,
      "v": 83
    },
    {
      "midi": 47,
      "hit": false,
      "t": 214500,
      "d": 730.46875,
      "v": 83
    },
    {
      "midi": 47,
      "hit": false,
      "t": 215250,
      "d": 730.46875,
      "v": 76
    },
    {
      "midi": 59,
      "hit": false,
      "t": 215625,
      "d": 277.34375,
      "v": 120
    },
    {
      "midi": 78,
      "hit": false,
      "t": 216000,
      "d": 425.78125,
      "v": 123
    },
    {
      "midi": 47,
      "hit": false,
      "t": 216000,
      "d": 730.46875,
      "v": 76
    },
    {
      "midi": 71,
      "hit": false,
      "t": 216375,
      "d": 308.59375,
      "v": 123
    },
    {
      "midi": 47,
      "hit": false,
      "t": 216750,
      "d": 730.46875,
      "v": 76
    },
    {
      "midi": 71,
      "hit": false,
      "t": 216750,
      "d": 1964.84375,
      "v": 89
    },
    {
      "midi": 73,
      "hit": false,
      "t": 216750,
      "d": 1964.84375,
      "v": 125
    },
    {
      "midi": 47,
      "hit": false,
      "t": 217500,
      "d": 730.46875,
      "v": 76
    },
    {
      "midi": 66,
      "hit": false,
      "t": 217500,
      "d": 730.46875,
      "v": 113
    },
    {
      "midi": 47,
      "hit": false,
      "t": 218250,
      "d": 730.46875,
      "v": 87
    },
    {
      "midi": 69,
      "hit": false,
      "t": 220125,
      "d": 82.03125,
      "v": 91
    },
    {
      "midi": 73,
      "hit": false,
      "t": 220500,
      "d": 1152.34375,
      "v": 126
    },
    {
      "midi": 69,
      "hit": false,
      "t": 220875,
      "d": 1105.46875,
      "v": 93
    },
    {
      "midi": 64,
      "hit": false,
      "t": 221250,
      "d": 402.34375,
      "v": 111
    },
    {
      "midi": 64,
      "hit": false,
      "t": 232945.3125,
      "d": 2246.09375,
      "v": 125
    },
    {
      "midi": 66,
      "hit": false,
      "t": 233265.625,
      "d": 894.53125,
      "v": 100
    },
    {
      "midi": 69,
      "hit": false,
      "t": 233640.625,
      "d": 3480.46875,
      "v": 109
    },
    {
      "midi": 71,
      "hit": false,
      "t": 234031.25,
      "d": 2902.34375,
      "v": 125
    },
    {
      "midi": 52,
      "hit": false,
      "t": 237000,
      "d": 2980.46875,
      "v": 110
    },
    {
      "midi": 71,
      "hit": false,
      "t": 237015.625,
      "d": 847.65625,
      "v": 122
    },
    {
      "midi": 64,
      "hit": false,
      "t": 237742.1875,
      "d": 824.21875,
      "v": 90
    },
    {
      "midi": 71,
      "hit": false,
      "t": 238484.375,
      "d": 832.03125,
      "v": 114
    },
    {
      "midi": 68,
      "hit": false,
      "t": 238500,
      "d": 800.78125,
      "v": 117
    },
    {
      "midi": 64,
      "hit": false,
      "t": 239257.8125,
      "d": 1558.59375,
      "v": 80
    },
    {
      "midi": 66,
      "hit": false,
      "t": 239984.375,
      "d": 82.03125,
      "v": 117
    },
    {
      "midi": 51,
      "hit": false,
      "t": 240000,
      "d": 2980.46875,
      "v": 110
    },
    {
      "midi": 71,
      "hit": false,
      "t": 240007.8125,
      "d": 894.53125,
      "v": 112
    },
    {
      "midi": 63,
      "hit": false,
      "t": 240750,
      "d": 800.78125,
      "v": 103
    },
    {
      "midi": 71,
      "hit": false,
      "t": 241500,
      "d": 777.34375,
      "v": 112
    },
    {
      "midi": 66,
      "hit": false,
      "t": 241500,
      "d": 816.40625,
      "v": 114
    },
    {
      "midi": 63,
      "hit": false,
      "t": 242265.625,
      "d": 722.65625,
      "v": 84
    },
    {
      "midi": 49,
      "hit": false,
      "t": 243000,
      "d": 2230.46875,
      "v": 110
    },
    {
      "midi": 69,
      "hit": false,
      "t": 243007.8125,
      "d": 832.03125,
      "v": 114
    },
    {
      "midi": 64,
      "hit": false,
      "t": 243015.625,
      "d": 792.96875,
      "v": 119
    },
    {
      "midi": 61,
      "hit": false,
      "t": 243765.625,
      "d": 816.40625,
      "v": 97
    },
    {
      "midi": 64,
      "hit": false,
      "t": 244492.1875,
      "d": 839.84375,
      "v": 119
    },
    {
      "midi": 69,
      "hit": false,
      "t": 244507.8125,
      "d": 847.65625,
      "v": 101
    },
    {
      "midi": 45,
      "hit": false,
      "t": 245250,
      "d": 699.21875,
      "v": 110
    },
    {
      "midi": 61,
      "hit": false,
      "t": 245257.8125,
      "d": 816.40625,
      "v": 97
    },
    {
      "midi": 47,
      "hit": false,
      "t": 245625,
      "d": 35.15625,
      "v": 110
    },
    {
      "midi": 48,
      "hit": false,
      "t": 246000,
      "d": 2933.59375,
      "v": 127
    },
    {
      "midi": 64,
      "hit": false,
      "t": 246007.8125,
      "d": 792.96875,
      "v": 119
    },
    {
      "midi": 69,
      "hit": false,
      "t": 246015.625,
      "d": 832.03125,
      "v": 114
    },
    {
      "midi": 60,
      "hit": false,
      "t": 246742.1875,
      "d": 816.40625,
      "v": 97
    },
    {
      "midi": 68,
      "hit": false,
      "t": 247484.375,
      "d": 707.03125,
      "v": 101
    },
    {
      "midi": 64,
      "hit": false,
      "t": 247507.8125,
      "d": 714.84375,
      "v": 119
    },
    {
      "midi": 60,
      "hit": false,
      "t": 248234.375,
      "d": 816.40625,
      "v": 97
    },
    {
      "midi": 66,
      "hit": false,
      "t": 248265.625,
      "d": 1628.90625,
      "v": 97
    },
    {
      "midi": 68,
      "hit": false,
      "t": 248984.375,
      "d": 97.65625,
      "v": 117
    },
    {
      "midi": 47,
      "hit": false,
      "t": 249000,
      "d": 2980.46875,
      "v": 110
    },
    {
      "midi": 64,
      "hit": false,
      "t": 249007.8125,
      "d": 878.90625,
      "v": 125
    },
    {
      "midi": 59,
      "hit": false,
      "t": 249742.1875,
      "d": 777.34375,
      "v": 97
    },
    {
      "midi": 64,
      "hit": false,
      "t": 250484.375,
      "d": 292.96875,
      "v": 125
    },
    {
      "midi": 68,
      "hit": false,
      "t": 250515.625,
      "d": 386.71875,
      "v": 119
    },
    {
      "midi": 59,
      "hit": false,
      "t": 250882.8125,
      "d": 761.71875,
      "v": 103
    },
    {
      "midi": 64,
      "hit": false,
      "t": 251242.1875,
      "d": 457.03125,
      "v": 114
    },
    {
      "midi": 71,
      "hit": false,
      "t": 251609.375,
      "d": 277.34375,
      "v": 114
    },
    {
      "midi": 63,
      "hit": false,
      "t": 252000,
      "d": 808.59375,
      "v": 125
    },
    {
      "midi": 47,
      "hit": false,
      "t": 252000,
      "d": 2980.46875,
      "v": 110
    },
    {
      "midi": 66,
      "hit": false,
      "t": 252007.8125,
      "d": 746.09375,
      "v": 114
    },
    {
      "midi": 71,
      "hit": false,
      "t": 252007.8125,
      "d": 847.65625,
      "v": 122
    },
    {
      "midi": 59,
      "hit": false,
      "t": 252750,
      "d": 707.03125,
      "v": 101
    },
    {
      "midi": 71,
      "hit": false,
      "t": 253492.1875,
      "d": 847.65625,
      "v": 122
    },
    {
      "midi": 66,
      "hit": false,
      "t": 253500,
      "d": 746.09375,
      "v": 114
    },
    {
      "midi": 63,
      "hit": false,
      "t": 253507.8125,
      "d": 808.59375,
      "v": 125
    },
    {
      "midi": 59,
      "hit": false,
      "t": 254234.375,
      "d": 707.03125,
      "v": 101
    },
    {
      "midi": 61,
      "hit": false,
      "t": 254992.1875,
      "d": 1074.21875,
      "v": 125
    },
    {
      "midi": 40,
      "hit": false,
      "t": 255000,
      "d": 2980.46875,
      "v": 110
    },
    {
      "midi": 69,
      "hit": false,
      "t": 255015.625,
      "d": 1074.21875,
      "v": 125
    },
    {
      "midi": 63,
      "hit": false,
      "t": 256117.1875,
      "d": 1097.65625,
      "v": 117
    },
    {
      "midi": 71,
      "hit": false,
      "t": 256132.8125,
      "d": 1277.34375,
      "v": 117
    },
    {
      "midi": 61,
      "hit": false,
      "t": 257242.1875,
      "d": 699.21875,
      "v": 117
    },
    {
      "midi": 69,
      "hit": false,
      "t": 257242.1875,
      "d": 792.96875,
      "v": 117
    },
    {
      "midi": 68,
      "hit": false,
      "t": 258000,
      "d": 2972.65625,
      "v": 122
    },
    {
      "midi": 40,
      "hit": false,
      "t": 258000,
      "d": 2980.46875,
      "v": 110
    },
    {
      "midi": 59,
      "hit": false,
      "t": 258015.625,
      "d": 2972.65625,
      "v": 122
    },
    {
      "midi": 52,
      "hit": false,
      "t": 309000,
      "d": 2980.46875,
      "v": 110
    },
    {
      "midi": 71,
      "hit": false,
      "t": 309015.625,
      "d": 847.65625,
      "v": 122
    },
    {
      "midi": 64,
      "hit": false,
      "t": 309742.1875,
      "d": 824.21875,
      "v": 90
    },
    {
      "midi": 71,
      "hit": false,
      "t": 310484.375,
      "d": 832.03125,
      "v": 114
    },
    {
      "midi": 68,
      "hit": false,
      "t": 310500,
      "d": 800.78125,
      "v": 117
    },
    {
      "midi": 64,
      "hit": false,
      "t": 311257.8125,
      "d": 1558.59375,
      "v": 80
    },
    {
      "midi": 66,
      "hit": false,
      "t": 311984.375,
      "d": 82.03125,
      "v": 117
    },
    {
      "midi": 51,
      "hit": false,
      "t": 312000,
      "d": 2980.46875,
      "v": 110
    },
    {
      "midi": 71,
      "hit": false,
      "t": 312007.8125,
      "d": 894.53125,
      "v": 112
    },
    {
      "midi": 63,
      "hit": false,
      "t": 312750,
      "d": 800.78125,
      "v": 103
    },
    {
      "midi": 71,
      "hit": false,
      "t": 313500,
      "d": 777.34375,
      "v": 112
    },
    {
      "midi": 66,
      "hit": false,
      "t": 313500,
      "d": 816.40625,
      "v": 114
    },
    {
      "midi": 63,
      "hit": false,
      "t": 314265.625,
      "d": 722.65625,
      "v": 84
    },
    {
      "midi": 49,
      "hit": false,
      "t": 315000,
      "d": 2230.46875,
      "v": 110
    },
    {
      "midi": 69,
      "hit": false,
      "t": 315007.8125,
      "d": 832.03125,
      "v": 114
    },
    {
      "midi": 64,
      "hit": false,
      "t": 315015.625,
      "d": 792.96875,
      "v": 119
    },
    {
      "midi": 61,
      "hit": false,
      "t": 315765.625,
      "d": 816.40625,
      "v": 97
    },
    {
      "midi": 64,
      "hit": false,
      "t": 316492.1875,
      "d": 839.84375,
      "v": 119
    },
    {
      "midi": 69,
      "hit": false,
      "t": 316507.8125,
      "d": 847.65625,
      "v": 101
    },
    {
      "midi": 45,
      "hit": false,
      "t": 317250,
      "d": 699.21875,
      "v": 110
    },
    {
      "midi": 61,
      "hit": false,
      "t": 317257.8125,
      "d": 816.40625,
      "v": 97
    },
    {
      "midi": 47,
      "hit": false,
      "t": 317625,
      "d": 35.15625,
      "v": 110
    },
    {
      "midi": 48,
      "hit": false,
      "t": 318000,
      "d": 2933.59375,
      "v": 127
    },
    {
      "midi": 64,
      "hit": false,
      "t": 318007.8125,
      "d": 792.96875,
      "v": 119
    },
    {
      "midi": 69,
      "hit": false,
      "t": 318015.625,
      "d": 832.03125,
      "v": 114
    },
    {
      "midi": 60,
      "hit": false,
      "t": 318742.1875,
      "d": 816.40625,
      "v": 97
    },
    {
      "midi": 68,
      "hit": false,
      "t": 319484.375,
      "d": 707.03125,
      "v": 101
    },
    {
      "midi": 64,
      "hit": false,
      "t": 319507.8125,
      "d": 714.84375,
      "v": 119
    },
    {
      "midi": 60,
      "hit": false,
      "t": 320234.375,
      "d": 816.40625,
      "v": 97
    },
    {
      "midi": 66,
      "hit": false,
      "t": 320265.625,
      "d": 1628.90625,
      "v": 97
    },
    {
      "midi": 68,
      "hit": false,
      "t": 320984.375,
      "d": 97.65625,
      "v": 117
    },
    {
      "midi": 47,
      "hit": false,
      "t": 321000,
      "d": 2980.46875,
      "v": 110
    },
    {
      "midi": 64,
      "hit": false,
      "t": 321007.8125,
      "d": 2753.90625,
      "v": 125
    },
    {
      "midi": 59,
      "hit": false,
      "t": 321742.1875,
      "d": 1253.90625,
      "v": 97
    },
    {
      "midi": 63,
      "hit": false,
      "t": 324000,
      "d": 2308.59375,
      "v": 125
    },
    {
      "midi": 47,
      "hit": false,
      "t": 324000,
      "d": 2980.46875,
      "v": 110
    },
    {
      "midi": 66,
      "hit": false,
      "t": 324007.8125,
      "d": 2246.09375,
      "v": 114
    },
    {
      "midi": 71,
      "hit": false,
      "t": 324007.8125,
      "d": 2347.65625,
      "v": 122
    },
    {
      "midi": 59,
      "hit": false,
      "t": 324750,
      "d": 707.03125,
      "v": 101
    },
    {
      "midi": 68,
      "hit": false,
      "t": 327000,
      "d": 5972.65625,
      "v": 122
    },
    {
      "midi": 40,
      "hit": false,
      "t": 327000,
      "d": 5980.46875,
      "v": 110
    },
    {
      "midi": 59,
      "hit": false,
      "t": 327015.625,
      "d": 5972.65625,
      "v": 122
    }
  ]
}