{
  "jsonPath": "Soundtracks/Video Game Music/Secret of Mana/secret-of-mana-spiritofthenight.json",
  "path": "Soundtracks\\Video Game Music\\Secret of Mana\\Secret_of_Mana_SpiritoftheNight.mid",
  "name": "Secret_of_Mana_SpiritoftheNight",
  "difficulty": "Advanced",
  "bpm": 80,
  "notes": [
    {
      "midi": 64,
      "hit": false,
      "t": 0,
      "d": 367.1875,
      "v": 110
    },
    {
      "midi": 69,
      "hit": false,
      "t": 0,
      "d": 367.1875,
      "v": 110
    },
    {
      "midi": 72,
      "hit": false,
      "t": 0,
      "d": 367.1875,
      "v": 110
    },
    {
      "midi": 57,
      "hit": false,
      "t": 0,
      "d": 1312.5,
      "v": 110
    },
    {
      "midi": 72,
      "hit": false,
      "t": 375,
      "d": 367.1875,
      "v": 110
    },
    {
      "midi": 76,
      "hit": false,
      "t": 750,
      "d": 367.1875,
      "v": 110
    },
    {
      "midi": 76,
      "hit": false,
      "t": 1125,
      "d": 367.1875,
      "v": 110
    },
    {
      "midi": 64,
      "hit": false,
      "t": 1500,
      "d": 367.1875,
      "v": 110
    },
    {
      "midi": 67,
      "hit": false,
      "t": 1500,
      "d": 367.1875,
      "v": 110
    },
    {
      "midi": 71,
      "hit": false,
      "t": 1500,
      "d": 367.1875,
      "v": 110
    },
    {
      "midi": 55,
      "hit": false,
      "t": 1500,
      "d": 1312.5,
      "v": 110
    },
    {
      "midi": 71,
      "hit": false,
      "t": 1875,
      "d": 367.1875,
      "v": 110
    },
    {
      "midi": 76,
      "hit": false,
      "t": 2250,
      "d": 367.1875,
      "v": 110
    },
    {
      "midi": 76,
      "hit": false,
      "t": 2625,
      "d": 367.1875,
      "v": 110
    },
    {
      "midi": 60,
      "hit": false,
      "t": 3000,
      "d": 367.1875,
      "v": 110
    },
    {
      "midi": 65,
      "hit": false,
      "t": 3000,
      "d": 367.1875,
      "v": 110
    },
    {
      "midi": 69,
      "hit": false,
      "t": 3000,
      "d": 367.1875,
      "v": 110
    },
    {
      "midi": 53,
      "hit": false,
      "t": 3000,
      "d": 1312.5,
      "v": 110
    },
    {
      "midi": 57,
      "hit": false,
      "t": 3000,
      "d": 1312.5,
      "v": 110
    },
    {
      "midi": 69,
      "hit": false,
      "t": 3375,
      "d": 179.6875,
      "v": 110
    },
    {
      "midi": 67,
      "hit": false,
      "t": 3562.5,
      "d": 367.1875,
      "v": 110
    },
    {
      "midi": 67,
      "hit": false,
      "t": 3937.5,
      "d": 179.6875,
      "v": 110
    },
    {
      "midi": 69,
      "hit": false,
      "t": 4125,
      "d": 179.6875,
      "v": 110
    },
    {
      "midi": 72,
      "hit": false,
      "t": 4312.5,
      "d": 179.6875,
      "v": 110
    },
    {
      "midi": 60,
      "hit": false,
      "t": 4500,
      "d": 1312.5,
      "v": 110
    },
    {
      "midi": 64,
      "hit": false,
      "t": 4500,
      "d": 1312.5,
      "v": 110
    },
    {
      "midi": 69,
      "hit": false,
      "t": 4500,
      "d": 1312.5,
      "v": 110
    },
    {
      "midi": 52,
      "hit": false,
      "t": 4500,
      "d": 367.1875,
      "v": 110
    },
    {
      "midi": 55,
      "hit": false,
      "t": 4875,
      "d": 367.1875,
      "v": 110
    },
    {
      "midi": 53,
      "hit": false,
      "t": 5250,
      "d": 367.1875,
      "v": 110
    },
    {
      "midi": 52,
      "hit": false,
      "t": 5625,
      "d": 367.1875,
      "v": 110
    },
    {
      "midi": 62,
      "hit": false,
      "t": 6000,
      "d": 367.1875,
      "v": 110
    },
    {
      "midi": 65,
      "hit": false,
      "t": 6000,
      "d": 367.1875,
      "v": 110
    },
    {
      "midi": 69,
      "hit": false,
      "t": 6000,
      "d": 367.1875,
      "v": 110
    },
    {
      "midi": 50,
      "hit": false,
      "t": 6000,
      "d": 1312.5,
      "v": 110
    },
    {
      "midi": 57,
      "hit": false,
      "t": 6000,
      "d": 1312.5,
      "v": 110
    },
    {
      "midi": 69,
      "hit": false,
      "t": 6375,
      "d": 367.1875,
      "v": 110
    },
    {
      "midi": 72,
      "hit": false,
      "t": 6750,
      "d": 367.1875,
      "v": 110
    },
    {
      "midi": 72,
      "hit": false,
      "t": 7125,
      "d": 367.1875,
      "v": 110
    },
    {
      "midi": 57,
      "hit": false,
      "t": 7500,
      "d": 367.1875,
      "v": 110
    },
    {
      "midi": 60,
      "hit": false,
      "t": 7500,
      "d": 367.1875,
      "v": 110
    },
    {
      "midi": 65,
      "hit": false,
      "t": 7500,
      "d": 367.1875,
      "v": 110
    },
    {
      "midi": 48,
      "hit": false,
      "t": 7500,
      "d": 1312.5,
      "v": 110
    },
    {
      "midi": 53,
      "hit": false,
      "t": 7500,
      "d": 1312.5,
      "v": 110
    },
    {
      "midi": 65,
      "hit": false,
      "t": 7875,
      "d": 367.1875,
      "v": 110
    },
    {
      "midi": 67,
      "hit": false,
      "t": 8250,
      "d": 367.1875,
      "v": 110
    },
    {
      "midi": 67,
      "hit": false,
      "t": 8625,
      "d": 367.1875,
      "v": 110
    },
    {
      "midi": 55,
      "hit": false,
      "t": 9000,
      "d": 367.1875,
      "v": 110
    },
    {
      "midi": 60,
      "hit": false,
      "t": 9000,
      "d": 367.1875,
      "v": 110
    },
    {
      "midi": 64,
      "hit": false,
      "t": 9000,
      "d": 367.1875,
      "v": 110
    },
    {
      "midi": 36,
      "hit": false,
      "t": 9000,
      "d": 1312.5,
      "v": 110
    },
    {
      "midi": 48,
      "hit": false,
      "t": 9000,
      "d": 1312.5,
      "v": 110
    },
    {
      "midi": 62,
      "hit": false,
      "t": 9375,
      "d": 367.1875,
      "v": 110
    },
    {
      "midi": 64,
      "hit": false,
      "t": 9750,
      "d": 625,
      "v": 110
    },
    {
      "midi": 59,
      "hit": false,
      "t": 10500,
      "d": 367.1875,
      "v": 110
    },
    {
      "midi": 64,
      "hit": false,
      "t": 10500,
      "d": 367.1875,
      "v": 110
    },
    {
      "midi": 40,
      "hit": false,
      "t": 10500,
      "d": 1312.5,
      "v": 110
    },
    {
      "midi": 52,
      "hit": false,
      "t": 10500,
      "d": 1312.5,
      "v": 110
    },
    {
      "midi": 66,
      "hit": false,
      "t": 10875,
      "d": 367.1875,
      "v": 110
    },
    {
      "midi": 67,
      "hit": false,
      "t": 11250,
      "d": 367.1875,
      "v": 110
    },
    {
      "midi": 74,
      "hit": false,
      "t": 11625,
      "d": 367.1875,
      "v": 110
    },
    {
      "midi": 64,
      "hit": false,
      "t": 12000,
      "d": 367.1875,
      "v": 110
    },
    {
      "midi": 69,
      "hit": false,
      "t": 12000,
      "d": 367.1875,
      "v": 110
    },
    {
      "midi": 72,
      "hit": false,
      "t": 12000,
      "d": 367.1875,
      "v": 110
    },
    {
      "midi": 57,
      "hit": false,
      "t": 12000,
      "d": 1312.5,
      "v": 110
    },
    {
      "midi": 72,
      "hit": false,
      "t": 12375,
      "d": 367.1875,
      "v": 110
    },
    {
      "midi": 76,
      "hit": false,
      "t": 12750,
      "d": 367.1875,
      "v": 110
    },
    {
      "midi": 76,
      "hit": false,
      "t": 13125,
      "d": 367.1875,
      "v": 110
    },
    {
      "midi": 64,
      "hit": false,
      "t": 13500,
      "d": 367.1875,
      "v": 110
    },
    {
      "midi": 67,
      "hit": false,
      "t": 13500,
      "d": 367.1875,
      "v": 110
    },
    {
      "midi": 71,
      "hit": false,
      "t": 13500,
      "d": 367.1875,
      "v": 110
    },
    {
      "midi": 55,
      "hit": false,
      "t": 13500,
      "d": 1312.5,
      "v": 110
    },
    {
      "midi": 71,
      "hit": false,
      "t": 13875,
      "d": 367.1875,
      "v": 110
    },
    {
      "midi": 76,
      "hit": false,
      "t": 14250,
      "d": 367.1875,
      "v": 110
    },
    {
      "midi": 76,
      "hit": false,
      "t": 14625,
      "d": 367.1875,
      "v": 110
    },
    {
      "midi": 60,
      "hit": false,
      "t": 15000,
      "d": 367.1875,
      "v": 110
    },
    {
      "midi": 65,
      "hit": false,
      "t": 15000,
      "d": 367.1875,
      "v": 110
    },
    {
      "midi": 69,
      "hit": false,
      "t": 15000,
      "d": 367.1875,
      "v": 110
    },
    {
      "midi": 53,
      "hit": false,
      "t": 15000,
      "d": 1312.5,
      "v": 110
    },
    {
      "midi": 57,
      "hit": false,
      "t": 15000,
      "d": 1312.5,
      "v": 110
    },
    {
      "midi": 69,
      "hit": false,
      "t": 15375,
      "d": 179.6875,
      "v": 110
    },
    {
      "midi": 67,
      "hit": false,
      "t": 15562.5,
      "d": 367.1875,
      "v": 110
    },
    {
      "midi": 67,
      "hit": false,
      "t": 15937.5,
      "d": 179.6875,
      "v": 110
    },
    {
      "midi": 69,
      "hit": false,
      "t": 16125,
      "d": 179.6875,
      "v": 110
    },
    {
      "midi": 72,
      "hit": false,
      "t": 16312.5,
      "d": 179.6875,
      "v": 110
    },
    {
      "midi": 60,
      "hit": false,
      "t": 16500,
      "d": 1000,
      "v": 110
    },
    {
      "midi": 64,
      "hit": false,
      "t": 16500,
      "d": 1000,
      "v": 110
    },
    {
      "midi": 69,
      "hit": false,
      "t": 16500,
      "d": 1000,
      "v": 110
    },
    {
      "midi": 52,
      "hit": false,
      "t": 16500,
      "d": 367.1875,
      "v": 110
    },
    {
      "midi": 55,
      "hit": false,
      "t": 16875,
      "d": 367.1875,
      "v": 110
    },
    {
      "midi": 53,
      "hit": false,
      "t": 17250,
      "d": 367.1875,
      "v": 110
    },
    {
      "midi": 67,
      "hit": false,
      "t": 17625,
      "d": 367.1875,
      "v": 110
    },
    {
      "midi": 52,
      "hit": false,
      "t": 17625,
      "d": 367.1875,
      "v": 110
    },
    {
      "midi": 62,
      "hit": false,
      "t": 18000,
      "d": 367.1875,
      "v": 110
    },
    {
      "midi": 65,
      "hit": false,
      "t": 18000,
      "d": 367.1875,
      "v": 110
    },
    {
      "midi": 50,
      "hit": false,
      "t": 18000,
      "d": 1312.5,
      "v": 110
    },
    {
      "midi": 57,
      "hit": false,
      "t": 18000,
      "d": 1312.5,
      "v": 110
    },
    {
      "midi": 65,
      "hit": false,
      "t": 18375,
      "d": 367.1875,
      "v": 110
    },
    {
      "midi": 67,
      "hit": false,
      "t": 18750,
      "d": 367.1875,
      "v": 110
    },
    {
      "midi": 67,
      "hit": false,
      "t": 19125,
      "d": 367.1875,
      "v": 110
    },
    {
      "midi": 64,
      "hit": false,
      "t": 19500,
      "d": 367.1875,
      "v": 110
    },
    {
      "midi": 69,
      "hit": false,
      "t": 19500,
      "d": 367.1875,
      "v": 110
    },
    {
      "midi": 52,
      "hit": false,
      "t": 19500,
      "d": 367.1875,
      "v": 110
    },
    {
      "midi": 55,
      "hit": false,
      "t": 19500,
      "d": 367.1875,
      "v": 110
    },
    {
      "midi": 59,
      "hit": false,
      "t": 19500,
      "d": 367.1875,
      "v": 110
    },
    {
      "midi": 74,
      "hit": false,
      "t": 19875,
      "d": 367.1875,
      "v": 110
    },
    {
      "midi": 55,
      "hit": false,
      "t": 19875,
      "d": 367.1875,
      "v": 110
    },
    {
      "midi": 71,
      "hit": false,
      "t": 20250,
      "d": 367.1875,
      "v": 110
    },
    {
      "midi": 59,
      "hit": false,
      "t": 20250,
      "d": 367.1875,
      "v": 110
    },
    {
      "midi": 67,
      "hit": false,
      "t": 20625,
      "d": 367.1875,
      "v": 110
    },
    {
      "midi": 64,
      "hit": false,
      "t": 20625,
      "d": 367.1875,
      "v": 110
    },
    {
      "midi": 62,
      "hit": false,
      "t": 21000,
      "d": 625,
      "v": 110
    },
    {
      "midi": 69,
      "hit": false,
      "t": 21000,
      "d": 625,
      "v": 110
    },
    {
      "midi": 50,
      "hit": false,
      "t": 21000,
      "d": 625,
      "v": 110
    },
    {
      "midi": 57,
      "hit": false,
      "t": 21000,
      "d": 625,
      "v": 110
    },
    {
      "midi": 59,
      "hit": false,
      "t": 21750,
      "d": 625,
      "v": 110
    },
    {
      "midi": 43,
      "hit": false,
      "t": 21750,
      "d": 625,
      "v": 110
    },
    {
      "midi": 55,
      "hit": false,
      "t": 21750,
      "d": 625,
      "v": 110
    },
    {
      "midi": 57,
      "hit": false,
      "t": 22500,
      "d": 1312.5,
      "v": 110
    },
    {
      "midi": 61,
      "hit": false,
      "t": 22500,
      "d": 1312.5,
      "v": 110
    },
    {
      "midi": 33,
      "hit": false,
      "t": 22500,
      "d": 1312.5,
      "v": 110
    },
    {
      "midi": 45,
      "hit": false,
      "t": 22500,
      "d": 1312.5,
      "v": 110
    },
    {
      "midi": 64,
      "hit": false,
      "t": 24000,
      "d": 367.1875,
      "v": 110
    },
    {
      "midi": 69,
      "hit": false,
      "t": 24000,
      "d": 367.1875,
      "v": 110
    },
    {
      "midi": 72,
      "hit": false,
      "t": 24000,
      "d": 367.1875,
      "v": 110
    },
    {
      "midi": 57,
      "hit": false,
      "t": 24000,
      "d": 1312.5,
      "v": 110
    },
    {
      "midi": 72,
      "hit": false,
      "t": 24375,
      "d": 367.1875,
      "v": 110
    },
    {
      "midi": 76,
      "hit": false,
      "t": 24750,
      "d": 367.1875,
      "v": 110
    },
    {
      "midi": 76,
      "hit": false,
      "t": 25125,
      "d": 367.1875,
      "v": 110
    },
    {
      "midi": 64,
      "hit": false,
      "t": 25500,
      "d": 367.1875,
      "v": 110
    },
    {
      "midi": 67,
      "hit": false,
      "t": 25500,
      "d": 367.1875,
      "v": 110
    },
    {
      "midi": 71,
      "hit": false,
      "t": 25500,
      "d": 367.1875,
      "v": 110
    },
    {
      "midi": 55,
      "hit": false,
      "t": 25500,
      "d": 1312.5,
      "v": 110
    },
    {
      "midi": 71,
      "hit": false,
      "t": 25875,
      "d": 367.1875,
      "v": 110
    },
    {
      "midi": 76,
      "hit": false,
      "t": 26250,
      "d": 367.1875,
      "v": 110
    },
    {
      "midi": 76,
      "hit": false,
      "t": 26625,
      "d": 367.1875,
      "v": 110
    },
    {
      "midi": 60,
      "hit": false,
      "t": 27000,
      "d": 367.1875,
      "v": 110
    },
    {
      "midi": 65,
      "hit": false,
      "t": 27000,
      "d": 367.1875,
      "v": 110
    },
    {
      "midi": 69,
      "hit": false,
      "t": 27000,
      "d": 367.1875,
      "v": 110
    },
    {
      "midi": 53,
      "hit": false,
      "t": 27000,
      "d": 1312.5,
      "v": 110
    },
    {
      "midi": 57,
      "hit": false,
      "t": 27000,
      "d": 1312.5,
      "v": 110
    },
    {
      "midi": 69,
      "hit": false,
      "t": 27375,
      "d": 179.6875,
      "v": 110
    },
    {
      "midi": 67,
      "hit": false,
      "t": 27562.5,
      "d": 367.1875,
      "v": 110
    },
    {
      "midi": 67,
      "hit": false,
      "t": 27937.5,
      "d": 179.6875,
      "v": 110
    },
    {
      "midi": 69,
      "hit": false,
      "t": 28125,
      "d": 179.6875,
      "v": 110
    },
    {
      "midi": 72,
      "hit": false,
      "t": 28312.5,
      "d": 179.6875,
      "v": 110
    },
    {
      "midi": 60,
      "hit": false,
      "t": 28500,
      "d": 1312.5,
      "v": 110
    },
    {
      "midi": 64,
      "hit": false,
      "t": 28500,
      "d": 1312.5,
      "v": 110
    },
    {
      "midi": 69,
      "hit": false,
      "t": 28500,
      "d": 1312.5,
      "v": 110
    },
    {
      "midi": 52,
      "hit": false,
      "t": 28500,
      "d": 367.1875,
      "v": 110
    },
    {
      "midi": 55,
      "hit": false,
      "t": 28875,
      "d": 367.1875,
      "v": 110
    },
    {
      "midi": 53,
      "hit": false,
      "t": 29250,
      "d": 367.1875,
      "v": 110
    },
    {
      "midi": 52,
      "hit": false,
      "t": 29625,
      "d": 367.1875,
      "v": 110
    },
    {
      "midi": 62,
      "hit": false,
      "t": 30000,
      "d": 367.1875,
      "v": 110
    },
    {
      "midi": 65,
      "hit": false,
      "t": 30000,
      "d": 367.1875,
      "v": 110
    },
    {
      "midi": 69,
      "hit": false,
      "t": 30000,
      "d": 367.1875,
      "v": 110
    },
    {
      "midi": 50,
      "hit": false,
      "t": 30000,
      "d": 1312.5,
      "v": 110
    },
    {
      "midi": 57,
      "hit": false,
      "t": 30000,
      "d": 1312.5,
      "v": 110
    },
    {
      "midi": 69,
      "hit": false,
      "t": 30375,
      "d": 367.1875,
      "v": 110
    },
    {
      "midi": 72,
      "hit": false,
      "t": 30750,
      "d": 367.1875,
      "v": 110
    },
    {
      "midi": 72,
      "hit": false,
      "t": 31125,
      "d": 367.1875,
      "v": 110
    },
    {
      "midi": 57,
      "hit": false,
      "t": 31500,
      "d": 367.1875,
      "v": 110
    },
    {
      "midi": 60,
      "hit": false,
      "t": 31500,
      "d": 367.1875,
      "v": 110
    },
    {
      "midi": 65,
      "hit": false,
      "t": 31500,
      "d": 367.1875,
      "v": 110
    },
    {
      "midi": 48,
      "hit": false,
      "t": 31500,
      "d": 1312.5,
      "v": 110
    },
    {
      "midi": 53,
      "hit": false,
      "t": 31500,
      "d": 1312.5,
      "v": 110
    },
    {
      "midi": 65,
      "hit": false,
      "t": 31875,
      "d": 367.1875,
      "v": 110
    },
    {
      "midi": 67,
      "hit": false,
      "t": 32250,
      "d": 367.1875,
      "v": 110
    },
    {
      "midi": 67,
      "hit": false,
      "t": 32625,
      "d": 367.1875,
      "v": 110
    },
    {
      "midi": 55,
      "hit": false,
      "t": 33000,
      "d": 367.1875,
      "v": 110
    },
    {
      "midi": 60,
      "hit": false,
      "t": 33000,
      "d": 367.1875,
      "v": 110
    },
    {
      "midi": 64,
      "hit": false,
      "t": 33000,
      "d": 367.1875,
      "v": 110
    },
    {
      "midi": 36,
      "hit": false,
      "t": 33000,
      "d": 1312.5,
      "v": 110
    },
    {
      "midi": 48,
      "hit": false,
      "t": 33000,
      "d": 1312.5,
      "v": 110
    },
    {
      "midi": 62,
      "hit": false,
      "t": 33375,
      "d": 367.1875,
      "v": 110
    },
    {
      "midi": 64,
      "hit": false,
      "t": 33750,
      "d": 625,
      "v": 110
    },
    {
      "midi": 59,
      "hit": false,
      "t": 34500,
      "d": 367.1875,
      "v": 110
    },
    {
      "midi": 64,
      "hit": false,
      "t": 34500,
      "d": 367.1875,
      "v": 110
    },
    {
      "midi": 40,
      "hit": false,
      "t": 34500,
      "d": 1312.5,
      "v": 110
    },
    {
      "midi": 52,
      "hit": false,
      "t": 34500,
      "d": 1312.5,
      "v": 110
    },
    {
      "midi": 66,
      "hit": false,
      "t": 34875,
      "d": 367.1875,
      "v": 110
    },
    {
      "midi": 67,
      "hit": false,
      "t": 35250,
      "d": 367.1875,
      "v": 110
    },
    {
      "midi": 74,
      "hit": false,
      "t": 35625,
      "d": 367.1875,
      "v": 110
    },
    {
      "midi": 64,
      "hit": false,
      "t": 36000,
      "d": 367.1875,
      "v": 110
    },
    {
      "midi": 69,
      "hit": false,
      "t": 36000,
      "d": 367.1875,
      "v": 110
    },
    {
      "midi": 72,
      "hit": false,
      "t": 36000,
      "d": 367.1875,
      "v": 110
    },
    {
      "midi": 57,
      "hit": false,
      "t": 36000,
      "d": 1312.5,
      "v": 110
    },
    {
      "midi": 72,
      "hit": false,
      "t": 36375,
      "d": 367.1875,
      "v": 110
    },
    {
      "midi": 76,
      "hit": false,
      "t": 36750,
      "d": 367.1875,
      "v": 110
    },
    {
      "midi": 76,
      "hit": false,
      "t": 37125,
      "d": 367.1875,
      "v": 110
    },
    {
      "midi": 64,
      "hit": false,
      "t": 37500,
      "d": 367.1875,
      "v": 110
    },
    {
      "midi": 67,
      "hit": false,
      "t": 37500,
      "d": 367.1875,
      "v": 110
    },
    {
      "midi": 71,
      "hit": false,
      "t": 37500,
      "d": 367.1875,
      "v": 110
    },
    {
      "midi": 55,
      "hit": false,
      "t": 37500,
      "d": 1312.5,
      "v": 110
    },
    {
      "midi": 71,
      "hit": false,
      "t": 37875,
      "d": 367.1875,
      "v": 110
    },
    {
      "midi": 76,
      "hit": false,
      "t": 38250,
      "d": 367.1875,
      "v": 110
    },
    {
      "midi": 76,
      "hit": false,
      "t": 38625,
      "d": 367.1875,
      "v": 110
    },
    {
      "midi": 60,
      "hit": false,
      "t": 39000,
      "d": 367.1875,
      "v": 110
    },
    {
      "midi": 65,
      "hit": false,
      "t": 39000,
      "d": 367.1875,
      "v": 110
    },
    {
      "midi": 69,
      "hit": false,
      "t": 39000,
      "d": 367.1875,
      "v": 110
    },
    {
      "midi": 53,
      "hit": false,
      "t": 39000,
      "d": 1312.5,
      "v": 110
    },
    {
      "midi": 57,
      "hit": false,
      "t": 39000,
      "d": 1312.5,
      "v": 110
    },
    {
      "midi": 69,
      "hit": false,
      "t": 39375,
      "d": 179.6875,
      "v": 110
    },
    {
      "midi": 67,
      "hit": false,
      "t": 39562.5,
      "d": 367.1875,
      "v": 110
    },
    {
      "midi": 67,
      "hit": false,
      "t": 39937.5,
      "d": 179.6875,
      "v": 110
    },
    {
      "midi": 69,
      "hit": false,
      "t": 40125,
      "d": 179.6875,
      "v": 110
    },
    {
      "midi": 72,
      "hit": false,
      "t": 40312.5,
      "d": 179.6875,
      "v": 110
    },
    {
      "midi": 60,
      "hit": false,
      "t": 40500,
      "d": 1000,
      "v": 110
    },
    {
      "midi": 64,
      "hit": false,
      "t": 40500,
      "d": 1000,
      "v": 110
    },
    {
      "midi": 69,
      "hit": false,
      "t": 40500,
      "d": 1000,
      "v": 110
    },
    {
      "midi": 52,
      "hit": false,
      "t": 40500,
      "d": 367.1875,
      "v": 110
    },
    {
      "midi": 55,
      "hit": false,
      "t": 40875,
      "d": 367.1875,
      "v": 110
    },
    {
      "midi": 53,
      "hit": false,
      "t": 41250,
      "d": 367.1875,
      "v": 110
    },
    {
      "midi": 67,
      "hit": false,
      "t": 41625,
      "d": 367.1875,
      "v": 110
    },
    {
      "midi": 52,
      "hit": false,
      "t": 41625,
      "d": 367.1875,
      "v": 110
    },
    {
      "midi": 62,
      "hit": false,
      "t": 42000,
      "d": 367.1875,
      "v": 110
    },
    {
      "midi": 65,
      "hit": false,
      "t": 42000,
      "d": 367.1875,
      "v": 110
    },
    {
      "midi": 50,
      "hit": false,
      "t": 42000,
      "d": 1312.5,
      "v": 110
    },
    {
      "midi": 57,
      "hit": false,
      "t": 42000,
      "d": 1312.5,
      "v": 110
    },
    {
      "midi": 65,
      "hit": false,
      "t": 42375,
      "d": 367.1875,
      "v": 110
    },
    {
      "midi": 67,
      "hit": false,
      "t": 42750,
      "d": 367.1875,
      "v": 110
    },
    {
      "midi": 67,
      "hit": false,
      "t": 43125,
      "d": 367.1875,
      "v": 110
    },
    {
      "midi": 64,
      "hit": false,
      "t": 43500,
      "d": 367.1875,
      "v": 110
    },
    {
      "midi": 69,
      "hit": false,
      "t": 43500,
      "d": 367.1875,
      "v": 110
    },
    {
      "midi": 52,
      "hit": false,
      "t": 43500,
      "d": 367.1875,
      "v": 110
    },
    {
      "midi": 55,
      "hit": false,
      "t": 43500,
      "d": 367.1875,
      "v": 110
    },
    {
      "midi": 59,
      "hit": false,
      "t": 43500,
      "d": 367.1875,
      "v": 110
    },
    {
      "midi": 74,
      "hit": false,
      "t": 43875,
      "d": 367.1875,
      "v": 110
    },
    {
      "midi": 55,
      "hit": false,
      "t": 43875,
      "d": 367.1875,
      "v": 110
    },
    {
      "midi": 71,
      "hit": false,
      "t": 44250,
      "d": 367.1875,
      "v": 110
    },
    {
      "midi": 59,
      "hit": false,
      "t": 44250,
      "d": 367.1875,
      "v": 110
    },
    {
      "midi": 67,
      "hit": false,
      "t": 44625,
      "d": 367.1875,
      "v": 110
    },
    {
      "midi": 64,
      "hit": false,
      "t": 44625,
      "d": 367.1875,
      "v": 110
    },
    {
      "midi": 62,
      "hit": false,
      "t": 45000,
      "d": 625,
      "v": 110
    },
    {
      "midi": 69,
      "hit": false,
      "t": 45000,
      "d": 625,
      "v": 110
    },
    {
      "midi": 50,
      "hit": false,
      "t": 45000,
      "d": 625,
      "v": 110
    },
    {
      "midi": 57,
      "hit": false,
      "t": 45000,
      "d": 625,
      "v": 110
    },
    {
      "midi": 59,
      "hit": false,
      "t": 45750,
      "d": 625,
      "v": 110
    },
    {
      "midi": 43,
      "hit": false,
      "t": 45750,
      "d": 625,
      "v": 110
    },
    {
      "midi": 55,
      "hit": false,
      "t": 45750,
      "d": 625,
      "v": 110
    },
    {
      "midi": 57,
      "hit": false,
      "t": 46500,
      "d": 1312.5,
      "v": 110
    },
    {
      "midi": 61,
      "hit": false,
      "t": 46500,
      "d": 1312.5,
      "v": 110
    },
    {
      "midi": 33,
      "hit": false,
      "t": 46500,
      "d": 1312.5,
      "v": 110
    },
    {
      "midi": 45,
      "hit": false,
      "t": 46500,
      "d": 1312.5,
      "v": 110
    },
    {
      "midi": 60,
      "hit": false,
      "t": 48000,
      "d": 367.1875,
      "v": 110
    },
    {
      "midi": 65,
      "hit": false,
      "t": 48000,
      "d": 367.1875,
      "v": 110
    },
    {
      "midi": 69,
      "hit": false,
      "t": 48000,
      "d": 367.1875,
      "v": 110
    },
    {
      "midi": 41,
      "hit": false,
      "t": 48000,
      "d": 1312.5,
      "v": 110
    },
    {
      "midi": 53,
      "hit": false,
      "t": 48000,
      "d": 1312.5,
      "v": 110
    },
    {
      "midi": 67,
      "hit": false,
      "t": 48375,
      "d": 367.1875,
      "v": 110
    },
    {
      "midi": 69,
      "hit": false,
      "t": 48750,
      "d": 367.1875,
      "v": 110
    },
    {
      "midi": 72,
      "hit": false,
      "t": 49125,
      "d": 367.1875,
      "v": 110
    },
    {
      "midi": 71,
      "hit": false,
      "t": 49500,
      "d": 367.1875,
      "v": 110
    },
    {
      "midi": 41,
      "hit": false,
      "t": 49500,
      "d": 1312.5,
      "v": 110
    },
    {
      "midi": 53,
      "hit": false,
      "t": 49500,
      "d": 1312.5,
      "v": 110
    },
    {
      "midi": 69,
      "hit": false,
      "t": 49875,
      "d": 367.1875,
      "v": 110
    },
    {
      "midi": 64,
      "hit": false,
      "t": 50250,
      "d": 625,
      "v": 110
    },
    {
      "midi": 60,
      "hit": false,
      "t": 51000,
      "d": 367.1875,
      "v": 110
    },
    {
      "midi": 65,
      "hit": false,
      "t": 51000,
      "d": 367.1875,
      "v": 110
    },
    {
      "midi": 69,
      "hit": false,
      "t": 51000,
      "d": 367.1875,
      "v": 110
    },
    {
      "midi": 41,
      "hit": false,
      "t": 51000,
      "d": 1312.5,
      "v": 110
    },
    {
      "midi": 53,
      "hit": false,
      "t": 51000,
      "d": 1312.5,
      "v": 110
    },
    {
      "midi": 65,
      "hit": false,
      "t": 51375,
      "d": 367.1875,
      "v": 110
    },
    {
      "midi": 74,
      "hit": false,
      "t": 51750,
      "d": 367.1875,
      "v": 110
    },
    {
      "midi": 71,
      "hit": false,
      "t": 52125,
      "d": 367.1875,
      "v": 110
    },
    {
      "midi": 69,
      "hit": false,
      "t": 52500,
      "d": 367.1875,
      "v": 110
    },
    {
      "midi": 41,
      "hit": false,
      "t": 52500,
      "d": 1312.5,
      "v": 110
    },
    {
      "midi": 53,
      "hit": false,
      "t": 52500,
      "d": 1312.5,
      "v": 110
    },
    {
      "midi": 60,
      "hit": false,
      "t": 52875,
      "d": 367.1875,
      "v": 110
    },
    {
      "midi": 67,
      "hit": false,
      "t": 53250,
      "d": 367.1875,
      "v": 110
    },
    {
      "midi": 65,
      "hit": false,
      "t": 53625,
      "d": 367.1875,
      "v": 110
    },
    {
      "midi": 55,
      "hit": false,
      "t": 54000,
      "d": 625,
      "v": 110
    },
    {
      "midi": 59,
      "hit": false,
      "t": 54000,
      "d": 625,
      "v": 110
    },
    {
      "midi": 64,
      "hit": false,
      "t": 54000,
      "d": 625,
      "v": 110
    },
    {
      "midi": 40,
      "hit": false,
      "t": 54000,
      "d": 1312.5,
      "v": 110
    },
    {
      "midi": 52,
      "hit": false,
      "t": 54000,
      "d": 1312.5,
      "v": 110
    },
    {
      "midi": 55,
      "hit": false,
      "t": 54750,
      "d": 367.1875,
      "v": 110
    },
    {
      "midi": 57,
      "hit": false,
      "t": 55125,
      "d": 367.1875,
      "v": 110
    },
    {
      "midi": 62,
      "hit": false,
      "t": 55125,
      "d": 367.1875,
      "v": 110
    },
    {
      "midi": 55,
      "hit": false,
      "t": 55500,
      "d": 1312.5,
      "v": 110
    },
    {
      "midi": 64,
      "hit": false,
      "t": 55500,
      "d": 1312.5,
      "v": 110
    },
    {
      "midi": 40,
      "hit": false,
      "t": 55500,
      "d": 625,
      "v": 110
    },
    {
      "midi": 52,
      "hit": false,
      "t": 55500,
      "d": 625,
      "v": 110
    },
    {
      "midi": 47,
      "hit": false,
      "t": 56250,
      "d": 625,
      "v": 110
    },
    {
      "midi": 40,
      "hit": false,
      "t": 57000,
      "d": 1312.5,
      "v": 110
    },
    {
      "midi": 52,
      "hit": false,
      "t": 57000,
      "d": 1312.5,
      "v": 110
    },
    {
      "midi": 66,
      "hit": false,
      "t": 57375,
      "d": 367.1875,
      "v": 110
    },
    {
      "midi": 62,
      "hit": false,
      "t": 57750,
      "d": 367.1875,
      "v": 110
    },
    {
      "midi": 67,
      "hit": false,
      "t": 57750,
      "d": 367.1875,
      "v": 110
    },
    {
      "midi": 66,
      "hit": false,
      "t": 58125,
      "d": 367.1875,
      "v": 110
    },
    {
      "midi": 59,
      "hit": false,
      "t": 58500,
      "d": 367.1875,
      "v": 110
    },
    {
      "midi": 64,
      "hit": false,
      "t": 58500,
      "d": 367.1875,
      "v": 110
    },
    {
      "midi": 67,
      "hit": false,
      "t": 58500,
      "d": 367.1875,
      "v": 110
    },
    {
      "midi": 40,
      "hit": false,
      "t": 58500,
      "d": 1312.5,
      "v": 110
    },
    {
      "midi": 52,
      "hit": false,
      "t": 58500,
      "d": 1312.5,
      "v": 110
    },
    {
      "midi": 66,
      "hit": false,
      "t": 58875,
      "d": 367.1875,
      "v": 110
    },
    {
      "midi": 64,
      "hit": false,
      "t": 59250,
      "d": 367.1875,
      "v": 110
    },
    {
      "midi": 62,
      "hit": false,
      "t": 59625,
      "d": 367.1875,
      "v": 110
    },
    {
      "midi": 60,
      "hit": false,
      "t": 60000,
      "d": 367.1875,
      "v": 110
    },
    {
      "midi": 65,
      "hit": false,
      "t": 60000,
      "d": 367.1875,
      "v": 110
    },
    {
      "midi": 69,
      "hit": false,
      "t": 60000,
      "d": 367.1875,
      "v": 110
    },
    {
      "midi": 41,
      "hit": false,
      "t": 60000,
      "d": 1312.5,
      "v": 110
    },
    {
      "midi": 53,
      "hit": false,
      "t": 60000,
      "d": 1312.5,
      "v": 110
    },
    {
      "midi": 67,
      "hit": false,
      "t": 60375,
      "d": 367.1875,
      "v": 110
    },
    {
      "midi": 69,
      "hit": false,
      "t": 60750,
      "d": 367.1875,
      "v": 110
    },
    {
      "midi": 72,
      "hit": false,
      "t": 61125,
      "d": 367.1875,
      "v": 110
    },
    {
      "midi": 71,
      "hit": false,
      "t": 61500,
      "d": 367.1875,
      "v": 110
    },
    {
      "midi": 41,
      "hit": false,
      "t": 61500,
      "d": 625,
      "v": 110
    },
    {
      "midi": 53,
      "hit": false,
      "t": 61500,
      "d": 625,
      "v": 110
    },
    {
      "midi": 69,
      "hit": false,
      "t": 61875,
      "d": 367.1875,
      "v": 110
    },
    {
      "midi": 64,
      "hit": false,
      "t": 62250,
      "d": 625,
      "v": 110
    },
    {
      "midi": 41,
      "hit": false,
      "t": 62250,
      "d": 367.1875,
      "v": 110
    },
    {
      "midi": 53,
      "hit": false,
      "t": 62250,
      "d": 367.1875,
      "v": 110
    },
    {
      "midi": 40,
      "hit": false,
      "t": 62625,
      "d": 367.1875,
      "v": 110
    },
    {
      "midi": 52,
      "hit": false,
      "t": 62625,
      "d": 367.1875,
      "v": 110
    },
    {
      "midi": 62,
      "hit": false,
      "t": 63000,
      "d": 367.1875,
      "v": 110
    },
    {
      "midi": 69,
      "hit": false,
      "t": 63000,
      "d": 367.1875,
      "v": 110
    },
    {
      "midi": 38,
      "hit": false,
      "t": 63000,
      "d": 1312.5,
      "v": 110
    },
    {
      "midi": 50,
      "hit": false,
      "t": 63000,
      "d": 1312.5,
      "v": 110
    },
    {
      "midi": 65,
      "hit": false,
      "t": 63375,
      "d": 367.1875,
      "v": 110
    },
    {
      "midi": 74,
      "hit": false,
      "t": 63750,
      "d": 367.1875,
      "v": 110
    },
    {
      "midi": 71,
      "hit": false,
      "t": 64125,
      "d": 367.1875,
      "v": 110
    },
    {
      "midi": 69,
      "hit": false,
      "t": 64500,
      "d": 367.1875,
      "v": 110
    },
    {
      "midi": 38,
      "hit": false,
      "t": 64500,
      "d": 1312.5,
      "v": 110
    },
    {
      "midi": 50,
      "hit": false,
      "t": 64500,
      "d": 1312.5,
      "v": 110
    },
    {
      "midi": 62,
      "hit": false,
      "t": 64875,
      "d": 367.1875,
      "v": 110
    },
    {
      "midi": 69,
      "hit": false,
      "t": 65250,
      "d": 367.1875,
      "v": 110
    },
    {
      "midi": 72,
      "hit": false,
      "t": 65250,
      "d": 367.1875,
      "v": 110
    },
    {
      "midi": 71,
      "hit": false,
      "t": 65625,
      "d": 367.1875,
      "v": 110
    },
    {
      "midi": 74,
      "hit": false,
      "t": 65625,
      "d": 367.1875,
      "v": 110
    },
    {
      "midi": 67,
      "hit": false,
      "t": 66000,
      "d": 1000,
      "v": 110
    },
    {
      "midi": 72,
      "hit": false,
      "t": 66000,
      "d": 1000,
      "v": 110
    },
    {
      "midi": 76,
      "hit": false,
      "t": 66000,
      "d": 1000,
      "v": 110
    },
    {
      "midi": 36,
      "hit": false,
      "t": 66000,
      "d": 1312.5,
      "v": 110
    },
    {
      "midi": 48,
      "hit": false,
      "t": 66000,
      "d": 1312.5,
      "v": 110
    },
    {
      "midi": 74,
      "hit": false,
      "t": 67125,
      "d": 367.1875,
      "v": 110
    },
    {
      "midi": 67,
      "hit": false,
      "t": 67500,
      "d": 625,
      "v": 110
    },
    {
      "midi": 72,
      "hit": false,
      "t": 67500,
      "d": 625,
      "v": 110
    },
    {
      "midi": 76,
      "hit": false,
      "t": 67500,
      "d": 625,
      "v": 110
    },
    {
      "midi": 36,
      "hit": false,
      "t": 67500,
      "d": 1312.5,
      "v": 110
    },
    {
      "midi": 48,
      "hit": false,
      "t": 67500,
      "d": 1312.5,
      "v": 110
    },
    {
      "midi": 71,
      "hit": false,
      "t": 68250,
      "d": 367.1875,
      "v": 110
    },
    {
      "midi": 69,
      "hit": false,
      "t": 68625,
      "d": 367.1875,
      "v": 110
    },
    {
      "midi": 67,
      "hit": false,
      "t": 69000,
      "d": 1000,
      "v": 110
    },
    {
      "midi": 71,
      "hit": false,
      "t": 69000,
      "d": 1000,
      "v": 110
    },
    {
      "midi": 74,
      "hit": false,
      "t": 69000,
      "d": 1000,
      "v": 110
    },
    {
      "midi": 31,
      "hit": false,
      "t": 69000,
      "d": 2062.5,
      "v": 110
    },
    {
      "midi": 43,
      "hit": false,
      "t": 69000,
      "d": 2062.5,
      "v": 110
    },
    {
      "midi": 62,
      "hit": false,
      "t": 70125,
      "d": 367.1875,
      "v": 110
    },
    {
      "midi": 67,
      "hit": false,
      "t": 70125,
      "d": 367.1875,
      "v": 110
    },
    {
      "midi": 67,
      "hit": false,
      "t": 70500,
      "d": 625,
      "v": 110
    },
    {
      "midi": 71,
      "hit": false,
      "t": 70500,
      "d": 625,
      "v": 110
    },
    {
      "midi": 74,
      "hit": false,
      "t": 70500,
      "d": 625,
      "v": 110
    },
    {
      "midi": 69,
      "hit": false,
      "t": 71250,
      "d": 367.1875,
      "v": 110
    },
    {
      "midi": 72,
      "hit": false,
      "t": 71250,
      "d": 367.1875,
      "v": 110
    },
    {
      "midi": 31,
      "hit": false,
      "t": 71250,
      "d": 625,
      "v": 110
    },
    {
      "midi": 43,
      "hit": false,
      "t": 71250,
      "d": 625,
      "v": 110
    },
    {
      "midi": 67,
      "hit": false,
      "t": 71625,
      "d": 367.1875,
      "v": 110
    },
    {
      "midi": 71,
      "hit": false,
      "t": 71625,
      "d": 367.1875,
      "v": 110
    },
    {
      "midi": 61,
      "hit": false,
      "t": 72000,
      "d": 625,
      "v": 110
    },
    {
      "midi": 64,
      "hit": false,
      "t": 72000,
      "d": 625,
      "v": 110
    },
    {
      "midi": 69,
      "hit": false,
      "t": 72000,
      "d": 625,
      "v": 110
    },
    {
      "midi": 33,
      "hit": false,
      "t": 72000,
      "d": 2812.5,
      "v": 110
    },
    {
      "midi": 45,
      "hit": false,
      "t": 72000,
      "d": 2812.5,
      "v": 110
    },
    {
      "midi": 59,
      "hit": false,
      "t": 72750,
      "d": 625,
      "v": 110
    },
    {
      "midi": 64,
      "hit": false,
      "t": 72750,
      "d": 625,
      "v": 110
    },
    {
      "midi": 62,
      "hit": false,
      "t": 73500,
      "d": 625,
      "v": 110
    },
    {
      "midi": 64,
      "hit": false,
      "t": 73500,
      "d": 625,
      "v": 110
    },
    {
      "midi": 59,
      "hit": false,
      "t": 74250,
      "d": 625,
      "v": 110
    },
    {
      "midi": 64,
      "hit": false,
      "t": 74250,
      "d": 625,
      "v": 110
    },
    {
      "midi": 61,
      "hit": false,
      "t": 75000,
      "d": 1000,
      "v": 110
    },
    {
      "midi": 64,
      "hit": false,
      "t": 75000,
      "d": 1000,
      "v": 110
    },
    {
      "midi": 33,
      "hit": false,
      "t": 75000,
      "d": 2812.5,
      "v": 110
    },
    {
      "midi": 45,
      "hit": false,
      "t": 75000,
      "d": 2812.5,
      "v": 110
    },
    {
      "midi": 67,
      "hit": false,
      "t": 76125,
      "d": 367.1875,
      "v": 110
    },
    {
      "midi": 57,
      "hit": false,
      "t": 76500,
      "d": 1312.5,
      "v": 110
    },
    {
      "midi": 61,
      "hit": false,
      "t": 76500,
      "d": 1312.5,
      "v": 110
    },
    {
      "midi": 64,
      "hit": false,
      "t": 76500,
      "d": 1312.5,
      "v": 110
    },
    {
      "midi": 69,
      "hit": false,
      "t": 76500,
      "d": 1312.5,
      "v": 110
    },
    {
      "midi": 64,
      "hit": false,
      "t": 78000,
      "d": 367.1875,
      "v": 110
    },
    {
      "midi": 69,
      "hit": false,
      "t": 78000,
      "d": 367.1875,
      "v": 110
    },
    {
      "midi": 72,
      "hit": false,
      "t": 78000,
      "d": 367.1875,
      "v": 110
    },
    {
      "midi": 57,
      "hit": false,
      "t": 78000,
      "d": 1312.5,
      "v": 110
    },
    {
      "midi": 72,
      "hit": false,
      "t": 78375,
      "d": 367.1875,
      "v": 110
    },
    {
      "midi": 76,
      "hit": false,
      "t": 78750,
      "d": 367.1875,
      "v": 110
    },
    {
      "midi": 76,
      "hit": false,
      "t": 79125,
      "d": 367.1875,
      "v": 110
    },
    {
      "midi": 64,
      "hit": false,
      "t": 79500,
      "d": 367.1875,
      "v": 110
    },
    {
      "midi": 67,
      "hit": false,
      "t": 79500,
      "d": 367.1875,
      "v": 110
    },
    {
      "midi": 71,
      "hit": false,
      "t": 79500,
      "d": 367.1875,
      "v": 110
    },
    {
      "midi": 55,
      "hit": false,
      "t": 79500,
      "d": 1312.5,
      "v": 110
    },
    {
      "midi": 71,
      "hit": false,
      "t": 79875,
      "d": 367.1875,
      "v": 110
    },
    {
      "midi": 76,
      "hit": false,
      "t": 80250,
      "d": 367.1875,
      "v": 110
    },
    {
      "midi": 76,
      "hit": false,
      "t": 80625,
      "d": 367.1875,
      "v": 110
    },
    {
      "midi": 60,
      "hit": false,
      "t": 81000,
      "d": 367.1875,
      "v": 110
    },
    {
      "midi": 65,
      "hit": false,
      "t": 81000,
      "d": 367.1875,
      "v": 110
    },
    {
      "midi": 69,
      "hit": false,
      "t": 81000,
      "d": 367.1875,
      "v": 110
    },
    {
      "midi": 53,
      "hit": false,
      "t": 81000,
      "d": 1312.5,
      "v": 110
    },
    {
      "midi": 57,
      "hit": false,
      "t": 81000,
      "d": 1312.5,
      "v": 110
    },
    {
      "midi": 69,
      "hit": false,
      "t": 81375,
      "d": 179.6875,
      "v": 110
    },
    {
      "midi": 67,
      "hit": false,
      "t": 81562.5,
      "d": 367.1875,
      "v": 110
    },
    {
      "midi": 67,
      "hit": false,
      "t": 81937.5,
      "d": 179.6875,
      "v": 110
    },
    {
      "midi": 69,
      "hit": false,
      "t": 82125,
      "d": 179.6875,
      "v": 110
    },
    {
      "midi": 72,
      "hit": false,
      "t": 82312.5,
      "d": 179.6875,
      "v": 110
    },
    {
      "midi": 60,
      "hit": false,
      "t": 82500,
      "d": 1312.5,
      "v": 110
    },
    {
      "midi": 64,
      "hit": false,
      "t": 82500,
      "d": 1312.5,
      "v": 110
    },
    {
      "midi": 69,
      "hit": false,
      "t": 82500,
      "d": 1312.5,
      "v": 110
    },
    {
      "midi": 52,
      "hit": false,
      "t": 82500,
      "d": 367.1875,
      "v": 110
    },
    {
      "midi": 55,
      "hit": false,
      "t": 82875,
      "d": 367.1875,
      "v": 110
    },
    {
      "midi": 53,
      "hit": false,
      "t": 83250,
      "d": 367.1875,
      "v": 110
    },
    {
      "midi": 52,
      "hit": false,
      "t": 83625,
      "d": 367.1875,
      "v": 110
    },
    {
      "midi": 62,
      "hit": false,
      "t": 84000,
      "d": 367.1875,
      "v": 110
    },
    {
      "midi": 65,
      "hit": false,
      "t": 84000,
      "d": 367.1875,
      "v": 110
    },
    {
      "midi": 69,
      "hit": false,
      "t": 84000,
      "d": 367.1875,
      "v": 110
    },
    {
      "midi": 50,
      "hit": false,
      "t": 84000,
      "d": 1312.5,
      "v": 110
    },
    {
      "midi": 57,
      "hit": false,
      "t": 84000,
      "d": 1312.5,
      "v": 110
    },
    {
      "midi": 69,
      "hit": false,
      "t": 84375,
      "d": 367.1875,
      "v": 110
    },
    {
      "midi": 72,
      "hit": false,
      "t": 84750,
      "d": 367.1875,
      "v": 110
    },
    {
      "midi": 72,
      "hit": false,
      "t": 85125,
      "d": 367.1875,
      "v": 110
    },
    {
      "midi": 57,
      "hit": false,
      "t": 85500,
      "d": 367.1875,
      "v": 110
    },
    {
      "midi": 60,
      "hit": false,
      "t": 85500,
      "d": 367.1875,
      "v": 110
    },
    {
      "midi": 65,
      "hit": false,
      "t": 85500,
      "d": 367.1875,
      "v": 110
    },
    {
      "midi": 48,
      "hit": false,
      "t": 85500,
      "d": 1312.5,
      "v": 110
    },
    {
      "midi": 53,
      "hit": false,
      "t": 85500,
      "d": 1312.5,
      "v": 110
    },
    {
      "midi": 65,
      "hit": false,
      "t": 85875,
      "d": 367.1875,
      "v": 110
    },
    {
      "midi": 67,
      "hit": false,
      "t": 86250,
      "d": 367.1875,
      "v": 110
    },
    {
      "midi": 67,
      "hit": false,
      "t": 86625,
      "d": 367.1875,
      "v": 110
    },
    {
      "midi": 55,
      "hit": false,
      "t": 87000,
      "d": 367.1875,
      "v": 110
    },
    {
      "midi": 60,
      "hit": false,
      "t": 87000,
      "d": 367.1875,
      "v": 110
    },
    {
      "midi": 64,
      "hit": false,
      "t": 87000,
      "d": 367.1875,
      "v": 110
    },
    {
      "midi": 36,
      "hit": false,
      "t": 87000,
      "d": 1312.5,
      "v": 110
    },
    {
      "midi": 48,
      "hit": false,
      "t": 87000,
      "d": 1312.5,
      "v": 110
    },
    {
      "midi": 62,
      "hit": false,
      "t": 87375,
      "d": 367.1875,
      "v": 110
    },
    {
      "midi": 64,
      "hit": false,
      "t": 87750,
      "d": 625,
      "v": 110
    },
    {
      "midi": 59,
      "hit": false,
      "t": 88500,
      "d": 367.1875,
      "v": 110
    },
    {
      "midi": 64,
      "hit": false,
      "t": 88500,
      "d": 367.1875,
      "v": 110
    },
    {
      "midi": 40,
      "hit": false,
      "t": 88500,
      "d": 1312.5,
      "v": 110
    },
    {
      "midi": 52,
      "hit": false,
      "t": 88500,
      "d": 1312.5,
      "v": 110
    },
    {
      "midi": 66,
      "hit": false,
      "t": 88875,
      "d": 367.1875,
      "v": 110
    },
    {
      "midi": 67,
      "hit": false,
      "t": 89250,
      "d": 367.1875,
      "v": 110
    },
    {
      "midi": 74,
      "hit": false,
      "t": 89625,
      "d": 367.1875,
      "v": 110
    },
    {
      "midi": 64,
      "hit": false,
      "t": 90000,
      "d": 367.1875,
      "v": 110
    },
    {
      "midi": 69,
      "hit": false,
      "t": 90000,
      "d": 367.1875,
      "v": 110
    },
    {
      "midi": 72,
      "hit": false,
      "t": 90000,
      "d": 367.1875,
      "v": 110
    },
    {
      "midi": 57,
      "hit": false,
      "t": 90000,
      "d": 1312.5,
      "v": 110
    },
    {
      "midi": 72,
      "hit": false,
      "t": 90375,
      "d": 367.1875,
      "v": 110
    },
    {
      "midi": 76,
      "hit": false,
      "t": 90750,
      "d": 367.1875,
      "v": 110
    },
    {
      "midi": 76,
      "hit": false,
      "t": 91125,
      "d": 367.1875,
      "v": 110
    },
    {
      "midi": 64,
      "hit": false,
      "t": 91500,
      "d": 367.1875,
      "v": 110
    },
    {
      "midi": 67,
      "hit": false,
      "t": 91500,
      "d": 367.1875,
      "v": 110
    },
    {
      "midi": 71,
      "hit": false,
      "t": 91500,
      "d": 367.1875,
      "v": 110
    },
    {
      "midi": 55,
      "hit": false,
      "t": 91500,
      "d": 1312.5,
      "v": 110
    },
    {
      "midi": 71,
      "hit": false,
      "t": 91875,
      "d": 367.1875,
      "v": 110
    },
    {
      "midi": 76,
      "hit": false,
      "t": 92250,
      "d": 367.1875,
      "v": 110
    },
    {
      "midi": 76,
      "hit": false,
      "t": 92625,
      "d": 367.1875,
      "v": 110
    },
    {
      "midi": 60,
      "hit": false,
      "t": 93000,
      "d": 367.1875,
      "v": 110
    },
    {
      "midi": 65,
      "hit": false,
      "t": 93000,
      "d": 367.1875,
      "v": 110
    },
    {
      "midi": 69,
      "hit": false,
      "t": 93000,
      "d": 367.1875,
      "v": 110
    },
    {
      "midi": 53,
      "hit": false,
      "t": 93000,
      "d": 1312.5,
      "v": 110
    },
    {
      "midi": 57,
      "hit": false,
      "t": 93000,
      "d": 1312.5,
      "v": 110
    },
    {
      "midi": 69,
      "hit": false,
      "t": 93375,
      "d": 179.6875,
      "v": 110
    },
    {
      "midi": 67,
      "hit": false,
      "t": 93562.5,
      "d": 367.1875,
      "v": 110
    },
    {
      "midi": 67,
      "hit": false,
      "t": 93937.5,
      "d": 179.6875,
      "v": 110
    },
    {
      "midi": 69,
      "hit": false,
      "t": 94125,
      "d": 179.6875,
      "v": 110
    },
    {
      "midi": 72,
      "hit": false,
      "t": 94312.5,
      "d": 179.6875,
      "v": 110
    },
    {
      "midi": 60,
      "hit": false,
      "t": 94500,
      "d": 1000,
      "v": 110
    },
    {
      "midi": 64,
      "hit": false,
      "t": 94500,
      "d": 1000,
      "v": 110
    },
    {
      "midi": 69,
      "hit": false,
      "t": 94500,
      "d": 1000,
      "v": 110
    },
    {
      "midi": 52,
      "hit": false,
      "t": 94500,
      "d": 367.1875,
      "v": 110
    },
    {
      "midi": 55,
      "hit": false,
      "t": 94875,
      "d": 367.1875,
      "v": 110
    },
    {
      "midi": 53,
      "hit": false,
      "t": 95250,
      "d": 367.1875,
      "v": 110
    },
    {
      "midi": 67,
      "hit": false,
      "t": 95625,
      "d": 367.1875,
      "v": 110
    },
    {
      "midi": 52,
      "hit": false,
      "t": 95625,
      "d": 367.1875,
      "v": 110
    },
    {
      "midi": 62,
      "hit": false,
      "t": 96000,
      "d": 367.1875,
      "v": 110
    },
    {
      "midi": 65,
      "hit": false,
      "t": 96000,
      "d": 367.1875,
      "v": 110
    },
    {
      "midi": 50,
      "hit": false,
      "t": 96000,
      "d": 1312.5,
      "v": 110
    },
    {
      "midi": 57,
      "hit": false,
      "t": 96000,
      "d": 1312.5,
      "v": 110
    },
    {
      "midi": 65,
      "hit": false,
      "t": 96375,
      "d": 367.1875,
      "v": 110
    },
    {
      "midi": 67,
      "hit": false,
      "t": 96750,
      "d": 367.1875,
      "v": 110
    },
    {
      "midi": 67,
      "hit": false,
      "t": 97125,
      "d": 367.1875,
      "v": 110
    },
    {
      "midi": 64,
      "hit": false,
      "t": 97500,
      "d": 367.1875,
      "v": 110
    },
    {
      "midi": 69,
      "hit": false,
      "t": 97500,
      "d": 367.1875,
      "v": 110
    },
    {
      "midi": 52,
      "hit": false,
      "t": 97500,
      "d": 367.1875,
      "v": 110
    },
    {
      "midi": 55,
      "hit": false,
      "t": 97500,
      "d": 367.1875,
      "v": 110
    },
    {
      "midi": 59,
      "hit": false,
      "t": 97500,
      "d": 367.1875,
      "v": 110
    },
    {
      "midi": 74,
      "hit": false,
      "t": 97875,
      "d": 367.1875,
      "v": 110
    },
    {
      "midi": 55,
      "hit": false,
      "t": 97875,
      "d": 367.1875,
      "v": 110
    },
    {
      "midi": 71,
      "hit": false,
      "t": 98250,
      "d": 367.1875,
      "v": 110
    },
    {
      "midi": 59,
      "hit": false,
      "t": 98250,
      "d": 367.1875,
      "v": 110
    },
    {
      "midi": 67,
      "hit": false,
      "t": 98625,
      "d": 367.1875,
      "v": 110
    },
    {
      "midi": 64,
      "hit": false,
      "t": 98625,
      "d": 367.1875,
      "v": 110
    },
    {
      "midi": 62,
      "hit": false,
      "t": 99000,
      "d": 625,
      "v": 110
    },
    {
      "midi": 69,
      "hit": false,
      "t": 99000,
      "d": 625,
      "v": 110
    },
    {
      "midi": 50,
      "hit": false,
      "t": 99000,
      "d": 625,
      "v": 110
    },
    {
      "midi": 57,
      "hit": false,
      "t": 99000,
      "d": 625,
      "v": 110
    },
    {
      "midi": 59,
      "hit": false,
      "t": 99750,
      "d": 625,
      "v": 110
    },
    {
      "midi": 43,
      "hit": false,
      "t": 99750,
      "d": 625,
      "v": 110
    },
    {
      "midi": 55,
      "hit": false,
      "t": 99750,
      "d": 625,
      "v": 110
    },
    {
      "midi": 57,
      "hit": false,
      "t": 100500,
      "d": 1312.5,
      "v": 110
    },
    {
      "midi": 61,
      "hit": false,
      "t": 100500,
      "d": 1312.5,
      "v": 110
    },
    {
      "midi": 33,
      "hit": false,
      "t": 100500,
      "d": 1312.5,
      "v": 110
    },
    {
      "midi": 45,
      "hit": false,
      "t": 100500,
      "d": 1312.5,
      "v": 110
    },
    {
      "midi": 64,
      "hit": false,
      "t": 102000,
      "d": 367.1875,
      "v": 110
    },
    {
      "midi": 69,
      "hit": false,
      "t": 102000,
      "d": 367.1875,
      "v": 110
    },
    {
      "midi": 72,
      "hit": false,
      "t": 102000,
      "d": 367.1875,
      "v": 110
    },
    {
      "midi": 57,
      "hit": false,
      "t": 102000,
      "d": 1312.5,
      "v": 110
    },
    {
      "midi": 72,
      "hit": false,
      "t": 102375,
      "d": 367.1875,
      "v": 110
    },
    {
      "midi": 76,
      "hit": false,
      "t": 102750,
      "d": 367.1875,
      "v": 110
    },
    {
      "midi": 76,
      "hit": false,
      "t": 103125,
      "d": 367.1875,
      "v": 110
    },
    {
      "midi": 64,
      "hit": false,
      "t": 103500,
      "d": 367.1875,
      "v": 110
    },
    {
      "midi": 67,
      "hit": false,
      "t": 103500,
      "d": 367.1875,
      "v": 110
    },
    {
      "midi": 71,
      "hit": false,
      "t": 103500,
      "d": 367.1875,
      "v": 110
    },
    {
      "midi": 55,
      "hit": false,
      "t": 103500,
      "d": 1312.5,
      "v": 110
    },
    {
      "midi": 71,
      "hit": false,
      "t": 103875,
      "d": 367.1875,
      "v": 110
    },
    {
      "midi": 76,
      "hit": false,
      "t": 104250,
      "d": 367.1875,
      "v": 110
    },
    {
      "midi": 76,
      "hit": false,
      "t": 104625,
      "d": 367.1875,
      "v": 110
    },
    {
      "midi": 60,
      "hit": false,
      "t": 105000,
      "d": 367.1875,
      "v": 110
    },
    {
      "midi": 65,
      "hit": false,
      "t": 105000,
      "d": 367.1875,
      "v": 110
    },
    {
      "midi": 69,
      "hit": false,
      "t": 105000,
      "d": 367.1875,
      "v": 110
    },
    {
      "midi": 53,
      "hit": false,
      "t": 105000,
      "d": 1312.5,
      "v": 110
    },
    {
      "midi": 57,
      "hit": false,
      "t": 105000,
      "d": 1312.5,
      "v": 110
    },
    {
      "midi": 69,
      "hit": false,
      "t": 105375,
      "d": 179.6875,
      "v": 110
    },
    {
      "midi": 67,
      "hit": false,
      "t": 105562.5,
      "d": 367.1875,
      "v": 110
    },
    {
      "midi": 67,
      "hit": false,
      "t": 105937.5,
      "d": 179.6875,
      "v": 110
    },
    {
      "midi": 69,
      "hit": false,
      "t": 106125,
      "d": 179.6875,
      "v": 110
    },
    {
      "midi": 72,
      "hit": false,
      "t": 106312.5,
      "d": 179.6875,
      "v": 110
    },
    {
      "midi": 60,
      "hit": false,
      "t": 106500,
      "d": 1312.5,
      "v": 110
    },
    {
      "midi": 64,
      "hit": false,
      "t": 106500,
      "d": 1312.5,
      "v": 110
    },
    {
      "midi": 69,
      "hit": false,
      "t": 106500,
      "d": 1312.5,
      "v": 110
    },
    {
      "midi": 52,
      "hit": false,
      "t": 106500,
      "d": 367.1875,
      "v": 110
    },
    {
      "midi": 55,
      "hit": false,
      "t": 106875,
      "d": 367.1875,
      "v": 110
    },
    {
      "midi": 53,
      "hit": false,
      "t": 107250,
      "d": 367.1875,
      "v": 110
    },
    {
      "midi": 52,
      "hit": false,
      "t": 107625,
      "d": 367.1875,
      "v": 110
    },
    {
      "midi": 62,
      "hit": false,
      "t": 108000,
      "d": 367.1875,
      "v": 110
    },
    {
      "midi": 65,
      "hit": false,
      "t": 108000,
      "d": 367.1875,
      "v": 110
    },
    {
      "midi": 69,
      "hit": false,
      "t": 108000,
      "d": 367.1875,
      "v": 110
    },
    {
      "midi": 50,
      "hit": false,
      "t": 108000,
      "d": 1312.5,
      "v": 110
    },
    {
      "midi": 57,
      "hit": false,
      "t": 108000,
      "d": 1312.5,
      "v": 110
    },
    {
      "midi": 69,
      "hit": false,
      "t": 108375,
      "d": 367.1875,
      "v": 110
    },
    {
      "midi": 72,
      "hit": false,
      "t": 108750,
      "d": 367.1875,
      "v": 110
    },
    {
      "midi": 72,
      "hit": false,
      "t": 109125,
      "d": 367.1875,
      "v": 110
    },
    {
      "midi": 57,
      "hit": false,
      "t": 109500,
      "d": 367.1875,
      "v": 110
    },
    {
      "midi": 60,
      "hit": false,
      "t": 109500,
      "d": 367.1875,
      "v": 110
    },
    {
      "midi": 65,
      "hit": false,
      "t": 109500,
      "d": 367.1875,
      "v": 110
    },
    {
      "midi": 48,
      "hit": false,
      "t": 109500,
      "d": 1312.5,
      "v": 110
    },
    {
      "midi": 53,
      "hit": false,
      "t": 109500,
      "d": 1312.5,
      "v": 110
    },
    {
      "midi": 65,
      "hit": false,
      "t": 109875,
      "d": 367.1875,
      "v": 110
    },
    {
      "midi": 67,
      "hit": false,
      "t": 110250,
      "d": 367.1875,
      "v": 110
    },
    {
      "midi": 67,
      "hit": false,
      "t": 110625,
      "d": 367.1875,
      "v": 110
    },
    {
      "midi": 55,
      "hit": false,
      "t": 111000,
      "d": 367.1875,
      "v": 110
    },
    {
      "midi": 60,
      "hit": false,
      "t": 111000,
      "d": 367.1875,
      "v": 110
    },
    {
      "midi": 64,
      "hit": false,
      "t": 111000,
      "d": 367.1875,
      "v": 110
    },
    {
      "midi": 36,
      "hit": false,
      "t": 111000,
      "d": 1312.5,
      "v": 110
    },
    {
      "midi": 48,
      "hit": false,
      "t": 111000,
      "d": 1312.5,
      "v": 110
    },
    {
      "midi": 62,
      "hit": false,
      "t": 111375,
      "d": 367.1875,
      "v": 110
    },
    {
      "midi": 64,
      "hit": false,
      "t": 111750,
      "d": 625,
      "v": 110
    },
    {
      "midi": 59,
      "hit": false,
      "t": 112500,
      "d": 367.1875,
      "v": 110
    },
    {
      "midi": 64,
      "hit": false,
      "t": 112500,
      "d": 367.1875,
      "v": 110
    },
    {
      "midi": 40,
      "hit": false,
      "t": 112500,
      "d": 1312.5,
      "v": 110
    },
    {
      "midi": 52,
      "hit": false,
      "t": 112500,
      "d": 1312.5,
      "v": 110
    },
    {
      "midi": 66,
      "hit": false,
      "t": 112875,
      "d": 367.1875,
      "v": 110
    },
    {
      "midi": 67,
      "hit": false,
      "t": 113250,
      "d": 367.1875,
      "v": 110
    },
    {
      "midi": 74,
      "hit": false,
      "t": 113625,
      "d": 367.1875,
      "v": 110
    },
    {
      "midi": 64,
      "hit": false,
      "t": 114000,
      "d": 367.1875,
      "v": 110
    },
    {
      "midi": 69,
      "hit": false,
      "t": 114000,
      "d": 367.1875,
      "v": 110
    },
    {
      "midi": 72,
      "hit": false,
      "t": 114000,
      "d": 367.1875,
      "v": 110
    },
    {
      "midi": 57,
      "hit": false,
      "t": 114000,
      "d": 1312.5,
      "v": 110
    },
    {
      "midi": 72,
      "hit": false,
      "t": 114375,
      "d": 367.1875,
      "v": 110
    },
    {
      "midi": 76,
      "hit": false,
      "t": 114750,
      "d": 367.1875,
      "v": 110
    },
    {
      "midi": 76,
      "hit": false,
      "t": 115125,
      "d": 367.1875,
      "v": 110
    },
    {
      "midi": 64,
      "hit": false,
      "t": 115500,
      "d": 367.1875,
      "v": 110
    },
    {
      "midi": 67,
      "hit": false,
      "t": 115500,
      "d": 367.1875,
      "v": 110
    },
    {
      "midi": 71,
      "hit": false,
      "t": 115500,
      "d": 367.1875,
      "v": 110
    },
    {
      "midi": 55,
      "hit": false,
      "t": 115500,
      "d": 1312.5,
      "v": 110
    },
    {
      "midi": 71,
      "hit": false,
      "t": 115875,
      "d": 367.1875,
      "v": 110
    },
    {
      "midi": 76,
      "hit": false,
      "t": 116250,
      "d": 367.1875,
      "v": 110
    },
    {
      "midi": 76,
      "hit": false,
      "t": 116625,
      "d": 367.1875,
      "v": 110
    },
    {
      "midi": 60,
      "hit": false,
      "t": 117000,
      "d": 367.1875,
      "v": 110
    },
    {
      "midi": 65,
      "hit": false,
      "t": 117000,
      "d": 367.1875,
      "v": 110
    },
    {
      "midi": 69,
      "hit": false,
      "t": 117000,
      "d": 367.1875,
      "v": 110
    },
    {
      "midi": 53,
      "hit": false,
      "t": 117000,
      "d": 1312.5,
      "v": 110
    },
    {
      "midi": 57,
      "hit": false,
      "t": 117000,
      "d": 1312.5,
      "v": 110
    },
    {
      "midi": 69,
      "hit": false,
      "t": 117375,
      "d": 179.6875,
      "v": 110
    },
    {
      "midi": 67,
      "hit": false,
      "t": 117562.5,
      "d": 367.1875,
      "v": 110
    },
    {
      "midi": 67,
      "hit": false,
      "t": 117937.5,
      "d": 179.6875,
      "v": 110
    },
    {
      "midi": 69,
      "hit": false,
      "t": 118125,
      "d": 179.6875,
      "v": 110
    },
    {
      "midi": 72,
      "hit": false,
      "t": 118312.5,
      "d": 179.6875,
      "v": 110
    },
    {
      "midi": 60,
      "hit": false,
      "t": 118500,
      "d": 1000,
      "v": 110
    },
    {
      "midi": 64,
      "hit": false,
      "t": 118500,
      "d": 1000,
      "v": 110
    },
    {
      "midi": 69,
      "hit": false,
      "t": 118500,
      "d": 1000,
      "v": 110
    },
    {
      "midi": 52,
      "hit": false,
      "t": 118500,
      "d": 367.1875,
      "v": 110
    },
    {
      "midi": 55,
      "hit": false,
      "t": 118875,
      "d": 367.1875,
      "v": 110
    },
    {
      "midi": 53,
      "hit": false,
      "t": 119250,
      "d": 367.1875,
      "v": 110
    },
    {
      "midi": 67,
      "hit": false,
      "t": 119625,
      "d": 367.1875,
      "v": 110
    },
    {
      "midi": 52,
      "hit": false,
      "t": 119625,
      "d": 367.1875,
      "v": 110
    },
    {
      "midi": 62,
      "hit": false,
      "t": 120000,
      "d": 367.1875,
      "v": 110
    },
    {
      "midi": 65,
      "hit": false,
      "t": 120000,
      "d": 367.1875,
      "v": 110
    },
    {
      "midi": 50,
      "hit": false,
      "t": 120000,
      "d": 1312.5,
      "v": 110
    },
    {
      "midi": 57,
      "hit": false,
      "t": 120000,
      "d": 1312.5,
      "v": 110
    },
    {
      "midi": 65,
      "hit": false,
      "t": 120375,
      "d": 367.1875,
      "v": 110
    },
    {
      "midi": 67,
      "hit": false,
      "t": 120750,
      "d": 367.1875,
      "v": 110
    },
    {
      "midi": 67,
      "hit": false,
      "t": 121125,
      "d": 367.1875,
      "v": 110
    },
    {
      "midi": 64,
      "hit": false,
      "t": 121500,
      "d": 367.1875,
      "v": 110
    },
    {
      "midi": 69,
      "hit": false,
      "t": 121500,
      "d": 367.1875,
      "v": 110
    },
    {
      "midi": 52,
      "hit": false,
      "t": 121500,
      "d": 367.1875,
      "v": 110
    },
    {
      "midi": 55,
      "hit": false,
      "t": 121500,
      "d": 367.1875,
      "v": 110
    },
    {
      "midi": 59,
      "hit": false,
      "t": 121500,
      "d": 367.1875,
      "v": 110
    },
    {
      "midi": 74,
      "hit": false,
      "t": 121875,
      "d": 367.1875,
      "v": 110
    },
    {
      "midi": 55,
      "hit": false,
      "t": 121875,
      "d": 367.1875,
      "v": 110
    },
    {
      "midi": 71,
      "hit": false,
      "t": 122250,
      "d": 367.1875,
      "v": 110
    },
    {
      "midi": 59,
      "hit": false,
      "t": 122250,
      "d": 367.1875,
      "v": 110
    },
    {
      "midi": 67,
      "hit": false,
      "t": 122625,
      "d": 367.1875,
      "v": 110
    },
    {
      "midi": 64,
      "hit": false,
      "t": 122625,
      "d": 367.1875,
      "v": 110
    },
    {
      "midi": 62,
      "hit": false,
      "t": 123000,
      "d": 625,
      "v": 110
    },
    {
      "midi": 69,
      "hit": false,
      "t": 123000,
      "d": 625,
      "v": 110
    },
    {
      "midi": 50,
      "hit": false,
      "t": 123000,
      "d": 625,
      "v": 110
    },
    {
      "midi": 57,
      "hit": false,
      "t": 123000,
      "d": 625,
      "v": 110
    },
    {
      "midi": 59,
      "hit": false,
      "t": 123750,
      "d": 625,
      "v": 110
    },
    {
      "midi": 43,
      "hit": false,
      "t": 123750,
      "d": 625,
      "v": 110
    },
    {
      "midi": 55,
      "hit": false,
      "t": 123750,
      "d": 625,
      "v": 110
    },
    {
      "midi": 57,
      "hit": false,
      "t": 124500,
      "d": 1312.5,
      "v": 110
    },
    {
      "midi": 61,
      "hit": false,
      "t": 124500,
      "d": 1312.5,
      "v": 110
    },
    {
      "midi": 33,
      "hit": false,
      "t": 124500,
      "d": 1312.5,
      "v": 110
    },
    {
      "midi": 45,
      "hit": false,
      "t": 124500,
      "d": 1312.5,
      "v": 110
    },
    {
      "midi": 60,
      "hit": false,
      "t": 126000,
      "d": 367.1875,
      "v": 110
    },
    {
      "midi": 65,
      "hit": false,
      "t": 126000,
      "d": 367.1875,
      "v": 110
    },
    {
      "midi": 69,
      "hit": false,
      "t": 126000,
      "d": 367.1875,
      "v": 110
    },
    {
      "midi": 41,
      "hit": false,
      "t": 126000,
      "d": 1312.5,
      "v": 110
    },
    {
      "midi": 53,
      "hit": false,
      "t": 126000,
      "d": 1312.5,
      "v": 110
    },
    {
      "midi": 67,
      "hit": false,
      "t": 126375,
      "d": 367.1875,
      "v": 110
    },
    {
      "midi": 69,
      "hit": false,
      "t": 126750,
      "d": 367.1875,
      "v": 110
    },
    {
      "midi": 72,
      "hit": false,
      "t": 127125,
      "d": 367.1875,
      "v": 110
    },
    {
      "midi": 71,
      "hit": false,
      "t": 127500,
      "d": 367.1875,
      "v": 110
    },
    {
      "midi": 41,
      "hit": false,
      "t": 127500,
      "d": 1312.5,
      "v": 110
    },
    {
      "midi": 53,
      "hit": false,
      "t": 127500,
      "d": 1312.5,
      "v": 110
    },
    {
      "midi": 69,
      "hit": false,
      "t": 127875,
      "d": 367.1875,
      "v": 110
    },
    {
      "midi": 64,
      "hit": false,
      "t": 128250,
      "d": 625,
      "v": 110
    },
    {
      "midi": 60,
      "hit": false,
      "t": 129000,
      "d": 367.1875,
      "v": 110
    },
    {
      "midi": 65,
      "hit": false,
      "t": 129000,
      "d": 367.1875,
      "v": 110
    },
    {
      "midi": 69,
      "hit": false,
      "t": 129000,
      "d": 367.1875,
      "v": 110
    },
    {
      "midi": 41,
      "hit": false,
      "t": 129000,
      "d": 1312.5,
      "v": 110
    },
    {
      "midi": 53,
      "hit": false,
      "t": 129000,
      "d": 1312.5,
      "v": 110
    },
    {
      "midi": 65,
      "hit": false,
      "t": 129375,
      "d": 367.1875,
      "v": 110
    },
    {
      "midi": 74,
      "hit": false,
      "t": 129750,
      "d": 367.1875,
      "v": 110
    },
    {
      "midi": 71,
      "hit": false,
      "t": 130125,
      "d": 367.1875,
      "v": 110
    },
    {
      "midi": 69,
      "hit": false,
      "t": 130500,
      "d": 367.1875,
      "v": 110
    },
    {
      "midi": 41,
      "hit": false,
      "t": 130500,
      "d": 1312.5,
      "v": 110
    },
    {
      "midi": 53,
      "hit": false,
      "t": 130500,
      "d": 1312.5,
      "v": 110
    },
    {
      "midi": 60,
      "hit": false,
      "t": 130875,
      "d": 367.1875,
      "v": 110
    },
    {
      "midi": 67,
      "hit": false,
      "t": 131250,
      "d": 367.1875,
      "v": 110
    },
    {
      "midi": 65,
      "hit": false,
      "t": 131625,
      "d": 367.1875,
      "v": 110
    },
    {
      "midi": 55,
      "hit": false,
      "t": 132000,
      "d": 625,
      "v": 110
    },
    {
      "midi": 59,
      "hit": false,
      "t": 132000,
      "d": 625,
      "v": 110
    },
    {
      "midi": 64,
      "hit": false,
      "t": 132000,
      "d": 625,
      "v": 110
    },
    {
      "midi": 40,
      "hit": false,
      "t": 132000,
      "d": 1312.5,
      "v": 110
    },
    {
      "midi": 52,
      "hit": false,
      "t": 132000,
      "d": 1312.5,
      "v": 110
    },
    {
      "midi": 55,
      "hit": false,
      "t": 132750,
      "d": 367.1875,
      "v": 110
    },
    {
      "midi": 57,
      "hit": false,
      "t": 133125,
      "d": 367.1875,
      "v": 110
    },
    {
      "midi": 62,
      "hit": false,
      "t": 133125,
      "d": 367.1875,
      "v": 110
    },
    {
      "midi": 55,
      "hit": false,
      "t": 133500,
      "d": 1312.5,
      "v": 110
    },
    {
      "midi": 64,
      "hit": false,
      "t": 133500,
      "d": 1312.5,
      "v": 110
    },
    {
      "midi": 40,
      "hit": false,
      "t": 133500,
      "d": 625,
      "v": 110
    },
    {
      "midi": 52,
      "hit": false,
      "t": 133500,
      "d": 625,
      "v": 110
    },
    {
      "midi": 47,
      "hit": false,
      "t": 134250,
      "d": 625,
      "v": 110
    },
    {
      "midi": 40,
      "hit": false,
      "t": 135000,
      "d": 1312.5,
      "v": 110
    },
    {
      "midi": 52,
      "hit": false,
      "t": 135000,
      "d": 1312.5,
      "v": 110
    },
    {
      "midi": 66,
      "hit": false,
      "t": 135375,
      "d": 367.1875,
      "v": 110
    },
    {
      "midi": 62,
      "hit": false,
      "t": 135750,
      "d": 367.1875,
      "v": 110
    },
    {
      "midi": 67,
      "hit": false,
      "t": 135750,
      "d": 367.1875,
      "v": 110
    },
    {
      "midi": 66,
      "hit": false,
      "t": 136125,
      "d": 367.1875,
      "v": 110
    },
    {
      "midi": 59,
      "hit": false,
      "t": 136500,
      "d": 367.1875,
      "v": 110
    },
    {
      "midi": 64,
      "hit": false,
      "t": 136500,
      "d": 367.1875,
      "v": 110
    },
    {
      "midi": 67,
      "hit": false,
      "t": 136500,
      "d": 367.1875,
      "v": 110
    },
    {
      "midi": 40,
      "hit": false,
      "t": 136500,
      "d": 1312.5,
      "v": 110
    },
    {
      "midi": 52,
      "hit": false,
      "t": 136500,
      "d": 1312.5,
      "v": 110
    },
    {
      "midi": 66,
      "hit": false,
      "t": 136875,
      "d": 367.1875,
      "v": 110
    },
    {
      "midi": 64,
      "hit": false,
      "t": 137250,
      "d": 367.1875,
      "v": 110
    },
    {
      "midi": 62,
      "hit": false,
      "t": 137625,
      "d": 367.1875,
      "v": 110
    },
    {
      "midi": 60,
      "hit": false,
      "t": 138000,
      "d": 367.1875,
      "v": 110
    },
    {
      "midi": 65,
      "hit": false,
      "t": 138000,
      "d": 367.1875,
      "v": 110
    },
    {
      "midi": 69,
      "hit": false,
      "t": 138000,
      "d": 367.1875,
      "v": 110
    },
    {
      "midi": 41,
      "hit": false,
      "t": 138000,
      "d": 1312.5,
      "v": 110
    },
    {
      "midi": 53,
      "hit": false,
      "t": 138000,
      "d": 1312.5,
      "v": 110
    },
    {
      "midi": 67,
      "hit": false,
      "t": 138375,
      "d": 367.1875,
      "v": 110
    },
    {
      "midi": 69,
      "hit": false,
      "t": 138750,
      "d": 367.1875,
      "v": 110
    },
    {
      "midi": 72,
      "hit": false,
      "t": 139125,
      "d": 367.1875,
      "v": 110
    },
    {
      "midi": 71,
      "hit": false,
      "t": 139500,
      "d": 367.1875,
      "v": 110
    },
    {
      "midi": 41,
      "hit": false,
      "t": 139500,
      "d": 625,
      "v": 110
    },
    {
      "midi": 53,
      "hit": false,
      "t": 139500,
      "d": 625,
      "v": 110
    },
    {
      "midi": 69,
      "hit": false,
      "t": 139875,
      "d": 367.1875,
      "v": 110
    },
    {
      "midi": 64,
      "hit": false,
      "t": 140250,
      "d": 625,
      "v": 110
    },
    {
      "midi": 41,
      "hit": false,
      "t": 140250,
      "d": 367.1875,
      "v": 110
    },
    {
      "midi": 53,
      "hit": false,
      "t": 140250,
      "d": 367.1875,
      "v": 110
    },
    {
      "midi": 40,
      "hit": false,
      "t": 140625,
      "d": 367.1875,
      "v": 110
    },
    {
      "midi": 52,
      "hit": false,
      "t": 140625,
      "d": 367.1875,
      "v": 110
    },
    {
      "midi": 62,
      "hit": false,
      "t": 141000,
      "d": 367.1875,
      "v": 110
    },
    {
      "midi": 69,
      "hit": false,
      "t": 141000,
      "d": 367.1875,
      "v": 110
    },
    {
      "midi": 38,
      "hit": false,
      "t": 141000,
      "d": 1312.5,
      "v": 110
    },
    {
      "midi": 50,
      "hit": false,
      "t": 141000,
      "d": 1312.5,
      "v": 110
    },
    {
      "midi": 65,
      "hit": false,
      "t": 141375,
      "d": 367.1875,
      "v": 110
    },
    {
      "midi": 74,
      "hit": false,
      "t": 141750,
      "d": 367.1875,
      "v": 110
    },
    {
      "midi": 71,
      "hit": false,
      "t": 142125,
      "d": 367.1875,
      "v": 110
    },
    {
      "midi": 69,
      "hit": false,
      "t": 142500,
      "d": 367.1875,
      "v": 110
    },
    {
      "midi": 38,
      "hit": false,
      "t": 142500,
      "d": 1312.5,
      "v": 110
    },
    {
      "midi": 50,
      "hit": false,
      "t": 142500,
      "d": 1312.5,
      "v": 110
    },
    {
      "midi": 62,
      "hit": false,
      "t": 142875,
      "d": 367.1875,
      "v": 110
    },
    {
      "midi": 69,
      "hit": false,
      "t": 143250,
      "d": 367.1875,
      "v": 110
    },
    {
      "midi": 72,
      "hit": false,
      "t": 143250,
      "d": 367.1875,
      "v": 110
    },
    {
      "midi": 71,
      "hit": false,
      "t": 143625,
      "d": 367.1875,
      "v": 110
    },
    {
      "midi": 74,
      "hit": false,
      "t": 143625,
      "d": 367.1875,
      "v": 110
    },
    {
      "midi": 67,
      "hit": false,
      "t": 144000,
      "d": 1000,
      "v": 110
    },
    {
      "midi": 72,
      "hit": false,
      "t": 144000,
      "d": 1000,
      "v": 110
    },
    {
      "midi": 76,
      "hit": false,
      "t": 144000,
      "d": 1000,
      "v": 110
    },
    {
      "midi": 36,
      "hit": false,
      "t": 144000,
      "d": 1312.5,
      "v": 110
    },
    {
      "midi": 48,
      "hit": false,
      "t": 144000,
      "d": 1312.5,
      "v": 110
    },
    {
      "midi": 74,
      "hit": false,
      "t": 145125,
      "d": 367.1875,
      "v": 110
    },
    {
      "midi": 67,
      "hit": false,
      "t": 145500,
      "d": 625,
      "v": 110
    },
    {
      "midi": 72,
      "hit": false,
      "t": 145500,
      "d": 625,
      "v": 110
    },
    {
      "midi": 76,
      "hit": false,
      "t": 145500,
      "d": 625,
      "v": 110
    },
    {
      "midi": 36,
      "hit": false,
      "t": 145500,
      "d": 1312.5,
      "v": 110
    },
    {
      "midi": 48,
      "hit": false,
      "t": 145500,
      "d": 1312.5,
      "v": 110
    },
    {
      "midi": 71,
      "hit": false,
      "t": 146250,
      "d": 367.1875,
      "v": 110
    },
    {
      "midi": 69,
      "hit": false,
      "t": 146625,
      "d": 367.1875,
      "v": 110
    },
    {
      "midi": 67,
      "hit": false,
      "t": 147000,
      "d": 1000,
      "v": 110
    },
    {
      "midi": 71,
      "hit": false,
      "t": 147000,
      "d": 1000,
      "v": 110
    },
    {
      "midi": 74,
      "hit": false,
      "t": 147000,
      "d": 1000,
      "v": 110
    },
    {
      "midi": 31,
      "hit": false,
      "t": 147000,
      "d": 2062.5,
      "v": 110
    },
    {
      "midi": 43,
      "hit": false,
      "t": 147000,
      "d": 2062.5,
      "v": 110
    },
    {
      "midi": 62,
      "hit": false,
      "t": 148125,
      "d": 367.1875,
      "v": 110
    },
    {
      "midi": 67,
      "hit": false,
      "t": 148125,
      "d": 367.1875,
      "v": 110
    },
    {
      "midi": 67,
      "hit": false,
      "t": 148500,
      "d": 625,
      "v": 110
    },
    {
      "midi": 71,
      "hit": false,
      "t": 148500,
      "d": 625,
      "v": 110
    },
    {
      "midi": 74,
      "hit": false,
      "t": 148500,
      "d": 625,
      "v": 110
    },
    {
      "midi": 69,
      "hit": false,
      "t": 149250,
      "d": 367.1875,
      "v": 110
    },
    {
      "midi": 72,
      "hit": false,
      "t": 149250,
      "d": 367.1875,
      "v": 110
    },
    {
      "midi": 31,
      "hit": false,
      "t": 149250,
      "d": 625,
      "v": 110
    },
    {
      "midi": 43,
      "hit": false,
      "t": 149250,
      "d": 625,
      "v": 110
    },
    {
      "midi": 67,
      "hit": false,
      "t": 149625,
      "d": 367.1875,
      "v": 110
    },
    {
      "midi": 71,
      "hit": false,
      "t": 149625,
      "d": 367.1875,
      "v": 110
    },
    {
      "midi": 61,
      "hit": false,
      "t": 150000,
      "d": 625,
      "v": 110
    },
    {
      "midi": 64,
      "hit": false,
      "t": 150000,
      "d": 625,
      "v": 110
    },
    {
      "midi": 69,
      "hit": false,
      "t": 150000,
      "d": 625,
      "v": 110
    },
    {
      "midi": 33,
      "hit": false,
      "t": 150000,
      "d": 2812.5,
      "v": 110
    },
    {
      "midi": 45,
      "hit": false,
      "t": 150000,
      "d": 2812.5,
      "v": 110
    },
    {
      "midi": 59,
      "hit": false,
      "t": 150750,
      "d": 625,
      "v": 110
    },
    {
      "midi": 64,
      "hit": false,
      "t": 150750,
      "d": 625,
      "v": 110
    },
    {
      "midi": 62,
      "hit": false,
      "t": 151500,
      "d": 625,
      "v": 110
    },
    {
      "midi": 64,
      "hit": false,
      "t": 151500,
      "d": 625,
      "v": 110
    },
    {
      "midi": 59,
      "hit": false,
      "t": 152250,
      "d": 625,
      "v": 110
    },
    {
      "midi": 64,
      "hit": false,
      "t": 152250,
      "d": 625,
      "v": 110
    },
    {
      "midi": 61,
      "hit": false,
      "t": 153000,
      "d": 1000,
      "v": 110
    },
    {
      "midi": 64,
      "hit": false,
      "t": 153000,
      "d": 1000,
      "v": 110
    },
    {
      "midi": 33,
      "hit": false,
      "t": 153000,
      "d": 2812.5,
      "v": 110
    },
    {
      "midi": 45,
      "hit": false,
      "t": 153000,
      "d": 2812.5,
      "v": 110
    },
    {
      "midi": 67,
      "hit": false,
      "t": 154125,
      "d": 367.1875,
      "v": 110
    },
    {
      "midi": 57,
      "hit": false,
      "t": 154500,
      "d": 1312.5,
      "v": 110
    },
    {
      "midi": 61,
      "hit": false,
      "t": 154500,
      "d": 1312.5,
      "v": 110
    },
    {
      "midi": 64,
      "hit": false,
      "t": 154500,
      "d": 1312.5,
      "v": 110
    },
    {
      "midi": 69,
      "hit": false,
      "t": 154500,
      "d": 1312.5,
      "v": 110
    }
  ]
}