{
  "jsonPath": "Soundtracks/Video Game Music/Secret of Mana/secret-of-mana-tellastrangetale.json",
  "path": "Soundtracks\\Video Game Music\\Secret of Mana\\Secret_of_Mana_TellAStrangeTale.mid",
  "name": "Secret_of_Mana_TellAStrangeTale",
  "difficulty": "Advanced",
  "bpm": 140.00014000014,
  "notes": [
    {
      "midi": 57,
      "hit": false,
      "t": 0,
      "d": 209.82121875,
      "v": 110
    },
    {
      "midi": 62,
      "hit": false,
      "t": 0,
      "d": 209.82121875,
      "v": 110
    },
    {
      "midi": 38,
      "hit": false,
      "t": 0,
      "d": 571.428,
      "v": 110
    },
    {
      "midi": 50,
      "hit": false,
      "t": 0,
      "d": 571.428,
      "v": 110
    },
    {
      "midi": 57,
      "hit": false,
      "t": 214.2855,
      "d": 209.82121875,
      "v": 110
    },
    {
      "midi": 64,
      "hit": false,
      "t": 428.571,
      "d": 209.82121874999996,
      "v": 110
    },
    {
      "midi": 62,
      "hit": false,
      "t": 642.8565,
      "d": 209.82121874999996,
      "v": 110
    },
    {
      "midi": 66,
      "hit": false,
      "t": 642.8565,
      "d": 209.82121874999996,
      "v": 110
    },
    {
      "midi": 45,
      "hit": false,
      "t": 642.8565,
      "d": 571.428,
      "v": 110
    },
    {
      "midi": 57,
      "hit": false,
      "t": 857.1419999999999,
      "d": 209.82121874999996,
      "v": 110
    },
    {
      "midi": 66,
      "hit": false,
      "t": 1071.4275,
      "d": 209.82121875000007,
      "v": 110
    },
    {
      "midi": 50,
      "hit": false,
      "t": 1285.713,
      "d": 357.14250000000015,
      "v": 110
    },
    {
      "midi": 57,
      "hit": false,
      "t": 1285.7130000000002,
      "d": 209.82121875000007,
      "v": 110
    },
    {
      "midi": 62,
      "hit": false,
      "t": 1285.7130000000002,
      "d": 209.82121875000007,
      "v": 110
    },
    {
      "midi": 57,
      "hit": false,
      "t": 1499.9985000000004,
      "d": 209.82121875000007,
      "v": 110
    },
    {
      "midi": 48,
      "hit": false,
      "t": 1714.284,
      "d": 571.4279999999999,
      "v": 110
    },
    {
      "midi": 60,
      "hit": false,
      "t": 1714.2840000000006,
      "d": 209.82121875000007,
      "v": 110
    },
    {
      "midi": 64,
      "hit": false,
      "t": 1714.2840000000006,
      "d": 209.82121875000007,
      "v": 110
    },
    {
      "midi": 66,
      "hit": false,
      "t": 1928.5695000000007,
      "d": 209.82121875000007,
      "v": 110
    },
    {
      "midi": 64,
      "hit": false,
      "t": 2142.855000000001,
      "d": 209.82121874999984,
      "v": 110
    },
    {
      "midi": 67,
      "hit": false,
      "t": 2142.855000000001,
      "d": 209.82121874999984,
      "v": 110
    },
    {
      "midi": 43,
      "hit": false,
      "t": 2357.1405,
      "d": 571.4279999999999,
      "v": 110
    },
    {
      "midi": 64,
      "hit": false,
      "t": 2357.140500000001,
      "d": 209.82121874999984,
      "v": 110
    },
    {
      "midi": 67,
      "hit": false,
      "t": 2357.140500000001,
      "d": 209.82121874999984,
      "v": 110
    },
    {
      "midi": 60,
      "hit": false,
      "t": 2571.426000000001,
      "d": 209.82121874999984,
      "v": 110
    },
    {
      "midi": 62,
      "hit": false,
      "t": 2785.711500000001,
      "d": 209.82121874999984,
      "v": 110
    },
    {
      "midi": 66,
      "hit": false,
      "t": 2785.711500000001,
      "d": 209.82121874999984,
      "v": 110
    },
    {
      "midi": 48,
      "hit": false,
      "t": 2999.997,
      "d": 357.1424999999999,
      "v": 110
    },
    {
      "midi": 60,
      "hit": false,
      "t": 2999.9970000000008,
      "d": 209.82121874999984,
      "v": 110
    },
    {
      "midi": 64,
      "hit": false,
      "t": 2999.9970000000008,
      "d": 209.82121874999984,
      "v": 110
    },
    {
      "midi": 60,
      "hit": false,
      "t": 3214.2825000000007,
      "d": 209.82121874999984,
      "v": 110
    },
    {
      "midi": 46,
      "hit": false,
      "t": 3428.5679999999998,
      "d": 571.4279999999999,
      "v": 110
    },
    {
      "midi": 58,
      "hit": false,
      "t": 3428.5680000000007,
      "d": 209.82121874999984,
      "v": 110
    },
    {
      "midi": 62,
      "hit": false,
      "t": 3428.5680000000007,
      "d": 209.82121874999984,
      "v": 110
    },
    {
      "midi": 64,
      "hit": false,
      "t": 3642.8535000000006,
      "d": 209.82121874999984,
      "v": 110
    },
    {
      "midi": 62,
      "hit": false,
      "t": 3857.1390000000006,
      "d": 209.82121874999984,
      "v": 110
    },
    {
      "midi": 45,
      "hit": false,
      "t": 4071.4244999999996,
      "d": 571.4280000000003,
      "v": 110
    },
    {
      "midi": 57,
      "hit": false,
      "t": 4071.4245000000005,
      "d": 209.82121874999984,
      "v": 110
    },
    {
      "midi": 60,
      "hit": false,
      "t": 4071.4245000000005,
      "d": 209.82121874999984,
      "v": 110
    },
    {
      "midi": 57,
      "hit": false,
      "t": 4285.71,
      "d": 209.8212187500003,
      "v": 110
    },
    {
      "midi": 65,
      "hit": false,
      "t": 4499.9955,
      "d": 209.8212187500003,
      "v": 110
    },
    {
      "midi": 60,
      "hit": false,
      "t": 4714.281,
      "d": 209.8212187500003,
      "v": 110
    },
    {
      "midi": 64,
      "hit": false,
      "t": 4714.281,
      "d": 209.8212187500003,
      "v": 110
    },
    {
      "midi": 45,
      "hit": false,
      "t": 4714.281,
      "d": 357.1424999999999,
      "v": 110
    },
    {
      "midi": 57,
      "hit": false,
      "t": 4928.5665,
      "d": 209.8212187500003,
      "v": 110
    },
    {
      "midi": 60,
      "hit": false,
      "t": 5142.852,
      "d": 209.8212187500003,
      "v": 110
    },
    {
      "midi": 38,
      "hit": false,
      "t": 5142.852,
      "d": 571.4279999999999,
      "v": 110
    },
    {
      "midi": 62,
      "hit": false,
      "t": 5357.1375,
      "d": 209.8212187500003,
      "v": 110
    },
    {
      "midi": 57,
      "hit": false,
      "t": 5571.423,
      "d": 209.8212187500003,
      "v": 110
    },
    {
      "midi": 62,
      "hit": false,
      "t": 5785.7085,
      "d": 209.8212187500003,
      "v": 110
    },
    {
      "midi": 67,
      "hit": false,
      "t": 5785.7085,
      "d": 209.8212187500003,
      "v": 110
    },
    {
      "midi": 38,
      "hit": false,
      "t": 5785.7085,
      "d": 571.4279999999999,
      "v": 110
    },
    {
      "midi": 66,
      "hit": false,
      "t": 5999.994,
      "d": 209.8212187500003,
      "v": 110
    },
    {
      "midi": 62,
      "hit": false,
      "t": 6214.2795,
      "d": 209.8212187500003,
      "v": 110
    },
    {
      "midi": 57,
      "hit": false,
      "t": 6428.565,
      "d": 209.8212187500003,
      "v": 110
    },
    {
      "midi": 45,
      "hit": false,
      "t": 6428.565,
      "d": 357.1424999999999,
      "v": 110
    },
    {
      "midi": 54,
      "hit": false,
      "t": 6642.8505,
      "d": 209.8212187500003,
      "v": 110
    },
    {
      "midi": 57,
      "hit": false,
      "t": 6857.1359999999995,
      "d": 209.8212187500003,
      "v": 110
    },
    {
      "midi": 62,
      "hit": false,
      "t": 6857.1359999999995,
      "d": 209.8212187500003,
      "v": 110
    },
    {
      "midi": 50,
      "hit": false,
      "t": 6857.1359999999995,
      "d": 571.4279999999999,
      "v": 110
    },
    {
      "midi": 57,
      "hit": false,
      "t": 7071.4214999999995,
      "d": 209.8212187500003,
      "v": 110
    },
    {
      "midi": 64,
      "hit": false,
      "t": 7285.706999999999,
      "d": 209.8212187500003,
      "v": 110
    },
    {
      "midi": 62,
      "hit": false,
      "t": 7499.992499999999,
      "d": 209.8212187500003,
      "v": 110
    },
    {
      "midi": 66,
      "hit": false,
      "t": 7499.992499999999,
      "d": 209.8212187500003,
      "v": 110
    },
    {
      "midi": 45,
      "hit": false,
      "t": 7499.992499999999,
      "d": 571.4279999999999,
      "v": 110
    },
    {
      "midi": 57,
      "hit": false,
      "t": 7714.277999999999,
      "d": 209.8212187500003,
      "v": 110
    },
    {
      "midi": 66,
      "hit": false,
      "t": 7928.563499999999,
      "d": 209.8212187500003,
      "v": 110
    },
    {
      "midi": 57,
      "hit": false,
      "t": 8142.848999999999,
      "d": 209.8212187500003,
      "v": 110
    },
    {
      "midi": 62,
      "hit": false,
      "t": 8142.848999999999,
      "d": 209.8212187500003,
      "v": 110
    },
    {
      "midi": 50,
      "hit": false,
      "t": 8142.848999999999,
      "d": 357.14250000000084,
      "v": 110
    },
    {
      "midi": 57,
      "hit": false,
      "t": 8357.1345,
      "d": 209.8212187499994,
      "v": 110
    },
    {
      "midi": 60,
      "hit": false,
      "t": 8571.42,
      "d": 209.8212187499994,
      "v": 110
    },
    {
      "midi": 64,
      "hit": false,
      "t": 8571.42,
      "d": 209.8212187499994,
      "v": 110
    },
    {
      "midi": 48,
      "hit": false,
      "t": 8571.42,
      "d": 571.4279999999999,
      "v": 110
    },
    {
      "midi": 66,
      "hit": false,
      "t": 8785.7055,
      "d": 209.8212187499994,
      "v": 110
    },
    {
      "midi": 64,
      "hit": false,
      "t": 8999.991,
      "d": 209.8212187499994,
      "v": 110
    },
    {
      "midi": 67,
      "hit": false,
      "t": 8999.991,
      "d": 209.8212187499994,
      "v": 110
    },
    {
      "midi": 64,
      "hit": false,
      "t": 9214.2765,
      "d": 209.8212187499994,
      "v": 110
    },
    {
      "midi": 67,
      "hit": false,
      "t": 9214.2765,
      "d": 209.8212187499994,
      "v": 110
    },
    {
      "midi": 43,
      "hit": false,
      "t": 9214.2765,
      "d": 571.4279999999999,
      "v": 110
    },
    {
      "midi": 60,
      "hit": false,
      "t": 9428.562,
      "d": 209.8212187499994,
      "v": 110
    },
    {
      "midi": 62,
      "hit": false,
      "t": 9642.8475,
      "d": 209.8212187499994,
      "v": 110
    },
    {
      "midi": 66,
      "hit": false,
      "t": 9642.8475,
      "d": 209.8212187499994,
      "v": 110
    },
    {
      "midi": 60,
      "hit": false,
      "t": 9857.133,
      "d": 209.8212187499994,
      "v": 110
    },
    {
      "midi": 64,
      "hit": false,
      "t": 9857.133,
      "d": 209.8212187499994,
      "v": 110
    },
    {
      "midi": 48,
      "hit": false,
      "t": 9857.133,
      "d": 357.1424999999999,
      "v": 110
    },
    {
      "midi": 60,
      "hit": false,
      "t": 10071.4185,
      "d": 209.8212187499994,
      "v": 110
    },
    {
      "midi": 58,
      "hit": false,
      "t": 10285.704,
      "d": 209.8212187499994,
      "v": 110
    },
    {
      "midi": 62,
      "hit": false,
      "t": 10285.704,
      "d": 209.8212187499994,
      "v": 110
    },
    {
      "midi": 46,
      "hit": false,
      "t": 10285.704,
      "d": 571.4279999999999,
      "v": 110
    },
    {
      "midi": 64,
      "hit": false,
      "t": 10499.9895,
      "d": 209.8212187499994,
      "v": 110
    },
    {
      "midi": 62,
      "hit": false,
      "t": 10714.275,
      "d": 209.8212187499994,
      "v": 110
    },
    {
      "midi": 57,
      "hit": false,
      "t": 10928.5605,
      "d": 209.8212187499994,
      "v": 110
    },
    {
      "midi": 60,
      "hit": false,
      "t": 10928.5605,
      "d": 209.8212187499994,
      "v": 110
    },
    {
      "midi": 45,
      "hit": false,
      "t": 10928.5605,
      "d": 571.4279999999999,
      "v": 110
    },
    {
      "midi": 57,
      "hit": false,
      "t": 11142.846,
      "d": 209.8212187499994,
      "v": 110
    },
    {
      "midi": 65,
      "hit": false,
      "t": 11357.1315,
      "d": 209.8212187499994,
      "v": 110
    },
    {
      "midi": 60,
      "hit": false,
      "t": 11571.417,
      "d": 209.8212187499994,
      "v": 110
    },
    {
      "midi": 64,
      "hit": false,
      "t": 11571.417,
      "d": 209.8212187499994,
      "v": 110
    },
    {
      "midi": 45,
      "hit": false,
      "t": 11571.417,
      "d": 357.1424999999999,
      "v": 110
    },
    {
      "midi": 57,
      "hit": false,
      "t": 11785.7025,
      "d": 209.8212187499994,
      "v": 110
    },
    {
      "midi": 60,
      "hit": false,
      "t": 11999.988,
      "d": 209.8212187499994,
      "v": 110
    },
    {
      "midi": 38,
      "hit": false,
      "t": 11999.988,
      "d": 571.4279999999999,
      "v": 110
    },
    {
      "midi": 62,
      "hit": false,
      "t": 12214.2735,
      "d": 209.8212187499994,
      "v": 110
    },
    {
      "midi": 57,
      "hit": false,
      "t": 12428.559,
      "d": 209.8212187499994,
      "v": 110
    },
    {
      "midi": 62,
      "hit": false,
      "t": 12642.8445,
      "d": 209.8212187499994,
      "v": 110
    },
    {
      "midi": 67,
      "hit": false,
      "t": 12642.8445,
      "d": 209.8212187499994,
      "v": 110
    },
    {
      "midi": 38,
      "hit": false,
      "t": 12642.8445,
      "d": 571.4279999999999,
      "v": 110
    },
    {
      "midi": 66,
      "hit": false,
      "t": 12857.13,
      "d": 209.8212187499994,
      "v": 110
    },
    {
      "midi": 62,
      "hit": false,
      "t": 13071.4155,
      "d": 209.8212187499994,
      "v": 110
    },
    {
      "midi": 57,
      "hit": false,
      "t": 13285.701,
      "d": 209.8212187499994,
      "v": 110
    },
    {
      "midi": 45,
      "hit": false,
      "t": 13285.701,
      "d": 357.1424999999999,
      "v": 110
    },
    {
      "midi": 54,
      "hit": false,
      "t": 13499.986499999999,
      "d": 209.8212187499994,
      "v": 110
    },
    {
      "midi": 66,
      "hit": false,
      "t": 13714.271999999999,
      "d": 209.8212187499994,
      "v": 110
    },
    {
      "midi": 74,
      "hit": false,
      "t": 13714.271999999999,
      "d": 209.8212187499994,
      "v": 110
    },
    {
      "midi": 38,
      "hit": false,
      "t": 13714.271999999999,
      "d": 209.8212187499994,
      "v": 110
    },
    {
      "midi": 50,
      "hit": false,
      "t": 13714.271999999999,
      "d": 209.8212187499994,
      "v": 110
    },
    {
      "midi": 69,
      "hit": false,
      "t": 13928.557499999999,
      "d": 209.8212187499994,
      "v": 110
    },
    {
      "midi": 38,
      "hit": false,
      "t": 13928.557499999999,
      "d": 357.1424999999999,
      "v": 110
    },
    {
      "midi": 50,
      "hit": false,
      "t": 13928.557499999999,
      "d": 357.1424999999999,
      "v": 110
    },
    {
      "midi": 67,
      "hit": false,
      "t": 14142.842999999999,
      "d": 209.8212187499994,
      "v": 110
    },
    {
      "midi": 76,
      "hit": false,
      "t": 14142.842999999999,
      "d": 209.8212187499994,
      "v": 110
    },
    {
      "midi": 69,
      "hit": false,
      "t": 14357.128499999999,
      "d": 209.8212187499994,
      "v": 110
    },
    {
      "midi": 78,
      "hit": false,
      "t": 14357.128499999999,
      "d": 209.8212187499994,
      "v": 110
    },
    {
      "midi": 38,
      "hit": false,
      "t": 14357.128499999999,
      "d": 357.1424999999999,
      "v": 110
    },
    {
      "midi": 50,
      "hit": false,
      "t": 14357.128499999999,
      "d": 357.1424999999999,
      "v": 110
    },
    {
      "midi": 66,
      "hit": false,
      "t": 14571.413999999999,
      "d": 209.8212187499994,
      "v": 110
    },
    {
      "midi": 69,
      "hit": false,
      "t": 14785.699499999999,
      "d": 209.8212187499994,
      "v": 110
    },
    {
      "midi": 45,
      "hit": false,
      "t": 14785.699499999999,
      "d": 209.8212187499994,
      "v": 110
    },
    {
      "midi": 74,
      "hit": false,
      "t": 14999.984999999999,
      "d": 209.8212187499994,
      "v": 110
    },
    {
      "midi": 78,
      "hit": false,
      "t": 14999.984999999999,
      "d": 209.8212187499994,
      "v": 110
    },
    {
      "midi": 50,
      "hit": false,
      "t": 14999.984999999999,
      "d": 357.1424999999999,
      "v": 110
    },
    {
      "midi": 69,
      "hit": false,
      "t": 15214.270499999999,
      "d": 209.8212187499994,
      "v": 110
    },
    {
      "midi": 72,
      "hit": false,
      "t": 15428.555999999999,
      "d": 209.8212187499994,
      "v": 110
    },
    {
      "midi": 79,
      "hit": false,
      "t": 15428.555999999999,
      "d": 209.8212187499994,
      "v": 110
    },
    {
      "midi": 36,
      "hit": false,
      "t": 15428.555999999999,
      "d": 209.8212187499994,
      "v": 110
    },
    {
      "midi": 48,
      "hit": false,
      "t": 15428.555999999999,
      "d": 209.8212187499994,
      "v": 110
    },
    {
      "midi": 67,
      "hit": false,
      "t": 15642.841499999999,
      "d": 209.8212187499994,
      "v": 110
    },
    {
      "midi": 36,
      "hit": false,
      "t": 15642.841499999999,
      "d": 357.1424999999999,
      "v": 110
    },
    {
      "midi": 48,
      "hit": false,
      "t": 15642.841499999999,
      "d": 357.1424999999999,
      "v": 110
    },
    {
      "midi": 69,
      "hit": false,
      "t": 15857.126999999999,
      "d": 209.8212187499994,
      "v": 110
    },
    {
      "midi": 78,
      "hit": false,
      "t": 15857.126999999999,
      "d": 209.8212187499994,
      "v": 110
    },
    {
      "midi": 67,
      "hit": false,
      "t": 16071.412499999999,
      "d": 209.8212187499994,
      "v": 110
    },
    {
      "midi": 76,
      "hit": false,
      "t": 16071.412499999999,
      "d": 209.8212187499994,
      "v": 110
    },
    {
      "midi": 36,
      "hit": false,
      "t": 16071.412499999999,
      "d": 357.14250000000175,
      "v": 110
    },
    {
      "midi": 48,
      "hit": false,
      "t": 16071.412499999999,
      "d": 357.14250000000175,
      "v": 110
    },
    {
      "midi": 64,
      "hit": false,
      "t": 16285.697999999999,
      "d": 209.8212187500012,
      "v": 110
    },
    {
      "midi": 67,
      "hit": false,
      "t": 16499.9835,
      "d": 209.8212187499994,
      "v": 110
    },
    {
      "midi": 43,
      "hit": false,
      "t": 16499.983500000002,
      "d": 209.8212187499994,
      "v": 110
    },
    {
      "midi": 62,
      "hit": false,
      "t": 16714.268999999997,
      "d": 209.8212187499994,
      "v": 110
    },
    {
      "midi": 69,
      "hit": false,
      "t": 16714.268999999997,
      "d": 209.8212187499994,
      "v": 110
    },
    {
      "midi": 48,
      "hit": false,
      "t": 16714.269,
      "d": 357.14250000000175,
      "v": 110
    },
    {
      "midi": 64,
      "hit": false,
      "t": 16928.554499999995,
      "d": 209.8212187499994,
      "v": 110
    },
    {
      "midi": 72,
      "hit": false,
      "t": 16928.554499999995,
      "d": 209.8212187499994,
      "v": 110
    },
    {
      "midi": 65,
      "hit": false,
      "t": 17142.839999999993,
      "d": 209.8212187499994,
      "v": 110
    },
    {
      "midi": 74,
      "hit": false,
      "t": 17142.839999999993,
      "d": 209.8212187499994,
      "v": 110
    },
    {
      "midi": 34,
      "hit": false,
      "t": 17142.840000000004,
      "d": 209.8212187499994,
      "v": 110
    },
    {
      "midi": 46,
      "hit": false,
      "t": 17142.840000000004,
      "d": 209.8212187499994,
      "v": 110
    },
    {
      "midi": 62,
      "hit": false,
      "t": 17357.12549999999,
      "d": 209.8212187499994,
      "v": 110
    },
    {
      "midi": 34,
      "hit": false,
      "t": 17357.125500000002,
      "d": 357.14250000000175,
      "v": 110
    },
    {
      "midi": 46,
      "hit": false,
      "t": 17357.125500000002,
      "d": 357.14250000000175,
      "v": 110
    },
    {
      "midi": 64,
      "hit": false,
      "t": 17571.41099999999,
      "d": 209.8212187499994,
      "v": 110
    },
    {
      "midi": 69,
      "hit": false,
      "t": 17571.41099999999,
      "d": 209.8212187499994,
      "v": 110
    },
    {
      "midi": 62,
      "hit": false,
      "t": 17785.696499999987,
      "d": 571.4279999999999,
      "v": 110
    },
    {
      "midi": 67,
      "hit": false,
      "t": 17785.696499999987,
      "d": 571.4279999999999,
      "v": 110
    },
    {
      "midi": 33,
      "hit": false,
      "t": 17785.696500000005,
      "d": 357.14250000000175,
      "v": 110
    },
    {
      "midi": 45,
      "hit": false,
      "t": 17785.696500000005,
      "d": 357.14250000000175,
      "v": 110
    },
    {
      "midi": 45,
      "hit": false,
      "t": 18214.26750000001,
      "d": 209.8212187499994,
      "v": 110
    },
    {
      "midi": 60,
      "hit": false,
      "t": 18428.55299999999,
      "d": 357.14250000000175,
      "v": 110
    },
    {
      "midi": 69,
      "hit": false,
      "t": 18428.55299999999,
      "d": 357.14250000000175,
      "v": 110
    },
    {
      "midi": 48,
      "hit": false,
      "t": 18428.553000000007,
      "d": 209.8212187499994,
      "v": 110
    },
    {
      "midi": 49,
      "hit": false,
      "t": 18642.838500000005,
      "d": 209.8212187499994,
      "v": 110
    },
    {
      "midi": 57,
      "hit": false,
      "t": 18857.123999999993,
      "d": 357.14250000000175,
      "v": 110
    },
    {
      "midi": 62,
      "hit": false,
      "t": 18857.123999999993,
      "d": 357.14250000000175,
      "v": 110
    },
    {
      "midi": 64,
      "hit": false,
      "t": 18857.123999999993,
      "d": 357.14250000000175,
      "v": 110
    },
    {
      "midi": 38,
      "hit": false,
      "t": 18857.124000000003,
      "d": 209.8212187499994,
      "v": 110
    },
    {
      "midi": 50,
      "hit": false,
      "t": 18857.124000000003,
      "d": 209.8212187499994,
      "v": 110
    },
    {
      "midi": 38,
      "hit": false,
      "t": 19071.4095,
      "d": 357.14250000000175,
      "v": 110
    },
    {
      "midi": 50,
      "hit": false,
      "t": 19071.4095,
      "d": 357.14250000000175,
      "v": 110
    },
    {
      "midi": 69,
      "hit": false,
      "t": 19285.694999999996,
      "d": 209.8212187499994,
      "v": 110
    },
    {
      "midi": 57,
      "hit": false,
      "t": 19499.980499999994,
      "d": 357.14250000000175,
      "v": 110
    },
    {
      "midi": 62,
      "hit": false,
      "t": 19499.980499999994,
      "d": 357.14250000000175,
      "v": 110
    },
    {
      "midi": 66,
      "hit": false,
      "t": 19499.980499999994,
      "d": 357.14250000000175,
      "v": 110
    },
    {
      "midi": 38,
      "hit": false,
      "t": 19499.980500000005,
      "d": 357.14250000000175,
      "v": 110
    },
    {
      "midi": 50,
      "hit": false,
      "t": 19499.980500000005,
      "d": 357.14250000000175,
      "v": 110
    },
    {
      "midi": 74,
      "hit": false,
      "t": 19928.551499999998,
      "d": 209.8212187499994,
      "v": 110
    },
    {
      "midi": 45,
      "hit": false,
      "t": 19928.55150000001,
      "d": 209.8212187499994,
      "v": 110
    },
    {
      "midi": 69,
      "hit": false,
      "t": 20142.836999999996,
      "d": 209.8212187499994,
      "v": 110
    },
    {
      "midi": 50,
      "hit": false,
      "t": 20142.837000000007,
      "d": 357.14250000000175,
      "v": 110
    },
    {
      "midi": 66,
      "hit": false,
      "t": 20357.122499999994,
      "d": 209.8212187499994,
      "v": 110
    },
    {
      "midi": 66,
      "hit": false,
      "t": 20571.407999999992,
      "d": 209.8212187499994,
      "v": 110
    },
    {
      "midi": 74,
      "hit": false,
      "t": 20571.407999999992,
      "d": 209.8212187499994,
      "v": 110
    },
    {
      "midi": 38,
      "hit": false,
      "t": 20571.40800000001,
      "d": 209.8212187499994,
      "v": 110
    },
    {
      "midi": 50,
      "hit": false,
      "t": 20571.40800000001,
      "d": 209.8212187499994,
      "v": 110
    },
    {
      "midi": 69,
      "hit": false,
      "t": 20785.69349999999,
      "d": 209.8212187499994,
      "v": 110
    },
    {
      "midi": 38,
      "hit": false,
      "t": 20785.69350000001,
      "d": 357.14250000000175,
      "v": 110
    },
    {
      "midi": 50,
      "hit": false,
      "t": 20785.69350000001,
      "d": 357.14250000000175,
      "v": 110
    },
    {
      "midi": 67,
      "hit": false,
      "t": 20999.97899999999,
      "d": 209.8212187499994,
      "v": 110
    },
    {
      "midi": 76,
      "hit": false,
      "t": 20999.97899999999,
      "d": 209.8212187499994,
      "v": 110
    },
    {
      "midi": 69,
      "hit": false,
      "t": 21214.264499999987,
      "d": 209.8212187499994,
      "v": 110
    },
    {
      "midi": 78,
      "hit": false,
      "t": 21214.264499999987,
      "d": 209.8212187499994,
      "v": 110
    },
    {
      "midi": 38,
      "hit": false,
      "t": 21214.264500000012,
      "d": 357.14250000000175,
      "v": 110
    },
    {
      "midi": 50,
      "hit": false,
      "t": 21214.264500000012,
      "d": 357.14250000000175,
      "v": 110
    },
    {
      "midi": 66,
      "hit": false,
      "t": 21428.549999999985,
      "d": 209.8212187499994,
      "v": 110
    },
    {
      "midi": 69,
      "hit": false,
      "t": 21642.835499999983,
      "d": 209.8212187499994,
      "v": 110
    },
    {
      "midi": 45,
      "hit": false,
      "t": 21642.835500000016,
      "d": 209.8212187499994,
      "v": 110
    },
    {
      "midi": 74,
      "hit": false,
      "t": 21857.12099999998,
      "d": 209.8212187499994,
      "v": 110
    },
    {
      "midi": 78,
      "hit": false,
      "t": 21857.12099999998,
      "d": 209.8212187499994,
      "v": 110
    },
    {
      "midi": 50,
      "hit": false,
      "t": 21857.121000000014,
      "d": 357.14250000000175,
      "v": 110
    },
    {
      "midi": 69,
      "hit": false,
      "t": 22071.40649999998,
      "d": 209.8212187499994,
      "v": 110
    },
    {
      "midi": 72,
      "hit": false,
      "t": 22285.691999999977,
      "d": 209.8212187499994,
      "v": 110
    },
    {
      "midi": 79,
      "hit": false,
      "t": 22285.691999999977,
      "d": 209.8212187499994,
      "v": 110
    },
    {
      "midi": 36,
      "hit": false,
      "t": 22285.692000000017,
      "d": 209.8212187499994,
      "v": 110
    },
    {
      "midi": 48,
      "hit": false,
      "t": 22285.692000000017,
      "d": 209.8212187499994,
      "v": 110
    },
    {
      "midi": 67,
      "hit": false,
      "t": 22499.977499999975,
      "d": 209.8212187499994,
      "v": 110
    },
    {
      "midi": 36,
      "hit": false,
      "t": 22499.977500000015,
      "d": 357.14250000000175,
      "v": 110
    },
    {
      "midi": 48,
      "hit": false,
      "t": 22499.977500000015,
      "d": 357.14250000000175,
      "v": 110
    },
    {
      "midi": 69,
      "hit": false,
      "t": 22714.262999999974,
      "d": 209.8212187499994,
      "v": 110
    },
    {
      "midi": 78,
      "hit": false,
      "t": 22714.262999999974,
      "d": 209.8212187499994,
      "v": 110
    },
    {
      "midi": 67,
      "hit": false,
      "t": 22928.54849999997,
      "d": 209.8212187499994,
      "v": 110
    },
    {
      "midi": 76,
      "hit": false,
      "t": 22928.54849999997,
      "d": 209.8212187499994,
      "v": 110
    },
    {
      "midi": 36,
      "hit": false,
      "t": 22928.54850000002,
      "d": 357.14250000000175,
      "v": 110
    },
    {
      "midi": 48,
      "hit": false,
      "t": 22928.54850000002,
      "d": 357.14250000000175,
      "v": 110
    },
    {
      "midi": 64,
      "hit": false,
      "t": 23142.83399999997,
      "d": 209.8212187499994,
      "v": 110
    },
    {
      "midi": 67,
      "hit": false,
      "t": 23357.119499999968,
      "d": 209.8212187499994,
      "v": 110
    },
    {
      "midi": 43,
      "hit": false,
      "t": 23357.119500000023,
      "d": 209.8212187499994,
      "v": 110
    },
    {
      "midi": 62,
      "hit": false,
      "t": 23571.404999999966,
      "d": 209.8212187499994,
      "v": 110
    },
    {
      "midi": 69,
      "hit": false,
      "t": 23571.404999999966,
      "d": 209.8212187499994,
      "v": 110
    },
    {
      "midi": 48,
      "hit": false,
      "t": 23571.40500000002,
      "d": 357.14250000000175,
      "v": 110
    },
    {
      "midi": 64,
      "hit": false,
      "t": 23785.690499999964,
      "d": 209.8212187499994,
      "v": 110
    },
    {
      "midi": 72,
      "hit": false,
      "t": 23785.690499999964,
      "d": 209.8212187499994,
      "v": 110
    },
    {
      "midi": 65,
      "hit": false,
      "t": 23999.975999999962,
      "d": 209.8212187499994,
      "v": 110
    },
    {
      "midi": 74,
      "hit": false,
      "t": 23999.975999999962,
      "d": 209.8212187499994,
      "v": 110
    },
    {
      "midi": 34,
      "hit": false,
      "t": 23999.976000000024,
      "d": 209.8212187499994,
      "v": 110
    },
    {
      "midi": 46,
      "hit": false,
      "t": 23999.976000000024,
      "d": 209.8212187499994,
      "v": 110
    },
    {
      "midi": 62,
      "hit": false,
      "t": 24214.26149999996,
      "d": 209.8212187499994,
      "v": 110
    },
    {
      "midi": 34,
      "hit": false,
      "t": 24214.261500000022,
      "d": 357.14250000000175,
      "v": 110
    },
    {
      "midi": 46,
      "hit": false,
      "t": 24214.261500000022,
      "d": 357.14250000000175,
      "v": 110
    },
    {
      "midi": 64,
      "hit": false,
      "t": 24428.54699999996,
      "d": 209.8212187499994,
      "v": 110
    },
    {
      "midi": 69,
      "hit": false,
      "t": 24428.54699999996,
      "d": 209.8212187499994,
      "v": 110
    },
    {
      "midi": 62,
      "hit": false,
      "t": 24642.832499999957,
      "d": 209.8212187499994,
      "v": 110
    },
    {
      "midi": 67,
      "hit": false,
      "t": 24642.832499999957,
      "d": 209.8212187499994,
      "v": 110
    },
    {
      "midi": 33,
      "hit": false,
      "t": 24642.832500000026,
      "d": 357.14250000000175,
      "v": 110
    },
    {
      "midi": 45,
      "hit": false,
      "t": 24642.832500000026,
      "d": 357.14250000000175,
      "v": 110
    },
    {
      "midi": 64,
      "hit": false,
      "t": 24857.117999999955,
      "d": 209.8212187499994,
      "v": 110
    },
    {
      "midi": 65,
      "hit": false,
      "t": 25071.403499999953,
      "d": 209.8212187499994,
      "v": 110
    },
    {
      "midi": 69,
      "hit": false,
      "t": 25071.403499999953,
      "d": 209.8212187499994,
      "v": 110
    },
    {
      "midi": 45,
      "hit": false,
      "t": 25071.40350000003,
      "d": 209.8212187499994,
      "v": 110
    },
    {
      "midi": 64,
      "hit": false,
      "t": 25285.68899999995,
      "d": 357.14250000000175,
      "v": 110
    },
    {
      "midi": 72,
      "hit": false,
      "t": 25285.68899999995,
      "d": 357.14250000000175,
      "v": 110
    },
    {
      "midi": 48,
      "hit": false,
      "t": 25285.689000000028,
      "d": 209.8212187499994,
      "v": 110
    },
    {
      "midi": 49,
      "hit": false,
      "t": 25499.974500000026,
      "d": 209.8212187499994,
      "v": 110
    },
    {
      "midi": 66,
      "hit": false,
      "t": 25714.259999999955,
      "d": 357.14250000000175,
      "v": 110
    },
    {
      "midi": 76,
      "hit": false,
      "t": 25714.259999999955,
      "d": 357.14250000000175,
      "v": 110
    },
    {
      "midi": 38,
      "hit": false,
      "t": 25714.260000000024,
      "d": 209.8212187499994,
      "v": 110
    },
    {
      "midi": 50,
      "hit": false,
      "t": 25714.260000000024,
      "d": 209.8212187499994,
      "v": 110
    },
    {
      "midi": 38,
      "hit": false,
      "t": 25928.545500000022,
      "d": 357.14250000000175,
      "v": 110
    },
    {
      "midi": 50,
      "hit": false,
      "t": 25928.545500000022,
      "d": 357.14250000000175,
      "v": 110
    },
    {
      "midi": 69,
      "hit": false,
      "t": 26142.83099999996,
      "d": 209.8212187499994,
      "v": 110
    },
    {
      "midi": 69,
      "hit": false,
      "t": 26357.116499999956,
      "d": 209.8212187499994,
      "v": 110
    },
    {
      "midi": 74,
      "hit": false,
      "t": 26357.116499999956,
      "d": 209.8212187499994,
      "v": 110
    },
    {
      "midi": 79,
      "hit": false,
      "t": 26357.116499999956,
      "d": 209.8212187499994,
      "v": 110
    },
    {
      "midi": 38,
      "hit": false,
      "t": 26357.116500000026,
      "d": 357.14250000000175,
      "v": 110
    },
    {
      "midi": 50,
      "hit": false,
      "t": 26357.116500000026,
      "d": 357.14250000000175,
      "v": 110
    },
    {
      "midi": 78,
      "hit": false,
      "t": 26571.401999999955,
      "d": 209.8212187499994,
      "v": 110
    },
    {
      "midi": 74,
      "hit": false,
      "t": 26785.687499999953,
      "d": 209.8212187499994,
      "v": 110
    },
    {
      "midi": 45,
      "hit": false,
      "t": 26785.68750000003,
      "d": 209.8212187499994,
      "v": 110
    },
    {
      "midi": 69,
      "hit": false,
      "t": 26999.97299999995,
      "d": 209.8212187499994,
      "v": 110
    },
    {
      "midi": 50,
      "hit": false,
      "t": 26999.973000000027,
      "d": 357.14250000000175,
      "v": 110
    },
    {
      "midi": 66,
      "hit": false,
      "t": 27214.25849999995,
      "d": 209.8212187499994,
      "v": 110
    },
    {
      "midi": 66,
      "hit": false,
      "t": 27428.543999999947,
      "d": 209.8212187499994,
      "v": 110
    },
    {
      "midi": 74,
      "hit": false,
      "t": 27428.543999999947,
      "d": 209.8212187499994,
      "v": 110
    },
    {
      "midi": 38,
      "hit": false,
      "t": 27428.54400000003,
      "d": 209.8212187499994,
      "v": 110
    },
    {
      "midi": 50,
      "hit": false,
      "t": 27428.54400000003,
      "d": 209.8212187499994,
      "v": 110
    },
    {
      "midi": 69,
      "hit": false,
      "t": 27642.829499999945,
      "d": 209.8212187499994,
      "v": 110
    },
    {
      "midi": 38,
      "hit": false,
      "t": 27642.82950000003,
      "d": 357.14250000000175,
      "v": 110
    },
    {
      "midi": 50,
      "hit": false,
      "t": 27642.82950000003,
      "d": 357.14250000000175,
      "v": 110
    },
    {
      "midi": 67,
      "hit": false,
      "t": 27857.114999999943,
      "d": 209.8212187499994,
      "v": 110
    },
    {
      "midi": 76,
      "hit": false,
      "t": 27857.114999999943,
      "d": 209.8212187499994,
      "v": 110
    },
    {
      "midi": 69,
      "hit": false,
      "t": 28071.40049999994,
      "d": 209.8212187499994,
      "v": 110
    },
    {
      "midi": 78,
      "hit": false,
      "t": 28071.40049999994,
      "d": 209.8212187499994,
      "v": 110
    },
    {
      "midi": 38,
      "hit": false,
      "t": 28071.400500000032,
      "d": 357.14250000000175,
      "v": 110
    },
    {
      "midi": 50,
      "hit": false,
      "t": 28071.400500000032,
      "d": 357.14250000000175,
      "v": 110
    },
    {
      "midi": 66,
      "hit": false,
      "t": 28285.68599999994,
      "d": 209.8212187499994,
      "v": 110
    },
    {
      "midi": 69,
      "hit": false,
      "t": 28499.971499999938,
      "d": 209.8212187499994,
      "v": 110
    },
    {
      "midi": 45,
      "hit": false,
      "t": 28499.971500000036,
      "d": 209.8212187499994,
      "v": 110
    },
    {
      "midi": 74,
      "hit": false,
      "t": 28714.256999999936,
      "d": 209.8212187499994,
      "v": 110
    },
    {
      "midi": 78,
      "hit": false,
      "t": 28714.256999999936,
      "d": 209.8212187499994,
      "v": 110
    },
    {
      "midi": 50,
      "hit": false,
      "t": 28714.257000000034,
      "d": 357.14250000000175,
      "v": 110
    },
    {
      "midi": 69,
      "hit": false,
      "t": 28928.542499999934,
      "d": 209.8212187499994,
      "v": 110
    },
    {
      "midi": 72,
      "hit": false,
      "t": 29142.827999999932,
      "d": 209.8212187499994,
      "v": 110
    },
    {
      "midi": 79,
      "hit": false,
      "t": 29142.827999999932,
      "d": 209.8212187499994,
      "v": 110
    },
    {
      "midi": 36,
      "hit": false,
      "t": 29142.828000000038,
      "d": 209.8212187499994,
      "v": 110
    },
    {
      "midi": 48,
      "hit": false,
      "t": 29142.828000000038,
      "d": 209.8212187499994,
      "v": 110
    },
    {
      "midi": 67,
      "hit": false,
      "t": 29357.11349999993,
      "d": 209.8212187499994,
      "v": 110
    },
    {
      "midi": 36,
      "hit": false,
      "t": 29357.113500000036,
      "d": 357.14250000000175,
      "v": 110
    },
    {
      "midi": 48,
      "hit": false,
      "t": 29357.113500000036,
      "d": 357.14250000000175,
      "v": 110
    },
    {
      "midi": 69,
      "hit": false,
      "t": 29571.39899999993,
      "d": 209.8212187499994,
      "v": 110
    },
    {
      "midi": 78,
      "hit": false,
      "t": 29571.39899999993,
      "d": 209.8212187499994,
      "v": 110
    },
    {
      "midi": 67,
      "hit": false,
      "t": 29785.684499999927,
      "d": 209.8212187499994,
      "v": 110
    },
    {
      "midi": 76,
      "hit": false,
      "t": 29785.684499999927,
      "d": 209.8212187499994,
      "v": 110
    },
    {
      "midi": 36,
      "hit": false,
      "t": 29785.68450000004,
      "d": 357.14250000000175,
      "v": 110
    },
    {
      "midi": 48,
      "hit": false,
      "t": 29785.68450000004,
      "d": 357.14250000000175,
      "v": 110
    },
    {
      "midi": 64,
      "hit": false,
      "t": 29999.969999999925,
      "d": 209.8212187499994,
      "v": 110
    },
    {
      "midi": 67,
      "hit": false,
      "t": 30214.255499999923,
      "d": 209.8212187499994,
      "v": 110
    },
    {
      "midi": 43,
      "hit": false,
      "t": 30214.255500000043,
      "d": 209.8212187499994,
      "v": 110
    },
    {
      "midi": 62,
      "hit": false,
      "t": 30428.54099999992,
      "d": 209.8212187499994,
      "v": 110
    },
    {
      "midi": 69,
      "hit": false,
      "t": 30428.54099999992,
      "d": 209.8212187499994,
      "v": 110
    },
    {
      "midi": 48,
      "hit": false,
      "t": 30428.54100000004,
      "d": 357.14250000000175,
      "v": 110
    },
    {
      "midi": 64,
      "hit": false,
      "t": 30642.82649999992,
      "d": 209.8212187499994,
      "v": 110
    },
    {
      "midi": 72,
      "hit": false,
      "t": 30642.82649999992,
      "d": 209.8212187499994,
      "v": 110
    },
    {
      "midi": 65,
      "hit": false,
      "t": 30857.111999999917,
      "d": 209.8212187499994,
      "v": 110
    },
    {
      "midi": 74,
      "hit": false,
      "t": 30857.111999999917,
      "d": 209.8212187499994,
      "v": 110
    },
    {
      "midi": 34,
      "hit": false,
      "t": 30857.112000000045,
      "d": 209.8212187499994,
      "v": 110
    },
    {
      "midi": 46,
      "hit": false,
      "t": 30857.112000000045,
      "d": 209.8212187499994,
      "v": 110
    },
    {
      "midi": 62,
      "hit": false,
      "t": 31071.397499999915,
      "d": 209.8212187499994,
      "v": 110
    },
    {
      "midi": 34,
      "hit": false,
      "t": 31071.397500000043,
      "d": 357.14250000000175,
      "v": 110
    },
    {
      "midi": 46,
      "hit": false,
      "t": 31071.397500000043,
      "d": 357.14250000000175,
      "v": 110
    },
    {
      "midi": 64,
      "hit": false,
      "t": 31285.682999999914,
      "d": 209.8212187499994,
      "v": 110
    },
    {
      "midi": 69,
      "hit": false,
      "t": 31285.682999999914,
      "d": 209.8212187499994,
      "v": 110
    },
    {
      "midi": 62,
      "hit": false,
      "t": 31499.96849999991,
      "d": 571.4279999999999,
      "v": 110
    },
    {
      "midi": 67,
      "hit": false,
      "t": 31499.96849999991,
      "d": 571.4279999999999,
      "v": 110
    },
    {
      "midi": 33,
      "hit": false,
      "t": 31499.968500000046,
      "d": 357.14250000000175,
      "v": 110
    },
    {
      "midi": 45,
      "hit": false,
      "t": 31499.968500000046,
      "d": 357.14250000000175,
      "v": 110
    },
    {
      "midi": 45,
      "hit": false,
      "t": 31928.53950000005,
      "d": 209.8212187499994,
      "v": 110
    },
    {
      "midi": 60,
      "hit": false,
      "t": 32142.824999999913,
      "d": 357.14250000000175,
      "v": 110
    },
    {
      "midi": 69,
      "hit": false,
      "t": 32142.824999999913,
      "d": 357.14250000000175,
      "v": 110
    },
    {
      "midi": 48,
      "hit": false,
      "t": 32142.825000000048,
      "d": 209.8212187499994,
      "v": 110
    },
    {
      "midi": 49,
      "hit": false,
      "t": 32357.110500000046,
      "d": 209.8212187499994,
      "v": 110
    },
    {
      "midi": 57,
      "hit": false,
      "t": 32571.395999999917,
      "d": 357.1424999999981,
      "v": 110
    },
    {
      "midi": 62,
      "hit": false,
      "t": 32571.395999999917,
      "d": 357.1424999999981,
      "v": 110
    },
    {
      "midi": 64,
      "hit": false,
      "t": 32571.395999999917,
      "d": 357.1424999999981,
      "v": 110
    },
    {
      "midi": 38,
      "hit": false,
      "t": 32571.396000000044,
      "d": 209.82121875000303,
      "v": 110
    },
    {
      "midi": 50,
      "hit": false,
      "t": 32571.396000000044,
      "d": 209.82121875000303,
      "v": 110
    },
    {
      "midi": 38,
      "hit": false,
      "t": 32785.68150000005,
      "d": 357.14250000000175,
      "v": 110
    },
    {
      "midi": 50,
      "hit": false,
      "t": 32785.68150000005,
      "d": 357.14250000000175,
      "v": 110
    },
    {
      "midi": 69,
      "hit": false,
      "t": 32999.96699999992,
      "d": 209.82121875000303,
      "v": 110
    },
    {
      "midi": 57,
      "hit": false,
      "t": 33214.25249999992,
      "d": 357.14250000000175,
      "v": 110
    },
    {
      "midi": 62,
      "hit": false,
      "t": 33214.25249999992,
      "d": 357.14250000000175,
      "v": 110
    },
    {
      "midi": 66,
      "hit": false,
      "t": 33214.25249999992,
      "d": 357.14250000000175,
      "v": 110
    },
    {
      "midi": 38,
      "hit": false,
      "t": 33214.25250000005,
      "d": 357.14250000000175,
      "v": 110
    },
    {
      "midi": 50,
      "hit": false,
      "t": 33214.25250000005,
      "d": 357.14250000000175,
      "v": 110
    },
    {
      "midi": 74,
      "hit": false,
      "t": 33642.823499999926,
      "d": 209.82121875000303,
      "v": 110
    },
    {
      "midi": 45,
      "hit": false,
      "t": 33642.82350000006,
      "d": 209.82121875000303,
      "v": 110
    },
    {
      "midi": 69,
      "hit": false,
      "t": 33857.10899999993,
      "d": 209.82121875000303,
      "v": 110
    },
    {
      "midi": 50,
      "hit": false,
      "t": 33857.10900000006,
      "d": 357.14250000000175,
      "v": 110
    },
    {
      "midi": 66,
      "hit": false,
      "t": 34071.39449999994,
      "d": 209.82121875000303,
      "v": 110
    },
    {
      "midi": 66,
      "hit": false,
      "t": 34285.67999999994,
      "d": 209.82121875000303,
      "v": 110
    },
    {
      "midi": 74,
      "hit": false,
      "t": 34285.67999999994,
      "d": 209.82121875000303,
      "v": 110
    },
    {
      "midi": 38,
      "hit": false,
      "t": 34285.680000000066,
      "d": 209.82121875000303,
      "v": 110
    },
    {
      "midi": 50,
      "hit": false,
      "t": 34285.680000000066,
      "d": 209.82121875000303,
      "v": 110
    },
    {
      "midi": 69,
      "hit": false,
      "t": 34499.96549999995,
      "d": 209.82121875000303,
      "v": 110
    },
    {
      "midi": 38,
      "hit": false,
      "t": 34499.96550000007,
      "d": 357.14250000000175,
      "v": 110
    },
    {
      "midi": 50,
      "hit": false,
      "t": 34499.96550000007,
      "d": 357.14250000000175,
      "v": 110
    },
    {
      "midi": 67,
      "hit": false,
      "t": 34714.25099999995,
      "d": 209.82121875000303,
      "v": 110
    },
    {
      "midi": 76,
      "hit": false,
      "t": 34714.25099999995,
      "d": 209.82121875000303,
      "v": 110
    },
    {
      "midi": 69,
      "hit": false,
      "t": 34928.53649999996,
      "d": 209.82121875000303,
      "v": 110
    },
    {
      "midi": 78,
      "hit": false,
      "t": 34928.53649999996,
      "d": 209.82121875000303,
      "v": 110
    },
    {
      "midi": 38,
      "hit": false,
      "t": 34928.536500000075,
      "d": 357.14250000000175,
      "v": 110
    },
    {
      "midi": 50,
      "hit": false,
      "t": 34928.536500000075,
      "d": 357.14250000000175,
      "v": 110
    },
    {
      "midi": 66,
      "hit": false,
      "t": 35142.821999999964,
      "d": 209.82121875000303,
      "v": 110
    },
    {
      "midi": 69,
      "hit": false,
      "t": 35357.10749999997,
      "d": 209.82121875000303,
      "v": 110
    },
    {
      "midi": 45,
      "hit": false,
      "t": 35357.10750000008,
      "d": 209.82121875000303,
      "v": 110
    },
    {
      "midi": 74,
      "hit": false,
      "t": 35571.392999999975,
      "d": 209.82121875000303,
      "v": 110
    },
    {
      "midi": 78,
      "hit": false,
      "t": 35571.392999999975,
      "d": 209.82121875000303,
      "v": 110
    },
    {
      "midi": 50,
      "hit": false,
      "t": 35571.393000000084,
      "d": 357.14250000000175,
      "v": 110
    },
    {
      "midi": 69,
      "hit": false,
      "t": 35785.67849999998,
      "d": 209.82121875000303,
      "v": 110
    },
    {
      "midi": 72,
      "hit": false,
      "t": 35999.963999999985,
      "d": 209.82121875000303,
      "v": 110
    },
    {
      "midi": 79,
      "hit": false,
      "t": 35999.963999999985,
      "d": 209.82121875000303,
      "v": 110
    },
    {
      "midi": 36,
      "hit": false,
      "t": 35999.96400000009,
      "d": 209.82121875000303,
      "v": 110
    },
    {
      "midi": 48,
      "hit": false,
      "t": 35999.96400000009,
      "d": 209.82121875000303,
      "v": 110
    },
    {
      "midi": 67,
      "hit": false,
      "t": 36214.24949999999,
      "d": 209.82121875000303,
      "v": 110
    },
    {
      "midi": 36,
      "hit": false,
      "t": 36214.24950000009,
      "d": 357.14250000000175,
      "v": 110
    },
    {
      "midi": 48,
      "hit": false,
      "t": 36214.24950000009,
      "d": 357.14250000000175,
      "v": 110
    },
    {
      "midi": 74,
      "hit": false,
      "t": 36428.534999999996,
      "d": 209.82121875000303,
      "v": 110
    },
    {
      "midi": 78,
      "hit": false,
      "t": 36428.534999999996,
      "d": 209.82121875000303,
      "v": 110
    },
    {
      "midi": 76,
      "hit": false,
      "t": 36642.8205,
      "d": 209.82121875000303,
      "v": 110
    },
    {
      "midi": 36,
      "hit": false,
      "t": 36642.820500000096,
      "d": 357.14250000000175,
      "v": 110
    },
    {
      "midi": 48,
      "hit": false,
      "t": 36642.820500000096,
      "d": 357.14250000000175,
      "v": 110
    },
    {
      "midi": 69,
      "hit": false,
      "t": 36857.10600000001,
      "d": 209.82121875000303,
      "v": 110
    },
    {
      "midi": 72,
      "hit": false,
      "t": 37071.39150000001,
      "d": 209.82121875000303,
      "v": 110
    },
    {
      "midi": 43,
      "hit": false,
      "t": 37071.3915000001,
      "d": 209.82121875000303,
      "v": 110
    },
    {
      "midi": 76,
      "hit": false,
      "t": 37285.67700000002,
      "d": 209.82121875000303,
      "v": 110
    },
    {
      "midi": 79,
      "hit": false,
      "t": 37285.67700000002,
      "d": 209.82121875000303,
      "v": 110
    },
    {
      "midi": 48,
      "hit": false,
      "t": 37285.677000000105,
      "d": 357.14250000000175,
      "v": 110
    },
    {
      "midi": 77,
      "hit": false,
      "t": 37499.96250000002,
      "d": 209.82121875000303,
      "v": 110
    },
    {
      "midi": 81,
      "hit": false,
      "t": 37499.96250000002,
      "d": 209.82121875000303,
      "v": 110
    },
    {
      "midi": 79,
      "hit": false,
      "t": 37714.24800000003,
      "d": 209.82121875000303,
      "v": 110
    },
    {
      "midi": 84,
      "hit": false,
      "t": 37714.24800000003,
      "d": 209.82121875000303,
      "v": 110
    },
    {
      "midi": 34,
      "hit": false,
      "t": 37714.24800000011,
      "d": 209.82121875000303,
      "v": 110
    },
    {
      "midi": 46,
      "hit": false,
      "t": 37714.24800000011,
      "d": 209.82121875000303,
      "v": 110
    },
    {
      "midi": 76,
      "hit": false,
      "t": 37928.533500000034,
      "d": 209.82121875000303,
      "v": 110
    },
    {
      "midi": 34,
      "hit": false,
      "t": 37928.533500000114,
      "d": 357.14250000000175,
      "v": 110
    },
    {
      "midi": 46,
      "hit": false,
      "t": 37928.533500000114,
      "d": 357.14250000000175,
      "v": 110
    },
    {
      "midi": 77,
      "hit": false,
      "t": 38142.81900000004,
      "d": 209.82121875000303,
      "v": 110
    },
    {
      "midi": 81,
      "hit": false,
      "t": 38142.81900000004,
      "d": 209.82121875000303,
      "v": 110
    },
    {
      "midi": 76,
      "hit": false,
      "t": 38357.104500000045,
      "d": 209.82121875000303,
      "v": 110
    },
    {
      "midi": 79,
      "hit": false,
      "t": 38357.104500000045,
      "d": 209.82121875000303,
      "v": 110
    },
    {
      "midi": 36,
      "hit": false,
      "t": 38357.10450000012,
      "d": 357.14250000000175,
      "v": 110
    },
    {
      "midi": 48,
      "hit": false,
      "t": 38357.10450000012,
      "d": 357.14250000000175,
      "v": 110
    },
    {
      "midi": 72,
      "hit": false,
      "t": 38571.39000000005,
      "d": 209.82121875000303,
      "v": 110
    },
    {
      "midi": 74,
      "hit": false,
      "t": 38785.675500000056,
      "d": 209.82121875000303,
      "v": 110
    },
    {
      "midi": 77,
      "hit": false,
      "t": 38785.675500000056,
      "d": 209.82121875000303,
      "v": 110
    },
    {
      "midi": 45,
      "hit": false,
      "t": 38785.67550000012,
      "d": 209.82121875000303,
      "v": 110
    },
    {
      "midi": 72,
      "hit": false,
      "t": 38999.96100000006,
      "d": 357.14250000000175,
      "v": 110
    },
    {
      "midi": 76,
      "hit": false,
      "t": 38999.96100000006,
      "d": 357.14250000000175,
      "v": 110
    },
    {
      "midi": 48,
      "hit": false,
      "t": 38999.96100000013,
      "d": 209.82121875000303,
      "v": 110
    },
    {
      "midi": 49,
      "hit": false,
      "t": 39214.24650000013,
      "d": 209.82121875000303,
      "v": 110
    },
    {
      "midi": 66,
      "hit": false,
      "t": 39428.532000000065,
      "d": 357.14250000000175,
      "v": 110
    },
    {
      "midi": 74,
      "hit": false,
      "t": 39428.532000000065,
      "d": 357.14250000000175,
      "v": 110
    },
    {
      "midi": 38,
      "hit": false,
      "t": 39428.53200000014,
      "d": 209.82121875000303,
      "v": 110
    },
    {
      "midi": 50,
      "hit": false,
      "t": 39428.53200000014,
      "d": 209.82121875000303,
      "v": 110
    },
    {
      "midi": 38,
      "hit": false,
      "t": 39642.81750000014,
      "d": 357.14250000000175,
      "v": 110
    },
    {
      "midi": 50,
      "hit": false,
      "t": 39642.81750000014,
      "d": 357.14250000000175,
      "v": 110
    },
    {
      "midi": 69,
      "hit": false,
      "t": 39857.10300000007,
      "d": 209.82121875000303,
      "v": 110
    },
    {
      "midi": 74,
      "hit": false,
      "t": 40071.388500000074,
      "d": 209.82121875000303,
      "v": 110
    },
    {
      "midi": 79,
      "hit": false,
      "t": 40071.388500000074,
      "d": 209.82121875000303,
      "v": 110
    },
    {
      "midi": 38,
      "hit": false,
      "t": 40071.38850000015,
      "d": 357.14250000000175,
      "v": 110
    },
    {
      "midi": 50,
      "hit": false,
      "t": 40071.38850000015,
      "d": 357.14250000000175,
      "v": 110
    },
    {
      "midi": 78,
      "hit": false,
      "t": 40285.67400000008,
      "d": 209.82121875000303,
      "v": 110
    },
    {
      "midi": 74,
      "hit": false,
      "t": 40499.959500000085,
      "d": 209.82121875000303,
      "v": 110
    },
    {
      "midi": 45,
      "hit": false,
      "t": 40499.95950000015,
      "d": 209.82121875000303,
      "v": 110
    },
    {
      "midi": 69,
      "hit": false,
      "t": 40714.24500000009,
      "d": 209.82121875000303,
      "v": 110
    },
    {
      "midi": 50,
      "hit": false,
      "t": 40714.245000000155,
      "d": 357.14250000000175,
      "v": 110
    },
    {
      "midi": 66,
      "hit": false,
      "t": 40928.530500000095,
      "d": 209.82121875000303,
      "v": 110
    },
    {
      "midi": 64,
      "hit": false,
      "t": 41142.8160000001,
      "d": 357.14250000000175,
      "v": 110
    },
    {
      "midi": 72,
      "hit": false,
      "t": 41142.8160000001,
      "d": 357.14250000000175,
      "v": 110
    },
    {
      "midi": 48,
      "hit": false,
      "t": 41142.81600000016,
      "d": 209.82121875000303,
      "v": 110
    },
    {
      "midi": 60,
      "hit": false,
      "t": 41142.81600000016,
      "d": 209.82121875000303,
      "v": 110
    },
    {
      "midi": 48,
      "hit": false,
      "t": 41357.101500000164,
      "d": 357.14250000000175,
      "v": 110
    },
    {
      "midi": 60,
      "hit": false,
      "t": 41357.101500000164,
      "d": 357.14250000000175,
      "v": 110
    },
    {
      "midi": 65,
      "hit": false,
      "t": 41571.387000000104,
      "d": 209.82121875000303,
      "v": 110
    },
    {
      "midi": 74,
      "hit": false,
      "t": 41571.387000000104,
      "d": 209.82121875000303,
      "v": 110
    },
    {
      "midi": 67,
      "hit": false,
      "t": 41785.67250000011,
      "d": 209.82121875000303,
      "v": 110
    },
    {
      "midi": 76,
      "hit": false,
      "t": 41785.67250000011,
      "d": 209.82121875000303,
      "v": 110
    },
    {
      "midi": 48,
      "hit": false,
      "t": 41785.67250000017,
      "d": 357.14250000000175,
      "v": 110
    },
    {
      "midi": 60,
      "hit": false,
      "t": 41785.67250000017,
      "d": 357.14250000000175,
      "v": 110
    },
    {
      "midi": 72,
      "hit": false,
      "t": 41999.958000000115,
      "d": 209.82121875000303,
      "v": 110
    },
    {
      "midi": 79,
      "hit": false,
      "t": 42214.24350000012,
      "d": 209.82121875000303,
      "v": 110
    },
    {
      "midi": 55,
      "hit": false,
      "t": 42214.24350000017,
      "d": 209.82121875000303,
      "v": 110
    },
    {
      "midi": 72,
      "hit": false,
      "t": 42428.529000000126,
      "d": 209.82121875000303,
      "v": 110
    },
    {
      "midi": 48,
      "hit": false,
      "t": 42428.52900000018,
      "d": 357.14250000000175,
      "v": 110
    },
    {
      "midi": 60,
      "hit": false,
      "t": 42428.52900000018,
      "d": 357.14250000000175,
      "v": 110
    },
    {
      "midi": 74,
      "hit": false,
      "t": 42642.81450000013,
      "d": 209.82121875000303,
      "v": 110
    },
    {
      "midi": 64,
      "hit": false,
      "t": 42857.10000000014,
      "d": 357.14250000000175,
      "v": 110
    },
    {
      "midi": 72,
      "hit": false,
      "t": 42857.10000000014,
      "d": 357.14250000000175,
      "v": 110
    },
    {
      "midi": 48,
      "hit": false,
      "t": 42857.10000000018,
      "d": 209.82121875000303,
      "v": 110
    },
    {
      "midi": 60,
      "hit": false,
      "t": 42857.10000000018,
      "d": 209.82121875000303,
      "v": 110
    },
    {
      "midi": 48,
      "hit": false,
      "t": 43071.385500000186,
      "d": 357.14250000000175,
      "v": 110
    },
    {
      "midi": 60,
      "hit": false,
      "t": 43071.385500000186,
      "d": 357.14250000000175,
      "v": 110
    },
    {
      "midi": 65,
      "hit": false,
      "t": 43285.67100000014,
      "d": 209.82121875000303,
      "v": 110
    },
    {
      "midi": 74,
      "hit": false,
      "t": 43285.67100000014,
      "d": 209.82121875000303,
      "v": 110
    },
    {
      "midi": 67,
      "hit": false,
      "t": 43499.956500000146,
      "d": 209.82121875000303,
      "v": 110
    },
    {
      "midi": 76,
      "hit": false,
      "t": 43499.956500000146,
      "d": 209.82121875000303,
      "v": 110
    },
    {
      "midi": 48,
      "hit": false,
      "t": 43499.95650000019,
      "d": 357.14250000000175,
      "v": 110
    },
    {
      "midi": 60,
      "hit": false,
      "t": 43499.95650000019,
      "d": 357.14250000000175,
      "v": 110
    },
    {
      "midi": 72,
      "hit": false,
      "t": 43714.24200000015,
      "d": 209.82121875000303,
      "v": 110
    },
    {
      "midi": 69,
      "hit": false,
      "t": 43928.52750000016,
      "d": 209.82121875000303,
      "v": 110
    },
    {
      "midi": 77,
      "hit": false,
      "t": 43928.52750000016,
      "d": 209.82121875000303,
      "v": 110
    },
    {
      "midi": 55,
      "hit": false,
      "t": 43928.52750000019,
      "d": 209.82121875000303,
      "v": 110
    },
    {
      "midi": 72,
      "hit": false,
      "t": 44142.81300000016,
      "d": 209.82121875000303,
      "v": 110
    },
    {
      "midi": 79,
      "hit": false,
      "t": 44142.81300000016,
      "d": 209.82121875000303,
      "v": 110
    },
    {
      "midi": 48,
      "hit": false,
      "t": 44142.8130000002,
      "d": 357.14250000000175,
      "v": 110
    },
    {
      "midi": 60,
      "hit": false,
      "t": 44142.8130000002,
      "d": 357.14250000000175,
      "v": 110
    },
    {
      "midi": 69,
      "hit": false,
      "t": 44357.09850000017,
      "d": 209.82121875000303,
      "v": 110
    },
    {
      "midi": 77,
      "hit": false,
      "t": 44357.09850000017,
      "d": 209.82121875000303,
      "v": 110
    },
    {
      "midi": 67,
      "hit": false,
      "t": 44571.38400000017,
      "d": 357.14250000000175,
      "v": 110
    },
    {
      "midi": 76,
      "hit": false,
      "t": 44571.38400000017,
      "d": 357.14250000000175,
      "v": 110
    },
    {
      "midi": 46,
      "hit": false,
      "t": 44571.3840000002,
      "d": 209.82121875000303,
      "v": 110
    },
    {
      "midi": 58,
      "hit": false,
      "t": 44571.3840000002,
      "d": 209.82121875000303,
      "v": 110
    },
    {
      "midi": 46,
      "hit": false,
      "t": 44785.66950000021,
      "d": 357.14250000000175,
      "v": 110
    },
    {
      "midi": 58,
      "hit": false,
      "t": 44785.66950000021,
      "d": 357.14250000000175,
      "v": 110
    },
    {
      "midi": 70,
      "hit": false,
      "t": 44999.95500000018,
      "d": 209.82121875000303,
      "v": 110
    },
    {
      "midi": 65,
      "hit": false,
      "t": 45214.24050000018,
      "d": 102.67846874999668,
      "v": 110
    },
    {
      "midi": 74,
      "hit": false,
      "t": 45214.24050000018,
      "d": 102.67846874999668,
      "v": 110
    },
    {
      "midi": 46,
      "hit": false,
      "t": 45214.24050000021,
      "d": 357.14250000000175,
      "v": 110
    },
    {
      "midi": 58,
      "hit": false,
      "t": 45214.24050000021,
      "d": 357.14250000000175,
      "v": 110
    },
    {
      "midi": 64,
      "hit": false,
      "t": 45321.38325000018,
      "d": 102.67846874999668,
      "v": 110
    },
    {
      "midi": 72,
      "hit": false,
      "t": 45321.38325000018,
      "d": 102.67846874999668,
      "v": 110
    },
    {
      "midi": 65,
      "hit": false,
      "t": 45428.52600000018,
      "d": 209.82121875000303,
      "v": 110
    },
    {
      "midi": 74,
      "hit": false,
      "t": 45428.52600000018,
      "d": 209.82121875000303,
      "v": 110
    },
    {
      "midi": 77,
      "hit": false,
      "t": 45642.811500000185,
      "d": 209.82121875000303,
      "v": 110
    },
    {
      "midi": 53,
      "hit": false,
      "t": 45642.811500000214,
      "d": 209.82121875000303,
      "v": 110
    },
    {
      "midi": 72,
      "hit": false,
      "t": 45857.09700000019,
      "d": 209.82121875000303,
      "v": 110
    },
    {
      "midi": 46,
      "hit": false,
      "t": 45857.09700000022,
      "d": 357.14250000000175,
      "v": 110
    },
    {
      "midi": 58,
      "hit": false,
      "t": 45857.09700000022,
      "d": 357.14250000000175,
      "v": 110
    },
    {
      "midi": 74,
      "hit": false,
      "t": 46071.382500000196,
      "d": 209.82121875000303,
      "v": 110
    },
    {
      "midi": 72,
      "hit": false,
      "t": 46285.6680000002,
      "d": 209.82121875000303,
      "v": 110
    },
    {
      "midi": 46,
      "hit": false,
      "t": 46285.66800000022,
      "d": 209.82121875000303,
      "v": 110
    },
    {
      "midi": 58,
      "hit": false,
      "t": 46285.66800000022,
      "d": 209.82121875000303,
      "v": 110
    },
    {
      "midi": 74,
      "hit": false,
      "t": 46499.95350000021,
      "d": 209.82121875000303,
      "v": 110
    },
    {
      "midi": 46,
      "hit": false,
      "t": 46499.95350000023,
      "d": 357.14250000000175,
      "v": 110
    },
    {
      "midi": 58,
      "hit": false,
      "t": 46499.95350000023,
      "d": 357.14250000000175,
      "v": 110
    },
    {
      "midi": 77,
      "hit": false,
      "t": 46714.23900000021,
      "d": 209.82121875000303,
      "v": 110
    },
    {
      "midi": 72,
      "hit": false,
      "t": 46928.52450000022,
      "d": 209.82121875000303,
      "v": 110
    },
    {
      "midi": 46,
      "hit": false,
      "t": 46928.52450000023,
      "d": 357.14250000000175,
      "v": 110
    },
    {
      "midi": 58,
      "hit": false,
      "t": 46928.52450000023,
      "d": 357.14250000000175,
      "v": 110
    },
    {
      "midi": 74,
      "hit": false,
      "t": 47142.81000000022,
      "d": 209.82121875000303,
      "v": 110
    },
    {
      "midi": 77,
      "hit": false,
      "t": 47357.09550000023,
      "d": 209.82121875000303,
      "v": 110
    },
    {
      "midi": 53,
      "hit": false,
      "t": 47357.095500000236,
      "d": 209.82121875000303,
      "v": 110
    },
    {
      "midi": 72,
      "hit": false,
      "t": 47571.381000000234,
      "d": 209.82121875000303,
      "v": 110
    },
    {
      "midi": 46,
      "hit": false,
      "t": 47571.38100000024,
      "d": 357.14250000000175,
      "v": 110
    },
    {
      "midi": 58,
      "hit": false,
      "t": 47571.38100000024,
      "d": 357.14250000000175,
      "v": 110
    },
    {
      "midi": 74,
      "hit": false,
      "t": 47785.66650000024,
      "d": 209.82121875000303,
      "v": 110
    },
    {
      "midi": 64,
      "hit": false,
      "t": 47999.952000000245,
      "d": 357.14250000000175,
      "v": 110
    },
    {
      "midi": 72,
      "hit": false,
      "t": 47999.952000000245,
      "d": 357.14250000000175,
      "v": 110
    },
    {
      "midi": 48,
      "hit": false,
      "t": 47999.952000000245,
      "d": 209.82121875000303,
      "v": 110
    },
    {
      "midi": 60,
      "hit": false,
      "t": 47999.952000000245,
      "d": 209.82121875000303,
      "v": 110
    },
    {
      "midi": 48,
      "hit": false,
      "t": 48214.23750000025,
      "d": 357.14250000000175,
      "v": 110
    },
    {
      "midi": 60,
      "hit": false,
      "t": 48214.23750000025,
      "d": 357.14250000000175,
      "v": 110
    },
    {
      "midi": 65,
      "hit": false,
      "t": 48428.52300000025,
      "d": 209.82121875000303,
      "v": 110
    },
    {
      "midi": 74,
      "hit": false,
      "t": 48428.52300000025,
      "d": 209.82121875000303,
      "v": 110
    },
    {
      "midi": 67,
      "hit": false,
      "t": 48642.808500000254,
      "d": 209.82121875000303,
      "v": 110
    },
    {
      "midi": 76,
      "hit": false,
      "t": 48642.808500000254,
      "d": 209.82121875000303,
      "v": 110
    },
    {
      "midi": 48,
      "hit": false,
      "t": 48642.808500000254,
      "d": 357.14250000000175,
      "v": 110
    },
    {
      "midi": 60,
      "hit": false,
      "t": 48642.808500000254,
      "d": 357.14250000000175,
      "v": 110
    },
    {
      "midi": 72,
      "hit": false,
      "t": 48857.09400000026,
      "d": 209.82121875000303,
      "v": 110
    },
    {
      "midi": 55,
      "hit": false,
      "t": 49071.37950000026,
      "d": 209.82121875000303,
      "v": 110
    },
    {
      "midi": 79,
      "hit": false,
      "t": 49071.379500000265,
      "d": 209.82121875000303,
      "v": 110
    },
    {
      "midi": 48,
      "hit": false,
      "t": 49285.66500000026,
      "d": 357.14250000000175,
      "v": 110
    },
    {
      "midi": 60,
      "hit": false,
      "t": 49285.66500000026,
      "d": 357.14250000000175,
      "v": 110
    },
    {
      "midi": 72,
      "hit": false,
      "t": 49285.66500000027,
      "d": 209.82121875000303,
      "v": 110
    },
    {
      "midi": 74,
      "hit": false,
      "t": 49499.950500000275,
      "d": 209.82121875000303,
      "v": 110
    },
    {
      "midi": 48,
      "hit": false,
      "t": 49714.236000000266,
      "d": 209.82121875000303,
      "v": 110
    },
    {
      "midi": 60,
      "hit": false,
      "t": 49714.236000000266,
      "d": 209.82121875000303,
      "v": 110
    },
    {
      "midi": 64,
      "hit": false,
      "t": 49714.23600000028,
      "d": 357.14250000000175,
      "v": 110
    },
    {
      "midi": 72,
      "hit": false,
      "t": 49714.23600000028,
      "d": 357.14250000000175,
      "v": 110
    },
    {
      "midi": 48,
      "hit": false,
      "t": 49928.52150000027,
      "d": 357.14250000000175,
      "v": 110
    },
    {
      "midi": 60,
      "hit": false,
      "t": 49928.52150000027,
      "d": 357.14250000000175,
      "v": 110
    },
    {
      "midi": 65,
      "hit": false,
      "t": 50142.807000000284,
      "d": 209.82121875000303,
      "v": 110
    },
    {
      "midi": 74,
      "hit": false,
      "t": 50142.807000000284,
      "d": 209.82121875000303,
      "v": 110
    },
    {
      "midi": 48,
      "hit": false,
      "t": 50357.092500000275,
      "d": 357.14250000000175,
      "v": 110
    },
    {
      "midi": 60,
      "hit": false,
      "t": 50357.092500000275,
      "d": 357.14250000000175,
      "v": 110
    },
    {
      "midi": 67,
      "hit": false,
      "t": 50357.09250000029,
      "d": 209.82121875000303,
      "v": 110
    },
    {
      "midi": 76,
      "hit": false,
      "t": 50357.09250000029,
      "d": 209.82121875000303,
      "v": 110
    },
    {
      "midi": 72,
      "hit": false,
      "t": 50571.378000000295,
      "d": 209.82121875000303,
      "v": 110
    },
    {
      "midi": 55,
      "hit": false,
      "t": 50785.66350000028,
      "d": 209.82121875000303,
      "v": 110
    },
    {
      "midi": 69,
      "hit": false,
      "t": 50785.6635000003,
      "d": 209.82121875000303,
      "v": 110
    },
    {
      "midi": 77,
      "hit": false,
      "t": 50785.6635000003,
      "d": 209.82121875000303,
      "v": 110
    },
    {
      "midi": 48,
      "hit": false,
      "t": 50999.949000000284,
      "d": 357.14250000000175,
      "v": 110
    },
    {
      "midi": 60,
      "hit": false,
      "t": 50999.949000000284,
      "d": 357.14250000000175,
      "v": 110
    },
    {
      "midi": 72,
      "hit": false,
      "t": 50999.949000000306,
      "d": 209.82121875000303,
      "v": 110
    },
    {
      "midi": 79,
      "hit": false,
      "t": 50999.949000000306,
      "d": 209.82121875000303,
      "v": 110
    },
    {
      "midi": 69,
      "hit": false,
      "t": 51214.23450000031,
      "d": 209.82121875000303,
      "v": 110
    },
    {
      "midi": 77,
      "hit": false,
      "t": 51214.23450000031,
      "d": 209.82121875000303,
      "v": 110
    },
    {
      "midi": 46,
      "hit": false,
      "t": 51428.52000000029,
      "d": 209.82121875000303,
      "v": 110
    },
    {
      "midi": 58,
      "hit": false,
      "t": 51428.52000000029,
      "d": 209.82121875000303,
      "v": 110
    },
    {
      "midi": 67,
      "hit": false,
      "t": 51428.52000000032,
      "d": 357.14250000000175,
      "v": 110
    },
    {
      "midi": 76,
      "hit": false,
      "t": 51428.52000000032,
      "d": 357.14250000000175,
      "v": 110
    },
    {
      "midi": 46,
      "hit": false,
      "t": 51642.80550000029,
      "d": 357.14250000000175,
      "v": 110
    },
    {
      "midi": 58,
      "hit": false,
      "t": 51642.80550000029,
      "d": 357.14250000000175,
      "v": 110
    },
    {
      "midi": 70,
      "hit": false,
      "t": 51857.09100000032,
      "d": 209.82121875000303,
      "v": 110
    },
    {
      "midi": 46,
      "hit": false,
      "t": 52071.3765000003,
      "d": 357.14250000000175,
      "v": 110
    },
    {
      "midi": 58,
      "hit": false,
      "t": 52071.3765000003,
      "d": 357.14250000000175,
      "v": 110
    },
    {
      "midi": 65,
      "hit": false,
      "t": 52071.376500000326,
      "d": 102.67846874999668,
      "v": 110
    },
    {
      "midi": 74,
      "hit": false,
      "t": 52071.376500000326,
      "d": 102.67846874999668,
      "v": 110
    },
    {
      "midi": 64,
      "hit": false,
      "t": 52178.519250000325,
      "d": 102.67846874999668,
      "v": 110
    },
    {
      "midi": 72,
      "hit": false,
      "t": 52178.519250000325,
      "d": 102.67846874999668,
      "v": 110
    },
    {
      "midi": 65,
      "hit": false,
      "t": 52285.662000000324,
      "d": 209.82121875000303,
      "v": 110
    },
    {
      "midi": 74,
      "hit": false,
      "t": 52285.662000000324,
      "d": 209.82121875000303,
      "v": 110
    },
    {
      "midi": 53,
      "hit": false,
      "t": 52499.9475000003,
      "d": 209.82121875000303,
      "v": 110
    },
    {
      "midi": 77,
      "hit": false,
      "t": 52499.94750000033,
      "d": 209.82121875000303,
      "v": 110
    },
    {
      "midi": 46,
      "hit": false,
      "t": 52714.233000000306,
      "d": 357.14250000000175,
      "v": 110
    },
    {
      "midi": 58,
      "hit": false,
      "t": 52714.233000000306,
      "d": 357.14250000000175,
      "v": 110
    },
    {
      "midi": 72,
      "hit": false,
      "t": 52714.233000000335,
      "d": 209.82121875000303,
      "v": 110
    },
    {
      "midi": 74,
      "hit": false,
      "t": 52928.51850000034,
      "d": 209.82121875000303,
      "v": 110
    },
    {
      "midi": 46,
      "hit": false,
      "t": 53142.80400000031,
      "d": 209.82121875000303,
      "v": 110
    },
    {
      "midi": 58,
      "hit": false,
      "t": 53142.80400000031,
      "d": 209.82121875000303,
      "v": 110
    },
    {
      "midi": 72,
      "hit": false,
      "t": 53142.804000000346,
      "d": 209.82121875000303,
      "v": 110
    },
    {
      "midi": 46,
      "hit": false,
      "t": 53357.089500000315,
      "d": 357.14250000000175,
      "v": 110
    },
    {
      "midi": 58,
      "hit": false,
      "t": 53357.089500000315,
      "d": 357.14250000000175,
      "v": 110
    },
    {
      "midi": 74,
      "hit": false,
      "t": 53357.08950000035,
      "d": 209.82121875000303,
      "v": 110
    },
    {
      "midi": 77,
      "hit": false,
      "t": 53571.37500000036,
      "d": 209.82121875000303,
      "v": 110
    },
    {
      "midi": 46,
      "hit": false,
      "t": 53785.66050000032,
      "d": 357.14250000000175,
      "v": 110
    },
    {
      "midi": 58,
      "hit": false,
      "t": 53785.66050000032,
      "d": 357.14250000000175,
      "v": 110
    },
    {
      "midi": 74,
      "hit": false,
      "t": 53785.66050000036,
      "d": 209.82121875000303,
      "v": 110
    },
    {
      "midi": 65,
      "hit": false,
      "t": 53999.94600000037,
      "d": 357.14250000000175,
      "v": 110
    },
    {
      "midi": 72,
      "hit": false,
      "t": 53999.94600000037,
      "d": 357.14250000000175,
      "v": 110
    },
    {
      "midi": 53,
      "hit": false,
      "t": 54214.23150000032,
      "d": 209.82121875000303,
      "v": 110
    },
    {
      "midi": 46,
      "hit": false,
      "t": 54428.51700000033,
      "d": 357.14250000000175,
      "v": 110
    },
    {
      "midi": 58,
      "hit": false,
      "t": 54428.51700000033,
      "d": 357.14250000000175,
      "v": 110
    },
    {
      "midi": 65,
      "hit": false,
      "t": 54428.51700000037,
      "d": 209.82121875000303,
      "v": 110
    },
    {
      "midi": 70,
      "hit": false,
      "t": 54428.51700000037,
      "d": 209.82121875000303,
      "v": 110
    },
    {
      "midi": 74,
      "hit": false,
      "t": 54428.51700000037,
      "d": 209.82121875000303,
      "v": 110
    },
    {
      "midi": 70,
      "hit": false,
      "t": 54642.802500000376,
      "d": 209.82121875000303,
      "v": 110
    },
    {
      "midi": 45,
      "hit": false,
      "t": 54857.08800000033,
      "d": 571.4279999999999,
      "v": 110
    },
    {
      "midi": 57,
      "hit": false,
      "t": 54857.08800000033,
      "d": 571.4279999999999,
      "v": 110
    },
    {
      "midi": 67,
      "hit": false,
      "t": 54857.08800000038,
      "d": 571.4279999999999,
      "v": 110
    },
    {
      "midi": 72,
      "hit": false,
      "t": 54857.08800000038,
      "d": 571.4279999999999,
      "v": 110
    },
    {
      "midi": 76,
      "hit": false,
      "t": 54857.08800000038,
      "d": 571.4279999999999,
      "v": 110
    },
    {
      "midi": 45,
      "hit": false,
      "t": 55499.94450000033,
      "d": 571.4279999999999,
      "v": 110
    },
    {
      "midi": 57,
      "hit": false,
      "t": 55499.94450000033,
      "d": 571.4279999999999,
      "v": 110
    },
    {
      "midi": 83,
      "hit": false,
      "t": 55499.94450000038,
      "d": 102.67846874999668,
      "v": 110
    },
    {
      "midi": 81,
      "hit": false,
      "t": 55607.08725000038,
      "d": 102.67846874999668,
      "v": 110
    },
    {
      "midi": 79,
      "hit": false,
      "t": 55714.23000000038,
      "d": 571.4279999999999,
      "v": 110
    },
    {
      "midi": 83,
      "hit": false,
      "t": 55714.23000000038,
      "d": 571.4279999999999,
      "v": 110
    },
    {
      "midi": 52,
      "hit": false,
      "t": 56142.801000000334,
      "d": 357.14250000000175,
      "v": 110
    },
    {
      "midi": 79,
      "hit": false,
      "t": 56357.08650000038,
      "d": 102.67846874999668,
      "v": 110
    },
    {
      "midi": 78,
      "hit": false,
      "t": 56464.22925000038,
      "d": 102.67846874999668,
      "v": 110
    },
    {
      "midi": 33,
      "hit": false,
      "t": 56571.37200000034,
      "d": 571.4279999999999,
      "v": 110
    },
    {
      "midi": 45,
      "hit": false,
      "t": 56571.37200000034,
      "d": 571.4279999999999,
      "v": 110
    },
    {
      "midi": 71,
      "hit": false,
      "t": 56571.37200000038,
      "d": 749.9992500000008,
      "v": 110
    },
    {
      "midi": 76,
      "hit": false,
      "t": 56571.37200000038,
      "d": 749.9992500000008,
      "v": 110
    },
    {
      "midi": 79,
      "hit": false,
      "t": 56571.37200000038,
      "d": 749.9992500000008,
      "v": 110
    },
    {
      "midi": 33,
      "hit": false,
      "t": 57214.22850000034,
      "d": 571.4279999999999,
      "v": 110
    },
    {
      "midi": 45,
      "hit": false,
      "t": 57214.22850000034,
      "d": 571.4279999999999,
      "v": 110
    },
    {
      "midi": 74,
      "hit": false,
      "t": 57428.51400000038,
      "d": 357.14250000000175,
      "v": 110
    },
    {
      "midi": 33,
      "hit": false,
      "t": 57857.08500000034,
      "d": 357.14250000000175,
      "v": 110
    },
    {
      "midi": 45,
      "hit": false,
      "t": 57857.08500000034,
      "d": 357.14250000000175,
      "v": 110
    },
    {
      "midi": 76,
      "hit": false,
      "t": 57857.085000000385,
      "d": 357.14250000000175,
      "v": 110
    },
    {
      "midi": 43,
      "hit": false,
      "t": 58285.656000000345,
      "d": 571.4279999999999,
      "v": 110
    },
    {
      "midi": 55,
      "hit": false,
      "t": 58285.656000000345,
      "d": 571.4279999999999,
      "v": 110
    },
    {
      "midi": 67,
      "hit": false,
      "t": 58285.65600000039,
      "d": 571.4279999999999,
      "v": 110
    },
    {
      "midi": 74,
      "hit": false,
      "t": 58285.65600000039,
      "d": 571.4279999999999,
      "v": 110
    },
    {
      "midi": 79,
      "hit": false,
      "t": 58285.65600000039,
      "d": 571.4279999999999,
      "v": 110
    },
    {
      "midi": 43,
      "hit": false,
      "t": 58928.512500000346,
      "d": 571.4279999999999,
      "v": 110
    },
    {
      "midi": 55,
      "hit": false,
      "t": 58928.512500000346,
      "d": 571.4279999999999,
      "v": 110
    },
    {
      "midi": 69,
      "hit": false,
      "t": 58928.51250000039,
      "d": 1821.4267499999987,
      "v": 110
    },
    {
      "midi": 74,
      "hit": false,
      "t": 58928.51250000039,
      "d": 1821.4267499999987,
      "v": 110
    },
    {
      "midi": 50,
      "hit": false,
      "t": 59571.36900000035,
      "d": 357.14250000000175,
      "v": 110
    },
    {
      "midi": 43,
      "hit": false,
      "t": 59999.94000000035,
      "d": 209.82121875000303,
      "v": 110
    },
    {
      "midi": 55,
      "hit": false,
      "t": 59999.94000000035,
      "d": 209.82121875000303,
      "v": 110
    },
    {
      "midi": 43,
      "hit": false,
      "t": 60214.22550000036,
      "d": 357.14250000000175,
      "v": 110
    },
    {
      "midi": 55,
      "hit": false,
      "t": 60214.22550000036,
      "d": 357.14250000000175,
      "v": 110
    },
    {
      "midi": 43,
      "hit": false,
      "t": 60642.79650000036,
      "d": 209.82121875000303,
      "v": 110
    },
    {
      "midi": 55,
      "hit": false,
      "t": 60642.79650000036,
      "d": 209.82121875000303,
      "v": 110
    },
    {
      "midi": 43,
      "hit": false,
      "t": 60857.082000000366,
      "d": 357.14250000000175,
      "v": 110
    },
    {
      "midi": 55,
      "hit": false,
      "t": 60857.082000000366,
      "d": 357.14250000000175,
      "v": 110
    },
    {
      "midi": 67,
      "hit": false,
      "t": 60857.08200000039,
      "d": 357.14250000000175,
      "v": 110
    },
    {
      "midi": 74,
      "hit": false,
      "t": 60857.08200000039,
      "d": 357.14250000000175,
      "v": 110
    },
    {
      "midi": 45,
      "hit": false,
      "t": 61285.65300000037,
      "d": 357.14250000000175,
      "v": 110
    },
    {
      "midi": 57,
      "hit": false,
      "t": 61285.65300000037,
      "d": 357.14250000000175,
      "v": 110
    },
    {
      "midi": 67,
      "hit": false,
      "t": 61285.65300000039,
      "d": 357.14250000000175,
      "v": 110
    },
    {
      "midi": 76,
      "hit": false,
      "t": 61285.65300000039,
      "d": 357.14250000000175,
      "v": 110
    },
    {
      "midi": 46,
      "hit": false,
      "t": 61714.22400000037,
      "d": 571.4279999999999,
      "v": 110
    },
    {
      "midi": 58,
      "hit": false,
      "t": 61714.22400000037,
      "d": 571.4279999999999,
      "v": 110
    },
    {
      "midi": 72,
      "hit": false,
      "t": 61714.224000000395,
      "d": 571.4279999999999,
      "v": 110
    },
    {
      "midi": 77,
      "hit": false,
      "t": 61714.224000000395,
      "d": 571.4279999999999,
      "v": 110
    },
    {
      "midi": 46,
      "hit": false,
      "t": 62357.080500000375,
      "d": 357.14250000000175,
      "v": 110
    },
    {
      "midi": 58,
      "hit": false,
      "t": 62357.080500000375,
      "d": 357.14250000000175,
      "v": 110
    },
    {
      "midi": 69,
      "hit": false,
      "t": 62357.0805000004,
      "d": 102.67846874999668,
      "v": 110
    },
    {
      "midi": 67,
      "hit": false,
      "t": 62464.223250000396,
      "d": 102.67846874999668,
      "v": 110
    },
    {
      "midi": 69,
      "hit": false,
      "t": 62571.366000000395,
      "d": 571.4279999999999,
      "v": 110
    },
    {
      "midi": 72,
      "hit": false,
      "t": 62571.366000000395,
      "d": 571.4279999999999,
      "v": 110
    },
    {
      "midi": 76,
      "hit": false,
      "t": 62571.366000000395,
      "d": 571.4279999999999,
      "v": 110
    },
    {
      "midi": 53,
      "hit": false,
      "t": 62785.65150000038,
      "d": 209.82121875000303,
      "v": 110
    },
    {
      "midi": 46,
      "hit": false,
      "t": 62999.937000000384,
      "d": 357.14250000000175,
      "v": 110
    },
    {
      "midi": 65,
      "hit": false,
      "t": 63214.2225000004,
      "d": 102.67846874999668,
      "v": 110
    },
    {
      "midi": 64,
      "hit": false,
      "t": 63321.365250000395,
      "d": 102.67846874999668,
      "v": 110
    },
    {
      "midi": 46,
      "hit": false,
      "t": 63428.50800000039,
      "d": 209.82121875000303,
      "v": 110
    },
    {
      "midi": 58,
      "hit": false,
      "t": 63428.50800000039,
      "d": 209.82121875000303,
      "v": 110
    },
    {
      "midi": 65,
      "hit": false,
      "t": 63428.508000000395,
      "d": 749.9992500000008,
      "v": 110
    },
    {
      "midi": 70,
      "hit": false,
      "t": 63428.508000000395,
      "d": 749.9992500000008,
      "v": 110
    },
    {
      "midi": 74,
      "hit": false,
      "t": 63428.508000000395,
      "d": 749.9992500000008,
      "v": 110
    },
    {
      "midi": 46,
      "hit": false,
      "t": 63642.79350000039,
      "d": 357.14250000000175,
      "v": 110
    },
    {
      "midi": 58,
      "hit": false,
      "t": 63642.79350000039,
      "d": 357.14250000000175,
      "v": 110
    },
    {
      "midi": 46,
      "hit": false,
      "t": 64071.364500000396,
      "d": 357.14250000000175,
      "v": 110
    },
    {
      "midi": 58,
      "hit": false,
      "t": 64071.364500000396,
      "d": 357.14250000000175,
      "v": 110
    },
    {
      "midi": 67,
      "hit": false,
      "t": 64285.650000000394,
      "d": 357.14250000000175,
      "v": 110
    },
    {
      "midi": 72,
      "hit": false,
      "t": 64285.650000000394,
      "d": 357.14250000000175,
      "v": 110
    },
    {
      "midi": 48,
      "hit": false,
      "t": 64499.9355000004,
      "d": 209.82121875000303,
      "v": 110
    },
    {
      "midi": 70,
      "hit": false,
      "t": 64714.2210000004,
      "d": 357.14250000000175,
      "v": 110
    },
    {
      "midi": 74,
      "hit": false,
      "t": 64714.2210000004,
      "d": 357.14250000000175,
      "v": 110
    },
    {
      "midi": 50,
      "hit": false,
      "t": 64714.221000000405,
      "d": 209.82121875000303,
      "v": 110
    },
    {
      "midi": 51,
      "hit": false,
      "t": 64928.50650000041,
      "d": 209.82121875000303,
      "v": 110
    },
    {
      "midi": 68,
      "hit": false,
      "t": 65142.7920000004,
      "d": 571.4280000000072,
      "v": 110
    },
    {
      "midi": 72,
      "hit": false,
      "t": 65142.7920000004,
      "d": 571.4280000000072,
      "v": 110
    },
    {
      "midi": 41,
      "hit": false,
      "t": 65142.792000000416,
      "d": 571.4280000000072,
      "v": 110
    },
    {
      "midi": 53,
      "hit": false,
      "t": 65142.792000000416,
      "d": 571.4280000000072,
      "v": 110
    },
    {
      "midi": 65,
      "hit": false,
      "t": 65785.6485000004,
      "d": 102.67846875000396,
      "v": 110
    },
    {
      "midi": 41,
      "hit": false,
      "t": 65785.64850000042,
      "d": 357.14250000000175,
      "v": 110
    },
    {
      "midi": 53,
      "hit": false,
      "t": 65785.64850000042,
      "d": 357.14250000000175,
      "v": 110
    },
    {
      "midi": 63,
      "hit": false,
      "t": 65892.7912500004,
      "d": 102.67846875000396,
      "v": 110
    },
    {
      "midi": 60,
      "hit": false,
      "t": 65999.9340000004,
      "d": 571.4279999999999,
      "v": 110
    },
    {
      "midi": 65,
      "hit": false,
      "t": 65999.9340000004,
      "d": 571.4279999999999,
      "v": 110
    },
    {
      "midi": 70,
      "hit": false,
      "t": 65999.9340000004,
      "d": 571.4279999999999,
      "v": 110
    },
    {
      "midi": 48,
      "hit": false,
      "t": 66214.21950000041,
      "d": 209.82121875000303,
      "v": 110
    },
    {
      "midi": 41,
      "hit": false,
      "t": 66428.50500000041,
      "d": 357.14250000000175,
      "v": 110
    },
    {
      "midi": 53,
      "hit": false,
      "t": 66428.50500000041,
      "d": 357.14250000000175,
      "v": 110
    },
    {
      "midi": 63,
      "hit": false,
      "t": 66642.7905000004,
      "d": 102.67846875000396,
      "v": 110
    },
    {
      "midi": 62,
      "hit": false,
      "t": 66749.9332500004,
      "d": 102.67846875000396,
      "v": 110
    },
    {
      "midi": 58,
      "hit": false,
      "t": 66857.0760000004,
      "d": 749.9992499999935,
      "v": 110
    },
    {
      "midi": 63,
      "hit": false,
      "t": 66857.0760000004,
      "d": 749.9992499999935,
      "v": 110
    },
    {
      "midi": 68,
      "hit": false,
      "t": 66857.0760000004,
      "d": 749.9992499999935,
      "v": 110
    },
    {
      "midi": 39,
      "hit": false,
      "t": 66857.07600000041,
      "d": 209.82121875000303,
      "v": 110
    },
    {
      "midi": 51,
      "hit": false,
      "t": 66857.07600000041,
      "d": 209.82121875000303,
      "v": 110
    },
    {
      "midi": 39,
      "hit": false,
      "t": 67071.3615000004,
      "d": 357.14250000000175,
      "v": 110
    },
    {
      "midi": 51,
      "hit": false,
      "t": 67071.3615000004,
      "d": 357.14250000000175,
      "v": 110
    },
    {
      "midi": 39,
      "hit": false,
      "t": 67499.9325000004,
      "d": 357.14250000000175,
      "v": 110
    },
    {
      "midi": 51,
      "hit": false,
      "t": 67499.9325000004,
      "d": 357.14250000000175,
      "v": 110
    },
    {
      "midi": 65,
      "hit": false,
      "t": 67714.21800000039,
      "d": 357.14250000000175,
      "v": 110
    },
    {
      "midi": 46,
      "hit": false,
      "t": 67928.5035000004,
      "d": 209.82121875000303,
      "v": 110
    },
    {
      "midi": 67,
      "hit": false,
      "t": 68142.78900000038,
      "d": 357.14250000000175,
      "v": 110
    },
    {
      "midi": 39,
      "hit": false,
      "t": 68142.7890000004,
      "d": 357.14250000000175,
      "v": 110
    },
    {
      "midi": 51,
      "hit": false,
      "t": 68142.7890000004,
      "d": 357.14250000000175,
      "v": 110
    },
    {
      "midi": 62,
      "hit": false,
      "t": 68571.36000000038,
      "d": 2464.283249999993,
      "v": 110
    },
    {
      "midi": 67,
      "hit": false,
      "t": 68571.36000000038,
      "d": 2464.283249999993,
      "v": 110
    },
    {
      "midi": 74,
      "hit": false,
      "t": 68571.36000000038,
      "d": 2464.283249999993,
      "v": 110
    },
    {
      "midi": 40,
      "hit": false,
      "t": 68571.3600000004,
      "d": 571.4279999999999,
      "v": 110
    },
    {
      "midi": 52,
      "hit": false,
      "t": 68571.3600000004,
      "d": 571.4279999999999,
      "v": 110
    },
    {
      "midi": 40,
      "hit": false,
      "t": 69214.21650000039,
      "d": 357.14250000000175,
      "v": 110
    },
    {
      "midi": 52,
      "hit": false,
      "t": 69214.21650000039,
      "d": 357.14250000000175,
      "v": 110
    },
    {
      "midi": 47,
      "hit": false,
      "t": 69642.78750000038,
      "d": 209.82121875000303,
      "v": 110
    },
    {
      "midi": 40,
      "hit": false,
      "t": 69857.07300000038,
      "d": 357.14250000000175,
      "v": 110
    },
    {
      "midi": 52,
      "hit": false,
      "t": 69857.07300000038,
      "d": 357.14250000000175,
      "v": 110
    },
    {
      "midi": 40,
      "hit": false,
      "t": 70285.64400000038,
      "d": 209.82121875000303,
      "v": 110
    },
    {
      "midi": 52,
      "hit": false,
      "t": 70285.64400000038,
      "d": 209.82121875000303,
      "v": 110
    },
    {
      "midi": 40,
      "hit": false,
      "t": 70499.92950000038,
      "d": 357.14250000000175,
      "v": 110
    },
    {
      "midi": 52,
      "hit": false,
      "t": 70499.92950000038,
      "d": 357.14250000000175,
      "v": 110
    },
    {
      "midi": 40,
      "hit": false,
      "t": 70928.50050000037,
      "d": 357.14250000000175,
      "v": 110
    },
    {
      "midi": 52,
      "hit": false,
      "t": 70928.50050000037,
      "d": 357.14250000000175,
      "v": 110
    },
    {
      "midi": 62,
      "hit": false,
      "t": 71142.78600000037,
      "d": 209.82121875000303,
      "v": 110
    },
    {
      "midi": 76,
      "hit": false,
      "t": 71142.78600000037,
      "d": 209.82121875000303,
      "v": 110
    },
    {
      "midi": 74,
      "hit": false,
      "t": 71357.07150000037,
      "d": 209.82121875000303,
      "v": 110
    },
    {
      "midi": 47,
      "hit": false,
      "t": 71357.07150000037,
      "d": 209.82121875000303,
      "v": 110
    },
    {
      "midi": 64,
      "hit": false,
      "t": 71571.35700000037,
      "d": 209.82121875000303,
      "v": 110
    },
    {
      "midi": 71,
      "hit": false,
      "t": 71571.35700000037,
      "d": 209.82121875000303,
      "v": 110
    },
    {
      "midi": 50,
      "hit": false,
      "t": 71571.35700000037,
      "d": 209.82121875000303,
      "v": 110
    },
    {
      "midi": 66,
      "hit": false,
      "t": 71785.64250000037,
      "d": 209.82121875000303,
      "v": 110
    },
    {
      "midi": 52,
      "hit": false,
      "t": 71785.64250000037,
      "d": 209.82121875000303,
      "v": 110
    },
    {
      "midi": 61,
      "hit": false,
      "t": 71999.92800000036,
      "d": 1178.5702500000043,
      "v": 110
    },
    {
      "midi": 64,
      "hit": false,
      "t": 71999.92800000036,
      "d": 1178.5702500000043,
      "v": 110
    },
    {
      "midi": 69,
      "hit": false,
      "t": 71999.92800000036,
      "d": 1178.5702500000043,
      "v": 110
    },
    {
      "midi": 40,
      "hit": false,
      "t": 71999.92800000036,
      "d": 571.4279999999999,
      "v": 110
    },
    {
      "midi": 52,
      "hit": false,
      "t": 71999.92800000036,
      "d": 571.4279999999999,
      "v": 110
    },
    {
      "midi": 40,
      "hit": false,
      "t": 72642.78450000036,
      "d": 357.14250000000175,
      "v": 110
    },
    {
      "midi": 52,
      "hit": false,
      "t": 72642.78450000036,
      "d": 357.14250000000175,
      "v": 110
    },
    {
      "midi": 47,
      "hit": false,
      "t": 73071.35550000035,
      "d": 209.82121875000303,
      "v": 110
    },
    {
      "midi": 40,
      "hit": false,
      "t": 73285.64100000035,
      "d": 357.14250000000175,
      "v": 110
    },
    {
      "midi": 52,
      "hit": false,
      "t": 73285.64100000035,
      "d": 357.14250000000175,
      "v": 110
    },
    {
      "midi": 71,
      "hit": false,
      "t": 73499.92650000037,
      "d": 209.82121875000303,
      "v": 110
    },
    {
      "midi": 50,
      "hit": false,
      "t": 73714.21200000035,
      "d": 209.82121875000303,
      "v": 110
    },
    {
      "midi": 64,
      "hit": false,
      "t": 73714.21200000036,
      "d": 209.82121875000303,
      "v": 110
    },
    {
      "midi": 67,
      "hit": false,
      "t": 73714.21200000036,
      "d": 209.82121875000303,
      "v": 110
    },
    {
      "midi": 73,
      "hit": false,
      "t": 73714.21200000036,
      "d": 209.82121875000303,
      "v": 110
    },
    {
      "midi": 50,
      "hit": false,
      "t": 73928.49750000035,
      "d": 357.14250000000175,
      "v": 110
    },
    {
      "midi": 74,
      "hit": false,
      "t": 73928.49750000036,
      "d": 209.82121875000303,
      "v": 110
    },
    {
      "midi": 73,
      "hit": false,
      "t": 74142.78300000036,
      "d": 209.82121875000303,
      "v": 110
    },
    {
      "midi": 49,
      "hit": false,
      "t": 74357.06850000034,
      "d": 357.14250000000175,
      "v": 110
    },
    {
      "midi": 61,
      "hit": false,
      "t": 74357.06850000036,
      "d": 209.82121875000303,
      "v": 110
    },
    {
      "midi": 64,
      "hit": false,
      "t": 74357.06850000036,
      "d": 209.82121875000303,
      "v": 110
    },
    {
      "midi": 69,
      "hit": false,
      "t": 74357.06850000036,
      "d": 209.82121875000303,
      "v": 110
    },
    {
      "midi": 67,
      "hit": false,
      "t": 74571.35400000036,
      "d": 209.82121875000303,
      "v": 110
    },
    {
      "midi": 45,
      "hit": false,
      "t": 74785.63950000034,
      "d": 209.82121875000303,
      "v": 110
    },
    {
      "midi": 66,
      "hit": false,
      "t": 74785.63950000035,
      "d": 209.82121875000303,
      "v": 110
    },
    {
      "midi": 40,
      "hit": false,
      "t": 74999.92500000034,
      "d": 209.82121875000303,
      "v": 110
    },
    {
      "midi": 64,
      "hit": false,
      "t": 74999.92500000035,
      "d": 209.82121875000303,
      "v": 110
    },
    {
      "midi": 37,
      "hit": false,
      "t": 75214.21050000034,
      "d": 209.82121875000303,
      "v": 110
    },
    {
      "midi": 61,
      "hit": false,
      "t": 75214.21050000035,
      "d": 209.82121875000303,
      "v": 110
    },
    {
      "midi": 38,
      "hit": false,
      "t": 75428.49600000033,
      "d": 571.4279999999999,
      "v": 110
    },
    {
      "midi": 50,
      "hit": false,
      "t": 75428.49600000033,
      "d": 571.4279999999999,
      "v": 110
    },
    {
      "midi": 57,
      "hit": false,
      "t": 75428.49600000035,
      "d": 209.82121875000303,
      "v": 110
    },
    {
      "midi": 62,
      "hit": false,
      "t": 75428.49600000035,
      "d": 209.82121875000303,
      "v": 110
    },
    {
      "midi": 57,
      "hit": false,
      "t": 75642.78150000035,
      "d": 209.82121875000303,
      "v": 110
    },
    {
      "midi": 64,
      "hit": false,
      "t": 75857.06700000034,
      "d": 209.82121875000303,
      "v": 110
    },
    {
      "midi": 45,
      "hit": false,
      "t": 76071.35250000033,
      "d": 571.4279999999999,
      "v": 110
    },
    {
      "midi": 62,
      "hit": false,
      "t": 76071.35250000034,
      "d": 209.82121875000303,
      "v": 110
    },
    {
      "midi": 66,
      "hit": false,
      "t": 76071.35250000034,
      "d": 209.82121875000303,
      "v": 110
    },
    {
      "midi": 57,
      "hit": false,
      "t": 76285.63800000034,
      "d": 209.82121875000303,
      "v": 110
    },
    {
      "midi": 66,
      "hit": false,
      "t": 76499.92350000034,
      "d": 209.82121875000303,
      "v": 110
    },
    {
      "midi": 50,
      "hit": false,
      "t": 76714.20900000032,
      "d": 357.14250000000175,
      "v": 110
    },
    {
      "midi": 57,
      "hit": false,
      "t": 76714.20900000034,
      "d": 209.82121875000303,
      "v": 110
    },
    {
      "midi": 62,
      "hit": false,
      "t": 76714.20900000034,
      "d": 209.82121875000303,
      "v": 110
    },
    {
      "midi": 57,
      "hit": false,
      "t": 76928.49450000034,
      "d": 209.82121875000303,
      "v": 110
    },
    {
      "midi": 48,
      "hit": false,
      "t": 77142.78000000032,
      "d": 571.4279999999999,
      "v": 110
    },
    {
      "midi": 60,
      "hit": false,
      "t": 77142.78000000033,
      "d": 209.82121875000303,
      "v": 110
    },
    {
      "midi": 64,
      "hit": false,
      "t": 77142.78000000033,
      "d": 209.82121875000303,
      "v": 110
    },
    {
      "midi": 66,
      "hit": false,
      "t": 77357.06550000033,
      "d": 209.82121875000303,
      "v": 110
    },
    {
      "midi": 64,
      "hit": false,
      "t": 77571.35100000033,
      "d": 209.82121875000303,
      "v": 110
    },
    {
      "midi": 67,
      "hit": false,
      "t": 77571.35100000033,
      "d": 209.82121875000303,
      "v": 110
    },
    {
      "midi": 43,
      "hit": false,
      "t": 77785.63650000031,
      "d": 571.4279999999999,
      "v": 110
    },
    {
      "midi": 64,
      "hit": false,
      "t": 77785.63650000033,
      "d": 209.82121875000303,
      "v": 110
    },
    {
      "midi": 67,
      "hit": false,
      "t": 77785.63650000033,
      "d": 209.82121875000303,
      "v": 110
    },
    {
      "midi": 60,
      "hit": false,
      "t": 77999.92200000033,
      "d": 209.82121875000303,
      "v": 110
    },
    {
      "midi": 62,
      "hit": false,
      "t": 78214.20750000032,
      "d": 209.82121875000303,
      "v": 110
    },
    {
      "midi": 66,
      "hit": false,
      "t": 78214.20750000032,
      "d": 209.82121875000303,
      "v": 110
    },
    {
      "midi": 48,
      "hit": false,
      "t": 78428.49300000031,
      "d": 357.14250000000175,
      "v": 110
    },
    {
      "midi": 60,
      "hit": false,
      "t": 78428.49300000032,
      "d": 209.82121875000303,
      "v": 110
    },
    {
      "midi": 64,
      "hit": false,
      "t": 78428.49300000032,
      "d": 209.82121875000303,
      "v": 110
    },
    {
      "midi": 60,
      "hit": false,
      "t": 78642.77850000032,
      "d": 209.82121875000303,
      "v": 110
    },
    {
      "midi": 46,
      "hit": false,
      "t": 78857.0640000003,
      "d": 571.4279999999999,
      "v": 110
    },
    {
      "midi": 58,
      "hit": false,
      "t": 78857.06400000032,
      "d": 209.82121875000303,
      "v": 110
    },
    {
      "midi": 62,
      "hit": false,
      "t": 78857.06400000032,
      "d": 209.82121875000303,
      "v": 110
    },
    {
      "midi": 64,
      "hit": false,
      "t": 79071.34950000032,
      "d": 209.82121875000303,
      "v": 110
    },
    {
      "midi": 62,
      "hit": false,
      "t": 79285.63500000031,
      "d": 209.82121875000303,
      "v": 110
    },
    {
      "midi": 45,
      "hit": false,
      "t": 79499.9205000003,
      "d": 571.4279999999999,
      "v": 110
    },
    {
      "midi": 57,
      "hit": false,
      "t": 79499.92050000031,
      "d": 209.82121875000303,
      "v": 110
    },
    {
      "midi": 60,
      "hit": false,
      "t": 79499.92050000031,
      "d": 209.82121875000303,
      "v": 110
    },
    {
      "midi": 57,
      "hit": false,
      "t": 79714.20600000031,
      "d": 209.82121875000303,
      "v": 110
    },
    {
      "midi": 65,
      "hit": false,
      "t": 79928.49150000031,
      "d": 209.82121875000303,
      "v": 110
    },
    {
      "midi": 45,
      "hit": false,
      "t": 80142.7770000003,
      "d": 357.14250000000175,
      "v": 110
    },
    {
      "midi": 60,
      "hit": false,
      "t": 80142.77700000031,
      "d": 209.82121875000303,
      "v": 110
    },
    {
      "midi": 64,
      "hit": false,
      "t": 80142.77700000031,
      "d": 209.82121875000303,
      "v": 110
    },
    {
      "midi": 57,
      "hit": false,
      "t": 80357.0625000003,
      "d": 209.82121875000303,
      "v": 110
    },
    {
      "midi": 38,
      "hit": false,
      "t": 80571.34800000029,
      "d": 571.4279999999999,
      "v": 110
    },
    {
      "midi": 60,
      "hit": false,
      "t": 80571.3480000003,
      "d": 209.82121875000303,
      "v": 110
    },
    {
      "midi": 62,
      "hit": false,
      "t": 80785.6335000003,
      "d": 209.82121875000303,
      "v": 110
    },
    {
      "midi": 57,
      "hit": false,
      "t": 80999.9190000003,
      "d": 209.82121875000303,
      "v": 110
    },
    {
      "midi": 38,
      "hit": false,
      "t": 81214.20450000028,
      "d": 571.4279999999999,
      "v": 110
    },
    {
      "midi": 62,
      "hit": false,
      "t": 81214.2045000003,
      "d": 209.82121875000303,
      "v": 110
    },
    {
      "midi": 67,
      "hit": false,
      "t": 81214.2045000003,
      "d": 209.82121875000303,
      "v": 110
    },
    {
      "midi": 66,
      "hit": false,
      "t": 81428.4900000003,
      "d": 209.82121875000303,
      "v": 110
    },
    {
      "midi": 62,
      "hit": false,
      "t": 81642.7755000003,
      "d": 209.82121875000303,
      "v": 110
    },
    {
      "midi": 45,
      "hit": false,
      "t": 81857.06100000028,
      "d": 357.14250000000175,
      "v": 110
    },
    {
      "midi": 57,
      "hit": false,
      "t": 81857.06100000029,
      "d": 209.82121875000303,
      "v": 110
    },
    {
      "midi": 54,
      "hit": false,
      "t": 82071.34650000029,
      "d": 209.82121875000303,
      "v": 110
    },
    {
      "midi": 50,
      "hit": false,
      "t": 82285.63200000027,
      "d": 571.4279999999999,
      "v": 110
    },
    {
      "midi": 57,
      "hit": false,
      "t": 82285.63200000029,
      "d": 209.82121875000303,
      "v": 110
    },
    {
      "midi": 62,
      "hit": false,
      "t": 82285.63200000029,
      "d": 209.82121875000303,
      "v": 110
    },
    {
      "midi": 57,
      "hit": false,
      "t": 82499.91750000029,
      "d": 209.82121875000303,
      "v": 110
    },
    {
      "midi": 64,
      "hit": false,
      "t": 82714.20300000029,
      "d": 209.82121875000303,
      "v": 110
    },
    {
      "midi": 45,
      "hit": false,
      "t": 82928.48850000027,
      "d": 571.4279999999999,
      "v": 110
    },
    {
      "midi": 62,
      "hit": false,
      "t": 82928.48850000028,
      "d": 209.82121875000303,
      "v": 110
    },
    {
      "midi": 66,
      "hit": false,
      "t": 82928.48850000028,
      "d": 209.82121875000303,
      "v": 110
    },
    {
      "midi": 57,
      "hit": false,
      "t": 83142.77400000028,
      "d": 209.82121875000303,
      "v": 110
    },
    {
      "midi": 66,
      "hit": false,
      "t": 83357.05950000028,
      "d": 209.82121875000303,
      "v": 110
    },
    {
      "midi": 50,
      "hit": false,
      "t": 83571.34500000026,
      "d": 357.14250000000175,
      "v": 110
    },
    {
      "midi": 57,
      "hit": false,
      "t": 83571.34500000028,
      "d": 209.82121875000303,
      "v": 110
    },
    {
      "midi": 62,
      "hit": false,
      "t": 83571.34500000028,
      "d": 209.82121875000303,
      "v": 110
    },
    {
      "midi": 57,
      "hit": false,
      "t": 83785.63050000028,
      "d": 209.82121875000303,
      "v": 110
    },
    {
      "midi": 48,
      "hit": false,
      "t": 83999.91600000026,
      "d": 571.4279999999999,
      "v": 110
    },
    {
      "midi": 60,
      "hit": false,
      "t": 83999.91600000027,
      "d": 209.82121875000303,
      "v": 110
    },
    {
      "midi": 64,
      "hit": false,
      "t": 83999.91600000027,
      "d": 209.82121875000303,
      "v": 110
    },
    {
      "midi": 66,
      "hit": false,
      "t": 84214.20150000027,
      "d": 209.82121875000303,
      "v": 110
    },
    {
      "midi": 64,
      "hit": false,
      "t": 84428.48700000027,
      "d": 209.82121875000303,
      "v": 110
    },
    {
      "midi": 67,
      "hit": false,
      "t": 84428.48700000027,
      "d": 209.82121875000303,
      "v": 110
    },
    {
      "midi": 43,
      "hit": false,
      "t": 84642.77250000025,
      "d": 571.4279999999999,
      "v": 110
    },
    {
      "midi": 64,
      "hit": false,
      "t": 84642.77250000027,
      "d": 209.82121875000303,
      "v": 110
    },
    {
      "midi": 67,
      "hit": false,
      "t": 84642.77250000027,
      "d": 209.82121875000303,
      "v": 110
    },
    {
      "midi": 60,
      "hit": false,
      "t": 84857.05800000027,
      "d": 209.82121875000303,
      "v": 110
    },
    {
      "midi": 62,
      "hit": false,
      "t": 85071.34350000026,
      "d": 209.82121875000303,
      "v": 110
    },
    {
      "midi": 66,
      "hit": false,
      "t": 85071.34350000026,
      "d": 209.82121875000303,
      "v": 110
    },
    {
      "midi": 48,
      "hit": false,
      "t": 85285.62900000025,
      "d": 357.14250000000175,
      "v": 110
    },
    {
      "midi": 60,
      "hit": false,
      "t": 85285.62900000026,
      "d": 209.82121875000303,
      "v": 110
    },
    {
      "midi": 64,
      "hit": false,
      "t": 85285.62900000026,
      "d": 209.82121875000303,
      "v": 110
    },
    {
      "midi": 60,
      "hit": false,
      "t": 85499.91450000026,
      "d": 209.82121875000303,
      "v": 110
    },
    {
      "midi": 46,
      "hit": false,
      "t": 85714.20000000024,
      "d": 571.4279999999999,
      "v": 110
    },
    {
      "midi": 58,
      "hit": false,
      "t": 85714.20000000026,
      "d": 209.82121875000303,
      "v": 110
    },
    {
      "midi": 62,
      "hit": false,
      "t": 85714.20000000026,
      "d": 209.82121875000303,
      "v": 110
    },
    {
      "midi": 64,
      "hit": false,
      "t": 85928.48550000026,
      "d": 209.82121875000303,
      "v": 110
    },
    {
      "midi": 62,
      "hit": false,
      "t": 86142.77100000026,
      "d": 209.82121875000303,
      "v": 110
    },
    {
      "midi": 45,
      "hit": false,
      "t": 86357.05650000024,
      "d": 571.4279999999999,
      "v": 110
    },
    {
      "midi": 57,
      "hit": false,
      "t": 86357.05650000025,
      "d": 209.82121875000303,
      "v": 110
    },
    {
      "midi": 60,
      "hit": false,
      "t": 86357.05650000025,
      "d": 209.82121875000303,
      "v": 110
    },
    {
      "midi": 57,
      "hit": false,
      "t": 86571.34200000025,
      "d": 209.82121875000303,
      "v": 110
    },
    {
      "midi": 65,
      "hit": false,
      "t": 86785.62750000025,
      "d": 209.82121875000303,
      "v": 110
    },
    {
      "midi": 45,
      "hit": false,
      "t": 86999.91300000023,
      "d": 357.14250000000175,
      "v": 110
    },
    {
      "midi": 60,
      "hit": false,
      "t": 86999.91300000025,
      "d": 209.82121875000303,
      "v": 110
    },
    {
      "midi": 64,
      "hit": false,
      "t": 86999.91300000025,
      "d": 209.82121875000303,
      "v": 110
    },
    {
      "midi": 57,
      "hit": false,
      "t": 87214.19850000025,
      "d": 209.82121875000303,
      "v": 110
    },
    {
      "midi": 38,
      "hit": false,
      "t": 87428.48400000023,
      "d": 571.4279999999999,
      "v": 110
    },
    {
      "midi": 60,
      "hit": false,
      "t": 87428.48400000024,
      "d": 209.82121875000303,
      "v": 110
    },
    {
      "midi": 62,
      "hit": false,
      "t": 87642.76950000024,
      "d": 209.82121875000303,
      "v": 110
    },
    {
      "midi": 57,
      "hit": false,
      "t": 87857.05500000024,
      "d": 209.82121875000303,
      "v": 110
    },
    {
      "midi": 38,
      "hit": false,
      "t": 88071.34050000022,
      "d": 571.4279999999999,
      "v": 110
    },
    {
      "midi": 62,
      "hit": false,
      "t": 88071.34050000024,
      "d": 209.82121875000303,
      "v": 110
    },
    {
      "midi": 67,
      "hit": false,
      "t": 88071.34050000024,
      "d": 209.82121875000303,
      "v": 110
    },
    {
      "midi": 66,
      "hit": false,
      "t": 88285.62600000024,
      "d": 209.82121875000303,
      "v": 110
    },
    {
      "midi": 62,
      "hit": false,
      "t": 88499.91150000023,
      "d": 209.82121875000303,
      "v": 110
    },
    {
      "midi": 45,
      "hit": false,
      "t": 88714.19700000022,
      "d": 357.14250000000175,
      "v": 110
    },
    {
      "midi": 57,
      "hit": false,
      "t": 88714.19700000023,
      "d": 209.82121875000303,
      "v": 110
    },
    {
      "midi": 54,
      "hit": false,
      "t": 88928.48250000023,
      "d": 209.82121875000303,
      "v": 110
    },
    {
      "midi": 38,
      "hit": false,
      "t": 89142.76800000021,
      "d": 209.82121875000303,
      "v": 110
    },
    {
      "midi": 50,
      "hit": false,
      "t": 89142.76800000021,
      "d": 209.82121875000303,
      "v": 110
    },
    {
      "midi": 66,
      "hit": false,
      "t": 89142.76800000023,
      "d": 209.82121875000303,
      "v": 110
    },
    {
      "midi": 74,
      "hit": false,
      "t": 89142.76800000023,
      "d": 209.82121875000303,
      "v": 110
    },
    {
      "midi": 38,
      "hit": false,
      "t": 89357.05350000021,
      "d": 357.14250000000175,
      "v": 110
    },
    {
      "midi": 50,
      "hit": false,
      "t": 89357.05350000021,
      "d": 357.14250000000175,
      "v": 110
    },
    {
      "midi": 69,
      "hit": false,
      "t": 89357.05350000023,
      "d": 209.82121875000303,
      "v": 110
    },
    {
      "midi": 67,
      "hit": false,
      "t": 89571.33900000023,
      "d": 209.82121875000303,
      "v": 110
    },
    {
      "midi": 76,
      "hit": false,
      "t": 89571.33900000023,
      "d": 209.82121875000303,
      "v": 110
    },
    {
      "midi": 38,
      "hit": false,
      "t": 89785.62450000021,
      "d": 357.14250000000175,
      "v": 110
    },
    {
      "midi": 50,
      "hit": false,
      "t": 89785.62450000021,
      "d": 357.14250000000175,
      "v": 110
    },
    {
      "midi": 69,
      "hit": false,
      "t": 89785.62450000022,
      "d": 209.82121875000303,
      "v": 110
    },
    {
      "midi": 78,
      "hit": false,
      "t": 89785.62450000022,
      "d": 209.82121875000303,
      "v": 110
    },
    {
      "midi": 66,
      "hit": false,
      "t": 89999.91000000022,
      "d": 209.82121875000303,
      "v": 110
    },
    {
      "midi": 45,
      "hit": false,
      "t": 90214.1955000002,
      "d": 209.82121875000303,
      "v": 110
    },
    {
      "midi": 69,
      "hit": false,
      "t": 90214.19550000022,
      "d": 209.82121875000303,
      "v": 110
    },
    {
      "midi": 50,
      "hit": false,
      "t": 90428.4810000002,
      "d": 357.14250000000175,
      "v": 110
    },
    {
      "midi": 74,
      "hit": false,
      "t": 90428.48100000022,
      "d": 209.82121875000303,
      "v": 110
    },
    {
      "midi": 78,
      "hit": false,
      "t": 90428.48100000022,
      "d": 209.82121875000303,
      "v": 110
    },
    {
      "midi": 69,
      "hit": false,
      "t": 90642.76650000022,
      "d": 209.82121875000303,
      "v": 110
    },
    {
      "midi": 36,
      "hit": false,
      "t": 90857.0520000002,
      "d": 209.82121875000303,
      "v": 110
    },
    {
      "midi": 48,
      "hit": false,
      "t": 90857.0520000002,
      "d": 209.82121875000303,
      "v": 110
    },
    {
      "midi": 72,
      "hit": false,
      "t": 90857.05200000021,
      "d": 209.82121875000303,
      "v": 110
    },
    {
      "midi": 79,
      "hit": false,
      "t": 90857.05200000021,
      "d": 209.82121875000303,
      "v": 110
    },
    {
      "midi": 36,
      "hit": false,
      "t": 91071.3375000002,
      "d": 357.14250000000175,
      "v": 110
    },
    {
      "midi": 48,
      "hit": false,
      "t": 91071.3375000002,
      "d": 357.14250000000175,
      "v": 110
    },
    {
      "midi": 67,
      "hit": false,
      "t": 91071.33750000021,
      "d": 209.82121875000303,
      "v": 110
    },
    {
      "midi": 69,
      "hit": false,
      "t": 91285.62300000021,
      "d": 209.82121875000303,
      "v": 110
    },
    {
      "midi": 78,
      "hit": false,
      "t": 91285.62300000021,
      "d": 209.82121875000303,
      "v": 110
    },
    {
      "midi": 36,
      "hit": false,
      "t": 91499.9085000002,
      "d": 357.14250000000175,
      "v": 110
    },
    {
      "midi": 48,
      "hit": false,
      "t": 91499.9085000002,
      "d": 357.14250000000175,
      "v": 110
    },
    {
      "midi": 67,
      "hit": false,
      "t": 91499.90850000021,
      "d": 209.82121875000303,
      "v": 110
    },
    {
      "midi": 76,
      "hit": false,
      "t": 91499.90850000021,
      "d": 209.82121875000303,
      "v": 110
    },
    {
      "midi": 64,
      "hit": false,
      "t": 91714.1940000002,
      "d": 209.82121875000303,
      "v": 110
    },
    {
      "midi": 43,
      "hit": false,
      "t": 91928.47950000019,
      "d": 209.82121875000303,
      "v": 110
    },
    {
      "midi": 67,
      "hit": false,
      "t": 91928.4795000002,
      "d": 209.82121875000303,
      "v": 110
    },
    {
      "midi": 48,
      "hit": false,
      "t": 92142.76500000019,
      "d": 357.14250000000175,
      "v": 110
    },
    {
      "midi": 62,
      "hit": false,
      "t": 92142.7650000002,
      "d": 209.82121875000303,
      "v": 110
    },
    {
      "midi": 69,
      "hit": false,
      "t": 92142.7650000002,
      "d": 209.82121875000303,
      "v": 110
    },
    {
      "midi": 64,
      "hit": false,
      "t": 92357.0505000002,
      "d": 209.82121875000303,
      "v": 110
    },
    {
      "midi": 72,
      "hit": false,
      "t": 92357.0505000002,
      "d": 209.82121875000303,
      "v": 110
    },
    {
      "midi": 34,
      "hit": false,
      "t": 92571.33600000018,
      "d": 209.82121875000303,
      "v": 110
    },
    {
      "midi": 46,
      "hit": false,
      "t": 92571.33600000018,
      "d": 209.82121875000303,
      "v": 110
    },
    {
      "midi": 65,
      "hit": false,
      "t": 92571.3360000002,
      "d": 209.82121875000303,
      "v": 110
    },
    {
      "midi": 74,
      "hit": false,
      "t": 92571.3360000002,
      "d": 209.82121875000303,
      "v": 110
    },
    {
      "midi": 34,
      "hit": false,
      "t": 92785.62150000018,
      "d": 357.14250000000175,
      "v": 110
    },
    {
      "midi": 46,
      "hit": false,
      "t": 92785.62150000018,
      "d": 357.14250000000175,
      "v": 110
    },
    {
      "midi": 62,
      "hit": false,
      "t": 92785.6215000002,
      "d": 209.82121875000303,
      "v": 110
    },
    {
      "midi": 64,
      "hit": false,
      "t": 92999.9070000002,
      "d": 209.82121875000303,
      "v": 110
    },
    {
      "midi": 69,
      "hit": false,
      "t": 92999.9070000002,
      "d": 209.82121875000303,
      "v": 110
    },
    {
      "midi": 33,
      "hit": false,
      "t": 93214.19250000018,
      "d": 357.14250000000175,
      "v": 110
    },
    {
      "midi": 45,
      "hit": false,
      "t": 93214.19250000018,
      "d": 357.14250000000175,
      "v": 110
    },
    {
      "midi": 62,
      "hit": false,
      "t": 93214.1925000002,
      "d": 571.4279999999999,
      "v": 110
    },
    {
      "midi": 67,
      "hit": false,
      "t": 93214.1925000002,
      "d": 571.4279999999999,
      "v": 110
    },
    {
      "midi": 45,
      "hit": false,
      "t": 93642.76350000018,
      "d": 209.82121875000303,
      "v": 110
    },
    {
      "midi": 48,
      "hit": false,
      "t": 93857.04900000017,
      "d": 209.82121875000303,
      "v": 110
    },
    {
      "midi": 60,
      "hit": false,
      "t": 93857.04900000019,
      "d": 357.14250000000175,
      "v": 110
    },
    {
      "midi": 69,
      "hit": false,
      "t": 93857.04900000019,
      "d": 357.14250000000175,
      "v": 110
    },
    {
      "midi": 49,
      "hit": false,
      "t": 94071.33450000017,
      "d": 209.82121875000303,
      "v": 110
    },
    {
      "midi": 38,
      "hit": false,
      "t": 94285.62000000017,
      "d": 209.82121875000303,
      "v": 110
    },
    {
      "midi": 50,
      "hit": false,
      "t": 94285.62000000017,
      "d": 209.82121875000303,
      "v": 110
    },
    {
      "midi": 57,
      "hit": false,
      "t": 94285.62000000018,
      "d": 357.14250000000175,
      "v": 110
    },
    {
      "midi": 62,
      "hit": false,
      "t": 94285.62000000018,
      "d": 357.14250000000175,
      "v": 110
    },
    {
      "midi": 64,
      "hit": false,
      "t": 94285.62000000018,
      "d": 357.14250000000175,
      "v": 110
    },
    {
      "midi": 38,
      "hit": false,
      "t": 94499.90550000017,
      "d": 357.14250000000175,
      "v": 110
    },
    {
      "midi": 50,
      "hit": false,
      "t": 94499.90550000017,
      "d": 357.14250000000175,
      "v": 110
    },
    {
      "midi": 69,
      "hit": false,
      "t": 94714.19100000018,
      "d": 209.82121875000303,
      "v": 110
    },
    {
      "midi": 38,
      "hit": false,
      "t": 94928.47650000016,
      "d": 357.14250000000175,
      "v": 110
    },
    {
      "midi": 50,
      "hit": false,
      "t": 94928.47650000016,
      "d": 357.14250000000175,
      "v": 110
    },
    {
      "midi": 57,
      "hit": false,
      "t": 94928.47650000018,
      "d": 357.14250000000175,
      "v": 110
    },
    {
      "midi": 62,
      "hit": false,
      "t": 94928.47650000018,
      "d": 357.14250000000175,
      "v": 110
    },
    {
      "midi": 66,
      "hit": false,
      "t": 94928.47650000018,
      "d": 357.14250000000175,
      "v": 110
    },
    {
      "midi": 45,
      "hit": false,
      "t": 95357.04750000016,
      "d": 209.82121875000303,
      "v": 110
    },
    {
      "midi": 74,
      "hit": false,
      "t": 95357.04750000018,
      "d": 209.82121875000303,
      "v": 110
    },
    {
      "midi": 50,
      "hit": false,
      "t": 95571.33300000016,
      "d": 357.14250000000175,
      "v": 110
    },
    {
      "midi": 69,
      "hit": false,
      "t": 95571.33300000017,
      "d": 209.82121875000303,
      "v": 110
    },
    {
      "midi": 66,
      "hit": false,
      "t": 95785.61850000017,
      "d": 209.82121875000303,
      "v": 110
    },
    {
      "midi": 38,
      "hit": false,
      "t": 95999.90400000016,
      "d": 209.82121875000303,
      "v": 110
    },
    {
      "midi": 50,
      "hit": false,
      "t": 95999.90400000016,
      "d": 209.82121875000303,
      "v": 110
    },
    {
      "midi": 66,
      "hit": false,
      "t": 95999.90400000017,
      "d": 209.82121875000303,
      "v": 110
    },
    {
      "midi": 74,
      "hit": false,
      "t": 95999.90400000017,
      "d": 209.82121875000303,
      "v": 110
    },
    {
      "midi": 38,
      "hit": false,
      "t": 96214.18950000015,
      "d": 357.14250000000175,
      "v": 110
    },
    {
      "midi": 50,
      "hit": false,
      "t": 96214.18950000015,
      "d": 357.14250000000175,
      "v": 110
    },
    {
      "midi": 69,
      "hit": false,
      "t": 96214.18950000017,
      "d": 209.82121875000303,
      "v": 110
    },
    {
      "midi": 67,
      "hit": false,
      "t": 96428.47500000017,
      "d": 209.82121875000303,
      "v": 110
    },
    {
      "midi": 76,
      "hit": false,
      "t": 96428.47500000017,
      "d": 209.82121875000303,
      "v": 110
    },
    {
      "midi": 38,
      "hit": false,
      "t": 96642.76050000015,
      "d": 357.14250000000175,
      "v": 110
    },
    {
      "midi": 50,
      "hit": false,
      "t": 96642.76050000015,
      "d": 357.14250000000175,
      "v": 110
    },
    {
      "midi": 69,
      "hit": false,
      "t": 96642.76050000016,
      "d": 209.82121875000303,
      "v": 110
    },
    {
      "midi": 78,
      "hit": false,
      "t": 96642.76050000016,
      "d": 209.82121875000303,
      "v": 110
    },
    {
      "midi": 66,
      "hit": false,
      "t": 96857.04600000016,
      "d": 209.82121875000303,
      "v": 110
    },
    {
      "midi": 45,
      "hit": false,
      "t": 97071.33150000015,
      "d": 209.82121875000303,
      "v": 110
    },
    {
      "midi": 69,
      "hit": false,
      "t": 97071.33150000016,
      "d": 209.82121875000303,
      "v": 110
    },
    {
      "midi": 50,
      "hit": false,
      "t": 97285.61700000014,
      "d": 357.14250000000175,
      "v": 110
    },
    {
      "midi": 74,
      "hit": false,
      "t": 97285.61700000016,
      "d": 209.82121875000303,
      "v": 110
    },
    {
      "midi": 78,
      "hit": false,
      "t": 97285.61700000016,
      "d": 209.82121875000303,
      "v": 110
    },
    {
      "midi": 69,
      "hit": false,
      "t": 97499.90250000016,
      "d": 209.82121875000303,
      "v": 110
    },
    {
      "midi": 36,
      "hit": false,
      "t": 97714.18800000014,
      "d": 209.82121875000303,
      "v": 110
    },
    {
      "midi": 48,
      "hit": false,
      "t": 97714.18800000014,
      "d": 209.82121875000303,
      "v": 110
    },
    {
      "midi": 72,
      "hit": false,
      "t": 97714.18800000015,
      "d": 209.82121875000303,
      "v": 110
    },
    {
      "midi": 79,
      "hit": false,
      "t": 97714.18800000015,
      "d": 209.82121875000303,
      "v": 110
    },
    {
      "midi": 36,
      "hit": false,
      "t": 97928.47350000014,
      "d": 357.14250000000175,
      "v": 110
    },
    {
      "midi": 48,
      "hit": false,
      "t": 97928.47350000014,
      "d": 357.14250000000175,
      "v": 110
    },
    {
      "midi": 67,
      "hit": false,
      "t": 97928.47350000015,
      "d": 209.82121875000303,
      "v": 110
    },
    {
      "midi": 69,
      "hit": false,
      "t": 98142.75900000015,
      "d": 209.82121875000303,
      "v": 110
    },
    {
      "midi": 78,
      "hit": false,
      "t": 98142.75900000015,
      "d": 209.82121875000303,
      "v": 110
    },
    {
      "midi": 36,
      "hit": false,
      "t": 98357.04450000013,
      "d": 357.14250000000175,
      "v": 110
    },
    {
      "midi": 48,
      "hit": false,
      "t": 98357.04450000013,
      "d": 357.14250000000175,
      "v": 110
    },
    {
      "midi": 67,
      "hit": false,
      "t": 98357.04450000015,
      "d": 209.82121875000303,
      "v": 110
    },
    {
      "midi": 76,
      "hit": false,
      "t": 98357.04450000015,
      "d": 209.82121875000303,
      "v": 110
    },
    {
      "midi": 64,
      "hit": false,
      "t": 98571.33000000015,
      "d": 209.82121875000303,
      "v": 110
    },
    {
      "midi": 43,
      "hit": false,
      "t": 98785.61550000013,
      "d": 209.82121875000303,
      "v": 110
    },
    {
      "midi": 67,
      "hit": false,
      "t": 98785.61550000015,
      "d": 209.82121875000303,
      "v": 110
    },
    {
      "midi": 48,
      "hit": false,
      "t": 98999.90100000013,
      "d": 357.14250000000175,
      "v": 110
    },
    {
      "midi": 62,
      "hit": false,
      "t": 98999.90100000014,
      "d": 209.82121875000303,
      "v": 110
    },
    {
      "midi": 69,
      "hit": false,
      "t": 98999.90100000014,
      "d": 209.82121875000303,
      "v": 110
    },
    {
      "midi": 64,
      "hit": false,
      "t": 99214.18650000014,
      "d": 209.82121875000303,
      "v": 110
    },
    {
      "midi": 72,
      "hit": false,
      "t": 99214.18650000014,
      "d": 209.82121875000303,
      "v": 110
    },
    {
      "midi": 34,
      "hit": false,
      "t": 99428.47200000013,
      "d": 209.82121875000303,
      "v": 110
    },
    {
      "midi": 46,
      "hit": false,
      "t": 99428.47200000013,
      "d": 209.82121875000303,
      "v": 110
    },
    {
      "midi": 65,
      "hit": false,
      "t": 99428.47200000014,
      "d": 209.82121875000303,
      "v": 110
    },
    {
      "midi": 74,
      "hit": false,
      "t": 99428.47200000014,
      "d": 209.82121875000303,
      "v": 110
    },
    {
      "midi": 34,
      "hit": false,
      "t": 99642.75750000012,
      "d": 357.14250000000175,
      "v": 110
    },
    {
      "midi": 46,
      "hit": false,
      "t": 99642.75750000012,
      "d": 357.14250000000175,
      "v": 110
    },
    {
      "midi": 62,
      "hit": false,
      "t": 99642.75750000014,
      "d": 209.82121875000303,
      "v": 110
    },
    {
      "midi": 64,
      "hit": false,
      "t": 99857.04300000014,
      "d": 209.82121875000303,
      "v": 110
    },
    {
      "midi": 69,
      "hit": false,
      "t": 99857.04300000014,
      "d": 209.82121875000303,
      "v": 110
    },
    {
      "midi": 33,
      "hit": false,
      "t": 100071.32850000012,
      "d": 357.14250000000175,
      "v": 110
    },
    {
      "midi": 45,
      "hit": false,
      "t": 100071.32850000012,
      "d": 357.14250000000175,
      "v": 110
    },
    {
      "midi": 62,
      "hit": false,
      "t": 100071.32850000013,
      "d": 209.82121875000303,
      "v": 110
    },
    {
      "midi": 67,
      "hit": false,
      "t": 100071.32850000013,
      "d": 209.82121875000303,
      "v": 110
    },
    {
      "midi": 64,
      "hit": false,
      "t": 100285.61400000013,
      "d": 209.82121875000303,
      "v": 110
    },
    {
      "midi": 45,
      "hit": false,
      "t": 100499.89950000012,
      "d": 209.82121875000303,
      "v": 110
    },
    {
      "midi": 65,
      "hit": false,
      "t": 100499.89950000013,
      "d": 209.82121875000303,
      "v": 110
    },
    {
      "midi": 69,
      "hit": false,
      "t": 100499.89950000013,
      "d": 209.82121875000303,
      "v": 110
    },
    {
      "midi": 48,
      "hit": false,
      "t": 100714.18500000011,
      "d": 209.82121875000303,
      "v": 110
    },
    {
      "midi": 64,
      "hit": false,
      "t": 100714.18500000013,
      "d": 357.14250000000175,
      "v": 110
    },
    {
      "midi": 72,
      "hit": false,
      "t": 100714.18500000013,
      "d": 357.14250000000175,
      "v": 110
    },
    {
      "midi": 49,
      "hit": false,
      "t": 100928.47050000011,
      "d": 209.82121875000303,
      "v": 110
    },
    {
      "midi": 38,
      "hit": false,
      "t": 101142.75600000011,
      "d": 209.82121875000303,
      "v": 110
    },
    {
      "midi": 50,
      "hit": false,
      "t": 101142.75600000011,
      "d": 209.82121875000303,
      "v": 110
    },
    {
      "midi": 66,
      "hit": false,
      "t": 101142.75600000012,
      "d": 357.14250000000175,
      "v": 110
    },
    {
      "midi": 76,
      "hit": false,
      "t": 101142.75600000012,
      "d": 357.14250000000175,
      "v": 110
    },
    {
      "midi": 38,
      "hit": false,
      "t": 101357.04150000011,
      "d": 357.14250000000175,
      "v": 110
    },
    {
      "midi": 50,
      "hit": false,
      "t": 101357.04150000011,
      "d": 357.14250000000175,
      "v": 110
    },
    {
      "midi": 69,
      "hit": false,
      "t": 101571.32700000012,
      "d": 209.82121875000303,
      "v": 110
    },
    {
      "midi": 38,
      "hit": false,
      "t": 101785.6125000001,
      "d": 357.14250000000175,
      "v": 110
    },
    {
      "midi": 50,
      "hit": false,
      "t": 101785.6125000001,
      "d": 357.14250000000175,
      "v": 110
    },
    {
      "midi": 69,
      "hit": false,
      "t": 101785.61250000012,
      "d": 209.82121875000303,
      "v": 110
    },
    {
      "midi": 74,
      "hit": false,
      "t": 101785.61250000012,
      "d": 209.82121875000303,
      "v": 110
    },
    {
      "midi": 79,
      "hit": false,
      "t": 101785.61250000012,
      "d": 209.82121875000303,
      "v": 110
    },
    {
      "midi": 78,
      "hit": false,
      "t": 101999.89800000012,
      "d": 209.82121875000303,
      "v": 110
    },
    {
      "midi": 45,
      "hit": false,
      "t": 102214.1835000001,
      "d": 209.82121875000303,
      "v": 110
    },
    {
      "midi": 74,
      "hit": false,
      "t": 102214.18350000012,
      "d": 209.82121875000303,
      "v": 110
    },
    {
      "midi": 50,
      "hit": false,
      "t": 102428.4690000001,
      "d": 357.14250000000175,
      "v": 110
    },
    {
      "midi": 69,
      "hit": false,
      "t": 102428.46900000011,
      "d": 209.82121875000303,
      "v": 110
    },
    {
      "midi": 66,
      "hit": false,
      "t": 102642.75450000011,
      "d": 209.82121875000303,
      "v": 110
    },
    {
      "midi": 38,
      "hit": false,
      "t": 102857.0400000001,
      "d": 209.82121875000303,
      "v": 110
    },
    {
      "midi": 50,
      "hit": false,
      "t": 102857.0400000001,
      "d": 209.82121875000303,
      "v": 110
    },
    {
      "midi": 66,
      "hit": false,
      "t": 102857.04000000011,
      "d": 209.82121875000303,
      "v": 110
    },
    {
      "midi": 74,
      "hit": false,
      "t": 102857.04000000011,
      "d": 209.82121875000303,
      "v": 110
    },
    {
      "midi": 38,
      "hit": false,
      "t": 103071.3255000001,
      "d": 357.14250000000175,
      "v": 110
    },
    {
      "midi": 50,
      "hit": false,
      "t": 103071.3255000001,
      "d": 357.14250000000175,
      "v": 110
    },
    {
      "midi": 69,
      "hit": false,
      "t": 103071.32550000011,
      "d": 209.82121875000303,
      "v": 110
    },
    {
      "midi": 67,
      "hit": false,
      "t": 103285.6110000001,
      "d": 209.82121875000303,
      "v": 110
    },
    {
      "midi": 76,
      "hit": false,
      "t": 103285.6110000001,
      "d": 209.82121875000303,
      "v": 110
    },
    {
      "midi": 38,
      "hit": false,
      "t": 103499.89650000009,
      "d": 357.14250000000175,
      "v": 110
    },
    {
      "midi": 50,
      "hit": false,
      "t": 103499.89650000009,
      "d": 357.14250000000175,
      "v": 110
    },
    {
      "midi": 69,
      "hit": false,
      "t": 103499.8965000001,
      "d": 209.82121875000303,
      "v": 110
    },
    {
      "midi": 78,
      "hit": false,
      "t": 103499.8965000001,
      "d": 209.82121875000303,
      "v": 110
    },
    {
      "midi": 66,
      "hit": false,
      "t": 103714.1820000001,
      "d": 209.82121875000303,
      "v": 110
    },
    {
      "midi": 45,
      "hit": false,
      "t": 103928.46750000009,
      "d": 209.82121875000303,
      "v": 110
    },
    {
      "midi": 69,
      "hit": false,
      "t": 103928.4675000001,
      "d": 209.82121875000303,
      "v": 110
    },
    {
      "midi": 50,
      "hit": false,
      "t": 104142.75300000008,
      "d": 357.14250000000175,
      "v": 110
    },
    {
      "midi": 74,
      "hit": false,
      "t": 104142.7530000001,
      "d": 209.82121875000303,
      "v": 110
    },
    {
      "midi": 78,
      "hit": false,
      "t": 104142.7530000001,
      "d": 209.82121875000303,
      "v": 110
    },
    {
      "midi": 69,
      "hit": false,
      "t": 104357.0385000001,
      "d": 209.82121875000303,
      "v": 110
    },
    {
      "midi": 36,
      "hit": false,
      "t": 104571.32400000008,
      "d": 209.82121875000303,
      "v": 110
    },
    {
      "midi": 48,
      "hit": false,
      "t": 104571.32400000008,
      "d": 209.82121875000303,
      "v": 110
    },
    {
      "midi": 72,
      "hit": false,
      "t": 104571.3240000001,
      "d": 209.82121875000303,
      "v": 110
    },
    {
      "midi": 79,
      "hit": false,
      "t": 104571.3240000001,
      "d": 209.82121875000303,
      "v": 110
    },
    {
      "midi": 36,
      "hit": false,
      "t": 104785.60950000008,
      "d": 357.14250000000175,
      "v": 110
    },
    {
      "midi": 48,
      "hit": false,
      "t": 104785.60950000008,
      "d": 357.14250000000175,
      "v": 110
    },
    {
      "midi": 67,
      "hit": false,
      "t": 104785.6095000001,
      "d": 209.82121875000303,
      "v": 110
    },
    {
      "midi": 69,
      "hit": false,
      "t": 104999.89500000009,
      "d": 209.82121875000303,
      "v": 110
    },
    {
      "midi": 78,
      "hit": false,
      "t": 104999.89500000009,
      "d": 209.82121875000303,
      "v": 110
    },
    {
      "midi": 36,
      "hit": false,
      "t": 105214.18050000007,
      "d": 357.14250000000175,
      "v": 110
    },
    {
      "midi": 48,
      "hit": false,
      "t": 105214.18050000007,
      "d": 357.14250000000175,
      "v": 110
    },
    {
      "midi": 67,
      "hit": false,
      "t": 105214.18050000009,
      "d": 209.82121875000303,
      "v": 110
    },
    {
      "midi": 76,
      "hit": false,
      "t": 105214.18050000009,
      "d": 209.82121875000303,
      "v": 110
    },
    {
      "midi": 64,
      "hit": false,
      "t": 105428.46600000009,
      "d": 209.82121875000303,
      "v": 110
    },
    {
      "midi": 43,
      "hit": false,
      "t": 105642.75150000007,
      "d": 209.82121875000303,
      "v": 110
    },
    {
      "midi": 67,
      "hit": false,
      "t": 105642.75150000009,
      "d": 209.82121875000303,
      "v": 110
    },
    {
      "midi": 48,
      "hit": false,
      "t": 105857.03700000007,
      "d": 357.14250000000175,
      "v": 110
    },
    {
      "midi": 62,
      "hit": false,
      "t": 105857.03700000008,
      "d": 209.82121875000303,
      "v": 110
    },
    {
      "midi": 69,
      "hit": false,
      "t": 105857.03700000008,
      "d": 209.82121875000303,
      "v": 110
    },
    {
      "midi": 64,
      "hit": false,
      "t": 106071.32250000008,
      "d": 209.82121875000303,
      "v": 110
    },
    {
      "midi": 72,
      "hit": false,
      "t": 106071.32250000008,
      "d": 209.82121875000303,
      "v": 110
    },
    {
      "midi": 34,
      "hit": false,
      "t": 106285.60800000007,
      "d": 209.82121875000303,
      "v": 110
    },
    {
      "midi": 46,
      "hit": false,
      "t": 106285.60800000007,
      "d": 209.82121875000303,
      "v": 110
    },
    {
      "midi": 65,
      "hit": false,
      "t": 106285.60800000008,
      "d": 209.82121875000303,
      "v": 110
    },
    {
      "midi": 74,
      "hit": false,
      "t": 106285.60800000008,
      "d": 209.82121875000303,
      "v": 110
    },
    {
      "midi": 34,
      "hit": false,
      "t": 106499.89350000006,
      "d": 357.14250000000175,
      "v": 110
    },
    {
      "midi": 46,
      "hit": false,
      "t": 106499.89350000006,
      "d": 357.14250000000175,
      "v": 110
    },
    {
      "midi": 62,
      "hit": false,
      "t": 106499.89350000008,
      "d": 209.82121875000303,
      "v": 110
    },
    {
      "midi": 64,
      "hit": false,
      "t": 106714.17900000008,
      "d": 209.82121875000303,
      "v": 110
    },
    {
      "midi": 69,
      "hit": false,
      "t": 106714.17900000008,
      "d": 209.82121875000303,
      "v": 110
    },
    {
      "midi": 33,
      "hit": false,
      "t": 106928.46450000006,
      "d": 357.14250000000175,
      "v": 110
    },
    {
      "midi": 45,
      "hit": false,
      "t": 106928.46450000006,
      "d": 357.14250000000175,
      "v": 110
    },
    {
      "midi": 62,
      "hit": false,
      "t": 106928.46450000007,
      "d": 571.4279999999999,
      "v": 110
    },
    {
      "midi": 67,
      "hit": false,
      "t": 106928.46450000007,
      "d": 571.4279999999999,
      "v": 110
    },
    {
      "midi": 45,
      "hit": false,
      "t": 107357.03550000006,
      "d": 209.82121875000303,
      "v": 110
    },
    {
      "midi": 48,
      "hit": false,
      "t": 107571.32100000005,
      "d": 209.82121875000303,
      "v": 110
    },
    {
      "midi": 60,
      "hit": false,
      "t": 107571.32100000007,
      "d": 357.14250000000175,
      "v": 110
    },
    {
      "midi": 69,
      "hit": false,
      "t": 107571.32100000007,
      "d": 357.14250000000175,
      "v": 110
    },
    {
      "midi": 49,
      "hit": false,
      "t": 107785.60650000005,
      "d": 209.82121875000303,
      "v": 110
    },
    {
      "midi": 38,
      "hit": false,
      "t": 107999.89200000005,
      "d": 209.82121875000303,
      "v": 110
    },
    {
      "midi": 50,
      "hit": false,
      "t": 107999.89200000005,
      "d": 209.82121875000303,
      "v": 110
    },
    {
      "midi": 57,
      "hit": false,
      "t": 107999.89200000007,
      "d": 357.14250000000175,
      "v": 110
    },
    {
      "midi": 62,
      "hit": false,
      "t": 107999.89200000007,
      "d": 357.14250000000175,
      "v": 110
    },
    {
      "midi": 64,
      "hit": false,
      "t": 107999.89200000007,
      "d": 357.14250000000175,
      "v": 110
    },
    {
      "midi": 38,
      "hit": false,
      "t": 108214.17750000005,
      "d": 357.14250000000175,
      "v": 110
    },
    {
      "midi": 50,
      "hit": false,
      "t": 108214.17750000005,
      "d": 357.14250000000175,
      "v": 110
    },
    {
      "midi": 69,
      "hit": false,
      "t": 108428.46300000006,
      "d": 209.82121875000303,
      "v": 110
    },
    {
      "midi": 38,
      "hit": false,
      "t": 108642.74850000005,
      "d": 357.14250000000175,
      "v": 110
    },
    {
      "midi": 50,
      "hit": false,
      "t": 108642.74850000005,
      "d": 357.14250000000175,
      "v": 110
    },
    {
      "midi": 57,
      "hit": false,
      "t": 108642.74850000006,
      "d": 357.14250000000175,
      "v": 110
    },
    {
      "midi": 62,
      "hit": false,
      "t": 108642.74850000006,
      "d": 357.14250000000175,
      "v": 110
    },
    {
      "midi": 66,
      "hit": false,
      "t": 108642.74850000006,
      "d": 357.14250000000175,
      "v": 110
    },
    {
      "midi": 45,
      "hit": false,
      "t": 109071.31950000004,
      "d": 209.82121875000303,
      "v": 110
    },
    {
      "midi": 74,
      "hit": false,
      "t": 109071.31950000006,
      "d": 209.82121875000303,
      "v": 110
    },
    {
      "midi": 50,
      "hit": false,
      "t": 109285.60500000004,
      "d": 357.14250000000175,
      "v": 110
    },
    {
      "midi": 69,
      "hit": false,
      "t": 109285.60500000005,
      "d": 209.82121875000303,
      "v": 110
    },
    {
      "midi": 66,
      "hit": false,
      "t": 109499.89050000005,
      "d": 209.82121875000303,
      "v": 110
    },
    {
      "midi": 38,
      "hit": false,
      "t": 109714.17600000004,
      "d": 209.82121875000303,
      "v": 110
    },
    {
      "midi": 50,
      "hit": false,
      "t": 109714.17600000004,
      "d": 209.82121875000303,
      "v": 110
    },
    {
      "midi": 66,
      "hit": false,
      "t": 109714.17600000005,
      "d": 209.82121875000303,
      "v": 110
    },
    {
      "midi": 74,
      "hit": false,
      "t": 109714.17600000005,
      "d": 209.82121875000303,
      "v": 110
    },
    {
      "midi": 38,
      "hit": false,
      "t": 109928.46150000003,
      "d": 357.14250000000175,
      "v": 110
    },
    {
      "midi": 50,
      "hit": false,
      "t": 109928.46150000003,
      "d": 357.14250000000175,
      "v": 110
    },
    {
      "midi": 69,
      "hit": false,
      "t": 109928.46150000005,
      "d": 209.82121875000303,
      "v": 110
    },
    {
      "midi": 67,
      "hit": false,
      "t": 110142.74700000005,
      "d": 209.82121875000303,
      "v": 110
    },
    {
      "midi": 76,
      "hit": false,
      "t": 110142.74700000005,
      "d": 209.82121875000303,
      "v": 110
    },
    {
      "midi": 38,
      "hit": false,
      "t": 110357.03250000003,
      "d": 357.14250000000175,
      "v": 110
    },
    {
      "midi": 50,
      "hit": false,
      "t": 110357.03250000003,
      "d": 357.14250000000175,
      "v": 110
    },
    {
      "midi": 69,
      "hit": false,
      "t": 110357.03250000004,
      "d": 209.82121875000303,
      "v": 110
    },
    {
      "midi": 78,
      "hit": false,
      "t": 110357.03250000004,
      "d": 209.82121875000303,
      "v": 110
    },
    {
      "midi": 66,
      "hit": false,
      "t": 110571.31800000004,
      "d": 209.82121875000303,
      "v": 110
    },
    {
      "midi": 45,
      "hit": false,
      "t": 110785.60350000003,
      "d": 209.82121875000303,
      "v": 110
    },
    {
      "midi": 69,
      "hit": false,
      "t": 110785.60350000004,
      "d": 209.82121875000303,
      "v": 110
    },
    {
      "midi": 50,
      "hit": false,
      "t": 110999.88900000002,
      "d": 357.14250000000175,
      "v": 110
    },
    {
      "midi": 74,
      "hit": false,
      "t": 110999.88900000004,
      "d": 209.82121875000303,
      "v": 110
    },
    {
      "midi": 78,
      "hit": false,
      "t": 110999.88900000004,
      "d": 209.82121875000303,
      "v": 110
    },
    {
      "midi": 69,
      "hit": false,
      "t": 111214.17450000004,
      "d": 209.82121875000303,
      "v": 110
    },
    {
      "midi": 36,
      "hit": false,
      "t": 111428.46000000002,
      "d": 209.82121875000303,
      "v": 110
    },
    {
      "midi": 48,
      "hit": false,
      "t": 111428.46000000002,
      "d": 209.82121875000303,
      "v": 110
    },
    {
      "midi": 72,
      "hit": false,
      "t": 111428.46000000004,
      "d": 209.82121875000303,
      "v": 110
    },
    {
      "midi": 79,
      "hit": false,
      "t": 111428.46000000004,
      "d": 209.82121875000303,
      "v": 110
    },
    {
      "midi": 36,
      "hit": false,
      "t": 111642.74550000002,
      "d": 357.14250000000175,
      "v": 110
    },
    {
      "midi": 48,
      "hit": false,
      "t": 111642.74550000002,
      "d": 357.14250000000175,
      "v": 110
    },
    {
      "midi": 67,
      "hit": false,
      "t": 111642.74550000003,
      "d": 209.82121875000303,
      "v": 110
    },
    {
      "midi": 74,
      "hit": false,
      "t": 111857.03100000003,
      "d": 209.82121875000303,
      "v": 110
    },
    {
      "midi": 78,
      "hit": false,
      "t": 111857.03100000003,
      "d": 209.82121875000303,
      "v": 110
    },
    {
      "midi": 36,
      "hit": false,
      "t": 112071.31650000002,
      "d": 357.14250000000175,
      "v": 110
    },
    {
      "midi": 48,
      "hit": false,
      "t": 112071.31650000002,
      "d": 357.14250000000175,
      "v": 110
    },
    {
      "midi": 76,
      "hit": false,
      "t": 112071.31650000003,
      "d": 209.82121875000303,
      "v": 110
    },
    {
      "midi": 69,
      "hit": false,
      "t": 112285.60200000003,
      "d": 209.82121875000303,
      "v": 110
    },
    {
      "midi": 43,
      "hit": false,
      "t": 112499.88750000001,
      "d": 209.82121875000303,
      "v": 110
    },
    {
      "midi": 72,
      "hit": false,
      "t": 112499.88750000003,
      "d": 209.82121875000303,
      "v": 110
    },
    {
      "midi": 48,
      "hit": false,
      "t": 112714.17300000001,
      "d": 357.14250000000175,
      "v": 110
    },
    {
      "midi": 76,
      "hit": false,
      "t": 112714.17300000002,
      "d": 209.82121875000303,
      "v": 110
    },
    {
      "midi": 79,
      "hit": false,
      "t": 112714.17300000002,
      "d": 209.82121875000303,
      "v": 110
    },
    {
      "midi": 77,
      "hit": false,
      "t": 112928.45850000002,
      "d": 209.82121875000303,
      "v": 110
    },
    {
      "midi": 81,
      "hit": false,
      "t": 112928.45850000002,
      "d": 209.82121875000303,
      "v": 110
    },
    {
      "midi": 34,
      "hit": false,
      "t": 113142.744,
      "d": 209.82121875000303,
      "v": 110
    },
    {
      "midi": 46,
      "hit": false,
      "t": 113142.744,
      "d": 209.82121875000303,
      "v": 110
    },
    {
      "midi": 79,
      "hit": false,
      "t": 113142.74400000002,
      "d": 209.82121875000303,
      "v": 110
    },
    {
      "midi": 84,
      "hit": false,
      "t": 113142.74400000002,
      "d": 209.82121875000303,
      "v": 110
    },
    {
      "midi": 34,
      "hit": false,
      "t": 113357.0295,
      "d": 357.14250000000175,
      "v": 110
    },
    {
      "midi": 46,
      "hit": false,
      "t": 113357.0295,
      "d": 357.14250000000175,
      "v": 110
    },
    {
      "midi": 76,
      "hit": false,
      "t": 113357.02950000002,
      "d": 209.82121875000303,
      "v": 110
    },
    {
      "midi": 77,
      "hit": false,
      "t": 113571.31500000002,
      "d": 209.82121875000303,
      "v": 110
    },
    {
      "midi": 81,
      "hit": false,
      "t": 113571.31500000002,
      "d": 209.82121875000303,
      "v": 110
    },
    {
      "midi": 36,
      "hit": false,
      "t": 113785.6005,
      "d": 357.14250000000175,
      "v": 110
    },
    {
      "midi": 48,
      "hit": false,
      "t": 113785.6005,
      "d": 357.14250000000175,
      "v": 110
    },
    {
      "midi": 76,
      "hit": false,
      "t": 113785.60050000002,
      "d": 209.82121875000303,
      "v": 110
    },
    {
      "midi": 79,
      "hit": false,
      "t": 113785.60050000002,
      "d": 209.82121875000303,
      "v": 110
    },
    {
      "midi": 72,
      "hit": false,
      "t": 113999.88600000001,
      "d": 209.82121875000303,
      "v": 110
    },
    {
      "midi": 45,
      "hit": false,
      "t": 114214.1715,
      "d": 209.82121875000303,
      "v": 110
    },
    {
      "midi": 74,
      "hit": false,
      "t": 114214.17150000001,
      "d": 209.82121875000303,
      "v": 110
    },
    {
      "midi": 77,
      "hit": false,
      "t": 114214.17150000001,
      "d": 209.82121875000303,
      "v": 110
    },
    {
      "midi": 48,
      "hit": false,
      "t": 114428.457,
      "d": 209.82121875000303,
      "v": 110
    },
    {
      "midi": 72,
      "hit": false,
      "t": 114428.45700000001,
      "d": 357.14250000000175,
      "v": 110
    },
    {
      "midi": 76,
      "hit": false,
      "t": 114428.45700000001,
      "d": 357.14250000000175,
      "v": 110
    },
    {
      "midi": 49,
      "hit": false,
      "t": 114642.7425,
      "d": 209.82121875000303,
      "v": 110
    },
    {
      "midi": 38,
      "hit": false,
      "t": 114857.02799999999,
      "d": 209.82121875000303,
      "v": 110
    },
    {
      "midi": 50,
      "hit": false,
      "t": 114857.02799999999,
      "d": 209.82121875000303,
      "v": 110
    },
    {
      "midi": 66,
      "hit": false,
      "t": 114857.028,
      "d": 357.14250000000175,
      "v": 110
    },
    {
      "midi": 74,
      "hit": false,
      "t": 114857.028,
      "d": 357.14250000000175,
      "v": 110
    },
    {
      "midi": 38,
      "hit": false,
      "t": 115071.31349999999,
      "d": 357.14250000000175,
      "v": 110
    },
    {
      "midi": 50,
      "hit": false,
      "t": 115071.31349999999,
      "d": 357.14250000000175,
      "v": 110
    },
    {
      "midi": 69,
      "hit": false,
      "t": 115285.599,
      "d": 209.82121875000303,
      "v": 110
    },
    {
      "midi": 38,
      "hit": false,
      "t": 115499.88449999999,
      "d": 357.14250000000175,
      "v": 110
    },
    {
      "midi": 50,
      "hit": false,
      "t": 115499.88449999999,
      "d": 357.14250000000175,
      "v": 110
    },
    {
      "midi": 74,
      "hit": false,
      "t": 115499.8845,
      "d": 209.82121875000303,
      "v": 110
    },
    {
      "midi": 79,
      "hit": false,
      "t": 115499.8845,
      "d": 209.82121875000303,
      "v": 110
    },
    {
      "midi": 78,
      "hit": false,
      "t": 115714.17,
      "d": 209.82121875000303,
      "v": 110
    },
    {
      "midi": 45,
      "hit": false,
      "t": 115928.45549999998,
      "d": 209.82121875000303,
      "v": 110
    },
    {
      "midi": 74,
      "hit": false,
      "t": 115928.4555,
      "d": 209.82121875000303,
      "v": 110
    },
    {
      "midi": 50,
      "hit": false,
      "t": 116142.74099999998,
      "d": 357.14250000000175,
      "v": 110
    },
    {
      "midi": 69,
      "hit": false,
      "t": 116142.741,
      "d": 209.82121875000303,
      "v": 110
    },
    {
      "midi": 66,
      "hit": false,
      "t": 116357.02649999999,
      "d": 209.82121875000303,
      "v": 110
    },
    {
      "midi": 48,
      "hit": false,
      "t": 116571.31199999998,
      "d": 209.82121875000303,
      "v": 110
    },
    {
      "midi": 60,
      "hit": false,
      "t": 116571.31199999998,
      "d": 209.82121875000303,
      "v": 110
    },
    {
      "midi": 64,
      "hit": false,
      "t": 116571.31199999999,
      "d": 357.14250000000175,
      "v": 110
    },
    {
      "midi": 72,
      "hit": false,
      "t": 116571.31199999999,
      "d": 357.14250000000175,
      "v": 110
    },
    {
      "midi": 48,
      "hit": false,
      "t": 116785.59749999997,
      "d": 357.14250000000175,
      "v": 110
    },
    {
      "midi": 60,
      "hit": false,
      "t": 116785.59749999997,
      "d": 357.14250000000175,
      "v": 110
    },
    {
      "midi": 65,
      "hit": false,
      "t": 116999.88299999999,
      "d": 209.82121875000303,
      "v": 110
    },
    {
      "midi": 74,
      "hit": false,
      "t": 116999.88299999999,
      "d": 209.82121875000303,
      "v": 110
    },
    {
      "midi": 48,
      "hit": false,
      "t": 117214.16849999997,
      "d": 357.14250000000175,
      "v": 110
    },
    {
      "midi": 60,
      "hit": false,
      "t": 117214.16849999997,
      "d": 357.14250000000175,
      "v": 110
    },
    {
      "midi": 67,
      "hit": false,
      "t": 117214.16849999999,
      "d": 209.82121875000303,
      "v": 110
    },
    {
      "midi": 76,
      "hit": false,
      "t": 117214.16849999999,
      "d": 209.82121875000303,
      "v": 110
    },
    {
      "midi": 72,
      "hit": false,
      "t": 117428.45399999998,
      "d": 209.82121875000303,
      "v": 110
    },
    {
      "midi": 55,
      "hit": false,
      "t": 117642.73949999997,
      "d": 209.82121875000303,
      "v": 110
    },
    {
      "midi": 79,
      "hit": false,
      "t": 117642.73949999998,
      "d": 209.82121875000303,
      "v": 110
    },
    {
      "midi": 48,
      "hit": false,
      "t": 117857.02499999997,
      "d": 357.14250000000175,
      "v": 110
    },
    {
      "midi": 60,
      "hit": false,
      "t": 117857.02499999997,
      "d": 357.14250000000175,
      "v": 110
    },
    {
      "midi": 72,
      "hit": false,
      "t": 117857.02499999998,
      "d": 209.82121875000303,
      "v": 110
    },
    {
      "midi": 74,
      "hit": false,
      "t": 118071.31049999998,
      "d": 209.82121875000303,
      "v": 110
    },
    {
      "midi": 48,
      "hit": false,
      "t": 118285.59599999996,
      "d": 209.82121875000303,
      "v": 110
    },
    {
      "midi": 60,
      "hit": false,
      "t": 118285.59599999996,
      "d": 209.82121875000303,
      "v": 110
    },
    {
      "midi": 64,
      "hit": false,
      "t": 118285.59599999998,
      "d": 357.14250000000175,
      "v": 110
    },
    {
      "midi": 72,
      "hit": false,
      "t": 118285.59599999998,
      "d": 357.14250000000175,
      "v": 110
    },
    {
      "midi": 48,
      "hit": false,
      "t": 118499.88149999996,
      "d": 357.14250000000175,
      "v": 110
    },
    {
      "midi": 60,
      "hit": false,
      "t": 118499.88149999996,
      "d": 357.14250000000175,
      "v": 110
    },
    {
      "midi": 65,
      "hit": false,
      "t": 118714.16699999997,
      "d": 209.82121875000303,
      "v": 110
    },
    {
      "midi": 74,
      "hit": false,
      "t": 118714.16699999997,
      "d": 209.82121875000303,
      "v": 110
    },
    {
      "midi": 48,
      "hit": false,
      "t": 118928.45249999996,
      "d": 357.14250000000175,
      "v": 110
    },
    {
      "midi": 60,
      "hit": false,
      "t": 118928.45249999996,
      "d": 357.14250000000175,
      "v": 110
    },
    {
      "midi": 67,
      "hit": false,
      "t": 118928.45249999997,
      "d": 209.82121875000303,
      "v": 110
    },
    {
      "midi": 76,
      "hit": false,
      "t": 118928.45249999997,
      "d": 209.82121875000303,
      "v": 110
    },
    {
      "midi": 72,
      "hit": false,
      "t": 119142.73799999997,
      "d": 209.82121875000303,
      "v": 110
    },
    {
      "midi": 55,
      "hit": false,
      "t": 119357.02349999995,
      "d": 209.82121875000303,
      "v": 110
    },
    {
      "midi": 69,
      "hit": false,
      "t": 119357.02349999997,
      "d": 209.82121875000303,
      "v": 110
    },
    {
      "midi": 77,
      "hit": false,
      "t": 119357.02349999997,
      "d": 209.82121875000303,
      "v": 110
    },
    {
      "midi": 48,
      "hit": false,
      "t": 119571.30899999995,
      "d": 357.14250000000175,
      "v": 110
    },
    {
      "midi": 60,
      "hit": false,
      "t": 119571.30899999995,
      "d": 357.14250000000175,
      "v": 110
    },
    {
      "midi": 72,
      "hit": false,
      "t": 119571.30899999996,
      "d": 209.82121875000303,
      "v": 110
    },
    {
      "midi": 79,
      "hit": false,
      "t": 119571.30899999996,
      "d": 209.82121875000303,
      "v": 110
    },
    {
      "midi": 69,
      "hit": false,
      "t": 119785.59449999996,
      "d": 209.82121875000303,
      "v": 110
    },
    {
      "midi": 77,
      "hit": false,
      "t": 119785.59449999996,
      "d": 209.82121875000303,
      "v": 110
    },
    {
      "midi": 46,
      "hit": false,
      "t": 119999.87999999995,
      "d": 209.82121875000303,
      "v": 110
    },
    {
      "midi": 58,
      "hit": false,
      "t": 119999.87999999995,
      "d": 209.82121875000303,
      "v": 110
    },
    {
      "midi": 67,
      "hit": false,
      "t": 119999.87999999996,
      "d": 357.14250000000175,
      "v": 110
    },
    {
      "midi": 76,
      "hit": false,
      "t": 119999.87999999996,
      "d": 357.14250000000175,
      "v": 110
    },
    {
      "midi": 46,
      "hit": false,
      "t": 120214.16549999994,
      "d": 357.14250000000175,
      "v": 110
    },
    {
      "midi": 58,
      "hit": false,
      "t": 120214.16549999994,
      "d": 357.14250000000175,
      "v": 110
    },
    {
      "midi": 70,
      "hit": false,
      "t": 120428.45099999996,
      "d": 209.82121875000303,
      "v": 110
    },
    {
      "midi": 46,
      "hit": false,
      "t": 120642.73649999994,
      "d": 357.14250000000175,
      "v": 110
    },
    {
      "midi": 58,
      "hit": false,
      "t": 120642.73649999994,
      "d": 357.14250000000175,
      "v": 110
    },
    {
      "midi": 65,
      "hit": false,
      "t": 120642.73649999996,
      "d": 102.67846875000396,
      "v": 110
    },
    {
      "midi": 74,
      "hit": false,
      "t": 120642.73649999996,
      "d": 102.67846875000396,
      "v": 110
    },
    {
      "midi": 64,
      "hit": false,
      "t": 120749.87924999995,
      "d": 102.67846875000396,
      "v": 110
    },
    {
      "midi": 72,
      "hit": false,
      "t": 120749.87924999995,
      "d": 102.67846875000396,
      "v": 110
    },
    {
      "midi": 65,
      "hit": false,
      "t": 120857.02199999995,
      "d": 209.82121875000303,
      "v": 110
    },
    {
      "midi": 74,
      "hit": false,
      "t": 120857.02199999995,
      "d": 209.82121875000303,
      "v": 110
    },
    {
      "midi": 53,
      "hit": false,
      "t": 121071.30749999994,
      "d": 209.82121875000303,
      "v": 110
    },
    {
      "midi": 77,
      "hit": false,
      "t": 121071.30749999995,
      "d": 209.82121875000303,
      "v": 110
    },
    {
      "midi": 46,
      "hit": false,
      "t": 121285.59299999994,
      "d": 357.14250000000175,
      "v": 110
    },
    {
      "midi": 58,
      "hit": false,
      "t": 121285.59299999994,
      "d": 357.14250000000175,
      "v": 110
    },
    {
      "midi": 72,
      "hit": false,
      "t": 121285.59299999995,
      "d": 209.82121875000303,
      "v": 110
    },
    {
      "midi": 74,
      "hit": false,
      "t": 121499.87849999995,
      "d": 209.82121875000303,
      "v": 110
    },
    {
      "midi": 46,
      "hit": false,
      "t": 121714.16399999993,
      "d": 209.82121875000303,
      "v": 110
    },
    {
      "midi": 58,
      "hit": false,
      "t": 121714.16399999993,
      "d": 209.82121875000303,
      "v": 110
    },
    {
      "midi": 72,
      "hit": false,
      "t": 121714.16399999995,
      "d": 209.82121875000303,
      "v": 110
    },
    {
      "midi": 46,
      "hit": false,
      "t": 121928.44949999993,
      "d": 357.14250000000175,
      "v": 110
    },
    {
      "midi": 58,
      "hit": false,
      "t": 121928.44949999993,
      "d": 357.14250000000175,
      "v": 110
    },
    {
      "midi": 74,
      "hit": false,
      "t": 121928.44949999994,
      "d": 209.82121875000303,
      "v": 110
    },
    {
      "midi": 77,
      "hit": false,
      "t": 122142.73499999994,
      "d": 209.82121875000303,
      "v": 110
    },
    {
      "midi": 46,
      "hit": false,
      "t": 122357.02049999993,
      "d": 357.14250000000175,
      "v": 110
    },
    {
      "midi": 58,
      "hit": false,
      "t": 122357.02049999993,
      "d": 357.14250000000175,
      "v": 110
    },
    {
      "midi": 72,
      "hit": false,
      "t": 122357.02049999994,
      "d": 209.82121875000303,
      "v": 110
    },
    {
      "midi": 74,
      "hit": false,
      "t": 122571.30599999994,
      "d": 209.82121875000303,
      "v": 110
    },
    {
      "midi": 53,
      "hit": false,
      "t": 122785.59149999992,
      "d": 209.82121875000303,
      "v": 110
    },
    {
      "midi": 77,
      "hit": false,
      "t": 122785.59149999994,
      "d": 209.82121875000303,
      "v": 110
    },
    {
      "midi": 46,
      "hit": false,
      "t": 122999.87699999992,
      "d": 357.14250000000175,
      "v": 110
    },
    {
      "midi": 58,
      "hit": false,
      "t": 122999.87699999992,
      "d": 357.14250000000175,
      "v": 110
    },
    {
      "midi": 72,
      "hit": false,
      "t": 122999.87699999993,
      "d": 209.82121875000303,
      "v": 110
    },
    {
      "midi": 74,
      "hit": false,
      "t": 123214.16249999993,
      "d": 209.82121875000303,
      "v": 110
    },
    {
      "midi": 48,
      "hit": false,
      "t": 123428.44799999992,
      "d": 209.82121875000303,
      "v": 110
    },
    {
      "midi": 60,
      "hit": false,
      "t": 123428.44799999992,
      "d": 209.82121875000303,
      "v": 110
    },
    {
      "midi": 64,
      "hit": false,
      "t": 123428.44799999993,
      "d": 357.14250000000175,
      "v": 110
    },
    {
      "midi": 72,
      "hit": false,
      "t": 123428.44799999993,
      "d": 357.14250000000175,
      "v": 110
    },
    {
      "midi": 48,
      "hit": false,
      "t": 123642.73349999991,
      "d": 357.14250000000175,
      "v": 110
    },
    {
      "midi": 60,
      "hit": false,
      "t": 123642.73349999991,
      "d": 357.14250000000175,
      "v": 110
    },
    {
      "midi": 65,
      "hit": false,
      "t": 123857.01899999993,
      "d": 209.82121875000303,
      "v": 110
    },
    {
      "midi": 74,
      "hit": false,
      "t": 123857.01899999993,
      "d": 209.82121875000303,
      "v": 110
    },
    {
      "midi": 48,
      "hit": false,
      "t": 124071.30449999991,
      "d": 357.14250000000175,
      "v": 110
    },
    {
      "midi": 60,
      "hit": false,
      "t": 124071.30449999991,
      "d": 357.14250000000175,
      "v": 110
    },
    {
      "midi": 67,
      "hit": false,
      "t": 124071.30449999993,
      "d": 209.82121875000303,
      "v": 110
    },
    {
      "midi": 76,
      "hit": false,
      "t": 124071.30449999993,
      "d": 209.82121875000303,
      "v": 110
    },
    {
      "midi": 72,
      "hit": false,
      "t": 124285.58999999992,
      "d": 209.82121875000303,
      "v": 110
    },
    {
      "midi": 55,
      "hit": false,
      "t": 124499.87549999991,
      "d": 209.82121875000303,
      "v": 110
    },
    {
      "midi": 79,
      "hit": false,
      "t": 124499.87549999992,
      "d": 209.82121875000303,
      "v": 110
    },
    {
      "midi": 48,
      "hit": false,
      "t": 124714.1609999999,
      "d": 357.14250000000175,
      "v": 110
    },
    {
      "midi": 60,
      "hit": false,
      "t": 124714.1609999999,
      "d": 357.14250000000175,
      "v": 110
    },
    {
      "midi": 72,
      "hit": false,
      "t": 124714.16099999992,
      "d": 209.82121875000303,
      "v": 110
    },
    {
      "midi": 74,
      "hit": false,
      "t": 124928.44649999992,
      "d": 209.82121875000303,
      "v": 110
    },
    {
      "midi": 48,
      "hit": false,
      "t": 125142.7319999999,
      "d": 209.82121875000303,
      "v": 110
    },
    {
      "midi": 60,
      "hit": false,
      "t": 125142.7319999999,
      "d": 209.82121875000303,
      "v": 110
    },
    {
      "midi": 64,
      "hit": false,
      "t": 125142.73199999992,
      "d": 357.14250000000175,
      "v": 110
    },
    {
      "midi": 72,
      "hit": false,
      "t": 125142.73199999992,
      "d": 357.14250000000175,
      "v": 110
    },
    {
      "midi": 48,
      "hit": false,
      "t": 125357.0174999999,
      "d": 357.14250000000175,
      "v": 110
    },
    {
      "midi": 60,
      "hit": false,
      "t": 125357.0174999999,
      "d": 357.14250000000175,
      "v": 110
    },
    {
      "midi": 65,
      "hit": false,
      "t": 125571.30299999991,
      "d": 209.82121875000303,
      "v": 110
    },
    {
      "midi": 74,
      "hit": false,
      "t": 125571.30299999991,
      "d": 209.82121875000303,
      "v": 110
    },
    {
      "midi": 48,
      "hit": false,
      "t": 125785.5884999999,
      "d": 357.14250000000175,
      "v": 110
    },
    {
      "midi": 60,
      "hit": false,
      "t": 125785.5884999999,
      "d": 357.14250000000175,
      "v": 110
    },
    {
      "midi": 67,
      "hit": false,
      "t": 125785.58849999991,
      "d": 209.82121875000303,
      "v": 110
    },
    {
      "midi": 76,
      "hit": false,
      "t": 125785.58849999991,
      "d": 209.82121875000303,
      "v": 110
    },
    {
      "midi": 72,
      "hit": false,
      "t": 125999.87399999991,
      "d": 209.82121875000303,
      "v": 110
    },
    {
      "midi": 55,
      "hit": false,
      "t": 126214.15949999989,
      "d": 209.82121875000303,
      "v": 110
    },
    {
      "midi": 69,
      "hit": false,
      "t": 126214.1594999999,
      "d": 209.82121875000303,
      "v": 110
    },
    {
      "midi": 77,
      "hit": false,
      "t": 126214.1594999999,
      "d": 209.82121875000303,
      "v": 110
    },
    {
      "midi": 48,
      "hit": false,
      "t": 126428.44499999989,
      "d": 357.14250000000175,
      "v": 110
    },
    {
      "midi": 60,
      "hit": false,
      "t": 126428.44499999989,
      "d": 357.14250000000175,
      "v": 110
    },
    {
      "midi": 72,
      "hit": false,
      "t": 126428.4449999999,
      "d": 209.82121875000303,
      "v": 110
    },
    {
      "midi": 79,
      "hit": false,
      "t": 126428.4449999999,
      "d": 209.82121875000303,
      "v": 110
    },
    {
      "midi": 69,
      "hit": false,
      "t": 126642.7304999999,
      "d": 209.82121875000303,
      "v": 110
    },
    {
      "midi": 77,
      "hit": false,
      "t": 126642.7304999999,
      "d": 209.82121875000303,
      "v": 110
    },
    {
      "midi": 46,
      "hit": false,
      "t": 126857.01599999989,
      "d": 209.82121875000303,
      "v": 110
    },
    {
      "midi": 58,
      "hit": false,
      "t": 126857.01599999989,
      "d": 209.82121875000303,
      "v": 110
    },
    {
      "midi": 67,
      "hit": false,
      "t": 126857.0159999999,
      "d": 357.14250000000175,
      "v": 110
    },
    {
      "midi": 76,
      "hit": false,
      "t": 126857.0159999999,
      "d": 357.14250000000175,
      "v": 110
    },
    {
      "midi": 46,
      "hit": false,
      "t": 127071.30149999988,
      "d": 357.14250000000175,
      "v": 110
    },
    {
      "midi": 58,
      "hit": false,
      "t": 127071.30149999988,
      "d": 357.14250000000175,
      "v": 110
    },
    {
      "midi": 70,
      "hit": false,
      "t": 127285.5869999999,
      "d": 209.82121875000303,
      "v": 110
    },
    {
      "midi": 46,
      "hit": false,
      "t": 127499.87249999988,
      "d": 357.14250000000175,
      "v": 110
    },
    {
      "midi": 58,
      "hit": false,
      "t": 127499.87249999988,
      "d": 357.14250000000175,
      "v": 110
    },
    {
      "midi": 65,
      "hit": false,
      "t": 127499.8724999999,
      "d": 102.67846875000396,
      "v": 110
    },
    {
      "midi": 74,
      "hit": false,
      "t": 127499.8724999999,
      "d": 102.67846875000396,
      "v": 110
    },
    {
      "midi": 64,
      "hit": false,
      "t": 127607.0152499999,
      "d": 102.67846875000396,
      "v": 110
    },
    {
      "midi": 72,
      "hit": false,
      "t": 127607.0152499999,
      "d": 102.67846875000396,
      "v": 110
    },
    {
      "midi": 65,
      "hit": false,
      "t": 127714.1579999999,
      "d": 209.82121875000303,
      "v": 110
    },
    {
      "midi": 74,
      "hit": false,
      "t": 127714.1579999999,
      "d": 209.82121875000303,
      "v": 110
    },
    {
      "midi": 53,
      "hit": false,
      "t": 127928.44349999988,
      "d": 209.82121875000303,
      "v": 110
    },
    {
      "midi": 77,
      "hit": false,
      "t": 127928.44349999989,
      "d": 209.82121875000303,
      "v": 110
    },
    {
      "midi": 46,
      "hit": false,
      "t": 128142.72899999988,
      "d": 357.14250000000175,
      "v": 110
    },
    {
      "midi": 58,
      "hit": false,
      "t": 128142.72899999988,
      "d": 357.14250000000175,
      "v": 110
    },
    {
      "midi": 72,
      "hit": false,
      "t": 128142.72899999989,
      "d": 209.82121875000303,
      "v": 110
    },
    {
      "midi": 74,
      "hit": false,
      "t": 128357.01449999989,
      "d": 209.82121875000303,
      "v": 110
    },
    {
      "midi": 46,
      "hit": false,
      "t": 128571.29999999987,
      "d": 209.82121875000303,
      "v": 110
    },
    {
      "midi": 58,
      "hit": false,
      "t": 128571.29999999987,
      "d": 209.82121875000303,
      "v": 110
    },
    {
      "midi": 72,
      "hit": false,
      "t": 128571.29999999989,
      "d": 209.82121875000303,
      "v": 110
    },
    {
      "midi": 46,
      "hit": false,
      "t": 128785.58549999987,
      "d": 357.14250000000175,
      "v": 110
    },
    {
      "midi": 58,
      "hit": false,
      "t": 128785.58549999987,
      "d": 357.14250000000175,
      "v": 110
    },
    {
      "midi": 74,
      "hit": false,
      "t": 128785.58549999988,
      "d": 209.82121875000303,
      "v": 110
    },
    {
      "midi": 77,
      "hit": false,
      "t": 128999.87099999988,
      "d": 209.82121875000303,
      "v": 110
    },
    {
      "midi": 46,
      "hit": false,
      "t": 129214.15649999987,
      "d": 357.14250000000175,
      "v": 110
    },
    {
      "midi": 58,
      "hit": false,
      "t": 129214.15649999987,
      "d": 357.14250000000175,
      "v": 110
    },
    {
      "midi": 74,
      "hit": false,
      "t": 129214.15649999988,
      "d": 209.82121875000303,
      "v": 110
    },
    {
      "midi": 65,
      "hit": false,
      "t": 129428.44199999988,
      "d": 357.14250000000175,
      "v": 110
    },
    {
      "midi": 72,
      "hit": false,
      "t": 129428.44199999988,
      "d": 357.14250000000175,
      "v": 110
    },
    {
      "midi": 53,
      "hit": false,
      "t": 129642.72749999986,
      "d": 209.82121875000303,
      "v": 110
    },
    {
      "midi": 46,
      "hit": false,
      "t": 129857.01299999986,
      "d": 357.14250000000175,
      "v": 110
    },
    {
      "midi": 58,
      "hit": false,
      "t": 129857.01299999986,
      "d": 357.14250000000175,
      "v": 110
    },
    {
      "midi": 65,
      "hit": false,
      "t": 129857.01299999988,
      "d": 209.82121875000303,
      "v": 110
    },
    {
      "midi": 70,
      "hit": false,
      "t": 129857.01299999988,
      "d": 209.82121875000303,
      "v": 110
    },
    {
      "midi": 74,
      "hit": false,
      "t": 129857.01299999988,
      "d": 209.82121875000303,
      "v": 110
    },
    {
      "midi": 70,
      "hit": false,
      "t": 130071.29849999987,
      "d": 209.82121875000303,
      "v": 110
    },
    {
      "midi": 45,
      "hit": false,
      "t": 130285.58399999986,
      "d": 571.4279999999999,
      "v": 110
    },
    {
      "midi": 57,
      "hit": false,
      "t": 130285.58399999986,
      "d": 571.4279999999999,
      "v": 110
    },
    {
      "midi": 67,
      "hit": false,
      "t": 130285.58399999987,
      "d": 571.4279999999999,
      "v": 110
    },
    {
      "midi": 72,
      "hit": false,
      "t": 130285.58399999987,
      "d": 571.4279999999999,
      "v": 110
    },
    {
      "midi": 76,
      "hit": false,
      "t": 130285.58399999987,
      "d": 571.4279999999999,
      "v": 110
    },
    {
      "midi": 45,
      "hit": false,
      "t": 130928.44049999985,
      "d": 571.4280000000144,
      "v": 110
    },
    {
      "midi": 57,
      "hit": false,
      "t": 130928.44049999985,
      "d": 571.4280000000144,
      "v": 110
    },
    {
      "midi": 83,
      "hit": false,
      "t": 130928.44049999987,
      "d": 102.67846875000396,
      "v": 110
    },
    {
      "midi": 81,
      "hit": false,
      "t": 131035.58324999987,
      "d": 102.6784687499894,
      "v": 110
    },
    {
      "midi": 79,
      "hit": false,
      "t": 131142.72599999985,
      "d": 571.4280000000144,
      "v": 110
    },
    {
      "midi": 83,
      "hit": false,
      "t": 131142.72599999985,
      "d": 571.4280000000144,
      "v": 110
    },
    {
      "midi": 52,
      "hit": false,
      "t": 131571.29699999987,
      "d": 357.1424999999872,
      "v": 110
    },
    {
      "midi": 79,
      "hit": false,
      "t": 131785.58249999987,
      "d": 102.67846875000396,
      "v": 110
    },
    {
      "midi": 78,
      "hit": false,
      "t": 131892.72524999987,
      "d": 102.67846875000396,
      "v": 110
    },
    {
      "midi": 71,
      "hit": false,
      "t": 131999.86799999987,
      "d": 749.9992499999935,
      "v": 110
    },
    {
      "midi": 76,
      "hit": false,
      "t": 131999.86799999987,
      "d": 749.9992499999935,
      "v": 110
    },
    {
      "midi": 79,
      "hit": false,
      "t": 131999.86799999987,
      "d": 749.9992499999935,
      "v": 110
    },
    {
      "midi": 33,
      "hit": false,
      "t": 131999.86799999987,
      "d": 571.4280000000144,
      "v": 110
    },
    {
      "midi": 45,
      "hit": false,
      "t": 131999.86799999987,
      "d": 571.4280000000144,
      "v": 110
    },
    {
      "midi": 33,
      "hit": false,
      "t": 132642.7244999999,
      "d": 571.4280000000144,
      "v": 110
    },
    {
      "midi": 45,
      "hit": false,
      "t": 132642.7244999999,
      "d": 571.4280000000144,
      "v": 110
    },
    {
      "midi": 74,
      "hit": false,
      "t": 132857.00999999986,
      "d": 357.1424999999872,
      "v": 110
    },
    {
      "midi": 76,
      "hit": false,
      "t": 133285.58099999986,
      "d": 357.1424999999872,
      "v": 110
    },
    {
      "midi": 33,
      "hit": false,
      "t": 133285.58099999992,
      "d": 357.1424999999872,
      "v": 110
    },
    {
      "midi": 45,
      "hit": false,
      "t": 133285.58099999992,
      "d": 357.1424999999872,
      "v": 110
    },
    {
      "midi": 67,
      "hit": false,
      "t": 133714.15199999986,
      "d": 571.4280000000144,
      "v": 110
    },
    {
      "midi": 74,
      "hit": false,
      "t": 133714.15199999986,
      "d": 571.4280000000144,
      "v": 110
    },
    {
      "midi": 79,
      "hit": false,
      "t": 133714.15199999986,
      "d": 571.4280000000144,
      "v": 110
    },
    {
      "midi": 43,
      "hit": false,
      "t": 133714.1519999999,
      "d": 571.4280000000144,
      "v": 110
    },
    {
      "midi": 55,
      "hit": false,
      "t": 133714.1519999999,
      "d": 571.4280000000144,
      "v": 110
    },
    {
      "midi": 69,
      "hit": false,
      "t": 134357.00849999988,
      "d": 1821.4267500000133,
      "v": 110
    },
    {
      "midi": 74,
      "hit": false,
      "t": 134357.00849999988,
      "d": 1821.4267500000133,
      "v": 110
    },
    {
      "midi": 43,
      "hit": false,
      "t": 134357.00849999994,
      "d": 571.4280000000144,
      "v": 110
    },
    {
      "midi": 55,
      "hit": false,
      "t": 134357.00849999994,
      "d": 571.4280000000144,
      "v": 110
    },
    {
      "midi": 50,
      "hit": false,
      "t": 134999.86499999996,
      "d": 357.1424999999872,
      "v": 110
    },
    {
      "midi": 43,
      "hit": false,
      "t": 135428.43599999996,
      "d": 209.82121875000303,
      "v": 110
    },
    {
      "midi": 55,
      "hit": false,
      "t": 135428.43599999996,
      "d": 209.82121875000303,
      "v": 110
    },
    {
      "midi": 43,
      "hit": false,
      "t": 135642.72149999996,
      "d": 357.1424999999872,
      "v": 110
    },
    {
      "midi": 55,
      "hit": false,
      "t": 135642.72149999996,
      "d": 357.1424999999872,
      "v": 110
    },
    {
      "midi": 43,
      "hit": false,
      "t": 136071.29249999995,
      "d": 209.82121875000303,
      "v": 110
    },
    {
      "midi": 55,
      "hit": false,
      "t": 136071.29249999995,
      "d": 209.82121875000303,
      "v": 110
    },
    {
      "midi": 67,
      "hit": false,
      "t": 136285.5779999999,
      "d": 357.1424999999872,
      "v": 110
    },
    {
      "midi": 74,
      "hit": false,
      "t": 136285.5779999999,
      "d": 357.1424999999872,
      "v": 110
    },
    {
      "midi": 43,
      "hit": false,
      "t": 136285.57799999995,
      "d": 357.1424999999872,
      "v": 110
    },
    {
      "midi": 55,
      "hit": false,
      "t": 136285.57799999995,
      "d": 357.1424999999872,
      "v": 110
    },
    {
      "midi": 67,
      "hit": false,
      "t": 136714.1489999999,
      "d": 357.1424999999872,
      "v": 110
    },
    {
      "midi": 76,
      "hit": false,
      "t": 136714.1489999999,
      "d": 357.1424999999872,
      "v": 110
    },
    {
      "midi": 45,
      "hit": false,
      "t": 136714.14899999995,
      "d": 357.1424999999872,
      "v": 110
    },
    {
      "midi": 57,
      "hit": false,
      "t": 136714.14899999995,
      "d": 357.1424999999872,
      "v": 110
    },
    {
      "midi": 72,
      "hit": false,
      "t": 137142.71999999988,
      "d": 571.4280000000144,
      "v": 110
    },
    {
      "midi": 77,
      "hit": false,
      "t": 137142.71999999988,
      "d": 571.4280000000144,
      "v": 110
    },
    {
      "midi": 46,
      "hit": false,
      "t": 137142.71999999994,
      "d": 571.4280000000144,
      "v": 110
    },
    {
      "midi": 58,
      "hit": false,
      "t": 137142.71999999994,
      "d": 571.4280000000144,
      "v": 110
    },
    {
      "midi": 69,
      "hit": false,
      "t": 137785.5764999999,
      "d": 102.67846875000396,
      "v": 110
    },
    {
      "midi": 46,
      "hit": false,
      "t": 137785.57649999997,
      "d": 357.1424999999872,
      "v": 110
    },
    {
      "midi": 58,
      "hit": false,
      "t": 137785.57649999997,
      "d": 357.1424999999872,
      "v": 110
    },
    {
      "midi": 67,
      "hit": false,
      "t": 137892.7192499999,
      "d": 102.67846875000396,
      "v": 110
    },
    {
      "midi": 69,
      "hit": false,
      "t": 137999.8619999999,
      "d": 571.4280000000144,
      "v": 110
    },
    {
      "midi": 72,
      "hit": false,
      "t": 137999.8619999999,
      "d": 571.4280000000144,
      "v": 110
    },
    {
      "midi": 76,
      "hit": false,
      "t": 137999.8619999999,
      "d": 571.4280000000144,
      "v": 110
    },
    {
      "midi": 53,
      "hit": false,
      "t": 138214.14749999996,
      "d": 209.82121875000303,
      "v": 110
    },
    {
      "midi": 46,
      "hit": false,
      "t": 138428.43299999996,
      "d": 357.1424999999872,
      "v": 110
    },
    {
      "midi": 65,
      "hit": false,
      "t": 138642.71849999993,
      "d": 102.67846875000396,
      "v": 110
    },
    {
      "midi": 64,
      "hit": false,
      "t": 138749.86124999993,
      "d": 102.67846875000396,
      "v": 110
    },
    {
      "midi": 65,
      "hit": false,
      "t": 138857.00399999993,
      "d": 749.9992499999935,
      "v": 110
    },
    {
      "midi": 70,
      "hit": false,
      "t": 138857.00399999993,
      "d": 749.9992499999935,
      "v": 110
    },
    {
      "midi": 74,
      "hit": false,
      "t": 138857.00399999993,
      "d": 749.9992499999935,
      "v": 110
    },
    {
      "midi": 46,
      "hit": false,
      "t": 138857.00399999996,
      "d": 209.82121875000303,
      "v": 110
    },
    {
      "midi": 58,
      "hit": false,
      "t": 138857.00399999996,
      "d": 209.82121875000303,
      "v": 110
    },
    {
      "midi": 46,
      "hit": false,
      "t": 139071.28949999996,
      "d": 357.1424999999872,
      "v": 110
    },
    {
      "midi": 58,
      "hit": false,
      "t": 139071.28949999996,
      "d": 357.1424999999872,
      "v": 110
    },
    {
      "midi": 46,
      "hit": false,
      "t": 139499.86049999995,
      "d": 357.1424999999872,
      "v": 110
    },
    {
      "midi": 58,
      "hit": false,
      "t": 139499.86049999995,
      "d": 357.1424999999872,
      "v": 110
    },
    {
      "midi": 67,
      "hit": false,
      "t": 139714.14599999992,
      "d": 357.1424999999872,
      "v": 110
    },
    {
      "midi": 72,
      "hit": false,
      "t": 139714.14599999992,
      "d": 357.1424999999872,
      "v": 110
    },
    {
      "midi": 48,
      "hit": false,
      "t": 139928.43149999995,
      "d": 209.82121875000303,
      "v": 110
    },
    {
      "midi": 70,
      "hit": false,
      "t": 140142.71699999992,
      "d": 357.1424999999872,
      "v": 110
    },
    {
      "midi": 74,
      "hit": false,
      "t": 140142.71699999992,
      "d": 357.1424999999872,
      "v": 110
    },
    {
      "midi": 50,
      "hit": false,
      "t": 140142.71699999995,
      "d": 209.82121875000303,
      "v": 110
    },
    {
      "midi": 51,
      "hit": false,
      "t": 140357.00249999994,
      "d": 209.82121875000303,
      "v": 110
    },
    {
      "midi": 68,
      "hit": false,
      "t": 140571.2879999999,
      "d": 571.4280000000144,
      "v": 110
    },
    {
      "midi": 72,
      "hit": false,
      "t": 140571.2879999999,
      "d": 571.4280000000144,
      "v": 110
    },
    {
      "midi": 41,
      "hit": false,
      "t": 140571.28799999994,
      "d": 571.4280000000144,
      "v": 110
    },
    {
      "midi": 53,
      "hit": false,
      "t": 140571.28799999994,
      "d": 571.4280000000144,
      "v": 110
    },
    {
      "midi": 65,
      "hit": false,
      "t": 141214.14449999994,
      "d": 102.67846875000396,
      "v": 110
    },
    {
      "midi": 41,
      "hit": false,
      "t": 141214.14449999997,
      "d": 357.1424999999872,
      "v": 110
    },
    {
      "midi": 53,
      "hit": false,
      "t": 141214.14449999997,
      "d": 357.1424999999872,
      "v": 110
    },
    {
      "midi": 63,
      "hit": false,
      "t": 141321.28724999994,
      "d": 102.67846875000396,
      "v": 110
    },
    {
      "midi": 60,
      "hit": false,
      "t": 141428.42999999993,
      "d": 571.4280000000144,
      "v": 110
    },
    {
      "midi": 65,
      "hit": false,
      "t": 141428.42999999993,
      "d": 571.4280000000144,
      "v": 110
    },
    {
      "midi": 70,
      "hit": false,
      "t": 141428.42999999993,
      "d": 571.4280000000144,
      "v": 110
    },
    {
      "midi": 48,
      "hit": false,
      "t": 141642.71549999996,
      "d": 209.82121875000303,
      "v": 110
    },
    {
      "midi": 41,
      "hit": false,
      "t": 141857.00099999996,
      "d": 357.1424999999872,
      "v": 110
    },
    {
      "midi": 53,
      "hit": false,
      "t": 141857.00099999996,
      "d": 357.1424999999872,
      "v": 110
    },
    {
      "midi": 63,
      "hit": false,
      "t": 142071.28649999996,
      "d": 102.67846875000396,
      "v": 110
    },
    {
      "midi": 62,
      "hit": false,
      "t": 142178.42924999996,
      "d": 102.67846875000396,
      "v": 110
    },
    {
      "midi": 58,
      "hit": false,
      "t": 142285.57199999996,
      "d": 749.9992499999935,
      "v": 110
    },
    {
      "midi": 63,
      "hit": false,
      "t": 142285.57199999996,
      "d": 749.9992499999935,
      "v": 110
    },
    {
      "midi": 68,
      "hit": false,
      "t": 142285.57199999996,
      "d": 749.9992499999935,
      "v": 110
    },
    {
      "midi": 39,
      "hit": false,
      "t": 142285.57199999996,
      "d": 209.82121875000303,
      "v": 110
    },
    {
      "midi": 51,
      "hit": false,
      "t": 142285.57199999996,
      "d": 209.82121875000303,
      "v": 110
    },
    {
      "midi": 39,
      "hit": false,
      "t": 142499.85749999995,
      "d": 357.1424999999872,
      "v": 110
    },
    {
      "midi": 51,
      "hit": false,
      "t": 142499.85749999995,
      "d": 357.1424999999872,
      "v": 110
    },
    {
      "midi": 39,
      "hit": false,
      "t": 142928.42849999995,
      "d": 357.1424999999872,
      "v": 110
    },
    {
      "midi": 51,
      "hit": false,
      "t": 142928.42849999995,
      "d": 357.1424999999872,
      "v": 110
    },
    {
      "midi": 65,
      "hit": false,
      "t": 143142.71399999995,
      "d": 357.1424999999872,
      "v": 110
    },
    {
      "midi": 46,
      "hit": false,
      "t": 143356.99949999995,
      "d": 209.82121875000303,
      "v": 110
    },
    {
      "midi": 67,
      "hit": false,
      "t": 143571.28499999995,
      "d": 357.1424999999872,
      "v": 110
    },
    {
      "midi": 39,
      "hit": false,
      "t": 143571.28499999995,
      "d": 357.1424999999872,
      "v": 110
    },
    {
      "midi": 51,
      "hit": false,
      "t": 143571.28499999995,
      "d": 357.1424999999872,
      "v": 110
    },
    {
      "midi": 62,
      "hit": false,
      "t": 143999.85599999994,
      "d": 2464.2832500000077,
      "v": 110
    },
    {
      "midi": 67,
      "hit": false,
      "t": 143999.85599999994,
      "d": 2464.2832500000077,
      "v": 110
    },
    {
      "midi": 74,
      "hit": false,
      "t": 143999.85599999994,
      "d": 2464.2832500000077,
      "v": 110
    },
    {
      "midi": 40,
      "hit": false,
      "t": 143999.85599999994,
      "d": 571.4280000000144,
      "v": 110
    },
    {
      "midi": 52,
      "hit": false,
      "t": 143999.85599999994,
      "d": 571.4280000000144,
      "v": 110
    },
    {
      "midi": 40,
      "hit": false,
      "t": 144642.71249999997,
      "d": 357.1424999999872,
      "v": 110
    },
    {
      "midi": 52,
      "hit": false,
      "t": 144642.71249999997,
      "d": 357.1424999999872,
      "v": 110
    },
    {
      "midi": 47,
      "hit": false,
      "t": 145071.28349999996,
      "d": 209.82121875000303,
      "v": 110
    },
    {
      "midi": 40,
      "hit": false,
      "t": 145285.56899999996,
      "d": 357.1424999999872,
      "v": 110
    },
    {
      "midi": 52,
      "hit": false,
      "t": 145285.56899999996,
      "d": 357.1424999999872,
      "v": 110
    },
    {
      "midi": 40,
      "hit": false,
      "t": 145714.13999999996,
      "d": 209.82121875000303,
      "v": 110
    },
    {
      "midi": 52,
      "hit": false,
      "t": 145714.13999999996,
      "d": 209.82121875000303,
      "v": 110
    },
    {
      "midi": 40,
      "hit": false,
      "t": 145928.42549999995,
      "d": 357.1424999999872,
      "v": 110
    },
    {
      "midi": 52,
      "hit": false,
      "t": 145928.42549999995,
      "d": 357.1424999999872,
      "v": 110
    },
    {
      "midi": 40,
      "hit": false,
      "t": 146356.99649999995,
      "d": 357.1424999999872,
      "v": 110
    },
    {
      "midi": 52,
      "hit": false,
      "t": 146356.99649999995,
      "d": 357.1424999999872,
      "v": 110
    },
    {
      "midi": 62,
      "hit": false,
      "t": 146571.28199999995,
      "d": 209.82121875000303,
      "v": 110
    },
    {
      "midi": 76,
      "hit": false,
      "t": 146571.28199999995,
      "d": 209.82121875000303,
      "v": 110
    },
    {
      "midi": 74,
      "hit": false,
      "t": 146785.56749999995,
      "d": 209.82121875000303,
      "v": 110
    },
    {
      "midi": 47,
      "hit": false,
      "t": 146785.56749999995,
      "d": 209.82121875000303,
      "v": 110
    },
    {
      "midi": 64,
      "hit": false,
      "t": 146999.85299999994,
      "d": 209.82121875000303,
      "v": 110
    },
    {
      "midi": 71,
      "hit": false,
      "t": 146999.85299999994,
      "d": 209.82121875000303,
      "v": 110
    },
    {
      "midi": 50,
      "hit": false,
      "t": 146999.85299999994,
      "d": 209.82121875000303,
      "v": 110
    },
    {
      "midi": 66,
      "hit": false,
      "t": 147214.13849999994,
      "d": 209.82121875000303,
      "v": 110
    },
    {
      "midi": 52,
      "hit": false,
      "t": 147214.13849999994,
      "d": 209.82121875000303,
      "v": 110
    },
    {
      "midi": 61,
      "hit": false,
      "t": 147428.42399999994,
      "d": 1178.5702499999898,
      "v": 110
    },
    {
      "midi": 64,
      "hit": false,
      "t": 147428.42399999994,
      "d": 1178.5702499999898,
      "v": 110
    },
    {
      "midi": 69,
      "hit": false,
      "t": 147428.42399999994,
      "d": 1178.5702499999898,
      "v": 110
    },
    {
      "midi": 40,
      "hit": false,
      "t": 147428.42399999994,
      "d": 571.4280000000144,
      "v": 110
    },
    {
      "midi": 52,
      "hit": false,
      "t": 147428.42399999994,
      "d": 571.4280000000144,
      "v": 110
    },
    {
      "midi": 40,
      "hit": false,
      "t": 148071.28049999996,
      "d": 357.1424999999872,
      "v": 110
    },
    {
      "midi": 52,
      "hit": false,
      "t": 148071.28049999996,
      "d": 357.1424999999872,
      "v": 110
    },
    {
      "midi": 47,
      "hit": false,
      "t": 148499.85149999996,
      "d": 209.82121875000303,
      "v": 110
    },
    {
      "midi": 40,
      "hit": false,
      "t": 148714.13699999996,
      "d": 357.1424999999872,
      "v": 110
    },
    {
      "midi": 52,
      "hit": false,
      "t": 148714.13699999996,
      "d": 357.1424999999872,
      "v": 110
    },
    {
      "midi": 71,
      "hit": false,
      "t": 148928.42249999993,
      "d": 209.82121875000303,
      "v": 110
    },
    {
      "midi": 64,
      "hit": false,
      "t": 149142.70799999993,
      "d": 209.82121875000303,
      "v": 110
    },
    {
      "midi": 67,
      "hit": false,
      "t": 149142.70799999993,
      "d": 209.82121875000303,
      "v": 110
    },
    {
      "midi": 73,
      "hit": false,
      "t": 149142.70799999993,
      "d": 209.82121875000303,
      "v": 110
    },
    {
      "midi": 50,
      "hit": false,
      "t": 149142.70799999996,
      "d": 209.82121875000303,
      "v": 110
    },
    {
      "midi": 74,
      "hit": false,
      "t": 149356.99349999992,
      "d": 209.82121875000303,
      "v": 110
    },
    {
      "midi": 50,
      "hit": false,
      "t": 149356.99349999995,
      "d": 357.1424999999872,
      "v": 110
    },
    {
      "midi": 73,
      "hit": false,
      "t": 149571.27899999992,
      "d": 209.82121875000303,
      "v": 110
    },
    {
      "midi": 61,
      "hit": false,
      "t": 149785.56449999992,
      "d": 209.82121875000303,
      "v": 110
    },
    {
      "midi": 64,
      "hit": false,
      "t": 149785.56449999992,
      "d": 209.82121875000303,
      "v": 110
    },
    {
      "midi": 69,
      "hit": false,
      "t": 149785.56449999992,
      "d": 209.82121875000303,
      "v": 110
    },
    {
      "midi": 49,
      "hit": false,
      "t": 149785.56449999995,
      "d": 357.1424999999872,
      "v": 110
    },
    {
      "midi": 67,
      "hit": false,
      "t": 149999.84999999992,
      "d": 209.82121875000303,
      "v": 110
    },
    {
      "midi": 66,
      "hit": false,
      "t": 150214.13549999992,
      "d": 209.82121875000303,
      "v": 110
    },
    {
      "midi": 45,
      "hit": false,
      "t": 150214.13549999995,
      "d": 209.82121875000303,
      "v": 110
    },
    {
      "midi": 64,
      "hit": false,
      "t": 150428.42099999991,
      "d": 209.82121875000303,
      "v": 110
    },
    {
      "midi": 40,
      "hit": false,
      "t": 150428.42099999994,
      "d": 209.82121875000303,
      "v": 110
    },
    {
      "midi": 61,
      "hit": false,
      "t": 150642.7064999999,
      "d": 209.82121875000303,
      "v": 110
    },
    {
      "midi": 37,
      "hit": false,
      "t": 150642.70649999994,
      "d": 209.82121875000303,
      "v": 110
    }
  ]
}