{
  "jsonPath": "Unknown/Unknown/Eugen Hildach/im-volkston.json",
  "path": "Unknown\\Unknown\\Eugen Hildach\\Im Volkston.mid",
  "name": "Im Volkston",
  "difficulty": "Advanced",
  "bpm": 90.00009000009,
  "notes": [
    {
      "midi": 68,
      "hit": false,
      "t": 0,
      "d": 333.33299999999997,
      "v": 127
    },
    {
      "midi": 37,
      "hit": false,
      "t": 0,
      "d": 666.6659999999999,
      "v": 127
    },
    {
      "midi": 61,
      "hit": false,
      "t": 333.33299999999997,
      "d": 333.33299999999997,
      "v": 127
    },
    {
      "midi": 65,
      "hit": false,
      "t": 666.6659999999999,
      "d": 333.33299999999997,
      "v": 127
    },
    {
      "midi": 44,
      "hit": false,
      "t": 666.6659999999999,
      "d": 666.6659999999999,
      "v": 127
    },
    {
      "midi": 61,
      "hit": false,
      "t": 999.9989999999999,
      "d": 333.33299999999997,
      "v": 127
    },
    {
      "midi": 68,
      "hit": false,
      "t": 1333.3319999999999,
      "d": 333.3330000000001,
      "v": 127
    },
    {
      "midi": 53,
      "hit": false,
      "t": 1333.3319999999999,
      "d": 666.6659999999999,
      "v": 127
    },
    {
      "midi": 56,
      "hit": false,
      "t": 1666.665,
      "d": 333.3330000000001,
      "v": 127
    },
    {
      "midi": 61,
      "hit": false,
      "t": 1666.665,
      "d": 333.3330000000001,
      "v": 127
    },
    {
      "midi": 65,
      "hit": false,
      "t": 1666.665,
      "d": 333.3330000000001,
      "v": 127
    },
    {
      "midi": 37,
      "hit": false,
      "t": 1999.9979999999998,
      "d": 666.6659999999999,
      "v": 127
    },
    {
      "midi": 70,
      "hit": false,
      "t": 1999.998,
      "d": 333.3330000000001,
      "v": 127
    },
    {
      "midi": 58,
      "hit": false,
      "t": 2333.331,
      "d": 666.6660000000002,
      "v": 127
    },
    {
      "midi": 63,
      "hit": false,
      "t": 2333.331,
      "d": 666.6660000000002,
      "v": 127
    },
    {
      "midi": 66,
      "hit": false,
      "t": 2333.331,
      "d": 666.6660000000002,
      "v": 127
    },
    {
      "midi": 54,
      "hit": false,
      "t": 2666.6639999999998,
      "d": 666.6660000000002,
      "v": 127
    },
    {
      "midi": 66,
      "hit": false,
      "t": 2999.9970000000003,
      "d": 333.3330000000001,
      "v": 127
    },
    {
      "midi": 58,
      "hit": false,
      "t": 3333.33,
      "d": 666.6660000000002,
      "v": 127
    },
    {
      "midi": 73,
      "hit": false,
      "t": 3333.3300000000004,
      "d": 333.3330000000001,
      "v": 127
    },
    {
      "midi": 63,
      "hit": false,
      "t": 3666.6630000000005,
      "d": 333.3330000000001,
      "v": 127
    },
    {
      "midi": 66,
      "hit": false,
      "t": 3666.6630000000005,
      "d": 333.3330000000001,
      "v": 127
    },
    {
      "midi": 70,
      "hit": false,
      "t": 3666.6630000000005,
      "d": 333.3330000000001,
      "v": 127
    },
    {
      "midi": 37,
      "hit": false,
      "t": 3999.996,
      "d": 666.6660000000002,
      "v": 127
    },
    {
      "midi": 72,
      "hit": false,
      "t": 3999.9960000000005,
      "d": 333.3330000000001,
      "v": 127
    },
    {
      "midi": 68,
      "hit": false,
      "t": 4333.329000000001,
      "d": 333.33299999999963,
      "v": 127
    },
    {
      "midi": 75,
      "hit": false,
      "t": 4666.662,
      "d": 333.33299999999963,
      "v": 127
    },
    {
      "midi": 56,
      "hit": false,
      "t": 4666.662,
      "d": 666.6660000000002,
      "v": 127
    },
    {
      "midi": 72,
      "hit": false,
      "t": 4999.995,
      "d": 333.33299999999963,
      "v": 127
    },
    {
      "midi": 76,
      "hit": false,
      "t": 5333.3279999999995,
      "d": 333.33299999999963,
      "v": 127
    },
    {
      "midi": 60,
      "hit": false,
      "t": 5333.328,
      "d": 666.6660000000002,
      "v": 127
    },
    {
      "midi": 66,
      "hit": false,
      "t": 5666.660999999999,
      "d": 333.33299999999963,
      "v": 127
    },
    {
      "midi": 68,
      "hit": false,
      "t": 5666.660999999999,
      "d": 333.33299999999963,
      "v": 127
    },
    {
      "midi": 77,
      "hit": false,
      "t": 5999.993999999999,
      "d": 333.33299999999963,
      "v": 127
    },
    {
      "midi": 37,
      "hit": false,
      "t": 5999.994000000001,
      "d": 333.33299999999963,
      "v": 127
    },
    {
      "midi": 68,
      "hit": false,
      "t": 6333.326999999998,
      "d": 166.66650000000027,
      "v": 127
    },
    {
      "midi": 56,
      "hit": false,
      "t": 6333.327,
      "d": 333.33299999999963,
      "v": 127
    },
    {
      "midi": 80,
      "hit": false,
      "t": 6499.993499999999,
      "d": 166.66650000000027,
      "v": 127
    },
    {
      "midi": 73,
      "hit": false,
      "t": 6666.659999999999,
      "d": 1333.3319999999994,
      "v": 127
    },
    {
      "midi": 80,
      "hit": false,
      "t": 6666.659999999999,
      "d": 1333.3319999999994,
      "v": 127
    },
    {
      "midi": 65,
      "hit": false,
      "t": 6666.66,
      "d": 1333.3320000000003,
      "v": 127
    },
    {
      "midi": 37,
      "hit": false,
      "t": 7999.992,
      "d": 666.6659999999993,
      "v": 127
    },
    {
      "midi": 68,
      "hit": false,
      "t": 8333.324999999999,
      "d": 333.33300000000054,
      "v": 127
    },
    {
      "midi": 75,
      "hit": false,
      "t": 8666.658,
      "d": 333.33300000000054,
      "v": 127
    },
    {
      "midi": 56,
      "hit": false,
      "t": 8666.658,
      "d": 1333.3320000000003,
      "v": 127
    },
    {
      "midi": 68,
      "hit": false,
      "t": 8999.991,
      "d": 333.33300000000054,
      "v": 127
    },
    {
      "midi": 73,
      "hit": false,
      "t": 9333.324,
      "d": 333.33300000000054,
      "v": 127
    },
    {
      "midi": 65,
      "hit": false,
      "t": 9666.657000000001,
      "d": 333.33300000000054,
      "v": 127
    },
    {
      "midi": 68,
      "hit": false,
      "t": 9666.657000000001,
      "d": 333.33300000000054,
      "v": 127
    },
    {
      "midi": 39,
      "hit": false,
      "t": 9999.99,
      "d": 666.6659999999993,
      "v": 127
    },
    {
      "midi": 78,
      "hit": false,
      "t": 9999.990000000002,
      "d": 333.33300000000054,
      "v": 127
    },
    {
      "midi": 66,
      "hit": false,
      "t": 10333.323000000002,
      "d": 333.33300000000054,
      "v": 127
    },
    {
      "midi": 56,
      "hit": false,
      "t": 10666.655999999999,
      "d": 1333.3320000000003,
      "v": 127
    },
    {
      "midi": 70,
      "hit": false,
      "t": 10666.656000000003,
      "d": 333.33300000000054,
      "v": 127
    },
    {
      "midi": 63,
      "hit": false,
      "t": 10999.989000000003,
      "d": 666.6659999999993,
      "v": 127
    },
    {
      "midi": 66,
      "hit": false,
      "t": 10999.989000000003,
      "d": 666.6659999999993,
      "v": 127
    },
    {
      "midi": 63,
      "hit": false,
      "t": 11666.655000000002,
      "d": 333.33300000000054,
      "v": 127
    },
    {
      "midi": 66,
      "hit": false,
      "t": 11666.655000000002,
      "d": 333.33300000000054,
      "v": 127
    },
    {
      "midi": 44,
      "hit": false,
      "t": 11999.988,
      "d": 666.6659999999993,
      "v": 127
    },
    {
      "midi": 75,
      "hit": false,
      "t": 11999.988000000003,
      "d": 333.33300000000054,
      "v": 127
    },
    {
      "midi": 66,
      "hit": false,
      "t": 12333.321000000004,
      "d": 333.33300000000054,
      "v": 127
    },
    {
      "midi": 58,
      "hit": false,
      "t": 12666.653999999999,
      "d": 666.6659999999993,
      "v": 127
    },
    {
      "midi": 73,
      "hit": false,
      "t": 12666.654000000004,
      "d": 333.33300000000054,
      "v": 127
    },
    {
      "midi": 66,
      "hit": false,
      "t": 12999.987000000005,
      "d": 333.33300000000054,
      "v": 127
    },
    {
      "midi": 56,
      "hit": false,
      "t": 13333.319999999998,
      "d": 666.6659999999993,
      "v": 127
    },
    {
      "midi": 72,
      "hit": false,
      "t": 13333.320000000005,
      "d": 333.33300000000054,
      "v": 127
    },
    {
      "midi": 63,
      "hit": false,
      "t": 13666.653000000006,
      "d": 333.33300000000054,
      "v": 127
    },
    {
      "midi": 66,
      "hit": false,
      "t": 13666.653000000006,
      "d": 333.33300000000054,
      "v": 127
    },
    {
      "midi": 68,
      "hit": false,
      "t": 13666.653000000006,
      "d": 333.33300000000054,
      "v": 127
    },
    {
      "midi": 37,
      "hit": false,
      "t": 13999.985999999997,
      "d": 666.6659999999993,
      "v": 127
    },
    {
      "midi": 77,
      "hit": false,
      "t": 13999.986000000006,
      "d": 333.33300000000054,
      "v": 127
    },
    {
      "midi": 65,
      "hit": false,
      "t": 14333.319000000007,
      "d": 666.6659999999993,
      "v": 127
    },
    {
      "midi": 68,
      "hit": false,
      "t": 14333.319000000007,
      "d": 666.6659999999993,
      "v": 127
    },
    {
      "midi": 56,
      "hit": false,
      "t": 14666.651999999996,
      "d": 1333.3320000000003,
      "v": 127
    },
    {
      "midi": 65,
      "hit": false,
      "t": 14999.985000000006,
      "d": 666.6659999999993,
      "v": 127
    },
    {
      "midi": 68,
      "hit": false,
      "t": 14999.985000000006,
      "d": 666.6659999999993,
      "v": 127
    },
    {
      "midi": 65,
      "hit": false,
      "t": 15666.651000000005,
      "d": 333.33300000000054,
      "v": 127
    },
    {
      "midi": 68,
      "hit": false,
      "t": 15666.651000000005,
      "d": 333.33300000000054,
      "v": 127
    },
    {
      "midi": 34,
      "hit": false,
      "t": 15999.983999999997,
      "d": 666.6660000000011,
      "v": 127
    },
    {
      "midi": 73,
      "hit": false,
      "t": 15999.984000000006,
      "d": 333.33300000000054,
      "v": 127
    },
    {
      "midi": 65,
      "hit": false,
      "t": 16333.317000000006,
      "d": 333.3329999999987,
      "v": 127
    },
    {
      "midi": 53,
      "hit": false,
      "t": 16666.649999999998,
      "d": 1333.3319999999985,
      "v": 127
    },
    {
      "midi": 72,
      "hit": false,
      "t": 16666.650000000005,
      "d": 333.3329999999987,
      "v": 127
    },
    {
      "midi": 65,
      "hit": false,
      "t": 16999.983000000004,
      "d": 333.3329999999987,
      "v": 127
    },
    {
      "midi": 70,
      "hit": false,
      "t": 17333.316000000003,
      "d": 333.3329999999987,
      "v": 127
    },
    {
      "midi": 61,
      "hit": false,
      "t": 17666.649,
      "d": 333.3329999999987,
      "v": 127
    },
    {
      "midi": 65,
      "hit": false,
      "t": 17666.649,
      "d": 333.3329999999987,
      "v": 127
    },
    {
      "midi": 39,
      "hit": false,
      "t": 17999.981999999996,
      "d": 666.6660000000011,
      "v": 127
    },
    {
      "midi": 72,
      "hit": false,
      "t": 17999.982,
      "d": 333.3329999999987,
      "v": 127
    },
    {
      "midi": 58,
      "hit": false,
      "t": 18333.315,
      "d": 666.6660000000011,
      "v": 127
    },
    {
      "midi": 63,
      "hit": false,
      "t": 18333.315,
      "d": 666.6660000000011,
      "v": 127
    },
    {
      "midi": 54,
      "hit": false,
      "t": 18666.647999999997,
      "d": 1333.3319999999985,
      "v": 127
    },
    {
      "midi": 63,
      "hit": false,
      "t": 18999.981,
      "d": 333.3329999999987,
      "v": 127
    },
    {
      "midi": 66,
      "hit": false,
      "t": 19333.314,
      "d": 333.3329999999987,
      "v": 127
    },
    {
      "midi": 58,
      "hit": false,
      "t": 19666.646999999997,
      "d": 333.3329999999987,
      "v": 127
    },
    {
      "midi": 63,
      "hit": false,
      "t": 19666.646999999997,
      "d": 333.3329999999987,
      "v": 127
    },
    {
      "midi": 65,
      "hit": false,
      "t": 19999.979999999996,
      "d": 333.3329999999987,
      "v": 127
    },
    {
      "midi": 41,
      "hit": false,
      "t": 19999.979999999996,
      "d": 666.6660000000011,
      "v": 127
    },
    {
      "midi": 57,
      "hit": false,
      "t": 20333.312999999995,
      "d": 666.6660000000011,
      "v": 127
    },
    {
      "midi": 63,
      "hit": false,
      "t": 20333.312999999995,
      "d": 666.6660000000011,
      "v": 127
    },
    {
      "midi": 48,
      "hit": false,
      "t": 20666.645999999997,
      "d": 666.6660000000011,
      "v": 127
    },
    {
      "midi": 69,
      "hit": false,
      "t": 20999.978999999996,
      "d": 333.3329999999987,
      "v": 127
    },
    {
      "midi": 77,
      "hit": false,
      "t": 21333.311999999994,
      "d": 666.6660000000011,
      "v": 127
    },
    {
      "midi": 57,
      "hit": false,
      "t": 21333.311999999998,
      "d": 666.6660000000011,
      "v": 127
    },
    {
      "midi": 65,
      "hit": false,
      "t": 21999.977999999996,
      "d": 333.3329999999987,
      "v": 127
    },
    {
      "midi": 34,
      "hit": false,
      "t": 21999.978,
      "d": 1999.9979999999996,
      "v": 127
    },
    {
      "midi": 61,
      "hit": false,
      "t": 22333.310999999994,
      "d": 333.3329999999987,
      "v": 127
    },
    {
      "midi": 63,
      "hit": false,
      "t": 22666.643999999993,
      "d": 333.3329999999987,
      "v": 127
    },
    {
      "midi": 58,
      "hit": false,
      "t": 22999.97699999999,
      "d": 333.3329999999987,
      "v": 127
    },
    {
      "midi": 61,
      "hit": false,
      "t": 23333.30999999999,
      "d": 333.3329999999987,
      "v": 127
    },
    {
      "midi": 53,
      "hit": false,
      "t": 23666.64299999999,
      "d": 333.3329999999987,
      "v": 127
    },
    {
      "midi": 58,
      "hit": false,
      "t": 23666.64299999999,
      "d": 333.3329999999987,
      "v": 127
    },
    {
      "midi": 66,
      "hit": false,
      "t": 23999.975999999988,
      "d": 333.3329999999987,
      "v": 127
    },
    {
      "midi": 27,
      "hit": false,
      "t": 23999.976,
      "d": 666.6660000000011,
      "v": 127
    },
    {
      "midi": 39,
      "hit": false,
      "t": 23999.976,
      "d": 666.6660000000011,
      "v": 127
    },
    {
      "midi": 58,
      "hit": false,
      "t": 24333.308999999987,
      "d": 333.3329999999987,
      "v": 127
    },
    {
      "midi": 60,
      "hit": false,
      "t": 24666.641999999985,
      "d": 999.9989999999998,
      "v": 127
    },
    {
      "midi": 32,
      "hit": false,
      "t": 24666.642,
      "d": 1333.3319999999985,
      "v": 127
    },
    {
      "midi": 44,
      "hit": false,
      "t": 24666.642,
      "d": 1333.3319999999985,
      "v": 127
    },
    {
      "midi": 65,
      "hit": false,
      "t": 25666.640999999985,
      "d": 333.3329999999987,
      "v": 127
    },
    {
      "midi": 65,
      "hit": false,
      "t": 25999.973999999984,
      "d": 333.3329999999987,
      "v": 127
    },
    {
      "midi": 37,
      "hit": false,
      "t": 25999.974,
      "d": 666.6660000000011,
      "v": 127
    },
    {
      "midi": 61,
      "hit": false,
      "t": 26333.306999999983,
      "d": 333.3329999999987,
      "v": 127
    },
    {
      "midi": 68,
      "hit": false,
      "t": 26666.63999999998,
      "d": 333.3329999999987,
      "v": 127
    },
    {
      "midi": 44,
      "hit": false,
      "t": 26666.64,
      "d": 666.6660000000011,
      "v": 127
    },
    {
      "midi": 65,
      "hit": false,
      "t": 26999.97299999998,
      "d": 333.3329999999987,
      "v": 127
    },
    {
      "midi": 73,
      "hit": false,
      "t": 27333.30599999998,
      "d": 333.3329999999987,
      "v": 127
    },
    {
      "midi": 53,
      "hit": false,
      "t": 27333.306,
      "d": 666.6660000000011,
      "v": 127
    },
    {
      "midi": 65,
      "hit": false,
      "t": 27666.638999999977,
      "d": 333.3329999999987,
      "v": 127
    },
    {
      "midi": 68,
      "hit": false,
      "t": 27666.638999999977,
      "d": 333.3329999999987,
      "v": 127
    },
    {
      "midi": 72,
      "hit": false,
      "t": 27999.971999999976,
      "d": 333.3329999999987,
      "v": 127
    },
    {
      "midi": 39,
      "hit": false,
      "t": 27999.972,
      "d": 666.6660000000011,
      "v": 127
    },
    {
      "midi": 63,
      "hit": false,
      "t": 28333.304999999975,
      "d": 666.6660000000011,
      "v": 127
    },
    {
      "midi": 66,
      "hit": false,
      "t": 28333.304999999975,
      "d": 666.6660000000011,
      "v": 127
    },
    {
      "midi": 56,
      "hit": false,
      "t": 28666.638000000003,
      "d": 1333.3319999999985,
      "v": 127
    },
    {
      "midi": 66,
      "hit": false,
      "t": 28999.970999999976,
      "d": 333.3329999999987,
      "v": 127
    },
    {
      "midi": 70,
      "hit": false,
      "t": 29333.303999999975,
      "d": 333.3329999999987,
      "v": 127
    },
    {
      "midi": 63,
      "hit": false,
      "t": 29666.636999999973,
      "d": 333.3329999999987,
      "v": 127
    },
    {
      "midi": 66,
      "hit": false,
      "t": 29666.636999999973,
      "d": 333.3329999999987,
      "v": 127
    },
    {
      "midi": 68,
      "hit": false,
      "t": 29999.969999999972,
      "d": 333.3329999999987,
      "v": 127
    },
    {
      "midi": 44,
      "hit": false,
      "t": 29999.97,
      "d": 666.6660000000011,
      "v": 127
    },
    {
      "midi": 60,
      "hit": false,
      "t": 30333.30299999997,
      "d": 666.6660000000011,
      "v": 127
    },
    {
      "midi": 63,
      "hit": false,
      "t": 30333.30299999997,
      "d": 666.6660000000011,
      "v": 127
    },
    {
      "midi": 54,
      "hit": false,
      "t": 30666.636000000002,
      "d": 1333.3319999999985,
      "v": 127
    },
    {
      "midi": 63,
      "hit": false,
      "t": 30999.968999999972,
      "d": 333.3329999999987,
      "v": 127
    },
    {
      "midi": 66,
      "hit": false,
      "t": 31333.30199999997,
      "d": 333.3329999999987,
      "v": 127
    },
    {
      "midi": 60,
      "hit": false,
      "t": 31666.63499999997,
      "d": 333.3329999999987,
      "v": 127
    },
    {
      "midi": 63,
      "hit": false,
      "t": 31666.63499999997,
      "d": 333.3329999999987,
      "v": 127
    },
    {
      "midi": 65,
      "hit": false,
      "t": 31999.967999999968,
      "d": 333.3329999999987,
      "v": 127
    },
    {
      "midi": 37,
      "hit": false,
      "t": 31999.968,
      "d": 666.6660000000011,
      "v": 127
    },
    {
      "midi": 61,
      "hit": false,
      "t": 32333.300999999967,
      "d": 333.3329999999987,
      "v": 127
    },
    {
      "midi": 68,
      "hit": false,
      "t": 32666.633999999965,
      "d": 333.33300000000236,
      "v": 127
    },
    {
      "midi": 44,
      "hit": false,
      "t": 32666.634000000002,
      "d": 666.6660000000011,
      "v": 127
    },
    {
      "midi": 65,
      "hit": false,
      "t": 32999.96699999997,
      "d": 333.3329999999987,
      "v": 127
    },
    {
      "midi": 73,
      "hit": false,
      "t": 33333.29999999997,
      "d": 333.3329999999987,
      "v": 127
    },
    {
      "midi": 53,
      "hit": false,
      "t": 33333.3,
      "d": 666.6659999999974,
      "v": 127
    },
    {
      "midi": 61,
      "hit": false,
      "t": 33666.632999999965,
      "d": 333.3329999999987,
      "v": 127
    },
    {
      "midi": 65,
      "hit": false,
      "t": 33666.632999999965,
      "d": 333.3329999999987,
      "v": 127
    },
    {
      "midi": 34,
      "hit": false,
      "t": 33999.966,
      "d": 666.6659999999974,
      "v": 127
    },
    {
      "midi": 61,
      "hit": false,
      "t": 34333.29899999996,
      "d": 666.6659999999974,
      "v": 127
    },
    {
      "midi": 65,
      "hit": false,
      "t": 34333.29899999996,
      "d": 666.6659999999974,
      "v": 127
    },
    {
      "midi": 53,
      "hit": false,
      "t": 34666.632,
      "d": 666.6659999999974,
      "v": 127
    },
    {
      "midi": 65,
      "hit": false,
      "t": 34999.96499999996,
      "d": 333.3329999999987,
      "v": 127
    },
    {
      "midi": 73,
      "hit": false,
      "t": 35333.29799999996,
      "d": 333.3329999999987,
      "v": 127
    },
    {
      "midi": 58,
      "hit": false,
      "t": 35333.297999999995,
      "d": 666.6659999999974,
      "v": 127
    },
    {
      "midi": 61,
      "hit": false,
      "t": 35666.63099999996,
      "d": 333.3329999999987,
      "v": 127
    },
    {
      "midi": 65,
      "hit": false,
      "t": 35666.63099999996,
      "d": 333.3329999999987,
      "v": 127
    },
    {
      "midi": 66,
      "hit": false,
      "t": 35999.963999999956,
      "d": 333.3329999999987,
      "v": 127
    },
    {
      "midi": 39,
      "hit": false,
      "t": 35999.96399999999,
      "d": 666.6659999999974,
      "v": 127
    },
    {
      "midi": 58,
      "hit": false,
      "t": 36333.296999999955,
      "d": 666.6659999999974,
      "v": 127
    },
    {
      "midi": 63,
      "hit": false,
      "t": 36333.296999999955,
      "d": 666.6659999999974,
      "v": 127
    },
    {
      "midi": 54,
      "hit": false,
      "t": 36666.62999999999,
      "d": 1333.3320000000022,
      "v": 127
    },
    {
      "midi": 63,
      "hit": false,
      "t": 36999.96299999995,
      "d": 333.3329999999987,
      "v": 127
    },
    {
      "midi": 70,
      "hit": false,
      "t": 37333.29599999995,
      "d": 333.3329999999987,
      "v": 127
    },
    {
      "midi": 63,
      "hit": false,
      "t": 37666.62899999995,
      "d": 333.3329999999987,
      "v": 127
    },
    {
      "midi": 66,
      "hit": false,
      "t": 37666.62899999995,
      "d": 333.3329999999987,
      "v": 127
    },
    {
      "midi": 69,
      "hit": false,
      "t": 37999.96199999995,
      "d": 333.3329999999987,
      "v": 127
    },
    {
      "midi": 41,
      "hit": false,
      "t": 37999.96199999999,
      "d": 666.6659999999974,
      "v": 127
    },
    {
      "midi": 60,
      "hit": false,
      "t": 38333.29499999995,
      "d": 666.6659999999974,
      "v": 127
    },
    {
      "midi": 63,
      "hit": false,
      "t": 38333.29499999995,
      "d": 666.6659999999974,
      "v": 127
    },
    {
      "midi": 65,
      "hit": false,
      "t": 38333.29499999995,
      "d": 666.6659999999974,
      "v": 127
    },
    {
      "midi": 48,
      "hit": false,
      "t": 38666.62799999999,
      "d": 666.6659999999974,
      "v": 127
    },
    {
      "midi": 63,
      "hit": false,
      "t": 38999.960999999945,
      "d": 333.3329999999987,
      "v": 127
    },
    {
      "midi": 77,
      "hit": false,
      "t": 39333.29399999994,
      "d": 666.6659999999974,
      "v": 127
    },
    {
      "midi": 57,
      "hit": false,
      "t": 39333.29399999999,
      "d": 666.6659999999974,
      "v": 127
    },
    {
      "midi": 46,
      "hit": false,
      "t": 39999.959999999985,
      "d": 666.6659999999974,
      "v": 127
    },
    {
      "midi": 70,
      "hit": false,
      "t": 40333.29299999994,
      "d": 333.3329999999987,
      "v": 127
    },
    {
      "midi": 75,
      "hit": false,
      "t": 40666.62599999994,
      "d": 333.3329999999987,
      "v": 127
    },
    {
      "midi": 53,
      "hit": false,
      "t": 40666.62599999998,
      "d": 1333.3320000000022,
      "v": 127
    },
    {
      "midi": 58,
      "hit": false,
      "t": 40666.62599999998,
      "d": 1333.3320000000022,
      "v": 127
    },
    {
      "midi": 61,
      "hit": false,
      "t": 40666.62599999998,
      "d": 1333.3320000000022,
      "v": 127
    },
    {
      "midi": 70,
      "hit": false,
      "t": 40999.95899999994,
      "d": 333.3329999999987,
      "v": 127
    },
    {
      "midi": 73,
      "hit": false,
      "t": 41333.291999999936,
      "d": 333.3329999999987,
      "v": 127
    },
    {
      "midi": 65,
      "hit": false,
      "t": 41666.624999999935,
      "d": 333.3329999999987,
      "v": 127
    },
    {
      "midi": 70,
      "hit": false,
      "t": 41666.624999999935,
      "d": 333.3329999999987,
      "v": 127
    },
    {
      "midi": 78,
      "hit": false,
      "t": 41999.95799999993,
      "d": 333.3329999999987,
      "v": 127
    },
    {
      "midi": 39,
      "hit": false,
      "t": 41999.957999999984,
      "d": 666.6659999999974,
      "v": 127
    },
    {
      "midi": 66,
      "hit": false,
      "t": 42333.29099999993,
      "d": 333.3329999999987,
      "v": 127
    },
    {
      "midi": 70,
      "hit": false,
      "t": 42666.62399999993,
      "d": 333.3329999999987,
      "v": 127
    },
    {
      "midi": 56,
      "hit": false,
      "t": 42666.62399999998,
      "d": 666.6659999999974,
      "v": 127
    },
    {
      "midi": 66,
      "hit": false,
      "t": 42999.95699999993,
      "d": 333.3329999999987,
      "v": 127
    },
    {
      "midi": 72,
      "hit": false,
      "t": 43333.28999999993,
      "d": 333.3329999999987,
      "v": 127
    },
    {
      "midi": 44,
      "hit": false,
      "t": 43333.28999999998,
      "d": 666.6659999999974,
      "v": 127
    },
    {
      "midi": 63,
      "hit": false,
      "t": 43666.62299999993,
      "d": 333.3329999999987,
      "v": 127
    },
    {
      "midi": 66,
      "hit": false,
      "t": 43666.62299999993,
      "d": 333.3329999999987,
      "v": 127
    },
    {
      "midi": 68,
      "hit": false,
      "t": 43666.62299999993,
      "d": 333.3329999999987,
      "v": 127
    },
    {
      "midi": 37,
      "hit": false,
      "t": 43999.95599999998,
      "d": 333.3329999999987,
      "v": 127
    },
    {
      "midi": 44,
      "hit": false,
      "t": 44333.288999999975,
      "d": 333.3329999999987,
      "v": 127
    },
    {
      "midi": 53,
      "hit": false,
      "t": 44666.621999999974,
      "d": 333.3329999999987,
      "v": 127
    },
    {
      "midi": 56,
      "hit": false,
      "t": 44999.95499999997,
      "d": 333.3329999999987,
      "v": 127
    },
    {
      "midi": 61,
      "hit": false,
      "t": 45333.28799999993,
      "d": 333.3329999999987,
      "v": 127
    },
    {
      "midi": 65,
      "hit": false,
      "t": 45666.62099999993,
      "d": 333.3329999999987,
      "v": 127
    },
    {
      "midi": 39,
      "hit": false,
      "t": 45999.95399999997,
      "d": 333.3329999999987,
      "v": 127
    },
    {
      "midi": 44,
      "hit": false,
      "t": 46333.28699999997,
      "d": 333.3329999999987,
      "v": 127
    },
    {
      "midi": 54,
      "hit": false,
      "t": 46666.619999999966,
      "d": 333.3329999999987,
      "v": 127
    },
    {
      "midi": 58,
      "hit": false,
      "t": 46999.952999999965,
      "d": 333.3329999999987,
      "v": 127
    },
    {
      "midi": 61,
      "hit": false,
      "t": 47333.28599999993,
      "d": 333.3329999999987,
      "v": 127
    },
    {
      "midi": 66,
      "hit": false,
      "t": 47666.618999999926,
      "d": 333.3329999999987,
      "v": 127
    },
    {
      "midi": 44,
      "hit": false,
      "t": 47999.95199999996,
      "d": 333.3329999999987,
      "v": 127
    },
    {
      "midi": 54,
      "hit": false,
      "t": 48333.28499999996,
      "d": 333.3329999999987,
      "v": 127
    },
    {
      "midi": 58,
      "hit": false,
      "t": 48666.61799999996,
      "d": 333.3329999999987,
      "v": 127
    },
    {
      "midi": 61,
      "hit": false,
      "t": 48999.95099999996,
      "d": 333.3329999999987,
      "v": 127
    },
    {
      "midi": 60,
      "hit": false,
      "t": 49333.283999999956,
      "d": 666.6659999999974,
      "v": 127
    },
    {
      "midi": 68,
      "hit": false,
      "t": 49666.616999999926,
      "d": 333.3329999999987,
      "v": 127
    },
    {
      "midi": 37,
      "hit": false,
      "t": 49999.94999999995,
      "d": 333.3329999999987,
      "v": 127
    },
    {
      "midi": 44,
      "hit": false,
      "t": 50333.28299999995,
      "d": 333.3329999999987,
      "v": 127
    },
    {
      "midi": 53,
      "hit": false,
      "t": 50666.61599999995,
      "d": 333.3329999999987,
      "v": 127
    },
    {
      "midi": 56,
      "hit": false,
      "t": 50999.94899999995,
      "d": 333.3329999999987,
      "v": 127
    },
    {
      "midi": 61,
      "hit": false,
      "t": 51333.28199999993,
      "d": 333.3329999999987,
      "v": 127
    },
    {
      "midi": 68,
      "hit": false,
      "t": 51666.614999999925,
      "d": 333.3329999999987,
      "v": 127
    },
    {
      "midi": 59,
      "hit": false,
      "t": 51999.947999999924,
      "d": 333.3329999999987,
      "v": 127
    },
    {
      "midi": 49,
      "hit": false,
      "t": 51999.947999999946,
      "d": 666.6659999999974,
      "v": 127
    },
    {
      "midi": 61,
      "hit": false,
      "t": 52333.28099999992,
      "d": 333.3329999999987,
      "v": 127
    },
    {
      "midi": 58,
      "hit": false,
      "t": 52666.61399999992,
      "d": 333.3329999999987,
      "v": 127
    },
    {
      "midi": 42,
      "hit": false,
      "t": 52666.61399999994,
      "d": 666.6659999999974,
      "v": 127
    },
    {
      "midi": 61,
      "hit": false,
      "t": 52999.94699999992,
      "d": 333.3329999999987,
      "v": 127
    },
    {
      "midi": 56,
      "hit": false,
      "t": 53333.27999999992,
      "d": 333.3329999999987,
      "v": 127
    },
    {
      "midi": 44,
      "hit": false,
      "t": 53333.27999999994,
      "d": 666.6659999999974,
      "v": 127
    },
    {
      "midi": 61,
      "hit": false,
      "t": 53666.61299999992,
      "d": 333.3329999999987,
      "v": 127
    },
    {
      "midi": 55,
      "hit": false,
      "t": 53999.945999999916,
      "d": 1333.3320000000022,
      "v": 127
    },
    {
      "midi": 61,
      "hit": false,
      "t": 53999.945999999916,
      "d": 1333.3320000000022,
      "v": 127
    },
    {
      "midi": 39,
      "hit": false,
      "t": 53999.94599999994,
      "d": 1333.3320000000022,
      "v": 127
    },
    {
      "midi": 56,
      "hit": false,
      "t": 55999.943999999916,
      "d": 333.3329999999987,
      "v": 127
    },
    {
      "midi": 44,
      "hit": false,
      "t": 55999.94399999994,
      "d": 1333.3320000000022,
      "v": 127
    },
    {
      "midi": 53,
      "hit": false,
      "t": 55999.94399999994,
      "d": 1333.3320000000022,
      "v": 127
    },
    {
      "midi": 61,
      "hit": false,
      "t": 56333.276999999915,
      "d": 333.3329999999987,
      "v": 127
    },
    {
      "midi": 56,
      "hit": false,
      "t": 56666.60999999991,
      "d": 666.6659999999974,
      "v": 127
    },
    {
      "midi": 68,
      "hit": false,
      "t": 56666.60999999991,
      "d": 666.6659999999974,
      "v": 127
    },
    {
      "midi": 69,
      "hit": false,
      "t": 57333.27599999991,
      "d": 333.3329999999987,
      "v": 127
    },
    {
      "midi": 42,
      "hit": false,
      "t": 57333.27599999994,
      "d": 666.6659999999974,
      "v": 127
    },
    {
      "midi": 54,
      "hit": false,
      "t": 57333.27599999994,
      "d": 666.6659999999974,
      "v": 127
    },
    {
      "midi": 68,
      "hit": false,
      "t": 57666.60899999991,
      "d": 333.3329999999987,
      "v": 127
    },
    {
      "midi": 77,
      "hit": false,
      "t": 57999.94199999991,
      "d": 333.3329999999987,
      "v": 127
    },
    {
      "midi": 37,
      "hit": false,
      "t": 57999.94199999994,
      "d": 666.6659999999974,
      "v": 127
    },
    {
      "midi": 68,
      "hit": false,
      "t": 58333.27499999991,
      "d": 333.3329999999987,
      "v": 127
    },
    {
      "midi": 75,
      "hit": false,
      "t": 58666.607999999906,
      "d": 333.3329999999987,
      "v": 127
    },
    {
      "midi": 56,
      "hit": false,
      "t": 58666.607999999935,
      "d": 666.6659999999974,
      "v": 127
    },
    {
      "midi": 68,
      "hit": false,
      "t": 58999.940999999904,
      "d": 333.3329999999987,
      "v": 127
    },
    {
      "midi": 73,
      "hit": false,
      "t": 59333.2739999999,
      "d": 333.3329999999987,
      "v": 127
    },
    {
      "midi": 49,
      "hit": false,
      "t": 59333.27399999993,
      "d": 666.6659999999974,
      "v": 127
    },
    {
      "midi": 57,
      "hit": false,
      "t": 59333.27399999993,
      "d": 666.6659999999974,
      "v": 127
    },
    {
      "midi": 63,
      "hit": false,
      "t": 59666.6069999999,
      "d": 333.3329999999987,
      "v": 127
    },
    {
      "midi": 66,
      "hit": false,
      "t": 59666.6069999999,
      "d": 333.3329999999987,
      "v": 127
    },
    {
      "midi": 61,
      "hit": false,
      "t": 59999.9399999999,
      "d": 666.6659999999974,
      "v": 127
    },
    {
      "midi": 65,
      "hit": false,
      "t": 59999.9399999999,
      "d": 666.6659999999974,
      "v": 127
    },
    {
      "midi": 37,
      "hit": false,
      "t": 59999.93999999993,
      "d": 333.3329999999987,
      "v": 127
    },
    {
      "midi": 44,
      "hit": false,
      "t": 60333.27299999993,
      "d": 333.3329999999987,
      "v": 127
    },
    {
      "midi": 53,
      "hit": false,
      "t": 60666.60599999993,
      "d": 333.3329999999987,
      "v": 127
    },
    {
      "midi": 56,
      "hit": false,
      "t": 60999.938999999926,
      "d": 333.3329999999987,
      "v": 127
    },
    {
      "midi": 61,
      "hit": false,
      "t": 61333.271999999895,
      "d": 333.3329999999987,
      "v": 127
    },
    {
      "midi": 68,
      "hit": false,
      "t": 61666.604999999894,
      "d": 333.3329999999987,
      "v": 127
    },
    {
      "midi": 73,
      "hit": false,
      "t": 61999.93799999989,
      "d": 1999.9979999999996,
      "v": 127
    }
  ]
}