{
  "jsonPath": "Ambient/Lounge/Paul Mauriat/the-piano-on-the-wave.json",
  "path": "Ambient\\Lounge\\Paul Mauriat\\The Piano On The Wave.mid",
  "name": "The Piano On The Wave",
  "difficulty": "Advanced",
  "bpm": 84.000084000084,
  "notes": [
    {
      "midi": 59,
      "hit": false,
      "t": 74304.24117187501,
      "d": 1409.9688281249983,
      "v": 98
    },
    {
      "midi": 67,
      "hit": false,
      "t": 74304.24117187501,
      "d": 1409.9688281249983,
      "v": 98
    },
    {
      "midi": 62,
      "hit": false,
      "t": 74304.24117187501,
      "d": 1588.5400781249919,
      "v": 98
    },
    {
      "midi": 71,
      "hit": false,
      "t": 76428.495,
      "d": 699.4040625000052,
      "v": 98
    },
    {
      "midi": 74,
      "hit": false,
      "t": 76428.495,
      "d": 699.4040625000052,
      "v": 98
    },
    {
      "midi": 79,
      "hit": false,
      "t": 76428.495,
      "d": 699.4040625000052,
      "v": 98
    },
    {
      "midi": 71,
      "hit": false,
      "t": 77142.78,
      "d": 1960.5635156250064,
      "v": 98
    },
    {
      "midi": 67,
      "hit": false,
      "t": 77142.78,
      "d": 2116.81335937501,
      "v": 98
    },
    {
      "midi": 74,
      "hit": false,
      "t": 77142.78,
      "d": 2116.81335937501,
      "v": 98
    },
    {
      "midi": 71,
      "hit": false,
      "t": 79103.343515625,
      "d": 156.2498437500035,
      "v": 98
    },
    {
      "midi": 74,
      "hit": false,
      "t": 79285.63500000001,
      "d": 353.4222656250058,
      "v": 98
    },
    {
      "midi": 79,
      "hit": false,
      "t": 79285.63500000001,
      "d": 353.4222656250058,
      "v": 98
    },
    {
      "midi": 83,
      "hit": false,
      "t": 79285.63500000001,
      "d": 699.4040625000052,
      "v": 98
    },
    {
      "midi": 79,
      "hit": false,
      "t": 79639.05726562502,
      "d": 345.9817968749994,
      "v": 98
    },
    {
      "midi": 71,
      "hit": false,
      "t": 79642.77750000001,
      "d": 342.2615625000035,
      "v": 98
    },
    {
      "midi": 74,
      "hit": false,
      "t": 79642.77750000001,
      "d": 342.2615625000035,
      "v": 98
    },
    {
      "midi": 61,
      "hit": false,
      "t": 79999.92000000001,
      "d": 1376.4867187500058,
      "v": 98
    },
    {
      "midi": 64,
      "hit": false,
      "t": 79999.92000000001,
      "d": 1376.4867187500058,
      "v": 98
    },
    {
      "midi": 57,
      "hit": false,
      "t": 79999.92000000001,
      "d": 2287.9441406250116,
      "v": 98
    },
    {
      "midi": 64,
      "hit": false,
      "t": 81424.76976562502,
      "d": 844.4932031250064,
      "v": 98
    },
    {
      "midi": 69,
      "hit": false,
      "t": 81424.76976562502,
      "d": 844.4932031250064,
      "v": 98
    },
    {
      "midi": 61,
      "hit": false,
      "t": 81424.76976562502,
      "d": 874.2550781250029,
      "v": 98
    },
    {
      "midi": 57,
      "hit": false,
      "t": 82317.62601562502,
      "d": 524.553046874993,
      "v": 98
    },
    {
      "midi": 61,
      "hit": false,
      "t": 82317.62601562502,
      "d": 524.553046874993,
      "v": 98
    },
    {
      "midi": 69,
      "hit": false,
      "t": 82860.78023437501,
      "d": 1246.278515625003,
      "v": 98
    },
    {
      "midi": 66,
      "hit": false,
      "t": 82860.78023437501,
      "d": 2793.896015624996,
      "v": 98
    },
    {
      "midi": 62,
      "hit": false,
      "t": 82864.50046875,
      "d": 2790.17578125,
      "v": 98
    },
    {
      "midi": 69,
      "hit": false,
      "t": 84107.05875000001,
      "d": 1543.897265624997,
      "v": 98
    },
    {
      "midi": 74,
      "hit": false,
      "t": 84281.90976562501,
      "d": 1372.7664843749953,
      "v": 98
    },
    {
      "midi": 81,
      "hit": false,
      "t": 84281.90976562501,
      "d": 1372.7664843749953,
      "v": 98
    },
    {
      "midi": 67,
      "hit": false,
      "t": 85721.64046875,
      "d": 2120.533593750006,
      "v": 98
    },
    {
      "midi": 71,
      "hit": false,
      "t": 85721.64046875,
      "d": 2120.533593750006,
      "v": 98
    },
    {
      "midi": 74,
      "hit": false,
      "t": 85721.64046875,
      "d": 2120.533593750006,
      "v": 98
    },
    {
      "midi": 71,
      "hit": false,
      "t": 87857.05500000001,
      "d": 699.4040624999907,
      "v": 98
    },
    {
      "midi": 79,
      "hit": false,
      "t": 87857.05500000001,
      "d": 699.4040624999907,
      "v": 98
    },
    {
      "midi": 74,
      "hit": false,
      "t": 87860.775234375,
      "d": 695.6838281249948,
      "v": 98
    },
    {
      "midi": 71,
      "hit": false,
      "t": 88575.06023437499,
      "d": 1956.843281249996,
      "v": 98
    },
    {
      "midi": 67,
      "hit": false,
      "t": 88575.06023437499,
      "d": 2113.0931249999994,
      "v": 98
    },
    {
      "midi": 74,
      "hit": false,
      "t": 88575.06023437499,
      "d": 2113.0931249999994,
      "v": 98
    },
    {
      "midi": 71,
      "hit": false,
      "t": 90531.90351562499,
      "d": 156.2498437500035,
      "v": 98
    },
    {
      "midi": 83,
      "hit": false,
      "t": 90714.19499999999,
      "d": 680.802890624982,
      "v": 98
    },
    {
      "midi": 74,
      "hit": false,
      "t": 90717.91523437499,
      "d": 349.70203124999534,
      "v": 98
    },
    {
      "midi": 79,
      "hit": false,
      "t": 90717.91523437499,
      "d": 349.70203124999534,
      "v": 98
    },
    {
      "midi": 71,
      "hit": false,
      "t": 91071.33749999998,
      "d": 323.66039062499476,
      "v": 98
    },
    {
      "midi": 74,
      "hit": false,
      "t": 91071.33749999998,
      "d": 323.66039062499476,
      "v": 98
    },
    {
      "midi": 79,
      "hit": false,
      "t": 91071.33749999998,
      "d": 323.66039062499476,
      "v": 98
    },
    {
      "midi": 61,
      "hit": false,
      "t": 91428.47999999998,
      "d": 1376.4867187499913,
      "v": 98
    },
    {
      "midi": 64,
      "hit": false,
      "t": 91432.20023437498,
      "d": 1372.7664843749953,
      "v": 98
    },
    {
      "midi": 57,
      "hit": false,
      "t": 91432.20023437498,
      "d": 2284.2239062499866,
      "v": 98
    },
    {
      "midi": 64,
      "hit": false,
      "t": 92860.77023437497,
      "d": 837.052734375,
      "v": 98
    },
    {
      "midi": 69,
      "hit": false,
      "t": 92860.77023437497,
      "d": 837.052734375,
      "v": 98
    },
    {
      "midi": 61,
      "hit": false,
      "t": 92860.77023437497,
      "d": 866.8146093749965,
      "v": 98
    },
    {
      "midi": 57,
      "hit": false,
      "t": 93749.90624999997,
      "d": 476.1900000000023,
      "v": 98
    },
    {
      "midi": 61,
      "hit": false,
      "t": 93749.90624999997,
      "d": 476.1900000000023,
      "v": 98
    },
    {
      "midi": 69,
      "hit": false,
      "t": 94285.61999999997,
      "d": 1246.278515625003,
      "v": 98
    },
    {
      "midi": 62,
      "hit": false,
      "t": 94285.61999999997,
      "d": 2741.8127343750093,
      "v": 98
    },
    {
      "midi": 66,
      "hit": false,
      "t": 94285.61999999997,
      "d": 2741.8127343750093,
      "v": 98
    },
    {
      "midi": 69,
      "hit": false,
      "t": 95531.89851562497,
      "d": 1491.8139843750105,
      "v": 98
    },
    {
      "midi": 81,
      "hit": false,
      "t": 95714.18999999997,
      "d": 1313.2427343750023,
      "v": 98
    },
    {
      "midi": 74,
      "hit": false,
      "t": 96428.47499999998,
      "d": 598.9577343749988,
      "v": 98
    },
    {
      "midi": 57,
      "hit": false,
      "t": 97150.20046874997,
      "d": 290.1782812500023,
      "v": 98
    },
    {
      "midi": 61,
      "hit": false,
      "t": 97150.20046874997,
      "d": 290.1782812500023,
      "v": 98
    },
    {
      "midi": 64,
      "hit": false,
      "t": 97150.20046874997,
      "d": 290.1782812500023,
      "v": 98
    },
    {
      "midi": 59,
      "hit": false,
      "t": 122875.62117187497,
      "d": 1409.9688281249983,
      "v": 98
    },
    {
      "midi": 67,
      "hit": false,
      "t": 122875.62117187497,
      "d": 1409.9688281249983,
      "v": 98
    },
    {
      "midi": 62,
      "hit": false,
      "t": 122875.62117187497,
      "d": 1588.5400781249919,
      "v": 98
    },
    {
      "midi": 71,
      "hit": false,
      "t": 124999.87499999996,
      "d": 699.4040625000052,
      "v": 98
    },
    {
      "midi": 74,
      "hit": false,
      "t": 124999.87499999996,
      "d": 699.4040625000052,
      "v": 98
    },
    {
      "midi": 79,
      "hit": false,
      "t": 124999.87499999996,
      "d": 699.4040625000052,
      "v": 98
    },
    {
      "midi": 71,
      "hit": false,
      "t": 125714.15999999996,
      "d": 1960.5635156250064,
      "v": 98
    },
    {
      "midi": 67,
      "hit": false,
      "t": 125714.15999999996,
      "d": 2116.81335937501,
      "v": 98
    },
    {
      "midi": 74,
      "hit": false,
      "t": 125714.15999999996,
      "d": 2116.81335937501,
      "v": 98
    },
    {
      "midi": 71,
      "hit": false,
      "t": 127674.72351562497,
      "d": 156.2498437500035,
      "v": 98
    },
    {
      "midi": 74,
      "hit": false,
      "t": 127857.01499999997,
      "d": 353.4222656250058,
      "v": 98
    },
    {
      "midi": 79,
      "hit": false,
      "t": 127857.01499999997,
      "d": 353.4222656250058,
      "v": 98
    },
    {
      "midi": 83,
      "hit": false,
      "t": 127857.01499999997,
      "d": 699.4040625000052,
      "v": 98
    },
    {
      "midi": 79,
      "hit": false,
      "t": 128210.43726562498,
      "d": 345.9817968749994,
      "v": 98
    },
    {
      "midi": 71,
      "hit": false,
      "t": 128214.15749999997,
      "d": 342.2615625000035,
      "v": 98
    },
    {
      "midi": 74,
      "hit": false,
      "t": 128214.15749999997,
      "d": 342.2615625000035,
      "v": 98
    },
    {
      "midi": 61,
      "hit": false,
      "t": 128571.29999999997,
      "d": 1376.4867187500058,
      "v": 98
    },
    {
      "midi": 64,
      "hit": false,
      "t": 128571.29999999997,
      "d": 1376.4867187500058,
      "v": 98
    },
    {
      "midi": 57,
      "hit": false,
      "t": 128571.29999999997,
      "d": 2287.9441406250116,
      "v": 98
    },
    {
      "midi": 64,
      "hit": false,
      "t": 129996.14976562498,
      "d": 844.4932031250064,
      "v": 98
    },
    {
      "midi": 69,
      "hit": false,
      "t": 129996.14976562498,
      "d": 844.4932031250064,
      "v": 98
    },
    {
      "midi": 61,
      "hit": false,
      "t": 129996.14976562498,
      "d": 874.2550781250029,
      "v": 98
    },
    {
      "midi": 57,
      "hit": false,
      "t": 130889.00601562498,
      "d": 524.5530468750076,
      "v": 98
    },
    {
      "midi": 61,
      "hit": false,
      "t": 130889.00601562498,
      "d": 524.5530468750076,
      "v": 98
    },
    {
      "midi": 69,
      "hit": false,
      "t": 131432.16023437498,
      "d": 1246.2785156250175,
      "v": 98
    },
    {
      "midi": 66,
      "hit": false,
      "t": 131432.16023437498,
      "d": 2793.8960156250396,
      "v": 98
    },
    {
      "midi": 62,
      "hit": false,
      "t": 131435.88046875,
      "d": 2790.175781250029,
      "v": 98
    },
    {
      "midi": 69,
      "hit": false,
      "t": 132678.43875,
      "d": 1543.8972656250116,
      "v": 98
    },
    {
      "midi": 74,
      "hit": false,
      "t": 132853.289765625,
      "d": 1372.7664843750244,
      "v": 98
    },
    {
      "midi": 81,
      "hit": false,
      "t": 132853.289765625,
      "d": 1372.7664843750244,
      "v": 98
    },
    {
      "midi": 67,
      "hit": false,
      "t": 134293.02046875004,
      "d": 2120.533593750006,
      "v": 98
    },
    {
      "midi": 71,
      "hit": false,
      "t": 134293.02046875004,
      "d": 2120.533593750006,
      "v": 98
    },
    {
      "midi": 74,
      "hit": false,
      "t": 134293.02046875004,
      "d": 2120.533593750006,
      "v": 98
    },
    {
      "midi": 71,
      "hit": false,
      "t": 136428.43500000006,
      "d": 699.4040625000198,
      "v": 98
    },
    {
      "midi": 79,
      "hit": false,
      "t": 136428.43500000006,
      "d": 699.4040625000198,
      "v": 98
    },
    {
      "midi": 74,
      "hit": false,
      "t": 136432.15523437507,
      "d": 695.6838281250093,
      "v": 98
    },
    {
      "midi": 71,
      "hit": false,
      "t": 137146.44023437507,
      "d": 1956.8432812500105,
      "v": 98
    },
    {
      "midi": 67,
      "hit": false,
      "t": 137146.44023437507,
      "d": 2113.093125000014,
      "v": 98
    },
    {
      "midi": 74,
      "hit": false,
      "t": 137146.44023437507,
      "d": 2113.093125000014,
      "v": 98
    },
    {
      "midi": 71,
      "hit": false,
      "t": 139103.28351562508,
      "d": 156.2498437500035,
      "v": 98
    },
    {
      "midi": 83,
      "hit": false,
      "t": 139285.57500000007,
      "d": 680.8028906250256,
      "v": 98
    },
    {
      "midi": 74,
      "hit": false,
      "t": 139289.29523437508,
      "d": 349.70203124999534,
      "v": 98
    },
    {
      "midi": 79,
      "hit": false,
      "t": 139289.29523437508,
      "d": 349.70203124999534,
      "v": 98
    },
    {
      "midi": 71,
      "hit": false,
      "t": 139642.7175000001,
      "d": 323.6603906250093,
      "v": 98
    },
    {
      "midi": 74,
      "hit": false,
      "t": 139642.7175000001,
      "d": 323.6603906250093,
      "v": 98
    },
    {
      "midi": 79,
      "hit": false,
      "t": 139642.7175000001,
      "d": 323.6603906250093,
      "v": 98
    },
    {
      "midi": 61,
      "hit": false,
      "t": 139999.8600000001,
      "d": 1376.4867187500058,
      "v": 98
    },
    {
      "midi": 64,
      "hit": false,
      "t": 140003.5802343751,
      "d": 1372.7664843749953,
      "v": 98
    },
    {
      "midi": 57,
      "hit": false,
      "t": 140003.5802343751,
      "d": 2284.223906250001,
      "v": 98
    },
    {
      "midi": 64,
      "hit": false,
      "t": 141432.15023437512,
      "d": 837.052734375,
      "v": 98
    },
    {
      "midi": 69,
      "hit": false,
      "t": 141432.15023437512,
      "d": 837.052734375,
      "v": 98
    },
    {
      "midi": 61,
      "hit": false,
      "t": 141432.15023437512,
      "d": 866.8146093749965,
      "v": 98
    },
    {
      "midi": 57,
      "hit": false,
      "t": 142321.28625000012,
      "d": 476.1900000000023,
      "v": 98
    },
    {
      "midi": 61,
      "hit": false,
      "t": 142321.28625000012,
      "d": 476.1900000000023,
      "v": 98
    },
    {
      "midi": 69,
      "hit": false,
      "t": 142857.00000000012,
      "d": 1246.2785156249884,
      "v": 98
    },
    {
      "midi": 62,
      "hit": false,
      "t": 142857.00000000012,
      "d": 2741.81273437498,
      "v": 98
    },
    {
      "midi": 66,
      "hit": false,
      "t": 142857.00000000012,
      "d": 2741.81273437498,
      "v": 98
    },
    {
      "midi": 69,
      "hit": false,
      "t": 144103.2785156251,
      "d": 1491.8139843749814,
      "v": 98
    },
    {
      "midi": 81,
      "hit": false,
      "t": 144285.5700000001,
      "d": 1313.2427343750023,
      "v": 98
    },
    {
      "midi": 74,
      "hit": false,
      "t": 144999.8550000001,
      "d": 598.9577343749988,
      "v": 98
    },
    {
      "midi": 57,
      "hit": false,
      "t": 145721.5804687501,
      "d": 290.1782812500023,
      "v": 98
    },
    {
      "midi": 61,
      "hit": false,
      "t": 145721.5804687501,
      "d": 290.1782812500023,
      "v": 98
    },
    {
      "midi": 64,
      "hit": false,
      "t": 145721.5804687501,
      "d": 290.1782812500023,
      "v": 98
    },
    {
      "midi": 69,
      "hit": false,
      "t": 171424.6797656251,
      "d": 2819.9376562499674,
      "v": 97
    },
    {
      "midi": 57,
      "hit": false,
      "t": 172845.8092968751,
      "d": 1171.8738281249825,
      "v": 97
    },
    {
      "midi": 61,
      "hit": false,
      "t": 173210.3922656251,
      "d": 837.0527343749709,
      "v": 97
    },
    {
      "midi": 64,
      "hit": false,
      "t": 173567.53476562508,
      "d": 654.7612499999814,
      "v": 97
    },
    {
      "midi": 50,
      "hit": false,
      "t": 174222.29601562506,
      "d": 2340.027421875013,
      "v": 97
    },
    {
      "midi": 57,
      "hit": false,
      "t": 174579.43851562508,
      "d": 2038.6884375000081,
      "v": 97
    },
    {
      "midi": 62,
      "hit": false,
      "t": 174917.97984375007,
      "d": 1584.8198437500105,
      "v": 97
    },
    {
      "midi": 66,
      "hit": false,
      "t": 175293.72351562508,
      "d": 372.0234375,
      "v": 97
    },
    {
      "midi": 66,
      "hit": false,
      "t": 175721.5504687501,
      "d": 286.45804687499185,
      "v": 97
    },
    {
      "midi": 66,
      "hit": false,
      "t": 176074.9727343751,
      "d": 286.45804687499185,
      "v": 97
    },
    {
      "midi": 66,
      "hit": false,
      "t": 176432.1152343751,
      "d": 275.2973437499895,
      "v": 97
    },
    {
      "midi": 64,
      "hit": false,
      "t": 176740.89468750008,
      "d": 308.7794531249965,
      "v": 97
    },
    {
      "midi": 67,
      "hit": false,
      "t": 177098.03718750007,
      "d": 364.58296875000815,
      "v": 97
    },
    {
      "midi": 50,
      "hit": false,
      "t": 177098.03718750007,
      "d": 2403.2714062500163,
      "v": 97
    },
    {
      "midi": 66,
      "hit": false,
      "t": 177507.2629687501,
      "d": 513.3923437499907,
      "v": 97
    },
    {
      "midi": 57,
      "hit": false,
      "t": 177812.32218750007,
      "d": 1729.9089843750116,
      "v": 97
    },
    {
      "midi": 62,
      "hit": false,
      "t": 178184.34562500007,
      "d": 1357.8855468750116,
      "v": 97
    },
    {
      "midi": 57,
      "hit": false,
      "t": 179977.4985937501,
      "d": 2741.8127343750093,
      "v": 97
    },
    {
      "midi": 78,
      "hit": false,
      "t": 179981.2188281251,
      "d": 2831.098359374999,
      "v": 106
    },
    {
      "midi": 74,
      "hit": false,
      "t": 179981.2188281251,
      "d": 2838.5388281249907,
      "v": 105
    },
    {
      "midi": 50,
      "hit": false,
      "t": 179984.9390625001,
      "d": 2752.9734374999825,
      "v": 108
    },
    {
      "midi": 69,
      "hit": false,
      "t": 179992.3795312501,
      "d": 2860.8602343749953,
      "v": 104
    },
    {
      "midi": 81,
      "hit": false,
      "t": 179996.0997656251,
      "d": 2812.4971874999756,
      "v": 103
    }
  ]
}