{
  "jsonPath": "Unknown/Unknown/Kelly_ Sean/shes-an-exception.json",
  "path": "Unknown\\Unknown\\Kelly_ Sean\\Shes An Exception.mid",
  "name": "Shes An Exception",
  "difficulty": "Advanced",
  "bpm": 132.00158401900822,
  "notes": [
    {
      "midi": 43,
      "hit": false,
      "t": 191990,
      "d": 2275,
      "v": 48
    },
    {
      "midi": 81,
      "hit": false,
      "t": 191996.25,
      "d": 306.25,
      "v": 82
    },
    {
      "midi": 86,
      "hit": false,
      "t": 192000,
      "d": 1783.75,
      "v": 82
    },
    {
      "midi": 83,
      "hit": false,
      "t": 192283.75,
      "d": 1510,
      "v": 56
    },
    {
      "midi": 43,
      "hit": false,
      "t": 194381.25,
      "d": 2400,
      "v": 48
    },
    {
      "midi": 81,
      "hit": false,
      "t": 194387.5,
      "d": 312.5,
      "v": 91
    },
    {
      "midi": 86,
      "hit": false,
      "t": 194390,
      "d": 1225,
      "v": 78
    },
    {
      "midi": 83,
      "hit": false,
      "t": 194687.5,
      "d": 946.25,
      "v": 60
    },
    {
      "midi": 81,
      "hit": false,
      "t": 196193.75,
      "d": 350,
      "v": 76
    },
    {
      "midi": 74,
      "hit": false,
      "t": 196196.25,
      "d": 541.25,
      "v": 44
    },
    {
      "midi": 79,
      "hit": false,
      "t": 196483.75,
      "d": 243.75,
      "v": 52
    },
    {
      "midi": 79,
      "hit": false,
      "t": 196790,
      "d": 1293.75,
      "v": 82
    },
    {
      "midi": 48,
      "hit": false,
      "t": 196793.75,
      "d": 4712.5,
      "v": 48
    },
    {
      "midi": 74,
      "hit": false,
      "t": 196796.25,
      "d": 275,
      "v": 64
    },
    {
      "midi": 76,
      "hit": false,
      "t": 197077.5,
      "d": 1031.25,
      "v": 56
    },
    {
      "midi": 74,
      "hit": false,
      "t": 199196.25,
      "d": 281.25,
      "v": 73
    },
    {
      "midi": 79,
      "hit": false,
      "t": 199196.25,
      "d": 825,
      "v": 82
    },
    {
      "midi": 76,
      "hit": false,
      "t": 199493.75,
      "d": 506.25,
      "v": 56
    },
    {
      "midi": 74,
      "hit": false,
      "t": 200090,
      "d": 360,
      "v": 74
    },
    {
      "midi": 79,
      "hit": false,
      "t": 200090,
      "d": 597.5,
      "v": 56
    },
    {
      "midi": 72,
      "hit": false,
      "t": 200693.75,
      "d": 312.5,
      "v": 73
    },
    {
      "midi": 71,
      "hit": false,
      "t": 200996.25,
      "d": 293.75,
      "v": 64
    },
    {
      "midi": 69,
      "hit": false,
      "t": 201283.75,
      "d": 2112.5,
      "v": 64
    },
    {
      "midi": 76,
      "hit": false,
      "t": 201581.25,
      "d": 1862.5,
      "v": 53
    },
    {
      "midi": 45,
      "hit": false,
      "t": 201593.75,
      "d": 4593.75,
      "v": 48
    },
    {
      "midi": 50,
      "hit": false,
      "t": 206393.75,
      "d": 4593.75,
      "v": 48
    },
    {
      "midi": 43,
      "hit": false,
      "t": 211193.75,
      "d": 2281.25,
      "v": 48
    },
    {
      "midi": 67,
      "hit": false,
      "t": 211196.25,
      "d": 1985,
      "v": 73
    },
    {
      "midi": 74,
      "hit": false,
      "t": 211196.25,
      "d": 2035,
      "v": 60
    },
    {
      "midi": 69,
      "hit": false,
      "t": 211206.25,
      "d": 156.25,
      "v": 91
    },
    {
      "midi": 71,
      "hit": false,
      "t": 211308.75,
      "d": 1906.25,
      "v": 60
    },
    {
      "midi": 43,
      "hit": false,
      "t": 213593.75,
      "d": 2281.25,
      "v": 48
    },
    {
      "midi": 69,
      "hit": false,
      "t": 213596.25,
      "d": 1678.75,
      "v": 73
    },
    {
      "midi": 71,
      "hit": false,
      "t": 213596.25,
      "d": 1678.75,
      "v": 64
    },
    {
      "midi": 74,
      "hit": false,
      "t": 213596.25,
      "d": 1706.25,
      "v": 64
    },
    {
      "midi": 66,
      "hit": false,
      "t": 213596.25,
      "d": 1712.5,
      "v": 60
    },
    {
      "midi": 69,
      "hit": false,
      "t": 215396.25,
      "d": 291.25,
      "v": 73
    },
    {
      "midi": 67,
      "hit": false,
      "t": 215683.75,
      "d": 278.75,
      "v": 64
    },
    {
      "midi": 62,
      "hit": false,
      "t": 215996.25,
      "d": 206.25,
      "v": 91
    },
    {
      "midi": 60,
      "hit": false,
      "t": 215996.25,
      "d": 2000,
      "v": 64
    },
    {
      "midi": 67,
      "hit": false,
      "t": 215996.25,
      "d": 2012.5,
      "v": 73
    },
    {
      "midi": 48,
      "hit": false,
      "t": 215996.25,
      "d": 2281.25,
      "v": 48
    },
    {
      "midi": 64,
      "hit": false,
      "t": 216190,
      "d": 1791.25,
      "v": 40
    },
    {
      "midi": 67,
      "hit": false,
      "t": 218387.5,
      "d": 2206.25,
      "v": 73
    },
    {
      "midi": 62,
      "hit": false,
      "t": 218393.75,
      "d": 258.75,
      "v": 100
    },
    {
      "midi": 60,
      "hit": false,
      "t": 218393.75,
      "d": 887.5,
      "v": 64
    },
    {
      "midi": 48,
      "hit": false,
      "t": 218393.75,
      "d": 2281.25,
      "v": 48
    },
    {
      "midi": 64,
      "hit": false,
      "t": 218681.25,
      "d": 1890,
      "v": 56
    },
    {
      "midi": 62,
      "hit": false,
      "t": 219296.25,
      "d": 603.75,
      "v": 73
    },
    {
      "midi": 60,
      "hit": false,
      "t": 219893.75,
      "d": 615,
      "v": 64
    },
    {
      "midi": 59,
      "hit": false,
      "t": 220171.25,
      "d": 328.75,
      "v": 64
    },
    {
      "midi": 57,
      "hit": false,
      "t": 220468.75,
      "d": 302.5,
      "v": 64
    },
    {
      "midi": 62,
      "hit": false,
      "t": 220762.5,
      "d": 346.25,
      "v": 77
    },
    {
      "midi": 69,
      "hit": false,
      "t": 220765,
      "d": 2353.75,
      "v": 64
    },
    {
      "midi": 45,
      "hit": false,
      "t": 220793.75,
      "d": 2281.25,
      "v": 48
    },
    {
      "midi": 64,
      "hit": false,
      "t": 221071.25,
      "d": 1985,
      "v": 64
    },
    {
      "midi": 62,
      "hit": false,
      "t": 223171.25,
      "d": 187.5,
      "v": 64
    },
    {
      "midi": 67,
      "hit": false,
      "t": 223190,
      "d": 2325,
      "v": 56
    },
    {
      "midi": 48,
      "hit": false,
      "t": 223193.75,
      "d": 2281.25,
      "v": 48
    },
    {
      "midi": 60,
      "hit": false,
      "t": 223193.75,
      "d": 2300,
      "v": 52
    },
    {
      "midi": 64,
      "hit": false,
      "t": 223296.25,
      "d": 2181.25,
      "v": 64
    },
    {
      "midi": 43,
      "hit": false,
      "t": 225596.25,
      "d": 2281.25,
      "v": 48
    },
    {
      "midi": 71,
      "hit": false,
      "t": 226196.25,
      "d": 256.25,
      "v": 64
    },
    {
      "midi": 74,
      "hit": false,
      "t": 226206.25,
      "d": 231.25,
      "v": 64
    },
    {
      "midi": 67,
      "hit": false,
      "t": 226206.25,
      "d": 1708.75,
      "v": 56
    },
    {
      "midi": 71,
      "hit": false,
      "t": 226506.25,
      "d": 1446.25,
      "v": 81
    },
    {
      "midi": 74,
      "hit": false,
      "t": 226508.75,
      "d": 585,
      "v": 73
    },
    {
      "midi": 79,
      "hit": false,
      "t": 227093.75,
      "d": 831.25,
      "v": 81
    },
    {
      "midi": 48,
      "hit": false,
      "t": 227993.75,
      "d": 1093.75,
      "v": 48
    },
    {
      "midi": 72,
      "hit": false,
      "t": 228575,
      "d": 531.25,
      "v": 73
    },
    {
      "midi": 67,
      "hit": false,
      "t": 228581.25,
      "d": 475,
      "v": 60
    },
    {
      "midi": 76,
      "hit": false,
      "t": 228581.25,
      "d": 496.25,
      "v": 64
    },
    {
      "midi": 78,
      "hit": false,
      "t": 229193.75,
      "d": 443.75,
      "v": 60
    },
    {
      "midi": 69,
      "hit": false,
      "t": 229193.75,
      "d": 456.25,
      "v": 64
    },
    {
      "midi": 74,
      "hit": false,
      "t": 229196.25,
      "d": 481.25,
      "v": 73
    },
    {
      "midi": 50,
      "hit": false,
      "t": 229196.25,
      "d": 1093.75,
      "v": 48
    },
    {
      "midi": 72,
      "hit": false,
      "t": 229793.75,
      "d": 558.75,
      "v": 73
    },
    {
      "midi": 67,
      "hit": false,
      "t": 229796.25,
      "d": 522.5,
      "v": 73
    },
    {
      "midi": 76,
      "hit": false,
      "t": 229796.25,
      "d": 556.25,
      "v": 73
    },
    {
      "midi": 81,
      "hit": false,
      "t": 230393.75,
      "d": 281.25,
      "v": 82
    },
    {
      "midi": 43,
      "hit": false,
      "t": 230393.75,
      "d": 2250,
      "v": 48
    },
    {
      "midi": 86,
      "hit": false,
      "t": 230396.25,
      "d": 1878.75,
      "v": 73
    },
    {
      "midi": 83,
      "hit": false,
      "t": 230656.25,
      "d": 1627.5,
      "v": 60
    },
    {
      "midi": 43,
      "hit": false,
      "t": 232793.75,
      "d": 2250,
      "v": 48
    },
    {
      "midi": 81,
      "hit": false,
      "t": 232812.5,
      "d": 312.5,
      "v": 91
    },
    {
      "midi": 86,
      "hit": false,
      "t": 232818.75,
      "d": 1350,
      "v": 73
    },
    {
      "midi": 83,
      "hit": false,
      "t": 233102.5,
      "d": 1041.25,
      "v": 56
    },
    {
      "midi": 81,
      "hit": false,
      "t": 234596.25,
      "d": 262.5,
      "v": 73
    },
    {
      "midi": 86,
      "hit": false,
      "t": 234596.25,
      "d": 541.25,
      "v": 64
    },
    {
      "midi": 79,
      "hit": false,
      "t": 234877.5,
      "d": 275,
      "v": 52
    },
    {
      "midi": 74,
      "hit": false,
      "t": 235187.5,
      "d": 358.75,
      "v": 69
    },
    {
      "midi": 79,
      "hit": false,
      "t": 235187.5,
      "d": 1952.5,
      "v": 65
    },
    {
      "midi": 48,
      "hit": false,
      "t": 235193.75,
      "d": 2250,
      "v": 48
    },
    {
      "midi": 76,
      "hit": false,
      "t": 235490,
      "d": 1618.75,
      "v": 48
    },
    {
      "midi": 48,
      "hit": false,
      "t": 237596.25,
      "d": 2250,
      "v": 48
    },
    {
      "midi": 83,
      "hit": false,
      "t": 237600,
      "d": 915,
      "v": 82
    },
    {
      "midi": 79,
      "hit": false,
      "t": 237893.75,
      "d": 696.25,
      "v": 64
    },
    {
      "midi": 76,
      "hit": false,
      "t": 238200,
      "d": 531.25,
      "v": 48
    },
    {
      "midi": 74,
      "hit": false,
      "t": 238500,
      "d": 302.5,
      "v": 52
    },
    {
      "midi": 81,
      "hit": false,
      "t": 238793.75,
      "d": 1037.5,
      "v": 82
    },
    {
      "midi": 78,
      "hit": false,
      "t": 239083.75,
      "d": 693.75,
      "v": 68
    },
    {
      "midi": 74,
      "hit": false,
      "t": 239393.75,
      "d": 415,
      "v": 51
    },
    {
      "midi": 71,
      "hit": false,
      "t": 239693.75,
      "d": 358.75,
      "v": 60
    },
    {
      "midi": 72,
      "hit": false,
      "t": 239981.25,
      "d": 2418.75,
      "v": 64
    },
    {
      "midi": 76,
      "hit": false,
      "t": 239983.75,
      "d": 2412.5,
      "v": 64
    },
    {
      "midi": 67,
      "hit": false,
      "t": 239990,
      "d": 2400,
      "v": 56
    },
    {
      "midi": 45,
      "hit": false,
      "t": 239993.75,
      "d": 2250,
      "v": 48
    },
    {
      "midi": 45,
      "hit": false,
      "t": 242393.75,
      "d": 2250,
      "v": 48
    },
    {
      "midi": 76,
      "hit": false,
      "t": 242965,
      "d": 1828.75,
      "v": 56
    },
    {
      "midi": 67,
      "hit": false,
      "t": 242968.75,
      "d": 1775,
      "v": 56
    },
    {
      "midi": 72,
      "hit": false,
      "t": 242968.75,
      "d": 1796.25,
      "v": 64
    },
    {
      "midi": 62,
      "hit": false,
      "t": 244771.25,
      "d": 366.25,
      "v": 30
    },
    {
      "midi": 50,
      "hit": false,
      "t": 244793.75,
      "d": 2250,
      "v": 48
    },
    {
      "midi": 74,
      "hit": false,
      "t": 245100,
      "d": 606.25,
      "v": 73
    },
    {
      "midi": 62,
      "hit": false,
      "t": 245696.25,
      "d": 303.75,
      "v": 48
    },
    {
      "midi": 76,
      "hit": false,
      "t": 245993.75,
      "d": 683.75,
      "v": 83
    },
    {
      "midi": 64,
      "hit": false,
      "t": 246596.25,
      "d": 303.75,
      "v": 31
    },
    {
      "midi": 78,
      "hit": false,
      "t": 246900,
      "d": 700,
      "v": 77
    },
    {
      "midi": 50,
      "hit": false,
      "t": 247193.75,
      "d": 1125,
      "v": 48
    },
    {
      "midi": 69,
      "hit": false,
      "t": 247506.25,
      "d": 687.5,
      "v": 48
    },
    {
      "midi": 79,
      "hit": false,
      "t": 247796.25,
      "d": 606.25,
      "v": 81
    },
    {
      "midi": 40,
      "hit": false,
      "t": 248393.75,
      "d": 500,
      "v": 48
    },
    {
      "midi": 72,
      "hit": false,
      "t": 248408.75,
      "d": 1181.25,
      "v": 52
    },
    {
      "midi": 81,
      "hit": false,
      "t": 248981.25,
      "d": 568.75,
      "v": 91
    },
    {
      "midi": 42,
      "hit": false,
      "t": 248993.75,
      "d": 500,
      "v": 48
    },
    {
      "midi": 81,
      "hit": false,
      "t": 249577.5,
      "d": 318.75,
      "v": 82
    },
    {
      "midi": 86,
      "hit": false,
      "t": 249583.75,
      "d": 1835,
      "v": 73
    },
    {
      "midi": 43,
      "hit": false,
      "t": 249593.75,
      "d": 2250,
      "v": 48
    },
    {
      "midi": 83,
      "hit": false,
      "t": 249877.5,
      "d": 1535,
      "v": 56
    },
    {
      "midi": 43,
      "hit": false,
      "t": 251993.75,
      "d": 2250,
      "v": 48
    },
    {
      "midi": 81,
      "hit": false,
      "t": 252002.5,
      "d": 331.25,
      "v": 73
    },
    {
      "midi": 86,
      "hit": false,
      "t": 252008.75,
      "d": 1766.25,
      "v": 64
    },
    {
      "midi": 83,
      "hit": false,
      "t": 252306.25,
      "d": 1450,
      "v": 58
    },
    {
      "midi": 81,
      "hit": false,
      "t": 253796.25,
      "d": 310,
      "v": 64
    },
    {
      "midi": 86,
      "hit": false,
      "t": 253802.5,
      "d": 597.5,
      "v": 64
    },
    {
      "midi": 79,
      "hit": false,
      "t": 254096.25,
      "d": 291.25,
      "v": 48
    },
    {
      "midi": 74,
      "hit": false,
      "t": 254393.75,
      "d": 327.5,
      "v": 73
    },
    {
      "midi": 48,
      "hit": false,
      "t": 254393.75,
      "d": 2250,
      "v": 48
    },
    {
      "midi": 79,
      "hit": false,
      "t": 254393.75,
      "d": 2302.5,
      "v": 60
    },
    {
      "midi": 76,
      "hit": false,
      "t": 254687.5,
      "d": 2006.25,
      "v": 56
    },
    {
      "midi": 74,
      "hit": false,
      "t": 256790,
      "d": 953.75,
      "v": 81
    },
    {
      "midi": 48,
      "hit": false,
      "t": 256793.75,
      "d": 2250,
      "v": 48
    },
    {
      "midi": 71,
      "hit": false,
      "t": 257093.75,
      "d": 727.5,
      "v": 60
    },
    {
      "midi": 79,
      "hit": false,
      "t": 257396.25,
      "d": 600,
      "v": 48
    },
    {
      "midi": 76,
      "hit": false,
      "t": 257712.5,
      "d": 262.5,
      "v": 52
    },
    {
      "midi": 76,
      "hit": false,
      "t": 257996.25,
      "d": 1118.75,
      "v": 82
    },
    {
      "midi": 74,
      "hit": false,
      "t": 258293.75,
      "d": 868.75,
      "v": 56
    },
    {
      "midi": 72,
      "hit": false,
      "t": 258596.25,
      "d": 550,
      "v": 49
    },
    {
      "midi": 69,
      "hit": false,
      "t": 258893.75,
      "d": 356.25,
      "v": 56
    },
    {
      "midi": 67,
      "hit": false,
      "t": 259187.5,
      "d": 1902.5,
      "v": 56
    },
    {
      "midi": 76,
      "hit": false,
      "t": 259187.5,
      "d": 1933.75,
      "v": 60
    },
    {
      "midi": 45,
      "hit": false,
      "t": 259193.75,
      "d": 2250,
      "v": 48
    },
    {
      "midi": 72,
      "hit": false,
      "t": 259200,
      "d": 1943.75,
      "v": 60
    },
    {
      "midi": 48,
      "hit": false,
      "t": 261593.75,
      "d": 2250,
      "v": 48
    },
    {
      "midi": 74,
      "hit": false,
      "t": 261596.25,
      "d": 378.75,
      "v": 73
    },
    {
      "midi": 67,
      "hit": false,
      "t": 261602.5,
      "d": 1631.25,
      "v": 60
    },
    {
      "midi": 76,
      "hit": false,
      "t": 261908.75,
      "d": 1393.75,
      "v": 64
    },
    {
      "midi": 74,
      "hit": false,
      "t": 262493.75,
      "d": 556.25,
      "v": 73
    },
    {
      "midi": 72,
      "hit": false,
      "t": 263102.5,
      "d": 893.75,
      "v": 73
    },
    {
      "midi": 71,
      "hit": false,
      "t": 263700,
      "d": 277.5,
      "v": 44
    },
    {
      "midi": 67,
      "hit": false,
      "t": 263983.75,
      "d": 278.75,
      "v": 56
    },
    {
      "midi": 74,
      "hit": false,
      "t": 263983.75,
      "d": 278.75,
      "v": 73
    },
    {
      "midi": 43,
      "hit": false,
      "t": 263993.75,
      "d": 2250,
      "v": 48
    },
    {
      "midi": 71,
      "hit": false,
      "t": 264296.25,
      "d": 260,
      "v": 64
    },
    {
      "midi": 67,
      "hit": false,
      "t": 264593.75,
      "d": 502.5,
      "v": 60
    },
    {
      "midi": 71,
      "hit": false,
      "t": 264596.25,
      "d": 275,
      "v": 82
    },
    {
      "midi": 62,
      "hit": false,
      "t": 264600,
      "d": 290,
      "v": 82
    },
    {
      "midi": 72,
      "hit": false,
      "t": 264875,
      "d": 268.75,
      "v": 64
    },
    {
      "midi": 64,
      "hit": false,
      "t": 264877.5,
      "d": 362.5,
      "v": 48
    },
    {
      "midi": 71,
      "hit": false,
      "t": 265187.5,
      "d": 256.25,
      "v": 73
    },
    {
      "midi": 62,
      "hit": false,
      "t": 265196.25,
      "d": 353.75,
      "v": 73
    },
    {
      "midi": 67,
      "hit": false,
      "t": 265487.5,
      "d": 262.5,
      "v": 64
    },
    {
      "midi": 62,
      "hit": false,
      "t": 265783.75,
      "d": 103.75,
      "v": 52
    },
    {
      "midi": 69,
      "hit": false,
      "t": 265793.75,
      "d": 581.25,
      "v": 82
    },
    {
      "midi": 67,
      "hit": false,
      "t": 265975,
      "d": 531.25,
      "v": 73
    },
    {
      "midi": 62,
      "hit": false,
      "t": 266096.25,
      "d": 281.25,
      "v": 64
    },
    {
      "midi": 43,
      "hit": false,
      "t": 266393.75,
      "d": 2250,
      "v": 48
    },
    {
      "midi": 62,
      "hit": false,
      "t": 266408.75,
      "d": 2316.25,
      "v": 73
    },
    {
      "midi": 66,
      "hit": false,
      "t": 266421.25,
      "d": 291.25,
      "v": 82
    },
    {
      "midi": 69,
      "hit": false,
      "t": 266421.25,
      "d": 391.25,
      "v": 91
    },
    {
      "midi": 74,
      "hit": false,
      "t": 266421.25,
      "d": 2318.75,
      "v": 60
    },
    {
      "midi": 67,
      "hit": false,
      "t": 266693.75,
      "d": 2058.75,
      "v": 64
    },
    {
      "midi": 71,
      "hit": false,
      "t": 266718.75,
      "d": 2031.25,
      "v": 56
    },
    {
      "midi": 43,
      "hit": false,
      "t": 268790,
      "d": 578.75,
      "v": 48
    },
    {
      "midi": 67,
      "hit": false,
      "t": 268793.75,
      "d": 802.5,
      "v": 73
    },
    {
      "midi": 71,
      "hit": false,
      "t": 268796.25,
      "d": 803.75,
      "v": 73
    },
    {
      "midi": 62,
      "hit": false,
      "t": 268796.25,
      "d": 810,
      "v": 64
    },
    {
      "midi": 55,
      "hit": false,
      "t": 269393.75,
      "d": 293.75,
      "v": 45
    },
    {
      "midi": 43,
      "hit": false,
      "t": 269696.25,
      "d": 197.5,
      "v": 44
    },
    {
      "midi": 67,
      "hit": false,
      "t": 269706.25,
      "d": 243.75,
      "v": 56
    },
    {
      "midi": 71,
      "hit": false,
      "t": 269715,
      "d": 225,
      "v": 56
    },
    {
      "midi": 62,
      "hit": false,
      "t": 269718.75,
      "d": 231.25,
      "v": 60
    },
    {
      "midi": 43,
      "hit": false,
      "t": 269993.75,
      "d": 1125,
      "v": 48
    },
    {
      "midi": 62,
      "hit": false,
      "t": 269996.25,
      "d": 997.5,
      "v": 56
    },
    {
      "midi": 67,
      "hit": false,
      "t": 269996.25,
      "d": 1053.75,
      "v": 82
    },
    {
      "midi": 71,
      "hit": false,
      "t": 269996.25,
      "d": 1075,
      "v": 64
    },
    {
      "midi": 67,
      "hit": false,
      "t": 271175,
      "d": 875,
      "v": 82
    },
    {
      "midi": 72,
      "hit": false,
      "t": 271183.75,
      "d": 860,
      "v": 64
    },
    {
      "midi": 64,
      "hit": false,
      "t": 271187.5,
      "d": 846.25,
      "v": 64
    },
    {
      "midi": 43,
      "hit": false,
      "t": 271190,
      "d": 578.75,
      "v": 48
    },
    {
      "midi": 55,
      "hit": false,
      "t": 271793.75,
      "d": 293.75,
      "v": 45
    },
    {
      "midi": 72,
      "hit": false,
      "t": 272087.5,
      "d": 221.25,
      "v": 60
    },
    {
      "midi": 67,
      "hit": false,
      "t": 272090,
      "d": 241.25,
      "v": 52
    },
    {
      "midi": 43,
      "hit": false,
      "t": 272096.25,
      "d": 197.5,
      "v": 44
    },
    {
      "midi": 64,
      "hit": false,
      "t": 272096.25,
      "d": 237.5,
      "v": 48
    },
    {
      "midi": 67,
      "hit": false,
      "t": 272381.25,
      "d": 1121.25,
      "v": 82
    },
    {
      "midi": 72,
      "hit": false,
      "t": 272381.25,
      "d": 1125,
      "v": 64
    },
    {
      "midi": 64,
      "hit": false,
      "t": 272383.75,
      "d": 1106.25,
      "v": 60
    },
    {
      "midi": 43,
      "hit": false,
      "t": 272393.75,
      "d": 1125,
      "v": 48
    },
    {
      "midi": 62,
      "hit": false,
      "t": 273587.5,
      "d": 837.5,
      "v": 65
    },
    {
      "midi": 71,
      "hit": false,
      "t": 273587.5,
      "d": 840,
      "v": 73
    },
    {
      "midi": 67,
      "hit": false,
      "t": 273587.5,
      "d": 852.5,
      "v": 70
    },
    {
      "midi": 43,
      "hit": false,
      "t": 273590,
      "d": 578.75,
      "v": 48
    },
    {
      "midi": 55,
      "hit": false,
      "t": 274193.75,
      "d": 293.75,
      "v": 45
    },
    {
      "midi": 43,
      "hit": false,
      "t": 274496.25,
      "d": 197.5,
      "v": 44
    },
    {
      "midi": 74,
      "hit": false,
      "t": 274496.25,
      "d": 231.25,
      "v": 61
    },
    {
      "midi": 62,
      "hit": false,
      "t": 274496.25,
      "d": 237.5,
      "v": 56
    },
    {
      "midi": 69,
      "hit": false,
      "t": 274496.25,
      "d": 247.5,
      "v": 63
    },
    {
      "midi": 43,
      "hit": false,
      "t": 274793.75,
      "d": 1125,
      "v": 48
    },
    {
      "midi": 62,
      "hit": false,
      "t": 274796.25,
      "d": 462.5,
      "v": 64
    },
    {
      "midi": 71,
      "hit": false,
      "t": 274796.25,
      "d": 468.75,
      "v": 64
    },
    {
      "midi": 67,
      "hit": false,
      "t": 274796.25,
      "d": 478.75,
      "v": 73
    },
    {
      "midi": 64,
      "hit": false,
      "t": 275396.25,
      "d": 443.75,
      "v": 60
    },
    {
      "midi": 72,
      "hit": false,
      "t": 275396.25,
      "d": 462.5,
      "v": 73
    },
    {
      "midi": 67,
      "hit": false,
      "t": 275396.25,
      "d": 466.25,
      "v": 73
    },
    {
      "midi": 43,
      "hit": false,
      "t": 275990,
      "d": 578.75,
      "v": 48
    },
    {
      "midi": 69,
      "hit": false,
      "t": 275996.25,
      "d": 256.25,
      "v": 73
    },
    {
      "midi": 62,
      "hit": false,
      "t": 275996.25,
      "d": 862.5,
      "v": 73
    },
    {
      "midi": 67,
      "hit": false,
      "t": 275996.25,
      "d": 878.75,
      "v": 73
    },
    {
      "midi": 71,
      "hit": false,
      "t": 276302.5,
      "d": 553.75,
      "v": 56
    },
    {
      "midi": 55,
      "hit": false,
      "t": 276593.75,
      "d": 293.75,
      "v": 45
    },
    {
      "midi": 74,
      "hit": false,
      "t": 276887.5,
      "d": 865,
      "v": 73
    },
    {
      "midi": 69,
      "hit": false,
      "t": 276890,
      "d": 256.25,
      "v": 73
    },
    {
      "midi": 50,
      "hit": false,
      "t": 276896.25,
      "d": 197.5,
      "v": 44
    },
    {
      "midi": 71,
      "hit": false,
      "t": 277183.75,
      "d": 572.5,
      "v": 64
    },
    {
      "midi": 67,
      "hit": false,
      "t": 277187.5,
      "d": 571.25,
      "v": 73
    },
    {
      "midi": 43,
      "hit": false,
      "t": 277193.75,
      "d": 531.25,
      "v": 48
    },
    {
      "midi": 42,
      "hit": false,
      "t": 277796.25,
      "d": 531.25,
      "v": 48
    },
    {
      "midi": 74,
      "hit": false,
      "t": 277796.25,
      "d": 562.5,
      "v": 67
    },
    {
      "midi": 66,
      "hit": false,
      "t": 277796.25,
      "d": 566.25,
      "v": 64
    },
    {
      "midi": 71,
      "hit": false,
      "t": 277796.25,
      "d": 578.75,
      "v": 64
    },
    {
      "midi": 69,
      "hit": false,
      "t": 277796.25,
      "d": 591.25,
      "v": 73
    },
    {
      "midi": 71,
      "hit": false,
      "t": 278387.5,
      "d": 868.75,
      "v": 82
    },
    {
      "midi": 40,
      "hit": false,
      "t": 278390,
      "d": 578.75,
      "v": 48
    },
    {
      "midi": 76,
      "hit": false,
      "t": 278393.75,
      "d": 893.75,
      "v": 82
    },
    {
      "midi": 67,
      "hit": false,
      "t": 278396.25,
      "d": 843.75,
      "v": 64
    },
    {
      "midi": 52,
      "hit": false,
      "t": 278993.75,
      "d": 293.75,
      "v": 45
    },
    {
      "midi": 40,
      "hit": false,
      "t": 279296.25,
      "d": 197.5,
      "v": 44
    },
    {
      "midi": 66,
      "hit": false,
      "t": 279296.25,
      "d": 278.75,
      "v": 73
    },
    {
      "midi": 67,
      "hit": false,
      "t": 279568.75,
      "d": 533.75,
      "v": 64
    },
    {
      "midi": 40,
      "hit": false,
      "t": 279593.75,
      "d": 1125,
      "v": 48
    },
    {
      "midi": 67,
      "hit": false,
      "t": 280200,
      "d": 496.25,
      "v": 60
    },
    {
      "midi": 74,
      "hit": false,
      "t": 280200,
      "d": 500,
      "v": 64
    },
    {
      "midi": 64,
      "hit": false,
      "t": 280208.75,
      "d": 481.25,
      "v": 64
    },
    {
      "midi": 71,
      "hit": false,
      "t": 280215,
      "d": 491.25,
      "v": 64
    },
    {
      "midi": 47,
      "hit": false,
      "t": 280790,
      "d": 578.75,
      "v": 48
    },
    {
      "midi": 74,
      "hit": false,
      "t": 280796.25,
      "d": 537.5,
      "v": 70
    },
    {
      "midi": 69,
      "hit": false,
      "t": 280796.25,
      "d": 543.75,
      "v": 64
    },
    {
      "midi": 66,
      "hit": false,
      "t": 280796.25,
      "d": 556.25,
      "v": 64
    },
    {
      "midi": 71,
      "hit": false,
      "t": 280796.25,
      "d": 581.25,
      "v": 82
    },
    {
      "midi": 59,
      "hit": false,
      "t": 281393.75,
      "d": 293.75,
      "v": 45
    },
    {
      "midi": 74,
      "hit": false,
      "t": 281400,
      "d": 290,
      "v": 82
    },
    {
      "midi": 69,
      "hit": false,
      "t": 281406.25,
      "d": 1150,
      "v": 60
    },
    {
      "midi": 76,
      "hit": false,
      "t": 281690,
      "d": 341.25,
      "v": 68
    },
    {
      "midi": 47,
      "hit": false,
      "t": 281696.25,
      "d": 197.5,
      "v": 44
    },
    {
      "midi": 78,
      "hit": false,
      "t": 281993.75,
      "d": 677.5,
      "v": 59
    },
    {
      "midi": 47,
      "hit": false,
      "t": 281993.75,
      "d": 1125,
      "v": 48
    },
    {
      "midi": 76,
      "hit": false,
      "t": 282290,
      "d": 337.5,
      "v": 70
    },
    {
      "midi": 74,
      "hit": false,
      "t": 282581.25,
      "d": 537.5,
      "v": 64
    },
    {
      "midi": 69,
      "hit": false,
      "t": 282587.5,
      "d": 515,
      "v": 60
    },
    {
      "midi": 45,
      "hit": false,
      "t": 283190,
      "d": 578.75,
      "v": 48
    },
    {
      "midi": 72,
      "hit": false,
      "t": 283190,
      "d": 1693.75,
      "v": 82
    },
    {
      "midi": 76,
      "hit": false,
      "t": 283196.25,
      "d": 1687.5,
      "v": 73
    },
    {
      "midi": 69,
      "hit": false,
      "t": 283200,
      "d": 1687.5,
      "v": 64
    },
    {
      "midi": 57,
      "hit": false,
      "t": 283793.75,
      "d": 293.75,
      "v": 45
    },
    {
      "midi": 45,
      "hit": false,
      "t": 284096.25,
      "d": 197.5,
      "v": 44
    },
    {
      "midi": 45,
      "hit": false,
      "t": 284393.75,
      "d": 1125,
      "v": 48
    },
    {
      "midi": 72,
      "hit": false,
      "t": 284996.25,
      "d": 385,
      "v": 82
    },
    {
      "midi": 69,
      "hit": false,
      "t": 284996.25,
      "d": 403.75,
      "v": 64
    },
    {
      "midi": 76,
      "hit": false,
      "t": 284996.25,
      "d": 431.25,
      "v": 64
    },
    {
      "midi": 38,
      "hit": false,
      "t": 285590,
      "d": 578.75,
      "v": 48
    },
    {
      "midi": 74,
      "hit": false,
      "t": 285593.75,
      "d": 252.5,
      "v": 73
    },
    {
      "midi": 69,
      "hit": false,
      "t": 285596.25,
      "d": 247.5,
      "v": 73
    },
    {
      "midi": 66,
      "hit": false,
      "t": 285596.25,
      "d": 322.5,
      "v": 64
    },
    {
      "midi": 74,
      "hit": false,
      "t": 285877.5,
      "d": 241.25,
      "v": 52
    },
    {
      "midi": 69,
      "hit": false,
      "t": 285893.75,
      "d": 218.75,
      "v": 48
    },
    {
      "midi": 69,
      "hit": false,
      "t": 286175,
      "d": 281.25,
      "v": 64
    },
    {
      "midi": 74,
      "hit": false,
      "t": 286181.25,
      "d": 315,
      "v": 82
    },
    {
      "midi": 50,
      "hit": false,
      "t": 286193.75,
      "d": 293.75,
      "v": 45
    },
    {
      "midi": 78,
      "hit": false,
      "t": 286493.75,
      "d": 712.5,
      "v": 64
    },
    {
      "midi": 38,
      "hit": false,
      "t": 286496.25,
      "d": 197.5,
      "v": 44
    },
    {
      "midi": 76,
      "hit": false,
      "t": 286496.25,
      "d": 737.5,
      "v": 82
    },
    {
      "midi": 69,
      "hit": false,
      "t": 286496.25,
      "d": 743.75,
      "v": 60
    },
    {
      "midi": 38,
      "hit": false,
      "t": 286793.75,
      "d": 1125,
      "v": 48
    },
    {
      "midi": 74,
      "hit": false,
      "t": 287375,
      "d": 571.25,
      "v": 82
    },
    {
      "midi": 69,
      "hit": false,
      "t": 287377.5,
      "d": 575,
      "v": 64
    },
    {
      "midi": 43,
      "hit": false,
      "t": 287990,
      "d": 578.75,
      "v": 48
    },
    {
      "midi": 67,
      "hit": false,
      "t": 287990,
      "d": 816.25,
      "v": 60
    },
    {
      "midi": 79,
      "hit": false,
      "t": 287990,
      "d": 847.5,
      "v": 64
    },
    {
      "midi": 74,
      "hit": false,
      "t": 287990,
      "d": 868.75,
      "v": 73
    },
    {
      "midi": 55,
      "hit": false,
      "t": 288593.75,
      "d": 293.75,
      "v": 45
    },
    {
      "midi": 43,
      "hit": false,
      "t": 288896.25,
      "d": 197.5,
      "v": 44
    },
    {
      "midi": 79,
      "hit": false,
      "t": 288896.25,
      "d": 206.25,
      "v": 56
    },
    {
      "midi": 74,
      "hit": false,
      "t": 288896.25,
      "d": 253.75,
      "v": 56
    },
    {
      "midi": 67,
      "hit": false,
      "t": 288900,
      "d": 215,
      "v": 48
    },
    {
      "midi": 43,
      "hit": false,
      "t": 289193.75,
      "d": 1125,
      "v": 48
    },
    {
      "midi": 67,
      "hit": false,
      "t": 289196.25,
      "d": 1131.25,
      "v": 60
    },
    {
      "midi": 74,
      "hit": false,
      "t": 289196.25,
      "d": 1141.25,
      "v": 73
    },
    {
      "midi": 79,
      "hit": false,
      "t": 289196.25,
      "d": 1162.5,
      "v": 73
    },
    {
      "midi": 64,
      "hit": false,
      "t": 289787.5,
      "d": 590,
      "v": 71
    },
    {
      "midi": 59,
      "hit": false,
      "t": 289796.25,
      "d": 597.5,
      "v": 60
    },
    {
      "midi": 67,
      "hit": false,
      "t": 290383.75,
      "d": 556.25,
      "v": 64
    },
    {
      "midi": 60,
      "hit": false,
      "t": 290387.5,
      "d": 943.75,
      "v": 73
    },
    {
      "midi": 43,
      "hit": false,
      "t": 290390,
      "d": 578.75,
      "v": 48
    },
    {
      "midi": 65,
      "hit": false,
      "t": 290390,
      "d": 947.5,
      "v": 73
    },
    {
      "midi": 57,
      "hit": false,
      "t": 290393.75,
      "d": 931.25,
      "v": 60
    },
    {
      "midi": 77,
      "hit": false,
      "t": 290968.75,
      "d": 1208.75,
      "v": 64
    },
    {
      "midi": 67,
      "hit": false,
      "t": 290975,
      "d": 1156.25,
      "v": 56
    },
    {
      "midi": 69,
      "hit": false,
      "t": 290977.5,
      "d": 1160,
      "v": 56
    },
    {
      "midi": 55,
      "hit": false,
      "t": 290993.75,
      "d": 293.75,
      "v": 45
    },
    {
      "midi": 43,
      "hit": false,
      "t": 291296.25,
      "d": 197.5,
      "v": 44
    },
    {
      "midi": 43,
      "hit": false,
      "t": 291593.75,
      "d": 1125,
      "v": 48
    },
    {
      "midi": 79,
      "hit": false,
      "t": 292196.25,
      "d": 641.25,
      "v": 73
    },
    {
      "midi": 76,
      "hit": false,
      "t": 292490,
      "d": 287.5,
      "v": 56
    },
    {
      "midi": 76,
      "hit": false,
      "t": 292787.5,
      "d": 531.25,
      "v": 64
    },
    {
      "midi": 72,
      "hit": false,
      "t": 292787.5,
      "d": 543.75,
      "v": 73
    },
    {
      "midi": 36,
      "hit": false,
      "t": 292790,
      "d": 578.75,
      "v": 48
    },
    {
      "midi": 67,
      "hit": false,
      "t": 292796.25,
      "d": 2028.75,
      "v": 64
    },
    {
      "midi": 72,
      "hit": false,
      "t": 293387.5,
      "d": 556.25,
      "v": 64
    },
    {
      "midi": 48,
      "hit": false,
      "t": 293393.75,
      "d": 293.75,
      "v": 45
    },
    {
      "midi": 76,
      "hit": false,
      "t": 293400,
      "d": 1452.5,
      "v": 64
    },
    {
      "midi": 36,
      "hit": false,
      "t": 293696.25,
      "d": 197.5,
      "v": 44
    },
    {
      "midi": 36,
      "hit": false,
      "t": 293993.75,
      "d": 1125,
      "v": 48
    },
    {
      "midi": 74,
      "hit": false,
      "t": 293996.25,
      "d": 825,
      "v": 73
    },
    {
      "midi": 72,
      "hit": false,
      "t": 294337.5,
      "d": 458.75,
      "v": 44
    },
    {
      "midi": 69,
      "hit": false,
      "t": 294912.5,
      "d": 283.75,
      "v": 48
    },
    {
      "midi": 73,
      "hit": false,
      "t": 295175,
      "d": 1175,
      "v": 64
    },
    {
      "midi": 45,
      "hit": false,
      "t": 295190,
      "d": 578.75,
      "v": 48
    },
    {
      "midi": 76,
      "hit": false,
      "t": 295190,
      "d": 1141.25,
      "v": 73
    },
    {
      "midi": 67,
      "hit": false,
      "t": 295196.25,
      "d": 1153.75,
      "v": 73
    },
    {
      "midi": 57,
      "hit": false,
      "t": 295793.75,
      "d": 293.75,
      "v": 45
    },
    {
      "midi": 45,
      "hit": false,
      "t": 296096.25,
      "d": 197.5,
      "v": 44
    },
    {
      "midi": 45,
      "hit": false,
      "t": 296393.75,
      "d": 1125,
      "v": 48
    },
    {
      "midi": 76,
      "hit": false,
      "t": 296393.75,
      "d": 1165,
      "v": 64
    },
    {
      "midi": 71,
      "hit": false,
      "t": 296396.25,
      "d": 341.25,
      "v": 73
    },
    {
      "midi": 69,
      "hit": false,
      "t": 296662.5,
      "d": 865,
      "v": 49
    },
    {
      "midi": 72,
      "hit": false,
      "t": 297583.75,
      "d": 250,
      "v": 56
    },
    {
      "midi": 69,
      "hit": false,
      "t": 297590,
      "d": 247.5,
      "v": 48
    },
    {
      "midi": 45,
      "hit": false,
      "t": 297590,
      "d": 578.75,
      "v": 48
    },
    {
      "midi": 76,
      "hit": false,
      "t": 297593.75,
      "d": 215,
      "v": 32
    },
    {
      "midi": 72,
      "hit": false,
      "t": 297890,
      "d": 506.25,
      "v": 64
    },
    {
      "midi": 69,
      "hit": false,
      "t": 297893.75,
      "d": 490,
      "v": 60
    },
    {
      "midi": 76,
      "hit": false,
      "t": 297896.25,
      "d": 460,
      "v": 64
    },
    {
      "midi": 57,
      "hit": false,
      "t": 298193.75,
      "d": 293.75,
      "v": 45
    },
    {
      "midi": 72,
      "hit": false,
      "t": 298487.5,
      "d": 831.25,
      "v": 73
    },
    {
      "midi": 69,
      "hit": false,
      "t": 298493.75,
      "d": 827.5,
      "v": 60
    },
    {
      "midi": 45,
      "hit": false,
      "t": 298496.25,
      "d": 197.5,
      "v": 44
    },
    {
      "midi": 76,
      "hit": false,
      "t": 298496.25,
      "d": 781.25,
      "v": 64
    },
    {
      "midi": 45,
      "hit": false,
      "t": 298793.75,
      "d": 1125,
      "v": 48
    },
    {
      "midi": 76,
      "hit": false,
      "t": 299396.25,
      "d": 418.75,
      "v": 64
    },
    {
      "midi": 69,
      "hit": false,
      "t": 299396.25,
      "d": 493.75,
      "v": 64
    },
    {
      "midi": 72,
      "hit": false,
      "t": 299396.25,
      "d": 506.25,
      "v": 73
    },
    {
      "midi": 38,
      "hit": false,
      "t": 299990,
      "d": 578.75,
      "v": 48
    },
    {
      "midi": 74,
      "hit": false,
      "t": 299996.25,
      "d": 541.25,
      "v": 64
    },
    {
      "midi": 66,
      "hit": false,
      "t": 299996.25,
      "d": 547.5,
      "v": 56
    },
    {
      "midi": 69,
      "hit": false,
      "t": 299996.25,
      "d": 585,
      "v": 64
    },
    {
      "midi": 50,
      "hit": false,
      "t": 300593.75,
      "d": 293.75,
      "v": 45
    },
    {
      "midi": 74,
      "hit": false,
      "t": 300596.25,
      "d": 918.75,
      "v": 64
    },
    {
      "midi": 69,
      "hit": false,
      "t": 300596.25,
      "d": 928.75,
      "v": 60
    },
    {
      "midi": 66,
      "hit": false,
      "t": 300596.25,
      "d": 956.25,
      "v": 64
    },
    {
      "midi": 38,
      "hit": false,
      "t": 300896.25,
      "d": 197.5,
      "v": 44
    },
    {
      "midi": 38,
      "hit": false,
      "t": 301193.75,
      "d": 1125,
      "v": 48
    },
    {
      "midi": 69,
      "hit": false,
      "t": 301796.25,
      "d": 568.75,
      "v": 60
    },
    {
      "midi": 66,
      "hit": false,
      "t": 301796.25,
      "d": 578.75,
      "v": 64
    },
    {
      "midi": 74,
      "hit": false,
      "t": 301796.25,
      "d": 585,
      "v": 56
    },
    {
      "midi": 43,
      "hit": false,
      "t": 302393.75,
      "d": 2283.75,
      "v": 48
    },
    {
      "midi": 71,
      "hit": false,
      "t": 302396.25,
      "d": 181.25,
      "v": 48
    },
    {
      "midi": 67,
      "hit": false,
      "t": 302396.25,
      "d": 187.5,
      "v": 56
    },
    {
      "midi": 62,
      "hit": false,
      "t": 302396.25,
      "d": 210,
      "v": 52
    },
    {
      "midi": 71,
      "hit": false,
      "t": 302702.5,
      "d": 412.5,
      "v": 60
    },
    {
      "midi": 67,
      "hit": false,
      "t": 302702.5,
      "d": 441.25,
      "v": 64
    },
    {
      "midi": 62,
      "hit": false,
      "t": 302708.75,
      "d": 422.5,
      "v": 56
    },
    {
      "midi": 67,
      "hit": false,
      "t": 303290,
      "d": 1406.25,
      "v": 64
    },
    {
      "midi": 71,
      "hit": false,
      "t": 303293.75,
      "d": 1352.5,
      "v": 56
    },
    {
      "midi": 62,
      "hit": false,
      "t": 303293.75,
      "d": 1393.75,
      "v": 56
    },
    {
      "midi": 43,
      "hit": false,
      "t": 304793.75,
      "d": 2283.75,
      "v": 48
    },
    {
      "midi": 66,
      "hit": false,
      "t": 304796.25,
      "d": 162.5,
      "v": 56
    },
    {
      "midi": 62,
      "hit": false,
      "t": 304796.25,
      "d": 175,
      "v": 56
    },
    {
      "midi": 71,
      "hit": false,
      "t": 304800,
      "d": 171.25,
      "v": 56
    },
    {
      "midi": 66,
      "hit": false,
      "t": 305093.75,
      "d": 468.75,
      "v": 64
    },
    {
      "midi": 71,
      "hit": false,
      "t": 305102.5,
      "d": 412.5,
      "v": 52
    },
    {
      "midi": 62,
      "hit": false,
      "t": 305102.5,
      "d": 460,
      "v": 56
    },
    {
      "midi": 66,
      "hit": false,
      "t": 305687.5,
      "d": 762.5,
      "v": 60
    },
    {
      "midi": 71,
      "hit": false,
      "t": 305690,
      "d": 731.25,
      "v": 56
    },
    {
      "midi": 62,
      "hit": false,
      "t": 305690,
      "d": 753.75,
      "v": 56
    },
    {
      "midi": 62,
      "hit": false,
      "t": 306575,
      "d": 558.75,
      "v": 60
    },
    {
      "midi": 66,
      "hit": false,
      "t": 306575,
      "d": 583.75,
      "v": 60
    },
    {
      "midi": 71,
      "hit": false,
      "t": 306575,
      "d": 590,
      "v": 60
    },
    {
      "midi": 48,
      "hit": false,
      "t": 307193.75,
      "d": 2283.75,
      "v": 48
    },
    {
      "midi": 76,
      "hit": false,
      "t": 307196.25,
      "d": 85,
      "v": 48
    },
    {
      "midi": 67,
      "hit": false,
      "t": 307196.25,
      "d": 100,
      "v": 48
    },
    {
      "midi": 72,
      "hit": false,
      "t": 307196.25,
      "d": 118.75,
      "v": 56
    },
    {
      "midi": 67,
      "hit": false,
      "t": 307496.25,
      "d": 431.25,
      "v": 56
    },
    {
      "midi": 76,
      "hit": false,
      "t": 307496.25,
      "d": 437.5,
      "v": 48
    },
    {
      "midi": 72,
      "hit": false,
      "t": 307496.25,
      "d": 450,
      "v": 60
    },
    {
      "midi": 72,
      "hit": false,
      "t": 308090,
      "d": 772.5,
      "v": 64
    },
    {
      "midi": 67,
      "hit": false,
      "t": 308093.75,
      "d": 721.25,
      "v": 56
    },
    {
      "midi": 76,
      "hit": false,
      "t": 308096.25,
      "d": 737.5,
      "v": 56
    },
    {
      "midi": 72,
      "hit": false,
      "t": 308990,
      "d": 562.5,
      "v": 60
    },
    {
      "midi": 67,
      "hit": false,
      "t": 308990,
      "d": 578.75,
      "v": 56
    },
    {
      "midi": 76,
      "hit": false,
      "t": 308990,
      "d": 628.75,
      "v": 60
    },
    {
      "midi": 48,
      "hit": false,
      "t": 309593.75,
      "d": 2283.75,
      "v": 48
    },
    {
      "midi": 72,
      "hit": false,
      "t": 309596.25,
      "d": 268.75,
      "v": 64
    },
    {
      "midi": 67,
      "hit": false,
      "t": 309596.25,
      "d": 472.5,
      "v": 64
    },
    {
      "midi": 79,
      "hit": false,
      "t": 309596.25,
      "d": 741.25,
      "v": 73
    },
    {
      "midi": 76,
      "hit": false,
      "t": 309902.5,
      "d": 393.75,
      "v": 56
    },
    {
      "midi": 72,
      "hit": false,
      "t": 310193.75,
      "d": 381.25,
      "v": 60
    },
    {
      "midi": 67,
      "hit": false,
      "t": 310506.25,
      "d": 196.25,
      "v": 52
    },
    {
      "midi": 76,
      "hit": false,
      "t": 310796.25,
      "d": 262.5,
      "v": 64
    },
    {
      "midi": 67,
      "hit": false,
      "t": 310800,
      "d": 168.75,
      "v": 64
    },
    {
      "midi": 72,
      "hit": false,
      "t": 311093.75,
      "d": 277.5,
      "v": 56
    },
    {
      "midi": 67,
      "hit": false,
      "t": 311393.75,
      "d": 425,
      "v": 64
    },
    {
      "midi": 76,
      "hit": false,
      "t": 311396.25,
      "d": 441.25,
      "v": 73
    },
    {
      "midi": 45,
      "hit": false,
      "t": 311993.75,
      "d": 2283.75,
      "v": 48
    },
    {
      "midi": 76,
      "hit": false,
      "t": 312577.5,
      "d": 1835,
      "v": 60
    },
    {
      "midi": 67,
      "hit": false,
      "t": 312577.5,
      "d": 1872.5,
      "v": 60
    },
    {
      "midi": 72,
      "hit": false,
      "t": 312583.75,
      "d": 1850,
      "v": 64
    },
    {
      "midi": 50,
      "hit": false,
      "t": 314393.75,
      "d": 2283.75,
      "v": 48
    },
    {
      "midi": 72,
      "hit": false,
      "t": 314975,
      "d": 1756.25,
      "v": 60
    },
    {
      "midi": 69,
      "hit": false,
      "t": 314990,
      "d": 1710,
      "v": 64
    },
    {
      "midi": 76,
      "hit": false,
      "t": 314990,
      "d": 1741.25,
      "v": 56
    },
    {
      "midi": 66,
      "hit": false,
      "t": 314996.25,
      "d": 1706.25,
      "v": 60
    },
    {
      "midi": 67,
      "hit": false,
      "t": 316775,
      "d": 2337.5,
      "v": 36
    },
    {
      "midi": 43,
      "hit": false,
      "t": 316793.75,
      "d": 2283.75,
      "v": 48
    },
    {
      "midi": 79,
      "hit": false,
      "t": 317081.25,
      "d": 2108.75,
      "v": 64
    },
    {
      "midi": 43,
      "hit": false,
      "t": 319193.75,
      "d": 2283.75,
      "v": 48
    },
    {
      "midi": 79,
      "hit": false,
      "t": 359737.5,
      "d": 1112.5,
      "v": 48
    },
    {
      "midi": 74,
      "hit": false,
      "t": 359796.25,
      "d": 1072.5,
      "v": 73
    },
    {
      "midi": 71,
      "hit": false,
      "t": 359858.75,
      "d": 985,
      "v": 73
    },
    {
      "midi": 67,
      "hit": false,
      "t": 359946.25,
      "d": 893.75,
      "v": 60
    },
    {
      "midi": 43,
      "hit": false,
      "t": 359993.75,
      "d": 2250,
      "v": 48
    },
    {
      "midi": 79,
      "hit": false,
      "t": 360896.25,
      "d": 1331.25,
      "v": 68
    },
    {
      "midi": 71,
      "hit": false,
      "t": 360896.25,
      "d": 1343.75,
      "v": 60
    },
    {
      "midi": 67,
      "hit": false,
      "t": 360896.25,
      "d": 1350,
      "v": 60
    },
    {
      "midi": 74,
      "hit": false,
      "t": 361193.75,
      "d": 1056.25,
      "v": 63
    },
    {
      "midi": 78,
      "hit": false,
      "t": 362383.75,
      "d": 793.75,
      "v": 60
    },
    {
      "midi": 74,
      "hit": false,
      "t": 362390,
      "d": 785,
      "v": 56
    },
    {
      "midi": 83,
      "hit": false,
      "t": 362393.75,
      "d": 768.75,
      "v": 56
    },
    {
      "midi": 43,
      "hit": false,
      "t": 362393.75,
      "d": 2250,
      "v": 48
    },
    {
      "midi": 83,
      "hit": false,
      "t": 363296.25,
      "d": 222.5,
      "v": 52
    },
    {
      "midi": 74,
      "hit": false,
      "t": 363296.25,
      "d": 1162.5,
      "v": 29
    },
    {
      "midi": 78,
      "hit": false,
      "t": 363300,
      "d": 225,
      "v": 48
    },
    {
      "midi": 78,
      "hit": false,
      "t": 363596.25,
      "d": 903.75,
      "v": 60
    },
    {
      "midi": 83,
      "hit": false,
      "t": 363596.25,
      "d": 916.25,
      "v": 60
    },
    {
      "midi": 79,
      "hit": false,
      "t": 364500,
      "d": 212.5,
      "v": 40
    },
    {
      "midi": 76,
      "hit": false,
      "t": 364518.75,
      "d": 181.25,
      "v": 31
    },
    {
      "midi": 84,
      "hit": false,
      "t": 364518.75,
      "d": 208.75,
      "v": 44
    },
    {
      "midi": 48,
      "hit": false,
      "t": 364793.75,
      "d": 2250,
      "v": 48
    },
    {
      "midi": 76,
      "hit": false,
      "t": 364796.25,
      "d": 768.75,
      "v": 64
    },
    {
      "midi": 79,
      "hit": false,
      "t": 364796.25,
      "d": 778.75,
      "v": 64
    },
    {
      "midi": 84,
      "hit": false,
      "t": 364796.25,
      "d": 800,
      "v": 60
    },
    {
      "midi": 79,
      "hit": false,
      "t": 365700,
      "d": 215,
      "v": 56
    },
    {
      "midi": 84,
      "hit": false,
      "t": 365700,
      "d": 225,
      "v": 48
    },
    {
      "midi": 76,
      "hit": false,
      "t": 365702.5,
      "d": 203.75,
      "v": 44
    },
    {
      "midi": 84,
      "hit": false,
      "t": 365996.25,
      "d": 806.25,
      "v": 64
    },
    {
      "midi": 79,
      "hit": false,
      "t": 365996.25,
      "d": 812.5,
      "v": 60
    },
    {
      "midi": 76,
      "hit": false,
      "t": 366002.5,
      "d": 835,
      "v": 64
    },
    {
      "midi": 79,
      "hit": false,
      "t": 366893.75,
      "d": 1068.75,
      "v": 73
    },
    {
      "midi": 76,
      "hit": false,
      "t": 366896.25,
      "d": 1066.25,
      "v": 56
    },
    {
      "midi": 84,
      "hit": false,
      "t": 366896.25,
      "d": 1081.25,
      "v": 64
    },
    {
      "midi": 48,
      "hit": false,
      "t": 367196.25,
      "d": 2250,
      "v": 48
    },
    {
      "midi": 79,
      "hit": false,
      "t": 368102.5,
      "d": 203.75,
      "v": 64
    },
    {
      "midi": 74,
      "hit": false,
      "t": 368390,
      "d": 143.75,
      "v": 64
    },
    {
      "midi": 79,
      "hit": false,
      "t": 368396.25,
      "d": 203.75,
      "v": 56
    },
    {
      "midi": 76,
      "hit": false,
      "t": 368527.5,
      "d": 85,
      "v": 52
    },
    {
      "midi": 74,
      "hit": false,
      "t": 368668.75,
      "d": 243.75,
      "v": 60
    },
    {
      "midi": 79,
      "hit": false,
      "t": 368668.75,
      "d": 890,
      "v": 32
    },
    {
      "midi": 72,
      "hit": false,
      "t": 368987.5,
      "d": 531.25,
      "v": 60
    },
    {
      "midi": 74,
      "hit": false,
      "t": 369296.25,
      "d": 268.75,
      "v": 52
    },
    {
      "midi": 74,
      "hit": false,
      "t": 369590,
      "d": 300,
      "v": 82
    },
    {
      "midi": 79,
      "hit": false,
      "t": 369593.75,
      "d": 1750,
      "v": 56
    },
    {
      "midi": 45,
      "hit": false,
      "t": 369593.75,
      "d": 2250,
      "v": 48
    },
    {
      "midi": 76,
      "hit": false,
      "t": 369881.25,
      "d": 1431.25,
      "v": 64
    },
    {
      "midi": 76,
      "hit": false,
      "t": 371415,
      "d": 185,
      "v": 50
    },
    {
      "midi": 84,
      "hit": false,
      "t": 371415,
      "d": 191.25,
      "v": 40
    },
    {
      "midi": 76,
      "hit": false,
      "t": 371693.75,
      "d": 521.25,
      "v": 67
    },
    {
      "midi": 84,
      "hit": false,
      "t": 371693.75,
      "d": 550,
      "v": 62
    },
    {
      "midi": 45,
      "hit": false,
      "t": 371993.75,
      "d": 2250,
      "v": 48
    },
    {
      "midi": 76,
      "hit": false,
      "t": 372293.75,
      "d": 750,
      "v": 52
    },
    {
      "midi": 84,
      "hit": false,
      "t": 372296.25,
      "d": 778.75,
      "v": 61
    },
    {
      "midi": 84,
      "hit": false,
      "t": 373477.5,
      "d": 860,
      "v": 64
    },
    {
      "midi": 76,
      "hit": false,
      "t": 373483.75,
      "d": 781.25,
      "v": 60
    },
    {
      "midi": 50,
      "hit": false,
      "t": 374393.75,
      "d": 2250,
      "v": 48
    },
    {
      "midi": 76,
      "hit": false,
      "t": 374990,
      "d": 972.5,
      "v": 73
    },
    {
      "midi": 81,
      "hit": false,
      "t": 374996.25,
      "d": 991.25,
      "v": 60
    },
    {
      "midi": 76,
      "hit": false,
      "t": 376775,
      "d": 1221.25,
      "v": 64
    },
    {
      "midi": 81,
      "hit": false,
      "t": 376783.75,
      "d": 1210,
      "v": 73
    },
    {
      "midi": 50,
      "hit": false,
      "t": 376793.75,
      "d": 1125,
      "v": 48
    },
    {
      "midi": 40,
      "hit": false,
      "t": 377993.75,
      "d": 500,
      "v": 48
    },
    {
      "midi": 76,
      "hit": false,
      "t": 378277.5,
      "d": 818.75,
      "v": 64
    },
    {
      "midi": 81,
      "hit": false,
      "t": 378277.5,
      "d": 868.75,
      "v": 64
    },
    {
      "midi": 42,
      "hit": false,
      "t": 378593.75,
      "d": 500,
      "v": 48
    },
    {
      "midi": 74,
      "hit": false,
      "t": 379087.5,
      "d": 825,
      "v": 48
    },
    {
      "midi": 79,
      "hit": false,
      "t": 379133.75,
      "d": 785,
      "v": 73
    },
    {
      "midi": 43,
      "hit": false,
      "t": 379193.75,
      "d": 2250,
      "v": 48
    },
    {
      "midi": 83,
      "hit": false,
      "t": 379208.75,
      "d": 672.5,
      "v": 56
    },
    {
      "midi": 83,
      "hit": false,
      "t": 380100,
      "d": 1108.75,
      "v": 60
    },
    {
      "midi": 79,
      "hit": false,
      "t": 380100,
      "d": 1125,
      "v": 64
    },
    {
      "midi": 74,
      "hit": false,
      "t": 380112.5,
      "d": 1127.5,
      "v": 56
    },
    {
      "midi": 74,
      "hit": false,
      "t": 381552.5,
      "d": 847.5,
      "v": 48
    },
    {
      "midi": 78,
      "hit": false,
      "t": 381581.25,
      "d": 812.5,
      "v": 64
    },
    {
      "midi": 43,
      "hit": false,
      "t": 381593.75,
      "d": 2250,
      "v": 48
    },
    {
      "midi": 83,
      "hit": false,
      "t": 381606.25,
      "d": 787.5,
      "v": 56
    },
    {
      "midi": 83,
      "hit": false,
      "t": 382500,
      "d": 821.25,
      "v": 64
    },
    {
      "midi": 74,
      "hit": false,
      "t": 382508.75,
      "d": 810,
      "v": 48
    },
    {
      "midi": 78,
      "hit": false,
      "t": 382508.75,
      "d": 818.75,
      "v": 60
    },
    {
      "midi": 81,
      "hit": false,
      "t": 383396.25,
      "d": 310,
      "v": 64
    },
    {
      "midi": 86,
      "hit": false,
      "t": 383402.5,
      "d": 597.5,
      "v": 64
    },
    {
      "midi": 79,
      "hit": false,
      "t": 383696.25,
      "d": 291.25,
      "v": 48
    },
    {
      "midi": 79,
      "hit": false,
      "t": 383993.75,
      "d": 700,
      "v": 56
    },
    {
      "midi": 76,
      "hit": false,
      "t": 383993.75,
      "d": 715,
      "v": 56
    },
    {
      "midi": 84,
      "hit": false,
      "t": 383993.75,
      "d": 725,
      "v": 56
    },
    {
      "midi": 48,
      "hit": false,
      "t": 383993.75,
      "d": 2250,
      "v": 48
    },
    {
      "midi": 79,
      "hit": false,
      "t": 384900,
      "d": 1381.25,
      "v": 64
    },
    {
      "midi": 84,
      "hit": false,
      "t": 384906.25,
      "d": 1400,
      "v": 56
    },
    {
      "midi": 76,
      "hit": false,
      "t": 384912.5,
      "d": 1365,
      "v": 52
    },
    {
      "midi": 74,
      "hit": false,
      "t": 386390,
      "d": 953.75,
      "v": 81
    },
    {
      "midi": 48,
      "hit": false,
      "t": 386393.75,
      "d": 2250,
      "v": 48
    },
    {
      "midi": 71,
      "hit": false,
      "t": 386693.75,
      "d": 727.5,
      "v": 60
    },
    {
      "midi": 79,
      "hit": false,
      "t": 386996.25,
      "d": 600,
      "v": 48
    },
    {
      "midi": 76,
      "hit": false,
      "t": 387312.5,
      "d": 262.5,
      "v": 52
    },
    {
      "midi": 76,
      "hit": false,
      "t": 387596.25,
      "d": 1118.75,
      "v": 82
    },
    {
      "midi": 74,
      "hit": false,
      "t": 387893.75,
      "d": 868.75,
      "v": 56
    },
    {
      "midi": 72,
      "hit": false,
      "t": 388196.25,
      "d": 550,
      "v": 49
    },
    {
      "midi": 69,
      "hit": false,
      "t": 388493.75,
      "d": 356.25,
      "v": 56
    },
    {
      "midi": 74,
      "hit": false,
      "t": 388781.25,
      "d": 337.5,
      "v": 82
    },
    {
      "midi": 79,
      "hit": false,
      "t": 388787.5,
      "d": 1846.25,
      "v": 56
    },
    {
      "midi": 45,
      "hit": false,
      "t": 388793.75,
      "d": 2250,
      "v": 48
    },
    {
      "midi": 76,
      "hit": false,
      "t": 389077.5,
      "d": 1537.5,
      "v": 60
    },
    {
      "midi": 67,
      "hit": false,
      "t": 391093.75,
      "d": 583.75,
      "v": 36
    },
    {
      "midi": 72,
      "hit": false,
      "t": 391131.25,
      "d": 568.75,
      "v": 64
    },
    {
      "midi": 48,
      "hit": false,
      "t": 391193.75,
      "d": 2250,
      "v": 48
    },
    {
      "midi": 76,
      "hit": false,
      "t": 391196.25,
      "d": 493.75,
      "v": 65
    },
    {
      "midi": 72,
      "hit": false,
      "t": 391783.75,
      "d": 250,
      "v": 56
    },
    {
      "midi": 76,
      "hit": false,
      "t": 391800,
      "d": 212.5,
      "v": 48
    },
    {
      "midi": 67,
      "hit": false,
      "t": 391800,
      "d": 240,
      "v": 52
    },
    {
      "midi": 72,
      "hit": false,
      "t": 392083.75,
      "d": 822.5,
      "v": 56
    },
    {
      "midi": 67,
      "hit": false,
      "t": 392102.5,
      "d": 787.5,
      "v": 64
    },
    {
      "midi": 76,
      "hit": false,
      "t": 392102.5,
      "d": 791.25,
      "v": 64
    },
    {
      "midi": 67,
      "hit": false,
      "t": 392996.25,
      "d": 550,
      "v": 52
    },
    {
      "midi": 72,
      "hit": false,
      "t": 392996.25,
      "d": 556.25,
      "v": 64
    },
    {
      "midi": 76,
      "hit": false,
      "t": 393000,
      "d": 556.25,
      "v": 60
    },
    {
      "midi": 71,
      "hit": false,
      "t": 393275,
      "d": 921.25,
      "v": 56
    },
    {
      "midi": 67,
      "hit": false,
      "t": 393571.25,
      "d": 603.75,
      "v": 64
    },
    {
      "midi": 62,
      "hit": false,
      "t": 393583.75,
      "d": 600,
      "v": 52
    },
    {
      "midi": 43,
      "hit": false,
      "t": 393593.75,
      "d": 2250,
      "v": 48
    },
    {
      "midi": 86,
      "hit": false,
      "t": 394187.5,
      "d": 312.5,
      "v": 73
    },
    {
      "midi": 79,
      "hit": false,
      "t": 394196.25,
      "d": 250,
      "v": 60
    },
    {
      "midi": 83,
      "hit": false,
      "t": 394493.75,
      "d": 290,
      "v": 56
    },
    {
      "midi": 71,
      "hit": false,
      "t": 394790,
      "d": 306.25,
      "v": 60
    },
    {
      "midi": 67,
      "hit": false,
      "t": 395096.25,
      "d": 241.25,
      "v": 64
    },
    {
      "midi": 62,
      "hit": false,
      "t": 395393.75,
      "d": 246.25,
      "v": 52
    },
    {
      "midi": 67,
      "hit": false,
      "t": 395702.5,
      "d": 260,
      "v": 73
    },
    {
      "midi": 43,
      "hit": false,
      "t": 395993.75,
      "d": 1125,
      "v": 48
    },
    {
      "midi": 79,
      "hit": false,
      "t": 396290,
      "d": 306.25,
      "v": 64
    },
    {
      "midi": 86,
      "hit": false,
      "t": 396296.25,
      "d": 506.25,
      "v": 64
    },
    {
      "midi": 76,
      "hit": false,
      "t": 396587.5,
      "d": 221.25,
      "v": 60
    },
    {
      "midi": 79,
      "hit": false,
      "t": 396900,
      "d": 250,
      "v": 64
    },
    {
      "midi": 72,
      "hit": false,
      "t": 397196.25,
      "d": 325,
      "v": 64
    },
    {
      "midi": 76,
      "hit": false,
      "t": 397196.25,
      "d": 410,
      "v": 73
    },
    {
      "midi": 50,
      "hit": false,
      "t": 397196.25,
      "d": 1093.75,
      "v": 48
    },
    {
      "midi": 79,
      "hit": false,
      "t": 397500,
      "d": 296.25,
      "v": 73
    },
    {
      "midi": 74,
      "hit": false,
      "t": 397793.75,
      "d": 337.5,
      "v": 60
    },
    {
      "midi": 78,
      "hit": false,
      "t": 397796.25,
      "d": 343.75,
      "v": 64
    },
    {
      "midi": 81,
      "hit": false,
      "t": 398100,
      "d": 268.75,
      "v": 63
    },
    {
      "midi": 69,
      "hit": false,
      "t": 398393.75,
      "d": 331.25,
      "v": 64
    },
    {
      "midi": 79,
      "hit": false,
      "t": 398393.75,
      "d": 656.25,
      "v": 65
    },
    {
      "midi": 74,
      "hit": false,
      "t": 398393.75,
      "d": 687.5,
      "v": 73
    },
    {
      "midi": 43,
      "hit": false,
      "t": 398393.75,
      "d": 2250,
      "v": 48
    },
    {
      "midi": 71,
      "hit": false,
      "t": 398683.75,
      "d": 410,
      "v": 52
    },
    {
      "midi": 79,
      "hit": false,
      "t": 399290,
      "d": 850,
      "v": 64
    },
    {
      "midi": 74,
      "hit": false,
      "t": 399293.75,
      "d": 802.5,
      "v": 64
    },
    {
      "midi": 71,
      "hit": false,
      "t": 399296.25,
      "d": 803.75,
      "v": 60
    },
    {
      "midi": 79,
      "hit": false,
      "t": 400193.75,
      "d": 550,
      "v": 60
    },
    {
      "midi": 74,
      "hit": false,
      "t": 400196.25,
      "d": 556.25,
      "v": 73
    },
    {
      "midi": 71,
      "hit": false,
      "t": 400196.25,
      "d": 591.25,
      "v": 64
    },
    {
      "midi": 69,
      "hit": false,
      "t": 400783.75,
      "d": 287.5,
      "v": 64
    },
    {
      "midi": 78,
      "hit": false,
      "t": 400793.75,
      "d": 815,
      "v": 52
    },
    {
      "midi": 74,
      "hit": false,
      "t": 400793.75,
      "d": 825,
      "v": 64
    },
    {
      "midi": 43,
      "hit": false,
      "t": 400793.75,
      "d": 2250,
      "v": 48
    },
    {
      "midi": 71,
      "hit": false,
      "t": 401062.5,
      "d": 525,
      "v": 56
    },
    {
      "midi": 78,
      "hit": false,
      "t": 401690,
      "d": 843.75,
      "v": 73
    },
    {
      "midi": 71,
      "hit": false,
      "t": 401696.25,
      "d": 803.75,
      "v": 64
    },
    {
      "midi": 74,
      "hit": false,
      "t": 401702.5,
      "d": 816.25,
      "v": 60
    },
    {
      "midi": 81,
      "hit": false,
      "t": 402596.25,
      "d": 262.5,
      "v": 73
    },
    {
      "midi": 86,
      "hit": false,
      "t": 402596.25,
      "d": 541.25,
      "v": 64
    },
    {
      "midi": 79,
      "hit": false,
      "t": 402877.5,
      "d": 275,
      "v": 52
    },
    {
      "midi": 74,
      "hit": false,
      "t": 403187.5,
      "d": 358.75,
      "v": 69
    },
    {
      "midi": 79,
      "hit": false,
      "t": 403187.5,
      "d": 1952.5,
      "v": 65
    },
    {
      "midi": 48,
      "hit": false,
      "t": 403193.75,
      "d": 2250,
      "v": 48
    },
    {
      "midi": 76,
      "hit": false,
      "t": 403490,
      "d": 1618.75,
      "v": 48
    },
    {
      "midi": 74,
      "hit": false,
      "t": 405596.25,
      "d": 310,
      "v": 91
    },
    {
      "midi": 48,
      "hit": false,
      "t": 405596.25,
      "d": 2250,
      "v": 48
    },
    {
      "midi": 79,
      "hit": false,
      "t": 405608.75,
      "d": 747.5,
      "v": 64
    },
    {
      "midi": 76,
      "hit": false,
      "t": 405875,
      "d": 490,
      "v": 52
    },
    {
      "midi": 79,
      "hit": false,
      "t": 406490,
      "d": 753.75,
      "v": 64
    },
    {
      "midi": 74,
      "hit": false,
      "t": 406490,
      "d": 772.5,
      "v": 64
    },
    {
      "midi": 74,
      "hit": false,
      "t": 407383.75,
      "d": 293.75,
      "v": 82
    },
    {
      "midi": 79,
      "hit": false,
      "t": 407383.75,
      "d": 618.75,
      "v": 64
    },
    {
      "midi": 72,
      "hit": false,
      "t": 407687.5,
      "d": 258.75,
      "v": 56
    },
    {
      "midi": 72,
      "hit": false,
      "t": 407981.25,
      "d": 2418.75,
      "v": 64
    },
    {
      "midi": 76,
      "hit": false,
      "t": 407983.75,
      "d": 2412.5,
      "v": 64
    },
    {
      "midi": 67,
      "hit": false,
      "t": 407990,
      "d": 2400,
      "v": 56
    },
    {
      "midi": 45,
      "hit": false,
      "t": 407993.75,
      "d": 2250,
      "v": 48
    },
    {
      "midi": 45,
      "hit": false,
      "t": 410393.75,
      "d": 2250,
      "v": 48
    },
    {
      "midi": 76,
      "hit": false,
      "t": 410965,
      "d": 1828.75,
      "v": 56
    },
    {
      "midi": 67,
      "hit": false,
      "t": 410968.75,
      "d": 1775,
      "v": 56
    },
    {
      "midi": 72,
      "hit": false,
      "t": 410968.75,
      "d": 1796.25,
      "v": 64
    },
    {
      "midi": 62,
      "hit": false,
      "t": 412771.25,
      "d": 366.25,
      "v": 30
    },
    {
      "midi": 50,
      "hit": false,
      "t": 412793.75,
      "d": 2250,
      "v": 48
    },
    {
      "midi": 74,
      "hit": false,
      "t": 413100,
      "d": 606.25,
      "v": 73
    },
    {
      "midi": 62,
      "hit": false,
      "t": 413696.25,
      "d": 303.75,
      "v": 48
    },
    {
      "midi": 76,
      "hit": false,
      "t": 413993.75,
      "d": 683.75,
      "v": 83
    },
    {
      "midi": 64,
      "hit": false,
      "t": 414596.25,
      "d": 303.75,
      "v": 31
    },
    {
      "midi": 78,
      "hit": false,
      "t": 414900,
      "d": 700,
      "v": 77
    },
    {
      "midi": 50,
      "hit": false,
      "t": 415193.75,
      "d": 1125,
      "v": 48
    },
    {
      "midi": 69,
      "hit": false,
      "t": 415506.25,
      "d": 687.5,
      "v": 48
    },
    {
      "midi": 79,
      "hit": false,
      "t": 415796.25,
      "d": 606.25,
      "v": 81
    },
    {
      "midi": 40,
      "hit": false,
      "t": 416393.75,
      "d": 500,
      "v": 48
    },
    {
      "midi": 72,
      "hit": false,
      "t": 416408.75,
      "d": 1181.25,
      "v": 52
    },
    {
      "midi": 81,
      "hit": false,
      "t": 416981.25,
      "d": 568.75,
      "v": 91
    },
    {
      "midi": 42,
      "hit": false,
      "t": 416993.75,
      "d": 500,
      "v": 48
    },
    {
      "midi": 69,
      "hit": false,
      "t": 417571.25,
      "d": 316.25,
      "v": 64
    },
    {
      "midi": 74,
      "hit": false,
      "t": 417577.5,
      "d": 822.5,
      "v": 64
    },
    {
      "midi": 79,
      "hit": false,
      "t": 417587.5,
      "d": 796.25,
      "v": 52
    },
    {
      "midi": 43,
      "hit": false,
      "t": 417593.75,
      "d": 2250,
      "v": 48
    },
    {
      "midi": 71,
      "hit": false,
      "t": 417871.25,
      "d": 506.25,
      "v": 56
    },
    {
      "midi": 74,
      "hit": false,
      "t": 418477.5,
      "d": 812.5,
      "v": 73
    },
    {
      "midi": 71,
      "hit": false,
      "t": 418483.75,
      "d": 781.25,
      "v": 73
    },
    {
      "midi": 79,
      "hit": false,
      "t": 418490,
      "d": 791.25,
      "v": 64
    },
    {
      "midi": 71,
      "hit": false,
      "t": 419377.5,
      "d": 618.75,
      "v": 64
    },
    {
      "midi": 79,
      "hit": false,
      "t": 419377.5,
      "d": 635,
      "v": 73
    },
    {
      "midi": 74,
      "hit": false,
      "t": 419387.5,
      "d": 552.5,
      "v": 73
    },
    {
      "midi": 43,
      "hit": false,
      "t": 419993.75,
      "d": 2250,
      "v": 48
    },
    {
      "midi": 74,
      "hit": false,
      "t": 420012.5,
      "d": 775,
      "v": 64
    },
    {
      "midi": 69,
      "hit": false,
      "t": 420021.25,
      "d": 250,
      "v": 56
    },
    {
      "midi": 78,
      "hit": false,
      "t": 420031.25,
      "d": 721.25,
      "v": 48
    },
    {
      "midi": 71,
      "hit": false,
      "t": 420290,
      "d": 478.75,
      "v": 56
    },
    {
      "midi": 71,
      "hit": false,
      "t": 420890,
      "d": 803.75,
      "v": 64
    },
    {
      "midi": 78,
      "hit": false,
      "t": 420890,
      "d": 868.75,
      "v": 56
    },
    {
      "midi": 74,
      "hit": false,
      "t": 420900,
      "d": 827.5,
      "v": 64
    },
    {
      "midi": 81,
      "hit": false,
      "t": 421796.25,
      "d": 310,
      "v": 64
    },
    {
      "midi": 86,
      "hit": false,
      "t": 421802.5,
      "d": 597.5,
      "v": 64
    },
    {
      "midi": 79,
      "hit": false,
      "t": 422096.25,
      "d": 291.25,
      "v": 48
    },
    {
      "midi": 74,
      "hit": false,
      "t": 422393.75,
      "d": 327.5,
      "v": 73
    },
    {
      "midi": 48,
      "hit": false,
      "t": 422393.75,
      "d": 2250,
      "v": 48
    },
    {
      "midi": 79,
      "hit": false,
      "t": 422393.75,
      "d": 2302.5,
      "v": 60
    },
    {
      "midi": 76,
      "hit": false,
      "t": 422687.5,
      "d": 2006.25,
      "v": 56
    },
    {
      "midi": 74,
      "hit": false,
      "t": 424775,
      "d": 327.5,
      "v": 73
    },
    {
      "midi": 79,
      "hit": false,
      "t": 424775,
      "d": 756.25,
      "v": 64
    },
    {
      "midi": 48,
      "hit": false,
      "t": 424793.75,
      "d": 2250,
      "v": 48
    },
    {
      "midi": 72,
      "hit": false,
      "t": 425077.5,
      "d": 500,
      "v": 48
    },
    {
      "midi": 79,
      "hit": false,
      "t": 425683.75,
      "d": 497.5,
      "v": 64
    },
    {
      "midi": 74,
      "hit": false,
      "t": 425687.5,
      "d": 506.25,
      "v": 73
    },
    {
      "midi": 74,
      "hit": false,
      "t": 426287.5,
      "d": 300,
      "v": 53
    },
    {
      "midi": 79,
      "hit": false,
      "t": 426300,
      "d": 883.75,
      "v": 48
    },
    {
      "midi": 76,
      "hit": false,
      "t": 426581.25,
      "d": 568.75,
      "v": 73
    },
    {
      "midi": 45,
      "hit": false,
      "t": 427193.75,
      "d": 2250,
      "v": 48
    },
    {
      "midi": 74,
      "hit": false,
      "t": 427212.5,
      "d": 293.75,
      "v": 73
    },
    {
      "midi": 79,
      "hit": false,
      "t": 427221.25,
      "d": 918.75,
      "v": 64
    },
    {
      "midi": 72,
      "hit": false,
      "t": 427506.25,
      "d": 696.25,
      "v": 56
    },
    {
      "midi": 72,
      "hit": false,
      "t": 428721.25,
      "d": 225,
      "v": 59
    },
    {
      "midi": 81,
      "hit": false,
      "t": 428993.75,
      "d": 552.5,
      "v": 73
    },
    {
      "midi": 74,
      "hit": false,
      "t": 428996.25,
      "d": 516.25,
      "v": 73
    },
    {
      "midi": 74,
      "hit": false,
      "t": 429581.25,
      "d": 365,
      "v": 73
    },
    {
      "midi": 48,
      "hit": false,
      "t": 429593.75,
      "d": 2250,
      "v": 48
    },
    {
      "midi": 79,
      "hit": false,
      "t": 429596.25,
      "d": 566.25,
      "v": 64
    },
    {
      "midi": 72,
      "hit": false,
      "t": 429887.5,
      "d": 283.75,
      "v": 48
    },
    {
      "midi": 76,
      "hit": false,
      "t": 430215,
      "d": 466.25,
      "v": 73
    },
    {
      "midi": 84,
      "hit": false,
      "t": 430221.25,
      "d": 460,
      "v": 64
    },
    {
      "midi": 76,
      "hit": false,
      "t": 430793.75,
      "d": 487.5,
      "v": 73
    },
    {
      "midi": 76,
      "hit": false,
      "t": 431381.25,
      "d": 518.75,
      "v": 64
    },
    {
      "midi": 72,
      "hit": false,
      "t": 431387.5,
      "d": 525,
      "v": 64
    },
    {
      "midi": 81,
      "hit": false,
      "t": 431390,
      "d": 528.75,
      "v": 64
    },
    {
      "midi": 67,
      "hit": false,
      "t": 431983.75,
      "d": 278.75,
      "v": 56
    },
    {
      "midi": 74,
      "hit": false,
      "t": 431983.75,
      "d": 278.75,
      "v": 73
    },
    {
      "midi": 43,
      "hit": false,
      "t": 431993.75,
      "d": 2250,
      "v": 48
    },
    {
      "midi": 71,
      "hit": false,
      "t": 432296.25,
      "d": 260,
      "v": 64
    },
    {
      "midi": 67,
      "hit": false,
      "t": 432593.75,
      "d": 502.5,
      "v": 60
    },
    {
      "midi": 71,
      "hit": false,
      "t": 432596.25,
      "d": 275,
      "v": 82
    },
    {
      "midi": 62,
      "hit": false,
      "t": 432600,
      "d": 290,
      "v": 82
    },
    {
      "midi": 72,
      "hit": false,
      "t": 432875,
      "d": 268.75,
      "v": 64
    },
    {
      "midi": 64,
      "hit": false,
      "t": 432877.5,
      "d": 362.5,
      "v": 48
    },
    {
      "midi": 71,
      "hit": false,
      "t": 433187.5,
      "d": 256.25,
      "v": 73
    },
    {
      "midi": 62,
      "hit": false,
      "t": 433196.25,
      "d": 353.75,
      "v": 73
    },
    {
      "midi": 67,
      "hit": false,
      "t": 433487.5,
      "d": 262.5,
      "v": 64
    },
    {
      "midi": 62,
      "hit": false,
      "t": 433783.75,
      "d": 103.75,
      "v": 52
    },
    {
      "midi": 69,
      "hit": false,
      "t": 433793.75,
      "d": 581.25,
      "v": 82
    },
    {
      "midi": 67,
      "hit": false,
      "t": 433975,
      "d": 531.25,
      "v": 73
    },
    {
      "midi": 62,
      "hit": false,
      "t": 434096.25,
      "d": 281.25,
      "v": 64
    },
    {
      "midi": 43,
      "hit": false,
      "t": 434393.75,
      "d": 2250,
      "v": 48
    },
    {
      "midi": 62,
      "hit": false,
      "t": 434408.75,
      "d": 2316.25,
      "v": 73
    },
    {
      "midi": 66,
      "hit": false,
      "t": 434421.25,
      "d": 291.25,
      "v": 82
    },
    {
      "midi": 69,
      "hit": false,
      "t": 434421.25,
      "d": 391.25,
      "v": 91
    },
    {
      "midi": 74,
      "hit": false,
      "t": 434421.25,
      "d": 2318.75,
      "v": 60
    },
    {
      "midi": 67,
      "hit": false,
      "t": 434693.75,
      "d": 2058.75,
      "v": 64
    },
    {
      "midi": 71,
      "hit": false,
      "t": 434718.75,
      "d": 2031.25,
      "v": 56
    },
    {
      "midi": 43,
      "hit": false,
      "t": 436790,
      "d": 578.75,
      "v": 48
    },
    {
      "midi": 67,
      "hit": false,
      "t": 436793.75,
      "d": 802.5,
      "v": 73
    },
    {
      "midi": 71,
      "hit": false,
      "t": 436796.25,
      "d": 803.75,
      "v": 73
    },
    {
      "midi": 62,
      "hit": false,
      "t": 436796.25,
      "d": 810,
      "v": 64
    },
    {
      "midi": 55,
      "hit": false,
      "t": 437393.75,
      "d": 293.75,
      "v": 45
    },
    {
      "midi": 43,
      "hit": false,
      "t": 437696.25,
      "d": 197.5,
      "v": 44
    },
    {
      "midi": 67,
      "hit": false,
      "t": 437706.25,
      "d": 243.75,
      "v": 56
    },
    {
      "midi": 71,
      "hit": false,
      "t": 437715,
      "d": 225,
      "v": 56
    },
    {
      "midi": 62,
      "hit": false,
      "t": 437718.75,
      "d": 231.25,
      "v": 60
    },
    {
      "midi": 43,
      "hit": false,
      "t": 437993.75,
      "d": 1125,
      "v": 48
    },
    {
      "midi": 62,
      "hit": false,
      "t": 437996.25,
      "d": 997.5,
      "v": 56
    },
    {
      "midi": 67,
      "hit": false,
      "t": 437996.25,
      "d": 1053.75,
      "v": 82
    },
    {
      "midi": 71,
      "hit": false,
      "t": 437996.25,
      "d": 1075,
      "v": 64
    },
    {
      "midi": 67,
      "hit": false,
      "t": 439175,
      "d": 875,
      "v": 82
    },
    {
      "midi": 72,
      "hit": false,
      "t": 439183.75,
      "d": 860,
      "v": 64
    },
    {
      "midi": 64,
      "hit": false,
      "t": 439187.5,
      "d": 846.25,
      "v": 64
    },
    {
      "midi": 43,
      "hit": false,
      "t": 439190,
      "d": 578.75,
      "v": 48
    },
    {
      "midi": 55,
      "hit": false,
      "t": 439793.75,
      "d": 293.75,
      "v": 45
    },
    {
      "midi": 72,
      "hit": false,
      "t": 440087.5,
      "d": 221.25,
      "v": 60
    },
    {
      "midi": 67,
      "hit": false,
      "t": 440090,
      "d": 241.25,
      "v": 52
    },
    {
      "midi": 43,
      "hit": false,
      "t": 440096.25,
      "d": 197.5,
      "v": 44
    },
    {
      "midi": 64,
      "hit": false,
      "t": 440096.25,
      "d": 237.5,
      "v": 48
    },
    {
      "midi": 67,
      "hit": false,
      "t": 440381.25,
      "d": 1121.25,
      "v": 82
    },
    {
      "midi": 72,
      "hit": false,
      "t": 440381.25,
      "d": 1125,
      "v": 64
    },
    {
      "midi": 64,
      "hit": false,
      "t": 440383.75,
      "d": 1106.25,
      "v": 60
    },
    {
      "midi": 43,
      "hit": false,
      "t": 440393.75,
      "d": 1125,
      "v": 48
    },
    {
      "midi": 62,
      "hit": false,
      "t": 441587.5,
      "d": 837.5,
      "v": 65
    },
    {
      "midi": 71,
      "hit": false,
      "t": 441587.5,
      "d": 840,
      "v": 73
    },
    {
      "midi": 67,
      "hit": false,
      "t": 441587.5,
      "d": 852.5,
      "v": 70
    },
    {
      "midi": 43,
      "hit": false,
      "t": 441590,
      "d": 578.75,
      "v": 48
    },
    {
      "midi": 55,
      "hit": false,
      "t": 442193.75,
      "d": 293.75,
      "v": 45
    },
    {
      "midi": 43,
      "hit": false,
      "t": 442496.25,
      "d": 197.5,
      "v": 44
    },
    {
      "midi": 74,
      "hit": false,
      "t": 442496.25,
      "d": 231.25,
      "v": 61
    },
    {
      "midi": 62,
      "hit": false,
      "t": 442496.25,
      "d": 237.5,
      "v": 56
    },
    {
      "midi": 69,
      "hit": false,
      "t": 442496.25,
      "d": 247.5,
      "v": 63
    },
    {
      "midi": 43,
      "hit": false,
      "t": 442793.75,
      "d": 1125,
      "v": 48
    },
    {
      "midi": 62,
      "hit": false,
      "t": 442796.25,
      "d": 462.5,
      "v": 64
    },
    {
      "midi": 71,
      "hit": false,
      "t": 442796.25,
      "d": 468.75,
      "v": 64
    },
    {
      "midi": 67,
      "hit": false,
      "t": 442796.25,
      "d": 478.75,
      "v": 73
    },
    {
      "midi": 64,
      "hit": false,
      "t": 443396.25,
      "d": 443.75,
      "v": 60
    },
    {
      "midi": 72,
      "hit": false,
      "t": 443396.25,
      "d": 462.5,
      "v": 73
    },
    {
      "midi": 67,
      "hit": false,
      "t": 443396.25,
      "d": 466.25,
      "v": 73
    },
    {
      "midi": 43,
      "hit": false,
      "t": 443990,
      "d": 578.75,
      "v": 48
    },
    {
      "midi": 69,
      "hit": false,
      "t": 443996.25,
      "d": 256.25,
      "v": 73
    },
    {
      "midi": 62,
      "hit": false,
      "t": 443996.25,
      "d": 862.5,
      "v": 73
    },
    {
      "midi": 67,
      "hit": false,
      "t": 443996.25,
      "d": 878.75,
      "v": 73
    },
    {
      "midi": 71,
      "hit": false,
      "t": 444302.5,
      "d": 553.75,
      "v": 56
    },
    {
      "midi": 55,
      "hit": false,
      "t": 444593.75,
      "d": 293.75,
      "v": 45
    },
    {
      "midi": 74,
      "hit": false,
      "t": 444887.5,
      "d": 865,
      "v": 73
    },
    {
      "midi": 69,
      "hit": false,
      "t": 444890,
      "d": 256.25,
      "v": 73
    },
    {
      "midi": 50,
      "hit": false,
      "t": 444896.25,
      "d": 197.5,
      "v": 44
    },
    {
      "midi": 71,
      "hit": false,
      "t": 445183.75,
      "d": 572.5,
      "v": 64
    },
    {
      "midi": 67,
      "hit": false,
      "t": 445187.5,
      "d": 571.25,
      "v": 73
    },
    {
      "midi": 43,
      "hit": false,
      "t": 445193.75,
      "d": 531.25,
      "v": 48
    },
    {
      "midi": 42,
      "hit": false,
      "t": 445796.25,
      "d": 531.25,
      "v": 48
    },
    {
      "midi": 74,
      "hit": false,
      "t": 445796.25,
      "d": 562.5,
      "v": 67
    },
    {
      "midi": 66,
      "hit": false,
      "t": 445796.25,
      "d": 566.25,
      "v": 64
    },
    {
      "midi": 71,
      "hit": false,
      "t": 445796.25,
      "d": 578.75,
      "v": 64
    },
    {
      "midi": 69,
      "hit": false,
      "t": 445796.25,
      "d": 591.25,
      "v": 73
    },
    {
      "midi": 71,
      "hit": false,
      "t": 446387.5,
      "d": 868.75,
      "v": 82
    },
    {
      "midi": 40,
      "hit": false,
      "t": 446390,
      "d": 578.75,
      "v": 48
    },
    {
      "midi": 76,
      "hit": false,
      "t": 446393.75,
      "d": 893.75,
      "v": 82
    },
    {
      "midi": 67,
      "hit": false,
      "t": 446396.25,
      "d": 843.75,
      "v": 64
    },
    {
      "midi": 52,
      "hit": false,
      "t": 446993.75,
      "d": 293.75,
      "v": 45
    },
    {
      "midi": 40,
      "hit": false,
      "t": 447296.25,
      "d": 197.5,
      "v": 44
    },
    {
      "midi": 66,
      "hit": false,
      "t": 447296.25,
      "d": 278.75,
      "v": 73
    },
    {
      "midi": 67,
      "hit": false,
      "t": 447568.75,
      "d": 533.75,
      "v": 64
    },
    {
      "midi": 40,
      "hit": false,
      "t": 447593.75,
      "d": 1125,
      "v": 48
    },
    {
      "midi": 67,
      "hit": false,
      "t": 448200,
      "d": 496.25,
      "v": 60
    },
    {
      "midi": 74,
      "hit": false,
      "t": 448200,
      "d": 500,
      "v": 64
    },
    {
      "midi": 64,
      "hit": false,
      "t": 448208.75,
      "d": 481.25,
      "v": 64
    },
    {
      "midi": 71,
      "hit": false,
      "t": 448215,
      "d": 491.25,
      "v": 64
    },
    {
      "midi": 47,
      "hit": false,
      "t": 448790,
      "d": 578.75,
      "v": 48
    },
    {
      "midi": 74,
      "hit": false,
      "t": 448796.25,
      "d": 537.5,
      "v": 70
    },
    {
      "midi": 69,
      "hit": false,
      "t": 448796.25,
      "d": 543.75,
      "v": 64
    },
    {
      "midi": 66,
      "hit": false,
      "t": 448796.25,
      "d": 556.25,
      "v": 64
    },
    {
      "midi": 71,
      "hit": false,
      "t": 448796.25,
      "d": 581.25,
      "v": 82
    },
    {
      "midi": 59,
      "hit": false,
      "t": 449393.75,
      "d": 293.75,
      "v": 45
    },
    {
      "midi": 74,
      "hit": false,
      "t": 449400,
      "d": 290,
      "v": 82
    },
    {
      "midi": 69,
      "hit": false,
      "t": 449406.25,
      "d": 1150,
      "v": 60
    },
    {
      "midi": 76,
      "hit": false,
      "t": 449690,
      "d": 341.25,
      "v": 68
    },
    {
      "midi": 47,
      "hit": false,
      "t": 449696.25,
      "d": 197.5,
      "v": 44
    },
    {
      "midi": 78,
      "hit": false,
      "t": 449993.75,
      "d": 677.5,
      "v": 59
    },
    {
      "midi": 47,
      "hit": false,
      "t": 449993.75,
      "d": 1125,
      "v": 48
    },
    {
      "midi": 76,
      "hit": false,
      "t": 450290,
      "d": 337.5,
      "v": 70
    },
    {
      "midi": 74,
      "hit": false,
      "t": 450581.25,
      "d": 537.5,
      "v": 64
    },
    {
      "midi": 69,
      "hit": false,
      "t": 450587.5,
      "d": 515,
      "v": 60
    },
    {
      "midi": 45,
      "hit": false,
      "t": 451190,
      "d": 578.75,
      "v": 48
    },
    {
      "midi": 72,
      "hit": false,
      "t": 451190,
      "d": 1693.75,
      "v": 82
    },
    {
      "midi": 76,
      "hit": false,
      "t": 451196.25,
      "d": 1687.5,
      "v": 73
    },
    {
      "midi": 69,
      "hit": false,
      "t": 451200,
      "d": 1687.5,
      "v": 64
    },
    {
      "midi": 57,
      "hit": false,
      "t": 451793.75,
      "d": 293.75,
      "v": 45
    },
    {
      "midi": 45,
      "hit": false,
      "t": 452096.25,
      "d": 197.5,
      "v": 44
    },
    {
      "midi": 45,
      "hit": false,
      "t": 452393.75,
      "d": 1125,
      "v": 48
    },
    {
      "midi": 72,
      "hit": false,
      "t": 452996.25,
      "d": 385,
      "v": 82
    },
    {
      "midi": 69,
      "hit": false,
      "t": 452996.25,
      "d": 403.75,
      "v": 64
    },
    {
      "midi": 76,
      "hit": false,
      "t": 452996.25,
      "d": 431.25,
      "v": 64
    },
    {
      "midi": 38,
      "hit": false,
      "t": 453590,
      "d": 578.75,
      "v": 48
    },
    {
      "midi": 74,
      "hit": false,
      "t": 453593.75,
      "d": 252.5,
      "v": 73
    },
    {
      "midi": 69,
      "hit": false,
      "t": 453596.25,
      "d": 247.5,
      "v": 73
    },
    {
      "midi": 66,
      "hit": false,
      "t": 453596.25,
      "d": 322.5,
      "v": 64
    },
    {
      "midi": 74,
      "hit": false,
      "t": 453877.5,
      "d": 241.25,
      "v": 52
    },
    {
      "midi": 69,
      "hit": false,
      "t": 453893.75,
      "d": 218.75,
      "v": 48
    },
    {
      "midi": 69,
      "hit": false,
      "t": 454175,
      "d": 281.25,
      "v": 64
    },
    {
      "midi": 74,
      "hit": false,
      "t": 454181.25,
      "d": 315,
      "v": 82
    },
    {
      "midi": 50,
      "hit": false,
      "t": 454193.75,
      "d": 293.75,
      "v": 45
    },
    {
      "midi": 78,
      "hit": false,
      "t": 454493.75,
      "d": 712.5,
      "v": 64
    },
    {
      "midi": 38,
      "hit": false,
      "t": 454496.25,
      "d": 197.5,
      "v": 44
    },
    {
      "midi": 76,
      "hit": false,
      "t": 454496.25,
      "d": 737.5,
      "v": 82
    },
    {
      "midi": 69,
      "hit": false,
      "t": 454496.25,
      "d": 743.75,
      "v": 60
    },
    {
      "midi": 38,
      "hit": false,
      "t": 454793.75,
      "d": 1125,
      "v": 48
    },
    {
      "midi": 74,
      "hit": false,
      "t": 455375,
      "d": 571.25,
      "v": 82
    },
    {
      "midi": 69,
      "hit": false,
      "t": 455377.5,
      "d": 575,
      "v": 64
    },
    {
      "midi": 43,
      "hit": false,
      "t": 455990,
      "d": 578.75,
      "v": 48
    },
    {
      "midi": 67,
      "hit": false,
      "t": 455990,
      "d": 816.25,
      "v": 60
    },
    {
      "midi": 79,
      "hit": false,
      "t": 455990,
      "d": 847.5,
      "v": 64
    },
    {
      "midi": 74,
      "hit": false,
      "t": 455990,
      "d": 868.75,
      "v": 73
    },
    {
      "midi": 55,
      "hit": false,
      "t": 456593.75,
      "d": 293.75,
      "v": 45
    },
    {
      "midi": 43,
      "hit": false,
      "t": 456896.25,
      "d": 197.5,
      "v": 44
    },
    {
      "midi": 79,
      "hit": false,
      "t": 456896.25,
      "d": 206.25,
      "v": 56
    },
    {
      "midi": 74,
      "hit": false,
      "t": 456896.25,
      "d": 253.75,
      "v": 56
    },
    {
      "midi": 67,
      "hit": false,
      "t": 456900,
      "d": 215,
      "v": 48
    },
    {
      "midi": 43,
      "hit": false,
      "t": 457193.75,
      "d": 1125,
      "v": 48
    },
    {
      "midi": 67,
      "hit": false,
      "t": 457196.25,
      "d": 1131.25,
      "v": 60
    },
    {
      "midi": 74,
      "hit": false,
      "t": 457196.25,
      "d": 1141.25,
      "v": 73
    },
    {
      "midi": 79,
      "hit": false,
      "t": 457196.25,
      "d": 1162.5,
      "v": 73
    },
    {
      "midi": 64,
      "hit": false,
      "t": 457787.5,
      "d": 590,
      "v": 71
    },
    {
      "midi": 59,
      "hit": false,
      "t": 457796.25,
      "d": 597.5,
      "v": 60
    },
    {
      "midi": 67,
      "hit": false,
      "t": 458383.75,
      "d": 556.25,
      "v": 64
    },
    {
      "midi": 60,
      "hit": false,
      "t": 458387.5,
      "d": 943.75,
      "v": 73
    },
    {
      "midi": 43,
      "hit": false,
      "t": 458390,
      "d": 578.75,
      "v": 48
    },
    {
      "midi": 65,
      "hit": false,
      "t": 458390,
      "d": 947.5,
      "v": 73
    },
    {
      "midi": 57,
      "hit": false,
      "t": 458393.75,
      "d": 931.25,
      "v": 60
    },
    {
      "midi": 77,
      "hit": false,
      "t": 458968.75,
      "d": 1208.75,
      "v": 64
    },
    {
      "midi": 67,
      "hit": false,
      "t": 458975,
      "d": 1156.25,
      "v": 56
    },
    {
      "midi": 69,
      "hit": false,
      "t": 458977.5,
      "d": 1160,
      "v": 56
    },
    {
      "midi": 55,
      "hit": false,
      "t": 458993.75,
      "d": 293.75,
      "v": 45
    },
    {
      "midi": 43,
      "hit": false,
      "t": 459296.25,
      "d": 197.5,
      "v": 44
    },
    {
      "midi": 43,
      "hit": false,
      "t": 459593.75,
      "d": 1125,
      "v": 48
    },
    {
      "midi": 79,
      "hit": false,
      "t": 460196.25,
      "d": 641.25,
      "v": 73
    },
    {
      "midi": 76,
      "hit": false,
      "t": 460490,
      "d": 287.5,
      "v": 56
    },
    {
      "midi": 76,
      "hit": false,
      "t": 460787.5,
      "d": 531.25,
      "v": 64
    },
    {
      "midi": 72,
      "hit": false,
      "t": 460787.5,
      "d": 543.75,
      "v": 73
    },
    {
      "midi": 36,
      "hit": false,
      "t": 460790,
      "d": 578.75,
      "v": 48
    },
    {
      "midi": 67,
      "hit": false,
      "t": 460796.25,
      "d": 2028.75,
      "v": 64
    },
    {
      "midi": 72,
      "hit": false,
      "t": 461387.5,
      "d": 556.25,
      "v": 64
    },
    {
      "midi": 48,
      "hit": false,
      "t": 461393.75,
      "d": 293.75,
      "v": 45
    },
    {
      "midi": 76,
      "hit": false,
      "t": 461400,
      "d": 1452.5,
      "v": 64
    },
    {
      "midi": 36,
      "hit": false,
      "t": 461696.25,
      "d": 197.5,
      "v": 44
    },
    {
      "midi": 36,
      "hit": false,
      "t": 461993.75,
      "d": 1125,
      "v": 48
    },
    {
      "midi": 74,
      "hit": false,
      "t": 461996.25,
      "d": 825,
      "v": 73
    },
    {
      "midi": 72,
      "hit": false,
      "t": 462337.5,
      "d": 458.75,
      "v": 44
    },
    {
      "midi": 69,
      "hit": false,
      "t": 462912.5,
      "d": 283.75,
      "v": 48
    },
    {
      "midi": 73,
      "hit": false,
      "t": 463175,
      "d": 1175,
      "v": 64
    },
    {
      "midi": 45,
      "hit": false,
      "t": 463190,
      "d": 578.75,
      "v": 48
    },
    {
      "midi": 76,
      "hit": false,
      "t": 463190,
      "d": 1141.25,
      "v": 73
    },
    {
      "midi": 67,
      "hit": false,
      "t": 463196.25,
      "d": 1153.75,
      "v": 73
    },
    {
      "midi": 57,
      "hit": false,
      "t": 463793.75,
      "d": 293.75,
      "v": 45
    },
    {
      "midi": 45,
      "hit": false,
      "t": 464096.25,
      "d": 197.5,
      "v": 44
    },
    {
      "midi": 45,
      "hit": false,
      "t": 464393.75,
      "d": 1125,
      "v": 48
    },
    {
      "midi": 76,
      "hit": false,
      "t": 464393.75,
      "d": 1165,
      "v": 64
    },
    {
      "midi": 71,
      "hit": false,
      "t": 464396.25,
      "d": 341.25,
      "v": 73
    },
    {
      "midi": 69,
      "hit": false,
      "t": 464662.5,
      "d": 865,
      "v": 49
    },
    {
      "midi": 72,
      "hit": false,
      "t": 465583.75,
      "d": 250,
      "v": 56
    },
    {
      "midi": 69,
      "hit": false,
      "t": 465590,
      "d": 247.5,
      "v": 48
    },
    {
      "midi": 45,
      "hit": false,
      "t": 465590,
      "d": 578.75,
      "v": 48
    },
    {
      "midi": 76,
      "hit": false,
      "t": 465593.75,
      "d": 215,
      "v": 32
    },
    {
      "midi": 72,
      "hit": false,
      "t": 465890,
      "d": 506.25,
      "v": 64
    },
    {
      "midi": 69,
      "hit": false,
      "t": 465893.75,
      "d": 490,
      "v": 60
    },
    {
      "midi": 76,
      "hit": false,
      "t": 465896.25,
      "d": 460,
      "v": 64
    },
    {
      "midi": 57,
      "hit": false,
      "t": 466193.75,
      "d": 293.75,
      "v": 45
    },
    {
      "midi": 72,
      "hit": false,
      "t": 466487.5,
      "d": 831.25,
      "v": 73
    },
    {
      "midi": 69,
      "hit": false,
      "t": 466493.75,
      "d": 827.5,
      "v": 60
    },
    {
      "midi": 45,
      "hit": false,
      "t": 466496.25,
      "d": 197.5,
      "v": 44
    },
    {
      "midi": 76,
      "hit": false,
      "t": 466496.25,
      "d": 781.25,
      "v": 64
    },
    {
      "midi": 45,
      "hit": false,
      "t": 466793.75,
      "d": 1125,
      "v": 48
    },
    {
      "midi": 76,
      "hit": false,
      "t": 467396.25,
      "d": 418.75,
      "v": 64
    },
    {
      "midi": 69,
      "hit": false,
      "t": 467396.25,
      "d": 493.75,
      "v": 64
    },
    {
      "midi": 72,
      "hit": false,
      "t": 467396.25,
      "d": 506.25,
      "v": 73
    },
    {
      "midi": 38,
      "hit": false,
      "t": 467990,
      "d": 578.75,
      "v": 48
    },
    {
      "midi": 74,
      "hit": false,
      "t": 467996.25,
      "d": 541.25,
      "v": 64
    },
    {
      "midi": 66,
      "hit": false,
      "t": 467996.25,
      "d": 547.5,
      "v": 56
    },
    {
      "midi": 69,
      "hit": false,
      "t": 467996.25,
      "d": 585,
      "v": 64
    },
    {
      "midi": 50,
      "hit": false,
      "t": 468593.75,
      "d": 293.75,
      "v": 45
    },
    {
      "midi": 74,
      "hit": false,
      "t": 468596.25,
      "d": 918.75,
      "v": 64
    },
    {
      "midi": 69,
      "hit": false,
      "t": 468596.25,
      "d": 928.75,
      "v": 60
    },
    {
      "midi": 66,
      "hit": false,
      "t": 468596.25,
      "d": 956.25,
      "v": 64
    },
    {
      "midi": 38,
      "hit": false,
      "t": 468896.25,
      "d": 197.5,
      "v": 44
    },
    {
      "midi": 38,
      "hit": false,
      "t": 469193.75,
      "d": 1125,
      "v": 48
    },
    {
      "midi": 69,
      "hit": false,
      "t": 469796.25,
      "d": 568.75,
      "v": 60
    },
    {
      "midi": 66,
      "hit": false,
      "t": 469796.25,
      "d": 578.75,
      "v": 64
    },
    {
      "midi": 74,
      "hit": false,
      "t": 469796.25,
      "d": 585,
      "v": 56
    },
    {
      "midi": 43,
      "hit": false,
      "t": 470393.75,
      "d": 2283.75,
      "v": 48
    },
    {
      "midi": 79,
      "hit": false,
      "t": 470400,
      "d": 240,
      "v": 73
    },
    {
      "midi": 86,
      "hit": false,
      "t": 470400,
      "d": 240,
      "v": 82
    },
    {
      "midi": 83,
      "hit": false,
      "t": 470687.5,
      "d": 1187.5,
      "v": 64
    },
    {
      "midi": 81,
      "hit": false,
      "t": 472175,
      "d": 281.25,
      "v": 73
    },
    {
      "midi": 86,
      "hit": false,
      "t": 472181.25,
      "d": 587.5,
      "v": 64
    },
    {
      "midi": 79,
      "hit": false,
      "t": 472500,
      "d": 243.75,
      "v": 31
    },
    {
      "midi": 78,
      "hit": false,
      "t": 472783.75,
      "d": 1735,
      "v": 64
    },
    {
      "midi": 86,
      "hit": false,
      "t": 472787.5,
      "d": 302.5,
      "v": 64
    },
    {
      "midi": 43,
      "hit": false,
      "t": 472793.75,
      "d": 2283.75,
      "v": 48
    },
    {
      "midi": 83,
      "hit": false,
      "t": 473071.25,
      "d": 1397.5,
      "v": 48
    },
    {
      "midi": 81,
      "hit": false,
      "t": 474583.75,
      "d": 285,
      "v": 73
    },
    {
      "midi": 86,
      "hit": false,
      "t": 474593.75,
      "d": 571.25,
      "v": 73
    },
    {
      "midi": 79,
      "hit": false,
      "t": 474881.25,
      "d": 281.25,
      "v": 44
    },
    {
      "midi": 74,
      "hit": false,
      "t": 475190,
      "d": 372.5,
      "v": 82
    },
    {
      "midi": 45,
      "hit": false,
      "t": 475190,
      "d": 578.75,
      "v": 48
    },
    {
      "midi": 79,
      "hit": false,
      "t": 475193.75,
      "d": 787.5,
      "v": 64
    },
    {
      "midi": 76,
      "hit": false,
      "t": 475487.5,
      "d": 533.75,
      "v": 44
    },
    {
      "midi": 57,
      "hit": false,
      "t": 475793.75,
      "d": 293.75,
      "v": 45
    },
    {
      "midi": 72,
      "hit": false,
      "t": 476087.5,
      "d": 831.25,
      "v": 73
    },
    {
      "midi": 69,
      "hit": false,
      "t": 476093.75,
      "d": 827.5,
      "v": 60
    },
    {
      "midi": 45,
      "hit": false,
      "t": 476096.25,
      "d": 197.5,
      "v": 44
    },
    {
      "midi": 76,
      "hit": false,
      "t": 476096.25,
      "d": 781.25,
      "v": 64
    },
    {
      "midi": 45,
      "hit": false,
      "t": 476393.75,
      "d": 1125,
      "v": 48
    },
    {
      "midi": 76,
      "hit": false,
      "t": 476996.25,
      "d": 418.75,
      "v": 64
    },
    {
      "midi": 69,
      "hit": false,
      "t": 476996.25,
      "d": 493.75,
      "v": 64
    },
    {
      "midi": 72,
      "hit": false,
      "t": 476996.25,
      "d": 506.25,
      "v": 73
    },
    {
      "midi": 38,
      "hit": false,
      "t": 477590,
      "d": 578.75,
      "v": 48
    },
    {
      "midi": 74,
      "hit": false,
      "t": 477596.25,
      "d": 541.25,
      "v": 64
    },
    {
      "midi": 66,
      "hit": false,
      "t": 477596.25,
      "d": 547.5,
      "v": 56
    },
    {
      "midi": 69,
      "hit": false,
      "t": 477596.25,
      "d": 585,
      "v": 64
    },
    {
      "midi": 50,
      "hit": false,
      "t": 478193.75,
      "d": 293.75,
      "v": 45
    },
    {
      "midi": 38,
      "hit": false,
      "t": 478496.25,
      "d": 197.5,
      "v": 44
    },
    {
      "midi": 38,
      "hit": false,
      "t": 478793.75,
      "d": 1125,
      "v": 48
    },
    {
      "midi": 66,
      "hit": false,
      "t": 478802.5,
      "d": 460,
      "v": 36
    },
    {
      "midi": 66,
      "hit": false,
      "t": 479381.25,
      "d": 627.5,
      "v": 56
    },
    {
      "midi": 69,
      "hit": false,
      "t": 479383.75,
      "d": 618.75,
      "v": 64
    },
    {
      "midi": 74,
      "hit": false,
      "t": 479383.75,
      "d": 641.25,
      "v": 73
    },
    {
      "midi": 43,
      "hit": false,
      "t": 479993.75,
      "d": 2283.75,
      "v": 48
    },
    {
      "midi": 79,
      "hit": false,
      "t": 480000,
      "d": 240,
      "v": 73
    },
    {
      "midi": 86,
      "hit": false,
      "t": 480000,
      "d": 240,
      "v": 82
    },
    {
      "midi": 83,
      "hit": false,
      "t": 480287.5,
      "d": 1187.5,
      "v": 64
    },
    {
      "midi": 81,
      "hit": false,
      "t": 481775,
      "d": 281.25,
      "v": 73
    },
    {
      "midi": 86,
      "hit": false,
      "t": 481781.25,
      "d": 587.5,
      "v": 64
    },
    {
      "midi": 79,
      "hit": false,
      "t": 482100,
      "d": 243.75,
      "v": 31
    },
    {
      "midi": 78,
      "hit": false,
      "t": 482383.75,
      "d": 1735,
      "v": 64
    },
    {
      "midi": 86,
      "hit": false,
      "t": 482387.5,
      "d": 302.5,
      "v": 64
    },
    {
      "midi": 43,
      "hit": false,
      "t": 482393.75,
      "d": 2283.75,
      "v": 48
    },
    {
      "midi": 83,
      "hit": false,
      "t": 482671.25,
      "d": 1397.5,
      "v": 48
    },
    {
      "midi": 81,
      "hit": false,
      "t": 484183.75,
      "d": 285,
      "v": 73
    },
    {
      "midi": 86,
      "hit": false,
      "t": 484193.75,
      "d": 571.25,
      "v": 73
    },
    {
      "midi": 79,
      "hit": false,
      "t": 484481.25,
      "d": 281.25,
      "v": 44
    },
    {
      "midi": 74,
      "hit": false,
      "t": 484790,
      "d": 372.5,
      "v": 82
    },
    {
      "midi": 45,
      "hit": false,
      "t": 484790,
      "d": 578.75,
      "v": 48
    },
    {
      "midi": 79,
      "hit": false,
      "t": 484793.75,
      "d": 787.5,
      "v": 64
    },
    {
      "midi": 76,
      "hit": false,
      "t": 485087.5,
      "d": 533.75,
      "v": 44
    },
    {
      "midi": 57,
      "hit": false,
      "t": 485393.75,
      "d": 293.75,
      "v": 45
    },
    {
      "midi": 72,
      "hit": false,
      "t": 485687.5,
      "d": 831.25,
      "v": 73
    },
    {
      "midi": 69,
      "hit": false,
      "t": 485693.75,
      "d": 827.5,
      "v": 60
    },
    {
      "midi": 45,
      "hit": false,
      "t": 485696.25,
      "d": 197.5,
      "v": 44
    },
    {
      "midi": 76,
      "hit": false,
      "t": 485696.25,
      "d": 781.25,
      "v": 64
    },
    {
      "midi": 45,
      "hit": false,
      "t": 485993.75,
      "d": 1125,
      "v": 48
    },
    {
      "midi": 76,
      "hit": false,
      "t": 486596.25,
      "d": 418.75,
      "v": 64
    },
    {
      "midi": 69,
      "hit": false,
      "t": 486596.25,
      "d": 493.75,
      "v": 64
    },
    {
      "midi": 72,
      "hit": false,
      "t": 486596.25,
      "d": 506.25,
      "v": 73
    },
    {
      "midi": 38,
      "hit": false,
      "t": 487190,
      "d": 578.75,
      "v": 48
    },
    {
      "midi": 74,
      "hit": false,
      "t": 487196.25,
      "d": 541.25,
      "v": 64
    },
    {
      "midi": 66,
      "hit": false,
      "t": 487196.25,
      "d": 547.5,
      "v": 56
    },
    {
      "midi": 69,
      "hit": false,
      "t": 487196.25,
      "d": 585,
      "v": 64
    },
    {
      "midi": 50,
      "hit": false,
      "t": 487793.75,
      "d": 293.75,
      "v": 45
    },
    {
      "midi": 38,
      "hit": false,
      "t": 488096.25,
      "d": 197.5,
      "v": 44
    },
    {
      "midi": 38,
      "hit": false,
      "t": 488393.75,
      "d": 1125,
      "v": 48
    },
    {
      "midi": 66,
      "hit": false,
      "t": 488402.5,
      "d": 460,
      "v": 36
    },
    {
      "midi": 66,
      "hit": false,
      "t": 488981.25,
      "d": 627.5,
      "v": 56
    },
    {
      "midi": 69,
      "hit": false,
      "t": 488983.75,
      "d": 618.75,
      "v": 64
    },
    {
      "midi": 74,
      "hit": false,
      "t": 488983.75,
      "d": 641.25,
      "v": 73
    },
    {
      "midi": 79,
      "hit": false,
      "t": 489593.75,
      "d": 240,
      "v": 73
    },
    {
      "midi": 86,
      "hit": false,
      "t": 489593.75,
      "d": 240,
      "v": 82
    },
    {
      "midi": 43,
      "hit": false,
      "t": 489593.75,
      "d": 2283.75,
      "v": 48
    },
    {
      "midi": 83,
      "hit": false,
      "t": 489887.5,
      "d": 1187.5,
      "v": 64
    },
    {
      "midi": 81,
      "hit": false,
      "t": 491375,
      "d": 281.25,
      "v": 73
    },
    {
      "midi": 86,
      "hit": false,
      "t": 491381.25,
      "d": 587.5,
      "v": 64
    },
    {
      "midi": 79,
      "hit": false,
      "t": 491700,
      "d": 243.75,
      "v": 31
    },
    {
      "midi": 78,
      "hit": false,
      "t": 491983.75,
      "d": 1141.25,
      "v": 64
    },
    {
      "midi": 86,
      "hit": false,
      "t": 491987.5,
      "d": 302.5,
      "v": 64
    },
    {
      "midi": 43,
      "hit": false,
      "t": 491993.75,
      "d": 2283.75,
      "v": 48
    },
    {
      "midi": 83,
      "hit": false,
      "t": 492271.25,
      "d": 1397.5,
      "v": 48
    },
    {
      "midi": 78,
      "hit": false,
      "t": 493190,
      "d": 253.75,
      "v": 82
    },
    {
      "midi": 71,
      "hit": false,
      "t": 493193.75,
      "d": 450,
      "v": 46
    },
    {
      "midi": 79,
      "hit": false,
      "t": 493477.5,
      "d": 197.5,
      "v": 48
    },
    {
      "midi": 78,
      "hit": false,
      "t": 493790,
      "d": 275,
      "v": 64
    },
    {
      "midi": 76,
      "hit": false,
      "t": 494081.25,
      "d": 1143.75,
      "v": 64
    },
    {
      "midi": 72,
      "hit": false,
      "t": 494096.25,
      "d": 1100,
      "v": 73
    },
    {
      "midi": 45,
      "hit": false,
      "t": 494390,
      "d": 578.75,
      "v": 48
    },
    {
      "midi": 57,
      "hit": false,
      "t": 494993.75,
      "d": 293.75,
      "v": 45
    },
    {
      "midi": 72,
      "hit": false,
      "t": 495287.5,
      "d": 831.25,
      "v": 73
    },
    {
      "midi": 69,
      "hit": false,
      "t": 495293.75,
      "d": 827.5,
      "v": 60
    },
    {
      "midi": 45,
      "hit": false,
      "t": 495296.25,
      "d": 197.5,
      "v": 44
    },
    {
      "midi": 76,
      "hit": false,
      "t": 495296.25,
      "d": 781.25,
      "v": 64
    },
    {
      "midi": 45,
      "hit": false,
      "t": 495593.75,
      "d": 1125,
      "v": 48
    },
    {
      "midi": 76,
      "hit": false,
      "t": 496196.25,
      "d": 418.75,
      "v": 64
    },
    {
      "midi": 69,
      "hit": false,
      "t": 496196.25,
      "d": 493.75,
      "v": 64
    },
    {
      "midi": 72,
      "hit": false,
      "t": 496196.25,
      "d": 506.25,
      "v": 73
    },
    {
      "midi": 38,
      "hit": false,
      "t": 496790,
      "d": 578.75,
      "v": 48
    },
    {
      "midi": 74,
      "hit": false,
      "t": 496796.25,
      "d": 541.25,
      "v": 64
    },
    {
      "midi": 66,
      "hit": false,
      "t": 496796.25,
      "d": 547.5,
      "v": 56
    },
    {
      "midi": 69,
      "hit": false,
      "t": 496796.25,
      "d": 585,
      "v": 64
    },
    {
      "midi": 50,
      "hit": false,
      "t": 497393.75,
      "d": 293.75,
      "v": 45
    },
    {
      "midi": 38,
      "hit": false,
      "t": 497696.25,
      "d": 197.5,
      "v": 44
    },
    {
      "midi": 38,
      "hit": false,
      "t": 497993.75,
      "d": 1125,
      "v": 48
    },
    {
      "midi": 66,
      "hit": false,
      "t": 498000,
      "d": 458.75,
      "v": 36
    },
    {
      "midi": 66,
      "hit": false,
      "t": 498581.25,
      "d": 565,
      "v": 56
    },
    {
      "midi": 69,
      "hit": false,
      "t": 498583.75,
      "d": 525,
      "v": 64
    },
    {
      "midi": 74,
      "hit": false,
      "t": 498583.75,
      "d": 578.75,
      "v": 73
    },
    {
      "midi": 67,
      "hit": false,
      "t": 499165,
      "d": 1075,
      "v": 31
    },
    {
      "midi": 71,
      "hit": false,
      "t": 499262.5,
      "d": 1071.25,
      "v": 48
    },
    {
      "midi": 74,
      "hit": false,
      "t": 499275,
      "d": 1083.75,
      "v": 52
    },
    {
      "midi": 79,
      "hit": false,
      "t": 499356.25,
      "d": 977.5,
      "v": 48
    },
    {
      "midi": 67,
      "hit": false,
      "t": 500312.5,
      "d": 1727.5,
      "v": 30
    },
    {
      "midi": 72,
      "hit": false,
      "t": 500427.5,
      "d": 1610,
      "v": 44
    },
    {
      "midi": 76,
      "hit": false,
      "t": 500440,
      "d": 1587.5,
      "v": 52
    },
    {
      "midi": 79,
      "hit": false,
      "t": 500521.25,
      "d": 1537.5,
      "v": 44
    },
    {
      "midi": 67,
      "hit": false,
      "t": 502200,
      "d": 2912.5,
      "v": 60
    },
    {
      "midi": 71,
      "hit": false,
      "t": 502312.5,
      "d": 2831.25,
      "v": 48
    },
    {
      "midi": 74,
      "hit": false,
      "t": 502443.75,
      "d": 2718.75,
      "v": 44
    },
    {
      "midi": 79,
      "hit": false,
      "t": 502550,
      "d": 2612.5,
      "v": 51
    }
  ]
}