{
  "jsonPath": "Jazz/Gypsy Jazz/Vignola/silver-and-gold.json",
  "path": "Jazz\\Gypsy Jazz\\Vignola\\Silver and Gold.mid",
  "name": "Silver and Gold",
  "difficulty": "Advanced",
  "bpm": 55.00000458333371,
  "notes": [
    {
      "midi": 65,
      "hit": false,
      "t": 1096.5908177083334,
      "d": 1284.0908020833335,
      "v": 96
    },
    {
      "midi": 61,
      "hit": false,
      "t": 1096.5908177083334,
      "d": 1295.4544375,
      "v": 94
    },
    {
      "midi": 49,
      "hit": false,
      "t": 1096.5908177083334,
      "d": 2090.9089166666668,
      "v": 112
    },
    {
      "midi": 56,
      "hit": false,
      "t": 1096.5908177083334,
      "d": 2136.3634583333337,
      "v": 112
    },
    {
      "midi": 37,
      "hit": false,
      "t": 2187.4998177083335,
      "d": 647.7272187500002,
      "v": 112
    },
    {
      "midi": 68,
      "hit": false,
      "t": 2551.136151041667,
      "d": 659.0908541666668,
      "v": 112
    },
    {
      "midi": 61,
      "hit": false,
      "t": 2551.136151041667,
      "d": 681.8181250000002,
      "v": 112
    },
    {
      "midi": 37,
      "hit": false,
      "t": 2914.772484375,
      "d": 352.27269791666686,
      "v": 87
    },
    {
      "midi": 60,
      "hit": false,
      "t": 3278.4088177083336,
      "d": 2068.1816458333337,
      "v": 112
    },
    {
      "midi": 68,
      "hit": false,
      "t": 3278.4088177083336,
      "d": 2102.272552083334,
      "v": 112
    },
    {
      "midi": 63,
      "hit": false,
      "t": 3278.4088177083336,
      "d": 2136.3634583333346,
      "v": 112
    },
    {
      "midi": 48,
      "hit": false,
      "t": 3278.4088177083336,
      "d": 2159.0907291666676,
      "v": 94
    },
    {
      "midi": 46,
      "hit": false,
      "t": 5460.226817708334,
      "d": 1011.3635520833332,
      "v": 89
    },
    {
      "midi": 61,
      "hit": false,
      "t": 5460.226817708334,
      "d": 1363.6362499999996,
      "v": 99
    },
    {
      "midi": 65,
      "hit": false,
      "t": 5460.226817708334,
      "d": 1363.6362499999996,
      "v": 99
    },
    {
      "midi": 58,
      "hit": false,
      "t": 5460.226817708334,
      "d": 1374.999885416666,
      "v": 106
    },
    {
      "midi": 46,
      "hit": false,
      "t": 6551.135817708334,
      "d": 1045.4544583333327,
      "v": 106
    },
    {
      "midi": 58,
      "hit": false,
      "t": 6914.772151041667,
      "d": 659.0908541666668,
      "v": 79
    },
    {
      "midi": 61,
      "hit": false,
      "t": 6914.772151041667,
      "d": 670.4544895833333,
      "v": 112
    },
    {
      "midi": 65,
      "hit": false,
      "t": 6914.772151041667,
      "d": 670.4544895833333,
      "v": 106
    },
    {
      "midi": 56,
      "hit": false,
      "t": 7642.0448177083335,
      "d": 988.6362812500001,
      "v": 94
    },
    {
      "midi": 65,
      "hit": false,
      "t": 7642.0448177083335,
      "d": 988.6362812500001,
      "v": 94
    },
    {
      "midi": 44,
      "hit": false,
      "t": 7642.0448177083335,
      "d": 1011.3635520833332,
      "v": 94
    },
    {
      "midi": 61,
      "hit": false,
      "t": 7642.0448177083335,
      "d": 1011.3635520833332,
      "v": 112
    },
    {
      "midi": 65,
      "hit": false,
      "t": 8732.953817708334,
      "d": 249.9999791666669,
      "v": 99
    },
    {
      "midi": 44,
      "hit": false,
      "t": 8732.953817708334,
      "d": 272.7272499999999,
      "v": 103
    },
    {
      "midi": 56,
      "hit": false,
      "t": 8732.953817708334,
      "d": 272.7272499999999,
      "v": 89
    },
    {
      "midi": 61,
      "hit": false,
      "t": 8732.953817708334,
      "d": 284.0908854166664,
      "v": 106
    },
    {
      "midi": 61,
      "hit": false,
      "t": 9460.226484375,
      "d": 227.27270833333387,
      "v": 112
    },
    {
      "midi": 53,
      "hit": false,
      "t": 9460.226484375,
      "d": 295.45452083333475,
      "v": 99
    },
    {
      "midi": 65,
      "hit": false,
      "t": 9460.226484375,
      "d": 340.9090625000008,
      "v": 112
    },
    {
      "midi": 41,
      "hit": false,
      "t": 9460.226484375,
      "d": 352.2726979166673,
      "v": 112
    },
    {
      "midi": 42,
      "hit": false,
      "t": 9823.862817708334,
      "d": 1363.6362499999996,
      "v": 112
    },
    {
      "midi": 54,
      "hit": false,
      "t": 9823.862817708334,
      "d": 1738.63621875,
      "v": 99
    },
    {
      "midi": 58,
      "hit": false,
      "t": 9823.862817708334,
      "d": 1749.9998541666664,
      "v": 103
    },
    {
      "midi": 61,
      "hit": false,
      "t": 9823.862817708334,
      "d": 1761.363489583333,
      "v": 112
    },
    {
      "midi": 42,
      "hit": false,
      "t": 11278.408151041667,
      "d": 727.2726666666658,
      "v": 112
    },
    {
      "midi": 61,
      "hit": false,
      "t": 11642.044484375,
      "d": 329.5454270833343,
      "v": 91
    },
    {
      "midi": 54,
      "hit": false,
      "t": 11642.044484375,
      "d": 340.9090625000008,
      "v": 94
    },
    {
      "midi": 58,
      "hit": false,
      "t": 11642.044484375,
      "d": 340.9090625000008,
      "v": 112
    },
    {
      "midi": 61,
      "hit": false,
      "t": 12005.680817708333,
      "d": 1340.9089791666665,
      "v": 112
    },
    {
      "midi": 54,
      "hit": false,
      "t": 12005.680817708333,
      "d": 1352.272614583333,
      "v": 87
    },
    {
      "midi": 58,
      "hit": false,
      "t": 12005.680817708333,
      "d": 1352.272614583333,
      "v": 89
    },
    {
      "midi": 44,
      "hit": false,
      "t": 12005.680817708333,
      "d": 2181.8179999999993,
      "v": 112
    },
    {
      "midi": 61,
      "hit": false,
      "t": 13460.226151041667,
      "d": 590.9090416666677,
      "v": 94
    },
    {
      "midi": 54,
      "hit": false,
      "t": 13460.226151041667,
      "d": 636.3635833333337,
      "v": 99
    },
    {
      "midi": 58,
      "hit": false,
      "t": 13460.226151041667,
      "d": 693.1817604166663,
      "v": 112
    },
    {
      "midi": 63,
      "hit": false,
      "t": 13823.862484375,
      "d": 295.45452083333294,
      "v": 91
    },
    {
      "midi": 65,
      "hit": false,
      "t": 14187.498817708332,
      "d": 965.9090104166662,
      "v": 89
    },
    {
      "midi": 61,
      "hit": false,
      "t": 14187.498817708332,
      "d": 977.2726458333327,
      "v": 112
    },
    {
      "midi": 37,
      "hit": false,
      "t": 14187.498817708332,
      "d": 1522.7271458333344,
      "v": 96
    },
    {
      "midi": 56,
      "hit": false,
      "t": 14187.498817708332,
      "d": 1568.1816875000004,
      "v": 99
    },
    {
      "midi": 61,
      "hit": false,
      "t": 15278.407817708332,
      "d": 920.4544687500002,
      "v": 112
    },
    {
      "midi": 68,
      "hit": false,
      "t": 15278.407817708332,
      "d": 931.8181041666667,
      "v": 112
    },
    {
      "midi": 41,
      "hit": false,
      "t": 15642.044151041666,
      "d": 738.6363020833323,
      "v": 112
    },
    {
      "midi": 56,
      "hit": false,
      "t": 16005.680484375,
      "d": 261.3636145833316,
      "v": 112
    },
    {
      "midi": 54,
      "hit": false,
      "t": 16369.316817708332,
      "d": 329.54542708333247,
      "v": 106
    },
    {
      "midi": 44,
      "hit": false,
      "t": 16369.316817708332,
      "d": 340.909062499999,
      "v": 103
    },
    {
      "midi": 58,
      "hit": false,
      "t": 16369.316817708332,
      "d": 363.636333333332,
      "v": 112
    },
    {
      "midi": 61,
      "hit": false,
      "t": 16369.316817708332,
      "d": 363.636333333332,
      "v": 99
    },
    {
      "midi": 68,
      "hit": false,
      "t": 16369.316817708332,
      "d": 374.9999687499985,
      "v": 112
    },
    {
      "midi": 56,
      "hit": false,
      "t": 18551.13481770833,
      "d": 2079.5452812500007,
      "v": 74
    },
    {
      "midi": 61,
      "hit": false,
      "t": 18551.13481770833,
      "d": 2147.7270937499998,
      "v": 82
    },
    {
      "midi": 49,
      "hit": false,
      "t": 18551.13481770833,
      "d": 2181.8179999999993,
      "v": 106
    },
    {
      "midi": 65,
      "hit": false,
      "t": 18551.13481770833,
      "d": 2181.8179999999993,
      "v": 79
    },
    {
      "midi": 60,
      "hit": false,
      "t": 20732.95281770833,
      "d": 2045.4543750000012,
      "v": 87
    },
    {
      "midi": 56,
      "hit": false,
      "t": 20732.95281770833,
      "d": 2056.8180104166677,
      "v": 84
    },
    {
      "midi": 48,
      "hit": false,
      "t": 20732.95281770833,
      "d": 2170.454364583333,
      "v": 89
    },
    {
      "midi": 63,
      "hit": false,
      "t": 20732.95281770833,
      "d": 2193.181635416666,
      "v": 76
    },
    {
      "midi": 61,
      "hit": false,
      "t": 22914.77081770833,
      "d": 2045.4543750000012,
      "v": 68
    },
    {
      "midi": 53,
      "hit": false,
      "t": 22914.77081770833,
      "d": 2068.181645833334,
      "v": 71
    },
    {
      "midi": 58,
      "hit": false,
      "t": 22914.77081770833,
      "d": 2068.181645833334,
      "v": 87
    },
    {
      "midi": 46,
      "hit": false,
      "t": 22914.77081770833,
      "d": 2170.454364583333,
      "v": 79
    },
    {
      "midi": 56,
      "hit": false,
      "t": 25096.58881770833,
      "d": 1727.2725833333352,
      "v": 96
    },
    {
      "midi": 61,
      "hit": false,
      "t": 25096.58881770833,
      "d": 1863.6362083333333,
      "v": 94
    },
    {
      "midi": 53,
      "hit": false,
      "t": 25096.58881770833,
      "d": 2090.908916666667,
      "v": 65
    },
    {
      "midi": 44,
      "hit": false,
      "t": 25096.58881770833,
      "d": 2215.908906249999,
      "v": 74
    },
    {
      "midi": 56,
      "hit": false,
      "t": 26914.770484374996,
      "d": 306.81815624999945,
      "v": 94
    },
    {
      "midi": 56,
      "hit": false,
      "t": 27278.406817708328,
      "d": 147.72726041666465,
      "v": 94
    },
    {
      "midi": 54,
      "hit": false,
      "t": 27278.406817708328,
      "d": 2079.545281249997,
      "v": 65
    },
    {
      "midi": 58,
      "hit": false,
      "t": 27278.406817708328,
      "d": 2079.545281249997,
      "v": 89
    },
    {
      "midi": 61,
      "hit": false,
      "t": 27278.406817708328,
      "d": 2079.545281249997,
      "v": 103
    },
    {
      "midi": 42,
      "hit": false,
      "t": 27278.406817708328,
      "d": 2124.999822916663,
      "v": 82
    },
    {
      "midi": 54,
      "hit": false,
      "t": 29460.224817708324,
      "d": 2045.4543750000012,
      "v": 68
    },
    {
      "midi": 61,
      "hit": false,
      "t": 29460.224817708324,
      "d": 2079.5452812500007,
      "v": 89
    },
    {
      "midi": 58,
      "hit": false,
      "t": 29460.224817708324,
      "d": 2136.3634583333333,
      "v": 94
    },
    {
      "midi": 44,
      "hit": false,
      "t": 29460.224817708324,
      "d": 2181.8179999999993,
      "v": 68
    },
    {
      "midi": 56,
      "hit": false,
      "t": 31642.042817708323,
      "d": 2034.0907395833347,
      "v": 76
    },
    {
      "midi": 61,
      "hit": false,
      "t": 31642.042817708323,
      "d": 2124.9998229166667,
      "v": 74
    },
    {
      "midi": 65,
      "hit": false,
      "t": 31642.042817708323,
      "d": 2170.454364583333,
      "v": 76
    },
    {
      "midi": 49,
      "hit": false,
      "t": 31642.042817708323,
      "d": 2227.2725416666653,
      "v": 79
    },
    {
      "midi": 54,
      "hit": false,
      "t": 33823.86081770832,
      "d": 999.9999166666676,
      "v": 76
    },
    {
      "midi": 63,
      "hit": false,
      "t": 33823.86081770832,
      "d": 999.9999166666676,
      "v": 76
    },
    {
      "midi": 44,
      "hit": false,
      "t": 33823.86081770832,
      "d": 1011.3635520833341,
      "v": 76
    },
    {
      "midi": 58,
      "hit": false,
      "t": 33823.86081770832,
      "d": 1011.3635520833341,
      "v": 89
    },
    {
      "midi": 54,
      "hit": false,
      "t": 34914.76981770832,
      "d": 1011.3635520833341,
      "v": 68
    },
    {
      "midi": 63,
      "hit": false,
      "t": 34914.76981770832,
      "d": 1034.090822916667,
      "v": 86
    },
    {
      "midi": 58,
      "hit": false,
      "t": 34914.76981770832,
      "d": 1056.8180937500001,
      "v": 94
    },
    {
      "midi": 44,
      "hit": false,
      "t": 34914.76981770832,
      "d": 1079.5453645833331,
      "v": 89
    },
    {
      "midi": 68,
      "hit": false,
      "t": 36005.67881770832,
      "d": 2034.0907395833347,
      "v": 94
    },
    {
      "midi": 61,
      "hit": false,
      "t": 36005.67881770832,
      "d": 2056.8180104166677,
      "v": 84
    },
    {
      "midi": 49,
      "hit": false,
      "t": 36005.67881770832,
      "d": 2124.9998229166667,
      "v": 68
    },
    {
      "midi": 65,
      "hit": false,
      "t": 36005.67881770832,
      "d": 2124.9998229166667,
      "v": 103
    },
    {
      "midi": 68,
      "hit": false,
      "t": 38187.49681770832,
      "d": 2022.7271041666681,
      "v": 82
    },
    {
      "midi": 60,
      "hit": false,
      "t": 38187.49681770832,
      "d": 2056.8180104166677,
      "v": 68
    },
    {
      "midi": 48,
      "hit": false,
      "t": 38187.49681770832,
      "d": 2136.3634583333333,
      "v": 79
    },
    {
      "midi": 63,
      "hit": false,
      "t": 38187.49681770832,
      "d": 2147.7270937499998,
      "v": 89
    },
    {
      "midi": 68,
      "hit": false,
      "t": 40369.31481770832,
      "d": 1965.9089270833356,
      "v": 82
    },
    {
      "midi": 56,
      "hit": false,
      "t": 40369.31481770832,
      "d": 2011.3634687500016,
      "v": 68
    },
    {
      "midi": 61,
      "hit": false,
      "t": 40369.31481770832,
      "d": 2011.3634687500016,
      "v": 94
    },
    {
      "midi": 46,
      "hit": false,
      "t": 40369.31481770832,
      "d": 2193.181635416666,
      "v": 71
    },
    {
      "midi": 53,
      "hit": false,
      "t": 42551.13281770832,
      "d": 2068.181645833334,
      "v": 61
    },
    {
      "midi": 56,
      "hit": false,
      "t": 42551.13281770832,
      "d": 2068.181645833334,
      "v": 82
    },
    {
      "midi": 61,
      "hit": false,
      "t": 42551.13281770832,
      "d": 2079.5452812500007,
      "v": 82
    },
    {
      "midi": 44,
      "hit": false,
      "t": 42551.13281770832,
      "d": 2227.2725416666653,
      "v": 68
    },
    {
      "midi": 56,
      "hit": false,
      "t": 44732.95081770832,
      "d": 90.90908333333209,
      "v": 89
    },
    {
      "midi": 54,
      "hit": false,
      "t": 44732.95081770832,
      "d": 2068.181645833334,
      "v": 82
    },
    {
      "midi": 58,
      "hit": false,
      "t": 44732.95081770832,
      "d": 2079.5452812500007,
      "v": 94
    },
    {
      "midi": 61,
      "hit": false,
      "t": 44732.95081770832,
      "d": 2079.5452812500007,
      "v": 99
    },
    {
      "midi": 42,
      "hit": false,
      "t": 44732.95081770832,
      "d": 2170.454364583333,
      "v": 58
    },
    {
      "midi": 54,
      "hit": false,
      "t": 46914.76881770832,
      "d": 988.636281250001,
      "v": 68
    },
    {
      "midi": 61,
      "hit": false,
      "t": 46914.76881770832,
      "d": 999.9999166666676,
      "v": 94
    },
    {
      "midi": 58,
      "hit": false,
      "t": 46914.76881770832,
      "d": 1011.3635520833341,
      "v": 79
    },
    {
      "midi": 44,
      "hit": false,
      "t": 46914.76881770832,
      "d": 1034.090822916667,
      "v": 79
    },
    {
      "midi": 54,
      "hit": false,
      "t": 48005.67781770832,
      "d": 920.454468750002,
      "v": 71
    },
    {
      "midi": 61,
      "hit": false,
      "t": 48005.67781770832,
      "d": 931.8181041666685,
      "v": 82
    },
    {
      "midi": 58,
      "hit": false,
      "t": 48005.67781770832,
      "d": 999.9999166666676,
      "v": 82
    },
    {
      "midi": 44,
      "hit": false,
      "t": 48005.67781770832,
      "d": 1045.4544583333336,
      "v": 76
    },
    {
      "midi": 56,
      "hit": false,
      "t": 49096.58681770832,
      "d": 1079.5453645833331,
      "v": 79
    },
    {
      "midi": 49,
      "hit": false,
      "t": 49096.58681770832,
      "d": 2238.636177083332,
      "v": 84
    },
    {
      "midi": 61,
      "hit": false,
      "t": 49096.58681770832,
      "d": 2261.363447916665,
      "v": 82
    },
    {
      "midi": 65,
      "hit": false,
      "t": 49096.58681770832,
      "d": 2261.363447916665,
      "v": 89
    },
    {
      "midi": 56,
      "hit": false,
      "t": 50187.49581770832,
      "d": 624.9999479166654,
      "v": 94
    },
    {
      "midi": 56,
      "hit": false,
      "t": 50914.76848437498,
      "d": 284.09088541667006,
      "v": 84
    },
    {
      "midi": 54,
      "hit": false,
      "t": 51278.40481770832,
      "d": 988.636281250001,
      "v": 94
    },
    {
      "midi": 58,
      "hit": false,
      "t": 51278.40481770832,
      "d": 988.636281250001,
      "v": 82
    },
    {
      "midi": 44,
      "hit": false,
      "t": 51278.40481770832,
      "d": 1022.7271875000006,
      "v": 65
    },
    {
      "midi": 63,
      "hit": false,
      "t": 51278.40481770832,
      "d": 1090.9089999999997,
      "v": 84
    },
    {
      "midi": 44,
      "hit": false,
      "t": 52369.31381770832,
      "d": 272.72725000000355,
      "v": 79
    },
    {
      "midi": 54,
      "hit": false,
      "t": 52369.31381770832,
      "d": 613.6363124999989,
      "v": 84
    },
    {
      "midi": 58,
      "hit": false,
      "t": 52369.31381770832,
      "d": 624.9999479166654,
      "v": 94
    },
    {
      "midi": 61,
      "hit": false,
      "t": 52369.31381770832,
      "d": 636.3635833333319,
      "v": 84
    },
    {
      "midi": 46,
      "hit": false,
      "t": 52732.95015104165,
      "d": 272.7272499999963,
      "v": 79
    },
    {
      "midi": 54,
      "hit": false,
      "t": 53096.58648437498,
      "d": 295.4545208333366,
      "v": 76
    },
    {
      "midi": 61,
      "hit": false,
      "t": 53096.58648437498,
      "d": 318.1817916666696,
      "v": 89
    },
    {
      "midi": 58,
      "hit": false,
      "t": 53096.58648437498,
      "d": 352.27269791666913,
      "v": 106
    },
    {
      "midi": 48,
      "hit": false,
      "t": 53096.58648437498,
      "d": 374.99996875000215,
      "v": 89
    },
    {
      "midi": 56,
      "hit": false,
      "t": 53460.222817708316,
      "d": 2045.4543750000012,
      "v": 89
    },
    {
      "midi": 65,
      "hit": false,
      "t": 53460.222817708316,
      "d": 2159.0907291666663,
      "v": 84
    },
    {
      "midi": 49,
      "hit": false,
      "t": 53460.222817708316,
      "d": 2181.8179999999993,
      "v": 68
    },
    {
      "midi": 61,
      "hit": false,
      "t": 53460.222817708316,
      "d": 2181.8179999999993,
      "v": 94
    },
    {
      "midi": 56,
      "hit": false,
      "t": 55642.040817708315,
      "d": 2011.3634687500016,
      "v": 82
    },
    {
      "midi": 60,
      "hit": false,
      "t": 55642.040817708315,
      "d": 2034.0907395833347,
      "v": 94
    },
    {
      "midi": 48,
      "hit": false,
      "t": 55642.040817708315,
      "d": 2170.454364583333,
      "v": 79
    },
    {
      "midi": 63,
      "hit": false,
      "t": 55642.040817708315,
      "d": 2181.8179999999993,
      "v": 94
    },
    {
      "midi": 53,
      "hit": false,
      "t": 57823.858817708315,
      "d": 2068.181645833334,
      "v": 65
    },
    {
      "midi": 61,
      "hit": false,
      "t": 57823.858817708315,
      "d": 2068.181645833334,
      "v": 76
    },
    {
      "midi": 46,
      "hit": false,
      "t": 57823.858817708315,
      "d": 2193.181635416666,
      "v": 58
    },
    {
      "midi": 58,
      "hit": false,
      "t": 57823.858817708315,
      "d": 2215.908906249999,
      "v": 89
    },
    {
      "midi": 56,
      "hit": false,
      "t": 60005.676817708314,
      "d": 1784.0907604166641,
      "v": 99
    },
    {
      "midi": 53,
      "hit": false,
      "t": 60005.676817708314,
      "d": 2056.8180104166677,
      "v": 61
    },
    {
      "midi": 61,
      "hit": false,
      "t": 60005.676817708314,
      "d": 2102.2725520833337,
      "v": 82
    },
    {
      "midi": 44,
      "hit": false,
      "t": 60005.676817708314,
      "d": 2181.8179999999993,
      "v": 65
    },
    {
      "midi": 54,
      "hit": false,
      "t": 62187.49481770831,
      "d": 2056.8180104166677,
      "v": 68
    },
    {
      "midi": 61,
      "hit": false,
      "t": 62187.49481770831,
      "d": 2068.181645833334,
      "v": 82
    },
    {
      "midi": 58,
      "hit": false,
      "t": 62187.49481770831,
      "d": 2079.5452812500007,
      "v": 76
    },
    {
      "midi": 42,
      "hit": false,
      "t": 62187.49481770831,
      "d": 2124.9998229166667,
      "v": 58
    },
    {
      "midi": 61,
      "hit": false,
      "t": 64369.31281770831,
      "d": 1045.4544583333336,
      "v": 84
    },
    {
      "midi": 54,
      "hit": false,
      "t": 64369.31281770831,
      "d": 1056.8180937500001,
      "v": 61
    },
    {
      "midi": 58,
      "hit": false,
      "t": 64369.31281770831,
      "d": 1056.8180937500001,
      "v": 89
    },
    {
      "midi": 44,
      "hit": false,
      "t": 64369.31281770831,
      "d": 2181.8179999999993,
      "v": 68
    },
    {
      "midi": 54,
      "hit": false,
      "t": 65460.22181770831,
      "d": 931.8181041666685,
      "v": 68
    },
    {
      "midi": 61,
      "hit": false,
      "t": 65460.22181770831,
      "d": 965.909010416668,
      "v": 106
    },
    {
      "midi": 58,
      "hit": false,
      "t": 65460.22181770831,
      "d": 1034.090822916667,
      "v": 79
    },
    {
      "midi": 65,
      "hit": false,
      "t": 66551.13081770831,
      "d": 1318.1817083333299,
      "v": 65
    },
    {
      "midi": 61,
      "hit": false,
      "t": 66551.13081770831,
      "d": 1340.908979166663,
      "v": 76
    },
    {
      "midi": 49,
      "hit": false,
      "t": 66551.13081770831,
      "d": 1738.6362187499908,
      "v": 68
    },
    {
      "midi": 56,
      "hit": false,
      "t": 66551.13081770831,
      "d": 2034.09073958332,
      "v": 82
    },
    {
      "midi": 61,
      "hit": false,
      "t": 68005.67615104164,
      "d": 579.5454062499921,
      "v": 87
    },
    {
      "midi": 65,
      "hit": false,
      "t": 68005.67615104164,
      "d": 806.8181145833223,
      "v": 84
    },
    {
      "midi": 49,
      "hit": false,
      "t": 68369.31248437497,
      "d": 340.90906249999534,
      "v": 79
    },
    {
      "midi": 54,
      "hit": false,
      "t": 68732.9488177083,
      "d": 954.5453750000015,
      "v": 74
    },
    {
      "midi": 58,
      "hit": false,
      "t": 68732.9488177083,
      "d": 977.2726458333345,
      "v": 89
    },
    {
      "midi": 61,
      "hit": false,
      "t": 68732.9488177083,
      "d": 977.2726458333345,
      "v": 74
    },
    {
      "midi": 44,
      "hit": false,
      "t": 68732.9488177083,
      "d": 1454.545333333328,
      "v": 58
    },
    {
      "midi": 54,
      "hit": false,
      "t": 69823.8578177083,
      "d": 965.9090104166535,
      "v": 74
    },
    {
      "midi": 61,
      "hit": false,
      "t": 69823.8578177083,
      "d": 988.6362812499865,
      "v": 103
    },
    {
      "midi": 58,
      "hit": false,
      "t": 69823.8578177083,
      "d": 1079.5453645833186,
      "v": 112
    },
    {
      "midi": 46,
      "hit": false,
      "t": 70187.49415104162,
      "d": 352.27269791666185,
      "v": 94
    }
  ]
}