{
  "jsonPath": "Children/Children'S Music/Hushabye Baby/stand-by-your-man-lullaby-rendition-of-tammy-wynette.json",
  "path": "Children\\Children'S Music\\Hushabye Baby\\Stand By Your Man (Lullaby Rendition of Tammy Wynette).mid",
  "name": "Stand By Your Man (Lullaby Rendition of Tammy Wynette)",
  "difficulty": "Advanced",
  "bpm": 104.00001386666851,
  "notes": [
    {
      "midi": 45,
      "hit": false,
      "t": 2307.692,
      "d": 1616.5863229166662,
      "v": 83
    },
    {
      "midi": 61,
      "hit": false,
      "t": 2881.610192708333,
      "d": 1006.6104427083333,
      "v": 63
    },
    {
      "midi": 57,
      "hit": false,
      "t": 2881.610192708333,
      "d": 1012.6200572916664,
      "v": 78
    },
    {
      "midi": 52,
      "hit": false,
      "t": 2884.615,
      "d": 1000.6008281250001,
      "v": 65
    },
    {
      "midi": 45,
      "hit": false,
      "t": 4035.4561927083328,
      "d": 606.9710729166659,
      "v": 97
    },
    {
      "midi": 57,
      "hit": false,
      "t": 4035.4561927083328,
      "d": 700.1200989583326,
      "v": 82
    },
    {
      "midi": 52,
      "hit": false,
      "t": 4035.4561927083328,
      "d": 706.1297135416658,
      "v": 63
    },
    {
      "midi": 61,
      "hit": false,
      "t": 4035.4561927083328,
      "d": 745.1922083333325,
      "v": 63
    },
    {
      "midi": 38,
      "hit": false,
      "t": 4615.383999999999,
      "d": 1580.5286354166665,
      "v": 87
    },
    {
      "midi": 62,
      "hit": false,
      "t": 5189.302192708332,
      "d": 1066.7065885416669,
      "v": 78
    },
    {
      "midi": 57,
      "hit": false,
      "t": 5192.306999999999,
      "d": 1033.6537083333333,
      "v": 88
    },
    {
      "midi": 54,
      "hit": false,
      "t": 5192.306999999999,
      "d": 1075.721010416666,
      "v": 71
    },
    {
      "midi": 38,
      "hit": false,
      "t": 6343.148192708331,
      "d": 588.942229166667,
      "v": 83
    },
    {
      "midi": 62,
      "hit": false,
      "t": 6346.152999999998,
      "d": 594.9518437500001,
      "v": 76
    },
    {
      "midi": 57,
      "hit": false,
      "t": 6346.152999999998,
      "d": 609.9758802083334,
      "v": 90
    },
    {
      "midi": 54,
      "hit": false,
      "t": 6346.152999999998,
      "d": 615.9854947916665,
      "v": 71
    },
    {
      "midi": 40,
      "hit": false,
      "t": 6923.075999999998,
      "d": 1024.6392864583331,
      "v": 91
    },
    {
      "midi": 57,
      "hit": false,
      "t": 7499.998999999998,
      "d": 997.5960208333327,
      "v": 88
    },
    {
      "midi": 52,
      "hit": false,
      "t": 7499.998999999998,
      "d": 1000.6008281249997,
      "v": 74
    },
    {
      "midi": 61,
      "hit": false,
      "t": 7499.998999999998,
      "d": 1009.6152499999989,
      "v": 63
    },
    {
      "midi": 40,
      "hit": false,
      "t": 8076.921999999998,
      "d": 1012.620057291665,
      "v": 85
    },
    {
      "midi": 61,
      "hit": false,
      "t": 8653.844999999998,
      "d": 333.5336093749993,
      "v": 74
    },
    {
      "midi": 57,
      "hit": false,
      "t": 8653.844999999998,
      "d": 345.55283854166555,
      "v": 92
    },
    {
      "midi": 52,
      "hit": false,
      "t": 8653.844999999998,
      "d": 369.5912968749981,
      "v": 74
    },
    {
      "midi": 40,
      "hit": false,
      "t": 9227.76319270833,
      "d": 267.4278489583339,
      "v": 93
    },
    {
      "midi": 52,
      "hit": false,
      "t": 9227.76319270833,
      "d": 318.509572916666,
      "v": 67
    },
    {
      "midi": 59,
      "hit": false,
      "t": 9230.767999999996,
      "d": 288.46149999999943,
      "v": 59
    },
    {
      "midi": 56,
      "hit": false,
      "t": 9230.767999999996,
      "d": 312.49995833333196,
      "v": 67
    },
    {
      "midi": 40,
      "hit": false,
      "t": 9804.686192708328,
      "d": 573.9181927083337,
      "v": 89
    },
    {
      "midi": 42,
      "hit": false,
      "t": 10381.609192708329,
      "d": 543.8701197916671,
      "v": 81
    },
    {
      "midi": 44,
      "hit": false,
      "t": 10955.527385416663,
      "d": 649.0383750000001,
      "v": 73
    },
    {
      "midi": 45,
      "hit": false,
      "t": 11535.455192708328,
      "d": 2154.446828125003,
      "v": 83
    },
    {
      "midi": 57,
      "hit": false,
      "t": 12112.37819270833,
      "d": 1009.6152500000007,
      "v": 92
    },
    {
      "midi": 52,
      "hit": false,
      "t": 12112.37819270833,
      "d": 1015.6248645833348,
      "v": 71
    },
    {
      "midi": 61,
      "hit": false,
      "t": 12112.37819270833,
      "d": 1021.6344791666688,
      "v": 65
    },
    {
      "midi": 57,
      "hit": false,
      "t": 13266.22419270833,
      "d": 955.5287187499998,
      "v": 61
    },
    {
      "midi": 61,
      "hit": false,
      "t": 13266.22419270833,
      "d": 955.5287187499998,
      "v": 47
    },
    {
      "midi": 52,
      "hit": false,
      "t": 13266.22419270833,
      "d": 979.5671770833324,
      "v": 47
    },
    {
      "midi": 45,
      "hit": false,
      "t": 13843.147192708331,
      "d": 1601.562286458331,
      "v": 73
    },
    {
      "midi": 52,
      "hit": false,
      "t": 14420.07019270833,
      "d": 970.5527552083331,
      "v": 67
    },
    {
      "midi": 61,
      "hit": false,
      "t": 14420.07019270833,
      "d": 979.5671770833324,
      "v": 65
    },
    {
      "midi": 57,
      "hit": false,
      "t": 14423.074999999997,
      "d": 964.5431406249991,
      "v": 90
    },
    {
      "midi": 45,
      "hit": false,
      "t": 15573.91619270833,
      "d": 582.9326145833329,
      "v": 83
    },
    {
      "midi": 57,
      "hit": false,
      "t": 15573.91619270833,
      "d": 634.0143385416668,
      "v": 94
    },
    {
      "midi": 52,
      "hit": false,
      "t": 15573.91619270833,
      "d": 664.0624114583334,
      "v": 71
    },
    {
      "midi": 61,
      "hit": false,
      "t": 15573.91619270833,
      "d": 673.0768333333326,
      "v": 65
    },
    {
      "midi": 52,
      "hit": false,
      "t": 16724.757385416662,
      "d": 988.5815989583352,
      "v": 65
    },
    {
      "midi": 56,
      "hit": false,
      "t": 16739.781421874995,
      "d": 985.57679166667,
      "v": 55
    },
    {
      "midi": 59,
      "hit": false,
      "t": 16745.79103645833,
      "d": 994.5912135416693,
      "v": 61
    },
    {
      "midi": 56,
      "hit": false,
      "t": 17881.608192708332,
      "d": 955.5287187499998,
      "v": 59
    },
    {
      "midi": 59,
      "hit": false,
      "t": 17881.608192708332,
      "d": 958.533526041665,
      "v": 67
    },
    {
      "midi": 52,
      "hit": false,
      "t": 17881.608192708332,
      "d": 976.5623697916635,
      "v": 71
    },
    {
      "midi": 40,
      "hit": false,
      "t": 18455.526385416666,
      "d": 760.2162447916635,
      "v": 77
    },
    {
      "midi": 56,
      "hit": false,
      "t": 19035.45419270833,
      "d": 988.5815989583352,
      "v": 80
    },
    {
      "midi": 59,
      "hit": false,
      "t": 19035.45419270833,
      "d": 991.5864062500004,
      "v": 78
    },
    {
      "midi": 52,
      "hit": false,
      "t": 19035.45419270833,
      "d": 994.5912135416656,
      "v": 78
    },
    {
      "midi": 40,
      "hit": false,
      "t": 19609.372385416664,
      "d": 405.6489843750023,
      "v": 101
    },
    {
      "midi": 39,
      "hit": false,
      "t": 19993.98771875,
      "d": 192.30766666666386,
      "v": 73
    },
    {
      "midi": 40,
      "hit": false,
      "t": 20186.295385416663,
      "d": 330.52880208333227,
      "v": 101
    },
    {
      "midi": 52,
      "hit": false,
      "t": 20189.300192708328,
      "d": 510.8172395833317,
      "v": 76
    },
    {
      "midi": 56,
      "hit": false,
      "t": 20189.300192708328,
      "d": 528.8460833333302,
      "v": 74
    },
    {
      "midi": 59,
      "hit": false,
      "t": 20189.300192708328,
      "d": 537.8605052083294,
      "v": 74
    },
    {
      "midi": 41,
      "hit": false,
      "t": 20570.910718749994,
      "d": 219.35093229166523,
      "v": 81
    },
    {
      "midi": 42,
      "hit": false,
      "t": 20763.218385416658,
      "d": 1072.716203125001,
      "v": 87
    },
    {
      "midi": 59,
      "hit": false,
      "t": 21343.146192708326,
      "d": 994.5912135416656,
      "v": 80
    },
    {
      "midi": 62,
      "hit": false,
      "t": 21343.146192708326,
      "d": 1018.6296718749982,
      "v": 51
    },
    {
      "midi": 54,
      "hit": false,
      "t": 21343.146192708326,
      "d": 1030.6489010416662,
      "v": 63
    },
    {
      "midi": 42,
      "hit": false,
      "t": 21920.069192708324,
      "d": 1036.658515625004,
      "v": 50
    },
    {
      "midi": 59,
      "hit": false,
      "t": 22496.992192708327,
      "d": 621.9951093750024,
      "v": 74
    },
    {
      "midi": 62,
      "hit": false,
      "t": 22496.992192708327,
      "d": 631.0095312500016,
      "v": 71
    },
    {
      "midi": 54,
      "hit": false,
      "t": 22496.992192708327,
      "d": 649.0383750000001,
      "v": 63
    },
    {
      "midi": 40,
      "hit": false,
      "t": 23073.91519270833,
      "d": 2145.4324062499945,
      "v": 89
    },
    {
      "midi": 52,
      "hit": false,
      "t": 23647.83338541666,
      "d": 1051.6825520833336,
      "v": 63
    },
    {
      "midi": 56,
      "hit": false,
      "t": 23647.83338541666,
      "d": 1051.6825520833336,
      "v": 71
    },
    {
      "midi": 59,
      "hit": false,
      "t": 23647.83338541666,
      "d": 1051.6825520833336,
      "v": 63
    },
    {
      "midi": 59,
      "hit": false,
      "t": 24807.68899999999,
      "d": 594.951843750001,
      "v": 74
    },
    {
      "midi": 52,
      "hit": false,
      "t": 24807.68899999999,
      "d": 609.9758802083343,
      "v": 71
    },
    {
      "midi": 56,
      "hit": false,
      "t": 24807.68899999999,
      "d": 609.9758802083343,
      "v": 74
    },
    {
      "midi": 57,
      "hit": false,
      "t": 25961.534999999993,
      "d": 907.4518020833348,
      "v": 82
    },
    {
      "midi": 61,
      "hit": false,
      "t": 25961.534999999993,
      "d": 949.5191041666694,
      "v": 57
    },
    {
      "midi": 52,
      "hit": false,
      "t": 25961.534999999993,
      "d": 952.5239114583346,
      "v": 69
    },
    {
      "midi": 57,
      "hit": false,
      "t": 27112.37619270833,
      "d": 609.9758802083343,
      "v": 88
    },
    {
      "midi": 61,
      "hit": false,
      "t": 27112.37619270833,
      "d": 621.9951093750024,
      "v": 59
    },
    {
      "midi": 52,
      "hit": false,
      "t": 27112.37619270833,
      "d": 631.0095312500016,
      "v": 67
    },
    {
      "midi": 33,
      "hit": false,
      "t": 28266.22219270833,
      "d": 652.0431822916689,
      "v": 62
    },
    {
      "midi": 57,
      "hit": false,
      "t": 28266.22219270833,
      "d": 1445.3123072916678,
      "v": 84
    },
    {
      "midi": 61,
      "hit": false,
      "t": 28266.22219270833,
      "d": 1472.3555729166692,
      "v": 53
    },
    {
      "midi": 52,
      "hit": false,
      "t": 28266.22219270833,
      "d": 1553.485369791666,
      "v": 63
    },
    {
      "midi": 35,
      "hit": false,
      "t": 28846.149999999998,
      "d": 594.951843750001,
      "v": 73
    },
    {
      "midi": 37,
      "hit": false,
      "t": 29420.06819270833,
      "d": 381.61052604166616,
      "v": 73
    },
    {
      "midi": 38,
      "hit": false,
      "t": 29999.995999999996,
      "d": 1084.7354322916653,
      "v": 73
    },
    {
      "midi": 62,
      "hit": false,
      "t": 30573.91419270833,
      "d": 988.5815989583316,
      "v": 74
    },
    {
      "midi": 57,
      "hit": false,
      "t": 30576.918999999994,
      "d": 961.5383333333339,
      "v": 88
    },
    {
      "midi": 54,
      "hit": false,
      "t": 30576.918999999994,
      "d": 988.5815989583316,
      "v": 65
    },
    {
      "midi": 45,
      "hit": false,
      "t": 31153.841999999993,
      "d": 1006.6104427083337,
      "v": 58
    },
    {
      "midi": 57,
      "hit": false,
      "t": 31730.764999999992,
      "d": 949.5191041666694,
      "v": 80
    },
    {
      "midi": 62,
      "hit": false,
      "t": 31730.764999999992,
      "d": 967.5479479166679,
      "v": 71
    },
    {
      "midi": 54,
      "hit": false,
      "t": 31730.764999999992,
      "d": 979.567177083336,
      "v": 63
    },
    {
      "midi": 38,
      "hit": false,
      "t": 32307.687999999995,
      "d": 1111.7786979166704,
      "v": 77
    },
    {
      "midi": 62,
      "hit": false,
      "t": 32881.60619270833,
      "d": 979.5671770833433,
      "v": 71
    },
    {
      "midi": 54,
      "hit": false,
      "t": 32881.60619270833,
      "d": 1021.6344791666779,
      "v": 61
    },
    {
      "midi": 57,
      "hit": false,
      "t": 32884.611,
      "d": 946.5142968750079,
      "v": 88
    },
    {
      "midi": 45,
      "hit": false,
      "t": 33464.53880729167,
      "d": 516.8268541666694,
      "v": 77
    },
    {
      "midi": 38,
      "hit": false,
      "t": 34035.45219270834,
      "d": 600.9614583333387,
      "v": 54
    },
    {
      "midi": 57,
      "hit": false,
      "t": 34038.45700000001,
      "d": 555.8893489583352,
      "v": 78
    },
    {
      "midi": 62,
      "hit": false,
      "t": 34038.45700000001,
      "d": 570.9133854166721,
      "v": 67
    },
    {
      "midi": 54,
      "hit": false,
      "t": 34038.45700000001,
      "d": 579.9278072916713,
      "v": 63
    },
    {
      "midi": 45,
      "hit": false,
      "t": 34615.38000000001,
      "d": 1150.8411927083362,
      "v": 81
    },
    {
      "midi": 52,
      "hit": false,
      "t": 35189.298192708346,
      "d": 937.4998750000086,
      "v": 69
    },
    {
      "midi": 61,
      "hit": false,
      "t": 35189.298192708346,
      "d": 946.5142968750079,
      "v": 57
    },
    {
      "midi": 57,
      "hit": false,
      "t": 35192.303000000014,
      "d": 910.4566093750036,
      "v": 82
    },
    {
      "midi": 40,
      "hit": false,
      "t": 35766.22119270835,
      "d": 1123.7979270833384,
      "v": 65
    },
    {
      "midi": 57,
      "hit": false,
      "t": 36343.14419270835,
      "d": 643.028760416666,
      "v": 78
    },
    {
      "midi": 61,
      "hit": false,
      "t": 36343.14419270835,
      "d": 682.0912552083319,
      "v": 57
    },
    {
      "midi": 52,
      "hit": false,
      "t": 36343.14419270835,
      "d": 712.1393281249984,
      "v": 67
    },
    {
      "midi": 45,
      "hit": false,
      "t": 36920.06719270835,
      "d": 985.5767916666591,
      "v": 79
    },
    {
      "midi": 57,
      "hit": false,
      "t": 37496.99019270835,
      "d": 874.3989218749921,
      "v": 90
    },
    {
      "midi": 61,
      "hit": false,
      "t": 37496.99019270835,
      "d": 913.4614166666579,
      "v": 55
    },
    {
      "midi": 52,
      "hit": false,
      "t": 37496.99019270835,
      "d": 919.4710312499883,
      "v": 71
    },
    {
      "midi": 45,
      "hit": false,
      "t": 38073.91319270834,
      "d": 727.1633645833281,
      "v": 79
    },
    {
      "midi": 52,
      "hit": false,
      "t": 38650.83619270834,
      "d": 477.7643593749963,
      "v": 63
    },
    {
      "midi": 57,
      "hit": false,
      "t": 38650.83619270834,
      "d": 477.7643593749963,
      "v": 88
    },
    {
      "midi": 61,
      "hit": false,
      "t": 38650.83619270834,
      "d": 525.8412760416613,
      "v": 53
    },
    {
      "midi": 35,
      "hit": false,
      "t": 39230.764,
      "d": 1132.8123489583304,
      "v": 62
    },
    {
      "midi": 59,
      "hit": false,
      "t": 39804.68219270834,
      "d": 922.4758385416644,
      "v": 74
    },
    {
      "midi": 63,
      "hit": false,
      "t": 39804.68219270834,
      "d": 955.5287187499998,
      "v": 57
    },
    {
      "midi": 54,
      "hit": false,
      "t": 39804.68219270834,
      "d": 973.5575624999983,
      "v": 55
    },
    {
      "midi": 59,
      "hit": false,
      "t": 40958.528192708334,
      "d": 844.3508489583401,
      "v": 88
    },
    {
      "midi": 54,
      "hit": false,
      "t": 40958.528192708334,
      "d": 928.4854531250021,
      "v": 63
    },
    {
      "midi": 63,
      "hit": false,
      "t": 40961.533,
      "d": 859.3748854166697,
      "v": 55
    },
    {
      "midi": 35,
      "hit": false,
      "t": 41538.456000000006,
      "d": 1481.3699947916684,
      "v": 69
    },
    {
      "midi": 54,
      "hit": false,
      "t": 42112.37419270834,
      "d": 952.5239114583383,
      "v": 69
    },
    {
      "midi": 59,
      "hit": false,
      "t": 42115.37900000001,
      "d": 850.3604635416632,
      "v": 88
    },
    {
      "midi": 63,
      "hit": false,
      "t": 42115.37900000001,
      "d": 883.4133437499986,
      "v": 59
    },
    {
      "midi": 59,
      "hit": false,
      "t": 43269.22500000001,
      "d": 495.79320312500204,
      "v": 94
    },
    {
      "midi": 63,
      "hit": false,
      "t": 43269.22500000001,
      "d": 507.8124322916701,
      "v": 67
    },
    {
      "midi": 54,
      "hit": false,
      "t": 43269.22500000001,
      "d": 549.8797343750048,
      "v": 73
    },
    {
      "midi": 35,
      "hit": false,
      "t": 43269.22500000001,
      "d": 576.9230000000025,
      "v": 81
    },
    {
      "midi": 40,
      "hit": false,
      "t": 43846.148000000016,
      "d": 1868.9901354166723,
      "v": 89
    },
    {
      "midi": 56,
      "hit": false,
      "t": 44420.06619270835,
      "d": 970.5527552083367,
      "v": 71
    },
    {
      "midi": 59,
      "hit": false,
      "t": 44420.06619270835,
      "d": 982.5719843750048,
      "v": 65
    },
    {
      "midi": 52,
      "hit": false,
      "t": 44420.06619270835,
      "d": 1000.6008281250033,
      "v": 63
    },
    {
      "midi": 59,
      "hit": false,
      "t": 45573.912192708354,
      "d": 429.6874427083312,
      "v": 63
    },
    {
      "midi": 56,
      "hit": false,
      "t": 45573.912192708354,
      "d": 438.70186458333046,
      "v": 67
    },
    {
      "midi": 52,
      "hit": false,
      "t": 45573.912192708354,
      "d": 453.7259010416674,
      "v": 65
    },
    {
      "midi": 59,
      "hit": false,
      "t": 46150.83519270836,
      "d": 441.7066718750066,
      "v": 63
    },
    {
      "midi": 56,
      "hit": false,
      "t": 46150.83519270836,
      "d": 456.7307083333435,
      "v": 55
    },
    {
      "midi": 52,
      "hit": false,
      "t": 46150.83519270836,
      "d": 486.77878125001007,
      "v": 53
    },
    {
      "midi": 40,
      "hit": false,
      "t": 46153.840000000026,
      "d": 294.4711145833353,
      "v": 79
    },
    {
      "midi": 40,
      "hit": false,
      "t": 46730.763000000035,
      "d": 555.8893489583352,
      "v": 73
    },
    {
      "midi": 42,
      "hit": false,
      "t": 47307.68600000004,
      "d": 531.850890624999,
      "v": 73
    },
    {
      "midi": 44,
      "hit": false,
      "t": 47878.5993854167,
      "d": 658.052796875003,
      "v": 73
    },
    {
      "midi": 45,
      "hit": false,
      "t": 48461.532000000036,
      "d": 1977.1631979166632,
      "v": 81
    },
    {
      "midi": 57,
      "hit": false,
      "t": 49038.45500000004,
      "d": 892.4277656249978,
      "v": 84
    },
    {
      "midi": 61,
      "hit": false,
      "t": 49038.45500000004,
      "d": 907.4518020833348,
      "v": 51
    },
    {
      "midi": 52,
      "hit": false,
      "t": 49038.45500000004,
      "d": 913.4614166666652,
      "v": 71
    },
    {
      "midi": 57,
      "hit": false,
      "t": 50189.29619270837,
      "d": 898.4373802083282,
      "v": 84
    },
    {
      "midi": 61,
      "hit": false,
      "t": 50189.29619270837,
      "d": 928.4854531249948,
      "v": 63
    },
    {
      "midi": 52,
      "hit": false,
      "t": 50189.29619270837,
      "d": 961.5383333333302,
      "v": 67
    },
    {
      "midi": 45,
      "hit": false,
      "t": 50766.21919270836,
      "d": 1601.5622864583347,
      "v": 85
    },
    {
      "midi": 57,
      "hit": false,
      "t": 51343.142192708365,
      "d": 853.365270833332,
      "v": 78
    },
    {
      "midi": 61,
      "hit": false,
      "t": 51343.142192708365,
      "d": 910.4566093749963,
      "v": 65
    },
    {
      "midi": 52,
      "hit": false,
      "t": 51343.142192708365,
      "d": 943.5094895833317,
      "v": 59
    },
    {
      "midi": 45,
      "hit": false,
      "t": 52496.98819270836,
      "d": 612.9806875000068,
      "v": 79
    },
    {
      "midi": 57,
      "hit": false,
      "t": 52499.99300000003,
      "d": 561.8989635416656,
      "v": 82
    },
    {
      "midi": 61,
      "hit": false,
      "t": 52499.99300000003,
      "d": 588.9422291666706,
      "v": 55
    },
    {
      "midi": 52,
      "hit": false,
      "t": 52499.99300000003,
      "d": 597.9566510416698,
      "v": 67
    },
    {
      "midi": 40,
      "hit": false,
      "t": 53073.911192708365,
      "d": 2142.4275989583402,
      "v": 71
    },
    {
      "midi": 56,
      "hit": false,
      "t": 53653.839000000036,
      "d": 883.4133437499986,
      "v": 71
    },
    {
      "midi": 59,
      "hit": false,
      "t": 53653.839000000036,
      "d": 892.4277656249978,
      "v": 71
    },
    {
      "midi": 52,
      "hit": false,
      "t": 53653.839000000036,
      "d": 916.466223958334,
      "v": 71
    },
    {
      "midi": 56,
      "hit": false,
      "t": 54804.68019270837,
      "d": 766.2258593750012,
      "v": 51
    },
    {
      "midi": 59,
      "hit": false,
      "t": 54804.68019270837,
      "d": 784.2547031249997,
      "v": 61
    },
    {
      "midi": 52,
      "hit": false,
      "t": 54804.68019270837,
      "d": 799.2787395833366,
      "v": 57
    },
    {
      "midi": 40,
      "hit": false,
      "t": 55381.603192708375,
      "d": 868.389307291669,
      "v": 83
    },
    {
      "midi": 56,
      "hit": false,
      "t": 55958.52619270838,
      "d": 949.5191041666694,
      "v": 71
    },
    {
      "midi": 59,
      "hit": false,
      "t": 55958.52619270838,
      "d": 952.5239114583383,
      "v": 71
    },
    {
      "midi": 52,
      "hit": false,
      "t": 55958.52619270838,
      "d": 976.5623697916672,
      "v": 73
    },
    {
      "midi": 40,
      "hit": false,
      "t": 56535.44919270838,
      "d": 381.61052604166616,
      "v": 91
    },
    {
      "midi": 39,
      "hit": false,
      "t": 56917.059718750046,
      "d": 210.336510416666,
      "v": 64
    },
    {
      "midi": 40,
      "hit": false,
      "t": 57112.372192708375,
      "d": 405.6489843750096,
      "v": 81
    },
    {
      "midi": 52,
      "hit": false,
      "t": 57112.372192708375,
      "d": 522.836468750007,
      "v": 61
    },
    {
      "midi": 59,
      "hit": false,
      "t": 57112.372192708375,
      "d": 525.8412760416759,
      "v": 71
    },
    {
      "midi": 56,
      "hit": false,
      "t": 57112.372192708375,
      "d": 531.8508906250063,
      "v": 63
    },
    {
      "midi": 41,
      "hit": false,
      "t": 57493.98271875005,
      "d": 240.38458333333983,
      "v": 54
    },
    {
      "midi": 42,
      "hit": false,
      "t": 57689.295192708385,
      "d": 2238.5814322916776,
      "v": 79
    },
    {
      "midi": 59,
      "hit": false,
      "t": 58266.21819270839,
      "d": 913.4614166666652,
      "v": 78
    },
    {
      "midi": 62,
      "hit": false,
      "t": 58266.21819270839,
      "d": 946.5142968750006,
      "v": 63
    },
    {
      "midi": 54,
      "hit": false,
      "t": 58266.21819270839,
      "d": 1000.6008281250033,
      "v": 47
    },
    {
      "midi": 59,
      "hit": false,
      "t": 59420.06419270839,
      "d": 552.8845416666663,
      "v": 61
    },
    {
      "midi": 54,
      "hit": false,
      "t": 59420.06419270839,
      "d": 606.9710729166618,
      "v": 71
    },
    {
      "midi": 62,
      "hit": false,
      "t": 59423.06900000006,
      "d": 531.850890624999,
      "v": 59
    },
    {
      "midi": 40,
      "hit": false,
      "t": 59999.99200000006,
      "d": 2253.6054687499927,
      "v": 75
    },
    {
      "midi": 56,
      "hit": false,
      "t": 60576.91500000005,
      "d": 913.4614166666652,
      "v": 47
    },
    {
      "midi": 52,
      "hit": false,
      "t": 60576.91500000005,
      "d": 916.466223958334,
      "v": 43
    },
    {
      "midi": 59,
      "hit": false,
      "t": 60576.91500000005,
      "d": 922.4758385416644,
      "v": 43
    },
    {
      "midi": 56,
      "hit": false,
      "t": 61727.75619270838,
      "d": 525.8412760416686,
      "v": 51
    },
    {
      "midi": 59,
      "hit": false,
      "t": 61727.75619270838,
      "d": 528.8460833333374,
      "v": 55
    },
    {
      "midi": 52,
      "hit": false,
      "t": 61727.75619270838,
      "d": 534.8556979166679,
      "v": 57
    },
    {
      "midi": 45,
      "hit": false,
      "t": 62307.68400000005,
      "d": 2659.2544531250023,
      "v": 65
    },
    {
      "midi": 57,
      "hit": false,
      "t": 62884.607000000055,
      "d": 685.0960625000007,
      "v": 74
    },
    {
      "midi": 61,
      "hit": false,
      "t": 62884.607000000055,
      "d": 727.1633645833354,
      "v": 47
    },
    {
      "midi": 52,
      "hit": false,
      "t": 62884.607000000055,
      "d": 805.288354166667,
      "v": 57
    },
    {
      "midi": 57,
      "hit": false,
      "t": 64035.44819270839,
      "d": 721.1537499999977,
      "v": 84
    },
    {
      "midi": 61,
      "hit": false,
      "t": 64035.44819270839,
      "d": 757.2114374999946,
      "v": 55
    },
    {
      "midi": 52,
      "hit": false,
      "t": 64035.44819270839,
      "d": 826.322005208327,
      "v": 59
    },
    {
      "midi": 33,
      "hit": false,
      "t": 65189.29419270839,
      "d": 631.0095312499907,
      "v": 83
    },
    {
      "midi": 57,
      "hit": false,
      "t": 65189.29419270839,
      "d": 955.5287187499925,
      "v": 78
    },
    {
      "midi": 61,
      "hit": false,
      "t": 65189.29419270839,
      "d": 961.5383333333302,
      "v": 47
    },
    {
      "midi": 52,
      "hit": false,
      "t": 65189.29419270839,
      "d": 985.5767916666664,
      "v": 61
    },
    {
      "midi": 35,
      "hit": false,
      "t": 65769.22200000005,
      "d": 573.9181927083409,
      "v": 75
    },
    {
      "midi": 61,
      "hit": false,
      "t": 66343.1401927084,
      "d": 540.8653124999983,
      "v": 67
    },
    {
      "midi": 57,
      "hit": false,
      "t": 66343.1401927084,
      "d": 555.8893489583279,
      "v": 90
    },
    {
      "midi": 52,
      "hit": false,
      "t": 66343.1401927084,
      "d": 582.9326145833329,
      "v": 69
    },
    {
      "midi": 37,
      "hit": false,
      "t": 66343.1401927084,
      "d": 637.0191458333284,
      "v": 77
    },
    {
      "midi": 38,
      "hit": false,
      "t": 66923.06800000006,
      "d": 2118.3891406250186,
      "v": 73
    },
    {
      "midi": 62,
      "hit": false,
      "t": 67496.98619270838,
      "d": 982.5719843750121,
      "v": 82
    },
    {
      "midi": 54,
      "hit": false,
      "t": 67496.98619270838,
      "d": 991.5864062500186,
      "v": 34
    },
    {
      "midi": 57,
      "hit": false,
      "t": 67499.99100000005,
      "d": 913.4614166666724,
      "v": 47
    },
    {
      "midi": 57,
      "hit": false,
      "t": 68653.83700000007,
      "d": 739.1825937500107,
      "v": 53
    },
    {
      "midi": 62,
      "hit": false,
      "t": 68653.83700000007,
      "d": 826.3220052083489,
      "v": 57
    },
    {
      "midi": 54,
      "hit": false,
      "t": 68653.83700000007,
      "d": 835.3364270833554,
      "v": 47
    },
    {
      "midi": 38,
      "hit": false,
      "t": 69224.75038541674,
      "d": 1604.5670937500254,
      "v": 81
    },
    {
      "midi": 57,
      "hit": false,
      "t": 69804.67819270842,
      "d": 889.4229583333363,
      "v": 88
    },
    {
      "midi": 62,
      "hit": false,
      "t": 69804.67819270842,
      "d": 934.4950677083398,
      "v": 67
    },
    {
      "midi": 54,
      "hit": false,
      "t": 69804.67819270842,
      "d": 964.5431406250136,
      "v": 63
    },
    {
      "midi": 38,
      "hit": false,
      "t": 70958.52419270844,
      "d": 603.9662656250002,
      "v": 81
    },
    {
      "midi": 62,
      "hit": false,
      "t": 70961.52900000011,
      "d": 513.8220468749932,
      "v": 82
    },
    {
      "midi": 57,
      "hit": false,
      "t": 70961.52900000011,
      "d": 522.8364687499998,
      "v": 82
    },
    {
      "midi": 54,
      "hit": false,
      "t": 70961.52900000011,
      "d": 543.8701197916671,
      "v": 67
    },
    {
      "midi": 45,
      "hit": false,
      "t": 71538.4520000001,
      "d": 2214.5429739583487,
      "v": 81
    },
    {
      "midi": 57,
      "hit": false,
      "t": 72112.37019270845,
      "d": 850.3604635416705,
      "v": 78
    },
    {
      "midi": 52,
      "hit": false,
      "t": 72112.37019270845,
      "d": 898.4373802083428,
      "v": 71
    },
    {
      "midi": 61,
      "hit": false,
      "t": 72112.37019270845,
      "d": 898.4373802083428,
      "v": 53
    },
    {
      "midi": 52,
      "hit": false,
      "t": 73269.22100000012,
      "d": 441.7066718749993,
      "v": 61
    },
    {
      "midi": 57,
      "hit": false,
      "t": 73269.22100000012,
      "d": 444.71147916666814,
      "v": 78
    },
    {
      "midi": 61,
      "hit": false,
      "t": 73269.22100000012,
      "d": 480.7691666666651,
      "v": 57
    },
    {
      "midi": 38,
      "hit": false,
      "t": 73846.14400000012,
      "d": 2199.51893749999,
      "v": 85
    },
    {
      "midi": 57,
      "hit": false,
      "t": 74420.06219270844,
      "d": 898.4373802083282,
      "v": 74
    },
    {
      "midi": 62,
      "hit": false,
      "t": 74420.06219270844,
      "d": 916.4662239583267,
      "v": 63
    },
    {
      "midi": 54,
      "hit": false,
      "t": 74420.06219270844,
      "d": 976.5623697916599,
      "v": 49
    },
    {
      "midi": 62,
      "hit": false,
      "t": 75576.9130000001,
      "d": 525.8412760416686,
      "v": 67
    },
    {
      "midi": 57,
      "hit": false,
      "t": 75576.9130000001,
      "d": 531.8508906250063,
      "v": 78
    },
    {
      "midi": 54,
      "hit": false,
      "t": 75576.9130000001,
      "d": 552.8845416666736,
      "v": 63
    },
    {
      "midi": 40,
      "hit": false,
      "t": 76150.83119270844,
      "d": 2190.504515624998,
      "v": 75
    },
    {
      "midi": 57,
      "hit": false,
      "t": 76727.75419270844,
      "d": 847.3556562500016,
      "v": 78
    },
    {
      "midi": 61,
      "hit": false,
      "t": 76727.75419270844,
      "d": 901.4421874999971,
      "v": 53
    },
    {
      "midi": 52,
      "hit": false,
      "t": 76727.75419270844,
      "d": 946.5142968750006,
      "v": 63
    },
    {
      "midi": 57,
      "hit": false,
      "t": 77884.60500000011,
      "d": 570.9133854166575,
      "v": 90
    },
    {
      "midi": 61,
      "hit": false,
      "t": 77884.60500000011,
      "d": 588.942229166656,
      "v": 59
    },
    {
      "midi": 52,
      "hit": false,
      "t": 77884.60500000011,
      "d": 624.999916666653,
      "v": 73
    },
    {
      "midi": 40,
      "hit": false,
      "t": 78461.52800000011,
      "d": 1631.6103593750013,
      "v": 75
    },
    {
      "midi": 59,
      "hit": false,
      "t": 79035.44619270843,
      "d": 946.5142968750006,
      "v": 67
    },
    {
      "midi": 52,
      "hit": false,
      "t": 79035.44619270843,
      "d": 970.5527552083367,
      "v": 71
    },
    {
      "midi": 56,
      "hit": false,
      "t": 79038.4510000001,
      "d": 964.5431406249991,
      "v": 69
    },
    {
      "midi": 59,
      "hit": false,
      "t": 80189.29219270844,
      "d": 405.6489843750023,
      "v": 71
    },
    {
      "midi": 56,
      "hit": false,
      "t": 80189.29219270844,
      "d": 423.6778281250008,
      "v": 67
    },
    {
      "midi": 52,
      "hit": false,
      "t": 80189.29219270844,
      "d": 444.71147916666814,
      "v": 67
    },
    {
      "midi": 40,
      "hit": false,
      "t": 80189.29219270844,
      "d": 573.9181927083409,
      "v": 75
    },
    {
      "midi": 45,
      "hit": false,
      "t": 80766.21519270845,
      "d": 1030.6489010416553,
      "v": 75
    },
    {
      "midi": 52,
      "hit": false,
      "t": 81343.13819270844,
      "d": 261.4182343749999,
      "v": 78
    },
    {
      "midi": 57,
      "hit": false,
      "t": 81346.14300000011,
      "d": 270.43265624999185,
      "v": 69
    },
    {
      "midi": 61,
      "hit": false,
      "t": 81346.14300000011,
      "d": 270.43265624999185,
      "v": 51
    },
    {
      "midi": 38,
      "hit": false,
      "t": 81917.05638541677,
      "d": 1177.8844583333412,
      "v": 83
    },
    {
      "midi": 54,
      "hit": false,
      "t": 81923.06600000011,
      "d": 393.62975520832697,
      "v": 47
    },
    {
      "midi": 62,
      "hit": false,
      "t": 81926.07080729178,
      "d": 378.6057187499973,
      "v": 30
    },
    {
      "midi": 57,
      "hit": false,
      "t": 81926.07080729178,
      "d": 396.6345624999958,
      "v": 47
    },
    {
      "midi": 62,
      "hit": false,
      "t": 82496.98419270843,
      "d": 330.52880208333954,
      "v": 78
    },
    {
      "midi": 57,
      "hit": false,
      "t": 82496.98419270843,
      "d": 387.62014062500384,
      "v": 88
    },
    {
      "midi": 54,
      "hit": false,
      "t": 82499.9890000001,
      "d": 360.57687499999884,
      "v": 47
    },
    {
      "midi": 45,
      "hit": false,
      "t": 83073.90719270844,
      "d": 339.5432239583315,
      "v": 93
    },
    {
      "midi": 57,
      "hit": false,
      "t": 83076.91200000011,
      "d": 270.43265624999185,
      "v": 86
    },
    {
      "midi": 61,
      "hit": false,
      "t": 83076.91200000011,
      "d": 294.471114583328,
      "v": 65
    },
    {
      "midi": 52,
      "hit": false,
      "t": 83076.91200000011,
      "d": 300.4807291666657,
      "v": 73
    },
    {
      "midi": 40,
      "hit": false,
      "t": 83653.83500000011,
      "d": 561.8989635416656,
      "v": 91
    },
    {
      "midi": 42,
      "hit": false,
      "t": 84230.7580000001,
      "d": 549.8797343750048,
      "v": 77
    },
    {
      "midi": 44,
      "hit": false,
      "t": 84801.67138541678,
      "d": 510.81723958333896,
      "v": 79
    },
    {
      "midi": 45,
      "hit": false,
      "t": 85384.60400000011,
      "d": 2175.480479166654,
      "v": 87
    },
    {
      "midi": 61,
      "hit": false,
      "t": 85958.52219270843,
      "d": 802.2835468749981,
      "v": 59
    },
    {
      "midi": 57,
      "hit": false,
      "t": 85958.52219270843,
      "d": 805.288354166667,
      "v": 84
    },
    {
      "midi": 52,
      "hit": false,
      "t": 85958.52219270843,
      "d": 880.4085364583298,
      "v": 57
    },
    {
      "midi": 57,
      "hit": false,
      "t": 87112.36819270843,
      "d": 474.759552083342,
      "v": 92
    },
    {
      "midi": 52,
      "hit": false,
      "t": 87112.36819270843,
      "d": 477.7643593750108,
      "v": 74
    },
    {
      "midi": 61,
      "hit": false,
      "t": 87112.36819270843,
      "d": 480.76916666667967,
      "v": 74
    },
    {
      "midi": 37,
      "hit": false,
      "t": 87689.29119270844,
      "d": 1604.5670937499963,
      "v": 75
    },
    {
      "midi": 56,
      "hit": false,
      "t": 88266.21419270843,
      "d": 940.5046822916629,
      "v": 82
    },
    {
      "midi": 61,
      "hit": false,
      "t": 88266.21419270843,
      "d": 961.5383333333302,
      "v": 78
    },
    {
      "midi": 53,
      "hit": false,
      "t": 88266.21419270843,
      "d": 967.5479479166679,
      "v": 82
    },
    {
      "midi": 61,
      "hit": false,
      "t": 89423.0650000001,
      "d": 480.7691666666651,
      "v": 74
    },
    {
      "midi": 56,
      "hit": false,
      "t": 89423.0650000001,
      "d": 498.7980104166636,
      "v": 80
    },
    {
      "midi": 53,
      "hit": false,
      "t": 89423.0650000001,
      "d": 513.8220468749932,
      "v": 74
    },
    {
      "midi": 37,
      "hit": false,
      "t": 89423.0650000001,
      "d": 540.8653124999983,
      "v": 71
    },
    {
      "midi": 38,
      "hit": false,
      "t": 89999.9880000001,
      "d": 1947.1151249999966,
      "v": 99
    },
    {
      "midi": 62,
      "hit": false,
      "t": 90573.90619270843,
      "d": 826.3220052083343,
      "v": 67
    },
    {
      "midi": 54,
      "hit": false,
      "t": 90573.90619270843,
      "d": 850.3604635416705,
      "v": 67
    },
    {
      "midi": 57,
      "hit": false,
      "t": 90576.9110000001,
      "d": 748.1970156250027,
      "v": 92
    },
    {
      "midi": 57,
      "hit": false,
      "t": 91727.75219270843,
      "d": 772.2354739583243,
      "v": 88
    },
    {
      "midi": 62,
      "hit": false,
      "t": 91727.75219270843,
      "d": 772.2354739583243,
      "v": 73
    },
    {
      "midi": 54,
      "hit": false,
      "t": 91727.75219270843,
      "d": 817.3075833333278,
      "v": 76
    },
    {
      "midi": 38,
      "hit": false,
      "t": 92301.67038541676,
      "d": 871.3941145833378,
      "v": 77
    },
    {
      "midi": 62,
      "hit": false,
      "t": 92881.59819270842,
      "d": 519.8316614583455,
      "v": 88
    },
    {
      "midi": 54,
      "hit": false,
      "t": 92881.59819270842,
      "d": 555.8893489583425,
      "v": 82
    },
    {
      "midi": 57,
      "hit": false,
      "t": 92881.59819270842,
      "d": 624.9999166666821,
      "v": 90
    },
    {
      "midi": 37,
      "hit": false,
      "t": 93458.52119270843,
      "d": 579.9278072916786,
      "v": 69
    },
    {
      "midi": 61,
      "hit": false,
      "t": 93458.52119270843,
      "d": 606.9710729166836,
      "v": 82
    },
    {
      "midi": 59,
      "hit": false,
      "t": 94035.44419270844,
      "d": 519.8316614583455,
      "v": 90
    },
    {
      "midi": 35,
      "hit": false,
      "t": 94035.44419270844,
      "d": 543.8701197916816,
      "v": 83
    },
    {
      "midi": 33,
      "hit": false,
      "t": 94612.36719270845,
      "d": 1920.0718593750062,
      "v": 79
    },
    {
      "midi": 57,
      "hit": false,
      "t": 95189.29019270845,
      "d": 847.3556562500016,
      "v": 80
    },
    {
      "midi": 61,
      "hit": false,
      "t": 95189.29019270845,
      "d": 862.3796927083313,
      "v": 47
    },
    {
      "midi": 52,
      "hit": false,
      "t": 95189.29019270845,
      "d": 904.4469947916659,
      "v": 61
    },
    {
      "midi": 52,
      "hit": false,
      "t": 96343.13619270845,
      "d": 447.716286458337,
      "v": 57
    },
    {
      "midi": 61,
      "hit": false,
      "t": 96343.13619270845,
      "d": 492.7883958333405,
      "v": 49
    },
    {
      "midi": 57,
      "hit": false,
      "t": 96346.14100000012,
      "d": 453.72590104167466,
      "v": 76
    },
    {
      "midi": 42,
      "hit": false,
      "t": 96917.05438541679,
      "d": 1604.5670937499817,
      "v": 56
    },
    {
      "midi": 58,
      "hit": false,
      "t": 97496.98219270846,
      "d": 835.3364270833263,
      "v": 84
    },
    {
      "midi": 61,
      "hit": false,
      "t": 97496.98219270846,
      "d": 850.3604635416559,
      "v": 65
    },
    {
      "midi": 54,
      "hit": false,
      "t": 97496.98219270846,
      "d": 913.4614166666579,
      "v": 59
    },
    {
      "midi": 42,
      "hit": false,
      "t": 98650.82819270845,
      "d": 576.9229999999952,
      "v": 75
    },
    {
      "midi": 58,
      "hit": false,
      "t": 98653.83300000012,
      "d": 402.6441770833335,
      "v": 82
    },
    {
      "midi": 61,
      "hit": false,
      "t": 98653.83300000012,
      "d": 402.6441770833335,
      "v": 67
    },
    {
      "midi": 54,
      "hit": false,
      "t": 98653.83300000012,
      "d": 417.66821354166314,
      "v": 71
    },
    {
      "midi": 35,
      "hit": false,
      "t": 99227.75119270844,
      "d": 2274.6391197916673,
      "v": 79
    },
    {
      "midi": 63,
      "hit": false,
      "t": 99801.66938541677,
      "d": 841.3460416666785,
      "v": 63
    },
    {
      "midi": 59,
      "hit": false,
      "t": 99804.67419270844,
      "d": 790.2643177083373,
      "v": 90
    },
    {
      "midi": 54,
      "hit": false,
      "t": 99804.67419270844,
      "d": 877.4037291666755,
      "v": 59
    },
    {
      "midi": 63,
      "hit": false,
      "t": 100961.52500000011,
      "d": 321.514380208333,
      "v": 61
    },
    {
      "midi": 54,
      "hit": false,
      "t": 100961.52500000011,
      "d": 453.7259010416601,
      "v": 76
    },
    {
      "midi": 59,
      "hit": false,
      "t": 100961.52500000011,
      "d": 459.7355156249978,
      "v": 92
    },
    {
      "midi": 40,
      "hit": false,
      "t": 101535.44319270844,
      "d": 531.8508906250063,
      "v": 97
    },
    {
      "midi": 59,
      "hit": false,
      "t": 102112.36619270845,
      "d": 799.2787395833293,
      "v": 63
    },
    {
      "midi": 56,
      "hit": false,
      "t": 102115.37100000012,
      "d": 763.2210520833323,
      "v": 51
    },
    {
      "midi": 52,
      "hit": false,
      "t": 102115.37100000012,
      "d": 805.288354166667,
      "v": 57
    },
    {
      "midi": 40,
      "hit": false,
      "t": 102493.97671875011,
      "d": 264.4230416666687,
      "v": 75
    },
    {
      "midi": 42,
      "hit": false,
      "t": 102692.29400000011,
      "d": 564.9037708333344,
      "v": 69
    },
    {
      "midi": 59,
      "hit": false,
      "t": 103266.21219270845,
      "d": 474.759552083342,
      "v": 80
    },
    {
      "midi": 44,
      "hit": false,
      "t": 103266.21219270845,
      "d": 631.0095312500052,
      "v": 77
    },
    {
      "midi": 56,
      "hit": false,
      "t": 103269.21700000012,
      "d": 486.7787812500028,
      "v": 76
    },
    {
      "midi": 52,
      "hit": false,
      "t": 103269.21700000012,
      "d": 609.9758802083379,
      "v": 71
    },
    {
      "midi": 45,
      "hit": false,
      "t": 103846.14000000013,
      "d": 2274.6391197916673,
      "v": 73
    },
    {
      "midi": 61,
      "hit": false,
      "t": 104420.05819270846,
      "d": 856.3700781249936,
      "v": 73
    },
    {
      "midi": 57,
      "hit": false,
      "t": 104420.05819270846,
      "d": 877.4037291666609,
      "v": 92
    },
    {
      "midi": 52,
      "hit": false,
      "t": 104420.05819270846,
      "d": 925.4806458333333,
      "v": 74
    },
    {
      "midi": 57,
      "hit": false,
      "t": 105576.90900000013,
      "d": 528.8460833333374,
      "v": 88
    },
    {
      "midi": 52,
      "hit": false,
      "t": 105576.90900000013,
      "d": 546.8749270833359,
      "v": 73
    },
    {
      "midi": 61,
      "hit": false,
      "t": 105576.90900000013,
      "d": 552.8845416666736,
      "v": 59
    },
    {
      "midi": 37,
      "hit": false,
      "t": 106153.83200000014,
      "d": 1751.802651041682,
      "v": 75
    },
    {
      "midi": 61,
      "hit": false,
      "t": 106724.74538541681,
      "d": 988.5815989583352,
      "v": 51
    },
    {
      "midi": 56,
      "hit": false,
      "t": 106727.75019270848,
      "d": 964.5431406249991,
      "v": 78
    },
    {
      "midi": 53,
      "hit": false,
      "t": 106727.75019270848,
      "d": 1009.6152500000026,
      "v": 47
    },
    {
      "midi": 61,
      "hit": false,
      "t": 107881.59619270849,
      "d": 510.81723958333896,
      "v": 61
    },
    {
      "midi": 53,
      "hit": false,
      "t": 107881.59619270849,
      "d": 534.8556979166751,
      "v": 67
    },
    {
      "midi": 56,
      "hit": false,
      "t": 107884.60100000016,
      "d": 483.77397395833395,
      "v": 78
    },
    {
      "midi": 38,
      "hit": false,
      "t": 108458.5191927085,
      "d": 2094.3506822916534,
      "v": 81
    },
    {
      "midi": 57,
      "hit": false,
      "t": 109035.44219270849,
      "d": 802.2835468749981,
      "v": 90
    },
    {
      "midi": 62,
      "hit": false,
      "t": 109035.44219270849,
      "d": 853.3652708333248,
      "v": 69
    },
    {
      "midi": 54,
      "hit": false,
      "t": 109035.44219270849,
      "d": 916.4662239583267,
      "v": 67
    },
    {
      "midi": 57,
      "hit": false,
      "t": 110192.29300000015,
      "d": 658.0527968749957,
      "v": 98
    },
    {
      "midi": 62,
      "hit": false,
      "t": 110192.29300000015,
      "d": 682.0912552083319,
      "v": 88
    },
    {
      "midi": 54,
      "hit": false,
      "t": 110192.29300000015,
      "d": 712.1393281250057,
      "v": 78
    },
    {
      "midi": 38,
      "hit": false,
      "t": 110766.21119270848,
      "d": 922.475838541679,
      "v": 93
    },
    {
      "midi": 62,
      "hit": false,
      "t": 111343.13419270849,
      "d": 540.8653124999983,
      "v": 78
    },
    {
      "midi": 54,
      "hit": false,
      "t": 111343.13419270849,
      "d": 543.8701197916671,
      "v": 78
    },
    {
      "midi": 57,
      "hit": false,
      "t": 111343.13419270849,
      "d": 631.0095312499907,
      "v": 94
    },
    {
      "midi": 61,
      "hit": false,
      "t": 111920.05719270848,
      "d": 573.9181927083264,
      "v": 78
    },
    {
      "midi": 37,
      "hit": false,
      "t": 111920.05719270848,
      "d": 591.9470364583249,
      "v": 75
    },
    {
      "midi": 59,
      "hit": false,
      "t": 112496.98019270848,
      "d": 531.8508906249917,
      "v": 71
    },
    {
      "midi": 35,
      "hit": false,
      "t": 112496.98019270848,
      "d": 576.9229999999952,
      "v": 83
    },
    {
      "midi": 33,
      "hit": false,
      "t": 113070.8983854168,
      "d": 1850.9612916666665,
      "v": 73
    },
    {
      "midi": 61,
      "hit": false,
      "t": 113650.82619270847,
      "d": 709.1345208333369,
      "v": 55
    },
    {
      "midi": 52,
      "hit": false,
      "t": 113650.82619270847,
      "d": 844.3508489583328,
      "v": 67
    },
    {
      "midi": 57,
      "hit": false,
      "t": 113653.83100000014,
      "d": 745.1922083333338,
      "v": 71
    },
    {
      "midi": 57,
      "hit": false,
      "t": 114804.67219270847,
      "d": 492.7883958333405,
      "v": 88
    },
    {
      "midi": 61,
      "hit": false,
      "t": 114804.67219270847,
      "d": 519.8316614583455,
      "v": 51
    },
    {
      "midi": 52,
      "hit": false,
      "t": 114804.67219270847,
      "d": 528.846083333352,
      "v": 65
    },
    {
      "midi": 33,
      "hit": false,
      "t": 115189.28752604181,
      "d": 273.43746354167524,
      "v": 65
    },
    {
      "midi": 40,
      "hit": false,
      "t": 115384.60000000015,
      "d": 2295.6727708333347,
      "v": 73
    },
    {
      "midi": 56,
      "hit": false,
      "t": 115958.51819270848,
      "d": 850.3604635416705,
      "v": 73
    },
    {
      "midi": 59,
      "hit": false,
      "t": 115958.51819270848,
      "d": 850.3604635416705,
      "v": 65
    },
    {
      "midi": 52,
      "hit": false,
      "t": 115958.51819270848,
      "d": 874.3989218750066,
      "v": 61
    },
    {
      "midi": 52,
      "hit": false,
      "t": 117115.36900000015,
      "d": 423.6778281250008,
      "v": 67
    },
    {
      "midi": 56,
      "hit": false,
      "t": 117115.36900000015,
      "d": 438.70186458333046,
      "v": 61
    },
    {
      "midi": 59,
      "hit": false,
      "t": 117115.36900000015,
      "d": 441.7066718749993,
      "v": 71
    },
    {
      "midi": 37,
      "hit": false,
      "t": 117689.28719270849,
      "d": 2127.4035624999815,
      "v": 73
    },
    {
      "midi": 56,
      "hit": false,
      "t": 118266.21019270849,
      "d": 916.4662239583267,
      "v": 80
    },
    {
      "midi": 61,
      "hit": false,
      "t": 118266.21019270849,
      "d": 937.4998749999941,
      "v": 67
    },
    {
      "midi": 53,
      "hit": false,
      "t": 118266.21019270849,
      "d": 955.5287187499925,
      "v": 71
    },
    {
      "midi": 53,
      "hit": false,
      "t": 119420.05619270848,
      "d": 540.8653124999983,
      "v": 63
    },
    {
      "midi": 61,
      "hit": false,
      "t": 119420.05619270848,
      "d": 564.9037708333344,
      "v": 59
    },
    {
      "midi": 56,
      "hit": false,
      "t": 119423.06100000015,
      "d": 531.8508906249917,
      "v": 65
    },
    {
      "midi": 42,
      "hit": false,
      "t": 119996.97919270847,
      "d": 907.4518020833348,
      "v": 71
    },
    {
      "midi": 54,
      "hit": false,
      "t": 120570.8973854168,
      "d": 832.3316197916574,
      "v": 63
    },
    {
      "midi": 58,
      "hit": false,
      "t": 120573.90219270847,
      "d": 775.2402812499931,
      "v": 78
    },
    {
      "midi": 61,
      "hit": false,
      "t": 120573.90219270847,
      "d": 811.2979687499901,
      "v": 57
    },
    {
      "midi": 40,
      "hit": false,
      "t": 120955.51271875013,
      "d": 228.3653541666572,
      "v": 81
    },
    {
      "midi": 42,
      "hit": false,
      "t": 121147.8203854168,
      "d": 426.68263541666965,
      "v": 54
    },
    {
      "midi": 40,
      "hit": false,
      "t": 121532.43571875013,
      "d": 249.39900520832452,
      "v": 77
    },
    {
      "midi": 42,
      "hit": false,
      "t": 121727.74819270846,
      "d": 399.63936979166465,
      "v": 69
    },
    {
      "midi": 58,
      "hit": false,
      "t": 121727.74819270846,
      "d": 507.8124322916701,
      "v": 71
    },
    {
      "midi": 54,
      "hit": false,
      "t": 121727.74819270846,
      "d": 525.8412760416686,
      "v": 63
    },
    {
      "midi": 61,
      "hit": false,
      "t": 121730.75300000013,
      "d": 483.77397395833395,
      "v": 59
    },
    {
      "midi": 40,
      "hit": false,
      "t": 122109.35871875013,
      "d": 240.38458333333256,
      "v": 85
    },
    {
      "midi": 38,
      "hit": false,
      "t": 122304.67119270845,
      "d": 2298.677578125018,
      "v": 87
    },
    {
      "midi": 57,
      "hit": false,
      "t": 122881.59419270846,
      "d": 982.5719843749976,
      "v": 98
    },
    {
      "midi": 62,
      "hit": false,
      "t": 122881.59419270846,
      "d": 1012.6200572916714,
      "v": 82
    },
    {
      "midi": 54,
      "hit": false,
      "t": 122881.59419270846,
      "d": 1039.6633229166764,
      "v": 74
    },
    {
      "midi": 62,
      "hit": false,
      "t": 124035.44019270847,
      "d": 462.7403229166666,
      "v": 67
    },
    {
      "midi": 57,
      "hit": false,
      "t": 124035.44019270847,
      "d": 486.7787812500028,
      "v": 74
    },
    {
      "midi": 54,
      "hit": false,
      "t": 124035.44019270847,
      "d": 516.8268541666766,
      "v": 63
    },
    {
      "midi": 40,
      "hit": false,
      "t": 124612.36319270848,
      "d": 2214.5429739583487,
      "v": 79
    },
    {
      "midi": 56,
      "hit": false,
      "t": 125189.28619270847,
      "d": 907.4518020833348,
      "v": 63
    },
    {
      "midi": 59,
      "hit": false,
      "t": 125189.28619270847,
      "d": 928.4854531250021,
      "v": 69
    },
    {
      "midi": 52,
      "hit": false,
      "t": 125189.28619270847,
      "d": 958.5335260416759,
      "v": 57
    },
    {
      "midi": 59,
      "hit": false,
      "t": 126346.13700000015,
      "d": 447.716286458337,
      "v": 55
    },
    {
      "midi": 56,
      "hit": false,
      "t": 126346.13700000015,
      "d": 453.72590104167466,
      "v": 51
    },
    {
      "midi": 52,
      "hit": false,
      "t": 126346.13700000015,
      "d": 492.7883958333405,
      "v": 71
    },
    {
      "midi": 45,
      "hit": false,
      "t": 126917.05038541682,
      "d": 1201.9229166666773,
      "v": 81
    },
    {
      "midi": 61,
      "hit": false,
      "t": 127499.98300000015,
      "d": 480.7691666666651,
      "v": 55
    },
    {
      "midi": 52,
      "hit": false,
      "t": 127499.98300000015,
      "d": 501.80281770833244,
      "v": 59
    },
    {
      "midi": 57,
      "hit": false,
      "t": 127499.98300000015,
      "d": 504.8076250000013,
      "v": 76
    },
    {
      "midi": 38,
      "hit": false,
      "t": 128073.9011927085,
      "d": 1141.8267708333442,
      "v": 85
    },
    {
      "midi": 54,
      "hit": false,
      "t": 128647.81938541683,
      "d": 552.8845416666736,
      "v": 71
    },
    {
      "midi": 62,
      "hit": false,
      "t": 128650.8241927085,
      "d": 489.78358854167163,
      "v": 76
    },
    {
      "midi": 57,
      "hit": false,
      "t": 128650.8241927085,
      "d": 576.9229999999952,
      "v": 96
    },
    {
      "midi": 45,
      "hit": false,
      "t": 129230.75200000017,
      "d": 342.54803125000035,
      "v": 97
    },
    {
      "midi": 40,
      "hit": false,
      "t": 129804.67019270851,
      "d": 600.9614583333314,
      "v": 101
    },
    {
      "midi": 42,
      "hit": false,
      "t": 130381.5931927085,
      "d": 588.9422291666706,
      "v": 81
    },
    {
      "midi": 44,
      "hit": false,
      "t": 130958.51619270851,
      "d": 634.0143385416595,
      "v": 85
    },
    {
      "midi": 45,
      "hit": false,
      "t": 131538.44400000016,
      "d": 1030.6489010416844,
      "v": 81
    },
    {
      "midi": 57,
      "hit": false,
      "t": 132112.3621927085,
      "d": 919.4710312500247,
      "v": 92
    },
    {
      "midi": 52,
      "hit": false,
      "t": 132112.3621927085,
      "d": 949.519104166684,
      "v": 74
    },
    {
      "midi": 61,
      "hit": false,
      "t": 132112.3621927085,
      "d": 949.519104166684,
      "v": 69
    },
    {
      "midi": 45,
      "hit": false,
      "t": 132692.29000000018,
      "d": 1123.7979270833312,
      "v": 83
    },
    {
      "midi": 61,
      "hit": false,
      "t": 133266.20819270852,
      "d": 543.8701197916525,
      "v": 67
    },
    {
      "midi": 57,
      "hit": false,
      "t": 133266.20819270852,
      "d": 549.8797343749902,
      "v": 90
    },
    {
      "midi": 52,
      "hit": false,
      "t": 133266.20819270852,
      "d": 567.9085781250033,
      "v": 74
    },
    {
      "midi": 37,
      "hit": false,
      "t": 133843.13119270853,
      "d": 1024.6392864583468,
      "v": 77
    },
    {
      "midi": 56,
      "hit": false,
      "t": 134420.05419270854,
      "d": 970.5527552083367,
      "v": 82
    },
    {
      "midi": 61,
      "hit": false,
      "t": 134420.05419270854,
      "d": 1000.600828124996,
      "v": 67
    },
    {
      "midi": 53,
      "hit": false,
      "t": 134420.05419270854,
      "d": 1015.6248645833402,
      "v": 74
    },
    {
      "midi": 37,
      "hit": false,
      "t": 134996.97719270855,
      "d": 1066.7065885416814,
      "v": 73
    },
    {
      "midi": 61,
      "hit": false,
      "t": 135573.90019270856,
      "d": 501.802817708347,
      "v": 67
    },
    {
      "midi": 53,
      "hit": false,
      "t": 135573.90019270856,
      "d": 513.8220468750224,
      "v": 71
    },
    {
      "midi": 56,
      "hit": false,
      "t": 135576.90500000023,
      "d": 498.79801041667815,
      "v": 78
    },
    {
      "midi": 38,
      "hit": false,
      "t": 136147.81838541693,
      "d": 1030.6489010416844,
      "v": 79
    },
    {
      "midi": 62,
      "hit": false,
      "t": 136727.7461927086,
      "d": 958.5335260416905,
      "v": 67
    },
    {
      "midi": 57,
      "hit": false,
      "t": 136727.7461927086,
      "d": 967.547947916697,
      "v": 92
    },
    {
      "midi": 54,
      "hit": false,
      "t": 136727.7461927086,
      "d": 1039.663322916691,
      "v": 63
    },
    {
      "midi": 38,
      "hit": false,
      "t": 137304.66919270862,
      "d": 1051.6825520833372,
      "v": 75
    },
    {
      "midi": 57,
      "hit": false,
      "t": 137884.5970000003,
      "d": 700.1200989583158,
      "v": 90
    },
    {
      "midi": 62,
      "hit": false,
      "t": 137884.5970000003,
      "d": 730.1681718749751,
      "v": 80
    },
    {
      "midi": 54,
      "hit": false,
      "t": 137884.5970000003,
      "d": 799.2787395833002,
      "v": 78
    },
    {
      "midi": 38,
      "hit": false,
      "t": 138461.52000000028,
      "d": 868.3893072916544,
      "v": 79
    },
    {
      "midi": 62,
      "hit": false,
      "t": 139035.4381927086,
      "d": 528.8460833333374,
      "v": 59
    },
    {
      "midi": 54,
      "hit": false,
      "t": 139035.4381927086,
      "d": 603.9662656250002,
      "v": 69
    },
    {
      "midi": 57,
      "hit": false,
      "t": 139035.4381927086,
      "d": 634.0143385416595,
      "v": 90
    },
    {
      "midi": 38,
      "hit": false,
      "t": 139420.05352604194,
      "d": 252.4038124999788,
      "v": 81
    },
    {
      "midi": 61,
      "hit": false,
      "t": 139612.3611927086,
      "d": 576.9229999999807,
      "v": 80
    },
    {
      "midi": 37,
      "hit": false,
      "t": 139612.3611927086,
      "d": 579.9278072916495,
      "v": 81
    },
    {
      "midi": 35,
      "hit": false,
      "t": 140186.2793854169,
      "d": 628.004723958351,
      "v": 95
    },
    {
      "midi": 59,
      "hit": false,
      "t": 140189.28419270858,
      "d": 453.72590104167466,
      "v": 82
    },
    {
      "midi": 33,
      "hit": false,
      "t": 140766.2071927086,
      "d": 2262.6198906250065,
      "v": 81
    },
    {
      "midi": 57,
      "hit": false,
      "t": 141346.13500000027,
      "d": 706.1297135416535,
      "v": 61
    },
    {
      "midi": 61,
      "hit": false,
      "t": 141346.13500000027,
      "d": 784.2547031249851,
      "v": 53
    },
    {
      "midi": 52,
      "hit": false,
      "t": 141346.13500000027,
      "d": 820.3123906249821,
      "v": 55
    },
    {
      "midi": 57,
      "hit": false,
      "t": 142496.9761927086,
      "d": 444.71147916666814,
      "v": 92
    },
    {
      "midi": 61,
      "hit": false,
      "t": 142496.9761927086,
      "d": 477.7643593749963,
      "v": 71
    },
    {
      "midi": 52,
      "hit": false,
      "t": 142496.9761927086,
      "d": 522.8364687499998,
      "v": 67
    },
    {
      "midi": 40,
      "hit": false,
      "t": 143073.8991927086,
      "d": 1793.8699531250168,
      "v": 77
    },
    {
      "midi": 56,
      "hit": false,
      "t": 143650.8221927086,
      "d": 805.288354166667,
      "v": 71
    },
    {
      "midi": 59,
      "hit": false,
      "t": 143650.8221927086,
      "d": 823.31719791668,
      "v": 59
    },
    {
      "midi": 52,
      "hit": false,
      "t": 143650.8221927086,
      "d": 844.3508489583328,
      "v": 55
    },
    {
      "midi": 50,
      "hit": false,
      "t": 144804.6681927086,
      "d": 393.6297552083561,
      "v": 74
    },
    {
      "midi": 38,
      "hit": false,
      "t": 144804.6681927086,
      "d": 606.9710729166691,
      "v": 95
    },
    {
      "midi": 59,
      "hit": false,
      "t": 144807.67300000027,
      "d": 417.6682135416777,
      "v": 71
    },
    {
      "midi": 56,
      "hit": false,
      "t": 144807.67300000027,
      "d": 459.73551562501234,
      "v": 80
    },
    {
      "midi": 37,
      "hit": false,
      "t": 145381.5911927086,
      "d": 2178.485286458337,
      "v": 75
    },
    {
      "midi": 56,
      "hit": false,
      "t": 145958.5141927086,
      "d": 937.4998750000086,
      "v": 63
    },
    {
      "midi": 61,
      "hit": false,
      "t": 145958.5141927086,
      "d": 970.5527552083367,
      "v": 51
    },
    {
      "midi": 53,
      "hit": false,
      "t": 145958.5141927086,
      "d": 979.5671770833433,
      "v": 55
    },
    {
      "midi": 61,
      "hit": false,
      "t": 147112.3601927086,
      "d": 561.8989635416656,
      "v": 67
    },
    {
      "midi": 56,
      "hit": false,
      "t": 147112.3601927086,
      "d": 564.9037708333344,
      "v": 78
    },
    {
      "midi": 53,
      "hit": false,
      "t": 147112.3601927086,
      "d": 567.9085781250033,
      "v": 63
    },
    {
      "midi": 42,
      "hit": false,
      "t": 147689.28319270862,
      "d": 1060.6969739583437,
      "v": 73
    },
    {
      "midi": 61,
      "hit": false,
      "t": 148263.20138541696,
      "d": 829.3268125000177,
      "v": 61
    },
    {
      "midi": 58,
      "hit": false,
      "t": 148263.20138541696,
      "d": 874.3989218750212,
      "v": 78
    },
    {
      "midi": 54,
      "hit": false,
      "t": 148263.20138541696,
      "d": 880.4085364583589,
      "v": 65
    },
    {
      "midi": 42,
      "hit": false,
      "t": 148840.12438541697,
      "d": 1144.831578125013,
      "v": 69
    },
    {
      "midi": 61,
      "hit": false,
      "t": 149420.05219270865,
      "d": 486.7787812500028,
      "v": 67
    },
    {
      "midi": 54,
      "hit": false,
      "t": 149420.05219270865,
      "d": 510.8172395833244,
      "v": 71
    },
    {
      "midi": 58,
      "hit": false,
      "t": 149420.05219270865,
      "d": 525.8412760416686,
      "v": 84
    },
    {
      "midi": 38,
      "hit": false,
      "t": 149996.97519270866,
      "d": 1932.091088541667,
      "v": 77
    },
    {
      "midi": 57,
      "hit": false,
      "t": 150573.89819270867,
      "d": 937.4998750000086,
      "v": 94
    },
    {
      "midi": 62,
      "hit": false,
      "t": 150573.89819270867,
      "d": 958.5335260416614,
      "v": 67
    },
    {
      "midi": 54,
      "hit": false,
      "t": 150573.89819270867,
      "d": 991.5864062499895,
      "v": 73
    },
    {
      "midi": 62,
      "hit": false,
      "t": 151727.74419270866,
      "d": 564.9037708333344,
      "v": 69
    },
    {
      "midi": 57,
      "hit": false,
      "t": 151727.74419270866,
      "d": 570.9133854166721,
      "v": 86
    },
    {
      "midi": 54,
      "hit": false,
      "t": 151727.74419270866,
      "d": 600.9614583333314,
      "v": 73
    },
    {
      "midi": 38,
      "hit": false,
      "t": 152112.35952604198,
      "d": 246.39419791667024,
      "v": 75
    },
    {
      "midi": 40,
      "hit": false,
      "t": 152304.66719270867,
      "d": 1592.54786458335,
      "v": 89
    },
    {
      "midi": 56,
      "hit": false,
      "t": 152881.59019270865,
      "d": 931.4902604166709,
      "v": 57
    },
    {
      "midi": 59,
      "hit": false,
      "t": 152881.59019270865,
      "d": 937.4998750000086,
      "v": 49
    },
    {
      "midi": 52,
      "hit": false,
      "t": 152881.59019270865,
      "d": 955.5287187500217,
      "v": 49
    },
    {
      "midi": 59,
      "hit": false,
      "t": 154035.4361927087,
      "d": 441.7066718749993,
      "v": 63
    },
    {
      "midi": 52,
      "hit": false,
      "t": 154035.4361927087,
      "d": 450.7210937500058,
      "v": 67
    },
    {
      "midi": 56,
      "hit": false,
      "t": 154035.4361927087,
      "d": 459.73551562501234,
      "v": 71
    },
    {
      "midi": 40,
      "hit": false,
      "t": 154035.4361927087,
      "d": 628.004723958351,
      "v": 83
    },
    {
      "midi": 45,
      "hit": false,
      "t": 154615.36400000038,
      "d": 1177.8844583333703,
      "v": 75
    },
    {
      "midi": 52,
      "hit": false,
      "t": 155192.2870000004,
      "d": 501.802817708347,
      "v": 57
    },
    {
      "midi": 57,
      "hit": false,
      "t": 155192.2870000004,
      "d": 510.8172395833535,
      "v": 71
    },
    {
      "midi": 61,
      "hit": false,
      "t": 155192.2870000004,
      "d": 513.8220468750224,
      "v": 51
    },
    {
      "midi": 38,
      "hit": false,
      "t": 155766.20519270876,
      "d": 1144.831578124984,
      "v": 75
    },
    {
      "midi": 62,
      "hit": false,
      "t": 156343.12819270874,
      "d": 423.67782812498626,
      "v": 59
    },
    {
      "midi": 57,
      "hit": false,
      "t": 156343.12819270874,
      "d": 438.70186458333046,
      "v": 82
    },
    {
      "midi": 54,
      "hit": false,
      "t": 156343.12819270874,
      "d": 453.72590104167466,
      "v": 65
    },
    {
      "midi": 45,
      "hit": false,
      "t": 156920.05119270875,
      "d": 1165.865229166695,
      "v": 79
    },
    {
      "midi": 61,
      "hit": false,
      "t": 157496.97419270876,
      "d": 294.47111458334257,
      "v": 57
    },
    {
      "midi": 57,
      "hit": false,
      "t": 157496.97419270876,
      "d": 327.5239947916707,
      "v": 86
    },
    {
      "midi": 52,
      "hit": false,
      "t": 157496.97419270876,
      "d": 366.5864895833365,
      "v": 71
    },
    {
      "midi": 56,
      "hit": false,
      "t": 158073.89719270877,
      "d": 387.6201406250184,
      "v": 40
    },
    {
      "midi": 47,
      "hit": false,
      "t": 158073.89719270877,
      "d": 456.7307083333435,
      "v": 81
    },
    {
      "midi": 52,
      "hit": false,
      "t": 158076.90200000044,
      "d": 375.60091145834303,
      "v": 37
    },
    {
      "midi": 59,
      "hit": false,
      "t": 158076.90200000044,
      "d": 384.61533333334955,
      "v": 59
    },
    {
      "midi": 59,
      "hit": false,
      "t": 158647.8153854171,
      "d": 309.49515104165766,
      "v": 74
    },
    {
      "midi": 56,
      "hit": false,
      "t": 158647.8153854171,
      "d": 321.514380208333,
      "v": 76
    },
    {
      "midi": 52,
      "hit": false,
      "t": 158647.8153854171,
      "d": 330.52880208333954,
      "v": 73
    },
    {
      "midi": 40,
      "hit": false,
      "t": 158653.82500000045,
      "d": 546.8749270833214,
      "v": 89
    },
    {
      "midi": 45,
      "hit": false,
      "t": 159227.74319270876,
      "d": 2175.4804791666684,
      "v": 73
    },
    {
      "midi": 52,
      "hit": false,
      "t": 159230.74800000043,
      "d": 2223.5573958333116,
      "v": 74
    },
    {
      "midi": 61,
      "hit": false,
      "t": 159230.74800000043,
      "d": 2226.5622031249804,
      "v": 59
    },
    {
      "midi": 57,
      "hit": false,
      "t": 159233.7528072921,
      "d": 2196.514130208321,
      "v": 51
    }
  ]
}