{
  "jsonPath": "Unknown/Unknown/Jewish Traditional/raisins-and-almonds.json",
  "path": "Unknown\\Unknown\\Jewish Traditional\\Raisins and Almonds.mid",
  "name": "Raisins and Almonds",
  "difficulty": "Advanced",
  "bpm": 100,
  "notes": [
    {
      "midi": 60,
      "hit": false,
      "t": 600,
      "d": 600,
      "v": 74
    },
    {
      "midi": 63,
      "hit": false,
      "t": 1200,
      "d": 600,
      "v": 71
    },
    {
      "midi": 63,
      "hit": false,
      "t": 1800,
      "d": 600,
      "v": 87
    },
    {
      "midi": 67,
      "hit": false,
      "t": 1800,
      "d": 600,
      "v": 87
    },
    {
      "midi": 48,
      "hit": false,
      "t": 1800,
      "d": 600,
      "v": 65
    },
    {
      "midi": 63,
      "hit": false,
      "t": 2400,
      "d": 600,
      "v": 74
    },
    {
      "midi": 67,
      "hit": false,
      "t": 2400,
      "d": 600,
      "v": 74
    },
    {
      "midi": 51,
      "hit": false,
      "t": 2400,
      "d": 600,
      "v": 76
    },
    {
      "midi": 55,
      "hit": false,
      "t": 2400,
      "d": 600,
      "v": 76
    },
    {
      "midi": 63,
      "hit": false,
      "t": 3000,
      "d": 600,
      "v": 78
    },
    {
      "midi": 67,
      "hit": false,
      "t": 3000,
      "d": 600,
      "v": 78
    },
    {
      "midi": 51,
      "hit": false,
      "t": 3000,
      "d": 600,
      "v": 78
    },
    {
      "midi": 55,
      "hit": false,
      "t": 3000,
      "d": 600,
      "v": 78
    },
    {
      "midi": 67,
      "hit": false,
      "t": 3600,
      "d": 600,
      "v": 80
    },
    {
      "midi": 48,
      "hit": false,
      "t": 3600,
      "d": 600,
      "v": 68
    },
    {
      "midi": 60,
      "hit": false,
      "t": 4200,
      "d": 300,
      "v": 69
    },
    {
      "midi": 63,
      "hit": false,
      "t": 4200,
      "d": 300,
      "v": 69
    },
    {
      "midi": 51,
      "hit": false,
      "t": 4200,
      "d": 600,
      "v": 81
    },
    {
      "midi": 55,
      "hit": false,
      "t": 4200,
      "d": 600,
      "v": 81
    },
    {
      "midi": 62,
      "hit": false,
      "t": 4500,
      "d": 300,
      "v": 71
    },
    {
      "midi": 65,
      "hit": false,
      "t": 4500,
      "d": 300,
      "v": 71
    },
    {
      "midi": 60,
      "hit": false,
      "t": 4800,
      "d": 300,
      "v": 73
    },
    {
      "midi": 63,
      "hit": false,
      "t": 4800,
      "d": 300,
      "v": 73
    },
    {
      "midi": 51,
      "hit": false,
      "t": 4800,
      "d": 600,
      "v": 78
    },
    {
      "midi": 55,
      "hit": false,
      "t": 4800,
      "d": 600,
      "v": 78
    },
    {
      "midi": 62,
      "hit": false,
      "t": 5100,
      "d": 300,
      "v": 81
    },
    {
      "midi": 65,
      "hit": false,
      "t": 5100,
      "d": 300,
      "v": 81
    },
    {
      "midi": 67,
      "hit": false,
      "t": 5400,
      "d": 600,
      "v": 80
    },
    {
      "midi": 48,
      "hit": false,
      "t": 5400,
      "d": 600,
      "v": 67
    },
    {
      "midi": 60,
      "hit": false,
      "t": 6000,
      "d": 600,
      "v": 67
    },
    {
      "midi": 63,
      "hit": false,
      "t": 6000,
      "d": 600,
      "v": 67
    },
    {
      "midi": 51,
      "hit": false,
      "t": 6000,
      "d": 600,
      "v": 79
    },
    {
      "midi": 60,
      "hit": false,
      "t": 6600,
      "d": 600,
      "v": 75
    },
    {
      "midi": 63,
      "hit": false,
      "t": 6600,
      "d": 600,
      "v": 75
    },
    {
      "midi": 55,
      "hit": false,
      "t": 6600,
      "d": 600,
      "v": 83
    },
    {
      "midi": 48,
      "hit": false,
      "t": 7200,
      "d": 600,
      "v": 69
    },
    {
      "midi": 60,
      "hit": false,
      "t": 7800,
      "d": 600,
      "v": 63
    },
    {
      "midi": 63,
      "hit": false,
      "t": 8400,
      "d": 600,
      "v": 79
    },
    {
      "midi": 63,
      "hit": false,
      "t": 9000,
      "d": 600,
      "v": 87
    },
    {
      "midi": 67,
      "hit": false,
      "t": 9000,
      "d": 600,
      "v": 87
    },
    {
      "midi": 48,
      "hit": false,
      "t": 9000,
      "d": 600,
      "v": 65
    },
    {
      "midi": 63,
      "hit": false,
      "t": 9600,
      "d": 600,
      "v": 75
    },
    {
      "midi": 67,
      "hit": false,
      "t": 9600,
      "d": 600,
      "v": 75
    },
    {
      "midi": 51,
      "hit": false,
      "t": 9600,
      "d": 600,
      "v": 85
    },
    {
      "midi": 55,
      "hit": false,
      "t": 9600,
      "d": 600,
      "v": 85
    },
    {
      "midi": 63,
      "hit": false,
      "t": 10200,
      "d": 600,
      "v": 75
    },
    {
      "midi": 67,
      "hit": false,
      "t": 10200,
      "d": 600,
      "v": 75
    },
    {
      "midi": 51,
      "hit": false,
      "t": 10200,
      "d": 600,
      "v": 73
    },
    {
      "midi": 55,
      "hit": false,
      "t": 10200,
      "d": 600,
      "v": 73
    },
    {
      "midi": 67,
      "hit": false,
      "t": 10800,
      "d": 600,
      "v": 76
    },
    {
      "midi": 48,
      "hit": false,
      "t": 10800,
      "d": 600,
      "v": 73
    },
    {
      "midi": 60,
      "hit": false,
      "t": 11400,
      "d": 300,
      "v": 73
    },
    {
      "midi": 63,
      "hit": false,
      "t": 11400,
      "d": 300,
      "v": 73
    },
    {
      "midi": 51,
      "hit": false,
      "t": 11400,
      "d": 600,
      "v": 80
    },
    {
      "midi": 55,
      "hit": false,
      "t": 11400,
      "d": 600,
      "v": 80
    },
    {
      "midi": 62,
      "hit": false,
      "t": 11700,
      "d": 300,
      "v": 68
    },
    {
      "midi": 65,
      "hit": false,
      "t": 11700,
      "d": 300,
      "v": 68
    },
    {
      "midi": 60,
      "hit": false,
      "t": 12000,
      "d": 300,
      "v": 65
    },
    {
      "midi": 63,
      "hit": false,
      "t": 12000,
      "d": 300,
      "v": 65
    },
    {
      "midi": 51,
      "hit": false,
      "t": 12000,
      "d": 600,
      "v": 74
    },
    {
      "midi": 55,
      "hit": false,
      "t": 12000,
      "d": 600,
      "v": 74
    },
    {
      "midi": 62,
      "hit": false,
      "t": 12300,
      "d": 300,
      "v": 81
    },
    {
      "midi": 65,
      "hit": false,
      "t": 12300,
      "d": 300,
      "v": 81
    },
    {
      "midi": 67,
      "hit": false,
      "t": 12600,
      "d": 600,
      "v": 83
    },
    {
      "midi": 48,
      "hit": false,
      "t": 12600,
      "d": 600,
      "v": 68
    },
    {
      "midi": 60,
      "hit": false,
      "t": 13200,
      "d": 1200,
      "v": 68
    },
    {
      "midi": 63,
      "hit": false,
      "t": 13200,
      "d": 1200,
      "v": 68
    },
    {
      "midi": 51,
      "hit": false,
      "t": 13200,
      "d": 600,
      "v": 73
    },
    {
      "midi": 55,
      "hit": false,
      "t": 13800,
      "d": 600,
      "v": 81
    },
    {
      "midi": 67,
      "hit": false,
      "t": 14400,
      "d": 600,
      "v": 76
    },
    {
      "midi": 48,
      "hit": false,
      "t": 14400,
      "d": 1200,
      "v": 69
    },
    {
      "midi": 60,
      "hit": false,
      "t": 15000,
      "d": 600,
      "v": 81
    },
    {
      "midi": 63,
      "hit": false,
      "t": 15000,
      "d": 600,
      "v": 81
    },
    {
      "midi": 60,
      "hit": false,
      "t": 15600,
      "d": 600,
      "v": 77
    },
    {
      "midi": 63,
      "hit": false,
      "t": 15600,
      "d": 600,
      "v": 77
    },
    {
      "midi": 67,
      "hit": false,
      "t": 15600,
      "d": 600,
      "v": 76
    },
    {
      "midi": 51,
      "hit": false,
      "t": 15600,
      "d": 600,
      "v": 79
    },
    {
      "midi": 62,
      "hit": false,
      "t": 16200,
      "d": 300,
      "v": 66
    },
    {
      "midi": 41,
      "hit": false,
      "t": 16200,
      "d": 600,
      "v": 67
    },
    {
      "midi": 62,
      "hit": false,
      "t": 16500,
      "d": 300,
      "v": 74
    },
    {
      "midi": 56,
      "hit": false,
      "t": 16800,
      "d": 600,
      "v": 79
    },
    {
      "midi": 62,
      "hit": false,
      "t": 16800,
      "d": 600,
      "v": 77
    },
    {
      "midi": 48,
      "hit": false,
      "t": 16800,
      "d": 600,
      "v": 84
    },
    {
      "midi": 53,
      "hit": false,
      "t": 16800,
      "d": 600,
      "v": 84
    },
    {
      "midi": 63,
      "hit": false,
      "t": 17400,
      "d": 300,
      "v": 84
    },
    {
      "midi": 48,
      "hit": false,
      "t": 17400,
      "d": 600,
      "v": 80
    },
    {
      "midi": 53,
      "hit": false,
      "t": 17400,
      "d": 600,
      "v": 80
    },
    {
      "midi": 63,
      "hit": false,
      "t": 17700,
      "d": 300,
      "v": 77
    },
    {
      "midi": 59,
      "hit": false,
      "t": 18000,
      "d": 600,
      "v": 79
    },
    {
      "midi": 65,
      "hit": false,
      "t": 18000,
      "d": 600,
      "v": 79
    },
    {
      "midi": 43,
      "hit": false,
      "t": 18000,
      "d": 600,
      "v": 70
    },
    {
      "midi": 59,
      "hit": false,
      "t": 18600,
      "d": 600,
      "v": 70
    },
    {
      "midi": 63,
      "hit": false,
      "t": 18600,
      "d": 600,
      "v": 70
    },
    {
      "midi": 53,
      "hit": false,
      "t": 18600,
      "d": 600,
      "v": 84
    },
    {
      "midi": 59,
      "hit": false,
      "t": 19200,
      "d": 600,
      "v": 70
    },
    {
      "midi": 62,
      "hit": false,
      "t": 19200,
      "d": 600,
      "v": 70
    },
    {
      "midi": 50,
      "hit": false,
      "t": 19200,
      "d": 600,
      "v": 79
    },
    {
      "midi": 53,
      "hit": false,
      "t": 19200,
      "d": 600,
      "v": 79
    },
    {
      "midi": 60,
      "hit": false,
      "t": 19800,
      "d": 600,
      "v": 85
    },
    {
      "midi": 63,
      "hit": false,
      "t": 19800,
      "d": 600,
      "v": 85
    },
    {
      "midi": 48,
      "hit": false,
      "t": 19800,
      "d": 600,
      "v": 76
    },
    {
      "midi": 55,
      "hit": false,
      "t": 20400,
      "d": 2400,
      "v": 65
    },
    {
      "midi": 60,
      "hit": false,
      "t": 20400,
      "d": 2400,
      "v": 65
    },
    {
      "midi": 43,
      "hit": false,
      "t": 20400,
      "d": 600,
      "v": 72
    },
    {
      "midi": 36,
      "hit": false,
      "t": 21000,
      "d": 600,
      "v": 72
    },
    {
      "midi": 36,
      "hit": false,
      "t": 21600,
      "d": 600,
      "v": 77
    },
    {
      "midi": 43,
      "hit": false,
      "t": 22200,
      "d": 600,
      "v": 80
    },
    {
      "midi": 48,
      "hit": false,
      "t": 22800,
      "d": 600,
      "v": 81
    },
    {
      "midi": 65,
      "hit": false,
      "t": 23400,
      "d": 1200,
      "v": 93
    },
    {
      "midi": 68,
      "hit": false,
      "t": 23400,
      "d": 1200,
      "v": 93
    },
    {
      "midi": 41,
      "hit": false,
      "t": 23400,
      "d": 300,
      "v": 70
    },
    {
      "midi": 48,
      "hit": false,
      "t": 23700,
      "d": 300,
      "v": 84
    },
    {
      "midi": 50,
      "hit": false,
      "t": 24000,
      "d": 300,
      "v": 83
    },
    {
      "midi": 56,
      "hit": false,
      "t": 24300,
      "d": 300,
      "v": 82
    },
    {
      "midi": 65,
      "hit": false,
      "t": 24600,
      "d": 600,
      "v": 77
    },
    {
      "midi": 68,
      "hit": false,
      "t": 24600,
      "d": 600,
      "v": 77
    },
    {
      "midi": 60,
      "hit": false,
      "t": 24600,
      "d": 600,
      "v": 84
    },
    {
      "midi": 65,
      "hit": false,
      "t": 25200,
      "d": 600,
      "v": 76
    },
    {
      "midi": 68,
      "hit": false,
      "t": 25200,
      "d": 600,
      "v": 76
    },
    {
      "midi": 41,
      "hit": false,
      "t": 25200,
      "d": 300,
      "v": 70
    },
    {
      "midi": 48,
      "hit": false,
      "t": 25500,
      "d": 300,
      "v": 83
    },
    {
      "midi": 65,
      "hit": false,
      "t": 25800,
      "d": 600,
      "v": 88
    },
    {
      "midi": 71,
      "hit": false,
      "t": 25800,
      "d": 600,
      "v": 88
    },
    {
      "midi": 50,
      "hit": false,
      "t": 25800,
      "d": 300,
      "v": 79
    },
    {
      "midi": 56,
      "hit": false,
      "t": 26100,
      "d": 300,
      "v": 85
    },
    {
      "midi": 65,
      "hit": false,
      "t": 26400,
      "d": 600,
      "v": 75
    },
    {
      "midi": 72,
      "hit": false,
      "t": 26400,
      "d": 600,
      "v": 75
    },
    {
      "midi": 60,
      "hit": false,
      "t": 26400,
      "d": 600,
      "v": 83
    },
    {
      "midi": 67,
      "hit": false,
      "t": 27000,
      "d": 600,
      "v": 70
    },
    {
      "midi": 48,
      "hit": false,
      "t": 27000,
      "d": 600,
      "v": 70
    },
    {
      "midi": 60,
      "hit": false,
      "t": 27600,
      "d": 1200,
      "v": 71
    },
    {
      "midi": 63,
      "hit": false,
      "t": 27600,
      "d": 1200,
      "v": 71
    },
    {
      "midi": 51,
      "hit": false,
      "t": 27600,
      "d": 600,
      "v": 78
    },
    {
      "midi": 55,
      "hit": false,
      "t": 28200,
      "d": 600,
      "v": 77
    },
    {
      "midi": 67,
      "hit": false,
      "t": 28800,
      "d": 600,
      "v": 72
    },
    {
      "midi": 48,
      "hit": false,
      "t": 28800,
      "d": 600,
      "v": 71
    },
    {
      "midi": 60,
      "hit": false,
      "t": 29400,
      "d": 600,
      "v": 70
    },
    {
      "midi": 63,
      "hit": false,
      "t": 29400,
      "d": 600,
      "v": 70
    },
    {
      "midi": 51,
      "hit": false,
      "t": 29400,
      "d": 600,
      "v": 77
    },
    {
      "midi": 60,
      "hit": false,
      "t": 30000,
      "d": 600,
      "v": 74
    },
    {
      "midi": 63,
      "hit": false,
      "t": 30000,
      "d": 600,
      "v": 74
    },
    {
      "midi": 55,
      "hit": false,
      "t": 30000,
      "d": 600,
      "v": 79
    },
    {
      "midi": 59,
      "hit": false,
      "t": 30600,
      "d": 1200,
      "v": 67
    },
    {
      "midi": 62,
      "hit": false,
      "t": 30600,
      "d": 1200,
      "v": 67
    },
    {
      "midi": 43,
      "hit": false,
      "t": 30600,
      "d": 300,
      "v": 64
    },
    {
      "midi": 50,
      "hit": false,
      "t": 30900,
      "d": 300,
      "v": 78
    },
    {
      "midi": 53,
      "hit": false,
      "t": 31200,
      "d": 300,
      "v": 79
    },
    {
      "midi": 50,
      "hit": false,
      "t": 31500,
      "d": 300,
      "v": 75
    },
    {
      "midi": 59,
      "hit": false,
      "t": 31800,
      "d": 600,
      "v": 76
    },
    {
      "midi": 63,
      "hit": false,
      "t": 31800,
      "d": 600,
      "v": 76
    },
    {
      "midi": 53,
      "hit": false,
      "t": 31800,
      "d": 300,
      "v": 76
    },
    {
      "midi": 50,
      "hit": false,
      "t": 32100,
      "d": 300,
      "v": 74
    },
    {
      "midi": 59,
      "hit": false,
      "t": 32400,
      "d": 600,
      "v": 82
    },
    {
      "midi": 65,
      "hit": false,
      "t": 32400,
      "d": 600,
      "v": 82
    },
    {
      "midi": 43,
      "hit": false,
      "t": 32400,
      "d": 300,
      "v": 71
    },
    {
      "midi": 50,
      "hit": false,
      "t": 32700,
      "d": 300,
      "v": 85
    },
    {
      "midi": 59,
      "hit": false,
      "t": 33000,
      "d": 600,
      "v": 71
    },
    {
      "midi": 63,
      "hit": false,
      "t": 33000,
      "d": 600,
      "v": 71
    },
    {
      "midi": 53,
      "hit": false,
      "t": 33000,
      "d": 300,
      "v": 82
    },
    {
      "midi": 50,
      "hit": false,
      "t": 33300,
      "d": 300,
      "v": 75
    },
    {
      "midi": 59,
      "hit": false,
      "t": 33600,
      "d": 600,
      "v": 69
    },
    {
      "midi": 62,
      "hit": false,
      "t": 33600,
      "d": 600,
      "v": 69
    },
    {
      "midi": 53,
      "hit": false,
      "t": 33600,
      "d": 300,
      "v": 79
    },
    {
      "midi": 50,
      "hit": false,
      "t": 33900,
      "d": 300,
      "v": 71
    },
    {
      "midi": 60,
      "hit": false,
      "t": 34200,
      "d": 600,
      "v": 76
    },
    {
      "midi": 63,
      "hit": false,
      "t": 34200,
      "d": 600,
      "v": 76
    },
    {
      "midi": 43,
      "hit": false,
      "t": 34200,
      "d": 600,
      "v": 69
    },
    {
      "midi": 60,
      "hit": false,
      "t": 34800,
      "d": 1200,
      "v": 72
    },
    {
      "midi": 48,
      "hit": false,
      "t": 34800,
      "d": 600,
      "v": 86
    },
    {
      "midi": 51,
      "hit": false,
      "t": 34800,
      "d": 600,
      "v": 86
    },
    {
      "midi": 48,
      "hit": false,
      "t": 35400,
      "d": 600,
      "v": 79
    },
    {
      "midi": 51,
      "hit": false,
      "t": 35400,
      "d": 600,
      "v": 79
    },
    {
      "midi": 56,
      "hit": false,
      "t": 36000,
      "d": 1800,
      "v": 73
    },
    {
      "midi": 41,
      "hit": false,
      "t": 36000,
      "d": 600,
      "v": 66
    },
    {
      "midi": 48,
      "hit": false,
      "t": 36600,
      "d": 600,
      "v": 87
    },
    {
      "midi": 53,
      "hit": false,
      "t": 36600,
      "d": 600,
      "v": 87
    },
    {
      "midi": 48,
      "hit": false,
      "t": 37200,
      "d": 600,
      "v": 78
    },
    {
      "midi": 53,
      "hit": false,
      "t": 37200,
      "d": 600,
      "v": 78
    },
    {
      "midi": 67,
      "hit": false,
      "t": 37800,
      "d": 600,
      "v": 88
    },
    {
      "midi": 43,
      "hit": false,
      "t": 37800,
      "d": 600,
      "v": 71
    },
    {
      "midi": 59,
      "hit": false,
      "t": 38400,
      "d": 600,
      "v": 67
    },
    {
      "midi": 65,
      "hit": false,
      "t": 38400,
      "d": 600,
      "v": 67
    },
    {
      "midi": 50,
      "hit": false,
      "t": 38400,
      "d": 600,
      "v": 82
    },
    {
      "midi": 53,
      "hit": false,
      "t": 38400,
      "d": 600,
      "v": 82
    },
    {
      "midi": 55,
      "hit": false,
      "t": 38400,
      "d": 600,
      "v": 82
    },
    {
      "midi": 59,
      "hit": false,
      "t": 39000,
      "d": 600,
      "v": 100
    },
    {
      "midi": 65,
      "hit": false,
      "t": 39000,
      "d": 600,
      "v": 76
    },
    {
      "midi": 67,
      "hit": false,
      "t": 39000,
      "d": 600,
      "v": 85
    },
    {
      "midi": 50,
      "hit": false,
      "t": 39000,
      "d": 600,
      "v": 80
    },
    {
      "midi": 53,
      "hit": false,
      "t": 39000,
      "d": 600,
      "v": 80
    },
    {
      "midi": 55,
      "hit": false,
      "t": 39000,
      "d": 600,
      "v": 80
    },
    {
      "midi": 65,
      "hit": false,
      "t": 39600,
      "d": 600,
      "v": 85
    },
    {
      "midi": 71,
      "hit": false,
      "t": 39600,
      "d": 600,
      "v": 85
    },
    {
      "midi": 43,
      "hit": false,
      "t": 39600,
      "d": 600,
      "v": 70
    },
    {
      "midi": 65,
      "hit": false,
      "t": 40200,
      "d": 600,
      "v": 74
    },
    {
      "midi": 68,
      "hit": false,
      "t": 40200,
      "d": 600,
      "v": 74
    },
    {
      "midi": 50,
      "hit": false,
      "t": 40200,
      "d": 600,
      "v": 86
    },
    {
      "midi": 53,
      "hit": false,
      "t": 40200,
      "d": 600,
      "v": 86
    },
    {
      "midi": 55,
      "hit": false,
      "t": 40200,
      "d": 600,
      "v": 86
    },
    {
      "midi": 65,
      "hit": false,
      "t": 40800,
      "d": 600,
      "v": 70
    },
    {
      "midi": 67,
      "hit": false,
      "t": 40800,
      "d": 600,
      "v": 70
    },
    {
      "midi": 50,
      "hit": false,
      "t": 40800,
      "d": 600,
      "v": 78
    },
    {
      "midi": 53,
      "hit": false,
      "t": 40800,
      "d": 600,
      "v": 78
    },
    {
      "midi": 55,
      "hit": false,
      "t": 40800,
      "d": 600,
      "v": 78
    },
    {
      "midi": 72,
      "hit": false,
      "t": 41400,
      "d": 600,
      "v": 82
    },
    {
      "midi": 48,
      "hit": false,
      "t": 41400,
      "d": 600,
      "v": 71
    },
    {
      "midi": 63,
      "hit": false,
      "t": 42000,
      "d": 600,
      "v": 70
    },
    {
      "midi": 67,
      "hit": false,
      "t": 42000,
      "d": 600,
      "v": 70
    },
    {
      "midi": 51,
      "hit": false,
      "t": 42000,
      "d": 600,
      "v": 85
    },
    {
      "midi": 63,
      "hit": false,
      "t": 42600,
      "d": 600,
      "v": 73
    },
    {
      "midi": 67,
      "hit": false,
      "t": 42600,
      "d": 600,
      "v": 73
    },
    {
      "midi": 55,
      "hit": false,
      "t": 42600,
      "d": 600,
      "v": 80
    },
    {
      "midi": 72,
      "hit": false,
      "t": 43200,
      "d": 600,
      "v": 85
    },
    {
      "midi": 48,
      "hit": false,
      "t": 43200,
      "d": 600,
      "v": 70
    },
    {
      "midi": 63,
      "hit": false,
      "t": 43800,
      "d": 600,
      "v": 65
    },
    {
      "midi": 67,
      "hit": false,
      "t": 43800,
      "d": 600,
      "v": 65
    },
    {
      "midi": 51,
      "hit": false,
      "t": 43800,
      "d": 600,
      "v": 77
    },
    {
      "midi": 63,
      "hit": false,
      "t": 44400,
      "d": 600,
      "v": 74
    },
    {
      "midi": 67,
      "hit": false,
      "t": 44400,
      "d": 600,
      "v": 74
    },
    {
      "midi": 55,
      "hit": false,
      "t": 44400,
      "d": 600,
      "v": 82
    },
    {
      "midi": 67,
      "hit": false,
      "t": 45000,
      "d": 600,
      "v": 63
    },
    {
      "midi": 43,
      "hit": false,
      "t": 45000,
      "d": 600,
      "v": 67
    },
    {
      "midi": 59,
      "hit": false,
      "t": 45600,
      "d": 600,
      "v": 67
    },
    {
      "midi": 65,
      "hit": false,
      "t": 45600,
      "d": 600,
      "v": 67
    },
    {
      "midi": 50,
      "hit": false,
      "t": 45600,
      "d": 600,
      "v": 85
    },
    {
      "midi": 53,
      "hit": false,
      "t": 45600,
      "d": 600,
      "v": 85
    },
    {
      "midi": 55,
      "hit": false,
      "t": 45600,
      "d": 600,
      "v": 85
    },
    {
      "midi": 59,
      "hit": false,
      "t": 46200,
      "d": 600,
      "v": 71
    },
    {
      "midi": 65,
      "hit": false,
      "t": 46200,
      "d": 600,
      "v": 71
    },
    {
      "midi": 67,
      "hit": false,
      "t": 46200,
      "d": 600,
      "v": 73
    },
    {
      "midi": 50,
      "hit": false,
      "t": 46200,
      "d": 600,
      "v": 78
    },
    {
      "midi": 53,
      "hit": false,
      "t": 46200,
      "d": 600,
      "v": 78
    },
    {
      "midi": 55,
      "hit": false,
      "t": 46200,
      "d": 600,
      "v": 78
    },
    {
      "midi": 65,
      "hit": false,
      "t": 46800,
      "d": 600,
      "v": 85
    },
    {
      "midi": 71,
      "hit": false,
      "t": 46800,
      "d": 600,
      "v": 85
    },
    {
      "midi": 43,
      "hit": false,
      "t": 46800,
      "d": 600,
      "v": 60
    },
    {
      "midi": 65,
      "hit": false,
      "t": 47400,
      "d": 600,
      "v": 69
    },
    {
      "midi": 68,
      "hit": false,
      "t": 47400,
      "d": 600,
      "v": 69
    },
    {
      "midi": 50,
      "hit": false,
      "t": 47400,
      "d": 600,
      "v": 83
    },
    {
      "midi": 53,
      "hit": false,
      "t": 47400,
      "d": 600,
      "v": 83
    },
    {
      "midi": 55,
      "hit": false,
      "t": 47400,
      "d": 600,
      "v": 83
    },
    {
      "midi": 65,
      "hit": false,
      "t": 48000,
      "d": 600,
      "v": 74
    },
    {
      "midi": 67,
      "hit": false,
      "t": 48000,
      "d": 600,
      "v": 74
    },
    {
      "midi": 50,
      "hit": false,
      "t": 48000,
      "d": 600,
      "v": 77
    },
    {
      "midi": 53,
      "hit": false,
      "t": 48000,
      "d": 600,
      "v": 77
    },
    {
      "midi": 55,
      "hit": false,
      "t": 48000,
      "d": 600,
      "v": 77
    },
    {
      "midi": 72,
      "hit": false,
      "t": 48600,
      "d": 1800,
      "v": 82
    },
    {
      "midi": 48,
      "hit": false,
      "t": 48600,
      "d": 600,
      "v": 71
    },
    {
      "midi": 43,
      "hit": false,
      "t": 49200,
      "d": 600,
      "v": 71
    },
    {
      "midi": 39,
      "hit": false,
      "t": 49800,
      "d": 600,
      "v": 70
    },
    {
      "midi": 67,
      "hit": false,
      "t": 50400,
      "d": 1800,
      "v": 82
    },
    {
      "midi": 36,
      "hit": false,
      "t": 50400,
      "d": 1800,
      "v": 73
    }
  ]
}