{
  "jsonPath": "Unknown/Unknown/Take That Featuring Lulu/relight-my-fire.json",
  "path": "Unknown\\Unknown\\Take That Featuring Lulu\\Relight My Fire.mid",
  "name": "Relight My Fire",
  "difficulty": "Advanced",
  "bpm": 126.00039060121087,
  "notes": [
    {
      "midi": 55,
      "hit": false,
      "t": 7619.023999999999,
      "d": 238.09450000000015,
      "v": 127
    },
    {
      "midi": 59,
      "hit": false,
      "t": 7619.023999999999,
      "d": 238.09450000000015,
      "v": 127
    },
    {
      "midi": 62,
      "hit": false,
      "t": 7619.023999999999,
      "d": 238.09450000000015,
      "v": 127
    },
    {
      "midi": 28,
      "hit": false,
      "t": 7619.023999999999,
      "d": 476.1890000000003,
      "v": 127
    },
    {
      "midi": 54,
      "hit": false,
      "t": 8095.213,
      "d": 238.09449999999924,
      "v": 127
    },
    {
      "midi": 57,
      "hit": false,
      "t": 8095.213,
      "d": 238.09449999999924,
      "v": 127
    },
    {
      "midi": 62,
      "hit": false,
      "t": 8095.213,
      "d": 238.09449999999924,
      "v": 127
    },
    {
      "midi": 30,
      "hit": false,
      "t": 8095.213,
      "d": 476.1889999999985,
      "v": 127
    },
    {
      "midi": 55,
      "hit": false,
      "t": 8571.401999999998,
      "d": 238.09449999999924,
      "v": 127
    },
    {
      "midi": 59,
      "hit": false,
      "t": 8571.401999999998,
      "d": 238.09449999999924,
      "v": 127
    },
    {
      "midi": 62,
      "hit": false,
      "t": 8571.401999999998,
      "d": 238.09449999999924,
      "v": 127
    },
    {
      "midi": 31,
      "hit": false,
      "t": 8571.401999999998,
      "d": 476.1889999999985,
      "v": 127
    },
    {
      "midi": 33,
      "hit": false,
      "t": 9047.590999999997,
      "d": 357.1417500000007,
      "v": 127
    },
    {
      "midi": 57,
      "hit": false,
      "t": 9047.590999999997,
      "d": 357.1417500000007,
      "v": 127
    },
    {
      "midi": 61,
      "hit": false,
      "t": 9047.590999999997,
      "d": 357.1417500000007,
      "v": 127
    },
    {
      "midi": 64,
      "hit": false,
      "t": 9047.590999999997,
      "d": 357.1417500000007,
      "v": 127
    },
    {
      "midi": 35,
      "hit": false,
      "t": 9404.732749999997,
      "d": 238.09449999999924,
      "v": 127
    },
    {
      "midi": 59,
      "hit": false,
      "t": 9404.732749999997,
      "d": 238.09449999999924,
      "v": 127
    },
    {
      "midi": 62,
      "hit": false,
      "t": 9404.732749999997,
      "d": 238.09449999999924,
      "v": 127
    },
    {
      "midi": 66,
      "hit": false,
      "t": 9404.732749999997,
      "d": 238.09449999999924,
      "v": 127
    },
    {
      "midi": 57,
      "hit": false,
      "t": 9761.874499999996,
      "d": 119.04724999999962,
      "v": 127
    },
    {
      "midi": 61,
      "hit": false,
      "t": 9761.874499999996,
      "d": 119.04724999999962,
      "v": 127
    },
    {
      "midi": 64,
      "hit": false,
      "t": 9761.874499999996,
      "d": 119.04724999999962,
      "v": 127
    },
    {
      "midi": 57,
      "hit": false,
      "t": 9999.968999999996,
      "d": 119.04724999999962,
      "v": 127
    },
    {
      "midi": 61,
      "hit": false,
      "t": 9999.968999999996,
      "d": 119.04724999999962,
      "v": 127
    },
    {
      "midi": 64,
      "hit": false,
      "t": 9999.968999999996,
      "d": 119.04724999999962,
      "v": 127
    },
    {
      "midi": 57,
      "hit": false,
      "t": 10238.063499999995,
      "d": 119.04724999999962,
      "v": 127
    },
    {
      "midi": 61,
      "hit": false,
      "t": 10238.063499999995,
      "d": 119.04724999999962,
      "v": 127
    },
    {
      "midi": 64,
      "hit": false,
      "t": 10238.063499999995,
      "d": 119.04724999999962,
      "v": 127
    },
    {
      "midi": 57,
      "hit": false,
      "t": 10476.157999999994,
      "d": 357.1417500000007,
      "v": 127
    },
    {
      "midi": 61,
      "hit": false,
      "t": 10476.157999999994,
      "d": 357.1417500000007,
      "v": 127
    },
    {
      "midi": 64,
      "hit": false,
      "t": 10476.157999999994,
      "d": 357.1417500000007,
      "v": 127
    },
    {
      "midi": 57,
      "hit": false,
      "t": 10833.299749999995,
      "d": 595.2362499999999,
      "v": 127
    },
    {
      "midi": 62,
      "hit": false,
      "t": 10833.299749999995,
      "d": 595.2362499999999,
      "v": 127
    },
    {
      "midi": 66,
      "hit": false,
      "t": 10833.299749999995,
      "d": 595.2362499999999,
      "v": 127
    },
    {
      "midi": 55,
      "hit": false,
      "t": 11428.535999999995,
      "d": 238.09449999999924,
      "v": 127
    },
    {
      "midi": 59,
      "hit": false,
      "t": 11428.535999999995,
      "d": 238.09449999999924,
      "v": 127
    },
    {
      "midi": 62,
      "hit": false,
      "t": 11428.535999999995,
      "d": 238.09449999999924,
      "v": 127
    },
    {
      "midi": 28,
      "hit": false,
      "t": 11428.535999999995,
      "d": 476.1889999999985,
      "v": 127
    },
    {
      "midi": 54,
      "hit": false,
      "t": 11904.724999999993,
      "d": 238.09449999999924,
      "v": 127
    },
    {
      "midi": 57,
      "hit": false,
      "t": 11904.724999999993,
      "d": 238.09449999999924,
      "v": 127
    },
    {
      "midi": 62,
      "hit": false,
      "t": 11904.724999999993,
      "d": 238.09449999999924,
      "v": 127
    },
    {
      "midi": 30,
      "hit": false,
      "t": 11904.724999999993,
      "d": 476.1889999999985,
      "v": 127
    },
    {
      "midi": 55,
      "hit": false,
      "t": 12380.913999999992,
      "d": 238.09449999999924,
      "v": 127
    },
    {
      "midi": 59,
      "hit": false,
      "t": 12380.913999999992,
      "d": 238.09449999999924,
      "v": 127
    },
    {
      "midi": 62,
      "hit": false,
      "t": 12380.913999999992,
      "d": 238.09449999999924,
      "v": 127
    },
    {
      "midi": 31,
      "hit": false,
      "t": 12380.913999999992,
      "d": 476.1889999999985,
      "v": 127
    },
    {
      "midi": 33,
      "hit": false,
      "t": 12857.10299999999,
      "d": 357.1417500000007,
      "v": 127
    },
    {
      "midi": 57,
      "hit": false,
      "t": 12857.10299999999,
      "d": 357.1417500000007,
      "v": 127
    },
    {
      "midi": 61,
      "hit": false,
      "t": 12857.10299999999,
      "d": 357.1417500000007,
      "v": 127
    },
    {
      "midi": 64,
      "hit": false,
      "t": 12857.10299999999,
      "d": 357.1417500000007,
      "v": 127
    },
    {
      "midi": 35,
      "hit": false,
      "t": 13214.24474999999,
      "d": 238.09449999999924,
      "v": 127
    },
    {
      "midi": 59,
      "hit": false,
      "t": 13214.24474999999,
      "d": 238.09449999999924,
      "v": 127
    },
    {
      "midi": 62,
      "hit": false,
      "t": 13214.24474999999,
      "d": 238.09449999999924,
      "v": 127
    },
    {
      "midi": 66,
      "hit": false,
      "t": 13214.24474999999,
      "d": 238.09449999999924,
      "v": 127
    },
    {
      "midi": 57,
      "hit": false,
      "t": 13571.38649999999,
      "d": 119.04724999999962,
      "v": 127
    },
    {
      "midi": 61,
      "hit": false,
      "t": 13571.38649999999,
      "d": 119.04724999999962,
      "v": 127
    },
    {
      "midi": 64,
      "hit": false,
      "t": 13571.38649999999,
      "d": 119.04724999999962,
      "v": 127
    },
    {
      "midi": 57,
      "hit": false,
      "t": 13809.480999999989,
      "d": 119.04724999999962,
      "v": 127
    },
    {
      "midi": 61,
      "hit": false,
      "t": 13809.480999999989,
      "d": 119.04724999999962,
      "v": 127
    },
    {
      "midi": 64,
      "hit": false,
      "t": 13809.480999999989,
      "d": 119.04724999999962,
      "v": 127
    },
    {
      "midi": 57,
      "hit": false,
      "t": 14047.575499999988,
      "d": 119.04724999999962,
      "v": 127
    },
    {
      "midi": 61,
      "hit": false,
      "t": 14047.575499999988,
      "d": 119.04724999999962,
      "v": 127
    },
    {
      "midi": 64,
      "hit": false,
      "t": 14047.575499999988,
      "d": 119.04724999999962,
      "v": 127
    },
    {
      "midi": 57,
      "hit": false,
      "t": 14285.669999999987,
      "d": 357.1417500000007,
      "v": 127
    },
    {
      "midi": 61,
      "hit": false,
      "t": 14285.669999999987,
      "d": 357.1417500000007,
      "v": 127
    },
    {
      "midi": 64,
      "hit": false,
      "t": 14285.669999999987,
      "d": 357.1417500000007,
      "v": 127
    },
    {
      "midi": 57,
      "hit": false,
      "t": 14642.811749999988,
      "d": 595.2362499999999,
      "v": 127
    },
    {
      "midi": 62,
      "hit": false,
      "t": 14642.811749999988,
      "d": 595.2362499999999,
      "v": 127
    },
    {
      "midi": 66,
      "hit": false,
      "t": 14642.811749999988,
      "d": 595.2362499999999,
      "v": 127
    },
    {
      "midi": 55,
      "hit": false,
      "t": 15238.047999999988,
      "d": 238.09449999999924,
      "v": 127
    },
    {
      "midi": 59,
      "hit": false,
      "t": 15238.047999999988,
      "d": 238.09449999999924,
      "v": 127
    },
    {
      "midi": 62,
      "hit": false,
      "t": 15238.047999999988,
      "d": 238.09449999999924,
      "v": 127
    },
    {
      "midi": 28,
      "hit": false,
      "t": 15238.047999999988,
      "d": 476.1889999999985,
      "v": 127
    },
    {
      "midi": 54,
      "hit": false,
      "t": 15714.236999999986,
      "d": 238.09449999999924,
      "v": 127
    },
    {
      "midi": 57,
      "hit": false,
      "t": 15714.236999999986,
      "d": 238.09449999999924,
      "v": 127
    },
    {
      "midi": 62,
      "hit": false,
      "t": 15714.236999999986,
      "d": 238.09449999999924,
      "v": 127
    },
    {
      "midi": 30,
      "hit": false,
      "t": 15714.236999999986,
      "d": 476.1889999999985,
      "v": 127
    },
    {
      "midi": 55,
      "hit": false,
      "t": 16190.425999999985,
      "d": 238.09449999999924,
      "v": 127
    },
    {
      "midi": 59,
      "hit": false,
      "t": 16190.425999999985,
      "d": 238.09449999999924,
      "v": 127
    },
    {
      "midi": 62,
      "hit": false,
      "t": 16190.425999999985,
      "d": 238.09449999999924,
      "v": 127
    },
    {
      "midi": 31,
      "hit": false,
      "t": 16190.425999999985,
      "d": 476.1889999999985,
      "v": 127
    },
    {
      "midi": 33,
      "hit": false,
      "t": 16666.614999999983,
      "d": 357.14174999999886,
      "v": 127
    },
    {
      "midi": 57,
      "hit": false,
      "t": 16666.614999999983,
      "d": 357.14174999999886,
      "v": 127
    },
    {
      "midi": 61,
      "hit": false,
      "t": 16666.614999999983,
      "d": 357.14174999999886,
      "v": 127
    },
    {
      "midi": 64,
      "hit": false,
      "t": 16666.614999999983,
      "d": 357.14174999999886,
      "v": 127
    },
    {
      "midi": 35,
      "hit": false,
      "t": 17023.756749999982,
      "d": 238.09449999999924,
      "v": 127
    },
    {
      "midi": 59,
      "hit": false,
      "t": 17023.756749999982,
      "d": 238.09449999999924,
      "v": 127
    },
    {
      "midi": 62,
      "hit": false,
      "t": 17023.756749999982,
      "d": 238.09449999999924,
      "v": 127
    },
    {
      "midi": 66,
      "hit": false,
      "t": 17023.756749999982,
      "d": 238.09449999999924,
      "v": 127
    },
    {
      "midi": 57,
      "hit": false,
      "t": 17380.89849999998,
      "d": 119.04724999999962,
      "v": 127
    },
    {
      "midi": 61,
      "hit": false,
      "t": 17380.89849999998,
      "d": 119.04724999999962,
      "v": 127
    },
    {
      "midi": 64,
      "hit": false,
      "t": 17380.89849999998,
      "d": 119.04724999999962,
      "v": 127
    },
    {
      "midi": 57,
      "hit": false,
      "t": 17618.99299999998,
      "d": 119.04724999999962,
      "v": 127
    },
    {
      "midi": 61,
      "hit": false,
      "t": 17618.99299999998,
      "d": 119.04724999999962,
      "v": 127
    },
    {
      "midi": 64,
      "hit": false,
      "t": 17618.99299999998,
      "d": 119.04724999999962,
      "v": 127
    },
    {
      "midi": 57,
      "hit": false,
      "t": 17857.08749999998,
      "d": 119.04724999999962,
      "v": 127
    },
    {
      "midi": 61,
      "hit": false,
      "t": 17857.08749999998,
      "d": 119.04724999999962,
      "v": 127
    },
    {
      "midi": 64,
      "hit": false,
      "t": 17857.08749999998,
      "d": 119.04724999999962,
      "v": 127
    },
    {
      "midi": 57,
      "hit": false,
      "t": 18095.18199999998,
      "d": 357.14174999999886,
      "v": 127
    },
    {
      "midi": 61,
      "hit": false,
      "t": 18095.18199999998,
      "d": 357.14174999999886,
      "v": 127
    },
    {
      "midi": 64,
      "hit": false,
      "t": 18095.18199999998,
      "d": 357.14174999999886,
      "v": 127
    },
    {
      "midi": 57,
      "hit": false,
      "t": 18452.323749999978,
      "d": 595.2362500000017,
      "v": 127
    },
    {
      "midi": 62,
      "hit": false,
      "t": 18452.323749999978,
      "d": 595.2362500000017,
      "v": 127
    },
    {
      "midi": 66,
      "hit": false,
      "t": 18452.323749999978,
      "d": 595.2362500000017,
      "v": 127
    },
    {
      "midi": 59,
      "hit": false,
      "t": 19047.55999999998,
      "d": 357.14174999999886,
      "v": 127
    },
    {
      "midi": 62,
      "hit": false,
      "t": 19047.55999999998,
      "d": 357.14174999999886,
      "v": 127
    },
    {
      "midi": 66,
      "hit": false,
      "t": 19047.55999999998,
      "d": 357.14174999999886,
      "v": 127
    },
    {
      "midi": 59,
      "hit": false,
      "t": 19523.748999999978,
      "d": 357.14174999999886,
      "v": 127
    },
    {
      "midi": 62,
      "hit": false,
      "t": 19523.748999999978,
      "d": 357.14174999999886,
      "v": 127
    },
    {
      "midi": 66,
      "hit": false,
      "t": 19523.748999999978,
      "d": 357.14174999999886,
      "v": 127
    },
    {
      "midi": 59,
      "hit": false,
      "t": 19999.937999999976,
      "d": 357.14174999999886,
      "v": 127
    },
    {
      "midi": 62,
      "hit": false,
      "t": 19999.937999999976,
      "d": 357.14174999999886,
      "v": 127
    },
    {
      "midi": 66,
      "hit": false,
      "t": 19999.937999999976,
      "d": 357.14174999999886,
      "v": 127
    },
    {
      "midi": 59,
      "hit": false,
      "t": 20476.126999999975,
      "d": 357.14174999999886,
      "v": 127
    },
    {
      "midi": 62,
      "hit": false,
      "t": 20476.126999999975,
      "d": 357.14174999999886,
      "v": 127
    },
    {
      "midi": 66,
      "hit": false,
      "t": 20476.126999999975,
      "d": 357.14174999999886,
      "v": 127
    },
    {
      "midi": 59,
      "hit": false,
      "t": 20952.315999999973,
      "d": 357.14174999999886,
      "v": 127
    },
    {
      "midi": 62,
      "hit": false,
      "t": 20952.315999999973,
      "d": 357.14174999999886,
      "v": 127
    },
    {
      "midi": 66,
      "hit": false,
      "t": 20952.315999999973,
      "d": 357.14174999999886,
      "v": 127
    },
    {
      "midi": 59,
      "hit": false,
      "t": 21428.504999999972,
      "d": 357.14174999999886,
      "v": 127
    },
    {
      "midi": 62,
      "hit": false,
      "t": 21428.504999999972,
      "d": 357.14174999999886,
      "v": 127
    },
    {
      "midi": 66,
      "hit": false,
      "t": 21428.504999999972,
      "d": 357.14174999999886,
      "v": 127
    },
    {
      "midi": 57,
      "hit": false,
      "t": 22142.78849999997,
      "d": 238.09449999999924,
      "v": 127
    },
    {
      "midi": 61,
      "hit": false,
      "t": 22142.78849999997,
      "d": 238.09449999999924,
      "v": 127
    },
    {
      "midi": 64,
      "hit": false,
      "t": 22142.78849999997,
      "d": 238.09449999999924,
      "v": 127
    },
    {
      "midi": 59,
      "hit": false,
      "t": 22618.977499999968,
      "d": 357.14174999999886,
      "v": 127
    },
    {
      "midi": 64,
      "hit": false,
      "t": 22618.977499999968,
      "d": 357.14174999999886,
      "v": 127
    },
    {
      "midi": 66,
      "hit": false,
      "t": 22618.977499999968,
      "d": 357.14174999999886,
      "v": 127
    },
    {
      "midi": 59,
      "hit": false,
      "t": 23095.166499999967,
      "d": 119.04724999999962,
      "v": 127
    },
    {
      "midi": 64,
      "hit": false,
      "t": 23095.166499999967,
      "d": 119.04724999999962,
      "v": 127
    },
    {
      "midi": 66,
      "hit": false,
      "t": 23095.166499999967,
      "d": 119.04724999999962,
      "v": 127
    },
    {
      "midi": 59,
      "hit": false,
      "t": 23333.260999999966,
      "d": 357.14174999999886,
      "v": 127
    },
    {
      "midi": 64,
      "hit": false,
      "t": 23333.260999999966,
      "d": 357.14174999999886,
      "v": 127
    },
    {
      "midi": 66,
      "hit": false,
      "t": 23333.260999999966,
      "d": 357.14174999999886,
      "v": 127
    },
    {
      "midi": 59,
      "hit": false,
      "t": 23809.449999999964,
      "d": 119.04724999999962,
      "v": 127
    },
    {
      "midi": 64,
      "hit": false,
      "t": 23809.449999999964,
      "d": 119.04724999999962,
      "v": 127
    },
    {
      "midi": 66,
      "hit": false,
      "t": 23809.449999999964,
      "d": 119.04724999999962,
      "v": 127
    },
    {
      "midi": 59,
      "hit": false,
      "t": 24047.544499999964,
      "d": 357.14174999999886,
      "v": 127
    },
    {
      "midi": 64,
      "hit": false,
      "t": 24047.544499999964,
      "d": 357.14174999999886,
      "v": 127
    },
    {
      "midi": 66,
      "hit": false,
      "t": 24047.544499999964,
      "d": 357.14174999999886,
      "v": 127
    },
    {
      "midi": 59,
      "hit": false,
      "t": 24523.733499999962,
      "d": 357.14174999999886,
      "v": 127
    },
    {
      "midi": 63,
      "hit": false,
      "t": 24523.733499999962,
      "d": 357.14174999999886,
      "v": 127
    },
    {
      "midi": 66,
      "hit": false,
      "t": 24523.733499999962,
      "d": 357.14174999999886,
      "v": 127
    },
    {
      "midi": 59,
      "hit": false,
      "t": 24999.92249999996,
      "d": 119.04724999999962,
      "v": 127
    },
    {
      "midi": 63,
      "hit": false,
      "t": 24999.92249999996,
      "d": 119.04724999999962,
      "v": 127
    },
    {
      "midi": 66,
      "hit": false,
      "t": 24999.92249999996,
      "d": 119.04724999999962,
      "v": 127
    },
    {
      "midi": 59,
      "hit": false,
      "t": 25238.01699999996,
      "d": 357.14174999999886,
      "v": 127
    },
    {
      "midi": 63,
      "hit": false,
      "t": 25238.01699999996,
      "d": 357.14174999999886,
      "v": 127
    },
    {
      "midi": 66,
      "hit": false,
      "t": 25238.01699999996,
      "d": 357.14174999999886,
      "v": 127
    },
    {
      "midi": 59,
      "hit": false,
      "t": 25714.20599999996,
      "d": 119.04724999999962,
      "v": 127
    },
    {
      "midi": 63,
      "hit": false,
      "t": 25714.20599999996,
      "d": 119.04724999999962,
      "v": 127
    },
    {
      "midi": 66,
      "hit": false,
      "t": 25714.20599999996,
      "d": 119.04724999999962,
      "v": 127
    },
    {
      "midi": 59,
      "hit": false,
      "t": 25952.300499999958,
      "d": 714.2835000000014,
      "v": 127
    },
    {
      "midi": 63,
      "hit": false,
      "t": 25952.300499999958,
      "d": 714.2835000000014,
      "v": 127
    },
    {
      "midi": 66,
      "hit": false,
      "t": 25952.300499999958,
      "d": 714.2835000000014,
      "v": 127
    },
    {
      "midi": 57,
      "hit": false,
      "t": 26666.58399999996,
      "d": 238.09449999999924,
      "v": 127
    },
    {
      "midi": 62,
      "hit": false,
      "t": 26666.58399999996,
      "d": 238.09449999999924,
      "v": 127
    },
    {
      "midi": 66,
      "hit": false,
      "t": 26666.58399999996,
      "d": 238.09449999999924,
      "v": 127
    },
    {
      "midi": 47,
      "hit": false,
      "t": 26904.678499999958,
      "d": 119.04724999999962,
      "v": 122
    },
    {
      "midi": 57,
      "hit": false,
      "t": 27023.725749999958,
      "d": 119.04724999999962,
      "v": 127
    },
    {
      "midi": 61,
      "hit": false,
      "t": 27023.725749999958,
      "d": 119.04724999999962,
      "v": 127
    },
    {
      "midi": 64,
      "hit": false,
      "t": 27023.725749999958,
      "d": 119.04724999999962,
      "v": 127
    },
    {
      "midi": 45,
      "hit": false,
      "t": 27380.867499999957,
      "d": 119.04724999999962,
      "v": 122
    },
    {
      "midi": 57,
      "hit": false,
      "t": 27618.961999999956,
      "d": 238.09449999999924,
      "v": 127
    },
    {
      "midi": 61,
      "hit": false,
      "t": 27618.961999999956,
      "d": 238.09449999999924,
      "v": 127
    },
    {
      "midi": 64,
      "hit": false,
      "t": 27618.961999999956,
      "d": 238.09449999999924,
      "v": 127
    },
    {
      "midi": 47,
      "hit": false,
      "t": 27857.056499999955,
      "d": 119.04724999999962,
      "v": 122
    },
    {
      "midi": 57,
      "hit": false,
      "t": 27976.103749999955,
      "d": 119.04724999999962,
      "v": 127
    },
    {
      "midi": 62,
      "hit": false,
      "t": 27976.103749999955,
      "d": 119.04724999999962,
      "v": 127
    },
    {
      "midi": 66,
      "hit": false,
      "t": 27976.103749999955,
      "d": 119.04724999999962,
      "v": 127
    },
    {
      "midi": 45,
      "hit": false,
      "t": 28333.245499999954,
      "d": 119.04724999999962,
      "v": 122
    },
    {
      "midi": 40,
      "hit": false,
      "t": 28809.434499999952,
      "d": 119.04724999999962,
      "v": 122
    },
    {
      "midi": 40,
      "hit": false,
      "t": 29285.62349999995,
      "d": 119.04724999999962,
      "v": 122
    },
    {
      "midi": 45,
      "hit": false,
      "t": 29761.81249999995,
      "d": 119.04724999999962,
      "v": 122
    },
    {
      "midi": 47,
      "hit": false,
      "t": 30238.001499999948,
      "d": 119.04724999999962,
      "v": 122
    },
    {
      "midi": 57,
      "hit": false,
      "t": 30476.095999999947,
      "d": 238.09449999999924,
      "v": 127
    },
    {
      "midi": 62,
      "hit": false,
      "t": 30476.095999999947,
      "d": 238.09449999999924,
      "v": 127
    },
    {
      "midi": 66,
      "hit": false,
      "t": 30476.095999999947,
      "d": 238.09449999999924,
      "v": 127
    },
    {
      "midi": 35,
      "hit": false,
      "t": 30714.190499999946,
      "d": 119.04724999999962,
      "v": 122
    },
    {
      "midi": 57,
      "hit": false,
      "t": 30833.237749999946,
      "d": 119.04724999999962,
      "v": 127
    },
    {
      "midi": 61,
      "hit": false,
      "t": 30833.237749999946,
      "d": 119.04724999999962,
      "v": 127
    },
    {
      "midi": 64,
      "hit": false,
      "t": 30833.237749999946,
      "d": 119.04724999999962,
      "v": 127
    },
    {
      "midi": 37,
      "hit": false,
      "t": 31190.379499999945,
      "d": 119.04724999999962,
      "v": 122
    },
    {
      "midi": 57,
      "hit": false,
      "t": 31428.473999999944,
      "d": 238.09449999999924,
      "v": 127
    },
    {
      "midi": 61,
      "hit": false,
      "t": 31428.473999999944,
      "d": 238.09449999999924,
      "v": 127
    },
    {
      "midi": 64,
      "hit": false,
      "t": 31428.473999999944,
      "d": 238.09449999999924,
      "v": 127
    },
    {
      "midi": 38,
      "hit": false,
      "t": 31666.568499999943,
      "d": 119.04724999999962,
      "v": 122
    },
    {
      "midi": 57,
      "hit": false,
      "t": 31785.615749999943,
      "d": 119.04724999999962,
      "v": 127
    },
    {
      "midi": 59,
      "hit": false,
      "t": 31785.615749999943,
      "d": 119.04724999999962,
      "v": 127
    },
    {
      "midi": 62,
      "hit": false,
      "t": 31785.615749999943,
      "d": 119.04724999999962,
      "v": 127
    },
    {
      "midi": 42,
      "hit": false,
      "t": 32142.75749999994,
      "d": 119.04724999999962,
      "v": 122
    },
    {
      "midi": 40,
      "hit": false,
      "t": 32618.94649999994,
      "d": 119.04724999999962,
      "v": 122
    },
    {
      "midi": 40,
      "hit": false,
      "t": 33095.13549999994,
      "d": 119.04725000000326,
      "v": 122
    },
    {
      "midi": 45,
      "hit": false,
      "t": 33571.324499999944,
      "d": 119.04725000000326,
      "v": 122
    },
    {
      "midi": 47,
      "hit": false,
      "t": 34047.51349999995,
      "d": 119.04725000000326,
      "v": 122
    },
    {
      "midi": 57,
      "hit": false,
      "t": 34285.60799999996,
      "d": 238.09449999999924,
      "v": 127
    },
    {
      "midi": 62,
      "hit": false,
      "t": 34285.60799999996,
      "d": 238.09449999999924,
      "v": 127
    },
    {
      "midi": 66,
      "hit": false,
      "t": 34285.60799999996,
      "d": 238.09449999999924,
      "v": 127
    },
    {
      "midi": 47,
      "hit": false,
      "t": 34523.702499999956,
      "d": 119.04725000000326,
      "v": 122
    },
    {
      "midi": 57,
      "hit": false,
      "t": 34642.74974999996,
      "d": 119.04725000000326,
      "v": 127
    },
    {
      "midi": 61,
      "hit": false,
      "t": 34642.74974999996,
      "d": 119.04725000000326,
      "v": 127
    },
    {
      "midi": 64,
      "hit": false,
      "t": 34642.74974999996,
      "d": 119.04725000000326,
      "v": 127
    },
    {
      "midi": 45,
      "hit": false,
      "t": 34999.89149999996,
      "d": 119.04725000000326,
      "v": 122
    },
    {
      "midi": 57,
      "hit": false,
      "t": 35237.98599999997,
      "d": 238.09449999999924,
      "v": 127
    },
    {
      "midi": 61,
      "hit": false,
      "t": 35237.98599999997,
      "d": 238.09449999999924,
      "v": 127
    },
    {
      "midi": 64,
      "hit": false,
      "t": 35237.98599999997,
      "d": 238.09449999999924,
      "v": 127
    },
    {
      "midi": 47,
      "hit": false,
      "t": 35476.08049999997,
      "d": 119.04725000000326,
      "v": 122
    },
    {
      "midi": 57,
      "hit": false,
      "t": 35595.12774999997,
      "d": 119.04725000000326,
      "v": 127
    },
    {
      "midi": 62,
      "hit": false,
      "t": 35595.12774999997,
      "d": 119.04725000000326,
      "v": 127
    },
    {
      "midi": 66,
      "hit": false,
      "t": 35595.12774999997,
      "d": 119.04725000000326,
      "v": 127
    },
    {
      "midi": 45,
      "hit": false,
      "t": 35952.26949999997,
      "d": 119.04725000000326,
      "v": 122
    },
    {
      "midi": 44,
      "hit": false,
      "t": 36428.45849999998,
      "d": 119.04725000000326,
      "v": 122
    },
    {
      "midi": 44,
      "hit": false,
      "t": 36904.647499999985,
      "d": 119.04725000000326,
      "v": 122
    },
    {
      "midi": 45,
      "hit": false,
      "t": 37380.83649999999,
      "d": 119.04725000000326,
      "v": 122
    },
    {
      "midi": 47,
      "hit": false,
      "t": 37857.025499999996,
      "d": 119.04725000000326,
      "v": 122
    },
    {
      "midi": 57,
      "hit": false,
      "t": 38095.12,
      "d": 238.09449999999924,
      "v": 127
    },
    {
      "midi": 62,
      "hit": false,
      "t": 38095.12,
      "d": 238.09449999999924,
      "v": 127
    },
    {
      "midi": 66,
      "hit": false,
      "t": 38095.12,
      "d": 238.09449999999924,
      "v": 127
    },
    {
      "midi": 35,
      "hit": false,
      "t": 38333.2145,
      "d": 119.04725000000326,
      "v": 122
    },
    {
      "midi": 57,
      "hit": false,
      "t": 38452.261750000005,
      "d": 119.04725000000326,
      "v": 127
    },
    {
      "midi": 61,
      "hit": false,
      "t": 38452.261750000005,
      "d": 119.04725000000326,
      "v": 127
    },
    {
      "midi": 64,
      "hit": false,
      "t": 38452.261750000005,
      "d": 119.04725000000326,
      "v": 127
    },
    {
      "midi": 37,
      "hit": false,
      "t": 38809.40350000001,
      "d": 119.04725000000326,
      "v": 122
    },
    {
      "midi": 57,
      "hit": false,
      "t": 39047.498000000014,
      "d": 238.09449999999924,
      "v": 127
    },
    {
      "midi": 61,
      "hit": false,
      "t": 39047.498000000014,
      "d": 238.09449999999924,
      "v": 127
    },
    {
      "midi": 64,
      "hit": false,
      "t": 39047.498000000014,
      "d": 238.09449999999924,
      "v": 127
    },
    {
      "midi": 38,
      "hit": false,
      "t": 39285.59250000001,
      "d": 119.04725000000326,
      "v": 122
    },
    {
      "midi": 57,
      "hit": false,
      "t": 39404.63975000002,
      "d": 119.04725000000326,
      "v": 127
    },
    {
      "midi": 59,
      "hit": false,
      "t": 39404.63975000002,
      "d": 119.04725000000326,
      "v": 127
    },
    {
      "midi": 62,
      "hit": false,
      "t": 39404.63975000002,
      "d": 119.04725000000326,
      "v": 127
    },
    {
      "midi": 42,
      "hit": false,
      "t": 39761.78150000002,
      "d": 119.04725000000326,
      "v": 122
    },
    {
      "midi": 40,
      "hit": false,
      "t": 40237.970500000025,
      "d": 119.04725000000326,
      "v": 122
    },
    {
      "midi": 40,
      "hit": false,
      "t": 40714.15950000003,
      "d": 119.04725000000326,
      "v": 122
    },
    {
      "midi": 45,
      "hit": false,
      "t": 41190.34850000004,
      "d": 119.04725000000326,
      "v": 122
    },
    {
      "midi": 45,
      "hit": false,
      "t": 41666.53750000004,
      "d": 119.04725000000326,
      "v": 122
    },
    {
      "midi": 55,
      "hit": false,
      "t": 41904.63200000005,
      "d": 238.09449999999924,
      "v": 127
    },
    {
      "midi": 59,
      "hit": false,
      "t": 41904.63200000005,
      "d": 238.09449999999924,
      "v": 127
    },
    {
      "midi": 62,
      "hit": false,
      "t": 41904.63200000005,
      "d": 238.09449999999924,
      "v": 127
    },
    {
      "midi": 28,
      "hit": false,
      "t": 41904.63200000005,
      "d": 476.1889999999985,
      "v": 127
    },
    {
      "midi": 54,
      "hit": false,
      "t": 42380.82100000005,
      "d": 238.09449999999924,
      "v": 127
    },
    {
      "midi": 57,
      "hit": false,
      "t": 42380.82100000005,
      "d": 238.09449999999924,
      "v": 127
    },
    {
      "midi": 62,
      "hit": false,
      "t": 42380.82100000005,
      "d": 238.09449999999924,
      "v": 127
    },
    {
      "midi": 30,
      "hit": false,
      "t": 42380.82100000005,
      "d": 476.1889999999985,
      "v": 127
    },
    {
      "midi": 55,
      "hit": false,
      "t": 42857.010000000046,
      "d": 238.09449999999924,
      "v": 127
    },
    {
      "midi": 59,
      "hit": false,
      "t": 42857.010000000046,
      "d": 238.09449999999924,
      "v": 127
    },
    {
      "midi": 62,
      "hit": false,
      "t": 42857.010000000046,
      "d": 238.09449999999924,
      "v": 127
    },
    {
      "midi": 31,
      "hit": false,
      "t": 42857.010000000046,
      "d": 476.1889999999985,
      "v": 127
    },
    {
      "midi": 33,
      "hit": false,
      "t": 43333.199000000044,
      "d": 357.1417500000025,
      "v": 127
    },
    {
      "midi": 57,
      "hit": false,
      "t": 43333.199000000044,
      "d": 357.1417500000025,
      "v": 127
    },
    {
      "midi": 61,
      "hit": false,
      "t": 43333.199000000044,
      "d": 357.1417500000025,
      "v": 127
    },
    {
      "midi": 64,
      "hit": false,
      "t": 43333.199000000044,
      "d": 357.1417500000025,
      "v": 127
    },
    {
      "midi": 35,
      "hit": false,
      "t": 43690.34075000005,
      "d": 238.09449999999924,
      "v": 127
    },
    {
      "midi": 59,
      "hit": false,
      "t": 43690.34075000005,
      "d": 238.09449999999924,
      "v": 127
    },
    {
      "midi": 62,
      "hit": false,
      "t": 43690.34075000005,
      "d": 238.09449999999924,
      "v": 127
    },
    {
      "midi": 66,
      "hit": false,
      "t": 43690.34075000005,
      "d": 238.09449999999924,
      "v": 127
    },
    {
      "midi": 57,
      "hit": false,
      "t": 44047.48250000005,
      "d": 119.04725000000326,
      "v": 127
    },
    {
      "midi": 61,
      "hit": false,
      "t": 44047.48250000005,
      "d": 119.04725000000326,
      "v": 127
    },
    {
      "midi": 64,
      "hit": false,
      "t": 44047.48250000005,
      "d": 119.04725000000326,
      "v": 127
    },
    {
      "midi": 57,
      "hit": false,
      "t": 44285.577000000056,
      "d": 119.04725000000326,
      "v": 127
    },
    {
      "midi": 61,
      "hit": false,
      "t": 44285.577000000056,
      "d": 119.04725000000326,
      "v": 127
    },
    {
      "midi": 64,
      "hit": false,
      "t": 44285.577000000056,
      "d": 119.04725000000326,
      "v": 127
    },
    {
      "midi": 57,
      "hit": false,
      "t": 44523.67150000006,
      "d": 119.04725000000326,
      "v": 127
    },
    {
      "midi": 61,
      "hit": false,
      "t": 44523.67150000006,
      "d": 119.04725000000326,
      "v": 127
    },
    {
      "midi": 64,
      "hit": false,
      "t": 44523.67150000006,
      "d": 119.04725000000326,
      "v": 127
    },
    {
      "midi": 57,
      "hit": false,
      "t": 44761.76600000007,
      "d": 357.1417500000025,
      "v": 127
    },
    {
      "midi": 61,
      "hit": false,
      "t": 44761.76600000007,
      "d": 357.1417500000025,
      "v": 127
    },
    {
      "midi": 64,
      "hit": false,
      "t": 44761.76600000007,
      "d": 357.1417500000025,
      "v": 127
    },
    {
      "midi": 57,
      "hit": false,
      "t": 45118.90775000007,
      "d": 595.2362500000017,
      "v": 127
    },
    {
      "midi": 62,
      "hit": false,
      "t": 45118.90775000007,
      "d": 595.2362500000017,
      "v": 127
    },
    {
      "midi": 66,
      "hit": false,
      "t": 45118.90775000007,
      "d": 595.2362500000017,
      "v": 127
    },
    {
      "midi": 55,
      "hit": false,
      "t": 45714.14400000007,
      "d": 238.09449999999924,
      "v": 127
    },
    {
      "midi": 59,
      "hit": false,
      "t": 45714.14400000007,
      "d": 238.09449999999924,
      "v": 127
    },
    {
      "midi": 62,
      "hit": false,
      "t": 45714.14400000007,
      "d": 238.09449999999924,
      "v": 127
    },
    {
      "midi": 28,
      "hit": false,
      "t": 45714.14400000007,
      "d": 476.1889999999985,
      "v": 127
    },
    {
      "midi": 54,
      "hit": false,
      "t": 46190.33300000007,
      "d": 238.09449999999924,
      "v": 127
    },
    {
      "midi": 57,
      "hit": false,
      "t": 46190.33300000007,
      "d": 238.09449999999924,
      "v": 127
    },
    {
      "midi": 62,
      "hit": false,
      "t": 46190.33300000007,
      "d": 238.09449999999924,
      "v": 127
    },
    {
      "midi": 30,
      "hit": false,
      "t": 46190.33300000007,
      "d": 476.1889999999985,
      "v": 127
    },
    {
      "midi": 55,
      "hit": false,
      "t": 46666.52200000007,
      "d": 238.09449999999924,
      "v": 127
    },
    {
      "midi": 59,
      "hit": false,
      "t": 46666.52200000007,
      "d": 238.09449999999924,
      "v": 127
    },
    {
      "midi": 62,
      "hit": false,
      "t": 46666.52200000007,
      "d": 238.09449999999924,
      "v": 127
    },
    {
      "midi": 31,
      "hit": false,
      "t": 46666.52200000007,
      "d": 476.1889999999985,
      "v": 127
    },
    {
      "midi": 33,
      "hit": false,
      "t": 47142.71100000007,
      "d": 357.1417500000025,
      "v": 127
    },
    {
      "midi": 57,
      "hit": false,
      "t": 47142.71100000007,
      "d": 357.1417500000025,
      "v": 127
    },
    {
      "midi": 61,
      "hit": false,
      "t": 47142.71100000007,
      "d": 357.1417500000025,
      "v": 127
    },
    {
      "midi": 64,
      "hit": false,
      "t": 47142.71100000007,
      "d": 357.1417500000025,
      "v": 127
    },
    {
      "midi": 35,
      "hit": false,
      "t": 47499.85275000007,
      "d": 238.09449999999924,
      "v": 127
    },
    {
      "midi": 59,
      "hit": false,
      "t": 47499.85275000007,
      "d": 238.09449999999924,
      "v": 127
    },
    {
      "midi": 62,
      "hit": false,
      "t": 47499.85275000007,
      "d": 238.09449999999924,
      "v": 127
    },
    {
      "midi": 66,
      "hit": false,
      "t": 47499.85275000007,
      "d": 238.09449999999924,
      "v": 127
    },
    {
      "midi": 57,
      "hit": false,
      "t": 47856.99450000007,
      "d": 119.04725000000326,
      "v": 127
    },
    {
      "midi": 61,
      "hit": false,
      "t": 47856.99450000007,
      "d": 119.04725000000326,
      "v": 127
    },
    {
      "midi": 64,
      "hit": false,
      "t": 47856.99450000007,
      "d": 119.04725000000326,
      "v": 127
    },
    {
      "midi": 57,
      "hit": false,
      "t": 48095.08900000008,
      "d": 119.04725000000326,
      "v": 127
    },
    {
      "midi": 61,
      "hit": false,
      "t": 48095.08900000008,
      "d": 119.04725000000326,
      "v": 127
    },
    {
      "midi": 64,
      "hit": false,
      "t": 48095.08900000008,
      "d": 119.04725000000326,
      "v": 127
    },
    {
      "midi": 57,
      "hit": false,
      "t": 48333.18350000009,
      "d": 119.04725000000326,
      "v": 127
    },
    {
      "midi": 61,
      "hit": false,
      "t": 48333.18350000009,
      "d": 119.04725000000326,
      "v": 127
    },
    {
      "midi": 64,
      "hit": false,
      "t": 48333.18350000009,
      "d": 119.04725000000326,
      "v": 127
    },
    {
      "midi": 57,
      "hit": false,
      "t": 48571.27800000009,
      "d": 357.1417500000025,
      "v": 127
    },
    {
      "midi": 61,
      "hit": false,
      "t": 48571.27800000009,
      "d": 357.1417500000025,
      "v": 127
    },
    {
      "midi": 64,
      "hit": false,
      "t": 48571.27800000009,
      "d": 357.1417500000025,
      "v": 127
    },
    {
      "midi": 57,
      "hit": false,
      "t": 48928.419750000096,
      "d": 595.2362500000017,
      "v": 127
    },
    {
      "midi": 62,
      "hit": false,
      "t": 48928.419750000096,
      "d": 595.2362500000017,
      "v": 127
    },
    {
      "midi": 66,
      "hit": false,
      "t": 48928.419750000096,
      "d": 595.2362500000017,
      "v": 127
    },
    {
      "midi": 55,
      "hit": false,
      "t": 49523.6560000001,
      "d": 238.09449999999924,
      "v": 127
    },
    {
      "midi": 59,
      "hit": false,
      "t": 49523.6560000001,
      "d": 238.09449999999924,
      "v": 127
    },
    {
      "midi": 62,
      "hit": false,
      "t": 49523.6560000001,
      "d": 238.09449999999924,
      "v": 127
    },
    {
      "midi": 28,
      "hit": false,
      "t": 49523.6560000001,
      "d": 476.1889999999985,
      "v": 127
    },
    {
      "midi": 54,
      "hit": false,
      "t": 49999.845000000096,
      "d": 238.09449999999924,
      "v": 127
    },
    {
      "midi": 57,
      "hit": false,
      "t": 49999.845000000096,
      "d": 238.09449999999924,
      "v": 127
    },
    {
      "midi": 62,
      "hit": false,
      "t": 49999.845000000096,
      "d": 238.09449999999924,
      "v": 127
    },
    {
      "midi": 30,
      "hit": false,
      "t": 49999.845000000096,
      "d": 476.1889999999985,
      "v": 127
    },
    {
      "midi": 55,
      "hit": false,
      "t": 50476.034000000094,
      "d": 238.09449999999924,
      "v": 127
    },
    {
      "midi": 59,
      "hit": false,
      "t": 50476.034000000094,
      "d": 238.09449999999924,
      "v": 127
    },
    {
      "midi": 62,
      "hit": false,
      "t": 50476.034000000094,
      "d": 238.09449999999924,
      "v": 127
    },
    {
      "midi": 31,
      "hit": false,
      "t": 50476.034000000094,
      "d": 476.1889999999985,
      "v": 127
    },
    {
      "midi": 33,
      "hit": false,
      "t": 50952.22300000009,
      "d": 357.1417500000025,
      "v": 127
    },
    {
      "midi": 57,
      "hit": false,
      "t": 50952.22300000009,
      "d": 357.1417500000025,
      "v": 127
    },
    {
      "midi": 61,
      "hit": false,
      "t": 50952.22300000009,
      "d": 357.1417500000025,
      "v": 127
    },
    {
      "midi": 64,
      "hit": false,
      "t": 50952.22300000009,
      "d": 357.1417500000025,
      "v": 127
    },
    {
      "midi": 35,
      "hit": false,
      "t": 51309.364750000095,
      "d": 238.09449999999924,
      "v": 127
    },
    {
      "midi": 59,
      "hit": false,
      "t": 51309.364750000095,
      "d": 238.09449999999924,
      "v": 127
    },
    {
      "midi": 62,
      "hit": false,
      "t": 51309.364750000095,
      "d": 238.09449999999924,
      "v": 127
    },
    {
      "midi": 66,
      "hit": false,
      "t": 51309.364750000095,
      "d": 238.09449999999924,
      "v": 127
    },
    {
      "midi": 57,
      "hit": false,
      "t": 51666.5065000001,
      "d": 119.04725000000326,
      "v": 127
    },
    {
      "midi": 61,
      "hit": false,
      "t": 51666.5065000001,
      "d": 119.04725000000326,
      "v": 127
    },
    {
      "midi": 64,
      "hit": false,
      "t": 51666.5065000001,
      "d": 119.04725000000326,
      "v": 127
    },
    {
      "midi": 57,
      "hit": false,
      "t": 51904.601000000104,
      "d": 119.04725000000326,
      "v": 127
    },
    {
      "midi": 61,
      "hit": false,
      "t": 51904.601000000104,
      "d": 119.04725000000326,
      "v": 127
    },
    {
      "midi": 64,
      "hit": false,
      "t": 51904.601000000104,
      "d": 119.04725000000326,
      "v": 127
    },
    {
      "midi": 57,
      "hit": false,
      "t": 52142.69550000011,
      "d": 119.04725000000326,
      "v": 127
    },
    {
      "midi": 61,
      "hit": false,
      "t": 52142.69550000011,
      "d": 119.04725000000326,
      "v": 127
    },
    {
      "midi": 64,
      "hit": false,
      "t": 52142.69550000011,
      "d": 119.04725000000326,
      "v": 127
    },
    {
      "midi": 57,
      "hit": false,
      "t": 52380.79000000012,
      "d": 357.1417500000025,
      "v": 127
    },
    {
      "midi": 61,
      "hit": false,
      "t": 52380.79000000012,
      "d": 357.1417500000025,
      "v": 127
    },
    {
      "midi": 64,
      "hit": false,
      "t": 52380.79000000012,
      "d": 357.1417500000025,
      "v": 127
    },
    {
      "midi": 57,
      "hit": false,
      "t": 52737.93175000012,
      "d": 595.2362500000017,
      "v": 127
    },
    {
      "midi": 62,
      "hit": false,
      "t": 52737.93175000012,
      "d": 595.2362500000017,
      "v": 127
    },
    {
      "midi": 66,
      "hit": false,
      "t": 52737.93175000012,
      "d": 595.2362500000017,
      "v": 127
    },
    {
      "midi": 59,
      "hit": false,
      "t": 53333.16800000012,
      "d": 357.1417500000025,
      "v": 127
    },
    {
      "midi": 62,
      "hit": false,
      "t": 53333.16800000012,
      "d": 357.1417500000025,
      "v": 127
    },
    {
      "midi": 66,
      "hit": false,
      "t": 53333.16800000012,
      "d": 357.1417500000025,
      "v": 127
    },
    {
      "midi": 59,
      "hit": false,
      "t": 53809.35700000013,
      "d": 357.1417500000025,
      "v": 127
    },
    {
      "midi": 62,
      "hit": false,
      "t": 53809.35700000013,
      "d": 357.1417500000025,
      "v": 127
    },
    {
      "midi": 66,
      "hit": false,
      "t": 53809.35700000013,
      "d": 357.1417500000025,
      "v": 127
    },
    {
      "midi": 59,
      "hit": false,
      "t": 54285.54600000013,
      "d": 357.1417500000025,
      "v": 127
    },
    {
      "midi": 62,
      "hit": false,
      "t": 54285.54600000013,
      "d": 357.1417500000025,
      "v": 127
    },
    {
      "midi": 66,
      "hit": false,
      "t": 54285.54600000013,
      "d": 357.1417500000025,
      "v": 127
    },
    {
      "midi": 59,
      "hit": false,
      "t": 54761.73500000014,
      "d": 357.1417500000025,
      "v": 127
    },
    {
      "midi": 62,
      "hit": false,
      "t": 54761.73500000014,
      "d": 357.1417500000025,
      "v": 127
    },
    {
      "midi": 66,
      "hit": false,
      "t": 54761.73500000014,
      "d": 357.1417500000025,
      "v": 127
    },
    {
      "midi": 59,
      "hit": false,
      "t": 55237.924000000145,
      "d": 357.1417500000025,
      "v": 127
    },
    {
      "midi": 62,
      "hit": false,
      "t": 55237.924000000145,
      "d": 357.1417500000025,
      "v": 127
    },
    {
      "midi": 66,
      "hit": false,
      "t": 55237.924000000145,
      "d": 357.1417500000025,
      "v": 127
    },
    {
      "midi": 59,
      "hit": false,
      "t": 55714.11300000015,
      "d": 357.1417500000025,
      "v": 127
    },
    {
      "midi": 62,
      "hit": false,
      "t": 55714.11300000015,
      "d": 357.1417500000025,
      "v": 127
    },
    {
      "midi": 66,
      "hit": false,
      "t": 55714.11300000015,
      "d": 357.1417500000025,
      "v": 127
    },
    {
      "midi": 57,
      "hit": false,
      "t": 56428.396500000155,
      "d": 238.09449999999924,
      "v": 127
    },
    {
      "midi": 61,
      "hit": false,
      "t": 56428.396500000155,
      "d": 238.09449999999924,
      "v": 127
    },
    {
      "midi": 64,
      "hit": false,
      "t": 56428.396500000155,
      "d": 238.09449999999924,
      "v": 127
    },
    {
      "midi": 59,
      "hit": false,
      "t": 56904.585500000154,
      "d": 357.1417500000025,
      "v": 127
    },
    {
      "midi": 64,
      "hit": false,
      "t": 56904.585500000154,
      "d": 357.1417500000025,
      "v": 127
    },
    {
      "midi": 66,
      "hit": false,
      "t": 56904.585500000154,
      "d": 357.1417500000025,
      "v": 127
    },
    {
      "midi": 59,
      "hit": false,
      "t": 57380.77450000016,
      "d": 119.04725000000326,
      "v": 127
    },
    {
      "midi": 64,
      "hit": false,
      "t": 57380.77450000016,
      "d": 119.04725000000326,
      "v": 127
    },
    {
      "midi": 66,
      "hit": false,
      "t": 57380.77450000016,
      "d": 119.04725000000326,
      "v": 127
    },
    {
      "midi": 59,
      "hit": false,
      "t": 57618.869000000166,
      "d": 357.1417500000025,
      "v": 127
    },
    {
      "midi": 64,
      "hit": false,
      "t": 57618.869000000166,
      "d": 357.1417500000025,
      "v": 127
    },
    {
      "midi": 66,
      "hit": false,
      "t": 57618.869000000166,
      "d": 357.1417500000025,
      "v": 127
    },
    {
      "midi": 59,
      "hit": false,
      "t": 58095.05800000017,
      "d": 119.04725000000326,
      "v": 127
    },
    {
      "midi": 64,
      "hit": false,
      "t": 58095.05800000017,
      "d": 119.04725000000326,
      "v": 127
    },
    {
      "midi": 66,
      "hit": false,
      "t": 58095.05800000017,
      "d": 119.04725000000326,
      "v": 127
    },
    {
      "midi": 59,
      "hit": false,
      "t": 58333.15250000018,
      "d": 357.1417500000025,
      "v": 127
    },
    {
      "midi": 64,
      "hit": false,
      "t": 58333.15250000018,
      "d": 357.1417500000025,
      "v": 127
    },
    {
      "midi": 66,
      "hit": false,
      "t": 58333.15250000018,
      "d": 357.1417500000025,
      "v": 127
    },
    {
      "midi": 59,
      "hit": false,
      "t": 58809.341500000184,
      "d": 357.1417500000025,
      "v": 127
    },
    {
      "midi": 63,
      "hit": false,
      "t": 58809.341500000184,
      "d": 357.1417500000025,
      "v": 127
    },
    {
      "midi": 66,
      "hit": false,
      "t": 58809.341500000184,
      "d": 357.1417500000025,
      "v": 127
    },
    {
      "midi": 59,
      "hit": false,
      "t": 59285.53050000019,
      "d": 119.04725000000326,
      "v": 127
    },
    {
      "midi": 63,
      "hit": false,
      "t": 59285.53050000019,
      "d": 119.04725000000326,
      "v": 127
    },
    {
      "midi": 66,
      "hit": false,
      "t": 59285.53050000019,
      "d": 119.04725000000326,
      "v": 127
    },
    {
      "midi": 59,
      "hit": false,
      "t": 59523.6250000002,
      "d": 357.1417500000025,
      "v": 127
    },
    {
      "midi": 63,
      "hit": false,
      "t": 59523.6250000002,
      "d": 357.1417500000025,
      "v": 127
    },
    {
      "midi": 66,
      "hit": false,
      "t": 59523.6250000002,
      "d": 357.1417500000025,
      "v": 127
    },
    {
      "midi": 59,
      "hit": false,
      "t": 59999.8140000002,
      "d": 119.04725000000326,
      "v": 127
    },
    {
      "midi": 63,
      "hit": false,
      "t": 59999.8140000002,
      "d": 119.04725000000326,
      "v": 127
    },
    {
      "midi": 66,
      "hit": false,
      "t": 59999.8140000002,
      "d": 119.04725000000326,
      "v": 127
    },
    {
      "midi": 59,
      "hit": false,
      "t": 60237.90850000021,
      "d": 714.2834999999977,
      "v": 127
    },
    {
      "midi": 63,
      "hit": false,
      "t": 60237.90850000021,
      "d": 714.2834999999977,
      "v": 127
    },
    {
      "midi": 66,
      "hit": false,
      "t": 60237.90850000021,
      "d": 714.2834999999977,
      "v": 127
    },
    {
      "midi": 55,
      "hit": false,
      "t": 60952.19200000021,
      "d": 952.377999999997,
      "v": 127
    },
    {
      "midi": 59,
      "hit": false,
      "t": 60952.19200000021,
      "d": 952.377999999997,
      "v": 127
    },
    {
      "midi": 62,
      "hit": false,
      "t": 60952.19200000021,
      "d": 952.377999999997,
      "v": 127
    },
    {
      "midi": 40,
      "hit": false,
      "t": 61190.286500000206,
      "d": 238.09449999999924,
      "v": 127
    },
    {
      "midi": 40,
      "hit": false,
      "t": 61666.475500000204,
      "d": 238.09449999999924,
      "v": 127
    },
    {
      "midi": 57,
      "hit": false,
      "t": 61904.5700000002,
      "d": 595.2362500000017,
      "v": 127
    },
    {
      "midi": 61,
      "hit": false,
      "t": 61904.5700000002,
      "d": 595.2362500000017,
      "v": 127
    },
    {
      "midi": 64,
      "hit": false,
      "t": 61904.5700000002,
      "d": 595.2362500000017,
      "v": 127
    },
    {
      "midi": 42,
      "hit": false,
      "t": 62142.6645000002,
      "d": 238.09449999999924,
      "v": 127
    },
    {
      "midi": 45,
      "hit": false,
      "t": 62618.85350000021,
      "d": 238.09449999999924,
      "v": 127
    },
    {
      "midi": 57,
      "hit": false,
      "t": 62618.85350000021,
      "d": 476.1889999999985,
      "v": 127
    },
    {
      "midi": 61,
      "hit": false,
      "t": 62618.85350000021,
      "d": 476.1889999999985,
      "v": 127
    },
    {
      "midi": 64,
      "hit": false,
      "t": 62618.85350000021,
      "d": 476.1889999999985,
      "v": 127
    },
    {
      "midi": 59,
      "hit": false,
      "t": 63095.04250000021,
      "d": 119.04725000000326,
      "v": 127
    },
    {
      "midi": 62,
      "hit": false,
      "t": 63095.04250000021,
      "d": 119.04725000000326,
      "v": 127
    },
    {
      "midi": 66,
      "hit": false,
      "t": 63095.04250000021,
      "d": 119.04725000000326,
      "v": 127
    },
    {
      "midi": 47,
      "hit": false,
      "t": 63095.04250000021,
      "d": 238.09450000000652,
      "v": 127
    },
    {
      "midi": 59,
      "hit": false,
      "t": 63333.13700000021,
      "d": 357.1417500000025,
      "v": 127
    },
    {
      "midi": 62,
      "hit": false,
      "t": 63333.13700000021,
      "d": 357.1417500000025,
      "v": 127
    },
    {
      "midi": 66,
      "hit": false,
      "t": 63333.13700000021,
      "d": 357.1417500000025,
      "v": 127
    },
    {
      "midi": 47,
      "hit": false,
      "t": 63571.23150000021,
      "d": 238.09450000000652,
      "v": 127
    },
    {
      "midi": 59,
      "hit": false,
      "t": 63809.32600000022,
      "d": 357.1417500000025,
      "v": 127
    },
    {
      "midi": 62,
      "hit": false,
      "t": 63809.32600000022,
      "d": 357.1417500000025,
      "v": 127
    },
    {
      "midi": 66,
      "hit": false,
      "t": 63809.32600000022,
      "d": 357.1417500000025,
      "v": 127
    },
    {
      "midi": 43,
      "hit": false,
      "t": 63809.32600000022,
      "d": 476.18900000000576,
      "v": 127
    },
    {
      "midi": 59,
      "hit": false,
      "t": 64285.515000000225,
      "d": 357.1417500000025,
      "v": 127
    },
    {
      "midi": 62,
      "hit": false,
      "t": 64285.515000000225,
      "d": 357.1417500000025,
      "v": 127
    },
    {
      "midi": 66,
      "hit": false,
      "t": 64285.515000000225,
      "d": 357.1417500000025,
      "v": 127
    },
    {
      "midi": 42,
      "hit": false,
      "t": 64285.515000000225,
      "d": 476.18900000000576,
      "v": 127
    },
    {
      "midi": 55,
      "hit": false,
      "t": 64761.70400000023,
      "d": 952.377999999997,
      "v": 127
    },
    {
      "midi": 59,
      "hit": false,
      "t": 64761.70400000023,
      "d": 952.377999999997,
      "v": 127
    },
    {
      "midi": 62,
      "hit": false,
      "t": 64761.70400000023,
      "d": 952.377999999997,
      "v": 127
    },
    {
      "midi": 40,
      "hit": false,
      "t": 64999.79850000023,
      "d": 238.09449999999924,
      "v": 127
    },
    {
      "midi": 40,
      "hit": false,
      "t": 65475.98750000023,
      "d": 238.09449999999924,
      "v": 127
    },
    {
      "midi": 57,
      "hit": false,
      "t": 65714.08200000023,
      "d": 595.2362500000163,
      "v": 127
    },
    {
      "midi": 61,
      "hit": false,
      "t": 65714.08200000023,
      "d": 595.2362500000163,
      "v": 127
    },
    {
      "midi": 64,
      "hit": false,
      "t": 65714.08200000023,
      "d": 595.2362500000163,
      "v": 127
    },
    {
      "midi": 42,
      "hit": false,
      "t": 65952.17650000023,
      "d": 238.09450000000652,
      "v": 127
    },
    {
      "midi": 45,
      "hit": false,
      "t": 66428.36550000025,
      "d": 238.09450000000652,
      "v": 127
    },
    {
      "midi": 57,
      "hit": false,
      "t": 66428.36550000025,
      "d": 476.18900000001304,
      "v": 127
    },
    {
      "midi": 61,
      "hit": false,
      "t": 66428.36550000025,
      "d": 476.18900000001304,
      "v": 127
    },
    {
      "midi": 64,
      "hit": false,
      "t": 66428.36550000025,
      "d": 476.18900000001304,
      "v": 127
    },
    {
      "midi": 59,
      "hit": false,
      "t": 66904.55450000026,
      "d": 119.04725000000326,
      "v": 127
    },
    {
      "midi": 62,
      "hit": false,
      "t": 66904.55450000026,
      "d": 119.04725000000326,
      "v": 127
    },
    {
      "midi": 66,
      "hit": false,
      "t": 66904.55450000026,
      "d": 119.04725000000326,
      "v": 127
    },
    {
      "midi": 47,
      "hit": false,
      "t": 66904.55450000026,
      "d": 238.09450000000652,
      "v": 127
    },
    {
      "midi": 59,
      "hit": false,
      "t": 67142.64900000027,
      "d": 357.1417500000098,
      "v": 127
    },
    {
      "midi": 62,
      "hit": false,
      "t": 67142.64900000027,
      "d": 357.1417500000098,
      "v": 127
    },
    {
      "midi": 66,
      "hit": false,
      "t": 67142.64900000027,
      "d": 357.1417500000098,
      "v": 127
    },
    {
      "midi": 47,
      "hit": false,
      "t": 67380.74350000027,
      "d": 238.09450000000652,
      "v": 127
    },
    {
      "midi": 59,
      "hit": false,
      "t": 67618.83800000028,
      "d": 357.1417499999952,
      "v": 127
    },
    {
      "midi": 62,
      "hit": false,
      "t": 67618.83800000028,
      "d": 357.1417499999952,
      "v": 127
    },
    {
      "midi": 66,
      "hit": false,
      "t": 67618.83800000028,
      "d": 357.1417499999952,
      "v": 127
    },
    {
      "midi": 43,
      "hit": false,
      "t": 67618.83800000028,
      "d": 476.1889999999985,
      "v": 127
    },
    {
      "midi": 59,
      "hit": false,
      "t": 68095.02700000028,
      "d": 357.1417499999952,
      "v": 127
    },
    {
      "midi": 62,
      "hit": false,
      "t": 68095.02700000028,
      "d": 357.1417499999952,
      "v": 127
    },
    {
      "midi": 66,
      "hit": false,
      "t": 68095.02700000028,
      "d": 357.1417499999952,
      "v": 127
    },
    {
      "midi": 42,
      "hit": false,
      "t": 68095.02700000028,
      "d": 476.1889999999985,
      "v": 127
    },
    {
      "midi": 55,
      "hit": false,
      "t": 68571.21600000028,
      "d": 952.3780000000261,
      "v": 127
    },
    {
      "midi": 59,
      "hit": false,
      "t": 68571.21600000028,
      "d": 952.3780000000261,
      "v": 127
    },
    {
      "midi": 62,
      "hit": false,
      "t": 68571.21600000028,
      "d": 952.3780000000261,
      "v": 127
    },
    {
      "midi": 40,
      "hit": false,
      "t": 68809.31050000028,
      "d": 238.09450000000652,
      "v": 127
    },
    {
      "midi": 40,
      "hit": false,
      "t": 69285.4995000003,
      "d": 238.09450000000652,
      "v": 127
    },
    {
      "midi": 57,
      "hit": false,
      "t": 69523.5940000003,
      "d": 595.2362500000163,
      "v": 127
    },
    {
      "midi": 61,
      "hit": false,
      "t": 69523.5940000003,
      "d": 595.2362500000163,
      "v": 127
    },
    {
      "midi": 64,
      "hit": false,
      "t": 69523.5940000003,
      "d": 595.2362500000163,
      "v": 127
    },
    {
      "midi": 42,
      "hit": false,
      "t": 69761.68850000031,
      "d": 238.09450000000652,
      "v": 127
    },
    {
      "midi": 45,
      "hit": false,
      "t": 70237.87750000032,
      "d": 238.09450000000652,
      "v": 127
    },
    {
      "midi": 57,
      "hit": false,
      "t": 70237.87750000032,
      "d": 476.18900000001304,
      "v": 127
    },
    {
      "midi": 61,
      "hit": false,
      "t": 70237.87750000032,
      "d": 476.18900000001304,
      "v": 127
    },
    {
      "midi": 64,
      "hit": false,
      "t": 70237.87750000032,
      "d": 476.18900000001304,
      "v": 127
    },
    {
      "midi": 59,
      "hit": false,
      "t": 70714.06650000034,
      "d": 119.04725000000326,
      "v": 127
    },
    {
      "midi": 62,
      "hit": false,
      "t": 70714.06650000034,
      "d": 119.04725000000326,
      "v": 127
    },
    {
      "midi": 66,
      "hit": false,
      "t": 70714.06650000034,
      "d": 119.04725000000326,
      "v": 127
    },
    {
      "midi": 47,
      "hit": false,
      "t": 70714.06650000034,
      "d": 238.09450000000652,
      "v": 127
    },
    {
      "midi": 59,
      "hit": false,
      "t": 70952.16100000034,
      "d": 357.1417500000098,
      "v": 127
    },
    {
      "midi": 62,
      "hit": false,
      "t": 70952.16100000034,
      "d": 357.1417500000098,
      "v": 127
    },
    {
      "midi": 66,
      "hit": false,
      "t": 70952.16100000034,
      "d": 357.1417500000098,
      "v": 127
    },
    {
      "midi": 47,
      "hit": false,
      "t": 71190.25550000035,
      "d": 238.09450000000652,
      "v": 127
    },
    {
      "midi": 59,
      "hit": false,
      "t": 71428.35000000036,
      "d": 357.1417499999952,
      "v": 127
    },
    {
      "midi": 62,
      "hit": false,
      "t": 71428.35000000036,
      "d": 357.1417499999952,
      "v": 127
    },
    {
      "midi": 66,
      "hit": false,
      "t": 71428.35000000036,
      "d": 357.1417499999952,
      "v": 127
    },
    {
      "midi": 43,
      "hit": false,
      "t": 71428.35000000036,
      "d": 476.1889999999985,
      "v": 127
    },
    {
      "midi": 59,
      "hit": false,
      "t": 71904.53900000035,
      "d": 357.1417499999952,
      "v": 127
    },
    {
      "midi": 62,
      "hit": false,
      "t": 71904.53900000035,
      "d": 357.1417499999952,
      "v": 127
    },
    {
      "midi": 66,
      "hit": false,
      "t": 71904.53900000035,
      "d": 357.1417499999952,
      "v": 127
    },
    {
      "midi": 42,
      "hit": false,
      "t": 71904.53900000035,
      "d": 476.1889999999985,
      "v": 127
    },
    {
      "midi": 52,
      "hit": false,
      "t": 72380.72800000035,
      "d": 3809.5120000001043,
      "v": 127
    },
    {
      "midi": 56,
      "hit": false,
      "t": 72380.72800000035,
      "d": 3809.5120000001043,
      "v": 127
    },
    {
      "midi": 59,
      "hit": false,
      "t": 72380.72800000035,
      "d": 3809.5120000001043,
      "v": 127
    },
    {
      "midi": 40,
      "hit": false,
      "t": 72618.82250000036,
      "d": 238.09450000000652,
      "v": 127
    },
    {
      "midi": 40,
      "hit": false,
      "t": 73095.01150000037,
      "d": 238.09450000000652,
      "v": 127
    },
    {
      "midi": 40,
      "hit": false,
      "t": 73571.20050000038,
      "d": 238.09450000000652,
      "v": 127
    },
    {
      "midi": 40,
      "hit": false,
      "t": 74047.3895000004,
      "d": 238.09450000000652,
      "v": 127
    },
    {
      "midi": 40,
      "hit": false,
      "t": 74523.57850000041,
      "d": 238.09450000000652,
      "v": 127
    },
    {
      "midi": 40,
      "hit": false,
      "t": 74999.76750000042,
      "d": 238.09450000000652,
      "v": 127
    },
    {
      "midi": 40,
      "hit": false,
      "t": 75475.95650000044,
      "d": 238.09450000000652,
      "v": 127
    },
    {
      "midi": 45,
      "hit": false,
      "t": 75714.05100000044,
      "d": 238.09450000000652,
      "v": 127
    },
    {
      "midi": 47,
      "hit": false,
      "t": 75952.14550000045,
      "d": 238.09450000000652,
      "v": 127
    },
    {
      "midi": 45,
      "hit": false,
      "t": 76666.42900000045,
      "d": 119.04725000000326,
      "v": 127
    },
    {
      "midi": 57,
      "hit": false,
      "t": 76666.42900000045,
      "d": 119.04725000000326,
      "v": 127
    },
    {
      "midi": 61,
      "hit": false,
      "t": 76666.42900000045,
      "d": 119.04725000000326,
      "v": 127
    },
    {
      "midi": 64,
      "hit": false,
      "t": 76666.42900000045,
      "d": 119.04725000000326,
      "v": 127
    },
    {
      "midi": 45,
      "hit": false,
      "t": 76785.47625000046,
      "d": 119.04725000000326,
      "v": 127
    },
    {
      "midi": 57,
      "hit": false,
      "t": 76785.47625000046,
      "d": 119.04725000000326,
      "v": 127
    },
    {
      "midi": 61,
      "hit": false,
      "t": 76785.47625000046,
      "d": 119.04725000000326,
      "v": 127
    },
    {
      "midi": 64,
      "hit": false,
      "t": 76785.47625000046,
      "d": 119.04725000000326,
      "v": 127
    },
    {
      "midi": 47,
      "hit": false,
      "t": 76904.52350000046,
      "d": 238.09450000000652,
      "v": 127
    },
    {
      "midi": 59,
      "hit": false,
      "t": 76904.52350000046,
      "d": 238.09450000000652,
      "v": 127
    },
    {
      "midi": 62,
      "hit": false,
      "t": 76904.52350000046,
      "d": 238.09450000000652,
      "v": 127
    },
    {
      "midi": 66,
      "hit": false,
      "t": 76904.52350000046,
      "d": 238.09450000000652,
      "v": 127
    },
    {
      "midi": 57,
      "hit": false,
      "t": 78094.99600000046,
      "d": 238.09450000000652,
      "v": 127
    },
    {
      "midi": 62,
      "hit": false,
      "t": 78094.99600000046,
      "d": 238.09450000000652,
      "v": 127
    },
    {
      "midi": 66,
      "hit": false,
      "t": 78094.99600000046,
      "d": 238.09450000000652,
      "v": 127
    },
    {
      "midi": 47,
      "hit": false,
      "t": 78333.09050000047,
      "d": 119.04725000000326,
      "v": 122
    },
    {
      "midi": 57,
      "hit": false,
      "t": 78452.13775000047,
      "d": 119.04725000000326,
      "v": 127
    },
    {
      "midi": 61,
      "hit": false,
      "t": 78452.13775000047,
      "d": 119.04725000000326,
      "v": 127
    },
    {
      "midi": 64,
      "hit": false,
      "t": 78452.13775000047,
      "d": 119.04725000000326,
      "v": 127
    },
    {
      "midi": 45,
      "hit": false,
      "t": 78809.27950000048,
      "d": 119.04725000000326,
      "v": 122
    },
    {
      "midi": 57,
      "hit": false,
      "t": 79047.37400000049,
      "d": 238.09450000000652,
      "v": 127
    },
    {
      "midi": 61,
      "hit": false,
      "t": 79047.37400000049,
      "d": 238.09450000000652,
      "v": 127
    },
    {
      "midi": 64,
      "hit": false,
      "t": 79047.37400000049,
      "d": 238.09450000000652,
      "v": 127
    },
    {
      "midi": 47,
      "hit": false,
      "t": 79285.4685000005,
      "d": 119.04725000000326,
      "v": 122
    },
    {
      "midi": 57,
      "hit": false,
      "t": 79404.5157500005,
      "d": 119.04725000000326,
      "v": 127
    },
    {
      "midi": 62,
      "hit": false,
      "t": 79404.5157500005,
      "d": 119.04725000000326,
      "v": 127
    },
    {
      "midi": 66,
      "hit": false,
      "t": 79404.5157500005,
      "d": 119.04725000000326,
      "v": 127
    },
    {
      "midi": 45,
      "hit": false,
      "t": 79761.65750000051,
      "d": 119.04725000000326,
      "v": 122
    },
    {
      "midi": 40,
      "hit": false,
      "t": 80237.84650000051,
      "d": 119.04725000000326,
      "v": 122
    },
    {
      "midi": 40,
      "hit": false,
      "t": 80714.03550000051,
      "d": 119.04725000000326,
      "v": 122
    },
    {
      "midi": 45,
      "hit": false,
      "t": 81190.2245000005,
      "d": 119.04725000000326,
      "v": 122
    },
    {
      "midi": 47,
      "hit": false,
      "t": 81666.4135000005,
      "d": 119.04725000000326,
      "v": 122
    },
    {
      "midi": 57,
      "hit": false,
      "t": 81904.50800000051,
      "d": 238.09450000000652,
      "v": 127
    },
    {
      "midi": 62,
      "hit": false,
      "t": 81904.50800000051,
      "d": 238.09450000000652,
      "v": 127
    },
    {
      "midi": 66,
      "hit": false,
      "t": 81904.50800000051,
      "d": 238.09450000000652,
      "v": 127
    },
    {
      "midi": 35,
      "hit": false,
      "t": 82142.60250000052,
      "d": 119.04725000000326,
      "v": 122
    },
    {
      "midi": 57,
      "hit": false,
      "t": 82261.64975000052,
      "d": 119.04725000000326,
      "v": 127
    },
    {
      "midi": 61,
      "hit": false,
      "t": 82261.64975000052,
      "d": 119.04725000000326,
      "v": 127
    },
    {
      "midi": 64,
      "hit": false,
      "t": 82261.64975000052,
      "d": 119.04725000000326,
      "v": 127
    },
    {
      "midi": 37,
      "hit": false,
      "t": 82618.79150000053,
      "d": 119.04725000000326,
      "v": 122
    },
    {
      "midi": 57,
      "hit": false,
      "t": 82856.88600000054,
      "d": 238.09450000000652,
      "v": 127
    },
    {
      "midi": 61,
      "hit": false,
      "t": 82856.88600000054,
      "d": 238.09450000000652,
      "v": 127
    },
    {
      "midi": 64,
      "hit": false,
      "t": 82856.88600000054,
      "d": 238.09450000000652,
      "v": 127
    },
    {
      "midi": 38,
      "hit": false,
      "t": 83094.98050000054,
      "d": 119.04725000000326,
      "v": 122
    },
    {
      "midi": 57,
      "hit": false,
      "t": 83214.02775000055,
      "d": 119.04725000000326,
      "v": 127
    },
    {
      "midi": 59,
      "hit": false,
      "t": 83214.02775000055,
      "d": 119.04725000000326,
      "v": 127
    },
    {
      "midi": 62,
      "hit": false,
      "t": 83214.02775000055,
      "d": 119.04725000000326,
      "v": 127
    },
    {
      "midi": 42,
      "hit": false,
      "t": 83571.16950000056,
      "d": 119.04725000000326,
      "v": 122
    },
    {
      "midi": 40,
      "hit": false,
      "t": 84047.35850000056,
      "d": 119.04725000000326,
      "v": 122
    },
    {
      "midi": 40,
      "hit": false,
      "t": 84523.54750000055,
      "d": 119.04725000000326,
      "v": 122
    },
    {
      "midi": 45,
      "hit": false,
      "t": 84999.73650000055,
      "d": 119.04725000000326,
      "v": 122
    },
    {
      "midi": 47,
      "hit": false,
      "t": 85475.92550000055,
      "d": 119.04725000000326,
      "v": 122
    },
    {
      "midi": 57,
      "hit": false,
      "t": 85714.02000000056,
      "d": 238.09450000000652,
      "v": 127
    },
    {
      "midi": 62,
      "hit": false,
      "t": 85714.02000000056,
      "d": 238.09450000000652,
      "v": 127
    },
    {
      "midi": 66,
      "hit": false,
      "t": 85714.02000000056,
      "d": 238.09450000000652,
      "v": 127
    },
    {
      "midi": 47,
      "hit": false,
      "t": 85952.11450000056,
      "d": 119.04725000000326,
      "v": 122
    },
    {
      "midi": 57,
      "hit": false,
      "t": 86071.16175000057,
      "d": 119.04725000000326,
      "v": 127
    },
    {
      "midi": 61,
      "hit": false,
      "t": 86071.16175000057,
      "d": 119.04725000000326,
      "v": 127
    },
    {
      "midi": 64,
      "hit": false,
      "t": 86071.16175000057,
      "d": 119.04725000000326,
      "v": 127
    },
    {
      "midi": 45,
      "hit": false,
      "t": 86428.30350000058,
      "d": 119.04725000000326,
      "v": 122
    },
    {
      "midi": 57,
      "hit": false,
      "t": 86666.39800000058,
      "d": 238.09450000000652,
      "v": 127
    },
    {
      "midi": 61,
      "hit": false,
      "t": 86666.39800000058,
      "d": 238.09450000000652,
      "v": 127
    },
    {
      "midi": 64,
      "hit": false,
      "t": 86666.39800000058,
      "d": 238.09450000000652,
      "v": 127
    },
    {
      "midi": 47,
      "hit": false,
      "t": 86904.49250000059,
      "d": 119.04725000000326,
      "v": 122
    },
    {
      "midi": 57,
      "hit": false,
      "t": 87023.5397500006,
      "d": 119.04725000000326,
      "v": 127
    },
    {
      "midi": 62,
      "hit": false,
      "t": 87023.5397500006,
      "d": 119.04725000000326,
      "v": 127
    },
    {
      "midi": 66,
      "hit": false,
      "t": 87023.5397500006,
      "d": 119.04725000000326,
      "v": 127
    },
    {
      "midi": 45,
      "hit": false,
      "t": 87380.6815000006,
      "d": 119.04725000000326,
      "v": 122
    },
    {
      "midi": 40,
      "hit": false,
      "t": 87856.8705000006,
      "d": 119.04725000000326,
      "v": 122
    },
    {
      "midi": 40,
      "hit": false,
      "t": 88333.0595000006,
      "d": 119.04725000000326,
      "v": 122
    },
    {
      "midi": 45,
      "hit": false,
      "t": 88809.2485000006,
      "d": 119.04725000000326,
      "v": 122
    },
    {
      "midi": 47,
      "hit": false,
      "t": 89285.4375000006,
      "d": 119.04725000000326,
      "v": 122
    },
    {
      "midi": 57,
      "hit": false,
      "t": 89523.5320000006,
      "d": 238.09450000000652,
      "v": 127
    },
    {
      "midi": 62,
      "hit": false,
      "t": 89523.5320000006,
      "d": 238.09450000000652,
      "v": 127
    },
    {
      "midi": 66,
      "hit": false,
      "t": 89523.5320000006,
      "d": 238.09450000000652,
      "v": 127
    },
    {
      "midi": 35,
      "hit": false,
      "t": 89761.62650000061,
      "d": 119.04725000000326,
      "v": 122
    },
    {
      "midi": 57,
      "hit": false,
      "t": 89880.67375000061,
      "d": 119.04725000000326,
      "v": 127
    },
    {
      "midi": 61,
      "hit": false,
      "t": 89880.67375000061,
      "d": 119.04725000000326,
      "v": 127
    },
    {
      "midi": 64,
      "hit": false,
      "t": 89880.67375000061,
      "d": 119.04725000000326,
      "v": 127
    },
    {
      "midi": 37,
      "hit": false,
      "t": 90237.81550000062,
      "d": 119.04725000000326,
      "v": 122
    },
    {
      "midi": 57,
      "hit": false,
      "t": 90475.91000000063,
      "d": 238.09450000000652,
      "v": 127
    },
    {
      "midi": 61,
      "hit": false,
      "t": 90475.91000000063,
      "d": 238.09450000000652,
      "v": 127
    },
    {
      "midi": 64,
      "hit": false,
      "t": 90475.91000000063,
      "d": 238.09450000000652,
      "v": 127
    },
    {
      "midi": 38,
      "hit": false,
      "t": 90714.00450000064,
      "d": 119.04725000000326,
      "v": 122
    },
    {
      "midi": 57,
      "hit": false,
      "t": 90833.05175000064,
      "d": 119.04725000000326,
      "v": 127
    },
    {
      "midi": 59,
      "hit": false,
      "t": 90833.05175000064,
      "d": 119.04725000000326,
      "v": 127
    },
    {
      "midi": 62,
      "hit": false,
      "t": 90833.05175000064,
      "d": 119.04725000000326,
      "v": 127
    },
    {
      "midi": 42,
      "hit": false,
      "t": 91190.19350000065,
      "d": 119.04725000000326,
      "v": 122
    },
    {
      "midi": 40,
      "hit": false,
      "t": 91666.38250000065,
      "d": 119.04725000000326,
      "v": 122
    },
    {
      "midi": 40,
      "hit": false,
      "t": 92142.57150000065,
      "d": 119.04725000000326,
      "v": 122
    },
    {
      "midi": 45,
      "hit": false,
      "t": 92618.76050000064,
      "d": 119.04725000000326,
      "v": 122
    },
    {
      "midi": 47,
      "hit": false,
      "t": 93094.94950000064,
      "d": 119.04725000000326,
      "v": 122
    },
    {
      "midi": 57,
      "hit": false,
      "t": 93333.04400000065,
      "d": 238.09450000000652,
      "v": 127
    },
    {
      "midi": 62,
      "hit": false,
      "t": 93333.04400000065,
      "d": 238.09450000000652,
      "v": 127
    },
    {
      "midi": 66,
      "hit": false,
      "t": 93333.04400000065,
      "d": 238.09450000000652,
      "v": 127
    },
    {
      "midi": 47,
      "hit": false,
      "t": 93571.13850000066,
      "d": 119.04725000000326,
      "v": 122
    },
    {
      "midi": 57,
      "hit": false,
      "t": 93690.18575000066,
      "d": 119.04725000000326,
      "v": 127
    },
    {
      "midi": 61,
      "hit": false,
      "t": 93690.18575000066,
      "d": 119.04725000000326,
      "v": 127
    },
    {
      "midi": 64,
      "hit": false,
      "t": 93690.18575000066,
      "d": 119.04725000000326,
      "v": 127
    },
    {
      "midi": 45,
      "hit": false,
      "t": 94047.32750000067,
      "d": 119.04725000000326,
      "v": 122
    },
    {
      "midi": 57,
      "hit": false,
      "t": 94285.42200000068,
      "d": 238.09450000000652,
      "v": 127
    },
    {
      "midi": 61,
      "hit": false,
      "t": 94285.42200000068,
      "d": 238.09450000000652,
      "v": 127
    },
    {
      "midi": 64,
      "hit": false,
      "t": 94285.42200000068,
      "d": 238.09450000000652,
      "v": 127
    },
    {
      "midi": 47,
      "hit": false,
      "t": 94523.51650000068,
      "d": 119.04725000000326,
      "v": 122
    },
    {
      "midi": 57,
      "hit": false,
      "t": 94642.56375000069,
      "d": 119.04725000000326,
      "v": 127
    },
    {
      "midi": 62,
      "hit": false,
      "t": 94642.56375000069,
      "d": 119.04725000000326,
      "v": 127
    },
    {
      "midi": 66,
      "hit": false,
      "t": 94642.56375000069,
      "d": 119.04725000000326,
      "v": 127
    },
    {
      "midi": 45,
      "hit": false,
      "t": 94999.7055000007,
      "d": 119.04725000000326,
      "v": 122
    },
    {
      "midi": 44,
      "hit": false,
      "t": 95475.8945000007,
      "d": 119.04725000000326,
      "v": 122
    },
    {
      "midi": 44,
      "hit": false,
      "t": 95952.08350000069,
      "d": 119.04725000000326,
      "v": 122
    },
    {
      "midi": 45,
      "hit": false,
      "t": 96428.27250000069,
      "d": 119.04725000000326,
      "v": 122
    },
    {
      "midi": 47,
      "hit": false,
      "t": 96904.46150000069,
      "d": 119.04725000000326,
      "v": 122
    },
    {
      "midi": 57,
      "hit": false,
      "t": 97142.5560000007,
      "d": 238.09450000000652,
      "v": 127
    },
    {
      "midi": 62,
      "hit": false,
      "t": 97142.5560000007,
      "d": 238.09450000000652,
      "v": 127
    },
    {
      "midi": 66,
      "hit": false,
      "t": 97142.5560000007,
      "d": 238.09450000000652,
      "v": 127
    },
    {
      "midi": 35,
      "hit": false,
      "t": 97380.6505000007,
      "d": 119.04725000000326,
      "v": 122
    },
    {
      "midi": 57,
      "hit": false,
      "t": 97499.6977500007,
      "d": 119.04725000000326,
      "v": 127
    },
    {
      "midi": 61,
      "hit": false,
      "t": 97499.6977500007,
      "d": 119.04725000000326,
      "v": 127
    },
    {
      "midi": 64,
      "hit": false,
      "t": 97499.6977500007,
      "d": 119.04725000000326,
      "v": 127
    },
    {
      "midi": 37,
      "hit": false,
      "t": 97856.83950000071,
      "d": 119.04725000000326,
      "v": 122
    },
    {
      "midi": 57,
      "hit": false,
      "t": 98094.93400000072,
      "d": 238.09450000000652,
      "v": 127
    },
    {
      "midi": 61,
      "hit": false,
      "t": 98094.93400000072,
      "d": 238.09450000000652,
      "v": 127
    },
    {
      "midi": 64,
      "hit": false,
      "t": 98094.93400000072,
      "d": 238.09450000000652,
      "v": 127
    },
    {
      "midi": 38,
      "hit": false,
      "t": 98333.02850000073,
      "d": 119.04725000000326,
      "v": 122
    },
    {
      "midi": 57,
      "hit": false,
      "t": 98452.07575000073,
      "d": 119.04725000000326,
      "v": 127
    },
    {
      "midi": 59,
      "hit": false,
      "t": 98452.07575000073,
      "d": 119.04725000000326,
      "v": 127
    },
    {
      "midi": 62,
      "hit": false,
      "t": 98452.07575000073,
      "d": 119.04725000000326,
      "v": 127
    },
    {
      "midi": 42,
      "hit": false,
      "t": 98809.21750000074,
      "d": 119.04725000000326,
      "v": 122
    },
    {
      "midi": 40,
      "hit": false,
      "t": 99285.40650000074,
      "d": 119.04725000000326,
      "v": 122
    },
    {
      "midi": 40,
      "hit": false,
      "t": 99761.59550000074,
      "d": 119.04725000000326,
      "v": 122
    },
    {
      "midi": 45,
      "hit": false,
      "t": 100237.78450000074,
      "d": 119.04725000000326,
      "v": 122
    },
    {
      "midi": 45,
      "hit": false,
      "t": 100713.97350000073,
      "d": 119.04725000000326,
      "v": 122
    },
    {
      "midi": 55,
      "hit": false,
      "t": 100952.06800000074,
      "d": 238.09450000000652,
      "v": 127
    },
    {
      "midi": 59,
      "hit": false,
      "t": 100952.06800000074,
      "d": 238.09450000000652,
      "v": 127
    },
    {
      "midi": 62,
      "hit": false,
      "t": 100952.06800000074,
      "d": 238.09450000000652,
      "v": 127
    },
    {
      "midi": 28,
      "hit": false,
      "t": 100952.06800000074,
      "d": 476.18900000001304,
      "v": 127
    },
    {
      "midi": 54,
      "hit": false,
      "t": 101428.25700000075,
      "d": 238.09450000000652,
      "v": 127
    },
    {
      "midi": 57,
      "hit": false,
      "t": 101428.25700000075,
      "d": 238.09450000000652,
      "v": 127
    },
    {
      "midi": 62,
      "hit": false,
      "t": 101428.25700000075,
      "d": 238.09450000000652,
      "v": 127
    },
    {
      "midi": 30,
      "hit": false,
      "t": 101428.25700000075,
      "d": 476.18900000001304,
      "v": 127
    },
    {
      "midi": 55,
      "hit": false,
      "t": 101904.44600000077,
      "d": 238.09450000000652,
      "v": 127
    },
    {
      "midi": 59,
      "hit": false,
      "t": 101904.44600000077,
      "d": 238.09450000000652,
      "v": 127
    },
    {
      "midi": 62,
      "hit": false,
      "t": 101904.44600000077,
      "d": 238.09450000000652,
      "v": 127
    },
    {
      "midi": 31,
      "hit": false,
      "t": 101904.44600000077,
      "d": 476.18900000001304,
      "v": 127
    },
    {
      "midi": 33,
      "hit": false,
      "t": 102380.63500000078,
      "d": 357.1417499999952,
      "v": 127
    },
    {
      "midi": 57,
      "hit": false,
      "t": 102380.63500000078,
      "d": 357.1417499999952,
      "v": 127
    },
    {
      "midi": 61,
      "hit": false,
      "t": 102380.63500000078,
      "d": 357.1417499999952,
      "v": 127
    },
    {
      "midi": 64,
      "hit": false,
      "t": 102380.63500000078,
      "d": 357.1417499999952,
      "v": 127
    },
    {
      "midi": 35,
      "hit": false,
      "t": 102737.77675000078,
      "d": 238.09450000000652,
      "v": 127
    },
    {
      "midi": 59,
      "hit": false,
      "t": 102737.77675000078,
      "d": 238.09450000000652,
      "v": 127
    },
    {
      "midi": 62,
      "hit": false,
      "t": 102737.77675000078,
      "d": 238.09450000000652,
      "v": 127
    },
    {
      "midi": 66,
      "hit": false,
      "t": 102737.77675000078,
      "d": 238.09450000000652,
      "v": 127
    },
    {
      "midi": 57,
      "hit": false,
      "t": 103094.91850000079,
      "d": 119.04725000000326,
      "v": 127
    },
    {
      "midi": 61,
      "hit": false,
      "t": 103094.91850000079,
      "d": 119.04725000000326,
      "v": 127
    },
    {
      "midi": 64,
      "hit": false,
      "t": 103094.91850000079,
      "d": 119.04725000000326,
      "v": 127
    },
    {
      "midi": 57,
      "hit": false,
      "t": 103333.01300000079,
      "d": 119.04725000000326,
      "v": 127
    },
    {
      "midi": 61,
      "hit": false,
      "t": 103333.01300000079,
      "d": 119.04725000000326,
      "v": 127
    },
    {
      "midi": 64,
      "hit": false,
      "t": 103333.01300000079,
      "d": 119.04725000000326,
      "v": 127
    },
    {
      "midi": 57,
      "hit": false,
      "t": 103571.1075000008,
      "d": 119.04725000000326,
      "v": 127
    },
    {
      "midi": 61,
      "hit": false,
      "t": 103571.1075000008,
      "d": 119.04725000000326,
      "v": 127
    },
    {
      "midi": 64,
      "hit": false,
      "t": 103571.1075000008,
      "d": 119.04725000000326,
      "v": 127
    },
    {
      "midi": 57,
      "hit": false,
      "t": 103809.2020000008,
      "d": 357.1417499999952,
      "v": 127
    },
    {
      "midi": 61,
      "hit": false,
      "t": 103809.2020000008,
      "d": 357.1417499999952,
      "v": 127
    },
    {
      "midi": 64,
      "hit": false,
      "t": 103809.2020000008,
      "d": 357.1417499999952,
      "v": 127
    },
    {
      "midi": 57,
      "hit": false,
      "t": 104166.3437500008,
      "d": 595.2362500000017,
      "v": 127
    },
    {
      "midi": 62,
      "hit": false,
      "t": 104166.3437500008,
      "d": 595.2362500000017,
      "v": 127
    },
    {
      "midi": 66,
      "hit": false,
      "t": 104166.3437500008,
      "d": 595.2362500000017,
      "v": 127
    },
    {
      "midi": 55,
      "hit": false,
      "t": 104761.5800000008,
      "d": 238.09450000000652,
      "v": 127
    },
    {
      "midi": 59,
      "hit": false,
      "t": 104761.5800000008,
      "d": 238.09450000000652,
      "v": 127
    },
    {
      "midi": 62,
      "hit": false,
      "t": 104761.5800000008,
      "d": 238.09450000000652,
      "v": 127
    },
    {
      "midi": 28,
      "hit": false,
      "t": 104761.5800000008,
      "d": 476.18900000001304,
      "v": 127
    },
    {
      "midi": 54,
      "hit": false,
      "t": 105237.76900000082,
      "d": 238.09450000000652,
      "v": 127
    },
    {
      "midi": 57,
      "hit": false,
      "t": 105237.76900000082,
      "d": 238.09450000000652,
      "v": 127
    },
    {
      "midi": 62,
      "hit": false,
      "t": 105237.76900000082,
      "d": 238.09450000000652,
      "v": 127
    },
    {
      "midi": 30,
      "hit": false,
      "t": 105237.76900000082,
      "d": 476.18900000001304,
      "v": 127
    },
    {
      "midi": 55,
      "hit": false,
      "t": 105713.95800000083,
      "d": 238.09450000000652,
      "v": 127
    },
    {
      "midi": 59,
      "hit": false,
      "t": 105713.95800000083,
      "d": 238.09450000000652,
      "v": 127
    },
    {
      "midi": 62,
      "hit": false,
      "t": 105713.95800000083,
      "d": 238.09450000000652,
      "v": 127
    },
    {
      "midi": 31,
      "hit": false,
      "t": 105713.95800000083,
      "d": 476.18900000001304,
      "v": 127
    },
    {
      "midi": 33,
      "hit": false,
      "t": 106190.14700000084,
      "d": 357.1417499999952,
      "v": 127
    },
    {
      "midi": 57,
      "hit": false,
      "t": 106190.14700000084,
      "d": 357.1417499999952,
      "v": 127
    },
    {
      "midi": 61,
      "hit": false,
      "t": 106190.14700000084,
      "d": 357.1417499999952,
      "v": 127
    },
    {
      "midi": 64,
      "hit": false,
      "t": 106190.14700000084,
      "d": 357.1417499999952,
      "v": 127
    },
    {
      "midi": 35,
      "hit": false,
      "t": 106547.28875000084,
      "d": 238.09450000000652,
      "v": 127
    },
    {
      "midi": 59,
      "hit": false,
      "t": 106547.28875000084,
      "d": 238.09450000000652,
      "v": 127
    },
    {
      "midi": 62,
      "hit": false,
      "t": 106547.28875000084,
      "d": 238.09450000000652,
      "v": 127
    },
    {
      "midi": 66,
      "hit": false,
      "t": 106547.28875000084,
      "d": 238.09450000000652,
      "v": 127
    },
    {
      "midi": 57,
      "hit": false,
      "t": 106904.43050000085,
      "d": 119.04725000000326,
      "v": 127
    },
    {
      "midi": 61,
      "hit": false,
      "t": 106904.43050000085,
      "d": 119.04725000000326,
      "v": 127
    },
    {
      "midi": 64,
      "hit": false,
      "t": 106904.43050000085,
      "d": 119.04725000000326,
      "v": 127
    },
    {
      "midi": 57,
      "hit": false,
      "t": 107142.52500000085,
      "d": 119.04725000000326,
      "v": 127
    },
    {
      "midi": 61,
      "hit": false,
      "t": 107142.52500000085,
      "d": 119.04725000000326,
      "v": 127
    },
    {
      "midi": 64,
      "hit": false,
      "t": 107142.52500000085,
      "d": 119.04725000000326,
      "v": 127
    },
    {
      "midi": 57,
      "hit": false,
      "t": 107380.61950000086,
      "d": 119.04725000000326,
      "v": 127
    },
    {
      "midi": 61,
      "hit": false,
      "t": 107380.61950000086,
      "d": 119.04725000000326,
      "v": 127
    },
    {
      "midi": 64,
      "hit": false,
      "t": 107380.61950000086,
      "d": 119.04725000000326,
      "v": 127
    },
    {
      "midi": 57,
      "hit": false,
      "t": 107618.71400000087,
      "d": 357.1417499999952,
      "v": 127
    },
    {
      "midi": 61,
      "hit": false,
      "t": 107618.71400000087,
      "d": 357.1417499999952,
      "v": 127
    },
    {
      "midi": 64,
      "hit": false,
      "t": 107618.71400000087,
      "d": 357.1417499999952,
      "v": 127
    },
    {
      "midi": 57,
      "hit": false,
      "t": 107975.85575000086,
      "d": 595.2362500000017,
      "v": 127
    },
    {
      "midi": 62,
      "hit": false,
      "t": 107975.85575000086,
      "d": 595.2362500000017,
      "v": 127
    },
    {
      "midi": 66,
      "hit": false,
      "t": 107975.85575000086,
      "d": 595.2362500000017,
      "v": 127
    },
    {
      "midi": 55,
      "hit": false,
      "t": 108571.09200000086,
      "d": 238.09450000000652,
      "v": 127
    },
    {
      "midi": 59,
      "hit": false,
      "t": 108571.09200000086,
      "d": 238.09450000000652,
      "v": 127
    },
    {
      "midi": 62,
      "hit": false,
      "t": 108571.09200000086,
      "d": 238.09450000000652,
      "v": 127
    },
    {
      "midi": 28,
      "hit": false,
      "t": 108571.09200000086,
      "d": 476.18900000001304,
      "v": 127
    },
    {
      "midi": 54,
      "hit": false,
      "t": 109047.28100000088,
      "d": 238.09450000000652,
      "v": 127
    },
    {
      "midi": 57,
      "hit": false,
      "t": 109047.28100000088,
      "d": 238.09450000000652,
      "v": 127
    },
    {
      "midi": 62,
      "hit": false,
      "t": 109047.28100000088,
      "d": 238.09450000000652,
      "v": 127
    },
    {
      "midi": 30,
      "hit": false,
      "t": 109047.28100000088,
      "d": 476.18900000001304,
      "v": 127
    },
    {
      "midi": 55,
      "hit": false,
      "t": 109523.47000000089,
      "d": 238.09450000000652,
      "v": 127
    },
    {
      "midi": 59,
      "hit": false,
      "t": 109523.47000000089,
      "d": 238.09450000000652,
      "v": 127
    },
    {
      "midi": 62,
      "hit": false,
      "t": 109523.47000000089,
      "d": 238.09450000000652,
      "v": 127
    },
    {
      "midi": 31,
      "hit": false,
      "t": 109523.47000000089,
      "d": 476.18900000001304,
      "v": 127
    },
    {
      "midi": 33,
      "hit": false,
      "t": 109999.6590000009,
      "d": 357.1417499999952,
      "v": 127
    },
    {
      "midi": 57,
      "hit": false,
      "t": 109999.6590000009,
      "d": 357.1417499999952,
      "v": 127
    },
    {
      "midi": 61,
      "hit": false,
      "t": 109999.6590000009,
      "d": 357.1417499999952,
      "v": 127
    },
    {
      "midi": 64,
      "hit": false,
      "t": 109999.6590000009,
      "d": 357.1417499999952,
      "v": 127
    },
    {
      "midi": 35,
      "hit": false,
      "t": 110356.8007500009,
      "d": 238.09450000000652,
      "v": 127
    },
    {
      "midi": 59,
      "hit": false,
      "t": 110356.8007500009,
      "d": 238.09450000000652,
      "v": 127
    },
    {
      "midi": 62,
      "hit": false,
      "t": 110356.8007500009,
      "d": 238.09450000000652,
      "v": 127
    },
    {
      "midi": 66,
      "hit": false,
      "t": 110356.8007500009,
      "d": 238.09450000000652,
      "v": 127
    },
    {
      "midi": 57,
      "hit": false,
      "t": 110713.9425000009,
      "d": 119.04725000000326,
      "v": 127
    },
    {
      "midi": 61,
      "hit": false,
      "t": 110713.9425000009,
      "d": 119.04725000000326,
      "v": 127
    },
    {
      "midi": 64,
      "hit": false,
      "t": 110713.9425000009,
      "d": 119.04725000000326,
      "v": 127
    },
    {
      "midi": 57,
      "hit": false,
      "t": 110952.03700000091,
      "d": 119.04725000000326,
      "v": 127
    },
    {
      "midi": 61,
      "hit": false,
      "t": 110952.03700000091,
      "d": 119.04725000000326,
      "v": 127
    },
    {
      "midi": 64,
      "hit": false,
      "t": 110952.03700000091,
      "d": 119.04725000000326,
      "v": 127
    },
    {
      "midi": 57,
      "hit": false,
      "t": 111190.13150000092,
      "d": 119.04725000000326,
      "v": 127
    },
    {
      "midi": 61,
      "hit": false,
      "t": 111190.13150000092,
      "d": 119.04725000000326,
      "v": 127
    },
    {
      "midi": 64,
      "hit": false,
      "t": 111190.13150000092,
      "d": 119.04725000000326,
      "v": 127
    },
    {
      "midi": 57,
      "hit": false,
      "t": 111428.22600000093,
      "d": 357.1417499999952,
      "v": 127
    },
    {
      "midi": 61,
      "hit": false,
      "t": 111428.22600000093,
      "d": 357.1417499999952,
      "v": 127
    },
    {
      "midi": 64,
      "hit": false,
      "t": 111428.22600000093,
      "d": 357.1417499999952,
      "v": 127
    },
    {
      "midi": 57,
      "hit": false,
      "t": 111785.36775000092,
      "d": 595.2362500000017,
      "v": 127
    },
    {
      "midi": 62,
      "hit": false,
      "t": 111785.36775000092,
      "d": 595.2362500000017,
      "v": 127
    },
    {
      "midi": 66,
      "hit": false,
      "t": 111785.36775000092,
      "d": 595.2362500000017,
      "v": 127
    },
    {
      "midi": 59,
      "hit": false,
      "t": 112380.60400000092,
      "d": 357.1417499999952,
      "v": 127
    },
    {
      "midi": 62,
      "hit": false,
      "t": 112380.60400000092,
      "d": 357.1417499999952,
      "v": 127
    },
    {
      "midi": 66,
      "hit": false,
      "t": 112380.60400000092,
      "d": 357.1417499999952,
      "v": 127
    },
    {
      "midi": 59,
      "hit": false,
      "t": 112856.79300000092,
      "d": 357.1417499999952,
      "v": 127
    },
    {
      "midi": 62,
      "hit": false,
      "t": 112856.79300000092,
      "d": 357.1417499999952,
      "v": 127
    },
    {
      "midi": 66,
      "hit": false,
      "t": 112856.79300000092,
      "d": 357.1417499999952,
      "v": 127
    },
    {
      "midi": 59,
      "hit": false,
      "t": 113332.98200000092,
      "d": 357.1417499999952,
      "v": 127
    },
    {
      "midi": 62,
      "hit": false,
      "t": 113332.98200000092,
      "d": 357.1417499999952,
      "v": 127
    },
    {
      "midi": 66,
      "hit": false,
      "t": 113332.98200000092,
      "d": 357.1417499999952,
      "v": 127
    },
    {
      "midi": 59,
      "hit": false,
      "t": 113809.17100000092,
      "d": 357.1417499999952,
      "v": 127
    },
    {
      "midi": 62,
      "hit": false,
      "t": 113809.17100000092,
      "d": 357.1417499999952,
      "v": 127
    },
    {
      "midi": 66,
      "hit": false,
      "t": 113809.17100000092,
      "d": 357.1417499999952,
      "v": 127
    },
    {
      "midi": 59,
      "hit": false,
      "t": 114285.36000000092,
      "d": 357.1417499999952,
      "v": 127
    },
    {
      "midi": 62,
      "hit": false,
      "t": 114285.36000000092,
      "d": 357.1417499999952,
      "v": 127
    },
    {
      "midi": 66,
      "hit": false,
      "t": 114285.36000000092,
      "d": 357.1417499999952,
      "v": 127
    },
    {
      "midi": 59,
      "hit": false,
      "t": 114761.54900000092,
      "d": 357.1417499999952,
      "v": 127
    },
    {
      "midi": 62,
      "hit": false,
      "t": 114761.54900000092,
      "d": 357.1417499999952,
      "v": 127
    },
    {
      "midi": 66,
      "hit": false,
      "t": 114761.54900000092,
      "d": 357.1417499999952,
      "v": 127
    },
    {
      "midi": 57,
      "hit": false,
      "t": 115475.8325000009,
      "d": 238.09450000000652,
      "v": 127
    },
    {
      "midi": 61,
      "hit": false,
      "t": 115475.8325000009,
      "d": 238.09450000000652,
      "v": 127
    },
    {
      "midi": 64,
      "hit": false,
      "t": 115475.8325000009,
      "d": 238.09450000000652,
      "v": 127
    },
    {
      "midi": 59,
      "hit": false,
      "t": 115952.02150000092,
      "d": 357.1417499999952,
      "v": 127
    },
    {
      "midi": 64,
      "hit": false,
      "t": 115952.02150000092,
      "d": 357.1417499999952,
      "v": 127
    },
    {
      "midi": 66,
      "hit": false,
      "t": 115952.02150000092,
      "d": 357.1417499999952,
      "v": 127
    },
    {
      "midi": 59,
      "hit": false,
      "t": 116428.21050000092,
      "d": 119.04725000000326,
      "v": 127
    },
    {
      "midi": 64,
      "hit": false,
      "t": 116428.21050000092,
      "d": 119.04725000000326,
      "v": 127
    },
    {
      "midi": 66,
      "hit": false,
      "t": 116428.21050000092,
      "d": 119.04725000000326,
      "v": 127
    },
    {
      "midi": 59,
      "hit": false,
      "t": 116666.30500000092,
      "d": 357.1417499999952,
      "v": 127
    },
    {
      "midi": 64,
      "hit": false,
      "t": 116666.30500000092,
      "d": 357.1417499999952,
      "v": 127
    },
    {
      "midi": 66,
      "hit": false,
      "t": 116666.30500000092,
      "d": 357.1417499999952,
      "v": 127
    },
    {
      "midi": 59,
      "hit": false,
      "t": 117142.49400000092,
      "d": 119.04725000000326,
      "v": 127
    },
    {
      "midi": 64,
      "hit": false,
      "t": 117142.49400000092,
      "d": 119.04725000000326,
      "v": 127
    },
    {
      "midi": 66,
      "hit": false,
      "t": 117142.49400000092,
      "d": 119.04725000000326,
      "v": 127
    },
    {
      "midi": 59,
      "hit": false,
      "t": 117380.58850000093,
      "d": 357.1417499999952,
      "v": 127
    },
    {
      "midi": 64,
      "hit": false,
      "t": 117380.58850000093,
      "d": 357.1417499999952,
      "v": 127
    },
    {
      "midi": 66,
      "hit": false,
      "t": 117380.58850000093,
      "d": 357.1417499999952,
      "v": 127
    },
    {
      "midi": 59,
      "hit": false,
      "t": 117856.77750000093,
      "d": 357.1417499999952,
      "v": 127
    },
    {
      "midi": 63,
      "hit": false,
      "t": 117856.77750000093,
      "d": 357.1417499999952,
      "v": 127
    },
    {
      "midi": 66,
      "hit": false,
      "t": 117856.77750000093,
      "d": 357.1417499999952,
      "v": 127
    },
    {
      "midi": 59,
      "hit": false,
      "t": 118332.96650000093,
      "d": 119.04725000000326,
      "v": 127
    },
    {
      "midi": 63,
      "hit": false,
      "t": 118332.96650000093,
      "d": 119.04725000000326,
      "v": 127
    },
    {
      "midi": 66,
      "hit": false,
      "t": 118332.96650000093,
      "d": 119.04725000000326,
      "v": 127
    },
    {
      "midi": 59,
      "hit": false,
      "t": 118571.06100000093,
      "d": 357.1417499999952,
      "v": 127
    },
    {
      "midi": 63,
      "hit": false,
      "t": 118571.06100000093,
      "d": 357.1417499999952,
      "v": 127
    },
    {
      "midi": 66,
      "hit": false,
      "t": 118571.06100000093,
      "d": 357.1417499999952,
      "v": 127
    },
    {
      "midi": 59,
      "hit": false,
      "t": 119047.25000000093,
      "d": 119.04725000000326,
      "v": 127
    },
    {
      "midi": 63,
      "hit": false,
      "t": 119047.25000000093,
      "d": 119.04725000000326,
      "v": 127
    },
    {
      "midi": 66,
      "hit": false,
      "t": 119047.25000000093,
      "d": 119.04725000000326,
      "v": 127
    },
    {
      "midi": 59,
      "hit": false,
      "t": 119285.34450000094,
      "d": 714.283500000005,
      "v": 127
    },
    {
      "midi": 63,
      "hit": false,
      "t": 119285.34450000094,
      "d": 714.283500000005,
      "v": 127
    },
    {
      "midi": 66,
      "hit": false,
      "t": 119285.34450000094,
      "d": 714.283500000005,
      "v": 127
    },
    {
      "midi": 55,
      "hit": false,
      "t": 119999.62800000094,
      "d": 952.3780000000261,
      "v": 127
    },
    {
      "midi": 59,
      "hit": false,
      "t": 119999.62800000094,
      "d": 952.3780000000261,
      "v": 127
    },
    {
      "midi": 62,
      "hit": false,
      "t": 119999.62800000094,
      "d": 952.3780000000261,
      "v": 127
    },
    {
      "midi": 40,
      "hit": false,
      "t": 120237.72250000095,
      "d": 238.09450000000652,
      "v": 127
    },
    {
      "midi": 40,
      "hit": false,
      "t": 120713.91150000096,
      "d": 238.09450000000652,
      "v": 127
    },
    {
      "midi": 57,
      "hit": false,
      "t": 120952.00600000097,
      "d": 595.2362500000163,
      "v": 127
    },
    {
      "midi": 61,
      "hit": false,
      "t": 120952.00600000097,
      "d": 595.2362500000163,
      "v": 127
    },
    {
      "midi": 64,
      "hit": false,
      "t": 120952.00600000097,
      "d": 595.2362500000163,
      "v": 127
    },
    {
      "midi": 42,
      "hit": false,
      "t": 121190.10050000098,
      "d": 238.09450000000652,
      "v": 127
    },
    {
      "midi": 45,
      "hit": false,
      "t": 121666.28950000099,
      "d": 238.09450000000652,
      "v": 127
    },
    {
      "midi": 57,
      "hit": false,
      "t": 121666.28950000099,
      "d": 476.18900000001304,
      "v": 127
    },
    {
      "midi": 61,
      "hit": false,
      "t": 121666.28950000099,
      "d": 476.18900000001304,
      "v": 127
    },
    {
      "midi": 64,
      "hit": false,
      "t": 121666.28950000099,
      "d": 476.18900000001304,
      "v": 127
    },
    {
      "midi": 59,
      "hit": false,
      "t": 122142.478500001,
      "d": 119.04725000000326,
      "v": 127
    },
    {
      "midi": 62,
      "hit": false,
      "t": 122142.478500001,
      "d": 119.04725000000326,
      "v": 127
    },
    {
      "midi": 66,
      "hit": false,
      "t": 122142.478500001,
      "d": 119.04725000000326,
      "v": 127
    },
    {
      "midi": 47,
      "hit": false,
      "t": 122142.478500001,
      "d": 238.09450000000652,
      "v": 127
    },
    {
      "midi": 59,
      "hit": false,
      "t": 122380.57300000101,
      "d": 357.1417500000098,
      "v": 127
    },
    {
      "midi": 62,
      "hit": false,
      "t": 122380.57300000101,
      "d": 357.1417500000098,
      "v": 127
    },
    {
      "midi": 66,
      "hit": false,
      "t": 122380.57300000101,
      "d": 357.1417500000098,
      "v": 127
    },
    {
      "midi": 47,
      "hit": false,
      "t": 122618.66750000101,
      "d": 238.09450000000652,
      "v": 127
    },
    {
      "midi": 59,
      "hit": false,
      "t": 122856.76200000102,
      "d": 357.1417499999952,
      "v": 127
    },
    {
      "midi": 62,
      "hit": false,
      "t": 122856.76200000102,
      "d": 357.1417499999952,
      "v": 127
    },
    {
      "midi": 66,
      "hit": false,
      "t": 122856.76200000102,
      "d": 357.1417499999952,
      "v": 127
    },
    {
      "midi": 43,
      "hit": false,
      "t": 122856.76200000102,
      "d": 476.1889999999985,
      "v": 127
    },
    {
      "midi": 59,
      "hit": false,
      "t": 123332.95100000102,
      "d": 357.1417499999952,
      "v": 127
    },
    {
      "midi": 62,
      "hit": false,
      "t": 123332.95100000102,
      "d": 357.1417499999952,
      "v": 127
    },
    {
      "midi": 66,
      "hit": false,
      "t": 123332.95100000102,
      "d": 357.1417499999952,
      "v": 127
    },
    {
      "midi": 42,
      "hit": false,
      "t": 123332.95100000102,
      "d": 476.1889999999985,
      "v": 127
    },
    {
      "midi": 55,
      "hit": false,
      "t": 123809.14000000102,
      "d": 952.3780000000261,
      "v": 127
    },
    {
      "midi": 59,
      "hit": false,
      "t": 123809.14000000102,
      "d": 952.3780000000261,
      "v": 127
    },
    {
      "midi": 62,
      "hit": false,
      "t": 123809.14000000102,
      "d": 952.3780000000261,
      "v": 127
    },
    {
      "midi": 40,
      "hit": false,
      "t": 124047.23450000102,
      "d": 238.09450000000652,
      "v": 127
    },
    {
      "midi": 40,
      "hit": false,
      "t": 124523.42350000104,
      "d": 238.09450000000652,
      "v": 127
    },
    {
      "midi": 57,
      "hit": false,
      "t": 124761.51800000104,
      "d": 595.2362500000163,
      "v": 127
    },
    {
      "midi": 61,
      "hit": false,
      "t": 124761.51800000104,
      "d": 595.2362500000163,
      "v": 127
    },
    {
      "midi": 64,
      "hit": false,
      "t": 124761.51800000104,
      "d": 595.2362500000163,
      "v": 127
    },
    {
      "midi": 42,
      "hit": false,
      "t": 124999.61250000105,
      "d": 238.09450000000652,
      "v": 127
    },
    {
      "midi": 45,
      "hit": false,
      "t": 125475.80150000106,
      "d": 238.09450000000652,
      "v": 127
    },
    {
      "midi": 57,
      "hit": false,
      "t": 125475.80150000106,
      "d": 476.18900000001304,
      "v": 127
    },
    {
      "midi": 61,
      "hit": false,
      "t": 125475.80150000106,
      "d": 476.18900000001304,
      "v": 127
    },
    {
      "midi": 64,
      "hit": false,
      "t": 125475.80150000106,
      "d": 476.18900000001304,
      "v": 127
    },
    {
      "midi": 59,
      "hit": false,
      "t": 125951.99050000108,
      "d": 119.04725000000326,
      "v": 127
    },
    {
      "midi": 62,
      "hit": false,
      "t": 125951.99050000108,
      "d": 119.04725000000326,
      "v": 127
    },
    {
      "midi": 66,
      "hit": false,
      "t": 125951.99050000108,
      "d": 119.04725000000326,
      "v": 127
    },
    {
      "midi": 47,
      "hit": false,
      "t": 125951.99050000108,
      "d": 238.09450000000652,
      "v": 127
    },
    {
      "midi": 59,
      "hit": false,
      "t": 126190.08500000108,
      "d": 357.1417500000098,
      "v": 127
    },
    {
      "midi": 62,
      "hit": false,
      "t": 126190.08500000108,
      "d": 357.1417500000098,
      "v": 127
    },
    {
      "midi": 66,
      "hit": false,
      "t": 126190.08500000108,
      "d": 357.1417500000098,
      "v": 127
    },
    {
      "midi": 47,
      "hit": false,
      "t": 126428.17950000109,
      "d": 238.09450000000652,
      "v": 127
    },
    {
      "midi": 59,
      "hit": false,
      "t": 126666.2740000011,
      "d": 357.1417499999952,
      "v": 127
    },
    {
      "midi": 62,
      "hit": false,
      "t": 126666.2740000011,
      "d": 357.1417499999952,
      "v": 127
    },
    {
      "midi": 66,
      "hit": false,
      "t": 126666.2740000011,
      "d": 357.1417499999952,
      "v": 127
    },
    {
      "midi": 43,
      "hit": false,
      "t": 126666.2740000011,
      "d": 476.1889999999985,
      "v": 127
    },
    {
      "midi": 59,
      "hit": false,
      "t": 127142.4630000011,
      "d": 357.1417499999952,
      "v": 127
    },
    {
      "midi": 62,
      "hit": false,
      "t": 127142.4630000011,
      "d": 357.1417499999952,
      "v": 127
    },
    {
      "midi": 66,
      "hit": false,
      "t": 127142.4630000011,
      "d": 357.1417499999952,
      "v": 127
    },
    {
      "midi": 42,
      "hit": false,
      "t": 127142.4630000011,
      "d": 476.1889999999985,
      "v": 127
    },
    {
      "midi": 55,
      "hit": false,
      "t": 127618.6520000011,
      "d": 952.3780000000261,
      "v": 127
    },
    {
      "midi": 59,
      "hit": false,
      "t": 127618.6520000011,
      "d": 952.3780000000261,
      "v": 127
    },
    {
      "midi": 62,
      "hit": false,
      "t": 127618.6520000011,
      "d": 952.3780000000261,
      "v": 127
    },
    {
      "midi": 40,
      "hit": false,
      "t": 127856.7465000011,
      "d": 238.09450000000652,
      "v": 127
    },
    {
      "midi": 40,
      "hit": false,
      "t": 128332.93550000111,
      "d": 238.09450000000652,
      "v": 127
    },
    {
      "midi": 57,
      "hit": false,
      "t": 128571.03000000112,
      "d": 595.2362500000163,
      "v": 127
    },
    {
      "midi": 61,
      "hit": false,
      "t": 128571.03000000112,
      "d": 595.2362500000163,
      "v": 127
    },
    {
      "midi": 64,
      "hit": false,
      "t": 128571.03000000112,
      "d": 595.2362500000163,
      "v": 127
    },
    {
      "midi": 42,
      "hit": false,
      "t": 128809.12450000113,
      "d": 238.09450000000652,
      "v": 127
    },
    {
      "midi": 45,
      "hit": false,
      "t": 129285.31350000114,
      "d": 238.09450000000652,
      "v": 127
    },
    {
      "midi": 57,
      "hit": false,
      "t": 129285.31350000114,
      "d": 476.18900000001304,
      "v": 127
    },
    {
      "midi": 61,
      "hit": false,
      "t": 129285.31350000114,
      "d": 476.18900000001304,
      "v": 127
    },
    {
      "midi": 64,
      "hit": false,
      "t": 129285.31350000114,
      "d": 476.18900000001304,
      "v": 127
    },
    {
      "midi": 59,
      "hit": false,
      "t": 129761.50250000115,
      "d": 119.04725000000326,
      "v": 127
    },
    {
      "midi": 62,
      "hit": false,
      "t": 129761.50250000115,
      "d": 119.04725000000326,
      "v": 127
    },
    {
      "midi": 66,
      "hit": false,
      "t": 129761.50250000115,
      "d": 119.04725000000326,
      "v": 127
    },
    {
      "midi": 47,
      "hit": false,
      "t": 129761.50250000115,
      "d": 238.09450000000652,
      "v": 127
    },
    {
      "midi": 59,
      "hit": false,
      "t": 129999.59700000116,
      "d": 357.1417500000098,
      "v": 127
    },
    {
      "midi": 62,
      "hit": false,
      "t": 129999.59700000116,
      "d": 357.1417500000098,
      "v": 127
    },
    {
      "midi": 66,
      "hit": false,
      "t": 129999.59700000116,
      "d": 357.1417500000098,
      "v": 127
    },
    {
      "midi": 47,
      "hit": false,
      "t": 130237.69150000116,
      "d": 238.09450000000652,
      "v": 127
    },
    {
      "midi": 59,
      "hit": false,
      "t": 130475.78600000117,
      "d": 357.1417499999952,
      "v": 127
    },
    {
      "midi": 62,
      "hit": false,
      "t": 130475.78600000117,
      "d": 357.1417499999952,
      "v": 127
    },
    {
      "midi": 66,
      "hit": false,
      "t": 130475.78600000117,
      "d": 357.1417499999952,
      "v": 127
    },
    {
      "midi": 43,
      "hit": false,
      "t": 130475.78600000117,
      "d": 476.1889999999985,
      "v": 127
    },
    {
      "midi": 59,
      "hit": false,
      "t": 130951.97500000117,
      "d": 357.1417500000098,
      "v": 127
    },
    {
      "midi": 62,
      "hit": false,
      "t": 130951.97500000117,
      "d": 357.1417500000098,
      "v": 127
    },
    {
      "midi": 66,
      "hit": false,
      "t": 130951.97500000117,
      "d": 357.1417500000098,
      "v": 127
    },
    {
      "midi": 42,
      "hit": false,
      "t": 130951.97500000117,
      "d": 476.18900000001304,
      "v": 127
    },
    {
      "midi": 52,
      "hit": false,
      "t": 131428.16400000118,
      "d": 3809.5120000001043,
      "v": 127
    },
    {
      "midi": 56,
      "hit": false,
      "t": 131428.16400000118,
      "d": 3809.5120000001043,
      "v": 127
    },
    {
      "midi": 59,
      "hit": false,
      "t": 131428.16400000118,
      "d": 3809.5120000001043,
      "v": 127
    },
    {
      "midi": 40,
      "hit": false,
      "t": 131666.2585000012,
      "d": 238.09450000000652,
      "v": 127
    },
    {
      "midi": 40,
      "hit": false,
      "t": 132142.4475000012,
      "d": 238.09450000000652,
      "v": 127
    },
    {
      "midi": 40,
      "hit": false,
      "t": 132618.63650000122,
      "d": 238.09450000000652,
      "v": 127
    },
    {
      "midi": 40,
      "hit": false,
      "t": 133094.82550000123,
      "d": 238.09450000000652,
      "v": 127
    },
    {
      "midi": 40,
      "hit": false,
      "t": 133571.01450000124,
      "d": 238.09450000000652,
      "v": 127
    },
    {
      "midi": 40,
      "hit": false,
      "t": 134047.20350000125,
      "d": 238.09450000000652,
      "v": 127
    },
    {
      "midi": 40,
      "hit": false,
      "t": 134523.39250000127,
      "d": 238.09450000000652,
      "v": 127
    },
    {
      "midi": 40,
      "hit": false,
      "t": 134999.58150000128,
      "d": 238.09450000000652,
      "v": 127
    },
    {
      "midi": 55,
      "hit": false,
      "t": 135237.6760000013,
      "d": 952.3780000000261,
      "v": 127
    },
    {
      "midi": 59,
      "hit": false,
      "t": 135237.6760000013,
      "d": 952.3780000000261,
      "v": 127
    },
    {
      "midi": 62,
      "hit": false,
      "t": 135237.6760000013,
      "d": 952.3780000000261,
      "v": 127
    },
    {
      "midi": 40,
      "hit": false,
      "t": 135475.7705000013,
      "d": 238.09450000000652,
      "v": 127
    },
    {
      "midi": 40,
      "hit": false,
      "t": 135951.9595000013,
      "d": 238.09450000000652,
      "v": 127
    },
    {
      "midi": 57,
      "hit": false,
      "t": 136190.0540000013,
      "d": 595.2362500000163,
      "v": 127
    },
    {
      "midi": 61,
      "hit": false,
      "t": 136190.0540000013,
      "d": 595.2362500000163,
      "v": 127
    },
    {
      "midi": 64,
      "hit": false,
      "t": 136190.0540000013,
      "d": 595.2362500000163,
      "v": 127
    },
    {
      "midi": 42,
      "hit": false,
      "t": 136428.14850000132,
      "d": 238.09450000000652,
      "v": 127
    },
    {
      "midi": 45,
      "hit": false,
      "t": 136904.33750000133,
      "d": 238.09450000000652,
      "v": 127
    },
    {
      "midi": 57,
      "hit": false,
      "t": 136904.33750000133,
      "d": 476.18900000001304,
      "v": 127
    },
    {
      "midi": 61,
      "hit": false,
      "t": 136904.33750000133,
      "d": 476.18900000001304,
      "v": 127
    },
    {
      "midi": 64,
      "hit": false,
      "t": 136904.33750000133,
      "d": 476.18900000001304,
      "v": 127
    },
    {
      "midi": 59,
      "hit": false,
      "t": 137380.52650000135,
      "d": 119.04725000000326,
      "v": 127
    },
    {
      "midi": 62,
      "hit": false,
      "t": 137380.52650000135,
      "d": 119.04725000000326,
      "v": 127
    },
    {
      "midi": 66,
      "hit": false,
      "t": 137380.52650000135,
      "d": 119.04725000000326,
      "v": 127
    },
    {
      "midi": 47,
      "hit": false,
      "t": 137380.52650000135,
      "d": 238.09450000000652,
      "v": 127
    },
    {
      "midi": 59,
      "hit": false,
      "t": 137618.62100000135,
      "d": 357.1417500000098,
      "v": 127
    },
    {
      "midi": 62,
      "hit": false,
      "t": 137618.62100000135,
      "d": 357.1417500000098,
      "v": 127
    },
    {
      "midi": 66,
      "hit": false,
      "t": 137618.62100000135,
      "d": 357.1417500000098,
      "v": 127
    },
    {
      "midi": 47,
      "hit": false,
      "t": 137856.71550000136,
      "d": 238.09450000000652,
      "v": 127
    },
    {
      "midi": 59,
      "hit": false,
      "t": 138094.81000000137,
      "d": 357.1417500000098,
      "v": 127
    },
    {
      "midi": 62,
      "hit": false,
      "t": 138094.81000000137,
      "d": 357.1417500000098,
      "v": 127
    },
    {
      "midi": 66,
      "hit": false,
      "t": 138094.81000000137,
      "d": 357.1417500000098,
      "v": 127
    },
    {
      "midi": 43,
      "hit": false,
      "t": 138094.81000000137,
      "d": 476.18900000001304,
      "v": 127
    },
    {
      "midi": 59,
      "hit": false,
      "t": 138570.99900000138,
      "d": 357.1417500000098,
      "v": 127
    },
    {
      "midi": 62,
      "hit": false,
      "t": 138570.99900000138,
      "d": 357.1417500000098,
      "v": 127
    },
    {
      "midi": 66,
      "hit": false,
      "t": 138570.99900000138,
      "d": 357.1417500000098,
      "v": 127
    },
    {
      "midi": 42,
      "hit": false,
      "t": 138570.99900000138,
      "d": 476.18900000001304,
      "v": 127
    },
    {
      "midi": 55,
      "hit": false,
      "t": 139047.1880000014,
      "d": 952.3780000000261,
      "v": 127
    },
    {
      "midi": 59,
      "hit": false,
      "t": 139047.1880000014,
      "d": 952.3780000000261,
      "v": 127
    },
    {
      "midi": 62,
      "hit": false,
      "t": 139047.1880000014,
      "d": 952.3780000000261,
      "v": 127
    },
    {
      "midi": 40,
      "hit": false,
      "t": 139285.2825000014,
      "d": 238.09450000000652,
      "v": 127
    },
    {
      "midi": 40,
      "hit": false,
      "t": 139761.4715000014,
      "d": 238.09450000000652,
      "v": 127
    },
    {
      "midi": 57,
      "hit": false,
      "t": 139999.56600000142,
      "d": 595.2362500000163,
      "v": 127
    },
    {
      "midi": 61,
      "hit": false,
      "t": 139999.56600000142,
      "d": 595.2362500000163,
      "v": 127
    },
    {
      "midi": 64,
      "hit": false,
      "t": 139999.56600000142,
      "d": 595.2362500000163,
      "v": 127
    },
    {
      "midi": 42,
      "hit": false,
      "t": 140237.66050000142,
      "d": 238.09450000000652,
      "v": 127
    },
    {
      "midi": 45,
      "hit": false,
      "t": 140713.84950000144,
      "d": 238.09450000000652,
      "v": 127
    },
    {
      "midi": 57,
      "hit": false,
      "t": 140713.84950000144,
      "d": 476.18900000001304,
      "v": 127
    },
    {
      "midi": 61,
      "hit": false,
      "t": 140713.84950000144,
      "d": 476.18900000001304,
      "v": 127
    },
    {
      "midi": 64,
      "hit": false,
      "t": 140713.84950000144,
      "d": 476.18900000001304,
      "v": 127
    },
    {
      "midi": 59,
      "hit": false,
      "t": 141190.03850000145,
      "d": 119.04725000000326,
      "v": 127
    },
    {
      "midi": 62,
      "hit": false,
      "t": 141190.03850000145,
      "d": 119.04725000000326,
      "v": 127
    },
    {
      "midi": 66,
      "hit": false,
      "t": 141190.03850000145,
      "d": 119.04725000000326,
      "v": 127
    },
    {
      "midi": 47,
      "hit": false,
      "t": 141190.03850000145,
      "d": 238.09450000000652,
      "v": 127
    },
    {
      "midi": 59,
      "hit": false,
      "t": 141428.13300000146,
      "d": 357.1417500000098,
      "v": 127
    },
    {
      "midi": 62,
      "hit": false,
      "t": 141428.13300000146,
      "d": 357.1417500000098,
      "v": 127
    },
    {
      "midi": 66,
      "hit": false,
      "t": 141428.13300000146,
      "d": 357.1417500000098,
      "v": 127
    },
    {
      "midi": 47,
      "hit": false,
      "t": 141666.22750000146,
      "d": 238.09450000000652,
      "v": 127
    },
    {
      "midi": 59,
      "hit": false,
      "t": 141904.32200000147,
      "d": 357.1417500000098,
      "v": 127
    },
    {
      "midi": 62,
      "hit": false,
      "t": 141904.32200000147,
      "d": 357.1417500000098,
      "v": 127
    },
    {
      "midi": 66,
      "hit": false,
      "t": 141904.32200000147,
      "d": 357.1417500000098,
      "v": 127
    },
    {
      "midi": 43,
      "hit": false,
      "t": 141904.32200000147,
      "d": 476.18900000001304,
      "v": 127
    },
    {
      "midi": 59,
      "hit": false,
      "t": 142380.51100000148,
      "d": 357.1417500000098,
      "v": 127
    },
    {
      "midi": 62,
      "hit": false,
      "t": 142380.51100000148,
      "d": 357.1417500000098,
      "v": 127
    },
    {
      "midi": 66,
      "hit": false,
      "t": 142380.51100000148,
      "d": 357.1417500000098,
      "v": 127
    },
    {
      "midi": 42,
      "hit": false,
      "t": 142380.51100000148,
      "d": 476.18900000001304,
      "v": 127
    },
    {
      "midi": 55,
      "hit": false,
      "t": 142856.7000000015,
      "d": 952.3780000000261,
      "v": 127
    },
    {
      "midi": 59,
      "hit": false,
      "t": 142856.7000000015,
      "d": 952.3780000000261,
      "v": 127
    },
    {
      "midi": 62,
      "hit": false,
      "t": 142856.7000000015,
      "d": 952.3780000000261,
      "v": 127
    },
    {
      "midi": 40,
      "hit": false,
      "t": 143094.7945000015,
      "d": 238.09450000000652,
      "v": 127
    },
    {
      "midi": 40,
      "hit": false,
      "t": 143570.98350000152,
      "d": 238.09450000000652,
      "v": 127
    },
    {
      "midi": 57,
      "hit": false,
      "t": 143809.07800000152,
      "d": 595.2362500000163,
      "v": 127
    },
    {
      "midi": 61,
      "hit": false,
      "t": 143809.07800000152,
      "d": 595.2362500000163,
      "v": 127
    },
    {
      "midi": 64,
      "hit": false,
      "t": 143809.07800000152,
      "d": 595.2362500000163,
      "v": 127
    },
    {
      "midi": 42,
      "hit": false,
      "t": 144047.17250000153,
      "d": 238.09450000000652,
      "v": 127
    },
    {
      "midi": 45,
      "hit": false,
      "t": 144523.36150000154,
      "d": 238.09450000000652,
      "v": 127
    },
    {
      "midi": 57,
      "hit": false,
      "t": 144523.36150000154,
      "d": 476.18900000001304,
      "v": 127
    },
    {
      "midi": 61,
      "hit": false,
      "t": 144523.36150000154,
      "d": 476.18900000001304,
      "v": 127
    },
    {
      "midi": 64,
      "hit": false,
      "t": 144523.36150000154,
      "d": 476.18900000001304,
      "v": 127
    },
    {
      "midi": 59,
      "hit": false,
      "t": 144999.55050000155,
      "d": 119.04725000000326,
      "v": 127
    },
    {
      "midi": 62,
      "hit": false,
      "t": 144999.55050000155,
      "d": 119.04725000000326,
      "v": 127
    },
    {
      "midi": 66,
      "hit": false,
      "t": 144999.55050000155,
      "d": 119.04725000000326,
      "v": 127
    },
    {
      "midi": 47,
      "hit": false,
      "t": 144999.55050000155,
      "d": 238.09450000000652,
      "v": 127
    },
    {
      "midi": 59,
      "hit": false,
      "t": 145237.64500000156,
      "d": 357.1417500000098,
      "v": 127
    },
    {
      "midi": 62,
      "hit": false,
      "t": 145237.64500000156,
      "d": 357.1417500000098,
      "v": 127
    },
    {
      "midi": 66,
      "hit": false,
      "t": 145237.64500000156,
      "d": 357.1417500000098,
      "v": 127
    },
    {
      "midi": 47,
      "hit": false,
      "t": 145475.73950000157,
      "d": 238.09450000000652,
      "v": 127
    },
    {
      "midi": 59,
      "hit": false,
      "t": 145713.83400000157,
      "d": 357.1417500000098,
      "v": 127
    },
    {
      "midi": 62,
      "hit": false,
      "t": 145713.83400000157,
      "d": 357.1417500000098,
      "v": 127
    },
    {
      "midi": 66,
      "hit": false,
      "t": 145713.83400000157,
      "d": 357.1417500000098,
      "v": 127
    },
    {
      "midi": 43,
      "hit": false,
      "t": 145713.83400000157,
      "d": 476.18900000001304,
      "v": 127
    },
    {
      "midi": 59,
      "hit": false,
      "t": 146190.0230000016,
      "d": 357.1417500000098,
      "v": 127
    },
    {
      "midi": 62,
      "hit": false,
      "t": 146190.0230000016,
      "d": 357.1417500000098,
      "v": 127
    },
    {
      "midi": 66,
      "hit": false,
      "t": 146190.0230000016,
      "d": 357.1417500000098,
      "v": 127
    },
    {
      "midi": 42,
      "hit": false,
      "t": 146190.0230000016,
      "d": 476.18900000001304,
      "v": 127
    },
    {
      "midi": 52,
      "hit": false,
      "t": 146666.2120000016,
      "d": 3809.5120000001043,
      "v": 127
    },
    {
      "midi": 56,
      "hit": false,
      "t": 146666.2120000016,
      "d": 3809.5120000001043,
      "v": 127
    },
    {
      "midi": 59,
      "hit": false,
      "t": 146666.2120000016,
      "d": 3809.5120000001043,
      "v": 127
    },
    {
      "midi": 40,
      "hit": false,
      "t": 146904.3065000016,
      "d": 238.09450000000652,
      "v": 127
    },
    {
      "midi": 40,
      "hit": false,
      "t": 147380.49550000162,
      "d": 238.09450000000652,
      "v": 127
    },
    {
      "midi": 40,
      "hit": false,
      "t": 147856.68450000163,
      "d": 238.09450000000652,
      "v": 127
    },
    {
      "midi": 40,
      "hit": false,
      "t": 148332.87350000165,
      "d": 238.09450000000652,
      "v": 127
    },
    {
      "midi": 40,
      "hit": false,
      "t": 148809.06250000166,
      "d": 238.09450000000652,
      "v": 127
    },
    {
      "midi": 40,
      "hit": false,
      "t": 149285.25150000167,
      "d": 238.09450000000652,
      "v": 127
    },
    {
      "midi": 40,
      "hit": false,
      "t": 149761.44050000168,
      "d": 238.09450000000652,
      "v": 127
    },
    {
      "midi": 40,
      "hit": false,
      "t": 150237.6295000017,
      "d": 238.09450000000652,
      "v": 127
    },
    {
      "midi": 52,
      "hit": false,
      "t": 150475.7240000017,
      "d": 3571.417500000098,
      "v": 127
    },
    {
      "midi": 56,
      "hit": false,
      "t": 150475.7240000017,
      "d": 3571.417500000098,
      "v": 127
    },
    {
      "midi": 59,
      "hit": false,
      "t": 150475.7240000017,
      "d": 3571.417500000098,
      "v": 127
    },
    {
      "midi": 40,
      "hit": false,
      "t": 150713.8185000017,
      "d": 238.09450000000652,
      "v": 127
    },
    {
      "midi": 40,
      "hit": false,
      "t": 151190.00750000172,
      "d": 238.09450000000652,
      "v": 127
    },
    {
      "midi": 40,
      "hit": false,
      "t": 151666.19650000174,
      "d": 238.09450000000652,
      "v": 127
    },
    {
      "midi": 40,
      "hit": false,
      "t": 152142.38550000175,
      "d": 238.09450000000652,
      "v": 127
    },
    {
      "midi": 40,
      "hit": false,
      "t": 152618.57450000176,
      "d": 238.09450000000652,
      "v": 127
    },
    {
      "midi": 40,
      "hit": false,
      "t": 153094.76350000178,
      "d": 238.09450000000652,
      "v": 127
    },
    {
      "midi": 40,
      "hit": false,
      "t": 153570.9525000018,
      "d": 238.09450000000652,
      "v": 127
    },
    {
      "midi": 47,
      "hit": false,
      "t": 154047.1415000018,
      "d": 238.09450000000652,
      "v": 127
    },
    {
      "midi": 59,
      "hit": false,
      "t": 154047.1415000018,
      "d": 4047.606500000111,
      "v": 127
    },
    {
      "midi": 62,
      "hit": false,
      "t": 154047.1415000018,
      "d": 4047.606500000111,
      "v": 127
    },
    {
      "midi": 66,
      "hit": false,
      "t": 154047.1415000018,
      "d": 4047.606500000111,
      "v": 127
    },
    {
      "midi": 47,
      "hit": false,
      "t": 154523.33050000182,
      "d": 238.09450000000652,
      "v": 127
    },
    {
      "midi": 47,
      "hit": false,
      "t": 154999.51950000183,
      "d": 238.09450000000652,
      "v": 127
    },
    {
      "midi": 47,
      "hit": false,
      "t": 155475.70850000184,
      "d": 238.09450000000652,
      "v": 127
    },
    {
      "midi": 47,
      "hit": false,
      "t": 155951.89750000185,
      "d": 238.09450000000652,
      "v": 127
    },
    {
      "midi": 47,
      "hit": false,
      "t": 156428.08650000187,
      "d": 238.09450000000652,
      "v": 127
    },
    {
      "midi": 47,
      "hit": false,
      "t": 156904.27550000188,
      "d": 238.09450000000652,
      "v": 127
    },
    {
      "midi": 47,
      "hit": false,
      "t": 157380.4645000019,
      "d": 238.09450000000652,
      "v": 127
    },
    {
      "midi": 47,
      "hit": false,
      "t": 157856.6535000019,
      "d": 238.09450000000652,
      "v": 127
    },
    {
      "midi": 59,
      "hit": false,
      "t": 173332.79600000192,
      "d": 1071.4252500000293,
      "v": 127
    },
    {
      "midi": 61,
      "hit": false,
      "t": 173332.79600000192,
      "d": 1071.4252500000293,
      "v": 127
    },
    {
      "midi": 64,
      "hit": false,
      "t": 173332.79600000192,
      "d": 1071.4252500000293,
      "v": 127
    },
    {
      "midi": 47,
      "hit": false,
      "t": 173570.89050000193,
      "d": 238.09450000000652,
      "v": 127
    },
    {
      "midi": 47,
      "hit": false,
      "t": 174047.07950000194,
      "d": 238.09450000000652,
      "v": 127
    },
    {
      "midi": 57,
      "hit": false,
      "t": 174523.26850000196,
      "d": 119.04725000000326,
      "v": 127
    },
    {
      "midi": 61,
      "hit": false,
      "t": 174523.26850000196,
      "d": 119.04725000000326,
      "v": 127
    },
    {
      "midi": 64,
      "hit": false,
      "t": 174523.26850000196,
      "d": 119.04725000000326,
      "v": 127
    },
    {
      "midi": 42,
      "hit": false,
      "t": 174523.26850000196,
      "d": 238.09450000000652,
      "v": 127
    },
    {
      "midi": 40,
      "hit": false,
      "t": 174999.45750000197,
      "d": 238.09450000000652,
      "v": 127
    },
    {
      "midi": 55,
      "hit": false,
      "t": 174999.45750000197,
      "d": 2023.8032500000554,
      "v": 127
    },
    {
      "midi": 59,
      "hit": false,
      "t": 174999.45750000197,
      "d": 2023.8032500000554,
      "v": 127
    },
    {
      "midi": 62,
      "hit": false,
      "t": 174999.45750000197,
      "d": 2023.8032500000554,
      "v": 127
    },
    {
      "midi": 40,
      "hit": false,
      "t": 175475.64650000198,
      "d": 238.09450000000652,
      "v": 127
    },
    {
      "midi": 40,
      "hit": false,
      "t": 175951.835500002,
      "d": 238.09450000000652,
      "v": 127
    },
    {
      "midi": 45,
      "hit": false,
      "t": 176428.024500002,
      "d": 238.09450000000652,
      "v": 127
    },
    {
      "midi": 45,
      "hit": false,
      "t": 176904.21350000202,
      "d": 238.09450000000652,
      "v": 127
    },
    {
      "midi": 59,
      "hit": false,
      "t": 177142.30800000203,
      "d": 1071.4252500000293,
      "v": 127
    },
    {
      "midi": 61,
      "hit": false,
      "t": 177142.30800000203,
      "d": 1071.4252500000293,
      "v": 127
    },
    {
      "midi": 64,
      "hit": false,
      "t": 177142.30800000203,
      "d": 1071.4252500000293,
      "v": 127
    },
    {
      "midi": 47,
      "hit": false,
      "t": 177380.40250000203,
      "d": 238.09450000000652,
      "v": 127
    },
    {
      "midi": 47,
      "hit": false,
      "t": 177856.59150000205,
      "d": 238.09450000000652,
      "v": 127
    },
    {
      "midi": 57,
      "hit": false,
      "t": 178332.78050000206,
      "d": 119.04725000000326,
      "v": 127
    },
    {
      "midi": 61,
      "hit": false,
      "t": 178332.78050000206,
      "d": 119.04725000000326,
      "v": 127
    },
    {
      "midi": 64,
      "hit": false,
      "t": 178332.78050000206,
      "d": 119.04725000000326,
      "v": 127
    },
    {
      "midi": 42,
      "hit": false,
      "t": 178332.78050000206,
      "d": 238.09450000000652,
      "v": 127
    },
    {
      "midi": 40,
      "hit": false,
      "t": 178808.96950000207,
      "d": 238.09450000000652,
      "v": 127
    },
    {
      "midi": 55,
      "hit": false,
      "t": 178808.96950000207,
      "d": 833.3307500000228,
      "v": 127
    },
    {
      "midi": 59,
      "hit": false,
      "t": 178808.96950000207,
      "d": 833.3307500000228,
      "v": 127
    },
    {
      "midi": 62,
      "hit": false,
      "t": 178808.96950000207,
      "d": 833.3307500000228,
      "v": 127
    },
    {
      "midi": 40,
      "hit": false,
      "t": 179285.1585000021,
      "d": 238.09450000000652,
      "v": 127
    },
    {
      "midi": 40,
      "hit": false,
      "t": 179761.3475000021,
      "d": 238.09450000000652,
      "v": 127
    },
    {
      "midi": 55,
      "hit": false,
      "t": 179761.3475000021,
      "d": 833.3307500000228,
      "v": 127
    },
    {
      "midi": 59,
      "hit": false,
      "t": 179761.3475000021,
      "d": 833.3307500000228,
      "v": 127
    },
    {
      "midi": 62,
      "hit": false,
      "t": 179761.3475000021,
      "d": 833.3307500000228,
      "v": 127
    },
    {
      "midi": 45,
      "hit": false,
      "t": 180237.5365000021,
      "d": 238.09450000000652,
      "v": 127
    },
    {
      "midi": 55,
      "hit": false,
      "t": 180713.72550000213,
      "d": 119.04725000000326,
      "v": 127
    },
    {
      "midi": 59,
      "hit": false,
      "t": 180713.72550000213,
      "d": 119.04725000000326,
      "v": 127
    },
    {
      "midi": 62,
      "hit": false,
      "t": 180713.72550000213,
      "d": 119.04725000000326,
      "v": 127
    },
    {
      "midi": 45,
      "hit": false,
      "t": 180713.72550000213,
      "d": 238.09450000000652,
      "v": 127
    },
    {
      "midi": 59,
      "hit": false,
      "t": 180951.82000000213,
      "d": 1071.4252500000293,
      "v": 127
    },
    {
      "midi": 61,
      "hit": false,
      "t": 180951.82000000213,
      "d": 1071.4252500000293,
      "v": 127
    },
    {
      "midi": 64,
      "hit": false,
      "t": 180951.82000000213,
      "d": 1071.4252500000293,
      "v": 127
    },
    {
      "midi": 47,
      "hit": false,
      "t": 181189.91450000214,
      "d": 238.09450000000652,
      "v": 127
    },
    {
      "midi": 47,
      "hit": false,
      "t": 181666.10350000215,
      "d": 238.09450000000652,
      "v": 127
    },
    {
      "midi": 57,
      "hit": false,
      "t": 182142.29250000216,
      "d": 119.04725000000326,
      "v": 127
    },
    {
      "midi": 61,
      "hit": false,
      "t": 182142.29250000216,
      "d": 119.04725000000326,
      "v": 127
    },
    {
      "midi": 64,
      "hit": false,
      "t": 182142.29250000216,
      "d": 119.04725000000326,
      "v": 127
    },
    {
      "midi": 42,
      "hit": false,
      "t": 182142.29250000216,
      "d": 238.09450000000652,
      "v": 127
    },
    {
      "midi": 40,
      "hit": false,
      "t": 182618.48150000218,
      "d": 238.09450000000652,
      "v": 127
    },
    {
      "midi": 55,
      "hit": false,
      "t": 182618.48150000218,
      "d": 2142.8505000000587,
      "v": 127
    },
    {
      "midi": 59,
      "hit": false,
      "t": 182618.48150000218,
      "d": 2142.8505000000587,
      "v": 127
    },
    {
      "midi": 62,
      "hit": false,
      "t": 182618.48150000218,
      "d": 2142.8505000000587,
      "v": 127
    },
    {
      "midi": 40,
      "hit": false,
      "t": 183094.6705000022,
      "d": 238.09450000000652,
      "v": 127
    },
    {
      "midi": 40,
      "hit": false,
      "t": 183570.8595000022,
      "d": 238.09450000000652,
      "v": 127
    },
    {
      "midi": 45,
      "hit": false,
      "t": 184047.04850000222,
      "d": 238.09450000000652,
      "v": 127
    },
    {
      "midi": 45,
      "hit": false,
      "t": 184523.23750000223,
      "d": 238.09450000000652,
      "v": 127
    },
    {
      "midi": 47,
      "hit": false,
      "t": 184999.42650000224,
      "d": 238.09450000000652,
      "v": 127
    },
    {
      "midi": 57,
      "hit": false,
      "t": 185237.52100000225,
      "d": 1071.4252500000293,
      "v": 127
    },
    {
      "midi": 61,
      "hit": false,
      "t": 185237.52100000225,
      "d": 1071.4252500000293,
      "v": 127
    },
    {
      "midi": 64,
      "hit": false,
      "t": 185237.52100000225,
      "d": 1071.4252500000293,
      "v": 127
    },
    {
      "midi": 47,
      "hit": false,
      "t": 185475.61550000226,
      "d": 238.09450000000652,
      "v": 127
    },
    {
      "midi": 42,
      "hit": false,
      "t": 185951.80450000227,
      "d": 238.09450000000652,
      "v": 127
    },
    {
      "midi": 40,
      "hit": false,
      "t": 186427.99350000228,
      "d": 238.09450000000652,
      "v": 127
    },
    {
      "midi": 55,
      "hit": false,
      "t": 186427.99350000228,
      "d": 833.3307500000228,
      "v": 127
    },
    {
      "midi": 59,
      "hit": false,
      "t": 186427.99350000228,
      "d": 833.3307500000228,
      "v": 127
    },
    {
      "midi": 62,
      "hit": false,
      "t": 186427.99350000228,
      "d": 833.3307500000228,
      "v": 127
    },
    {
      "midi": 40,
      "hit": false,
      "t": 186904.1825000023,
      "d": 238.09450000000652,
      "v": 127
    },
    {
      "midi": 40,
      "hit": false,
      "t": 187380.3715000023,
      "d": 238.09450000000652,
      "v": 127
    },
    {
      "midi": 55,
      "hit": false,
      "t": 187380.3715000023,
      "d": 833.3307500000228,
      "v": 127
    },
    {
      "midi": 59,
      "hit": false,
      "t": 187380.3715000023,
      "d": 833.3307500000228,
      "v": 127
    },
    {
      "midi": 62,
      "hit": false,
      "t": 187380.3715000023,
      "d": 833.3307500000228,
      "v": 127
    },
    {
      "midi": 45,
      "hit": false,
      "t": 187856.56050000232,
      "d": 238.09450000000652,
      "v": 127
    },
    {
      "midi": 55,
      "hit": false,
      "t": 188332.74950000233,
      "d": 119.04725000000326,
      "v": 127
    },
    {
      "midi": 59,
      "hit": false,
      "t": 188332.74950000233,
      "d": 119.04725000000326,
      "v": 127
    },
    {
      "midi": 62,
      "hit": false,
      "t": 188332.74950000233,
      "d": 119.04725000000326,
      "v": 127
    },
    {
      "midi": 45,
      "hit": false,
      "t": 188332.74950000233,
      "d": 238.09450000000652,
      "v": 127
    },
    {
      "midi": 55,
      "hit": false,
      "t": 188570.84400000234,
      "d": 952.3780000000261,
      "v": 127
    },
    {
      "midi": 59,
      "hit": false,
      "t": 188570.84400000234,
      "d": 952.3780000000261,
      "v": 127
    },
    {
      "midi": 62,
      "hit": false,
      "t": 188570.84400000234,
      "d": 952.3780000000261,
      "v": 127
    },
    {
      "midi": 40,
      "hit": false,
      "t": 188808.93850000235,
      "d": 238.09450000000652,
      "v": 127
    },
    {
      "midi": 40,
      "hit": false,
      "t": 189285.12750000236,
      "d": 238.09450000000652,
      "v": 127
    },
    {
      "midi": 57,
      "hit": false,
      "t": 189523.22200000237,
      "d": 595.2362500000163,
      "v": 127
    },
    {
      "midi": 61,
      "hit": false,
      "t": 189523.22200000237,
      "d": 595.2362500000163,
      "v": 127
    },
    {
      "midi": 64,
      "hit": false,
      "t": 189523.22200000237,
      "d": 595.2362500000163,
      "v": 127
    },
    {
      "midi": 42,
      "hit": false,
      "t": 189761.31650000237,
      "d": 238.09450000000652,
      "v": 127
    },
    {
      "midi": 45,
      "hit": false,
      "t": 190237.5055000024,
      "d": 238.09450000000652,
      "v": 127
    },
    {
      "midi": 57,
      "hit": false,
      "t": 190237.5055000024,
      "d": 476.18900000001304,
      "v": 127
    },
    {
      "midi": 61,
      "hit": false,
      "t": 190237.5055000024,
      "d": 476.18900000001304,
      "v": 127
    },
    {
      "midi": 64,
      "hit": false,
      "t": 190237.5055000024,
      "d": 476.18900000001304,
      "v": 127
    },
    {
      "midi": 59,
      "hit": false,
      "t": 190713.6945000024,
      "d": 119.04725000000326,
      "v": 127
    },
    {
      "midi": 62,
      "hit": false,
      "t": 190713.6945000024,
      "d": 119.04725000000326,
      "v": 127
    },
    {
      "midi": 66,
      "hit": false,
      "t": 190713.6945000024,
      "d": 119.04725000000326,
      "v": 127
    },
    {
      "midi": 47,
      "hit": false,
      "t": 190713.6945000024,
      "d": 238.09450000000652,
      "v": 127
    },
    {
      "midi": 59,
      "hit": false,
      "t": 190951.7890000024,
      "d": 357.1417500000098,
      "v": 127
    },
    {
      "midi": 62,
      "hit": false,
      "t": 190951.7890000024,
      "d": 357.1417500000098,
      "v": 127
    },
    {
      "midi": 66,
      "hit": false,
      "t": 190951.7890000024,
      "d": 357.1417500000098,
      "v": 127
    },
    {
      "midi": 47,
      "hit": false,
      "t": 191189.8835000024,
      "d": 238.09450000000652,
      "v": 127
    },
    {
      "midi": 59,
      "hit": false,
      "t": 191427.97800000242,
      "d": 357.1417500000098,
      "v": 127
    },
    {
      "midi": 62,
      "hit": false,
      "t": 191427.97800000242,
      "d": 357.1417500000098,
      "v": 127
    },
    {
      "midi": 66,
      "hit": false,
      "t": 191427.97800000242,
      "d": 357.1417500000098,
      "v": 127
    },
    {
      "midi": 43,
      "hit": false,
      "t": 191427.97800000242,
      "d": 476.18900000001304,
      "v": 127
    },
    {
      "midi": 59,
      "hit": false,
      "t": 191904.16700000243,
      "d": 357.1417500000098,
      "v": 127
    },
    {
      "midi": 62,
      "hit": false,
      "t": 191904.16700000243,
      "d": 357.1417500000098,
      "v": 127
    },
    {
      "midi": 66,
      "hit": false,
      "t": 191904.16700000243,
      "d": 357.1417500000098,
      "v": 127
    },
    {
      "midi": 42,
      "hit": false,
      "t": 191904.16700000243,
      "d": 476.18900000001304,
      "v": 127
    },
    {
      "midi": 55,
      "hit": false,
      "t": 192380.35600000244,
      "d": 952.3780000000261,
      "v": 127
    },
    {
      "midi": 59,
      "hit": false,
      "t": 192380.35600000244,
      "d": 952.3780000000261,
      "v": 127
    },
    {
      "midi": 62,
      "hit": false,
      "t": 192380.35600000244,
      "d": 952.3780000000261,
      "v": 127
    },
    {
      "midi": 40,
      "hit": false,
      "t": 192618.45050000245,
      "d": 238.09450000000652,
      "v": 127
    },
    {
      "midi": 40,
      "hit": false,
      "t": 193094.63950000246,
      "d": 238.09450000000652,
      "v": 127
    },
    {
      "midi": 57,
      "hit": false,
      "t": 193332.73400000247,
      "d": 595.2362500000163,
      "v": 127
    },
    {
      "midi": 61,
      "hit": false,
      "t": 193332.73400000247,
      "d": 595.2362500000163,
      "v": 127
    },
    {
      "midi": 64,
      "hit": false,
      "t": 193332.73400000247,
      "d": 595.2362500000163,
      "v": 127
    },
    {
      "midi": 42,
      "hit": false,
      "t": 193570.82850000248,
      "d": 238.09450000000652,
      "v": 127
    },
    {
      "midi": 45,
      "hit": false,
      "t": 194047.0175000025,
      "d": 238.09450000000652,
      "v": 127
    },
    {
      "midi": 57,
      "hit": false,
      "t": 194047.0175000025,
      "d": 476.18900000001304,
      "v": 127
    },
    {
      "midi": 61,
      "hit": false,
      "t": 194047.0175000025,
      "d": 476.18900000001304,
      "v": 127
    },
    {
      "midi": 64,
      "hit": false,
      "t": 194047.0175000025,
      "d": 476.18900000001304,
      "v": 127
    },
    {
      "midi": 59,
      "hit": false,
      "t": 194523.2065000025,
      "d": 119.04725000000326,
      "v": 127
    },
    {
      "midi": 62,
      "hit": false,
      "t": 194523.2065000025,
      "d": 119.04725000000326,
      "v": 127
    },
    {
      "midi": 66,
      "hit": false,
      "t": 194523.2065000025,
      "d": 119.04725000000326,
      "v": 127
    },
    {
      "midi": 47,
      "hit": false,
      "t": 194523.2065000025,
      "d": 238.09450000000652,
      "v": 127
    },
    {
      "midi": 59,
      "hit": false,
      "t": 194761.3010000025,
      "d": 357.1417500000098,
      "v": 127
    },
    {
      "midi": 62,
      "hit": false,
      "t": 194761.3010000025,
      "d": 357.1417500000098,
      "v": 127
    },
    {
      "midi": 66,
      "hit": false,
      "t": 194761.3010000025,
      "d": 357.1417500000098,
      "v": 127
    },
    {
      "midi": 47,
      "hit": false,
      "t": 194999.39550000252,
      "d": 238.09450000000652,
      "v": 127
    },
    {
      "midi": 59,
      "hit": false,
      "t": 195237.49000000252,
      "d": 357.1417500000098,
      "v": 127
    },
    {
      "midi": 62,
      "hit": false,
      "t": 195237.49000000252,
      "d": 357.1417500000098,
      "v": 127
    },
    {
      "midi": 66,
      "hit": false,
      "t": 195237.49000000252,
      "d": 357.1417500000098,
      "v": 127
    },
    {
      "midi": 43,
      "hit": false,
      "t": 195237.49000000252,
      "d": 476.18900000001304,
      "v": 127
    },
    {
      "midi": 59,
      "hit": false,
      "t": 195713.67900000254,
      "d": 357.1417500000098,
      "v": 127
    },
    {
      "midi": 62,
      "hit": false,
      "t": 195713.67900000254,
      "d": 357.1417500000098,
      "v": 127
    },
    {
      "midi": 66,
      "hit": false,
      "t": 195713.67900000254,
      "d": 357.1417500000098,
      "v": 127
    },
    {
      "midi": 42,
      "hit": false,
      "t": 195713.67900000254,
      "d": 476.18900000001304,
      "v": 127
    },
    {
      "midi": 55,
      "hit": false,
      "t": 196189.86800000255,
      "d": 952.3780000000261,
      "v": 127
    },
    {
      "midi": 59,
      "hit": false,
      "t": 196189.86800000255,
      "d": 952.3780000000261,
      "v": 127
    },
    {
      "midi": 62,
      "hit": false,
      "t": 196189.86800000255,
      "d": 952.3780000000261,
      "v": 127
    },
    {
      "midi": 40,
      "hit": false,
      "t": 196427.96250000256,
      "d": 238.09450000000652,
      "v": 127
    },
    {
      "midi": 40,
      "hit": false,
      "t": 196904.15150000257,
      "d": 238.09450000000652,
      "v": 127
    },
    {
      "midi": 57,
      "hit": false,
      "t": 197142.24600000257,
      "d": 595.2362500000163,
      "v": 127
    },
    {
      "midi": 61,
      "hit": false,
      "t": 197142.24600000257,
      "d": 595.2362500000163,
      "v": 127
    },
    {
      "midi": 64,
      "hit": false,
      "t": 197142.24600000257,
      "d": 595.2362500000163,
      "v": 127
    },
    {
      "midi": 42,
      "hit": false,
      "t": 197380.34050000258,
      "d": 238.09450000000652,
      "v": 127
    },
    {
      "midi": 45,
      "hit": false,
      "t": 197856.5295000026,
      "d": 238.09450000000652,
      "v": 127
    },
    {
      "midi": 57,
      "hit": false,
      "t": 197856.5295000026,
      "d": 476.18900000001304,
      "v": 127
    },
    {
      "midi": 61,
      "hit": false,
      "t": 197856.5295000026,
      "d": 476.18900000001304,
      "v": 127
    },
    {
      "midi": 64,
      "hit": false,
      "t": 197856.5295000026,
      "d": 476.18900000001304,
      "v": 127
    },
    {
      "midi": 59,
      "hit": false,
      "t": 198332.7185000026,
      "d": 119.04725000000326,
      "v": 127
    },
    {
      "midi": 62,
      "hit": false,
      "t": 198332.7185000026,
      "d": 119.04725000000326,
      "v": 127
    },
    {
      "midi": 66,
      "hit": false,
      "t": 198332.7185000026,
      "d": 119.04725000000326,
      "v": 127
    },
    {
      "midi": 47,
      "hit": false,
      "t": 198332.7185000026,
      "d": 238.09450000000652,
      "v": 127
    },
    {
      "midi": 59,
      "hit": false,
      "t": 198570.8130000026,
      "d": 357.1417500000098,
      "v": 127
    },
    {
      "midi": 62,
      "hit": false,
      "t": 198570.8130000026,
      "d": 357.1417500000098,
      "v": 127
    },
    {
      "midi": 66,
      "hit": false,
      "t": 198570.8130000026,
      "d": 357.1417500000098,
      "v": 127
    },
    {
      "midi": 47,
      "hit": false,
      "t": 198808.90750000262,
      "d": 238.09450000000652,
      "v": 127
    },
    {
      "midi": 59,
      "hit": false,
      "t": 199047.00200000263,
      "d": 357.1417500000098,
      "v": 127
    },
    {
      "midi": 62,
      "hit": false,
      "t": 199047.00200000263,
      "d": 357.1417500000098,
      "v": 127
    },
    {
      "midi": 66,
      "hit": false,
      "t": 199047.00200000263,
      "d": 357.1417500000098,
      "v": 127
    },
    {
      "midi": 43,
      "hit": false,
      "t": 199047.00200000263,
      "d": 476.18900000001304,
      "v": 127
    },
    {
      "midi": 59,
      "hit": false,
      "t": 199523.19100000264,
      "d": 357.1417500000098,
      "v": 127
    },
    {
      "midi": 62,
      "hit": false,
      "t": 199523.19100000264,
      "d": 357.1417500000098,
      "v": 127
    },
    {
      "midi": 66,
      "hit": false,
      "t": 199523.19100000264,
      "d": 357.1417500000098,
      "v": 127
    },
    {
      "midi": 42,
      "hit": false,
      "t": 199523.19100000264,
      "d": 476.18900000001304,
      "v": 127
    },
    {
      "midi": 52,
      "hit": false,
      "t": 199999.38000000265,
      "d": 3809.5120000001043,
      "v": 127
    },
    {
      "midi": 56,
      "hit": false,
      "t": 199999.38000000265,
      "d": 3809.5120000001043,
      "v": 127
    },
    {
      "midi": 59,
      "hit": false,
      "t": 199999.38000000265,
      "d": 3809.5120000001043,
      "v": 127
    },
    {
      "midi": 40,
      "hit": false,
      "t": 200237.47450000266,
      "d": 238.09450000000652,
      "v": 127
    },
    {
      "midi": 40,
      "hit": false,
      "t": 200713.66350000267,
      "d": 238.09450000000652,
      "v": 127
    },
    {
      "midi": 40,
      "hit": false,
      "t": 201189.8525000027,
      "d": 238.09450000000652,
      "v": 127
    },
    {
      "midi": 40,
      "hit": false,
      "t": 201666.0415000027,
      "d": 238.09450000000652,
      "v": 127
    },
    {
      "midi": 40,
      "hit": false,
      "t": 202142.2305000027,
      "d": 238.09450000000652,
      "v": 127
    },
    {
      "midi": 40,
      "hit": false,
      "t": 202618.41950000272,
      "d": 238.09450000000652,
      "v": 127
    },
    {
      "midi": 40,
      "hit": false,
      "t": 203094.60850000274,
      "d": 238.09450000000652,
      "v": 127
    },
    {
      "midi": 40,
      "hit": false,
      "t": 203570.79750000275,
      "d": 238.09450000000652,
      "v": 127
    },
    {
      "midi": 55,
      "hit": false,
      "t": 203808.89200000276,
      "d": 952.3780000000261,
      "v": 127
    },
    {
      "midi": 59,
      "hit": false,
      "t": 203808.89200000276,
      "d": 952.3780000000261,
      "v": 127
    },
    {
      "midi": 62,
      "hit": false,
      "t": 203808.89200000276,
      "d": 952.3780000000261,
      "v": 127
    },
    {
      "midi": 40,
      "hit": false,
      "t": 204046.98650000276,
      "d": 238.09450000000652,
      "v": 127
    },
    {
      "midi": 40,
      "hit": false,
      "t": 204523.17550000278,
      "d": 238.09450000000652,
      "v": 127
    },
    {
      "midi": 57,
      "hit": false,
      "t": 204761.27000000278,
      "d": 595.2362500000163,
      "v": 127
    },
    {
      "midi": 61,
      "hit": false,
      "t": 204761.27000000278,
      "d": 595.2362500000163,
      "v": 127
    },
    {
      "midi": 64,
      "hit": false,
      "t": 204761.27000000278,
      "d": 595.2362500000163,
      "v": 127
    },
    {
      "midi": 42,
      "hit": false,
      "t": 204999.3645000028,
      "d": 238.09450000000652,
      "v": 127
    },
    {
      "midi": 45,
      "hit": false,
      "t": 205475.5535000028,
      "d": 238.09450000000652,
      "v": 127
    },
    {
      "midi": 57,
      "hit": false,
      "t": 205475.5535000028,
      "d": 476.18900000001304,
      "v": 127
    },
    {
      "midi": 61,
      "hit": false,
      "t": 205475.5535000028,
      "d": 476.18900000001304,
      "v": 127
    },
    {
      "midi": 64,
      "hit": false,
      "t": 205475.5535000028,
      "d": 476.18900000001304,
      "v": 127
    },
    {
      "midi": 59,
      "hit": false,
      "t": 205951.74250000282,
      "d": 119.04725000000326,
      "v": 127
    },
    {
      "midi": 62,
      "hit": false,
      "t": 205951.74250000282,
      "d": 119.04725000000326,
      "v": 127
    },
    {
      "midi": 66,
      "hit": false,
      "t": 205951.74250000282,
      "d": 119.04725000000326,
      "v": 127
    },
    {
      "midi": 47,
      "hit": false,
      "t": 205951.74250000282,
      "d": 238.09450000000652,
      "v": 127
    },
    {
      "midi": 59,
      "hit": false,
      "t": 206189.83700000282,
      "d": 357.1417500000098,
      "v": 127
    },
    {
      "midi": 62,
      "hit": false,
      "t": 206189.83700000282,
      "d": 357.1417500000098,
      "v": 127
    },
    {
      "midi": 66,
      "hit": false,
      "t": 206189.83700000282,
      "d": 357.1417500000098,
      "v": 127
    },
    {
      "midi": 47,
      "hit": false,
      "t": 206427.93150000283,
      "d": 238.09450000000652,
      "v": 127
    },
    {
      "midi": 59,
      "hit": false,
      "t": 206666.02600000284,
      "d": 357.1417500000098,
      "v": 127
    },
    {
      "midi": 62,
      "hit": false,
      "t": 206666.02600000284,
      "d": 357.1417500000098,
      "v": 127
    },
    {
      "midi": 66,
      "hit": false,
      "t": 206666.02600000284,
      "d": 357.1417500000098,
      "v": 127
    },
    {
      "midi": 43,
      "hit": false,
      "t": 206666.02600000284,
      "d": 476.18900000001304,
      "v": 127
    },
    {
      "midi": 59,
      "hit": false,
      "t": 207142.21500000285,
      "d": 357.1417500000098,
      "v": 127
    },
    {
      "midi": 62,
      "hit": false,
      "t": 207142.21500000285,
      "d": 357.1417500000098,
      "v": 127
    },
    {
      "midi": 66,
      "hit": false,
      "t": 207142.21500000285,
      "d": 357.1417500000098,
      "v": 127
    },
    {
      "midi": 42,
      "hit": false,
      "t": 207142.21500000285,
      "d": 476.18900000001304,
      "v": 127
    },
    {
      "midi": 55,
      "hit": false,
      "t": 207618.40400000286,
      "d": 952.3780000000261,
      "v": 127
    },
    {
      "midi": 59,
      "hit": false,
      "t": 207618.40400000286,
      "d": 952.3780000000261,
      "v": 127
    },
    {
      "midi": 62,
      "hit": false,
      "t": 207618.40400000286,
      "d": 952.3780000000261,
      "v": 127
    },
    {
      "midi": 40,
      "hit": false,
      "t": 207856.49850000287,
      "d": 238.09450000000652,
      "v": 127
    },
    {
      "midi": 40,
      "hit": false,
      "t": 208332.68750000288,
      "d": 238.09450000000652,
      "v": 127
    },
    {
      "midi": 57,
      "hit": false,
      "t": 208570.7820000029,
      "d": 595.2362500000163,
      "v": 127
    },
    {
      "midi": 61,
      "hit": false,
      "t": 208570.7820000029,
      "d": 595.2362500000163,
      "v": 127
    },
    {
      "midi": 64,
      "hit": false,
      "t": 208570.7820000029,
      "d": 595.2362500000163,
      "v": 127
    },
    {
      "midi": 42,
      "hit": false,
      "t": 208808.8765000029,
      "d": 238.09450000000652,
      "v": 127
    },
    {
      "midi": 45,
      "hit": false,
      "t": 209285.0655000029,
      "d": 238.09450000000652,
      "v": 127
    },
    {
      "midi": 57,
      "hit": false,
      "t": 209285.0655000029,
      "d": 476.18900000001304,
      "v": 127
    },
    {
      "midi": 61,
      "hit": false,
      "t": 209285.0655000029,
      "d": 476.18900000001304,
      "v": 127
    },
    {
      "midi": 64,
      "hit": false,
      "t": 209285.0655000029,
      "d": 476.18900000001304,
      "v": 127
    },
    {
      "midi": 59,
      "hit": false,
      "t": 209761.25450000292,
      "d": 119.04725000000326,
      "v": 127
    },
    {
      "midi": 62,
      "hit": false,
      "t": 209761.25450000292,
      "d": 119.04725000000326,
      "v": 127
    },
    {
      "midi": 66,
      "hit": false,
      "t": 209761.25450000292,
      "d": 119.04725000000326,
      "v": 127
    },
    {
      "midi": 47,
      "hit": false,
      "t": 209761.25450000292,
      "d": 238.09450000000652,
      "v": 127
    },
    {
      "midi": 59,
      "hit": false,
      "t": 209999.34900000293,
      "d": 357.1417500000098,
      "v": 127
    },
    {
      "midi": 62,
      "hit": false,
      "t": 209999.34900000293,
      "d": 357.1417500000098,
      "v": 127
    },
    {
      "midi": 66,
      "hit": false,
      "t": 209999.34900000293,
      "d": 357.1417500000098,
      "v": 127
    },
    {
      "midi": 47,
      "hit": false,
      "t": 210237.44350000293,
      "d": 238.09450000000652,
      "v": 127
    },
    {
      "midi": 59,
      "hit": false,
      "t": 210475.53800000294,
      "d": 357.1417500000098,
      "v": 127
    },
    {
      "midi": 62,
      "hit": false,
      "t": 210475.53800000294,
      "d": 357.1417500000098,
      "v": 127
    },
    {
      "midi": 66,
      "hit": false,
      "t": 210475.53800000294,
      "d": 357.1417500000098,
      "v": 127
    },
    {
      "midi": 43,
      "hit": false,
      "t": 210475.53800000294,
      "d": 476.18900000001304,
      "v": 127
    },
    {
      "midi": 59,
      "hit": false,
      "t": 210951.72700000295,
      "d": 357.1417500000098,
      "v": 127
    },
    {
      "midi": 62,
      "hit": false,
      "t": 210951.72700000295,
      "d": 357.1417500000098,
      "v": 127
    },
    {
      "midi": 66,
      "hit": false,
      "t": 210951.72700000295,
      "d": 357.1417500000098,
      "v": 127
    },
    {
      "midi": 42,
      "hit": false,
      "t": 210951.72700000295,
      "d": 476.18900000001304,
      "v": 127
    },
    {
      "midi": 55,
      "hit": false,
      "t": 211427.91600000297,
      "d": 952.3780000000261,
      "v": 127
    },
    {
      "midi": 59,
      "hit": false,
      "t": 211427.91600000297,
      "d": 952.3780000000261,
      "v": 127
    },
    {
      "midi": 62,
      "hit": false,
      "t": 211427.91600000297,
      "d": 952.3780000000261,
      "v": 127
    },
    {
      "midi": 40,
      "hit": false,
      "t": 211666.01050000297,
      "d": 238.09450000000652,
      "v": 127
    },
    {
      "midi": 40,
      "hit": false,
      "t": 212142.199500003,
      "d": 238.09450000000652,
      "v": 127
    },
    {
      "midi": 57,
      "hit": false,
      "t": 212380.294000003,
      "d": 595.2362500000163,
      "v": 127
    },
    {
      "midi": 61,
      "hit": false,
      "t": 212380.294000003,
      "d": 595.2362500000163,
      "v": 127
    },
    {
      "midi": 64,
      "hit": false,
      "t": 212380.294000003,
      "d": 595.2362500000163,
      "v": 127
    },
    {
      "midi": 42,
      "hit": false,
      "t": 212618.388500003,
      "d": 238.09450000000652,
      "v": 127
    },
    {
      "midi": 45,
      "hit": false,
      "t": 213094.577500003,
      "d": 238.09450000000652,
      "v": 127
    },
    {
      "midi": 57,
      "hit": false,
      "t": 213094.577500003,
      "d": 476.18900000001304,
      "v": 127
    },
    {
      "midi": 61,
      "hit": false,
      "t": 213094.577500003,
      "d": 476.18900000001304,
      "v": 127
    },
    {
      "midi": 64,
      "hit": false,
      "t": 213094.577500003,
      "d": 476.18900000001304,
      "v": 127
    },
    {
      "midi": 59,
      "hit": false,
      "t": 213570.76650000302,
      "d": 119.04725000000326,
      "v": 127
    },
    {
      "midi": 62,
      "hit": false,
      "t": 213570.76650000302,
      "d": 119.04725000000326,
      "v": 127
    },
    {
      "midi": 66,
      "hit": false,
      "t": 213570.76650000302,
      "d": 119.04725000000326,
      "v": 127
    },
    {
      "midi": 47,
      "hit": false,
      "t": 213570.76650000302,
      "d": 238.09450000000652,
      "v": 127
    },
    {
      "midi": 59,
      "hit": false,
      "t": 213808.86100000303,
      "d": 357.1417500000098,
      "v": 127
    },
    {
      "midi": 62,
      "hit": false,
      "t": 213808.86100000303,
      "d": 357.1417500000098,
      "v": 127
    },
    {
      "midi": 66,
      "hit": false,
      "t": 213808.86100000303,
      "d": 357.1417500000098,
      "v": 127
    },
    {
      "midi": 47,
      "hit": false,
      "t": 214046.95550000304,
      "d": 238.09450000000652,
      "v": 127
    },
    {
      "midi": 59,
      "hit": false,
      "t": 214285.05000000304,
      "d": 357.1417500000098,
      "v": 127
    },
    {
      "midi": 62,
      "hit": false,
      "t": 214285.05000000304,
      "d": 357.1417500000098,
      "v": 127
    },
    {
      "midi": 66,
      "hit": false,
      "t": 214285.05000000304,
      "d": 357.1417500000098,
      "v": 127
    },
    {
      "midi": 43,
      "hit": false,
      "t": 214285.05000000304,
      "d": 476.18900000001304,
      "v": 127
    },
    {
      "midi": 59,
      "hit": false,
      "t": 214761.23900000306,
      "d": 357.1417500000098,
      "v": 127
    },
    {
      "midi": 62,
      "hit": false,
      "t": 214761.23900000306,
      "d": 357.1417500000098,
      "v": 127
    },
    {
      "midi": 66,
      "hit": false,
      "t": 214761.23900000306,
      "d": 357.1417500000098,
      "v": 127
    },
    {
      "midi": 42,
      "hit": false,
      "t": 214761.23900000306,
      "d": 476.18900000001304,
      "v": 127
    },
    {
      "midi": 52,
      "hit": false,
      "t": 215237.42800000307,
      "d": 3809.5120000001043,
      "v": 127
    },
    {
      "midi": 56,
      "hit": false,
      "t": 215237.42800000307,
      "d": 3809.5120000001043,
      "v": 127
    },
    {
      "midi": 59,
      "hit": false,
      "t": 215237.42800000307,
      "d": 3809.5120000001043,
      "v": 127
    },
    {
      "midi": 40,
      "hit": false,
      "t": 215475.52250000308,
      "d": 238.09450000000652,
      "v": 127
    },
    {
      "midi": 40,
      "hit": false,
      "t": 215951.7115000031,
      "d": 238.09450000000652,
      "v": 127
    },
    {
      "midi": 40,
      "hit": false,
      "t": 216427.9005000031,
      "d": 238.09450000000652,
      "v": 127
    },
    {
      "midi": 40,
      "hit": false,
      "t": 216904.08950000312,
      "d": 238.09450000000652,
      "v": 127
    },
    {
      "midi": 40,
      "hit": false,
      "t": 217380.27850000313,
      "d": 238.09450000000652,
      "v": 127
    },
    {
      "midi": 40,
      "hit": false,
      "t": 217856.46750000314,
      "d": 238.09450000000652,
      "v": 127
    },
    {
      "midi": 40,
      "hit": false,
      "t": 218332.65650000316,
      "d": 238.09450000000652,
      "v": 127
    },
    {
      "midi": 40,
      "hit": false,
      "t": 218808.84550000317,
      "d": 238.09450000000652,
      "v": 127
    },
    {
      "midi": 55,
      "hit": false,
      "t": 219046.94000000317,
      "d": 952.3780000000261,
      "v": 127
    },
    {
      "midi": 59,
      "hit": false,
      "t": 219046.94000000317,
      "d": 952.3780000000261,
      "v": 127
    },
    {
      "midi": 62,
      "hit": false,
      "t": 219046.94000000317,
      "d": 952.3780000000261,
      "v": 127
    },
    {
      "midi": 40,
      "hit": false,
      "t": 219285.03450000318,
      "d": 238.09450000000652,
      "v": 127
    },
    {
      "midi": 40,
      "hit": false,
      "t": 219761.2235000032,
      "d": 238.09450000000652,
      "v": 127
    },
    {
      "midi": 57,
      "hit": false,
      "t": 219999.3180000032,
      "d": 595.2362500000163,
      "v": 127
    },
    {
      "midi": 61,
      "hit": false,
      "t": 219999.3180000032,
      "d": 595.2362500000163,
      "v": 127
    },
    {
      "midi": 64,
      "hit": false,
      "t": 219999.3180000032,
      "d": 595.2362500000163,
      "v": 127
    },
    {
      "midi": 42,
      "hit": false,
      "t": 220237.4125000032,
      "d": 238.09450000000652,
      "v": 127
    },
    {
      "midi": 45,
      "hit": false,
      "t": 220713.60150000322,
      "d": 238.09450000000652,
      "v": 127
    },
    {
      "midi": 57,
      "hit": false,
      "t": 220713.60150000322,
      "d": 476.18900000001304,
      "v": 127
    },
    {
      "midi": 61,
      "hit": false,
      "t": 220713.60150000322,
      "d": 476.18900000001304,
      "v": 127
    },
    {
      "midi": 64,
      "hit": false,
      "t": 220713.60150000322,
      "d": 476.18900000001304,
      "v": 127
    },
    {
      "midi": 59,
      "hit": false,
      "t": 221189.79050000323,
      "d": 119.04725000000326,
      "v": 127
    },
    {
      "midi": 62,
      "hit": false,
      "t": 221189.79050000323,
      "d": 119.04725000000326,
      "v": 127
    },
    {
      "midi": 66,
      "hit": false,
      "t": 221189.79050000323,
      "d": 119.04725000000326,
      "v": 127
    },
    {
      "midi": 47,
      "hit": false,
      "t": 221189.79050000323,
      "d": 238.09450000000652,
      "v": 127
    },
    {
      "midi": 59,
      "hit": false,
      "t": 221427.88500000324,
      "d": 357.1417500000098,
      "v": 127
    },
    {
      "midi": 62,
      "hit": false,
      "t": 221427.88500000324,
      "d": 357.1417500000098,
      "v": 127
    },
    {
      "midi": 66,
      "hit": false,
      "t": 221427.88500000324,
      "d": 357.1417500000098,
      "v": 127
    },
    {
      "midi": 47,
      "hit": false,
      "t": 221665.97950000325,
      "d": 238.09450000000652,
      "v": 127
    },
    {
      "midi": 59,
      "hit": false,
      "t": 221904.07400000325,
      "d": 357.1417500000098,
      "v": 127
    },
    {
      "midi": 62,
      "hit": false,
      "t": 221904.07400000325,
      "d": 357.1417500000098,
      "v": 127
    },
    {
      "midi": 66,
      "hit": false,
      "t": 221904.07400000325,
      "d": 357.1417500000098,
      "v": 127
    },
    {
      "midi": 43,
      "hit": false,
      "t": 221904.07400000325,
      "d": 476.18900000001304,
      "v": 127
    },
    {
      "midi": 59,
      "hit": false,
      "t": 222380.26300000327,
      "d": 357.1417500000098,
      "v": 127
    },
    {
      "midi": 62,
      "hit": false,
      "t": 222380.26300000327,
      "d": 357.1417500000098,
      "v": 127
    },
    {
      "midi": 66,
      "hit": false,
      "t": 222380.26300000327,
      "d": 357.1417500000098,
      "v": 127
    },
    {
      "midi": 42,
      "hit": false,
      "t": 222380.26300000327,
      "d": 476.18900000001304,
      "v": 127
    },
    {
      "midi": 55,
      "hit": false,
      "t": 222856.45200000328,
      "d": 952.3780000000261,
      "v": 127
    },
    {
      "midi": 59,
      "hit": false,
      "t": 222856.45200000328,
      "d": 952.3780000000261,
      "v": 127
    },
    {
      "midi": 62,
      "hit": false,
      "t": 222856.45200000328,
      "d": 952.3780000000261,
      "v": 127
    },
    {
      "midi": 40,
      "hit": false,
      "t": 223094.5465000033,
      "d": 238.09450000000652,
      "v": 127
    },
    {
      "midi": 40,
      "hit": false,
      "t": 223570.7355000033,
      "d": 238.09450000000652,
      "v": 127
    },
    {
      "midi": 57,
      "hit": false,
      "t": 223808.8300000033,
      "d": 595.2362500000163,
      "v": 127
    },
    {
      "midi": 61,
      "hit": false,
      "t": 223808.8300000033,
      "d": 595.2362500000163,
      "v": 127
    },
    {
      "midi": 64,
      "hit": false,
      "t": 223808.8300000033,
      "d": 595.2362500000163,
      "v": 127
    },
    {
      "midi": 42,
      "hit": false,
      "t": 224046.9245000033,
      "d": 238.09450000000652,
      "v": 127
    },
    {
      "midi": 45,
      "hit": false,
      "t": 224523.11350000332,
      "d": 238.09450000000652,
      "v": 127
    },
    {
      "midi": 57,
      "hit": false,
      "t": 224523.11350000332,
      "d": 476.18900000001304,
      "v": 127
    },
    {
      "midi": 61,
      "hit": false,
      "t": 224523.11350000332,
      "d": 476.18900000001304,
      "v": 127
    },
    {
      "midi": 64,
      "hit": false,
      "t": 224523.11350000332,
      "d": 476.18900000001304,
      "v": 127
    },
    {
      "midi": 59,
      "hit": false,
      "t": 224999.30250000334,
      "d": 119.04725000000326,
      "v": 127
    },
    {
      "midi": 62,
      "hit": false,
      "t": 224999.30250000334,
      "d": 119.04725000000326,
      "v": 127
    },
    {
      "midi": 66,
      "hit": false,
      "t": 224999.30250000334,
      "d": 119.04725000000326,
      "v": 127
    },
    {
      "midi": 47,
      "hit": false,
      "t": 224999.30250000334,
      "d": 238.09450000000652,
      "v": 127
    },
    {
      "midi": 59,
      "hit": false,
      "t": 225237.39700000334,
      "d": 357.1417500000098,
      "v": 127
    },
    {
      "midi": 62,
      "hit": false,
      "t": 225237.39700000334,
      "d": 357.1417500000098,
      "v": 127
    },
    {
      "midi": 66,
      "hit": false,
      "t": 225237.39700000334,
      "d": 357.1417500000098,
      "v": 127
    },
    {
      "midi": 47,
      "hit": false,
      "t": 225475.49150000335,
      "d": 238.09450000000652,
      "v": 127
    },
    {
      "midi": 59,
      "hit": false,
      "t": 225713.58600000336,
      "d": 357.1417500000098,
      "v": 127
    },
    {
      "midi": 62,
      "hit": false,
      "t": 225713.58600000336,
      "d": 357.1417500000098,
      "v": 127
    },
    {
      "midi": 66,
      "hit": false,
      "t": 225713.58600000336,
      "d": 357.1417500000098,
      "v": 127
    },
    {
      "midi": 43,
      "hit": false,
      "t": 225713.58600000336,
      "d": 476.18900000001304,
      "v": 127
    },
    {
      "midi": 59,
      "hit": false,
      "t": 226189.77500000337,
      "d": 357.1417500000098,
      "v": 127
    },
    {
      "midi": 62,
      "hit": false,
      "t": 226189.77500000337,
      "d": 357.1417500000098,
      "v": 127
    },
    {
      "midi": 66,
      "hit": false,
      "t": 226189.77500000337,
      "d": 357.1417500000098,
      "v": 127
    },
    {
      "midi": 42,
      "hit": false,
      "t": 226189.77500000337,
      "d": 476.18900000001304,
      "v": 127
    },
    {
      "midi": 55,
      "hit": false,
      "t": 226665.96400000338,
      "d": 952.3780000000261,
      "v": 127
    },
    {
      "midi": 59,
      "hit": false,
      "t": 226665.96400000338,
      "d": 952.3780000000261,
      "v": 127
    },
    {
      "midi": 62,
      "hit": false,
      "t": 226665.96400000338,
      "d": 952.3780000000261,
      "v": 127
    },
    {
      "midi": 40,
      "hit": false,
      "t": 226904.0585000034,
      "d": 238.09450000000652,
      "v": 127
    },
    {
      "midi": 40,
      "hit": false,
      "t": 227380.2475000034,
      "d": 238.09450000000652,
      "v": 127
    },
    {
      "midi": 57,
      "hit": false,
      "t": 227618.3420000034,
      "d": 595.2362500000163,
      "v": 127
    },
    {
      "midi": 61,
      "hit": false,
      "t": 227618.3420000034,
      "d": 595.2362500000163,
      "v": 127
    },
    {
      "midi": 64,
      "hit": false,
      "t": 227618.3420000034,
      "d": 595.2362500000163,
      "v": 127
    },
    {
      "midi": 42,
      "hit": false,
      "t": 227856.43650000342,
      "d": 238.09450000000652,
      "v": 127
    },
    {
      "midi": 45,
      "hit": false,
      "t": 228332.62550000343,
      "d": 238.09450000000652,
      "v": 127
    },
    {
      "midi": 57,
      "hit": false,
      "t": 228332.62550000343,
      "d": 476.18900000001304,
      "v": 127
    },
    {
      "midi": 61,
      "hit": false,
      "t": 228332.62550000343,
      "d": 476.18900000001304,
      "v": 127
    },
    {
      "midi": 64,
      "hit": false,
      "t": 228332.62550000343,
      "d": 476.18900000001304,
      "v": 127
    },
    {
      "midi": 59,
      "hit": false,
      "t": 228808.81450000344,
      "d": 119.04725000000326,
      "v": 127
    },
    {
      "midi": 62,
      "hit": false,
      "t": 228808.81450000344,
      "d": 119.04725000000326,
      "v": 127
    },
    {
      "midi": 66,
      "hit": false,
      "t": 228808.81450000344,
      "d": 119.04725000000326,
      "v": 127
    },
    {
      "midi": 47,
      "hit": false,
      "t": 228808.81450000344,
      "d": 238.09450000000652,
      "v": 127
    },
    {
      "midi": 59,
      "hit": false,
      "t": 229046.90900000345,
      "d": 357.1417500000098,
      "v": 127
    },
    {
      "midi": 62,
      "hit": false,
      "t": 229046.90900000345,
      "d": 357.1417500000098,
      "v": 127
    },
    {
      "midi": 66,
      "hit": false,
      "t": 229046.90900000345,
      "d": 357.1417500000098,
      "v": 127
    },
    {
      "midi": 47,
      "hit": false,
      "t": 229285.00350000345,
      "d": 238.09450000000652,
      "v": 127
    },
    {
      "midi": 59,
      "hit": false,
      "t": 229523.09800000346,
      "d": 357.1417500000098,
      "v": 127
    },
    {
      "midi": 62,
      "hit": false,
      "t": 229523.09800000346,
      "d": 357.1417500000098,
      "v": 127
    },
    {
      "midi": 66,
      "hit": false,
      "t": 229523.09800000346,
      "d": 357.1417500000098,
      "v": 127
    },
    {
      "midi": 43,
      "hit": false,
      "t": 229523.09800000346,
      "d": 476.18900000001304,
      "v": 127
    },
    {
      "midi": 59,
      "hit": false,
      "t": 229999.28700000347,
      "d": 357.1417500000098,
      "v": 127
    },
    {
      "midi": 62,
      "hit": false,
      "t": 229999.28700000347,
      "d": 357.1417500000098,
      "v": 127
    },
    {
      "midi": 66,
      "hit": false,
      "t": 229999.28700000347,
      "d": 357.1417500000098,
      "v": 127
    },
    {
      "midi": 42,
      "hit": false,
      "t": 229999.28700000347,
      "d": 476.18900000001304,
      "v": 127
    },
    {
      "midi": 52,
      "hit": false,
      "t": 230475.4760000035,
      "d": 3809.5120000001043,
      "v": 127
    },
    {
      "midi": 56,
      "hit": false,
      "t": 230475.4760000035,
      "d": 3809.5120000001043,
      "v": 127
    },
    {
      "midi": 59,
      "hit": false,
      "t": 230475.4760000035,
      "d": 3809.5120000001043,
      "v": 127
    },
    {
      "midi": 40,
      "hit": false,
      "t": 230713.5705000035,
      "d": 238.09450000000652,
      "v": 127
    },
    {
      "midi": 40,
      "hit": false,
      "t": 231189.7595000035,
      "d": 238.09450000000652,
      "v": 127
    },
    {
      "midi": 40,
      "hit": false,
      "t": 231665.94850000352,
      "d": 238.09450000000652,
      "v": 127
    },
    {
      "midi": 40,
      "hit": false,
      "t": 232142.13750000353,
      "d": 238.09450000000652,
      "v": 127
    },
    {
      "midi": 40,
      "hit": false,
      "t": 232618.32650000355,
      "d": 238.09450000000652,
      "v": 127
    },
    {
      "midi": 40,
      "hit": false,
      "t": 233094.51550000356,
      "d": 238.09450000000652,
      "v": 127
    },
    {
      "midi": 40,
      "hit": false,
      "t": 233570.70450000357,
      "d": 238.09450000000652,
      "v": 127
    },
    {
      "midi": 40,
      "hit": false,
      "t": 234046.89350000359,
      "d": 238.09450000000652,
      "v": 127
    },
    {
      "midi": 55,
      "hit": false,
      "t": 234284.9880000036,
      "d": 952.3780000000261,
      "v": 127
    },
    {
      "midi": 59,
      "hit": false,
      "t": 234284.9880000036,
      "d": 952.3780000000261,
      "v": 127
    },
    {
      "midi": 62,
      "hit": false,
      "t": 234284.9880000036,
      "d": 952.3780000000261,
      "v": 127
    },
    {
      "midi": 40,
      "hit": false,
      "t": 234523.0825000036,
      "d": 238.09450000000652,
      "v": 127
    },
    {
      "midi": 40,
      "hit": false,
      "t": 234999.2715000036,
      "d": 238.09450000000652,
      "v": 127
    },
    {
      "midi": 57,
      "hit": false,
      "t": 235237.36600000362,
      "d": 595.2362500000163,
      "v": 127
    },
    {
      "midi": 61,
      "hit": false,
      "t": 235237.36600000362,
      "d": 595.2362500000163,
      "v": 127
    },
    {
      "midi": 64,
      "hit": false,
      "t": 235237.36600000362,
      "d": 595.2362500000163,
      "v": 127
    },
    {
      "midi": 42,
      "hit": false,
      "t": 235475.46050000362,
      "d": 238.09450000000652,
      "v": 127
    },
    {
      "midi": 45,
      "hit": false,
      "t": 235951.64950000364,
      "d": 238.09450000000652,
      "v": 127
    },
    {
      "midi": 57,
      "hit": false,
      "t": 235951.64950000364,
      "d": 476.18900000001304,
      "v": 127
    },
    {
      "midi": 61,
      "hit": false,
      "t": 235951.64950000364,
      "d": 476.18900000001304,
      "v": 127
    },
    {
      "midi": 64,
      "hit": false,
      "t": 235951.64950000364,
      "d": 476.18900000001304,
      "v": 127
    },
    {
      "midi": 59,
      "hit": false,
      "t": 236427.83850000365,
      "d": 119.04725000000326,
      "v": 127
    },
    {
      "midi": 62,
      "hit": false,
      "t": 236427.83850000365,
      "d": 119.04725000000326,
      "v": 127
    },
    {
      "midi": 66,
      "hit": false,
      "t": 236427.83850000365,
      "d": 119.04725000000326,
      "v": 127
    },
    {
      "midi": 47,
      "hit": false,
      "t": 236427.83850000365,
      "d": 238.09450000000652,
      "v": 127
    },
    {
      "midi": 59,
      "hit": false,
      "t": 236665.93300000366,
      "d": 357.1417500000098,
      "v": 127
    },
    {
      "midi": 62,
      "hit": false,
      "t": 236665.93300000366,
      "d": 357.1417500000098,
      "v": 127
    },
    {
      "midi": 66,
      "hit": false,
      "t": 236665.93300000366,
      "d": 357.1417500000098,
      "v": 127
    },
    {
      "midi": 47,
      "hit": false,
      "t": 236904.02750000366,
      "d": 238.09450000000652,
      "v": 127
    },
    {
      "midi": 59,
      "hit": false,
      "t": 237142.12200000367,
      "d": 357.1417500000098,
      "v": 127
    },
    {
      "midi": 62,
      "hit": false,
      "t": 237142.12200000367,
      "d": 357.1417500000098,
      "v": 127
    },
    {
      "midi": 66,
      "hit": false,
      "t": 237142.12200000367,
      "d": 357.1417500000098,
      "v": 127
    },
    {
      "midi": 43,
      "hit": false,
      "t": 237142.12200000367,
      "d": 476.18900000001304,
      "v": 127
    },
    {
      "midi": 59,
      "hit": false,
      "t": 237618.31100000368,
      "d": 357.1417500000098,
      "v": 127
    },
    {
      "midi": 62,
      "hit": false,
      "t": 237618.31100000368,
      "d": 357.1417500000098,
      "v": 127
    },
    {
      "midi": 66,
      "hit": false,
      "t": 237618.31100000368,
      "d": 357.1417500000098,
      "v": 127
    },
    {
      "midi": 42,
      "hit": false,
      "t": 237618.31100000368,
      "d": 476.18900000001304,
      "v": 127
    },
    {
      "midi": 55,
      "hit": false,
      "t": 238094.5000000037,
      "d": 952.3780000000261,
      "v": 127
    },
    {
      "midi": 59,
      "hit": false,
      "t": 238094.5000000037,
      "d": 952.3780000000261,
      "v": 127
    },
    {
      "midi": 62,
      "hit": false,
      "t": 238094.5000000037,
      "d": 952.3780000000261,
      "v": 127
    },
    {
      "midi": 40,
      "hit": false,
      "t": 238332.5945000037,
      "d": 238.09450000000652,
      "v": 127
    },
    {
      "midi": 40,
      "hit": false,
      "t": 238808.78350000372,
      "d": 238.09450000000652,
      "v": 127
    },
    {
      "midi": 57,
      "hit": false,
      "t": 239046.87800000372,
      "d": 595.2362500000163,
      "v": 127
    },
    {
      "midi": 61,
      "hit": false,
      "t": 239046.87800000372,
      "d": 595.2362500000163,
      "v": 127
    },
    {
      "midi": 64,
      "hit": false,
      "t": 239046.87800000372,
      "d": 595.2362500000163,
      "v": 127
    },
    {
      "midi": 42,
      "hit": false,
      "t": 239284.97250000373,
      "d": 238.09450000000652,
      "v": 127
    },
    {
      "midi": 45,
      "hit": false,
      "t": 239761.16150000374,
      "d": 238.09450000000652,
      "v": 127
    },
    {
      "midi": 57,
      "hit": false,
      "t": 239761.16150000374,
      "d": 476.18900000001304,
      "v": 127
    },
    {
      "midi": 61,
      "hit": false,
      "t": 239761.16150000374,
      "d": 476.18900000001304,
      "v": 127
    },
    {
      "midi": 64,
      "hit": false,
      "t": 239761.16150000374,
      "d": 476.18900000001304,
      "v": 127
    },
    {
      "midi": 59,
      "hit": false,
      "t": 240237.35050000375,
      "d": 119.04725000000326,
      "v": 127
    },
    {
      "midi": 62,
      "hit": false,
      "t": 240237.35050000375,
      "d": 119.04725000000326,
      "v": 127
    },
    {
      "midi": 66,
      "hit": false,
      "t": 240237.35050000375,
      "d": 119.04725000000326,
      "v": 127
    },
    {
      "midi": 47,
      "hit": false,
      "t": 240237.35050000375,
      "d": 238.09450000000652,
      "v": 127
    },
    {
      "midi": 59,
      "hit": false,
      "t": 240475.44500000376,
      "d": 357.1417500000098,
      "v": 127
    },
    {
      "midi": 62,
      "hit": false,
      "t": 240475.44500000376,
      "d": 357.1417500000098,
      "v": 127
    },
    {
      "midi": 66,
      "hit": false,
      "t": 240475.44500000376,
      "d": 357.1417500000098,
      "v": 127
    },
    {
      "midi": 47,
      "hit": false,
      "t": 240713.53950000377,
      "d": 238.09450000000652,
      "v": 127
    },
    {
      "midi": 59,
      "hit": false,
      "t": 240951.63400000377,
      "d": 357.1417500000098,
      "v": 127
    },
    {
      "midi": 62,
      "hit": false,
      "t": 240951.63400000377,
      "d": 357.1417500000098,
      "v": 127
    },
    {
      "midi": 66,
      "hit": false,
      "t": 240951.63400000377,
      "d": 357.1417500000098,
      "v": 127
    },
    {
      "midi": 43,
      "hit": false,
      "t": 240951.63400000377,
      "d": 476.18900000001304,
      "v": 127
    },
    {
      "midi": 59,
      "hit": false,
      "t": 241427.8230000038,
      "d": 357.1417500000098,
      "v": 127
    },
    {
      "midi": 62,
      "hit": false,
      "t": 241427.8230000038,
      "d": 357.1417500000098,
      "v": 127
    },
    {
      "midi": 66,
      "hit": false,
      "t": 241427.8230000038,
      "d": 357.1417500000098,
      "v": 127
    },
    {
      "midi": 42,
      "hit": false,
      "t": 241427.8230000038,
      "d": 476.18900000001304,
      "v": 127
    },
    {
      "midi": 55,
      "hit": false,
      "t": 241904.0120000038,
      "d": 952.3780000000261,
      "v": 127
    },
    {
      "midi": 59,
      "hit": false,
      "t": 241904.0120000038,
      "d": 952.3780000000261,
      "v": 127
    },
    {
      "midi": 62,
      "hit": false,
      "t": 241904.0120000038,
      "d": 952.3780000000261,
      "v": 127
    },
    {
      "midi": 40,
      "hit": false,
      "t": 242142.1065000038,
      "d": 238.09450000000652,
      "v": 127
    },
    {
      "midi": 40,
      "hit": false,
      "t": 242618.29550000382,
      "d": 238.09450000000652,
      "v": 127
    },
    {
      "midi": 57,
      "hit": false,
      "t": 242856.39000000383,
      "d": 595.2362500000163,
      "v": 127
    },
    {
      "midi": 61,
      "hit": false,
      "t": 242856.39000000383,
      "d": 595.2362500000163,
      "v": 127
    },
    {
      "midi": 64,
      "hit": false,
      "t": 242856.39000000383,
      "d": 595.2362500000163,
      "v": 127
    },
    {
      "midi": 42,
      "hit": false,
      "t": 243094.48450000383,
      "d": 238.09450000000652,
      "v": 127
    },
    {
      "midi": 45,
      "hit": false,
      "t": 243570.67350000385,
      "d": 238.09450000000652,
      "v": 127
    },
    {
      "midi": 57,
      "hit": false,
      "t": 243570.67350000385,
      "d": 476.18900000001304,
      "v": 127
    },
    {
      "midi": 61,
      "hit": false,
      "t": 243570.67350000385,
      "d": 476.18900000001304,
      "v": 127
    },
    {
      "midi": 64,
      "hit": false,
      "t": 243570.67350000385,
      "d": 476.18900000001304,
      "v": 127
    },
    {
      "midi": 59,
      "hit": false,
      "t": 244046.86250000386,
      "d": 119.04725000000326,
      "v": 127
    },
    {
      "midi": 62,
      "hit": false,
      "t": 244046.86250000386,
      "d": 119.04725000000326,
      "v": 127
    },
    {
      "midi": 66,
      "hit": false,
      "t": 244046.86250000386,
      "d": 119.04725000000326,
      "v": 127
    },
    {
      "midi": 47,
      "hit": false,
      "t": 244046.86250000386,
      "d": 238.09450000000652,
      "v": 127
    },
    {
      "midi": 59,
      "hit": false,
      "t": 244284.95700000387,
      "d": 357.1417500000098,
      "v": 127
    },
    {
      "midi": 62,
      "hit": false,
      "t": 244284.95700000387,
      "d": 357.1417500000098,
      "v": 127
    },
    {
      "midi": 66,
      "hit": false,
      "t": 244284.95700000387,
      "d": 357.1417500000098,
      "v": 127
    },
    {
      "midi": 47,
      "hit": false,
      "t": 244523.05150000387,
      "d": 238.09450000000652,
      "v": 127
    },
    {
      "midi": 59,
      "hit": false,
      "t": 244761.14600000388,
      "d": 357.1417500000098,
      "v": 127
    },
    {
      "midi": 62,
      "hit": false,
      "t": 244761.14600000388,
      "d": 357.1417500000098,
      "v": 127
    },
    {
      "midi": 66,
      "hit": false,
      "t": 244761.14600000388,
      "d": 357.1417500000098,
      "v": 127
    },
    {
      "midi": 43,
      "hit": false,
      "t": 244761.14600000388,
      "d": 476.18900000001304,
      "v": 127
    },
    {
      "midi": 59,
      "hit": false,
      "t": 245237.3350000039,
      "d": 357.1417500000098,
      "v": 127
    },
    {
      "midi": 62,
      "hit": false,
      "t": 245237.3350000039,
      "d": 357.1417500000098,
      "v": 127
    },
    {
      "midi": 66,
      "hit": false,
      "t": 245237.3350000039,
      "d": 357.1417500000098,
      "v": 127
    },
    {
      "midi": 42,
      "hit": false,
      "t": 245237.3350000039,
      "d": 476.18900000001304,
      "v": 127
    },
    {
      "midi": 52,
      "hit": false,
      "t": 245713.5240000039,
      "d": 3809.5120000001043,
      "v": 127
    },
    {
      "midi": 56,
      "hit": false,
      "t": 245713.5240000039,
      "d": 3809.5120000001043,
      "v": 127
    },
    {
      "midi": 59,
      "hit": false,
      "t": 245713.5240000039,
      "d": 3809.5120000001043,
      "v": 127
    },
    {
      "midi": 40,
      "hit": false,
      "t": 245951.6185000039,
      "d": 238.09450000000652,
      "v": 127
    },
    {
      "midi": 40,
      "hit": false,
      "t": 246427.80750000392,
      "d": 238.09450000000652,
      "v": 127
    },
    {
      "midi": 40,
      "hit": false,
      "t": 246903.99650000394,
      "d": 238.09450000000652,
      "v": 127
    },
    {
      "midi": 40,
      "hit": false,
      "t": 247380.18550000395,
      "d": 238.09450000000652,
      "v": 127
    },
    {
      "midi": 40,
      "hit": false,
      "t": 247856.37450000396,
      "d": 238.09450000000652,
      "v": 127
    },
    {
      "midi": 40,
      "hit": false,
      "t": 248332.56350000398,
      "d": 238.09450000000652,
      "v": 127
    },
    {
      "midi": 40,
      "hit": false,
      "t": 248808.752500004,
      "d": 238.09450000000652,
      "v": 127
    },
    {
      "midi": 40,
      "hit": false,
      "t": 249284.941500004,
      "d": 238.09450000000652,
      "v": 127
    },
    {
      "midi": 52,
      "hit": false,
      "t": 249523.036000004,
      "d": 3571.417500000098,
      "v": 127
    },
    {
      "midi": 56,
      "hit": false,
      "t": 249523.036000004,
      "d": 3571.417500000098,
      "v": 127
    },
    {
      "midi": 59,
      "hit": false,
      "t": 249523.036000004,
      "d": 3571.417500000098,
      "v": 127
    },
    {
      "midi": 40,
      "hit": false,
      "t": 249761.13050000402,
      "d": 238.09450000000652,
      "v": 127
    },
    {
      "midi": 40,
      "hit": false,
      "t": 250237.31950000403,
      "d": 238.09450000000652,
      "v": 127
    },
    {
      "midi": 40,
      "hit": false,
      "t": 250713.50850000404,
      "d": 238.09450000000652,
      "v": 127
    },
    {
      "midi": 40,
      "hit": false,
      "t": 251189.69750000405,
      "d": 238.09450000000652,
      "v": 127
    },
    {
      "midi": 40,
      "hit": false,
      "t": 251665.88650000407,
      "d": 238.09450000000652,
      "v": 127
    },
    {
      "midi": 40,
      "hit": false,
      "t": 252142.07550000408,
      "d": 238.09450000000652,
      "v": 127
    },
    {
      "midi": 40,
      "hit": false,
      "t": 252618.2645000041,
      "d": 238.09450000000652,
      "v": 127
    },
    {
      "midi": 47,
      "hit": false,
      "t": 253094.4535000041,
      "d": 238.09450000000652,
      "v": 127
    },
    {
      "midi": 59,
      "hit": false,
      "t": 253094.4535000041,
      "d": 4047.606500000111,
      "v": 127
    },
    {
      "midi": 62,
      "hit": false,
      "t": 253094.4535000041,
      "d": 4047.606500000111,
      "v": 127
    },
    {
      "midi": 66,
      "hit": false,
      "t": 253094.4535000041,
      "d": 4047.606500000111,
      "v": 127
    },
    {
      "midi": 47,
      "hit": false,
      "t": 253570.64250000412,
      "d": 238.09450000000652,
      "v": 127
    },
    {
      "midi": 47,
      "hit": false,
      "t": 254046.83150000413,
      "d": 238.09450000000652,
      "v": 127
    },
    {
      "midi": 47,
      "hit": false,
      "t": 254523.02050000415,
      "d": 238.09450000000652,
      "v": 127
    },
    {
      "midi": 47,
      "hit": false,
      "t": 254999.20950000416,
      "d": 238.09450000000652,
      "v": 127
    },
    {
      "midi": 47,
      "hit": false,
      "t": 255475.39850000417,
      "d": 238.09450000000652,
      "v": 127
    },
    {
      "midi": 47,
      "hit": false,
      "t": 255951.58750000419,
      "d": 238.09450000000652,
      "v": 127
    },
    {
      "midi": 47,
      "hit": false,
      "t": 256427.7765000042,
      "d": 238.09450000000652,
      "v": 127
    },
    {
      "midi": 47,
      "hit": false,
      "t": 256903.9655000042,
      "d": 238.09450000000652,
      "v": 127
    }
  ]
}