{
  "jsonPath": "Unknown/Unknown/Holiday With Maggie/moments-of-goodbye.json",
  "path": "Unknown\\Unknown\\Holiday With Maggie\\Moments Of Goodbye.mid",
  "name": "Moments Of Goodbye",
  "difficulty": "Advanced",
  "bpm": 120,
  "notes": [
    {
      "midi": 76,
      "hit": false,
      "t": 0,
      "d": 218.75,
      "v": 127
    },
    {
      "midi": 35,
      "hit": false,
      "t": 0,
      "d": 4000,
      "v": 127
    },
    {
      "midi": 47,
      "hit": false,
      "t": 0,
      "d": 4000,
      "v": 127
    },
    {
      "midi": 76,
      "hit": false,
      "t": 500,
      "d": 1453.125,
      "v": 127
    },
    {
      "midi": 74,
      "hit": false,
      "t": 2000,
      "d": 218.75,
      "v": 127
    },
    {
      "midi": 74,
      "hit": false,
      "t": 2500,
      "d": 427.0833333333335,
      "v": 127
    },
    {
      "midi": 73,
      "hit": false,
      "t": 3000,
      "d": 218.75,
      "v": 127
    },
    {
      "midi": 76,
      "hit": false,
      "t": 3500,
      "d": 458.3333333333335,
      "v": 127
    },
    {
      "midi": 69,
      "hit": false,
      "t": 4000,
      "d": 218.75,
      "v": 127
    },
    {
      "midi": 31,
      "hit": false,
      "t": 4000,
      "d": 4000,
      "v": 127
    },
    {
      "midi": 43,
      "hit": false,
      "t": 4000,
      "d": 4000,
      "v": 127
    },
    {
      "midi": 69,
      "hit": false,
      "t": 4500,
      "d": 3000,
      "v": 127
    },
    {
      "midi": 74,
      "hit": false,
      "t": 7500,
      "d": 234.375,
      "v": 127
    },
    {
      "midi": 76,
      "hit": false,
      "t": 7750,
      "d": 203.125,
      "v": 127
    },
    {
      "midi": 76,
      "hit": false,
      "t": 8000,
      "d": 218.75,
      "v": 127
    },
    {
      "midi": 38,
      "hit": false,
      "t": 8000,
      "d": 4000,
      "v": 127
    },
    {
      "midi": 50,
      "hit": false,
      "t": 8000,
      "d": 4000,
      "v": 127
    },
    {
      "midi": 76,
      "hit": false,
      "t": 8500,
      "d": 1453.125,
      "v": 127
    },
    {
      "midi": 74,
      "hit": false,
      "t": 10000,
      "d": 218.75,
      "v": 127
    },
    {
      "midi": 74,
      "hit": false,
      "t": 10500,
      "d": 427.08333333333394,
      "v": 127
    },
    {
      "midi": 73,
      "hit": false,
      "t": 11000,
      "d": 218.75,
      "v": 127
    },
    {
      "midi": 81,
      "hit": false,
      "t": 11510.416666666666,
      "d": 458.33333333333394,
      "v": 127
    },
    {
      "midi": 76,
      "hit": false,
      "t": 12000,
      "d": 218.75,
      "v": 127
    },
    {
      "midi": 33,
      "hit": false,
      "t": 12000,
      "d": 4000,
      "v": 127
    },
    {
      "midi": 45,
      "hit": false,
      "t": 12000,
      "d": 4000,
      "v": 127
    },
    {
      "midi": 76,
      "hit": false,
      "t": 12500,
      "d": 3463.541666666666,
      "v": 127
    },
    {
      "midi": 76,
      "hit": false,
      "t": 16000,
      "d": 218.75,
      "v": 127
    },
    {
      "midi": 35,
      "hit": false,
      "t": 16000,
      "d": 4000,
      "v": 127
    },
    {
      "midi": 47,
      "hit": false,
      "t": 16000,
      "d": 4000,
      "v": 127
    },
    {
      "midi": 76,
      "hit": false,
      "t": 16500,
      "d": 1453.125,
      "v": 127
    },
    {
      "midi": 74,
      "hit": false,
      "t": 18000,
      "d": 218.75,
      "v": 127
    },
    {
      "midi": 74,
      "hit": false,
      "t": 18500,
      "d": 427.0833333333321,
      "v": 127
    },
    {
      "midi": 73,
      "hit": false,
      "t": 19000,
      "d": 218.75,
      "v": 127
    },
    {
      "midi": 76,
      "hit": false,
      "t": 19500,
      "d": 458.3333333333321,
      "v": 127
    },
    {
      "midi": 69,
      "hit": false,
      "t": 20000,
      "d": 218.75,
      "v": 127
    },
    {
      "midi": 31,
      "hit": false,
      "t": 20000,
      "d": 4000,
      "v": 127
    },
    {
      "midi": 43,
      "hit": false,
      "t": 20000,
      "d": 4000,
      "v": 127
    },
    {
      "midi": 69,
      "hit": false,
      "t": 20500,
      "d": 3000,
      "v": 127
    },
    {
      "midi": 67,
      "hit": false,
      "t": 23500,
      "d": 250,
      "v": 126
    },
    {
      "midi": 66,
      "hit": false,
      "t": 23750,
      "d": 250,
      "v": 127
    },
    {
      "midi": 67,
      "hit": false,
      "t": 24000,
      "d": 250,
      "v": 127
    },
    {
      "midi": 38,
      "hit": false,
      "t": 24000,
      "d": 4000,
      "v": 127
    },
    {
      "midi": 50,
      "hit": false,
      "t": 24000,
      "d": 4000,
      "v": 127
    },
    {
      "midi": 66,
      "hit": false,
      "t": 24250,
      "d": 1723.9583333333321,
      "v": 127
    },
    {
      "midi": 62,
      "hit": false,
      "t": 26000,
      "d": 468.75,
      "v": 127
    },
    {
      "midi": 62,
      "hit": false,
      "t": 26500,
      "d": 468.75,
      "v": 127
    },
    {
      "midi": 61,
      "hit": false,
      "t": 27000,
      "d": 468.75,
      "v": 127
    },
    {
      "midi": 61,
      "hit": false,
      "t": 27500,
      "d": 468.75,
      "v": 127
    },
    {
      "midi": 64,
      "hit": false,
      "t": 28000,
      "d": 437.5,
      "v": 127
    },
    {
      "midi": 37,
      "hit": false,
      "t": 28000,
      "d": 4000,
      "v": 127
    },
    {
      "midi": 49,
      "hit": false,
      "t": 28000,
      "d": 4000,
      "v": 127
    },
    {
      "midi": 64,
      "hit": false,
      "t": 28500,
      "d": 3494.791666666668,
      "v": 127
    }
  ]
}