{
  "jsonPath": "Pop/Classic Italian Pop/Vasco Rossi/gli-angeli.json",
  "path": "Pop\\Classic Italian Pop\\Vasco Rossi\\Gli Angeli.mid",
  "name": "Gli Angeli",
  "difficulty": "Advanced",
  "bpm": 65.99999340000066,
  "notes": [
    {
      "midi": 45,
      "hit": false,
      "t": 3643.9397583333334,
      "d": 1803.0304833333334,
      "v": 95
    },
    {
      "midi": 52,
      "hit": false,
      "t": 3643.9397583333334,
      "d": 1803.0304833333334,
      "v": 92
    },
    {
      "midi": 57,
      "hit": false,
      "t": 3643.9397583333334,
      "d": 1803.0304833333334,
      "v": 116
    },
    {
      "midi": 61,
      "hit": false,
      "t": 3643.9397583333334,
      "d": 1803.0304833333334,
      "v": 104
    },
    {
      "midi": 37,
      "hit": false,
      "t": 5462.121758333334,
      "d": 1780.3032083333337,
      "v": 94
    },
    {
      "midi": 52,
      "hit": false,
      "t": 5462.121758333334,
      "d": 1780.3032083333337,
      "v": 87
    },
    {
      "midi": 57,
      "hit": false,
      "t": 5462.121758333334,
      "d": 1780.3032083333337,
      "v": 106
    },
    {
      "midi": 59,
      "hit": false,
      "t": 5462.121758333334,
      "d": 1780.3032083333337,
      "v": 97
    },
    {
      "midi": 64,
      "hit": false,
      "t": 5462.121758333334,
      "d": 1780.3032083333337,
      "v": 95
    },
    {
      "midi": 38,
      "hit": false,
      "t": 7280.303758333334,
      "d": 666.6667333333335,
      "v": 90
    },
    {
      "midi": 53,
      "hit": false,
      "t": 7280.303758333334,
      "d": 666.6667333333335,
      "v": 90
    },
    {
      "midi": 57,
      "hit": false,
      "t": 7280.303758333334,
      "d": 666.6667333333335,
      "v": 114
    },
    {
      "midi": 60,
      "hit": false,
      "t": 7280.303758333334,
      "d": 666.6667333333335,
      "v": 94
    },
    {
      "midi": 64,
      "hit": false,
      "t": 7280.303758333334,
      "d": 666.6667333333335,
      "v": 92
    },
    {
      "midi": 38,
      "hit": false,
      "t": 7962.122008333335,
      "d": 189.3939583333331,
      "v": 91
    },
    {
      "midi": 52,
      "hit": false,
      "t": 7962.122008333335,
      "d": 250.00002500000028,
      "v": 82
    },
    {
      "midi": 53,
      "hit": false,
      "t": 7962.122008333335,
      "d": 250.00002500000028,
      "v": 100
    },
    {
      "midi": 60,
      "hit": false,
      "t": 7962.122008333335,
      "d": 250.00002500000028,
      "v": 110
    },
    {
      "midi": 57,
      "hit": false,
      "t": 7962.122008333335,
      "d": 272.72729999999956,
      "v": 122
    },
    {
      "midi": 43,
      "hit": false,
      "t": 8643.940258333334,
      "d": 1348.4849833333337,
      "v": 104
    },
    {
      "midi": 53,
      "hit": false,
      "t": 8643.940258333334,
      "d": 1348.4849833333337,
      "v": 90
    },
    {
      "midi": 57,
      "hit": false,
      "t": 8643.940258333334,
      "d": 1348.4849833333337,
      "v": 124
    },
    {
      "midi": 60,
      "hit": false,
      "t": 8643.940258333334,
      "d": 1348.4849833333337,
      "v": 104
    },
    {
      "midi": 64,
      "hit": false,
      "t": 8643.940258333334,
      "d": 1348.4849833333337,
      "v": 94
    },
    {
      "midi": 43,
      "hit": false,
      "t": 10007.576758333335,
      "d": 893.9394833333336,
      "v": 84
    },
    {
      "midi": 53,
      "hit": false,
      "t": 10007.576758333335,
      "d": 893.9394833333336,
      "v": 94
    },
    {
      "midi": 56,
      "hit": false,
      "t": 10007.576758333335,
      "d": 893.9394833333336,
      "v": 104
    },
    {
      "midi": 59,
      "hit": false,
      "t": 10007.576758333335,
      "d": 893.9394833333336,
      "v": 102
    },
    {
      "midi": 64,
      "hit": false,
      "t": 10007.576758333335,
      "d": 893.9394833333336,
      "v": 98
    },
    {
      "midi": 62,
      "hit": false,
      "t": 10462.122258333335,
      "d": 439.3939833333334,
      "v": 103
    },
    {
      "midi": 45,
      "hit": false,
      "t": 10916.667758333335,
      "d": 1590.9092500000006,
      "v": 89
    },
    {
      "midi": 52,
      "hit": false,
      "t": 10916.667758333335,
      "d": 1803.030483333334,
      "v": 93
    },
    {
      "midi": 56,
      "hit": false,
      "t": 10916.667758333335,
      "d": 1803.030483333334,
      "v": 101
    },
    {
      "midi": 59,
      "hit": false,
      "t": 10916.667758333335,
      "d": 1803.030483333334,
      "v": 93
    },
    {
      "midi": 61,
      "hit": false,
      "t": 10916.667758333335,
      "d": 1803.030483333334,
      "v": 98
    },
    {
      "midi": 45,
      "hit": false,
      "t": 12507.577008333335,
      "d": 212.1212333333333,
      "v": 69
    },
    {
      "midi": 37,
      "hit": false,
      "t": 12734.849758333336,
      "d": 1651.515316666666,
      "v": 94
    },
    {
      "midi": 52,
      "hit": false,
      "t": 12734.849758333336,
      "d": 1651.515316666666,
      "v": 90
    },
    {
      "midi": 57,
      "hit": false,
      "t": 12734.849758333336,
      "d": 1651.515316666666,
      "v": 107
    },
    {
      "midi": 59,
      "hit": false,
      "t": 12734.849758333336,
      "d": 1651.515316666666,
      "v": 99
    },
    {
      "midi": 64,
      "hit": false,
      "t": 12734.849758333336,
      "d": 1651.515316666666,
      "v": 98
    },
    {
      "midi": 38,
      "hit": false,
      "t": 14553.031758333334,
      "d": 666.6667333333335,
      "v": 91
    },
    {
      "midi": 54,
      "hit": false,
      "t": 14553.031758333334,
      "d": 666.6667333333335,
      "v": 88
    },
    {
      "midi": 57,
      "hit": false,
      "t": 14553.031758333334,
      "d": 666.6667333333335,
      "v": 110
    },
    {
      "midi": 61,
      "hit": false,
      "t": 14553.031758333334,
      "d": 666.6667333333335,
      "v": 101
    },
    {
      "midi": 66,
      "hit": false,
      "t": 14553.031758333334,
      "d": 666.6667333333335,
      "v": 95
    },
    {
      "midi": 50,
      "hit": false,
      "t": 15234.850008333335,
      "d": 136.36364999999932,
      "v": 93
    },
    {
      "midi": 54,
      "hit": false,
      "t": 15234.850008333335,
      "d": 136.36364999999932,
      "v": 106
    },
    {
      "midi": 61,
      "hit": false,
      "t": 15234.850008333335,
      "d": 151.51516666666612,
      "v": 102
    },
    {
      "midi": 57,
      "hit": false,
      "t": 15234.850008333335,
      "d": 159.0909249999986,
      "v": 110
    },
    {
      "midi": 35,
      "hit": false,
      "t": 15234.850008333335,
      "d": 174.2424416666654,
      "v": 90
    },
    {
      "midi": 40,
      "hit": false,
      "t": 15916.668258333333,
      "d": 2212.121433333332,
      "v": 94
    },
    {
      "midi": 50,
      "hit": false,
      "t": 15916.668258333333,
      "d": 2212.121433333332,
      "v": 83
    },
    {
      "midi": 54,
      "hit": false,
      "t": 15916.668258333333,
      "d": 2212.121433333332,
      "v": 87
    },
    {
      "midi": 57,
      "hit": false,
      "t": 15916.668258333333,
      "d": 2212.121433333332,
      "v": 87
    },
    {
      "midi": 76,
      "hit": false,
      "t": 17568.183575,
      "d": 310.60609166666836,
      "v": 75
    },
    {
      "midi": 73,
      "hit": false,
      "t": 17878.789666666667,
      "d": 363.6363999999994,
      "v": 78
    },
    {
      "midi": 52,
      "hit": false,
      "t": 18189.395758333332,
      "d": 3598.4852083333317,
      "v": 83
    },
    {
      "midi": 56,
      "hit": false,
      "t": 18189.395758333332,
      "d": 3598.4852083333317,
      "v": 98
    },
    {
      "midi": 61,
      "hit": false,
      "t": 18189.395758333332,
      "d": 3598.4852083333317,
      "v": 91
    },
    {
      "midi": 68,
      "hit": false,
      "t": 18242.426066666667,
      "d": 1969.697166666665,
      "v": 63
    },
    {
      "midi": 69,
      "hit": false,
      "t": 20219.698991666664,
      "d": 303.03033333333224,
      "v": 82
    },
    {
      "midi": 71,
      "hit": false,
      "t": 20560.608116666663,
      "d": 333.3333666666658,
      "v": 76
    },
    {
      "midi": 68,
      "hit": false,
      "t": 20901.51724166666,
      "d": 303.03033333333224,
      "v": 81
    },
    {
      "midi": 69,
      "hit": false,
      "t": 21204.547574999993,
      "d": 265.15154166666616,
      "v": 70
    },
    {
      "midi": 71,
      "hit": false,
      "t": 21492.42639166666,
      "d": 234.84850833333257,
      "v": 65
    },
    {
      "midi": 68,
      "hit": false,
      "t": 21765.15369166666,
      "d": 2310.606291666667,
      "v": 56
    },
    {
      "midi": 54,
      "hit": false,
      "t": 21825.75975833333,
      "d": 3560.6064166666656,
      "v": 97
    },
    {
      "midi": 60,
      "hit": false,
      "t": 21825.75975833333,
      "d": 3560.6064166666656,
      "v": 95
    },
    {
      "midi": 63,
      "hit": false,
      "t": 21825.75975833333,
      "d": 3560.6064166666656,
      "v": 93
    },
    {
      "midi": 65,
      "hit": false,
      "t": 24787.88126666666,
      "d": 219.6969916666676,
      "v": 90
    },
    {
      "midi": 66,
      "hit": false,
      "t": 25098.48735833333,
      "d": 242.42426666666506,
      "v": 76
    },
    {
      "midi": 69,
      "hit": false,
      "t": 25424.24496666666,
      "d": 378.787916666668,
      "v": 60
    },
    {
      "midi": 62,
      "hit": false,
      "t": 25462.123758333328,
      "d": 3598.4852083333317,
      "v": 92
    },
    {
      "midi": 66,
      "hit": false,
      "t": 25462.123758333328,
      "d": 3598.4852083333317,
      "v": 93
    },
    {
      "midi": 69,
      "hit": false,
      "t": 25462.123758333328,
      "d": 3598.4852083333317,
      "v": 93
    },
    {
      "midi": 62,
      "hit": false,
      "t": 25825.76015833333,
      "d": 1204.545575,
      "v": 63
    },
    {
      "midi": 66,
      "hit": false,
      "t": 27939.39673333333,
      "d": 280.3030583333348,
      "v": 97
    },
    {
      "midi": 69,
      "hit": false,
      "t": 28310.608891666667,
      "d": 242.42426666666506,
      "v": 92
    },
    {
      "midi": 73,
      "hit": false,
      "t": 28606.063466666666,
      "d": 295.45457499999975,
      "v": 82
    },
    {
      "midi": 69,
      "hit": false,
      "t": 28977.275625,
      "d": 348.48488333333444,
      "v": 64
    },
    {
      "midi": 64,
      "hit": false,
      "t": 29098.487758333325,
      "d": 1742.424416666665,
      "v": 95
    },
    {
      "midi": 71,
      "hit": false,
      "t": 29098.487758333325,
      "d": 1742.424416666665,
      "v": 89
    },
    {
      "midi": 68,
      "hit": false,
      "t": 29098.487758333325,
      "d": 3507.576108333331,
      "v": 90
    },
    {
      "midi": 71,
      "hit": false,
      "t": 29393.942333333332,
      "d": 1333.333466666667,
      "v": 68
    },
    {
      "midi": 59,
      "hit": false,
      "t": 30840.91217499999,
      "d": 1765.151691666666,
      "v": 94
    },
    {
      "midi": 65,
      "hit": false,
      "t": 30840.91217499999,
      "d": 1765.151691666666,
      "v": 94
    },
    {
      "midi": 76,
      "hit": false,
      "t": 32075.76078333333,
      "d": 295.45457499999975,
      "v": 76
    },
    {
      "midi": 73,
      "hit": false,
      "t": 32409.094149999997,
      "d": 280.3030583333348,
      "v": 73
    },
    {
      "midi": 68,
      "hit": false,
      "t": 32719.700241666666,
      "d": 1204.5455749999965,
      "v": 75
    },
    {
      "midi": 52,
      "hit": false,
      "t": 32734.851758333323,
      "d": 1818.1820000000007,
      "v": 83
    },
    {
      "midi": 56,
      "hit": false,
      "t": 32734.851758333323,
      "d": 1818.1820000000007,
      "v": 98
    },
    {
      "midi": 61,
      "hit": false,
      "t": 32734.851758333323,
      "d": 1818.1820000000007,
      "v": 91
    },
    {
      "midi": 69,
      "hit": false,
      "t": 33946.97309166666,
      "d": 219.69699166666396,
      "v": 82
    },
    {
      "midi": 71,
      "hit": false,
      "t": 34212.124633333326,
      "d": 272.72729999999865,
      "v": 75
    },
    {
      "midi": 68,
      "hit": false,
      "t": 34507.57920833332,
      "d": 704.5455250000014,
      "v": 83
    },
    {
      "midi": 54,
      "hit": false,
      "t": 34553.033758333324,
      "d": 1780.303208333331,
      "v": 98
    },
    {
      "midi": 57,
      "hit": false,
      "t": 34553.033758333324,
      "d": 1780.303208333331,
      "v": 98
    },
    {
      "midi": 62,
      "hit": false,
      "t": 34553.033758333324,
      "d": 1780.303208333331,
      "v": 98
    },
    {
      "midi": 69,
      "hit": false,
      "t": 35227.27624999999,
      "d": 431.8182250000027,
      "v": 75
    },
    {
      "midi": 71,
      "hit": false,
      "t": 35689.39750833332,
      "d": 598.484908333332,
      "v": 71
    },
    {
      "midi": 68,
      "hit": false,
      "t": 36318.18544999998,
      "d": 2954.5457499999975,
      "v": 68
    },
    {
      "midi": 56,
      "hit": false,
      "t": 36333.336966666655,
      "d": 15.151516666664975,
      "v": 1
    },
    {
      "midi": 59,
      "hit": false,
      "t": 36333.336966666655,
      "d": 15.151516666664975,
      "v": 1
    },
    {
      "midi": 64,
      "hit": false,
      "t": 36333.336966666655,
      "d": 15.151516666664975,
      "v": 1
    },
    {
      "midi": 59,
      "hit": false,
      "t": 36371.21575833332,
      "d": 1818.1820000000007,
      "v": 97
    },
    {
      "midi": 64,
      "hit": false,
      "t": 36371.21575833332,
      "d": 1818.1820000000007,
      "v": 95
    },
    {
      "midi": 68,
      "hit": false,
      "t": 36371.21575833332,
      "d": 1818.1820000000007,
      "v": 93
    },
    {
      "midi": 52,
      "hit": false,
      "t": 38189.39775833332,
      "d": 1742.4244166666685,
      "v": 98
    },
    {
      "midi": 58,
      "hit": false,
      "t": 38189.39775833332,
      "d": 1742.4244166666685,
      "v": 98
    },
    {
      "midi": 61,
      "hit": false,
      "t": 38189.39775833332,
      "d": 1742.4244166666685,
      "v": 98
    },
    {
      "midi": 65,
      "hit": false,
      "t": 39333.33726666665,
      "d": 242.4242666666687,
      "v": 80
    },
    {
      "midi": 66,
      "hit": false,
      "t": 39651.51911666665,
      "d": 310.60609166666836,
      "v": 82
    },
    {
      "midi": 62,
      "hit": false,
      "t": 39931.82217499999,
      "d": 60.606066666667175,
      "v": 1
    },
    {
      "midi": 66,
      "hit": false,
      "t": 39931.82217499999,
      "d": 60.606066666667175,
      "v": 1
    },
    {
      "midi": 69,
      "hit": false,
      "t": 39969.70096666665,
      "d": 386.3636750000005,
      "v": 63
    },
    {
      "midi": 62,
      "hit": false,
      "t": 40007.57975833332,
      "d": 3621.2124833333364,
      "v": 92
    },
    {
      "midi": 66,
      "hit": false,
      "t": 40007.57975833332,
      "d": 3621.2124833333364,
      "v": 93
    },
    {
      "midi": 69,
      "hit": false,
      "t": 40007.57975833332,
      "d": 3621.2124833333364,
      "v": 93
    },
    {
      "midi": 62,
      "hit": false,
      "t": 40348.48888333332,
      "d": 1386.363774999998,
      "v": 57
    },
    {
      "midi": 62,
      "hit": false,
      "t": 42053.034508333316,
      "d": 356.0606416666633,
      "v": 84
    },
    {
      "midi": 66,
      "hit": false,
      "t": 42401.51939166665,
      "d": 265.15154166666616,
      "v": 94
    },
    {
      "midi": 69,
      "hit": false,
      "t": 42734.85275833331,
      "d": 272.72729999999865,
      "v": 79
    },
    {
      "midi": 73,
      "hit": false,
      "t": 43007.58005833331,
      "d": 530.3030833333323,
      "v": 71
    },
    {
      "midi": 71,
      "hit": false,
      "t": 43606.06496666664,
      "d": 2939.3942333333325,
      "v": 68
    },
    {
      "midi": 64,
      "hit": false,
      "t": 43643.94375833332,
      "d": 1742.4244166666685,
      "v": 95
    },
    {
      "midi": 68,
      "hit": false,
      "t": 43643.94375833332,
      "d": 1742.4244166666685,
      "v": 90
    },
    {
      "midi": 71,
      "hit": false,
      "t": 43643.94375833332,
      "d": 1742.4244166666685,
      "v": 89
    },
    {
      "midi": 68,
      "hit": false,
      "t": 45424.24696666666,
      "d": 1727.2728999999963,
      "v": 92
    },
    {
      "midi": 73,
      "hit": false,
      "t": 46613.641024999975,
      "d": 250.0000250000012,
      "v": 96
    },
    {
      "midi": 74,
      "hit": false,
      "t": 46931.822874999976,
      "d": 272.72729999999865,
      "v": 83
    },
    {
      "midi": 76,
      "hit": false,
      "t": 47257.58048333331,
      "d": 909.0910000000003,
      "v": 75
    },
    {
      "midi": 56,
      "hit": false,
      "t": 47280.30775833332,
      "d": 3598.4852083333317,
      "v": 83
    },
    {
      "midi": 59,
      "hit": false,
      "t": 47280.30775833332,
      "d": 3598.4852083333317,
      "v": 98
    },
    {
      "midi": 64,
      "hit": false,
      "t": 47280.30775833332,
      "d": 3598.4852083333317,
      "v": 91
    },
    {
      "midi": 76,
      "hit": false,
      "t": 48393.944233333306,
      "d": 219.69699166666396,
      "v": 72
    },
    {
      "midi": 76,
      "hit": false,
      "t": 48757.5806333333,
      "d": 166.66668333333655,
      "v": 70
    },
    {
      "midi": 76,
      "hit": false,
      "t": 49083.338241666635,
      "d": 1106.0607166666668,
      "v": 66
    },
    {
      "midi": 74,
      "hit": false,
      "t": 50189.3989583333,
      "d": 272.72729999999865,
      "v": 77
    },
    {
      "midi": 73,
      "hit": false,
      "t": 50492.42929166663,
      "d": 378.787916666668,
      "v": 81
    },
    {
      "midi": 52,
      "hit": false,
      "t": 50878.79296666665,
      "d": 15.151516666664975,
      "v": 1
    },
    {
      "midi": 58,
      "hit": false,
      "t": 50878.79296666665,
      "d": 15.151516666664975,
      "v": 1
    },
    {
      "midi": 76,
      "hit": false,
      "t": 50909.09599999997,
      "d": 2871.212408333333,
      "v": 66
    },
    {
      "midi": 52,
      "hit": false,
      "t": 50916.671758333316,
      "d": 3598.4852083333317,
      "v": 97
    },
    {
      "midi": 58,
      "hit": false,
      "t": 50916.671758333316,
      "d": 3598.4852083333317,
      "v": 95
    },
    {
      "midi": 61,
      "hit": false,
      "t": 50916.671758333316,
      "d": 3598.4852083333317,
      "v": 93
    },
    {
      "midi": 71,
      "hit": false,
      "t": 53863.641749999966,
      "d": 280.30305833333114,
      "v": 102
    },
    {
      "midi": 73,
      "hit": false,
      "t": 54204.550874999964,
      "d": 250.0000250000012,
      "v": 86
    },
    {
      "midi": 74,
      "hit": false,
      "t": 54492.429691666635,
      "d": 1060.6061666666646,
      "v": 68
    },
    {
      "midi": 62,
      "hit": false,
      "t": 54515.15696666665,
      "d": 22.727274999997462,
      "v": 1
    },
    {
      "midi": 66,
      "hit": false,
      "t": 54515.15696666665,
      "d": 22.727274999997462,
      "v": 1
    },
    {
      "midi": 62,
      "hit": false,
      "t": 54553.03575833331,
      "d": 3621.2124833333364,
      "v": 92
    },
    {
      "midi": 66,
      "hit": false,
      "t": 54553.03575833331,
      "d": 3621.2124833333364,
      "v": 93
    },
    {
      "midi": 69,
      "hit": false,
      "t": 54553.03575833331,
      "d": 3621.2124833333364,
      "v": 93
    },
    {
      "midi": 74,
      "hit": false,
      "t": 55734.8540583333,
      "d": 280.30305833333114,
      "v": 79
    },
    {
      "midi": 74,
      "hit": false,
      "t": 56318.18744999997,
      "d": 1196.969816666664,
      "v": 70
    },
    {
      "midi": 73,
      "hit": false,
      "t": 57537.88454166663,
      "d": 356.06064166667056,
      "v": 77
    },
    {
      "midi": 71,
      "hit": false,
      "t": 57840.914874999966,
      "d": 295.4545750000034,
      "v": 63
    },
    {
      "midi": 74,
      "hit": false,
      "t": 58204.55127499997,
      "d": 3000.0002999999997,
      "v": 71
    },
    {
      "midi": 59,
      "hit": false,
      "t": 58227.27854999998,
      "d": 3469.697316666665,
      "v": 96
    },
    {
      "midi": 65,
      "hit": false,
      "t": 58227.27854999998,
      "d": 3469.697316666665,
      "v": 96
    },
    {
      "midi": 68,
      "hit": false,
      "t": 58227.27854999998,
      "d": 3469.697316666665,
      "v": 96
    },
    {
      "midi": 69,
      "hit": false,
      "t": 61151.521266666634,
      "d": 318.18185000000085,
      "v": 75
    },
    {
      "midi": 71,
      "hit": false,
      "t": 61484.8546333333,
      "d": 234.8485083333362,
      "v": 70
    },
    {
      "midi": 73,
      "hit": false,
      "t": 61780.3092083333,
      "d": 1113.6364749999993,
      "v": 63
    },
    {
      "midi": 52,
      "hit": false,
      "t": 61825.76375833331,
      "d": 3598.4852083333317,
      "v": 83
    },
    {
      "midi": 57,
      "hit": false,
      "t": 61825.76375833331,
      "d": 3598.4852083333317,
      "v": 98
    },
    {
      "midi": 61,
      "hit": false,
      "t": 61825.76375833331,
      "d": 3598.4852083333317,
      "v": 91
    },
    {
      "midi": 73,
      "hit": false,
      "t": 63257.582083333305,
      "d": 280.30305833333114,
      "v": 92
    },
    {
      "midi": 73,
      "hit": false,
      "t": 63659.09727499997,
      "d": 613.636424999997,
      "v": 79
    },
    {
      "midi": 74,
      "hit": false,
      "t": 64310.61249166664,
      "d": 401.5151916666655,
      "v": 79
    },
    {
      "midi": 76,
      "hit": false,
      "t": 64765.15799166664,
      "d": 621.2121833333367,
      "v": 73
    },
    {
      "midi": 73,
      "hit": false,
      "t": 65454.551999999974,
      "d": 2992.42454166666,
      "v": 51
    },
    {
      "midi": 52,
      "hit": false,
      "t": 65462.127758333314,
      "d": 3598.485208333339,
      "v": 97
    },
    {
      "midi": 58,
      "hit": false,
      "t": 65462.127758333314,
      "d": 3598.485208333339,
      "v": 95
    },
    {
      "midi": 61,
      "hit": false,
      "t": 65462.127758333314,
      "d": 3598.485208333339,
      "v": 93
    },
    {
      "midi": 71,
      "hit": false,
      "t": 68401.52199166664,
      "d": 318.1818499999936,
      "v": 84
    },
    {
      "midi": 69,
      "hit": false,
      "t": 68727.27959999997,
      "d": 250.0000250000012,
      "v": 63
    },
    {
      "midi": 71,
      "hit": false,
      "t": 69045.46144999997,
      "d": 1053.0304083333322,
      "v": 66
    },
    {
      "midi": 63,
      "hit": false,
      "t": 69098.49175833332,
      "d": 3598.485208333339,
      "v": 92
    },
    {
      "midi": 66,
      "hit": false,
      "t": 69098.49175833332,
      "d": 3598.485208333339,
      "v": 93
    },
    {
      "midi": 69,
      "hit": false,
      "t": 69098.49175833332,
      "d": 3598.485208333339,
      "v": 93
    },
    {
      "midi": 71,
      "hit": false,
      "t": 70424.24946666663,
      "d": 401.5151916666655,
      "v": 69
    },
    {
      "midi": 71,
      "hit": false,
      "t": 70931.82527499997,
      "d": 659.0909749999992,
      "v": 74
    },
    {
      "midi": 73,
      "hit": false,
      "t": 71613.64352499996,
      "d": 393.939433333333,
      "v": 83
    },
    {
      "midi": 71,
      "hit": false,
      "t": 72037.88599166663,
      "d": 613.6364250000042,
      "v": 81
    },
    {
      "midi": 64,
      "hit": false,
      "t": 72651.52241666663,
      "d": 2810.606341666673,
      "v": 70
    },
    {
      "midi": 71,
      "hit": false,
      "t": 72734.85575833332,
      "d": 1780.3032083333383,
      "v": 89
    },
    {
      "midi": 64,
      "hit": false,
      "t": 72734.85575833332,
      "d": 3613.636725000004,
      "v": 95
    },
    {
      "midi": 68,
      "hit": false,
      "t": 72734.85575833332,
      "d": 3613.636725000004,
      "v": 90
    },
    {
      "midi": 59,
      "hit": false,
      "t": 74515.15896666666,
      "d": 1833.3335166666657,
      "v": 1
    },
    {
      "midi": 74,
      "hit": false,
      "t": 75962.1288083333,
      "d": 159.0909249999968,
      "v": 96
    },
    {
      "midi": 74,
      "hit": false,
      "t": 76356.06824166664,
      "d": 553.0303583333298,
      "v": 89
    },
    {
      "midi": 54,
      "hit": false,
      "t": 76446.97734166666,
      "d": 3537.8791416666645,
      "v": 96
    },
    {
      "midi": 57,
      "hit": false,
      "t": 76446.97734166666,
      "d": 3537.8791416666645,
      "v": 96
    },
    {
      "midi": 62,
      "hit": false,
      "t": 76446.97734166666,
      "d": 3537.8791416666645,
      "v": 96
    },
    {
      "midi": 74,
      "hit": false,
      "t": 77030.3107333333,
      "d": 181.81819999999425,
      "v": 32
    },
    {
      "midi": 74,
      "hit": false,
      "t": 77515.15926666663,
      "d": 212.12123333333875,
      "v": 96
    },
    {
      "midi": 74,
      "hit": false,
      "t": 77848.4926333333,
      "d": 143.9394083333318,
      "v": 89
    },
    {
      "midi": 74,
      "hit": false,
      "t": 78174.25024166662,
      "d": 1053.0304083333322,
      "v": 83
    },
    {
      "midi": 73,
      "hit": false,
      "t": 79265.15944166662,
      "d": 265.15154166666616,
      "v": 104
    },
    {
      "midi": 74,
      "hit": false,
      "t": 79583.34129166661,
      "d": 378.787916666668,
      "v": 96
    },
    {
      "midi": 73,
      "hit": false,
      "t": 80015.15951666661,
      "d": 416.66670833333046,
      "v": 82
    },
    {
      "midi": 64,
      "hit": false,
      "t": 80045.46254999998,
      "d": 1780.3032083333383,
      "v": 96
    },
    {
      "midi": 71,
      "hit": false,
      "t": 80045.46254999998,
      "d": 1780.3032083333383,
      "v": 96
    },
    {
      "midi": 68,
      "hit": false,
      "t": 80045.46254999998,
      "d": 3583.333691666674,
      "v": 96
    },
    {
      "midi": 71,
      "hit": false,
      "t": 80401.52319166661,
      "d": 2462.121458333335,
      "v": 79
    },
    {
      "midi": 59,
      "hit": false,
      "t": 81825.76575833332,
      "d": 1803.0304833333357,
      "v": 93
    },
    {
      "midi": 65,
      "hit": false,
      "t": 81825.76575833332,
      "d": 1803.0304833333357,
      "v": 93
    },
    {
      "midi": 76,
      "hit": false,
      "t": 83000.00829999994,
      "d": 318.1818499999936,
      "v": 84
    },
    {
      "midi": 73,
      "hit": false,
      "t": 83325.76590833327,
      "d": 363.6363999999885,
      "v": 92
    },
    {
      "midi": 71,
      "hit": false,
      "t": 83636.37199999993,
      "d": 1053.0304083333322,
      "v": 84
    },
    {
      "midi": 61,
      "hit": false,
      "t": 83643.94775833332,
      "d": 1818.1820000000007,
      "v": 92
    },
    {
      "midi": 64,
      "hit": false,
      "t": 83643.94775833332,
      "d": 1818.1820000000007,
      "v": 93
    },
    {
      "midi": 68,
      "hit": false,
      "t": 83643.94775833332,
      "d": 1818.1820000000007,
      "v": 93
    },
    {
      "midi": 69,
      "hit": false,
      "t": 84840.91757499993,
      "d": 257.5757833333337,
      "v": 104
    },
    {
      "midi": 68,
      "hit": false,
      "t": 85143.94790833326,
      "d": 234.8485083333362,
      "v": 92
    },
    {
      "midi": 62,
      "hit": false,
      "t": 85462.12975833332,
      "d": 1803.0304833333357,
      "v": 100
    },
    {
      "midi": 66,
      "hit": false,
      "t": 85462.12975833332,
      "d": 1803.0304833333357,
      "v": 100
    },
    {
      "midi": 69,
      "hit": false,
      "t": 85462.12975833332,
      "d": 1803.0304833333357,
      "v": 100
    },
    {
      "midi": 69,
      "hit": false,
      "t": 85507.58430833326,
      "d": 659.0909749999992,
      "v": 94
    },
    {
      "midi": 73,
      "hit": false,
      "t": 86174.25104166659,
      "d": 431.81822499999544,
      "v": 96
    },
    {
      "midi": 76,
      "hit": false,
      "t": 86621.22078333325,
      "d": 613.6364250000042,
      "v": 86
    },
    {
      "midi": 68,
      "hit": false,
      "t": 87242.43296666659,
      "d": 1439.3940833333327,
      "v": 75
    },
    {
      "midi": 59,
      "hit": false,
      "t": 87280.31175833332,
      "d": 1818.1820000000007,
      "v": 95
    },
    {
      "midi": 64,
      "hit": false,
      "t": 87280.31175833332,
      "d": 1818.1820000000007,
      "v": 90
    },
    {
      "midi": 68,
      "hit": false,
      "t": 87280.31175833332,
      "d": 1818.1820000000007,
      "v": 89
    },
    {
      "midi": 57,
      "hit": false,
      "t": 89098.49375833332,
      "d": 1689.3941083333339,
      "v": 100
    },
    {
      "midi": 63,
      "hit": false,
      "t": 89098.49375833332,
      "d": 1689.3941083333339,
      "v": 100
    },
    {
      "midi": 66,
      "hit": false,
      "t": 89098.49375833332,
      "d": 1689.3941083333339,
      "v": 100
    },
    {
      "midi": 65,
      "hit": false,
      "t": 90204.55447499992,
      "d": 219.69699166667124,
      "v": 107
    },
    {
      "midi": 66,
      "hit": false,
      "t": 90545.46359999993,
      "d": 272.72729999999865,
      "v": 94
    },
    {
      "midi": 54,
      "hit": false,
      "t": 90916.67575833332,
      "d": 3613.636725000004,
      "v": 83
    },
    {
      "midi": 57,
      "hit": false,
      "t": 90916.67575833332,
      "d": 3613.636725000004,
      "v": 98
    },
    {
      "midi": 69,
      "hit": false,
      "t": 90939.40303333326,
      "d": 2000.000199999995,
      "v": 69
    },
    {
      "midi": 62,
      "hit": false,
      "t": 90992.43334166666,
      "d": 3537.8791416666645,
      "v": 1
    },
    {
      "midi": 66,
      "hit": false,
      "t": 93007.58505833326,
      "d": 287.8788166666636,
      "v": 87
    },
    {
      "midi": 62,
      "hit": false,
      "t": 93318.19114999993,
      "d": 318.1818499999936,
      "v": 62
    },
    {
      "midi": 59,
      "hit": false,
      "t": 93659.10027499992,
      "d": 303.0303333333286,
      "v": 72
    },
    {
      "midi": 62,
      "hit": false,
      "t": 93931.82757499992,
      "d": 204.5454749999917,
      "v": 68
    },
    {
      "midi": 66,
      "hit": false,
      "t": 94204.55487499991,
      "d": 295.4545749999961,
      "v": 74
    },
    {
      "midi": 69,
      "hit": false,
      "t": 94500.00944999991,
      "d": 1689.3941083333339,
      "v": 63
    },
    {
      "midi": 57,
      "hit": false,
      "t": 94553.03975833333,
      "d": 1742.4244166666613,
      "v": 97
    },
    {
      "midi": 62,
      "hit": false,
      "t": 94553.03975833333,
      "d": 1742.4244166666613,
      "v": 95
    },
    {
      "midi": 66,
      "hit": false,
      "t": 94553.03975833333,
      "d": 1742.4244166666613,
      "v": 93
    },
    {
      "midi": 68,
      "hit": false,
      "t": 96257.58538333325,
      "d": 719.6970416666736,
      "v": 81
    },
    {
      "midi": 59,
      "hit": false,
      "t": 96295.46417499999,
      "d": 1878.7880666666606,
      "v": 100
    },
    {
      "midi": 65,
      "hit": false,
      "t": 96295.46417499999,
      "d": 1878.7880666666606,
      "v": 100
    },
    {
      "midi": 68,
      "hit": false,
      "t": 96295.46417499999,
      "d": 1878.7880666666606,
      "v": 100
    },
    {
      "midi": 73,
      "hit": false,
      "t": 97007.58545833325,
      "d": 522.7273249999998,
      "v": 86
    },
    {
      "midi": 68,
      "hit": false,
      "t": 97522.73702499992,
      "d": 598.4849083333393,
      "v": 69
    },
    {
      "midi": 66,
      "hit": false,
      "t": 98159.10072499992,
      "d": 1166.666783333334,
      "v": 66
    },
    {
      "midi": 64,
      "hit": false,
      "t": 98189.40375833331,
      "d": 1818.1820000000007,
      "v": 92
    },
    {
      "midi": 68,
      "hit": false,
      "t": 98189.40375833331,
      "d": 1818.1820000000007,
      "v": 93
    },
    {
      "midi": 71,
      "hit": false,
      "t": 98189.40375833331,
      "d": 1818.1820000000007,
      "v": 93
    },
    {
      "midi": 64,
      "hit": false,
      "t": 99363.64629999992,
      "d": 250.0000250000012,
      "v": 73
    },
    {
      "midi": 66,
      "hit": false,
      "t": 99643.94935833325,
      "d": 257.5757833333337,
      "v": 76
    },
    {
      "midi": 68,
      "hit": false,
      "t": 99992.43424166659,
      "d": 681.8182499999966,
      "v": 77
    },
    {
      "midi": 62,
      "hit": false,
      "t": 100007.58575833331,
      "d": 1803.0304833333357,
      "v": 97
    },
    {
      "midi": 66,
      "hit": false,
      "t": 100007.58575833331,
      "d": 1803.0304833333357,
      "v": 97
    },
    {
      "midi": 69,
      "hit": false,
      "t": 100007.58575833331,
      "d": 1803.0304833333357,
      "v": 97
    },
    {
      "midi": 73,
      "hit": false,
      "t": 100696.97976666658,
      "d": 393.939433333333,
      "v": 69
    },
    {
      "midi": 68,
      "hit": false,
      "t": 101121.22223333325,
      "d": 651.5152166666667,
      "v": 72
    },
    {
      "midi": 66,
      "hit": false,
      "t": 101772.73744999991,
      "d": 2212.1214333333337,
      "v": 62
    },
    {
      "midi": 59,
      "hit": false,
      "t": 101825.76775833331,
      "d": 3507.5761083333346,
      "v": 95
    },
    {
      "midi": 64,
      "hit": false,
      "t": 101825.76775833331,
      "d": 3507.5761083333346,
      "v": 90
    },
    {
      "midi": 68,
      "hit": false,
      "t": 101825.76775833331,
      "d": 3507.5761083333346,
      "v": 89
    },
    {
      "midi": 63,
      "hit": false,
      "t": 104795.46502499991,
      "d": 227.27275000000373,
      "v": 103
    },
    {
      "midi": 64,
      "hit": false,
      "t": 105106.07111666659,
      "d": 325.75760833332606,
      "v": 81
    },
    {
      "midi": 67,
      "hit": false,
      "t": 105454.55599999991,
      "d": 1272.7274000000034,
      "v": 82
    },
    {
      "midi": 59,
      "hit": false,
      "t": 105462.13175833331,
      "d": 3598.485208333339,
      "v": 83
    },
    {
      "midi": 62,
      "hit": false,
      "t": 105462.13175833331,
      "d": 3598.485208333339,
      "v": 98
    },
    {
      "midi": 67,
      "hit": false,
      "t": 105462.13175833331,
      "d": 3598.485208333339,
      "v": 91
    },
    {
      "midi": 66,
      "hit": false,
      "t": 106742.43491666658,
      "d": 590.9091499999922,
      "v": 79
    },
    {
      "midi": 65,
      "hit": false,
      "t": 107295.46527499991,
      "d": 507.57580833333486,
      "v": 93
    },
    {
      "midi": 66,
      "hit": false,
      "t": 107833.34411666657,
      "d": 659.0909749999992,
      "v": 87
    },
    {
      "midi": 70,
      "hit": false,
      "t": 108454.55629999991,
      "d": 257.5757833333337,
      "v": 87
    },
    {
      "midi": 73,
      "hit": false,
      "t": 108719.70784166658,
      "d": 325.75760833332606,
      "v": 66
    },
    {
      "midi": 76,
      "hit": false,
      "t": 109045.4654499999,
      "d": 2916.666958333328,
      "v": 65
    },
    {
      "midi": 49,
      "hit": false,
      "t": 109060.61696666665,
      "d": 15.151516666664975,
      "v": 1
    },
    {
      "midi": 52,
      "hit": false,
      "t": 109060.61696666665,
      "d": 15.151516666664975,
      "v": 1
    },
    {
      "midi": 58,
      "hit": false,
      "t": 109060.61696666665,
      "d": 15.151516666664975,
      "v": 1
    },
    {
      "midi": 52,
      "hit": false,
      "t": 109098.49575833332,
      "d": 3621.2124833333364,
      "v": 97
    },
    {
      "midi": 58,
      "hit": false,
      "t": 109098.49575833332,
      "d": 3621.2124833333364,
      "v": 95
    },
    {
      "midi": 61,
      "hit": false,
      "t": 109098.49575833332,
      "d": 3621.2124833333364,
      "v": 93
    },
    {
      "midi": 73,
      "hit": false,
      "t": 112060.61726666657,
      "d": 295.4545749999961,
      "v": 97
    },
    {
      "midi": 74,
      "hit": false,
      "t": 112416.67790833322,
      "d": 295.4545749999961,
      "v": 81
    },
    {
      "midi": 62,
      "hit": false,
      "t": 112734.85975833332,
      "d": 3598.485208333339,
      "v": 92
    },
    {
      "midi": 66,
      "hit": false,
      "t": 112734.85975833332,
      "d": 3598.485208333339,
      "v": 93
    },
    {
      "midi": 69,
      "hit": false,
      "t": 112734.85975833332,
      "d": 3598.485208333339,
      "v": 93
    },
    {
      "midi": 76,
      "hit": false,
      "t": 112772.73854999988,
      "d": 1053.0304083333322,
      "v": 73
    },
    {
      "midi": 74,
      "hit": false,
      "t": 113901.52654166655,
      "d": 371.212158333321,
      "v": 84
    },
    {
      "midi": 73,
      "hit": false,
      "t": 114227.28414999988,
      "d": 386.3636750000005,
      "v": 81
    },
    {
      "midi": 76,
      "hit": false,
      "t": 114621.22358333321,
      "d": 643.9394583333342,
      "v": 78
    },
    {
      "midi": 74,
      "hit": false,
      "t": 115227.28424999988,
      "d": 409.090949999998,
      "v": 90
    },
    {
      "midi": 73,
      "hit": false,
      "t": 115651.52671666654,
      "d": 734.8485583333386,
      "v": 82
    },
    {
      "midi": 74,
      "hit": false,
      "t": 116310.61769166654,
      "d": 2424.2426666666724,
      "v": 67
    },
    {
      "midi": 59,
      "hit": false,
      "t": 116371.22375833332,
      "d": 3507.5761083333346,
      "v": 95
    },
    {
      "midi": 65,
      "hit": false,
      "t": 116371.22375833332,
      "d": 3507.5761083333346,
      "v": 90
    },
    {
      "midi": 68,
      "hit": false,
      "t": 116371.22375833332,
      "d": 3507.5761083333346,
      "v": 89
    },
    {
      "midi": 66,
      "hit": false,
      "t": 119371.22405833322,
      "d": 537.8788416666648,
      "v": 96
    },
    {
      "midi": 71,
      "hit": false,
      "t": 119939.40593333321,
      "d": 1212.121333333329,
      "v": 78
    },
    {
      "midi": 54,
      "hit": false,
      "t": 120007.58775833332,
      "d": 1780.3032083333383,
      "v": 83
    },
    {
      "midi": 57,
      "hit": false,
      "t": 120007.58775833332,
      "d": 1780.3032083333383,
      "v": 98
    },
    {
      "midi": 62,
      "hit": false,
      "t": 120007.58775833332,
      "d": 1780.3032083333383,
      "v": 91
    },
    {
      "midi": 69,
      "hit": false,
      "t": 121174.25454166654,
      "d": 348.4848833333235,
      "v": 84
    },
    {
      "midi": 68,
      "hit": false,
      "t": 121484.8606333332,
      "d": 348.4848833333235,
      "v": 97
    },
    {
      "midi": 56,
      "hit": false,
      "t": 121787.89096666666,
      "d": 1833.3335166666657,
      "v": 95
    },
    {
      "midi": 59,
      "hit": false,
      "t": 121787.89096666666,
      "d": 1833.3335166666657,
      "v": 95
    },
    {
      "midi": 65,
      "hit": false,
      "t": 121787.89096666666,
      "d": 1833.3335166666657,
      "v": 95
    },
    {
      "midi": 71,
      "hit": false,
      "t": 121833.34551666652,
      "d": 1242.424366666659,
      "v": 79
    },
    {
      "midi": 69,
      "hit": false,
      "t": 123030.31533333319,
      "d": 371.212158333321,
      "v": 96
    },
    {
      "midi": 68,
      "hit": false,
      "t": 123340.92142499985,
      "d": 325.75760833332606,
      "v": 84
    },
    {
      "midi": 59,
      "hit": false,
      "t": 123643.95175833332,
      "d": 3621.212483333322,
      "v": 97
    },
    {
      "midi": 68,
      "hit": false,
      "t": 123643.95175833332,
      "d": 3621.212483333322,
      "v": 93
    },
    {
      "midi": 66,
      "hit": false,
      "t": 123651.52751666651,
      "d": 1818.1820000000007,
      "v": 75
    },
    {
      "midi": 64,
      "hit": false,
      "t": 123681.83054999998,
      "d": 3583.3336916666594,
      "v": 1
    },
    {
      "midi": 64,
      "hit": false,
      "t": 125477.28527499984,
      "d": 1181.818299999999,
      "v": 63
    },
    {
      "midi": 73,
      "hit": false,
      "t": 126628.80054166651,
      "d": 310.6060916666611,
      "v": 74
    },
    {
      "midi": 72,
      "hit": false,
      "t": 126636.37629999984,
      "d": 30.30303333332995,
      "v": 42
    },
    {
      "midi": 69,
      "hit": false,
      "t": 126969.7096666665,
      "d": 348.4848833333235,
      "v": 64
    },
    {
      "midi": 71,
      "hit": false,
      "t": 127265.1642416665,
      "d": 1143.939508333322,
      "v": 64
    },
    {
      "midi": 62,
      "hit": false,
      "t": 127280.31575833331,
      "d": 1780.3032083333383,
      "v": 92
    },
    {
      "midi": 66,
      "hit": false,
      "t": 127280.31575833331,
      "d": 1780.3032083333383,
      "v": 93
    },
    {
      "midi": 69,
      "hit": false,
      "t": 127280.31575833331,
      "d": 1780.3032083333383,
      "v": 93
    },
    {
      "midi": 66,
      "hit": false,
      "t": 128424.25526666649,
      "d": 295.4545749999961,
      "v": 86
    },
    {
      "midi": 69,
      "hit": false,
      "t": 128742.43711666648,
      "d": 363.63640000000305,
      "v": 79
    },
    {
      "midi": 65,
      "hit": false,
      "t": 129060.61896666665,
      "d": 1840.9092749999982,
      "v": 95
    },
    {
      "midi": 68,
      "hit": false,
      "t": 129060.61896666665,
      "d": 1840.9092749999982,
      "v": 95
    },
    {
      "midi": 71,
      "hit": false,
      "t": 129060.61896666665,
      "d": 1840.9092749999982,
      "v": 95
    },
    {
      "midi": 68,
      "hit": false,
      "t": 129106.07351666648,
      "d": 575.7576333333272,
      "v": 69
    },
    {
      "midi": 69,
      "hit": false,
      "t": 129742.43721666647,
      "d": 477.2727750000049,
      "v": 76
    },
    {
      "midi": 71,
      "hit": false,
      "t": 130219.70999166647,
      "d": 643.9394583333342,
      "v": 78
    },
    {
      "midi": 69,
      "hit": false,
      "t": 130909.1039999998,
      "d": 2454.5457000000024,
      "v": 74
    },
    {
      "midi": 57,
      "hit": false,
      "t": 130916.67975833331,
      "d": 3507.5761083333346,
      "v": 95
    },
    {
      "midi": 61,
      "hit": false,
      "t": 130916.67975833331,
      "d": 3507.5761083333346,
      "v": 90
    },
    {
      "midi": 64,
      "hit": false,
      "t": 130916.67975833331,
      "d": 3507.5761083333346,
      "v": 89
    },
    {
      "midi": 45,
      "hit": false,
      "t": 134553.0437583333,
      "d": 1803.0304833333357,
      "v": 95
    },
    {
      "midi": 52,
      "hit": false,
      "t": 134553.0437583333,
      "d": 1803.0304833333357,
      "v": 92
    },
    {
      "midi": 57,
      "hit": false,
      "t": 134553.0437583333,
      "d": 1803.0304833333357,
      "v": 116
    },
    {
      "midi": 61,
      "hit": false,
      "t": 134553.0437583333,
      "d": 1803.0304833333357,
      "v": 104
    },
    {
      "midi": 37,
      "hit": false,
      "t": 136371.2257583333,
      "d": 1780.3032083333237,
      "v": 94
    },
    {
      "midi": 52,
      "hit": false,
      "t": 136371.2257583333,
      "d": 1780.3032083333237,
      "v": 87
    },
    {
      "midi": 57,
      "hit": false,
      "t": 136371.2257583333,
      "d": 1780.3032083333237,
      "v": 106
    },
    {
      "midi": 59,
      "hit": false,
      "t": 136371.2257583333,
      "d": 1780.3032083333237,
      "v": 97
    },
    {
      "midi": 64,
      "hit": false,
      "t": 136371.2257583333,
      "d": 1780.3032083333237,
      "v": 95
    },
    {
      "midi": 38,
      "hit": false,
      "t": 138189.4077583333,
      "d": 666.6667333333462,
      "v": 90
    },
    {
      "midi": 53,
      "hit": false,
      "t": 138189.4077583333,
      "d": 666.6667333333462,
      "v": 90
    },
    {
      "midi": 57,
      "hit": false,
      "t": 138189.4077583333,
      "d": 666.6667333333462,
      "v": 114
    },
    {
      "midi": 60,
      "hit": false,
      "t": 138189.4077583333,
      "d": 666.6667333333462,
      "v": 94
    },
    {
      "midi": 64,
      "hit": false,
      "t": 138189.4077583333,
      "d": 666.6667333333462,
      "v": 92
    },
    {
      "midi": 52,
      "hit": false,
      "t": 138871.22600833332,
      "d": 136.36365000001388,
      "v": 82
    },
    {
      "midi": 57,
      "hit": false,
      "t": 138871.22600833332,
      "d": 151.51516666667885,
      "v": 122
    },
    {
      "midi": 53,
      "hit": false,
      "t": 138871.22600833332,
      "d": 159.0909250000259,
      "v": 100
    },
    {
      "midi": 60,
      "hit": false,
      "t": 138871.22600833332,
      "d": 174.24244166669087,
      "v": 110
    },
    {
      "midi": 38,
      "hit": false,
      "t": 138871.22600833332,
      "d": 189.39395833335584,
      "v": 91
    },
    {
      "midi": 43,
      "hit": false,
      "t": 139553.04425833334,
      "d": 1348.4849833333283,
      "v": 104
    },
    {
      "midi": 53,
      "hit": false,
      "t": 139553.04425833334,
      "d": 1348.4849833333283,
      "v": 90
    },
    {
      "midi": 57,
      "hit": false,
      "t": 139553.04425833334,
      "d": 1348.4849833333283,
      "v": 124
    },
    {
      "midi": 60,
      "hit": false,
      "t": 139553.04425833334,
      "d": 1348.4849833333283,
      "v": 104
    },
    {
      "midi": 64,
      "hit": false,
      "t": 139553.04425833334,
      "d": 1348.4849833333283,
      "v": 94
    },
    {
      "midi": 43,
      "hit": false,
      "t": 140916.68075833333,
      "d": 893.9394833333499,
      "v": 84
    },
    {
      "midi": 53,
      "hit": false,
      "t": 140916.68075833333,
      "d": 893.9394833333499,
      "v": 94
    },
    {
      "midi": 56,
      "hit": false,
      "t": 140916.68075833333,
      "d": 893.9394833333499,
      "v": 104
    },
    {
      "midi": 59,
      "hit": false,
      "t": 140916.68075833333,
      "d": 893.9394833333499,
      "v": 102
    },
    {
      "midi": 64,
      "hit": false,
      "t": 140916.68075833333,
      "d": 893.9394833333499,
      "v": 98
    },
    {
      "midi": 62,
      "hit": false,
      "t": 141371.22625833334,
      "d": 439.3939833333425,
      "v": 103
    },
    {
      "midi": 45,
      "hit": false,
      "t": 141825.77175833334,
      "d": 1590.909249999997,
      "v": 89
    },
    {
      "midi": 52,
      "hit": false,
      "t": 141825.77175833334,
      "d": 1803.0304833333357,
      "v": 93
    },
    {
      "midi": 56,
      "hit": false,
      "t": 141825.77175833334,
      "d": 1803.0304833333357,
      "v": 101
    },
    {
      "midi": 59,
      "hit": false,
      "t": 141825.77175833334,
      "d": 1803.0304833333357,
      "v": 93
    },
    {
      "midi": 61,
      "hit": false,
      "t": 141825.77175833334,
      "d": 1803.0304833333357,
      "v": 98
    },
    {
      "midi": 45,
      "hit": false,
      "t": 143416.68100833334,
      "d": 212.12123333333875,
      "v": 69
    },
    {
      "midi": 37,
      "hit": false,
      "t": 143643.95375833334,
      "d": 1651.5153166666569,
      "v": 94
    },
    {
      "midi": 52,
      "hit": false,
      "t": 143643.95375833334,
      "d": 1651.5153166666569,
      "v": 90
    },
    {
      "midi": 57,
      "hit": false,
      "t": 143643.95375833334,
      "d": 1651.5153166666569,
      "v": 107
    },
    {
      "midi": 59,
      "hit": false,
      "t": 143643.95375833334,
      "d": 1651.5153166666569,
      "v": 99
    },
    {
      "midi": 64,
      "hit": false,
      "t": 143643.95375833334,
      "d": 1651.5153166666569,
      "v": 98
    },
    {
      "midi": 38,
      "hit": false,
      "t": 145462.13575833334,
      "d": 666.6667333333462,
      "v": 91
    },
    {
      "midi": 54,
      "hit": false,
      "t": 145462.13575833334,
      "d": 666.6667333333462,
      "v": 88
    },
    {
      "midi": 57,
      "hit": false,
      "t": 145462.13575833334,
      "d": 666.6667333333462,
      "v": 110
    },
    {
      "midi": 61,
      "hit": false,
      "t": 145462.13575833334,
      "d": 666.6667333333462,
      "v": 101
    },
    {
      "midi": 66,
      "hit": false,
      "t": 145462.13575833334,
      "d": 666.6667333333462,
      "v": 95
    },
    {
      "midi": 50,
      "hit": false,
      "t": 146143.95400833336,
      "d": 136.36365000001388,
      "v": 93
    },
    {
      "midi": 54,
      "hit": false,
      "t": 146143.95400833336,
      "d": 136.36365000001388,
      "v": 106
    },
    {
      "midi": 61,
      "hit": false,
      "t": 146143.95400833336,
      "d": 151.51516666667885,
      "v": 102
    },
    {
      "midi": 57,
      "hit": false,
      "t": 146143.95400833336,
      "d": 159.0909250000259,
      "v": 110
    },
    {
      "midi": 35,
      "hit": false,
      "t": 146143.95400833336,
      "d": 174.24244166669087,
      "v": 90
    },
    {
      "midi": 40,
      "hit": false,
      "t": 146825.77225833337,
      "d": 2212.121433333319,
      "v": 94
    },
    {
      "midi": 50,
      "hit": false,
      "t": 146825.77225833337,
      "d": 2212.121433333319,
      "v": 83
    },
    {
      "midi": 54,
      "hit": false,
      "t": 146825.77225833337,
      "d": 2212.121433333319,
      "v": 87
    },
    {
      "midi": 57,
      "hit": false,
      "t": 146825.77225833337,
      "d": 2212.121433333319,
      "v": 87
    },
    {
      "midi": 57,
      "hit": false,
      "t": 149098.49975833335,
      "d": 113.63637500000186,
      "v": 98
    },
    {
      "midi": 52,
      "hit": false,
      "t": 149098.49975833335,
      "d": 3560.6064166666765,
      "v": 83
    },
    {
      "midi": 61,
      "hit": false,
      "t": 149098.49975833335,
      "d": 3560.6064166666765,
      "v": 91
    },
    {
      "midi": 56,
      "hit": false,
      "t": 149212.13613333335,
      "d": 3446.9700416666747,
      "v": 1
    },
    {
      "midi": 51,
      "hit": false,
      "t": 152659.10617500002,
      "d": 53.030308333341964,
      "v": 1
    },
    {
      "midi": 54,
      "hit": false,
      "t": 152659.10617500002,
      "d": 53.030308333341964,
      "v": 1
    },
    {
      "midi": 60,
      "hit": false,
      "t": 152659.10617500002,
      "d": 53.030308333341964,
      "v": 1
    },
    {
      "midi": 54,
      "hit": false,
      "t": 152734.86375833338,
      "d": 3621.2124833333364,
      "v": 97
    },
    {
      "midi": 60,
      "hit": false,
      "t": 152734.86375833338,
      "d": 3621.2124833333364,
      "v": 95
    },
    {
      "midi": 63,
      "hit": false,
      "t": 152734.86375833338,
      "d": 3621.2124833333364,
      "v": 93
    },
    {
      "midi": 66,
      "hit": false,
      "t": 156371.22775833338,
      "d": 3621.2124833333364,
      "v": 96
    },
    {
      "midi": 62,
      "hit": false,
      "t": 156409.10655000005,
      "d": 3583.3336916666594,
      "v": 96
    },
    {
      "midi": 69,
      "hit": false,
      "t": 156409.10655000005,
      "d": 3583.3336916666594,
      "v": 96
    },
    {
      "midi": 64,
      "hit": false,
      "t": 160045.47055000006,
      "d": 1818.1820000000007,
      "v": 96
    },
    {
      "midi": 71,
      "hit": false,
      "t": 160045.47055000006,
      "d": 1818.1820000000007,
      "v": 96
    },
    {
      "midi": 68,
      "hit": false,
      "t": 160045.47055000006,
      "d": 3469.6973166666576,
      "v": 96
    },
    {
      "midi": 59,
      "hit": false,
      "t": 161863.65255000006,
      "d": 1651.5153166666569,
      "v": 98
    },
    {
      "midi": 65,
      "hit": false,
      "t": 161863.65255000006,
      "d": 1651.5153166666569,
      "v": 98
    },
    {
      "midi": 56,
      "hit": false,
      "t": 163643.95575833338,
      "d": 3522.7276249999995,
      "v": 83
    },
    {
      "midi": 59,
      "hit": false,
      "t": 163643.95575833338,
      "d": 3522.7276249999995,
      "v": 98
    },
    {
      "midi": 64,
      "hit": false,
      "t": 163643.95575833338,
      "d": 3522.7276249999995,
      "v": 91
    },
    {
      "midi": 63,
      "hit": false,
      "t": 167280.31975833338,
      "d": 3598.4852083333244,
      "v": 95
    },
    {
      "midi": 57,
      "hit": false,
      "t": 167280.31975833338,
      "d": 3621.2124833333364,
      "v": 97
    },
    {
      "midi": 66,
      "hit": false,
      "t": 167280.31975833338,
      "d": 3621.2124833333364,
      "v": 93
    },
    {
      "midi": 62,
      "hit": false,
      "t": 170878.8049666667,
      "d": 22.727275000012014,
      "v": 1
    },
    {
      "midi": 62,
      "hit": false,
      "t": 170916.68375833338,
      "d": 3598.4852083333244,
      "v": 92
    },
    {
      "midi": 66,
      "hit": false,
      "t": 170916.68375833338,
      "d": 3598.4852083333244,
      "v": 93
    },
    {
      "midi": 69,
      "hit": false,
      "t": 170916.68375833338,
      "d": 3598.4852083333244,
      "v": 93
    },
    {
      "midi": 59,
      "hit": false,
      "t": 174553.04775833338,
      "d": 3507.5761083333346,
      "v": 95
    },
    {
      "midi": 65,
      "hit": false,
      "t": 174553.04775833338,
      "d": 3507.5761083333346,
      "v": 90
    },
    {
      "midi": 68,
      "hit": false,
      "t": 174553.04775833338,
      "d": 3507.5761083333346,
      "v": 89
    },
    {
      "midi": 56,
      "hit": false,
      "t": 178189.4117583334,
      "d": 3598.4852083333244,
      "v": 83
    },
    {
      "midi": 59,
      "hit": false,
      "t": 178189.4117583334,
      "d": 3598.4852083333244,
      "v": 98
    },
    {
      "midi": 64,
      "hit": false,
      "t": 178189.4117583334,
      "d": 3598.4852083333244,
      "v": 91
    },
    {
      "midi": 52,
      "hit": false,
      "t": 181825.7757583334,
      "d": 3560.6064166666765,
      "v": 97
    },
    {
      "midi": 58,
      "hit": false,
      "t": 181825.7757583334,
      "d": 3560.6064166666765,
      "v": 95
    },
    {
      "midi": 61,
      "hit": false,
      "t": 181825.7757583334,
      "d": 3560.6064166666765,
      "v": 93
    },
    {
      "midi": 62,
      "hit": false,
      "t": 185462.1397583334,
      "d": 3621.2124833333364,
      "v": 92
    },
    {
      "midi": 66,
      "hit": false,
      "t": 185462.1397583334,
      "d": 3621.2124833333364,
      "v": 93
    },
    {
      "midi": 71,
      "hit": false,
      "t": 185462.1397583334,
      "d": 3621.2124833333364,
      "v": 93
    },
    {
      "midi": 59,
      "hit": false,
      "t": 189136.38255000007,
      "d": 3469.6973166666576,
      "v": 98
    },
    {
      "midi": 52,
      "hit": false,
      "t": 192734.8677583334,
      "d": 3598.4852083333244,
      "v": 83
    },
    {
      "midi": 57,
      "hit": false,
      "t": 192734.8677583334,
      "d": 3598.4852083333244,
      "v": 98
    },
    {
      "midi": 61,
      "hit": false,
      "t": 192734.8677583334,
      "d": 3598.4852083333244,
      "v": 91
    },
    {
      "midi": 52,
      "hit": false,
      "t": 196371.2317583334,
      "d": 3621.2124833333364,
      "v": 97
    },
    {
      "midi": 58,
      "hit": false,
      "t": 196371.2317583334,
      "d": 3621.2124833333364,
      "v": 95
    },
    {
      "midi": 61,
      "hit": false,
      "t": 196371.2317583334,
      "d": 3621.2124833333364,
      "v": 93
    },
    {
      "midi": 63,
      "hit": false,
      "t": 200083.35334166672,
      "d": 3522.7276249999995,
      "v": 95
    },
    {
      "midi": 66,
      "hit": false,
      "t": 200083.35334166672,
      "d": 3522.7276249999995,
      "v": 95
    },
    {
      "midi": 69,
      "hit": false,
      "t": 200083.35334166672,
      "d": 3522.7276249999995,
      "v": 95
    },
    {
      "midi": 71,
      "hit": false,
      "t": 203643.9597583334,
      "d": 2310.606291666656,
      "v": 89
    },
    {
      "midi": 64,
      "hit": false,
      "t": 203643.9597583334,
      "d": 3507.5761083333346,
      "v": 95
    },
    {
      "midi": 68,
      "hit": false,
      "t": 203643.9597583334,
      "d": 3507.5761083333346,
      "v": 90
    },
    {
      "midi": 59,
      "hit": false,
      "t": 205954.56605000005,
      "d": 1303.0304333333333,
      "v": 98
    },
    {
      "midi": 69,
      "hit": false,
      "t": 206666.68733333313,
      "d": 310.60609166667564,
      "v": 78
    },
    {
      "midi": 74,
      "hit": false,
      "t": 206962.14190833314,
      "d": 234.84850833332166,
      "v": 90
    },
    {
      "midi": 74,
      "hit": false,
      "t": 207325.77830833313,
      "d": 1083.3334416666767,
      "v": 84
    },
    {
      "midi": 54,
      "hit": false,
      "t": 207356.08134166672,
      "d": 3537.8791416666645,
      "v": 98
    },
    {
      "midi": 57,
      "hit": false,
      "t": 207356.08134166672,
      "d": 3537.8791416666645,
      "v": 98
    },
    {
      "midi": 62,
      "hit": false,
      "t": 207356.08134166672,
      "d": 3537.8791416666645,
      "v": 98
    },
    {
      "midi": 66,
      "hit": false,
      "t": 208424.26326666647,
      "d": 159.0909249999968,
      "v": 76
    },
    {
      "midi": 69,
      "hit": false,
      "t": 208598.50570833313,
      "d": 181.8182000000088,
      "v": 92
    },
    {
      "midi": 71,
      "hit": false,
      "t": 208757.59663333313,
      "d": 136.36365000001388,
      "v": 99
    },
    {
      "midi": 73,
      "hit": false,
      "t": 208878.80876666648,
      "d": 136.36364999998477,
      "v": 71
    },
    {
      "midi": 74,
      "hit": false,
      "t": 209098.50575833314,
      "d": 704.5455249999941,
      "v": 96
    },
    {
      "midi": 73,
      "hit": false,
      "t": 209128.80879166647,
      "d": 15.151516666664975,
      "v": 44
    },
    {
      "midi": 73,
      "hit": false,
      "t": 209825.77855833314,
      "d": 386.3636750000005,
      "v": 89
    },
    {
      "midi": 74,
      "hit": false,
      "t": 210257.59678333314,
      "d": 568.1818750000093,
      "v": 104
    },
    {
      "midi": 73,
      "hit": false,
      "t": 210272.7482999998,
      "d": 30.30303333332995,
      "v": 67
    },
    {
      "midi": 73,
      "hit": false,
      "t": 210871.23320833314,
      "d": 560.6061166666623,
      "v": 83
    },
    {
      "midi": 59,
      "hit": false,
      "t": 210916.6877583334,
      "d": 3621.2124833333364,
      "v": 97
    },
    {
      "midi": 65,
      "hit": false,
      "t": 210916.6877583334,
      "d": 3621.2124833333364,
      "v": 95
    },
    {
      "midi": 68,
      "hit": false,
      "t": 210916.6877583334,
      "d": 3621.2124833333364,
      "v": 93
    },
    {
      "midi": 71,
      "hit": false,
      "t": 211371.23325833314,
      "d": 2431.818425000005,
      "v": 78
    },
    {
      "midi": 76,
      "hit": false,
      "t": 213886.38502499982,
      "d": 310.60609166667564,
      "v": 86
    },
    {
      "midi": 73,
      "hit": false,
      "t": 214227.29414999983,
      "d": 363.6364000000176,
      "v": 89
    },
    {
      "midi": 71,
      "hit": false,
      "t": 214537.9002416665,
      "d": 1196.9698166666785,
      "v": 90
    },
    {
      "midi": 61,
      "hit": false,
      "t": 214553.0517583334,
      "d": 1818.1820000000007,
      "v": 92
    },
    {
      "midi": 64,
      "hit": false,
      "t": 214553.0517583334,
      "d": 1818.1820000000007,
      "v": 93
    },
    {
      "midi": 68,
      "hit": false,
      "t": 214553.0517583334,
      "d": 1818.1820000000007,
      "v": 93
    },
    {
      "midi": 69,
      "hit": false,
      "t": 215750.02157499985,
      "d": 265.1515416666807,
      "v": 82
    },
    {
      "midi": 71,
      "hit": false,
      "t": 215772.74884999986,
      "d": 30.30303333332995,
      "v": 47
    },
    {
      "midi": 68,
      "hit": false,
      "t": 216030.3246333332,
      "d": 257.5757833333337,
      "v": 89
    },
    {
      "midi": 69,
      "hit": false,
      "t": 216340.93072499987,
      "d": 651.5152166666812,
      "v": 84
    },
    {
      "midi": 62,
      "hit": false,
      "t": 216371.2337583334,
      "d": 1803.0304833333357,
      "v": 94
    },
    {
      "midi": 66,
      "hit": false,
      "t": 216371.2337583334,
      "d": 1803.0304833333357,
      "v": 94
    },
    {
      "midi": 69,
      "hit": false,
      "t": 216371.2337583334,
      "d": 1803.0304833333357,
      "v": 94
    },
    {
      "midi": 73,
      "hit": false,
      "t": 217015.17321666656,
      "d": 477.27277499999036,
      "v": 99
    },
    {
      "midi": 76,
      "hit": false,
      "t": 217500.0217499999,
      "d": 606.0606666666572,
      "v": 86
    },
    {
      "midi": 80,
      "hit": false,
      "t": 218234.87030833322,
      "d": 2196.969916666654,
      "v": 82
    },
    {
      "midi": 59,
      "hit": false,
      "t": 218265.17334166673,
      "d": 1704.5456249999988,
      "v": 96
    },
    {
      "midi": 64,
      "hit": false,
      "t": 218265.17334166673,
      "d": 1704.5456249999988,
      "v": 96
    },
    {
      "midi": 68,
      "hit": false,
      "t": 218265.17334166673,
      "d": 1704.5456249999988,
      "v": 96
    },
    {
      "midi": 57,
      "hit": false,
      "t": 219969.71896666673,
      "d": 1727.2729000000108,
      "v": 94
    },
    {
      "midi": 63,
      "hit": false,
      "t": 219969.71896666673,
      "d": 1727.2729000000108,
      "v": 94
    },
    {
      "midi": 66,
      "hit": false,
      "t": 219969.71896666673,
      "d": 1727.2729000000108,
      "v": 94
    },
    {
      "midi": 77,
      "hit": false,
      "t": 221166.6887833332,
      "d": 212.12123333333875,
      "v": 112
    },
    {
      "midi": 78,
      "hit": false,
      "t": 221492.44639166654,
      "d": 250.00002499998664,
      "v": 75
    },
    {
      "midi": 54,
      "hit": false,
      "t": 221825.7797583334,
      "d": 3613.6367249999894,
      "v": 83
    },
    {
      "midi": 57,
      "hit": false,
      "t": 221825.7797583334,
      "d": 3613.6367249999894,
      "v": 98
    },
    {
      "midi": 81,
      "hit": false,
      "t": 221848.50703333318,
      "d": 1750.0001749999938,
      "v": 70
    },
    {
      "midi": 62,
      "hit": false,
      "t": 221901.53734166673,
      "d": 3537.8791416666645,
      "v": 1
    },
    {
      "midi": 78,
      "hit": false,
      "t": 223871.23450833317,
      "d": 265.1515416666807,
      "v": 97
    },
    {
      "midi": 74,
      "hit": false,
      "t": 224196.99211666652,
      "d": 325.7576083333406,
      "v": 79
    },
    {
      "midi": 71,
      "hit": false,
      "t": 224537.90124166652,
      "d": 280.3030583333457,
      "v": 83
    },
    {
      "midi": 74,
      "hit": false,
      "t": 224825.7800583332,
      "d": 181.8182000000088,
      "v": 74
    },
    {
      "midi": 78,
      "hit": false,
      "t": 225113.65887499988,
      "d": 325.7576083333406,
      "v": 60
    },
    {
      "midi": 81,
      "hit": false,
      "t": 225446.99224166656,
      "d": 1636.363799999992,
      "v": 66
    },
    {
      "midi": 57,
      "hit": false,
      "t": 225462.1437583334,
      "d": 1780.3032083333237,
      "v": 97
    },
    {
      "midi": 62,
      "hit": false,
      "t": 225462.1437583334,
      "d": 1780.3032083333237,
      "v": 95
    },
    {
      "midi": 66,
      "hit": false,
      "t": 225462.1437583334,
      "d": 1780.3032083333237,
      "v": 93
    },
    {
      "midi": 80,
      "hit": false,
      "t": 227227.2954499999,
      "d": 659.0909749999992,
      "v": 82
    },
    {
      "midi": 59,
      "hit": false,
      "t": 227242.44696666673,
      "d": 1840.9092750000127,
      "v": 98
    },
    {
      "midi": 65,
      "hit": false,
      "t": 227242.44696666673,
      "d": 1840.9092750000127,
      "v": 98
    },
    {
      "midi": 68,
      "hit": false,
      "t": 227242.44696666673,
      "d": 1840.9092750000127,
      "v": 98
    },
    {
      "midi": 85,
      "hit": false,
      "t": 227924.26521666656,
      "d": 484.8485333333374,
      "v": 83
    },
    {
      "midi": 80,
      "hit": false,
      "t": 228424.26526666657,
      "d": 621.2121833333222,
      "v": 90
    },
    {
      "midi": 68,
      "hit": false,
      "t": 229098.5077583334,
      "d": 3621.2124833333364,
      "v": 93
    },
    {
      "midi": 71,
      "hit": false,
      "t": 229098.5077583334,
      "d": 3621.2124833333364,
      "v": 93
    },
    {
      "midi": 78,
      "hit": false,
      "t": 229113.6592749999,
      "d": 1159.0910250000015,
      "v": 77
    },
    {
      "midi": 64,
      "hit": false,
      "t": 229136.38655000008,
      "d": 3583.3336916666594,
      "v": 1
    },
    {
      "midi": 76,
      "hit": false,
      "t": 230272.7502999999,
      "d": 325.7576083333406,
      "v": 77
    },
    {
      "midi": 78,
      "hit": false,
      "t": 230606.0836666666,
      "d": 310.60609166667564,
      "v": 68
    },
    {
      "midi": 80,
      "hit": false,
      "t": 230969.7200666666,
      "d": 568.1818750000093,
      "v": 73
    },
    {
      "midi": 85,
      "hit": false,
      "t": 231568.20497499994,
      "d": 492.42429166665534,
      "v": 70
    },
    {
      "midi": 80,
      "hit": false,
      "t": 232060.6292666666,
      "d": 628.7879416666692,
      "v": 70
    },
    {
      "midi": 78,
      "hit": false,
      "t": 232696.9929666666,
      "d": 2712.1214833333215,
      "v": 61
    },
    {
      "midi": 68,
      "hit": false,
      "t": 232734.8717583334,
      "d": 1818.1820000000007,
      "v": 89
    },
    {
      "midi": 59,
      "hit": false,
      "t": 232734.8717583334,
      "d": 3613.6367249999894,
      "v": 95
    },
    {
      "midi": 64,
      "hit": false,
      "t": 232734.8717583334,
      "d": 3613.6367249999894,
      "v": 90
    },
    {
      "midi": 56,
      "hit": false,
      "t": 234553.0537583334,
      "d": 1795.4547249999887,
      "v": 94
    },
    {
      "midi": 75,
      "hit": false,
      "t": 235689.41750833328,
      "d": 234.84850833332166,
      "v": 103
    },
    {
      "midi": 76,
      "hit": false,
      "t": 236000.02359999993,
      "d": 303.0303333333286,
      "v": 94
    },
    {
      "midi": 79,
      "hit": false,
      "t": 236363.65999999992,
      "d": 1280.3031583333213,
      "v": 93
    },
    {
      "midi": 59,
      "hit": false,
      "t": 236371.2357583334,
      "d": 3613.6367249999894,
      "v": 83
    },
    {
      "midi": 62,
      "hit": false,
      "t": 236371.2357583334,
      "d": 3613.6367249999894,
      "v": 98
    },
    {
      "midi": 67,
      "hit": false,
      "t": 236371.2357583334,
      "d": 3613.6367249999894,
      "v": 91
    },
    {
      "midi": 78,
      "hit": false,
      "t": 237666.69043333325,
      "d": 560.6061166666914,
      "v": 81
    },
    {
      "midi": 77,
      "hit": false,
      "t": 238189.41775833326,
      "d": 515.1515666666673,
      "v": 93
    },
    {
      "midi": 78,
      "hit": false,
      "t": 238772.75114999994,
      "d": 613.6364250000042,
      "v": 86
    },
    {
      "midi": 82,
      "hit": false,
      "t": 239340.93302499995,
      "d": 242.4242666666687,
      "v": 87
    },
    {
      "midi": 85,
      "hit": false,
      "t": 239643.96335833328,
      "d": 356.06064166667056,
      "v": 86
    },
    {
      "midi": 88,
      "hit": false,
      "t": 240015.1755166666,
      "d": 2848.4851333333354,
      "v": 60
    },
    {
      "midi": 52,
      "hit": false,
      "t": 240045.47855000006,
      "d": 3583.3336916666594,
      "v": 97
    },
    {
      "midi": 58,
      "hit": false,
      "t": 240045.47855000006,
      "d": 3583.3336916666594,
      "v": 97
    },
    {
      "midi": 61,
      "hit": false,
      "t": 240045.47855000006,
      "d": 3583.3336916666594,
      "v": 97
    },
    {
      "midi": 85,
      "hit": false,
      "t": 242962.14550833328,
      "d": 272.72729999999865,
      "v": 99
    },
    {
      "midi": 86,
      "hit": false,
      "t": 243303.0546333333,
      "d": 303.0303333333286,
      "v": 83
    },
    {
      "midi": 62,
      "hit": false,
      "t": 243643.96375833338,
      "d": 3598.4852083333244,
      "v": 92
    },
    {
      "midi": 66,
      "hit": false,
      "t": 243643.96375833338,
      "d": 3598.4852083333244,
      "v": 93
    },
    {
      "midi": 69,
      "hit": false,
      "t": 243643.96375833338,
      "d": 3598.4852083333244,
      "v": 93
    },
    {
      "midi": 88,
      "hit": false,
      "t": 243681.84254999994,
      "d": 992.4243416666577,
      "v": 70
    },
    {
      "midi": 86,
      "hit": false,
      "t": 244765.1759916666,
      "d": 265.1515416666807,
      "v": 86
    },
    {
      "midi": 85,
      "hit": false,
      "t": 245113.66087499994,
      "d": 621.2121833333222,
      "v": 74
    },
    {
      "midi": 88,
      "hit": false,
      "t": 245803.05488333327,
      "d": 643.9394583333342,
      "v": 84
    },
    {
      "midi": 86,
      "hit": false,
      "t": 246545.47919999994,
      "d": 227.27275000000373,
      "v": 94
    },
    {
      "midi": 85,
      "hit": false,
      "t": 246856.08529166662,
      "d": 310.60609166667564,
      "v": 82
    },
    {
      "midi": 86,
      "hit": false,
      "t": 247234.8732083333,
      "d": 1992.4244416666625,
      "v": 75
    },
    {
      "midi": 59,
      "hit": false,
      "t": 247280.32775833338,
      "d": 3507.5761083333346,
      "v": 95
    },
    {
      "midi": 65,
      "hit": false,
      "t": 247280.32775833338,
      "d": 3507.5761083333346,
      "v": 90
    },
    {
      "midi": 68,
      "hit": false,
      "t": 247280.32775833338,
      "d": 3507.5761083333346,
      "v": 89
    },
    {
      "midi": 78,
      "hit": false,
      "t": 250227.29774999997,
      "d": 446.9697416666895,
      "v": 102
    },
    {
      "midi": 80,
      "hit": false,
      "t": 250636.38869999998,
      "d": 265.1515416666807,
      "v": 71
    },
    {
      "midi": 83,
      "hit": false,
      "t": 250901.54024166666,
      "d": 1090.9091999999946,
      "v": 70
    },
    {
      "midi": 54,
      "hit": false,
      "t": 250954.57055000006,
      "d": 1780.3032083333237,
      "v": 96
    },
    {
      "midi": 57,
      "hit": false,
      "t": 250954.57055000006,
      "d": 1780.3032083333237,
      "v": 96
    },
    {
      "midi": 62,
      "hit": false,
      "t": 250954.57055000006,
      "d": 1780.3032083333237,
      "v": 96
    },
    {
      "midi": 81,
      "hit": false,
      "t": 252060.63126666666,
      "d": 242.4242666666687,
      "v": 94
    },
    {
      "midi": 80,
      "hit": false,
      "t": 252356.08584166667,
      "d": 333.33336666665855,
      "v": 82
    },
    {
      "midi": 83,
      "hit": false,
      "t": 252704.570725,
      "d": 1113.6364750000066,
      "v": 71
    },
    {
      "midi": 56,
      "hit": false,
      "t": 252734.8737583334,
      "d": 1795.4547249999887,
      "v": 96
    },
    {
      "midi": 59,
      "hit": false,
      "t": 252734.8737583334,
      "d": 1795.4547249999887,
      "v": 96
    },
    {
      "midi": 65,
      "hit": false,
      "t": 252734.8737583334,
      "d": 1795.4547249999887,
      "v": 96
    },
    {
      "midi": 81,
      "hit": false,
      "t": 253909.1163,
      "d": 257.5757833333337,
      "v": 99
    },
    {
      "midi": 80,
      "hit": false,
      "t": 254227.29815,
      "d": 363.6363999999885,
      "v": 89
    },
    {
      "midi": 59,
      "hit": false,
      "t": 254553.0557583334,
      "d": 1780.3032083333237,
      "v": 97
    },
    {
      "midi": 64,
      "hit": false,
      "t": 254553.0557583334,
      "d": 1780.3032083333237,
      "v": 95
    },
    {
      "midi": 68,
      "hit": false,
      "t": 254553.0557583334,
      "d": 1780.3032083333237,
      "v": 93
    },
    {
      "midi": 78,
      "hit": false,
      "t": 254590.93454999998,
      "d": 1780.3032083333528,
      "v": 78
    },
    {
      "midi": 52,
      "hit": false,
      "t": 256333.3589666667,
      "d": 1840.9092750000127,
      "v": 93
    },
    {
      "midi": 58,
      "hit": false,
      "t": 256333.3589666667,
      "d": 1840.9092750000127,
      "v": 93
    },
    {
      "midi": 61,
      "hit": false,
      "t": 256333.3589666667,
      "d": 1840.9092750000127,
      "v": 93
    },
    {
      "midi": 76,
      "hit": false,
      "t": 256363.66199999998,
      "d": 1189.3940583333606,
      "v": 64
    },
    {
      "midi": 85,
      "hit": false,
      "t": 257530.32878333333,
      "d": 348.4848833333526,
      "v": 73
    },
    {
      "midi": 81,
      "hit": false,
      "t": 257856.08639166667,
      "d": 280.3030583333457,
      "v": 68
    },
    {
      "midi": 83,
      "hit": false,
      "t": 258166.69248333335,
      "d": 750.000074999989,
      "v": 62
    },
    {
      "midi": 62,
      "hit": false,
      "t": 258189.4197583334,
      "d": 1818.1820000000007,
      "v": 92
    },
    {
      "midi": 66,
      "hit": false,
      "t": 258189.4197583334,
      "d": 1818.1820000000007,
      "v": 93
    },
    {
      "midi": 69,
      "hit": false,
      "t": 258189.4197583334,
      "d": 1818.1820000000007,
      "v": 93
    },
    {
      "midi": 78,
      "hit": false,
      "t": 258901.54104166667,
      "d": 492.42429166665534,
      "v": 90
    },
    {
      "midi": 81,
      "hit": false,
      "t": 259363.6623,
      "d": 689.3940083333291,
      "v": 79
    },
    {
      "midi": 80,
      "hit": false,
      "t": 259984.87448333332,
      "d": 765.1515916666831,
      "v": 81
    },
    {
      "midi": 65,
      "hit": false,
      "t": 260007.6017583334,
      "d": 1803.0304833333357,
      "v": 91
    },
    {
      "midi": 68,
      "hit": false,
      "t": 260007.6017583334,
      "d": 1803.0304833333357,
      "v": 91
    },
    {
      "midi": 71,
      "hit": false,
      "t": 260007.6017583334,
      "d": 1803.0304833333357,
      "v": 91
    },
    {
      "midi": 81,
      "hit": false,
      "t": 260727.2988,
      "d": 507.5758083333494,
      "v": 79
    },
    {
      "midi": 83,
      "hit": false,
      "t": 261204.571575,
      "d": 613.6364250000042,
      "v": 79
    },
    {
      "midi": 81,
      "hit": false,
      "t": 261818.208,
      "d": 2477.272975,
      "v": 84
    },
    {
      "midi": 57,
      "hit": false,
      "t": 261863.66255000007,
      "d": 3469.6973166666576,
      "v": 95
    },
    {
      "midi": 61,
      "hit": false,
      "t": 261863.66255000007,
      "d": 3469.6973166666576,
      "v": 95
    },
    {
      "midi": 64,
      "hit": false,
      "t": 261863.66255000007,
      "d": 3469.6973166666576,
      "v": 95
    },
    {
      "midi": 45,
      "hit": false,
      "t": 265462.14775833336,
      "d": 1530.303183333308,
      "v": 107
    },
    {
      "midi": 52,
      "hit": false,
      "t": 265462.14775833336,
      "d": 1530.303183333308,
      "v": 88
    },
    {
      "midi": 56,
      "hit": false,
      "t": 265462.14775833336,
      "d": 1530.303183333308,
      "v": 107
    },
    {
      "midi": 61,
      "hit": false,
      "t": 265462.14775833336,
      "d": 1530.303183333308,
      "v": 110
    },
    {
      "midi": 47,
      "hit": false,
      "t": 267053.05700833333,
      "d": 1121.2122333333245,
      "v": 104
    },
    {
      "midi": 54,
      "hit": false,
      "t": 267053.05700833333,
      "d": 1606.0607666667202,
      "v": 90
    },
    {
      "midi": 57,
      "hit": false,
      "t": 267053.05700833333,
      "d": 1606.0607666667202,
      "v": 117
    },
    {
      "midi": 62,
      "hit": false,
      "t": 267053.05700833333,
      "d": 1606.0607666667202,
      "v": 104
    },
    {
      "midi": 40,
      "hit": false,
      "t": 268189.42075833335,
      "d": 893.9394833333208,
      "v": 102
    },
    {
      "midi": 64,
      "hit": false,
      "t": 268643.96625833336,
      "d": 439.3939833333134,
      "v": 97
    },
    {
      "midi": 66,
      "hit": false,
      "t": 268871.23900833336,
      "d": 212.12123333330965,
      "v": 102
    },
    {
      "midi": 45,
      "hit": false,
      "t": 269098.51175833336,
      "d": 1113.6364750000066,
      "v": 93
    },
    {
      "midi": 57,
      "hit": false,
      "t": 269098.51175833336,
      "d": 1113.6364750000066,
      "v": 82
    },
    {
      "midi": 59,
      "hit": false,
      "t": 269098.51175833336,
      "d": 1113.6364750000066,
      "v": 90
    },
    {
      "midi": 64,
      "hit": false,
      "t": 269098.51175833336,
      "d": 1113.6364750000066,
      "v": 107
    },
    {
      "midi": 68,
      "hit": false,
      "t": 269098.51175833336,
      "d": 1113.6364750000066,
      "v": 109
    },
    {
      "midi": 52,
      "hit": false,
      "t": 270234.8755083334,
      "d": 136.36365000001388,
      "v": 79
    },
    {
      "midi": 56,
      "hit": false,
      "t": 270234.8755083334,
      "d": 136.36365000001388,
      "v": 96
    },
    {
      "midi": 64,
      "hit": false,
      "t": 270234.8755083334,
      "d": 136.36365000001388,
      "v": 101
    },
    {
      "midi": 61,
      "hit": false,
      "t": 270234.8755083334,
      "d": 151.51516666670796,
      "v": 110
    },
    {
      "midi": 47,
      "hit": false,
      "t": 270689.42100833345,
      "d": 1106.0607166666887,
      "v": 89
    },
    {
      "midi": 54,
      "hit": false,
      "t": 270689.42100833345,
      "d": 1106.0607166666887,
      "v": 90
    },
    {
      "midi": 57,
      "hit": false,
      "t": 270689.42100833345,
      "d": 1106.0607166666887,
      "v": 117
    },
    {
      "midi": 62,
      "hit": false,
      "t": 270689.42100833345,
      "d": 1106.0607166666887,
      "v": 110
    },
    {
      "midi": 40,
      "hit": false,
      "t": 271825.78475833347,
      "d": 590.9091500000213,
      "v": 90
    },
    {
      "midi": 50,
      "hit": false,
      "t": 271825.78475833347,
      "d": 590.9091500000213,
      "v": 83
    },
    {
      "midi": 54,
      "hit": false,
      "t": 271825.78475833347,
      "d": 590.9091500000213,
      "v": 87
    },
    {
      "midi": 57,
      "hit": false,
      "t": 271825.78475833347,
      "d": 590.9091500000213,
      "v": 90
    },
    {
      "midi": 59,
      "hit": false,
      "t": 272280.3302583335,
      "d": 136.36365000001388,
      "v": 110
    },
    {
      "midi": 45,
      "hit": false,
      "t": 272431.8454250002,
      "d": 3393.93973333342,
      "v": 83
    },
    {
      "midi": 49,
      "hit": false,
      "t": 272507.60300833354,
      "d": 3643.9397583333775,
      "v": 80
    },
    {
      "midi": 52,
      "hit": false,
      "t": 272583.3605916669,
      "d": 3537.8791416666936,
      "v": 83
    },
    {
      "midi": 56,
      "hit": false,
      "t": 272659.11817500024,
      "d": 3484.8488333333516,
      "v": 86
    },
    {
      "midi": 61,
      "hit": false,
      "t": 272734.8757583336,
      "d": 3393.9397333333036,
      "v": 94
    }
  ]
}