{
  "jsonPath": "Pop/Classic Italian Pop/Vasco Rossi/gli-angeli-italian-mainstream-mix.json",
  "path": "Pop\\Classic Italian Pop\\Vasco Rossi\\Gli Angeli (Italian Mainstream Mix).mid",
  "name": "Gli Angeli (Italian Mainstream Mix)",
  "difficulty": "Advanced",
  "bpm": 92.00012880018032,
  "notes": [
    {
      "midi": 61,
      "hit": false,
      "t": 3913.0380000000005,
      "d": 865.4879187500001,
      "v": 94
    },
    {
      "midi": 33,
      "hit": false,
      "t": 3913.0380000000005,
      "d": 3817.929437500001,
      "v": 111
    },
    {
      "midi": 45,
      "hit": false,
      "t": 3913.0380000000005,
      "d": 3817.929437500001,
      "v": 115
    },
    {
      "midi": 52,
      "hit": false,
      "t": 3915.7553875000003,
      "d": 869.5640000000003,
      "v": 93
    },
    {
      "midi": 57,
      "hit": false,
      "t": 3915.7553875000003,
      "d": 872.2813875000002,
      "v": 98
    },
    {
      "midi": 57,
      "hit": false,
      "t": 4860.047543750001,
      "d": 889.9444062499997,
      "v": 83
    },
    {
      "midi": 52,
      "hit": false,
      "t": 4864.123625000001,
      "d": 876.3574687499995,
      "v": 82
    },
    {
      "midi": 59,
      "hit": false,
      "t": 4866.841012500001,
      "d": 883.1509374999996,
      "v": 95
    },
    {
      "midi": 61,
      "hit": false,
      "t": 5845.1005125,
      "d": 940.2160750000003,
      "v": 94
    },
    {
      "midi": 52,
      "hit": false,
      "t": 5849.17659375,
      "d": 801.6293125000002,
      "v": 84
    },
    {
      "midi": 57,
      "hit": false,
      "t": 5849.17659375,
      "d": 811.1401687500002,
      "v": 92
    },
    {
      "midi": 59,
      "hit": false,
      "t": 6802.979606250001,
      "d": 858.6944500000009,
      "v": 90
    },
    {
      "midi": 52,
      "hit": false,
      "t": 6809.773075000001,
      "d": 808.4227812500003,
      "v": 92
    },
    {
      "midi": 57,
      "hit": false,
      "t": 6813.849156250001,
      "d": 817.9336375000003,
      "v": 93
    },
    {
      "midi": 57,
      "hit": false,
      "t": 7794.826043750001,
      "d": 896.7378750000007,
      "v": 92
    },
    {
      "midi": 54,
      "hit": false,
      "t": 7805.6955937500015,
      "d": 889.9444062499997,
      "v": 93
    },
    {
      "midi": 61,
      "hit": false,
      "t": 7808.412981250001,
      "d": 1014.9442312499996,
      "v": 91
    },
    {
      "midi": 30,
      "hit": false,
      "t": 7826.076000000002,
      "d": 3817.9294374999963,
      "v": 113
    },
    {
      "midi": 42,
      "hit": false,
      "t": 7826.076000000002,
      "d": 3817.9294374999963,
      "v": 115
    },
    {
      "midi": 59,
      "hit": false,
      "t": 8834.2267625,
      "d": 947.0095437499986,
      "v": 90
    },
    {
      "midi": 54,
      "hit": false,
      "t": 8838.30284375,
      "d": 754.0750312500004,
      "v": 93
    },
    {
      "midi": 57,
      "hit": false,
      "t": 8838.30284375,
      "d": 770.3793562499995,
      "v": 98
    },
    {
      "midi": 61,
      "hit": false,
      "t": 9737.75810625,
      "d": 985.0529687499984,
      "v": 92
    },
    {
      "midi": 54,
      "hit": false,
      "t": 9741.834187499999,
      "d": 845.1075124999988,
      "v": 91
    },
    {
      "midi": 57,
      "hit": false,
      "t": 9744.551575,
      "d": 838.3140437499987,
      "v": 87
    },
    {
      "midi": 54,
      "hit": false,
      "t": 10733.680624999997,
      "d": 831.5205750000005,
      "v": 91
    },
    {
      "midi": 57,
      "hit": false,
      "t": 10736.398012499998,
      "d": 822.0097187499996,
      "v": 89
    },
    {
      "midi": 59,
      "hit": false,
      "t": 10736.398012499998,
      "d": 940.2160750000003,
      "v": 96
    },
    {
      "midi": 52,
      "hit": false,
      "t": 11698.353187499999,
      "d": 892.6617937500014,
      "v": 89
    },
    {
      "midi": 61,
      "hit": false,
      "t": 11698.353187499999,
      "d": 1019.0203125000025,
      "v": 93
    },
    {
      "midi": 57,
      "hit": false,
      "t": 11707.86404375,
      "d": 885.8683250000013,
      "v": 86
    },
    {
      "midi": 33,
      "hit": false,
      "t": 11739.114,
      "d": 3817.929437500001,
      "v": 108
    },
    {
      "midi": 45,
      "hit": false,
      "t": 11739.114,
      "d": 3817.929437500001,
      "v": 114
    },
    {
      "midi": 59,
      "hit": false,
      "t": 12717.373500000002,
      "d": 944.2921562499996,
      "v": 92
    },
    {
      "midi": 52,
      "hit": false,
      "t": 12720.090887500002,
      "d": 756.7924187499993,
      "v": 93
    },
    {
      "midi": 57,
      "hit": false,
      "t": 12724.166968750002,
      "d": 777.1728249999996,
      "v": 90
    },
    {
      "midi": 61,
      "hit": false,
      "t": 13634.49178125,
      "d": 998.6399062500004,
      "v": 91
    },
    {
      "midi": 57,
      "hit": false,
      "t": 13644.002637500002,
      "d": 797.55323125,
      "v": 93
    },
    {
      "midi": 52,
      "hit": false,
      "t": 13648.078718750001,
      "d": 781.2489062500008,
      "v": 92
    },
    {
      "midi": 52,
      "hit": false,
      "t": 14622.262137500002,
      "d": 845.1075124999988,
      "v": 94
    },
    {
      "midi": 57,
      "hit": false,
      "t": 14626.338218750001,
      "d": 822.0097187499996,
      "v": 98
    },
    {
      "midi": 59,
      "hit": false,
      "t": 14629.055606250002,
      "d": 1035.3246374999999,
      "v": 83
    },
    {
      "midi": 57,
      "hit": false,
      "t": 15611.391187500001,
      "d": 797.55323125,
      "v": 92
    },
    {
      "midi": 54,
      "hit": false,
      "t": 15620.902043750002,
      "d": 794.8358437499974,
      "v": 91
    },
    {
      "midi": 61,
      "hit": false,
      "t": 15620.902043750002,
      "d": 967.3899499999989,
      "v": 83
    },
    {
      "midi": 30,
      "hit": false,
      "t": 15652.152000000002,
      "d": 3817.9294375000063,
      "v": 114
    },
    {
      "midi": 42,
      "hit": false,
      "t": 15652.152000000002,
      "d": 3817.9294375000063,
      "v": 108
    },
    {
      "midi": 57,
      "hit": false,
      "t": 16596.44415625,
      "d": 869.5640000000021,
      "v": 86
    },
    {
      "midi": 59,
      "hit": false,
      "t": 16596.44415625,
      "d": 1008.1507625000013,
      "v": 86
    },
    {
      "midi": 54,
      "hit": false,
      "t": 16599.16154375,
      "d": 858.6944500000027,
      "v": 94
    },
    {
      "midi": 61,
      "hit": false,
      "t": 17601.87753125,
      "d": 967.3899500000043,
      "v": 93
    },
    {
      "midi": 57,
      "hit": false,
      "t": 17604.59491875,
      "d": 817.9336375000021,
      "v": 84
    },
    {
      "midi": 54,
      "hit": false,
      "t": 17608.671000000002,
      "d": 801.6293125000011,
      "v": 92
    },
    {
      "midi": 59,
      "hit": false,
      "t": 18586.930500000006,
      "d": 980.9768875000045,
      "v": 91
    },
    {
      "midi": 57,
      "hit": false,
      "t": 18589.647887500007,
      "d": 790.7597625000017,
      "v": 91
    },
    {
      "midi": 54,
      "hit": false,
      "t": 18593.723968750008,
      "d": 781.248906249999,
      "v": 92
    },
    {
      "midi": 61,
      "hit": false,
      "t": 19544.809593750007,
      "d": 964.6725624999999,
      "v": 81
    },
    {
      "midi": 52,
      "hit": false,
      "t": 19547.52698125001,
      "d": 876.3574687500004,
      "v": 91
    },
    {
      "midi": 57,
      "hit": false,
      "t": 19551.60306250001,
      "d": 879.0748562499975,
      "v": 90
    },
    {
      "midi": 33,
      "hit": false,
      "t": 19565.19000000001,
      "d": 3817.929437499999,
      "v": 109
    },
    {
      "midi": 45,
      "hit": false,
      "t": 19565.19000000001,
      "d": 3817.929437499999,
      "v": 109
    },
    {
      "midi": 59,
      "hit": false,
      "t": 20512.199543750008,
      "d": 1035.3246375000017,
      "v": 90
    },
    {
      "midi": 57,
      "hit": false,
      "t": 20516.27562500001,
      "d": 845.1075124999988,
      "v": 85
    },
    {
      "midi": 52,
      "hit": false,
      "t": 20518.99301250001,
      "d": 842.3901249999981,
      "v": 89
    },
    {
      "midi": 61,
      "hit": false,
      "t": 21508.12206250001,
      "d": 974.1834187500026,
      "v": 82
    },
    {
      "midi": 57,
      "hit": false,
      "t": 21510.83945000001,
      "d": 849.18359375,
      "v": 94
    },
    {
      "midi": 52,
      "hit": false,
      "t": 21514.91553125001,
      "d": 855.9770624999983,
      "v": 91
    },
    {
      "midi": 57,
      "hit": false,
      "t": 22493.17503125001,
      "d": 709.2381374999968,
      "v": 95
    },
    {
      "midi": 52,
      "hit": false,
      "t": 22499.96850000001,
      "d": 695.6512000000002,
      "v": 92
    },
    {
      "midi": 59,
      "hit": false,
      "t": 22499.96850000001,
      "d": 720.1076874999999,
      "v": 91
    },
    {
      "midi": 69,
      "hit": false,
      "t": 86086.836,
      "d": 971.4660312500055,
      "v": 1
    },
    {
      "midi": 71,
      "hit": false,
      "t": 87065.0955,
      "d": 971.4660312500055,
      "v": 1
    },
    {
      "midi": 69,
      "hit": false,
      "t": 88043.355,
      "d": 971.4660312500055,
      "v": 1
    },
    {
      "midi": 73,
      "hit": false,
      "t": 89021.6145,
      "d": 319.2930312499957,
      "v": 1
    },
    {
      "midi": 74,
      "hit": false,
      "t": 89347.70099999999,
      "d": 319.2930312499957,
      "v": 1
    },
    {
      "midi": 73,
      "hit": false,
      "t": 89673.78749999998,
      "d": 319.2930312499957,
      "v": 1
    },
    {
      "midi": 69,
      "hit": false,
      "t": 89999.87399999997,
      "d": 971.4660312500055,
      "v": 1
    },
    {
      "midi": 71,
      "hit": false,
      "t": 90978.13349999997,
      "d": 971.4660312500055,
      "v": 1
    },
    {
      "midi": 69,
      "hit": false,
      "t": 91956.39299999997,
      "d": 971.4660312500055,
      "v": 1
    },
    {
      "midi": 73,
      "hit": false,
      "t": 92934.65249999997,
      "d": 319.2930312499957,
      "v": 1
    },
    {
      "midi": 74,
      "hit": false,
      "t": 93260.73899999996,
      "d": 319.2930312499957,
      "v": 1
    },
    {
      "midi": 73,
      "hit": false,
      "t": 93586.82549999995,
      "d": 319.2930312499957,
      "v": 1
    },
    {
      "midi": 71,
      "hit": false,
      "t": 93912.91199999994,
      "d": 971.4660312500055,
      "v": 1
    },
    {
      "midi": 73,
      "hit": false,
      "t": 94891.17149999994,
      "d": 971.4660312500055,
      "v": 1
    },
    {
      "midi": 71,
      "hit": false,
      "t": 95869.43099999994,
      "d": 645.3795312500006,
      "v": 1
    },
    {
      "midi": 40,
      "hit": false,
      "t": 100108.5555,
      "d": 305.7060937500064,
      "v": 94
    },
    {
      "midi": 52,
      "hit": false,
      "t": 100108.5555,
      "d": 305.7060937500064,
      "v": 94
    },
    {
      "midi": 40,
      "hit": false,
      "t": 100434.642,
      "d": 305.7060937500064,
      "v": 108
    },
    {
      "midi": 52,
      "hit": false,
      "t": 100434.642,
      "d": 305.7060937500064,
      "v": 108
    },
    {
      "midi": 40,
      "hit": false,
      "t": 100760.72850000001,
      "d": 305.7060937500064,
      "v": 111
    },
    {
      "midi": 52,
      "hit": false,
      "t": 100760.72850000001,
      "d": 305.7060937500064,
      "v": 113
    },
    {
      "midi": 40,
      "hit": false,
      "t": 101086.81500000002,
      "d": 305.7060937500064,
      "v": 111
    },
    {
      "midi": 52,
      "hit": false,
      "t": 101086.81500000002,
      "d": 305.7060937500064,
      "v": 120
    },
    {
      "midi": 40,
      "hit": false,
      "t": 101412.90150000002,
      "d": 305.7060937500064,
      "v": 115
    },
    {
      "midi": 52,
      "hit": false,
      "t": 101412.90150000002,
      "d": 305.7060937500064,
      "v": 118
    },
    {
      "midi": 61,
      "hit": false,
      "t": 101738.98800000003,
      "d": 865.4879187500046,
      "v": 96
    },
    {
      "midi": 33,
      "hit": false,
      "t": 101738.98800000003,
      "d": 3817.929437499959,
      "v": 111
    },
    {
      "midi": 45,
      "hit": false,
      "t": 101738.98800000003,
      "d": 3817.929437499959,
      "v": 112
    },
    {
      "midi": 52,
      "hit": false,
      "t": 101741.70538750003,
      "d": 869.5639999999985,
      "v": 98
    },
    {
      "midi": 57,
      "hit": false,
      "t": 101741.70538750003,
      "d": 872.2813874999993,
      "v": 95
    },
    {
      "midi": 57,
      "hit": false,
      "t": 102685.99754375003,
      "d": 889.944406249997,
      "v": 79
    },
    {
      "midi": 52,
      "hit": false,
      "t": 102690.07362500002,
      "d": 876.3574687500077,
      "v": 82
    },
    {
      "midi": 59,
      "hit": false,
      "t": 102692.79101250002,
      "d": 883.1509375000023,
      "v": 102
    },
    {
      "midi": 61,
      "hit": false,
      "t": 103671.05051250002,
      "d": 940.2160749999894,
      "v": 87
    },
    {
      "midi": 52,
      "hit": false,
      "t": 103675.12659375001,
      "d": 801.6293124999938,
      "v": 89
    },
    {
      "midi": 57,
      "hit": false,
      "t": 103675.12659375001,
      "d": 811.1401687499892,
      "v": 90
    },
    {
      "midi": 59,
      "hit": false,
      "t": 104628.92960625,
      "d": 858.6944499999809,
      "v": 94
    },
    {
      "midi": 52,
      "hit": false,
      "t": 104635.723075,
      "d": 808.4227812499885,
      "v": 89
    },
    {
      "midi": 57,
      "hit": false,
      "t": 104639.79915625,
      "d": 817.9336374999984,
      "v": 94
    },
    {
      "midi": 57,
      "hit": false,
      "t": 105620.77604374998,
      "d": 896.7378750000062,
      "v": 86
    },
    {
      "midi": 54,
      "hit": false,
      "t": 105631.64559374998,
      "d": 889.944406249997,
      "v": 89
    },
    {
      "midi": 61,
      "hit": false,
      "t": 105634.36298124999,
      "d": 1014.9442312500032,
      "v": 89
    },
    {
      "midi": 30,
      "hit": false,
      "t": 105652.02599999998,
      "d": 3817.929437499988,
      "v": 113
    },
    {
      "midi": 42,
      "hit": false,
      "t": 105652.02599999998,
      "d": 3817.929437499988,
      "v": 113
    },
    {
      "midi": 59,
      "hit": false,
      "t": 106660.17676249999,
      "d": 947.0095437499986,
      "v": 88
    },
    {
      "midi": 54,
      "hit": false,
      "t": 106664.25284374999,
      "d": 754.0750312500022,
      "v": 92
    },
    {
      "midi": 57,
      "hit": false,
      "t": 106664.25284374999,
      "d": 770.3793562500068,
      "v": 93
    },
    {
      "midi": 61,
      "hit": false,
      "t": 107563.70810625,
      "d": 985.0529687499802,
      "v": 92
    },
    {
      "midi": 54,
      "hit": false,
      "t": 107567.78418749999,
      "d": 845.1075124999916,
      "v": 95
    },
    {
      "midi": 57,
      "hit": false,
      "t": 107570.50157499999,
      "d": 838.3140437499969,
      "v": 86
    },
    {
      "midi": 54,
      "hit": false,
      "t": 108559.63062499998,
      "d": 831.5205750000023,
      "v": 98
    },
    {
      "midi": 57,
      "hit": false,
      "t": 108562.34801249998,
      "d": 822.0097187500069,
      "v": 90
    },
    {
      "midi": 59,
      "hit": false,
      "t": 108562.34801249998,
      "d": 940.2160749999894,
      "v": 92
    },
    {
      "midi": 62,
      "hit": false,
      "t": 109565.06399999997,
      "d": 865.4879187500046,
      "v": 92
    },
    {
      "midi": 35,
      "hit": false,
      "t": 109565.06399999997,
      "d": 3817.929437499959,
      "v": 106
    },
    {
      "midi": 47,
      "hit": false,
      "t": 109565.06399999997,
      "d": 3817.929437499959,
      "v": 114
    },
    {
      "midi": 54,
      "hit": false,
      "t": 109567.78138749997,
      "d": 869.5639999999985,
      "v": 91
    },
    {
      "midi": 59,
      "hit": false,
      "t": 109567.78138749997,
      "d": 872.2813874999993,
      "v": 93
    },
    {
      "midi": 59,
      "hit": false,
      "t": 110512.07354374997,
      "d": 889.944406249997,
      "v": 81
    },
    {
      "midi": 54,
      "hit": false,
      "t": 110516.14962499996,
      "d": 876.3574687500077,
      "v": 85
    },
    {
      "midi": 64,
      "hit": false,
      "t": 110518.86701249996,
      "d": 883.1509375000023,
      "v": 99
    },
    {
      "midi": 62,
      "hit": false,
      "t": 111497.12651249996,
      "d": 940.2160749999894,
      "v": 92
    },
    {
      "midi": 54,
      "hit": false,
      "t": 111501.20259374996,
      "d": 801.6293124999938,
      "v": 86
    },
    {
      "midi": 59,
      "hit": false,
      "t": 111501.20259374996,
      "d": 811.1401687499892,
      "v": 88
    },
    {
      "midi": 64,
      "hit": false,
      "t": 112455.00560624995,
      "d": 858.6944499999809,
      "v": 92
    },
    {
      "midi": 54,
      "hit": false,
      "t": 112461.79907499994,
      "d": 808.4227812499885,
      "v": 91
    },
    {
      "midi": 59,
      "hit": false,
      "t": 112465.87515624994,
      "d": 817.9336374999984,
      "v": 91
    },
    {
      "midi": 59,
      "hit": false,
      "t": 113446.85204374992,
      "d": 1874.9973749999917,
      "v": 89
    },
    {
      "midi": 57,
      "hit": false,
      "t": 113457.72159374993,
      "d": 1868.2039062499825,
      "v": 96
    },
    {
      "midi": 64,
      "hit": false,
      "t": 113460.43898124993,
      "d": 1748.6388562499924,
      "v": 93
    },
    {
      "midi": 52,
      "hit": false,
      "t": 113478.10199999993,
      "d": 2187.4969374999782,
      "v": 110
    },
    {
      "midi": 40,
      "hit": false,
      "t": 113478.10199999993,
      "d": 2244.56207499998,
      "v": 114
    },
    {
      "midi": 64,
      "hit": false,
      "t": 115389.7841062499,
      "d": 1800.2692187500215,
      "v": 95
    },
    {
      "midi": 56,
      "hit": false,
      "t": 115393.8601874999,
      "d": 1823.3670125000208,
      "v": 94
    },
    {
      "midi": 59,
      "hit": false,
      "t": 115396.5775749999,
      "d": 1816.5735437500261,
      "v": 88
    },
    {
      "midi": 40,
      "hit": false,
      "t": 115760.7074999999,
      "d": 305.7060937500064,
      "v": 92
    },
    {
      "midi": 52,
      "hit": false,
      "t": 115760.7074999999,
      "d": 305.7060937500064,
      "v": 90
    },
    {
      "midi": 40,
      "hit": false,
      "t": 116086.7939999999,
      "d": 305.7060937500064,
      "v": 105
    },
    {
      "midi": 52,
      "hit": false,
      "t": 116086.7939999999,
      "d": 305.7060937500064,
      "v": 111
    },
    {
      "midi": 40,
      "hit": false,
      "t": 116412.88049999991,
      "d": 305.7060937500064,
      "v": 111
    },
    {
      "midi": 52,
      "hit": false,
      "t": 116412.88049999991,
      "d": 305.7060937500064,
      "v": 117
    },
    {
      "midi": 40,
      "hit": false,
      "t": 116738.96699999992,
      "d": 305.7060937500064,
      "v": 111
    },
    {
      "midi": 52,
      "hit": false,
      "t": 116738.96699999992,
      "d": 305.7060937500064,
      "v": 118
    },
    {
      "midi": 40,
      "hit": false,
      "t": 117065.05349999992,
      "d": 305.7060937500064,
      "v": 117
    },
    {
      "midi": 52,
      "hit": false,
      "t": 117065.05349999992,
      "d": 305.7060937500064,
      "v": 120
    },
    {
      "midi": 61,
      "hit": false,
      "t": 117391.13999999993,
      "d": 865.4879187500046,
      "v": 94
    },
    {
      "midi": 33,
      "hit": false,
      "t": 117391.13999999993,
      "d": 3817.929437499959,
      "v": 108
    },
    {
      "midi": 45,
      "hit": false,
      "t": 117391.13999999993,
      "d": 3817.929437499959,
      "v": 112
    },
    {
      "midi": 52,
      "hit": false,
      "t": 117393.85738749993,
      "d": 869.5639999999985,
      "v": 93
    },
    {
      "midi": 57,
      "hit": false,
      "t": 117393.85738749993,
      "d": 872.2813874999993,
      "v": 93
    },
    {
      "midi": 57,
      "hit": false,
      "t": 118338.14954374993,
      "d": 889.944406249997,
      "v": 86
    },
    {
      "midi": 52,
      "hit": false,
      "t": 118342.22562499992,
      "d": 876.3574687500077,
      "v": 84
    },
    {
      "midi": 59,
      "hit": false,
      "t": 118344.94301249992,
      "d": 883.1509375000023,
      "v": 95
    },
    {
      "midi": 61,
      "hit": false,
      "t": 119323.20251249992,
      "d": 940.2160749999894,
      "v": 89
    },
    {
      "midi": 52,
      "hit": false,
      "t": 119327.27859374991,
      "d": 801.6293124999938,
      "v": 88
    },
    {
      "midi": 57,
      "hit": false,
      "t": 119327.27859374991,
      "d": 811.1401687499892,
      "v": 91
    },
    {
      "midi": 59,
      "hit": false,
      "t": 120281.0816062499,
      "d": 858.6944499999809,
      "v": 96
    },
    {
      "midi": 52,
      "hit": false,
      "t": 120287.8750749999,
      "d": 808.4227812499885,
      "v": 90
    },
    {
      "midi": 57,
      "hit": false,
      "t": 120291.9511562499,
      "d": 817.9336374999984,
      "v": 88
    },
    {
      "midi": 57,
      "hit": false,
      "t": 121272.92804374988,
      "d": 896.7378750000062,
      "v": 86
    },
    {
      "midi": 54,
      "hit": false,
      "t": 121283.79759374988,
      "d": 889.944406249997,
      "v": 90
    },
    {
      "midi": 61,
      "hit": false,
      "t": 121286.51498124989,
      "d": 1014.9442312500032,
      "v": 92
    },
    {
      "midi": 30,
      "hit": false,
      "t": 121304.17799999988,
      "d": 3817.929437499988,
      "v": 111
    },
    {
      "midi": 42,
      "hit": false,
      "t": 121304.17799999988,
      "d": 3817.929437499988,
      "v": 114
    },
    {
      "midi": 59,
      "hit": false,
      "t": 122312.32876249989,
      "d": 947.0095437499986,
      "v": 90
    },
    {
      "midi": 54,
      "hit": false,
      "t": 122316.40484374989,
      "d": 754.0750312500022,
      "v": 93
    },
    {
      "midi": 57,
      "hit": false,
      "t": 122316.40484374989,
      "d": 770.3793562500068,
      "v": 99
    },
    {
      "midi": 61,
      "hit": false,
      "t": 123215.8601062499,
      "d": 985.0529687499802,
      "v": 93
    },
    {
      "midi": 54,
      "hit": false,
      "t": 123219.93618749989,
      "d": 845.1075124999916,
      "v": 89
    },
    {
      "midi": 57,
      "hit": false,
      "t": 123222.65357499989,
      "d": 838.3140437499969,
      "v": 87
    },
    {
      "midi": 54,
      "hit": false,
      "t": 124211.78262499988,
      "d": 831.5205750000023,
      "v": 96
    },
    {
      "midi": 57,
      "hit": false,
      "t": 124214.50001249988,
      "d": 822.0097187500069,
      "v": 88
    },
    {
      "midi": 59,
      "hit": false,
      "t": 124214.50001249988,
      "d": 940.2160749999894,
      "v": 96
    },
    {
      "midi": 62,
      "hit": false,
      "t": 125217.21599999987,
      "d": 865.4879187500046,
      "v": 93
    },
    {
      "midi": 35,
      "hit": false,
      "t": 125217.21599999987,
      "d": 3817.929437499959,
      "v": 113
    },
    {
      "midi": 47,
      "hit": false,
      "t": 125217.21599999987,
      "d": 3817.929437499959,
      "v": 109
    },
    {
      "midi": 54,
      "hit": false,
      "t": 125219.93338749987,
      "d": 869.5639999999985,
      "v": 95
    },
    {
      "midi": 59,
      "hit": false,
      "t": 125219.93338749987,
      "d": 872.2813874999993,
      "v": 98
    },
    {
      "midi": 59,
      "hit": false,
      "t": 126164.22554374987,
      "d": 889.944406249997,
      "v": 81
    },
    {
      "midi": 54,
      "hit": false,
      "t": 126168.30162499986,
      "d": 876.3574687500077,
      "v": 84
    },
    {
      "midi": 64,
      "hit": false,
      "t": 126171.01901249986,
      "d": 883.1509375000023,
      "v": 98
    },
    {
      "midi": 62,
      "hit": false,
      "t": 127149.27851249986,
      "d": 940.2160749999894,
      "v": 92
    },
    {
      "midi": 54,
      "hit": false,
      "t": 127153.35459374986,
      "d": 801.6293124999938,
      "v": 86
    },
    {
      "midi": 59,
      "hit": false,
      "t": 127153.35459374986,
      "d": 811.1401687499892,
      "v": 93
    },
    {
      "midi": 64,
      "hit": false,
      "t": 128107.15760624985,
      "d": 858.6944499999809,
      "v": 91
    },
    {
      "midi": 54,
      "hit": false,
      "t": 128113.95107499984,
      "d": 808.4227812499885,
      "v": 88
    },
    {
      "midi": 59,
      "hit": false,
      "t": 128118.02715624984,
      "d": 817.9336374999984,
      "v": 93
    },
    {
      "midi": 59,
      "hit": false,
      "t": 129099.00404374982,
      "d": 1874.9973749999917,
      "v": 87
    },
    {
      "midi": 57,
      "hit": false,
      "t": 129109.87359374983,
      "d": 1868.2039062499825,
      "v": 90
    },
    {
      "midi": 64,
      "hit": false,
      "t": 129112.59098124983,
      "d": 1748.6388562499924,
      "v": 92
    },
    {
      "midi": 52,
      "hit": false,
      "t": 129130.25399999983,
      "d": 2187.4969374999782,
      "v": 108
    },
    {
      "midi": 40,
      "hit": false,
      "t": 129130.25399999983,
      "d": 2244.56207499998,
      "v": 113
    },
    {
      "midi": 64,
      "hit": false,
      "t": 131041.9361062498,
      "d": 1800.269218750036,
      "v": 90
    },
    {
      "midi": 56,
      "hit": false,
      "t": 131046.0121874998,
      "d": 1823.36701250005,
      "v": 96
    },
    {
      "midi": 59,
      "hit": false,
      "t": 131048.7295749998,
      "d": 1816.5735437500407,
      "v": 85
    },
    {
      "midi": 40,
      "hit": false,
      "t": 131412.85949999982,
      "d": 305.70609374999185,
      "v": 93
    },
    {
      "midi": 52,
      "hit": false,
      "t": 131412.85949999982,
      "d": 305.70609374999185,
      "v": 89
    },
    {
      "midi": 40,
      "hit": false,
      "t": 131738.94599999982,
      "d": 305.70609374999185,
      "v": 108
    },
    {
      "midi": 52,
      "hit": false,
      "t": 131738.94599999982,
      "d": 305.70609374999185,
      "v": 110
    },
    {
      "midi": 40,
      "hit": false,
      "t": 132065.03249999983,
      "d": 305.70609374999185,
      "v": 107
    },
    {
      "midi": 52,
      "hit": false,
      "t": 132065.03249999983,
      "d": 305.70609374999185,
      "v": 117
    },
    {
      "midi": 40,
      "hit": false,
      "t": 132391.11899999983,
      "d": 305.70609374999185,
      "v": 116
    },
    {
      "midi": 52,
      "hit": false,
      "t": 132391.11899999983,
      "d": 305.70609374999185,
      "v": 119
    },
    {
      "midi": 40,
      "hit": false,
      "t": 132717.20549999984,
      "d": 305.70609375002095,
      "v": 111
    },
    {
      "midi": 52,
      "hit": false,
      "t": 132717.20549999984,
      "d": 305.70609375002095,
      "v": 116
    },
    {
      "midi": 61,
      "hit": false,
      "t": 133043.29199999987,
      "d": 865.4879187499755,
      "v": 93
    },
    {
      "midi": 33,
      "hit": false,
      "t": 133043.29199999987,
      "d": 3817.929437499988,
      "v": 112
    },
    {
      "midi": 45,
      "hit": false,
      "t": 133043.29199999987,
      "d": 3817.929437499988,
      "v": 112
    },
    {
      "midi": 52,
      "hit": false,
      "t": 133046.00938749986,
      "d": 869.5639999999839,
      "v": 91
    },
    {
      "midi": 57,
      "hit": false,
      "t": 133046.00938749986,
      "d": 872.2813874999702,
      "v": 97
    },
    {
      "midi": 57,
      "hit": false,
      "t": 133990.30154374984,
      "d": 889.944406249997,
      "v": 85
    },
    {
      "midi": 52,
      "hit": false,
      "t": 133994.37762499985,
      "d": 876.3574687499786,
      "v": 84
    },
    {
      "midi": 59,
      "hit": false,
      "t": 133997.09501249983,
      "d": 883.1509375000023,
      "v": 97
    },
    {
      "midi": 61,
      "hit": false,
      "t": 134975.35451249985,
      "d": 940.216075000033,
      "v": 90
    },
    {
      "midi": 52,
      "hit": false,
      "t": 134979.43059374986,
      "d": 801.6293125000084,
      "v": 89
    },
    {
      "midi": 57,
      "hit": false,
      "t": 134979.43059374986,
      "d": 811.1401687500183,
      "v": 90
    },
    {
      "midi": 59,
      "hit": false,
      "t": 135933.23360624988,
      "d": 858.6944499999809,
      "v": 93
    },
    {
      "midi": 52,
      "hit": false,
      "t": 135940.02707499987,
      "d": 808.422781250003,
      "v": 90
    },
    {
      "midi": 57,
      "hit": false,
      "t": 135944.10315624988,
      "d": 817.9336374999839,
      "v": 93
    },
    {
      "midi": 57,
      "hit": false,
      "t": 136925.08004374985,
      "d": 896.7378749999916,
      "v": 88
    },
    {
      "midi": 54,
      "hit": false,
      "t": 136935.94959374986,
      "d": 889.944406249997,
      "v": 92
    },
    {
      "midi": 61,
      "hit": false,
      "t": 136938.66698124984,
      "d": 1014.9442312500032,
      "v": 89
    },
    {
      "midi": 30,
      "hit": false,
      "t": 136956.32999999984,
      "d": 3817.929437499988,
      "v": 108
    },
    {
      "midi": 42,
      "hit": false,
      "t": 136956.32999999984,
      "d": 3817.929437499988,
      "v": 110
    },
    {
      "midi": 59,
      "hit": false,
      "t": 137964.48076249985,
      "d": 947.0095437499695,
      "v": 88
    },
    {
      "midi": 54,
      "hit": false,
      "t": 137968.55684374986,
      "d": 754.0750312499877,
      "v": 95
    },
    {
      "midi": 57,
      "hit": false,
      "t": 137968.55684374986,
      "d": 770.3793562499923,
      "v": 95
    },
    {
      "midi": 61,
      "hit": false,
      "t": 138868.01210624984,
      "d": 985.0529687500093,
      "v": 95
    },
    {
      "midi": 54,
      "hit": false,
      "t": 138872.08818749984,
      "d": 845.1075124999916,
      "v": 92
    },
    {
      "midi": 57,
      "hit": false,
      "t": 138874.80557499983,
      "d": 838.3140437499969,
      "v": 91
    },
    {
      "midi": 54,
      "hit": false,
      "t": 139863.93462499985,
      "d": 831.5205749999732,
      "v": 97
    },
    {
      "midi": 57,
      "hit": false,
      "t": 139866.65201249984,
      "d": 822.0097187499923,
      "v": 94
    },
    {
      "midi": 59,
      "hit": false,
      "t": 139866.65201249984,
      "d": 940.2160750000039,
      "v": 95
    },
    {
      "midi": 62,
      "hit": false,
      "t": 140869.36799999984,
      "d": 865.4879187499755,
      "v": 91
    },
    {
      "midi": 35,
      "hit": false,
      "t": 140869.36799999984,
      "d": 3817.929437499988,
      "v": 113
    },
    {
      "midi": 47,
      "hit": false,
      "t": 140869.36799999984,
      "d": 3817.929437499988,
      "v": 113
    },
    {
      "midi": 54,
      "hit": false,
      "t": 140872.08538749983,
      "d": 869.5639999999839,
      "v": 91
    },
    {
      "midi": 59,
      "hit": false,
      "t": 140872.08538749983,
      "d": 872.2813874999702,
      "v": 91
    },
    {
      "midi": 59,
      "hit": false,
      "t": 141816.3775437498,
      "d": 889.944406249997,
      "v": 86
    },
    {
      "midi": 54,
      "hit": false,
      "t": 141820.45362499982,
      "d": 876.3574687499786,
      "v": 81
    },
    {
      "midi": 64,
      "hit": false,
      "t": 141823.1710124998,
      "d": 883.1509375000023,
      "v": 98
    },
    {
      "midi": 62,
      "hit": false,
      "t": 142801.43051249982,
      "d": 940.216075000033,
      "v": 88
    },
    {
      "midi": 54,
      "hit": false,
      "t": 142805.50659374983,
      "d": 801.6293125000084,
      "v": 84
    },
    {
      "midi": 59,
      "hit": false,
      "t": 142805.50659374983,
      "d": 811.1401687500183,
      "v": 93
    },
    {
      "midi": 64,
      "hit": false,
      "t": 143759.30960624985,
      "d": 858.6944499999809,
      "v": 90
    },
    {
      "midi": 54,
      "hit": false,
      "t": 143766.10307499985,
      "d": 808.422781250003,
      "v": 91
    },
    {
      "midi": 59,
      "hit": false,
      "t": 143770.17915624985,
      "d": 817.9336374999839,
      "v": 87
    },
    {
      "midi": 59,
      "hit": false,
      "t": 144751.15604374983,
      "d": 1874.9973750000063,
      "v": 89
    },
    {
      "midi": 57,
      "hit": false,
      "t": 144762.02559374983,
      "d": 1868.2039062500116,
      "v": 94
    },
    {
      "midi": 64,
      "hit": false,
      "t": 144764.74298124982,
      "d": 1748.638856250007,
      "v": 88
    },
    {
      "midi": 52,
      "hit": false,
      "t": 144782.4059999998,
      "d": 2187.496937500022,
      "v": 114
    },
    {
      "midi": 40,
      "hit": false,
      "t": 144782.4059999998,
      "d": 2244.5620750000235,
      "v": 113
    },
    {
      "midi": 64,
      "hit": false,
      "t": 146694.08810624984,
      "d": 1800.269218750036,
      "v": 93
    },
    {
      "midi": 56,
      "hit": false,
      "t": 146698.16418749985,
      "d": 1823.3670125000353,
      "v": 90
    },
    {
      "midi": 59,
      "hit": false,
      "t": 146700.88157499983,
      "d": 1816.5735437500407,
      "v": 86
    },
    {
      "midi": 40,
      "hit": false,
      "t": 147065.01149999985,
      "d": 305.70609374999185,
      "v": 96
    },
    {
      "midi": 52,
      "hit": false,
      "t": 147065.01149999985,
      "d": 305.70609374999185,
      "v": 96
    },
    {
      "midi": 40,
      "hit": false,
      "t": 147391.09799999985,
      "d": 305.70609374999185,
      "v": 109
    },
    {
      "midi": 52,
      "hit": false,
      "t": 147391.09799999985,
      "d": 305.70609374999185,
      "v": 113
    },
    {
      "midi": 40,
      "hit": false,
      "t": 147717.18449999986,
      "d": 305.70609374999185,
      "v": 109
    },
    {
      "midi": 52,
      "hit": false,
      "t": 147717.18449999986,
      "d": 305.70609374999185,
      "v": 116
    },
    {
      "midi": 40,
      "hit": false,
      "t": 148043.27099999986,
      "d": 305.70609374999185,
      "v": 114
    },
    {
      "midi": 52,
      "hit": false,
      "t": 148043.27099999986,
      "d": 305.70609374999185,
      "v": 120
    },
    {
      "midi": 40,
      "hit": false,
      "t": 148369.35749999987,
      "d": 305.70609375002095,
      "v": 112
    },
    {
      "midi": 52,
      "hit": false,
      "t": 148369.35749999987,
      "d": 305.70609375002095,
      "v": 113
    },
    {
      "midi": 61,
      "hit": false,
      "t": 148695.4439999999,
      "d": 865.4879187499755,
      "v": 89
    },
    {
      "midi": 33,
      "hit": false,
      "t": 148695.4439999999,
      "d": 3817.929437499988,
      "v": 108
    },
    {
      "midi": 45,
      "hit": false,
      "t": 148695.4439999999,
      "d": 3817.929437499988,
      "v": 112
    },
    {
      "midi": 52,
      "hit": false,
      "t": 148698.1613874999,
      "d": 869.5639999999839,
      "v": 96
    },
    {
      "midi": 57,
      "hit": false,
      "t": 148698.1613874999,
      "d": 872.2813874999702,
      "v": 96
    },
    {
      "midi": 57,
      "hit": false,
      "t": 149642.45354374987,
      "d": 889.944406249997,
      "v": 79
    },
    {
      "midi": 52,
      "hit": false,
      "t": 149646.52962499988,
      "d": 876.3574687499786,
      "v": 88
    },
    {
      "midi": 59,
      "hit": false,
      "t": 149649.24701249987,
      "d": 883.1509375000023,
      "v": 100
    },
    {
      "midi": 61,
      "hit": false,
      "t": 150627.50651249988,
      "d": 940.216075000033,
      "v": 94
    },
    {
      "midi": 52,
      "hit": false,
      "t": 150631.5825937499,
      "d": 801.6293125000084,
      "v": 86
    },
    {
      "midi": 57,
      "hit": false,
      "t": 150631.5825937499,
      "d": 811.1401687500183,
      "v": 91
    },
    {
      "midi": 59,
      "hit": false,
      "t": 151585.3856062499,
      "d": 858.6944499999809,
      "v": 96
    },
    {
      "midi": 52,
      "hit": false,
      "t": 151592.1790749999,
      "d": 808.422781250003,
      "v": 87
    },
    {
      "midi": 57,
      "hit": false,
      "t": 151596.2551562499,
      "d": 817.9336374999839,
      "v": 89
    },
    {
      "midi": 57,
      "hit": false,
      "t": 152577.2320437499,
      "d": 896.7378749999916,
      "v": 92
    },
    {
      "midi": 54,
      "hit": false,
      "t": 152588.1015937499,
      "d": 889.944406249997,
      "v": 94
    },
    {
      "midi": 61,
      "hit": false,
      "t": 152590.81898124987,
      "d": 1014.9442312500032,
      "v": 88
    },
    {
      "midi": 30,
      "hit": false,
      "t": 152608.48199999987,
      "d": 3817.929437499988,
      "v": 111
    },
    {
      "midi": 42,
      "hit": false,
      "t": 152608.48199999987,
      "d": 3817.929437499988,
      "v": 113
    },
    {
      "midi": 59,
      "hit": false,
      "t": 153616.63276249988,
      "d": 947.0095437499695,
      "v": 90
    },
    {
      "midi": 54,
      "hit": false,
      "t": 153620.7088437499,
      "d": 754.0750312499877,
      "v": 95
    },
    {
      "midi": 57,
      "hit": false,
      "t": 153620.7088437499,
      "d": 770.3793562499923,
      "v": 93
    },
    {
      "midi": 61,
      "hit": false,
      "t": 154520.16410624987,
      "d": 985.0529687500093,
      "v": 96
    },
    {
      "midi": 54,
      "hit": false,
      "t": 154524.24018749988,
      "d": 845.1075124999916,
      "v": 94
    },
    {
      "midi": 57,
      "hit": false,
      "t": 154526.95757499986,
      "d": 838.3140437499969,
      "v": 85
    },
    {
      "midi": 54,
      "hit": false,
      "t": 155516.08662499988,
      "d": 831.5205749999732,
      "v": 91
    },
    {
      "midi": 57,
      "hit": false,
      "t": 155518.80401249987,
      "d": 822.0097187499923,
      "v": 89
    },
    {
      "midi": 59,
      "hit": false,
      "t": 155518.80401249987,
      "d": 940.2160750000039,
      "v": 98
    },
    {
      "midi": 62,
      "hit": false,
      "t": 156521.51999999987,
      "d": 865.4879187499755,
      "v": 95
    },
    {
      "midi": 35,
      "hit": false,
      "t": 156521.51999999987,
      "d": 3817.929437499988,
      "v": 113
    },
    {
      "midi": 47,
      "hit": false,
      "t": 156521.51999999987,
      "d": 3817.929437499988,
      "v": 108
    },
    {
      "midi": 54,
      "hit": false,
      "t": 156524.23738749986,
      "d": 869.5639999999839,
      "v": 94
    },
    {
      "midi": 59,
      "hit": false,
      "t": 156524.23738749986,
      "d": 872.2813874999702,
      "v": 91
    },
    {
      "midi": 59,
      "hit": false,
      "t": 157468.52954374984,
      "d": 889.944406249997,
      "v": 80
    },
    {
      "midi": 54,
      "hit": false,
      "t": 157472.60562499985,
      "d": 876.3574687499786,
      "v": 81
    },
    {
      "midi": 64,
      "hit": false,
      "t": 157475.32301249984,
      "d": 883.1509375000023,
      "v": 95
    },
    {
      "midi": 62,
      "hit": false,
      "t": 158453.58251249985,
      "d": 940.216075000033,
      "v": 93
    },
    {
      "midi": 54,
      "hit": false,
      "t": 158457.65859374986,
      "d": 801.6293125000084,
      "v": 83
    },
    {
      "midi": 59,
      "hit": false,
      "t": 158457.65859374986,
      "d": 811.1401687500183,
      "v": 88
    },
    {
      "midi": 64,
      "hit": false,
      "t": 159411.46160624988,
      "d": 858.6944499999809,
      "v": 95
    },
    {
      "midi": 54,
      "hit": false,
      "t": 159418.25507499988,
      "d": 808.422781250003,
      "v": 94
    },
    {
      "midi": 59,
      "hit": false,
      "t": 159422.3311562499,
      "d": 817.9336374999839,
      "v": 91
    },
    {
      "midi": 59,
      "hit": false,
      "t": 160403.30804374986,
      "d": 1874.9973750000063,
      "v": 90
    },
    {
      "midi": 57,
      "hit": false,
      "t": 160414.17759374986,
      "d": 1868.2039062500116,
      "v": 93
    },
    {
      "midi": 64,
      "hit": false,
      "t": 160416.89498124985,
      "d": 1748.638856250007,
      "v": 94
    },
    {
      "midi": 52,
      "hit": false,
      "t": 160434.55799999984,
      "d": 2187.496937500022,
      "v": 114
    },
    {
      "midi": 40,
      "hit": false,
      "t": 160434.55799999984,
      "d": 2244.5620750000235,
      "v": 110
    },
    {
      "midi": 64,
      "hit": false,
      "t": 162346.24010624987,
      "d": 1800.269218750036,
      "v": 92
    },
    {
      "midi": 56,
      "hit": false,
      "t": 162350.31618749988,
      "d": 1823.3670125000353,
      "v": 94
    },
    {
      "midi": 59,
      "hit": false,
      "t": 162353.03357499986,
      "d": 1816.5735437500407,
      "v": 85
    },
    {
      "midi": 40,
      "hit": false,
      "t": 162717.16349999988,
      "d": 305.70609374999185,
      "v": 96
    },
    {
      "midi": 52,
      "hit": false,
      "t": 162717.16349999988,
      "d": 305.70609374999185,
      "v": 91
    },
    {
      "midi": 40,
      "hit": false,
      "t": 163043.24999999988,
      "d": 305.70609374999185,
      "v": 107
    },
    {
      "midi": 52,
      "hit": false,
      "t": 163043.24999999988,
      "d": 305.70609374999185,
      "v": 109
    },
    {
      "midi": 40,
      "hit": false,
      "t": 163369.3364999999,
      "d": 305.70609374999185,
      "v": 110
    },
    {
      "midi": 52,
      "hit": false,
      "t": 163369.3364999999,
      "d": 305.70609374999185,
      "v": 112
    },
    {
      "midi": 40,
      "hit": false,
      "t": 163695.4229999999,
      "d": 305.70609374999185,
      "v": 115
    },
    {
      "midi": 52,
      "hit": false,
      "t": 163695.4229999999,
      "d": 305.70609374999185,
      "v": 114
    },
    {
      "midi": 40,
      "hit": false,
      "t": 164021.5094999999,
      "d": 305.70609375002095,
      "v": 116
    },
    {
      "midi": 52,
      "hit": false,
      "t": 164021.5094999999,
      "d": 305.70609375002095,
      "v": 120
    },
    {
      "midi": 61,
      "hit": false,
      "t": 164347.59599999993,
      "d": 865.4879187499755,
      "v": 95
    },
    {
      "midi": 33,
      "hit": false,
      "t": 164347.59599999993,
      "d": 3817.929437499988,
      "v": 109
    },
    {
      "midi": 45,
      "hit": false,
      "t": 164347.59599999993,
      "d": 3817.929437499988,
      "v": 115
    },
    {
      "midi": 52,
      "hit": false,
      "t": 164350.31338749992,
      "d": 869.5639999999839,
      "v": 96
    },
    {
      "midi": 57,
      "hit": false,
      "t": 164350.31338749992,
      "d": 872.2813874999702,
      "v": 92
    },
    {
      "midi": 57,
      "hit": false,
      "t": 165294.6055437499,
      "d": 889.944406249997,
      "v": 85
    },
    {
      "midi": 52,
      "hit": false,
      "t": 165298.6816249999,
      "d": 876.3574687499786,
      "v": 84
    },
    {
      "midi": 59,
      "hit": false,
      "t": 165301.3990124999,
      "d": 883.1509375000023,
      "v": 97
    },
    {
      "midi": 61,
      "hit": false,
      "t": 166279.6585124999,
      "d": 940.216075000033,
      "v": 88
    },
    {
      "midi": 52,
      "hit": false,
      "t": 166283.73459374992,
      "d": 801.6293125000084,
      "v": 91
    },
    {
      "midi": 57,
      "hit": false,
      "t": 166283.73459374992,
      "d": 811.1401687500183,
      "v": 92
    },
    {
      "midi": 59,
      "hit": false,
      "t": 167237.53760624994,
      "d": 858.6944499999809,
      "v": 95
    },
    {
      "midi": 52,
      "hit": false,
      "t": 167244.33107499994,
      "d": 808.422781250003,
      "v": 90
    },
    {
      "midi": 57,
      "hit": false,
      "t": 167248.40715624994,
      "d": 817.9336374999839,
      "v": 92
    },
    {
      "midi": 57,
      "hit": false,
      "t": 168229.38404374992,
      "d": 896.7378749999916,
      "v": 86
    },
    {
      "midi": 54,
      "hit": false,
      "t": 168240.25359374992,
      "d": 889.944406249997,
      "v": 89
    },
    {
      "midi": 61,
      "hit": false,
      "t": 168242.9709812499,
      "d": 1014.9442312500032,
      "v": 88
    },
    {
      "midi": 30,
      "hit": false,
      "t": 168260.6339999999,
      "d": 3817.929437499988,
      "v": 109
    },
    {
      "midi": 42,
      "hit": false,
      "t": 168260.6339999999,
      "d": 3817.929437499988,
      "v": 115
    },
    {
      "midi": 59,
      "hit": false,
      "t": 169268.7847624999,
      "d": 947.0095437499695,
      "v": 88
    },
    {
      "midi": 54,
      "hit": false,
      "t": 169272.86084374992,
      "d": 754.0750312499877,
      "v": 94
    },
    {
      "midi": 57,
      "hit": false,
      "t": 169272.86084374992,
      "d": 770.3793562499923,
      "v": 94
    },
    {
      "midi": 61,
      "hit": false,
      "t": 170172.3161062499,
      "d": 985.0529687500093,
      "v": 93
    },
    {
      "midi": 54,
      "hit": false,
      "t": 170176.3921874999,
      "d": 845.1075124999916,
      "v": 97
    },
    {
      "midi": 57,
      "hit": false,
      "t": 170179.1095749999,
      "d": 838.3140437499969,
      "v": 88
    },
    {
      "midi": 54,
      "hit": false,
      "t": 171168.2386249999,
      "d": 831.5205749999732,
      "v": 92
    },
    {
      "midi": 57,
      "hit": false,
      "t": 171170.9560124999,
      "d": 822.0097187499923,
      "v": 88
    },
    {
      "midi": 59,
      "hit": false,
      "t": 171170.9560124999,
      "d": 940.2160750000039,
      "v": 96
    },
    {
      "midi": 62,
      "hit": false,
      "t": 172173.6719999999,
      "d": 865.4879187499755,
      "v": 91
    },
    {
      "midi": 35,
      "hit": false,
      "t": 172173.6719999999,
      "d": 3817.929437499988,
      "v": 113
    },
    {
      "midi": 47,
      "hit": false,
      "t": 172173.6719999999,
      "d": 3817.929437499988,
      "v": 108
    },
    {
      "midi": 54,
      "hit": false,
      "t": 172176.3893874999,
      "d": 869.5639999999839,
      "v": 97
    },
    {
      "midi": 59,
      "hit": false,
      "t": 172176.3893874999,
      "d": 872.2813874999702,
      "v": 94
    },
    {
      "midi": 59,
      "hit": false,
      "t": 173120.68154374987,
      "d": 889.944406249997,
      "v": 85
    },
    {
      "midi": 54,
      "hit": false,
      "t": 173124.75762499988,
      "d": 876.3574687499786,
      "v": 82
    },
    {
      "midi": 64,
      "hit": false,
      "t": 173127.47501249987,
      "d": 883.1509375000023,
      "v": 102
    },
    {
      "midi": 62,
      "hit": false,
      "t": 174105.73451249988,
      "d": 940.216075000033,
      "v": 91
    },
    {
      "midi": 54,
      "hit": false,
      "t": 174109.8105937499,
      "d": 801.6293125000084,
      "v": 84
    },
    {
      "midi": 59,
      "hit": false,
      "t": 174109.8105937499,
      "d": 811.1401687500183,
      "v": 89
    },
    {
      "midi": 64,
      "hit": false,
      "t": 175063.6136062499,
      "d": 858.6944499999809,
      "v": 92
    },
    {
      "midi": 54,
      "hit": false,
      "t": 175070.4070749999,
      "d": 808.422781250003,
      "v": 94
    },
    {
      "midi": 59,
      "hit": false,
      "t": 175074.48315624992,
      "d": 817.9336374999839,
      "v": 93
    },
    {
      "midi": 59,
      "hit": false,
      "t": 176055.4600437499,
      "d": 1874.9973750000063,
      "v": 90
    },
    {
      "midi": 57,
      "hit": false,
      "t": 176066.3295937499,
      "d": 1868.2039062500116,
      "v": 94
    },
    {
      "midi": 64,
      "hit": false,
      "t": 176069.04698124988,
      "d": 1748.638856250007,
      "v": 89
    },
    {
      "midi": 52,
      "hit": false,
      "t": 176086.70999999988,
      "d": 2187.496937500022,
      "v": 108
    },
    {
      "midi": 40,
      "hit": false,
      "t": 176086.70999999988,
      "d": 2244.5620750000235,
      "v": 112
    },
    {
      "midi": 64,
      "hit": false,
      "t": 177998.3921062499,
      "d": 1800.269218750036,
      "v": 92
    },
    {
      "midi": 56,
      "hit": false,
      "t": 178002.4681874999,
      "d": 1823.3670125000353,
      "v": 95
    },
    {
      "midi": 59,
      "hit": false,
      "t": 178005.1855749999,
      "d": 1816.5735437500407,
      "v": 92
    },
    {
      "midi": 40,
      "hit": false,
      "t": 178369.3154999999,
      "d": 305.70609374999185,
      "v": 92
    },
    {
      "midi": 52,
      "hit": false,
      "t": 178369.3154999999,
      "d": 305.70609374999185,
      "v": 95
    },
    {
      "midi": 40,
      "hit": false,
      "t": 178695.4019999999,
      "d": 305.70609374999185,
      "v": 109
    },
    {
      "midi": 52,
      "hit": false,
      "t": 178695.4019999999,
      "d": 305.70609374999185,
      "v": 113
    },
    {
      "midi": 40,
      "hit": false,
      "t": 179021.48849999992,
      "d": 305.70609374999185,
      "v": 111
    },
    {
      "midi": 52,
      "hit": false,
      "t": 179021.48849999992,
      "d": 305.70609374999185,
      "v": 115
    },
    {
      "midi": 40,
      "hit": false,
      "t": 179347.57499999992,
      "d": 305.70609374999185,
      "v": 115
    },
    {
      "midi": 52,
      "hit": false,
      "t": 179347.57499999992,
      "d": 305.70609374999185,
      "v": 120
    },
    {
      "midi": 40,
      "hit": false,
      "t": 179673.66149999993,
      "d": 305.70609375002095,
      "v": 113
    },
    {
      "midi": 52,
      "hit": false,
      "t": 179673.66149999993,
      "d": 305.70609375002095,
      "v": 120
    },
    {
      "midi": 61,
      "hit": false,
      "t": 179999.74799999996,
      "d": 865.4879187499755,
      "v": 92
    },
    {
      "midi": 33,
      "hit": false,
      "t": 179999.74799999996,
      "d": 3817.929437499988,
      "v": 109
    },
    {
      "midi": 45,
      "hit": false,
      "t": 179999.74799999996,
      "d": 3817.929437499988,
      "v": 115
    },
    {
      "midi": 52,
      "hit": false,
      "t": 180002.46538749995,
      "d": 869.5639999999839,
      "v": 96
    },
    {
      "midi": 57,
      "hit": false,
      "t": 180002.46538749995,
      "d": 872.2813874999702,
      "v": 96
    },
    {
      "midi": 57,
      "hit": false,
      "t": 180946.75754374993,
      "d": 889.944406249997,
      "v": 82
    },
    {
      "midi": 52,
      "hit": false,
      "t": 180950.83362499994,
      "d": 876.3574687499786,
      "v": 88
    },
    {
      "midi": 59,
      "hit": false,
      "t": 180953.55101249993,
      "d": 883.1509375000023,
      "v": 102
    },
    {
      "midi": 61,
      "hit": false,
      "t": 181931.81051249994,
      "d": 940.216075000033,
      "v": 90
    },
    {
      "midi": 52,
      "hit": false,
      "t": 181935.88659374995,
      "d": 801.6293125000084,
      "v": 86
    },
    {
      "midi": 57,
      "hit": false,
      "t": 181935.88659374995,
      "d": 811.1401687500183,
      "v": 90
    },
    {
      "midi": 59,
      "hit": false,
      "t": 182889.68960624997,
      "d": 858.6944499999809,
      "v": 92
    },
    {
      "midi": 52,
      "hit": false,
      "t": 182896.48307499997,
      "d": 808.422781250003,
      "v": 87
    },
    {
      "midi": 57,
      "hit": false,
      "t": 182900.55915624998,
      "d": 817.9336374999839,
      "v": 90
    },
    {
      "midi": 57,
      "hit": false,
      "t": 183881.53604374995,
      "d": 896.7378749999916,
      "v": 85
    },
    {
      "midi": 54,
      "hit": false,
      "t": 183892.40559374995,
      "d": 889.944406249997,
      "v": 92
    },
    {
      "midi": 61,
      "hit": false,
      "t": 183895.12298124994,
      "d": 1014.9442312500032,
      "v": 90
    },
    {
      "midi": 30,
      "hit": false,
      "t": 183912.78599999993,
      "d": 3817.929437499988,
      "v": 110
    },
    {
      "midi": 42,
      "hit": false,
      "t": 183912.78599999993,
      "d": 3817.929437499988,
      "v": 110
    },
    {
      "midi": 59,
      "hit": false,
      "t": 184920.93676249994,
      "d": 947.0095437499695,
      "v": 92
    },
    {
      "midi": 54,
      "hit": false,
      "t": 184925.01284374995,
      "d": 754.0750312499877,
      "v": 97
    },
    {
      "midi": 57,
      "hit": false,
      "t": 184925.01284374995,
      "d": 770.3793562499923,
      "v": 95
    },
    {
      "midi": 61,
      "hit": false,
      "t": 185824.46810624993,
      "d": 985.0529687500093,
      "v": 92
    },
    {
      "midi": 54,
      "hit": false,
      "t": 185828.54418749994,
      "d": 845.1075124999916,
      "v": 91
    },
    {
      "midi": 57,
      "hit": false,
      "t": 185831.26157499992,
      "d": 838.3140437499969,
      "v": 86
    },
    {
      "midi": 54,
      "hit": false,
      "t": 186820.39062499994,
      "d": 831.5205749999732,
      "v": 91
    },
    {
      "midi": 57,
      "hit": false,
      "t": 186823.10801249993,
      "d": 822.0097187499923,
      "v": 94
    },
    {
      "midi": 59,
      "hit": false,
      "t": 186823.10801249993,
      "d": 940.2160750000039,
      "v": 91
    },
    {
      "midi": 62,
      "hit": false,
      "t": 187825.82399999994,
      "d": 865.4879187499755,
      "v": 95
    },
    {
      "midi": 35,
      "hit": false,
      "t": 187825.82399999994,
      "d": 3817.929437499988,
      "v": 111
    },
    {
      "midi": 47,
      "hit": false,
      "t": 187825.82399999994,
      "d": 3817.929437499988,
      "v": 111
    },
    {
      "midi": 54,
      "hit": false,
      "t": 187828.54138749992,
      "d": 869.5639999999839,
      "v": 92
    },
    {
      "midi": 59,
      "hit": false,
      "t": 187828.54138749992,
      "d": 872.2813874999702,
      "v": 93
    },
    {
      "midi": 59,
      "hit": false,
      "t": 188772.8335437499,
      "d": 889.944406249997,
      "v": 84
    },
    {
      "midi": 54,
      "hit": false,
      "t": 188776.9096249999,
      "d": 876.3574687499786,
      "v": 87
    },
    {
      "midi": 64,
      "hit": false,
      "t": 188779.6270124999,
      "d": 883.1509375000023,
      "v": 97
    },
    {
      "midi": 62,
      "hit": false,
      "t": 189757.8865124999,
      "d": 940.216075000033,
      "v": 90
    },
    {
      "midi": 54,
      "hit": false,
      "t": 189761.96259374992,
      "d": 801.6293125000084,
      "v": 83
    },
    {
      "midi": 59,
      "hit": false,
      "t": 189761.96259374992,
      "d": 811.1401687500183,
      "v": 87
    },
    {
      "midi": 64,
      "hit": false,
      "t": 190715.76560624994,
      "d": 858.6944499999809,
      "v": 95
    },
    {
      "midi": 54,
      "hit": false,
      "t": 190722.55907499994,
      "d": 808.422781250003,
      "v": 92
    },
    {
      "midi": 59,
      "hit": false,
      "t": 190726.63515624995,
      "d": 817.9336374999839,
      "v": 92
    },
    {
      "midi": 59,
      "hit": false,
      "t": 191707.61204374992,
      "d": 1874.9973750000063,
      "v": 92
    },
    {
      "midi": 57,
      "hit": false,
      "t": 191718.48159374992,
      "d": 1868.2039062500116,
      "v": 91
    },
    {
      "midi": 64,
      "hit": false,
      "t": 191721.1989812499,
      "d": 1748.638856250007,
      "v": 92
    },
    {
      "midi": 52,
      "hit": false,
      "t": 191738.8619999999,
      "d": 2187.496937500022,
      "v": 113
    },
    {
      "midi": 40,
      "hit": false,
      "t": 191738.8619999999,
      "d": 2244.5620750000235,
      "v": 115
    },
    {
      "midi": 64,
      "hit": false,
      "t": 193650.54410624993,
      "d": 1800.269218750036,
      "v": 89
    },
    {
      "midi": 56,
      "hit": false,
      "t": 193654.62018749994,
      "d": 1823.3670125000353,
      "v": 89
    },
    {
      "midi": 59,
      "hit": false,
      "t": 193657.33757499992,
      "d": 1816.5735437500407,
      "v": 92
    },
    {
      "midi": 40,
      "hit": false,
      "t": 194021.46749999994,
      "d": 305.70609374999185,
      "v": 96
    },
    {
      "midi": 52,
      "hit": false,
      "t": 194021.46749999994,
      "d": 305.70609374999185,
      "v": 95
    },
    {
      "midi": 40,
      "hit": false,
      "t": 194347.55399999995,
      "d": 305.70609374999185,
      "v": 107
    },
    {
      "midi": 52,
      "hit": false,
      "t": 194347.55399999995,
      "d": 305.70609374999185,
      "v": 107
    },
    {
      "midi": 40,
      "hit": false,
      "t": 194673.64049999995,
      "d": 305.70609374999185,
      "v": 112
    },
    {
      "midi": 52,
      "hit": false,
      "t": 194673.64049999995,
      "d": 305.70609374999185,
      "v": 115
    },
    {
      "midi": 40,
      "hit": false,
      "t": 194999.72699999996,
      "d": 305.70609374999185,
      "v": 109
    },
    {
      "midi": 52,
      "hit": false,
      "t": 194999.72699999996,
      "d": 305.70609374999185,
      "v": 114
    },
    {
      "midi": 40,
      "hit": false,
      "t": 195325.81349999996,
      "d": 305.70609375002095,
      "v": 115
    },
    {
      "midi": 52,
      "hit": false,
      "t": 195325.81349999996,
      "d": 305.70609375002095,
      "v": 115
    },
    {
      "midi": 61,
      "hit": false,
      "t": 195651.9,
      "d": 865.4879187499755,
      "v": 94
    },
    {
      "midi": 33,
      "hit": false,
      "t": 195651.9,
      "d": 3817.929437499988,
      "v": 113
    },
    {
      "midi": 45,
      "hit": false,
      "t": 195651.9,
      "d": 3817.929437499988,
      "v": 115
    },
    {
      "midi": 52,
      "hit": false,
      "t": 195654.61738749998,
      "d": 869.5639999999839,
      "v": 92
    },
    {
      "midi": 57,
      "hit": false,
      "t": 195654.61738749998,
      "d": 872.2813874999702,
      "v": 95
    },
    {
      "midi": 57,
      "hit": false,
      "t": 196598.90954374996,
      "d": 889.944406249997,
      "v": 80
    },
    {
      "midi": 52,
      "hit": false,
      "t": 196602.98562499997,
      "d": 876.3574687499786,
      "v": 86
    },
    {
      "midi": 59,
      "hit": false,
      "t": 196605.70301249996,
      "d": 883.1509375000023,
      "v": 102
    },
    {
      "midi": 61,
      "hit": false,
      "t": 197583.96251249997,
      "d": 940.216075000033,
      "v": 90
    },
    {
      "midi": 52,
      "hit": false,
      "t": 197588.03859374998,
      "d": 801.6293125000084,
      "v": 86
    },
    {
      "midi": 57,
      "hit": false,
      "t": 197588.03859374998,
      "d": 811.1401687500183,
      "v": 91
    },
    {
      "midi": 59,
      "hit": false,
      "t": 198541.84160625,
      "d": 858.6944499999809,
      "v": 93
    },
    {
      "midi": 52,
      "hit": false,
      "t": 198548.635075,
      "d": 808.422781250003,
      "v": 89
    },
    {
      "midi": 57,
      "hit": false,
      "t": 198552.71115625,
      "d": 817.9336374999839,
      "v": 92
    },
    {
      "midi": 57,
      "hit": false,
      "t": 199533.68804374998,
      "d": 896.7378749999916,
      "v": 92
    },
    {
      "midi": 54,
      "hit": false,
      "t": 199544.55759374998,
      "d": 889.944406249997,
      "v": 89
    },
    {
      "midi": 61,
      "hit": false,
      "t": 199547.27498124997,
      "d": 1014.9442312500032,
      "v": 91
    },
    {
      "midi": 30,
      "hit": false,
      "t": 199564.93799999997,
      "d": 3817.929437499988,
      "v": 111
    },
    {
      "midi": 42,
      "hit": false,
      "t": 199564.93799999997,
      "d": 3817.929437499988,
      "v": 114
    },
    {
      "midi": 59,
      "hit": false,
      "t": 200573.08876249997,
      "d": 947.0095437499695,
      "v": 91
    },
    {
      "midi": 54,
      "hit": false,
      "t": 200577.16484374998,
      "d": 754.0750312499877,
      "v": 91
    },
    {
      "midi": 57,
      "hit": false,
      "t": 200577.16484374998,
      "d": 770.3793562499923,
      "v": 94
    },
    {
      "midi": 61,
      "hit": false,
      "t": 201476.62010624996,
      "d": 985.0529687500093,
      "v": 96
    },
    {
      "midi": 54,
      "hit": false,
      "t": 201480.69618749997,
      "d": 845.1075124999916,
      "v": 94
    },
    {
      "midi": 57,
      "hit": false,
      "t": 201483.41357499996,
      "d": 838.3140437499969,
      "v": 85
    },
    {
      "midi": 54,
      "hit": false,
      "t": 202472.54262499997,
      "d": 831.5205749999732,
      "v": 94
    },
    {
      "midi": 57,
      "hit": false,
      "t": 202475.26001249996,
      "d": 822.0097187499923,
      "v": 90
    },
    {
      "midi": 59,
      "hit": false,
      "t": 202475.26001249996,
      "d": 940.2160750000039,
      "v": 97
    },
    {
      "midi": 62,
      "hit": false,
      "t": 203477.97599999997,
      "d": 865.4879187499755,
      "v": 94
    },
    {
      "midi": 35,
      "hit": false,
      "t": 203477.97599999997,
      "d": 3817.929437499988,
      "v": 109
    },
    {
      "midi": 47,
      "hit": false,
      "t": 203477.97599999997,
      "d": 3817.929437499988,
      "v": 109
    },
    {
      "midi": 54,
      "hit": false,
      "t": 203480.69338749995,
      "d": 869.5639999999839,
      "v": 95
    },
    {
      "midi": 59,
      "hit": false,
      "t": 203480.69338749995,
      "d": 872.2813874999702,
      "v": 95
    },
    {
      "midi": 59,
      "hit": false,
      "t": 204424.98554374994,
      "d": 889.944406249997,
      "v": 81
    },
    {
      "midi": 54,
      "hit": false,
      "t": 204429.06162499994,
      "d": 876.3574687499786,
      "v": 81
    },
    {
      "midi": 64,
      "hit": false,
      "t": 204431.77901249993,
      "d": 883.1509375000023,
      "v": 96
    },
    {
      "midi": 62,
      "hit": false,
      "t": 205410.03851249994,
      "d": 940.216075000033,
      "v": 88
    },
    {
      "midi": 54,
      "hit": false,
      "t": 205414.11459374995,
      "d": 801.6293125000084,
      "v": 88
    },
    {
      "midi": 59,
      "hit": false,
      "t": 205414.11459374995,
      "d": 811.1401687500183,
      "v": 94
    },
    {
      "midi": 64,
      "hit": false,
      "t": 206367.91760624998,
      "d": 858.6944499999809,
      "v": 91
    },
    {
      "midi": 54,
      "hit": false,
      "t": 206374.71107499997,
      "d": 808.422781250003,
      "v": 94
    },
    {
      "midi": 59,
      "hit": false,
      "t": 206378.78715624998,
      "d": 817.9336374999839,
      "v": 93
    },
    {
      "midi": 59,
      "hit": false,
      "t": 207359.76404374995,
      "d": 1874.9973750000063,
      "v": 88
    },
    {
      "midi": 57,
      "hit": false,
      "t": 207370.63359374995,
      "d": 1868.2039062500116,
      "v": 91
    },
    {
      "midi": 64,
      "hit": false,
      "t": 207373.35098124994,
      "d": 1748.638856250007,
      "v": 89
    },
    {
      "midi": 52,
      "hit": false,
      "t": 207391.01399999994,
      "d": 2187.496937500022,
      "v": 109
    },
    {
      "midi": 40,
      "hit": false,
      "t": 207391.01399999994,
      "d": 2244.5620750000235,
      "v": 113
    },
    {
      "midi": 64,
      "hit": false,
      "t": 209302.69610624996,
      "d": 1800.269218750036,
      "v": 94
    },
    {
      "midi": 56,
      "hit": false,
      "t": 209306.77218749997,
      "d": 1823.3670125000353,
      "v": 95
    },
    {
      "midi": 59,
      "hit": false,
      "t": 209309.48957499996,
      "d": 1816.5735437500407,
      "v": 90
    },
    {
      "midi": 40,
      "hit": false,
      "t": 209673.61949999997,
      "d": 305.70609374999185,
      "v": 91
    },
    {
      "midi": 52,
      "hit": false,
      "t": 209673.61949999997,
      "d": 305.70609374999185,
      "v": 96
    },
    {
      "midi": 40,
      "hit": false,
      "t": 209999.70599999998,
      "d": 305.70609374999185,
      "v": 107
    },
    {
      "midi": 52,
      "hit": false,
      "t": 209999.70599999998,
      "d": 305.70609374999185,
      "v": 113
    },
    {
      "midi": 40,
      "hit": false,
      "t": 210325.79249999998,
      "d": 305.70609374999185,
      "v": 109
    },
    {
      "midi": 52,
      "hit": false,
      "t": 210325.79249999998,
      "d": 305.70609374999185,
      "v": 115
    },
    {
      "midi": 40,
      "hit": false,
      "t": 210651.879,
      "d": 305.70609374999185,
      "v": 110
    },
    {
      "midi": 52,
      "hit": false,
      "t": 210651.879,
      "d": 305.70609374999185,
      "v": 118
    },
    {
      "midi": 40,
      "hit": false,
      "t": 210977.9655,
      "d": 305.70609375002095,
      "v": 114
    },
    {
      "midi": 52,
      "hit": false,
      "t": 210977.9655,
      "d": 305.70609375002095,
      "v": 120
    },
    {
      "midi": 61,
      "hit": false,
      "t": 211304.05200000003,
      "d": 865.4879187499755,
      "v": 90
    },
    {
      "midi": 33,
      "hit": false,
      "t": 211304.05200000003,
      "d": 3817.929437499988,
      "v": 106
    },
    {
      "midi": 45,
      "hit": false,
      "t": 211304.05200000003,
      "d": 3817.929437499988,
      "v": 108
    },
    {
      "midi": 52,
      "hit": false,
      "t": 211306.7693875,
      "d": 869.5639999999839,
      "v": 96
    },
    {
      "midi": 57,
      "hit": false,
      "t": 211306.7693875,
      "d": 872.2813874999702,
      "v": 95
    },
    {
      "midi": 57,
      "hit": false,
      "t": 212251.06154375,
      "d": 889.944406249997,
      "v": 83
    },
    {
      "midi": 52,
      "hit": false,
      "t": 212255.137625,
      "d": 876.3574687499786,
      "v": 86
    },
    {
      "midi": 59,
      "hit": false,
      "t": 212257.8550125,
      "d": 883.1509375000023,
      "v": 102
    },
    {
      "midi": 61,
      "hit": false,
      "t": 213236.1145125,
      "d": 940.216075000033,
      "v": 89
    },
    {
      "midi": 52,
      "hit": false,
      "t": 213240.19059375,
      "d": 801.6293125000084,
      "v": 83
    },
    {
      "midi": 57,
      "hit": false,
      "t": 213240.19059375,
      "d": 811.1401687500183,
      "v": 90
    },
    {
      "midi": 59,
      "hit": false,
      "t": 214193.99360625003,
      "d": 858.6944499999809,
      "v": 93
    },
    {
      "midi": 52,
      "hit": false,
      "t": 214200.78707500003,
      "d": 808.422781250003,
      "v": 92
    },
    {
      "midi": 57,
      "hit": false,
      "t": 214204.86315625004,
      "d": 817.9336374999839,
      "v": 87
    },
    {
      "midi": 57,
      "hit": false,
      "t": 215185.84004375,
      "d": 896.7378749999916,
      "v": 90
    },
    {
      "midi": 54,
      "hit": false,
      "t": 215196.70959375,
      "d": 889.944406249997,
      "v": 95
    },
    {
      "midi": 61,
      "hit": false,
      "t": 215199.42698125,
      "d": 1014.9442312500032,
      "v": 92
    },
    {
      "midi": 30,
      "hit": false,
      "t": 215217.09,
      "d": 3817.929437499988,
      "v": 111
    },
    {
      "midi": 42,
      "hit": false,
      "t": 215217.09,
      "d": 3817.929437499988,
      "v": 114
    },
    {
      "midi": 59,
      "hit": false,
      "t": 216225.2407625,
      "d": 947.0095437499695,
      "v": 88
    },
    {
      "midi": 54,
      "hit": false,
      "t": 216229.31684375,
      "d": 754.0750312499877,
      "v": 95
    },
    {
      "midi": 57,
      "hit": false,
      "t": 216229.31684375,
      "d": 770.3793562499923,
      "v": 97
    },
    {
      "midi": 61,
      "hit": false,
      "t": 217128.77210625,
      "d": 985.0529687500093,
      "v": 90
    },
    {
      "midi": 54,
      "hit": false,
      "t": 217132.8481875,
      "d": 845.1075124999916,
      "v": 90
    },
    {
      "midi": 57,
      "hit": false,
      "t": 217135.565575,
      "d": 838.3140437499969,
      "v": 85
    },
    {
      "midi": 54,
      "hit": false,
      "t": 218124.694625,
      "d": 831.5205749999732,
      "v": 92
    },
    {
      "midi": 57,
      "hit": false,
      "t": 218127.4120125,
      "d": 822.0097187499923,
      "v": 88
    },
    {
      "midi": 59,
      "hit": false,
      "t": 218127.4120125,
      "d": 940.2160750000039,
      "v": 93
    },
    {
      "midi": 62,
      "hit": false,
      "t": 219130.128,
      "d": 865.4879187499755,
      "v": 96
    },
    {
      "midi": 35,
      "hit": false,
      "t": 219130.128,
      "d": 3817.929437499988,
      "v": 111
    },
    {
      "midi": 47,
      "hit": false,
      "t": 219130.128,
      "d": 3817.929437499988,
      "v": 114
    },
    {
      "midi": 54,
      "hit": false,
      "t": 219132.84538749998,
      "d": 869.5639999999839,
      "v": 98
    },
    {
      "midi": 59,
      "hit": false,
      "t": 219132.84538749998,
      "d": 872.2813874999702,
      "v": 91
    },
    {
      "midi": 59,
      "hit": false,
      "t": 220077.13754374997,
      "d": 889.944406249997,
      "v": 85
    },
    {
      "midi": 54,
      "hit": false,
      "t": 220081.21362499997,
      "d": 876.3574687499786,
      "v": 81
    },
    {
      "midi": 64,
      "hit": false,
      "t": 220083.93101249996,
      "d": 883.1509375000023,
      "v": 99
    },
    {
      "midi": 62,
      "hit": false,
      "t": 221062.19051249998,
      "d": 940.216075000033,
      "v": 93
    },
    {
      "midi": 54,
      "hit": false,
      "t": 221066.26659374998,
      "d": 801.6293125000084,
      "v": 88
    },
    {
      "midi": 59,
      "hit": false,
      "t": 221066.26659374998,
      "d": 811.1401687500183,
      "v": 92
    },
    {
      "midi": 64,
      "hit": false,
      "t": 222020.06960625,
      "d": 858.6944499999809,
      "v": 94
    },
    {
      "midi": 54,
      "hit": false,
      "t": 222026.863075,
      "d": 808.422781250003,
      "v": 92
    },
    {
      "midi": 59,
      "hit": false,
      "t": 222030.93915625,
      "d": 817.9336374999839,
      "v": 88
    },
    {
      "midi": 59,
      "hit": false,
      "t": 223011.91604374998,
      "d": 1874.9973750000063,
      "v": 88
    },
    {
      "midi": 57,
      "hit": false,
      "t": 223022.78559374998,
      "d": 1868.2039062500116,
      "v": 95
    },
    {
      "midi": 64,
      "hit": false,
      "t": 223025.50298124997,
      "d": 1748.638856250007,
      "v": 94
    },
    {
      "midi": 52,
      "hit": false,
      "t": 223043.16599999997,
      "d": 2187.496937500022,
      "v": 110
    },
    {
      "midi": 40,
      "hit": false,
      "t": 223043.16599999997,
      "d": 2244.5620750000235,
      "v": 108
    },
    {
      "midi": 64,
      "hit": false,
      "t": 224954.84810625,
      "d": 1800.269218750036,
      "v": 90
    },
    {
      "midi": 56,
      "hit": false,
      "t": 224958.9241875,
      "d": 1823.3670125000353,
      "v": 92
    },
    {
      "midi": 59,
      "hit": false,
      "t": 224961.641575,
      "d": 1816.5735437500407,
      "v": 86
    },
    {
      "midi": 40,
      "hit": false,
      "t": 225325.7715,
      "d": 305.70609374999185,
      "v": 96
    },
    {
      "midi": 52,
      "hit": false,
      "t": 225325.7715,
      "d": 305.70609374999185,
      "v": 94
    },
    {
      "midi": 40,
      "hit": false,
      "t": 225651.858,
      "d": 305.70609374999185,
      "v": 109
    },
    {
      "midi": 52,
      "hit": false,
      "t": 225651.858,
      "d": 305.70609374999185,
      "v": 114
    },
    {
      "midi": 40,
      "hit": false,
      "t": 225977.9445,
      "d": 305.70609374999185,
      "v": 109
    },
    {
      "midi": 52,
      "hit": false,
      "t": 225977.9445,
      "d": 305.70609374999185,
      "v": 113
    },
    {
      "midi": 40,
      "hit": false,
      "t": 226304.03100000002,
      "d": 305.70609374999185,
      "v": 109
    },
    {
      "midi": 52,
      "hit": false,
      "t": 226304.03100000002,
      "d": 305.70609374999185,
      "v": 115
    },
    {
      "midi": 40,
      "hit": false,
      "t": 226630.11750000002,
      "d": 305.70609375002095,
      "v": 113
    },
    {
      "midi": 52,
      "hit": false,
      "t": 226630.11750000002,
      "d": 305.70609375002095,
      "v": 120
    },
    {
      "midi": 57,
      "hit": false,
      "t": 226956.20399999994,
      "d": 971.4660312499909,
      "v": 1
    },
    {
      "midi": 61,
      "hit": false,
      "t": 226956.20400000006,
      "d": 865.4879187499755,
      "v": 94
    },
    {
      "midi": 33,
      "hit": false,
      "t": 226956.20400000006,
      "d": 3817.929437499988,
      "v": 110
    },
    {
      "midi": 45,
      "hit": false,
      "t": 226956.20400000006,
      "d": 3817.929437499988,
      "v": 114
    },
    {
      "midi": 52,
      "hit": false,
      "t": 226958.92138750004,
      "d": 869.5639999999839,
      "v": 96
    },
    {
      "midi": 57,
      "hit": false,
      "t": 226958.92138750004,
      "d": 872.2813874999702,
      "v": 95
    },
    {
      "midi": 57,
      "hit": false,
      "t": 227903.21354375003,
      "d": 889.944406249997,
      "v": 82
    },
    {
      "midi": 52,
      "hit": false,
      "t": 227907.28962500003,
      "d": 876.3574687499786,
      "v": 83
    },
    {
      "midi": 59,
      "hit": false,
      "t": 227910.00701250002,
      "d": 883.1509375000023,
      "v": 98
    },
    {
      "midi": 59,
      "hit": false,
      "t": 227934.46349999993,
      "d": 971.4660312499909,
      "v": 1
    },
    {
      "midi": 61,
      "hit": false,
      "t": 228888.26651250003,
      "d": 940.216075000033,
      "v": 91
    },
    {
      "midi": 52,
      "hit": false,
      "t": 228892.34259375004,
      "d": 801.6293125000084,
      "v": 87
    },
    {
      "midi": 57,
      "hit": false,
      "t": 228892.34259375004,
      "d": 811.1401687500183,
      "v": 87
    },
    {
      "midi": 57,
      "hit": false,
      "t": 228912.7229999999,
      "d": 971.4660312499909,
      "v": 1
    },
    {
      "midi": 59,
      "hit": false,
      "t": 229846.14560625007,
      "d": 858.6944499999809,
      "v": 90
    },
    {
      "midi": 52,
      "hit": false,
      "t": 229852.93907500006,
      "d": 808.422781250003,
      "v": 90
    },
    {
      "midi": 57,
      "hit": false,
      "t": 229857.01515625007,
      "d": 817.9336374999839,
      "v": 89
    },
    {
      "midi": 61,
      "hit": false,
      "t": 229890.9824999999,
      "d": 319.29303125001024,
      "v": 1
    },
    {
      "midi": 62,
      "hit": false,
      "t": 230217.0689999999,
      "d": 319.29303125001024,
      "v": 1
    },
    {
      "midi": 61,
      "hit": false,
      "t": 230543.1554999999,
      "d": 319.29303125001024,
      "v": 1
    },
    {
      "midi": 57,
      "hit": false,
      "t": 230837.99204375004,
      "d": 896.7378749999916,
      "v": 90
    },
    {
      "midi": 54,
      "hit": false,
      "t": 230848.86159375004,
      "d": 889.944406249997,
      "v": 95
    },
    {
      "midi": 61,
      "hit": false,
      "t": 230851.57898125003,
      "d": 1014.9442312500032,
      "v": 90
    },
    {
      "midi": 57,
      "hit": false,
      "t": 230869.2419999999,
      "d": 971.4660312499909,
      "v": 1
    },
    {
      "midi": 30,
      "hit": false,
      "t": 230869.24200000003,
      "d": 3817.929437499988,
      "v": 108
    },
    {
      "midi": 42,
      "hit": false,
      "t": 230869.24200000003,
      "d": 3817.929437499988,
      "v": 110
    },
    {
      "midi": 59,
      "hit": false,
      "t": 231847.5014999999,
      "d": 971.4660312499909,
      "v": 1
    },
    {
      "midi": 59,
      "hit": false,
      "t": 231877.39276250004,
      "d": 947.0095437499695,
      "v": 90
    },
    {
      "midi": 54,
      "hit": false,
      "t": 231881.46884375004,
      "d": 754.0750312499877,
      "v": 95
    },
    {
      "midi": 57,
      "hit": false,
      "t": 231881.46884375004,
      "d": 770.3793562499923,
      "v": 96
    },
    {
      "midi": 61,
      "hit": false,
      "t": 232780.92410625002,
      "d": 985.0529687500093,
      "v": 91
    },
    {
      "midi": 54,
      "hit": false,
      "t": 232785.00018750003,
      "d": 845.1075124999916,
      "v": 96
    },
    {
      "midi": 57,
      "hit": false,
      "t": 232787.71757500002,
      "d": 838.3140437499969,
      "v": 92
    },
    {
      "midi": 57,
      "hit": false,
      "t": 232825.76099999988,
      "d": 971.4660312499909,
      "v": 1
    },
    {
      "midi": 54,
      "hit": false,
      "t": 233776.84662500003,
      "d": 831.5205749999732,
      "v": 97
    },
    {
      "midi": 57,
      "hit": false,
      "t": 233779.56401250002,
      "d": 822.0097187499923,
      "v": 94
    },
    {
      "midi": 59,
      "hit": false,
      "t": 233779.56401250002,
      "d": 940.2160750000039,
      "v": 93
    },
    {
      "midi": 61,
      "hit": false,
      "t": 233804.02049999987,
      "d": 319.29303125001024,
      "v": 1
    },
    {
      "midi": 62,
      "hit": false,
      "t": 234130.10699999987,
      "d": 319.29303125001024,
      "v": 1
    },
    {
      "midi": 61,
      "hit": false,
      "t": 234456.19349999988,
      "d": 319.29303125001024,
      "v": 1
    },
    {
      "midi": 59,
      "hit": false,
      "t": 234782.27999999988,
      "d": 971.4660312499909,
      "v": 1
    },
    {
      "midi": 62,
      "hit": false,
      "t": 234782.28000000003,
      "d": 865.4879187499755,
      "v": 95
    },
    {
      "midi": 35,
      "hit": false,
      "t": 234782.28000000003,
      "d": 3817.929437499988,
      "v": 110
    },
    {
      "midi": 47,
      "hit": false,
      "t": 234782.28000000003,
      "d": 3817.929437499988,
      "v": 110
    },
    {
      "midi": 54,
      "hit": false,
      "t": 234784.9973875,
      "d": 869.5639999999839,
      "v": 94
    },
    {
      "midi": 59,
      "hit": false,
      "t": 234784.9973875,
      "d": 872.2813874999702,
      "v": 97
    },
    {
      "midi": 59,
      "hit": false,
      "t": 235729.28954375,
      "d": 889.944406249997,
      "v": 84
    },
    {
      "midi": 54,
      "hit": false,
      "t": 235733.365625,
      "d": 876.3574687499786,
      "v": 88
    },
    {
      "midi": 64,
      "hit": false,
      "t": 235736.0830125,
      "d": 883.1509375000023,
      "v": 98
    },
    {
      "midi": 61,
      "hit": false,
      "t": 235760.53949999987,
      "d": 971.4660312499909,
      "v": 1
    },
    {
      "midi": 62,
      "hit": false,
      "t": 236714.3425125,
      "d": 940.216075000033,
      "v": 89
    },
    {
      "midi": 54,
      "hit": false,
      "t": 236718.41859375002,
      "d": 801.6293125000084,
      "v": 90
    },
    {
      "midi": 59,
      "hit": false,
      "t": 236718.41859375002,
      "d": 811.1401687500183,
      "v": 94
    },
    {
      "midi": 59,
      "hit": false,
      "t": 236738.79899999985,
      "d": 645.379531249986,
      "v": 1
    },
    {
      "midi": 64,
      "hit": false,
      "t": 237672.22160625004,
      "d": 858.6944499999809,
      "v": 89
    },
    {
      "midi": 54,
      "hit": false,
      "t": 237679.01507500003,
      "d": 808.422781250003,
      "v": 92
    },
    {
      "midi": 59,
      "hit": false,
      "t": 237683.09115625004,
      "d": 817.9336374999839,
      "v": 90
    },
    {
      "midi": 59,
      "hit": false,
      "t": 238664.06804375,
      "d": 1874.9973750000063,
      "v": 91
    },
    {
      "midi": 57,
      "hit": false,
      "t": 238674.93759375002,
      "d": 1868.2039062500116,
      "v": 94
    },
    {
      "midi": 64,
      "hit": false,
      "t": 238677.65498125,
      "d": 1748.638856250007,
      "v": 91
    },
    {
      "midi": 52,
      "hit": false,
      "t": 238695.318,
      "d": 2187.496937500022,
      "v": 111
    },
    {
      "midi": 40,
      "hit": false,
      "t": 238695.318,
      "d": 2244.5620750000235,
      "v": 110
    },
    {
      "midi": 64,
      "hit": false,
      "t": 240607.00010625002,
      "d": 1800.269218750036,
      "v": 94
    },
    {
      "midi": 56,
      "hit": false,
      "t": 240611.07618750003,
      "d": 1823.3670125000353,
      "v": 92
    },
    {
      "midi": 59,
      "hit": false,
      "t": 240613.79357500002,
      "d": 1816.5735437500407,
      "v": 91
    },
    {
      "midi": 40,
      "hit": false,
      "t": 240977.92350000003,
      "d": 305.70609374999185,
      "v": 94
    },
    {
      "midi": 52,
      "hit": false,
      "t": 240977.92350000003,
      "d": 305.70609374999185,
      "v": 94
    },
    {
      "midi": 40,
      "hit": false,
      "t": 241304.01000000004,
      "d": 305.70609374999185,
      "v": 105
    },
    {
      "midi": 52,
      "hit": false,
      "t": 241304.01000000004,
      "d": 305.70609374999185,
      "v": 107
    },
    {
      "midi": 40,
      "hit": false,
      "t": 241630.09650000004,
      "d": 305.70609374999185,
      "v": 107
    },
    {
      "midi": 52,
      "hit": false,
      "t": 241630.09650000004,
      "d": 305.70609374999185,
      "v": 111
    },
    {
      "midi": 40,
      "hit": false,
      "t": 241956.18300000005,
      "d": 305.70609374999185,
      "v": 114
    },
    {
      "midi": 52,
      "hit": false,
      "t": 241956.18300000005,
      "d": 305.70609374999185,
      "v": 117
    },
    {
      "midi": 40,
      "hit": false,
      "t": 242282.26950000005,
      "d": 305.70609375002095,
      "v": 118
    },
    {
      "midi": 52,
      "hit": false,
      "t": 242282.26950000005,
      "d": 305.70609375002095,
      "v": 114
    },
    {
      "midi": 61,
      "hit": false,
      "t": 242608.3560000001,
      "d": 865.4879187499755,
      "v": 94
    },
    {
      "midi": 33,
      "hit": false,
      "t": 242608.3560000001,
      "d": 971.4660312499618,
      "v": 109
    },
    {
      "midi": 45,
      "hit": false,
      "t": 242608.3560000001,
      "d": 971.4660312499618,
      "v": 109
    },
    {
      "midi": 52,
      "hit": false,
      "t": 242611.07338750007,
      "d": 869.5639999999839,
      "v": 97
    },
    {
      "midi": 57,
      "hit": false,
      "t": 242611.07338750007,
      "d": 872.2813874999702,
      "v": 94
    }
  ]
}