{
  "jsonPath": "Classical/Classical Piano/Jean-Yves Thibaudet/6-golliwoggs-cakewalk.json",
  "path": "Classical\\Classical Piano\\Jean-Yves Thibaudet\\6 Golliwoggs Cakewalk.mid",
  "name": "6 Golliwoggs Cakewalk",
  "difficulty": "Advanced",
  "bpm": 112.84028398138135,
  "notes": [
    {
      "midi": 70,
      "hit": false,
      "t": 0,
      "d": 163.41625000000002,
      "v": 68
    },
    {
      "midi": 82,
      "hit": false,
      "t": 0,
      "d": 163.41625000000002,
      "v": 80
    },
    {
      "midi": 68,
      "hit": false,
      "t": 163.41625000000002,
      "d": 163.41625000000002,
      "v": 62
    },
    {
      "midi": 80,
      "hit": false,
      "t": 163.41625000000002,
      "d": 163.41625000000002,
      "v": 74
    },
    {
      "midi": 70,
      "hit": false,
      "t": 490.2487500000001,
      "d": 163.41625,
      "v": 62
    },
    {
      "midi": 82,
      "hit": false,
      "t": 490.2487500000001,
      "d": 163.41625,
      "v": 74
    },
    {
      "midi": 65,
      "hit": false,
      "t": 653.6650000000001,
      "d": 163.41625,
      "v": 64
    },
    {
      "midi": 77,
      "hit": false,
      "t": 653.6650000000001,
      "d": 163.41625,
      "v": 76
    },
    {
      "midi": 70,
      "hit": false,
      "t": 980.4975000000001,
      "d": 122.56218750000005,
      "v": 68
    },
    {
      "midi": 82,
      "hit": false,
      "t": 980.4975000000001,
      "d": 122.56218750000005,
      "v": 80
    },
    {
      "midi": 68,
      "hit": false,
      "t": 1307.3300000000002,
      "d": 163.41625,
      "v": 68
    },
    {
      "midi": 80,
      "hit": false,
      "t": 1307.3300000000002,
      "d": 163.41625,
      "v": 80
    },
    {
      "midi": 65,
      "hit": false,
      "t": 1470.7462500000001,
      "d": 163.41625,
      "v": 68
    },
    {
      "midi": 77,
      "hit": false,
      "t": 1470.7462500000001,
      "d": 163.41625,
      "v": 80
    },
    {
      "midi": 63,
      "hit": false,
      "t": 1797.5787500000001,
      "d": 163.41625,
      "v": 62
    },
    {
      "midi": 75,
      "hit": false,
      "t": 1797.5787500000001,
      "d": 163.41625,
      "v": 74
    },
    {
      "midi": 59,
      "hit": false,
      "t": 1960.9950000000001,
      "d": 653.6650000000002,
      "v": 68
    },
    {
      "midi": 71,
      "hit": false,
      "t": 1960.9950000000001,
      "d": 653.6650000000002,
      "v": 80
    },
    {
      "midi": 56,
      "hit": false,
      "t": 2778.0762500000005,
      "d": 163.41625000000022,
      "v": 65
    },
    {
      "midi": 68,
      "hit": false,
      "t": 2778.0762500000005,
      "d": 163.41625000000022,
      "v": 80
    },
    {
      "midi": 53,
      "hit": false,
      "t": 2941.4925000000007,
      "d": 163.41624999999976,
      "v": 65
    },
    {
      "midi": 65,
      "hit": false,
      "t": 2941.4925000000007,
      "d": 163.41624999999976,
      "v": 79
    },
    {
      "midi": 51,
      "hit": false,
      "t": 3104.9087500000005,
      "d": 163.41625000000022,
      "v": 67
    },
    {
      "midi": 63,
      "hit": false,
      "t": 3104.9087500000005,
      "d": 163.41625000000022,
      "v": 84
    },
    {
      "midi": 47,
      "hit": false,
      "t": 3268.3250000000007,
      "d": 653.665,
      "v": 71
    },
    {
      "midi": 59,
      "hit": false,
      "t": 3268.3250000000007,
      "d": 653.665,
      "v": 86
    },
    {
      "midi": 44,
      "hit": false,
      "t": 4085.406250000001,
      "d": 163.41625000000022,
      "v": 65
    },
    {
      "midi": 56,
      "hit": false,
      "t": 4085.406250000001,
      "d": 163.41625000000022,
      "v": 80
    },
    {
      "midi": 41,
      "hit": false,
      "t": 4248.822500000001,
      "d": 163.4162499999993,
      "v": 65
    },
    {
      "midi": 53,
      "hit": false,
      "t": 4248.822500000001,
      "d": 163.4162499999993,
      "v": 79
    },
    {
      "midi": 39,
      "hit": false,
      "t": 4412.23875,
      "d": 163.41625000000022,
      "v": 67
    },
    {
      "midi": 51,
      "hit": false,
      "t": 4412.23875,
      "d": 163.41625000000022,
      "v": 84
    },
    {
      "midi": 35,
      "hit": false,
      "t": 4575.655000000001,
      "d": 326.83250000000044,
      "v": 71
    },
    {
      "midi": 47,
      "hit": false,
      "t": 4575.655000000001,
      "d": 326.83250000000044,
      "v": 86
    },
    {
      "midi": 34,
      "hit": false,
      "t": 4902.487500000001,
      "d": 326.83250000000044,
      "v": 66
    },
    {
      "midi": 46,
      "hit": false,
      "t": 4902.487500000001,
      "d": 326.83250000000044,
      "v": 78
    },
    {
      "midi": 50,
      "hit": false,
      "t": 4902.487500000001,
      "d": 326.83250000000044,
      "v": 82
    },
    {
      "midi": 55,
      "hit": false,
      "t": 4902.487500000001,
      "d": 326.83250000000044,
      "v": 97
    },
    {
      "midi": 39,
      "hit": false,
      "t": 6536.6500000000015,
      "d": 122.56218749999971,
      "v": 40
    },
    {
      "midi": 46,
      "hit": false,
      "t": 6536.6500000000015,
      "d": 122.56218749999971,
      "v": 40
    },
    {
      "midi": 51,
      "hit": false,
      "t": 6863.482500000001,
      "d": 122.56218749999971,
      "v": 40
    },
    {
      "midi": 53,
      "hit": false,
      "t": 6863.482500000001,
      "d": 122.56218749999971,
      "v": 33
    },
    {
      "midi": 55,
      "hit": false,
      "t": 6863.482500000001,
      "d": 122.56218749999971,
      "v": 33
    },
    {
      "midi": 58,
      "hit": false,
      "t": 6863.482500000001,
      "d": 122.56218749999971,
      "v": 40
    },
    {
      "midi": 39,
      "hit": false,
      "t": 7190.3150000000005,
      "d": 122.56218749999971,
      "v": 40
    },
    {
      "midi": 46,
      "hit": false,
      "t": 7190.3150000000005,
      "d": 122.56218749999971,
      "v": 40
    },
    {
      "midi": 51,
      "hit": false,
      "t": 7517.1475,
      "d": 81.7081249999992,
      "v": 50
    },
    {
      "midi": 58,
      "hit": false,
      "t": 7517.1475,
      "d": 81.7081249999992,
      "v": 57
    },
    {
      "midi": 53,
      "hit": false,
      "t": 7517.1475,
      "d": 122.5621874999988,
      "v": 35
    },
    {
      "midi": 55,
      "hit": false,
      "t": 7517.1475,
      "d": 122.5621874999988,
      "v": 35
    },
    {
      "midi": 51,
      "hit": false,
      "t": 7680.563749999998,
      "d": 81.70812500000011,
      "v": 56
    },
    {
      "midi": 58,
      "hit": false,
      "t": 7680.563749999998,
      "d": 81.70812500000011,
      "v": 64
    },
    {
      "midi": 39,
      "hit": false,
      "t": 7843.979999999999,
      "d": 122.56218749999971,
      "v": 40
    },
    {
      "midi": 46,
      "hit": false,
      "t": 7843.979999999999,
      "d": 122.56218749999971,
      "v": 40
    },
    {
      "midi": 51,
      "hit": false,
      "t": 8170.812499999998,
      "d": 122.56218749999971,
      "v": 40
    },
    {
      "midi": 53,
      "hit": false,
      "t": 8170.812499999998,
      "d": 122.56218749999971,
      "v": 33
    },
    {
      "midi": 55,
      "hit": false,
      "t": 8170.812499999998,
      "d": 122.56218749999971,
      "v": 33
    },
    {
      "midi": 58,
      "hit": false,
      "t": 8170.812499999998,
      "d": 122.56218749999971,
      "v": 40
    },
    {
      "midi": 39,
      "hit": false,
      "t": 8497.644999999999,
      "d": 122.56218749999971,
      "v": 40
    },
    {
      "midi": 46,
      "hit": false,
      "t": 8497.644999999999,
      "d": 122.56218749999971,
      "v": 40
    },
    {
      "midi": 51,
      "hit": false,
      "t": 8824.477499999999,
      "d": 122.56218749999971,
      "v": 40
    },
    {
      "midi": 53,
      "hit": false,
      "t": 8824.477499999999,
      "d": 122.56218749999971,
      "v": 33
    },
    {
      "midi": 55,
      "hit": false,
      "t": 8824.477499999999,
      "d": 122.56218749999971,
      "v": 33
    },
    {
      "midi": 58,
      "hit": false,
      "t": 8824.477499999999,
      "d": 122.56218749999971,
      "v": 40
    },
    {
      "midi": 39,
      "hit": false,
      "t": 9151.31,
      "d": 122.56218749999971,
      "v": 40
    },
    {
      "midi": 46,
      "hit": false,
      "t": 9151.31,
      "d": 122.56218749999971,
      "v": 40
    },
    {
      "midi": 51,
      "hit": false,
      "t": 9478.1425,
      "d": 81.7081249999992,
      "v": 50
    },
    {
      "midi": 58,
      "hit": false,
      "t": 9478.1425,
      "d": 81.7081249999992,
      "v": 57
    },
    {
      "midi": 53,
      "hit": false,
      "t": 9478.1425,
      "d": 122.56218749999971,
      "v": 35
    },
    {
      "midi": 55,
      "hit": false,
      "t": 9478.1425,
      "d": 122.56218749999971,
      "v": 35
    },
    {
      "midi": 51,
      "hit": false,
      "t": 9641.55875,
      "d": 81.7081249999992,
      "v": 56
    },
    {
      "midi": 58,
      "hit": false,
      "t": 9641.55875,
      "d": 81.7081249999992,
      "v": 64
    },
    {
      "midi": 39,
      "hit": false,
      "t": 9804.974999999999,
      "d": 122.56218749999971,
      "v": 40
    },
    {
      "midi": 46,
      "hit": false,
      "t": 9804.974999999999,
      "d": 122.56218749999971,
      "v": 40
    },
    {
      "midi": 51,
      "hit": false,
      "t": 10131.807499999999,
      "d": 122.56218749999971,
      "v": 40
    },
    {
      "midi": 53,
      "hit": false,
      "t": 10131.807499999999,
      "d": 122.56218749999971,
      "v": 33
    },
    {
      "midi": 55,
      "hit": false,
      "t": 10131.807499999999,
      "d": 122.56218749999971,
      "v": 33
    },
    {
      "midi": 58,
      "hit": false,
      "t": 10131.807499999999,
      "d": 122.56218749999971,
      "v": 40
    },
    {
      "midi": 39,
      "hit": false,
      "t": 10458.64,
      "d": 122.56218749999971,
      "v": 34
    },
    {
      "midi": 46,
      "hit": false,
      "t": 10458.64,
      "d": 122.56218749999971,
      "v": 34
    },
    {
      "midi": 51,
      "hit": false,
      "t": 10785.4725,
      "d": 122.56218749999971,
      "v": 32
    },
    {
      "midi": 53,
      "hit": false,
      "t": 10785.4725,
      "d": 122.56218749999971,
      "v": 27
    },
    {
      "midi": 55,
      "hit": false,
      "t": 10785.4725,
      "d": 122.56218749999971,
      "v": 27
    },
    {
      "midi": 58,
      "hit": false,
      "t": 10785.4725,
      "d": 122.56218749999971,
      "v": 32
    },
    {
      "midi": 39,
      "hit": false,
      "t": 11112.305,
      "d": 122.56218749999971,
      "v": 31
    },
    {
      "midi": 46,
      "hit": false,
      "t": 11112.305,
      "d": 122.56218749999971,
      "v": 31
    },
    {
      "midi": 51,
      "hit": false,
      "t": 11439.1375,
      "d": 122.56218749999971,
      "v": 29
    },
    {
      "midi": 53,
      "hit": false,
      "t": 11439.1375,
      "d": 122.56218749999971,
      "v": 24
    },
    {
      "midi": 55,
      "hit": false,
      "t": 11439.1375,
      "d": 122.56218749999971,
      "v": 24
    },
    {
      "midi": 58,
      "hit": false,
      "t": 11439.1375,
      "d": 122.56218749999971,
      "v": 29
    },
    {
      "midi": 39,
      "hit": false,
      "t": 11765.970000000001,
      "d": 122.56218749999971,
      "v": 40
    },
    {
      "midi": 46,
      "hit": false,
      "t": 11765.970000000001,
      "d": 122.56218749999971,
      "v": 40
    },
    {
      "midi": 70,
      "hit": false,
      "t": 11765.970000000001,
      "d": 163.41625000000022,
      "v": 80
    },
    {
      "midi": 68,
      "hit": false,
      "t": 11929.386250000001,
      "d": 163.41625000000022,
      "v": 74
    },
    {
      "midi": 53,
      "hit": false,
      "t": 12092.802500000002,
      "d": 122.56218749999971,
      "v": 33
    },
    {
      "midi": 56,
      "hit": false,
      "t": 12092.802500000002,
      "d": 122.56218749999971,
      "v": 33
    },
    {
      "midi": 59,
      "hit": false,
      "t": 12092.802500000002,
      "d": 163.41625000000022,
      "v": 45
    },
    {
      "midi": 63,
      "hit": false,
      "t": 12092.802500000002,
      "d": 163.41625000000022,
      "v": 45
    },
    {
      "midi": 70,
      "hit": false,
      "t": 12256.218750000002,
      "d": 163.41625000000022,
      "v": 74
    },
    {
      "midi": 39,
      "hit": false,
      "t": 12419.635000000002,
      "d": 122.56218749999971,
      "v": 40
    },
    {
      "midi": 46,
      "hit": false,
      "t": 12419.635000000002,
      "d": 122.56218749999971,
      "v": 40
    },
    {
      "midi": 65,
      "hit": false,
      "t": 12419.635000000002,
      "d": 163.41625000000022,
      "v": 76
    },
    {
      "midi": 53,
      "hit": false,
      "t": 12746.467500000002,
      "d": 122.56218749999971,
      "v": 35
    },
    {
      "midi": 56,
      "hit": false,
      "t": 12746.467500000002,
      "d": 122.56218749999971,
      "v": 35
    },
    {
      "midi": 70,
      "hit": false,
      "t": 12746.467500000002,
      "d": 122.56218749999971,
      "v": 80
    },
    {
      "midi": 59,
      "hit": false,
      "t": 12746.467500000002,
      "d": 163.41625000000022,
      "v": 45
    },
    {
      "midi": 63,
      "hit": false,
      "t": 12746.467500000002,
      "d": 163.41625000000022,
      "v": 45
    },
    {
      "midi": 39,
      "hit": false,
      "t": 13073.300000000003,
      "d": 122.56218749999971,
      "v": 40
    },
    {
      "midi": 46,
      "hit": false,
      "t": 13073.300000000003,
      "d": 122.56218749999971,
      "v": 40
    },
    {
      "midi": 68,
      "hit": false,
      "t": 13073.300000000003,
      "d": 163.41625000000022,
      "v": 80
    },
    {
      "midi": 65,
      "hit": false,
      "t": 13236.716250000003,
      "d": 163.41625000000022,
      "v": 80
    },
    {
      "midi": 53,
      "hit": false,
      "t": 13400.132500000003,
      "d": 122.56218749999971,
      "v": 33
    },
    {
      "midi": 56,
      "hit": false,
      "t": 13400.132500000003,
      "d": 122.56218749999971,
      "v": 33
    },
    {
      "midi": 59,
      "hit": false,
      "t": 13400.132500000003,
      "d": 122.56218749999971,
      "v": 45
    },
    {
      "midi": 63,
      "hit": false,
      "t": 13563.548750000004,
      "d": 163.41625000000022,
      "v": 74
    },
    {
      "midi": 39,
      "hit": false,
      "t": 13726.965000000004,
      "d": 122.56218749999971,
      "v": 40
    },
    {
      "midi": 46,
      "hit": false,
      "t": 13726.965000000004,
      "d": 122.56218749999971,
      "v": 40
    },
    {
      "midi": 59,
      "hit": false,
      "t": 13726.965000000004,
      "d": 163.41625000000022,
      "v": 80
    },
    {
      "midi": 59,
      "hit": false,
      "t": 14053.797500000004,
      "d": 81.7081249999992,
      "v": 72
    },
    {
      "midi": 63,
      "hit": false,
      "t": 14053.797500000004,
      "d": 81.7081249999992,
      "v": 80
    },
    {
      "midi": 53,
      "hit": false,
      "t": 14053.797500000004,
      "d": 122.56218749999971,
      "v": 33
    },
    {
      "midi": 56,
      "hit": false,
      "t": 14053.797500000004,
      "d": 122.56218749999971,
      "v": 33
    },
    {
      "midi": 39,
      "hit": false,
      "t": 14380.630000000005,
      "d": 122.56218749999971,
      "v": 34
    },
    {
      "midi": 46,
      "hit": false,
      "t": 14380.630000000005,
      "d": 122.56218749999971,
      "v": 40
    },
    {
      "midi": 58,
      "hit": false,
      "t": 14380.630000000005,
      "d": 122.56218749999971,
      "v": 80
    },
    {
      "midi": 58,
      "hit": false,
      "t": 14544.046250000005,
      "d": 163.41625000000022,
      "v": 74
    },
    {
      "midi": 53,
      "hit": false,
      "t": 14707.462500000005,
      "d": 122.56218749999971,
      "v": 28
    },
    {
      "midi": 55,
      "hit": false,
      "t": 14707.462500000005,
      "d": 122.56218749999971,
      "v": 33
    },
    {
      "midi": 60,
      "hit": false,
      "t": 14870.878750000005,
      "d": 163.41625000000022,
      "v": 74
    },
    {
      "midi": 39,
      "hit": false,
      "t": 15034.295000000006,
      "d": 122.56218749999971,
      "v": 39
    },
    {
      "midi": 46,
      "hit": false,
      "t": 15034.295000000006,
      "d": 122.56218749999971,
      "v": 47
    },
    {
      "midi": 58,
      "hit": false,
      "t": 15034.295000000006,
      "d": 163.41625000000022,
      "v": 76
    },
    {
      "midi": 63,
      "hit": false,
      "t": 15320.273437500005,
      "d": 163.41625000000022,
      "v": 68
    },
    {
      "midi": 53,
      "hit": false,
      "t": 15361.127500000006,
      "d": 122.56218749999971,
      "v": 34
    },
    {
      "midi": 55,
      "hit": false,
      "t": 15361.127500000006,
      "d": 122.56218749999971,
      "v": 41
    },
    {
      "midi": 70,
      "hit": false,
      "t": 15361.127500000006,
      "d": 122.56218749999971,
      "v": 80
    },
    {
      "midi": 39,
      "hit": false,
      "t": 15687.960000000006,
      "d": 122.56218749999971,
      "v": 42
    },
    {
      "midi": 46,
      "hit": false,
      "t": 15687.960000000006,
      "d": 122.56218749999971,
      "v": 50
    },
    {
      "midi": 58,
      "hit": false,
      "t": 15687.960000000006,
      "d": 1307.3300000000017,
      "v": 80
    },
    {
      "midi": 53,
      "hit": false,
      "t": 16014.792500000007,
      "d": 122.56218749999971,
      "v": 34
    },
    {
      "midi": 55,
      "hit": false,
      "t": 16014.792500000007,
      "d": 122.56218749999971,
      "v": 40
    },
    {
      "midi": 39,
      "hit": false,
      "t": 16341.625000000007,
      "d": 122.56218749999971,
      "v": 36
    },
    {
      "midi": 46,
      "hit": false,
      "t": 16341.625000000007,
      "d": 122.56218749999971,
      "v": 43
    },
    {
      "midi": 53,
      "hit": false,
      "t": 16668.457500000008,
      "d": 122.56218749999971,
      "v": 29
    },
    {
      "midi": 55,
      "hit": false,
      "t": 16668.457500000008,
      "d": 122.56218749999971,
      "v": 35
    },
    {
      "midi": 39,
      "hit": false,
      "t": 16995.290000000008,
      "d": 122.56218749999971,
      "v": 40
    },
    {
      "midi": 46,
      "hit": false,
      "t": 16995.290000000008,
      "d": 122.56218749999971,
      "v": 40
    },
    {
      "midi": 58,
      "hit": false,
      "t": 16995.290000000008,
      "d": 163.4162499999984,
      "v": 64
    },
    {
      "midi": 56,
      "hit": false,
      "t": 17158.706250000007,
      "d": 163.41625000000204,
      "v": 57
    },
    {
      "midi": 51,
      "hit": false,
      "t": 17322.12250000001,
      "d": 122.56218749999971,
      "v": 33
    },
    {
      "midi": 53,
      "hit": false,
      "t": 17322.12250000001,
      "d": 122.56218749999971,
      "v": 33
    },
    {
      "midi": 58,
      "hit": false,
      "t": 17485.538750000007,
      "d": 163.4162499999984,
      "v": 56
    },
    {
      "midi": 39,
      "hit": false,
      "t": 17648.955000000005,
      "d": 122.56218749999971,
      "v": 40
    },
    {
      "midi": 46,
      "hit": false,
      "t": 17648.955000000005,
      "d": 122.56218749999971,
      "v": 40
    },
    {
      "midi": 60,
      "hit": false,
      "t": 17648.955000000005,
      "d": 163.4162499999984,
      "v": 64
    },
    {
      "midi": 51,
      "hit": false,
      "t": 17975.787500000002,
      "d": 122.56218749999971,
      "v": 35
    },
    {
      "midi": 53,
      "hit": false,
      "t": 17975.787500000002,
      "d": 122.56218749999971,
      "v": 35
    },
    {
      "midi": 56,
      "hit": false,
      "t": 17975.787500000002,
      "d": 122.56218749999971,
      "v": 53
    },
    {
      "midi": 39,
      "hit": false,
      "t": 18302.620000000003,
      "d": 122.56218749999971,
      "v": 40
    },
    {
      "midi": 46,
      "hit": false,
      "t": 18302.620000000003,
      "d": 122.56218749999971,
      "v": 40
    },
    {
      "midi": 58,
      "hit": false,
      "t": 18302.620000000003,
      "d": 163.4162499999984,
      "v": 64
    },
    {
      "midi": 56,
      "hit": false,
      "t": 18466.03625,
      "d": 163.41625000000204,
      "v": 57
    },
    {
      "midi": 51,
      "hit": false,
      "t": 18629.452500000003,
      "d": 122.56218749999971,
      "v": 33
    },
    {
      "midi": 53,
      "hit": false,
      "t": 18629.452500000003,
      "d": 122.56218749999971,
      "v": 33
    },
    {
      "midi": 58,
      "hit": false,
      "t": 18792.86875,
      "d": 163.4162499999984,
      "v": 56
    },
    {
      "midi": 39,
      "hit": false,
      "t": 18956.285,
      "d": 122.56218749999971,
      "v": 40
    },
    {
      "midi": 46,
      "hit": false,
      "t": 18956.285,
      "d": 122.56218749999971,
      "v": 40
    },
    {
      "midi": 59,
      "hit": false,
      "t": 18956.285,
      "d": 163.4162499999984,
      "v": 64
    },
    {
      "midi": 51,
      "hit": false,
      "t": 19283.117499999997,
      "d": 122.56218749999971,
      "v": 35
    },
    {
      "midi": 53,
      "hit": false,
      "t": 19283.117499999997,
      "d": 122.56218749999971,
      "v": 35
    },
    {
      "midi": 56,
      "hit": false,
      "t": 19283.117499999997,
      "d": 122.56218749999971,
      "v": 53
    },
    {
      "midi": 46,
      "hit": false,
      "t": 19609.949999999997,
      "d": 163.4162499999984,
      "v": 54
    },
    {
      "midi": 58,
      "hit": false,
      "t": 19609.949999999997,
      "d": 163.4162499999984,
      "v": 64
    },
    {
      "midi": 44,
      "hit": false,
      "t": 19773.366249999995,
      "d": 163.41625000000204,
      "v": 50
    },
    {
      "midi": 56,
      "hit": false,
      "t": 19773.366249999995,
      "d": 163.41625000000204,
      "v": 59
    },
    {
      "midi": 41,
      "hit": false,
      "t": 20100.198749999996,
      "d": 122.56218749999971,
      "v": 50
    },
    {
      "midi": 53,
      "hit": false,
      "t": 20100.198749999996,
      "d": 122.56218749999971,
      "v": 59
    },
    {
      "midi": 39,
      "hit": false,
      "t": 20263.614999999998,
      "d": 163.4162499999984,
      "v": 51
    },
    {
      "midi": 51,
      "hit": false,
      "t": 20263.614999999998,
      "d": 163.4162499999984,
      "v": 61
    },
    {
      "midi": 38,
      "hit": false,
      "t": 20590.447499999995,
      "d": 163.4162499999984,
      "v": 55
    },
    {
      "midi": 50,
      "hit": false,
      "t": 20590.447499999995,
      "d": 163.4162499999984,
      "v": 65
    },
    {
      "midi": 36,
      "hit": false,
      "t": 20917.27999999999,
      "d": 163.41625000000204,
      "v": 60
    },
    {
      "midi": 48,
      "hit": false,
      "t": 20917.27999999999,
      "d": 163.41625000000204,
      "v": 71
    },
    {
      "midi": 31,
      "hit": false,
      "t": 21244.112499999992,
      "d": 163.41625000000204,
      "v": 57
    },
    {
      "midi": 43,
      "hit": false,
      "t": 21244.112499999992,
      "d": 163.41625000000204,
      "v": 68
    },
    {
      "midi": 36,
      "hit": false,
      "t": 21570.944999999996,
      "d": 163.4162499999984,
      "v": 64
    },
    {
      "midi": 48,
      "hit": false,
      "t": 21570.944999999996,
      "d": 163.4162499999984,
      "v": 76
    },
    {
      "midi": 38,
      "hit": false,
      "t": 21897.777499999993,
      "d": 163.4162499999984,
      "v": 68
    },
    {
      "midi": 50,
      "hit": false,
      "t": 21897.777499999993,
      "d": 163.4162499999984,
      "v": 80
    },
    {
      "midi": 39,
      "hit": false,
      "t": 22224.609999999993,
      "d": 122.56218749999971,
      "v": 40
    },
    {
      "midi": 46,
      "hit": false,
      "t": 22224.609999999993,
      "d": 122.56218749999971,
      "v": 40
    },
    {
      "midi": 70,
      "hit": false,
      "t": 22224.609999999993,
      "d": 163.4162499999984,
      "v": 80
    },
    {
      "midi": 68,
      "hit": false,
      "t": 22388.02624999999,
      "d": 163.41625000000204,
      "v": 74
    },
    {
      "midi": 53,
      "hit": false,
      "t": 22551.442499999994,
      "d": 122.56218749999971,
      "v": 33
    },
    {
      "midi": 56,
      "hit": false,
      "t": 22551.442499999994,
      "d": 122.56218749999971,
      "v": 33
    },
    {
      "midi": 59,
      "hit": false,
      "t": 22551.442499999994,
      "d": 163.4162499999984,
      "v": 45
    },
    {
      "midi": 63,
      "hit": false,
      "t": 22551.442499999994,
      "d": 163.4162499999984,
      "v": 45
    },
    {
      "midi": 70,
      "hit": false,
      "t": 22714.858749999992,
      "d": 163.4162499999984,
      "v": 74
    },
    {
      "midi": 39,
      "hit": false,
      "t": 22878.27499999999,
      "d": 122.56218749999971,
      "v": 40
    },
    {
      "midi": 46,
      "hit": false,
      "t": 22878.27499999999,
      "d": 122.56218749999971,
      "v": 40
    },
    {
      "midi": 65,
      "hit": false,
      "t": 22878.27499999999,
      "d": 163.4162499999984,
      "v": 76
    },
    {
      "midi": 53,
      "hit": false,
      "t": 23205.107499999987,
      "d": 122.56218749999971,
      "v": 35
    },
    {
      "midi": 56,
      "hit": false,
      "t": 23205.107499999987,
      "d": 122.56218749999971,
      "v": 35
    },
    {
      "midi": 70,
      "hit": false,
      "t": 23205.107499999987,
      "d": 122.56218749999971,
      "v": 80
    },
    {
      "midi": 59,
      "hit": false,
      "t": 23205.107499999987,
      "d": 163.4162499999984,
      "v": 45
    },
    {
      "midi": 63,
      "hit": false,
      "t": 23205.107499999987,
      "d": 163.4162499999984,
      "v": 45
    },
    {
      "midi": 39,
      "hit": false,
      "t": 23531.939999999984,
      "d": 122.56218749999971,
      "v": 40
    },
    {
      "midi": 46,
      "hit": false,
      "t": 23531.939999999984,
      "d": 122.56218749999971,
      "v": 40
    },
    {
      "midi": 68,
      "hit": false,
      "t": 23531.939999999984,
      "d": 163.4162499999984,
      "v": 80
    },
    {
      "midi": 65,
      "hit": false,
      "t": 23695.356249999983,
      "d": 163.41625000000204,
      "v": 80
    },
    {
      "midi": 53,
      "hit": false,
      "t": 23858.772499999985,
      "d": 122.56218749999971,
      "v": 33
    },
    {
      "midi": 56,
      "hit": false,
      "t": 23858.772499999985,
      "d": 122.56218749999971,
      "v": 33
    },
    {
      "midi": 59,
      "hit": false,
      "t": 23858.772499999985,
      "d": 122.56218749999971,
      "v": 45
    },
    {
      "midi": 63,
      "hit": false,
      "t": 24022.188749999983,
      "d": 163.4162499999984,
      "v": 74
    },
    {
      "midi": 39,
      "hit": false,
      "t": 24185.60499999998,
      "d": 122.56218749999971,
      "v": 40
    },
    {
      "midi": 46,
      "hit": false,
      "t": 24185.60499999998,
      "d": 122.56218749999971,
      "v": 40
    },
    {
      "midi": 59,
      "hit": false,
      "t": 24185.60499999998,
      "d": 163.4162499999984,
      "v": 80
    },
    {
      "midi": 59,
      "hit": false,
      "t": 24512.437499999978,
      "d": 81.70812500000102,
      "v": 72
    },
    {
      "midi": 63,
      "hit": false,
      "t": 24512.437499999978,
      "d": 81.70812500000102,
      "v": 80
    },
    {
      "midi": 53,
      "hit": false,
      "t": 24512.437499999978,
      "d": 122.56218749999971,
      "v": 33
    },
    {
      "midi": 56,
      "hit": false,
      "t": 24512.437499999978,
      "d": 122.56218749999971,
      "v": 33
    },
    {
      "midi": 39,
      "hit": false,
      "t": 24839.26999999998,
      "d": 122.56218749999971,
      "v": 34
    },
    {
      "midi": 46,
      "hit": false,
      "t": 24839.26999999998,
      "d": 122.56218749999971,
      "v": 40
    },
    {
      "midi": 58,
      "hit": false,
      "t": 24839.26999999998,
      "d": 122.56218749999971,
      "v": 80
    },
    {
      "midi": 58,
      "hit": false,
      "t": 25002.686249999977,
      "d": 163.4162499999984,
      "v": 74
    },
    {
      "midi": 53,
      "hit": false,
      "t": 25166.102499999975,
      "d": 122.56218749999971,
      "v": 28
    },
    {
      "midi": 55,
      "hit": false,
      "t": 25166.102499999975,
      "d": 122.56218749999971,
      "v": 33
    },
    {
      "midi": 60,
      "hit": false,
      "t": 25329.518749999974,
      "d": 163.4162499999984,
      "v": 74
    },
    {
      "midi": 39,
      "hit": false,
      "t": 25492.934999999972,
      "d": 122.56218749999971,
      "v": 39
    },
    {
      "midi": 46,
      "hit": false,
      "t": 25492.934999999972,
      "d": 122.56218749999971,
      "v": 47
    },
    {
      "midi": 58,
      "hit": false,
      "t": 25492.934999999972,
      "d": 163.4162499999984,
      "v": 76
    },
    {
      "midi": 63,
      "hit": false,
      "t": 25778.91343749997,
      "d": 163.4162499999984,
      "v": 68
    },
    {
      "midi": 53,
      "hit": false,
      "t": 25819.76749999997,
      "d": 122.56218749999971,
      "v": 34
    },
    {
      "midi": 55,
      "hit": false,
      "t": 25819.76749999997,
      "d": 122.56218749999971,
      "v": 41
    },
    {
      "midi": 70,
      "hit": false,
      "t": 25819.76749999997,
      "d": 122.56218749999971,
      "v": 80
    },
    {
      "midi": 39,
      "hit": false,
      "t": 26146.59999999997,
      "d": 122.56218749999971,
      "v": 42
    },
    {
      "midi": 46,
      "hit": false,
      "t": 26146.59999999997,
      "d": 122.56218749999971,
      "v": 50
    },
    {
      "midi": 58,
      "hit": false,
      "t": 26146.59999999997,
      "d": 1307.3300000000017,
      "v": 80
    },
    {
      "midi": 53,
      "hit": false,
      "t": 26473.43249999997,
      "d": 122.56218749999971,
      "v": 34
    },
    {
      "midi": 55,
      "hit": false,
      "t": 26473.43249999997,
      "d": 122.56218749999971,
      "v": 40
    },
    {
      "midi": 39,
      "hit": false,
      "t": 26800.26499999997,
      "d": 122.56218749999971,
      "v": 36
    },
    {
      "midi": 46,
      "hit": false,
      "t": 26800.26499999997,
      "d": 122.56218749999971,
      "v": 43
    },
    {
      "midi": 53,
      "hit": false,
      "t": 27127.09749999997,
      "d": 122.56218749999971,
      "v": 29
    },
    {
      "midi": 55,
      "hit": false,
      "t": 27127.09749999997,
      "d": 122.56218749999971,
      "v": 35
    },
    {
      "midi": 42,
      "hit": false,
      "t": 27453.92999999997,
      "d": 122.56218749999971,
      "v": 34
    },
    {
      "midi": 49,
      "hit": false,
      "t": 27453.92999999997,
      "d": 122.56218749999971,
      "v": 40
    },
    {
      "midi": 58,
      "hit": false,
      "t": 27453.92999999997,
      "d": 122.56218749999971,
      "v": 55
    },
    {
      "midi": 58,
      "hit": false,
      "t": 27617.34624999997,
      "d": 163.41625000000204,
      "v": 49
    },
    {
      "midi": 49,
      "hit": false,
      "t": 27780.76249999997,
      "d": 81.70812500000102,
      "v": 28
    },
    {
      "midi": 54,
      "hit": false,
      "t": 27780.76249999997,
      "d": 122.56218749999971,
      "v": 28
    },
    {
      "midi": 56,
      "hit": false,
      "t": 27780.76249999997,
      "d": 122.56218749999971,
      "v": 33
    },
    {
      "midi": 60,
      "hit": false,
      "t": 27944.17874999997,
      "d": 163.4162499999984,
      "v": 53
    },
    {
      "midi": 42,
      "hit": false,
      "t": 28107.59499999997,
      "d": 122.56218749999971,
      "v": 34
    },
    {
      "midi": 49,
      "hit": false,
      "t": 28107.59499999997,
      "d": 122.56218749999971,
      "v": 40
    },
    {
      "midi": 58,
      "hit": false,
      "t": 28107.59499999997,
      "d": 163.4162499999984,
      "v": 61
    },
    {
      "midi": 49,
      "hit": false,
      "t": 28434.427499999965,
      "d": 81.70812500000102,
      "v": 29
    },
    {
      "midi": 54,
      "hit": false,
      "t": 28434.427499999965,
      "d": 122.56218749999971,
      "v": 29
    },
    {
      "midi": 57,
      "hit": false,
      "t": 28434.427499999965,
      "d": 122.56218749999971,
      "v": 35
    },
    {
      "midi": 61,
      "hit": false,
      "t": 28434.427499999965,
      "d": 122.56218749999971,
      "v": 53
    },
    {
      "midi": 42,
      "hit": false,
      "t": 28761.259999999966,
      "d": 122.56218749999971,
      "v": 36
    },
    {
      "midi": 49,
      "hit": false,
      "t": 28761.259999999966,
      "d": 122.56218749999971,
      "v": 43
    },
    {
      "midi": 63,
      "hit": false,
      "t": 28761.259999999966,
      "d": 122.56218749999971,
      "v": 64
    },
    {
      "midi": 49,
      "hit": false,
      "t": 29088.092499999966,
      "d": 81.70812500000102,
      "v": 31
    },
    {
      "midi": 54,
      "hit": false,
      "t": 29088.092499999966,
      "d": 122.56218749999971,
      "v": 31
    },
    {
      "midi": 58,
      "hit": false,
      "t": 29088.092499999966,
      "d": 122.56218749999971,
      "v": 37
    },
    {
      "midi": 65,
      "hit": false,
      "t": 29088.092499999966,
      "d": 122.56218749999971,
      "v": 61
    },
    {
      "midi": 42,
      "hit": false,
      "t": 29414.924999999967,
      "d": 122.56218749999971,
      "v": 38
    },
    {
      "midi": 49,
      "hit": false,
      "t": 29414.924999999967,
      "d": 122.56218749999971,
      "v": 45
    },
    {
      "midi": 63,
      "hit": false,
      "t": 29414.924999999967,
      "d": 122.56218749999971,
      "v": 65
    },
    {
      "midi": 49,
      "hit": false,
      "t": 29741.757499999967,
      "d": 81.70812500000102,
      "v": 35
    },
    {
      "midi": 54,
      "hit": false,
      "t": 29741.757499999967,
      "d": 122.56218749999971,
      "v": 35
    },
    {
      "midi": 59,
      "hit": false,
      "t": 29741.757499999967,
      "d": 122.56218749999971,
      "v": 42
    },
    {
      "midi": 66,
      "hit": false,
      "t": 29741.757499999967,
      "d": 122.56218749999971,
      "v": 71
    },
    {
      "midi": 65,
      "hit": false,
      "t": 30068.589999999967,
      "d": 122.56218749999971,
      "v": 80
    },
    {
      "midi": 65,
      "hit": false,
      "t": 30232.006249999966,
      "d": 163.4162499999984,
      "v": 74
    },
    {
      "midi": 61,
      "hit": false,
      "t": 30395.422499999964,
      "d": 122.56218749999971,
      "v": 42
    },
    {
      "midi": 64,
      "hit": false,
      "t": 30395.422499999964,
      "d": 163.4162499999984,
      "v": 67
    },
    {
      "midi": 67,
      "hit": false,
      "t": 30558.838749999963,
      "d": 163.4162499999984,
      "v": 74
    },
    {
      "midi": 65,
      "hit": false,
      "t": 30722.25499999996,
      "d": 285.9784374999981,
      "v": 76
    },
    {
      "midi": 60,
      "hit": false,
      "t": 30722.25499999996,
      "d": 326.8324999999968,
      "v": 57
    },
    {
      "midi": 63,
      "hit": false,
      "t": 30722.25499999996,
      "d": 326.8324999999968,
      "v": 64
    },
    {
      "midi": 67,
      "hit": false,
      "t": 31008.23343749996,
      "d": 163.4162499999984,
      "v": 68
    },
    {
      "midi": 53,
      "hit": false,
      "t": 31049.087499999958,
      "d": 81.70812500000102,
      "v": 49
    },
    {
      "midi": 57,
      "hit": false,
      "t": 31049.087499999958,
      "d": 122.56218749999971,
      "v": 49
    },
    {
      "midi": 63,
      "hit": false,
      "t": 31049.087499999958,
      "d": 122.56218749999971,
      "v": 58
    },
    {
      "midi": 74,
      "hit": false,
      "t": 31049.087499999958,
      "d": 122.56218749999971,
      "v": 80
    },
    {
      "midi": 46,
      "hit": false,
      "t": 31375.91999999996,
      "d": 326.83250000000044,
      "v": 62
    },
    {
      "midi": 53,
      "hit": false,
      "t": 31375.91999999996,
      "d": 326.83250000000044,
      "v": 62
    },
    {
      "midi": 58,
      "hit": false,
      "t": 31375.91999999996,
      "d": 326.83250000000044,
      "v": 73
    },
    {
      "midi": 62,
      "hit": false,
      "t": 31375.91999999996,
      "d": 653.6650000000009,
      "v": 72
    },
    {
      "midi": 70,
      "hit": false,
      "t": 31375.91999999996,
      "d": 653.6650000000009,
      "v": 85
    },
    {
      "midi": 34,
      "hit": false,
      "t": 32029.58499999996,
      "d": 326.83250000000044,
      "v": 60
    },
    {
      "midi": 46,
      "hit": false,
      "t": 32029.58499999996,
      "d": 326.83250000000044,
      "v": 71
    },
    {
      "midi": 82,
      "hit": false,
      "t": 32029.58499999996,
      "d": 326.83250000000044,
      "v": 90
    },
    {
      "midi": 94,
      "hit": false,
      "t": 32029.58499999996,
      "d": 326.83250000000044,
      "v": 106
    },
    {
      "midi": 56,
      "hit": false,
      "t": 32683.24999999996,
      "d": 122.56218750000335,
      "v": 40
    },
    {
      "midi": 58,
      "hit": false,
      "t": 32683.24999999996,
      "d": 122.56218750000335,
      "v": 40
    },
    {
      "midi": 60,
      "hit": false,
      "t": 32683.24999999996,
      "d": 163.41625000000568,
      "v": 54
    },
    {
      "midi": 63,
      "hit": false,
      "t": 32683.24999999996,
      "d": 163.41625000000568,
      "v": 64
    },
    {
      "midi": 62,
      "hit": false,
      "t": 32846.666249999966,
      "d": 326.8324999999968,
      "v": 48
    },
    {
      "midi": 65,
      "hit": false,
      "t": 32846.666249999966,
      "d": 326.8324999999968,
      "v": 57
    },
    {
      "midi": 68,
      "hit": false,
      "t": 33010.08249999996,
      "d": 122.56218749999971,
      "v": 33
    },
    {
      "midi": 70,
      "hit": false,
      "t": 33010.08249999996,
      "d": 122.56218749999971,
      "v": 33
    },
    {
      "midi": 63,
      "hit": false,
      "t": 33173.49874999996,
      "d": 163.41624999999476,
      "v": 47
    },
    {
      "midi": 67,
      "hit": false,
      "t": 33173.49874999996,
      "d": 163.41624999999476,
      "v": 56
    },
    {
      "midi": 56,
      "hit": false,
      "t": 33336.91499999996,
      "d": 122.56218749999971,
      "v": 40
    },
    {
      "midi": 58,
      "hit": false,
      "t": 33336.91499999996,
      "d": 122.56218749999971,
      "v": 40
    },
    {
      "midi": 62,
      "hit": false,
      "t": 33336.91499999996,
      "d": 122.56218749999971,
      "v": 54
    },
    {
      "midi": 65,
      "hit": false,
      "t": 33336.91499999996,
      "d": 122.56218749999971,
      "v": 64
    },
    {
      "midi": 60,
      "hit": false,
      "t": 33663.747499999954,
      "d": 122.56218749999971,
      "v": 45
    },
    {
      "midi": 63,
      "hit": false,
      "t": 33663.747499999954,
      "d": 122.56218749999971,
      "v": 53
    },
    {
      "midi": 68,
      "hit": false,
      "t": 33663.747499999954,
      "d": 122.56218749999971,
      "v": 35
    },
    {
      "midi": 70,
      "hit": false,
      "t": 33663.747499999954,
      "d": 122.56218749999971,
      "v": 35
    },
    {
      "midi": 56,
      "hit": false,
      "t": 33990.57999999995,
      "d": 122.56218749999971,
      "v": 40
    },
    {
      "midi": 58,
      "hit": false,
      "t": 33990.57999999995,
      "d": 122.56218749999971,
      "v": 40
    },
    {
      "midi": 62,
      "hit": false,
      "t": 33990.57999999995,
      "d": 1307.3299999999945,
      "v": 45
    },
    {
      "midi": 65,
      "hit": false,
      "t": 33990.57999999995,
      "d": 1307.3299999999945,
      "v": 53
    },
    {
      "midi": 68,
      "hit": false,
      "t": 34317.41249999995,
      "d": 122.56218749999971,
      "v": 33
    },
    {
      "midi": 70,
      "hit": false,
      "t": 34317.41249999995,
      "d": 122.56218749999971,
      "v": 33
    },
    {
      "midi": 56,
      "hit": false,
      "t": 34644.24499999995,
      "d": 122.56218749999971,
      "v": 40
    },
    {
      "midi": 58,
      "hit": false,
      "t": 34644.24499999995,
      "d": 122.56218749999971,
      "v": 40
    },
    {
      "midi": 82,
      "hit": false,
      "t": 34644.24499999995,
      "d": 326.8324999999968,
      "v": 54
    },
    {
      "midi": 94,
      "hit": false,
      "t": 34644.24499999995,
      "d": 326.8324999999968,
      "v": 64
    },
    {
      "midi": 68,
      "hit": false,
      "t": 34971.07749999995,
      "d": 122.56218749999971,
      "v": 35
    },
    {
      "midi": 70,
      "hit": false,
      "t": 34971.07749999995,
      "d": 122.56218749999971,
      "v": 35
    },
    {
      "midi": 55,
      "hit": false,
      "t": 35297.909999999945,
      "d": 122.56218749999971,
      "v": 40
    },
    {
      "midi": 58,
      "hit": false,
      "t": 35297.909999999945,
      "d": 122.56218749999971,
      "v": 40
    },
    {
      "midi": 60,
      "hit": false,
      "t": 35297.909999999945,
      "d": 163.41625000000204,
      "v": 54
    },
    {
      "midi": 63,
      "hit": false,
      "t": 35297.909999999945,
      "d": 163.41625000000204,
      "v": 64
    },
    {
      "midi": 62,
      "hit": false,
      "t": 35461.32624999995,
      "d": 326.8324999999968,
      "v": 48
    },
    {
      "midi": 65,
      "hit": false,
      "t": 35461.32624999995,
      "d": 326.8324999999968,
      "v": 57
    },
    {
      "midi": 70,
      "hit": false,
      "t": 35624.74249999994,
      "d": 122.56218749999971,
      "v": 33
    },
    {
      "midi": 63,
      "hit": false,
      "t": 35788.158749999944,
      "d": 163.41624999999476,
      "v": 47
    },
    {
      "midi": 67,
      "hit": false,
      "t": 35788.158749999944,
      "d": 163.41624999999476,
      "v": 56
    },
    {
      "midi": 55,
      "hit": false,
      "t": 35951.57499999994,
      "d": 122.56218749999971,
      "v": 40
    },
    {
      "midi": 58,
      "hit": false,
      "t": 35951.57499999994,
      "d": 122.56218749999971,
      "v": 40
    },
    {
      "midi": 62,
      "hit": false,
      "t": 35951.57499999994,
      "d": 163.41625000000204,
      "v": 54
    },
    {
      "midi": 65,
      "hit": false,
      "t": 35951.57499999994,
      "d": 163.41625000000204,
      "v": 64
    },
    {
      "midi": 60,
      "hit": false,
      "t": 36278.40749999994,
      "d": 122.56218749999971,
      "v": 45
    },
    {
      "midi": 63,
      "hit": false,
      "t": 36278.40749999994,
      "d": 122.56218749999971,
      "v": 53
    },
    {
      "midi": 70,
      "hit": false,
      "t": 36278.40749999994,
      "d": 122.56218749999971,
      "v": 35
    },
    {
      "midi": 55,
      "hit": false,
      "t": 36605.23999999994,
      "d": 163.41625000000204,
      "v": 40
    },
    {
      "midi": 58,
      "hit": false,
      "t": 36605.23999999994,
      "d": 163.41625000000204,
      "v": 40
    },
    {
      "midi": 62,
      "hit": false,
      "t": 36605.23999999994,
      "d": 163.41625000000204,
      "v": 45
    },
    {
      "midi": 65,
      "hit": false,
      "t": 36605.23999999994,
      "d": 163.41625000000204,
      "v": 53
    },
    {
      "midi": 70,
      "hit": false,
      "t": 36932.072499999944,
      "d": 122.56218749999971,
      "v": 33
    },
    {
      "midi": 60,
      "hit": false,
      "t": 36932.072499999944,
      "d": 326.8324999999968,
      "v": 53
    },
    {
      "midi": 63,
      "hit": false,
      "t": 36932.072499999944,
      "d": 326.8324999999968,
      "v": 53
    },
    {
      "midi": 55,
      "hit": false,
      "t": 37258.90499999994,
      "d": 326.8325000000041,
      "v": 40
    },
    {
      "midi": 58,
      "hit": false,
      "t": 37258.90499999994,
      "d": 326.8325000000041,
      "v": 40
    },
    {
      "midi": 62,
      "hit": false,
      "t": 37258.90499999994,
      "d": 326.8325000000041,
      "v": 53
    },
    {
      "midi": 65,
      "hit": false,
      "t": 37258.90499999994,
      "d": 326.8325000000041,
      "v": 53
    },
    {
      "midi": 63,
      "hit": false,
      "t": 37585.737499999945,
      "d": 122.56218749999971,
      "v": 35
    },
    {
      "midi": 67,
      "hit": false,
      "t": 37585.737499999945,
      "d": 163.41625000000204,
      "v": 53
    },
    {
      "midi": 70,
      "hit": false,
      "t": 37585.737499999945,
      "d": 163.41625000000204,
      "v": 53
    },
    {
      "midi": 72,
      "hit": false,
      "t": 37585.737499999945,
      "d": 163.41625000000204,
      "v": 53
    },
    {
      "midi": 46,
      "hit": false,
      "t": 37912.56999999995,
      "d": 163.41625000000204,
      "v": 44
    },
    {
      "midi": 56,
      "hit": false,
      "t": 37912.56999999995,
      "d": 2614.660000000018,
      "v": 36
    },
    {
      "midi": 60,
      "hit": false,
      "t": 37912.56999999995,
      "d": 2614.660000000018,
      "v": 36
    },
    {
      "midi": 63,
      "hit": false,
      "t": 37912.56999999995,
      "d": 2614.660000000018,
      "v": 42
    },
    {
      "midi": 48,
      "hit": false,
      "t": 38075.98624999995,
      "d": 163.41625000000204,
      "v": 39
    },
    {
      "midi": 50,
      "hit": false,
      "t": 38402.818749999955,
      "d": 163.41625000000204,
      "v": 39
    },
    {
      "midi": 48,
      "hit": false,
      "t": 38566.23499999996,
      "d": 163.41625000000204,
      "v": 44
    },
    {
      "midi": 46,
      "hit": false,
      "t": 38893.06749999996,
      "d": 122.56218749999971,
      "v": 37
    },
    {
      "midi": 46,
      "hit": false,
      "t": 39219.89999999996,
      "d": 163.41625000000204,
      "v": 44
    },
    {
      "midi": 48,
      "hit": false,
      "t": 39383.31624999996,
      "d": 163.41625000000204,
      "v": 39
    },
    {
      "midi": 50,
      "hit": false,
      "t": 39710.148749999964,
      "d": 163.41625000000204,
      "v": 39
    },
    {
      "midi": 48,
      "hit": false,
      "t": 39873.564999999966,
      "d": 163.41625000000204,
      "v": 44
    },
    {
      "midi": 46,
      "hit": false,
      "t": 40200.39749999997,
      "d": 122.56218749999971,
      "v": 37
    },
    {
      "midi": 46,
      "hit": false,
      "t": 40527.22999999997,
      "d": 163.41625000000204,
      "v": 37
    },
    {
      "midi": 55,
      "hit": false,
      "t": 40527.22999999997,
      "d": 1307.330000000009,
      "v": 30
    },
    {
      "midi": 60,
      "hit": false,
      "t": 40527.22999999997,
      "d": 1307.330000000009,
      "v": 30
    },
    {
      "midi": 63,
      "hit": false,
      "t": 40527.22999999997,
      "d": 1307.330000000009,
      "v": 36
    },
    {
      "midi": 48,
      "hit": false,
      "t": 40690.64624999997,
      "d": 163.41625000000204,
      "v": 33
    },
    {
      "midi": 50,
      "hit": false,
      "t": 41017.47874999997,
      "d": 163.41625000000204,
      "v": 33
    },
    {
      "midi": 48,
      "hit": false,
      "t": 41180.894999999975,
      "d": 163.41625000000204,
      "v": 37
    },
    {
      "midi": 46,
      "hit": false,
      "t": 41507.72749999998,
      "d": 122.56218749999971,
      "v": 31
    },
    {
      "midi": 34,
      "hit": false,
      "t": 41997.97624999998,
      "d": 163.41625000000204,
      "v": 65
    },
    {
      "midi": 46,
      "hit": false,
      "t": 41997.97624999998,
      "d": 163.41625000000204,
      "v": 65
    },
    {
      "midi": 36,
      "hit": false,
      "t": 42161.39249999998,
      "d": 163.41625000000204,
      "v": 65
    },
    {
      "midi": 48,
      "hit": false,
      "t": 42161.39249999998,
      "d": 163.41625000000204,
      "v": 65
    },
    {
      "midi": 38,
      "hit": false,
      "t": 42324.80874999998,
      "d": 163.41625000000204,
      "v": 67
    },
    {
      "midi": 50,
      "hit": false,
      "t": 42324.80874999998,
      "d": 163.41625000000204,
      "v": 67
    },
    {
      "midi": 36,
      "hit": false,
      "t": 42488.224999999984,
      "d": 163.41625000000204,
      "v": 68
    },
    {
      "midi": 48,
      "hit": false,
      "t": 42488.224999999984,
      "d": 163.41625000000204,
      "v": 68
    },
    {
      "midi": 22,
      "hit": false,
      "t": 42815.05749999999,
      "d": 122.56218749999971,
      "v": 55
    },
    {
      "midi": 34,
      "hit": false,
      "t": 42815.05749999999,
      "d": 122.56218749999971,
      "v": 62
    },
    {
      "midi": 46,
      "hit": false,
      "t": 42815.05749999999,
      "d": 122.56218749999971,
      "v": 62
    },
    {
      "midi": 56,
      "hit": false,
      "t": 43141.889999999985,
      "d": 122.56218749999971,
      "v": 40
    },
    {
      "midi": 58,
      "hit": false,
      "t": 43141.889999999985,
      "d": 122.56218749999971,
      "v": 40
    },
    {
      "midi": 60,
      "hit": false,
      "t": 43141.889999999985,
      "d": 163.41625000000204,
      "v": 54
    },
    {
      "midi": 63,
      "hit": false,
      "t": 43141.889999999985,
      "d": 163.41625000000204,
      "v": 64
    },
    {
      "midi": 62,
      "hit": false,
      "t": 43305.30624999999,
      "d": 326.8324999999968,
      "v": 48
    },
    {
      "midi": 65,
      "hit": false,
      "t": 43305.30624999999,
      "d": 326.8324999999968,
      "v": 57
    },
    {
      "midi": 68,
      "hit": false,
      "t": 43468.72249999998,
      "d": 122.56218749999971,
      "v": 33
    },
    {
      "midi": 70,
      "hit": false,
      "t": 43468.72249999998,
      "d": 122.56218749999971,
      "v": 33
    },
    {
      "midi": 63,
      "hit": false,
      "t": 43632.138749999984,
      "d": 163.41624999999476,
      "v": 47
    },
    {
      "midi": 67,
      "hit": false,
      "t": 43632.138749999984,
      "d": 163.41624999999476,
      "v": 56
    },
    {
      "midi": 56,
      "hit": false,
      "t": 43795.55499999998,
      "d": 122.56218749999971,
      "v": 40
    },
    {
      "midi": 58,
      "hit": false,
      "t": 43795.55499999998,
      "d": 122.56218749999971,
      "v": 40
    },
    {
      "midi": 62,
      "hit": false,
      "t": 43795.55499999998,
      "d": 122.56218749999971,
      "v": 54
    },
    {
      "midi": 65,
      "hit": false,
      "t": 43795.55499999998,
      "d": 122.56218749999971,
      "v": 64
    },
    {
      "midi": 60,
      "hit": false,
      "t": 44122.387499999975,
      "d": 122.56218749999971,
      "v": 45
    },
    {
      "midi": 63,
      "hit": false,
      "t": 44122.387499999975,
      "d": 122.56218749999971,
      "v": 53
    },
    {
      "midi": 68,
      "hit": false,
      "t": 44122.387499999975,
      "d": 122.56218749999971,
      "v": 35
    },
    {
      "midi": 70,
      "hit": false,
      "t": 44122.387499999975,
      "d": 122.56218749999971,
      "v": 35
    },
    {
      "midi": 56,
      "hit": false,
      "t": 44449.21999999997,
      "d": 122.56218749999971,
      "v": 40
    },
    {
      "midi": 58,
      "hit": false,
      "t": 44449.21999999997,
      "d": 122.56218749999971,
      "v": 40
    },
    {
      "midi": 62,
      "hit": false,
      "t": 44449.21999999997,
      "d": 1307.3299999999945,
      "v": 45
    },
    {
      "midi": 65,
      "hit": false,
      "t": 44449.21999999997,
      "d": 1307.3299999999945,
      "v": 53
    },
    {
      "midi": 68,
      "hit": false,
      "t": 44776.05249999997,
      "d": 122.56218749999971,
      "v": 33
    },
    {
      "midi": 70,
      "hit": false,
      "t": 44776.05249999997,
      "d": 122.56218749999971,
      "v": 33
    },
    {
      "midi": 56,
      "hit": false,
      "t": 45102.88499999997,
      "d": 122.56218749999971,
      "v": 40
    },
    {
      "midi": 58,
      "hit": false,
      "t": 45102.88499999997,
      "d": 122.56218749999971,
      "v": 40
    },
    {
      "midi": 82,
      "hit": false,
      "t": 45102.88499999997,
      "d": 326.8324999999968,
      "v": 54
    },
    {
      "midi": 94,
      "hit": false,
      "t": 45102.88499999997,
      "d": 326.8324999999968,
      "v": 64
    },
    {
      "midi": 68,
      "hit": false,
      "t": 45429.71749999997,
      "d": 122.56218749999971,
      "v": 35
    },
    {
      "midi": 70,
      "hit": false,
      "t": 45429.71749999997,
      "d": 122.56218749999971,
      "v": 35
    },
    {
      "midi": 55,
      "hit": false,
      "t": 45756.54999999997,
      "d": 122.56218749999971,
      "v": 40
    },
    {
      "midi": 58,
      "hit": false,
      "t": 45756.54999999997,
      "d": 122.56218749999971,
      "v": 40
    },
    {
      "midi": 60,
      "hit": false,
      "t": 45756.54999999997,
      "d": 163.41625000000204,
      "v": 54
    },
    {
      "midi": 63,
      "hit": false,
      "t": 45756.54999999997,
      "d": 163.41625000000204,
      "v": 64
    },
    {
      "midi": 62,
      "hit": false,
      "t": 45919.96624999997,
      "d": 326.8324999999968,
      "v": 48
    },
    {
      "midi": 65,
      "hit": false,
      "t": 45919.96624999997,
      "d": 326.8324999999968,
      "v": 57
    },
    {
      "midi": 67,
      "hit": false,
      "t": 46083.38249999996,
      "d": 122.56218749999971,
      "v": 33
    },
    {
      "midi": 70,
      "hit": false,
      "t": 46083.38249999996,
      "d": 122.56218749999971,
      "v": 33
    },
    {
      "midi": 63,
      "hit": false,
      "t": 46246.798749999965,
      "d": 163.41624999999476,
      "v": 47
    },
    {
      "midi": 67,
      "hit": false,
      "t": 46246.798749999965,
      "d": 163.41624999999476,
      "v": 56
    },
    {
      "midi": 55,
      "hit": false,
      "t": 46410.21499999996,
      "d": 122.56218749999971,
      "v": 40
    },
    {
      "midi": 58,
      "hit": false,
      "t": 46410.21499999996,
      "d": 122.56218749999971,
      "v": 40
    },
    {
      "midi": 62,
      "hit": false,
      "t": 46410.21499999996,
      "d": 163.41625000000204,
      "v": 54
    },
    {
      "midi": 65,
      "hit": false,
      "t": 46410.21499999996,
      "d": 163.41625000000204,
      "v": 64
    },
    {
      "midi": 60,
      "hit": false,
      "t": 46737.047499999964,
      "d": 122.56218749999971,
      "v": 45
    },
    {
      "midi": 63,
      "hit": false,
      "t": 46737.047499999964,
      "d": 122.56218749999971,
      "v": 53
    },
    {
      "midi": 67,
      "hit": false,
      "t": 46737.047499999964,
      "d": 122.56218749999971,
      "v": 33
    },
    {
      "midi": 70,
      "hit": false,
      "t": 46737.047499999964,
      "d": 122.56218749999971,
      "v": 35
    },
    {
      "midi": 55,
      "hit": false,
      "t": 47063.87999999996,
      "d": 163.41625000000204,
      "v": 40
    },
    {
      "midi": 58,
      "hit": false,
      "t": 47063.87999999996,
      "d": 163.41625000000204,
      "v": 40
    },
    {
      "midi": 62,
      "hit": false,
      "t": 47063.87999999996,
      "d": 163.41625000000204,
      "v": 45
    },
    {
      "midi": 65,
      "hit": false,
      "t": 47063.87999999996,
      "d": 163.41625000000204,
      "v": 53
    },
    {
      "midi": 67,
      "hit": false,
      "t": 47390.712499999965,
      "d": 122.56218749999971,
      "v": 33
    },
    {
      "midi": 70,
      "hit": false,
      "t": 47390.712499999965,
      "d": 122.56218749999971,
      "v": 33
    },
    {
      "midi": 60,
      "hit": false,
      "t": 47390.712499999965,
      "d": 326.8324999999968,
      "v": 53
    },
    {
      "midi": 63,
      "hit": false,
      "t": 47390.712499999965,
      "d": 326.8324999999968,
      "v": 53
    },
    {
      "midi": 55,
      "hit": false,
      "t": 47717.54499999996,
      "d": 326.8325000000041,
      "v": 40
    },
    {
      "midi": 58,
      "hit": false,
      "t": 47717.54499999996,
      "d": 326.8325000000041,
      "v": 40
    },
    {
      "midi": 62,
      "hit": false,
      "t": 47717.54499999996,
      "d": 326.8325000000041,
      "v": 53
    },
    {
      "midi": 65,
      "hit": false,
      "t": 47717.54499999996,
      "d": 326.8325000000041,
      "v": 53
    },
    {
      "midi": 63,
      "hit": false,
      "t": 48044.377499999966,
      "d": 122.56218749999971,
      "v": 35
    },
    {
      "midi": 67,
      "hit": false,
      "t": 48044.377499999966,
      "d": 163.41625000000204,
      "v": 53
    },
    {
      "midi": 70,
      "hit": false,
      "t": 48044.377499999966,
      "d": 163.41625000000204,
      "v": 53
    },
    {
      "midi": 72,
      "hit": false,
      "t": 48044.377499999966,
      "d": 163.41625000000204,
      "v": 53
    },
    {
      "midi": 70,
      "hit": false,
      "t": 48371.20999999997,
      "d": 163.41625000000204,
      "v": 68
    },
    {
      "midi": 82,
      "hit": false,
      "t": 48371.20999999997,
      "d": 163.41625000000204,
      "v": 80
    },
    {
      "midi": 59,
      "hit": false,
      "t": 48371.20999999997,
      "d": 1960.9950000000172,
      "v": 51
    },
    {
      "midi": 71,
      "hit": false,
      "t": 48371.20999999997,
      "d": 1960.9950000000172,
      "v": 60
    },
    {
      "midi": 68,
      "hit": false,
      "t": 48534.62624999997,
      "d": 163.41625000000204,
      "v": 62
    },
    {
      "midi": 80,
      "hit": false,
      "t": 48534.62624999997,
      "d": 163.41625000000204,
      "v": 74
    },
    {
      "midi": 70,
      "hit": false,
      "t": 48861.458749999976,
      "d": 163.41625000000204,
      "v": 62
    },
    {
      "midi": 82,
      "hit": false,
      "t": 48861.458749999976,
      "d": 163.41625000000204,
      "v": 74
    },
    {
      "midi": 65,
      "hit": false,
      "t": 49024.87499999998,
      "d": 163.41625000000204,
      "v": 64
    },
    {
      "midi": 77,
      "hit": false,
      "t": 49024.87499999998,
      "d": 163.41625000000204,
      "v": 76
    },
    {
      "midi": 70,
      "hit": false,
      "t": 49351.70749999998,
      "d": 122.56218749999971,
      "v": 68
    },
    {
      "midi": 82,
      "hit": false,
      "t": 49351.70749999998,
      "d": 122.56218749999971,
      "v": 80
    },
    {
      "midi": 68,
      "hit": false,
      "t": 49678.53999999998,
      "d": 163.41625000000204,
      "v": 68
    },
    {
      "midi": 80,
      "hit": false,
      "t": 49678.53999999998,
      "d": 163.41625000000204,
      "v": 80
    },
    {
      "midi": 65,
      "hit": false,
      "t": 49841.95624999998,
      "d": 163.41625000000204,
      "v": 68
    },
    {
      "midi": 77,
      "hit": false,
      "t": 49841.95624999998,
      "d": 163.41625000000204,
      "v": 80
    },
    {
      "midi": 63,
      "hit": false,
      "t": 50168.788749999985,
      "d": 163.41625000000204,
      "v": 62
    },
    {
      "midi": 75,
      "hit": false,
      "t": 50168.788749999985,
      "d": 163.41625000000204,
      "v": 74
    },
    {
      "midi": 59,
      "hit": false,
      "t": 50332.20499999999,
      "d": 653.6650000000009,
      "v": 68
    },
    {
      "midi": 71,
      "hit": false,
      "t": 50332.20499999999,
      "d": 653.6650000000009,
      "v": 80
    },
    {
      "midi": 56,
      "hit": false,
      "t": 51149.28624999999,
      "d": 163.41625000000204,
      "v": 65
    },
    {
      "midi": 68,
      "hit": false,
      "t": 51149.28624999999,
      "d": 163.41625000000204,
      "v": 80
    },
    {
      "midi": 53,
      "hit": false,
      "t": 51312.70249999999,
      "d": 163.41625000000204,
      "v": 65
    },
    {
      "midi": 65,
      "hit": false,
      "t": 51312.70249999999,
      "d": 163.41625000000204,
      "v": 79
    },
    {
      "midi": 51,
      "hit": false,
      "t": 51476.118749999994,
      "d": 163.41625000000204,
      "v": 67
    },
    {
      "midi": 63,
      "hit": false,
      "t": 51476.118749999994,
      "d": 163.41625000000204,
      "v": 84
    },
    {
      "midi": 47,
      "hit": false,
      "t": 51639.534999999996,
      "d": 163.41625000000204,
      "v": 71
    },
    {
      "midi": 59,
      "hit": false,
      "t": 51639.534999999996,
      "d": 163.41625000000204,
      "v": 86
    },
    {
      "midi": 34,
      "hit": false,
      "t": 51966.3675,
      "d": 326.8324999999968,
      "v": 66
    },
    {
      "midi": 46,
      "hit": false,
      "t": 51966.3675,
      "d": 326.8324999999968,
      "v": 78
    },
    {
      "midi": 50,
      "hit": false,
      "t": 51966.3675,
      "d": 326.8324999999968,
      "v": 82
    },
    {
      "midi": 55,
      "hit": false,
      "t": 51966.3675,
      "d": 326.8324999999968,
      "v": 97
    },
    {
      "midi": 51,
      "hit": false,
      "t": 52620.032499999994,
      "d": 122.56218749999971,
      "v": 40
    },
    {
      "midi": 53,
      "hit": false,
      "t": 52620.032499999994,
      "d": 122.56218749999971,
      "v": 33
    },
    {
      "midi": 55,
      "hit": false,
      "t": 52620.032499999994,
      "d": 122.56218749999971,
      "v": 33
    },
    {
      "midi": 58,
      "hit": false,
      "t": 52620.032499999994,
      "d": 122.56218749999971,
      "v": 40
    },
    {
      "midi": 39,
      "hit": false,
      "t": 52946.86499999999,
      "d": 122.56218749999971,
      "v": 40
    },
    {
      "midi": 46,
      "hit": false,
      "t": 52946.86499999999,
      "d": 122.56218749999971,
      "v": 40
    },
    {
      "midi": 51,
      "hit": false,
      "t": 53273.69749999999,
      "d": 122.56218749999971,
      "v": 40
    },
    {
      "midi": 53,
      "hit": false,
      "t": 53273.69749999999,
      "d": 122.56218749999971,
      "v": 33
    },
    {
      "midi": 55,
      "hit": false,
      "t": 53273.69749999999,
      "d": 122.56218749999971,
      "v": 33
    },
    {
      "midi": 58,
      "hit": false,
      "t": 53273.69749999999,
      "d": 122.56218749999971,
      "v": 40
    },
    {
      "midi": 39,
      "hit": false,
      "t": 53600.529999999984,
      "d": 653.6650000000009,
      "v": 34
    },
    {
      "midi": 46,
      "hit": false,
      "t": 53600.529999999984,
      "d": 653.6650000000009,
      "v": 40
    },
    {
      "midi": 51,
      "hit": false,
      "t": 55234.69249999998,
      "d": 122.56218749999971,
      "v": 39
    },
    {
      "midi": 53,
      "hit": false,
      "t": 55234.69249999998,
      "d": 122.56218749999971,
      "v": 32
    },
    {
      "midi": 55,
      "hit": false,
      "t": 55234.69249999998,
      "d": 122.56218749999971,
      "v": 32
    },
    {
      "midi": 58,
      "hit": false,
      "t": 55234.69249999998,
      "d": 122.56218749999971,
      "v": 39
    },
    {
      "midi": 39,
      "hit": false,
      "t": 55561.52499999998,
      "d": 122.56218749999971,
      "v": 38
    },
    {
      "midi": 46,
      "hit": false,
      "t": 55561.52499999998,
      "d": 122.56218749999971,
      "v": 38
    },
    {
      "midi": 51,
      "hit": false,
      "t": 55888.35749999998,
      "d": 122.56218749999971,
      "v": 36
    },
    {
      "midi": 53,
      "hit": false,
      "t": 55888.35749999998,
      "d": 122.56218749999971,
      "v": 29
    },
    {
      "midi": 55,
      "hit": false,
      "t": 55888.35749999998,
      "d": 122.56218749999971,
      "v": 29
    },
    {
      "midi": 58,
      "hit": false,
      "t": 55888.35749999998,
      "d": 122.56218749999971,
      "v": 36
    },
    {
      "midi": 39,
      "hit": false,
      "t": 56215.18999999997,
      "d": 653.6650000000009,
      "v": 29
    },
    {
      "midi": 46,
      "hit": false,
      "t": 56215.18999999997,
      "d": 653.6650000000009,
      "v": 34
    },
    {
      "midi": 51,
      "hit": false,
      "t": 57849.35249999997,
      "d": 122.56218749999971,
      "v": 39
    },
    {
      "midi": 53,
      "hit": false,
      "t": 57849.35249999997,
      "d": 122.56218749999971,
      "v": 32
    },
    {
      "midi": 55,
      "hit": false,
      "t": 57849.35249999997,
      "d": 122.56218749999971,
      "v": 32
    },
    {
      "midi": 58,
      "hit": false,
      "t": 57849.35249999997,
      "d": 122.56218749999971,
      "v": 39
    },
    {
      "midi": 39,
      "hit": false,
      "t": 58176.18499999997,
      "d": 122.56218749999971,
      "v": 38
    },
    {
      "midi": 46,
      "hit": false,
      "t": 58176.18499999997,
      "d": 122.56218749999971,
      "v": 38
    },
    {
      "midi": 51,
      "hit": false,
      "t": 58503.017499999965,
      "d": 122.56218749999971,
      "v": 36
    },
    {
      "midi": 53,
      "hit": false,
      "t": 58503.017499999965,
      "d": 122.56218749999971,
      "v": 30
    },
    {
      "midi": 55,
      "hit": false,
      "t": 58503.017499999965,
      "d": 122.56218749999971,
      "v": 30
    },
    {
      "midi": 58,
      "hit": false,
      "t": 58503.017499999965,
      "d": 122.56218749999971,
      "v": 36
    },
    {
      "midi": 39,
      "hit": false,
      "t": 58829.84999999996,
      "d": 653.6650000000009,
      "v": 34
    },
    {
      "midi": 41,
      "hit": false,
      "t": 59483.51499999996,
      "d": 653.6650000000009,
      "v": 34
    },
    {
      "midi": 42,
      "hit": false,
      "t": 60137.179999999964,
      "d": 163.41625000000204,
      "v": 30
    },
    {
      "midi": 49,
      "hit": false,
      "t": 60137.179999999964,
      "d": 2614.6599999999744,
      "v": 30
    },
    {
      "midi": 57,
      "hit": false,
      "t": 60382.30437499996,
      "d": 81.70812499999738,
      "v": 25
    },
    {
      "midi": 58,
      "hit": false,
      "t": 60464.01249999996,
      "d": 81.70812499999738,
      "v": 25
    },
    {
      "midi": 61,
      "hit": false,
      "t": 60464.01249999996,
      "d": 81.70812499999738,
      "v": 30
    },
    {
      "midi": 42,
      "hit": false,
      "t": 60790.84499999996,
      "d": 163.41625000000204,
      "v": 29
    },
    {
      "midi": 57,
      "hit": false,
      "t": 61035.96937499996,
      "d": 81.70812499999738,
      "v": 25
    },
    {
      "midi": 58,
      "hit": false,
      "t": 61117.677499999954,
      "d": 81.70812499999738,
      "v": 25
    },
    {
      "midi": 61,
      "hit": false,
      "t": 61117.677499999954,
      "d": 81.70812499999738,
      "v": 30
    },
    {
      "midi": 42,
      "hit": false,
      "t": 61444.50999999995,
      "d": 163.41625000000204,
      "v": 30
    },
    {
      "midi": 55,
      "hit": false,
      "t": 61689.63437499995,
      "d": 81.70812499999738,
      "v": 25
    },
    {
      "midi": 56,
      "hit": false,
      "t": 61771.34249999995,
      "d": 81.70812499999738,
      "v": 28
    },
    {
      "midi": 59,
      "hit": false,
      "t": 61771.34249999995,
      "d": 81.70812499999738,
      "v": 33
    },
    {
      "midi": 42,
      "hit": false,
      "t": 62098.174999999945,
      "d": 163.41625000000204,
      "v": 29
    },
    {
      "midi": 56,
      "hit": false,
      "t": 62343.299374999944,
      "d": 81.70812499999738,
      "v": 25
    },
    {
      "midi": 57,
      "hit": false,
      "t": 62425.00749999994,
      "d": 81.70812499999738,
      "v": 32
    },
    {
      "midi": 60,
      "hit": false,
      "t": 62425.00749999994,
      "d": 81.70812499999738,
      "v": 38
    },
    {
      "midi": 65,
      "hit": false,
      "t": 62425.00749999994,
      "d": 81.70812499999738,
      "v": 38
    },
    {
      "midi": 51,
      "hit": false,
      "t": 62670.13187499994,
      "d": 81.70812499999738,
      "v": 24
    },
    {
      "midi": 42,
      "hit": false,
      "t": 62751.83999999994,
      "d": 163.41625000000204,
      "v": 30
    },
    {
      "midi": 49,
      "hit": false,
      "t": 62751.83999999994,
      "d": 2614.6599999999744,
      "v": 30
    },
    {
      "midi": 57,
      "hit": false,
      "t": 62996.96437499994,
      "d": 81.70812499999738,
      "v": 25
    },
    {
      "midi": 58,
      "hit": false,
      "t": 63078.672499999935,
      "d": 81.70812499999738,
      "v": 25
    },
    {
      "midi": 61,
      "hit": false,
      "t": 63078.672499999935,
      "d": 81.70812499999738,
      "v": 30
    },
    {
      "midi": 42,
      "hit": false,
      "t": 63405.50499999993,
      "d": 163.41625000000204,
      "v": 29
    },
    {
      "midi": 57,
      "hit": false,
      "t": 63650.62937499993,
      "d": 81.70812499999738,
      "v": 25
    },
    {
      "midi": 58,
      "hit": false,
      "t": 63732.33749999993,
      "d": 81.70812499999738,
      "v": 25
    },
    {
      "midi": 61,
      "hit": false,
      "t": 63732.33749999993,
      "d": 81.70812499999738,
      "v": 30
    },
    {
      "midi": 42,
      "hit": false,
      "t": 64059.169999999925,
      "d": 163.41625000000204,
      "v": 30
    },
    {
      "midi": 55,
      "hit": false,
      "t": 64304.294374999925,
      "d": 81.70812499999738,
      "v": 25
    },
    {
      "midi": 56,
      "hit": false,
      "t": 64386.00249999992,
      "d": 81.70812499999738,
      "v": 28
    },
    {
      "midi": 59,
      "hit": false,
      "t": 64386.00249999992,
      "d": 81.70812499999738,
      "v": 33
    },
    {
      "midi": 42,
      "hit": false,
      "t": 64712.83499999992,
      "d": 163.41625000000204,
      "v": 29
    },
    {
      "midi": 56,
      "hit": false,
      "t": 64957.95937499992,
      "d": 81.70812499999738,
      "v": 25
    },
    {
      "midi": 57,
      "hit": false,
      "t": 65039.667499999916,
      "d": 81.70812499999738,
      "v": 32
    },
    {
      "midi": 60,
      "hit": false,
      "t": 65039.667499999916,
      "d": 81.70812499999738,
      "v": 38
    },
    {
      "midi": 65,
      "hit": false,
      "t": 65039.667499999916,
      "d": 81.70812499999738,
      "v": 38
    },
    {
      "midi": 49,
      "hit": false,
      "t": 65366.49999999991,
      "d": 2614.6600000000035,
      "v": 30
    },
    {
      "midi": 57,
      "hit": false,
      "t": 65611.62437499991,
      "d": 81.70812500000466,
      "v": 25
    },
    {
      "midi": 58,
      "hit": false,
      "t": 65693.33249999992,
      "d": 81.70812500000466,
      "v": 25
    },
    {
      "midi": 61,
      "hit": false,
      "t": 65693.33249999992,
      "d": 81.70812500000466,
      "v": 30
    },
    {
      "midi": 42,
      "hit": false,
      "t": 65693.33249999992,
      "d": 163.4162500000093,
      "v": 29
    },
    {
      "midi": 41,
      "hit": false,
      "t": 66020.16499999992,
      "d": 163.41624999999476,
      "v": 29
    },
    {
      "midi": 39,
      "hit": false,
      "t": 66346.99749999991,
      "d": 163.41624999999476,
      "v": 29
    },
    {
      "midi": 37,
      "hit": false,
      "t": 66673.8299999999,
      "d": 326.8325000000041,
      "v": 37
    },
    {
      "midi": 57,
      "hit": false,
      "t": 67245.7868749999,
      "d": 81.70812500000466,
      "v": 25
    },
    {
      "midi": 58,
      "hit": false,
      "t": 67327.49499999991,
      "d": 81.70812500000466,
      "v": 28
    },
    {
      "midi": 61,
      "hit": false,
      "t": 67327.49499999991,
      "d": 81.70812500000466,
      "v": 33
    },
    {
      "midi": 42,
      "hit": false,
      "t": 68307.99249999992,
      "d": 163.41624999999476,
      "v": 29
    },
    {
      "midi": 41,
      "hit": false,
      "t": 68634.82499999991,
      "d": 163.41624999999476,
      "v": 29
    },
    {
      "midi": 39,
      "hit": false,
      "t": 68961.6574999999,
      "d": 163.41624999999476,
      "v": 29
    },
    {
      "midi": 37,
      "hit": false,
      "t": 69288.48999999989,
      "d": 163.41624999999476,
      "v": 37
    },
    {
      "midi": 35,
      "hit": false,
      "t": 69615.32249999988,
      "d": 163.41624999999476,
      "v": 32
    },
    {
      "midi": 48,
      "hit": false,
      "t": 69860.44687499988,
      "d": 81.70812500000466,
      "v": 21
    },
    {
      "midi": 47,
      "hit": false,
      "t": 69942.15499999988,
      "d": 81.70812500000466,
      "v": 22
    },
    {
      "midi": 51,
      "hit": false,
      "t": 69942.15499999988,
      "d": 81.70812500000466,
      "v": 27
    },
    {
      "midi": 34,
      "hit": false,
      "t": 69942.15499999988,
      "d": 163.4162500000093,
      "v": 30
    },
    {
      "midi": 32,
      "hit": false,
      "t": 70268.98749999989,
      "d": 163.41624999999476,
      "v": 30
    },
    {
      "midi": 42,
      "hit": false,
      "t": 70595.81999999988,
      "d": 163.41624999999476,
      "v": 30
    },
    {
      "midi": 49,
      "hit": false,
      "t": 70595.81999999988,
      "d": 2614.6600000000326,
      "v": 30
    },
    {
      "midi": 57,
      "hit": false,
      "t": 70840.94437499988,
      "d": 81.70812500000466,
      "v": 25
    },
    {
      "midi": 58,
      "hit": false,
      "t": 70922.65249999988,
      "d": 81.70812500000466,
      "v": 25
    },
    {
      "midi": 61,
      "hit": false,
      "t": 70922.65249999988,
      "d": 81.70812500000466,
      "v": 30
    },
    {
      "midi": 42,
      "hit": false,
      "t": 71249.48499999988,
      "d": 163.41624999999476,
      "v": 29
    },
    {
      "midi": 57,
      "hit": false,
      "t": 71494.60937499988,
      "d": 81.70812500000466,
      "v": 25
    },
    {
      "midi": 58,
      "hit": false,
      "t": 71576.31749999989,
      "d": 81.70812500000466,
      "v": 25
    },
    {
      "midi": 61,
      "hit": false,
      "t": 71576.31749999989,
      "d": 81.70812500000466,
      "v": 30
    },
    {
      "midi": 42,
      "hit": false,
      "t": 71903.14999999989,
      "d": 163.41624999999476,
      "v": 30
    },
    {
      "midi": 55,
      "hit": false,
      "t": 72148.27437499989,
      "d": 81.70812500000466,
      "v": 25
    },
    {
      "midi": 56,
      "hit": false,
      "t": 72229.9824999999,
      "d": 81.70812500000466,
      "v": 28
    },
    {
      "midi": 59,
      "hit": false,
      "t": 72229.9824999999,
      "d": 81.70812500000466,
      "v": 33
    },
    {
      "midi": 42,
      "hit": false,
      "t": 72556.8149999999,
      "d": 163.41624999999476,
      "v": 29
    },
    {
      "midi": 56,
      "hit": false,
      "t": 72801.9393749999,
      "d": 81.70812500000466,
      "v": 25
    },
    {
      "midi": 57,
      "hit": false,
      "t": 72883.6474999999,
      "d": 81.70812500000466,
      "v": 32
    },
    {
      "midi": 60,
      "hit": false,
      "t": 72883.6474999999,
      "d": 81.70812500000466,
      "v": 38
    },
    {
      "midi": 65,
      "hit": false,
      "t": 72883.6474999999,
      "d": 81.70812500000466,
      "v": 38
    },
    {
      "midi": 51,
      "hit": false,
      "t": 73128.7718749999,
      "d": 81.70812500000466,
      "v": 24
    },
    {
      "midi": 42,
      "hit": false,
      "t": 73210.47999999991,
      "d": 163.41624999999476,
      "v": 30
    },
    {
      "midi": 49,
      "hit": false,
      "t": 73210.47999999991,
      "d": 2614.6600000000326,
      "v": 30
    },
    {
      "midi": 57,
      "hit": false,
      "t": 73455.60437499991,
      "d": 81.70812500000466,
      "v": 25
    },
    {
      "midi": 58,
      "hit": false,
      "t": 73537.31249999991,
      "d": 81.70812500000466,
      "v": 25
    },
    {
      "midi": 61,
      "hit": false,
      "t": 73537.31249999991,
      "d": 81.70812500000466,
      "v": 30
    },
    {
      "midi": 42,
      "hit": false,
      "t": 73864.14499999992,
      "d": 163.41624999999476,
      "v": 29
    },
    {
      "midi": 57,
      "hit": false,
      "t": 74109.26937499992,
      "d": 81.70812500000466,
      "v": 25
    },
    {
      "midi": 58,
      "hit": false,
      "t": 74190.97749999992,
      "d": 81.70812500000466,
      "v": 25
    },
    {
      "midi": 61,
      "hit": false,
      "t": 74190.97749999992,
      "d": 81.70812500000466,
      "v": 30
    },
    {
      "midi": 42,
      "hit": false,
      "t": 74517.80999999992,
      "d": 163.41624999999476,
      "v": 30
    },
    {
      "midi": 55,
      "hit": false,
      "t": 74762.93437499992,
      "d": 81.70812500000466,
      "v": 25
    },
    {
      "midi": 56,
      "hit": false,
      "t": 74844.64249999993,
      "d": 81.70812500000466,
      "v": 28
    },
    {
      "midi": 59,
      "hit": false,
      "t": 74844.64249999993,
      "d": 81.70812500000466,
      "v": 33
    },
    {
      "midi": 42,
      "hit": false,
      "t": 75171.47499999993,
      "d": 163.41624999999476,
      "v": 29
    },
    {
      "midi": 56,
      "hit": false,
      "t": 75416.59937499993,
      "d": 81.70812500000466,
      "v": 25
    },
    {
      "midi": 57,
      "hit": false,
      "t": 75498.30749999994,
      "d": 81.70812500000466,
      "v": 32
    },
    {
      "midi": 60,
      "hit": false,
      "t": 75498.30749999994,
      "d": 81.70812500000466,
      "v": 38
    },
    {
      "midi": 65,
      "hit": false,
      "t": 75498.30749999994,
      "d": 81.70812500000466,
      "v": 38
    },
    {
      "midi": 49,
      "hit": false,
      "t": 75825.13999999994,
      "d": 2941.492499999993,
      "v": 30
    },
    {
      "midi": 57,
      "hit": false,
      "t": 76070.26437499994,
      "d": 81.70812500000466,
      "v": 25
    },
    {
      "midi": 58,
      "hit": false,
      "t": 76151.97249999995,
      "d": 81.70812500000466,
      "v": 25
    },
    {
      "midi": 61,
      "hit": false,
      "t": 76151.97249999995,
      "d": 81.70812500000466,
      "v": 30
    },
    {
      "midi": 42,
      "hit": false,
      "t": 76151.97249999995,
      "d": 163.4162500000093,
      "v": 29
    },
    {
      "midi": 41,
      "hit": false,
      "t": 76478.80499999995,
      "d": 163.41624999999476,
      "v": 29
    },
    {
      "midi": 39,
      "hit": false,
      "t": 76805.63749999994,
      "d": 163.41624999999476,
      "v": 29
    },
    {
      "midi": 37,
      "hit": false,
      "t": 77132.46999999993,
      "d": 326.8325000000041,
      "v": 37
    },
    {
      "midi": 39,
      "hit": false,
      "t": 78766.63249999993,
      "d": 326.8325000000041,
      "v": 37
    },
    {
      "midi": 41,
      "hit": false,
      "t": 79093.46499999994,
      "d": 326.8325000000041,
      "v": 41
    },
    {
      "midi": 57,
      "hit": false,
      "t": 79093.46499999994,
      "d": 1634.1625000000058,
      "v": 46
    },
    {
      "midi": 42,
      "hit": false,
      "t": 79420.29749999994,
      "d": 326.8325000000041,
      "v": 38
    },
    {
      "midi": 45,
      "hit": false,
      "t": 79747.12999999995,
      "d": 326.8325000000041,
      "v": 49
    },
    {
      "midi": 65,
      "hit": false,
      "t": 79747.12999999995,
      "d": 980.4974999999977,
      "v": 63
    },
    {
      "midi": 46,
      "hit": false,
      "t": 80073.96249999995,
      "d": 326.8325000000041,
      "v": 42
    },
    {
      "midi": 47,
      "hit": false,
      "t": 80400.79499999995,
      "d": 326.8324999999895,
      "v": 55
    },
    {
      "midi": 48,
      "hit": false,
      "t": 80727.62749999994,
      "d": 326.8325000000041,
      "v": 46
    },
    {
      "midi": 58,
      "hit": false,
      "t": 80727.62749999994,
      "d": 326.8325000000041,
      "v": 68
    },
    {
      "midi": 64,
      "hit": false,
      "t": 80727.62749999994,
      "d": 326.8325000000041,
      "v": 68
    },
    {
      "midi": 44,
      "hit": false,
      "t": 81054.45999999995,
      "d": 1307.3300000000163,
      "v": 24
    },
    {
      "midi": 49,
      "hit": false,
      "t": 81054.45999999995,
      "d": 1307.3300000000163,
      "v": 29
    },
    {
      "midi": 63,
      "hit": false,
      "t": 81054.45999999995,
      "d": 1307.3300000000163,
      "v": 49
    },
    {
      "midi": 74,
      "hit": false,
      "t": 81299.58437499995,
      "d": 81.70812500000466,
      "v": 25
    },
    {
      "midi": 56,
      "hit": false,
      "t": 81381.29249999995,
      "d": 81.70812500000466,
      "v": 29
    },
    {
      "midi": 59,
      "hit": false,
      "t": 81381.29249999995,
      "d": 81.70812500000466,
      "v": 29
    },
    {
      "midi": 65,
      "hit": false,
      "t": 81381.29249999995,
      "d": 81.70812500000466,
      "v": 29
    },
    {
      "midi": 71,
      "hit": false,
      "t": 81381.29249999995,
      "d": 81.70812500000466,
      "v": 28
    },
    {
      "midi": 75,
      "hit": false,
      "t": 81381.29249999995,
      "d": 81.70812500000466,
      "v": 33
    },
    {
      "midi": 72,
      "hit": false,
      "t": 81626.41687499995,
      "d": 81.70812500000466,
      "v": 25
    },
    {
      "midi": 56,
      "hit": false,
      "t": 81708.12499999996,
      "d": 81.70812500000466,
      "v": 29
    },
    {
      "midi": 59,
      "hit": false,
      "t": 81708.12499999996,
      "d": 81.70812500000466,
      "v": 29
    },
    {
      "midi": 65,
      "hit": false,
      "t": 81708.12499999996,
      "d": 81.70812500000466,
      "v": 29
    },
    {
      "midi": 71,
      "hit": false,
      "t": 81708.12499999996,
      "d": 81.70812500000466,
      "v": 28
    },
    {
      "midi": 73,
      "hit": false,
      "t": 81708.12499999996,
      "d": 81.70812500000466,
      "v": 33
    },
    {
      "midi": 74,
      "hit": false,
      "t": 81953.24937499996,
      "d": 81.70812500000466,
      "v": 25
    },
    {
      "midi": 56,
      "hit": false,
      "t": 82034.95749999996,
      "d": 81.70812500000466,
      "v": 29
    },
    {
      "midi": 59,
      "hit": false,
      "t": 82034.95749999996,
      "d": 81.70812500000466,
      "v": 29
    },
    {
      "midi": 65,
      "hit": false,
      "t": 82034.95749999996,
      "d": 81.70812500000466,
      "v": 29
    },
    {
      "midi": 71,
      "hit": false,
      "t": 82034.95749999996,
      "d": 81.70812500000466,
      "v": 38
    },
    {
      "midi": 75,
      "hit": false,
      "t": 82034.95749999996,
      "d": 81.70812500000466,
      "v": 38
    },
    {
      "midi": 74,
      "hit": false,
      "t": 82606.91437499996,
      "d": 81.70812500000466,
      "v": 25
    },
    {
      "midi": 56,
      "hit": false,
      "t": 82688.62249999997,
      "d": 81.70812500000466,
      "v": 29
    },
    {
      "midi": 59,
      "hit": false,
      "t": 82688.62249999997,
      "d": 81.70812500000466,
      "v": 29
    },
    {
      "midi": 65,
      "hit": false,
      "t": 82688.62249999997,
      "d": 81.70812500000466,
      "v": 29
    },
    {
      "midi": 71,
      "hit": false,
      "t": 82688.62249999997,
      "d": 81.70812500000466,
      "v": 28
    },
    {
      "midi": 75,
      "hit": false,
      "t": 82688.62249999997,
      "d": 81.70812500000466,
      "v": 33
    },
    {
      "midi": 72,
      "hit": false,
      "t": 82933.74687499997,
      "d": 81.70812500000466,
      "v": 25
    },
    {
      "midi": 56,
      "hit": false,
      "t": 83015.45499999997,
      "d": 81.70812500000466,
      "v": 29
    },
    {
      "midi": 59,
      "hit": false,
      "t": 83015.45499999997,
      "d": 81.70812500000466,
      "v": 29
    },
    {
      "midi": 65,
      "hit": false,
      "t": 83015.45499999997,
      "d": 81.70812500000466,
      "v": 29
    },
    {
      "midi": 71,
      "hit": false,
      "t": 83015.45499999997,
      "d": 81.70812500000466,
      "v": 28
    },
    {
      "midi": 73,
      "hit": false,
      "t": 83015.45499999997,
      "d": 81.70812500000466,
      "v": 33
    },
    {
      "midi": 74,
      "hit": false,
      "t": 83260.57937499997,
      "d": 81.70812500000466,
      "v": 25
    },
    {
      "midi": 56,
      "hit": false,
      "t": 83342.28749999998,
      "d": 81.70812500000466,
      "v": 29
    },
    {
      "midi": 59,
      "hit": false,
      "t": 83342.28749999998,
      "d": 81.70812500000466,
      "v": 29
    },
    {
      "midi": 65,
      "hit": false,
      "t": 83342.28749999998,
      "d": 81.70812500000466,
      "v": 29
    },
    {
      "midi": 71,
      "hit": false,
      "t": 83342.28749999998,
      "d": 81.70812500000466,
      "v": 38
    },
    {
      "midi": 75,
      "hit": false,
      "t": 83342.28749999998,
      "d": 81.70812500000466,
      "v": 38
    },
    {
      "midi": 57,
      "hit": false,
      "t": 84322.78499999997,
      "d": 1960.9949999999953,
      "v": 46
    },
    {
      "midi": 65,
      "hit": false,
      "t": 84976.44999999997,
      "d": 980.4974999999977,
      "v": 63
    },
    {
      "midi": 49,
      "hit": false,
      "t": 84976.44999999997,
      "d": 2614.659999999989,
      "v": 29
    },
    {
      "midi": 64,
      "hit": false,
      "t": 85956.94749999997,
      "d": 326.8325000000041,
      "v": 68
    },
    {
      "midi": 42,
      "hit": false,
      "t": 86283.77999999997,
      "d": 1307.3299999999872,
      "v": 24
    },
    {
      "midi": 63,
      "hit": false,
      "t": 86283.77999999997,
      "d": 1307.3299999999872,
      "v": 49
    },
    {
      "midi": 74,
      "hit": false,
      "t": 86528.90437499997,
      "d": 81.7081249999901,
      "v": 25
    },
    {
      "midi": 58,
      "hit": false,
      "t": 86610.61249999996,
      "d": 81.70812500000466,
      "v": 29
    },
    {
      "midi": 61,
      "hit": false,
      "t": 86610.61249999996,
      "d": 81.70812500000466,
      "v": 29
    },
    {
      "midi": 66,
      "hit": false,
      "t": 86610.61249999996,
      "d": 81.70812500000466,
      "v": 29
    },
    {
      "midi": 70,
      "hit": false,
      "t": 86610.61249999996,
      "d": 81.70812500000466,
      "v": 28
    },
    {
      "midi": 75,
      "hit": false,
      "t": 86610.61249999996,
      "d": 81.70812500000466,
      "v": 33
    },
    {
      "midi": 72,
      "hit": false,
      "t": 86855.73687499996,
      "d": 81.7081249999901,
      "v": 25
    },
    {
      "midi": 58,
      "hit": false,
      "t": 86937.44499999995,
      "d": 81.70812500000466,
      "v": 29
    },
    {
      "midi": 61,
      "hit": false,
      "t": 86937.44499999995,
      "d": 81.70812500000466,
      "v": 29
    },
    {
      "midi": 66,
      "hit": false,
      "t": 86937.44499999995,
      "d": 81.70812500000466,
      "v": 29
    },
    {
      "midi": 70,
      "hit": false,
      "t": 86937.44499999995,
      "d": 81.70812500000466,
      "v": 28
    },
    {
      "midi": 73,
      "hit": false,
      "t": 86937.44499999995,
      "d": 81.70812500000466,
      "v": 33
    },
    {
      "midi": 74,
      "hit": false,
      "t": 87182.56937499995,
      "d": 81.70812500000466,
      "v": 25
    },
    {
      "midi": 58,
      "hit": false,
      "t": 87264.27749999995,
      "d": 81.70812500000466,
      "v": 29
    },
    {
      "midi": 61,
      "hit": false,
      "t": 87264.27749999995,
      "d": 81.70812500000466,
      "v": 29
    },
    {
      "midi": 66,
      "hit": false,
      "t": 87264.27749999995,
      "d": 81.70812500000466,
      "v": 29
    },
    {
      "midi": 70,
      "hit": false,
      "t": 87264.27749999995,
      "d": 81.70812500000466,
      "v": 38
    },
    {
      "midi": 75,
      "hit": false,
      "t": 87264.27749999995,
      "d": 81.70812500000466,
      "v": 38
    },
    {
      "midi": 74,
      "hit": false,
      "t": 87836.23437499996,
      "d": 81.70812500000466,
      "v": 25
    },
    {
      "midi": 58,
      "hit": false,
      "t": 87917.94249999996,
      "d": 81.70812500000466,
      "v": 29
    },
    {
      "midi": 61,
      "hit": false,
      "t": 87917.94249999996,
      "d": 81.70812500000466,
      "v": 29
    },
    {
      "midi": 66,
      "hit": false,
      "t": 87917.94249999996,
      "d": 81.70812500000466,
      "v": 29
    },
    {
      "midi": 70,
      "hit": false,
      "t": 87917.94249999996,
      "d": 81.70812500000466,
      "v": 28
    },
    {
      "midi": 75,
      "hit": false,
      "t": 87917.94249999996,
      "d": 81.70812500000466,
      "v": 33
    },
    {
      "midi": 72,
      "hit": false,
      "t": 88163.06687499996,
      "d": 81.70812500000466,
      "v": 25
    },
    {
      "midi": 58,
      "hit": false,
      "t": 88244.77499999997,
      "d": 81.7081249999901,
      "v": 29
    },
    {
      "midi": 61,
      "hit": false,
      "t": 88244.77499999997,
      "d": 81.7081249999901,
      "v": 29
    },
    {
      "midi": 66,
      "hit": false,
      "t": 88244.77499999997,
      "d": 81.7081249999901,
      "v": 29
    },
    {
      "midi": 70,
      "hit": false,
      "t": 88244.77499999997,
      "d": 81.7081249999901,
      "v": 28
    },
    {
      "midi": 73,
      "hit": false,
      "t": 88244.77499999997,
      "d": 81.7081249999901,
      "v": 33
    },
    {
      "midi": 74,
      "hit": false,
      "t": 88489.89937499995,
      "d": 81.70812500000466,
      "v": 25
    },
    {
      "midi": 58,
      "hit": false,
      "t": 88571.60749999995,
      "d": 81.70812500000466,
      "v": 29
    },
    {
      "midi": 61,
      "hit": false,
      "t": 88571.60749999995,
      "d": 81.70812500000466,
      "v": 29
    },
    {
      "midi": 66,
      "hit": false,
      "t": 88571.60749999995,
      "d": 81.70812500000466,
      "v": 29
    },
    {
      "midi": 70,
      "hit": false,
      "t": 88571.60749999995,
      "d": 81.70812500000466,
      "v": 38
    },
    {
      "midi": 75,
      "hit": false,
      "t": 88571.60749999995,
      "d": 81.70812500000466,
      "v": 38
    },
    {
      "midi": 57,
      "hit": false,
      "t": 89552.10499999995,
      "d": 653.6649999999936,
      "v": 42
    },
    {
      "midi": 69,
      "hit": false,
      "t": 89552.10499999995,
      "d": 653.6649999999936,
      "v": 50
    },
    {
      "midi": 65,
      "hit": false,
      "t": 90205.76999999995,
      "d": 326.8325000000041,
      "v": 53
    },
    {
      "midi": 77,
      "hit": false,
      "t": 90205.76999999995,
      "d": 326.8325000000041,
      "v": 63
    },
    {
      "midi": 68,
      "hit": false,
      "t": 90532.60249999995,
      "d": 653.6649999999936,
      "v": 62
    },
    {
      "midi": 80,
      "hit": false,
      "t": 90532.60249999995,
      "d": 653.6649999999936,
      "v": 74
    },
    {
      "midi": 66,
      "hit": false,
      "t": 91186.26749999994,
      "d": 326.8325000000041,
      "v": 57
    },
    {
      "midi": 78,
      "hit": false,
      "t": 91186.26749999994,
      "d": 326.8325000000041,
      "v": 68
    },
    {
      "midi": 75,
      "hit": false,
      "t": 91513.09999999995,
      "d": 163.41624999999476,
      "v": 68
    },
    {
      "midi": 70,
      "hit": false,
      "t": 91513.09999999995,
      "d": 326.8324999999895,
      "v": 57
    },
    {
      "midi": 49,
      "hit": false,
      "t": 91513.09999999995,
      "d": 1307.3300000000017,
      "v": 29
    },
    {
      "midi": 78,
      "hit": false,
      "t": 91676.51624999994,
      "d": 326.8324999999895,
      "v": 74
    },
    {
      "midi": 65,
      "hit": false,
      "t": 91839.93249999994,
      "d": 326.8324999999895,
      "v": 49
    },
    {
      "midi": 68,
      "hit": false,
      "t": 91839.93249999994,
      "d": 326.8324999999895,
      "v": 72
    },
    {
      "midi": 56,
      "hit": false,
      "t": 91839.93249999994,
      "d": 980.4975000000122,
      "v": 41
    },
    {
      "midi": 59,
      "hit": false,
      "t": 91839.93249999994,
      "d": 980.4975000000122,
      "v": 41
    },
    {
      "midi": 77,
      "hit": false,
      "t": 92003.34874999993,
      "d": 163.41624999999476,
      "v": 68
    },
    {
      "midi": 63,
      "hit": false,
      "t": 92166.76499999993,
      "d": 326.8325000000186,
      "v": 49
    },
    {
      "midi": 66,
      "hit": false,
      "t": 92166.76499999993,
      "d": 326.8325000000186,
      "v": 66
    },
    {
      "midi": 73,
      "hit": false,
      "t": 92166.76499999993,
      "d": 653.6650000000227,
      "v": 78
    },
    {
      "midi": 61,
      "hit": false,
      "t": 92493.59749999995,
      "d": 326.8325000000041,
      "v": 41
    },
    {
      "midi": 65,
      "hit": false,
      "t": 92493.59749999995,
      "d": 326.8325000000041,
      "v": 57
    },
    {
      "midi": 68,
      "hit": false,
      "t": 92820.42999999995,
      "d": 163.41624999999476,
      "v": 57
    },
    {
      "midi": 54,
      "hit": false,
      "t": 92820.42999999995,
      "d": 326.8324999999895,
      "v": 41
    },
    {
      "midi": 63,
      "hit": false,
      "t": 92820.42999999995,
      "d": 326.8324999999895,
      "v": 48
    },
    {
      "midi": 71,
      "hit": false,
      "t": 92983.84624999994,
      "d": 326.8324999999895,
      "v": 61
    },
    {
      "midi": 53,
      "hit": false,
      "t": 93147.26249999994,
      "d": 326.8324999999895,
      "v": 41
    },
    {
      "midi": 61,
      "hit": false,
      "t": 93147.26249999994,
      "d": 326.8324999999895,
      "v": 55
    },
    {
      "midi": 70,
      "hit": false,
      "t": 93310.67874999993,
      "d": 163.41624999999476,
      "v": 57
    },
    {
      "midi": 51,
      "hit": false,
      "t": 93474.09499999993,
      "d": 326.8325000000186,
      "v": 36
    },
    {
      "midi": 59,
      "hit": false,
      "t": 93474.09499999993,
      "d": 326.8325000000186,
      "v": 42
    },
    {
      "midi": 61,
      "hit": false,
      "t": 93474.09499999993,
      "d": 653.6650000000227,
      "v": 50
    },
    {
      "midi": 49,
      "hit": false,
      "t": 93800.92749999995,
      "d": 653.6650000000081,
      "v": 34
    },
    {
      "midi": 58,
      "hit": false,
      "t": 93800.92749999995,
      "d": 653.6650000000081,
      "v": 42
    },
    {
      "midi": 42,
      "hit": false,
      "t": 94127.75999999995,
      "d": 1307.3300000000163,
      "v": 29
    },
    {
      "midi": 49,
      "hit": false,
      "t": 94454.59249999996,
      "d": 653.6650000000081,
      "v": 34
    },
    {
      "midi": 57,
      "hit": false,
      "t": 94781.42499999996,
      "d": 1307.3300000000163,
      "v": 46
    },
    {
      "midi": 49,
      "hit": false,
      "t": 95108.25749999996,
      "d": 653.6650000000081,
      "v": 34
    },
    {
      "midi": 65,
      "hit": false,
      "t": 95435.08999999997,
      "d": 980.4974999999977,
      "v": 63
    },
    {
      "midi": 43,
      "hit": false,
      "t": 95435.08999999997,
      "d": 1307.3300000000017,
      "v": 29
    },
    {
      "midi": 49,
      "hit": false,
      "t": 95761.92249999997,
      "d": 980.4974999999977,
      "v": 42
    },
    {
      "midi": 58,
      "hit": false,
      "t": 96088.75499999998,
      "d": 653.6649999999936,
      "v": 68
    },
    {
      "midi": 64,
      "hit": false,
      "t": 96415.58749999997,
      "d": 326.8325000000041,
      "v": 68
    },
    {
      "midi": 44,
      "hit": false,
      "t": 96742.41999999997,
      "d": 1307.3300000000163,
      "v": 24
    },
    {
      "midi": 49,
      "hit": false,
      "t": 96742.41999999997,
      "d": 1307.3300000000163,
      "v": 29
    },
    {
      "midi": 74,
      "hit": false,
      "t": 96987.54437499997,
      "d": 81.70812500000466,
      "v": 25
    },
    {
      "midi": 56,
      "hit": false,
      "t": 97069.25249999997,
      "d": 81.70812500000466,
      "v": 29
    },
    {
      "midi": 59,
      "hit": false,
      "t": 97069.25249999997,
      "d": 81.70812500000466,
      "v": 29
    },
    {
      "midi": 66,
      "hit": false,
      "t": 97069.25249999997,
      "d": 81.70812500000466,
      "v": 29
    },
    {
      "midi": 71,
      "hit": false,
      "t": 97069.25249999997,
      "d": 81.70812500000466,
      "v": 28
    },
    {
      "midi": 75,
      "hit": false,
      "t": 97069.25249999997,
      "d": 81.70812500000466,
      "v": 33
    },
    {
      "midi": 72,
      "hit": false,
      "t": 97314.37687499997,
      "d": 81.70812500000466,
      "v": 25
    },
    {
      "midi": 56,
      "hit": false,
      "t": 97396.08499999998,
      "d": 81.70812500000466,
      "v": 29
    },
    {
      "midi": 59,
      "hit": false,
      "t": 97396.08499999998,
      "d": 81.70812500000466,
      "v": 29
    },
    {
      "midi": 65,
      "hit": false,
      "t": 97396.08499999998,
      "d": 81.70812500000466,
      "v": 29
    },
    {
      "midi": 71,
      "hit": false,
      "t": 97396.08499999998,
      "d": 81.70812500000466,
      "v": 28
    },
    {
      "midi": 73,
      "hit": false,
      "t": 97396.08499999998,
      "d": 81.70812500000466,
      "v": 33
    },
    {
      "midi": 74,
      "hit": false,
      "t": 97641.20937499998,
      "d": 81.70812500000466,
      "v": 25
    },
    {
      "midi": 56,
      "hit": false,
      "t": 97722.91749999998,
      "d": 81.70812500000466,
      "v": 29
    },
    {
      "midi": 59,
      "hit": false,
      "t": 97722.91749999998,
      "d": 81.70812500000466,
      "v": 29
    },
    {
      "midi": 63,
      "hit": false,
      "t": 97722.91749999998,
      "d": 81.70812500000466,
      "v": 29
    },
    {
      "midi": 71,
      "hit": false,
      "t": 97722.91749999998,
      "d": 81.70812500000466,
      "v": 38
    },
    {
      "midi": 75,
      "hit": false,
      "t": 97722.91749999998,
      "d": 81.70812500000466,
      "v": 38
    },
    {
      "midi": 54,
      "hit": false,
      "t": 98376.58249999999,
      "d": 326.8325000000041,
      "v": 34
    },
    {
      "midi": 53,
      "hit": false,
      "t": 98703.415,
      "d": 326.8325000000041,
      "v": 34
    },
    {
      "midi": 57,
      "hit": false,
      "t": 98703.415,
      "d": 1960.99500000001,
      "v": 46
    },
    {
      "midi": 51,
      "hit": false,
      "t": 99030.2475,
      "d": 980.4975000000122,
      "v": 34
    },
    {
      "midi": 65,
      "hit": false,
      "t": 99357.08,
      "d": 980.4974999999977,
      "v": 63
    },
    {
      "midi": 48,
      "hit": false,
      "t": 100010.74500000001,
      "d": 653.6649999999936,
      "v": 32
    },
    {
      "midi": 64,
      "hit": false,
      "t": 100337.5775,
      "d": 326.8325000000041,
      "v": 53
    },
    {
      "midi": 42,
      "hit": false,
      "t": 100664.41,
      "d": 1307.3299999999872,
      "v": 24
    },
    {
      "midi": 49,
      "hit": false,
      "t": 100664.41,
      "d": 1307.3299999999872,
      "v": 29
    },
    {
      "midi": 74,
      "hit": false,
      "t": 100909.534375,
      "d": 81.70812500000466,
      "v": 25
    },
    {
      "midi": 58,
      "hit": false,
      "t": 100991.24250000001,
      "d": 81.70812500000466,
      "v": 29
    },
    {
      "midi": 61,
      "hit": false,
      "t": 100991.24250000001,
      "d": 81.70812500000466,
      "v": 29
    },
    {
      "midi": 66,
      "hit": false,
      "t": 100991.24250000001,
      "d": 81.70812500000466,
      "v": 29
    },
    {
      "midi": 70,
      "hit": false,
      "t": 100991.24250000001,
      "d": 81.70812500000466,
      "v": 28
    },
    {
      "midi": 75,
      "hit": false,
      "t": 100991.24250000001,
      "d": 81.70812500000466,
      "v": 33
    },
    {
      "midi": 72,
      "hit": false,
      "t": 101236.366875,
      "d": 81.7081249999901,
      "v": 25
    },
    {
      "midi": 58,
      "hit": false,
      "t": 101318.075,
      "d": 81.70812500000466,
      "v": 29
    },
    {
      "midi": 61,
      "hit": false,
      "t": 101318.075,
      "d": 81.70812500000466,
      "v": 29
    },
    {
      "midi": 65,
      "hit": false,
      "t": 101318.075,
      "d": 81.70812500000466,
      "v": 29
    },
    {
      "midi": 70,
      "hit": false,
      "t": 101318.075,
      "d": 81.70812500000466,
      "v": 28
    },
    {
      "midi": 73,
      "hit": false,
      "t": 101318.075,
      "d": 81.70812500000466,
      "v": 33
    },
    {
      "midi": 74,
      "hit": false,
      "t": 101563.199375,
      "d": 81.7081249999901,
      "v": 25
    },
    {
      "midi": 58,
      "hit": false,
      "t": 101644.90749999999,
      "d": 81.70812500000466,
      "v": 29
    },
    {
      "midi": 61,
      "hit": false,
      "t": 101644.90749999999,
      "d": 81.70812500000466,
      "v": 29
    },
    {
      "midi": 63,
      "hit": false,
      "t": 101644.90749999999,
      "d": 81.70812500000466,
      "v": 29
    },
    {
      "midi": 70,
      "hit": false,
      "t": 101644.90749999999,
      "d": 81.70812500000466,
      "v": 38
    },
    {
      "midi": 75,
      "hit": false,
      "t": 101644.90749999999,
      "d": 81.70812500000466,
      "v": 38
    },
    {
      "midi": 61,
      "hit": false,
      "t": 102625.40499999998,
      "d": 653.6649999999936,
      "v": 42
    },
    {
      "midi": 73,
      "hit": false,
      "t": 102625.40499999998,
      "d": 653.6649999999936,
      "v": 50
    },
    {
      "midi": 69,
      "hit": false,
      "t": 103279.06999999998,
      "d": 326.8325000000041,
      "v": 53
    },
    {
      "midi": 81,
      "hit": false,
      "t": 103279.06999999998,
      "d": 326.8325000000041,
      "v": 63
    },
    {
      "midi": 71,
      "hit": false,
      "t": 103605.90249999998,
      "d": 653.6649999999936,
      "v": 62
    },
    {
      "midi": 83,
      "hit": false,
      "t": 103605.90249999998,
      "d": 653.6649999999936,
      "v": 74
    },
    {
      "midi": 70,
      "hit": false,
      "t": 104259.56749999998,
      "d": 326.8325000000041,
      "v": 57
    },
    {
      "midi": 82,
      "hit": false,
      "t": 104259.56749999998,
      "d": 326.8325000000041,
      "v": 68
    },
    {
      "midi": 77,
      "hit": false,
      "t": 104586.39999999998,
      "d": 163.41624999999476,
      "v": 68
    },
    {
      "midi": 70,
      "hit": false,
      "t": 104586.39999999998,
      "d": 326.8324999999895,
      "v": 57
    },
    {
      "midi": 47,
      "hit": false,
      "t": 104586.39999999998,
      "d": 1307.3300000000017,
      "v": 29
    },
    {
      "midi": 80,
      "hit": false,
      "t": 104749.81624999997,
      "d": 326.8324999999895,
      "v": 74
    },
    {
      "midi": 68,
      "hit": false,
      "t": 104913.23249999997,
      "d": 326.8324999999895,
      "v": 72
    },
    {
      "midi": 54,
      "hit": false,
      "t": 104913.23249999997,
      "d": 980.4975000000122,
      "v": 30
    },
    {
      "midi": 56,
      "hit": false,
      "t": 104913.23249999997,
      "d": 980.4975000000122,
      "v": 30
    },
    {
      "midi": 59,
      "hit": false,
      "t": 104913.23249999997,
      "d": 980.4975000000122,
      "v": 41
    },
    {
      "midi": 63,
      "hit": false,
      "t": 104913.23249999997,
      "d": 980.4975000000122,
      "v": 49
    },
    {
      "midi": 78,
      "hit": false,
      "t": 105076.64874999996,
      "d": 163.41624999999476,
      "v": 68
    },
    {
      "midi": 66,
      "hit": false,
      "t": 105240.06499999996,
      "d": 326.8325000000186,
      "v": 66
    },
    {
      "midi": 75,
      "hit": false,
      "t": 105240.06499999996,
      "d": 653.6650000000227,
      "v": 78
    },
    {
      "midi": 65,
      "hit": false,
      "t": 105566.89749999998,
      "d": 326.8325000000041,
      "v": 57
    },
    {
      "midi": 70,
      "hit": false,
      "t": 105893.72999999998,
      "d": 163.41624999999476,
      "v": 57
    },
    {
      "midi": 63,
      "hit": false,
      "t": 105893.72999999998,
      "d": 326.8324999999895,
      "v": 41
    },
    {
      "midi": 73,
      "hit": false,
      "t": 106057.14624999998,
      "d": 326.8324999999895,
      "v": 61
    },
    {
      "midi": 61,
      "hit": false,
      "t": 106220.56249999997,
      "d": 326.8324999999895,
      "v": 41
    },
    {
      "midi": 71,
      "hit": false,
      "t": 106383.97874999997,
      "d": 163.41624999999476,
      "v": 57
    },
    {
      "midi": 59,
      "hit": false,
      "t": 106547.39499999996,
      "d": 217.8883333333506,
      "v": 36
    },
    {
      "midi": 65,
      "hit": false,
      "t": 106547.39499999996,
      "d": 490.2487500000134,
      "v": 50
    },
    {
      "midi": 58,
      "hit": false,
      "t": 106765.28333333331,
      "d": 217.88833333333605,
      "v": 36
    },
    {
      "midi": 56,
      "hit": false,
      "t": 106983.17166666665,
      "d": 217.8883333333215,
      "v": 36
    },
    {
      "midi": 66,
      "hit": false,
      "t": 107037.64374999997,
      "d": 163.41624999999476,
      "v": 50
    },
    {
      "midi": 46,
      "hit": false,
      "t": 107201.05999999997,
      "d": 163.4162500000093,
      "v": 31
    },
    {
      "midi": 54,
      "hit": false,
      "t": 107201.05999999997,
      "d": 5229.320000000051,
      "v": 31
    },
    {
      "midi": 59,
      "hit": false,
      "t": 107201.05999999997,
      "d": 5229.320000000051,
      "v": 31
    },
    {
      "midi": 63,
      "hit": false,
      "t": 107201.05999999997,
      "d": 5229.320000000051,
      "v": 31
    },
    {
      "midi": 49,
      "hit": false,
      "t": 107364.47624999998,
      "d": 326.8325000000041,
      "v": 41
    },
    {
      "midi": 47,
      "hit": false,
      "t": 107691.30874999998,
      "d": 163.41624999999476,
      "v": 37
    },
    {
      "midi": 37,
      "hit": false,
      "t": 107854.72499999998,
      "d": 817.0812500000029,
      "v": 31
    },
    {
      "midi": 39,
      "hit": false,
      "t": 108671.80624999998,
      "d": 326.8325000000041,
      "v": 33
    },
    {
      "midi": 41,
      "hit": false,
      "t": 108998.63874999998,
      "d": 163.41624999999476,
      "v": 27
    },
    {
      "midi": 39,
      "hit": false,
      "t": 109162.05499999998,
      "d": 326.8325000000041,
      "v": 34
    },
    {
      "midi": 37,
      "hit": false,
      "t": 109488.88749999998,
      "d": 2941.4925000000367,
      "v": 31
    },
    {
      "midi": 70,
      "hit": false,
      "t": 110305.96874999999,
      "d": 163.4162500000093,
      "v": 43
    },
    {
      "midi": 68,
      "hit": false,
      "t": 110469.385,
      "d": 326.8325000000041,
      "v": 47
    },
    {
      "midi": 70,
      "hit": false,
      "t": 110796.2175,
      "d": 326.8325000000041,
      "v": 41
    },
    {
      "midi": 70,
      "hit": false,
      "t": 111613.29875,
      "d": 163.4162500000093,
      "v": 43
    },
    {
      "midi": 68,
      "hit": false,
      "t": 111776.71500000001,
      "d": 326.8325000000041,
      "v": 47
    },
    {
      "midi": 70,
      "hit": false,
      "t": 112103.54750000002,
      "d": 326.8325000000041,
      "v": 41
    },
    {
      "midi": 46,
      "hit": false,
      "t": 112430.38000000002,
      "d": 163.4162500000093,
      "v": 31
    },
    {
      "midi": 54,
      "hit": false,
      "t": 112430.38000000002,
      "d": 1307.3300000000017,
      "v": 31
    },
    {
      "midi": 59,
      "hit": false,
      "t": 112430.38000000002,
      "d": 3921.99000000002,
      "v": 31
    },
    {
      "midi": 61,
      "hit": false,
      "t": 112430.38000000002,
      "d": 3921.99000000002,
      "v": 31
    },
    {
      "midi": 49,
      "hit": false,
      "t": 112593.79625000003,
      "d": 326.8325000000041,
      "v": 41
    },
    {
      "midi": 47,
      "hit": false,
      "t": 112920.62875000003,
      "d": 163.41624999999476,
      "v": 37
    },
    {
      "midi": 37,
      "hit": false,
      "t": 113084.04500000003,
      "d": 163.41624999999476,
      "v": 31
    },
    {
      "midi": 39,
      "hit": false,
      "t": 113247.46125000002,
      "d": 326.8325000000041,
      "v": 30
    },
    {
      "midi": 41,
      "hit": false,
      "t": 113574.29375000003,
      "d": 163.41624999999476,
      "v": 33
    },
    {
      "midi": 39,
      "hit": false,
      "t": 113737.71000000002,
      "d": 326.8325000000041,
      "v": 30
    },
    {
      "midi": 53,
      "hit": false,
      "t": 113737.71000000002,
      "d": 2614.660000000018,
      "v": 31
    },
    {
      "midi": 37,
      "hit": false,
      "t": 114055.00988541669,
      "d": 2287.827500000014,
      "v": 27
    },
    {
      "midi": 70,
      "hit": false,
      "t": 114227.95875000002,
      "d": 163.41624999999476,
      "v": 34
    },
    {
      "midi": 68,
      "hit": false,
      "t": 114391.37500000001,
      "d": 326.8325000000041,
      "v": 39
    },
    {
      "midi": 70,
      "hit": false,
      "t": 114718.20750000002,
      "d": 326.8325000000041,
      "v": 34
    },
    {
      "midi": 70,
      "hit": false,
      "t": 115535.28875000002,
      "d": 163.4162500000093,
      "v": 33
    },
    {
      "midi": 68,
      "hit": false,
      "t": 115698.70500000003,
      "d": 326.8325000000041,
      "v": 40
    },
    {
      "midi": 70,
      "hit": false,
      "t": 116025.53750000003,
      "d": 326.8325000000041,
      "v": 32
    },
    {
      "midi": 70,
      "hit": false,
      "t": 116352.37000000004,
      "d": 163.41624999999476,
      "v": 39
    },
    {
      "midi": 68,
      "hit": false,
      "t": 116515.78625000003,
      "d": 163.41624999999476,
      "v": 34
    },
    {
      "midi": 70,
      "hit": false,
      "t": 116842.61875000002,
      "d": 163.41624999999476,
      "v": 42
    },
    {
      "midi": 65,
      "hit": false,
      "t": 117006.03500000002,
      "d": 163.41624999999476,
      "v": 45
    },
    {
      "midi": 70,
      "hit": false,
      "t": 117332.86750000001,
      "d": 122.56218750000698,
      "v": 48
    },
    {
      "midi": 68,
      "hit": false,
      "t": 117659.70000000001,
      "d": 163.41624999999476,
      "v": 39
    },
    {
      "midi": 65,
      "hit": false,
      "t": 117823.11625,
      "d": 163.41624999999476,
      "v": 34
    },
    {
      "midi": 63,
      "hit": false,
      "t": 118149.94875,
      "d": 163.41624999999476,
      "v": 42
    },
    {
      "midi": 59,
      "hit": false,
      "t": 118313.36499999999,
      "d": 163.41624999999476,
      "v": 45
    },
    {
      "midi": 63,
      "hit": false,
      "t": 118640.19749999998,
      "d": 122.56218750000698,
      "v": 48
    },
    {
      "midi": 39,
      "hit": false,
      "t": 118967.02999999998,
      "d": 122.56218750000698,
      "v": 34
    },
    {
      "midi": 46,
      "hit": false,
      "t": 118967.02999999998,
      "d": 122.56218750000698,
      "v": 40
    },
    {
      "midi": 58,
      "hit": false,
      "t": 118967.02999999998,
      "d": 122.56218750000698,
      "v": 80
    },
    {
      "midi": 58,
      "hit": false,
      "t": 119130.44625,
      "d": 163.41624999999476,
      "v": 74
    },
    {
      "midi": 53,
      "hit": false,
      "t": 119293.86249999999,
      "d": 122.56218750000698,
      "v": 28
    },
    {
      "midi": 55,
      "hit": false,
      "t": 119293.86249999999,
      "d": 122.56218750000698,
      "v": 33
    },
    {
      "midi": 60,
      "hit": false,
      "t": 119457.27875,
      "d": 163.41624999999476,
      "v": 74
    },
    {
      "midi": 39,
      "hit": false,
      "t": 119620.69499999999,
      "d": 122.56218750000698,
      "v": 39
    },
    {
      "midi": 46,
      "hit": false,
      "t": 119620.69499999999,
      "d": 122.56218750000698,
      "v": 47
    },
    {
      "midi": 58,
      "hit": false,
      "t": 119620.69499999999,
      "d": 163.4162500000093,
      "v": 76
    },
    {
      "midi": 63,
      "hit": false,
      "t": 119906.67343750001,
      "d": 163.4162500000093,
      "v": 68
    },
    {
      "midi": 53,
      "hit": false,
      "t": 119947.52750000001,
      "d": 122.56218750000698,
      "v": 34
    },
    {
      "midi": 55,
      "hit": false,
      "t": 119947.52750000001,
      "d": 122.56218750000698,
      "v": 41
    },
    {
      "midi": 70,
      "hit": false,
      "t": 119947.52750000001,
      "d": 122.56218750000698,
      "v": 80
    },
    {
      "midi": 39,
      "hit": false,
      "t": 120274.36000000002,
      "d": 122.56218750000698,
      "v": 42
    },
    {
      "midi": 46,
      "hit": false,
      "t": 120274.36000000002,
      "d": 122.56218750000698,
      "v": 50
    },
    {
      "midi": 58,
      "hit": false,
      "t": 120274.36000000002,
      "d": 1307.3300000000163,
      "v": 80
    },
    {
      "midi": 53,
      "hit": false,
      "t": 120601.19250000002,
      "d": 122.56218750000698,
      "v": 34
    },
    {
      "midi": 55,
      "hit": false,
      "t": 120601.19250000002,
      "d": 122.56218750000698,
      "v": 40
    },
    {
      "midi": 39,
      "hit": false,
      "t": 120928.02500000002,
      "d": 122.56218750000698,
      "v": 36
    },
    {
      "midi": 46,
      "hit": false,
      "t": 120928.02500000002,
      "d": 122.56218750000698,
      "v": 43
    },
    {
      "midi": 53,
      "hit": false,
      "t": 121254.85750000003,
      "d": 122.56218750000698,
      "v": 29
    },
    {
      "midi": 55,
      "hit": false,
      "t": 121254.85750000003,
      "d": 122.56218750000698,
      "v": 35
    },
    {
      "midi": 39,
      "hit": false,
      "t": 121581.69000000003,
      "d": 122.56218750000698,
      "v": 40
    },
    {
      "midi": 46,
      "hit": false,
      "t": 121581.69000000003,
      "d": 122.56218750000698,
      "v": 40
    },
    {
      "midi": 58,
      "hit": false,
      "t": 121581.69000000003,
      "d": 163.4162500000093,
      "v": 64
    },
    {
      "midi": 56,
      "hit": false,
      "t": 121745.10625000004,
      "d": 163.4162500000093,
      "v": 57
    },
    {
      "midi": 51,
      "hit": false,
      "t": 121908.52250000005,
      "d": 122.56218750000698,
      "v": 33
    },
    {
      "midi": 53,
      "hit": false,
      "t": 121908.52250000005,
      "d": 122.56218750000698,
      "v": 33
    },
    {
      "midi": 58,
      "hit": false,
      "t": 122071.93875000006,
      "d": 163.41624999999476,
      "v": 56
    },
    {
      "midi": 39,
      "hit": false,
      "t": 122235.35500000005,
      "d": 122.56218750000698,
      "v": 40
    },
    {
      "midi": 46,
      "hit": false,
      "t": 122235.35500000005,
      "d": 122.56218750000698,
      "v": 40
    },
    {
      "midi": 60,
      "hit": false,
      "t": 122235.35500000005,
      "d": 122.56218750000698,
      "v": 64
    },
    {
      "midi": 51,
      "hit": false,
      "t": 122562.18750000006,
      "d": 122.56218750000698,
      "v": 35
    },
    {
      "midi": 53,
      "hit": false,
      "t": 122562.18750000006,
      "d": 122.56218750000698,
      "v": 35
    },
    {
      "midi": 56,
      "hit": false,
      "t": 122562.18750000006,
      "d": 122.56218750000698,
      "v": 53
    },
    {
      "midi": 39,
      "hit": false,
      "t": 122889.02000000006,
      "d": 122.56218750000698,
      "v": 40
    },
    {
      "midi": 46,
      "hit": false,
      "t": 122889.02000000006,
      "d": 122.56218750000698,
      "v": 40
    },
    {
      "midi": 58,
      "hit": false,
      "t": 122889.02000000006,
      "d": 163.4162500000093,
      "v": 64
    },
    {
      "midi": 56,
      "hit": false,
      "t": 123052.43625000007,
      "d": 163.4162500000093,
      "v": 57
    },
    {
      "midi": 51,
      "hit": false,
      "t": 123215.85250000008,
      "d": 122.56218750000698,
      "v": 33
    },
    {
      "midi": 53,
      "hit": false,
      "t": 123215.85250000008,
      "d": 122.56218750000698,
      "v": 33
    },
    {
      "midi": 58,
      "hit": false,
      "t": 123379.26875000009,
      "d": 163.41624999999476,
      "v": 56
    },
    {
      "midi": 39,
      "hit": false,
      "t": 123542.68500000008,
      "d": 122.56218750000698,
      "v": 40
    },
    {
      "midi": 46,
      "hit": false,
      "t": 123542.68500000008,
      "d": 122.56218750000698,
      "v": 40
    },
    {
      "midi": 59,
      "hit": false,
      "t": 123542.68500000008,
      "d": 122.56218750000698,
      "v": 64
    },
    {
      "midi": 51,
      "hit": false,
      "t": 123869.51750000009,
      "d": 122.56218750000698,
      "v": 35
    },
    {
      "midi": 53,
      "hit": false,
      "t": 123869.51750000009,
      "d": 122.56218750000698,
      "v": 35
    },
    {
      "midi": 56,
      "hit": false,
      "t": 123869.51750000009,
      "d": 122.56218750000698,
      "v": 53
    },
    {
      "midi": 46,
      "hit": false,
      "t": 124196.3500000001,
      "d": 163.4162500000093,
      "v": 54
    },
    {
      "midi": 58,
      "hit": false,
      "t": 124196.3500000001,
      "d": 163.4162500000093,
      "v": 64
    },
    {
      "midi": 44,
      "hit": false,
      "t": 124359.7662500001,
      "d": 163.41624999999476,
      "v": 50
    },
    {
      "midi": 56,
      "hit": false,
      "t": 124359.7662500001,
      "d": 163.41624999999476,
      "v": 59
    },
    {
      "midi": 41,
      "hit": false,
      "t": 124686.59875000009,
      "d": 122.56218750000698,
      "v": 50
    },
    {
      "midi": 53,
      "hit": false,
      "t": 124686.59875000009,
      "d": 122.56218750000698,
      "v": 59
    },
    {
      "midi": 39,
      "hit": false,
      "t": 124850.0150000001,
      "d": 163.41624999999476,
      "v": 51
    },
    {
      "midi": 51,
      "hit": false,
      "t": 124850.0150000001,
      "d": 163.41624999999476,
      "v": 61
    },
    {
      "midi": 38,
      "hit": false,
      "t": 125176.84750000009,
      "d": 163.41624999999476,
      "v": 55
    },
    {
      "midi": 50,
      "hit": false,
      "t": 125176.84750000009,
      "d": 163.41624999999476,
      "v": 65
    },
    {
      "midi": 36,
      "hit": false,
      "t": 125503.68000000008,
      "d": 163.4162500000093,
      "v": 60
    },
    {
      "midi": 48,
      "hit": false,
      "t": 125503.68000000008,
      "d": 163.4162500000093,
      "v": 71
    },
    {
      "midi": 31,
      "hit": false,
      "t": 125830.51250000008,
      "d": 163.41624999999476,
      "v": 57
    },
    {
      "midi": 43,
      "hit": false,
      "t": 125830.51250000008,
      "d": 163.41624999999476,
      "v": 68
    },
    {
      "midi": 36,
      "hit": false,
      "t": 126157.34500000007,
      "d": 163.4162500000093,
      "v": 64
    },
    {
      "midi": 48,
      "hit": false,
      "t": 126157.34500000007,
      "d": 163.4162500000093,
      "v": 76
    },
    {
      "midi": 38,
      "hit": false,
      "t": 126484.17750000009,
      "d": 163.41624999999476,
      "v": 68
    },
    {
      "midi": 50,
      "hit": false,
      "t": 126484.17750000009,
      "d": 163.41624999999476,
      "v": 80
    },
    {
      "midi": 39,
      "hit": false,
      "t": 126811.0100000001,
      "d": 122.56218750000698,
      "v": 40
    },
    {
      "midi": 46,
      "hit": false,
      "t": 126811.0100000001,
      "d": 122.56218750000698,
      "v": 40
    },
    {
      "midi": 70,
      "hit": false,
      "t": 126811.0100000001,
      "d": 163.4162500000093,
      "v": 80
    },
    {
      "midi": 68,
      "hit": false,
      "t": 126974.4262500001,
      "d": 163.4162500000093,
      "v": 74
    },
    {
      "midi": 53,
      "hit": false,
      "t": 127137.84250000012,
      "d": 122.56218750000698,
      "v": 33
    },
    {
      "midi": 56,
      "hit": false,
      "t": 127137.84250000012,
      "d": 122.56218750000698,
      "v": 33
    },
    {
      "midi": 59,
      "hit": false,
      "t": 127137.84250000012,
      "d": 163.4162500000093,
      "v": 45
    },
    {
      "midi": 63,
      "hit": false,
      "t": 127137.84250000012,
      "d": 163.4162500000093,
      "v": 45
    },
    {
      "midi": 70,
      "hit": false,
      "t": 127301.25875000012,
      "d": 163.41624999999476,
      "v": 74
    },
    {
      "midi": 39,
      "hit": false,
      "t": 127464.67500000012,
      "d": 122.56218750000698,
      "v": 40
    },
    {
      "midi": 46,
      "hit": false,
      "t": 127464.67500000012,
      "d": 122.56218750000698,
      "v": 40
    },
    {
      "midi": 65,
      "hit": false,
      "t": 127464.67500000012,
      "d": 163.4162500000093,
      "v": 76
    },
    {
      "midi": 53,
      "hit": false,
      "t": 127791.50750000012,
      "d": 122.56218750000698,
      "v": 35
    },
    {
      "midi": 56,
      "hit": false,
      "t": 127791.50750000012,
      "d": 122.56218750000698,
      "v": 35
    },
    {
      "midi": 70,
      "hit": false,
      "t": 127791.50750000012,
      "d": 122.56218750000698,
      "v": 80
    },
    {
      "midi": 59,
      "hit": false,
      "t": 127791.50750000012,
      "d": 163.4162500000093,
      "v": 45
    },
    {
      "midi": 63,
      "hit": false,
      "t": 127791.50750000012,
      "d": 163.4162500000093,
      "v": 45
    },
    {
      "midi": 39,
      "hit": false,
      "t": 128118.34000000013,
      "d": 122.56218750000698,
      "v": 40
    },
    {
      "midi": 46,
      "hit": false,
      "t": 128118.34000000013,
      "d": 122.56218750000698,
      "v": 40
    },
    {
      "midi": 68,
      "hit": false,
      "t": 128118.34000000013,
      "d": 163.4162500000093,
      "v": 80
    },
    {
      "midi": 65,
      "hit": false,
      "t": 128281.75625000014,
      "d": 163.4162500000093,
      "v": 80
    },
    {
      "midi": 53,
      "hit": false,
      "t": 128445.17250000015,
      "d": 122.56218750000698,
      "v": 33
    },
    {
      "midi": 56,
      "hit": false,
      "t": 128445.17250000015,
      "d": 122.56218750000698,
      "v": 33
    },
    {
      "midi": 59,
      "hit": false,
      "t": 128445.17250000015,
      "d": 122.56218750000698,
      "v": 45
    },
    {
      "midi": 63,
      "hit": false,
      "t": 128608.58875000016,
      "d": 163.4162500000093,
      "v": 74
    },
    {
      "midi": 39,
      "hit": false,
      "t": 128772.00500000016,
      "d": 122.56218749999243,
      "v": 40
    },
    {
      "midi": 46,
      "hit": false,
      "t": 128772.00500000016,
      "d": 122.56218749999243,
      "v": 40
    },
    {
      "midi": 59,
      "hit": false,
      "t": 128772.00500000016,
      "d": 163.41624999999476,
      "v": 80
    },
    {
      "midi": 53,
      "hit": false,
      "t": 129098.83750000015,
      "d": 81.70812500000466,
      "v": 33
    },
    {
      "midi": 56,
      "hit": false,
      "t": 129098.83750000015,
      "d": 81.70812500000466,
      "v": 33
    },
    {
      "midi": 59,
      "hit": false,
      "t": 129098.83750000015,
      "d": 81.70812500000466,
      "v": 72
    },
    {
      "midi": 63,
      "hit": false,
      "t": 129098.83750000015,
      "d": 81.70812500000466,
      "v": 80
    },
    {
      "midi": 39,
      "hit": false,
      "t": 129425.67000000016,
      "d": 122.56218750000698,
      "v": 34
    },
    {
      "midi": 46,
      "hit": false,
      "t": 129425.67000000016,
      "d": 122.56218750000698,
      "v": 40
    },
    {
      "midi": 58,
      "hit": false,
      "t": 129425.67000000016,
      "d": 122.56218750000698,
      "v": 80
    },
    {
      "midi": 58,
      "hit": false,
      "t": 129589.08625000017,
      "d": 163.41624999999476,
      "v": 74
    },
    {
      "midi": 53,
      "hit": false,
      "t": 129752.50250000016,
      "d": 122.56218750000698,
      "v": 28
    },
    {
      "midi": 55,
      "hit": false,
      "t": 129752.50250000016,
      "d": 122.56218750000698,
      "v": 33
    },
    {
      "midi": 60,
      "hit": false,
      "t": 129915.91875000017,
      "d": 163.41624999999476,
      "v": 74
    },
    {
      "midi": 39,
      "hit": false,
      "t": 130079.33500000017,
      "d": 122.56218750000698,
      "v": 39
    },
    {
      "midi": 46,
      "hit": false,
      "t": 130079.33500000017,
      "d": 122.56218750000698,
      "v": 47
    },
    {
      "midi": 58,
      "hit": false,
      "t": 130079.33500000017,
      "d": 163.4162500000093,
      "v": 76
    },
    {
      "midi": 63,
      "hit": false,
      "t": 130365.31343750018,
      "d": 163.4162500000093,
      "v": 68
    },
    {
      "midi": 53,
      "hit": false,
      "t": 130406.16750000019,
      "d": 122.56218750000698,
      "v": 34
    },
    {
      "midi": 55,
      "hit": false,
      "t": 130406.16750000019,
      "d": 122.56218750000698,
      "v": 41
    },
    {
      "midi": 70,
      "hit": false,
      "t": 130406.16750000019,
      "d": 122.56218750000698,
      "v": 80
    },
    {
      "midi": 39,
      "hit": false,
      "t": 130733.00000000019,
      "d": 122.56218750000698,
      "v": 42
    },
    {
      "midi": 46,
      "hit": false,
      "t": 130733.00000000019,
      "d": 122.56218750000698,
      "v": 50
    },
    {
      "midi": 58,
      "hit": false,
      "t": 130733.00000000019,
      "d": 1307.33000000006,
      "v": 80
    },
    {
      "midi": 53,
      "hit": false,
      "t": 131059.8325000002,
      "d": 122.56218750000698,
      "v": 34
    },
    {
      "midi": 55,
      "hit": false,
      "t": 131059.8325000002,
      "d": 122.56218750000698,
      "v": 40
    },
    {
      "midi": 39,
      "hit": false,
      "t": 131386.6650000002,
      "d": 122.56218750000698,
      "v": 36
    },
    {
      "midi": 46,
      "hit": false,
      "t": 131386.6650000002,
      "d": 122.56218750000698,
      "v": 43
    },
    {
      "midi": 53,
      "hit": false,
      "t": 131713.49750000023,
      "d": 122.56218750000698,
      "v": 29
    },
    {
      "midi": 55,
      "hit": false,
      "t": 131713.49750000023,
      "d": 122.56218750000698,
      "v": 35
    },
    {
      "midi": 42,
      "hit": false,
      "t": 132040.33000000025,
      "d": 122.56218750000698,
      "v": 34
    },
    {
      "midi": 49,
      "hit": false,
      "t": 132040.33000000025,
      "d": 122.56218750000698,
      "v": 40
    },
    {
      "midi": 58,
      "hit": false,
      "t": 132040.33000000025,
      "d": 122.56218750000698,
      "v": 55
    },
    {
      "midi": 58,
      "hit": false,
      "t": 132203.74625000026,
      "d": 163.4162499999802,
      "v": 49
    },
    {
      "midi": 49,
      "hit": false,
      "t": 132367.16250000024,
      "d": 81.70812500000466,
      "v": 28
    },
    {
      "midi": 54,
      "hit": false,
      "t": 132367.16250000024,
      "d": 122.56218750000698,
      "v": 28
    },
    {
      "midi": 56,
      "hit": false,
      "t": 132367.16250000024,
      "d": 122.56218750000698,
      "v": 33
    },
    {
      "midi": 60,
      "hit": false,
      "t": 132530.57875000025,
      "d": 163.4162500000093,
      "v": 53
    },
    {
      "midi": 42,
      "hit": false,
      "t": 132693.99500000026,
      "d": 122.56218750000698,
      "v": 34
    },
    {
      "midi": 49,
      "hit": false,
      "t": 132693.99500000026,
      "d": 122.56218750000698,
      "v": 40
    },
    {
      "midi": 58,
      "hit": false,
      "t": 132693.99500000026,
      "d": 122.56218750000698,
      "v": 61
    },
    {
      "midi": 49,
      "hit": false,
      "t": 133020.82750000028,
      "d": 81.70812500000466,
      "v": 29
    },
    {
      "midi": 54,
      "hit": false,
      "t": 133020.82750000028,
      "d": 122.56218750000698,
      "v": 29
    },
    {
      "midi": 57,
      "hit": false,
      "t": 133020.82750000028,
      "d": 122.56218750000698,
      "v": 35
    },
    {
      "midi": 61,
      "hit": false,
      "t": 133020.82750000028,
      "d": 122.56218750000698,
      "v": 53
    },
    {
      "midi": 42,
      "hit": false,
      "t": 133347.6600000003,
      "d": 122.56218750000698,
      "v": 36
    },
    {
      "midi": 49,
      "hit": false,
      "t": 133347.6600000003,
      "d": 122.56218750000698,
      "v": 43
    },
    {
      "midi": 63,
      "hit": false,
      "t": 133347.6600000003,
      "d": 122.56218750000698,
      "v": 64
    },
    {
      "midi": 49,
      "hit": false,
      "t": 133674.4925000003,
      "d": 81.70812500000466,
      "v": 31
    },
    {
      "midi": 54,
      "hit": false,
      "t": 133674.4925000003,
      "d": 122.56218750000698,
      "v": 31
    },
    {
      "midi": 58,
      "hit": false,
      "t": 133674.4925000003,
      "d": 122.56218750000698,
      "v": 37
    },
    {
      "midi": 65,
      "hit": false,
      "t": 133674.4925000003,
      "d": 122.56218750000698,
      "v": 61
    },
    {
      "midi": 42,
      "hit": false,
      "t": 134001.32500000033,
      "d": 122.56218750000698,
      "v": 38
    },
    {
      "midi": 49,
      "hit": false,
      "t": 134001.32500000033,
      "d": 122.56218750000698,
      "v": 45
    },
    {
      "midi": 63,
      "hit": false,
      "t": 134001.32500000033,
      "d": 122.56218750000698,
      "v": 65
    },
    {
      "midi": 49,
      "hit": false,
      "t": 134328.15750000035,
      "d": 81.70812500000466,
      "v": 35
    },
    {
      "midi": 54,
      "hit": false,
      "t": 134328.15750000035,
      "d": 122.56218750000698,
      "v": 35
    },
    {
      "midi": 59,
      "hit": false,
      "t": 134328.15750000035,
      "d": 122.56218750000698,
      "v": 42
    },
    {
      "midi": 66,
      "hit": false,
      "t": 134328.15750000035,
      "d": 122.56218750000698,
      "v": 71
    },
    {
      "midi": 65,
      "hit": false,
      "t": 134654.99000000037,
      "d": 122.56218750000698,
      "v": 80
    },
    {
      "midi": 65,
      "hit": false,
      "t": 134818.40625000038,
      "d": 163.4162500000093,
      "v": 74
    },
    {
      "midi": 61,
      "hit": false,
      "t": 134981.8225000004,
      "d": 122.56218750000698,
      "v": 42
    },
    {
      "midi": 64,
      "hit": false,
      "t": 134981.8225000004,
      "d": 163.4162500000093,
      "v": 67
    },
    {
      "midi": 67,
      "hit": false,
      "t": 135145.2387500004,
      "d": 163.4162500000093,
      "v": 74
    },
    {
      "midi": 65,
      "hit": false,
      "t": 135308.6550000004,
      "d": 285.9784374999872,
      "v": 76
    },
    {
      "midi": 60,
      "hit": false,
      "t": 135308.6550000004,
      "d": 326.8324999999895,
      "v": 57
    },
    {
      "midi": 63,
      "hit": false,
      "t": 135308.6550000004,
      "d": 326.8324999999895,
      "v": 64
    },
    {
      "midi": 67,
      "hit": false,
      "t": 135594.6334375004,
      "d": 163.4162500000093,
      "v": 68
    },
    {
      "midi": 53,
      "hit": false,
      "t": 135635.4875000004,
      "d": 81.70812500000466,
      "v": 49
    },
    {
      "midi": 57,
      "hit": false,
      "t": 135635.4875000004,
      "d": 122.56218750000698,
      "v": 49
    },
    {
      "midi": 63,
      "hit": false,
      "t": 135635.4875000004,
      "d": 122.56218750000698,
      "v": 58
    },
    {
      "midi": 74,
      "hit": false,
      "t": 135635.4875000004,
      "d": 122.56218750000698,
      "v": 80
    },
    {
      "midi": 46,
      "hit": false,
      "t": 135962.3200000004,
      "d": 326.8325000000186,
      "v": 62
    },
    {
      "midi": 53,
      "hit": false,
      "t": 135962.3200000004,
      "d": 326.8325000000186,
      "v": 62
    },
    {
      "midi": 58,
      "hit": false,
      "t": 135962.3200000004,
      "d": 326.8325000000186,
      "v": 73
    },
    {
      "midi": 62,
      "hit": false,
      "t": 135962.3200000004,
      "d": 653.6650000000081,
      "v": 72
    },
    {
      "midi": 70,
      "hit": false,
      "t": 135962.3200000004,
      "d": 653.6650000000081,
      "v": 85
    },
    {
      "midi": 34,
      "hit": false,
      "t": 136615.98500000042,
      "d": 326.8324999999895,
      "v": 60
    },
    {
      "midi": 46,
      "hit": false,
      "t": 136615.98500000042,
      "d": 326.8324999999895,
      "v": 71
    },
    {
      "midi": 82,
      "hit": false,
      "t": 136615.98500000042,
      "d": 326.8324999999895,
      "v": 90
    },
    {
      "midi": 94,
      "hit": false,
      "t": 136615.98500000042,
      "d": 326.8324999999895,
      "v": 106
    },
    {
      "midi": 56,
      "hit": false,
      "t": 137269.6500000004,
      "d": 122.56218750000698,
      "v": 40
    },
    {
      "midi": 58,
      "hit": false,
      "t": 137269.6500000004,
      "d": 122.56218750000698,
      "v": 40
    },
    {
      "midi": 60,
      "hit": false,
      "t": 137269.6500000004,
      "d": 163.4162500000093,
      "v": 54
    },
    {
      "midi": 63,
      "hit": false,
      "t": 137269.6500000004,
      "d": 163.4162500000093,
      "v": 64
    },
    {
      "midi": 62,
      "hit": false,
      "t": 137433.0662500004,
      "d": 326.8324999999895,
      "v": 48
    },
    {
      "midi": 65,
      "hit": false,
      "t": 137433.0662500004,
      "d": 326.8324999999895,
      "v": 57
    },
    {
      "midi": 68,
      "hit": false,
      "t": 137596.4825000004,
      "d": 122.56218750000698,
      "v": 33
    },
    {
      "midi": 70,
      "hit": false,
      "t": 137596.4825000004,
      "d": 122.56218750000698,
      "v": 33
    },
    {
      "midi": 63,
      "hit": false,
      "t": 137759.8987500004,
      "d": 163.4162500000093,
      "v": 47
    },
    {
      "midi": 67,
      "hit": false,
      "t": 137759.8987500004,
      "d": 163.4162500000093,
      "v": 56
    },
    {
      "midi": 56,
      "hit": false,
      "t": 137923.3150000004,
      "d": 122.56218750000698,
      "v": 40
    },
    {
      "midi": 58,
      "hit": false,
      "t": 137923.3150000004,
      "d": 122.56218750000698,
      "v": 40
    },
    {
      "midi": 62,
      "hit": false,
      "t": 137923.3150000004,
      "d": 122.56218750000698,
      "v": 54
    },
    {
      "midi": 65,
      "hit": false,
      "t": 137923.3150000004,
      "d": 122.56218750000698,
      "v": 64
    },
    {
      "midi": 60,
      "hit": false,
      "t": 138250.14750000043,
      "d": 122.56218750000698,
      "v": 45
    },
    {
      "midi": 63,
      "hit": false,
      "t": 138250.14750000043,
      "d": 122.56218750000698,
      "v": 53
    },
    {
      "midi": 68,
      "hit": false,
      "t": 138250.14750000043,
      "d": 122.56218750000698,
      "v": 35
    },
    {
      "midi": 70,
      "hit": false,
      "t": 138250.14750000043,
      "d": 122.56218750000698,
      "v": 35
    },
    {
      "midi": 56,
      "hit": false,
      "t": 138576.98000000045,
      "d": 122.56218750000698,
      "v": 40
    },
    {
      "midi": 58,
      "hit": false,
      "t": 138576.98000000045,
      "d": 122.56218750000698,
      "v": 40
    },
    {
      "midi": 62,
      "hit": false,
      "t": 138576.98000000045,
      "d": 1307.3300000000745,
      "v": 45
    },
    {
      "midi": 65,
      "hit": false,
      "t": 138576.98000000045,
      "d": 1307.3300000000745,
      "v": 53
    },
    {
      "midi": 68,
      "hit": false,
      "t": 138903.81250000047,
      "d": 122.56218750000698,
      "v": 33
    },
    {
      "midi": 70,
      "hit": false,
      "t": 138903.81250000047,
      "d": 122.56218750000698,
      "v": 33
    },
    {
      "midi": 56,
      "hit": false,
      "t": 139230.64500000048,
      "d": 122.56218750000698,
      "v": 40
    },
    {
      "midi": 58,
      "hit": false,
      "t": 139230.64500000048,
      "d": 122.56218750000698,
      "v": 40
    },
    {
      "midi": 82,
      "hit": false,
      "t": 139230.64500000048,
      "d": 326.8325000000186,
      "v": 54
    },
    {
      "midi": 94,
      "hit": false,
      "t": 139230.64500000048,
      "d": 326.8325000000186,
      "v": 64
    },
    {
      "midi": 68,
      "hit": false,
      "t": 139557.4775000005,
      "d": 122.56218750000698,
      "v": 35
    },
    {
      "midi": 70,
      "hit": false,
      "t": 139557.4775000005,
      "d": 122.56218750000698,
      "v": 35
    },
    {
      "midi": 55,
      "hit": false,
      "t": 139884.31000000052,
      "d": 122.56218750000698,
      "v": 40
    },
    {
      "midi": 58,
      "hit": false,
      "t": 139884.31000000052,
      "d": 122.56218750000698,
      "v": 40
    },
    {
      "midi": 60,
      "hit": false,
      "t": 139884.31000000052,
      "d": 163.4162500000093,
      "v": 54
    },
    {
      "midi": 63,
      "hit": false,
      "t": 139884.31000000052,
      "d": 163.4162500000093,
      "v": 64
    },
    {
      "midi": 62,
      "hit": false,
      "t": 140047.72625000053,
      "d": 326.8324999999895,
      "v": 48
    },
    {
      "midi": 65,
      "hit": false,
      "t": 140047.72625000053,
      "d": 326.8324999999895,
      "v": 57
    },
    {
      "midi": 70,
      "hit": false,
      "t": 140211.1425000005,
      "d": 122.56218750000698,
      "v": 33
    },
    {
      "midi": 63,
      "hit": false,
      "t": 140374.55875000052,
      "d": 163.4162500000093,
      "v": 47
    },
    {
      "midi": 67,
      "hit": false,
      "t": 140374.55875000052,
      "d": 163.4162500000093,
      "v": 56
    },
    {
      "midi": 55,
      "hit": false,
      "t": 140537.97500000053,
      "d": 122.56218750000698,
      "v": 40
    },
    {
      "midi": 58,
      "hit": false,
      "t": 140537.97500000053,
      "d": 122.56218750000698,
      "v": 40
    },
    {
      "midi": 62,
      "hit": false,
      "t": 140537.97500000053,
      "d": 122.56218750000698,
      "v": 54
    },
    {
      "midi": 65,
      "hit": false,
      "t": 140537.97500000053,
      "d": 122.56218750000698,
      "v": 64
    },
    {
      "midi": 60,
      "hit": false,
      "t": 140864.80750000055,
      "d": 122.56218750000698,
      "v": 45
    },
    {
      "midi": 63,
      "hit": false,
      "t": 140864.80750000055,
      "d": 122.56218750000698,
      "v": 53
    },
    {
      "midi": 70,
      "hit": false,
      "t": 140864.80750000055,
      "d": 122.56218750000698,
      "v": 35
    },
    {
      "midi": 55,
      "hit": false,
      "t": 141191.64000000057,
      "d": 163.4162500000093,
      "v": 40
    },
    {
      "midi": 58,
      "hit": false,
      "t": 141191.64000000057,
      "d": 163.4162500000093,
      "v": 40
    },
    {
      "midi": 62,
      "hit": false,
      "t": 141191.64000000057,
      "d": 163.4162500000093,
      "v": 45
    },
    {
      "midi": 65,
      "hit": false,
      "t": 141191.64000000057,
      "d": 163.4162500000093,
      "v": 53
    },
    {
      "midi": 70,
      "hit": false,
      "t": 141518.4725000006,
      "d": 122.56218750000698,
      "v": 33
    },
    {
      "midi": 60,
      "hit": false,
      "t": 141518.4725000006,
      "d": 326.8325000000186,
      "v": 53
    },
    {
      "midi": 63,
      "hit": false,
      "t": 141518.4725000006,
      "d": 326.8325000000186,
      "v": 53
    },
    {
      "midi": 55,
      "hit": false,
      "t": 141845.3050000006,
      "d": 326.8324999999895,
      "v": 40
    },
    {
      "midi": 58,
      "hit": false,
      "t": 141845.3050000006,
      "d": 326.8324999999895,
      "v": 40
    },
    {
      "midi": 62,
      "hit": false,
      "t": 141845.3050000006,
      "d": 326.8324999999895,
      "v": 53
    },
    {
      "midi": 65,
      "hit": false,
      "t": 141845.3050000006,
      "d": 326.8324999999895,
      "v": 53
    },
    {
      "midi": 63,
      "hit": false,
      "t": 142172.1375000006,
      "d": 122.56218750000698,
      "v": 35
    },
    {
      "midi": 67,
      "hit": false,
      "t": 142172.1375000006,
      "d": 163.4162500000093,
      "v": 53
    },
    {
      "midi": 70,
      "hit": false,
      "t": 142172.1375000006,
      "d": 163.4162500000093,
      "v": 53
    },
    {
      "midi": 72,
      "hit": false,
      "t": 142172.1375000006,
      "d": 163.4162500000093,
      "v": 53
    },
    {
      "midi": 47,
      "hit": false,
      "t": 142498.9700000006,
      "d": 163.4162500000093,
      "v": 44
    },
    {
      "midi": 57,
      "hit": false,
      "t": 142498.9700000006,
      "d": 1307.3300000000745,
      "v": 36
    },
    {
      "midi": 61,
      "hit": false,
      "t": 142498.9700000006,
      "d": 1307.3300000000745,
      "v": 36
    },
    {
      "midi": 64,
      "hit": false,
      "t": 142498.9700000006,
      "d": 1307.3300000000745,
      "v": 42
    },
    {
      "midi": 49,
      "hit": false,
      "t": 142662.38625000062,
      "d": 163.4162500000093,
      "v": 39
    },
    {
      "midi": 51,
      "hit": false,
      "t": 142989.21875000064,
      "d": 163.4162500000093,
      "v": 39
    },
    {
      "midi": 49,
      "hit": false,
      "t": 143152.63500000065,
      "d": 163.4162500000093,
      "v": 44
    },
    {
      "midi": 47,
      "hit": false,
      "t": 143479.46750000067,
      "d": 122.56218750000698,
      "v": 37
    },
    {
      "midi": 46,
      "hit": false,
      "t": 143806.3000000007,
      "d": 163.4162500000093,
      "v": 44
    },
    {
      "midi": 56,
      "hit": false,
      "t": 143806.3000000007,
      "d": 1307.3300000000745,
      "v": 36
    },
    {
      "midi": 60,
      "hit": false,
      "t": 143806.3000000007,
      "d": 1307.3300000000745,
      "v": 36
    },
    {
      "midi": 65,
      "hit": false,
      "t": 143806.3000000007,
      "d": 1307.3300000000745,
      "v": 42
    },
    {
      "midi": 48,
      "hit": false,
      "t": 143969.7162500007,
      "d": 163.4162500000093,
      "v": 39
    },
    {
      "midi": 50,
      "hit": false,
      "t": 144296.54875000071,
      "d": 163.4162500000093,
      "v": 39
    },
    {
      "midi": 48,
      "hit": false,
      "t": 144459.96500000072,
      "d": 163.4162500000093,
      "v": 44
    },
    {
      "midi": 46,
      "hit": false,
      "t": 144786.79750000074,
      "d": 122.56218750000698,
      "v": 37
    },
    {
      "midi": 46,
      "hit": false,
      "t": 145113.63000000076,
      "d": 163.4162500000093,
      "v": 37
    },
    {
      "midi": 53,
      "hit": false,
      "t": 145113.63000000076,
      "d": 1307.3300000000745,
      "v": 30
    },
    {
      "midi": 55,
      "hit": false,
      "t": 145113.63000000076,
      "d": 2614.660000000149,
      "v": 30
    },
    {
      "midi": 58,
      "hit": false,
      "t": 145113.63000000076,
      "d": 2614.660000000149,
      "v": 36
    },
    {
      "midi": 48,
      "hit": false,
      "t": 145277.04625000077,
      "d": 163.4162500000093,
      "v": 33
    },
    {
      "midi": 50,
      "hit": false,
      "t": 145603.8787500008,
      "d": 163.4162500000093,
      "v": 33
    },
    {
      "midi": 48,
      "hit": false,
      "t": 145767.2950000008,
      "d": 163.4162500000093,
      "v": 37
    },
    {
      "midi": 46,
      "hit": false,
      "t": 146094.12750000082,
      "d": 122.56218750000698,
      "v": 31
    },
    {
      "midi": 51,
      "hit": false,
      "t": 146420.96000000084,
      "d": 1307.3300000000745,
      "v": 30
    },
    {
      "midi": 34,
      "hit": false,
      "t": 146584.37625000085,
      "d": 163.4162500000093,
      "v": 70
    },
    {
      "midi": 46,
      "hit": false,
      "t": 146584.37625000085,
      "d": 163.4162500000093,
      "v": 70
    },
    {
      "midi": 36,
      "hit": false,
      "t": 146747.79250000085,
      "d": 163.4162500000093,
      "v": 70
    },
    {
      "midi": 48,
      "hit": false,
      "t": 146747.79250000085,
      "d": 163.4162500000093,
      "v": 69
    },
    {
      "midi": 38,
      "hit": false,
      "t": 146911.20875000086,
      "d": 163.4162500000093,
      "v": 73
    },
    {
      "midi": 50,
      "hit": false,
      "t": 146911.20875000086,
      "d": 163.4162500000093,
      "v": 73
    },
    {
      "midi": 36,
      "hit": false,
      "t": 147074.62500000087,
      "d": 163.4162500000093,
      "v": 78
    },
    {
      "midi": 48,
      "hit": false,
      "t": 147074.62500000087,
      "d": 163.4162500000093,
      "v": 76
    },
    {
      "midi": 22,
      "hit": false,
      "t": 147401.4575000009,
      "d": 122.56218750000698,
      "v": 74
    },
    {
      "midi": 34,
      "hit": false,
      "t": 147401.4575000009,
      "d": 122.56218750000698,
      "v": 83
    },
    {
      "midi": 56,
      "hit": false,
      "t": 147728.2900000009,
      "d": 122.56218750000698,
      "v": 40
    },
    {
      "midi": 58,
      "hit": false,
      "t": 147728.2900000009,
      "d": 122.56218750000698,
      "v": 40
    },
    {
      "midi": 60,
      "hit": false,
      "t": 147728.2900000009,
      "d": 163.4162500000093,
      "v": 54
    },
    {
      "midi": 63,
      "hit": false,
      "t": 147728.2900000009,
      "d": 163.4162500000093,
      "v": 64
    },
    {
      "midi": 62,
      "hit": false,
      "t": 147891.70625000092,
      "d": 326.8324999999895,
      "v": 48
    },
    {
      "midi": 65,
      "hit": false,
      "t": 147891.70625000092,
      "d": 326.8324999999895,
      "v": 57
    },
    {
      "midi": 68,
      "hit": false,
      "t": 148055.1225000009,
      "d": 122.56218750000698,
      "v": 33
    },
    {
      "midi": 70,
      "hit": false,
      "t": 148055.1225000009,
      "d": 122.56218750000698,
      "v": 33
    },
    {
      "midi": 63,
      "hit": false,
      "t": 148218.5387500009,
      "d": 163.4162500000093,
      "v": 47
    },
    {
      "midi": 67,
      "hit": false,
      "t": 148218.5387500009,
      "d": 163.4162500000093,
      "v": 56
    },
    {
      "midi": 56,
      "hit": false,
      "t": 148381.95500000092,
      "d": 122.56218750000698,
      "v": 40
    },
    {
      "midi": 58,
      "hit": false,
      "t": 148381.95500000092,
      "d": 122.56218750000698,
      "v": 40
    },
    {
      "midi": 62,
      "hit": false,
      "t": 148381.95500000092,
      "d": 122.56218750000698,
      "v": 54
    },
    {
      "midi": 65,
      "hit": false,
      "t": 148381.95500000092,
      "d": 122.56218750000698,
      "v": 64
    },
    {
      "midi": 60,
      "hit": false,
      "t": 148708.78750000094,
      "d": 122.56218750000698,
      "v": 45
    },
    {
      "midi": 63,
      "hit": false,
      "t": 148708.78750000094,
      "d": 122.56218750000698,
      "v": 53
    },
    {
      "midi": 68,
      "hit": false,
      "t": 148708.78750000094,
      "d": 122.56218750000698,
      "v": 35
    },
    {
      "midi": 70,
      "hit": false,
      "t": 148708.78750000094,
      "d": 122.56218750000698,
      "v": 35
    },
    {
      "midi": 56,
      "hit": false,
      "t": 149035.62000000096,
      "d": 122.56218750000698,
      "v": 40
    },
    {
      "midi": 58,
      "hit": false,
      "t": 149035.62000000096,
      "d": 122.56218750000698,
      "v": 40
    },
    {
      "midi": 62,
      "hit": false,
      "t": 149035.62000000096,
      "d": 1307.3300000000745,
      "v": 45
    },
    {
      "midi": 65,
      "hit": false,
      "t": 149035.62000000096,
      "d": 1307.3300000000745,
      "v": 53
    },
    {
      "midi": 68,
      "hit": false,
      "t": 149362.45250000097,
      "d": 122.56218750000698,
      "v": 33
    },
    {
      "midi": 70,
      "hit": false,
      "t": 149362.45250000097,
      "d": 122.56218750000698,
      "v": 33
    },
    {
      "midi": 56,
      "hit": false,
      "t": 149689.285000001,
      "d": 122.56218750000698,
      "v": 40
    },
    {
      "midi": 58,
      "hit": false,
      "t": 149689.285000001,
      "d": 122.56218750000698,
      "v": 40
    },
    {
      "midi": 82,
      "hit": false,
      "t": 149689.285000001,
      "d": 326.8325000000186,
      "v": 54
    },
    {
      "midi": 94,
      "hit": false,
      "t": 149689.285000001,
      "d": 326.8325000000186,
      "v": 64
    },
    {
      "midi": 68,
      "hit": false,
      "t": 150016.117500001,
      "d": 122.56218750000698,
      "v": 35
    },
    {
      "midi": 70,
      "hit": false,
      "t": 150016.117500001,
      "d": 122.56218750000698,
      "v": 35
    },
    {
      "midi": 55,
      "hit": false,
      "t": 150342.95000000103,
      "d": 122.56218750000698,
      "v": 40
    },
    {
      "midi": 58,
      "hit": false,
      "t": 150342.95000000103,
      "d": 122.56218750000698,
      "v": 40
    },
    {
      "midi": 60,
      "hit": false,
      "t": 150342.95000000103,
      "d": 163.4162500000093,
      "v": 54
    },
    {
      "midi": 63,
      "hit": false,
      "t": 150342.95000000103,
      "d": 163.4162500000093,
      "v": 64
    },
    {
      "midi": 62,
      "hit": false,
      "t": 150506.36625000104,
      "d": 326.8324999999895,
      "v": 48
    },
    {
      "midi": 65,
      "hit": false,
      "t": 150506.36625000104,
      "d": 326.8324999999895,
      "v": 57
    },
    {
      "midi": 67,
      "hit": false,
      "t": 150669.78250000102,
      "d": 122.56218750000698,
      "v": 33
    },
    {
      "midi": 70,
      "hit": false,
      "t": 150669.78250000102,
      "d": 122.56218750000698,
      "v": 33
    },
    {
      "midi": 63,
      "hit": false,
      "t": 150833.19875000103,
      "d": 163.4162500000093,
      "v": 47
    },
    {
      "midi": 67,
      "hit": false,
      "t": 150833.19875000103,
      "d": 163.4162500000093,
      "v": 56
    },
    {
      "midi": 55,
      "hit": false,
      "t": 150996.61500000104,
      "d": 122.56218750000698,
      "v": 40
    },
    {
      "midi": 58,
      "hit": false,
      "t": 150996.61500000104,
      "d": 122.56218750000698,
      "v": 40
    },
    {
      "midi": 62,
      "hit": false,
      "t": 150996.61500000104,
      "d": 122.56218750000698,
      "v": 54
    },
    {
      "midi": 65,
      "hit": false,
      "t": 150996.61500000104,
      "d": 122.56218750000698,
      "v": 64
    },
    {
      "midi": 60,
      "hit": false,
      "t": 151323.44750000106,
      "d": 122.56218750000698,
      "v": 45
    },
    {
      "midi": 63,
      "hit": false,
      "t": 151323.44750000106,
      "d": 122.56218750000698,
      "v": 53
    },
    {
      "midi": 67,
      "hit": false,
      "t": 151323.44750000106,
      "d": 122.56218750000698,
      "v": 33
    },
    {
      "midi": 70,
      "hit": false,
      "t": 151323.44750000106,
      "d": 122.56218750000698,
      "v": 35
    },
    {
      "midi": 55,
      "hit": false,
      "t": 151650.28000000108,
      "d": 163.4162500000093,
      "v": 40
    },
    {
      "midi": 58,
      "hit": false,
      "t": 151650.28000000108,
      "d": 163.4162500000093,
      "v": 40
    },
    {
      "midi": 62,
      "hit": false,
      "t": 151650.28000000108,
      "d": 163.4162500000093,
      "v": 45
    },
    {
      "midi": 65,
      "hit": false,
      "t": 151650.28000000108,
      "d": 163.4162500000093,
      "v": 53
    },
    {
      "midi": 67,
      "hit": false,
      "t": 151977.1125000011,
      "d": 122.56218750000698,
      "v": 33
    },
    {
      "midi": 70,
      "hit": false,
      "t": 151977.1125000011,
      "d": 122.56218750000698,
      "v": 33
    },
    {
      "midi": 60,
      "hit": false,
      "t": 151977.1125000011,
      "d": 326.8325000000186,
      "v": 53
    },
    {
      "midi": 63,
      "hit": false,
      "t": 151977.1125000011,
      "d": 326.8325000000186,
      "v": 53
    },
    {
      "midi": 55,
      "hit": false,
      "t": 152303.9450000011,
      "d": 326.8324999999895,
      "v": 40
    },
    {
      "midi": 58,
      "hit": false,
      "t": 152303.9450000011,
      "d": 326.8324999999895,
      "v": 40
    },
    {
      "midi": 62,
      "hit": false,
      "t": 152303.9450000011,
      "d": 326.8324999999895,
      "v": 53
    },
    {
      "midi": 65,
      "hit": false,
      "t": 152303.9450000011,
      "d": 326.8324999999895,
      "v": 53
    },
    {
      "midi": 63,
      "hit": false,
      "t": 152630.7775000011,
      "d": 122.56218750000698,
      "v": 35
    },
    {
      "midi": 67,
      "hit": false,
      "t": 152630.7775000011,
      "d": 163.4162500000093,
      "v": 53
    },
    {
      "midi": 70,
      "hit": false,
      "t": 152630.7775000011,
      "d": 163.4162500000093,
      "v": 53
    },
    {
      "midi": 72,
      "hit": false,
      "t": 152630.7775000011,
      "d": 163.4162500000093,
      "v": 53
    },
    {
      "midi": 70,
      "hit": false,
      "t": 152957.61000000112,
      "d": 163.4162500000093,
      "v": 68
    },
    {
      "midi": 82,
      "hit": false,
      "t": 152957.61000000112,
      "d": 163.4162500000093,
      "v": 80
    },
    {
      "midi": 59,
      "hit": false,
      "t": 152957.61000000112,
      "d": 1960.9950000001118,
      "v": 51
    },
    {
      "midi": 71,
      "hit": false,
      "t": 152957.61000000112,
      "d": 1960.9950000001118,
      "v": 60
    },
    {
      "midi": 68,
      "hit": false,
      "t": 153121.02625000113,
      "d": 163.4162500000093,
      "v": 62
    },
    {
      "midi": 80,
      "hit": false,
      "t": 153121.02625000113,
      "d": 163.4162500000093,
      "v": 74
    },
    {
      "midi": 70,
      "hit": false,
      "t": 153447.85875000115,
      "d": 163.4162500000093,
      "v": 62
    },
    {
      "midi": 82,
      "hit": false,
      "t": 153447.85875000115,
      "d": 163.4162500000093,
      "v": 74
    },
    {
      "midi": 65,
      "hit": false,
      "t": 153611.27500000116,
      "d": 163.4162500000093,
      "v": 64
    },
    {
      "midi": 77,
      "hit": false,
      "t": 153611.27500000116,
      "d": 163.4162500000093,
      "v": 76
    },
    {
      "midi": 70,
      "hit": false,
      "t": 153938.10750000118,
      "d": 122.56218750000698,
      "v": 68
    },
    {
      "midi": 82,
      "hit": false,
      "t": 153938.10750000118,
      "d": 122.56218750000698,
      "v": 80
    },
    {
      "midi": 68,
      "hit": false,
      "t": 154264.9400000012,
      "d": 163.4162500000093,
      "v": 68
    },
    {
      "midi": 80,
      "hit": false,
      "t": 154264.9400000012,
      "d": 163.4162500000093,
      "v": 80
    },
    {
      "midi": 65,
      "hit": false,
      "t": 154428.3562500012,
      "d": 163.4162500000093,
      "v": 68
    },
    {
      "midi": 77,
      "hit": false,
      "t": 154428.3562500012,
      "d": 163.4162500000093,
      "v": 80
    },
    {
      "midi": 63,
      "hit": false,
      "t": 154755.18875000122,
      "d": 163.4162500000093,
      "v": 62
    },
    {
      "midi": 75,
      "hit": false,
      "t": 154755.18875000122,
      "d": 163.4162500000093,
      "v": 74
    },
    {
      "midi": 59,
      "hit": false,
      "t": 154918.60500000123,
      "d": 653.6650000000081,
      "v": 68
    },
    {
      "midi": 71,
      "hit": false,
      "t": 154918.60500000123,
      "d": 653.6650000000081,
      "v": 80
    },
    {
      "midi": 56,
      "hit": false,
      "t": 155735.68625000125,
      "d": 163.4162500000093,
      "v": 65
    },
    {
      "midi": 68,
      "hit": false,
      "t": 155735.68625000125,
      "d": 163.4162500000093,
      "v": 80
    },
    {
      "midi": 53,
      "hit": false,
      "t": 155899.10250000126,
      "d": 163.4162499999802,
      "v": 65
    },
    {
      "midi": 65,
      "hit": false,
      "t": 155899.10250000126,
      "d": 163.4162499999802,
      "v": 79
    },
    {
      "midi": 51,
      "hit": false,
      "t": 156062.51875000124,
      "d": 163.4162500000093,
      "v": 67
    },
    {
      "midi": 63,
      "hit": false,
      "t": 156062.51875000124,
      "d": 163.4162500000093,
      "v": 84
    },
    {
      "midi": 47,
      "hit": false,
      "t": 156225.93500000125,
      "d": 163.4162500000093,
      "v": 71
    },
    {
      "midi": 59,
      "hit": false,
      "t": 156225.93500000125,
      "d": 163.4162500000093,
      "v": 86
    },
    {
      "midi": 34,
      "hit": false,
      "t": 156552.76750000127,
      "d": 326.8324999999895,
      "v": 66
    },
    {
      "midi": 46,
      "hit": false,
      "t": 156552.76750000127,
      "d": 326.8324999999895,
      "v": 78
    },
    {
      "midi": 50,
      "hit": false,
      "t": 156552.76750000127,
      "d": 326.8324999999895,
      "v": 82
    },
    {
      "midi": 55,
      "hit": false,
      "t": 156552.76750000127,
      "d": 326.8324999999895,
      "v": 97
    },
    {
      "midi": 51,
      "hit": false,
      "t": 157206.43250000125,
      "d": 122.56218750000698,
      "v": 40
    },
    {
      "midi": 53,
      "hit": false,
      "t": 157206.43250000125,
      "d": 122.56218750000698,
      "v": 33
    },
    {
      "midi": 55,
      "hit": false,
      "t": 157206.43250000125,
      "d": 122.56218750000698,
      "v": 33
    },
    {
      "midi": 58,
      "hit": false,
      "t": 157206.43250000125,
      "d": 122.56218750000698,
      "v": 40
    },
    {
      "midi": 39,
      "hit": false,
      "t": 157533.26500000127,
      "d": 122.56218750000698,
      "v": 40
    },
    {
      "midi": 46,
      "hit": false,
      "t": 157533.26500000127,
      "d": 122.56218750000698,
      "v": 40
    },
    {
      "midi": 51,
      "hit": false,
      "t": 157860.09750000128,
      "d": 122.56218750000698,
      "v": 40
    },
    {
      "midi": 53,
      "hit": false,
      "t": 157860.09750000128,
      "d": 122.56218750000698,
      "v": 33
    },
    {
      "midi": 55,
      "hit": false,
      "t": 157860.09750000128,
      "d": 122.56218750000698,
      "v": 33
    },
    {
      "midi": 58,
      "hit": false,
      "t": 157860.09750000128,
      "d": 122.56218750000698,
      "v": 40
    },
    {
      "midi": 39,
      "hit": false,
      "t": 158186.9300000013,
      "d": 653.6650000000081,
      "v": 34
    },
    {
      "midi": 46,
      "hit": false,
      "t": 158186.9300000013,
      "d": 653.6650000000081,
      "v": 40
    },
    {
      "midi": 51,
      "hit": false,
      "t": 159821.0925000013,
      "d": 122.56218750000698,
      "v": 33
    },
    {
      "midi": 53,
      "hit": false,
      "t": 159821.0925000013,
      "d": 122.56218750000698,
      "v": 27
    },
    {
      "midi": 55,
      "hit": false,
      "t": 159821.0925000013,
      "d": 122.56218750000698,
      "v": 27
    },
    {
      "midi": 58,
      "hit": false,
      "t": 159821.0925000013,
      "d": 122.56218750000698,
      "v": 33
    },
    {
      "midi": 39,
      "hit": false,
      "t": 160147.92500000133,
      "d": 122.56218750000698,
      "v": 32
    },
    {
      "midi": 46,
      "hit": false,
      "t": 160147.92500000133,
      "d": 122.56218750000698,
      "v": 32
    },
    {
      "midi": 51,
      "hit": false,
      "t": 160474.75750000135,
      "d": 122.56218750000698,
      "v": 30
    },
    {
      "midi": 53,
      "hit": false,
      "t": 160474.75750000135,
      "d": 122.56218750000698,
      "v": 24
    },
    {
      "midi": 55,
      "hit": false,
      "t": 160474.75750000135,
      "d": 122.56218750000698,
      "v": 24
    },
    {
      "midi": 58,
      "hit": false,
      "t": 160474.75750000135,
      "d": 122.56218750000698,
      "v": 30
    },
    {
      "midi": 39,
      "hit": false,
      "t": 160801.59000000136,
      "d": 653.6650000000081,
      "v": 24
    },
    {
      "midi": 46,
      "hit": false,
      "t": 160801.59000000136,
      "d": 653.6650000000081,
      "v": 28
    },
    {
      "midi": 51,
      "hit": false,
      "t": 162435.75250000137,
      "d": 122.56218750000698,
      "v": 28
    },
    {
      "midi": 53,
      "hit": false,
      "t": 162435.75250000137,
      "d": 122.56218750000698,
      "v": 22
    },
    {
      "midi": 55,
      "hit": false,
      "t": 162435.75250000137,
      "d": 122.56218750000698,
      "v": 22
    },
    {
      "midi": 58,
      "hit": false,
      "t": 162435.75250000137,
      "d": 122.56218750000698,
      "v": 28
    },
    {
      "midi": 39,
      "hit": false,
      "t": 162762.5850000014,
      "d": 122.56218750000698,
      "v": 27
    },
    {
      "midi": 46,
      "hit": false,
      "t": 162762.5850000014,
      "d": 122.56218750000698,
      "v": 27
    },
    {
      "midi": 51,
      "hit": false,
      "t": 163089.4175000014,
      "d": 122.56218750000698,
      "v": 25
    },
    {
      "midi": 53,
      "hit": false,
      "t": 163089.4175000014,
      "d": 122.56218750000698,
      "v": 21
    },
    {
      "midi": 55,
      "hit": false,
      "t": 163089.4175000014,
      "d": 122.56218750000698,
      "v": 21
    },
    {
      "midi": 58,
      "hit": false,
      "t": 163089.4175000014,
      "d": 122.56218750000698,
      "v": 25
    },
    {
      "midi": 35,
      "hit": false,
      "t": 164069.9150000014,
      "d": 326.8324999999895,
      "v": 59
    },
    {
      "midi": 47,
      "hit": false,
      "t": 164069.9150000014,
      "d": 326.8324999999895,
      "v": 70
    },
    {
      "midi": 34,
      "hit": false,
      "t": 164396.7475000014,
      "d": 89.87893750000512,
      "v": 63
    },
    {
      "midi": 46,
      "hit": false,
      "t": 164396.7475000014,
      "d": 89.87893750000512,
      "v": 75
    },
    {
      "midi": 32,
      "hit": false,
      "t": 164478.4556250014,
      "d": 89.87893750000512,
      "v": 65
    },
    {
      "midi": 44,
      "hit": false,
      "t": 164478.4556250014,
      "d": 89.87893750000512,
      "v": 77
    },
    {
      "midi": 31,
      "hit": false,
      "t": 164560.1637500014,
      "d": 89.87893750000512,
      "v": 67
    },
    {
      "midi": 43,
      "hit": false,
      "t": 164560.1637500014,
      "d": 89.87893750000512,
      "v": 79
    },
    {
      "midi": 29,
      "hit": false,
      "t": 164641.8718750014,
      "d": 89.87893750000512,
      "v": 68
    },
    {
      "midi": 41,
      "hit": false,
      "t": 164641.8718750014,
      "d": 89.87893750000512,
      "v": 81
    },
    {
      "midi": 27,
      "hit": false,
      "t": 164723.5800000014,
      "d": 326.8324999999895,
      "v": 61
    },
    {
      "midi": 39,
      "hit": false,
      "t": 164723.5800000014,
      "d": 326.8324999999895,
      "v": 72
    },
    {
      "midi": 51,
      "hit": false,
      "t": 164723.5800000014,
      "d": 326.8324999999895,
      "v": 85
    },
    {
      "midi": 27,
      "hit": false,
      "t": 166030.9100000014,
      "d": 326.8324999999895,
      "v": 62
    },
    {
      "midi": 39,
      "hit": false,
      "t": 166030.9100000014,
      "d": 326.8324999999895,
      "v": 74
    },
    {
      "midi": 51,
      "hit": false,
      "t": 166030.9100000014,
      "d": 326.8324999999895,
      "v": 89
    }
  ]
}