{
  "jsonPath": "Soundtracks/Classic Soundtrack/Stelvio Cipriani/le-odalische.json",
  "path": "Soundtracks\\Classic Soundtrack\\Stelvio Cipriani\\Le odalische.mid",
  "name": "Le odalische",
  "difficulty": "Advanced",
  "bpm": 108.000108000108,
  "notes": [
    {
      "midi": 43,
      "hit": false,
      "t": 0,
      "d": 444.444,
      "v": 127
    },
    {
      "midi": 50,
      "hit": false,
      "t": 0,
      "d": 1784.7204375000001,
      "v": 127
    },
    {
      "midi": 59,
      "hit": false,
      "t": 0,
      "d": 1784.7204375,
      "v": 127
    },
    {
      "midi": 43,
      "hit": false,
      "t": 666.666,
      "d": 444.4440000000001,
      "v": 127
    },
    {
      "midi": 62,
      "hit": false,
      "t": 1333.3319999999999,
      "d": 444.44399999999996,
      "v": 127
    },
    {
      "midi": 43,
      "hit": false,
      "t": 1333.332,
      "d": 444.44399999999996,
      "v": 127
    },
    {
      "midi": 67,
      "hit": false,
      "t": 1833.3314999999998,
      "d": 444.44399999999996,
      "v": 127
    },
    {
      "midi": 43,
      "hit": false,
      "t": 1999.998,
      "d": 444.44399999999996,
      "v": 127
    },
    {
      "midi": 62,
      "hit": false,
      "t": 2333.3309999999997,
      "d": 222.2220000000002,
      "v": 127
    },
    {
      "midi": 58,
      "hit": false,
      "t": 2666.6639999999998,
      "d": 1784.7204375000001,
      "v": 127
    },
    {
      "midi": 63,
      "hit": false,
      "t": 2666.6639999999998,
      "d": 1784.7204375000001,
      "v": 127
    },
    {
      "midi": 43,
      "hit": false,
      "t": 2666.664,
      "d": 444.44399999999996,
      "v": 127
    },
    {
      "midi": 51,
      "hit": false,
      "t": 2666.664,
      "d": 1784.7204375000006,
      "v": 127
    },
    {
      "midi": 43,
      "hit": false,
      "t": 3333.3300000000004,
      "d": 444.44399999999996,
      "v": 127
    },
    {
      "midi": 43,
      "hit": false,
      "t": 3999.9960000000005,
      "d": 444.44399999999996,
      "v": 127
    },
    {
      "midi": 43,
      "hit": false,
      "t": 4666.662000000001,
      "d": 444.4440000000004,
      "v": 127
    },
    {
      "midi": 71,
      "hit": false,
      "t": 5333.3279999999995,
      "d": 888.8879999999999,
      "v": 127
    },
    {
      "midi": 59,
      "hit": false,
      "t": 5333.3279999999995,
      "d": 1784.720437500001,
      "v": 127
    },
    {
      "midi": 43,
      "hit": false,
      "t": 5333.328000000001,
      "d": 444.4440000000004,
      "v": 127
    },
    {
      "midi": 50,
      "hit": false,
      "t": 5333.328000000001,
      "d": 1784.720437500001,
      "v": 127
    },
    {
      "midi": 43,
      "hit": false,
      "t": 5999.9940000000015,
      "d": 444.4440000000004,
      "v": 127
    },
    {
      "midi": 62,
      "hit": false,
      "t": 6666.66,
      "d": 444.4440000000004,
      "v": 127
    },
    {
      "midi": 43,
      "hit": false,
      "t": 6666.660000000002,
      "d": 444.4440000000004,
      "v": 127
    },
    {
      "midi": 67,
      "hit": false,
      "t": 7166.659500000001,
      "d": 444.4440000000004,
      "v": 127
    },
    {
      "midi": 43,
      "hit": false,
      "t": 7333.326000000003,
      "d": 444.4440000000004,
      "v": 127
    },
    {
      "midi": 62,
      "hit": false,
      "t": 7666.6590000000015,
      "d": 222.22199999999975,
      "v": 127
    },
    {
      "midi": 58,
      "hit": false,
      "t": 7999.992000000001,
      "d": 1784.7204374999992,
      "v": 127
    },
    {
      "midi": 63,
      "hit": false,
      "t": 7999.992000000001,
      "d": 1784.7204374999992,
      "v": 127
    },
    {
      "midi": 70,
      "hit": false,
      "t": 7999.992000000001,
      "d": 1784.7204374999992,
      "v": 127
    },
    {
      "midi": 43,
      "hit": false,
      "t": 7999.992000000003,
      "d": 444.4440000000004,
      "v": 127
    },
    {
      "midi": 51,
      "hit": false,
      "t": 7999.992000000003,
      "d": 1784.7204374999992,
      "v": 127
    },
    {
      "midi": 43,
      "hit": false,
      "t": 8666.658000000003,
      "d": 444.4439999999995,
      "v": 127
    },
    {
      "midi": 43,
      "hit": false,
      "t": 9333.324000000002,
      "d": 444.4439999999995,
      "v": 127
    },
    {
      "midi": 43,
      "hit": false,
      "t": 9999.990000000002,
      "d": 444.4439999999995,
      "v": 127
    },
    {
      "midi": 43,
      "hit": false,
      "t": 10666.656,
      "d": 444.4439999999995,
      "v": 127
    },
    {
      "midi": 50,
      "hit": false,
      "t": 10666.656,
      "d": 1784.7204374999983,
      "v": 127
    },
    {
      "midi": 59,
      "hit": false,
      "t": 10666.656,
      "d": 1784.7204375000001,
      "v": 127
    },
    {
      "midi": 43,
      "hit": false,
      "t": 11333.322,
      "d": 444.4439999999995,
      "v": 127
    },
    {
      "midi": 43,
      "hit": false,
      "t": 11999.988,
      "d": 444.4439999999995,
      "v": 127
    },
    {
      "midi": 43,
      "hit": false,
      "t": 12666.653999999999,
      "d": 444.4439999999995,
      "v": 127
    },
    {
      "midi": 62,
      "hit": false,
      "t": 12666.654,
      "d": 222.22199999999975,
      "v": 127
    },
    {
      "midi": 61,
      "hit": false,
      "t": 12999.987000000001,
      "d": 111.11100000000079,
      "v": 127
    },
    {
      "midi": 60,
      "hit": false,
      "t": 13166.653500000002,
      "d": 111.11100000000079,
      "v": 127
    },
    {
      "midi": 43,
      "hit": false,
      "t": 13333.319999999998,
      "d": 444.4439999999995,
      "v": 127
    },
    {
      "midi": 51,
      "hit": false,
      "t": 13333.319999999998,
      "d": 1784.7204374999983,
      "v": 127
    },
    {
      "midi": 59,
      "hit": false,
      "t": 13333.320000000003,
      "d": 1784.7204375000001,
      "v": 127
    },
    {
      "midi": 43,
      "hit": false,
      "t": 13999.985999999997,
      "d": 444.4439999999995,
      "v": 127
    },
    {
      "midi": 43,
      "hit": false,
      "t": 14666.651999999996,
      "d": 444.4439999999995,
      "v": 127
    },
    {
      "midi": 43,
      "hit": false,
      "t": 15333.317999999996,
      "d": 444.4439999999995,
      "v": 127
    },
    {
      "midi": 62,
      "hit": false,
      "t": 15333.318000000003,
      "d": 222.22199999999975,
      "v": 127
    },
    {
      "midi": 61,
      "hit": false,
      "t": 15666.651000000003,
      "d": 111.11100000000079,
      "v": 127
    },
    {
      "midi": 60,
      "hit": false,
      "t": 15833.317500000005,
      "d": 111.11100000000079,
      "v": 127
    },
    {
      "midi": 43,
      "hit": false,
      "t": 15999.983999999995,
      "d": 444.4440000000013,
      "v": 127
    },
    {
      "midi": 52,
      "hit": false,
      "t": 15999.983999999995,
      "d": 1784.720437500002,
      "v": 127
    },
    {
      "midi": 59,
      "hit": false,
      "t": 15999.984000000006,
      "d": 1333.3320000000003,
      "v": 127
    },
    {
      "midi": 43,
      "hit": false,
      "t": 16666.649999999998,
      "d": 444.4439999999995,
      "v": 127
    },
    {
      "midi": 43,
      "hit": false,
      "t": 17333.316,
      "d": 444.4439999999995,
      "v": 127
    },
    {
      "midi": 43,
      "hit": false,
      "t": 17999.981999999996,
      "d": 444.4439999999995,
      "v": 127
    },
    {
      "midi": 59,
      "hit": false,
      "t": 17999.982000000007,
      "d": 222.22200000000157,
      "v": 127
    },
    {
      "midi": 60,
      "hit": false,
      "t": 18333.31500000001,
      "d": 111.11100000000079,
      "v": 127
    },
    {
      "midi": 61,
      "hit": false,
      "t": 18499.98150000001,
      "d": 111.11100000000079,
      "v": 127
    },
    {
      "midi": 43,
      "hit": false,
      "t": 18666.647999999997,
      "d": 444.4439999999995,
      "v": 127
    },
    {
      "midi": 54,
      "hit": false,
      "t": 18666.647999999997,
      "d": 1784.7204375000001,
      "v": 127
    },
    {
      "midi": 57,
      "hit": false,
      "t": 18666.64800000001,
      "d": 1784.7204375000001,
      "v": 127
    },
    {
      "midi": 59,
      "hit": false,
      "t": 18666.64800000001,
      "d": 1784.7204375000001,
      "v": 127
    },
    {
      "midi": 62,
      "hit": false,
      "t": 18666.64800000001,
      "d": 1784.7204375000001,
      "v": 127
    },
    {
      "midi": 43,
      "hit": false,
      "t": 19333.314,
      "d": 444.4439999999995,
      "v": 127
    },
    {
      "midi": 43,
      "hit": false,
      "t": 19999.98,
      "d": 444.4439999999995,
      "v": 127
    },
    {
      "midi": 43,
      "hit": false,
      "t": 20666.645999999997,
      "d": 444.4439999999995,
      "v": 127
    },
    {
      "midi": 36,
      "hit": false,
      "t": 21333.311999999998,
      "d": 444.4439999999995,
      "v": 127
    },
    {
      "midi": 43,
      "hit": false,
      "t": 21333.311999999998,
      "d": 1784.7204375000001,
      "v": 127
    },
    {
      "midi": 52,
      "hit": false,
      "t": 21333.311999999998,
      "d": 1784.7204375000001,
      "v": 127
    },
    {
      "midi": 64,
      "hit": false,
      "t": 21333.31200000001,
      "d": 1333.3319999999985,
      "v": 127
    },
    {
      "midi": 67,
      "hit": false,
      "t": 21333.31200000001,
      "d": 1784.7204375000001,
      "v": 127
    },
    {
      "midi": 72,
      "hit": false,
      "t": 21333.31200000001,
      "d": 1784.7204375000001,
      "v": 127
    },
    {
      "midi": 76,
      "hit": false,
      "t": 21333.31200000001,
      "d": 1784.7204375000001,
      "v": 127
    },
    {
      "midi": 36,
      "hit": false,
      "t": 21999.978,
      "d": 444.4439999999995,
      "v": 127
    },
    {
      "midi": 36,
      "hit": false,
      "t": 22666.644,
      "d": 444.4439999999995,
      "v": 127
    },
    {
      "midi": 36,
      "hit": false,
      "t": 23333.309999999998,
      "d": 444.4439999999995,
      "v": 127
    },
    {
      "midi": 58,
      "hit": false,
      "t": 23333.31000000001,
      "d": 222.22200000000157,
      "v": 127
    },
    {
      "midi": 57,
      "hit": false,
      "t": 23666.64300000001,
      "d": 111.11100000000079,
      "v": 127
    },
    {
      "midi": 55,
      "hit": false,
      "t": 23833.30950000001,
      "d": 111.11100000000079,
      "v": 127
    },
    {
      "midi": 36,
      "hit": false,
      "t": 23999.976,
      "d": 444.4439999999995,
      "v": 127
    },
    {
      "midi": 43,
      "hit": false,
      "t": 23999.976,
      "d": 1784.7204375000001,
      "v": 127
    },
    {
      "midi": 51,
      "hit": false,
      "t": 23999.976,
      "d": 1784.7204375000001,
      "v": 127
    },
    {
      "midi": 63,
      "hit": false,
      "t": 23999.97600000001,
      "d": 1784.7204375000001,
      "v": 127
    },
    {
      "midi": 67,
      "hit": false,
      "t": 23999.97600000001,
      "d": 1784.7204375000001,
      "v": 127
    },
    {
      "midi": 72,
      "hit": false,
      "t": 23999.97600000001,
      "d": 1784.7204375000001,
      "v": 127
    },
    {
      "midi": 75,
      "hit": false,
      "t": 23999.97600000001,
      "d": 1784.7204375000001,
      "v": 127
    },
    {
      "midi": 36,
      "hit": false,
      "t": 24666.642,
      "d": 444.4439999999995,
      "v": 127
    },
    {
      "midi": 36,
      "hit": false,
      "t": 25333.308,
      "d": 444.4439999999995,
      "v": 127
    },
    {
      "midi": 36,
      "hit": false,
      "t": 25999.974,
      "d": 444.4439999999995,
      "v": 127
    },
    {
      "midi": 47,
      "hit": false,
      "t": 26666.64,
      "d": 444.4439999999995,
      "v": 127
    },
    {
      "midi": 54,
      "hit": false,
      "t": 26666.64,
      "d": 888.8880000000026,
      "v": 127
    },
    {
      "midi": 57,
      "hit": false,
      "t": 26666.64,
      "d": 888.8880000000026,
      "v": 127
    },
    {
      "midi": 74,
      "hit": false,
      "t": 26666.64000000001,
      "d": 444.4439999999995,
      "v": 127
    },
    {
      "midi": 62,
      "hit": false,
      "t": 26666.64000000001,
      "d": 1784.7204375000001,
      "v": 127
    },
    {
      "midi": 66,
      "hit": false,
      "t": 27166.63950000001,
      "d": 444.4439999999995,
      "v": 127
    },
    {
      "midi": 47,
      "hit": false,
      "t": 27333.306,
      "d": 444.44400000000314,
      "v": 127
    },
    {
      "midi": 74,
      "hit": false,
      "t": 27666.639000000006,
      "d": 222.22200000000157,
      "v": 127
    },
    {
      "midi": 52,
      "hit": false,
      "t": 27999.972000000005,
      "d": 444.4439999999995,
      "v": 127
    },
    {
      "midi": 59,
      "hit": false,
      "t": 27999.972000000005,
      "d": 888.8880000000026,
      "v": 127
    },
    {
      "midi": 62,
      "hit": false,
      "t": 27999.972000000005,
      "d": 888.8880000000026,
      "v": 127
    },
    {
      "midi": 77,
      "hit": false,
      "t": 27999.97200000001,
      "d": 666.6660000000011,
      "v": 127
    },
    {
      "midi": 68,
      "hit": false,
      "t": 27999.97200000001,
      "d": 888.8880000000026,
      "v": 127
    },
    {
      "midi": 52,
      "hit": false,
      "t": 28666.638000000006,
      "d": 444.44400000000314,
      "v": 127
    },
    {
      "midi": 76,
      "hit": false,
      "t": 28999.971000000012,
      "d": 111.11100000000079,
      "v": 127
    },
    {
      "midi": 75,
      "hit": false,
      "t": 29166.63750000001,
      "d": 111.11100000000079,
      "v": 127
    },
    {
      "midi": 45,
      "hit": false,
      "t": 29333.30400000001,
      "d": 444.4439999999995,
      "v": 127
    },
    {
      "midi": 52,
      "hit": false,
      "t": 29333.30400000001,
      "d": 888.8880000000026,
      "v": 127
    },
    {
      "midi": 60,
      "hit": false,
      "t": 29333.30400000001,
      "d": 888.8880000000026,
      "v": 127
    },
    {
      "midi": 67,
      "hit": false,
      "t": 29333.30400000001,
      "d": 444.4439999999995,
      "v": 127
    },
    {
      "midi": 74,
      "hit": false,
      "t": 29333.30400000001,
      "d": 444.4439999999995,
      "v": 127
    },
    {
      "midi": 64,
      "hit": false,
      "t": 29833.30350000001,
      "d": 444.4439999999995,
      "v": 127
    },
    {
      "midi": 45,
      "hit": false,
      "t": 29999.970000000012,
      "d": 444.44400000000314,
      "v": 127
    },
    {
      "midi": 74,
      "hit": false,
      "t": 30333.303000000007,
      "d": 222.22200000000157,
      "v": 127
    },
    {
      "midi": 69,
      "hit": false,
      "t": 30666.63600000001,
      "d": 222.22200000000157,
      "v": 127
    },
    {
      "midi": 77,
      "hit": false,
      "t": 30666.63600000001,
      "d": 222.22200000000157,
      "v": 127
    },
    {
      "midi": 50,
      "hit": false,
      "t": 30666.636000000017,
      "d": 444.4439999999995,
      "v": 127
    },
    {
      "midi": 54,
      "hit": false,
      "t": 30666.636000000017,
      "d": 888.8880000000026,
      "v": 127
    },
    {
      "midi": 60,
      "hit": false,
      "t": 30666.636000000017,
      "d": 888.8880000000026,
      "v": 127
    },
    {
      "midi": 68,
      "hit": false,
      "t": 30999.969000000012,
      "d": 111.11100000000079,
      "v": 127
    },
    {
      "midi": 76,
      "hit": false,
      "t": 30999.969000000012,
      "d": 111.11100000000079,
      "v": 127
    },
    {
      "midi": 67,
      "hit": false,
      "t": 31166.63550000001,
      "d": 111.11100000000079,
      "v": 127
    },
    {
      "midi": 75,
      "hit": false,
      "t": 31166.63550000001,
      "d": 111.11100000000079,
      "v": 127
    },
    {
      "midi": 66,
      "hit": false,
      "t": 31333.30200000001,
      "d": 222.22200000000157,
      "v": 127
    },
    {
      "midi": 74,
      "hit": false,
      "t": 31333.30200000001,
      "d": 222.22200000000157,
      "v": 127
    },
    {
      "midi": 50,
      "hit": false,
      "t": 31333.302000000018,
      "d": 444.44400000000314,
      "v": 127
    },
    {
      "midi": 65,
      "hit": false,
      "t": 31666.635000000013,
      "d": 111.11100000000079,
      "v": 127
    },
    {
      "midi": 73,
      "hit": false,
      "t": 31666.635000000013,
      "d": 111.11100000000079,
      "v": 127
    },
    {
      "midi": 64,
      "hit": false,
      "t": 31833.301500000012,
      "d": 111.11100000000079,
      "v": 127
    },
    {
      "midi": 73,
      "hit": false,
      "t": 31833.301500000012,
      "d": 111.11100000000079,
      "v": 127
    },
    {
      "midi": 71,
      "hit": false,
      "t": 31999.96800000001,
      "d": 1333.3319999999985,
      "v": 127
    },
    {
      "midi": 59,
      "hit": false,
      "t": 31999.96800000001,
      "d": 1784.7204374999965,
      "v": 127
    },
    {
      "midi": 43,
      "hit": false,
      "t": 31999.968000000023,
      "d": 444.4439999999995,
      "v": 127
    },
    {
      "midi": 50,
      "hit": false,
      "t": 31999.968000000023,
      "d": 1784.7204375000074,
      "v": 127
    },
    {
      "midi": 43,
      "hit": false,
      "t": 32666.634000000024,
      "d": 444.4439999999995,
      "v": 127
    },
    {
      "midi": 43,
      "hit": false,
      "t": 33333.300000000025,
      "d": 444.44400000000314,
      "v": 127
    },
    {
      "midi": 62,
      "hit": false,
      "t": 33999.96600000001,
      "d": 222.22200000000157,
      "v": 127
    },
    {
      "midi": 43,
      "hit": false,
      "t": 33999.96600000003,
      "d": 444.44400000000314,
      "v": 127
    },
    {
      "midi": 61,
      "hit": false,
      "t": 34333.299000000006,
      "d": 111.11099999999715,
      "v": 127
    },
    {
      "midi": 60,
      "hit": false,
      "t": 34499.965500000006,
      "d": 111.11099999999715,
      "v": 127
    },
    {
      "midi": 71,
      "hit": false,
      "t": 34666.632000000005,
      "d": 1333.3320000000022,
      "v": 127
    },
    {
      "midi": 59,
      "hit": false,
      "t": 34666.632000000005,
      "d": 1784.7204375000001,
      "v": 127
    },
    {
      "midi": 43,
      "hit": false,
      "t": 34666.632000000034,
      "d": 444.44400000000314,
      "v": 127
    },
    {
      "midi": 51,
      "hit": false,
      "t": 34666.632000000034,
      "d": 1784.7204375000147,
      "v": 127
    },
    {
      "midi": 43,
      "hit": false,
      "t": 35333.29800000004,
      "d": 444.44400000000314,
      "v": 127
    },
    {
      "midi": 43,
      "hit": false,
      "t": 35999.96400000004,
      "d": 444.44400000000314,
      "v": 127
    },
    {
      "midi": 62,
      "hit": false,
      "t": 36666.630000000005,
      "d": 222.22200000000157,
      "v": 127
    },
    {
      "midi": 43,
      "hit": false,
      "t": 36666.63000000005,
      "d": 444.44400000000314,
      "v": 127
    },
    {
      "midi": 61,
      "hit": false,
      "t": 36999.963,
      "d": 111.11099999999715,
      "v": 127
    },
    {
      "midi": 60,
      "hit": false,
      "t": 37166.6295,
      "d": 111.11099999999715,
      "v": 127
    },
    {
      "midi": 59,
      "hit": false,
      "t": 37333.296,
      "d": 1333.3320000000022,
      "v": 127
    },
    {
      "midi": 71,
      "hit": false,
      "t": 37333.296,
      "d": 1333.3320000000022,
      "v": 127
    },
    {
      "midi": 43,
      "hit": false,
      "t": 37333.29600000005,
      "d": 444.44400000000314,
      "v": 127
    },
    {
      "midi": 52,
      "hit": false,
      "t": 37333.29600000005,
      "d": 1784.7204375000147,
      "v": 127
    },
    {
      "midi": 43,
      "hit": false,
      "t": 37999.96200000006,
      "d": 444.44400000000314,
      "v": 127
    },
    {
      "midi": 43,
      "hit": false,
      "t": 38666.62800000006,
      "d": 444.44400000000314,
      "v": 127
    },
    {
      "midi": 59,
      "hit": false,
      "t": 39333.294,
      "d": 222.22200000000157,
      "v": 127
    },
    {
      "midi": 43,
      "hit": false,
      "t": 39333.29400000007,
      "d": 444.44400000000314,
      "v": 127
    },
    {
      "midi": 60,
      "hit": false,
      "t": 39666.627,
      "d": 111.11099999999715,
      "v": 127
    },
    {
      "midi": 61,
      "hit": false,
      "t": 39833.2935,
      "d": 111.11099999999715,
      "v": 127
    },
    {
      "midi": 57,
      "hit": false,
      "t": 39999.96,
      "d": 888.887999999999,
      "v": 127
    },
    {
      "midi": 59,
      "hit": false,
      "t": 39999.96,
      "d": 1784.7204375000001,
      "v": 127
    },
    {
      "midi": 62,
      "hit": false,
      "t": 39999.96,
      "d": 1784.7204375000001,
      "v": 127
    },
    {
      "midi": 43,
      "hit": false,
      "t": 39999.96000000007,
      "d": 444.44400000000314,
      "v": 127
    },
    {
      "midi": 53,
      "hit": false,
      "t": 39999.96000000007,
      "d": 1784.7204375000147,
      "v": 127
    },
    {
      "midi": 43,
      "hit": false,
      "t": 40666.62600000008,
      "d": 444.44400000000314,
      "v": 127
    },
    {
      "midi": 57,
      "hit": false,
      "t": 41333.292,
      "d": 222.22200000000157,
      "v": 127
    },
    {
      "midi": 43,
      "hit": false,
      "t": 41333.29200000008,
      "d": 444.44400000000314,
      "v": 127
    },
    {
      "midi": 55,
      "hit": false,
      "t": 41666.625,
      "d": 222.22200000000157,
      "v": 127
    },
    {
      "midi": 58,
      "hit": false,
      "t": 41999.958,
      "d": 222.22200000000157,
      "v": 127
    },
    {
      "midi": 43,
      "hit": false,
      "t": 41999.958000000086,
      "d": 444.44400000000314,
      "v": 127
    },
    {
      "midi": 57,
      "hit": false,
      "t": 42333.291,
      "d": 111.11099999999715,
      "v": 127
    },
    {
      "midi": 55,
      "hit": false,
      "t": 42499.9575,
      "d": 111.11099999999715,
      "v": 127
    },
    {
      "midi": 64,
      "hit": false,
      "t": 42666.623999999996,
      "d": 888.887999999999,
      "v": 127
    },
    {
      "midi": 36,
      "hit": false,
      "t": 42666.62400000009,
      "d": 444.44400000000314,
      "v": 127
    },
    {
      "midi": 43,
      "hit": false,
      "t": 42666.62400000009,
      "d": 1784.7204375000147,
      "v": 127
    },
    {
      "midi": 52,
      "hit": false,
      "t": 42666.62400000009,
      "d": 1784.7204375000147,
      "v": 127
    },
    {
      "midi": 67,
      "hit": false,
      "t": 42833.290499999996,
      "d": 1784.7204375000001,
      "v": 127
    },
    {
      "midi": 72,
      "hit": false,
      "t": 42999.956999999995,
      "d": 1784.7204375000001,
      "v": 127
    },
    {
      "midi": 76,
      "hit": false,
      "t": 43166.623499999994,
      "d": 1784.7204375000001,
      "v": 127
    },
    {
      "midi": 36,
      "hit": false,
      "t": 43333.290000000095,
      "d": 444.44400000000314,
      "v": 127
    },
    {
      "midi": 36,
      "hit": false,
      "t": 43999.9560000001,
      "d": 444.44400000000314,
      "v": 127
    },
    {
      "midi": 57,
      "hit": false,
      "t": 44333.289,
      "d": 666.6659999999974,
      "v": 127
    },
    {
      "midi": 36,
      "hit": false,
      "t": 44666.622000000105,
      "d": 444.44400000000314,
      "v": 127
    },
    {
      "midi": 55,
      "hit": false,
      "t": 44999.954999999994,
      "d": 222.22200000000157,
      "v": 127
    },
    {
      "midi": 63,
      "hit": false,
      "t": 45333.28799999999,
      "d": 1784.7204375000001,
      "v": 127
    },
    {
      "midi": 36,
      "hit": false,
      "t": 45333.28800000011,
      "d": 444.44400000000314,
      "v": 127
    },
    {
      "midi": 43,
      "hit": false,
      "t": 45333.28800000011,
      "d": 1784.7204375000147,
      "v": 127
    },
    {
      "midi": 51,
      "hit": false,
      "t": 45333.28800000011,
      "d": 1784.7204375000147,
      "v": 127
    },
    {
      "midi": 67,
      "hit": false,
      "t": 45499.95449999999,
      "d": 1784.7204375000001,
      "v": 127
    },
    {
      "midi": 72,
      "hit": false,
      "t": 45666.62099999999,
      "d": 1784.7204375000001,
      "v": 127
    },
    {
      "midi": 75,
      "hit": false,
      "t": 45833.28749999999,
      "d": 1784.7204375000001,
      "v": 127
    },
    {
      "midi": 36,
      "hit": false,
      "t": 45999.954000000114,
      "d": 444.44400000000314,
      "v": 127
    },
    {
      "midi": 36,
      "hit": false,
      "t": 46666.62000000012,
      "d": 444.44400000000314,
      "v": 127
    },
    {
      "midi": 36,
      "hit": false,
      "t": 47333.286000000124,
      "d": 444.44400000000314,
      "v": 127
    },
    {
      "midi": 43,
      "hit": false,
      "t": 47999.95200000013,
      "d": 444.44400000000314,
      "v": 127
    },
    {
      "midi": 50,
      "hit": false,
      "t": 47999.95200000013,
      "d": 1784.7204375000147,
      "v": 127
    },
    {
      "midi": 59,
      "hit": false,
      "t": 47999.95200000013,
      "d": 1784.7204375000147,
      "v": 127
    },
    {
      "midi": 43,
      "hit": false,
      "t": 48666.61800000013,
      "d": 444.44400000000314,
      "v": 127
    },
    {
      "midi": 69,
      "hit": false,
      "t": 48999.95099999999,
      "d": 222.22200000000157,
      "v": 127
    },
    {
      "midi": 67,
      "hit": false,
      "t": 49333.283999999985,
      "d": 55.55550000000221,
      "v": 127
    },
    {
      "midi": 71,
      "hit": false,
      "t": 49333.283999999985,
      "d": 444.44400000000314,
      "v": 127
    },
    {
      "midi": 43,
      "hit": false,
      "t": 49333.28400000014,
      "d": 444.44400000000314,
      "v": 127
    },
    {
      "midi": 72,
      "hit": false,
      "t": 49833.28349999999,
      "d": 444.44400000000314,
      "v": 127
    },
    {
      "midi": 43,
      "hit": false,
      "t": 49999.95000000014,
      "d": 444.44400000000314,
      "v": 127
    },
    {
      "midi": 74,
      "hit": false,
      "t": 50333.282999999996,
      "d": 222.22200000000157,
      "v": 127
    },
    {
      "midi": 75,
      "hit": false,
      "t": 50666.615999999995,
      "d": 444.44400000000314,
      "v": 127
    },
    {
      "midi": 66,
      "hit": false,
      "t": 50666.615999999995,
      "d": 888.8880000000063,
      "v": 127
    },
    {
      "midi": 71,
      "hit": false,
      "t": 50666.615999999995,
      "d": 888.8880000000063,
      "v": 127
    },
    {
      "midi": 47,
      "hit": false,
      "t": 50666.61600000015,
      "d": 444.44400000000314,
      "v": 127
    },
    {
      "midi": 57,
      "hit": false,
      "t": 50666.61600000015,
      "d": 1784.7204375000147,
      "v": 127
    },
    {
      "midi": 76,
      "hit": false,
      "t": 51166.6155,
      "d": 444.44400000000314,
      "v": 127
    },
    {
      "midi": 47,
      "hit": false,
      "t": 51333.28200000015,
      "d": 444.44400000000314,
      "v": 127
    },
    {
      "midi": 75,
      "hit": false,
      "t": 51666.615000000005,
      "d": 222.22200000000157,
      "v": 127
    },
    {
      "midi": 78,
      "hit": false,
      "t": 51999.948000000004,
      "d": 444.44400000000314,
      "v": 127
    },
    {
      "midi": 66,
      "hit": false,
      "t": 51999.948000000004,
      "d": 888.8880000000063,
      "v": 127
    },
    {
      "midi": 69,
      "hit": false,
      "t": 51999.948000000004,
      "d": 888.8880000000063,
      "v": 127
    },
    {
      "midi": 47,
      "hit": false,
      "t": 51999.94800000016,
      "d": 444.44400000000314,
      "v": 127
    },
    {
      "midi": 76,
      "hit": false,
      "t": 52499.94750000001,
      "d": 444.44400000000314,
      "v": 127
    },
    {
      "midi": 47,
      "hit": false,
      "t": 52666.61400000016,
      "d": 444.44400000000314,
      "v": 127
    },
    {
      "midi": 75,
      "hit": false,
      "t": 52999.947000000015,
      "d": 222.22200000000157,
      "v": 127
    },
    {
      "midi": 67,
      "hit": false,
      "t": 53333.28000000001,
      "d": 444.44400000000314,
      "v": 127
    },
    {
      "midi": 71,
      "hit": false,
      "t": 53333.28000000001,
      "d": 444.44400000000314,
      "v": 127
    },
    {
      "midi": 76,
      "hit": false,
      "t": 53333.28000000001,
      "d": 444.44400000000314,
      "v": 127
    },
    {
      "midi": 79,
      "hit": false,
      "t": 53333.28000000001,
      "d": 1333.3320000000094,
      "v": 127
    },
    {
      "midi": 40,
      "hit": false,
      "t": 53333.280000000166,
      "d": 444.44400000000314,
      "v": 127
    },
    {
      "midi": 47,
      "hit": false,
      "t": 53333.280000000166,
      "d": 444.44400000000314,
      "v": 127
    },
    {
      "midi": 55,
      "hit": false,
      "t": 53333.280000000166,
      "d": 444.44400000000314,
      "v": 127
    },
    {
      "midi": 67,
      "hit": false,
      "t": 53999.94600000002,
      "d": 444.44400000000314,
      "v": 127
    },
    {
      "midi": 71,
      "hit": false,
      "t": 53999.94600000002,
      "d": 444.44400000000314,
      "v": 127
    },
    {
      "midi": 76,
      "hit": false,
      "t": 53999.94600000002,
      "d": 444.44400000000314,
      "v": 127
    },
    {
      "midi": 40,
      "hit": false,
      "t": 53999.94600000017,
      "d": 444.44400000000314,
      "v": 127
    },
    {
      "midi": 47,
      "hit": false,
      "t": 53999.94600000017,
      "d": 444.44400000000314,
      "v": 127
    },
    {
      "midi": 55,
      "hit": false,
      "t": 53999.94600000017,
      "d": 444.44400000000314,
      "v": 127
    },
    {
      "midi": 67,
      "hit": false,
      "t": 54666.61200000002,
      "d": 444.44400000000314,
      "v": 127
    },
    {
      "midi": 71,
      "hit": false,
      "t": 54666.61200000002,
      "d": 444.44400000000314,
      "v": 127
    },
    {
      "midi": 76,
      "hit": false,
      "t": 54666.61200000002,
      "d": 444.44400000000314,
      "v": 127
    },
    {
      "midi": 40,
      "hit": false,
      "t": 54666.612000000176,
      "d": 444.44400000000314,
      "v": 127
    },
    {
      "midi": 47,
      "hit": false,
      "t": 54666.612000000176,
      "d": 444.44400000000314,
      "v": 127
    },
    {
      "midi": 55,
      "hit": false,
      "t": 54666.612000000176,
      "d": 444.44400000000314,
      "v": 127
    },
    {
      "midi": 67,
      "hit": false,
      "t": 55333.27800000003,
      "d": 222.22200000000157,
      "v": 127
    },
    {
      "midi": 71,
      "hit": false,
      "t": 55333.27800000003,
      "d": 222.22200000000157,
      "v": 127
    },
    {
      "midi": 76,
      "hit": false,
      "t": 55333.27800000003,
      "d": 222.22200000000157,
      "v": 127
    },
    {
      "midi": 79,
      "hit": false,
      "t": 55333.27800000003,
      "d": 222.22200000000157,
      "v": 127
    },
    {
      "midi": 40,
      "hit": false,
      "t": 55333.27800000018,
      "d": 444.44400000000314,
      "v": 127
    },
    {
      "midi": 47,
      "hit": false,
      "t": 55333.27800000018,
      "d": 444.44400000000314,
      "v": 127
    },
    {
      "midi": 55,
      "hit": false,
      "t": 55333.27800000018,
      "d": 444.44400000000314,
      "v": 127
    },
    {
      "midi": 67,
      "hit": false,
      "t": 55666.611000000026,
      "d": 111.11099999999715,
      "v": 127
    },
    {
      "midi": 71,
      "hit": false,
      "t": 55666.611000000026,
      "d": 111.11099999999715,
      "v": 127
    },
    {
      "midi": 76,
      "hit": false,
      "t": 55666.611000000026,
      "d": 111.11099999999715,
      "v": 127
    },
    {
      "midi": 79,
      "hit": false,
      "t": 55666.611000000026,
      "d": 111.11099999999715,
      "v": 127
    },
    {
      "midi": 67,
      "hit": false,
      "t": 55833.277500000026,
      "d": 111.11099999999715,
      "v": 127
    },
    {
      "midi": 71,
      "hit": false,
      "t": 55833.277500000026,
      "d": 111.11099999999715,
      "v": 127
    },
    {
      "midi": 76,
      "hit": false,
      "t": 55833.277500000026,
      "d": 111.11099999999715,
      "v": 127
    },
    {
      "midi": 79,
      "hit": false,
      "t": 55833.277500000026,
      "d": 111.11099999999715,
      "v": 127
    },
    {
      "midi": 66,
      "hit": false,
      "t": 55999.944000000025,
      "d": 444.44400000000314,
      "v": 127
    },
    {
      "midi": 70,
      "hit": false,
      "t": 55999.944000000025,
      "d": 444.44400000000314,
      "v": 127
    },
    {
      "midi": 73,
      "hit": false,
      "t": 55999.944000000025,
      "d": 444.44400000000314,
      "v": 127
    },
    {
      "midi": 78,
      "hit": false,
      "t": 55999.944000000025,
      "d": 1333.3320000000094,
      "v": 127
    },
    {
      "midi": 40,
      "hit": false,
      "t": 55999.944000000185,
      "d": 444.44400000000314,
      "v": 127
    },
    {
      "midi": 46,
      "hit": false,
      "t": 55999.944000000185,
      "d": 444.44400000000314,
      "v": 127
    },
    {
      "midi": 54,
      "hit": false,
      "t": 55999.944000000185,
      "d": 444.44400000000314,
      "v": 127
    },
    {
      "midi": 66,
      "hit": false,
      "t": 56666.61000000003,
      "d": 444.44400000000314,
      "v": 127
    },
    {
      "midi": 70,
      "hit": false,
      "t": 56666.61000000003,
      "d": 444.44400000000314,
      "v": 127
    },
    {
      "midi": 73,
      "hit": false,
      "t": 56666.61000000003,
      "d": 444.44400000000314,
      "v": 127
    },
    {
      "midi": 40,
      "hit": false,
      "t": 56666.61000000019,
      "d": 444.44400000000314,
      "v": 127
    },
    {
      "midi": 46,
      "hit": false,
      "t": 56666.61000000019,
      "d": 444.44400000000314,
      "v": 127
    },
    {
      "midi": 54,
      "hit": false,
      "t": 56666.61000000019,
      "d": 444.44400000000314,
      "v": 127
    },
    {
      "midi": 66,
      "hit": false,
      "t": 57333.276000000034,
      "d": 444.44400000000314,
      "v": 127
    },
    {
      "midi": 70,
      "hit": false,
      "t": 57333.276000000034,
      "d": 444.44400000000314,
      "v": 127
    },
    {
      "midi": 73,
      "hit": false,
      "t": 57333.276000000034,
      "d": 444.44400000000314,
      "v": 127
    },
    {
      "midi": 40,
      "hit": false,
      "t": 57333.276000000194,
      "d": 444.44400000000314,
      "v": 127
    },
    {
      "midi": 46,
      "hit": false,
      "t": 57333.276000000194,
      "d": 444.44400000000314,
      "v": 127
    },
    {
      "midi": 54,
      "hit": false,
      "t": 57333.276000000194,
      "d": 444.44400000000314,
      "v": 127
    },
    {
      "midi": 66,
      "hit": false,
      "t": 57999.94200000004,
      "d": 222.22200000000157,
      "v": 127
    },
    {
      "midi": 70,
      "hit": false,
      "t": 57999.94200000004,
      "d": 222.22200000000157,
      "v": 127
    },
    {
      "midi": 73,
      "hit": false,
      "t": 57999.94200000004,
      "d": 222.22200000000157,
      "v": 127
    },
    {
      "midi": 78,
      "hit": false,
      "t": 57999.94200000004,
      "d": 222.22200000000157,
      "v": 127
    },
    {
      "midi": 40,
      "hit": false,
      "t": 57999.9420000002,
      "d": 444.44400000000314,
      "v": 127
    },
    {
      "midi": 46,
      "hit": false,
      "t": 57999.9420000002,
      "d": 444.44400000000314,
      "v": 127
    },
    {
      "midi": 54,
      "hit": false,
      "t": 57999.9420000002,
      "d": 444.44400000000314,
      "v": 127
    },
    {
      "midi": 66,
      "hit": false,
      "t": 58333.27500000004,
      "d": 111.11099999999715,
      "v": 127
    },
    {
      "midi": 70,
      "hit": false,
      "t": 58333.27500000004,
      "d": 111.11099999999715,
      "v": 127
    },
    {
      "midi": 73,
      "hit": false,
      "t": 58333.27500000004,
      "d": 111.11099999999715,
      "v": 127
    },
    {
      "midi": 78,
      "hit": false,
      "t": 58333.27500000004,
      "d": 111.11099999999715,
      "v": 127
    },
    {
      "midi": 66,
      "hit": false,
      "t": 58499.94150000004,
      "d": 111.11099999999715,
      "v": 127
    },
    {
      "midi": 70,
      "hit": false,
      "t": 58499.94150000004,
      "d": 111.11099999999715,
      "v": 127
    },
    {
      "midi": 73,
      "hit": false,
      "t": 58499.94150000004,
      "d": 111.11099999999715,
      "v": 127
    },
    {
      "midi": 78,
      "hit": false,
      "t": 58499.94150000004,
      "d": 111.11099999999715,
      "v": 127
    },
    {
      "midi": 66,
      "hit": false,
      "t": 58666.60800000004,
      "d": 444.44400000000314,
      "v": 127
    },
    {
      "midi": 78,
      "hit": false,
      "t": 58666.60800000004,
      "d": 444.44400000000314,
      "v": 127
    },
    {
      "midi": 72,
      "hit": false,
      "t": 58666.60800000004,
      "d": 888.8880000000063,
      "v": 127
    },
    {
      "midi": 76,
      "hit": false,
      "t": 58666.60800000004,
      "d": 888.8880000000063,
      "v": 127
    },
    {
      "midi": 45,
      "hit": false,
      "t": 58666.608000000204,
      "d": 444.44400000000314,
      "v": 127
    },
    {
      "midi": 52,
      "hit": false,
      "t": 58666.608000000204,
      "d": 888.8880000000063,
      "v": 127
    },
    {
      "midi": 57,
      "hit": false,
      "t": 58666.608000000204,
      "d": 888.8880000000063,
      "v": 127
    },
    {
      "midi": 67,
      "hit": false,
      "t": 59166.60750000004,
      "d": 444.44400000000314,
      "v": 127
    },
    {
      "midi": 79,
      "hit": false,
      "t": 59166.60750000004,
      "d": 444.44400000000314,
      "v": 127
    },
    {
      "midi": 45,
      "hit": false,
      "t": 59333.27400000021,
      "d": 444.44400000000314,
      "v": 127
    },
    {
      "midi": 66,
      "hit": false,
      "t": 59666.60700000005,
      "d": 222.22200000000157,
      "v": 127
    },
    {
      "midi": 78,
      "hit": false,
      "t": 59666.60700000005,
      "d": 222.22200000000157,
      "v": 127
    },
    {
      "midi": 69,
      "hit": false,
      "t": 59999.940000000046,
      "d": 444.44400000000314,
      "v": 127
    },
    {
      "midi": 81,
      "hit": false,
      "t": 59999.940000000046,
      "d": 444.44400000000314,
      "v": 127
    },
    {
      "midi": 75,
      "hit": false,
      "t": 59999.940000000046,
      "d": 888.8880000000063,
      "v": 127
    },
    {
      "midi": 47,
      "hit": false,
      "t": 59999.94000000021,
      "d": 444.44400000000314,
      "v": 127
    },
    {
      "midi": 54,
      "hit": false,
      "t": 59999.94000000021,
      "d": 888.8880000000063,
      "v": 127
    },
    {
      "midi": 57,
      "hit": false,
      "t": 59999.94000000021,
      "d": 888.8880000000063,
      "v": 127
    },
    {
      "midi": 67,
      "hit": false,
      "t": 60499.93950000005,
      "d": 444.44400000000314,
      "v": 127
    },
    {
      "midi": 79,
      "hit": false,
      "t": 60499.93950000005,
      "d": 444.44400000000314,
      "v": 127
    },
    {
      "midi": 47,
      "hit": false,
      "t": 60666.60600000022,
      "d": 444.44400000000314,
      "v": 127
    },
    {
      "midi": 66,
      "hit": false,
      "t": 60999.93900000006,
      "d": 222.22200000000157,
      "v": 127
    },
    {
      "midi": 78,
      "hit": false,
      "t": 60999.93900000006,
      "d": 222.22200000000157,
      "v": 127
    },
    {
      "midi": 64,
      "hit": false,
      "t": 61333.272000000055,
      "d": 444.44400000000314,
      "v": 127
    },
    {
      "midi": 71,
      "hit": false,
      "t": 61333.272000000055,
      "d": 444.44400000000314,
      "v": 127
    },
    {
      "midi": 76,
      "hit": false,
      "t": 61333.272000000055,
      "d": 1784.7204375000074,
      "v": 127
    },
    {
      "midi": 40,
      "hit": false,
      "t": 61333.27200000022,
      "d": 444.44399999999587,
      "v": 127
    },
    {
      "midi": 47,
      "hit": false,
      "t": 61499.93850000022,
      "d": 1784.7204375000074,
      "v": 127
    },
    {
      "midi": 55,
      "hit": false,
      "t": 61666.60500000022,
      "d": 1784.7204375000074,
      "v": 127
    },
    {
      "midi": 64,
      "hit": false,
      "t": 61999.93800000006,
      "d": 222.22200000000157,
      "v": 127
    },
    {
      "midi": 71,
      "hit": false,
      "t": 61999.93800000006,
      "d": 222.22200000000157,
      "v": 127
    },
    {
      "midi": 40,
      "hit": false,
      "t": 61999.93800000022,
      "d": 444.44400000000314,
      "v": 127
    },
    {
      "midi": 64,
      "hit": false,
      "t": 62333.27100000006,
      "d": 111.11099999999715,
      "v": 127
    },
    {
      "midi": 71,
      "hit": false,
      "t": 62333.27100000006,
      "d": 111.11099999999715,
      "v": 127
    },
    {
      "midi": 64,
      "hit": false,
      "t": 62499.93750000006,
      "d": 111.11099999999715,
      "v": 127
    },
    {
      "midi": 71,
      "hit": false,
      "t": 62499.93750000006,
      "d": 111.11099999999715,
      "v": 127
    },
    {
      "midi": 64,
      "hit": false,
      "t": 62666.60400000006,
      "d": 444.44400000000314,
      "v": 127
    },
    {
      "midi": 71,
      "hit": false,
      "t": 62666.60400000006,
      "d": 444.44400000000314,
      "v": 127
    },
    {
      "midi": 40,
      "hit": false,
      "t": 62666.604000000225,
      "d": 444.44400000000314,
      "v": 127
    },
    {
      "midi": 64,
      "hit": false,
      "t": 63333.27000000006,
      "d": 444.44400000000314,
      "v": 127
    },
    {
      "midi": 71,
      "hit": false,
      "t": 63333.27000000006,
      "d": 444.44400000000314,
      "v": 127
    },
    {
      "midi": 40,
      "hit": false,
      "t": 63333.27000000023,
      "d": 444.44399999999587,
      "v": 127
    },
    {
      "midi": 71,
      "hit": false,
      "t": 63999.93600000007,
      "d": 888.887999999999,
      "v": 127
    },
    {
      "midi": 74,
      "hit": false,
      "t": 63999.93600000007,
      "d": 888.887999999999,
      "v": 127
    },
    {
      "midi": 62,
      "hit": false,
      "t": 63999.93600000007,
      "d": 1784.7204375000074,
      "v": 127
    },
    {
      "midi": 66,
      "hit": false,
      "t": 63999.93600000007,
      "d": 1784.7204375000074,
      "v": 127
    },
    {
      "midi": 47,
      "hit": false,
      "t": 63999.93600000023,
      "d": 444.44400000000314,
      "v": 127
    },
    {
      "midi": 54,
      "hit": false,
      "t": 63999.93600000023,
      "d": 1784.7204375000074,
      "v": 127
    },
    {
      "midi": 59,
      "hit": false,
      "t": 63999.93600000023,
      "d": 1784.7204375000074,
      "v": 127
    },
    {
      "midi": 47,
      "hit": false,
      "t": 64666.60200000023,
      "d": 444.44400000000314,
      "v": 127
    },
    {
      "midi": 71,
      "hit": false,
      "t": 65333.26800000007,
      "d": 888.8880000000063,
      "v": 127
    },
    {
      "midi": 47,
      "hit": false,
      "t": 65333.26800000024,
      "d": 444.44399999999587,
      "v": 127
    },
    {
      "midi": 47,
      "hit": false,
      "t": 65999.93400000024,
      "d": 444.44400000000314,
      "v": 127
    },
    {
      "midi": 71,
      "hit": false,
      "t": 66666.60000000008,
      "d": 888.8880000000063,
      "v": 127
    },
    {
      "midi": 74,
      "hit": false,
      "t": 66666.60000000008,
      "d": 888.8880000000063,
      "v": 127
    },
    {
      "midi": 62,
      "hit": false,
      "t": 66666.60000000008,
      "d": 1333.3320000000094,
      "v": 127
    },
    {
      "midi": 66,
      "hit": false,
      "t": 66666.60000000008,
      "d": 1333.3320000000094,
      "v": 127
    },
    {
      "midi": 40,
      "hit": false,
      "t": 66666.60000000024,
      "d": 444.4440000000177,
      "v": 127
    },
    {
      "midi": 47,
      "hit": false,
      "t": 66833.26650000025,
      "d": 1784.7204375000001,
      "v": 127
    },
    {
      "midi": 56,
      "hit": false,
      "t": 66999.93300000025,
      "d": 1784.7204375000001,
      "v": 127
    },
    {
      "midi": 40,
      "hit": false,
      "t": 67333.26600000025,
      "d": 444.44400000000314,
      "v": 127
    },
    {
      "midi": 71,
      "hit": false,
      "t": 67999.93200000009,
      "d": 888.8880000000063,
      "v": 127
    },
    {
      "midi": 40,
      "hit": false,
      "t": 67999.93200000025,
      "d": 444.44400000000314,
      "v": 127
    },
    {
      "midi": 66,
      "hit": false,
      "t": 68333.26500000009,
      "d": 222.22200000000885,
      "v": 127
    },
    {
      "midi": 64,
      "hit": false,
      "t": 68499.9315000001,
      "d": 444.44400000000314,
      "v": 127
    },
    {
      "midi": 40,
      "hit": false,
      "t": 68666.59800000025,
      "d": 444.44400000000314,
      "v": 127
    },
    {
      "midi": 62,
      "hit": false,
      "t": 68999.9310000001,
      "d": 222.2219999999943,
      "v": 127
    },
    {
      "midi": 61,
      "hit": false,
      "t": 69333.2640000001,
      "d": 444.44400000000314,
      "v": 127
    },
    {
      "midi": 67,
      "hit": false,
      "t": 69333.2640000001,
      "d": 444.44400000000314,
      "v": 127
    },
    {
      "midi": 69,
      "hit": false,
      "t": 69333.2640000001,
      "d": 444.44400000000314,
      "v": 127
    },
    {
      "midi": 45,
      "hit": false,
      "t": 69333.26400000024,
      "d": 444.44400000000314,
      "v": 127
    },
    {
      "midi": 52,
      "hit": false,
      "t": 69333.26400000024,
      "d": 888.8879999999917,
      "v": 127
    },
    {
      "midi": 55,
      "hit": false,
      "t": 69333.26400000024,
      "d": 888.8879999999917,
      "v": 127
    },
    {
      "midi": 57,
      "hit": false,
      "t": 69666.5970000001,
      "d": 222.22200000000885,
      "v": 127
    },
    {
      "midi": 62,
      "hit": false,
      "t": 69833.2635000001,
      "d": 444.44400000000314,
      "v": 127
    },
    {
      "midi": 64,
      "hit": false,
      "t": 69833.2635000001,
      "d": 444.44400000000314,
      "v": 127
    },
    {
      "midi": 67,
      "hit": false,
      "t": 69833.2635000001,
      "d": 444.44400000000314,
      "v": 127
    },
    {
      "midi": 71,
      "hit": false,
      "t": 69833.2635000001,
      "d": 444.44400000000314,
      "v": 127
    },
    {
      "midi": 45,
      "hit": false,
      "t": 69999.93000000024,
      "d": 444.4439999999886,
      "v": 127
    },
    {
      "midi": 59,
      "hit": false,
      "t": 70499.9295000001,
      "d": 222.22200000000885,
      "v": 127
    },
    {
      "midi": 63,
      "hit": false,
      "t": 70666.5960000001,
      "d": 444.44400000000314,
      "v": 127
    },
    {
      "midi": 67,
      "hit": false,
      "t": 70666.5960000001,
      "d": 444.44400000000314,
      "v": 127
    },
    {
      "midi": 69,
      "hit": false,
      "t": 70666.5960000001,
      "d": 444.44400000000314,
      "v": 127
    },
    {
      "midi": 72,
      "hit": false,
      "t": 70666.5960000001,
      "d": 444.44400000000314,
      "v": 127
    },
    {
      "midi": 45,
      "hit": false,
      "t": 70666.59600000022,
      "d": 444.44400000000314,
      "v": 127
    },
    {
      "midi": 51,
      "hit": false,
      "t": 70666.59600000022,
      "d": 444.44400000000314,
      "v": 127
    },
    {
      "midi": 55,
      "hit": false,
      "t": 70666.59600000022,
      "d": 888.8879999999917,
      "v": 127
    },
    {
      "midi": 60,
      "hit": false,
      "t": 70999.9290000001,
      "d": 222.22200000000885,
      "v": 127
    },
    {
      "midi": 64,
      "hit": false,
      "t": 71166.59550000011,
      "d": 444.44400000000314,
      "v": 127
    },
    {
      "midi": 67,
      "hit": false,
      "t": 71166.59550000011,
      "d": 444.44400000000314,
      "v": 127
    },
    {
      "midi": 69,
      "hit": false,
      "t": 71166.59550000011,
      "d": 444.44400000000314,
      "v": 127
    },
    {
      "midi": 73,
      "hit": false,
      "t": 71166.59550000011,
      "d": 444.44400000000314,
      "v": 127
    },
    {
      "midi": 45,
      "hit": false,
      "t": 71333.26200000022,
      "d": 444.4439999999886,
      "v": 127
    },
    {
      "midi": 52,
      "hit": false,
      "t": 71333.26200000022,
      "d": 444.4439999999886,
      "v": 127
    },
    {
      "midi": 61,
      "hit": false,
      "t": 71833.26150000011,
      "d": 222.22200000000885,
      "v": 127
    },
    {
      "midi": 66,
      "hit": false,
      "t": 71999.92800000012,
      "d": 444.44400000000314,
      "v": 127
    },
    {
      "midi": 69,
      "hit": false,
      "t": 71999.92800000012,
      "d": 444.44400000000314,
      "v": 127
    },
    {
      "midi": 72,
      "hit": false,
      "t": 71999.92800000012,
      "d": 444.44400000000314,
      "v": 127
    },
    {
      "midi": 74,
      "hit": false,
      "t": 71999.92800000012,
      "d": 444.44400000000314,
      "v": 127
    },
    {
      "midi": 38,
      "hit": false,
      "t": 71999.9280000002,
      "d": 444.44400000000314,
      "v": 127
    },
    {
      "midi": 50,
      "hit": false,
      "t": 71999.9280000002,
      "d": 1333.3319999999949,
      "v": 127
    },
    {
      "midi": 62,
      "hit": false,
      "t": 72333.26100000012,
      "d": 222.22200000000885,
      "v": 127
    },
    {
      "midi": 64,
      "hit": false,
      "t": 72666.59400000013,
      "d": 222.2219999999943,
      "v": 127
    },
    {
      "midi": 67,
      "hit": false,
      "t": 72666.59400000013,
      "d": 222.2219999999943,
      "v": 127
    },
    {
      "midi": 72,
      "hit": false,
      "t": 72666.59400000013,
      "d": 222.2219999999943,
      "v": 127
    },
    {
      "midi": 76,
      "hit": false,
      "t": 72666.59400000013,
      "d": 222.2219999999943,
      "v": 127
    },
    {
      "midi": 38,
      "hit": false,
      "t": 72666.5940000002,
      "d": 222.2219999999943,
      "v": 127
    },
    {
      "midi": 66,
      "hit": false,
      "t": 72999.92700000013,
      "d": 666.6659999999974,
      "v": 127
    },
    {
      "midi": 72,
      "hit": false,
      "t": 72999.92700000013,
      "d": 666.6659999999974,
      "v": 127
    },
    {
      "midi": 74,
      "hit": false,
      "t": 72999.92700000013,
      "d": 666.6659999999974,
      "v": 127
    },
    {
      "midi": 78,
      "hit": false,
      "t": 72999.92700000013,
      "d": 666.6659999999974,
      "v": 127
    },
    {
      "midi": 38,
      "hit": false,
      "t": 72999.9270000002,
      "d": 666.6659999999974,
      "v": 127
    },
    {
      "midi": 38,
      "hit": false,
      "t": 74666.5920000002,
      "d": 444.4440000000177,
      "v": 127
    },
    {
      "midi": 42,
      "hit": false,
      "t": 74833.2585000002,
      "d": 444.4440000000177,
      "v": 127
    },
    {
      "midi": 45,
      "hit": false,
      "t": 74999.9250000002,
      "d": 444.4440000000177,
      "v": 127
    },
    {
      "midi": 48,
      "hit": false,
      "t": 75166.59150000021,
      "d": 444.4440000000177,
      "v": 127
    },
    {
      "midi": 54,
      "hit": false,
      "t": 75333.25800000022,
      "d": 444.4440000000177,
      "v": 127
    },
    {
      "midi": 57,
      "hit": false,
      "t": 75499.92450000023,
      "d": 444.4440000000177,
      "v": 127
    },
    {
      "midi": 60,
      "hit": false,
      "t": 75666.59100000013,
      "d": 444.4440000000177,
      "v": 127
    },
    {
      "midi": 66,
      "hit": false,
      "t": 75833.25750000014,
      "d": 444.4440000000177,
      "v": 127
    },
    {
      "midi": 69,
      "hit": false,
      "t": 75999.92400000014,
      "d": 444.4440000000177,
      "v": 127
    },
    {
      "midi": 74,
      "hit": false,
      "t": 76166.59050000015,
      "d": 444.4440000000177,
      "v": 127
    },
    {
      "midi": 78,
      "hit": false,
      "t": 76333.25700000016,
      "d": 444.4440000000177,
      "v": 127
    },
    {
      "midi": 81,
      "hit": false,
      "t": 76499.92350000016,
      "d": 444.4440000000177,
      "v": 127
    },
    {
      "midi": 90,
      "hit": false,
      "t": 76666.59000000017,
      "d": 444.4440000000177,
      "v": 127
    },
    {
      "midi": 38,
      "hit": false,
      "t": 77333.25600000024,
      "d": 444.4440000000177,
      "v": 127
    },
    {
      "midi": 45,
      "hit": false,
      "t": 77499.92250000025,
      "d": 444.4440000000177,
      "v": 127
    },
    {
      "midi": 54,
      "hit": false,
      "t": 77666.58900000025,
      "d": 444.4440000000177,
      "v": 127
    },
    {
      "midi": 60,
      "hit": false,
      "t": 77833.25550000019,
      "d": 444.4440000000177,
      "v": 127
    },
    {
      "midi": 66,
      "hit": false,
      "t": 77999.9220000002,
      "d": 444.4440000000177,
      "v": 127
    },
    {
      "midi": 70,
      "hit": false,
      "t": 78166.5885000002,
      "d": 444.4440000000177,
      "v": 127
    },
    {
      "midi": 74,
      "hit": false,
      "t": 78333.25500000021,
      "d": 444.4440000000177,
      "v": 127
    },
    {
      "midi": 78,
      "hit": false,
      "t": 78499.92150000022,
      "d": 444.4440000000177,
      "v": 127
    },
    {
      "midi": 86,
      "hit": false,
      "t": 78666.58800000022,
      "d": 444.4440000000177,
      "v": 127
    },
    {
      "midi": 64,
      "hit": false,
      "t": 79333.25400000023,
      "d": 222.2219999999943,
      "v": 127
    },
    {
      "midi": 61,
      "hit": false,
      "t": 79666.58700000023,
      "d": 111.11100000000442,
      "v": 127
    },
    {
      "midi": 60,
      "hit": false,
      "t": 79833.25350000024,
      "d": 111.11100000000442,
      "v": 127
    },
    {
      "midi": 71,
      "hit": false,
      "t": 79999.92000000025,
      "d": 1333.3319999999949,
      "v": 127
    },
    {
      "midi": 59,
      "hit": false,
      "t": 79999.92000000025,
      "d": 1784.7204375000001,
      "v": 127
    },
    {
      "midi": 43,
      "hit": false,
      "t": 79999.92000000027,
      "d": 444.44400000000314,
      "v": 127
    },
    {
      "midi": 50,
      "hit": false,
      "t": 79999.92000000027,
      "d": 1784.7204375000001,
      "v": 127
    },
    {
      "midi": 43,
      "hit": false,
      "t": 80666.58600000027,
      "d": 444.44400000000314,
      "v": 127
    },
    {
      "midi": 43,
      "hit": false,
      "t": 81333.25200000027,
      "d": 444.44400000000314,
      "v": 127
    },
    {
      "midi": 62,
      "hit": false,
      "t": 81999.91800000025,
      "d": 222.2219999999943,
      "v": 127
    },
    {
      "midi": 43,
      "hit": false,
      "t": 81999.91800000028,
      "d": 444.44400000000314,
      "v": 127
    },
    {
      "midi": 61,
      "hit": false,
      "t": 82333.25100000025,
      "d": 111.11100000000442,
      "v": 127
    },
    {
      "midi": 60,
      "hit": false,
      "t": 82499.91750000026,
      "d": 111.11100000000442,
      "v": 127
    },
    {
      "midi": 71,
      "hit": false,
      "t": 82666.58400000026,
      "d": 1333.3319999999949,
      "v": 127
    },
    {
      "midi": 59,
      "hit": false,
      "t": 82666.58400000026,
      "d": 1784.7204375000001,
      "v": 127
    },
    {
      "midi": 43,
      "hit": false,
      "t": 82666.58400000028,
      "d": 444.44400000000314,
      "v": 127
    },
    {
      "midi": 51,
      "hit": false,
      "t": 82666.58400000028,
      "d": 1784.7204375000001,
      "v": 127
    },
    {
      "midi": 43,
      "hit": false,
      "t": 83333.25000000028,
      "d": 444.44400000000314,
      "v": 127
    },
    {
      "midi": 43,
      "hit": false,
      "t": 83999.91600000027,
      "d": 444.44400000000314,
      "v": 127
    },
    {
      "midi": 62,
      "hit": false,
      "t": 84666.58200000027,
      "d": 222.2219999999943,
      "v": 127
    },
    {
      "midi": 43,
      "hit": false,
      "t": 84666.58200000029,
      "d": 444.44400000000314,
      "v": 127
    },
    {
      "midi": 61,
      "hit": false,
      "t": 84999.91500000027,
      "d": 111.11100000000442,
      "v": 127
    },
    {
      "midi": 60,
      "hit": false,
      "t": 85166.58150000028,
      "d": 111.11100000000442,
      "v": 127
    },
    {
      "midi": 43,
      "hit": false,
      "t": 85333.24800000028,
      "d": 444.44400000000314,
      "v": 127
    },
    {
      "midi": 52,
      "hit": false,
      "t": 85333.24800000028,
      "d": 1784.7204375000001,
      "v": 127
    },
    {
      "midi": 59,
      "hit": false,
      "t": 85333.24800000028,
      "d": 1333.3319999999949,
      "v": 127
    },
    {
      "midi": 71,
      "hit": false,
      "t": 85333.24800000028,
      "d": 1333.3319999999949,
      "v": 127
    },
    {
      "midi": 43,
      "hit": false,
      "t": 85999.91400000028,
      "d": 444.44400000000314,
      "v": 127
    },
    {
      "midi": 43,
      "hit": false,
      "t": 86666.58000000028,
      "d": 444.44400000000314,
      "v": 127
    },
    {
      "midi": 59,
      "hit": false,
      "t": 87333.24600000028,
      "d": 222.2219999999943,
      "v": 127
    },
    {
      "midi": 43,
      "hit": false,
      "t": 87333.24600000029,
      "d": 444.44400000000314,
      "v": 127
    },
    {
      "midi": 60,
      "hit": false,
      "t": 87666.57900000027,
      "d": 111.11100000000442,
      "v": 127
    },
    {
      "midi": 61,
      "hit": false,
      "t": 87833.24550000028,
      "d": 111.11100000000442,
      "v": 127
    },
    {
      "midi": 43,
      "hit": false,
      "t": 87999.91200000029,
      "d": 444.44400000000314,
      "v": 127
    },
    {
      "midi": 53,
      "hit": false,
      "t": 87999.91200000029,
      "d": 1784.7204375000001,
      "v": 127
    },
    {
      "midi": 57,
      "hit": false,
      "t": 87999.91200000029,
      "d": 1333.3319999999949,
      "v": 127
    },
    {
      "midi": 59,
      "hit": false,
      "t": 87999.91200000029,
      "d": 1333.3319999999949,
      "v": 127
    },
    {
      "midi": 62,
      "hit": false,
      "t": 87999.91200000029,
      "d": 1333.3319999999949,
      "v": 127
    },
    {
      "midi": 43,
      "hit": false,
      "t": 88666.57800000029,
      "d": 444.44400000000314,
      "v": 127
    },
    {
      "midi": 43,
      "hit": false,
      "t": 89333.24400000028,
      "d": 444.44400000000314,
      "v": 127
    },
    {
      "midi": 59,
      "hit": false,
      "t": 89999.91000000028,
      "d": 222.2219999999943,
      "v": 127
    },
    {
      "midi": 43,
      "hit": false,
      "t": 89999.9100000003,
      "d": 444.44400000000314,
      "v": 127
    },
    {
      "midi": 60,
      "hit": false,
      "t": 90333.24300000028,
      "d": 111.11100000000442,
      "v": 127
    },
    {
      "midi": 62,
      "hit": false,
      "t": 90499.90950000029,
      "d": 111.11100000000442,
      "v": 127
    },
    {
      "midi": 36,
      "hit": false,
      "t": 90666.57600000029,
      "d": 444.44400000000314,
      "v": 127
    },
    {
      "midi": 43,
      "hit": false,
      "t": 90666.57600000029,
      "d": 1784.7204375000001,
      "v": 127
    },
    {
      "midi": 52,
      "hit": false,
      "t": 90666.57600000029,
      "d": 1784.7204375000001,
      "v": 127
    },
    {
      "midi": 64,
      "hit": false,
      "t": 90666.57600000029,
      "d": 888.8880000000063,
      "v": 127
    },
    {
      "midi": 55,
      "hit": false,
      "t": 90666.57600000029,
      "d": 1333.3320000000094,
      "v": 127
    },
    {
      "midi": 60,
      "hit": false,
      "t": 90666.57600000029,
      "d": 1333.3320000000094,
      "v": 127
    },
    {
      "midi": 36,
      "hit": false,
      "t": 91333.24200000029,
      "d": 444.44400000000314,
      "v": 127
    },
    {
      "midi": 36,
      "hit": false,
      "t": 91999.90800000029,
      "d": 444.44400000000314,
      "v": 127
    },
    {
      "midi": 67,
      "hit": false,
      "t": 91999.9080000003,
      "d": 888.8879999999917,
      "v": 127
    },
    {
      "midi": 36,
      "hit": false,
      "t": 92666.5740000003,
      "d": 444.44400000000314,
      "v": 127
    },
    {
      "midi": 58,
      "hit": false,
      "t": 92666.5740000003,
      "d": 222.2219999999943,
      "v": 127
    },
    {
      "midi": 57,
      "hit": false,
      "t": 92999.9070000003,
      "d": 111.11100000000442,
      "v": 127
    },
    {
      "midi": 55,
      "hit": false,
      "t": 93166.5735000003,
      "d": 111.11100000000442,
      "v": 127
    },
    {
      "midi": 36,
      "hit": false,
      "t": 93333.2400000003,
      "d": 444.44400000000314,
      "v": 127
    },
    {
      "midi": 43,
      "hit": false,
      "t": 93333.2400000003,
      "d": 1784.7204375000001,
      "v": 127
    },
    {
      "midi": 51,
      "hit": false,
      "t": 93333.2400000003,
      "d": 1784.7204375000001,
      "v": 127
    },
    {
      "midi": 57,
      "hit": false,
      "t": 93333.24000000031,
      "d": 888.8880000000063,
      "v": 127
    },
    {
      "midi": 63,
      "hit": false,
      "t": 93333.24000000031,
      "d": 888.8880000000063,
      "v": 127
    },
    {
      "midi": 67,
      "hit": false,
      "t": 93333.24000000031,
      "d": 888.8880000000063,
      "v": 127
    },
    {
      "midi": 69,
      "hit": false,
      "t": 93333.24000000031,
      "d": 888.8880000000063,
      "v": 127
    },
    {
      "midi": 36,
      "hit": false,
      "t": 93999.9060000003,
      "d": 444.44400000000314,
      "v": 127
    },
    {
      "midi": 36,
      "hit": false,
      "t": 94666.57200000029,
      "d": 444.44400000000314,
      "v": 127
    },
    {
      "midi": 60,
      "hit": false,
      "t": 94666.57200000032,
      "d": 888.8880000000208,
      "v": 127
    },
    {
      "midi": 63,
      "hit": false,
      "t": 94833.23850000033,
      "d": 888.8880000000208,
      "v": 127
    },
    {
      "midi": 67,
      "hit": false,
      "t": 94999.90500000033,
      "d": 888.8880000000208,
      "v": 127
    },
    {
      "midi": 69,
      "hit": false,
      "t": 95166.57150000034,
      "d": 888.8880000000208,
      "v": 127
    },
    {
      "midi": 36,
      "hit": false,
      "t": 95333.2380000003,
      "d": 444.44400000000314,
      "v": 127
    },
    {
      "midi": 72,
      "hit": false,
      "t": 95333.23800000035,
      "d": 666.666000000012,
      "v": 127
    },
    {
      "midi": 47,
      "hit": false,
      "t": 95999.9040000003,
      "d": 444.44400000000314,
      "v": 127
    },
    {
      "midi": 54,
      "hit": false,
      "t": 95999.9040000003,
      "d": 1784.7204375000001,
      "v": 127
    },
    {
      "midi": 57,
      "hit": false,
      "t": 95999.9040000003,
      "d": 1784.7204375000001,
      "v": 127
    },
    {
      "midi": 73,
      "hit": false,
      "t": 95999.90400000036,
      "d": 111.11100000000442,
      "v": 127
    },
    {
      "midi": 74,
      "hit": false,
      "t": 96166.57050000037,
      "d": 444.44400000000314,
      "v": 127
    },
    {
      "midi": 62,
      "hit": false,
      "t": 96499.90350000036,
      "d": 444.44400000000314,
      "v": 127
    },
    {
      "midi": 47,
      "hit": false,
      "t": 96666.5700000003,
      "d": 444.44400000000314,
      "v": 127
    },
    {
      "midi": 74,
      "hit": false,
      "t": 96999.90300000037,
      "d": 222.2219999999943,
      "v": 127
    },
    {
      "midi": 47,
      "hit": false,
      "t": 97333.2360000003,
      "d": 444.44400000000314,
      "v": 127
    },
    {
      "midi": 73,
      "hit": false,
      "t": 97333.23600000037,
      "d": 111.11100000000442,
      "v": 127
    },
    {
      "midi": 74,
      "hit": false,
      "t": 97499.90250000037,
      "d": 444.44400000000314,
      "v": 127
    },
    {
      "midi": 62,
      "hit": false,
      "t": 97833.23550000037,
      "d": 444.44400000000314,
      "v": 127
    },
    {
      "midi": 47,
      "hit": false,
      "t": 97999.90200000031,
      "d": 444.44400000000314,
      "v": 127
    },
    {
      "midi": 74,
      "hit": false,
      "t": 98333.23500000038,
      "d": 222.2219999999943,
      "v": 127
    },
    {
      "midi": 40,
      "hit": false,
      "t": 98666.5680000003,
      "d": 444.44400000000314,
      "v": 127
    },
    {
      "midi": 47,
      "hit": false,
      "t": 98666.5680000003,
      "d": 888.8879999999917,
      "v": 127
    },
    {
      "midi": 56,
      "hit": false,
      "t": 98666.56800000038,
      "d": 444.44400000000314,
      "v": 127
    },
    {
      "midi": 68,
      "hit": false,
      "t": 98666.56800000038,
      "d": 444.44400000000314,
      "v": 127
    },
    {
      "midi": 42,
      "hit": false,
      "t": 99333.2340000003,
      "d": 444.4439999999886,
      "v": 127
    },
    {
      "midi": 57,
      "hit": false,
      "t": 99333.23400000038,
      "d": 444.44400000000314,
      "v": 127
    },
    {
      "midi": 69,
      "hit": false,
      "t": 99333.23400000038,
      "d": 444.44400000000314,
      "v": 127
    },
    {
      "midi": 43,
      "hit": false,
      "t": 99999.90000000029,
      "d": 444.44400000000314,
      "v": 127
    },
    {
      "midi": 52,
      "hit": false,
      "t": 99999.90000000029,
      "d": 888.8879999999917,
      "v": 127
    },
    {
      "midi": 58,
      "hit": false,
      "t": 99999.90000000037,
      "d": 444.44400000000314,
      "v": 127
    },
    {
      "midi": 61,
      "hit": false,
      "t": 99999.90000000037,
      "d": 444.44400000000314,
      "v": 127
    },
    {
      "midi": 70,
      "hit": false,
      "t": 99999.90000000037,
      "d": 444.44400000000314,
      "v": 127
    },
    {
      "midi": 44,
      "hit": false,
      "t": 100666.56600000028,
      "d": 444.4439999999886,
      "v": 127
    },
    {
      "midi": 59,
      "hit": false,
      "t": 100666.56600000037,
      "d": 444.44400000000314,
      "v": 127
    },
    {
      "midi": 62,
      "hit": false,
      "t": 100666.56600000037,
      "d": 444.44400000000314,
      "v": 127
    },
    {
      "midi": 71,
      "hit": false,
      "t": 100666.56600000037,
      "d": 444.44400000000314,
      "v": 127
    },
    {
      "midi": 52,
      "hit": false,
      "t": 101333.23200000027,
      "d": 444.44400000000314,
      "v": 127
    },
    {
      "midi": 55,
      "hit": false,
      "t": 101333.23200000027,
      "d": 444.44400000000314,
      "v": 127
    },
    {
      "midi": 60,
      "hit": false,
      "t": 101333.23200000027,
      "d": 444.44400000000314,
      "v": 127
    },
    {
      "midi": 76,
      "hit": false,
      "t": 101333.23200000037,
      "d": 222.2219999999943,
      "v": 127
    },
    {
      "midi": 64,
      "hit": false,
      "t": 101333.23200000037,
      "d": 666.6659999999974,
      "v": 127
    },
    {
      "midi": 67,
      "hit": false,
      "t": 101333.23200000037,
      "d": 666.6659999999974,
      "v": 127
    },
    {
      "midi": 72,
      "hit": false,
      "t": 101333.23200000037,
      "d": 666.6659999999974,
      "v": 127
    },
    {
      "midi": 74,
      "hit": false,
      "t": 101666.56500000037,
      "d": 666.6659999999974,
      "v": 127
    },
    {
      "midi": 33,
      "hit": false,
      "t": 101999.89800000026,
      "d": 444.44400000000314,
      "v": 127
    },
    {
      "midi": 54,
      "hit": false,
      "t": 102666.56400000026,
      "d": 444.44400000000314,
      "v": 127
    },
    {
      "midi": 59,
      "hit": false,
      "t": 102666.56400000026,
      "d": 444.44400000000314,
      "v": 127
    },
    {
      "midi": 62,
      "hit": false,
      "t": 102666.56400000026,
      "d": 444.44400000000314,
      "v": 127
    },
    {
      "midi": 76,
      "hit": false,
      "t": 102666.56400000036,
      "d": 222.2219999999943,
      "v": 127
    },
    {
      "midi": 66,
      "hit": false,
      "t": 102666.56400000036,
      "d": 666.6659999999974,
      "v": 127
    },
    {
      "midi": 71,
      "hit": false,
      "t": 102666.56400000036,
      "d": 666.6659999999974,
      "v": 127
    },
    {
      "midi": 74,
      "hit": false,
      "t": 102999.89700000036,
      "d": 666.6659999999974,
      "v": 127
    },
    {
      "midi": 35,
      "hit": false,
      "t": 103333.23000000026,
      "d": 444.44400000000314,
      "v": 127
    },
    {
      "midi": 52,
      "hit": false,
      "t": 103999.89600000026,
      "d": 444.44400000000314,
      "v": 127
    },
    {
      "midi": 55,
      "hit": false,
      "t": 103999.89600000026,
      "d": 444.44400000000314,
      "v": 127
    },
    {
      "midi": 60,
      "hit": false,
      "t": 103999.89600000026,
      "d": 444.44400000000314,
      "v": 127
    },
    {
      "midi": 76,
      "hit": false,
      "t": 103999.89600000036,
      "d": 222.2219999999943,
      "v": 127
    },
    {
      "midi": 64,
      "hit": false,
      "t": 103999.89600000036,
      "d": 666.6659999999974,
      "v": 127
    },
    {
      "midi": 67,
      "hit": false,
      "t": 103999.89600000036,
      "d": 666.6659999999974,
      "v": 127
    },
    {
      "midi": 72,
      "hit": false,
      "t": 103999.89600000036,
      "d": 666.6659999999974,
      "v": 127
    },
    {
      "midi": 74,
      "hit": false,
      "t": 104333.22900000036,
      "d": 666.6659999999974,
      "v": 127
    },
    {
      "midi": 36,
      "hit": false,
      "t": 104666.56200000025,
      "d": 444.44400000000314,
      "v": 127
    },
    {
      "midi": 50,
      "hit": false,
      "t": 105333.22800000025,
      "d": 888.8880000000063,
      "v": 127
    },
    {
      "midi": 54,
      "hit": false,
      "t": 105333.22800000025,
      "d": 888.8880000000063,
      "v": 127
    },
    {
      "midi": 60,
      "hit": false,
      "t": 105333.22800000025,
      "d": 888.8880000000063,
      "v": 127
    },
    {
      "midi": 66,
      "hit": false,
      "t": 105333.22800000035,
      "d": 444.44400000000314,
      "v": 127
    },
    {
      "midi": 71,
      "hit": false,
      "t": 105333.22800000035,
      "d": 444.44400000000314,
      "v": 127
    },
    {
      "midi": 76,
      "hit": false,
      "t": 105333.22800000035,
      "d": 444.44400000000314,
      "v": 127
    },
    {
      "midi": 74,
      "hit": false,
      "t": 105833.22750000036,
      "d": 444.44400000000314,
      "v": 127
    },
    {
      "midi": 70,
      "hit": false,
      "t": 106333.22700000036,
      "d": 222.22200000000885,
      "v": 127
    },
    {
      "midi": 69,
      "hit": false,
      "t": 106499.89350000037,
      "d": 111.11100000000442,
      "v": 127
    },
    {
      "midi": 43,
      "hit": false,
      "t": 106666.56000000026,
      "d": 444.44400000000314,
      "v": 127
    },
    {
      "midi": 50,
      "hit": false,
      "t": 106666.56000000026,
      "d": 1784.7204375000001,
      "v": 127
    },
    {
      "midi": 67,
      "hit": false,
      "t": 106666.56000000038,
      "d": 888.8880000000063,
      "v": 127
    },
    {
      "midi": 59,
      "hit": false,
      "t": 106666.56000000038,
      "d": 1784.7204375000147,
      "v": 127
    },
    {
      "midi": 43,
      "hit": false,
      "t": 107333.22600000026,
      "d": 444.44400000000314,
      "v": 127
    },
    {
      "midi": 43,
      "hit": false,
      "t": 107999.89200000025,
      "d": 444.44400000000314,
      "v": 127
    },
    {
      "midi": 62,
      "hit": false,
      "t": 107999.89200000039,
      "d": 444.44400000000314,
      "v": 127
    },
    {
      "midi": 67,
      "hit": false,
      "t": 108499.89150000039,
      "d": 444.44400000000314,
      "v": 127
    },
    {
      "midi": 43,
      "hit": false,
      "t": 108666.55800000027,
      "d": 444.44400000000314,
      "v": 127
    },
    {
      "midi": 62,
      "hit": false,
      "t": 108999.8910000004,
      "d": 222.2219999999943,
      "v": 127
    },
    {
      "midi": 43,
      "hit": false,
      "t": 109333.22400000026,
      "d": 444.44400000000314,
      "v": 127
    },
    {
      "midi": 51,
      "hit": false,
      "t": 109333.22400000026,
      "d": 1784.7204375000001,
      "v": 127
    },
    {
      "midi": 58,
      "hit": false,
      "t": 109333.2240000004,
      "d": 1784.7204375000001,
      "v": 127
    },
    {
      "midi": 63,
      "hit": false,
      "t": 109333.2240000004,
      "d": 1784.7204375000001,
      "v": 127
    },
    {
      "midi": 43,
      "hit": false,
      "t": 109999.89000000026,
      "d": 444.44400000000314,
      "v": 127
    },
    {
      "midi": 43,
      "hit": false,
      "t": 110666.55600000026,
      "d": 444.44400000000314,
      "v": 127
    },
    {
      "midi": 43,
      "hit": false,
      "t": 111333.22200000027,
      "d": 444.44400000000314,
      "v": 127
    },
    {
      "midi": 43,
      "hit": false,
      "t": 111999.88800000027,
      "d": 444.44400000000314,
      "v": 127
    },
    {
      "midi": 50,
      "hit": false,
      "t": 111999.88800000027,
      "d": 1784.7204375000001,
      "v": 127
    },
    {
      "midi": 71,
      "hit": false,
      "t": 111999.8880000004,
      "d": 888.8880000000063,
      "v": 127
    },
    {
      "midi": 59,
      "hit": false,
      "t": 111999.8880000004,
      "d": 1784.7204375000147,
      "v": 127
    },
    {
      "midi": 43,
      "hit": false,
      "t": 112666.55400000027,
      "d": 444.44400000000314,
      "v": 127
    },
    {
      "midi": 43,
      "hit": false,
      "t": 113333.22000000026,
      "d": 444.44400000000314,
      "v": 127
    },
    {
      "midi": 62,
      "hit": false,
      "t": 113333.22000000041,
      "d": 444.44400000000314,
      "v": 127
    },
    {
      "midi": 67,
      "hit": false,
      "t": 113833.21950000041,
      "d": 444.44400000000314,
      "v": 127
    },
    {
      "midi": 43,
      "hit": false,
      "t": 113999.88600000028,
      "d": 444.44400000000314,
      "v": 127
    },
    {
      "midi": 62,
      "hit": false,
      "t": 114333.21900000042,
      "d": 222.2219999999943,
      "v": 127
    },
    {
      "midi": 43,
      "hit": false,
      "t": 114666.55200000027,
      "d": 444.44400000000314,
      "v": 127
    },
    {
      "midi": 51,
      "hit": false,
      "t": 114666.55200000027,
      "d": 1784.7204375000001,
      "v": 127
    },
    {
      "midi": 58,
      "hit": false,
      "t": 114666.55200000042,
      "d": 1784.7204375000001,
      "v": 127
    },
    {
      "midi": 63,
      "hit": false,
      "t": 114666.55200000042,
      "d": 1784.7204375000001,
      "v": 127
    },
    {
      "midi": 70,
      "hit": false,
      "t": 114666.55200000042,
      "d": 1784.7204375000001,
      "v": 127
    },
    {
      "midi": 43,
      "hit": false,
      "t": 115333.21800000027,
      "d": 444.44400000000314,
      "v": 127
    },
    {
      "midi": 43,
      "hit": false,
      "t": 115999.88400000027,
      "d": 444.44400000000314,
      "v": 127
    },
    {
      "midi": 43,
      "hit": false,
      "t": 116666.55000000028,
      "d": 444.44400000000314,
      "v": 127
    },
    {
      "midi": 43,
      "hit": false,
      "t": 117333.21600000028,
      "d": 444.44400000000314,
      "v": 127
    },
    {
      "midi": 50,
      "hit": false,
      "t": 117333.21600000028,
      "d": 1784.7204375000001,
      "v": 127
    },
    {
      "midi": 59,
      "hit": false,
      "t": 117333.21600000042,
      "d": 1784.7204375000001,
      "v": 127
    },
    {
      "midi": 43,
      "hit": false,
      "t": 117999.88200000027,
      "d": 444.44400000000314,
      "v": 127
    },
    {
      "midi": 43,
      "hit": false,
      "t": 118666.54800000027,
      "d": 444.44400000000314,
      "v": 127
    },
    {
      "midi": 43,
      "hit": false,
      "t": 119333.21400000028,
      "d": 444.44400000000314,
      "v": 127
    },
    {
      "midi": 62,
      "hit": false,
      "t": 119333.21400000043,
      "d": 222.2219999999943,
      "v": 127
    },
    {
      "midi": 61,
      "hit": false,
      "t": 119666.54700000043,
      "d": 111.11100000000442,
      "v": 127
    },
    {
      "midi": 60,
      "hit": false,
      "t": 119833.21350000043,
      "d": 111.11100000000442,
      "v": 127
    },
    {
      "midi": 43,
      "hit": false,
      "t": 119999.88000000028,
      "d": 444.44400000000314,
      "v": 127
    },
    {
      "midi": 51,
      "hit": false,
      "t": 119999.88000000028,
      "d": 1784.7204375000001,
      "v": 127
    },
    {
      "midi": 59,
      "hit": false,
      "t": 119999.88000000044,
      "d": 1784.7204375000001,
      "v": 127
    },
    {
      "midi": 43,
      "hit": false,
      "t": 120666.54600000028,
      "d": 444.44400000000314,
      "v": 127
    },
    {
      "midi": 43,
      "hit": false,
      "t": 121333.21200000028,
      "d": 444.44400000000314,
      "v": 127
    },
    {
      "midi": 43,
      "hit": false,
      "t": 121999.87800000029,
      "d": 444.44400000000314,
      "v": 127
    },
    {
      "midi": 62,
      "hit": false,
      "t": 121999.87800000045,
      "d": 222.2219999999943,
      "v": 127
    },
    {
      "midi": 61,
      "hit": false,
      "t": 122333.21100000045,
      "d": 111.11100000000442,
      "v": 127
    },
    {
      "midi": 60,
      "hit": false,
      "t": 122499.87750000045,
      "d": 111.11100000000442,
      "v": 127
    },
    {
      "midi": 43,
      "hit": false,
      "t": 122666.54400000029,
      "d": 444.44400000000314,
      "v": 127
    },
    {
      "midi": 52,
      "hit": false,
      "t": 122666.54400000029,
      "d": 1784.7204375000001,
      "v": 127
    },
    {
      "midi": 59,
      "hit": false,
      "t": 122666.54400000046,
      "d": 1333.3319999999949,
      "v": 127
    },
    {
      "midi": 43,
      "hit": false,
      "t": 123333.21000000028,
      "d": 444.44400000000314,
      "v": 127
    },
    {
      "midi": 43,
      "hit": false,
      "t": 123999.87600000028,
      "d": 444.44400000000314,
      "v": 127
    },
    {
      "midi": 43,
      "hit": false,
      "t": 124666.54200000029,
      "d": 444.44400000000314,
      "v": 127
    },
    {
      "midi": 59,
      "hit": false,
      "t": 124666.54200000045,
      "d": 222.2219999999943,
      "v": 127
    },
    {
      "midi": 60,
      "hit": false,
      "t": 124999.87500000045,
      "d": 111.11100000000442,
      "v": 127
    },
    {
      "midi": 61,
      "hit": false,
      "t": 125166.54150000046,
      "d": 111.11100000000442,
      "v": 127
    },
    {
      "midi": 43,
      "hit": false,
      "t": 125333.20800000029,
      "d": 444.44400000000314,
      "v": 127
    },
    {
      "midi": 54,
      "hit": false,
      "t": 125333.20800000029,
      "d": 1784.7204375000001,
      "v": 127
    },
    {
      "midi": 57,
      "hit": false,
      "t": 125333.20800000046,
      "d": 1784.7204375000001,
      "v": 127
    },
    {
      "midi": 59,
      "hit": false,
      "t": 125333.20800000046,
      "d": 1784.7204375000001,
      "v": 127
    },
    {
      "midi": 62,
      "hit": false,
      "t": 125333.20800000046,
      "d": 1784.7204375000001,
      "v": 127
    },
    {
      "midi": 43,
      "hit": false,
      "t": 125999.87400000029,
      "d": 444.44400000000314,
      "v": 127
    },
    {
      "midi": 43,
      "hit": false,
      "t": 126666.54000000028,
      "d": 444.44400000000314,
      "v": 127
    },
    {
      "midi": 43,
      "hit": false,
      "t": 127333.2060000003,
      "d": 444.44400000000314,
      "v": 127
    },
    {
      "midi": 36,
      "hit": false,
      "t": 127999.8720000003,
      "d": 444.44400000000314,
      "v": 127
    },
    {
      "midi": 43,
      "hit": false,
      "t": 127999.8720000003,
      "d": 1784.7204375000001,
      "v": 127
    },
    {
      "midi": 52,
      "hit": false,
      "t": 127999.8720000003,
      "d": 1784.7204375000001,
      "v": 127
    },
    {
      "midi": 64,
      "hit": false,
      "t": 127999.87200000047,
      "d": 1333.3319999999949,
      "v": 127
    },
    {
      "midi": 67,
      "hit": false,
      "t": 127999.87200000047,
      "d": 1784.7204375000001,
      "v": 127
    },
    {
      "midi": 72,
      "hit": false,
      "t": 127999.87200000047,
      "d": 1784.7204375000001,
      "v": 127
    },
    {
      "midi": 76,
      "hit": false,
      "t": 127999.87200000047,
      "d": 1784.7204375000001,
      "v": 127
    },
    {
      "midi": 36,
      "hit": false,
      "t": 128666.53800000029,
      "d": 444.44400000000314,
      "v": 127
    },
    {
      "midi": 36,
      "hit": false,
      "t": 129333.20400000029,
      "d": 444.44400000000314,
      "v": 127
    },
    {
      "midi": 36,
      "hit": false,
      "t": 129999.8700000003,
      "d": 444.44400000000314,
      "v": 127
    },
    {
      "midi": 58,
      "hit": false,
      "t": 129999.87000000048,
      "d": 222.2219999999943,
      "v": 127
    },
    {
      "midi": 57,
      "hit": false,
      "t": 130333.20300000047,
      "d": 111.11100000000442,
      "v": 127
    },
    {
      "midi": 55,
      "hit": false,
      "t": 130499.86950000048,
      "d": 111.11100000000442,
      "v": 127
    },
    {
      "midi": 36,
      "hit": false,
      "t": 130666.5360000003,
      "d": 444.44400000000314,
      "v": 127
    },
    {
      "midi": 43,
      "hit": false,
      "t": 130666.5360000003,
      "d": 1784.7204375000001,
      "v": 127
    },
    {
      "midi": 51,
      "hit": false,
      "t": 130666.5360000003,
      "d": 1784.7204375000001,
      "v": 127
    },
    {
      "midi": 63,
      "hit": false,
      "t": 130666.53600000049,
      "d": 1784.7204374999856,
      "v": 127
    },
    {
      "midi": 67,
      "hit": false,
      "t": 130666.53600000049,
      "d": 1784.7204374999856,
      "v": 127
    },
    {
      "midi": 72,
      "hit": false,
      "t": 130666.53600000049,
      "d": 1784.7204374999856,
      "v": 127
    },
    {
      "midi": 75,
      "hit": false,
      "t": 130666.53600000049,
      "d": 1784.7204374999856,
      "v": 127
    },
    {
      "midi": 36,
      "hit": false,
      "t": 131333.2020000003,
      "d": 444.4439999999886,
      "v": 127
    },
    {
      "midi": 36,
      "hit": false,
      "t": 131999.8680000003,
      "d": 444.4439999999886,
      "v": 127
    },
    {
      "midi": 36,
      "hit": false,
      "t": 132666.5340000003,
      "d": 444.4439999999886,
      "v": 127
    },
    {
      "midi": 47,
      "hit": false,
      "t": 133333.2000000003,
      "d": 444.4439999999886,
      "v": 127
    },
    {
      "midi": 54,
      "hit": false,
      "t": 133333.2000000003,
      "d": 888.8880000000063,
      "v": 127
    },
    {
      "midi": 57,
      "hit": false,
      "t": 133333.2000000003,
      "d": 888.8880000000063,
      "v": 127
    },
    {
      "midi": 74,
      "hit": false,
      "t": 133333.20000000048,
      "d": 444.4439999999886,
      "v": 127
    },
    {
      "midi": 62,
      "hit": false,
      "t": 133333.20000000048,
      "d": 1784.7204374999565,
      "v": 127
    },
    {
      "midi": 66,
      "hit": false,
      "t": 133833.19950000045,
      "d": 444.4439999999886,
      "v": 127
    },
    {
      "midi": 47,
      "hit": false,
      "t": 133999.8660000003,
      "d": 444.4440000000177,
      "v": 127
    },
    {
      "midi": 74,
      "hit": false,
      "t": 134333.19900000043,
      "d": 222.22200000000885,
      "v": 127
    },
    {
      "midi": 52,
      "hit": false,
      "t": 134666.53200000033,
      "d": 444.4439999999886,
      "v": 127
    },
    {
      "midi": 59,
      "hit": false,
      "t": 134666.53200000033,
      "d": 888.8880000000063,
      "v": 127
    },
    {
      "midi": 62,
      "hit": false,
      "t": 134666.53200000033,
      "d": 888.8880000000063,
      "v": 127
    },
    {
      "midi": 77,
      "hit": false,
      "t": 134666.53200000044,
      "d": 666.6659999999974,
      "v": 127
    },
    {
      "midi": 68,
      "hit": false,
      "t": 134666.53200000044,
      "d": 888.8880000000063,
      "v": 127
    },
    {
      "midi": 52,
      "hit": false,
      "t": 135333.19800000032,
      "d": 444.4440000000177,
      "v": 127
    },
    {
      "midi": 76,
      "hit": false,
      "t": 135666.53100000045,
      "d": 111.11100000000442,
      "v": 127
    },
    {
      "midi": 75,
      "hit": false,
      "t": 135833.19750000045,
      "d": 111.11100000000442,
      "v": 127
    },
    {
      "midi": 45,
      "hit": false,
      "t": 135999.86400000035,
      "d": 444.4439999999886,
      "v": 127
    },
    {
      "midi": 52,
      "hit": false,
      "t": 135999.86400000035,
      "d": 888.8880000000063,
      "v": 127
    },
    {
      "midi": 60,
      "hit": false,
      "t": 135999.86400000035,
      "d": 888.8880000000063,
      "v": 127
    },
    {
      "midi": 67,
      "hit": false,
      "t": 135999.86400000044,
      "d": 444.4439999999886,
      "v": 127
    },
    {
      "midi": 74,
      "hit": false,
      "t": 135999.86400000044,
      "d": 444.4439999999886,
      "v": 127
    },
    {
      "midi": 64,
      "hit": false,
      "t": 136499.8635000004,
      "d": 444.4439999999886,
      "v": 127
    },
    {
      "midi": 45,
      "hit": false,
      "t": 136666.53000000035,
      "d": 444.4440000000177,
      "v": 127
    },
    {
      "midi": 74,
      "hit": false,
      "t": 136999.8630000004,
      "d": 222.22200000000885,
      "v": 127
    },
    {
      "midi": 50,
      "hit": false,
      "t": 137333.19600000037,
      "d": 444.4439999999886,
      "v": 127
    },
    {
      "midi": 54,
      "hit": false,
      "t": 137333.19600000037,
      "d": 888.8880000000063,
      "v": 127
    },
    {
      "midi": 60,
      "hit": false,
      "t": 137333.19600000037,
      "d": 888.8880000000063,
      "v": 127
    },
    {
      "midi": 69,
      "hit": false,
      "t": 137333.1960000004,
      "d": 222.22200000000885,
      "v": 127
    },
    {
      "midi": 77,
      "hit": false,
      "t": 137333.1960000004,
      "d": 222.22200000000885,
      "v": 127
    },
    {
      "midi": 68,
      "hit": false,
      "t": 137666.52900000042,
      "d": 111.11100000000442,
      "v": 127
    },
    {
      "midi": 76,
      "hit": false,
      "t": 137666.52900000042,
      "d": 111.11100000000442,
      "v": 127
    },
    {
      "midi": 67,
      "hit": false,
      "t": 137833.1955000004,
      "d": 111.11100000000442,
      "v": 127
    },
    {
      "midi": 75,
      "hit": false,
      "t": 137833.1955000004,
      "d": 111.11100000000442,
      "v": 127
    },
    {
      "midi": 50,
      "hit": false,
      "t": 137999.86200000037,
      "d": 444.4440000000177,
      "v": 127
    },
    {
      "midi": 66,
      "hit": false,
      "t": 137999.8620000004,
      "d": 222.22200000000885,
      "v": 127
    },
    {
      "midi": 74,
      "hit": false,
      "t": 137999.8620000004,
      "d": 222.22200000000885,
      "v": 127
    },
    {
      "midi": 65,
      "hit": false,
      "t": 138333.1950000004,
      "d": 111.11100000000442,
      "v": 127
    },
    {
      "midi": 73,
      "hit": false,
      "t": 138333.1950000004,
      "d": 111.11100000000442,
      "v": 127
    },
    {
      "midi": 64,
      "hit": false,
      "t": 138499.8615000004,
      "d": 111.11100000000442,
      "v": 127
    },
    {
      "midi": 73,
      "hit": false,
      "t": 138499.8615000004,
      "d": 111.11100000000442,
      "v": 127
    },
    {
      "midi": 43,
      "hit": false,
      "t": 138666.5280000004,
      "d": 444.4439999999886,
      "v": 127
    },
    {
      "midi": 50,
      "hit": false,
      "t": 138666.5280000004,
      "d": 1784.7204374999856,
      "v": 127
    },
    {
      "midi": 71,
      "hit": false,
      "t": 138666.5280000004,
      "d": 1333.3319999999949,
      "v": 127
    },
    {
      "midi": 59,
      "hit": false,
      "t": 138666.5280000004,
      "d": 1784.7204374999856,
      "v": 127
    },
    {
      "midi": 43,
      "hit": false,
      "t": 139333.1940000004,
      "d": 444.4439999999886,
      "v": 127
    },
    {
      "midi": 43,
      "hit": false,
      "t": 139999.8600000004,
      "d": 444.4439999999886,
      "v": 127
    },
    {
      "midi": 43,
      "hit": false,
      "t": 140666.5260000004,
      "d": 444.4439999999886,
      "v": 127
    },
    {
      "midi": 62,
      "hit": false,
      "t": 140666.5260000004,
      "d": 222.22200000000885,
      "v": 127
    },
    {
      "midi": 61,
      "hit": false,
      "t": 140999.8590000004,
      "d": 111.11100000000442,
      "v": 127
    },
    {
      "midi": 60,
      "hit": false,
      "t": 141166.5255000004,
      "d": 111.11100000000442,
      "v": 127
    },
    {
      "midi": 43,
      "hit": false,
      "t": 141333.1920000004,
      "d": 444.4439999999886,
      "v": 127
    },
    {
      "midi": 51,
      "hit": false,
      "t": 141333.1920000004,
      "d": 1784.7204374999856,
      "v": 127
    },
    {
      "midi": 71,
      "hit": false,
      "t": 141333.1920000004,
      "d": 1333.3319999999949,
      "v": 127
    },
    {
      "midi": 59,
      "hit": false,
      "t": 141333.1920000004,
      "d": 1784.7204374999856,
      "v": 127
    },
    {
      "midi": 43,
      "hit": false,
      "t": 141999.8580000004,
      "d": 444.4439999999886,
      "v": 127
    },
    {
      "midi": 43,
      "hit": false,
      "t": 142666.52400000038,
      "d": 444.4439999999886,
      "v": 127
    },
    {
      "midi": 43,
      "hit": false,
      "t": 143333.19000000038,
      "d": 444.4439999999886,
      "v": 127
    },
    {
      "midi": 62,
      "hit": false,
      "t": 143333.19000000038,
      "d": 222.22200000000885,
      "v": 127
    },
    {
      "midi": 61,
      "hit": false,
      "t": 143666.5230000004,
      "d": 111.11100000000442,
      "v": 127
    },
    {
      "midi": 60,
      "hit": false,
      "t": 143833.1895000004,
      "d": 111.11100000000442,
      "v": 127
    },
    {
      "midi": 43,
      "hit": false,
      "t": 143999.85600000038,
      "d": 444.4439999999886,
      "v": 127
    },
    {
      "midi": 52,
      "hit": false,
      "t": 143999.85600000038,
      "d": 1784.7204374999856,
      "v": 127
    },
    {
      "midi": 59,
      "hit": false,
      "t": 143999.85600000038,
      "d": 1333.3319999999949,
      "v": 127
    },
    {
      "midi": 71,
      "hit": false,
      "t": 143999.85600000038,
      "d": 1333.3319999999949,
      "v": 127
    },
    {
      "midi": 43,
      "hit": false,
      "t": 144666.52200000038,
      "d": 444.4439999999886,
      "v": 127
    },
    {
      "midi": 43,
      "hit": false,
      "t": 145333.18800000037,
      "d": 444.4439999999886,
      "v": 127
    },
    {
      "midi": 43,
      "hit": false,
      "t": 145999.85400000037,
      "d": 444.4439999999886,
      "v": 127
    },
    {
      "midi": 59,
      "hit": false,
      "t": 145999.85400000037,
      "d": 222.22200000000885,
      "v": 127
    },
    {
      "midi": 60,
      "hit": false,
      "t": 146333.18700000038,
      "d": 111.11100000000442,
      "v": 127
    },
    {
      "midi": 61,
      "hit": false,
      "t": 146499.85350000038,
      "d": 111.11100000000442,
      "v": 127
    },
    {
      "midi": 43,
      "hit": false,
      "t": 146666.52000000037,
      "d": 444.4439999999886,
      "v": 127
    },
    {
      "midi": 53,
      "hit": false,
      "t": 146666.52000000037,
      "d": 1784.7204374999856,
      "v": 127
    },
    {
      "midi": 57,
      "hit": false,
      "t": 146666.52000000037,
      "d": 888.8880000000063,
      "v": 127
    },
    {
      "midi": 59,
      "hit": false,
      "t": 146666.52000000037,
      "d": 1784.7204375000147,
      "v": 127
    },
    {
      "midi": 62,
      "hit": false,
      "t": 146666.52000000037,
      "d": 1784.7204375000147,
      "v": 127
    },
    {
      "midi": 43,
      "hit": false,
      "t": 147333.18600000037,
      "d": 444.4439999999886,
      "v": 127
    },
    {
      "midi": 43,
      "hit": false,
      "t": 147999.85200000036,
      "d": 444.4439999999886,
      "v": 127
    },
    {
      "midi": 57,
      "hit": false,
      "t": 147999.85200000036,
      "d": 222.22200000000885,
      "v": 127
    },
    {
      "midi": 55,
      "hit": false,
      "t": 148333.18500000038,
      "d": 222.22200000000885,
      "v": 127
    },
    {
      "midi": 43,
      "hit": false,
      "t": 148666.51800000036,
      "d": 444.4439999999886,
      "v": 127
    },
    {
      "midi": 58,
      "hit": false,
      "t": 148666.5180000004,
      "d": 222.22200000000885,
      "v": 127
    },
    {
      "midi": 57,
      "hit": false,
      "t": 148999.8510000004,
      "d": 111.11100000000442,
      "v": 127
    },
    {
      "midi": 55,
      "hit": false,
      "t": 149166.5175000004,
      "d": 111.11100000000442,
      "v": 127
    },
    {
      "midi": 36,
      "hit": false,
      "t": 149333.18400000036,
      "d": 444.4439999999886,
      "v": 127
    },
    {
      "midi": 43,
      "hit": false,
      "t": 149333.18400000036,
      "d": 1784.7204374999856,
      "v": 127
    },
    {
      "midi": 52,
      "hit": false,
      "t": 149333.18400000036,
      "d": 1784.7204374999856,
      "v": 127
    },
    {
      "midi": 64,
      "hit": false,
      "t": 149333.1840000004,
      "d": 888.8879999999772,
      "v": 127
    },
    {
      "midi": 67,
      "hit": false,
      "t": 149499.85050000038,
      "d": 1784.7204374999856,
      "v": 127
    },
    {
      "midi": 72,
      "hit": false,
      "t": 149666.51700000037,
      "d": 1784.7204374999856,
      "v": 127
    },
    {
      "midi": 76,
      "hit": false,
      "t": 149833.18350000036,
      "d": 1784.7204374999856,
      "v": 127
    },
    {
      "midi": 36,
      "hit": false,
      "t": 149999.85000000036,
      "d": 444.4439999999886,
      "v": 127
    },
    {
      "midi": 36,
      "hit": false,
      "t": 150666.51600000035,
      "d": 444.4439999999886,
      "v": 127
    },
    {
      "midi": 57,
      "hit": false,
      "t": 150999.84900000037,
      "d": 666.6659999999683,
      "v": 127
    },
    {
      "midi": 36,
      "hit": false,
      "t": 151333.18200000035,
      "d": 444.4439999999886,
      "v": 127
    },
    {
      "midi": 55,
      "hit": false,
      "t": 151666.51500000033,
      "d": 222.22200000000885,
      "v": 127
    },
    {
      "midi": 36,
      "hit": false,
      "t": 151999.84800000035,
      "d": 444.4439999999886,
      "v": 127
    },
    {
      "midi": 43,
      "hit": false,
      "t": 151999.84800000035,
      "d": 1784.7204374999856,
      "v": 127
    },
    {
      "midi": 51,
      "hit": false,
      "t": 151999.84800000035,
      "d": 1784.7204374999856,
      "v": 127
    },
    {
      "midi": 63,
      "hit": false,
      "t": 151999.84800000035,
      "d": 1784.7204374999856,
      "v": 127
    },
    {
      "midi": 67,
      "hit": false,
      "t": 152166.51450000034,
      "d": 1784.7204374999856,
      "v": 127
    },
    {
      "midi": 72,
      "hit": false,
      "t": 152333.18100000033,
      "d": 1784.7204374999856,
      "v": 127
    },
    {
      "midi": 75,
      "hit": false,
      "t": 152499.84750000032,
      "d": 1784.7204374999856,
      "v": 127
    },
    {
      "midi": 36,
      "hit": false,
      "t": 152666.51400000034,
      "d": 444.4439999999886,
      "v": 127
    },
    {
      "midi": 36,
      "hit": false,
      "t": 153333.18000000034,
      "d": 444.4439999999886,
      "v": 127
    },
    {
      "midi": 36,
      "hit": false,
      "t": 153999.84600000034,
      "d": 444.4439999999886,
      "v": 127
    },
    {
      "midi": 43,
      "hit": false,
      "t": 154666.51200000034,
      "d": 444.4439999999886,
      "v": 127
    },
    {
      "midi": 50,
      "hit": false,
      "t": 154666.51200000034,
      "d": 1784.7204374999856,
      "v": 127
    },
    {
      "midi": 59,
      "hit": false,
      "t": 154666.51200000034,
      "d": 1784.7204374999856,
      "v": 127
    },
    {
      "midi": 43,
      "hit": false,
      "t": 155333.17800000033,
      "d": 444.4439999999886,
      "v": 127
    },
    {
      "midi": 69,
      "hit": false,
      "t": 155666.51100000032,
      "d": 222.22200000000885,
      "v": 127
    },
    {
      "midi": 43,
      "hit": false,
      "t": 155999.84400000033,
      "d": 444.4439999999886,
      "v": 127
    },
    {
      "midi": 67,
      "hit": false,
      "t": 155999.84400000033,
      "d": 55.55549999998766,
      "v": 127
    },
    {
      "midi": 71,
      "hit": false,
      "t": 155999.84400000033,
      "d": 444.4439999999886,
      "v": 127
    },
    {
      "midi": 72,
      "hit": false,
      "t": 156499.8435000003,
      "d": 444.4439999999886,
      "v": 127
    },
    {
      "midi": 43,
      "hit": false,
      "t": 156666.51000000033,
      "d": 444.4439999999886,
      "v": 127
    },
    {
      "midi": 74,
      "hit": false,
      "t": 156999.84300000028,
      "d": 222.22200000000885,
      "v": 127
    },
    {
      "midi": 75,
      "hit": false,
      "t": 157333.1760000003,
      "d": 444.4439999999886,
      "v": 127
    },
    {
      "midi": 66,
      "hit": false,
      "t": 157333.1760000003,
      "d": 888.8879999999772,
      "v": 127
    },
    {
      "midi": 71,
      "hit": false,
      "t": 157333.1760000003,
      "d": 888.8879999999772,
      "v": 127
    },
    {
      "midi": 47,
      "hit": false,
      "t": 157333.17600000033,
      "d": 444.4439999999886,
      "v": 127
    },
    {
      "midi": 57,
      "hit": false,
      "t": 157333.17600000033,
      "d": 1784.7204374999856,
      "v": 127
    },
    {
      "midi": 76,
      "hit": false,
      "t": 157833.17550000027,
      "d": 444.4439999999886,
      "v": 127
    },
    {
      "midi": 47,
      "hit": false,
      "t": 157999.84200000032,
      "d": 444.4439999999886,
      "v": 127
    },
    {
      "midi": 75,
      "hit": false,
      "t": 158333.17500000025,
      "d": 222.22200000000885,
      "v": 127
    },
    {
      "midi": 78,
      "hit": false,
      "t": 158666.50800000026,
      "d": 444.4439999999886,
      "v": 127
    },
    {
      "midi": 66,
      "hit": false,
      "t": 158666.50800000026,
      "d": 888.8879999999772,
      "v": 127
    },
    {
      "midi": 69,
      "hit": false,
      "t": 158666.50800000026,
      "d": 888.8879999999772,
      "v": 127
    },
    {
      "midi": 47,
      "hit": false,
      "t": 158666.50800000032,
      "d": 444.4439999999886,
      "v": 127
    },
    {
      "midi": 76,
      "hit": false,
      "t": 159166.50750000024,
      "d": 444.4439999999886,
      "v": 127
    },
    {
      "midi": 47,
      "hit": false,
      "t": 159333.17400000032,
      "d": 444.4439999999886,
      "v": 127
    },
    {
      "midi": 75,
      "hit": false,
      "t": 159666.50700000022,
      "d": 222.22200000000885,
      "v": 127
    },
    {
      "midi": 67,
      "hit": false,
      "t": 159999.84000000023,
      "d": 444.4439999999886,
      "v": 127
    },
    {
      "midi": 71,
      "hit": false,
      "t": 159999.84000000023,
      "d": 444.4439999999886,
      "v": 127
    },
    {
      "midi": 76,
      "hit": false,
      "t": 159999.84000000023,
      "d": 444.4439999999886,
      "v": 127
    },
    {
      "midi": 79,
      "hit": false,
      "t": 159999.84000000023,
      "d": 1333.3319999999949,
      "v": 127
    },
    {
      "midi": 40,
      "hit": false,
      "t": 159999.84000000032,
      "d": 444.4439999999886,
      "v": 127
    },
    {
      "midi": 47,
      "hit": false,
      "t": 159999.84000000032,
      "d": 444.4439999999886,
      "v": 127
    },
    {
      "midi": 55,
      "hit": false,
      "t": 159999.84000000032,
      "d": 444.4439999999886,
      "v": 127
    },
    {
      "midi": 67,
      "hit": false,
      "t": 160666.50600000023,
      "d": 444.4439999999886,
      "v": 127
    },
    {
      "midi": 71,
      "hit": false,
      "t": 160666.50600000023,
      "d": 444.4439999999886,
      "v": 127
    },
    {
      "midi": 76,
      "hit": false,
      "t": 160666.50600000023,
      "d": 444.4439999999886,
      "v": 127
    },
    {
      "midi": 40,
      "hit": false,
      "t": 160666.5060000003,
      "d": 444.4439999999886,
      "v": 127
    },
    {
      "midi": 47,
      "hit": false,
      "t": 160666.5060000003,
      "d": 444.4439999999886,
      "v": 127
    },
    {
      "midi": 55,
      "hit": false,
      "t": 160666.5060000003,
      "d": 444.4439999999886,
      "v": 127
    },
    {
      "midi": 67,
      "hit": false,
      "t": 161333.17200000022,
      "d": 444.4439999999886,
      "v": 127
    },
    {
      "midi": 71,
      "hit": false,
      "t": 161333.17200000022,
      "d": 444.4439999999886,
      "v": 127
    },
    {
      "midi": 76,
      "hit": false,
      "t": 161333.17200000022,
      "d": 444.4439999999886,
      "v": 127
    },
    {
      "midi": 40,
      "hit": false,
      "t": 161333.1720000003,
      "d": 444.4439999999886,
      "v": 127
    },
    {
      "midi": 47,
      "hit": false,
      "t": 161333.1720000003,
      "d": 444.4439999999886,
      "v": 127
    },
    {
      "midi": 55,
      "hit": false,
      "t": 161333.1720000003,
      "d": 444.4439999999886,
      "v": 127
    },
    {
      "midi": 67,
      "hit": false,
      "t": 161999.83800000022,
      "d": 222.22200000000885,
      "v": 127
    },
    {
      "midi": 71,
      "hit": false,
      "t": 161999.83800000022,
      "d": 222.22200000000885,
      "v": 127
    },
    {
      "midi": 76,
      "hit": false,
      "t": 161999.83800000022,
      "d": 222.22200000000885,
      "v": 127
    },
    {
      "midi": 79,
      "hit": false,
      "t": 161999.83800000022,
      "d": 222.22200000000885,
      "v": 127
    },
    {
      "midi": 40,
      "hit": false,
      "t": 161999.8380000003,
      "d": 444.4439999999886,
      "v": 127
    },
    {
      "midi": 47,
      "hit": false,
      "t": 161999.8380000003,
      "d": 444.4439999999886,
      "v": 127
    },
    {
      "midi": 55,
      "hit": false,
      "t": 161999.8380000003,
      "d": 444.4439999999886,
      "v": 127
    },
    {
      "midi": 67,
      "hit": false,
      "t": 162333.17100000023,
      "d": 111.11100000000442,
      "v": 127
    },
    {
      "midi": 71,
      "hit": false,
      "t": 162333.17100000023,
      "d": 111.11100000000442,
      "v": 127
    },
    {
      "midi": 76,
      "hit": false,
      "t": 162333.17100000023,
      "d": 111.11100000000442,
      "v": 127
    },
    {
      "midi": 79,
      "hit": false,
      "t": 162333.17100000023,
      "d": 111.11100000000442,
      "v": 127
    },
    {
      "midi": 67,
      "hit": false,
      "t": 162499.83750000023,
      "d": 111.11100000000442,
      "v": 127
    },
    {
      "midi": 71,
      "hit": false,
      "t": 162499.83750000023,
      "d": 111.11100000000442,
      "v": 127
    },
    {
      "midi": 76,
      "hit": false,
      "t": 162499.83750000023,
      "d": 111.11100000000442,
      "v": 127
    },
    {
      "midi": 79,
      "hit": false,
      "t": 162499.83750000023,
      "d": 111.11100000000442,
      "v": 127
    },
    {
      "midi": 66,
      "hit": false,
      "t": 162666.50400000022,
      "d": 444.4439999999886,
      "v": 127
    },
    {
      "midi": 70,
      "hit": false,
      "t": 162666.50400000022,
      "d": 444.4439999999886,
      "v": 127
    },
    {
      "midi": 73,
      "hit": false,
      "t": 162666.50400000022,
      "d": 444.4439999999886,
      "v": 127
    },
    {
      "midi": 78,
      "hit": false,
      "t": 162666.50400000022,
      "d": 1333.3319999999949,
      "v": 127
    },
    {
      "midi": 40,
      "hit": false,
      "t": 162666.5040000003,
      "d": 444.4439999999886,
      "v": 127
    },
    {
      "midi": 46,
      "hit": false,
      "t": 162666.5040000003,
      "d": 444.4439999999886,
      "v": 127
    },
    {
      "midi": 54,
      "hit": false,
      "t": 162666.5040000003,
      "d": 444.4439999999886,
      "v": 127
    },
    {
      "midi": 66,
      "hit": false,
      "t": 163333.17000000022,
      "d": 444.4439999999886,
      "v": 127
    },
    {
      "midi": 70,
      "hit": false,
      "t": 163333.17000000022,
      "d": 444.4439999999886,
      "v": 127
    },
    {
      "midi": 73,
      "hit": false,
      "t": 163333.17000000022,
      "d": 444.4439999999886,
      "v": 127
    },
    {
      "midi": 40,
      "hit": false,
      "t": 163333.1700000003,
      "d": 444.4439999999886,
      "v": 127
    },
    {
      "midi": 46,
      "hit": false,
      "t": 163333.1700000003,
      "d": 444.4439999999886,
      "v": 127
    },
    {
      "midi": 54,
      "hit": false,
      "t": 163333.1700000003,
      "d": 444.4439999999886,
      "v": 127
    },
    {
      "midi": 66,
      "hit": false,
      "t": 163999.8360000002,
      "d": 444.4439999999886,
      "v": 127
    },
    {
      "midi": 70,
      "hit": false,
      "t": 163999.8360000002,
      "d": 444.4439999999886,
      "v": 127
    },
    {
      "midi": 73,
      "hit": false,
      "t": 163999.8360000002,
      "d": 444.4439999999886,
      "v": 127
    },
    {
      "midi": 40,
      "hit": false,
      "t": 163999.8360000003,
      "d": 444.4439999999886,
      "v": 127
    },
    {
      "midi": 46,
      "hit": false,
      "t": 163999.8360000003,
      "d": 444.4439999999886,
      "v": 127
    },
    {
      "midi": 54,
      "hit": false,
      "t": 163999.8360000003,
      "d": 444.4439999999886,
      "v": 127
    },
    {
      "midi": 66,
      "hit": false,
      "t": 164666.5020000002,
      "d": 222.22200000000885,
      "v": 127
    },
    {
      "midi": 70,
      "hit": false,
      "t": 164666.5020000002,
      "d": 222.22200000000885,
      "v": 127
    },
    {
      "midi": 73,
      "hit": false,
      "t": 164666.5020000002,
      "d": 222.22200000000885,
      "v": 127
    },
    {
      "midi": 78,
      "hit": false,
      "t": 164666.5020000002,
      "d": 222.22200000000885,
      "v": 127
    },
    {
      "midi": 40,
      "hit": false,
      "t": 164666.5020000003,
      "d": 444.4439999999886,
      "v": 127
    },
    {
      "midi": 46,
      "hit": false,
      "t": 164666.5020000003,
      "d": 444.4439999999886,
      "v": 127
    },
    {
      "midi": 54,
      "hit": false,
      "t": 164666.5020000003,
      "d": 444.4439999999886,
      "v": 127
    },
    {
      "midi": 66,
      "hit": false,
      "t": 164999.83500000022,
      "d": 111.11100000000442,
      "v": 127
    },
    {
      "midi": 70,
      "hit": false,
      "t": 164999.83500000022,
      "d": 111.11100000000442,
      "v": 127
    },
    {
      "midi": 73,
      "hit": false,
      "t": 164999.83500000022,
      "d": 111.11100000000442,
      "v": 127
    },
    {
      "midi": 78,
      "hit": false,
      "t": 164999.83500000022,
      "d": 111.11100000000442,
      "v": 127
    },
    {
      "midi": 66,
      "hit": false,
      "t": 165166.50150000022,
      "d": 111.11100000000442,
      "v": 127
    },
    {
      "midi": 70,
      "hit": false,
      "t": 165166.50150000022,
      "d": 111.11100000000442,
      "v": 127
    },
    {
      "midi": 73,
      "hit": false,
      "t": 165166.50150000022,
      "d": 111.11100000000442,
      "v": 127
    },
    {
      "midi": 78,
      "hit": false,
      "t": 165166.50150000022,
      "d": 111.11100000000442,
      "v": 127
    },
    {
      "midi": 66,
      "hit": false,
      "t": 165333.1680000002,
      "d": 444.4439999999886,
      "v": 127
    },
    {
      "midi": 78,
      "hit": false,
      "t": 165333.1680000002,
      "d": 444.4439999999886,
      "v": 127
    },
    {
      "midi": 72,
      "hit": false,
      "t": 165333.1680000002,
      "d": 888.8879999999772,
      "v": 127
    },
    {
      "midi": 76,
      "hit": false,
      "t": 165333.1680000002,
      "d": 888.8879999999772,
      "v": 127
    },
    {
      "midi": 45,
      "hit": false,
      "t": 165333.1680000003,
      "d": 444.4439999999886,
      "v": 127
    },
    {
      "midi": 52,
      "hit": false,
      "t": 165333.1680000003,
      "d": 888.8880000000063,
      "v": 127
    },
    {
      "midi": 57,
      "hit": false,
      "t": 165333.1680000003,
      "d": 888.8880000000063,
      "v": 127
    },
    {
      "midi": 67,
      "hit": false,
      "t": 165833.16750000019,
      "d": 444.4439999999886,
      "v": 127
    },
    {
      "midi": 79,
      "hit": false,
      "t": 165833.16750000019,
      "d": 444.4439999999886,
      "v": 127
    },
    {
      "midi": 45,
      "hit": false,
      "t": 165999.8340000003,
      "d": 444.4440000000177,
      "v": 127
    },
    {
      "midi": 66,
      "hit": false,
      "t": 166333.16700000016,
      "d": 222.22200000000885,
      "v": 127
    },
    {
      "midi": 78,
      "hit": false,
      "t": 166333.16700000016,
      "d": 222.22200000000885,
      "v": 127
    },
    {
      "midi": 69,
      "hit": false,
      "t": 166666.50000000017,
      "d": 444.4439999999886,
      "v": 127
    },
    {
      "midi": 81,
      "hit": false,
      "t": 166666.50000000017,
      "d": 444.4439999999886,
      "v": 127
    },
    {
      "midi": 75,
      "hit": false,
      "t": 166666.50000000017,
      "d": 888.8879999999772,
      "v": 127
    },
    {
      "midi": 47,
      "hit": false,
      "t": 166666.50000000032,
      "d": 444.4439999999886,
      "v": 127
    },
    {
      "midi": 54,
      "hit": false,
      "t": 166666.50000000032,
      "d": 888.8880000000063,
      "v": 127
    },
    {
      "midi": 57,
      "hit": false,
      "t": 166666.50000000032,
      "d": 888.8880000000063,
      "v": 127
    },
    {
      "midi": 67,
      "hit": false,
      "t": 167166.49950000015,
      "d": 444.4439999999886,
      "v": 127
    },
    {
      "midi": 79,
      "hit": false,
      "t": 167166.49950000015,
      "d": 444.4439999999886,
      "v": 127
    },
    {
      "midi": 47,
      "hit": false,
      "t": 167333.16600000032,
      "d": 444.4440000000177,
      "v": 127
    },
    {
      "midi": 66,
      "hit": false,
      "t": 167666.49900000013,
      "d": 222.22200000000885,
      "v": 127
    },
    {
      "midi": 78,
      "hit": false,
      "t": 167666.49900000013,
      "d": 222.22200000000885,
      "v": 127
    },
    {
      "midi": 64,
      "hit": false,
      "t": 167999.83200000014,
      "d": 444.4439999999886,
      "v": 127
    },
    {
      "midi": 71,
      "hit": false,
      "t": 167999.83200000014,
      "d": 444.4439999999886,
      "v": 127
    },
    {
      "midi": 76,
      "hit": false,
      "t": 167999.83200000014,
      "d": 1784.7204374999856,
      "v": 127
    },
    {
      "midi": 40,
      "hit": false,
      "t": 167999.83200000034,
      "d": 444.4439999999886,
      "v": 127
    },
    {
      "midi": 47,
      "hit": false,
      "t": 168166.49850000034,
      "d": 1784.7204374999856,
      "v": 127
    },
    {
      "midi": 55,
      "hit": false,
      "t": 168333.16500000033,
      "d": 1784.7204374999856,
      "v": 127
    },
    {
      "midi": 64,
      "hit": false,
      "t": 168666.49800000014,
      "d": 222.22200000000885,
      "v": 127
    },
    {
      "midi": 71,
      "hit": false,
      "t": 168666.49800000014,
      "d": 222.22200000000885,
      "v": 127
    },
    {
      "midi": 40,
      "hit": false,
      "t": 168666.49800000034,
      "d": 444.4439999999886,
      "v": 127
    },
    {
      "midi": 64,
      "hit": false,
      "t": 168999.83100000015,
      "d": 111.11100000000442,
      "v": 127
    },
    {
      "midi": 71,
      "hit": false,
      "t": 168999.83100000015,
      "d": 111.11100000000442,
      "v": 127
    },
    {
      "midi": 64,
      "hit": false,
      "t": 169166.49750000014,
      "d": 111.11100000000442,
      "v": 127
    },
    {
      "midi": 71,
      "hit": false,
      "t": 169166.49750000014,
      "d": 111.11100000000442,
      "v": 127
    },
    {
      "midi": 64,
      "hit": false,
      "t": 169333.16400000014,
      "d": 444.4439999999886,
      "v": 127
    },
    {
      "midi": 71,
      "hit": false,
      "t": 169333.16400000014,
      "d": 444.4439999999886,
      "v": 127
    },
    {
      "midi": 40,
      "hit": false,
      "t": 169333.16400000034,
      "d": 444.4439999999886,
      "v": 127
    },
    {
      "midi": 64,
      "hit": false,
      "t": 169999.83000000013,
      "d": 444.4439999999886,
      "v": 127
    },
    {
      "midi": 71,
      "hit": false,
      "t": 169999.83000000013,
      "d": 444.4439999999886,
      "v": 127
    },
    {
      "midi": 40,
      "hit": false,
      "t": 169999.8300000003,
      "d": 444.4440000000177,
      "v": 127
    },
    {
      "midi": 71,
      "hit": false,
      "t": 170666.49600000013,
      "d": 888.8880000000063,
      "v": 127
    },
    {
      "midi": 74,
      "hit": false,
      "t": 170666.49600000013,
      "d": 888.8880000000063,
      "v": 127
    },
    {
      "midi": 62,
      "hit": false,
      "t": 170666.49600000013,
      "d": 1784.7204374999856,
      "v": 127
    },
    {
      "midi": 66,
      "hit": false,
      "t": 170666.49600000013,
      "d": 1784.7204374999856,
      "v": 127
    },
    {
      "midi": 47,
      "hit": false,
      "t": 170666.49600000033,
      "d": 444.4439999999886,
      "v": 127
    },
    {
      "midi": 54,
      "hit": false,
      "t": 170666.49600000033,
      "d": 1784.7204374999856,
      "v": 127
    },
    {
      "midi": 59,
      "hit": false,
      "t": 170666.49600000033,
      "d": 1784.7204374999856,
      "v": 127
    },
    {
      "midi": 47,
      "hit": false,
      "t": 171333.16200000033,
      "d": 444.4439999999886,
      "v": 127
    },
    {
      "midi": 71,
      "hit": false,
      "t": 171999.82800000013,
      "d": 888.8879999999772,
      "v": 127
    },
    {
      "midi": 47,
      "hit": false,
      "t": 171999.82800000033,
      "d": 444.4439999999886,
      "v": 127
    },
    {
      "midi": 47,
      "hit": false,
      "t": 172666.49400000033,
      "d": 444.4439999999886,
      "v": 127
    },
    {
      "midi": 71,
      "hit": false,
      "t": 173333.1600000001,
      "d": 888.8880000000063,
      "v": 127
    },
    {
      "midi": 74,
      "hit": false,
      "t": 173333.1600000001,
      "d": 888.8880000000063,
      "v": 127
    },
    {
      "midi": 62,
      "hit": false,
      "t": 173333.1600000001,
      "d": 1333.3319999999949,
      "v": 127
    },
    {
      "midi": 66,
      "hit": false,
      "t": 173333.1600000001,
      "d": 1333.3319999999949,
      "v": 127
    },
    {
      "midi": 40,
      "hit": false,
      "t": 173333.16000000032,
      "d": 444.4439999999886,
      "v": 127
    },
    {
      "midi": 47,
      "hit": false,
      "t": 173499.82650000032,
      "d": 1784.7204374999856,
      "v": 127
    },
    {
      "midi": 56,
      "hit": false,
      "t": 173666.4930000003,
      "d": 1784.7204374999856,
      "v": 127
    },
    {
      "midi": 40,
      "hit": false,
      "t": 173999.82600000032,
      "d": 444.4439999999886,
      "v": 127
    },
    {
      "midi": 71,
      "hit": false,
      "t": 174666.4920000001,
      "d": 888.8880000000063,
      "v": 127
    },
    {
      "midi": 40,
      "hit": false,
      "t": 174666.49200000032,
      "d": 444.4439999999886,
      "v": 127
    },
    {
      "midi": 66,
      "hit": false,
      "t": 174999.8250000001,
      "d": 222.22199999997974,
      "v": 127
    },
    {
      "midi": 64,
      "hit": false,
      "t": 175166.4915000001,
      "d": 444.4439999999886,
      "v": 127
    },
    {
      "midi": 40,
      "hit": false,
      "t": 175333.1580000003,
      "d": 444.4440000000177,
      "v": 127
    },
    {
      "midi": 62,
      "hit": false,
      "t": 175666.49100000007,
      "d": 222.22200000000885,
      "v": 127
    },
    {
      "midi": 61,
      "hit": false,
      "t": 175999.82400000008,
      "d": 444.4440000000177,
      "v": 127
    },
    {
      "midi": 67,
      "hit": false,
      "t": 175999.82400000008,
      "d": 444.4440000000177,
      "v": 127
    },
    {
      "midi": 69,
      "hit": false,
      "t": 175999.82400000008,
      "d": 444.4440000000177,
      "v": 127
    },
    {
      "midi": 45,
      "hit": false,
      "t": 175999.8240000003,
      "d": 444.4439999999886,
      "v": 127
    },
    {
      "midi": 52,
      "hit": false,
      "t": 175999.8240000003,
      "d": 888.8880000000063,
      "v": 127
    },
    {
      "midi": 55,
      "hit": false,
      "t": 175999.8240000003,
      "d": 888.8880000000063,
      "v": 127
    },
    {
      "midi": 57,
      "hit": false,
      "t": 176333.1570000001,
      "d": 222.22199999997974,
      "v": 127
    },
    {
      "midi": 62,
      "hit": false,
      "t": 176499.8235000001,
      "d": 444.4439999999886,
      "v": 127
    },
    {
      "midi": 64,
      "hit": false,
      "t": 176499.8235000001,
      "d": 444.4439999999886,
      "v": 127
    },
    {
      "midi": 67,
      "hit": false,
      "t": 176499.8235000001,
      "d": 444.4439999999886,
      "v": 127
    },
    {
      "midi": 71,
      "hit": false,
      "t": 176499.8235000001,
      "d": 444.4439999999886,
      "v": 127
    },
    {
      "midi": 45,
      "hit": false,
      "t": 176666.4900000003,
      "d": 444.4440000000177,
      "v": 127
    },
    {
      "midi": 59,
      "hit": false,
      "t": 177166.48950000008,
      "d": 222.22199999997974,
      "v": 127
    },
    {
      "midi": 63,
      "hit": false,
      "t": 177333.15600000008,
      "d": 444.4439999999886,
      "v": 127
    },
    {
      "midi": 67,
      "hit": false,
      "t": 177333.15600000008,
      "d": 444.4439999999886,
      "v": 127
    },
    {
      "midi": 69,
      "hit": false,
      "t": 177333.15600000008,
      "d": 444.4439999999886,
      "v": 127
    },
    {
      "midi": 72,
      "hit": false,
      "t": 177333.15600000008,
      "d": 444.4439999999886,
      "v": 127
    },
    {
      "midi": 45,
      "hit": false,
      "t": 177333.15600000034,
      "d": 444.4439999999886,
      "v": 127
    },
    {
      "midi": 51,
      "hit": false,
      "t": 177333.15600000034,
      "d": 444.4439999999886,
      "v": 127
    },
    {
      "midi": 55,
      "hit": false,
      "t": 177333.15600000034,
      "d": 888.8880000000063,
      "v": 127
    },
    {
      "midi": 60,
      "hit": false,
      "t": 177666.48900000006,
      "d": 222.22199999997974,
      "v": 127
    },
    {
      "midi": 64,
      "hit": false,
      "t": 177833.15550000005,
      "d": 444.4439999999886,
      "v": 127
    },
    {
      "midi": 67,
      "hit": false,
      "t": 177833.15550000005,
      "d": 444.4439999999886,
      "v": 127
    },
    {
      "midi": 69,
      "hit": false,
      "t": 177833.15550000005,
      "d": 444.4439999999886,
      "v": 127
    },
    {
      "midi": 73,
      "hit": false,
      "t": 177833.15550000005,
      "d": 444.4439999999886,
      "v": 127
    },
    {
      "midi": 45,
      "hit": false,
      "t": 177999.82200000033,
      "d": 444.4440000000177,
      "v": 127
    },
    {
      "midi": 52,
      "hit": false,
      "t": 177999.82200000033,
      "d": 444.4440000000177,
      "v": 127
    },
    {
      "midi": 61,
      "hit": false,
      "t": 178499.82150000005,
      "d": 208.33312499997555,
      "v": 127
    },
    {
      "midi": 66,
      "hit": false,
      "t": 178659.54356250004,
      "d": 437.4995624999865,
      "v": 127
    },
    {
      "midi": 69,
      "hit": false,
      "t": 178659.54356250004,
      "d": 437.4995624999865,
      "v": 127
    },
    {
      "midi": 72,
      "hit": false,
      "t": 178659.54356250004,
      "d": 437.4995624999865,
      "v": 127
    },
    {
      "midi": 74,
      "hit": false,
      "t": 178659.54356250004,
      "d": 437.4995624999865,
      "v": 127
    },
    {
      "midi": 38,
      "hit": false,
      "t": 178659.54356250036,
      "d": 437.4995624999865,
      "v": 127
    },
    {
      "midi": 50,
      "hit": false,
      "t": 178659.54356250036,
      "d": 1326.3875625000219,
      "v": 127
    },
    {
      "midi": 62,
      "hit": false,
      "t": 178985.93212500002,
      "d": 222.22200000000885,
      "v": 127
    },
    {
      "midi": 64,
      "hit": false,
      "t": 179319.26512500003,
      "d": 222.22200000000885,
      "v": 127
    },
    {
      "midi": 67,
      "hit": false,
      "t": 179319.26512500003,
      "d": 222.22200000000885,
      "v": 127
    },
    {
      "midi": 72,
      "hit": false,
      "t": 179319.26512500003,
      "d": 222.22200000000885,
      "v": 127
    },
    {
      "midi": 76,
      "hit": false,
      "t": 179319.26512500003,
      "d": 222.22200000000885,
      "v": 127
    },
    {
      "midi": 38,
      "hit": false,
      "t": 179319.26512500035,
      "d": 222.22200000000885,
      "v": 127
    },
    {
      "midi": 66,
      "hit": false,
      "t": 179652.59812500005,
      "d": 666.6659999999974,
      "v": 127
    },
    {
      "midi": 72,
      "hit": false,
      "t": 179652.59812500005,
      "d": 666.6659999999974,
      "v": 127
    },
    {
      "midi": 74,
      "hit": false,
      "t": 179652.59812500005,
      "d": 666.6659999999974,
      "v": 127
    },
    {
      "midi": 78,
      "hit": false,
      "t": 179652.59812500005,
      "d": 666.6659999999974,
      "v": 127
    },
    {
      "midi": 38,
      "hit": false,
      "t": 179652.59812500037,
      "d": 666.6660000000265,
      "v": 127
    },
    {
      "midi": 38,
      "hit": false,
      "t": 181319.2631250004,
      "d": 444.4439999999886,
      "v": 127
    },
    {
      "midi": 42,
      "hit": false,
      "t": 181485.9296250004,
      "d": 444.4439999999886,
      "v": 127
    },
    {
      "midi": 45,
      "hit": false,
      "t": 181652.5961250004,
      "d": 444.4439999999886,
      "v": 127
    },
    {
      "midi": 48,
      "hit": false,
      "t": 181819.26262500038,
      "d": 444.4439999999886,
      "v": 127
    },
    {
      "midi": 54,
      "hit": false,
      "t": 181985.92912500037,
      "d": 444.4439999999886,
      "v": 127
    },
    {
      "midi": 57,
      "hit": false,
      "t": 182152.59562500037,
      "d": 444.4439999999886,
      "v": 127
    },
    {
      "midi": 60,
      "hit": false,
      "t": 182319.26212500004,
      "d": 444.4439999999886,
      "v": 127
    },
    {
      "midi": 66,
      "hit": false,
      "t": 182485.92862500003,
      "d": 444.4439999999886,
      "v": 127
    },
    {
      "midi": 69,
      "hit": false,
      "t": 182652.59512500002,
      "d": 444.4439999999886,
      "v": 127
    },
    {
      "midi": 74,
      "hit": false,
      "t": 182819.261625,
      "d": 444.4439999999886,
      "v": 127
    },
    {
      "midi": 78,
      "hit": false,
      "t": 182985.928125,
      "d": 444.4439999999886,
      "v": 127
    },
    {
      "midi": 81,
      "hit": false,
      "t": 183152.594625,
      "d": 444.4439999999886,
      "v": 127
    },
    {
      "midi": 90,
      "hit": false,
      "t": 183319.261125,
      "d": 444.4439999999886,
      "v": 127
    },
    {
      "midi": 38,
      "hit": false,
      "t": 183985.92712500037,
      "d": 444.4439999999886,
      "v": 127
    },
    {
      "midi": 45,
      "hit": false,
      "t": 184152.59362500036,
      "d": 444.4439999999886,
      "v": 127
    },
    {
      "midi": 54,
      "hit": false,
      "t": 184319.26012500035,
      "d": 444.4439999999886,
      "v": 127
    },
    {
      "midi": 60,
      "hit": false,
      "t": 184485.926625,
      "d": 444.4439999999886,
      "v": 127
    },
    {
      "midi": 66,
      "hit": false,
      "t": 184652.59312499998,
      "d": 444.4439999999886,
      "v": 127
    },
    {
      "midi": 70,
      "hit": false,
      "t": 184819.25962499998,
      "d": 444.4439999999886,
      "v": 127
    },
    {
      "midi": 74,
      "hit": false,
      "t": 184985.92612499997,
      "d": 444.4439999999886,
      "v": 127
    },
    {
      "midi": 78,
      "hit": false,
      "t": 185152.59262499996,
      "d": 444.4439999999886,
      "v": 127
    },
    {
      "midi": 86,
      "hit": false,
      "t": 185319.25912499995,
      "d": 444.4439999999886,
      "v": 127
    },
    {
      "midi": 64,
      "hit": false,
      "t": 185985.92512499995,
      "d": 222.22200000000885,
      "v": 127
    },
    {
      "midi": 61,
      "hit": false,
      "t": 186319.25812499996,
      "d": 111.11100000000442,
      "v": 127
    },
    {
      "midi": 60,
      "hit": false,
      "t": 186485.92462499996,
      "d": 111.11100000000442,
      "v": 127
    },
    {
      "midi": 71,
      "hit": false,
      "t": 186652.59112499995,
      "d": 1333.3319999999949,
      "v": 127
    },
    {
      "midi": 59,
      "hit": false,
      "t": 186652.59112499995,
      "d": 1784.7204374999856,
      "v": 127
    },
    {
      "midi": 43,
      "hit": false,
      "t": 186652.59112500033,
      "d": 444.4439999999886,
      "v": 127
    },
    {
      "midi": 50,
      "hit": false,
      "t": 186652.59112500033,
      "d": 1784.7204374999856,
      "v": 127
    },
    {
      "midi": 43,
      "hit": false,
      "t": 187319.25712500032,
      "d": 444.4439999999886,
      "v": 127
    },
    {
      "midi": 43,
      "hit": false,
      "t": 187985.92312500032,
      "d": 444.4439999999886,
      "v": 127
    },
    {
      "midi": 62,
      "hit": false,
      "t": 188652.58912499994,
      "d": 222.22200000000885,
      "v": 127
    },
    {
      "midi": 43,
      "hit": false,
      "t": 188652.58912500032,
      "d": 444.4439999999886,
      "v": 127
    },
    {
      "midi": 61,
      "hit": false,
      "t": 188985.92212499995,
      "d": 111.11100000000442,
      "v": 127
    },
    {
      "midi": 60,
      "hit": false,
      "t": 189152.58862499995,
      "d": 111.11100000000442,
      "v": 127
    },
    {
      "midi": 71,
      "hit": false,
      "t": 189319.25512499994,
      "d": 1333.3319999999949,
      "v": 127
    },
    {
      "midi": 59,
      "hit": false,
      "t": 189319.25512499994,
      "d": 1784.7204374999856,
      "v": 127
    },
    {
      "midi": 43,
      "hit": false,
      "t": 189319.25512500032,
      "d": 444.4439999999886,
      "v": 127
    },
    {
      "midi": 51,
      "hit": false,
      "t": 189319.25512500032,
      "d": 1784.7204374999856,
      "v": 127
    },
    {
      "midi": 43,
      "hit": false,
      "t": 189985.9211250003,
      "d": 444.4439999999886,
      "v": 127
    },
    {
      "midi": 43,
      "hit": false,
      "t": 190652.5871250003,
      "d": 444.4439999999886,
      "v": 127
    },
    {
      "midi": 62,
      "hit": false,
      "t": 191319.25312499993,
      "d": 222.22200000000885,
      "v": 127
    },
    {
      "midi": 43,
      "hit": false,
      "t": 191319.2531250003,
      "d": 444.4439999999886,
      "v": 127
    },
    {
      "midi": 61,
      "hit": false,
      "t": 191652.58612499994,
      "d": 111.11100000000442,
      "v": 127
    },
    {
      "midi": 60,
      "hit": false,
      "t": 191819.25262499994,
      "d": 111.11100000000442,
      "v": 127
    },
    {
      "midi": 59,
      "hit": false,
      "t": 191985.91912499993,
      "d": 1333.3319999999949,
      "v": 127
    },
    {
      "midi": 71,
      "hit": false,
      "t": 191985.91912499993,
      "d": 1333.3319999999949,
      "v": 127
    },
    {
      "midi": 43,
      "hit": false,
      "t": 191985.9191250003,
      "d": 444.4439999999886,
      "v": 127
    },
    {
      "midi": 52,
      "hit": false,
      "t": 191985.9191250003,
      "d": 1784.7204374999856,
      "v": 127
    },
    {
      "midi": 43,
      "hit": false,
      "t": 192652.5851250003,
      "d": 444.4439999999886,
      "v": 127
    },
    {
      "midi": 43,
      "hit": false,
      "t": 193319.2511250003,
      "d": 444.4439999999886,
      "v": 127
    },
    {
      "midi": 59,
      "hit": false,
      "t": 193985.91712499992,
      "d": 222.22200000000885,
      "v": 127
    },
    {
      "midi": 43,
      "hit": false,
      "t": 193985.9171250003,
      "d": 444.4439999999886,
      "v": 127
    },
    {
      "midi": 60,
      "hit": false,
      "t": 194319.25012499993,
      "d": 111.11100000000442,
      "v": 127
    },
    {
      "midi": 61,
      "hit": false,
      "t": 194485.91662499993,
      "d": 111.11100000000442,
      "v": 127
    },
    {
      "midi": 57,
      "hit": false,
      "t": 194652.58312499992,
      "d": 1333.3319999999949,
      "v": 127
    },
    {
      "midi": 59,
      "hit": false,
      "t": 194652.58312499992,
      "d": 1333.3319999999949,
      "v": 127
    },
    {
      "midi": 62,
      "hit": false,
      "t": 194652.58312499992,
      "d": 1333.3319999999949,
      "v": 127
    },
    {
      "midi": 43,
      "hit": false,
      "t": 194652.5831250003,
      "d": 444.4439999999886,
      "v": 127
    },
    {
      "midi": 53,
      "hit": false,
      "t": 194652.5831250003,
      "d": 1784.7204374999856,
      "v": 127
    },
    {
      "midi": 43,
      "hit": false,
      "t": 195319.2491250003,
      "d": 444.4439999999886,
      "v": 127
    },
    {
      "midi": 43,
      "hit": false,
      "t": 195985.9151250003,
      "d": 444.4439999999886,
      "v": 127
    },
    {
      "midi": 59,
      "hit": false,
      "t": 196652.5811249999,
      "d": 222.22200000000885,
      "v": 127
    },
    {
      "midi": 43,
      "hit": false,
      "t": 196652.5811250003,
      "d": 444.4439999999886,
      "v": 127
    },
    {
      "midi": 60,
      "hit": false,
      "t": 196985.91412499992,
      "d": 111.11100000000442,
      "v": 127
    },
    {
      "midi": 62,
      "hit": false,
      "t": 197152.58062499992,
      "d": 111.11100000000442,
      "v": 127
    },
    {
      "midi": 64,
      "hit": false,
      "t": 197319.2471249999,
      "d": 888.8880000000063,
      "v": 127
    },
    {
      "midi": 55,
      "hit": false,
      "t": 197319.2471249999,
      "d": 1333.3319999999949,
      "v": 127
    },
    {
      "midi": 60,
      "hit": false,
      "t": 197319.2471249999,
      "d": 1333.3319999999949,
      "v": 127
    },
    {
      "midi": 36,
      "hit": false,
      "t": 197319.2471250003,
      "d": 444.4439999999886,
      "v": 127
    },
    {
      "midi": 43,
      "hit": false,
      "t": 197319.2471250003,
      "d": 1784.7204374999856,
      "v": 127
    },
    {
      "midi": 52,
      "hit": false,
      "t": 197319.2471250003,
      "d": 1784.7204374999856,
      "v": 127
    },
    {
      "midi": 36,
      "hit": false,
      "t": 197985.91312500028,
      "d": 444.4439999999886,
      "v": 127
    },
    {
      "midi": 67,
      "hit": false,
      "t": 198652.5791249999,
      "d": 888.8880000000063,
      "v": 127
    },
    {
      "midi": 36,
      "hit": false,
      "t": 198652.57912500028,
      "d": 444.4439999999886,
      "v": 127
    },
    {
      "midi": 58,
      "hit": false,
      "t": 199319.2451249999,
      "d": 222.22200000000885,
      "v": 127
    },
    {
      "midi": 36,
      "hit": false,
      "t": 199319.24512500028,
      "d": 444.4439999999886,
      "v": 127
    },
    {
      "midi": 57,
      "hit": false,
      "t": 199652.5781249999,
      "d": 111.11100000000442,
      "v": 127
    },
    {
      "midi": 55,
      "hit": false,
      "t": 199819.2446249999,
      "d": 111.11100000000442,
      "v": 127
    },
    {
      "midi": 57,
      "hit": false,
      "t": 199985.9111249999,
      "d": 888.8880000000063,
      "v": 127
    },
    {
      "midi": 63,
      "hit": false,
      "t": 199985.9111249999,
      "d": 888.8880000000063,
      "v": 127
    },
    {
      "midi": 67,
      "hit": false,
      "t": 199985.9111249999,
      "d": 888.8880000000063,
      "v": 127
    },
    {
      "midi": 69,
      "hit": false,
      "t": 199985.9111249999,
      "d": 888.8880000000063,
      "v": 127
    },
    {
      "midi": 36,
      "hit": false,
      "t": 199985.91112500028,
      "d": 444.4439999999886,
      "v": 127
    },
    {
      "midi": 43,
      "hit": false,
      "t": 199985.91112500028,
      "d": 1784.7204374999856,
      "v": 127
    },
    {
      "midi": 51,
      "hit": false,
      "t": 199985.91112500028,
      "d": 1784.7204374999856,
      "v": 127
    },
    {
      "midi": 36,
      "hit": false,
      "t": 200652.57712500027,
      "d": 444.4439999999886,
      "v": 127
    },
    {
      "midi": 60,
      "hit": false,
      "t": 201319.2431249999,
      "d": 888.8879999999772,
      "v": 127
    },
    {
      "midi": 36,
      "hit": false,
      "t": 201319.24312500027,
      "d": 444.4439999999886,
      "v": 127
    },
    {
      "midi": 63,
      "hit": false,
      "t": 201485.90962499988,
      "d": 888.8879999999772,
      "v": 127
    },
    {
      "midi": 67,
      "hit": false,
      "t": 201652.57612499988,
      "d": 888.8879999999772,
      "v": 127
    },
    {
      "midi": 69,
      "hit": false,
      "t": 201819.24262499987,
      "d": 888.8879999999772,
      "v": 127
    },
    {
      "midi": 72,
      "hit": false,
      "t": 201985.90912499986,
      "d": 666.6659999999974,
      "v": 127
    },
    {
      "midi": 36,
      "hit": false,
      "t": 201985.90912500027,
      "d": 444.4439999999886,
      "v": 127
    },
    {
      "midi": 73,
      "hit": false,
      "t": 202652.57512499986,
      "d": 111.11099999997532,
      "v": 127
    },
    {
      "midi": 47,
      "hit": false,
      "t": 202652.57512500026,
      "d": 444.4439999999886,
      "v": 127
    },
    {
      "midi": 54,
      "hit": false,
      "t": 202652.57512500026,
      "d": 1784.7204374999856,
      "v": 127
    },
    {
      "midi": 57,
      "hit": false,
      "t": 202652.57512500026,
      "d": 1784.7204374999856,
      "v": 127
    },
    {
      "midi": 74,
      "hit": false,
      "t": 202819.24162499982,
      "d": 444.4440000000177,
      "v": 127
    },
    {
      "midi": 62,
      "hit": false,
      "t": 203152.57462499983,
      "d": 444.4440000000177,
      "v": 127
    },
    {
      "midi": 47,
      "hit": false,
      "t": 203319.24112500026,
      "d": 444.4439999999886,
      "v": 127
    },
    {
      "midi": 74,
      "hit": false,
      "t": 203652.57412499984,
      "d": 222.22200000000885,
      "v": 127
    },
    {
      "midi": 73,
      "hit": false,
      "t": 203985.90712499985,
      "d": 111.11100000000442,
      "v": 127
    },
    {
      "midi": 47,
      "hit": false,
      "t": 203985.90712500026,
      "d": 444.4439999999886,
      "v": 127
    },
    {
      "midi": 74,
      "hit": false,
      "t": 204152.57362499984,
      "d": 444.4440000000177,
      "v": 127
    },
    {
      "midi": 62,
      "hit": false,
      "t": 204485.90662499986,
      "d": 444.4440000000177,
      "v": 127
    },
    {
      "midi": 47,
      "hit": false,
      "t": 204652.57312500026,
      "d": 444.4439999999886,
      "v": 127
    },
    {
      "midi": 74,
      "hit": false,
      "t": 204985.90612499986,
      "d": 222.22200000000885,
      "v": 127
    },
    {
      "midi": 56,
      "hit": false,
      "t": 205319.23912499988,
      "d": 444.4439999999886,
      "v": 127
    },
    {
      "midi": 68,
      "hit": false,
      "t": 205319.23912499988,
      "d": 444.4439999999886,
      "v": 127
    },
    {
      "midi": 40,
      "hit": false,
      "t": 205319.23912500025,
      "d": 444.4439999999886,
      "v": 127
    },
    {
      "midi": 47,
      "hit": false,
      "t": 205319.23912500025,
      "d": 888.8880000000063,
      "v": 127
    },
    {
      "midi": 57,
      "hit": false,
      "t": 205985.90512499987,
      "d": 444.4439999999886,
      "v": 127
    },
    {
      "midi": 69,
      "hit": false,
      "t": 205985.90512499987,
      "d": 444.4439999999886,
      "v": 127
    },
    {
      "midi": 42,
      "hit": false,
      "t": 205985.90512500025,
      "d": 444.4440000000177,
      "v": 127
    },
    {
      "midi": 58,
      "hit": false,
      "t": 206652.57112499987,
      "d": 444.4439999999886,
      "v": 127
    },
    {
      "midi": 61,
      "hit": false,
      "t": 206652.57112499987,
      "d": 444.4439999999886,
      "v": 127
    },
    {
      "midi": 70,
      "hit": false,
      "t": 206652.57112499987,
      "d": 444.4439999999886,
      "v": 127
    },
    {
      "midi": 43,
      "hit": false,
      "t": 206652.57112500028,
      "d": 444.4439999999886,
      "v": 127
    },
    {
      "midi": 52,
      "hit": false,
      "t": 206652.57112500028,
      "d": 888.8880000000063,
      "v": 127
    },
    {
      "midi": 59,
      "hit": false,
      "t": 207319.23712499987,
      "d": 444.4439999999886,
      "v": 127
    },
    {
      "midi": 62,
      "hit": false,
      "t": 207319.23712499987,
      "d": 444.4439999999886,
      "v": 127
    },
    {
      "midi": 71,
      "hit": false,
      "t": 207319.23712499987,
      "d": 444.4439999999886,
      "v": 127
    },
    {
      "midi": 44,
      "hit": false,
      "t": 207319.23712500028,
      "d": 444.4440000000177,
      "v": 127
    },
    {
      "midi": 76,
      "hit": false,
      "t": 207985.90312499987,
      "d": 222.22200000000885,
      "v": 127
    },
    {
      "midi": 64,
      "hit": false,
      "t": 207985.90312499987,
      "d": 666.6660000000265,
      "v": 127
    },
    {
      "midi": 67,
      "hit": false,
      "t": 207985.90312499987,
      "d": 666.6660000000265,
      "v": 127
    },
    {
      "midi": 72,
      "hit": false,
      "t": 207985.90312499987,
      "d": 666.6660000000265,
      "v": 127
    },
    {
      "midi": 52,
      "hit": false,
      "t": 207985.9031250003,
      "d": 444.4439999999886,
      "v": 127
    },
    {
      "midi": 55,
      "hit": false,
      "t": 207985.9031250003,
      "d": 444.4439999999886,
      "v": 127
    },
    {
      "midi": 60,
      "hit": false,
      "t": 207985.9031250003,
      "d": 444.4439999999886,
      "v": 127
    },
    {
      "midi": 74,
      "hit": false,
      "t": 208319.23612499988,
      "d": 666.6660000000265,
      "v": 127
    },
    {
      "midi": 33,
      "hit": false,
      "t": 208652.5691250003,
      "d": 444.4439999999886,
      "v": 127
    },
    {
      "midi": 76,
      "hit": false,
      "t": 209319.23512499992,
      "d": 222.22200000000885,
      "v": 127
    },
    {
      "midi": 66,
      "hit": false,
      "t": 209319.23512499992,
      "d": 666.6660000000265,
      "v": 127
    },
    {
      "midi": 71,
      "hit": false,
      "t": 209319.23512499992,
      "d": 666.6660000000265,
      "v": 127
    },
    {
      "midi": 54,
      "hit": false,
      "t": 209319.2351250003,
      "d": 444.4439999999886,
      "v": 127
    },
    {
      "midi": 59,
      "hit": false,
      "t": 209319.2351250003,
      "d": 444.4439999999886,
      "v": 127
    },
    {
      "midi": 62,
      "hit": false,
      "t": 209319.2351250003,
      "d": 444.4439999999886,
      "v": 127
    },
    {
      "midi": 74,
      "hit": false,
      "t": 209652.56812499993,
      "d": 666.6660000000265,
      "v": 127
    },
    {
      "midi": 35,
      "hit": false,
      "t": 209985.9011250003,
      "d": 444.4439999999886,
      "v": 127
    },
    {
      "midi": 76,
      "hit": false,
      "t": 210652.56712499997,
      "d": 222.22200000000885,
      "v": 127
    },
    {
      "midi": 64,
      "hit": false,
      "t": 210652.56712499997,
      "d": 666.6660000000265,
      "v": 127
    },
    {
      "midi": 67,
      "hit": false,
      "t": 210652.56712499997,
      "d": 666.6660000000265,
      "v": 127
    },
    {
      "midi": 72,
      "hit": false,
      "t": 210652.56712499997,
      "d": 666.6660000000265,
      "v": 127
    },
    {
      "midi": 52,
      "hit": false,
      "t": 210652.5671250003,
      "d": 444.4439999999886,
      "v": 127
    },
    {
      "midi": 55,
      "hit": false,
      "t": 210652.5671250003,
      "d": 444.4439999999886,
      "v": 127
    },
    {
      "midi": 60,
      "hit": false,
      "t": 210652.5671250003,
      "d": 444.4439999999886,
      "v": 127
    },
    {
      "midi": 74,
      "hit": false,
      "t": 210985.900125,
      "d": 666.6660000000265,
      "v": 127
    },
    {
      "midi": 36,
      "hit": false,
      "t": 211319.2331250003,
      "d": 444.4439999999886,
      "v": 127
    },
    {
      "midi": 76,
      "hit": false,
      "t": 211985.89912500003,
      "d": 444.4439999999886,
      "v": 127
    },
    {
      "midi": 66,
      "hit": false,
      "t": 211985.89912500003,
      "d": 888.8879999999772,
      "v": 127
    },
    {
      "midi": 72,
      "hit": false,
      "t": 211985.89912500003,
      "d": 888.8879999999772,
      "v": 127
    },
    {
      "midi": 50,
      "hit": false,
      "t": 211985.8991250003,
      "d": 444.4439999999886,
      "v": 127
    },
    {
      "midi": 54,
      "hit": false,
      "t": 211985.8991250003,
      "d": 444.4439999999886,
      "v": 127
    },
    {
      "midi": 60,
      "hit": false,
      "t": 211985.8991250003,
      "d": 444.4439999999886,
      "v": 127
    },
    {
      "midi": 74,
      "hit": false,
      "t": 212485.898625,
      "d": 444.4439999999886,
      "v": 127
    },
    {
      "midi": 38,
      "hit": false,
      "t": 212652.56512500028,
      "d": 444.4439999999886,
      "v": 127
    },
    {
      "midi": 76,
      "hit": false,
      "t": 212985.89812499998,
      "d": 222.22200000000885,
      "v": 127
    },
    {
      "midi": 67,
      "hit": false,
      "t": 213319.231125,
      "d": 444.4439999999886,
      "v": 127
    },
    {
      "midi": 71,
      "hit": false,
      "t": 213319.231125,
      "d": 444.4439999999886,
      "v": 127
    },
    {
      "midi": 74,
      "hit": false,
      "t": 213319.231125,
      "d": 444.4439999999886,
      "v": 127
    },
    {
      "midi": 79,
      "hit": false,
      "t": 213319.231125,
      "d": 444.4439999999886,
      "v": 127
    },
    {
      "midi": 31,
      "hit": false,
      "t": 213319.23112500028,
      "d": 444.4439999999886,
      "v": 127
    },
    {
      "midi": 43,
      "hit": false,
      "t": 213319.23112500028,
      "d": 444.4439999999886,
      "v": 127
    },
    {
      "midi": 31,
      "hit": false,
      "t": 213819.23062500026,
      "d": 111.11100000000442,
      "v": 127
    },
    {
      "midi": 43,
      "hit": false,
      "t": 213819.23062500026,
      "d": 111.11100000000442,
      "v": 127
    },
    {
      "midi": 70,
      "hit": false,
      "t": 213985.897125,
      "d": 222.22200000000885,
      "v": 127
    },
    {
      "midi": 74,
      "hit": false,
      "t": 213985.897125,
      "d": 222.22200000000885,
      "v": 127
    },
    {
      "midi": 77,
      "hit": false,
      "t": 213985.897125,
      "d": 222.22200000000885,
      "v": 127
    },
    {
      "midi": 82,
      "hit": false,
      "t": 213985.897125,
      "d": 222.22200000000885,
      "v": 127
    },
    {
      "midi": 35,
      "hit": false,
      "t": 213985.89712500025,
      "d": 444.4439999999886,
      "v": 127
    },
    {
      "midi": 47,
      "hit": false,
      "t": 213985.89712500025,
      "d": 444.4439999999886,
      "v": 127
    },
    {
      "midi": 69,
      "hit": false,
      "t": 214319.230125,
      "d": 111.11100000000442,
      "v": 127
    },
    {
      "midi": 81,
      "hit": false,
      "t": 214319.230125,
      "d": 111.11100000000442,
      "v": 127
    },
    {
      "midi": 67,
      "hit": false,
      "t": 214485.896625,
      "d": 111.11100000000442,
      "v": 127
    },
    {
      "midi": 79,
      "hit": false,
      "t": 214485.896625,
      "d": 111.11100000000442,
      "v": 127
    },
    {
      "midi": 35,
      "hit": false,
      "t": 214485.89662500023,
      "d": 111.11100000000442,
      "v": 127
    },
    {
      "midi": 47,
      "hit": false,
      "t": 214485.89662500023,
      "d": 111.11100000000442,
      "v": 127
    },
    {
      "midi": 70,
      "hit": false,
      "t": 214652.563125,
      "d": 222.22200000000885,
      "v": 127
    },
    {
      "midi": 74,
      "hit": false,
      "t": 214652.563125,
      "d": 222.22200000000885,
      "v": 127
    },
    {
      "midi": 76,
      "hit": false,
      "t": 214652.563125,
      "d": 222.22200000000885,
      "v": 127
    },
    {
      "midi": 82,
      "hit": false,
      "t": 214652.563125,
      "d": 222.22200000000885,
      "v": 127
    },
    {
      "midi": 36,
      "hit": false,
      "t": 214652.56312500022,
      "d": 444.4439999999886,
      "v": 127
    },
    {
      "midi": 48,
      "hit": false,
      "t": 214652.56312500022,
      "d": 444.4439999999886,
      "v": 127
    },
    {
      "midi": 69,
      "hit": false,
      "t": 214985.896125,
      "d": 111.11100000000442,
      "v": 127
    },
    {
      "midi": 81,
      "hit": false,
      "t": 214985.896125,
      "d": 111.11100000000442,
      "v": 127
    },
    {
      "midi": 67,
      "hit": false,
      "t": 215152.562625,
      "d": 111.11100000000442,
      "v": 127
    },
    {
      "midi": 79,
      "hit": false,
      "t": 215152.562625,
      "d": 111.11100000000442,
      "v": 127
    },
    {
      "midi": 36,
      "hit": false,
      "t": 215152.5626250002,
      "d": 111.11100000000442,
      "v": 127
    },
    {
      "midi": 48,
      "hit": false,
      "t": 215152.5626250002,
      "d": 111.11100000000442,
      "v": 127
    },
    {
      "midi": 70,
      "hit": false,
      "t": 215319.22912499998,
      "d": 222.22200000000885,
      "v": 127
    },
    {
      "midi": 75,
      "hit": false,
      "t": 215319.22912499998,
      "d": 222.22200000000885,
      "v": 127
    },
    {
      "midi": 79,
      "hit": false,
      "t": 215319.22912499998,
      "d": 222.22200000000885,
      "v": 127
    },
    {
      "midi": 82,
      "hit": false,
      "t": 215319.22912499998,
      "d": 222.22200000000885,
      "v": 127
    },
    {
      "midi": 37,
      "hit": false,
      "t": 215319.2291250002,
      "d": 444.4439999999886,
      "v": 127
    },
    {
      "midi": 49,
      "hit": false,
      "t": 215319.2291250002,
      "d": 444.4439999999886,
      "v": 127
    },
    {
      "midi": 69,
      "hit": false,
      "t": 215652.562125,
      "d": 111.11100000000442,
      "v": 127
    },
    {
      "midi": 81,
      "hit": false,
      "t": 215652.562125,
      "d": 111.11100000000442,
      "v": 127
    },
    {
      "midi": 67,
      "hit": false,
      "t": 215819.228625,
      "d": 111.11100000000442,
      "v": 127
    },
    {
      "midi": 79,
      "hit": false,
      "t": 215819.228625,
      "d": 111.11100000000442,
      "v": 127
    },
    {
      "midi": 37,
      "hit": false,
      "t": 215819.22862500016,
      "d": 111.11100000000442,
      "v": 127
    },
    {
      "midi": 49,
      "hit": false,
      "t": 215819.22862500016,
      "d": 111.11100000000442,
      "v": 127
    },
    {
      "midi": 74,
      "hit": false,
      "t": 215985.89512499998,
      "d": 444.4439999999886,
      "v": 127
    },
    {
      "midi": 79,
      "hit": false,
      "t": 215985.89512499998,
      "d": 444.4439999999886,
      "v": 127
    },
    {
      "midi": 83,
      "hit": false,
      "t": 215985.89512499998,
      "d": 444.4439999999886,
      "v": 127
    },
    {
      "midi": 86,
      "hit": false,
      "t": 215985.89512499998,
      "d": 444.4439999999886,
      "v": 127
    },
    {
      "midi": 38,
      "hit": false,
      "t": 215985.89512500016,
      "d": 444.4439999999886,
      "v": 127
    },
    {
      "midi": 50,
      "hit": false,
      "t": 215985.89512500016,
      "d": 444.4439999999886,
      "v": 127
    },
    {
      "midi": 72,
      "hit": false,
      "t": 216652.56112499998,
      "d": 222.22200000000885,
      "v": 127
    },
    {
      "midi": 78,
      "hit": false,
      "t": 216652.56112499998,
      "d": 222.22200000000885,
      "v": 127
    },
    {
      "midi": 82,
      "hit": false,
      "t": 216652.56112499998,
      "d": 222.22200000000885,
      "v": 127
    },
    {
      "midi": 32,
      "hit": false,
      "t": 216652.56112500015,
      "d": 222.22200000000885,
      "v": 127
    },
    {
      "midi": 44,
      "hit": false,
      "t": 216652.56112500015,
      "d": 222.22200000000885,
      "v": 127
    },
    {
      "midi": 71,
      "hit": false,
      "t": 216985.894125,
      "d": 666.6659999999974,
      "v": 127
    },
    {
      "midi": 74,
      "hit": false,
      "t": 216985.894125,
      "d": 666.6659999999974,
      "v": 127
    },
    {
      "midi": 79,
      "hit": false,
      "t": 216985.894125,
      "d": 666.6659999999974,
      "v": 127
    },
    {
      "midi": 83,
      "hit": false,
      "t": 216985.894125,
      "d": 666.6659999999974,
      "v": 127
    },
    {
      "midi": 31,
      "hit": false,
      "t": 216985.89412500017,
      "d": 666.6659999999974,
      "v": 127
    },
    {
      "midi": 43,
      "hit": false,
      "t": 216985.89412500017,
      "d": 666.6659999999974,
      "v": 127
    },
    {
      "midi": 31,
      "hit": false,
      "t": 217985.89312500018,
      "d": 444.4439999999886,
      "v": 127
    },
    {
      "midi": 43,
      "hit": false,
      "t": 217985.89312500018,
      "d": 444.4439999999886,
      "v": 127
    }
  ]
}