{
  "jsonPath": "Electronic/Disco/Ray Parker Jr/i-dont-think-that-man-should-sleep-alone.json",
  "path": "Electronic\\Disco\\Ray Parker Jr\\I Dont Think That Man Should Sleep Alone.mid",
  "name": "I Dont Think That Man Should Sleep Alone",
  "difficulty": "Advanced",
  "bpm": 200,
  "notes": [
    {
      "midi": 58,
      "hit": false,
      "t": 9999.99,
      "d": 246.21187500000087,
      "v": 62
    },
    {
      "midi": 61,
      "hit": false,
      "t": 9999.99,
      "d": 246.21187500000087,
      "v": 67
    },
    {
      "midi": 63,
      "hit": false,
      "t": 9999.99,
      "d": 246.21187500000087,
      "v": 66
    },
    {
      "midi": 66,
      "hit": false,
      "t": 9999.99,
      "d": 246.21187500000087,
      "v": 71
    },
    {
      "midi": 70,
      "hit": false,
      "t": 9999.99,
      "d": 246.21187500000087,
      "v": 65
    },
    {
      "midi": 58,
      "hit": false,
      "t": 10909.08,
      "d": 246.21187500000087,
      "v": 66
    },
    {
      "midi": 61,
      "hit": false,
      "t": 10909.08,
      "d": 246.21187500000087,
      "v": 64
    },
    {
      "midi": 63,
      "hit": false,
      "t": 10909.08,
      "d": 246.21187500000087,
      "v": 62
    },
    {
      "midi": 66,
      "hit": false,
      "t": 10909.08,
      "d": 246.21187500000087,
      "v": 69
    },
    {
      "midi": 70,
      "hit": false,
      "t": 10909.08,
      "d": 246.21187500000087,
      "v": 62
    },
    {
      "midi": 58,
      "hit": false,
      "t": 12121.2,
      "d": 246.21187500000087,
      "v": 70
    },
    {
      "midi": 61,
      "hit": false,
      "t": 12121.2,
      "d": 246.21187500000087,
      "v": 64
    },
    {
      "midi": 63,
      "hit": false,
      "t": 12121.2,
      "d": 246.21187500000087,
      "v": 62
    },
    {
      "midi": 66,
      "hit": false,
      "t": 12121.2,
      "d": 246.21187500000087,
      "v": 69
    },
    {
      "midi": 70,
      "hit": false,
      "t": 12121.2,
      "d": 246.21187500000087,
      "v": 63
    },
    {
      "midi": 60,
      "hit": false,
      "t": 13030.29,
      "d": 1363.6350000000002,
      "v": 69
    },
    {
      "midi": 63,
      "hit": false,
      "t": 13030.29,
      "d": 1363.6350000000002,
      "v": 68
    },
    {
      "midi": 66,
      "hit": false,
      "t": 13030.29,
      "d": 1363.6350000000002,
      "v": 65
    },
    {
      "midi": 69,
      "hit": false,
      "t": 13030.29,
      "d": 1363.6350000000002,
      "v": 67
    },
    {
      "midi": 58,
      "hit": false,
      "t": 14545.44,
      "d": 1666.664999999999,
      "v": 66
    },
    {
      "midi": 61,
      "hit": false,
      "t": 14545.44,
      "d": 1666.664999999999,
      "v": 64
    },
    {
      "midi": 65,
      "hit": false,
      "t": 14545.44,
      "d": 1666.664999999999,
      "v": 67
    },
    {
      "midi": 68,
      "hit": false,
      "t": 14545.44,
      "d": 1666.664999999999,
      "v": 68
    },
    {
      "midi": 72,
      "hit": false,
      "t": 14545.44,
      "d": 1666.664999999999,
      "v": 70
    },
    {
      "midi": 58,
      "hit": false,
      "t": 16363.619999999999,
      "d": 454.54499999999825,
      "v": 67
    },
    {
      "midi": 61,
      "hit": false,
      "t": 16363.619999999999,
      "d": 454.54499999999825,
      "v": 64
    },
    {
      "midi": 65,
      "hit": false,
      "t": 16363.619999999999,
      "d": 454.54499999999825,
      "v": 68
    },
    {
      "midi": 68,
      "hit": false,
      "t": 16363.619999999999,
      "d": 454.54499999999825,
      "v": 67
    },
    {
      "midi": 72,
      "hit": false,
      "t": 16363.619999999999,
      "d": 454.54499999999825,
      "v": 64
    },
    {
      "midi": 54,
      "hit": false,
      "t": 16969.679999999997,
      "d": 757.5750000000007,
      "v": 69
    },
    {
      "midi": 58,
      "hit": false,
      "t": 16969.679999999997,
      "d": 757.5750000000007,
      "v": 67
    },
    {
      "midi": 61,
      "hit": false,
      "t": 16969.679999999997,
      "d": 757.5750000000007,
      "v": 64
    },
    {
      "midi": 65,
      "hit": false,
      "t": 16969.679999999997,
      "d": 757.5750000000007,
      "v": 70
    },
    {
      "midi": 68,
      "hit": false,
      "t": 16969.679999999997,
      "d": 757.5750000000007,
      "v": 64
    },
    {
      "midi": 54,
      "hit": false,
      "t": 17878.769999999997,
      "d": 757.5750000000007,
      "v": 63
    },
    {
      "midi": 58,
      "hit": false,
      "t": 17878.769999999997,
      "d": 757.5750000000007,
      "v": 65
    },
    {
      "midi": 61,
      "hit": false,
      "t": 17878.769999999997,
      "d": 757.5750000000007,
      "v": 64
    },
    {
      "midi": 65,
      "hit": false,
      "t": 17878.769999999997,
      "d": 757.5750000000007,
      "v": 64
    },
    {
      "midi": 68,
      "hit": false,
      "t": 17878.769999999997,
      "d": 757.5750000000007,
      "v": 67
    },
    {
      "midi": 54,
      "hit": false,
      "t": 18787.859999999997,
      "d": 454.54499999999825,
      "v": 71
    },
    {
      "midi": 58,
      "hit": false,
      "t": 18787.859999999997,
      "d": 454.54499999999825,
      "v": 62
    },
    {
      "midi": 61,
      "hit": false,
      "t": 18787.859999999997,
      "d": 454.54499999999825,
      "v": 63
    },
    {
      "midi": 65,
      "hit": false,
      "t": 18787.859999999997,
      "d": 454.54499999999825,
      "v": 64
    },
    {
      "midi": 68,
      "hit": false,
      "t": 18787.859999999997,
      "d": 454.54499999999825,
      "v": 65
    },
    {
      "midi": 58,
      "hit": false,
      "t": 19393.919999999995,
      "d": 1666.6650000000009,
      "v": 70
    },
    {
      "midi": 61,
      "hit": false,
      "t": 19393.919999999995,
      "d": 1666.6650000000009,
      "v": 68
    },
    {
      "midi": 65,
      "hit": false,
      "t": 19393.919999999995,
      "d": 1666.6650000000009,
      "v": 67
    },
    {
      "midi": 68,
      "hit": false,
      "t": 19393.919999999995,
      "d": 1666.6650000000009,
      "v": 66
    },
    {
      "midi": 72,
      "hit": false,
      "t": 19393.919999999995,
      "d": 1666.6650000000009,
      "v": 62
    },
    {
      "midi": 58,
      "hit": false,
      "t": 21212.099999999995,
      "d": 454.54499999999825,
      "v": 69
    },
    {
      "midi": 61,
      "hit": false,
      "t": 21212.099999999995,
      "d": 454.54499999999825,
      "v": 66
    },
    {
      "midi": 65,
      "hit": false,
      "t": 21212.099999999995,
      "d": 454.54499999999825,
      "v": 69
    },
    {
      "midi": 68,
      "hit": false,
      "t": 21212.099999999995,
      "d": 454.54499999999825,
      "v": 68
    },
    {
      "midi": 72,
      "hit": false,
      "t": 21212.099999999995,
      "d": 454.54499999999825,
      "v": 68
    },
    {
      "midi": 54,
      "hit": false,
      "t": 21818.159999999993,
      "d": 757.5750000000007,
      "v": 66
    },
    {
      "midi": 58,
      "hit": false,
      "t": 21818.159999999993,
      "d": 757.5750000000007,
      "v": 71
    },
    {
      "midi": 61,
      "hit": false,
      "t": 21818.159999999993,
      "d": 757.5750000000007,
      "v": 69
    },
    {
      "midi": 65,
      "hit": false,
      "t": 21818.159999999993,
      "d": 757.5750000000007,
      "v": 62
    },
    {
      "midi": 68,
      "hit": false,
      "t": 21818.159999999993,
      "d": 757.5750000000007,
      "v": 67
    },
    {
      "midi": 54,
      "hit": false,
      "t": 22727.249999999993,
      "d": 757.5750000000007,
      "v": 71
    },
    {
      "midi": 58,
      "hit": false,
      "t": 22727.249999999993,
      "d": 757.5750000000007,
      "v": 71
    },
    {
      "midi": 61,
      "hit": false,
      "t": 22727.249999999993,
      "d": 757.5750000000007,
      "v": 68
    },
    {
      "midi": 65,
      "hit": false,
      "t": 22727.249999999993,
      "d": 757.5750000000007,
      "v": 67
    },
    {
      "midi": 68,
      "hit": false,
      "t": 22727.249999999993,
      "d": 757.5750000000007,
      "v": 68
    },
    {
      "midi": 54,
      "hit": false,
      "t": 23636.339999999993,
      "d": 454.54499999999825,
      "v": 62
    },
    {
      "midi": 58,
      "hit": false,
      "t": 23636.339999999993,
      "d": 454.54499999999825,
      "v": 68
    },
    {
      "midi": 61,
      "hit": false,
      "t": 23636.339999999993,
      "d": 454.54499999999825,
      "v": 65
    },
    {
      "midi": 65,
      "hit": false,
      "t": 23636.339999999993,
      "d": 454.54499999999825,
      "v": 67
    },
    {
      "midi": 68,
      "hit": false,
      "t": 23636.339999999993,
      "d": 454.54499999999825,
      "v": 69
    },
    {
      "midi": 58,
      "hit": false,
      "t": 24242.39999999999,
      "d": 1666.6650000000009,
      "v": 68
    },
    {
      "midi": 61,
      "hit": false,
      "t": 24242.39999999999,
      "d": 1666.6650000000009,
      "v": 68
    },
    {
      "midi": 65,
      "hit": false,
      "t": 24242.39999999999,
      "d": 1666.6650000000009,
      "v": 65
    },
    {
      "midi": 68,
      "hit": false,
      "t": 24242.39999999999,
      "d": 1666.6650000000009,
      "v": 69
    },
    {
      "midi": 72,
      "hit": false,
      "t": 24242.39999999999,
      "d": 1666.6650000000009,
      "v": 68
    },
    {
      "midi": 58,
      "hit": false,
      "t": 26060.57999999999,
      "d": 454.54499999999825,
      "v": 70
    },
    {
      "midi": 61,
      "hit": false,
      "t": 26060.57999999999,
      "d": 454.54499999999825,
      "v": 62
    },
    {
      "midi": 65,
      "hit": false,
      "t": 26060.57999999999,
      "d": 454.54499999999825,
      "v": 68
    },
    {
      "midi": 68,
      "hit": false,
      "t": 26060.57999999999,
      "d": 454.54499999999825,
      "v": 69
    },
    {
      "midi": 72,
      "hit": false,
      "t": 26060.57999999999,
      "d": 454.54499999999825,
      "v": 67
    },
    {
      "midi": 54,
      "hit": false,
      "t": 26666.63999999999,
      "d": 757.5750000000007,
      "v": 69
    },
    {
      "midi": 58,
      "hit": false,
      "t": 26666.63999999999,
      "d": 757.5750000000007,
      "v": 70
    },
    {
      "midi": 61,
      "hit": false,
      "t": 26666.63999999999,
      "d": 757.5750000000007,
      "v": 63
    },
    {
      "midi": 65,
      "hit": false,
      "t": 26666.63999999999,
      "d": 757.5750000000007,
      "v": 71
    },
    {
      "midi": 68,
      "hit": false,
      "t": 26666.63999999999,
      "d": 757.5750000000007,
      "v": 67
    },
    {
      "midi": 54,
      "hit": false,
      "t": 27575.72999999999,
      "d": 757.5750000000007,
      "v": 63
    },
    {
      "midi": 58,
      "hit": false,
      "t": 27575.72999999999,
      "d": 757.5750000000007,
      "v": 64
    },
    {
      "midi": 61,
      "hit": false,
      "t": 27575.72999999999,
      "d": 757.5750000000007,
      "v": 67
    },
    {
      "midi": 65,
      "hit": false,
      "t": 27575.72999999999,
      "d": 757.5750000000007,
      "v": 69
    },
    {
      "midi": 68,
      "hit": false,
      "t": 27575.72999999999,
      "d": 757.5750000000007,
      "v": 62
    },
    {
      "midi": 54,
      "hit": false,
      "t": 28484.81999999999,
      "d": 454.54499999999825,
      "v": 66
    },
    {
      "midi": 58,
      "hit": false,
      "t": 28484.81999999999,
      "d": 454.54499999999825,
      "v": 66
    },
    {
      "midi": 61,
      "hit": false,
      "t": 28484.81999999999,
      "d": 454.54499999999825,
      "v": 65
    },
    {
      "midi": 65,
      "hit": false,
      "t": 28484.81999999999,
      "d": 454.54499999999825,
      "v": 71
    },
    {
      "midi": 68,
      "hit": false,
      "t": 28484.81999999999,
      "d": 454.54499999999825,
      "v": 66
    },
    {
      "midi": 58,
      "hit": false,
      "t": 29090.879999999986,
      "d": 1666.6650000000009,
      "v": 71
    },
    {
      "midi": 61,
      "hit": false,
      "t": 29090.879999999986,
      "d": 1666.6650000000009,
      "v": 65
    },
    {
      "midi": 65,
      "hit": false,
      "t": 29090.879999999986,
      "d": 1666.6650000000009,
      "v": 65
    },
    {
      "midi": 68,
      "hit": false,
      "t": 29090.879999999986,
      "d": 1666.6650000000009,
      "v": 71
    },
    {
      "midi": 72,
      "hit": false,
      "t": 29090.879999999986,
      "d": 1666.6650000000009,
      "v": 63
    },
    {
      "midi": 58,
      "hit": false,
      "t": 30909.059999999987,
      "d": 454.54499999999825,
      "v": 71
    },
    {
      "midi": 61,
      "hit": false,
      "t": 30909.059999999987,
      "d": 454.54499999999825,
      "v": 62
    },
    {
      "midi": 65,
      "hit": false,
      "t": 30909.059999999987,
      "d": 454.54499999999825,
      "v": 62
    },
    {
      "midi": 68,
      "hit": false,
      "t": 30909.059999999987,
      "d": 454.54499999999825,
      "v": 71
    },
    {
      "midi": 72,
      "hit": false,
      "t": 30909.059999999987,
      "d": 454.54499999999825,
      "v": 68
    },
    {
      "midi": 54,
      "hit": false,
      "t": 31515.119999999984,
      "d": 757.5750000000007,
      "v": 69
    },
    {
      "midi": 58,
      "hit": false,
      "t": 31515.119999999984,
      "d": 757.5750000000007,
      "v": 71
    },
    {
      "midi": 61,
      "hit": false,
      "t": 31515.119999999984,
      "d": 757.5750000000007,
      "v": 68
    },
    {
      "midi": 65,
      "hit": false,
      "t": 31515.119999999984,
      "d": 757.5750000000007,
      "v": 69
    },
    {
      "midi": 68,
      "hit": false,
      "t": 31515.119999999984,
      "d": 757.5750000000007,
      "v": 69
    },
    {
      "midi": 54,
      "hit": false,
      "t": 32424.209999999985,
      "d": 757.5749999999971,
      "v": 68
    },
    {
      "midi": 58,
      "hit": false,
      "t": 32424.209999999985,
      "d": 757.5749999999971,
      "v": 71
    },
    {
      "midi": 61,
      "hit": false,
      "t": 32424.209999999985,
      "d": 757.5749999999971,
      "v": 71
    },
    {
      "midi": 65,
      "hit": false,
      "t": 32424.209999999985,
      "d": 757.5749999999971,
      "v": 65
    },
    {
      "midi": 68,
      "hit": false,
      "t": 32424.209999999985,
      "d": 757.5749999999971,
      "v": 63
    },
    {
      "midi": 54,
      "hit": false,
      "t": 33333.29999999998,
      "d": 454.54499999999825,
      "v": 64
    },
    {
      "midi": 58,
      "hit": false,
      "t": 33333.29999999998,
      "d": 454.54499999999825,
      "v": 68
    },
    {
      "midi": 61,
      "hit": false,
      "t": 33333.29999999998,
      "d": 454.54499999999825,
      "v": 65
    },
    {
      "midi": 65,
      "hit": false,
      "t": 33333.29999999998,
      "d": 454.54499999999825,
      "v": 70
    },
    {
      "midi": 68,
      "hit": false,
      "t": 33333.29999999998,
      "d": 454.54499999999825,
      "v": 68
    },
    {
      "midi": 56,
      "hit": false,
      "t": 33939.35999999998,
      "d": 1363.635000000002,
      "v": 66
    },
    {
      "midi": 58,
      "hit": false,
      "t": 33939.35999999998,
      "d": 1363.635000000002,
      "v": 68
    },
    {
      "midi": 61,
      "hit": false,
      "t": 33939.35999999998,
      "d": 1363.635000000002,
      "v": 65
    },
    {
      "midi": 63,
      "hit": false,
      "t": 33939.35999999998,
      "d": 1363.635000000002,
      "v": 67
    },
    {
      "midi": 65,
      "hit": false,
      "t": 33939.35999999998,
      "d": 2272.7249999999985,
      "v": 63
    },
    {
      "midi": 56,
      "hit": false,
      "t": 35454.50999999998,
      "d": 909.0899999999965,
      "v": 66
    },
    {
      "midi": 58,
      "hit": false,
      "t": 35757.53999999998,
      "d": 1363.6349999999948,
      "v": 69
    },
    {
      "midi": 61,
      "hit": false,
      "t": 36060.56999999998,
      "d": 1060.604999999996,
      "v": 68
    },
    {
      "midi": 56,
      "hit": false,
      "t": 36363.59999999998,
      "d": 757.5749999999971,
      "v": 69
    },
    {
      "midi": 63,
      "hit": false,
      "t": 36363.59999999998,
      "d": 757.5749999999971,
      "v": 67
    },
    {
      "midi": 65,
      "hit": false,
      "t": 36363.59999999998,
      "d": 757.5749999999971,
      "v": 63
    },
    {
      "midi": 56,
      "hit": false,
      "t": 37272.68999999997,
      "d": 757.5749999999971,
      "v": 71
    },
    {
      "midi": 58,
      "hit": false,
      "t": 37272.68999999997,
      "d": 757.5749999999971,
      "v": 69
    },
    {
      "midi": 61,
      "hit": false,
      "t": 37272.68999999997,
      "d": 757.5749999999971,
      "v": 71
    },
    {
      "midi": 63,
      "hit": false,
      "t": 37272.68999999997,
      "d": 757.5749999999971,
      "v": 66
    },
    {
      "midi": 66,
      "hit": false,
      "t": 37272.68999999997,
      "d": 757.5749999999971,
      "v": 65
    },
    {
      "midi": 56,
      "hit": false,
      "t": 38181.77999999997,
      "d": 454.54499999999825,
      "v": 69
    },
    {
      "midi": 58,
      "hit": false,
      "t": 38181.77999999997,
      "d": 454.54499999999825,
      "v": 62
    },
    {
      "midi": 61,
      "hit": false,
      "t": 38181.77999999997,
      "d": 454.54499999999825,
      "v": 67
    },
    {
      "midi": 63,
      "hit": false,
      "t": 38181.77999999997,
      "d": 454.54499999999825,
      "v": 66
    },
    {
      "midi": 68,
      "hit": false,
      "t": 38181.77999999997,
      "d": 454.54499999999825,
      "v": 63
    },
    {
      "midi": 56,
      "hit": false,
      "t": 38787.83999999997,
      "d": 1363.635000000002,
      "v": 66
    },
    {
      "midi": 58,
      "hit": false,
      "t": 38787.83999999997,
      "d": 1363.635000000002,
      "v": 68
    },
    {
      "midi": 61,
      "hit": false,
      "t": 38787.83999999997,
      "d": 1363.635000000002,
      "v": 62
    },
    {
      "midi": 63,
      "hit": false,
      "t": 38787.83999999997,
      "d": 1363.635000000002,
      "v": 62
    },
    {
      "midi": 65,
      "hit": false,
      "t": 38787.83999999997,
      "d": 2575.7549999999974,
      "v": 66
    },
    {
      "midi": 70,
      "hit": false,
      "t": 38787.83999999997,
      "d": 2575.7549999999974,
      "v": 66
    },
    {
      "midi": 56,
      "hit": false,
      "t": 40302.98999999997,
      "d": 1666.6649999999936,
      "v": 68
    },
    {
      "midi": 58,
      "hit": false,
      "t": 40606.01999999997,
      "d": 1363.6349999999948,
      "v": 62
    },
    {
      "midi": 61,
      "hit": false,
      "t": 40909.04999999997,
      "d": 1060.604999999996,
      "v": 63
    },
    {
      "midi": 63,
      "hit": false,
      "t": 41212.079999999965,
      "d": 757.5749999999971,
      "v": 66
    },
    {
      "midi": 65,
      "hit": false,
      "t": 41515.109999999964,
      "d": 757.5749999999971,
      "v": 64
    },
    {
      "midi": 70,
      "hit": false,
      "t": 41818.13999999996,
      "d": 246.21187500000087,
      "v": 66
    },
    {
      "midi": 60,
      "hit": false,
      "t": 42121.16999999996,
      "d": 1363.6349999999948,
      "v": 66
    },
    {
      "midi": 72,
      "hit": false,
      "t": 42121.16999999996,
      "d": 1363.6349999999948,
      "v": 66
    },
    {
      "midi": 63,
      "hit": false,
      "t": 42727.22999999996,
      "d": 757.5749999999971,
      "v": 67
    },
    {
      "midi": 66,
      "hit": false,
      "t": 43030.25999999996,
      "d": 454.54499999999825,
      "v": 62
    },
    {
      "midi": 69,
      "hit": false,
      "t": 43333.28999999996,
      "d": 246.21187500000087,
      "v": 70
    },
    {
      "midi": 58,
      "hit": false,
      "t": 43636.319999999956,
      "d": 1666.6650000000009,
      "v": 64
    },
    {
      "midi": 61,
      "hit": false,
      "t": 43636.319999999956,
      "d": 1666.6650000000009,
      "v": 68
    },
    {
      "midi": 65,
      "hit": false,
      "t": 43636.319999999956,
      "d": 1666.6650000000009,
      "v": 69
    },
    {
      "midi": 68,
      "hit": false,
      "t": 43636.319999999956,
      "d": 1666.6650000000009,
      "v": 65
    },
    {
      "midi": 72,
      "hit": false,
      "t": 43636.319999999956,
      "d": 1666.6650000000009,
      "v": 66
    },
    {
      "midi": 68,
      "hit": false,
      "t": 45454.499999999956,
      "d": 454.54499999999825,
      "v": 68
    },
    {
      "midi": 72,
      "hit": false,
      "t": 45454.499999999956,
      "d": 454.54499999999825,
      "v": 68
    },
    {
      "midi": 58,
      "hit": false,
      "t": 45454.499999999956,
      "d": 2878.784999999996,
      "v": 68
    },
    {
      "midi": 61,
      "hit": false,
      "t": 45454.499999999956,
      "d": 2878.784999999996,
      "v": 66
    },
    {
      "midi": 65,
      "hit": false,
      "t": 45454.499999999956,
      "d": 2878.784999999996,
      "v": 70
    },
    {
      "midi": 70,
      "hit": false,
      "t": 46060.559999999954,
      "d": 1818.1800000000003,
      "v": 70
    },
    {
      "midi": 54,
      "hit": false,
      "t": 46060.559999999954,
      "d": 2272.7249999999985,
      "v": 66
    },
    {
      "midi": 68,
      "hit": false,
      "t": 47575.709999999955,
      "d": 246.21187500000087,
      "v": 63
    },
    {
      "midi": 70,
      "hit": false,
      "t": 47878.739999999954,
      "d": 454.54499999999825,
      "v": 66
    },
    {
      "midi": 58,
      "hit": false,
      "t": 48484.79999999995,
      "d": 2272.7249999999985,
      "v": 68
    },
    {
      "midi": 61,
      "hit": false,
      "t": 48484.79999999995,
      "d": 2272.7249999999985,
      "v": 66
    },
    {
      "midi": 65,
      "hit": false,
      "t": 48484.79999999995,
      "d": 2272.7249999999985,
      "v": 69
    },
    {
      "midi": 68,
      "hit": false,
      "t": 48484.79999999995,
      "d": 2272.7249999999985,
      "v": 66
    },
    {
      "midi": 72,
      "hit": false,
      "t": 48484.79999999995,
      "d": 2272.7249999999985,
      "v": 62
    },
    {
      "midi": 54,
      "hit": false,
      "t": 50909.03999999995,
      "d": 757.5749999999971,
      "v": 70
    },
    {
      "midi": 58,
      "hit": false,
      "t": 50909.03999999995,
      "d": 757.5749999999971,
      "v": 63
    },
    {
      "midi": 61,
      "hit": false,
      "t": 50909.03999999995,
      "d": 757.5749999999971,
      "v": 70
    },
    {
      "midi": 65,
      "hit": false,
      "t": 50909.03999999995,
      "d": 757.5749999999971,
      "v": 71
    },
    {
      "midi": 68,
      "hit": false,
      "t": 50909.03999999995,
      "d": 757.5749999999971,
      "v": 71
    },
    {
      "midi": 54,
      "hit": false,
      "t": 51818.12999999995,
      "d": 1363.635000000002,
      "v": 63
    },
    {
      "midi": 58,
      "hit": false,
      "t": 51818.12999999995,
      "d": 1363.635000000002,
      "v": 66
    },
    {
      "midi": 61,
      "hit": false,
      "t": 51818.12999999995,
      "d": 1363.635000000002,
      "v": 63
    },
    {
      "midi": 65,
      "hit": false,
      "t": 51818.12999999995,
      "d": 1363.635000000002,
      "v": 66
    },
    {
      "midi": 68,
      "hit": false,
      "t": 51818.12999999995,
      "d": 1363.635000000002,
      "v": 70
    },
    {
      "midi": 58,
      "hit": false,
      "t": 53333.27999999995,
      "d": 1666.6650000000009,
      "v": 62
    },
    {
      "midi": 61,
      "hit": false,
      "t": 53333.27999999995,
      "d": 1666.6650000000009,
      "v": 66
    },
    {
      "midi": 65,
      "hit": false,
      "t": 53333.27999999995,
      "d": 1666.6650000000009,
      "v": 62
    },
    {
      "midi": 68,
      "hit": false,
      "t": 53333.27999999995,
      "d": 1666.6650000000009,
      "v": 63
    },
    {
      "midi": 72,
      "hit": false,
      "t": 53333.27999999995,
      "d": 1666.6650000000009,
      "v": 63
    },
    {
      "midi": 58,
      "hit": false,
      "t": 55151.45999999995,
      "d": 454.54499999999825,
      "v": 65
    },
    {
      "midi": 61,
      "hit": false,
      "t": 55151.45999999995,
      "d": 454.54499999999825,
      "v": 66
    },
    {
      "midi": 65,
      "hit": false,
      "t": 55151.45999999995,
      "d": 454.54499999999825,
      "v": 67
    },
    {
      "midi": 68,
      "hit": false,
      "t": 55151.45999999995,
      "d": 454.54499999999825,
      "v": 63
    },
    {
      "midi": 72,
      "hit": false,
      "t": 55151.45999999995,
      "d": 454.54499999999825,
      "v": 62
    },
    {
      "midi": 54,
      "hit": false,
      "t": 55757.519999999946,
      "d": 757.5749999999971,
      "v": 71
    },
    {
      "midi": 58,
      "hit": false,
      "t": 55757.519999999946,
      "d": 757.5749999999971,
      "v": 65
    },
    {
      "midi": 61,
      "hit": false,
      "t": 55757.519999999946,
      "d": 757.5749999999971,
      "v": 64
    },
    {
      "midi": 65,
      "hit": false,
      "t": 55757.519999999946,
      "d": 757.5749999999971,
      "v": 70
    },
    {
      "midi": 68,
      "hit": false,
      "t": 55757.519999999946,
      "d": 757.5749999999971,
      "v": 62
    },
    {
      "midi": 54,
      "hit": false,
      "t": 56666.60999999994,
      "d": 757.5749999999971,
      "v": 63
    },
    {
      "midi": 58,
      "hit": false,
      "t": 56666.60999999994,
      "d": 757.5749999999971,
      "v": 68
    },
    {
      "midi": 61,
      "hit": false,
      "t": 56666.60999999994,
      "d": 757.5749999999971,
      "v": 71
    },
    {
      "midi": 65,
      "hit": false,
      "t": 56666.60999999994,
      "d": 757.5749999999971,
      "v": 66
    },
    {
      "midi": 68,
      "hit": false,
      "t": 56666.60999999994,
      "d": 757.5749999999971,
      "v": 64
    },
    {
      "midi": 54,
      "hit": false,
      "t": 57575.69999999994,
      "d": 454.54499999999825,
      "v": 65
    },
    {
      "midi": 58,
      "hit": false,
      "t": 57575.69999999994,
      "d": 454.54499999999825,
      "v": 64
    },
    {
      "midi": 61,
      "hit": false,
      "t": 57575.69999999994,
      "d": 454.54499999999825,
      "v": 71
    },
    {
      "midi": 65,
      "hit": false,
      "t": 57575.69999999994,
      "d": 454.54499999999825,
      "v": 71
    },
    {
      "midi": 68,
      "hit": false,
      "t": 57575.69999999994,
      "d": 454.54499999999825,
      "v": 69
    },
    {
      "midi": 58,
      "hit": false,
      "t": 58181.75999999994,
      "d": 2272.7249999999985,
      "v": 68
    },
    {
      "midi": 61,
      "hit": false,
      "t": 58181.75999999994,
      "d": 2272.7249999999985,
      "v": 67
    },
    {
      "midi": 65,
      "hit": false,
      "t": 58181.75999999994,
      "d": 2272.7249999999985,
      "v": 64
    },
    {
      "midi": 68,
      "hit": false,
      "t": 58181.75999999994,
      "d": 2272.7249999999985,
      "v": 64
    },
    {
      "midi": 72,
      "hit": false,
      "t": 58181.75999999994,
      "d": 2272.7249999999985,
      "v": 68
    },
    {
      "midi": 54,
      "hit": false,
      "t": 60605.999999999935,
      "d": 757.5749999999971,
      "v": 62
    },
    {
      "midi": 58,
      "hit": false,
      "t": 60605.999999999935,
      "d": 757.5749999999971,
      "v": 63
    },
    {
      "midi": 61,
      "hit": false,
      "t": 60605.999999999935,
      "d": 757.5749999999971,
      "v": 70
    },
    {
      "midi": 65,
      "hit": false,
      "t": 60605.999999999935,
      "d": 757.5749999999971,
      "v": 62
    },
    {
      "midi": 68,
      "hit": false,
      "t": 60605.999999999935,
      "d": 757.5749999999971,
      "v": 65
    },
    {
      "midi": 54,
      "hit": false,
      "t": 61515.08999999993,
      "d": 757.5749999999971,
      "v": 67
    },
    {
      "midi": 58,
      "hit": false,
      "t": 61515.08999999993,
      "d": 757.5749999999971,
      "v": 65
    },
    {
      "midi": 61,
      "hit": false,
      "t": 61515.08999999993,
      "d": 757.5749999999971,
      "v": 63
    },
    {
      "midi": 65,
      "hit": false,
      "t": 61515.08999999993,
      "d": 757.5749999999971,
      "v": 71
    },
    {
      "midi": 68,
      "hit": false,
      "t": 61515.08999999993,
      "d": 757.5749999999971,
      "v": 68
    },
    {
      "midi": 54,
      "hit": false,
      "t": 62424.17999999993,
      "d": 454.54499999999825,
      "v": 70
    },
    {
      "midi": 58,
      "hit": false,
      "t": 62424.17999999993,
      "d": 454.54499999999825,
      "v": 63
    },
    {
      "midi": 61,
      "hit": false,
      "t": 62424.17999999993,
      "d": 454.54499999999825,
      "v": 70
    },
    {
      "midi": 65,
      "hit": false,
      "t": 62424.17999999993,
      "d": 454.54499999999825,
      "v": 62
    },
    {
      "midi": 68,
      "hit": false,
      "t": 62424.17999999993,
      "d": 454.54499999999825,
      "v": 69
    },
    {
      "midi": 58,
      "hit": false,
      "t": 63030.239999999925,
      "d": 1666.6650000000009,
      "v": 63
    },
    {
      "midi": 61,
      "hit": false,
      "t": 63030.239999999925,
      "d": 1666.6650000000009,
      "v": 65
    },
    {
      "midi": 65,
      "hit": false,
      "t": 63030.239999999925,
      "d": 1666.6650000000009,
      "v": 71
    },
    {
      "midi": 68,
      "hit": false,
      "t": 63030.239999999925,
      "d": 1666.6650000000009,
      "v": 67
    },
    {
      "midi": 72,
      "hit": false,
      "t": 63030.239999999925,
      "d": 1666.6650000000009,
      "v": 66
    },
    {
      "midi": 72,
      "hit": false,
      "t": 64848.419999999925,
      "d": 454.54499999999825,
      "v": 62
    },
    {
      "midi": 58,
      "hit": false,
      "t": 64848.419999999925,
      "d": 1363.6349999999948,
      "v": 70
    },
    {
      "midi": 61,
      "hit": false,
      "t": 64848.419999999925,
      "d": 1363.6349999999948,
      "v": 70
    },
    {
      "midi": 65,
      "hit": false,
      "t": 64848.419999999925,
      "d": 1363.6349999999948,
      "v": 70
    },
    {
      "midi": 68,
      "hit": false,
      "t": 64848.419999999925,
      "d": 1363.6349999999948,
      "v": 63
    },
    {
      "midi": 54,
      "hit": false,
      "t": 65454.47999999992,
      "d": 757.5749999999971,
      "v": 64
    },
    {
      "midi": 54,
      "hit": false,
      "t": 66363.56999999992,
      "d": 1363.6349999999948,
      "v": 63
    },
    {
      "midi": 58,
      "hit": false,
      "t": 66363.56999999992,
      "d": 1363.6349999999948,
      "v": 66
    },
    {
      "midi": 61,
      "hit": false,
      "t": 66363.56999999992,
      "d": 1363.6349999999948,
      "v": 63
    },
    {
      "midi": 65,
      "hit": false,
      "t": 66363.56999999992,
      "d": 1363.6349999999948,
      "v": 69
    },
    {
      "midi": 68,
      "hit": false,
      "t": 66363.56999999992,
      "d": 1363.6349999999948,
      "v": 63
    },
    {
      "midi": 58,
      "hit": false,
      "t": 67878.71999999991,
      "d": 2272.725000000006,
      "v": 71
    },
    {
      "midi": 61,
      "hit": false,
      "t": 67878.71999999991,
      "d": 2272.725000000006,
      "v": 67
    },
    {
      "midi": 65,
      "hit": false,
      "t": 67878.71999999991,
      "d": 2272.725000000006,
      "v": 70
    },
    {
      "midi": 68,
      "hit": false,
      "t": 67878.71999999991,
      "d": 2272.725000000006,
      "v": 66
    },
    {
      "midi": 72,
      "hit": false,
      "t": 67878.71999999991,
      "d": 2272.725000000006,
      "v": 67
    },
    {
      "midi": 54,
      "hit": false,
      "t": 70302.95999999992,
      "d": 757.5749999999971,
      "v": 69
    },
    {
      "midi": 58,
      "hit": false,
      "t": 70302.95999999992,
      "d": 757.5749999999971,
      "v": 63
    },
    {
      "midi": 61,
      "hit": false,
      "t": 70302.95999999992,
      "d": 757.5749999999971,
      "v": 65
    },
    {
      "midi": 65,
      "hit": false,
      "t": 70302.95999999992,
      "d": 757.5749999999971,
      "v": 69
    },
    {
      "midi": 68,
      "hit": false,
      "t": 70302.95999999992,
      "d": 757.5749999999971,
      "v": 69
    },
    {
      "midi": 54,
      "hit": false,
      "t": 71212.04999999992,
      "d": 1363.6349999999948,
      "v": 64
    },
    {
      "midi": 58,
      "hit": false,
      "t": 71212.04999999992,
      "d": 1363.6349999999948,
      "v": 65
    },
    {
      "midi": 61,
      "hit": false,
      "t": 71212.04999999992,
      "d": 1363.6349999999948,
      "v": 62
    },
    {
      "midi": 65,
      "hit": false,
      "t": 71212.04999999992,
      "d": 1363.6349999999948,
      "v": 63
    },
    {
      "midi": 68,
      "hit": false,
      "t": 71212.04999999992,
      "d": 1363.6349999999948,
      "v": 66
    },
    {
      "midi": 58,
      "hit": false,
      "t": 72727.19999999991,
      "d": 1666.6649999999936,
      "v": 71
    },
    {
      "midi": 61,
      "hit": false,
      "t": 72727.19999999991,
      "d": 1666.6649999999936,
      "v": 62
    },
    {
      "midi": 65,
      "hit": false,
      "t": 72727.19999999991,
      "d": 1666.6649999999936,
      "v": 64
    },
    {
      "midi": 68,
      "hit": false,
      "t": 72727.19999999991,
      "d": 1666.6649999999936,
      "v": 71
    },
    {
      "midi": 72,
      "hit": false,
      "t": 72727.19999999991,
      "d": 1666.6649999999936,
      "v": 71
    },
    {
      "midi": 72,
      "hit": false,
      "t": 74545.3799999999,
      "d": 454.54499999999825,
      "v": 63
    },
    {
      "midi": 68,
      "hit": false,
      "t": 74545.3799999999,
      "d": 1363.6349999999948,
      "v": 70
    },
    {
      "midi": 58,
      "hit": false,
      "t": 74545.3799999999,
      "d": 2272.7249999999913,
      "v": 68
    },
    {
      "midi": 61,
      "hit": false,
      "t": 74545.3799999999,
      "d": 2272.7249999999913,
      "v": 66
    },
    {
      "midi": 65,
      "hit": false,
      "t": 74545.3799999999,
      "d": 2272.7249999999913,
      "v": 63
    },
    {
      "midi": 54,
      "hit": false,
      "t": 75151.4399999999,
      "d": 757.5749999999971,
      "v": 66
    },
    {
      "midi": 54,
      "hit": false,
      "t": 76060.5299999999,
      "d": 757.5749999999971,
      "v": 65
    },
    {
      "midi": 68,
      "hit": false,
      "t": 76060.5299999999,
      "d": 757.5749999999971,
      "v": 69
    },
    {
      "midi": 54,
      "hit": false,
      "t": 76969.6199999999,
      "d": 454.54499999999825,
      "v": 65
    },
    {
      "midi": 58,
      "hit": false,
      "t": 76969.6199999999,
      "d": 454.54499999999825,
      "v": 70
    },
    {
      "midi": 61,
      "hit": false,
      "t": 76969.6199999999,
      "d": 454.54499999999825,
      "v": 65
    },
    {
      "midi": 65,
      "hit": false,
      "t": 76969.6199999999,
      "d": 454.54499999999825,
      "v": 70
    },
    {
      "midi": 68,
      "hit": false,
      "t": 76969.6199999999,
      "d": 454.54499999999825,
      "v": 62
    },
    {
      "midi": 54,
      "hit": false,
      "t": 77575.67999999989,
      "d": 1666.6649999999936,
      "v": 70
    },
    {
      "midi": 58,
      "hit": false,
      "t": 77575.67999999989,
      "d": 1666.6649999999936,
      "v": 63
    },
    {
      "midi": 61,
      "hit": false,
      "t": 77575.67999999989,
      "d": 1666.6649999999936,
      "v": 68
    },
    {
      "midi": 63,
      "hit": false,
      "t": 77575.67999999989,
      "d": 1666.6649999999936,
      "v": 68
    },
    {
      "midi": 65,
      "hit": false,
      "t": 77575.67999999989,
      "d": 1666.6649999999936,
      "v": 70
    },
    {
      "midi": 54,
      "hit": false,
      "t": 79393.85999999988,
      "d": 1060.604999999996,
      "v": 66
    },
    {
      "midi": 58,
      "hit": false,
      "t": 79393.85999999988,
      "d": 1060.604999999996,
      "v": 63
    },
    {
      "midi": 61,
      "hit": false,
      "t": 79393.85999999988,
      "d": 1060.604999999996,
      "v": 67
    },
    {
      "midi": 63,
      "hit": false,
      "t": 79393.85999999988,
      "d": 1060.604999999996,
      "v": 68
    },
    {
      "midi": 65,
      "hit": false,
      "t": 79393.85999999988,
      "d": 1060.604999999996,
      "v": 68
    },
    {
      "midi": 60,
      "hit": false,
      "t": 80909.00999999988,
      "d": 1363.6349999999948,
      "v": 69
    },
    {
      "midi": 63,
      "hit": false,
      "t": 80909.00999999988,
      "d": 1363.6349999999948,
      "v": 66
    },
    {
      "midi": 66,
      "hit": false,
      "t": 80909.00999999988,
      "d": 1363.6349999999948,
      "v": 69
    },
    {
      "midi": 69,
      "hit": false,
      "t": 80909.00999999988,
      "d": 1363.6349999999948,
      "v": 65
    },
    {
      "midi": 58,
      "hit": false,
      "t": 82424.15999999987,
      "d": 1666.6649999999936,
      "v": 68
    },
    {
      "midi": 61,
      "hit": false,
      "t": 82424.15999999987,
      "d": 1666.6649999999936,
      "v": 67
    },
    {
      "midi": 65,
      "hit": false,
      "t": 82424.15999999987,
      "d": 1666.6649999999936,
      "v": 62
    },
    {
      "midi": 68,
      "hit": false,
      "t": 82424.15999999987,
      "d": 1666.6649999999936,
      "v": 64
    },
    {
      "midi": 72,
      "hit": false,
      "t": 82424.15999999987,
      "d": 1666.6649999999936,
      "v": 64
    },
    {
      "midi": 58,
      "hit": false,
      "t": 84242.33999999987,
      "d": 454.54499999999825,
      "v": 70
    },
    {
      "midi": 61,
      "hit": false,
      "t": 84242.33999999987,
      "d": 454.54499999999825,
      "v": 62
    },
    {
      "midi": 65,
      "hit": false,
      "t": 84242.33999999987,
      "d": 454.54499999999825,
      "v": 67
    },
    {
      "midi": 68,
      "hit": false,
      "t": 84242.33999999987,
      "d": 454.54499999999825,
      "v": 62
    },
    {
      "midi": 72,
      "hit": false,
      "t": 84242.33999999987,
      "d": 454.54499999999825,
      "v": 66
    },
    {
      "midi": 54,
      "hit": false,
      "t": 84848.39999999986,
      "d": 757.5749999999971,
      "v": 69
    },
    {
      "midi": 58,
      "hit": false,
      "t": 84848.39999999986,
      "d": 757.5749999999971,
      "v": 71
    },
    {
      "midi": 61,
      "hit": false,
      "t": 84848.39999999986,
      "d": 757.5749999999971,
      "v": 64
    },
    {
      "midi": 65,
      "hit": false,
      "t": 84848.39999999986,
      "d": 757.5749999999971,
      "v": 67
    },
    {
      "midi": 68,
      "hit": false,
      "t": 84848.39999999986,
      "d": 757.5749999999971,
      "v": 65
    },
    {
      "midi": 54,
      "hit": false,
      "t": 85757.48999999986,
      "d": 757.5749999999971,
      "v": 63
    },
    {
      "midi": 58,
      "hit": false,
      "t": 85757.48999999986,
      "d": 757.5749999999971,
      "v": 64
    },
    {
      "midi": 61,
      "hit": false,
      "t": 85757.48999999986,
      "d": 757.5749999999971,
      "v": 65
    },
    {
      "midi": 65,
      "hit": false,
      "t": 85757.48999999986,
      "d": 757.5749999999971,
      "v": 65
    },
    {
      "midi": 68,
      "hit": false,
      "t": 85757.48999999986,
      "d": 757.5749999999971,
      "v": 70
    },
    {
      "midi": 54,
      "hit": false,
      "t": 86666.57999999986,
      "d": 454.54499999999825,
      "v": 62
    },
    {
      "midi": 58,
      "hit": false,
      "t": 86666.57999999986,
      "d": 454.54499999999825,
      "v": 64
    },
    {
      "midi": 61,
      "hit": false,
      "t": 86666.57999999986,
      "d": 454.54499999999825,
      "v": 67
    },
    {
      "midi": 65,
      "hit": false,
      "t": 86666.57999999986,
      "d": 454.54499999999825,
      "v": 65
    },
    {
      "midi": 68,
      "hit": false,
      "t": 86666.57999999986,
      "d": 454.54499999999825,
      "v": 66
    },
    {
      "midi": 58,
      "hit": false,
      "t": 87272.63999999985,
      "d": 1666.6649999999936,
      "v": 65
    },
    {
      "midi": 61,
      "hit": false,
      "t": 87272.63999999985,
      "d": 1666.6649999999936,
      "v": 68
    },
    {
      "midi": 65,
      "hit": false,
      "t": 87272.63999999985,
      "d": 1666.6649999999936,
      "v": 70
    },
    {
      "midi": 68,
      "hit": false,
      "t": 87272.63999999985,
      "d": 1666.6649999999936,
      "v": 70
    },
    {
      "midi": 72,
      "hit": false,
      "t": 87272.63999999985,
      "d": 1666.6649999999936,
      "v": 71
    },
    {
      "midi": 58,
      "hit": false,
      "t": 89090.81999999985,
      "d": 454.54499999999825,
      "v": 70
    },
    {
      "midi": 61,
      "hit": false,
      "t": 89090.81999999985,
      "d": 454.54499999999825,
      "v": 67
    },
    {
      "midi": 65,
      "hit": false,
      "t": 89090.81999999985,
      "d": 454.54499999999825,
      "v": 70
    },
    {
      "midi": 68,
      "hit": false,
      "t": 89090.81999999985,
      "d": 454.54499999999825,
      "v": 62
    },
    {
      "midi": 72,
      "hit": false,
      "t": 89090.81999999985,
      "d": 454.54499999999825,
      "v": 62
    },
    {
      "midi": 54,
      "hit": false,
      "t": 89696.87999999984,
      "d": 757.5749999999971,
      "v": 65
    },
    {
      "midi": 58,
      "hit": false,
      "t": 89696.87999999984,
      "d": 757.5749999999971,
      "v": 71
    },
    {
      "midi": 61,
      "hit": false,
      "t": 89696.87999999984,
      "d": 757.5749999999971,
      "v": 67
    },
    {
      "midi": 65,
      "hit": false,
      "t": 89696.87999999984,
      "d": 757.5749999999971,
      "v": 64
    },
    {
      "midi": 68,
      "hit": false,
      "t": 89696.87999999984,
      "d": 757.5749999999971,
      "v": 66
    },
    {
      "midi": 54,
      "hit": false,
      "t": 90605.96999999984,
      "d": 757.5749999999971,
      "v": 69
    },
    {
      "midi": 58,
      "hit": false,
      "t": 90605.96999999984,
      "d": 757.5749999999971,
      "v": 68
    },
    {
      "midi": 61,
      "hit": false,
      "t": 90605.96999999984,
      "d": 757.5749999999971,
      "v": 68
    },
    {
      "midi": 65,
      "hit": false,
      "t": 90605.96999999984,
      "d": 757.5749999999971,
      "v": 69
    },
    {
      "midi": 68,
      "hit": false,
      "t": 90605.96999999984,
      "d": 757.5749999999971,
      "v": 64
    },
    {
      "midi": 54,
      "hit": false,
      "t": 91515.05999999984,
      "d": 454.54499999999825,
      "v": 64
    },
    {
      "midi": 58,
      "hit": false,
      "t": 91515.05999999984,
      "d": 454.54499999999825,
      "v": 64
    },
    {
      "midi": 61,
      "hit": false,
      "t": 91515.05999999984,
      "d": 454.54499999999825,
      "v": 68
    },
    {
      "midi": 65,
      "hit": false,
      "t": 91515.05999999984,
      "d": 454.54499999999825,
      "v": 63
    },
    {
      "midi": 68,
      "hit": false,
      "t": 91515.05999999984,
      "d": 454.54499999999825,
      "v": 67
    },
    {
      "midi": 58,
      "hit": false,
      "t": 92121.11999999984,
      "d": 1666.6649999999936,
      "v": 65
    },
    {
      "midi": 61,
      "hit": false,
      "t": 92121.11999999984,
      "d": 1666.6649999999936,
      "v": 62
    },
    {
      "midi": 65,
      "hit": false,
      "t": 92121.11999999984,
      "d": 1666.6649999999936,
      "v": 67
    },
    {
      "midi": 68,
      "hit": false,
      "t": 92121.11999999984,
      "d": 1666.6649999999936,
      "v": 66
    },
    {
      "midi": 72,
      "hit": false,
      "t": 92121.11999999984,
      "d": 1666.6649999999936,
      "v": 63
    },
    {
      "midi": 58,
      "hit": false,
      "t": 93939.29999999983,
      "d": 454.54499999999825,
      "v": 67
    },
    {
      "midi": 61,
      "hit": false,
      "t": 93939.29999999983,
      "d": 454.54499999999825,
      "v": 65
    },
    {
      "midi": 65,
      "hit": false,
      "t": 93939.29999999983,
      "d": 454.54499999999825,
      "v": 67
    },
    {
      "midi": 68,
      "hit": false,
      "t": 93939.29999999983,
      "d": 454.54499999999825,
      "v": 71
    },
    {
      "midi": 72,
      "hit": false,
      "t": 93939.29999999983,
      "d": 454.54499999999825,
      "v": 64
    },
    {
      "midi": 54,
      "hit": false,
      "t": 94545.35999999983,
      "d": 757.5749999999971,
      "v": 71
    },
    {
      "midi": 58,
      "hit": false,
      "t": 94545.35999999983,
      "d": 757.5749999999971,
      "v": 71
    },
    {
      "midi": 61,
      "hit": false,
      "t": 94545.35999999983,
      "d": 757.5749999999971,
      "v": 68
    },
    {
      "midi": 65,
      "hit": false,
      "t": 94545.35999999983,
      "d": 757.5749999999971,
      "v": 63
    },
    {
      "midi": 68,
      "hit": false,
      "t": 94545.35999999983,
      "d": 757.5749999999971,
      "v": 68
    },
    {
      "midi": 54,
      "hit": false,
      "t": 95454.44999999982,
      "d": 757.5749999999971,
      "v": 65
    },
    {
      "midi": 58,
      "hit": false,
      "t": 95454.44999999982,
      "d": 757.5749999999971,
      "v": 67
    },
    {
      "midi": 61,
      "hit": false,
      "t": 95454.44999999982,
      "d": 757.5749999999971,
      "v": 64
    },
    {
      "midi": 65,
      "hit": false,
      "t": 95454.44999999982,
      "d": 757.5749999999971,
      "v": 70
    },
    {
      "midi": 68,
      "hit": false,
      "t": 95454.44999999982,
      "d": 757.5749999999971,
      "v": 65
    },
    {
      "midi": 54,
      "hit": false,
      "t": 96363.53999999982,
      "d": 454.54499999999825,
      "v": 65
    },
    {
      "midi": 58,
      "hit": false,
      "t": 96363.53999999982,
      "d": 454.54499999999825,
      "v": 63
    },
    {
      "midi": 61,
      "hit": false,
      "t": 96363.53999999982,
      "d": 454.54499999999825,
      "v": 66
    },
    {
      "midi": 65,
      "hit": false,
      "t": 96363.53999999982,
      "d": 454.54499999999825,
      "v": 65
    },
    {
      "midi": 68,
      "hit": false,
      "t": 96363.53999999982,
      "d": 454.54499999999825,
      "v": 65
    },
    {
      "midi": 58,
      "hit": false,
      "t": 96969.59999999982,
      "d": 1666.6649999999936,
      "v": 70
    },
    {
      "midi": 61,
      "hit": false,
      "t": 96969.59999999982,
      "d": 1666.6649999999936,
      "v": 71
    },
    {
      "midi": 65,
      "hit": false,
      "t": 96969.59999999982,
      "d": 1666.6649999999936,
      "v": 71
    },
    {
      "midi": 68,
      "hit": false,
      "t": 96969.59999999982,
      "d": 1666.6649999999936,
      "v": 64
    },
    {
      "midi": 72,
      "hit": false,
      "t": 96969.59999999982,
      "d": 1666.6649999999936,
      "v": 71
    },
    {
      "midi": 58,
      "hit": false,
      "t": 98787.77999999981,
      "d": 454.54499999999825,
      "v": 65
    },
    {
      "midi": 61,
      "hit": false,
      "t": 98787.77999999981,
      "d": 454.54499999999825,
      "v": 65
    },
    {
      "midi": 65,
      "hit": false,
      "t": 98787.77999999981,
      "d": 454.54499999999825,
      "v": 63
    },
    {
      "midi": 68,
      "hit": false,
      "t": 98787.77999999981,
      "d": 454.54499999999825,
      "v": 66
    },
    {
      "midi": 72,
      "hit": false,
      "t": 98787.77999999981,
      "d": 454.54499999999825,
      "v": 67
    },
    {
      "midi": 54,
      "hit": false,
      "t": 99393.83999999981,
      "d": 757.5749999999971,
      "v": 69
    },
    {
      "midi": 58,
      "hit": false,
      "t": 99393.83999999981,
      "d": 757.5749999999971,
      "v": 70
    },
    {
      "midi": 61,
      "hit": false,
      "t": 99393.83999999981,
      "d": 757.5749999999971,
      "v": 71
    },
    {
      "midi": 65,
      "hit": false,
      "t": 99393.83999999981,
      "d": 757.5749999999971,
      "v": 65
    },
    {
      "midi": 68,
      "hit": false,
      "t": 99393.83999999981,
      "d": 757.5749999999971,
      "v": 64
    },
    {
      "midi": 54,
      "hit": false,
      "t": 100302.9299999998,
      "d": 757.5749999999971,
      "v": 62
    },
    {
      "midi": 58,
      "hit": false,
      "t": 100302.9299999998,
      "d": 757.5749999999971,
      "v": 71
    },
    {
      "midi": 61,
      "hit": false,
      "t": 100302.9299999998,
      "d": 757.5749999999971,
      "v": 68
    },
    {
      "midi": 65,
      "hit": false,
      "t": 100302.9299999998,
      "d": 757.5749999999971,
      "v": 69
    },
    {
      "midi": 68,
      "hit": false,
      "t": 100302.9299999998,
      "d": 757.5749999999971,
      "v": 67
    },
    {
      "midi": 54,
      "hit": false,
      "t": 101212.0199999998,
      "d": 454.54499999999825,
      "v": 65
    },
    {
      "midi": 58,
      "hit": false,
      "t": 101212.0199999998,
      "d": 454.54499999999825,
      "v": 63
    },
    {
      "midi": 61,
      "hit": false,
      "t": 101212.0199999998,
      "d": 454.54499999999825,
      "v": 71
    },
    {
      "midi": 65,
      "hit": false,
      "t": 101212.0199999998,
      "d": 454.54499999999825,
      "v": 67
    },
    {
      "midi": 68,
      "hit": false,
      "t": 101212.0199999998,
      "d": 454.54499999999825,
      "v": 66
    },
    {
      "midi": 56,
      "hit": false,
      "t": 101818.0799999998,
      "d": 1363.6349999999948,
      "v": 67
    },
    {
      "midi": 58,
      "hit": false,
      "t": 101818.0799999998,
      "d": 1363.6349999999948,
      "v": 69
    },
    {
      "midi": 61,
      "hit": false,
      "t": 101818.0799999998,
      "d": 1363.6349999999948,
      "v": 71
    },
    {
      "midi": 63,
      "hit": false,
      "t": 101818.0799999998,
      "d": 1363.6349999999948,
      "v": 67
    },
    {
      "midi": 65,
      "hit": false,
      "t": 101818.0799999998,
      "d": 2272.7249999999913,
      "v": 63
    },
    {
      "midi": 56,
      "hit": false,
      "t": 103333.22999999979,
      "d": 909.0899999999965,
      "v": 65
    },
    {
      "midi": 58,
      "hit": false,
      "t": 103636.25999999979,
      "d": 1363.6349999999948,
      "v": 68
    },
    {
      "midi": 61,
      "hit": false,
      "t": 103939.28999999979,
      "d": 1060.604999999996,
      "v": 67
    },
    {
      "midi": 56,
      "hit": false,
      "t": 104242.31999999979,
      "d": 757.5749999999971,
      "v": 71
    },
    {
      "midi": 63,
      "hit": false,
      "t": 104242.31999999979,
      "d": 757.5749999999971,
      "v": 71
    },
    {
      "midi": 65,
      "hit": false,
      "t": 104242.31999999979,
      "d": 757.5749999999971,
      "v": 62
    },
    {
      "midi": 56,
      "hit": false,
      "t": 105151.40999999979,
      "d": 757.5749999999971,
      "v": 69
    },
    {
      "midi": 58,
      "hit": false,
      "t": 105151.40999999979,
      "d": 757.5749999999971,
      "v": 70
    },
    {
      "midi": 61,
      "hit": false,
      "t": 105151.40999999979,
      "d": 757.5749999999971,
      "v": 62
    },
    {
      "midi": 63,
      "hit": false,
      "t": 105151.40999999979,
      "d": 757.5749999999971,
      "v": 63
    },
    {
      "midi": 66,
      "hit": false,
      "t": 105151.40999999979,
      "d": 757.5749999999971,
      "v": 69
    },
    {
      "midi": 56,
      "hit": false,
      "t": 106060.49999999978,
      "d": 454.54499999999825,
      "v": 63
    },
    {
      "midi": 58,
      "hit": false,
      "t": 106060.49999999978,
      "d": 454.54499999999825,
      "v": 71
    },
    {
      "midi": 61,
      "hit": false,
      "t": 106060.49999999978,
      "d": 454.54499999999825,
      "v": 62
    },
    {
      "midi": 63,
      "hit": false,
      "t": 106060.49999999978,
      "d": 454.54499999999825,
      "v": 63
    },
    {
      "midi": 68,
      "hit": false,
      "t": 106060.49999999978,
      "d": 454.54499999999825,
      "v": 62
    },
    {
      "midi": 56,
      "hit": false,
      "t": 106666.55999999978,
      "d": 1363.6349999999948,
      "v": 69
    },
    {
      "midi": 58,
      "hit": false,
      "t": 106666.55999999978,
      "d": 1363.6349999999948,
      "v": 65
    },
    {
      "midi": 61,
      "hit": false,
      "t": 106666.55999999978,
      "d": 1363.6349999999948,
      "v": 63
    },
    {
      "midi": 63,
      "hit": false,
      "t": 106666.55999999978,
      "d": 1363.6349999999948,
      "v": 70
    },
    {
      "midi": 65,
      "hit": false,
      "t": 106666.55999999978,
      "d": 2575.75499999999,
      "v": 63
    },
    {
      "midi": 70,
      "hit": false,
      "t": 106666.55999999978,
      "d": 2575.75499999999,
      "v": 65
    },
    {
      "midi": 56,
      "hit": false,
      "t": 108181.70999999977,
      "d": 1666.6649999999936,
      "v": 65
    },
    {
      "midi": 58,
      "hit": false,
      "t": 108484.73999999977,
      "d": 1363.6349999999948,
      "v": 62
    },
    {
      "midi": 61,
      "hit": false,
      "t": 108787.76999999977,
      "d": 1060.604999999996,
      "v": 66
    },
    {
      "midi": 63,
      "hit": false,
      "t": 109090.79999999977,
      "d": 757.5749999999971,
      "v": 71
    },
    {
      "midi": 65,
      "hit": false,
      "t": 109393.82999999977,
      "d": 757.5749999999971,
      "v": 62
    },
    {
      "midi": 70,
      "hit": false,
      "t": 109696.85999999977,
      "d": 246.2118749999936,
      "v": 70
    },
    {
      "midi": 60,
      "hit": false,
      "t": 109999.88999999977,
      "d": 1363.6349999999948,
      "v": 67
    },
    {
      "midi": 72,
      "hit": false,
      "t": 109999.88999999977,
      "d": 1363.6349999999948,
      "v": 68
    },
    {
      "midi": 63,
      "hit": false,
      "t": 110605.94999999976,
      "d": 757.5749999999971,
      "v": 68
    },
    {
      "midi": 66,
      "hit": false,
      "t": 110908.97999999976,
      "d": 454.54499999999825,
      "v": 62
    },
    {
      "midi": 69,
      "hit": false,
      "t": 111212.00999999976,
      "d": 246.2118749999936,
      "v": 64
    },
    {
      "midi": 58,
      "hit": false,
      "t": 111515.03999999976,
      "d": 1666.6649999999936,
      "v": 65
    },
    {
      "midi": 61,
      "hit": false,
      "t": 111515.03999999976,
      "d": 1666.6649999999936,
      "v": 67
    },
    {
      "midi": 65,
      "hit": false,
      "t": 111515.03999999976,
      "d": 1666.6649999999936,
      "v": 71
    },
    {
      "midi": 68,
      "hit": false,
      "t": 111515.03999999976,
      "d": 1666.6649999999936,
      "v": 63
    },
    {
      "midi": 72,
      "hit": false,
      "t": 111515.03999999976,
      "d": 1666.6649999999936,
      "v": 66
    },
    {
      "midi": 68,
      "hit": false,
      "t": 113333.21999999975,
      "d": 454.54499999999825,
      "v": 65
    },
    {
      "midi": 72,
      "hit": false,
      "t": 113333.21999999975,
      "d": 454.54499999999825,
      "v": 63
    },
    {
      "midi": 58,
      "hit": false,
      "t": 113333.21999999975,
      "d": 2878.784999999989,
      "v": 67
    },
    {
      "midi": 61,
      "hit": false,
      "t": 113333.21999999975,
      "d": 2878.784999999989,
      "v": 70
    },
    {
      "midi": 65,
      "hit": false,
      "t": 113333.21999999975,
      "d": 2878.784999999989,
      "v": 67
    },
    {
      "midi": 70,
      "hit": false,
      "t": 113939.27999999975,
      "d": 1818.179999999993,
      "v": 67
    },
    {
      "midi": 54,
      "hit": false,
      "t": 113939.27999999975,
      "d": 2272.7249999999913,
      "v": 70
    },
    {
      "midi": 68,
      "hit": false,
      "t": 115454.42999999975,
      "d": 246.2118749999936,
      "v": 71
    },
    {
      "midi": 70,
      "hit": false,
      "t": 115757.45999999974,
      "d": 454.54499999999825,
      "v": 68
    },
    {
      "midi": 58,
      "hit": false,
      "t": 116363.51999999974,
      "d": 2272.725000000006,
      "v": 68
    },
    {
      "midi": 61,
      "hit": false,
      "t": 116363.51999999974,
      "d": 2272.725000000006,
      "v": 64
    },
    {
      "midi": 65,
      "hit": false,
      "t": 116363.51999999974,
      "d": 2272.725000000006,
      "v": 71
    },
    {
      "midi": 68,
      "hit": false,
      "t": 116363.51999999974,
      "d": 2272.725000000006,
      "v": 69
    },
    {
      "midi": 72,
      "hit": false,
      "t": 116363.51999999974,
      "d": 2272.725000000006,
      "v": 62
    },
    {
      "midi": 54,
      "hit": false,
      "t": 118787.75999999975,
      "d": 757.5749999999971,
      "v": 69
    },
    {
      "midi": 58,
      "hit": false,
      "t": 118787.75999999975,
      "d": 757.5749999999971,
      "v": 71
    },
    {
      "midi": 61,
      "hit": false,
      "t": 118787.75999999975,
      "d": 757.5749999999971,
      "v": 68
    },
    {
      "midi": 65,
      "hit": false,
      "t": 118787.75999999975,
      "d": 757.5749999999971,
      "v": 69
    },
    {
      "midi": 68,
      "hit": false,
      "t": 118787.75999999975,
      "d": 757.5749999999971,
      "v": 65
    },
    {
      "midi": 54,
      "hit": false,
      "t": 119696.84999999974,
      "d": 1363.6349999999948,
      "v": 62
    },
    {
      "midi": 58,
      "hit": false,
      "t": 119696.84999999974,
      "d": 1363.6349999999948,
      "v": 71
    },
    {
      "midi": 61,
      "hit": false,
      "t": 119696.84999999974,
      "d": 1363.6349999999948,
      "v": 70
    },
    {
      "midi": 65,
      "hit": false,
      "t": 119696.84999999974,
      "d": 1363.6349999999948,
      "v": 68
    },
    {
      "midi": 68,
      "hit": false,
      "t": 119696.84999999974,
      "d": 1363.6349999999948,
      "v": 65
    },
    {
      "midi": 58,
      "hit": false,
      "t": 121211.99999999974,
      "d": 1666.6649999999936,
      "v": 63
    },
    {
      "midi": 61,
      "hit": false,
      "t": 121211.99999999974,
      "d": 1666.6649999999936,
      "v": 71
    },
    {
      "midi": 65,
      "hit": false,
      "t": 121211.99999999974,
      "d": 1666.6649999999936,
      "v": 69
    },
    {
      "midi": 68,
      "hit": false,
      "t": 121211.99999999974,
      "d": 1666.6649999999936,
      "v": 69
    },
    {
      "midi": 72,
      "hit": false,
      "t": 121211.99999999974,
      "d": 1666.6649999999936,
      "v": 71
    },
    {
      "midi": 58,
      "hit": false,
      "t": 123030.17999999973,
      "d": 454.54499999999825,
      "v": 64
    },
    {
      "midi": 61,
      "hit": false,
      "t": 123030.17999999973,
      "d": 454.54499999999825,
      "v": 64
    },
    {
      "midi": 65,
      "hit": false,
      "t": 123030.17999999973,
      "d": 454.54499999999825,
      "v": 71
    },
    {
      "midi": 68,
      "hit": false,
      "t": 123030.17999999973,
      "d": 454.54499999999825,
      "v": 65
    },
    {
      "midi": 72,
      "hit": false,
      "t": 123030.17999999973,
      "d": 454.54499999999825,
      "v": 66
    },
    {
      "midi": 54,
      "hit": false,
      "t": 123636.23999999973,
      "d": 757.5749999999971,
      "v": 65
    },
    {
      "midi": 58,
      "hit": false,
      "t": 123636.23999999973,
      "d": 757.5749999999971,
      "v": 64
    },
    {
      "midi": 61,
      "hit": false,
      "t": 123636.23999999973,
      "d": 757.5749999999971,
      "v": 69
    },
    {
      "midi": 65,
      "hit": false,
      "t": 123636.23999999973,
      "d": 757.5749999999971,
      "v": 65
    },
    {
      "midi": 68,
      "hit": false,
      "t": 123636.23999999973,
      "d": 757.5749999999971,
      "v": 66
    },
    {
      "midi": 54,
      "hit": false,
      "t": 124545.32999999973,
      "d": 757.5749999999971,
      "v": 66
    },
    {
      "midi": 58,
      "hit": false,
      "t": 124545.32999999973,
      "d": 757.5749999999971,
      "v": 66
    },
    {
      "midi": 61,
      "hit": false,
      "t": 124545.32999999973,
      "d": 757.5749999999971,
      "v": 66
    },
    {
      "midi": 65,
      "hit": false,
      "t": 124545.32999999973,
      "d": 757.5749999999971,
      "v": 65
    },
    {
      "midi": 68,
      "hit": false,
      "t": 124545.32999999973,
      "d": 757.5749999999971,
      "v": 68
    },
    {
      "midi": 54,
      "hit": false,
      "t": 125454.41999999972,
      "d": 454.54499999999825,
      "v": 70
    },
    {
      "midi": 58,
      "hit": false,
      "t": 125454.41999999972,
      "d": 454.54499999999825,
      "v": 66
    },
    {
      "midi": 61,
      "hit": false,
      "t": 125454.41999999972,
      "d": 454.54499999999825,
      "v": 69
    },
    {
      "midi": 65,
      "hit": false,
      "t": 125454.41999999972,
      "d": 454.54499999999825,
      "v": 68
    },
    {
      "midi": 68,
      "hit": false,
      "t": 125454.41999999972,
      "d": 454.54499999999825,
      "v": 65
    },
    {
      "midi": 58,
      "hit": false,
      "t": 126060.47999999972,
      "d": 2272.725000000006,
      "v": 69
    },
    {
      "midi": 61,
      "hit": false,
      "t": 126060.47999999972,
      "d": 2272.725000000006,
      "v": 67
    },
    {
      "midi": 65,
      "hit": false,
      "t": 126060.47999999972,
      "d": 2272.725000000006,
      "v": 64
    },
    {
      "midi": 68,
      "hit": false,
      "t": 126060.47999999972,
      "d": 2272.725000000006,
      "v": 65
    },
    {
      "midi": 72,
      "hit": false,
      "t": 126060.47999999972,
      "d": 2272.725000000006,
      "v": 64
    },
    {
      "midi": 54,
      "hit": false,
      "t": 128484.71999999972,
      "d": 757.5749999999971,
      "v": 69
    },
    {
      "midi": 58,
      "hit": false,
      "t": 128484.71999999972,
      "d": 757.5749999999971,
      "v": 71
    },
    {
      "midi": 61,
      "hit": false,
      "t": 128484.71999999972,
      "d": 757.5749999999971,
      "v": 65
    },
    {
      "midi": 65,
      "hit": false,
      "t": 128484.71999999972,
      "d": 757.5749999999971,
      "v": 71
    },
    {
      "midi": 68,
      "hit": false,
      "t": 128484.71999999972,
      "d": 757.5749999999971,
      "v": 67
    },
    {
      "midi": 54,
      "hit": false,
      "t": 129393.80999999972,
      "d": 757.5749999999971,
      "v": 69
    },
    {
      "midi": 58,
      "hit": false,
      "t": 129393.80999999972,
      "d": 757.5749999999971,
      "v": 62
    },
    {
      "midi": 61,
      "hit": false,
      "t": 129393.80999999972,
      "d": 757.5749999999971,
      "v": 70
    },
    {
      "midi": 65,
      "hit": false,
      "t": 129393.80999999972,
      "d": 757.5749999999971,
      "v": 70
    },
    {
      "midi": 68,
      "hit": false,
      "t": 129393.80999999972,
      "d": 757.5749999999971,
      "v": 63
    },
    {
      "midi": 54,
      "hit": false,
      "t": 130302.89999999972,
      "d": 454.54499999999825,
      "v": 66
    },
    {
      "midi": 58,
      "hit": false,
      "t": 130302.89999999972,
      "d": 454.54499999999825,
      "v": 64
    },
    {
      "midi": 61,
      "hit": false,
      "t": 130302.89999999972,
      "d": 454.54499999999825,
      "v": 63
    },
    {
      "midi": 65,
      "hit": false,
      "t": 130302.89999999972,
      "d": 454.54499999999825,
      "v": 64
    },
    {
      "midi": 68,
      "hit": false,
      "t": 130302.89999999972,
      "d": 454.54499999999825,
      "v": 62
    },
    {
      "midi": 58,
      "hit": false,
      "t": 130908.95999999972,
      "d": 1666.6649999999936,
      "v": 71
    },
    {
      "midi": 61,
      "hit": false,
      "t": 130908.95999999972,
      "d": 1666.6649999999936,
      "v": 71
    },
    {
      "midi": 65,
      "hit": false,
      "t": 130908.95999999972,
      "d": 1666.6649999999936,
      "v": 64
    },
    {
      "midi": 68,
      "hit": false,
      "t": 130908.95999999972,
      "d": 1666.6649999999936,
      "v": 64
    },
    {
      "midi": 72,
      "hit": false,
      "t": 130908.95999999972,
      "d": 1666.6649999999936,
      "v": 65
    },
    {
      "midi": 72,
      "hit": false,
      "t": 132727.13999999972,
      "d": 454.5450000000128,
      "v": 68
    },
    {
      "midi": 58,
      "hit": false,
      "t": 132727.13999999972,
      "d": 1363.6350000000384,
      "v": 66
    },
    {
      "midi": 61,
      "hit": false,
      "t": 132727.13999999972,
      "d": 1363.6350000000384,
      "v": 67
    },
    {
      "midi": 65,
      "hit": false,
      "t": 132727.13999999972,
      "d": 1363.6350000000384,
      "v": 64
    },
    {
      "midi": 68,
      "hit": false,
      "t": 132727.13999999972,
      "d": 1363.6350000000384,
      "v": 66
    },
    {
      "midi": 54,
      "hit": false,
      "t": 133333.19999999975,
      "d": 757.5750000000116,
      "v": 62
    },
    {
      "midi": 54,
      "hit": false,
      "t": 134242.28999999978,
      "d": 1363.6350000000093,
      "v": 68
    },
    {
      "midi": 58,
      "hit": false,
      "t": 134242.28999999978,
      "d": 1363.6350000000093,
      "v": 69
    },
    {
      "midi": 61,
      "hit": false,
      "t": 134242.28999999978,
      "d": 1363.6350000000093,
      "v": 69
    },
    {
      "midi": 65,
      "hit": false,
      "t": 134242.28999999978,
      "d": 1363.6350000000093,
      "v": 63
    },
    {
      "midi": 68,
      "hit": false,
      "t": 134242.28999999978,
      "d": 1363.6350000000093,
      "v": 66
    },
    {
      "midi": 58,
      "hit": false,
      "t": 135757.4399999998,
      "d": 2272.725000000006,
      "v": 66
    },
    {
      "midi": 61,
      "hit": false,
      "t": 135757.4399999998,
      "d": 2272.725000000006,
      "v": 66
    },
    {
      "midi": 65,
      "hit": false,
      "t": 135757.4399999998,
      "d": 2272.725000000006,
      "v": 62
    },
    {
      "midi": 68,
      "hit": false,
      "t": 135757.4399999998,
      "d": 2272.725000000006,
      "v": 68
    },
    {
      "midi": 72,
      "hit": false,
      "t": 135757.4399999998,
      "d": 2272.725000000006,
      "v": 63
    },
    {
      "midi": 54,
      "hit": false,
      "t": 138181.67999999982,
      "d": 757.5750000000116,
      "v": 66
    },
    {
      "midi": 58,
      "hit": false,
      "t": 138181.67999999982,
      "d": 757.5750000000116,
      "v": 70
    },
    {
      "midi": 61,
      "hit": false,
      "t": 138181.67999999982,
      "d": 757.5750000000116,
      "v": 71
    },
    {
      "midi": 65,
      "hit": false,
      "t": 138181.67999999982,
      "d": 757.5750000000116,
      "v": 67
    },
    {
      "midi": 68,
      "hit": false,
      "t": 138181.67999999982,
      "d": 757.5750000000116,
      "v": 63
    },
    {
      "midi": 54,
      "hit": false,
      "t": 139090.76999999984,
      "d": 1363.6350000000093,
      "v": 63
    },
    {
      "midi": 58,
      "hit": false,
      "t": 139090.76999999984,
      "d": 1363.6350000000093,
      "v": 71
    },
    {
      "midi": 61,
      "hit": false,
      "t": 139090.76999999984,
      "d": 1363.6350000000093,
      "v": 70
    },
    {
      "midi": 65,
      "hit": false,
      "t": 139090.76999999984,
      "d": 1363.6350000000093,
      "v": 64
    },
    {
      "midi": 68,
      "hit": false,
      "t": 139090.76999999984,
      "d": 1363.6350000000093,
      "v": 70
    },
    {
      "midi": 58,
      "hit": false,
      "t": 140605.91999999987,
      "d": 1666.6650000000081,
      "v": 69
    },
    {
      "midi": 61,
      "hit": false,
      "t": 140605.91999999987,
      "d": 1666.6650000000081,
      "v": 68
    },
    {
      "midi": 65,
      "hit": false,
      "t": 140605.91999999987,
      "d": 1666.6650000000081,
      "v": 69
    },
    {
      "midi": 68,
      "hit": false,
      "t": 140605.91999999987,
      "d": 1666.6650000000081,
      "v": 62
    },
    {
      "midi": 72,
      "hit": false,
      "t": 140605.91999999987,
      "d": 1666.6650000000081,
      "v": 67
    },
    {
      "midi": 72,
      "hit": false,
      "t": 142424.0999999999,
      "d": 454.5450000000128,
      "v": 67
    },
    {
      "midi": 68,
      "hit": false,
      "t": 142424.0999999999,
      "d": 1363.6350000000384,
      "v": 63
    },
    {
      "midi": 58,
      "hit": false,
      "t": 142424.0999999999,
      "d": 2272.725000000064,
      "v": 64
    },
    {
      "midi": 61,
      "hit": false,
      "t": 142424.0999999999,
      "d": 2272.725000000064,
      "v": 63
    },
    {
      "midi": 65,
      "hit": false,
      "t": 142424.0999999999,
      "d": 2272.725000000064,
      "v": 71
    },
    {
      "midi": 54,
      "hit": false,
      "t": 143030.15999999992,
      "d": 770.2012500000128,
      "v": 64
    },
    {
      "midi": 54,
      "hit": false,
      "t": 143939.24999999994,
      "d": 757.5750000000116,
      "v": 70
    },
    {
      "midi": 68,
      "hit": false,
      "t": 143939.24999999994,
      "d": 757.5750000000116,
      "v": 67
    },
    {
      "midi": 54,
      "hit": false,
      "t": 144848.33999999997,
      "d": 454.5450000000128,
      "v": 68
    },
    {
      "midi": 58,
      "hit": false,
      "t": 144848.33999999997,
      "d": 454.5450000000128,
      "v": 71
    },
    {
      "midi": 61,
      "hit": false,
      "t": 144848.33999999997,
      "d": 454.5450000000128,
      "v": 66
    },
    {
      "midi": 65,
      "hit": false,
      "t": 144848.33999999997,
      "d": 454.5450000000128,
      "v": 64
    },
    {
      "midi": 68,
      "hit": false,
      "t": 144848.33999999997,
      "d": 454.5450000000128,
      "v": 62
    },
    {
      "midi": 54,
      "hit": false,
      "t": 145454.4,
      "d": 1666.6650000000081,
      "v": 66
    },
    {
      "midi": 58,
      "hit": false,
      "t": 145454.4,
      "d": 1666.6650000000081,
      "v": 63
    },
    {
      "midi": 61,
      "hit": false,
      "t": 145454.4,
      "d": 1666.6650000000081,
      "v": 62
    },
    {
      "midi": 63,
      "hit": false,
      "t": 145454.4,
      "d": 1666.6650000000081,
      "v": 67
    },
    {
      "midi": 65,
      "hit": false,
      "t": 145454.4,
      "d": 1666.6650000000081,
      "v": 69
    },
    {
      "midi": 54,
      "hit": false,
      "t": 147272.58000000002,
      "d": 1060.6050000000105,
      "v": 65
    },
    {
      "midi": 58,
      "hit": false,
      "t": 147272.58000000002,
      "d": 1060.6050000000105,
      "v": 69
    },
    {
      "midi": 61,
      "hit": false,
      "t": 147272.58000000002,
      "d": 1060.6050000000105,
      "v": 62
    },
    {
      "midi": 63,
      "hit": false,
      "t": 147272.58000000002,
      "d": 1060.6050000000105,
      "v": 67
    },
    {
      "midi": 65,
      "hit": false,
      "t": 147272.58000000002,
      "d": 1060.6050000000105,
      "v": 68
    },
    {
      "midi": 60,
      "hit": false,
      "t": 148787.73000000004,
      "d": 1363.6350000000093,
      "v": 65
    },
    {
      "midi": 63,
      "hit": false,
      "t": 148787.73000000004,
      "d": 1363.6350000000093,
      "v": 65
    },
    {
      "midi": 66,
      "hit": false,
      "t": 148787.73000000004,
      "d": 1363.6350000000093,
      "v": 66
    },
    {
      "midi": 69,
      "hit": false,
      "t": 148787.73000000004,
      "d": 1363.6350000000093,
      "v": 69
    },
    {
      "midi": 58,
      "hit": false,
      "t": 150302.88000000006,
      "d": 1666.6650000000081,
      "v": 71
    },
    {
      "midi": 61,
      "hit": false,
      "t": 150302.88000000006,
      "d": 1666.6650000000081,
      "v": 66
    },
    {
      "midi": 65,
      "hit": false,
      "t": 150302.88000000006,
      "d": 1666.6650000000081,
      "v": 67
    },
    {
      "midi": 68,
      "hit": false,
      "t": 150302.88000000006,
      "d": 1666.6650000000081,
      "v": 71
    },
    {
      "midi": 72,
      "hit": false,
      "t": 150302.88000000006,
      "d": 1666.6650000000081,
      "v": 70
    },
    {
      "midi": 58,
      "hit": false,
      "t": 152121.06000000008,
      "d": 454.5450000000128,
      "v": 62
    },
    {
      "midi": 61,
      "hit": false,
      "t": 152121.06000000008,
      "d": 454.5450000000128,
      "v": 66
    },
    {
      "midi": 65,
      "hit": false,
      "t": 152121.06000000008,
      "d": 454.5450000000128,
      "v": 68
    },
    {
      "midi": 68,
      "hit": false,
      "t": 152121.06000000008,
      "d": 454.5450000000128,
      "v": 64
    },
    {
      "midi": 72,
      "hit": false,
      "t": 152121.06000000008,
      "d": 454.5450000000128,
      "v": 62
    },
    {
      "midi": 54,
      "hit": false,
      "t": 152727.1200000001,
      "d": 757.5750000000116,
      "v": 68
    },
    {
      "midi": 58,
      "hit": false,
      "t": 152727.1200000001,
      "d": 757.5750000000116,
      "v": 69
    },
    {
      "midi": 61,
      "hit": false,
      "t": 152727.1200000001,
      "d": 757.5750000000116,
      "v": 66
    },
    {
      "midi": 65,
      "hit": false,
      "t": 152727.1200000001,
      "d": 757.5750000000116,
      "v": 70
    },
    {
      "midi": 70,
      "hit": false,
      "t": 152727.1200000001,
      "d": 757.5750000000116,
      "v": 68
    },
    {
      "midi": 54,
      "hit": false,
      "t": 153636.21000000014,
      "d": 757.5750000000116,
      "v": 69
    },
    {
      "midi": 58,
      "hit": false,
      "t": 153636.21000000014,
      "d": 757.5750000000116,
      "v": 65
    },
    {
      "midi": 61,
      "hit": false,
      "t": 153636.21000000014,
      "d": 757.5750000000116,
      "v": 64
    },
    {
      "midi": 65,
      "hit": false,
      "t": 153636.21000000014,
      "d": 757.5750000000116,
      "v": 67
    },
    {
      "midi": 70,
      "hit": false,
      "t": 153636.21000000014,
      "d": 757.5750000000116,
      "v": 68
    },
    {
      "midi": 54,
      "hit": false,
      "t": 154545.30000000016,
      "d": 454.5450000000128,
      "v": 69
    },
    {
      "midi": 58,
      "hit": false,
      "t": 154545.30000000016,
      "d": 454.5450000000128,
      "v": 64
    },
    {
      "midi": 61,
      "hit": false,
      "t": 154545.30000000016,
      "d": 454.5450000000128,
      "v": 69
    },
    {
      "midi": 65,
      "hit": false,
      "t": 154545.30000000016,
      "d": 454.5450000000128,
      "v": 65
    },
    {
      "midi": 70,
      "hit": false,
      "t": 154545.30000000016,
      "d": 454.5450000000128,
      "v": 70
    },
    {
      "midi": 58,
      "hit": false,
      "t": 155151.3600000002,
      "d": 1666.6650000000081,
      "v": 63
    },
    {
      "midi": 61,
      "hit": false,
      "t": 155151.3600000002,
      "d": 1666.6650000000081,
      "v": 67
    },
    {
      "midi": 65,
      "hit": false,
      "t": 155151.3600000002,
      "d": 1666.6650000000081,
      "v": 67
    },
    {
      "midi": 68,
      "hit": false,
      "t": 155151.3600000002,
      "d": 1666.6650000000081,
      "v": 63
    },
    {
      "midi": 72,
      "hit": false,
      "t": 155151.3600000002,
      "d": 1666.6650000000081,
      "v": 67
    },
    {
      "midi": 58,
      "hit": false,
      "t": 156969.5400000002,
      "d": 454.5450000000128,
      "v": 69
    },
    {
      "midi": 61,
      "hit": false,
      "t": 156969.5400000002,
      "d": 454.5450000000128,
      "v": 64
    },
    {
      "midi": 65,
      "hit": false,
      "t": 156969.5400000002,
      "d": 454.5450000000128,
      "v": 63
    },
    {
      "midi": 68,
      "hit": false,
      "t": 156969.5400000002,
      "d": 454.5450000000128,
      "v": 69
    },
    {
      "midi": 72,
      "hit": false,
      "t": 156969.5400000002,
      "d": 454.5450000000128,
      "v": 71
    },
    {
      "midi": 54,
      "hit": false,
      "t": 157575.60000000024,
      "d": 757.5750000000116,
      "v": 64
    },
    {
      "midi": 58,
      "hit": false,
      "t": 157575.60000000024,
      "d": 757.5750000000116,
      "v": 65
    },
    {
      "midi": 61,
      "hit": false,
      "t": 157575.60000000024,
      "d": 757.5750000000116,
      "v": 65
    },
    {
      "midi": 65,
      "hit": false,
      "t": 157575.60000000024,
      "d": 757.5750000000116,
      "v": 64
    },
    {
      "midi": 70,
      "hit": false,
      "t": 157575.60000000024,
      "d": 757.5750000000116,
      "v": 69
    },
    {
      "midi": 54,
      "hit": false,
      "t": 158484.69000000026,
      "d": 757.5750000000116,
      "v": 68
    },
    {
      "midi": 58,
      "hit": false,
      "t": 158484.69000000026,
      "d": 757.5750000000116,
      "v": 64
    },
    {
      "midi": 61,
      "hit": false,
      "t": 158484.69000000026,
      "d": 757.5750000000116,
      "v": 71
    },
    {
      "midi": 65,
      "hit": false,
      "t": 158484.69000000026,
      "d": 757.5750000000116,
      "v": 64
    },
    {
      "midi": 70,
      "hit": false,
      "t": 158484.69000000026,
      "d": 757.5750000000116,
      "v": 69
    },
    {
      "midi": 54,
      "hit": false,
      "t": 159393.7800000003,
      "d": 454.5450000000128,
      "v": 71
    },
    {
      "midi": 58,
      "hit": false,
      "t": 159393.7800000003,
      "d": 454.5450000000128,
      "v": 68
    },
    {
      "midi": 61,
      "hit": false,
      "t": 159393.7800000003,
      "d": 454.5450000000128,
      "v": 63
    },
    {
      "midi": 65,
      "hit": false,
      "t": 159393.7800000003,
      "d": 454.5450000000128,
      "v": 64
    },
    {
      "midi": 70,
      "hit": false,
      "t": 159393.7800000003,
      "d": 454.5450000000128,
      "v": 66
    },
    {
      "midi": 58,
      "hit": false,
      "t": 159999.84000000032,
      "d": 1666.6650000000081,
      "v": 68
    },
    {
      "midi": 61,
      "hit": false,
      "t": 159999.84000000032,
      "d": 1666.6650000000081,
      "v": 66
    },
    {
      "midi": 65,
      "hit": false,
      "t": 159999.84000000032,
      "d": 1666.6650000000081,
      "v": 69
    },
    {
      "midi": 68,
      "hit": false,
      "t": 159999.84000000032,
      "d": 1666.6650000000081,
      "v": 65
    },
    {
      "midi": 72,
      "hit": false,
      "t": 159999.84000000032,
      "d": 1666.6650000000081,
      "v": 67
    },
    {
      "midi": 58,
      "hit": false,
      "t": 161818.02000000034,
      "d": 454.5450000000128,
      "v": 67
    },
    {
      "midi": 61,
      "hit": false,
      "t": 161818.02000000034,
      "d": 454.5450000000128,
      "v": 68
    },
    {
      "midi": 65,
      "hit": false,
      "t": 161818.02000000034,
      "d": 454.5450000000128,
      "v": 63
    },
    {
      "midi": 68,
      "hit": false,
      "t": 161818.02000000034,
      "d": 454.5450000000128,
      "v": 62
    },
    {
      "midi": 72,
      "hit": false,
      "t": 161818.02000000034,
      "d": 454.5450000000128,
      "v": 63
    },
    {
      "midi": 54,
      "hit": false,
      "t": 162424.08000000037,
      "d": 757.5750000000116,
      "v": 65
    },
    {
      "midi": 58,
      "hit": false,
      "t": 162424.08000000037,
      "d": 757.5750000000116,
      "v": 63
    },
    {
      "midi": 61,
      "hit": false,
      "t": 162424.08000000037,
      "d": 757.5750000000116,
      "v": 62
    },
    {
      "midi": 65,
      "hit": false,
      "t": 162424.08000000037,
      "d": 757.5750000000116,
      "v": 67
    },
    {
      "midi": 70,
      "hit": false,
      "t": 162424.08000000037,
      "d": 757.5750000000116,
      "v": 68
    },
    {
      "midi": 54,
      "hit": false,
      "t": 163333.1700000004,
      "d": 757.5750000000116,
      "v": 70
    },
    {
      "midi": 58,
      "hit": false,
      "t": 163333.1700000004,
      "d": 757.5750000000116,
      "v": 69
    },
    {
      "midi": 61,
      "hit": false,
      "t": 163333.1700000004,
      "d": 757.5750000000116,
      "v": 70
    },
    {
      "midi": 65,
      "hit": false,
      "t": 163333.1700000004,
      "d": 757.5750000000116,
      "v": 69
    },
    {
      "midi": 70,
      "hit": false,
      "t": 163333.1700000004,
      "d": 757.5750000000116,
      "v": 68
    },
    {
      "midi": 54,
      "hit": false,
      "t": 164242.26000000042,
      "d": 454.5450000000128,
      "v": 62
    },
    {
      "midi": 58,
      "hit": false,
      "t": 164242.26000000042,
      "d": 454.5450000000128,
      "v": 63
    },
    {
      "midi": 61,
      "hit": false,
      "t": 164242.26000000042,
      "d": 454.5450000000128,
      "v": 68
    },
    {
      "midi": 65,
      "hit": false,
      "t": 164242.26000000042,
      "d": 454.5450000000128,
      "v": 63
    },
    {
      "midi": 70,
      "hit": false,
      "t": 164242.26000000042,
      "d": 454.5450000000128,
      "v": 65
    },
    {
      "midi": 58,
      "hit": false,
      "t": 164848.32000000044,
      "d": 1666.6650000000081,
      "v": 71
    },
    {
      "midi": 61,
      "hit": false,
      "t": 164848.32000000044,
      "d": 1666.6650000000081,
      "v": 65
    },
    {
      "midi": 65,
      "hit": false,
      "t": 164848.32000000044,
      "d": 1666.6650000000081,
      "v": 65
    },
    {
      "midi": 68,
      "hit": false,
      "t": 164848.32000000044,
      "d": 1666.6650000000081,
      "v": 68
    },
    {
      "midi": 72,
      "hit": false,
      "t": 164848.32000000044,
      "d": 1666.6650000000081,
      "v": 69
    },
    {
      "midi": 58,
      "hit": false,
      "t": 166666.50000000047,
      "d": 454.5450000000128,
      "v": 66
    },
    {
      "midi": 61,
      "hit": false,
      "t": 166666.50000000047,
      "d": 454.5450000000128,
      "v": 64
    },
    {
      "midi": 65,
      "hit": false,
      "t": 166666.50000000047,
      "d": 454.5450000000128,
      "v": 64
    },
    {
      "midi": 68,
      "hit": false,
      "t": 166666.50000000047,
      "d": 454.5450000000128,
      "v": 68
    },
    {
      "midi": 72,
      "hit": false,
      "t": 166666.50000000047,
      "d": 454.5450000000128,
      "v": 68
    },
    {
      "midi": 54,
      "hit": false,
      "t": 167272.5600000005,
      "d": 757.5750000000116,
      "v": 68
    },
    {
      "midi": 58,
      "hit": false,
      "t": 167272.5600000005,
      "d": 757.5750000000116,
      "v": 66
    },
    {
      "midi": 61,
      "hit": false,
      "t": 167272.5600000005,
      "d": 757.5750000000116,
      "v": 66
    },
    {
      "midi": 65,
      "hit": false,
      "t": 167272.5600000005,
      "d": 757.5750000000116,
      "v": 65
    },
    {
      "midi": 70,
      "hit": false,
      "t": 167272.5600000005,
      "d": 757.5750000000116,
      "v": 69
    },
    {
      "midi": 54,
      "hit": false,
      "t": 168181.65000000052,
      "d": 757.5750000000116,
      "v": 63
    },
    {
      "midi": 58,
      "hit": false,
      "t": 168181.65000000052,
      "d": 757.5750000000116,
      "v": 71
    },
    {
      "midi": 61,
      "hit": false,
      "t": 168181.65000000052,
      "d": 757.5750000000116,
      "v": 62
    },
    {
      "midi": 65,
      "hit": false,
      "t": 168181.65000000052,
      "d": 757.5750000000116,
      "v": 62
    },
    {
      "midi": 70,
      "hit": false,
      "t": 168181.65000000052,
      "d": 757.5750000000116,
      "v": 69
    },
    {
      "midi": 54,
      "hit": false,
      "t": 169090.74000000054,
      "d": 454.5450000000128,
      "v": 66
    },
    {
      "midi": 58,
      "hit": false,
      "t": 169090.74000000054,
      "d": 454.5450000000128,
      "v": 69
    },
    {
      "midi": 61,
      "hit": false,
      "t": 169090.74000000054,
      "d": 454.5450000000128,
      "v": 62
    },
    {
      "midi": 65,
      "hit": false,
      "t": 169090.74000000054,
      "d": 454.5450000000128,
      "v": 64
    },
    {
      "midi": 70,
      "hit": false,
      "t": 169090.74000000054,
      "d": 454.5450000000128,
      "v": 63
    },
    {
      "midi": 58,
      "hit": false,
      "t": 169696.80000000057,
      "d": 1666.6650000000081,
      "v": 71
    },
    {
      "midi": 61,
      "hit": false,
      "t": 169696.80000000057,
      "d": 1666.6650000000081,
      "v": 71
    },
    {
      "midi": 65,
      "hit": false,
      "t": 169696.80000000057,
      "d": 1666.6650000000081,
      "v": 71
    },
    {
      "midi": 68,
      "hit": false,
      "t": 169696.80000000057,
      "d": 1666.6650000000081,
      "v": 66
    },
    {
      "midi": 72,
      "hit": false,
      "t": 169696.80000000057,
      "d": 1666.6650000000081,
      "v": 65
    },
    {
      "midi": 58,
      "hit": false,
      "t": 171514.9800000006,
      "d": 454.5450000000128,
      "v": 67
    },
    {
      "midi": 61,
      "hit": false,
      "t": 171514.9800000006,
      "d": 454.5450000000128,
      "v": 67
    },
    {
      "midi": 65,
      "hit": false,
      "t": 171514.9800000006,
      "d": 454.5450000000128,
      "v": 66
    },
    {
      "midi": 68,
      "hit": false,
      "t": 171514.9800000006,
      "d": 454.5450000000128,
      "v": 63
    },
    {
      "midi": 72,
      "hit": false,
      "t": 171514.9800000006,
      "d": 454.5450000000128,
      "v": 69
    },
    {
      "midi": 54,
      "hit": false,
      "t": 172121.04000000062,
      "d": 757.5750000000116,
      "v": 71
    },
    {
      "midi": 58,
      "hit": false,
      "t": 172121.04000000062,
      "d": 757.5750000000116,
      "v": 63
    },
    {
      "midi": 61,
      "hit": false,
      "t": 172121.04000000062,
      "d": 757.5750000000116,
      "v": 66
    },
    {
      "midi": 65,
      "hit": false,
      "t": 172121.04000000062,
      "d": 757.5750000000116,
      "v": 69
    },
    {
      "midi": 70,
      "hit": false,
      "t": 172121.04000000062,
      "d": 757.5750000000116,
      "v": 65
    },
    {
      "midi": 54,
      "hit": false,
      "t": 173030.13000000064,
      "d": 757.5750000000116,
      "v": 64
    },
    {
      "midi": 58,
      "hit": false,
      "t": 173030.13000000064,
      "d": 757.5750000000116,
      "v": 62
    },
    {
      "midi": 61,
      "hit": false,
      "t": 173030.13000000064,
      "d": 757.5750000000116,
      "v": 68
    },
    {
      "midi": 65,
      "hit": false,
      "t": 173030.13000000064,
      "d": 757.5750000000116,
      "v": 71
    },
    {
      "midi": 70,
      "hit": false,
      "t": 173030.13000000064,
      "d": 757.5750000000116,
      "v": 68
    },
    {
      "midi": 54,
      "hit": false,
      "t": 173939.22000000067,
      "d": 454.5450000000128,
      "v": 62
    },
    {
      "midi": 58,
      "hit": false,
      "t": 173939.22000000067,
      "d": 454.5450000000128,
      "v": 67
    },
    {
      "midi": 61,
      "hit": false,
      "t": 173939.22000000067,
      "d": 454.5450000000128,
      "v": 64
    },
    {
      "midi": 65,
      "hit": false,
      "t": 173939.22000000067,
      "d": 454.5450000000128,
      "v": 65
    },
    {
      "midi": 70,
      "hit": false,
      "t": 173939.22000000067,
      "d": 454.5450000000128,
      "v": 67
    },
    {
      "midi": 58,
      "hit": false,
      "t": 174545.2800000007,
      "d": 1666.6650000000081,
      "v": 66
    },
    {
      "midi": 61,
      "hit": false,
      "t": 174545.2800000007,
      "d": 1666.6650000000081,
      "v": 71
    },
    {
      "midi": 65,
      "hit": false,
      "t": 174545.2800000007,
      "d": 1666.6650000000081,
      "v": 71
    },
    {
      "midi": 68,
      "hit": false,
      "t": 174545.2800000007,
      "d": 1666.6650000000081,
      "v": 63
    },
    {
      "midi": 72,
      "hit": false,
      "t": 174545.2800000007,
      "d": 1666.6650000000081,
      "v": 71
    },
    {
      "midi": 58,
      "hit": false,
      "t": 176363.46000000072,
      "d": 454.5450000000128,
      "v": 71
    },
    {
      "midi": 61,
      "hit": false,
      "t": 176363.46000000072,
      "d": 454.5450000000128,
      "v": 64
    },
    {
      "midi": 65,
      "hit": false,
      "t": 176363.46000000072,
      "d": 454.5450000000128,
      "v": 71
    },
    {
      "midi": 68,
      "hit": false,
      "t": 176363.46000000072,
      "d": 454.5450000000128,
      "v": 63
    },
    {
      "midi": 72,
      "hit": false,
      "t": 176363.46000000072,
      "d": 454.5450000000128,
      "v": 70
    },
    {
      "midi": 54,
      "hit": false,
      "t": 176969.52000000075,
      "d": 757.5750000000116,
      "v": 67
    },
    {
      "midi": 58,
      "hit": false,
      "t": 176969.52000000075,
      "d": 757.5750000000116,
      "v": 68
    },
    {
      "midi": 61,
      "hit": false,
      "t": 176969.52000000075,
      "d": 757.5750000000116,
      "v": 64
    },
    {
      "midi": 65,
      "hit": false,
      "t": 176969.52000000075,
      "d": 757.5750000000116,
      "v": 67
    },
    {
      "midi": 70,
      "hit": false,
      "t": 176969.52000000075,
      "d": 757.5750000000116,
      "v": 68
    },
    {
      "midi": 54,
      "hit": false,
      "t": 177878.61000000077,
      "d": 757.5750000000116,
      "v": 64
    },
    {
      "midi": 58,
      "hit": false,
      "t": 177878.61000000077,
      "d": 757.5750000000116,
      "v": 62
    },
    {
      "midi": 61,
      "hit": false,
      "t": 177878.61000000077,
      "d": 757.5750000000116,
      "v": 66
    },
    {
      "midi": 65,
      "hit": false,
      "t": 177878.61000000077,
      "d": 757.5750000000116,
      "v": 71
    },
    {
      "midi": 70,
      "hit": false,
      "t": 177878.61000000077,
      "d": 757.5750000000116,
      "v": 67
    },
    {
      "midi": 54,
      "hit": false,
      "t": 178787.7000000008,
      "d": 454.5450000000128,
      "v": 68
    },
    {
      "midi": 58,
      "hit": false,
      "t": 178787.7000000008,
      "d": 454.5450000000128,
      "v": 65
    },
    {
      "midi": 61,
      "hit": false,
      "t": 178787.7000000008,
      "d": 454.5450000000128,
      "v": 63
    },
    {
      "midi": 65,
      "hit": false,
      "t": 178787.7000000008,
      "d": 454.5450000000128,
      "v": 64
    },
    {
      "midi": 70,
      "hit": false,
      "t": 178787.7000000008,
      "d": 454.5450000000128,
      "v": 63
    },
    {
      "midi": 58,
      "hit": false,
      "t": 179393.76000000082,
      "d": 1666.6650000000081,
      "v": 64
    },
    {
      "midi": 61,
      "hit": false,
      "t": 179393.76000000082,
      "d": 1666.6650000000081,
      "v": 63
    },
    {
      "midi": 65,
      "hit": false,
      "t": 179393.76000000082,
      "d": 1666.6650000000081,
      "v": 66
    },
    {
      "midi": 68,
      "hit": false,
      "t": 179393.76000000082,
      "d": 1666.6650000000081,
      "v": 62
    },
    {
      "midi": 72,
      "hit": false,
      "t": 179393.76000000082,
      "d": 1666.6650000000081,
      "v": 68
    },
    {
      "midi": 58,
      "hit": false,
      "t": 181211.94000000085,
      "d": 454.5450000000128,
      "v": 65
    },
    {
      "midi": 61,
      "hit": false,
      "t": 181211.94000000085,
      "d": 454.5450000000128,
      "v": 66
    },
    {
      "midi": 65,
      "hit": false,
      "t": 181211.94000000085,
      "d": 454.5450000000128,
      "v": 63
    },
    {
      "midi": 68,
      "hit": false,
      "t": 181211.94000000085,
      "d": 454.5450000000128,
      "v": 65
    },
    {
      "midi": 72,
      "hit": false,
      "t": 181211.94000000085,
      "d": 454.5450000000128,
      "v": 68
    },
    {
      "midi": 54,
      "hit": false,
      "t": 181818.00000000087,
      "d": 757.5750000000116,
      "v": 69
    },
    {
      "midi": 58,
      "hit": false,
      "t": 181818.00000000087,
      "d": 757.5750000000116,
      "v": 70
    },
    {
      "midi": 61,
      "hit": false,
      "t": 181818.00000000087,
      "d": 757.5750000000116,
      "v": 66
    },
    {
      "midi": 65,
      "hit": false,
      "t": 181818.00000000087,
      "d": 757.5750000000116,
      "v": 69
    },
    {
      "midi": 70,
      "hit": false,
      "t": 181818.00000000087,
      "d": 757.5750000000116,
      "v": 70
    },
    {
      "midi": 54,
      "hit": false,
      "t": 182727.0900000009,
      "d": 757.5750000000116,
      "v": 70
    },
    {
      "midi": 58,
      "hit": false,
      "t": 182727.0900000009,
      "d": 757.5750000000116,
      "v": 70
    },
    {
      "midi": 61,
      "hit": false,
      "t": 182727.0900000009,
      "d": 757.5750000000116,
      "v": 66
    },
    {
      "midi": 65,
      "hit": false,
      "t": 182727.0900000009,
      "d": 757.5750000000116,
      "v": 63
    },
    {
      "midi": 70,
      "hit": false,
      "t": 182727.0900000009,
      "d": 757.5750000000116,
      "v": 69
    },
    {
      "midi": 54,
      "hit": false,
      "t": 183636.18000000092,
      "d": 454.5450000000128,
      "v": 66
    },
    {
      "midi": 58,
      "hit": false,
      "t": 183636.18000000092,
      "d": 454.5450000000128,
      "v": 70
    },
    {
      "midi": 61,
      "hit": false,
      "t": 183636.18000000092,
      "d": 454.5450000000128,
      "v": 71
    },
    {
      "midi": 65,
      "hit": false,
      "t": 183636.18000000092,
      "d": 454.5450000000128,
      "v": 70
    },
    {
      "midi": 70,
      "hit": false,
      "t": 183636.18000000092,
      "d": 454.5450000000128,
      "v": 69
    },
    {
      "midi": 58,
      "hit": false,
      "t": 184242.24000000095,
      "d": 1666.6650000000081,
      "v": 68
    },
    {
      "midi": 61,
      "hit": false,
      "t": 184242.24000000095,
      "d": 1666.6650000000081,
      "v": 62
    },
    {
      "midi": 65,
      "hit": false,
      "t": 184242.24000000095,
      "d": 1666.6650000000081,
      "v": 62
    },
    {
      "midi": 68,
      "hit": false,
      "t": 184242.24000000095,
      "d": 1666.6650000000081,
      "v": 70
    },
    {
      "midi": 72,
      "hit": false,
      "t": 184242.24000000095,
      "d": 1666.6650000000081,
      "v": 66
    },
    {
      "midi": 58,
      "hit": false,
      "t": 186060.42000000097,
      "d": 454.5450000000128,
      "v": 63
    },
    {
      "midi": 61,
      "hit": false,
      "t": 186060.42000000097,
      "d": 454.5450000000128,
      "v": 71
    },
    {
      "midi": 65,
      "hit": false,
      "t": 186060.42000000097,
      "d": 454.5450000000128,
      "v": 68
    },
    {
      "midi": 68,
      "hit": false,
      "t": 186060.42000000097,
      "d": 454.5450000000128,
      "v": 64
    },
    {
      "midi": 72,
      "hit": false,
      "t": 186060.42000000097,
      "d": 454.5450000000128,
      "v": 62
    },
    {
      "midi": 54,
      "hit": false,
      "t": 186666.480000001,
      "d": 246.21187500000815,
      "v": 64
    },
    {
      "midi": 58,
      "hit": false,
      "t": 186666.480000001,
      "d": 246.21187500000815,
      "v": 71
    },
    {
      "midi": 61,
      "hit": false,
      "t": 186666.480000001,
      "d": 246.21187500000815,
      "v": 65
    },
    {
      "midi": 65,
      "hit": false,
      "t": 186666.480000001,
      "d": 246.21187500000815,
      "v": 67
    },
    {
      "midi": 70,
      "hit": false,
      "t": 186666.480000001,
      "d": 246.21187500000815,
      "v": 71
    },
    {
      "midi": 54,
      "hit": false,
      "t": 187121.025000001,
      "d": 151.51500000001397,
      "v": 68
    },
    {
      "midi": 58,
      "hit": false,
      "t": 187121.025000001,
      "d": 151.51500000001397,
      "v": 70
    },
    {
      "midi": 61,
      "hit": false,
      "t": 187121.025000001,
      "d": 151.51500000001397,
      "v": 65
    },
    {
      "midi": 65,
      "hit": false,
      "t": 187121.025000001,
      "d": 151.51500000001397,
      "v": 69
    },
    {
      "midi": 70,
      "hit": false,
      "t": 187121.025000001,
      "d": 151.51500000001397,
      "v": 66
    },
    {
      "midi": 54,
      "hit": false,
      "t": 189090.72000000102,
      "d": 1363.6350000000093,
      "v": 65
    },
    {
      "midi": 58,
      "hit": false,
      "t": 189090.72000000102,
      "d": 1363.6350000000093,
      "v": 66
    },
    {
      "midi": 61,
      "hit": false,
      "t": 189090.72000000102,
      "d": 1363.6350000000093,
      "v": 71
    },
    {
      "midi": 63,
      "hit": false,
      "t": 189090.72000000102,
      "d": 1363.6350000000093,
      "v": 68
    },
    {
      "midi": 65,
      "hit": false,
      "t": 189090.72000000102,
      "d": 1363.6350000000093,
      "v": 63
    },
    {
      "midi": 54,
      "hit": false,
      "t": 190605.87000000104,
      "d": 3181.8150000000023,
      "v": 67
    },
    {
      "midi": 58,
      "hit": false,
      "t": 190908.90000000104,
      "d": 2878.7850000000035,
      "v": 65
    },
    {
      "midi": 61,
      "hit": false,
      "t": 191211.93000000104,
      "d": 2575.7550000000047,
      "v": 64
    },
    {
      "midi": 63,
      "hit": false,
      "t": 191817.99000000104,
      "d": 1969.695000000007,
      "v": 62
    },
    {
      "midi": 65,
      "hit": false,
      "t": 192424.05000000104,
      "d": 1363.6350000000093,
      "v": 62
    },
    {
      "midi": 54,
      "hit": false,
      "t": 193939.20000000106,
      "d": 1363.6350000000093,
      "v": 68
    },
    {
      "midi": 58,
      "hit": false,
      "t": 193939.20000000106,
      "d": 1363.6350000000093,
      "v": 66
    },
    {
      "midi": 61,
      "hit": false,
      "t": 193939.20000000106,
      "d": 1666.6650000000373,
      "v": 64
    },
    {
      "midi": 63,
      "hit": false,
      "t": 193939.20000000106,
      "d": 1666.6650000000373,
      "v": 63
    },
    {
      "midi": 65,
      "hit": false,
      "t": 193939.20000000106,
      "d": 1666.6650000000373,
      "v": 65
    },
    {
      "midi": 54,
      "hit": false,
      "t": 195454.35000000108,
      "d": 2878.7850000000617,
      "v": 65
    },
    {
      "midi": 58,
      "hit": false,
      "t": 195757.3800000011,
      "d": 2878.7850000000326,
      "v": 70
    },
    {
      "midi": 61,
      "hit": false,
      "t": 196060.4100000011,
      "d": 1969.695000000007,
      "v": 67
    },
    {
      "midi": 63,
      "hit": false,
      "t": 196666.4700000011,
      "d": 1363.6350000000093,
      "v": 63
    },
    {
      "midi": 65,
      "hit": false,
      "t": 197272.5300000011,
      "d": 606.0599999999977,
      "v": 65
    },
    {
      "midi": 70,
      "hit": false,
      "t": 197575.5600000011,
      "d": 454.5450000000128,
      "v": 71
    },
    {
      "midi": 65,
      "hit": false,
      "t": 197878.5900000011,
      "d": 151.51500000001397,
      "v": 71
    },
    {
      "midi": 63,
      "hit": false,
      "t": 198181.62000000113,
      "d": 246.21187500000815,
      "v": 71
    },
    {
      "midi": 61,
      "hit": false,
      "t": 198484.65000000113,
      "d": 246.21187500000815,
      "v": 69
    },
    {
      "midi": 54,
      "hit": false,
      "t": 198787.68000000113,
      "d": 1363.6350000000093,
      "v": 66
    },
    {
      "midi": 58,
      "hit": false,
      "t": 198787.68000000113,
      "d": 1363.6350000000093,
      "v": 64
    },
    {
      "midi": 65,
      "hit": false,
      "t": 198787.68000000113,
      "d": 1666.6650000000081,
      "v": 70
    },
    {
      "midi": 61,
      "hit": false,
      "t": 198787.68000000113,
      "d": 1969.695000000036,
      "v": 67
    },
    {
      "midi": 63,
      "hit": false,
      "t": 198787.68000000113,
      "d": 1969.695000000036,
      "v": 63
    },
    {
      "midi": 54,
      "hit": false,
      "t": 200605.86000000115,
      "d": 2878.7850000000326,
      "v": 67
    },
    {
      "midi": 58,
      "hit": false,
      "t": 200908.89000000118,
      "d": 2575.7550000000047,
      "v": 66
    },
    {
      "midi": 61,
      "hit": false,
      "t": 201514.95000000118,
      "d": 757.5750000000116,
      "v": 62
    },
    {
      "midi": 63,
      "hit": false,
      "t": 202121.01000000117,
      "d": 246.21187500000815,
      "v": 64
    },
    {
      "midi": 65,
      "hit": false,
      "t": 202424.04000000117,
      "d": 454.5450000000128,
      "v": 70
    },
    {
      "midi": 61,
      "hit": false,
      "t": 202575.5550000012,
      "d": 246.21187500000815,
      "v": 66
    },
    {
      "midi": 63,
      "hit": false,
      "t": 202727.0700000012,
      "d": 246.21187499997905,
      "v": 62
    },
    {
      "midi": 61,
      "hit": false,
      "t": 203030.10000000117,
      "d": 454.5450000000128,
      "v": 70
    },
    {
      "midi": 63,
      "hit": false,
      "t": 203333.13000000117,
      "d": 246.21187500000815,
      "v": 68
    },
    {
      "midi": 58,
      "hit": false,
      "t": 203939.19000000117,
      "d": 246.21187500000815,
      "v": 70
    },
    {
      "midi": 61,
      "hit": false,
      "t": 203939.19000000117,
      "d": 246.21187500000815,
      "v": 62
    },
    {
      "midi": 63,
      "hit": false,
      "t": 203939.19000000117,
      "d": 246.21187500000815,
      "v": 67
    },
    {
      "midi": 66,
      "hit": false,
      "t": 203939.19000000117,
      "d": 246.21187500000815,
      "v": 68
    },
    {
      "midi": 70,
      "hit": false,
      "t": 203939.19000000117,
      "d": 246.21187500000815,
      "v": 69
    },
    {
      "midi": 58,
      "hit": false,
      "t": 204848.28000000116,
      "d": 246.21187500000815,
      "v": 63
    },
    {
      "midi": 61,
      "hit": false,
      "t": 204848.28000000116,
      "d": 246.21187500000815,
      "v": 63
    },
    {
      "midi": 63,
      "hit": false,
      "t": 204848.28000000116,
      "d": 246.21187500000815,
      "v": 63
    },
    {
      "midi": 66,
      "hit": false,
      "t": 204848.28000000116,
      "d": 246.21187500000815,
      "v": 64
    },
    {
      "midi": 70,
      "hit": false,
      "t": 204848.28000000116,
      "d": 246.21187500000815,
      "v": 65
    },
    {
      "midi": 58,
      "hit": false,
      "t": 206060.40000000116,
      "d": 246.21187500000815,
      "v": 69
    },
    {
      "midi": 61,
      "hit": false,
      "t": 206060.40000000116,
      "d": 246.21187500000815,
      "v": 65
    },
    {
      "midi": 63,
      "hit": false,
      "t": 206060.40000000116,
      "d": 246.21187500000815,
      "v": 62
    },
    {
      "midi": 66,
      "hit": false,
      "t": 206060.40000000116,
      "d": 246.21187500000815,
      "v": 64
    },
    {
      "midi": 70,
      "hit": false,
      "t": 206060.40000000116,
      "d": 246.21187500000815,
      "v": 66
    },
    {
      "midi": 60,
      "hit": false,
      "t": 206969.49000000115,
      "d": 1363.6350000000093,
      "v": 70
    },
    {
      "midi": 63,
      "hit": false,
      "t": 206969.49000000115,
      "d": 1363.6350000000093,
      "v": 65
    },
    {
      "midi": 66,
      "hit": false,
      "t": 206969.49000000115,
      "d": 1363.6350000000093,
      "v": 69
    },
    {
      "midi": 69,
      "hit": false,
      "t": 206969.49000000115,
      "d": 1363.6350000000093,
      "v": 68
    },
    {
      "midi": 58,
      "hit": false,
      "t": 208484.64000000118,
      "d": 1666.6650000000081,
      "v": 64
    },
    {
      "midi": 61,
      "hit": false,
      "t": 208484.64000000118,
      "d": 1666.6650000000081,
      "v": 62
    },
    {
      "midi": 65,
      "hit": false,
      "t": 208484.64000000118,
      "d": 1666.6650000000081,
      "v": 65
    },
    {
      "midi": 68,
      "hit": false,
      "t": 208484.64000000118,
      "d": 1666.6650000000081,
      "v": 69
    },
    {
      "midi": 72,
      "hit": false,
      "t": 208484.64000000118,
      "d": 1666.6650000000081,
      "v": 71
    },
    {
      "midi": 68,
      "hit": false,
      "t": 210302.8200000012,
      "d": 454.5450000000128,
      "v": 64
    },
    {
      "midi": 72,
      "hit": false,
      "t": 210302.8200000012,
      "d": 454.5450000000128,
      "v": 70
    },
    {
      "midi": 58,
      "hit": false,
      "t": 210302.8200000012,
      "d": 1363.6350000000384,
      "v": 64
    },
    {
      "midi": 61,
      "hit": false,
      "t": 210302.8200000012,
      "d": 1363.6350000000384,
      "v": 68
    },
    {
      "midi": 65,
      "hit": false,
      "t": 210302.8200000012,
      "d": 1363.6350000000384,
      "v": 69
    },
    {
      "midi": 54,
      "hit": false,
      "t": 210908.88000000123,
      "d": 757.5750000000116,
      "v": 65
    },
    {
      "midi": 70,
      "hit": false,
      "t": 210908.88000000123,
      "d": 757.5750000000116,
      "v": 63
    },
    {
      "midi": 54,
      "hit": false,
      "t": 211817.97000000125,
      "d": 1363.6350000000093,
      "v": 70
    },
    {
      "midi": 58,
      "hit": false,
      "t": 211817.97000000125,
      "d": 1363.6350000000093,
      "v": 67
    },
    {
      "midi": 61,
      "hit": false,
      "t": 211817.97000000125,
      "d": 1363.6350000000093,
      "v": 66
    },
    {
      "midi": 65,
      "hit": false,
      "t": 211817.97000000125,
      "d": 1363.6350000000093,
      "v": 64
    },
    {
      "midi": 70,
      "hit": false,
      "t": 211817.97000000125,
      "d": 1363.6350000000093,
      "v": 66
    },
    {
      "midi": 58,
      "hit": false,
      "t": 213333.12000000128,
      "d": 1969.695000000007,
      "v": 71
    },
    {
      "midi": 61,
      "hit": false,
      "t": 213333.12000000128,
      "d": 1969.695000000007,
      "v": 65
    },
    {
      "midi": 65,
      "hit": false,
      "t": 213333.12000000128,
      "d": 1969.695000000007,
      "v": 63
    },
    {
      "midi": 68,
      "hit": false,
      "t": 213333.12000000128,
      "d": 1969.695000000007,
      "v": 70
    },
    {
      "midi": 72,
      "hit": false,
      "t": 213333.12000000128,
      "d": 1969.695000000007,
      "v": 71
    },
    {
      "midi": 54,
      "hit": false,
      "t": 215757.3600000013,
      "d": 757.5750000000116,
      "v": 63
    },
    {
      "midi": 58,
      "hit": false,
      "t": 215757.3600000013,
      "d": 757.5750000000116,
      "v": 62
    },
    {
      "midi": 61,
      "hit": false,
      "t": 215757.3600000013,
      "d": 757.5750000000116,
      "v": 63
    },
    {
      "midi": 65,
      "hit": false,
      "t": 215757.3600000013,
      "d": 757.5750000000116,
      "v": 63
    },
    {
      "midi": 70,
      "hit": false,
      "t": 215757.3600000013,
      "d": 757.5750000000116,
      "v": 62
    },
    {
      "midi": 54,
      "hit": false,
      "t": 216666.45000000132,
      "d": 757.5750000000116,
      "v": 71
    },
    {
      "midi": 58,
      "hit": false,
      "t": 216666.45000000132,
      "d": 757.5750000000116,
      "v": 66
    },
    {
      "midi": 61,
      "hit": false,
      "t": 216666.45000000132,
      "d": 757.5750000000116,
      "v": 65
    },
    {
      "midi": 65,
      "hit": false,
      "t": 216666.45000000132,
      "d": 757.5750000000116,
      "v": 64
    },
    {
      "midi": 70,
      "hit": false,
      "t": 216666.45000000132,
      "d": 757.5750000000116,
      "v": 62
    },
    {
      "midi": 54,
      "hit": false,
      "t": 217575.54000000135,
      "d": 454.5450000000128,
      "v": 62
    },
    {
      "midi": 58,
      "hit": false,
      "t": 217575.54000000135,
      "d": 454.5450000000128,
      "v": 63
    },
    {
      "midi": 61,
      "hit": false,
      "t": 217575.54000000135,
      "d": 454.5450000000128,
      "v": 71
    },
    {
      "midi": 65,
      "hit": false,
      "t": 217575.54000000135,
      "d": 454.5450000000128,
      "v": 70
    },
    {
      "midi": 70,
      "hit": false,
      "t": 217575.54000000135,
      "d": 454.5450000000128,
      "v": 65
    },
    {
      "midi": 58,
      "hit": false,
      "t": 218181.60000000137,
      "d": 1666.6650000000081,
      "v": 63
    },
    {
      "midi": 61,
      "hit": false,
      "t": 218181.60000000137,
      "d": 1666.6650000000081,
      "v": 62
    },
    {
      "midi": 65,
      "hit": false,
      "t": 218181.60000000137,
      "d": 1666.6650000000081,
      "v": 67
    },
    {
      "midi": 68,
      "hit": false,
      "t": 218181.60000000137,
      "d": 1666.6650000000081,
      "v": 65
    },
    {
      "midi": 72,
      "hit": false,
      "t": 218181.60000000137,
      "d": 1666.6650000000081,
      "v": 71
    },
    {
      "midi": 68,
      "hit": false,
      "t": 219999.7800000014,
      "d": 454.5450000000128,
      "v": 65
    },
    {
      "midi": 72,
      "hit": false,
      "t": 219999.7800000014,
      "d": 454.5450000000128,
      "v": 69
    },
    {
      "midi": 58,
      "hit": false,
      "t": 219999.7800000014,
      "d": 1363.6350000000384,
      "v": 66
    },
    {
      "midi": 61,
      "hit": false,
      "t": 219999.7800000014,
      "d": 1363.6350000000384,
      "v": 66
    },
    {
      "midi": 65,
      "hit": false,
      "t": 219999.7800000014,
      "d": 1363.6350000000384,
      "v": 67
    },
    {
      "midi": 54,
      "hit": false,
      "t": 220605.84000000142,
      "d": 757.5750000000116,
      "v": 71
    },
    {
      "midi": 70,
      "hit": false,
      "t": 220605.84000000142,
      "d": 757.5750000000116,
      "v": 65
    },
    {
      "midi": 54,
      "hit": false,
      "t": 221514.93000000145,
      "d": 757.5750000000116,
      "v": 66
    },
    {
      "midi": 58,
      "hit": false,
      "t": 221514.93000000145,
      "d": 757.5750000000116,
      "v": 71
    },
    {
      "midi": 61,
      "hit": false,
      "t": 221514.93000000145,
      "d": 757.5750000000116,
      "v": 67
    },
    {
      "midi": 65,
      "hit": false,
      "t": 221514.93000000145,
      "d": 757.5750000000116,
      "v": 69
    },
    {
      "midi": 70,
      "hit": false,
      "t": 221514.93000000145,
      "d": 757.5750000000116,
      "v": 67
    },
    {
      "midi": 54,
      "hit": false,
      "t": 222424.02000000147,
      "d": 454.5450000000128,
      "v": 63
    },
    {
      "midi": 58,
      "hit": false,
      "t": 222424.02000000147,
      "d": 454.5450000000128,
      "v": 69
    },
    {
      "midi": 61,
      "hit": false,
      "t": 222424.02000000147,
      "d": 454.5450000000128,
      "v": 70
    },
    {
      "midi": 65,
      "hit": false,
      "t": 222424.02000000147,
      "d": 454.5450000000128,
      "v": 62
    },
    {
      "midi": 70,
      "hit": false,
      "t": 222424.02000000147,
      "d": 454.5450000000128,
      "v": 71
    },
    {
      "midi": 58,
      "hit": false,
      "t": 223030.0800000015,
      "d": 2272.725000000006,
      "v": 69
    },
    {
      "midi": 61,
      "hit": false,
      "t": 223030.0800000015,
      "d": 2272.725000000006,
      "v": 63
    },
    {
      "midi": 65,
      "hit": false,
      "t": 223030.0800000015,
      "d": 2272.725000000006,
      "v": 70
    },
    {
      "midi": 68,
      "hit": false,
      "t": 223030.0800000015,
      "d": 2272.725000000006,
      "v": 69
    },
    {
      "midi": 72,
      "hit": false,
      "t": 223030.0800000015,
      "d": 2272.725000000006,
      "v": 67
    },
    {
      "midi": 54,
      "hit": false,
      "t": 225454.32000000152,
      "d": 757.5750000000116,
      "v": 65
    },
    {
      "midi": 58,
      "hit": false,
      "t": 225454.32000000152,
      "d": 757.5750000000116,
      "v": 67
    },
    {
      "midi": 61,
      "hit": false,
      "t": 225454.32000000152,
      "d": 757.5750000000116,
      "v": 65
    },
    {
      "midi": 65,
      "hit": false,
      "t": 225454.32000000152,
      "d": 757.5750000000116,
      "v": 66
    },
    {
      "midi": 70,
      "hit": false,
      "t": 225454.32000000152,
      "d": 757.5750000000116,
      "v": 63
    },
    {
      "midi": 54,
      "hit": false,
      "t": 226363.41000000155,
      "d": 757.5750000000116,
      "v": 69
    },
    {
      "midi": 58,
      "hit": false,
      "t": 226363.41000000155,
      "d": 757.5750000000116,
      "v": 64
    },
    {
      "midi": 61,
      "hit": false,
      "t": 226363.41000000155,
      "d": 757.5750000000116,
      "v": 62
    },
    {
      "midi": 65,
      "hit": false,
      "t": 226363.41000000155,
      "d": 757.5750000000116,
      "v": 70
    },
    {
      "midi": 70,
      "hit": false,
      "t": 226363.41000000155,
      "d": 757.5750000000116,
      "v": 68
    },
    {
      "midi": 54,
      "hit": false,
      "t": 227272.50000000157,
      "d": 246.21187500000815,
      "v": 66
    },
    {
      "midi": 58,
      "hit": false,
      "t": 227272.50000000157,
      "d": 246.21187500000815,
      "v": 63
    },
    {
      "midi": 61,
      "hit": false,
      "t": 227272.50000000157,
      "d": 246.21187500000815,
      "v": 65
    },
    {
      "midi": 65,
      "hit": false,
      "t": 227272.50000000157,
      "d": 246.21187500000815,
      "v": 70
    },
    {
      "midi": 70,
      "hit": false,
      "t": 227272.50000000157,
      "d": 246.21187500000815,
      "v": 63
    },
    {
      "midi": 58,
      "hit": false,
      "t": 227878.56000000157,
      "d": 1666.6650000000081,
      "v": 66
    },
    {
      "midi": 61,
      "hit": false,
      "t": 227878.56000000157,
      "d": 1666.6650000000081,
      "v": 70
    },
    {
      "midi": 65,
      "hit": false,
      "t": 227878.56000000157,
      "d": 1666.6650000000081,
      "v": 67
    },
    {
      "midi": 68,
      "hit": false,
      "t": 227878.56000000157,
      "d": 1666.6650000000081,
      "v": 70
    },
    {
      "midi": 72,
      "hit": false,
      "t": 227878.56000000157,
      "d": 1666.6650000000081,
      "v": 69
    },
    {
      "midi": 68,
      "hit": false,
      "t": 229696.7400000016,
      "d": 454.5450000000128,
      "v": 65
    },
    {
      "midi": 72,
      "hit": false,
      "t": 229696.7400000016,
      "d": 454.5450000000128,
      "v": 71
    },
    {
      "midi": 58,
      "hit": false,
      "t": 229696.7400000016,
      "d": 1363.6350000000384,
      "v": 70
    },
    {
      "midi": 61,
      "hit": false,
      "t": 229696.7400000016,
      "d": 1363.6350000000384,
      "v": 71
    },
    {
      "midi": 65,
      "hit": false,
      "t": 229696.7400000016,
      "d": 1363.6350000000384,
      "v": 64
    },
    {
      "midi": 54,
      "hit": false,
      "t": 230302.80000000162,
      "d": 757.5750000000116,
      "v": 71
    },
    {
      "midi": 70,
      "hit": false,
      "t": 230302.80000000162,
      "d": 757.5750000000116,
      "v": 70
    },
    {
      "midi": 54,
      "hit": false,
      "t": 231211.89000000164,
      "d": 1060.6050000000105,
      "v": 71
    },
    {
      "midi": 58,
      "hit": false,
      "t": 231211.89000000164,
      "d": 1060.6050000000105,
      "v": 62
    },
    {
      "midi": 61,
      "hit": false,
      "t": 231211.89000000164,
      "d": 1060.6050000000105,
      "v": 68
    },
    {
      "midi": 65,
      "hit": false,
      "t": 231211.89000000164,
      "d": 1060.6050000000105,
      "v": 65
    },
    {
      "midi": 70,
      "hit": false,
      "t": 231211.89000000164,
      "d": 1060.6050000000105,
      "v": 66
    },
    {
      "midi": 61,
      "hit": false,
      "t": 232727.04000000167,
      "d": 1969.695000000007,
      "v": 67
    },
    {
      "midi": 58,
      "hit": false,
      "t": 232727.04000000167,
      "d": 2272.725000000006,
      "v": 65
    },
    {
      "midi": 65,
      "hit": false,
      "t": 232727.04000000167,
      "d": 2272.725000000006,
      "v": 62
    },
    {
      "midi": 68,
      "hit": false,
      "t": 232727.04000000167,
      "d": 2272.725000000006,
      "v": 66
    },
    {
      "midi": 72,
      "hit": false,
      "t": 232727.04000000167,
      "d": 2272.725000000006,
      "v": 70
    },
    {
      "midi": 54,
      "hit": false,
      "t": 235151.2800000017,
      "d": 757.5750000000116,
      "v": 69
    },
    {
      "midi": 58,
      "hit": false,
      "t": 235151.2800000017,
      "d": 757.5750000000116,
      "v": 68
    },
    {
      "midi": 61,
      "hit": false,
      "t": 235151.2800000017,
      "d": 757.5750000000116,
      "v": 69
    },
    {
      "midi": 65,
      "hit": false,
      "t": 235151.2800000017,
      "d": 757.5750000000116,
      "v": 62
    },
    {
      "midi": 70,
      "hit": false,
      "t": 235151.2800000017,
      "d": 757.5750000000116,
      "v": 66
    },
    {
      "midi": 54,
      "hit": false,
      "t": 236060.3700000017,
      "d": 1363.6350000000093,
      "v": 71
    },
    {
      "midi": 58,
      "hit": false,
      "t": 236060.3700000017,
      "d": 1363.6350000000093,
      "v": 64
    },
    {
      "midi": 61,
      "hit": false,
      "t": 236060.3700000017,
      "d": 1363.6350000000093,
      "v": 67
    },
    {
      "midi": 65,
      "hit": false,
      "t": 236060.3700000017,
      "d": 1363.6350000000093,
      "v": 66
    },
    {
      "midi": 70,
      "hit": false,
      "t": 236060.3700000017,
      "d": 1363.6350000000093,
      "v": 70
    },
    {
      "midi": 58,
      "hit": false,
      "t": 237575.52000000174,
      "d": 1666.6650000000081,
      "v": 69
    },
    {
      "midi": 61,
      "hit": false,
      "t": 237575.52000000174,
      "d": 1666.6650000000081,
      "v": 62
    },
    {
      "midi": 65,
      "hit": false,
      "t": 237575.52000000174,
      "d": 1666.6650000000081,
      "v": 67
    },
    {
      "midi": 68,
      "hit": false,
      "t": 237575.52000000174,
      "d": 1666.6650000000081,
      "v": 66
    },
    {
      "midi": 72,
      "hit": false,
      "t": 237575.52000000174,
      "d": 1666.6650000000081,
      "v": 62
    },
    {
      "midi": 68,
      "hit": false,
      "t": 239393.70000000176,
      "d": 454.5450000000128,
      "v": 62
    },
    {
      "midi": 72,
      "hit": false,
      "t": 239393.70000000176,
      "d": 454.5450000000128,
      "v": 66
    },
    {
      "midi": 58,
      "hit": false,
      "t": 239393.70000000176,
      "d": 1363.6350000000384,
      "v": 66
    },
    {
      "midi": 61,
      "hit": false,
      "t": 239393.70000000176,
      "d": 1363.6350000000384,
      "v": 62
    },
    {
      "midi": 65,
      "hit": false,
      "t": 239393.70000000176,
      "d": 1363.6350000000384,
      "v": 65
    },
    {
      "midi": 54,
      "hit": false,
      "t": 239999.76000000178,
      "d": 757.5750000000116,
      "v": 62
    },
    {
      "midi": 70,
      "hit": false,
      "t": 239999.76000000178,
      "d": 757.5750000000116,
      "v": 63
    },
    {
      "midi": 54,
      "hit": false,
      "t": 240908.8500000018,
      "d": 1363.6350000000093,
      "v": 71
    },
    {
      "midi": 58,
      "hit": false,
      "t": 240908.8500000018,
      "d": 1363.6350000000093,
      "v": 67
    },
    {
      "midi": 61,
      "hit": false,
      "t": 240908.8500000018,
      "d": 1363.6350000000093,
      "v": 62
    },
    {
      "midi": 65,
      "hit": false,
      "t": 240908.8500000018,
      "d": 1363.6350000000093,
      "v": 65
    },
    {
      "midi": 70,
      "hit": false,
      "t": 240908.8500000018,
      "d": 1363.6350000000093,
      "v": 64
    },
    {
      "midi": 58,
      "hit": false,
      "t": 242424.00000000183,
      "d": 1969.695000000007,
      "v": 71
    },
    {
      "midi": 61,
      "hit": false,
      "t": 242424.00000000183,
      "d": 1969.695000000007,
      "v": 69
    },
    {
      "midi": 65,
      "hit": false,
      "t": 242424.00000000183,
      "d": 1969.695000000007,
      "v": 66
    },
    {
      "midi": 68,
      "hit": false,
      "t": 242424.00000000183,
      "d": 1969.695000000007,
      "v": 62
    },
    {
      "midi": 72,
      "hit": false,
      "t": 242424.00000000183,
      "d": 1969.695000000007,
      "v": 71
    },
    {
      "midi": 54,
      "hit": false,
      "t": 244848.24000000185,
      "d": 757.5750000000116,
      "v": 65
    },
    {
      "midi": 58,
      "hit": false,
      "t": 244848.24000000185,
      "d": 757.5750000000116,
      "v": 66
    },
    {
      "midi": 61,
      "hit": false,
      "t": 244848.24000000185,
      "d": 757.5750000000116,
      "v": 64
    },
    {
      "midi": 65,
      "hit": false,
      "t": 244848.24000000185,
      "d": 757.5750000000116,
      "v": 68
    },
    {
      "midi": 70,
      "hit": false,
      "t": 244848.24000000185,
      "d": 757.5750000000116,
      "v": 70
    },
    {
      "midi": 54,
      "hit": false,
      "t": 245757.33000000188,
      "d": 1363.6350000000093,
      "v": 70
    },
    {
      "midi": 58,
      "hit": false,
      "t": 245757.33000000188,
      "d": 1363.6350000000093,
      "v": 71
    },
    {
      "midi": 61,
      "hit": false,
      "t": 245757.33000000188,
      "d": 1363.6350000000093,
      "v": 69
    },
    {
      "midi": 65,
      "hit": false,
      "t": 245757.33000000188,
      "d": 1363.6350000000093,
      "v": 69
    },
    {
      "midi": 70,
      "hit": false,
      "t": 245757.33000000188,
      "d": 1363.6350000000093,
      "v": 62
    },
    {
      "midi": 58,
      "hit": false,
      "t": 247272.4800000019,
      "d": 1666.6650000000081,
      "v": 64
    },
    {
      "midi": 61,
      "hit": false,
      "t": 247272.4800000019,
      "d": 1666.6650000000081,
      "v": 69
    },
    {
      "midi": 65,
      "hit": false,
      "t": 247272.4800000019,
      "d": 1666.6650000000081,
      "v": 66
    },
    {
      "midi": 68,
      "hit": false,
      "t": 247272.4800000019,
      "d": 1666.6650000000081,
      "v": 64
    },
    {
      "midi": 72,
      "hit": false,
      "t": 247272.4800000019,
      "d": 1666.6650000000081,
      "v": 62
    },
    {
      "midi": 68,
      "hit": false,
      "t": 249090.66000000192,
      "d": 454.5450000000128,
      "v": 65
    },
    {
      "midi": 72,
      "hit": false,
      "t": 249090.66000000192,
      "d": 454.5450000000128,
      "v": 68
    },
    {
      "midi": 58,
      "hit": false,
      "t": 249090.66000000192,
      "d": 1363.6350000000384,
      "v": 71
    },
    {
      "midi": 61,
      "hit": false,
      "t": 249090.66000000192,
      "d": 1363.6350000000384,
      "v": 62
    },
    {
      "midi": 65,
      "hit": false,
      "t": 249090.66000000192,
      "d": 1363.6350000000384,
      "v": 66
    },
    {
      "midi": 54,
      "hit": false,
      "t": 249696.72000000195,
      "d": 757.5750000000116,
      "v": 64
    },
    {
      "midi": 70,
      "hit": false,
      "t": 249696.72000000195,
      "d": 757.5750000000116,
      "v": 66
    },
    {
      "midi": 54,
      "hit": false,
      "t": 250605.81000000198,
      "d": 1060.6050000000105,
      "v": 68
    },
    {
      "midi": 58,
      "hit": false,
      "t": 250605.81000000198,
      "d": 1060.6050000000105,
      "v": 63
    },
    {
      "midi": 61,
      "hit": false,
      "t": 250605.81000000198,
      "d": 1060.6050000000105,
      "v": 65
    },
    {
      "midi": 65,
      "hit": false,
      "t": 250605.81000000198,
      "d": 1060.6050000000105,
      "v": 62
    },
    {
      "midi": 70,
      "hit": false,
      "t": 250605.81000000198,
      "d": 1060.6050000000105,
      "v": 65
    },
    {
      "midi": 61,
      "hit": false,
      "t": 252120.960000002,
      "d": 1969.695000000007,
      "v": 71
    },
    {
      "midi": 58,
      "hit": false,
      "t": 252120.960000002,
      "d": 2272.725000000006,
      "v": 62
    },
    {
      "midi": 65,
      "hit": false,
      "t": 252120.960000002,
      "d": 2272.725000000006,
      "v": 67
    },
    {
      "midi": 68,
      "hit": false,
      "t": 252120.960000002,
      "d": 2272.725000000006,
      "v": 62
    },
    {
      "midi": 72,
      "hit": false,
      "t": 252120.960000002,
      "d": 2272.725000000006,
      "v": 71
    },
    {
      "midi": 54,
      "hit": false,
      "t": 254545.20000000202,
      "d": 757.5750000000116,
      "v": 66
    },
    {
      "midi": 58,
      "hit": false,
      "t": 254545.20000000202,
      "d": 757.5750000000116,
      "v": 71
    },
    {
      "midi": 61,
      "hit": false,
      "t": 254545.20000000202,
      "d": 757.5750000000116,
      "v": 69
    },
    {
      "midi": 65,
      "hit": false,
      "t": 254545.20000000202,
      "d": 757.5750000000116,
      "v": 71
    },
    {
      "midi": 70,
      "hit": false,
      "t": 254545.20000000202,
      "d": 757.5750000000116,
      "v": 68
    },
    {
      "midi": 54,
      "hit": false,
      "t": 255454.29000000205,
      "d": 1363.6350000000093,
      "v": 66
    },
    {
      "midi": 58,
      "hit": false,
      "t": 255454.29000000205,
      "d": 1363.6350000000093,
      "v": 65
    },
    {
      "midi": 61,
      "hit": false,
      "t": 255454.29000000205,
      "d": 1363.6350000000093,
      "v": 71
    },
    {
      "midi": 65,
      "hit": false,
      "t": 255454.29000000205,
      "d": 1363.6350000000093,
      "v": 69
    },
    {
      "midi": 70,
      "hit": false,
      "t": 255454.29000000205,
      "d": 1363.6350000000093,
      "v": 71
    },
    {
      "midi": 58,
      "hit": false,
      "t": 256969.44000000207,
      "d": 1666.6650000000081,
      "v": 67
    },
    {
      "midi": 61,
      "hit": false,
      "t": 256969.44000000207,
      "d": 1666.6650000000081,
      "v": 69
    },
    {
      "midi": 65,
      "hit": false,
      "t": 256969.44000000207,
      "d": 1666.6650000000081,
      "v": 66
    },
    {
      "midi": 68,
      "hit": false,
      "t": 256969.44000000207,
      "d": 1666.6650000000081,
      "v": 70
    },
    {
      "midi": 72,
      "hit": false,
      "t": 256969.44000000207,
      "d": 1666.6650000000081,
      "v": 64
    },
    {
      "midi": 68,
      "hit": false,
      "t": 258787.6200000021,
      "d": 454.5450000000128,
      "v": 69
    },
    {
      "midi": 72,
      "hit": false,
      "t": 258787.6200000021,
      "d": 454.5450000000128,
      "v": 63
    },
    {
      "midi": 58,
      "hit": false,
      "t": 258787.6200000021,
      "d": 1363.6350000000384,
      "v": 70
    },
    {
      "midi": 61,
      "hit": false,
      "t": 258787.6200000021,
      "d": 1363.6350000000384,
      "v": 70
    },
    {
      "midi": 65,
      "hit": false,
      "t": 258787.6200000021,
      "d": 1363.6350000000384,
      "v": 69
    },
    {
      "midi": 54,
      "hit": false,
      "t": 259393.68000000212,
      "d": 757.5750000000116,
      "v": 70
    },
    {
      "midi": 70,
      "hit": false,
      "t": 259393.68000000212,
      "d": 757.5750000000116,
      "v": 71
    },
    {
      "midi": 54,
      "hit": false,
      "t": 260302.77000000214,
      "d": 1363.6350000000093,
      "v": 64
    },
    {
      "midi": 58,
      "hit": false,
      "t": 260302.77000000214,
      "d": 1363.6350000000093,
      "v": 66
    },
    {
      "midi": 61,
      "hit": false,
      "t": 260302.77000000214,
      "d": 1363.6350000000093,
      "v": 70
    },
    {
      "midi": 65,
      "hit": false,
      "t": 260302.77000000214,
      "d": 1363.6350000000093,
      "v": 71
    },
    {
      "midi": 70,
      "hit": false,
      "t": 260302.77000000214,
      "d": 1363.6350000000093,
      "v": 71
    },
    {
      "midi": 58,
      "hit": false,
      "t": 261817.92000000217,
      "d": 1969.6949999999779,
      "v": 63
    },
    {
      "midi": 61,
      "hit": false,
      "t": 261817.92000000217,
      "d": 1969.6949999999779,
      "v": 62
    },
    {
      "midi": 65,
      "hit": false,
      "t": 261817.92000000217,
      "d": 1969.6949999999779,
      "v": 65
    },
    {
      "midi": 68,
      "hit": false,
      "t": 261817.92000000217,
      "d": 1969.6949999999779,
      "v": 63
    },
    {
      "midi": 72,
      "hit": false,
      "t": 261817.92000000217,
      "d": 1969.6949999999779,
      "v": 67
    },
    {
      "midi": 54,
      "hit": false,
      "t": 264242.1600000021,
      "d": 757.5750000000116,
      "v": 69
    },
    {
      "midi": 58,
      "hit": false,
      "t": 264242.1600000021,
      "d": 757.5750000000116,
      "v": 63
    },
    {
      "midi": 61,
      "hit": false,
      "t": 264242.1600000021,
      "d": 757.5750000000116,
      "v": 66
    },
    {
      "midi": 65,
      "hit": false,
      "t": 264242.1600000021,
      "d": 757.5750000000116,
      "v": 66
    },
    {
      "midi": 70,
      "hit": false,
      "t": 264242.1600000021,
      "d": 757.5750000000116,
      "v": 64
    },
    {
      "midi": 54,
      "hit": false,
      "t": 265151.25000000215,
      "d": 1363.6350000000093,
      "v": 68
    },
    {
      "midi": 58,
      "hit": false,
      "t": 265151.25000000215,
      "d": 1363.6350000000093,
      "v": 69
    },
    {
      "midi": 61,
      "hit": false,
      "t": 265151.25000000215,
      "d": 1363.6350000000093,
      "v": 71
    },
    {
      "midi": 65,
      "hit": false,
      "t": 265151.25000000215,
      "d": 1363.6350000000093,
      "v": 66
    },
    {
      "midi": 70,
      "hit": false,
      "t": 265151.25000000215,
      "d": 1363.6350000000093,
      "v": 67
    },
    {
      "midi": 58,
      "hit": false,
      "t": 271817.9100000022,
      "d": 246.21187499997905,
      "v": 65
    },
    {
      "midi": 61,
      "hit": false,
      "t": 271817.9100000022,
      "d": 246.21187499997905,
      "v": 71
    },
    {
      "midi": 63,
      "hit": false,
      "t": 271817.9100000022,
      "d": 246.21187499997905,
      "v": 70
    },
    {
      "midi": 66,
      "hit": false,
      "t": 271817.9100000022,
      "d": 246.21187499997905,
      "v": 66
    },
    {
      "midi": 70,
      "hit": false,
      "t": 271817.9100000022,
      "d": 246.21187499997905,
      "v": 70
    },
    {
      "midi": 58,
      "hit": false,
      "t": 272727.00000000215,
      "d": 246.21187499997905,
      "v": 69
    },
    {
      "midi": 61,
      "hit": false,
      "t": 272727.00000000215,
      "d": 246.21187499997905,
      "v": 62
    },
    {
      "midi": 63,
      "hit": false,
      "t": 272727.00000000215,
      "d": 246.21187499997905,
      "v": 62
    },
    {
      "midi": 66,
      "hit": false,
      "t": 272727.00000000215,
      "d": 246.21187499997905,
      "v": 67
    },
    {
      "midi": 70,
      "hit": false,
      "t": 272727.00000000215,
      "d": 246.21187499997905,
      "v": 71
    },
    {
      "midi": 58,
      "hit": false,
      "t": 273939.12000000215,
      "d": 246.21187499997905,
      "v": 70
    },
    {
      "midi": 61,
      "hit": false,
      "t": 273939.12000000215,
      "d": 246.21187499997905,
      "v": 66
    },
    {
      "midi": 63,
      "hit": false,
      "t": 273939.12000000215,
      "d": 246.21187499997905,
      "v": 71
    },
    {
      "midi": 66,
      "hit": false,
      "t": 273939.12000000215,
      "d": 246.21187499997905,
      "v": 70
    },
    {
      "midi": 70,
      "hit": false,
      "t": 273939.12000000215,
      "d": 246.21187499997905,
      "v": 70
    },
    {
      "midi": 60,
      "hit": false,
      "t": 274848.2100000021,
      "d": 1363.6350000000093,
      "v": 66
    },
    {
      "midi": 63,
      "hit": false,
      "t": 274848.2100000021,
      "d": 1363.6350000000093,
      "v": 69
    },
    {
      "midi": 66,
      "hit": false,
      "t": 274848.2100000021,
      "d": 1363.6350000000093,
      "v": 67
    },
    {
      "midi": 69,
      "hit": false,
      "t": 274848.2100000021,
      "d": 1363.6350000000093,
      "v": 68
    },
    {
      "midi": 58,
      "hit": false,
      "t": 276363.36000000214,
      "d": 4696.965000000026,
      "v": 70
    },
    {
      "midi": 61,
      "hit": false,
      "t": 276363.36000000214,
      "d": 4696.965000000026,
      "v": 64
    },
    {
      "midi": 65,
      "hit": false,
      "t": 276363.36000000214,
      "d": 4696.965000000026,
      "v": 64
    },
    {
      "midi": 68,
      "hit": false,
      "t": 276363.36000000214,
      "d": 4696.965000000026,
      "v": 66
    },
    {
      "midi": 72,
      "hit": false,
      "t": 276363.36000000214,
      "d": 4696.965000000026,
      "v": 70
    }
  ]
}