{
  "jsonPath": "Rock/Swedish Indie Rock/Love Is All/take-your-time.json",
  "path": "Rock\\Swedish Indie Rock\\Love Is All\\Take Your Time.mid",
  "name": "Take Your Time",
  "difficulty": "Advanced",
  "bpm": 160,
  "notes": [
    {
      "midi": 60,
      "hit": false,
      "t": 32000,
      "d": 1000,
      "v": 57
    },
    {
      "midi": 67,
      "hit": false,
      "t": 32000,
      "d": 1750,
      "v": 57
    },
    {
      "midi": 67,
      "hit": false,
      "t": 34000,
      "d": 1000,
      "v": 57
    },
    {
      "midi": 69,
      "hit": false,
      "t": 35000,
      "d": 500,
      "v": 57
    },
    {
      "midi": 67,
      "hit": false,
      "t": 35250,
      "d": 500,
      "v": 57
    },
    {
      "midi": 65,
      "hit": false,
      "t": 35500,
      "d": 500,
      "v": 57
    },
    {
      "midi": 64,
      "hit": false,
      "t": 36000,
      "d": 3000,
      "v": 57
    },
    {
      "midi": 65,
      "hit": false,
      "t": 39000,
      "d": 500,
      "v": 57
    },
    {
      "midi": 64,
      "hit": false,
      "t": 39250,
      "d": 500,
      "v": 57
    },
    {
      "midi": 62,
      "hit": false,
      "t": 39500,
      "d": 500,
      "v": 57
    },
    {
      "midi": 60,
      "hit": false,
      "t": 40000,
      "d": 2750,
      "v": 57
    },
    {
      "midi": 60,
      "hit": false,
      "t": 43500,
      "d": 500,
      "v": 57
    },
    {
      "midi": 62,
      "hit": false,
      "t": 44000,
      "d": 1000,
      "v": 57
    },
    {
      "midi": 64,
      "hit": false,
      "t": 45000,
      "d": 500,
      "v": 57
    },
    {
      "midi": 65,
      "hit": false,
      "t": 45500,
      "d": 500,
      "v": 57
    },
    {
      "midi": 62,
      "hit": false,
      "t": 46000,
      "d": 1000,
      "v": 57
    },
    {
      "midi": 64,
      "hit": false,
      "t": 47000,
      "d": 500,
      "v": 57
    },
    {
      "midi": 65,
      "hit": false,
      "t": 47500,
      "d": 250,
      "v": 57
    },
    {
      "midi": 88,
      "hit": false,
      "t": 48000,
      "d": 500,
      "v": 69
    },
    {
      "midi": 60,
      "hit": false,
      "t": 48000,
      "d": 1000,
      "v": 77
    },
    {
      "midi": 79,
      "hit": false,
      "t": 48000,
      "d": 1750,
      "v": 57
    },
    {
      "midi": 67,
      "hit": false,
      "t": 48000,
      "d": 2000,
      "v": 57
    },
    {
      "midi": 79,
      "hit": false,
      "t": 48500,
      "d": 500,
      "v": 69
    },
    {
      "midi": 72,
      "hit": false,
      "t": 49000,
      "d": 250,
      "v": 66
    },
    {
      "midi": 88,
      "hit": false,
      "t": 49000,
      "d": 500,
      "v": 69
    },
    {
      "midi": 91,
      "hit": false,
      "t": 49500,
      "d": 250,
      "v": 65
    },
    {
      "midi": 86,
      "hit": false,
      "t": 50000,
      "d": 500,
      "v": 67
    },
    {
      "midi": 55,
      "hit": false,
      "t": 50000,
      "d": 1000,
      "v": 70
    },
    {
      "midi": 79,
      "hit": false,
      "t": 50000,
      "d": 1000,
      "v": 57
    },
    {
      "midi": 79,
      "hit": false,
      "t": 50500,
      "d": 500,
      "v": 62
    },
    {
      "midi": 67,
      "hit": false,
      "t": 51000,
      "d": 500,
      "v": 69
    },
    {
      "midi": 83,
      "hit": false,
      "t": 51000,
      "d": 500,
      "v": 72
    },
    {
      "midi": 81,
      "hit": false,
      "t": 51000,
      "d": 500,
      "v": 57
    },
    {
      "midi": 79,
      "hit": false,
      "t": 51250,
      "d": 500,
      "v": 57
    },
    {
      "midi": 86,
      "hit": false,
      "t": 51500,
      "d": 250,
      "v": 63
    },
    {
      "midi": 68,
      "hit": false,
      "t": 51500,
      "d": 500,
      "v": 62
    },
    {
      "midi": 77,
      "hit": false,
      "t": 51500,
      "d": 500,
      "v": 57
    },
    {
      "midi": 84,
      "hit": false,
      "t": 52000,
      "d": 500,
      "v": 74
    },
    {
      "midi": 69,
      "hit": false,
      "t": 52000,
      "d": 1000,
      "v": 70
    },
    {
      "midi": 76,
      "hit": false,
      "t": 52000,
      "d": 3000,
      "v": 57
    },
    {
      "midi": 76,
      "hit": false,
      "t": 52500,
      "d": 750,
      "v": 60
    },
    {
      "midi": 57,
      "hit": false,
      "t": 53000,
      "d": 500,
      "v": 63
    },
    {
      "midi": 81,
      "hit": false,
      "t": 53000,
      "d": 500,
      "v": 57
    },
    {
      "midi": 88,
      "hit": false,
      "t": 53500,
      "d": 250,
      "v": 63
    },
    {
      "midi": 83,
      "hit": false,
      "t": 54000,
      "d": 500,
      "v": 70
    },
    {
      "midi": 52,
      "hit": false,
      "t": 54000,
      "d": 1000,
      "v": 73
    },
    {
      "midi": 76,
      "hit": false,
      "t": 54500,
      "d": 500,
      "v": 60
    },
    {
      "midi": 64,
      "hit": false,
      "t": 55000,
      "d": 250,
      "v": 56
    },
    {
      "midi": 79,
      "hit": false,
      "t": 55000,
      "d": 500,
      "v": 70
    },
    {
      "midi": 77,
      "hit": false,
      "t": 55000,
      "d": 500,
      "v": 57
    },
    {
      "midi": 76,
      "hit": false,
      "t": 55250,
      "d": 500,
      "v": 57
    },
    {
      "midi": 83,
      "hit": false,
      "t": 55500,
      "d": 250,
      "v": 63
    },
    {
      "midi": 74,
      "hit": false,
      "t": 55500,
      "d": 500,
      "v": 57
    },
    {
      "midi": 81,
      "hit": false,
      "t": 56000,
      "d": 500,
      "v": 70
    },
    {
      "midi": 53,
      "hit": false,
      "t": 56000,
      "d": 1000,
      "v": 70
    },
    {
      "midi": 72,
      "hit": false,
      "t": 56000,
      "d": 2750,
      "v": 57
    },
    {
      "midi": 72,
      "hit": false,
      "t": 56500,
      "d": 750,
      "v": 66
    },
    {
      "midi": 65,
      "hit": false,
      "t": 57000,
      "d": 250,
      "v": 62
    },
    {
      "midi": 77,
      "hit": false,
      "t": 57000,
      "d": 500,
      "v": 67
    },
    {
      "midi": 84,
      "hit": false,
      "t": 57500,
      "d": 250,
      "v": 66
    },
    {
      "midi": 79,
      "hit": false,
      "t": 58000,
      "d": 500,
      "v": 65
    },
    {
      "midi": 48,
      "hit": false,
      "t": 58000,
      "d": 1000,
      "v": 71
    },
    {
      "midi": 72,
      "hit": false,
      "t": 58500,
      "d": 500,
      "v": 66
    },
    {
      "midi": 60,
      "hit": false,
      "t": 59000,
      "d": 250,
      "v": 63
    },
    {
      "midi": 76,
      "hit": false,
      "t": 59000,
      "d": 500,
      "v": 69
    },
    {
      "midi": 79,
      "hit": false,
      "t": 59500,
      "d": 250,
      "v": 70
    },
    {
      "midi": 72,
      "hit": false,
      "t": 59500,
      "d": 500,
      "v": 56
    },
    {
      "midi": 81,
      "hit": false,
      "t": 60000,
      "d": 500,
      "v": 66
    },
    {
      "midi": 53,
      "hit": false,
      "t": 60000,
      "d": 1000,
      "v": 66
    },
    {
      "midi": 74,
      "hit": false,
      "t": 60000,
      "d": 1000,
      "v": 56
    },
    {
      "midi": 72,
      "hit": false,
      "t": 60500,
      "d": 750,
      "v": 67
    },
    {
      "midi": 65,
      "hit": false,
      "t": 61000,
      "d": 250,
      "v": 59
    },
    {
      "midi": 77,
      "hit": false,
      "t": 61000,
      "d": 500,
      "v": 66
    },
    {
      "midi": 76,
      "hit": false,
      "t": 61000,
      "d": 500,
      "v": 56
    },
    {
      "midi": 81,
      "hit": false,
      "t": 61500,
      "d": 250,
      "v": 65
    },
    {
      "midi": 77,
      "hit": false,
      "t": 61500,
      "d": 500,
      "v": 56
    },
    {
      "midi": 83,
      "hit": false,
      "t": 62000,
      "d": 500,
      "v": 69
    },
    {
      "midi": 55,
      "hit": false,
      "t": 62000,
      "d": 1000,
      "v": 70
    },
    {
      "midi": 74,
      "hit": false,
      "t": 62000,
      "d": 1000,
      "v": 56
    },
    {
      "midi": 74,
      "hit": false,
      "t": 62500,
      "d": 500,
      "v": 62
    },
    {
      "midi": 67,
      "hit": false,
      "t": 63000,
      "d": 250,
      "v": 62
    },
    {
      "midi": 79,
      "hit": false,
      "t": 63000,
      "d": 500,
      "v": 62
    },
    {
      "midi": 76,
      "hit": false,
      "t": 63000,
      "d": 500,
      "v": 56
    },
    {
      "midi": 83,
      "hit": false,
      "t": 63500,
      "d": 250,
      "v": 70
    },
    {
      "midi": 77,
      "hit": false,
      "t": 63500,
      "d": 250,
      "v": 56
    },
    {
      "midi": 88,
      "hit": false,
      "t": 64000,
      "d": 500,
      "v": 62
    },
    {
      "midi": 60,
      "hit": false,
      "t": 64000,
      "d": 1000,
      "v": 70
    },
    {
      "midi": 79,
      "hit": false,
      "t": 64000,
      "d": 2000,
      "v": 56
    },
    {
      "midi": 79,
      "hit": false,
      "t": 64500,
      "d": 750,
      "v": 62
    },
    {
      "midi": 72,
      "hit": false,
      "t": 65000,
      "d": 250,
      "v": 67
    },
    {
      "midi": 84,
      "hit": false,
      "t": 65000,
      "d": 500,
      "v": 75
    },
    {
      "midi": 91,
      "hit": false,
      "t": 65500,
      "d": 250,
      "v": 64
    },
    {
      "midi": 86,
      "hit": false,
      "t": 66000,
      "d": 500,
      "v": 69
    },
    {
      "midi": 55,
      "hit": false,
      "t": 66000,
      "d": 1000,
      "v": 71
    },
    {
      "midi": 79,
      "hit": false,
      "t": 66500,
      "d": 750,
      "v": 66
    },
    {
      "midi": 67,
      "hit": false,
      "t": 67000,
      "d": 500,
      "v": 65
    },
    {
      "midi": 83,
      "hit": false,
      "t": 67000,
      "d": 500,
      "v": 72
    },
    {
      "midi": 86,
      "hit": false,
      "t": 67500,
      "d": 250,
      "v": 69
    },
    {
      "midi": 68,
      "hit": false,
      "t": 67500,
      "d": 500,
      "v": 61
    },
    {
      "midi": 84,
      "hit": false,
      "t": 68000,
      "d": 500,
      "v": 75
    },
    {
      "midi": 69,
      "hit": false,
      "t": 68000,
      "d": 1000,
      "v": 68
    },
    {
      "midi": 76,
      "hit": false,
      "t": 68500,
      "d": 750,
      "v": 62
    },
    {
      "midi": 81,
      "hit": false,
      "t": 69000,
      "d": 250,
      "v": 65
    },
    {
      "midi": 57,
      "hit": false,
      "t": 69000,
      "d": 1000,
      "v": 69
    },
    {
      "midi": 88,
      "hit": false,
      "t": 69500,
      "d": 250,
      "v": 63
    },
    {
      "midi": 83,
      "hit": false,
      "t": 70000,
      "d": 500,
      "v": 69
    },
    {
      "midi": 64,
      "hit": false,
      "t": 70000,
      "d": 1000,
      "v": 61
    },
    {
      "midi": 76,
      "hit": false,
      "t": 70500,
      "d": 500,
      "v": 60
    },
    {
      "midi": 52,
      "hit": false,
      "t": 71000,
      "d": 500,
      "v": 59
    },
    {
      "midi": 79,
      "hit": false,
      "t": 71000,
      "d": 500,
      "v": 65
    },
    {
      "midi": 83,
      "hit": false,
      "t": 71500,
      "d": 250,
      "v": 70
    },
    {
      "midi": 81,
      "hit": false,
      "t": 72000,
      "d": 500,
      "v": 65
    },
    {
      "midi": 53,
      "hit": false,
      "t": 72000,
      "d": 1000,
      "v": 70
    },
    {
      "midi": 72,
      "hit": false,
      "t": 72500,
      "d": 750,
      "v": 59
    },
    {
      "midi": 65,
      "hit": false,
      "t": 73000,
      "d": 250,
      "v": 62
    },
    {
      "midi": 77,
      "hit": false,
      "t": 73000,
      "d": 500,
      "v": 66
    },
    {
      "midi": 84,
      "hit": false,
      "t": 73500,
      "d": 250,
      "v": 66
    },
    {
      "midi": 79,
      "hit": false,
      "t": 74000,
      "d": 500,
      "v": 63
    },
    {
      "midi": 48,
      "hit": false,
      "t": 74000,
      "d": 1000,
      "v": 70
    },
    {
      "midi": 72,
      "hit": false,
      "t": 74500,
      "d": 750,
      "v": 47
    },
    {
      "midi": 60,
      "hit": false,
      "t": 75000,
      "d": 250,
      "v": 62
    },
    {
      "midi": 76,
      "hit": false,
      "t": 75000,
      "d": 500,
      "v": 60
    },
    {
      "midi": 79,
      "hit": false,
      "t": 75500,
      "d": 250,
      "v": 62
    },
    {
      "midi": 81,
      "hit": false,
      "t": 76000,
      "d": 500,
      "v": 63
    },
    {
      "midi": 53,
      "hit": false,
      "t": 76000,
      "d": 1000,
      "v": 70
    },
    {
      "midi": 72,
      "hit": false,
      "t": 76500,
      "d": 750,
      "v": 67
    },
    {
      "midi": 65,
      "hit": false,
      "t": 77000,
      "d": 250,
      "v": 65
    },
    {
      "midi": 77,
      "hit": false,
      "t": 77000,
      "d": 500,
      "v": 69
    },
    {
      "midi": 81,
      "hit": false,
      "t": 77500,
      "d": 250,
      "v": 65
    },
    {
      "midi": 83,
      "hit": false,
      "t": 78000,
      "d": 500,
      "v": 70
    },
    {
      "midi": 55,
      "hit": false,
      "t": 78000,
      "d": 1000,
      "v": 70
    },
    {
      "midi": 74,
      "hit": false,
      "t": 78500,
      "d": 500,
      "v": 69
    },
    {
      "midi": 67,
      "hit": false,
      "t": 79000,
      "d": 250,
      "v": 67
    },
    {
      "midi": 79,
      "hit": false,
      "t": 79000,
      "d": 500,
      "v": 72
    },
    {
      "midi": 83,
      "hit": false,
      "t": 79500,
      "d": 250,
      "v": 71
    },
    {
      "midi": 88,
      "hit": false,
      "t": 80000,
      "d": 500,
      "v": 66
    },
    {
      "midi": 60,
      "hit": false,
      "t": 80000,
      "d": 1000,
      "v": 75
    },
    {
      "midi": 79,
      "hit": false,
      "t": 80500,
      "d": 500,
      "v": 64
    },
    {
      "midi": 72,
      "hit": false,
      "t": 81000,
      "d": 250,
      "v": 66
    },
    {
      "midi": 84,
      "hit": false,
      "t": 81000,
      "d": 500,
      "v": 76
    },
    {
      "midi": 91,
      "hit": false,
      "t": 81500,
      "d": 250,
      "v": 68
    },
    {
      "midi": 86,
      "hit": false,
      "t": 82000,
      "d": 500,
      "v": 62
    },
    {
      "midi": 55,
      "hit": false,
      "t": 82000,
      "d": 1000,
      "v": 66
    },
    {
      "midi": 79,
      "hit": false,
      "t": 82500,
      "d": 500,
      "v": 59
    },
    {
      "midi": 67,
      "hit": false,
      "t": 83000,
      "d": 500,
      "v": 70
    },
    {
      "midi": 83,
      "hit": false,
      "t": 83000,
      "d": 500,
      "v": 67
    },
    {
      "midi": 86,
      "hit": false,
      "t": 83500,
      "d": 250,
      "v": 70
    },
    {
      "midi": 68,
      "hit": false,
      "t": 83500,
      "d": 500,
      "v": 62
    },
    {
      "midi": 84,
      "hit": false,
      "t": 84000,
      "d": 500,
      "v": 70
    },
    {
      "midi": 69,
      "hit": false,
      "t": 84000,
      "d": 1000,
      "v": 66
    },
    {
      "midi": 76,
      "hit": false,
      "t": 84500,
      "d": 750,
      "v": 59
    },
    {
      "midi": 81,
      "hit": false,
      "t": 85000,
      "d": 500,
      "v": 63
    },
    {
      "midi": 57,
      "hit": false,
      "t": 85000,
      "d": 1000,
      "v": 70
    },
    {
      "midi": 88,
      "hit": false,
      "t": 85500,
      "d": 250,
      "v": 66
    },
    {
      "midi": 83,
      "hit": false,
      "t": 86000,
      "d": 500,
      "v": 70
    },
    {
      "midi": 64,
      "hit": false,
      "t": 86000,
      "d": 1000,
      "v": 63
    },
    {
      "midi": 76,
      "hit": false,
      "t": 86500,
      "d": 500,
      "v": 58
    },
    {
      "midi": 52,
      "hit": false,
      "t": 87000,
      "d": 250,
      "v": 66
    },
    {
      "midi": 79,
      "hit": false,
      "t": 87000,
      "d": 500,
      "v": 63
    },
    {
      "midi": 83,
      "hit": false,
      "t": 87500,
      "d": 250,
      "v": 61
    },
    {
      "midi": 81,
      "hit": false,
      "t": 88000,
      "d": 500,
      "v": 66
    },
    {
      "midi": 53,
      "hit": false,
      "t": 88000,
      "d": 1000,
      "v": 70
    },
    {
      "midi": 72,
      "hit": false,
      "t": 88500,
      "d": 750,
      "v": 62
    },
    {
      "midi": 65,
      "hit": false,
      "t": 89000,
      "d": 250,
      "v": 60
    },
    {
      "midi": 77,
      "hit": false,
      "t": 89000,
      "d": 500,
      "v": 68
    },
    {
      "midi": 84,
      "hit": false,
      "t": 89500,
      "d": 250,
      "v": 66
    },
    {
      "midi": 79,
      "hit": false,
      "t": 90000,
      "d": 500,
      "v": 63
    },
    {
      "midi": 48,
      "hit": false,
      "t": 90000,
      "d": 1000,
      "v": 70
    },
    {
      "midi": 72,
      "hit": false,
      "t": 90500,
      "d": 500,
      "v": 60
    },
    {
      "midi": 60,
      "hit": false,
      "t": 91000,
      "d": 250,
      "v": 62
    },
    {
      "midi": 76,
      "hit": false,
      "t": 91000,
      "d": 500,
      "v": 61
    },
    {
      "midi": 79,
      "hit": false,
      "t": 91500,
      "d": 250,
      "v": 63
    },
    {
      "midi": 81,
      "hit": false,
      "t": 92000,
      "d": 500,
      "v": 62
    },
    {
      "midi": 53,
      "hit": false,
      "t": 92000,
      "d": 1000,
      "v": 68
    },
    {
      "midi": 72,
      "hit": false,
      "t": 92500,
      "d": 750,
      "v": 62
    },
    {
      "midi": 65,
      "hit": false,
      "t": 93000,
      "d": 500,
      "v": 59
    },
    {
      "midi": 77,
      "hit": false,
      "t": 93000,
      "d": 500,
      "v": 64
    },
    {
      "midi": 81,
      "hit": false,
      "t": 93500,
      "d": 250,
      "v": 67
    },
    {
      "midi": 83,
      "hit": false,
      "t": 94000,
      "d": 500,
      "v": 68
    },
    {
      "midi": 55,
      "hit": false,
      "t": 94000,
      "d": 1000,
      "v": 70
    },
    {
      "midi": 74,
      "hit": false,
      "t": 94500,
      "d": 500,
      "v": 66
    },
    {
      "midi": 67,
      "hit": false,
      "t": 95000,
      "d": 250,
      "v": 56
    },
    {
      "midi": 79,
      "hit": false,
      "t": 95000,
      "d": 500,
      "v": 66
    },
    {
      "midi": 83,
      "hit": false,
      "t": 95500,
      "d": 250,
      "v": 67
    },
    {
      "midi": 88,
      "hit": false,
      "t": 96000,
      "d": 500,
      "v": 63
    },
    {
      "midi": 60,
      "hit": false,
      "t": 96000,
      "d": 1000,
      "v": 71
    },
    {
      "midi": 79,
      "hit": false,
      "t": 96000,
      "d": 1750,
      "v": 58
    },
    {
      "midi": 79,
      "hit": false,
      "t": 96500,
      "d": 500,
      "v": 63
    },
    {
      "midi": 72,
      "hit": false,
      "t": 97000,
      "d": 250,
      "v": 65
    },
    {
      "midi": 84,
      "hit": false,
      "t": 97000,
      "d": 500,
      "v": 71
    },
    {
      "midi": 91,
      "hit": false,
      "t": 97500,
      "d": 250,
      "v": 59
    },
    {
      "midi": 86,
      "hit": false,
      "t": 98000,
      "d": 500,
      "v": 67
    },
    {
      "midi": 55,
      "hit": false,
      "t": 98000,
      "d": 1000,
      "v": 70
    },
    {
      "midi": 79,
      "hit": false,
      "t": 98000,
      "d": 1000,
      "v": 58
    },
    {
      "midi": 79,
      "hit": false,
      "t": 98500,
      "d": 500,
      "v": 64
    },
    {
      "midi": 67,
      "hit": false,
      "t": 99000,
      "d": 500,
      "v": 66
    },
    {
      "midi": 83,
      "hit": false,
      "t": 99000,
      "d": 500,
      "v": 70
    },
    {
      "midi": 81,
      "hit": false,
      "t": 99000,
      "d": 500,
      "v": 58
    },
    {
      "midi": 79,
      "hit": false,
      "t": 99250,
      "d": 500,
      "v": 58
    },
    {
      "midi": 86,
      "hit": false,
      "t": 99500,
      "d": 250,
      "v": 68
    },
    {
      "midi": 68,
      "hit": false,
      "t": 99500,
      "d": 500,
      "v": 59
    },
    {
      "midi": 77,
      "hit": false,
      "t": 99500,
      "d": 500,
      "v": 58
    },
    {
      "midi": 84,
      "hit": false,
      "t": 100000,
      "d": 500,
      "v": 70
    },
    {
      "midi": 69,
      "hit": false,
      "t": 100000,
      "d": 1000,
      "v": 70
    },
    {
      "midi": 76,
      "hit": false,
      "t": 100000,
      "d": 3000,
      "v": 58
    },
    {
      "midi": 76,
      "hit": false,
      "t": 100500,
      "d": 1000,
      "v": 55
    },
    {
      "midi": 57,
      "hit": false,
      "t": 101000,
      "d": 500,
      "v": 63
    },
    {
      "midi": 81,
      "hit": false,
      "t": 101000,
      "d": 500,
      "v": 66
    },
    {
      "midi": 88,
      "hit": false,
      "t": 101500,
      "d": 250,
      "v": 61
    },
    {
      "midi": 83,
      "hit": false,
      "t": 102000,
      "d": 500,
      "v": 68
    },
    {
      "midi": 52,
      "hit": false,
      "t": 102000,
      "d": 1000,
      "v": 70
    },
    {
      "midi": 76,
      "hit": false,
      "t": 102500,
      "d": 750,
      "v": 60
    },
    {
      "midi": 64,
      "hit": false,
      "t": 103000,
      "d": 250,
      "v": 60
    },
    {
      "midi": 79,
      "hit": false,
      "t": 103000,
      "d": 500,
      "v": 63
    },
    {
      "midi": 77,
      "hit": false,
      "t": 103000,
      "d": 500,
      "v": 56
    },
    {
      "midi": 76,
      "hit": false,
      "t": 103250,
      "d": 500,
      "v": 56
    },
    {
      "midi": 83,
      "hit": false,
      "t": 103500,
      "d": 250,
      "v": 69
    },
    {
      "midi": 74,
      "hit": false,
      "t": 103500,
      "d": 500,
      "v": 56
    },
    {
      "midi": 81,
      "hit": false,
      "t": 104000,
      "d": 500,
      "v": 63
    },
    {
      "midi": 53,
      "hit": false,
      "t": 104000,
      "d": 1000,
      "v": 69
    },
    {
      "midi": 72,
      "hit": false,
      "t": 104000,
      "d": 2750,
      "v": 56
    },
    {
      "midi": 72,
      "hit": false,
      "t": 104500,
      "d": 750,
      "v": 63
    },
    {
      "midi": 65,
      "hit": false,
      "t": 105000,
      "d": 250,
      "v": 62
    },
    {
      "midi": 77,
      "hit": false,
      "t": 105000,
      "d": 500,
      "v": 59
    },
    {
      "midi": 84,
      "hit": false,
      "t": 105500,
      "d": 250,
      "v": 60
    },
    {
      "midi": 79,
      "hit": false,
      "t": 106000,
      "d": 500,
      "v": 62
    },
    {
      "midi": 48,
      "hit": false,
      "t": 106000,
      "d": 1000,
      "v": 71
    },
    {
      "midi": 72,
      "hit": false,
      "t": 106500,
      "d": 500,
      "v": 55
    },
    {
      "midi": 60,
      "hit": false,
      "t": 107000,
      "d": 250,
      "v": 65
    },
    {
      "midi": 76,
      "hit": false,
      "t": 107000,
      "d": 500,
      "v": 64
    },
    {
      "midi": 79,
      "hit": false,
      "t": 107500,
      "d": 250,
      "v": 62
    },
    {
      "midi": 72,
      "hit": false,
      "t": 107500,
      "d": 500,
      "v": 56
    },
    {
      "midi": 81,
      "hit": false,
      "t": 108000,
      "d": 500,
      "v": 66
    },
    {
      "midi": 53,
      "hit": false,
      "t": 108000,
      "d": 1000,
      "v": 66
    },
    {
      "midi": 74,
      "hit": false,
      "t": 108000,
      "d": 1000,
      "v": 56
    },
    {
      "midi": 72,
      "hit": false,
      "t": 108500,
      "d": 500,
      "v": 66
    },
    {
      "midi": 65,
      "hit": false,
      "t": 109000,
      "d": 250,
      "v": 60
    },
    {
      "midi": 77,
      "hit": false,
      "t": 109000,
      "d": 500,
      "v": 59
    },
    {
      "midi": 76,
      "hit": false,
      "t": 109000,
      "d": 500,
      "v": 56
    },
    {
      "midi": 81,
      "hit": false,
      "t": 109500,
      "d": 250,
      "v": 65
    },
    {
      "midi": 77,
      "hit": false,
      "t": 109500,
      "d": 500,
      "v": 56
    },
    {
      "midi": 83,
      "hit": false,
      "t": 110000,
      "d": 500,
      "v": 63
    },
    {
      "midi": 55,
      "hit": false,
      "t": 110000,
      "d": 1000,
      "v": 69
    },
    {
      "midi": 74,
      "hit": false,
      "t": 110000,
      "d": 1000,
      "v": 56
    },
    {
      "midi": 74,
      "hit": false,
      "t": 110500,
      "d": 750,
      "v": 70
    },
    {
      "midi": 67,
      "hit": false,
      "t": 111000,
      "d": 250,
      "v": 58
    },
    {
      "midi": 79,
      "hit": false,
      "t": 111000,
      "d": 500,
      "v": 67
    },
    {
      "midi": 76,
      "hit": false,
      "t": 111000,
      "d": 500,
      "v": 56
    },
    {
      "midi": 83,
      "hit": false,
      "t": 111500,
      "d": 250,
      "v": 70
    },
    {
      "midi": 77,
      "hit": false,
      "t": 111500,
      "d": 250,
      "v": 56
    },
    {
      "midi": 76,
      "hit": false,
      "t": 112000,
      "d": 500,
      "v": 69
    },
    {
      "midi": 60,
      "hit": false,
      "t": 112000,
      "d": 1000,
      "v": 77
    },
    {
      "midi": 88,
      "hit": false,
      "t": 112000,
      "d": 500,
      "v": 56
    },
    {
      "midi": 60,
      "hit": false,
      "t": 112000,
      "d": 1000,
      "v": 56
    },
    {
      "midi": 79,
      "hit": false,
      "t": 112500,
      "d": 500,
      "v": 69
    },
    {
      "midi": 79,
      "hit": false,
      "t": 112500,
      "d": 750,
      "v": 56
    },
    {
      "midi": 72,
      "hit": false,
      "t": 113000,
      "d": 250,
      "v": 66
    },
    {
      "midi": 88,
      "hit": false,
      "t": 113000,
      "d": 500,
      "v": 69
    },
    {
      "midi": 72,
      "hit": false,
      "t": 113000,
      "d": 250,
      "v": 56
    },
    {
      "midi": 84,
      "hit": false,
      "t": 113000,
      "d": 500,
      "v": 56
    },
    {
      "midi": 91,
      "hit": false,
      "t": 113500,
      "d": 250,
      "v": 65
    },
    {
      "midi": 91,
      "hit": false,
      "t": 113500,
      "d": 250,
      "v": 56
    },
    {
      "midi": 86,
      "hit": false,
      "t": 114000,
      "d": 500,
      "v": 67
    },
    {
      "midi": 55,
      "hit": false,
      "t": 114000,
      "d": 1000,
      "v": 70
    },
    {
      "midi": 86,
      "hit": false,
      "t": 114000,
      "d": 500,
      "v": 56
    },
    {
      "midi": 55,
      "hit": false,
      "t": 114000,
      "d": 1000,
      "v": 56
    },
    {
      "midi": 79,
      "hit": false,
      "t": 114500,
      "d": 500,
      "v": 62
    },
    {
      "midi": 79,
      "hit": false,
      "t": 114500,
      "d": 750,
      "v": 56
    },
    {
      "midi": 67,
      "hit": false,
      "t": 115000,
      "d": 500,
      "v": 69
    },
    {
      "midi": 83,
      "hit": false,
      "t": 115000,
      "d": 500,
      "v": 72
    },
    {
      "midi": 67,
      "hit": false,
      "t": 115000,
      "d": 500,
      "v": 56
    },
    {
      "midi": 83,
      "hit": false,
      "t": 115000,
      "d": 500,
      "v": 56
    },
    {
      "midi": 86,
      "hit": false,
      "t": 115500,
      "d": 250,
      "v": 63
    },
    {
      "midi": 68,
      "hit": false,
      "t": 115500,
      "d": 500,
      "v": 62
    },
    {
      "midi": 86,
      "hit": false,
      "t": 115500,
      "d": 250,
      "v": 56
    },
    {
      "midi": 68,
      "hit": false,
      "t": 115500,
      "d": 500,
      "v": 56
    },
    {
      "midi": 84,
      "hit": false,
      "t": 116000,
      "d": 500,
      "v": 74
    },
    {
      "midi": 69,
      "hit": false,
      "t": 116000,
      "d": 1000,
      "v": 70
    },
    {
      "midi": 84,
      "hit": false,
      "t": 116000,
      "d": 500,
      "v": 56
    },
    {
      "midi": 69,
      "hit": false,
      "t": 116000,
      "d": 1000,
      "v": 56
    },
    {
      "midi": 76,
      "hit": false,
      "t": 116500,
      "d": 750,
      "v": 60
    },
    {
      "midi": 76,
      "hit": false,
      "t": 116500,
      "d": 750,
      "v": 56
    },
    {
      "midi": 57,
      "hit": false,
      "t": 117000,
      "d": 500,
      "v": 63
    },
    {
      "midi": 81,
      "hit": false,
      "t": 117000,
      "d": 500,
      "v": 57
    },
    {
      "midi": 81,
      "hit": false,
      "t": 117000,
      "d": 250,
      "v": 56
    },
    {
      "midi": 57,
      "hit": false,
      "t": 117000,
      "d": 1000,
      "v": 56
    },
    {
      "midi": 88,
      "hit": false,
      "t": 117500,
      "d": 250,
      "v": 63
    },
    {
      "midi": 88,
      "hit": false,
      "t": 117500,
      "d": 250,
      "v": 56
    },
    {
      "midi": 83,
      "hit": false,
      "t": 118000,
      "d": 500,
      "v": 70
    },
    {
      "midi": 52,
      "hit": false,
      "t": 118000,
      "d": 1000,
      "v": 73
    },
    {
      "midi": 83,
      "hit": false,
      "t": 118000,
      "d": 500,
      "v": 56
    },
    {
      "midi": 64,
      "hit": false,
      "t": 118000,
      "d": 1000,
      "v": 56
    },
    {
      "midi": 76,
      "hit": false,
      "t": 118500,
      "d": 500,
      "v": 60
    },
    {
      "midi": 76,
      "hit": false,
      "t": 118500,
      "d": 500,
      "v": 56
    },
    {
      "midi": 64,
      "hit": false,
      "t": 119000,
      "d": 250,
      "v": 56
    },
    {
      "midi": 79,
      "hit": false,
      "t": 119000,
      "d": 500,
      "v": 70
    },
    {
      "midi": 52,
      "hit": false,
      "t": 119000,
      "d": 500,
      "v": 56
    },
    {
      "midi": 79,
      "hit": false,
      "t": 119000,
      "d": 500,
      "v": 56
    },
    {
      "midi": 83,
      "hit": false,
      "t": 119500,
      "d": 250,
      "v": 63
    },
    {
      "midi": 83,
      "hit": false,
      "t": 119500,
      "d": 250,
      "v": 56
    },
    {
      "midi": 81,
      "hit": false,
      "t": 120000,
      "d": 500,
      "v": 70
    },
    {
      "midi": 53,
      "hit": false,
      "t": 120000,
      "d": 1000,
      "v": 70
    },
    {
      "midi": 81,
      "hit": false,
      "t": 120000,
      "d": 500,
      "v": 56
    },
    {
      "midi": 53,
      "hit": false,
      "t": 120000,
      "d": 1000,
      "v": 56
    },
    {
      "midi": 72,
      "hit": false,
      "t": 120500,
      "d": 750,
      "v": 66
    },
    {
      "midi": 72,
      "hit": false,
      "t": 120500,
      "d": 750,
      "v": 56
    },
    {
      "midi": 65,
      "hit": false,
      "t": 121000,
      "d": 250,
      "v": 62
    },
    {
      "midi": 77,
      "hit": false,
      "t": 121000,
      "d": 500,
      "v": 67
    },
    {
      "midi": 65,
      "hit": false,
      "t": 121000,
      "d": 250,
      "v": 56
    },
    {
      "midi": 77,
      "hit": false,
      "t": 121000,
      "d": 500,
      "v": 56
    },
    {
      "midi": 84,
      "hit": false,
      "t": 121500,
      "d": 250,
      "v": 66
    },
    {
      "midi": 84,
      "hit": false,
      "t": 121500,
      "d": 250,
      "v": 56
    },
    {
      "midi": 79,
      "hit": false,
      "t": 122000,
      "d": 500,
      "v": 65
    },
    {
      "midi": 48,
      "hit": false,
      "t": 122000,
      "d": 1000,
      "v": 71
    },
    {
      "midi": 79,
      "hit": false,
      "t": 122000,
      "d": 500,
      "v": 56
    },
    {
      "midi": 48,
      "hit": false,
      "t": 122000,
      "d": 1000,
      "v": 56
    },
    {
      "midi": 72,
      "hit": false,
      "t": 122500,
      "d": 500,
      "v": 66
    },
    {
      "midi": 72,
      "hit": false,
      "t": 122500,
      "d": 750,
      "v": 56
    },
    {
      "midi": 60,
      "hit": false,
      "t": 123000,
      "d": 250,
      "v": 63
    },
    {
      "midi": 76,
      "hit": false,
      "t": 123000,
      "d": 500,
      "v": 69
    },
    {
      "midi": 60,
      "hit": false,
      "t": 123000,
      "d": 250,
      "v": 56
    },
    {
      "midi": 76,
      "hit": false,
      "t": 123000,
      "d": 500,
      "v": 56
    },
    {
      "midi": 79,
      "hit": false,
      "t": 123500,
      "d": 250,
      "v": 70
    },
    {
      "midi": 79,
      "hit": false,
      "t": 123500,
      "d": 250,
      "v": 56
    },
    {
      "midi": 81,
      "hit": false,
      "t": 124000,
      "d": 500,
      "v": 66
    },
    {
      "midi": 53,
      "hit": false,
      "t": 124000,
      "d": 1000,
      "v": 66
    },
    {
      "midi": 81,
      "hit": false,
      "t": 124000,
      "d": 500,
      "v": 56
    },
    {
      "midi": 53,
      "hit": false,
      "t": 124000,
      "d": 1000,
      "v": 56
    },
    {
      "midi": 72,
      "hit": false,
      "t": 124500,
      "d": 750,
      "v": 67
    },
    {
      "midi": 72,
      "hit": false,
      "t": 124500,
      "d": 750,
      "v": 56
    },
    {
      "midi": 65,
      "hit": false,
      "t": 125000,
      "d": 250,
      "v": 59
    },
    {
      "midi": 77,
      "hit": false,
      "t": 125000,
      "d": 500,
      "v": 66
    },
    {
      "midi": 65,
      "hit": false,
      "t": 125000,
      "d": 250,
      "v": 56
    },
    {
      "midi": 77,
      "hit": false,
      "t": 125000,
      "d": 500,
      "v": 56
    },
    {
      "midi": 81,
      "hit": false,
      "t": 125500,
      "d": 250,
      "v": 65
    },
    {
      "midi": 81,
      "hit": false,
      "t": 125500,
      "d": 250,
      "v": 56
    },
    {
      "midi": 83,
      "hit": false,
      "t": 126000,
      "d": 500,
      "v": 69
    },
    {
      "midi": 55,
      "hit": false,
      "t": 126000,
      "d": 1000,
      "v": 70
    },
    {
      "midi": 83,
      "hit": false,
      "t": 126000,
      "d": 500,
      "v": 56
    },
    {
      "midi": 55,
      "hit": false,
      "t": 126000,
      "d": 1000,
      "v": 56
    },
    {
      "midi": 74,
      "hit": false,
      "t": 126500,
      "d": 500,
      "v": 62
    },
    {
      "midi": 74,
      "hit": false,
      "t": 126500,
      "d": 500,
      "v": 56
    },
    {
      "midi": 67,
      "hit": false,
      "t": 127000,
      "d": 250,
      "v": 62
    },
    {
      "midi": 79,
      "hit": false,
      "t": 127000,
      "d": 500,
      "v": 62
    },
    {
      "midi": 67,
      "hit": false,
      "t": 127000,
      "d": 250,
      "v": 56
    },
    {
      "midi": 79,
      "hit": false,
      "t": 127000,
      "d": 500,
      "v": 56
    },
    {
      "midi": 83,
      "hit": false,
      "t": 127500,
      "d": 250,
      "v": 70
    },
    {
      "midi": 83,
      "hit": false,
      "t": 127500,
      "d": 250,
      "v": 56
    },
    {
      "midi": 48,
      "hit": false,
      "t": 128000,
      "d": 4000,
      "v": 64
    },
    {
      "midi": 60,
      "hit": false,
      "t": 128000,
      "d": 4000,
      "v": 70
    },
    {
      "midi": 64,
      "hit": false,
      "t": 128000,
      "d": 4000,
      "v": 64
    },
    {
      "midi": 67,
      "hit": false,
      "t": 128000,
      "d": 4000,
      "v": 64
    },
    {
      "midi": 88,
      "hit": false,
      "t": 128000,
      "d": 500,
      "v": 56
    },
    {
      "midi": 60,
      "hit": false,
      "t": 128000,
      "d": 1000,
      "v": 56
    },
    {
      "midi": 67,
      "hit": false,
      "t": 128000,
      "d": 1750,
      "v": 56
    }
  ]
}