{
  "jsonPath": "Soul/Classic Soul/Candi Staton/here-i-am-again.json",
  "path": "Soul\\Classic Soul\\Candi Staton\\Here I Am Again.mid",
  "name": "Here I Am Again",
  "difficulty": "Advanced",
  "bpm": 69.00041400248402,
  "notes": [
    {
      "midi": 36,
      "hit": false,
      "t": 3482.768958333334,
      "d": 1571.548541666667,
      "v": 91
    },
    {
      "midi": 55,
      "hit": false,
      "t": 3913.0200000000004,
      "d": 670.2858333333334,
      "v": 85
    },
    {
      "midi": 64,
      "hit": false,
      "t": 4343.271041666667,
      "d": 407.6062499999998,
      "v": 116
    },
    {
      "midi": 60,
      "hit": false,
      "t": 4352.3289583333335,
      "d": 1354.1585416666667,
      "v": 80
    },
    {
      "midi": 64,
      "hit": false,
      "t": 4356.857916666667,
      "d": 1390.3902083333332,
      "v": 80
    },
    {
      "midi": 65,
      "hit": false,
      "t": 4778.051041666667,
      "d": 181.15833333333376,
      "v": 98
    },
    {
      "midi": 55,
      "hit": false,
      "t": 4787.108958333334,
      "d": 738.2202083333332,
      "v": 70
    },
    {
      "midi": 67,
      "hit": false,
      "t": 4995.441041666667,
      "d": 837.8572916666672,
      "v": 111
    },
    {
      "midi": 36,
      "hit": false,
      "t": 5212.831041666667,
      "d": 1571.548541666666,
      "v": 88
    },
    {
      "midi": 55,
      "hit": false,
      "t": 5656.668958333334,
      "d": 697.4595833333333,
      "v": 62
    },
    {
      "midi": 67,
      "hit": false,
      "t": 6082.391041666668,
      "d": 267.20854166666686,
      "v": 109
    },
    {
      "midi": 60,
      "hit": false,
      "t": 6091.448958333333,
      "d": 1417.5639583333323,
      "v": 79
    },
    {
      "midi": 64,
      "hit": false,
      "t": 6091.448958333333,
      "d": 1435.6797916666656,
      "v": 80
    },
    {
      "midi": 65,
      "hit": false,
      "t": 6299.781041666668,
      "d": 217.39000000000033,
      "v": 85
    },
    {
      "midi": 55,
      "hit": false,
      "t": 6517.1710416666665,
      "d": 756.3360416666665,
      "v": 71
    },
    {
      "midi": 64,
      "hit": false,
      "t": 6517.171041666668,
      "d": 226.44791666666697,
      "v": 104
    },
    {
      "midi": 60,
      "hit": false,
      "t": 6734.561041666669,
      "d": 1213.7608333333328,
      "v": 107
    },
    {
      "midi": 36,
      "hit": false,
      "t": 6947.422083333333,
      "d": 1644.0118750000001,
      "v": 98
    },
    {
      "midi": 55,
      "hit": false,
      "t": 7400.317916666666,
      "d": 692.930625,
      "v": 77
    },
    {
      "midi": 64,
      "hit": false,
      "t": 7830.568958333335,
      "d": 384.9614583333332,
      "v": 102
    },
    {
      "midi": 60,
      "hit": false,
      "t": 7835.097916666666,
      "d": 1367.7454166666685,
      "v": 85
    },
    {
      "midi": 64,
      "hit": false,
      "t": 7839.626874999999,
      "d": 1376.803333333336,
      "v": 80
    },
    {
      "midi": 65,
      "hit": false,
      "t": 8256.29104166667,
      "d": 208.33208333333278,
      "v": 98
    },
    {
      "midi": 55,
      "hit": false,
      "t": 8269.877916666666,
      "d": 751.8070833333331,
      "v": 70
    },
    {
      "midi": 67,
      "hit": false,
      "t": 8482.738958333335,
      "d": 887.6758333333328,
      "v": 106
    },
    {
      "midi": 36,
      "hit": false,
      "t": 8700.128958333333,
      "d": 1571.5485416666706,
      "v": 90
    },
    {
      "midi": 55,
      "hit": false,
      "t": 9134.908958333333,
      "d": 711.046458333336,
      "v": 71
    },
    {
      "midi": 67,
      "hit": false,
      "t": 9560.631041666667,
      "d": 253.621666666666,
      "v": 106
    },
    {
      "midi": 64,
      "hit": false,
      "t": 9569.688958333336,
      "d": 1367.7454166666685,
      "v": 85
    },
    {
      "midi": 60,
      "hit": false,
      "t": 9569.688958333336,
      "d": 1372.2743750000027,
      "v": 85
    },
    {
      "midi": 65,
      "hit": false,
      "t": 9778.021041666667,
      "d": 208.33208333333278,
      "v": 96
    },
    {
      "midi": 64,
      "hit": false,
      "t": 9995.411041666666,
      "d": 1245.463541666666,
      "v": 114
    },
    {
      "midi": 55,
      "hit": false,
      "t": 9995.41104166667,
      "d": 756.3360416666674,
      "v": 71
    },
    {
      "midi": 36,
      "hit": false,
      "t": 10430.19104166667,
      "d": 1585.1354166666679,
      "v": 94
    },
    {
      "midi": 55,
      "hit": false,
      "t": 10874.028958333338,
      "d": 711.0464583333342,
      "v": 73
    },
    {
      "midi": 64,
      "hit": false,
      "t": 11299.751041666666,
      "d": 407.6062500000007,
      "v": 116
    },
    {
      "midi": 60,
      "hit": false,
      "t": 11299.751041666672,
      "d": 1440.2087499999998,
      "v": 86
    },
    {
      "midi": 64,
      "hit": false,
      "t": 11308.808958333339,
      "d": 1408.5060416666656,
      "v": 86
    },
    {
      "midi": 65,
      "hit": false,
      "t": 11734.531041666667,
      "d": 181.15833333333285,
      "v": 98
    },
    {
      "midi": 55,
      "hit": false,
      "t": 11743.58895833334,
      "d": 733.691249999998,
      "v": 71
    },
    {
      "midi": 67,
      "hit": false,
      "t": 11951.921041666666,
      "d": 837.8572916666672,
      "v": 111
    },
    {
      "midi": 36,
      "hit": false,
      "t": 12169.311041666671,
      "d": 1539.8458333333328,
      "v": 94
    },
    {
      "midi": 55,
      "hit": false,
      "t": 12613.148958333337,
      "d": 683.8727083333342,
      "v": 73
    },
    {
      "midi": 67,
      "hit": false,
      "t": 13038.871041666667,
      "d": 267.20854166666686,
      "v": 109
    },
    {
      "midi": 60,
      "hit": false,
      "t": 13038.87104166667,
      "d": 1422.0929166666683,
      "v": 86
    },
    {
      "midi": 64,
      "hit": false,
      "t": 13043.400000000005,
      "d": 1394.9191666666666,
      "v": 86
    },
    {
      "midi": 65,
      "hit": false,
      "t": 13256.261041666667,
      "d": 217.39000000000124,
      "v": 85
    },
    {
      "midi": 64,
      "hit": false,
      "t": 13473.651041666668,
      "d": 226.44791666666606,
      "v": 104
    },
    {
      "midi": 55,
      "hit": false,
      "t": 13473.651041666672,
      "d": 711.0464583333323,
      "v": 70
    },
    {
      "midi": 60,
      "hit": false,
      "t": 13691.041041666667,
      "d": 1213.7608333333337,
      "v": 107
    },
    {
      "midi": 36,
      "hit": false,
      "t": 13908.43104166667,
      "d": 1603.251250000003,
      "v": 90
    },
    {
      "midi": 55,
      "hit": false,
      "t": 14352.268958333338,
      "d": 697.4595833333351,
      "v": 66
    },
    {
      "midi": 60,
      "hit": false,
      "t": 14782.520000000006,
      "d": 1444.737708333334,
      "v": 74
    },
    {
      "midi": 64,
      "hit": false,
      "t": 14787.048958333335,
      "d": 384.9614583333332,
      "v": 102
    },
    {
      "midi": 64,
      "hit": false,
      "t": 14787.04895833334,
      "d": 1403.9770833333332,
      "v": 66
    },
    {
      "midi": 65,
      "hit": false,
      "t": 15212.771041666669,
      "d": 208.33208333333278,
      "v": 98
    },
    {
      "midi": 55,
      "hit": false,
      "t": 15226.357916666673,
      "d": 720.104374999999,
      "v": 77
    },
    {
      "midi": 67,
      "hit": false,
      "t": 15439.218958333335,
      "d": 887.6758333333328,
      "v": 106
    },
    {
      "midi": 36,
      "hit": false,
      "t": 15647.551041666673,
      "d": 1757.2358333333323,
      "v": 96
    },
    {
      "midi": 55,
      "hit": false,
      "t": 16095.917916666673,
      "d": 683.8727083333324,
      "v": 74
    },
    {
      "midi": 67,
      "hit": false,
      "t": 16517.111041666667,
      "d": 253.621666666666,
      "v": 106
    },
    {
      "midi": 64,
      "hit": false,
      "t": 16526.16895833334,
      "d": 815.2124999999978,
      "v": 52
    },
    {
      "midi": 60,
      "hit": false,
      "t": 16526.16895833334,
      "d": 824.2704166666663,
      "v": 64
    },
    {
      "midi": 65,
      "hit": false,
      "t": 16734.501041666666,
      "d": 208.3320833333346,
      "v": 96
    },
    {
      "midi": 55,
      "hit": false,
      "t": 16947.362083333337,
      "d": 425.722083333334,
      "v": 80
    },
    {
      "midi": 64,
      "hit": false,
      "t": 16951.89104166667,
      "d": 416.66416666666555,
      "v": 114
    },
    {
      "midi": 64,
      "hit": false,
      "t": 17391.2,
      "d": 416.66416666666555,
      "v": 116
    },
    {
      "midi": 48,
      "hit": false,
      "t": 17395.728958333337,
      "d": 1494.5562500000015,
      "v": 99
    },
    {
      "midi": 55,
      "hit": false,
      "t": 17830.50895833334,
      "d": 729.1622916666674,
      "v": 83
    },
    {
      "midi": 60,
      "hit": false,
      "t": 18038.841041666667,
      "d": 271.7374999999993,
      "v": 106
    },
    {
      "midi": 64,
      "hit": false,
      "t": 18256.231041666666,
      "d": 412.13520833333314,
      "v": 119
    },
    {
      "midi": 64,
      "hit": false,
      "t": 18256.231041666673,
      "d": 1372.2743749999972,
      "v": 94
    },
    {
      "midi": 60,
      "hit": false,
      "t": 18256.231041666673,
      "d": 1376.8033333333296,
      "v": 101
    },
    {
      "midi": 55,
      "hit": false,
      "t": 18686.48208333334,
      "d": 674.814791666664,
      "v": 74
    },
    {
      "midi": 65,
      "hit": false,
      "t": 18691.011041666665,
      "d": 249.09270833333358,
      "v": 106
    },
    {
      "midi": 67,
      "hit": false,
      "t": 18908.401041666664,
      "d": 815.2125000000015,
      "v": 106
    },
    {
      "midi": 48,
      "hit": false,
      "t": 19121.26208333334,
      "d": 1209.2318749999977,
      "v": 103
    },
    {
      "midi": 55,
      "hit": false,
      "t": 19560.57104166667,
      "d": 525.3591666666653,
      "v": 86
    },
    {
      "midi": 60,
      "hit": false,
      "t": 19777.961041666666,
      "d": 466.482708333333,
      "v": 104
    },
    {
      "midi": 64,
      "hit": false,
      "t": 19990.822083333336,
      "d": 892.2047916666706,
      "v": 94
    },
    {
      "midi": 67,
      "hit": false,
      "t": 19995.351041666665,
      "d": 280.79541666666773,
      "v": 112
    },
    {
      "midi": 60,
      "hit": false,
      "t": 19995.35104166667,
      "d": 883.1468750000058,
      "v": 98
    },
    {
      "midi": 65,
      "hit": false,
      "t": 20212.741041666664,
      "d": 267.2085416666705,
      "v": 99
    },
    {
      "midi": 55,
      "hit": false,
      "t": 20212.741041666668,
      "d": 643.1120833333371,
      "v": 94
    },
    {
      "midi": 64,
      "hit": false,
      "t": 20430.131041666667,
      "d": 253.621666666666,
      "v": 114
    },
    {
      "midi": 48,
      "hit": false,
      "t": 20430.13104166667,
      "d": 452.89583333333576,
      "v": 93
    },
    {
      "midi": 62,
      "hit": false,
      "t": 20647.521041666667,
      "d": 978.255000000001,
      "v": 118
    },
    {
      "midi": 38,
      "hit": false,
      "t": 20869.440000000006,
      "d": 1381.3322916666693,
      "v": 101
    },
    {
      "midi": 53,
      "hit": false,
      "t": 20873.968958333335,
      "d": 765.393958333334,
      "v": 98
    },
    {
      "midi": 57,
      "hit": false,
      "t": 20873.968958333335,
      "d": 765.393958333334,
      "v": 102
    },
    {
      "midi": 50,
      "hit": false,
      "t": 21308.74895833334,
      "d": 724.6333333333314,
      "v": 93
    },
    {
      "midi": 62,
      "hit": false,
      "t": 21734.471041666668,
      "d": 778.9808333333349,
      "v": 104
    },
    {
      "midi": 57,
      "hit": false,
      "t": 21734.471041666668,
      "d": 801.6256250000006,
      "v": 102
    },
    {
      "midi": 53,
      "hit": false,
      "t": 21734.471041666668,
      "d": 815.2125000000015,
      "v": 88
    },
    {
      "midi": 62,
      "hit": false,
      "t": 21743.52895833334,
      "d": 1449.26666666667,
      "v": 103
    },
    {
      "midi": 53,
      "hit": false,
      "t": 21743.52895833334,
      "d": 1453.7956250000025,
      "v": 98
    },
    {
      "midi": 57,
      "hit": false,
      "t": 21743.52895833334,
      "d": 1462.853541666671,
      "v": 103
    },
    {
      "midi": 50,
      "hit": false,
      "t": 22169.251041666674,
      "d": 471.01166666666904,
      "v": 94
    },
    {
      "midi": 38,
      "hit": false,
      "t": 22594.973125000008,
      "d": 1648.5408333333326,
      "v": 104
    },
    {
      "midi": 53,
      "hit": false,
      "t": 22604.03104166667,
      "d": 575.1777083333327,
      "v": 102
    },
    {
      "midi": 57,
      "hit": false,
      "t": 22604.03104166667,
      "d": 738.2202083333323,
      "v": 106
    },
    {
      "midi": 62,
      "hit": false,
      "t": 22604.03104166667,
      "d": 1182.0581249999996,
      "v": 107
    },
    {
      "midi": 50,
      "hit": false,
      "t": 23043.34000000001,
      "d": 715.5754166666629,
      "v": 99
    },
    {
      "midi": 53,
      "hit": false,
      "t": 23265.258958333336,
      "d": 298.911250000001,
      "v": 93
    },
    {
      "midi": 62,
      "hit": false,
      "t": 23473.591041666677,
      "d": 874.0889583333301,
      "v": 101
    },
    {
      "midi": 57,
      "hit": false,
      "t": 23478.120000000003,
      "d": 475.54062500000146,
      "v": 96
    },
    {
      "midi": 57,
      "hit": false,
      "t": 23478.12000000001,
      "d": 869.5599999999977,
      "v": 103
    },
    {
      "midi": 53,
      "hit": false,
      "t": 23482.648958333342,
      "d": 865.0310416666653,
      "v": 96
    },
    {
      "midi": 53,
      "hit": false,
      "t": 23690.98104166667,
      "d": 656.6989583333343,
      "v": 93
    },
    {
      "midi": 62,
      "hit": false,
      "t": 23908.37104166667,
      "d": 439.3089583333349,
      "v": 104
    },
    {
      "midi": 50,
      "hit": false,
      "t": 23921.957916666674,
      "d": 412.13520833333314,
      "v": 103
    },
    {
      "midi": 57,
      "hit": false,
      "t": 24130.290000000005,
      "d": 217.38999999999942,
      "v": 85
    },
    {
      "midi": 57,
      "hit": false,
      "t": 24347.680000000004,
      "d": 321.5560416666667,
      "v": 112
    },
    {
      "midi": 53,
      "hit": false,
      "t": 24347.680000000004,
      "d": 448.3668749999997,
      "v": 109
    },
    {
      "midi": 62,
      "hit": false,
      "t": 24347.680000000004,
      "d": 557.0618749999994,
      "v": 112
    },
    {
      "midi": 38,
      "hit": false,
      "t": 24347.680000000008,
      "d": 1648.5408333333326,
      "v": 101
    },
    {
      "midi": 57,
      "hit": false,
      "t": 24777.93104166667,
      "d": 285.32437500000015,
      "v": 99
    },
    {
      "midi": 50,
      "hit": false,
      "t": 24786.988958333342,
      "d": 724.6333333333314,
      "v": 93
    },
    {
      "midi": 53,
      "hit": false,
      "t": 24995.32104166667,
      "d": 212.861041666667,
      "v": 96
    },
    {
      "midi": 62,
      "hit": false,
      "t": 25212.71104166667,
      "d": 466.482708333333,
      "v": 111
    },
    {
      "midi": 57,
      "hit": false,
      "t": 25212.71104166667,
      "d": 498.18541666666715,
      "v": 111
    },
    {
      "midi": 53,
      "hit": false,
      "t": 25212.71104166667,
      "d": 502.71437499999956,
      "v": 104
    },
    {
      "midi": 62,
      "hit": false,
      "t": 25221.76895833334,
      "d": 1449.2666666666664,
      "v": 103
    },
    {
      "midi": 53,
      "hit": false,
      "t": 25221.76895833334,
      "d": 1453.7956249999988,
      "v": 98
    },
    {
      "midi": 57,
      "hit": false,
      "t": 25221.76895833334,
      "d": 1462.8535416666673,
      "v": 103
    },
    {
      "midi": 50,
      "hit": false,
      "t": 25647.491041666675,
      "d": 471.0116666666654,
      "v": 94
    },
    {
      "midi": 53,
      "hit": false,
      "t": 25864.881041666667,
      "d": 901.2627083333318,
      "v": 111
    },
    {
      "midi": 62,
      "hit": false,
      "t": 25864.881041666667,
      "d": 928.4364583333336,
      "v": 114
    },
    {
      "midi": 57,
      "hit": false,
      "t": 25864.881041666667,
      "d": 955.6102083333353,
      "v": 114
    },
    {
      "midi": 38,
      "hit": false,
      "t": 26073.213125000006,
      "d": 1779.880624999998,
      "v": 104
    },
    {
      "midi": 50,
      "hit": false,
      "t": 26521.58000000001,
      "d": 715.5754166666629,
      "v": 99
    },
    {
      "midi": 53,
      "hit": false,
      "t": 26951.831041666668,
      "d": 869.5600000000013,
      "v": 111
    },
    {
      "midi": 60,
      "hit": false,
      "t": 26951.831041666668,
      "d": 896.733750000003,
      "v": 118
    },
    {
      "midi": 57,
      "hit": false,
      "t": 26951.831041666668,
      "d": 905.7916666666715,
      "v": 114
    },
    {
      "midi": 62,
      "hit": false,
      "t": 26951.831041666675,
      "d": 874.0889583333301,
      "v": 101
    },
    {
      "midi": 57,
      "hit": false,
      "t": 26956.360000000008,
      "d": 869.5599999999977,
      "v": 103
    },
    {
      "midi": 53,
      "hit": false,
      "t": 26960.88895833334,
      "d": 865.0310416666653,
      "v": 96
    },
    {
      "midi": 50,
      "hit": false,
      "t": 27400.19791666667,
      "d": 425.722083333334,
      "v": 103
    },
    {
      "midi": 48,
      "hit": false,
      "t": 27830.448958333338,
      "d": 1494.5562499999978,
      "v": 99
    },
    {
      "midi": 55,
      "hit": false,
      "t": 28265.228958333337,
      "d": 729.1622916666674,
      "v": 83
    },
    {
      "midi": 55,
      "hit": false,
      "t": 28478.090000000007,
      "d": 543.4750000000022,
      "v": 99
    },
    {
      "midi": 64,
      "hit": false,
      "t": 28690.95104166667,
      "d": 1372.2743749999972,
      "v": 94
    },
    {
      "midi": 60,
      "hit": false,
      "t": 28690.95104166667,
      "d": 1376.8033333333296,
      "v": 101
    },
    {
      "midi": 60,
      "hit": false,
      "t": 28690.951041666674,
      "d": 1539.8458333333401,
      "v": 114
    },
    {
      "midi": 64,
      "hit": false,
      "t": 28700.008958333343,
      "d": 1526.2589583333393,
      "v": 109
    },
    {
      "midi": 55,
      "hit": false,
      "t": 29121.202083333337,
      "d": 674.814791666664,
      "v": 74
    },
    {
      "midi": 55,
      "hit": false,
      "t": 29125.731041666677,
      "d": 969.1970833333362,
      "v": 102
    },
    {
      "midi": 48,
      "hit": false,
      "t": 29555.982083333336,
      "d": 1209.2318749999977,
      "v": 103
    },
    {
      "midi": 55,
      "hit": false,
      "t": 29995.291041666667,
      "d": 525.3591666666653,
      "v": 86
    },
    {
      "midi": 48,
      "hit": false,
      "t": 29995.29104166668,
      "d": 1326.9847916666658,
      "v": 102
    },
    {
      "midi": 55,
      "hit": false,
      "t": 30212.68104166668,
      "d": 593.293541666666,
      "v": 90
    },
    {
      "midi": 64,
      "hit": false,
      "t": 30425.542083333334,
      "d": 892.204791666667,
      "v": 94
    },
    {
      "midi": 60,
      "hit": false,
      "t": 30430.071041666666,
      "d": 883.1468750000022,
      "v": 98
    },
    {
      "midi": 64,
      "hit": false,
      "t": 30430.07104166668,
      "d": 797.0966666666645,
      "v": 112
    },
    {
      "midi": 60,
      "hit": false,
      "t": 30430.07104166668,
      "d": 883.1468749999985,
      "v": 112
    },
    {
      "midi": 55,
      "hit": false,
      "t": 30647.461041666666,
      "d": 643.1120833333371,
      "v": 94
    },
    {
      "midi": 48,
      "hit": false,
      "t": 30864.85104166667,
      "d": 416.66416666666555,
      "v": 93
    },
    {
      "midi": 55,
      "hit": false,
      "t": 30864.85104166668,
      "d": 452.8958333333321,
      "v": 87
    },
    {
      "midi": 64,
      "hit": false,
      "t": 31304.16000000001,
      "d": 797.0966666666682,
      "v": 119
    },
    {
      "midi": 48,
      "hit": false,
      "t": 31308.688958333336,
      "d": 416.66416666666555,
      "v": 99
    },
    {
      "midi": 55,
      "hit": false,
      "t": 31743.468958333335,
      "d": 729.1622916666674,
      "v": 83
    },
    {
      "midi": 64,
      "hit": false,
      "t": 32169.19104166667,
      "d": 1372.2743749999972,
      "v": 94
    },
    {
      "midi": 60,
      "hit": false,
      "t": 32169.19104166667,
      "d": 1376.8033333333333,
      "v": 101
    },
    {
      "midi": 64,
      "hit": false,
      "t": 32169.19104166668,
      "d": 353.2587500000009,
      "v": 112
    },
    {
      "midi": 55,
      "hit": false,
      "t": 32599.442083333335,
      "d": 674.814791666664,
      "v": 74
    },
    {
      "midi": 65,
      "hit": false,
      "t": 32599.442083333346,
      "d": 149.4556249999987,
      "v": 99
    },
    {
      "midi": 67,
      "hit": false,
      "t": 32816.83208333334,
      "d": 987.3129166666695,
      "v": 116
    },
    {
      "midi": 48,
      "hit": false,
      "t": 33034.222083333334,
      "d": 1209.2318750000122,
      "v": 103
    },
    {
      "midi": 55,
      "hit": false,
      "t": 33473.53104166667,
      "d": 525.3591666666762,
      "v": 86
    },
    {
      "midi": 55,
      "hit": false,
      "t": 33473.531041666676,
      "d": 1313.3979166666686,
      "v": 112
    },
    {
      "midi": 64,
      "hit": false,
      "t": 33903.78208333334,
      "d": 892.2047916666779,
      "v": 94
    },
    {
      "midi": 67,
      "hit": false,
      "t": 33903.782083333346,
      "d": 421.19312499999796,
      "v": 112
    },
    {
      "midi": 60,
      "hit": false,
      "t": 33908.311041666675,
      "d": 883.1468750000058,
      "v": 98
    },
    {
      "midi": 55,
      "hit": false,
      "t": 34125.70104166668,
      "d": 643.1120833333334,
      "v": 94
    },
    {
      "midi": 64,
      "hit": false,
      "t": 34338.562083333345,
      "d": 181.15833333333285,
      "v": 111
    },
    {
      "midi": 48,
      "hit": false,
      "t": 34343.09104166668,
      "d": 452.89583333333576,
      "v": 93
    },
    {
      "midi": 62,
      "hit": false,
      "t": 34555.952083333344,
      "d": 1037.131458333337,
      "v": 118
    },
    {
      "midi": 38,
      "hit": false,
      "t": 34782.400000000016,
      "d": 1381.3322916666657,
      "v": 101
    },
    {
      "midi": 53,
      "hit": false,
      "t": 34786.928958333345,
      "d": 765.393958333334,
      "v": 98
    },
    {
      "midi": 57,
      "hit": false,
      "t": 34786.928958333345,
      "d": 765.393958333334,
      "v": 102
    },
    {
      "midi": 50,
      "hit": false,
      "t": 35221.70895833335,
      "d": 724.6333333333314,
      "v": 93
    },
    {
      "midi": 62,
      "hit": false,
      "t": 35647.431041666685,
      "d": 371.3745833333305,
      "v": 114
    },
    {
      "midi": 57,
      "hit": false,
      "t": 35647.431041666685,
      "d": 801.6256249999933,
      "v": 102
    },
    {
      "midi": 53,
      "hit": false,
      "t": 35647.431041666685,
      "d": 815.2124999999942,
      "v": 88
    },
    {
      "midi": 62,
      "hit": false,
      "t": 35656.48895833335,
      "d": 1449.26666666667,
      "v": 103
    },
    {
      "midi": 53,
      "hit": false,
      "t": 35656.48895833335,
      "d": 1453.795625000006,
      "v": 98
    },
    {
      "midi": 57,
      "hit": false,
      "t": 35656.48895833335,
      "d": 1462.853541666671,
      "v": 103
    },
    {
      "midi": 60,
      "hit": false,
      "t": 36077.68208333335,
      "d": 172.10041666666802,
      "v": 111
    },
    {
      "midi": 50,
      "hit": false,
      "t": 36082.211041666684,
      "d": 471.0116666666654,
      "v": 94
    },
    {
      "midi": 62,
      "hit": false,
      "t": 36295.07208333335,
      "d": 960.139166666675,
      "v": 116
    },
    {
      "midi": 38,
      "hit": false,
      "t": 36507.93312500002,
      "d": 1648.5408333333398,
      "v": 104
    },
    {
      "midi": 53,
      "hit": false,
      "t": 36516.99104166668,
      "d": 575.1777083333363,
      "v": 102
    },
    {
      "midi": 57,
      "hit": false,
      "t": 36516.99104166668,
      "d": 738.2202083333395,
      "v": 106
    },
    {
      "midi": 50,
      "hit": false,
      "t": 36956.30000000002,
      "d": 715.5754166666738,
      "v": 99
    },
    {
      "midi": 53,
      "hit": false,
      "t": 37178.21895833335,
      "d": 298.91125000000466,
      "v": 93
    },
    {
      "midi": 62,
      "hit": false,
      "t": 37386.55104166669,
      "d": 874.088958333341,
      "v": 101
    },
    {
      "midi": 64,
      "hit": false,
      "t": 37386.55104166669,
      "d": 801.6256250000006,
      "v": 118
    },
    {
      "midi": 57,
      "hit": false,
      "t": 37391.08000000002,
      "d": 869.560000000005,
      "v": 103
    },
    {
      "midi": 57,
      "hit": false,
      "t": 37391.08000000002,
      "d": 475.54062500000146,
      "v": 96
    },
    {
      "midi": 53,
      "hit": false,
      "t": 37395.60895833336,
      "d": 865.0310416666689,
      "v": 96
    },
    {
      "midi": 53,
      "hit": false,
      "t": 37603.941041666694,
      "d": 656.698958333327,
      "v": 93
    },
    {
      "midi": 50,
      "hit": false,
      "t": 37834.917916666695,
      "d": 412.13520833333314,
      "v": 103
    },
    {
      "midi": 57,
      "hit": false,
      "t": 38043.25000000002,
      "d": 217.38999999999942,
      "v": 85
    },
    {
      "midi": 62,
      "hit": false,
      "t": 38256.111041666685,
      "d": 747.2781250000044,
      "v": 118
    },
    {
      "midi": 57,
      "hit": false,
      "t": 38260.64000000002,
      "d": 321.5560416666631,
      "v": 112
    },
    {
      "midi": 53,
      "hit": false,
      "t": 38260.64000000002,
      "d": 448.3668749999997,
      "v": 109
    },
    {
      "midi": 38,
      "hit": false,
      "t": 38260.64000000003,
      "d": 1648.5408333333326,
      "v": 101
    },
    {
      "midi": 57,
      "hit": false,
      "t": 38690.891041666684,
      "d": 285.3243750000038,
      "v": 99
    },
    {
      "midi": 50,
      "hit": false,
      "t": 38699.94895833336,
      "d": 724.6333333333314,
      "v": 93
    },
    {
      "midi": 53,
      "hit": false,
      "t": 38908.28104166669,
      "d": 212.86104166666337,
      "v": 96
    },
    {
      "midi": 62,
      "hit": false,
      "t": 39125.67104166669,
      "d": 407.6062499999971,
      "v": 111
    },
    {
      "midi": 57,
      "hit": false,
      "t": 39125.67104166669,
      "d": 498.18541666666715,
      "v": 111
    },
    {
      "midi": 53,
      "hit": false,
      "t": 39125.67104166669,
      "d": 502.7143750000032,
      "v": 104
    },
    {
      "midi": 62,
      "hit": false,
      "t": 39134.72895833336,
      "d": 1449.26666666667,
      "v": 103
    },
    {
      "midi": 53,
      "hit": false,
      "t": 39134.72895833336,
      "d": 1453.795625000006,
      "v": 98
    },
    {
      "midi": 57,
      "hit": false,
      "t": 39134.72895833336,
      "d": 1462.853541666671,
      "v": 103
    },
    {
      "midi": 60,
      "hit": false,
      "t": 39560.45104166669,
      "d": 158.51354166667443,
      "v": 109
    },
    {
      "midi": 50,
      "hit": false,
      "t": 39560.451041666696,
      "d": 471.0116666666654,
      "v": 94
    },
    {
      "midi": 62,
      "hit": false,
      "t": 39773.31208333337,
      "d": 1050.718333333345,
      "v": 116
    },
    {
      "midi": 53,
      "hit": false,
      "t": 39777.8410416667,
      "d": 901.2627083333355,
      "v": 111
    },
    {
      "midi": 57,
      "hit": false,
      "t": 39777.8410416667,
      "d": 955.610208333339,
      "v": 114
    },
    {
      "midi": 38,
      "hit": false,
      "t": 39986.17312500003,
      "d": 1779.8806250000125,
      "v": 104
    },
    {
      "midi": 50,
      "hit": false,
      "t": 40434.54000000003,
      "d": 715.5754166666738,
      "v": 99
    },
    {
      "midi": 62,
      "hit": false,
      "t": 40864.7910416667,
      "d": 874.088958333341,
      "v": 101
    },
    {
      "midi": 60,
      "hit": false,
      "t": 40864.791041666715,
      "d": 566.1197916666642,
      "v": 116
    },
    {
      "midi": 53,
      "hit": false,
      "t": 40864.791041666715,
      "d": 869.5599999999977,
      "v": 111
    },
    {
      "midi": 57,
      "hit": false,
      "t": 40864.791041666715,
      "d": 905.7916666666642,
      "v": 114
    },
    {
      "midi": 57,
      "hit": false,
      "t": 40869.320000000036,
      "d": 869.560000000005,
      "v": 103
    },
    {
      "midi": 53,
      "hit": false,
      "t": 40873.84895833337,
      "d": 865.0310416666689,
      "v": 96
    },
    {
      "midi": 50,
      "hit": false,
      "t": 41313.15791666671,
      "d": 425.722083333334,
      "v": 103
    },
    {
      "midi": 60,
      "hit": false,
      "t": 41516.96104166671,
      "d": 1014.4866666666567,
      "v": 118
    },
    {
      "midi": 48,
      "hit": false,
      "t": 41743.40895833338,
      "d": 1494.5562500000015,
      "v": 99
    },
    {
      "midi": 36,
      "hit": false,
      "t": 41743.40895833338,
      "d": 1612.3091666666514,
      "v": 109
    },
    {
      "midi": 55,
      "hit": false,
      "t": 42178.188958333376,
      "d": 729.1622916666674,
      "v": 83
    },
    {
      "midi": 48,
      "hit": false,
      "t": 42178.188958333376,
      "d": 1182.0581249999886,
      "v": 99
    },
    {
      "midi": 55,
      "hit": false,
      "t": 42391.05000000004,
      "d": 543.4749999999913,
      "v": 99
    },
    {
      "midi": 60,
      "hit": false,
      "t": 42603.9110416667,
      "d": 1539.8458333333328,
      "v": 114
    },
    {
      "midi": 64,
      "hit": false,
      "t": 42603.91104166671,
      "d": 1372.2743750000009,
      "v": 94
    },
    {
      "midi": 60,
      "hit": false,
      "t": 42603.91104166671,
      "d": 1376.803333333337,
      "v": 101
    },
    {
      "midi": 64,
      "hit": false,
      "t": 42612.96895833337,
      "d": 1526.258958333332,
      "v": 109
    },
    {
      "midi": 55,
      "hit": false,
      "t": 43034.16208333338,
      "d": 674.814791666664,
      "v": 74
    },
    {
      "midi": 55,
      "hit": false,
      "t": 43038.691041666694,
      "d": 969.1970833333398,
      "v": 102
    },
    {
      "midi": 48,
      "hit": false,
      "t": 43468.94208333338,
      "d": 1209.2318750000122,
      "v": 103
    },
    {
      "midi": 36,
      "hit": false,
      "t": 43473.4710416667,
      "d": 1761.7647916666756,
      "v": 109
    },
    {
      "midi": 48,
      "hit": false,
      "t": 43908.2510416667,
      "d": 1268.1083333333372,
      "v": 102
    },
    {
      "midi": 55,
      "hit": false,
      "t": 43908.251041666714,
      "d": 525.3591666666762,
      "v": 86
    },
    {
      "midi": 55,
      "hit": false,
      "t": 44125.6410416667,
      "d": 593.2935416666733,
      "v": 90
    },
    {
      "midi": 64,
      "hit": false,
      "t": 44338.502083333384,
      "d": 892.2047916666779,
      "v": 94
    },
    {
      "midi": 60,
      "hit": false,
      "t": 44343.031041666705,
      "d": 588.7645833333299,
      "v": 112
    },
    {
      "midi": 64,
      "hit": false,
      "t": 44343.031041666705,
      "d": 878.6179166666698,
      "v": 112
    },
    {
      "midi": 60,
      "hit": false,
      "t": 44343.03104166672,
      "d": 883.1468750000058,
      "v": 98
    },
    {
      "midi": 55,
      "hit": false,
      "t": 44560.42104166673,
      "d": 643.1120833333334,
      "v": 94
    },
    {
      "midi": 55,
      "hit": false,
      "t": 44777.811041666704,
      "d": 452.89583333333576,
      "v": 87
    },
    {
      "midi": 48,
      "hit": false,
      "t": 44777.811041666726,
      "d": 452.89583333333576,
      "v": 93
    },
    {
      "midi": 48,
      "hit": false,
      "t": 45217.12000000004,
      "d": 344.20083333333605,
      "v": 111
    },
    {
      "midi": 53,
      "hit": false,
      "t": 45217.12000000004,
      "d": 557.0618749999994,
      "v": 109
    },
    {
      "midi": 57,
      "hit": false,
      "t": 45217.12000000004,
      "d": 697.4595833333296,
      "v": 114
    },
    {
      "midi": 60,
      "hit": false,
      "t": 45217.12000000004,
      "d": 724.6333333333314,
      "v": 111
    },
    {
      "midi": 29,
      "hit": false,
      "t": 45217.12000000006,
      "d": 1634.9539583333317,
      "v": 101
    },
    {
      "midi": 48,
      "hit": false,
      "t": 45647.37104166673,
      "d": 3115.9233333333323,
      "v": 93
    },
    {
      "midi": 48,
      "hit": false,
      "t": 45656.428958333374,
      "d": 973.7260416666613,
      "v": 107
    },
    {
      "midi": 53,
      "hit": false,
      "t": 45860.232083333394,
      "d": 1394.9191666666666,
      "v": 98
    },
    {
      "midi": 53,
      "hit": false,
      "t": 45869.29000000004,
      "d": 525.3591666666616,
      "v": 107
    },
    {
      "midi": 57,
      "hit": false,
      "t": 46077.622083333394,
      "d": 1453.795625000006,
      "v": 103
    },
    {
      "midi": 57,
      "hit": false,
      "t": 46082.1510416667,
      "d": 1752.7068750000108,
      "v": 114
    },
    {
      "midi": 60,
      "hit": false,
      "t": 46091.208958333365,
      "d": 801.6256250000079,
      "v": 109
    },
    {
      "midi": 60,
      "hit": false,
      "t": 46295.01208333339,
      "d": 1249.9925000000076,
      "v": 98
    },
    {
      "midi": 53,
      "hit": false,
      "t": 46516.9310416667,
      "d": 326.0850000000064,
      "v": 107
    },
    {
      "midi": 55,
      "hit": false,
      "t": 46516.93104166673,
      "d": 987.3129166666695,
      "v": 98
    },
    {
      "midi": 48,
      "hit": false,
      "t": 46743.37895833337,
      "d": 484.59854166667355,
      "v": 114
    },
    {
      "midi": 29,
      "hit": false,
      "t": 46951.71104166673,
      "d": 1829.6991666666654,
      "v": 99
    },
    {
      "midi": 53,
      "hit": false,
      "t": 46956.24000000004,
      "d": 452.89583333333576,
      "v": 111
    },
    {
      "midi": 53,
      "hit": false,
      "t": 47381.9620833334,
      "d": 756.3360416666692,
      "v": 96
    },
    {
      "midi": 48,
      "hit": false,
      "t": 47386.49104166671,
      "d": 1345.1006249999991,
      "v": 111
    },
    {
      "midi": 53,
      "hit": false,
      "t": 47603.88104166671,
      "d": 1145.8264583333366,
      "v": 106
    },
    {
      "midi": 55,
      "hit": false,
      "t": 47812.21312500007,
      "d": 987.3129166666622,
      "v": 101
    },
    {
      "midi": 60,
      "hit": false,
      "t": 47812.21312500007,
      "d": 987.3129166666622,
      "v": 99
    },
    {
      "midi": 57,
      "hit": false,
      "t": 47812.21312500007,
      "d": 991.8418749999983,
      "v": 103
    },
    {
      "midi": 55,
      "hit": false,
      "t": 47821.27104166671,
      "d": 905.7916666666642,
      "v": 109
    },
    {
      "midi": 57,
      "hit": false,
      "t": 48038.66104166671,
      "d": 711.0464583333378,
      "v": 107
    },
    {
      "midi": 53,
      "hit": false,
      "t": 48251.5220833334,
      "d": 520.8302083333256,
      "v": 99
    },
    {
      "midi": 60,
      "hit": false,
      "t": 48256.05104166671,
      "d": 480.0695833333375,
      "v": 112
    },
    {
      "midi": 36,
      "hit": false,
      "t": 48464.383125000066,
      "d": 212.86104166666337,
      "v": 106
    },
    {
      "midi": 41,
      "hit": false,
      "t": 48681.773125000065,
      "d": 3247.2631249999977,
      "v": 110
    },
    {
      "midi": 93,
      "hit": false,
      "t": 48695.360000000044,
      "d": 113.22395833333576,
      "v": 112
    },
    {
      "midi": 91,
      "hit": false,
      "t": 48912.750000000044,
      "d": 104.16604166666366,
      "v": 104
    },
    {
      "midi": 89,
      "hit": false,
      "t": 49125.61104166671,
      "d": 108.69499999999971,
      "v": 104
    },
    {
      "midi": 84,
      "hit": false,
      "t": 49343.00104166671,
      "d": 117.75291666666453,
      "v": 101
    },
    {
      "midi": 69,
      "hit": false,
      "t": 49542.2752083334,
      "d": 362.3166666666657,
      "v": 99
    },
    {
      "midi": 65,
      "hit": false,
      "t": 49542.2752083334,
      "d": 389.49041666666744,
      "v": 101
    },
    {
      "midi": 81,
      "hit": false,
      "t": 49560.391041666706,
      "d": 99.63708333333489,
      "v": 112
    },
    {
      "midi": 79,
      "hit": false,
      "t": 49777.781041666705,
      "d": 104.16604166666366,
      "v": 93
    },
    {
      "midi": 67,
      "hit": false,
      "t": 49977.0552083334,
      "d": 131.3397916666654,
      "v": 94
    },
    {
      "midi": 64,
      "hit": false,
      "t": 49977.0552083334,
      "d": 158.51354166666715,
      "v": 94
    },
    {
      "midi": 77,
      "hit": false,
      "t": 49995.171041666705,
      "d": 113.22395833333576,
      "v": 104
    },
    {
      "midi": 64,
      "hit": false,
      "t": 50194.445208333396,
      "d": 403.0772916666683,
      "v": 101
    },
    {
      "midi": 67,
      "hit": false,
      "t": 50194.445208333396,
      "d": 434.77999999999884,
      "v": 101
    },
    {
      "midi": 72,
      "hit": false,
      "t": 50212.561041666704,
      "d": 122.28187500000058,
      "v": 109
    },
    {
      "midi": 69,
      "hit": false,
      "t": 50429.9510416667,
      "d": 126.81083333333663,
      "v": 101
    },
    {
      "midi": 62,
      "hit": false,
      "t": 50638.28312500006,
      "d": 344.20083333333605,
      "v": 90
    },
    {
      "midi": 65,
      "hit": false,
      "t": 50638.28312500006,
      "d": 353.2587500000009,
      "v": 90
    },
    {
      "midi": 67,
      "hit": false,
      "t": 50647.34104166671,
      "d": 122.28187500000058,
      "v": 104
    },
    {
      "midi": 65,
      "hit": false,
      "t": 50864.73104166671,
      "d": 126.81083333333663,
      "v": 102
    },
    {
      "midi": 62,
      "hit": false,
      "t": 51073.06312500006,
      "d": 335.14291666666395,
      "v": 103
    },
    {
      "midi": 65,
      "hit": false,
      "t": 51073.06312500006,
      "d": 384.9614583333314,
      "v": 106
    },
    {
      "midi": 60,
      "hit": false,
      "t": 51082.121041666716,
      "d": 131.3397916666654,
      "v": 111
    },
    {
      "midi": 57,
      "hit": false,
      "t": 51299.511041666716,
      "d": 126.81083333333663,
      "v": 106
    },
    {
      "midi": 64,
      "hit": false,
      "t": 51503.31416666672,
      "d": 389.4904166666747,
      "v": 104
    },
    {
      "midi": 60,
      "hit": false,
      "t": 51507.84312500006,
      "d": 366.84562500000175,
      "v": 103
    },
    {
      "midi": 55,
      "hit": false,
      "t": 51516.90104166672,
      "d": 113.22395833333576,
      "v": 102
    },
    {
      "midi": 53,
      "hit": false,
      "t": 51734.29104166672,
      "d": 117.75291666666453,
      "v": 106
    },
    {
      "midi": 48,
      "hit": false,
      "t": 51951.68104166672,
      "d": 122.28187500000058,
      "v": 112
    },
    {
      "midi": 91,
      "hit": false,
      "t": 52173.60000000006,
      "d": 140.39770833333023,
      "v": 107
    },
    {
      "midi": 36,
      "hit": false,
      "t": 52182.65791666673,
      "d": 2427.521666666682,
      "v": 103
    },
    {
      "midi": 89,
      "hit": false,
      "t": 52395.518958333385,
      "d": 104.16604166666366,
      "v": 78
    },
    {
      "midi": 43,
      "hit": false,
      "t": 52599.3220833334,
      "d": 1865.9308333333393,
      "v": 94
    },
    {
      "midi": 88,
      "hit": false,
      "t": 52612.908958333384,
      "d": 99.63708333333489,
      "v": 99
    },
    {
      "midi": 84,
      "hit": false,
      "t": 52821.24104166672,
      "d": 117.75291666666453,
      "v": 109
    },
    {
      "midi": 48,
      "hit": false,
      "t": 52821.24104166673,
      "d": 1825.170208333344,
      "v": 94
    },
    {
      "midi": 79,
      "hit": false,
      "t": 53038.63104166672,
      "d": 158.51354166666715,
      "v": 112
    },
    {
      "midi": 60,
      "hit": false,
      "t": 53038.63104166673,
      "d": 403.0772916666683,
      "v": 104
    },
    {
      "midi": 64,
      "hit": false,
      "t": 53043.16000000007,
      "d": 384.9614583333314,
      "v": 106
    },
    {
      "midi": 77,
      "hit": false,
      "t": 53256.02104166672,
      "d": 149.45562500000233,
      "v": 111
    },
    {
      "midi": 76,
      "hit": false,
      "t": 53473.41104166672,
      "d": 172.10041666666802,
      "v": 112
    },
    {
      "midi": 62,
      "hit": false,
      "t": 53473.41104166673,
      "d": 149.45562500000233,
      "v": 93
    },
    {
      "midi": 65,
      "hit": false,
      "t": 53473.41104166673,
      "d": 158.51354166666715,
      "v": 93
    },
    {
      "midi": 72,
      "hit": false,
      "t": 53690.80104166672,
      "d": 158.51354166666715,
      "v": 114
    },
    {
      "midi": 67,
      "hit": false,
      "t": 53695.33000000007,
      "d": 869.560000000005,
      "v": 106
    },
    {
      "midi": 64,
      "hit": false,
      "t": 53695.33000000007,
      "d": 887.6758333333419,
      "v": 108
    },
    {
      "midi": 67,
      "hit": false,
      "t": 53908.191041666716,
      "d": 140.39770833333023,
      "v": 114
    },
    {
      "midi": 65,
      "hit": false,
      "t": 54125.581041666715,
      "d": 131.3397916666654,
      "v": 112
    },
    {
      "midi": 64,
      "hit": false,
      "t": 54342.971041666715,
      "d": 135.86875000000146,
      "v": 111
    },
    {
      "midi": 43,
      "hit": false,
      "t": 54555.83208333341,
      "d": 380.4325000000099,
      "v": 101
    },
    {
      "midi": 60,
      "hit": false,
      "t": 54560.361041666714,
      "d": 126.81083333333663,
      "v": 114
    },
    {
      "midi": 55,
      "hit": false,
      "t": 54777.75104166672,
      "d": 144.92666666666628,
      "v": 112
    },
    {
      "midi": 60,
      "hit": false,
      "t": 54777.75104166674,
      "d": 398.54833333333954,
      "v": 106
    },
    {
      "midi": 55,
      "hit": false,
      "t": 54782.28000000008,
      "d": 380.4325000000026,
      "v": 103
    },
    {
      "midi": 64,
      "hit": false,
      "t": 54786.808958333415,
      "d": 362.3166666666657,
      "v": 104
    },
    {
      "midi": 53,
      "hit": false,
      "t": 54995.14104166672,
      "d": 126.81083333333663,
      "v": 106
    },
    {
      "midi": 52,
      "hit": false,
      "t": 55212.53104166673,
      "d": 158.51354166666715,
      "v": 99
    },
    {
      "midi": 55,
      "hit": false,
      "t": 55226.11791666675,
      "d": 498.18541666666715,
      "v": 108
    },
    {
      "midi": 64,
      "hit": false,
      "t": 55226.11791666675,
      "d": 498.18541666666715,
      "v": 108
    },
    {
      "midi": 60,
      "hit": false,
      "t": 55226.11791666675,
      "d": 511.772291666668,
      "v": 110
    },
    {
      "midi": 48,
      "hit": false,
      "t": 55438.97895833339,
      "d": 117.75291666666453,
      "v": 109
    },
    {
      "midi": 43,
      "hit": false,
      "t": 55651.840000000084,
      "d": 797.0966666666718,
      "v": 103
    },
    {
      "midi": 86,
      "hit": false,
      "t": 55656.36895833339,
      "d": 199.27416666666977,
      "v": 114
    },
    {
      "midi": 84,
      "hit": false,
      "t": 55873.7589583334,
      "d": 149.45562500000233,
      "v": 109
    },
    {
      "midi": 50,
      "hit": false,
      "t": 56082.091041666754,
      "d": 1009.9577083333352,
      "v": 93
    },
    {
      "midi": 83,
      "hit": false,
      "t": 56091.1489583334,
      "d": 126.81083333333663,
      "v": 112
    },
    {
      "midi": 55,
      "hit": false,
      "t": 56299.48104166675,
      "d": 520.8302083333328,
      "v": 98
    },
    {
      "midi": 79,
      "hit": false,
      "t": 56308.5389583334,
      "d": 113.22395833333576,
      "v": 112
    },
    {
      "midi": 74,
      "hit": false,
      "t": 56516.87104166674,
      "d": 163.0425000000032,
      "v": 114
    },
    {
      "midi": 62,
      "hit": false,
      "t": 56516.87104166675,
      "d": 1449.26666666667,
      "v": 106
    },
    {
      "midi": 59,
      "hit": false,
      "t": 56516.87104166675,
      "d": 1462.853541666671,
      "v": 110
    },
    {
      "midi": 72,
      "hit": false,
      "t": 56734.261041666745,
      "d": 158.51354166666715,
      "v": 112
    },
    {
      "midi": 55,
      "hit": false,
      "t": 56942.59312500009,
      "d": 973.7260416666686,
      "v": 99
    },
    {
      "midi": 71,
      "hit": false,
      "t": 56947.122083333416,
      "d": 167.57145833333198,
      "v": 109
    },
    {
      "midi": 67,
      "hit": false,
      "t": 57164.512083333415,
      "d": 149.45562500000233,
      "v": 114
    },
    {
      "midi": 43,
      "hit": false,
      "t": 57164.51208333342,
      "d": 1983.683750000011,
      "v": 104
    },
    {
      "midi": 62,
      "hit": false,
      "t": 57381.902083333414,
      "d": 140.39770833333023,
      "v": 116
    },
    {
      "midi": 60,
      "hit": false,
      "t": 57599.292083333414,
      "d": 131.3397916666654,
      "v": 106
    },
    {
      "midi": 59,
      "hit": false,
      "t": 57816.68208333341,
      "d": 153.9845833333311,
      "v": 106
    },
    {
      "midi": 50,
      "hit": false,
      "t": 57816.68208333342,
      "d": 1268.1083333333445,
      "v": 99
    },
    {
      "midi": 55,
      "hit": false,
      "t": 58034.07208333341,
      "d": 113.22395833333576,
      "v": 111
    },
    {
      "midi": 55,
      "hit": false,
      "t": 58034.07208333343,
      "d": 701.988541666673,
      "v": 98
    },
    {
      "midi": 50,
      "hit": false,
      "t": 58251.46208333341,
      "d": 258.15062500000204,
      "v": 104
    },
    {
      "midi": 59,
      "hit": false,
      "t": 58251.46208333343,
      "d": 176.6293749999968,
      "v": 106
    },
    {
      "midi": 62,
      "hit": false,
      "t": 58251.46208333343,
      "d": 271.7375000000029,
      "v": 103
    },
    {
      "midi": 48,
      "hit": false,
      "t": 58468.85208333341,
      "d": 303.44020833333343,
      "v": 94
    },
    {
      "midi": 60,
      "hit": false,
      "t": 58468.852083333426,
      "d": 240.0347916666724,
      "v": 96
    },
    {
      "midi": 59,
      "hit": false,
      "t": 58681.7131250001,
      "d": 412.13520833333314,
      "v": 110
    },
    {
      "midi": 47,
      "hit": false,
      "t": 58690.77104166675,
      "d": 190.21624999999767,
      "v": 101
    },
    {
      "midi": 55,
      "hit": false,
      "t": 58890.04520833343,
      "d": 203.80312499999854,
      "v": 11
    },
    {
      "midi": 55,
      "hit": false,
      "t": 58908.161041666746,
      "d": 3577.877083333333,
      "v": 111
    },
    {
      "midi": 50,
      "hit": false,
      "t": 59130.080000000096,
      "d": 3224.6183333333393,
      "v": 99
    },
    {
      "midi": 47,
      "hit": false,
      "t": 59130.080000000096,
      "d": 3310.6685416666733,
      "v": 88
    },
    {
      "midi": 55,
      "hit": false,
      "t": 59130.080000000096,
      "d": 3319.726458333338,
      "v": 94
    },
    {
      "midi": 36,
      "hit": false,
      "t": 62612.84895833344,
      "d": 1571.5485416666706,
      "v": 91
    },
    {
      "midi": 55,
      "hit": false,
      "t": 63043.10000000011,
      "d": 670.2858333333352,
      "v": 85
    },
    {
      "midi": 64,
      "hit": false,
      "t": 63473.35104166675,
      "d": 407.6062499999971,
      "v": 116
    },
    {
      "midi": 60,
      "hit": false,
      "t": 63482.40895833344,
      "d": 1354.158541666664,
      "v": 80
    },
    {
      "midi": 64,
      "hit": false,
      "t": 63486.93791666678,
      "d": 1390.3902083333305,
      "v": 80
    },
    {
      "midi": 65,
      "hit": false,
      "t": 63908.13104166675,
      "d": 181.15833333333285,
      "v": 98
    },
    {
      "midi": 55,
      "hit": false,
      "t": 63917.18895833344,
      "d": 738.2202083333323,
      "v": 70
    },
    {
      "midi": 67,
      "hit": false,
      "t": 64125.52104166675,
      "d": 837.8572916666672,
      "v": 111
    },
    {
      "midi": 36,
      "hit": false,
      "t": 64342.911041666775,
      "d": 1571.5485416666706,
      "v": 88
    },
    {
      "midi": 55,
      "hit": false,
      "t": 64786.74895833344,
      "d": 697.4595833333369,
      "v": 62
    },
    {
      "midi": 67,
      "hit": false,
      "t": 65212.471041666744,
      "d": 267.20854166666686,
      "v": 109
    },
    {
      "midi": 60,
      "hit": false,
      "t": 65221.528958333445,
      "d": 1417.5639583333468,
      "v": 79
    },
    {
      "midi": 64,
      "hit": false,
      "t": 65221.528958333445,
      "d": 1435.6797916666765,
      "v": 80
    },
    {
      "midi": 65,
      "hit": false,
      "t": 65429.86104166674,
      "d": 217.3900000000067,
      "v": 85
    },
    {
      "midi": 64,
      "hit": false,
      "t": 65647.25104166675,
      "d": 226.44791666667152,
      "v": 104
    },
    {
      "midi": 55,
      "hit": false,
      "t": 65647.25104166678,
      "d": 756.3360416666692,
      "v": 71
    },
    {
      "midi": 60,
      "hit": false,
      "t": 65864.64104166675,
      "d": 1213.7608333333337,
      "v": 107
    },
    {
      "midi": 36,
      "hit": false,
      "t": 66077.50208333344,
      "d": 1644.0118750000256,
      "v": 98
    },
    {
      "midi": 55,
      "hit": false,
      "t": 66530.39791666679,
      "d": 692.9306250000081,
      "v": 77
    },
    {
      "midi": 64,
      "hit": false,
      "t": 66960.64895833342,
      "d": 384.9614583333314,
      "v": 102
    },
    {
      "midi": 60,
      "hit": false,
      "t": 66965.17791666678,
      "d": 1367.7454166666867,
      "v": 85
    },
    {
      "midi": 64,
      "hit": false,
      "t": 66969.70687500012,
      "d": 1376.8033333333442,
      "v": 80
    },
    {
      "midi": 65,
      "hit": false,
      "t": 67386.37104166675,
      "d": 208.33208333332732,
      "v": 98
    },
    {
      "midi": 55,
      "hit": false,
      "t": 67399.9579166668,
      "d": 751.8070833333477,
      "v": 70
    },
    {
      "midi": 67,
      "hit": false,
      "t": 67612.8189583334,
      "d": 887.6758333333273,
      "v": 106
    },
    {
      "midi": 36,
      "hit": false,
      "t": 67830.20895833347,
      "d": 1571.5485416666634,
      "v": 90
    },
    {
      "midi": 55,
      "hit": false,
      "t": 68264.98895833347,
      "d": 711.0464583333232,
      "v": 71
    },
    {
      "midi": 67,
      "hit": false,
      "t": 68690.71104166673,
      "d": 253.62166666667326,
      "v": 106
    },
    {
      "midi": 64,
      "hit": false,
      "t": 68699.76895833346,
      "d": 1367.745416666672,
      "v": 85
    },
    {
      "midi": 60,
      "hit": false,
      "t": 68699.76895833346,
      "d": 1372.2743750000081,
      "v": 85
    },
    {
      "midi": 65,
      "hit": false,
      "t": 68908.10104166673,
      "d": 208.33208333334187,
      "v": 96
    },
    {
      "midi": 64,
      "hit": false,
      "t": 69125.49104166674,
      "d": 416.6641666666692,
      "v": 114
    },
    {
      "midi": 55,
      "hit": false,
      "t": 69125.4910416668,
      "d": 756.3360416666692,
      "v": 71
    },
    {
      "midi": 36,
      "hit": false,
      "t": 69560.2710416668,
      "d": 1585.1354166666715,
      "v": 94
    },
    {
      "midi": 64,
      "hit": false,
      "t": 69564.80000000008,
      "d": 416.6641666666692,
      "v": 116
    },
    {
      "midi": 48,
      "hit": false,
      "t": 69569.32895833347,
      "d": 1494.5562499999942,
      "v": 99
    },
    {
      "midi": 48,
      "hit": false,
      "t": 69999.58000000007,
      "d": 1182.058124999996,
      "v": 101
    },
    {
      "midi": 55,
      "hit": false,
      "t": 70004.10895833347,
      "d": 729.1622916666529,
      "v": 83
    },
    {
      "midi": 60,
      "hit": false,
      "t": 70212.44104166674,
      "d": 271.7375000000029,
      "v": 106
    },
    {
      "midi": 64,
      "hit": false,
      "t": 70429.83104166674,
      "d": 412.13520833333314,
      "v": 119
    },
    {
      "midi": 64,
      "hit": false,
      "t": 70429.8310416668,
      "d": 1372.2743750000081,
      "v": 94
    },
    {
      "midi": 60,
      "hit": false,
      "t": 70429.8310416668,
      "d": 1376.8033333333442,
      "v": 101
    },
    {
      "midi": 55,
      "hit": false,
      "t": 70860.08208333346,
      "d": 674.8147916666785,
      "v": 74
    },
    {
      "midi": 65,
      "hit": false,
      "t": 70864.61104166674,
      "d": 249.0927083333372,
      "v": 106
    },
    {
      "midi": 67,
      "hit": false,
      "t": 71082.00104166674,
      "d": 815.2124999999942,
      "v": 106
    },
    {
      "midi": 48,
      "hit": false,
      "t": 71294.86208333347,
      "d": 1209.2318749999977,
      "v": 103
    },
    {
      "midi": 48,
      "hit": false,
      "t": 71308.4489583334,
      "d": 452.8958333333285,
      "v": 112
    },
    {
      "midi": 55,
      "hit": false,
      "t": 71734.17104166673,
      "d": 1313.3979166666832,
      "v": 112
    },
    {
      "midi": 55,
      "hit": false,
      "t": 71734.1710416668,
      "d": 525.3591666666616,
      "v": 86
    },
    {
      "midi": 60,
      "hit": false,
      "t": 71951.56104166673,
      "d": 466.48270833333663,
      "v": 104
    },
    {
      "midi": 64,
      "hit": false,
      "t": 72164.42208333347,
      "d": 892.2047916666634,
      "v": 94
    },
    {
      "midi": 67,
      "hit": false,
      "t": 72168.95104166673,
      "d": 280.795416666675,
      "v": 112
    },
    {
      "midi": 60,
      "hit": false,
      "t": 72168.9510416668,
      "d": 883.1468749999913,
      "v": 98
    },
    {
      "midi": 65,
      "hit": false,
      "t": 72386.34104166673,
      "d": 267.2085416666814,
      "v": 99
    },
    {
      "midi": 55,
      "hit": false,
      "t": 72386.3410416668,
      "d": 643.1120833333262,
      "v": 94
    },
    {
      "midi": 64,
      "hit": false,
      "t": 72603.73104166675,
      "d": 253.62166666667326,
      "v": 114
    },
    {
      "midi": 48,
      "hit": false,
      "t": 72603.7310416668,
      "d": 452.8958333333285,
      "v": 93
    },
    {
      "midi": 62,
      "hit": false,
      "t": 72821.12104166675,
      "d": 978.2550000000047,
      "v": 118
    },
    {
      "midi": 38,
      "hit": false,
      "t": 73043.04000000012,
      "d": 1381.3322916666657,
      "v": 101
    },
    {
      "midi": 53,
      "hit": false,
      "t": 73047.56895833342,
      "d": 765.3939583333267,
      "v": 98
    },
    {
      "midi": 57,
      "hit": false,
      "t": 73047.56895833342,
      "d": 765.3939583333267,
      "v": 102
    },
    {
      "midi": 50,
      "hit": false,
      "t": 73473.29104166674,
      "d": 738.220208333325,
      "v": 98
    },
    {
      "midi": 50,
      "hit": false,
      "t": 73482.34895833346,
      "d": 724.6333333333314,
      "v": 93
    },
    {
      "midi": 62,
      "hit": false,
      "t": 73908.07104166674,
      "d": 778.9808333333349,
      "v": 104
    },
    {
      "midi": 57,
      "hit": false,
      "t": 73908.07104166674,
      "d": 801.6256250000006,
      "v": 102
    },
    {
      "midi": 53,
      "hit": false,
      "t": 73908.07104166674,
      "d": 815.2124999999942,
      "v": 88
    },
    {
      "midi": 62,
      "hit": false,
      "t": 73917.12895833346,
      "d": 1449.2666666666628,
      "v": 103
    },
    {
      "midi": 53,
      "hit": false,
      "t": 73917.12895833346,
      "d": 1453.7956249999988,
      "v": 98
    },
    {
      "midi": 57,
      "hit": false,
      "t": 73917.12895833346,
      "d": 1462.853541666671,
      "v": 103
    },
    {
      "midi": 50,
      "hit": false,
      "t": 74342.85104166674,
      "d": 729.1622916666674,
      "v": 94
    },
    {
      "midi": 50,
      "hit": false,
      "t": 74342.85104166679,
      "d": 471.0116666666727,
      "v": 94
    },
    {
      "midi": 38,
      "hit": false,
      "t": 74768.57312500013,
      "d": 1648.540833333347,
      "v": 104
    },
    {
      "midi": 53,
      "hit": false,
      "t": 74777.63104166674,
      "d": 575.1777083333436,
      "v": 102
    },
    {
      "midi": 57,
      "hit": false,
      "t": 74777.63104166674,
      "d": 738.2202083333395,
      "v": 106
    },
    {
      "midi": 62,
      "hit": false,
      "t": 74777.63104166674,
      "d": 1182.058124999996,
      "v": 107
    },
    {
      "midi": 50,
      "hit": false,
      "t": 75216.94000000012,
      "d": 715.5754166666884,
      "v": 99
    },
    {
      "midi": 50,
      "hit": false,
      "t": 75221.46895833341,
      "d": 1295.2820833333244,
      "v": 104
    },
    {
      "midi": 53,
      "hit": false,
      "t": 75438.85895833341,
      "d": 298.9112499999901,
      "v": 93
    },
    {
      "midi": 62,
      "hit": false,
      "t": 75647.1910416668,
      "d": 874.0889583333337,
      "v": 101
    },
    {
      "midi": 57,
      "hit": false,
      "t": 75651.72000000007,
      "d": 475.5406249999942,
      "v": 96
    },
    {
      "midi": 57,
      "hit": false,
      "t": 75651.72000000013,
      "d": 869.5599999999977,
      "v": 103
    },
    {
      "midi": 53,
      "hit": false,
      "t": 75656.24895833347,
      "d": 865.0310416666616,
      "v": 96
    },
    {
      "midi": 53,
      "hit": false,
      "t": 75864.58104166674,
      "d": 656.6989583333343,
      "v": 93
    },
    {
      "midi": 62,
      "hit": false,
      "t": 76081.97104166674,
      "d": 439.3089583333349,
      "v": 104
    },
    {
      "midi": 50,
      "hit": false,
      "t": 76095.5579166668,
      "d": 412.13520833333314,
      "v": 103
    },
    {
      "midi": 57,
      "hit": false,
      "t": 76303.89000000007,
      "d": 217.38999999999942,
      "v": 85
    },
    {
      "midi": 57,
      "hit": false,
      "t": 76521.28000000007,
      "d": 321.55604166667035,
      "v": 112
    },
    {
      "midi": 53,
      "hit": false,
      "t": 76521.28000000007,
      "d": 448.366875000007,
      "v": 109
    },
    {
      "midi": 62,
      "hit": false,
      "t": 76521.28000000007,
      "d": 557.061875000014,
      "v": 112
    },
    {
      "midi": 38,
      "hit": false,
      "t": 76521.28000000013,
      "d": 1648.5408333333326,
      "v": 101
    },
    {
      "midi": 57,
      "hit": false,
      "t": 76951.53104166675,
      "d": 285.3243749999965,
      "v": 99
    },
    {
      "midi": 50,
      "hit": false,
      "t": 76960.58895833346,
      "d": 724.6333333333314,
      "v": 93
    },
    {
      "midi": 53,
      "hit": false,
      "t": 77168.92104166675,
      "d": 212.86104166666337,
      "v": 96
    },
    {
      "midi": 62,
      "hit": false,
      "t": 77386.31104166675,
      "d": 466.48270833333663,
      "v": 111
    },
    {
      "midi": 57,
      "hit": false,
      "t": 77386.31104166675,
      "d": 498.1854166666744,
      "v": 111
    },
    {
      "midi": 53,
      "hit": false,
      "t": 77386.31104166675,
      "d": 502.7143750000105,
      "v": 104
    },
    {
      "midi": 62,
      "hit": false,
      "t": 77395.36895833346,
      "d": 1449.2666666666628,
      "v": 103
    },
    {
      "midi": 53,
      "hit": false,
      "t": 77395.36895833346,
      "d": 1453.7956249999988,
      "v": 98
    },
    {
      "midi": 57,
      "hit": false,
      "t": 77395.36895833346,
      "d": 1462.853541666671,
      "v": 103
    },
    {
      "midi": 50,
      "hit": false,
      "t": 77821.09104166675,
      "d": 969.1970833333471,
      "v": 112
    },
    {
      "midi": 50,
      "hit": false,
      "t": 77821.09104166679,
      "d": 471.0116666666727,
      "v": 94
    },
    {
      "midi": 53,
      "hit": false,
      "t": 78038.48104166676,
      "d": 901.2627083333355,
      "v": 111
    },
    {
      "midi": 62,
      "hit": false,
      "t": 78038.48104166676,
      "d": 928.4364583333372,
      "v": 114
    },
    {
      "midi": 57,
      "hit": false,
      "t": 78038.48104166676,
      "d": 955.610208333339,
      "v": 114
    },
    {
      "midi": 38,
      "hit": false,
      "t": 78246.81312500013,
      "d": 1779.8806250000052,
      "v": 104
    },
    {
      "midi": 50,
      "hit": false,
      "t": 78695.18000000012,
      "d": 715.5754166666884,
      "v": 99
    },
    {
      "midi": 50,
      "hit": false,
      "t": 78908.04104166676,
      "d": 1118.6527083333494,
      "v": 111
    },
    {
      "midi": 53,
      "hit": false,
      "t": 79125.43104166677,
      "d": 869.5599999999977,
      "v": 111
    },
    {
      "midi": 60,
      "hit": false,
      "t": 79125.43104166677,
      "d": 896.7337499999994,
      "v": 118
    },
    {
      "midi": 57,
      "hit": false,
      "t": 79125.43104166677,
      "d": 905.7916666666715,
      "v": 114
    },
    {
      "midi": 62,
      "hit": false,
      "t": 79125.4310416668,
      "d": 874.0889583333337,
      "v": 101
    },
    {
      "midi": 57,
      "hit": false,
      "t": 79129.96000000014,
      "d": 869.5599999999977,
      "v": 103
    },
    {
      "midi": 53,
      "hit": false,
      "t": 79134.48895833347,
      "d": 865.0310416666616,
      "v": 96
    },
    {
      "midi": 50,
      "hit": false,
      "t": 79573.79791666681,
      "d": 425.72208333332674,
      "v": 103
    },
    {
      "midi": 36,
      "hit": false,
      "t": 80004.04895833344,
      "d": 1612.3091666666587,
      "v": 109
    },
    {
      "midi": 48,
      "hit": false,
      "t": 80004.04895833347,
      "d": 1494.5562499999942,
      "v": 99
    },
    {
      "midi": 48,
      "hit": false,
      "t": 80438.82895833344,
      "d": 1182.058124999996,
      "v": 99
    },
    {
      "midi": 55,
      "hit": false,
      "t": 80438.82895833347,
      "d": 729.1622916666529,
      "v": 83
    },
    {
      "midi": 55,
      "hit": false,
      "t": 80651.6900000001,
      "d": 543.4749999999913,
      "v": 99
    },
    {
      "midi": 64,
      "hit": false,
      "t": 80864.55104166677,
      "d": 434.77999999999884,
      "v": 118
    },
    {
      "midi": 60,
      "hit": false,
      "t": 80864.55104166677,
      "d": 1539.8458333333256,
      "v": 114
    },
    {
      "midi": 64,
      "hit": false,
      "t": 80864.5510416668,
      "d": 1372.2743749999936,
      "v": 94
    },
    {
      "midi": 60,
      "hit": false,
      "t": 80864.5510416668,
      "d": 1376.8033333333296,
      "v": 101
    },
    {
      "midi": 65,
      "hit": false,
      "t": 81294.80208333343,
      "d": 203.80312500000582,
      "v": 111
    },
    {
      "midi": 55,
      "hit": false,
      "t": 81294.80208333346,
      "d": 674.814791666664,
      "v": 74
    },
    {
      "midi": 55,
      "hit": false,
      "t": 81299.33104166677,
      "d": 969.1970833333326,
      "v": 102
    },
    {
      "midi": 67,
      "hit": false,
      "t": 81512.19208333343,
      "d": 969.1970833333326,
      "v": 118
    },
    {
      "midi": 48,
      "hit": false,
      "t": 81729.58208333346,
      "d": 1209.2318749999977,
      "v": 103
    },
    {
      "midi": 36,
      "hit": false,
      "t": 81734.11104166677,
      "d": 1761.764791666661,
      "v": 109
    },
    {
      "midi": 48,
      "hit": false,
      "t": 82168.89104166676,
      "d": 1326.9847916666622,
      "v": 102
    },
    {
      "midi": 55,
      "hit": false,
      "t": 82168.8910416668,
      "d": 525.3591666666616,
      "v": 86
    },
    {
      "midi": 55,
      "hit": false,
      "t": 82386.28104166676,
      "d": 593.2935416666587,
      "v": 90
    },
    {
      "midi": 67,
      "hit": false,
      "t": 82599.14208333343,
      "d": 240.03479166666511,
      "v": 118
    },
    {
      "midi": 64,
      "hit": false,
      "t": 82599.14208333346,
      "d": 892.2047916666779,
      "v": 94
    },
    {
      "midi": 60,
      "hit": false,
      "t": 82603.67104166676,
      "d": 883.1468749999913,
      "v": 112
    },
    {
      "midi": 60,
      "hit": false,
      "t": 82603.67104166679,
      "d": 883.1468750000058,
      "v": 98
    },
    {
      "midi": 65,
      "hit": false,
      "t": 82816.53208333343,
      "d": 203.80312499999127,
      "v": 116
    },
    {
      "midi": 55,
      "hit": false,
      "t": 82821.06104166679,
      "d": 643.1120833333407,
      "v": 94
    },
    {
      "midi": 64,
      "hit": false,
      "t": 83038.45104166675,
      "d": 416.6641666666692,
      "v": 118
    },
    {
      "midi": 55,
      "hit": false,
      "t": 83038.45104166675,
      "d": 452.89583333334303,
      "v": 87
    },
    {
      "midi": 48,
      "hit": false,
      "t": 83038.45104166679,
      "d": 416.6641666666692,
      "v": 93
    },
    {
      "midi": 64,
      "hit": false,
      "t": 83477.76000000008,
      "d": 634.0541666666832,
      "v": 119
    },
    {
      "midi": 48,
      "hit": false,
      "t": 83482.28895833346,
      "d": 416.6641666666692,
      "v": 99
    },
    {
      "midi": 48,
      "hit": false,
      "t": 83912.5400000001,
      "d": 1182.058124999996,
      "v": 101
    },
    {
      "midi": 55,
      "hit": false,
      "t": 83917.06895833346,
      "d": 729.1622916666529,
      "v": 83
    },
    {
      "midi": 64,
      "hit": false,
      "t": 84342.79104166676,
      "d": 353.2587499999936,
      "v": 112
    },
    {
      "midi": 64,
      "hit": false,
      "t": 84342.79104166679,
      "d": 1372.2743749999936,
      "v": 94
    },
    {
      "midi": 60,
      "hit": false,
      "t": 84342.79104166679,
      "d": 1376.8033333333296,
      "v": 101
    },
    {
      "midi": 65,
      "hit": false,
      "t": 84773.04208333342,
      "d": 149.45562500000233,
      "v": 99
    },
    {
      "midi": 55,
      "hit": false,
      "t": 84773.04208333345,
      "d": 674.814791666664,
      "v": 74
    },
    {
      "midi": 67,
      "hit": false,
      "t": 84990.43208333342,
      "d": 987.3129166666622,
      "v": 116
    },
    {
      "midi": 48,
      "hit": false,
      "t": 85207.82208333345,
      "d": 1209.2318749999977,
      "v": 103
    },
    {
      "midi": 48,
      "hit": false,
      "t": 85221.40895833343,
      "d": 452.8958333333285,
      "v": 112
    },
    {
      "midi": 55,
      "hit": false,
      "t": 85647.13104166675,
      "d": 1313.3979166666686,
      "v": 112
    },
    {
      "midi": 55,
      "hit": false,
      "t": 85647.13104166678,
      "d": 525.3591666666616,
      "v": 86
    },
    {
      "midi": 67,
      "hit": false,
      "t": 86077.38208333342,
      "d": 421.19312500000524,
      "v": 112
    },
    {
      "midi": 64,
      "hit": false,
      "t": 86077.38208333345,
      "d": 892.2047916666634,
      "v": 94
    },
    {
      "midi": 60,
      "hit": false,
      "t": 86081.91104166678,
      "d": 883.1468749999913,
      "v": 98
    },
    {
      "midi": 55,
      "hit": false,
      "t": 86299.30104166678,
      "d": 643.1120833333262,
      "v": 94
    },
    {
      "midi": 64,
      "hit": false,
      "t": 86512.16208333342,
      "d": 181.15833333334012,
      "v": 111
    },
    {
      "midi": 48,
      "hit": false,
      "t": 86516.69104166678,
      "d": 452.8958333333285,
      "v": 93
    },
    {
      "midi": 62,
      "hit": false,
      "t": 86729.55208333343,
      "d": 1037.131458333315,
      "v": 118
    },
    {
      "midi": 38,
      "hit": false,
      "t": 86956.0000000001,
      "d": 1381.3322916666657,
      "v": 101
    },
    {
      "midi": 53,
      "hit": false,
      "t": 86960.52895833342,
      "d": 765.3939583333267,
      "v": 98
    },
    {
      "midi": 57,
      "hit": false,
      "t": 86960.52895833342,
      "d": 765.3939583333267,
      "v": 102
    },
    {
      "midi": 50,
      "hit": false,
      "t": 87386.25104166675,
      "d": 738.220208333325,
      "v": 98
    },
    {
      "midi": 50,
      "hit": false,
      "t": 87395.30895833344,
      "d": 724.6333333333314,
      "v": 93
    },
    {
      "midi": 62,
      "hit": false,
      "t": 87821.03104166675,
      "d": 371.37458333332324,
      "v": 114
    },
    {
      "midi": 57,
      "hit": false,
      "t": 87821.03104166675,
      "d": 801.6256250000006,
      "v": 102
    },
    {
      "midi": 53,
      "hit": false,
      "t": 87821.03104166675,
      "d": 815.2124999999942,
      "v": 88
    },
    {
      "midi": 62,
      "hit": false,
      "t": 87830.08895833344,
      "d": 1449.2666666666628,
      "v": 103
    },
    {
      "midi": 53,
      "hit": false,
      "t": 87830.08895833344,
      "d": 1453.7956249999988,
      "v": 98
    },
    {
      "midi": 57,
      "hit": false,
      "t": 87830.08895833344,
      "d": 1462.853541666671,
      "v": 103
    },
    {
      "midi": 60,
      "hit": false,
      "t": 88251.28208333341,
      "d": 172.10041666666802,
      "v": 111
    },
    {
      "midi": 50,
      "hit": false,
      "t": 88255.81104166675,
      "d": 729.1622916666674,
      "v": 94
    },
    {
      "midi": 50,
      "hit": false,
      "t": 88255.81104166676,
      "d": 471.0116666666727,
      "v": 94
    },
    {
      "midi": 62,
      "hit": false,
      "t": 88468.67208333341,
      "d": 960.139166666675,
      "v": 116
    },
    {
      "midi": 38,
      "hit": false,
      "t": 88681.5331250001,
      "d": 1648.540833333347,
      "v": 104
    },
    {
      "midi": 53,
      "hit": false,
      "t": 88690.59104166675,
      "d": 575.1777083333436,
      "v": 102
    },
    {
      "midi": 57,
      "hit": false,
      "t": 88690.59104166675,
      "d": 738.2202083333395,
      "v": 106
    },
    {
      "midi": 50,
      "hit": false,
      "t": 89129.9000000001,
      "d": 715.5754166666884,
      "v": 99
    },
    {
      "midi": 50,
      "hit": false,
      "t": 89134.42895833342,
      "d": 1295.282083333339,
      "v": 104
    },
    {
      "midi": 53,
      "hit": false,
      "t": 89351.81895833342,
      "d": 298.91125000000466,
      "v": 93
    },
    {
      "midi": 64,
      "hit": false,
      "t": 89560.15104166676,
      "d": 801.6256250000006,
      "v": 118
    },
    {
      "midi": 62,
      "hit": false,
      "t": 89560.15104166677,
      "d": 874.0889583333337,
      "v": 101
    },
    {
      "midi": 57,
      "hit": false,
      "t": 89564.6800000001,
      "d": 475.5406249999942,
      "v": 96
    },
    {
      "midi": 57,
      "hit": false,
      "t": 89564.68000000011,
      "d": 869.5599999999977,
      "v": 103
    },
    {
      "midi": 53,
      "hit": false,
      "t": 89569.20895833345,
      "d": 865.0310416666616,
      "v": 96
    },
    {
      "midi": 53,
      "hit": false,
      "t": 89777.54104166676,
      "d": 656.6989583333343,
      "v": 93
    },
    {
      "midi": 50,
      "hit": false,
      "t": 90008.51791666678,
      "d": 412.13520833333314,
      "v": 103
    },
    {
      "midi": 57,
      "hit": false,
      "t": 90216.8500000001,
      "d": 217.38999999999942,
      "v": 85
    },
    {
      "midi": 62,
      "hit": false,
      "t": 90429.71104166676,
      "d": 747.2781250000116,
      "v": 118
    },
    {
      "midi": 57,
      "hit": false,
      "t": 90434.24000000009,
      "d": 321.55604166667035,
      "v": 112
    },
    {
      "midi": 53,
      "hit": false,
      "t": 90434.24000000009,
      "d": 448.366875000007,
      "v": 109
    },
    {
      "midi": 38,
      "hit": false,
      "t": 90434.2400000001,
      "d": 1648.5408333333326,
      "v": 101
    },
    {
      "midi": 57,
      "hit": false,
      "t": 90864.49104166677,
      "d": 285.3243749999965,
      "v": 99
    },
    {
      "midi": 50,
      "hit": false,
      "t": 90873.54895833344,
      "d": 724.6333333333314,
      "v": 93
    },
    {
      "midi": 53,
      "hit": false,
      "t": 91081.88104166677,
      "d": 212.86104166666337,
      "v": 96
    },
    {
      "midi": 62,
      "hit": false,
      "t": 91299.27104166677,
      "d": 407.6062499999971,
      "v": 111
    },
    {
      "midi": 57,
      "hit": false,
      "t": 91299.27104166677,
      "d": 498.1854166666599,
      "v": 111
    },
    {
      "midi": 53,
      "hit": false,
      "t": 91299.27104166677,
      "d": 502.7143749999959,
      "v": 104
    },
    {
      "midi": 62,
      "hit": false,
      "t": 91308.32895833344,
      "d": 1449.2666666666628,
      "v": 103
    },
    {
      "midi": 53,
      "hit": false,
      "t": 91308.32895833344,
      "d": 1453.7956249999988,
      "v": 98
    },
    {
      "midi": 57,
      "hit": false,
      "t": 91308.32895833344,
      "d": 1462.853541666671,
      "v": 103
    },
    {
      "midi": 50,
      "hit": false,
      "t": 91734.05104166677,
      "d": 471.0116666666727,
      "v": 94
    },
    {
      "midi": 60,
      "hit": false,
      "t": 91734.05104166677,
      "d": 158.51354166665988,
      "v": 109
    },
    {
      "midi": 50,
      "hit": false,
      "t": 91734.05104166677,
      "d": 969.1970833333326,
      "v": 112
    },
    {
      "midi": 62,
      "hit": false,
      "t": 91946.91208333343,
      "d": 1050.7183333333378,
      "v": 116
    },
    {
      "midi": 53,
      "hit": false,
      "t": 91951.44104166677,
      "d": 901.2627083333355,
      "v": 111
    },
    {
      "midi": 57,
      "hit": false,
      "t": 91951.44104166677,
      "d": 955.610208333339,
      "v": 114
    },
    {
      "midi": 38,
      "hit": false,
      "t": 92159.77312500011,
      "d": 1779.8806250000052,
      "v": 104
    },
    {
      "midi": 50,
      "hit": false,
      "t": 92608.1400000001,
      "d": 715.5754166666884,
      "v": 99
    },
    {
      "midi": 50,
      "hit": false,
      "t": 92821.00104166676,
      "d": 1118.6527083333349,
      "v": 111
    },
    {
      "midi": 60,
      "hit": false,
      "t": 93038.39104166676,
      "d": 566.1197916666715,
      "v": 116
    },
    {
      "midi": 53,
      "hit": false,
      "t": 93038.39104166676,
      "d": 869.5599999999977,
      "v": 111
    },
    {
      "midi": 57,
      "hit": false,
      "t": 93038.39104166676,
      "d": 905.7916666666715,
      "v": 114
    },
    {
      "midi": 62,
      "hit": false,
      "t": 93038.39104166678,
      "d": 874.0889583333337,
      "v": 101
    },
    {
      "midi": 57,
      "hit": false,
      "t": 93042.92000000011,
      "d": 869.5599999999977,
      "v": 103
    },
    {
      "midi": 53,
      "hit": false,
      "t": 93047.44895833345,
      "d": 865.0310416666616,
      "v": 96
    },
    {
      "midi": 50,
      "hit": false,
      "t": 93486.75791666679,
      "d": 425.72208333332674,
      "v": 103
    },
    {
      "midi": 60,
      "hit": false,
      "t": 93690.56104166676,
      "d": 1014.486666666664,
      "v": 118
    },
    {
      "midi": 36,
      "hit": false,
      "t": 93917.00895833343,
      "d": 1612.3091666666733,
      "v": 109
    },
    {
      "midi": 48,
      "hit": false,
      "t": 93917.00895833345,
      "d": 1494.5562499999942,
      "v": 99
    },
    {
      "midi": 48,
      "hit": false,
      "t": 94351.78895833343,
      "d": 1182.0581250000105,
      "v": 99
    },
    {
      "midi": 55,
      "hit": false,
      "t": 94351.78895833345,
      "d": 729.1622916666529,
      "v": 83
    },
    {
      "midi": 55,
      "hit": false,
      "t": 94564.6500000001,
      "d": 543.4750000000058,
      "v": 99
    },
    {
      "midi": 60,
      "hit": false,
      "t": 94777.51104166676,
      "d": 1539.8458333333401,
      "v": 114
    },
    {
      "midi": 64,
      "hit": false,
      "t": 94777.51104166677,
      "d": 1372.2743749999936,
      "v": 94
    },
    {
      "midi": 60,
      "hit": false,
      "t": 94777.51104166677,
      "d": 1376.8033333333296,
      "v": 101
    },
    {
      "midi": 64,
      "hit": false,
      "t": 94786.56895833343,
      "d": 1526.258958333332,
      "v": 109
    },
    {
      "midi": 55,
      "hit": false,
      "t": 95207.76208333344,
      "d": 674.814791666664,
      "v": 74
    },
    {
      "midi": 55,
      "hit": false,
      "t": 95212.29104166677,
      "d": 969.1970833333326,
      "v": 102
    },
    {
      "midi": 48,
      "hit": false,
      "t": 95642.54208333344,
      "d": 1209.2318749999977,
      "v": 103
    },
    {
      "midi": 36,
      "hit": false,
      "t": 95647.07104166677,
      "d": 1761.7647916667047,
      "v": 109
    },
    {
      "midi": 55,
      "hit": false,
      "t": 96081.85104166677,
      "d": 525.3591666666616,
      "v": 86
    },
    {
      "midi": 48,
      "hit": false,
      "t": 96081.85104166677,
      "d": 1268.1083333333663,
      "v": 102
    },
    {
      "midi": 55,
      "hit": false,
      "t": 96299.24104166677,
      "d": 593.2935416666733,
      "v": 90
    },
    {
      "midi": 64,
      "hit": false,
      "t": 96512.10208333343,
      "d": 892.2047916666634,
      "v": 94
    },
    {
      "midi": 60,
      "hit": false,
      "t": 96516.63104166677,
      "d": 883.1468749999913,
      "v": 98
    },
    {
      "midi": 60,
      "hit": false,
      "t": 96516.63104166677,
      "d": 588.7645833333518,
      "v": 112
    },
    {
      "midi": 64,
      "hit": false,
      "t": 96516.63104166677,
      "d": 878.6179166666989,
      "v": 112
    },
    {
      "midi": 55,
      "hit": false,
      "t": 96734.02104166677,
      "d": 643.1120833333262,
      "v": 94
    },
    {
      "midi": 48,
      "hit": false,
      "t": 96951.41104166677,
      "d": 452.8958333333285,
      "v": 93
    },
    {
      "midi": 55,
      "hit": false,
      "t": 96951.41104166678,
      "d": 452.8958333333576,
      "v": 87
    },
    {
      "midi": 60,
      "hit": false,
      "t": 97164.27208333346,
      "d": 181.15833333334012,
      "v": 119
    },
    {
      "midi": 29,
      "hit": false,
      "t": 97390.72000000009,
      "d": 1634.953958333339,
      "v": 101
    },
    {
      "midi": 48,
      "hit": false,
      "t": 97390.72000000013,
      "d": 344.2008333333506,
      "v": 111
    },
    {
      "midi": 53,
      "hit": false,
      "t": 97390.72000000013,
      "d": 557.061875000014,
      "v": 109
    },
    {
      "midi": 57,
      "hit": false,
      "t": 97390.72000000013,
      "d": 697.4595833333442,
      "v": 113
    },
    {
      "midi": 60,
      "hit": false,
      "t": 97390.72000000013,
      "d": 724.633333333346,
      "v": 111
    },
    {
      "midi": 48,
      "hit": false,
      "t": 97820.97104166677,
      "d": 3115.923333333325,
      "v": 93
    },
    {
      "midi": 48,
      "hit": false,
      "t": 97830.02895833348,
      "d": 973.726041666654,
      "v": 107
    },
    {
      "midi": 53,
      "hit": false,
      "t": 98033.83208333343,
      "d": 1394.9191666666593,
      "v": 98
    },
    {
      "midi": 53,
      "hit": false,
      "t": 98042.89000000014,
      "d": 525.3591666666616,
      "v": 107
    },
    {
      "midi": 57,
      "hit": false,
      "t": 98251.22208333343,
      "d": 1453.7956249999988,
      "v": 103
    },
    {
      "midi": 57,
      "hit": false,
      "t": 98255.75104166681,
      "d": 1752.7068749999744,
      "v": 114
    },
    {
      "midi": 60,
      "hit": false,
      "t": 98264.80895833348,
      "d": 801.625624999986,
      "v": 109
    },
    {
      "midi": 60,
      "hit": false,
      "t": 98468.61208333343,
      "d": 1249.992499999993,
      "v": 98
    },
    {
      "midi": 55,
      "hit": false,
      "t": 98690.53104166676,
      "d": 987.3129166666622,
      "v": 98
    },
    {
      "midi": 53,
      "hit": false,
      "t": 98690.5310416668,
      "d": 326.08499999999185,
      "v": 107
    },
    {
      "midi": 48,
      "hit": false,
      "t": 98916.97895833346,
      "d": 484.5985416666663,
      "v": 114
    },
    {
      "midi": 29,
      "hit": false,
      "t": 99125.31104166676,
      "d": 1829.6991666666727,
      "v": 99
    },
    {
      "midi": 53,
      "hit": false,
      "t": 99129.84000000013,
      "d": 452.8958333333285,
      "v": 111
    },
    {
      "midi": 53,
      "hit": false,
      "t": 99555.56208333343,
      "d": 756.3360416666692,
      "v": 96
    },
    {
      "midi": 48,
      "hit": false,
      "t": 99560.09104166679,
      "d": 1345.1006250000064,
      "v": 111
    },
    {
      "midi": 53,
      "hit": false,
      "t": 99777.48104166679,
      "d": 1145.8264583333366,
      "v": 106
    },
    {
      "midi": 55,
      "hit": false,
      "t": 99985.81312500009,
      "d": 987.3129166666768,
      "v": 101
    },
    {
      "midi": 60,
      "hit": false,
      "t": 99985.81312500009,
      "d": 987.3129166666768,
      "v": 99
    },
    {
      "midi": 57,
      "hit": false,
      "t": 99985.81312500009,
      "d": 991.8418750000128,
      "v": 103
    },
    {
      "midi": 55,
      "hit": false,
      "t": 99994.87104166679,
      "d": 905.7916666666715,
      "v": 109
    },
    {
      "midi": 57,
      "hit": false,
      "t": 100212.26104166679,
      "d": 711.0464583333378,
      "v": 107
    },
    {
      "midi": 53,
      "hit": false,
      "t": 100425.12208333342,
      "d": 520.8302083333401,
      "v": 99
    },
    {
      "midi": 60,
      "hit": false,
      "t": 100429.65104166679,
      "d": 480.0695833333448,
      "v": 112
    },
    {
      "midi": 36,
      "hit": false,
      "t": 100637.98312500009,
      "d": 212.86104166666337,
      "v": 106
    },
    {
      "midi": 41,
      "hit": false,
      "t": 100855.37312500009,
      "d": 3247.263125000056,
      "v": 110
    },
    {
      "midi": 93,
      "hit": false,
      "t": 100868.96000000012,
      "d": 113.22395833334303,
      "v": 112
    },
    {
      "midi": 91,
      "hit": false,
      "t": 101086.35000000014,
      "d": 104.16604166667094,
      "v": 104
    },
    {
      "midi": 89,
      "hit": false,
      "t": 101299.21104166681,
      "d": 108.69500000000698,
      "v": 104
    },
    {
      "midi": 84,
      "hit": false,
      "t": 101516.60104166683,
      "d": 117.75291666666453,
      "v": 101
    },
    {
      "midi": 69,
      "hit": false,
      "t": 101715.87520833344,
      "d": 362.3166666666657,
      "v": 99
    },
    {
      "midi": 65,
      "hit": false,
      "t": 101715.87520833344,
      "d": 389.49041666666744,
      "v": 101
    },
    {
      "midi": 81,
      "hit": false,
      "t": 101733.99104166683,
      "d": 99.63708333333489,
      "v": 112
    },
    {
      "midi": 65,
      "hit": false,
      "t": 101743.0489583335,
      "d": 380.43249999999534,
      "v": 119
    },
    {
      "midi": 79,
      "hit": false,
      "t": 101951.38104166683,
      "d": 104.16604166667094,
      "v": 93
    },
    {
      "midi": 67,
      "hit": false,
      "t": 102150.65520833344,
      "d": 131.33979166667268,
      "v": 94
    },
    {
      "midi": 64,
      "hit": false,
      "t": 102150.65520833344,
      "d": 158.51354166667443,
      "v": 94
    },
    {
      "midi": 67,
      "hit": false,
      "t": 102164.24208333349,
      "d": 176.62937500000407,
      "v": 116
    },
    {
      "midi": 77,
      "hit": false,
      "t": 102168.77104166683,
      "d": 113.22395833332848,
      "v": 104
    },
    {
      "midi": 64,
      "hit": false,
      "t": 102368.04520833345,
      "d": 403.07729166666104,
      "v": 101
    },
    {
      "midi": 67,
      "hit": false,
      "t": 102368.04520833345,
      "d": 434.77999999999884,
      "v": 101
    },
    {
      "midi": 69,
      "hit": false,
      "t": 102381.63208333349,
      "d": 181.15833333334012,
      "v": 119
    },
    {
      "midi": 72,
      "hit": false,
      "t": 102386.16104166683,
      "d": 122.28187500000058,
      "v": 109
    },
    {
      "midi": 69,
      "hit": false,
      "t": 102603.55104166683,
      "d": 126.81083333333663,
      "v": 101
    },
    {
      "midi": 62,
      "hit": false,
      "t": 102811.88312500012,
      "d": 344.20083333333605,
      "v": 90
    },
    {
      "midi": 65,
      "hit": false,
      "t": 102811.88312500012,
      "d": 353.25875000000815,
      "v": 90
    },
    {
      "midi": 67,
      "hit": false,
      "t": 102820.94104166683,
      "d": 122.28187500000058,
      "v": 104
    },
    {
      "midi": 65,
      "hit": false,
      "t": 103038.33104166682,
      "d": 126.81083333333663,
      "v": 102
    },
    {
      "midi": 62,
      "hit": false,
      "t": 103246.66312500014,
      "d": 335.14291666666395,
      "v": 103
    },
    {
      "midi": 65,
      "hit": false,
      "t": 103246.66312500014,
      "d": 384.9614583333314,
      "v": 106
    },
    {
      "midi": 60,
      "hit": false,
      "t": 103255.72104166682,
      "d": 131.33979166667268,
      "v": 111
    },
    {
      "midi": 57,
      "hit": false,
      "t": 103473.11104166682,
      "d": 126.81083333333663,
      "v": 106
    },
    {
      "midi": 64,
      "hit": false,
      "t": 103676.9141666668,
      "d": 389.49041666666744,
      "v": 104
    },
    {
      "midi": 60,
      "hit": false,
      "t": 103681.44312500014,
      "d": 366.84562500000175,
      "v": 103
    },
    {
      "midi": 55,
      "hit": false,
      "t": 103690.50104166682,
      "d": 113.22395833332848,
      "v": 102
    },
    {
      "midi": 53,
      "hit": false,
      "t": 103907.89104166682,
      "d": 117.75291666666453,
      "v": 106
    },
    {
      "midi": 48,
      "hit": false,
      "t": 104125.28104166682,
      "d": 122.28187500000058,
      "v": 112
    },
    {
      "midi": 91,
      "hit": false,
      "t": 104347.20000000016,
      "d": 140.39770833333023,
      "v": 107
    },
    {
      "midi": 36,
      "hit": false,
      "t": 104356.25791666681,
      "d": 2427.5216666666674,
      "v": 103
    },
    {
      "midi": 89,
      "hit": false,
      "t": 104569.11895833349,
      "d": 104.16604166667094,
      "v": 78
    },
    {
      "midi": 43,
      "hit": false,
      "t": 104772.92208333348,
      "d": 1865.930833333332,
      "v": 94
    },
    {
      "midi": 88,
      "hit": false,
      "t": 104786.50895833349,
      "d": 99.63708333333489,
      "v": 99
    },
    {
      "midi": 48,
      "hit": false,
      "t": 104994.84104166682,
      "d": 1825.1702083333366,
      "v": 94
    },
    {
      "midi": 84,
      "hit": false,
      "t": 104994.84104166683,
      "d": 117.75291666666453,
      "v": 109
    },
    {
      "midi": 60,
      "hit": false,
      "t": 105212.23104166682,
      "d": 403.07729166666104,
      "v": 104
    },
    {
      "midi": 79,
      "hit": false,
      "t": 105212.23104166683,
      "d": 158.51354166667443,
      "v": 112
    },
    {
      "midi": 64,
      "hit": false,
      "t": 105216.76000000015,
      "d": 384.9614583333314,
      "v": 106
    },
    {
      "midi": 64,
      "hit": false,
      "t": 105221.2889583335,
      "d": 416.66416666668374,
      "v": 119
    },
    {
      "midi": 77,
      "hit": false,
      "t": 105429.62104166685,
      "d": 149.45562500000233,
      "v": 111
    },
    {
      "midi": 65,
      "hit": false,
      "t": 105642.48208333353,
      "d": 190.21624999999767,
      "v": 116
    },
    {
      "midi": 62,
      "hit": false,
      "t": 105647.01104166682,
      "d": 149.45562500000233,
      "v": 93
    },
    {
      "midi": 65,
      "hit": false,
      "t": 105647.01104166682,
      "d": 158.51354166667443,
      "v": 93
    },
    {
      "midi": 76,
      "hit": false,
      "t": 105647.01104166686,
      "d": 172.10041666666802,
      "v": 112
    },
    {
      "midi": 67,
      "hit": false,
      "t": 105864.40104166686,
      "d": 140.39770833333023,
      "v": 119
    },
    {
      "midi": 72,
      "hit": false,
      "t": 105864.40104166686,
      "d": 158.51354166665988,
      "v": 114
    },
    {
      "midi": 67,
      "hit": false,
      "t": 105868.93000000015,
      "d": 869.5599999999977,
      "v": 106
    },
    {
      "midi": 64,
      "hit": false,
      "t": 105868.93000000015,
      "d": 887.6758333333273,
      "v": 108
    },
    {
      "midi": 67,
      "hit": false,
      "t": 106081.79104166686,
      "d": 140.39770833333023,
      "v": 114
    },
    {
      "midi": 65,
      "hit": false,
      "t": 106299.18104166686,
      "d": 131.33979166667268,
      "v": 112
    },
    {
      "midi": 64,
      "hit": false,
      "t": 106516.57104166686,
      "d": 135.86874999999418,
      "v": 111
    },
    {
      "midi": 43,
      "hit": false,
      "t": 106729.43208333348,
      "d": 380.43250000002445,
      "v": 101
    },
    {
      "midi": 60,
      "hit": false,
      "t": 106733.96104166686,
      "d": 126.81083333333663,
      "v": 114
    },
    {
      "midi": 60,
      "hit": false,
      "t": 106951.35104166683,
      "d": 398.548333333325,
      "v": 106
    },
    {
      "midi": 55,
      "hit": false,
      "t": 106951.35104166686,
      "d": 144.92666666666628,
      "v": 112
    },
    {
      "midi": 55,
      "hit": false,
      "t": 106955.88000000016,
      "d": 380.43249999999534,
      "v": 103
    },
    {
      "midi": 64,
      "hit": false,
      "t": 106960.4089583335,
      "d": 362.3166666666657,
      "v": 104
    },
    {
      "midi": 53,
      "hit": false,
      "t": 107168.74104166686,
      "d": 126.81083333333663,
      "v": 106
    },
    {
      "midi": 52,
      "hit": false,
      "t": 107386.13104166686,
      "d": 158.51354166665988,
      "v": 99
    },
    {
      "midi": 55,
      "hit": false,
      "t": 107399.71791666682,
      "d": 498.1854166666599,
      "v": 108
    },
    {
      "midi": 64,
      "hit": false,
      "t": 107399.71791666682,
      "d": 498.1854166666599,
      "v": 108
    },
    {
      "midi": 60,
      "hit": false,
      "t": 107399.71791666682,
      "d": 511.7722916666535,
      "v": 110
    },
    {
      "midi": 48,
      "hit": false,
      "t": 107612.57895833351,
      "d": 117.75291666666453,
      "v": 109
    },
    {
      "midi": 43,
      "hit": false,
      "t": 107825.44000000015,
      "d": 797.0966666666645,
      "v": 103
    },
    {
      "midi": 86,
      "hit": false,
      "t": 107829.96895833351,
      "d": 199.27416666666977,
      "v": 114
    },
    {
      "midi": 84,
      "hit": false,
      "t": 108047.35895833351,
      "d": 149.45562500000233,
      "v": 109
    },
    {
      "midi": 50,
      "hit": false,
      "t": 108255.69104166681,
      "d": 1009.9577083333279,
      "v": 93
    },
    {
      "midi": 83,
      "hit": false,
      "t": 108264.74895833351,
      "d": 126.81083333333663,
      "v": 112
    },
    {
      "midi": 55,
      "hit": false,
      "t": 108473.08104166681,
      "d": 520.8302083333256,
      "v": 98
    },
    {
      "midi": 79,
      "hit": false,
      "t": 108482.13895833351,
      "d": 113.22395833332848,
      "v": 112
    },
    {
      "midi": 62,
      "hit": false,
      "t": 108690.47104166681,
      "d": 1449.2666666666628,
      "v": 106
    },
    {
      "midi": 59,
      "hit": false,
      "t": 108690.47104166681,
      "d": 1462.8535416666564,
      "v": 110
    },
    {
      "midi": 74,
      "hit": false,
      "t": 108690.47104166684,
      "d": 163.04249999999593,
      "v": 114
    },
    {
      "midi": 72,
      "hit": false,
      "t": 108907.86104166684,
      "d": 158.51354166665988,
      "v": 112
    },
    {
      "midi": 55,
      "hit": false,
      "t": 109116.19312500014,
      "d": 973.7260416666686,
      "v": 99
    },
    {
      "midi": 71,
      "hit": false,
      "t": 109120.7220833335,
      "d": 167.57145833333198,
      "v": 109
    },
    {
      "midi": 43,
      "hit": false,
      "t": 109338.11208333347,
      "d": 1983.683750000011,
      "v": 104
    },
    {
      "midi": 67,
      "hit": false,
      "t": 109338.1120833335,
      "d": 149.45562500000233,
      "v": 114
    },
    {
      "midi": 62,
      "hit": false,
      "t": 109555.5020833335,
      "d": 140.39770833333023,
      "v": 116
    },
    {
      "midi": 60,
      "hit": false,
      "t": 109772.8920833335,
      "d": 131.33979166667268,
      "v": 106
    },
    {
      "midi": 50,
      "hit": false,
      "t": 109990.28208333347,
      "d": 1268.1083333333372,
      "v": 99
    },
    {
      "midi": 59,
      "hit": false,
      "t": 109990.2820833335,
      "d": 153.98458333333838,
      "v": 106
    },
    {
      "midi": 55,
      "hit": false,
      "t": 110207.67208333347,
      "d": 701.9885416666657,
      "v": 98
    },
    {
      "midi": 55,
      "hit": false,
      "t": 110207.6720833335,
      "d": 113.22395833332848,
      "v": 111
    },
    {
      "midi": 59,
      "hit": false,
      "t": 110425.06208333347,
      "d": 176.62937500000407,
      "v": 106
    },
    {
      "midi": 62,
      "hit": false,
      "t": 110425.06208333347,
      "d": 271.7375000000029,
      "v": 103
    },
    {
      "midi": 50,
      "hit": false,
      "t": 110425.0620833335,
      "d": 258.15062499999476,
      "v": 104
    },
    {
      "midi": 60,
      "hit": false,
      "t": 110642.45208333347,
      "d": 240.03479166666511,
      "v": 96
    },
    {
      "midi": 48,
      "hit": false,
      "t": 110642.4520833335,
      "d": 303.4402083333407,
      "v": 94
    },
    {
      "midi": 59,
      "hit": false,
      "t": 110855.31312500013,
      "d": 412.1352083333477,
      "v": 110
    },
    {
      "midi": 47,
      "hit": false,
      "t": 110864.37104166683,
      "d": 190.21625000001222,
      "v": 101
    },
    {
      "midi": 55,
      "hit": false,
      "t": 111063.64520833347,
      "d": 203.80312500000582,
      "v": 11
    },
    {
      "midi": 55,
      "hit": false,
      "t": 111081.76104166685,
      "d": 3577.87708333334,
      "v": 111
    },
    {
      "midi": 50,
      "hit": false,
      "t": 111303.68000000015,
      "d": 3224.618333333332,
      "v": 99
    },
    {
      "midi": 47,
      "hit": false,
      "t": 111303.68000000015,
      "d": 3310.6685416666587,
      "v": 88
    },
    {
      "midi": 55,
      "hit": false,
      "t": 111303.68000000015,
      "d": 3319.726458333331,
      "v": 94
    },
    {
      "midi": 36,
      "hit": false,
      "t": 114786.44895833348,
      "d": 1571.548541666678,
      "v": 91
    },
    {
      "midi": 55,
      "hit": false,
      "t": 115216.70000000014,
      "d": 670.2858333333425,
      "v": 85
    },
    {
      "midi": 64,
      "hit": false,
      "t": 115646.95104166685,
      "d": 407.6062499999971,
      "v": 116
    },
    {
      "midi": 60,
      "hit": false,
      "t": 115656.00895833348,
      "d": 1354.1585416666785,
      "v": 80
    },
    {
      "midi": 64,
      "hit": false,
      "t": 115660.53791666681,
      "d": 1390.3902083333378,
      "v": 80
    },
    {
      "midi": 65,
      "hit": false,
      "t": 116081.73104166685,
      "d": 181.15833333334012,
      "v": 98
    },
    {
      "midi": 55,
      "hit": false,
      "t": 116090.78895833349,
      "d": 738.220208333325,
      "v": 70
    },
    {
      "midi": 67,
      "hit": false,
      "t": 116299.12104166686,
      "d": 837.8572916666599,
      "v": 111
    },
    {
      "midi": 36,
      "hit": false,
      "t": 116516.51104166682,
      "d": 1571.5485416666634,
      "v": 88
    },
    {
      "midi": 55,
      "hit": false,
      "t": 116960.34895833349,
      "d": 697.4595833333296,
      "v": 62
    },
    {
      "midi": 67,
      "hit": false,
      "t": 117386.07104166686,
      "d": 267.20854166666686,
      "v": 109
    },
    {
      "midi": 60,
      "hit": false,
      "t": 117395.12895833349,
      "d": 1417.5639583333395,
      "v": 79
    },
    {
      "midi": 64,
      "hit": false,
      "t": 117395.12895833349,
      "d": 1435.6797916666692,
      "v": 80
    },
    {
      "midi": 65,
      "hit": false,
      "t": 117603.46104166686,
      "d": 217.38999999999942,
      "v": 85
    },
    {
      "midi": 55,
      "hit": false,
      "t": 117820.85104166681,
      "d": 756.3360416666692,
      "v": 71
    },
    {
      "midi": 64,
      "hit": false,
      "t": 117820.85104166686,
      "d": 226.44791666667152,
      "v": 104
    },
    {
      "midi": 60,
      "hit": false,
      "t": 118038.24104166686,
      "d": 1213.7608333333337,
      "v": 107
    },
    {
      "midi": 36,
      "hit": false,
      "t": 118251.10208333348,
      "d": 1644.0118750000256,
      "v": 98
    },
    {
      "midi": 55,
      "hit": false,
      "t": 118703.99791666682,
      "d": 692.9306250000081,
      "v": 77
    },
    {
      "midi": 64,
      "hit": false,
      "t": 119134.24895833353,
      "d": 384.9614583333314,
      "v": 102
    },
    {
      "midi": 60,
      "hit": false,
      "t": 119138.77791666682,
      "d": 1367.7454166666867,
      "v": 85
    },
    {
      "midi": 64,
      "hit": false,
      "t": 119143.30687500015,
      "d": 1376.8033333333442,
      "v": 80
    },
    {
      "midi": 65,
      "hit": false,
      "t": 119559.97104166685,
      "d": 208.33208333332732,
      "v": 98
    },
    {
      "midi": 55,
      "hit": false,
      "t": 119573.55791666683,
      "d": 751.8070833333477,
      "v": 70
    },
    {
      "midi": 67,
      "hit": false,
      "t": 119786.41895833351,
      "d": 887.6758333333273,
      "v": 106
    },
    {
      "midi": 36,
      "hit": false,
      "t": 120003.80895833351,
      "d": 1571.5485416666634,
      "v": 90
    },
    {
      "midi": 55,
      "hit": false,
      "t": 120438.58895833351,
      "d": 711.0464583333232,
      "v": 71
    },
    {
      "midi": 67,
      "hit": false,
      "t": 120864.31104166684,
      "d": 253.62166666667326,
      "v": 106
    },
    {
      "midi": 60,
      "hit": false,
      "t": 120873.36895833349,
      "d": 797.0966666666791,
      "v": 85
    },
    {
      "midi": 64,
      "hit": false,
      "t": 120873.36895833349,
      "d": 797.0966666666791,
      "v": 85
    },
    {
      "midi": 65,
      "hit": false,
      "t": 121081.70104166683,
      "d": 208.33208333334187,
      "v": 96
    },
    {
      "midi": 55,
      "hit": false,
      "t": 121299.09104166683,
      "d": 416.6641666666692,
      "v": 71
    },
    {
      "midi": 64,
      "hit": false,
      "t": 121299.09104166685,
      "d": 416.6641666666692,
      "v": 114
    },
    {
      "midi": 36,
      "hit": false,
      "t": 121733.87104166683,
      "d": 1585.135416666686,
      "v": 94
    },
    {
      "midi": 55,
      "hit": false,
      "t": 121738.40000000017,
      "d": 317.0270833333343,
      "v": 106
    },
    {
      "midi": 64,
      "hit": false,
      "t": 121738.40000000017,
      "d": 502.7143750000105,
      "v": 108
    },
    {
      "midi": 60,
      "hit": false,
      "t": 121738.40000000017,
      "d": 507.2433333333465,
      "v": 108
    },
    {
      "midi": 67,
      "hit": false,
      "t": 121738.40000000017,
      "d": 570.6487500000076,
      "v": 104
    },
    {
      "midi": 64,
      "hit": false,
      "t": 121742.92895833352,
      "d": 724.6333333333314,
      "v": 98
    },
    {
      "midi": 67,
      "hit": false,
      "t": 121742.92895833352,
      "d": 742.749166666661,
      "v": 94
    },
    {
      "midi": 60,
      "hit": false,
      "t": 121742.92895833352,
      "d": 756.3360416666546,
      "v": 94
    },
    {
      "midi": 48,
      "hit": false,
      "t": 121747.45791666686,
      "d": 760.8649999999907,
      "v": 94
    },
    {
      "midi": 48,
      "hit": false,
      "t": 122182.23791666684,
      "d": 1091.4789583333477,
      "v": 110
    },
    {
      "midi": 55,
      "hit": false,
      "t": 122390.57000000018,
      "d": 629.5252083333326,
      "v": 106
    },
    {
      "midi": 60,
      "hit": false,
      "t": 122603.43104166684,
      "d": 289.85333333333256,
      "v": 108
    },
    {
      "midi": 64,
      "hit": false,
      "t": 122603.43104166684,
      "d": 932.9654166666878,
      "v": 110
    },
    {
      "midi": 67,
      "hit": false,
      "t": 122612.48895833352,
      "d": 892.2047916666779,
      "v": 104
    },
    {
      "midi": 64,
      "hit": false,
      "t": 122626.07583333351,
      "d": 480.0695833333448,
      "v": 98
    },
    {
      "midi": 60,
      "hit": false,
      "t": 122630.60479166685,
      "d": 452.89583333334303,
      "v": 94
    },
    {
      "midi": 67,
      "hit": false,
      "t": 122630.60479166685,
      "d": 452.89583333334303,
      "v": 96
    },
    {
      "midi": 48,
      "hit": false,
      "t": 122635.13375000018,
      "d": 747.2781249999971,
      "v": 92
    },
    {
      "midi": 60,
      "hit": false,
      "t": 123029.15312500019,
      "d": 534.4170833333483,
      "v": 98
    },
    {
      "midi": 55,
      "hit": false,
      "t": 123246.54312500019,
      "d": 335.1429166666785,
      "v": 103
    },
    {
      "midi": 67,
      "hit": false,
      "t": 123264.65895833352,
      "d": 126.81083333333663,
      "v": 94
    },
    {
      "midi": 64,
      "hit": false,
      "t": 123264.65895833352,
      "d": 149.45562500000233,
      "v": 94
    },
    {
      "midi": 60,
      "hit": false,
      "t": 123269.18791666685,
      "d": 131.33979166667268,
      "v": 92
    },
    {
      "midi": 48,
      "hit": false,
      "t": 123472.99104166686,
      "d": 298.91125000000466,
      "v": 111
    },
    {
      "midi": 60,
      "hit": false,
      "t": 123482.04895833351,
      "d": 172.10041666666802,
      "v": 94
    },
    {
      "midi": 67,
      "hit": false,
      "t": 123482.04895833351,
      "d": 172.10041666666802,
      "v": 96
    },
    {
      "midi": 64,
      "hit": false,
      "t": 123482.04895833351,
      "d": 185.68729166666162,
      "v": 99
    },
    {
      "midi": 48,
      "hit": false,
      "t": 123482.04895833351,
      "d": 670.2858333333279,
      "v": 91
    },
    {
      "midi": 55,
      "hit": false,
      "t": 123681.3231250002,
      "d": 294.38229166665406,
      "v": 103
    },
    {
      "midi": 60,
      "hit": false,
      "t": 123685.85208333354,
      "d": 403.0772916666465,
      "v": 106
    },
    {
      "midi": 64,
      "hit": false,
      "t": 123685.85208333354,
      "d": 489.1274999999878,
      "v": 106
    },
    {
      "midi": 67,
      "hit": false,
      "t": 123685.85208333354,
      "d": 502.7143749999814,
      "v": 104
    },
    {
      "midi": 67,
      "hit": false,
      "t": 123885.12625000018,
      "d": 792.5677083333285,
      "v": 94
    },
    {
      "midi": 64,
      "hit": false,
      "t": 123885.12625000018,
      "d": 815.2124999999942,
      "v": 98
    },
    {
      "midi": 60,
      "hit": false,
      "t": 123889.65520833351,
      "d": 797.0966666666645,
      "v": 96
    },
    {
      "midi": 48,
      "hit": false,
      "t": 123907.77104166686,
      "d": 1281.6952083333308,
      "v": 108
    },
    {
      "midi": 55,
      "hit": false,
      "t": 124120.63208333352,
      "d": 647.6410416666768,
      "v": 106
    },
    {
      "midi": 48,
      "hit": false,
      "t": 124319.90625000017,
      "d": 824.2704166666808,
      "v": 96
    },
    {
      "midi": 60,
      "hit": false,
      "t": 124338.02208333352,
      "d": 298.91125000000466,
      "v": 108
    },
    {
      "midi": 67,
      "hit": false,
      "t": 124338.02208333352,
      "d": 865.0310416666616,
      "v": 104
    },
    {
      "midi": 64,
      "hit": false,
      "t": 124338.02208333352,
      "d": 878.6179166666552,
      "v": 108
    },
    {
      "midi": 60,
      "hit": false,
      "t": 124759.21520833351,
      "d": 366.84562500000175,
      "v": 92
    },
    {
      "midi": 67,
      "hit": false,
      "t": 124759.21520833351,
      "d": 371.3745833333378,
      "v": 96
    },
    {
      "midi": 64,
      "hit": false,
      "t": 124759.21520833351,
      "d": 380.4325000000099,
      "v": 98
    },
    {
      "midi": 60,
      "hit": false,
      "t": 124768.2731250002,
      "d": 452.89583333331393,
      "v": 103
    },
    {
      "midi": 55,
      "hit": false,
      "t": 124981.13416666686,
      "d": 240.03479166665056,
      "v": 104
    },
    {
      "midi": 43,
      "hit": false,
      "t": 125216.64000000017,
      "d": 321.55604166667035,
      "v": 103
    },
    {
      "midi": 50,
      "hit": false,
      "t": 125216.64000000017,
      "d": 380.4325000000099,
      "v": 106
    },
    {
      "midi": 67,
      "hit": false,
      "t": 125216.64000000017,
      "d": 733.6912500000035,
      "v": 106
    },
    {
      "midi": 59,
      "hit": false,
      "t": 125216.64000000017,
      "d": 742.7491666666756,
      "v": 104
    },
    {
      "midi": 62,
      "hit": false,
      "t": 125216.64000000017,
      "d": 742.7491666666756,
      "v": 108
    },
    {
      "midi": 67,
      "hit": false,
      "t": 125216.64000000019,
      "d": 720.1043750000099,
      "v": 96
    },
    {
      "midi": 59,
      "hit": false,
      "t": 125216.64000000019,
      "d": 729.162291666682,
      "v": 96
    },
    {
      "midi": 50,
      "hit": false,
      "t": 125216.64000000019,
      "d": 1154.8843750000087,
      "v": 91
    },
    {
      "midi": 62,
      "hit": false,
      "t": 125221.16895833352,
      "d": 729.162291666682,
      "v": 98
    },
    {
      "midi": 43,
      "hit": false,
      "t": 125646.89104166685,
      "d": 711.0464583333378,
      "v": 103
    },
    {
      "midi": 50,
      "hit": false,
      "t": 125864.28104166685,
      "d": 493.6564583333384,
      "v": 110
    },
    {
      "midi": 67,
      "hit": false,
      "t": 126063.55520833354,
      "d": 489.1274999999878,
      "v": 96
    },
    {
      "midi": 59,
      "hit": false,
      "t": 126068.08416666687,
      "d": 502.7143749999814,
      "v": 94
    },
    {
      "midi": 62,
      "hit": false,
      "t": 126068.08416666687,
      "d": 502.7143749999814,
      "v": 99
    },
    {
      "midi": 59,
      "hit": false,
      "t": 126081.67104166685,
      "d": 946.5522916666814,
      "v": 106
    },
    {
      "midi": 67,
      "hit": false,
      "t": 126081.67104166685,
      "d": 946.5522916666814,
      "v": 110
    },
    {
      "midi": 62,
      "hit": false,
      "t": 126081.67104166685,
      "d": 955.6102083333535,
      "v": 108
    },
    {
      "midi": 50,
      "hit": false,
      "t": 126489.27729166686,
      "d": 1159.4133333333448,
      "v": 91
    },
    {
      "midi": 50,
      "hit": false,
      "t": 126507.39312500019,
      "d": 280.795416666675,
      "v": 104
    },
    {
      "midi": 62,
      "hit": false,
      "t": 126715.72520833352,
      "d": 126.81083333333663,
      "v": 96
    },
    {
      "midi": 59,
      "hit": false,
      "t": 126715.72520833352,
      "d": 131.33979166667268,
      "v": 91
    },
    {
      "midi": 67,
      "hit": false,
      "t": 126720.25416666685,
      "d": 108.69500000000698,
      "v": 96
    },
    {
      "midi": 43,
      "hit": false,
      "t": 126729.31208333353,
      "d": 122.28187500000058,
      "v": 104
    },
    {
      "midi": 59,
      "hit": false,
      "t": 126928.5862500002,
      "d": 230.97687500000757,
      "v": 94
    },
    {
      "midi": 62,
      "hit": false,
      "t": 126928.5862500002,
      "d": 230.97687500000757,
      "v": 98
    },
    {
      "midi": 67,
      "hit": false,
      "t": 126933.11520833353,
      "d": 221.91895833333547,
      "v": 98
    },
    {
      "midi": 43,
      "hit": false,
      "t": 126951.23104166686,
      "d": 317.02708333334886,
      "v": 106
    },
    {
      "midi": 59,
      "hit": false,
      "t": 127168.62104166688,
      "d": 461.95375000001513,
      "v": 108
    },
    {
      "midi": 67,
      "hit": false,
      "t": 127168.62104166688,
      "d": 466.4827083333512,
      "v": 108
    },
    {
      "midi": 62,
      "hit": false,
      "t": 127168.62104166688,
      "d": 471.01166666668723,
      "v": 108
    },
    {
      "midi": 67,
      "hit": false,
      "t": 127358.83729166687,
      "d": 724.6333333333314,
      "v": 98
    },
    {
      "midi": 59,
      "hit": false,
      "t": 127358.83729166687,
      "d": 738.220208333325,
      "v": 96
    },
    {
      "midi": 62,
      "hit": false,
      "t": 127358.83729166687,
      "d": 751.8070833333186,
      "v": 98
    },
    {
      "midi": 43,
      "hit": false,
      "t": 127376.95312500022,
      "d": 271.73750000001746,
      "v": 106
    },
    {
      "midi": 50,
      "hit": false,
      "t": 127594.34312500022,
      "d": 452.89583333334303,
      "v": 110
    },
    {
      "midi": 50,
      "hit": false,
      "t": 127793.61729166687,
      "d": 842.3862499999814,
      "v": 98
    },
    {
      "midi": 67,
      "hit": false,
      "t": 127807.2041666669,
      "d": 801.6256250000006,
      "v": 108
    },
    {
      "midi": 59,
      "hit": false,
      "t": 127811.73312500023,
      "d": 788.0387499999924,
      "v": 108
    },
    {
      "midi": 62,
      "hit": false,
      "t": 127811.73312500023,
      "d": 788.0387499999924,
      "v": 108
    },
    {
      "midi": 67,
      "hit": false,
      "t": 128223.86833333352,
      "d": 394.0193750000035,
      "v": 98
    },
    {
      "midi": 59,
      "hit": false,
      "t": 128228.39729166686,
      "d": 366.84562500000175,
      "v": 96
    },
    {
      "midi": 62,
      "hit": false,
      "t": 128228.39729166686,
      "d": 380.43249999999534,
      "v": 99
    },
    {
      "midi": 50,
      "hit": false,
      "t": 128237.45520833356,
      "d": 249.0927083333372,
      "v": 104
    },
    {
      "midi": 43,
      "hit": false,
      "t": 128454.84520833356,
      "d": 267.20854166666686,
      "v": 108
    },
    {
      "midi": 41,
      "hit": false,
      "t": 128694.88000000022,
      "d": 317.0270833333343,
      "v": 98
    },
    {
      "midi": 53,
      "hit": false,
      "t": 128694.88000000022,
      "d": 344.20083333333605,
      "v": 98
    },
    {
      "midi": 65,
      "hit": false,
      "t": 128694.88000000022,
      "d": 720.1043749999953,
      "v": 104
    },
    {
      "midi": 60,
      "hit": false,
      "t": 128694.88000000022,
      "d": 733.6912499999889,
      "v": 104
    },
    {
      "midi": 57,
      "hit": false,
      "t": 128694.88000000022,
      "d": 742.749166666661,
      "v": 103
    },
    {
      "midi": 65,
      "hit": false,
      "t": 128699.40895833352,
      "d": 738.220208333325,
      "v": 94
    },
    {
      "midi": 57,
      "hit": false,
      "t": 128699.40895833352,
      "d": 756.3360416666546,
      "v": 92
    },
    {
      "midi": 60,
      "hit": false,
      "t": 128699.40895833352,
      "d": 769.9229166666482,
      "v": 94
    },
    {
      "midi": 53,
      "hit": false,
      "t": 129125.13104166684,
      "d": 720.1043749999808,
      "v": 96
    },
    {
      "midi": 41,
      "hit": false,
      "t": 129125.13104166689,
      "d": 720.1043749999953,
      "v": 104
    },
    {
      "midi": 53,
      "hit": false,
      "t": 129342.52104166689,
      "d": 493.6564583333238,
      "v": 104
    },
    {
      "midi": 57,
      "hit": false,
      "t": 129555.38208333349,
      "d": 566.119791666657,
      "v": 91
    },
    {
      "midi": 60,
      "hit": false,
      "t": 129555.38208333349,
      "d": 575.1777083333291,
      "v": 94
    },
    {
      "midi": 57,
      "hit": false,
      "t": 129555.38208333355,
      "d": 910.320624999993,
      "v": 108
    },
    {
      "midi": 65,
      "hit": false,
      "t": 129555.38208333355,
      "d": 910.320624999993,
      "v": 106
    },
    {
      "midi": 60,
      "hit": false,
      "t": 129555.38208333355,
      "d": 914.8495833333291,
      "v": 108
    },
    {
      "midi": 65,
      "hit": false,
      "t": 129559.91104166683,
      "d": 543.4749999999913,
      "v": 94
    },
    {
      "midi": 53,
      "hit": false,
      "t": 129981.10416666688,
      "d": 317.0270833333343,
      "v": 93
    },
    {
      "midi": 53,
      "hit": false,
      "t": 129990.16208333349,
      "d": 1132.2395833333576,
      "v": 92
    },
    {
      "midi": 65,
      "hit": false,
      "t": 130207.55208333349,
      "d": 126.81083333333663,
      "v": 84
    },
    {
      "midi": 60,
      "hit": false,
      "t": 130207.55208333349,
      "d": 149.45562500000233,
      "v": 87
    },
    {
      "midi": 57,
      "hit": false,
      "t": 130207.55208333349,
      "d": 153.98458333333838,
      "v": 81
    },
    {
      "midi": 41,
      "hit": false,
      "t": 130207.55208333355,
      "d": 126.81083333333663,
      "v": 106
    },
    {
      "midi": 57,
      "hit": false,
      "t": 130420.41312500017,
      "d": 199.27416666666977,
      "v": 91
    },
    {
      "midi": 60,
      "hit": false,
      "t": 130420.41312500017,
      "d": 208.33208333334187,
      "v": 96
    },
    {
      "midi": 65,
      "hit": false,
      "t": 130424.9420833335,
      "d": 199.27416666666977,
      "v": 96
    },
    {
      "midi": 41,
      "hit": false,
      "t": 130424.94208333355,
      "d": 294.3822916666686,
      "v": 108
    },
    {
      "midi": 65,
      "hit": false,
      "t": 130637.80312500021,
      "d": 511.7722916666535,
      "v": 108
    },
    {
      "midi": 57,
      "hit": false,
      "t": 130637.80312500021,
      "d": 529.8881249999977,
      "v": 108
    },
    {
      "midi": 60,
      "hit": false,
      "t": 130637.80312500021,
      "d": 529.8881249999977,
      "v": 108
    },
    {
      "midi": 65,
      "hit": false,
      "t": 130837.07729166684,
      "d": 824.2704166666808,
      "v": 92
    },
    {
      "midi": 57,
      "hit": false,
      "t": 130841.60625000017,
      "d": 810.6835416666727,
      "v": 92
    },
    {
      "midi": 60,
      "hit": false,
      "t": 130841.60625000017,
      "d": 824.2704166666808,
      "v": 94
    },
    {
      "midi": 41,
      "hit": false,
      "t": 130855.19312500021,
      "d": 652.1699999999983,
      "v": 101
    },
    {
      "midi": 53,
      "hit": false,
      "t": 131072.5831250002,
      "d": 475.5406249999942,
      "v": 104
    },
    {
      "midi": 53,
      "hit": false,
      "t": 131280.91520833352,
      "d": 783.5097916666709,
      "v": 92
    },
    {
      "midi": 60,
      "hit": false,
      "t": 131289.9731250002,
      "d": 865.0310416666616,
      "v": 108
    },
    {
      "midi": 65,
      "hit": false,
      "t": 131289.9731250002,
      "d": 865.0310416666616,
      "v": 108
    },
    {
      "midi": 57,
      "hit": false,
      "t": 131289.9731250002,
      "d": 869.5599999999977,
      "v": 108
    },
    {
      "midi": 53,
      "hit": false,
      "t": 131711.1662500002,
      "d": 475.5406249999942,
      "v": 101
    },
    {
      "midi": 57,
      "hit": false,
      "t": 131715.69520833352,
      "d": 335.14291666666395,
      "v": 91
    },
    {
      "midi": 65,
      "hit": false,
      "t": 131715.69520833352,
      "d": 344.20083333333605,
      "v": 96
    },
    {
      "midi": 60,
      "hit": false,
      "t": 131715.69520833352,
      "d": 348.7297916666721,
      "v": 98
    },
    {
      "midi": 41,
      "hit": false,
      "t": 131933.08520833353,
      "d": 276.2664583333535,
      "v": 106
    },
    {
      "midi": 55,
      "hit": false,
      "t": 132173.1200000002,
      "d": 489.12750000003143,
      "v": 106
    },
    {
      "midi": 67,
      "hit": false,
      "t": 132173.1200000002,
      "d": 570.6487500000221,
      "v": 104
    },
    {
      "midi": 60,
      "hit": false,
      "t": 132173.1200000002,
      "d": 597.8225000000093,
      "v": 108
    },
    {
      "midi": 64,
      "hit": false,
      "t": 132173.1200000002,
      "d": 602.3514583333454,
      "v": 108
    },
    {
      "midi": 60,
      "hit": false,
      "t": 132177.64895833354,
      "d": 720.1043749999953,
      "v": 96
    },
    {
      "midi": 67,
      "hit": false,
      "t": 132177.64895833354,
      "d": 729.1622916666674,
      "v": 98
    },
    {
      "midi": 64,
      "hit": false,
      "t": 132177.64895833354,
      "d": 738.2202083333395,
      "v": 99
    },
    {
      "midi": 48,
      "hit": false,
      "t": 132616.9579166669,
      "d": 1091.4789583333186,
      "v": 110
    },
    {
      "midi": 55,
      "hit": false,
      "t": 132825.2900000002,
      "d": 629.5252083333326,
      "v": 106
    },
    {
      "midi": 60,
      "hit": false,
      "t": 133038.15104166686,
      "d": 511.7722916666535,
      "v": 94
    },
    {
      "midi": 67,
      "hit": false,
      "t": 133038.15104166686,
      "d": 529.8881249999977,
      "v": 98
    },
    {
      "midi": 64,
      "hit": false,
      "t": 133038.15104166686,
      "d": 534.4170833333337,
      "v": 98
    },
    {
      "midi": 60,
      "hit": false,
      "t": 133038.1510416669,
      "d": 289.85333333333256,
      "v": 108
    },
    {
      "midi": 64,
      "hit": false,
      "t": 133038.1510416669,
      "d": 932.9654166666442,
      "v": 110
    },
    {
      "midi": 67,
      "hit": false,
      "t": 133047.20895833356,
      "d": 892.2047916666488,
      "v": 104
    },
    {
      "midi": 60,
      "hit": false,
      "t": 133463.87312500022,
      "d": 534.4170833333046,
      "v": 98
    },
    {
      "midi": 55,
      "hit": false,
      "t": 133681.26312500023,
      "d": 335.14291666663485,
      "v": 103
    },
    {
      "midi": 67,
      "hit": false,
      "t": 133690.32104166687,
      "d": 384.9614583333314,
      "v": 98
    },
    {
      "midi": 71,
      "hit": false,
      "t": 133690.32104166687,
      "d": 389.49041666666744,
      "v": 101
    },
    {
      "midi": 74,
      "hit": false,
      "t": 133690.32104166687,
      "d": 412.1352083333477,
      "v": 99
    },
    {
      "midi": 43,
      "hit": false,
      "t": 133903.18208333355,
      "d": 312.4981249999837,
      "v": 104
    },
    {
      "midi": 60,
      "hit": false,
      "t": 134111.51416666686,
      "d": 335.14291666666395,
      "v": 110
    },
    {
      "midi": 55,
      "hit": false,
      "t": 134116.0431250002,
      "d": 294.3822916666686,
      "v": 108
    },
    {
      "midi": 62,
      "hit": false,
      "t": 134116.0431250002,
      "d": 321.5560416666558,
      "v": 108
    },
    {
      "midi": 43,
      "hit": false,
      "t": 134328.90416666688,
      "d": 294.3822916666686,
      "v": 103
    },
    {
      "midi": 48,
      "hit": false,
      "t": 134559.88104166687,
      "d": 403.0772916666756,
      "v": 110
    },
    {
      "midi": 55,
      "hit": false,
      "t": 134772.74208333355,
      "d": 724.6333333333314,
      "v": 108
    },
    {
      "midi": 60,
      "hit": false,
      "t": 134772.74208333355,
      "d": 729.1622916666674,
      "v": 111
    },
    {
      "midi": 74,
      "hit": false,
      "t": 134772.74208333358,
      "d": 656.6989583333198,
      "v": 99
    },
    {
      "midi": 79,
      "hit": false,
      "t": 134772.74208333358,
      "d": 656.6989583333198,
      "v": 96
    },
    {
      "midi": 71,
      "hit": false,
      "t": 134772.74208333358,
      "d": 665.7568749999919,
      "v": 98
    },
    {
      "midi": 62,
      "hit": false,
      "t": 134777.27104166689,
      "d": 733.6912500000035,
      "v": 108
    },
    {
      "midi": 48,
      "hit": false,
      "t": 135198.46416666688,
      "d": 317.02708333334886,
      "v": 103
    },
    {
      "midi": 43,
      "hit": false,
      "t": 135411.32520833355,
      "d": 271.73749999998836,
      "v": 110
    },
    {
      "midi": 55,
      "hit": false,
      "t": 135651.36000000022,
      "d": 489.1275000000023,
      "v": 106
    },
    {
      "midi": 67,
      "hit": false,
      "t": 135651.36000000022,
      "d": 570.648749999993,
      "v": 104
    },
    {
      "midi": 60,
      "hit": false,
      "t": 135651.36000000022,
      "d": 597.8224999999802,
      "v": 108
    },
    {
      "midi": 64,
      "hit": false,
      "t": 135651.36000000022,
      "d": 602.3514583333163,
      "v": 108
    },
    {
      "midi": 67,
      "hit": false,
      "t": 135655.88895833358,
      "d": 742.7491666666756,
      "v": 94
    },
    {
      "midi": 60,
      "hit": false,
      "t": 135655.88895833358,
      "d": 756.3360416666837,
      "v": 94
    },
    {
      "midi": 64,
      "hit": false,
      "t": 135655.88895833358,
      "d": 783.5097916667,
      "v": 98
    },
    {
      "midi": 48,
      "hit": false,
      "t": 135660.41791666692,
      "d": 760.8650000000198,
      "v": 94
    },
    {
      "midi": 48,
      "hit": false,
      "t": 136095.1979166669,
      "d": 1091.4789583333186,
      "v": 110
    },
    {
      "midi": 55,
      "hit": false,
      "t": 136303.5300000002,
      "d": 629.5252083333326,
      "v": 106
    },
    {
      "midi": 60,
      "hit": false,
      "t": 136516.39104166688,
      "d": 289.85333333333256,
      "v": 108
    },
    {
      "midi": 64,
      "hit": false,
      "t": 136516.39104166688,
      "d": 932.9654166666442,
      "v": 110
    },
    {
      "midi": 67,
      "hit": false,
      "t": 136525.44895833355,
      "d": 892.2047916666488,
      "v": 104
    },
    {
      "midi": 64,
      "hit": false,
      "t": 136539.03583333362,
      "d": 480.06958333335933,
      "v": 98
    },
    {
      "midi": 60,
      "hit": false,
      "t": 136543.56479166695,
      "d": 452.89583333334303,
      "v": 94
    },
    {
      "midi": 67,
      "hit": false,
      "t": 136543.56479166695,
      "d": 452.89583333334303,
      "v": 96
    },
    {
      "midi": 48,
      "hit": false,
      "t": 136548.0937500003,
      "d": 747.2781250000407,
      "v": 92
    },
    {
      "midi": 60,
      "hit": false,
      "t": 136942.1131250002,
      "d": 534.4170833333046,
      "v": 98
    },
    {
      "midi": 55,
      "hit": false,
      "t": 137159.50312500022,
      "d": 335.14291666663485,
      "v": 103
    },
    {
      "midi": 67,
      "hit": false,
      "t": 137177.61895833365,
      "d": 126.81083333335118,
      "v": 94
    },
    {
      "midi": 64,
      "hit": false,
      "t": 137177.61895833365,
      "d": 149.45562500003143,
      "v": 94
    },
    {
      "midi": 60,
      "hit": false,
      "t": 137182.147916667,
      "d": 131.33979166668723,
      "v": 92
    },
    {
      "midi": 48,
      "hit": false,
      "t": 137385.95104166688,
      "d": 298.91124999997555,
      "v": 111
    },
    {
      "midi": 60,
      "hit": false,
      "t": 137395.0089583337,
      "d": 172.10041666665347,
      "v": 94
    },
    {
      "midi": 67,
      "hit": false,
      "t": 137395.0089583337,
      "d": 172.10041666665347,
      "v": 96
    },
    {
      "midi": 64,
      "hit": false,
      "t": 137395.0089583337,
      "d": 185.68729166666162,
      "v": 99
    },
    {
      "midi": 48,
      "hit": false,
      "t": 137395.0089583337,
      "d": 670.285833333357,
      "v": 91
    },
    {
      "midi": 55,
      "hit": false,
      "t": 137594.2831250002,
      "d": 294.3822916666686,
      "v": 103
    },
    {
      "midi": 60,
      "hit": false,
      "t": 137598.81208333353,
      "d": 403.0772916666756,
      "v": 106
    },
    {
      "midi": 64,
      "hit": false,
      "t": 137598.81208333353,
      "d": 489.1275000000023,
      "v": 106
    },
    {
      "midi": 67,
      "hit": false,
      "t": 137598.81208333353,
      "d": 502.7143750000105,
      "v": 104
    },
    {
      "midi": 67,
      "hit": false,
      "t": 137798.08625000037,
      "d": 792.5677083333721,
      "v": 94
    },
    {
      "midi": 64,
      "hit": false,
      "t": 137798.08625000037,
      "d": 815.2125000000524,
      "v": 98
    },
    {
      "midi": 60,
      "hit": false,
      "t": 137802.6152083337,
      "d": 797.0966666667082,
      "v": 96
    },
    {
      "midi": 48,
      "hit": false,
      "t": 137820.73104166685,
      "d": 1281.6952083333745,
      "v": 108
    },
    {
      "midi": 55,
      "hit": false,
      "t": 138033.59208333353,
      "d": 647.6410416666768,
      "v": 106
    },
    {
      "midi": 48,
      "hit": false,
      "t": 138232.8662500004,
      "d": 824.2704166666954,
      "v": 96
    },
    {
      "midi": 60,
      "hit": false,
      "t": 138250.98208333354,
      "d": 298.91125000000466,
      "v": 108
    },
    {
      "midi": 67,
      "hit": false,
      "t": 138250.98208333354,
      "d": 865.0310416666907,
      "v": 104
    },
    {
      "midi": 64,
      "hit": false,
      "t": 138250.98208333354,
      "d": 878.6179166666989,
      "v": 108
    },
    {
      "midi": 60,
      "hit": false,
      "t": 138672.17520833376,
      "d": 366.8456249999872,
      "v": 92
    },
    {
      "midi": 67,
      "hit": false,
      "t": 138672.17520833376,
      "d": 371.37458333332324,
      "v": 96
    },
    {
      "midi": 64,
      "hit": false,
      "t": 138672.17520833376,
      "d": 380.43249999999534,
      "v": 98
    },
    {
      "midi": 60,
      "hit": false,
      "t": 138681.2331250002,
      "d": 452.89583333337214,
      "v": 103
    },
    {
      "midi": 55,
      "hit": false,
      "t": 138894.09416666688,
      "d": 240.03479166669422,
      "v": 104
    },
    {
      "midi": 43,
      "hit": false,
      "t": 139129.60000000024,
      "d": 321.5560416666558,
      "v": 103
    },
    {
      "midi": 50,
      "hit": false,
      "t": 139129.60000000024,
      "d": 380.43249999999534,
      "v": 106
    },
    {
      "midi": 67,
      "hit": false,
      "t": 139129.60000000024,
      "d": 733.6912500000035,
      "v": 106
    },
    {
      "midi": 59,
      "hit": false,
      "t": 139129.60000000024,
      "d": 742.7491666666756,
      "v": 104
    },
    {
      "midi": 62,
      "hit": false,
      "t": 139129.60000000024,
      "d": 742.7491666666756,
      "v": 108
    },
    {
      "midi": 67,
      "hit": false,
      "t": 139129.60000000044,
      "d": 720.1043749999953,
      "v": 96
    },
    {
      "midi": 59,
      "hit": false,
      "t": 139129.60000000044,
      "d": 729.1622916666674,
      "v": 96
    },
    {
      "midi": 50,
      "hit": false,
      "t": 139129.60000000044,
      "d": 1154.8843750000233,
      "v": 91
    },
    {
      "midi": 62,
      "hit": false,
      "t": 139134.12895833378,
      "d": 729.1622916666674,
      "v": 98
    },
    {
      "midi": 43,
      "hit": false,
      "t": 139559.8510416669,
      "d": 711.0464583333232,
      "v": 103
    },
    {
      "midi": 50,
      "hit": false,
      "t": 139777.24104166692,
      "d": 493.6564583333093,
      "v": 110
    },
    {
      "midi": 67,
      "hit": false,
      "t": 139976.5152083338,
      "d": 489.12750000003143,
      "v": 96
    },
    {
      "midi": 59,
      "hit": false,
      "t": 139981.04416666712,
      "d": 502.7143750000396,
      "v": 94
    },
    {
      "midi": 62,
      "hit": false,
      "t": 139981.04416666712,
      "d": 502.7143750000396,
      "v": 99
    },
    {
      "midi": 59,
      "hit": false,
      "t": 139994.6310416669,
      "d": 946.5522916666523,
      "v": 106
    },
    {
      "midi": 67,
      "hit": false,
      "t": 139994.6310416669,
      "d": 946.5522916666523,
      "v": 110
    },
    {
      "midi": 62,
      "hit": false,
      "t": 139994.6310416669,
      "d": 955.6102083333244,
      "v": 108
    },
    {
      "midi": 50,
      "hit": false,
      "t": 140402.23729166714,
      "d": 1159.4133333333593,
      "v": 91
    },
    {
      "midi": 50,
      "hit": false,
      "t": 140420.35312500023,
      "d": 280.79541666666046,
      "v": 104
    },
    {
      "midi": 62,
      "hit": false,
      "t": 140628.68520833383,
      "d": 126.81083333335118,
      "v": 96
    },
    {
      "midi": 59,
      "hit": false,
      "t": 140628.68520833383,
      "d": 131.33979166668723,
      "v": 91
    },
    {
      "midi": 67,
      "hit": false,
      "t": 140633.21416666717,
      "d": 108.69500000000698,
      "v": 96
    },
    {
      "midi": 43,
      "hit": false,
      "t": 140642.27208333355,
      "d": 122.28187500001513,
      "v": 104
    },
    {
      "midi": 59,
      "hit": false,
      "t": 140841.5462500005,
      "d": 230.97687499999302,
      "v": 94
    },
    {
      "midi": 62,
      "hit": false,
      "t": 140841.5462500005,
      "d": 230.97687499999302,
      "v": 98
    },
    {
      "midi": 67,
      "hit": false,
      "t": 140846.07520833384,
      "d": 221.91895833332092,
      "v": 98
    },
    {
      "midi": 43,
      "hit": false,
      "t": 140864.1910416669,
      "d": 317.02708333331975,
      "v": 106
    },
    {
      "midi": 59,
      "hit": false,
      "t": 141081.58104166688,
      "d": 461.95375000001513,
      "v": 108
    },
    {
      "midi": 67,
      "hit": false,
      "t": 141081.58104166688,
      "d": 466.4827083333512,
      "v": 108
    },
    {
      "midi": 62,
      "hit": false,
      "t": 141081.58104166688,
      "d": 471.01166666668723,
      "v": 108
    },
    {
      "midi": 67,
      "hit": false,
      "t": 141271.79729166717,
      "d": 724.6333333333314,
      "v": 98
    },
    {
      "midi": 59,
      "hit": false,
      "t": 141271.79729166717,
      "d": 738.2202083333395,
      "v": 96
    },
    {
      "midi": 62,
      "hit": false,
      "t": 141271.79729166717,
      "d": 751.8070833333477,
      "v": 98
    },
    {
      "midi": 43,
      "hit": false,
      "t": 141289.91312500022,
      "d": 271.73750000001746,
      "v": 106
    },
    {
      "midi": 50,
      "hit": false,
      "t": 141507.30312500024,
      "d": 452.89583333334303,
      "v": 110
    },
    {
      "midi": 50,
      "hit": false,
      "t": 141706.57729166717,
      "d": 842.3862500000396,
      "v": 98
    },
    {
      "midi": 67,
      "hit": false,
      "t": 141720.16416666692,
      "d": 801.6256250000151,
      "v": 108
    },
    {
      "midi": 59,
      "hit": false,
      "t": 141724.69312500025,
      "d": 788.038750000007,
      "v": 108
    },
    {
      "midi": 62,
      "hit": false,
      "t": 141724.69312500025,
      "d": 788.038750000007,
      "v": 108
    },
    {
      "midi": 67,
      "hit": false,
      "t": 142136.82833333386,
      "d": 394.0193750000035,
      "v": 98
    },
    {
      "midi": 59,
      "hit": false,
      "t": 142141.3572916672,
      "d": 366.8456249999872,
      "v": 96
    },
    {
      "midi": 62,
      "hit": false,
      "t": 142141.3572916672,
      "d": 380.43249999999534,
      "v": 99
    },
    {
      "midi": 50,
      "hit": false,
      "t": 142150.41520833358,
      "d": 249.0927083333372,
      "v": 104
    },
    {
      "midi": 43,
      "hit": false,
      "t": 142367.8052083336,
      "d": 267.2085416666523,
      "v": 108
    },
    {
      "midi": 41,
      "hit": false,
      "t": 142607.84000000026,
      "d": 317.02708333331975,
      "v": 98
    },
    {
      "midi": 53,
      "hit": false,
      "t": 142607.84000000026,
      "d": 344.20083333330695,
      "v": 98
    },
    {
      "midi": 65,
      "hit": false,
      "t": 142607.84000000026,
      "d": 720.1043749999953,
      "v": 104
    },
    {
      "midi": 60,
      "hit": false,
      "t": 142607.84000000026,
      "d": 733.6912500000035,
      "v": 104
    },
    {
      "midi": 57,
      "hit": false,
      "t": 142607.84000000026,
      "d": 742.7491666666756,
      "v": 103
    },
    {
      "midi": 65,
      "hit": false,
      "t": 142612.3689583339,
      "d": 738.2202083333395,
      "v": 94
    },
    {
      "midi": 57,
      "hit": false,
      "t": 142612.3689583339,
      "d": 756.3360416666837,
      "v": 92
    },
    {
      "midi": 60,
      "hit": false,
      "t": 142612.3689583339,
      "d": 769.9229166666919,
      "v": 94
    },
    {
      "midi": 41,
      "hit": false,
      "t": 143038.0910416669,
      "d": 720.1043750000536,
      "v": 104
    },
    {
      "midi": 53,
      "hit": false,
      "t": 143038.0910416672,
      "d": 720.1043750000244,
      "v": 96
    },
    {
      "midi": 53,
      "hit": false,
      "t": 143255.4810416669,
      "d": 493.6564583333675,
      "v": 104
    },
    {
      "midi": 57,
      "hit": false,
      "t": 143468.3420833336,
      "d": 910.3206249999639,
      "v": 108
    },
    {
      "midi": 65,
      "hit": false,
      "t": 143468.3420833336,
      "d": 910.3206249999639,
      "v": 106
    },
    {
      "midi": 60,
      "hit": false,
      "t": 143468.3420833336,
      "d": 914.8495833333,
      "v": 108
    },
    {
      "midi": 57,
      "hit": false,
      "t": 143468.3420833339,
      "d": 566.1197916666861,
      "v": 91
    },
    {
      "midi": 60,
      "hit": false,
      "t": 143468.3420833339,
      "d": 575.1777083333582,
      "v": 94
    },
    {
      "midi": 65,
      "hit": false,
      "t": 143472.87104166724,
      "d": 543.4750000000058,
      "v": 94
    },
    {
      "midi": 53,
      "hit": false,
      "t": 143894.06416666694,
      "d": 317.02708333331975,
      "v": 93
    },
    {
      "midi": 53,
      "hit": false,
      "t": 143903.1220833339,
      "d": 1132.2395833333721,
      "v": 92
    },
    {
      "midi": 41,
      "hit": false,
      "t": 144120.5120833336,
      "d": 126.81083333332208,
      "v": 106
    },
    {
      "midi": 65,
      "hit": false,
      "t": 144120.51208333392,
      "d": 126.81083333332208,
      "v": 84
    },
    {
      "midi": 60,
      "hit": false,
      "t": 144120.51208333392,
      "d": 149.45562500000233,
      "v": 87
    },
    {
      "midi": 57,
      "hit": false,
      "t": 144120.51208333392,
      "d": 153.98458333333838,
      "v": 81
    },
    {
      "midi": 57,
      "hit": false,
      "t": 144333.3731250006,
      "d": 199.27416666666977,
      "v": 91
    },
    {
      "midi": 60,
      "hit": false,
      "t": 144333.3731250006,
      "d": 208.33208333334187,
      "v": 96
    },
    {
      "midi": 41,
      "hit": false,
      "t": 144337.90208333358,
      "d": 294.3822916666686,
      "v": 108
    },
    {
      "midi": 65,
      "hit": false,
      "t": 144337.90208333393,
      "d": 199.27416666666977,
      "v": 96
    },
    {
      "midi": 65,
      "hit": false,
      "t": 144550.76312500026,
      "d": 511.7722916666535,
      "v": 108
    },
    {
      "midi": 57,
      "hit": false,
      "t": 144550.76312500026,
      "d": 529.8881249999977,
      "v": 108
    },
    {
      "midi": 60,
      "hit": false,
      "t": 144550.76312500026,
      "d": 529.8881249999977,
      "v": 108
    },
    {
      "midi": 65,
      "hit": false,
      "t": 144750.03729166728,
      "d": 824.2704166666663,
      "v": 92
    },
    {
      "midi": 57,
      "hit": false,
      "t": 144754.56625000061,
      "d": 810.6835416666581,
      "v": 92
    },
    {
      "midi": 60,
      "hit": false,
      "t": 144754.56625000061,
      "d": 824.2704166666663,
      "v": 94
    },
    {
      "midi": 41,
      "hit": false,
      "t": 144768.15312500024,
      "d": 652.1700000000128,
      "v": 101
    },
    {
      "midi": 53,
      "hit": false,
      "t": 144985.54312500026,
      "d": 475.5406249999942,
      "v": 104
    },
    {
      "midi": 53,
      "hit": false,
      "t": 145193.87520833395,
      "d": 783.5097916666709,
      "v": 92
    },
    {
      "midi": 60,
      "hit": false,
      "t": 145202.93312500024,
      "d": 865.0310416666616,
      "v": 108
    },
    {
      "midi": 65,
      "hit": false,
      "t": 145202.93312500024,
      "d": 865.0310416666616,
      "v": 108
    },
    {
      "midi": 57,
      "hit": false,
      "t": 145202.93312500024,
      "d": 869.5599999999977,
      "v": 108
    },
    {
      "midi": 53,
      "hit": false,
      "t": 145624.12625000026,
      "d": 475.5406249999942,
      "v": 101
    },
    {
      "midi": 57,
      "hit": false,
      "t": 145628.65520833395,
      "d": 335.14291666666395,
      "v": 91
    },
    {
      "midi": 65,
      "hit": false,
      "t": 145628.65520833395,
      "d": 344.20083333333605,
      "v": 96
    },
    {
      "midi": 60,
      "hit": false,
      "t": 145628.65520833395,
      "d": 348.7297916666721,
      "v": 98
    },
    {
      "midi": 41,
      "hit": false,
      "t": 145846.04520833358,
      "d": 276.2664583333535,
      "v": 106
    },
    {
      "midi": 55,
      "hit": false,
      "t": 146086.08000000025,
      "d": 489.12750000003143,
      "v": 106
    },
    {
      "midi": 67,
      "hit": false,
      "t": 146086.08000000025,
      "d": 570.6487500000221,
      "v": 104
    },
    {
      "midi": 60,
      "hit": false,
      "t": 146086.08000000025,
      "d": 597.8225000000093,
      "v": 108
    },
    {
      "midi": 64,
      "hit": false,
      "t": 146086.08000000025,
      "d": 602.3514583333454,
      "v": 108
    },
    {
      "midi": 60,
      "hit": false,
      "t": 146090.60895833396,
      "d": 720.1043749999953,
      "v": 116
    },
    {
      "midi": 67,
      "hit": false,
      "t": 146090.60895833396,
      "d": 729.1622916666674,
      "v": 118
    },
    {
      "midi": 64,
      "hit": false,
      "t": 146090.60895833396,
      "d": 738.2202083333395,
      "v": 119
    },
    {
      "midi": 48,
      "hit": false,
      "t": 146529.91791666695,
      "d": 1091.4789583333186,
      "v": 110
    },
    {
      "midi": 55,
      "hit": false,
      "t": 146738.25000000026,
      "d": 629.5252083333326,
      "v": 106
    },
    {
      "midi": 60,
      "hit": false,
      "t": 146951.11104166694,
      "d": 289.85333333333256,
      "v": 108
    },
    {
      "midi": 64,
      "hit": false,
      "t": 146951.11104166694,
      "d": 932.9654166666442,
      "v": 110
    },
    {
      "midi": 60,
      "hit": false,
      "t": 146951.1110416673,
      "d": 511.7722916666535,
      "v": 114
    },
    {
      "midi": 67,
      "hit": false,
      "t": 146951.1110416673,
      "d": 529.8881249999977,
      "v": 118
    },
    {
      "midi": 64,
      "hit": false,
      "t": 146951.1110416673,
      "d": 534.4170833333337,
      "v": 118
    },
    {
      "midi": 67,
      "hit": false,
      "t": 146960.1689583336,
      "d": 892.2047916666488,
      "v": 104
    },
    {
      "midi": 60,
      "hit": false,
      "t": 147376.83312500027,
      "d": 534.4170833333046,
      "v": 98
    },
    {
      "midi": 55,
      "hit": false,
      "t": 147594.22312500028,
      "d": 335.14291666663485,
      "v": 103
    },
    {
      "midi": 67,
      "hit": false,
      "t": 147603.2810416673,
      "d": 384.9614583333314,
      "v": 118
    },
    {
      "midi": 71,
      "hit": false,
      "t": 147603.2810416673,
      "d": 389.49041666666744,
      "v": 121
    },
    {
      "midi": 74,
      "hit": false,
      "t": 147603.2810416673,
      "d": 412.1352083333477,
      "v": 119
    },
    {
      "midi": 43,
      "hit": false,
      "t": 147816.1420833336,
      "d": 312.4981249999837,
      "v": 104
    },
    {
      "midi": 60,
      "hit": false,
      "t": 148024.4741666669,
      "d": 335.14291666666395,
      "v": 110
    },
    {
      "midi": 55,
      "hit": false,
      "t": 148029.00312500025,
      "d": 294.3822916666686,
      "v": 108
    },
    {
      "midi": 62,
      "hit": false,
      "t": 148029.00312500025,
      "d": 321.5560416666558,
      "v": 108
    },
    {
      "midi": 43,
      "hit": false,
      "t": 148241.86416666693,
      "d": 294.3822916666686,
      "v": 103
    },
    {
      "midi": 48,
      "hit": false,
      "t": 148472.84104166692,
      "d": 403.0772916666756,
      "v": 110
    },
    {
      "midi": 55,
      "hit": false,
      "t": 148685.7020833336,
      "d": 724.6333333333314,
      "v": 108
    },
    {
      "midi": 60,
      "hit": false,
      "t": 148685.7020833336,
      "d": 729.1622916666674,
      "v": 111
    },
    {
      "midi": 74,
      "hit": false,
      "t": 148685.702083334,
      "d": 656.6989583333198,
      "v": 119
    },
    {
      "midi": 79,
      "hit": false,
      "t": 148685.702083334,
      "d": 656.6989583333198,
      "v": 116
    },
    {
      "midi": 71,
      "hit": false,
      "t": 148685.702083334,
      "d": 665.7568749999919,
      "v": 118
    },
    {
      "midi": 62,
      "hit": false,
      "t": 148690.23104166694,
      "d": 733.6912500000035,
      "v": 108
    },
    {
      "midi": 48,
      "hit": false,
      "t": 149111.42416666693,
      "d": 317.02708333334886,
      "v": 103
    },
    {
      "midi": 43,
      "hit": false,
      "t": 149324.2852083336,
      "d": 271.73749999998836,
      "v": 110
    },
    {
      "midi": 64,
      "hit": false,
      "t": 149564.32000000068,
      "d": 624.9962499999965,
      "v": 116
    },
    {
      "midi": 48,
      "hit": false,
      "t": 149568.8489583336,
      "d": 1494.5562499999942,
      "v": 99
    },
    {
      "midi": 55,
      "hit": false,
      "t": 150003.6289583336,
      "d": 729.1622916666674,
      "v": 83
    },
    {
      "midi": 60,
      "hit": false,
      "t": 150211.96104166735,
      "d": 271.73750000001746,
      "v": 106
    },
    {
      "midi": 64,
      "hit": false,
      "t": 150429.35104166693,
      "d": 1372.2743750000081,
      "v": 94
    },
    {
      "midi": 60,
      "hit": false,
      "t": 150429.35104166693,
      "d": 1376.8033333333442,
      "v": 101
    },
    {
      "midi": 64,
      "hit": false,
      "t": 150429.35104166737,
      "d": 412.1352083333477,
      "v": 119
    },
    {
      "midi": 55,
      "hit": false,
      "t": 150859.6020833336,
      "d": 674.814791666664,
      "v": 74
    },
    {
      "midi": 65,
      "hit": false,
      "t": 150864.1310416674,
      "d": 249.0927083333372,
      "v": 106
    },
    {
      "midi": 67,
      "hit": false,
      "t": 151081.5210416674,
      "d": 815.2124999999942,
      "v": 106
    },
    {
      "midi": 48,
      "hit": false,
      "t": 151294.3820833336,
      "d": 1209.2318750000268,
      "v": 103
    },
    {
      "midi": 55,
      "hit": false,
      "t": 151733.69104166693,
      "d": 525.3591666666907,
      "v": 86
    },
    {
      "midi": 55,
      "hit": false,
      "t": 151733.6910416674,
      "d": 1313.3979166666977,
      "v": 112
    },
    {
      "midi": 60,
      "hit": false,
      "t": 151951.0810416674,
      "d": 466.4827083333512,
      "v": 104
    },
    {
      "midi": 64,
      "hit": false,
      "t": 152163.94208333362,
      "d": 892.2047916666779,
      "v": 94
    },
    {
      "midi": 60,
      "hit": false,
      "t": 152168.47104166695,
      "d": 883.1468750000058,
      "v": 98
    },
    {
      "midi": 67,
      "hit": false,
      "t": 152168.47104166742,
      "d": 280.79541666666046,
      "v": 112
    },
    {
      "midi": 55,
      "hit": false,
      "t": 152385.86104166694,
      "d": 643.1120833333407,
      "v": 94
    },
    {
      "midi": 65,
      "hit": false,
      "t": 152385.86104166743,
      "d": 267.2085416666523,
      "v": 99
    },
    {
      "midi": 48,
      "hit": false,
      "t": 152603.25104166695,
      "d": 452.89583333334303,
      "v": 93
    },
    {
      "midi": 64,
      "hit": false,
      "t": 152603.25104166742,
      "d": 253.62166666667326,
      "v": 114
    },
    {
      "midi": 62,
      "hit": false,
      "t": 152820.64104166743,
      "d": 978.2550000000047,
      "v": 118
    },
    {
      "midi": 38,
      "hit": false,
      "t": 153042.5600000003,
      "d": 1381.3322916666511,
      "v": 101
    },
    {
      "midi": 53,
      "hit": false,
      "t": 153047.0889583341,
      "d": 765.3939583333558,
      "v": 98
    },
    {
      "midi": 57,
      "hit": false,
      "t": 153047.0889583341,
      "d": 765.3939583333558,
      "v": 102
    },
    {
      "midi": 50,
      "hit": false,
      "t": 153481.86895833362,
      "d": 724.6333333333314,
      "v": 93
    },
    {
      "midi": 62,
      "hit": false,
      "t": 153907.59104166745,
      "d": 778.9808333333349,
      "v": 104
    },
    {
      "midi": 57,
      "hit": false,
      "t": 153907.59104166745,
      "d": 801.6256250000151,
      "v": 102
    },
    {
      "midi": 53,
      "hit": false,
      "t": 153907.59104166745,
      "d": 815.2125000000233,
      "v": 88
    },
    {
      "midi": 62,
      "hit": false,
      "t": 153916.64895833362,
      "d": 1449.2666666666628,
      "v": 103
    },
    {
      "midi": 53,
      "hit": false,
      "t": 153916.64895833362,
      "d": 1453.7956249999988,
      "v": 98
    },
    {
      "midi": 57,
      "hit": false,
      "t": 153916.64895833362,
      "d": 1462.853541666671,
      "v": 103
    },
    {
      "midi": 50,
      "hit": false,
      "t": 154342.37104166695,
      "d": 471.01166666665813,
      "v": 94
    },
    {
      "midi": 38,
      "hit": false,
      "t": 154768.09312500028,
      "d": 1648.5408333333326,
      "v": 104
    },
    {
      "midi": 53,
      "hit": false,
      "t": 154777.15104166747,
      "d": 575.1777083333291,
      "v": 102
    },
    {
      "midi": 57,
      "hit": false,
      "t": 154777.15104166747,
      "d": 738.2202083333104,
      "v": 106
    },
    {
      "midi": 62,
      "hit": false,
      "t": 154777.15104166747,
      "d": 1182.0581249999523,
      "v": 107
    },
    {
      "midi": 50,
      "hit": false,
      "t": 155216.46000000028,
      "d": 715.5754166666593,
      "v": 99
    },
    {
      "midi": 53,
      "hit": false,
      "t": 155438.37895833413,
      "d": 298.91124999997555,
      "v": 93
    },
    {
      "midi": 62,
      "hit": false,
      "t": 155646.71104166695,
      "d": 874.0889583333337,
      "v": 101
    },
    {
      "midi": 57,
      "hit": false,
      "t": 155651.24000000028,
      "d": 869.5599999999977,
      "v": 103
    },
    {
      "midi": 57,
      "hit": false,
      "t": 155651.24000000078,
      "d": 475.5406249999651,
      "v": 96
    },
    {
      "midi": 53,
      "hit": false,
      "t": 155655.76895833362,
      "d": 865.0310416666616,
      "v": 96
    },
    {
      "midi": 53,
      "hit": false,
      "t": 155864.10104166743,
      "d": 656.6989583333198,
      "v": 93
    },
    {
      "midi": 62,
      "hit": false,
      "t": 156081.4910416674,
      "d": 439.3089583333349,
      "v": 104
    },
    {
      "midi": 50,
      "hit": false,
      "t": 156095.07791666695,
      "d": 412.1352083333186,
      "v": 103
    },
    {
      "midi": 57,
      "hit": false,
      "t": 156303.41000000073,
      "d": 217.39000000001397,
      "v": 85
    },
    {
      "midi": 38,
      "hit": false,
      "t": 156520.80000000028,
      "d": 1648.5408333333326,
      "v": 101
    },
    {
      "midi": 57,
      "hit": false,
      "t": 156520.80000000075,
      "d": 321.5560416666558,
      "v": 112
    },
    {
      "midi": 53,
      "hit": false,
      "t": 156520.80000000075,
      "d": 448.366875000007,
      "v": 109
    },
    {
      "midi": 62,
      "hit": false,
      "t": 156520.80000000075,
      "d": 557.061875000014,
      "v": 112
    },
    {
      "midi": 57,
      "hit": false,
      "t": 156951.0510416674,
      "d": 285.3243750000256,
      "v": 99
    },
    {
      "midi": 50,
      "hit": false,
      "t": 156960.1089583336,
      "d": 724.6333333333314,
      "v": 93
    },
    {
      "midi": 53,
      "hit": false,
      "t": 157168.44104166742,
      "d": 212.86104166667792,
      "v": 96
    },
    {
      "midi": 62,
      "hit": false,
      "t": 157385.83104166744,
      "d": 466.4827083333221,
      "v": 111
    },
    {
      "midi": 57,
      "hit": false,
      "t": 157385.83104166744,
      "d": 498.1854166666453,
      "v": 111
    },
    {
      "midi": 53,
      "hit": false,
      "t": 157385.83104166744,
      "d": 502.7143749999814,
      "v": 104
    },
    {
      "midi": 62,
      "hit": false,
      "t": 157394.8889583336,
      "d": 1449.2666666666628,
      "v": 103
    },
    {
      "midi": 53,
      "hit": false,
      "t": 157394.8889583336,
      "d": 1453.7956249999988,
      "v": 98
    },
    {
      "midi": 57,
      "hit": false,
      "t": 157394.8889583336,
      "d": 1462.853541666671,
      "v": 103
    },
    {
      "midi": 50,
      "hit": false,
      "t": 157820.61104166694,
      "d": 471.01166666665813,
      "v": 94
    },
    {
      "midi": 53,
      "hit": false,
      "t": 158038.00104166742,
      "d": 901.2627083333209,
      "v": 111
    },
    {
      "midi": 62,
      "hit": false,
      "t": 158038.00104166742,
      "d": 928.4364583333081,
      "v": 114
    },
    {
      "midi": 57,
      "hit": false,
      "t": 158038.00104166742,
      "d": 955.6102083332953,
      "v": 114
    },
    {
      "midi": 38,
      "hit": false,
      "t": 158246.33312500027,
      "d": 1779.8806250000198,
      "v": 104
    },
    {
      "midi": 50,
      "hit": false,
      "t": 158694.70000000027,
      "d": 715.5754166666593,
      "v": 99
    },
    {
      "midi": 62,
      "hit": false,
      "t": 159124.95104166694,
      "d": 874.0889583333337,
      "v": 101
    },
    {
      "midi": 53,
      "hit": false,
      "t": 159124.95104166737,
      "d": 869.5599999999977,
      "v": 111
    },
    {
      "midi": 60,
      "hit": false,
      "t": 159124.95104166737,
      "d": 896.7337499999849,
      "v": 118
    },
    {
      "midi": 57,
      "hit": false,
      "t": 159124.95104166737,
      "d": 905.791666666657,
      "v": 114
    },
    {
      "midi": 57,
      "hit": false,
      "t": 159129.48000000027,
      "d": 869.5599999999977,
      "v": 103
    },
    {
      "midi": 53,
      "hit": false,
      "t": 159134.0089583336,
      "d": 865.0310416666616,
      "v": 96
    },
    {
      "midi": 50,
      "hit": false,
      "t": 159573.31791666694,
      "d": 425.72208333332674,
      "v": 103
    },
    {
      "midi": 48,
      "hit": false,
      "t": 160003.5689583336,
      "d": 1494.5562500000233,
      "v": 99
    },
    {
      "midi": 55,
      "hit": false,
      "t": 160438.34895833363,
      "d": 729.1622916666674,
      "v": 83
    },
    {
      "midi": 55,
      "hit": false,
      "t": 160651.2100000007,
      "d": 543.4750000000058,
      "v": 99
    },
    {
      "midi": 64,
      "hit": false,
      "t": 160864.07104166696,
      "d": 1372.2743750000081,
      "v": 94
    },
    {
      "midi": 60,
      "hit": false,
      "t": 160864.07104166696,
      "d": 1376.8033333333442,
      "v": 101
    },
    {
      "midi": 64,
      "hit": false,
      "t": 160864.07104166737,
      "d": 434.77999999999884,
      "v": 118
    },
    {
      "midi": 60,
      "hit": false,
      "t": 160864.07104166737,
      "d": 1539.8458333333547,
      "v": 114
    },
    {
      "midi": 55,
      "hit": false,
      "t": 161294.32208333362,
      "d": 674.814791666664,
      "v": 74
    },
    {
      "midi": 65,
      "hit": false,
      "t": 161294.32208333403,
      "d": 203.80312500000582,
      "v": 111
    },
    {
      "midi": 55,
      "hit": false,
      "t": 161298.85104166737,
      "d": 969.1970833333326,
      "v": 102
    },
    {
      "midi": 67,
      "hit": false,
      "t": 161511.71208333405,
      "d": 969.1970833333326,
      "v": 118
    },
    {
      "midi": 48,
      "hit": false,
      "t": 161729.10208333362,
      "d": 1209.2318750000268,
      "v": 103
    },
    {
      "midi": 55,
      "hit": false,
      "t": 162168.41104166696,
      "d": 525.3591666666907,
      "v": 86
    },
    {
      "midi": 55,
      "hit": false,
      "t": 162385.80104166738,
      "d": 593.2935416667024,
      "v": 90
    },
    {
      "midi": 64,
      "hit": false,
      "t": 162598.66208333365,
      "d": 892.2047916666779,
      "v": 94
    },
    {
      "midi": 67,
      "hit": false,
      "t": 162598.66208333406,
      "d": 240.03479166669422,
      "v": 118
    },
    {
      "midi": 60,
      "hit": false,
      "t": 162603.19104166699,
      "d": 883.1468750000058,
      "v": 98
    },
    {
      "midi": 60,
      "hit": false,
      "t": 162603.1910416674,
      "d": 883.1468750000349,
      "v": 112
    },
    {
      "midi": 65,
      "hit": false,
      "t": 162816.05208333407,
      "d": 203.80312500000582,
      "v": 116
    },
    {
      "midi": 55,
      "hit": false,
      "t": 162820.58104166697,
      "d": 643.1120833333407,
      "v": 94
    },
    {
      "midi": 48,
      "hit": false,
      "t": 163037.97104166698,
      "d": 416.66416666665464,
      "v": 93
    },
    {
      "midi": 64,
      "hit": false,
      "t": 163037.97104166742,
      "d": 416.66416666665464,
      "v": 118
    },
    {
      "midi": 55,
      "hit": false,
      "t": 163037.97104166742,
      "d": 452.89583333334303,
      "v": 87
    },
    {
      "midi": 64,
      "hit": false,
      "t": 163477.28000000076,
      "d": 634.0541666666686,
      "v": 119
    },
    {
      "midi": 48,
      "hit": false,
      "t": 163481.80895833366,
      "d": 416.66416666668374,
      "v": 99
    },
    {
      "midi": 55,
      "hit": false,
      "t": 163916.58895833368,
      "d": 729.1622916666674,
      "v": 83
    },
    {
      "midi": 64,
      "hit": false,
      "t": 164342.311041667,
      "d": 1372.2743750000081,
      "v": 94
    },
    {
      "midi": 60,
      "hit": false,
      "t": 164342.311041667,
      "d": 1376.8033333333442,
      "v": 101
    },
    {
      "midi": 64,
      "hit": false,
      "t": 164342.31104166742,
      "d": 353.25875000000815,
      "v": 112
    },
    {
      "midi": 55,
      "hit": false,
      "t": 164772.56208333367,
      "d": 674.814791666664,
      "v": 74
    },
    {
      "midi": 65,
      "hit": false,
      "t": 164772.56208333408,
      "d": 149.45562500000233,
      "v": 99
    },
    {
      "midi": 67,
      "hit": false,
      "t": 164989.9520833341,
      "d": 987.3129166666477,
      "v": 116
    },
    {
      "midi": 48,
      "hit": false,
      "t": 165207.34208333367,
      "d": 1209.2318750000268,
      "v": 103
    },
    {
      "midi": 55,
      "hit": false,
      "t": 165646.651041667,
      "d": 525.3591666666907,
      "v": 86
    },
    {
      "midi": 55,
      "hit": false,
      "t": 165646.6510416674,
      "d": 1313.3979166666395,
      "v": 112
    },
    {
      "midi": 64,
      "hit": false,
      "t": 166076.9020833337,
      "d": 892.2047916666779,
      "v": 94
    },
    {
      "midi": 67,
      "hit": false,
      "t": 166076.90208333408,
      "d": 421.1931249999907,
      "v": 112
    },
    {
      "midi": 60,
      "hit": false,
      "t": 166081.43104166703,
      "d": 883.1468750000058,
      "v": 98
    },
    {
      "midi": 55,
      "hit": false,
      "t": 166298.82104166702,
      "d": 643.1120833333407,
      "v": 94
    },
    {
      "midi": 64,
      "hit": false,
      "t": 166511.68208333408,
      "d": 181.15833333332557,
      "v": 111
    },
    {
      "midi": 48,
      "hit": false,
      "t": 166516.21104166703,
      "d": 452.89583333334303,
      "v": 93
    },
    {
      "midi": 62,
      "hit": false,
      "t": 166729.07208333406,
      "d": 1037.131458333315,
      "v": 118
    },
    {
      "midi": 38,
      "hit": false,
      "t": 166955.52000000037,
      "d": 1381.3322916666511,
      "v": 101
    },
    {
      "midi": 53,
      "hit": false,
      "t": 166960.04895833405,
      "d": 765.3939583333267,
      "v": 98
    },
    {
      "midi": 57,
      "hit": false,
      "t": 166960.04895833405,
      "d": 765.3939583333267,
      "v": 102
    },
    {
      "midi": 50,
      "hit": false,
      "t": 167394.8289583337,
      "d": 724.6333333333314,
      "v": 93
    },
    {
      "midi": 62,
      "hit": false,
      "t": 167820.55104166738,
      "d": 371.37458333332324,
      "v": 114
    },
    {
      "midi": 57,
      "hit": false,
      "t": 167820.55104166738,
      "d": 801.625624999986,
      "v": 102
    },
    {
      "midi": 53,
      "hit": false,
      "t": 167820.55104166738,
      "d": 815.2124999999942,
      "v": 88
    },
    {
      "midi": 62,
      "hit": false,
      "t": 167829.6089583337,
      "d": 1449.2666666666628,
      "v": 103
    },
    {
      "midi": 53,
      "hit": false,
      "t": 167829.6089583337,
      "d": 1453.7956249999988,
      "v": 98
    },
    {
      "midi": 57,
      "hit": false,
      "t": 167829.6089583337,
      "d": 1462.853541666671,
      "v": 103
    },
    {
      "midi": 60,
      "hit": false,
      "t": 168250.80208333404,
      "d": 172.10041666665347,
      "v": 111
    },
    {
      "midi": 50,
      "hit": false,
      "t": 168255.33104166703,
      "d": 471.01166666665813,
      "v": 94
    },
    {
      "midi": 62,
      "hit": false,
      "t": 168468.19208333403,
      "d": 960.1391666666605,
      "v": 116
    },
    {
      "midi": 38,
      "hit": false,
      "t": 168681.05312500036,
      "d": 1648.5408333333326,
      "v": 104
    },
    {
      "midi": 53,
      "hit": false,
      "t": 168690.11104166738,
      "d": 575.1777083333291,
      "v": 102
    },
    {
      "midi": 57,
      "hit": false,
      "t": 168690.11104166738,
      "d": 738.2202083333104,
      "v": 106
    },
    {
      "midi": 50,
      "hit": false,
      "t": 169129.42000000036,
      "d": 715.5754166666593,
      "v": 99
    },
    {
      "midi": 53,
      "hit": false,
      "t": 169351.33895833403,
      "d": 298.91124999997555,
      "v": 93
    },
    {
      "midi": 62,
      "hit": false,
      "t": 169559.67104166702,
      "d": 874.0889583333337,
      "v": 101
    },
    {
      "midi": 64,
      "hit": false,
      "t": 169559.67104166734,
      "d": 801.625624999986,
      "v": 118
    },
    {
      "midi": 57,
      "hit": false,
      "t": 169564.20000000036,
      "d": 869.5599999999977,
      "v": 103
    },
    {
      "midi": 57,
      "hit": false,
      "t": 169564.20000000068,
      "d": 475.5406249999942,
      "v": 96
    },
    {
      "midi": 53,
      "hit": false,
      "t": 169568.7289583337,
      "d": 865.0310416666616,
      "v": 96
    },
    {
      "midi": 53,
      "hit": false,
      "t": 169777.06104166733,
      "d": 656.6989583333489,
      "v": 93
    },
    {
      "midi": 50,
      "hit": false,
      "t": 170008.03791666703,
      "d": 412.1352083333186,
      "v": 103
    },
    {
      "midi": 57,
      "hit": false,
      "t": 170216.37000000066,
      "d": 217.39000000001397,
      "v": 85
    },
    {
      "midi": 62,
      "hit": false,
      "t": 170429.23104166734,
      "d": 747.2781250000116,
      "v": 118
    },
    {
      "midi": 38,
      "hit": false,
      "t": 170433.76000000036,
      "d": 1648.5408333333326,
      "v": 101
    },
    {
      "midi": 57,
      "hit": false,
      "t": 170433.76000000068,
      "d": 321.5560416666558,
      "v": 112
    },
    {
      "midi": 53,
      "hit": false,
      "t": 170433.76000000068,
      "d": 448.366875000007,
      "v": 109
    },
    {
      "midi": 57,
      "hit": false,
      "t": 170864.01104166734,
      "d": 285.3243750000256,
      "v": 99
    },
    {
      "midi": 50,
      "hit": false,
      "t": 170873.0689583337,
      "d": 724.6333333333314,
      "v": 93
    },
    {
      "midi": 53,
      "hit": false,
      "t": 171081.40104166736,
      "d": 212.86104166667792,
      "v": 96
    },
    {
      "midi": 62,
      "hit": false,
      "t": 171298.79104166737,
      "d": 407.60625000001164,
      "v": 111
    },
    {
      "midi": 57,
      "hit": false,
      "t": 171298.79104166737,
      "d": 498.1854166666744,
      "v": 111
    },
    {
      "midi": 53,
      "hit": false,
      "t": 171298.79104166737,
      "d": 502.7143750000105,
      "v": 104
    },
    {
      "midi": 62,
      "hit": false,
      "t": 171307.8489583337,
      "d": 1449.2666666666628,
      "v": 103
    },
    {
      "midi": 53,
      "hit": false,
      "t": 171307.8489583337,
      "d": 1453.7956249999988,
      "v": 98
    },
    {
      "midi": 57,
      "hit": false,
      "t": 171307.8489583337,
      "d": 1462.853541666671,
      "v": 103
    },
    {
      "midi": 50,
      "hit": false,
      "t": 171733.57104166702,
      "d": 471.01166666665813,
      "v": 94
    },
    {
      "midi": 60,
      "hit": false,
      "t": 171733.57104166737,
      "d": 158.51354166667443,
      "v": 109
    },
    {
      "midi": 50,
      "hit": false,
      "t": 171733.57104166737,
      "d": 969.1970833333617,
      "v": 112
    },
    {
      "midi": 62,
      "hit": false,
      "t": 171946.43208333405,
      "d": 1050.7183333333523,
      "v": 116
    },
    {
      "midi": 53,
      "hit": false,
      "t": 171950.96104166738,
      "d": 901.26270833335,
      "v": 111
    },
    {
      "midi": 57,
      "hit": false,
      "t": 171950.96104166738,
      "d": 955.6102083333535,
      "v": 114
    },
    {
      "midi": 38,
      "hit": false,
      "t": 172159.29312500035,
      "d": 1779.8806250000198,
      "v": 104
    },
    {
      "midi": 50,
      "hit": false,
      "t": 172607.66000000035,
      "d": 715.5754166666593,
      "v": 99
    },
    {
      "midi": 50,
      "hit": false,
      "t": 172820.5210416674,
      "d": 1118.6527083333058,
      "v": 111
    },
    {
      "midi": 62,
      "hit": false,
      "t": 173037.91104166702,
      "d": 874.0889583333337,
      "v": 101
    },
    {
      "midi": 60,
      "hit": false,
      "t": 173037.9110416674,
      "d": 566.119791666657,
      "v": 116
    },
    {
      "midi": 53,
      "hit": false,
      "t": 173037.9110416674,
      "d": 869.5599999999977,
      "v": 111
    },
    {
      "midi": 57,
      "hit": false,
      "t": 173037.9110416674,
      "d": 905.791666666657,
      "v": 114
    },
    {
      "midi": 57,
      "hit": false,
      "t": 173042.44000000035,
      "d": 869.5599999999977,
      "v": 103
    },
    {
      "midi": 53,
      "hit": false,
      "t": 173046.9689583337,
      "d": 865.0310416666616,
      "v": 96
    },
    {
      "midi": 50,
      "hit": false,
      "t": 173486.27791666702,
      "d": 425.72208333332674,
      "v": 103
    },
    {
      "midi": 60,
      "hit": false,
      "t": 173690.08104166738,
      "d": 1014.486666666664,
      "v": 118
    },
    {
      "midi": 48,
      "hit": false,
      "t": 173916.52895833369,
      "d": 1494.5562500000233,
      "v": 99
    },
    {
      "midi": 55,
      "hit": false,
      "t": 174351.3089583337,
      "d": 729.1622916666674,
      "v": 83
    },
    {
      "midi": 55,
      "hit": false,
      "t": 174564.1700000007,
      "d": 543.4750000000058,
      "v": 99
    },
    {
      "midi": 64,
      "hit": false,
      "t": 174777.03104166704,
      "d": 1372.2743750000081,
      "v": 94
    },
    {
      "midi": 60,
      "hit": false,
      "t": 174777.03104166704,
      "d": 1376.8033333333442,
      "v": 101
    },
    {
      "midi": 60,
      "hit": false,
      "t": 174777.0310416674,
      "d": 1539.8458333333547,
      "v": 114
    },
    {
      "midi": 64,
      "hit": false,
      "t": 174786.08895833406,
      "d": 1526.2589583333465,
      "v": 109
    },
    {
      "midi": 55,
      "hit": false,
      "t": 175207.2820833337,
      "d": 674.814791666664,
      "v": 74
    },
    {
      "midi": 55,
      "hit": false,
      "t": 175211.8110416674,
      "d": 969.1970833333326,
      "v": 102
    },
    {
      "midi": 48,
      "hit": false,
      "t": 175642.0620833337,
      "d": 1209.2318750000268,
      "v": 103
    },
    {
      "midi": 55,
      "hit": false,
      "t": 176081.37104166704,
      "d": 525.3591666666907,
      "v": 86
    },
    {
      "midi": 55,
      "hit": false,
      "t": 176298.7610416674,
      "d": 593.2935416666733,
      "v": 90
    },
    {
      "midi": 64,
      "hit": false,
      "t": 176511.62208333373,
      "d": 892.2047916666779,
      "v": 94
    },
    {
      "midi": 60,
      "hit": false,
      "t": 176516.15104166706,
      "d": 883.1468750000058,
      "v": 98
    },
    {
      "midi": 60,
      "hit": false,
      "t": 176516.1510416674,
      "d": 588.7645833333372,
      "v": 112
    },
    {
      "midi": 64,
      "hit": false,
      "t": 176516.1510416674,
      "d": 878.6179166666698,
      "v": 112
    },
    {
      "midi": 55,
      "hit": false,
      "t": 176733.54104166705,
      "d": 643.1120833333407,
      "v": 94
    },
    {
      "midi": 48,
      "hit": false,
      "t": 176950.93104166706,
      "d": 452.89583333334303,
      "v": 93
    },
    {
      "midi": 55,
      "hit": false,
      "t": 176950.9310416674,
      "d": 452.89583333334303,
      "v": 87
    },
    {
      "midi": 60,
      "hit": false,
      "t": 177163.7920833341,
      "d": 181.15833333332557,
      "v": 119
    },
    {
      "midi": 29,
      "hit": false,
      "t": 177390.2400000004,
      "d": 1634.9539583333535,
      "v": 101
    },
    {
      "midi": 53,
      "hit": false,
      "t": 177390.24000000075,
      "d": 557.061875000014,
      "v": 109
    },
    {
      "midi": 57,
      "hit": false,
      "t": 177390.24000000075,
      "d": 697.4595833333442,
      "v": 114
    },
    {
      "midi": 60,
      "hit": false,
      "t": 177390.24000000075,
      "d": 724.6333333333314,
      "v": 111
    },
    {
      "midi": 48,
      "hit": false,
      "t": 177820.49104166706,
      "d": 3115.9233333333395,
      "v": 93
    },
    {
      "midi": 53,
      "hit": false,
      "t": 178033.35208333374,
      "d": 1394.9191666666884,
      "v": 98
    },
    {
      "midi": 53,
      "hit": false,
      "t": 178042.41000000076,
      "d": 525.3591666666616,
      "v": 107
    },
    {
      "midi": 57,
      "hit": false,
      "t": 178250.74208333375,
      "d": 1453.7956249999697,
      "v": 103
    },
    {
      "midi": 57,
      "hit": false,
      "t": 178255.2710416674,
      "d": 1752.7068750000326,
      "v": 114
    },
    {
      "midi": 60,
      "hit": false,
      "t": 178264.32895833408,
      "d": 801.625624999986,
      "v": 109
    },
    {
      "midi": 60,
      "hit": false,
      "t": 178468.13208333377,
      "d": 1249.992499999964,
      "v": 98
    },
    {
      "midi": 55,
      "hit": false,
      "t": 178690.0510416671,
      "d": 987.3129166666477,
      "v": 98
    },
    {
      "midi": 53,
      "hit": false,
      "t": 178690.0510416674,
      "d": 326.08499999999185,
      "v": 107
    },
    {
      "midi": 29,
      "hit": false,
      "t": 179124.8310416671,
      "d": 1829.6991666666581,
      "v": 99
    },
    {
      "midi": 53,
      "hit": false,
      "t": 179129.36000000074,
      "d": 452.89583333334303,
      "v": 111
    },
    {
      "midi": 53,
      "hit": false,
      "t": 179555.08208333375,
      "d": 756.3360416666255,
      "v": 96
    },
    {
      "midi": 53,
      "hit": false,
      "t": 179777.00104166742,
      "d": 1145.8264583333803,
      "v": 106
    },
    {
      "midi": 55,
      "hit": false,
      "t": 179985.33312500038,
      "d": 987.3129166667059,
      "v": 101
    },
    {
      "midi": 60,
      "hit": false,
      "t": 179985.33312500038,
      "d": 987.3129166667059,
      "v": 99
    },
    {
      "midi": 57,
      "hit": false,
      "t": 179985.33312500038,
      "d": 991.8418750000419,
      "v": 103
    },
    {
      "midi": 55,
      "hit": false,
      "t": 179994.39104166743,
      "d": 905.7916666666861,
      "v": 109
    },
    {
      "midi": 57,
      "hit": false,
      "t": 180211.78104166745,
      "d": 711.0464583333523,
      "v": 107
    },
    {
      "midi": 53,
      "hit": false,
      "t": 180424.64208333372,
      "d": 520.8302083333547,
      "v": 99
    },
    {
      "midi": 60,
      "hit": false,
      "t": 180429.17104166746,
      "d": 480.06958333333023,
      "v": 112
    },
    {
      "midi": 36,
      "hit": false,
      "t": 180637.5031250004,
      "d": 212.86104166667792,
      "v": 106
    },
    {
      "midi": 41,
      "hit": false,
      "t": 180854.8931250004,
      "d": 3247.2631249999977,
      "v": 110
    },
    {
      "midi": 93,
      "hit": false,
      "t": 180868.4800000008,
      "d": 113.22395833334303,
      "v": 112
    },
    {
      "midi": 91,
      "hit": false,
      "t": 181085.8700000008,
      "d": 104.16604166667094,
      "v": 104
    },
    {
      "midi": 89,
      "hit": false,
      "t": 181298.7310416675,
      "d": 108.69500000000698,
      "v": 104
    },
    {
      "midi": 84,
      "hit": false,
      "t": 181516.1210416675,
      "d": 117.75291666667908,
      "v": 101
    },
    {
      "midi": 69,
      "hit": false,
      "t": 181715.39520833376,
      "d": 362.31666666668025,
      "v": 99
    },
    {
      "midi": 65,
      "hit": false,
      "t": 181715.39520833376,
      "d": 389.49041666666744,
      "v": 101
    },
    {
      "midi": 81,
      "hit": false,
      "t": 181733.51104166752,
      "d": 99.63708333333489,
      "v": 112
    },
    {
      "midi": 65,
      "hit": false,
      "t": 181742.5689583342,
      "d": 353.25875000000815,
      "v": 119
    },
    {
      "midi": 79,
      "hit": false,
      "t": 181950.90104166753,
      "d": 104.16604166667094,
      "v": 93
    },
    {
      "midi": 67,
      "hit": false,
      "t": 182150.17520833376,
      "d": 131.33979166665813,
      "v": 94
    },
    {
      "midi": 64,
      "hit": false,
      "t": 182150.17520833376,
      "d": 158.51354166664532,
      "v": 94
    },
    {
      "midi": 67,
      "hit": false,
      "t": 182163.7620833342,
      "d": 176.62937500001863,
      "v": 116
    },
    {
      "midi": 77,
      "hit": false,
      "t": 182168.29104166754,
      "d": 113.22395833334303,
      "v": 104
    },
    {
      "midi": 64,
      "hit": false,
      "t": 182367.56520833375,
      "d": 403.0772916666756,
      "v": 101
    },
    {
      "midi": 67,
      "hit": false,
      "t": 182367.56520833375,
      "d": 434.77999999999884,
      "v": 101
    },
    {
      "midi": 69,
      "hit": false,
      "t": 182381.15208333422,
      "d": 194.74520833333372,
      "v": 119
    },
    {
      "midi": 72,
      "hit": false,
      "t": 182385.68104166756,
      "d": 122.28187499998603,
      "v": 109
    },
    {
      "midi": 69,
      "hit": false,
      "t": 182603.07104166754,
      "d": 126.81083333332208,
      "v": 101
    },
    {
      "midi": 62,
      "hit": false,
      "t": 182811.40312500042,
      "d": 344.20083333333605,
      "v": 90
    },
    {
      "midi": 65,
      "hit": false,
      "t": 182811.40312500042,
      "d": 353.25875000000815,
      "v": 90
    },
    {
      "midi": 67,
      "hit": false,
      "t": 182820.46104166753,
      "d": 122.28187499998603,
      "v": 104
    },
    {
      "midi": 65,
      "hit": false,
      "t": 183037.8510416675,
      "d": 126.81083333332208,
      "v": 102
    },
    {
      "midi": 62,
      "hit": false,
      "t": 183246.18312500042,
      "d": 335.14291666666395,
      "v": 103
    },
    {
      "midi": 65,
      "hit": false,
      "t": 183246.18312500042,
      "d": 384.9614583333314,
      "v": 106
    },
    {
      "midi": 60,
      "hit": false,
      "t": 183255.2410416675,
      "d": 131.33979166665813,
      "v": 111
    },
    {
      "midi": 57,
      "hit": false,
      "t": 183472.63104166748,
      "d": 126.81083333332208,
      "v": 106
    },
    {
      "midi": 64,
      "hit": false,
      "t": 183676.43416666708,
      "d": 389.49041666666744,
      "v": 104
    },
    {
      "midi": 60,
      "hit": false,
      "t": 183680.96312500042,
      "d": 366.8456249999872,
      "v": 103
    },
    {
      "midi": 55,
      "hit": false,
      "t": 183690.02104166747,
      "d": 113.22395833334303,
      "v": 102
    },
    {
      "midi": 53,
      "hit": false,
      "t": 183907.41104166748,
      "d": 117.75291666667908,
      "v": 106
    },
    {
      "midi": 48,
      "hit": false,
      "t": 184124.8010416675,
      "d": 122.28187499998603,
      "v": 112
    },
    {
      "midi": 91,
      "hit": false,
      "t": 184346.72000000082,
      "d": 140.39770833333023,
      "v": 107
    },
    {
      "midi": 36,
      "hit": false,
      "t": 184355.77791666708,
      "d": 2427.5216666666674,
      "v": 103
    },
    {
      "midi": 89,
      "hit": false,
      "t": 184568.63895833414,
      "d": 104.16604166667094,
      "v": 78
    },
    {
      "midi": 43,
      "hit": false,
      "t": 184772.44208333374,
      "d": 1865.9308333333465,
      "v": 94
    },
    {
      "midi": 88,
      "hit": false,
      "t": 184786.02895833415,
      "d": 99.63708333333489,
      "v": 99
    },
    {
      "midi": 48,
      "hit": false,
      "t": 184994.36104166706,
      "d": 1825.1702083333512,
      "v": 94
    },
    {
      "midi": 84,
      "hit": false,
      "t": 184994.3610416675,
      "d": 117.75291666667908,
      "v": 109
    },
    {
      "midi": 60,
      "hit": false,
      "t": 185211.75104166707,
      "d": 403.0772916666756,
      "v": 104
    },
    {
      "midi": 79,
      "hit": false,
      "t": 185211.7510416675,
      "d": 158.51354166667443,
      "v": 112
    },
    {
      "midi": 64,
      "hit": false,
      "t": 185216.2800000004,
      "d": 384.9614583333314,
      "v": 106
    },
    {
      "midi": 64,
      "hit": false,
      "t": 185220.80895833418,
      "d": 416.66416666668374,
      "v": 119
    },
    {
      "midi": 77,
      "hit": false,
      "t": 185429.14104166752,
      "d": 149.45562500000233,
      "v": 111
    },
    {
      "midi": 65,
      "hit": false,
      "t": 185642.0020833342,
      "d": 190.21624999999767,
      "v": 116
    },
    {
      "midi": 62,
      "hit": false,
      "t": 185646.53104166707,
      "d": 149.45562500000233,
      "v": 93
    },
    {
      "midi": 65,
      "hit": false,
      "t": 185646.53104166707,
      "d": 158.51354166667443,
      "v": 93
    },
    {
      "midi": 76,
      "hit": false,
      "t": 185646.53104166753,
      "d": 172.10041666665347,
      "v": 112
    },
    {
      "midi": 72,
      "hit": false,
      "t": 185863.92104166752,
      "d": 158.51354166667443,
      "v": 114
    },
    {
      "midi": 67,
      "hit": false,
      "t": 185863.92104166752,
      "d": 194.74520833333372,
      "v": 119
    },
    {
      "midi": 67,
      "hit": false,
      "t": 185868.45000000042,
      "d": 869.5599999999977,
      "v": 106
    },
    {
      "midi": 64,
      "hit": false,
      "t": 185868.45000000042,
      "d": 887.6758333333419,
      "v": 108
    },
    {
      "midi": 67,
      "hit": false,
      "t": 186081.31104166753,
      "d": 140.39770833333023,
      "v": 114
    },
    {
      "midi": 65,
      "hit": false,
      "t": 186298.70104166752,
      "d": 131.33979166665813,
      "v": 112
    },
    {
      "midi": 64,
      "hit": false,
      "t": 186516.0910416675,
      "d": 135.86874999999418,
      "v": 111
    },
    {
      "midi": 43,
      "hit": false,
      "t": 186728.95208333374,
      "d": 380.43249999999534,
      "v": 101
    },
    {
      "midi": 60,
      "hit": false,
      "t": 186733.4810416675,
      "d": 126.81083333332208,
      "v": 114
    },
    {
      "midi": 60,
      "hit": false,
      "t": 186950.87104166707,
      "d": 398.54833333336865,
      "v": 106
    },
    {
      "midi": 55,
      "hit": false,
      "t": 186950.87104166747,
      "d": 144.92666666666628,
      "v": 112
    },
    {
      "midi": 55,
      "hit": false,
      "t": 186955.4000000004,
      "d": 380.43250000002445,
      "v": 103
    },
    {
      "midi": 64,
      "hit": false,
      "t": 186959.92895833374,
      "d": 362.31666666668025,
      "v": 104
    },
    {
      "midi": 53,
      "hit": false,
      "t": 187168.2610416675,
      "d": 126.81083333332208,
      "v": 106
    },
    {
      "midi": 52,
      "hit": false,
      "t": 187385.65104166747,
      "d": 158.51354166667443,
      "v": 99
    },
    {
      "midi": 55,
      "hit": false,
      "t": 187399.2379166671,
      "d": 498.1854166666744,
      "v": 108
    },
    {
      "midi": 64,
      "hit": false,
      "t": 187399.2379166671,
      "d": 498.1854166666744,
      "v": 108
    },
    {
      "midi": 60,
      "hit": false,
      "t": 187399.2379166671,
      "d": 511.7722916666826,
      "v": 110
    },
    {
      "midi": 48,
      "hit": false,
      "t": 187612.09895833416,
      "d": 117.75291666667908,
      "v": 109
    },
    {
      "midi": 43,
      "hit": false,
      "t": 187824.96000000043,
      "d": 797.0966666667082,
      "v": 103
    },
    {
      "midi": 86,
      "hit": false,
      "t": 187829.48895833417,
      "d": 199.27416666666977,
      "v": 114
    },
    {
      "midi": 84,
      "hit": false,
      "t": 188046.8789583342,
      "d": 149.45562500000233,
      "v": 109
    },
    {
      "midi": 50,
      "hit": false,
      "t": 188255.21104166712,
      "d": 1009.957708333357,
      "v": 93
    },
    {
      "midi": 83,
      "hit": false,
      "t": 188264.2689583342,
      "d": 126.81083333332208,
      "v": 112
    },
    {
      "midi": 55,
      "hit": false,
      "t": 188472.60104166713,
      "d": 520.8302083333547,
      "v": 98
    },
    {
      "midi": 79,
      "hit": false,
      "t": 188481.65895833418,
      "d": 113.22395833334303,
      "v": 112
    },
    {
      "midi": 62,
      "hit": false,
      "t": 188689.99104166715,
      "d": 1449.266666666692,
      "v": 106
    },
    {
      "midi": 59,
      "hit": false,
      "t": 188689.99104166715,
      "d": 1462.8535416667,
      "v": 110
    },
    {
      "midi": 74,
      "hit": false,
      "t": 188689.99104166753,
      "d": 163.04250000001048,
      "v": 114
    },
    {
      "midi": 72,
      "hit": false,
      "t": 188907.38104166754,
      "d": 158.51354166667443,
      "v": 112
    },
    {
      "midi": 55,
      "hit": false,
      "t": 189115.71312500047,
      "d": 973.7260416666977,
      "v": 99
    },
    {
      "midi": 71,
      "hit": false,
      "t": 189120.24208333422,
      "d": 167.57145833334653,
      "v": 109
    },
    {
      "midi": 43,
      "hit": false,
      "t": 189337.63208333382,
      "d": 1983.6837500000256,
      "v": 104
    },
    {
      "midi": 67,
      "hit": false,
      "t": 189337.63208333423,
      "d": 149.45562500000233,
      "v": 114
    },
    {
      "midi": 62,
      "hit": false,
      "t": 189555.02208333425,
      "d": 140.39770833333023,
      "v": 116
    },
    {
      "midi": 60,
      "hit": false,
      "t": 189772.41208333423,
      "d": 131.33979166665813,
      "v": 106
    },
    {
      "midi": 50,
      "hit": false,
      "t": 189989.80208333384,
      "d": 1268.1083333333372,
      "v": 99
    },
    {
      "midi": 59,
      "hit": false,
      "t": 189989.80208333422,
      "d": 153.98458333333838,
      "v": 106
    },
    {
      "midi": 55,
      "hit": false,
      "t": 190207.19208333385,
      "d": 701.9885416666511,
      "v": 98
    },
    {
      "midi": 55,
      "hit": false,
      "t": 190207.19208333423,
      "d": 113.22395833334303,
      "v": 111
    },
    {
      "midi": 59,
      "hit": false,
      "t": 190424.58208333387,
      "d": 176.62937499998952,
      "v": 106
    },
    {
      "midi": 62,
      "hit": false,
      "t": 190424.58208333387,
      "d": 271.73749999998836,
      "v": 103
    },
    {
      "midi": 50,
      "hit": false,
      "t": 190424.58208333424,
      "d": 258.1506250000093,
      "v": 104
    },
    {
      "midi": 60,
      "hit": false,
      "t": 190641.97208333385,
      "d": 240.03479166666511,
      "v": 96
    },
    {
      "midi": 48,
      "hit": false,
      "t": 190641.97208333426,
      "d": 303.4402083333116,
      "v": 94
    },
    {
      "midi": 59,
      "hit": false,
      "t": 190854.83312500053,
      "d": 412.1352083333186,
      "v": 110
    },
    {
      "midi": 47,
      "hit": false,
      "t": 190863.89104166758,
      "d": 190.21624999999767,
      "v": 101
    },
    {
      "midi": 55,
      "hit": false,
      "t": 191063.16520833384,
      "d": 203.80312500000582,
      "v": 11
    },
    {
      "midi": 55,
      "hit": false,
      "t": 191081.28104166756,
      "d": 3577.8770833333256,
      "v": 111
    },
    {
      "midi": 50,
      "hit": false,
      "t": 191303.2000000005,
      "d": 3224.6183333333465,
      "v": 99
    },
    {
      "midi": 47,
      "hit": false,
      "t": 191303.2000000005,
      "d": 3310.6685416666733,
      "v": 88
    },
    {
      "midi": 55,
      "hit": false,
      "t": 191303.2000000005,
      "d": 3319.7264583333454,
      "v": 94
    },
    {
      "midi": 36,
      "hit": false,
      "t": 194785.96895833386,
      "d": 1571.5485416666488,
      "v": 91
    },
    {
      "midi": 55,
      "hit": false,
      "t": 195216.22000000053,
      "d": 670.2858333333279,
      "v": 85
    },
    {
      "midi": 64,
      "hit": false,
      "t": 195646.47104166757,
      "d": 407.60625000001164,
      "v": 116
    },
    {
      "midi": 60,
      "hit": false,
      "t": 195655.52895833386,
      "d": 1354.158541666664,
      "v": 80
    },
    {
      "midi": 64,
      "hit": false,
      "t": 195660.0579166672,
      "d": 1390.3902083333232,
      "v": 80
    },
    {
      "midi": 65,
      "hit": false,
      "t": 196081.25104166757,
      "d": 181.15833333332557,
      "v": 98
    },
    {
      "midi": 55,
      "hit": false,
      "t": 196090.30895833386,
      "d": 738.2202083333395,
      "v": 70
    },
    {
      "midi": 67,
      "hit": false,
      "t": 196298.64104166755,
      "d": 837.8572916666744,
      "v": 111
    },
    {
      "midi": 36,
      "hit": false,
      "t": 196516.0310416672,
      "d": 1571.548541666678,
      "v": 88
    },
    {
      "midi": 55,
      "hit": false,
      "t": 196959.86895833386,
      "d": 697.4595833333442,
      "v": 62
    },
    {
      "midi": 67,
      "hit": false,
      "t": 197385.59104166756,
      "d": 267.2085416666814,
      "v": 109
    },
    {
      "midi": 60,
      "hit": false,
      "t": 197394.64895833386,
      "d": 1417.5639583333395,
      "v": 79
    },
    {
      "midi": 64,
      "hit": false,
      "t": 197394.64895833386,
      "d": 1435.6797916666837,
      "v": 80
    },
    {
      "midi": 65,
      "hit": false,
      "t": 197602.98104166758,
      "d": 217.39000000001397,
      "v": 85
    },
    {
      "midi": 55,
      "hit": false,
      "t": 197820.3710416672,
      "d": 756.3360416666546,
      "v": 71
    },
    {
      "midi": 64,
      "hit": false,
      "t": 197820.3710416676,
      "d": 226.44791666668607,
      "v": 104
    },
    {
      "midi": 60,
      "hit": false,
      "t": 198037.7610416676,
      "d": 1213.7608333333628,
      "v": 107
    },
    {
      "midi": 36,
      "hit": false,
      "t": 198250.62208333387,
      "d": 1644.0118749999965,
      "v": 98
    },
    {
      "midi": 55,
      "hit": false,
      "t": 198703.5179166672,
      "d": 692.9306250000373,
      "v": 77
    },
    {
      "midi": 64,
      "hit": false,
      "t": 199133.7689583343,
      "d": 384.9614583333314,
      "v": 102
    },
    {
      "midi": 60,
      "hit": false,
      "t": 199138.29791666722,
      "d": 1367.745416666672,
      "v": 85
    },
    {
      "midi": 64,
      "hit": false,
      "t": 199142.82687500055,
      "d": 1376.8033333333442,
      "v": 80
    },
    {
      "midi": 65,
      "hit": false,
      "t": 199559.4910416676,
      "d": 208.33208333334187,
      "v": 98
    },
    {
      "midi": 55,
      "hit": false,
      "t": 199573.07791666721,
      "d": 751.8070833333186,
      "v": 70
    },
    {
      "midi": 67,
      "hit": false,
      "t": 199785.9389583343,
      "d": 887.6758333333419,
      "v": 106
    },
    {
      "midi": 36,
      "hit": false,
      "t": 200003.32895833388,
      "d": 1571.548541666678,
      "v": 90
    },
    {
      "midi": 55,
      "hit": false,
      "t": 200438.10895833388,
      "d": 711.0464583333523,
      "v": 71
    },
    {
      "midi": 67,
      "hit": false,
      "t": 200863.83104166764,
      "d": 253.62166666667326,
      "v": 106
    },
    {
      "midi": 60,
      "hit": false,
      "t": 200872.8889583339,
      "d": 797.09666666665,
      "v": 85
    },
    {
      "midi": 64,
      "hit": false,
      "t": 200872.8889583339,
      "d": 797.09666666665,
      "v": 85
    },
    {
      "midi": 65,
      "hit": false,
      "t": 201081.22104166765,
      "d": 208.33208333331277,
      "v": 96
    },
    {
      "midi": 55,
      "hit": false,
      "t": 201298.61104166723,
      "d": 416.66416666665464,
      "v": 71
    },
    {
      "midi": 64,
      "hit": false,
      "t": 201298.61104166764,
      "d": 416.66416666665464,
      "v": 114
    },
    {
      "midi": 36,
      "hit": false,
      "t": 201733.39104166723,
      "d": 1585.135416666657,
      "v": 94
    },
    {
      "midi": 55,
      "hit": false,
      "t": 201737.92000000057,
      "d": 317.02708333331975,
      "v": 106
    },
    {
      "midi": 64,
      "hit": false,
      "t": 201737.92000000057,
      "d": 502.7143749999814,
      "v": 108
    },
    {
      "midi": 60,
      "hit": false,
      "t": 201737.92000000057,
      "d": 507.2433333333174,
      "v": 108
    },
    {
      "midi": 67,
      "hit": false,
      "t": 201737.92000000057,
      "d": 570.648749999993,
      "v": 104
    },
    {
      "midi": 64,
      "hit": false,
      "t": 201742.44895833428,
      "d": 724.6333333333314,
      "v": 98
    },
    {
      "midi": 67,
      "hit": false,
      "t": 201742.44895833428,
      "d": 742.7491666666756,
      "v": 94
    },
    {
      "midi": 60,
      "hit": false,
      "t": 201742.44895833428,
      "d": 756.3360416666837,
      "v": 94
    },
    {
      "midi": 48,
      "hit": false,
      "t": 201746.97791666762,
      "d": 760.8650000000198,
      "v": 94
    },
    {
      "midi": 48,
      "hit": false,
      "t": 202181.7579166672,
      "d": 1091.4789583333477,
      "v": 110
    },
    {
      "midi": 55,
      "hit": false,
      "t": 202390.09000000055,
      "d": 629.5252083333326,
      "v": 106
    },
    {
      "midi": 60,
      "hit": false,
      "t": 202602.95104166723,
      "d": 289.85333333333256,
      "v": 108
    },
    {
      "midi": 64,
      "hit": false,
      "t": 202602.95104166723,
      "d": 932.9654166666442,
      "v": 110
    },
    {
      "midi": 67,
      "hit": false,
      "t": 202612.0089583339,
      "d": 892.2047916666488,
      "v": 104
    },
    {
      "midi": 64,
      "hit": false,
      "t": 202625.59583333432,
      "d": 480.06958333335933,
      "v": 98
    },
    {
      "midi": 60,
      "hit": false,
      "t": 202630.12479166765,
      "d": 452.89583333334303,
      "v": 94
    },
    {
      "midi": 67,
      "hit": false,
      "t": 202630.12479166765,
      "d": 452.89583333334303,
      "v": 96
    },
    {
      "midi": 48,
      "hit": false,
      "t": 202634.653750001,
      "d": 747.2781250000407,
      "v": 92
    },
    {
      "midi": 60,
      "hit": false,
      "t": 203028.67312500055,
      "d": 534.4170833333046,
      "v": 98
    },
    {
      "midi": 55,
      "hit": false,
      "t": 203246.06312500057,
      "d": 335.14291666663485,
      "v": 103
    },
    {
      "midi": 67,
      "hit": false,
      "t": 203264.17895833435,
      "d": 126.81083333335118,
      "v": 94
    },
    {
      "midi": 64,
      "hit": false,
      "t": 203264.17895833435,
      "d": 149.45562500003143,
      "v": 94
    },
    {
      "midi": 60,
      "hit": false,
      "t": 203268.70791666768,
      "d": 131.33979166668723,
      "v": 92
    },
    {
      "midi": 48,
      "hit": false,
      "t": 203472.51104166723,
      "d": 298.91124999997555,
      "v": 111
    },
    {
      "midi": 60,
      "hit": false,
      "t": 203481.5689583344,
      "d": 172.10041666665347,
      "v": 94
    },
    {
      "midi": 67,
      "hit": false,
      "t": 203481.5689583344,
      "d": 172.10041666665347,
      "v": 96
    },
    {
      "midi": 64,
      "hit": false,
      "t": 203481.5689583344,
      "d": 185.68729166666162,
      "v": 99
    },
    {
      "midi": 48,
      "hit": false,
      "t": 203481.5689583344,
      "d": 670.285833333357,
      "v": 91
    },
    {
      "midi": 55,
      "hit": false,
      "t": 203680.84312500054,
      "d": 294.3822916666686,
      "v": 103
    },
    {
      "midi": 60,
      "hit": false,
      "t": 203685.37208333387,
      "d": 403.0772916666756,
      "v": 106
    },
    {
      "midi": 64,
      "hit": false,
      "t": 203685.37208333387,
      "d": 489.1275000000023,
      "v": 106
    },
    {
      "midi": 67,
      "hit": false,
      "t": 203685.37208333387,
      "d": 502.7143750000105,
      "v": 104
    },
    {
      "midi": 67,
      "hit": false,
      "t": 203884.64625000107,
      "d": 792.5677083333721,
      "v": 94
    },
    {
      "midi": 64,
      "hit": false,
      "t": 203884.64625000107,
      "d": 815.2125000000524,
      "v": 98
    },
    {
      "midi": 60,
      "hit": false,
      "t": 203889.1752083344,
      "d": 797.0966666667082,
      "v": 96
    },
    {
      "midi": 48,
      "hit": false,
      "t": 203907.2910416672,
      "d": 1281.6952083333745,
      "v": 108
    },
    {
      "midi": 55,
      "hit": false,
      "t": 204120.15208333387,
      "d": 647.6410416666768,
      "v": 106
    },
    {
      "midi": 48,
      "hit": false,
      "t": 204319.4262500011,
      "d": 824.2704166666954,
      "v": 96
    },
    {
      "midi": 60,
      "hit": false,
      "t": 204337.5420833339,
      "d": 298.91125000000466,
      "v": 108
    },
    {
      "midi": 67,
      "hit": false,
      "t": 204337.5420833339,
      "d": 865.0310416666907,
      "v": 104
    },
    {
      "midi": 64,
      "hit": false,
      "t": 204337.5420833339,
      "d": 878.6179166666989,
      "v": 108
    },
    {
      "midi": 60,
      "hit": false,
      "t": 204758.73520833446,
      "d": 366.8456249999872,
      "v": 92
    },
    {
      "midi": 67,
      "hit": false,
      "t": 204758.73520833446,
      "d": 371.37458333332324,
      "v": 96
    },
    {
      "midi": 64,
      "hit": false,
      "t": 204758.73520833446,
      "d": 380.43249999999534,
      "v": 98
    },
    {
      "midi": 60,
      "hit": false,
      "t": 204767.79312500055,
      "d": 452.89583333337214,
      "v": 103
    },
    {
      "midi": 55,
      "hit": false,
      "t": 204980.65416666723,
      "d": 240.03479166669422,
      "v": 104
    },
    {
      "midi": 43,
      "hit": false,
      "t": 205216.1600000006,
      "d": 321.5560416666558,
      "v": 103
    },
    {
      "midi": 50,
      "hit": false,
      "t": 205216.1600000006,
      "d": 380.43249999999534,
      "v": 106
    },
    {
      "midi": 67,
      "hit": false,
      "t": 205216.1600000006,
      "d": 733.6912500000035,
      "v": 106
    },
    {
      "midi": 59,
      "hit": false,
      "t": 205216.1600000006,
      "d": 742.7491666666756,
      "v": 104
    },
    {
      "midi": 62,
      "hit": false,
      "t": 205216.1600000006,
      "d": 742.7491666666756,
      "v": 108
    },
    {
      "midi": 67,
      "hit": false,
      "t": 205216.16000000114,
      "d": 720.1043749999953,
      "v": 96
    },
    {
      "midi": 59,
      "hit": false,
      "t": 205216.16000000114,
      "d": 729.1622916666674,
      "v": 96
    },
    {
      "midi": 50,
      "hit": false,
      "t": 205216.16000000114,
      "d": 1154.8843750000233,
      "v": 91
    },
    {
      "midi": 62,
      "hit": false,
      "t": 205220.68895833447,
      "d": 729.1622916666674,
      "v": 98
    },
    {
      "midi": 43,
      "hit": false,
      "t": 205646.41104166725,
      "d": 711.0464583333232,
      "v": 103
    },
    {
      "midi": 50,
      "hit": false,
      "t": 205863.80104166726,
      "d": 493.6564583333093,
      "v": 110
    },
    {
      "midi": 67,
      "hit": false,
      "t": 206063.07520833449,
      "d": 489.12750000003143,
      "v": 96
    },
    {
      "midi": 59,
      "hit": false,
      "t": 206067.60416666782,
      "d": 502.7143750000396,
      "v": 94
    },
    {
      "midi": 62,
      "hit": false,
      "t": 206067.60416666782,
      "d": 502.7143750000396,
      "v": 99
    },
    {
      "midi": 59,
      "hit": false,
      "t": 206081.19104166725,
      "d": 946.5522916666523,
      "v": 106
    },
    {
      "midi": 67,
      "hit": false,
      "t": 206081.19104166725,
      "d": 946.5522916666523,
      "v": 110
    },
    {
      "midi": 62,
      "hit": false,
      "t": 206081.19104166725,
      "d": 955.6102083333244,
      "v": 108
    },
    {
      "midi": 50,
      "hit": false,
      "t": 206488.79729166784,
      "d": 1159.4133333333593,
      "v": 91
    },
    {
      "midi": 50,
      "hit": false,
      "t": 206506.91312500057,
      "d": 280.79541666666046,
      "v": 104
    },
    {
      "midi": 62,
      "hit": false,
      "t": 206715.24520833453,
      "d": 126.81083333335118,
      "v": 96
    },
    {
      "midi": 59,
      "hit": false,
      "t": 206715.24520833453,
      "d": 131.33979166668723,
      "v": 91
    },
    {
      "midi": 67,
      "hit": false,
      "t": 206719.77416666786,
      "d": 108.69500000000698,
      "v": 96
    },
    {
      "midi": 43,
      "hit": false,
      "t": 206728.8320833339,
      "d": 122.28187500001513,
      "v": 104
    },
    {
      "midi": 59,
      "hit": false,
      "t": 206928.1062500012,
      "d": 230.97687499999302,
      "v": 94
    },
    {
      "midi": 62,
      "hit": false,
      "t": 206928.1062500012,
      "d": 230.97687499999302,
      "v": 98
    },
    {
      "midi": 67,
      "hit": false,
      "t": 206932.63520833454,
      "d": 221.91895833332092,
      "v": 98
    },
    {
      "midi": 43,
      "hit": false,
      "t": 206950.75104166724,
      "d": 317.02708333331975,
      "v": 106
    },
    {
      "midi": 59,
      "hit": false,
      "t": 207168.14104166723,
      "d": 461.95375000001513,
      "v": 108
    },
    {
      "midi": 67,
      "hit": false,
      "t": 207168.14104166723,
      "d": 466.4827083333512,
      "v": 108
    },
    {
      "midi": 62,
      "hit": false,
      "t": 207168.14104166723,
      "d": 471.01166666668723,
      "v": 108
    },
    {
      "midi": 67,
      "hit": false,
      "t": 207358.35729166787,
      "d": 724.6333333333314,
      "v": 98
    },
    {
      "midi": 59,
      "hit": false,
      "t": 207358.35729166787,
      "d": 738.2202083333395,
      "v": 96
    },
    {
      "midi": 62,
      "hit": false,
      "t": 207358.35729166787,
      "d": 751.8070833333477,
      "v": 98
    },
    {
      "midi": 43,
      "hit": false,
      "t": 207376.47312500057,
      "d": 271.73750000001746,
      "v": 106
    },
    {
      "midi": 50,
      "hit": false,
      "t": 207593.8631250006,
      "d": 452.89583333334303,
      "v": 110
    },
    {
      "midi": 50,
      "hit": false,
      "t": 207793.13729166787,
      "d": 842.3862500000396,
      "v": 98
    },
    {
      "midi": 67,
      "hit": false,
      "t": 207806.72416666726,
      "d": 801.6256250000151,
      "v": 108
    },
    {
      "midi": 59,
      "hit": false,
      "t": 207811.2531250006,
      "d": 788.038750000007,
      "v": 108
    },
    {
      "midi": 62,
      "hit": false,
      "t": 207811.2531250006,
      "d": 788.038750000007,
      "v": 108
    },
    {
      "midi": 67,
      "hit": false,
      "t": 208223.38833333456,
      "d": 394.0193750000035,
      "v": 98
    },
    {
      "midi": 59,
      "hit": false,
      "t": 208227.9172916679,
      "d": 366.8456249999872,
      "v": 96
    },
    {
      "midi": 62,
      "hit": false,
      "t": 208227.9172916679,
      "d": 380.43249999999534,
      "v": 99
    },
    {
      "midi": 50,
      "hit": false,
      "t": 208236.97520833393,
      "d": 249.0927083333372,
      "v": 104
    },
    {
      "midi": 43,
      "hit": false,
      "t": 208454.36520833394,
      "d": 267.2085416666523,
      "v": 108
    },
    {
      "midi": 41,
      "hit": false,
      "t": 208694.4000000006,
      "d": 317.02708333331975,
      "v": 98
    },
    {
      "midi": 53,
      "hit": false,
      "t": 208694.4000000006,
      "d": 344.20083333330695,
      "v": 98
    },
    {
      "midi": 65,
      "hit": false,
      "t": 208694.4000000006,
      "d": 720.1043749999953,
      "v": 104
    },
    {
      "midi": 60,
      "hit": false,
      "t": 208694.4000000006,
      "d": 733.6912500000035,
      "v": 104
    },
    {
      "midi": 57,
      "hit": false,
      "t": 208694.4000000006,
      "d": 742.7491666666756,
      "v": 103
    },
    {
      "midi": 65,
      "hit": false,
      "t": 208698.92895833458,
      "d": 738.2202083333395,
      "v": 94
    },
    {
      "midi": 57,
      "hit": false,
      "t": 208698.92895833458,
      "d": 756.3360416666837,
      "v": 92
    },
    {
      "midi": 60,
      "hit": false,
      "t": 208698.92895833458,
      "d": 769.9229166666919,
      "v": 94
    },
    {
      "midi": 41,
      "hit": false,
      "t": 209124.65104166724,
      "d": 720.1043750000536,
      "v": 104
    },
    {
      "midi": 53,
      "hit": false,
      "t": 209124.6510416679,
      "d": 720.1043750000244,
      "v": 96
    },
    {
      "midi": 53,
      "hit": false,
      "t": 209342.04104166725,
      "d": 493.6564583333675,
      "v": 104
    },
    {
      "midi": 57,
      "hit": false,
      "t": 209554.90208333396,
      "d": 910.3206249999639,
      "v": 108
    },
    {
      "midi": 65,
      "hit": false,
      "t": 209554.90208333396,
      "d": 910.3206249999639,
      "v": 106
    },
    {
      "midi": 60,
      "hit": false,
      "t": 209554.90208333396,
      "d": 914.8495833333,
      "v": 108
    },
    {
      "midi": 57,
      "hit": false,
      "t": 209554.9020833346,
      "d": 566.1197916666861,
      "v": 91
    },
    {
      "midi": 60,
      "hit": false,
      "t": 209554.9020833346,
      "d": 575.1777083333582,
      "v": 94
    },
    {
      "midi": 65,
      "hit": false,
      "t": 209559.43104166794,
      "d": 543.4750000000058,
      "v": 94
    },
    {
      "midi": 53,
      "hit": false,
      "t": 209980.6241666673,
      "d": 317.02708333331975,
      "v": 93
    },
    {
      "midi": 53,
      "hit": false,
      "t": 209989.6820833346,
      "d": 1132.2395833333721,
      "v": 92
    },
    {
      "midi": 41,
      "hit": false,
      "t": 210207.07208333394,
      "d": 126.81083333332208,
      "v": 106
    },
    {
      "midi": 65,
      "hit": false,
      "t": 210207.0720833346,
      "d": 126.81083333332208,
      "v": 84
    },
    {
      "midi": 60,
      "hit": false,
      "t": 210207.0720833346,
      "d": 149.45562500000233,
      "v": 87
    },
    {
      "midi": 57,
      "hit": false,
      "t": 210207.0720833346,
      "d": 153.98458333333838,
      "v": 81
    },
    {
      "midi": 57,
      "hit": false,
      "t": 210419.9331250013,
      "d": 199.27416666666977,
      "v": 91
    },
    {
      "midi": 60,
      "hit": false,
      "t": 210419.9331250013,
      "d": 208.33208333334187,
      "v": 96
    },
    {
      "midi": 41,
      "hit": false,
      "t": 210424.46208333393,
      "d": 294.3822916666686,
      "v": 108
    },
    {
      "midi": 65,
      "hit": false,
      "t": 210424.46208333463,
      "d": 199.27416666666977,
      "v": 96
    },
    {
      "midi": 65,
      "hit": false,
      "t": 210637.3231250006,
      "d": 511.7722916666535,
      "v": 108
    },
    {
      "midi": 57,
      "hit": false,
      "t": 210637.3231250006,
      "d": 529.8881249999977,
      "v": 108
    },
    {
      "midi": 60,
      "hit": false,
      "t": 210637.3231250006,
      "d": 529.8881249999977,
      "v": 108
    },
    {
      "midi": 65,
      "hit": false,
      "t": 210836.59729166797,
      "d": 824.2704166666663,
      "v": 92
    },
    {
      "midi": 57,
      "hit": false,
      "t": 210841.1262500013,
      "d": 810.6835416666581,
      "v": 92
    },
    {
      "midi": 60,
      "hit": false,
      "t": 210841.1262500013,
      "d": 824.2704166666663,
      "v": 94
    },
    {
      "midi": 41,
      "hit": false,
      "t": 210854.7131250006,
      "d": 652.1700000000128,
      "v": 101
    },
    {
      "midi": 53,
      "hit": false,
      "t": 211072.1031250006,
      "d": 475.5406249999942,
      "v": 104
    },
    {
      "midi": 53,
      "hit": false,
      "t": 211280.43520833465,
      "d": 783.5097916666709,
      "v": 92
    },
    {
      "midi": 60,
      "hit": false,
      "t": 211289.4931250006,
      "d": 865.0310416666616,
      "v": 108
    },
    {
      "midi": 65,
      "hit": false,
      "t": 211289.4931250006,
      "d": 865.0310416666616,
      "v": 108
    },
    {
      "midi": 57,
      "hit": false,
      "t": 211289.4931250006,
      "d": 869.5599999999977,
      "v": 108
    },
    {
      "midi": 53,
      "hit": false,
      "t": 211710.6862500006,
      "d": 475.5406249999942,
      "v": 101
    },
    {
      "midi": 57,
      "hit": false,
      "t": 211715.21520833464,
      "d": 335.14291666666395,
      "v": 91
    },
    {
      "midi": 65,
      "hit": false,
      "t": 211715.21520833464,
      "d": 344.20083333333605,
      "v": 96
    },
    {
      "midi": 60,
      "hit": false,
      "t": 211715.21520833464,
      "d": 348.7297916666721,
      "v": 98
    },
    {
      "midi": 41,
      "hit": false,
      "t": 211932.60520833393,
      "d": 276.2664583333535,
      "v": 106
    },
    {
      "midi": 55,
      "hit": false,
      "t": 212172.6400000006,
      "d": 489.12750000003143,
      "v": 106
    },
    {
      "midi": 67,
      "hit": false,
      "t": 212172.6400000006,
      "d": 570.6487500000221,
      "v": 104
    },
    {
      "midi": 60,
      "hit": false,
      "t": 212172.6400000006,
      "d": 597.8225000000093,
      "v": 108
    },
    {
      "midi": 64,
      "hit": false,
      "t": 212172.6400000006,
      "d": 602.3514583333454,
      "v": 108
    },
    {
      "midi": 60,
      "hit": false,
      "t": 212177.16895833466,
      "d": 720.1043749999953,
      "v": 96
    },
    {
      "midi": 67,
      "hit": false,
      "t": 212177.16895833466,
      "d": 729.1622916666674,
      "v": 98
    },
    {
      "midi": 64,
      "hit": false,
      "t": 212177.16895833466,
      "d": 738.2202083333395,
      "v": 99
    },
    {
      "midi": 48,
      "hit": false,
      "t": 212616.4779166673,
      "d": 1091.4789583333186,
      "v": 110
    },
    {
      "midi": 55,
      "hit": false,
      "t": 212824.8100000006,
      "d": 629.5252083333326,
      "v": 106
    },
    {
      "midi": 60,
      "hit": false,
      "t": 213037.6710416673,
      "d": 289.85333333333256,
      "v": 108
    },
    {
      "midi": 64,
      "hit": false,
      "t": 213037.6710416673,
      "d": 932.9654166666442,
      "v": 110
    },
    {
      "midi": 60,
      "hit": false,
      "t": 213037.67104166799,
      "d": 511.7722916666535,
      "v": 94
    },
    {
      "midi": 67,
      "hit": false,
      "t": 213037.67104166799,
      "d": 529.8881249999977,
      "v": 98
    },
    {
      "midi": 64,
      "hit": false,
      "t": 213037.67104166799,
      "d": 534.4170833333337,
      "v": 98
    },
    {
      "midi": 67,
      "hit": false,
      "t": 213046.72895833396,
      "d": 892.2047916666488,
      "v": 104
    },
    {
      "midi": 60,
      "hit": false,
      "t": 213463.3931250006,
      "d": 534.4170833333046,
      "v": 98
    },
    {
      "midi": 55,
      "hit": false,
      "t": 213680.78312500063,
      "d": 335.14291666663485,
      "v": 103
    },
    {
      "midi": 67,
      "hit": false,
      "t": 213689.841041668,
      "d": 384.9614583333314,
      "v": 98
    },
    {
      "midi": 71,
      "hit": false,
      "t": 213689.841041668,
      "d": 389.49041666666744,
      "v": 101
    },
    {
      "midi": 74,
      "hit": false,
      "t": 213689.841041668,
      "d": 412.1352083333477,
      "v": 99
    },
    {
      "midi": 43,
      "hit": false,
      "t": 213902.70208333395,
      "d": 312.4981249999837,
      "v": 104
    },
    {
      "midi": 60,
      "hit": false,
      "t": 214111.03416666726,
      "d": 335.14291666666395,
      "v": 110
    },
    {
      "midi": 55,
      "hit": false,
      "t": 214115.5631250006,
      "d": 294.3822916666686,
      "v": 108
    },
    {
      "midi": 62,
      "hit": false,
      "t": 214115.5631250006,
      "d": 321.5560416666558,
      "v": 108
    },
    {
      "midi": 43,
      "hit": false,
      "t": 214328.42416666728,
      "d": 294.3822916666686,
      "v": 103
    },
    {
      "midi": 48,
      "hit": false,
      "t": 214559.40104166727,
      "d": 403.0772916666756,
      "v": 110
    },
    {
      "midi": 55,
      "hit": false,
      "t": 214772.26208333395,
      "d": 724.6333333333314,
      "v": 108
    },
    {
      "midi": 60,
      "hit": false,
      "t": 214772.26208333395,
      "d": 729.1622916666674,
      "v": 111
    },
    {
      "midi": 74,
      "hit": false,
      "t": 214772.2620833347,
      "d": 656.6989583333198,
      "v": 99
    },
    {
      "midi": 79,
      "hit": false,
      "t": 214772.2620833347,
      "d": 656.6989583333198,
      "v": 96
    },
    {
      "midi": 71,
      "hit": false,
      "t": 214772.2620833347,
      "d": 665.7568749999919,
      "v": 98
    },
    {
      "midi": 62,
      "hit": false,
      "t": 214776.79104166728,
      "d": 733.6912500000035,
      "v": 108
    },
    {
      "midi": 48,
      "hit": false,
      "t": 215197.98416666727,
      "d": 317.02708333334886,
      "v": 103
    },
    {
      "midi": 43,
      "hit": false,
      "t": 215410.84520833395,
      "d": 271.73749999998836,
      "v": 110
    },
    {
      "midi": 55,
      "hit": false,
      "t": 215650.88000000062,
      "d": 489.1275000000023,
      "v": 106
    },
    {
      "midi": 67,
      "hit": false,
      "t": 215650.88000000062,
      "d": 570.648749999993,
      "v": 104
    },
    {
      "midi": 60,
      "hit": false,
      "t": 215650.88000000062,
      "d": 597.8224999999802,
      "v": 108
    },
    {
      "midi": 64,
      "hit": false,
      "t": 215650.88000000062,
      "d": 602.3514583333163,
      "v": 108
    },
    {
      "midi": 67,
      "hit": false,
      "t": 215655.4089583347,
      "d": 742.7491666666756,
      "v": 94
    },
    {
      "midi": 60,
      "hit": false,
      "t": 215655.4089583347,
      "d": 756.3360416666837,
      "v": 94
    },
    {
      "midi": 64,
      "hit": false,
      "t": 215655.4089583347,
      "d": 783.5097916667,
      "v": 98
    },
    {
      "midi": 48,
      "hit": false,
      "t": 215659.93791666804,
      "d": 760.8650000000198,
      "v": 94
    },
    {
      "midi": 48,
      "hit": false,
      "t": 216094.7179166673,
      "d": 1091.4789583333186,
      "v": 110
    },
    {
      "midi": 55,
      "hit": false,
      "t": 216303.0500000006,
      "d": 629.5252083333326,
      "v": 106
    },
    {
      "midi": 60,
      "hit": false,
      "t": 216515.91104166728,
      "d": 289.85333333333256,
      "v": 108
    },
    {
      "midi": 64,
      "hit": false,
      "t": 216515.91104166728,
      "d": 932.9654166666442,
      "v": 110
    },
    {
      "midi": 67,
      "hit": false,
      "t": 216524.96895833395,
      "d": 892.2047916666488,
      "v": 104
    },
    {
      "midi": 64,
      "hit": false,
      "t": 216538.55583333474,
      "d": 480.06958333335933,
      "v": 98
    },
    {
      "midi": 60,
      "hit": false,
      "t": 216543.08479166808,
      "d": 452.89583333334303,
      "v": 94
    },
    {
      "midi": 67,
      "hit": false,
      "t": 216543.08479166808,
      "d": 452.89583333334303,
      "v": 96
    },
    {
      "midi": 48,
      "hit": false,
      "t": 216547.61375000142,
      "d": 747.2781250000407,
      "v": 92
    },
    {
      "midi": 60,
      "hit": false,
      "t": 216941.6331250006,
      "d": 534.4170833333046,
      "v": 98
    },
    {
      "midi": 55,
      "hit": false,
      "t": 217159.02312500062,
      "d": 335.14291666663485,
      "v": 103
    },
    {
      "midi": 67,
      "hit": false,
      "t": 217177.13895833478,
      "d": 126.81083333335118,
      "v": 94
    },
    {
      "midi": 64,
      "hit": false,
      "t": 217177.13895833478,
      "d": 149.45562500003143,
      "v": 94
    },
    {
      "midi": 60,
      "hit": false,
      "t": 217181.6679166681,
      "d": 131.33979166668723,
      "v": 92
    },
    {
      "midi": 48,
      "hit": false,
      "t": 217385.47104166728,
      "d": 298.91124999997555,
      "v": 111
    },
    {
      "midi": 60,
      "hit": false,
      "t": 217394.52895833482,
      "d": 172.10041666665347,
      "v": 94
    },
    {
      "midi": 67,
      "hit": false,
      "t": 217394.52895833482,
      "d": 172.10041666665347,
      "v": 96
    },
    {
      "midi": 64,
      "hit": false,
      "t": 217394.52895833482,
      "d": 185.68729166666162,
      "v": 99
    },
    {
      "midi": 48,
      "hit": false,
      "t": 217394.52895833482,
      "d": 670.285833333357,
      "v": 91
    },
    {
      "midi": 55,
      "hit": false,
      "t": 217593.8031250006,
      "d": 294.3822916666686,
      "v": 103
    },
    {
      "midi": 60,
      "hit": false,
      "t": 217598.33208333392,
      "d": 403.0772916666756,
      "v": 106
    },
    {
      "midi": 64,
      "hit": false,
      "t": 217598.33208333392,
      "d": 489.1275000000023,
      "v": 106
    },
    {
      "midi": 67,
      "hit": false,
      "t": 217598.33208333392,
      "d": 502.7143750000105,
      "v": 104
    },
    {
      "midi": 67,
      "hit": false,
      "t": 217797.6062500015,
      "d": 792.5677083333721,
      "v": 94
    },
    {
      "midi": 64,
      "hit": false,
      "t": 217797.6062500015,
      "d": 815.2125000000524,
      "v": 98
    },
    {
      "midi": 60,
      "hit": false,
      "t": 217802.13520833483,
      "d": 797.0966666667082,
      "v": 96
    },
    {
      "midi": 48,
      "hit": false,
      "t": 217820.25104166724,
      "d": 1281.6952083333745,
      "v": 108
    },
    {
      "midi": 55,
      "hit": false,
      "t": 218033.11208333392,
      "d": 647.6410416666768,
      "v": 106
    },
    {
      "midi": 48,
      "hit": false,
      "t": 218232.38625000152,
      "d": 824.2704166666954,
      "v": 96
    },
    {
      "midi": 60,
      "hit": false,
      "t": 218250.50208333394,
      "d": 298.91125000000466,
      "v": 108
    },
    {
      "midi": 67,
      "hit": false,
      "t": 218250.50208333394,
      "d": 865.0310416666907,
      "v": 104
    },
    {
      "midi": 64,
      "hit": false,
      "t": 218250.50208333394,
      "d": 878.6179166666989,
      "v": 108
    },
    {
      "midi": 60,
      "hit": false,
      "t": 218671.6952083349,
      "d": 366.8456249999872,
      "v": 92
    },
    {
      "midi": 67,
      "hit": false,
      "t": 218671.6952083349,
      "d": 371.37458333332324,
      "v": 96
    },
    {
      "midi": 64,
      "hit": false,
      "t": 218671.6952083349,
      "d": 380.43249999999534,
      "v": 98
    },
    {
      "midi": 60,
      "hit": false,
      "t": 218680.7531250006,
      "d": 452.89583333337214,
      "v": 103
    },
    {
      "midi": 55,
      "hit": false,
      "t": 218893.61416666728,
      "d": 240.03479166669422,
      "v": 104
    },
    {
      "midi": 43,
      "hit": false,
      "t": 219129.12000000064,
      "d": 321.5560416666558,
      "v": 103
    },
    {
      "midi": 50,
      "hit": false,
      "t": 219129.12000000064,
      "d": 380.43249999999534,
      "v": 106
    },
    {
      "midi": 67,
      "hit": false,
      "t": 219129.12000000064,
      "d": 733.6912500000035,
      "v": 106
    },
    {
      "midi": 59,
      "hit": false,
      "t": 219129.12000000064,
      "d": 742.7491666666756,
      "v": 104
    },
    {
      "midi": 62,
      "hit": false,
      "t": 219129.12000000064,
      "d": 742.7491666666756,
      "v": 108
    },
    {
      "midi": 67,
      "hit": false,
      "t": 219129.12000000157,
      "d": 720.1043749999953,
      "v": 96
    },
    {
      "midi": 59,
      "hit": false,
      "t": 219129.12000000157,
      "d": 729.1622916666674,
      "v": 96
    },
    {
      "midi": 50,
      "hit": false,
      "t": 219129.12000000157,
      "d": 1154.8843750000233,
      "v": 91
    },
    {
      "midi": 62,
      "hit": false,
      "t": 219133.6489583349,
      "d": 729.1622916666674,
      "v": 98
    },
    {
      "midi": 43,
      "hit": false,
      "t": 219559.3710416673,
      "d": 711.0464583333232,
      "v": 103
    },
    {
      "midi": 50,
      "hit": false,
      "t": 219776.7610416673,
      "d": 493.6564583333093,
      "v": 110
    },
    {
      "midi": 67,
      "hit": false,
      "t": 219976.0352083349,
      "d": 489.12750000003143,
      "v": 96
    },
    {
      "midi": 59,
      "hit": false,
      "t": 219980.56416666825,
      "d": 502.7143750000396,
      "v": 94
    },
    {
      "midi": 62,
      "hit": false,
      "t": 219980.56416666825,
      "d": 502.7143750000396,
      "v": 99
    },
    {
      "midi": 59,
      "hit": false,
      "t": 219994.1510416673,
      "d": 946.5522916666523,
      "v": 106
    },
    {
      "midi": 67,
      "hit": false,
      "t": 219994.1510416673,
      "d": 946.5522916666523,
      "v": 110
    },
    {
      "midi": 62,
      "hit": false,
      "t": 219994.1510416673,
      "d": 955.6102083333244,
      "v": 108
    },
    {
      "midi": 50,
      "hit": false,
      "t": 220401.75729166827,
      "d": 1159.4133333333593,
      "v": 91
    },
    {
      "midi": 50,
      "hit": false,
      "t": 220419.87312500062,
      "d": 280.79541666666046,
      "v": 104
    },
    {
      "midi": 62,
      "hit": false,
      "t": 220628.20520833496,
      "d": 126.81083333335118,
      "v": 96
    },
    {
      "midi": 59,
      "hit": false,
      "t": 220628.20520833496,
      "d": 131.33979166668723,
      "v": 91
    },
    {
      "midi": 67,
      "hit": false,
      "t": 220632.7341666683,
      "d": 108.69500000000698,
      "v": 96
    },
    {
      "midi": 43,
      "hit": false,
      "t": 220641.79208333394,
      "d": 122.28187500001513,
      "v": 104
    },
    {
      "midi": 59,
      "hit": false,
      "t": 220841.06625000163,
      "d": 230.97687499999302,
      "v": 94
    },
    {
      "midi": 62,
      "hit": false,
      "t": 220841.06625000163,
      "d": 230.97687499999302,
      "v": 98
    },
    {
      "midi": 67,
      "hit": false,
      "t": 220845.59520833497,
      "d": 221.91895833332092,
      "v": 98
    },
    {
      "midi": 43,
      "hit": false,
      "t": 220863.7110416673,
      "d": 317.02708333331975,
      "v": 106
    },
    {
      "midi": 59,
      "hit": false,
      "t": 221081.10104166728,
      "d": 461.95375000001513,
      "v": 108
    },
    {
      "midi": 67,
      "hit": false,
      "t": 221081.10104166728,
      "d": 466.4827083333512,
      "v": 108
    },
    {
      "midi": 62,
      "hit": false,
      "t": 221081.10104166728,
      "d": 471.01166666668723,
      "v": 108
    },
    {
      "midi": 67,
      "hit": false,
      "t": 221271.3172916683,
      "d": 724.6333333333314,
      "v": 98
    },
    {
      "midi": 59,
      "hit": false,
      "t": 221271.3172916683,
      "d": 738.2202083333395,
      "v": 96
    },
    {
      "midi": 62,
      "hit": false,
      "t": 221271.3172916683,
      "d": 751.8070833333477,
      "v": 98
    },
    {
      "midi": 43,
      "hit": false,
      "t": 221289.43312500062,
      "d": 271.73750000001746,
      "v": 106
    },
    {
      "midi": 50,
      "hit": false,
      "t": 221506.82312500064,
      "d": 452.89583333334303,
      "v": 110
    },
    {
      "midi": 50,
      "hit": false,
      "t": 221706.0972916683,
      "d": 842.3862500000396,
      "v": 98
    },
    {
      "midi": 67,
      "hit": false,
      "t": 221719.6841666673,
      "d": 801.6256250000151,
      "v": 108
    },
    {
      "midi": 59,
      "hit": false,
      "t": 221724.21312500065,
      "d": 788.038750000007,
      "v": 108
    },
    {
      "midi": 62,
      "hit": false,
      "t": 221724.21312500065,
      "d": 788.038750000007,
      "v": 108
    },
    {
      "midi": 67,
      "hit": false,
      "t": 222136.348333335,
      "d": 394.0193750000035,
      "v": 98
    },
    {
      "midi": 59,
      "hit": false,
      "t": 222140.87729166832,
      "d": 366.8456249999872,
      "v": 96
    },
    {
      "midi": 62,
      "hit": false,
      "t": 222140.87729166832,
      "d": 380.43249999999534,
      "v": 99
    },
    {
      "midi": 50,
      "hit": false,
      "t": 222149.93520833398,
      "d": 249.0927083333372,
      "v": 104
    },
    {
      "midi": 43,
      "hit": false,
      "t": 222367.325208334,
      "d": 267.2085416666523,
      "v": 108
    },
    {
      "midi": 41,
      "hit": false,
      "t": 222607.36000000066,
      "d": 317.02708333331975,
      "v": 98
    },
    {
      "midi": 53,
      "hit": false,
      "t": 222607.36000000066,
      "d": 344.20083333330695,
      "v": 98
    },
    {
      "midi": 65,
      "hit": false,
      "t": 222607.36000000066,
      "d": 720.1043749999953,
      "v": 104
    },
    {
      "midi": 60,
      "hit": false,
      "t": 222607.36000000066,
      "d": 733.6912500000035,
      "v": 104
    },
    {
      "midi": 57,
      "hit": false,
      "t": 222607.36000000066,
      "d": 742.7491666666756,
      "v": 103
    },
    {
      "midi": 65,
      "hit": false,
      "t": 222611.888958335,
      "d": 738.2202083333395,
      "v": 94
    },
    {
      "midi": 57,
      "hit": false,
      "t": 222611.888958335,
      "d": 756.3360416666837,
      "v": 92
    },
    {
      "midi": 60,
      "hit": false,
      "t": 222611.888958335,
      "d": 769.9229166666919,
      "v": 94
    },
    {
      "midi": 41,
      "hit": false,
      "t": 223037.6110416673,
      "d": 720.1043750000536,
      "v": 104
    },
    {
      "midi": 53,
      "hit": false,
      "t": 223037.61104166834,
      "d": 720.1043750000244,
      "v": 96
    },
    {
      "midi": 53,
      "hit": false,
      "t": 223255.0010416673,
      "d": 493.6564583333675,
      "v": 104
    },
    {
      "midi": 57,
      "hit": false,
      "t": 223467.862083334,
      "d": 910.3206249999639,
      "v": 108
    },
    {
      "midi": 65,
      "hit": false,
      "t": 223467.862083334,
      "d": 910.3206249999639,
      "v": 106
    },
    {
      "midi": 60,
      "hit": false,
      "t": 223467.862083334,
      "d": 914.8495833333,
      "v": 108
    },
    {
      "midi": 57,
      "hit": false,
      "t": 223467.86208333503,
      "d": 566.1197916666861,
      "v": 91
    },
    {
      "midi": 60,
      "hit": false,
      "t": 223467.86208333503,
      "d": 575.1777083333582,
      "v": 94
    },
    {
      "midi": 65,
      "hit": false,
      "t": 223472.39104166836,
      "d": 543.4750000000058,
      "v": 94
    },
    {
      "midi": 53,
      "hit": false,
      "t": 223893.58416666734,
      "d": 317.02708333331975,
      "v": 93
    },
    {
      "midi": 53,
      "hit": false,
      "t": 223902.64208333503,
      "d": 1132.2395833333721,
      "v": 92
    },
    {
      "midi": 41,
      "hit": false,
      "t": 224120.032083334,
      "d": 126.81083333332208,
      "v": 106
    },
    {
      "midi": 65,
      "hit": false,
      "t": 224120.03208333504,
      "d": 126.81083333332208,
      "v": 84
    },
    {
      "midi": 60,
      "hit": false,
      "t": 224120.03208333504,
      "d": 149.45562500000233,
      "v": 87
    },
    {
      "midi": 57,
      "hit": false,
      "t": 224120.03208333504,
      "d": 153.98458333333838,
      "v": 81
    },
    {
      "midi": 57,
      "hit": false,
      "t": 224332.89312500172,
      "d": 199.27416666666977,
      "v": 91
    },
    {
      "midi": 60,
      "hit": false,
      "t": 224332.89312500172,
      "d": 208.33208333334187,
      "v": 96
    },
    {
      "midi": 41,
      "hit": false,
      "t": 224337.42208333398,
      "d": 294.3822916666686,
      "v": 108
    },
    {
      "midi": 65,
      "hit": false,
      "t": 224337.42208333506,
      "d": 199.27416666666977,
      "v": 96
    },
    {
      "midi": 65,
      "hit": false,
      "t": 224550.28312500066,
      "d": 511.7722916666535,
      "v": 108
    },
    {
      "midi": 57,
      "hit": false,
      "t": 224550.28312500066,
      "d": 529.8881249999977,
      "v": 108
    },
    {
      "midi": 60,
      "hit": false,
      "t": 224550.28312500066,
      "d": 529.8881249999977,
      "v": 108
    },
    {
      "midi": 65,
      "hit": false,
      "t": 224749.5572916684,
      "d": 824.2704166666663,
      "v": 92
    },
    {
      "midi": 57,
      "hit": false,
      "t": 224754.08625000174,
      "d": 810.6835416666581,
      "v": 92
    },
    {
      "midi": 60,
      "hit": false,
      "t": 224754.08625000174,
      "d": 824.2704166666663,
      "v": 94
    },
    {
      "midi": 41,
      "hit": false,
      "t": 224767.67312500064,
      "d": 652.1700000000128,
      "v": 101
    },
    {
      "midi": 53,
      "hit": false,
      "t": 224985.06312500066,
      "d": 475.5406249999942,
      "v": 104
    },
    {
      "midi": 53,
      "hit": false,
      "t": 225193.39520833507,
      "d": 783.5097916666709,
      "v": 92
    },
    {
      "midi": 60,
      "hit": false,
      "t": 225202.45312500064,
      "d": 865.0310416666616,
      "v": 108
    },
    {
      "midi": 65,
      "hit": false,
      "t": 225202.45312500064,
      "d": 865.0310416666616,
      "v": 108
    },
    {
      "midi": 57,
      "hit": false,
      "t": 225202.45312500064,
      "d": 869.5599999999977,
      "v": 108
    },
    {
      "midi": 53,
      "hit": false,
      "t": 225623.64625000066,
      "d": 475.5406249999942,
      "v": 101
    },
    {
      "midi": 57,
      "hit": false,
      "t": 225628.17520833507,
      "d": 335.14291666666395,
      "v": 91
    },
    {
      "midi": 65,
      "hit": false,
      "t": 225628.17520833507,
      "d": 344.20083333333605,
      "v": 96
    },
    {
      "midi": 60,
      "hit": false,
      "t": 225628.17520833507,
      "d": 348.7297916666721,
      "v": 98
    },
    {
      "midi": 41,
      "hit": false,
      "t": 225845.56520833398,
      "d": 276.2664583333535,
      "v": 106
    },
    {
      "midi": 55,
      "hit": false,
      "t": 226085.60000000065,
      "d": 489.12750000003143,
      "v": 106
    },
    {
      "midi": 67,
      "hit": false,
      "t": 226085.60000000065,
      "d": 570.6487500000221,
      "v": 104
    },
    {
      "midi": 60,
      "hit": false,
      "t": 226085.60000000065,
      "d": 597.8225000000093,
      "v": 108
    },
    {
      "midi": 64,
      "hit": false,
      "t": 226085.60000000065,
      "d": 602.3514583333454,
      "v": 108
    },
    {
      "midi": 60,
      "hit": false,
      "t": 226090.1289583351,
      "d": 720.1043749999953,
      "v": 116
    },
    {
      "midi": 67,
      "hit": false,
      "t": 226090.1289583351,
      "d": 729.1622916666674,
      "v": 118
    },
    {
      "midi": 64,
      "hit": false,
      "t": 226090.1289583351,
      "d": 738.2202083333395,
      "v": 119
    },
    {
      "midi": 48,
      "hit": false,
      "t": 226529.43791666735,
      "d": 1091.4789583333186,
      "v": 110
    },
    {
      "midi": 55,
      "hit": false,
      "t": 226737.77000000066,
      "d": 629.5252083333326,
      "v": 106
    },
    {
      "midi": 60,
      "hit": false,
      "t": 226950.63104166734,
      "d": 289.85333333333256,
      "v": 108
    },
    {
      "midi": 64,
      "hit": false,
      "t": 226950.63104166734,
      "d": 932.9654166666442,
      "v": 110
    },
    {
      "midi": 60,
      "hit": false,
      "t": 226950.6310416684,
      "d": 511.7722916666535,
      "v": 114
    },
    {
      "midi": 67,
      "hit": false,
      "t": 226950.6310416684,
      "d": 529.8881249999977,
      "v": 118
    },
    {
      "midi": 64,
      "hit": false,
      "t": 226950.6310416684,
      "d": 534.4170833333337,
      "v": 118
    },
    {
      "midi": 67,
      "hit": false,
      "t": 226959.688958334,
      "d": 892.2047916666488,
      "v": 104
    },
    {
      "midi": 60,
      "hit": false,
      "t": 227376.35312500066,
      "d": 534.4170833333046,
      "v": 98
    },
    {
      "midi": 55,
      "hit": false,
      "t": 227593.74312500068,
      "d": 335.14291666663485,
      "v": 103
    },
    {
      "midi": 67,
      "hit": false,
      "t": 227602.80104166843,
      "d": 384.9614583333314,
      "v": 118
    },
    {
      "midi": 71,
      "hit": false,
      "t": 227602.80104166843,
      "d": 389.49041666666744,
      "v": 121
    },
    {
      "midi": 74,
      "hit": false,
      "t": 227602.80104166843,
      "d": 412.1352083333477,
      "v": 119
    },
    {
      "midi": 43,
      "hit": false,
      "t": 227815.662083334,
      "d": 312.4981249999837,
      "v": 104
    },
    {
      "midi": 60,
      "hit": false,
      "t": 228023.9941666673,
      "d": 335.14291666666395,
      "v": 110
    },
    {
      "midi": 55,
      "hit": false,
      "t": 228028.52312500065,
      "d": 294.3822916666686,
      "v": 108
    },
    {
      "midi": 62,
      "hit": false,
      "t": 228028.52312500065,
      "d": 321.5560416666558,
      "v": 108
    },
    {
      "midi": 43,
      "hit": false,
      "t": 228241.38416666733,
      "d": 294.3822916666686,
      "v": 103
    },
    {
      "midi": 48,
      "hit": false,
      "t": 228472.36104166732,
      "d": 403.0772916666756,
      "v": 110
    },
    {
      "midi": 55,
      "hit": false,
      "t": 228685.222083334,
      "d": 724.6333333333314,
      "v": 108
    },
    {
      "midi": 60,
      "hit": false,
      "t": 228685.222083334,
      "d": 729.1622916666674,
      "v": 111
    },
    {
      "midi": 74,
      "hit": false,
      "t": 228685.22208333513,
      "d": 656.6989583333198,
      "v": 119
    },
    {
      "midi": 79,
      "hit": false,
      "t": 228685.22208333513,
      "d": 656.6989583333198,
      "v": 116
    },
    {
      "midi": 71,
      "hit": false,
      "t": 228685.22208333513,
      "d": 665.7568749999919,
      "v": 118
    },
    {
      "midi": 62,
      "hit": false,
      "t": 228689.75104166733,
      "d": 733.6912500000035,
      "v": 108
    },
    {
      "midi": 48,
      "hit": false,
      "t": 229110.94416666732,
      "d": 317.02708333334886,
      "v": 103
    },
    {
      "midi": 43,
      "hit": false,
      "t": 229323.805208334,
      "d": 271.73749999998836,
      "v": 110
    },
    {
      "midi": 55,
      "hit": false,
      "t": 229563.84000000067,
      "d": 489.1275000000023,
      "v": 106
    },
    {
      "midi": 67,
      "hit": false,
      "t": 229563.84000000067,
      "d": 570.648749999993,
      "v": 104
    },
    {
      "midi": 60,
      "hit": false,
      "t": 229563.84000000067,
      "d": 597.8224999999802,
      "v": 108
    },
    {
      "midi": 64,
      "hit": false,
      "t": 229563.84000000067,
      "d": 602.3514583333163,
      "v": 108
    },
    {
      "midi": 67,
      "hit": false,
      "t": 229568.36895833514,
      "d": 742.7491666666756,
      "v": 94
    },
    {
      "midi": 60,
      "hit": false,
      "t": 229568.36895833514,
      "d": 756.3360416666837,
      "v": 94
    },
    {
      "midi": 64,
      "hit": false,
      "t": 229568.36895833514,
      "d": 783.5097916667,
      "v": 98
    },
    {
      "midi": 48,
      "hit": false,
      "t": 229572.89791666847,
      "d": 760.8650000000198,
      "v": 94
    },
    {
      "midi": 48,
      "hit": false,
      "t": 230007.67791666734,
      "d": 1091.4789583333186,
      "v": 110
    },
    {
      "midi": 55,
      "hit": false,
      "t": 230216.01000000065,
      "d": 629.5252083333326,
      "v": 106
    },
    {
      "midi": 60,
      "hit": false,
      "t": 230428.87104166733,
      "d": 289.85333333333256,
      "v": 108
    },
    {
      "midi": 64,
      "hit": false,
      "t": 230428.87104166733,
      "d": 932.9654166666442,
      "v": 110
    },
    {
      "midi": 67,
      "hit": false,
      "t": 230437.928958334,
      "d": 892.2047916666488,
      "v": 104
    },
    {
      "midi": 64,
      "hit": false,
      "t": 230451.51583333517,
      "d": 480.06958333335933,
      "v": 98
    },
    {
      "midi": 60,
      "hit": false,
      "t": 230456.0447916685,
      "d": 452.89583333334303,
      "v": 94
    },
    {
      "midi": 67,
      "hit": false,
      "t": 230456.0447916685,
      "d": 452.89583333334303,
      "v": 96
    },
    {
      "midi": 48,
      "hit": false,
      "t": 230460.57375000184,
      "d": 747.2781250000407,
      "v": 92
    },
    {
      "midi": 60,
      "hit": false,
      "t": 230854.59312500065,
      "d": 534.4170833333046,
      "v": 98
    },
    {
      "midi": 55,
      "hit": false,
      "t": 231071.98312500067,
      "d": 335.14291666663485,
      "v": 103
    },
    {
      "midi": 67,
      "hit": false,
      "t": 231090.0989583352,
      "d": 126.81083333335118,
      "v": 94
    },
    {
      "midi": 64,
      "hit": false,
      "t": 231090.0989583352,
      "d": 149.45562500003143,
      "v": 94
    },
    {
      "midi": 60,
      "hit": false,
      "t": 231094.62791666854,
      "d": 131.33979166668723,
      "v": 92
    },
    {
      "midi": 48,
      "hit": false,
      "t": 231298.43104166733,
      "d": 298.91124999997555,
      "v": 111
    },
    {
      "midi": 60,
      "hit": false,
      "t": 231307.48895833525,
      "d": 172.10041666665347,
      "v": 94
    },
    {
      "midi": 67,
      "hit": false,
      "t": 231307.48895833525,
      "d": 172.10041666665347,
      "v": 96
    },
    {
      "midi": 64,
      "hit": false,
      "t": 231307.48895833525,
      "d": 185.68729166666162,
      "v": 99
    },
    {
      "midi": 55,
      "hit": false,
      "t": 231506.76312500064,
      "d": 294.3822916666686,
      "v": 103
    },
    {
      "midi": 60,
      "hit": false,
      "t": 231511.29208333397,
      "d": 403.0772916666756,
      "v": 106
    },
    {
      "midi": 64,
      "hit": false,
      "t": 231511.29208333397,
      "d": 489.1275000000023,
      "v": 106
    },
    {
      "midi": 67,
      "hit": false,
      "t": 231511.29208333397,
      "d": 502.7143750000105,
      "v": 104
    },
    {
      "midi": 67,
      "hit": false,
      "t": 231710.56625000192,
      "d": 792.567708333343,
      "v": 94
    },
    {
      "midi": 64,
      "hit": false,
      "t": 231710.56625000192,
      "d": 815.2125000000233,
      "v": 98
    },
    {
      "midi": 60,
      "hit": false,
      "t": 231715.09520833526,
      "d": 797.0966666666791,
      "v": 96
    },
    {
      "midi": 48,
      "hit": false,
      "t": 231733.2110416673,
      "d": 1281.6952083333745,
      "v": 108
    },
    {
      "midi": 55,
      "hit": false,
      "t": 231946.07208333397,
      "d": 647.6410416666768,
      "v": 106
    },
    {
      "midi": 48,
      "hit": false,
      "t": 232145.34625000192,
      "d": 824.2704166666954,
      "v": 96
    },
    {
      "midi": 60,
      "hit": false,
      "t": 232163.462083334,
      "d": 298.91125000000466,
      "v": 108
    },
    {
      "midi": 67,
      "hit": false,
      "t": 232163.462083334,
      "d": 865.0310416666907,
      "v": 104
    },
    {
      "midi": 64,
      "hit": false,
      "t": 232163.462083334,
      "d": 878.6179166666989,
      "v": 108
    },
    {
      "midi": 60,
      "hit": false,
      "t": 232584.6552083353,
      "d": 366.8456249999872,
      "v": 92
    },
    {
      "midi": 67,
      "hit": false,
      "t": 232584.6552083353,
      "d": 371.37458333332324,
      "v": 96
    },
    {
      "midi": 64,
      "hit": false,
      "t": 232584.6552083353,
      "d": 380.43249999999534,
      "v": 98
    },
    {
      "midi": 60,
      "hit": false,
      "t": 232593.71312500065,
      "d": 452.89583333337214,
      "v": 103
    },
    {
      "midi": 55,
      "hit": false,
      "t": 232806.57416666733,
      "d": 240.03479166669422,
      "v": 104
    },
    {
      "midi": 43,
      "hit": false,
      "t": 233042.0800000007,
      "d": 321.5560416666558,
      "v": 103
    },
    {
      "midi": 50,
      "hit": false,
      "t": 233042.0800000007,
      "d": 380.43249999999534,
      "v": 106
    },
    {
      "midi": 67,
      "hit": false,
      "t": 233042.0800000007,
      "d": 733.6912500000035,
      "v": 106
    },
    {
      "midi": 59,
      "hit": false,
      "t": 233042.0800000007,
      "d": 742.7491666666756,
      "v": 104
    },
    {
      "midi": 62,
      "hit": false,
      "t": 233042.0800000007,
      "d": 742.7491666666756,
      "v": 108
    },
    {
      "midi": 67,
      "hit": false,
      "t": 233042.08000000197,
      "d": 720.1043749999953,
      "v": 96
    },
    {
      "midi": 59,
      "hit": false,
      "t": 233042.08000000197,
      "d": 729.1622916666674,
      "v": 96
    },
    {
      "midi": 50,
      "hit": false,
      "t": 233042.08000000197,
      "d": 1154.8843750000233,
      "v": 91
    },
    {
      "midi": 62,
      "hit": false,
      "t": 233046.6089583353,
      "d": 729.1622916666674,
      "v": 98
    },
    {
      "midi": 43,
      "hit": false,
      "t": 233472.33104166735,
      "d": 711.0464583333232,
      "v": 103
    },
    {
      "midi": 50,
      "hit": false,
      "t": 233689.72104166736,
      "d": 493.6564583333093,
      "v": 110
    },
    {
      "midi": 67,
      "hit": false,
      "t": 233888.9952083353,
      "d": 489.12750000003143,
      "v": 96
    },
    {
      "midi": 59,
      "hit": false,
      "t": 233893.52416666865,
      "d": 502.7143750000396,
      "v": 94
    },
    {
      "midi": 62,
      "hit": false,
      "t": 233893.52416666865,
      "d": 502.7143750000396,
      "v": 99
    },
    {
      "midi": 59,
      "hit": false,
      "t": 233907.11104166735,
      "d": 946.5522916666523,
      "v": 106
    },
    {
      "midi": 67,
      "hit": false,
      "t": 233907.11104166735,
      "d": 946.5522916666523,
      "v": 110
    },
    {
      "midi": 62,
      "hit": false,
      "t": 233907.11104166735,
      "d": 955.6102083333244,
      "v": 108
    },
    {
      "midi": 50,
      "hit": false,
      "t": 234314.71729166867,
      "d": 1159.4133333333593,
      "v": 91
    },
    {
      "midi": 50,
      "hit": false,
      "t": 234332.83312500067,
      "d": 280.79541666666046,
      "v": 104
    },
    {
      "midi": 62,
      "hit": false,
      "t": 234541.16520833535,
      "d": 126.81083333335118,
      "v": 96
    },
    {
      "midi": 59,
      "hit": false,
      "t": 234541.16520833535,
      "d": 131.33979166668723,
      "v": 91
    },
    {
      "midi": 67,
      "hit": false,
      "t": 234545.6941666687,
      "d": 108.69500000000698,
      "v": 96
    },
    {
      "midi": 43,
      "hit": false,
      "t": 234554.752083334,
      "d": 122.28187500001513,
      "v": 104
    },
    {
      "midi": 59,
      "hit": false,
      "t": 234754.02625000203,
      "d": 230.97687499999302,
      "v": 94
    },
    {
      "midi": 62,
      "hit": false,
      "t": 234754.02625000203,
      "d": 230.97687499999302,
      "v": 98
    },
    {
      "midi": 67,
      "hit": false,
      "t": 234758.55520833537,
      "d": 221.91895833332092,
      "v": 98
    },
    {
      "midi": 43,
      "hit": false,
      "t": 234776.67104166734,
      "d": 317.02708333331975,
      "v": 106
    },
    {
      "midi": 59,
      "hit": false,
      "t": 234994.06104166733,
      "d": 461.95375000001513,
      "v": 108
    },
    {
      "midi": 67,
      "hit": false,
      "t": 234994.06104166733,
      "d": 466.4827083333512,
      "v": 108
    },
    {
      "midi": 62,
      "hit": false,
      "t": 234994.06104166733,
      "d": 471.01166666668723,
      "v": 108
    },
    {
      "midi": 67,
      "hit": false,
      "t": 235184.2772916687,
      "d": 724.6333333333314,
      "v": 98
    },
    {
      "midi": 59,
      "hit": false,
      "t": 235184.2772916687,
      "d": 738.2202083333395,
      "v": 96
    },
    {
      "midi": 62,
      "hit": false,
      "t": 235184.2772916687,
      "d": 751.8070833333477,
      "v": 98
    },
    {
      "midi": 43,
      "hit": false,
      "t": 235202.39312500067,
      "d": 271.73750000001746,
      "v": 106
    },
    {
      "midi": 50,
      "hit": false,
      "t": 235419.7831250007,
      "d": 452.89583333334303,
      "v": 110
    },
    {
      "midi": 50,
      "hit": false,
      "t": 235619.0572916687,
      "d": 842.3862500000396,
      "v": 98
    },
    {
      "midi": 67,
      "hit": false,
      "t": 235632.64416666736,
      "d": 801.6256250000151,
      "v": 108
    },
    {
      "midi": 59,
      "hit": false,
      "t": 235637.1731250007,
      "d": 788.038750000007,
      "v": 108
    },
    {
      "midi": 62,
      "hit": false,
      "t": 235637.1731250007,
      "d": 788.038750000007,
      "v": 108
    },
    {
      "midi": 67,
      "hit": false,
      "t": 236049.3083333354,
      "d": 394.0193750000035,
      "v": 98
    },
    {
      "midi": 59,
      "hit": false,
      "t": 236053.83729166872,
      "d": 366.8456249999872,
      "v": 96
    },
    {
      "midi": 62,
      "hit": false,
      "t": 236053.83729166872,
      "d": 380.43249999999534,
      "v": 99
    },
    {
      "midi": 50,
      "hit": false,
      "t": 236062.89520833403,
      "d": 249.0927083333372,
      "v": 104
    },
    {
      "midi": 43,
      "hit": false,
      "t": 236280.28520833404,
      "d": 267.2085416666523,
      "v": 108
    },
    {
      "midi": 41,
      "hit": false,
      "t": 236520.3200000007,
      "d": 317.02708333331975,
      "v": 98
    },
    {
      "midi": 53,
      "hit": false,
      "t": 236520.3200000007,
      "d": 344.20083333330695,
      "v": 98
    },
    {
      "midi": 65,
      "hit": false,
      "t": 236520.3200000007,
      "d": 720.1043749999953,
      "v": 104
    },
    {
      "midi": 60,
      "hit": false,
      "t": 236520.3200000007,
      "d": 733.6912500000035,
      "v": 104
    },
    {
      "midi": 57,
      "hit": false,
      "t": 236520.3200000007,
      "d": 742.7491666666756,
      "v": 103
    },
    {
      "midi": 65,
      "hit": false,
      "t": 236524.8489583354,
      "d": 738.2202083333395,
      "v": 94
    },
    {
      "midi": 57,
      "hit": false,
      "t": 236524.8489583354,
      "d": 756.3360416666837,
      "v": 92
    },
    {
      "midi": 60,
      "hit": false,
      "t": 236524.8489583354,
      "d": 769.9229166666919,
      "v": 94
    },
    {
      "midi": 41,
      "hit": false,
      "t": 236950.57104166734,
      "d": 720.1043750000536,
      "v": 104
    },
    {
      "midi": 53,
      "hit": false,
      "t": 236950.57104166874,
      "d": 720.1043750000244,
      "v": 96
    },
    {
      "midi": 53,
      "hit": false,
      "t": 237167.96104166735,
      "d": 493.6564583333675,
      "v": 104
    },
    {
      "midi": 57,
      "hit": false,
      "t": 237380.82208333406,
      "d": 910.3206249999639,
      "v": 108
    },
    {
      "midi": 65,
      "hit": false,
      "t": 237380.82208333406,
      "d": 910.3206249999639,
      "v": 106
    },
    {
      "midi": 60,
      "hit": false,
      "t": 237380.82208333406,
      "d": 914.8495833333,
      "v": 108
    },
    {
      "midi": 57,
      "hit": false,
      "t": 237380.82208333543,
      "d": 566.1197916666861,
      "v": 91
    },
    {
      "midi": 60,
      "hit": false,
      "t": 237380.82208333543,
      "d": 575.1777083333582,
      "v": 94
    },
    {
      "midi": 65,
      "hit": false,
      "t": 237385.35104166876,
      "d": 543.4750000000058,
      "v": 94
    },
    {
      "midi": 53,
      "hit": false,
      "t": 237806.5441666674,
      "d": 317.02708333331975,
      "v": 93
    },
    {
      "midi": 53,
      "hit": false,
      "t": 237815.60208333543,
      "d": 1132.2395833333721,
      "v": 92
    },
    {
      "midi": 41,
      "hit": false,
      "t": 238032.99208333404,
      "d": 126.81083333332208,
      "v": 106
    },
    {
      "midi": 65,
      "hit": false,
      "t": 238032.99208333544,
      "d": 126.81083333332208,
      "v": 84
    },
    {
      "midi": 60,
      "hit": false,
      "t": 238032.99208333544,
      "d": 149.45562500000233,
      "v": 87
    },
    {
      "midi": 57,
      "hit": false,
      "t": 238032.99208333544,
      "d": 153.98458333333838,
      "v": 81
    },
    {
      "midi": 57,
      "hit": false,
      "t": 238245.85312500212,
      "d": 199.27416666666977,
      "v": 91
    },
    {
      "midi": 60,
      "hit": false,
      "t": 238245.85312500212,
      "d": 208.33208333334187,
      "v": 96
    },
    {
      "midi": 41,
      "hit": false,
      "t": 238250.38208333403,
      "d": 294.3822916666686,
      "v": 108
    },
    {
      "midi": 65,
      "hit": false,
      "t": 238250.38208333545,
      "d": 199.27416666666977,
      "v": 96
    },
    {
      "midi": 65,
      "hit": false,
      "t": 238463.2431250007,
      "d": 511.7722916666535,
      "v": 108
    },
    {
      "midi": 57,
      "hit": false,
      "t": 238463.2431250007,
      "d": 529.8881249999977,
      "v": 108
    },
    {
      "midi": 60,
      "hit": false,
      "t": 238463.2431250007,
      "d": 529.8881249999977,
      "v": 108
    },
    {
      "midi": 65,
      "hit": false,
      "t": 238662.5172916688,
      "d": 824.2704166666663,
      "v": 92
    },
    {
      "midi": 57,
      "hit": false,
      "t": 238667.04625000214,
      "d": 810.6835416666581,
      "v": 92
    },
    {
      "midi": 60,
      "hit": false,
      "t": 238667.04625000214,
      "d": 824.2704166666663,
      "v": 94
    },
    {
      "midi": 41,
      "hit": false,
      "t": 238680.6331250007,
      "d": 652.1700000000128,
      "v": 101
    },
    {
      "midi": 53,
      "hit": false,
      "t": 238898.0231250007,
      "d": 475.5406249999942,
      "v": 104
    },
    {
      "midi": 53,
      "hit": false,
      "t": 239106.35520833547,
      "d": 783.5097916666709,
      "v": 92
    },
    {
      "midi": 60,
      "hit": false,
      "t": 239115.4131250007,
      "d": 865.0310416666616,
      "v": 108
    },
    {
      "midi": 65,
      "hit": false,
      "t": 239115.4131250007,
      "d": 865.0310416666616,
      "v": 108
    },
    {
      "midi": 57,
      "hit": false,
      "t": 239115.4131250007,
      "d": 869.5599999999977,
      "v": 108
    },
    {
      "midi": 53,
      "hit": false,
      "t": 239536.6062500007,
      "d": 475.5406249999942,
      "v": 101
    },
    {
      "midi": 57,
      "hit": false,
      "t": 239541.13520833547,
      "d": 335.14291666666395,
      "v": 91
    },
    {
      "midi": 65,
      "hit": false,
      "t": 239541.13520833547,
      "d": 344.20083333333605,
      "v": 96
    },
    {
      "midi": 60,
      "hit": false,
      "t": 239541.13520833547,
      "d": 348.7297916666721,
      "v": 98
    },
    {
      "midi": 41,
      "hit": false,
      "t": 239758.52520833403,
      "d": 276.2664583333535,
      "v": 106
    },
    {
      "midi": 55,
      "hit": false,
      "t": 239998.5600000007,
      "d": 489.12750000003143,
      "v": 106
    },
    {
      "midi": 67,
      "hit": false,
      "t": 239998.5600000007,
      "d": 570.6487500000221,
      "v": 104
    },
    {
      "midi": 60,
      "hit": false,
      "t": 239998.5600000007,
      "d": 597.8225000000093,
      "v": 108
    },
    {
      "midi": 64,
      "hit": false,
      "t": 239998.5600000007,
      "d": 602.3514583333454,
      "v": 108
    },
    {
      "midi": 60,
      "hit": false,
      "t": 240003.0889583355,
      "d": 720.1043749999953,
      "v": 96
    },
    {
      "midi": 67,
      "hit": false,
      "t": 240003.0889583355,
      "d": 729.1622916666674,
      "v": 98
    },
    {
      "midi": 64,
      "hit": false,
      "t": 240003.0889583355,
      "d": 738.2202083333395,
      "v": 99
    },
    {
      "midi": 48,
      "hit": false,
      "t": 240442.3979166674,
      "d": 1091.4789583333186,
      "v": 110
    },
    {
      "midi": 55,
      "hit": false,
      "t": 240650.7300000007,
      "d": 629.5252083333326,
      "v": 106
    },
    {
      "midi": 60,
      "hit": false,
      "t": 240863.5910416674,
      "d": 289.85333333333256,
      "v": 108
    },
    {
      "midi": 64,
      "hit": false,
      "t": 240863.5910416674,
      "d": 932.9654166666442,
      "v": 110
    },
    {
      "midi": 60,
      "hit": false,
      "t": 240863.5910416688,
      "d": 511.7722916666535,
      "v": 94
    },
    {
      "midi": 67,
      "hit": false,
      "t": 240863.5910416688,
      "d": 529.8881249999977,
      "v": 98
    },
    {
      "midi": 64,
      "hit": false,
      "t": 240863.5910416688,
      "d": 534.4170833333337,
      "v": 98
    },
    {
      "midi": 67,
      "hit": false,
      "t": 240872.64895833406,
      "d": 892.2047916666488,
      "v": 104
    },
    {
      "midi": 60,
      "hit": false,
      "t": 241289.3131250007,
      "d": 534.4170833333046,
      "v": 98
    },
    {
      "midi": 55,
      "hit": false,
      "t": 241506.70312500073,
      "d": 335.14291666663485,
      "v": 103
    },
    {
      "midi": 67,
      "hit": false,
      "t": 241515.76104166883,
      "d": 384.9614583333314,
      "v": 98
    },
    {
      "midi": 71,
      "hit": false,
      "t": 241515.76104166883,
      "d": 389.49041666666744,
      "v": 101
    },
    {
      "midi": 74,
      "hit": false,
      "t": 241515.76104166883,
      "d": 412.1352083333477,
      "v": 99
    },
    {
      "midi": 43,
      "hit": false,
      "t": 241728.62208333405,
      "d": 312.4981249999837,
      "v": 104
    },
    {
      "midi": 60,
      "hit": false,
      "t": 241936.95416666736,
      "d": 335.14291666666395,
      "v": 110
    },
    {
      "midi": 55,
      "hit": false,
      "t": 241941.4831250007,
      "d": 294.3822916666686,
      "v": 108
    },
    {
      "midi": 62,
      "hit": false,
      "t": 241941.4831250007,
      "d": 321.5560416666558,
      "v": 108
    },
    {
      "midi": 43,
      "hit": false,
      "t": 242154.34416666738,
      "d": 294.3822916666686,
      "v": 103
    },
    {
      "midi": 48,
      "hit": false,
      "t": 242385.32104166737,
      "d": 403.0772916666756,
      "v": 110
    },
    {
      "midi": 55,
      "hit": false,
      "t": 242598.18208333405,
      "d": 724.6333333333314,
      "v": 108
    },
    {
      "midi": 60,
      "hit": false,
      "t": 242598.18208333405,
      "d": 729.1622916666674,
      "v": 111
    },
    {
      "midi": 74,
      "hit": false,
      "t": 242598.18208333553,
      "d": 656.6989583333198,
      "v": 99
    },
    {
      "midi": 79,
      "hit": false,
      "t": 242598.18208333553,
      "d": 656.6989583333198,
      "v": 96
    },
    {
      "midi": 71,
      "hit": false,
      "t": 242598.18208333553,
      "d": 665.7568749999919,
      "v": 98
    },
    {
      "midi": 62,
      "hit": false,
      "t": 242602.71104166738,
      "d": 733.6912500000035,
      "v": 108
    },
    {
      "midi": 48,
      "hit": false,
      "t": 243023.90416666737,
      "d": 317.02708333334886,
      "v": 103
    },
    {
      "midi": 43,
      "hit": false,
      "t": 243236.76520833405,
      "d": 271.73749999998836,
      "v": 110
    },
    {
      "midi": 55,
      "hit": false,
      "t": 243476.80000000072,
      "d": 489.1275000000023,
      "v": 106
    },
    {
      "midi": 67,
      "hit": false,
      "t": 243476.80000000072,
      "d": 570.648749999993,
      "v": 104
    },
    {
      "midi": 60,
      "hit": false,
      "t": 243476.80000000072,
      "d": 597.8224999999802,
      "v": 108
    },
    {
      "midi": 64,
      "hit": false,
      "t": 243476.80000000072,
      "d": 602.3514583333163,
      "v": 108
    },
    {
      "midi": 67,
      "hit": false,
      "t": 243481.32895833554,
      "d": 742.7491666666756,
      "v": 94
    },
    {
      "midi": 60,
      "hit": false,
      "t": 243481.32895833554,
      "d": 756.3360416666837,
      "v": 94
    },
    {
      "midi": 64,
      "hit": false,
      "t": 243481.32895833554,
      "d": 783.5097916667,
      "v": 98
    },
    {
      "midi": 48,
      "hit": false,
      "t": 243485.85791666887,
      "d": 760.8650000000198,
      "v": 94
    },
    {
      "midi": 48,
      "hit": false,
      "t": 243920.6379166674,
      "d": 1091.4789583333186,
      "v": 110
    },
    {
      "midi": 55,
      "hit": false,
      "t": 244128.9700000007,
      "d": 629.5252083333326,
      "v": 106
    },
    {
      "midi": 60,
      "hit": false,
      "t": 244341.83104166738,
      "d": 289.85333333333256,
      "v": 108
    },
    {
      "midi": 64,
      "hit": false,
      "t": 244341.83104166738,
      "d": 932.9654166666442,
      "v": 110
    },
    {
      "midi": 67,
      "hit": false,
      "t": 244350.88895833405,
      "d": 892.2047916666488,
      "v": 104
    },
    {
      "midi": 64,
      "hit": false,
      "t": 244364.47583333557,
      "d": 480.06958333335933,
      "v": 98
    },
    {
      "midi": 60,
      "hit": false,
      "t": 244369.0047916689,
      "d": 452.89583333334303,
      "v": 94
    },
    {
      "midi": 67,
      "hit": false,
      "t": 244369.0047916689,
      "d": 452.89583333334303,
      "v": 96
    },
    {
      "midi": 48,
      "hit": false,
      "t": 244373.53375000224,
      "d": 747.2781250000407,
      "v": 92
    },
    {
      "midi": 60,
      "hit": false,
      "t": 244767.5531250007,
      "d": 534.4170833333046,
      "v": 98
    },
    {
      "midi": 55,
      "hit": false,
      "t": 244984.94312500072,
      "d": 335.14291666663485,
      "v": 103
    },
    {
      "midi": 67,
      "hit": false,
      "t": 245003.0589583356,
      "d": 126.81083333335118,
      "v": 94
    },
    {
      "midi": 64,
      "hit": false,
      "t": 245003.0589583356,
      "d": 149.45562500003143,
      "v": 94
    },
    {
      "midi": 60,
      "hit": false,
      "t": 245007.58791666894,
      "d": 131.33979166668723,
      "v": 92
    },
    {
      "midi": 48,
      "hit": false,
      "t": 245211.39104166738,
      "d": 298.91124999997555,
      "v": 111
    },
    {
      "midi": 60,
      "hit": false,
      "t": 245220.44895833565,
      "d": 172.10041666665347,
      "v": 94
    },
    {
      "midi": 67,
      "hit": false,
      "t": 245220.44895833565,
      "d": 172.10041666665347,
      "v": 96
    },
    {
      "midi": 64,
      "hit": false,
      "t": 245220.44895833565,
      "d": 185.68729166666162,
      "v": 99
    },
    {
      "midi": 48,
      "hit": false,
      "t": 245220.44895833565,
      "d": 670.2858333333279,
      "v": 91
    },
    {
      "midi": 55,
      "hit": false,
      "t": 245419.7231250007,
      "d": 294.3822916666686,
      "v": 103
    },
    {
      "midi": 60,
      "hit": false,
      "t": 245424.25208333402,
      "d": 403.0772916666756,
      "v": 106
    },
    {
      "midi": 64,
      "hit": false,
      "t": 245424.25208333402,
      "d": 489.1275000000023,
      "v": 106
    },
    {
      "midi": 67,
      "hit": false,
      "t": 245424.25208333402,
      "d": 502.7143750000105,
      "v": 104
    },
    {
      "midi": 67,
      "hit": false,
      "t": 245623.52625000232,
      "d": 792.5677083333139,
      "v": 94
    },
    {
      "midi": 64,
      "hit": false,
      "t": 245623.52625000232,
      "d": 815.2124999999942,
      "v": 98
    },
    {
      "midi": 60,
      "hit": false,
      "t": 245628.05520833566,
      "d": 797.09666666665,
      "v": 96
    },
    {
      "midi": 48,
      "hit": false,
      "t": 245646.17104166734,
      "d": 1281.6952083333745,
      "v": 108
    },
    {
      "midi": 55,
      "hit": false,
      "t": 245859.03208333402,
      "d": 647.6410416667059,
      "v": 106
    },
    {
      "midi": 48,
      "hit": false,
      "t": 246058.3062500023,
      "d": 824.2704166667245,
      "v": 96
    },
    {
      "midi": 60,
      "hit": false,
      "t": 246076.42208333404,
      "d": 298.91125000000466,
      "v": 108
    },
    {
      "midi": 67,
      "hit": false,
      "t": 246076.42208333404,
      "d": 865.0310416666907,
      "v": 104
    },
    {
      "midi": 64,
      "hit": false,
      "t": 246076.42208333404,
      "d": 878.6179166666989,
      "v": 108
    },
    {
      "midi": 60,
      "hit": false,
      "t": 246497.61520833566,
      "d": 366.8456250000163,
      "v": 92
    },
    {
      "midi": 67,
      "hit": false,
      "t": 246497.61520833566,
      "d": 371.37458333335235,
      "v": 96
    },
    {
      "midi": 64,
      "hit": false,
      "t": 246497.61520833566,
      "d": 380.43250000002445,
      "v": 98
    },
    {
      "midi": 60,
      "hit": false,
      "t": 246506.67312500073,
      "d": 452.89583333334303,
      "v": 103
    },
    {
      "midi": 55,
      "hit": false,
      "t": 246719.53416666738,
      "d": 240.03479166669422,
      "v": 104
    },
    {
      "midi": 43,
      "hit": false,
      "t": 246955.04000000074,
      "d": 321.5560416666558,
      "v": 103
    },
    {
      "midi": 50,
      "hit": false,
      "t": 246955.04000000074,
      "d": 380.43249999996624,
      "v": 106
    },
    {
      "midi": 67,
      "hit": false,
      "t": 246955.04000000074,
      "d": 733.6912499999744,
      "v": 106
    },
    {
      "midi": 59,
      "hit": false,
      "t": 246955.04000000074,
      "d": 742.7491666666465,
      "v": 104
    },
    {
      "midi": 62,
      "hit": false,
      "t": 246955.04000000074,
      "d": 742.7491666666465,
      "v": 108
    },
    {
      "midi": 67,
      "hit": false,
      "t": 246955.04000000237,
      "d": 720.1043749999662,
      "v": 96
    },
    {
      "midi": 59,
      "hit": false,
      "t": 246955.04000000237,
      "d": 729.1622916666383,
      "v": 96
    },
    {
      "midi": 50,
      "hit": false,
      "t": 246955.04000000237,
      "d": 1154.884374999965,
      "v": 91
    },
    {
      "midi": 62,
      "hit": false,
      "t": 246959.5689583357,
      "d": 729.1622916666383,
      "v": 98
    },
    {
      "midi": 43,
      "hit": false,
      "t": 247385.29104166737,
      "d": 711.0464583333232,
      "v": 103
    },
    {
      "midi": 50,
      "hit": false,
      "t": 247602.68104166738,
      "d": 493.6564583333093,
      "v": 110
    },
    {
      "midi": 67,
      "hit": false,
      "t": 247801.95520833568,
      "d": 489.1275000000023,
      "v": 96
    },
    {
      "midi": 59,
      "hit": false,
      "t": 247806.48416666902,
      "d": 502.7143750000105,
      "v": 94
    },
    {
      "midi": 62,
      "hit": false,
      "t": 247806.48416666902,
      "d": 502.7143750000105,
      "v": 99
    },
    {
      "midi": 59,
      "hit": false,
      "t": 247820.07104166737,
      "d": 946.5522916666523,
      "v": 106
    },
    {
      "midi": 67,
      "hit": false,
      "t": 247820.07104166737,
      "d": 946.5522916666523,
      "v": 110
    },
    {
      "midi": 62,
      "hit": false,
      "t": 247820.07104166737,
      "d": 955.6102083333244,
      "v": 108
    },
    {
      "midi": 50,
      "hit": false,
      "t": 248227.677291669,
      "d": 1159.4133333333884,
      "v": 91
    },
    {
      "midi": 50,
      "hit": false,
      "t": 248245.7931250007,
      "d": 280.79541666666046,
      "v": 104
    },
    {
      "midi": 62,
      "hit": false,
      "t": 248454.1252083357,
      "d": 126.81083333335118,
      "v": 96
    },
    {
      "midi": 59,
      "hit": false,
      "t": 248454.1252083357,
      "d": 131.33979166668723,
      "v": 91
    },
    {
      "midi": 67,
      "hit": false,
      "t": 248458.65416666903,
      "d": 108.69500000000698,
      "v": 96
    },
    {
      "midi": 43,
      "hit": false,
      "t": 248467.71208333402,
      "d": 122.28187500001513,
      "v": 104
    },
    {
      "midi": 59,
      "hit": false,
      "t": 248666.9862500024,
      "d": 230.97687499999302,
      "v": 94
    },
    {
      "midi": 62,
      "hit": false,
      "t": 248666.9862500024,
      "d": 230.97687499999302,
      "v": 98
    },
    {
      "midi": 67,
      "hit": false,
      "t": 248671.51520833574,
      "d": 221.91895833332092,
      "v": 98
    },
    {
      "midi": 43,
      "hit": false,
      "t": 248689.63104166737,
      "d": 317.02708333334886,
      "v": 106
    },
    {
      "midi": 59,
      "hit": false,
      "t": 248907.02104166738,
      "d": 461.95375000001513,
      "v": 108
    },
    {
      "midi": 67,
      "hit": false,
      "t": 248907.02104166738,
      "d": 466.4827083333512,
      "v": 108
    },
    {
      "midi": 62,
      "hit": false,
      "t": 248907.02104166738,
      "d": 471.01166666668723,
      "v": 108
    },
    {
      "midi": 67,
      "hit": false,
      "t": 249097.23729166907,
      "d": 724.6333333333314,
      "v": 98
    },
    {
      "midi": 59,
      "hit": false,
      "t": 249097.23729166907,
      "d": 738.2202083333395,
      "v": 96
    },
    {
      "midi": 62,
      "hit": false,
      "t": 249097.23729166907,
      "d": 751.8070833333477,
      "v": 98
    },
    {
      "midi": 43,
      "hit": false,
      "t": 249115.35312500072,
      "d": 271.73750000001746,
      "v": 106
    },
    {
      "midi": 50,
      "hit": false,
      "t": 249332.74312500074,
      "d": 452.89583333334303,
      "v": 110
    },
    {
      "midi": 50,
      "hit": false,
      "t": 249532.01729166906,
      "d": 842.3862500000687,
      "v": 98
    },
    {
      "midi": 67,
      "hit": false,
      "t": 249545.6041666674,
      "d": 801.6256250000151,
      "v": 108
    },
    {
      "midi": 59,
      "hit": false,
      "t": 249550.13312500075,
      "d": 788.038750000007,
      "v": 108
    },
    {
      "midi": 62,
      "hit": false,
      "t": 249550.13312500075,
      "d": 788.038750000007,
      "v": 108
    },
    {
      "midi": 67,
      "hit": false,
      "t": 249962.26833333576,
      "d": 394.0193750000326,
      "v": 98
    },
    {
      "midi": 59,
      "hit": false,
      "t": 249966.7972916691,
      "d": 366.8456250000163,
      "v": 96
    },
    {
      "midi": 62,
      "hit": false,
      "t": 249966.7972916691,
      "d": 380.43250000002445,
      "v": 99
    },
    {
      "midi": 50,
      "hit": false,
      "t": 249975.85520833408,
      "d": 249.0927083333372,
      "v": 104
    },
    {
      "midi": 43,
      "hit": false,
      "t": 250193.2452083341,
      "d": 267.2085416666523,
      "v": 108
    },
    {
      "midi": 41,
      "hit": false,
      "t": 250433.28000000076,
      "d": 317.02708333331975,
      "v": 98
    },
    {
      "midi": 53,
      "hit": false,
      "t": 250433.28000000076,
      "d": 344.20083333330695,
      "v": 98
    },
    {
      "midi": 65,
      "hit": false,
      "t": 250433.28000000076,
      "d": 720.1043749999662,
      "v": 104
    },
    {
      "midi": 60,
      "hit": false,
      "t": 250433.28000000076,
      "d": 733.6912499999744,
      "v": 104
    },
    {
      "midi": 57,
      "hit": false,
      "t": 250433.28000000076,
      "d": 742.7491666666465,
      "v": 103
    },
    {
      "midi": 65,
      "hit": false,
      "t": 250437.8089583358,
      "d": 738.2202083333104,
      "v": 94
    },
    {
      "midi": 57,
      "hit": false,
      "t": 250437.8089583358,
      "d": 756.3360416666546,
      "v": 92
    },
    {
      "midi": 60,
      "hit": false,
      "t": 250437.8089583358,
      "d": 769.9229166666628,
      "v": 94
    },
    {
      "midi": 41,
      "hit": false,
      "t": 250863.5310416674,
      "d": 720.1043750000244,
      "v": 104
    },
    {
      "midi": 53,
      "hit": false,
      "t": 250863.53104166914,
      "d": 720.1043749999953,
      "v": 96
    },
    {
      "midi": 53,
      "hit": false,
      "t": 251080.9210416674,
      "d": 493.6564583333384,
      "v": 104
    },
    {
      "midi": 57,
      "hit": false,
      "t": 251293.78208333408,
      "d": 910.3206249999639,
      "v": 108
    },
    {
      "midi": 65,
      "hit": false,
      "t": 251293.78208333408,
      "d": 910.3206249999639,
      "v": 106
    },
    {
      "midi": 60,
      "hit": false,
      "t": 251293.78208333408,
      "d": 914.8495833333,
      "v": 108
    },
    {
      "midi": 57,
      "hit": false,
      "t": 251293.7820833358,
      "d": 566.1197916666861,
      "v": 91
    },
    {
      "midi": 60,
      "hit": false,
      "t": 251293.7820833358,
      "d": 575.1777083333582,
      "v": 94
    },
    {
      "midi": 65,
      "hit": false,
      "t": 251298.31104166913,
      "d": 543.4750000000058,
      "v": 94
    },
    {
      "midi": 53,
      "hit": false,
      "t": 251719.5041666674,
      "d": 317.02708333331975,
      "v": 93
    },
    {
      "midi": 53,
      "hit": false,
      "t": 251728.5620833358,
      "d": 1132.2395833333721,
      "v": 92
    },
    {
      "midi": 41,
      "hit": false,
      "t": 251945.95208333406,
      "d": 126.81083333332208,
      "v": 106
    },
    {
      "midi": 65,
      "hit": false,
      "t": 251945.95208333584,
      "d": 126.81083333332208,
      "v": 84
    },
    {
      "midi": 60,
      "hit": false,
      "t": 251945.95208333584,
      "d": 149.45562500000233,
      "v": 87
    },
    {
      "midi": 57,
      "hit": false,
      "t": 251945.95208333584,
      "d": 153.98458333333838,
      "v": 81
    },
    {
      "midi": 57,
      "hit": false,
      "t": 252158.81312500252,
      "d": 199.27416666666977,
      "v": 91
    },
    {
      "midi": 60,
      "hit": false,
      "t": 252158.81312500252,
      "d": 208.33208333334187,
      "v": 96
    },
    {
      "midi": 41,
      "hit": false,
      "t": 252163.34208333405,
      "d": 294.3822916666686,
      "v": 108
    },
    {
      "midi": 65,
      "hit": false,
      "t": 252163.34208333585,
      "d": 199.27416666666977,
      "v": 96
    },
    {
      "midi": 65,
      "hit": false,
      "t": 252376.20312500073,
      "d": 511.7722916666826,
      "v": 108
    },
    {
      "midi": 57,
      "hit": false,
      "t": 252376.20312500073,
      "d": 529.8881250000268,
      "v": 108
    },
    {
      "midi": 60,
      "hit": false,
      "t": 252376.20312500073,
      "d": 529.8881250000268,
      "v": 108
    },
    {
      "midi": 65,
      "hit": false,
      "t": 252575.47729166917,
      "d": 824.2704166666954,
      "v": 92
    },
    {
      "midi": 57,
      "hit": false,
      "t": 252580.0062500025,
      "d": 810.6835416666872,
      "v": 92
    },
    {
      "midi": 60,
      "hit": false,
      "t": 252580.0062500025,
      "d": 824.2704166666954,
      "v": 94
    },
    {
      "midi": 41,
      "hit": false,
      "t": 252593.5931250007,
      "d": 652.1700000000128,
      "v": 101
    },
    {
      "midi": 53,
      "hit": false,
      "t": 252810.98312500073,
      "d": 475.5406249999942,
      "v": 104
    },
    {
      "midi": 53,
      "hit": false,
      "t": 253019.31520833584,
      "d": 783.5097916667291,
      "v": 92
    },
    {
      "midi": 60,
      "hit": false,
      "t": 253028.37312500074,
      "d": 865.0310416666616,
      "v": 108
    },
    {
      "midi": 65,
      "hit": false,
      "t": 253028.37312500074,
      "d": 865.0310416666616,
      "v": 108
    },
    {
      "midi": 57,
      "hit": false,
      "t": 253028.37312500074,
      "d": 869.5599999999977,
      "v": 108
    },
    {
      "midi": 53,
      "hit": false,
      "t": 253449.56625000073,
      "d": 475.5406250000233,
      "v": 101
    },
    {
      "midi": 57,
      "hit": false,
      "t": 253454.09520833587,
      "d": 335.14291666669305,
      "v": 91
    },
    {
      "midi": 65,
      "hit": false,
      "t": 253454.09520833587,
      "d": 344.20083333336515,
      "v": 96
    },
    {
      "midi": 60,
      "hit": false,
      "t": 253454.09520833587,
      "d": 348.7297916667012,
      "v": 98
    },
    {
      "midi": 41,
      "hit": false,
      "t": 253671.48520833408,
      "d": 276.2664583333535,
      "v": 106
    },
    {
      "midi": 55,
      "hit": false,
      "t": 253911.52000000075,
      "d": 489.12750000003143,
      "v": 106
    },
    {
      "midi": 67,
      "hit": false,
      "t": 253911.52000000075,
      "d": 570.6487500000221,
      "v": 104
    },
    {
      "midi": 60,
      "hit": false,
      "t": 253911.52000000075,
      "d": 597.8225000000093,
      "v": 108
    },
    {
      "midi": 64,
      "hit": false,
      "t": 253911.52000000075,
      "d": 602.3514583333454,
      "v": 108
    },
    {
      "midi": 60,
      "hit": false,
      "t": 253916.04895833592,
      "d": 720.1043749999953,
      "v": 116
    },
    {
      "midi": 67,
      "hit": false,
      "t": 253916.04895833592,
      "d": 729.1622916666674,
      "v": 118
    },
    {
      "midi": 64,
      "hit": false,
      "t": 253916.04895833592,
      "d": 738.2202083333395,
      "v": 119
    },
    {
      "midi": 48,
      "hit": false,
      "t": 254355.35791666745,
      "d": 1091.4789583332604,
      "v": 110
    },
    {
      "midi": 55,
      "hit": false,
      "t": 254563.69000000076,
      "d": 629.5252083333035,
      "v": 106
    },
    {
      "midi": 60,
      "hit": false,
      "t": 254776.5510416674,
      "d": 289.85333333333256,
      "v": 108
    },
    {
      "midi": 64,
      "hit": false,
      "t": 254776.5510416674,
      "d": 932.965416666615,
      "v": 110
    },
    {
      "midi": 60,
      "hit": false,
      "t": 254776.55104166927,
      "d": 511.7722916666826,
      "v": 114
    },
    {
      "midi": 67,
      "hit": false,
      "t": 254776.55104166927,
      "d": 529.8881250000268,
      "v": 118
    },
    {
      "midi": 64,
      "hit": false,
      "t": 254776.55104166927,
      "d": 534.4170833333628,
      "v": 118
    },
    {
      "midi": 67,
      "hit": false,
      "t": 254785.60895833408,
      "d": 892.2047916666197,
      "v": 104
    },
    {
      "midi": 60,
      "hit": false,
      "t": 255202.27312500073,
      "d": 534.4170833333046,
      "v": 98
    },
    {
      "midi": 55,
      "hit": false,
      "t": 255419.66312500072,
      "d": 335.14291666666395,
      "v": 103
    },
    {
      "midi": 67,
      "hit": false,
      "t": 255428.72104166928,
      "d": 384.9614583333314,
      "v": 118
    },
    {
      "midi": 71,
      "hit": false,
      "t": 255428.72104166928,
      "d": 389.49041666666744,
      "v": 121
    },
    {
      "midi": 74,
      "hit": false,
      "t": 255428.72104166928,
      "d": 412.1352083333477,
      "v": 119
    },
    {
      "midi": 43,
      "hit": false,
      "t": 255641.58208333404,
      "d": 312.4981250000128,
      "v": 104
    },
    {
      "midi": 60,
      "hit": false,
      "t": 255849.91416666738,
      "d": 335.14291666669305,
      "v": 110
    },
    {
      "midi": 55,
      "hit": false,
      "t": 255854.44312500072,
      "d": 294.3822916666977,
      "v": 108
    },
    {
      "midi": 62,
      "hit": false,
      "t": 255854.44312500072,
      "d": 321.5560416666849,
      "v": 108
    },
    {
      "midi": 43,
      "hit": false,
      "t": 256067.3041666674,
      "d": 294.3822916666977,
      "v": 103
    },
    {
      "midi": 48,
      "hit": false,
      "t": 256298.28104166742,
      "d": 403.0772916666756,
      "v": 110
    },
    {
      "midi": 55,
      "hit": false,
      "t": 256511.1420833341,
      "d": 724.6333333333314,
      "v": 108
    },
    {
      "midi": 60,
      "hit": false,
      "t": 256511.1420833341,
      "d": 729.1622916666674,
      "v": 111
    },
    {
      "midi": 74,
      "hit": false,
      "t": 256511.142083336,
      "d": 656.6989583333198,
      "v": 119
    },
    {
      "midi": 79,
      "hit": false,
      "t": 256511.142083336,
      "d": 656.6989583333198,
      "v": 116
    },
    {
      "midi": 71,
      "hit": false,
      "t": 256511.142083336,
      "d": 665.7568749999919,
      "v": 118
    },
    {
      "midi": 62,
      "hit": false,
      "t": 256515.67104166743,
      "d": 733.6912500000035,
      "v": 108
    }
  ]
}