{
  "jsonPath": "Pop/Europop/Nek/il-nostro-giorno-in-piu.json",
  "path": "Pop\\Europop\\Nek\\Il Nostro Giorno In Più.mid",
  "name": "Il Nostro Giorno In Più",
  "difficulty": "Advanced",
  "bpm": 61.99999586666694,
  "notes": [
    {
      "midi": 56,
      "hit": false,
      "t": 7741.935999999999,
      "d": 2883.0647083333324,
      "v": 108
    },
    {
      "midi": 53,
      "hit": false,
      "t": 7741.935999999999,
      "d": 2887.096966666665,
      "v": 106
    },
    {
      "midi": 60,
      "hit": false,
      "t": 7741.935999999999,
      "d": 2915.322774999998,
      "v": 116
    },
    {
      "midi": 60,
      "hit": false,
      "t": 11612.903999999997,
      "d": 2110.887237500001,
      "v": 116
    },
    {
      "midi": 58,
      "hit": false,
      "t": 11612.903999999997,
      "d": 2116.935625000002,
      "v": 100
    },
    {
      "midi": 61,
      "hit": false,
      "t": 11612.903999999997,
      "d": 2131.0485291666682,
      "v": 94
    },
    {
      "midi": 65,
      "hit": false,
      "t": 11612.903999999997,
      "d": 2149.193691666669,
      "v": 116
    },
    {
      "midi": 65,
      "hit": false,
      "t": 14516.13,
      "d": 84.67742499999986,
      "v": 120
    },
    {
      "midi": 58,
      "hit": false,
      "t": 15000.000999999998,
      "d": 62.50000416666626,
      "v": 108
    },
    {
      "midi": 58,
      "hit": false,
      "t": 15483.871999999998,
      "d": 2151.209820833332,
      "v": 116
    },
    {
      "midi": 67,
      "hit": false,
      "t": 15483.871999999998,
      "d": 2161.2904666666636,
      "v": 126
    },
    {
      "midi": 63,
      "hit": false,
      "t": 15483.871999999998,
      "d": 2171.3711124999954,
      "v": 116
    },
    {
      "midi": 58,
      "hit": false,
      "t": 18387.097999999994,
      "d": 66.5322625000008,
      "v": 116
    },
    {
      "midi": 55,
      "hit": false,
      "t": 18870.968999999994,
      "d": 72.58064999999988,
      "v": 106
    },
    {
      "midi": 60,
      "hit": false,
      "t": 19354.839999999993,
      "d": 3780.2421875,
      "v": 110
    },
    {
      "midi": 55,
      "hit": false,
      "t": 19354.839999999993,
      "d": 3881.0486458333326,
      "v": 106
    },
    {
      "midi": 58,
      "hit": false,
      "t": 19354.839999999993,
      "d": 3881.0486458333326,
      "v": 108
    },
    {
      "midi": 64,
      "hit": false,
      "t": 19354.839999999993,
      "d": 3883.064774999999,
      "v": 110
    },
    {
      "midi": 56,
      "hit": false,
      "t": 23225.807999999994,
      "d": 2883.0647083333315,
      "v": 103
    },
    {
      "midi": 53,
      "hit": false,
      "t": 23225.807999999994,
      "d": 2887.0969666666642,
      "v": 101
    },
    {
      "midi": 60,
      "hit": false,
      "t": 23225.807999999994,
      "d": 2915.322774999997,
      "v": 111
    },
    {
      "midi": 60,
      "hit": false,
      "t": 27096.77599999999,
      "d": 2110.887237499999,
      "v": 116
    },
    {
      "midi": 58,
      "hit": false,
      "t": 27096.77599999999,
      "d": 2116.9356249999983,
      "v": 100
    },
    {
      "midi": 61,
      "hit": false,
      "t": 27096.77599999999,
      "d": 2131.0485291666664,
      "v": 94
    },
    {
      "midi": 65,
      "hit": false,
      "t": 27096.77599999999,
      "d": 2149.1936916666673,
      "v": 116
    },
    {
      "midi": 65,
      "hit": false,
      "t": 30000.001999999993,
      "d": 84.67742500000168,
      "v": 120
    },
    {
      "midi": 58,
      "hit": false,
      "t": 30483.872999999996,
      "d": 62.50000416666808,
      "v": 108
    },
    {
      "midi": 58,
      "hit": false,
      "t": 30967.744,
      "d": 2151.2098208333337,
      "v": 116
    },
    {
      "midi": 67,
      "hit": false,
      "t": 30967.744,
      "d": 2161.2904666666655,
      "v": 126
    },
    {
      "midi": 63,
      "hit": false,
      "t": 30967.744,
      "d": 2171.3711124999973,
      "v": 116
    },
    {
      "midi": 58,
      "hit": false,
      "t": 33870.969999999994,
      "d": 66.53226249999716,
      "v": 116
    },
    {
      "midi": 55,
      "hit": false,
      "t": 34354.84099999999,
      "d": 72.58065000000352,
      "v": 106
    },
    {
      "midi": 58,
      "hit": false,
      "t": 34838.712,
      "d": 3729.8389583333337,
      "v": 108
    },
    {
      "midi": 60,
      "hit": false,
      "t": 34838.712,
      "d": 3804.4357375000036,
      "v": 110
    },
    {
      "midi": 55,
      "hit": false,
      "t": 34838.712,
      "d": 3881.0486458333326,
      "v": 106
    },
    {
      "midi": 64,
      "hit": false,
      "t": 34838.712,
      "d": 3883.064774999999,
      "v": 110
    },
    {
      "midi": 58,
      "hit": false,
      "t": 38709.68,
      "d": 3155.242145833334,
      "v": 121
    },
    {
      "midi": 65,
      "hit": false,
      "t": 38709.68,
      "d": 3161.290533333333,
      "v": 115
    },
    {
      "midi": 62,
      "hit": false,
      "t": 38709.68,
      "d": 3165.3227916666656,
      "v": 111
    },
    {
      "midi": 60,
      "hit": false,
      "t": 38709.68,
      "d": 3167.338920833332,
      "v": 105
    },
    {
      "midi": 69,
      "hit": false,
      "t": 38709.68,
      "d": 3181.4518249999965,
      "v": 111
    },
    {
      "midi": 60,
      "hit": false,
      "t": 42580.647999999994,
      "d": 3302.419575,
      "v": 115
    },
    {
      "midi": 63,
      "hit": false,
      "t": 42580.647999999994,
      "d": 3310.4840916666653,
      "v": 111
    },
    {
      "midi": 67,
      "hit": false,
      "t": 42580.647999999994,
      "d": 3320.564737499997,
      "v": 101
    },
    {
      "midi": 75,
      "hit": false,
      "t": 44032.261,
      "d": 1836.6936708333305,
      "v": 95
    },
    {
      "midi": 70,
      "hit": false,
      "t": 46451.615999999995,
      "d": 2197.5807916666745,
      "v": 111
    },
    {
      "midi": 62,
      "hit": false,
      "t": 46451.615999999995,
      "d": 2217.742083333338,
      "v": 105
    },
    {
      "midi": 65,
      "hit": false,
      "t": 46451.615999999995,
      "d": 2221.774341666671,
      "v": 115
    },
    {
      "midi": 62,
      "hit": false,
      "t": 49354.842,
      "d": 258.0645333333305,
      "v": 127
    },
    {
      "midi": 60,
      "hit": false,
      "t": 49596.7775,
      "d": 131.04839583332796,
      "v": 93
    },
    {
      "midi": 58,
      "hit": false,
      "t": 49838.71299999999,
      "d": 64.5161333333308,
      "v": 77
    },
    {
      "midi": 53,
      "hit": false,
      "t": 50322.58399999999,
      "d": 2167.3388541666645,
      "v": 101
    },
    {
      "midi": 60,
      "hit": false,
      "t": 50322.58399999999,
      "d": 2169.354983333331,
      "v": 105
    },
    {
      "midi": 57,
      "hit": false,
      "t": 50322.58399999999,
      "d": 2183.4678874999954,
      "v": 105
    },
    {
      "midi": 62,
      "hit": false,
      "t": 50322.58399999999,
      "d": 2203.629179166659,
      "v": 101
    },
    {
      "midi": 62,
      "hit": false,
      "t": 53709.68099999998,
      "d": 395.1613166666648,
      "v": 117
    },
    {
      "midi": 65,
      "hit": false,
      "t": 53709.68099999998,
      "d": 395.1613166666648,
      "v": 105
    },
    {
      "midi": 60,
      "hit": false,
      "t": 53709.68099999998,
      "d": 419.3548666666684,
      "v": 117
    },
    {
      "midi": 69,
      "hit": false,
      "t": 53709.68099999998,
      "d": 495.96777499999735,
      "v": 101
    },
    {
      "midi": 55,
      "hit": false,
      "t": 54193.55199999998,
      "d": 2977.822779166665,
      "v": 97
    },
    {
      "midi": 58,
      "hit": false,
      "t": 54193.55199999998,
      "d": 2983.871166666664,
      "v": 103
    },
    {
      "midi": 62,
      "hit": false,
      "t": 54193.55199999998,
      "d": 2993.951812499996,
      "v": 97
    },
    {
      "midi": 65,
      "hit": false,
      "t": 54193.55199999998,
      "d": 3024.1937499999985,
      "v": 115
    },
    {
      "midi": 60,
      "hit": false,
      "t": 58064.51999999998,
      "d": 1100.8065249999927,
      "v": 111
    },
    {
      "midi": 63,
      "hit": false,
      "t": 58064.51999999998,
      "d": 1104.8387833333254,
      "v": 95
    },
    {
      "midi": 67,
      "hit": false,
      "t": 58064.51999999998,
      "d": 1120.9678166666563,
      "v": 111
    },
    {
      "midi": 70,
      "hit": false,
      "t": 58064.51999999998,
      "d": 1151.209754166659,
      "v": 103
    },
    {
      "midi": 67,
      "hit": false,
      "t": 59516.13299999997,
      "d": 84.67742500000168,
      "v": 105
    },
    {
      "midi": 69,
      "hit": false,
      "t": 61935.487999999976,
      "d": 2350.8066083333397,
      "v": 105
    },
    {
      "midi": 65,
      "hit": false,
      "t": 61935.487999999976,
      "d": 2352.822737500006,
      "v": 115
    },
    {
      "midi": 72,
      "hit": false,
      "t": 61935.487999999976,
      "d": 2354.8388666666724,
      "v": 97
    },
    {
      "midi": 62,
      "hit": false,
      "t": 61935.487999999976,
      "d": 2360.8872541666715,
      "v": 105
    },
    {
      "midi": 62,
      "hit": false,
      "t": 64838.71399999998,
      "d": 399.1935749999975,
      "v": 101
    },
    {
      "midi": 65,
      "hit": false,
      "t": 64838.71399999998,
      "d": 415.3226083333284,
      "v": 111
    },
    {
      "midi": 69,
      "hit": false,
      "t": 64838.71399999998,
      "d": 415.3226083333284,
      "v": 105
    },
    {
      "midi": 72,
      "hit": false,
      "t": 64838.71399999998,
      "d": 415.3226083333284,
      "v": 101
    },
    {
      "midi": 58,
      "hit": false,
      "t": 65806.45599999998,
      "d": 2532.2582333333266,
      "v": 89
    },
    {
      "midi": 62,
      "hit": false,
      "t": 65806.45599999998,
      "d": 2544.355008333325,
      "v": 85
    },
    {
      "midi": 55,
      "hit": false,
      "t": 65806.45599999998,
      "d": 2566.532429166662,
      "v": 101
    },
    {
      "midi": 67,
      "hit": false,
      "t": 65806.45599999998,
      "d": 2594.758237499991,
      "v": 111
    },
    {
      "midi": 55,
      "hit": false,
      "t": 68709.68199999997,
      "d": 143.1451708333334,
      "v": 101
    },
    {
      "midi": 58,
      "hit": false,
      "t": 68709.68199999997,
      "d": 143.1451708333334,
      "v": 89
    },
    {
      "midi": 62,
      "hit": false,
      "t": 68709.68199999997,
      "d": 153.22581666667247,
      "v": 97
    },
    {
      "midi": 67,
      "hit": false,
      "t": 68709.68199999997,
      "d": 187.50001250000787,
      "v": 121
    },
    {
      "midi": 65,
      "hit": false,
      "t": 69193.55299999999,
      "d": 405.24196250000386,
      "v": 101
    },
    {
      "midi": 72,
      "hit": false,
      "t": 69193.55299999999,
      "d": 415.32260833334294,
      "v": 101
    },
    {
      "midi": 62,
      "hit": false,
      "t": 69193.55299999999,
      "d": 457.6613208333438,
      "v": 105
    },
    {
      "midi": 67,
      "hit": false,
      "t": 69193.55299999999,
      "d": 487.90325833334646,
      "v": 97
    },
    {
      "midi": 72,
      "hit": false,
      "t": 69677.424,
      "d": 2866.9356750000006,
      "v": 106
    },
    {
      "midi": 70,
      "hit": false,
      "t": 69677.424,
      "d": 2872.984062500007,
      "v": 98
    },
    {
      "midi": 65,
      "hit": false,
      "t": 69677.424,
      "d": 2877.0163208333397,
      "v": 116
    },
    {
      "midi": 61,
      "hit": false,
      "t": 69677.424,
      "d": 2885.080837500005,
      "v": 116
    },
    {
      "midi": 70,
      "hit": false,
      "t": 73548.392,
      "d": 2721.774375000008,
      "v": 116
    },
    {
      "midi": 67,
      "hit": false,
      "t": 73548.392,
      "d": 2741.9356666666718,
      "v": 106
    },
    {
      "midi": 65,
      "hit": false,
      "t": 73548.392,
      "d": 2745.9679250000045,
      "v": 106
    },
    {
      "midi": 61,
      "hit": false,
      "t": 73548.392,
      "d": 2758.0647000000026,
      "v": 126
    },
    {
      "midi": 63,
      "hit": false,
      "t": 77419.36000000002,
      "d": 1354.8387999999977,
      "v": 98
    },
    {
      "midi": 60,
      "hit": false,
      "t": 77419.36000000002,
      "d": 1366.9355749999959,
      "v": 100
    },
    {
      "midi": 70,
      "hit": false,
      "t": 77419.36000000002,
      "d": 1375.0000916666613,
      "v": 116
    },
    {
      "midi": 67,
      "hit": false,
      "t": 77419.36000000002,
      "d": 1387.0968666666595,
      "v": 116
    },
    {
      "midi": 60,
      "hit": false,
      "t": 78870.97300000001,
      "d": 510.08067916666914,
      "v": 80
    },
    {
      "midi": 63,
      "hit": false,
      "t": 78870.97300000001,
      "d": 518.1451958333346,
      "v": 84
    },
    {
      "midi": 58,
      "hit": false,
      "t": 80322.58600000002,
      "d": 437.5000291666802,
      "v": 126
    },
    {
      "midi": 63,
      "hit": false,
      "t": 80322.58600000002,
      "d": 469.75809583334194,
      "v": 126
    },
    {
      "midi": 56,
      "hit": false,
      "t": 80806.45700000004,
      "d": 84.67742500000168,
      "v": 98
    },
    {
      "midi": 55,
      "hit": false,
      "t": 81290.32800000004,
      "d": 1639.1130125000054,
      "v": 100
    },
    {
      "midi": 58,
      "hit": false,
      "t": 81290.32800000004,
      "d": 1645.1614000000118,
      "v": 98
    },
    {
      "midi": 60,
      "hit": false,
      "t": 81290.32800000004,
      "d": 1663.3065625000163,
      "v": 100
    },
    {
      "midi": 64,
      "hit": false,
      "t": 81290.32800000004,
      "d": 1689.5162416666863,
      "v": 106
    },
    {
      "midi": 64,
      "hit": false,
      "t": 83225.81200000006,
      "d": 100.80645833333256,
      "v": 110
    },
    {
      "midi": 67,
      "hit": false,
      "t": 84193.55400000006,
      "d": 92.74194166666712,
      "v": 88
    },
    {
      "midi": 68,
      "hit": false,
      "t": 85161.29600000006,
      "d": 1122.9839458333445,
      "v": 98
    },
    {
      "midi": 60,
      "hit": false,
      "t": 85161.29600000006,
      "d": 1135.0807208333426,
      "v": 110
    },
    {
      "midi": 65,
      "hit": false,
      "t": 85161.29600000006,
      "d": 1135.0807208333426,
      "v": 116
    },
    {
      "midi": 67,
      "hit": false,
      "t": 86854.84450000006,
      "d": 314.5161500000104,
      "v": 110
    },
    {
      "midi": 63,
      "hit": false,
      "t": 86854.84450000006,
      "d": 318.5484083333431,
      "v": 106
    },
    {
      "midi": 60,
      "hit": false,
      "t": 86854.84450000006,
      "d": 326.61292500000854,
      "v": 96
    },
    {
      "midi": 56,
      "hit": false,
      "t": 87580.65100000007,
      "d": 137.09678333332704,
      "v": 126
    },
    {
      "midi": 60,
      "hit": false,
      "t": 88064.52200000007,
      "d": 94.7580708333262,
      "v": 110
    },
    {
      "midi": 68,
      "hit": false,
      "t": 89032.26400000007,
      "d": 973.7903875000047,
      "v": 101
    },
    {
      "midi": 61,
      "hit": false,
      "t": 89032.26400000007,
      "d": 977.8226458333374,
      "v": 101
    },
    {
      "midi": 65,
      "hit": false,
      "t": 89032.26400000007,
      "d": 981.8549041666702,
      "v": 117
    },
    {
      "midi": 60,
      "hit": false,
      "t": 90725.81250000007,
      "d": 1391.1291249999922,
      "v": 95
    },
    {
      "midi": 68,
      "hit": false,
      "t": 90725.81250000007,
      "d": 1695.5646291666635,
      "v": 121
    },
    {
      "midi": 63,
      "hit": false,
      "t": 90725.81250000007,
      "d": 1715.725920833327,
      "v": 101
    },
    {
      "midi": 65,
      "hit": false,
      "t": 90725.81250000007,
      "d": 1717.7420500000007,
      "v": 105
    },
    {
      "midi": 60,
      "hit": false,
      "t": 92419.36100000006,
      "d": 90.72581250000803,
      "v": 100
    },
    {
      "midi": 61,
      "hit": false,
      "t": 92903.23200000008,
      "d": 933.4678041666775,
      "v": 106
    },
    {
      "midi": 70,
      "hit": false,
      "t": 92903.23200000008,
      "d": 1028.2258750000183,
      "v": 106
    },
    {
      "midi": 65,
      "hit": false,
      "t": 92903.23200000008,
      "d": 1094.7581375000154,
      "v": 110
    },
    {
      "midi": 61,
      "hit": false,
      "t": 93870.97400000009,
      "d": 173.38710833333607,
      "v": 66
    },
    {
      "midi": 61,
      "hit": false,
      "t": 94596.7805000001,
      "d": 520.1613249999937,
      "v": 116
    },
    {
      "midi": 65,
      "hit": false,
      "t": 94596.7805000001,
      "d": 747.9839208333287,
      "v": 110
    },
    {
      "midi": 70,
      "hit": false,
      "t": 94596.7805000001,
      "d": 768.1452124999923,
      "v": 98
    },
    {
      "midi": 72,
      "hit": false,
      "t": 94596.7805000001,
      "d": 1572.5807499999937,
      "v": 110
    },
    {
      "midi": 61,
      "hit": false,
      "t": 95322.58700000009,
      "d": 911.2903833333403,
      "v": 90
    },
    {
      "midi": 65,
      "hit": false,
      "t": 95806.45800000009,
      "d": 385.08067083334026,
      "v": 100
    },
    {
      "midi": 58,
      "hit": false,
      "t": 96774.20000000008,
      "d": 1574.5968791666673,
      "v": 98
    },
    {
      "midi": 63,
      "hit": false,
      "t": 96774.20000000008,
      "d": 1582.6613958333328,
      "v": 106
    },
    {
      "midi": 67,
      "hit": false,
      "t": 96774.20000000008,
      "d": 1586.6936541666655,
      "v": 110
    },
    {
      "midi": 58,
      "hit": false,
      "t": 98467.74850000009,
      "d": 495.96777499999735,
      "v": 90
    },
    {
      "midi": 63,
      "hit": false,
      "t": 98467.74850000009,
      "d": 741.9355333333224,
      "v": 106
    },
    {
      "midi": 67,
      "hit": false,
      "t": 98467.74850000009,
      "d": 1074.5968458333227,
      "v": 106
    },
    {
      "midi": 58,
      "hit": false,
      "t": 99193.55500000008,
      "d": 366.93550833333575,
      "v": 84
    },
    {
      "midi": 63,
      "hit": false,
      "t": 99677.42600000008,
      "d": 241.93550000000687,
      "v": 98
    },
    {
      "midi": 55,
      "hit": false,
      "t": 100645.16800000009,
      "d": 433.4677708333329,
      "v": 106
    },
    {
      "midi": 58,
      "hit": false,
      "t": 100645.16800000009,
      "d": 711.6935958333343,
      "v": 106
    },
    {
      "midi": 64,
      "hit": false,
      "t": 100645.16800000009,
      "d": 725.806500000006,
      "v": 100
    },
    {
      "midi": 60,
      "hit": false,
      "t": 100645.16800000009,
      "d": 768.1452125000069,
      "v": 106
    },
    {
      "midi": 55,
      "hit": false,
      "t": 101370.9745000001,
      "d": 372.98389583332755,
      "v": 100
    },
    {
      "midi": 60,
      "hit": false,
      "t": 102580.65200000009,
      "d": 368.95163749999483,
      "v": 106
    },
    {
      "midi": 67,
      "hit": false,
      "t": 102580.65200000009,
      "d": 536.2903583333245,
      "v": 96
    },
    {
      "midi": 64,
      "hit": false,
      "t": 102580.65200000009,
      "d": 540.3226166666573,
      "v": 106
    },
    {
      "midi": 58,
      "hit": false,
      "t": 102580.65200000009,
      "d": 1957.6614208333194,
      "v": 90
    },
    {
      "midi": 60,
      "hit": false,
      "t": 103064.52300000007,
      "d": 1360.887187500004,
      "v": 78
    },
    {
      "midi": 64,
      "hit": false,
      "t": 103548.39400000007,
      "d": 983.8710333333293,
      "v": 110
    },
    {
      "midi": 67,
      "hit": false,
      "t": 104032.26500000007,
      "d": 479.83874166666646,
      "v": 84
    },
    {
      "midi": 60,
      "hit": false,
      "t": 104516.13600000007,
      "d": 1233.8710500000016,
      "v": 106
    },
    {
      "midi": 65,
      "hit": false,
      "t": 104516.13600000007,
      "d": 1262.0968583333306,
      "v": 106
    },
    {
      "midi": 56,
      "hit": false,
      "t": 104516.13600000007,
      "d": 1280.2420208333351,
      "v": 98
    },
    {
      "midi": 56,
      "hit": false,
      "t": 106209.68450000008,
      "d": 832.661345833345,
      "v": 98
    },
    {
      "midi": 60,
      "hit": false,
      "t": 106209.68450000008,
      "d": 856.8548958333413,
      "v": 88
    },
    {
      "midi": 65,
      "hit": false,
      "t": 106209.68450000008,
      "d": 862.9032833333476,
      "v": 74
    },
    {
      "midi": 65,
      "hit": false,
      "t": 107419.3620000001,
      "d": 362.903250000003,
      "v": 74
    },
    {
      "midi": 60,
      "hit": false,
      "t": 107419.3620000001,
      "d": 389.112929166673,
      "v": 84
    },
    {
      "midi": 56,
      "hit": false,
      "t": 107419.3620000001,
      "d": 399.19357500001206,
      "v": 84
    },
    {
      "midi": 58,
      "hit": false,
      "t": 108387.10400000011,
      "d": 1522.1775208333274,
      "v": 116
    },
    {
      "midi": 65,
      "hit": false,
      "t": 108387.10400000011,
      "d": 1562.5001041666546,
      "v": 96
    },
    {
      "midi": 60,
      "hit": false,
      "t": 108387.10400000011,
      "d": 1576.6130083333264,
      "v": 92
    },
    {
      "midi": 61,
      "hit": false,
      "t": 108387.10400000011,
      "d": 1576.6130083333264,
      "v": 98
    },
    {
      "midi": 56,
      "hit": false,
      "t": 110080.6525000001,
      "d": 1102.8226541666663,
      "v": 90
    },
    {
      "midi": 58,
      "hit": false,
      "t": 110080.6525000001,
      "d": 1129.0323333333363,
      "v": 90
    },
    {
      "midi": 60,
      "hit": false,
      "t": 110080.6525000001,
      "d": 1764.1130208333343,
      "v": 88
    },
    {
      "midi": 61,
      "hit": false,
      "t": 110080.6525000001,
      "d": 1770.1614083333407,
      "v": 90
    },
    {
      "midi": 65,
      "hit": false,
      "t": 110080.6525000001,
      "d": 1776.209795833347,
      "v": 96
    },
    {
      "midi": 58,
      "hit": false,
      "t": 112258.07200000012,
      "d": 1110.8871708333318,
      "v": 106
    },
    {
      "midi": 63,
      "hit": false,
      "t": 112258.07200000012,
      "d": 1114.9194291666645,
      "v": 106
    },
    {
      "midi": 67,
      "hit": false,
      "t": 112258.07200000012,
      "d": 1120.9678166666708,
      "v": 100
    },
    {
      "midi": 58,
      "hit": false,
      "t": 113951.62050000012,
      "d": 792.3387625000032,
      "v": 98
    },
    {
      "midi": 63,
      "hit": false,
      "t": 113951.62050000012,
      "d": 792.3387625000032,
      "v": 90
    },
    {
      "midi": 67,
      "hit": false,
      "t": 113951.62050000012,
      "d": 792.3387625000032,
      "v": 92
    },
    {
      "midi": 67,
      "hit": false,
      "t": 115161.29800000013,
      "d": 487.90325833334646,
      "v": 80
    },
    {
      "midi": 63,
      "hit": false,
      "t": 115161.29800000013,
      "d": 510.0806791666837,
      "v": 84
    },
    {
      "midi": 58,
      "hit": false,
      "t": 115161.29800000013,
      "d": 530.2419708333473,
      "v": 98
    },
    {
      "midi": 58,
      "hit": false,
      "t": 116129.04000000014,
      "d": 1544.3549416666647,
      "v": 98
    },
    {
      "midi": 55,
      "hit": false,
      "t": 116129.04000000014,
      "d": 1552.41945833333,
      "v": 96
    },
    {
      "midi": 64,
      "hit": false,
      "t": 116129.04000000014,
      "d": 1558.4678458333365,
      "v": 96
    },
    {
      "midi": 60,
      "hit": false,
      "t": 116129.04000000014,
      "d": 1572.5807500000083,
      "v": 96
    },
    {
      "midi": 58,
      "hit": false,
      "t": 117822.58850000014,
      "d": 1092.7420083333418,
      "v": 90
    },
    {
      "midi": 55,
      "hit": false,
      "t": 117822.58850000014,
      "d": 1102.8226541666809,
      "v": 92
    },
    {
      "midi": 64,
      "hit": false,
      "t": 117822.58850000014,
      "d": 1114.919429166679,
      "v": 106
    },
    {
      "midi": 60,
      "hit": false,
      "t": 117822.58850000014,
      "d": 1125.0000750000181,
      "v": 96
    },
    {
      "midi": 55,
      "hit": false,
      "t": 119032.26600000016,
      "d": 106.85484583333891,
      "v": 100
    },
    {
      "midi": 60,
      "hit": false,
      "t": 119032.26600000016,
      "d": 889.112962500003,
      "v": 84
    },
    {
      "midi": 67,
      "hit": false,
      "t": 119032.26600000016,
      "d": 907.2581250000076,
      "v": 106
    },
    {
      "midi": 64,
      "hit": false,
      "t": 119032.26600000016,
      "d": 937.5000625000102,
      "v": 96
    },
    {
      "midi": 58,
      "hit": false,
      "t": 119032.26600000016,
      "d": 939.5161916666839,
      "v": 84
    },
    {
      "midi": 60,
      "hit": false,
      "t": 120000.00800000018,
      "d": 1211.6936291666643,
      "v": 100
    },
    {
      "midi": 63,
      "hit": false,
      "t": 120000.00800000018,
      "d": 1276.2097625000024,
      "v": 106
    },
    {
      "midi": 67,
      "hit": false,
      "t": 120000.00800000018,
      "d": 1310.4839583333378,
      "v": 106
    },
    {
      "midi": 60,
      "hit": false,
      "t": 121451.62100000017,
      "d": 46.37097083333356,
      "v": 16
    },
    {
      "midi": 60,
      "hit": false,
      "t": 121935.49200000017,
      "d": 798.387149999995,
      "v": 80
    },
    {
      "midi": 63,
      "hit": false,
      "t": 121935.49200000017,
      "d": 961.693612499992,
      "v": 98
    },
    {
      "midi": 67,
      "hit": false,
      "t": 121935.49200000017,
      "d": 961.693612499992,
      "v": 92
    },
    {
      "midi": 60,
      "hit": false,
      "t": 123870.97600000017,
      "d": 1372.9839625000022,
      "v": 116
    },
    {
      "midi": 68,
      "hit": false,
      "t": 123870.97600000017,
      "d": 1441.532354166673,
      "v": 106
    },
    {
      "midi": 65,
      "hit": false,
      "t": 123870.97600000017,
      "d": 1461.6936458333366,
      "v": 106
    },
    {
      "midi": 67,
      "hit": false,
      "t": 123870.97600000017,
      "d": 1465.7259041666694,
      "v": 116
    },
    {
      "midi": 67,
      "hit": false,
      "t": 125806.46000000017,
      "d": 717.7419833333406,
      "v": 92
    },
    {
      "midi": 65,
      "hit": false,
      "t": 125806.46000000017,
      "d": 721.7742416666733,
      "v": 92
    },
    {
      "midi": 60,
      "hit": false,
      "t": 125806.46000000017,
      "d": 727.8226291666797,
      "v": 88
    },
    {
      "midi": 68,
      "hit": false,
      "t": 125806.46000000017,
      "d": 745.9677916666842,
      "v": 78
    },
    {
      "midi": 72,
      "hit": false,
      "t": 126774.20200000018,
      "d": 122.9838791666698,
      "v": 100
    },
    {
      "midi": 62,
      "hit": false,
      "t": 127741.94400000018,
      "d": 1179.4355625000026,
      "v": 96
    },
    {
      "midi": 65,
      "hit": false,
      "t": 127741.94400000018,
      "d": 1296.371054166666,
      "v": 110
    },
    {
      "midi": 70,
      "hit": false,
      "t": 127741.94400000018,
      "d": 1296.371054166666,
      "v": 106
    },
    {
      "midi": 62,
      "hit": false,
      "t": 129193.55700000018,
      "d": 143.1451708333334,
      "v": 62
    },
    {
      "midi": 62,
      "hit": false,
      "t": 129677.42800000017,
      "d": 387.0968000000139,
      "v": 70
    },
    {
      "midi": 70,
      "hit": false,
      "t": 129677.42800000017,
      "d": 530.2419708333473,
      "v": 90
    },
    {
      "midi": 65,
      "hit": false,
      "t": 129677.42800000017,
      "d": 578.6290708333545,
      "v": 100
    },
    {
      "midi": 62,
      "hit": false,
      "t": 130161.29900000019,
      "d": 272.17743750000955,
      "v": 74
    },
    {
      "midi": 65,
      "hit": false,
      "t": 130645.1700000002,
      "d": 366.93550833333575,
      "v": 110
    },
    {
      "midi": 63,
      "hit": false,
      "t": 131129.0410000002,
      "d": 100.80645833333256,
      "v": 98
    },
    {
      "midi": 65,
      "hit": false,
      "t": 131612.91200000021,
      "d": 1534.2742958333401,
      "v": 100
    },
    {
      "midi": 62,
      "hit": false,
      "t": 131612.91200000021,
      "d": 1536.2904250000138,
      "v": 88
    },
    {
      "midi": 71,
      "hit": false,
      "t": 131612.91200000021,
      "d": 1536.2904250000138,
      "v": 106
    },
    {
      "midi": 67,
      "hit": false,
      "t": 131612.91200000021,
      "d": 1548.3872000000265,
      "v": 100
    },
    {
      "midi": 71,
      "hit": false,
      "t": 133548.39600000024,
      "d": 1931.4517416666786,
      "v": 92
    },
    {
      "midi": 62,
      "hit": false,
      "t": 133548.39600000024,
      "d": 1935.4840000000258,
      "v": 74
    },
    {
      "midi": 67,
      "hit": false,
      "t": 133548.39600000024,
      "d": 1935.4840000000258,
      "v": 100
    },
    {
      "midi": 60,
      "hit": false,
      "t": 135483.88000000027,
      "d": 3068.5485916666803,
      "v": 93
    },
    {
      "midi": 64,
      "hit": false,
      "t": 135483.88000000027,
      "d": 3086.693754166685,
      "v": 105
    },
    {
      "midi": 65,
      "hit": false,
      "t": 135483.88000000027,
      "d": 3086.693754166685,
      "v": 105
    },
    {
      "midi": 69,
      "hit": false,
      "t": 135483.88000000027,
      "d": 3094.7582708333503,
      "v": 111
    },
    {
      "midi": 65,
      "hit": false,
      "t": 139354.8480000003,
      "d": 1957.6614208333194,
      "v": 115
    },
    {
      "midi": 62,
      "hit": false,
      "t": 139354.8480000003,
      "d": 1959.677549999993,
      "v": 97
    },
    {
      "midi": 70,
      "hit": false,
      "t": 139354.8480000003,
      "d": 1969.7581958333321,
      "v": 103
    },
    {
      "midi": 70,
      "hit": false,
      "t": 142258.07400000028,
      "d": 110.88710416667163,
      "v": 61
    },
    {
      "midi": 74,
      "hit": false,
      "t": 142258.07400000028,
      "d": 133.06452499999432,
      "v": 79
    },
    {
      "midi": 77,
      "hit": false,
      "t": 142258.07400000028,
      "d": 143.1451708333334,
      "v": 61
    },
    {
      "midi": 77,
      "hit": false,
      "t": 143225.81600000028,
      "d": 2695.564695833338,
      "v": 100
    },
    {
      "midi": 74,
      "hit": false,
      "t": 143225.81600000028,
      "d": 2707.661470833351,
      "v": 90
    },
    {
      "midi": 72,
      "hit": false,
      "t": 143225.81600000028,
      "d": 2723.790504166682,
      "v": 90
    },
    {
      "midi": 69,
      "hit": false,
      "t": 143225.81600000028,
      "d": 2747.984054166678,
      "v": 90
    },
    {
      "midi": 69,
      "hit": false,
      "t": 146129.0420000003,
      "d": 247.98388749998412,
      "v": 115
    },
    {
      "midi": 67,
      "hit": false,
      "t": 146370.9775000003,
      "d": 102.8225875000062,
      "v": 83
    },
    {
      "midi": 65,
      "hit": false,
      "t": 146612.9130000003,
      "d": 90.72581249999348,
      "v": 105
    },
    {
      "midi": 72,
      "hit": false,
      "t": 147096.78400000028,
      "d": 2925.403420833347,
      "v": 115
    },
    {
      "midi": 67,
      "hit": false,
      "t": 147096.78400000028,
      "d": 2933.4679375000123,
      "v": 115
    },
    {
      "midi": 64,
      "hit": false,
      "t": 147096.78400000028,
      "d": 2939.516325000004,
      "v": 111
    },
    {
      "midi": 62,
      "hit": false,
      "t": 147096.78400000028,
      "d": 2953.6292291666614,
      "v": 111
    },
    {
      "midi": 65,
      "hit": false,
      "t": 150483.88100000028,
      "d": 423.3871249999793,
      "v": 115
    },
    {
      "midi": 60,
      "hit": false,
      "t": 150483.88100000028,
      "d": 425.4032541666529,
      "v": 121
    },
    {
      "midi": 69,
      "hit": false,
      "t": 150483.88100000028,
      "d": 425.4032541666529,
      "v": 111
    },
    {
      "midi": 62,
      "hit": false,
      "t": 150483.88100000028,
      "d": 433.46777083331835,
      "v": 115
    },
    {
      "midi": 62,
      "hit": false,
      "t": 150967.75200000027,
      "d": 2834.6776083333534,
      "v": 106
    },
    {
      "midi": 60,
      "hit": false,
      "t": 150967.75200000027,
      "d": 2836.693737500027,
      "v": 96
    },
    {
      "midi": 65,
      "hit": false,
      "t": 150967.75200000027,
      "d": 2838.7098666667007,
      "v": 106
    },
    {
      "midi": 69,
      "hit": false,
      "t": 150967.75200000027,
      "d": 2862.903416666697,
      "v": 110
    },
    {
      "midi": 70,
      "hit": false,
      "t": 154838.7200000003,
      "d": 2270.1614416666853,
      "v": 101
    },
    {
      "midi": 74,
      "hit": false,
      "t": 154838.7200000003,
      "d": 2274.1937000000325,
      "v": 101
    },
    {
      "midi": 67,
      "hit": false,
      "t": 154838.7200000003,
      "d": 2280.2420875000244,
      "v": 111
    },
    {
      "midi": 65,
      "hit": false,
      "t": 154838.7200000003,
      "d": 2320.5646708333516,
      "v": 105
    },
    {
      "midi": 72,
      "hit": false,
      "t": 158709.68800000031,
      "d": 2070.5646541666647,
      "v": 100
    },
    {
      "midi": 64,
      "hit": false,
      "t": 158709.68800000031,
      "d": 2076.6130416666565,
      "v": 96
    },
    {
      "midi": 69,
      "hit": false,
      "t": 158709.68800000031,
      "d": 2086.6936874999956,
      "v": 100
    },
    {
      "midi": 67,
      "hit": false,
      "t": 158709.68800000031,
      "d": 2096.7743333333347,
      "v": 106
    },
    {
      "midi": 64,
      "hit": false,
      "t": 161612.9140000003,
      "d": 106.85484583335347,
      "v": 100
    },
    {
      "midi": 69,
      "hit": false,
      "t": 161612.9140000003,
      "d": 110.88710416670074,
      "v": 96
    },
    {
      "midi": 72,
      "hit": false,
      "t": 161612.9140000003,
      "d": 110.88710416670074,
      "v": 106
    },
    {
      "midi": 67,
      "hit": false,
      "t": 161612.9140000003,
      "d": 114.91936250004801,
      "v": 96
    },
    {
      "midi": 69,
      "hit": false,
      "t": 161854.84950000036,
      "d": 137.0967833333416,
      "v": 110
    },
    {
      "midi": 64,
      "hit": false,
      "t": 162096.78500000038,
      "d": 92.74194166666712,
      "v": 116
    },
    {
      "midi": 62,
      "hit": false,
      "t": 162580.6560000004,
      "d": 1608.8710750000027,
      "v": 92
    },
    {
      "midi": 64,
      "hit": false,
      "t": 162580.6560000004,
      "d": 1622.98397916666,
      "v": 106
    },
    {
      "midi": 65,
      "hit": false,
      "t": 162580.6560000004,
      "d": 1637.0968833333172,
      "v": 100
    },
    {
      "midi": 69,
      "hit": false,
      "t": 162580.6560000004,
      "d": 1645.1613999999827,
      "v": 106
    },
    {
      "midi": 64,
      "hit": false,
      "t": 164758.07550000038,
      "d": 191.53227083332604,
      "v": 106
    },
    {
      "midi": 65,
      "hit": false,
      "t": 165000.01100000038,
      "d": 127.01613750000251,
      "v": 90
    },
    {
      "midi": 69,
      "hit": false,
      "t": 165241.94650000037,
      "d": 125.00000833332888,
      "v": 92
    },
    {
      "midi": 72,
      "hit": false,
      "t": 165483.88200000036,
      "d": 125.00000833332888,
      "v": 92
    },
    {
      "midi": 72,
      "hit": false,
      "t": 165725.81750000035,
      "d": 675.4032708333398,
      "v": 116
    },
    {
      "midi": 67,
      "hit": false,
      "t": 165967.75300000035,
      "d": 403.22583333333023,
      "v": 116
    },
    {
      "midi": 68,
      "hit": false,
      "t": 166451.62400000036,
      "d": 3643.1454041666875,
      "v": 116
    },
    {
      "midi": 65,
      "hit": false,
      "t": 166451.62400000036,
      "d": 3663.3066958333657,
      "v": 106
    },
    {
      "midi": 60,
      "hit": false,
      "t": 166451.62400000036,
      "d": 3671.371212500031,
      "v": 100
    },
    {
      "midi": 72,
      "hit": false,
      "t": 168145.17250000036,
      "d": 2002.016262500023,
      "v": 100
    },
    {
      "midi": 62,
      "hit": false,
      "t": 170322.59200000038,
      "d": 1991.935616666684,
      "v": 84
    },
    {
      "midi": 65,
      "hit": false,
      "t": 170322.59200000038,
      "d": 2167.338854166679,
      "v": 106
    },
    {
      "midi": 58,
      "hit": false,
      "t": 170322.59200000038,
      "d": 3322.5808666666853,
      "v": 90
    },
    {
      "midi": 72,
      "hit": false,
      "t": 172016.1405000004,
      "d": 1606.8549458333582,
      "v": 90
    },
    {
      "midi": 62,
      "hit": false,
      "t": 172500.0115000004,
      "d": 1169.3549166666635,
      "v": 60
    },
    {
      "midi": 65,
      "hit": false,
      "t": 172983.8825000004,
      "d": 637.0968166666571,
      "v": 80
    },
    {
      "midi": 58,
      "hit": false,
      "t": 174193.56000000038,
      "d": 2328.629187499988,
      "v": 90
    },
    {
      "midi": 62,
      "hit": false,
      "t": 174193.56000000038,
      "d": 2332.661445833335,
      "v": 96
    },
    {
      "midi": 63,
      "hit": false,
      "t": 174193.56000000038,
      "d": 2340.7259625000006,
      "v": 98
    },
    {
      "midi": 67,
      "hit": false,
      "t": 174193.56000000038,
      "d": 2344.758220833348,
      "v": 106
    },
    {
      "midi": 63,
      "hit": false,
      "t": 177096.7860000004,
      "d": 157.25807499999064,
      "v": 126
    },
    {
      "midi": 67,
      "hit": false,
      "t": 177338.7215000004,
      "d": 167.33872083332972,
      "v": 100
    },
    {
      "midi": 63,
      "hit": false,
      "t": 177580.65700000038,
      "d": 90.72581249999348,
      "v": 106
    },
    {
      "midi": 62,
      "hit": false,
      "t": 177822.59250000038,
      "d": 1435.4839666666521,
      "v": 100
    },
    {
      "midi": 55,
      "hit": false,
      "t": 178064.52800000037,
      "d": 1118.9516874999972,
      "v": 122
    },
    {
      "midi": 59,
      "hit": false,
      "t": 178064.52800000037,
      "d": 1141.12910833332,
      "v": 106
    },
    {
      "midi": 62,
      "hit": false,
      "t": 180000.01200000037,
      "d": 383.0645416666812,
      "v": 92
    },
    {
      "midi": 65,
      "hit": false,
      "t": 180000.01200000037,
      "d": 409.27422083335114,
      "v": 100
    },
    {
      "midi": 72,
      "hit": false,
      "t": 180000.01200000037,
      "d": 439.51615833333926,
      "v": 100
    },
    {
      "midi": 74,
      "hit": false,
      "t": 180967.75400000036,
      "d": 447.5806750000047,
      "v": 92
    },
    {
      "midi": 67,
      "hit": false,
      "t": 180967.75400000036,
      "d": 449.59680416667834,
      "v": 106
    },
    {
      "midi": 65,
      "hit": false,
      "t": 180967.75400000036,
      "d": 465.7258375000092,
      "v": 106
    },
    {
      "midi": 60,
      "hit": false,
      "t": 181935.49600000036,
      "d": 1536.2904250000138,
      "v": 96
    },
    {
      "midi": 63,
      "hit": false,
      "t": 181935.49600000036,
      "d": 1544.3549416666792,
      "v": 98
    },
    {
      "midi": 67,
      "hit": false,
      "t": 181935.49600000036,
      "d": 1552.4194583333447,
      "v": 106
    },
    {
      "midi": 60,
      "hit": false,
      "t": 183629.0445000004,
      "d": 2090.725945833343,
      "v": 80
    },
    {
      "midi": 63,
      "hit": false,
      "t": 183629.0445000004,
      "d": 2110.887237500021,
      "v": 98
    },
    {
      "midi": 67,
      "hit": false,
      "t": 183629.0445000004,
      "d": 2163.306595833361,
      "v": 106
    },
    {
      "midi": 58,
      "hit": false,
      "t": 183629.0445000004,
      "d": 2167.338854166708,
      "v": 116
    },
    {
      "midi": 60,
      "hit": false,
      "t": 185806.46400000044,
      "d": 1576.6130083333119,
      "v": 92
    },
    {
      "midi": 68,
      "hit": false,
      "t": 185806.46400000044,
      "d": 1576.6130083333119,
      "v": 98
    },
    {
      "midi": 63,
      "hit": false,
      "t": 185806.46400000044,
      "d": 1582.6613958333037,
      "v": 106
    },
    {
      "midi": 60,
      "hit": false,
      "t": 187500.01250000042,
      "d": 586.6935875000199,
      "v": 100
    },
    {
      "midi": 63,
      "hit": false,
      "t": 187500.01250000042,
      "d": 772.1774708333251,
      "v": 106
    },
    {
      "midi": 68,
      "hit": false,
      "t": 187500.01250000042,
      "d": 1657.2581749999954,
      "v": 90
    },
    {
      "midi": 60,
      "hit": false,
      "t": 188225.81900000043,
      "d": 913.3065124999848,
      "v": 88
    },
    {
      "midi": 63,
      "hit": false,
      "t": 188709.6900000004,
      "d": 427.41938333332655,
      "v": 106
    },
    {
      "midi": 65,
      "hit": false,
      "t": 189677.4320000004,
      "d": 1653.2259166666772,
      "v": 106
    },
    {
      "midi": 60,
      "hit": false,
      "t": 189677.4320000004,
      "d": 1655.2420458333509,
      "v": 100
    },
    {
      "midi": 68,
      "hit": false,
      "t": 189677.4320000004,
      "d": 1657.2581750000245,
      "v": 98
    },
    {
      "midi": 60,
      "hit": false,
      "t": 191370.98050000044,
      "d": 546.3710041666927,
      "v": 96
    },
    {
      "midi": 65,
      "hit": false,
      "t": 191370.98050000044,
      "d": 997.9839375000447,
      "v": 106
    },
    {
      "midi": 56,
      "hit": false,
      "t": 191370.98050000044,
      "d": 1524.1936500000593,
      "v": 98
    },
    {
      "midi": 60,
      "hit": false,
      "t": 192096.78700000048,
      "d": 860.887154166674,
      "v": 92
    },
    {
      "midi": 65,
      "hit": false,
      "t": 192580.6580000005,
      "d": 354.8387333333376,
      "v": 88
    },
    {
      "midi": 65,
      "hit": false,
      "t": 193548.4000000005,
      "d": 1566.532362500002,
      "v": 106
    },
    {
      "midi": 70,
      "hit": false,
      "t": 193548.4000000005,
      "d": 1669.354950000008,
      "v": 106
    },
    {
      "midi": 62,
      "hit": false,
      "t": 193548.4000000005,
      "d": 2272.17757083333,
      "v": 78
    },
    {
      "midi": 58,
      "hit": false,
      "t": 195241.9485000005,
      "d": 1816.5323791666597,
      "v": 90
    },
    {
      "midi": 65,
      "hit": false,
      "t": 195241.9485000005,
      "d": 1840.725929166656,
      "v": 88
    },
    {
      "midi": 62,
      "hit": false,
      "t": 195967.7550000005,
      "d": 1118.9516874999972,
      "v": 80
    },
    {
      "midi": 70,
      "hit": false,
      "t": 196451.62600000048,
      "d": 506.0484208333364,
      "v": 106
    },
    {
      "midi": 68,
      "hit": false,
      "t": 196935.4970000005,
      "d": 120.9677499999816,
      "v": 90
    },
    {
      "midi": 71,
      "hit": false,
      "t": 197419.36800000048,
      "d": 1629.032366666681,
      "v": 100
    },
    {
      "midi": 62,
      "hit": false,
      "t": 197419.36800000048,
      "d": 1635.0807541666727,
      "v": 80
    },
    {
      "midi": 67,
      "hit": false,
      "t": 197419.36800000048,
      "d": 1639.11301250002,
      "v": 100
    },
    {
      "midi": 65,
      "hit": false,
      "t": 197419.36800000048,
      "d": 1647.1775291666854,
      "v": 96
    },
    {
      "midi": 62,
      "hit": false,
      "t": 199112.9165000005,
      "d": 1189.5162083333125,
      "v": 68
    },
    {
      "midi": 67,
      "hit": false,
      "t": 199112.9165000005,
      "d": 1199.5968541666516,
      "v": 84
    },
    {
      "midi": 71,
      "hit": false,
      "t": 199112.9165000005,
      "d": 1201.6129833333252,
      "v": 80
    },
    {
      "midi": 65,
      "hit": false,
      "t": 199112.9165000005,
      "d": 1215.7258874999825,
      "v": 74
    },
    {
      "midi": 58,
      "hit": false,
      "t": 200806.46500000046,
      "d": 354.8387333333085,
      "v": 106
    },
    {
      "midi": 62,
      "hit": false,
      "t": 200806.46500000046,
      "d": 354.8387333333085,
      "v": 78
    },
    {
      "midi": 65,
      "hit": false,
      "t": 200806.46500000046,
      "d": 377.01615416663117,
      "v": 106
    },
    {
      "midi": 67,
      "hit": false,
      "t": 200806.46500000046,
      "d": 385.0806708332966,
      "v": 106
    },
    {
      "midi": 60,
      "hit": false,
      "t": 201290.33600000042,
      "d": 1370.9678333333577,
      "v": 100
    },
    {
      "midi": 62,
      "hit": false,
      "t": 201290.33600000042,
      "d": 1435.4839666666812,
      "v": 106
    },
    {
      "midi": 63,
      "hit": false,
      "t": 201290.33600000042,
      "d": 1463.7097750000248,
      "v": 116
    },
    {
      "midi": 67,
      "hit": false,
      "t": 201290.33600000042,
      "d": 1534.2742958333693,
      "v": 110
    },
    {
      "midi": 60,
      "hit": false,
      "t": 202741.94900000043,
      "d": 165.32259166668518,
      "v": 26
    },
    {
      "midi": 60,
      "hit": false,
      "t": 202983.88450000045,
      "d": 334.67744166665943,
      "v": 88
    },
    {
      "midi": 62,
      "hit": false,
      "t": 202983.88450000045,
      "d": 429.4355125000002,
      "v": 70
    },
    {
      "midi": 67,
      "hit": false,
      "t": 202983.88450000045,
      "d": 465.7258375000092,
      "v": 88
    },
    {
      "midi": 63,
      "hit": false,
      "t": 202983.88450000045,
      "d": 475.8064833333483,
      "v": 78
    },
    {
      "midi": 60,
      "hit": false,
      "t": 203467.75550000046,
      "d": 106.85484583332436,
      "v": 88
    },
    {
      "midi": 72,
      "hit": false,
      "t": 204193.56200000044,
      "d": 217.741949999996,
      "v": 116
    },
    {
      "midi": 67,
      "hit": false,
      "t": 204193.56200000044,
      "d": 254.03227500000503,
      "v": 110
    },
    {
      "midi": 67,
      "hit": false,
      "t": 204677.43300000046,
      "d": 56.45161666665808,
      "v": 62
    },
    {
      "midi": 63,
      "hit": false,
      "t": 204677.43300000046,
      "d": 64.51613333332352,
      "v": 106
    },
    {
      "midi": 60,
      "hit": false,
      "t": 205161.30400000044,
      "d": 1471.7742916666612,
      "v": 110
    },
    {
      "midi": 65,
      "hit": false,
      "t": 205161.30400000044,
      "d": 2300.4033791666734,
      "v": 110
    },
    {
      "midi": 67,
      "hit": false,
      "t": 205161.30400000044,
      "d": 2302.419508333347,
      "v": 110
    },
    {
      "midi": 68,
      "hit": false,
      "t": 205161.30400000044,
      "d": 2302.419508333347,
      "v": 116
    },
    {
      "midi": 60,
      "hit": false,
      "t": 206854.85250000044,
      "d": 608.8710083333426,
      "v": 66
    },
    {
      "midi": 68,
      "hit": false,
      "t": 207580.65900000045,
      "d": 102.8225875000062,
      "v": 56
    },
    {
      "midi": 67,
      "hit": false,
      "t": 207580.65900000045,
      "d": 104.83871666667983,
      "v": 62
    },
    {
      "midi": 65,
      "hit": false,
      "t": 207580.65900000045,
      "d": 114.9193625000189,
      "v": 60
    },
    {
      "midi": 60,
      "hit": false,
      "t": 207580.65900000045,
      "d": 116.93549166669254,
      "v": 60
    },
    {
      "midi": 67,
      "hit": false,
      "t": 208064.53000000046,
      "d": 427.41938333332655,
      "v": 116
    },
    {
      "midi": 65,
      "hit": false,
      "t": 208548.40100000045,
      "d": 110.88710416667163,
      "v": 106
    },
    {
      "midi": 62,
      "hit": false,
      "t": 209032.27200000046,
      "d": 1223.790404166648,
      "v": 116
    },
    {
      "midi": 70,
      "hit": false,
      "t": 209032.27200000046,
      "d": 1471.7742916666612,
      "v": 106
    },
    {
      "midi": 65,
      "hit": false,
      "t": 209032.27200000046,
      "d": 1485.8871958333184,
      "v": 117
    },
    {
      "midi": 72,
      "hit": false,
      "t": 209032.27200000046,
      "d": 2495.9679083333467,
      "v": 92
    },
    {
      "midi": 62,
      "hit": false,
      "t": 210483.88500000045,
      "d": 639.1129458333307,
      "v": 62
    },
    {
      "midi": 65,
      "hit": false,
      "t": 210725.82050000044,
      "d": 786.2903750000114,
      "v": 100
    },
    {
      "midi": 70,
      "hit": false,
      "t": 210725.82050000044,
      "d": 790.3226333333587,
      "v": 84
    },
    {
      "midi": 62,
      "hit": false,
      "t": 211451.62700000044,
      "d": 316.5322791667131,
      "v": 88
    },
    {
      "midi": 70,
      "hit": false,
      "t": 211935.4980000005,
      "d": 324.59679583332036,
      "v": 116
    },
    {
      "midi": 68,
      "hit": false,
      "t": 212419.36900000047,
      "d": 84.67742500000168,
      "v": 116
    },
    {
      "midi": 62,
      "hit": false,
      "t": 212903.2400000005,
      "d": 2066.5323958333465,
      "v": 96
    },
    {
      "midi": 71,
      "hit": false,
      "t": 212903.2400000005,
      "d": 2092.7420750000165,
      "v": 106
    },
    {
      "midi": 65,
      "hit": false,
      "t": 212903.2400000005,
      "d": 2098.7904625000083,
      "v": 106
    },
    {
      "midi": 67,
      "hit": false,
      "t": 212903.2400000005,
      "d": 2102.8227208333556,
      "v": 106
    },
    {
      "midi": 62,
      "hit": false,
      "t": 215080.6595000005,
      "d": 604.8387499999953,
      "v": 84
    },
    {
      "midi": 65,
      "hit": false,
      "t": 215080.6595000005,
      "d": 828.6290875000122,
      "v": 78
    },
    {
      "midi": 67,
      "hit": false,
      "t": 215080.6595000005,
      "d": 1054.4355541666737,
      "v": 78
    },
    {
      "midi": 71,
      "hit": false,
      "t": 215080.6595000005,
      "d": 1733.8710833333607,
      "v": 88
    },
    {
      "midi": 62,
      "hit": false,
      "t": 215806.4660000005,
      "d": 883.0645750000258,
      "v": 92
    },
    {
      "midi": 65,
      "hit": false,
      "t": 216290.33700000052,
      "d": 415.32260833334294,
      "v": 84
    },
    {
      "midi": 67,
      "hit": false,
      "t": 216290.33700000052,
      "d": 508.06455000001006,
      "v": 78
    },
    {
      "midi": 69,
      "hit": false,
      "t": 216774.20800000054,
      "d": 989.919420833321,
      "v": 110
    },
    {
      "midi": 62,
      "hit": false,
      "t": 216774.20800000054,
      "d": 997.9839374999865,
      "v": 96
    },
    {
      "midi": 64,
      "hit": false,
      "t": 216774.20800000054,
      "d": 1000.0000666666601,
      "v": 100
    },
    {
      "midi": 65,
      "hit": false,
      "t": 216774.20800000054,
      "d": 1000.0000666666601,
      "v": 106
    },
    {
      "midi": 60,
      "hit": false,
      "t": 218467.75650000054,
      "d": 606.854879166669,
      "v": 106
    },
    {
      "midi": 64,
      "hit": false,
      "t": 218467.75650000054,
      "d": 747.9839208333287,
      "v": 106
    },
    {
      "midi": 65,
      "hit": false,
      "t": 218467.75650000054,
      "d": 826.6129583333386,
      "v": 106
    },
    {
      "midi": 69,
      "hit": false,
      "t": 218467.75650000054,
      "d": 1084.6774916666618,
      "v": 92
    },
    {
      "midi": 60,
      "hit": false,
      "t": 219193.56300000055,
      "d": 697.5806916666625,
      "v": 96
    },
    {
      "midi": 64,
      "hit": false,
      "t": 219677.43400000053,
      "d": 223.7903375000169,
      "v": 70
    },
    {
      "midi": 65,
      "hit": false,
      "t": 219677.43400000053,
      "d": 252.0161458333605,
      "v": 78
    },
    {
      "midi": 69,
      "hit": false,
      "t": 219677.43400000053,
      "d": 266.12905000001774,
      "v": 88
    },
    {
      "midi": 70,
      "hit": false,
      "t": 220645.17600000056,
      "d": 1149.1936249999853,
      "v": 116
    },
    {
      "midi": 67,
      "hit": false,
      "t": 220645.17600000056,
      "d": 1165.3226583333162,
      "v": 110
    },
    {
      "midi": 62,
      "hit": false,
      "t": 220645.17600000056,
      "d": 1191.5323374999862,
      "v": 92
    },
    {
      "midi": 65,
      "hit": false,
      "t": 220645.17600000056,
      "d": 1191.5323374999862,
      "v": 110
    },
    {
      "midi": 62,
      "hit": false,
      "t": 222096.78900000054,
      "d": 610.8871374999871,
      "v": 74
    },
    {
      "midi": 67,
      "hit": false,
      "t": 222096.78900000054,
      "d": 943.548449999973,
      "v": 88
    },
    {
      "midi": 65,
      "hit": false,
      "t": 222096.78900000054,
      "d": 961.6936124999775,
      "v": 88
    },
    {
      "midi": 70,
      "hit": false,
      "t": 222096.78900000054,
      "d": 969.7581291666429,
      "v": 78
    },
    {
      "midi": 62,
      "hit": false,
      "t": 223064.5310000005,
      "d": 278.22582500000135,
      "v": 62
    },
    {
      "midi": 69,
      "hit": false,
      "t": 223548.40200000053,
      "d": 354.8387333333376,
      "v": 96
    },
    {
      "midi": 67,
      "hit": false,
      "t": 224032.27300000054,
      "d": 112.90323333334527,
      "v": 116
    },
    {
      "midi": 64,
      "hit": false,
      "t": 224516.14400000055,
      "d": 1060.4839416666946,
      "v": 110
    },
    {
      "midi": 72,
      "hit": false,
      "t": 224516.14400000055,
      "d": 1292.3387958333478,
      "v": 110
    },
    {
      "midi": 67,
      "hit": false,
      "t": 224516.14400000055,
      "d": 1304.4355708333605,
      "v": 116
    },
    {
      "midi": 64,
      "hit": false,
      "t": 225967.7570000006,
      "d": 594.7581041666563,
      "v": 70
    },
    {
      "midi": 67,
      "hit": false,
      "t": 225967.7570000006,
      "d": 788.3065041666559,
      "v": 78
    },
    {
      "midi": 72,
      "hit": false,
      "t": 225967.7570000006,
      "d": 1175.4033041666553,
      "v": 70
    },
    {
      "midi": 64,
      "hit": false,
      "t": 226693.56350000057,
      "d": 534.27422916668,
      "v": 80
    },
    {
      "midi": 67,
      "hit": false,
      "t": 227177.43450000059,
      "d": 66.53226249999716,
      "v": 28
    },
    {
      "midi": 72,
      "hit": false,
      "t": 227419.37000000058,
      "d": 217.741949999996,
      "v": 106
    },
    {
      "midi": 70,
      "hit": false,
      "t": 227903.24100000056,
      "d": 72.58064999998896,
      "v": 106
    },
    {
      "midi": 67,
      "hit": false,
      "t": 228387.11200000055,
      "d": 1215.7258875000116,
      "v": 110
    },
    {
      "midi": 69,
      "hit": false,
      "t": 228387.11200000055,
      "d": 1235.8871791666897,
      "v": 96
    },
    {
      "midi": 64,
      "hit": false,
      "t": 228387.11200000055,
      "d": 1256.048470833368,
      "v": 106
    },
    {
      "midi": 61,
      "hit": false,
      "t": 228387.11200000055,
      "d": 1272.1775041666988,
      "v": 98
    },
    {
      "midi": 64,
      "hit": false,
      "t": 229838.7250000006,
      "d": 721.7742416666588,
      "v": 88
    },
    {
      "midi": 61,
      "hit": false,
      "t": 229838.7250000006,
      "d": 729.8387583333242,
      "v": 98
    },
    {
      "midi": 61,
      "hit": false,
      "t": 230806.4670000006,
      "d": 1372.9839625000022,
      "v": 106
    },
    {
      "midi": 69,
      "hit": false,
      "t": 230806.4670000006,
      "d": 1397.1775124999986,
      "v": 88
    },
    {
      "midi": 64,
      "hit": false,
      "t": 230806.4670000006,
      "d": 1477.822679166682,
      "v": 92
    },
    {
      "midi": 67,
      "hit": false,
      "t": 230806.4670000006,
      "d": 1477.822679166682,
      "v": 92
    },
    {
      "midi": 61,
      "hit": false,
      "t": 232258.0800000006,
      "d": 1292.3387958333478,
      "v": 126
    },
    {
      "midi": 69,
      "hit": false,
      "t": 232258.0800000006,
      "d": 1300.4033125000133,
      "v": 116
    },
    {
      "midi": 66,
      "hit": false,
      "t": 232258.0800000006,
      "d": 1306.451700000005,
      "v": 100
    },
    {
      "midi": 54,
      "hit": false,
      "t": 232258.0800000006,
      "d": 1314.5162166666705,
      "v": 98
    },
    {
      "midi": 61,
      "hit": false,
      "t": 234193.5640000006,
      "d": 352.82260416666395,
      "v": 60
    },
    {
      "midi": 69,
      "hit": false,
      "t": 234193.5640000006,
      "d": 453.6290624999965,
      "v": 84
    },
    {
      "midi": 66,
      "hit": false,
      "t": 234193.5640000006,
      "d": 493.9516458333237,
      "v": 72
    },
    {
      "midi": 54,
      "hit": false,
      "t": 234193.5640000006,
      "d": 588.7097166666645,
      "v": 90
    },
    {
      "midi": 61,
      "hit": false,
      "t": 234677.43500000058,
      "d": 175.40323750002426,
      "v": 36
    },
    {
      "midi": 54,
      "hit": false,
      "t": 234919.3705000006,
      "d": 304.4355041666713,
      "v": 20
    },
    {
      "midi": 61,
      "hit": false,
      "t": 235161.3060000006,
      "d": 183.4677541666897,
      "v": 78
    },
    {
      "midi": 66,
      "hit": false,
      "t": 235161.3060000006,
      "d": 227.82259583336418,
      "v": 90
    },
    {
      "midi": 69,
      "hit": false,
      "t": 235161.3060000006,
      "d": 233.87098333335598,
      "v": 88
    },
    {
      "midi": 47,
      "hit": false,
      "t": 236129.0480000006,
      "d": 1054.4355541666737,
      "v": 110
    },
    {
      "midi": 66,
      "hit": false,
      "t": 236129.0480000006,
      "d": 1104.83878333334,
      "v": 98
    },
    {
      "midi": 59,
      "hit": false,
      "t": 236129.0480000006,
      "d": 1112.9033000000054,
      "v": 96
    },
    {
      "midi": 61,
      "hit": false,
      "t": 236129.0480000006,
      "d": 1118.9516874999972,
      "v": 98
    },
    {
      "midi": 62,
      "hit": false,
      "t": 236129.0480000006,
      "d": 1118.9516874999972,
      "v": 100
    },
    {
      "midi": 47,
      "hit": false,
      "t": 237580.66100000057,
      "d": 110.88710416667163,
      "v": 42
    },
    {
      "midi": 66,
      "hit": false,
      "t": 238064.5320000006,
      "d": 651.2097208333435,
      "v": 72
    },
    {
      "midi": 59,
      "hit": false,
      "t": 238064.5320000006,
      "d": 657.2581083333353,
      "v": 88
    },
    {
      "midi": 62,
      "hit": false,
      "t": 238064.5320000006,
      "d": 667.3387541666743,
      "v": 92
    },
    {
      "midi": 61,
      "hit": false,
      "t": 238064.5320000006,
      "d": 671.3710125000216,
      "v": 78
    },
    {
      "midi": 59,
      "hit": false,
      "t": 239032.27400000062,
      "d": 344.7580874999985,
      "v": 100
    },
    {
      "midi": 61,
      "hit": false,
      "t": 239032.27400000062,
      "d": 393.14518749999115,
      "v": 106
    },
    {
      "midi": 66,
      "hit": false,
      "t": 239032.27400000062,
      "d": 397.1774458333384,
      "v": 98
    },
    {
      "midi": 62,
      "hit": false,
      "t": 239032.27400000062,
      "d": 405.24196250000386,
      "v": 106
    },
    {
      "midi": 59,
      "hit": false,
      "t": 239516.14500000063,
      "d": 131.04839583332068,
      "v": 52
    },
    {
      "midi": 68,
      "hit": false,
      "t": 240000.0160000006,
      "d": 727.8226291666797,
      "v": 116
    },
    {
      "midi": 64,
      "hit": false,
      "t": 240000.0160000006,
      "d": 745.9677916666842,
      "v": 116
    },
    {
      "midi": 59,
      "hit": false,
      "t": 240000.0160000006,
      "d": 747.9839208333578,
      "v": 96
    },
    {
      "midi": 64,
      "hit": false,
      "t": 240967.75800000064,
      "d": 120.96775000001071,
      "v": 74
    },
    {
      "midi": 68,
      "hit": false,
      "t": 240967.75800000064,
      "d": 122.98387916668435,
      "v": 60
    },
    {
      "midi": 59,
      "hit": false,
      "t": 240967.75800000064,
      "d": 127.01613750003162,
      "v": 70
    },
    {
      "midi": 59,
      "hit": false,
      "t": 241935.50000000067,
      "d": 758.0645666666678,
      "v": 78
    },
    {
      "midi": 64,
      "hit": false,
      "t": 241935.50000000067,
      "d": 1020.1613583333383,
      "v": 106
    },
    {
      "midi": 68,
      "hit": false,
      "t": 241935.50000000067,
      "d": 1413.3065458333294,
      "v": 90
    },
    {
      "midi": 59,
      "hit": false,
      "t": 242903.24200000067,
      "d": 485.88712916665827,
      "v": 96
    },
    {
      "midi": 68,
      "hit": false,
      "t": 243870.98400000067,
      "d": 923.387158333353,
      "v": 98
    },
    {
      "midi": 61,
      "hit": false,
      "t": 243870.98400000067,
      "d": 929.4355458333448,
      "v": 98
    },
    {
      "midi": 65,
      "hit": false,
      "t": 243870.98400000067,
      "d": 963.7097416666802,
      "v": 106
    },
    {
      "midi": 61,
      "hit": false,
      "t": 245564.53250000067,
      "d": 596.7742333333299,
      "v": 106
    },
    {
      "midi": 65,
      "hit": false,
      "t": 245564.53250000067,
      "d": 707.6613375000015,
      "v": 100
    },
    {
      "midi": 68,
      "hit": false,
      "t": 245564.53250000067,
      "d": 933.467804166663,
      "v": 84
    },
    {
      "midi": 61,
      "hit": false,
      "t": 246290.33900000068,
      "d": 233.87098333332688,
      "v": 98
    },
    {
      "midi": 61,
      "hit": false,
      "t": 246774.21000000066,
      "d": 870.9678000000131,
      "v": 98
    },
    {
      "midi": 65,
      "hit": false,
      "t": 246774.21000000066,
      "d": 967.7420000000275,
      "v": 106
    },
    {
      "midi": 68,
      "hit": false,
      "t": 246774.21000000066,
      "d": 971.7742583333747,
      "v": 90
    },
    {
      "midi": 61,
      "hit": false,
      "t": 247741.9520000007,
      "d": 1292.3387958333478,
      "v": 116
    },
    {
      "midi": 69,
      "hit": false,
      "t": 247741.9520000007,
      "d": 1300.4033125000133,
      "v": 106
    },
    {
      "midi": 66,
      "hit": false,
      "t": 247741.9520000007,
      "d": 1306.451700000005,
      "v": 90
    },
    {
      "midi": 54,
      "hit": false,
      "t": 247741.9520000007,
      "d": 1314.5162166666705,
      "v": 98
    },
    {
      "midi": 61,
      "hit": false,
      "t": 249677.4360000007,
      "d": 352.82260416666395,
      "v": 60
    },
    {
      "midi": 69,
      "hit": false,
      "t": 249677.4360000007,
      "d": 453.6290624999965,
      "v": 84
    },
    {
      "midi": 66,
      "hit": false,
      "t": 249677.4360000007,
      "d": 493.9516458333237,
      "v": 72
    },
    {
      "midi": 54,
      "hit": false,
      "t": 249677.4360000007,
      "d": 588.7097166666645,
      "v": 90
    },
    {
      "midi": 61,
      "hit": false,
      "t": 250161.30700000067,
      "d": 175.40323750002426,
      "v": 36
    },
    {
      "midi": 54,
      "hit": false,
      "t": 250403.2425000007,
      "d": 304.4355041666713,
      "v": 20
    },
    {
      "midi": 61,
      "hit": false,
      "t": 250645.17800000068,
      "d": 183.4677541666897,
      "v": 78
    },
    {
      "midi": 66,
      "hit": false,
      "t": 250645.17800000068,
      "d": 227.82259583336418,
      "v": 90
    },
    {
      "midi": 69,
      "hit": false,
      "t": 250645.17800000068,
      "d": 233.87098333335598,
      "v": 88
    },
    {
      "midi": 47,
      "hit": false,
      "t": 251612.92000000068,
      "d": 1054.4355541666737,
      "v": 110
    },
    {
      "midi": 66,
      "hit": false,
      "t": 251612.92000000068,
      "d": 1104.83878333334,
      "v": 98
    },
    {
      "midi": 59,
      "hit": false,
      "t": 251612.92000000068,
      "d": 1112.9033000000054,
      "v": 96
    },
    {
      "midi": 61,
      "hit": false,
      "t": 251612.92000000068,
      "d": 1118.9516874999972,
      "v": 98
    },
    {
      "midi": 62,
      "hit": false,
      "t": 251612.92000000068,
      "d": 1118.9516874999972,
      "v": 100
    },
    {
      "midi": 47,
      "hit": false,
      "t": 253064.53300000067,
      "d": 110.88710416667163,
      "v": 42
    },
    {
      "midi": 66,
      "hit": false,
      "t": 253548.40400000068,
      "d": 651.2097208333435,
      "v": 72
    },
    {
      "midi": 59,
      "hit": false,
      "t": 253548.40400000068,
      "d": 657.2581083333353,
      "v": 88
    },
    {
      "midi": 62,
      "hit": false,
      "t": 253548.40400000068,
      "d": 667.3387541666743,
      "v": 92
    },
    {
      "midi": 61,
      "hit": false,
      "t": 253548.40400000068,
      "d": 671.3710125000216,
      "v": 78
    },
    {
      "midi": 59,
      "hit": false,
      "t": 254516.1460000007,
      "d": 344.7580874999985,
      "v": 100
    },
    {
      "midi": 61,
      "hit": false,
      "t": 254516.1460000007,
      "d": 393.14518749999115,
      "v": 106
    },
    {
      "midi": 66,
      "hit": false,
      "t": 254516.1460000007,
      "d": 397.1774458333384,
      "v": 98
    },
    {
      "midi": 62,
      "hit": false,
      "t": 254516.1460000007,
      "d": 405.24196250000386,
      "v": 106
    },
    {
      "midi": 59,
      "hit": false,
      "t": 255000.01700000072,
      "d": 131.04839583332068,
      "v": 52
    },
    {
      "midi": 68,
      "hit": false,
      "t": 255483.8880000007,
      "d": 727.8226291666797,
      "v": 116
    },
    {
      "midi": 64,
      "hit": false,
      "t": 255483.8880000007,
      "d": 745.9677916666842,
      "v": 116
    },
    {
      "midi": 59,
      "hit": false,
      "t": 255483.8880000007,
      "d": 747.9839208333578,
      "v": 96
    },
    {
      "midi": 64,
      "hit": false,
      "t": 256451.63000000073,
      "d": 120.96775000001071,
      "v": 74
    },
    {
      "midi": 68,
      "hit": false,
      "t": 256451.63000000073,
      "d": 122.98387916668435,
      "v": 60
    },
    {
      "midi": 59,
      "hit": false,
      "t": 256451.63000000073,
      "d": 127.01613750003162,
      "v": 70
    },
    {
      "midi": 59,
      "hit": false,
      "t": 257419.37200000076,
      "d": 758.0645666666678,
      "v": 78
    },
    {
      "midi": 64,
      "hit": false,
      "t": 257419.37200000076,
      "d": 1020.1613583333383,
      "v": 106
    },
    {
      "midi": 68,
      "hit": false,
      "t": 257419.37200000076,
      "d": 1413.3065458333294,
      "v": 90
    },
    {
      "midi": 59,
      "hit": false,
      "t": 258387.11400000076,
      "d": 485.88712916665827,
      "v": 96
    },
    {
      "midi": 68,
      "hit": false,
      "t": 259354.85600000076,
      "d": 923.387158333353,
      "v": 98
    },
    {
      "midi": 61,
      "hit": false,
      "t": 259354.85600000076,
      "d": 929.4355458333448,
      "v": 98
    },
    {
      "midi": 65,
      "hit": false,
      "t": 259354.85600000076,
      "d": 963.7097416666802,
      "v": 106
    },
    {
      "midi": 61,
      "hit": false,
      "t": 261048.40450000076,
      "d": 596.7742333333299,
      "v": 106
    },
    {
      "midi": 65,
      "hit": false,
      "t": 261048.40450000076,
      "d": 707.6613375000015,
      "v": 100
    },
    {
      "midi": 68,
      "hit": false,
      "t": 261048.40450000076,
      "d": 933.467804166663,
      "v": 84
    },
    {
      "midi": 61,
      "hit": false,
      "t": 261774.21100000077,
      "d": 233.87098333332688,
      "v": 98
    },
    {
      "midi": 61,
      "hit": false,
      "t": 262258.08200000075,
      "d": 897.1774791667121,
      "v": 98
    },
    {
      "midi": 65,
      "hit": false,
      "t": 262258.08200000075,
      "d": 967.7420000000275,
      "v": 106
    },
    {
      "midi": 68,
      "hit": false,
      "t": 262258.08200000075,
      "d": 971.7742583333747,
      "v": 90
    },
    {
      "midi": 61,
      "hit": false,
      "t": 263225.8240000008,
      "d": 1292.3387958333478,
      "v": 116
    },
    {
      "midi": 69,
      "hit": false,
      "t": 263225.8240000008,
      "d": 1300.4033125000424,
      "v": 106
    },
    {
      "midi": 66,
      "hit": false,
      "t": 263225.8240000008,
      "d": 1306.4517000000342,
      "v": 90
    },
    {
      "midi": 54,
      "hit": false,
      "t": 263225.8240000008,
      "d": 1314.5162166667287,
      "v": 98
    },
    {
      "midi": 61,
      "hit": false,
      "t": 265161.30800000083,
      "d": 352.82260416663485,
      "v": 60
    },
    {
      "midi": 69,
      "hit": false,
      "t": 265161.30800000083,
      "d": 453.6290624999674,
      "v": 84
    },
    {
      "midi": 66,
      "hit": false,
      "t": 265161.30800000083,
      "d": 493.9516458333237,
      "v": 72
    },
    {
      "midi": 54,
      "hit": false,
      "t": 265161.30800000083,
      "d": 588.7097166666645,
      "v": 90
    },
    {
      "midi": 61,
      "hit": false,
      "t": 265645.1790000008,
      "d": 175.40323749999516,
      "v": 36
    },
    {
      "midi": 54,
      "hit": false,
      "t": 265887.11450000084,
      "d": 304.4355041667004,
      "v": 20
    },
    {
      "midi": 61,
      "hit": false,
      "t": 266129.05000000086,
      "d": 183.4677541666897,
      "v": 78
    },
    {
      "midi": 66,
      "hit": false,
      "t": 266129.05000000086,
      "d": 227.82259583333507,
      "v": 90
    },
    {
      "midi": 69,
      "hit": false,
      "t": 266129.05000000086,
      "d": 233.87098333332688,
      "v": 88
    },
    {
      "midi": 47,
      "hit": false,
      "t": 267096.7920000009,
      "d": 1054.4355541666155,
      "v": 110
    },
    {
      "midi": 66,
      "hit": false,
      "t": 267096.7920000009,
      "d": 1104.8387833333109,
      "v": 98
    },
    {
      "midi": 59,
      "hit": false,
      "t": 267096.7920000009,
      "d": 1112.9033000000054,
      "v": 96
    },
    {
      "midi": 61,
      "hit": false,
      "t": 267096.7920000009,
      "d": 1118.9516874999972,
      "v": 98
    },
    {
      "midi": 62,
      "hit": false,
      "t": 267096.7920000009,
      "d": 1118.9516874999972,
      "v": 100
    },
    {
      "midi": 47,
      "hit": false,
      "t": 268548.4050000009,
      "d": 110.88710416667163,
      "v": 42
    },
    {
      "midi": 66,
      "hit": false,
      "t": 269032.2760000009,
      "d": 651.2097208333435,
      "v": 72
    },
    {
      "midi": 59,
      "hit": false,
      "t": 269032.2760000009,
      "d": 657.2581083333353,
      "v": 88
    },
    {
      "midi": 62,
      "hit": false,
      "t": 269032.2760000009,
      "d": 667.3387541666743,
      "v": 92
    },
    {
      "midi": 61,
      "hit": false,
      "t": 269032.2760000009,
      "d": 671.3710125000216,
      "v": 78
    },
    {
      "midi": 59,
      "hit": false,
      "t": 270000.0180000009,
      "d": 344.7580874999985,
      "v": 100
    },
    {
      "midi": 61,
      "hit": false,
      "t": 270000.0180000009,
      "d": 393.14518749999115,
      "v": 106
    },
    {
      "midi": 66,
      "hit": false,
      "t": 270000.0180000009,
      "d": 397.1774458333384,
      "v": 98
    },
    {
      "midi": 62,
      "hit": false,
      "t": 270000.0180000009,
      "d": 405.24196250003297,
      "v": 106
    },
    {
      "midi": 59,
      "hit": false,
      "t": 270483.88900000096,
      "d": 131.0483958333498,
      "v": 52
    },
    {
      "midi": 68,
      "hit": false,
      "t": 270967.760000001,
      "d": 727.8226291666506,
      "v": 116
    },
    {
      "midi": 64,
      "hit": false,
      "t": 270967.760000001,
      "d": 745.967791666626,
      "v": 116
    },
    {
      "midi": 59,
      "hit": false,
      "t": 270967.760000001,
      "d": 747.9839208332705,
      "v": 96
    },
    {
      "midi": 64,
      "hit": false,
      "t": 271935.5020000009,
      "d": 120.96775000001071,
      "v": 74
    },
    {
      "midi": 68,
      "hit": false,
      "t": 271935.5020000009,
      "d": 122.98387916665524,
      "v": 60
    },
    {
      "midi": 59,
      "hit": false,
      "t": 271935.5020000009,
      "d": 127.01613750000251,
      "v": 70
    },
    {
      "midi": 59,
      "hit": false,
      "t": 272903.24400000094,
      "d": 758.0645666666678,
      "v": 78
    },
    {
      "midi": 64,
      "hit": false,
      "t": 272903.24400000094,
      "d": 1020.1613583333674,
      "v": 106
    },
    {
      "midi": 68,
      "hit": false,
      "t": 272903.24400000094,
      "d": 1413.3065458333585,
      "v": 90
    },
    {
      "midi": 59,
      "hit": false,
      "t": 273870.98600000096,
      "d": 485.8871291666874,
      "v": 96
    },
    {
      "midi": 68,
      "hit": false,
      "t": 274838.728000001,
      "d": 923.3871583333239,
      "v": 98
    },
    {
      "midi": 61,
      "hit": false,
      "t": 274838.728000001,
      "d": 929.4355458333157,
      "v": 98
    },
    {
      "midi": 65,
      "hit": false,
      "t": 274838.728000001,
      "d": 963.709741666622,
      "v": 106
    },
    {
      "midi": 61,
      "hit": false,
      "t": 276532.27650000097,
      "d": 596.7742333333008,
      "v": 106
    },
    {
      "midi": 65,
      "hit": false,
      "t": 276532.27650000097,
      "d": 707.6613374999724,
      "v": 100
    },
    {
      "midi": 68,
      "hit": false,
      "t": 276532.27650000097,
      "d": 933.4678041666048,
      "v": 84
    },
    {
      "midi": 61,
      "hit": false,
      "t": 277258.0830000009,
      "d": 233.87098333332688,
      "v": 98
    },
    {
      "midi": 61,
      "hit": false,
      "t": 277741.9540000009,
      "d": 897.1774791667121,
      "v": 98
    },
    {
      "midi": 65,
      "hit": false,
      "t": 277741.9540000009,
      "d": 967.7420000000275,
      "v": 106
    },
    {
      "midi": 68,
      "hit": false,
      "t": 277741.9540000009,
      "d": 971.7742583333747,
      "v": 90
    },
    {
      "midi": 61,
      "hit": false,
      "t": 278709.6960000009,
      "d": 1292.3387958333478,
      "v": 116
    },
    {
      "midi": 69,
      "hit": false,
      "t": 278709.6960000009,
      "d": 1300.4033125000424,
      "v": 106
    },
    {
      "midi": 66,
      "hit": false,
      "t": 278709.6960000009,
      "d": 1306.4517000000342,
      "v": 90
    },
    {
      "midi": 54,
      "hit": false,
      "t": 278709.6960000009,
      "d": 1314.5162166667287,
      "v": 98
    },
    {
      "midi": 61,
      "hit": false,
      "t": 280645.180000001,
      "d": 352.82260416663485,
      "v": 60
    },
    {
      "midi": 69,
      "hit": false,
      "t": 280645.180000001,
      "d": 453.6290624999674,
      "v": 84
    },
    {
      "midi": 66,
      "hit": false,
      "t": 280645.180000001,
      "d": 493.9516458333237,
      "v": 72
    },
    {
      "midi": 54,
      "hit": false,
      "t": 280645.180000001,
      "d": 588.7097166666645,
      "v": 90
    },
    {
      "midi": 61,
      "hit": false,
      "t": 281129.05100000097,
      "d": 175.40323749999516,
      "v": 36
    },
    {
      "midi": 54,
      "hit": false,
      "t": 281370.986500001,
      "d": 304.4355041667004,
      "v": 20
    },
    {
      "midi": 61,
      "hit": false,
      "t": 281612.922000001,
      "d": 183.4677541666897,
      "v": 78
    },
    {
      "midi": 66,
      "hit": false,
      "t": 281612.922000001,
      "d": 227.82259583333507,
      "v": 90
    },
    {
      "midi": 69,
      "hit": false,
      "t": 281612.922000001,
      "d": 233.87098333332688,
      "v": 88
    },
    {
      "midi": 47,
      "hit": false,
      "t": 282580.66400000104,
      "d": 1054.4355541666155,
      "v": 110
    },
    {
      "midi": 66,
      "hit": false,
      "t": 282580.66400000104,
      "d": 1104.8387833333109,
      "v": 98
    },
    {
      "midi": 59,
      "hit": false,
      "t": 282580.66400000104,
      "d": 1112.9033000000054,
      "v": 96
    },
    {
      "midi": 61,
      "hit": false,
      "t": 282580.66400000104,
      "d": 1118.9516874999972,
      "v": 98
    },
    {
      "midi": 62,
      "hit": false,
      "t": 282580.66400000104,
      "d": 1118.9516874999972,
      "v": 100
    },
    {
      "midi": 47,
      "hit": false,
      "t": 284032.27700000105,
      "d": 110.88710416667163,
      "v": 42
    },
    {
      "midi": 66,
      "hit": false,
      "t": 284516.14800000103,
      "d": 651.2097208333435,
      "v": 72
    },
    {
      "midi": 59,
      "hit": false,
      "t": 284516.14800000103,
      "d": 657.2581083333353,
      "v": 88
    },
    {
      "midi": 62,
      "hit": false,
      "t": 284516.14800000103,
      "d": 667.3387541666743,
      "v": 92
    },
    {
      "midi": 61,
      "hit": false,
      "t": 284516.14800000103,
      "d": 671.3710125000216,
      "v": 78
    },
    {
      "midi": 59,
      "hit": false,
      "t": 285483.89000000106,
      "d": 344.7580874999985,
      "v": 100
    },
    {
      "midi": 61,
      "hit": false,
      "t": 285483.89000000106,
      "d": 393.14518749999115,
      "v": 106
    },
    {
      "midi": 66,
      "hit": false,
      "t": 285483.89000000106,
      "d": 397.1774458333384,
      "v": 98
    },
    {
      "midi": 62,
      "hit": false,
      "t": 285483.89000000106,
      "d": 405.24196250003297,
      "v": 106
    },
    {
      "midi": 59,
      "hit": false,
      "t": 285967.7610000011,
      "d": 131.0483958333498,
      "v": 52
    },
    {
      "midi": 68,
      "hit": false,
      "t": 286451.63200000115,
      "d": 727.8226291666506,
      "v": 116
    },
    {
      "midi": 64,
      "hit": false,
      "t": 286451.63200000115,
      "d": 745.967791666626,
      "v": 116
    },
    {
      "midi": 59,
      "hit": false,
      "t": 286451.63200000115,
      "d": 747.9839208332705,
      "v": 96
    },
    {
      "midi": 64,
      "hit": false,
      "t": 287419.37400000106,
      "d": 120.96775000001071,
      "v": 74
    },
    {
      "midi": 68,
      "hit": false,
      "t": 287419.37400000106,
      "d": 122.98387916665524,
      "v": 60
    },
    {
      "midi": 59,
      "hit": false,
      "t": 287419.37400000106,
      "d": 127.01613750000251,
      "v": 70
    },
    {
      "midi": 59,
      "hit": false,
      "t": 288387.1160000011,
      "d": 758.0645666666678,
      "v": 78
    },
    {
      "midi": 64,
      "hit": false,
      "t": 288387.1160000011,
      "d": 1020.1613583333674,
      "v": 106
    },
    {
      "midi": 68,
      "hit": false,
      "t": 288387.1160000011,
      "d": 1413.3065458333585,
      "v": 90
    },
    {
      "midi": 59,
      "hit": false,
      "t": 289354.8580000011,
      "d": 485.8871291666874,
      "v": 96
    },
    {
      "midi": 68,
      "hit": false,
      "t": 290322.60000000114,
      "d": 923.3871583333239,
      "v": 98
    },
    {
      "midi": 61,
      "hit": false,
      "t": 290322.60000000114,
      "d": 929.4355458333157,
      "v": 98
    },
    {
      "midi": 65,
      "hit": false,
      "t": 290322.60000000114,
      "d": 963.709741666622,
      "v": 106
    },
    {
      "midi": 61,
      "hit": false,
      "t": 292016.1485000011,
      "d": 596.7742333333008,
      "v": 106
    },
    {
      "midi": 65,
      "hit": false,
      "t": 292016.1485000011,
      "d": 707.6613374999724,
      "v": 100
    },
    {
      "midi": 68,
      "hit": false,
      "t": 292016.1485000011,
      "d": 933.4678041666048,
      "v": 84
    },
    {
      "midi": 61,
      "hit": false,
      "t": 292741.95500000106,
      "d": 233.87098333332688,
      "v": 98
    },
    {
      "midi": 61,
      "hit": false,
      "t": 293225.82600000105,
      "d": 870.9678000000422,
      "v": 98
    },
    {
      "midi": 65,
      "hit": false,
      "t": 293225.82600000105,
      "d": 967.7420000000275,
      "v": 106
    },
    {
      "midi": 68,
      "hit": false,
      "t": 293225.82600000105,
      "d": 971.7742583333747,
      "v": 90
    },
    {
      "midi": 61,
      "hit": false,
      "t": 294193.5680000011,
      "d": 1292.3387958333478,
      "v": 116
    },
    {
      "midi": 69,
      "hit": false,
      "t": 294193.5680000011,
      "d": 1300.4033125000424,
      "v": 106
    },
    {
      "midi": 66,
      "hit": false,
      "t": 294193.5680000011,
      "d": 1306.4517000000342,
      "v": 90
    },
    {
      "midi": 54,
      "hit": false,
      "t": 294193.5680000011,
      "d": 1314.5162166667287,
      "v": 98
    }
  ]
}