{
  "jsonPath": "Unknown/Unknown/Showtime (instrumentals)/party-schlager-shot.json",
  "path": "Unknown\\Unknown\\Showtime (instrumentals)\\Party  Schlager (Shot).mid",
  "name": "Party  Schlager (Shot)",
  "difficulty": "Advanced",
  "bpm": 125,
  "notes": [
    {
      "midi": 57,
      "hit": false,
      "t": 11520,
      "d": 597.5,
      "v": 86
    },
    {
      "midi": 60,
      "hit": false,
      "t": 11520,
      "d": 607.5,
      "v": 89
    },
    {
      "midi": 64,
      "hit": false,
      "t": 11520,
      "d": 612.5,
      "v": 83
    },
    {
      "midi": 57,
      "hit": false,
      "t": 12240,
      "d": 87.5,
      "v": 86
    },
    {
      "midi": 60,
      "hit": false,
      "t": 12240,
      "d": 90,
      "v": 89
    },
    {
      "midi": 64,
      "hit": false,
      "t": 12240,
      "d": 105,
      "v": 83
    },
    {
      "midi": 57,
      "hit": false,
      "t": 12480,
      "d": 612.5,
      "v": 86
    },
    {
      "midi": 62,
      "hit": false,
      "t": 12480,
      "d": 630,
      "v": 89
    },
    {
      "midi": 66,
      "hit": false,
      "t": 12480,
      "d": 637.5,
      "v": 89
    },
    {
      "midi": 57,
      "hit": false,
      "t": 13200,
      "d": 70,
      "v": 77
    },
    {
      "midi": 62,
      "hit": false,
      "t": 13200,
      "d": 80,
      "v": 86
    },
    {
      "midi": 66,
      "hit": false,
      "t": 13200,
      "d": 102.5,
      "v": 83
    },
    {
      "midi": 59,
      "hit": false,
      "t": 13440,
      "d": 3760,
      "v": 86
    },
    {
      "midi": 62,
      "hit": false,
      "t": 13440,
      "d": 3767.5,
      "v": 89
    },
    {
      "midi": 67,
      "hit": false,
      "t": 13440,
      "d": 3802.5,
      "v": 83
    },
    {
      "midi": 48,
      "hit": false,
      "t": 17280,
      "d": 187.5,
      "v": 89
    },
    {
      "midi": 55,
      "hit": false,
      "t": 17520,
      "d": 105,
      "v": 89
    },
    {
      "midi": 60,
      "hit": false,
      "t": 17520,
      "d": 132.5,
      "v": 86
    },
    {
      "midi": 64,
      "hit": false,
      "t": 17520,
      "d": 132.5,
      "v": 83
    },
    {
      "midi": 43,
      "hit": false,
      "t": 17760,
      "d": 100,
      "v": 89
    },
    {
      "midi": 64,
      "hit": false,
      "t": 18000,
      "d": 120,
      "v": 77
    },
    {
      "midi": 55,
      "hit": false,
      "t": 18000,
      "d": 122.5,
      "v": 83
    },
    {
      "midi": 60,
      "hit": false,
      "t": 18000,
      "d": 127.5,
      "v": 83
    },
    {
      "midi": 48,
      "hit": false,
      "t": 18240,
      "d": 102.5,
      "v": 80
    },
    {
      "midi": 55,
      "hit": false,
      "t": 18480,
      "d": 92.5,
      "v": 80
    },
    {
      "midi": 60,
      "hit": false,
      "t": 18480,
      "d": 107.5,
      "v": 86
    },
    {
      "midi": 64,
      "hit": false,
      "t": 18480,
      "d": 112.5,
      "v": 80
    },
    {
      "midi": 43,
      "hit": false,
      "t": 18720,
      "d": 92.5,
      "v": 86
    },
    {
      "midi": 55,
      "hit": false,
      "t": 18960,
      "d": 82.5,
      "v": 83
    },
    {
      "midi": 60,
      "hit": false,
      "t": 18960,
      "d": 85,
      "v": 89
    },
    {
      "midi": 64,
      "hit": false,
      "t": 18960,
      "d": 95,
      "v": 77
    },
    {
      "midi": 48,
      "hit": false,
      "t": 19200,
      "d": 107.5,
      "v": 77
    },
    {
      "midi": 55,
      "hit": false,
      "t": 19440,
      "d": 95,
      "v": 86
    },
    {
      "midi": 60,
      "hit": false,
      "t": 19440,
      "d": 120,
      "v": 89
    },
    {
      "midi": 64,
      "hit": false,
      "t": 19440,
      "d": 120,
      "v": 77
    },
    {
      "midi": 43,
      "hit": false,
      "t": 19680,
      "d": 87.5,
      "v": 89
    },
    {
      "midi": 55,
      "hit": false,
      "t": 19920,
      "d": 90,
      "v": 86
    },
    {
      "midi": 60,
      "hit": false,
      "t": 19920,
      "d": 112.5,
      "v": 89
    },
    {
      "midi": 64,
      "hit": false,
      "t": 19920,
      "d": 120,
      "v": 83
    },
    {
      "midi": 48,
      "hit": false,
      "t": 20160,
      "d": 117.5,
      "v": 89
    },
    {
      "midi": 55,
      "hit": false,
      "t": 20400,
      "d": 117.5,
      "v": 83
    },
    {
      "midi": 60,
      "hit": false,
      "t": 20400,
      "d": 137.5,
      "v": 86
    },
    {
      "midi": 64,
      "hit": false,
      "t": 20400,
      "d": 140,
      "v": 83
    },
    {
      "midi": 43,
      "hit": false,
      "t": 20640,
      "d": 95,
      "v": 86
    },
    {
      "midi": 55,
      "hit": false,
      "t": 20880,
      "d": 75,
      "v": 86
    },
    {
      "midi": 60,
      "hit": false,
      "t": 20880,
      "d": 87.5,
      "v": 89
    },
    {
      "midi": 64,
      "hit": false,
      "t": 20880,
      "d": 107.5,
      "v": 86
    },
    {
      "midi": 48,
      "hit": false,
      "t": 21120,
      "d": 167.5,
      "v": 86
    },
    {
      "midi": 55,
      "hit": false,
      "t": 21360,
      "d": 187.5,
      "v": 83
    },
    {
      "midi": 60,
      "hit": false,
      "t": 21360,
      "d": 202.5,
      "v": 86
    },
    {
      "midi": 64,
      "hit": false,
      "t": 21360,
      "d": 205,
      "v": 77
    },
    {
      "midi": 43,
      "hit": false,
      "t": 21600,
      "d": 102.5,
      "v": 89
    },
    {
      "midi": 55,
      "hit": false,
      "t": 21840,
      "d": 110,
      "v": 86
    },
    {
      "midi": 60,
      "hit": false,
      "t": 21840,
      "d": 127.5,
      "v": 92
    },
    {
      "midi": 64,
      "hit": false,
      "t": 21840,
      "d": 152.5,
      "v": 80
    },
    {
      "midi": 48,
      "hit": false,
      "t": 22080,
      "d": 107.5,
      "v": 86
    },
    {
      "midi": 55,
      "hit": false,
      "t": 22320,
      "d": 105,
      "v": 86
    },
    {
      "midi": 60,
      "hit": false,
      "t": 22320,
      "d": 112.5,
      "v": 89
    },
    {
      "midi": 64,
      "hit": false,
      "t": 22320,
      "d": 135,
      "v": 77
    },
    {
      "midi": 43,
      "hit": false,
      "t": 22560,
      "d": 117.5,
      "v": 86
    },
    {
      "midi": 60,
      "hit": false,
      "t": 22800,
      "d": 87.5,
      "v": 89
    },
    {
      "midi": 55,
      "hit": false,
      "t": 22800,
      "d": 92.5,
      "v": 86
    },
    {
      "midi": 64,
      "hit": false,
      "t": 22800,
      "d": 102.5,
      "v": 77
    },
    {
      "midi": 48,
      "hit": false,
      "t": 23040,
      "d": 130,
      "v": 86
    },
    {
      "midi": 55,
      "hit": false,
      "t": 23280,
      "d": 90,
      "v": 83
    },
    {
      "midi": 60,
      "hit": false,
      "t": 23280,
      "d": 90,
      "v": 86
    },
    {
      "midi": 64,
      "hit": false,
      "t": 23280,
      "d": 110,
      "v": 80
    },
    {
      "midi": 43,
      "hit": false,
      "t": 23520,
      "d": 105,
      "v": 86
    },
    {
      "midi": 60,
      "hit": false,
      "t": 23760,
      "d": 85,
      "v": 89
    },
    {
      "midi": 55,
      "hit": false,
      "t": 23760,
      "d": 87.5,
      "v": 83
    },
    {
      "midi": 64,
      "hit": false,
      "t": 23760,
      "d": 100,
      "v": 83
    },
    {
      "midi": 48,
      "hit": false,
      "t": 24000,
      "d": 122.5,
      "v": 77
    },
    {
      "midi": 60,
      "hit": false,
      "t": 24240,
      "d": 95,
      "v": 86
    },
    {
      "midi": 55,
      "hit": false,
      "t": 24240,
      "d": 97.5,
      "v": 80
    },
    {
      "midi": 64,
      "hit": false,
      "t": 24240,
      "d": 120,
      "v": 83
    },
    {
      "midi": 43,
      "hit": false,
      "t": 24480,
      "d": 115,
      "v": 86
    },
    {
      "midi": 60,
      "hit": false,
      "t": 24720,
      "d": 80,
      "v": 86
    },
    {
      "midi": 55,
      "hit": false,
      "t": 24720,
      "d": 100,
      "v": 83
    },
    {
      "midi": 64,
      "hit": false,
      "t": 24720,
      "d": 110,
      "v": 80
    },
    {
      "midi": 48,
      "hit": false,
      "t": 24960,
      "d": 112.5,
      "v": 89
    },
    {
      "midi": 60,
      "hit": false,
      "t": 25200,
      "d": 90,
      "v": 89
    },
    {
      "midi": 55,
      "hit": false,
      "t": 25200,
      "d": 95,
      "v": 83
    },
    {
      "midi": 64,
      "hit": false,
      "t": 25200,
      "d": 115,
      "v": 80
    },
    {
      "midi": 43,
      "hit": false,
      "t": 25440,
      "d": 105,
      "v": 83
    },
    {
      "midi": 60,
      "hit": false,
      "t": 25680,
      "d": 97.5,
      "v": 86
    },
    {
      "midi": 55,
      "hit": false,
      "t": 25680,
      "d": 100,
      "v": 83
    },
    {
      "midi": 64,
      "hit": false,
      "t": 25680,
      "d": 125,
      "v": 83
    },
    {
      "midi": 48,
      "hit": false,
      "t": 25920,
      "d": 117.5,
      "v": 86
    },
    {
      "midi": 55,
      "hit": false,
      "t": 26160,
      "d": 87.5,
      "v": 86
    },
    {
      "midi": 60,
      "hit": false,
      "t": 26160,
      "d": 90,
      "v": 89
    },
    {
      "midi": 64,
      "hit": false,
      "t": 26160,
      "d": 115,
      "v": 83
    },
    {
      "midi": 43,
      "hit": false,
      "t": 26400,
      "d": 117.5,
      "v": 86
    },
    {
      "midi": 60,
      "hit": false,
      "t": 26640,
      "d": 95,
      "v": 89
    },
    {
      "midi": 55,
      "hit": false,
      "t": 26640,
      "d": 97.5,
      "v": 77
    },
    {
      "midi": 64,
      "hit": false,
      "t": 26640,
      "d": 117.5,
      "v": 74
    },
    {
      "midi": 43,
      "hit": false,
      "t": 26880,
      "d": 157.5,
      "v": 86
    },
    {
      "midi": 55,
      "hit": false,
      "t": 27120,
      "d": 90,
      "v": 86
    },
    {
      "midi": 62,
      "hit": false,
      "t": 27120,
      "d": 100,
      "v": 89
    },
    {
      "midi": 59,
      "hit": false,
      "t": 27120,
      "d": 112.5,
      "v": 89
    },
    {
      "midi": 50,
      "hit": false,
      "t": 27360,
      "d": 120,
      "v": 89
    },
    {
      "midi": 55,
      "hit": false,
      "t": 27600,
      "d": 87.5,
      "v": 86
    },
    {
      "midi": 59,
      "hit": false,
      "t": 27600,
      "d": 102.5,
      "v": 86
    },
    {
      "midi": 62,
      "hit": false,
      "t": 27600,
      "d": 102.5,
      "v": 89
    },
    {
      "midi": 43,
      "hit": false,
      "t": 27840,
      "d": 130,
      "v": 86
    },
    {
      "midi": 55,
      "hit": false,
      "t": 28080,
      "d": 90,
      "v": 86
    },
    {
      "midi": 59,
      "hit": false,
      "t": 28080,
      "d": 92.5,
      "v": 89
    },
    {
      "midi": 62,
      "hit": false,
      "t": 28080,
      "d": 97.5,
      "v": 89
    },
    {
      "midi": 50,
      "hit": false,
      "t": 28320,
      "d": 152.5,
      "v": 89
    },
    {
      "midi": 55,
      "hit": false,
      "t": 28560,
      "d": 90,
      "v": 83
    },
    {
      "midi": 59,
      "hit": false,
      "t": 28560,
      "d": 95,
      "v": 86
    },
    {
      "midi": 62,
      "hit": false,
      "t": 28560,
      "d": 95,
      "v": 86
    },
    {
      "midi": 43,
      "hit": false,
      "t": 28800,
      "d": 152.5,
      "v": 89
    },
    {
      "midi": 55,
      "hit": false,
      "t": 29040,
      "d": 77.5,
      "v": 80
    },
    {
      "midi": 59,
      "hit": false,
      "t": 29040,
      "d": 77.5,
      "v": 83
    },
    {
      "midi": 62,
      "hit": false,
      "t": 29040,
      "d": 95,
      "v": 80
    },
    {
      "midi": 38,
      "hit": false,
      "t": 29280,
      "d": 102.5,
      "v": 77
    },
    {
      "midi": 55,
      "hit": false,
      "t": 29520,
      "d": 77.5,
      "v": 77
    },
    {
      "midi": 59,
      "hit": false,
      "t": 29520,
      "d": 82.5,
      "v": 86
    },
    {
      "midi": 62,
      "hit": false,
      "t": 29520,
      "d": 87.5,
      "v": 80
    },
    {
      "midi": 43,
      "hit": false,
      "t": 29760,
      "d": 135,
      "v": 86
    },
    {
      "midi": 55,
      "hit": false,
      "t": 30000,
      "d": 82.5,
      "v": 86
    },
    {
      "midi": 59,
      "hit": false,
      "t": 30000,
      "d": 85,
      "v": 83
    },
    {
      "midi": 62,
      "hit": false,
      "t": 30000,
      "d": 95,
      "v": 89
    },
    {
      "midi": 38,
      "hit": false,
      "t": 30240,
      "d": 100,
      "v": 86
    },
    {
      "midi": 55,
      "hit": false,
      "t": 30480,
      "d": 82.5,
      "v": 86
    },
    {
      "midi": 59,
      "hit": false,
      "t": 30480,
      "d": 87.5,
      "v": 89
    },
    {
      "midi": 62,
      "hit": false,
      "t": 30480,
      "d": 100,
      "v": 86
    },
    {
      "midi": 43,
      "hit": false,
      "t": 30720,
      "d": 112.5,
      "v": 89
    },
    {
      "midi": 55,
      "hit": false,
      "t": 30960,
      "d": 75,
      "v": 83
    },
    {
      "midi": 59,
      "hit": false,
      "t": 30960,
      "d": 80,
      "v": 86
    },
    {
      "midi": 62,
      "hit": false,
      "t": 30960,
      "d": 85,
      "v": 86
    },
    {
      "midi": 38,
      "hit": false,
      "t": 31200,
      "d": 97.5,
      "v": 86
    },
    {
      "midi": 59,
      "hit": false,
      "t": 31440,
      "d": 80,
      "v": 86
    },
    {
      "midi": 55,
      "hit": false,
      "t": 31440,
      "d": 82.5,
      "v": 80
    },
    {
      "midi": 62,
      "hit": false,
      "t": 31440,
      "d": 95,
      "v": 86
    },
    {
      "midi": 43,
      "hit": false,
      "t": 31680,
      "d": 95,
      "v": 86
    },
    {
      "midi": 55,
      "hit": false,
      "t": 31920,
      "d": 75,
      "v": 74
    },
    {
      "midi": 59,
      "hit": false,
      "t": 31920,
      "d": 77.5,
      "v": 83
    },
    {
      "midi": 62,
      "hit": false,
      "t": 31920,
      "d": 82.5,
      "v": 83
    },
    {
      "midi": 38,
      "hit": false,
      "t": 32160,
      "d": 95,
      "v": 80
    },
    {
      "midi": 59,
      "hit": false,
      "t": 32400,
      "d": 65,
      "v": 89
    },
    {
      "midi": 55,
      "hit": false,
      "t": 32400,
      "d": 72.5,
      "v": 86
    },
    {
      "midi": 62,
      "hit": false,
      "t": 32400,
      "d": 75,
      "v": 89
    },
    {
      "midi": 43,
      "hit": false,
      "t": 32640,
      "d": 95,
      "v": 86
    },
    {
      "midi": 59,
      "hit": false,
      "t": 32880,
      "d": 70,
      "v": 86
    },
    {
      "midi": 62,
      "hit": false,
      "t": 32880,
      "d": 70,
      "v": 86
    },
    {
      "midi": 55,
      "hit": false,
      "t": 32880,
      "d": 72.5,
      "v": 83
    },
    {
      "midi": 38,
      "hit": false,
      "t": 33120,
      "d": 95,
      "v": 83
    },
    {
      "midi": 55,
      "hit": false,
      "t": 33360,
      "d": 70,
      "v": 74
    },
    {
      "midi": 59,
      "hit": false,
      "t": 33360,
      "d": 70,
      "v": 86
    },
    {
      "midi": 62,
      "hit": false,
      "t": 33360,
      "d": 70,
      "v": 83
    },
    {
      "midi": 43,
      "hit": false,
      "t": 33600,
      "d": 105,
      "v": 86
    },
    {
      "midi": 59,
      "hit": false,
      "t": 33840,
      "d": 77.5,
      "v": 86
    },
    {
      "midi": 55,
      "hit": false,
      "t": 33840,
      "d": 80,
      "v": 74
    },
    {
      "midi": 62,
      "hit": false,
      "t": 33840,
      "d": 85,
      "v": 77
    },
    {
      "midi": 38,
      "hit": false,
      "t": 34080,
      "d": 105,
      "v": 86
    },
    {
      "midi": 55,
      "hit": false,
      "t": 34320,
      "d": 72.5,
      "v": 80
    },
    {
      "midi": 59,
      "hit": false,
      "t": 34320,
      "d": 75,
      "v": 86
    },
    {
      "midi": 62,
      "hit": false,
      "t": 34320,
      "d": 77.5,
      "v": 80
    },
    {
      "midi": 43,
      "hit": false,
      "t": 34560,
      "d": 97.5,
      "v": 86
    },
    {
      "midi": 55,
      "hit": false,
      "t": 34800,
      "d": 82.5,
      "v": 80
    },
    {
      "midi": 59,
      "hit": false,
      "t": 34800,
      "d": 95,
      "v": 86
    },
    {
      "midi": 62,
      "hit": false,
      "t": 34800,
      "d": 100,
      "v": 80
    },
    {
      "midi": 38,
      "hit": false,
      "t": 35040,
      "d": 132.5,
      "v": 86
    },
    {
      "midi": 55,
      "hit": false,
      "t": 35280,
      "d": 77.5,
      "v": 71
    },
    {
      "midi": 62,
      "hit": false,
      "t": 35280,
      "d": 82.5,
      "v": 74
    },
    {
      "midi": 59,
      "hit": false,
      "t": 35280,
      "d": 92.5,
      "v": 83
    },
    {
      "midi": 57,
      "hit": false,
      "t": 35520,
      "d": 227.5,
      "v": 95
    },
    {
      "midi": 45,
      "hit": false,
      "t": 35520,
      "d": 232.5,
      "v": 89
    },
    {
      "midi": 43,
      "hit": false,
      "t": 35760,
      "d": 77.5,
      "v": 74
    },
    {
      "midi": 55,
      "hit": false,
      "t": 35760,
      "d": 112.5,
      "v": 92
    },
    {
      "midi": 57,
      "hit": false,
      "t": 36000,
      "d": 227.5,
      "v": 95
    },
    {
      "midi": 45,
      "hit": false,
      "t": 36000,
      "d": 232.5,
      "v": 89
    },
    {
      "midi": 43,
      "hit": false,
      "t": 36240,
      "d": 77.5,
      "v": 74
    },
    {
      "midi": 55,
      "hit": false,
      "t": 36240,
      "d": 112.5,
      "v": 92
    },
    {
      "midi": 48,
      "hit": false,
      "t": 36480,
      "d": 112.5,
      "v": 77
    },
    {
      "midi": 60,
      "hit": false,
      "t": 36720,
      "d": 85,
      "v": 77
    },
    {
      "midi": 64,
      "hit": false,
      "t": 36720,
      "d": 87.5,
      "v": 86
    },
    {
      "midi": 67,
      "hit": false,
      "t": 36720,
      "d": 107.5,
      "v": 74
    },
    {
      "midi": 43,
      "hit": false,
      "t": 36960,
      "d": 85,
      "v": 71
    },
    {
      "midi": 64,
      "hit": false,
      "t": 37200,
      "d": 72.5,
      "v": 83
    },
    {
      "midi": 60,
      "hit": false,
      "t": 37200,
      "d": 85,
      "v": 83
    },
    {
      "midi": 67,
      "hit": false,
      "t": 37200,
      "d": 92.5,
      "v": 74
    },
    {
      "midi": 48,
      "hit": false,
      "t": 37440,
      "d": 92.5,
      "v": 71
    },
    {
      "midi": 64,
      "hit": false,
      "t": 37680,
      "d": 72.5,
      "v": 86
    },
    {
      "midi": 60,
      "hit": false,
      "t": 37680,
      "d": 80,
      "v": 80
    },
    {
      "midi": 67,
      "hit": false,
      "t": 37680,
      "d": 92.5,
      "v": 77
    },
    {
      "midi": 43,
      "hit": false,
      "t": 37920,
      "d": 87.5,
      "v": 71
    },
    {
      "midi": 64,
      "hit": false,
      "t": 38160,
      "d": 82.5,
      "v": 83
    },
    {
      "midi": 60,
      "hit": false,
      "t": 38160,
      "d": 90,
      "v": 77
    },
    {
      "midi": 67,
      "hit": false,
      "t": 38160,
      "d": 95,
      "v": 71
    },
    {
      "midi": 48,
      "hit": false,
      "t": 38400,
      "d": 107.5,
      "v": 74
    },
    {
      "midi": 60,
      "hit": false,
      "t": 38640,
      "d": 75,
      "v": 80
    },
    {
      "midi": 55,
      "hit": false,
      "t": 38640,
      "d": 102.5,
      "v": 71
    },
    {
      "midi": 64,
      "hit": false,
      "t": 38640,
      "d": 102.5,
      "v": 74
    },
    {
      "midi": 43,
      "hit": false,
      "t": 38880,
      "d": 97.5,
      "v": 74
    },
    {
      "midi": 60,
      "hit": false,
      "t": 39120,
      "d": 72.5,
      "v": 83
    },
    {
      "midi": 64,
      "hit": false,
      "t": 39120,
      "d": 95,
      "v": 74
    },
    {
      "midi": 55,
      "hit": false,
      "t": 39120,
      "d": 97.5,
      "v": 74
    },
    {
      "midi": 48,
      "hit": false,
      "t": 39360,
      "d": 117.5,
      "v": 80
    },
    {
      "midi": 60,
      "hit": false,
      "t": 39600,
      "d": 72.5,
      "v": 86
    },
    {
      "midi": 55,
      "hit": false,
      "t": 39600,
      "d": 80,
      "v": 77
    },
    {
      "midi": 64,
      "hit": false,
      "t": 39600,
      "d": 85,
      "v": 74
    },
    {
      "midi": 43,
      "hit": false,
      "t": 39840,
      "d": 100,
      "v": 74
    },
    {
      "midi": 60,
      "hit": false,
      "t": 40080,
      "d": 77.5,
      "v": 83
    },
    {
      "midi": 55,
      "hit": false,
      "t": 40080,
      "d": 90,
      "v": 83
    },
    {
      "midi": 64,
      "hit": false,
      "t": 40080,
      "d": 97.5,
      "v": 74
    },
    {
      "midi": 48,
      "hit": false,
      "t": 40320,
      "d": 95,
      "v": 71
    },
    {
      "midi": 60,
      "hit": false,
      "t": 40560,
      "d": 82.5,
      "v": 83
    },
    {
      "midi": 55,
      "hit": false,
      "t": 40560,
      "d": 85,
      "v": 77
    },
    {
      "midi": 64,
      "hit": false,
      "t": 40560,
      "d": 105,
      "v": 77
    },
    {
      "midi": 43,
      "hit": false,
      "t": 40800,
      "d": 82.5,
      "v": 74
    },
    {
      "midi": 60,
      "hit": false,
      "t": 41040,
      "d": 62.5,
      "v": 77
    },
    {
      "midi": 55,
      "hit": false,
      "t": 41040,
      "d": 85,
      "v": 77
    },
    {
      "midi": 64,
      "hit": false,
      "t": 41040,
      "d": 97.5,
      "v": 77
    },
    {
      "midi": 48,
      "hit": false,
      "t": 41280,
      "d": 100,
      "v": 71
    },
    {
      "midi": 60,
      "hit": false,
      "t": 41520,
      "d": 45,
      "v": 74
    },
    {
      "midi": 55,
      "hit": false,
      "t": 41520,
      "d": 87.5,
      "v": 74
    },
    {
      "midi": 64,
      "hit": false,
      "t": 41520,
      "d": 90,
      "v": 68
    },
    {
      "midi": 43,
      "hit": false,
      "t": 41760,
      "d": 100,
      "v": 77
    },
    {
      "midi": 60,
      "hit": false,
      "t": 42000,
      "d": 82.5,
      "v": 77
    },
    {
      "midi": 55,
      "hit": false,
      "t": 42000,
      "d": 90,
      "v": 77
    },
    {
      "midi": 64,
      "hit": false,
      "t": 42000,
      "d": 95,
      "v": 74
    },
    {
      "midi": 48,
      "hit": false,
      "t": 42240,
      "d": 112.5,
      "v": 77
    },
    {
      "midi": 60,
      "hit": false,
      "t": 42480,
      "d": 75,
      "v": 74
    },
    {
      "midi": 55,
      "hit": false,
      "t": 42480,
      "d": 90,
      "v": 74
    },
    {
      "midi": 64,
      "hit": false,
      "t": 42480,
      "d": 100,
      "v": 71
    },
    {
      "midi": 43,
      "hit": false,
      "t": 42720,
      "d": 87.5,
      "v": 83
    },
    {
      "midi": 60,
      "hit": false,
      "t": 42960,
      "d": 82.5,
      "v": 74
    },
    {
      "midi": 55,
      "hit": false,
      "t": 42960,
      "d": 97.5,
      "v": 74
    },
    {
      "midi": 64,
      "hit": false,
      "t": 42960,
      "d": 102.5,
      "v": 68
    },
    {
      "midi": 43,
      "hit": false,
      "t": 43200,
      "d": 140,
      "v": 86
    },
    {
      "midi": 62,
      "hit": false,
      "t": 43440,
      "d": 85,
      "v": 77
    },
    {
      "midi": 59,
      "hit": false,
      "t": 43440,
      "d": 95,
      "v": 71
    },
    {
      "midi": 55,
      "hit": false,
      "t": 43440,
      "d": 100,
      "v": 74
    },
    {
      "midi": 59,
      "hit": false,
      "t": 43680,
      "d": 255,
      "v": 98
    },
    {
      "midi": 47,
      "hit": false,
      "t": 43680,
      "d": 277.5,
      "v": 86
    },
    {
      "midi": 55,
      "hit": false,
      "t": 43920,
      "d": 95,
      "v": 89
    },
    {
      "midi": 43,
      "hit": false,
      "t": 43920,
      "d": 100,
      "v": 74
    },
    {
      "midi": 55,
      "hit": false,
      "t": 44160,
      "d": 72.5,
      "v": 86
    },
    {
      "midi": 59,
      "hit": false,
      "t": 44400,
      "d": 100,
      "v": 92
    },
    {
      "midi": 67,
      "hit": false,
      "t": 44400,
      "d": 107.5,
      "v": 86
    },
    {
      "midi": 62,
      "hit": false,
      "t": 44400,
      "d": 122.5,
      "v": 92
    },
    {
      "midi": 50,
      "hit": false,
      "t": 44640,
      "d": 72.5,
      "v": 89
    },
    {
      "midi": 59,
      "hit": false,
      "t": 44880,
      "d": 85,
      "v": 92
    },
    {
      "midi": 67,
      "hit": false,
      "t": 44880,
      "d": 87.5,
      "v": 89
    },
    {
      "midi": 62,
      "hit": false,
      "t": 44880,
      "d": 90,
      "v": 92
    },
    {
      "midi": 55,
      "hit": false,
      "t": 45120,
      "d": 92.5,
      "v": 83
    },
    {
      "midi": 59,
      "hit": false,
      "t": 45360,
      "d": 72.5,
      "v": 89
    },
    {
      "midi": 62,
      "hit": false,
      "t": 45360,
      "d": 85,
      "v": 89
    },
    {
      "midi": 67,
      "hit": false,
      "t": 45360,
      "d": 90,
      "v": 86
    },
    {
      "midi": 50,
      "hit": false,
      "t": 45600,
      "d": 72.5,
      "v": 89
    },
    {
      "midi": 59,
      "hit": false,
      "t": 45840,
      "d": 72.5,
      "v": 92
    },
    {
      "midi": 62,
      "hit": false,
      "t": 45840,
      "d": 75,
      "v": 89
    },
    {
      "midi": 67,
      "hit": false,
      "t": 45840,
      "d": 82.5,
      "v": 86
    },
    {
      "midi": 55,
      "hit": false,
      "t": 46080,
      "d": 105,
      "v": 80
    },
    {
      "midi": 59,
      "hit": false,
      "t": 46320,
      "d": 65,
      "v": 92
    },
    {
      "midi": 62,
      "hit": false,
      "t": 46320,
      "d": 75,
      "v": 89
    },
    {
      "midi": 67,
      "hit": false,
      "t": 46320,
      "d": 80,
      "v": 86
    },
    {
      "midi": 50,
      "hit": false,
      "t": 46560,
      "d": 72.5,
      "v": 92
    },
    {
      "midi": 59,
      "hit": false,
      "t": 46800,
      "d": 75,
      "v": 92
    },
    {
      "midi": 67,
      "hit": false,
      "t": 46800,
      "d": 90,
      "v": 86
    },
    {
      "midi": 62,
      "hit": false,
      "t": 46800,
      "d": 97.5,
      "v": 92
    },
    {
      "midi": 55,
      "hit": false,
      "t": 47040,
      "d": 145,
      "v": 86
    },
    {
      "midi": 59,
      "hit": false,
      "t": 47280,
      "d": 87.5,
      "v": 89
    },
    {
      "midi": 62,
      "hit": false,
      "t": 47280,
      "d": 102.5,
      "v": 86
    },
    {
      "midi": 67,
      "hit": false,
      "t": 47280,
      "d": 107.5,
      "v": 89
    },
    {
      "midi": 50,
      "hit": false,
      "t": 47520,
      "d": 72.5,
      "v": 92
    },
    {
      "midi": 59,
      "hit": false,
      "t": 47760,
      "d": 65,
      "v": 92
    },
    {
      "midi": 62,
      "hit": false,
      "t": 47760,
      "d": 70,
      "v": 89
    },
    {
      "midi": 67,
      "hit": false,
      "t": 47760,
      "d": 82.5,
      "v": 86
    },
    {
      "midi": 55,
      "hit": false,
      "t": 48000,
      "d": 82.5,
      "v": 86
    },
    {
      "midi": 59,
      "hit": false,
      "t": 48240,
      "d": 67.5,
      "v": 89
    },
    {
      "midi": 62,
      "hit": false,
      "t": 48240,
      "d": 77.5,
      "v": 89
    },
    {
      "midi": 67,
      "hit": false,
      "t": 48240,
      "d": 82.5,
      "v": 86
    },
    {
      "midi": 50,
      "hit": false,
      "t": 48480,
      "d": 75,
      "v": 89
    },
    {
      "midi": 59,
      "hit": false,
      "t": 48720,
      "d": 72.5,
      "v": 86
    },
    {
      "midi": 62,
      "hit": false,
      "t": 48720,
      "d": 87.5,
      "v": 89
    },
    {
      "midi": 67,
      "hit": false,
      "t": 48720,
      "d": 90,
      "v": 83
    },
    {
      "midi": 55,
      "hit": false,
      "t": 48960,
      "d": 87.5,
      "v": 86
    },
    {
      "midi": 59,
      "hit": false,
      "t": 49200,
      "d": 85,
      "v": 83
    },
    {
      "midi": 67,
      "hit": false,
      "t": 49200,
      "d": 100,
      "v": 80
    },
    {
      "midi": 62,
      "hit": false,
      "t": 49200,
      "d": 105,
      "v": 86
    },
    {
      "midi": 50,
      "hit": false,
      "t": 49440,
      "d": 65,
      "v": 89
    },
    {
      "midi": 59,
      "hit": false,
      "t": 49680,
      "d": 50,
      "v": 92
    },
    {
      "midi": 62,
      "hit": false,
      "t": 49680,
      "d": 90,
      "v": 89
    },
    {
      "midi": 67,
      "hit": false,
      "t": 49680,
      "d": 95,
      "v": 83
    },
    {
      "midi": 62,
      "hit": false,
      "t": 49920,
      "d": 42.5,
      "v": 89
    },
    {
      "midi": 57,
      "hit": false,
      "t": 49920,
      "d": 57.5,
      "v": 95
    },
    {
      "midi": 50,
      "hit": false,
      "t": 49920,
      "d": 60,
      "v": 95
    },
    {
      "midi": 66,
      "hit": false,
      "t": 49920,
      "d": 65,
      "v": 92
    },
    {
      "midi": 57,
      "hit": false,
      "t": 50160,
      "d": 372.5,
      "v": 92
    },
    {
      "midi": 50,
      "hit": false,
      "t": 50160,
      "d": 380,
      "v": 95
    },
    {
      "midi": 62,
      "hit": false,
      "t": 50160,
      "d": 395,
      "v": 95
    },
    {
      "midi": 66,
      "hit": false,
      "t": 50160,
      "d": 397.5,
      "v": 95
    },
    {
      "midi": 57,
      "hit": false,
      "t": 50640,
      "d": 60,
      "v": 92
    },
    {
      "midi": 62,
      "hit": false,
      "t": 50640,
      "d": 65,
      "v": 86
    },
    {
      "midi": 50,
      "hit": false,
      "t": 50640,
      "d": 77.5,
      "v": 98
    },
    {
      "midi": 66,
      "hit": false,
      "t": 50640,
      "d": 80,
      "v": 92
    },
    {
      "midi": 43,
      "hit": false,
      "t": 50880,
      "d": 72.5,
      "v": 95
    },
    {
      "midi": 59,
      "hit": false,
      "t": 50880,
      "d": 102.5,
      "v": 92
    },
    {
      "midi": 67,
      "hit": false,
      "t": 50880,
      "d": 102.5,
      "v": 89
    },
    {
      "midi": 62,
      "hit": false,
      "t": 50880,
      "d": 110,
      "v": 89
    },
    {
      "midi": 48,
      "hit": false,
      "t": 51840,
      "d": 265,
      "v": 86
    },
    {
      "midi": 55,
      "hit": false,
      "t": 52080,
      "d": 107.5,
      "v": 83
    },
    {
      "midi": 60,
      "hit": false,
      "t": 52080,
      "d": 115,
      "v": 86
    },
    {
      "midi": 64,
      "hit": false,
      "t": 52080,
      "d": 130,
      "v": 77
    },
    {
      "midi": 43,
      "hit": false,
      "t": 52320,
      "d": 102.5,
      "v": 86
    },
    {
      "midi": 60,
      "hit": false,
      "t": 52560,
      "d": 92.5,
      "v": 89
    },
    {
      "midi": 55,
      "hit": false,
      "t": 52560,
      "d": 97.5,
      "v": 83
    },
    {
      "midi": 64,
      "hit": false,
      "t": 52560,
      "d": 120,
      "v": 83
    },
    {
      "midi": 48,
      "hit": false,
      "t": 52800,
      "d": 142.5,
      "v": 83
    },
    {
      "midi": 60,
      "hit": false,
      "t": 53040,
      "d": 102.5,
      "v": 89
    },
    {
      "midi": 55,
      "hit": false,
      "t": 53040,
      "d": 105,
      "v": 86
    },
    {
      "midi": 64,
      "hit": false,
      "t": 53040,
      "d": 127.5,
      "v": 83
    },
    {
      "midi": 43,
      "hit": false,
      "t": 53280,
      "d": 100,
      "v": 80
    },
    {
      "midi": 60,
      "hit": false,
      "t": 53520,
      "d": 90,
      "v": 89
    },
    {
      "midi": 55,
      "hit": false,
      "t": 53520,
      "d": 95,
      "v": 83
    },
    {
      "midi": 64,
      "hit": false,
      "t": 53520,
      "d": 140,
      "v": 83
    },
    {
      "midi": 50,
      "hit": false,
      "t": 53760,
      "d": 167.5,
      "v": 83
    },
    {
      "midi": 57,
      "hit": false,
      "t": 54000,
      "d": 107.5,
      "v": 86
    },
    {
      "midi": 62,
      "hit": false,
      "t": 54000,
      "d": 117.5,
      "v": 89
    },
    {
      "midi": 65,
      "hit": false,
      "t": 54000,
      "d": 145,
      "v": 83
    },
    {
      "midi": 45,
      "hit": false,
      "t": 54240,
      "d": 95,
      "v": 86
    },
    {
      "midi": 57,
      "hit": false,
      "t": 54480,
      "d": 92.5,
      "v": 89
    },
    {
      "midi": 62,
      "hit": false,
      "t": 54480,
      "d": 95,
      "v": 89
    },
    {
      "midi": 65,
      "hit": false,
      "t": 54480,
      "d": 117.5,
      "v": 86
    },
    {
      "midi": 50,
      "hit": false,
      "t": 54720,
      "d": 210,
      "v": 77
    },
    {
      "midi": 57,
      "hit": false,
      "t": 54960,
      "d": 102.5,
      "v": 86
    },
    {
      "midi": 62,
      "hit": false,
      "t": 54960,
      "d": 112.5,
      "v": 92
    },
    {
      "midi": 65,
      "hit": false,
      "t": 54960,
      "d": 127.5,
      "v": 83
    },
    {
      "midi": 45,
      "hit": false,
      "t": 55200,
      "d": 112.5,
      "v": 89
    },
    {
      "midi": 62,
      "hit": false,
      "t": 55440,
      "d": 90,
      "v": 89
    },
    {
      "midi": 57,
      "hit": false,
      "t": 55440,
      "d": 97.5,
      "v": 86
    },
    {
      "midi": 65,
      "hit": false,
      "t": 55440,
      "d": 107.5,
      "v": 83
    },
    {
      "midi": 43,
      "hit": false,
      "t": 55680,
      "d": 187.5,
      "v": 86
    },
    {
      "midi": 55,
      "hit": false,
      "t": 55920,
      "d": 125,
      "v": 89
    },
    {
      "midi": 59,
      "hit": false,
      "t": 55920,
      "d": 145,
      "v": 86
    },
    {
      "midi": 62,
      "hit": false,
      "t": 55920,
      "d": 145,
      "v": 89
    },
    {
      "midi": 50,
      "hit": false,
      "t": 56160,
      "d": 160,
      "v": 83
    },
    {
      "midi": 55,
      "hit": false,
      "t": 56400,
      "d": 102.5,
      "v": 89
    },
    {
      "midi": 59,
      "hit": false,
      "t": 56400,
      "d": 140,
      "v": 83
    },
    {
      "midi": 62,
      "hit": false,
      "t": 56400,
      "d": 140,
      "v": 89
    },
    {
      "midi": 43,
      "hit": false,
      "t": 56640,
      "d": 125,
      "v": 80
    },
    {
      "midi": 55,
      "hit": false,
      "t": 56880,
      "d": 100,
      "v": 86
    },
    {
      "midi": 62,
      "hit": false,
      "t": 56880,
      "d": 127.5,
      "v": 89
    },
    {
      "midi": 59,
      "hit": false,
      "t": 56880,
      "d": 132.5,
      "v": 89
    },
    {
      "midi": 50,
      "hit": false,
      "t": 57120,
      "d": 125,
      "v": 83
    },
    {
      "midi": 55,
      "hit": false,
      "t": 57360,
      "d": 100,
      "v": 86
    },
    {
      "midi": 59,
      "hit": false,
      "t": 57360,
      "d": 122.5,
      "v": 83
    },
    {
      "midi": 62,
      "hit": false,
      "t": 57360,
      "d": 125,
      "v": 89
    },
    {
      "midi": 48,
      "hit": false,
      "t": 57600,
      "d": 140,
      "v": 86
    },
    {
      "midi": 55,
      "hit": false,
      "t": 57840,
      "d": 142.5,
      "v": 77
    },
    {
      "midi": 60,
      "hit": false,
      "t": 57840,
      "d": 157.5,
      "v": 86
    },
    {
      "midi": 64,
      "hit": false,
      "t": 57840,
      "d": 165,
      "v": 83
    },
    {
      "midi": 43,
      "hit": false,
      "t": 58080,
      "d": 122.5,
      "v": 83
    },
    {
      "midi": 55,
      "hit": false,
      "t": 58320,
      "d": 100,
      "v": 86
    },
    {
      "midi": 60,
      "hit": false,
      "t": 58320,
      "d": 102.5,
      "v": 89
    },
    {
      "midi": 64,
      "hit": false,
      "t": 58320,
      "d": 125,
      "v": 83
    },
    {
      "midi": 48,
      "hit": false,
      "t": 58560,
      "d": 125,
      "v": 80
    },
    {
      "midi": 55,
      "hit": false,
      "t": 58800,
      "d": 102.5,
      "v": 83
    },
    {
      "midi": 60,
      "hit": false,
      "t": 58800,
      "d": 115,
      "v": 86
    },
    {
      "midi": 64,
      "hit": false,
      "t": 58800,
      "d": 137.5,
      "v": 83
    },
    {
      "midi": 43,
      "hit": false,
      "t": 59040,
      "d": 92.5,
      "v": 86
    },
    {
      "midi": 55,
      "hit": false,
      "t": 59280,
      "d": 90,
      "v": 86
    },
    {
      "midi": 60,
      "hit": false,
      "t": 59280,
      "d": 95,
      "v": 89
    },
    {
      "midi": 64,
      "hit": false,
      "t": 59280,
      "d": 115,
      "v": 83
    },
    {
      "midi": 45,
      "hit": false,
      "t": 59520,
      "d": 130,
      "v": 89
    },
    {
      "midi": 57,
      "hit": false,
      "t": 59760,
      "d": 105,
      "v": 86
    },
    {
      "midi": 61,
      "hit": false,
      "t": 59760,
      "d": 110,
      "v": 80
    },
    {
      "midi": 64,
      "hit": false,
      "t": 59760,
      "d": 137.5,
      "v": 83
    },
    {
      "midi": 40,
      "hit": false,
      "t": 60000,
      "d": 102.5,
      "v": 89
    },
    {
      "midi": 57,
      "hit": false,
      "t": 60240,
      "d": 95,
      "v": 89
    },
    {
      "midi": 61,
      "hit": false,
      "t": 60240,
      "d": 95,
      "v": 86
    },
    {
      "midi": 64,
      "hit": false,
      "t": 60240,
      "d": 122.5,
      "v": 86
    },
    {
      "midi": 45,
      "hit": false,
      "t": 60480,
      "d": 107.5,
      "v": 86
    },
    {
      "midi": 61,
      "hit": false,
      "t": 60720,
      "d": 90,
      "v": 80
    },
    {
      "midi": 57,
      "hit": false,
      "t": 60720,
      "d": 95,
      "v": 86
    },
    {
      "midi": 64,
      "hit": false,
      "t": 60720,
      "d": 107.5,
      "v": 86
    },
    {
      "midi": 40,
      "hit": false,
      "t": 60960,
      "d": 110,
      "v": 89
    },
    {
      "midi": 61,
      "hit": false,
      "t": 61200,
      "d": 75,
      "v": 77
    },
    {
      "midi": 57,
      "hit": false,
      "t": 61200,
      "d": 90,
      "v": 86
    },
    {
      "midi": 64,
      "hit": false,
      "t": 61200,
      "d": 125,
      "v": 86
    },
    {
      "midi": 50,
      "hit": false,
      "t": 61440,
      "d": 150,
      "v": 80
    },
    {
      "midi": 62,
      "hit": false,
      "t": 61680,
      "d": 115,
      "v": 89
    },
    {
      "midi": 57,
      "hit": false,
      "t": 61680,
      "d": 120,
      "v": 86
    },
    {
      "midi": 65,
      "hit": false,
      "t": 61680,
      "d": 140,
      "v": 74
    },
    {
      "midi": 45,
      "hit": false,
      "t": 61920,
      "d": 105,
      "v": 83
    },
    {
      "midi": 57,
      "hit": false,
      "t": 62160,
      "d": 115,
      "v": 89
    },
    {
      "midi": 62,
      "hit": false,
      "t": 62160,
      "d": 127.5,
      "v": 92
    },
    {
      "midi": 65,
      "hit": false,
      "t": 62160,
      "d": 160,
      "v": 86
    },
    {
      "midi": 50,
      "hit": false,
      "t": 62400,
      "d": 137.5,
      "v": 80
    },
    {
      "midi": 57,
      "hit": false,
      "t": 62640,
      "d": 105,
      "v": 89
    },
    {
      "midi": 62,
      "hit": false,
      "t": 62640,
      "d": 125,
      "v": 89
    },
    {
      "midi": 65,
      "hit": false,
      "t": 62640,
      "d": 150,
      "v": 89
    },
    {
      "midi": 45,
      "hit": false,
      "t": 62880,
      "d": 105,
      "v": 89
    },
    {
      "midi": 57,
      "hit": false,
      "t": 63120,
      "d": 90,
      "v": 86
    },
    {
      "midi": 62,
      "hit": false,
      "t": 63120,
      "d": 130,
      "v": 92
    },
    {
      "midi": 65,
      "hit": false,
      "t": 63120,
      "d": 147.5,
      "v": 86
    },
    {
      "midi": 43,
      "hit": false,
      "t": 63360,
      "d": 215,
      "v": 83
    },
    {
      "midi": 62,
      "hit": false,
      "t": 63600,
      "d": 102.5,
      "v": 89
    },
    {
      "midi": 59,
      "hit": false,
      "t": 63600,
      "d": 107.5,
      "v": 89
    },
    {
      "midi": 67,
      "hit": false,
      "t": 63600,
      "d": 125,
      "v": 77
    },
    {
      "midi": 38,
      "hit": false,
      "t": 63840,
      "d": 107.5,
      "v": 83
    },
    {
      "midi": 62,
      "hit": false,
      "t": 64080,
      "d": 92.5,
      "v": 89
    },
    {
      "midi": 59,
      "hit": false,
      "t": 64080,
      "d": 97.5,
      "v": 86
    },
    {
      "midi": 67,
      "hit": false,
      "t": 64080,
      "d": 107.5,
      "v": 83
    },
    {
      "midi": 43,
      "hit": false,
      "t": 64320,
      "d": 122.5,
      "v": 83
    },
    {
      "midi": 62,
      "hit": false,
      "t": 64560,
      "d": 85,
      "v": 89
    },
    {
      "midi": 59,
      "hit": false,
      "t": 64560,
      "d": 100,
      "v": 86
    },
    {
      "midi": 67,
      "hit": false,
      "t": 64560,
      "d": 110,
      "v": 77
    },
    {
      "midi": 38,
      "hit": false,
      "t": 64800,
      "d": 115,
      "v": 83
    },
    {
      "midi": 62,
      "hit": false,
      "t": 65040,
      "d": 82.5,
      "v": 92
    },
    {
      "midi": 59,
      "hit": false,
      "t": 65040,
      "d": 85,
      "v": 86
    },
    {
      "midi": 67,
      "hit": false,
      "t": 65040,
      "d": 100,
      "v": 80
    },
    {
      "midi": 48,
      "hit": false,
      "t": 65280,
      "d": 117.5,
      "v": 86
    },
    {
      "midi": 60,
      "hit": false,
      "t": 65520,
      "d": 92.5,
      "v": 89
    },
    {
      "midi": 55,
      "hit": false,
      "t": 65520,
      "d": 97.5,
      "v": 77
    },
    {
      "midi": 64,
      "hit": false,
      "t": 65520,
      "d": 125,
      "v": 80
    },
    {
      "midi": 43,
      "hit": false,
      "t": 65760,
      "d": 100,
      "v": 89
    },
    {
      "midi": 55,
      "hit": false,
      "t": 66000,
      "d": 102.5,
      "v": 83
    },
    {
      "midi": 60,
      "hit": false,
      "t": 66000,
      "d": 110,
      "v": 89
    },
    {
      "midi": 64,
      "hit": false,
      "t": 66000,
      "d": 125,
      "v": 80
    },
    {
      "midi": 48,
      "hit": false,
      "t": 66240,
      "d": 92.5,
      "v": 86
    },
    {
      "midi": 55,
      "hit": false,
      "t": 66240,
      "d": 140,
      "v": 89
    },
    {
      "midi": 60,
      "hit": false,
      "t": 66240,
      "d": 150,
      "v": 98
    },
    {
      "midi": 64,
      "hit": false,
      "t": 66240,
      "d": 182.5,
      "v": 89
    },
    {
      "midi": 50,
      "hit": false,
      "t": 72960,
      "d": 177.5,
      "v": 86
    },
    {
      "midi": 62,
      "hit": false,
      "t": 73200,
      "d": 160,
      "v": 89
    },
    {
      "midi": 57,
      "hit": false,
      "t": 73200,
      "d": 162.5,
      "v": 86
    },
    {
      "midi": 66,
      "hit": false,
      "t": 73200,
      "d": 182.5,
      "v": 77
    },
    {
      "midi": 45,
      "hit": false,
      "t": 73440,
      "d": 90,
      "v": 86
    },
    {
      "midi": 57,
      "hit": false,
      "t": 73680,
      "d": 92.5,
      "v": 86
    },
    {
      "midi": 62,
      "hit": false,
      "t": 73680,
      "d": 92.5,
      "v": 92
    },
    {
      "midi": 66,
      "hit": false,
      "t": 73680,
      "d": 120,
      "v": 80
    },
    {
      "midi": 50,
      "hit": false,
      "t": 73920,
      "d": 110,
      "v": 83
    },
    {
      "midi": 57,
      "hit": false,
      "t": 74160,
      "d": 92.5,
      "v": 86
    },
    {
      "midi": 62,
      "hit": false,
      "t": 74160,
      "d": 92.5,
      "v": 92
    },
    {
      "midi": 66,
      "hit": false,
      "t": 74160,
      "d": 125,
      "v": 83
    },
    {
      "midi": 45,
      "hit": false,
      "t": 74400,
      "d": 80,
      "v": 86
    },
    {
      "midi": 62,
      "hit": false,
      "t": 74640,
      "d": 80,
      "v": 89
    },
    {
      "midi": 57,
      "hit": false,
      "t": 74640,
      "d": 85,
      "v": 86
    },
    {
      "midi": 66,
      "hit": false,
      "t": 74640,
      "d": 100,
      "v": 83
    },
    {
      "midi": 50,
      "hit": false,
      "t": 74880,
      "d": 105,
      "v": 77
    },
    {
      "midi": 62,
      "hit": false,
      "t": 75120,
      "d": 115,
      "v": 77
    },
    {
      "midi": 57,
      "hit": false,
      "t": 75120,
      "d": 120,
      "v": 83
    },
    {
      "midi": 66,
      "hit": false,
      "t": 75120,
      "d": 155,
      "v": 74
    },
    {
      "midi": 45,
      "hit": false,
      "t": 75360,
      "d": 100,
      "v": 89
    },
    {
      "midi": 62,
      "hit": false,
      "t": 75600,
      "d": 92.5,
      "v": 89
    },
    {
      "midi": 57,
      "hit": false,
      "t": 75600,
      "d": 95,
      "v": 83
    },
    {
      "midi": 66,
      "hit": false,
      "t": 75600,
      "d": 112.5,
      "v": 74
    },
    {
      "midi": 50,
      "hit": false,
      "t": 75840,
      "d": 125,
      "v": 80
    },
    {
      "midi": 57,
      "hit": false,
      "t": 76080,
      "d": 107.5,
      "v": 86
    },
    {
      "midi": 62,
      "hit": false,
      "t": 76080,
      "d": 115,
      "v": 86
    },
    {
      "midi": 66,
      "hit": false,
      "t": 76080,
      "d": 152.5,
      "v": 74
    },
    {
      "midi": 45,
      "hit": false,
      "t": 76320,
      "d": 87.5,
      "v": 86
    },
    {
      "midi": 57,
      "hit": false,
      "t": 76560,
      "d": 105,
      "v": 83
    },
    {
      "midi": 62,
      "hit": false,
      "t": 76560,
      "d": 110,
      "v": 89
    },
    {
      "midi": 66,
      "hit": false,
      "t": 76560,
      "d": 122.5,
      "v": 74
    },
    {
      "midi": 45,
      "hit": false,
      "t": 76800,
      "d": 172.5,
      "v": 77
    },
    {
      "midi": 57,
      "hit": false,
      "t": 77040,
      "d": 107.5,
      "v": 83
    },
    {
      "midi": 61,
      "hit": false,
      "t": 77040,
      "d": 117.5,
      "v": 80
    },
    {
      "midi": 64,
      "hit": false,
      "t": 77040,
      "d": 125,
      "v": 80
    },
    {
      "midi": 40,
      "hit": false,
      "t": 77280,
      "d": 110,
      "v": 80
    },
    {
      "midi": 57,
      "hit": false,
      "t": 77520,
      "d": 92.5,
      "v": 83
    },
    {
      "midi": 61,
      "hit": false,
      "t": 77520,
      "d": 105,
      "v": 80
    },
    {
      "midi": 64,
      "hit": false,
      "t": 77520,
      "d": 115,
      "v": 86
    },
    {
      "midi": 45,
      "hit": false,
      "t": 77760,
      "d": 115,
      "v": 80
    },
    {
      "midi": 57,
      "hit": false,
      "t": 78000,
      "d": 92.5,
      "v": 86
    },
    {
      "midi": 61,
      "hit": false,
      "t": 78000,
      "d": 107.5,
      "v": 83
    },
    {
      "midi": 64,
      "hit": false,
      "t": 78000,
      "d": 120,
      "v": 86
    },
    {
      "midi": 40,
      "hit": false,
      "t": 78240,
      "d": 100,
      "v": 77
    },
    {
      "midi": 57,
      "hit": false,
      "t": 78480,
      "d": 92.5,
      "v": 86
    },
    {
      "midi": 61,
      "hit": false,
      "t": 78480,
      "d": 100,
      "v": 80
    },
    {
      "midi": 64,
      "hit": false,
      "t": 78480,
      "d": 110,
      "v": 86
    },
    {
      "midi": 45,
      "hit": false,
      "t": 78720,
      "d": 192.5,
      "v": 89
    },
    {
      "midi": 57,
      "hit": false,
      "t": 78960,
      "d": 97.5,
      "v": 86
    },
    {
      "midi": 61,
      "hit": false,
      "t": 78960,
      "d": 110,
      "v": 80
    },
    {
      "midi": 64,
      "hit": false,
      "t": 78960,
      "d": 125,
      "v": 83
    },
    {
      "midi": 40,
      "hit": false,
      "t": 79200,
      "d": 127.5,
      "v": 83
    },
    {
      "midi": 57,
      "hit": false,
      "t": 79440,
      "d": 95,
      "v": 86
    },
    {
      "midi": 61,
      "hit": false,
      "t": 79440,
      "d": 107.5,
      "v": 74
    },
    {
      "midi": 64,
      "hit": false,
      "t": 79440,
      "d": 115,
      "v": 86
    },
    {
      "midi": 45,
      "hit": false,
      "t": 79680,
      "d": 135,
      "v": 86
    },
    {
      "midi": 57,
      "hit": false,
      "t": 79920,
      "d": 120,
      "v": 86
    },
    {
      "midi": 61,
      "hit": false,
      "t": 79920,
      "d": 140,
      "v": 77
    },
    {
      "midi": 64,
      "hit": false,
      "t": 79920,
      "d": 155,
      "v": 83
    },
    {
      "midi": 40,
      "hit": false,
      "t": 80160,
      "d": 120,
      "v": 83
    },
    {
      "midi": 61,
      "hit": false,
      "t": 80400,
      "d": 87.5,
      "v": 66
    },
    {
      "midi": 57,
      "hit": false,
      "t": 80400,
      "d": 102.5,
      "v": 80
    },
    {
      "midi": 64,
      "hit": false,
      "t": 80400,
      "d": 137.5,
      "v": 83
    },
    {
      "midi": 50,
      "hit": false,
      "t": 80640,
      "d": 195,
      "v": 86
    },
    {
      "midi": 62,
      "hit": false,
      "t": 80880,
      "d": 107.5,
      "v": 86
    },
    {
      "midi": 57,
      "hit": false,
      "t": 80880,
      "d": 110,
      "v": 86
    },
    {
      "midi": 66,
      "hit": false,
      "t": 80880,
      "d": 127.5,
      "v": 77
    },
    {
      "midi": 45,
      "hit": false,
      "t": 81120,
      "d": 132.5,
      "v": 86
    },
    {
      "midi": 62,
      "hit": false,
      "t": 81360,
      "d": 95,
      "v": 92
    },
    {
      "midi": 57,
      "hit": false,
      "t": 81360,
      "d": 100,
      "v": 89
    },
    {
      "midi": 66,
      "hit": false,
      "t": 81360,
      "d": 112.5,
      "v": 77
    },
    {
      "midi": 50,
      "hit": false,
      "t": 81600,
      "d": 140,
      "v": 71
    },
    {
      "midi": 57,
      "hit": false,
      "t": 81840,
      "d": 110,
      "v": 86
    },
    {
      "midi": 62,
      "hit": false,
      "t": 81840,
      "d": 110,
      "v": 89
    },
    {
      "midi": 66,
      "hit": false,
      "t": 81840,
      "d": 137.5,
      "v": 77
    },
    {
      "midi": 45,
      "hit": false,
      "t": 82080,
      "d": 100,
      "v": 86
    },
    {
      "midi": 57,
      "hit": false,
      "t": 82320,
      "d": 90,
      "v": 89
    },
    {
      "midi": 62,
      "hit": false,
      "t": 82320,
      "d": 100,
      "v": 89
    },
    {
      "midi": 66,
      "hit": false,
      "t": 82320,
      "d": 120,
      "v": 77
    },
    {
      "midi": 50,
      "hit": false,
      "t": 82560,
      "d": 167.5,
      "v": 83
    },
    {
      "midi": 62,
      "hit": false,
      "t": 82800,
      "d": 95,
      "v": 89
    },
    {
      "midi": 57,
      "hit": false,
      "t": 82800,
      "d": 102.5,
      "v": 86
    },
    {
      "midi": 66,
      "hit": false,
      "t": 82800,
      "d": 125,
      "v": 77
    },
    {
      "midi": 45,
      "hit": false,
      "t": 83040,
      "d": 105,
      "v": 86
    },
    {
      "midi": 57,
      "hit": false,
      "t": 83280,
      "d": 92.5,
      "v": 86
    },
    {
      "midi": 62,
      "hit": false,
      "t": 83280,
      "d": 97.5,
      "v": 92
    },
    {
      "midi": 66,
      "hit": false,
      "t": 83280,
      "d": 125,
      "v": 77
    },
    {
      "midi": 50,
      "hit": false,
      "t": 83520,
      "d": 132.5,
      "v": 86
    },
    {
      "midi": 57,
      "hit": false,
      "t": 83760,
      "d": 110,
      "v": 86
    },
    {
      "midi": 62,
      "hit": false,
      "t": 83760,
      "d": 115,
      "v": 89
    },
    {
      "midi": 66,
      "hit": false,
      "t": 83760,
      "d": 137.5,
      "v": 74
    },
    {
      "midi": 45,
      "hit": false,
      "t": 84000,
      "d": 110,
      "v": 89
    },
    {
      "midi": 57,
      "hit": false,
      "t": 84240,
      "d": 97.5,
      "v": 86
    },
    {
      "midi": 62,
      "hit": false,
      "t": 84240,
      "d": 97.5,
      "v": 89
    },
    {
      "midi": 66,
      "hit": false,
      "t": 84240,
      "d": 125,
      "v": 74
    },
    {
      "midi": 45,
      "hit": false,
      "t": 84480,
      "d": 142.5,
      "v": 86
    },
    {
      "midi": 57,
      "hit": false,
      "t": 84720,
      "d": 87.5,
      "v": 86
    },
    {
      "midi": 61,
      "hit": false,
      "t": 84720,
      "d": 107.5,
      "v": 83
    },
    {
      "midi": 64,
      "hit": false,
      "t": 84720,
      "d": 115,
      "v": 83
    },
    {
      "midi": 40,
      "hit": false,
      "t": 84960,
      "d": 125,
      "v": 80
    },
    {
      "midi": 57,
      "hit": false,
      "t": 85200,
      "d": 92.5,
      "v": 86
    },
    {
      "midi": 61,
      "hit": false,
      "t": 85200,
      "d": 102.5,
      "v": 83
    },
    {
      "midi": 64,
      "hit": false,
      "t": 85200,
      "d": 112.5,
      "v": 86
    },
    {
      "midi": 45,
      "hit": false,
      "t": 85440,
      "d": 127.5,
      "v": 86
    },
    {
      "midi": 57,
      "hit": false,
      "t": 85680,
      "d": 87.5,
      "v": 86
    },
    {
      "midi": 61,
      "hit": false,
      "t": 85680,
      "d": 100,
      "v": 83
    },
    {
      "midi": 64,
      "hit": false,
      "t": 85680,
      "d": 110,
      "v": 86
    },
    {
      "midi": 40,
      "hit": false,
      "t": 85920,
      "d": 110,
      "v": 80
    },
    {
      "midi": 57,
      "hit": false,
      "t": 86160,
      "d": 92.5,
      "v": 89
    },
    {
      "midi": 61,
      "hit": false,
      "t": 86160,
      "d": 97.5,
      "v": 83
    },
    {
      "midi": 64,
      "hit": false,
      "t": 86160,
      "d": 107.5,
      "v": 86
    },
    {
      "midi": 45,
      "hit": false,
      "t": 86400,
      "d": 147.5,
      "v": 86
    },
    {
      "midi": 57,
      "hit": false,
      "t": 86640,
      "d": 90,
      "v": 83
    },
    {
      "midi": 61,
      "hit": false,
      "t": 86640,
      "d": 102.5,
      "v": 74
    },
    {
      "midi": 64,
      "hit": false,
      "t": 86640,
      "d": 102.5,
      "v": 86
    },
    {
      "midi": 40,
      "hit": false,
      "t": 86880,
      "d": 122.5,
      "v": 89
    },
    {
      "midi": 57,
      "hit": false,
      "t": 87120,
      "d": 97.5,
      "v": 83
    },
    {
      "midi": 61,
      "hit": false,
      "t": 87120,
      "d": 105,
      "v": 80
    },
    {
      "midi": 64,
      "hit": false,
      "t": 87120,
      "d": 110,
      "v": 83
    },
    {
      "midi": 45,
      "hit": false,
      "t": 87360,
      "d": 130,
      "v": 89
    },
    {
      "midi": 57,
      "hit": false,
      "t": 87600,
      "d": 115,
      "v": 86
    },
    {
      "midi": 61,
      "hit": false,
      "t": 87600,
      "d": 135,
      "v": 80
    },
    {
      "midi": 64,
      "hit": false,
      "t": 87600,
      "d": 152.5,
      "v": 83
    },
    {
      "midi": 40,
      "hit": false,
      "t": 87840,
      "d": 150,
      "v": 86
    },
    {
      "midi": 61,
      "hit": false,
      "t": 88080,
      "d": 90,
      "v": 71
    },
    {
      "midi": 57,
      "hit": false,
      "t": 88080,
      "d": 97.5,
      "v": 86
    },
    {
      "midi": 64,
      "hit": false,
      "t": 88080,
      "d": 130,
      "v": 83
    },
    {
      "midi": 50,
      "hit": false,
      "t": 88320,
      "d": 155,
      "v": 86
    },
    {
      "midi": 57,
      "hit": false,
      "t": 88560,
      "d": 102.5,
      "v": 86
    },
    {
      "midi": 62,
      "hit": false,
      "t": 88560,
      "d": 107.5,
      "v": 89
    },
    {
      "midi": 66,
      "hit": false,
      "t": 88560,
      "d": 135,
      "v": 80
    },
    {
      "midi": 45,
      "hit": false,
      "t": 88800,
      "d": 67.5,
      "v": 86
    },
    {
      "midi": 61,
      "hit": false,
      "t": 89040,
      "d": 85,
      "v": 74
    },
    {
      "midi": 57,
      "hit": false,
      "t": 89040,
      "d": 95,
      "v": 86
    },
    {
      "midi": 64,
      "hit": false,
      "t": 89040,
      "d": 110,
      "v": 83
    },
    {
      "midi": 66,
      "hit": false,
      "t": 89280,
      "d": 72.5,
      "v": 89
    },
    {
      "midi": 62,
      "hit": false,
      "t": 89280,
      "d": 75,
      "v": 98
    },
    {
      "midi": 57,
      "hit": false,
      "t": 89280,
      "d": 77.5,
      "v": 89
    },
    {
      "midi": 50,
      "hit": false,
      "t": 89280,
      "d": 90,
      "v": 95
    },
    {
      "midi": 57,
      "hit": false,
      "t": 89520,
      "d": 77.5,
      "v": 92
    },
    {
      "midi": 62,
      "hit": false,
      "t": 89520,
      "d": 80,
      "v": 101
    },
    {
      "midi": 66,
      "hit": false,
      "t": 89520,
      "d": 85,
      "v": 92
    },
    {
      "midi": 50,
      "hit": false,
      "t": 89520,
      "d": 100,
      "v": 95
    },
    {
      "midi": 62,
      "hit": false,
      "t": 89760,
      "d": 90,
      "v": 92
    },
    {
      "midi": 57,
      "hit": false,
      "t": 89760,
      "d": 102.5,
      "v": 92
    },
    {
      "midi": 50,
      "hit": false,
      "t": 89760,
      "d": 105,
      "v": 95
    },
    {
      "midi": 66,
      "hit": false,
      "t": 89760,
      "d": 117.5,
      "v": 89
    },
    {
      "midi": 55,
      "hit": false,
      "t": 90240,
      "d": 140,
      "v": 83
    },
    {
      "midi": 62,
      "hit": false,
      "t": 90480,
      "d": 95,
      "v": 86
    },
    {
      "midi": 67,
      "hit": false,
      "t": 90480,
      "d": 112.5,
      "v": 89
    },
    {
      "midi": 71,
      "hit": false,
      "t": 90480,
      "d": 130,
      "v": 89
    },
    {
      "midi": 50,
      "hit": false,
      "t": 90720,
      "d": 95,
      "v": 89
    },
    {
      "midi": 62,
      "hit": false,
      "t": 90960,
      "d": 80,
      "v": 89
    },
    {
      "midi": 67,
      "hit": false,
      "t": 90960,
      "d": 95,
      "v": 89
    },
    {
      "midi": 71,
      "hit": false,
      "t": 90960,
      "d": 112.5,
      "v": 89
    },
    {
      "midi": 55,
      "hit": false,
      "t": 91200,
      "d": 97.5,
      "v": 74
    },
    {
      "midi": 62,
      "hit": false,
      "t": 91440,
      "d": 97.5,
      "v": 89
    },
    {
      "midi": 67,
      "hit": false,
      "t": 91440,
      "d": 132.5,
      "v": 86
    },
    {
      "midi": 71,
      "hit": false,
      "t": 91440,
      "d": 140,
      "v": 89
    },
    {
      "midi": 50,
      "hit": false,
      "t": 91680,
      "d": 100,
      "v": 89
    },
    {
      "midi": 62,
      "hit": false,
      "t": 91920,
      "d": 105,
      "v": 86
    },
    {
      "midi": 67,
      "hit": false,
      "t": 91920,
      "d": 117.5,
      "v": 89
    },
    {
      "midi": 71,
      "hit": false,
      "t": 91920,
      "d": 130,
      "v": 89
    },
    {
      "midi": 55,
      "hit": false,
      "t": 92160,
      "d": 187.5,
      "v": 71
    },
    {
      "midi": 62,
      "hit": false,
      "t": 92400,
      "d": 110,
      "v": 89
    },
    {
      "midi": 67,
      "hit": false,
      "t": 92400,
      "d": 130,
      "v": 89
    },
    {
      "midi": 71,
      "hit": false,
      "t": 92400,
      "d": 135,
      "v": 86
    },
    {
      "midi": 50,
      "hit": false,
      "t": 92640,
      "d": 85,
      "v": 89
    },
    {
      "midi": 62,
      "hit": false,
      "t": 92880,
      "d": 107.5,
      "v": 89
    },
    {
      "midi": 67,
      "hit": false,
      "t": 92880,
      "d": 115,
      "v": 89
    },
    {
      "midi": 71,
      "hit": false,
      "t": 92880,
      "d": 132.5,
      "v": 89
    },
    {
      "midi": 50,
      "hit": false,
      "t": 93120,
      "d": 167.5,
      "v": 80
    },
    {
      "midi": 62,
      "hit": false,
      "t": 93360,
      "d": 127.5,
      "v": 89
    },
    {
      "midi": 66,
      "hit": false,
      "t": 93360,
      "d": 147.5,
      "v": 83
    },
    {
      "midi": 69,
      "hit": false,
      "t": 93360,
      "d": 150,
      "v": 86
    },
    {
      "midi": 45,
      "hit": false,
      "t": 93600,
      "d": 117.5,
      "v": 86
    },
    {
      "midi": 62,
      "hit": false,
      "t": 93840,
      "d": 85,
      "v": 89
    },
    {
      "midi": 69,
      "hit": false,
      "t": 93840,
      "d": 117.5,
      "v": 89
    },
    {
      "midi": 66,
      "hit": false,
      "t": 93840,
      "d": 125,
      "v": 89
    },
    {
      "midi": 55,
      "hit": false,
      "t": 94080,
      "d": 167.5,
      "v": 74
    },
    {
      "midi": 62,
      "hit": false,
      "t": 94320,
      "d": 102.5,
      "v": 89
    },
    {
      "midi": 67,
      "hit": false,
      "t": 94320,
      "d": 125,
      "v": 89
    },
    {
      "midi": 71,
      "hit": false,
      "t": 94320,
      "d": 132.5,
      "v": 86
    },
    {
      "midi": 50,
      "hit": false,
      "t": 94560,
      "d": 112.5,
      "v": 80
    },
    {
      "midi": 62,
      "hit": false,
      "t": 94800,
      "d": 72.5,
      "v": 89
    },
    {
      "midi": 67,
      "hit": false,
      "t": 94800,
      "d": 87.5,
      "v": 89
    },
    {
      "midi": 71,
      "hit": false,
      "t": 94800,
      "d": 100,
      "v": 86
    },
    {
      "midi": 55,
      "hit": false,
      "t": 95040,
      "d": 145,
      "v": 77
    },
    {
      "midi": 62,
      "hit": false,
      "t": 95280,
      "d": 87.5,
      "v": 86
    },
    {
      "midi": 67,
      "hit": false,
      "t": 95280,
      "d": 107.5,
      "v": 89
    },
    {
      "midi": 71,
      "hit": false,
      "t": 95280,
      "d": 120,
      "v": 83
    },
    {
      "midi": 50,
      "hit": false,
      "t": 95520,
      "d": 82.5,
      "v": 86
    },
    {
      "midi": 62,
      "hit": false,
      "t": 95760,
      "d": 82.5,
      "v": 89
    },
    {
      "midi": 67,
      "hit": false,
      "t": 95760,
      "d": 90,
      "v": 89
    },
    {
      "midi": 71,
      "hit": false,
      "t": 95760,
      "d": 107.5,
      "v": 89
    },
    {
      "midi": 55,
      "hit": false,
      "t": 96000,
      "d": 170,
      "v": 77
    },
    {
      "midi": 62,
      "hit": false,
      "t": 96240,
      "d": 97.5,
      "v": 89
    },
    {
      "midi": 71,
      "hit": false,
      "t": 96240,
      "d": 122.5,
      "v": 83
    },
    {
      "midi": 67,
      "hit": false,
      "t": 96240,
      "d": 130,
      "v": 86
    },
    {
      "midi": 50,
      "hit": false,
      "t": 96480,
      "d": 77.5,
      "v": 89
    },
    {
      "midi": 62,
      "hit": false,
      "t": 96720,
      "d": 80,
      "v": 89
    },
    {
      "midi": 67,
      "hit": false,
      "t": 96720,
      "d": 87.5,
      "v": 89
    },
    {
      "midi": 71,
      "hit": false,
      "t": 96720,
      "d": 102.5,
      "v": 89
    },
    {
      "midi": 50,
      "hit": false,
      "t": 96960,
      "d": 140,
      "v": 89
    },
    {
      "midi": 62,
      "hit": false,
      "t": 97200,
      "d": 80,
      "v": 89
    },
    {
      "midi": 66,
      "hit": false,
      "t": 97200,
      "d": 105,
      "v": 86
    },
    {
      "midi": 69,
      "hit": false,
      "t": 97200,
      "d": 107.5,
      "v": 86
    },
    {
      "midi": 45,
      "hit": false,
      "t": 97440,
      "d": 92.5,
      "v": 89
    },
    {
      "midi": 62,
      "hit": false,
      "t": 97680,
      "d": 92.5,
      "v": 89
    },
    {
      "midi": 69,
      "hit": false,
      "t": 97680,
      "d": 117.5,
      "v": 89
    },
    {
      "midi": 66,
      "hit": false,
      "t": 97680,
      "d": 122.5,
      "v": 86
    },
    {
      "midi": 55,
      "hit": false,
      "t": 97920,
      "d": 157.5,
      "v": 77
    },
    {
      "midi": 62,
      "hit": false,
      "t": 98160,
      "d": 85,
      "v": 86
    },
    {
      "midi": 67,
      "hit": false,
      "t": 98160,
      "d": 102.5,
      "v": 86
    },
    {
      "midi": 71,
      "hit": false,
      "t": 98160,
      "d": 105,
      "v": 86
    },
    {
      "midi": 50,
      "hit": false,
      "t": 98400,
      "d": 117.5,
      "v": 86
    },
    {
      "midi": 62,
      "hit": false,
      "t": 98640,
      "d": 72.5,
      "v": 89
    },
    {
      "midi": 67,
      "hit": false,
      "t": 98640,
      "d": 90,
      "v": 86
    },
    {
      "midi": 71,
      "hit": false,
      "t": 98640,
      "d": 97.5,
      "v": 86
    },
    {
      "midi": 55,
      "hit": false,
      "t": 98880,
      "d": 135,
      "v": 71
    },
    {
      "midi": 62,
      "hit": false,
      "t": 99120,
      "d": 82.5,
      "v": 83
    },
    {
      "midi": 67,
      "hit": false,
      "t": 99120,
      "d": 105,
      "v": 86
    },
    {
      "midi": 71,
      "hit": false,
      "t": 99120,
      "d": 112.5,
      "v": 86
    },
    {
      "midi": 50,
      "hit": false,
      "t": 99360,
      "d": 100,
      "v": 86
    },
    {
      "midi": 62,
      "hit": false,
      "t": 99600,
      "d": 72.5,
      "v": 89
    },
    {
      "midi": 67,
      "hit": false,
      "t": 99600,
      "d": 80,
      "v": 89
    },
    {
      "midi": 71,
      "hit": false,
      "t": 99600,
      "d": 97.5,
      "v": 86
    },
    {
      "midi": 55,
      "hit": false,
      "t": 99840,
      "d": 210,
      "v": 74
    },
    {
      "midi": 62,
      "hit": false,
      "t": 100080,
      "d": 85,
      "v": 89
    },
    {
      "midi": 67,
      "hit": false,
      "t": 100080,
      "d": 92.5,
      "v": 89
    },
    {
      "midi": 71,
      "hit": false,
      "t": 100080,
      "d": 112.5,
      "v": 89
    },
    {
      "midi": 50,
      "hit": false,
      "t": 100320,
      "d": 85,
      "v": 86
    },
    {
      "midi": 62,
      "hit": false,
      "t": 100560,
      "d": 75,
      "v": 86
    },
    {
      "midi": 67,
      "hit": false,
      "t": 100560,
      "d": 75,
      "v": 86
    },
    {
      "midi": 71,
      "hit": false,
      "t": 100560,
      "d": 92.5,
      "v": 86
    },
    {
      "midi": 50,
      "hit": false,
      "t": 100800,
      "d": 170,
      "v": 83
    },
    {
      "midi": 62,
      "hit": false,
      "t": 101040,
      "d": 85,
      "v": 92
    },
    {
      "midi": 66,
      "hit": false,
      "t": 101040,
      "d": 85,
      "v": 89
    },
    {
      "midi": 69,
      "hit": false,
      "t": 101040,
      "d": 100,
      "v": 89
    },
    {
      "midi": 45,
      "hit": false,
      "t": 101280,
      "d": 110,
      "v": 86
    },
    {
      "midi": 62,
      "hit": false,
      "t": 101520,
      "d": 85,
      "v": 89
    },
    {
      "midi": 69,
      "hit": false,
      "t": 101520,
      "d": 102.5,
      "v": 86
    },
    {
      "midi": 66,
      "hit": false,
      "t": 101520,
      "d": 115,
      "v": 86
    },
    {
      "midi": 55,
      "hit": false,
      "t": 101760,
      "d": 205,
      "v": 83
    },
    {
      "midi": 62,
      "hit": false,
      "t": 102000,
      "d": 122.5,
      "v": 89
    },
    {
      "midi": 71,
      "hit": false,
      "t": 102000,
      "d": 137.5,
      "v": 83
    },
    {
      "midi": 67,
      "hit": false,
      "t": 102000,
      "d": 140,
      "v": 89
    },
    {
      "midi": 50,
      "hit": false,
      "t": 102240,
      "d": 120,
      "v": 89
    },
    {
      "midi": 62,
      "hit": false,
      "t": 102480,
      "d": 80,
      "v": 89
    },
    {
      "midi": 71,
      "hit": false,
      "t": 102480,
      "d": 127.5,
      "v": 83
    },
    {
      "midi": 67,
      "hit": false,
      "t": 102480,
      "d": 130,
      "v": 89
    },
    {
      "midi": 52,
      "hit": false,
      "t": 102720,
      "d": 195,
      "v": 86
    },
    {
      "midi": 71,
      "hit": false,
      "t": 102960,
      "d": 132.5,
      "v": 83
    },
    {
      "midi": 67,
      "hit": false,
      "t": 102960,
      "d": 135,
      "v": 86
    },
    {
      "midi": 64,
      "hit": false,
      "t": 102960,
      "d": 150,
      "v": 89
    },
    {
      "midi": 47,
      "hit": false,
      "t": 103200,
      "d": 92.5,
      "v": 92
    },
    {
      "midi": 67,
      "hit": false,
      "t": 103440,
      "d": 122.5,
      "v": 86
    },
    {
      "midi": 64,
      "hit": false,
      "t": 103440,
      "d": 125,
      "v": 86
    },
    {
      "midi": 71,
      "hit": false,
      "t": 103440,
      "d": 137.5,
      "v": 86
    },
    {
      "midi": 55,
      "hit": false,
      "t": 103680,
      "d": 175,
      "v": 86
    },
    {
      "midi": 67,
      "hit": false,
      "t": 103920,
      "d": 92.5,
      "v": 89
    },
    {
      "midi": 62,
      "hit": false,
      "t": 103920,
      "d": 95,
      "v": 89
    },
    {
      "midi": 71,
      "hit": false,
      "t": 103920,
      "d": 110,
      "v": 83
    },
    {
      "midi": 50,
      "hit": false,
      "t": 104160,
      "d": 72.5,
      "v": 95
    },
    {
      "midi": 62,
      "hit": false,
      "t": 104400,
      "d": 77.5,
      "v": 86
    },
    {
      "midi": 66,
      "hit": false,
      "t": 104400,
      "d": 92.5,
      "v": 83
    },
    {
      "midi": 69,
      "hit": false,
      "t": 104400,
      "d": 95,
      "v": 89
    },
    {
      "midi": 67,
      "hit": false,
      "t": 104640,
      "d": 75,
      "v": 92
    },
    {
      "midi": 43,
      "hit": false,
      "t": 104640,
      "d": 80,
      "v": 74
    },
    {
      "midi": 62,
      "hit": false,
      "t": 104640,
      "d": 87.5,
      "v": 92
    },
    {
      "midi": 55,
      "hit": false,
      "t": 104640,
      "d": 90,
      "v": 80
    },
    {
      "midi": 71,
      "hit": false,
      "t": 104640,
      "d": 97.5,
      "v": 89
    },
    {
      "midi": 43,
      "hit": false,
      "t": 105120,
      "d": 80,
      "v": 83
    },
    {
      "midi": 62,
      "hit": false,
      "t": 105120,
      "d": 85,
      "v": 95
    },
    {
      "midi": 67,
      "hit": false,
      "t": 105120,
      "d": 85,
      "v": 92
    },
    {
      "midi": 55,
      "hit": false,
      "t": 105120,
      "d": 92.5,
      "v": 83
    },
    {
      "midi": 71,
      "hit": false,
      "t": 105120,
      "d": 105,
      "v": 89
    },
    {
      "midi": 55,
      "hit": false,
      "t": 105600,
      "d": 142.5,
      "v": 74
    },
    {
      "midi": 67,
      "hit": false,
      "t": 105840,
      "d": 125,
      "v": 71
    },
    {
      "midi": 59,
      "hit": false,
      "t": 105840,
      "d": 132.5,
      "v": 77
    },
    {
      "midi": 62,
      "hit": false,
      "t": 105840,
      "d": 132.5,
      "v": 71
    },
    {
      "midi": 50,
      "hit": false,
      "t": 106080,
      "d": 80,
      "v": 77
    },
    {
      "midi": 67,
      "hit": false,
      "t": 106320,
      "d": 120,
      "v": 74
    },
    {
      "midi": 62,
      "hit": false,
      "t": 106320,
      "d": 127.5,
      "v": 74
    },
    {
      "midi": 59,
      "hit": false,
      "t": 106320,
      "d": 132.5,
      "v": 83
    },
    {
      "midi": 55,
      "hit": false,
      "t": 106560,
      "d": 77.5,
      "v": 77
    },
    {
      "midi": 62,
      "hit": false,
      "t": 106800,
      "d": 122.5,
      "v": 80
    },
    {
      "midi": 59,
      "hit": false,
      "t": 106800,
      "d": 125,
      "v": 77
    },
    {
      "midi": 67,
      "hit": false,
      "t": 106800,
      "d": 130,
      "v": 71
    },
    {
      "midi": 50,
      "hit": false,
      "t": 107040,
      "d": 60,
      "v": 83
    },
    {
      "midi": 59,
      "hit": false,
      "t": 107280,
      "d": 100,
      "v": 74
    },
    {
      "midi": 62,
      "hit": false,
      "t": 107280,
      "d": 120,
      "v": 86
    },
    {
      "midi": 67,
      "hit": false,
      "t": 107280,
      "d": 160,
      "v": 77
    },
    {
      "midi": 48,
      "hit": false,
      "t": 107520,
      "d": 102.5,
      "v": 74
    },
    {
      "midi": 60,
      "hit": false,
      "t": 107760,
      "d": 147.5,
      "v": 86
    },
    {
      "midi": 55,
      "hit": false,
      "t": 107760,
      "d": 160,
      "v": 77
    },
    {
      "midi": 64,
      "hit": false,
      "t": 107760,
      "d": 160,
      "v": 80
    },
    {
      "midi": 43,
      "hit": false,
      "t": 108000,
      "d": 82.5,
      "v": 74
    },
    {
      "midi": 55,
      "hit": false,
      "t": 108240,
      "d": 97.5,
      "v": 80
    },
    {
      "midi": 60,
      "hit": false,
      "t": 108240,
      "d": 127.5,
      "v": 86
    },
    {
      "midi": 64,
      "hit": false,
      "t": 108240,
      "d": 137.5,
      "v": 74
    },
    {
      "midi": 45,
      "hit": false,
      "t": 108480,
      "d": 80,
      "v": 80
    },
    {
      "midi": 57,
      "hit": false,
      "t": 108720,
      "d": 182.5,
      "v": 83
    },
    {
      "midi": 60,
      "hit": false,
      "t": 108720,
      "d": 205,
      "v": 86
    },
    {
      "midi": 64,
      "hit": false,
      "t": 108720,
      "d": 207.5,
      "v": 74
    },
    {
      "midi": 40,
      "hit": false,
      "t": 108960,
      "d": 97.5,
      "v": 86
    },
    {
      "midi": 57,
      "hit": false,
      "t": 109200,
      "d": 172.5,
      "v": 86
    },
    {
      "midi": 60,
      "hit": false,
      "t": 109200,
      "d": 182.5,
      "v": 89
    },
    {
      "midi": 64,
      "hit": false,
      "t": 109200,
      "d": 220,
      "v": 77
    },
    {
      "midi": 43,
      "hit": false,
      "t": 109440,
      "d": 120,
      "v": 86
    },
    {
      "midi": 62,
      "hit": false,
      "t": 109680,
      "d": 152.5,
      "v": 74
    },
    {
      "midi": 59,
      "hit": false,
      "t": 109680,
      "d": 157.5,
      "v": 77
    },
    {
      "midi": 67,
      "hit": false,
      "t": 109680,
      "d": 165,
      "v": 68
    },
    {
      "midi": 50,
      "hit": false,
      "t": 109920,
      "d": 97.5,
      "v": 74
    },
    {
      "midi": 59,
      "hit": false,
      "t": 110160,
      "d": 142.5,
      "v": 83
    },
    {
      "midi": 62,
      "hit": false,
      "t": 110160,
      "d": 162.5,
      "v": 77
    },
    {
      "midi": 67,
      "hit": false,
      "t": 110160,
      "d": 162.5,
      "v": 74
    },
    {
      "midi": 43,
      "hit": false,
      "t": 110400,
      "d": 87.5,
      "v": 83
    },
    {
      "midi": 59,
      "hit": false,
      "t": 110640,
      "d": 140,
      "v": 86
    },
    {
      "midi": 67,
      "hit": false,
      "t": 110640,
      "d": 152.5,
      "v": 74
    },
    {
      "midi": 62,
      "hit": false,
      "t": 110640,
      "d": 162.5,
      "v": 77
    },
    {
      "midi": 50,
      "hit": false,
      "t": 110880,
      "d": 100,
      "v": 86
    },
    {
      "midi": 59,
      "hit": false,
      "t": 111120,
      "d": 147.5,
      "v": 83
    },
    {
      "midi": 62,
      "hit": false,
      "t": 111120,
      "d": 150,
      "v": 80
    },
    {
      "midi": 67,
      "hit": false,
      "t": 111120,
      "d": 180,
      "v": 74
    },
    {
      "midi": 48,
      "hit": false,
      "t": 111360,
      "d": 102.5,
      "v": 80
    },
    {
      "midi": 55,
      "hit": false,
      "t": 111600,
      "d": 122.5,
      "v": 86
    },
    {
      "midi": 60,
      "hit": false,
      "t": 111600,
      "d": 162.5,
      "v": 86
    },
    {
      "midi": 64,
      "hit": false,
      "t": 111600,
      "d": 175,
      "v": 77
    },
    {
      "midi": 43,
      "hit": false,
      "t": 111840,
      "d": 90,
      "v": 74
    },
    {
      "midi": 57,
      "hit": false,
      "t": 112080,
      "d": 132.5,
      "v": 86
    },
    {
      "midi": 60,
      "hit": false,
      "t": 112080,
      "d": 150,
      "v": 89
    },
    {
      "midi": 64,
      "hit": false,
      "t": 112080,
      "d": 165,
      "v": 80
    },
    {
      "midi": 48,
      "hit": false,
      "t": 112320,
      "d": 117.5,
      "v": 80
    },
    {
      "midi": 57,
      "hit": false,
      "t": 112320,
      "d": 120,
      "v": 86
    },
    {
      "midi": 60,
      "hit": false,
      "t": 112320,
      "d": 130,
      "v": 86
    },
    {
      "midi": 64,
      "hit": false,
      "t": 112320,
      "d": 155,
      "v": 74
    },
    {
      "midi": 55,
      "hit": false,
      "t": 113280,
      "d": 117.5,
      "v": 74
    },
    {
      "midi": 59,
      "hit": false,
      "t": 113520,
      "d": 105,
      "v": 74
    },
    {
      "midi": 62,
      "hit": false,
      "t": 113520,
      "d": 110,
      "v": 77
    },
    {
      "midi": 67,
      "hit": false,
      "t": 113520,
      "d": 125,
      "v": 74
    },
    {
      "midi": 50,
      "hit": false,
      "t": 113760,
      "d": 92.5,
      "v": 74
    },
    {
      "midi": 59,
      "hit": false,
      "t": 114000,
      "d": 97.5,
      "v": 83
    },
    {
      "midi": 62,
      "hit": false,
      "t": 114000,
      "d": 110,
      "v": 83
    },
    {
      "midi": 67,
      "hit": false,
      "t": 114000,
      "d": 112.5,
      "v": 77
    },
    {
      "midi": 55,
      "hit": false,
      "t": 114240,
      "d": 127.5,
      "v": 71
    },
    {
      "midi": 59,
      "hit": false,
      "t": 114480,
      "d": 112.5,
      "v": 77
    },
    {
      "midi": 67,
      "hit": false,
      "t": 114480,
      "d": 122.5,
      "v": 74
    },
    {
      "midi": 62,
      "hit": false,
      "t": 114480,
      "d": 130,
      "v": 80
    },
    {
      "midi": 50,
      "hit": false,
      "t": 114720,
      "d": 97.5,
      "v": 71
    },
    {
      "midi": 59,
      "hit": false,
      "t": 114960,
      "d": 120,
      "v": 80
    },
    {
      "midi": 62,
      "hit": false,
      "t": 114960,
      "d": 135,
      "v": 80
    },
    {
      "midi": 67,
      "hit": false,
      "t": 114960,
      "d": 137.5,
      "v": 71
    },
    {
      "midi": 48,
      "hit": false,
      "t": 115200,
      "d": 107.5,
      "v": 71
    },
    {
      "midi": 60,
      "hit": false,
      "t": 115440,
      "d": 105,
      "v": 83
    },
    {
      "midi": 67,
      "hit": false,
      "t": 115440,
      "d": 120,
      "v": 74
    },
    {
      "midi": 64,
      "hit": false,
      "t": 115440,
      "d": 130,
      "v": 86
    },
    {
      "midi": 55,
      "hit": false,
      "t": 115680,
      "d": 125,
      "v": 74
    },
    {
      "midi": 60,
      "hit": false,
      "t": 115920,
      "d": 115,
      "v": 74
    },
    {
      "midi": 67,
      "hit": false,
      "t": 115920,
      "d": 125,
      "v": 71
    },
    {
      "midi": 64,
      "hit": false,
      "t": 115920,
      "d": 147.5,
      "v": 83
    },
    {
      "midi": 48,
      "hit": false,
      "t": 116160,
      "d": 115,
      "v": 74
    },
    {
      "midi": 67,
      "hit": false,
      "t": 116400,
      "d": 115,
      "v": 74
    },
    {
      "midi": 60,
      "hit": false,
      "t": 116400,
      "d": 122.5,
      "v": 83
    },
    {
      "midi": 64,
      "hit": false,
      "t": 116400,
      "d": 145,
      "v": 86
    },
    {
      "midi": 55,
      "hit": false,
      "t": 116640,
      "d": 95,
      "v": 71
    },
    {
      "midi": 60,
      "hit": false,
      "t": 116880,
      "d": 100,
      "v": 80
    },
    {
      "midi": 67,
      "hit": false,
      "t": 116880,
      "d": 102.5,
      "v": 74
    },
    {
      "midi": 64,
      "hit": false,
      "t": 116880,
      "d": 105,
      "v": 83
    },
    {
      "midi": 53,
      "hit": false,
      "t": 117120,
      "d": 107.5,
      "v": 74
    },
    {
      "midi": 57,
      "hit": false,
      "t": 117360,
      "d": 120,
      "v": 74
    },
    {
      "midi": 60,
      "hit": false,
      "t": 117360,
      "d": 130,
      "v": 86
    },
    {
      "midi": 65,
      "hit": false,
      "t": 117360,
      "d": 137.5,
      "v": 74
    },
    {
      "midi": 48,
      "hit": false,
      "t": 117600,
      "d": 107.5,
      "v": 80
    },
    {
      "midi": 57,
      "hit": false,
      "t": 117840,
      "d": 82.5,
      "v": 80
    },
    {
      "midi": 60,
      "hit": false,
      "t": 117840,
      "d": 107.5,
      "v": 89
    },
    {
      "midi": 65,
      "hit": false,
      "t": 117840,
      "d": 122.5,
      "v": 77
    },
    {
      "midi": 48,
      "hit": false,
      "t": 118080,
      "d": 100,
      "v": 71
    },
    {
      "midi": 60,
      "hit": false,
      "t": 118320,
      "d": 102.5,
      "v": 83
    },
    {
      "midi": 55,
      "hit": false,
      "t": 118320,
      "d": 107.5,
      "v": 71
    },
    {
      "midi": 64,
      "hit": false,
      "t": 118320,
      "d": 127.5,
      "v": 80
    },
    {
      "midi": 43,
      "hit": false,
      "t": 118560,
      "d": 112.5,
      "v": 80
    },
    {
      "midi": 55,
      "hit": false,
      "t": 118800,
      "d": 85,
      "v": 71
    },
    {
      "midi": 60,
      "hit": false,
      "t": 118800,
      "d": 92.5,
      "v": 89
    },
    {
      "midi": 64,
      "hit": false,
      "t": 118800,
      "d": 125,
      "v": 80
    },
    {
      "midi": 55,
      "hit": false,
      "t": 119040,
      "d": 110,
      "v": 83
    },
    {
      "midi": 62,
      "hit": false,
      "t": 119280,
      "d": 105,
      "v": 89
    },
    {
      "midi": 59,
      "hit": false,
      "t": 119280,
      "d": 112.5,
      "v": 83
    },
    {
      "midi": 67,
      "hit": false,
      "t": 119280,
      "d": 115,
      "v": 77
    },
    {
      "midi": 50,
      "hit": false,
      "t": 119520,
      "d": 87.5,
      "v": 83
    },
    {
      "midi": 62,
      "hit": false,
      "t": 119760,
      "d": 85,
      "v": 80
    },
    {
      "midi": 59,
      "hit": false,
      "t": 119760,
      "d": 95,
      "v": 77
    },
    {
      "midi": 67,
      "hit": false,
      "t": 119760,
      "d": 102.5,
      "v": 74
    },
    {
      "midi": 60,
      "hit": false,
      "t": 120000,
      "d": 75,
      "v": 86
    },
    {
      "midi": 48,
      "hit": false,
      "t": 120000,
      "d": 77.5,
      "v": 80
    },
    {
      "midi": 67,
      "hit": false,
      "t": 120000,
      "d": 80,
      "v": 92
    },
    {
      "midi": 64,
      "hit": false,
      "t": 120000,
      "d": 82.5,
      "v": 86
    },
    {
      "midi": 67,
      "hit": false,
      "t": 120240,
      "d": 37.5,
      "v": 92
    },
    {
      "midi": 48,
      "hit": false,
      "t": 120240,
      "d": 52.5,
      "v": 89
    },
    {
      "midi": 64,
      "hit": false,
      "t": 120240,
      "d": 67.5,
      "v": 95
    },
    {
      "midi": 60,
      "hit": false,
      "t": 120240,
      "d": 85,
      "v": 89
    },
    {
      "midi": 67,
      "hit": false,
      "t": 120360,
      "d": 45,
      "v": 83
    },
    {
      "midi": 48,
      "hit": false,
      "t": 120360,
      "d": 70,
      "v": 92
    },
    {
      "midi": 64,
      "hit": false,
      "t": 120360,
      "d": 75,
      "v": 89
    },
    {
      "midi": 60,
      "hit": false,
      "t": 120360,
      "d": 85,
      "v": 86
    },
    {
      "midi": 48,
      "hit": false,
      "t": 120480,
      "d": 70,
      "v": 98
    },
    {
      "midi": 60,
      "hit": false,
      "t": 120480,
      "d": 80,
      "v": 95
    },
    {
      "midi": 67,
      "hit": false,
      "t": 120480,
      "d": 85,
      "v": 92
    },
    {
      "midi": 64,
      "hit": false,
      "t": 120480,
      "d": 87.5,
      "v": 86
    },
    {
      "midi": 53,
      "hit": false,
      "t": 130560,
      "d": 257.5,
      "v": 92
    },
    {
      "midi": 60,
      "hit": false,
      "t": 130800,
      "d": 105,
      "v": 86
    },
    {
      "midi": 65,
      "hit": false,
      "t": 130800,
      "d": 117.5,
      "v": 86
    },
    {
      "midi": 69,
      "hit": false,
      "t": 130800,
      "d": 127.5,
      "v": 74
    },
    {
      "midi": 48,
      "hit": false,
      "t": 131040,
      "d": 80,
      "v": 89
    },
    {
      "midi": 60,
      "hit": false,
      "t": 131280,
      "d": 105,
      "v": 86
    },
    {
      "midi": 65,
      "hit": false,
      "t": 131280,
      "d": 110,
      "v": 89
    },
    {
      "midi": 69,
      "hit": false,
      "t": 131280,
      "d": 127.5,
      "v": 77
    },
    {
      "midi": 53,
      "hit": false,
      "t": 131520,
      "d": 122.5,
      "v": 83
    },
    {
      "midi": 65,
      "hit": false,
      "t": 131760,
      "d": 100,
      "v": 86
    },
    {
      "midi": 60,
      "hit": false,
      "t": 131760,
      "d": 110,
      "v": 86
    },
    {
      "midi": 69,
      "hit": false,
      "t": 131760,
      "d": 115,
      "v": 77
    },
    {
      "midi": 48,
      "hit": false,
      "t": 132000,
      "d": 87.5,
      "v": 89
    },
    {
      "midi": 60,
      "hit": false,
      "t": 132240,
      "d": 65,
      "v": 77
    },
    {
      "midi": 65,
      "hit": false,
      "t": 132240,
      "d": 95,
      "v": 89
    },
    {
      "midi": 69,
      "hit": false,
      "t": 132240,
      "d": 107.5,
      "v": 74
    },
    {
      "midi": 53,
      "hit": false,
      "t": 132480,
      "d": 140,
      "v": 86
    },
    {
      "midi": 61,
      "hit": false,
      "t": 132720,
      "d": 167.5,
      "v": 89
    },
    {
      "midi": 65,
      "hit": false,
      "t": 132720,
      "d": 175,
      "v": 89
    },
    {
      "midi": 69,
      "hit": false,
      "t": 132720,
      "d": 190,
      "v": 86
    },
    {
      "midi": 49,
      "hit": false,
      "t": 132960,
      "d": 85,
      "v": 86
    },
    {
      "midi": 61,
      "hit": false,
      "t": 133200,
      "d": 122.5,
      "v": 95
    },
    {
      "midi": 69,
      "hit": false,
      "t": 133200,
      "d": 132.5,
      "v": 98
    },
    {
      "midi": 65,
      "hit": false,
      "t": 133200,
      "d": 135,
      "v": 92
    },
    {
      "midi": 53,
      "hit": false,
      "t": 133440,
      "d": 102.5,
      "v": 86
    },
    {
      "midi": 61,
      "hit": false,
      "t": 133680,
      "d": 90,
      "v": 92
    },
    {
      "midi": 65,
      "hit": false,
      "t": 133680,
      "d": 92.5,
      "v": 89
    },
    {
      "midi": 69,
      "hit": false,
      "t": 133680,
      "d": 115,
      "v": 92
    },
    {
      "midi": 49,
      "hit": false,
      "t": 133920,
      "d": 85,
      "v": 83
    },
    {
      "midi": 61,
      "hit": false,
      "t": 134160,
      "d": 122.5,
      "v": 80
    },
    {
      "midi": 65,
      "hit": false,
      "t": 134160,
      "d": 135,
      "v": 83
    },
    {
      "midi": 69,
      "hit": false,
      "t": 134160,
      "d": 155,
      "v": 83
    },
    {
      "midi": 46,
      "hit": false,
      "t": 134400,
      "d": 107.5,
      "v": 89
    },
    {
      "midi": 62,
      "hit": false,
      "t": 134640,
      "d": 117.5,
      "v": 92
    },
    {
      "midi": 65,
      "hit": false,
      "t": 134640,
      "d": 117.5,
      "v": 89
    },
    {
      "midi": 70,
      "hit": false,
      "t": 134640,
      "d": 127.5,
      "v": 89
    },
    {
      "midi": 41,
      "hit": false,
      "t": 134880,
      "d": 82.5,
      "v": 86
    },
    {
      "midi": 65,
      "hit": false,
      "t": 135120,
      "d": 62.5,
      "v": 92
    },
    {
      "midi": 62,
      "hit": false,
      "t": 135120,
      "d": 65,
      "v": 89
    },
    {
      "midi": 70,
      "hit": false,
      "t": 135120,
      "d": 90,
      "v": 86
    },
    {
      "midi": 46,
      "hit": false,
      "t": 135360,
      "d": 87.5,
      "v": 86
    },
    {
      "midi": 62,
      "hit": false,
      "t": 135600,
      "d": 135,
      "v": 89
    },
    {
      "midi": 65,
      "hit": false,
      "t": 135600,
      "d": 140,
      "v": 89
    },
    {
      "midi": 70,
      "hit": false,
      "t": 135600,
      "d": 140,
      "v": 89
    },
    {
      "midi": 41,
      "hit": false,
      "t": 135840,
      "d": 95,
      "v": 86
    },
    {
      "midi": 62,
      "hit": false,
      "t": 136080,
      "d": 87.5,
      "v": 92
    },
    {
      "midi": 65,
      "hit": false,
      "t": 136080,
      "d": 107.5,
      "v": 89
    },
    {
      "midi": 70,
      "hit": false,
      "t": 136080,
      "d": 120,
      "v": 89
    },
    {
      "midi": 53,
      "hit": false,
      "t": 136320,
      "d": 95,
      "v": 77
    },
    {
      "midi": 60,
      "hit": false,
      "t": 136560,
      "d": 122.5,
      "v": 86
    },
    {
      "midi": 65,
      "hit": false,
      "t": 136560,
      "d": 137.5,
      "v": 89
    },
    {
      "midi": 69,
      "hit": false,
      "t": 136560,
      "d": 145,
      "v": 86
    },
    {
      "midi": 48,
      "hit": false,
      "t": 136800,
      "d": 70,
      "v": 89
    },
    {
      "midi": 60,
      "hit": false,
      "t": 137040,
      "d": 75,
      "v": 92
    },
    {
      "midi": 65,
      "hit": false,
      "t": 137040,
      "d": 75,
      "v": 89
    },
    {
      "midi": 69,
      "hit": false,
      "t": 137040,
      "d": 87.5,
      "v": 89
    },
    {
      "midi": 53,
      "hit": false,
      "t": 137280,
      "d": 145,
      "v": 86
    },
    {
      "midi": 60,
      "hit": false,
      "t": 137520,
      "d": 82.5,
      "v": 89
    },
    {
      "midi": 65,
      "hit": false,
      "t": 137520,
      "d": 85,
      "v": 89
    },
    {
      "midi": 69,
      "hit": false,
      "t": 137520,
      "d": 105,
      "v": 86
    },
    {
      "midi": 48,
      "hit": false,
      "t": 137760,
      "d": 82.5,
      "v": 86
    },
    {
      "midi": 60,
      "hit": false,
      "t": 138000,
      "d": 77.5,
      "v": 89
    },
    {
      "midi": 65,
      "hit": false,
      "t": 138000,
      "d": 90,
      "v": 89
    },
    {
      "midi": 69,
      "hit": false,
      "t": 138000,
      "d": 102.5,
      "v": 86
    },
    {
      "midi": 52,
      "hit": false,
      "t": 138240,
      "d": 135,
      "v": 89
    },
    {
      "midi": 59,
      "hit": false,
      "t": 138480,
      "d": 115,
      "v": 86
    },
    {
      "midi": 64,
      "hit": false,
      "t": 138480,
      "d": 135,
      "v": 83
    },
    {
      "midi": 68,
      "hit": false,
      "t": 138480,
      "d": 142.5,
      "v": 74
    },
    {
      "midi": 47,
      "hit": false,
      "t": 138720,
      "d": 112.5,
      "v": 83
    },
    {
      "midi": 59,
      "hit": false,
      "t": 138960,
      "d": 100,
      "v": 86
    },
    {
      "midi": 64,
      "hit": false,
      "t": 138960,
      "d": 107.5,
      "v": 86
    },
    {
      "midi": 68,
      "hit": false,
      "t": 138960,
      "d": 110,
      "v": 77
    },
    {
      "midi": 52,
      "hit": false,
      "t": 139200,
      "d": 130,
      "v": 89
    },
    {
      "midi": 59,
      "hit": false,
      "t": 139440,
      "d": 92.5,
      "v": 80
    },
    {
      "midi": 64,
      "hit": false,
      "t": 139440,
      "d": 115,
      "v": 83
    },
    {
      "midi": 68,
      "hit": false,
      "t": 139440,
      "d": 125,
      "v": 80
    },
    {
      "midi": 47,
      "hit": false,
      "t": 139680,
      "d": 112.5,
      "v": 83
    },
    {
      "midi": 59,
      "hit": false,
      "t": 139920,
      "d": 100,
      "v": 83
    },
    {
      "midi": 64,
      "hit": false,
      "t": 139920,
      "d": 110,
      "v": 83
    },
    {
      "midi": 68,
      "hit": false,
      "t": 139920,
      "d": 112.5,
      "v": 74
    },
    {
      "midi": 55,
      "hit": false,
      "t": 140160,
      "d": 127.5,
      "v": 86
    },
    {
      "midi": 62,
      "hit": false,
      "t": 140400,
      "d": 95,
      "v": 89
    },
    {
      "midi": 58,
      "hit": false,
      "t": 140400,
      "d": 97.5,
      "v": 86
    },
    {
      "midi": 67,
      "hit": false,
      "t": 140400,
      "d": 125,
      "v": 83
    },
    {
      "midi": 50,
      "hit": false,
      "t": 140640,
      "d": 102.5,
      "v": 86
    },
    {
      "midi": 62,
      "hit": false,
      "t": 140880,
      "d": 85,
      "v": 89
    },
    {
      "midi": 58,
      "hit": false,
      "t": 140880,
      "d": 95,
      "v": 89
    },
    {
      "midi": 67,
      "hit": false,
      "t": 140880,
      "d": 115,
      "v": 83
    },
    {
      "midi": 55,
      "hit": false,
      "t": 141120,
      "d": 155,
      "v": 77
    },
    {
      "midi": 62,
      "hit": false,
      "t": 141360,
      "d": 85,
      "v": 86
    },
    {
      "midi": 58,
      "hit": false,
      "t": 141360,
      "d": 92.5,
      "v": 89
    },
    {
      "midi": 67,
      "hit": false,
      "t": 141360,
      "d": 110,
      "v": 83
    },
    {
      "midi": 50,
      "hit": false,
      "t": 141600,
      "d": 120,
      "v": 89
    },
    {
      "midi": 58,
      "hit": false,
      "t": 141840,
      "d": 112.5,
      "v": 86
    },
    {
      "midi": 62,
      "hit": false,
      "t": 141840,
      "d": 127.5,
      "v": 89
    },
    {
      "midi": 67,
      "hit": false,
      "t": 141840,
      "d": 152.5,
      "v": 77
    },
    {
      "midi": 50,
      "hit": false,
      "t": 142080,
      "d": 187.5,
      "v": 89
    },
    {
      "midi": 62,
      "hit": false,
      "t": 142320,
      "d": 107.5,
      "v": 86
    },
    {
      "midi": 57,
      "hit": false,
      "t": 142320,
      "d": 110,
      "v": 86
    },
    {
      "midi": 66,
      "hit": false,
      "t": 142320,
      "d": 145,
      "v": 80
    },
    {
      "midi": 45,
      "hit": false,
      "t": 142560,
      "d": 97.5,
      "v": 86
    },
    {
      "midi": 62,
      "hit": false,
      "t": 142800,
      "d": 90,
      "v": 83
    },
    {
      "midi": 57,
      "hit": false,
      "t": 142800,
      "d": 97.5,
      "v": 86
    },
    {
      "midi": 66,
      "hit": false,
      "t": 142800,
      "d": 125,
      "v": 77
    },
    {
      "midi": 50,
      "hit": false,
      "t": 143040,
      "d": 165,
      "v": 86
    },
    {
      "midi": 62,
      "hit": false,
      "t": 143280,
      "d": 92.5,
      "v": 86
    },
    {
      "midi": 57,
      "hit": false,
      "t": 143280,
      "d": 97.5,
      "v": 86
    },
    {
      "midi": 66,
      "hit": false,
      "t": 143280,
      "d": 117.5,
      "v": 74
    },
    {
      "midi": 45,
      "hit": false,
      "t": 143520,
      "d": 97.5,
      "v": 86
    },
    {
      "midi": 62,
      "hit": false,
      "t": 143760,
      "d": 97.5,
      "v": 89
    },
    {
      "midi": 57,
      "hit": false,
      "t": 143760,
      "d": 105,
      "v": 86
    },
    {
      "midi": 66,
      "hit": false,
      "t": 143760,
      "d": 125,
      "v": 77
    },
    {
      "midi": 48,
      "hit": false,
      "t": 144000,
      "d": 132.5,
      "v": 86
    },
    {
      "midi": 55,
      "hit": false,
      "t": 144240,
      "d": 105,
      "v": 86
    },
    {
      "midi": 60,
      "hit": false,
      "t": 144240,
      "d": 107.5,
      "v": 86
    },
    {
      "midi": 64,
      "hit": false,
      "t": 144240,
      "d": 135,
      "v": 80
    },
    {
      "midi": 43,
      "hit": false,
      "t": 144480,
      "d": 107.5,
      "v": 86
    },
    {
      "midi": 60,
      "hit": false,
      "t": 144720,
      "d": 87.5,
      "v": 89
    },
    {
      "midi": 55,
      "hit": false,
      "t": 144720,
      "d": 92.5,
      "v": 86
    },
    {
      "midi": 64,
      "hit": false,
      "t": 144720,
      "d": 117.5,
      "v": 80
    },
    {
      "midi": 48,
      "hit": false,
      "t": 144960,
      "d": 120,
      "v": 89
    },
    {
      "midi": 60,
      "hit": false,
      "t": 145200,
      "d": 80,
      "v": 86
    },
    {
      "midi": 55,
      "hit": false,
      "t": 145200,
      "d": 100,
      "v": 86
    },
    {
      "midi": 64,
      "hit": false,
      "t": 145200,
      "d": 105,
      "v": 86
    },
    {
      "midi": 43,
      "hit": false,
      "t": 145440,
      "d": 97.5,
      "v": 86
    },
    {
      "midi": 60,
      "hit": false,
      "t": 145680,
      "d": 82.5,
      "v": 89
    },
    {
      "midi": 55,
      "hit": false,
      "t": 145680,
      "d": 92.5,
      "v": 74
    },
    {
      "midi": 64,
      "hit": false,
      "t": 145680,
      "d": 110,
      "v": 86
    },
    {
      "midi": 53,
      "hit": false,
      "t": 145920,
      "d": 257.5,
      "v": 92
    },
    {
      "midi": 60,
      "hit": false,
      "t": 146160,
      "d": 105,
      "v": 86
    },
    {
      "midi": 65,
      "hit": false,
      "t": 146160,
      "d": 117.5,
      "v": 86
    },
    {
      "midi": 69,
      "hit": false,
      "t": 146160,
      "d": 127.5,
      "v": 74
    },
    {
      "midi": 48,
      "hit": false,
      "t": 146400,
      "d": 80,
      "v": 89
    },
    {
      "midi": 60,
      "hit": false,
      "t": 146640,
      "d": 105,
      "v": 86
    },
    {
      "midi": 65,
      "hit": false,
      "t": 146640,
      "d": 110,
      "v": 89
    },
    {
      "midi": 69,
      "hit": false,
      "t": 146640,
      "d": 127.5,
      "v": 77
    },
    {
      "midi": 53,
      "hit": false,
      "t": 146880,
      "d": 122.5,
      "v": 83
    },
    {
      "midi": 65,
      "hit": false,
      "t": 147120,
      "d": 100,
      "v": 86
    },
    {
      "midi": 60,
      "hit": false,
      "t": 147120,
      "d": 110,
      "v": 86
    },
    {
      "midi": 69,
      "hit": false,
      "t": 147120,
      "d": 115,
      "v": 77
    },
    {
      "midi": 48,
      "hit": false,
      "t": 147360,
      "d": 87.5,
      "v": 89
    },
    {
      "midi": 60,
      "hit": false,
      "t": 147600,
      "d": 65,
      "v": 77
    },
    {
      "midi": 65,
      "hit": false,
      "t": 147600,
      "d": 95,
      "v": 89
    },
    {
      "midi": 69,
      "hit": false,
      "t": 147600,
      "d": 107.5,
      "v": 74
    },
    {
      "midi": 53,
      "hit": false,
      "t": 147840,
      "d": 140,
      "v": 86
    },
    {
      "midi": 61,
      "hit": false,
      "t": 148080,
      "d": 167.5,
      "v": 89
    },
    {
      "midi": 65,
      "hit": false,
      "t": 148080,
      "d": 175,
      "v": 89
    },
    {
      "midi": 69,
      "hit": false,
      "t": 148080,
      "d": 190,
      "v": 86
    },
    {
      "midi": 49,
      "hit": false,
      "t": 148320,
      "d": 85,
      "v": 86
    },
    {
      "midi": 61,
      "hit": false,
      "t": 148560,
      "d": 122.5,
      "v": 95
    },
    {
      "midi": 69,
      "hit": false,
      "t": 148560,
      "d": 132.5,
      "v": 98
    },
    {
      "midi": 65,
      "hit": false,
      "t": 148560,
      "d": 135,
      "v": 92
    },
    {
      "midi": 53,
      "hit": false,
      "t": 148800,
      "d": 102.5,
      "v": 86
    },
    {
      "midi": 61,
      "hit": false,
      "t": 149040,
      "d": 90,
      "v": 92
    },
    {
      "midi": 65,
      "hit": false,
      "t": 149040,
      "d": 92.5,
      "v": 89
    },
    {
      "midi": 69,
      "hit": false,
      "t": 149040,
      "d": 115,
      "v": 92
    },
    {
      "midi": 49,
      "hit": false,
      "t": 149280,
      "d": 85,
      "v": 83
    },
    {
      "midi": 61,
      "hit": false,
      "t": 149520,
      "d": 122.5,
      "v": 80
    },
    {
      "midi": 65,
      "hit": false,
      "t": 149520,
      "d": 135,
      "v": 83
    },
    {
      "midi": 69,
      "hit": false,
      "t": 149520,
      "d": 155,
      "v": 83
    },
    {
      "midi": 46,
      "hit": false,
      "t": 149760,
      "d": 107.5,
      "v": 89
    },
    {
      "midi": 62,
      "hit": false,
      "t": 150000,
      "d": 117.5,
      "v": 92
    },
    {
      "midi": 65,
      "hit": false,
      "t": 150000,
      "d": 117.5,
      "v": 89
    },
    {
      "midi": 70,
      "hit": false,
      "t": 150000,
      "d": 127.5,
      "v": 89
    },
    {
      "midi": 41,
      "hit": false,
      "t": 150240,
      "d": 82.5,
      "v": 86
    },
    {
      "midi": 65,
      "hit": false,
      "t": 150480,
      "d": 62.5,
      "v": 92
    },
    {
      "midi": 62,
      "hit": false,
      "t": 150480,
      "d": 65,
      "v": 89
    },
    {
      "midi": 70,
      "hit": false,
      "t": 150480,
      "d": 90,
      "v": 86
    },
    {
      "midi": 46,
      "hit": false,
      "t": 150720,
      "d": 87.5,
      "v": 86
    },
    {
      "midi": 62,
      "hit": false,
      "t": 150960,
      "d": 135,
      "v": 89
    },
    {
      "midi": 65,
      "hit": false,
      "t": 150960,
      "d": 140,
      "v": 89
    },
    {
      "midi": 70,
      "hit": false,
      "t": 150960,
      "d": 140,
      "v": 89
    },
    {
      "midi": 41,
      "hit": false,
      "t": 151200,
      "d": 95,
      "v": 86
    },
    {
      "midi": 62,
      "hit": false,
      "t": 151440,
      "d": 87.5,
      "v": 92
    },
    {
      "midi": 65,
      "hit": false,
      "t": 151440,
      "d": 107.5,
      "v": 89
    },
    {
      "midi": 70,
      "hit": false,
      "t": 151440,
      "d": 120,
      "v": 89
    },
    {
      "midi": 53,
      "hit": false,
      "t": 151680,
      "d": 95,
      "v": 77
    },
    {
      "midi": 60,
      "hit": false,
      "t": 151920,
      "d": 122.5,
      "v": 86
    },
    {
      "midi": 65,
      "hit": false,
      "t": 151920,
      "d": 137.5,
      "v": 89
    },
    {
      "midi": 69,
      "hit": false,
      "t": 151920,
      "d": 145,
      "v": 86
    },
    {
      "midi": 48,
      "hit": false,
      "t": 152160,
      "d": 70,
      "v": 89
    },
    {
      "midi": 60,
      "hit": false,
      "t": 152400,
      "d": 75,
      "v": 92
    },
    {
      "midi": 65,
      "hit": false,
      "t": 152400,
      "d": 75,
      "v": 89
    },
    {
      "midi": 69,
      "hit": false,
      "t": 152400,
      "d": 87.5,
      "v": 89
    },
    {
      "midi": 53,
      "hit": false,
      "t": 152640,
      "d": 145,
      "v": 86
    },
    {
      "midi": 60,
      "hit": false,
      "t": 152880,
      "d": 82.5,
      "v": 89
    },
    {
      "midi": 65,
      "hit": false,
      "t": 152880,
      "d": 85,
      "v": 89
    },
    {
      "midi": 69,
      "hit": false,
      "t": 152880,
      "d": 105,
      "v": 86
    },
    {
      "midi": 48,
      "hit": false,
      "t": 153120,
      "d": 82.5,
      "v": 86
    },
    {
      "midi": 60,
      "hit": false,
      "t": 153360,
      "d": 77.5,
      "v": 89
    },
    {
      "midi": 65,
      "hit": false,
      "t": 153360,
      "d": 90,
      "v": 89
    },
    {
      "midi": 69,
      "hit": false,
      "t": 153360,
      "d": 102.5,
      "v": 86
    },
    {
      "midi": 50,
      "hit": false,
      "t": 153600,
      "d": 167.5,
      "v": 89
    },
    {
      "midi": 62,
      "hit": false,
      "t": 153840,
      "d": 100,
      "v": 89
    },
    {
      "midi": 57,
      "hit": false,
      "t": 153840,
      "d": 105,
      "v": 86
    },
    {
      "midi": 65,
      "hit": false,
      "t": 153840,
      "d": 130,
      "v": 83
    },
    {
      "midi": 45,
      "hit": false,
      "t": 154080,
      "d": 95,
      "v": 86
    },
    {
      "midi": 57,
      "hit": false,
      "t": 154320,
      "d": 97.5,
      "v": 86
    },
    {
      "midi": 62,
      "hit": false,
      "t": 154320,
      "d": 100,
      "v": 92
    },
    {
      "midi": 65,
      "hit": false,
      "t": 154320,
      "d": 125,
      "v": 83
    },
    {
      "midi": 50,
      "hit": false,
      "t": 154560,
      "d": 122.5,
      "v": 80
    },
    {
      "midi": 62,
      "hit": false,
      "t": 154800,
      "d": 100,
      "v": 89
    },
    {
      "midi": 57,
      "hit": false,
      "t": 154800,
      "d": 102.5,
      "v": 86
    },
    {
      "midi": 65,
      "hit": false,
      "t": 154800,
      "d": 132.5,
      "v": 83
    },
    {
      "midi": 45,
      "hit": false,
      "t": 155040,
      "d": 95,
      "v": 89
    },
    {
      "midi": 57,
      "hit": false,
      "t": 155280,
      "d": 102.5,
      "v": 86
    },
    {
      "midi": 62,
      "hit": false,
      "t": 155280,
      "d": 107.5,
      "v": 89
    },
    {
      "midi": 65,
      "hit": false,
      "t": 155280,
      "d": 122.5,
      "v": 80
    },
    {
      "midi": 53,
      "hit": false,
      "t": 155520,
      "d": 145,
      "v": 89
    },
    {
      "midi": 57,
      "hit": false,
      "t": 155760,
      "d": 100,
      "v": 86
    },
    {
      "midi": 60,
      "hit": false,
      "t": 155760,
      "d": 100,
      "v": 89
    },
    {
      "midi": 65,
      "hit": false,
      "t": 155760,
      "d": 120,
      "v": 83
    },
    {
      "midi": 48,
      "hit": false,
      "t": 156000,
      "d": 100,
      "v": 86
    },
    {
      "midi": 60,
      "hit": false,
      "t": 156240,
      "d": 80,
      "v": 89
    },
    {
      "midi": 57,
      "hit": false,
      "t": 156240,
      "d": 90,
      "v": 89
    },
    {
      "midi": 65,
      "hit": false,
      "t": 156240,
      "d": 107.5,
      "v": 83
    },
    {
      "midi": 53,
      "hit": false,
      "t": 156480,
      "d": 125,
      "v": 80
    },
    {
      "midi": 60,
      "hit": false,
      "t": 156720,
      "d": 87.5,
      "v": 89
    },
    {
      "midi": 57,
      "hit": false,
      "t": 156720,
      "d": 90,
      "v": 89
    },
    {
      "midi": 65,
      "hit": false,
      "t": 156720,
      "d": 107.5,
      "v": 83
    },
    {
      "midi": 48,
      "hit": false,
      "t": 156960,
      "d": 105,
      "v": 89
    },
    {
      "midi": 57,
      "hit": false,
      "t": 157200,
      "d": 92.5,
      "v": 86
    },
    {
      "midi": 60,
      "hit": false,
      "t": 157200,
      "d": 92.5,
      "v": 89
    },
    {
      "midi": 65,
      "hit": false,
      "t": 157200,
      "d": 122.5,
      "v": 77
    },
    {
      "midi": 48,
      "hit": false,
      "t": 157440,
      "d": 117.5,
      "v": 86
    },
    {
      "midi": 55,
      "hit": false,
      "t": 157680,
      "d": 100,
      "v": 80
    },
    {
      "midi": 60,
      "hit": false,
      "t": 157680,
      "d": 100,
      "v": 83
    },
    {
      "midi": 64,
      "hit": false,
      "t": 157680,
      "d": 122.5,
      "v": 80
    },
    {
      "midi": 43,
      "hit": false,
      "t": 157920,
      "d": 105,
      "v": 83
    },
    {
      "midi": 60,
      "hit": false,
      "t": 158160,
      "d": 90,
      "v": 86
    },
    {
      "midi": 55,
      "hit": false,
      "t": 158160,
      "d": 97.5,
      "v": 83
    },
    {
      "midi": 64,
      "hit": false,
      "t": 158160,
      "d": 115,
      "v": 83
    },
    {
      "midi": 48,
      "hit": false,
      "t": 158400,
      "d": 115,
      "v": 89
    },
    {
      "midi": 60,
      "hit": false,
      "t": 158640,
      "d": 97.5,
      "v": 86
    },
    {
      "midi": 55,
      "hit": false,
      "t": 158640,
      "d": 102.5,
      "v": 83
    },
    {
      "midi": 64,
      "hit": false,
      "t": 158640,
      "d": 127.5,
      "v": 83
    },
    {
      "midi": 43,
      "hit": false,
      "t": 158880,
      "d": 142.5,
      "v": 89
    },
    {
      "midi": 60,
      "hit": false,
      "t": 159120,
      "d": 95,
      "v": 89
    },
    {
      "midi": 55,
      "hit": false,
      "t": 159120,
      "d": 97.5,
      "v": 83
    },
    {
      "midi": 64,
      "hit": false,
      "t": 159120,
      "d": 122.5,
      "v": 83
    },
    {
      "midi": 53,
      "hit": false,
      "t": 159360,
      "d": 177.5,
      "v": 89
    },
    {
      "midi": 57,
      "hit": false,
      "t": 159600,
      "d": 172.5,
      "v": 86
    },
    {
      "midi": 60,
      "hit": false,
      "t": 159600,
      "d": 180,
      "v": 89
    },
    {
      "midi": 65,
      "hit": false,
      "t": 159600,
      "d": 202.5,
      "v": 83
    },
    {
      "midi": 48,
      "hit": false,
      "t": 159840,
      "d": 147.5,
      "v": 86
    },
    {
      "midi": 57,
      "hit": false,
      "t": 160080,
      "d": 117.5,
      "v": 83
    },
    {
      "midi": 60,
      "hit": false,
      "t": 160080,
      "d": 125,
      "v": 86
    },
    {
      "midi": 65,
      "hit": false,
      "t": 160080,
      "d": 132.5,
      "v": 80
    },
    {
      "midi": 60,
      "hit": false,
      "t": 160320,
      "d": 80,
      "v": 89
    },
    {
      "midi": 57,
      "hit": false,
      "t": 160320,
      "d": 97.5,
      "v": 92
    },
    {
      "midi": 53,
      "hit": false,
      "t": 160320,
      "d": 102.5,
      "v": 89
    },
    {
      "midi": 65,
      "hit": false,
      "t": 160320,
      "d": 102.5,
      "v": 92
    },
    {
      "midi": 58,
      "hit": false,
      "t": 160560,
      "d": 80,
      "v": 98
    },
    {
      "midi": 51,
      "hit": false,
      "t": 160560,
      "d": 95,
      "v": 98
    },
    {
      "midi": 55,
      "hit": false,
      "t": 160560,
      "d": 100,
      "v": 95
    },
    {
      "midi": 63,
      "hit": false,
      "t": 160560,
      "d": 102.5,
      "v": 95
    },
    {
      "midi": 53,
      "hit": false,
      "t": 160800,
      "d": 107.5,
      "v": 95
    },
    {
      "midi": 60,
      "hit": false,
      "t": 160800,
      "d": 140,
      "v": 101
    },
    {
      "midi": 57,
      "hit": false,
      "t": 160800,
      "d": 150,
      "v": 89
    },
    {
      "midi": 65,
      "hit": false,
      "t": 160800,
      "d": 160,
      "v": 98
    }
  ]
}