{
  "jsonPath": "Pop/Bow Pop/Ed Alleyne-Johnson/without-you.json",
  "path": "Pop\\Bow Pop\\Ed Alleyne-Johnson\\Without You.mid",
  "name": "Without You",
  "difficulty": "Advanced",
  "bpm": 67.00025348429234,
  "notes": [
    {
      "midi": 71,
      "hit": false,
      "t": 3582.0759999999996,
      "d": 727.6091874999997,
      "v": 111
    },
    {
      "midi": 78,
      "hit": false,
      "t": 3582.0759999999996,
      "d": 727.6091874999997,
      "v": 108
    },
    {
      "midi": 52,
      "hit": false,
      "t": 3582.0759999999996,
      "d": 2919.7650729166676,
      "v": 101
    },
    {
      "midi": 78,
      "hit": false,
      "t": 4477.594999999999,
      "d": 839.5490625000002,
      "v": 105
    },
    {
      "midi": 71,
      "hit": false,
      "t": 4477.594999999999,
      "d": 914.1756458333339,
      "v": 104
    },
    {
      "midi": 64,
      "hit": false,
      "t": 4925.3544999999995,
      "d": 2089.544333333335,
      "v": 88
    },
    {
      "midi": 68,
      "hit": false,
      "t": 5373.114,
      "d": 820.8924166666675,
      "v": 106
    },
    {
      "midi": 76,
      "hit": false,
      "t": 5373.114,
      "d": 820.8924166666675,
      "v": 111
    },
    {
      "midi": 76,
      "hit": false,
      "t": 6268.633000000001,
      "d": 858.2057083333339,
      "v": 113
    },
    {
      "midi": 68,
      "hit": false,
      "t": 6268.633000000001,
      "d": 895.5190000000002,
      "v": 94
    },
    {
      "midi": 52,
      "hit": false,
      "t": 6716.392500000001,
      "d": 3404.837864583332,
      "v": 110
    },
    {
      "midi": 71,
      "hit": false,
      "t": 7164.152000000001,
      "d": 736.9375104166666,
      "v": 113
    },
    {
      "midi": 78,
      "hit": false,
      "t": 7164.152000000001,
      "d": 746.2658333333329,
      "v": 108
    },
    {
      "midi": 64,
      "hit": false,
      "t": 7164.152000000001,
      "d": 1175.3686874999994,
      "v": 105
    },
    {
      "midi": 78,
      "hit": false,
      "t": 8059.671,
      "d": 876.8623541666675,
      "v": 118
    },
    {
      "midi": 71,
      "hit": false,
      "t": 8059.671,
      "d": 914.175645833333,
      "v": 117
    },
    {
      "midi": 64,
      "hit": false,
      "t": 8507.4305,
      "d": 1958.9478124999987,
      "v": 101
    },
    {
      "midi": 68,
      "hit": false,
      "t": 8955.19,
      "d": 820.8924166666657,
      "v": 112
    },
    {
      "midi": 76,
      "hit": false,
      "t": 8955.19,
      "d": 820.8924166666657,
      "v": 105
    },
    {
      "midi": 76,
      "hit": false,
      "t": 9850.708999999999,
      "d": 811.5640937499993,
      "v": 108
    },
    {
      "midi": 68,
      "hit": false,
      "t": 9850.708999999999,
      "d": 904.8473229166648,
      "v": 95
    },
    {
      "midi": 52,
      "hit": false,
      "t": 10298.468499999999,
      "d": 4029.8354999999938,
      "v": 106
    },
    {
      "midi": 71,
      "hit": false,
      "t": 10746.227999999997,
      "d": 708.9525416666656,
      "v": 108
    },
    {
      "midi": 78,
      "hit": false,
      "t": 10746.227999999997,
      "d": 718.280864583332,
      "v": 105
    },
    {
      "midi": 64,
      "hit": false,
      "t": 10746.227999999997,
      "d": 1138.0553958333312,
      "v": 103
    },
    {
      "midi": 78,
      "hit": false,
      "t": 11641.746999999996,
      "d": 876.8623541666675,
      "v": 116
    },
    {
      "midi": 71,
      "hit": false,
      "t": 11641.746999999996,
      "d": 923.5039687499993,
      "v": 119
    },
    {
      "midi": 64,
      "hit": false,
      "t": 12089.506499999996,
      "d": 1669.7698020833323,
      "v": 99
    },
    {
      "midi": 68,
      "hit": false,
      "t": 12537.265999999996,
      "d": 820.8924166666657,
      "v": 110
    },
    {
      "midi": 76,
      "hit": false,
      "t": 12537.265999999996,
      "d": 820.8924166666657,
      "v": 105
    },
    {
      "midi": 76,
      "hit": false,
      "t": 13432.784999999994,
      "d": 746.2658333333329,
      "v": 110
    },
    {
      "midi": 68,
      "hit": false,
      "t": 13432.784999999994,
      "d": 867.5340312499993,
      "v": 103
    },
    {
      "midi": 64,
      "hit": false,
      "t": 13880.544499999995,
      "d": 447.7594999999983,
      "v": 97
    },
    {
      "midi": 71,
      "hit": false,
      "t": 14328.303999999993,
      "d": 708.9525416666675,
      "v": 116
    },
    {
      "midi": 70,
      "hit": false,
      "t": 14328.303999999993,
      "d": 727.6091875000002,
      "v": 101
    },
    {
      "midi": 75,
      "hit": false,
      "t": 14328.303999999993,
      "d": 727.6091875000002,
      "v": 103
    },
    {
      "midi": 56,
      "hit": false,
      "t": 14328.303999999993,
      "d": 1026.115520833333,
      "v": 96
    },
    {
      "midi": 70,
      "hit": false,
      "t": 15223.822999999993,
      "d": 736.9375104166666,
      "v": 108
    },
    {
      "midi": 75,
      "hit": false,
      "t": 15223.822999999993,
      "d": 830.2207395833339,
      "v": 105
    },
    {
      "midi": 71,
      "hit": false,
      "t": 15223.822999999993,
      "d": 848.8773854166666,
      "v": 120
    },
    {
      "midi": 56,
      "hit": false,
      "t": 15671.582499999993,
      "d": 1595.1432187499922,
      "v": 106
    },
    {
      "midi": 68,
      "hit": false,
      "t": 16119.341999999993,
      "d": 391.7895624999983,
      "v": 100
    },
    {
      "midi": 75,
      "hit": false,
      "t": 16119.341999999993,
      "d": 820.892416666662,
      "v": 101
    },
    {
      "midi": 71,
      "hit": false,
      "t": 16119.341999999993,
      "d": 848.8773854166611,
      "v": 116
    },
    {
      "midi": 68,
      "hit": false,
      "t": 16567.10149999999,
      "d": 345.14794791666645,
      "v": 85
    },
    {
      "midi": 68,
      "hit": false,
      "t": 17014.860999999986,
      "d": 485.0727916666656,
      "v": 110
    },
    {
      "midi": 71,
      "hit": false,
      "t": 17014.860999999986,
      "d": 690.2958958333329,
      "v": 122
    },
    {
      "midi": 75,
      "hit": false,
      "t": 17014.860999999986,
      "d": 690.2958958333329,
      "v": 110
    },
    {
      "midi": 56,
      "hit": false,
      "t": 17462.620499999986,
      "d": 419.7745312499974,
      "v": 112
    },
    {
      "midi": 68,
      "hit": false,
      "t": 17686.500249999986,
      "d": 158.58148958333186,
      "v": 88
    },
    {
      "midi": 73,
      "hit": false,
      "t": 17910.379999999983,
      "d": 736.9375104166684,
      "v": 114
    },
    {
      "midi": 68,
      "hit": false,
      "t": 17910.379999999983,
      "d": 746.2658333333347,
      "v": 91
    },
    {
      "midi": 69,
      "hit": false,
      "t": 17910.379999999983,
      "d": 764.9224791666675,
      "v": 110
    },
    {
      "midi": 54,
      "hit": false,
      "t": 17910.379999999983,
      "d": 1194.0253333333349,
      "v": 99
    },
    {
      "midi": 68,
      "hit": false,
      "t": 18805.898999999983,
      "d": 820.8924166666657,
      "v": 106
    },
    {
      "midi": 73,
      "hit": false,
      "t": 18805.898999999983,
      "d": 830.220739583332,
      "v": 121
    },
    {
      "midi": 69,
      "hit": false,
      "t": 18805.898999999983,
      "d": 867.5340312499975,
      "v": 127
    },
    {
      "midi": 54,
      "hit": false,
      "t": 19253.658499999983,
      "d": 391.7895624999983,
      "v": 114
    },
    {
      "midi": 66,
      "hit": false,
      "t": 19701.41799999998,
      "d": 373.13291666666555,
      "v": 105
    },
    {
      "midi": 69,
      "hit": false,
      "t": 19701.41799999998,
      "d": 755.5941562500011,
      "v": 115
    },
    {
      "midi": 73,
      "hit": false,
      "t": 19701.41799999998,
      "d": 755.5941562500011,
      "v": 116
    },
    {
      "midi": 54,
      "hit": false,
      "t": 19701.41799999998,
      "d": 1194.0253333333349,
      "v": 110
    },
    {
      "midi": 66,
      "hit": false,
      "t": 20149.17749999998,
      "d": 326.4913020833337,
      "v": 67
    },
    {
      "midi": 69,
      "hit": false,
      "t": 20596.93699999998,
      "d": 736.9375104166684,
      "v": 122
    },
    {
      "midi": 66,
      "hit": false,
      "t": 20596.93699999998,
      "d": 755.5941562500011,
      "v": 110
    },
    {
      "midi": 73,
      "hit": false,
      "t": 20596.93699999998,
      "d": 802.2357708333329,
      "v": 126
    },
    {
      "midi": 54,
      "hit": false,
      "t": 21044.69649999998,
      "d": 382.4612395833319,
      "v": 116
    },
    {
      "midi": 56,
      "hit": false,
      "t": 21492.45599999998,
      "d": 1725.7397395833323,
      "v": 116
    },
    {
      "midi": 63,
      "hit": false,
      "t": 21940.21549999998,
      "d": 690.2958958333329,
      "v": 92
    },
    {
      "midi": 66,
      "hit": false,
      "t": 22387.97499999998,
      "d": 783.5791250000002,
      "v": 121
    },
    {
      "midi": 68,
      "hit": false,
      "t": 22387.97499999998,
      "d": 802.2357708333329,
      "v": 118
    },
    {
      "midi": 63,
      "hit": false,
      "t": 22835.73449999998,
      "d": 774.2508020833338,
      "v": 96
    },
    {
      "midi": 72,
      "hit": false,
      "t": 23283.49399999998,
      "d": 811.5640937499993,
      "v": 120
    },
    {
      "midi": 66,
      "hit": false,
      "t": 23283.49399999998,
      "d": 858.2057083333311,
      "v": 106
    },
    {
      "midi": 56,
      "hit": false,
      "t": 23283.49399999998,
      "d": 1240.666947916663,
      "v": 95
    },
    {
      "midi": 63,
      "hit": false,
      "t": 23731.25349999998,
      "d": 401.11788541666465,
      "v": 94
    },
    {
      "midi": 63,
      "hit": false,
      "t": 24179.012999999977,
      "d": 718.280864583332,
      "v": 106
    },
    {
      "midi": 66,
      "hit": false,
      "t": 24179.012999999977,
      "d": 727.6091874999984,
      "v": 114
    },
    {
      "midi": 70,
      "hit": false,
      "t": 24179.012999999977,
      "d": 755.5941562499975,
      "v": 114
    },
    {
      "midi": 56,
      "hit": false,
      "t": 24626.772499999977,
      "d": 485.07279166666194,
      "v": 105
    },
    {
      "midi": 68,
      "hit": false,
      "t": 25074.531999999974,
      "d": 354.4762708333328,
      "v": 110
    },
    {
      "midi": 73,
      "hit": false,
      "t": 25074.531999999974,
      "d": 774.2508020833338,
      "v": 112
    },
    {
      "midi": 76,
      "hit": false,
      "t": 25074.531999999974,
      "d": 774.2508020833338,
      "v": 117
    },
    {
      "midi": 49,
      "hit": false,
      "t": 25074.531999999974,
      "d": 1268.6519166666658,
      "v": 109
    },
    {
      "midi": 68,
      "hit": false,
      "t": 25522.291499999974,
      "d": 354.4762708333328,
      "v": 89
    },
    {
      "midi": 73,
      "hit": false,
      "t": 25970.050999999974,
      "d": 680.9675729166665,
      "v": 116
    },
    {
      "midi": 76,
      "hit": false,
      "t": 25970.050999999974,
      "d": 699.6242187499993,
      "v": 117
    },
    {
      "midi": 68,
      "hit": false,
      "t": 25970.050999999974,
      "d": 1222.010302083334,
      "v": 105
    },
    {
      "midi": 49,
      "hit": false,
      "t": 26417.810499999974,
      "d": 447.7595000000001,
      "v": 116
    },
    {
      "midi": 71,
      "hit": false,
      "t": 26865.569999999974,
      "d": 839.5490624999984,
      "v": 115
    },
    {
      "midi": 76,
      "hit": false,
      "t": 26865.569999999974,
      "d": 848.8773854166648,
      "v": 113
    },
    {
      "midi": 47,
      "hit": false,
      "t": 26865.569999999974,
      "d": 1287.3085624999949,
      "v": 109
    },
    {
      "midi": 68,
      "hit": false,
      "t": 27313.329499999974,
      "d": 382.4612395833319,
      "v": 86
    },
    {
      "midi": 68,
      "hit": false,
      "t": 27761.08899999997,
      "d": 736.9375104166647,
      "v": 114
    },
    {
      "midi": 71,
      "hit": false,
      "t": 27761.08899999997,
      "d": 736.9375104166647,
      "v": 122
    },
    {
      "midi": 76,
      "hit": false,
      "t": 27761.08899999997,
      "d": 792.9074479166629,
      "v": 117
    },
    {
      "midi": 47,
      "hit": false,
      "t": 28208.848499999967,
      "d": 457.0878229166665,
      "v": 110
    },
    {
      "midi": 70,
      "hit": false,
      "t": 28656.607999999967,
      "d": 736.9375104166647,
      "v": 118
    },
    {
      "midi": 73,
      "hit": false,
      "t": 28656.607999999967,
      "d": 736.9375104166647,
      "v": 110
    },
    {
      "midi": 66,
      "hit": false,
      "t": 28656.607999999967,
      "d": 755.5941562499975,
      "v": 121
    },
    {
      "midi": 46,
      "hit": false,
      "t": 28656.607999999967,
      "d": 1277.9802395833285,
      "v": 109
    },
    {
      "midi": 66,
      "hit": false,
      "t": 29552.126999999964,
      "d": 643.6542812500011,
      "v": 105
    },
    {
      "midi": 70,
      "hit": false,
      "t": 29552.126999999964,
      "d": 643.6542812500011,
      "v": 116
    },
    {
      "midi": 73,
      "hit": false,
      "t": 29552.126999999964,
      "d": 652.9826041666674,
      "v": 114
    },
    {
      "midi": 46,
      "hit": false,
      "t": 29999.886499999964,
      "d": 475.7444687499992,
      "v": 97
    },
    {
      "midi": 78,
      "hit": false,
      "t": 30447.645999999964,
      "d": 811.5640937499993,
      "v": 116
    },
    {
      "midi": 85,
      "hit": false,
      "t": 30447.645999999964,
      "d": 839.5490624999984,
      "v": 127
    },
    {
      "midi": 42,
      "hit": false,
      "t": 30447.645999999964,
      "d": 1249.9952708333294,
      "v": 108
    },
    {
      "midi": 78,
      "hit": false,
      "t": 31343.16499999996,
      "d": 671.6392500000002,
      "v": 127
    },
    {
      "midi": 42,
      "hit": false,
      "t": 31790.92449999996,
      "d": 410.44620833333465,
      "v": 108
    },
    {
      "midi": 66,
      "hit": false,
      "t": 32238.68399999996,
      "d": 438.43117708333375,
      "v": 121
    },
    {
      "midi": 71,
      "hit": false,
      "t": 32238.68399999996,
      "d": 447.7595000000001,
      "v": 123
    },
    {
      "midi": 40,
      "hit": false,
      "t": 32238.68399999996,
      "d": 1249.995270833333,
      "v": 111
    },
    {
      "midi": 64,
      "hit": false,
      "t": 32686.44349999996,
      "d": 475.7444687499992,
      "v": 91
    },
    {
      "midi": 66,
      "hit": false,
      "t": 33134.20299999996,
      "d": 466.41614583333285,
      "v": 114
    },
    {
      "midi": 71,
      "hit": false,
      "t": 33134.20299999996,
      "d": 494.4011145833356,
      "v": 113
    },
    {
      "midi": 40,
      "hit": false,
      "t": 33581.96249999996,
      "d": 298.50633333333826,
      "v": 100
    },
    {
      "midi": 64,
      "hit": false,
      "t": 33581.96249999996,
      "d": 522.3860833333383,
      "v": 99
    },
    {
      "midi": 68,
      "hit": false,
      "t": 34029.721999999965,
      "d": 475.74446875000285,
      "v": 123
    },
    {
      "midi": 71,
      "hit": false,
      "t": 34029.721999999965,
      "d": 503.7294375000056,
      "v": 125
    },
    {
      "midi": 40,
      "hit": false,
      "t": 34029.721999999965,
      "d": 1249.9952708333367,
      "v": 116
    },
    {
      "midi": 64,
      "hit": false,
      "t": 34477.481499999965,
      "d": 541.042729166671,
      "v": 108
    },
    {
      "midi": 66,
      "hit": false,
      "t": 34925.24099999997,
      "d": 475.7444687499956,
      "v": 121
    },
    {
      "midi": 71,
      "hit": false,
      "t": 34925.24099999997,
      "d": 680.9675729166629,
      "v": 120
    },
    {
      "midi": 64,
      "hit": false,
      "t": 35373.000499999966,
      "d": 335.8196250000037,
      "v": 109
    },
    {
      "midi": 40,
      "hit": false,
      "t": 35373.000499999966,
      "d": 485.0727916666656,
      "v": 109
    },
    {
      "midi": 61,
      "hit": false,
      "t": 35820.759999999966,
      "d": 345.14794791666645,
      "v": 121
    },
    {
      "midi": 69,
      "hit": false,
      "t": 35820.759999999966,
      "d": 690.2958958333329,
      "v": 127
    },
    {
      "midi": 47,
      "hit": false,
      "t": 35820.759999999966,
      "d": 1259.3235937499994,
      "v": 116
    },
    {
      "midi": 61,
      "hit": false,
      "t": 36268.519499999966,
      "d": 429.1028541666674,
      "v": 97
    },
    {
      "midi": 63,
      "hit": false,
      "t": 36716.278999999966,
      "d": 774.2508020833338,
      "v": 123
    },
    {
      "midi": 69,
      "hit": false,
      "t": 36716.278999999966,
      "d": 783.5791250000038,
      "v": 123
    },
    {
      "midi": 47,
      "hit": false,
      "t": 37164.038499999966,
      "d": 279.84968749999825,
      "v": 105
    },
    {
      "midi": 61,
      "hit": false,
      "t": 37611.797999999966,
      "d": 345.14794791666645,
      "v": 114
    },
    {
      "midi": 69,
      "hit": false,
      "t": 37611.797999999966,
      "d": 718.2808645833356,
      "v": 115
    },
    {
      "midi": 47,
      "hit": false,
      "t": 37611.797999999966,
      "d": 1287.3085625000022,
      "v": 119
    },
    {
      "midi": 61,
      "hit": false,
      "t": 38059.557499999966,
      "d": 457.0878229166701,
      "v": 97
    },
    {
      "midi": 63,
      "hit": false,
      "t": 38507.316999999966,
      "d": 746.2658333333311,
      "v": 126
    },
    {
      "midi": 69,
      "hit": false,
      "t": 38507.316999999966,
      "d": 746.2658333333311,
      "v": 122
    },
    {
      "midi": 47,
      "hit": false,
      "t": 38955.07649999997,
      "d": 382.4612395833319,
      "v": 117
    },
    {
      "midi": 66,
      "hit": false,
      "t": 39402.83599999997,
      "d": 438.4311770833301,
      "v": 121
    },
    {
      "midi": 71,
      "hit": false,
      "t": 39402.83599999997,
      "d": 447.7595000000001,
      "v": 123
    },
    {
      "midi": 40,
      "hit": false,
      "t": 39402.83599999997,
      "d": 3358.196250000008,
      "v": 111
    },
    {
      "midi": 64,
      "hit": false,
      "t": 39850.59549999997,
      "d": 475.74446875000285,
      "v": 91
    },
    {
      "midi": 66,
      "hit": false,
      "t": 40298.35499999997,
      "d": 466.41614583333285,
      "v": 114
    },
    {
      "midi": 71,
      "hit": false,
      "t": 40298.35499999997,
      "d": 494.4011145833356,
      "v": 113
    },
    {
      "midi": 64,
      "hit": false,
      "t": 40746.11449999997,
      "d": 522.386083333331,
      "v": 99
    },
    {
      "midi": 68,
      "hit": false,
      "t": 41193.87399999997,
      "d": 475.74446875000285,
      "v": 123
    },
    {
      "midi": 71,
      "hit": false,
      "t": 41193.87399999997,
      "d": 503.7294375000056,
      "v": 125
    },
    {
      "midi": 64,
      "hit": false,
      "t": 41641.63349999997,
      "d": 541.042729166671,
      "v": 108
    },
    {
      "midi": 66,
      "hit": false,
      "t": 42089.392999999975,
      "d": 475.74446875000285,
      "v": 121
    },
    {
      "midi": 71,
      "hit": false,
      "t": 42089.392999999975,
      "d": 680.9675729166702,
      "v": 120
    },
    {
      "midi": 64,
      "hit": false,
      "t": 42537.152499999975,
      "d": 335.8196250000037,
      "v": 109
    },
    {
      "midi": 71,
      "hit": false,
      "t": 42984.911999999975,
      "d": 708.9525416666656,
      "v": 116
    },
    {
      "midi": 70,
      "hit": false,
      "t": 42984.911999999975,
      "d": 727.6091874999984,
      "v": 101
    },
    {
      "midi": 75,
      "hit": false,
      "t": 42984.911999999975,
      "d": 727.6091874999984,
      "v": 103
    },
    {
      "midi": 56,
      "hit": false,
      "t": 42984.911999999975,
      "d": 1026.1155208333366,
      "v": 96
    },
    {
      "midi": 70,
      "hit": false,
      "t": 43880.430999999975,
      "d": 736.9375104166684,
      "v": 108
    },
    {
      "midi": 75,
      "hit": false,
      "t": 43880.430999999975,
      "d": 830.220739583332,
      "v": 105
    },
    {
      "midi": 71,
      "hit": false,
      "t": 43880.430999999975,
      "d": 848.8773854166648,
      "v": 120
    },
    {
      "midi": 56,
      "hit": false,
      "t": 44328.190499999975,
      "d": 1595.1432187500104,
      "v": 106
    },
    {
      "midi": 68,
      "hit": false,
      "t": 44775.949999999975,
      "d": 391.7895625000019,
      "v": 100
    },
    {
      "midi": 75,
      "hit": false,
      "t": 44775.949999999975,
      "d": 820.8924166666693,
      "v": 101
    },
    {
      "midi": 71,
      "hit": false,
      "t": 44775.949999999975,
      "d": 848.877385416672,
      "v": 116
    },
    {
      "midi": 68,
      "hit": false,
      "t": 45223.709499999975,
      "d": 345.14794791666645,
      "v": 67
    },
    {
      "midi": 68,
      "hit": false,
      "t": 45671.46899999998,
      "d": 485.0727916666656,
      "v": 110
    },
    {
      "midi": 71,
      "hit": false,
      "t": 45671.46899999998,
      "d": 690.2958958333329,
      "v": 122
    },
    {
      "midi": 75,
      "hit": false,
      "t": 45671.46899999998,
      "d": 690.2958958333329,
      "v": 110
    },
    {
      "midi": 56,
      "hit": false,
      "t": 46119.22849999998,
      "d": 419.7745312499974,
      "v": 112
    },
    {
      "midi": 68,
      "hit": false,
      "t": 46343.10824999998,
      "d": 158.58148958333186,
      "v": 88
    },
    {
      "midi": 73,
      "hit": false,
      "t": 46566.98799999998,
      "d": 736.9375104166684,
      "v": 114
    },
    {
      "midi": 68,
      "hit": false,
      "t": 46566.98799999998,
      "d": 746.2658333333384,
      "v": 91
    },
    {
      "midi": 69,
      "hit": false,
      "t": 46566.98799999998,
      "d": 764.9224791666711,
      "v": 110
    },
    {
      "midi": 54,
      "hit": false,
      "t": 46566.98799999998,
      "d": 1194.0253333333385,
      "v": 99
    },
    {
      "midi": 68,
      "hit": false,
      "t": 47462.50699999999,
      "d": 820.8924166666693,
      "v": 106
    },
    {
      "midi": 73,
      "hit": false,
      "t": 47462.50699999999,
      "d": 830.2207395833393,
      "v": 121
    },
    {
      "midi": 69,
      "hit": false,
      "t": 47462.50699999999,
      "d": 867.534031250012,
      "v": 127
    },
    {
      "midi": 54,
      "hit": false,
      "t": 47910.26649999999,
      "d": 391.7895625000092,
      "v": 114
    },
    {
      "midi": 66,
      "hit": false,
      "t": 48358.026000000005,
      "d": 373.1329166666692,
      "v": 105
    },
    {
      "midi": 69,
      "hit": false,
      "t": 48358.026000000005,
      "d": 755.5941562500011,
      "v": 115
    },
    {
      "midi": 73,
      "hit": false,
      "t": 48358.026000000005,
      "d": 755.5941562500011,
      "v": 116
    },
    {
      "midi": 54,
      "hit": false,
      "t": 48358.026000000005,
      "d": 1194.0253333333312,
      "v": 110
    },
    {
      "midi": 66,
      "hit": false,
      "t": 48805.785500000005,
      "d": 326.4913020833337,
      "v": 67
    },
    {
      "midi": 69,
      "hit": false,
      "t": 49253.545000000006,
      "d": 736.9375104166684,
      "v": 122
    },
    {
      "midi": 66,
      "hit": false,
      "t": 49253.545000000006,
      "d": 755.5941562500011,
      "v": 110
    },
    {
      "midi": 73,
      "hit": false,
      "t": 49253.545000000006,
      "d": 802.2357708333366,
      "v": 126
    },
    {
      "midi": 54,
      "hit": false,
      "t": 49701.304500000006,
      "d": 382.4612395833392,
      "v": 116
    },
    {
      "midi": 56,
      "hit": false,
      "t": 50149.06400000001,
      "d": 1725.7397395833323,
      "v": 116
    },
    {
      "midi": 63,
      "hit": false,
      "t": 50596.82350000001,
      "d": 690.2958958333329,
      "v": 92
    },
    {
      "midi": 66,
      "hit": false,
      "t": 51044.58300000001,
      "d": 783.5791249999966,
      "v": 121
    },
    {
      "midi": 68,
      "hit": false,
      "t": 51044.58300000001,
      "d": 802.2357708333293,
      "v": 118
    },
    {
      "midi": 63,
      "hit": false,
      "t": 51492.34250000001,
      "d": 774.2508020833338,
      "v": 96
    },
    {
      "midi": 72,
      "hit": false,
      "t": 51940.10200000001,
      "d": 811.5640937499993,
      "v": 120
    },
    {
      "midi": 66,
      "hit": false,
      "t": 51940.10200000001,
      "d": 858.2057083333348,
      "v": 106
    },
    {
      "midi": 56,
      "hit": false,
      "t": 51940.10200000001,
      "d": 1240.6669479166667,
      "v": 95
    },
    {
      "midi": 63,
      "hit": false,
      "t": 52387.86150000001,
      "d": 401.11788541666465,
      "v": 94
    },
    {
      "midi": 63,
      "hit": false,
      "t": 52835.621000000014,
      "d": 718.2808645833356,
      "v": 106
    },
    {
      "midi": 66,
      "hit": false,
      "t": 52835.621000000014,
      "d": 727.6091875000056,
      "v": 114
    },
    {
      "midi": 70,
      "hit": false,
      "t": 52835.621000000014,
      "d": 755.5941562500084,
      "v": 114
    },
    {
      "midi": 56,
      "hit": false,
      "t": 53283.380500000014,
      "d": 485.07279166667286,
      "v": 105
    },
    {
      "midi": 68,
      "hit": false,
      "t": 53731.14000000002,
      "d": 354.4762708333292,
      "v": 110
    },
    {
      "midi": 73,
      "hit": false,
      "t": 53731.14000000002,
      "d": 774.2508020833266,
      "v": 112
    },
    {
      "midi": 76,
      "hit": false,
      "t": 53731.14000000002,
      "d": 774.2508020833266,
      "v": 117
    },
    {
      "midi": 49,
      "hit": false,
      "t": 53731.14000000002,
      "d": 1184.6970104166612,
      "v": 96
    },
    {
      "midi": 68,
      "hit": false,
      "t": 54178.899500000014,
      "d": 354.47627083333646,
      "v": 89
    },
    {
      "midi": 73,
      "hit": false,
      "t": 54626.659000000014,
      "d": 680.9675729166702,
      "v": 116
    },
    {
      "midi": 76,
      "hit": false,
      "t": 54626.659000000014,
      "d": 699.6242187500029,
      "v": 117
    },
    {
      "midi": 68,
      "hit": false,
      "t": 54626.659000000014,
      "d": 1222.010302083334,
      "v": 105
    },
    {
      "midi": 49,
      "hit": false,
      "t": 55074.418500000014,
      "d": 447.7595000000001,
      "v": 116
    },
    {
      "midi": 71,
      "hit": false,
      "t": 55522.178000000014,
      "d": 839.549062500002,
      "v": 115
    },
    {
      "midi": 76,
      "hit": false,
      "t": 55522.178000000014,
      "d": 848.877385416672,
      "v": 113
    },
    {
      "midi": 47,
      "hit": false,
      "t": 55522.178000000014,
      "d": 1194.0253333333385,
      "v": 109
    },
    {
      "midi": 68,
      "hit": false,
      "t": 55969.937500000015,
      "d": 382.4612395833319,
      "v": 86
    },
    {
      "midi": 68,
      "hit": false,
      "t": 56417.69700000002,
      "d": 736.9375104166684,
      "v": 114
    },
    {
      "midi": 71,
      "hit": false,
      "t": 56417.69700000002,
      "d": 736.9375104166684,
      "v": 122
    },
    {
      "midi": 76,
      "hit": false,
      "t": 56417.69700000002,
      "d": 792.9074479166666,
      "v": 117
    },
    {
      "midi": 47,
      "hit": false,
      "t": 56865.45650000002,
      "d": 457.0878229166701,
      "v": 110
    },
    {
      "midi": 70,
      "hit": false,
      "t": 57313.21600000002,
      "d": 736.9375104166684,
      "v": 118
    },
    {
      "midi": 73,
      "hit": false,
      "t": 57313.21600000002,
      "d": 736.9375104166684,
      "v": 110
    },
    {
      "midi": 66,
      "hit": false,
      "t": 57313.21600000002,
      "d": 755.5941562500011,
      "v": 121
    },
    {
      "midi": 46,
      "hit": false,
      "t": 57313.21600000002,
      "d": 1175.3686874999985,
      "v": 89
    },
    {
      "midi": 66,
      "hit": false,
      "t": 58208.73500000002,
      "d": 643.6542812499974,
      "v": 105
    },
    {
      "midi": 70,
      "hit": false,
      "t": 58208.73500000002,
      "d": 643.6542812499974,
      "v": 116
    },
    {
      "midi": 73,
      "hit": false,
      "t": 58208.73500000002,
      "d": 652.9826041666674,
      "v": 114
    },
    {
      "midi": 46,
      "hit": false,
      "t": 58656.49450000002,
      "d": 475.74446875000285,
      "v": 97
    },
    {
      "midi": 78,
      "hit": false,
      "t": 59104.25400000002,
      "d": 811.5640937499993,
      "v": 116
    },
    {
      "midi": 85,
      "hit": false,
      "t": 59104.25400000002,
      "d": 839.549062500002,
      "v": 127
    },
    {
      "midi": 42,
      "hit": false,
      "t": 59104.25400000002,
      "d": 1175.3686874999985,
      "v": 99
    },
    {
      "midi": 78,
      "hit": false,
      "t": 59999.77300000002,
      "d": 671.6392500000002,
      "v": 127
    },
    {
      "midi": 42,
      "hit": false,
      "t": 60447.53250000002,
      "d": 410.44620833333465,
      "v": 108
    },
    {
      "midi": 66,
      "hit": false,
      "t": 60895.29200000002,
      "d": 438.4311770833301,
      "v": 121
    },
    {
      "midi": 71,
      "hit": false,
      "t": 60895.29200000002,
      "d": 447.7595000000001,
      "v": 123
    },
    {
      "midi": 40,
      "hit": false,
      "t": 60895.29200000002,
      "d": 1007.4588750000039,
      "v": 111
    },
    {
      "midi": 64,
      "hit": false,
      "t": 61343.05150000002,
      "d": 475.74446875000285,
      "v": 91
    },
    {
      "midi": 66,
      "hit": false,
      "t": 61790.81100000002,
      "d": 466.41614583333285,
      "v": 114
    },
    {
      "midi": 71,
      "hit": false,
      "t": 61790.81100000002,
      "d": 494.4011145833356,
      "v": 113
    },
    {
      "midi": 40,
      "hit": false,
      "t": 62238.57050000002,
      "d": 298.50633333333826,
      "v": 100
    },
    {
      "midi": 64,
      "hit": false,
      "t": 62238.57050000002,
      "d": 522.3860833333383,
      "v": 99
    },
    {
      "midi": 68,
      "hit": false,
      "t": 62686.33000000003,
      "d": 475.74446875000285,
      "v": 123
    },
    {
      "midi": 71,
      "hit": false,
      "t": 62686.33000000003,
      "d": 503.7294375000056,
      "v": 125
    },
    {
      "midi": 40,
      "hit": false,
      "t": 62686.33000000003,
      "d": 1175.3686875000058,
      "v": 116
    },
    {
      "midi": 64,
      "hit": false,
      "t": 63134.08950000003,
      "d": 541.042729166671,
      "v": 108
    },
    {
      "midi": 66,
      "hit": false,
      "t": 63581.84900000004,
      "d": 475.74446875000285,
      "v": 121
    },
    {
      "midi": 71,
      "hit": false,
      "t": 63581.84900000004,
      "d": 680.9675729166702,
      "v": 120
    },
    {
      "midi": 64,
      "hit": false,
      "t": 64029.60850000004,
      "d": 335.8196250000037,
      "v": 109
    },
    {
      "midi": 40,
      "hit": false,
      "t": 64029.60850000004,
      "d": 485.0727916666656,
      "v": 109
    },
    {
      "midi": 61,
      "hit": false,
      "t": 64477.36800000004,
      "d": 345.14794791666645,
      "v": 121
    },
    {
      "midi": 69,
      "hit": false,
      "t": 64477.36800000004,
      "d": 690.2958958333329,
      "v": 127
    },
    {
      "midi": 47,
      "hit": false,
      "t": 64477.36800000004,
      "d": 1128.7270729166703,
      "v": 106
    },
    {
      "midi": 61,
      "hit": false,
      "t": 64925.12750000004,
      "d": 429.1028541666674,
      "v": 97
    },
    {
      "midi": 63,
      "hit": false,
      "t": 65372.88700000004,
      "d": 774.2508020833411,
      "v": 123
    },
    {
      "midi": 69,
      "hit": false,
      "t": 65372.88700000004,
      "d": 783.5791250000111,
      "v": 123
    },
    {
      "midi": 47,
      "hit": false,
      "t": 65820.64650000005,
      "d": 279.84968749999825,
      "v": 105
    },
    {
      "midi": 61,
      "hit": false,
      "t": 66268.40600000005,
      "d": 345.14794791667373,
      "v": 114
    },
    {
      "midi": 69,
      "hit": false,
      "t": 66268.40600000005,
      "d": 718.2808645833284,
      "v": 115
    },
    {
      "midi": 47,
      "hit": false,
      "t": 66268.40600000005,
      "d": 1119.3987500000076,
      "v": 119
    },
    {
      "midi": 61,
      "hit": false,
      "t": 66716.16550000005,
      "d": 457.0878229166701,
      "v": 97
    },
    {
      "midi": 63,
      "hit": false,
      "t": 67163.92500000005,
      "d": 746.2658333333384,
      "v": 126
    },
    {
      "midi": 69,
      "hit": false,
      "t": 67163.92500000005,
      "d": 746.2658333333384,
      "v": 122
    },
    {
      "midi": 47,
      "hit": false,
      "t": 67611.68450000005,
      "d": 382.4612395833392,
      "v": 117
    },
    {
      "midi": 66,
      "hit": false,
      "t": 68059.44400000005,
      "d": 774.2508020833338,
      "v": 121
    },
    {
      "midi": 68,
      "hit": false,
      "t": 68059.44400000005,
      "d": 774.2508020833338,
      "v": 112
    },
    {
      "midi": 71,
      "hit": false,
      "t": 68059.44400000005,
      "d": 783.5791250000038,
      "v": 122
    },
    {
      "midi": 52,
      "hit": false,
      "t": 68059.44400000005,
      "d": 1194.0253333333385,
      "v": 116
    },
    {
      "midi": 71,
      "hit": false,
      "t": 68954.96300000005,
      "d": 783.5791250000038,
      "v": 127
    },
    {
      "midi": 68,
      "hit": false,
      "t": 68954.96300000005,
      "d": 811.5640937499993,
      "v": 123
    },
    {
      "midi": 66,
      "hit": false,
      "t": 68954.96300000005,
      "d": 839.5490624999948,
      "v": 126
    },
    {
      "midi": 52,
      "hit": false,
      "t": 69402.72250000005,
      "d": 401.11788541666465,
      "v": 103
    },
    {
      "midi": 68,
      "hit": false,
      "t": 69850.48200000005,
      "d": 783.5791250000038,
      "v": 108
    },
    {
      "midi": 71,
      "hit": false,
      "t": 69850.48200000005,
      "d": 792.9074479166738,
      "v": 119
    },
    {
      "midi": 64,
      "hit": false,
      "t": 69850.48200000005,
      "d": 820.8924166666693,
      "v": 108
    },
    {
      "midi": 52,
      "hit": false,
      "t": 69850.48200000005,
      "d": 1119.398749999993,
      "v": 116
    },
    {
      "midi": 68,
      "hit": false,
      "t": 70746.00100000005,
      "d": 615.6693124999874,
      "v": 121
    },
    {
      "midi": 71,
      "hit": false,
      "t": 70746.00100000005,
      "d": 680.9675729166484,
      "v": 125
    },
    {
      "midi": 64,
      "hit": false,
      "t": 70746.00100000005,
      "d": 727.6091874999838,
      "v": 122
    },
    {
      "midi": 52,
      "hit": false,
      "t": 71193.76050000003,
      "d": 447.7595000000001,
      "v": 108
    },
    {
      "midi": 63,
      "hit": false,
      "t": 71641.52000000003,
      "d": 708.9525416666729,
      "v": 112
    },
    {
      "midi": 64,
      "hit": false,
      "t": 71641.52000000003,
      "d": 718.2808645833429,
      "v": 123
    },
    {
      "midi": 68,
      "hit": false,
      "t": 71641.52000000003,
      "d": 736.9375104166829,
      "v": 126
    },
    {
      "midi": 49,
      "hit": false,
      "t": 71641.52000000003,
      "d": 1072.7571354166867,
      "v": 114
    },
    {
      "midi": 63,
      "hit": false,
      "t": 72537.03900000005,
      "d": 736.9375104166684,
      "v": 114
    },
    {
      "midi": 68,
      "hit": false,
      "t": 72537.03900000005,
      "d": 774.2508020833338,
      "v": 126
    },
    {
      "midi": 64,
      "hit": false,
      "t": 72537.03900000005,
      "d": 811.5640937499993,
      "v": 127
    },
    {
      "midi": 49,
      "hit": false,
      "t": 72984.79850000005,
      "d": 391.78956249999464,
      "v": 110
    },
    {
      "midi": 68,
      "hit": false,
      "t": 73432.55800000005,
      "d": 746.2658333333384,
      "v": 118
    },
    {
      "midi": 61,
      "hit": false,
      "t": 73432.55800000005,
      "d": 764.9224791666784,
      "v": 112
    },
    {
      "midi": 64,
      "hit": false,
      "t": 73432.55800000005,
      "d": 764.9224791666784,
      "v": 122
    },
    {
      "midi": 49,
      "hit": false,
      "t": 73432.55800000005,
      "d": 998.1305520833412,
      "v": 121
    },
    {
      "midi": 61,
      "hit": false,
      "t": 74328.07700000006,
      "d": 559.6993749999965,
      "v": 118
    },
    {
      "midi": 64,
      "hit": false,
      "t": 74328.07700000006,
      "d": 559.6993749999965,
      "v": 120
    },
    {
      "midi": 68,
      "hit": false,
      "t": 74328.07700000006,
      "d": 708.9525416666584,
      "v": 114
    },
    {
      "midi": 49,
      "hit": false,
      "t": 74775.83650000006,
      "d": 503.72943749999104,
      "v": 110
    },
    {
      "midi": 61,
      "hit": false,
      "t": 75223.59600000005,
      "d": 764.9224791666784,
      "v": 118
    },
    {
      "midi": 57,
      "hit": false,
      "t": 75223.59600000005,
      "d": 783.5791250000184,
      "v": 123
    },
    {
      "midi": 68,
      "hit": false,
      "t": 75223.59600000005,
      "d": 792.9074479166884,
      "v": 114
    },
    {
      "midi": 54,
      "hit": false,
      "t": 75223.59600000005,
      "d": 1222.0103020833485,
      "v": 106
    },
    {
      "midi": 61,
      "hit": false,
      "t": 76119.11500000006,
      "d": 811.5640937499993,
      "v": 121
    },
    {
      "midi": 68,
      "hit": false,
      "t": 76119.11500000006,
      "d": 811.5640937499993,
      "v": 121
    },
    {
      "midi": 57,
      "hit": false,
      "t": 76119.11500000006,
      "d": 830.2207395833393,
      "v": 117
    },
    {
      "midi": 54,
      "hit": false,
      "t": 76566.87450000006,
      "d": 363.8045937499992,
      "v": 110
    },
    {
      "midi": 66,
      "hit": false,
      "t": 77014.63400000006,
      "d": 755.5941562499938,
      "v": 121
    },
    {
      "midi": 61,
      "hit": false,
      "t": 77014.63400000006,
      "d": 764.9224791666638,
      "v": 121
    },
    {
      "midi": 57,
      "hit": false,
      "t": 77014.63400000006,
      "d": 783.5791250000038,
      "v": 110
    },
    {
      "midi": 54,
      "hit": false,
      "t": 77014.63400000006,
      "d": 1072.757135416672,
      "v": 118
    },
    {
      "midi": 57,
      "hit": false,
      "t": 77910.15300000006,
      "d": 578.3560208333365,
      "v": 119
    },
    {
      "midi": 66,
      "hit": false,
      "t": 77910.15300000006,
      "d": 624.997635416672,
      "v": 123
    },
    {
      "midi": 61,
      "hit": false,
      "t": 77910.15300000006,
      "d": 662.3109270833374,
      "v": 127
    },
    {
      "midi": 54,
      "hit": false,
      "t": 78357.91250000006,
      "d": 429.10285416667466,
      "v": 126
    },
    {
      "midi": 69,
      "hit": false,
      "t": 78805.67200000008,
      "d": 774.2508020833338,
      "v": 116
    },
    {
      "midi": 47,
      "hit": false,
      "t": 78805.67200000008,
      "d": 1091.4137812499976,
      "v": 116
    },
    {
      "midi": 61,
      "hit": false,
      "t": 78805.67200000008,
      "d": 1567.1582499999931,
      "v": 112
    },
    {
      "midi": 69,
      "hit": false,
      "t": 79701.19100000008,
      "d": 718.2808645833284,
      "v": 125
    },
    {
      "midi": 63,
      "hit": false,
      "t": 79701.19100000008,
      "d": 792.9074479166593,
      "v": 123
    },
    {
      "midi": 47,
      "hit": false,
      "t": 80148.95050000008,
      "d": 363.8045937499992,
      "v": 125
    },
    {
      "midi": 69,
      "hit": false,
      "t": 80596.71000000008,
      "d": 736.9375104166684,
      "v": 117
    },
    {
      "midi": 47,
      "hit": false,
      "t": 80596.71000000008,
      "d": 998.1305520833266,
      "v": 123
    },
    {
      "midi": 61,
      "hit": false,
      "t": 80596.71000000008,
      "d": 1585.8148958333331,
      "v": 127
    },
    {
      "midi": 69,
      "hit": false,
      "t": 81492.22900000008,
      "d": 643.6542812499974,
      "v": 127
    },
    {
      "midi": 63,
      "hit": false,
      "t": 81492.22900000008,
      "d": 662.3109270833374,
      "v": 121
    },
    {
      "midi": 47,
      "hit": false,
      "t": 81939.98850000008,
      "d": 522.386083333331,
      "v": 127
    },
    {
      "midi": 68,
      "hit": false,
      "t": 82387.74800000008,
      "d": 736.9375104166684,
      "v": 123
    },
    {
      "midi": 66,
      "hit": false,
      "t": 82387.74800000008,
      "d": 774.2508020833338,
      "v": 127
    },
    {
      "midi": 71,
      "hit": false,
      "t": 82387.74800000008,
      "d": 774.2508020833338,
      "v": 127
    },
    {
      "midi": 52,
      "hit": false,
      "t": 82387.74800000008,
      "d": 1072.757135416672,
      "v": 113
    },
    {
      "midi": 71,
      "hit": false,
      "t": 83283.26700000008,
      "d": 820.8924166666693,
      "v": 127
    },
    {
      "midi": 68,
      "hit": false,
      "t": 83283.26700000008,
      "d": 830.2207395833393,
      "v": 123
    },
    {
      "midi": 66,
      "hit": false,
      "t": 83283.26700000008,
      "d": 867.5340312500048,
      "v": 127
    },
    {
      "midi": 52,
      "hit": false,
      "t": 83731.02650000008,
      "d": 382.4612395833392,
      "v": 117
    },
    {
      "midi": 68,
      "hit": false,
      "t": 84178.78600000008,
      "d": 802.2357708333293,
      "v": 103
    },
    {
      "midi": 71,
      "hit": false,
      "t": 84178.78600000008,
      "d": 802.2357708333293,
      "v": 117
    },
    {
      "midi": 64,
      "hit": false,
      "t": 84178.78600000008,
      "d": 820.8924166666693,
      "v": 103
    },
    {
      "midi": 52,
      "hit": false,
      "t": 84178.78600000008,
      "d": 1110.0704270833376,
      "v": 123
    },
    {
      "midi": 68,
      "hit": false,
      "t": 85074.30500000008,
      "d": 559.6993749999965,
      "v": 121
    },
    {
      "midi": 71,
      "hit": false,
      "t": 85074.30500000008,
      "d": 578.3560208333365,
      "v": 120
    },
    {
      "midi": 64,
      "hit": false,
      "t": 85074.30500000008,
      "d": 718.2808645833429,
      "v": 120
    },
    {
      "midi": 52,
      "hit": false,
      "t": 85522.06450000008,
      "d": 419.77453125000466,
      "v": 117
    },
    {
      "midi": 63,
      "hit": false,
      "t": 85969.82400000008,
      "d": 755.5941562499938,
      "v": 118
    },
    {
      "midi": 64,
      "hit": false,
      "t": 85969.82400000008,
      "d": 755.5941562499938,
      "v": 127
    },
    {
      "midi": 68,
      "hit": false,
      "t": 85969.82400000008,
      "d": 755.5941562499938,
      "v": 127
    },
    {
      "midi": 49,
      "hit": false,
      "t": 85969.82400000008,
      "d": 1128.727072916663,
      "v": 105
    },
    {
      "midi": 63,
      "hit": false,
      "t": 86865.34300000008,
      "d": 811.5640937499993,
      "v": 118
    },
    {
      "midi": 68,
      "hit": false,
      "t": 86865.34300000008,
      "d": 839.5490624999948,
      "v": 127
    },
    {
      "midi": 64,
      "hit": false,
      "t": 86865.34300000008,
      "d": 867.5340312499902,
      "v": 127
    },
    {
      "midi": 49,
      "hit": false,
      "t": 87313.10250000008,
      "d": 391.78956249999464,
      "v": 118
    },
    {
      "midi": 61,
      "hit": false,
      "t": 87760.86200000007,
      "d": 764.9224791666638,
      "v": 118
    },
    {
      "midi": 68,
      "hit": false,
      "t": 87760.86200000007,
      "d": 764.9224791666638,
      "v": 118
    },
    {
      "midi": 64,
      "hit": false,
      "t": 87760.86200000007,
      "d": 783.5791250000038,
      "v": 112
    },
    {
      "midi": 49,
      "hit": false,
      "t": 87760.86200000007,
      "d": 1110.0704270833376,
      "v": 123
    },
    {
      "midi": 64,
      "hit": false,
      "t": 88656.38100000007,
      "d": 746.2658333333384,
      "v": 122
    },
    {
      "midi": 68,
      "hit": false,
      "t": 88656.38100000007,
      "d": 774.2508020833338,
      "v": 127
    },
    {
      "midi": 61,
      "hit": false,
      "t": 88656.38100000007,
      "d": 802.2357708333293,
      "v": 118
    },
    {
      "midi": 49,
      "hit": false,
      "t": 89104.14050000007,
      "d": 457.0878229166701,
      "v": 108
    },
    {
      "midi": 61,
      "hit": false,
      "t": 89551.90000000007,
      "d": 736.9375104166684,
      "v": 123
    },
    {
      "midi": 57,
      "hit": false,
      "t": 89551.90000000007,
      "d": 755.5941562500084,
      "v": 127
    },
    {
      "midi": 68,
      "hit": false,
      "t": 89551.90000000007,
      "d": 764.9224791666784,
      "v": 119
    },
    {
      "midi": 42,
      "hit": false,
      "t": 89551.90000000007,
      "d": 1156.7120416666876,
      "v": 101
    },
    {
      "midi": 61,
      "hit": false,
      "t": 90447.41900000008,
      "d": 792.9074479166738,
      "v": 123
    },
    {
      "midi": 68,
      "hit": false,
      "t": 90447.41900000008,
      "d": 792.9074479166738,
      "v": 118
    },
    {
      "midi": 57,
      "hit": false,
      "t": 90447.41900000008,
      "d": 811.5640937500139,
      "v": 127
    },
    {
      "midi": 42,
      "hit": false,
      "t": 90895.17850000008,
      "d": 354.47627083334373,
      "v": 108
    },
    {
      "midi": 66,
      "hit": false,
      "t": 91342.9380000001,
      "d": 746.2658333333384,
      "v": 121
    },
    {
      "midi": 61,
      "hit": false,
      "t": 91342.9380000001,
      "d": 755.5941562500084,
      "v": 121
    },
    {
      "midi": 57,
      "hit": false,
      "t": 91342.9380000001,
      "d": 774.2508020833484,
      "v": 109
    },
    {
      "midi": 42,
      "hit": false,
      "t": 91342.9380000001,
      "d": 1035.4438437500212,
      "v": 116
    },
    {
      "midi": 57,
      "hit": false,
      "t": 92238.45700000011,
      "d": 587.6843437500065,
      "v": 116
    },
    {
      "midi": 66,
      "hit": false,
      "t": 92238.45700000011,
      "d": 624.997635416672,
      "v": 121
    },
    {
      "midi": 61,
      "hit": false,
      "t": 92238.45700000011,
      "d": 652.9826041666674,
      "v": 126
    },
    {
      "midi": 42,
      "hit": false,
      "t": 92686.21650000011,
      "d": 457.0878229166701,
      "v": 112
    },
    {
      "midi": 69,
      "hit": false,
      "t": 93133.97600000011,
      "d": 727.6091874999984,
      "v": 117
    },
    {
      "midi": 47,
      "hit": false,
      "t": 93133.97600000011,
      "d": 1026.1155208333366,
      "v": 115
    },
    {
      "midi": 61,
      "hit": false,
      "t": 93133.97600000011,
      "d": 4925.354500000016,
      "v": 121
    },
    {
      "midi": 63,
      "hit": false,
      "t": 94029.49500000011,
      "d": 792.9074479166738,
      "v": 126
    },
    {
      "midi": 69,
      "hit": false,
      "t": 94029.49500000011,
      "d": 792.9074479166738,
      "v": 127
    },
    {
      "midi": 47,
      "hit": false,
      "t": 94477.25450000011,
      "d": 354.47627083334373,
      "v": 122
    },
    {
      "midi": 63,
      "hit": false,
      "t": 94925.01400000013,
      "d": 3274.241343750007,
      "v": 112
    },
    {
      "midi": 69,
      "hit": false,
      "t": 94925.01400000013,
      "d": 3292.897989583347,
      "v": 111
    },
    {
      "midi": 47,
      "hit": false,
      "t": 94925.01400000013,
      "d": 3348.8679270833527,
      "v": 120
    },
    {
      "midi": 71,
      "hit": false,
      "t": 98507.09000000014,
      "d": 708.9525416666729,
      "v": 108
    },
    {
      "midi": 78,
      "hit": false,
      "t": 98507.09000000014,
      "d": 718.2808645833429,
      "v": 105
    },
    {
      "midi": 64,
      "hit": false,
      "t": 98507.09000000014,
      "d": 1138.0553958333476,
      "v": 103
    },
    {
      "midi": 78,
      "hit": false,
      "t": 99402.60900000016,
      "d": 876.8623541666602,
      "v": 116
    },
    {
      "midi": 71,
      "hit": false,
      "t": 99402.60900000016,
      "d": 923.5039687499957,
      "v": 119
    },
    {
      "midi": 64,
      "hit": false,
      "t": 99850.36850000016,
      "d": 1669.769802083334,
      "v": 99
    },
    {
      "midi": 68,
      "hit": false,
      "t": 100298.12800000016,
      "d": 820.8924166666693,
      "v": 110
    },
    {
      "midi": 76,
      "hit": false,
      "t": 100298.12800000016,
      "d": 820.8924166666693,
      "v": 105
    },
    {
      "midi": 76,
      "hit": false,
      "t": 101193.64700000016,
      "d": 746.2658333333384,
      "v": 110
    },
    {
      "midi": 68,
      "hit": false,
      "t": 101193.64700000016,
      "d": 867.5340312500048,
      "v": 103
    },
    {
      "midi": 64,
      "hit": false,
      "t": 101641.40650000016,
      "d": 447.7595000000001,
      "v": 97
    },
    {
      "midi": 71,
      "hit": false,
      "t": 102089.16600000016,
      "d": 708.9525416666729,
      "v": 116
    },
    {
      "midi": 70,
      "hit": false,
      "t": 102089.16600000016,
      "d": 727.6091875000129,
      "v": 101
    },
    {
      "midi": 75,
      "hit": false,
      "t": 102089.16600000016,
      "d": 727.6091875000129,
      "v": 103
    },
    {
      "midi": 56,
      "hit": false,
      "t": 102089.16600000016,
      "d": 1026.1155208333512,
      "v": 96
    },
    {
      "midi": 70,
      "hit": false,
      "t": 102984.68500000017,
      "d": 736.9375104166684,
      "v": 108
    },
    {
      "midi": 75,
      "hit": false,
      "t": 102984.68500000017,
      "d": 830.2207395833393,
      "v": 105
    },
    {
      "midi": 71,
      "hit": false,
      "t": 102984.68500000017,
      "d": 848.8773854166793,
      "v": 120
    },
    {
      "midi": 56,
      "hit": false,
      "t": 103432.44450000017,
      "d": 1595.1432187500177,
      "v": 106
    },
    {
      "midi": 68,
      "hit": false,
      "t": 103880.20400000019,
      "d": 391.78956249999464,
      "v": 100
    },
    {
      "midi": 75,
      "hit": false,
      "t": 103880.20400000019,
      "d": 820.8924166666693,
      "v": 101
    },
    {
      "midi": 71,
      "hit": false,
      "t": 103880.20400000019,
      "d": 848.8773854166648,
      "v": 116
    },
    {
      "midi": 68,
      "hit": false,
      "t": 104327.96350000019,
      "d": 345.14794791667373,
      "v": 67
    },
    {
      "midi": 68,
      "hit": false,
      "t": 104775.72300000019,
      "d": 485.0727916666656,
      "v": 110
    },
    {
      "midi": 71,
      "hit": false,
      "t": 104775.72300000019,
      "d": 690.2958958333329,
      "v": 122
    },
    {
      "midi": 75,
      "hit": false,
      "t": 104775.72300000019,
      "d": 690.2958958333329,
      "v": 110
    },
    {
      "midi": 56,
      "hit": false,
      "t": 105223.48250000019,
      "d": 419.77453125000466,
      "v": 112
    },
    {
      "midi": 68,
      "hit": false,
      "t": 105447.36225000018,
      "d": 158.5814895833464,
      "v": 88
    },
    {
      "midi": 73,
      "hit": false,
      "t": 105671.24200000019,
      "d": 736.9375104166684,
      "v": 114
    },
    {
      "midi": 68,
      "hit": false,
      "t": 105671.24200000019,
      "d": 746.2658333333384,
      "v": 91
    },
    {
      "midi": 69,
      "hit": false,
      "t": 105671.24200000019,
      "d": 764.9224791666784,
      "v": 110
    },
    {
      "midi": 54,
      "hit": false,
      "t": 105671.24200000019,
      "d": 1194.025333333353,
      "v": 99
    },
    {
      "midi": 68,
      "hit": false,
      "t": 106566.7610000002,
      "d": 820.8924166666693,
      "v": 106
    },
    {
      "midi": 73,
      "hit": false,
      "t": 106566.7610000002,
      "d": 830.2207395833393,
      "v": 121
    },
    {
      "midi": 69,
      "hit": false,
      "t": 106566.7610000002,
      "d": 867.5340312500048,
      "v": 127
    },
    {
      "midi": 54,
      "hit": false,
      "t": 107014.5205000002,
      "d": 391.7895625000092,
      "v": 114
    },
    {
      "midi": 66,
      "hit": false,
      "t": 107462.2800000002,
      "d": 373.1329166666692,
      "v": 105
    },
    {
      "midi": 69,
      "hit": false,
      "t": 107462.2800000002,
      "d": 755.5941562499938,
      "v": 115
    },
    {
      "midi": 73,
      "hit": false,
      "t": 107462.2800000002,
      "d": 755.5941562499938,
      "v": 116
    },
    {
      "midi": 54,
      "hit": false,
      "t": 107462.2800000002,
      "d": 1194.0253333333385,
      "v": 110
    },
    {
      "midi": 66,
      "hit": false,
      "t": 107910.0395000002,
      "d": 326.4913020833337,
      "v": 67
    },
    {
      "midi": 69,
      "hit": false,
      "t": 108357.7990000002,
      "d": 736.9375104166684,
      "v": 122
    },
    {
      "midi": 66,
      "hit": false,
      "t": 108357.7990000002,
      "d": 755.5941562500084,
      "v": 110
    },
    {
      "midi": 73,
      "hit": false,
      "t": 108357.7990000002,
      "d": 802.2357708333438,
      "v": 126
    },
    {
      "midi": 54,
      "hit": false,
      "t": 108805.5585000002,
      "d": 382.4612395833392,
      "v": 116
    },
    {
      "midi": 56,
      "hit": false,
      "t": 109253.3180000002,
      "d": 1725.7397395833395,
      "v": 116
    },
    {
      "midi": 63,
      "hit": false,
      "t": 109701.0775000002,
      "d": 690.2958958333329,
      "v": 92
    },
    {
      "midi": 66,
      "hit": false,
      "t": 110148.8370000002,
      "d": 783.5791250000038,
      "v": 121
    },
    {
      "midi": 68,
      "hit": false,
      "t": 110148.8370000002,
      "d": 802.2357708333438,
      "v": 118
    },
    {
      "midi": 63,
      "hit": false,
      "t": 110596.5965000002,
      "d": 774.2508020833338,
      "v": 96
    },
    {
      "midi": 72,
      "hit": false,
      "t": 111044.3560000002,
      "d": 811.5640937499993,
      "v": 120
    },
    {
      "midi": 66,
      "hit": false,
      "t": 111044.3560000002,
      "d": 858.2057083333348,
      "v": 106
    },
    {
      "midi": 56,
      "hit": false,
      "t": 111044.3560000002,
      "d": 1240.666947916674,
      "v": 95
    },
    {
      "midi": 63,
      "hit": false,
      "t": 111492.1155000002,
      "d": 401.11788541666465,
      "v": 94
    },
    {
      "midi": 63,
      "hit": false,
      "t": 111939.8750000002,
      "d": 718.2808645833284,
      "v": 106
    },
    {
      "midi": 66,
      "hit": false,
      "t": 111939.8750000002,
      "d": 727.6091874999984,
      "v": 114
    },
    {
      "midi": 70,
      "hit": false,
      "t": 111939.8750000002,
      "d": 755.5941562499938,
      "v": 114
    },
    {
      "midi": 56,
      "hit": false,
      "t": 112387.6345000002,
      "d": 485.0727916666656,
      "v": 105
    },
    {
      "midi": 68,
      "hit": false,
      "t": 112835.3940000002,
      "d": 354.4762708333292,
      "v": 110
    },
    {
      "midi": 73,
      "hit": false,
      "t": 112835.3940000002,
      "d": 774.2508020833338,
      "v": 112
    },
    {
      "midi": 76,
      "hit": false,
      "t": 112835.3940000002,
      "d": 774.2508020833338,
      "v": 117
    },
    {
      "midi": 49,
      "hit": false,
      "t": 112835.3940000002,
      "d": 1184.6970104166685,
      "v": 96
    },
    {
      "midi": 68,
      "hit": false,
      "t": 113283.1535000002,
      "d": 354.4762708333292,
      "v": 89
    },
    {
      "midi": 73,
      "hit": false,
      "t": 113730.9130000002,
      "d": 680.9675729166629,
      "v": 116
    },
    {
      "midi": 76,
      "hit": false,
      "t": 113730.9130000002,
      "d": 699.6242187500029,
      "v": 117
    },
    {
      "midi": 68,
      "hit": false,
      "t": 113730.9130000002,
      "d": 1222.010302083334,
      "v": 105
    },
    {
      "midi": 49,
      "hit": false,
      "t": 114178.6725000002,
      "d": 447.7595000000001,
      "v": 116
    },
    {
      "midi": 71,
      "hit": false,
      "t": 114626.4320000002,
      "d": 839.5490625000093,
      "v": 115
    },
    {
      "midi": 76,
      "hit": false,
      "t": 114626.4320000002,
      "d": 848.8773854166793,
      "v": 113
    },
    {
      "midi": 47,
      "hit": false,
      "t": 114626.4320000002,
      "d": 1194.025333333353,
      "v": 109
    },
    {
      "midi": 68,
      "hit": false,
      "t": 115074.1915000002,
      "d": 382.4612395833392,
      "v": 86
    },
    {
      "midi": 68,
      "hit": false,
      "t": 115521.95100000022,
      "d": 736.9375104166684,
      "v": 114
    },
    {
      "midi": 71,
      "hit": false,
      "t": 115521.95100000022,
      "d": 736.9375104166684,
      "v": 122
    },
    {
      "midi": 76,
      "hit": false,
      "t": 115521.95100000022,
      "d": 792.9074479166738,
      "v": 117
    },
    {
      "midi": 47,
      "hit": false,
      "t": 115969.71050000022,
      "d": 457.0878229166701,
      "v": 110
    },
    {
      "midi": 70,
      "hit": false,
      "t": 116417.47000000022,
      "d": 736.9375104166684,
      "v": 118
    },
    {
      "midi": 73,
      "hit": false,
      "t": 116417.47000000022,
      "d": 736.9375104166684,
      "v": 110
    },
    {
      "midi": 66,
      "hit": false,
      "t": 116417.47000000022,
      "d": 755.5941562500084,
      "v": 121
    },
    {
      "midi": 46,
      "hit": false,
      "t": 116417.47000000022,
      "d": 1175.368687500013,
      "v": 89
    },
    {
      "midi": 66,
      "hit": false,
      "t": 117312.98900000023,
      "d": 643.6542812499974,
      "v": 105
    },
    {
      "midi": 70,
      "hit": false,
      "t": 117312.98900000023,
      "d": 643.6542812499974,
      "v": 116
    },
    {
      "midi": 73,
      "hit": false,
      "t": 117312.98900000023,
      "d": 652.9826041666674,
      "v": 114
    },
    {
      "midi": 46,
      "hit": false,
      "t": 117760.74850000023,
      "d": 475.7444687499956,
      "v": 97
    },
    {
      "midi": 78,
      "hit": false,
      "t": 118208.50800000023,
      "d": 811.5640937499993,
      "v": 116
    },
    {
      "midi": 85,
      "hit": false,
      "t": 118208.50800000023,
      "d": 839.5490624999948,
      "v": 127
    },
    {
      "midi": 42,
      "hit": false,
      "t": 118208.50800000023,
      "d": 1175.3686874999985,
      "v": 99
    },
    {
      "midi": 78,
      "hit": false,
      "t": 119104.02700000023,
      "d": 671.6392499999929,
      "v": 127
    },
    {
      "midi": 42,
      "hit": false,
      "t": 119551.78650000023,
      "d": 410.4462083333201,
      "v": 108
    },
    {
      "midi": 66,
      "hit": false,
      "t": 119999.54600000022,
      "d": 438.4311770833301,
      "v": 121
    },
    {
      "midi": 71,
      "hit": false,
      "t": 119999.54600000022,
      "d": 447.7595000000001,
      "v": 123
    },
    {
      "midi": 40,
      "hit": false,
      "t": 119999.54600000022,
      "d": 1007.4588749999966,
      "v": 111
    },
    {
      "midi": 64,
      "hit": false,
      "t": 120447.30550000022,
      "d": 475.7444687499956,
      "v": 91
    },
    {
      "midi": 66,
      "hit": false,
      "t": 120895.06500000022,
      "d": 466.4161458333401,
      "v": 114
    },
    {
      "midi": 71,
      "hit": false,
      "t": 120895.06500000022,
      "d": 494.4011145833356,
      "v": 113
    },
    {
      "midi": 40,
      "hit": false,
      "t": 121342.82450000022,
      "d": 298.50633333333826,
      "v": 100
    },
    {
      "midi": 64,
      "hit": false,
      "t": 121342.82450000022,
      "d": 522.386083333331,
      "v": 99
    },
    {
      "midi": 68,
      "hit": false,
      "t": 121790.58400000022,
      "d": 475.7444687499956,
      "v": 123
    },
    {
      "midi": 71,
      "hit": false,
      "t": 121790.58400000022,
      "d": 503.72943749999104,
      "v": 125
    },
    {
      "midi": 40,
      "hit": false,
      "t": 121790.58400000022,
      "d": 1175.368687499984,
      "v": 116
    },
    {
      "midi": 64,
      "hit": false,
      "t": 122238.34350000022,
      "d": 541.0427291666565,
      "v": 108
    },
    {
      "midi": 66,
      "hit": false,
      "t": 122686.1030000002,
      "d": 475.7444687499956,
      "v": 121
    },
    {
      "midi": 71,
      "hit": false,
      "t": 122686.1030000002,
      "d": 680.9675729166629,
      "v": 120
    },
    {
      "midi": 64,
      "hit": false,
      "t": 123133.8625000002,
      "d": 335.8196249999892,
      "v": 109
    },
    {
      "midi": 40,
      "hit": false,
      "t": 123133.8625000002,
      "d": 485.072791666651,
      "v": 109
    },
    {
      "midi": 61,
      "hit": false,
      "t": 123581.62200000019,
      "d": 345.1479479166592,
      "v": 121
    },
    {
      "midi": 69,
      "hit": false,
      "t": 123581.62200000019,
      "d": 690.2958958333184,
      "v": 127
    },
    {
      "midi": 47,
      "hit": false,
      "t": 123581.62200000019,
      "d": 1128.7270729166485,
      "v": 106
    },
    {
      "midi": 61,
      "hit": false,
      "t": 124029.38150000018,
      "d": 429.1028541666601,
      "v": 97
    },
    {
      "midi": 63,
      "hit": false,
      "t": 124477.14100000018,
      "d": 774.2508020833338,
      "v": 123
    },
    {
      "midi": 69,
      "hit": false,
      "t": 124477.14100000018,
      "d": 783.5791250000038,
      "v": 123
    },
    {
      "midi": 47,
      "hit": false,
      "t": 124924.90050000018,
      "d": 279.84968749999825,
      "v": 105
    },
    {
      "midi": 61,
      "hit": false,
      "t": 125372.66000000018,
      "d": 345.14794791667373,
      "v": 114
    },
    {
      "midi": 69,
      "hit": false,
      "t": 125372.66000000018,
      "d": 718.2808645833284,
      "v": 115
    },
    {
      "midi": 47,
      "hit": false,
      "t": 125372.66000000018,
      "d": 1119.3987500000076,
      "v": 119
    },
    {
      "midi": 61,
      "hit": false,
      "t": 125820.41950000018,
      "d": 457.0878229166701,
      "v": 97
    },
    {
      "midi": 63,
      "hit": false,
      "t": 126268.17900000018,
      "d": 746.2658333333384,
      "v": 126
    },
    {
      "midi": 69,
      "hit": false,
      "t": 126268.17900000018,
      "d": 746.2658333333384,
      "v": 122
    },
    {
      "midi": 47,
      "hit": false,
      "t": 126715.93850000018,
      "d": 382.4612395833392,
      "v": 117
    },
    {
      "midi": 66,
      "hit": false,
      "t": 127163.69800000018,
      "d": 774.2508020833338,
      "v": 121
    },
    {
      "midi": 68,
      "hit": false,
      "t": 127163.69800000018,
      "d": 774.2508020833338,
      "v": 112
    },
    {
      "midi": 71,
      "hit": false,
      "t": 127163.69800000018,
      "d": 783.5791250000038,
      "v": 122
    },
    {
      "midi": 52,
      "hit": false,
      "t": 127163.69800000018,
      "d": 1194.0253333333385,
      "v": 116
    },
    {
      "midi": 71,
      "hit": false,
      "t": 128059.21700000018,
      "d": 783.5791250000038,
      "v": 127
    },
    {
      "midi": 68,
      "hit": false,
      "t": 128059.21700000018,
      "d": 811.5640937499993,
      "v": 123
    },
    {
      "midi": 66,
      "hit": false,
      "t": 128059.21700000018,
      "d": 839.5490624999948,
      "v": 126
    },
    {
      "midi": 52,
      "hit": false,
      "t": 128506.97650000018,
      "d": 401.11788541666465,
      "v": 103
    },
    {
      "midi": 68,
      "hit": false,
      "t": 128954.73600000018,
      "d": 783.5791250000038,
      "v": 108
    },
    {
      "midi": 71,
      "hit": false,
      "t": 128954.73600000018,
      "d": 792.9074479166738,
      "v": 119
    },
    {
      "midi": 64,
      "hit": false,
      "t": 128954.73600000018,
      "d": 820.8924166666693,
      "v": 108
    },
    {
      "midi": 52,
      "hit": false,
      "t": 128954.73600000018,
      "d": 1119.398749999993,
      "v": 116
    },
    {
      "midi": 68,
      "hit": false,
      "t": 129850.25500000018,
      "d": 615.6693124999874,
      "v": 121
    },
    {
      "midi": 71,
      "hit": false,
      "t": 129850.25500000018,
      "d": 680.9675729166484,
      "v": 125
    },
    {
      "midi": 64,
      "hit": false,
      "t": 129850.25500000018,
      "d": 727.6091874999838,
      "v": 122
    },
    {
      "midi": 52,
      "hit": false,
      "t": 130298.01450000016,
      "d": 447.7595000000001,
      "v": 108
    },
    {
      "midi": 63,
      "hit": false,
      "t": 130745.77400000016,
      "d": 708.9525416666729,
      "v": 112
    },
    {
      "midi": 64,
      "hit": false,
      "t": 130745.77400000016,
      "d": 718.2808645833429,
      "v": 123
    },
    {
      "midi": 68,
      "hit": false,
      "t": 130745.77400000016,
      "d": 736.9375104166829,
      "v": 126
    },
    {
      "midi": 49,
      "hit": false,
      "t": 130745.77400000016,
      "d": 1072.7571354166867,
      "v": 114
    },
    {
      "midi": 63,
      "hit": false,
      "t": 131641.29300000018,
      "d": 736.9375104166684,
      "v": 114
    },
    {
      "midi": 68,
      "hit": false,
      "t": 131641.29300000018,
      "d": 774.2508020833484,
      "v": 126
    },
    {
      "midi": 64,
      "hit": false,
      "t": 131641.29300000018,
      "d": 811.5640937500284,
      "v": 127
    },
    {
      "midi": 49,
      "hit": false,
      "t": 132089.0525000002,
      "d": 391.78956250002375,
      "v": 110
    },
    {
      "midi": 68,
      "hit": false,
      "t": 132536.8120000002,
      "d": 746.2658333333384,
      "v": 118
    },
    {
      "midi": 61,
      "hit": false,
      "t": 132536.8120000002,
      "d": 764.9224791666784,
      "v": 112
    },
    {
      "midi": 64,
      "hit": false,
      "t": 132536.8120000002,
      "d": 764.9224791666784,
      "v": 122
    },
    {
      "midi": 49,
      "hit": false,
      "t": 132536.8120000002,
      "d": 998.1305520833412,
      "v": 121
    },
    {
      "midi": 61,
      "hit": false,
      "t": 133432.3310000002,
      "d": 559.6993750000256,
      "v": 118
    },
    {
      "midi": 64,
      "hit": false,
      "t": 133432.3310000002,
      "d": 559.6993750000256,
      "v": 120
    },
    {
      "midi": 68,
      "hit": false,
      "t": 133432.3310000002,
      "d": 708.9525416666875,
      "v": 114
    },
    {
      "midi": 49,
      "hit": false,
      "t": 133880.09050000022,
      "d": 503.7294375000056,
      "v": 110
    },
    {
      "midi": 61,
      "hit": false,
      "t": 134327.85000000024,
      "d": 764.9224791666493,
      "v": 118
    },
    {
      "midi": 57,
      "hit": false,
      "t": 134327.85000000024,
      "d": 783.5791249999893,
      "v": 123
    },
    {
      "midi": 68,
      "hit": false,
      "t": 134327.85000000024,
      "d": 792.9074479166593,
      "v": 114
    },
    {
      "midi": 54,
      "hit": false,
      "t": 134327.85000000024,
      "d": 1222.010302083334,
      "v": 106
    },
    {
      "midi": 61,
      "hit": false,
      "t": 135223.36900000024,
      "d": 811.5640937500284,
      "v": 121
    },
    {
      "midi": 68,
      "hit": false,
      "t": 135223.36900000024,
      "d": 811.5640937500284,
      "v": 121
    },
    {
      "midi": 57,
      "hit": false,
      "t": 135223.36900000024,
      "d": 830.2207395833684,
      "v": 117
    },
    {
      "midi": 54,
      "hit": false,
      "t": 135671.12850000025,
      "d": 363.80459375001374,
      "v": 110
    },
    {
      "midi": 66,
      "hit": false,
      "t": 136118.88800000027,
      "d": 755.5941562500084,
      "v": 121
    },
    {
      "midi": 61,
      "hit": false,
      "t": 136118.88800000027,
      "d": 764.9224791666784,
      "v": 121
    },
    {
      "midi": 57,
      "hit": false,
      "t": 136118.88800000027,
      "d": 783.5791250000184,
      "v": 110
    },
    {
      "midi": 54,
      "hit": false,
      "t": 136118.88800000027,
      "d": 1072.7571354167012,
      "v": 118
    },
    {
      "midi": 57,
      "hit": false,
      "t": 137014.4070000003,
      "d": 578.3560208333365,
      "v": 119
    },
    {
      "midi": 66,
      "hit": false,
      "t": 137014.4070000003,
      "d": 624.9976354166574,
      "v": 123
    },
    {
      "midi": 61,
      "hit": false,
      "t": 137014.4070000003,
      "d": 662.3109270833374,
      "v": 127
    },
    {
      "midi": 54,
      "hit": false,
      "t": 137462.1665000003,
      "d": 429.10285416664556,
      "v": 126
    },
    {
      "midi": 69,
      "hit": false,
      "t": 137909.9260000003,
      "d": 774.2508020833193,
      "v": 116
    },
    {
      "midi": 47,
      "hit": false,
      "t": 137909.9260000003,
      "d": 1091.413781250012,
      "v": 116
    },
    {
      "midi": 61,
      "hit": false,
      "t": 137909.9260000003,
      "d": 1567.1582500000077,
      "v": 112
    },
    {
      "midi": 69,
      "hit": false,
      "t": 138805.4450000003,
      "d": 718.2808645833284,
      "v": 125
    },
    {
      "midi": 63,
      "hit": false,
      "t": 138805.4450000003,
      "d": 792.9074479166593,
      "v": 123
    },
    {
      "midi": 47,
      "hit": false,
      "t": 139253.2045000003,
      "d": 363.80459374998463,
      "v": 125
    },
    {
      "midi": 69,
      "hit": false,
      "t": 139700.9640000003,
      "d": 736.9375104166684,
      "v": 117
    },
    {
      "midi": 47,
      "hit": false,
      "t": 139700.9640000003,
      "d": 998.1305520833412,
      "v": 123
    },
    {
      "midi": 61,
      "hit": false,
      "t": 139700.9640000003,
      "d": 1585.8148958333768,
      "v": 127
    },
    {
      "midi": 69,
      "hit": false,
      "t": 140596.4830000003,
      "d": 643.6542812500265,
      "v": 127
    },
    {
      "midi": 63,
      "hit": false,
      "t": 140596.4830000003,
      "d": 662.3109270833666,
      "v": 121
    },
    {
      "midi": 47,
      "hit": false,
      "t": 141044.2425000003,
      "d": 522.3860833333456,
      "v": 127
    },
    {
      "midi": 68,
      "hit": false,
      "t": 141492.00200000033,
      "d": 736.9375104166684,
      "v": 123
    },
    {
      "midi": 66,
      "hit": false,
      "t": 141492.00200000033,
      "d": 774.2508020833484,
      "v": 127
    },
    {
      "midi": 71,
      "hit": false,
      "t": 141492.00200000033,
      "d": 774.2508020833484,
      "v": 127
    },
    {
      "midi": 52,
      "hit": false,
      "t": 141492.00200000033,
      "d": 1072.7571354167012,
      "v": 113
    },
    {
      "midi": 71,
      "hit": false,
      "t": 142387.52100000036,
      "d": 820.8924166666693,
      "v": 127
    },
    {
      "midi": 68,
      "hit": false,
      "t": 142387.52100000036,
      "d": 830.2207395833393,
      "v": 123
    },
    {
      "midi": 66,
      "hit": false,
      "t": 142387.52100000036,
      "d": 867.5340312500193,
      "v": 127
    },
    {
      "midi": 52,
      "hit": false,
      "t": 142835.28050000037,
      "d": 382.46123958332464,
      "v": 117
    },
    {
      "midi": 68,
      "hit": false,
      "t": 143283.0400000004,
      "d": 802.2357708333293,
      "v": 103
    },
    {
      "midi": 71,
      "hit": false,
      "t": 143283.0400000004,
      "d": 802.2357708333293,
      "v": 117
    },
    {
      "midi": 64,
      "hit": false,
      "t": 143283.0400000004,
      "d": 820.8924166666693,
      "v": 103
    },
    {
      "midi": 52,
      "hit": false,
      "t": 143283.0400000004,
      "d": 1110.070427083323,
      "v": 123
    },
    {
      "midi": 68,
      "hit": false,
      "t": 144178.5590000004,
      "d": 559.6993749999965,
      "v": 121
    },
    {
      "midi": 71,
      "hit": false,
      "t": 144178.5590000004,
      "d": 578.3560208333365,
      "v": 120
    },
    {
      "midi": 64,
      "hit": false,
      "t": 144178.5590000004,
      "d": 718.2808645833284,
      "v": 120
    },
    {
      "midi": 52,
      "hit": false,
      "t": 144626.31850000037,
      "d": 419.77453125000466,
      "v": 117
    },
    {
      "midi": 63,
      "hit": false,
      "t": 145074.0780000004,
      "d": 755.5941562500084,
      "v": 118
    },
    {
      "midi": 64,
      "hit": false,
      "t": 145074.0780000004,
      "d": 755.5941562500084,
      "v": 127
    },
    {
      "midi": 68,
      "hit": false,
      "t": 145074.0780000004,
      "d": 755.5941562500084,
      "v": 127
    },
    {
      "midi": 49,
      "hit": false,
      "t": 145074.0780000004,
      "d": 1128.727072916663,
      "v": 105
    },
    {
      "midi": 63,
      "hit": false,
      "t": 145969.5970000004,
      "d": 811.5640937499993,
      "v": 118
    },
    {
      "midi": 68,
      "hit": false,
      "t": 145969.5970000004,
      "d": 839.5490625000093,
      "v": 127
    },
    {
      "midi": 64,
      "hit": false,
      "t": 145969.5970000004,
      "d": 867.5340312500193,
      "v": 127
    },
    {
      "midi": 49,
      "hit": false,
      "t": 146417.35650000037,
      "d": 391.78956250002375,
      "v": 118
    },
    {
      "midi": 61,
      "hit": false,
      "t": 146865.11600000042,
      "d": 764.9224791666784,
      "v": 118
    },
    {
      "midi": 68,
      "hit": false,
      "t": 146865.11600000042,
      "d": 764.9224791666784,
      "v": 118
    },
    {
      "midi": 64,
      "hit": false,
      "t": 146865.11600000042,
      "d": 783.5791250000184,
      "v": 112
    },
    {
      "midi": 49,
      "hit": false,
      "t": 146865.11600000042,
      "d": 1110.0704270833521,
      "v": 123
    },
    {
      "midi": 64,
      "hit": false,
      "t": 147760.63500000045,
      "d": 746.2658333333093,
      "v": 122
    },
    {
      "midi": 68,
      "hit": false,
      "t": 147760.63500000045,
      "d": 774.2508020833193,
      "v": 127
    },
    {
      "midi": 61,
      "hit": false,
      "t": 147760.63500000045,
      "d": 802.2357708333293,
      "v": 118
    },
    {
      "midi": 49,
      "hit": false,
      "t": 148208.39450000043,
      "d": 457.0878229166847,
      "v": 108
    },
    {
      "midi": 61,
      "hit": false,
      "t": 148656.15400000045,
      "d": 736.9375104166684,
      "v": 123
    },
    {
      "midi": 57,
      "hit": false,
      "t": 148656.15400000045,
      "d": 755.5941562500084,
      "v": 127
    },
    {
      "midi": 68,
      "hit": false,
      "t": 148656.15400000045,
      "d": 764.9224791666784,
      "v": 119
    },
    {
      "midi": 42,
      "hit": false,
      "t": 148656.15400000045,
      "d": 1156.712041666673,
      "v": 101
    },
    {
      "midi": 61,
      "hit": false,
      "t": 149551.67300000045,
      "d": 792.9074479166884,
      "v": 123
    },
    {
      "midi": 68,
      "hit": false,
      "t": 149551.67300000045,
      "d": 792.9074479166884,
      "v": 118
    },
    {
      "midi": 57,
      "hit": false,
      "t": 149551.67300000045,
      "d": 811.5640937500284,
      "v": 127
    },
    {
      "midi": 42,
      "hit": false,
      "t": 149999.43250000046,
      "d": 354.47627083334373,
      "v": 108
    },
    {
      "midi": 66,
      "hit": false,
      "t": 150447.19200000048,
      "d": 746.2658333333384,
      "v": 121
    },
    {
      "midi": 61,
      "hit": false,
      "t": 150447.19200000048,
      "d": 755.5941562500084,
      "v": 121
    },
    {
      "midi": 57,
      "hit": false,
      "t": 150447.19200000048,
      "d": 774.2508020833484,
      "v": 109
    },
    {
      "midi": 42,
      "hit": false,
      "t": 150447.19200000048,
      "d": 1035.4438437500212,
      "v": 116
    },
    {
      "midi": 57,
      "hit": false,
      "t": 151342.7110000005,
      "d": 587.6843437499774,
      "v": 116
    },
    {
      "midi": 66,
      "hit": false,
      "t": 151342.7110000005,
      "d": 624.9976354166574,
      "v": 121
    },
    {
      "midi": 61,
      "hit": false,
      "t": 151342.7110000005,
      "d": 652.9826041666674,
      "v": 126
    },
    {
      "midi": 42,
      "hit": false,
      "t": 151790.4705000005,
      "d": 457.0878229166847,
      "v": 112
    },
    {
      "midi": 69,
      "hit": false,
      "t": 152238.2300000005,
      "d": 485.0727916666947,
      "v": 127
    },
    {
      "midi": 61,
      "hit": false,
      "t": 152238.2300000005,
      "d": 671.6392500000366,
      "v": 123
    },
    {
      "midi": 47,
      "hit": false,
      "t": 152238.2300000005,
      "d": 1184.6970104167121,
      "v": 116
    },
    {
      "midi": 59,
      "hit": false,
      "t": 152685.98950000052,
      "d": 550.3710520833556,
      "v": 116
    },
    {
      "midi": 69,
      "hit": false,
      "t": 153133.74900000053,
      "d": 652.9826041666674,
      "v": 127
    },
    {
      "midi": 63,
      "hit": false,
      "t": 153133.74900000053,
      "d": 671.6392500000075,
      "v": 123
    },
    {
      "midi": 47,
      "hit": false,
      "t": 153581.50850000055,
      "d": 335.8196250000037,
      "v": 107
    },
    {
      "midi": 59,
      "hit": false,
      "t": 153581.50850000055,
      "d": 494.4011145833356,
      "v": 117
    },
    {
      "midi": 61,
      "hit": false,
      "t": 154029.26800000056,
      "d": 671.6392499999783,
      "v": 123
    },
    {
      "midi": 69,
      "hit": false,
      "t": 154029.26800000056,
      "d": 671.6392499999783,
      "v": 127
    },
    {
      "midi": 47,
      "hit": false,
      "t": 154029.26800000056,
      "d": 1725.7397395833395,
      "v": 119
    },
    {
      "midi": 59,
      "hit": false,
      "t": 154477.02750000055,
      "d": 569.0276979166665,
      "v": 108
    },
    {
      "midi": 63,
      "hit": false,
      "t": 154924.78700000054,
      "d": 802.2357708333584,
      "v": 124
    },
    {
      "midi": 69,
      "hit": false,
      "t": 154924.78700000054,
      "d": 820.8924166666984,
      "v": 127
    },
    {
      "midi": 59,
      "hit": false,
      "t": 155372.54650000055,
      "d": 410.44620833336376,
      "v": 111
    },
    {
      "midi": 66,
      "hit": false,
      "t": 155820.3060000006,
      "d": 774.2508020833193,
      "v": 121
    },
    {
      "midi": 68,
      "hit": false,
      "t": 155820.3060000006,
      "d": 774.2508020833193,
      "v": 112
    },
    {
      "midi": 71,
      "hit": false,
      "t": 155820.3060000006,
      "d": 783.5791249999893,
      "v": 122
    },
    {
      "midi": 52,
      "hit": false,
      "t": 155820.3060000006,
      "d": 1194.025333333324,
      "v": 116
    },
    {
      "midi": 71,
      "hit": false,
      "t": 156715.8250000006,
      "d": 783.5791249999893,
      "v": 127
    },
    {
      "midi": 68,
      "hit": false,
      "t": 156715.8250000006,
      "d": 811.5640937499993,
      "v": 123
    },
    {
      "midi": 66,
      "hit": false,
      "t": 156715.8250000006,
      "d": 839.5490625000093,
      "v": 126
    },
    {
      "midi": 52,
      "hit": false,
      "t": 157163.58450000058,
      "d": 401.11788541669375,
      "v": 103
    },
    {
      "midi": 68,
      "hit": false,
      "t": 157611.3440000006,
      "d": 783.5791249999893,
      "v": 108
    },
    {
      "midi": 71,
      "hit": false,
      "t": 157611.3440000006,
      "d": 792.9074479166593,
      "v": 119
    },
    {
      "midi": 64,
      "hit": false,
      "t": 157611.3440000006,
      "d": 820.8924166666693,
      "v": 108
    },
    {
      "midi": 52,
      "hit": false,
      "t": 157611.3440000006,
      "d": 1119.398749999993,
      "v": 116
    },
    {
      "midi": 68,
      "hit": false,
      "t": 158506.8630000006,
      "d": 615.6693124999874,
      "v": 121
    },
    {
      "midi": 71,
      "hit": false,
      "t": 158506.8630000006,
      "d": 680.9675729166484,
      "v": 125
    },
    {
      "midi": 64,
      "hit": false,
      "t": 158506.8630000006,
      "d": 727.6091874999693,
      "v": 122
    },
    {
      "midi": 52,
      "hit": false,
      "t": 158954.62250000058,
      "d": 447.75949999998556,
      "v": 108
    },
    {
      "midi": 63,
      "hit": false,
      "t": 159402.38200000057,
      "d": 708.9525416666584,
      "v": 112
    },
    {
      "midi": 64,
      "hit": false,
      "t": 159402.38200000057,
      "d": 718.2808645833284,
      "v": 123
    },
    {
      "midi": 68,
      "hit": false,
      "t": 159402.38200000057,
      "d": 736.9375104166684,
      "v": 126
    },
    {
      "midi": 49,
      "hit": false,
      "t": 159402.38200000057,
      "d": 1072.757135416672,
      "v": 114
    },
    {
      "midi": 63,
      "hit": false,
      "t": 160297.90100000057,
      "d": 736.9375104166684,
      "v": 114
    },
    {
      "midi": 68,
      "hit": false,
      "t": 160297.90100000057,
      "d": 774.2508020833484,
      "v": 126
    },
    {
      "midi": 64,
      "hit": false,
      "t": 160297.90100000057,
      "d": 811.5640937500284,
      "v": 127
    },
    {
      "midi": 49,
      "hit": false,
      "t": 160745.66050000058,
      "d": 391.78956250002375,
      "v": 110
    },
    {
      "midi": 68,
      "hit": false,
      "t": 161193.4200000006,
      "d": 746.2658333333384,
      "v": 118
    },
    {
      "midi": 61,
      "hit": false,
      "t": 161193.4200000006,
      "d": 764.9224791666784,
      "v": 112
    },
    {
      "midi": 64,
      "hit": false,
      "t": 161193.4200000006,
      "d": 764.9224791666784,
      "v": 122
    },
    {
      "midi": 49,
      "hit": false,
      "t": 161193.4200000006,
      "d": 998.1305520833412,
      "v": 121
    },
    {
      "midi": 61,
      "hit": false,
      "t": 162088.9390000006,
      "d": 559.6993750000256,
      "v": 118
    },
    {
      "midi": 64,
      "hit": false,
      "t": 162088.9390000006,
      "d": 559.6993750000256,
      "v": 120
    },
    {
      "midi": 68,
      "hit": false,
      "t": 162088.9390000006,
      "d": 708.9525416666875,
      "v": 114
    },
    {
      "midi": 49,
      "hit": false,
      "t": 162536.6985000006,
      "d": 503.7294375000056,
      "v": 110
    },
    {
      "midi": 61,
      "hit": false,
      "t": 162984.45800000062,
      "d": 764.9224791666493,
      "v": 118
    },
    {
      "midi": 57,
      "hit": false,
      "t": 162984.45800000062,
      "d": 783.5791249999893,
      "v": 123
    },
    {
      "midi": 68,
      "hit": false,
      "t": 162984.45800000062,
      "d": 792.9074479166593,
      "v": 114
    },
    {
      "midi": 54,
      "hit": false,
      "t": 162984.45800000062,
      "d": 1222.010302083334,
      "v": 106
    },
    {
      "midi": 61,
      "hit": false,
      "t": 163879.97700000062,
      "d": 811.5640937500284,
      "v": 121
    },
    {
      "midi": 68,
      "hit": false,
      "t": 163879.97700000062,
      "d": 811.5640937500284,
      "v": 121
    },
    {
      "midi": 57,
      "hit": false,
      "t": 163879.97700000062,
      "d": 830.2207395833684,
      "v": 117
    },
    {
      "midi": 54,
      "hit": false,
      "t": 164327.73650000064,
      "d": 363.80459375001374,
      "v": 110
    },
    {
      "midi": 66,
      "hit": false,
      "t": 164775.49600000065,
      "d": 755.5941562500084,
      "v": 121
    },
    {
      "midi": 61,
      "hit": false,
      "t": 164775.49600000065,
      "d": 764.9224791666784,
      "v": 121
    },
    {
      "midi": 57,
      "hit": false,
      "t": 164775.49600000065,
      "d": 783.5791250000184,
      "v": 110
    },
    {
      "midi": 54,
      "hit": false,
      "t": 164775.49600000065,
      "d": 1072.7571354167012,
      "v": 118
    },
    {
      "midi": 57,
      "hit": false,
      "t": 165671.01500000068,
      "d": 578.3560208333365,
      "v": 119
    },
    {
      "midi": 66,
      "hit": false,
      "t": 165671.01500000068,
      "d": 624.9976354166574,
      "v": 123
    },
    {
      "midi": 61,
      "hit": false,
      "t": 165671.01500000068,
      "d": 662.3109270833374,
      "v": 127
    },
    {
      "midi": 54,
      "hit": false,
      "t": 166118.7745000007,
      "d": 429.10285416664556,
      "v": 126
    },
    {
      "midi": 69,
      "hit": false,
      "t": 166566.53400000068,
      "d": 774.2508020833193,
      "v": 116
    },
    {
      "midi": 47,
      "hit": false,
      "t": 166566.53400000068,
      "d": 1091.413781250012,
      "v": 116
    },
    {
      "midi": 61,
      "hit": false,
      "t": 166566.53400000068,
      "d": 1567.1582500000077,
      "v": 112
    },
    {
      "midi": 69,
      "hit": false,
      "t": 167462.05300000068,
      "d": 718.2808645833284,
      "v": 125
    },
    {
      "midi": 63,
      "hit": false,
      "t": 167462.05300000068,
      "d": 792.9074479166593,
      "v": 123
    },
    {
      "midi": 47,
      "hit": false,
      "t": 167909.8125000007,
      "d": 363.80459374998463,
      "v": 125
    },
    {
      "midi": 69,
      "hit": false,
      "t": 168357.57200000068,
      "d": 736.9375104166684,
      "v": 117
    },
    {
      "midi": 47,
      "hit": false,
      "t": 168357.57200000068,
      "d": 998.1305520833412,
      "v": 123
    },
    {
      "midi": 61,
      "hit": false,
      "t": 168357.57200000068,
      "d": 1585.8148958333768,
      "v": 127
    },
    {
      "midi": 69,
      "hit": false,
      "t": 169253.09100000068,
      "d": 643.6542812500265,
      "v": 127
    },
    {
      "midi": 63,
      "hit": false,
      "t": 169253.09100000068,
      "d": 662.3109270833666,
      "v": 121
    },
    {
      "midi": 47,
      "hit": false,
      "t": 169700.8505000007,
      "d": 522.3860833333456,
      "v": 127
    },
    {
      "midi": 68,
      "hit": false,
      "t": 170148.6100000007,
      "d": 736.9375104166684,
      "v": 123
    },
    {
      "midi": 66,
      "hit": false,
      "t": 170148.6100000007,
      "d": 774.2508020833484,
      "v": 127
    },
    {
      "midi": 71,
      "hit": false,
      "t": 170148.6100000007,
      "d": 774.2508020833484,
      "v": 127
    },
    {
      "midi": 52,
      "hit": false,
      "t": 170148.6100000007,
      "d": 1072.7571354167012,
      "v": 113
    },
    {
      "midi": 71,
      "hit": false,
      "t": 171044.12900000074,
      "d": 820.8924166666693,
      "v": 127
    },
    {
      "midi": 68,
      "hit": false,
      "t": 171044.12900000074,
      "d": 830.2207395833393,
      "v": 123
    },
    {
      "midi": 66,
      "hit": false,
      "t": 171044.12900000074,
      "d": 867.5340312500193,
      "v": 127
    },
    {
      "midi": 52,
      "hit": false,
      "t": 171491.88850000076,
      "d": 382.46123958332464,
      "v": 117
    },
    {
      "midi": 68,
      "hit": false,
      "t": 171939.64800000077,
      "d": 802.2357708333293,
      "v": 103
    },
    {
      "midi": 71,
      "hit": false,
      "t": 171939.64800000077,
      "d": 802.2357708333293,
      "v": 117
    },
    {
      "midi": 64,
      "hit": false,
      "t": 171939.64800000077,
      "d": 820.8924166666693,
      "v": 103
    },
    {
      "midi": 52,
      "hit": false,
      "t": 171939.64800000077,
      "d": 1110.070427083323,
      "v": 123
    },
    {
      "midi": 68,
      "hit": false,
      "t": 172835.16700000077,
      "d": 559.6993749999965,
      "v": 121
    },
    {
      "midi": 71,
      "hit": false,
      "t": 172835.16700000077,
      "d": 578.3560208333365,
      "v": 120
    },
    {
      "midi": 64,
      "hit": false,
      "t": 172835.16700000077,
      "d": 718.2808645833284,
      "v": 120
    },
    {
      "midi": 52,
      "hit": false,
      "t": 173282.92650000076,
      "d": 419.77453125000466,
      "v": 117
    },
    {
      "midi": 63,
      "hit": false,
      "t": 173730.68600000077,
      "d": 755.5941562500084,
      "v": 118
    },
    {
      "midi": 64,
      "hit": false,
      "t": 173730.68600000077,
      "d": 755.5941562500084,
      "v": 127
    },
    {
      "midi": 68,
      "hit": false,
      "t": 173730.68600000077,
      "d": 755.5941562500084,
      "v": 127
    },
    {
      "midi": 49,
      "hit": false,
      "t": 173730.68600000077,
      "d": 1128.727072916663,
      "v": 105
    },
    {
      "midi": 63,
      "hit": false,
      "t": 174626.20500000077,
      "d": 811.5640937499993,
      "v": 118
    },
    {
      "midi": 68,
      "hit": false,
      "t": 174626.20500000077,
      "d": 839.5490625000093,
      "v": 127
    },
    {
      "midi": 64,
      "hit": false,
      "t": 174626.20500000077,
      "d": 867.5340312500193,
      "v": 127
    },
    {
      "midi": 49,
      "hit": false,
      "t": 175073.96450000076,
      "d": 391.78956250002375,
      "v": 118
    },
    {
      "midi": 61,
      "hit": false,
      "t": 175521.7240000008,
      "d": 764.9224791666784,
      "v": 118
    },
    {
      "midi": 68,
      "hit": false,
      "t": 175521.7240000008,
      "d": 764.9224791666784,
      "v": 118
    },
    {
      "midi": 64,
      "hit": false,
      "t": 175521.7240000008,
      "d": 783.5791250000184,
      "v": 112
    },
    {
      "midi": 49,
      "hit": false,
      "t": 175521.7240000008,
      "d": 1110.0704270833521,
      "v": 123
    },
    {
      "midi": 64,
      "hit": false,
      "t": 176417.24300000083,
      "d": 746.2658333333093,
      "v": 122
    },
    {
      "midi": 68,
      "hit": false,
      "t": 176417.24300000083,
      "d": 774.2508020833193,
      "v": 127
    },
    {
      "midi": 61,
      "hit": false,
      "t": 176417.24300000083,
      "d": 802.2357708333293,
      "v": 118
    },
    {
      "midi": 49,
      "hit": false,
      "t": 176865.00250000082,
      "d": 457.0878229166847,
      "v": 108
    },
    {
      "midi": 61,
      "hit": false,
      "t": 177312.76200000083,
      "d": 736.9375104166684,
      "v": 123
    },
    {
      "midi": 57,
      "hit": false,
      "t": 177312.76200000083,
      "d": 755.5941562500084,
      "v": 127
    },
    {
      "midi": 68,
      "hit": false,
      "t": 177312.76200000083,
      "d": 764.9224791666784,
      "v": 119
    },
    {
      "midi": 42,
      "hit": false,
      "t": 177312.76200000083,
      "d": 1156.712041666673,
      "v": 101
    },
    {
      "midi": 61,
      "hit": false,
      "t": 178208.28100000083,
      "d": 792.9074479166884,
      "v": 123
    },
    {
      "midi": 68,
      "hit": false,
      "t": 178208.28100000083,
      "d": 792.9074479166884,
      "v": 118
    },
    {
      "midi": 57,
      "hit": false,
      "t": 178208.28100000083,
      "d": 811.5640937500284,
      "v": 127
    },
    {
      "midi": 42,
      "hit": false,
      "t": 178656.04050000085,
      "d": 354.47627083334373,
      "v": 108
    },
    {
      "midi": 66,
      "hit": false,
      "t": 179103.80000000086,
      "d": 746.2658333333384,
      "v": 121
    },
    {
      "midi": 61,
      "hit": false,
      "t": 179103.80000000086,
      "d": 755.5941562500084,
      "v": 121
    },
    {
      "midi": 57,
      "hit": false,
      "t": 179103.80000000086,
      "d": 774.2508020833484,
      "v": 109
    },
    {
      "midi": 42,
      "hit": false,
      "t": 179103.80000000086,
      "d": 1035.4438437500212,
      "v": 116
    },
    {
      "midi": 57,
      "hit": false,
      "t": 179999.3190000009,
      "d": 587.6843437499774,
      "v": 116
    },
    {
      "midi": 66,
      "hit": false,
      "t": 179999.3190000009,
      "d": 624.9976354166574,
      "v": 121
    },
    {
      "midi": 61,
      "hit": false,
      "t": 179999.3190000009,
      "d": 652.9826041666674,
      "v": 126
    },
    {
      "midi": 42,
      "hit": false,
      "t": 180447.07850000088,
      "d": 457.0878229166847,
      "v": 112
    },
    {
      "midi": 69,
      "hit": false,
      "t": 180894.8380000009,
      "d": 485.0727916666947,
      "v": 127
    },
    {
      "midi": 61,
      "hit": false,
      "t": 180894.8380000009,
      "d": 671.6392500000366,
      "v": 123
    },
    {
      "midi": 47,
      "hit": false,
      "t": 180894.8380000009,
      "d": 1184.6970104167121,
      "v": 116
    },
    {
      "midi": 59,
      "hit": false,
      "t": 181342.5975000009,
      "d": 550.3710520833556,
      "v": 116
    },
    {
      "midi": 69,
      "hit": false,
      "t": 181790.35700000092,
      "d": 652.9826041666674,
      "v": 127
    },
    {
      "midi": 63,
      "hit": false,
      "t": 181790.35700000092,
      "d": 671.6392500000075,
      "v": 123
    },
    {
      "midi": 47,
      "hit": false,
      "t": 182238.11650000094,
      "d": 335.8196250000037,
      "v": 107
    },
    {
      "midi": 59,
      "hit": false,
      "t": 182238.11650000094,
      "d": 494.4011145833356,
      "v": 117
    },
    {
      "midi": 61,
      "hit": false,
      "t": 182685.87600000095,
      "d": 671.6392499999783,
      "v": 123
    },
    {
      "midi": 69,
      "hit": false,
      "t": 182685.87600000095,
      "d": 671.6392499999783,
      "v": 127
    },
    {
      "midi": 47,
      "hit": false,
      "t": 182685.87600000095,
      "d": 1725.7397395833395,
      "v": 119
    },
    {
      "midi": 59,
      "hit": false,
      "t": 183133.63550000094,
      "d": 569.0276979166665,
      "v": 108
    },
    {
      "midi": 63,
      "hit": false,
      "t": 183581.39500000092,
      "d": 802.2357708333584,
      "v": 124
    },
    {
      "midi": 69,
      "hit": false,
      "t": 183581.39500000092,
      "d": 820.8924166666984,
      "v": 127
    },
    {
      "midi": 59,
      "hit": false,
      "t": 184029.15450000094,
      "d": 410.44620833336376,
      "v": 111
    },
    {
      "midi": 40,
      "hit": false,
      "t": 184476.91400000098,
      "d": 3582.076000000001,
      "v": 118
    },
    {
      "midi": 47,
      "hit": false,
      "t": 184476.91400000098,
      "d": 3582.076000000001,
      "v": 118
    },
    {
      "midi": 56,
      "hit": false,
      "t": 184476.91400000098,
      "d": 3582.076000000001,
      "v": 118
    },
    {
      "midi": 64,
      "hit": false,
      "t": 184476.91400000098,
      "d": 3582.076000000001,
      "v": 118
    }
  ]
}