{
  "jsonPath": "Unknown/Unknown/Edens Bridge/el-shaddai-celtic-psalms-album-version.json",
  "path": "Unknown\\Unknown\\Edens Bridge\\El Shaddai  (Celtic Psalms Album Version).mid",
  "name": "El Shaddai  (Celtic Psalms Album Version)",
  "difficulty": "Advanced",
  "bpm": 89.9999550000225,
  "notes": [
    {
      "midi": 45,
      "hit": false,
      "t": 4666.669000000001,
      "d": 1993.0565520833343,
      "v": 61
    },
    {
      "midi": 57,
      "hit": false,
      "t": 5333.336000000001,
      "d": 659.7225520833335,
      "v": 47
    },
    {
      "midi": 60,
      "hit": false,
      "t": 5333.336000000001,
      "d": 659.7225520833335,
      "v": 43
    },
    {
      "midi": 64,
      "hit": false,
      "t": 5333.336000000001,
      "d": 659.7225520833335,
      "v": 59
    },
    {
      "midi": 57,
      "hit": false,
      "t": 6000.0030000000015,
      "d": 659.7225520833335,
      "v": 53
    },
    {
      "midi": 60,
      "hit": false,
      "t": 6000.0030000000015,
      "d": 659.7225520833335,
      "v": 52
    },
    {
      "midi": 64,
      "hit": false,
      "t": 6000.0030000000015,
      "d": 659.7225520833335,
      "v": 64
    },
    {
      "midi": 50,
      "hit": false,
      "t": 6666.670000000002,
      "d": 1993.0565520833334,
      "v": 50
    },
    {
      "midi": 57,
      "hit": false,
      "t": 7333.337000000002,
      "d": 659.7225520833335,
      "v": 35
    },
    {
      "midi": 60,
      "hit": false,
      "t": 7333.337000000002,
      "d": 659.7225520833335,
      "v": 53
    },
    {
      "midi": 62,
      "hit": false,
      "t": 7333.337000000002,
      "d": 659.7225520833335,
      "v": 36
    },
    {
      "midi": 65,
      "hit": false,
      "t": 7333.337000000002,
      "d": 659.7225520833335,
      "v": 48
    },
    {
      "midi": 57,
      "hit": false,
      "t": 8000.004000000003,
      "d": 659.7225520833326,
      "v": 46
    },
    {
      "midi": 60,
      "hit": false,
      "t": 8000.004000000003,
      "d": 659.7225520833326,
      "v": 46
    },
    {
      "midi": 62,
      "hit": false,
      "t": 8000.004000000003,
      "d": 659.7225520833326,
      "v": 41
    },
    {
      "midi": 65,
      "hit": false,
      "t": 8000.004000000003,
      "d": 659.7225520833326,
      "v": 55
    },
    {
      "midi": 43,
      "hit": false,
      "t": 8666.671000000002,
      "d": 1993.0565520833316,
      "v": 61
    },
    {
      "midi": 53,
      "hit": false,
      "t": 9333.338000000002,
      "d": 659.7225520833326,
      "v": 47
    },
    {
      "midi": 59,
      "hit": false,
      "t": 9333.338000000002,
      "d": 659.7225520833326,
      "v": 65
    },
    {
      "midi": 62,
      "hit": false,
      "t": 9333.338000000002,
      "d": 659.7225520833326,
      "v": 45
    },
    {
      "midi": 53,
      "hit": false,
      "t": 10000.005000000001,
      "d": 659.7225520833326,
      "v": 44
    },
    {
      "midi": 59,
      "hit": false,
      "t": 10000.005000000001,
      "d": 659.7225520833326,
      "v": 61
    },
    {
      "midi": 62,
      "hit": false,
      "t": 10000.005000000001,
      "d": 659.7225520833326,
      "v": 52
    },
    {
      "midi": 48,
      "hit": false,
      "t": 10666.672,
      "d": 1993.0565520833316,
      "v": 64
    },
    {
      "midi": 55,
      "hit": false,
      "t": 11333.339,
      "d": 659.7225520833326,
      "v": 43
    },
    {
      "midi": 59,
      "hit": false,
      "t": 11333.339,
      "d": 659.7225520833326,
      "v": 46
    },
    {
      "midi": 64,
      "hit": false,
      "t": 11333.339,
      "d": 659.7225520833326,
      "v": 53
    },
    {
      "midi": 55,
      "hit": false,
      "t": 12000.006,
      "d": 659.7225520833326,
      "v": 46
    },
    {
      "midi": 59,
      "hit": false,
      "t": 12000.006,
      "d": 659.7225520833326,
      "v": 55
    },
    {
      "midi": 64,
      "hit": false,
      "t": 12000.006,
      "d": 659.7225520833326,
      "v": 58
    },
    {
      "midi": 47,
      "hit": false,
      "t": 12666.672999999999,
      "d": 1993.0565520833316,
      "v": 58
    },
    {
      "midi": 53,
      "hit": false,
      "t": 13333.339999999998,
      "d": 659.7225520833326,
      "v": 45
    },
    {
      "midi": 57,
      "hit": false,
      "t": 13333.339999999998,
      "d": 659.7225520833326,
      "v": 40
    },
    {
      "midi": 62,
      "hit": false,
      "t": 13333.339999999998,
      "d": 659.7225520833326,
      "v": 47
    },
    {
      "midi": 53,
      "hit": false,
      "t": 14000.006999999998,
      "d": 659.7225520833326,
      "v": 43
    },
    {
      "midi": 57,
      "hit": false,
      "t": 14000.006999999998,
      "d": 659.7225520833326,
      "v": 55
    },
    {
      "midi": 62,
      "hit": false,
      "t": 14000.006999999998,
      "d": 659.7225520833326,
      "v": 61
    },
    {
      "midi": 40,
      "hit": false,
      "t": 14666.673999999997,
      "d": 1993.0565520833352,
      "v": 47
    },
    {
      "midi": 50,
      "hit": false,
      "t": 15000.007499999998,
      "d": 1659.7230520833346,
      "v": 29
    },
    {
      "midi": 56,
      "hit": false,
      "t": 15333.340999999999,
      "d": 1326.389552083334,
      "v": 55
    },
    {
      "midi": 45,
      "hit": false,
      "t": 16666.675,
      "d": 1333.3340000000026,
      "v": 47
    },
    {
      "midi": 60,
      "hit": false,
      "t": 17347.230895833334,
      "d": 1319.445104166669,
      "v": 49
    },
    {
      "midi": 57,
      "hit": false,
      "t": 17347.230895833334,
      "d": 1326.3895520833357,
      "v": 49
    },
    {
      "midi": 64,
      "hit": false,
      "t": 17354.17534375,
      "d": 1312.500656250002,
      "v": 49
    },
    {
      "midi": 45,
      "hit": false,
      "t": 18666.676000000003,
      "d": 1333.3340000000026,
      "v": 47
    },
    {
      "midi": 64,
      "hit": false,
      "t": 19340.28744791667,
      "d": 652.7781041666676,
      "v": 48
    },
    {
      "midi": 57,
      "hit": false,
      "t": 19347.231895833338,
      "d": 645.8336562500008,
      "v": 48
    },
    {
      "midi": 60,
      "hit": false,
      "t": 19347.231895833338,
      "d": 645.8336562500008,
      "v": 48
    },
    {
      "midi": 60,
      "hit": false,
      "t": 20006.954447916673,
      "d": 555.555833333332,
      "v": 43
    },
    {
      "midi": 64,
      "hit": false,
      "t": 20013.89889583334,
      "d": 548.6113854166651,
      "v": 43
    },
    {
      "midi": 57,
      "hit": false,
      "t": 20013.89889583334,
      "d": 652.778104166664,
      "v": 43
    },
    {
      "midi": 62,
      "hit": false,
      "t": 20562.510281250004,
      "d": 97.222270833332,
      "v": 43
    },
    {
      "midi": 65,
      "hit": false,
      "t": 20562.510281250004,
      "d": 104.16671874999884,
      "v": 43
    },
    {
      "midi": 50,
      "hit": false,
      "t": 20666.677000000003,
      "d": 1333.3340000000026,
      "v": 47
    },
    {
      "midi": 57,
      "hit": false,
      "t": 21347.23289583334,
      "d": 1222.2228333333333,
      "v": 49
    },
    {
      "midi": 62,
      "hit": false,
      "t": 21347.23289583334,
      "d": 1222.2228333333333,
      "v": 49
    },
    {
      "midi": 65,
      "hit": false,
      "t": 21347.23289583334,
      "d": 1222.2228333333333,
      "v": 49
    },
    {
      "midi": 50,
      "hit": false,
      "t": 22333.344500000007,
      "d": 236.111229166665,
      "v": 47
    },
    {
      "midi": 43,
      "hit": false,
      "t": 22569.45572916667,
      "d": 83.33337499999834,
      "v": 47
    },
    {
      "midi": 59,
      "hit": false,
      "t": 22569.45572916667,
      "d": 97.222270833332,
      "v": 49
    },
    {
      "midi": 55,
      "hit": false,
      "t": 22569.45572916667,
      "d": 104.16671874999884,
      "v": 49
    },
    {
      "midi": 62,
      "hit": false,
      "t": 22569.45572916667,
      "d": 104.16671874999884,
      "v": 49
    },
    {
      "midi": 43,
      "hit": false,
      "t": 22666.678000000004,
      "d": 1333.3340000000026,
      "v": 47
    },
    {
      "midi": 62,
      "hit": false,
      "t": 23347.23389583334,
      "d": 652.7781041666676,
      "v": 48
    },
    {
      "midi": 55,
      "hit": false,
      "t": 23354.178343750005,
      "d": 645.8336562500008,
      "v": 48
    },
    {
      "midi": 59,
      "hit": false,
      "t": 23354.178343750005,
      "d": 645.8336562500008,
      "v": 48
    },
    {
      "midi": 59,
      "hit": false,
      "t": 24013.90089583334,
      "d": 527.7780416666683,
      "v": 43
    },
    {
      "midi": 62,
      "hit": false,
      "t": 24013.90089583334,
      "d": 527.7780416666683,
      "v": 43
    },
    {
      "midi": 55,
      "hit": false,
      "t": 24013.90089583334,
      "d": 638.889208333334,
      "v": 43
    },
    {
      "midi": 60,
      "hit": false,
      "t": 24541.678937500008,
      "d": 111.11116666666567,
      "v": 43
    },
    {
      "midi": 64,
      "hit": false,
      "t": 24541.678937500008,
      "d": 111.11116666666567,
      "v": 43
    },
    {
      "midi": 48,
      "hit": false,
      "t": 24666.679000000007,
      "d": 1333.3340000000026,
      "v": 47
    },
    {
      "midi": 55,
      "hit": false,
      "t": 25347.234895833342,
      "d": 1312.500656250002,
      "v": 49
    },
    {
      "midi": 60,
      "hit": false,
      "t": 25347.234895833342,
      "d": 1319.445104166669,
      "v": 49
    },
    {
      "midi": 64,
      "hit": false,
      "t": 25354.17934375001,
      "d": 1305.5562083333352,
      "v": 49
    },
    {
      "midi": 65,
      "hit": false,
      "t": 26659.735552083344,
      "d": 6.944447916666832,
      "v": 49
    },
    {
      "midi": 57,
      "hit": false,
      "t": 26659.735552083344,
      "d": 13.888895833333663,
      "v": 49
    },
    {
      "midi": 41,
      "hit": false,
      "t": 26666.68000000001,
      "d": 1333.3340000000026,
      "v": 47
    },
    {
      "midi": 65,
      "hit": false,
      "t": 27340.29144791668,
      "d": 652.7781041666676,
      "v": 48
    },
    {
      "midi": 57,
      "hit": false,
      "t": 27347.235895833346,
      "d": 645.8336562500008,
      "v": 48
    },
    {
      "midi": 60,
      "hit": false,
      "t": 27347.235895833346,
      "d": 645.8336562500008,
      "v": 48
    },
    {
      "midi": 60,
      "hit": false,
      "t": 28006.95844791668,
      "d": 631.9447604166671,
      "v": 43
    },
    {
      "midi": 57,
      "hit": false,
      "t": 28013.902895833347,
      "d": 652.7781041666676,
      "v": 43
    },
    {
      "midi": 65,
      "hit": false,
      "t": 28013.902895833347,
      "d": 652.7781041666676,
      "v": 43
    },
    {
      "midi": 62,
      "hit": false,
      "t": 28638.903208333348,
      "d": 20.833343750000495,
      "v": 43
    },
    {
      "midi": 50,
      "hit": false,
      "t": 28666.681000000015,
      "d": 1333.3340000000026,
      "v": 47
    },
    {
      "midi": 57,
      "hit": false,
      "t": 29347.23689583335,
      "d": 1256.9450729166674,
      "v": 49
    },
    {
      "midi": 62,
      "hit": false,
      "t": 29347.23689583335,
      "d": 1256.9450729166674,
      "v": 49
    },
    {
      "midi": 65,
      "hit": false,
      "t": 29347.23689583335,
      "d": 1256.9450729166674,
      "v": 49
    },
    {
      "midi": 50,
      "hit": false,
      "t": 30333.34850000002,
      "d": 270.83346874999916,
      "v": 47
    },
    {
      "midi": 44,
      "hit": false,
      "t": 30604.181968750017,
      "d": 27.777791666667326,
      "v": 47
    },
    {
      "midi": 63,
      "hit": false,
      "t": 30604.181968750017,
      "d": 27.777791666667326,
      "v": 49
    },
    {
      "midi": 59,
      "hit": false,
      "t": 30604.181968750017,
      "d": 62.500031250001484,
      "v": 49
    },
    {
      "midi": 56,
      "hit": false,
      "t": 30604.181968750017,
      "d": 69.44447916666832,
      "v": 49
    },
    {
      "midi": 40,
      "hit": false,
      "t": 30631.959760416685,
      "d": 20.833343750000495,
      "v": 47
    },
    {
      "midi": 64,
      "hit": false,
      "t": 30631.959760416685,
      "d": 41.66668750000099,
      "v": 49
    },
    {
      "midi": 40,
      "hit": false,
      "t": 30666.68200000002,
      "d": 1333.3340000000026,
      "v": 47
    },
    {
      "midi": 64,
      "hit": false,
      "t": 31347.237895833354,
      "d": 652.7781041666676,
      "v": 48
    },
    {
      "midi": 56,
      "hit": false,
      "t": 31354.18234375002,
      "d": 645.8336562500008,
      "v": 48
    },
    {
      "midi": 59,
      "hit": false,
      "t": 31354.18234375002,
      "d": 645.8336562500008,
      "v": 48
    },
    {
      "midi": 56,
      "hit": false,
      "t": 32013.904895833355,
      "d": 638.889208333334,
      "v": 43
    },
    {
      "midi": 59,
      "hit": false,
      "t": 32013.904895833355,
      "d": 638.889208333334,
      "v": 43
    },
    {
      "midi": 64,
      "hit": false,
      "t": 32013.904895833355,
      "d": 638.889208333334,
      "v": 43
    },
    {
      "midi": 40,
      "hit": false,
      "t": 32666.683000000023,
      "d": 6.944447916666832,
      "v": 47
    },
    {
      "midi": 45,
      "hit": false,
      "t": 32673.62744791669,
      "d": 1326.3895520833248,
      "v": 47
    },
    {
      "midi": 60,
      "hit": false,
      "t": 33347.238895833354,
      "d": 1319.4451041666616,
      "v": 49
    },
    {
      "midi": 57,
      "hit": false,
      "t": 33347.238895833354,
      "d": 1326.3895520833248,
      "v": 49
    },
    {
      "midi": 64,
      "hit": false,
      "t": 33354.18334375002,
      "d": 1312.5006562499984,
      "v": 49
    },
    {
      "midi": 45,
      "hit": false,
      "t": 34666.684000000016,
      "d": 1333.333999999988,
      "v": 47
    },
    {
      "midi": 64,
      "hit": false,
      "t": 35340.29544791668,
      "d": 652.7781041666603,
      "v": 48
    },
    {
      "midi": 57,
      "hit": false,
      "t": 35347.23989583334,
      "d": 645.8336562499971,
      "v": 48
    },
    {
      "midi": 60,
      "hit": false,
      "t": 35347.23989583334,
      "d": 645.8336562499971,
      "v": 48
    },
    {
      "midi": 60,
      "hit": false,
      "t": 36006.96244791667,
      "d": 645.8336562499971,
      "v": 43
    },
    {
      "midi": 64,
      "hit": false,
      "t": 36013.90689583333,
      "d": 638.889208333334,
      "v": 43
    },
    {
      "midi": 57,
      "hit": false,
      "t": 36013.90689583333,
      "d": 652.7781041666603,
      "v": 43
    },
    {
      "midi": 62,
      "hit": false,
      "t": 36652.796104166664,
      "d": 6.944447916663194,
      "v": 43
    },
    {
      "midi": 65,
      "hit": false,
      "t": 36652.796104166664,
      "d": 13.888895833326387,
      "v": 43
    },
    {
      "midi": 50,
      "hit": false,
      "t": 36666.68499999999,
      "d": 1333.3340000000026,
      "v": 47
    },
    {
      "midi": 57,
      "hit": false,
      "t": 37347.240895833325,
      "d": 1277.778416666668,
      "v": 49
    },
    {
      "midi": 62,
      "hit": false,
      "t": 37347.240895833325,
      "d": 1277.778416666668,
      "v": 49
    },
    {
      "midi": 65,
      "hit": false,
      "t": 37347.240895833325,
      "d": 1277.778416666668,
      "v": 49
    },
    {
      "midi": 50,
      "hit": false,
      "t": 38333.35249999999,
      "d": 291.66681249999965,
      "v": 47
    },
    {
      "midi": 43,
      "hit": false,
      "t": 38625.01931249999,
      "d": 27.777791666667326,
      "v": 47
    },
    {
      "midi": 59,
      "hit": false,
      "t": 38625.01931249999,
      "d": 41.66668750000099,
      "v": 49
    },
    {
      "midi": 55,
      "hit": false,
      "t": 38625.01931249999,
      "d": 48.61113541666418,
      "v": 49
    },
    {
      "midi": 62,
      "hit": false,
      "t": 38625.01931249999,
      "d": 48.61113541666418,
      "v": 49
    },
    {
      "midi": 43,
      "hit": false,
      "t": 38666.685999999994,
      "d": 1333.333999999988,
      "v": 47
    },
    {
      "midi": 62,
      "hit": false,
      "t": 39347.24189583332,
      "d": 652.7781041666603,
      "v": 48
    },
    {
      "midi": 55,
      "hit": false,
      "t": 39354.186343749985,
      "d": 645.8336562499971,
      "v": 48
    },
    {
      "midi": 59,
      "hit": false,
      "t": 39354.186343749985,
      "d": 645.8336562499971,
      "v": 48
    },
    {
      "midi": 59,
      "hit": false,
      "t": 40013.908895833316,
      "d": 506.9446979166678,
      "v": 43
    },
    {
      "midi": 62,
      "hit": false,
      "t": 40013.908895833316,
      "d": 506.9446979166678,
      "v": 43
    },
    {
      "midi": 55,
      "hit": false,
      "t": 40013.908895833316,
      "d": 638.889208333334,
      "v": 43
    },
    {
      "midi": 60,
      "hit": false,
      "t": 40520.853593749984,
      "d": 131.94451041666616,
      "v": 43
    },
    {
      "midi": 64,
      "hit": false,
      "t": 40520.853593749984,
      "d": 131.94451041666616,
      "v": 43
    },
    {
      "midi": 48,
      "hit": false,
      "t": 40666.68699999998,
      "d": 1333.3339999999953,
      "v": 47
    },
    {
      "midi": 55,
      "hit": false,
      "t": 41347.24289583332,
      "d": 1263.889520833327,
      "v": 49
    },
    {
      "midi": 60,
      "hit": false,
      "t": 41347.24289583332,
      "d": 1319.4451041666616,
      "v": 49
    },
    {
      "midi": 64,
      "hit": false,
      "t": 41354.18734374998,
      "d": 1256.9450729166638,
      "v": 49
    },
    {
      "midi": 65,
      "hit": false,
      "t": 42611.132416666645,
      "d": 55.55558333333465,
      "v": 49
    },
    {
      "midi": 57,
      "hit": false,
      "t": 42611.132416666645,
      "d": 62.500031249997846,
      "v": 49
    },
    {
      "midi": 41,
      "hit": false,
      "t": 42666.68799999998,
      "d": 1333.333999999988,
      "v": 47
    },
    {
      "midi": 65,
      "hit": false,
      "t": 43340.299447916645,
      "d": 652.7781041666603,
      "v": 48
    },
    {
      "midi": 57,
      "hit": false,
      "t": 43347.24389583331,
      "d": 645.8336562499971,
      "v": 48
    },
    {
      "midi": 60,
      "hit": false,
      "t": 43347.24389583331,
      "d": 645.8336562499971,
      "v": 48
    },
    {
      "midi": 60,
      "hit": false,
      "t": 44006.96644791663,
      "d": 604.1669687499962,
      "v": 43
    },
    {
      "midi": 57,
      "hit": false,
      "t": 44013.910895833294,
      "d": 652.7781041666603,
      "v": 43
    },
    {
      "midi": 65,
      "hit": false,
      "t": 44013.910895833294,
      "d": 652.7781041666603,
      "v": 43
    },
    {
      "midi": 62,
      "hit": false,
      "t": 44611.13341666663,
      "d": 48.61113541666418,
      "v": 43
    },
    {
      "midi": 50,
      "hit": false,
      "t": 44666.688999999955,
      "d": 1333.3340000000026,
      "v": 47
    },
    {
      "midi": 57,
      "hit": false,
      "t": 45347.24489583329,
      "d": 1270.8339687500047,
      "v": 49
    },
    {
      "midi": 62,
      "hit": false,
      "t": 45347.24489583329,
      "d": 1270.8339687500047,
      "v": 49
    },
    {
      "midi": 65,
      "hit": false,
      "t": 45347.24489583329,
      "d": 1270.8339687500047,
      "v": 49
    },
    {
      "midi": 50,
      "hit": false,
      "t": 46333.35649999996,
      "d": 284.72236458333646,
      "v": 47
    },
    {
      "midi": 44,
      "hit": false,
      "t": 46618.078864583294,
      "d": 34.72223958333052,
      "v": 47
    },
    {
      "midi": 60,
      "hit": false,
      "t": 46618.078864583294,
      "d": 34.72223958333052,
      "v": 49
    },
    {
      "midi": 63,
      "hit": false,
      "t": 46618.078864583294,
      "d": 34.72223958333052,
      "v": 49
    },
    {
      "midi": 56,
      "hit": false,
      "t": 46618.078864583294,
      "d": 55.55558333332738,
      "v": 49
    },
    {
      "midi": 59,
      "hit": false,
      "t": 46652.801104166625,
      "d": 13.888895833333663,
      "v": 49
    },
    {
      "midi": 64,
      "hit": false,
      "t": 46652.801104166625,
      "d": 20.833343749996857,
      "v": 49
    },
    {
      "midi": 40,
      "hit": false,
      "t": 46666.68999999996,
      "d": 1333.333999999988,
      "v": 47
    },
    {
      "midi": 64,
      "hit": false,
      "t": 47347.245895833286,
      "d": 652.7781041666603,
      "v": 48
    },
    {
      "midi": 56,
      "hit": false,
      "t": 47354.19034374995,
      "d": 645.8336562499971,
      "v": 48
    },
    {
      "midi": 59,
      "hit": false,
      "t": 47354.19034374995,
      "d": 645.8336562499971,
      "v": 48
    },
    {
      "midi": 56,
      "hit": false,
      "t": 48013.91289583328,
      "d": 590.2780729166698,
      "v": 43
    },
    {
      "midi": 59,
      "hit": false,
      "t": 48013.91289583328,
      "d": 590.2780729166698,
      "v": 43
    },
    {
      "midi": 64,
      "hit": false,
      "t": 48013.91289583328,
      "d": 638.889208333334,
      "v": 43
    },
    {
      "midi": 55,
      "hit": false,
      "t": 48604.19096874995,
      "d": 34.72223958333052,
      "v": 43
    },
    {
      "midi": 60,
      "hit": false,
      "t": 48604.19096874995,
      "d": 48.61113541666418,
      "v": 43
    },
    {
      "midi": 57,
      "hit": false,
      "t": 48638.91320833328,
      "d": 13.888895833333663,
      "v": 43
    },
    {
      "midi": 45,
      "hit": false,
      "t": 48666.69099999995,
      "d": 1333.3339999999953,
      "v": 47
    },
    {
      "midi": 60,
      "hit": false,
      "t": 49347.24689583328,
      "d": 1319.4451041666616,
      "v": 49
    },
    {
      "midi": 57,
      "hit": false,
      "t": 49347.24689583328,
      "d": 1326.3895520833248,
      "v": 49
    },
    {
      "midi": 64,
      "hit": false,
      "t": 49354.191343749946,
      "d": 1312.5006562499984,
      "v": 49
    },
    {
      "midi": 45,
      "hit": false,
      "t": 50666.691999999945,
      "d": 1333.333999999988,
      "v": 47
    },
    {
      "midi": 64,
      "hit": false,
      "t": 51340.30344791661,
      "d": 652.7781041666603,
      "v": 48
    },
    {
      "midi": 57,
      "hit": false,
      "t": 51347.24789583327,
      "d": 645.8336562499971,
      "v": 48
    },
    {
      "midi": 61,
      "hit": false,
      "t": 51347.24789583327,
      "d": 645.8336562499971,
      "v": 48
    },
    {
      "midi": 61,
      "hit": false,
      "t": 52006.970447916596,
      "d": 625.000312499993,
      "v": 43
    },
    {
      "midi": 64,
      "hit": false,
      "t": 52013.91489583326,
      "d": 618.0558645833298,
      "v": 43
    },
    {
      "midi": 57,
      "hit": false,
      "t": 52013.91489583326,
      "d": 652.7781041666603,
      "v": 43
    },
    {
      "midi": 62,
      "hit": false,
      "t": 52631.97076041659,
      "d": 27.777791666667326,
      "v": 43
    },
    {
      "midi": 65,
      "hit": false,
      "t": 52631.97076041659,
      "d": 34.72223958333052,
      "v": 43
    },
    {
      "midi": 50,
      "hit": false,
      "t": 52666.69299999992,
      "d": 1333.3340000000026,
      "v": 47
    },
    {
      "midi": 57,
      "hit": false,
      "t": 53347.248895833254,
      "d": 1159.7228020833354,
      "v": 49
    },
    {
      "midi": 62,
      "hit": false,
      "t": 53347.248895833254,
      "d": 1159.7228020833354,
      "v": 49
    },
    {
      "midi": 65,
      "hit": false,
      "t": 53347.248895833254,
      "d": 1159.7228020833354,
      "v": 49
    },
    {
      "midi": 50,
      "hit": false,
      "t": 54333.36049999992,
      "d": 173.61119791666715,
      "v": 47
    },
    {
      "midi": 43,
      "hit": false,
      "t": 54506.97169791659,
      "d": 145.83340624999983,
      "v": 47
    },
    {
      "midi": 59,
      "hit": false,
      "t": 54506.97169791659,
      "d": 159.7223020833335,
      "v": 49
    },
    {
      "midi": 55,
      "hit": false,
      "t": 54506.97169791659,
      "d": 166.66674999999668,
      "v": 49
    },
    {
      "midi": 62,
      "hit": false,
      "t": 54506.97169791659,
      "d": 166.66674999999668,
      "v": 49
    },
    {
      "midi": 43,
      "hit": false,
      "t": 54666.69399999992,
      "d": 1333.333999999988,
      "v": 47
    },
    {
      "midi": 62,
      "hit": false,
      "t": 55347.24989583325,
      "d": 652.7781041666603,
      "v": 48
    },
    {
      "midi": 55,
      "hit": false,
      "t": 55354.194343749914,
      "d": 645.8336562499971,
      "v": 48
    },
    {
      "midi": 59,
      "hit": false,
      "t": 55354.194343749914,
      "d": 645.8336562499971,
      "v": 48
    },
    {
      "midi": 55,
      "hit": false,
      "t": 56013.916895833245,
      "d": 548.6113854166688,
      "v": 43
    },
    {
      "midi": 62,
      "hit": false,
      "t": 56013.916895833245,
      "d": 548.6113854166688,
      "v": 43
    },
    {
      "midi": 59,
      "hit": false,
      "t": 56013.916895833245,
      "d": 576.3891770833361,
      "v": 43
    },
    {
      "midi": 56,
      "hit": false,
      "t": 56562.52828124991,
      "d": 27.777791666667326,
      "v": 43
    },
    {
      "midi": 64,
      "hit": false,
      "t": 56562.52828124991,
      "d": 90.27782291666517,
      "v": 43
    },
    {
      "midi": 55,
      "hit": false,
      "t": 56590.30607291658,
      "d": 62.500031249997846,
      "v": 43
    },
    {
      "midi": 60,
      "hit": false,
      "t": 56590.30607291658,
      "d": 62.500031249997846,
      "v": 43
    },
    {
      "midi": 48,
      "hit": false,
      "t": 56666.69499999991,
      "d": 1333.3339999999953,
      "v": 47
    },
    {
      "midi": 60,
      "hit": false,
      "t": 57347.25089583325,
      "d": 1319.4451041666616,
      "v": 49
    },
    {
      "midi": 55,
      "hit": false,
      "t": 57347.25089583325,
      "d": 1326.3895520833248,
      "v": 49
    },
    {
      "midi": 64,
      "hit": false,
      "t": 57354.19534374991,
      "d": 1312.5006562499984,
      "v": 49
    },
    {
      "midi": 48,
      "hit": false,
      "t": 58666.69599999991,
      "d": 1333.333999999988,
      "v": 47
    },
    {
      "midi": 64,
      "hit": false,
      "t": 59340.30744791657,
      "d": 652.7781041666603,
      "v": 48
    },
    {
      "midi": 55,
      "hit": false,
      "t": 59347.25189583324,
      "d": 645.8336562499971,
      "v": 48
    },
    {
      "midi": 60,
      "hit": false,
      "t": 59347.25189583324,
      "d": 645.8336562499971,
      "v": 48
    },
    {
      "midi": 60,
      "hit": false,
      "t": 60006.97444791656,
      "d": 652.7781041666603,
      "v": 43
    },
    {
      "midi": 55,
      "hit": false,
      "t": 60013.91889583322,
      "d": 479.16690625000047,
      "v": 43
    },
    {
      "midi": 64,
      "hit": false,
      "t": 60013.91889583322,
      "d": 479.16690625000047,
      "v": 43
    },
    {
      "midi": 57,
      "hit": false,
      "t": 60493.085802083224,
      "d": 173.61119791665988,
      "v": 43
    },
    {
      "midi": 65,
      "hit": false,
      "t": 60493.085802083224,
      "d": 173.61119791665988,
      "v": 43
    },
    {
      "midi": 41,
      "hit": false,
      "t": 60666.696999999884,
      "d": 1333.3340000000026,
      "v": 47
    },
    {
      "midi": 60,
      "hit": false,
      "t": 61347.25289583322,
      "d": 1319.445104166669,
      "v": 49
    },
    {
      "midi": 57,
      "hit": false,
      "t": 61347.25289583322,
      "d": 1326.389552083332,
      "v": 49
    },
    {
      "midi": 65,
      "hit": false,
      "t": 61347.25289583322,
      "d": 1326.389552083332,
      "v": 49
    },
    {
      "midi": 41,
      "hit": false,
      "t": 62333.36449999989,
      "d": 319.444604166667,
      "v": 47
    },
    {
      "midi": 41,
      "hit": false,
      "t": 62666.69799999989,
      "d": 1333.333999999988,
      "v": 47
    },
    {
      "midi": 65,
      "hit": false,
      "t": 63347.253895833215,
      "d": 652.7781041666603,
      "v": 48
    },
    {
      "midi": 57,
      "hit": false,
      "t": 63354.19834374988,
      "d": 645.8336562499971,
      "v": 48
    },
    {
      "midi": 60,
      "hit": false,
      "t": 63354.19834374988,
      "d": 645.8336562499971,
      "v": 48
    },
    {
      "midi": 57,
      "hit": false,
      "t": 64013.92089583321,
      "d": 520.8335937500015,
      "v": 43
    },
    {
      "midi": 60,
      "hit": false,
      "t": 64013.92089583321,
      "d": 520.8335937500015,
      "v": 43
    },
    {
      "midi": 65,
      "hit": false,
      "t": 64013.92089583321,
      "d": 520.8335937500015,
      "v": 43
    },
    {
      "midi": 63,
      "hit": false,
      "t": 64534.75448958321,
      "d": 34.72223958333052,
      "v": 43
    },
    {
      "midi": 56,
      "hit": false,
      "t": 64534.75448958321,
      "d": 118.0556145833325,
      "v": 43
    },
    {
      "midi": 59,
      "hit": false,
      "t": 64534.75448958321,
      "d": 118.0556145833325,
      "v": 43
    },
    {
      "midi": 64,
      "hit": false,
      "t": 64569.47672916654,
      "d": 83.33337500000198,
      "v": 43
    },
    {
      "midi": 40,
      "hit": false,
      "t": 64666.69899999988,
      "d": 1333.3340000000026,
      "v": 47
    },
    {
      "midi": 56,
      "hit": false,
      "t": 65347.25489583321,
      "d": 1250.0006250000079,
      "v": 49
    },
    {
      "midi": 59,
      "hit": false,
      "t": 65347.25489583321,
      "d": 1250.0006250000079,
      "v": 49
    },
    {
      "midi": 64,
      "hit": false,
      "t": 65354.199343749875,
      "d": 1312.5006562500057,
      "v": 49
    },
    {
      "midi": 60,
      "hit": false,
      "t": 66597.25552083322,
      "d": 69.44447916666104,
      "v": 49
    },
    {
      "midi": 57,
      "hit": false,
      "t": 66597.25552083322,
      "d": 76.38892708333151,
      "v": 49
    },
    {
      "midi": 45,
      "hit": false,
      "t": 66666.69999999988,
      "d": 1333.334000000017,
      "v": 47
    },
    {
      "midi": 64,
      "hit": false,
      "t": 67340.31144791655,
      "d": 652.7781041666749,
      "v": 48
    },
    {
      "midi": 57,
      "hit": false,
      "t": 67347.25589583322,
      "d": 645.8336562500044,
      "v": 48
    },
    {
      "midi": 60,
      "hit": false,
      "t": 67347.25589583322,
      "d": 645.8336562500044,
      "v": 48
    },
    {
      "midi": 60,
      "hit": false,
      "t": 68006.97844791657,
      "d": 527.7780416666646,
      "v": 43
    },
    {
      "midi": 64,
      "hit": false,
      "t": 68013.92289583324,
      "d": 520.8335937499942,
      "v": 43
    },
    {
      "midi": 57,
      "hit": false,
      "t": 68013.92289583324,
      "d": 652.7781041666603,
      "v": 43
    },
    {
      "midi": 62,
      "hit": false,
      "t": 68534.75648958323,
      "d": 125.00006249999569,
      "v": 43
    },
    {
      "midi": 65,
      "hit": false,
      "t": 68534.75648958323,
      "d": 131.94451041666616,
      "v": 43
    },
    {
      "midi": 50,
      "hit": false,
      "t": 68666.7009999999,
      "d": 1333.333999999988,
      "v": 47
    },
    {
      "midi": 57,
      "hit": false,
      "t": 69347.25689583323,
      "d": 1145.8339062499872,
      "v": 49
    },
    {
      "midi": 62,
      "hit": false,
      "t": 69347.25689583323,
      "d": 1145.8339062499872,
      "v": 49
    },
    {
      "midi": 65,
      "hit": false,
      "t": 69347.25689583323,
      "d": 1145.8339062499872,
      "v": 49
    },
    {
      "midi": 50,
      "hit": false,
      "t": 70333.36849999988,
      "d": 159.7223020833335,
      "v": 47
    },
    {
      "midi": 43,
      "hit": false,
      "t": 70493.09080208321,
      "d": 159.7223020833335,
      "v": 47
    },
    {
      "midi": 59,
      "hit": false,
      "t": 70493.09080208321,
      "d": 173.61119791665988,
      "v": 49
    },
    {
      "midi": 55,
      "hit": false,
      "t": 70493.09080208321,
      "d": 180.55564583333035,
      "v": 49
    },
    {
      "midi": 62,
      "hit": false,
      "t": 70493.09080208321,
      "d": 180.55564583333035,
      "v": 49
    },
    {
      "midi": 43,
      "hit": false,
      "t": 70666.70199999987,
      "d": 1333.334000000017,
      "v": 47
    },
    {
      "midi": 62,
      "hit": false,
      "t": 71347.25789583322,
      "d": 652.7781041666749,
      "v": 48
    },
    {
      "midi": 55,
      "hit": false,
      "t": 71354.20234374989,
      "d": 645.8336562500044,
      "v": 48
    },
    {
      "midi": 59,
      "hit": false,
      "t": 71354.20234374989,
      "d": 645.8336562500044,
      "v": 48
    },
    {
      "midi": 59,
      "hit": false,
      "t": 72013.92489583322,
      "d": 520.8335937499942,
      "v": 43
    },
    {
      "midi": 62,
      "hit": false,
      "t": 72013.92489583322,
      "d": 520.8335937499942,
      "v": 43
    },
    {
      "midi": 55,
      "hit": false,
      "t": 72013.92489583322,
      "d": 638.889208333334,
      "v": 43
    },
    {
      "midi": 60,
      "hit": false,
      "t": 72534.75848958321,
      "d": 118.05561458333977,
      "v": 43
    },
    {
      "midi": 64,
      "hit": false,
      "t": 72534.75848958321,
      "d": 118.05561458333977,
      "v": 43
    },
    {
      "midi": 48,
      "hit": false,
      "t": 72666.70299999988,
      "d": 1333.3340000000026,
      "v": 47
    },
    {
      "midi": 55,
      "hit": false,
      "t": 73347.2588958332,
      "d": 1312.5006562500057,
      "v": 49
    },
    {
      "midi": 60,
      "hit": false,
      "t": 73347.2588958332,
      "d": 1319.4451041666762,
      "v": 49
    },
    {
      "midi": 64,
      "hit": false,
      "t": 73354.20334374988,
      "d": 1305.5562083333352,
      "v": 49
    },
    {
      "midi": 65,
      "hit": false,
      "t": 74659.75955208321,
      "d": 6.94444791667047,
      "v": 49
    },
    {
      "midi": 57,
      "hit": false,
      "t": 74659.75955208321,
      "d": 13.88889583334094,
      "v": 49
    },
    {
      "midi": 41,
      "hit": false,
      "t": 74666.70399999988,
      "d": 1333.334000000017,
      "v": 47
    },
    {
      "midi": 65,
      "hit": false,
      "t": 75340.31544791655,
      "d": 652.7781041666749,
      "v": 48
    },
    {
      "midi": 57,
      "hit": false,
      "t": 75347.25989583322,
      "d": 645.8336562500044,
      "v": 48
    },
    {
      "midi": 60,
      "hit": false,
      "t": 75347.25989583322,
      "d": 645.8336562500044,
      "v": 48
    },
    {
      "midi": 60,
      "hit": false,
      "t": 76006.98244791657,
      "d": 597.2225208333402,
      "v": 43
    },
    {
      "midi": 57,
      "hit": false,
      "t": 76013.92689583324,
      "d": 652.7781041666749,
      "v": 43
    },
    {
      "midi": 65,
      "hit": false,
      "t": 76013.92689583324,
      "d": 652.7781041666749,
      "v": 43
    },
    {
      "midi": 62,
      "hit": false,
      "t": 76604.20496874991,
      "d": 55.55558333333465,
      "v": 43
    },
    {
      "midi": 50,
      "hit": false,
      "t": 76666.70499999991,
      "d": 1333.333999999988,
      "v": 47
    },
    {
      "midi": 62,
      "hit": false,
      "t": 77347.26089583324,
      "d": 1319.445104166647,
      "v": 49
    },
    {
      "midi": 57,
      "hit": false,
      "t": 77347.26089583324,
      "d": 1326.3895520833175,
      "v": 49
    },
    {
      "midi": 65,
      "hit": false,
      "t": 77347.26089583324,
      "d": 1326.3895520833175,
      "v": 49
    },
    {
      "midi": 50,
      "hit": false,
      "t": 78333.3724999999,
      "d": 319.444604166667,
      "v": 47
    },
    {
      "midi": 50,
      "hit": false,
      "t": 78666.70599999989,
      "d": 6.94444791667047,
      "v": 47
    },
    {
      "midi": 40,
      "hit": false,
      "t": 78673.65044791656,
      "d": 1326.3895520833466,
      "v": 47
    },
    {
      "midi": 64,
      "hit": false,
      "t": 79347.26189583323,
      "d": 652.7781041666749,
      "v": 48
    },
    {
      "midi": 56,
      "hit": false,
      "t": 79354.2063437499,
      "d": 645.8336562500044,
      "v": 48
    },
    {
      "midi": 59,
      "hit": false,
      "t": 79354.2063437499,
      "d": 645.8336562500044,
      "v": 48
    },
    {
      "midi": 56,
      "hit": false,
      "t": 80013.92889583323,
      "d": 638.889208333334,
      "v": 43
    },
    {
      "midi": 59,
      "hit": false,
      "t": 80013.92889583323,
      "d": 638.889208333334,
      "v": 43
    },
    {
      "midi": 64,
      "hit": false,
      "t": 80013.92889583323,
      "d": 638.889208333334,
      "v": 43
    },
    {
      "midi": 40,
      "hit": false,
      "t": 80666.7069999999,
      "d": 48.61113541666418,
      "v": 47
    },
    {
      "midi": 45,
      "hit": false,
      "t": 80715.31813541656,
      "d": 1284.7228645833384,
      "v": 47
    },
    {
      "midi": 60,
      "hit": false,
      "t": 81347.26289583322,
      "d": 1319.4451041666762,
      "v": 49
    },
    {
      "midi": 57,
      "hit": false,
      "t": 81347.26289583322,
      "d": 1326.3895520833466,
      "v": 49
    },
    {
      "midi": 64,
      "hit": false,
      "t": 81354.20734374989,
      "d": 1312.5006562500057,
      "v": 49
    },
    {
      "midi": 45,
      "hit": false,
      "t": 82666.7079999999,
      "d": 1333.334000000017,
      "v": 47
    },
    {
      "midi": 64,
      "hit": false,
      "t": 83340.31944791657,
      "d": 652.7781041666749,
      "v": 48
    },
    {
      "midi": 57,
      "hit": false,
      "t": 83347.26389583324,
      "d": 645.8336562500044,
      "v": 48
    },
    {
      "midi": 60,
      "hit": false,
      "t": 83347.26389583324,
      "d": 645.8336562500044,
      "v": 48
    },
    {
      "midi": 60,
      "hit": false,
      "t": 84006.98644791658,
      "d": 576.3891770833434,
      "v": 43
    },
    {
      "midi": 64,
      "hit": false,
      "t": 84013.93089583325,
      "d": 569.4447291666729,
      "v": 43
    },
    {
      "midi": 57,
      "hit": false,
      "t": 84013.93089583325,
      "d": 652.7781041666749,
      "v": 43
    },
    {
      "midi": 62,
      "hit": false,
      "t": 84583.37562499993,
      "d": 76.38892708333151,
      "v": 43
    },
    {
      "midi": 65,
      "hit": false,
      "t": 84583.37562499993,
      "d": 83.33337500000198,
      "v": 43
    },
    {
      "midi": 50,
      "hit": false,
      "t": 84666.70899999993,
      "d": 1333.333999999988,
      "v": 47
    },
    {
      "midi": 57,
      "hit": false,
      "t": 85347.26489583326,
      "d": 1305.5562083333207,
      "v": 49
    },
    {
      "midi": 62,
      "hit": false,
      "t": 85347.26489583326,
      "d": 1305.5562083333207,
      "v": 49
    },
    {
      "midi": 65,
      "hit": false,
      "t": 85347.26489583326,
      "d": 1305.5562083333207,
      "v": 49
    },
    {
      "midi": 50,
      "hit": false,
      "t": 86333.37649999991,
      "d": 319.444604166667,
      "v": 47
    },
    {
      "midi": 59,
      "hit": false,
      "t": 86652.82110416658,
      "d": 13.888895833326387,
      "v": 49
    },
    {
      "midi": 55,
      "hit": false,
      "t": 86652.82110416658,
      "d": 20.833343749996857,
      "v": 49
    },
    {
      "midi": 62,
      "hit": false,
      "t": 86652.82110416658,
      "d": 20.833343749996857,
      "v": 49
    },
    {
      "midi": 43,
      "hit": false,
      "t": 86666.7099999999,
      "d": 1333.334000000017,
      "v": 47
    },
    {
      "midi": 62,
      "hit": false,
      "t": 87347.26589583325,
      "d": 652.7781041666749,
      "v": 48
    },
    {
      "midi": 55,
      "hit": false,
      "t": 87354.21034374992,
      "d": 645.8336562500044,
      "v": 48
    },
    {
      "midi": 59,
      "hit": false,
      "t": 87354.21034374992,
      "d": 645.8336562500044,
      "v": 48
    },
    {
      "midi": 59,
      "hit": false,
      "t": 88013.93289583325,
      "d": 534.7224895833351,
      "v": 43
    },
    {
      "midi": 62,
      "hit": false,
      "t": 88013.93289583325,
      "d": 534.7224895833351,
      "v": 43
    },
    {
      "midi": 55,
      "hit": false,
      "t": 88013.93289583325,
      "d": 638.889208333334,
      "v": 43
    },
    {
      "midi": 60,
      "hit": false,
      "t": 88548.65538541658,
      "d": 104.16671874999884,
      "v": 43
    },
    {
      "midi": 64,
      "hit": false,
      "t": 88548.65538541658,
      "d": 104.16671874999884,
      "v": 43
    },
    {
      "midi": 48,
      "hit": false,
      "t": 88666.71099999991,
      "d": 1333.3340000000026,
      "v": 47
    },
    {
      "midi": 55,
      "hit": false,
      "t": 89347.26689583324,
      "d": 1291.6673125000088,
      "v": 49
    },
    {
      "midi": 60,
      "hit": false,
      "t": 89347.26689583324,
      "d": 1319.4451041666762,
      "v": 49
    },
    {
      "midi": 64,
      "hit": false,
      "t": 89354.2113437499,
      "d": 1284.7228645833384,
      "v": 49
    },
    {
      "midi": 65,
      "hit": false,
      "t": 90638.93420833324,
      "d": 27.777791666667326,
      "v": 49
    },
    {
      "midi": 57,
      "hit": false,
      "t": 90638.93420833324,
      "d": 34.722239583337796,
      "v": 49
    },
    {
      "midi": 41,
      "hit": false,
      "t": 90666.71199999991,
      "d": 1333.334000000017,
      "v": 47
    },
    {
      "midi": 65,
      "hit": false,
      "t": 91340.32344791658,
      "d": 652.7781041666749,
      "v": 48
    },
    {
      "midi": 57,
      "hit": false,
      "t": 91347.26789583325,
      "d": 645.8336562500044,
      "v": 48
    },
    {
      "midi": 60,
      "hit": false,
      "t": 91347.26789583325,
      "d": 645.8336562500044,
      "v": 48
    },
    {
      "midi": 60,
      "hit": false,
      "t": 92006.9904479166,
      "d": 604.1669687500107,
      "v": 43
    },
    {
      "midi": 57,
      "hit": false,
      "t": 92013.93489583327,
      "d": 652.7781041666749,
      "v": 43
    },
    {
      "midi": 65,
      "hit": false,
      "t": 92013.93489583327,
      "d": 652.7781041666749,
      "v": 43
    },
    {
      "midi": 62,
      "hit": false,
      "t": 92611.15741666661,
      "d": 48.61113541666418,
      "v": 43
    },
    {
      "midi": 50,
      "hit": false,
      "t": 92666.71299999995,
      "d": 1333.333999999988,
      "v": 47
    },
    {
      "midi": 57,
      "hit": false,
      "t": 93347.26889583327,
      "d": 1215.2783854166482,
      "v": 49
    },
    {
      "midi": 62,
      "hit": false,
      "t": 93347.26889583327,
      "d": 1215.2783854166482,
      "v": 49
    },
    {
      "midi": 65,
      "hit": false,
      "t": 93347.26889583327,
      "d": 1215.2783854166482,
      "v": 49
    },
    {
      "midi": 50,
      "hit": false,
      "t": 94333.38049999993,
      "d": 229.16678124999453,
      "v": 47
    },
    {
      "midi": 44,
      "hit": false,
      "t": 94562.54728124992,
      "d": 41.666687499993714,
      "v": 47
    },
    {
      "midi": 63,
      "hit": false,
      "t": 94562.54728124992,
      "d": 41.666687499993714,
      "v": 49
    },
    {
      "midi": 59,
      "hit": false,
      "t": 94562.54728124992,
      "d": 104.16671874998428,
      "v": 49
    },
    {
      "midi": 56,
      "hit": false,
      "t": 94562.54728124992,
      "d": 111.11116666665475,
      "v": 49
    },
    {
      "midi": 40,
      "hit": false,
      "t": 94604.21396874991,
      "d": 48.61113541666418,
      "v": 47
    },
    {
      "midi": 64,
      "hit": false,
      "t": 94604.21396874991,
      "d": 69.44447916666104,
      "v": 49
    },
    {
      "midi": 40,
      "hit": false,
      "t": 94666.7139999999,
      "d": 1333.334000000017,
      "v": 47
    },
    {
      "midi": 64,
      "hit": false,
      "t": 95347.26989583325,
      "d": 652.7781041666749,
      "v": 48
    },
    {
      "midi": 56,
      "hit": false,
      "t": 95354.21434374992,
      "d": 645.8336562500044,
      "v": 48
    },
    {
      "midi": 59,
      "hit": false,
      "t": 95354.21434374992,
      "d": 645.8336562500044,
      "v": 48
    },
    {
      "midi": 56,
      "hit": false,
      "t": 96013.93689583325,
      "d": 590.2780729166698,
      "v": 43
    },
    {
      "midi": 59,
      "hit": false,
      "t": 96013.93689583325,
      "d": 590.2780729166698,
      "v": 43
    },
    {
      "midi": 64,
      "hit": false,
      "t": 96013.93689583325,
      "d": 638.889208333334,
      "v": 43
    },
    {
      "midi": 55,
      "hit": false,
      "t": 96604.21496874992,
      "d": 20.833343749996857,
      "v": 43
    },
    {
      "midi": 60,
      "hit": false,
      "t": 96604.21496874992,
      "d": 48.61113541666418,
      "v": 43
    },
    {
      "midi": 57,
      "hit": false,
      "t": 96625.04831249992,
      "d": 27.777791666667326,
      "v": 43
    },
    {
      "midi": 45,
      "hit": false,
      "t": 96666.71499999991,
      "d": 1333.3340000000026,
      "v": 47
    },
    {
      "midi": 60,
      "hit": false,
      "t": 97347.27089583324,
      "d": 1298.6117604166793,
      "v": 49
    },
    {
      "midi": 64,
      "hit": false,
      "t": 97354.21534374991,
      "d": 1312.5006562500057,
      "v": 49
    },
    {
      "midi": 57,
      "hit": false,
      "t": 98645.88265624992,
      "d": 20.833343749996857,
      "v": 49
    },
    {
      "midi": 45,
      "hit": false,
      "t": 98666.71599999991,
      "d": 1333.334000000017,
      "v": 47
    },
    {
      "midi": 64,
      "hit": false,
      "t": 99340.32744791658,
      "d": 652.7781041666749,
      "v": 48
    },
    {
      "midi": 57,
      "hit": false,
      "t": 99347.27189583326,
      "d": 645.8336562500044,
      "v": 48
    },
    {
      "midi": 61,
      "hit": false,
      "t": 99347.27189583326,
      "d": 645.8336562500044,
      "v": 48
    },
    {
      "midi": 61,
      "hit": false,
      "t": 100006.9944479166,
      "d": 604.1669687500107,
      "v": 43
    },
    {
      "midi": 64,
      "hit": false,
      "t": 100013.93889583327,
      "d": 597.2225208333402,
      "v": 43
    },
    {
      "midi": 57,
      "hit": false,
      "t": 100013.93889583327,
      "d": 652.7781041666749,
      "v": 43
    },
    {
      "midi": 60,
      "hit": false,
      "t": 100611.16141666661,
      "d": 20.833343749996857,
      "v": 43
    },
    {
      "midi": 65,
      "hit": false,
      "t": 100611.16141666661,
      "d": 55.55558333333465,
      "v": 43
    },
    {
      "midi": 62,
      "hit": false,
      "t": 100631.99476041661,
      "d": 27.777791666667326,
      "v": 43
    },
    {
      "midi": 50,
      "hit": false,
      "t": 100666.71699999995,
      "d": 1333.333999999988,
      "v": 47
    },
    {
      "midi": 57,
      "hit": false,
      "t": 101347.27289583327,
      "d": 1145.8339062499872,
      "v": 49
    },
    {
      "midi": 62,
      "hit": false,
      "t": 101347.27289583327,
      "d": 1145.8339062499872,
      "v": 49
    },
    {
      "midi": 65,
      "hit": false,
      "t": 101347.27289583327,
      "d": 1145.8339062499872,
      "v": 49
    },
    {
      "midi": 50,
      "hit": false,
      "t": 102333.38449999993,
      "d": 159.7223020833335,
      "v": 47
    },
    {
      "midi": 43,
      "hit": false,
      "t": 102493.10680208326,
      "d": 159.7223020833335,
      "v": 47
    },
    {
      "midi": 59,
      "hit": false,
      "t": 102493.10680208326,
      "d": 173.61119791665988,
      "v": 49
    },
    {
      "midi": 55,
      "hit": false,
      "t": 102493.10680208326,
      "d": 180.55564583333035,
      "v": 49
    },
    {
      "midi": 62,
      "hit": false,
      "t": 102493.10680208326,
      "d": 180.55564583333035,
      "v": 49
    },
    {
      "midi": 43,
      "hit": false,
      "t": 102666.71799999992,
      "d": 1333.334000000017,
      "v": 47
    },
    {
      "midi": 62,
      "hit": false,
      "t": 103347.27389583326,
      "d": 652.7781041666749,
      "v": 48
    },
    {
      "midi": 55,
      "hit": false,
      "t": 103354.21834374993,
      "d": 645.8336562500044,
      "v": 48
    },
    {
      "midi": 59,
      "hit": false,
      "t": 103354.21834374993,
      "d": 645.8336562500044,
      "v": 48
    },
    {
      "midi": 59,
      "hit": false,
      "t": 104013.94089583326,
      "d": 569.4447291666729,
      "v": 43
    },
    {
      "midi": 62,
      "hit": false,
      "t": 104013.94089583326,
      "d": 569.4447291666729,
      "v": 43
    },
    {
      "midi": 55,
      "hit": false,
      "t": 104013.94089583326,
      "d": 638.889208333334,
      "v": 43
    },
    {
      "midi": 60,
      "hit": false,
      "t": 104583.38562499994,
      "d": 69.44447916666104,
      "v": 43
    },
    {
      "midi": 64,
      "hit": false,
      "t": 104583.38562499994,
      "d": 69.44447916666104,
      "v": 43
    },
    {
      "midi": 48,
      "hit": false,
      "t": 104666.71899999992,
      "d": 1333.3340000000026,
      "v": 47
    },
    {
      "midi": 60,
      "hit": false,
      "t": 105347.27489583325,
      "d": 1319.4451041666762,
      "v": 49
    },
    {
      "midi": 55,
      "hit": false,
      "t": 105347.27489583325,
      "d": 1326.3895520833466,
      "v": 49
    },
    {
      "midi": 64,
      "hit": false,
      "t": 105354.21934374992,
      "d": 1312.5006562500057,
      "v": 49
    },
    {
      "midi": 48,
      "hit": false,
      "t": 106666.71999999993,
      "d": 1333.334000000017,
      "v": 47
    },
    {
      "midi": 64,
      "hit": false,
      "t": 107340.3314479166,
      "d": 652.7781041666749,
      "v": 48
    },
    {
      "midi": 55,
      "hit": false,
      "t": 107347.27589583327,
      "d": 645.8336562500044,
      "v": 48
    },
    {
      "midi": 60,
      "hit": false,
      "t": 107347.27589583327,
      "d": 645.8336562500044,
      "v": 48
    },
    {
      "midi": 60,
      "hit": false,
      "t": 108006.99844791662,
      "d": 652.7781041666749,
      "v": 43
    },
    {
      "midi": 55,
      "hit": false,
      "t": 108013.94289583329,
      "d": 534.7224895833351,
      "v": 43
    },
    {
      "midi": 64,
      "hit": false,
      "t": 108013.94289583329,
      "d": 534.7224895833351,
      "v": 43
    },
    {
      "midi": 57,
      "hit": false,
      "t": 108548.66538541662,
      "d": 118.05561458333977,
      "v": 43
    },
    {
      "midi": 65,
      "hit": false,
      "t": 108548.66538541662,
      "d": 118.05561458333977,
      "v": 43
    },
    {
      "midi": 41,
      "hit": false,
      "t": 108666.72099999996,
      "d": 1333.333999999988,
      "v": 47
    },
    {
      "midi": 57,
      "hit": false,
      "t": 109347.27689583329,
      "d": 1187.500593749981,
      "v": 49
    },
    {
      "midi": 60,
      "hit": false,
      "t": 109347.27689583329,
      "d": 1187.500593749981,
      "v": 49
    },
    {
      "midi": 65,
      "hit": false,
      "t": 109347.27689583329,
      "d": 1187.500593749981,
      "v": 49
    },
    {
      "midi": 41,
      "hit": false,
      "t": 110333.38849999994,
      "d": 201.3889895833272,
      "v": 47
    },
    {
      "midi": 47,
      "hit": false,
      "t": 110534.77748958327,
      "d": 118.05561458333977,
      "v": 47
    },
    {
      "midi": 59,
      "hit": false,
      "t": 110534.77748958327,
      "d": 131.94451041666616,
      "v": 49
    },
    {
      "midi": 54,
      "hit": false,
      "t": 110534.77748958327,
      "d": 138.88895833333663,
      "v": 49
    },
    {
      "midi": 63,
      "hit": false,
      "t": 110534.77748958327,
      "d": 138.88895833333663,
      "v": 49
    },
    {
      "midi": 47,
      "hit": false,
      "t": 110666.72199999994,
      "d": 1333.334000000017,
      "v": 47
    },
    {
      "midi": 63,
      "hit": false,
      "t": 111347.27789583328,
      "d": 652.7781041666749,
      "v": 48
    },
    {
      "midi": 54,
      "hit": false,
      "t": 111354.22234374995,
      "d": 645.8336562500044,
      "v": 48
    },
    {
      "midi": 59,
      "hit": false,
      "t": 111354.22234374995,
      "d": 645.8336562500044,
      "v": 48
    },
    {
      "midi": 54,
      "hit": false,
      "t": 112013.94489583328,
      "d": 576.3891770833288,
      "v": 43
    },
    {
      "midi": 59,
      "hit": false,
      "t": 112013.94489583328,
      "d": 576.3891770833288,
      "v": 43
    },
    {
      "midi": 63,
      "hit": false,
      "t": 112013.94489583328,
      "d": 576.3891770833288,
      "v": 43
    },
    {
      "midi": 56,
      "hit": false,
      "t": 112590.33407291661,
      "d": 62.50003125000512,
      "v": 43
    },
    {
      "midi": 59,
      "hit": false,
      "t": 112590.33407291661,
      "d": 62.50003125000512,
      "v": 43
    },
    {
      "midi": 64,
      "hit": false,
      "t": 112590.33407291661,
      "d": 62.50003125000512,
      "v": 43
    },
    {
      "midi": 40,
      "hit": false,
      "t": 112666.72299999994,
      "d": 1333.3340000000026,
      "v": 47
    },
    {
      "midi": 56,
      "hit": false,
      "t": 113347.27889583327,
      "d": 1222.2228333333478,
      "v": 49
    },
    {
      "midi": 59,
      "hit": false,
      "t": 113347.27889583327,
      "d": 1222.2228333333478,
      "v": 49
    },
    {
      "midi": 64,
      "hit": false,
      "t": 113354.22334374994,
      "d": 1312.5006562500057,
      "v": 49
    },
    {
      "midi": 60,
      "hit": false,
      "t": 114569.50172916662,
      "d": 97.22227083332837,
      "v": 49
    },
    {
      "midi": 57,
      "hit": false,
      "t": 114569.50172916662,
      "d": 104.16671874999884,
      "v": 49
    },
    {
      "midi": 45,
      "hit": false,
      "t": 114666.72399999994,
      "d": 1333.334000000017,
      "v": 47
    },
    {
      "midi": 64,
      "hit": false,
      "t": 115340.33544791662,
      "d": 652.7781041666749,
      "v": 48
    },
    {
      "midi": 57,
      "hit": false,
      "t": 115347.27989583329,
      "d": 645.8336562500044,
      "v": 48
    },
    {
      "midi": 60,
      "hit": false,
      "t": 115347.27989583329,
      "d": 645.8336562500044,
      "v": 48
    },
    {
      "midi": 60,
      "hit": false,
      "t": 116007.00244791663,
      "d": 652.7781041666749,
      "v": 43
    },
    {
      "midi": 57,
      "hit": false,
      "t": 116013.9468958333,
      "d": 652.7781041666749,
      "v": 43
    },
    {
      "midi": 64,
      "hit": false,
      "t": 116013.9468958333,
      "d": 652.7781041666749,
      "v": 43
    },
    {
      "midi": 50,
      "hit": false,
      "t": 116666.72499999998,
      "d": 1333.333999999988,
      "v": 47
    },
    {
      "midi": 57,
      "hit": false,
      "t": 117347.2808958333,
      "d": 1222.2228333333187,
      "v": 49
    },
    {
      "midi": 62,
      "hit": false,
      "t": 117347.2808958333,
      "d": 1222.2228333333187,
      "v": 49
    },
    {
      "midi": 65,
      "hit": false,
      "t": 117347.2808958333,
      "d": 1222.2228333333187,
      "v": 49
    },
    {
      "midi": 50,
      "hit": false,
      "t": 118333.39249999996,
      "d": 236.111229166665,
      "v": 47
    },
    {
      "midi": 43,
      "hit": false,
      "t": 118569.50372916662,
      "d": 83.33337500000198,
      "v": 47
    },
    {
      "midi": 59,
      "hit": false,
      "t": 118569.50372916662,
      "d": 97.22227083332837,
      "v": 49
    },
    {
      "midi": 55,
      "hit": false,
      "t": 118569.50372916662,
      "d": 104.16671874999884,
      "v": 49
    },
    {
      "midi": 62,
      "hit": false,
      "t": 118569.50372916662,
      "d": 104.16671874999884,
      "v": 49
    },
    {
      "midi": 43,
      "hit": false,
      "t": 118666.72599999995,
      "d": 1333.334000000017,
      "v": 47
    },
    {
      "midi": 62,
      "hit": false,
      "t": 119347.2818958333,
      "d": 652.7781041666749,
      "v": 48
    },
    {
      "midi": 55,
      "hit": false,
      "t": 119354.22634374996,
      "d": 645.8336562500044,
      "v": 48
    },
    {
      "midi": 59,
      "hit": false,
      "t": 119354.22634374996,
      "d": 645.8336562500044,
      "v": 48
    },
    {
      "midi": 55,
      "hit": false,
      "t": 120013.9488958333,
      "d": 534.7224895833351,
      "v": 43
    },
    {
      "midi": 59,
      "hit": false,
      "t": 120013.9488958333,
      "d": 534.7224895833351,
      "v": 43
    },
    {
      "midi": 62,
      "hit": false,
      "t": 120013.9488958333,
      "d": 534.7224895833351,
      "v": 43
    },
    {
      "midi": 57,
      "hit": false,
      "t": 120548.67138541663,
      "d": 48.61113541666418,
      "v": 43
    },
    {
      "midi": 60,
      "hit": false,
      "t": 120548.67138541663,
      "d": 48.61113541666418,
      "v": 43
    },
    {
      "midi": 66,
      "hit": false,
      "t": 120548.67138541663,
      "d": 48.61113541666418,
      "v": 43
    },
    {
      "midi": 55,
      "hit": false,
      "t": 120597.2825208333,
      "d": 55.55558333333465,
      "v": 43
    },
    {
      "midi": 62,
      "hit": false,
      "t": 120597.2825208333,
      "d": 55.55558333333465,
      "v": 43
    },
    {
      "midi": 64,
      "hit": false,
      "t": 120597.2825208333,
      "d": 55.55558333333465,
      "v": 43
    },
    {
      "midi": 48,
      "hit": false,
      "t": 120666.72699999996,
      "d": 1333.3340000000026,
      "v": 47
    },
    {
      "midi": 55,
      "hit": false,
      "t": 121347.28289583328,
      "d": 1284.7228645833384,
      "v": 49
    },
    {
      "midi": 62,
      "hit": false,
      "t": 121347.28289583328,
      "d": 1284.7228645833384,
      "v": 49
    },
    {
      "midi": 64,
      "hit": false,
      "t": 121354.22734374995,
      "d": 1277.778416666668,
      "v": 49
    },
    {
      "midi": 60,
      "hit": false,
      "t": 122632.00576041662,
      "d": 34.722239583337796,
      "v": 49
    },
    {
      "midi": 65,
      "hit": false,
      "t": 122632.00576041662,
      "d": 34.722239583337796,
      "v": 49
    },
    {
      "midi": 57,
      "hit": false,
      "t": 122632.00576041662,
      "d": 41.666687500008265,
      "v": 49
    },
    {
      "midi": 41,
      "hit": false,
      "t": 122666.72799999996,
      "d": 1333.334000000017,
      "v": 47
    },
    {
      "midi": 65,
      "hit": false,
      "t": 123340.33944791663,
      "d": 652.7781041666749,
      "v": 48
    },
    {
      "midi": 57,
      "hit": false,
      "t": 123347.2838958333,
      "d": 645.8336562500044,
      "v": 48
    },
    {
      "midi": 60,
      "hit": false,
      "t": 123347.2838958333,
      "d": 645.8336562500044,
      "v": 48
    },
    {
      "midi": 60,
      "hit": false,
      "t": 124007.00644791665,
      "d": 597.2225208333402,
      "v": 43
    },
    {
      "midi": 57,
      "hit": false,
      "t": 124013.95089583332,
      "d": 652.7781041666749,
      "v": 43
    },
    {
      "midi": 65,
      "hit": false,
      "t": 124013.95089583332,
      "d": 652.7781041666749,
      "v": 43
    },
    {
      "midi": 62,
      "hit": false,
      "t": 124604.22896874999,
      "d": 55.55558333333465,
      "v": 43
    },
    {
      "midi": 50,
      "hit": false,
      "t": 124666.72899999999,
      "d": 1333.333999999988,
      "v": 47
    },
    {
      "midi": 57,
      "hit": false,
      "t": 125347.28489583332,
      "d": 1284.7228645833238,
      "v": 49
    },
    {
      "midi": 62,
      "hit": false,
      "t": 125347.28489583332,
      "d": 1284.7228645833238,
      "v": 49
    },
    {
      "midi": 65,
      "hit": false,
      "t": 125347.28489583332,
      "d": 1284.7228645833238,
      "v": 49
    },
    {
      "midi": 50,
      "hit": false,
      "t": 126333.39649999997,
      "d": 298.6112604166701,
      "v": 47
    },
    {
      "midi": 44,
      "hit": false,
      "t": 126632.00776041664,
      "d": 20.833343749996857,
      "v": 47
    },
    {
      "midi": 59,
      "hit": false,
      "t": 126632.00776041664,
      "d": 34.722239583323244,
      "v": 49
    },
    {
      "midi": 63,
      "hit": false,
      "t": 126632.00776041664,
      "d": 34.722239583323244,
      "v": 49
    },
    {
      "midi": 56,
      "hit": false,
      "t": 126632.00776041664,
      "d": 41.666687499993714,
      "v": 49
    },
    {
      "midi": 64,
      "hit": false,
      "t": 126666.72999999997,
      "d": 6.94444791667047,
      "v": 49
    },
    {
      "midi": 40,
      "hit": false,
      "t": 126666.72999999997,
      "d": 1333.334000000017,
      "v": 47
    },
    {
      "midi": 64,
      "hit": false,
      "t": 127347.28589583331,
      "d": 652.7781041666749,
      "v": 48
    },
    {
      "midi": 56,
      "hit": false,
      "t": 127354.23034374998,
      "d": 645.8336562500044,
      "v": 48
    },
    {
      "midi": 59,
      "hit": false,
      "t": 127354.23034374998,
      "d": 645.8336562500044,
      "v": 48
    },
    {
      "midi": 56,
      "hit": false,
      "t": 128013.95289583331,
      "d": 597.2225208333402,
      "v": 43
    },
    {
      "midi": 59,
      "hit": false,
      "t": 128013.95289583331,
      "d": 597.2225208333402,
      "v": 43
    },
    {
      "midi": 64,
      "hit": false,
      "t": 128013.95289583331,
      "d": 638.889208333334,
      "v": 43
    },
    {
      "midi": 57,
      "hit": false,
      "t": 128611.17541666665,
      "d": 41.666687499993714,
      "v": 43
    },
    {
      "midi": 60,
      "hit": false,
      "t": 128611.17541666665,
      "d": 41.666687499993714,
      "v": 43
    },
    {
      "midi": 45,
      "hit": false,
      "t": 128666.73099999997,
      "d": 1333.3340000000026,
      "v": 47
    },
    {
      "midi": 60,
      "hit": false,
      "t": 129347.2868958333,
      "d": 1319.4451041666762,
      "v": 49
    },
    {
      "midi": 57,
      "hit": false,
      "t": 129347.2868958333,
      "d": 1326.3895520833466,
      "v": 49
    },
    {
      "midi": 64,
      "hit": false,
      "t": 129354.23134374997,
      "d": 1312.5006562500057,
      "v": 49
    },
    {
      "midi": 45,
      "hit": false,
      "t": 130666.73199999997,
      "d": 1333.334000000017,
      "v": 47
    },
    {
      "midi": 64,
      "hit": false,
      "t": 131340.34344791665,
      "d": 652.7781041666749,
      "v": 48
    },
    {
      "midi": 57,
      "hit": false,
      "t": 131347.28789583332,
      "d": 645.8336562500044,
      "v": 48
    },
    {
      "midi": 60,
      "hit": false,
      "t": 131347.28789583332,
      "d": 645.8336562500044,
      "v": 48
    },
    {
      "midi": 60,
      "hit": false,
      "t": 132007.01044791666,
      "d": 569.4447291666584,
      "v": 43
    },
    {
      "midi": 64,
      "hit": false,
      "t": 132013.95489583333,
      "d": 562.5002812499879,
      "v": 43
    },
    {
      "midi": 57,
      "hit": false,
      "t": 132013.95489583333,
      "d": 652.7781041666458,
      "v": 43
    },
    {
      "midi": 62,
      "hit": false,
      "t": 132576.45517708332,
      "d": 83.33337499998743,
      "v": 43
    },
    {
      "midi": 65,
      "hit": false,
      "t": 132576.45517708332,
      "d": 90.2778229166579,
      "v": 43
    },
    {
      "midi": 50,
      "hit": false,
      "t": 132666.73299999998,
      "d": 1333.3340000000026,
      "v": 47
    },
    {
      "midi": 57,
      "hit": false,
      "t": 133347.2888958333,
      "d": 1229.1672812500037,
      "v": 49
    },
    {
      "midi": 62,
      "hit": false,
      "t": 133347.2888958333,
      "d": 1229.1672812500037,
      "v": 49
    },
    {
      "midi": 65,
      "hit": false,
      "t": 133347.2888958333,
      "d": 1229.1672812500037,
      "v": 49
    },
    {
      "midi": 50,
      "hit": false,
      "t": 134333.4005,
      "d": 243.05567708332092,
      "v": 47
    },
    {
      "midi": 43,
      "hit": false,
      "t": 134576.4561770833,
      "d": 76.38892708334606,
      "v": 47
    },
    {
      "midi": 59,
      "hit": false,
      "t": 134576.4561770833,
      "d": 90.277822916687,
      "v": 49
    },
    {
      "midi": 55,
      "hit": false,
      "t": 134576.4561770833,
      "d": 97.22227083335747,
      "v": 49
    },
    {
      "midi": 62,
      "hit": false,
      "t": 134576.4561770833,
      "d": 97.22227083335747,
      "v": 49
    },
    {
      "midi": 43,
      "hit": false,
      "t": 134666.734,
      "d": 1333.3340000000026,
      "v": 47
    },
    {
      "midi": 62,
      "hit": false,
      "t": 135347.28989583332,
      "d": 652.7781041666749,
      "v": 48
    },
    {
      "midi": 55,
      "hit": false,
      "t": 135354.23434375,
      "d": 645.8336562500044,
      "v": 48
    },
    {
      "midi": 59,
      "hit": false,
      "t": 135354.23434375,
      "d": 645.8336562500044,
      "v": 48
    },
    {
      "midi": 59,
      "hit": false,
      "t": 136013.95689583334,
      "d": 541.6669375000056,
      "v": 43
    },
    {
      "midi": 62,
      "hit": false,
      "t": 136013.95689583334,
      "d": 541.6669375000056,
      "v": 43
    },
    {
      "midi": 55,
      "hit": false,
      "t": 136013.95689583334,
      "d": 638.889208333334,
      "v": 43
    },
    {
      "midi": 60,
      "hit": false,
      "t": 136555.62383333335,
      "d": 97.22227083332837,
      "v": 43
    },
    {
      "midi": 64,
      "hit": false,
      "t": 136555.62383333335,
      "d": 97.22227083332837,
      "v": 43
    },
    {
      "midi": 48,
      "hit": false,
      "t": 136666.73500000002,
      "d": 1333.3340000000026,
      "v": 47
    },
    {
      "midi": 55,
      "hit": false,
      "t": 137347.29089583334,
      "d": 1291.6673125000088,
      "v": 49
    },
    {
      "midi": 60,
      "hit": false,
      "t": 137347.29089583334,
      "d": 1319.4451041666616,
      "v": 49
    },
    {
      "midi": 64,
      "hit": false,
      "t": 137354.23534375,
      "d": 1284.7228645833384,
      "v": 49
    },
    {
      "midi": 65,
      "hit": false,
      "t": 138638.95820833335,
      "d": 27.777791666652774,
      "v": 49
    },
    {
      "midi": 57,
      "hit": false,
      "t": 138638.95820833335,
      "d": 34.722239583323244,
      "v": 49
    },
    {
      "midi": 41,
      "hit": false,
      "t": 138666.736,
      "d": 1333.3340000000026,
      "v": 47
    },
    {
      "midi": 65,
      "hit": false,
      "t": 139340.34744791666,
      "d": 652.7781041666749,
      "v": 48
    },
    {
      "midi": 57,
      "hit": false,
      "t": 139347.29189583333,
      "d": 645.8336562500044,
      "v": 48
    },
    {
      "midi": 60,
      "hit": false,
      "t": 139347.29189583333,
      "d": 645.8336562500044,
      "v": 48
    },
    {
      "midi": 60,
      "hit": false,
      "t": 140007.01444791668,
      "d": 625.000312499993,
      "v": 43
    },
    {
      "midi": 57,
      "hit": false,
      "t": 140013.95889583335,
      "d": 652.7781041666458,
      "v": 43
    },
    {
      "midi": 65,
      "hit": false,
      "t": 140013.95889583335,
      "d": 652.7781041666458,
      "v": 43
    },
    {
      "midi": 62,
      "hit": false,
      "t": 140632.01476041667,
      "d": 27.777791666652774,
      "v": 43
    },
    {
      "midi": 50,
      "hit": false,
      "t": 140666.737,
      "d": 1333.3340000000026,
      "v": 47
    },
    {
      "midi": 57,
      "hit": false,
      "t": 141347.29289583332,
      "d": 1194.4450416666805,
      "v": 49
    },
    {
      "midi": 62,
      "hit": false,
      "t": 141347.29289583332,
      "d": 1194.4450416666805,
      "v": 49
    },
    {
      "midi": 65,
      "hit": false,
      "t": 141347.29289583332,
      "d": 1194.4450416666805,
      "v": 49
    },
    {
      "midi": 50,
      "hit": false,
      "t": 142333.4045,
      "d": 208.33343749999767,
      "v": 47
    },
    {
      "midi": 40,
      "hit": false,
      "t": 142541.7379375,
      "d": 111.1111666666693,
      "v": 47
    },
    {
      "midi": 59,
      "hit": false,
      "t": 142541.7379375,
      "d": 125.00006250001024,
      "v": 49
    },
    {
      "midi": 56,
      "hit": false,
      "t": 142541.7379375,
      "d": 131.9445104166807,
      "v": 49
    },
    {
      "midi": 64,
      "hit": false,
      "t": 142541.7379375,
      "d": 131.9445104166807,
      "v": 49
    },
    {
      "midi": 40,
      "hit": false,
      "t": 142666.738,
      "d": 1333.3340000000026,
      "v": 47
    },
    {
      "midi": 64,
      "hit": false,
      "t": 143347.29389583334,
      "d": 652.7781041666749,
      "v": 48
    },
    {
      "midi": 56,
      "hit": false,
      "t": 143354.23834375,
      "d": 645.8336562500044,
      "v": 48
    },
    {
      "midi": 59,
      "hit": false,
      "t": 143354.23834375,
      "d": 645.8336562500044,
      "v": 48
    },
    {
      "midi": 56,
      "hit": false,
      "t": 144013.96089583336,
      "d": 583.3336249999993,
      "v": 43
    },
    {
      "midi": 59,
      "hit": false,
      "t": 144013.96089583336,
      "d": 583.3336249999993,
      "v": 43
    },
    {
      "midi": 64,
      "hit": false,
      "t": 144013.96089583336,
      "d": 638.889208333334,
      "v": 43
    },
    {
      "midi": 57,
      "hit": false,
      "t": 144597.29452083335,
      "d": 55.55558333333465,
      "v": 43
    },
    {
      "midi": 60,
      "hit": false,
      "t": 144597.29452083335,
      "d": 55.55558333333465,
      "v": 43
    },
    {
      "midi": 45,
      "hit": false,
      "t": 144666.73900000003,
      "d": 1333.3340000000026,
      "v": 47
    },
    {
      "midi": 57,
      "hit": false,
      "t": 145347.29489583336,
      "d": 1256.9450729166856,
      "v": 49
    },
    {
      "midi": 60,
      "hit": false,
      "t": 145347.29489583336,
      "d": 1256.9450729166856,
      "v": 49
    },
    {
      "midi": 64,
      "hit": false,
      "t": 145354.23934375003,
      "d": 1250.0006250000151,
      "v": 49
    },
    {
      "midi": 63,
      "hit": false,
      "t": 146604.23996875004,
      "d": 48.61113541666418,
      "v": 49
    },
    {
      "midi": 59,
      "hit": false,
      "t": 146604.23996875004,
      "d": 62.50003125000512,
      "v": 49
    },
    {
      "midi": 56,
      "hit": false,
      "t": 146604.23996875004,
      "d": 69.44447916667559,
      "v": 49
    },
    {
      "midi": 64,
      "hit": false,
      "t": 146652.8511041667,
      "d": 13.88889583334094,
      "v": 49
    },
    {
      "midi": 40,
      "hit": false,
      "t": 146666.74000000005,
      "d": 1333.3340000000026,
      "v": 47
    },
    {
      "midi": 64,
      "hit": false,
      "t": 147340.3514479167,
      "d": 652.7781041666749,
      "v": 48
    },
    {
      "midi": 56,
      "hit": false,
      "t": 147347.29589583338,
      "d": 645.8336562500044,
      "v": 48
    },
    {
      "midi": 59,
      "hit": false,
      "t": 147347.29589583338,
      "d": 645.8336562500044,
      "v": 48
    },
    {
      "midi": 59,
      "hit": false,
      "t": 148007.01844791672,
      "d": 625.000312499993,
      "v": 43
    },
    {
      "midi": 56,
      "hit": false,
      "t": 148013.9628958334,
      "d": 618.0558645833225,
      "v": 43
    },
    {
      "midi": 64,
      "hit": false,
      "t": 148013.9628958334,
      "d": 652.7781041666458,
      "v": 43
    },
    {
      "midi": 60,
      "hit": false,
      "t": 148632.01876041671,
      "d": 27.777791666652774,
      "v": 43
    },
    {
      "midi": 57,
      "hit": false,
      "t": 148632.01876041671,
      "d": 34.722239583323244,
      "v": 43
    },
    {
      "midi": 45,
      "hit": false,
      "t": 148666.74100000004,
      "d": 1333.3340000000026,
      "v": 47
    },
    {
      "midi": 60,
      "hit": false,
      "t": 149347.29689583337,
      "d": 1319.4451041666907,
      "v": 49
    },
    {
      "midi": 57,
      "hit": false,
      "t": 149347.29689583337,
      "d": 1326.3895520833612,
      "v": 49
    },
    {
      "midi": 64,
      "hit": false,
      "t": 149347.29689583337,
      "d": 1326.3895520833612,
      "v": 49
    },
    {
      "midi": 45,
      "hit": false,
      "t": 150333.40850000005,
      "d": 319.444604166667,
      "v": 47
    },
    {
      "midi": 45,
      "hit": false,
      "t": 150666.74200000006,
      "d": 6.94444791667047,
      "v": 47
    },
    {
      "midi": 40,
      "hit": false,
      "t": 150673.68644791673,
      "d": 1326.389552083332,
      "v": 47
    },
    {
      "midi": 64,
      "hit": false,
      "t": 151347.29789583338,
      "d": 652.7781041666749,
      "v": 48
    },
    {
      "midi": 56,
      "hit": false,
      "t": 151354.24234375005,
      "d": 645.8336562500044,
      "v": 48
    },
    {
      "midi": 59,
      "hit": false,
      "t": 151354.24234375005,
      "d": 645.8336562500044,
      "v": 48
    },
    {
      "midi": 56,
      "hit": false,
      "t": 152013.9648958334,
      "d": 631.9447604166635,
      "v": 43
    },
    {
      "midi": 59,
      "hit": false,
      "t": 152013.9648958334,
      "d": 631.9447604166635,
      "v": 43
    },
    {
      "midi": 64,
      "hit": false,
      "t": 152013.9648958334,
      "d": 638.889208333334,
      "v": 43
    },
    {
      "midi": 57,
      "hit": false,
      "t": 152645.90965625006,
      "d": 6.94444791667047,
      "v": 43
    },
    {
      "midi": 60,
      "hit": false,
      "t": 152645.90965625006,
      "d": 6.94444791667047,
      "v": 43
    },
    {
      "midi": 45,
      "hit": false,
      "t": 152666.74300000007,
      "d": 1333.3340000000026,
      "v": 47
    },
    {
      "midi": 57,
      "hit": false,
      "t": 153347.2988958334,
      "d": 1319.4451041666616,
      "v": 49
    },
    {
      "midi": 60,
      "hit": false,
      "t": 153347.2988958334,
      "d": 1319.4451041666616,
      "v": 49
    },
    {
      "midi": 64,
      "hit": false,
      "t": 153354.24334375007,
      "d": 1312.5006562499912,
      "v": 49
    },
    {
      "midi": 45,
      "hit": false,
      "t": 154666.74400000006,
      "d": 1986.1121041667066,
      "v": 51
    },
    {
      "midi": 60,
      "hit": false,
      "t": 155319.52210416674,
      "d": 673.6114479166863,
      "v": 48
    },
    {
      "midi": 57,
      "hit": false,
      "t": 155333.41100000008,
      "d": 659.7225520833454,
      "v": 34
    },
    {
      "midi": 64,
      "hit": false,
      "t": 155333.41100000008,
      "d": 659.7225520833454,
      "v": 43
    },
    {
      "midi": 57,
      "hit": false,
      "t": 156000.0780000001,
      "d": 659.7225520833454,
      "v": 52
    },
    {
      "midi": 64,
      "hit": false,
      "t": 156000.0780000001,
      "d": 659.7225520833454,
      "v": 64
    },
    {
      "midi": 60,
      "hit": false,
      "t": 156013.96689583344,
      "d": 645.8336562500044,
      "v": 46
    },
    {
      "midi": 53,
      "hit": false,
      "t": 156666.7450000001,
      "d": 673.6114479166572,
      "v": 45
    },
    {
      "midi": 60,
      "hit": false,
      "t": 156680.63389583345,
      "d": 659.7225520833163,
      "v": 50
    },
    {
      "midi": 67,
      "hit": false,
      "t": 156680.63389583345,
      "d": 659.7225520833163,
      "v": 63
    },
    {
      "midi": 64,
      "hit": false,
      "t": 156694.5227916668,
      "d": 645.8336562499753,
      "v": 37
    },
    {
      "midi": 57,
      "hit": false,
      "t": 156722.30058333345,
      "d": 618.0558645833225,
      "v": 36
    },
    {
      "midi": 65,
      "hit": false,
      "t": 157347.30089583344,
      "d": 1312.5006562500203,
      "v": 46
    },
    {
      "midi": 53,
      "hit": false,
      "t": 157361.18979166678,
      "d": 1298.6117604166793,
      "v": 38
    },
    {
      "midi": 60,
      "hit": false,
      "t": 157361.18979166678,
      "d": 1298.6117604166793,
      "v": 39
    },
    {
      "midi": 62,
      "hit": false,
      "t": 157361.18979166678,
      "d": 1298.6117604166793,
      "v": 41
    },
    {
      "midi": 57,
      "hit": false,
      "t": 157375.07868750012,
      "d": 1284.7228645833384,
      "v": 36
    },
    {
      "midi": 57,
      "hit": false,
      "t": 158666.74600000013,
      "d": 687.5003437500272,
      "v": 43
    },
    {
      "midi": 47,
      "hit": false,
      "t": 158680.63489583347,
      "d": 673.6114479166863,
      "v": 43
    },
    {
      "midi": 53,
      "hit": false,
      "t": 158680.63489583347,
      "d": 673.6114479166863,
      "v": 51
    },
    {
      "midi": 64,
      "hit": false,
      "t": 158680.63489583347,
      "d": 673.6114479166863,
      "v": 53
    },
    {
      "midi": 50,
      "hit": false,
      "t": 159312.57965625013,
      "d": 1215.278385416692,
      "v": 38
    },
    {
      "midi": 40,
      "hit": false,
      "t": 159333.41300000015,
      "d": 1194.4450416666805,
      "v": 44
    },
    {
      "midi": 56,
      "hit": false,
      "t": 159333.41300000015,
      "d": 1194.4450416666805,
      "v": 46
    },
    {
      "midi": 62,
      "hit": false,
      "t": 159333.41300000015,
      "d": 1194.4450416666805,
      "v": 41
    },
    {
      "midi": 45,
      "hit": false,
      "t": 160534.8024895835,
      "d": 6111.114166666666,
      "v": 43
    },
    {
      "midi": 57,
      "hit": false,
      "t": 160625.08031250015,
      "d": 6013.891895833338,
      "v": 43
    },
    {
      "midi": 52,
      "hit": false,
      "t": 160736.19147916682,
      "d": 5888.891833333328,
      "v": 44
    },
    {
      "midi": 60,
      "hit": false,
      "t": 160736.19147916682,
      "d": 5888.891833333328,
      "v": 39
    },
    {
      "midi": 64,
      "hit": false,
      "t": 160784.8026145835,
      "d": 5861.114041666675,
      "v": 54
    }
  ]
}