{
  "jsonPath": "Jazz/Avant-Garde Jazz/Pat Metheny/two-for-the-road.json",
  "path": "Jazz\\Avant-Garde Jazz\\Pat Metheny\\Two For The Road.mid",
  "name": "Two For The Road",
  "difficulty": "Advanced",
  "bpm": 97.9999836666694,
  "notes": [
    {
      "midi": 57,
      "hit": false,
      "t": 1561.2247499999999,
      "d": 76.5306250000001,
      "v": 68
    },
    {
      "midi": 81,
      "hit": false,
      "t": 1566.3267916666666,
      "d": 81.63266666666664,
      "v": 79
    },
    {
      "midi": 81,
      "hit": false,
      "t": 1724.4900833333331,
      "d": 102.04083333333347,
      "v": 62
    },
    {
      "midi": 57,
      "hit": false,
      "t": 1729.592125,
      "d": 102.04083333333347,
      "v": 48
    },
    {
      "midi": 82,
      "hit": false,
      "t": 1882.653375,
      "d": 219.38779166666677,
      "v": 61
    },
    {
      "midi": 58,
      "hit": false,
      "t": 1892.8574583333334,
      "d": 173.4694166666668,
      "v": 62
    },
    {
      "midi": 57,
      "hit": false,
      "t": 2178.5717916666667,
      "d": 132.6530833333336,
      "v": 57
    },
    {
      "midi": 81,
      "hit": false,
      "t": 2183.6738333333333,
      "d": 117.34695833333353,
      "v": 61
    },
    {
      "midi": 67,
      "hit": false,
      "t": 2448.9800000000005,
      "d": 5.102041666666537,
      "v": 1
    },
    {
      "midi": 65,
      "hit": false,
      "t": 2500.000416666667,
      "d": 40.81633333333275,
      "v": 80
    },
    {
      "midi": 62,
      "hit": false,
      "t": 2500.000416666667,
      "d": 61.22449999999935,
      "v": 78
    },
    {
      "midi": 81,
      "hit": false,
      "t": 2500.000416666667,
      "d": 81.63266666666641,
      "v": 105
    },
    {
      "midi": 57,
      "hit": false,
      "t": 2510.2045000000003,
      "d": 30.612249999999676,
      "v": 71
    },
    {
      "midi": 83,
      "hit": false,
      "t": 2535.7147083333334,
      "d": 35.71429166666667,
      "v": 38
    },
    {
      "midi": 80,
      "hit": false,
      "t": 2831.6331250000003,
      "d": 96.93879166666648,
      "v": 36
    },
    {
      "midi": 78,
      "hit": false,
      "t": 2969.38825,
      "d": 96.93879166666648,
      "v": 62
    },
    {
      "midi": 77,
      "hit": false,
      "t": 3076.531125,
      "d": 91.83674999999994,
      "v": 60
    },
    {
      "midi": 57,
      "hit": false,
      "t": 3132.6535833333332,
      "d": 71.42858333333334,
      "v": 34
    },
    {
      "midi": 62,
      "hit": false,
      "t": 3137.755625,
      "d": 107.142875,
      "v": 31
    },
    {
      "midi": 65,
      "hit": false,
      "t": 3576.531208333333,
      "d": 40.81633333333366,
      "v": 60
    },
    {
      "midi": 62,
      "hit": false,
      "t": 3576.531208333333,
      "d": 61.22450000000072,
      "v": 58
    },
    {
      "midi": 57,
      "hit": false,
      "t": 3586.7352916666664,
      "d": 40.81633333333366,
      "v": 48
    },
    {
      "midi": 65,
      "hit": false,
      "t": 3943.8782083333335,
      "d": 102.04083333333347,
      "v": 54
    },
    {
      "midi": 57,
      "hit": false,
      "t": 3948.98025,
      "d": 86.7347083333334,
      "v": 57
    },
    {
      "midi": 62,
      "hit": false,
      "t": 3954.0822916666666,
      "d": 127.55104166666706,
      "v": 50
    },
    {
      "midi": 57,
      "hit": false,
      "t": 4459.184416666667,
      "d": 117.34695833333444,
      "v": 55
    },
    {
      "midi": 62,
      "hit": false,
      "t": 4464.286458333334,
      "d": 137.7551250000006,
      "v": 53
    },
    {
      "midi": 65,
      "hit": false,
      "t": 4469.388500000001,
      "d": 86.7347083333334,
      "v": 47
    },
    {
      "midi": 65,
      "hit": false,
      "t": 4882.653875000001,
      "d": 112.24491666666654,
      "v": 53
    },
    {
      "midi": 62,
      "hit": false,
      "t": 4882.653875000001,
      "d": 173.4694166666668,
      "v": 52
    },
    {
      "midi": 56,
      "hit": false,
      "t": 4887.755916666668,
      "d": 137.75512499999968,
      "v": 44
    },
    {
      "midi": 65,
      "hit": false,
      "t": 5362.245791666668,
      "d": 66.32654166666634,
      "v": 55
    },
    {
      "midi": 62,
      "hit": false,
      "t": 5362.245791666668,
      "d": 96.93879166666648,
      "v": 48
    },
    {
      "midi": 56,
      "hit": false,
      "t": 5372.449875000001,
      "d": 96.93879166666648,
      "v": 30
    },
    {
      "midi": 56,
      "hit": false,
      "t": 5785.715250000001,
      "d": 86.7347083333334,
      "v": 58
    },
    {
      "midi": 65,
      "hit": false,
      "t": 5790.817291666668,
      "d": 40.816333333333205,
      "v": 64
    },
    {
      "midi": 76,
      "hit": false,
      "t": 5790.817291666668,
      "d": 102.04083333333347,
      "v": 87
    },
    {
      "midi": 62,
      "hit": false,
      "t": 5790.817291666668,
      "d": 117.34695833333353,
      "v": 66
    },
    {
      "midi": 76,
      "hit": false,
      "t": 5979.592833333335,
      "d": 81.63266666666641,
      "v": 74
    },
    {
      "midi": 80,
      "hit": false,
      "t": 6096.939791666668,
      "d": 91.8367500000004,
      "v": 61
    },
    {
      "midi": 80,
      "hit": false,
      "t": 6270.409208333334,
      "d": 102.04083333333347,
      "v": 57
    },
    {
      "midi": 62,
      "hit": false,
      "t": 6301.0214583333345,
      "d": 183.67349999999988,
      "v": 55
    },
    {
      "midi": 65,
      "hit": false,
      "t": 6306.1235000000015,
      "d": 35.71429166666621,
      "v": 54
    },
    {
      "midi": 56,
      "hit": false,
      "t": 6316.327583333335,
      "d": 76.53062500000033,
      "v": 33
    },
    {
      "midi": 83,
      "hit": false,
      "t": 6403.062291666668,
      "d": 102.04083333333347,
      "v": 78
    },
    {
      "midi": 83,
      "hit": false,
      "t": 6602.041916666668,
      "d": 91.8367500000004,
      "v": 59
    },
    {
      "midi": 62,
      "hit": false,
      "t": 6744.899083333335,
      "d": 301.0204583333334,
      "v": 64
    },
    {
      "midi": 56,
      "hit": false,
      "t": 6744.899083333335,
      "d": 403.0612916666669,
      "v": 62
    },
    {
      "midi": 65,
      "hit": false,
      "t": 6750.001125000002,
      "d": 311.2245416666665,
      "v": 66
    },
    {
      "midi": 86,
      "hit": false,
      "t": 6765.307250000002,
      "d": 153.06124999999975,
      "v": 90
    },
    {
      "midi": 86,
      "hit": false,
      "t": 7066.327708333335,
      "d": 117.34695833333262,
      "v": 105
    },
    {
      "midi": 84,
      "hit": false,
      "t": 7239.797125000001,
      "d": 71.42858333333334,
      "v": 66
    },
    {
      "midi": 64,
      "hit": false,
      "t": 7362.246125000001,
      "d": 275.51025000000027,
      "v": 45
    },
    {
      "midi": 86,
      "hit": false,
      "t": 7367.348166666668,
      "d": 229.59187500000007,
      "v": 90
    },
    {
      "midi": 59,
      "hit": false,
      "t": 7367.348166666668,
      "d": 244.89800000000014,
      "v": 52
    },
    {
      "midi": 60,
      "hit": false,
      "t": 7367.348166666668,
      "d": 255.1020833333332,
      "v": 54
    },
    {
      "midi": 57,
      "hit": false,
      "t": 7372.450208333335,
      "d": 270.4082083333333,
      "v": 36
    },
    {
      "midi": 84,
      "hit": false,
      "t": 7663.266583333335,
      "d": 153.06124999999975,
      "v": 73
    },
    {
      "midi": 64,
      "hit": false,
      "t": 7954.082958333334,
      "d": 285.71433333333334,
      "v": 41
    },
    {
      "midi": 82,
      "hit": false,
      "t": 7959.185000000001,
      "d": 76.53062500000033,
      "v": 59
    },
    {
      "midi": 60,
      "hit": false,
      "t": 7974.491125000001,
      "d": 214.28575,
      "v": 44
    },
    {
      "midi": 57,
      "hit": false,
      "t": 7974.491125000001,
      "d": 362.24495833333185,
      "v": 32
    },
    {
      "midi": 59,
      "hit": false,
      "t": 7979.593166666668,
      "d": 229.59187499999916,
      "v": 38
    },
    {
      "midi": 83,
      "hit": false,
      "t": 7989.797250000001,
      "d": 173.4694166666668,
      "v": 64
    },
    {
      "midi": 76,
      "hit": false,
      "t": 8265.3075,
      "d": 96.93879166666557,
      "v": 29
    },
    {
      "midi": 55,
      "hit": false,
      "t": 8561.225916666666,
      "d": 127.55104166666752,
      "v": 43
    },
    {
      "midi": 81,
      "hit": false,
      "t": 8581.634083333332,
      "d": 102.04083333333438,
      "v": 24
    },
    {
      "midi": 60,
      "hit": false,
      "t": 8581.634083333332,
      "d": 107.14287500000137,
      "v": 34
    },
    {
      "midi": 64,
      "hit": false,
      "t": 8586.736125,
      "d": 122.44900000000052,
      "v": 13
    },
    {
      "midi": 57,
      "hit": false,
      "t": 8586.736125,
      "d": 137.75512499999968,
      "v": 30
    },
    {
      "midi": 81,
      "hit": false,
      "t": 8877.5525,
      "d": 66.32654166666725,
      "v": 44
    },
    {
      "midi": 55,
      "hit": false,
      "t": 9188.777041666666,
      "d": 127.55104166666752,
      "v": 32
    },
    {
      "midi": 64,
      "hit": false,
      "t": 9193.879083333333,
      "d": 127.55104166666752,
      "v": 20
    },
    {
      "midi": 60,
      "hit": false,
      "t": 9198.981125,
      "d": 112.24491666666654,
      "v": 40
    },
    {
      "midi": 57,
      "hit": false,
      "t": 9214.28725,
      "d": 96.93879166666738,
      "v": 33
    },
    {
      "midi": 80,
      "hit": false,
      "t": 9632.654666666667,
      "d": 127.55104166666752,
      "v": 38
    },
    {
      "midi": 53,
      "hit": false,
      "t": 9632.654666666667,
      "d": 158.16329166666765,
      "v": 36
    },
    {
      "midi": 64,
      "hit": false,
      "t": 9637.756708333334,
      "d": 117.34695833333353,
      "v": 36
    },
    {
      "midi": 60,
      "hit": false,
      "t": 9647.960791666668,
      "d": 91.8367500000004,
      "v": 43
    },
    {
      "midi": 76,
      "hit": false,
      "t": 9647.960791666668,
      "d": 137.75512499999968,
      "v": 40
    },
    {
      "midi": 84,
      "hit": false,
      "t": 9653.062833333335,
      "d": 183.67349999999897,
      "v": 33
    },
    {
      "midi": 57,
      "hit": false,
      "t": 9673.471000000001,
      "d": 96.93879166666738,
      "v": 29
    },
    {
      "midi": 88,
      "hit": false,
      "t": 9673.471000000001,
      "d": 147.95920833333366,
      "v": 33
    },
    {
      "midi": 81,
      "hit": false,
      "t": 9790.817958333335,
      "d": 51.02041666666628,
      "v": 22
    },
    {
      "midi": 64,
      "hit": false,
      "t": 10091.838416666667,
      "d": 112.24491666666472,
      "v": 36
    },
    {
      "midi": 60,
      "hit": false,
      "t": 10107.144541666667,
      "d": 102.04083333333256,
      "v": 42
    },
    {
      "midi": 53,
      "hit": false,
      "t": 10107.144541666667,
      "d": 137.75512499999786,
      "v": 26
    },
    {
      "midi": 57,
      "hit": false,
      "t": 10127.552708333333,
      "d": 102.04083333333256,
      "v": 31
    },
    {
      "midi": 64,
      "hit": false,
      "t": 10581.634416666664,
      "d": 96.93879166666557,
      "v": 56
    },
    {
      "midi": 60,
      "hit": false,
      "t": 10591.838499999998,
      "d": 102.04083333333074,
      "v": 49
    },
    {
      "midi": 57,
      "hit": false,
      "t": 10607.144624999997,
      "d": 137.75512499999786,
      "v": 44
    },
    {
      "midi": 53,
      "hit": false,
      "t": 10622.450749999996,
      "d": 127.5510416666657,
      "v": 18
    },
    {
      "midi": 64,
      "hit": false,
      "t": 11005.103874999995,
      "d": 142.8571666666685,
      "v": 92
    },
    {
      "midi": 57,
      "hit": false,
      "t": 11010.205916666662,
      "d": 219.3877916666679,
      "v": 59
    },
    {
      "midi": 53,
      "hit": false,
      "t": 11015.30795833333,
      "d": 204.08166666666693,
      "v": 51
    },
    {
      "midi": 60,
      "hit": false,
      "t": 11020.409999999996,
      "d": 178.5714583333338,
      "v": 53
    },
    {
      "midi": 65,
      "hit": false,
      "t": 11173.471249999997,
      "d": 76.53062499999942,
      "v": 77
    },
    {
      "midi": 69,
      "hit": false,
      "t": 11301.022291666663,
      "d": 153.06125000000065,
      "v": 71
    },
    {
      "midi": 72,
      "hit": false,
      "t": 11484.695791666663,
      "d": 71.42858333333243,
      "v": 58
    },
    {
      "midi": 53,
      "hit": false,
      "t": 11586.736624999996,
      "d": 561.2245833333363,
      "v": 54
    },
    {
      "midi": 60,
      "hit": false,
      "t": 11602.042749999995,
      "d": 122.44900000000052,
      "v": 51
    },
    {
      "midi": 57,
      "hit": false,
      "t": 11617.348874999994,
      "d": 250.00004166666804,
      "v": 42
    },
    {
      "midi": 77,
      "hit": false,
      "t": 11658.165208333328,
      "d": 40.816333333334114,
      "v": 54
    },
    {
      "midi": 75,
      "hit": false,
      "t": 11668.369291666662,
      "d": 61.22450000000026,
      "v": 36
    },
    {
      "midi": 76,
      "hit": false,
      "t": 11693.879499999995,
      "d": 137.75512499999968,
      "v": 57
    },
    {
      "midi": 74,
      "hit": false,
      "t": 11948.981583333329,
      "d": 158.16329166666947,
      "v": 78
    },
    {
      "midi": 60,
      "hit": false,
      "t": 11959.185666666663,
      "d": 45.918375000001106,
      "v": 31
    },
    {
      "midi": 75,
      "hit": false,
      "t": 11969.389749999997,
      "d": 107.14287500000137,
      "v": 58
    },
    {
      "midi": 76,
      "hit": false,
      "t": 12040.81833333333,
      "d": 107.14287500000137,
      "v": 26
    },
    {
      "midi": 74,
      "hit": false,
      "t": 12250.002041666665,
      "d": 137.75512499999968,
      "v": 71
    },
    {
      "midi": 75,
      "hit": false,
      "t": 12265.308166666664,
      "d": 127.55104166666752,
      "v": 64
    },
    {
      "midi": 60,
      "hit": false,
      "t": 12331.634708333331,
      "d": 142.85716666666667,
      "v": 17
    },
    {
      "midi": 64,
      "hit": false,
      "t": 12336.736749999998,
      "d": 132.6530833333327,
      "v": 19
    },
    {
      "midi": 57,
      "hit": false,
      "t": 12367.348999999998,
      "d": 71.42858333333243,
      "v": 35
    },
    {
      "midi": 76,
      "hit": false,
      "t": 12372.451041666665,
      "d": 163.26533333333282,
      "v": 53
    },
    {
      "midi": 72,
      "hit": false,
      "t": 12576.532708333332,
      "d": 158.16329166666583,
      "v": 49
    },
    {
      "midi": 60,
      "hit": false,
      "t": 12862.247041666666,
      "d": 35.71429166666712,
      "v": 51
    },
    {
      "midi": 53,
      "hit": false,
      "t": 12882.655208333332,
      "d": 107.14287500000137,
      "v": 36
    },
    {
      "midi": 74,
      "hit": false,
      "t": 12882.655208333332,
      "d": 153.06125000000065,
      "v": 65
    },
    {
      "midi": 57,
      "hit": false,
      "t": 12887.757249999999,
      "d": 71.42858333333425,
      "v": 31
    },
    {
      "midi": 69,
      "hit": false,
      "t": 13086.736874999999,
      "d": 61.22450000000026,
      "v": 39
    },
    {
      "midi": 71,
      "hit": false,
      "t": 13178.573624999999,
      "d": 163.26533333333282,
      "v": 46
    },
    {
      "midi": 74,
      "hit": false,
      "t": 13367.349166666665,
      "d": 76.53062500000124,
      "v": 75
    },
    {
      "midi": 60,
      "hit": false,
      "t": 13403.063458333332,
      "d": 30.61225000000013,
      "v": 50
    },
    {
      "midi": 57,
      "hit": false,
      "t": 13423.471624999998,
      "d": 71.42858333333425,
      "v": 42
    },
    {
      "midi": 53,
      "hit": false,
      "t": 13423.471624999998,
      "d": 102.04083333333438,
      "v": 44
    },
    {
      "midi": 74,
      "hit": false,
      "t": 13494.900208333333,
      "d": 178.5714583333338,
      "v": 74
    },
    {
      "midi": 74,
      "hit": false,
      "t": 13801.022708333334,
      "d": 86.7347083333334,
      "v": 59
    },
    {
      "midi": 48,
      "hit": false,
      "t": 14081.635,
      "d": 76.53062499999942,
      "v": 49
    },
    {
      "midi": 57,
      "hit": false,
      "t": 14096.941125,
      "d": 66.32654166666725,
      "v": 35
    },
    {
      "midi": 62,
      "hit": false,
      "t": 14989.798416666667,
      "d": 71.42858333333606,
      "v": 44
    },
    {
      "midi": 53,
      "hit": false,
      "t": 14989.798416666667,
      "d": 81.63266666667005,
      "v": 47
    },
    {
      "midi": 59,
      "hit": false,
      "t": 15000.0025,
      "d": 56.12245833333509,
      "v": 54
    },
    {
      "midi": 57,
      "hit": false,
      "t": 15005.104541666668,
      "d": 40.816333333334114,
      "v": 45
    },
    {
      "midi": 78,
      "hit": false,
      "t": 15306.125000000004,
      "d": 142.85716666666667,
      "v": 76
    },
    {
      "midi": 66,
      "hit": false,
      "t": 15311.22704166667,
      "d": 137.75512499999968,
      "v": 84
    },
    {
      "midi": 67,
      "hit": false,
      "t": 15484.696458333337,
      "d": 76.53062499999942,
      "v": 70
    },
    {
      "midi": 79,
      "hit": false,
      "t": 15484.696458333337,
      "d": 107.14287499999955,
      "v": 59
    },
    {
      "midi": 77,
      "hit": false,
      "t": 15515.308708333338,
      "d": 56.12245833333327,
      "v": 36
    },
    {
      "midi": 62,
      "hit": false,
      "t": 15571.43116666667,
      "d": 40.816333333332295,
      "v": 29
    },
    {
      "midi": 59,
      "hit": false,
      "t": 15571.43116666667,
      "d": 61.22449999999844,
      "v": 32
    },
    {
      "midi": 82,
      "hit": false,
      "t": 15780.614875000003,
      "d": 107.14287500000137,
      "v": 71
    },
    {
      "midi": 70,
      "hit": false,
      "t": 15785.71691666667,
      "d": 96.93879166666738,
      "v": 79
    },
    {
      "midi": 80,
      "hit": false,
      "t": 15816.32916666667,
      "d": 40.816333333334114,
      "v": 31
    },
    {
      "midi": 53,
      "hit": false,
      "t": 15918.370000000004,
      "d": 117.34695833333353,
      "v": 38
    },
    {
      "midi": 71,
      "hit": false,
      "t": 15923.472041666671,
      "d": 102.04083333333256,
      "v": 60
    },
    {
      "midi": 83,
      "hit": false,
      "t": 15923.472041666671,
      "d": 117.34695833333353,
      "v": 58
    },
    {
      "midi": 62,
      "hit": false,
      "t": 15928.574083333338,
      "d": 122.44900000000052,
      "v": 39
    },
    {
      "midi": 59,
      "hit": false,
      "t": 15943.880208333338,
      "d": 173.4694166666668,
      "v": 54
    },
    {
      "midi": 57,
      "hit": false,
      "t": 15954.084291666672,
      "d": 142.85716666666667,
      "v": 45
    },
    {
      "midi": 85,
      "hit": false,
      "t": 16219.390458333337,
      "d": 107.14287499999955,
      "v": 73
    },
    {
      "midi": 73,
      "hit": false,
      "t": 16224.492500000004,
      "d": 117.34695833333171,
      "v": 57
    },
    {
      "midi": 74,
      "hit": false,
      "t": 16397.96191666667,
      "d": 76.53062499999942,
      "v": 65
    },
    {
      "midi": 86,
      "hit": false,
      "t": 16403.063958333336,
      "d": 102.04083333333256,
      "v": 55
    },
    {
      "midi": 80,
      "hit": false,
      "t": 16428.57416666667,
      "d": 35.71429166666712,
      "v": 27
    },
    {
      "midi": 53,
      "hit": false,
      "t": 16704.08441666667,
      "d": 66.32654166666543,
      "v": 55
    },
    {
      "midi": 59,
      "hit": false,
      "t": 16704.08441666667,
      "d": 76.53062499999942,
      "v": 62
    },
    {
      "midi": 62,
      "hit": false,
      "t": 16709.186458333334,
      "d": 45.918375000001106,
      "v": 41
    },
    {
      "midi": 86,
      "hit": false,
      "t": 17015.308958333335,
      "d": 66.32654166666543,
      "v": 61
    },
    {
      "midi": 89,
      "hit": false,
      "t": 17127.553875,
      "d": 382.6531249999971,
      "v": 81
    },
    {
      "midi": 77,
      "hit": false,
      "t": 17132.655916666667,
      "d": 612.244999999999,
      "v": 74
    },
    {
      "midi": 62,
      "hit": false,
      "t": 17137.75795833333,
      "d": 642.8572500000009,
      "v": 54
    },
    {
      "midi": 56,
      "hit": false,
      "t": 17137.75795833333,
      "d": 994.8981249999961,
      "v": 40
    },
    {
      "midi": 53,
      "hit": false,
      "t": 17137.75795833333,
      "d": 1025.5103749999944,
      "v": 37
    },
    {
      "midi": 59,
      "hit": false,
      "t": 17142.859999999997,
      "d": 658.1633750000037,
      "v": 53
    },
    {
      "midi": 86,
      "hit": false,
      "t": 17755.105,
      "d": 188.77554166666596,
      "v": 91
    },
    {
      "midi": 77,
      "hit": false,
      "t": 17959.186666666665,
      "d": 86.7347083333334,
      "v": 39
    },
    {
      "midi": 62,
      "hit": false,
      "t": 17984.696874999998,
      "d": 66.32654166666543,
      "v": 24
    },
    {
      "midi": 59,
      "hit": false,
      "t": 17989.798916666663,
      "d": 61.22450000000026,
      "v": 33
    },
    {
      "midi": 80,
      "hit": false,
      "t": 18066.329541666662,
      "d": 173.46941666666316,
      "v": 29
    },
    {
      "midi": 83,
      "hit": false,
      "t": 18260.207124999994,
      "d": 91.83674999999857,
      "v": 63
    },
    {
      "midi": 86,
      "hit": false,
      "t": 18408.166333333327,
      "d": 81.63266666666823,
      "v": 65
    },
    {
      "midi": 75,
      "hit": false,
      "t": 18571.431666666664,
      "d": 91.83675000000221,
      "v": 82
    },
    {
      "midi": 87,
      "hit": false,
      "t": 18576.53370833333,
      "d": 102.0408333333362,
      "v": 84
    },
    {
      "midi": 64,
      "hit": false,
      "t": 18596.941874999997,
      "d": 35.71429166666712,
      "v": 25
    },
    {
      "midi": 60,
      "hit": false,
      "t": 18607.14595833333,
      "d": 45.918375000001106,
      "v": 33
    },
    {
      "midi": 87,
      "hit": false,
      "t": 18704.084749999998,
      "d": 76.53062499999578,
      "v": 50
    },
    {
      "midi": 75,
      "hit": false,
      "t": 18709.186791666663,
      "d": 66.32654166666543,
      "v": 67
    },
    {
      "midi": 88,
      "hit": false,
      "t": 18755.105166666664,
      "d": 163.26533333332918,
      "v": 71
    },
    {
      "midi": 81,
      "hit": false,
      "t": 18770.411291666664,
      "d": 204.08166666666148,
      "v": 25
    },
    {
      "midi": 86,
      "hit": false,
      "t": 18780.615374999994,
      "d": 168.367374999998,
      "v": 33
    },
    {
      "midi": 76,
      "hit": false,
      "t": 18795.921499999993,
      "d": 153.06124999999884,
      "v": 40
    },
    {
      "midi": 84,
      "hit": false,
      "t": 18795.921499999993,
      "d": 178.57145833333198,
      "v": 38
    },
    {
      "midi": 76,
      "hit": false,
      "t": 19025.51337499999,
      "d": 147.95920833333003,
      "v": 64
    },
    {
      "midi": 88,
      "hit": false,
      "t": 19025.51337499999,
      "d": 153.0612499999952,
      "v": 62
    },
    {
      "midi": 81,
      "hit": false,
      "t": 19035.717458333325,
      "d": 198.9796249999963,
      "v": 35
    },
    {
      "midi": 84,
      "hit": false,
      "t": 19051.023583333324,
      "d": 117.34695833333171,
      "v": 47
    },
    {
      "midi": 86,
      "hit": false,
      "t": 19076.533791666658,
      "d": 122.44899999999689,
      "v": 35
    },
    {
      "midi": 75,
      "hit": false,
      "t": 19285.717499999988,
      "d": 127.55104166666206,
      "v": 62
    },
    {
      "midi": 87,
      "hit": false,
      "t": 19290.819541666653,
      "d": 102.04083333332892,
      "v": 55
    },
    {
      "midi": 64,
      "hit": false,
      "t": 19295.92158333332,
      "d": 40.816333333332295,
      "v": 28
    },
    {
      "midi": 60,
      "hit": false,
      "t": 19311.227708333317,
      "d": 40.816333333332295,
      "v": 32
    },
    {
      "midi": 81,
      "hit": false,
      "t": 19336.73791666665,
      "d": 51.02041666666628,
      "v": 19
    },
    {
      "midi": 88,
      "hit": false,
      "t": 19469.390999999985,
      "d": 86.7347083333334,
      "v": 63
    },
    {
      "midi": 76,
      "hit": false,
      "t": 19474.49304166665,
      "d": 71.42858333333425,
      "v": 55
    },
    {
      "midi": 81,
      "hit": false,
      "t": 19510.207333333317,
      "d": 35.71429166666712,
      "v": 18
    },
    {
      "midi": 76,
      "hit": false,
      "t": 19602.04408333332,
      "d": 132.65308333333087,
      "v": 48
    },
    {
      "midi": 88,
      "hit": false,
      "t": 19607.146124999985,
      "d": 132.65308333333087,
      "v": 47
    },
    {
      "midi": 62,
      "hit": false,
      "t": 19617.35020833332,
      "d": 147.95920833333003,
      "v": 40
    },
    {
      "midi": 65,
      "hit": false,
      "t": 19622.452249999984,
      "d": 91.83675000000221,
      "v": 35
    },
    {
      "midi": 57,
      "hit": false,
      "t": 19622.452249999984,
      "d": 107.14287500000137,
      "v": 33
    },
    {
      "midi": 81,
      "hit": false,
      "t": 19642.860416666652,
      "d": 61.22450000000026,
      "v": 19
    },
    {
      "midi": 88,
      "hit": false,
      "t": 19908.166583333314,
      "d": 132.6530833333345,
      "v": 67
    },
    {
      "midi": 76,
      "hit": false,
      "t": 19918.370666666648,
      "d": 132.6530833333345,
      "v": 54
    },
    {
      "midi": 81,
      "hit": false,
      "t": 19933.676791666647,
      "d": 178.5714583333356,
      "v": 34
    },
    {
      "midi": 87,
      "hit": false,
      "t": 20214.289083333315,
      "d": 142.85716666666121,
      "v": 73
    },
    {
      "midi": 75,
      "hit": false,
      "t": 20219.39112499998,
      "d": 122.44899999999689,
      "v": 77
    },
    {
      "midi": 65,
      "hit": false,
      "t": 20224.493166666645,
      "d": 96.93879166666375,
      "v": 62
    },
    {
      "midi": 57,
      "hit": false,
      "t": 20229.59520833331,
      "d": 122.44900000000052,
      "v": 57
    },
    {
      "midi": 81,
      "hit": false,
      "t": 20229.59520833331,
      "d": 122.44900000000052,
      "v": 67
    },
    {
      "midi": 62,
      "hit": false,
      "t": 20229.59520833331,
      "d": 168.367374999998,
      "v": 62
    },
    {
      "midi": 84,
      "hit": false,
      "t": 20234.697249999976,
      "d": 122.44900000000052,
      "v": 62
    },
    {
      "midi": 76,
      "hit": false,
      "t": 20408.166666666642,
      "d": 86.7347083333334,
      "v": 68
    },
    {
      "midi": 88,
      "hit": false,
      "t": 20413.268708333308,
      "d": 86.7347083333334,
      "v": 66
    },
    {
      "midi": 81,
      "hit": false,
      "t": 20413.268708333308,
      "d": 96.93879166666738,
      "v": 47
    },
    {
      "midi": 84,
      "hit": false,
      "t": 20423.47279166664,
      "d": 66.32654166666907,
      "v": 57
    },
    {
      "midi": 86,
      "hit": false,
      "t": 20433.676874999976,
      "d": 35.71429166666712,
      "v": 49
    },
    {
      "midi": 76,
      "hit": false,
      "t": 20556.125874999976,
      "d": 107.14287499999773,
      "v": 28
    },
    {
      "midi": 88,
      "hit": false,
      "t": 20561.22791666664,
      "d": 122.44899999999689,
      "v": 38
    },
    {
      "midi": 81,
      "hit": false,
      "t": 20571.431999999975,
      "d": 107.14287499999773,
      "v": 20
    },
    {
      "midi": 86,
      "hit": false,
      "t": 20586.738124999974,
      "d": 45.918375000001106,
      "v": 27
    },
    {
      "midi": 84,
      "hit": false,
      "t": 20586.738124999974,
      "d": 91.83674999999857,
      "v": 38
    },
    {
      "midi": 62,
      "hit": false,
      "t": 20826.534083333303,
      "d": 122.44899999999689,
      "v": 51
    },
    {
      "midi": 65,
      "hit": false,
      "t": 20831.636124999968,
      "d": 81.63266666666459,
      "v": 48
    },
    {
      "midi": 88,
      "hit": false,
      "t": 20836.738166666633,
      "d": 127.5510416666657,
      "v": 59
    },
    {
      "midi": 56,
      "hit": false,
      "t": 20841.8402083333,
      "d": 91.83675000000221,
      "v": 33
    },
    {
      "midi": 81,
      "hit": false,
      "t": 20846.942249999964,
      "d": 112.24491666667018,
      "v": 49
    },
    {
      "midi": 76,
      "hit": false,
      "t": 20846.942249999964,
      "d": 137.75512500000332,
      "v": 53
    },
    {
      "midi": 84,
      "hit": false,
      "t": 20857.146333333298,
      "d": 107.14287500000137,
      "v": 43
    },
    {
      "midi": 87,
      "hit": false,
      "t": 21137.758624999966,
      "d": 132.65308333332723,
      "v": 59
    },
    {
      "midi": 75,
      "hit": false,
      "t": 21142.86066666663,
      "d": 117.34695833332808,
      "v": 69
    },
    {
      "midi": 81,
      "hit": false,
      "t": 21173.47291666663,
      "d": 81.63266666666459,
      "v": 36
    },
    {
      "midi": 84,
      "hit": false,
      "t": 21183.676999999963,
      "d": 40.816333333332295,
      "v": 37
    },
    {
      "midi": 76,
      "hit": false,
      "t": 21326.534166666628,
      "d": 71.42858333333061,
      "v": 62
    },
    {
      "midi": 81,
      "hit": false,
      "t": 21326.534166666628,
      "d": 234.69391666666343,
      "v": 48
    },
    {
      "midi": 88,
      "hit": false,
      "t": 21331.636208333293,
      "d": 40.816333333332295,
      "v": 53
    },
    {
      "midi": 84,
      "hit": false,
      "t": 21341.840291666627,
      "d": 40.816333333332295,
      "v": 48
    },
    {
      "midi": 86,
      "hit": false,
      "t": 21357.146416666626,
      "d": 35.71429166666712,
      "v": 44
    },
    {
      "midi": 76,
      "hit": false,
      "t": 21438.77908333329,
      "d": 122.44900000000052,
      "v": 48
    },
    {
      "midi": 88,
      "hit": false,
      "t": 21438.77908333329,
      "d": 142.8571666666685,
      "v": 68
    },
    {
      "midi": 62,
      "hit": false,
      "t": 21454.08520833329,
      "d": 127.55104166666933,
      "v": 43
    },
    {
      "midi": 56,
      "hit": false,
      "t": 21454.08520833329,
      "d": 173.46941666667044,
      "v": 46
    },
    {
      "midi": 65,
      "hit": false,
      "t": 21459.187249999955,
      "d": 66.32654166666907,
      "v": 47
    },
    {
      "midi": 84,
      "hit": false,
      "t": 21469.39133333329,
      "d": 81.63266666666823,
      "v": 37
    },
    {
      "midi": 88,
      "hit": false,
      "t": 21739.799541666627,
      "d": 112.2449166666629,
      "v": 72
    },
    {
      "midi": 76,
      "hit": false,
      "t": 21750.00362499996,
      "d": 96.93879166666375,
      "v": 54
    },
    {
      "midi": 81,
      "hit": false,
      "t": 21755.105666666626,
      "d": 107.14287499999773,
      "v": 54
    },
    {
      "midi": 84,
      "hit": false,
      "t": 21775.513833333294,
      "d": 66.32654166666543,
      "v": 36
    },
    {
      "midi": 87,
      "hit": false,
      "t": 22051.02408333329,
      "d": 30.612249999998312,
      "v": 56
    },
    {
      "midi": 75,
      "hit": false,
      "t": 22056.126124999955,
      "d": 45.91837499999747,
      "v": 57
    },
    {
      "midi": 64,
      "hit": false,
      "t": 22056.126124999955,
      "d": 117.34695833333171,
      "v": 42
    },
    {
      "midi": 57,
      "hit": false,
      "t": 22056.126124999955,
      "d": 163.26533333332918,
      "v": 37
    },
    {
      "midi": 60,
      "hit": false,
      "t": 22071.432249999954,
      "d": 102.04083333333256,
      "v": 46
    },
    {
      "midi": 81,
      "hit": false,
      "t": 22071.432249999954,
      "d": 142.85716666666485,
      "v": 47
    },
    {
      "midi": 84,
      "hit": false,
      "t": 22096.942458333288,
      "d": 112.24491666666654,
      "v": 39
    },
    {
      "midi": 88,
      "hit": false,
      "t": 22096.942458333288,
      "d": 158.163291666664,
      "v": 47
    },
    {
      "midi": 76,
      "hit": false,
      "t": 22117.350624999952,
      "d": 66.32654166666907,
      "v": 39
    },
    {
      "midi": 64,
      "hit": false,
      "t": 22642.860916666617,
      "d": 76.53062499999942,
      "v": 39
    },
    {
      "midi": 60,
      "hit": false,
      "t": 22642.860916666617,
      "d": 107.14287499999773,
      "v": 52
    },
    {
      "midi": 57,
      "hit": false,
      "t": 22653.06499999995,
      "d": 107.14287499999773,
      "v": 45
    },
    {
      "midi": 93,
      "hit": false,
      "t": 22964.289541666614,
      "d": 71.42858333333425,
      "v": 101
    },
    {
      "midi": 86,
      "hit": false,
      "t": 23250.003874999948,
      "d": 66.32654166665816,
      "v": 110
    },
    {
      "midi": 64,
      "hit": false,
      "t": 23255.105916666613,
      "d": 316.326583333328,
      "v": 38
    },
    {
      "midi": 60,
      "hit": false,
      "t": 23260.207958333278,
      "d": 428.57149999999456,
      "v": 39
    },
    {
      "midi": 57,
      "hit": false,
      "t": 23265.309999999943,
      "d": 1112.2450833333278,
      "v": 36
    },
    {
      "midi": 95,
      "hit": false,
      "t": 23270.41204166661,
      "d": 30.612249999998312,
      "v": 71
    },
    {
      "midi": 93,
      "hit": false,
      "t": 23270.41204166661,
      "d": 198.97962499999994,
      "v": 62
    },
    {
      "midi": 87,
      "hit": false,
      "t": 23377.554916666606,
      "d": 137.75512499999968,
      "v": 53
    },
    {
      "midi": 90,
      "hit": false,
      "t": 23423.473291666607,
      "d": 86.7347083333334,
      "v": 25
    },
    {
      "midi": 86,
      "hit": false,
      "t": 23474.493708333273,
      "d": 112.24491666666654,
      "v": 62
    },
    {
      "midi": 84,
      "hit": false,
      "t": 23581.636583333275,
      "d": 168.367374999998,
      "v": 59
    },
    {
      "midi": 83,
      "hit": false,
      "t": 23693.881499999938,
      "d": 168.36737500000163,
      "v": 64
    },
    {
      "midi": 86,
      "hit": false,
      "t": 23908.16724999994,
      "d": 137.75512499999604,
      "v": 88
    },
    {
      "midi": 64,
      "hit": false,
      "t": 23938.77949999994,
      "d": 112.2449166666629,
      "v": 37
    },
    {
      "midi": 60,
      "hit": false,
      "t": 23954.085624999938,
      "d": 153.06124999999884,
      "v": 33
    },
    {
      "midi": 83,
      "hit": false,
      "t": 24020.412166666603,
      "d": 76.53062499999942,
      "v": 56
    },
    {
      "midi": 84,
      "hit": false,
      "t": 24183.677499999936,
      "d": 122.44900000000052,
      "v": 83
    },
    {
      "midi": 81,
      "hit": false,
      "t": 24306.126499999937,
      "d": 122.44900000000052,
      "v": 62
    },
    {
      "midi": 76,
      "hit": false,
      "t": 24454.08570833327,
      "d": 81.63266666666823,
      "v": 65
    },
    {
      "midi": 74,
      "hit": false,
      "t": 24586.738791666605,
      "d": 142.85716666666485,
      "v": 44
    },
    {
      "midi": 74,
      "hit": false,
      "t": 24826.534749999937,
      "d": 122.44900000000052,
      "v": 51
    },
    {
      "midi": 74,
      "hit": false,
      "t": 25117.35112499994,
      "d": 229.59187499999825,
      "v": 69
    },
    {
      "midi": 72,
      "hit": false,
      "t": 25397.963416666604,
      "d": 107.14287500000137,
      "v": 41
    },
    {
      "midi": 74,
      "hit": false,
      "t": 25586.738958333273,
      "d": 127.5510416666657,
      "v": 58
    },
    {
      "midi": 54,
      "hit": false,
      "t": 25622.45324999994,
      "d": 127.5510416666657,
      "v": 37
    },
    {
      "midi": 60,
      "hit": false,
      "t": 25647.963458333274,
      "d": 81.63266666666459,
      "v": 32
    },
    {
      "midi": 54,
      "hit": false,
      "t": 26020.41249999994,
      "d": 372.44904166666674,
      "v": 39
    },
    {
      "midi": 64,
      "hit": false,
      "t": 26045.922708333273,
      "d": 224.48983333333308,
      "v": 28
    },
    {
      "midi": 60,
      "hit": false,
      "t": 26045.922708333273,
      "d": 357.1429166666676,
      "v": 47
    },
    {
      "midi": 66,
      "hit": false,
      "t": 26357.14724999994,
      "d": 127.55104166666933,
      "v": 70
    },
    {
      "midi": 67,
      "hit": false,
      "t": 26520.412583333276,
      "d": 86.7347083333334,
      "v": 62
    },
    {
      "midi": 54,
      "hit": false,
      "t": 26556.126874999944,
      "d": 147.95920833333366,
      "v": 45
    },
    {
      "midi": 60,
      "hit": false,
      "t": 26571.432999999943,
      "d": 51.02041666666628,
      "v": 24
    },
    {
      "midi": 62,
      "hit": false,
      "t": 26571.432999999943,
      "d": 71.42858333333425,
      "v": 40
    },
    {
      "midi": 69,
      "hit": false,
      "t": 26658.167708333276,
      "d": 102.0408333333362,
      "v": 58
    },
    {
      "midi": 70,
      "hit": false,
      "t": 26841.84120833328,
      "d": 30.612249999998312,
      "v": 50
    },
    {
      "midi": 71,
      "hit": false,
      "t": 26872.45345833328,
      "d": 40.816333333332295,
      "v": 57
    },
    {
      "midi": 62,
      "hit": false,
      "t": 26984.698374999945,
      "d": 102.04083333332892,
      "v": 29
    },
    {
      "midi": 71,
      "hit": false,
      "t": 27025.514708333278,
      "d": 40.816333333332295,
      "v": 28
    },
    {
      "midi": 59,
      "hit": false,
      "t": 27025.514708333278,
      "d": 45.91837499999747,
      "v": 24
    },
    {
      "midi": 62,
      "hit": false,
      "t": 27433.678041666608,
      "d": 45.918375000001106,
      "v": 42
    },
    {
      "midi": 55,
      "hit": false,
      "t": 27443.882124999942,
      "d": 40.816333333332295,
      "v": 46
    },
    {
      "midi": 58,
      "hit": false,
      "t": 27454.086208333276,
      "d": 86.7347083333334,
      "v": 33
    },
    {
      "midi": 74,
      "hit": false,
      "t": 27540.82091666661,
      "d": 142.85716666666485,
      "v": 90
    },
    {
      "midi": 70,
      "hit": false,
      "t": 27724.494416666606,
      "d": 91.83674999999857,
      "v": 60
    },
    {
      "midi": 58,
      "hit": false,
      "t": 27739.800541666606,
      "d": 71.42858333333425,
      "v": 34
    },
    {
      "midi": 69,
      "hit": false,
      "t": 27857.147499999937,
      "d": 71.42858333333425,
      "v": 55
    },
    {
      "midi": 63,
      "hit": false,
      "t": 28142.86183333327,
      "d": 341.8367916666648,
      "v": 50
    },
    {
      "midi": 70,
      "hit": false,
      "t": 28142.86183333327,
      "d": 438.77558333332854,
      "v": 75
    },
    {
      "midi": 55,
      "hit": false,
      "t": 28158.16795833327,
      "d": 331.6327083333308,
      "v": 38
    },
    {
      "midi": 58,
      "hit": false,
      "t": 28168.372041666604,
      "d": 397.95924999999625,
      "v": 42
    },
    {
      "midi": 69,
      "hit": false,
      "t": 28678.576208333267,
      "d": 117.34695833333171,
      "v": 69
    },
    {
      "midi": 71,
      "hit": false,
      "t": 28683.67824999993,
      "d": 107.14287500000137,
      "v": 73
    },
    {
      "midi": 63,
      "hit": false,
      "t": 28704.0864166666,
      "d": 285.714333333337,
      "v": 52
    },
    {
      "midi": 70,
      "hit": false,
      "t": 28877.555833333266,
      "d": 102.0408333333362,
      "v": 42
    },
    {
      "midi": 69,
      "hit": false,
      "t": 28933.6782916666,
      "d": 86.7347083333334,
      "v": 60
    },
    {
      "midi": 67,
      "hit": false,
      "t": 29015.31095833327,
      "d": 51.02041666666628,
      "v": 64
    },
    {
      "midi": 69,
      "hit": false,
      "t": 29122.45383333327,
      "d": 153.06124999999884,
      "v": 84
    },
    {
      "midi": 64,
      "hit": false,
      "t": 29122.45383333327,
      "d": 234.69391666666343,
      "v": 43
    },
    {
      "midi": 55,
      "hit": false,
      "t": 29137.75995833327,
      "d": 295.9184166666637,
      "v": 32
    },
    {
      "midi": 58,
      "hit": false,
      "t": 29137.75995833327,
      "d": 295.9184166666637,
      "v": 35
    },
    {
      "midi": 70,
      "hit": false,
      "t": 29311.229374999937,
      "d": 81.63266666666459,
      "v": 57
    },
    {
      "midi": 69,
      "hit": false,
      "t": 29352.04570833327,
      "d": 127.5510416666657,
      "v": 40
    },
    {
      "midi": 67,
      "hit": false,
      "t": 29428.57633333327,
      "d": 132.6530833333345,
      "v": 56
    },
    {
      "midi": 66,
      "hit": false,
      "t": 29617.35187499994,
      "d": 86.7347083333334,
      "v": 59
    },
    {
      "midi": 69,
      "hit": false,
      "t": 29750.004958333273,
      "d": 127.5510416666657,
      "v": 76
    },
    {
      "midi": 66,
      "hit": false,
      "t": 29903.06620833327,
      "d": 71.42858333333425,
      "v": 47
    },
    {
      "midi": 58,
      "hit": false,
      "t": 30005.107041666604,
      "d": 275.51024999999936,
      "v": 15
    },
    {
      "midi": 67,
      "hit": false,
      "t": 30040.82133333327,
      "d": 137.75512499999968,
      "v": 58
    },
    {
      "midi": 62,
      "hit": false,
      "t": 30224.494833333272,
      "d": 40.816333333332295,
      "v": 27
    },
    {
      "midi": 62,
      "hit": false,
      "t": 30612.249999999938,
      "d": 45.918375000001106,
      "v": 61
    },
    {
      "midi": 58,
      "hit": false,
      "t": 30622.454083333272,
      "d": 71.42858333333425,
      "v": 42
    },
    {
      "midi": 52,
      "hit": false,
      "t": 30632.658166666606,
      "d": 35.71429166666712,
      "v": 37
    },
    {
      "midi": 67,
      "hit": false,
      "t": 30928.576583333273,
      "d": 137.75512499999968,
      "v": 96
    },
    {
      "midi": 66,
      "hit": false,
      "t": 31102.04599999994,
      "d": 102.04083333333256,
      "v": 52
    },
    {
      "midi": 62,
      "hit": false,
      "t": 31234.69908333327,
      "d": 86.73470833332976,
      "v": 29
    },
    {
      "midi": 67,
      "hit": false,
      "t": 31239.801124999936,
      "d": 112.2449166666629,
      "v": 52
    },
    {
      "midi": 58,
      "hit": false,
      "t": 31255.107249999935,
      "d": 137.75512499999604,
      "v": 32
    },
    {
      "midi": 69,
      "hit": false,
      "t": 31418.372583333265,
      "d": 102.04083333333256,
      "v": 74
    },
    {
      "midi": 70,
      "hit": false,
      "t": 31581.637916666597,
      "d": 96.93879166666738,
      "v": 37
    },
    {
      "midi": 71,
      "hit": false,
      "t": 31704.086916666598,
      "d": 102.04083333333256,
      "v": 37
    },
    {
      "midi": 63,
      "hit": false,
      "t": 31831.637958333264,
      "d": 142.8571666666685,
      "v": 37
    },
    {
      "midi": 72,
      "hit": false,
      "t": 31846.944083333263,
      "d": 244.89800000000469,
      "v": 53
    },
    {
      "midi": 60,
      "hit": false,
      "t": 31857.148166666597,
      "d": 204.08166666666875,
      "v": 26
    },
    {
      "midi": 55,
      "hit": false,
      "t": 31867.35224999993,
      "d": 71.42858333333425,
      "v": 28
    },
    {
      "midi": 57,
      "hit": false,
      "t": 31877.556333333265,
      "d": 204.08166666666875,
      "v": 42
    },
    {
      "midi": 69,
      "hit": false,
      "t": 32147.964541666603,
      "d": 96.93879166666738,
      "v": 41
    },
    {
      "midi": 63,
      "hit": false,
      "t": 32454.087041666604,
      "d": 117.34695833333535,
      "v": 34
    },
    {
      "midi": 67,
      "hit": false,
      "t": 32464.291124999938,
      "d": 61.22450000000026,
      "v": 37
    },
    {
      "midi": 55,
      "hit": false,
      "t": 32469.393166666603,
      "d": 45.918375000001106,
      "v": 26
    },
    {
      "midi": 72,
      "hit": false,
      "t": 32637.760541666605,
      "d": 112.24491666666654,
      "v": 42
    },
    {
      "midi": 75,
      "hit": false,
      "t": 32760.209541666605,
      "d": 71.42858333333425,
      "v": 62
    },
    {
      "midi": 79,
      "hit": false,
      "t": 32933.67895833327,
      "d": 71.42858333332697,
      "v": 79
    },
    {
      "midi": 64,
      "hit": false,
      "t": 32954.08712499994,
      "d": 40.81633333332866,
      "v": 57
    },
    {
      "midi": 54,
      "hit": false,
      "t": 32964.29120833327,
      "d": 61.224499999996624,
      "v": 31
    },
    {
      "midi": 60,
      "hit": false,
      "t": 32969.393249999936,
      "d": 51.02041666666628,
      "v": 39
    },
    {
      "midi": 84,
      "hit": false,
      "t": 33081.6381666666,
      "d": 61.224499999996624,
      "v": 74
    },
    {
      "midi": 87,
      "hit": false,
      "t": 33224.49533333326,
      "d": 81.63266666666459,
      "v": 77
    },
    {
      "midi": 85,
      "hit": false,
      "t": 33239.80145833326,
      "d": 30.612249999998312,
      "v": 40
    },
    {
      "midi": 64,
      "hit": false,
      "t": 33346.94433333326,
      "d": 270.4082083333269,
      "v": 50
    },
    {
      "midi": 60,
      "hit": false,
      "t": 33352.046374999925,
      "d": 392.8572083333347,
      "v": 51
    },
    {
      "midi": 54,
      "hit": false,
      "t": 33357.14841666659,
      "d": 357.14291666666395,
      "v": 34
    },
    {
      "midi": 89,
      "hit": false,
      "t": 33362.250458333256,
      "d": 198.97962499999994,
      "v": 82
    },
    {
      "midi": 85,
      "hit": false,
      "t": 33663.27091666659,
      "d": 35.714291666663485,
      "v": 49
    },
    {
      "midi": 86,
      "hit": false,
      "t": 33729.59745833326,
      "d": 86.73470833333704,
      "v": 55
    },
    {
      "midi": 60,
      "hit": false,
      "t": 33841.84237499993,
      "d": 107.14287499999773,
      "v": 47
    },
    {
      "midi": 54,
      "hit": false,
      "t": 33852.04645833326,
      "d": 153.06124999999884,
      "v": 29
    },
    {
      "midi": 87,
      "hit": false,
      "t": 33908.16891666659,
      "d": 112.24491666667018,
      "v": 91
    },
    {
      "midi": 86,
      "hit": false,
      "t": 34117.35262499993,
      "d": 102.04083333333256,
      "v": 80
    },
    {
      "midi": 84,
      "hit": false,
      "t": 34239.80162499993,
      "d": 96.93879166666738,
      "v": 68
    },
    {
      "midi": 58,
      "hit": false,
      "t": 34275.51591666659,
      "d": 280.61229166666453,
      "v": 40
    },
    {
      "midi": 62,
      "hit": false,
      "t": 34290.82204166659,
      "d": 260.20412499999657,
      "v": 30
    },
    {
      "midi": 53,
      "hit": false,
      "t": 34306.1281666666,
      "d": 229.59187499999825,
      "v": 19
    },
    {
      "midi": 55,
      "hit": false,
      "t": 34331.63837499993,
      "d": 214.28574999999546,
      "v": 27
    },
    {
      "midi": 82,
      "hit": false,
      "t": 34382.658791666596,
      "d": 117.34695833333535,
      "v": 51
    },
    {
      "midi": 82,
      "hit": false,
      "t": 34617.35270833325,
      "d": 188.7755416666696,
      "v": 62
    },
    {
      "midi": 61,
      "hit": false,
      "t": 34903.06704166659,
      "d": 229.59187500000553,
      "v": 46
    },
    {
      "midi": 82,
      "hit": false,
      "t": 34918.37316666659,
      "d": 158.16329166667128,
      "v": 57
    },
    {
      "midi": 55,
      "hit": false,
      "t": 34918.37316666659,
      "d": 178.57145833333925,
      "v": 53
    },
    {
      "midi": 53,
      "hit": false,
      "t": 34918.37316666659,
      "d": 183.67350000000442,
      "v": 35
    },
    {
      "midi": 58,
      "hit": false,
      "t": 34938.78133333326,
      "d": 214.28575000000274,
      "v": 32
    },
    {
      "midi": 60,
      "hit": false,
      "t": 35387.760999999926,
      "d": 71.42858333333425,
      "v": 43
    },
    {
      "midi": 58,
      "hit": false,
      "t": 35387.760999999926,
      "d": 112.24491666667018,
      "v": 20
    },
    {
      "midi": 60,
      "hit": false,
      "t": 35678.57737499993,
      "d": 30.612249999998312,
      "v": 57
    },
    {
      "midi": 58,
      "hit": false,
      "t": 35678.57737499993,
      "d": 40.81633333332866,
      "v": 47
    },
    {
      "midi": 52,
      "hit": false,
      "t": 35709.189624999926,
      "d": 35.714291666663485,
      "v": 19
    },
    {
      "midi": 73,
      "hit": false,
      "t": 35801.02637499992,
      "d": 122.44900000000052,
      "v": 80
    },
    {
      "midi": 85,
      "hit": false,
      "t": 35801.02637499992,
      "d": 127.5510416666657,
      "v": 87
    },
    {
      "midi": 82,
      "hit": false,
      "t": 35806.12841666659,
      "d": 127.5510416666657,
      "v": 74
    },
    {
      "midi": 58,
      "hit": false,
      "t": 35943.88354166658,
      "d": 61.224499999996624,
      "v": 30
    },
    {
      "midi": 85,
      "hit": false,
      "t": 35979.597833333246,
      "d": 117.34695833333535,
      "v": 64
    },
    {
      "midi": 73,
      "hit": false,
      "t": 35994.90395833325,
      "d": 81.63266666666459,
      "v": 48
    },
    {
      "midi": 82,
      "hit": false,
      "t": 35994.90395833325,
      "d": 219.3877916666679,
      "v": 46
    },
    {
      "midi": 84,
      "hit": false,
      "t": 36122.454999999914,
      "d": 91.83675000000221,
      "v": 52
    },
    {
      "midi": 72,
      "hit": false,
      "t": 36142.86316666658,
      "d": 81.63266666666459,
      "v": 36
    },
    {
      "midi": 72,
      "hit": false,
      "t": 36295.92441666658,
      "d": 45.91837499999383,
      "v": 53
    },
    {
      "midi": 84,
      "hit": false,
      "t": 36295.92441666658,
      "d": 45.91837499999383,
      "v": 64
    },
    {
      "midi": 58,
      "hit": false,
      "t": 36326.53666666658,
      "d": 112.2449166666629,
      "v": 44
    },
    {
      "midi": 60,
      "hit": false,
      "t": 36336.74074999991,
      "d": 45.918375000001106,
      "v": 39
    },
    {
      "midi": 70,
      "hit": false,
      "t": 36428.57749999991,
      "d": 112.2449166666629,
      "v": 50
    },
    {
      "midi": 82,
      "hit": false,
      "t": 36602.04691666657,
      "d": 107.14287499999773,
      "v": 55
    },
    {
      "midi": 70,
      "hit": false,
      "t": 36612.2509999999,
      "d": 76.53062499999942,
      "v": 52
    },
    {
      "midi": 57,
      "hit": false,
      "t": 36724.49591666657,
      "d": 250.00004166665167,
      "v": 46
    },
    {
      "midi": 60,
      "hit": false,
      "t": 36734.6999999999,
      "d": 183.67349999998987,
      "v": 29
    },
    {
      "midi": 81,
      "hit": false,
      "t": 36739.80204166657,
      "d": 122.44899999999325,
      "v": 60
    },
    {
      "midi": 53,
      "hit": false,
      "t": 36744.90408333323,
      "d": 321.4286249999859,
      "v": 20
    },
    {
      "midi": 69,
      "hit": false,
      "t": 36755.10816666656,
      "d": 81.63266666666459,
      "v": 51
    },
    {
      "midi": 81,
      "hit": false,
      "t": 37030.618416666555,
      "d": 132.65308333333087,
      "v": 64
    },
    {
      "midi": 69,
      "hit": false,
      "t": 37056.12862499989,
      "d": 81.63266666666459,
      "v": 57
    },
    {
      "midi": 80,
      "hit": false,
      "t": 37244.90416666655,
      "d": 61.224499999996624,
      "v": 21
    },
    {
      "midi": 53,
      "hit": false,
      "t": 37346.94499999988,
      "d": 260.20412500000384,
      "v": 29
    },
    {
      "midi": 57,
      "hit": false,
      "t": 37362.251124999886,
      "d": 188.7755416666696,
      "v": 34
    },
    {
      "midi": 81,
      "hit": false,
      "t": 37362.251124999886,
      "d": 193.87758333333477,
      "v": 60
    },
    {
      "midi": 60,
      "hit": false,
      "t": 37382.659291666554,
      "d": 96.93879166666738,
      "v": 24
    },
    {
      "midi": 79,
      "hit": false,
      "t": 37663.27158333322,
      "d": 56.12245833333145,
      "v": 36
    },
    {
      "midi": 52,
      "hit": false,
      "t": 37969.394083333216,
      "d": 96.93879166666738,
      "v": 47
    },
    {
      "midi": 60,
      "hit": false,
      "t": 37984.70020833322,
      "d": 56.12245833333145,
      "v": 27
    },
    {
      "midi": 81,
      "hit": false,
      "t": 38438.78191666655,
      "d": 209.1837083333303,
      "v": 71
    },
    {
      "midi": 69,
      "hit": false,
      "t": 38443.883958333216,
      "d": 229.59187499999825,
      "v": 77
    },
    {
      "midi": 52,
      "hit": false,
      "t": 38479.59824999988,
      "d": 408.16333333332295,
      "v": 35
    },
    {
      "midi": 60,
      "hit": false,
      "t": 38484.700291666544,
      "d": 392.85720833332743,
      "v": 28
    },
    {
      "midi": 80,
      "hit": false,
      "t": 38739.80237499988,
      "d": 61.224499999996624,
      "v": 28
    },
    {
      "midi": 81,
      "hit": false,
      "t": 38862.251374999876,
      "d": 244.89799999999377,
      "v": 71
    },
    {
      "midi": 69,
      "hit": false,
      "t": 38872.45545833321,
      "d": 178.57145833333198,
      "v": 66
    },
    {
      "midi": 60,
      "hit": false,
      "t": 39178.577958333204,
      "d": 117.34695833332808,
      "v": 36
    },
    {
      "midi": 50,
      "hit": false,
      "t": 39178.577958333204,
      "d": 158.16329166665673,
      "v": 37
    },
    {
      "midi": 69,
      "hit": false,
      "t": 39183.67999999987,
      "d": 66.3265416666618,
      "v": 50
    },
    {
      "midi": 77,
      "hit": false,
      "t": 39188.782041666534,
      "d": 102.04083333333256,
      "v": 48
    },
    {
      "midi": 57,
      "hit": false,
      "t": 39193.8840833332,
      "d": 107.14287499999773,
      "v": 46
    },
    {
      "midi": 60,
      "hit": false,
      "t": 39663.27191666653,
      "d": 35.714291666663485,
      "v": 37
    },
    {
      "midi": 50,
      "hit": false,
      "t": 39663.27191666653,
      "d": 51.02041666666628,
      "v": 36
    },
    {
      "midi": 57,
      "hit": false,
      "t": 39673.47599999986,
      "d": 86.73470833333704,
      "v": 52
    },
    {
      "midi": 81,
      "hit": false,
      "t": 39780.61887499986,
      "d": 117.34695833333535,
      "v": 90
    },
    {
      "midi": 81,
      "hit": false,
      "t": 40086.74137499987,
      "d": 168.36737500000163,
      "v": 80
    },
    {
      "midi": 80,
      "hit": false,
      "t": 40270.41487499987,
      "d": 76.53062499999942,
      "v": 46
    },
    {
      "midi": 48,
      "hit": false,
      "t": 40382.659791666534,
      "d": 285.714333333337,
      "v": 37
    },
    {
      "midi": 57,
      "hit": false,
      "t": 40392.863874999864,
      "d": 352.04087500000605,
      "v": 32
    },
    {
      "midi": 81,
      "hit": false,
      "t": 40408.16999999987,
      "d": 122.44900000000052,
      "v": 53
    },
    {
      "midi": 82,
      "hit": false,
      "t": 40729.59862499987,
      "d": 61.2245000000039,
      "v": 68
    },
    {
      "midi": 81,
      "hit": false,
      "t": 41025.517041666535,
      "d": 168.36737500000163,
      "v": 95
    },
    {
      "midi": 82,
      "hit": false,
      "t": 41214.292583333205,
      "d": 91.83674999999494,
      "v": 56
    },
    {
      "midi": 81,
      "hit": false,
      "t": 41270.415041666536,
      "d": 112.2449166666629,
      "v": 60
    },
    {
      "midi": 80,
      "hit": false,
      "t": 41377.557916666534,
      "d": 96.93879166666738,
      "v": 37
    },
    {
      "midi": 81,
      "hit": false,
      "t": 41545.925291666535,
      "d": 219.38779166666063,
      "v": 64
    },
    {
      "midi": 65,
      "hit": false,
      "t": 41576.537541666534,
      "d": 209.1837083333303,
      "v": 45
    },
    {
      "midi": 62,
      "hit": false,
      "t": 41586.741624999864,
      "d": 214.28575000000274,
      "v": 39
    },
    {
      "midi": 57,
      "hit": false,
      "t": 41596.945708333194,
      "d": 173.4694166666668,
      "v": 32
    },
    {
      "midi": 77,
      "hit": false,
      "t": 41821.435541666535,
      "d": 76.53062499999942,
      "v": 27
    },
    {
      "midi": 77,
      "hit": false,
      "t": 41979.5988333332,
      "d": 117.34695833333535,
      "v": 62
    },
    {
      "midi": 65,
      "hit": false,
      "t": 42234.70091666654,
      "d": 107.14287499999773,
      "v": 33
    },
    {
      "midi": 77,
      "hit": false,
      "t": 42239.8029583332,
      "d": 147.95920833333366,
      "v": 50
    },
    {
      "midi": 62,
      "hit": false,
      "t": 42244.90499999987,
      "d": 122.44900000000052,
      "v": 38
    },
    {
      "midi": 57,
      "hit": false,
      "t": 42275.517249999866,
      "d": 81.63266666667187,
      "v": 16
    },
    {
      "midi": 74,
      "hit": false,
      "t": 42515.3132083332,
      "d": 81.63266666666459,
      "v": 43
    },
    {
      "midi": 65,
      "hit": false,
      "t": 42714.2928333332,
      "d": 45.91837499999383,
      "v": 44
    },
    {
      "midi": 57,
      "hit": false,
      "t": 42719.39487499987,
      "d": 71.42858333332697,
      "v": 36
    },
    {
      "midi": 62,
      "hit": false,
      "t": 42729.5989583332,
      "d": 51.02041666666628,
      "v": 44
    },
    {
      "midi": 57,
      "hit": false,
      "t": 43173.47658333319,
      "d": 122.44899999999325,
      "v": 53
    },
    {
      "midi": 65,
      "hit": false,
      "t": 43178.57862499986,
      "d": 81.63266666666459,
      "v": 42
    },
    {
      "midi": 62,
      "hit": false,
      "t": 43183.68066666652,
      "d": 102.04083333333256,
      "v": 46
    },
    {
      "midi": 62,
      "hit": false,
      "t": 43693.884833333184,
      "d": 127.5510416666657,
      "v": 43
    },
    {
      "midi": 56,
      "hit": false,
      "t": 43693.884833333184,
      "d": 137.75512499999604,
      "v": 31
    },
    {
      "midi": 65,
      "hit": false,
      "t": 43698.98687499985,
      "d": 91.83675000000221,
      "v": 33
    },
    {
      "midi": 65,
      "hit": false,
      "t": 44081.63999999985,
      "d": 81.63266666666459,
      "v": 49
    },
    {
      "midi": 62,
      "hit": false,
      "t": 44096.94612499985,
      "d": 168.36737499999435,
      "v": 49
    },
    {
      "midi": 56,
      "hit": false,
      "t": 44107.15020833318,
      "d": 117.34695833332808,
      "v": 28
    },
    {
      "midi": 75,
      "hit": false,
      "t": 44408.17066666651,
      "d": 178.5714583333247,
      "v": 70
    },
    {
      "midi": 63,
      "hit": false,
      "t": 44418.37474999984,
      "d": 112.2449166666629,
      "v": 77
    },
    {
      "midi": 70,
      "hit": false,
      "t": 44423.47679166651,
      "d": 127.5510416666657,
      "v": 62
    },
    {
      "midi": 64,
      "hit": false,
      "t": 44602.04824999984,
      "d": 76.53062499999214,
      "v": 68
    },
    {
      "midi": 76,
      "hit": false,
      "t": 44602.04824999984,
      "d": 96.93879166666011,
      "v": 69
    },
    {
      "midi": 73,
      "hit": false,
      "t": 44632.66049999984,
      "d": 71.42858333332697,
      "v": 23
    },
    {
      "midi": 56,
      "hit": false,
      "t": 44637.7625416665,
      "d": 102.04083333332528,
      "v": 37
    },
    {
      "midi": 62,
      "hit": false,
      "t": 44647.96662499983,
      "d": 56.12245833333145,
      "v": 49
    },
    {
      "midi": 64,
      "hit": false,
      "t": 44765.31358333316,
      "d": 76.5306250000067,
      "v": 51
    },
    {
      "midi": 76,
      "hit": false,
      "t": 44765.31358333316,
      "d": 117.34695833333535,
      "v": 70
    },
    {
      "midi": 71,
      "hit": false,
      "t": 44780.619708333164,
      "d": 96.93879166666738,
      "v": 52
    },
    {
      "midi": 73,
      "hit": false,
      "t": 44795.92583333317,
      "d": 71.42858333333425,
      "v": 19
    },
    {
      "midi": 68,
      "hit": false,
      "t": 45020.4156666665,
      "d": 86.73470833332976,
      "v": 74
    },
    {
      "midi": 80,
      "hit": false,
      "t": 45020.4156666665,
      "d": 107.14287499999773,
      "v": 71
    },
    {
      "midi": 80,
      "hit": false,
      "t": 45188.783041666495,
      "d": 96.93879166666738,
      "v": 49
    },
    {
      "midi": 68,
      "hit": false,
      "t": 45193.88508333316,
      "d": 76.53062499999942,
      "v": 60
    },
    {
      "midi": 56,
      "hit": false,
      "t": 45214.29324999983,
      "d": 96.93879166666738,
      "v": 42
    },
    {
      "midi": 65,
      "hit": false,
      "t": 45224.49733333316,
      "d": 40.81633333333593,
      "v": 36
    },
    {
      "midi": 62,
      "hit": false,
      "t": 45224.49733333316,
      "d": 112.24491666667018,
      "v": 50
    },
    {
      "midi": 80,
      "hit": false,
      "t": 45352.04837499983,
      "d": 117.34695833332808,
      "v": 47
    },
    {
      "midi": 68,
      "hit": false,
      "t": 45367.354499999834,
      "d": 66.3265416666618,
      "v": 59
    },
    {
      "midi": 75,
      "hit": false,
      "t": 45403.0687916665,
      "d": 40.81633333332866,
      "v": 26
    },
    {
      "midi": 62,
      "hit": false,
      "t": 45510.211666666495,
      "d": 86.73470833332976,
      "v": 53
    },
    {
      "midi": 82,
      "hit": false,
      "t": 45602.04841666649,
      "d": 66.3265416666618,
      "v": 69
    },
    {
      "midi": 70,
      "hit": false,
      "t": 45612.25249999982,
      "d": 61.224499999996624,
      "v": 71
    },
    {
      "midi": 83,
      "hit": false,
      "t": 45678.57904166648,
      "d": 35.714291666663485,
      "v": 32
    },
    {
      "midi": 71,
      "hit": false,
      "t": 45688.78312499981,
      "d": 40.81633333333593,
      "v": 53
    },
    {
      "midi": 76,
      "hit": false,
      "t": 45698.98720833314,
      "d": 40.81633333333593,
      "v": 26
    },
    {
      "midi": 79,
      "hit": false,
      "t": 45698.98720833314,
      "d": 45.918375000001106,
      "v": 25
    },
    {
      "midi": 62,
      "hit": false,
      "t": 45780.61987499981,
      "d": 96.93879166666011,
      "v": 44
    },
    {
      "midi": 71,
      "hit": false,
      "t": 45811.232124999806,
      "d": 76.53062499999214,
      "v": 64
    },
    {
      "midi": 83,
      "hit": false,
      "t": 45816.33416666647,
      "d": 61.224499999996624,
      "v": 50
    },
    {
      "midi": 76,
      "hit": false,
      "t": 45816.33416666647,
      "d": 66.3265416666618,
      "v": 46
    },
    {
      "midi": 79,
      "hit": false,
      "t": 45816.33416666647,
      "d": 71.42858333332697,
      "v": 37
    },
    {
      "midi": 81,
      "hit": false,
      "t": 45841.844374999804,
      "d": 40.81633333332866,
      "v": 32
    },
    {
      "midi": 71,
      "hit": false,
      "t": 45948.987249999795,
      "d": 76.53062499999942,
      "v": 71
    },
    {
      "midi": 83,
      "hit": false,
      "t": 45948.987249999795,
      "d": 102.04083333332528,
      "v": 61
    },
    {
      "midi": 76,
      "hit": false,
      "t": 45964.2933749998,
      "d": 66.3265416666618,
      "v": 55
    },
    {
      "midi": 81,
      "hit": false,
      "t": 45969.39541666646,
      "d": 56.12245833333145,
      "v": 37
    },
    {
      "midi": 79,
      "hit": false,
      "t": 45974.49745833313,
      "d": 66.3265416666618,
      "v": 30
    },
    {
      "midi": 56,
      "hit": false,
      "t": 46112.25258333312,
      "d": 76.53062499999214,
      "v": 42
    },
    {
      "midi": 62,
      "hit": false,
      "t": 46112.25258333312,
      "d": 86.73470833332249,
      "v": 56
    },
    {
      "midi": 65,
      "hit": false,
      "t": 46117.35462499978,
      "d": 35.714291666663485,
      "v": 38
    },
    {
      "midi": 86,
      "hit": false,
      "t": 46198.98729166644,
      "d": 107.14287499999773,
      "v": 80
    },
    {
      "midi": 74,
      "hit": false,
      "t": 46214.29341666644,
      "d": 81.63266666666459,
      "v": 58
    },
    {
      "midi": 79,
      "hit": false,
      "t": 46214.29341666644,
      "d": 91.83674999999494,
      "v": 59
    },
    {
      "midi": 83,
      "hit": false,
      "t": 46219.39545833311,
      "d": 117.34695833332808,
      "v": 56
    },
    {
      "midi": 86,
      "hit": false,
      "t": 46397.96691666643,
      "d": 96.93879166666738,
      "v": 75
    },
    {
      "midi": 74,
      "hit": false,
      "t": 46418.3750833331,
      "d": 71.42858333333425,
      "v": 72
    },
    {
      "midi": 79,
      "hit": false,
      "t": 46418.3750833331,
      "d": 71.42858333333425,
      "v": 60
    },
    {
      "midi": 83,
      "hit": false,
      "t": 46418.3750833331,
      "d": 107.14287499999773,
      "v": 57
    },
    {
      "midi": 64,
      "hit": false,
      "t": 46500.007749999764,
      "d": 209.1837083333303,
      "v": 43
    },
    {
      "midi": 60,
      "hit": false,
      "t": 46520.41591666643,
      "d": 193.8775833333275,
      "v": 39
    },
    {
      "midi": 59,
      "hit": false,
      "t": 46530.61999999976,
      "d": 178.57145833333198,
      "v": 33
    },
    {
      "midi": 57,
      "hit": false,
      "t": 46540.82408333309,
      "d": 173.4694166666668,
      "v": 35
    },
    {
      "midi": 86,
      "hit": false,
      "t": 46561.23224999976,
      "d": 153.06124999999884,
      "v": 65
    },
    {
      "midi": 74,
      "hit": false,
      "t": 46581.64041666643,
      "d": 137.75512499999604,
      "v": 57
    },
    {
      "midi": 83,
      "hit": false,
      "t": 46586.742458333094,
      "d": 122.44900000000052,
      "v": 57
    },
    {
      "midi": 79,
      "hit": false,
      "t": 46586.742458333094,
      "d": 147.95920833333366,
      "v": 46
    },
    {
      "midi": 84,
      "hit": false,
      "t": 46831.640458333095,
      "d": 107.14287499999773,
      "v": 61
    },
    {
      "midi": 79,
      "hit": false,
      "t": 46846.9465833331,
      "d": 91.83674999999494,
      "v": 49
    },
    {
      "midi": 72,
      "hit": false,
      "t": 46857.15066666643,
      "d": 122.44900000000052,
      "v": 50
    },
    {
      "midi": 78,
      "hit": false,
      "t": 47127.55887499976,
      "d": 153.06124999999156,
      "v": 53
    },
    {
      "midi": 64,
      "hit": false,
      "t": 47127.55887499976,
      "d": 265.30616666665446,
      "v": 36
    },
    {
      "midi": 71,
      "hit": false,
      "t": 47137.76295833309,
      "d": 173.46941666665953,
      "v": 63
    },
    {
      "midi": 83,
      "hit": false,
      "t": 47142.86499999976,
      "d": 183.67349999999715,
      "v": 57
    },
    {
      "midi": 57,
      "hit": false,
      "t": 47147.96704166642,
      "d": 377.55108333332464,
      "v": 30
    },
    {
      "midi": 59,
      "hit": false,
      "t": 47153.06908333309,
      "d": 260.20412499999657,
      "v": 32
    },
    {
      "midi": 60,
      "hit": false,
      "t": 47158.17112499975,
      "d": 265.30616666666174,
      "v": 32
    },
    {
      "midi": 79,
      "hit": false,
      "t": 47265.31399999975,
      "d": 66.32654166666907,
      "v": 29
    },
    {
      "midi": 81,
      "hit": false,
      "t": 47433.681374999745,
      "d": 142.8571666666685,
      "v": 47
    },
    {
      "midi": 69,
      "hit": false,
      "t": 47454.08954166641,
      "d": 86.73470833333704,
      "v": 45
    },
    {
      "midi": 72,
      "hit": false,
      "t": 47760.21204166641,
      "d": 127.5510416666657,
      "v": 59
    },
    {
      "midi": 55,
      "hit": false,
      "t": 47760.21204166641,
      "d": 153.06124999999884,
      "v": 36
    },
    {
      "midi": 84,
      "hit": false,
      "t": 47765.314083333076,
      "d": 127.5510416666657,
      "v": 61
    },
    {
      "midi": 64,
      "hit": false,
      "t": 47765.314083333076,
      "d": 147.95920833333366,
      "v": 22
    },
    {
      "midi": 60,
      "hit": false,
      "t": 47785.722249999744,
      "d": 112.2449166666629,
      "v": 30
    },
    {
      "midi": 57,
      "hit": false,
      "t": 47831.640624999745,
      "d": 107.14287499999773,
      "v": 22
    },
    {
      "midi": 55,
      "hit": false,
      "t": 48229.599874999745,
      "d": 142.8571666666685,
      "v": 33
    },
    {
      "midi": 57,
      "hit": false,
      "t": 48239.803958333076,
      "d": 132.65308333333815,
      "v": 36
    },
    {
      "midi": 60,
      "hit": false,
      "t": 48244.90599999974,
      "d": 112.24491666667018,
      "v": 37
    },
    {
      "midi": 64,
      "hit": false,
      "t": 48244.90599999974,
      "d": 147.95920833334094,
      "v": 26
    },
    {
      "midi": 64,
      "hit": false,
      "t": 48658.17137499975,
      "d": 214.28574999999546,
      "v": 39
    },
    {
      "midi": 60,
      "hit": false,
      "t": 48663.273416666416,
      "d": 204.08166666666511,
      "v": 43
    },
    {
      "midi": 53,
      "hit": false,
      "t": 48663.273416666416,
      "d": 260.20412499999657,
      "v": 22
    },
    {
      "midi": 57,
      "hit": false,
      "t": 48668.37545833308,
      "d": 229.59187499999825,
      "v": 43
    },
    {
      "midi": 64,
      "hit": false,
      "t": 49163.27349999975,
      "d": 183.67350000000442,
      "v": 51
    },
    {
      "midi": 60,
      "hit": false,
      "t": 49178.57962499975,
      "d": 127.5510416666657,
      "v": 49
    },
    {
      "midi": 57,
      "hit": false,
      "t": 49178.57962499975,
      "d": 193.87758333333477,
      "v": 46
    },
    {
      "midi": 53,
      "hit": false,
      "t": 49183.681666666416,
      "d": 326.53066666666564,
      "v": 29
    },
    {
      "midi": 57,
      "hit": false,
      "t": 49454.08987499975,
      "d": 61.224499999996624,
      "v": 43
    },
    {
      "midi": 60,
      "hit": false,
      "t": 49474.49804166642,
      "d": 30.612249999998312,
      "v": 20
    },
    {
      "midi": 75,
      "hit": false,
      "t": 49479.60008333308,
      "d": 137.75512499999604,
      "v": 69
    },
    {
      "midi": 63,
      "hit": false,
      "t": 49484.70212499975,
      "d": 76.53062499999942,
      "v": 86
    },
    {
      "midi": 69,
      "hit": false,
      "t": 49500.00824999975,
      "d": 81.63266666666459,
      "v": 76
    },
    {
      "midi": 72,
      "hit": false,
      "t": 49510.21233333308,
      "d": 301.0204583333252,
      "v": 51
    },
    {
      "midi": 69,
      "hit": false,
      "t": 49622.457249999745,
      "d": 173.4694166666668,
      "v": 48
    },
    {
      "midi": 76,
      "hit": false,
      "t": 49627.55929166641,
      "d": 173.4694166666668,
      "v": 65
    },
    {
      "midi": 64,
      "hit": false,
      "t": 49632.661333333075,
      "d": 117.34695833333535,
      "v": 58
    },
    {
      "midi": 74,
      "hit": false,
      "t": 49647.96745833308,
      "d": 45.918375000001106,
      "v": 53
    },
    {
      "midi": 60,
      "hit": false,
      "t": 49821.43687499974,
      "d": 40.81633333332866,
      "v": 35
    },
    {
      "midi": 57,
      "hit": false,
      "t": 49826.5389166664,
      "d": 51.02041666666628,
      "v": 41
    },
    {
      "midi": 76,
      "hit": false,
      "t": 49897.96749999974,
      "d": 158.163291666664,
      "v": 66
    },
    {
      "midi": 64,
      "hit": false,
      "t": 49908.17158333307,
      "d": 102.04083333332528,
      "v": 68
    },
    {
      "midi": 69,
      "hit": false,
      "t": 49908.17158333307,
      "d": 117.34695833332808,
      "v": 72
    },
    {
      "midi": 72,
      "hit": false,
      "t": 49913.27362499973,
      "d": 127.5510416666657,
      "v": 37
    },
    {
      "midi": 74,
      "hit": false,
      "t": 49923.47770833306,
      "d": 117.34695833333535,
      "v": 39
    },
    {
      "midi": 57,
      "hit": false,
      "t": 50117.3552916664,
      "d": 51.02041666666628,
      "v": 33
    },
    {
      "midi": 62,
      "hit": false,
      "t": 50403.06962499973,
      "d": 30.612249999998312,
      "v": 53
    },
    {
      "midi": 60,
      "hit": false,
      "t": 50413.27370833306,
      "d": 56.12245833333145,
      "v": 43
    },
    {
      "midi": 57,
      "hit": false,
      "t": 50418.37574999972,
      "d": 96.93879166666738,
      "v": 45
    },
    {
      "midi": 72,
      "hit": false,
      "t": 50515.31454166639,
      "d": 122.44899999999325,
      "v": 77
    },
    {
      "midi": 65,
      "hit": false,
      "t": 50520.416583333055,
      "d": 81.63266666666459,
      "v": 81
    },
    {
      "midi": 77,
      "hit": false,
      "t": 50520.416583333055,
      "d": 142.85716666666121,
      "v": 74
    },
    {
      "midi": 60,
      "hit": false,
      "t": 50688.78395833305,
      "d": 40.81633333333593,
      "v": 34
    },
    {
      "midi": 57,
      "hit": false,
      "t": 50704.09008333305,
      "d": 51.02041666666628,
      "v": 29
    },
    {
      "midi": 77,
      "hit": false,
      "t": 50801.02887499972,
      "d": 147.95920833333366,
      "v": 75
    },
    {
      "midi": 74,
      "hit": false,
      "t": 50806.130916666385,
      "d": 102.04083333333256,
      "v": 73
    },
    {
      "midi": 69,
      "hit": false,
      "t": 50811.23295833305,
      "d": 71.42858333333425,
      "v": 80
    },
    {
      "midi": 81,
      "hit": false,
      "t": 50816.334999999715,
      "d": 112.24491666667018,
      "v": 64
    },
    {
      "midi": 57,
      "hit": false,
      "t": 51020.41666666639,
      "d": 117.34695833333535,
      "v": 44
    },
    {
      "midi": 88,
      "hit": false,
      "t": 51316.335083333055,
      "d": 112.2449166666629,
      "v": 81
    },
    {
      "midi": 83,
      "hit": false,
      "t": 51321.43712499972,
      "d": 127.5510416666657,
      "v": 72
    },
    {
      "midi": 76,
      "hit": false,
      "t": 51336.74324999972,
      "d": 86.73470833332976,
      "v": 44
    },
    {
      "midi": 88,
      "hit": false,
      "t": 51520.41674999972,
      "d": 137.75512499999604,
      "v": 74
    },
    {
      "midi": 83,
      "hit": false,
      "t": 51525.518791666385,
      "d": 163.26533333332918,
      "v": 62
    },
    {
      "midi": 76,
      "hit": false,
      "t": 51530.62083333305,
      "d": 137.75512499999604,
      "v": 68
    },
    {
      "midi": 57,
      "hit": false,
      "t": 51704.09024999972,
      "d": 66.3265416666618,
      "v": 42
    },
    {
      "midi": 53,
      "hit": false,
      "t": 51709.19229166638,
      "d": 96.93879166666738,
      "v": 49
    },
    {
      "midi": 88,
      "hit": false,
      "t": 51775.518833333044,
      "d": 91.83675000000949,
      "v": 50
    },
    {
      "midi": 86,
      "hit": false,
      "t": 51775.518833333044,
      "d": 112.24491666667018,
      "v": 63
    },
    {
      "midi": 74,
      "hit": false,
      "t": 51790.82495833305,
      "d": 86.73470833333704,
      "v": 42
    },
    {
      "midi": 81,
      "hit": false,
      "t": 51790.82495833305,
      "d": 102.04083333333256,
      "v": 54
    },
    {
      "midi": 76,
      "hit": false,
      "t": 51811.233124999715,
      "d": 40.81633333333593,
      "v": 36
    },
    {
      "midi": 86,
      "hit": false,
      "t": 51959.19233333305,
      "d": 168.36737500000163,
      "v": 68
    },
    {
      "midi": 74,
      "hit": false,
      "t": 51974.49845833305,
      "d": 132.65308333333087,
      "v": 57
    },
    {
      "midi": 81,
      "hit": false,
      "t": 51974.49845833305,
      "d": 153.06124999999884,
      "v": 54
    },
    {
      "midi": 60,
      "hit": false,
      "t": 52250.00870833305,
      "d": 61.224499999996624,
      "v": 62
    },
    {
      "midi": 57,
      "hit": false,
      "t": 52255.110749999716,
      "d": 51.02041666666628,
      "v": 46
    },
    {
      "midi": 53,
      "hit": false,
      "t": 52270.41687499972,
      "d": 61.224499999996624,
      "v": 33
    },
    {
      "midi": 50,
      "hit": false,
      "t": 52275.518916666384,
      "d": 30.612249999998312,
      "v": 22
    },
    {
      "midi": 53,
      "hit": false,
      "t": 52668.37612499972,
      "d": 81.63266666665731,
      "v": 31
    },
    {
      "midi": 64,
      "hit": false,
      "t": 52673.478166666384,
      "d": 66.3265416666618,
      "v": 45
    },
    {
      "midi": 60,
      "hit": false,
      "t": 52673.478166666384,
      "d": 71.42858333332697,
      "v": 50
    },
    {
      "midi": 57,
      "hit": false,
      "t": 52683.682249999714,
      "d": 71.42858333332697,
      "v": 39
    },
    {
      "midi": 64,
      "hit": false,
      "t": 53107.15170833304,
      "d": 96.93879166666011,
      "v": 35
    },
    {
      "midi": 53,
      "hit": false,
      "t": 53112.253749999705,
      "d": 51.02041666666628,
      "v": 26
    },
    {
      "midi": 60,
      "hit": false,
      "t": 53117.35579166637,
      "d": 91.83674999999494,
      "v": 44
    },
    {
      "midi": 57,
      "hit": false,
      "t": 53122.457833333036,
      "d": 71.42858333333425,
      "v": 41
    },
    {
      "midi": 62,
      "hit": false,
      "t": 53887.76408333303,
      "d": 71.42858333332697,
      "v": 49
    },
    {
      "midi": 53,
      "hit": false,
      "t": 53892.866124999695,
      "d": 71.42858333332697,
      "v": 44
    },
    {
      "midi": 59,
      "hit": false,
      "t": 53897.96816666636,
      "d": 56.12245833333145,
      "v": 42
    },
    {
      "midi": 55,
      "hit": false,
      "t": 53918.37633333303,
      "d": 45.91837499999383,
      "v": 44
    },
    {
      "midi": 62,
      "hit": false,
      "t": 54341.845791666354,
      "d": 30.612249999998312,
      "v": 63
    },
    {
      "midi": 59,
      "hit": false,
      "t": 54352.049874999684,
      "d": 45.918375000001106,
      "v": 50
    },
    {
      "midi": 55,
      "hit": false,
      "t": 54377.56008333302,
      "d": 35.71429166667076,
      "v": 27
    },
    {
      "midi": 78,
      "hit": false,
      "t": 54459.19274999969,
      "d": 127.5510416666657,
      "v": 56
    },
    {
      "midi": 66,
      "hit": false,
      "t": 54474.49887499969,
      "d": 96.93879166666011,
      "v": 67
    },
    {
      "midi": 73,
      "hit": false,
      "t": 54484.70295833302,
      "d": 117.34695833333535,
      "v": 35
    },
    {
      "midi": 67,
      "hit": false,
      "t": 54653.070333333024,
      "d": 66.3265416666618,
      "v": 70
    },
    {
      "midi": 79,
      "hit": false,
      "t": 54653.070333333024,
      "d": 102.04083333333256,
      "v": 55
    },
    {
      "midi": 77,
      "hit": false,
      "t": 54673.47849999969,
      "d": 66.3265416666618,
      "v": 37
    },
    {
      "midi": 74,
      "hit": false,
      "t": 54683.68258333302,
      "d": 35.714291666663485,
      "v": 57
    },
    {
      "midi": 62,
      "hit": false,
      "t": 54959.19283333302,
      "d": 30.612249999998312,
      "v": 52
    },
    {
      "midi": 59,
      "hit": false,
      "t": 54959.19283333302,
      "d": 40.81633333332866,
      "v": 50
    },
    {
      "midi": 53,
      "hit": false,
      "t": 54969.39691666635,
      "d": 35.714291666663485,
      "v": 33
    },
    {
      "midi": 82,
      "hit": false,
      "t": 55066.33570833301,
      "d": 137.75512499999604,
      "v": 61
    },
    {
      "midi": 70,
      "hit": false,
      "t": 55076.53979166634,
      "d": 112.2449166666629,
      "v": 73
    },
    {
      "midi": 76,
      "hit": false,
      "t": 55102.049999999675,
      "d": 86.73470833332976,
      "v": 43
    },
    {
      "midi": 76,
      "hit": false,
      "t": 55265.315333333005,
      "d": 86.73470833333704,
      "v": 68
    },
    {
      "midi": 83,
      "hit": false,
      "t": 55265.315333333005,
      "d": 117.34695833333535,
      "v": 66
    },
    {
      "midi": 71,
      "hit": false,
      "t": 55270.41737499967,
      "d": 40.81633333333593,
      "v": 68
    },
    {
      "midi": 79,
      "hit": false,
      "t": 55295.927583333,
      "d": 40.81633333333593,
      "v": 29
    },
    {
      "midi": 81,
      "hit": false,
      "t": 55311.233708333006,
      "d": 51.02041666666628,
      "v": 25
    },
    {
      "midi": 62,
      "hit": false,
      "t": 55566.33579166634,
      "d": 30.612249999998312,
      "v": 77
    },
    {
      "midi": 56,
      "hit": false,
      "t": 55566.33579166634,
      "d": 61.224499999996624,
      "v": 59
    },
    {
      "midi": 53,
      "hit": false,
      "t": 55581.64191666634,
      "d": 40.81633333332866,
      "v": 53
    },
    {
      "midi": 59,
      "hit": false,
      "t": 55586.743958333005,
      "d": 30.612249999998312,
      "v": 48
    },
    {
      "midi": 85,
      "hit": false,
      "t": 55678.580708333,
      "d": 147.9592083333264,
      "v": 71
    },
    {
      "midi": 80,
      "hit": false,
      "t": 55688.78479166633,
      "d": 127.5510416666657,
      "v": 65
    },
    {
      "midi": 73,
      "hit": false,
      "t": 55688.78479166633,
      "d": 132.65308333333087,
      "v": 58
    },
    {
      "midi": 80,
      "hit": false,
      "t": 55872.45829166633,
      "d": 81.63266666666459,
      "v": 60
    },
    {
      "midi": 86,
      "hit": false,
      "t": 55887.76441666633,
      "d": 102.04083333332528,
      "v": 64
    },
    {
      "midi": 74,
      "hit": false,
      "t": 55897.96849999966,
      "d": 71.42858333333425,
      "v": 44
    },
    {
      "midi": 82,
      "hit": false,
      "t": 55903.070541666326,
      "d": 76.53062499999942,
      "v": 35
    },
    {
      "midi": 84,
      "hit": false,
      "t": 55908.17258333299,
      "d": 45.918375000001106,
      "v": 37
    },
    {
      "midi": 81,
      "hit": false,
      "t": 55923.478708332994,
      "d": 61.224499999996624,
      "v": 54
    },
    {
      "midi": 87,
      "hit": false,
      "t": 56163.27466666632,
      "d": 45.918375000001106,
      "v": 29
    },
    {
      "midi": 56,
      "hit": false,
      "t": 56188.784874999656,
      "d": 40.81633333333593,
      "v": 43
    },
    {
      "midi": 77,
      "hit": false,
      "t": 56311.233874999656,
      "d": 91.83674999998766,
      "v": 67
    },
    {
      "midi": 62,
      "hit": false,
      "t": 56311.233874999656,
      "d": 102.040833333318,
      "v": 70
    },
    {
      "midi": 59,
      "hit": false,
      "t": 56311.233874999656,
      "d": 107.14287499998318,
      "v": 67
    },
    {
      "midi": 89,
      "hit": false,
      "t": 56311.233874999656,
      "d": 107.14287499998318,
      "v": 69
    },
    {
      "midi": 53,
      "hit": false,
      "t": 56321.43795833299,
      "d": 30.612249999998312,
      "v": 55
    },
    {
      "midi": 86,
      "hit": false,
      "t": 56321.43795833299,
      "d": 86.73470833332249,
      "v": 57
    },
    {
      "midi": 56,
      "hit": false,
      "t": 56326.53999999965,
      "d": 112.24491666665563,
      "v": 47
    },
    {
      "midi": 84,
      "hit": false,
      "t": 56331.64204166632,
      "d": 30.612249999998312,
      "v": 47
    },
    {
      "midi": 83,
      "hit": false,
      "t": 56331.64204166632,
      "d": 40.81633333332866,
      "v": 43
    },
    {
      "midi": 62,
      "hit": false,
      "t": 56627.56045833298,
      "d": 540.8164166666611,
      "v": 71
    },
    {
      "midi": 56,
      "hit": false,
      "t": 56632.66249999964,
      "d": 403.06129166666506,
      "v": 47
    },
    {
      "midi": 77,
      "hit": false,
      "t": 56632.66249999964,
      "d": 551.0204999999987,
      "v": 81
    },
    {
      "midi": 86,
      "hit": false,
      "t": 56637.76454166631,
      "d": 392.8572083333347,
      "v": 82
    },
    {
      "midi": 89,
      "hit": false,
      "t": 56637.76454166631,
      "d": 474.4898749999993,
      "v": 78
    },
    {
      "midi": 83,
      "hit": false,
      "t": 56637.76454166631,
      "d": 556.1225416666639,
      "v": 75
    },
    {
      "midi": 59,
      "hit": false,
      "t": 56642.86658333297,
      "d": 362.2449583333364,
      "v": 55
    },
    {
      "midi": 53,
      "hit": false,
      "t": 56642.86658333297,
      "d": 392.8572083333347,
      "v": 49
    },
    {
      "midi": 55,
      "hit": false,
      "t": 57244.90749999964,
      "d": 352.0408749999988,
      "v": 65
    },
    {
      "midi": 64,
      "hit": false,
      "t": 57244.90749999964,
      "d": 418.3674166666606,
      "v": 55
    },
    {
      "midi": 84,
      "hit": false,
      "t": 57244.90749999964,
      "d": 459.1837499999965,
      "v": 80
    },
    {
      "midi": 76,
      "hit": false,
      "t": 57250.0095416663,
      "d": 362.2449583333364,
      "v": 64
    },
    {
      "midi": 88,
      "hit": false,
      "t": 57250.0095416663,
      "d": 505.1021249999976,
      "v": 68
    },
    {
      "midi": 60,
      "hit": false,
      "t": 57255.11158333297,
      "d": 387.75516666666954,
      "v": 64
    },
    {
      "midi": 57,
      "hit": false,
      "t": 57255.11158333297,
      "d": 397.9592499999999,
      "v": 58
    },
    {
      "midi": 64,
      "hit": false,
      "t": 57857.15249999963,
      "d": 352.0408749999988,
      "v": 54
    },
    {
      "midi": 55,
      "hit": false,
      "t": 57862.2545416663,
      "d": 336.73475000000326,
      "v": 56
    },
    {
      "midi": 60,
      "hit": false,
      "t": 57872.45862499963,
      "d": 326.5306666666729,
      "v": 48
    },
    {
      "midi": 79,
      "hit": false,
      "t": 58775.51999999963,
      "d": 107.14287499999773,
      "v": 96
    },
    {
      "midi": 64,
      "hit": false,
      "t": 58790.826124999636,
      "d": 239.7959583333286,
      "v": 57
    },
    {
      "midi": 54,
      "hit": false,
      "t": 58790.826124999636,
      "d": 265.30616666666174,
      "v": 48
    },
    {
      "midi": 60,
      "hit": false,
      "t": 58801.030208332966,
      "d": 290.8163749999949,
      "v": 60
    },
    {
      "midi": 84,
      "hit": false,
      "t": 58933.6832916663,
      "d": 132.65308333333087,
      "v": 62
    },
    {
      "midi": 79,
      "hit": false,
      "t": 59015.31595833296,
      "d": 117.34695833333535,
      "v": 54
    },
    {
      "midi": 76,
      "hit": false,
      "t": 59107.152708332964,
      "d": 86.73470833332976,
      "v": 62
    },
    {
      "midi": 76,
      "hit": false,
      "t": 59270.41804166629,
      "d": 153.06124999999156,
      "v": 80
    },
    {
      "midi": 64,
      "hit": false,
      "t": 59301.03029166629,
      "d": 66.3265416666618,
      "v": 50
    },
    {
      "midi": 60,
      "hit": false,
      "t": 59311.23437499962,
      "d": 35.714291666663485,
      "v": 44
    },
    {
      "midi": 54,
      "hit": false,
      "t": 59316.33641666629,
      "d": 56.12245833333145,
      "v": 28
    },
    {
      "midi": 79,
      "hit": false,
      "t": 59403.07112499962,
      "d": 158.16329166667128,
      "v": 55
    },
    {
      "midi": 76,
      "hit": false,
      "t": 59535.724208332955,
      "d": 102.04083333333256,
      "v": 50
    },
    {
      "midi": 72,
      "hit": false,
      "t": 59642.86708333295,
      "d": 51.02041666666628,
      "v": 59
    },
    {
      "midi": 54,
      "hit": false,
      "t": 59734.703833332955,
      "d": 270.4082083333269,
      "v": 69
    },
    {
      "midi": 64,
      "hit": false,
      "t": 59739.80587499962,
      "d": 239.7959583333286,
      "v": 66
    },
    {
      "midi": 60,
      "hit": false,
      "t": 59739.80587499962,
      "d": 280.61229166666453,
      "v": 68
    },
    {
      "midi": 72,
      "hit": false,
      "t": 59744.907916666285,
      "d": 127.5510416666657,
      "v": 83
    },
    {
      "midi": 76,
      "hit": false,
      "t": 59867.356916666286,
      "d": 173.4694166666668,
      "v": 59
    },
    {
      "midi": 72,
      "hit": false,
      "t": 59974.49979166628,
      "d": 107.142875000005,
      "v": 45
    },
    {
      "midi": 67,
      "hit": false,
      "t": 60096.94879166629,
      "d": 45.918375000001106,
      "v": 42
    },
    {
      "midi": 67,
      "hit": false,
      "t": 60229.60187499962,
      "d": 81.63266666665731,
      "v": 80
    },
    {
      "midi": 64,
      "hit": false,
      "t": 60234.70391666629,
      "d": 61.224499999996624,
      "v": 64
    },
    {
      "midi": 54,
      "hit": false,
      "t": 60234.70391666629,
      "d": 219.38779166666063,
      "v": 57
    },
    {
      "midi": 60,
      "hit": false,
      "t": 60239.80595833295,
      "d": 117.34695833332808,
      "v": 67
    },
    {
      "midi": 72,
      "hit": false,
      "t": 60306.132499999614,
      "d": 183.67349999999715,
      "v": 58
    },
    {
      "midi": 67,
      "hit": false,
      "t": 60433.68354166628,
      "d": 81.63266666666459,
      "v": 40
    },
    {
      "midi": 64,
      "hit": false,
      "t": 60530.62233333295,
      "d": 51.02041666666628,
      "v": 53
    },
    {
      "midi": 54,
      "hit": false,
      "t": 60627.561124999615,
      "d": 107.14287499999773,
      "v": 55
    },
    {
      "midi": 60,
      "hit": false,
      "t": 60637.765208332945,
      "d": 51.02041666666628,
      "v": 63
    },
    {
      "midi": 64,
      "hit": false,
      "t": 60642.86724999961,
      "d": 127.5510416666657,
      "v": 80
    },
    {
      "midi": 67,
      "hit": false,
      "t": 60780.622374999606,
      "d": 147.95920833333366,
      "v": 66
    },
    {
      "midi": 64,
      "hit": false,
      "t": 60862.25504166627,
      "d": 163.26533333333646,
      "v": 46
    },
    {
      "midi": 60,
      "hit": false,
      "t": 60943.88770833294,
      "d": 86.73470833332976,
      "v": 46
    },
    {
      "midi": 41,
      "hit": false,
      "t": 61183.68366666627,
      "d": 76.53062499999214,
      "v": 60
    },
    {
      "midi": 79,
      "hit": false,
      "t": 61229.60204166627,
      "d": 163.2653333333219,
      "v": 60
    },
    {
      "midi": 67,
      "hit": false,
      "t": 61234.70408333294,
      "d": 132.6530833333236,
      "v": 72
    },
    {
      "midi": 72,
      "hit": false,
      "t": 61234.70408333294,
      "d": 132.6530833333236,
      "v": 60
    },
    {
      "midi": 64,
      "hit": false,
      "t": 61239.8061249996,
      "d": 86.73470833332976,
      "v": 50
    },
    {
      "midi": 57,
      "hit": false,
      "t": 61244.90816666627,
      "d": 142.85716666666121,
      "v": 50
    },
    {
      "midi": 77,
      "hit": false,
      "t": 61244.90816666627,
      "d": 178.5714583333247,
      "v": 53
    },
    {
      "midi": 53,
      "hit": false,
      "t": 61255.1122499996,
      "d": 137.75512499999604,
      "v": 26
    },
    {
      "midi": 60,
      "hit": false,
      "t": 61260.21429166626,
      "d": 71.42858333333425,
      "v": 32
    },
    {
      "midi": 79,
      "hit": false,
      "t": 61545.92862499959,
      "d": 147.95920833333366,
      "v": 60
    },
    {
      "midi": 67,
      "hit": false,
      "t": 61551.03066666626,
      "d": 127.5510416666657,
      "v": 63
    },
    {
      "midi": 72,
      "hit": false,
      "t": 61561.23474999959,
      "d": 132.65308333333815,
      "v": 35
    },
    {
      "midi": 76,
      "hit": false,
      "t": 61561.23474999959,
      "d": 168.36737500000163,
      "v": 50
    },
    {
      "midi": 79,
      "hit": false,
      "t": 61862.25520833292,
      "d": 168.36737499999435,
      "v": 62
    },
    {
      "midi": 67,
      "hit": false,
      "t": 61867.357249999586,
      "d": 153.06124999999884,
      "v": 59
    },
    {
      "midi": 57,
      "hit": false,
      "t": 61872.45929166625,
      "d": 132.65308333333087,
      "v": 36
    },
    {
      "midi": 72,
      "hit": false,
      "t": 61877.56133333292,
      "d": 188.77554166666232,
      "v": 46
    },
    {
      "midi": 76,
      "hit": false,
      "t": 61882.66337499958,
      "d": 204.08166666666511,
      "v": 50
    },
    {
      "midi": 60,
      "hit": false,
      "t": 62341.84712499958,
      "d": 61.224499999996624,
      "v": 33
    },
    {
      "midi": 62,
      "hit": false,
      "t": 62341.84712499958,
      "d": 61.224499999996624,
      "v": 26
    },
    {
      "midi": 57,
      "hit": false,
      "t": 62341.84712499958,
      "d": 96.93879166666011,
      "v": 41
    },
    {
      "midi": 53,
      "hit": false,
      "t": 62367.35733333291,
      "d": 76.53062499999214,
      "v": 17
    },
    {
      "midi": 62,
      "hit": false,
      "t": 62770.41862499957,
      "d": 71.42858333332697,
      "v": 46
    },
    {
      "midi": 57,
      "hit": false,
      "t": 62780.6227083329,
      "d": 107.14287499999045,
      "v": 43
    },
    {
      "midi": 53,
      "hit": false,
      "t": 62790.82679166623,
      "d": 81.63266666666459,
      "v": 26
    },
    {
      "midi": 60,
      "hit": false,
      "t": 62811.2349583329,
      "d": 71.42858333332697,
      "v": 30
    },
    {
      "midi": 84,
      "hit": false,
      "t": 63091.847249999555,
      "d": 96.93879166666738,
      "v": 85
    },
    {
      "midi": 79,
      "hit": false,
      "t": 63096.94929166622,
      "d": 76.53062499999942,
      "v": 81
    },
    {
      "midi": 72,
      "hit": false,
      "t": 63102.051333332885,
      "d": 56.12245833333145,
      "v": 85
    },
    {
      "midi": 81,
      "hit": false,
      "t": 63107.15337499955,
      "d": 30.612249999998312,
      "v": 65
    },
    {
      "midi": 84,
      "hit": false,
      "t": 63265.31666666622,
      "d": 71.4285833333197,
      "v": 72
    },
    {
      "midi": 72,
      "hit": false,
      "t": 63275.52074999955,
      "d": 45.91837499999383,
      "v": 61
    },
    {
      "midi": 79,
      "hit": false,
      "t": 63275.52074999955,
      "d": 71.4285833333197,
      "v": 62
    },
    {
      "midi": 62,
      "hit": false,
      "t": 63285.72483333288,
      "d": 35.714291666663485,
      "v": 49
    },
    {
      "midi": 81,
      "hit": false,
      "t": 63290.82687499955,
      "d": 35.714291666663485,
      "v": 46
    },
    {
      "midi": 60,
      "hit": false,
      "t": 63295.92891666621,
      "d": 45.91837499999383,
      "v": 50
    },
    {
      "midi": 57,
      "hit": false,
      "t": 63295.92891666621,
      "d": 81.63266666665731,
      "v": 52
    },
    {
      "midi": 83,
      "hit": false,
      "t": 63408.17383333287,
      "d": 96.93879166666738,
      "v": 55
    },
    {
      "midi": 71,
      "hit": false,
      "t": 63413.275874999534,
      "d": 76.53062499999942,
      "v": 58
    },
    {
      "midi": 83,
      "hit": false,
      "t": 63581.643249999535,
      "d": 40.81633333332866,
      "v": 55
    },
    {
      "midi": 79,
      "hit": false,
      "t": 63612.255499999534,
      "d": 35.714291666663485,
      "v": 44
    },
    {
      "midi": 67,
      "hit": false,
      "t": 63729.60245833286,
      "d": 61.224499999996624,
      "v": 53
    },
    {
      "midi": 86,
      "hit": false,
      "t": 63729.60245833286,
      "d": 61.224499999996624,
      "v": 46
    },
    {
      "midi": 56,
      "hit": false,
      "t": 63729.60245833286,
      "d": 86.73470833332976,
      "v": 38
    },
    {
      "midi": 84,
      "hit": false,
      "t": 63744.908583332865,
      "d": 56.122458333324175,
      "v": 34
    },
    {
      "midi": 62,
      "hit": false,
      "t": 63744.908583332865,
      "d": 76.53062499999214,
      "v": 40
    },
    {
      "midi": 60,
      "hit": false,
      "t": 63755.112666666195,
      "d": 40.81633333332866,
      "v": 35
    },
    {
      "midi": 87,
      "hit": false,
      "t": 63994.90862499952,
      "d": 102.04083333332528,
      "v": 53
    },
    {
      "midi": 75,
      "hit": false,
      "t": 64000.01066666619,
      "d": 86.73470833332976,
      "v": 62
    },
    {
      "midi": 62,
      "hit": false,
      "t": 64015.31679166619,
      "d": 183.67349999998987,
      "v": 54
    },
    {
      "midi": 67,
      "hit": false,
      "t": 64015.31679166619,
      "d": 193.87758333332022,
      "v": 59
    },
    {
      "midi": 56,
      "hit": false,
      "t": 64015.31679166619,
      "d": 239.79595833331405,
      "v": 48
    },
    {
      "midi": 81,
      "hit": false,
      "t": 64020.41883333286,
      "d": 183.67349999998987,
      "v": 54
    },
    {
      "midi": 84,
      "hit": false,
      "t": 64025.52087499952,
      "d": 204.08166666665056,
      "v": 50
    },
    {
      "midi": 60,
      "hit": false,
      "t": 64030.62291666619,
      "d": 188.77554166665504,
      "v": 43
    },
    {
      "midi": 88,
      "hit": false,
      "t": 64076.54129166619,
      "d": 153.06124999998428,
      "v": 52
    },
    {
      "midi": 76,
      "hit": false,
      "t": 64096.94945833285,
      "d": 107.14287499999773,
      "v": 58
    },
    {
      "midi": 88,
      "hit": false,
      "t": 64464.296458332836,
      "d": 147.9592083333191,
      "v": 72
    },
    {
      "midi": 67,
      "hit": false,
      "t": 64469.3984999995,
      "d": 127.55104166665842,
      "v": 48
    },
    {
      "midi": 64,
      "hit": false,
      "t": 64469.3984999995,
      "d": 132.6530833333236,
      "v": 46
    },
    {
      "midi": 76,
      "hit": false,
      "t": 64474.500541666166,
      "d": 112.2449166666629,
      "v": 67
    },
    {
      "midi": 84,
      "hit": false,
      "t": 64479.60258333283,
      "d": 132.6530833333236,
      "v": 66
    },
    {
      "midi": 56,
      "hit": false,
      "t": 64484.7046249995,
      "d": 127.55104166665842,
      "v": 33
    },
    {
      "midi": 60,
      "hit": false,
      "t": 64494.90870833283,
      "d": 96.93879166666738,
      "v": 49
    },
    {
      "midi": 64,
      "hit": false,
      "t": 64882.66387499949,
      "d": 403.0612916666578,
      "v": 48
    },
    {
      "midi": 88,
      "hit": false,
      "t": 64887.765916666154,
      "d": 413.2653749999881,
      "v": 75
    },
    {
      "midi": 56,
      "hit": false,
      "t": 64892.86795833282,
      "d": 403.0612916666578,
      "v": 36
    },
    {
      "midi": 67,
      "hit": false,
      "t": 64897.969999999485,
      "d": 362.2449583333291,
      "v": 48
    },
    {
      "midi": 84,
      "hit": false,
      "t": 64897.969999999485,
      "d": 397.9592499999926,
      "v": 68
    },
    {
      "midi": 76,
      "hit": false,
      "t": 64903.07204166615,
      "d": 433.6735416666561,
      "v": 60
    },
    {
      "midi": 60,
      "hit": false,
      "t": 64908.174083332815,
      "d": 346.9388333333336,
      "v": 54
    },
    {
      "midi": 86,
      "hit": false,
      "t": 65403.072124999475,
      "d": 321.42862500000774,
      "v": 71
    },
    {
      "midi": 83,
      "hit": false,
      "t": 65403.072124999475,
      "d": 331.6327083333381,
      "v": 68
    },
    {
      "midi": 64,
      "hit": false,
      "t": 65408.17416666614,
      "d": 142.8571666666685,
      "v": 54
    },
    {
      "midi": 74,
      "hit": false,
      "t": 65408.17416666614,
      "d": 265.3061666666763,
      "v": 68
    },
    {
      "midi": 67,
      "hit": false,
      "t": 65413.276208332805,
      "d": 163.26533333333646,
      "v": 63
    },
    {
      "midi": 56,
      "hit": false,
      "t": 65413.276208332805,
      "d": 244.89800000000832,
      "v": 45
    },
    {
      "midi": 60,
      "hit": false,
      "t": 65428.58233333281,
      "d": 132.65308333333087,
      "v": 58
    },
    {
      "midi": 90,
      "hit": false,
      "t": 66117.35795833281,
      "d": 147.9592083333555,
      "v": 77
    },
    {
      "midi": 85,
      "hit": false,
      "t": 66122.45999999948,
      "d": 86.73470833334432,
      "v": 83
    },
    {
      "midi": 78,
      "hit": false,
      "t": 66122.45999999948,
      "d": 127.55104166668025,
      "v": 79
    },
    {
      "midi": 59,
      "hit": false,
      "t": 66127.56204166615,
      "d": 142.85716666668304,
      "v": 61
    },
    {
      "midi": 62,
      "hit": false,
      "t": 66132.66408333283,
      "d": 117.34695833333535,
      "v": 76
    },
    {
      "midi": 55,
      "hit": false,
      "t": 66137.7661249995,
      "d": 142.8571666666685,
      "v": 73
    },
    {
      "midi": 52,
      "hit": false,
      "t": 66137.7661249995,
      "d": 464.2857916667126,
      "v": 67
    },
    {
      "midi": 85,
      "hit": false,
      "t": 66311.23554166617,
      "d": 86.73470833335887,
      "v": 30
    },
    {
      "midi": 87,
      "hit": false,
      "t": 66316.33758333285,
      "d": 81.63266666668642,
      "v": 42
    },
    {
      "midi": 89,
      "hit": false,
      "t": 66316.33758333285,
      "d": 86.73470833335887,
      "v": 57
    },
    {
      "midi": 91,
      "hit": false,
      "t": 66316.33758333285,
      "d": 86.73470833335887,
      "v": 53
    },
    {
      "midi": 62,
      "hit": false,
      "t": 66316.33758333285,
      "d": 311.2245416666992,
      "v": 69
    },
    {
      "midi": 55,
      "hit": false,
      "t": 66321.43962499952,
      "d": 321.42862500002957,
      "v": 50
    },
    {
      "midi": 77,
      "hit": false,
      "t": 66326.54166666619,
      "d": 66.32654166666907,
      "v": 49
    },
    {
      "midi": 59,
      "hit": false,
      "t": 66326.54166666619,
      "d": 311.2245416666847,
      "v": 46
    },
    {
      "midi": 79,
      "hit": false,
      "t": 66331.64370833286,
      "d": 35.714291666663485,
      "v": 37
    },
    {
      "midi": 88,
      "hit": false,
      "t": 66357.1539166662,
      "d": 30.612249999991036,
      "v": 26
    },
    {
      "midi": 85,
      "hit": false,
      "t": 66448.9906666662,
      "d": 142.85716666668304,
      "v": 53
    },
    {
      "midi": 89,
      "hit": false,
      "t": 66459.19474999953,
      "d": 102.04083333334711,
      "v": 33
    },
    {
      "midi": 91,
      "hit": false,
      "t": 66459.19474999953,
      "d": 117.3469583333499,
      "v": 28
    },
    {
      "midi": 87,
      "hit": false,
      "t": 66459.19474999953,
      "d": 132.6530833333527,
      "v": 31
    },
    {
      "midi": 88,
      "hit": false,
      "t": 66484.70495833286,
      "d": 30.612250000005588,
      "v": 47
    },
    {
      "midi": 77,
      "hit": false,
      "t": 66484.70495833286,
      "d": 61.224500000011176,
      "v": 20
    },
    {
      "midi": 62,
      "hit": false,
      "t": 66744.90908333288,
      "d": 127.55104166668025,
      "v": 65
    },
    {
      "midi": 91,
      "hit": false,
      "t": 66750.01112499955,
      "d": 122.4490000000078,
      "v": 69
    },
    {
      "midi": 52,
      "hit": false,
      "t": 66750.01112499955,
      "d": 137.7551250000106,
      "v": 51
    },
    {
      "midi": 59,
      "hit": false,
      "t": 66750.01112499955,
      "d": 142.85716666668304,
      "v": 50
    },
    {
      "midi": 55,
      "hit": false,
      "t": 66750.01112499955,
      "d": 153.0612500000134,
      "v": 57
    },
    {
      "midi": 86,
      "hit": false,
      "t": 66760.21520833288,
      "d": 107.142875000005,
      "v": 74
    },
    {
      "midi": 79,
      "hit": false,
      "t": 66760.21520833288,
      "d": 122.4490000000078,
      "v": 60
    },
    {
      "midi": 72,
      "hit": false,
      "t": 67193.88874999956,
      "d": 71.42858333335607,
      "v": 47
    },
    {
      "midi": 84,
      "hit": false,
      "t": 67193.88874999956,
      "d": 76.53062500002852,
      "v": 60
    },
    {
      "midi": 79,
      "hit": false,
      "t": 67198.99079166623,
      "d": 76.53062500002852,
      "v": 45
    },
    {
      "midi": 59,
      "hit": false,
      "t": 67204.0928333329,
      "d": 219.387791666697,
      "v": 47
    },
    {
      "midi": 62,
      "hit": false,
      "t": 67204.0928333329,
      "d": 234.6939166666998,
      "v": 56
    },
    {
      "midi": 55,
      "hit": false,
      "t": 67209.19487499958,
      "d": 147.9592083333555,
      "v": 46
    },
    {
      "midi": 52,
      "hit": false,
      "t": 67214.29691666625,
      "d": 204.08166666667967,
      "v": 39
    },
    {
      "midi": 72,
      "hit": false,
      "t": 67346.94999999959,
      "d": 76.53062500001397,
      "v": 35
    },
    {
      "midi": 84,
      "hit": false,
      "t": 67352.05204166626,
      "d": 91.83675000001676,
      "v": 39
    },
    {
      "midi": 79,
      "hit": false,
      "t": 67357.15408333293,
      "d": 71.42858333334152,
      "v": 37
    },
    {
      "midi": 62,
      "hit": false,
      "t": 67663.27658333295,
      "d": 239.7959583333577,
      "v": 51
    },
    {
      "midi": 84,
      "hit": false,
      "t": 67668.37862499962,
      "d": 66.32654166668362,
      "v": 60
    },
    {
      "midi": 79,
      "hit": false,
      "t": 67673.48066666629,
      "d": 45.91837500000838,
      "v": 53
    },
    {
      "midi": 72,
      "hit": false,
      "t": 67673.48066666629,
      "d": 51.02041666668083,
      "v": 49
    },
    {
      "midi": 59,
      "hit": false,
      "t": 67673.48066666629,
      "d": 234.69391666668525,
      "v": 51
    },
    {
      "midi": 52,
      "hit": false,
      "t": 67678.58270833296,
      "d": 255.10208333334594,
      "v": 30
    },
    {
      "midi": 55,
      "hit": false,
      "t": 67683.68474999964,
      "d": 209.18370833333756,
      "v": 57
    },
    {
      "midi": 59,
      "hit": false,
      "t": 68137.76645833298,
      "d": 122.4490000000078,
      "v": 47
    },
    {
      "midi": 62,
      "hit": false,
      "t": 68142.86849999965,
      "d": 178.57145833333198,
      "v": 51
    },
    {
      "midi": 52,
      "hit": false,
      "t": 68153.07258333298,
      "d": 76.53062499999942,
      "v": 24
    },
    {
      "midi": 55,
      "hit": false,
      "t": 68163.27666666631,
      "d": 71.42858333334152,
      "v": 35
    },
    {
      "midi": 64,
      "hit": false,
      "t": 68566.33795833298,
      "d": 219.3877916666679,
      "v": 37
    },
    {
      "midi": 53,
      "hit": false,
      "t": 68566.33795833298,
      "d": 316.32658333334257,
      "v": 34
    },
    {
      "midi": 60,
      "hit": false,
      "t": 68576.54204166631,
      "d": 265.3061666666763,
      "v": 50
    },
    {
      "midi": 57,
      "hit": false,
      "t": 68586.74612499964,
      "d": 285.71433333335153,
      "v": 44
    },
    {
      "midi": 79,
      "hit": false,
      "t": 68887.766583333,
      "d": 61.224500000011176,
      "v": 80
    },
    {
      "midi": 84,
      "hit": false,
      "t": 68887.766583333,
      "d": 86.73470833334432,
      "v": 82
    },
    {
      "midi": 76,
      "hit": false,
      "t": 68892.86862499967,
      "d": 56.12245833333873,
      "v": 85
    },
    {
      "midi": 81,
      "hit": false,
      "t": 68892.86862499967,
      "d": 81.63266666667187,
      "v": 75
    },
    {
      "midi": 84,
      "hit": false,
      "t": 69061.23599999967,
      "d": 66.32654166668362,
      "v": 58
    },
    {
      "midi": 76,
      "hit": false,
      "t": 69066.33804166634,
      "d": 45.91837499999383,
      "v": 54
    },
    {
      "midi": 79,
      "hit": false,
      "t": 69066.33804166634,
      "d": 51.02041666666628,
      "v": 53
    },
    {
      "midi": 81,
      "hit": false,
      "t": 69076.54212499967,
      "d": 45.91837500000838,
      "v": 49
    },
    {
      "midi": 64,
      "hit": false,
      "t": 69183.68499999969,
      "d": 112.244916666692,
      "v": 32
    },
    {
      "midi": 86,
      "hit": false,
      "t": 69188.78704166636,
      "d": 168.36737500001618,
      "v": 81
    },
    {
      "midi": 77,
      "hit": false,
      "t": 69193.88908333304,
      "d": 153.0612500000134,
      "v": 66
    },
    {
      "midi": 81,
      "hit": false,
      "t": 69198.99112499971,
      "d": 142.8571666666685,
      "v": 67
    },
    {
      "midi": 83,
      "hit": false,
      "t": 69198.99112499971,
      "d": 142.8571666666685,
      "v": 62
    },
    {
      "midi": 60,
      "hit": false,
      "t": 69204.09316666638,
      "d": 107.142875000005,
      "v": 39
    },
    {
      "midi": 53,
      "hit": false,
      "t": 69209.19520833305,
      "d": 122.44899999999325,
      "v": 24
    },
    {
      "midi": 57,
      "hit": false,
      "t": 69219.39929166638,
      "d": 102.04083333333256,
      "v": 22
    },
    {
      "midi": 76,
      "hit": false,
      "t": 69678.58304166638,
      "d": 137.7551250000106,
      "v": 76
    },
    {
      "midi": 84,
      "hit": false,
      "t": 69683.68508333305,
      "d": 96.93879166667466,
      "v": 75
    },
    {
      "midi": 79,
      "hit": false,
      "t": 69683.68508333305,
      "d": 117.34695833333535,
      "v": 68
    },
    {
      "midi": 64,
      "hit": false,
      "t": 69688.78712499973,
      "d": 91.83675000000221,
      "v": 57
    },
    {
      "midi": 81,
      "hit": false,
      "t": 69688.78712499973,
      "d": 102.04083333333256,
      "v": 56
    },
    {
      "midi": 53,
      "hit": false,
      "t": 69698.99120833306,
      "d": 198.97962500000722,
      "v": 37
    },
    {
      "midi": 60,
      "hit": false,
      "t": 69704.09324999973,
      "d": 188.77554166666232,
      "v": 48
    },
    {
      "midi": 57,
      "hit": false,
      "t": 69709.1952916664,
      "d": 219.3877916666679,
      "v": 43
    },
    {
      "midi": 83,
      "hit": false,
      "t": 69892.86879166639,
      "d": 127.55104166668025,
      "v": 69
    },
    {
      "midi": 74,
      "hit": false,
      "t": 69903.07287499974,
      "d": 102.04083333333256,
      "v": 63
    },
    {
      "midi": 77,
      "hit": false,
      "t": 69903.07287499974,
      "d": 132.65308333333815,
      "v": 57
    },
    {
      "midi": 79,
      "hit": false,
      "t": 69913.27695833307,
      "d": 102.04083333333256,
      "v": 52
    },
    {
      "midi": 76,
      "hit": false,
      "t": 70290.8280416664,
      "d": 122.4490000000078,
      "v": 70
    },
    {
      "midi": 81,
      "hit": false,
      "t": 70290.8280416664,
      "d": 122.4490000000078,
      "v": 71
    },
    {
      "midi": 72,
      "hit": false,
      "t": 70290.8280416664,
      "d": 127.55104166668025,
      "v": 74
    },
    {
      "midi": 77,
      "hit": false,
      "t": 70295.93008333308,
      "d": 102.04083333333256,
      "v": 57
    },
    {
      "midi": 59,
      "hit": false,
      "t": 70586.74645833309,
      "d": 35.714291666663485,
      "v": 36
    },
    {
      "midi": 59,
      "hit": false,
      "t": 70729.60362499976,
      "d": 234.69391666668525,
      "v": 54
    },
    {
      "midi": 62,
      "hit": false,
      "t": 70734.70566666643,
      "d": 102.04083333334711,
      "v": 64
    },
    {
      "midi": 73,
      "hit": false,
      "t": 70734.70566666643,
      "d": 117.3469583333499,
      "v": 69
    },
    {
      "midi": 52,
      "hit": false,
      "t": 70734.70566666643,
      "d": 209.18370833335212,
      "v": 56
    },
    {
      "midi": 55,
      "hit": false,
      "t": 70739.8077083331,
      "d": 244.89800000000105,
      "v": 59
    },
    {
      "midi": 75,
      "hit": false,
      "t": 70744.90974999977,
      "d": 244.89800000000105,
      "v": 63
    },
    {
      "midi": 71,
      "hit": false,
      "t": 70750.01179166645,
      "d": 234.69391666665615,
      "v": 75
    },
    {
      "midi": 79,
      "hit": false,
      "t": 70750.01179166645,
      "d": 244.89800000000105,
      "v": 60
    },
    {
      "midi": 74,
      "hit": false,
      "t": 70857.15466666645,
      "d": 86.73470833332976,
      "v": 78
    },
    {
      "midi": 71,
      "hit": false,
      "t": 71204.09349999978,
      "d": 214.28575000002456,
      "v": 76
    },
    {
      "midi": 75,
      "hit": false,
      "t": 71209.19554166646,
      "d": 142.85716666668304,
      "v": 54
    },
    {
      "midi": 79,
      "hit": false,
      "t": 71209.19554166646,
      "d": 239.7959583333577,
      "v": 59
    },
    {
      "midi": 74,
      "hit": false,
      "t": 71219.39962499979,
      "d": 219.38779166668246,
      "v": 63
    },
    {
      "midi": 62,
      "hit": false,
      "t": 71244.90983333312,
      "d": 45.91837500000838,
      "v": 34
    },
    {
      "midi": 55,
      "hit": false,
      "t": 71285.72616666646,
      "d": 35.71429166667804,
      "v": 24
    },
    {
      "midi": 76,
      "hit": false,
      "t": 71321.44045833313,
      "d": 122.4490000000078,
      "v": 47
    },
    {
      "midi": 71,
      "hit": false,
      "t": 71632.66499999982,
      "d": 147.95920833337004,
      "v": 66
    },
    {
      "midi": 79,
      "hit": false,
      "t": 71632.66499999982,
      "d": 183.67350000003353,
      "v": 58
    },
    {
      "midi": 75,
      "hit": false,
      "t": 71637.76704166649,
      "d": 107.14287500001956,
      "v": 48
    },
    {
      "midi": 62,
      "hit": false,
      "t": 71642.86908333316,
      "d": 96.93879166667466,
      "v": 48
    },
    {
      "midi": 55,
      "hit": false,
      "t": 71647.97112499984,
      "d": 122.44900000002235,
      "v": 37
    },
    {
      "midi": 59,
      "hit": false,
      "t": 71653.07316666651,
      "d": 112.24491666667745,
      "v": 36
    },
    {
      "midi": 74,
      "hit": false,
      "t": 71678.58337499984,
      "d": 117.3469583333499,
      "v": 24
    },
    {
      "midi": 76,
      "hit": false,
      "t": 71750.01195833318,
      "d": 76.53062499999942,
      "v": 49
    },
    {
      "midi": 82,
      "hit": false,
      "t": 71954.09362499985,
      "d": 56.12245833333873,
      "v": 21
    },
    {
      "midi": 84,
      "hit": false,
      "t": 72081.64466666651,
      "d": 214.28575000002456,
      "v": 78
    },
    {
      "midi": 72,
      "hit": false,
      "t": 72086.74670833319,
      "d": 193.87758333334932,
      "v": 76
    },
    {
      "midi": 77,
      "hit": false,
      "t": 72086.74670833319,
      "d": 204.08166666667967,
      "v": 75
    },
    {
      "midi": 81,
      "hit": false,
      "t": 72086.74670833319,
      "d": 219.387791666697,
      "v": 74
    },
    {
      "midi": 61,
      "hit": false,
      "t": 72091.84874999986,
      "d": 214.28575000002456,
      "v": 47
    },
    {
      "midi": 60,
      "hit": false,
      "t": 72096.95079166653,
      "d": 193.87758333333477,
      "v": 56
    },
    {
      "midi": 65,
      "hit": false,
      "t": 72096.95079166653,
      "d": 198.97962500000722,
      "v": 66
    },
    {
      "midi": 55,
      "hit": false,
      "t": 72096.95079166653,
      "d": 204.08166666667967,
      "v": 67
    },
    {
      "midi": 65,
      "hit": false,
      "t": 72556.13454166656,
      "d": 306.1225000000122,
      "v": 71
    },
    {
      "midi": 60,
      "hit": false,
      "t": 72556.13454166656,
      "d": 336.7347500000178,
      "v": 67
    },
    {
      "midi": 55,
      "hit": false,
      "t": 72561.23658333323,
      "d": 316.32658333334257,
      "v": 53
    },
    {
      "midi": 61,
      "hit": false,
      "t": 72561.23658333323,
      "d": 331.63270833334536,
      "v": 39
    },
    {
      "midi": 72,
      "hit": false,
      "t": 72566.3386249999,
      "d": 321.42862500000047,
      "v": 80
    },
    {
      "midi": 77,
      "hit": false,
      "t": 72566.3386249999,
      "d": 336.73475000000326,
      "v": 71
    },
    {
      "midi": 84,
      "hit": false,
      "t": 72566.3386249999,
      "d": 357.14291666666395,
      "v": 80
    },
    {
      "midi": 81,
      "hit": false,
      "t": 72566.3386249999,
      "d": 372.44904166666674,
      "v": 67
    },
    {
      "midi": 84,
      "hit": false,
      "t": 73051.03258333323,
      "d": 137.7551250000106,
      "v": 74
    },
    {
      "midi": 60,
      "hit": false,
      "t": 73051.03258333323,
      "d": 147.9592083333555,
      "v": 64
    },
    {
      "midi": 61,
      "hit": false,
      "t": 73051.03258333323,
      "d": 244.8980000000156,
      "v": 62
    },
    {
      "midi": 81,
      "hit": false,
      "t": 73061.23666666656,
      "d": 122.4490000000078,
      "v": 65
    },
    {
      "midi": 77,
      "hit": false,
      "t": 73061.23666666656,
      "d": 132.6530833333527,
      "v": 69
    },
    {
      "midi": 72,
      "hit": false,
      "t": 73061.23666666656,
      "d": 163.26533333335829,
      "v": 67
    },
    {
      "midi": 55,
      "hit": false,
      "t": 73061.23666666656,
      "d": 188.77554166669142,
      "v": 60
    },
    {
      "midi": 65,
      "hit": false,
      "t": 73066.33870833323,
      "d": 147.9592083333555,
      "v": 65
    },
    {
      "midi": 67,
      "hit": false,
      "t": 73489.80816666658,
      "d": 66.32654166666907,
      "v": 69
    },
    {
      "midi": 79,
      "hit": false,
      "t": 73489.80816666658,
      "d": 86.73470833334432,
      "v": 55
    },
    {
      "midi": 53,
      "hit": false,
      "t": 73489.80816666658,
      "d": 117.34695833333535,
      "v": 47
    },
    {
      "midi": 72,
      "hit": false,
      "t": 73500.01224999991,
      "d": 56.12245833333873,
      "v": 46
    },
    {
      "midi": 64,
      "hit": false,
      "t": 73500.01224999991,
      "d": 71.42858333334152,
      "v": 48
    },
    {
      "midi": 76,
      "hit": false,
      "t": 73500.01224999991,
      "d": 96.93879166667466,
      "v": 49
    },
    {
      "midi": 57,
      "hit": false,
      "t": 73500.01224999991,
      "d": 107.142875000005,
      "v": 53
    },
    {
      "midi": 60,
      "hit": false,
      "t": 73505.11429166658,
      "d": 56.12245833333873,
      "v": 56
    },
    {
      "midi": 53,
      "hit": false,
      "t": 73785.72658333325,
      "d": 137.75512500002515,
      "v": 38
    },
    {
      "midi": 64,
      "hit": false,
      "t": 73790.82862499992,
      "d": 76.53062500001397,
      "v": 58
    },
    {
      "midi": 67,
      "hit": false,
      "t": 73795.9306666666,
      "d": 61.224500000011176,
      "v": 71
    },
    {
      "midi": 72,
      "hit": false,
      "t": 73795.9306666666,
      "d": 61.224500000011176,
      "v": 53
    },
    {
      "midi": 79,
      "hit": false,
      "t": 73795.9306666666,
      "d": 81.63266666668642,
      "v": 58
    },
    {
      "midi": 60,
      "hit": false,
      "t": 73801.03270833327,
      "d": 35.71429166667804,
      "v": 55
    },
    {
      "midi": 76,
      "hit": false,
      "t": 73801.03270833327,
      "d": 86.73470833334432,
      "v": 57
    },
    {
      "midi": 57,
      "hit": false,
      "t": 73801.03270833327,
      "d": 122.4490000000078,
      "v": 51
    },
    {
      "midi": 75,
      "hit": false,
      "t": 73806.13474999994,
      "d": 66.32654166666907,
      "v": 33
    },
    {
      "midi": 53,
      "hit": false,
      "t": 74081.64499999995,
      "d": 122.44900000002235,
      "v": 60
    },
    {
      "midi": 64,
      "hit": false,
      "t": 74096.95112499995,
      "d": 71.42858333335607,
      "v": 62
    },
    {
      "midi": 60,
      "hit": false,
      "t": 74096.95112499995,
      "d": 91.83675000001676,
      "v": 62
    },
    {
      "midi": 76,
      "hit": false,
      "t": 74096.95112499995,
      "d": 96.93879166668921,
      "v": 70
    },
    {
      "midi": 67,
      "hit": false,
      "t": 74102.05316666662,
      "d": 56.12245833333873,
      "v": 79
    },
    {
      "midi": 72,
      "hit": false,
      "t": 74102.05316666662,
      "d": 61.224500000011176,
      "v": 71
    },
    {
      "midi": 79,
      "hit": false,
      "t": 74102.05316666662,
      "d": 76.53062500001397,
      "v": 62
    },
    {
      "midi": 57,
      "hit": false,
      "t": 74107.1552083333,
      "d": 102.04083333334711,
      "v": 51
    },
    {
      "midi": 67,
      "hit": false,
      "t": 74403.07362499996,
      "d": 30.61225000002014,
      "v": 76
    },
    {
      "midi": 64,
      "hit": false,
      "t": 74408.17566666663,
      "d": 40.816333333350485,
      "v": 56
    },
    {
      "midi": 60,
      "hit": false,
      "t": 74408.17566666663,
      "d": 51.02041666669538,
      "v": 57
    },
    {
      "midi": 79,
      "hit": false,
      "t": 74408.17566666663,
      "d": 66.32654166669818,
      "v": 65
    },
    {
      "midi": 72,
      "hit": false,
      "t": 74413.2777083333,
      "d": 40.816333333350485,
      "v": 44
    },
    {
      "midi": 76,
      "hit": false,
      "t": 74418.37974999998,
      "d": 40.816333333350485,
      "v": 35
    },
    {
      "midi": 53,
      "hit": false,
      "t": 74418.37974999998,
      "d": 56.12245833335328,
      "v": 37
    },
    {
      "midi": 57,
      "hit": false,
      "t": 74428.58383333331,
      "d": 51.02041666669538,
      "v": 34
    },
    {
      "midi": 76,
      "hit": false,
      "t": 74709.196125,
      "d": 45.918375000037486,
      "v": 88
    },
    {
      "midi": 83,
      "hit": false,
      "t": 74714.29816666667,
      "d": 30.61225000002014,
      "v": 83
    },
    {
      "midi": 64,
      "hit": false,
      "t": 74714.29816666667,
      "d": 35.71429166669259,
      "v": 76
    },
    {
      "midi": 59,
      "hit": false,
      "t": 74714.29816666667,
      "d": 56.12245833336783,
      "v": 75
    },
    {
      "midi": 88,
      "hit": false,
      "t": 74719.40020833335,
      "d": 35.71429166669259,
      "v": 82
    },
    {
      "midi": 53,
      "hit": false,
      "t": 74724.50225000002,
      "d": 30.61225000002014,
      "v": 66
    },
    {
      "midi": 86,
      "hit": false,
      "t": 74739.80837500002,
      "d": 30.61225000002014,
      "v": 33
    },
    {
      "midi": 59,
      "hit": false,
      "t": 75030.62475000005,
      "d": 341.83679166666116,
      "v": 77
    },
    {
      "midi": 56,
      "hit": false,
      "t": 75030.62475000005,
      "d": 352.04087500000605,
      "v": 57
    },
    {
      "midi": 76,
      "hit": false,
      "t": 75030.62475000005,
      "d": 352.04087500000605,
      "v": 88
    },
    {
      "midi": 64,
      "hit": false,
      "t": 75035.72679166672,
      "d": 336.7347499999887,
      "v": 78
    },
    {
      "midi": 53,
      "hit": false,
      "t": 75035.72679166672,
      "d": 341.83679166666116,
      "v": 71
    },
    {
      "midi": 88,
      "hit": false,
      "t": 75035.72679166672,
      "d": 352.04087500000605,
      "v": 87
    },
    {
      "midi": 83,
      "hit": false,
      "t": 75035.72679166672,
      "d": 357.1429166666785,
      "v": 84
    },
    {
      "midi": 88,
      "hit": false,
      "t": 75505.11462500006,
      "d": 117.3469583333499,
      "v": 72
    },
    {
      "midi": 83,
      "hit": false,
      "t": 75510.21666666673,
      "d": 117.3469583333499,
      "v": 74
    },
    {
      "midi": 64,
      "hit": false,
      "t": 75515.3187083334,
      "d": 147.95920833334094,
      "v": 68
    },
    {
      "midi": 76,
      "hit": false,
      "t": 75515.3187083334,
      "d": 147.95920833334094,
      "v": 58
    },
    {
      "midi": 53,
      "hit": false,
      "t": 75515.3187083334,
      "d": 158.16329166667128,
      "v": 65
    },
    {
      "midi": 56,
      "hit": false,
      "t": 75515.3187083334,
      "d": 193.87758333333477,
      "v": 46
    },
    {
      "midi": 59,
      "hit": false,
      "t": 75520.42075000008,
      "d": 260.2041249999893,
      "v": 57
    },
    {
      "midi": 79,
      "hit": false,
      "t": 75923.48204166674,
      "d": 260.2041250000184,
      "v": 60
    },
    {
      "midi": 72,
      "hit": false,
      "t": 75923.48204166674,
      "d": 311.2245416666847,
      "v": 58
    },
    {
      "midi": 62,
      "hit": false,
      "t": 75923.48204166674,
      "d": 382.6531250000262,
      "v": 58
    },
    {
      "midi": 59,
      "hit": false,
      "t": 75923.48204166674,
      "d": 392.85720833335654,
      "v": 50
    },
    {
      "midi": 84,
      "hit": false,
      "t": 75928.58408333341,
      "d": 250.0000416666735,
      "v": 60
    },
    {
      "midi": 52,
      "hit": false,
      "t": 75933.68612500008,
      "d": 357.1429166666785,
      "v": 46
    },
    {
      "midi": 55,
      "hit": false,
      "t": 75933.68612500008,
      "d": 382.65312500001164,
      "v": 57
    },
    {
      "midi": 79,
      "hit": false,
      "t": 76836.74750000008,
      "d": 627.5511250000272,
      "v": 64
    },
    {
      "midi": 67,
      "hit": false,
      "t": 76841.84954166676,
      "d": 561.2245833333582,
      "v": 68
    },
    {
      "midi": 62,
      "hit": false,
      "t": 76846.95158333343,
      "d": 494.8980416666891,
      "v": 54
    },
    {
      "midi": 74,
      "hit": false,
      "t": 76846.95158333343,
      "d": 591.8368333333492,
      "v": 64
    },
    {
      "midi": 59,
      "hit": false,
      "t": 76852.0536250001,
      "d": 500.000083333347,
      "v": 47
    },
    {
      "midi": 55,
      "hit": false,
      "t": 76857.15566666677,
      "d": 510.20416666667734,
      "v": 55
    },
    {
      "midi": 52,
      "hit": false,
      "t": 76862.25770833345,
      "d": 474.4898749999993,
      "v": 33
    },
    {
      "midi": 62,
      "hit": false,
      "t": 77448.99250000011,
      "d": 591.8368333333201,
      "v": 53
    },
    {
      "midi": 52,
      "hit": false,
      "t": 77459.19658333344,
      "d": 474.4898749999993,
      "v": 41
    },
    {
      "midi": 55,
      "hit": false,
      "t": 77459.19658333344,
      "d": 510.2041666666628,
      "v": 49
    },
    {
      "midi": 59,
      "hit": false,
      "t": 77459.19658333344,
      "d": 556.1225416666566,
      "v": 48
    },
    {
      "midi": 92,
      "hit": false,
      "t": 77770.42112500011,
      "d": 153.06124999999884,
      "v": 87
    },
    {
      "midi": 96,
      "hit": false,
      "t": 77954.0946250001,
      "d": 102.04083333333256,
      "v": 72
    },
    {
      "midi": 92,
      "hit": false,
      "t": 78096.95179166677,
      "d": 224.48983333334036,
      "v": 58
    },
    {
      "midi": 54,
      "hit": false,
      "t": 78362.25795833344,
      "d": 377.5510833333392,
      "v": 32
    },
    {
      "midi": 61,
      "hit": false,
      "t": 78377.56408333345,
      "d": 290.81637500000943,
      "v": 34
    },
    {
      "midi": 58,
      "hit": false,
      "t": 78382.66612500012,
      "d": 280.61229166666453,
      "v": 50
    },
    {
      "midi": 65,
      "hit": false,
      "t": 78408.17633333345,
      "d": 137.75512499999604,
      "v": 19
    },
    {
      "midi": 94,
      "hit": false,
      "t": 78867.36008333345,
      "d": 147.95920833334094,
      "v": 83
    },
    {
      "midi": 54,
      "hit": false,
      "t": 78872.46212500012,
      "d": 127.5510416666657,
      "v": 31
    },
    {
      "midi": 64,
      "hit": false,
      "t": 78877.5641666668,
      "d": 51.02041666666628,
      "v": 48
    },
    {
      "midi": 61,
      "hit": false,
      "t": 78877.5641666668,
      "d": 102.04083333333256,
      "v": 38
    },
    {
      "midi": 58,
      "hit": false,
      "t": 78882.66620833347,
      "d": 142.85716666665394,
      "v": 52
    },
    {
      "midi": 96,
      "hit": false,
      "t": 79096.95195833345,
      "d": 76.53062499999942,
      "v": 43
    },
    {
      "midi": 94,
      "hit": false,
      "t": 79132.66625000011,
      "d": 91.83675000000221,
      "v": 48
    },
    {
      "midi": 93,
      "hit": false,
      "t": 79219.40095833344,
      "d": 153.06124999999884,
      "v": 57
    },
    {
      "midi": 91,
      "hit": false,
      "t": 79423.4826250001,
      "d": 107.142875000005,
      "v": 72
    },
    {
      "midi": 54,
      "hit": false,
      "t": 79448.99283333344,
      "d": 107.142875000005,
      "v": 39
    },
    {
      "midi": 64,
      "hit": false,
      "t": 79459.19691666677,
      "d": 40.81633333333593,
      "v": 51
    },
    {
      "midi": 61,
      "hit": false,
      "t": 79459.19691666677,
      "d": 102.04083333334711,
      "v": 49
    },
    {
      "midi": 58,
      "hit": false,
      "t": 79474.50304166677,
      "d": 91.83675000001676,
      "v": 40
    },
    {
      "midi": 90,
      "hit": false,
      "t": 79612.25816666678,
      "d": 137.75512499999604,
      "v": 52
    },
    {
      "midi": 88,
      "hit": false,
      "t": 79775.52350000011,
      "d": 66.32654166666907,
      "v": 76
    },
    {
      "midi": 87,
      "hit": false,
      "t": 79913.27862500011,
      "d": 209.18370833333756,
      "v": 52
    },
    {
      "midi": 85,
      "hit": false,
      "t": 80071.44191666678,
      "d": 127.5510416666657,
      "v": 76
    },
    {
      "midi": 84,
      "hit": false,
      "t": 80229.60520833345,
      "d": 81.63266666667187,
      "v": 48
    },
    {
      "midi": 82,
      "hit": false,
      "t": 80382.66645833345,
      "d": 142.85716666668304,
      "v": 51
    },
    {
      "midi": 54,
      "hit": false,
      "t": 80387.76850000012,
      "d": 346.9388333333336,
      "v": 50
    },
    {
      "midi": 64,
      "hit": false,
      "t": 80397.97258333345,
      "d": 301.0204583333398,
      "v": 46
    },
    {
      "midi": 61,
      "hit": false,
      "t": 80403.07462500012,
      "d": 346.9388333333336,
      "v": 37
    },
    {
      "midi": 58,
      "hit": false,
      "t": 80443.89095833346,
      "d": 341.8367916666757,
      "v": 19
    },
    {
      "midi": 80,
      "hit": false,
      "t": 80535.72770833346,
      "d": 153.06124999999884,
      "v": 29
    },
    {
      "midi": 79,
      "hit": false,
      "t": 80744.91141666679,
      "d": 35.71429166667804,
      "v": 33
    },
    {
      "midi": 81,
      "hit": false,
      "t": 80857.15633333346,
      "d": 244.89800000000105,
      "v": 53
    },
    {
      "midi": 77,
      "hit": false,
      "t": 81132.66658333347,
      "d": 107.14287499999045,
      "v": 67
    },
    {
      "midi": 65,
      "hit": false,
      "t": 81142.8706666668,
      "d": 51.02041666666628,
      "v": 36
    },
    {
      "midi": 57,
      "hit": false,
      "t": 81153.07475000013,
      "d": 56.12245833333873,
      "v": 35
    },
    {
      "midi": 62,
      "hit": false,
      "t": 81153.07475000013,
      "d": 76.53062499999942,
      "v": 44
    },
    {
      "midi": 77,
      "hit": false,
      "t": 81448.9931666668,
      "d": 122.44899999999325,
      "v": 62
    },
    {
      "midi": 65,
      "hit": false,
      "t": 81750.01362500012,
      "d": 45.91837499999383,
      "v": 35
    },
    {
      "midi": 62,
      "hit": false,
      "t": 81750.01362500012,
      "d": 71.42858333332697,
      "v": 44
    },
    {
      "midi": 57,
      "hit": false,
      "t": 81760.21770833345,
      "d": 40.81633333333593,
      "v": 29
    },
    {
      "midi": 81,
      "hit": false,
      "t": 82239.80962500011,
      "d": 198.97962499999267,
      "v": 84
    },
    {
      "midi": 65,
      "hit": false,
      "t": 82250.01370833344,
      "d": 40.81633333333593,
      "v": 53
    },
    {
      "midi": 57,
      "hit": false,
      "t": 82260.21779166677,
      "d": 45.91837500000838,
      "v": 50
    },
    {
      "midi": 62,
      "hit": false,
      "t": 82260.21779166677,
      "d": 71.42858333334152,
      "v": 57
    },
    {
      "midi": 80,
      "hit": false,
      "t": 82392.87087500011,
      "d": 117.3469583333208,
      "v": 50
    },
    {
      "midi": 79,
      "hit": false,
      "t": 82520.42191666676,
      "d": 45.91837499999383,
      "v": 43
    },
    {
      "midi": 78,
      "hit": false,
      "t": 82566.34029166675,
      "d": 86.73470833332976,
      "v": 58
    },
    {
      "midi": 77,
      "hit": false,
      "t": 82663.27908333341,
      "d": 91.83674999998766,
      "v": 62
    },
    {
      "midi": 62,
      "hit": false,
      "t": 82709.19745833341,
      "d": 51.02041666666628,
      "v": 28
    },
    {
      "midi": 81,
      "hit": false,
      "t": 82857.15666666673,
      "d": 163.26533333332918,
      "v": 88
    },
    {
      "midi": 80,
      "hit": false,
      "t": 83000.0138333334,
      "d": 76.53062499999942,
      "v": 36
    },
    {
      "midi": 79,
      "hit": false,
      "t": 83086.74854166673,
      "d": 51.02041666666628,
      "v": 44
    },
    {
      "midi": 78,
      "hit": false,
      "t": 83163.27916666673,
      "d": 51.02041666666628,
      "v": 47
    },
    {
      "midi": 77,
      "hit": false,
      "t": 83229.6057083334,
      "d": 40.81633333333593,
      "v": 49
    },
    {
      "midi": 62,
      "hit": false,
      "t": 83301.03429166674,
      "d": 183.67350000001898,
      "v": 44
    },
    {
      "midi": 65,
      "hit": false,
      "t": 83306.13633333342,
      "d": 86.73470833334432,
      "v": 54
    },
    {
      "midi": 56,
      "hit": false,
      "t": 83311.23837500009,
      "d": 117.34695833333535,
      "v": 47
    },
    {
      "midi": 81,
      "hit": false,
      "t": 83311.23837500009,
      "d": 188.77554166667687,
      "v": 82
    },
    {
      "midi": 80,
      "hit": false,
      "t": 83459.19758333343,
      "d": 91.83675000000221,
      "v": 46
    },
    {
      "midi": 79,
      "hit": false,
      "t": 83561.23841666676,
      "d": 35.714291666663485,
      "v": 46
    },
    {
      "midi": 78,
      "hit": false,
      "t": 83602.0547500001,
      "d": 56.12245833333873,
      "v": 44
    },
    {
      "midi": 77,
      "hit": false,
      "t": 83663.27925000011,
      "d": 107.142875000005,
      "v": 46
    },
    {
      "midi": 65,
      "hit": false,
      "t": 84076.54462500011,
      "d": 51.02041666666628,
      "v": 55
    },
    {
      "midi": 62,
      "hit": false,
      "t": 84076.54462500011,
      "d": 76.53062499999942,
      "v": 58
    },
    {
      "midi": 56,
      "hit": false,
      "t": 84081.64666666678,
      "d": 71.42858333332697,
      "v": 38
    },
    {
      "midi": 65,
      "hit": false,
      "t": 84469.40183333344,
      "d": 61.224500000011176,
      "v": 60
    },
    {
      "midi": 56,
      "hit": false,
      "t": 84474.50387500011,
      "d": 96.93879166667466,
      "v": 46
    },
    {
      "midi": 62,
      "hit": false,
      "t": 84474.50387500011,
      "d": 234.6939166666707,
      "v": 57
    },
    {
      "midi": 89,
      "hit": false,
      "t": 84821.44270833344,
      "d": 61.224499999996624,
      "v": 74
    },
    {
      "midi": 92,
      "hit": false,
      "t": 84923.48354166678,
      "d": 127.5510416666657,
      "v": 48
    },
    {
      "midi": 89,
      "hit": false,
      "t": 84989.81008333345,
      "d": 117.34695833333535,
      "v": 59
    },
    {
      "midi": 65,
      "hit": false,
      "t": 85066.34070833345,
      "d": 56.12245833333873,
      "v": 36
    },
    {
      "midi": 62,
      "hit": false,
      "t": 85066.34070833345,
      "d": 142.8571666666685,
      "v": 45
    },
    {
      "midi": 56,
      "hit": false,
      "t": 85076.54479166678,
      "d": 214.28575000001,
      "v": 33
    },
    {
      "midi": 86,
      "hit": false,
      "t": 85091.85091666678,
      "d": 107.142875000005,
      "v": 58
    },
    {
      "midi": 85,
      "hit": false,
      "t": 85290.83054166679,
      "d": 96.93879166666011,
      "v": 72
    },
    {
      "midi": 84,
      "hit": false,
      "t": 85454.09587500012,
      "d": 142.8571666666685,
      "v": 47
    },
    {
      "midi": 83,
      "hit": false,
      "t": 85602.05508333346,
      "d": 102.04083333333256,
      "v": 68
    },
    {
      "midi": 64,
      "hit": false,
      "t": 85632.66733333346,
      "d": 71.42858333332697,
      "v": 41
    },
    {
      "midi": 60,
      "hit": false,
      "t": 85653.07550000012,
      "d": 56.12245833333873,
      "v": 36
    },
    {
      "midi": 57,
      "hit": false,
      "t": 85658.1775416668,
      "d": 76.53062499999942,
      "v": 30
    },
    {
      "midi": 80,
      "hit": false,
      "t": 85775.52450000013,
      "d": 153.06124999999884,
      "v": 43
    },
    {
      "midi": 83,
      "hit": false,
      "t": 86000.01433333346,
      "d": 147.9592083333264,
      "v": 73
    },
    {
      "midi": 80,
      "hit": false,
      "t": 86219.40212500011,
      "d": 40.81633333333593,
      "v": 31
    },
    {
      "midi": 64,
      "hit": false,
      "t": 86301.03479166678,
      "d": 204.08166666666511,
      "v": 35
    },
    {
      "midi": 60,
      "hit": false,
      "t": 86321.44295833344,
      "d": 219.38779166668246,
      "v": 40
    },
    {
      "midi": 81,
      "hit": false,
      "t": 86326.54500000011,
      "d": 147.9592083333264,
      "v": 66
    },
    {
      "midi": 57,
      "hit": false,
      "t": 86326.54500000011,
      "d": 316.32658333334257,
      "v": 36
    },
    {
      "midi": 76,
      "hit": false,
      "t": 86510.21850000012,
      "d": 91.83675000000221,
      "v": 53
    },
    {
      "midi": 74,
      "hit": false,
      "t": 86673.48383333346,
      "d": 66.32654166666907,
      "v": 32
    },
    {
      "midi": 72,
      "hit": false,
      "t": 86867.3614166668,
      "d": 51.02041666666628,
      "v": 30
    },
    {
      "midi": 64,
      "hit": false,
      "t": 86887.76958333346,
      "d": 173.46941666667408,
      "v": 27
    },
    {
      "midi": 60,
      "hit": false,
      "t": 86892.87162500013,
      "d": 321.42862500000047,
      "v": 29
    },
    {
      "midi": 57,
      "hit": false,
      "t": 86913.27979166679,
      "d": 352.04087500000605,
      "v": 22
    },
    {
      "midi": 74,
      "hit": false,
      "t": 87056.13695833346,
      "d": 81.63266666667187,
      "v": 84
    },
    {
      "midi": 75,
      "hit": false,
      "t": 87173.4839166668,
      "d": 86.73470833332976,
      "v": 50
    },
    {
      "midi": 74,
      "hit": false,
      "t": 87239.81045833346,
      "d": 107.14287499999045,
      "v": 45
    },
    {
      "midi": 72,
      "hit": false,
      "t": 87326.5451666668,
      "d": 102.04083333333256,
      "v": 44
    },
    {
      "midi": 71,
      "hit": false,
      "t": 87459.19825000013,
      "d": 71.42858333332697,
      "v": 64
    },
    {
      "midi": 74,
      "hit": false,
      "t": 87576.54520833345,
      "d": 122.44900000002235,
      "v": 71
    },
    {
      "midi": 60,
      "hit": false,
      "t": 87581.64725000013,
      "d": 86.73470833334432,
      "v": 36
    },
    {
      "midi": 64,
      "hit": false,
      "t": 87581.64725000013,
      "d": 86.73470833334432,
      "v": 18
    },
    {
      "midi": 57,
      "hit": false,
      "t": 87586.7492916668,
      "d": 260.20412500000384,
      "v": 44
    },
    {
      "midi": 71,
      "hit": false,
      "t": 87734.70850000014,
      "d": 51.02041666666628,
      "v": 54
    },
    {
      "midi": 72,
      "hit": false,
      "t": 87857.15750000013,
      "d": 158.16329166667128,
      "v": 78
    },
    {
      "midi": 69,
      "hit": false,
      "t": 88051.03508333347,
      "d": 76.53062499999942,
      "v": 65
    },
    {
      "midi": 60,
      "hit": false,
      "t": 88091.8514166668,
      "d": 122.44899999999325,
      "v": 28
    },
    {
      "midi": 53,
      "hit": false,
      "t": 88112.25958333346,
      "d": 81.63266666667187,
      "v": 32
    },
    {
      "midi": 57,
      "hit": false,
      "t": 88112.25958333346,
      "d": 219.3877916666679,
      "v": 30
    },
    {
      "midi": 64,
      "hit": false,
      "t": 88178.58612500013,
      "d": 198.97962499999267,
      "v": 38
    },
    {
      "midi": 64,
      "hit": false,
      "t": 88459.1984166668,
      "d": 61.224499999996624,
      "v": 54
    },
    {
      "midi": 64,
      "hit": false,
      "t": 88780.6270416668,
      "d": 91.83675000000221,
      "v": 35
    },
    {
      "midi": 60,
      "hit": false,
      "t": 88780.6270416668,
      "d": 107.142875000005,
      "v": 47
    },
    {
      "midi": 57,
      "hit": false,
      "t": 88780.6270416668,
      "d": 122.4490000000078,
      "v": 49
    },
    {
      "midi": 53,
      "hit": false,
      "t": 88790.83112500013,
      "d": 86.73470833334432,
      "v": 17
    },
    {
      "midi": 62,
      "hit": false,
      "t": 89244.91283333347,
      "d": 66.32654166666907,
      "v": 44
    },
    {
      "midi": 60,
      "hit": false,
      "t": 89255.1169166668,
      "d": 66.32654166666907,
      "v": 35
    },
    {
      "midi": 57,
      "hit": false,
      "t": 89265.32100000013,
      "d": 76.53062500001397,
      "v": 29
    },
    {
      "midi": 53,
      "hit": false,
      "t": 89280.62712500013,
      "d": 56.12245833333873,
      "v": 18
    },
    {
      "midi": 62,
      "hit": false,
      "t": 89688.79045833347,
      "d": 40.81633333333593,
      "v": 60
    },
    {
      "midi": 57,
      "hit": false,
      "t": 89714.30066666681,
      "d": 76.53062499999942,
      "v": 53
    },
    {
      "midi": 60,
      "hit": false,
      "t": 89719.40270833348,
      "d": 35.714291666663485,
      "v": 45
    },
    {
      "midi": 60,
      "hit": false,
      "t": 90193.89258333348,
      "d": 35.714291666663485,
      "v": 41
    },
    {
      "midi": 57,
      "hit": false,
      "t": 90193.89258333348,
      "d": 45.91837499999383,
      "v": 42
    },
    {
      "midi": 53,
      "hit": false,
      "t": 90229.60687500014,
      "d": 40.81633333333593,
      "v": 24
    },
    {
      "midi": 57,
      "hit": false,
      "t": 90479.60691666682,
      "d": 66.32654166666907,
      "v": 55
    },
    {
      "midi": 60,
      "hit": false,
      "t": 90484.70895833349,
      "d": 35.714291666663485,
      "v": 47
    },
    {
      "midi": 53,
      "hit": false,
      "t": 90500.01508333349,
      "d": 96.93879166666011,
      "v": 35
    },
    {
      "midi": 80,
      "hit": false,
      "t": 90591.85183333348,
      "d": 112.24491666667745,
      "v": 70
    },
    {
      "midi": 86,
      "hit": false,
      "t": 90591.85183333348,
      "d": 183.67350000001898,
      "v": 80
    },
    {
      "midi": 77,
      "hit": false,
      "t": 90602.05591666682,
      "d": 40.81633333333593,
      "v": 49
    },
    {
      "midi": 81,
      "hit": false,
      "t": 90719.40287500016,
      "d": 76.53062500001397,
      "v": 38
    },
    {
      "midi": 57,
      "hit": false,
      "t": 90790.8314583335,
      "d": 61.224499999996624,
      "v": 31
    },
    {
      "midi": 53,
      "hit": false,
      "t": 90816.34166666683,
      "d": 86.73470833334432,
      "v": 15
    },
    {
      "midi": 86,
      "hit": false,
      "t": 90892.87229166683,
      "d": 224.48983333334036,
      "v": 81
    },
    {
      "midi": 80,
      "hit": false,
      "t": 90897.9743333335,
      "d": 127.5510416666657,
      "v": 70
    },
    {
      "midi": 81,
      "hit": false,
      "t": 91030.62741666684,
      "d": 107.14287499999045,
      "v": 32
    },
    {
      "midi": 60,
      "hit": false,
      "t": 91081.64783333351,
      "d": 35.714291666663485,
      "v": 40
    },
    {
      "midi": 57,
      "hit": false,
      "t": 91107.15804166684,
      "d": 86.73470833331521,
      "v": 31
    },
    {
      "midi": 53,
      "hit": false,
      "t": 91117.36212500017,
      "d": 96.93879166664556,
      "v": 24
    },
    {
      "midi": 74,
      "hit": false,
      "t": 91183.68866666683,
      "d": 127.55104166665114,
      "v": 58
    },
    {
      "midi": 74,
      "hit": false,
      "t": 91505.11729166681,
      "d": 61.224499999996624,
      "v": 65
    },
    {
      "midi": 57,
      "hit": false,
      "t": 92025.52554166681,
      "d": 66.32654166666907,
      "v": 58
    },
    {
      "midi": 48,
      "hit": false,
      "t": 92030.62758333348,
      "d": 81.63266666665731,
      "v": 54
    },
    {
      "midi": 48,
      "hit": false,
      "t": 92433.68887500014,
      "d": 117.34695833333535,
      "v": 50
    },
    {
      "midi": 57,
      "hit": false,
      "t": 92438.79091666681,
      "d": 40.81633333333593,
      "v": 51
    },
    {
      "midi": 79,
      "hit": false,
      "t": 92923.48487500014,
      "d": 76.53062499999942,
      "v": 66
    },
    {
      "midi": 55,
      "hit": false,
      "t": 92938.79100000014,
      "d": 30.612249999991036,
      "v": 62
    },
    {
      "midi": 47,
      "hit": false,
      "t": 92959.1991666668,
      "d": 40.81633333333593,
      "v": 31
    },
    {
      "midi": 85,
      "hit": false,
      "t": 93035.7297916668,
      "d": 71.42858333332697,
      "v": 64
    },
    {
      "midi": 82,
      "hit": false,
      "t": 93035.7297916668,
      "d": 117.3469583333208,
      "v": 61
    },
    {
      "midi": 86,
      "hit": false,
      "t": 93153.07675000012,
      "d": 81.63266666665731,
      "v": 74
    },
    {
      "midi": 83,
      "hit": false,
      "t": 93163.28083333345,
      "d": 71.42858333332697,
      "v": 61
    },
    {
      "midi": 79,
      "hit": false,
      "t": 93275.52575000012,
      "d": 61.224499999996624,
      "v": 50
    },
    {
      "midi": 82,
      "hit": false,
      "t": 93362.26045833345,
      "d": 35.714291666663485,
      "v": 42
    },
    {
      "midi": 78,
      "hit": false,
      "t": 93362.26045833345,
      "d": 86.73470833332976,
      "v": 55
    },
    {
      "midi": 79,
      "hit": false,
      "t": 93479.60741666678,
      "d": 45.91837500000838,
      "v": 36
    },
    {
      "midi": 83,
      "hit": false,
      "t": 93484.70945833345,
      "d": 40.81633333333593,
      "v": 34
    },
    {
      "midi": 74,
      "hit": false,
      "t": 93566.34212500013,
      "d": 81.63266666667187,
      "v": 65
    },
    {
      "midi": 73,
      "hit": false,
      "t": 93683.68908333346,
      "d": 76.53062499999942,
      "v": 27
    },
    {
      "midi": 79,
      "hit": false,
      "t": 93729.60745833346,
      "d": 86.73470833332976,
      "v": 28
    },
    {
      "midi": 74,
      "hit": false,
      "t": 93780.62787500012,
      "d": 45.91837499999383,
      "v": 43
    },
    {
      "midi": 69,
      "hit": false,
      "t": 93882.66870833345,
      "d": 61.224499999996624,
      "v": 44
    },
    {
      "midi": 55,
      "hit": false,
      "t": 93892.87279166678,
      "d": 30.612250000005588,
      "v": 34
    },
    {
      "midi": 70,
      "hit": false,
      "t": 93948.99525000012,
      "d": 117.3469583333208,
      "v": 67
    },
    {
      "midi": 73,
      "hit": false,
      "t": 93959.19933333345,
      "d": 86.73470833332976,
      "v": 34
    },
    {
      "midi": 74,
      "hit": false,
      "t": 94102.05650000011,
      "d": 45.91837499999383,
      "v": 33
    },
    {
      "midi": 71,
      "hit": false,
      "t": 94102.05650000011,
      "d": 61.224499999996624,
      "v": 35
    },
    {
      "midi": 67,
      "hit": false,
      "t": 94193.89325000011,
      "d": 81.63266666665731,
      "v": 59
    },
    {
      "midi": 47,
      "hit": false,
      "t": 94229.60754166677,
      "d": 35.714291666663485,
      "v": 24
    },
    {
      "midi": 66,
      "hit": false,
      "t": 94280.62795833344,
      "d": 76.53062499999942,
      "v": 54
    },
    {
      "midi": 70,
      "hit": false,
      "t": 94285.73000000011,
      "d": 81.63266666665731,
      "v": 37
    },
    {
      "midi": 71,
      "hit": false,
      "t": 94392.8728750001,
      "d": 45.91837500000838,
      "v": 40
    },
    {
      "midi": 67,
      "hit": false,
      "t": 94397.97491666678,
      "d": 61.224499999996624,
      "v": 46
    },
    {
      "midi": 62,
      "hit": false,
      "t": 94505.11779166677,
      "d": 76.53062499999942,
      "v": 56
    },
    {
      "midi": 61,
      "hit": false,
      "t": 94596.95454166677,
      "d": 96.93879166666011,
      "v": 51
    },
    {
      "midi": 67,
      "hit": false,
      "t": 94607.1586250001,
      "d": 137.75512499999604,
      "v": 48
    },
    {
      "midi": 55,
      "hit": false,
      "t": 95091.85258333343,
      "d": 25.51020833333314,
      "v": 63
    },
    {
      "midi": 47,
      "hit": false,
      "t": 95096.9546250001,
      "d": 35.714291666663485,
      "v": 44
    },
    {
      "midi": 59,
      "hit": false,
      "t": 95193.89341666676,
      "d": 56.12245833333873,
      "v": 36
    },
    {
      "midi": 62,
      "hit": false,
      "t": 95321.44445833343,
      "d": 71.42858333332697,
      "v": 47
    },
    {
      "midi": 67,
      "hit": false,
      "t": 95392.87304166675,
      "d": 117.34695833333535,
      "v": 79
    },
    {
      "midi": 65,
      "hit": false,
      "t": 95505.11795833342,
      "d": 239.79595833334315,
      "v": 48
    },
    {
      "midi": 56,
      "hit": false,
      "t": 95704.09758333342,
      "d": 51.02041666666628,
      "v": 28
    },
    {
      "midi": 62,
      "hit": false,
      "t": 95806.13841666676,
      "d": 102.04083333333256,
      "v": 57
    },
    {
      "midi": 62,
      "hit": false,
      "t": 96010.22008333342,
      "d": 40.816333333350485,
      "v": 33
    },
    {
      "midi": 56,
      "hit": false,
      "t": 96010.22008333342,
      "d": 102.04083333334711,
      "v": 39
    },
    {
      "midi": 59,
      "hit": false,
      "t": 96015.3221250001,
      "d": 56.12245833333873,
      "v": 58
    },
    {
      "midi": 53,
      "hit": false,
      "t": 96020.42416666677,
      "d": 40.81633333333593,
      "v": 36
    },
    {
      "midi": 56,
      "hit": false,
      "t": 96316.34258333343,
      "d": 35.714291666663485,
      "v": 42
    },
    {
      "midi": 65,
      "hit": false,
      "t": 96326.54666666676,
      "d": 35.714291666663485,
      "v": 62
    },
    {
      "midi": 68,
      "hit": false,
      "t": 96423.48545833342,
      "d": 76.53062499999942,
      "v": 38
    },
    {
      "midi": 71,
      "hit": false,
      "t": 96535.73037500009,
      "d": 61.224499999996624,
      "v": 68
    },
    {
      "midi": 74,
      "hit": false,
      "t": 96622.46508333342,
      "d": 198.97962500000722,
      "v": 92
    },
    {
      "midi": 62,
      "hit": false,
      "t": 96637.77120833342,
      "d": 30.612250000005588,
      "v": 57
    },
    {
      "midi": 56,
      "hit": false,
      "t": 96647.97529166675,
      "d": 96.93879166667466,
      "v": 34
    },
    {
      "midi": 59,
      "hit": false,
      "t": 96663.28141666675,
      "d": 35.71429166667804,
      "v": 35
    },
    {
      "midi": 72,
      "hit": false,
      "t": 96744.91408333342,
      "d": 168.36737500000163,
      "v": 75
    },
    {
      "midi": 67,
      "hit": false,
      "t": 96954.09779166676,
      "d": 91.83675000000221,
      "v": 77
    },
    {
      "midi": 55,
      "hit": false,
      "t": 96979.6080000001,
      "d": 40.81633333333593,
      "v": 30
    },
    {
      "midi": 64,
      "hit": false,
      "t": 97081.64883333343,
      "d": 112.2449166666629,
      "v": 37
    },
    {
      "midi": 62,
      "hit": false,
      "t": 97250.01620833343,
      "d": 96.93879166666011,
      "v": 71
    },
    {
      "midi": 60,
      "hit": false,
      "t": 97403.07745833343,
      "d": 183.67349999998987,
      "v": 35
    },
    {
      "midi": 55,
      "hit": false,
      "t": 97540.83258333342,
      "d": 35.714291666663485,
      "v": 26
    },
    {
      "midi": 62,
      "hit": false,
      "t": 97647.97545833341,
      "d": 158.16329166667128,
      "v": 70
    },
    {
      "midi": 47,
      "hit": false,
      "t": 97954.09795833341,
      "d": 30.612250000005588,
      "v": 55
    },
    {
      "midi": 57,
      "hit": false,
      "t": 97954.09795833341,
      "d": 45.91837500000838,
      "v": 54
    },
    {
      "midi": 63,
      "hit": false,
      "t": 98433.68987500008,
      "d": 51.02041666666628,
      "v": 61
    },
    {
      "midi": 62,
      "hit": false,
      "t": 98484.71029166675,
      "d": 86.73470833332976,
      "v": 70
    },
    {
      "midi": 69,
      "hit": false,
      "t": 98571.44500000008,
      "d": 30.612249999991036,
      "v": 57
    },
    {
      "midi": 65,
      "hit": false,
      "t": 98571.44500000008,
      "d": 35.714291666663485,
      "v": 46
    },
    {
      "midi": 71,
      "hit": false,
      "t": 98571.44500000008,
      "d": 35.714291666663485,
      "v": 47
    },
    {
      "midi": 76,
      "hit": false,
      "t": 98571.44500000008,
      "d": 61.224499999996624,
      "v": 68
    },
    {
      "midi": 64,
      "hit": false,
      "t": 98581.64908333341,
      "d": 61.224499999996624,
      "v": 53
    },
    {
      "midi": 62,
      "hit": false,
      "t": 98673.48583333341,
      "d": 71.42858333332697,
      "v": 49
    },
    {
      "midi": 76,
      "hit": false,
      "t": 98750.01645833341,
      "d": 117.3469583333499,
      "v": 82
    },
    {
      "midi": 65,
      "hit": false,
      "t": 98755.11850000008,
      "d": 61.224500000011176,
      "v": 79
    },
    {
      "midi": 69,
      "hit": false,
      "t": 98760.22054166676,
      "d": 61.224500000011176,
      "v": 71
    },
    {
      "midi": 71,
      "hit": false,
      "t": 98770.42462500009,
      "d": 30.612250000005588,
      "v": 56
    },
    {
      "midi": 64,
      "hit": false,
      "t": 98775.52666666676,
      "d": 81.63266666667187,
      "v": 78
    },
    {
      "midi": 62,
      "hit": false,
      "t": 98882.66954166676,
      "d": 112.2449166666629,
      "v": 62
    },
    {
      "midi": 65,
      "hit": false,
      "t": 99413.28187500009,
      "d": 30.612250000005588,
      "v": 75
    },
    {
      "midi": 68,
      "hit": false,
      "t": 99413.28187500009,
      "d": 35.71429166667804,
      "v": 57
    },
    {
      "midi": 76,
      "hit": false,
      "t": 99413.28187500009,
      "d": 40.816333333350485,
      "v": 71
    },
    {
      "midi": 70,
      "hit": false,
      "t": 99418.38391666676,
      "d": 30.612250000005588,
      "v": 52
    },
    {
      "midi": 64,
      "hit": false,
      "t": 99433.69004166676,
      "d": 61.224500000011176,
      "v": 67
    },
    {
      "midi": 62,
      "hit": false,
      "t": 99535.73087500011,
      "d": 81.63266666667187,
      "v": 44
    },
    {
      "midi": 76,
      "hit": false,
      "t": 99612.26150000011,
      "d": 107.142875000005,
      "v": 89
    },
    {
      "midi": 65,
      "hit": false,
      "t": 99617.36354166678,
      "d": 61.224499999996624,
      "v": 88
    },
    {
      "midi": 68,
      "hit": false,
      "t": 99622.46558333345,
      "d": 45.91837499999383,
      "v": 70
    },
    {
      "midi": 64,
      "hit": false,
      "t": 99647.97579166679,
      "d": 76.53062499999942,
      "v": 70
    },
    {
      "midi": 76,
      "hit": false,
      "t": 100025.52687500013,
      "d": 132.65308333336725,
      "v": 81
    },
    {
      "midi": 68,
      "hit": false,
      "t": 100030.6289166668,
      "d": 107.14287500001956,
      "v": 69
    },
    {
      "midi": 70,
      "hit": false,
      "t": 100035.73095833347,
      "d": 71.42858333334152,
      "v": 68
    },
    {
      "midi": 65,
      "hit": false,
      "t": 100035.73095833347,
      "d": 76.53062500001397,
      "v": 81
    },
    {
      "midi": 64,
      "hit": false,
      "t": 100051.03708333347,
      "d": 81.63266666667187,
      "v": 74
    },
    {
      "midi": 62,
      "hit": false,
      "t": 100153.07791666682,
      "d": 158.16329166667128,
      "v": 53
    },
    {
      "midi": 74,
      "hit": false,
      "t": 100158.1799583335,
      "d": 122.44899999999325,
      "v": 54
    },
    {
      "midi": 76,
      "hit": false,
      "t": 100321.44529166682,
      "d": 107.142875000005,
      "v": 82
    },
    {
      "midi": 65,
      "hit": false,
      "t": 100331.64937500015,
      "d": 66.32654166666907,
      "v": 65
    },
    {
      "midi": 64,
      "hit": false,
      "t": 100346.95550000016,
      "d": 51.02041666666628,
      "v": 41
    },
    {
      "midi": 74,
      "hit": false,
      "t": 100433.6902083335,
      "d": 147.95920833334094,
      "v": 29
    },
    {
      "midi": 57,
      "hit": false,
      "t": 100474.50654166684,
      "d": 127.5510416666657,
      "v": 39
    },
    {
      "midi": 60,
      "hit": false,
      "t": 100484.71062500017,
      "d": 91.83675000000221,
      "v": 40
    },
    {
      "midi": 74,
      "hit": false,
      "t": 100734.71066666684,
      "d": 117.34695833333535,
      "v": 69
    },
    {
      "midi": 64,
      "hit": false,
      "t": 101025.52704166684,
      "d": 107.142875000005,
      "v": 34
    },
    {
      "midi": 74,
      "hit": false,
      "t": 101030.62908333351,
      "d": 193.87758333333477,
      "v": 74
    },
    {
      "midi": 57,
      "hit": false,
      "t": 101040.83316666684,
      "d": 270.4082083333342,
      "v": 35
    },
    {
      "midi": 60,
      "hit": false,
      "t": 101045.93520833351,
      "d": 173.46941666665953,
      "v": 46
    },
    {
      "midi": 72,
      "hit": false,
      "t": 101316.34341666684,
      "d": 117.34695833333535,
      "v": 47
    },
    {
      "midi": 64,
      "hit": false,
      "t": 101622.46591666684,
      "d": 102.04083333333256,
      "v": 57
    },
    {
      "midi": 60,
      "hit": false,
      "t": 101642.8740833335,
      "d": 51.02041666666628,
      "v": 41
    },
    {
      "midi": 74,
      "hit": false,
      "t": 101647.97612500018,
      "d": 96.93879166666011,
      "v": 68
    },
    {
      "midi": 56,
      "hit": false,
      "t": 101668.38429166684,
      "d": 76.53062499999942,
      "v": 19
    },
    {
      "midi": 72,
      "hit": false,
      "t": 102153.07825000017,
      "d": 45.91837499999383,
      "v": 65
    },
    {
      "midi": 74,
      "hit": false,
      "t": 102285.73133333349,
      "d": 112.2449166666629,
      "v": 96
    },
    {
      "midi": 81,
      "hit": false,
      "t": 102295.93541666682,
      "d": 81.63266666667187,
      "v": 77
    },
    {
      "midi": 75,
      "hit": false,
      "t": 102454.09870833349,
      "d": 96.93879166666011,
      "v": 43
    },
    {
      "midi": 74,
      "hit": false,
      "t": 102489.81300000015,
      "d": 147.9592083333264,
      "v": 55
    },
    {
      "midi": 72,
      "hit": false,
      "t": 102612.26200000015,
      "d": 117.34695833333535,
      "v": 41
    },
    {
      "midi": 71,
      "hit": false,
      "t": 102775.52733333348,
      "d": 71.42858333332697,
      "v": 63
    },
    {
      "midi": 74,
      "hit": false,
      "t": 102887.77225000014,
      "d": 163.26533333332918,
      "v": 81
    },
    {
      "midi": 71,
      "hit": false,
      "t": 103071.44575000013,
      "d": 71.42858333332697,
      "v": 60
    },
    {
      "midi": 72,
      "hit": false,
      "t": 103193.89475000012,
      "d": 132.65308333333815,
      "v": 60
    },
    {
      "midi": 69,
      "hit": false,
      "t": 103367.3641666668,
      "d": 56.12245833333873,
      "v": 51
    },
    {
      "midi": 64,
      "hit": false,
      "t": 103494.91520833346,
      "d": 158.16329166667128,
      "v": 34
    },
    {
      "midi": 54,
      "hit": false,
      "t": 103938.79283333347,
      "d": 66.32654166668362,
      "v": 35
    },
    {
      "midi": 64,
      "hit": false,
      "t": 103943.89487500014,
      "d": 35.71429166667804,
      "v": 40
    },
    {
      "midi": 60,
      "hit": false,
      "t": 103948.99691666682,
      "d": 45.91837500000838,
      "v": 47
    },
    {
      "midi": 93,
      "hit": false,
      "t": 104102.05816666681,
      "d": 40.81633333333593,
      "v": 61
    },
    {
      "midi": 94,
      "hit": false,
      "t": 104178.58879166681,
      "d": 96.93879166667466,
      "v": 64
    },
    {
      "midi": 93,
      "hit": false,
      "t": 104244.91533333348,
      "d": 61.224500000011176,
      "v": 58
    },
    {
      "midi": 91,
      "hit": false,
      "t": 104336.7520833335,
      "d": 51.02041666666628,
      "v": 64
    },
    {
      "midi": 90,
      "hit": false,
      "t": 104469.40516666684,
      "d": 81.63266666667187,
      "v": 58
    },
    {
      "midi": 87,
      "hit": false,
      "t": 104627.56845833351,
      "d": 81.63266666667187,
      "v": 73
    },
    {
      "midi": 86,
      "hit": false,
      "t": 104765.32358333352,
      "d": 107.142875000005,
      "v": 73
    },
    {
      "midi": 84,
      "hit": false,
      "t": 104913.28279166686,
      "d": 76.53062499999942,
      "v": 64
    },
    {
      "midi": 82,
      "hit": false,
      "t": 105045.9358750002,
      "d": 137.75512499999604,
      "v": 37
    },
    {
      "midi": 81,
      "hit": false,
      "t": 105219.40529166686,
      "d": 76.53062499999942,
      "v": 46
    },
    {
      "midi": 62,
      "hit": false,
      "t": 105270.42570833353,
      "d": 183.67349999998987,
      "v": 47
    },
    {
      "midi": 55,
      "hit": false,
      "t": 105280.62979166686,
      "d": 280.61229166666453,
      "v": 35
    },
    {
      "midi": 58,
      "hit": false,
      "t": 105290.83387500019,
      "d": 250.0000416666735,
      "v": 29
    },
    {
      "midi": 84,
      "hit": false,
      "t": 105331.65020833352,
      "d": 163.26533333332918,
      "v": 80
    },
    {
      "midi": 81,
      "hit": false,
      "t": 105525.52779166686,
      "d": 51.02041666666628,
      "v": 47
    },
    {
      "midi": 82,
      "hit": false,
      "t": 105637.77270833352,
      "d": 127.5510416666657,
      "v": 72
    },
    {
      "midi": 78,
      "hit": false,
      "t": 105821.44620833352,
      "d": 61.224499999996624,
      "v": 37
    },
    {
      "midi": 62,
      "hit": false,
      "t": 105908.18091666685,
      "d": 168.36737500000163,
      "v": 52
    },
    {
      "midi": 58,
      "hit": false,
      "t": 105923.48704166686,
      "d": 229.59187499999825,
      "v": 34
    },
    {
      "midi": 81,
      "hit": false,
      "t": 105933.69112500019,
      "d": 244.89800000000105,
      "v": 70
    },
    {
      "midi": 55,
      "hit": false,
      "t": 105943.89520833352,
      "d": 132.65308333333815,
      "v": 42
    },
    {
      "midi": 74,
      "hit": false,
      "t": 106219.40545833352,
      "d": 86.73470833332976,
      "v": 62
    },
    {
      "midi": 63,
      "hit": false,
      "t": 106500.01775000019,
      "d": 239.7959583333286,
      "v": 54
    },
    {
      "midi": 55,
      "hit": false,
      "t": 106535.73204166685,
      "d": 260.20412500000384,
      "v": 42
    },
    {
      "midi": 58,
      "hit": false,
      "t": 106545.93612500018,
      "d": 321.42862500000047,
      "v": 31
    },
    {
      "midi": 94,
      "hit": false,
      "t": 107020.42600000018,
      "d": 61.224499999996624,
      "v": 68
    },
    {
      "midi": 63,
      "hit": false,
      "t": 107137.77295833352,
      "d": 209.18370833333756,
      "v": 59
    },
    {
      "midi": 99,
      "hit": false,
      "t": 107153.07908333352,
      "d": 153.06124999999884,
      "v": 82
    },
    {
      "midi": 55,
      "hit": false,
      "t": 107153.07908333352,
      "d": 183.67350000000442,
      "v": 59
    },
    {
      "midi": 58,
      "hit": false,
      "t": 107163.28316666685,
      "d": 346.9388333333336,
      "v": 47
    },
    {
      "midi": 94,
      "hit": false,
      "t": 107321.44645833352,
      "d": 61.224499999996624,
      "v": 63
    },
    {
      "midi": 62,
      "hit": false,
      "t": 107617.36487500019,
      "d": 117.34695833333535,
      "v": 55
    },
    {
      "midi": 96,
      "hit": false,
      "t": 107622.46691666686,
      "d": 51.02041666666628,
      "v": 77
    },
    {
      "midi": 58,
      "hit": false,
      "t": 107622.46691666686,
      "d": 96.93879166666011,
      "v": 46
    },
    {
      "midi": 97,
      "hit": false,
      "t": 107632.67100000019,
      "d": 132.65308333333815,
      "v": 67
    },
    {
      "midi": 98,
      "hit": false,
      "t": 107770.4261250002,
      "d": 66.32654166666907,
      "v": 57
    },
    {
      "midi": 101,
      "hit": false,
      "t": 107897.97716666687,
      "d": 76.53062499999942,
      "v": 68
    },
    {
      "midi": 89,
      "hit": false,
      "t": 107897.97716666687,
      "d": 81.63266666667187,
      "v": 67
    },
    {
      "midi": 62,
      "hit": false,
      "t": 107928.58941666687,
      "d": 81.63266666665731,
      "v": 55
    },
    {
      "midi": 58,
      "hit": false,
      "t": 107933.69145833355,
      "d": 91.83674999998766,
      "v": 40
    },
    {
      "midi": 57,
      "hit": false,
      "t": 107954.0996250002,
      "d": 35.714291666663485,
      "v": 29
    },
    {
      "midi": 101,
      "hit": false,
      "t": 108035.73229166686,
      "d": 91.83675000000221,
      "v": 55
    },
    {
      "midi": 89,
      "hit": false,
      "t": 108040.83433333354,
      "d": 91.83675000000221,
      "v": 63
    },
    {
      "midi": 101,
      "hit": false,
      "t": 108204.09966666687,
      "d": 96.93879166667466,
      "v": 63
    },
    {
      "midi": 89,
      "hit": false,
      "t": 108209.20170833354,
      "d": 198.97962500000722,
      "v": 59
    },
    {
      "midi": 62,
      "hit": false,
      "t": 108224.50783333354,
      "d": 86.73470833332976,
      "v": 60
    },
    {
      "midi": 58,
      "hit": false,
      "t": 108234.71191666687,
      "d": 91.83675000000221,
      "v": 44
    },
    {
      "midi": 57,
      "hit": false,
      "t": 108250.01804166687,
      "d": 40.81633333333593,
      "v": 32
    },
    {
      "midi": 96,
      "hit": false,
      "t": 108326.54866666687,
      "d": 168.36737500000163,
      "v": 49
    },
    {
      "midi": 97,
      "hit": false,
      "t": 108403.07929166687,
      "d": 51.02041666666628,
      "v": 45
    },
    {
      "midi": 98,
      "hit": false,
      "t": 108454.09970833354,
      "d": 40.81633333333593,
      "v": 63
    },
    {
      "midi": 62,
      "hit": false,
      "t": 108535.73237500021,
      "d": 30.612250000005588,
      "v": 51
    },
    {
      "midi": 58,
      "hit": false,
      "t": 108540.83441666688,
      "d": 40.81633333333593,
      "v": 38
    },
    {
      "midi": 89,
      "hit": false,
      "t": 108551.03850000021,
      "d": 66.32654166666907,
      "v": 66
    },
    {
      "midi": 101,
      "hit": false,
      "t": 108551.03850000021,
      "d": 66.32654166666907,
      "v": 66
    },
    {
      "midi": 57,
      "hit": false,
      "t": 108566.34462500022,
      "d": 61.224499999996624,
      "v": 24
    },
    {
      "midi": 55,
      "hit": false,
      "t": 108596.95687500022,
      "d": 45.91837499999383,
      "v": 30
    },
    {
      "midi": 101,
      "hit": false,
      "t": 108663.28341666688,
      "d": 86.73470833332976,
      "v": 45
    },
    {
      "midi": 89,
      "hit": false,
      "t": 108683.69158333354,
      "d": 66.32654166666907,
      "v": 58
    },
    {
      "midi": 101,
      "hit": false,
      "t": 108841.85487500021,
      "d": 96.93879166667466,
      "v": 66
    },
    {
      "midi": 89,
      "hit": false,
      "t": 108852.05895833354,
      "d": 56.12245833333873,
      "v": 53
    },
    {
      "midi": 64,
      "hit": false,
      "t": 108959.20183333354,
      "d": 204.08166666667967,
      "v": 43
    },
    {
      "midi": 60,
      "hit": false,
      "t": 108969.40591666687,
      "d": 117.34695833333535,
      "v": 44
    },
    {
      "midi": 58,
      "hit": false,
      "t": 108979.6100000002,
      "d": 178.57145833334653,
      "v": 27
    },
    {
      "midi": 96,
      "hit": false,
      "t": 108984.71204166688,
      "d": 137.7551250000106,
      "v": 49
    },
    {
      "midi": 97,
      "hit": false,
      "t": 109020.42633333354,
      "d": 61.224499999996624,
      "v": 45
    },
    {
      "midi": 98,
      "hit": false,
      "t": 109091.85491666688,
      "d": 91.83675000000221,
      "v": 58
    },
    {
      "midi": 89,
      "hit": false,
      "t": 109295.93658333355,
      "d": 96.93879166666011,
      "v": 61
    },
    {
      "midi": 64,
      "hit": false,
      "t": 109581.65091666687,
      "d": 153.06124999999884,
      "v": 52
    },
    {
      "midi": 58,
      "hit": false,
      "t": 109596.95704166687,
      "d": 198.97962499999267,
      "v": 42
    },
    {
      "midi": 60,
      "hit": false,
      "t": 109612.26316666687,
      "d": 96.93879166666011,
      "v": 43
    },
    {
      "midi": 63,
      "hit": false,
      "t": 110056.14079166687,
      "d": 280.6122916666791,
      "v": 60
    },
    {
      "midi": 60,
      "hit": false,
      "t": 110061.24283333354,
      "d": 214.28575000001,
      "v": 54
    },
    {
      "midi": 98,
      "hit": false,
      "t": 110071.44691666687,
      "d": 168.36737500000163,
      "v": 89
    },
    {
      "midi": 55,
      "hit": false,
      "t": 110081.6510000002,
      "d": 178.57145833334653,
      "v": 55
    },
    {
      "midi": 57,
      "hit": false,
      "t": 110081.6510000002,
      "d": 443.8776250000228,
      "v": 47
    },
    {
      "midi": 105,
      "hit": false,
      "t": 110096.9571250002,
      "d": 158.16329166667128,
      "v": 69
    },
    {
      "midi": 99,
      "hit": false,
      "t": 110316.34491666689,
      "d": 96.93879166666011,
      "v": 51
    },
    {
      "midi": 98,
      "hit": false,
      "t": 110352.05920833355,
      "d": 117.34695833333535,
      "v": 62
    },
    {
      "midi": 60,
      "hit": false,
      "t": 110352.05920833355,
      "d": 239.79595833334315,
      "v": 7
    },
    {
      "midi": 96,
      "hit": false,
      "t": 110474.50820833356,
      "d": 61.224499999996624,
      "v": 46
    },
    {
      "midi": 95,
      "hit": false,
      "t": 110561.24291666689,
      "d": 132.65308333333815,
      "v": 59
    },
    {
      "midi": 98,
      "hit": false,
      "t": 110719.40620833356,
      "d": 275.51025000000664,
      "v": 87
    },
    {
      "midi": 63,
      "hit": false,
      "t": 110785.73275000023,
      "d": 285.714333333337,
      "v": 30
    },
    {
      "midi": 55,
      "hit": false,
      "t": 110821.44704166689,
      "d": 265.3061666666763,
      "v": 34
    },
    {
      "midi": 96,
      "hit": false,
      "t": 110846.95725000023,
      "d": 107.142875000005,
      "v": 68
    },
    {
      "midi": 93,
      "hit": false,
      "t": 111015.32462500023,
      "d": 86.73470833334432,
      "v": 71
    },
    {
      "midi": 60,
      "hit": false,
      "t": 111076.54912500024,
      "d": 76.53062499999942,
      "v": 10
    },
    {
      "midi": 88,
      "hit": false,
      "t": 111158.18179166691,
      "d": 96.93879166666011,
      "v": 29
    },
    {
      "midi": 60,
      "hit": false,
      "t": 111377.56958333356,
      "d": 392.857208333342,
      "v": 53
    },
    {
      "midi": 54,
      "hit": false,
      "t": 111387.7736666669,
      "d": 367.34700000000885,
      "v": 42
    },
    {
      "midi": 64,
      "hit": false,
      "t": 111392.87570833357,
      "d": 244.89800000000105,
      "v": 36
    },
    {
      "midi": 86,
      "hit": false,
      "t": 111428.59000000023,
      "d": 142.8571666666685,
      "v": 73
    },
    {
      "midi": 87,
      "hit": false,
      "t": 111632.6716666669,
      "d": 91.83675000000221,
      "v": 36
    },
    {
      "midi": 86,
      "hit": false,
      "t": 111673.48800000023,
      "d": 102.04083333334711,
      "v": 70
    },
    {
      "midi": 84,
      "hit": false,
      "t": 111795.93700000024,
      "d": 96.93879166666011,
      "v": 39
    },
    {
      "midi": 60,
      "hit": false,
      "t": 111938.79416666689,
      "d": 147.9592083333264,
      "v": 50
    },
    {
      "midi": 54,
      "hit": false,
      "t": 111948.99825000022,
      "d": 173.46941666665953,
      "v": 30
    },
    {
      "midi": 54,
      "hit": false,
      "t": 112229.61054166689,
      "d": 229.5918749999837,
      "v": 38
    },
    {
      "midi": 60,
      "hit": false,
      "t": 112244.91666666689,
      "d": 40.81633333332138,
      "v": 49
    },
    {
      "midi": 62,
      "hit": false,
      "t": 112244.91666666689,
      "d": 71.42858333332697,
      "v": 52
    },
    {
      "midi": 81,
      "hit": false,
      "t": 112265.32483333355,
      "d": 107.14287499999045,
      "v": 89
    },
    {
      "midi": 58,
      "hit": false,
      "t": 112290.83504166688,
      "d": 61.224499999996624,
      "v": 25
    },
    {
      "midi": 82,
      "hit": false,
      "t": 112489.81466666688,
      "d": 102.04083333333256,
      "v": 77
    },
    {
      "midi": 62,
      "hit": false,
      "t": 112647.97795833355,
      "d": 193.87758333333477,
      "v": 55
    },
    {
      "midi": 58,
      "hit": false,
      "t": 112658.18204166688,
      "d": 224.48983333334036,
      "v": 40
    },
    {
      "midi": 84,
      "hit": false,
      "t": 112663.28408333355,
      "d": 96.93879166666011,
      "v": 76
    },
    {
      "midi": 57,
      "hit": false,
      "t": 112663.28408333355,
      "d": 137.75512499999604,
      "v": 40
    },
    {
      "midi": 55,
      "hit": false,
      "t": 112673.48816666688,
      "d": 280.6122916666791,
      "v": 41
    },
    {
      "midi": 77,
      "hit": false,
      "t": 112948.99841666689,
      "d": 147.95920833334094,
      "v": 65
    },
    {
      "midi": 73,
      "hit": false,
      "t": 113132.67191666689,
      "d": 86.73470833334432,
      "v": 59
    },
    {
      "midi": 62,
      "hit": false,
      "t": 113163.2841666669,
      "d": 163.26533333334373,
      "v": 48
    },
    {
      "midi": 58,
      "hit": false,
      "t": 113163.2841666669,
      "d": 178.57145833334653,
      "v": 38
    },
    {
      "midi": 55,
      "hit": false,
      "t": 113168.38620833357,
      "d": 209.18370833333756,
      "v": 51
    },
    {
      "midi": 72,
      "hit": false,
      "t": 113331.65154166691,
      "d": 107.14287499999045,
      "v": 45
    },
    {
      "midi": 58,
      "hit": false,
      "t": 113479.61075000024,
      "d": 107.14287499999045,
      "v": 40
    },
    {
      "midi": 70,
      "hit": false,
      "t": 113551.03933333357,
      "d": 127.5510416666657,
      "v": 61
    },
    {
      "midi": 68,
      "hit": false,
      "t": 113775.52916666689,
      "d": 250.0000416666735,
      "v": 55
    },
    {
      "midi": 60,
      "hit": false,
      "t": 113806.1414166669,
      "d": 367.3469999999943,
      "v": 45
    },
    {
      "midi": 58,
      "hit": false,
      "t": 113806.1414166669,
      "d": 433.67354166666337,
      "v": 30
    },
    {
      "midi": 52,
      "hit": false,
      "t": 113826.54958333356,
      "d": 387.75516666666954,
      "v": 40
    },
    {
      "midi": 67,
      "hit": false,
      "t": 114346.95783333357,
      "d": 107.142875000005,
      "v": 75
    },
    {
      "midi": 60,
      "hit": false,
      "t": 114387.7741666669,
      "d": 61.224499999996624,
      "v": 39
    },
    {
      "midi": 52,
      "hit": false,
      "t": 114397.97825000023,
      "d": 469.38783333335596,
      "v": 35
    },
    {
      "midi": 58,
      "hit": false,
      "t": 114403.0802916669,
      "d": 107.142875000005,
      "v": 30
    },
    {
      "midi": 64,
      "hit": false,
      "t": 114525.52929166691,
      "d": 183.67350000000442,
      "v": 44
    },
    {
      "midi": 61,
      "hit": false,
      "t": 114790.83545833359,
      "d": 178.57145833333198,
      "v": 69
    },
    {
      "midi": 60,
      "hit": false,
      "t": 115448.9988333336,
      "d": 147.9592083333264,
      "v": 78
    },
    {
      "midi": 60,
      "hit": false,
      "t": 115765.32541666692,
      "d": 209.183708333323,
      "v": 69
    },
    {
      "midi": 48,
      "hit": false,
      "t": 115938.79483333358,
      "d": 40.81633333333593,
      "v": 35
    },
    {
      "midi": 57,
      "hit": false,
      "t": 116035.73362500026,
      "d": 76.53062499999942,
      "v": 68
    },
    {
      "midi": 72,
      "hit": false,
      "t": 116811.2439583336,
      "d": 91.83675000003132,
      "v": 66
    },
    {
      "midi": 62,
      "hit": false,
      "t": 116816.34600000027,
      "d": 56.12245833335328,
      "v": 80
    },
    {
      "midi": 67,
      "hit": false,
      "t": 116821.44804166694,
      "d": 35.71429166667804,
      "v": 71
    },
    {
      "midi": 57,
      "hit": false,
      "t": 116826.55008333361,
      "d": 86.73470833334432,
      "v": 60
    },
    {
      "midi": 72,
      "hit": false,
      "t": 117117.36645833362,
      "d": 86.73470833334432,
      "v": 71
    },
    {
      "midi": 67,
      "hit": false,
      "t": 117122.4685000003,
      "d": 51.02041666666628,
      "v": 76
    },
    {
      "midi": 62,
      "hit": false,
      "t": 117127.57054166697,
      "d": 35.714291666663485,
      "v": 75
    },
    {
      "midi": 57,
      "hit": false,
      "t": 117142.87666666697,
      "d": 56.122458333324175,
      "v": 55
    },
    {
      "midi": 56,
      "hit": false,
      "t": 117428.5910000003,
      "d": 71.42858333332697,
      "v": 59
    },
    {
      "midi": 72,
      "hit": false,
      "t": 117448.99916666697,
      "d": 30.612249999991036,
      "v": 28
    },
    {
      "midi": 71,
      "hit": false,
      "t": 117459.2032500003,
      "d": 35.714291666663485,
      "v": 40
    },
    {
      "midi": 69,
      "hit": false,
      "t": 117556.14204166697,
      "d": 96.93879166667466,
      "v": 73
    },
    {
      "midi": 76,
      "hit": false,
      "t": 117556.14204166697,
      "d": 122.4490000000078,
      "v": 78
    },
    {
      "midi": 65,
      "hit": false,
      "t": 117561.24408333364,
      "d": 71.42858333334152,
      "v": 69
    },
    {
      "midi": 64,
      "hit": false,
      "t": 117566.34612500032,
      "d": 122.44899999999325,
      "v": 71
    },
    {
      "midi": 72,
      "hit": false,
      "t": 117571.44816666699,
      "d": 107.14287499999045,
      "v": 39
    },
    {
      "midi": 76,
      "hit": false,
      "t": 117734.7135000003,
      "d": 112.2449166666629,
      "v": 76
    },
    {
      "midi": 69,
      "hit": false,
      "t": 117750.0196250003,
      "d": 86.73470833332976,
      "v": 56
    },
    {
      "midi": 65,
      "hit": false,
      "t": 117760.22370833364,
      "d": 35.714291666663485,
      "v": 52
    },
    {
      "midi": 64,
      "hit": false,
      "t": 117760.22370833364,
      "d": 102.04083333333256,
      "v": 54
    },
    {
      "midi": 74,
      "hit": false,
      "t": 117846.95841666697,
      "d": 173.46941666667408,
      "v": 54
    },
    {
      "midi": 62,
      "hit": false,
      "t": 117867.36658333364,
      "d": 214.28574999999546,
      "v": 58
    },
    {
      "midi": 64,
      "hit": false,
      "t": 118153.08091666696,
      "d": 81.63266666667187,
      "v": 57
    },
    {
      "midi": 76,
      "hit": false,
      "t": 118153.08091666696,
      "d": 117.34695833333535,
      "v": 69
    },
    {
      "midi": 65,
      "hit": false,
      "t": 118158.18295833364,
      "d": 45.91837500000838,
      "v": 58
    },
    {
      "midi": 69,
      "hit": false,
      "t": 118163.28500000031,
      "d": 61.224499999996624,
      "v": 60
    },
    {
      "midi": 72,
      "hit": false,
      "t": 118173.48908333364,
      "d": 81.63266666665731,
      "v": 40
    },
    {
      "midi": 65,
      "hit": false,
      "t": 118775.5300000003,
      "d": 40.816333333350485,
      "v": 68
    },
    {
      "midi": 57,
      "hit": false,
      "t": 118780.63204166698,
      "d": 35.71429166667804,
      "v": 62
    },
    {
      "midi": 62,
      "hit": false,
      "t": 118780.63204166698,
      "d": 45.91837500000838,
      "v": 62
    },
    {
      "midi": 74,
      "hit": false,
      "t": 118785.73408333365,
      "d": 56.12245833333873,
      "v": 79
    },
    {
      "midi": 77,
      "hit": false,
      "t": 118785.73408333365,
      "d": 66.32654166666907,
      "v": 66
    },
    {
      "midi": 81,
      "hit": false,
      "t": 118785.73408333365,
      "d": 76.53062499999942,
      "v": 74
    },
    {
      "midi": 69,
      "hit": false,
      "t": 118790.83612500032,
      "d": 25.51020833333314,
      "v": 80
    },
    {
      "midi": 81,
      "hit": false,
      "t": 119096.95862500032,
      "d": 418.3674166666751,
      "v": 77
    },
    {
      "midi": 77,
      "hit": false,
      "t": 119096.95862500032,
      "d": 443.87762500000827,
      "v": 76
    },
    {
      "midi": 74,
      "hit": false,
      "t": 119096.95862500032,
      "d": 515.3062083333498,
      "v": 83
    },
    {
      "midi": 69,
      "hit": false,
      "t": 119102.06066666699,
      "d": 418.3674166666751,
      "v": 81
    },
    {
      "midi": 57,
      "hit": false,
      "t": 119107.16270833366,
      "d": 331.6327083333308,
      "v": 76
    },
    {
      "midi": 65,
      "hit": false,
      "t": 119107.16270833366,
      "d": 336.73475000000326,
      "v": 69
    },
    {
      "midi": 62,
      "hit": false,
      "t": 119107.16270833366,
      "d": 372.44904166666674,
      "v": 64
    },
    {
      "midi": 79,
      "hit": false,
      "t": 119581.65258333366,
      "d": 321.4286249999859,
      "v": 80
    },
    {
      "midi": 65,
      "hit": false,
      "t": 119591.856666667,
      "d": 285.71433333332243,
      "v": 56
    },
    {
      "midi": 57,
      "hit": false,
      "t": 119602.06075000032,
      "d": 316.326583333328,
      "v": 39
    },
    {
      "midi": 77,
      "hit": false,
      "t": 119607.162791667,
      "d": 40.81633333333593,
      "v": 35
    },
    {
      "midi": 62,
      "hit": false,
      "t": 119607.162791667,
      "d": 362.24495833332185,
      "v": 43
    },
    {
      "midi": 76,
      "hit": false,
      "t": 119994.91795833365,
      "d": 56.12245833333873,
      "v": 72
    },
    {
      "midi": 77,
      "hit": false,
      "t": 119994.91795833365,
      "d": 443.87762500000827,
      "v": 71
    },
    {
      "midi": 62,
      "hit": false,
      "t": 120005.12204166698,
      "d": 428.57150000000547,
      "v": 24
    },
    {
      "midi": 57,
      "hit": false,
      "t": 120010.22408333365,
      "d": 387.75516666666954,
      "v": 43
    },
    {
      "midi": 79,
      "hit": false,
      "t": 120469.40783333367,
      "d": 96.93879166667466,
      "v": 59
    },
    {
      "midi": 77,
      "hit": false,
      "t": 120510.224166667,
      "d": 137.7551250000106,
      "v": 68
    },
    {
      "midi": 62,
      "hit": false,
      "t": 120551.04050000034,
      "d": 112.24491666667745,
      "v": 37
    },
    {
      "midi": 65,
      "hit": false,
      "t": 120556.14254166701,
      "d": 30.612249999991036,
      "v": 24
    },
    {
      "midi": 74,
      "hit": false,
      "t": 120642.87725000034,
      "d": 163.26533333334373,
      "v": 44
    },
    {
      "midi": 77,
      "hit": false,
      "t": 120913.28545833369,
      "d": 158.16329166667128,
      "v": 76
    },
    {
      "midi": 69,
      "hit": false,
      "t": 121198.99979166703,
      "d": 147.9592083333264,
      "v": 52
    },
    {
      "midi": 69,
      "hit": false,
      "t": 121413.28554166702,
      "d": 35.714291666663485,
      "v": 59
    },
    {
      "midi": 65,
      "hit": false,
      "t": 121704.10191666702,
      "d": 40.81633333332138,
      "v": 56
    },
    {
      "midi": 62,
      "hit": false,
      "t": 121714.30600000035,
      "d": 40.81633333332138,
      "v": 47
    },
    {
      "midi": 57,
      "hit": false,
      "t": 121724.51008333368,
      "d": 45.91837499999383,
      "v": 31
    },
    {
      "midi": 65,
      "hit": false,
      "t": 122112.26525000033,
      "d": 71.42858333334152,
      "v": 56
    },
    {
      "midi": 57,
      "hit": false,
      "t": 122117.367291667,
      "d": 71.42858333334152,
      "v": 54
    },
    {
      "midi": 62,
      "hit": false,
      "t": 122127.57137500033,
      "d": 40.81633333333593,
      "v": 48
    },
    {
      "midi": 62,
      "hit": false,
      "t": 122622.46941666701,
      "d": 45.91837499999383,
      "v": 53
    },
    {
      "midi": 56,
      "hit": false,
      "t": 122622.46941666701,
      "d": 71.42858333332697,
      "v": 37
    },
    {
      "midi": 55,
      "hit": false,
      "t": 122887.77558333367,
      "d": 61.224499999996624,
      "v": 64
    },
    {
      "midi": 56,
      "hit": false,
      "t": 122984.71437500033,
      "d": 86.73470833332976,
      "v": 51
    },
    {
      "midi": 58,
      "hit": false,
      "t": 123081.65316666699,
      "d": 81.63266666667187,
      "v": 35
    },
    {
      "midi": 59,
      "hit": false,
      "t": 123178.59195833367,
      "d": 35.714291666663485,
      "v": 66
    },
    {
      "midi": 61,
      "hit": false,
      "t": 123265.326666667,
      "d": 40.81633333333593,
      "v": 55
    },
    {
      "midi": 62,
      "hit": false,
      "t": 123352.06137500032,
      "d": 76.53062499999942,
      "v": 62
    },
    {
      "midi": 64,
      "hit": false,
      "t": 123443.89812500033,
      "d": 76.53062499999942,
      "v": 63
    },
    {
      "midi": 65,
      "hit": false,
      "t": 123561.24508333366,
      "d": 30.612250000005588,
      "v": 46
    },
    {
      "midi": 67,
      "hit": false,
      "t": 123642.87775000033,
      "d": 76.53062499999942,
      "v": 73
    },
    {
      "midi": 56,
      "hit": false,
      "t": 123688.79612500033,
      "d": 91.83675000000221,
      "v": 32
    },
    {
      "midi": 62,
      "hit": false,
      "t": 123688.79612500033,
      "d": 96.93879166667466,
      "v": 48
    },
    {
      "midi": 68,
      "hit": false,
      "t": 123755.122666667,
      "d": 86.73470833334432,
      "v": 69
    },
    {
      "midi": 70,
      "hit": false,
      "t": 123908.18391666701,
      "d": 81.63266666667187,
      "v": 74
    },
    {
      "midi": 71,
      "hit": false,
      "t": 124040.83700000035,
      "d": 122.44899999999325,
      "v": 56
    },
    {
      "midi": 73,
      "hit": false,
      "t": 124193.89825000035,
      "d": 81.63266666667187,
      "v": 60
    },
    {
      "midi": 62,
      "hit": false,
      "t": 124250.02070833369,
      "d": 96.93879166666011,
      "v": 39
    },
    {
      "midi": 74,
      "hit": false,
      "t": 124326.55133333369,
      "d": 91.83674999998766,
      "v": 70
    },
    {
      "midi": 75,
      "hit": false,
      "t": 124469.40850000034,
      "d": 76.53062499999942,
      "v": 71
    },
    {
      "midi": 62,
      "hit": false,
      "t": 124489.816666667,
      "d": 51.02041666666628,
      "v": 57
    },
    {
      "midi": 56,
      "hit": false,
      "t": 124494.91870833367,
      "d": 127.5510416666657,
      "v": 43
    },
    {
      "midi": 76,
      "hit": false,
      "t": 124602.06158333368,
      "d": 107.14287499999045,
      "v": 59
    },
    {
      "midi": 79,
      "hit": false,
      "t": 124744.91875000033,
      "d": 147.95920833331184,
      "v": 74
    },
    {
      "midi": 64,
      "hit": false,
      "t": 124806.14325000033,
      "d": 35.714291666663485,
      "v": 33
    },
    {
      "midi": 60,
      "hit": false,
      "t": 124811.245291667,
      "d": 40.81633333332138,
      "v": 51
    },
    {
      "midi": 57,
      "hit": false,
      "t": 124821.44937500033,
      "d": 51.02041666665173,
      "v": 32
    },
    {
      "midi": 83,
      "hit": false,
      "t": 124882.67387500031,
      "d": 112.2449166666629,
      "v": 67
    },
    {
      "midi": 86,
      "hit": false,
      "t": 125056.14329166697,
      "d": 61.224500000011176,
      "v": 84
    },
    {
      "midi": 74,
      "hit": false,
      "t": 125056.14329166697,
      "d": 71.42858333334152,
      "v": 76
    },
    {
      "midi": 60,
      "hit": false,
      "t": 125112.26575000031,
      "d": 45.91837500000838,
      "v": 42
    },
    {
      "midi": 86,
      "hit": false,
      "t": 125178.59229166698,
      "d": 86.73470833332976,
      "v": 75
    },
    {
      "midi": 74,
      "hit": false,
      "t": 125188.79637500031,
      "d": 81.63266666667187,
      "v": 49
    },
    {
      "midi": 86,
      "hit": false,
      "t": 125362.26579166699,
      "d": 112.24491666667745,
      "v": 80
    },
    {
      "midi": 74,
      "hit": false,
      "t": 125372.46987500032,
      "d": 71.42858333334152,
      "v": 66
    },
    {
      "midi": 64,
      "hit": false,
      "t": 125413.28620833365,
      "d": 30.612250000005588,
      "v": 26
    },
    {
      "midi": 60,
      "hit": false,
      "t": 125413.28620833365,
      "d": 76.53062500001397,
      "v": 44
    },
    {
      "midi": 57,
      "hit": false,
      "t": 125449.00050000033,
      "d": 45.91837500000838,
      "v": 24
    },
    {
      "midi": 82,
      "hit": false,
      "t": 125545.939291667,
      "d": 45.91837500000838,
      "v": 29
    },
    {
      "midi": 83,
      "hit": false,
      "t": 125586.75562500034,
      "d": 76.53062499999942,
      "v": 54
    },
    {
      "midi": 86,
      "hit": false,
      "t": 125688.79645833367,
      "d": 61.224499999996624,
      "v": 80
    },
    {
      "midi": 74,
      "hit": false,
      "t": 125699.000541667,
      "d": 56.12245833333873,
      "v": 69
    },
    {
      "midi": 60,
      "hit": false,
      "t": 125704.10258333368,
      "d": 71.42858333332697,
      "v": 35
    },
    {
      "midi": 86,
      "hit": false,
      "t": 125806.14341666701,
      "d": 81.63266666667187,
      "v": 80
    },
    {
      "midi": 74,
      "hit": false,
      "t": 125821.44954166701,
      "d": 66.32654166666907,
      "v": 34
    },
    {
      "midi": 86,
      "hit": false,
      "t": 125974.51079166701,
      "d": 91.83675000000221,
      "v": 74
    },
    {
      "midi": 74,
      "hit": false,
      "t": 125984.71487500034,
      "d": 76.53062499999942,
      "v": 64
    },
    {
      "midi": 55,
      "hit": false,
      "t": 126091.85775000034,
      "d": 122.4490000000078,
      "v": 24
    },
    {
      "midi": 60,
      "hit": false,
      "t": 126117.36795833368,
      "d": 91.83675000000221,
      "v": 8
    },
    {
      "midi": 82,
      "hit": false,
      "t": 126127.57204166701,
      "d": 66.32654166666907,
      "v": 37
    },
    {
      "midi": 83,
      "hit": false,
      "t": 126199.00062500035,
      "d": 107.142875000005,
      "v": 49
    },
    {
      "midi": 60,
      "hit": false,
      "t": 126326.55166666702,
      "d": 56.12245833333873,
      "v": 30
    },
    {
      "midi": 74,
      "hit": false,
      "t": 126418.38841666702,
      "d": 86.73470833332976,
      "v": 58
    },
    {
      "midi": 64,
      "hit": false,
      "t": 126719.40887500034,
      "d": 117.34695833333535,
      "v": 45
    },
    {
      "midi": 55,
      "hit": false,
      "t": 126734.71500000035,
      "d": 81.63266666667187,
      "v": 44
    },
    {
      "midi": 60,
      "hit": false,
      "t": 126744.91908333368,
      "d": 61.224500000011176,
      "v": 44
    },
    {
      "midi": 57,
      "hit": false,
      "t": 126750.02112500035,
      "d": 117.34695833333535,
      "v": 35
    },
    {
      "midi": 60,
      "hit": false,
      "t": 127219.40895833369,
      "d": 61.224499999996624,
      "v": 46
    },
    {
      "midi": 57,
      "hit": false,
      "t": 127224.51100000036,
      "d": 107.14287499999045,
      "v": 59
    },
    {
      "midi": 53,
      "hit": false,
      "t": 127244.91916666702,
      "d": 51.02041666666628,
      "v": 29
    },
    {
      "midi": 88,
      "hit": false,
      "t": 127362.26612500036,
      "d": 188.77554166666232,
      "v": 84
    },
    {
      "midi": 89,
      "hit": false,
      "t": 127530.63350000036,
      "d": 86.73470833332976,
      "v": 74
    },
    {
      "midi": 57,
      "hit": false,
      "t": 127576.55187500035,
      "d": 56.12245833333873,
      "v": 27
    },
    {
      "midi": 91,
      "hit": false,
      "t": 127663.2865833337,
      "d": 102.04083333333256,
      "v": 78
    },
    {
      "midi": 84,
      "hit": false,
      "t": 127852.06212500036,
      "d": 66.32654166666907,
      "v": 66
    },
    {
      "midi": 57,
      "hit": false,
      "t": 127872.47029166702,
      "d": 40.81633333333593,
      "v": 37
    },
    {
      "midi": 86,
      "hit": false,
      "t": 127979.61316666703,
      "d": 91.83675000000221,
      "v": 63
    },
    {
      "midi": 88,
      "hit": false,
      "t": 128163.28666666703,
      "d": 66.32654166666907,
      "v": 74
    },
    {
      "midi": 57,
      "hit": false,
      "t": 128178.59279166703,
      "d": 40.81633333333593,
      "v": 42
    },
    {
      "midi": 81,
      "hit": false,
      "t": 128316.34791666703,
      "d": 147.9592083333264,
      "v": 47
    },
    {
      "midi": 82,
      "hit": false,
      "t": 128454.10304166703,
      "d": 81.63266666665731,
      "v": 59
    },
    {
      "midi": 84,
      "hit": false,
      "t": 128581.65408333368,
      "d": 91.83675000000221,
      "v": 79
    },
    {
      "midi": 77,
      "hit": false,
      "t": 128760.22554166701,
      "d": 56.12245833333873,
      "v": 46
    },
    {
      "midi": 79,
      "hit": false,
      "t": 128877.57250000034,
      "d": 102.04083333333256,
      "v": 49
    },
    {
      "midi": 64,
      "hit": false,
      "t": 129056.14395833368,
      "d": 35.714291666663485,
      "v": 41
    },
    {
      "midi": 81,
      "hit": false,
      "t": 129061.24600000035,
      "d": 76.53062499998487,
      "v": 72
    },
    {
      "midi": 60,
      "hit": false,
      "t": 129071.45008333368,
      "d": 71.42858333332697,
      "v": 41
    },
    {
      "midi": 74,
      "hit": false,
      "t": 129239.81745833367,
      "d": 51.02041666666628,
      "v": 20
    },
    {
      "midi": 77,
      "hit": false,
      "t": 129362.26645833366,
      "d": 91.83675000000221,
      "v": 63
    },
    {
      "midi": 79,
      "hit": false,
      "t": 129484.71545833367,
      "d": 112.2449166666629,
      "v": 68
    },
    {
      "midi": 74,
      "hit": false,
      "t": 129673.49100000033,
      "d": 56.122458333324175,
      "v": 58
    },
    {
      "midi": 60,
      "hit": false,
      "t": 129693.89916666699,
      "d": 25.51020833333314,
      "v": 28
    },
    {
      "midi": 53,
      "hit": false,
      "t": 129693.89916666699,
      "d": 107.14287499999045,
      "v": 27
    },
    {
      "midi": 57,
      "hit": false,
      "t": 129699.00120833366,
      "d": 51.02041666665173,
      "v": 41
    },
    {
      "midi": 76,
      "hit": false,
      "t": 129821.45020833364,
      "d": 102.04083333333256,
      "v": 38
    },
    {
      "midi": 77,
      "hit": false,
      "t": 129979.61350000031,
      "d": 81.63266666667187,
      "v": 66
    },
    {
      "midi": 69,
      "hit": false,
      "t": 130117.36862500032,
      "d": 127.5510416666657,
      "v": 54
    },
    {
      "midi": 69,
      "hit": false,
      "t": 130423.49112500032,
      "d": 132.65308333333815,
      "v": 64
    },
    {
      "midi": 69,
      "hit": false,
      "t": 130709.20545833366,
      "d": 117.34695833333535,
      "v": 74
    },
    {
      "midi": 57,
      "hit": false,
      "t": 130739.81770833366,
      "d": 61.224499999996624,
      "v": 27
    },
    {
      "midi": 67,
      "hit": false,
      "t": 130918.389166667,
      "d": 56.12245833333873,
      "v": 60
    },
    {
      "midi": 69,
      "hit": false,
      "t": 131040.838166667,
      "d": 66.32654166666907,
      "v": 66
    },
    {
      "midi": 69,
      "hit": false,
      "t": 131331.654541667,
      "d": 127.55104166668025,
      "v": 82
    },
    {
      "midi": 67,
      "hit": false,
      "t": 131530.634166667,
      "d": 40.81633333332138,
      "v": 46
    },
    {
      "midi": 69,
      "hit": false,
      "t": 131642.87908333365,
      "d": 96.93879166667466,
      "v": 62
    },
    {
      "midi": 67,
      "hit": false,
      "t": 131841.85870833366,
      "d": 122.44899999999325,
      "v": 87
    },
    {
      "midi": 57,
      "hit": false,
      "t": 131852.062791667,
      "d": 25.510208333318587,
      "v": 24
    },
    {
      "midi": 74,
      "hit": false,
      "t": 131872.47095833367,
      "d": 255.1020833333023,
      "v": 33
    },
    {
      "midi": 67,
      "hit": false,
      "t": 132086.75670833365,
      "d": 76.53062499998487,
      "v": 30
    },
    {
      "midi": 65,
      "hit": false,
      "t": 132158.18529166697,
      "d": 51.02041666666628,
      "v": 53
    },
    {
      "midi": 67,
      "hit": false,
      "t": 132260.2261250003,
      "d": 168.36737499997253,
      "v": 57
    },
    {
      "midi": 74,
      "hit": false,
      "t": 132265.32816666696,
      "d": 107.14287499999045,
      "v": 70
    },
    {
      "midi": 62,
      "hit": false,
      "t": 132484.7159583336,
      "d": 30.612250000005588,
      "v": 24
    },
    {
      "midi": 65,
      "hit": false,
      "t": 132556.14454166693,
      "d": 239.7959583333286,
      "v": 69
    },
    {
      "midi": 62,
      "hit": false,
      "t": 132862.26704166693,
      "d": 122.44899999999325,
      "v": 50
    },
    {
      "midi": 62,
      "hit": false,
      "t": 133056.14462500025,
      "d": 51.02041666666628,
      "v": 63
    },
    {
      "midi": 47,
      "hit": false,
      "t": 133352.0630416669,
      "d": 35.714291666663485,
      "v": 54
    },
    {
      "midi": 55,
      "hit": false,
      "t": 133352.0630416669,
      "d": 56.122458333324175,
      "v": 71
    },
    {
      "midi": 62,
      "hit": false,
      "t": 133775.53250000023,
      "d": 224.4898333333549,
      "v": 64
    },
    {
      "midi": 59,
      "hit": false,
      "t": 133785.73658333358,
      "d": 331.63270833334536,
      "v": 55
    },
    {
      "midi": 56,
      "hit": false,
      "t": 133785.73658333358,
      "d": 372.44904166666674,
      "v": 34
    },
    {
      "midi": 53,
      "hit": false,
      "t": 133795.94066666692,
      "d": 413.2653749999881,
      "v": 42
    },
    {
      "midi": 80,
      "hit": false,
      "t": 134188.79787500025,
      "d": 142.85716666665394,
      "v": 50
    },
    {
      "midi": 77,
      "hit": false,
      "t": 134265.32850000024,
      "d": 107.14287500001956,
      "v": 43
    },
    {
      "midi": 53,
      "hit": false,
      "t": 134295.94075000024,
      "d": 86.73470833332976,
      "v": 22
    },
    {
      "midi": 56,
      "hit": false,
      "t": 134301.0427916669,
      "d": 76.53062500001397,
      "v": 28
    },
    {
      "midi": 59,
      "hit": false,
      "t": 134311.24687500024,
      "d": 51.02041666666628,
      "v": 34
    },
    {
      "midi": 74,
      "hit": false,
      "t": 134474.51220833356,
      "d": 173.46941666665953,
      "v": 54
    },
    {
      "midi": 62,
      "hit": false,
      "t": 135153.08375000022,
      "d": 35.71429166669259,
      "v": 63
    },
    {
      "midi": 56,
      "hit": false,
      "t": 135153.08375000022,
      "d": 96.93879166670376,
      "v": 46
    },
    {
      "midi": 59,
      "hit": false,
      "t": 135163.28783333357,
      "d": 35.71429166669259,
      "v": 56
    },
    {
      "midi": 77,
      "hit": false,
      "t": 135331.6552083336,
      "d": 51.02041666666628,
      "v": 60
    },
    {
      "midi": 80,
      "hit": false,
      "t": 135408.1858333336,
      "d": 122.44899999999325,
      "v": 47
    },
    {
      "midi": 77,
      "hit": false,
      "t": 135464.30829166694,
      "d": 107.14287499999045,
      "v": 60
    },
    {
      "midi": 74,
      "hit": false,
      "t": 135581.65525000027,
      "d": 71.42858333332697,
      "v": 47
    },
    {
      "midi": 73,
      "hit": false,
      "t": 135755.12466666693,
      "d": 102.04083333333256,
      "v": 57
    },
    {
      "midi": 59,
      "hit": false,
      "t": 135852.0634583336,
      "d": 40.81633333332138,
      "v": 35
    },
    {
      "midi": 72,
      "hit": false,
      "t": 135913.2879583336,
      "d": 153.06124999999884,
      "v": 47
    },
    {
      "midi": 71,
      "hit": false,
      "t": 136076.55329166693,
      "d": 96.93879166667466,
      "v": 70
    },
    {
      "midi": 56,
      "hit": false,
      "t": 136132.67575000026,
      "d": 91.83675000001676,
      "v": 25
    },
    {
      "midi": 59,
      "hit": false,
      "t": 136142.8798333336,
      "d": 40.816333333350485,
      "v": 35
    },
    {
      "midi": 68,
      "hit": false,
      "t": 136265.3288333336,
      "d": 107.14287499999045,
      "v": 19
    },
    {
      "midi": 71,
      "hit": false,
      "t": 136408.18600000025,
      "d": 86.73470833332976,
      "v": 76
    },
    {
      "midi": 74,
      "hit": false,
      "t": 136535.7370416669,
      "d": 173.46941666665953,
      "v": 90
    },
    {
      "midi": 71,
      "hit": false,
      "t": 136760.22687500023,
      "d": 35.714291666663485,
      "v": 40
    },
    {
      "midi": 72,
      "hit": false,
      "t": 136862.26770833356,
      "d": 147.95920833334094,
      "v": 61
    },
    {
      "midi": 71,
      "hit": false,
      "t": 136892.87995833356,
      "d": 30.612250000005588,
      "v": 22
    },
    {
      "midi": 67,
      "hit": false,
      "t": 137025.5330416669,
      "d": 102.04083333333256,
      "v": 71
    },
    {
      "midi": 64,
      "hit": false,
      "t": 137173.49225000024,
      "d": 147.95920833334094,
      "v": 33
    },
    {
      "midi": 64,
      "hit": false,
      "t": 137459.20658333358,
      "d": 193.87758333332022,
      "v": 58
    },
    {
      "midi": 63,
      "hit": false,
      "t": 137739.81887500023,
      "d": 188.77554166669142,
      "v": 61
    },
    {
      "midi": 68,
      "hit": false,
      "t": 137750.02295833357,
      "d": 147.95920833334094,
      "v": 55
    },
    {
      "midi": 72,
      "hit": false,
      "t": 137750.02295833357,
      "d": 173.46941666668863,
      "v": 56
    },
    {
      "midi": 64,
      "hit": false,
      "t": 137755.12500000023,
      "d": 132.65308333333815,
      "v": 65
    },
    {
      "midi": 63,
      "hit": false,
      "t": 138056.1454583336,
      "d": 188.77554166666232,
      "v": 51
    },
    {
      "midi": 72,
      "hit": false,
      "t": 138061.24750000026,
      "d": 183.67350000000442,
      "v": 55
    },
    {
      "midi": 68,
      "hit": false,
      "t": 138071.4515833336,
      "d": 153.06124999999884,
      "v": 59
    },
    {
      "midi": 64,
      "hit": false,
      "t": 138076.55362500026,
      "d": 132.65308333333815,
      "v": 66
    },
    {
      "midi": 58,
      "hit": false,
      "t": 138076.55362500026,
      "d": 229.5918750000128,
      "v": 53
    },
    {
      "midi": 52,
      "hit": false,
      "t": 138357.16591666694,
      "d": 117.34695833333535,
      "v": 47
    },
    {
      "midi": 68,
      "hit": false,
      "t": 138545.9414583336,
      "d": 76.53062500001397,
      "v": 59
    },
    {
      "midi": 72,
      "hit": false,
      "t": 138545.9414583336,
      "d": 122.44899999999325,
      "v": 58
    },
    {
      "midi": 64,
      "hit": false,
      "t": 138551.04350000026,
      "d": 71.42858333335607,
      "v": 62
    },
    {
      "midi": 63,
      "hit": false,
      "t": 138551.04350000026,
      "d": 112.24491666667745,
      "v": 56
    },
    {
      "midi": 58,
      "hit": false,
      "t": 138561.2475833336,
      "d": 346.93883333331905,
      "v": 35
    },
    {
      "midi": 64,
      "hit": false,
      "t": 138693.90066666694,
      "d": 142.85716666665394,
      "v": 47
    },
    {
      "midi": 68,
      "hit": false,
      "t": 138693.90066666694,
      "d": 153.06124999999884,
      "v": 36
    },
    {
      "midi": 72,
      "hit": false,
      "t": 138693.90066666694,
      "d": 173.46941666665953,
      "v": 24
    },
    {
      "midi": 63,
      "hit": false,
      "t": 138699.0027083336,
      "d": 173.46941666665953,
      "v": 38
    },
    {
      "midi": 68,
      "hit": false,
      "t": 138994.92112500026,
      "d": 132.65308333333815,
      "v": 50
    },
    {
      "midi": 72,
      "hit": false,
      "t": 138994.92112500026,
      "d": 158.16329166668584,
      "v": 55
    },
    {
      "midi": 64,
      "hit": false,
      "t": 139000.0231666669,
      "d": 117.34695833333535,
      "v": 58
    },
    {
      "midi": 63,
      "hit": false,
      "t": 139280.63545833362,
      "d": 112.24491666664835,
      "v": 36
    },
    {
      "midi": 72,
      "hit": false,
      "t": 139285.73750000028,
      "d": 112.24491666664835,
      "v": 56
    },
    {
      "midi": 68,
      "hit": false,
      "t": 139290.83954166694,
      "d": 153.06124999996973,
      "v": 59
    },
    {
      "midi": 58,
      "hit": false,
      "t": 139290.83954166694,
      "d": 214.2857499999809,
      "v": 50
    },
    {
      "midi": 64,
      "hit": false,
      "t": 139301.04362500028,
      "d": 137.75512499996694,
      "v": 62
    },
    {
      "midi": 72,
      "hit": false,
      "t": 139591.86000000025,
      "d": 163.26533333331463,
      "v": 57
    },
    {
      "midi": 57,
      "hit": false,
      "t": 139596.9620416669,
      "d": 198.9796249999781,
      "v": 50
    },
    {
      "midi": 67,
      "hit": false,
      "t": 139602.06408333356,
      "d": 137.75512499999604,
      "v": 70
    },
    {
      "midi": 62,
      "hit": false,
      "t": 139607.16612500022,
      "d": 122.44899999999325,
      "v": 64
    },
    {
      "midi": 56,
      "hit": false,
      "t": 139923.49270833356,
      "d": 193.87758333334932,
      "v": 37
    },
    {
      "midi": 72,
      "hit": false,
      "t": 140091.86008333357,
      "d": 102.04083333333256,
      "v": 60
    },
    {
      "midi": 67,
      "hit": false,
      "t": 140096.96212500022,
      "d": 96.93879166667466,
      "v": 71
    },
    {
      "midi": 62,
      "hit": false,
      "t": 140107.16620833357,
      "d": 107.14287499999045,
      "v": 62
    },
    {
      "midi": 57,
      "hit": false,
      "t": 140122.47233333357,
      "d": 107.14287499999045,
      "v": 53
    },
    {
      "midi": 67,
      "hit": false,
      "t": 140688.79895833356,
      "d": 86.73470833335887,
      "v": 67
    },
    {
      "midi": 62,
      "hit": false,
      "t": 140699.0030416669,
      "d": 76.53062500001397,
      "v": 62
    },
    {
      "midi": 57,
      "hit": false,
      "t": 140704.10508333356,
      "d": 61.224500000011176,
      "v": 54
    },
    {
      "midi": 52,
      "hit": false,
      "t": 140714.3091666669,
      "d": 61.224500000011176,
      "v": 38
    },
    {
      "midi": 51,
      "hit": false,
      "t": 140831.65612500024,
      "d": 178.57145833331742,
      "v": 42
    },
    {
      "midi": 66,
      "hit": false,
      "t": 140887.77858333357,
      "d": 35.714291666663485,
      "v": 21
    },
    {
      "midi": 67,
      "hit": false,
      "t": 140994.92145833356,
      "d": 107.14287500001956,
      "v": 63
    },
    {
      "midi": 57,
      "hit": false,
      "t": 141005.1255416669,
      "d": 30.612249999976484,
      "v": 55
    },
    {
      "midi": 62,
      "hit": false,
      "t": 141010.22758333356,
      "d": 35.714291666663485,
      "v": 54
    },
    {
      "midi": 52,
      "hit": false,
      "t": 141015.32962500022,
      "d": 76.53062500001397,
      "v": 49
    },
    {
      "midi": 51,
      "hit": false,
      "t": 141336.75825000025,
      "d": 56.122458333324175,
      "v": 49
    },
    {
      "midi": 72,
      "hit": false,
      "t": 141433.6970416669,
      "d": 214.28575000001,
      "v": 78
    },
    {
      "midi": 79,
      "hit": false,
      "t": 141433.6970416669,
      "d": 219.3877916666679,
      "v": 80
    },
    {
      "midi": 67,
      "hit": false,
      "t": 141719.41137500023,
      "d": 40.816333333350485,
      "v": 55
    },
    {
      "midi": 76,
      "hit": false,
      "t": 141719.41137500023,
      "d": 112.24491666670656,
      "v": 60
    },
    {
      "midi": 72,
      "hit": false,
      "t": 141729.61545833357,
      "d": 40.816333333350485,
      "v": 46
    },
    {
      "midi": 46,
      "hit": false,
      "t": 142020.4318333336,
      "d": 76.53062500001397,
      "v": 55
    },
    {
      "midi": 56,
      "hit": false,
      "t": 142035.7379583336,
      "d": 66.32654166666907,
      "v": 42
    },
    {
      "midi": 56,
      "hit": false,
      "t": 142510.2278333336,
      "d": 71.42858333332697,
      "v": 70
    },
    {
      "midi": 62,
      "hit": false,
      "t": 142515.32987500026,
      "d": 76.53062500001397,
      "v": 74
    },
    {
      "midi": 67,
      "hit": false,
      "t": 142520.43191666692,
      "d": 35.714291666663485,
      "v": 73
    },
    {
      "midi": 65,
      "hit": false,
      "t": 142535.73804166692,
      "d": 30.612250000005588,
      "v": 55
    },
    {
      "midi": 87,
      "hit": false,
      "t": 142627.57479166694,
      "d": 163.26533333334373,
      "v": 79
    },
    {
      "midi": 75,
      "hit": false,
      "t": 142637.77887500028,
      "d": 142.85716666665394,
      "v": 83
    },
    {
      "midi": 81,
      "hit": false,
      "t": 142653.08500000028,
      "d": 96.93879166664556,
      "v": 57
    },
    {
      "midi": 84,
      "hit": false,
      "t": 142673.49316666694,
      "d": 40.81633333332138,
      "v": 37
    },
    {
      "midi": 76,
      "hit": false,
      "t": 142816.35033333363,
      "d": 81.63266666667187,
      "v": 61
    },
    {
      "midi": 81,
      "hit": false,
      "t": 142816.35033333363,
      "d": 96.93879166667466,
      "v": 30
    },
    {
      "midi": 88,
      "hit": false,
      "t": 142816.35033333363,
      "d": 127.55104166668025,
      "v": 58
    },
    {
      "midi": 84,
      "hit": false,
      "t": 142831.65645833363,
      "d": 81.63266666667187,
      "v": 30
    },
    {
      "midi": 86,
      "hit": false,
      "t": 142831.65645833363,
      "d": 86.73470833332976,
      "v": 55
    },
    {
      "midi": 67,
      "hit": false,
      "t": 143163.28916666697,
      "d": 30.612250000005588,
      "v": 69
    },
    {
      "midi": 62,
      "hit": false,
      "t": 143173.49325000032,
      "d": 76.53062500001397,
      "v": 61
    },
    {
      "midi": 60,
      "hit": false,
      "t": 143219.41162500033,
      "d": 30.612250000005588,
      "v": 22
    },
    {
      "midi": 78,
      "hit": false,
      "t": 143280.63612500034,
      "d": 132.65308333333815,
      "v": 71
    },
    {
      "midi": 90,
      "hit": false,
      "t": 143280.63612500034,
      "d": 163.26533333334373,
      "v": 67
    },
    {
      "midi": 87,
      "hit": false,
      "t": 143295.94225000034,
      "d": 112.24491666667745,
      "v": 51
    },
    {
      "midi": 91,
      "hit": false,
      "t": 143459.2075833337,
      "d": 91.83674999998766,
      "v": 68
    },
    {
      "midi": 87,
      "hit": false,
      "t": 143464.30962500034,
      "d": 91.83674999998766,
      "v": 33
    },
    {
      "midi": 79,
      "hit": false,
      "t": 143469.411666667,
      "d": 76.53062500001397,
      "v": 58
    },
    {
      "midi": 84,
      "hit": false,
      "t": 143479.61575000035,
      "d": 71.42858333332697,
      "v": 60
    },
    {
      "midi": 89,
      "hit": false,
      "t": 143484.717791667,
      "d": 86.73470833332976,
      "v": 45
    },
    {
      "midi": 67,
      "hit": false,
      "t": 143765.33008333365,
      "d": 51.02041666669538,
      "v": 78
    },
    {
      "midi": 62,
      "hit": false,
      "t": 143775.534166667,
      "d": 81.63266666667187,
      "v": 60
    },
    {
      "midi": 60,
      "hit": false,
      "t": 143785.73825000034,
      "d": 30.612250000005588,
      "v": 52
    },
    {
      "midi": 87,
      "hit": false,
      "t": 143882.67704166702,
      "d": 147.95920833334094,
      "v": 57
    },
    {
      "midi": 75,
      "hit": false,
      "t": 143887.77908333368,
      "d": 132.65308333333815,
      "v": 64
    },
    {
      "midi": 81,
      "hit": false,
      "t": 143918.39133333368,
      "d": 244.8979999999865,
      "v": 34
    },
    {
      "midi": 88,
      "hit": false,
      "t": 144066.35054166702,
      "d": 112.24491666664835,
      "v": 62
    },
    {
      "midi": 76,
      "hit": false,
      "t": 144071.45258333368,
      "d": 76.53062500001397,
      "v": 58
    },
    {
      "midi": 62,
      "hit": false,
      "t": 144081.65666666703,
      "d": 30.612250000005588,
      "v": 54
    },
    {
      "midi": 84,
      "hit": false,
      "t": 144096.96279166703,
      "d": 56.122458333324175,
      "v": 33
    },
    {
      "midi": 86,
      "hit": false,
      "t": 144107.16687500037,
      "d": 51.020416666637175,
      "v": 33
    },
    {
      "midi": 62,
      "hit": false,
      "t": 144362.26895833368,
      "d": 56.122458333324175,
      "v": 88
    },
    {
      "midi": 55,
      "hit": false,
      "t": 144367.37100000033,
      "d": 66.32654166666907,
      "v": 73
    },
    {
      "midi": 59,
      "hit": false,
      "t": 144372.473041667,
      "d": 30.612250000005588,
      "v": 68
    },
    {
      "midi": 52,
      "hit": false,
      "t": 144377.57508333365,
      "d": 30.612250000005588,
      "v": 57
    },
    {
      "midi": 90,
      "hit": false,
      "t": 144484.71795833367,
      "d": 163.26533333331463,
      "v": 59
    },
    {
      "midi": 78,
      "hit": false,
      "t": 144489.82000000033,
      "d": 142.85716666665394,
      "v": 60
    },
    {
      "midi": 85,
      "hit": false,
      "t": 144489.82000000033,
      "d": 188.77554166666232,
      "v": 68
    },
    {
      "midi": 91,
      "hit": false,
      "t": 144683.69758333365,
      "d": 81.63266666667187,
      "v": 69
    },
    {
      "midi": 86,
      "hit": false,
      "t": 144693.901666667,
      "d": 61.22449999998207,
      "v": 72
    },
    {
      "midi": 79,
      "hit": false,
      "t": 144699.00370833365,
      "d": 86.73470833332976,
      "v": 48
    },
    {
      "midi": 89,
      "hit": false,
      "t": 144704.1057500003,
      "d": 76.53062500001397,
      "v": 44
    },
    {
      "midi": 62,
      "hit": false,
      "t": 144969.41191666698,
      "d": 56.122458333324175,
      "v": 87
    },
    {
      "midi": 52,
      "hit": false,
      "t": 144969.41191666698,
      "d": 76.53062499998487,
      "v": 73
    },
    {
      "midi": 59,
      "hit": false,
      "t": 144979.61600000033,
      "d": 40.81633333332138,
      "v": 74
    },
    {
      "midi": 55,
      "hit": false,
      "t": 144979.61600000033,
      "d": 86.73470833330066,
      "v": 70
    },
    {
      "midi": 60,
      "hit": false,
      "t": 144984.718041667,
      "d": 30.612250000005588,
      "v": 66
    },
    {
      "midi": 85,
      "hit": false,
      "t": 145076.55479166697,
      "d": 178.57145833334653,
      "v": 67
    },
    {
      "midi": 73,
      "hit": false,
      "t": 145091.86091666698,
      "d": 173.46941666668863,
      "v": 55
    },
    {
      "midi": 78,
      "hit": false,
      "t": 145096.96295833364,
      "d": 30.612250000005588,
      "v": 46
    },
    {
      "midi": 74,
      "hit": false,
      "t": 145285.73850000033,
      "d": 91.83674999998766,
      "v": 63
    },
    {
      "midi": 86,
      "hit": false,
      "t": 145290.84054166698,
      "d": 81.63266666667187,
      "v": 69
    },
    {
      "midi": 81,
      "hit": false,
      "t": 145306.146666667,
      "d": 61.224500000011176,
      "v": 40
    },
    {
      "midi": 84,
      "hit": false,
      "t": 145321.452791667,
      "d": 35.714291666663485,
      "v": 35
    },
    {
      "midi": 62,
      "hit": false,
      "t": 145596.96304166698,
      "d": 61.224500000011176,
      "v": 83
    },
    {
      "midi": 59,
      "hit": false,
      "t": 145602.06508333364,
      "d": 66.32654166666907,
      "v": 67
    },
    {
      "midi": 55,
      "hit": false,
      "t": 145617.37120833364,
      "d": 86.73470833332976,
      "v": 64
    },
    {
      "midi": 52,
      "hit": false,
      "t": 145627.575291667,
      "d": 35.714291666663485,
      "v": 33
    },
    {
      "midi": 82,
      "hit": false,
      "t": 145704.10591666697,
      "d": 142.85716666668304,
      "v": 48
    },
    {
      "midi": 70,
      "hit": false,
      "t": 145714.31000000032,
      "d": 153.06124999999884,
      "v": 61
    },
    {
      "midi": 76,
      "hit": false,
      "t": 145760.22837500033,
      "d": 86.73470833332976,
      "v": 29
    },
    {
      "midi": 79,
      "hit": false,
      "t": 145765.33041666698,
      "d": 71.42858333332697,
      "v": 25
    },
    {
      "midi": 76,
      "hit": false,
      "t": 145908.18758333364,
      "d": 96.93879166667466,
      "v": 36
    },
    {
      "midi": 83,
      "hit": false,
      "t": 145908.18758333364,
      "d": 102.04083333333256,
      "v": 66
    },
    {
      "midi": 71,
      "hit": false,
      "t": 145913.2896250003,
      "d": 66.32654166666907,
      "v": 51
    },
    {
      "midi": 79,
      "hit": false,
      "t": 145943.9018750003,
      "d": 35.714291666663485,
      "v": 22
    },
    {
      "midi": 62,
      "hit": false,
      "t": 146209.20804166698,
      "d": 25.51020833334769,
      "v": 66
    },
    {
      "midi": 59,
      "hit": false,
      "t": 146219.41212500032,
      "d": 76.53062500001397,
      "v": 57
    },
    {
      "midi": 55,
      "hit": false,
      "t": 146234.71825000033,
      "d": 86.73470833332976,
      "v": 49
    },
    {
      "midi": 79,
      "hit": false,
      "t": 146316.350916667,
      "d": 117.34695833333535,
      "v": 58
    },
    {
      "midi": 67,
      "hit": false,
      "t": 146336.75908333366,
      "d": 102.04083333333256,
      "v": 62
    },
    {
      "midi": 74,
      "hit": false,
      "t": 146336.75908333366,
      "d": 142.85716666665394,
      "v": 60
    },
    {
      "midi": 62,
      "hit": false,
      "t": 146530.63666666698,
      "d": 45.91837499997928,
      "v": 58
    },
    {
      "midi": 52,
      "hit": false,
      "t": 146535.73870833364,
      "d": 209.1837083332939,
      "v": 42
    },
    {
      "midi": 59,
      "hit": false,
      "t": 146540.8407500003,
      "d": 204.081666666636,
      "v": 50
    },
    {
      "midi": 55,
      "hit": false,
      "t": 146561.24891666695,
      "d": 173.46941666663042,
      "v": 55
    },
    {
      "midi": 80,
      "hit": false,
      "t": 146617.37137500028,
      "d": 193.87758333332022,
      "v": 68
    },
    {
      "midi": 74,
      "hit": false,
      "t": 146622.47341666694,
      "d": 142.85716666665394,
      "v": 71
    },
    {
      "midi": 68,
      "hit": false,
      "t": 146627.5754583336,
      "d": 158.16329166665673,
      "v": 70
    },
    {
      "midi": 53,
      "hit": false,
      "t": 146923.49387500028,
      "d": 311.22454166665557,
      "v": 32
    },
    {
      "midi": 64,
      "hit": false,
      "t": 146938.80000000028,
      "d": 112.24491666664835,
      "v": 58
    },
    {
      "midi": 74,
      "hit": false,
      "t": 146943.90204166694,
      "d": 76.53062499998487,
      "v": 60
    },
    {
      "midi": 81,
      "hit": false,
      "t": 146954.10612500028,
      "d": 102.04083333330345,
      "v": 40
    },
    {
      "midi": 69,
      "hit": false,
      "t": 146959.20816666694,
      "d": 35.71429166663438,
      "v": 55
    },
    {
      "midi": 57,
      "hit": false,
      "t": 146964.3102083336,
      "d": 265.3061666666763,
      "v": 44
    },
    {
      "midi": 77,
      "hit": false,
      "t": 146969.41225000026,
      "d": 76.53062500001397,
      "v": 37
    },
    {
      "midi": 60,
      "hit": false,
      "t": 146974.5142916669,
      "d": 107.14287500001956,
      "v": 42
    },
    {
      "midi": 72,
      "hit": false,
      "t": 147255.1265833336,
      "d": 71.42858333332697,
      "v": 80
    },
    {
      "midi": 79,
      "hit": false,
      "t": 147260.22862500025,
      "d": 96.93879166667466,
      "v": 72
    },
    {
      "midi": 84,
      "hit": false,
      "t": 147260.22862500025,
      "d": 102.04083333333256,
      "v": 82
    },
    {
      "midi": 64,
      "hit": false,
      "t": 147566.35112500025,
      "d": 81.63266666664276,
      "v": 62
    },
    {
      "midi": 53,
      "hit": false,
      "t": 147571.4531666669,
      "d": 132.65308333330904,
      "v": 44
    },
    {
      "midi": 86,
      "hit": false,
      "t": 147571.4531666669,
      "d": 367.34699999995064,
      "v": 89
    },
    {
      "midi": 74,
      "hit": false,
      "t": 147576.55520833356,
      "d": 367.34699999995064,
      "v": 85
    },
    {
      "midi": 60,
      "hit": false,
      "t": 147581.65725000022,
      "d": 229.5918749999837,
      "v": 54
    },
    {
      "midi": 57,
      "hit": false,
      "t": 147586.75929166688,
      "d": 280.61229166665,
      "v": 55
    },
    {
      "midi": 81,
      "hit": false,
      "t": 147596.96337500022,
      "d": 362.24495833329274,
      "v": 53
    },
    {
      "midi": 84,
      "hit": false,
      "t": 148051.0450833335,
      "d": 112.24491666670656,
      "v": 65
    },
    {
      "midi": 64,
      "hit": false,
      "t": 148061.24916666685,
      "d": 45.91837499997928,
      "v": 50
    },
    {
      "midi": 60,
      "hit": false,
      "t": 148066.3512083335,
      "d": 51.02041666666628,
      "v": 48
    },
    {
      "midi": 79,
      "hit": false,
      "t": 148066.3512083335,
      "d": 76.53062500001397,
      "v": 56
    },
    {
      "midi": 72,
      "hit": false,
      "t": 148071.45325000017,
      "d": 61.224500000011176,
      "v": 36
    },
    {
      "midi": 57,
      "hit": false,
      "t": 148076.55529166682,
      "d": 76.53062500004307,
      "v": 38
    },
    {
      "midi": 64,
      "hit": false,
      "t": 148459.20841666686,
      "d": 214.28575000003912,
      "v": 44
    },
    {
      "midi": 60,
      "hit": false,
      "t": 148469.4125000002,
      "d": 239.7959583333577,
      "v": 40
    },
    {
      "midi": 53,
      "hit": false,
      "t": 148469.4125000002,
      "d": 280.6122916666791,
      "v": 29
    },
    {
      "midi": 57,
      "hit": false,
      "t": 148479.61658333355,
      "d": 178.57145833334653,
      "v": 36
    },
    {
      "midi": 53,
      "hit": false,
      "t": 148933.6982916669,
      "d": 153.06124999996973,
      "v": 50
    },
    {
      "midi": 60,
      "hit": false,
      "t": 148938.80033333355,
      "d": 76.53062499998487,
      "v": 57
    },
    {
      "midi": 64,
      "hit": false,
      "t": 148943.9023750002,
      "d": 61.22449999998207,
      "v": 53
    },
    {
      "midi": 57,
      "hit": false,
      "t": 148949.00441666687,
      "d": 86.73470833332976,
      "v": 51
    },
    {
      "midi": 62,
      "hit": false,
      "t": 149362.26979166685,
      "d": 76.53062500004307,
      "v": 43
    },
    {
      "midi": 93,
      "hit": false,
      "t": 149362.26979166685,
      "d": 127.55104166670935,
      "v": 67
    },
    {
      "midi": 52,
      "hit": false,
      "t": 149372.4738750002,
      "d": 178.57145833337563,
      "v": 32
    },
    {
      "midi": 55,
      "hit": false,
      "t": 149377.57591666686,
      "d": 311.2245416667429,
      "v": 54
    },
    {
      "midi": 59,
      "hit": false,
      "t": 149387.7800000002,
      "d": 285.7143333333952,
      "v": 29
    },
    {
      "midi": 94,
      "hit": false,
      "t": 149413.29020833355,
      "d": 112.24491666667745,
      "v": 31
    },
    {
      "midi": 95,
      "hit": false,
      "t": 149520.43308333357,
      "d": 56.12245833335328,
      "v": 55
    },
    {
      "midi": 100,
      "hit": false,
      "t": 149709.20862500026,
      "d": 35.714291666663485,
      "v": 32
    },
    {
      "midi": 62,
      "hit": false,
      "t": 149984.71887500025,
      "d": 81.63266666667187,
      "v": 62
    },
    {
      "midi": 55,
      "hit": false,
      "t": 150005.1270416669,
      "d": 76.53062500001397,
      "v": 49
    },
    {
      "midi": 59,
      "hit": false,
      "t": 150005.1270416669,
      "d": 102.04083333336166,
      "v": 42
    },
    {
      "midi": 52,
      "hit": false,
      "t": 150030.63725000026,
      "d": 30.612250000005588,
      "v": 20
    },
    {
      "midi": 65,
      "hit": false,
      "t": 150454.1067083336,
      "d": 275.5102500000212,
      "v": 50
    },
    {
      "midi": 61,
      "hit": false,
      "t": 150454.1067083336,
      "d": 311.2245416666847,
      "v": 37
    },
    {
      "midi": 55,
      "hit": false,
      "t": 150464.31079166694,
      "d": 367.34700000000885,
      "v": 50
    },
    {
      "midi": 60,
      "hit": false,
      "t": 150464.31079166694,
      "d": 403.06129166667233,
      "v": 54
    },
    {
      "midi": 72,
      "hit": false,
      "t": 150785.73941666694,
      "d": 81.63266666667187,
      "v": 53
    },
    {
      "midi": 73,
      "hit": false,
      "t": 150892.88229166696,
      "d": 35.714291666663485,
      "v": 34
    },
    {
      "midi": 77,
      "hit": false,
      "t": 151030.63741666696,
      "d": 107.14287499999045,
      "v": 48
    },
    {
      "midi": 82,
      "hit": false,
      "t": 151122.47416666694,
      "d": 81.63266666667187,
      "v": 60
    },
    {
      "midi": 84,
      "hit": false,
      "t": 151229.61704166696,
      "d": 147.95920833334094,
      "v": 80
    },
    {
      "midi": 61,
      "hit": false,
      "t": 151260.22929166697,
      "d": 250.0000416666735,
      "v": 38
    },
    {
      "midi": 65,
      "hit": false,
      "t": 151260.22929166697,
      "d": 275.5102500000212,
      "v": 45
    },
    {
      "midi": 60,
      "hit": false,
      "t": 151275.53541666697,
      "d": 290.816375000024,
      "v": 50
    },
    {
      "midi": 55,
      "hit": false,
      "t": 151280.63745833363,
      "d": 367.34700000003795,
      "v": 35
    },
    {
      "midi": 82,
      "hit": false,
      "t": 151331.6578750003,
      "d": 173.46941666668863,
      "v": 71
    },
    {
      "midi": 61,
      "hit": false,
      "t": 151596.964041667,
      "d": 40.81633333332138,
      "v": 31
    },
    {
      "midi": 77,
      "hit": false,
      "t": 151596.964041667,
      "d": 688.7756250000093,
      "v": 57
    },
    {
      "midi": 53,
      "hit": false,
      "t": 151846.96408333367,
      "d": 270.4082083333342,
      "v": 37
    },
    {
      "midi": 57,
      "hit": false,
      "t": 151852.06612500033,
      "d": 188.77554166666232,
      "v": 48
    },
    {
      "midi": 64,
      "hit": false,
      "t": 151857.168166667,
      "d": 153.06124999999884,
      "v": 29
    },
    {
      "midi": 60,
      "hit": false,
      "t": 151857.168166667,
      "d": 158.16329166665673,
      "v": 49
    },
    {
      "midi": 64,
      "hit": false,
      "t": 152311.24987500036,
      "d": 35.71429166669259,
      "v": 41
    },
    {
      "midi": 60,
      "hit": false,
      "t": 152321.4539583337,
      "d": 91.83675000001676,
      "v": 50
    },
    {
      "midi": 53,
      "hit": false,
      "t": 152321.4539583337,
      "d": 96.93879166667466,
      "v": 28
    },
    {
      "midi": 76,
      "hit": false,
      "t": 152331.65804166705,
      "d": 76.53062500001397,
      "v": 60
    },
    {
      "midi": 57,
      "hit": false,
      "t": 152336.7600833337,
      "d": 122.44899999999325,
      "v": 35
    },
    {
      "midi": 79,
      "hit": false,
      "t": 152464.31112500036,
      "d": 117.34695833333535,
      "v": 77
    },
    {
      "midi": 78,
      "hit": false,
      "t": 152627.5764583337,
      "d": 86.73470833335887,
      "v": 68
    },
    {
      "midi": 60,
      "hit": false,
      "t": 152647.98462500036,
      "d": 76.53062500004307,
      "v": 51
    },
    {
      "midi": 53,
      "hit": false,
      "t": 152647.98462500036,
      "d": 112.24491666670656,
      "v": 43
    },
    {
      "midi": 64,
      "hit": false,
      "t": 152658.1887083337,
      "d": 30.612250000005588,
      "v": 29
    },
    {
      "midi": 57,
      "hit": false,
      "t": 152658.1887083337,
      "d": 163.26533333337284,
      "v": 40
    },
    {
      "midi": 77,
      "hit": false,
      "t": 152760.22954166707,
      "d": 158.16329166668584,
      "v": 46
    },
    {
      "midi": 72,
      "hit": false,
      "t": 152959.20916666707,
      "d": 40.81633333332138,
      "v": 35
    },
    {
      "midi": 53,
      "hit": false,
      "t": 153035.73979166706,
      "d": 321.42862500000047,
      "v": 35
    },
    {
      "midi": 64,
      "hit": false,
      "t": 153040.84183333372,
      "d": 132.65308333333815,
      "v": 29
    },
    {
      "midi": 59,
      "hit": false,
      "t": 153040.84183333372,
      "d": 336.73475000000326,
      "v": 41
    },
    {
      "midi": 76,
      "hit": false,
      "t": 153051.04591666706,
      "d": 229.5918749999837,
      "v": 71
    },
    {
      "midi": 72,
      "hit": false,
      "t": 153290.8418750004,
      "d": 40.81633333332138,
      "v": 28
    },
    {
      "midi": 75,
      "hit": false,
      "t": 153362.27045833372,
      "d": 219.387791666697,
      "v": 71
    },
    {
      "midi": 59,
      "hit": false,
      "t": 153556.14804166707,
      "d": 102.04083333336166,
      "v": 44
    },
    {
      "midi": 53,
      "hit": false,
      "t": 153586.76029166707,
      "d": 61.224500000011176,
      "v": 27
    },
    {
      "midi": 74,
      "hit": false,
      "t": 153668.39295833377,
      "d": 224.4898333333258,
      "v": 80
    },
    {
      "midi": 59,
      "hit": false,
      "t": 153892.8827916671,
      "d": 71.42858333332697,
      "v": 37
    },
    {
      "midi": 53,
      "hit": false,
      "t": 153892.8827916671,
      "d": 81.63266666667187,
      "v": 26
    },
    {
      "midi": 72,
      "hit": false,
      "t": 153974.51545833377,
      "d": 219.3877916666679,
      "v": 71
    },
    {
      "midi": 62,
      "hit": false,
      "t": 154163.29100000043,
      "d": 45.91837500000838,
      "v": 38
    },
    {
      "midi": 67,
      "hit": false,
      "t": 154183.6991666671,
      "d": 40.816333333350485,
      "v": 39
    },
    {
      "midi": 59,
      "hit": false,
      "t": 154199.0052916671,
      "d": 56.12245833335328,
      "v": 24
    },
    {
      "midi": 55,
      "hit": false,
      "t": 154219.4134583338,
      "d": 61.224500000011176,
      "v": 32
    },
    {
      "midi": 71,
      "hit": false,
      "t": 154285.74000000046,
      "d": 260.2041249999893,
      "v": 79
    },
    {
      "midi": 67,
      "hit": false,
      "t": 154596.9645416671,
      "d": 147.95920833334094,
      "v": 50
    },
    {
      "midi": 67,
      "hit": false,
      "t": 154892.8829583338,
      "d": 147.95920833334094,
      "v": 63
    },
    {
      "midi": 59,
      "hit": false,
      "t": 155153.0870833338,
      "d": 76.53062500001397,
      "v": 27
    },
    {
      "midi": 55,
      "hit": false,
      "t": 155178.59729166716,
      "d": 86.73470833332976,
      "v": 29
    },
    {
      "midi": 67,
      "hit": false,
      "t": 155199.00545833382,
      "d": 142.85716666668304,
      "v": 70
    },
    {
      "midi": 67,
      "hit": false,
      "t": 155505.12795833385,
      "d": 750.0001249999914,
      "v": 68
    },
    {
      "midi": 59,
      "hit": false,
      "t": 155699.00554166717,
      "d": 438.7755833333358,
      "v": 38
    },
    {
      "midi": 62,
      "hit": false,
      "t": 155699.00554166717,
      "d": 454.0817083333386,
      "v": 48
    },
    {
      "midi": 52,
      "hit": false,
      "t": 155709.2096250005,
      "d": 673.4694999999774,
      "v": 29
    },
    {
      "midi": 55,
      "hit": false,
      "t": 155714.31166666717,
      "d": 596.9388749999925,
      "v": 39
    },
    {
      "midi": 51,
      "hit": false,
      "t": 156596.9648750005,
      "d": 86.73470833332976,
      "v": 53
    },
    {
      "midi": 48,
      "hit": false,
      "t": 156632.67916666716,
      "d": 81.63266666667187,
      "v": 32
    },
    {
      "midi": 52,
      "hit": false,
      "t": 156719.4138750005,
      "d": 56.122458333324175,
      "v": 63
    },
    {
      "midi": 49,
      "hit": false,
      "t": 156719.4138750005,
      "d": 122.44899999999325,
      "v": 49
    },
    {
      "midi": 54,
      "hit": false,
      "t": 156831.65879166714,
      "d": 51.02041666666628,
      "v": 56
    },
    {
      "midi": 51,
      "hit": false,
      "t": 156841.8628750005,
      "d": 56.122458333324175,
      "v": 56
    },
    {
      "midi": 55,
      "hit": false,
      "t": 156923.49554166716,
      "d": 66.32654166666907,
      "v": 68
    },
    {
      "midi": 54,
      "hit": false,
      "t": 157010.2302500005,
      "d": 163.26533333331463,
      "v": 46
    },
    {
      "midi": 57,
      "hit": false,
      "t": 157015.33229166715,
      "d": 91.83674999998766,
      "v": 71
    },
    {
      "midi": 58,
      "hit": false,
      "t": 157117.37312500048,
      "d": 66.32654166666907,
      "v": 58
    },
    {
      "midi": 60,
      "hit": false,
      "t": 157224.51600000047,
      "d": 66.32654166666907,
      "v": 67
    },
    {
      "midi": 61,
      "hit": false,
      "t": 157301.04662500048,
      "d": 81.63266666667187,
      "v": 62
    },
    {
      "midi": 63,
      "hit": false,
      "t": 157382.67929166715,
      "d": 66.32654166666907,
      "v": 49
    },
    {
      "midi": 64,
      "hit": false,
      "t": 157489.82216666715,
      "d": 71.42858333335607,
      "v": 63
    },
    {
      "midi": 62,
      "hit": false,
      "t": 157515.3323750005,
      "d": 35.714291666663485,
      "v": 46
    },
    {
      "midi": 61,
      "hit": false,
      "t": 157551.04666666716,
      "d": 35.714291666663485,
      "v": 38
    },
    {
      "midi": 66,
      "hit": false,
      "t": 157581.65891666716,
      "d": 66.32654166666907,
      "v": 57
    },
    {
      "midi": 67,
      "hit": false,
      "t": 157688.80179166715,
      "d": 45.91837500000838,
      "v": 53
    },
    {
      "midi": 68,
      "hit": false,
      "t": 157744.9242500005,
      "d": 25.51020833334769,
      "v": 39
    },
    {
      "midi": 69,
      "hit": false,
      "t": 157775.5365000005,
      "d": 81.63266666667187,
      "v": 60
    },
    {
      "midi": 70,
      "hit": false,
      "t": 157857.16916666718,
      "d": 45.91837500000838,
      "v": 62
    },
    {
      "midi": 72,
      "hit": false,
      "t": 157943.9038750005,
      "d": 71.42858333329787,
      "v": 63
    },
    {
      "midi": 63,
      "hit": false,
      "t": 157949.00591666717,
      "d": 183.67350000000442,
      "v": 53
    },
    {
      "midi": 58,
      "hit": false,
      "t": 157954.10795833383,
      "d": 367.34700000003795,
      "v": 42
    },
    {
      "midi": 52,
      "hit": false,
      "t": 157974.5161250005,
      "d": 295.918416666711,
      "v": 37
    },
    {
      "midi": 73,
      "hit": false,
      "t": 158020.43450000047,
      "d": 76.53062500001397,
      "v": 40
    },
    {
      "midi": 75,
      "hit": false,
      "t": 158107.16920833383,
      "d": 35.71429166669259,
      "v": 34
    },
    {
      "midi": 76,
      "hit": false,
      "t": 158173.49575000053,
      "d": 66.32654166666907,
      "v": 55
    },
    {
      "midi": 78,
      "hit": false,
      "t": 158244.92433333385,
      "d": 56.12245833335328,
      "v": 57
    },
    {
      "midi": 79,
      "hit": false,
      "t": 158362.2712916672,
      "d": 56.122458333324175,
      "v": 40
    },
    {
      "midi": 81,
      "hit": false,
      "t": 158438.80191666717,
      "d": 66.32654166666907,
      "v": 25
    },
    {
      "midi": 82,
      "hit": false,
      "t": 158505.12845833384,
      "d": 30.612250000005588,
      "v": 56
    },
    {
      "midi": 58,
      "hit": false,
      "t": 158525.5366250005,
      "d": 40.816333333350485,
      "v": 27
    },
    {
      "midi": 84,
      "hit": false,
      "t": 158591.8631666672,
      "d": 61.224500000011176,
      "v": 62
    },
    {
      "midi": 85,
      "hit": false,
      "t": 158658.18970833387,
      "d": 96.93879166667466,
      "v": 67
    },
    {
      "midi": 87,
      "hit": false,
      "t": 158755.12850000054,
      "d": 51.02041666666628,
      "v": 62
    },
    {
      "midi": 63,
      "hit": false,
      "t": 158806.1489166672,
      "d": 229.5918750000419,
      "v": 79
    },
    {
      "midi": 58,
      "hit": false,
      "t": 158816.35300000056,
      "d": 219.387791666697,
      "v": 62
    },
    {
      "midi": 52,
      "hit": false,
      "t": 158826.5570833339,
      "d": 158.16329166668584,
      "v": 54
    },
    {
      "midi": 86,
      "hit": false,
      "t": 158841.8632083339,
      "d": 30.612250000005588,
      "v": 54
    },
    {
      "midi": 88,
      "hit": false,
      "t": 158846.96525000056,
      "d": 71.42858333335607,
      "v": 50
    },
    {
      "midi": 89,
      "hit": false,
      "t": 158923.49587500058,
      "d": 61.224500000011176,
      "v": 45
    },
    {
      "midi": 90,
      "hit": false,
      "t": 158969.41425000058,
      "d": 71.42858333332697,
      "v": 57
    },
    {
      "midi": 93,
      "hit": false,
      "t": 159102.06733333392,
      "d": 35.714291666663485,
      "v": 62
    },
    {
      "midi": 95,
      "hit": false,
      "t": 159183.7000000006,
      "d": 112.24491666667745,
      "v": 75
    },
    {
      "midi": 65,
      "hit": false,
      "t": 159510.23066666728,
      "d": 81.63266666667187,
      "v": 60
    },
    {
      "midi": 57,
      "hit": false,
      "t": 159510.23066666728,
      "d": 117.34695833333535,
      "v": 52
    },
    {
      "midi": 62,
      "hit": false,
      "t": 159510.23066666728,
      "d": 147.95920833334094,
      "v": 59
    },
    {
      "midi": 86,
      "hit": false,
      "t": 159831.65929166728,
      "d": 81.63266666667187,
      "v": 75
    },
    {
      "midi": 81,
      "hit": false,
      "t": 159831.65929166728,
      "d": 86.73470833332976,
      "v": 73
    },
    {
      "midi": 93,
      "hit": false,
      "t": 159831.65929166728,
      "d": 112.24491666664835,
      "v": 81
    },
    {
      "midi": 89,
      "hit": false,
      "t": 159836.76133333394,
      "d": 102.04083333333256,
      "v": 58
    },
    {
      "midi": 93,
      "hit": false,
      "t": 160010.2307500006,
      "d": 127.55104166670935,
      "v": 74
    },
    {
      "midi": 81,
      "hit": false,
      "t": 160025.5368750006,
      "d": 117.34695833336446,
      "v": 64
    },
    {
      "midi": 89,
      "hit": false,
      "t": 160025.5368750006,
      "d": 122.44900000002235,
      "v": 48
    },
    {
      "midi": 86,
      "hit": false,
      "t": 160035.74095833395,
      "d": 112.24491666667745,
      "v": 64
    },
    {
      "midi": 65,
      "hit": false,
      "t": 160040.8430000006,
      "d": 25.51020833334769,
      "v": 57
    },
    {
      "midi": 62,
      "hit": false,
      "t": 160045.94504166726,
      "d": 122.44900000002235,
      "v": 53
    },
    {
      "midi": 57,
      "hit": false,
      "t": 160056.1491250006,
      "d": 56.12245833335328,
      "v": 35
    },
    {
      "midi": 91,
      "hit": false,
      "t": 160290.84304166728,
      "d": 71.42858333332697,
      "v": 58
    },
    {
      "midi": 86,
      "hit": false,
      "t": 160346.9655000006,
      "d": 35.714291666663485,
      "v": 24
    },
    {
      "midi": 65,
      "hit": false,
      "t": 160433.70020833393,
      "d": 76.53062500001397,
      "v": 55
    },
    {
      "midi": 80,
      "hit": false,
      "t": 160443.90429166728,
      "d": 102.04083333333256,
      "v": 59
    },
    {
      "midi": 57,
      "hit": false,
      "t": 160449.00633333393,
      "d": 117.34695833333535,
      "v": 44
    },
    {
      "midi": 86,
      "hit": false,
      "t": 160449.00633333393,
      "d": 173.46941666668863,
      "v": 65
    },
    {
      "midi": 62,
      "hit": false,
      "t": 160449.00633333393,
      "d": 234.6939166666998,
      "v": 53
    },
    {
      "midi": 92,
      "hit": false,
      "t": 160454.1083750006,
      "d": 112.24491666667745,
      "v": 47
    },
    {
      "midi": 89,
      "hit": false,
      "t": 160474.51654166725,
      "d": 147.95920833337004,
      "v": 34
    },
    {
      "midi": 93,
      "hit": false,
      "t": 160500.0267500006,
      "d": 91.83675000001676,
      "v": 25
    },
    {
      "midi": 89,
      "hit": false,
      "t": 160724.51658333396,
      "d": 158.16329166668584,
      "v": 41
    },
    {
      "midi": 77,
      "hit": false,
      "t": 160734.7206666673,
      "d": 132.65308333333815,
      "v": 58
    },
    {
      "midi": 57,
      "hit": false,
      "t": 161045.945208334,
      "d": 229.5918749999546,
      "v": 42
    },
    {
      "midi": 77,
      "hit": false,
      "t": 161051.04725000064,
      "d": 66.32654166663997,
      "v": 57
    },
    {
      "midi": 65,
      "hit": false,
      "t": 161051.04725000064,
      "d": 86.73470833330066,
      "v": 36
    },
    {
      "midi": 89,
      "hit": false,
      "t": 161056.1492916673,
      "d": 66.32654166663997,
      "v": 51
    },
    {
      "midi": 62,
      "hit": false,
      "t": 161056.1492916673,
      "d": 137.75512499996694,
      "v": 40
    },
    {
      "midi": 84,
      "hit": false,
      "t": 161061.25133333396,
      "d": 51.02041666666628,
      "v": 50
    },
    {
      "midi": 62,
      "hit": false,
      "t": 161525.5371250006,
      "d": 81.63266666667187,
      "v": 56
    },
    {
      "midi": 65,
      "hit": false,
      "t": 161530.63916666727,
      "d": 45.91837500000838,
      "v": 55
    },
    {
      "midi": 56,
      "hit": false,
      "t": 161530.63916666727,
      "d": 96.93879166667466,
      "v": 52
    },
    {
      "midi": 56,
      "hit": false,
      "t": 161938.8025000006,
      "d": 382.65312499998254,
      "v": 55
    },
    {
      "midi": 65,
      "hit": false,
      "t": 161943.90454166726,
      "d": 336.73475000000326,
      "v": 50
    },
    {
      "midi": 62,
      "hit": false,
      "t": 161949.00658333392,
      "d": 387.75516666666954,
      "v": 51
    },
    {
      "midi": 98,
      "hit": false,
      "t": 162454.10870833392,
      "d": 209.18370833335212,
      "v": 96
    },
    {
      "midi": 65,
      "hit": false,
      "t": 162464.31279166727,
      "d": 112.24491666664835,
      "v": 66
    },
    {
      "midi": 62,
      "hit": false,
      "t": 162464.31279166727,
      "d": 142.85716666665394,
      "v": 64
    },
    {
      "midi": 56,
      "hit": false,
      "t": 162469.41483333393,
      "d": 163.26533333334373,
      "v": 58
    },
    {
      "midi": 96,
      "hit": false,
      "t": 162489.8230000006,
      "d": 30.612250000005588,
      "v": 46
    },
    {
      "midi": 99,
      "hit": false,
      "t": 162617.37404166727,
      "d": 102.04083333336166,
      "v": 37
    },
    {
      "midi": 100,
      "hit": false,
      "t": 162673.49650000062,
      "d": 76.53062500001397,
      "v": 70
    },
    {
      "midi": 62,
      "hit": false,
      "t": 162790.84345833395,
      "d": 91.83674999998766,
      "v": 22
    },
    {
      "midi": 101,
      "hit": false,
      "t": 162795.9455000006,
      "d": 86.73470833332976,
      "v": 74
    },
    {
      "midi": 95,
      "hit": false,
      "t": 162841.86387500062,
      "d": 219.3877916666679,
      "v": 78
    },
    {
      "midi": 96,
      "hit": false,
      "t": 163030.63941666728,
      "d": 81.63266666667187,
      "v": 55
    },
    {
      "midi": 62,
      "hit": false,
      "t": 163030.63941666728,
      "d": 168.36737500000163,
      "v": 31
    },
    {
      "midi": 97,
      "hit": false,
      "t": 163071.45575000063,
      "d": 122.44899999999325,
      "v": 67
    },
    {
      "midi": 98,
      "hit": false,
      "t": 163183.70066666728,
      "d": 86.73470833332976,
      "v": 77
    },
    {
      "midi": 92,
      "hit": false,
      "t": 163346.96600000063,
      "d": 127.55104166668025,
      "v": 71
    },
    {
      "midi": 62,
      "hit": false,
      "t": 163346.96600000063,
      "d": 142.85716666668304,
      "v": 45
    },
    {
      "midi": 67,
      "hit": false,
      "t": 163352.06804166728,
      "d": 35.71429166669259,
      "v": 55
    },
    {
      "midi": 56,
      "hit": false,
      "t": 163362.27212500063,
      "d": 96.93879166667466,
      "v": 35
    },
    {
      "midi": 93,
      "hit": false,
      "t": 163459.2109166673,
      "d": 178.57145833334653,
      "v": 54
    },
    {
      "midi": 94,
      "hit": false,
      "t": 163576.55787500064,
      "d": 132.65308333333815,
      "v": 32
    },
    {
      "midi": 95,
      "hit": false,
      "t": 163653.08850000065,
      "d": 81.63266666667187,
      "v": 62
    },
    {
      "midi": 62,
      "hit": false,
      "t": 163693.90483333397,
      "d": 81.63266666667187,
      "v": 54
    },
    {
      "midi": 56,
      "hit": false,
      "t": 163704.10891666732,
      "d": 168.36737500000163,
      "v": 50
    },
    {
      "midi": 89,
      "hit": false,
      "t": 163755.12933333399,
      "d": 173.46941666665953,
      "v": 73
    },
    {
      "midi": 90,
      "hit": false,
      "t": 163908.19058333398,
      "d": 142.85716666665394,
      "v": 39
    },
    {
      "midi": 91,
      "hit": false,
      "t": 163979.6191666673,
      "d": 71.42858333332697,
      "v": 53
    },
    {
      "midi": 64,
      "hit": false,
      "t": 164045.94570833398,
      "d": 265.3061666666763,
      "v": 25
    },
    {
      "midi": 60,
      "hit": false,
      "t": 164051.04775000064,
      "d": 326.53066666668747,
      "v": 51
    },
    {
      "midi": 92,
      "hit": false,
      "t": 164061.25183333398,
      "d": 137.75512499999604,
      "v": 71
    },
    {
      "midi": 59,
      "hit": false,
      "t": 164061.25183333398,
      "d": 153.06124999999884,
      "v": 33
    },
    {
      "midi": 57,
      "hit": false,
      "t": 164066.35387500064,
      "d": 260.2041250000184,
      "v": 31
    },
    {
      "midi": 91,
      "hit": false,
      "t": 164301.0477916673,
      "d": 102.04083333336166,
      "v": 71
    },
    {
      "midi": 89,
      "hit": false,
      "t": 164545.94579166733,
      "d": 102.04083333333256,
      "v": 76
    },
    {
      "midi": 64,
      "hit": false,
      "t": 164586.76212500065,
      "d": 275.5102500000212,
      "v": 30
    },
    {
      "midi": 60,
      "hit": false,
      "t": 164591.8641666673,
      "d": 367.34700000003795,
      "v": 47
    },
    {
      "midi": 59,
      "hit": false,
      "t": 164596.96620833396,
      "d": 183.67350000003353,
      "v": 29
    },
    {
      "midi": 57,
      "hit": false,
      "t": 164622.4764166673,
      "d": 311.2245416666847,
      "v": 24
    },
    {
      "midi": 87,
      "hit": false,
      "t": 164709.21112500067,
      "d": 127.55104166665114,
      "v": 67
    },
    {
      "midi": 88,
      "hit": false,
      "t": 164943.90504166734,
      "d": 91.83675000001676,
      "v": 79
    },
    {
      "midi": 84,
      "hit": false,
      "t": 165132.68058333403,
      "d": 132.65308333333815,
      "v": 71
    },
    {
      "midi": 64,
      "hit": false,
      "t": 165285.74183333403,
      "d": 265.3061666667054,
      "v": 31
    },
    {
      "midi": 57,
      "hit": false,
      "t": 165295.94591666738,
      "d": 362.24495833335095,
      "v": 60
    },
    {
      "midi": 60,
      "hit": false,
      "t": 165311.25204166738,
      "d": 163.26533333334373,
      "v": 17
    },
    {
      "midi": 81,
      "hit": false,
      "t": 165326.55816666738,
      "d": 163.26533333334373,
      "v": 54
    },
    {
      "midi": 81,
      "hit": false,
      "t": 165617.3745416674,
      "d": 158.16329166665673,
      "v": 48
    },
    {
      "midi": 64,
      "hit": false,
      "t": 165913.29295833406,
      "d": 316.32658333331347,
      "v": 26
    },
    {
      "midi": 60,
      "hit": false,
      "t": 165918.39500000072,
      "d": 357.14291666666395,
      "v": 44
    },
    {
      "midi": 55,
      "hit": false,
      "t": 165923.49704166738,
      "d": 260.2041249999893,
      "v": 31
    },
    {
      "midi": 57,
      "hit": false,
      "t": 165928.59908333403,
      "d": 255.1020833333314,
      "v": 27
    },
    {
      "midi": 64,
      "hit": false,
      "t": 166403.08895833406,
      "d": 418.3674166666751,
      "v": 48
    },
    {
      "midi": 60,
      "hit": false,
      "t": 166403.08895833406,
      "d": 500.000083333347,
      "v": 41
    },
    {
      "midi": 57,
      "hit": false,
      "t": 166408.19100000072,
      "d": 545.9184583333554,
      "v": 45
    },
    {
      "midi": 53,
      "hit": false,
      "t": 166433.70120833407,
      "d": 683.6735833333514,
      "v": 32
    },
    {
      "midi": 57,
      "hit": false,
      "t": 167025.5380416674,
      "d": 61.224500000011176,
      "v": 57
    },
    {
      "midi": 60,
      "hit": false,
      "t": 167158.19112500074,
      "d": 86.73470833332976,
      "v": 51
    },
    {
      "midi": 72,
      "hit": false,
      "t": 167622.4769166674,
      "d": 142.85716666665394,
      "v": 87
    },
    {
      "midi": 60,
      "hit": false,
      "t": 167642.88508333405,
      "d": 56.122458333324175,
      "v": 33
    },
    {
      "midi": 57,
      "hit": false,
      "t": 167642.88508333405,
      "d": 96.93879166664556,
      "v": 45
    },
    {
      "midi": 53,
      "hit": false,
      "t": 167658.19120833406,
      "d": 76.53062499998487,
      "v": 30
    },
    {
      "midi": 64,
      "hit": false,
      "t": 167750.02795833405,
      "d": 102.04083333333256,
      "v": 49
    },
    {
      "midi": 65,
      "hit": false,
      "t": 167923.4973750007,
      "d": 96.93879166667466,
      "v": 66
    },
    {
      "midi": 57,
      "hit": false,
      "t": 167969.4157500007,
      "d": 56.122458333324175,
      "v": 35
    },
    {
      "midi": 72,
      "hit": false,
      "t": 168076.5586250007,
      "d": 71.42858333332697,
      "v": 51
    },
    {
      "midi": 60,
      "hit": false,
      "t": 168250.02804166736,
      "d": 51.02041666666628,
      "v": 39
    },
    {
      "midi": 76,
      "hit": false,
      "t": 168250.02804166736,
      "d": 71.42858333332697,
      "v": 60
    },
    {
      "midi": 57,
      "hit": false,
      "t": 168270.43620833402,
      "d": 45.91837500000838,
      "v": 36
    },
    {
      "midi": 79,
      "hit": false,
      "t": 168382.6811250007,
      "d": 96.93879166667466,
      "v": 85
    },
    {
      "midi": 78,
      "hit": false,
      "t": 168540.8444166674,
      "d": 86.73470833335887,
      "v": 77
    },
    {
      "midi": 60,
      "hit": false,
      "t": 168561.25258333405,
      "d": 51.02041666669538,
      "v": 56
    },
    {
      "midi": 57,
      "hit": false,
      "t": 168586.7627916674,
      "d": 45.91837500000838,
      "v": 30
    },
    {
      "midi": 77,
      "hit": false,
      "t": 168693.90566666742,
      "d": 137.75512499999604,
      "v": 46
    },
    {
      "midi": 73,
      "hit": false,
      "t": 168877.57916666742,
      "d": 76.53062500001397,
      "v": 43
    },
    {
      "midi": 57,
      "hit": false,
      "t": 168897.98733333408,
      "d": 76.53062500001397,
      "v": 35
    },
    {
      "midi": 60,
      "hit": false,
      "t": 168903.08937500074,
      "d": 35.71429166669259,
      "v": 36
    },
    {
      "midi": 50,
      "hit": false,
      "t": 168903.08937500074,
      "d": 81.63266666670097,
      "v": 22
    },
    {
      "midi": 53,
      "hit": false,
      "t": 168913.29345833408,
      "d": 112.24491666670656,
      "v": 33
    },
    {
      "midi": 76,
      "hit": false,
      "t": 169000.02816666744,
      "d": 147.95920833334094,
      "v": 64
    },
    {
      "midi": 60,
      "hit": false,
      "t": 169459.21191666744,
      "d": 40.81633333332138,
      "v": 62
    },
    {
      "midi": 57,
      "hit": false,
      "t": 169474.51804166744,
      "d": 40.81633333332138,
      "v": 42
    },
    {
      "midi": 53,
      "hit": false,
      "t": 169494.9262083341,
      "d": 76.53062499998487,
      "v": 26
    },
    {
      "midi": 57,
      "hit": false,
      "t": 169775.53850000075,
      "d": 51.02041666666628,
      "v": 53
    },
    {
      "midi": 53,
      "hit": false,
      "t": 169780.6405416674,
      "d": 107.14287499999045,
      "v": 42
    },
    {
      "midi": 75,
      "hit": false,
      "t": 169882.68137500074,
      "d": 132.65308333333815,
      "v": 51
    },
    {
      "midi": 68,
      "hit": false,
      "t": 169897.98750000075,
      "d": 71.42858333332697,
      "v": 57
    },
    {
      "midi": 63,
      "hit": false,
      "t": 169903.0895416674,
      "d": 112.24491666667745,
      "v": 59
    },
    {
      "midi": 72,
      "hit": false,
      "t": 169923.49770833406,
      "d": 107.14287500001956,
      "v": 28
    },
    {
      "midi": 64,
      "hit": false,
      "t": 170071.4569166674,
      "d": 66.32654166666907,
      "v": 62
    },
    {
      "midi": 76,
      "hit": false,
      "t": 170071.4569166674,
      "d": 86.73470833332976,
      "v": 58
    },
    {
      "midi": 72,
      "hit": false,
      "t": 170071.4569166674,
      "d": 102.04083333333256,
      "v": 20
    },
    {
      "midi": 69,
      "hit": false,
      "t": 170076.55895833406,
      "d": 66.32654166666907,
      "v": 57
    },
    {
      "midi": 76,
      "hit": false,
      "t": 170193.9059166674,
      "d": 158.16329166671494,
      "v": 26
    },
    {
      "midi": 64,
      "hit": false,
      "t": 170209.2120416674,
      "d": 107.14287500001956,
      "v": 42
    },
    {
      "midi": 69,
      "hit": false,
      "t": 170219.41612500075,
      "d": 86.73470833332976,
      "v": 57
    },
    {
      "midi": 72,
      "hit": false,
      "t": 170219.41612500075,
      "d": 122.44900000002235,
      "v": 27
    },
    {
      "midi": 57,
      "hit": false,
      "t": 170464.3141250008,
      "d": 35.71429166669259,
      "v": 34
    },
    {
      "midi": 50,
      "hit": false,
      "t": 170474.51820833414,
      "d": 66.32654166669818,
      "v": 30
    },
    {
      "midi": 76,
      "hit": false,
      "t": 170510.23250000083,
      "d": 173.46941666665953,
      "v": 62
    },
    {
      "midi": 69,
      "hit": false,
      "t": 170525.53862500083,
      "d": 122.44899999999325,
      "v": 54
    },
    {
      "midi": 64,
      "hit": false,
      "t": 170530.6406666675,
      "d": 122.44899999999325,
      "v": 42
    },
    {
      "midi": 72,
      "hit": false,
      "t": 170530.6406666675,
      "d": 142.85716666665394,
      "v": 38
    },
    {
      "midi": 76,
      "hit": false,
      "t": 170816.35500000083,
      "d": 147.95920833337004,
      "v": 57
    },
    {
      "midi": 64,
      "hit": false,
      "t": 170841.86520833417,
      "d": 96.93879166667466,
      "v": 38
    },
    {
      "midi": 69,
      "hit": false,
      "t": 170841.86520833417,
      "d": 122.44900000002235,
      "v": 48
    },
    {
      "midi": 72,
      "hit": false,
      "t": 170852.06929166752,
      "d": 96.93879166667466,
      "v": 28
    },
    {
      "midi": 74,
      "hit": false,
      "t": 171005.13054166752,
      "d": 122.44899999999325,
      "v": 52
    },
    {
      "midi": 50,
      "hit": false,
      "t": 171010.23258333417,
      "d": 91.83674999998766,
      "v": 39
    },
    {
      "midi": 72,
      "hit": false,
      "t": 171127.5795416675,
      "d": 178.57145833334653,
      "v": 40
    },
    {
      "midi": 71,
      "hit": false,
      "t": 171418.39591666753,
      "d": 163.26533333334373,
      "v": 62
    },
    {
      "midi": 47,
      "hit": false,
      "t": 171423.4979583342,
      "d": 107.14287500001956,
      "v": 35
    },
    {
      "midi": 55,
      "hit": false,
      "t": 171438.8040833342,
      "d": 66.32654166666907,
      "v": 31
    },
    {
      "midi": 71,
      "hit": false,
      "t": 171739.82454166753,
      "d": 147.95920833334094,
      "v": 72
    },
    {
      "midi": 71,
      "hit": false,
      "t": 172040.84500000087,
      "d": 153.06125000002794,
      "v": 65
    },
    {
      "midi": 55,
      "hit": false,
      "t": 172056.15112500088,
      "d": 56.12245833335328,
      "v": 47
    },
    {
      "midi": 47,
      "hit": false,
      "t": 172066.35520833422,
      "d": 45.91837500000838,
      "v": 28
    },
    {
      "midi": 67,
      "hit": false,
      "t": 172219.41645833425,
      "d": 91.83674999998766,
      "v": 64
    },
    {
      "midi": 62,
      "hit": false,
      "t": 172357.17158333425,
      "d": 122.44899999999325,
      "v": 48
    },
    {
      "midi": 62,
      "hit": false,
      "t": 172566.35529166757,
      "d": 45.91837500000838,
      "v": 57
    },
    {
      "midi": 56,
      "hit": false,
      "t": 172576.5593750009,
      "d": 96.93879166667466,
      "v": 35
    },
    {
      "midi": 59,
      "hit": false,
      "t": 172586.76345833426,
      "d": 35.714291666663485,
      "v": 49
    },
    {
      "midi": 53,
      "hit": false,
      "t": 172591.86550000092,
      "d": 102.04083333333256,
      "v": 24
    },
    {
      "midi": 55,
      "hit": false,
      "t": 172831.66145833425,
      "d": 66.32654166666907,
      "v": 66
    },
    {
      "midi": 56,
      "hit": false,
      "t": 172928.60025000092,
      "d": 76.53062500001397,
      "v": 57
    },
    {
      "midi": 58,
      "hit": false,
      "t": 173051.04925000094,
      "d": 51.02041666666628,
      "v": 44
    },
    {
      "midi": 59,
      "hit": false,
      "t": 173137.78395833427,
      "d": 35.714291666663485,
      "v": 60
    },
    {
      "midi": 61,
      "hit": false,
      "t": 173224.5186666676,
      "d": 61.224500000011176,
      "v": 59
    },
    {
      "midi": 62,
      "hit": false,
      "t": 173336.76358333428,
      "d": 71.42858333332697,
      "v": 47
    },
    {
      "midi": 64,
      "hit": false,
      "t": 173418.39625000095,
      "d": 76.53062500001397,
      "v": 64
    },
    {
      "midi": 56,
      "hit": false,
      "t": 173479.62075000096,
      "d": 86.73470833335887,
      "v": 31
    },
    {
      "midi": 59,
      "hit": false,
      "t": 173484.72279166762,
      "d": 35.71429166669259,
      "v": 41
    },
    {
      "midi": 65,
      "hit": false,
      "t": 173535.74320833432,
      "d": 40.816333333350485,
      "v": 64
    },
    {
      "midi": 67,
      "hit": false,
      "t": 173663.294250001,
      "d": 56.122458333324175,
      "v": 60
    },
    {
      "midi": 68,
      "hit": false,
      "t": 173744.92691666767,
      "d": 91.83674999998766,
      "v": 56
    },
    {
      "midi": 70,
      "hit": false,
      "t": 173862.273875001,
      "d": 86.73470833332976,
      "v": 37
    },
    {
      "midi": 71,
      "hit": false,
      "t": 173984.722875001,
      "d": 76.53062500001397,
      "v": 55
    },
    {
      "midi": 72,
      "hit": false,
      "t": 174081.66166666767,
      "d": 91.83674999998766,
      "v": 61
    },
    {
      "midi": 74,
      "hit": false,
      "t": 174199.008625001,
      "d": 45.91837500000838,
      "v": 50
    },
    {
      "midi": 74,
      "hit": false,
      "t": 174316.35558333434,
      "d": 51.02041666666628,
      "v": 44
    },
    {
      "midi": 76,
      "hit": false,
      "t": 174326.5596666677,
      "d": 40.81633333332138,
      "v": 28
    },
    {
      "midi": 59,
      "hit": false,
      "t": 174382.682125001,
      "d": 35.714291666663485,
      "v": 32
    },
    {
      "midi": 75,
      "hit": false,
      "t": 174418.39641666767,
      "d": 30.612250000005588,
      "v": 47
    },
    {
      "midi": 62,
      "hit": false,
      "t": 174678.6005416677,
      "d": 30.612250000005588,
      "v": 60
    },
    {
      "midi": 59,
      "hit": false,
      "t": 174678.6005416677,
      "d": 66.32654166666907,
      "v": 60
    },
    {
      "midi": 56,
      "hit": false,
      "t": 174683.70258333435,
      "d": 81.63266666667187,
      "v": 34
    },
    {
      "midi": 80,
      "hit": false,
      "t": 174877.5801666677,
      "d": 81.63266666667187,
      "v": 39
    },
    {
      "midi": 83,
      "hit": false,
      "t": 174969.41691666772,
      "d": 71.42858333332697,
      "v": 70
    },
    {
      "midi": 86,
      "hit": false,
      "t": 175051.0495833344,
      "d": 117.34695833336446,
      "v": 101
    },
    {
      "midi": 62,
      "hit": false,
      "t": 175061.25366666773,
      "d": 35.714291666663485,
      "v": 53
    },
    {
      "midi": 56,
      "hit": false,
      "t": 175061.25366666773,
      "d": 117.34695833336446,
      "v": 36
    },
    {
      "midi": 59,
      "hit": false,
      "t": 175107.17204166774,
      "d": 30.612250000005588,
      "v": 22
    },
    {
      "midi": 83,
      "hit": false,
      "t": 175147.9883750011,
      "d": 127.55104166668025,
      "v": 68
    },
    {
      "midi": 84,
      "hit": false,
      "t": 175250.02920833442,
      "d": 132.65308333333815,
      "v": 83
    },
    {
      "midi": 79,
      "hit": false,
      "t": 175397.98841666777,
      "d": 71.42858333332697,
      "v": 72
    },
    {
      "midi": 79,
      "hit": false,
      "t": 175663.2945833344,
      "d": 66.32654166666907,
      "v": 76
    },
    {
      "midi": 79,
      "hit": false,
      "t": 175811.25379166775,
      "d": 153.06124999999884,
      "v": 66
    },
    {
      "midi": 60,
      "hit": false,
      "t": 175974.5191250011,
      "d": 45.91837500000838,
      "v": 32
    },
    {
      "midi": 59,
      "hit": false,
      "t": 175984.72320833444,
      "d": 40.81633333332138,
      "v": 24
    },
    {
      "midi": 77,
      "hit": false,
      "t": 176020.4375000011,
      "d": 158.16329166665673,
      "v": 64
    },
    {
      "midi": 76,
      "hit": false,
      "t": 176219.41712500108,
      "d": 96.93879166667466,
      "v": 66
    },
    {
      "midi": 74,
      "hit": false,
      "t": 176382.68245833443,
      "d": 122.44899999999325,
      "v": 75
    },
    {
      "midi": 62,
      "hit": false,
      "t": 176571.4580000011,
      "d": 45.91837500000838,
      "v": 24
    },
    {
      "midi": 74,
      "hit": false,
      "t": 176637.78454166776,
      "d": 132.65308333333815,
      "v": 69
    },
    {
      "midi": 69,
      "hit": false,
      "t": 176826.56008333442,
      "d": 45.91837500000838,
      "v": 32
    },
    {
      "midi": 62,
      "hit": false,
      "t": 176826.56008333442,
      "d": 66.32654166666907,
      "v": 27
    },
    {
      "midi": 74,
      "hit": false,
      "t": 176943.90704166776,
      "d": 132.65308333333815,
      "v": 58
    },
    {
      "midi": 77,
      "hit": false,
      "t": 177127.58054166776,
      "d": 91.83674999998766,
      "v": 77
    },
    {
      "midi": 65,
      "hit": false,
      "t": 177147.98870833442,
      "d": 35.714291666663485,
      "v": 43
    },
    {
      "midi": 57,
      "hit": false,
      "t": 177158.19279166777,
      "d": 61.22449999998207,
      "v": 40
    },
    {
      "midi": 62,
      "hit": false,
      "t": 177163.29483333442,
      "d": 56.122458333324175,
      "v": 36
    },
    {
      "midi": 76,
      "hit": false,
      "t": 177280.64179166776,
      "d": 168.36737500000163,
      "v": 47
    },
    {
      "midi": 65,
      "hit": false,
      "t": 177540.84591666775,
      "d": 86.73470833332976,
      "v": 48
    },
    {
      "midi": 56,
      "hit": false,
      "t": 177556.15204166775,
      "d": 96.93879166667466,
      "v": 29
    },
    {
      "midi": 62,
      "hit": false,
      "t": 177556.15204166775,
      "d": 102.04083333333256,
      "v": 43
    },
    {
      "midi": 56,
      "hit": false,
      "t": 178030.64191666775,
      "d": 107.14287500001956,
      "v": 52
    },
    {
      "midi": 62,
      "hit": false,
      "t": 178035.7439583344,
      "d": 91.83675000001676,
      "v": 58
    },
    {
      "midi": 65,
      "hit": false,
      "t": 178045.94804166775,
      "d": 45.91837500000838,
      "v": 36
    },
    {
      "midi": 62,
      "hit": false,
      "t": 178346.9685000011,
      "d": 30.612250000005588,
      "v": 60
    },
    {
      "midi": 56,
      "hit": false,
      "t": 178346.9685000011,
      "d": 66.32654166666907,
      "v": 38
    },
    {
      "midi": 83,
      "hit": false,
      "t": 178469.4175000011,
      "d": 81.63266666667187,
      "v": 62
    },
    {
      "midi": 86,
      "hit": false,
      "t": 178637.7848750011,
      "d": 61.22449999998207,
      "v": 84
    },
    {
      "midi": 74,
      "hit": false,
      "t": 178642.88691666775,
      "d": 61.22449999998207,
      "v": 78
    },
    {
      "midi": 83,
      "hit": false,
      "t": 178668.3971250011,
      "d": 45.91837499997928,
      "v": 34
    },
    {
      "midi": 64,
      "hit": false,
      "t": 178673.49916666775,
      "d": 25.510208333318587,
      "v": 57
    },
    {
      "midi": 60,
      "hit": false,
      "t": 178678.6012083344,
      "d": 81.63266666667187,
      "v": 54
    },
    {
      "midi": 59,
      "hit": false,
      "t": 178683.70325000107,
      "d": 96.93879166670376,
      "v": 50
    },
    {
      "midi": 57,
      "hit": false,
      "t": 178688.80529166773,
      "d": 117.34695833339356,
      "v": 34
    },
    {
      "midi": 86,
      "hit": false,
      "t": 178770.43795833443,
      "d": 173.46941666668863,
      "v": 68
    },
    {
      "midi": 74,
      "hit": false,
      "t": 178770.43795833443,
      "d": 188.77554166669142,
      "v": 53
    },
    {
      "midi": 83,
      "hit": false,
      "t": 178790.84612500112,
      "d": 198.97962500000722,
      "v": 41
    },
    {
      "midi": 60,
      "hit": false,
      "t": 179025.5400416678,
      "d": 45.91837500000838,
      "v": 25
    },
    {
      "midi": 84,
      "hit": false,
      "t": 179081.66250000114,
      "d": 76.53062500001397,
      "v": 48
    },
    {
      "midi": 86,
      "hit": false,
      "t": 179255.13191666783,
      "d": 71.42858333332697,
      "v": 82
    },
    {
      "midi": 74,
      "hit": false,
      "t": 179260.2339583345,
      "d": 71.42858333332697,
      "v": 71
    },
    {
      "midi": 64,
      "hit": false,
      "t": 179280.64212500115,
      "d": 35.714291666663485,
      "v": 44
    },
    {
      "midi": 60,
      "hit": false,
      "t": 179285.7441666678,
      "d": 86.73470833332976,
      "v": 51
    },
    {
      "midi": 83,
      "hit": false,
      "t": 179290.84620833446,
      "d": 56.12245833335328,
      "v": 24
    },
    {
      "midi": 59,
      "hit": false,
      "t": 179316.3564166678,
      "d": 30.612250000005588,
      "v": 22
    },
    {
      "midi": 57,
      "hit": false,
      "t": 179316.3564166678,
      "d": 51.02041666666628,
      "v": 28
    },
    {
      "midi": 86,
      "hit": false,
      "t": 179397.98908333448,
      "d": 163.26533333334373,
      "v": 69
    },
    {
      "midi": 74,
      "hit": false,
      "t": 179408.19316666783,
      "d": 168.36737500000163,
      "v": 39
    },
    {
      "midi": 81,
      "hit": false,
      "t": 179423.49929166783,
      "d": 173.46941666665953,
      "v": 28
    },
    {
      "midi": 57,
      "hit": false,
      "t": 179607.17279166784,
      "d": 117.34695833333535,
      "v": 49
    },
    {
      "midi": 84,
      "hit": false,
      "t": 179688.8054583345,
      "d": 137.75512499999604,
      "v": 61
    },
    {
      "midi": 72,
      "hit": false,
      "t": 179693.90750000117,
      "d": 66.32654166666907,
      "v": 53
    },
    {
      "midi": 64,
      "hit": false,
      "t": 179994.9279583345,
      "d": 66.32654166663997,
      "v": 43
    },
    {
      "midi": 55,
      "hit": false,
      "t": 180000.03000000116,
      "d": 91.83674999998766,
      "v": 55
    },
    {
      "midi": 60,
      "hit": false,
      "t": 180005.13204166782,
      "d": 81.63266666667187,
      "v": 50
    },
    {
      "midi": 86,
      "hit": false,
      "t": 180484.72395833448,
      "d": 117.34695833336446,
      "v": 105
    },
    {
      "midi": 64,
      "hit": false,
      "t": 180494.92804166782,
      "d": 35.714291666663485,
      "v": 37
    },
    {
      "midi": 93,
      "hit": false,
      "t": 180494.92804166782,
      "d": 229.5918750000128,
      "v": 89
    },
    {
      "midi": 60,
      "hit": false,
      "t": 180500.03008333448,
      "d": 76.53062500001397,
      "v": 36
    },
    {
      "midi": 55,
      "hit": false,
      "t": 180515.33620833448,
      "d": 40.816333333350485,
      "v": 30
    },
    {
      "midi": 87,
      "hit": false,
      "t": 180658.19337500117,
      "d": 122.44899999999325,
      "v": 48
    },
    {
      "midi": 86,
      "hit": false,
      "t": 180709.21379166783,
      "d": 107.14287499999045,
      "v": 66
    },
    {
      "midi": 84,
      "hit": false,
      "t": 180821.45870833448,
      "d": 35.714291666663485,
      "v": 58
    },
    {
      "midi": 60,
      "hit": false,
      "t": 180877.5811666678,
      "d": 91.83675000001676,
      "v": 34
    },
    {
      "midi": 55,
      "hit": false,
      "t": 180887.78525000115,
      "d": 56.122458333324175,
      "v": 22
    },
    {
      "midi": 83,
      "hit": false,
      "t": 180943.90770833447,
      "d": 142.85716666668304,
      "v": 60
    },
    {
      "midi": 86,
      "hit": false,
      "t": 181112.2750833345,
      "d": 178.57145833334653,
      "v": 82
    },
    {
      "midi": 64,
      "hit": false,
      "t": 181147.98937500117,
      "d": 40.816333333350485,
      "v": 38
    },
    {
      "midi": 60,
      "hit": false,
      "t": 181163.29550000117,
      "d": 45.91837500000838,
      "v": 28
    },
    {
      "midi": 84,
      "hit": false,
      "t": 181255.1322500012,
      "d": 142.85716666665394,
      "v": 65
    },
    {
      "midi": 81,
      "hit": false,
      "t": 181408.1935000012,
      "d": 112.24491666667745,
      "v": 62
    },
    {
      "midi": 76,
      "hit": false,
      "t": 181540.84658333453,
      "d": 142.85716666665394,
      "v": 50
    },
    {
      "midi": 64,
      "hit": false,
      "t": 181816.35683333452,
      "d": 173.46941666665953,
      "v": 39
    },
    {
      "midi": 76,
      "hit": false,
      "t": 181836.76500000118,
      "d": 91.83674999998766,
      "v": 51
    },
    {
      "midi": 57,
      "hit": false,
      "t": 181841.86704166784,
      "d": 214.28575000001,
      "v": 38
    },
    {
      "midi": 60,
      "hit": false,
      "t": 181857.17316666784,
      "d": 51.02041666666628,
      "v": 27
    },
    {
      "midi": 54,
      "hit": false,
      "t": 182295.94875000117,
      "d": 137.75512499999604,
      "v": 43
    },
    {
      "midi": 64,
      "hit": false,
      "t": 182301.05079166783,
      "d": 81.63266666667187,
      "v": 41
    },
    {
      "midi": 60,
      "hit": false,
      "t": 182306.1528333345,
      "d": 96.93879166667466,
      "v": 43
    },
    {
      "midi": 54,
      "hit": false,
      "t": 182602.07125000117,
      "d": 102.04083333336166,
      "v": 46
    },
    {
      "midi": 60,
      "hit": false,
      "t": 182612.27533333452,
      "d": 61.224500000011176,
      "v": 53
    },
    {
      "midi": 64,
      "hit": false,
      "t": 182622.47941666786,
      "d": 30.612250000005588,
      "v": 25
    },
    {
      "midi": 90,
      "hit": false,
      "t": 182744.92841666786,
      "d": 71.42858333332697,
      "v": 69
    },
    {
      "midi": 93,
      "hit": false,
      "t": 182852.07129166785,
      "d": 81.63266666667187,
      "v": 85
    },
    {
      "midi": 60,
      "hit": false,
      "t": 182964.31620833452,
      "d": 112.24491666667745,
      "v": 41
    },
    {
      "midi": 87,
      "hit": false,
      "t": 183061.2550000012,
      "d": 71.42858333332697,
      "v": 79
    },
    {
      "midi": 90,
      "hit": false,
      "t": 183168.3978750012,
      "d": 76.53062500001397,
      "v": 74
    },
    {
      "midi": 63,
      "hit": false,
      "t": 183275.5407500012,
      "d": 30.612250000005588,
      "v": 38
    },
    {
      "midi": 60,
      "hit": false,
      "t": 183280.64279166787,
      "d": 61.224500000011176,
      "v": 54
    },
    {
      "midi": 54,
      "hit": false,
      "t": 183295.94891666787,
      "d": 127.55104166668025,
      "v": 26
    },
    {
      "midi": 84,
      "hit": false,
      "t": 183382.6836250012,
      "d": 51.02041666669538,
      "v": 64
    },
    {
      "midi": 83,
      "hit": false,
      "t": 183408.19383333455,
      "d": 35.71429166669259,
      "v": 32
    },
    {
      "midi": 87,
      "hit": false,
      "t": 183479.6224166679,
      "d": 107.14287499999045,
      "v": 73
    },
    {
      "midi": 62,
      "hit": false,
      "t": 183581.66325000123,
      "d": 35.714291666663485,
      "v": 55
    },
    {
      "midi": 58,
      "hit": false,
      "t": 183586.7652916679,
      "d": 45.91837500000838,
      "v": 43
    },
    {
      "midi": 57,
      "hit": false,
      "t": 183602.0714166679,
      "d": 40.816333333350485,
      "v": 36
    },
    {
      "midi": 82,
      "hit": false,
      "t": 183663.2959166679,
      "d": 71.42858333332697,
      "v": 54
    },
    {
      "midi": 86,
      "hit": false,
      "t": 183785.7449166679,
      "d": 66.32654166666907,
      "v": 66
    },
    {
      "midi": 62,
      "hit": false,
      "t": 183877.58166666792,
      "d": 40.81633333332138,
      "v": 42
    },
    {
      "midi": 81,
      "hit": false,
      "t": 183984.7245416679,
      "d": 71.42858333332697,
      "v": 66
    },
    {
      "midi": 84,
      "hit": false,
      "t": 184102.07150000124,
      "d": 71.42858333332697,
      "v": 74
    },
    {
      "midi": 62,
      "hit": false,
      "t": 184142.88783333456,
      "d": 35.714291666663485,
      "v": 42
    },
    {
      "midi": 78,
      "hit": false,
      "t": 184290.8470416679,
      "d": 61.224500000011176,
      "v": 56
    },
    {
      "midi": 82,
      "hit": false,
      "t": 184387.78583333458,
      "d": 76.53062500001397,
      "v": 69
    },
    {
      "midi": 62,
      "hit": false,
      "t": 184530.64300000126,
      "d": 45.91837499997928,
      "v": 46
    },
    {
      "midi": 58,
      "hit": false,
      "t": 184530.64300000126,
      "d": 91.83674999998766,
      "v": 47
    },
    {
      "midi": 77,
      "hit": false,
      "t": 184535.74504166792,
      "d": 35.714291666663485,
      "v": 67
    },
    {
      "midi": 63,
      "hit": false,
      "t": 184852.07162500126,
      "d": 107.14287499999045,
      "v": 67
    },
    {
      "midi": 58,
      "hit": false,
      "t": 184867.37775000127,
      "d": 209.183708333323,
      "v": 48
    },
    {
      "midi": 55,
      "hit": false,
      "t": 184872.47979166792,
      "d": 91.83674999998766,
      "v": 51
    },
    {
      "midi": 63,
      "hit": false,
      "t": 185341.86762500126,
      "d": 158.16329166665673,
      "v": 67
    },
    {
      "midi": 58,
      "hit": false,
      "t": 185367.3778333346,
      "d": 158.16329166665673,
      "v": 46
    },
    {
      "midi": 55,
      "hit": false,
      "t": 185372.47987500127,
      "d": 86.73470833332976,
      "v": 40
    },
    {
      "midi": 64,
      "hit": false,
      "t": 185801.05137500126,
      "d": 158.16329166665673,
      "v": 64
    },
    {
      "midi": 58,
      "hit": false,
      "t": 185806.15341666792,
      "d": 285.714333333337,
      "v": 46
    },
    {
      "midi": 55,
      "hit": false,
      "t": 185816.35750000126,
      "d": 204.08166666666511,
      "v": 57
    },
    {
      "midi": 77,
      "hit": false,
      "t": 186117.3779583346,
      "d": 107.14287499999045,
      "v": 71
    },
    {
      "midi": 65,
      "hit": false,
      "t": 186122.48000000126,
      "d": 86.73470833332976,
      "v": 82
    },
    {
      "midi": 70,
      "hit": false,
      "t": 186122.48000000126,
      "d": 102.04083333333256,
      "v": 74
    },
    {
      "midi": 74,
      "hit": false,
      "t": 186122.48000000126,
      "d": 127.55104166668025,
      "v": 71
    },
    {
      "midi": 77,
      "hit": false,
      "t": 186275.5412500013,
      "d": 275.510249999963,
      "v": 38
    },
    {
      "midi": 65,
      "hit": false,
      "t": 186295.94941666795,
      "d": 71.42858333329787,
      "v": 56
    },
    {
      "midi": 70,
      "hit": false,
      "t": 186295.94941666795,
      "d": 81.63266666664276,
      "v": 51
    },
    {
      "midi": 74,
      "hit": false,
      "t": 186301.0514583346,
      "d": 96.93879166664556,
      "v": 45
    },
    {
      "midi": 58,
      "hit": false,
      "t": 186341.86779166793,
      "d": 107.14287499999045,
      "v": 43
    },
    {
      "midi": 64,
      "hit": false,
      "t": 186346.9698333346,
      "d": 45.91837500000838,
      "v": 20
    },
    {
      "midi": 65,
      "hit": false,
      "t": 186433.70454166792,
      "d": 91.83675000001676,
      "v": 36
    },
    {
      "midi": 70,
      "hit": false,
      "t": 186433.70454166792,
      "d": 96.93879166667466,
      "v": 37
    },
    {
      "midi": 74,
      "hit": false,
      "t": 186438.80658333458,
      "d": 112.24491666667745,
      "v": 36
    },
    {
      "midi": 77,
      "hit": false,
      "t": 186602.07191666792,
      "d": 81.63266666664276,
      "v": 41
    },
    {
      "midi": 65,
      "hit": false,
      "t": 186607.17395833458,
      "d": 71.42858333332697,
      "v": 51
    },
    {
      "midi": 70,
      "hit": false,
      "t": 186617.37804166792,
      "d": 66.32654166663997,
      "v": 51
    },
    {
      "midi": 74,
      "hit": false,
      "t": 186617.37804166792,
      "d": 76.53062499998487,
      "v": 60
    },
    {
      "midi": 58,
      "hit": false,
      "t": 186637.78620833458,
      "d": 96.93879166664556,
      "v": 42
    },
    {
      "midi": 77,
      "hit": false,
      "t": 186729.62295833457,
      "d": 158.16329166668584,
      "v": 35
    },
    {
      "midi": 65,
      "hit": false,
      "t": 186744.92908333457,
      "d": 122.44900000002235,
      "v": 53
    },
    {
      "midi": 70,
      "hit": false,
      "t": 186744.92908333457,
      "d": 137.75512500002515,
      "v": 51
    },
    {
      "midi": 74,
      "hit": false,
      "t": 186755.13316666792,
      "d": 168.36737500000163,
      "v": 62
    },
    {
      "midi": 58,
      "hit": false,
      "t": 186974.5209583346,
      "d": 127.55104166665114,
      "v": 25
    },
    {
      "midi": 76,
      "hit": false,
      "t": 187035.7454583346,
      "d": 183.67349999997532,
      "v": 48
    },
    {
      "midi": 70,
      "hit": false,
      "t": 187040.84750000125,
      "d": 132.65308333330904,
      "v": 54
    },
    {
      "midi": 64,
      "hit": false,
      "t": 187045.9495416679,
      "d": 71.42858333332697,
      "v": 60
    },
    {
      "midi": 76,
      "hit": false,
      "t": 187331.66387500125,
      "d": 454.0817083333095,
      "v": 62
    },
    {
      "midi": 70,
      "hit": false,
      "t": 187336.7659166679,
      "d": 448.9796666666516,
      "v": 74
    },
    {
      "midi": 64,
      "hit": false,
      "t": 187346.97000000125,
      "d": 520.4082499999786,
      "v": 64
    },
    {
      "midi": 58,
      "hit": false,
      "t": 187352.0720416679,
      "d": 525.5102916666656,
      "v": 59
    },
    {
      "midi": 74,
      "hit": false,
      "t": 187954.1129583346,
      "d": 341.83679166666116,
      "v": 69
    },
    {
      "midi": 70,
      "hit": false,
      "t": 187959.21500000125,
      "d": 418.3674166666751,
      "v": 61
    },
    {
      "midi": 68,
      "hit": false,
      "t": 187959.21500000125,
      "d": 443.8776250000228,
      "v": 62
    },
    {
      "midi": 62,
      "hit": false,
      "t": 187969.4190833346,
      "d": 336.73475000000326,
      "v": 45
    },
    {
      "midi": 58,
      "hit": false,
      "t": 187979.62316666794,
      "d": 438.7755833333358,
      "v": 63
    },
    {
      "midi": 72,
      "hit": false,
      "t": 188449.01100000128,
      "d": 387.75516666664043,
      "v": 47
    },
    {
      "midi": 67,
      "hit": false,
      "t": 188454.11304166794,
      "d": 362.24495833332185,
      "v": 69
    },
    {
      "midi": 60,
      "hit": false,
      "t": 188459.2150833346,
      "d": 295.9184166666528,
      "v": 64
    },
    {
      "midi": 57,
      "hit": false,
      "t": 188464.31712500125,
      "d": 326.53066666665836,
      "v": 56
    },
    {
      "midi": 84,
      "hit": false,
      "t": 189193.90908333458,
      "d": 107.14287499999045,
      "v": 88
    },
    {
      "midi": 63,
      "hit": false,
      "t": 189193.90908333458,
      "d": 127.55104166665114,
      "v": 82
    },
    {
      "midi": 72,
      "hit": false,
      "t": 189199.01112500124,
      "d": 96.93879166667466,
      "v": 91
    },
    {
      "midi": 55,
      "hit": false,
      "t": 189199.01112500124,
      "d": 117.34695833333535,
      "v": 73
    },
    {
      "midi": 79,
      "hit": false,
      "t": 189199.01112500124,
      "d": 127.55104166665114,
      "v": 84
    },
    {
      "midi": 60,
      "hit": false,
      "t": 189204.1131666679,
      "d": 158.16329166668584,
      "v": 68
    },
    {
      "midi": 57,
      "hit": false,
      "t": 189209.21520833456,
      "d": 142.85716666668304,
      "v": 66
    },
    {
      "midi": 86,
      "hit": false,
      "t": 189382.68462500125,
      "d": 66.32654166663997,
      "v": 91
    },
    {
      "midi": 79,
      "hit": false,
      "t": 189382.68462500125,
      "d": 81.63266666664276,
      "v": 63
    },
    {
      "midi": 63,
      "hit": false,
      "t": 189387.7866666679,
      "d": 234.6939166666416,
      "v": 61
    },
    {
      "midi": 74,
      "hit": false,
      "t": 189392.88870833456,
      "d": 25.510208333318587,
      "v": 68
    },
    {
      "midi": 55,
      "hit": false,
      "t": 189392.88870833456,
      "d": 204.08166666666511,
      "v": 67
    },
    {
      "midi": 57,
      "hit": false,
      "t": 189408.19483333456,
      "d": 204.08166666666511,
      "v": 40
    },
    {
      "midi": 60,
      "hit": false,
      "t": 189413.29687500122,
      "d": 204.08166666666511,
      "v": 32
    },
    {
      "midi": 72,
      "hit": false,
      "t": 189500.03158333455,
      "d": 71.42858333335607,
      "v": 53
    },
    {
      "midi": 79,
      "hit": false,
      "t": 189510.2356666679,
      "d": 96.93879166667466,
      "v": 48
    },
    {
      "midi": 84,
      "hit": false,
      "t": 189520.43975000124,
      "d": 71.42858333332697,
      "v": 51
    },
    {
      "midi": 87,
      "hit": false,
      "t": 189693.90916666787,
      "d": 362.24495833329274,
      "v": 83
    },
    {
      "midi": 75,
      "hit": false,
      "t": 189699.01120833453,
      "d": 331.63270833331626,
      "v": 82
    },
    {
      "midi": 65,
      "hit": false,
      "t": 189704.1132500012,
      "d": 331.63270833331626,
      "v": 80
    },
    {
      "midi": 54,
      "hit": false,
      "t": 189709.21529166785,
      "d": 321.42862500000047,
      "v": 60
    },
    {
      "midi": 82,
      "hit": false,
      "t": 189709.21529166785,
      "d": 326.53066666665836,
      "v": 67
    },
    {
      "midi": 60,
      "hit": false,
      "t": 189714.3173333345,
      "d": 341.83679166666116,
      "v": 60
    },
    {
      "midi": 58,
      "hit": false,
      "t": 189714.3173333345,
      "d": 362.24495833332185,
      "v": 50
    },
    {
      "midi": 89,
      "hit": false,
      "t": 190117.37862500115,
      "d": 260.2041249999602,
      "v": 74
    },
    {
      "midi": 65,
      "hit": false,
      "t": 190117.37862500115,
      "d": 377.55108333329554,
      "v": 74
    },
    {
      "midi": 54,
      "hit": false,
      "t": 190117.37862500115,
      "d": 392.85720833329833,
      "v": 62
    },
    {
      "midi": 84,
      "hit": false,
      "t": 190122.4806666678,
      "d": 260.2041249999602,
      "v": 74
    },
    {
      "midi": 60,
      "hit": false,
      "t": 190122.4806666678,
      "d": 408.1633333333011,
      "v": 66
    },
    {
      "midi": 58,
      "hit": false,
      "t": 190122.4806666678,
      "d": 448.9796666666516,
      "v": 37
    },
    {
      "midi": 77,
      "hit": false,
      "t": 190127.58270833446,
      "d": 341.83679166663205,
      "v": 68
    },
    {
      "midi": 88,
      "hit": false,
      "t": 190147.99087500112,
      "d": 35.714291666663485,
      "v": 37
    },
    {
      "midi": 85,
      "hit": false,
      "t": 190500.0317500011,
      "d": 61.224500000011176,
      "v": 32
    },
    {
      "midi": 86,
      "hit": false,
      "t": 190607.17462500112,
      "d": 250.0000416666444,
      "v": 77
    },
    {
      "midi": 80,
      "hit": false,
      "t": 190617.37870833447,
      "d": 188.77554166663322,
      "v": 57
    },
    {
      "midi": 76,
      "hit": false,
      "t": 190627.5827916678,
      "d": 132.65308333330904,
      "v": 48
    },
    {
      "midi": 65,
      "hit": false,
      "t": 190627.5827916678,
      "d": 173.46941666663042,
      "v": 64
    },
    {
      "midi": 74,
      "hit": false,
      "t": 190627.5827916678,
      "d": 234.6939166666125,
      "v": 46
    },
    {
      "midi": 58,
      "hit": false,
      "t": 190632.68483333447,
      "d": 250.0000416666153,
      "v": 30
    },
    {
      "midi": 54,
      "hit": false,
      "t": 190632.68483333447,
      "d": 275.510249999963,
      "v": 52
    },
    {
      "midi": 60,
      "hit": false,
      "t": 190637.78687500113,
      "d": 142.85716666665394,
      "v": 54
    },
    {
      "midi": 81,
      "hit": false,
      "t": 190801.05220833444,
      "d": 107.14287499999045,
      "v": 38
    },
    {
      "midi": 62,
      "hit": false,
      "t": 191005.1338750011,
      "d": 341.83679166666116,
      "v": 45
    },
    {
      "midi": 53,
      "hit": false,
      "t": 191015.33795833445,
      "d": 341.83679166666116,
      "v": 28
    },
    {
      "midi": 58,
      "hit": false,
      "t": 191015.33795833445,
      "d": 372.44904166666674,
      "v": 42
    },
    {
      "midi": 82,
      "hit": false,
      "t": 191015.33795833445,
      "d": 551.0204999999842,
      "v": 48
    },
    {
      "midi": 70,
      "hit": false,
      "t": 191020.4400000011,
      "d": 418.3674166666751,
      "v": 57
    },
    {
      "midi": 55,
      "hit": false,
      "t": 191025.54204166777,
      "d": 336.73475000000326,
      "v": 41
    },
    {
      "midi": 62,
      "hit": false,
      "t": 191489.82783333445,
      "d": 352.04087500000605,
      "v": 49
    },
    {
      "midi": 58,
      "hit": false,
      "t": 191494.9298750011,
      "d": 234.6939166666707,
      "v": 35
    },
    {
      "midi": 53,
      "hit": false,
      "t": 191494.9298750011,
      "d": 403.06129166667233,
      "v": 31
    },
    {
      "midi": 55,
      "hit": false,
      "t": 191500.03191666777,
      "d": 403.06129166667233,
      "v": 46
    },
    {
      "midi": 58,
      "hit": false,
      "t": 191826.56258333445,
      "d": 102.04083333330345,
      "v": 37
    },
    {
      "midi": 87,
      "hit": false,
      "t": 191908.1952500011,
      "d": 30.612250000005588,
      "v": 37
    },
    {
      "midi": 88,
      "hit": false,
      "t": 191979.62383333442,
      "d": 76.53062500001397,
      "v": 51
    },
    {
      "midi": 87,
      "hit": false,
      "t": 192045.9503750011,
      "d": 81.63266666667187,
      "v": 65
    },
    {
      "midi": 85,
      "hit": false,
      "t": 192107.1748750011,
      "d": 66.32654166666907,
      "v": 42
    },
    {
      "midi": 84,
      "hit": false,
      "t": 192188.80754166777,
      "d": 25.51020833334769,
      "v": 54
    },
    {
      "midi": 82,
      "hit": false,
      "t": 192306.1545000011,
      "d": 107.14287499999045,
      "v": 32
    },
    {
      "midi": 80,
      "hit": false,
      "t": 192357.17491666778,
      "d": 91.83674999998766,
      "v": 46
    },
    {
      "midi": 78,
      "hit": false,
      "t": 192454.11370833442,
      "d": 45.91837500000838,
      "v": 38
    },
    {
      "midi": 76,
      "hit": false,
      "t": 192540.84841666775,
      "d": 45.91837500000838,
      "v": 37
    },
    {
      "midi": 75,
      "hit": false,
      "t": 192617.37904166777,
      "d": 86.73470833332976,
      "v": 49
    },
    {
      "midi": 73,
      "hit": false,
      "t": 192709.21579166775,
      "d": 51.02041666666628,
      "v": 25
    },
    {
      "midi": 72,
      "hit": false,
      "t": 192785.74641666777,
      "d": 61.224500000011176,
      "v": 42
    },
    {
      "midi": 58,
      "hit": false,
      "t": 192801.05254166777,
      "d": 377.55108333335374,
      "v": 36
    },
    {
      "midi": 61,
      "hit": false,
      "t": 192816.35866666777,
      "d": 132.65308333333815,
      "v": 15
    },
    {
      "midi": 52,
      "hit": false,
      "t": 192821.46070833443,
      "d": 397.95925000001444,
      "v": 26
    },
    {
      "midi": 70,
      "hit": false,
      "t": 192892.8892916678,
      "d": 122.44899999999325,
      "v": 34
    },
    {
      "midi": 68,
      "hit": false,
      "t": 192959.21583333446,
      "d": 76.53062499998487,
      "v": 38
    },
    {
      "midi": 66,
      "hit": false,
      "t": 193010.23625000112,
      "d": 81.63266666664276,
      "v": 47
    },
    {
      "midi": 64,
      "hit": false,
      "t": 193117.3791250011,
      "d": 66.32654166666907,
      "v": 51
    },
    {
      "midi": 62,
      "hit": false,
      "t": 193275.54241666777,
      "d": 86.73470833332976,
      "v": 50
    },
    {
      "midi": 61,
      "hit": false,
      "t": 193387.78733333445,
      "d": 56.122458333324175,
      "v": 45
    },
    {
      "midi": 60,
      "hit": false,
      "t": 193500.0322500011,
      "d": 219.3877916666679,
      "v": 33
    },
    {
      "midi": 48,
      "hit": false,
      "t": 193729.6241250011,
      "d": 61.22449999998207,
      "v": 22
    },
    {
      "midi": 57,
      "hit": false,
      "t": 193785.74658333443,
      "d": 132.65308333333815,
      "v": 41
    },
    {
      "midi": 48,
      "hit": false,
      "t": 193979.62416666778,
      "d": 71.42858333332697,
      "v": 22
    },
    {
      "midi": 57,
      "hit": false,
      "t": 193994.93029166778,
      "d": 35.714291666663485,
      "v": 46
    },
    {
      "midi": 48,
      "hit": false,
      "t": 194280.64462500112,
      "d": 40.81633333332138,
      "v": 56
    },
    {
      "midi": 41,
      "hit": false,
      "t": 194301.05279166778,
      "d": 35.714291666663485,
      "v": 36
    },
    {
      "midi": 48,
      "hit": false,
      "t": 194622.48141666778,
      "d": 35.714291666663485,
      "v": 41
    },
    {
      "midi": 60,
      "hit": false,
      "t": 194704.11408333445,
      "d": 107.14287499999045,
      "v": 87
    },
    {
      "midi": 62,
      "hit": false,
      "t": 194867.37941666777,
      "d": 81.63266666667187,
      "v": 49
    },
    {
      "midi": 60,
      "hit": false,
      "t": 194913.29779166778,
      "d": 102.04083333333256,
      "v": 44
    },
    {
      "midi": 57,
      "hit": false,
      "t": 195015.3386250011,
      "d": 96.93879166667466,
      "v": 34
    },
    {
      "midi": 57,
      "hit": false,
      "t": 195199.0121250011,
      "d": 76.53062500001397,
      "v": 62
    },
    {
      "midi": 41,
      "hit": false,
      "t": 195505.13462500114,
      "d": 35.714291666663485,
      "v": 69
    },
    {
      "midi": 60,
      "hit": false,
      "t": 195790.84895833448,
      "d": 30.612249999976484,
      "v": 80
    },
    {
      "midi": 69,
      "hit": false,
      "t": 195790.84895833448,
      "d": 66.32654166663997,
      "v": 73
    },
    {
      "midi": 64,
      "hit": false,
      "t": 195795.95100000114,
      "d": 30.612249999976484,
      "v": 72
    },
    {
      "midi": 57,
      "hit": false,
      "t": 195816.3591666678,
      "d": 30.612249999976484,
      "v": 45
    },
    {
      "midi": 64,
      "hit": false,
      "t": 196102.0735000011,
      "d": 71.42858333332697,
      "v": 72
    },
    {
      "midi": 69,
      "hit": false,
      "t": 196102.0735000011,
      "d": 81.63266666664276,
      "v": 71
    },
    {
      "midi": 60,
      "hit": false,
      "t": 196107.17554166776,
      "d": 51.02041666666628,
      "v": 74
    },
    {
      "midi": 57,
      "hit": false,
      "t": 196117.3796250011,
      "d": 61.22449999998207,
      "v": 58
    },
    {
      "midi": 55,
      "hit": false,
      "t": 196423.50212500108,
      "d": 76.53062500001397,
      "v": 64
    },
    {
      "midi": 69,
      "hit": false,
      "t": 196525.54295833444,
      "d": 265.3061666667054,
      "v": 75
    },
    {
      "midi": 60,
      "hit": false,
      "t": 196535.74704166778,
      "d": 193.87758333334932,
      "v": 71
    },
    {
      "midi": 64,
      "hit": false,
      "t": 196535.74704166778,
      "d": 255.1020833333605,
      "v": 64
    },
    {
      "midi": 57,
      "hit": false,
      "t": 196545.95112500113,
      "d": 301.0204583333398,
      "v": 57
    },
    {
      "midi": 60,
      "hit": false,
      "t": 196826.5634166678,
      "d": 66.32654166666907,
      "v": 55
    },
    {
      "midi": 53,
      "hit": false,
      "t": 196836.76750000115,
      "d": 290.8163749999949,
      "v": 52
    },
    {
      "midi": 65,
      "hit": false,
      "t": 196841.8695416678,
      "d": 56.122458333324175,
      "v": 58
    },
    {
      "midi": 57,
      "hit": false,
      "t": 197137.7879583345,
      "d": 127.55104166665114,
      "v": 66
    },
    {
      "midi": 69,
      "hit": false,
      "t": 197147.99204166784,
      "d": 86.73470833330066,
      "v": 72
    },
    {
      "midi": 60,
      "hit": false,
      "t": 197153.0940833345,
      "d": 45.91837499997928,
      "v": 71
    },
    {
      "midi": 65,
      "hit": false,
      "t": 197158.19612500115,
      "d": 40.81633333332138,
      "v": 49
    },
    {
      "midi": 64,
      "hit": false,
      "t": 197163.2981666678,
      "d": 35.714291666663485,
      "v": 43
    },
    {
      "midi": 57,
      "hit": false,
      "t": 197459.21658333446,
      "d": 433.6735416666779,
      "v": 73
    },
    {
      "midi": 69,
      "hit": false,
      "t": 197760.2370416678,
      "d": 158.16329166668584,
      "v": 110
    },
    {
      "midi": 74,
      "hit": false,
      "t": 197770.44112500115,
      "d": 255.1020833333605,
      "v": 87
    },
    {
      "midi": 70,
      "hit": false,
      "t": 197949.0125833345,
      "d": 142.85716666668304,
      "v": 74
    },
    {
      "midi": 74,
      "hit": false,
      "t": 198076.56362500117,
      "d": 193.87758333334932,
      "v": 25
    },
    {
      "midi": 69,
      "hit": false,
      "t": 198091.86975000118,
      "d": 163.26533333334373,
      "v": 46
    },
    {
      "midi": 65,
      "hit": false,
      "t": 198265.33916666787,
      "d": 71.42858333332697,
      "v": 35
    },
    {
      "midi": 57,
      "hit": false,
      "t": 198352.0738750012,
      "d": 326.53066666668747,
      "v": 51
    },
    {
      "midi": 47,
      "hit": false,
      "t": 198362.27795833454,
      "d": 321.42862500000047,
      "v": 38
    },
    {
      "midi": 69,
      "hit": false,
      "t": 198367.3800000012,
      "d": 275.5102499999921,
      "v": 53
    },
    {
      "midi": 74,
      "hit": false,
      "t": 198382.6861250012,
      "d": 285.714333333337,
      "v": 59
    },
    {
      "midi": 65,
      "hit": false,
      "t": 198688.8086250012,
      "d": 102.04083333333256,
      "v": 53
    },
    {
      "midi": 65,
      "hit": false,
      "t": 198872.4821250012,
      "d": 40.81633333332138,
      "v": 58
    },
    {
      "midi": 47,
      "hit": false,
      "t": 199163.2985000012,
      "d": 30.612250000005588,
      "v": 48
    },
    {
      "midi": 57,
      "hit": false,
      "t": 199183.70666666786,
      "d": 35.71429166669259,
      "v": 32
    },
    {
      "midi": 65,
      "hit": false,
      "t": 199596.97204166788,
      "d": 158.16329166665673,
      "v": 59
    },
    {
      "midi": 57,
      "hit": false,
      "t": 199607.17612500122,
      "d": 275.5102499999921,
      "v": 53
    },
    {
      "midi": 62,
      "hit": false,
      "t": 199612.27816666788,
      "d": 285.714333333337,
      "v": 51
    },
    {
      "midi": 81,
      "hit": false,
      "t": 199892.89045833456,
      "d": 158.16329166665673,
      "v": 83
    },
    {
      "midi": 80,
      "hit": false,
      "t": 200015.33945833455,
      "d": 81.63266666667187,
      "v": 53
    },
    {
      "midi": 79,
      "hit": false,
      "t": 200107.17620833457,
      "d": 40.81633333332138,
      "v": 52
    },
    {
      "midi": 78,
      "hit": false,
      "t": 200168.40070833455,
      "d": 51.02041666666628,
      "v": 45
    },
    {
      "midi": 77,
      "hit": false,
      "t": 200224.52316666787,
      "d": 117.34695833333535,
      "v": 56
    },
    {
      "midi": 81,
      "hit": false,
      "t": 200408.19666666788,
      "d": 173.46941666665953,
      "v": 89
    },
    {
      "midi": 62,
      "hit": false,
      "t": 200428.60483333454,
      "d": 51.02041666666628,
      "v": 31
    },
    {
      "midi": 80,
      "hit": false,
      "t": 200551.05383333453,
      "d": 45.91837500000838,
      "v": 56
    },
    {
      "midi": 79,
      "hit": false,
      "t": 200596.97220833454,
      "d": 86.73470833332976,
      "v": 45
    },
    {
      "midi": 78,
      "hit": false,
      "t": 200688.80895833453,
      "d": 35.714291666663485,
      "v": 45
    },
    {
      "midi": 77,
      "hit": false,
      "t": 200734.72733333454,
      "d": 81.63266666667187,
      "v": 53
    },
    {
      "midi": 81,
      "hit": false,
      "t": 200836.76816666787,
      "d": 173.46941666663042,
      "v": 83
    },
    {
      "midi": 65,
      "hit": false,
      "t": 200852.07429166787,
      "d": 45.91837499997928,
      "v": 70
    },
    {
      "midi": 62,
      "hit": false,
      "t": 200857.17633333453,
      "d": 61.22449999998207,
      "v": 57
    },
    {
      "midi": 56,
      "hit": false,
      "t": 200877.5845000012,
      "d": 61.22449999998207,
      "v": 31
    },
    {
      "midi": 80,
      "hit": false,
      "t": 200994.9314583345,
      "d": 66.32654166666907,
      "v": 56
    },
    {
      "midi": 79,
      "hit": false,
      "t": 201076.56412500117,
      "d": 35.714291666663485,
      "v": 48
    },
    {
      "midi": 78,
      "hit": false,
      "t": 201117.3804583345,
      "d": 51.02041666666628,
      "v": 51
    },
    {
      "midi": 77,
      "hit": false,
      "t": 201168.40087500116,
      "d": 112.24491666667745,
      "v": 53
    },
    {
      "midi": 65,
      "hit": false,
      "t": 201627.58462500115,
      "d": 51.02041666666628,
      "v": 58
    },
    {
      "midi": 56,
      "hit": false,
      "t": 201627.58462500115,
      "d": 76.53062500001397,
      "v": 50
    },
    {
      "midi": 62,
      "hit": false,
      "t": 201637.7887083345,
      "d": 40.81633333332138,
      "v": 54
    },
    {
      "midi": 56,
      "hit": false,
      "t": 202035.7479583345,
      "d": 336.73474999997416,
      "v": 56
    },
    {
      "midi": 65,
      "hit": false,
      "t": 202040.85000000117,
      "d": 280.61229166665,
      "v": 51
    },
    {
      "midi": 62,
      "hit": false,
      "t": 202045.95204166783,
      "d": 357.14291666666395,
      "v": 50
    },
    {
      "midi": 76,
      "hit": false,
      "t": 202362.27862500114,
      "d": 96.93879166667466,
      "v": 58
    },
    {
      "midi": 80,
      "hit": false,
      "t": 202525.54395833449,
      "d": 102.04083333333256,
      "v": 55
    },
    {
      "midi": 62,
      "hit": false,
      "t": 202535.74804166783,
      "d": 107.14287499999045,
      "v": 39
    },
    {
      "midi": 83,
      "hit": false,
      "t": 202714.31950000115,
      "d": 25.51020833334769,
      "v": 74
    },
    {
      "midi": 86,
      "hit": false,
      "t": 202811.25829166782,
      "d": 61.224500000011176,
      "v": 84
    },
    {
      "midi": 74,
      "hit": false,
      "t": 202816.36033333448,
      "d": 71.42858333335607,
      "v": 82
    },
    {
      "midi": 62,
      "hit": false,
      "t": 202826.56441666782,
      "d": 102.04083333333256,
      "v": 68
    },
    {
      "midi": 56,
      "hit": false,
      "t": 202826.56441666782,
      "d": 219.3877916666388,
      "v": 57
    },
    {
      "midi": 65,
      "hit": false,
      "t": 202836.76850000117,
      "d": 56.122458333324175,
      "v": 64
    },
    {
      "midi": 74,
      "hit": false,
      "t": 202959.21750000116,
      "d": 102.04083333330345,
      "v": 51
    },
    {
      "midi": 86,
      "hit": false,
      "t": 202964.31954166782,
      "d": 81.63266666664276,
      "v": 71
    },
    {
      "midi": 84,
      "hit": false,
      "t": 203000.03383333448,
      "d": 40.81633333332138,
      "v": 30
    },
    {
      "midi": 86,
      "hit": false,
      "t": 203122.48283333448,
      "d": 86.73470833335887,
      "v": 68
    },
    {
      "midi": 74,
      "hit": false,
      "t": 203132.68691666782,
      "d": 76.53062500001397,
      "v": 63
    },
    {
      "midi": 64,
      "hit": false,
      "t": 203250.03387500116,
      "d": 367.34700000000885,
      "v": 42
    },
    {
      "midi": 59,
      "hit": false,
      "t": 203260.2379583345,
      "d": 362.24495833332185,
      "v": 44
    },
    {
      "midi": 60,
      "hit": false,
      "t": 203265.34000000116,
      "d": 377.55108333332464,
      "v": 51
    },
    {
      "midi": 57,
      "hit": false,
      "t": 203265.34000000116,
      "d": 403.06129166667233,
      "v": 32
    },
    {
      "midi": 86,
      "hit": false,
      "t": 203270.44204166782,
      "d": 183.67350000000442,
      "v": 77
    },
    {
      "midi": 74,
      "hit": false,
      "t": 203275.54408333448,
      "d": 229.5918750000128,
      "v": 47
    },
    {
      "midi": 84,
      "hit": false,
      "t": 203576.56454166782,
      "d": 112.24491666667745,
      "v": 62
    },
    {
      "midi": 72,
      "hit": false,
      "t": 203586.76862500116,
      "d": 102.04083333333256,
      "v": 45
    },
    {
      "midi": 84,
      "hit": false,
      "t": 203867.38091666784,
      "d": 132.65308333336725,
      "v": 68
    },
    {
      "midi": 64,
      "hit": false,
      "t": 203877.58500000119,
      "d": 275.5102500000212,
      "v": 38
    },
    {
      "midi": 72,
      "hit": false,
      "t": 203882.68704166784,
      "d": 173.46941666668863,
      "v": 48
    },
    {
      "midi": 60,
      "hit": false,
      "t": 203892.8911250012,
      "d": 285.714333333337,
      "v": 46
    },
    {
      "midi": 57,
      "hit": false,
      "t": 203892.8911250012,
      "d": 341.83679166666116,
      "v": 41
    },
    {
      "midi": 59,
      "hit": false,
      "t": 203903.09520833453,
      "d": 234.6939166666707,
      "v": 34
    },
    {
      "midi": 83,
      "hit": false,
      "t": 204168.4013750012,
      "d": 96.93879166664556,
      "v": 52
    },
    {
      "midi": 71,
      "hit": false,
      "t": 204173.50341666787,
      "d": 76.53062499998487,
      "v": 48
    },
    {
      "midi": 72,
      "hit": false,
      "t": 204377.58508333453,
      "d": 56.12245833329507,
      "v": 46
    },
    {
      "midi": 84,
      "hit": false,
      "t": 204382.6871250012,
      "d": 40.81633333332138,
      "v": 50
    },
    {
      "midi": 64,
      "hit": false,
      "t": 204413.2993750012,
      "d": 86.73470833330066,
      "v": 29
    },
    {
      "midi": 55,
      "hit": false,
      "t": 204418.40141666785,
      "d": 81.63266666664276,
      "v": 51
    },
    {
      "midi": 60,
      "hit": false,
      "t": 204428.60550000117,
      "d": 66.32654166666907,
      "v": 36
    },
    {
      "midi": 57,
      "hit": false,
      "t": 204433.70754166783,
      "d": 102.04083333333256,
      "v": 31
    },
    {
      "midi": 64,
      "hit": false,
      "t": 204795.95250000115,
      "d": 86.73470833330066,
      "v": 42
    },
    {
      "midi": 60,
      "hit": false,
      "t": 204801.0545416678,
      "d": 96.93879166664556,
      "v": 44
    },
    {
      "midi": 55,
      "hit": false,
      "t": 204806.15658333446,
      "d": 71.42858333332697,
      "v": 44
    },
    {
      "midi": 57,
      "hit": false,
      "t": 204811.25862500112,
      "d": 107.14287499999045,
      "v": 41
    },
    {
      "midi": 55,
      "hit": false,
      "t": 205260.23829166777,
      "d": 117.34695833333535,
      "v": 57
    },
    {
      "midi": 64,
      "hit": false,
      "t": 205280.64645833444,
      "d": 91.83675000001676,
      "v": 44
    },
    {
      "midi": 60,
      "hit": false,
      "t": 205290.85054166778,
      "d": 71.42858333332697,
      "v": 40
    },
    {
      "midi": 57,
      "hit": false,
      "t": 205290.85054166778,
      "d": 81.63266666667187,
      "v": 37
    },
    {
      "midi": 64,
      "hit": false,
      "t": 205688.80979166777,
      "d": 285.714333333337,
      "v": 35
    },
    {
      "midi": 60,
      "hit": false,
      "t": 205699.0138750011,
      "d": 301.0204583333398,
      "v": 44
    },
    {
      "midi": 57,
      "hit": false,
      "t": 205699.0138750011,
      "d": 326.53066666668747,
      "v": 42
    },
    {
      "midi": 53,
      "hit": false,
      "t": 205699.0138750011,
      "d": 341.83679166669026,
      "v": 27
    },
    {
      "midi": 60,
      "hit": false,
      "t": 206204.11600000114,
      "d": 45.91837499997928,
      "v": 52
    },
    {
      "midi": 57,
      "hit": false,
      "t": 206209.2180416678,
      "d": 76.53062499998487,
      "v": 40
    },
    {
      "midi": 76,
      "hit": false,
      "t": 206331.6670416678,
      "d": 132.65308333333815,
      "v": 68
    },
    {
      "midi": 69,
      "hit": false,
      "t": 206341.87112500114,
      "d": 112.24491666664835,
      "v": 70
    },
    {
      "midi": 64,
      "hit": false,
      "t": 206346.9731666678,
      "d": 66.32654166666907,
      "v": 71
    },
    {
      "midi": 72,
      "hit": false,
      "t": 206346.9731666678,
      "d": 117.34695833333535,
      "v": 55
    },
    {
      "midi": 76,
      "hit": false,
      "t": 206510.23850000114,
      "d": 66.32654166672728,
      "v": 42
    },
    {
      "midi": 64,
      "hit": false,
      "t": 206520.4425833345,
      "d": 30.61225000003469,
      "v": 52
    },
    {
      "midi": 69,
      "hit": false,
      "t": 206530.64666666783,
      "d": 35.71429166669259,
      "v": 51
    },
    {
      "midi": 72,
      "hit": false,
      "t": 206540.85075000118,
      "d": 40.816333333350485,
      "v": 35
    },
    {
      "midi": 65,
      "hit": false,
      "t": 206632.6875000012,
      "d": 96.93879166664556,
      "v": 65
    },
    {
      "midi": 77,
      "hit": false,
      "t": 206637.78954166785,
      "d": 117.34695833333535,
      "v": 63
    },
    {
      "midi": 77,
      "hit": false,
      "t": 206816.3610000012,
      "d": 71.42858333332697,
      "v": 53
    },
    {
      "midi": 53,
      "hit": false,
      "t": 206862.2793750012,
      "d": 91.83674999998766,
      "v": 39
    },
    {
      "midi": 60,
      "hit": false,
      "t": 206867.38141666786,
      "d": 51.02041666666628,
      "v": 48
    },
    {
      "midi": 57,
      "hit": false,
      "t": 206882.68754166787,
      "d": 112.24491666664835,
      "v": 42
    },
    {
      "midi": 69,
      "hit": false,
      "t": 206949.01408333454,
      "d": 96.93879166664556,
      "v": 74
    },
    {
      "midi": 81,
      "hit": false,
      "t": 206949.01408333454,
      "d": 137.75512499996694,
      "v": 70
    },
    {
      "midi": 57,
      "hit": false,
      "t": 207199.01412500118,
      "d": 61.224500000011176,
      "v": 41
    },
    {
      "midi": 72,
      "hit": false,
      "t": 207280.64679166785,
      "d": 61.224500000011176,
      "v": 62
    },
    {
      "midi": 84,
      "hit": false,
      "t": 207280.64679166785,
      "d": 71.42858333335607,
      "v": 73
    },
    {
      "midi": 64,
      "hit": false,
      "t": 207744.93258333454,
      "d": 51.020416666637175,
      "v": 66
    },
    {
      "midi": 60,
      "hit": false,
      "t": 207765.3407500012,
      "d": 35.71429166663438,
      "v": 54
    },
    {
      "midi": 53,
      "hit": false,
      "t": 207765.3407500012,
      "d": 56.12245833329507,
      "v": 33
    },
    {
      "midi": 57,
      "hit": false,
      "t": 207770.44279166785,
      "d": 51.020416666637175,
      "v": 40
    },
    {
      "midi": 88,
      "hit": false,
      "t": 207770.44279166785,
      "d": 198.9796249999781,
      "v": 82
    },
    {
      "midi": 82,
      "hit": false,
      "t": 207775.5448333345,
      "d": 81.63266666664276,
      "v": 71
    },
    {
      "midi": 76,
      "hit": false,
      "t": 207775.5448333345,
      "d": 188.77554166666232,
      "v": 79
    },
    {
      "midi": 85,
      "hit": false,
      "t": 207790.85095833451,
      "d": 30.612249999976484,
      "v": 32
    },
    {
      "midi": 83,
      "hit": false,
      "t": 207882.6877083345,
      "d": 91.83674999998766,
      "v": 30
    },
    {
      "midi": 60,
      "hit": false,
      "t": 208163.30000000115,
      "d": 56.122458333324175,
      "v": 58
    },
    {
      "midi": 57,
      "hit": false,
      "t": 208173.5040833345,
      "d": 61.22449999998207,
      "v": 43
    },
    {
      "midi": 50,
      "hit": false,
      "t": 208178.60612500116,
      "d": 61.22449999998207,
      "v": 25
    },
    {
      "midi": 88,
      "hit": false,
      "t": 208178.60612500116,
      "d": 239.7959583332995,
      "v": 78
    },
    {
      "midi": 53,
      "hit": false,
      "t": 208183.7081666678,
      "d": 214.2857499999809,
      "v": 50
    },
    {
      "midi": 83,
      "hit": false,
      "t": 208188.81020833447,
      "d": 229.5918749999837,
      "v": 67
    },
    {
      "midi": 76,
      "hit": false,
      "t": 208188.81020833447,
      "d": 250.0000416666444,
      "v": 64
    },
    {
      "midi": 60,
      "hit": false,
      "t": 208637.78987500112,
      "d": 30.612250000005588,
      "v": 58
    },
    {
      "midi": 83,
      "hit": false,
      "t": 208647.99395833447,
      "d": 91.83674999998766,
      "v": 54
    },
    {
      "midi": 71,
      "hit": false,
      "t": 208653.09600000113,
      "d": 40.816333333350485,
      "v": 66
    },
    {
      "midi": 57,
      "hit": false,
      "t": 208658.19804166778,
      "d": 40.816333333350485,
      "v": 36
    },
    {
      "midi": 74,
      "hit": false,
      "t": 209056.1572916678,
      "d": 1413.265541666624,
      "v": 71
    },
    {
      "midi": 86,
      "hit": false,
      "t": 209061.25933333446,
      "d": 1362.2451249999867,
      "v": 79
    },
    {
      "midi": 60,
      "hit": false,
      "t": 209066.3613750011,
      "d": 66.32654166663997,
      "v": 56
    },
    {
      "midi": 81,
      "hit": false,
      "t": 209066.3613750011,
      "d": 1392.8573749999923,
      "v": 58
    },
    {
      "midi": 57,
      "hit": false,
      "t": 209071.46341666777,
      "d": 107.14287499999045,
      "v": 46
    },
    {
      "midi": 53,
      "hit": false,
      "t": 209091.87158333443,
      "d": 96.93879166667466,
      "v": 25
    },
    {
      "midi": 57,
      "hit": false,
      "t": 209540.8512500011,
      "d": 35.714291666663485,
      "v": 64
    },
    {
      "midi": 48,
      "hit": false,
      "t": 209545.95329166777,
      "d": 40.816333333350485,
      "v": 60
    },
    {
      "midi": 57,
      "hit": false,
      "t": 209989.8309166678,
      "d": 40.81633333332138,
      "v": 69
    },
    {
      "midi": 48,
      "hit": false,
      "t": 209989.8309166678,
      "d": 76.53062499998487,
      "v": 63
    },
    {
      "midi": 47,
      "hit": false,
      "t": 210454.11670833445,
      "d": 387.75516666661133,
      "v": 53
    },
    {
      "midi": 55,
      "hit": false,
      "t": 210464.32079166776,
      "d": 219.3877916666679,
      "v": 36
    },
    {
      "midi": 55,
      "hit": false,
      "t": 210750.0351250011,
      "d": 40.81633333332138,
      "v": 25
    },
    {
      "midi": 53,
      "hit": false,
      "t": 210795.95350000108,
      "d": 40.81633333332138,
      "v": 61
    },
    {
      "midi": 78,
      "hit": false,
      "t": 210887.79025000107,
      "d": 244.8980000000156,
      "v": 64
    },
    {
      "midi": 73,
      "hit": false,
      "t": 210897.9943333344,
      "d": 214.28575000001,
      "v": 57
    },
    {
      "midi": 66,
      "hit": false,
      "t": 210897.9943333344,
      "d": 219.3877916666679,
      "v": 78
    },
    {
      "midi": 67,
      "hit": false,
      "t": 211209.2188750011,
      "d": 66.32654166663997,
      "v": 68
    },
    {
      "midi": 79,
      "hit": false,
      "t": 211209.2188750011,
      "d": 102.04083333330345,
      "v": 57
    },
    {
      "midi": 74,
      "hit": false,
      "t": 211214.32091666776,
      "d": 91.83674999998766,
      "v": 66
    },
    {
      "midi": 77,
      "hit": false,
      "t": 211234.72908333442,
      "d": 66.32654166666907,
      "v": 32
    },
    {
      "midi": 59,
      "hit": false,
      "t": 211413.30054166773,
      "d": 61.224500000011176,
      "v": 58
    },
    {
      "midi": 55,
      "hit": false,
      "t": 211428.60666666774,
      "d": 35.714291666663485,
      "v": 57
    },
    {
      "midi": 82,
      "hit": false,
      "t": 211500.0352500011,
      "d": 265.3061666666763,
      "v": 72
    },
    {
      "midi": 75,
      "hit": false,
      "t": 211510.23933333444,
      "d": 204.08166666666511,
      "v": 67
    },
    {
      "midi": 70,
      "hit": false,
      "t": 211510.23933333444,
      "d": 250.0000416666735,
      "v": 72
    },
    {
      "midi": 59,
      "hit": false,
      "t": 211699.0148750011,
      "d": 66.32654166666907,
      "v": 29
    },
    {
      "midi": 71,
      "hit": false,
      "t": 211826.56591666778,
      "d": 81.63266666667187,
      "v": 65
    },
    {
      "midi": 83,
      "hit": false,
      "t": 211826.56591666778,
      "d": 132.65308333333815,
      "v": 50
    },
    {
      "midi": 76,
      "hit": false,
      "t": 211831.66795833444,
      "d": 96.93879166667466,
      "v": 64
    },
    {
      "midi": 79,
      "hit": false,
      "t": 211841.87204166778,
      "d": 81.63266666667187,
      "v": 46
    },
    {
      "midi": 81,
      "hit": false,
      "t": 211852.07612500113,
      "d": 61.22449999998207,
      "v": 35
    },
    {
      "midi": 62,
      "hit": false,
      "t": 212020.44350000113,
      "d": 40.816333333350485,
      "v": 34
    },
    {
      "midi": 59,
      "hit": false,
      "t": 212030.64758333447,
      "d": 61.224500000011176,
      "v": 44
    },
    {
      "midi": 55,
      "hit": false,
      "t": 212045.95370833448,
      "d": 76.53062500001397,
      "v": 49
    },
    {
      "midi": 85,
      "hit": false,
      "t": 212127.58637500115,
      "d": 229.5918749999837,
      "v": 75
    },
    {
      "midi": 73,
      "hit": false,
      "t": 212132.6884166678,
      "d": 219.3877916666679,
      "v": 56
    },
    {
      "midi": 80,
      "hit": false,
      "t": 212168.40270833447,
      "d": 30.612250000005588,
      "v": 25
    },
    {
      "midi": 59,
      "hit": false,
      "t": 212311.25987500115,
      "d": 66.32654166663997,
      "v": 40
    },
    {
      "midi": 86,
      "hit": false,
      "t": 212438.8109166678,
      "d": 132.65308333333815,
      "v": 68
    },
    {
      "midi": 74,
      "hit": false,
      "t": 212443.91295833446,
      "d": 76.53062500001397,
      "v": 68
    },
    {
      "midi": 81,
      "hit": false,
      "t": 212454.1170416678,
      "d": 102.04083333333256,
      "v": 63
    },
    {
      "midi": 84,
      "hit": false,
      "t": 212459.21908333446,
      "d": 35.714291666663485,
      "v": 45
    },
    {
      "midi": 62,
      "hit": false,
      "t": 212622.4844166678,
      "d": 25.51020833334769,
      "v": 69
    },
    {
      "midi": 59,
      "hit": false,
      "t": 212627.58645833447,
      "d": 51.02041666669538,
      "v": 58
    },
    {
      "midi": 56,
      "hit": false,
      "t": 212637.7905416678,
      "d": 35.71429166669259,
      "v": 27
    },
    {
      "midi": 53,
      "hit": false,
      "t": 212637.7905416678,
      "d": 40.816333333350485,
      "v": 40
    },
    {
      "midi": 77,
      "hit": false,
      "t": 212734.7293333345,
      "d": 224.4898333333549,
      "v": 89
    },
    {
      "midi": 89,
      "hit": false,
      "t": 212739.83137500114,
      "d": 234.6939166666998,
      "v": 82
    },
    {
      "midi": 85,
      "hit": false,
      "t": 212739.83137500114,
      "d": 250.0000416667026,
      "v": 85
    },
    {
      "midi": 88,
      "hit": false,
      "t": 212765.3415833345,
      "d": 30.612250000005588,
      "v": 44
    },
    {
      "midi": 59,
      "hit": false,
      "t": 212969.4232500012,
      "d": 40.81633333332138,
      "v": 30
    },
    {
      "midi": 89,
      "hit": false,
      "t": 213051.05591666783,
      "d": 198.97962500000722,
      "v": 51
    },
    {
      "midi": 77,
      "hit": false,
      "t": 213066.36204166783,
      "d": 183.67350000000442,
      "v": 66
    },
    {
      "midi": 86,
      "hit": false,
      "t": 213086.7702083345,
      "d": 35.714291666663485,
      "v": 52
    },
    {
      "midi": 62,
      "hit": false,
      "t": 213326.56616666785,
      "d": 158.16329166662763,
      "v": 47
    },
    {
      "midi": 56,
      "hit": false,
      "t": 213346.9743333345,
      "d": 163.26533333331463,
      "v": 31
    },
    {
      "midi": 89,
      "hit": false,
      "t": 213352.07637500117,
      "d": 142.85716666665394,
      "v": 46
    },
    {
      "midi": 77,
      "hit": false,
      "t": 213357.17841666783,
      "d": 127.55104166665114,
      "v": 54
    },
    {
      "midi": 59,
      "hit": false,
      "t": 213362.28045833448,
      "d": 117.34695833333535,
      "v": 41
    },
    {
      "midi": 86,
      "hit": false,
      "t": 213372.48454166783,
      "d": 96.93879166664556,
      "v": 57
    },
    {
      "midi": 53,
      "hit": false,
      "t": 213377.5865833345,
      "d": 122.44899999999325,
      "v": 26
    },
    {
      "midi": 89,
      "hit": false,
      "t": 213683.70908333448,
      "d": 137.75512499999604,
      "v": 69
    },
    {
      "midi": 86,
      "hit": false,
      "t": 213693.91316666783,
      "d": 91.83674999998766,
      "v": 71
    },
    {
      "midi": 77,
      "hit": false,
      "t": 213693.91316666783,
      "d": 137.75512499999604,
      "v": 68
    },
    {
      "midi": 64,
      "hit": false,
      "t": 213969.42341666782,
      "d": 102.04083333336166,
      "v": 33
    },
    {
      "midi": 55,
      "hit": false,
      "t": 213969.42341666782,
      "d": 107.14287500001956,
      "v": 42
    },
    {
      "midi": 88,
      "hit": false,
      "t": 213979.62750000117,
      "d": 122.44900000002235,
      "v": 53
    },
    {
      "midi": 84,
      "hit": false,
      "t": 213989.8315833345,
      "d": 81.63266666667187,
      "v": 54
    },
    {
      "midi": 76,
      "hit": false,
      "t": 213994.93362500117,
      "d": 71.42858333335607,
      "v": 45
    },
    {
      "midi": 60,
      "hit": false,
      "t": 214005.1377083345,
      "d": 56.12245833335328,
      "v": 26
    },
    {
      "midi": 57,
      "hit": false,
      "t": 214030.64791666786,
      "d": 40.81633333332138,
      "v": 19
    },
    {
      "midi": 88,
      "hit": false,
      "t": 214290.85204166785,
      "d": 183.67349999997532,
      "v": 58
    },
    {
      "midi": 55,
      "hit": false,
      "t": 214290.85204166785,
      "d": 576.5307083333028,
      "v": 36
    },
    {
      "midi": 64,
      "hit": false,
      "t": 214295.9540833345,
      "d": 489.795999999973,
      "v": 24
    },
    {
      "midi": 57,
      "hit": false,
      "t": 214295.9540833345,
      "d": 586.7347916666477,
      "v": 36
    },
    {
      "midi": 76,
      "hit": false,
      "t": 214306.15816666785,
      "d": 96.93879166664556,
      "v": 51
    },
    {
      "midi": 60,
      "hit": false,
      "t": 214306.15816666785,
      "d": 311.22454166662646,
      "v": 38
    },
    {
      "midi": 84,
      "hit": false,
      "t": 214311.2602083345,
      "d": 122.44899999999325,
      "v": 50
    },
    {
      "midi": 60,
      "hit": false,
      "t": 214744.93375000116,
      "d": 132.65308333333815,
      "v": 51
    },
    {
      "midi": 94,
      "hit": false,
      "t": 214897.99500000116,
      "d": 30.612250000005588,
      "v": 50
    },
    {
      "midi": 96,
      "hit": false,
      "t": 214989.83175000118,
      "d": 102.04083333330345,
      "v": 57
    },
    {
      "midi": 94,
      "hit": false,
      "t": 215045.9542083345,
      "d": 158.16329166665673,
      "v": 57
    },
    {
      "midi": 92,
      "hit": false,
      "t": 215086.77054166782,
      "d": 127.55104166668025,
      "v": 53
    },
    {
      "midi": 90,
      "hit": false,
      "t": 215173.50525000115,
      "d": 81.63266666667187,
      "v": 52
    },
    {
      "midi": 88,
      "hit": false,
      "t": 215270.44404166783,
      "d": 40.81633333332138,
      "v": 53
    },
    {
      "midi": 87,
      "hit": false,
      "t": 215377.58691666782,
      "d": 86.73470833335887,
      "v": 42
    },
    {
      "midi": 85,
      "hit": false,
      "t": 215454.11754166783,
      "d": 56.12245833335328,
      "v": 48
    },
    {
      "midi": 84,
      "hit": false,
      "t": 215540.8522500012,
      "d": 35.714291666663485,
      "v": 36
    },
    {
      "midi": 82,
      "hit": false,
      "t": 215632.68900000118,
      "d": 96.93879166667466,
      "v": 32
    },
    {
      "midi": 80,
      "hit": false,
      "t": 215709.2196250012,
      "d": 40.816333333350485,
      "v": 27
    },
    {
      "midi": 78,
      "hit": false,
      "t": 215739.8318750012,
      "d": 71.42858333335607,
      "v": 44
    },
    {
      "midi": 75,
      "hit": false,
      "t": 215908.19925000123,
      "d": 86.73470833332976,
      "v": 56
    },
    {
      "midi": 73,
      "hit": false,
      "t": 215989.8319166679,
      "d": 61.22449999998207,
      "v": 35
    },
    {
      "midi": 70,
      "hit": false,
      "t": 216163.30133333456,
      "d": 117.34695833333535,
      "v": 36
    },
    {
      "midi": 68,
      "hit": false,
      "t": 216229.62787500123,
      "d": 76.53062500001397,
      "v": 32
    },
    {
      "midi": 66,
      "hit": false,
      "t": 216275.54625000124,
      "d": 86.73470833332976,
      "v": 52
    },
    {
      "midi": 64,
      "hit": false,
      "t": 216392.89320833457,
      "d": 71.42858333332697,
      "v": 44
    },
    {
      "midi": 63,
      "hit": false,
      "t": 216500.03608333456,
      "d": 66.32654166666907,
      "v": 29
    },
    {
      "midi": 61,
      "hit": false,
      "t": 216556.1585416679,
      "d": 61.224500000011176,
      "v": 50
    },
    {
      "midi": 60,
      "hit": false,
      "t": 216678.6075416679,
      "d": 30.612250000005588,
      "v": 50
    },
    {
      "midi": 58,
      "hit": false,
      "t": 216852.07695833457,
      "d": 76.53062500001397,
      "v": 74
    },
    {
      "midi": 56,
      "hit": false,
      "t": 216984.7300416679,
      "d": 71.42858333332697,
      "v": 70
    },
    {
      "midi": 54,
      "hit": false,
      "t": 217117.38312500124,
      "d": 102.04083333333256,
      "v": 57
    },
    {
      "midi": 52,
      "hit": false,
      "t": 217234.73008333458,
      "d": 76.53062500001397,
      "v": 55
    },
    {
      "midi": 51,
      "hit": false,
      "t": 217336.77091666794,
      "d": 96.93879166667466,
      "v": 51
    },
    {
      "midi": 49,
      "hit": false,
      "t": 217423.50562500127,
      "d": 71.42858333335607,
      "v": 54
    },
    {
      "midi": 47,
      "hit": false,
      "t": 217520.44441666798,
      "d": 45.91837500000838,
      "v": 36
    },
    {
      "midi": 48,
      "hit": false,
      "t": 217535.75054166798,
      "d": 40.816333333350485,
      "v": 36
    },
    {
      "midi": 47,
      "hit": false,
      "t": 217699.01587500132,
      "d": 66.32654166666907,
      "v": 15
    },
    {
      "midi": 36,
      "hit": false,
      "t": 217795.954666668,
      "d": 91.83675000001676,
      "v": 52
    },
    {
      "midi": 45,
      "hit": false,
      "t": 217811.260791668,
      "d": 76.53062500001397,
      "v": 32
    },
    {
      "midi": 29,
      "hit": false,
      "t": 217897.99550000136,
      "d": 178.57145833334653,
      "v": 50
    },
    {
      "midi": 41,
      "hit": false,
      "t": 217908.1995833347,
      "d": 142.85716666665394,
      "v": 68
    },
    {
      "midi": 67,
      "hit": false,
      "t": 218770.44462500137,
      "d": 35.714291666663485,
      "v": 73
    },
    {
      "midi": 72,
      "hit": false,
      "t": 218770.44462500137,
      "d": 35.714291666663485,
      "v": 60
    },
    {
      "midi": 79,
      "hit": false,
      "t": 218770.44462500137,
      "d": 66.32654166666907,
      "v": 62
    },
    {
      "midi": 76,
      "hit": false,
      "t": 218775.54666666803,
      "d": 45.91837500000838,
      "v": 63
    },
    {
      "midi": 64,
      "hit": false,
      "t": 218806.15891666804,
      "d": 30.612250000005588,
      "v": 48
    },
    {
      "midi": 60,
      "hit": false,
      "t": 218811.2609583347,
      "d": 35.71429166669259,
      "v": 44
    },
    {
      "midi": 64,
      "hit": false,
      "t": 219188.81204166805,
      "d": 403.0612916666141,
      "v": 43
    },
    {
      "midi": 79,
      "hit": false,
      "t": 219193.9140833347,
      "d": 387.75516666664043,
      "v": 59
    },
    {
      "midi": 53,
      "hit": false,
      "t": 219199.01612500136,
      "d": 836.7348333333503,
      "v": 29
    },
    {
      "midi": 67,
      "hit": false,
      "t": 219204.11816666802,
      "d": 316.32658333331347,
      "v": 51
    },
    {
      "midi": 76,
      "hit": false,
      "t": 219204.11816666802,
      "d": 382.65312499998254,
      "v": 37
    },
    {
      "midi": 60,
      "hit": false,
      "t": 219209.22020833468,
      "d": 357.14291666666395,
      "v": 44
    },
    {
      "midi": 57,
      "hit": false,
      "t": 219209.22020833468,
      "d": 428.5714999999909,
      "v": 36
    },
    {
      "midi": 72,
      "hit": false,
      "t": 219214.32225000134,
      "d": 372.44904166666674,
      "v": 32
    },
    {
      "midi": 72,
      "hit": false,
      "t": 219668.40395833467,
      "d": 214.28575000003912,
      "v": 80
    },
    {
      "midi": 64,
      "hit": false,
      "t": 219699.01620833468,
      "d": 61.224500000011176,
      "v": 26
    },
    {
      "midi": 60,
      "hit": false,
      "t": 219709.22029166803,
      "d": 66.32654166666907,
      "v": 36
    },
    {
      "midi": 57,
      "hit": false,
      "t": 219750.03662500135,
      "d": 86.73470833335887,
      "v": 16
    },
    {
      "midi": 74,
      "hit": false,
      "t": 219918.40400000138,
      "d": 96.93879166667466,
      "v": 48
    },
    {
      "midi": 72,
      "hit": false,
      "t": 219964.3223750014,
      "d": 76.53062499998487,
      "v": 38
    },
    {
      "midi": 57,
      "hit": false,
      "t": 219979.6285000014,
      "d": 91.83674999998766,
      "v": 37
    },
    {
      "midi": 60,
      "hit": false,
      "t": 219984.73054166805,
      "d": 51.02041666666628,
      "v": 20
    },
    {
      "midi": 71,
      "hit": false,
      "t": 220030.64891666805,
      "d": 56.122458333324175,
      "v": 71
    },
    {
      "midi": 72,
      "hit": false,
      "t": 220112.28158333473,
      "d": 153.06124999999884,
      "v": 69
    },
    {
      "midi": 74,
      "hit": false,
      "t": 220280.64895833473,
      "d": 81.63266666664276,
      "v": 57
    },
    {
      "midi": 72,
      "hit": false,
      "t": 220321.46529166805,
      "d": 107.14287499999045,
      "v": 44
    },
    {
      "midi": 62,
      "hit": false,
      "t": 220341.8734583347,
      "d": 122.44899999999325,
      "v": 40
    },
    {
      "midi": 71,
      "hit": false,
      "t": 220403.0979583347,
      "d": 127.55104166668025,
      "v": 42
    },
    {
      "midi": 72,
      "hit": false,
      "t": 220591.87350000138,
      "d": 91.83674999998766,
      "v": 74
    },
    {
      "midi": 74,
      "hit": false,
      "t": 220719.42454166804,
      "d": 81.63266666667187,
      "v": 60
    },
    {
      "midi": 74,
      "hit": false,
      "t": 220887.79191666804,
      "d": 71.42858333332697,
      "v": 73
    },
    {
      "midi": 67,
      "hit": false,
      "t": 221000.03683333469,
      "d": 239.7959583333577,
      "v": 33
    },
    {
      "midi": 56,
      "hit": false,
      "t": 221000.03683333469,
      "d": 306.1225000000268,
      "v": 21
    },
    {
      "midi": 62,
      "hit": false,
      "t": 221010.24091666803,
      "d": 321.42862500002957,
      "v": 35
    },
    {
      "midi": 75,
      "hit": false,
      "t": 221020.44500000137,
      "d": 86.73470833332976,
      "v": 46
    },
    {
      "midi": 74,
      "hit": false,
      "t": 221025.54704166803,
      "d": 117.34695833333535,
      "v": 20
    },
    {
      "midi": 76,
      "hit": false,
      "t": 221112.28175000136,
      "d": 137.75512500002515,
      "v": 50
    },
    {
      "midi": 67,
      "hit": false,
      "t": 221622.48591666805,
      "d": 91.83675000001676,
      "v": 40
    },
    {
      "midi": 56,
      "hit": false,
      "t": 221632.6900000014,
      "d": 122.44899999999325,
      "v": 25
    },
    {
      "midi": 62,
      "hit": false,
      "t": 221632.6900000014,
      "d": 290.8163749999949,
      "v": 36
    },
    {
      "midi": 56,
      "hit": false,
      "t": 222112.28191666806,
      "d": 178.57145833334653,
      "v": 53
    },
    {
      "midi": 67,
      "hit": false,
      "t": 222117.3839583347,
      "d": 96.93879166667466,
      "v": 60
    },
    {
      "midi": 62,
      "hit": false,
      "t": 222127.58804166806,
      "d": 183.67350000000442,
      "v": 53
    },
    {
      "midi": 56,
      "hit": false,
      "t": 222403.09829166805,
      "d": 86.73470833332976,
      "v": 51
    },
    {
      "midi": 74,
      "hit": false,
      "t": 222403.09829166805,
      "d": 86.73470833332976,
      "v": 85
    },
    {
      "midi": 62,
      "hit": false,
      "t": 222423.5064583347,
      "d": 35.714291666663485,
      "v": 41
    },
    {
      "midi": 76,
      "hit": false,
      "t": 222510.24116666804,
      "d": 107.14287500001956,
      "v": 48
    },
    {
      "midi": 74,
      "hit": false,
      "t": 222586.77179166806,
      "d": 86.73470833332976,
      "v": 30
    },
    {
      "midi": 73,
      "hit": false,
      "t": 222678.60854166804,
      "d": 81.63266666667187,
      "v": 37
    },
    {
      "midi": 74,
      "hit": false,
      "t": 222760.24120833472,
      "d": 81.63266666667187,
      "v": 56
    },
    {
      "midi": 62,
      "hit": false,
      "t": 222816.36366666804,
      "d": 96.93879166667466,
      "v": 32
    },
    {
      "midi": 52,
      "hit": false,
      "t": 222821.4657083347,
      "d": 142.85716666668304,
      "v": 38
    },
    {
      "midi": 55,
      "hit": false,
      "t": 222831.66979166804,
      "d": 316.32658333334257,
      "v": 46
    },
    {
      "midi": 59,
      "hit": false,
      "t": 222841.8738750014,
      "d": 158.16329166665673,
      "v": 47
    },
    {
      "midi": 79,
      "hit": false,
      "t": 222872.4861250014,
      "d": 153.06124999999884,
      "v": 77
    },
    {
      "midi": 67,
      "hit": false,
      "t": 222887.7922500014,
      "d": 163.26533333334373,
      "v": 67
    },
    {
      "midi": 69,
      "hit": false,
      "t": 222892.89429166805,
      "d": 30.612250000005588,
      "v": 62
    },
    {
      "midi": 79,
      "hit": false,
      "t": 223142.89433333473,
      "d": 163.26533333331463,
      "v": 64
    },
    {
      "midi": 67,
      "hit": false,
      "t": 223163.3025000014,
      "d": 147.95920833331184,
      "v": 58
    },
    {
      "midi": 79,
      "hit": false,
      "t": 223362.28212500137,
      "d": 107.14287500001956,
      "v": 70
    },
    {
      "midi": 67,
      "hit": false,
      "t": 223372.4862083347,
      "d": 91.83675000001676,
      "v": 70
    },
    {
      "midi": 62,
      "hit": false,
      "t": 223392.89437500137,
      "d": 35.71429166669259,
      "v": 51
    },
    {
      "midi": 59,
      "hit": false,
      "t": 223403.09845833472,
      "d": 107.14287500001956,
      "v": 49
    },
    {
      "midi": 55,
      "hit": false,
      "t": 223408.20050000137,
      "d": 127.55104166670935,
      "v": 54
    },
    {
      "midi": 52,
      "hit": false,
      "t": 223418.40458333472,
      "d": 76.53062500001397,
      "v": 25
    },
    {
      "midi": 79,
      "hit": false,
      "t": 223520.44541666808,
      "d": 163.26533333334373,
      "v": 50
    },
    {
      "midi": 67,
      "hit": false,
      "t": 223535.75154166808,
      "d": 117.34695833333535,
      "v": 62
    },
    {
      "midi": 72,
      "hit": false,
      "t": 223755.13933333475,
      "d": 137.75512499999604,
      "v": 62
    },
    {
      "midi": 72,
      "hit": false,
      "t": 223954.11895833476,
      "d": 81.63266666664276,
      "v": 58
    },
    {
      "midi": 62,
      "hit": false,
      "t": 223964.3230416681,
      "d": 35.71429166663438,
      "v": 46
    },
    {
      "midi": 55,
      "hit": false,
      "t": 223984.73120833476,
      "d": 117.34695833330625,
      "v": 49
    },
    {
      "midi": 59,
      "hit": false,
      "t": 223989.83325000142,
      "d": 96.93879166664556,
      "v": 29
    },
    {
      "midi": 52,
      "hit": false,
      "t": 223994.93529166808,
      "d": 86.73470833332976,
      "v": 20
    },
    {
      "midi": 59,
      "hit": false,
      "t": 224392.89454166807,
      "d": 153.06124999999884,
      "v": 64
    },
    {
      "midi": 52,
      "hit": false,
      "t": 224403.0986250014,
      "d": 163.26533333331463,
      "v": 60
    },
    {
      "midi": 55,
      "hit": false,
      "t": 224408.20066666807,
      "d": 142.85716666665394,
      "v": 68
    },
    {
      "midi": 62,
      "hit": false,
      "t": 224867.38441666806,
      "d": 280.61229166665,
      "v": 66
    },
    {
      "midi": 52,
      "hit": false,
      "t": 224872.48645833472,
      "d": 153.06124999999884,
      "v": 55
    },
    {
      "midi": 59,
      "hit": false,
      "t": 224877.58850000138,
      "d": 142.85716666668304,
      "v": 55
    },
    {
      "midi": 55,
      "hit": false,
      "t": 224887.79258333473,
      "d": 102.04083333333256,
      "v": 47
    },
    {
      "midi": 54,
      "hit": false,
      "t": 224903.09870833473,
      "d": 107.14287499999045,
      "v": 30
    },
    {
      "midi": 64,
      "hit": false,
      "t": 225280.64979166805,
      "d": 153.06125000002794,
      "v": 60
    },
    {
      "midi": 53,
      "hit": false,
      "t": 225285.7518333347,
      "d": 224.489833333384,
      "v": 52
    },
    {
      "midi": 60,
      "hit": false,
      "t": 225295.95591666806,
      "d": 239.7959583333868,
      "v": 55
    },
    {
      "midi": 57,
      "hit": false,
      "t": 225306.1600000014,
      "d": 260.2041250000475,
      "v": 48
    },
    {
      "midi": 72,
      "hit": false,
      "t": 225607.18045833477,
      "d": 56.122458333324175,
      "v": 90
    },
    {
      "midi": 84,
      "hit": false,
      "t": 225607.18045833477,
      "d": 102.04083333333256,
      "v": 87
    },
    {
      "midi": 79,
      "hit": false,
      "t": 225612.28250000143,
      "d": 96.93879166667466,
      "v": 81
    },
    {
      "midi": 84,
      "hit": false,
      "t": 225790.85395833477,
      "d": 45.91837500000838,
      "v": 64
    },
    {
      "midi": 72,
      "hit": false,
      "t": 225801.05804166812,
      "d": 30.612250000005588,
      "v": 54
    },
    {
      "midi": 79,
      "hit": false,
      "t": 225801.05804166812,
      "d": 66.32654166666907,
      "v": 50
    },
    {
      "midi": 64,
      "hit": false,
      "t": 225892.89479166814,
      "d": 209.1837083332939,
      "v": 56
    },
    {
      "midi": 53,
      "hit": false,
      "t": 225897.9968333348,
      "d": 433.6735416666197,
      "v": 54
    },
    {
      "midi": 60,
      "hit": false,
      "t": 225903.09887500145,
      "d": 341.83679166663205,
      "v": 58
    },
    {
      "midi": 79,
      "hit": false,
      "t": 225913.3029583348,
      "d": 193.8775833332911,
      "v": 74
    },
    {
      "midi": 57,
      "hit": false,
      "t": 225913.3029583348,
      "d": 367.34699999995064,
      "v": 55
    },
    {
      "midi": 86,
      "hit": false,
      "t": 225918.40500000145,
      "d": 158.16329166665673,
      "v": 84
    },
    {
      "midi": 74,
      "hit": false,
      "t": 225918.40500000145,
      "d": 163.26533333331463,
      "v": 71
    },
    {
      "midi": 82,
      "hit": false,
      "t": 225923.5070416681,
      "d": 198.9796249999781,
      "v": 52
    },
    {
      "midi": 84,
      "hit": false,
      "t": 226224.52750000142,
      "d": 132.65308333333815,
      "v": 78
    },
    {
      "midi": 79,
      "hit": false,
      "t": 226229.62954166808,
      "d": 127.55104166668025,
      "v": 79
    },
    {
      "midi": 72,
      "hit": false,
      "t": 226234.73158333474,
      "d": 142.85716666668304,
      "v": 70
    },
    {
      "midi": 78,
      "hit": false,
      "t": 226545.95612500142,
      "d": 61.22449999998207,
      "v": 67
    },
    {
      "midi": 83,
      "hit": false,
      "t": 226545.95612500142,
      "d": 341.83679166666116,
      "v": 75
    },
    {
      "midi": 64,
      "hit": false,
      "t": 226545.95612500142,
      "d": 346.93883333331905,
      "v": 49
    },
    {
      "midi": 71,
      "hit": false,
      "t": 226545.95612500142,
      "d": 382.65312500001164,
      "v": 81
    },
    {
      "midi": 53,
      "hit": false,
      "t": 226551.05816666808,
      "d": 367.34700000000885,
      "v": 35
    },
    {
      "midi": 60,
      "hit": false,
      "t": 226556.16020833474,
      "d": 377.55108333335374,
      "v": 46
    },
    {
      "midi": 57,
      "hit": false,
      "t": 226566.36429166808,
      "d": 352.04087500000605,
      "v": 47
    },
    {
      "midi": 79,
      "hit": false,
      "t": 226622.4867500014,
      "d": 250.0000416666735,
      "v": 24
    },
    {
      "midi": 81,
      "hit": false,
      "t": 227010.2419166681,
      "d": 403.0612916666432,
      "v": 74
    },
    {
      "midi": 69,
      "hit": false,
      "t": 227010.2419166681,
      "d": 443.8776249999646,
      "v": 81
    },
    {
      "midi": 77,
      "hit": false,
      "t": 227015.34395833476,
      "d": 418.367416666646,
      "v": 66
    },
    {
      "midi": 53,
      "hit": false,
      "t": 227015.34395833476,
      "d": 423.4694583333039,
      "v": 56
    },
    {
      "midi": 60,
      "hit": false,
      "t": 227020.44600000142,
      "d": 341.83679166666116,
      "v": 54
    },
    {
      "midi": 64,
      "hit": false,
      "t": 227020.44600000142,
      "d": 346.93883333331905,
      "v": 61
    },
    {
      "midi": 57,
      "hit": false,
      "t": 227025.54804166808,
      "d": 352.04087500000605,
      "v": 49
    },
    {
      "midi": 52,
      "hit": false,
      "t": 227755.1400000014,
      "d": 418.3674166666751,
      "v": 78
    },
    {
      "midi": 74,
      "hit": false,
      "t": 227760.24204166807,
      "d": 112.24491666667745,
      "v": 91
    },
    {
      "midi": 79,
      "hit": false,
      "t": 227760.24204166807,
      "d": 117.34695833333535,
      "v": 85
    },
    {
      "midi": 59,
      "hit": false,
      "t": 227760.24204166807,
      "d": 132.65308333333815,
      "v": 77
    },
    {
      "midi": 55,
      "hit": false,
      "t": 227760.24204166807,
      "d": 142.85716666668304,
      "v": 69
    },
    {
      "midi": 67,
      "hit": false,
      "t": 227765.34408333473,
      "d": 86.73470833335887,
      "v": 103
    },
    {
      "midi": 62,
      "hit": false,
      "t": 227765.34408333473,
      "d": 112.24491666667745,
      "v": 80
    },
    {
      "midi": 67,
      "hit": false,
      "t": 227928.6094166681,
      "d": 71.42858333332697,
      "v": 64
    },
    {
      "midi": 74,
      "hit": false,
      "t": 227928.6094166681,
      "d": 86.73470833332976,
      "v": 71
    },
    {
      "midi": 79,
      "hit": false,
      "t": 227928.6094166681,
      "d": 91.83674999998766,
      "v": 63
    },
    {
      "midi": 62,
      "hit": false,
      "t": 227933.71145833476,
      "d": 81.63266666667187,
      "v": 64
    },
    {
      "midi": 59,
      "hit": false,
      "t": 227949.01758333476,
      "d": 56.122458333324175,
      "v": 53
    },
    {
      "midi": 55,
      "hit": false,
      "t": 227949.01758333476,
      "d": 250.0000416666444,
      "v": 44
    },
    {
      "midi": 79,
      "hit": false,
      "t": 228056.16045833475,
      "d": 112.24491666667745,
      "v": 31
    },
    {
      "midi": 62,
      "hit": false,
      "t": 228056.16045833475,
      "d": 122.44899999999325,
      "v": 48
    },
    {
      "midi": 67,
      "hit": false,
      "t": 228066.3645416681,
      "d": 102.04083333333256,
      "v": 56
    },
    {
      "midi": 74,
      "hit": false,
      "t": 228066.3645416681,
      "d": 107.14287499999045,
      "v": 72
    },
    {
      "midi": 59,
      "hit": false,
      "t": 228071.46658333475,
      "d": 107.14287499999045,
      "v": 52
    },
    {
      "midi": 79,
      "hit": false,
      "t": 228244.9360000014,
      "d": 91.83674999998766,
      "v": 49
    },
    {
      "midi": 67,
      "hit": false,
      "t": 228250.03804166807,
      "d": 81.63266666667187,
      "v": 70
    },
    {
      "midi": 74,
      "hit": false,
      "t": 228250.03804166807,
      "d": 81.63266666667187,
      "v": 59
    },
    {
      "midi": 62,
      "hit": false,
      "t": 228260.24212500142,
      "d": 66.32654166666907,
      "v": 67
    },
    {
      "midi": 59,
      "hit": false,
      "t": 228270.44620833476,
      "d": 56.122458333324175,
      "v": 59
    },
    {
      "midi": 52,
      "hit": false,
      "t": 228270.44620833476,
      "d": 76.53062499998487,
      "v": 54
    },
    {
      "midi": 55,
      "hit": false,
      "t": 228270.44620833476,
      "d": 81.63266666664276,
      "v": 62
    },
    {
      "midi": 79,
      "hit": false,
      "t": 228387.79316666807,
      "d": 96.93879166667466,
      "v": 56
    },
    {
      "midi": 74,
      "hit": false,
      "t": 228392.89520833472,
      "d": 81.63266666667187,
      "v": 64
    },
    {
      "midi": 67,
      "hit": false,
      "t": 228397.99725000138,
      "d": 71.42858333335607,
      "v": 61
    },
    {
      "midi": 59,
      "hit": false,
      "t": 228408.20133333473,
      "d": 81.63266666667187,
      "v": 51
    },
    {
      "midi": 52,
      "hit": false,
      "t": 228418.40541666807,
      "d": 40.81633333332138,
      "v": 31
    },
    {
      "midi": 62,
      "hit": false,
      "t": 228418.40541666807,
      "d": 40.81633333332138,
      "v": 44
    },
    {
      "midi": 55,
      "hit": false,
      "t": 228418.40541666807,
      "d": 81.63266666667187,
      "v": 53
    },
    {
      "midi": 55,
      "hit": false,
      "t": 228668.40545833475,
      "d": 45.91837500000838,
      "v": 62
    },
    {
      "midi": 59,
      "hit": false,
      "t": 228668.40545833475,
      "d": 61.224500000011176,
      "v": 66
    },
    {
      "midi": 62,
      "hit": false,
      "t": 228683.71158333475,
      "d": 25.51020833334769,
      "v": 58
    },
    {
      "midi": 74,
      "hit": false,
      "t": 228683.71158333475,
      "d": 51.02041666666628,
      "v": 77
    },
    {
      "midi": 67,
      "hit": false,
      "t": 228693.9156666681,
      "d": 30.612250000005588,
      "v": 66
    },
    {
      "midi": 79,
      "hit": false,
      "t": 228693.9156666681,
      "d": 71.42858333332697,
      "v": 68
    },
    {
      "midi": 72,
      "hit": false,
      "t": 228994.93612500143,
      "d": 392.85720833332743,
      "v": 89
    },
    {
      "midi": 77,
      "hit": false,
      "t": 228994.93612500143,
      "d": 408.1633333333011,
      "v": 85
    },
    {
      "midi": 84,
      "hit": false,
      "t": 228994.93612500143,
      "d": 408.1633333333011,
      "v": 89
    },
    {
      "midi": 55,
      "hit": false,
      "t": 229000.0381666681,
      "d": 397.95924999998533,
      "v": 90
    },
    {
      "midi": 81,
      "hit": false,
      "t": 229000.0381666681,
      "d": 408.1633333333011,
      "v": 80
    },
    {
      "midi": 65,
      "hit": false,
      "t": 229005.14020833475,
      "d": 387.75516666666954,
      "v": 90
    },
    {
      "midi": 61,
      "hit": false,
      "t": 229005.14020833475,
      "d": 459.1837499999674,
      "v": 81
    },
    {
      "midi": 61,
      "hit": false,
      "t": 229591.8750000014,
      "d": 214.2857499999809,
      "v": 69
    },
    {
      "midi": 77,
      "hit": false,
      "t": 229596.97704166805,
      "d": 198.97962500000722,
      "v": 80
    },
    {
      "midi": 55,
      "hit": false,
      "t": 229596.97704166805,
      "d": 209.183708333323,
      "v": 75
    },
    {
      "midi": 84,
      "hit": false,
      "t": 229602.0790833347,
      "d": 142.85716666665394,
      "v": 80
    },
    {
      "midi": 65,
      "hit": false,
      "t": 229602.0790833347,
      "d": 153.06124999999884,
      "v": 69
    },
    {
      "midi": 81,
      "hit": false,
      "t": 229602.0790833347,
      "d": 168.36737500000163,
      "v": 72
    },
    {
      "midi": 72,
      "hit": false,
      "t": 229602.0790833347,
      "d": 198.97962500000722,
      "v": 84
    },
    {
      "midi": 57,
      "hit": false,
      "t": 230204.1200000014,
      "d": 311.22454166665557,
      "v": 64
    },
    {
      "midi": 53,
      "hit": false,
      "t": 230204.1200000014,
      "d": 331.63270833331626,
      "v": 62
    },
    {
      "midi": 60,
      "hit": false,
      "t": 230209.22204166805,
      "d": 285.714333333337,
      "v": 75
    },
    {
      "midi": 50,
      "hit": false,
      "t": 230209.22204166805,
      "d": 290.8163749999949,
      "v": 52
    },
    {
      "midi": 72,
      "hit": false,
      "t": 230209.22204166805,
      "d": 311.22454166665557,
      "v": 80
    },
    {
      "midi": 79,
      "hit": false,
      "t": 230209.22204166805,
      "d": 321.42862500000047,
      "v": 74
    },
    {
      "midi": 76,
      "hit": false,
      "t": 230209.22204166805,
      "d": 377.55108333332464,
      "v": 73
    },
    {
      "midi": 67,
      "hit": false,
      "t": 230214.3240833347,
      "d": 301.0204583333398,
      "v": 92
    },
    {
      "midi": 67,
      "hit": false,
      "t": 230658.2017083347,
      "d": 61.224500000011176,
      "v": 67
    },
    {
      "midi": 72,
      "hit": false,
      "t": 230658.2017083347,
      "d": 81.63266666667187,
      "v": 62
    },
    {
      "midi": 79,
      "hit": false,
      "t": 230658.2017083347,
      "d": 112.24491666667745,
      "v": 65
    },
    {
      "midi": 50,
      "hit": false,
      "t": 230663.30375000136,
      "d": 209.18370833335212,
      "v": 44
    },
    {
      "midi": 60,
      "hit": false,
      "t": 230663.30375000136,
      "d": 255.1020833333605,
      "v": 64
    },
    {
      "midi": 76,
      "hit": false,
      "t": 230673.5078333347,
      "d": 91.83675000001676,
      "v": 36
    },
    {
      "midi": 53,
      "hit": false,
      "t": 230673.5078333347,
      "d": 214.28575000001,
      "v": 36
    },
    {
      "midi": 57,
      "hit": false,
      "t": 230673.5078333347,
      "d": 224.4898333333549,
      "v": 51
    },
    {
      "midi": 80,
      "hit": false,
      "t": 231413.30387500138,
      "d": 418.3674166666169,
      "v": 81
    },
    {
      "midi": 88,
      "hit": false,
      "t": 231418.40591666804,
      "d": 346.93883333328995,
      "v": 80
    },
    {
      "midi": 83,
      "hit": false,
      "t": 231418.40591666804,
      "d": 382.65312499995343,
      "v": 76
    },
    {
      "midi": 53,
      "hit": false,
      "t": 231418.40591666804,
      "d": 448.9796666666516,
      "v": 71
    },
    {
      "midi": 76,
      "hit": false,
      "t": 231423.5079583347,
      "d": 418.367416666646,
      "v": 77
    },
    {
      "midi": 64,
      "hit": false,
      "t": 231428.61000000135,
      "d": 352.04087499997695,
      "v": 74
    },
    {
      "midi": 59,
      "hit": false,
      "t": 231428.61000000135,
      "d": 357.14291666663485,
      "v": 74
    },
    {
      "midi": 56,
      "hit": false,
      "t": 231428.61000000135,
      "d": 464.2857916666835,
      "v": 60
    },
    {
      "midi": 86,
      "hit": false,
      "t": 231433.712041668,
      "d": 30.612250000005588,
      "v": 70
    },
    {
      "midi": 62,
      "hit": false,
      "t": 232642.89591666803,
      "d": 81.63266666667187,
      "v": 65
    },
    {
      "midi": 57,
      "hit": false,
      "t": 232653.10000000137,
      "d": 86.73470833332976,
      "v": 58
    },
    {
      "midi": 55,
      "hit": false,
      "t": 232663.30408333472,
      "d": 35.714291666663485,
      "v": 59
    },
    {
      "midi": 79,
      "hit": false,
      "t": 232668.40612500138,
      "d": 35.714291666663485,
      "v": 71
    },
    {
      "midi": 74,
      "hit": false,
      "t": 232668.40612500138,
      "d": 40.81633333332138,
      "v": 84
    },
    {
      "midi": 81,
      "hit": false,
      "t": 232668.40612500138,
      "d": 40.81633333332138,
      "v": 70
    },
    {
      "midi": 52,
      "hit": false,
      "t": 232673.50816666803,
      "d": 40.81633333332138,
      "v": 36
    },
    {
      "midi": 84,
      "hit": false,
      "t": 232673.50816666803,
      "d": 61.224500000011176,
      "v": 80
    },
    {
      "midi": 74,
      "hit": false,
      "t": 232964.32454166803,
      "d": 35.714291666663485,
      "v": 78
    },
    {
      "midi": 79,
      "hit": false,
      "t": 232964.32454166803,
      "d": 35.714291666663485,
      "v": 70
    },
    {
      "midi": 81,
      "hit": false,
      "t": 232964.32454166803,
      "d": 40.81633333332138,
      "v": 69
    },
    {
      "midi": 84,
      "hit": false,
      "t": 232969.4265833347,
      "d": 40.81633333332138,
      "v": 76
    },
    {
      "midi": 62,
      "hit": false,
      "t": 233265.34500000134,
      "d": 188.77554166663322,
      "v": 54
    },
    {
      "midi": 74,
      "hit": false,
      "t": 233270.447041668,
      "d": 71.42858333332697,
      "v": 81
    },
    {
      "midi": 81,
      "hit": false,
      "t": 233270.447041668,
      "d": 91.83674999998766,
      "v": 68
    },
    {
      "midi": 79,
      "hit": false,
      "t": 233275.54908333466,
      "d": 61.224500000011176,
      "v": 68
    },
    {
      "midi": 84,
      "hit": false,
      "t": 233275.54908333466,
      "d": 71.42858333332697,
      "v": 76
    },
    {
      "midi": 57,
      "hit": false,
      "t": 233275.54908333466,
      "d": 178.57145833331742,
      "v": 51
    },
    {
      "midi": 52,
      "hit": false,
      "t": 233285.753166668,
      "d": 122.44899999999325,
      "v": 35
    },
    {
      "midi": 55,
      "hit": false,
      "t": 233290.85520833466,
      "d": 132.65308333333815,
      "v": 51
    },
    {
      "midi": 74,
      "hit": false,
      "t": 233438.814416668,
      "d": 76.53062499995576,
      "v": 59
    },
    {
      "midi": 84,
      "hit": false,
      "t": 233443.91645833466,
      "d": 61.22449999995297,
      "v": 57
    },
    {
      "midi": 79,
      "hit": false,
      "t": 233449.01850000132,
      "d": 51.020416666637175,
      "v": 49
    },
    {
      "midi": 81,
      "hit": false,
      "t": 233454.12054166797,
      "d": 40.81633333332138,
      "v": 45
    },
    {
      "midi": 62,
      "hit": false,
      "t": 233724.52875000128,
      "d": 86.73470833335887,
      "v": 63
    },
    {
      "midi": 57,
      "hit": false,
      "t": 233734.73283333462,
      "d": 91.83675000001676,
      "v": 56
    },
    {
      "midi": 55,
      "hit": false,
      "t": 233744.93691666797,
      "d": 35.714291666663485,
      "v": 57
    },
    {
      "midi": 52,
      "hit": false,
      "t": 233750.03895833463,
      "d": 66.32654166666907,
      "v": 36
    },
    {
      "midi": 62,
      "hit": false,
      "t": 234173.50841666796,
      "d": 61.22450000004028,
      "v": 67
    },
    {
      "midi": 57,
      "hit": false,
      "t": 234173.50841666796,
      "d": 96.93879166673287,
      "v": 56
    },
    {
      "midi": 55,
      "hit": false,
      "t": 234188.81454166796,
      "d": 35.71429166669259,
      "v": 51
    },
    {
      "midi": 52,
      "hit": false,
      "t": 234199.0186250013,
      "d": 45.918375000037486,
      "v": 31
    },
    {
      "midi": 57,
      "hit": false,
      "t": 234683.71258333468,
      "d": 86.73470833330066,
      "v": 71
    },
    {
      "midi": 62,
      "hit": false,
      "t": 234688.81462500134,
      "d": 35.714291666663485,
      "v": 76
    },
    {
      "midi": 55,
      "hit": false,
      "t": 234693.916666668,
      "d": 35.714291666663485,
      "v": 64
    },
    {
      "midi": 52,
      "hit": false,
      "t": 234709.222791668,
      "d": 40.81633333332138,
      "v": 41
    },
    {
      "midi": 74,
      "hit": false,
      "t": 234821.46770833465,
      "d": 40.81633333332138,
      "v": 83
    },
    {
      "midi": 79,
      "hit": false,
      "t": 234821.46770833465,
      "d": 61.22449999998207,
      "v": 78
    },
    {
      "midi": 81,
      "hit": false,
      "t": 234821.46770833465,
      "d": 81.63266666664276,
      "v": 79
    },
    {
      "midi": 84,
      "hit": false,
      "t": 234826.5697500013,
      "d": 76.53062499998487,
      "v": 83
    },
    {
      "midi": 80,
      "hit": false,
      "t": 235107.18204166795,
      "d": 76.53062499998487,
      "v": 82
    },
    {
      "midi": 54,
      "hit": false,
      "t": 235107.18204166795,
      "d": 326.53066666662926,
      "v": 65
    },
    {
      "midi": 64,
      "hit": false,
      "t": 235112.2840833346,
      "d": 326.53066666662926,
      "v": 75
    },
    {
      "midi": 76,
      "hit": false,
      "t": 235117.38612500127,
      "d": 40.816333333350485,
      "v": 87
    },
    {
      "midi": 84,
      "hit": false,
      "t": 235117.38612500127,
      "d": 66.32654166666907,
      "v": 85
    },
    {
      "midi": 58,
      "hit": false,
      "t": 235117.38612500127,
      "d": 295.9184166666528,
      "v": 68
    },
    {
      "midi": 78,
      "hit": false,
      "t": 235132.69225000127,
      "d": 30.612250000005588,
      "v": 33
    },
    {
      "midi": 80,
      "hit": false,
      "t": 235408.20250000127,
      "d": 66.32654166663997,
      "v": 80
    },
    {
      "midi": 76,
      "hit": false,
      "t": 235408.20250000127,
      "d": 71.42858333329787,
      "v": 85
    },
    {
      "midi": 84,
      "hit": false,
      "t": 235413.30454166792,
      "d": 40.81633333332138,
      "v": 80
    },
    {
      "midi": 64,
      "hit": false,
      "t": 235709.22295833458,
      "d": 250.0000416666444,
      "v": 72
    },
    {
      "midi": 54,
      "hit": false,
      "t": 235714.32500000123,
      "d": 244.8979999999865,
      "v": 59
    },
    {
      "midi": 80,
      "hit": false,
      "t": 235719.4270416679,
      "d": 96.93879166667466,
      "v": 79
    },
    {
      "midi": 58,
      "hit": false,
      "t": 235719.4270416679,
      "d": 239.7959583333286,
      "v": 60
    },
    {
      "midi": 76,
      "hit": false,
      "t": 235724.52908333455,
      "d": 61.224500000011176,
      "v": 84
    },
    {
      "midi": 84,
      "hit": false,
      "t": 235724.52908333455,
      "d": 76.53062500001397,
      "v": 82
    },
    {
      "midi": 80,
      "hit": false,
      "t": 235892.89645833458,
      "d": 76.53062499998487,
      "v": 46
    },
    {
      "midi": 76,
      "hit": false,
      "t": 235897.99850000124,
      "d": 56.122458333324175,
      "v": 65
    },
    {
      "midi": 84,
      "hit": false,
      "t": 235908.20258333458,
      "d": 40.81633333332138,
      "v": 48
    },
    {
      "midi": 64,
      "hit": false,
      "t": 236178.6107916679,
      "d": 948.9797499999986,
      "v": 76
    },
    {
      "midi": 54,
      "hit": false,
      "t": 236178.6107916679,
      "d": 1158.1634583333507,
      "v": 74
    },
    {
      "midi": 58,
      "hit": false,
      "t": 236183.71283333455,
      "d": 1020.4083333333547,
      "v": 64
    },
    {
      "midi": 80,
      "hit": false,
      "t": 236188.8148750012,
      "d": 214.28575000001,
      "v": 82
    },
    {
      "midi": 76,
      "hit": false,
      "t": 236193.91691666786,
      "d": 178.57145833334653,
      "v": 87
    },
    {
      "midi": 84,
      "hit": false,
      "t": 236193.91691666786,
      "d": 188.77554166669142,
      "v": 85
    },
    {
      "midi": 81,
      "hit": false,
      "t": 236607.18229166788,
      "d": 76.53062500001397,
      "v": 118
    },
    {
      "midi": 81,
      "hit": false,
      "t": 236785.75375000123,
      "d": 81.63266666667187,
      "v": 91
    },
    {
      "midi": 82,
      "hit": false,
      "t": 236933.71295833457,
      "d": 102.04083333333256,
      "v": 77
    },
    {
      "midi": 82,
      "hit": false,
      "t": 237107.18237500123,
      "d": 127.55104166668025,
      "v": 73
    },
    {
      "midi": 81,
      "hit": false,
      "t": 237255.14158333457,
      "d": 112.24491666667745,
      "v": 81
    },
    {
      "midi": 64,
      "hit": false,
      "t": 237260.24362500123,
      "d": 76.53062500001397,
      "v": 61
    },
    {
      "midi": 58,
      "hit": false,
      "t": 237270.44770833457,
      "d": 76.53062500001397,
      "v": 42
    },
    {
      "midi": 81,
      "hit": false,
      "t": 237571.4681666679,
      "d": 459.1837499999674,
      "v": 101
    },
    {
      "midi": 65,
      "hit": false,
      "t": 237576.57020833457,
      "d": 61.22449999998207,
      "v": 73
    },
    {
      "midi": 57,
      "hit": false,
      "t": 237581.67225000123,
      "d": 40.81633333332138,
      "v": 66
    },
    {
      "midi": 62,
      "hit": false,
      "t": 237586.77429166788,
      "d": 35.714291666663485,
      "v": 58
    },
    {
      "midi": 80,
      "hit": false,
      "t": 238015.34579166787,
      "d": 76.53062500001397,
      "v": 52
    },
    {
      "midi": 78,
      "hit": false,
      "t": 238147.9988750012,
      "d": 96.93879166664556,
      "v": 50
    },
    {
      "midi": 57,
      "hit": false,
      "t": 238234.73358333454,
      "d": 117.34695833333535,
      "v": 30
    },
    {
      "midi": 65,
      "hit": false,
      "t": 238239.8356250012,
      "d": 153.06124999999884,
      "v": 19
    },
    {
      "midi": 62,
      "hit": false,
      "t": 238244.93766666786,
      "d": 153.06124999999884,
      "v": 29
    },
    {
      "midi": 77,
      "hit": false,
      "t": 238270.4478750012,
      "d": 86.73470833332976,
      "v": 52
    },
    {
      "midi": 65,
      "hit": false,
      "t": 238744.93775000118,
      "d": 71.42858333332697,
      "v": 50
    },
    {
      "midi": 62,
      "hit": false,
      "t": 238755.14183333452,
      "d": 71.42858333332697,
      "v": 42
    },
    {
      "midi": 57,
      "hit": false,
      "t": 238770.44795833452,
      "d": 40.81633333332138,
      "v": 34
    },
    {
      "midi": 65,
      "hit": false,
      "t": 239061.26433333452,
      "d": 61.224500000011176,
      "v": 43
    },
    {
      "midi": 57,
      "hit": false,
      "t": 239071.46841666786,
      "d": 61.224500000011176,
      "v": 43
    },
    {
      "midi": 62,
      "hit": false,
      "t": 239071.46841666786,
      "d": 76.53062500001397,
      "v": 41
    },
    {
      "midi": 65,
      "hit": false,
      "t": 239551.06033333455,
      "d": 66.32654166666907,
      "v": 43
    },
    {
      "midi": 57,
      "hit": false,
      "t": 239551.06033333455,
      "d": 91.83674999998766,
      "v": 47
    },
    {
      "midi": 62,
      "hit": false,
      "t": 239566.36645833455,
      "d": 56.122458333324175,
      "v": 36
    },
    {
      "midi": 65,
      "hit": false,
      "t": 239979.63183333454,
      "d": 71.42858333332697,
      "v": 43
    },
    {
      "midi": 62,
      "hit": false,
      "t": 239984.7338750012,
      "d": 91.83674999998766,
      "v": 42
    },
    {
      "midi": 56,
      "hit": false,
      "t": 239989.83591666786,
      "d": 81.63266666667187,
      "v": 35
    },
    {
      "midi": 75,
      "hit": false,
      "t": 240500.04008333452,
      "d": 86.73470833332976,
      "v": 75
    },
    {
      "midi": 65,
      "hit": false,
      "t": 240551.0605000012,
      "d": 45.91837500000838,
      "v": 45
    },
    {
      "midi": 56,
      "hit": false,
      "t": 240551.0605000012,
      "d": 91.83675000001676,
      "v": 45
    },
    {
      "midi": 62,
      "hit": false,
      "t": 240556.16254166784,
      "d": 61.224500000011176,
      "v": 41
    },
    {
      "midi": 76,
      "hit": false,
      "t": 240642.8972500012,
      "d": 112.24491666667745,
      "v": 55
    },
    {
      "midi": 76,
      "hit": false,
      "t": 240806.16258333455,
      "d": 107.14287499999045,
      "v": 73
    },
    {
      "midi": 80,
      "hit": false,
      "t": 240928.61158333454,
      "d": 66.32654166666907,
      "v": 61
    },
    {
      "midi": 80,
      "hit": false,
      "t": 241071.46875000122,
      "d": 91.83674999998766,
      "v": 70
    },
    {
      "midi": 65,
      "hit": false,
      "t": 241142.89733333455,
      "d": 76.53062499998487,
      "v": 32
    },
    {
      "midi": 62,
      "hit": false,
      "t": 241158.20345833455,
      "d": 127.55104166665114,
      "v": 33
    },
    {
      "midi": 56,
      "hit": false,
      "t": 241163.3055000012,
      "d": 91.83674999998766,
      "v": 25
    },
    {
      "midi": 83,
      "hit": false,
      "t": 241199.01979166787,
      "d": 76.53062499998487,
      "v": 74
    },
    {
      "midi": 83,
      "hit": false,
      "t": 241387.79533333454,
      "d": 76.53062500001397,
      "v": 62
    },
    {
      "midi": 62,
      "hit": false,
      "t": 241433.71370833454,
      "d": 132.65308333333815,
      "v": 27
    },
    {
      "midi": 86,
      "hit": false,
      "t": 241505.14229166787,
      "d": 204.08166666666511,
      "v": 84
    },
    {
      "midi": 74,
      "hit": false,
      "t": 241505.14229166787,
      "d": 224.4898333333258,
      "v": 72
    },
    {
      "midi": 86,
      "hit": false,
      "t": 241831.67295833453,
      "d": 198.9796249999781,
      "v": 83
    },
    {
      "midi": 62,
      "hit": false,
      "t": 241836.7750000012,
      "d": 153.06124999999884,
      "v": 39
    },
    {
      "midi": 74,
      "hit": false,
      "t": 241836.7750000012,
      "d": 158.16329166665673,
      "v": 66
    },
    {
      "midi": 65,
      "hit": false,
      "t": 241841.87704166785,
      "d": 86.73470833332976,
      "v": 60
    },
    {
      "midi": 56,
      "hit": false,
      "t": 241841.87704166785,
      "d": 204.08166666666511,
      "v": 49
    },
    {
      "midi": 84,
      "hit": false,
      "t": 242147.99954166784,
      "d": 153.06124999999884,
      "v": 83
    },
    {
      "midi": 64,
      "hit": false,
      "t": 242454.12204166784,
      "d": 265.3061666666763,
      "v": 36
    },
    {
      "midi": 81,
      "hit": false,
      "t": 242459.2240833345,
      "d": 40.81633333332138,
      "v": 41
    },
    {
      "midi": 57,
      "hit": false,
      "t": 242459.2240833345,
      "d": 219.3877916666679,
      "v": 39
    },
    {
      "midi": 82,
      "hit": false,
      "t": 242464.32612500116,
      "d": 76.53062500001397,
      "v": 47
    },
    {
      "midi": 59,
      "hit": false,
      "t": 242469.4281666678,
      "d": 142.85716666668304,
      "v": 34
    },
    {
      "midi": 60,
      "hit": false,
      "t": 242469.4281666678,
      "d": 239.7959583333577,
      "v": 45
    },
    {
      "midi": 83,
      "hit": false,
      "t": 242530.65266666783,
      "d": 198.97962500003632,
      "v": 47
    },
    {
      "midi": 81,
      "hit": false,
      "t": 242760.24454166787,
      "d": 91.83674999998766,
      "v": 36
    },
    {
      "midi": 84,
      "hit": false,
      "t": 242959.22416666785,
      "d": 66.32654166666907,
      "v": 75
    },
    {
      "midi": 64,
      "hit": false,
      "t": 242959.22416666785,
      "d": 91.83675000001676,
      "v": 40
    },
    {
      "midi": 57,
      "hit": false,
      "t": 242974.53029166785,
      "d": 112.24491666667745,
      "v": 42
    },
    {
      "midi": 60,
      "hit": false,
      "t": 242979.6323333345,
      "d": 56.12245833335328,
      "v": 49
    },
    {
      "midi": 64,
      "hit": false,
      "t": 243362.28545833452,
      "d": 71.42858333335607,
      "v": 25
    },
    {
      "midi": 57,
      "hit": false,
      "t": 243367.38750000118,
      "d": 76.53062500004307,
      "v": 34
    },
    {
      "midi": 60,
      "hit": false,
      "t": 243377.59158333452,
      "d": 45.91837500000838,
      "v": 41
    },
    {
      "midi": 55,
      "hit": false,
      "t": 243678.6120416679,
      "d": 61.224500000011176,
      "v": 37
    },
    {
      "midi": 64,
      "hit": false,
      "t": 243678.6120416679,
      "d": 71.42858333335607,
      "v": 24
    },
    {
      "midi": 60,
      "hit": false,
      "t": 243688.81612500123,
      "d": 45.91837500000838,
      "v": 45
    },
    {
      "midi": 55,
      "hit": false,
      "t": 244010.24475000123,
      "d": 107.14287499999045,
      "v": 71
    },
    {
      "midi": 64,
      "hit": false,
      "t": 244010.24475000123,
      "d": 107.14287499999045,
      "v": 64
    },
    {
      "midi": 60,
      "hit": false,
      "t": 244015.3467916679,
      "d": 122.44899999999325,
      "v": 71
    },
    {
      "midi": 55,
      "hit": false,
      "t": 244443.91829166788,
      "d": 102.04083333336166,
      "v": 56
    },
    {
      "midi": 60,
      "hit": false,
      "t": 244459.2244166679,
      "d": 102.04083333336166,
      "v": 54
    },
    {
      "midi": 64,
      "hit": false,
      "t": 244469.42850000123,
      "d": 61.224500000011176,
      "v": 37
    },
    {
      "midi": 64,
      "hit": false,
      "t": 244887.7959166679,
      "d": 127.55104166665114,
      "v": 33
    },
    {
      "midi": 60,
      "hit": false,
      "t": 244898.00000000125,
      "d": 81.63266666664276,
      "v": 36
    },
    {
      "midi": 57,
      "hit": false,
      "t": 244903.1020416679,
      "d": 153.06124999996973,
      "v": 47
    },
    {
      "midi": 53,
      "hit": false,
      "t": 244908.20408333457,
      "d": 239.7959583332995,
      "v": 24
    },
    {
      "midi": 60,
      "hit": false,
      "t": 245377.59191666788,
      "d": 35.71429166669259,
      "v": 47
    },
    {
      "midi": 57,
      "hit": false,
      "t": 245387.79600000122,
      "d": 40.816333333350485,
      "v": 39
    },
    {
      "midi": 75,
      "hit": false,
      "t": 245510.24500000125,
      "d": 153.06124999996973,
      "v": 47
    },
    {
      "midi": 63,
      "hit": false,
      "t": 245525.55112500125,
      "d": 117.34695833330625,
      "v": 48
    },
    {
      "midi": 69,
      "hit": false,
      "t": 245566.36745833457,
      "d": 56.122458333324175,
      "v": 29
    },
    {
      "midi": 72,
      "hit": false,
      "t": 245571.46950000123,
      "d": 397.95924999998533,
      "v": 20
    },
    {
      "midi": 69,
      "hit": false,
      "t": 245688.81645833456,
      "d": 260.2041249999893,
      "v": 39
    },
    {
      "midi": 76,
      "hit": false,
      "t": 245693.91850000122,
      "d": 311.22454166665557,
      "v": 59
    },
    {
      "midi": 64,
      "hit": false,
      "t": 245699.02054166788,
      "d": 239.7959583333286,
      "v": 56
    },
    {
      "midi": 62,
      "hit": false,
      "t": 245989.83691666787,
      "d": 35.714291666663485,
      "v": 32
    },
    {
      "midi": 57,
      "hit": false,
      "t": 246035.75529166788,
      "d": 51.02041666666628,
      "v": 30
    },
    {
      "midi": 77,
      "hit": false,
      "t": 246117.38795833456,
      "d": 239.7959583333286,
      "v": 69
    },
    {
      "midi": 65,
      "hit": false,
      "t": 246127.5920416679,
      "d": 173.46941666665953,
      "v": 56
    },
    {
      "midi": 72,
      "hit": false,
      "t": 246132.69408333456,
      "d": 204.08166666666511,
      "v": 47
    },
    {
      "midi": 62,
      "hit": false,
      "t": 246581.6737500012,
      "d": 40.81633333332138,
      "v": 40
    },
    {
      "midi": 57,
      "hit": false,
      "t": 246627.5921250012,
      "d": 45.91837500000838,
      "v": 32
    },
    {
      "midi": 69,
      "hit": false,
      "t": 246714.32683333452,
      "d": 35.714291666663485,
      "v": 60
    },
    {
      "midi": 74,
      "hit": false,
      "t": 246714.32683333452,
      "d": 45.91837500000838,
      "v": 50
    },
    {
      "midi": 81,
      "hit": false,
      "t": 246714.32683333452,
      "d": 91.83675000001676,
      "v": 56
    },
    {
      "midi": 77,
      "hit": false,
      "t": 246734.73500000118,
      "d": 45.91837500000838,
      "v": 36
    },
    {
      "midi": 72,
      "hit": false,
      "t": 246908.20441666787,
      "d": 35.71429166669259,
      "v": 68
    },
    {
      "midi": 62,
      "hit": false,
      "t": 246918.4085000012,
      "d": 30.612250000005588,
      "v": 48
    },
    {
      "midi": 84,
      "hit": false,
      "t": 246918.4085000012,
      "d": 35.714291666663485,
      "v": 66
    },
    {
      "midi": 60,
      "hit": false,
      "t": 246949.02075000122,
      "d": 30.612249999976484,
      "v": 24
    },
    {
      "midi": 57,
      "hit": false,
      "t": 246959.22483333453,
      "d": 51.02041666666628,
      "v": 27
    },
    {
      "midi": 88,
      "hit": false,
      "t": 247173.51058333454,
      "d": 61.22449999998207,
      "v": 78
    },
    {
      "midi": 76,
      "hit": false,
      "t": 247193.9187500012,
      "d": 40.81633333332138,
      "v": 33
    },
    {
      "midi": 88,
      "hit": false,
      "t": 247387.79633333453,
      "d": 91.83674999998766,
      "v": 80
    },
    {
      "midi": 76,
      "hit": false,
      "t": 247403.10245833453,
      "d": 40.81633333332138,
      "v": 68
    },
    {
      "midi": 60,
      "hit": false,
      "t": 247862.28620833452,
      "d": 35.714291666663485,
      "v": 58
    },
    {
      "midi": 53,
      "hit": false,
      "t": 247898.0005000012,
      "d": 45.91837500000838,
      "v": 22
    },
    {
      "midi": 84,
      "hit": false,
      "t": 248265.3475000012,
      "d": 341.83679166666116,
      "v": 83
    },
    {
      "midi": 72,
      "hit": false,
      "t": 248265.3475000012,
      "d": 346.93883333331905,
      "v": 80
    },
    {
      "midi": 81,
      "hit": false,
      "t": 248270.44954166785,
      "d": 357.14291666666395,
      "v": 71
    },
    {
      "midi": 60,
      "hit": false,
      "t": 248270.44954166785,
      "d": 372.44904166666674,
      "v": 68
    },
    {
      "midi": 57,
      "hit": false,
      "t": 248275.5515833345,
      "d": 382.65312500001164,
      "v": 54
    },
    {
      "midi": 77,
      "hit": false,
      "t": 248275.5515833345,
      "d": 397.95925000001444,
      "v": 69
    },
    {
      "midi": 53,
      "hit": false,
      "t": 248280.65362500117,
      "d": 428.57150000002,
      "v": 51
    },
    {
      "midi": 50,
      "hit": false,
      "t": 248290.85770833452,
      "d": 387.75516666666954,
      "v": 31
    },
    {
      "midi": 81,
      "hit": false,
      "t": 248739.8373750012,
      "d": 295.9184166666528,
      "v": 59
    },
    {
      "midi": 69,
      "hit": false,
      "t": 248744.93941666785,
      "d": 260.2041249999893,
      "v": 62
    },
    {
      "midi": 50,
      "hit": false,
      "t": 248755.1435000012,
      "d": 178.57145833331742,
      "v": 25
    },
    {
      "midi": 53,
      "hit": false,
      "t": 248760.24554166786,
      "d": 188.77554166666232,
      "v": 19
    },
    {
      "midi": 60,
      "hit": false,
      "t": 248765.34758333451,
      "d": 244.8979999999865,
      "v": 49
    },
    {
      "midi": 57,
      "hit": false,
      "t": 248770.44962500117,
      "d": 153.06124999999884,
      "v": 34
    },
    {
      "midi": 80,
      "hit": false,
      "t": 248775.55166666783,
      "d": 301.0204583333398,
      "v": 25
    },
    {
      "midi": 60,
      "hit": false,
      "t": 249484.7354583345,
      "d": 35.71429166669259,
      "v": 64
    },
    {
      "midi": 74,
      "hit": false,
      "t": 249494.93954166785,
      "d": 51.02041666666628,
      "v": 77
    },
    {
      "midi": 86,
      "hit": false,
      "t": 249494.93954166785,
      "d": 61.224500000011176,
      "v": 84
    },
    {
      "midi": 57,
      "hit": false,
      "t": 249505.1436250012,
      "d": 35.714291666663485,
      "v": 41
    },
    {
      "midi": 53,
      "hit": false,
      "t": 249505.1436250012,
      "d": 40.81633333332138,
      "v": 34
    },
    {
      "midi": 78,
      "hit": false,
      "t": 250112.28658333453,
      "d": 76.53062499998487,
      "v": 77
    },
    {
      "midi": 71,
      "hit": false,
      "t": 250117.3886250012,
      "d": 290.8163749999658,
      "v": 87
    },
    {
      "midi": 53,
      "hit": false,
      "t": 250117.3886250012,
      "d": 346.93883333328995,
      "v": 62
    },
    {
      "midi": 83,
      "hit": false,
      "t": 250122.49066666784,
      "d": 260.2041249999893,
      "v": 81
    },
    {
      "midi": 64,
      "hit": false,
      "t": 250122.49066666784,
      "d": 336.73474999997416,
      "v": 51
    },
    {
      "midi": 59,
      "hit": false,
      "t": 250127.5927083345,
      "d": 372.44904166663764,
      "v": 53
    },
    {
      "midi": 79,
      "hit": false,
      "t": 250204.12333333452,
      "d": 198.9796249999781,
      "v": 44
    },
    {
      "midi": 79,
      "hit": false,
      "t": 250561.26625000115,
      "d": 183.67349999997532,
      "v": 59
    },
    {
      "midi": 67,
      "hit": false,
      "t": 250566.3682916678,
      "d": 147.95920833331184,
      "v": 68
    },
    {
      "midi": 59,
      "hit": false,
      "t": 250571.47033333447,
      "d": 244.8979999999865,
      "v": 68
    },
    {
      "midi": 53,
      "hit": false,
      "t": 250571.47033333447,
      "d": 270.4082083333342,
      "v": 69
    },
    {
      "midi": 64,
      "hit": false,
      "t": 250576.57237500112,
      "d": 250.0000416666735,
      "v": 69
    },
    {
      "midi": 77,
      "hit": false,
      "t": 250581.67441666778,
      "d": 127.55104166668025,
      "v": 55
    },
    {
      "midi": 83,
      "hit": false,
      "t": 250994.9397916678,
      "d": 250.0000416666735,
      "v": 73
    },
    {
      "midi": 77,
      "hit": false,
      "t": 251000.04183333446,
      "d": 234.6939166666707,
      "v": 66
    },
    {
      "midi": 71,
      "hit": false,
      "t": 251005.14387500111,
      "d": 204.08166666666511,
      "v": 73
    },
    {
      "midi": 59,
      "hit": false,
      "t": 251005.14387500111,
      "d": 316.3265833333717,
      "v": 73
    },
    {
      "midi": 62,
      "hit": false,
      "t": 251005.14387500111,
      "d": 326.53066666671657,
      "v": 75
    },
    {
      "midi": 56,
      "hit": false,
      "t": 251005.14387500111,
      "d": 336.73475000006147,
      "v": 63
    },
    {
      "midi": 53,
      "hit": false,
      "t": 251010.24591666777,
      "d": 341.83679166674847,
      "v": 67
    },
    {
      "midi": 80,
      "hit": false,
      "t": 251035.7561250011,
      "d": 25.51020833334769,
      "v": 25
    },
    {
      "midi": 86,
      "hit": false,
      "t": 251474.5317083345,
      "d": 183.67349999994622,
      "v": 81
    },
    {
      "midi": 74,
      "hit": false,
      "t": 251479.63375000117,
      "d": 137.75512499996694,
      "v": 76
    },
    {
      "midi": 80,
      "hit": false,
      "t": 251479.63375000117,
      "d": 173.46941666663042,
      "v": 68
    },
    {
      "midi": 83,
      "hit": false,
      "t": 251484.73579166783,
      "d": 173.46941666663042,
      "v": 65
    },
    {
      "midi": 59,
      "hit": false,
      "t": 251484.73579166783,
      "d": 183.67349999997532,
      "v": 71
    },
    {
      "midi": 56,
      "hit": false,
      "t": 251484.73579166783,
      "d": 209.183708333323,
      "v": 55
    },
    {
      "midi": 53,
      "hit": false,
      "t": 251484.73579166783,
      "d": 224.4898333333258,
      "v": 69
    },
    {
      "midi": 62,
      "hit": false,
      "t": 251489.8378333345,
      "d": 204.08166666666511,
      "v": 71
    },
    {
      "midi": 89,
      "hit": false,
      "t": 251923.51137500117,
      "d": 816.3266666666605,
      "v": 84
    },
    {
      "midi": 77,
      "hit": false,
      "t": 251923.51137500117,
      "d": 862.2450416666688,
      "v": 92
    },
    {
      "midi": 59,
      "hit": false,
      "t": 251928.61341666782,
      "d": 744.8980833333335,
      "v": 80
    },
    {
      "midi": 62,
      "hit": false,
      "t": 251928.61341666782,
      "d": 790.8164583333419,
      "v": 89
    },
    {
      "midi": 53,
      "hit": false,
      "t": 251928.61341666782,
      "d": 841.8368750000081,
      "v": 81
    },
    {
      "midi": 86,
      "hit": false,
      "t": 251928.61341666782,
      "d": 867.3470833333558,
      "v": 89
    },
    {
      "midi": 83,
      "hit": false,
      "t": 251928.61341666782,
      "d": 892.8572916667035,
      "v": 80
    },
    {
      "midi": 56,
      "hit": false,
      "t": 251933.71545833448,
      "d": 892.8572916667035,
      "v": 60
    },
    {
      "midi": 60,
      "hit": false,
      "t": 252872.4911250012,
      "d": 56.12245833329507,
      "v": 45
    },
    {
      "midi": 88,
      "hit": false,
      "t": 252877.59316666785,
      "d": 91.83674999998766,
      "v": 55
    },
    {
      "midi": 83,
      "hit": false,
      "t": 252882.6952083345,
      "d": 61.22449999998207,
      "v": 32
    },
    {
      "midi": 55,
      "hit": false,
      "t": 252882.6952083345,
      "d": 71.42858333332697,
      "v": 47
    },
    {
      "midi": 57,
      "hit": false,
      "t": 252887.79725000117,
      "d": 40.81633333332138,
      "v": 41
    },
    {
      "midi": 76,
      "hit": false,
      "t": 252887.79725000117,
      "d": 56.122458333324175,
      "v": 34
    },
    {
      "midi": 52,
      "hit": false,
      "t": 252923.51154166783,
      "d": 35.714291666663485,
      "v": 24
    },
    {
      "midi": 60,
      "hit": false,
      "t": 253178.61362500116,
      "d": 71.42858333332697,
      "v": 50
    },
    {
      "midi": 83,
      "hit": false,
      "t": 253183.71566666782,
      "d": 45.91837500000838,
      "v": 44
    },
    {
      "midi": 76,
      "hit": false,
      "t": 253183.71566666782,
      "d": 71.42858333332697,
      "v": 46
    },
    {
      "midi": 88,
      "hit": false,
      "t": 253188.81770833448,
      "d": 40.816333333350485,
      "v": 41
    },
    {
      "midi": 57,
      "hit": false,
      "t": 253199.02179166782,
      "d": 45.91837500000838,
      "v": 35
    },
    {
      "midi": 55,
      "hit": false,
      "t": 253209.22587500117,
      "d": 40.81633333332138,
      "v": 33
    },
    {
      "midi": 52,
      "hit": false,
      "t": 253229.63404166783,
      "d": 35.714291666663485,
      "v": 17
    },
    {
      "midi": 60,
      "hit": false,
      "t": 253780.6545416678,
      "d": 91.83674999998766,
      "v": 44
    },
    {
      "midi": 57,
      "hit": false,
      "t": 253811.26679166782,
      "d": 51.02041666666628,
      "v": 33
    },
    {
      "midi": 52,
      "hit": false,
      "t": 253816.36883333448,
      "d": 51.02041666666628,
      "v": 25
    },
    {
      "midi": 55,
      "hit": false,
      "t": 253831.67495833448,
      "d": 40.81633333332138,
      "v": 22
    },
    {
      "midi": 69,
      "hit": false,
      "t": 254209.2260416678,
      "d": 40.81633333332138,
      "v": 49
    },
    {
      "midi": 76,
      "hit": false,
      "t": 254285.7566666678,
      "d": 168.36737500000163,
      "v": 83
    },
    {
      "midi": 74,
      "hit": false,
      "t": 254408.20566666778,
      "d": 188.77554166669142,
      "v": 70
    },
    {
      "midi": 57,
      "hit": false,
      "t": 254428.61383333444,
      "d": 107.14287500001956,
      "v": 38
    },
    {
      "midi": 64,
      "hit": false,
      "t": 254438.8179166678,
      "d": 81.63266666667187,
      "v": 22
    },
    {
      "midi": 62,
      "hit": false,
      "t": 254438.8179166678,
      "d": 96.93879166667466,
      "v": 32
    },
    {
      "midi": 71,
      "hit": false,
      "t": 254994.9404583345,
      "d": 107.14287499999045,
      "v": 65
    },
    {
      "midi": 72,
      "hit": false,
      "t": 255163.3078333345,
      "d": 71.42858333332697,
      "v": 32
    },
    {
      "midi": 71,
      "hit": false,
      "t": 255199.02212500115,
      "d": 117.34695833333535,
      "v": 53
    },
    {
      "midi": 69,
      "hit": false,
      "t": 255306.16500000114,
      "d": 122.44900000002235,
      "v": 51
    },
    {
      "midi": 68,
      "hit": false,
      "t": 255479.63441666783,
      "d": 81.63266666667187,
      "v": 59
    },
    {
      "midi": 64,
      "hit": false,
      "t": 255500.0425833345,
      "d": 35.714291666663485,
      "v": 35
    },
    {
      "midi": 74,
      "hit": false,
      "t": 255602.08341666783,
      "d": 969.3879166666884,
      "v": 71
    },
    {
      "midi": 56,
      "hit": false,
      "t": 256188.8182083345,
      "d": 147.95920833334094,
      "v": 58
    },
    {
      "midi": 65,
      "hit": false,
      "t": 256199.02229166785,
      "d": 76.53062499998487,
      "v": 64
    },
    {
      "midi": 62,
      "hit": false,
      "t": 256204.1243333345,
      "d": 153.06124999999884,
      "v": 58
    },
    {
      "midi": 56,
      "hit": false,
      "t": 256683.7162500012,
      "d": 326.53066666668747,
      "v": 60
    },
    {
      "midi": 62,
      "hit": false,
      "t": 256693.92033333454,
      "d": 168.36737500000163,
      "v": 57
    },
    {
      "midi": 65,
      "hit": false,
      "t": 256693.92033333454,
      "d": 234.6939166666707,
      "v": 64
    },
    {
      "midi": 57,
      "hit": false,
      "t": 257137.79795833456,
      "d": 122.44899999999325,
      "v": 57
    },
    {
      "midi": 64,
      "hit": false,
      "t": 257142.90000000122,
      "d": 71.42858333332697,
      "v": 49
    },
    {
      "midi": 81,
      "hit": false,
      "t": 257148.00204166787,
      "d": 142.85716666668304,
      "v": 74
    },
    {
      "midi": 74,
      "hit": false,
      "t": 257153.10408333453,
      "d": 137.75512500002515,
      "v": 73
    },
    {
      "midi": 76,
      "hit": false,
      "t": 257158.2061250012,
      "d": 30.612250000005588,
      "v": 64
    },
    {
      "midi": 60,
      "hit": false,
      "t": 257158.2061250012,
      "d": 40.816333333350485,
      "v": 44
    },
    {
      "midi": 74,
      "hit": false,
      "t": 257622.4919166679,
      "d": 132.65308333333815,
      "v": 90
    },
    {
      "midi": 64,
      "hit": false,
      "t": 257627.59395833456,
      "d": 71.42858333335607,
      "v": 51
    },
    {
      "midi": 81,
      "hit": false,
      "t": 257637.7980416679,
      "d": 168.36737500000163,
      "v": 73
    },
    {
      "midi": 60,
      "hit": false,
      "t": 257648.00212500125,
      "d": 40.81633333332138,
      "v": 40
    },
    {
      "midi": 57,
      "hit": false,
      "t": 257648.00212500125,
      "d": 91.83674999998766,
      "v": 40
    },
    {
      "midi": 75,
      "hit": false,
      "t": 257806.1654166679,
      "d": 102.04083333333256,
      "v": 44
    },
    {
      "midi": 74,
      "hit": false,
      "t": 257862.28787500123,
      "d": 96.93879166667466,
      "v": 58
    },
    {
      "midi": 72,
      "hit": false,
      "t": 257954.12462500125,
      "d": 56.122458333324175,
      "v": 48
    },
    {
      "midi": 57,
      "hit": false,
      "t": 258056.16545833458,
      "d": 112.24491666667745,
      "v": 30
    },
    {
      "midi": 71,
      "hit": false,
      "t": 258061.26750000124,
      "d": 147.95920833334094,
      "v": 58
    },
    {
      "midi": 64,
      "hit": false,
      "t": 258071.47158333458,
      "d": 71.42858333332697,
      "v": 17
    },
    {
      "midi": 74,
      "hit": false,
      "t": 258239.83895833459,
      "d": 183.67349999997532,
      "v": 71
    },
    {
      "midi": 57,
      "hit": false,
      "t": 258331.67570833457,
      "d": 132.65308333330904,
      "v": 13
    },
    {
      "midi": 72,
      "hit": false,
      "t": 258372.4920416679,
      "d": 127.55104166665114,
      "v": 45
    },
    {
      "midi": 64,
      "hit": false,
      "t": 258556.16554166787,
      "d": 86.73470833332976,
      "v": 55
    },
    {
      "midi": 55,
      "hit": false,
      "t": 258994.9411250012,
      "d": 86.73470833332976,
      "v": 44
    },
    {
      "midi": 57,
      "hit": false,
      "t": 259010.2472500012,
      "d": 102.04083333333256,
      "v": 38
    },
    {
      "midi": 64,
      "hit": false,
      "t": 259025.5533750012,
      "d": 51.02041666666628,
      "v": 15
    },
    {
      "midi": 64,
      "hit": false,
      "t": 259479.63508333455,
      "d": 61.224500000011176,
      "v": 33
    },
    {
      "midi": 60,
      "hit": false,
      "t": 259510.24733333456,
      "d": 51.02041666666628,
      "v": 24
    },
    {
      "midi": 64,
      "hit": false,
      "t": 259903.10454166788,
      "d": 61.224500000011176,
      "v": 53
    },
    {
      "midi": 60,
      "hit": false,
      "t": 259918.41066666789,
      "d": 86.73470833335887,
      "v": 51
    },
    {
      "midi": 57,
      "hit": false,
      "t": 259938.81883333455,
      "d": 56.12245833335328,
      "v": 26
    },
    {
      "midi": 87,
      "hit": false,
      "t": 260214.32908333457,
      "d": 127.55104166665114,
      "v": 74
    },
    {
      "midi": 75,
      "hit": false,
      "t": 260219.43112500123,
      "d": 132.65308333333815,
      "v": 91
    },
    {
      "midi": 81,
      "hit": false,
      "t": 260234.73725000123,
      "d": 40.81633333332138,
      "v": 57
    },
    {
      "midi": 84,
      "hit": false,
      "t": 260239.8392916679,
      "d": 40.81633333332138,
      "v": 53
    },
    {
      "midi": 81,
      "hit": false,
      "t": 260387.79850000123,
      "d": 91.83675000004587,
      "v": 45
    },
    {
      "midi": 84,
      "hit": false,
      "t": 260387.79850000123,
      "d": 91.83675000004587,
      "v": 46
    },
    {
      "midi": 88,
      "hit": false,
      "t": 260392.90054166788,
      "d": 66.32654166669818,
      "v": 55
    },
    {
      "midi": 76,
      "hit": false,
      "t": 260392.90054166788,
      "d": 76.53062500004307,
      "v": 55
    },
    {
      "midi": 86,
      "hit": false,
      "t": 260418.41075000123,
      "d": 30.612250000005588,
      "v": 43
    },
    {
      "midi": 88,
      "hit": false,
      "t": 260525.55362500128,
      "d": 86.73470833332976,
      "v": 59
    },
    {
      "midi": 76,
      "hit": false,
      "t": 260535.75770833463,
      "d": 117.34695833333535,
      "v": 36
    },
    {
      "midi": 84,
      "hit": false,
      "t": 260556.1658750013,
      "d": 76.53062499998487,
      "v": 35
    },
    {
      "midi": 81,
      "hit": false,
      "t": 260556.1658750013,
      "d": 86.73470833332976,
      "v": 32
    },
    {
      "midi": 76,
      "hit": false,
      "t": 260678.6148750013,
      "d": 71.42858333332697,
      "v": 24
    },
    {
      "midi": 88,
      "hit": false,
      "t": 260683.71691666797,
      "d": 61.224500000011176,
      "v": 57
    },
    {
      "midi": 86,
      "hit": false,
      "t": 260704.12508333463,
      "d": 40.816333333350485,
      "v": 44
    },
    {
      "midi": 81,
      "hit": false,
      "t": 260704.12508333463,
      "d": 250.0000416666735,
      "v": 36
    },
    {
      "midi": 84,
      "hit": false,
      "t": 260714.32916666797,
      "d": 234.6939166666707,
      "v": 57
    },
    {
      "midi": 54,
      "hit": false,
      "t": 260785.7577500013,
      "d": 102.04083333333256,
      "v": 45
    },
    {
      "midi": 64,
      "hit": false,
      "t": 260790.85979166796,
      "d": 61.224500000011176,
      "v": 46
    },
    {
      "midi": 60,
      "hit": false,
      "t": 260816.3700000013,
      "d": 40.81633333332138,
      "v": 37
    },
    {
      "midi": 87,
      "hit": false,
      "t": 260816.3700000013,
      "d": 117.34695833333535,
      "v": 53
    },
    {
      "midi": 75,
      "hit": false,
      "t": 260821.47204166796,
      "d": 122.44900000002235,
      "v": 36
    },
    {
      "midi": 88,
      "hit": false,
      "t": 260989.83941666796,
      "d": 61.22449999998207,
      "v": 61
    },
    {
      "midi": 81,
      "hit": false,
      "t": 260989.83941666796,
      "d": 86.73470833330066,
      "v": 24
    },
    {
      "midi": 76,
      "hit": false,
      "t": 260994.94145833462,
      "d": 61.22449999998207,
      "v": 53
    },
    {
      "midi": 84,
      "hit": false,
      "t": 260994.94145833462,
      "d": 86.73470833330066,
      "v": 28
    },
    {
      "midi": 86,
      "hit": false,
      "t": 261010.24758333463,
      "d": 35.714291666663485,
      "v": 48
    },
    {
      "midi": 88,
      "hit": false,
      "t": 261117.3904583346,
      "d": 81.63266666667187,
      "v": 58
    },
    {
      "midi": 84,
      "hit": false,
      "t": 261137.79862500125,
      "d": 112.24491666667745,
      "v": 29
    },
    {
      "midi": 81,
      "hit": false,
      "t": 261137.79862500125,
      "d": 127.55104166668025,
      "v": 33
    },
    {
      "midi": 76,
      "hit": false,
      "t": 261148.0027083346,
      "d": 61.224500000011176,
      "v": 24
    },
    {
      "midi": 88,
      "hit": false,
      "t": 261285.7578333346,
      "d": 71.42858333332697,
      "v": 58
    },
    {
      "midi": 81,
      "hit": false,
      "t": 261290.85987500125,
      "d": 86.73470833332976,
      "v": 24
    },
    {
      "midi": 76,
      "hit": false,
      "t": 261301.0639583346,
      "d": 61.22449999998207,
      "v": 57
    },
    {
      "midi": 86,
      "hit": false,
      "t": 261306.16600000125,
      "d": 35.714291666663485,
      "v": 41
    },
    {
      "midi": 54,
      "hit": false,
      "t": 261336.77825000125,
      "d": 96.93879166664556,
      "v": 40
    },
    {
      "midi": 64,
      "hit": false,
      "t": 261357.18641666792,
      "d": 40.81633333332138,
      "v": 29
    },
    {
      "midi": 60,
      "hit": false,
      "t": 261367.39050000123,
      "d": 51.02041666666628,
      "v": 36
    },
    {
      "midi": 84,
      "hit": false,
      "t": 261438.81908333456,
      "d": 193.87758333334932,
      "v": 50
    },
    {
      "midi": 72,
      "hit": false,
      "t": 261454.12520833456,
      "d": 153.06124999999884,
      "v": 47
    },
    {
      "midi": 54,
      "hit": false,
      "t": 261709.22729166792,
      "d": 178.57145833334653,
      "v": 44
    },
    {
      "midi": 81,
      "hit": false,
      "t": 261714.32933333458,
      "d": 127.55104166668025,
      "v": 66
    },
    {
      "midi": 62,
      "hit": false,
      "t": 262030.65591666792,
      "d": 107.14287500001956,
      "v": 53
    },
    {
      "midi": 84,
      "hit": false,
      "t": 262030.65591666792,
      "d": 142.85716666668304,
      "v": 82
    },
    {
      "midi": 55,
      "hit": false,
      "t": 262040.86000000127,
      "d": 112.24491666664835,
      "v": 44
    },
    {
      "midi": 58,
      "hit": false,
      "t": 262056.16612500127,
      "d": 112.24491666664835,
      "v": 29
    },
    {
      "midi": 57,
      "hit": false,
      "t": 262066.3702083346,
      "d": 51.02041666666628,
      "v": 29
    },
    {
      "midi": 82,
      "hit": false,
      "t": 262346.98250000126,
      "d": 127.55104166665114,
      "v": 77
    },
    {
      "midi": 62,
      "hit": false,
      "t": 262673.5131666679,
      "d": 285.7143333333079,
      "v": 37
    },
    {
      "midi": 81,
      "hit": false,
      "t": 262673.5131666679,
      "d": 397.9592499999562,
      "v": 66
    },
    {
      "midi": 58,
      "hit": false,
      "t": 262683.7172500012,
      "d": 346.93883333331905,
      "v": 39
    },
    {
      "midi": 55,
      "hit": false,
      "t": 262693.9213333345,
      "d": 331.63270833331626,
      "v": 33
    },
    {
      "midi": 82,
      "hit": false,
      "t": 263107.18670833454,
      "d": 122.44900000002235,
      "v": 64
    },
    {
      "midi": 54,
      "hit": false,
      "t": 263224.5336666679,
      "d": 209.18370833335212,
      "v": 39
    },
    {
      "midi": 58,
      "hit": false,
      "t": 263244.94183333457,
      "d": 142.85716666665394,
      "v": 30
    },
    {
      "midi": 81,
      "hit": false,
      "t": 263244.94183333457,
      "d": 153.06124999996973,
      "v": 54
    },
    {
      "midi": 79,
      "hit": false,
      "t": 263459.22758333455,
      "d": 56.122458333324175,
      "v": 36
    },
    {
      "midi": 75,
      "hit": false,
      "t": 263561.2684166679,
      "d": 178.57145833334653,
      "v": 48
    },
    {
      "midi": 75,
      "hit": false,
      "t": 263887.79908333457,
      "d": 147.95920833334094,
      "v": 52
    },
    {
      "midi": 62,
      "hit": false,
      "t": 263898.0031666679,
      "d": 219.3877916666679,
      "v": 47
    },
    {
      "midi": 54,
      "hit": false,
      "t": 263903.1052083346,
      "d": 270.4082083333051,
      "v": 30
    },
    {
      "midi": 58,
      "hit": false,
      "t": 263913.3092916679,
      "d": 193.87758333334932,
      "v": 35
    },
    {
      "midi": 62,
      "hit": false,
      "t": 264352.0848750012,
      "d": 91.83674999995856,
      "v": 45
    },
    {
      "midi": 53,
      "hit": false,
      "t": 264352.0848750012,
      "d": 96.93879166664556,
      "v": 40
    },
    {
      "midi": 58,
      "hit": false,
      "t": 264362.28895833454,
      "d": 132.65308333333815,
      "v": 35
    },
    {
      "midi": 62,
      "hit": false,
      "t": 264790.86045833456,
      "d": 198.9796249999781,
      "v": 41
    },
    {
      "midi": 53,
      "hit": false,
      "t": 264801.0645416679,
      "d": 295.9184166666819,
      "v": 36
    },
    {
      "midi": 58,
      "hit": false,
      "t": 264806.16658333456,
      "d": 290.8163749999949,
      "v": 38
    },
    {
      "midi": 79,
      "hit": false,
      "t": 265112.28908333456,
      "d": 132.65308333333815,
      "v": 90
    },
    {
      "midi": 81,
      "hit": false,
      "t": 265270.4523750012,
      "d": 81.63266666670097,
      "v": 55
    },
    {
      "midi": 79,
      "hit": false,
      "t": 265331.6768750012,
      "d": 96.93879166670376,
      "v": 36
    },
    {
      "midi": 78,
      "hit": false,
      "t": 265413.3095416679,
      "d": 96.93879166664556,
      "v": 55
    },
    {
      "midi": 79,
      "hit": false,
      "t": 265591.8810000012,
      "d": 122.44900000002235,
      "v": 60
    },
    {
      "midi": 81,
      "hit": false,
      "t": 265719.4320416679,
      "d": 127.55104166665114,
      "v": 51
    },
    {
      "midi": 82,
      "hit": false,
      "t": 265872.4932916679,
      "d": 81.63266666664276,
      "v": 64
    },
    {
      "midi": 84,
      "hit": false,
      "t": 266015.35045833455,
      "d": 112.24491666664835,
      "v": 63
    },
    {
      "midi": 85,
      "hit": false,
      "t": 266178.6157916679,
      "d": 112.24491666670656,
      "v": 75
    },
    {
      "midi": 52,
      "hit": false,
      "t": 266265.3505000012,
      "d": 102.04083333339076,
      "v": 26
    },
    {
      "midi": 58,
      "hit": false,
      "t": 266270.4525416679,
      "d": 214.28575000009732,
      "v": 25
    },
    {
      "midi": 60,
      "hit": false,
      "t": 266275.5545833346,
      "d": 173.46941666671773,
      "v": 20
    },
    {
      "midi": 87,
      "hit": false,
      "t": 266316.3709166679,
      "d": 96.93879166670376,
      "v": 51
    },
    {
      "midi": 88,
      "hit": false,
      "t": 266469.432166668,
      "d": 102.04083333333256,
      "v": 64
    },
    {
      "midi": 91,
      "hit": false,
      "t": 266607.18729166803,
      "d": 96.93879166670376,
      "v": 27
    },
    {
      "midi": 89,
      "hit": false,
      "t": 266612.2893333347,
      "d": 45.91837500000838,
      "v": 30
    },
    {
      "midi": 96,
      "hit": false,
      "t": 266775.55466666806,
      "d": 56.122458333324175,
      "v": 67
    },
    {
      "midi": 63,
      "hit": false,
      "t": 266882.6975416681,
      "d": 112.24491666664835,
      "v": 46
    },
    {
      "midi": 55,
      "hit": false,
      "t": 266923.5138750014,
      "d": 56.122458333324175,
      "v": 31
    },
    {
      "midi": 99,
      "hit": false,
      "t": 266923.5138750014,
      "d": 76.53062500001397,
      "v": 46
    },
    {
      "midi": 57,
      "hit": false,
      "t": 266933.7179583347,
      "d": 229.5918750000419,
      "v": 39
    },
    {
      "midi": 100,
      "hit": false,
      "t": 266949.0240833347,
      "d": 35.71429166669259,
      "v": 47
    },
    {
      "midi": 105,
      "hit": false,
      "t": 267107.18737500143,
      "d": 107.14287500001956,
      "v": 79
    },
    {
      "midi": 99,
      "hit": false,
      "t": 267224.53433333477,
      "d": 117.34695833333535,
      "v": 63
    },
    {
      "midi": 63,
      "hit": false,
      "t": 267556.1670416681,
      "d": 265.3061666666763,
      "v": 23
    },
    {
      "midi": 60,
      "hit": false,
      "t": 267581.6772500014,
      "d": 147.95920833334094,
      "v": 31
    },
    {
      "midi": 55,
      "hit": false,
      "t": 267586.7792916681,
      "d": 127.55104166665114,
      "v": 31
    },
    {
      "midi": 57,
      "hit": false,
      "t": 267586.7792916681,
      "d": 158.16329166665673,
      "v": 37
    },
    {
      "midi": 98,
      "hit": false,
      "t": 267887.7997500014,
      "d": 112.24491666664835,
      "v": 82
    },
    {
      "midi": 63,
      "hit": false,
      "t": 268035.75895833474,
      "d": 112.24491666670656,
      "v": 29
    },
    {
      "midi": 99,
      "hit": false,
      "t": 268040.86100000143,
      "d": 91.83675000001676,
      "v": 49
    },
    {
      "midi": 98,
      "hit": false,
      "t": 268081.67733333475,
      "d": 102.04083333339076,
      "v": 49
    },
    {
      "midi": 96,
      "hit": false,
      "t": 268188.82020833483,
      "d": 96.93879166664556,
      "v": 51
    },
    {
      "midi": 62,
      "hit": false,
      "t": 268372.4937083348,
      "d": 91.83675000001676,
      "v": 40
    },
    {
      "midi": 94,
      "hit": false,
      "t": 268372.4937083348,
      "d": 117.34695833333535,
      "v": 67
    },
    {
      "midi": 54,
      "hit": false,
      "t": 268377.5957500015,
      "d": 102.04083333333256,
      "v": 33
    },
    {
      "midi": 60,
      "hit": false,
      "t": 268382.6977916682,
      "d": 91.83674999995856,
      "v": 32
    },
    {
      "midi": 93,
      "hit": false,
      "t": 268632.6978333348,
      "d": 122.44899999996414,
      "v": 75
    },
    {
      "midi": 54,
      "hit": false,
      "t": 268642.9019166681,
      "d": 336.73474999994505,
      "v": 53
    },
    {
      "midi": 62,
      "hit": false,
      "t": 268648.0039583348,
      "d": 96.93879166664556,
      "v": 50
    },
    {
      "midi": 60,
      "hit": false,
      "t": 268648.0039583348,
      "d": 117.34695833327714,
      "v": 55
    },
    {
      "midi": 91,
      "hit": false,
      "t": 268806.1672500014,
      "d": 168.36737499997253,
      "v": 62
    },
    {
      "midi": 62,
      "hit": false,
      "t": 268821.4733750014,
      "d": 127.55104166665114,
      "v": 44
    },
    {
      "midi": 60,
      "hit": false,
      "t": 268821.4733750014,
      "d": 183.67349999997532,
      "v": 15
    },
    {
      "midi": 54,
      "hit": false,
      "t": 269071.473416668,
      "d": 204.08166666666511,
      "v": 48
    },
    {
      "midi": 90,
      "hit": false,
      "t": 269076.5754583347,
      "d": 204.08166666666511,
      "v": 55
    },
    {
      "midi": 61,
      "hit": false,
      "t": 269387.8000000014,
      "d": 188.77554166672053,
      "v": 46
    },
    {
      "midi": 94,
      "hit": false,
      "t": 269403.1061250014,
      "d": 183.67350000003353,
      "v": 58
    },
    {
      "midi": 53,
      "hit": false,
      "t": 269408.2081666681,
      "d": 178.57145833334653,
      "v": 30
    },
    {
      "midi": 58,
      "hit": false,
      "t": 269408.2081666681,
      "d": 346.93883333331905,
      "v": 37
    },
    {
      "midi": 55,
      "hit": false,
      "t": 269413.31020833476,
      "d": 163.26533333334373,
      "v": 52
    },
    {
      "midi": 82,
      "hit": false,
      "t": 269413.31020833476,
      "d": 173.46941666665953,
      "v": 35
    },
    {
      "midi": 61,
      "hit": false,
      "t": 269882.69804166805,
      "d": 234.69391666678712,
      "v": 49
    },
    {
      "midi": 94,
      "hit": false,
      "t": 269903.10620833474,
      "d": 122.44900000002235,
      "v": 55
    },
    {
      "midi": 53,
      "hit": false,
      "t": 269903.10620833474,
      "d": 158.16329166671494,
      "v": 28
    },
    {
      "midi": 82,
      "hit": false,
      "t": 269918.41233333474,
      "d": 163.26533333340194,
      "v": 35
    },
    {
      "midi": 55,
      "hit": false,
      "t": 269923.5143750014,
      "d": 122.44900000002235,
      "v": 37
    },
    {
      "midi": 63,
      "hit": false,
      "t": 270311.2695416682,
      "d": 81.63266666664276,
      "v": 48
    },
    {
      "midi": 52,
      "hit": false,
      "t": 270326.5756666682,
      "d": 76.53062499995576,
      "v": 30
    },
    {
      "midi": 58,
      "hit": false,
      "t": 270326.5756666682,
      "d": 255.1020833333023,
      "v": 31
    },
    {
      "midi": 85,
      "hit": false,
      "t": 270627.5961250015,
      "d": 91.83675000001676,
      "v": 83
    },
    {
      "midi": 73,
      "hit": false,
      "t": 270632.6981666682,
      "d": 76.53062500001397,
      "v": 74
    },
    {
      "midi": 80,
      "hit": false,
      "t": 270637.80020833487,
      "d": 102.04083333333256,
      "v": 73
    },
    {
      "midi": 85,
      "hit": false,
      "t": 270790.8614583349,
      "d": 127.55104166665114,
      "v": 62
    },
    {
      "midi": 73,
      "hit": false,
      "t": 270801.0655416682,
      "d": 102.04083333333256,
      "v": 46
    },
    {
      "midi": 80,
      "hit": false,
      "t": 270801.0655416682,
      "d": 117.34695833333535,
      "v": 38
    },
    {
      "midi": 84,
      "hit": false,
      "t": 270928.61658333486,
      "d": 76.53062499995576,
      "v": 63
    },
    {
      "midi": 72,
      "hit": false,
      "t": 270938.8206666682,
      "d": 86.73470833332976,
      "v": 40
    },
    {
      "midi": 84,
      "hit": false,
      "t": 271086.7798750015,
      "d": 66.32654166669818,
      "v": 65
    },
    {
      "midi": 72,
      "hit": false,
      "t": 271091.8819166682,
      "d": 61.224500000011176,
      "v": 64
    },
    {
      "midi": 83,
      "hit": false,
      "t": 271122.4941666682,
      "d": 35.71429166669259,
      "v": 33
    },
    {
      "midi": 63,
      "hit": false,
      "t": 271148.00437500153,
      "d": 45.91837500006659,
      "v": 33
    },
    {
      "midi": 52,
      "hit": false,
      "t": 271153.1064166682,
      "d": 204.08166666672332,
      "v": 35
    },
    {
      "midi": 58,
      "hit": false,
      "t": 271178.6166250016,
      "d": 255.1020833333023,
      "v": 25
    },
    {
      "midi": 70,
      "hit": false,
      "t": 271234.7390833349,
      "d": 107.14287500001956,
      "v": 56
    },
    {
      "midi": 82,
      "hit": false,
      "t": 271398.00441666826,
      "d": 132.65308333333815,
      "v": 60
    },
    {
      "midi": 70,
      "hit": false,
      "t": 271408.2085000016,
      "d": 86.73470833332976,
      "v": 67
    },
    {
      "midi": 81,
      "hit": false,
      "t": 271540.8615833349,
      "d": 193.87758333334932,
      "v": 62
    },
    {
      "midi": 69,
      "hit": false,
      "t": 271545.9636250016,
      "d": 173.46941666665953,
      "v": 57
    },
    {
      "midi": 81,
      "hit": false,
      "t": 271831.6779583349,
      "d": 147.95920833345735,
      "v": 58
    },
    {
      "midi": 64,
      "hit": false,
      "t": 271841.8820416682,
      "d": 66.32654166675638,
      "v": 25
    },
    {
      "midi": 69,
      "hit": false,
      "t": 271846.9840833349,
      "d": 76.53062500007218,
      "v": 58
    },
    {
      "midi": 57,
      "hit": false,
      "t": 271852.0861250016,
      "d": 76.53062500007218,
      "v": 35
    },
    {
      "midi": 60,
      "hit": false,
      "t": 271857.1881666683,
      "d": 56.12245833338238,
      "v": 33
    },
    {
      "midi": 81,
      "hit": false,
      "t": 272137.800458335,
      "d": 132.65308333333815,
      "v": 61
    },
    {
      "midi": 80,
      "hit": false,
      "t": 272331.6780416684,
      "d": 71.42858333332697,
      "v": 36
    },
    {
      "midi": 57,
      "hit": false,
      "t": 272438.8209166684,
      "d": 260.2041250000475,
      "v": 20
    },
    {
      "midi": 81,
      "hit": false,
      "t": 272459.2290833351,
      "d": 234.6939166666707,
      "v": 48
    },
    {
      "midi": 77,
      "hit": false,
      "t": 272734.73933333514,
      "d": 71.42858333332697,
      "v": 57
    },
    {
      "midi": 81,
      "hit": false,
      "t": 273035.75979166845,
      "d": 71.42858333332697,
      "v": 74
    },
    {
      "midi": 81,
      "hit": false,
      "t": 273392.9027083351,
      "d": 56.12245833338238,
      "v": 45
    },
    {
      "midi": 83,
      "hit": false,
      "t": 273398.00475000177,
      "d": 35.71429166669259,
      "v": 43
    },
    {
      "midi": 82,
      "hit": false,
      "t": 273469.43333333515,
      "d": 96.93879166664556,
      "v": 34
    },
    {
      "midi": 81,
      "hit": false,
      "t": 273551.0660000018,
      "d": 81.63266666664276,
      "v": 38
    },
    {
      "midi": 77,
      "hit": false,
      "t": 273622.4945833351,
      "d": 86.73470833332976,
      "v": 41
    },
    {
      "midi": 81,
      "hit": false,
      "t": 273719.43337500177,
      "d": 224.4898333333549,
      "v": 55
    },
    {
      "midi": 57,
      "hit": false,
      "t": 273943.9232083351,
      "d": 40.81633333332138,
      "v": 24
    },
    {
      "midi": 77,
      "hit": false,
      "t": 273989.84158333513,
      "d": 96.93879166664556,
      "v": 53
    },
    {
      "midi": 60,
      "hit": false,
      "t": 274290.86204166844,
      "d": 66.32654166663997,
      "v": 51
    },
    {
      "midi": 57,
      "hit": false,
      "t": 274316.37225000176,
      "d": 45.91837500000838,
      "v": 25
    },
    {
      "midi": 81,
      "hit": false,
      "t": 274750.0457916684,
      "d": 163.26533333334373,
      "v": 80
    },
    {
      "midi": 53,
      "hit": false,
      "t": 274770.4539583351,
      "d": 122.44899999996414,
      "v": 45
    },
    {
      "midi": 57,
      "hit": false,
      "t": 274780.6580416684,
      "d": 40.81633333332138,
      "v": 40
    },
    {
      "midi": 82,
      "hit": false,
      "t": 274964.33154166845,
      "d": 81.63266666670097,
      "v": 29
    },
    {
      "midi": 81,
      "hit": false,
      "t": 275000.04583333514,
      "d": 102.04083333339076,
      "v": 49
    },
    {
      "midi": 80,
      "hit": false,
      "t": 275081.67850000184,
      "d": 61.224500000011176,
      "v": 55
    },
    {
      "midi": 81,
      "hit": false,
      "t": 275204.12750000186,
      "d": 168.36737499997253,
      "v": 78
    },
    {
      "midi": 60,
      "hit": false,
      "t": 275704.12758333515,
      "d": 30.612250000063796,
      "v": 33
    },
    {
      "midi": 53,
      "hit": false,
      "t": 275709.22962500184,
      "d": 102.04083333339076,
      "v": 32
    },
    {
      "midi": 57,
      "hit": false,
      "t": 275714.3316666685,
      "d": 40.81633333337959,
      "v": 32
    },
    {
      "midi": 81,
      "hit": false,
      "t": 275811.27045833523,
      "d": 153.06125000002794,
      "v": 90
    },
    {
      "midi": 82,
      "hit": false,
      "t": 275989.8419166686,
      "d": 137.75512500002515,
      "v": 62
    },
    {
      "midi": 81,
      "hit": false,
      "t": 276153.1072500019,
      "d": 132.65308333333815,
      "v": 48
    },
    {
      "midi": 80,
      "hit": false,
      "t": 276311.2705416686,
      "d": 91.83675000001676,
      "v": 69
    },
    {
      "midi": 65,
      "hit": false,
      "t": 276357.1889166686,
      "d": 30.612250000005588,
      "v": 32
    },
    {
      "midi": 79,
      "hit": false,
      "t": 276449.0256666686,
      "d": 107.14287500001956,
      "v": 56
    },
    {
      "midi": 78,
      "hit": false,
      "t": 276612.29100000195,
      "d": 122.44900000002235,
      "v": 52
    },
    {
      "midi": 65,
      "hit": false,
      "t": 276734.74000000197,
      "d": 260.2041250000475,
      "v": 35
    },
    {
      "midi": 62,
      "hit": false,
      "t": 276739.84204166866,
      "d": 341.83679166669026,
      "v": 33
    },
    {
      "midi": 77,
      "hit": false,
      "t": 276744.94408333534,
      "d": 188.77554166666232,
      "v": 55
    },
    {
      "midi": 57,
      "hit": false,
      "t": 276765.35225000203,
      "d": 520.4082499999786,
      "v": 38
    },
    {
      "midi": 74,
      "hit": false,
      "t": 277051.06658333534,
      "d": 147.95920833334094,
      "v": 45
    },
    {
      "midi": 74,
      "hit": false,
      "t": 277357.18908333534,
      "d": 168.36737499997253,
      "v": 51
    },
    {
      "midi": 65,
      "hit": false,
      "t": 277571.4748333353,
      "d": 35.71429166669259,
      "v": 32
    },
    {
      "midi": 69,
      "hit": false,
      "t": 277658.2095416687,
      "d": 178.57145833334653,
      "v": 44
    },
    {
      "midi": 69,
      "hit": false,
      "t": 277979.6381666687,
      "d": 137.75512500002515,
      "v": 44
    },
    {
      "midi": 57,
      "hit": false,
      "t": 278295.9647500021,
      "d": 244.8980000000447,
      "v": 47
    },
    {
      "midi": 65,
      "hit": false,
      "t": 278301.06679166877,
      "d": 209.18370833335212,
      "v": 36
    },
    {
      "midi": 62,
      "hit": false,
      "t": 278306.16883333545,
      "d": 214.2857499999809,
      "v": 46
    },
    {
      "midi": 65,
      "hit": false,
      "t": 278770.4546250021,
      "d": 346.93883333337726,
      "v": 58
    },
    {
      "midi": 62,
      "hit": false,
      "t": 278770.4546250021,
      "d": 428.57150000007823,
      "v": 51
    },
    {
      "midi": 56,
      "hit": false,
      "t": 278775.5566666688,
      "d": 346.93883333337726,
      "v": 40
    },
    {
      "midi": 43,
      "hit": false,
      "t": 279153.1077500022,
      "d": 56.122458333324175,
      "v": 60
    },
    {
      "midi": 44,
      "hit": false,
      "t": 279260.2506250022,
      "d": 76.53062499995576,
      "v": 50
    },
    {
      "midi": 46,
      "hit": false,
      "t": 279326.57716666884,
      "d": 66.32654166663997,
      "v": 57
    },
    {
      "midi": 47,
      "hit": false,
      "t": 279403.1077916688,
      "d": 51.02041666669538,
      "v": 47
    },
    {
      "midi": 49,
      "hit": false,
      "t": 279484.7404583355,
      "d": 45.91837500000838,
      "v": 57
    },
    {
      "midi": 50,
      "hit": false,
      "t": 279576.5772083355,
      "d": 71.42858333332697,
      "v": 54
    },
    {
      "midi": 51,
      "hit": false,
      "t": 279622.4955833355,
      "d": 30.612250000005588,
      "v": 32
    },
    {
      "midi": 52,
      "hit": false,
      "t": 279653.1078333355,
      "d": 56.122458333324175,
      "v": 54
    },
    {
      "midi": 53,
      "hit": false,
      "t": 279724.53641666885,
      "d": 35.71429166669259,
      "v": 49
    },
    {
      "midi": 55,
      "hit": false,
      "t": 279806.16908333555,
      "d": 66.32654166663997,
      "v": 62
    },
    {
      "midi": 56,
      "hit": false,
      "t": 279877.5976666689,
      "d": 71.42858333332697,
      "v": 49
    },
    {
      "midi": 59,
      "hit": false,
      "t": 280025.5568750022,
      "d": 30.612250000005588,
      "v": 53
    },
    {
      "midi": 61,
      "hit": false,
      "t": 280091.8834166689,
      "d": 45.91837500000838,
      "v": 40
    },
    {
      "midi": 62,
      "hit": false,
      "t": 280193.92425000225,
      "d": 35.71429166669259,
      "v": 45
    },
    {
      "midi": 63,
      "hit": false,
      "t": 280224.53650000226,
      "d": 30.612250000005588,
      "v": 45
    },
    {
      "midi": 64,
      "hit": false,
      "t": 280265.3528333356,
      "d": 66.32654166663997,
      "v": 53
    },
    {
      "midi": 65,
      "hit": false,
      "t": 280336.7814166689,
      "d": 30.612250000005588,
      "v": 53
    },
    {
      "midi": 65,
      "hit": false,
      "t": 280428.6181666689,
      "d": 40.81633333332138,
      "v": 38
    },
    {
      "midi": 67,
      "hit": false,
      "t": 280877.5978333356,
      "d": 71.42858333332697,
      "v": 75
    },
    {
      "midi": 56,
      "hit": false,
      "t": 280949.0264166689,
      "d": 66.32654166663997,
      "v": 27
    },
    {
      "midi": 68,
      "hit": false,
      "t": 280974.5366250022,
      "d": 71.42858333332697,
      "v": 51
    },
    {
      "midi": 70,
      "hit": false,
      "t": 281056.16929166886,
      "d": 25.510208333318587,
      "v": 52
    },
    {
      "midi": 71,
      "hit": false,
      "t": 281122.4958333355,
      "d": 76.53062500007218,
      "v": 44
    },
    {
      "midi": 56,
      "hit": false,
      "t": 281183.7203333355,
      "d": 147.95920833351556,
      "v": 37
    },
    {
      "midi": 62,
      "hit": false,
      "t": 281188.8223750022,
      "d": 86.73470833344618,
      "v": 50
    },
    {
      "midi": 67,
      "hit": false,
      "t": 281193.9244166689,
      "d": 40.81633333337959,
      "v": 34
    },
    {
      "midi": 72,
      "hit": false,
      "t": 281214.3325833356,
      "d": 40.81633333337959,
      "v": 36
    },
    {
      "midi": 73,
      "hit": false,
      "t": 281250.04687500227,
      "d": 76.53062500007218,
      "v": 44
    },
    {
      "midi": 74,
      "hit": false,
      "t": 281362.29179166903,
      "d": 86.73470833332976,
      "v": 31
    },
    {
      "midi": 76,
      "hit": false,
      "t": 281423.51629166905,
      "d": 91.83675000001676,
      "v": 43
    },
    {
      "midi": 77,
      "hit": false,
      "t": 281500.04691666906,
      "d": 147.95920833334094,
      "v": 73
    },
    {
      "midi": 64,
      "hit": false,
      "t": 281576.5775416691,
      "d": 285.7143333333079,
      "v": 43
    },
    {
      "midi": 60,
      "hit": false,
      "t": 281586.7816250024,
      "d": 367.34700000006706,
      "v": 48
    },
    {
      "midi": 57,
      "hit": false,
      "t": 281596.9857083357,
      "d": 321.4286250000587,
      "v": 33
    },
    {
      "midi": 76,
      "hit": false,
      "t": 281602.0877500024,
      "d": 173.46941666665953,
      "v": 77
    },
    {
      "midi": 72,
      "hit": false,
      "t": 281898.0061666691,
      "d": 127.55104166670935,
      "v": 64
    },
    {
      "midi": 71,
      "hit": false,
      "t": 282234.74091666914,
      "d": 107.14287500001956,
      "v": 55
    },
    {
      "midi": 64,
      "hit": false,
      "t": 282239.8429583358,
      "d": 132.65308333333815,
      "v": 26
    },
    {
      "midi": 60,
      "hit": false,
      "t": 282239.8429583358,
      "d": 295.9184166666819,
      "v": 36
    },
    {
      "midi": 57,
      "hit": false,
      "t": 282250.04704166914,
      "d": 321.4286250000587,
      "v": 27
    },
    {
      "midi": 72,
      "hit": false,
      "t": 282398.0062500025,
      "d": 91.83675000001676,
      "v": 36
    },
    {
      "midi": 71,
      "hit": false,
      "t": 282459.2307500025,
      "d": 91.83675000001676,
      "v": 56
    },
    {
      "midi": 70,
      "hit": false,
      "t": 282576.5777083359,
      "d": 96.93879166664556,
      "v": 49
    },
    {
      "midi": 74,
      "hit": false,
      "t": 282775.55733333586,
      "d": 91.83675000001676,
      "v": 68
    },
    {
      "midi": 71,
      "hit": false,
      "t": 283056.16962500254,
      "d": 66.32654166663997,
      "v": 72
    },
    {
      "midi": 56,
      "hit": false,
      "t": 283066.37370833586,
      "d": 122.44900000002235,
      "v": 33
    },
    {
      "midi": 72,
      "hit": false,
      "t": 283183.7206666692,
      "d": 183.67350000003353,
      "v": 68
    },
    {
      "midi": 69,
      "hit": false,
      "t": 283387.8023333359,
      "d": 86.73470833332976,
      "v": 55
    },
    {
      "midi": 64,
      "hit": false,
      "t": 283530.65950000257,
      "d": 163.26533333334373,
      "v": 22
    },
    {
      "midi": 64,
      "hit": false,
      "t": 283780.65954166924,
      "d": 81.63266666670097,
      "v": 44
    },
    {
      "midi": 55,
      "hit": false,
      "t": 283785.76158333593,
      "d": 91.83675000001676,
      "v": 35
    },
    {
      "midi": 60,
      "hit": false,
      "t": 283816.37383333594,
      "d": 66.32654166669818,
      "v": 26
    },
    {
      "midi": 60,
      "hit": false,
      "t": 284086.7820416693,
      "d": 137.75512499996694,
      "v": 39
    },
    {
      "midi": 57,
      "hit": false,
      "t": 284112.2922500026,
      "d": 158.16329166665673,
      "v": 34
    },
    {
      "midi": 64,
      "hit": false,
      "t": 284571.4760000026,
      "d": 35.71429166669259,
      "v": 33
    },
    {
      "midi": 60,
      "hit": false,
      "t": 284591.8841666693,
      "d": 35.71429166669259,
      "v": 28
    },
    {
      "midi": 57,
      "hit": false,
      "t": 284591.8841666693,
      "d": 86.73470833338797,
      "v": 39
    },
    {
      "midi": 76,
      "hit": false,
      "t": 284734.741333336,
      "d": 91.83675000001676,
      "v": 35
    },
    {
      "midi": 77,
      "hit": false,
      "t": 284877.5985000027,
      "d": 81.63266666664276,
      "v": 60
    },
    {
      "midi": 81,
      "hit": false,
      "t": 285000.04750000266,
      "d": 102.04083333333256,
      "v": 58
    },
    {
      "midi": 84,
      "hit": false,
      "t": 285158.2107916693,
      "d": 61.224500000011176,
      "v": 73
    },
    {
      "midi": 64,
      "hit": false,
      "t": 285224.537333336,
      "d": 30.612250000005588,
      "v": 24
    },
    {
      "midi": 60,
      "hit": false,
      "t": 285250.04754166934,
      "d": 40.81633333337959,
      "v": 19
    },
    {
      "midi": 57,
      "hit": false,
      "t": 285255.149583336,
      "d": 56.12245833338238,
      "v": 29
    },
    {
      "midi": 87,
      "hit": false,
      "t": 285311.2720416694,
      "d": 122.44900000002235,
      "v": 74
    },
    {
      "midi": 75,
      "hit": false,
      "t": 285316.3740833361,
      "d": 147.95920833334094,
      "v": 53
    },
    {
      "midi": 88,
      "hit": false,
      "t": 285449.02716666943,
      "d": 56.12245833326597,
      "v": 30
    },
    {
      "midi": 84,
      "hit": false,
      "t": 285459.23125000275,
      "d": 117.34695833333535,
      "v": 30
    },
    {
      "midi": 81,
      "hit": false,
      "t": 285474.53737500275,
      "d": 102.04083333333256,
      "v": 19
    },
    {
      "midi": 86,
      "hit": false,
      "t": 285484.74145833607,
      "d": 56.122458333324175,
      "v": 22
    },
    {
      "midi": 76,
      "hit": false,
      "t": 285494.9455416694,
      "d": 51.02041666669538,
      "v": 36
    },
    {
      "midi": 76,
      "hit": false,
      "t": 285622.4965833361,
      "d": 102.04083333333256,
      "v": 62
    },
    {
      "midi": 84,
      "hit": false,
      "t": 285632.7006666694,
      "d": 142.85716666665394,
      "v": 60
    },
    {
      "midi": 81,
      "hit": false,
      "t": 285632.7006666694,
      "d": 147.95920833334094,
      "v": 36
    },
    {
      "midi": 86,
      "hit": false,
      "t": 285653.1088333361,
      "d": 96.93879166664556,
      "v": 38
    },
    {
      "midi": 86,
      "hit": false,
      "t": 285831.68029166944,
      "d": 66.32654166675638,
      "v": 47
    },
    {
      "midi": 81,
      "hit": false,
      "t": 285852.08845833613,
      "d": 71.42858333338518,
      "v": 27
    },
    {
      "midi": 88,
      "hit": false,
      "t": 285857.1905000028,
      "d": 35.71429166669259,
      "v": 52
    },
    {
      "midi": 76,
      "hit": false,
      "t": 285857.1905000028,
      "d": 40.81633333337959,
      "v": 35
    },
    {
      "midi": 87,
      "hit": false,
      "t": 285989.84358333616,
      "d": 112.24491666670656,
      "v": 73
    },
    {
      "midi": 75,
      "hit": false,
      "t": 285989.84358333616,
      "d": 122.44900000008056,
      "v": 68
    },
    {
      "midi": 60,
      "hit": false,
      "t": 286005.14970833616,
      "d": 35.71429166669259,
      "v": 43
    },
    {
      "midi": 85,
      "hit": false,
      "t": 286005.14970833616,
      "d": 178.57145833340473,
      "v": 34
    },
    {
      "midi": 81,
      "hit": false,
      "t": 286020.45583333616,
      "d": 193.87758333340753,
      "v": 45
    },
    {
      "midi": 84,
      "hit": false,
      "t": 286051.06808333617,
      "d": 147.95920833339915,
      "v": 42
    },
    {
      "midi": 86,
      "hit": false,
      "t": 286096.9864583362,
      "d": 96.93879166670376,
      "v": 19
    },
    {
      "midi": 88,
      "hit": false,
      "t": 286107.19054166955,
      "d": 61.224500000011176,
      "v": 72
    },
    {
      "midi": 76,
      "hit": false,
      "t": 286137.80279166956,
      "d": 45.91837500000838,
      "v": 49
    },
    {
      "midi": 88,
      "hit": false,
      "t": 286239.8436250029,
      "d": 86.73470833327156,
      "v": 66
    },
    {
      "midi": 76,
      "hit": false,
      "t": 286250.0477083362,
      "d": 96.93879166664556,
      "v": 59
    },
    {
      "midi": 81,
      "hit": false,
      "t": 286260.2517916695,
      "d": 86.73470833332976,
      "v": 37
    },
    {
      "midi": 84,
      "hit": false,
      "t": 286270.45587500284,
      "d": 81.63266666670097,
      "v": 63
    },
    {
      "midi": 86,
      "hit": false,
      "t": 286285.76200000284,
      "d": 40.81633333332138,
      "v": 40
    },
    {
      "midi": 88,
      "hit": false,
      "t": 286403.10895833623,
      "d": 71.42858333338518,
      "v": 69
    },
    {
      "midi": 76,
      "hit": false,
      "t": 286408.2110000029,
      "d": 66.32654166669818,
      "v": 63
    },
    {
      "midi": 86,
      "hit": false,
      "t": 286423.5171250029,
      "d": 61.224500000011176,
      "v": 53
    },
    {
      "midi": 81,
      "hit": false,
      "t": 286423.5171250029,
      "d": 112.24491666664835,
      "v": 64
    },
    {
      "midi": 84,
      "hit": false,
      "t": 286428.6191666696,
      "d": 86.73470833332976,
      "v": 57
    },
    {
      "midi": 60,
      "hit": false,
      "t": 286505.1497916696,
      "d": 35.71429166663438,
      "v": 46
    },
    {
      "midi": 57,
      "hit": false,
      "t": 286525.55795833626,
      "d": 51.020416666637175,
      "v": 30
    },
    {
      "midi": 53,
      "hit": false,
      "t": 286535.7620416696,
      "d": 102.04083333333256,
      "v": 26
    },
    {
      "midi": 87,
      "hit": false,
      "t": 286566.3742916696,
      "d": 81.63266666664276,
      "v": 60
    },
    {
      "midi": 75,
      "hit": false,
      "t": 286576.5783750029,
      "d": 81.63266666664276,
      "v": 35
    },
    {
      "midi": 81,
      "hit": false,
      "t": 286581.6804166696,
      "d": 188.7755416666041,
      "v": 17
    },
    {
      "midi": 84,
      "hit": false,
      "t": 286622.4967500029,
      "d": 127.55104166659294,
      "v": 38
    },
    {
      "midi": 88,
      "hit": false,
      "t": 286648.0069583362,
      "d": 56.12245833326597,
      "v": 44
    },
    {
      "midi": 86,
      "hit": false,
      "t": 286668.41512500285,
      "d": 66.32654166663997,
      "v": 25
    },
    {
      "midi": 76,
      "hit": false,
      "t": 286678.61920833617,
      "d": 86.73470833332976,
      "v": 46
    },
    {
      "midi": 84,
      "hit": false,
      "t": 286852.0886250028,
      "d": 153.06125000002794,
      "v": 54
    },
    {
      "midi": 72,
      "hit": false,
      "t": 286867.39475000283,
      "d": 163.26533333334373,
      "v": 34
    },
    {
      "midi": 84,
      "hit": false,
      "t": 287153.1090833362,
      "d": 102.04083333333256,
      "v": 58
    },
    {
      "midi": 72,
      "hit": false,
      "t": 287173.5172500029,
      "d": 71.42858333332697,
      "v": 34
    },
    {
      "midi": 81,
      "hit": false,
      "t": 287346.98666666955,
      "d": 40.81633333337959,
      "v": 45
    },
    {
      "midi": 60,
      "hit": false,
      "t": 287352.08870833623,
      "d": 40.81633333337959,
      "v": 41
    },
    {
      "midi": 57,
      "hit": false,
      "t": 287357.1907500029,
      "d": 45.91837500000838,
      "v": 34
    },
    {
      "midi": 48,
      "hit": false,
      "t": 287750.04795833625,
      "d": 96.93879166664556,
      "v": 44
    },
    {
      "midi": 57,
      "hit": false,
      "t": 287750.04795833625,
      "d": 96.93879166664556,
      "v": 39
    },
    {
      "midi": 57,
      "hit": false,
      "t": 288244.9460000029,
      "d": 158.16329166665673,
      "v": 42
    },
    {
      "midi": 48,
      "hit": false,
      "t": 288244.9460000029,
      "d": 321.42862500000047,
      "v": 46
    },
    {
      "midi": 55,
      "hit": false,
      "t": 288556.1705416696,
      "d": 35.71429166663438,
      "v": 48
    },
    {
      "midi": 97,
      "hit": false,
      "t": 288617.39504166954,
      "d": 86.73470833332976,
      "v": 64
    },
    {
      "midi": 98,
      "hit": false,
      "t": 288846.9869166695,
      "d": 76.53062500001397,
      "v": 79
    },
    {
      "midi": 94,
      "hit": false,
      "t": 289015.35429166956,
      "d": 76.53062500001397,
      "v": 70
    },
    {
      "midi": 95,
      "hit": false,
      "t": 289168.4155416696,
      "d": 81.63266666664276,
      "v": 69
    },
    {
      "midi": 90,
      "hit": false,
      "t": 289311.27270833624,
      "d": 102.04083333333256,
      "v": 54
    },
    {
      "midi": 91,
      "hit": false,
      "t": 289474.5380416696,
      "d": 61.224500000011176,
      "v": 73
    },
    {
      "midi": 59,
      "hit": false,
      "t": 289500.0482500029,
      "d": 107.14287500007777,
      "v": 43
    },
    {
      "midi": 53,
      "hit": false,
      "t": 289515.3543750029,
      "d": 56.12245833338238,
      "v": 29
    },
    {
      "midi": 86,
      "hit": false,
      "t": 289612.29316666967,
      "d": 76.53062500001397,
      "v": 70
    },
    {
      "midi": 86,
      "hit": false,
      "t": 289903.10954166966,
      "d": 112.24491666664835,
      "v": 71
    },
    {
      "midi": 64,
      "hit": false,
      "t": 290204.130000003,
      "d": 96.93879166670376,
      "v": 33
    },
    {
      "midi": 59,
      "hit": false,
      "t": 290209.23204166966,
      "d": 234.6939166666707,
      "v": 50
    },
    {
      "midi": 53,
      "hit": false,
      "t": 290214.33408333635,
      "d": 250.0000416666735,
      "v": 30
    },
    {
      "midi": 86,
      "hit": false,
      "t": 290449.028000003,
      "d": 153.06125000002794,
      "v": 101
    },
    {
      "midi": 85,
      "hit": false,
      "t": 290602.08925000305,
      "d": 107.14287500001956,
      "v": 59
    },
    {
      "midi": 84,
      "hit": false,
      "t": 290678.61987500306,
      "d": 76.53062500001397,
      "v": 49
    },
    {
      "midi": 83,
      "hit": false,
      "t": 290760.25254166976,
      "d": 61.224500000011176,
      "v": 71
    },
    {
      "midi": 80,
      "hit": false,
      "t": 290872.49745833647,
      "d": 127.55104166665114,
      "v": 63
    },
    {
      "midi": 77,
      "hit": false,
      "t": 291025.55870833644,
      "d": 86.73470833332976,
      "v": 60
    },
    {
      "midi": 59,
      "hit": false,
      "t": 291066.37504166976,
      "d": 51.02041666669538,
      "v": 36
    },
    {
      "midi": 62,
      "hit": false,
      "t": 291076.5791250031,
      "d": 30.612250000005588,
      "v": 24
    },
    {
      "midi": 74,
      "hit": false,
      "t": 291148.00770833646,
      "d": 132.65308333333815,
      "v": 37
    },
    {
      "midi": 69,
      "hit": false,
      "t": 291341.8852916698,
      "d": 35.71429166663438,
      "v": 24
    },
    {
      "midi": 59,
      "hit": false,
      "t": 291367.3955000031,
      "d": 40.81633333332138,
      "v": 26
    },
    {
      "midi": 77,
      "hit": false,
      "t": 291433.72204166977,
      "d": 132.65308333333815,
      "v": 71
    },
    {
      "midi": 59,
      "hit": false,
      "t": 291612.2935000031,
      "d": 61.224500000011176,
      "v": 35
    },
    {
      "midi": 74,
      "hit": false,
      "t": 291617.3955416698,
      "d": 71.42858333332697,
      "v": 71
    },
    {
      "midi": 68,
      "hit": false,
      "t": 291928.6200833365,
      "d": 107.14287499996135,
      "v": 58
    },
    {
      "midi": 59,
      "hit": false,
      "t": 291984.7425416698,
      "d": 40.81633333332138,
      "v": 24
    },
    {
      "midi": 65,
      "hit": false,
      "t": 292076.57929166977,
      "d": 96.93879166664556,
      "v": 34
    },
    {
      "midi": 74,
      "hit": false,
      "t": 292204.1303333364,
      "d": 122.44900000002235,
      "v": 72
    },
    {
      "midi": 71,
      "hit": false,
      "t": 292367.39566666976,
      "d": 56.122458333324175,
      "v": 33
    },
    {
      "midi": 72,
      "hit": false,
      "t": 292500.0487500031,
      "d": 107.14287499996135,
      "v": 80
    },
    {
      "midi": 56,
      "hit": false,
      "t": 292510.2528333364,
      "d": 66.32654166663997,
      "v": 28
    },
    {
      "midi": 64,
      "hit": false,
      "t": 292862.2937083364,
      "d": 71.42858333332697,
      "v": 60
    },
    {
      "midi": 66,
      "hit": false,
      "t": 293122.4978333364,
      "d": 51.020416666637175,
      "v": 18
    },
    {
      "midi": 60,
      "hit": false,
      "t": 293163.31416666973,
      "d": 45.918374999950174,
      "v": 41
    },
    {
      "midi": 55,
      "hit": false,
      "t": 293183.72233333637,
      "d": 35.71429166663438,
      "v": 28
    },
    {
      "midi": 62,
      "hit": false,
      "t": 293280.661125003,
      "d": 331.63270833337447,
      "v": 48
    },
    {
      "midi": 64,
      "hit": false,
      "t": 293561.2734166697,
      "d": 341.83679166669026,
      "v": 72
    },
    {
      "midi": 68,
      "hit": false,
      "t": 294193.9265833364,
      "d": 117.34695833333535,
      "v": 55
    },
    {
      "midi": 72,
      "hit": false,
      "t": 294193.9265833364,
      "d": 117.34695833333535,
      "v": 62
    },
    {
      "midi": 64,
      "hit": false,
      "t": 294199.02862500306,
      "d": 71.42858333332697,
      "v": 66
    },
    {
      "midi": 58,
      "hit": false,
      "t": 294214.33475000306,
      "d": 112.24491666664835,
      "v": 42
    },
    {
      "midi": 68,
      "hit": false,
      "t": 294392.90620833635,
      "d": 96.93879166670376,
      "v": 50
    },
    {
      "midi": 72,
      "hit": false,
      "t": 294392.90620833635,
      "d": 102.04083333339076,
      "v": 41
    },
    {
      "midi": 64,
      "hit": false,
      "t": 294398.00825000304,
      "d": 71.42858333332697,
      "v": 51
    },
    {
      "midi": 58,
      "hit": false,
      "t": 294413.31437500304,
      "d": 112.24491666670656,
      "v": 37
    },
    {
      "midi": 75,
      "hit": false,
      "t": 294683.7225833364,
      "d": 275.5102500000503,
      "v": 59
    },
    {
      "midi": 64,
      "hit": false,
      "t": 294688.8246250031,
      "d": 81.63266666670097,
      "v": 61
    },
    {
      "midi": 68,
      "hit": false,
      "t": 294688.8246250031,
      "d": 81.63266666670097,
      "v": 49
    },
    {
      "midi": 72,
      "hit": false,
      "t": 294693.9266666698,
      "d": 102.04083333333256,
      "v": 34
    },
    {
      "midi": 58,
      "hit": false,
      "t": 294699.02870833647,
      "d": 280.6122916666791,
      "v": 51
    },
    {
      "midi": 64,
      "hit": false,
      "t": 294846.9879166698,
      "d": 81.63266666664276,
      "v": 31
    },
    {
      "midi": 68,
      "hit": false,
      "t": 294846.9879166698,
      "d": 96.93879166664556,
      "v": 29
    },
    {
      "midi": 72,
      "hit": false,
      "t": 294862.2940416698,
      "d": 86.73470833332976,
      "v": 25
    },
    {
      "midi": 68,
      "hit": false,
      "t": 295127.6002083365,
      "d": 122.44900000002235,
      "v": 39
    },
    {
      "midi": 72,
      "hit": false,
      "t": 295127.6002083365,
      "d": 153.06125000002794,
      "v": 46
    },
    {
      "midi": 64,
      "hit": false,
      "t": 295132.7022500032,
      "d": 112.24491666664835,
      "v": 44
    },
    {
      "midi": 58,
      "hit": false,
      "t": 295132.7022500032,
      "d": 137.75512500002515,
      "v": 51
    },
    {
      "midi": 72,
      "hit": false,
      "t": 295423.51862500317,
      "d": 239.7959583333577,
      "v": 39
    },
    {
      "midi": 68,
      "hit": false,
      "t": 295433.7227083365,
      "d": 219.3877916666679,
      "v": 37
    },
    {
      "midi": 58,
      "hit": false,
      "t": 295433.7227083365,
      "d": 224.4898333333549,
      "v": 52
    },
    {
      "midi": 64,
      "hit": false,
      "t": 295438.8247500032,
      "d": 147.95920833334094,
      "v": 39
    },
    {
      "midi": 58,
      "hit": false,
      "t": 295877.6003333365,
      "d": 321.42862500000047,
      "v": 43
    },
    {
      "midi": 64,
      "hit": false,
      "t": 295887.8044166698,
      "d": 163.26533333334373,
      "v": 36
    },
    {
      "midi": 61,
      "hit": false,
      "t": 295892.9064583365,
      "d": 265.3061666666763,
      "v": 28
    },
    {
      "midi": 85,
      "hit": false,
      "t": 296204.1310000032,
      "d": 96.93879166664556,
      "v": 83
    },
    {
      "midi": 90,
      "hit": false,
      "t": 296204.1310000032,
      "d": 137.75512499996694,
      "v": 72
    },
    {
      "midi": 78,
      "hit": false,
      "t": 296204.1310000032,
      "d": 142.85716666665394,
      "v": 81
    },
    {
      "midi": 64,
      "hit": false,
      "t": 296260.2534583365,
      "d": 35.71429166663438,
      "v": 44
    },
    {
      "midi": 60,
      "hit": false,
      "t": 296260.2534583365,
      "d": 86.73470833332976,
      "v": 47
    },
    {
      "midi": 57,
      "hit": false,
      "t": 296270.45754166984,
      "d": 260.2041250000475,
      "v": 50
    },
    {
      "midi": 53,
      "hit": false,
      "t": 296285.76366666984,
      "d": 40.81633333332138,
      "v": 25
    },
    {
      "midi": 91,
      "hit": false,
      "t": 296377.60041666985,
      "d": 122.44900000002235,
      "v": 56
    },
    {
      "midi": 79,
      "hit": false,
      "t": 296392.90654166986,
      "d": 137.75512500002515,
      "v": 43
    },
    {
      "midi": 86,
      "hit": false,
      "t": 296403.1106250032,
      "d": 107.14287500001956,
      "v": 56
    },
    {
      "midi": 89,
      "hit": false,
      "t": 296408.21266666986,
      "d": 127.55104166670935,
      "v": 30
    },
    {
      "midi": 91,
      "hit": false,
      "t": 296632.7025000032,
      "d": 107.14287500001956,
      "v": 58
    },
    {
      "midi": 79,
      "hit": false,
      "t": 296637.8045416699,
      "d": 112.24491666664835,
      "v": 38
    },
    {
      "midi": 86,
      "hit": false,
      "t": 296648.0086250032,
      "d": 86.73470833332976,
      "v": 60
    },
    {
      "midi": 91,
      "hit": false,
      "t": 296826.58008333656,
      "d": 71.42858333338518,
      "v": 57
    },
    {
      "midi": 86,
      "hit": false,
      "t": 296841.88620833657,
      "d": 25.510208333376795,
      "v": 57
    },
    {
      "midi": 79,
      "hit": false,
      "t": 296846.98825000325,
      "d": 51.02041666669538,
      "v": 28
    },
    {
      "midi": 57,
      "hit": false,
      "t": 296898.00866666995,
      "d": 127.55104166665114,
      "v": 44
    },
    {
      "midi": 60,
      "hit": false,
      "t": 296913.31479166995,
      "d": 45.91837500000838,
      "v": 31
    },
    {
      "midi": 88,
      "hit": false,
      "t": 296989.84541666997,
      "d": 142.85716666665394,
      "v": 50
    },
    {
      "midi": 76,
      "hit": false,
      "t": 297015.3556250033,
      "d": 147.95920833334094,
      "v": 31
    },
    {
      "midi": 88,
      "hit": false,
      "t": 297244.94750000327,
      "d": 86.73470833332976,
      "v": 68
    },
    {
      "midi": 76,
      "hit": false,
      "t": 297250.04954166996,
      "d": 117.34695833333535,
      "v": 58
    },
    {
      "midi": 84,
      "hit": false,
      "t": 297535.76387500326,
      "d": 127.55104166670935,
      "v": 42
    },
    {
      "midi": 64,
      "hit": false,
      "t": 297535.76387500326,
      "d": 137.75512500002515,
      "v": 28
    },
    {
      "midi": 57,
      "hit": false,
      "t": 297545.9679583366,
      "d": 102.04083333339076,
      "v": 39
    },
    {
      "midi": 60,
      "hit": false,
      "t": 297561.2740833366,
      "d": 91.83675000007497,
      "v": 37
    },
    {
      "midi": 72,
      "hit": false,
      "t": 297566.37612500327,
      "d": 76.53062500001397,
      "v": 33
    },
    {
      "midi": 84,
      "hit": false,
      "t": 297867.39658333664,
      "d": 137.75512500002515,
      "v": 56
    },
    {
      "midi": 72,
      "hit": false,
      "t": 297872.4986250033,
      "d": 51.02041666669538,
      "v": 43
    },
    {
      "midi": 79,
      "hit": false,
      "t": 297892.90679167,
      "d": 45.91837500000838,
      "v": 31
    },
    {
      "midi": 60,
      "hit": false,
      "t": 298362.29462500336,
      "d": 30.612250000005588,
      "v": 68
    },
    {
      "midi": 64,
      "hit": false,
      "t": 298367.39666667004,
      "d": 25.510208333318587,
      "v": 68
    },
    {
      "midi": 57,
      "hit": false,
      "t": 298367.39666667004,
      "d": 40.81633333332138,
      "v": 55
    },
    {
      "midi": 78,
      "hit": false,
      "t": 298653.11100000335,
      "d": 51.02041666669538,
      "v": 84
    },
    {
      "midi": 90,
      "hit": false,
      "t": 298653.11100000335,
      "d": 61.224500000011176,
      "v": 78
    },
    {
      "midi": 87,
      "hit": false,
      "t": 298658.21304167004,
      "d": 81.63266666670097,
      "v": 72
    },
    {
      "midi": 85,
      "hit": false,
      "t": 298663.3150833367,
      "d": 56.122458333324175,
      "v": 75
    },
    {
      "midi": 90,
      "hit": false,
      "t": 298801.07020833675,
      "d": 239.79595833353233,
      "v": 57
    },
    {
      "midi": 78,
      "hit": false,
      "t": 298806.17225000344,
      "d": 102.04083333344897,
      "v": 71
    },
    {
      "midi": 87,
      "hit": false,
      "t": 298811.2742916701,
      "d": 193.87758333346574,
      "v": 51
    },
    {
      "midi": 67,
      "hit": false,
      "t": 298816.3763333368,
      "d": 239.79595833347412,
      "v": 57
    },
    {
      "midi": 62,
      "hit": false,
      "t": 298816.3763333368,
      "d": 316.3265833334299,
      "v": 24
    },
    {
      "midi": 56,
      "hit": false,
      "t": 298836.7845000035,
      "d": 229.59187500010012,
      "v": 34
    },
    {
      "midi": 60,
      "hit": false,
      "t": 298836.7845000035,
      "d": 295.9184166667401,
      "v": 48
    },
    {
      "midi": 91,
      "hit": false,
      "t": 298887.8049166702,
      "d": 127.55104166670935,
      "v": 46
    },
    {
      "midi": 89,
      "hit": false,
      "t": 298913.3151250036,
      "d": 122.44900000002235,
      "v": 26
    },
    {
      "midi": 79,
      "hit": false,
      "t": 298923.5192083369,
      "d": 91.83675000001676,
      "v": 49
    },
    {
      "midi": 88,
      "hit": false,
      "t": 298959.2335000036,
      "d": 30.612250000005588,
      "v": 47
    },
    {
      "midi": 91,
      "hit": false,
      "t": 299096.9886250036,
      "d": 86.73470833332976,
      "v": 54
    },
    {
      "midi": 79,
      "hit": false,
      "t": 299107.1927083369,
      "d": 66.32654166669818,
      "v": 43
    },
    {
      "midi": 88,
      "hit": false,
      "t": 299107.1927083369,
      "d": 81.63266666670097,
      "v": 56
    },
    {
      "midi": 89,
      "hit": false,
      "t": 299122.4988333369,
      "d": 45.91837500000838,
      "v": 35
    },
    {
      "midi": 91,
      "hit": false,
      "t": 299275.56008333695,
      "d": 30.612250000005588,
      "v": 54
    },
    {
      "midi": 79,
      "hit": false,
      "t": 299290.86620833696,
      "d": 35.71429166669259,
      "v": 51
    },
    {
      "midi": 88,
      "hit": false,
      "t": 299295.96825000364,
      "d": 35.71429166669259,
      "v": 30
    },
    {
      "midi": 67,
      "hit": false,
      "t": 299336.784583337,
      "d": 35.71429166669259,
      "v": 43
    },
    {
      "midi": 62,
      "hit": false,
      "t": 299352.090708337,
      "d": 61.224500000011176,
      "v": 36
    },
    {
      "midi": 87,
      "hit": false,
      "t": 299433.7233750037,
      "d": 91.83675000001676,
      "v": 69
    },
    {
      "midi": 75,
      "hit": false,
      "t": 299438.8254166704,
      "d": 91.83675000001676,
      "v": 62
    },
    {
      "midi": 88,
      "hit": false,
      "t": 299535.7642083371,
      "d": 40.81633333332138,
      "v": 34
    },
    {
      "midi": 62,
      "hit": false,
      "t": 299612.29483333713,
      "d": 91.83675000001676,
      "v": 37
    },
    {
      "midi": 88,
      "hit": false,
      "t": 299699.02954167046,
      "d": 96.93879166670376,
      "v": 68
    },
    {
      "midi": 86,
      "hit": false,
      "t": 299719.43770833715,
      "d": 51.02041666669538,
      "v": 51
    },
    {
      "midi": 76,
      "hit": false,
      "t": 299719.43770833715,
      "d": 86.73470833332976,
      "v": 49
    },
    {
      "midi": 81,
      "hit": false,
      "t": 299719.43770833715,
      "d": 117.34695833333535,
      "v": 37
    },
    {
      "midi": 88,
      "hit": false,
      "t": 299867.3969166705,
      "d": 76.53062500001397,
      "v": 61
    },
    {
      "midi": 76,
      "hit": false,
      "t": 299877.6010000038,
      "d": 81.63266666670097,
      "v": 57
    },
    {
      "midi": 81,
      "hit": false,
      "t": 299892.9071250038,
      "d": 66.32654166669818,
      "v": 36
    },
    {
      "midi": 84,
      "hit": false,
      "t": 300035.7642916705,
      "d": 153.06124999996973,
      "v": 54
    },
    {
      "midi": 72,
      "hit": false,
      "t": 300066.3765416705,
      "d": 81.63266666664276,
      "v": 34
    },
    {
      "midi": 84,
      "hit": false,
      "t": 300295.9684166705,
      "d": 81.63266666664276,
      "v": 49
    },
    {
      "midi": 72,
      "hit": false,
      "t": 300306.1725000038,
      "d": 61.224500000011176,
      "v": 54
    },
    {
      "midi": 56,
      "hit": false,
      "t": 300602.0909166705,
      "d": 153.06125000002794,
      "v": 43
    },
    {
      "midi": 67,
      "hit": false,
      "t": 300607.1929583372,
      "d": 96.93879166664556,
      "v": 44
    },
    {
      "midi": 62,
      "hit": false,
      "t": 300617.3970416705,
      "d": 102.04083333333256,
      "v": 51
    },
    {
      "midi": 60,
      "hit": false,
      "t": 300637.8052083372,
      "d": 56.122458333324175,
      "v": 35
    },
    {
      "midi": 78,
      "hit": false,
      "t": 301066.3767083372,
      "d": 127.55104166670935,
      "v": 92
    },
    {
      "midi": 90,
      "hit": false,
      "t": 301066.3767083372,
      "d": 142.85716666671215,
      "v": 85
    },
    {
      "midi": 85,
      "hit": false,
      "t": 301071.4787500039,
      "d": 122.44900000002235,
      "v": 83
    },
    {
      "midi": 62,
      "hit": false,
      "t": 301086.7848750039,
      "d": 61.224500000011176,
      "v": 77
    },
    {
      "midi": 59,
      "hit": false,
      "t": 301086.7848750039,
      "d": 71.42858333332697,
      "v": 71
    },
    {
      "midi": 52,
      "hit": false,
      "t": 301096.9889583372,
      "d": 30.612250000005588,
      "v": 61
    },
    {
      "midi": 55,
      "hit": false,
      "t": 301096.9889583372,
      "d": 112.24491666670656,
      "v": 60
    },
    {
      "midi": 91,
      "hit": false,
      "t": 301239.84612500394,
      "d": 153.06125000002794,
      "v": 67
    },
    {
      "midi": 79,
      "hit": false,
      "t": 301250.05020833726,
      "d": 163.26533333340194,
      "v": 58
    },
    {
      "midi": 86,
      "hit": false,
      "t": 301255.15225000394,
      "d": 142.85716666671215,
      "v": 71
    },
    {
      "midi": 89,
      "hit": false,
      "t": 301260.25429167063,
      "d": 153.06125000002794,
      "v": 48
    },
    {
      "midi": 91,
      "hit": false,
      "t": 301525.5604583373,
      "d": 81.63266666664276,
      "v": 70
    },
    {
      "midi": 79,
      "hit": false,
      "t": 301535.7645416706,
      "d": 76.53062500001397,
      "v": 58
    },
    {
      "midi": 86,
      "hit": false,
      "t": 301540.8665833373,
      "d": 66.32654166663997,
      "v": 66
    },
    {
      "midi": 91,
      "hit": false,
      "t": 301719.43804167066,
      "d": 71.42858333338518,
      "v": 65
    },
    {
      "midi": 79,
      "hit": false,
      "t": 301734.74416667066,
      "d": 45.91837500000838,
      "v": 36
    },
    {
      "midi": 86,
      "hit": false,
      "t": 301734.74416667066,
      "d": 45.91837500000838,
      "v": 47
    },
    {
      "midi": 62,
      "hit": false,
      "t": 301785.76458333735,
      "d": 30.612250000005588,
      "v": 55
    },
    {
      "midi": 59,
      "hit": false,
      "t": 301821.47887500405,
      "d": 51.02041666669538,
      "v": 37
    },
    {
      "midi": 55,
      "hit": false,
      "t": 301821.47887500405,
      "d": 91.83675000001676,
      "v": 48
    },
    {
      "midi": 88,
      "hit": false,
      "t": 301918.41766667075,
      "d": 91.83674999995856,
      "v": 43
    },
    {
      "midi": 76,
      "hit": false,
      "t": 301928.62175000407,
      "d": 91.83674999995856,
      "v": 43
    },
    {
      "midi": 88,
      "hit": false,
      "t": 302142.90750000405,
      "d": 102.04083333333256,
      "v": 70
    },
    {
      "midi": 76,
      "hit": false,
      "t": 302153.11158333736,
      "d": 91.83675000001676,
      "v": 60
    },
    {
      "midi": 86,
      "hit": false,
      "t": 302183.72383333737,
      "d": 45.91837500000838,
      "v": 33
    },
    {
      "midi": 88,
      "hit": false,
      "t": 302316.3769166707,
      "d": 66.32654166663997,
      "v": 53
    },
    {
      "midi": 76,
      "hit": false,
      "t": 302326.581000004,
      "d": 71.42858333332697,
      "v": 62
    },
    {
      "midi": 62,
      "hit": false,
      "t": 302372.49937500403,
      "d": 40.81633333332138,
      "v": 37
    },
    {
      "midi": 59,
      "hit": false,
      "t": 302403.11162500404,
      "d": 51.020416666637175,
      "v": 29
    },
    {
      "midi": 55,
      "hit": false,
      "t": 302413.31570833735,
      "d": 45.91837500000838,
      "v": 37
    },
    {
      "midi": 83,
      "hit": false,
      "t": 302540.866750004,
      "d": 96.93879166670376,
      "v": 31
    },
    {
      "midi": 71,
      "hit": false,
      "t": 302545.9687916707,
      "d": 91.83675000001676,
      "v": 14
    },
    {
      "midi": 84,
      "hit": false,
      "t": 302551.0708333374,
      "d": 30.612250000005588,
      "v": 31
    },
    {
      "midi": 82,
      "hit": false,
      "t": 302561.2749166707,
      "d": 102.04083333333256,
      "v": 25
    },
    {
      "midi": 83,
      "hit": false,
      "t": 302744.94841667067,
      "d": 91.83675000001676,
      "v": 35
    },
    {
      "midi": 71,
      "hit": false,
      "t": 302750.05045833735,
      "d": 91.83675000001676,
      "v": 50
    },
    {
      "midi": 62,
      "hit": false,
      "t": 303045.96887500404,
      "d": 214.2857499999809,
      "v": 55
    },
    {
      "midi": 52,
      "hit": false,
      "t": 303061.27500000404,
      "d": 132.65308333333815,
      "v": 33
    },
    {
      "midi": 59,
      "hit": false,
      "t": 303066.3770416707,
      "d": 137.75512499996694,
      "v": 42
    },
    {
      "midi": 55,
      "hit": false,
      "t": 303076.58112500404,
      "d": 107.14287500001956,
      "v": 44
    },
    {
      "midi": 53,
      "hit": false,
      "t": 303551.071000004,
      "d": 459.1837500000256,
      "v": 42
    },
    {
      "midi": 64,
      "hit": false,
      "t": 303561.2750833373,
      "d": 336.73475000000326,
      "v": 41
    },
    {
      "midi": 60,
      "hit": false,
      "t": 303561.2750833373,
      "d": 469.3878333333996,
      "v": 53
    },
    {
      "midi": 57,
      "hit": false,
      "t": 303571.47916667064,
      "d": 464.2857916667708,
      "v": 32
    },
    {
      "midi": 81,
      "hit": false,
      "t": 303933.724125004,
      "d": 214.28575000009732,
      "v": 88
    },
    {
      "midi": 82,
      "hit": false,
      "t": 304096.9894583374,
      "d": 122.44900000008056,
      "v": 35
    },
    {
      "midi": 83,
      "hit": false,
      "t": 304168.4180416708,
      "d": 76.53062500001397,
      "v": 66
    },
    {
      "midi": 84,
      "hit": false,
      "t": 304265.3568333375,
      "d": 91.83675000001676,
      "v": 73
    },
    {
      "midi": 76,
      "hit": false,
      "t": 304352.09154167084,
      "d": 193.87758333334932,
      "v": 66
    },
    {
      "midi": 77,
      "hit": false,
      "t": 304530.6630000042,
      "d": 91.83675000001676,
      "v": 43
    },
    {
      "midi": 78,
      "hit": false,
      "t": 304571.4793333375,
      "d": 137.75512500002515,
      "v": 42
    },
    {
      "midi": 79,
      "hit": false,
      "t": 304688.82629167085,
      "d": 96.93879166670376,
      "v": 54
    },
    {
      "midi": 72,
      "hit": false,
      "t": 304811.27529167087,
      "d": 147.95920833334094,
      "v": 61
    },
    {
      "midi": 64,
      "hit": false,
      "t": 305102.09166667087,
      "d": 51.02041666669538,
      "v": 63
    },
    {
      "midi": 69,
      "hit": false,
      "t": 305372.4998750042,
      "d": 188.77554166666232,
      "v": 88
    },
    {
      "midi": 70,
      "hit": false,
      "t": 305530.6631666709,
      "d": 117.34695833333535,
      "v": 53
    },
    {
      "midi": 71,
      "hit": false,
      "t": 305617.3978750042,
      "d": 86.73470833332976,
      "v": 62
    },
    {
      "midi": 72,
      "hit": false,
      "t": 305724.54075000423,
      "d": 142.85716666665394,
      "v": 58
    },
    {
      "midi": 73,
      "hit": false,
      "t": 305734.74483333755,
      "d": 45.91837500000838,
      "v": 25
    },
    {
      "midi": 53,
      "hit": false,
      "t": 305755.15300000424,
      "d": 112.24491666664835,
      "v": 35
    },
    {
      "midi": 60,
      "hit": false,
      "t": 305765.35708333756,
      "d": 45.91837500000838,
      "v": 31
    },
    {
      "midi": 71,
      "hit": false,
      "t": 305852.0917916709,
      "d": 153.06125000002794,
      "v": 74
    },
    {
      "midi": 69,
      "hit": false,
      "t": 306035.7652916709,
      "d": 96.93879166670376,
      "v": 74
    },
    {
      "midi": 55,
      "hit": false,
      "t": 306112.29591667093,
      "d": 51.02041666669538,
      "v": 26
    },
    {
      "midi": 67,
      "hit": false,
      "t": 306183.7245000043,
      "d": 147.95920833334094,
      "v": 43
    },
    {
      "midi": 67,
      "hit": false,
      "t": 306443.9286250043,
      "d": 168.36737499997253,
      "v": 49
    },
    {
      "midi": 62,
      "hit": false,
      "t": 306653.1123333376,
      "d": 30.612250000005588,
      "v": 27
    },
    {
      "midi": 55,
      "hit": false,
      "t": 306693.9286666709,
      "d": 86.73470833332976,
      "v": 35
    },
    {
      "midi": 67,
      "hit": false,
      "t": 306709.2347916709,
      "d": 158.16329166665673,
      "v": 58
    },
    {
      "midi": 66,
      "hit": false,
      "t": 306903.1123750043,
      "d": 96.93879166664556,
      "v": 35
    },
    {
      "midi": 67,
      "hit": false,
      "t": 307020.4593333376,
      "d": 158.16329166665673,
      "v": 43
    },
    {
      "midi": 72,
      "hit": false,
      "t": 307214.33691667096,
      "d": 331.63270833331626,
      "v": 64
    },
    {
      "midi": 65,
      "hit": false,
      "t": 307219.43895833765,
      "d": 316.32658333331347,
      "v": 45
    },
    {
      "midi": 55,
      "hit": false,
      "t": 307229.64304167096,
      "d": 270.4082083333051,
      "v": 30
    },
    {
      "midi": 60,
      "hit": false,
      "t": 307239.8471250043,
      "d": 260.2041249999893,
      "v": 50
    },
    {
      "midi": 61,
      "hit": false,
      "t": 307250.0512083376,
      "d": 311.2245416666847,
      "v": 30
    },
    {
      "midi": 61,
      "hit": false,
      "t": 307653.1125000043,
      "d": 321.4286250000587,
      "v": 35
    },
    {
      "midi": 65,
      "hit": false,
      "t": 307658.214541671,
      "d": 301.0204583333689,
      "v": 35
    },
    {
      "midi": 72,
      "hit": false,
      "t": 307663.31658333767,
      "d": 326.53066666668747,
      "v": 57
    },
    {
      "midi": 60,
      "hit": false,
      "t": 307673.520666671,
      "d": 290.8163750000531,
      "v": 50
    },
    {
      "midi": 55,
      "hit": false,
      "t": 307673.520666671,
      "d": 301.0204583333689,
      "v": 35
    },
    {
      "midi": 69,
      "hit": false,
      "t": 308153.1125833377,
      "d": 51.02041666675359,
      "v": 64
    },
    {
      "midi": 61,
      "hit": false,
      "t": 308153.1125833377,
      "d": 91.83675000013318,
      "v": 36
    },
    {
      "midi": 65,
      "hit": false,
      "t": 308158.2146250044,
      "d": 40.81633333337959,
      "v": 43
    },
    {
      "midi": 55,
      "hit": false,
      "t": 308163.3166666711,
      "d": 76.53062500007218,
      "v": 40
    },
    {
      "midi": 72,
      "hit": false,
      "t": 308280.6636250045,
      "d": 76.53062500001397,
      "v": 32
    },
    {
      "midi": 76,
      "hit": false,
      "t": 308398.01058333786,
      "d": 66.32654166663997,
      "v": 44
    },
    {
      "midi": 79,
      "hit": false,
      "t": 308469.4391666712,
      "d": 173.46941666671773,
      "v": 80
    },
    {
      "midi": 64,
      "hit": false,
      "t": 308561.2759166712,
      "d": 321.4286250000587,
      "v": 37
    },
    {
      "midi": 57,
      "hit": false,
      "t": 308576.5820416712,
      "d": 423.46945833344944,
      "v": 49
    },
    {
      "midi": 60,
      "hit": false,
      "t": 308581.6840833379,
      "d": 367.34700000006706,
      "v": 44
    },
    {
      "midi": 53,
      "hit": false,
      "t": 308586.7861250046,
      "d": 678.5715416667517,
      "v": 15
    },
    {
      "midi": 77,
      "hit": false,
      "t": 308596.9902083379,
      "d": 250.0000416666735,
      "v": 72
    },
    {
      "midi": 73,
      "hit": false,
      "t": 308913.31679167127,
      "d": 127.55104166670935,
      "v": 31
    },
    {
      "midi": 76,
      "hit": false,
      "t": 309081.6841666713,
      "d": 142.85716666671215,
      "v": 81
    },
    {
      "midi": 64,
      "hit": false,
      "t": 309107.1943750046,
      "d": 56.12245833338238,
      "v": 42
    },
    {
      "midi": 60,
      "hit": false,
      "t": 309127.6025416713,
      "d": 56.12245833338238,
      "v": 33
    },
    {
      "midi": 74,
      "hit": false,
      "t": 309382.70462500467,
      "d": 137.75512499996694,
      "v": 94
    },
    {
      "midi": 53,
      "hit": false,
      "t": 309392.908708338,
      "d": 127.55104166665114,
      "v": 43
    },
    {
      "midi": 60,
      "hit": false,
      "t": 309413.3168750047,
      "d": 35.71429166663438,
      "v": 45
    },
    {
      "midi": 57,
      "hit": false,
      "t": 309423.520958338,
      "d": 81.63266666664276,
      "v": 37
    },
    {
      "midi": 72,
      "hit": false,
      "t": 309668.418958338,
      "d": 35.71429166669259,
      "v": 46
    },
    {
      "midi": 74,
      "hit": false,
      "t": 309668.418958338,
      "d": 107.14287500007777,
      "v": 69
    },
    {
      "midi": 72,
      "hit": false,
      "t": 309739.84754167136,
      "d": 122.44900000008056,
      "v": 53
    },
    {
      "midi": 59,
      "hit": false,
      "t": 309795.97000000475,
      "d": 336.73475000006147,
      "v": 44
    },
    {
      "midi": 64,
      "hit": false,
      "t": 309806.17408333806,
      "d": 168.36737500003073,
      "v": 24
    },
    {
      "midi": 53,
      "hit": false,
      "t": 309806.17408333806,
      "d": 306.1225000000559,
      "v": 29
    },
    {
      "midi": 69,
      "hit": false,
      "t": 309841.88837500475,
      "d": 153.06125000002794,
      "v": 44
    },
    {
      "midi": 70,
      "hit": false,
      "t": 310010.2557500048,
      "d": 66.32654166663997,
      "v": 69
    },
    {
      "midi": 71,
      "hit": false,
      "t": 310132.7047500048,
      "d": 117.34695833333535,
      "v": 49
    },
    {
      "midi": 74,
      "hit": false,
      "t": 310280.66395833815,
      "d": 102.04083333333256,
      "v": 66
    },
    {
      "midi": 59,
      "hit": false,
      "t": 310311.27620833815,
      "d": 91.83675000001676,
      "v": 26
    },
    {
      "midi": 77,
      "hit": false,
      "t": 310428.6231666715,
      "d": 96.93879166664556,
      "v": 41
    },
    {
      "midi": 80,
      "hit": false,
      "t": 310586.78645833815,
      "d": 147.95920833328273,
      "v": 57
    },
    {
      "midi": 59,
      "hit": false,
      "t": 310612.29666667146,
      "d": 66.32654166663997,
      "v": 31
    },
    {
      "midi": 83,
      "hit": false,
      "t": 310734.7456666714,
      "d": 102.04083333333256,
      "v": 45
    },
    {
      "midi": 86,
      "hit": false,
      "t": 310887.80691667146,
      "d": 102.04083333333256,
      "v": 80
    },
    {
      "midi": 62,
      "hit": false,
      "t": 310928.6232500048,
      "d": 102.04083333333256,
      "v": 39
    },
    {
      "midi": 59,
      "hit": false,
      "t": 310938.8273333381,
      "d": 260.2041250000475,
      "v": 27
    },
    {
      "midi": 55,
      "hit": false,
      "t": 310954.1334583381,
      "d": 290.8163750000531,
      "v": 41
    },
    {
      "midi": 84,
      "hit": false,
      "t": 311030.6640833381,
      "d": 147.95920833334094,
      "v": 64
    },
    {
      "midi": 79,
      "hit": false,
      "t": 311336.78658333817,
      "d": 102.04083333333256,
      "v": 57
    },
    {
      "midi": 79,
      "hit": false,
      "t": 311642.90908333816,
      "d": 102.04083333333256,
      "v": 60
    },
    {
      "midi": 59,
      "hit": false,
      "t": 311658.21520833817,
      "d": 112.24491666664835,
      "v": 33
    },
    {
      "midi": 62,
      "hit": false,
      "t": 311668.4192916715,
      "d": 71.42858333332697,
      "v": 10
    },
    {
      "midi": 55,
      "hit": false,
      "t": 311668.4192916715,
      "d": 102.04083333333256,
      "v": 22
    },
    {
      "midi": 79,
      "hit": false,
      "t": 311938.8275000048,
      "d": 132.65308333333815,
      "v": 65
    },
    {
      "midi": 78,
      "hit": false,
      "t": 312086.7867083381,
      "d": 81.63266666664276,
      "v": 46
    },
    {
      "midi": 62,
      "hit": false,
      "t": 312229.6438750048,
      "d": 285.7143333334243,
      "v": 33
    },
    {
      "midi": 79,
      "hit": false,
      "t": 312234.74591667147,
      "d": 173.46941666665953,
      "v": 47
    },
    {
      "midi": 52,
      "hit": false,
      "t": 312244.9500000048,
      "d": 183.67350000003353,
      "v": 22
    },
    {
      "midi": 84,
      "hit": false,
      "t": 312433.7255416715,
      "d": 76.53062500001397,
      "v": 65
    },
    {
      "midi": 62,
      "hit": false,
      "t": 312744.9500833382,
      "d": 56.12245833338238,
      "v": 54
    },
    {
      "midi": 59,
      "hit": false,
      "t": 312750.0521250049,
      "d": 107.14287500001956,
      "v": 34
    },
    {
      "midi": 55,
      "hit": false,
      "t": 312770.46029167157,
      "d": 102.04083333333256,
      "v": 33
    },
    {
      "midi": 87,
      "hit": false,
      "t": 313163.3175000049,
      "d": 173.46941666665953,
      "v": 83
    },
    {
      "midi": 80,
      "hit": false,
      "t": 313173.5215833382,
      "d": 408.16333333344664,
      "v": 80
    },
    {
      "midi": 84,
      "hit": false,
      "t": 313362.2971250049,
      "d": 265.3061666667927,
      "v": 74
    },
    {
      "midi": 76,
      "hit": false,
      "t": 313367.39916667156,
      "d": 244.8980000001029,
      "v": 53
    },
    {
      "midi": 63,
      "hit": false,
      "t": 313387.80733333825,
      "d": 188.77554166672053,
      "v": 54
    },
    {
      "midi": 58,
      "hit": false,
      "t": 313403.11345833825,
      "d": 357.14291666675126,
      "v": 37
    },
    {
      "midi": 52,
      "hit": false,
      "t": 313408.21550000494,
      "d": 147.95920833334094,
      "v": 38
    },
    {
      "midi": 63,
      "hit": false,
      "t": 313943.929875005,
      "d": 76.53062499995576,
      "v": 69
    },
    {
      "midi": 58,
      "hit": false,
      "t": 313954.1339583383,
      "d": 127.55104166665114,
      "v": 55
    },
    {
      "midi": 52,
      "hit": false,
      "t": 313964.3380416716,
      "d": 30.612250000005588,
      "v": 49
    },
    {
      "midi": 85,
      "hit": false,
      "t": 314367.3993333383,
      "d": 122.44900000008056,
      "v": 85
    },
    {
      "midi": 87,
      "hit": false,
      "t": 314372.501375005,
      "d": 301.0204583334271,
      "v": 83
    },
    {
      "midi": 80,
      "hit": false,
      "t": 314377.6034166717,
      "d": 301.0204583334271,
      "v": 76
    },
    {
      "midi": 63,
      "hit": false,
      "t": 314377.6034166717,
      "d": 321.4286250001169,
      "v": 81
    },
    {
      "midi": 76,
      "hit": false,
      "t": 314377.6034166717,
      "d": 331.6327083334327,
      "v": 87
    },
    {
      "midi": 58,
      "hit": false,
      "t": 314382.7054583384,
      "d": 352.04087500006426,
      "v": 74
    },
    {
      "midi": 52,
      "hit": false,
      "t": 314387.80750000506,
      "d": 30.612250000005588,
      "v": 78
    },
    {
      "midi": 77,
      "hit": false,
      "t": 314403.11362500506,
      "d": 30.612250000005588,
      "v": 49
    },
    {
      "midi": 52,
      "hit": false,
      "t": 314449.03200000507,
      "d": 224.4898333333549,
      "v": 31
    },
    {
      "midi": 63,
      "hit": false,
      "t": 314836.78716667177,
      "d": 295.9184166667401,
      "v": 71
    },
    {
      "midi": 84,
      "hit": false,
      "t": 314841.88920833846,
      "d": 127.55104166670935,
      "v": 71
    },
    {
      "midi": 80,
      "hit": false,
      "t": 314846.99125000514,
      "d": 163.26533333334373,
      "v": 60
    },
    {
      "midi": 72,
      "hit": false,
      "t": 314846.99125000514,
      "d": 209.18370833335212,
      "v": 64
    },
    {
      "midi": 58,
      "hit": false,
      "t": 314846.99125000514,
      "d": 316.3265833333717,
      "v": 63
    },
    {
      "midi": 52,
      "hit": false,
      "t": 314852.09329167183,
      "d": 244.8979999999865,
      "v": 66
    },
    {
      "midi": 63,
      "hit": false,
      "t": 315290.86887500517,
      "d": 280.6122916667373,
      "v": 64
    },
    {
      "midi": 80,
      "hit": false,
      "t": 315295.97091667185,
      "d": 265.3061666667345,
      "v": 63
    },
    {
      "midi": 68,
      "hit": false,
      "t": 315301.07295833854,
      "d": 306.1225000000559,
      "v": 62
    },
    {
      "midi": 58,
      "hit": false,
      "t": 315306.1750000052,
      "d": 413.26537500001723,
      "v": 60
    },
    {
      "midi": 76,
      "hit": false,
      "t": 315311.2770416719,
      "d": 234.6939166666707,
      "v": 62
    },
    {
      "midi": 52,
      "hit": false,
      "t": 315321.48112500523,
      "d": 61.224500000011176,
      "v": 35
    },
    {
      "midi": 52,
      "hit": false,
      "t": 315617.3995416719,
      "d": 71.42858333332697,
      "v": 46
    },
    {
      "midi": 77,
      "hit": false,
      "t": 315928.6240833386,
      "d": 744.8980833333335,
      "v": 79
    },
    {
      "midi": 65,
      "hit": false,
      "t": 315928.6240833386,
      "d": 801.0205416666577,
      "v": 79
    },
    {
      "midi": 57,
      "hit": false,
      "t": 315928.6240833386,
      "d": 821.4287083333475,
      "v": 73
    },
    {
      "midi": 81,
      "hit": false,
      "t": 315933.7261250053,
      "d": 683.6735833333223,
      "v": 77
    },
    {
      "midi": 69,
      "hit": false,
      "t": 315933.7261250053,
      "d": 765.3062499999651,
      "v": 85
    },
    {
      "midi": 74,
      "hit": false,
      "t": 315933.7261250053,
      "d": 770.4082916666521,
      "v": 80
    },
    {
      "midi": 62,
      "hit": false,
      "t": 315933.7261250053,
      "d": 852.040958333353,
      "v": 66
    },
    {
      "midi": 74,
      "hit": false,
      "t": 316831.68545833864,
      "d": 132.65308333333815,
      "v": 57
    },
    {
      "midi": 62,
      "hit": false,
      "t": 316831.68545833864,
      "d": 158.16329166665673,
      "v": 44
    },
    {
      "midi": 72,
      "hit": false,
      "t": 316836.78750000533,
      "d": 112.24491666664835,
      "v": 42
    },
    {
      "midi": 77,
      "hit": false,
      "t": 316836.78750000533,
      "d": 127.55104166665114,
      "v": 50
    },
    {
      "midi": 65,
      "hit": false,
      "t": 316841.889541672,
      "d": 96.93879166664556,
      "v": 42
    },
    {
      "midi": 57,
      "hit": false,
      "t": 316841.889541672,
      "d": 112.24491666664835,
      "v": 49
    },
    {
      "midi": 65,
      "hit": false,
      "t": 317035.7671250053,
      "d": 40.81633333337959,
      "v": 55
    },
    {
      "midi": 77,
      "hit": false,
      "t": 317035.7671250053,
      "d": 91.83675000007497,
      "v": 62
    },
    {
      "midi": 72,
      "hit": false,
      "t": 317045.9712083386,
      "d": 40.81633333337959,
      "v": 36
    },
    {
      "midi": 62,
      "hit": false,
      "t": 317045.9712083386,
      "d": 76.53062500007218,
      "v": 38
    },
    {
      "midi": 74,
      "hit": false,
      "t": 317051.0732500053,
      "d": 40.81633333337959,
      "v": 27
    },
    {
      "midi": 57,
      "hit": false,
      "t": 317056.175291672,
      "d": 61.224500000011176,
      "v": 37
    },
    {
      "midi": 65,
      "hit": false,
      "t": 317459.2365833387,
      "d": 51.02041666669538,
      "v": 38
    },
    {
      "midi": 57,
      "hit": false,
      "t": 317459.2365833387,
      "d": 81.63266666670097,
      "v": 46
    },
    {
      "midi": 62,
      "hit": false,
      "t": 317464.3386250054,
      "d": 86.73470833332976,
      "v": 43
    },
    {
      "midi": 57,
      "hit": false,
      "t": 317933.72645833873,
      "d": 112.24491666670656,
      "v": 57
    },
    {
      "midi": 65,
      "hit": false,
      "t": 317938.8285000054,
      "d": 61.224500000011176,
      "v": 49
    },
    {
      "midi": 62,
      "hit": false,
      "t": 317959.2366666721,
      "d": 56.122458333324175,
      "v": 35
    },
    {
      "midi": 65,
      "hit": false,
      "t": 318346.99183333875,
      "d": 392.85720833338564,
      "v": 44
    },
    {
      "midi": 56,
      "hit": false,
      "t": 318352.09387500543,
      "d": 428.57150000002,
      "v": 34
    },
    {
      "midi": 62,
      "hit": false,
      "t": 318357.1959166721,
      "d": 438.7755833333358,
      "v": 37
    },
    {
      "midi": 65,
      "hit": false,
      "t": 318877.6041666721,
      "d": 45.91837500000838,
      "v": 32
    },
    {
      "midi": 62,
      "hit": false,
      "t": 318877.6041666721,
      "d": 107.14287500001956,
      "v": 40
    },
    {
      "midi": 56,
      "hit": false,
      "t": 318898.0123333388,
      "d": 81.63266666664276,
      "v": 25
    },
    {
      "midi": 91,
      "hit": false,
      "t": 319000.0531666721,
      "d": 188.77554166672053,
      "v": 81
    },
    {
      "midi": 92,
      "hit": false,
      "t": 319153.11441667215,
      "d": 96.93879166670376,
      "v": 67
    },
    {
      "midi": 94,
      "hit": false,
      "t": 319219.44095833885,
      "d": 112.24491666664835,
      "v": 58
    },
    {
      "midi": 95,
      "hit": false,
      "t": 319321.4817916722,
      "d": 76.53062499995576,
      "v": 64
    },
    {
      "midi": 88,
      "hit": false,
      "t": 319459.23691667215,
      "d": 204.08166666666511,
      "v": 71
    },
    {
      "midi": 89,
      "hit": false,
      "t": 319627.6042916721,
      "d": 81.63266666670097,
      "v": 32
    },
    {
      "midi": 90,
      "hit": false,
      "t": 319673.5226666721,
      "d": 158.16329166671494,
      "v": 47
    },
    {
      "midi": 91,
      "hit": false,
      "t": 319790.86962500546,
      "d": 35.71429166669259,
      "v": 51
    },
    {
      "midi": 65,
      "hit": false,
      "t": 320096.9921250055,
      "d": 45.91837500000838,
      "v": 37
    },
    {
      "midi": 56,
      "hit": false,
      "t": 320102.0941666722,
      "d": 66.32654166663997,
      "v": 33
    },
    {
      "midi": 62,
      "hit": false,
      "t": 320102.0941666722,
      "d": 66.32654166663997,
      "v": 42
    },
    {
      "midi": 83,
      "hit": false,
      "t": 320382.7064583388,
      "d": 81.63266666664276,
      "v": 62
    },
    {
      "midi": 56,
      "hit": false,
      "t": 320382.7064583388,
      "d": 102.04083333333256,
      "v": 49
    },
    {
      "midi": 65,
      "hit": false,
      "t": 320392.91054167214,
      "d": 35.71429166669259,
      "v": 38
    },
    {
      "midi": 62,
      "hit": false,
      "t": 320392.91054167214,
      "d": 45.91837500000838,
      "v": 53
    },
    {
      "midi": 85,
      "hit": false,
      "t": 320515.35954167217,
      "d": 107.14287500001956,
      "v": 46
    },
    {
      "midi": 86,
      "hit": false,
      "t": 320688.8289583388,
      "d": 102.04083333333256,
      "v": 84
    },
    {
      "midi": 64,
      "hit": false,
      "t": 320755.15550000547,
      "d": 290.8163750001113,
      "v": 36
    },
    {
      "midi": 60,
      "hit": false,
      "t": 320775.56366667215,
      "d": 346.93883333343547,
      "v": 34
    },
    {
      "midi": 59,
      "hit": false,
      "t": 320790.86979167216,
      "d": 153.06125000002794,
      "v": 22
    },
    {
      "midi": 57,
      "hit": false,
      "t": 320806.17591667216,
      "d": 193.87758333340753,
      "v": 22
    },
    {
      "midi": 84,
      "hit": false,
      "t": 320821.48204167216,
      "d": 127.55104166670935,
      "v": 72
    },
    {
      "midi": 86,
      "hit": false,
      "t": 321005.15554167225,
      "d": 45.91837500000838,
      "v": 55
    },
    {
      "midi": 84,
      "hit": false,
      "t": 321045.9718750056,
      "d": 127.55104166670935,
      "v": 59
    },
    {
      "midi": 83,
      "hit": false,
      "t": 321142.9106666723,
      "d": 102.04083333333256,
      "v": 53
    },
    {
      "midi": 80,
      "hit": false,
      "t": 321311.27804167225,
      "d": 86.73470833338797,
      "v": 57
    },
    {
      "midi": 64,
      "hit": false,
      "t": 321362.29845833895,
      "d": 260.2041250000475,
      "v": 34
    },
    {
      "midi": 60,
      "hit": false,
      "t": 321362.29845833895,
      "d": 346.93883333337726,
      "v": 49
    },
    {
      "midi": 57,
      "hit": false,
      "t": 321367.40050000563,
      "d": 377.55108333338285,
      "v": 35
    },
    {
      "midi": 83,
      "hit": false,
      "t": 321443.93112500565,
      "d": 142.85716666665394,
      "v": 63
    },
    {
      "midi": 80,
      "hit": false,
      "t": 321632.7066666723,
      "d": 45.91837500000838,
      "v": 36
    },
    {
      "midi": 81,
      "hit": false,
      "t": 321750.0536250057,
      "d": 122.44900000002235,
      "v": 66
    },
    {
      "midi": 76,
      "hit": false,
      "t": 321928.62508333905,
      "d": 81.63266666670097,
      "v": 41
    },
    {
      "midi": 60,
      "hit": false,
      "t": 322005.15570833907,
      "d": 397.95925000013085,
      "v": 32
    },
    {
      "midi": 55,
      "hit": false,
      "t": 322015.35979167244,
      "d": 316.3265833334299,
      "v": 25
    },
    {
      "midi": 64,
      "hit": false,
      "t": 322020.4618333391,
      "d": 306.1225000000559,
      "v": 24
    },
    {
      "midi": 74,
      "hit": false,
      "t": 322071.4822500058,
      "d": 102.04083333333256,
      "v": 64
    },
    {
      "midi": 74,
      "hit": false,
      "t": 322357.1965833392,
      "d": 147.95920833334094,
      "v": 71
    },
    {
      "midi": 74,
      "hit": false,
      "t": 322658.21704167256,
      "d": 147.95920833334094,
      "v": 65
    },
    {
      "midi": 55,
      "hit": false,
      "t": 322658.21704167256,
      "d": 204.08166666666511,
      "v": 38
    },
    {
      "midi": 60,
      "hit": false,
      "t": 322699.0333750059,
      "d": 270.4082083333633,
      "v": 25
    },
    {
      "midi": 72,
      "hit": false,
      "t": 322872.50279167254,
      "d": 45.91837500000838,
      "v": 29
    },
    {
      "midi": 74,
      "hit": false,
      "t": 322949.03341667255,
      "d": 132.65308333333815,
      "v": 38
    },
    {
      "midi": 81,
      "hit": false,
      "t": 323132.7069166726,
      "d": 122.44899999996414,
      "v": 75
    },
    {
      "midi": 64,
      "hit": false,
      "t": 323142.9110000059,
      "d": 102.04083333333256,
      "v": 39
    },
    {
      "midi": 60,
      "hit": false,
      "t": 323168.4212083392,
      "d": 66.32654166669818,
      "v": 39
    },
    {
      "midi": 53,
      "hit": false,
      "t": 323173.5232500059,
      "d": 107.14287499996135,
      "v": 16
    },
    {
      "midi": 57,
      "hit": false,
      "t": 323173.5232500059,
      "d": 311.22454166662646,
      "v": 38
    },
    {
      "midi": 74,
      "hit": false,
      "t": 323265.36000000587,
      "d": 96.93879166664556,
      "v": 54
    },
    {
      "midi": 74,
      "hit": false,
      "t": 323556.17637500586,
      "d": 127.55104166665114,
      "v": 57
    },
    {
      "midi": 72,
      "hit": false,
      "t": 323739.84987500584,
      "d": 61.224500000011176,
      "v": 28
    },
    {
      "midi": 57,
      "hit": false,
      "t": 323836.78866667254,
      "d": 122.44900000002235,
      "v": 27
    },
    {
      "midi": 74,
      "hit": false,
      "t": 323852.09479167254,
      "d": 173.46941666665953,
      "v": 46
    },
    {
      "midi": 81,
      "hit": false,
      "t": 324051.0744166725,
      "d": 76.53062500001397,
      "v": 61
    },
    {
      "midi": 64,
      "hit": false,
      "t": 324484.7479583392,
      "d": 61.224500000011176,
      "v": 31
    },
    {
      "midi": 57,
      "hit": false,
      "t": 324500.05408333923,
      "d": 86.73470833332976,
      "v": 34
    },
    {
      "midi": 60,
      "hit": false,
      "t": 324505.1561250059,
      "d": 56.122458333324175,
      "v": 30
    },
    {
      "midi": 64,
      "hit": false,
      "t": 324959.2378333392,
      "d": 40.81633333332138,
      "v": 38
    },
    {
      "midi": 60,
      "hit": false,
      "t": 324969.4419166725,
      "d": 35.71429166669259,
      "v": 38
    },
    {
      "midi": 57,
      "hit": false,
      "t": 324969.4419166725,
      "d": 66.32654166669818,
      "v": 38
    },
    {
      "midi": 77,
      "hit": false,
      "t": 325112.2990833392,
      "d": 81.63266666664276,
      "v": 59
    },
    {
      "midi": 81,
      "hit": false,
      "t": 325285.7685000059,
      "d": 51.02041666669538,
      "v": 60
    },
    {
      "midi": 84,
      "hit": false,
      "t": 325428.6256666726,
      "d": 61.224500000011176,
      "v": 64
    },
    {
      "midi": 76,
      "hit": false,
      "t": 325586.78895833925,
      "d": 71.42858333344338,
      "v": 68
    },
    {
      "midi": 88,
      "hit": false,
      "t": 325586.78895833925,
      "d": 71.42858333344338,
      "v": 70
    },
    {
      "midi": 81,
      "hit": false,
      "t": 325591.89100000594,
      "d": 61.22450000006938,
      "v": 54
    },
    {
      "midi": 84,
      "hit": false,
      "t": 325596.9930416726,
      "d": 35.71429166669259,
      "v": 56
    },
    {
      "midi": 60,
      "hit": false,
      "t": 325602.0950833393,
      "d": 30.612250000005588,
      "v": 56
    },
    {
      "midi": 57,
      "hit": false,
      "t": 325612.29916667263,
      "d": 71.42858333344338,
      "v": 47
    },
    {
      "midi": 53,
      "hit": false,
      "t": 325617.4012083393,
      "d": 112.24491666676477,
      "v": 38
    },
    {
      "midi": 50,
      "hit": false,
      "t": 325622.503250006,
      "d": 40.81633333337959,
      "v": 24
    },
    {
      "midi": 88,
      "hit": false,
      "t": 325714.3400000061,
      "d": 178.57145833334653,
      "v": 64
    },
    {
      "midi": 76,
      "hit": false,
      "t": 325729.6461250061,
      "d": 168.36737500003073,
      "v": 50
    },
    {
      "midi": 81,
      "hit": false,
      "t": 325729.6461250061,
      "d": 204.08166666666511,
      "v": 50
    },
    {
      "midi": 84,
      "hit": false,
      "t": 325739.8502083394,
      "d": 168.36737500003073,
      "v": 47
    },
    {
      "midi": 86,
      "hit": false,
      "t": 326010.25841667276,
      "d": 30.612250000005588,
      "v": 26
    },
    {
      "midi": 72,
      "hit": false,
      "t": 326010.25841667276,
      "d": 51.02041666669538,
      "v": 39
    },
    {
      "midi": 84,
      "hit": false,
      "t": 326010.25841667276,
      "d": 76.53062500001397,
      "v": 38
    },
    {
      "midi": 88,
      "hit": false,
      "t": 326193.9319166728,
      "d": 71.42858333344338,
      "v": 81
    },
    {
      "midi": 76,
      "hit": false,
      "t": 326199.0339583395,
      "d": 66.32654166675638,
      "v": 69
    },
    {
      "midi": 81,
      "hit": false,
      "t": 326204.13600000617,
      "d": 76.53062500007218,
      "v": 57
    },
    {
      "midi": 84,
      "hit": false,
      "t": 326219.4421250062,
      "d": 30.612250000005588,
      "v": 37
    },
    {
      "midi": 60,
      "hit": false,
      "t": 326234.7482500062,
      "d": 25.510208333376795,
      "v": 58
    },
    {
      "midi": 57,
      "hit": false,
      "t": 326255.15641667286,
      "d": 56.12245833338238,
      "v": 45
    },
    {
      "midi": 53,
      "hit": false,
      "t": 326265.36050000624,
      "d": 86.73470833338797,
      "v": 33
    },
    {
      "midi": 88,
      "hit": false,
      "t": 326331.68704167294,
      "d": 137.75512500002515,
      "v": 66
    },
    {
      "midi": 76,
      "hit": false,
      "t": 326341.89112500625,
      "d": 178.57145833340473,
      "v": 52
    },
    {
      "midi": 81,
      "hit": false,
      "t": 326346.99316667294,
      "d": 188.77554166672053,
      "v": 48
    },
    {
      "midi": 84,
      "hit": false,
      "t": 326352.0952083396,
      "d": 132.65308333333815,
      "v": 44
    },
    {
      "midi": 86,
      "hit": false,
      "t": 326387.8095000063,
      "d": 86.73470833332976,
      "v": 33
    },
    {
      "midi": 57,
      "hit": false,
      "t": 326556.17687500635,
      "d": 56.122458333324175,
      "v": 28
    },
    {
      "midi": 53,
      "hit": false,
      "t": 326581.68708333967,
      "d": 61.224500000011176,
      "v": 16
    },
    {
      "midi": 84,
      "hit": false,
      "t": 326607.197291673,
      "d": 102.04083333339076,
      "v": 66
    },
    {
      "midi": 72,
      "hit": false,
      "t": 326627.6054583397,
      "d": 61.224500000011176,
      "v": 31
    },
    {
      "midi": 74,
      "hit": false,
      "t": 326642.9115833397,
      "d": 45.91837500000838,
      "v": 26
    },
    {
      "midi": 57,
      "hit": false,
      "t": 326918.42183333973,
      "d": 86.73470833332976,
      "v": 47
    },
    {
      "midi": 48,
      "hit": false,
      "t": 326923.5238750064,
      "d": 112.24491666664835,
      "v": 45
    },
    {
      "midi": 57,
      "hit": false,
      "t": 327398.0137500064,
      "d": 45.91837500000838,
      "v": 72
    },
    {
      "midi": 48,
      "hit": false,
      "t": 327403.1157916731,
      "d": 107.14287499996135,
      "v": 62
    },
    {
      "midi": 85,
      "hit": false,
      "t": 327704.1362500064,
      "d": 107.14287500001956,
      "v": 83
    },
    {
      "midi": 73,
      "hit": false,
      "t": 327719.4423750064,
      "d": 25.510208333318587,
      "v": 48
    },
    {
      "midi": 82,
      "hit": false,
      "t": 327719.4423750064,
      "d": 112.24491666670656,
      "v": 60
    },
    {
      "midi": 74,
      "hit": false,
      "t": 327729.6464583397,
      "d": 30.612250000005588,
      "v": 80
    },
    {
      "midi": 79,
      "hit": false,
      "t": 327734.7485000064,
      "d": 40.81633333332138,
      "v": 49
    },
    {
      "midi": 75,
      "hit": false,
      "t": 327734.7485000064,
      "d": 61.224500000011176,
      "v": 34
    },
    {
      "midi": 55,
      "hit": false,
      "t": 327760.2587083397,
      "d": 40.81633333337959,
      "v": 51
    },
    {
      "midi": 86,
      "hit": false,
      "t": 327867.4015833398,
      "d": 127.55104166670935,
      "v": 68
    },
    {
      "midi": 74,
      "hit": false,
      "t": 327877.6056666731,
      "d": 137.75512500008335,
      "v": 73
    },
    {
      "midi": 84,
      "hit": false,
      "t": 327892.9117916731,
      "d": 81.63266666670097,
      "v": 49
    },
    {
      "midi": 82,
      "hit": false,
      "t": 327892.9117916731,
      "d": 91.83675000007497,
      "v": 37
    },
    {
      "midi": 79,
      "hit": false,
      "t": 327913.3199583398,
      "d": 66.32654166669818,
      "v": 36
    },
    {
      "midi": 55,
      "hit": false,
      "t": 328081.6873333398,
      "d": 30.612250000005588,
      "v": 51
    },
    {
      "midi": 47,
      "hit": false,
      "t": 328086.7893750065,
      "d": 45.91837500000838,
      "v": 38
    },
    {
      "midi": 82,
      "hit": false,
      "t": 328137.8097916732,
      "d": 132.65308333333815,
      "v": 60
    },
    {
      "midi": 70,
      "hit": false,
      "t": 328148.0138750065,
      "d": 132.65308333333815,
      "v": 58
    },
    {
      "midi": 75,
      "hit": false,
      "t": 328153.1159166732,
      "d": 35.71429166669259,
      "v": 46
    },
    {
      "midi": 83,
      "hit": false,
      "t": 328341.8914583399,
      "d": 66.32654166669818,
      "v": 58
    },
    {
      "midi": 71,
      "hit": false,
      "t": 328346.99350000656,
      "d": 107.14287500001956,
      "v": 61
    },
    {
      "midi": 76,
      "hit": false,
      "t": 328362.29962500656,
      "d": 66.32654166669818,
      "v": 57
    },
    {
      "midi": 78,
      "hit": false,
      "t": 328612.29966667324,
      "d": 86.73470833332976,
      "v": 39
    },
    {
      "midi": 66,
      "hit": false,
      "t": 328627.60579167324,
      "d": 91.83675000001676,
      "v": 34
    },
    {
      "midi": 67,
      "hit": false,
      "t": 328765.36091667326,
      "d": 91.83675000001676,
      "v": 57
    },
    {
      "midi": 79,
      "hit": false,
      "t": 328765.36091667326,
      "d": 96.93879166670376,
      "v": 46
    },
    {
      "midi": 47,
      "hit": false,
      "t": 329051.07525000663,
      "d": 40.81633333332138,
      "v": 37
    },
    {
      "midi": 55,
      "hit": false,
      "t": 329066.38137500663,
      "d": 61.224500000011176,
      "v": 40
    },
    {
      "midi": 62,
      "hit": false,
      "t": 329377.6059166733,
      "d": 102.04083333333256,
      "v": 55
    },
    {
      "midi": 59,
      "hit": false,
      "t": 329387.81000000663,
      "d": 244.8979999999865,
      "v": 54
    },
    {
      "midi": 56,
      "hit": false,
      "t": 329403.11612500664,
      "d": 219.3877916666679,
      "v": 26
    },
    {
      "midi": 53,
      "hit": false,
      "t": 329403.11612500664,
      "d": 239.7959583332995,
      "v": 19
    },
    {
      "midi": 67,
      "hit": false,
      "t": 329622.5039166733,
      "d": 66.32654166663997,
      "v": 61
    },
    {
      "midi": 70,
      "hit": false,
      "t": 329806.1774166733,
      "d": 61.224500000011176,
      "v": 37
    },
    {
      "midi": 71,
      "hit": false,
      "t": 329892.9121250066,
      "d": 81.63266666664276,
      "v": 60
    },
    {
      "midi": 73,
      "hit": false,
      "t": 330000.05500000657,
      "d": 45.91837500000838,
      "v": 40
    },
    {
      "midi": 74,
      "hit": false,
      "t": 330107.1978750066,
      "d": 66.32654166663997,
      "v": 59
    },
    {
      "midi": 76,
      "hit": false,
      "t": 330188.83054167323,
      "d": 81.63266666664276,
      "v": 57
    },
    {
      "midi": 77,
      "hit": false,
      "t": 330285.7693333399,
      "d": 71.42858333332697,
      "v": 49
    },
    {
      "midi": 79,
      "hit": false,
      "t": 330418.4224166732,
      "d": 40.81633333332138,
      "v": 50
    },
    {
      "midi": 80,
      "hit": false,
      "t": 330494.95304167323,
      "d": 122.44900000002235,
      "v": 42
    },
    {
      "midi": 82,
      "hit": false,
      "t": 330622.50408333994,
      "d": 91.83675000001676,
      "v": 32
    },
    {
      "midi": 83,
      "hit": false,
      "t": 330739.8510416733,
      "d": 45.91837500000838,
      "v": 42
    },
    {
      "midi": 86,
      "hit": false,
      "t": 330831.6877916733,
      "d": 168.36737499997253,
      "v": 88
    },
    {
      "midi": 84,
      "hit": false,
      "t": 330959.23883333994,
      "d": 158.16329166665673,
      "v": 81
    },
    {
      "midi": 83,
      "hit": false,
      "t": 331178.6266250066,
      "d": 112.24491666664835,
      "v": 80
    },
    {
      "midi": 80,
      "hit": false,
      "t": 331341.89195833995,
      "d": 102.04083333333256,
      "v": 57
    },
    {
      "midi": 77,
      "hit": false,
      "t": 331484.7491250066,
      "d": 76.53062500001397,
      "v": 61
    },
    {
      "midi": 74,
      "hit": false,
      "t": 331612.3001666733,
      "d": 117.34695833333535,
      "v": 48
    },
    {
      "midi": 71,
      "hit": false,
      "t": 331770.46345834,
      "d": 76.53062500001397,
      "v": 46
    },
    {
      "midi": 77,
      "hit": false,
      "t": 331892.91245834,
      "d": 158.16329166665673,
      "v": 71
    },
    {
      "midi": 76,
      "hit": false,
      "t": 332178.6267916733,
      "d": 122.44900000002235,
      "v": 69
    },
    {
      "midi": 77,
      "hit": false,
      "t": 332326.58600000665,
      "d": 137.75512499996694,
      "v": 47
    },
    {
      "midi": 76,
      "hit": false,
      "t": 332454.1370416733,
      "d": 142.85716666665394,
      "v": 53
    },
    {
      "midi": 72,
      "hit": false,
      "t": 332627.60645833996,
      "d": 81.63266666664276,
      "v": 63
    },
    {
      "midi": 67,
      "hit": false,
      "t": 332760.2595416733,
      "d": 163.26533333334373,
      "v": 44
    },
    {
      "midi": 65,
      "hit": false,
      "t": 332933.72895833995,
      "d": 51.02041666669538,
      "v": 48
    },
    {
      "midi": 48,
      "hit": false,
      "t": 332994.95345833997,
      "d": 30.612250000005588,
      "v": 40
    },
    {
      "midi": 77,
      "hit": false,
      "t": 333071.48408334,
      "d": 117.34695833333535,
      "v": 69
    },
    {
      "midi": 76,
      "hit": false,
      "t": 333081.6881666733,
      "d": 137.75512500002515,
      "v": 67
    },
    {
      "midi": 65,
      "hit": false,
      "t": 333260.25962500664,
      "d": 96.93879166664556,
      "v": 50
    },
    {
      "midi": 64,
      "hit": false,
      "t": 333525.56579167326,
      "d": 35.71429166669259,
      "v": 57
    },
    {
      "midi": 65,
      "hit": false,
      "t": 333617.4025416733,
      "d": 56.122458333324175,
      "v": 50
    },
    {
      "midi": 67,
      "hit": false,
      "t": 333709.2392916733,
      "d": 40.81633333332138,
      "v": 54
    },
    {
      "midi": 67,
      "hit": false,
      "t": 333795.9740000066,
      "d": 76.53062500001397,
      "v": 58
    },
    {
      "midi": 69,
      "hit": false,
      "t": 333887.81075000664,
      "d": 71.42858333332697,
      "v": 68
    },
    {
      "midi": 69,
      "hit": false,
      "t": 334005.15770834,
      "d": 71.42858333338518,
      "v": 73
    },
    {
      "midi": 62,
      "hit": false,
      "t": 334066.38220834,
      "d": 56.12245833338238,
      "v": 29
    },
    {
      "midi": 71,
      "hit": false,
      "t": 334071.4842500067,
      "d": 81.63266666670097,
      "v": 66
    },
    {
      "midi": 71,
      "hit": false,
      "t": 334178.6271250067,
      "d": 76.53062500001397,
      "v": 50
    },
    {
      "midi": 72,
      "hit": false,
      "t": 334275.5659166734,
      "d": 35.71429166669259,
      "v": 64
    },
    {
      "midi": 67,
      "hit": false,
      "t": 334357.1985833401,
      "d": 505.1021249999758,
      "v": 64
    },
    {
      "midi": 56,
      "hit": false,
      "t": 334357.1985833401,
      "d": 525.5102916666656,
      "v": 47
    },
    {
      "midi": 62,
      "hit": false,
      "t": 334357.1985833401,
      "d": 765.3062500000233,
      "v": 57
    },
    {
      "midi": 71,
      "hit": false,
      "t": 334933.72929167346,
      "d": 91.83675000001676,
      "v": 68
    },
    {
      "midi": 56,
      "hit": false,
      "t": 334959.2395000068,
      "d": 280.6122916666791,
      "v": 40
    },
    {
      "midi": 65,
      "hit": false,
      "t": 334964.34154167346,
      "d": 204.08166666666511,
      "v": 41
    },
    {
      "midi": 72,
      "hit": false,
      "t": 335112.3007500068,
      "d": 86.73470833332976,
      "v": 59
    },
    {
      "midi": 74,
      "hit": false,
      "t": 335250.0558750068,
      "d": 96.93879166664556,
      "v": 53
    },
    {
      "midi": 76,
      "hit": false,
      "t": 335408.2191666734,
      "d": 132.65308333333815,
      "v": 66
    },
    {
      "midi": 64,
      "hit": false,
      "t": 335479.64775000676,
      "d": 352.04087500006426,
      "v": 32
    },
    {
      "midi": 60,
      "hit": false,
      "t": 335505.1579583401,
      "d": 331.6327083334327,
      "v": 29
    },
    {
      "midi": 57,
      "hit": false,
      "t": 335510.26000000676,
      "d": 316.3265833333717,
      "v": 22
    },
    {
      "midi": 59,
      "hit": false,
      "t": 335520.4640833401,
      "d": 275.5102500000503,
      "v": 24
    },
    {
      "midi": 71,
      "hit": false,
      "t": 335535.7702083401,
      "d": 158.16329166671494,
      "v": 60
    },
    {
      "midi": 71,
      "hit": false,
      "t": 335821.48454167345,
      "d": 142.85716666671215,
      "v": 59
    },
    {
      "midi": 69,
      "hit": false,
      "t": 336005.1580416735,
      "d": 61.224500000011176,
      "v": 38
    },
    {
      "midi": 71,
      "hit": false,
      "t": 336117.4029583402,
      "d": 397.95925000001444,
      "v": 53
    },
    {
      "midi": 60,
      "hit": false,
      "t": 336127.6070416735,
      "d": 260.2041249999893,
      "v": 41
    },
    {
      "midi": 64,
      "hit": false,
      "t": 336132.7090833402,
      "d": 290.8163749999949,
      "v": 20
    },
    {
      "midi": 57,
      "hit": false,
      "t": 336142.9131666735,
      "d": 250.0000416666735,
      "v": 29
    },
    {
      "midi": 69,
      "hit": false,
      "t": 336566.3826250069,
      "d": 61.224500000011176,
      "v": 44
    },
    {
      "midi": 71,
      "hit": false,
      "t": 336704.1377500069,
      "d": 198.9796249999781,
      "v": 51
    },
    {
      "midi": 65,
      "hit": false,
      "t": 336709.2397916736,
      "d": 280.6122916666209,
      "v": 25
    },
    {
      "midi": 60,
      "hit": false,
      "t": 336719.4438750069,
      "d": 316.32658333331347,
      "v": 41
    },
    {
      "midi": 57,
      "hit": false,
      "t": 336729.64795834024,
      "d": 306.1224999999977,
      "v": 31
    },
    {
      "midi": 72,
      "hit": false,
      "t": 336928.6275833402,
      "d": 66.32654166669818,
      "v": 33
    },
    {
      "midi": 71,
      "hit": false,
      "t": 336969.44391667354,
      "d": 102.04083333339076,
      "v": 51
    },
    {
      "midi": 69,
      "hit": false,
      "t": 337066.38270834024,
      "d": 91.83675000001676,
      "v": 53
    },
    {
      "midi": 71,
      "hit": false,
      "t": 337224.5460000069,
      "d": 81.63266666664276,
      "v": 62
    },
    {
      "midi": 65,
      "hit": false,
      "t": 337265.3623333402,
      "d": 112.24491666664835,
      "v": 38
    },
    {
      "midi": 60,
      "hit": false,
      "t": 337275.56641667354,
      "d": 96.93879166664556,
      "v": 39
    },
    {
      "midi": 57,
      "hit": false,
      "t": 337290.87254167354,
      "d": 107.14287500001956,
      "v": 26
    },
    {
      "midi": 65,
      "hit": false,
      "t": 337668.42362500686,
      "d": 35.71429166669259,
      "v": 24
    },
    {
      "midi": 64,
      "hit": false,
      "t": 337959.2400000069,
      "d": 102.04083333339076,
      "v": 29
    },
    {
      "midi": 60,
      "hit": false,
      "t": 337974.5461250069,
      "d": 81.63266666670097,
      "v": 41
    },
    {
      "midi": 55,
      "hit": false,
      "t": 337979.6481666736,
      "d": 122.44900000002235,
      "v": 31
    },
    {
      "midi": 64,
      "hit": false,
      "t": 338418.42375000694,
      "d": 71.42858333332697,
      "v": 39
    },
    {
      "midi": 60,
      "hit": false,
      "t": 338428.62783334026,
      "d": 45.91837500000838,
      "v": 44
    },
    {
      "midi": 55,
      "hit": false,
      "t": 338428.62783334026,
      "d": 51.02041666669538,
      "v": 43
    },
    {
      "midi": 60,
      "hit": false,
      "t": 338734.75033334026,
      "d": 35.71429166663438,
      "v": 50
    },
    {
      "midi": 55,
      "hit": false,
      "t": 338744.9544166736,
      "d": 40.81633333332138,
      "v": 40
    },
    {
      "midi": 92,
      "hit": false,
      "t": 338846.9952500069,
      "d": 112.24491666670656,
      "v": 84
    },
    {
      "midi": 80,
      "hit": false,
      "t": 338852.0972916736,
      "d": 71.42858333332697,
      "v": 82
    },
    {
      "midi": 87,
      "hit": false,
      "t": 338857.1993333403,
      "d": 96.93879166664556,
      "v": 79
    },
    {
      "midi": 93,
      "hit": false,
      "t": 339030.66875000694,
      "d": 71.42858333344338,
      "v": 81
    },
    {
      "midi": 88,
      "hit": false,
      "t": 339035.7707916736,
      "d": 51.02041666669538,
      "v": 67
    },
    {
      "midi": 90,
      "hit": false,
      "t": 339035.7707916736,
      "d": 61.22450000006938,
      "v": 51
    },
    {
      "midi": 81,
      "hit": false,
      "t": 339040.8728333403,
      "d": 56.12245833338238,
      "v": 60
    },
    {
      "midi": 91,
      "hit": false,
      "t": 339056.1789583403,
      "d": 35.71429166669259,
      "v": 46
    },
    {
      "midi": 93,
      "hit": false,
      "t": 339153.1177500071,
      "d": 132.65308333333815,
      "v": 63
    },
    {
      "midi": 88,
      "hit": false,
      "t": 339163.3218333404,
      "d": 107.14287500001956,
      "v": 63
    },
    {
      "midi": 90,
      "hit": false,
      "t": 339163.3218333404,
      "d": 107.14287500001956,
      "v": 37
    },
    {
      "midi": 64,
      "hit": false,
      "t": 339163.3218333404,
      "d": 280.6122916666791,
      "v": 49
    },
    {
      "midi": 60,
      "hit": false,
      "t": 339163.3218333404,
      "d": 367.34700000000885,
      "v": 45
    },
    {
      "midi": 54,
      "hit": false,
      "t": 339168.4238750071,
      "d": 362.24495833332185,
      "v": 35
    },
    {
      "midi": 81,
      "hit": false,
      "t": 339173.52591667377,
      "d": 122.44899999996414,
      "v": 55
    },
    {
      "midi": 93,
      "hit": false,
      "t": 339464.34229167376,
      "d": 76.53062499995576,
      "v": 78
    },
    {
      "midi": 88,
      "hit": false,
      "t": 339474.5463750071,
      "d": 30.612250000005588,
      "v": 68
    },
    {
      "midi": 81,
      "hit": false,
      "t": 339474.5463750071,
      "d": 112.24491666664835,
      "v": 69
    },
    {
      "midi": 54,
      "hit": false,
      "t": 339704.13825000706,
      "d": 86.73470833327156,
      "v": 30
    },
    {
      "midi": 60,
      "hit": false,
      "t": 339714.3423333404,
      "d": 81.63266666664276,
      "v": 34
    },
    {
      "midi": 87,
      "hit": false,
      "t": 339780.668875007,
      "d": 91.83675000001676,
      "v": 50
    },
    {
      "midi": 75,
      "hit": false,
      "t": 339790.87295834033,
      "d": 86.73470833338797,
      "v": 28
    },
    {
      "midi": 85,
      "hit": false,
      "t": 339831.6892916737,
      "d": 30.612250000005588,
      "v": 34
    },
    {
      "midi": 88,
      "hit": false,
      "t": 339872.50562500703,
      "d": 35.71429166669259,
      "v": 60
    },
    {
      "midi": 54,
      "hit": false,
      "t": 340020.4648333404,
      "d": 204.08166666672332,
      "v": 34
    },
    {
      "midi": 84,
      "hit": false,
      "t": 340071.48525000707,
      "d": 107.14287500001956,
      "v": 30
    },
    {
      "midi": 72,
      "hit": false,
      "t": 340081.6893333404,
      "d": 127.55104166670935,
      "v": 37
    },
    {
      "midi": 83,
      "hit": false,
      "t": 340086.7913750071,
      "d": 86.73470833332976,
      "v": 28
    },
    {
      "midi": 70,
      "hit": false,
      "t": 340454.1383750071,
      "d": 168.36737499997253,
      "v": 45
    },
    {
      "midi": 82,
      "hit": false,
      "t": 340454.1383750071,
      "d": 178.57145833328832,
      "v": 35
    },
    {
      "midi": 62,
      "hit": false,
      "t": 340454.1383750071,
      "d": 260.2041249999311,
      "v": 33
    },
    {
      "midi": 55,
      "hit": false,
      "t": 340454.1383750071,
      "d": 280.6122916666209,
      "v": 41
    },
    {
      "midi": 58,
      "hit": false,
      "t": 340454.1383750071,
      "d": 352.04087499994785,
      "v": 34
    },
    {
      "midi": 81,
      "hit": false,
      "t": 340729.648625007,
      "d": 81.63266666670097,
      "v": 19
    },
    {
      "midi": 69,
      "hit": false,
      "t": 340739.8527083404,
      "d": 86.73470833332976,
      "v": 38
    },
    {
      "midi": 62,
      "hit": false,
      "t": 341025.5670416737,
      "d": 117.34695833333535,
      "v": 47
    },
    {
      "midi": 82,
      "hit": false,
      "t": 341035.771125007,
      "d": 96.93879166670376,
      "v": 59
    },
    {
      "midi": 58,
      "hit": false,
      "t": 341035.771125007,
      "d": 163.26533333334373,
      "v": 37
    },
    {
      "midi": 70,
      "hit": false,
      "t": 341040.8731666737,
      "d": 86.73470833332976,
      "v": 56
    },
    {
      "midi": 63,
      "hit": false,
      "t": 341612.3018333404,
      "d": 183.67350000003353,
      "v": 45
    },
    {
      "midi": 55,
      "hit": false,
      "t": 341653.1181666737,
      "d": 137.75512500002515,
      "v": 37
    },
    {
      "midi": 58,
      "hit": false,
      "t": 341653.1181666737,
      "d": 153.06125000002794,
      "v": 37
    },
    {
      "midi": 63,
      "hit": false,
      "t": 342102.0978333404,
      "d": 326.53066666668747,
      "v": 51
    },
    {
      "midi": 55,
      "hit": false,
      "t": 342127.6080416737,
      "d": 275.5102500000503,
      "v": 39
    },
    {
      "midi": 58,
      "hit": false,
      "t": 342132.7100833404,
      "d": 255.1020833333605,
      "v": 37
    },
    {
      "midi": 84,
      "hit": false,
      "t": 342540.87341667374,
      "d": 117.34695833333535,
      "v": 92
    },
    {
      "midi": 83,
      "hit": false,
      "t": 342545.9754583404,
      "d": 122.44899999996414,
      "v": 85
    },
    {
      "midi": 55,
      "hit": false,
      "t": 342556.17954167374,
      "d": 234.6939166666125,
      "v": 47
    },
    {
      "midi": 58,
      "hit": false,
      "t": 342566.38362500706,
      "d": 316.32658333331347,
      "v": 35
    },
    {
      "midi": 85,
      "hit": false,
      "t": 342724.5469166737,
      "d": 86.73470833332976,
      "v": 76
    },
    {
      "midi": 84,
      "hit": false,
      "t": 342872.50612500706,
      "d": 102.04083333333256,
      "v": 36
    },
    {
      "midi": 82,
      "hit": false,
      "t": 343045.9755416737,
      "d": 86.73470833338797,
      "v": 68
    },
    {
      "midi": 58,
      "hit": false,
      "t": 343076.5877916737,
      "d": 137.75512500002515,
      "v": 35
    },
    {
      "midi": 55,
      "hit": false,
      "t": 343081.6898333404,
      "d": 76.53062500001397,
      "v": 36
    },
    {
      "midi": 77,
      "hit": false,
      "t": 343214.34291667375,
      "d": 112.24491666664835,
      "v": 27
    },
    {
      "midi": 58,
      "hit": false,
      "t": 343392.91437500704,
      "d": 61.22450000006938,
      "v": 35
    },
    {
      "midi": 74,
      "hit": false,
      "t": 343398.0164166737,
      "d": 35.71429166669259,
      "v": 27
    },
    {
      "midi": 58,
      "hit": false,
      "t": 343760.2613750071,
      "d": 158.16329166665673,
      "v": 39
    },
    {
      "midi": 75,
      "hit": false,
      "t": 344066.3838750071,
      "d": 122.44900000002235,
      "v": 93
    },
    {
      "midi": 76,
      "hit": false,
      "t": 344260.26145834045,
      "d": 117.34695833333535,
      "v": 62
    },
    {
      "midi": 75,
      "hit": false,
      "t": 344382.7104583405,
      "d": 122.44900000002235,
      "v": 46
    },
    {
      "midi": 73,
      "hit": false,
      "t": 344551.0778333405,
      "d": 112.24491666664835,
      "v": 51
    },
    {
      "midi": 61,
      "hit": false,
      "t": 344591.8941666738,
      "d": 91.83675000001676,
      "v": 34
    },
    {
      "midi": 72,
      "hit": false,
      "t": 344704.13908334053,
      "d": 81.63266666664276,
      "v": 41
    },
    {
      "midi": 70,
      "hit": false,
      "t": 344862.3023750072,
      "d": 91.83675000001676,
      "v": 54
    },
    {
      "midi": 61,
      "hit": false,
      "t": 344892.9146250072,
      "d": 30.612250000005588,
      "v": 34
    },
    {
      "midi": 58,
      "hit": false,
      "t": 344913.3227916739,
      "d": 66.32654166663997,
      "v": 25
    },
    {
      "midi": 69,
      "hit": false,
      "t": 345005.15954167384,
      "d": 122.44900000002235,
      "v": 34
    },
    {
      "midi": 67,
      "hit": false,
      "t": 345173.5269166739,
      "d": 76.53062500001397,
      "v": 54
    },
    {
      "midi": 55,
      "hit": false,
      "t": 345290.8738750072,
      "d": 311.2245416666847,
      "v": 28
    },
    {
      "midi": 45,
      "hit": false,
      "t": 345306.1800000072,
      "d": 719.3878750000731,
      "v": 24
    },
    {
      "midi": 63,
      "hit": false,
      "t": 345321.4861250072,
      "d": 372.44904166669585,
      "v": 25
    },
    {
      "midi": 60,
      "hit": false,
      "t": 345622.5065833406,
      "d": 86.73470833332976,
      "v": 48
    },
    {
      "midi": 62,
      "hit": false,
      "t": 345933.73112500727,
      "d": 81.63266666670097,
      "v": 89
    },
    {
      "midi": 69,
      "hit": false,
      "t": 345938.83316667395,
      "d": 178.57145833328832,
      "v": 76
    },
    {
      "midi": 63,
      "hit": false,
      "t": 346091.8944166739,
      "d": 137.75512500002515,
      "v": 37
    },
    {
      "midi": 62,
      "hit": false,
      "t": 346153.11891667394,
      "d": 107.14287500001956,
      "v": 54
    },
    {
      "midi": 60,
      "hit": false,
      "t": 346280.66995834064,
      "d": 107.14287500001956,
      "v": 45
    },
    {
      "midi": 58,
      "hit": false,
      "t": 346433.7312083407,
      "d": 86.73470833332976,
      "v": 48
    },
    {
      "midi": 50,
      "hit": false,
      "t": 346469.44550000736,
      "d": 316.32658333331347,
      "v": 19
    },
    {
      "midi": 38,
      "hit": false,
      "t": 346479.6495833407,
      "d": 719.3878750000731,
      "v": 19
    },
    {
      "midi": 57,
      "hit": false,
      "t": 346556.1802083407,
      "d": 173.46941666665953,
      "v": 37
    },
    {
      "midi": 58,
      "hit": false,
      "t": 346744.95575000736,
      "d": 91.83675000001676,
      "v": 43
    },
    {
      "midi": 45,
      "hit": false,
      "t": 346775.56800000736,
      "d": 66.32654166669818,
      "v": 22
    },
    {
      "midi": 60,
      "hit": false,
      "t": 346862.30270834075,
      "d": 209.18370833335212,
      "v": 79
    },
    {
      "midi": 50,
      "hit": false,
      "t": 347010.2619166741,
      "d": 40.81633333332138,
      "v": 46
    },
    {
      "midi": 57,
      "hit": false,
      "t": 347158.22112500743,
      "d": 188.77554166666232,
      "v": 66
    },
    {
      "midi": 38,
      "hit": false,
      "t": 347326.5885000074,
      "d": 112.24491666664835,
      "v": 31
    },
    {
      "midi": 54,
      "hit": false,
      "t": 347372.5068750074,
      "d": 326.53066666662926,
      "v": 69
    },
    {
      "midi": 43,
      "hit": false,
      "t": 347765.3640833407,
      "d": 35.71429166669259,
      "v": 38
    },
    {
      "midi": 70,
      "hit": false,
      "t": 348051.07841667405,
      "d": 142.85716666671215,
      "v": 70
    },
    {
      "midi": 55,
      "hit": false,
      "t": 348056.18045834074,
      "d": 147.95920833334094,
      "v": 55
    },
    {
      "midi": 60,
      "hit": false,
      "t": 348066.38454167405,
      "d": 91.83675000001676,
      "v": 49
    },
    {
      "midi": 65,
      "hit": false,
      "t": 348071.48658334074,
      "d": 137.75512500002515,
      "v": 55
    },
    {
      "midi": 54,
      "hit": false,
      "t": 348270.4662083408,
      "d": 127.55104166670935,
      "v": 39
    },
    {
      "midi": 70,
      "hit": false,
      "t": 348372.5070416741,
      "d": 153.06125000002794,
      "v": 58
    },
    {
      "midi": 65,
      "hit": false,
      "t": 348377.6090833408,
      "d": 132.65308333333815,
      "v": 63
    },
    {
      "midi": 60,
      "hit": false,
      "t": 348382.7111250075,
      "d": 102.04083333333256,
      "v": 54
    },
    {
      "midi": 55,
      "hit": false,
      "t": 348408.2213333408,
      "d": 102.04083333333256,
      "v": 50
    },
    {
      "midi": 61,
      "hit": false,
      "t": 348831.69079167413,
      "d": 61.224500000011176,
      "v": 55
    },
    {
      "midi": 64,
      "hit": false,
      "t": 348841.89487500745,
      "d": 66.32654166669818,
      "v": 61
    },
    {
      "midi": 48,
      "hit": false,
      "t": 348841.89487500745,
      "d": 71.42858333338518,
      "v": 54
    },
    {
      "midi": 67,
      "hit": false,
      "t": 348846.99691667414,
      "d": 81.63266666670097,
      "v": 47
    },
    {
      "midi": 58,
      "hit": false,
      "t": 348857.20100000745,
      "d": 71.42858333338518,
      "v": 39
    },
    {
      "midi": 63,
      "hit": false,
      "t": 349265.36433334084,
      "d": 107.14287500007777,
      "v": 71
    },
    {
      "midi": 75,
      "hit": false,
      "t": 349270.4663750075,
      "d": 142.85716666677035,
      "v": 59
    },
    {
      "midi": 68,
      "hit": false,
      "t": 349275.5684166742,
      "d": 122.44900000008056,
      "v": 67
    },
    {
      "midi": 72,
      "hit": false,
      "t": 349275.5684166742,
      "d": 127.55104166676756,
      "v": 60
    },
    {
      "midi": 64,
      "hit": false,
      "t": 349280.6704583409,
      "d": 96.93879166670376,
      "v": 71
    },
    {
      "midi": 73,
      "hit": false,
      "t": 349581.69091667427,
      "d": 173.46941666671773,
      "v": 49
    },
    {
      "midi": 68,
      "hit": false,
      "t": 349586.79295834096,
      "d": 178.57145833334653,
      "v": 62
    },
    {
      "midi": 61,
      "hit": false,
      "t": 349596.9970416743,
      "d": 132.65308333333815,
      "v": 40
    },
    {
      "midi": 64,
      "hit": false,
      "t": 349596.9970416743,
      "d": 153.06125000002794,
      "v": 60
    },
    {
      "midi": 58,
      "hit": false,
      "t": 349898.01750000764,
      "d": 178.57145833334653,
      "v": 45
    },
    {
      "midi": 67,
      "hit": false,
      "t": 350071.4869166743,
      "d": 117.34695833333535,
      "v": 58
    },
    {
      "midi": 72,
      "hit": false,
      "t": 350071.4869166743,
      "d": 122.44900000002235,
      "v": 48
    },
    {
      "midi": 62,
      "hit": false,
      "t": 350076.588958341,
      "d": 86.73470833332976,
      "v": 49
    },
    {
      "midi": 57,
      "hit": false,
      "t": 350117.4052916743,
      "d": 91.83675000001676,
      "v": 33
    },
    {
      "midi": 72,
      "hit": false,
      "t": 350484.7522916743,
      "d": 153.06125000002794,
      "v": 51
    },
    {
      "midi": 67,
      "hit": false,
      "t": 350489.854333341,
      "d": 142.85716666665394,
      "v": 60
    },
    {
      "midi": 62,
      "hit": false,
      "t": 350500.0584166743,
      "d": 86.73470833332976,
      "v": 55
    },
    {
      "midi": 57,
      "hit": false,
      "t": 350510.26250000764,
      "d": 163.26533333340194,
      "v": 33
    },
    {
      "midi": 71,
      "hit": false,
      "t": 350693.9360000077,
      "d": 86.73470833332976,
      "v": 38
    },
    {
      "midi": 56,
      "hit": false,
      "t": 350750.05845834105,
      "d": 51.02041666669538,
      "v": 25
    },
    {
      "midi": 72,
      "hit": false,
      "t": 350816.38500000775,
      "d": 229.5918750000419,
      "v": 51
    },
    {
      "midi": 67,
      "hit": false,
      "t": 350821.48704167444,
      "d": 137.75512500002515,
      "v": 48
    },
    {
      "midi": 62,
      "hit": false,
      "t": 350821.48704167444,
      "d": 142.85716666671215,
      "v": 46
    },
    {
      "midi": 57,
      "hit": false,
      "t": 350841.8952083411,
      "d": 178.57145833334653,
      "v": 38
    },
    {
      "midi": 62,
      "hit": false,
      "t": 351122.5075000078,
      "d": 61.224500000011176,
      "v": 37
    },
    {
      "midi": 69,
      "hit": false,
      "t": 351132.7115833411,
      "d": 91.83675000001676,
      "v": 58
    },
    {
      "midi": 57,
      "hit": false,
      "t": 352280.67095834116,
      "d": 51.02041666669538,
      "v": 31
    },
    {
      "midi": 60,
      "hit": false,
      "t": 352285.77300000784,
      "d": 30.612250000005588,
      "v": 22
    },
    {
      "midi": 79,
      "hit": false,
      "t": 352341.89545834117,
      "d": 86.73470833338797,
      "v": 45
    },
    {
      "midi": 80,
      "hit": false,
      "t": 352392.91587500786,
      "d": 51.02041666669538,
      "v": 42
    },
    {
      "midi": 81,
      "hit": false,
      "t": 352464.34445834125,
      "d": 56.122458333324175,
      "v": 41
    },
    {
      "midi": 86,
      "hit": false,
      "t": 352566.3852916746,
      "d": 168.36737499997253,
      "v": 94
    },
    {
      "midi": 79,
      "hit": false,
      "t": 352969.4465833412,
      "d": 122.44900000002235,
      "v": 87
    },
    {
      "midi": 86,
      "hit": false,
      "t": 352989.8547500079,
      "d": 178.57145833334653,
      "v": 78
    },
    {
      "midi": 80,
      "hit": false,
      "t": 353127.60987500794,
      "d": 112.24491666670656,
      "v": 37
    },
    {
      "midi": 79,
      "hit": false,
      "t": 353204.14050000795,
      "d": 163.26533333334373,
      "v": 54
    },
    {
      "midi": 77,
      "hit": false,
      "t": 353306.1813333413,
      "d": 112.24491666670656,
      "v": 43
    },
    {
      "midi": 76,
      "hit": false,
      "t": 353479.650750008,
      "d": 61.224500000011176,
      "v": 31
    },
    {
      "midi": 79,
      "hit": false,
      "t": 353581.69158334134,
      "d": 168.36737499997253,
      "v": 71
    },
    {
      "midi": 77,
      "hit": false,
      "t": 353908.22225000797,
      "d": 132.65308333333815,
      "v": 66
    },
    {
      "midi": 69,
      "hit": false,
      "t": 354086.7937083413,
      "d": 71.42858333332697,
      "v": 51
    },
    {
      "midi": 48,
      "hit": false,
      "t": 354367.406000008,
      "d": 86.73470833332976,
      "v": 51
    },
    {
      "midi": 57,
      "hit": false,
      "t": 354372.5080416747,
      "d": 40.81633333332138,
      "v": 51
    },
    {
      "midi": 57,
      "hit": false,
      "t": 354739.85504167463,
      "d": 25.510208333376795,
      "v": 58
    },
    {
      "midi": 47,
      "hit": false,
      "t": 354760.2632083413,
      "d": 30.612250000005588,
      "v": 24
    },
    {
      "midi": 57,
      "hit": false,
      "t": 355438.834750008,
      "d": 102.04083333339076,
      "v": 41
    },
    {
      "midi": 65,
      "hit": false,
      "t": 355449.0388333413,
      "d": 76.53062500007218,
      "v": 29
    },
    {
      "midi": 93,
      "hit": false,
      "t": 355454.140875008,
      "d": 56.12245833338238,
      "v": 27
    },
    {
      "midi": 95,
      "hit": false,
      "t": 355459.2429166747,
      "d": 35.71429166669259,
      "v": 28
    },
    {
      "midi": 62,
      "hit": false,
      "t": 355459.2429166747,
      "d": 96.93879166670376,
      "v": 35
    },
    {
      "midi": 93,
      "hit": false,
      "t": 355612.30416667473,
      "d": 81.63266666675918,
      "v": 55
    },
    {
      "midi": 89,
      "hit": false,
      "t": 355617.4062083414,
      "d": 76.53062500007218,
      "v": 41
    },
    {
      "midi": 81,
      "hit": false,
      "t": 355627.61029167473,
      "d": 66.32654166675638,
      "v": 35
    },
    {
      "midi": 57,
      "hit": false,
      "t": 355627.61029167473,
      "d": 81.63266666675918,
      "v": 52
    },
    {
      "midi": 86,
      "hit": false,
      "t": 355632.7123333414,
      "d": 40.81633333337959,
      "v": 62
    },
    {
      "midi": 65,
      "hit": false,
      "t": 355632.7123333414,
      "d": 66.32654166675638,
      "v": 42
    },
    {
      "midi": 62,
      "hit": false,
      "t": 355637.8143750081,
      "d": 260.2041250001057,
      "v": 40
    },
    {
      "midi": 93,
      "hit": false,
      "t": 355744.9572500082,
      "d": 122.44900000002235,
      "v": 47
    },
    {
      "midi": 57,
      "hit": false,
      "t": 355750.0592916749,
      "d": 122.44900000002235,
      "v": 28
    },
    {
      "midi": 65,
      "hit": false,
      "t": 355750.0592916749,
      "d": 122.44900000002235,
      "v": 40
    },
    {
      "midi": 89,
      "hit": false,
      "t": 355760.2633750082,
      "d": 112.24491666670656,
      "v": 55
    },
    {
      "midi": 86,
      "hit": false,
      "t": 355765.3654166749,
      "d": 91.83675000001676,
      "v": 45
    },
    {
      "midi": 81,
      "hit": false,
      "t": 355765.3654166749,
      "d": 107.14287500001956,
      "v": 38
    },
    {
      "midi": 93,
      "hit": false,
      "t": 355923.52870834153,
      "d": 81.63266666675918,
      "v": 67
    },
    {
      "midi": 86,
      "hit": false,
      "t": 355928.6307500082,
      "d": 61.22450000006938,
      "v": 53
    },
    {
      "midi": 81,
      "hit": false,
      "t": 355928.6307500082,
      "d": 86.73470833344618,
      "v": 44
    },
    {
      "midi": 65,
      "hit": false,
      "t": 355933.7327916749,
      "d": 66.32654166669818,
      "v": 60
    },
    {
      "midi": 57,
      "hit": false,
      "t": 355933.7327916749,
      "d": 76.53062500007218,
      "v": 67
    },
    {
      "midi": 89,
      "hit": false,
      "t": 355933.7327916749,
      "d": 76.53062500007218,
      "v": 65
    },
    {
      "midi": 62,
      "hit": false,
      "t": 355938.8348333416,
      "d": 239.79595833347412,
      "v": 34
    },
    {
      "midi": 93,
      "hit": false,
      "t": 356051.07975000836,
      "d": 107.14287500001956,
      "v": 62
    },
    {
      "midi": 86,
      "hit": false,
      "t": 356056.18179167504,
      "d": 91.83675000001676,
      "v": 60
    },
    {
      "midi": 65,
      "hit": false,
      "t": 356061.28383334173,
      "d": 96.93879166664556,
      "v": 64
    },
    {
      "midi": 81,
      "hit": false,
      "t": 356061.28383334173,
      "d": 102.04083333333256,
      "v": 49
    },
    {
      "midi": 57,
      "hit": false,
      "t": 356061.28383334173,
      "d": 117.34695833333535,
      "v": 63
    },
    {
      "midi": 89,
      "hit": false,
      "t": 356066.3858750084,
      "d": 102.04083333333256,
      "v": 68
    },
    {
      "midi": 57,
      "hit": false,
      "t": 356214.34508334176,
      "d": 295.9184166667983,
      "v": 53
    },
    {
      "midi": 65,
      "hit": false,
      "t": 356219.44712500845,
      "d": 66.32654166669818,
      "v": 72
    },
    {
      "midi": 93,
      "hit": false,
      "t": 356219.44712500845,
      "d": 86.73470833338797,
      "v": 73
    },
    {
      "midi": 62,
      "hit": false,
      "t": 356219.44712500845,
      "d": 316.3265833334881,
      "v": 34
    },
    {
      "midi": 86,
      "hit": false,
      "t": 356224.54916667513,
      "d": 66.32654166669818,
      "v": 72
    },
    {
      "midi": 89,
      "hit": false,
      "t": 356224.54916667513,
      "d": 96.93879166670376,
      "v": 75
    },
    {
      "midi": 81,
      "hit": false,
      "t": 356229.6512083418,
      "d": 81.63266666670097,
      "v": 62
    },
    {
      "midi": 65,
      "hit": false,
      "t": 356346.99816667516,
      "d": 153.06125000008615,
      "v": 78
    },
    {
      "midi": 93,
      "hit": false,
      "t": 356352.10020834184,
      "d": 132.65308333339635,
      "v": 65
    },
    {
      "midi": 86,
      "hit": false,
      "t": 356357.20225000853,
      "d": 132.65308333339635,
      "v": 73
    },
    {
      "midi": 89,
      "hit": false,
      "t": 356362.3042916752,
      "d": 127.55104166670935,
      "v": 67
    },
    {
      "midi": 81,
      "hit": false,
      "t": 356367.4063333419,
      "d": 147.95920833334094,
      "v": 71
    },
    {
      "midi": 89,
      "hit": false,
      "t": 356648.0186250086,
      "d": 76.53062500001397,
      "v": 51
    },
    {
      "midi": 84,
      "hit": false,
      "t": 356658.2227083419,
      "d": 35.71429166669259,
      "v": 55
    },
    {
      "midi": 77,
      "hit": false,
      "t": 356658.2227083419,
      "d": 66.32654166669818,
      "v": 48
    },
    {
      "midi": 65,
      "hit": false,
      "t": 356663.3247500086,
      "d": 66.32654166669818,
      "v": 53
    },
    {
      "midi": 57,
      "hit": false,
      "t": 356663.3247500086,
      "d": 204.08166666672332,
      "v": 60
    },
    {
      "midi": 62,
      "hit": false,
      "t": 356668.4267916753,
      "d": 45.91837500000838,
      "v": 50
    },
    {
      "midi": 84,
      "hit": false,
      "t": 357561.28408334195,
      "d": 107.14287500001956,
      "v": 79
    },
    {
      "midi": 96,
      "hit": false,
      "t": 357561.28408334195,
      "d": 117.34695833333535,
      "v": 82
    },
    {
      "midi": 56,
      "hit": false,
      "t": 357561.28408334195,
      "d": 127.55104166665114,
      "v": 69
    },
    {
      "midi": 91,
      "hit": false,
      "t": 357566.38612500863,
      "d": 112.24491666664835,
      "v": 76
    },
    {
      "midi": 67,
      "hit": false,
      "t": 357566.38612500863,
      "d": 122.44899999996414,
      "v": 69
    },
    {
      "midi": 62,
      "hit": false,
      "t": 357571.4881666753,
      "d": 132.65308333327994,
      "v": 59
    },
    {
      "midi": 96,
      "hit": false,
      "t": 357734.7535000086,
      "d": 96.93879166670376,
      "v": 69
    },
    {
      "midi": 84,
      "hit": false,
      "t": 357744.9575833419,
      "d": 86.73470833338797,
      "v": 62
    },
    {
      "midi": 91,
      "hit": false,
      "t": 357744.9575833419,
      "d": 86.73470833338797,
      "v": 64
    },
    {
      "midi": 67,
      "hit": false,
      "t": 357750.0596250086,
      "d": 81.63266666670097,
      "v": 71
    },
    {
      "midi": 56,
      "hit": false,
      "t": 357750.0596250086,
      "d": 295.9184166667401,
      "v": 55
    },
    {
      "midi": 62,
      "hit": false,
      "t": 357755.1616666753,
      "d": 326.5306666667457,
      "v": 62
    },
    {
      "midi": 96,
      "hit": false,
      "t": 357867.406583342,
      "d": 168.36737500003073,
      "v": 49
    },
    {
      "midi": 67,
      "hit": false,
      "t": 357877.6106666753,
      "d": 173.46941666671773,
      "v": 70
    },
    {
      "midi": 84,
      "hit": false,
      "t": 357882.712708342,
      "d": 132.65308333333815,
      "v": 47
    },
    {
      "midi": 91,
      "hit": false,
      "t": 357882.712708342,
      "d": 132.65308333333815,
      "v": 66
    },
    {
      "midi": 56,
      "hit": false,
      "t": 358148.0188750087,
      "d": 239.79595833347412,
      "v": 67
    },
    {
      "midi": 67,
      "hit": false,
      "t": 358148.0188750087,
      "d": 244.89800000016112,
      "v": 71
    },
    {
      "midi": 96,
      "hit": false,
      "t": 358153.12091667537,
      "d": 163.26533333340194,
      "v": 80
    },
    {
      "midi": 62,
      "hit": false,
      "t": 358153.12091667537,
      "d": 255.1020833334769,
      "v": 61
    },
    {
      "midi": 91,
      "hit": false,
      "t": 358158.22295834206,
      "d": 178.57145833340473,
      "v": 75
    },
    {
      "midi": 84,
      "hit": false,
      "t": 358163.32500000874,
      "d": 193.87758333340753,
      "v": 70
    },
    {
      "midi": 67,
      "hit": false,
      "t": 358469.44750000886,
      "d": 61.224500000011176,
      "v": 53
    },
    {
      "midi": 56,
      "hit": false,
      "t": 358479.6515833422,
      "d": 56.12245833338238,
      "v": 33
    },
    {
      "midi": 62,
      "hit": false,
      "t": 358484.75362500886,
      "d": 40.81633333332138,
      "v": 55
    },
    {
      "midi": 76,
      "hit": false,
      "t": 358500.05975000886,
      "d": 35.71429166669259,
      "v": 40
    },
    {
      "midi": 56,
      "hit": false,
      "t": 358949.0394166756,
      "d": 91.83675000001676,
      "v": 53
    },
    {
      "midi": 67,
      "hit": false,
      "t": 358954.14145834226,
      "d": 66.32654166663997,
      "v": 57
    },
    {
      "midi": 62,
      "hit": false,
      "t": 358964.3455416756,
      "d": 71.42858333332697,
      "v": 55
    },
    {
      "midi": 67,
      "hit": false,
      "t": 359382.7129583423,
      "d": 71.42858333338518,
      "v": 67
    },
    {
      "midi": 62,
      "hit": false,
      "t": 359387.81500000897,
      "d": 91.83675000001676,
      "v": 59
    },
    {
      "midi": 56,
      "hit": false,
      "t": 359392.91704167565,
      "d": 137.75512500002515,
      "v": 46
    },
    {
      "midi": 64,
      "hit": false,
      "t": 359867.4069166757,
      "d": 81.63266666675918,
      "v": 53
    },
    {
      "midi": 59,
      "hit": false,
      "t": 359882.7130416757,
      "d": 40.81633333337959,
      "v": 43
    },
    {
      "midi": 60,
      "hit": false,
      "t": 359887.8150833424,
      "d": 40.81633333337959,
      "v": 45
    },
    {
      "midi": 57,
      "hit": false,
      "t": 359887.8150833424,
      "d": 45.91837500006659,
      "v": 40
    },
    {
      "midi": 64,
      "hit": false,
      "t": 360290.87637500913,
      "d": 66.32654166669818,
      "v": 62
    },
    {
      "midi": 60,
      "hit": false,
      "t": 360301.08045834245,
      "d": 91.83675000007497,
      "v": 61
    },
    {
      "midi": 57,
      "hit": false,
      "t": 360321.48862500914,
      "d": 51.02041666669538,
      "v": 38
    },
    {
      "midi": 98,
      "hit": false,
      "t": 360622.5090833425,
      "d": 66.32654166663997,
      "v": 68
    },
    {
      "midi": 99,
      "hit": false,
      "t": 360632.7131666758,
      "d": 66.32654166663997,
      "v": 69
    },
    {
      "midi": 100,
      "hit": false,
      "t": 360729.65195834247,
      "d": 56.122458333324175,
      "v": 27
    },
    {
      "midi": 64,
      "hit": false,
      "t": 360903.1213750091,
      "d": 96.93879166670376,
      "v": 60
    },
    {
      "midi": 91,
      "hit": false,
      "t": 360903.1213750091,
      "d": 107.14287500001956,
      "v": 80
    },
    {
      "midi": 103,
      "hit": false,
      "t": 360908.2234166758,
      "d": 132.65308333333815,
      "v": 78
    },
    {
      "midi": 60,
      "hit": false,
      "t": 360913.3254583425,
      "d": 76.53062500001397,
      "v": 42
    },
    {
      "midi": 57,
      "hit": false,
      "t": 360913.3254583425,
      "d": 107.14287499996135,
      "v": 50
    },
    {
      "midi": 64,
      "hit": false,
      "t": 361224.5500000091,
      "d": 132.65308333333815,
      "v": 64
    },
    {
      "midi": 91,
      "hit": false,
      "t": 361239.85612500913,
      "d": 86.73470833332976,
      "v": 75
    },
    {
      "midi": 60,
      "hit": false,
      "t": 361239.85612500913,
      "d": 96.93879166664556,
      "v": 45
    },
    {
      "midi": 103,
      "hit": false,
      "t": 361239.85612500913,
      "d": 112.24491666664835,
      "v": 79
    },
    {
      "midi": 55,
      "hit": false,
      "t": 361250.06020834245,
      "d": 66.32654166669818,
      "v": 53
    },
    {
      "midi": 57,
      "hit": false,
      "t": 361270.46837500914,
      "d": 66.32654166663997,
      "v": 31
    },
    {
      "midi": 55,
      "hit": false,
      "t": 361688.8357916758,
      "d": 122.44900000002235,
      "v": 51
    },
    {
      "midi": 64,
      "hit": false,
      "t": 361699.0398750091,
      "d": 122.44900000002235,
      "v": 37
    },
    {
      "midi": 60,
      "hit": false,
      "t": 361704.1419166758,
      "d": 107.14287500001956,
      "v": 49
    },
    {
      "midi": 57,
      "hit": false,
      "t": 361724.5500833425,
      "d": 45.91837500000838,
      "v": 37
    },
    {
      "midi": 64,
      "hit": false,
      "t": 362112.3052500091,
      "d": 168.36737499997253,
      "v": 57
    },
    {
      "midi": 60,
      "hit": false,
      "t": 362122.50933334243,
      "d": 198.9796249999781,
      "v": 47
    },
    {
      "midi": 57,
      "hit": false,
      "t": 362132.71341667575,
      "d": 214.2857499999809,
      "v": 55
    },
    {
      "midi": 53,
      "hit": false,
      "t": 362137.81545834243,
      "d": 112.24491666664835,
      "v": 34
    },
    {
      "midi": 103,
      "hit": false,
      "t": 362459.2440833424,
      "d": 153.06125000002794,
      "v": 87
    },
    {
      "midi": 91,
      "hit": false,
      "t": 362464.34612500906,
      "d": 178.57145833334653,
      "v": 90
    },
    {
      "midi": 100,
      "hit": false,
      "t": 362642.9175833424,
      "d": 45.91837500000838,
      "v": 54
    },
    {
      "midi": 64,
      "hit": false,
      "t": 362658.2237083424,
      "d": 102.04083333333256,
      "v": 36
    },
    {
      "midi": 60,
      "hit": false,
      "t": 362683.73391667573,
      "d": 107.14287500001956,
      "v": 37
    },
    {
      "midi": 57,
      "hit": false,
      "t": 362688.8359583424,
      "d": 117.34695833333535,
      "v": 38
    },
    {
      "midi": 91,
      "hit": false,
      "t": 362765.36658334243,
      "d": 127.55104166665114,
      "v": 79
    },
    {
      "midi": 103,
      "hit": false,
      "t": 362765.36658334243,
      "d": 137.75512499996694,
      "v": 82
    },
    {
      "midi": 100,
      "hit": false,
      "t": 362938.8360000091,
      "d": 107.14287500001956,
      "v": 70
    },
    {
      "midi": 96,
      "hit": false,
      "t": 363071.4890833424,
      "d": 137.75512500002515,
      "v": 38
    },
    {
      "midi": 64,
      "hit": false,
      "t": 363229.65237500914,
      "d": 61.224500000011176,
      "v": 48
    },
    {
      "midi": 60,
      "hit": false,
      "t": 363250.06054167583,
      "d": 91.83675000001676,
      "v": 47
    },
    {
      "midi": 89,
      "hit": false,
      "t": 363265.36666667584,
      "d": 40.81633333332138,
      "v": 36
    },
    {
      "midi": 57,
      "hit": false,
      "t": 363265.36666667584,
      "d": 96.93879166670376,
      "v": 43
    },
    {
      "midi": 53,
      "hit": false,
      "t": 363265.36666667584,
      "d": 127.55104166676756,
      "v": 26
    },
    {
      "midi": 91,
      "hit": false,
      "t": 363280.67279167584,
      "d": 25.510208333318587,
      "v": 25
    },
    {
      "midi": 100,
      "hit": false,
      "t": 363362.30545834254,
      "d": 132.65308333333815,
      "v": 74
    },
    {
      "midi": 88,
      "hit": false,
      "t": 363367.4075000092,
      "d": 117.34695833333535,
      "v": 73
    },
    {
      "midi": 98,
      "hit": false,
      "t": 363372.5095416759,
      "d": 30.612250000005588,
      "v": 75
    },
    {
      "midi": 64,
      "hit": false,
      "t": 363510.2646666759,
      "d": 40.81633333337959,
      "v": 33
    },
    {
      "midi": 60,
      "hit": false,
      "t": 363545.9789583426,
      "d": 86.73470833338797,
      "v": 32
    },
    {
      "midi": 57,
      "hit": false,
      "t": 363556.18304167595,
      "d": 76.53062500001397,
      "v": 34
    },
    {
      "midi": 100,
      "hit": false,
      "t": 363653.12183334265,
      "d": 168.36737500003073,
      "v": 85
    },
    {
      "midi": 88,
      "hit": false,
      "t": 363658.22387500934,
      "d": 147.95920833334094,
      "v": 81
    },
    {
      "midi": 96,
      "hit": false,
      "t": 363826.59125000937,
      "d": 132.65308333327994,
      "v": 62
    },
    {
      "midi": 64,
      "hit": false,
      "t": 363836.7953333427,
      "d": 40.81633333332138,
      "v": 31
    },
    {
      "midi": 60,
      "hit": false,
      "t": 363867.4075833427,
      "d": 66.32654166663997,
      "v": 29
    },
    {
      "midi": 57,
      "hit": false,
      "t": 363877.611666676,
      "d": 66.32654166663997,
      "v": 33
    },
    {
      "midi": 93,
      "hit": false,
      "t": 363954.14229167596,
      "d": 229.5918750000419,
      "v": 36
    },
    {
      "midi": 88,
      "hit": false,
      "t": 364153.121916676,
      "d": 81.63266666670097,
      "v": 31
    },
    {
      "midi": 57,
      "hit": false,
      "t": 364168.428041676,
      "d": 76.53062500001397,
      "v": 32
    },
    {
      "midi": 96,
      "hit": false,
      "t": 364265.3668333427,
      "d": 153.06125000002794,
      "v": 76
    },
    {
      "midi": 53,
      "hit": false,
      "t": 364484.7546250094,
      "d": 66.32654166663997,
      "v": 22
    },
    {
      "midi": 84,
      "hit": false,
      "t": 364576.59137500933,
      "d": 153.06125000002794,
      "v": 80
    },
    {
      "midi": 96,
      "hit": false,
      "t": 364576.59137500933,
      "d": 163.26533333334373,
      "v": 82
    },
    {
      "midi": 93,
      "hit": false,
      "t": 364755.1628333427,
      "d": 142.85716666665394,
      "v": 71
    },
    {
      "midi": 60,
      "hit": false,
      "t": 364785.7750833427,
      "d": 204.08166666672332,
      "v": 48
    },
    {
      "midi": 50,
      "hit": false,
      "t": 364811.285291676,
      "d": 142.85716666671215,
      "v": 19
    },
    {
      "midi": 53,
      "hit": false,
      "t": 364811.285291676,
      "d": 173.46941666671773,
      "v": 25
    },
    {
      "midi": 57,
      "hit": false,
      "t": 364816.3873333427,
      "d": 86.73470833332976,
      "v": 32
    },
    {
      "midi": 89,
      "hit": false,
      "t": 364903.122041676,
      "d": 153.06125000002794,
      "v": 48
    },
    {
      "midi": 93,
      "hit": false,
      "t": 365193.9384166761,
      "d": 188.77554166672053,
      "v": 75
    },
    {
      "midi": 81,
      "hit": false,
      "t": 365199.04045834276,
      "d": 142.85716666671215,
      "v": 44
    },
    {
      "midi": 83,
      "hit": false,
      "t": 365219.44862500945,
      "d": 30.612250000005588,
      "v": 46
    },
    {
      "midi": 89,
      "hit": false,
      "t": 365428.6323333428,
      "d": 30.612250000005588,
      "v": 24
    },
    {
      "midi": 53,
      "hit": false,
      "t": 365454.1425416761,
      "d": 102.04083333339076,
      "v": 26
    },
    {
      "midi": 57,
      "hit": false,
      "t": 365459.2445833428,
      "d": 76.53062500001397,
      "v": 26
    },
    {
      "midi": 50,
      "hit": false,
      "t": 365459.2445833428,
      "d": 81.63266666670097,
      "v": 22
    },
    {
      "midi": 93,
      "hit": false,
      "t": 365494.9588750095,
      "d": 168.36737500003073,
      "v": 85
    },
    {
      "midi": 81,
      "hit": false,
      "t": 365505.1629583428,
      "d": 158.16329166671494,
      "v": 70
    },
    {
      "midi": 89,
      "hit": false,
      "t": 365678.63237500953,
      "d": 117.34695833333535,
      "v": 46
    },
    {
      "midi": 86,
      "hit": false,
      "t": 365811.28545834287,
      "d": 127.55104166665114,
      "v": 34
    },
    {
      "midi": 60,
      "hit": false,
      "t": 366117.40795834287,
      "d": 71.42858333338518,
      "v": 44
    },
    {
      "midi": 50,
      "hit": false,
      "t": 366122.51000000956,
      "d": 86.73470833338797,
      "v": 34
    },
    {
      "midi": 53,
      "hit": false,
      "t": 366127.61204167624,
      "d": 122.44900000008056,
      "v": 35
    },
    {
      "midi": 57,
      "hit": false,
      "t": 366132.71408334293,
      "d": 96.93879166670376,
      "v": 40
    },
    {
      "midi": 60,
      "hit": false,
      "t": 366586.7957916763,
      "d": 178.57145833334653,
      "v": 54
    },
    {
      "midi": 57,
      "hit": false,
      "t": 366607.203958343,
      "d": 147.95920833334094,
      "v": 41
    },
    {
      "midi": 53,
      "hit": false,
      "t": 366622.510083343,
      "d": 188.77554166666232,
      "v": 27
    },
    {
      "midi": 69,
      "hit": false,
      "t": 366923.53054167633,
      "d": 71.42858333338518,
      "v": 68
    },
    {
      "midi": 57,
      "hit": false,
      "t": 366928.632583343,
      "d": 45.91837500000838,
      "v": 30
    },
    {
      "midi": 71,
      "hit": false,
      "t": 367030.6734166764,
      "d": 76.53062500001397,
      "v": 46
    },
    {
      "midi": 71,
      "hit": false,
      "t": 367132.71425000974,
      "d": 86.73470833332976,
      "v": 45
    },
    {
      "midi": 72,
      "hit": false,
      "t": 367219.44895834307,
      "d": 81.63266666664276,
      "v": 66
    },
    {
      "midi": 72,
      "hit": false,
      "t": 367326.59183334303,
      "d": 81.63266666664276,
      "v": 53
    },
    {
      "midi": 74,
      "hit": false,
      "t": 367438.8367500097,
      "d": 66.32654166663997,
      "v": 68
    },
    {
      "midi": 65,
      "hit": false,
      "t": 367505.1632916763,
      "d": 35.71429166669259,
      "v": 40
    },
    {
      "midi": 62,
      "hit": false,
      "t": 367520.4694166763,
      "d": 147.95920833334094,
      "v": 39
    },
    {
      "midi": 74,
      "hit": false,
      "t": 367535.7755416763,
      "d": 96.93879166664556,
      "v": 60
    },
    {
      "midi": 76,
      "hit": false,
      "t": 367622.51025000965,
      "d": 96.93879166670376,
      "v": 73
    },
    {
      "midi": 76,
      "hit": false,
      "t": 367744.9592500097,
      "d": 102.04083333333256,
      "v": 62
    },
    {
      "midi": 62,
      "hit": false,
      "t": 367821.4898750097,
      "d": 96.93879166664556,
      "v": 33
    },
    {
      "midi": 77,
      "hit": false,
      "t": 367836.7960000097,
      "d": 71.42858333332697,
      "v": 68
    },
    {
      "midi": 77,
      "hit": false,
      "t": 367938.836833343,
      "d": 91.83675000001676,
      "v": 59
    },
    {
      "midi": 79,
      "hit": false,
      "t": 368035.77562500973,
      "d": 71.42858333332697,
      "v": 63
    },
    {
      "midi": 79,
      "hit": false,
      "t": 368142.91850000975,
      "d": 86.73470833327156,
      "v": 58
    },
    {
      "midi": 65,
      "hit": false,
      "t": 368153.12258334307,
      "d": 35.71429166663438,
      "v": 45
    },
    {
      "midi": 62,
      "hit": false,
      "t": 368178.6327916764,
      "d": 51.020416666637175,
      "v": 31
    },
    {
      "midi": 81,
      "hit": false,
      "t": 368239.85729167634,
      "d": 91.83675000001676,
      "v": 55
    },
    {
      "midi": 81,
      "hit": false,
      "t": 368372.5103750097,
      "d": 91.83675000001676,
      "v": 29
    },
    {
      "midi": 62,
      "hit": false,
      "t": 368545.97979167633,
      "d": 566.3266250000452,
      "v": 59
    },
    {
      "midi": 65,
      "hit": false,
      "t": 368551.081833343,
      "d": 346.93883333331905,
      "v": 55
    },
    {
      "midi": 56,
      "hit": false,
      "t": 368576.59204167634,
      "d": 362.24495833332185,
      "v": 38
    },
    {
      "midi": 77,
      "hit": false,
      "t": 369015.3676250097,
      "d": 102.04083333339076,
      "v": 62
    },
    {
      "midi": 65,
      "hit": false,
      "t": 369030.6737500097,
      "d": 35.71429166669259,
      "v": 40
    },
    {
      "midi": 80,
      "hit": false,
      "t": 369086.79620834306,
      "d": 76.53062500001397,
      "v": 35
    },
    {
      "midi": 83,
      "hit": false,
      "t": 369173.5309166764,
      "d": 61.224500000011176,
      "v": 37
    },
    {
      "midi": 86,
      "hit": false,
      "t": 369244.9595000097,
      "d": 30.612250000005588,
      "v": 63
    },
    {
      "midi": 62,
      "hit": false,
      "t": 369331.69420834305,
      "d": 117.34695833333535,
      "v": 42
    },
    {
      "midi": 89,
      "hit": false,
      "t": 369352.10237500974,
      "d": 107.14287499996135,
      "v": 55
    },
    {
      "midi": 56,
      "hit": false,
      "t": 369377.61258334306,
      "d": 71.42858333332697,
      "v": 19
    },
    {
      "midi": 92,
      "hit": false,
      "t": 369403.1227916764,
      "d": 132.65308333333815,
      "v": 49
    },
    {
      "midi": 95,
      "hit": false,
      "t": 369561.28608334303,
      "d": 61.224500000011176,
      "v": 36
    },
    {
      "midi": 98,
      "hit": false,
      "t": 369637.81670834305,
      "d": 193.87758333334932,
      "v": 90
    },
    {
      "midi": 96,
      "hit": false,
      "t": 369755.1636666764,
      "d": 295.9184166666819,
      "v": 83
    },
    {
      "midi": 95,
      "hit": false,
      "t": 370097.0004583431,
      "d": 147.95920833334094,
      "v": 77
    },
    {
      "midi": 92,
      "hit": false,
      "t": 370255.1637500097,
      "d": 117.34695833333535,
      "v": 74
    },
    {
      "midi": 89,
      "hit": false,
      "t": 370398.0209166764,
      "d": 96.93879166664556,
      "v": 58
    },
    {
      "midi": 86,
      "hit": false,
      "t": 370576.59237500967,
      "d": 76.53062500001397,
      "v": 72
    },
    {
      "midi": 59,
      "hit": false,
      "t": 370632.714833343,
      "d": 66.32654166669818,
      "v": 28
    },
    {
      "midi": 83,
      "hit": false,
      "t": 370729.6536250097,
      "d": 183.67349999997532,
      "v": 34
    },
    {
      "midi": 81,
      "hit": false,
      "t": 370913.3271250097,
      "d": 45.91837500000838,
      "v": 31
    },
    {
      "midi": 89,
      "hit": false,
      "t": 371010.2659166764,
      "d": 178.57145833334653,
      "v": 74
    },
    {
      "midi": 86,
      "hit": false,
      "t": 371244.95983334305,
      "d": 30.612250000005588,
      "v": 35
    },
    {
      "midi": 88,
      "hit": false,
      "t": 371336.79658334306,
      "d": 239.7959583334159,
      "v": 71
    },
    {
      "midi": 89,
      "hit": false,
      "t": 371352.10270834307,
      "d": 30.612250000005588,
      "v": 45
    },
    {
      "midi": 64,
      "hit": false,
      "t": 371352.10270834307,
      "d": 137.75512500002515,
      "v": 33
    },
    {
      "midi": 60,
      "hit": false,
      "t": 371352.10270834307,
      "d": 295.9184166667983,
      "v": 39
    },
    {
      "midi": 55,
      "hit": false,
      "t": 371362.3067916764,
      "d": 265.3061666667927,
      "v": 36
    },
    {
      "midi": 84,
      "hit": false,
      "t": 371525.5721250098,
      "d": 86.73470833338797,
      "v": 63
    },
    {
      "midi": 79,
      "hit": false,
      "t": 371668.42929167656,
      "d": 112.24491666664835,
      "v": 37
    },
    {
      "midi": 77,
      "hit": false,
      "t": 371821.4905416765,
      "d": 132.65308333339635,
      "v": 67
    },
    {
      "midi": 60,
      "hit": false,
      "t": 371857.2048333432,
      "d": 45.91837500000838,
      "v": 31
    },
    {
      "midi": 58,
      "hit": false,
      "t": 372127.6130416766,
      "d": 505.1021249999758,
      "v": 37
    },
    {
      "midi": 64,
      "hit": false,
      "t": 372229.6538750099,
      "d": 372.44904166663764,
      "v": 53
    },
    {
      "midi": 84,
      "hit": false,
      "t": 372234.7559166766,
      "d": 127.55104166665114,
      "v": 81
    },
    {
      "midi": 76,
      "hit": false,
      "t": 372250.0620416766,
      "d": 137.75512499996694,
      "v": 60
    },
    {
      "midi": 64,
      "hit": false,
      "t": 372714.3478333432,
      "d": 56.122458333324175,
      "v": 39
    },
    {
      "midi": 58,
      "hit": false,
      "t": 372714.3478333432,
      "d": 142.85716666665394,
      "v": 43
    },
    {
      "midi": 82,
      "hit": false,
      "t": 372923.5315416765,
      "d": 112.24491666670656,
      "v": 43
    },
    {
      "midi": 80,
      "hit": false,
      "t": 372959.2458333432,
      "d": 107.14287500001956,
      "v": 35
    },
    {
      "midi": 78,
      "hit": false,
      "t": 373035.7764583432,
      "d": 81.63266666670097,
      "v": 46
    },
    {
      "midi": 76,
      "hit": false,
      "t": 373153.1234166766,
      "d": 51.02041666669538,
      "v": 39
    },
    {
      "midi": 75,
      "hit": false,
      "t": 373224.55200001,
      "d": 127.55104166665114,
      "v": 52
    },
    {
      "midi": 74,
      "hit": false,
      "t": 373326.5928333433,
      "d": 91.83674999995856,
      "v": 65
    },
    {
      "midi": 73,
      "hit": false,
      "t": 373433.7357083433,
      "d": 81.63266666664276,
      "v": 49
    },
    {
      "midi": 72,
      "hit": false,
      "t": 373535.7765416766,
      "d": 56.122458333324175,
      "v": 50
    },
    {
      "midi": 70,
      "hit": false,
      "t": 373653.12350000994,
      "d": 112.24491666664835,
      "v": 55
    },
    {
      "midi": 68,
      "hit": false,
      "t": 373750.0622916766,
      "d": 51.02041666669538,
      "v": 29
    },
    {
      "midi": 66,
      "hit": false,
      "t": 373785.7765833433,
      "d": 56.122458333324175,
      "v": 51
    },
    {
      "midi": 64,
      "hit": false,
      "t": 373887.8174166766,
      "d": 35.71429166669259,
      "v": 50
    },
    {
      "midi": 63,
      "hit": false,
      "t": 373979.6541666766,
      "d": 30.612250000005588,
      "v": 26
    },
    {
      "midi": 62,
      "hit": false,
      "t": 374030.6745833433,
      "d": 86.73470833332976,
      "v": 47
    },
    {
      "midi": 61,
      "hit": false,
      "t": 374127.61337500997,
      "d": 81.63266666664276,
      "v": 58
    },
    {
      "midi": 60,
      "hit": false,
      "t": 374224.5521666766,
      "d": 45.91837500000838,
      "v": 54
    },
    {
      "midi": 56,
      "hit": false,
      "t": 374362.30729167664,
      "d": 117.34695833333535,
      "v": 32
    },
    {
      "midi": 54,
      "hit": false,
      "t": 374433.73587500997,
      "d": 142.85716666665394,
      "v": 46
    },
    {
      "midi": 44,
      "hit": false,
      "t": 374479.65425001,
      "d": 198.9796249999781,
      "v": 8
    },
    {
      "midi": 52,
      "hit": false,
      "t": 374535.7767083433,
      "d": 102.04083333333256,
      "v": 51
    },
    {
      "midi": 51,
      "hit": false,
      "t": 374612.3073333433,
      "d": 71.42858333332697,
      "v": 55
    },
    {
      "midi": 45,
      "hit": false,
      "t": 374704.14408334333,
      "d": 280.6122916666791,
      "v": 70
    },
    {
      "midi": 66,
      "hit": false,
      "t": 375102.10333334334,
      "d": 76.53062500001397,
      "v": 28
    },
    {
      "midi": 50,
      "hit": false,
      "t": 375199.04212501005,
      "d": 40.81633333337959,
      "v": 35
    },
    {
      "midi": 62,
      "hit": false,
      "t": 375234.75641667674,
      "d": 56.122458333324175,
      "v": 68
    },
    {
      "midi": 67,
      "hit": false,
      "t": 375234.75641667674,
      "d": 86.73470833332976,
      "v": 67
    },
    {
      "midi": 57,
      "hit": false,
      "t": 375239.8584583434,
      "d": 30.612250000005588,
      "v": 68
    },
    {
      "midi": 53,
      "hit": false,
      "t": 375280.67479167675,
      "d": 66.32654166663997,
      "v": 52
    },
    {
      "midi": 52,
      "hit": false,
      "t": 375535.77687501005,
      "d": 76.53062500001397,
      "v": 43
    },
    {
      "midi": 67,
      "hit": false,
      "t": 375637.8177083434,
      "d": 1250.0002083333675,
      "v": 60
    },
    {
      "midi": 57,
      "hit": false,
      "t": 375642.91975001007,
      "d": 525.5102916666656,
      "v": 57
    },
    {
      "midi": 62,
      "hit": false,
      "t": 375642.91975001007,
      "d": 1096.9389583333395,
      "v": 66
    },
    {
      "midi": 53,
      "hit": false,
      "t": 375653.1238333434,
      "d": 357.14291666669305,
      "v": 39
    },
    {
      "midi": 50,
      "hit": false,
      "t": 376178.63412501005,
      "d": 45.91837500000838,
      "v": 40
    },
    {
      "midi": 57,
      "hit": false,
      "t": 376255.16475001007,
      "d": 204.08166666666511,
      "v": 33
    },
    {
      "midi": 52,
      "hit": false,
      "t": 376260.26679167675,
      "d": 494.89804166666,
      "v": 41
    },
    {
      "midi": 62,
      "hit": false,
      "t": 376847.00158334343,
      "d": 163.26533333334373,
      "v": 41
    },
    {
      "midi": 67,
      "hit": false,
      "t": 377030.67508334346,
      "d": 153.06125000002794,
      "v": 84
    },
    {
      "midi": 56,
      "hit": false,
      "t": 377137.8179583435,
      "d": 326.53066666668747,
      "v": 32
    },
    {
      "midi": 62,
      "hit": false,
      "t": 377148.0220416768,
      "d": 132.65308333333815,
      "v": 62
    },
    {
      "midi": 46,
      "hit": false,
      "t": 377183.7363333435,
      "d": 362.24495833332185,
      "v": 20
    },
    {
      "midi": 63,
      "hit": false,
      "t": 377224.5526666768,
      "d": 56.122458333324175,
      "v": 50
    },
    {
      "midi": 64,
      "hit": false,
      "t": 377311.28737501014,
      "d": 86.73470833332976,
      "v": 34
    },
    {
      "midi": 53,
      "hit": false,
      "t": 377433.73637501016,
      "d": 147.95920833328273,
      "v": 24
    },
    {
      "midi": 60,
      "hit": false,
      "t": 377443.9404583435,
      "d": 112.24491666664835,
      "v": 39
    },
    {
      "midi": 62,
      "hit": false,
      "t": 377693.9405000101,
      "d": 193.87758333334932,
      "v": 62
    },
    {
      "midi": 57,
      "hit": false,
      "t": 377959.2466666768,
      "d": 45.91837500000838,
      "v": 49
    },
    {
      "midi": 53,
      "hit": false,
      "t": 377974.5527916768,
      "d": 56.122458333324175,
      "v": 28
    },
    {
      "midi": 60,
      "hit": false,
      "t": 378086.7977083434,
      "d": 147.95920833334094,
      "v": 48
    },
    {
      "midi": 56,
      "hit": false,
      "t": 378561.28758334345,
      "d": 81.63266666664276,
      "v": 36
    },
    {
      "midi": 46,
      "hit": false,
      "t": 378576.59370834345,
      "d": 71.42858333332697,
      "v": 25
    },
    {
      "midi": 56,
      "hit": false,
      "t": 378877.61416667677,
      "d": 51.02041666669538,
      "v": 53
    },
    {
      "midi": 46,
      "hit": false,
      "t": 378882.71620834345,
      "d": 66.32654166669818,
      "v": 42
    },
    {
      "midi": 90,
      "hit": false,
      "t": 378974.55295834347,
      "d": 147.95920833334094,
      "v": 64
    },
    {
      "midi": 85,
      "hit": false,
      "t": 378989.8590833435,
      "d": 117.34695833333535,
      "v": 64
    },
    {
      "midi": 78,
      "hit": false,
      "t": 378989.8590833435,
      "d": 132.65308333333815,
      "v": 56
    },
    {
      "midi": 91,
      "hit": false,
      "t": 379153.1244166768,
      "d": 76.53062500001397,
      "v": 67
    },
    {
      "midi": 79,
      "hit": false,
      "t": 379163.32850001013,
      "d": 61.224500000011176,
      "v": 51
    },
    {
      "midi": 86,
      "hit": false,
      "t": 379168.4305416768,
      "d": 40.81633333332138,
      "v": 65
    },
    {
      "midi": 91,
      "hit": false,
      "t": 379290.87954167684,
      "d": 71.42858333332697,
      "v": 43
    },
    {
      "midi": 86,
      "hit": false,
      "t": 379301.08362501016,
      "d": 56.122458333324175,
      "v": 52
    },
    {
      "midi": 79,
      "hit": false,
      "t": 379301.08362501016,
      "d": 71.42858333332697,
      "v": 34
    },
    {
      "midi": 91,
      "hit": false,
      "t": 379449.0428333435,
      "d": 66.32654166669818,
      "v": 60
    },
    {
      "midi": 79,
      "hit": false,
      "t": 379459.2469166768,
      "d": 40.81633333337959,
      "v": 58
    },
    {
      "midi": 86,
      "hit": false,
      "t": 379464.3489583435,
      "d": 81.63266666670097,
      "v": 69
    },
    {
      "midi": 62,
      "hit": false,
      "t": 379494.9612083435,
      "d": 35.71429166669259,
      "v": 50
    },
    {
      "midi": 59,
      "hit": false,
      "t": 379510.2673333435,
      "d": 51.02041666669538,
      "v": 40
    },
    {
      "midi": 55,
      "hit": false,
      "t": 379525.5734583435,
      "d": 45.91837500000838,
      "v": 38
    },
    {
      "midi": 78,
      "hit": false,
      "t": 379597.00204167684,
      "d": 112.24491666670656,
      "v": 48
    },
    {
      "midi": 90,
      "hit": false,
      "t": 379602.1040833435,
      "d": 102.04083333333256,
      "v": 47
    },
    {
      "midi": 86,
      "hit": false,
      "t": 379612.30816667684,
      "d": 40.81633333332138,
      "v": 54
    },
    {
      "midi": 91,
      "hit": false,
      "t": 379780.6755416769,
      "d": 40.81633333332138,
      "v": 50
    },
    {
      "midi": 79,
      "hit": false,
      "t": 379780.6755416769,
      "d": 76.53062500001397,
      "v": 44
    },
    {
      "midi": 86,
      "hit": false,
      "t": 379780.6755416769,
      "d": 76.53062500001397,
      "v": 51
    },
    {
      "midi": 91,
      "hit": false,
      "t": 379908.2265833436,
      "d": 81.63266666670097,
      "v": 57
    },
    {
      "midi": 79,
      "hit": false,
      "t": 379913.32862501027,
      "d": 66.32654166669818,
      "v": 32
    },
    {
      "midi": 86,
      "hit": false,
      "t": 379933.73679167696,
      "d": 35.71429166669259,
      "v": 55
    },
    {
      "midi": 91,
      "hit": false,
      "t": 380076.5939583436,
      "d": 56.122458333324175,
      "v": 48
    },
    {
      "midi": 79,
      "hit": false,
      "t": 380086.7980416769,
      "d": 61.224500000011176,
      "v": 33
    },
    {
      "midi": 86,
      "hit": false,
      "t": 380091.9000833436,
      "d": 40.81633333332138,
      "v": 45
    },
    {
      "midi": 62,
      "hit": false,
      "t": 380158.22662501025,
      "d": 96.93879166670376,
      "v": 51
    },
    {
      "midi": 55,
      "hit": false,
      "t": 380193.94091667695,
      "d": 56.122458333324175,
      "v": 29
    },
    {
      "midi": 91,
      "hit": false,
      "t": 380209.24704167695,
      "d": 107.14287500001956,
      "v": 37
    },
    {
      "midi": 59,
      "hit": false,
      "t": 380214.34908334364,
      "d": 96.93879166664556,
      "v": 19
    },
    {
      "midi": 79,
      "hit": false,
      "t": 380214.34908334364,
      "d": 132.65308333333815,
      "v": 29
    },
    {
      "midi": 86,
      "hit": false,
      "t": 380224.55316667695,
      "d": 91.83675000001676,
      "v": 42
    },
    {
      "midi": 91,
      "hit": false,
      "t": 380494.9613750103,
      "d": 127.55104166670935,
      "v": 60
    },
    {
      "midi": 79,
      "hit": false,
      "t": 380510.2675000103,
      "d": 102.04083333333256,
      "v": 44
    },
    {
      "midi": 86,
      "hit": false,
      "t": 380510.2675000103,
      "d": 107.14287500001956,
      "v": 59
    },
    {
      "midi": 62,
      "hit": false,
      "t": 380816.3900000104,
      "d": 35.71429166669259,
      "v": 46
    },
    {
      "midi": 90,
      "hit": false,
      "t": 380816.3900000104,
      "d": 117.34695833339356,
      "v": 50
    },
    {
      "midi": 78,
      "hit": false,
      "t": 380821.49204167706,
      "d": 96.93879166664556,
      "v": 44
    },
    {
      "midi": 86,
      "hit": false,
      "t": 380821.49204167706,
      "d": 107.14287500001956,
      "v": 64
    },
    {
      "midi": 55,
      "hit": false,
      "t": 380836.79816667706,
      "d": 117.34695833339356,
      "v": 48
    },
    {
      "midi": 59,
      "hit": false,
      "t": 380847.0022500104,
      "d": 76.53062500001397,
      "v": 36
    },
    {
      "midi": 79,
      "hit": false,
      "t": 381010.2675833438,
      "d": 66.32654166663997,
      "v": 50
    },
    {
      "midi": 86,
      "hit": false,
      "t": 381010.2675833438,
      "d": 76.53062499995576,
      "v": 51
    },
    {
      "midi": 91,
      "hit": false,
      "t": 381010.2675833438,
      "d": 86.73470833327156,
      "v": 50
    },
    {
      "midi": 62,
      "hit": false,
      "t": 381311.28804167703,
      "d": 61.224500000011176,
      "v": 38
    },
    {
      "midi": 59,
      "hit": false,
      "t": 381311.28804167703,
      "d": 66.32654166669818,
      "v": 45
    },
    {
      "midi": 55,
      "hit": false,
      "t": 381326.59416667704,
      "d": 56.12245833338238,
      "v": 44
    },
    {
      "midi": 52,
      "hit": false,
      "t": 381341.90029167704,
      "d": 35.71429166669259,
      "v": 22
    },
    {
      "midi": 59,
      "hit": false,
      "t": 381653.1248333437,
      "d": 40.81633333337959,
      "v": 39
    },
    {
      "midi": 62,
      "hit": false,
      "t": 381658.2268750104,
      "d": 30.612250000005588,
      "v": 26
    },
    {
      "midi": 55,
      "hit": false,
      "t": 381658.2268750104,
      "d": 35.71429166669259,
      "v": 39
    },
    {
      "midi": 100,
      "hit": false,
      "t": 381750.0636250104,
      "d": 112.24491666664835,
      "v": 80
    },
    {
      "midi": 91,
      "hit": false,
      "t": 381918.4310000104,
      "d": 66.32654166675638,
      "v": 65
    },
    {
      "midi": 100,
      "hit": false,
      "t": 381918.4310000104,
      "d": 81.63266666675918,
      "v": 62
    },
    {
      "midi": 103,
      "hit": false,
      "t": 381923.5330416771,
      "d": 81.63266666675918,
      "v": 69
    },
    {
      "midi": 96,
      "hit": false,
      "t": 381928.6350833438,
      "d": 30.612250000005588,
      "v": 58
    },
    {
      "midi": 53,
      "hit": false,
      "t": 381954.1452916771,
      "d": 71.42858333344338,
      "v": 28
    },
    {
      "midi": 64,
      "hit": false,
      "t": 381954.1452916771,
      "d": 71.42858333344338,
      "v": 49
    },
    {
      "midi": 57,
      "hit": false,
      "t": 381979.65550001047,
      "d": 45.91837500006659,
      "v": 48
    },
    {
      "midi": 60,
      "hit": false,
      "t": 381979.65550001047,
      "d": 51.02041666675359,
      "v": 47
    },
    {
      "midi": 91,
      "hit": false,
      "t": 382056.18612501054,
      "d": 137.75512500002515,
      "v": 47
    },
    {
      "midi": 103,
      "hit": false,
      "t": 382061.28816667723,
      "d": 132.65308333333815,
      "v": 62
    },
    {
      "midi": 100,
      "hit": false,
      "t": 382071.49225001055,
      "d": 153.06125000002794,
      "v": 46
    },
    {
      "midi": 96,
      "hit": false,
      "t": 382081.69633334386,
      "d": 91.83675000001676,
      "v": 60
    },
    {
      "midi": 100,
      "hit": false,
      "t": 382336.7984166772,
      "d": 112.24491666670656,
      "v": 54
    },
    {
      "midi": 103,
      "hit": false,
      "t": 382336.7984166772,
      "d": 112.24491666670656,
      "v": 55
    },
    {
      "midi": 91,
      "hit": false,
      "t": 382341.9004583439,
      "d": 81.63266666670097,
      "v": 45
    },
    {
      "midi": 96,
      "hit": false,
      "t": 382347.0025000106,
      "d": 71.42858333332697,
      "v": 51
    },
    {
      "midi": 64,
      "hit": false,
      "t": 382632.7168333439,
      "d": 76.53062500007218,
      "v": 38
    },
    {
      "midi": 93,
      "hit": false,
      "t": 382637.8188750106,
      "d": 45.91837500000838,
      "v": 53
    },
    {
      "midi": 88,
      "hit": false,
      "t": 382642.9209166773,
      "d": 40.81633333332138,
      "v": 51
    },
    {
      "midi": 100,
      "hit": false,
      "t": 382642.9209166773,
      "d": 81.63266666670097,
      "v": 36
    },
    {
      "midi": 60,
      "hit": false,
      "t": 382653.1250000106,
      "d": 51.02041666669538,
      "v": 38
    },
    {
      "midi": 57,
      "hit": false,
      "t": 382658.2270416773,
      "d": 51.02041666669538,
      "v": 37
    },
    {
      "midi": 64,
      "hit": false,
      "t": 383137.818958344,
      "d": 76.53062500007218,
      "v": 27
    },
    {
      "midi": 53,
      "hit": false,
      "t": 383142.9210000107,
      "d": 66.32654166669818,
      "v": 29
    },
    {
      "midi": 57,
      "hit": false,
      "t": 383148.02304167737,
      "d": 112.24491666670656,
      "v": 36
    },
    {
      "midi": 60,
      "hit": false,
      "t": 383153.12508334406,
      "d": 61.224500000011176,
      "v": 40
    },
    {
      "midi": 64,
      "hit": false,
      "t": 383556.18637501076,
      "d": 224.4898333333549,
      "v": 40
    },
    {
      "midi": 60,
      "hit": false,
      "t": 383571.49250001076,
      "d": 219.3877916666679,
      "v": 38
    },
    {
      "midi": 57,
      "hit": false,
      "t": 383576.59454167745,
      "d": 250.0000416666735,
      "v": 40
    },
    {
      "midi": 64,
      "hit": false,
      "t": 384061.2885000108,
      "d": 51.02041666669538,
      "v": 47
    },
    {
      "midi": 53,
      "hit": false,
      "t": 384066.3905416775,
      "d": 112.24491666670656,
      "v": 36
    },
    {
      "midi": 60,
      "hit": false,
      "t": 384076.5946250108,
      "d": 40.81633333337959,
      "v": 36
    },
    {
      "midi": 62,
      "hit": false,
      "t": 384469.4518333442,
      "d": 40.81633333337959,
      "v": 47
    },
    {
      "midi": 74,
      "hit": false,
      "t": 384469.4518333442,
      "d": 45.91837500006659,
      "v": 61
    },
    {
      "midi": 67,
      "hit": false,
      "t": 384474.55387501087,
      "d": 30.612250000005588,
      "v": 60
    },
    {
      "midi": 59,
      "hit": false,
      "t": 384474.55387501087,
      "d": 45.91837500006659,
      "v": 35
    },
    {
      "midi": 79,
      "hit": false,
      "t": 384479.65591667756,
      "d": 40.81633333337959,
      "v": 45
    },
    {
      "midi": 55,
      "hit": false,
      "t": 384489.86000001087,
      "d": 35.714291666750796,
      "v": 45
    },
    {
      "midi": 52,
      "hit": false,
      "t": 384489.86000001087,
      "d": 40.8163333334378,
      "v": 22
    },
    {
      "midi": 59,
      "hit": false,
      "t": 384790.8804583443,
      "d": 45.918374999950174,
      "v": 56
    },
    {
      "midi": 74,
      "hit": false,
      "t": 384790.8804583443,
      "d": 45.918374999950174,
      "v": 73
    },
    {
      "midi": 79,
      "hit": false,
      "t": 384790.8804583443,
      "d": 66.32654166663997,
      "v": 63
    },
    {
      "midi": 62,
      "hit": false,
      "t": 384795.982500011,
      "d": 30.61224999994738,
      "v": 62
    },
    {
      "midi": 67,
      "hit": false,
      "t": 384795.982500011,
      "d": 30.61224999994738,
      "v": 74
    },
    {
      "midi": 52,
      "hit": false,
      "t": 384806.1865833443,
      "d": 35.71429166663438,
      "v": 33
    },
    {
      "midi": 55,
      "hit": false,
      "t": 384816.3906666776,
      "d": 35.71429166663438,
      "v": 30
    },
    {
      "midi": 79,
      "hit": false,
      "t": 385112.3090833443,
      "d": 96.93879166676197,
      "v": 74
    },
    {
      "midi": 67,
      "hit": false,
      "t": 385117.411125011,
      "d": 61.22450000006938,
      "v": 90
    },
    {
      "midi": 74,
      "hit": false,
      "t": 385117.411125011,
      "d": 102.04083333339076,
      "v": 83
    },
    {
      "midi": 59,
      "hit": false,
      "t": 385117.411125011,
      "d": 112.24491666670656,
      "v": 79
    },
    {
      "midi": 62,
      "hit": false,
      "t": 385122.5131666777,
      "d": 71.42858333338518,
      "v": 78
    },
    {
      "midi": 52,
      "hit": false,
      "t": 385127.61520834436,
      "d": 132.65308333333815,
      "v": 73
    },
    {
      "midi": 55,
      "hit": false,
      "t": 385132.71725001105,
      "d": 112.24491666664835,
      "v": 61
    },
    {
      "midi": 74,
      "hit": false,
      "t": 385280.6764583444,
      "d": 76.53062500001397,
      "v": 64
    },
    {
      "midi": 79,
      "hit": false,
      "t": 385290.8805416777,
      "d": 40.81633333337959,
      "v": 29
    },
    {
      "midi": 67,
      "hit": false,
      "t": 385290.8805416777,
      "d": 51.02041666669538,
      "v": 51
    },
    {
      "midi": 52,
      "hit": false,
      "t": 385311.2887083444,
      "d": 137.75512500002515,
      "v": 12
    },
    {
      "midi": 59,
      "hit": false,
      "t": 385341.9009583444,
      "d": 102.04083333333256,
      "v": 24
    },
    {
      "midi": 55,
      "hit": false,
      "t": 385341.9009583444,
      "d": 107.14287500001956,
      "v": 30
    },
    {
      "midi": 62,
      "hit": false,
      "t": 385357.2070833444,
      "d": 137.75512500008335,
      "v": 25
    },
    {
      "midi": 67,
      "hit": false,
      "t": 385387.8193333444,
      "d": 66.32654166669818,
      "v": 47
    },
    {
      "midi": 79,
      "hit": false,
      "t": 385392.9213750111,
      "d": 102.04083333339076,
      "v": 42
    },
    {
      "midi": 74,
      "hit": false,
      "t": 385403.1254583444,
      "d": 71.42858333338518,
      "v": 44
    },
    {
      "midi": 65,
      "hit": false,
      "t": 385714.35000001115,
      "d": 61.22450000006938,
      "v": 60
    },
    {
      "midi": 72,
      "hit": false,
      "t": 385724.55408334447,
      "d": 30.612250000063796,
      "v": 62
    },
    {
      "midi": 77,
      "hit": false,
      "t": 385724.55408334447,
      "d": 51.02041666675359,
      "v": 46
    },
    {
      "midi": 61,
      "hit": false,
      "t": 385724.55408334447,
      "d": 71.42858333344338,
      "v": 44
    },
    {
      "midi": 55,
      "hit": false,
      "t": 385729.65612501116,
      "d": 40.81633333337959,
      "v": 33
    },
    {
      "midi": 84,
      "hit": false,
      "t": 385734.75816667784,
      "d": 40.81633333337959,
      "v": 44
    },
    {
      "midi": 65,
      "hit": false,
      "t": 386020.47250001127,
      "d": 66.32654166675638,
      "v": 78
    },
    {
      "midi": 61,
      "hit": false,
      "t": 386020.47250001127,
      "d": 81.63266666681739,
      "v": 71
    },
    {
      "midi": 55,
      "hit": false,
      "t": 386025.57454167795,
      "d": 40.81633333337959,
      "v": 73
    },
    {
      "midi": 77,
      "hit": false,
      "t": 386025.57454167795,
      "d": 66.32654166675638,
      "v": 79
    },
    {
      "midi": 72,
      "hit": false,
      "t": 386030.67658334464,
      "d": 51.02041666669538,
      "v": 79
    },
    {
      "midi": 84,
      "hit": false,
      "t": 386030.67658334464,
      "d": 56.12245833338238,
      "v": 78
    },
    {
      "midi": 81,
      "hit": false,
      "t": 386030.67658334464,
      "d": 66.32654166675638,
      "v": 71
    },
    {
      "midi": 61,
      "hit": false,
      "t": 386347.00316667807,
      "d": 132.65308333339635,
      "v": 82
    },
    {
      "midi": 72,
      "hit": false,
      "t": 386352.10520834476,
      "d": 45.91837500000838,
      "v": 94
    },
    {
      "midi": 65,
      "hit": false,
      "t": 386352.10520834476,
      "d": 51.02041666669538,
      "v": 89
    },
    {
      "midi": 55,
      "hit": false,
      "t": 386352.10520834476,
      "d": 76.53062500001397,
      "v": 92
    },
    {
      "midi": 77,
      "hit": false,
      "t": 386352.10520834476,
      "d": 76.53062500001397,
      "v": 85
    },
    {
      "midi": 84,
      "hit": false,
      "t": 386352.10520834476,
      "d": 91.83675000001676,
      "v": 89
    },
    {
      "midi": 81,
      "hit": false,
      "t": 386352.10520834476,
      "d": 107.14287500001956,
      "v": 83
    },
    {
      "midi": 84,
      "hit": false,
      "t": 386525.5746250115,
      "d": 71.42858333338518,
      "v": 58
    },
    {
      "midi": 81,
      "hit": false,
      "t": 386525.5746250115,
      "d": 91.83675000007497,
      "v": 62
    },
    {
      "midi": 77,
      "hit": false,
      "t": 386530.67666667816,
      "d": 71.42858333338518,
      "v": 62
    },
    {
      "midi": 55,
      "hit": false,
      "t": 386530.67666667816,
      "d": 193.87758333340753,
      "v": 72
    },
    {
      "midi": 65,
      "hit": false,
      "t": 386535.77870834485,
      "d": 45.91837500000838,
      "v": 68
    },
    {
      "midi": 72,
      "hit": false,
      "t": 386535.77870834485,
      "d": 51.02041666669538,
      "v": 50
    },
    {
      "midi": 61,
      "hit": false,
      "t": 386535.77870834485,
      "d": 255.1020833333605,
      "v": 68
    },
    {
      "midi": 84,
      "hit": false,
      "t": 386642.92158334487,
      "d": 91.83675000001676,
      "v": 31
    },
    {
      "midi": 77,
      "hit": false,
      "t": 386653.1256666782,
      "d": 56.12245833338238,
      "v": 48
    },
    {
      "midi": 72,
      "hit": false,
      "t": 386658.2277083449,
      "d": 35.71429166669259,
      "v": 33
    },
    {
      "midi": 65,
      "hit": false,
      "t": 386663.32975001156,
      "d": 35.71429166669259,
      "v": 53
    },
    {
      "midi": 81,
      "hit": false,
      "t": 386663.32975001156,
      "d": 45.91837500000838,
      "v": 35
    },
    {
      "midi": 79,
      "hit": false,
      "t": 386862.30937501154,
      "d": 30.612250000063796,
      "v": 64
    },
    {
      "midi": 84,
      "hit": false,
      "t": 386862.30937501154,
      "d": 30.612250000063796,
      "v": 68
    },
    {
      "midi": 60,
      "hit": false,
      "t": 386862.30937501154,
      "d": 45.91837500006659,
      "v": 65
    },
    {
      "midi": 91,
      "hit": false,
      "t": 386862.30937501154,
      "d": 56.12245833344059,
      "v": 73
    },
    {
      "midi": 64,
      "hit": false,
      "t": 386867.4114166782,
      "d": 30.612250000063796,
      "v": 64
    },
    {
      "midi": 53,
      "hit": false,
      "t": 386867.4114166782,
      "d": 51.02041666675359,
      "v": 46
    },
    {
      "midi": 57,
      "hit": false,
      "t": 386872.5134583449,
      "d": 71.42858333338518,
      "v": 58
    },
    {
      "midi": 88,
      "hit": false,
      "t": 386877.6155000116,
      "d": 35.71429166669259,
      "v": 39
    },
    {
      "midi": 53,
      "hit": false,
      "t": 387244.9625000116,
      "d": 35.714291666750796,
      "v": 64
    },
    {
      "midi": 60,
      "hit": false,
      "t": 387244.9625000116,
      "d": 40.8163333334378,
      "v": 68
    },
    {
      "midi": 64,
      "hit": false,
      "t": 387244.9625000116,
      "d": 40.8163333334378,
      "v": 62
    },
    {
      "midi": 79,
      "hit": false,
      "t": 387250.0645416783,
      "d": 25.510208333376795,
      "v": 70
    },
    {
      "midi": 84,
      "hit": false,
      "t": 387250.0645416783,
      "d": 30.612250000063796,
      "v": 74
    },
    {
      "midi": 57,
      "hit": false,
      "t": 387250.0645416783,
      "d": 35.714291666750796,
      "v": 53
    },
    {
      "midi": 91,
      "hit": false,
      "t": 387250.0645416783,
      "d": 40.8163333334378,
      "v": 74
    },
    {
      "midi": 88,
      "hit": false,
      "t": 387255.166583345,
      "d": 30.612250000063796,
      "v": 64
    },
    {
      "midi": 62,
      "hit": false,
      "t": 387260.26862501167,
      "d": 30.612250000063796,
      "v": 54
    },
    {
      "midi": 53,
      "hit": false,
      "t": 387551.0850000117,
      "d": 71.42858333338518,
      "v": 72
    },
    {
      "midi": 64,
      "hit": false,
      "t": 387556.1870416784,
      "d": 35.71429166669259,
      "v": 74
    },
    {
      "midi": 60,
      "hit": false,
      "t": 387556.1870416784,
      "d": 40.81633333337959,
      "v": 72
    },
    {
      "midi": 57,
      "hit": false,
      "t": 387561.2890833451,
      "d": 30.612250000005588,
      "v": 59
    },
    {
      "midi": 91,
      "hit": false,
      "t": 387561.2890833451,
      "d": 66.32654166669818,
      "v": 78
    },
    {
      "midi": 84,
      "hit": false,
      "t": 387566.3911250118,
      "d": 25.510208333318587,
      "v": 80
    },
    {
      "midi": 88,
      "hit": false,
      "t": 387566.3911250118,
      "d": 30.612250000005588,
      "v": 71
    },
    {
      "midi": 79,
      "hit": false,
      "t": 387566.3911250118,
      "d": 40.81633333332138,
      "v": 81
    },
    {
      "midi": 64,
      "hit": false,
      "t": 387724.55441667844,
      "d": 35.714291666750796,
      "v": 60
    },
    {
      "midi": 60,
      "hit": false,
      "t": 387729.6564583451,
      "d": 51.02041666675359,
      "v": 62
    },
    {
      "midi": 53,
      "hit": false,
      "t": 387734.7585000118,
      "d": 45.91837500006659,
      "v": 36
    },
    {
      "midi": 57,
      "hit": false,
      "t": 387734.7585000118,
      "d": 56.12245833344059,
      "v": 54
    },
    {
      "midi": 79,
      "hit": false,
      "t": 387750.0646250118,
      "d": 35.714291666750796,
      "v": 51
    },
    {
      "midi": 84,
      "hit": false,
      "t": 387755.1666666785,
      "d": 30.612250000063796,
      "v": 53
    },
    {
      "midi": 91,
      "hit": false,
      "t": 387755.1666666785,
      "d": 30.612250000063796,
      "v": 56
    },
    {
      "midi": 88,
      "hit": false,
      "t": 387760.2687083452,
      "d": 35.714291666750796,
      "v": 45
    },
    {
      "midi": 60,
      "hit": false,
      "t": 387847.00341667864,
      "d": 71.42858333344338,
      "v": 64
    },
    {
      "midi": 64,
      "hit": false,
      "t": 387847.00341667864,
      "d": 71.42858333344338,
      "v": 58
    },
    {
      "midi": 91,
      "hit": false,
      "t": 387852.1054583453,
      "d": 81.63266666675918,
      "v": 47
    },
    {
      "midi": 79,
      "hit": false,
      "t": 387857.207500012,
      "d": 35.714291666750796,
      "v": 39
    },
    {
      "midi": 88,
      "hit": false,
      "t": 387862.3095416787,
      "d": 40.81633333337959,
      "v": 40
    },
    {
      "midi": 57,
      "hit": false,
      "t": 387862.3095416787,
      "d": 91.83675000007497,
      "v": 33
    },
    {
      "midi": 84,
      "hit": false,
      "t": 387867.4115833454,
      "d": 25.510208333376795,
      "v": 40
    },
    {
      "midi": 53,
      "hit": false,
      "t": 387867.4115833454,
      "d": 71.42858333338518,
      "v": 22
    },
    {
      "midi": 64,
      "hit": false,
      "t": 388056.1871250121,
      "d": 25.510208333318587,
      "v": 74
    },
    {
      "midi": 59,
      "hit": false,
      "t": 388056.1871250121,
      "d": 30.612250000005588,
      "v": 71
    },
    {
      "midi": 87,
      "hit": false,
      "t": 388056.1871250121,
      "d": 30.612250000005588,
      "v": 65
    },
    {
      "midi": 99,
      "hit": false,
      "t": 388056.1871250121,
      "d": 30.612250000005588,
      "v": 79
    },
    {
      "midi": 53,
      "hit": false,
      "t": 388056.1871250121,
      "d": 45.91837500000838,
      "v": 68
    },
    {
      "midi": 64,
      "hit": false,
      "t": 388454.1463750121,
      "d": 326.53066666668747,
      "v": 77
    },
    {
      "midi": 99,
      "hit": false,
      "t": 388459.2484166788,
      "d": 260.2041249999893,
      "v": 80
    },
    {
      "midi": 53,
      "hit": false,
      "t": 388459.2484166788,
      "d": 336.73475000000326,
      "v": 74
    },
    {
      "midi": 87,
      "hit": false,
      "t": 388464.3504583455,
      "d": 275.5102499999921,
      "v": 79
    },
    {
      "midi": 59,
      "hit": false,
      "t": 388464.3504583455,
      "d": 362.24495833332185,
      "v": 59
    },
    {
      "midi": 83,
      "hit": false,
      "t": 388954.14645834547,
      "d": 178.57145833334653,
      "v": 57
    },
    {
      "midi": 95,
      "hit": false,
      "t": 388954.14645834547,
      "d": 209.18370833335212,
      "v": 61
    },
    {
      "midi": 63,
      "hit": false,
      "t": 388959.24850001215,
      "d": 214.2857499999809,
      "v": 57
    },
    {
      "midi": 59,
      "hit": false,
      "t": 388969.45258334547,
      "d": 265.3061666666763,
      "v": 53
    },
    {
      "midi": 53,
      "hit": false,
      "t": 388974.55462501216,
      "d": 198.9796249999781,
      "v": 36
    },
    {
      "midi": 56,
      "hit": false,
      "t": 388979.65666667884,
      "d": 214.2857499999809,
      "v": 35
    },
    {
      "midi": 98,
      "hit": false,
      "t": 389382.7179583455,
      "d": 295.9184166667401,
      "v": 74
    },
    {
      "midi": 86,
      "hit": false,
      "t": 389387.8200000122,
      "d": 326.5306666667457,
      "v": 67
    },
    {
      "midi": 62,
      "hit": false,
      "t": 389392.92204167886,
      "d": 306.1225000000559,
      "v": 55
    },
    {
      "midi": 52,
      "hit": false,
      "t": 389392.92204167886,
      "d": 311.2245416667429,
      "v": 50
    },
    {
      "midi": 59,
      "hit": false,
      "t": 389392.92204167886,
      "d": 326.5306666667457,
      "v": 46
    },
    {
      "midi": 55,
      "hit": false,
      "t": 389398.02408334555,
      "d": 316.3265833333717,
      "v": 57
    },
    {
      "midi": 93,
      "hit": false,
      "t": 389403.12612501223,
      "d": 290.8163749999949,
      "v": 66
    },
    {
      "midi": 96,
      "hit": false,
      "t": 389847.00375001226,
      "d": 576.530708333361,
      "v": 64
    },
    {
      "midi": 62,
      "hit": false,
      "t": 389862.30987501226,
      "d": 214.28575000003912,
      "v": 53
    },
    {
      "midi": 52,
      "hit": false,
      "t": 389862.30987501226,
      "d": 224.4898333333549,
      "v": 43
    },
    {
      "midi": 84,
      "hit": false,
      "t": 389862.30987501226,
      "d": 464.2857916667126,
      "v": 55
    },
    {
      "midi": 59,
      "hit": false,
      "t": 389867.41191667895,
      "d": 209.18370833335212,
      "v": 51
    },
    {
      "midi": 55,
      "hit": false,
      "t": 389872.51395834563,
      "d": 198.9796249999781,
      "v": 55
    },
    {
      "midi": 59,
      "hit": false,
      "t": 390306.1875000123,
      "d": 403.0612916666432,
      "v": 46
    },
    {
      "midi": 62,
      "hit": false,
      "t": 390306.1875000123,
      "d": 622.4490833333111,
      "v": 64
    },
    {
      "midi": 52,
      "hit": false,
      "t": 390311.28954167897,
      "d": 714.2858333333279,
      "v": 51
    },
    {
      "midi": 55,
      "hit": false,
      "t": 390311.28954167897,
      "d": 724.4899166666437,
      "v": 58
    },
    {
      "midi": 59,
      "hit": false,
      "t": 390831.69779167895,
      "d": 142.85716666665394,
      "v": 32
    },
    {
      "midi": 96,
      "hit": false,
      "t": 390949.0447500123,
      "d": 142.85716666665394,
      "v": 95
    },
    {
      "midi": 99,
      "hit": false,
      "t": 391112.3100833456,
      "d": 102.04083333333256,
      "v": 60
    },
    {
      "midi": 96,
      "hit": false,
      "t": 391193.94275001227,
      "d": 76.53062500001397,
      "v": 45
    },
    {
      "midi": 92,
      "hit": false,
      "t": 391255.1672500123,
      "d": 96.93879166664556,
      "v": 49
    },
    {
      "midi": 92,
      "hit": false,
      "t": 391433.73870834557,
      "d": 102.04083333333256,
      "v": 74
    },
    {
      "midi": 63,
      "hit": false,
      "t": 391449.0448333456,
      "d": 45.91837500000838,
      "v": 59
    },
    {
      "midi": 58,
      "hit": false,
      "t": 391459.2489166789,
      "d": 66.32654166669818,
      "v": 55
    },
    {
      "midi": 96,
      "hit": false,
      "t": 391561.2897500122,
      "d": 117.34695833333535,
      "v": 37
    },
    {
      "midi": 92,
      "hit": false,
      "t": 391637.82037501223,
      "d": 107.14287499996135,
      "v": 47
    },
    {
      "midi": 63,
      "hit": false,
      "t": 391852.1061250122,
      "d": 377.55108333338285,
      "v": 61
    },
    {
      "midi": 58,
      "hit": false,
      "t": 391857.2081666789,
      "d": 413.26537500001723,
      "v": 52
    },
    {
      "midi": 92,
      "hit": false,
      "t": 391862.3102083456,
      "d": 418.367416666646,
      "v": 74
    },
    {
      "midi": 87,
      "hit": false,
      "t": 391872.5142916789,
      "d": 408.16333333333023,
      "v": 76
    },
    {
      "midi": 52,
      "hit": false,
      "t": 391892.9224583456,
      "d": 321.42862500000047,
      "v": 30
    },
    {
      "midi": 84,
      "hit": false,
      "t": 392331.69804167893,
      "d": 102.04083333333256,
      "v": 68
    },
    {
      "midi": 63,
      "hit": false,
      "t": 392331.69804167893,
      "d": 204.08166666666511,
      "v": 63
    },
    {
      "midi": 58,
      "hit": false,
      "t": 392341.90212501225,
      "d": 183.67350000003353,
      "v": 46
    },
    {
      "midi": 52,
      "hit": false,
      "t": 392357.20825001225,
      "d": 96.93879166670376,
      "v": 43
    },
    {
      "midi": 63,
      "hit": false,
      "t": 392770.47362501227,
      "d": 352.04087500000605,
      "v": 67
    },
    {
      "midi": 84,
      "hit": false,
      "t": 392775.57566667895,
      "d": 229.5918749999837,
      "v": 74
    },
    {
      "midi": 80,
      "hit": false,
      "t": 392785.77975001227,
      "d": 255.1020833333023,
      "v": 55
    },
    {
      "midi": 58,
      "hit": false,
      "t": 392785.77975001227,
      "d": 372.44904166669585,
      "v": 53
    },
    {
      "midi": 75,
      "hit": false,
      "t": 392790.88179167896,
      "d": 285.7143333333079,
      "v": 67
    },
    {
      "midi": 52,
      "hit": false,
      "t": 392790.88179167896,
      "d": 311.22454166662646,
      "v": 56
    },
    {
      "midi": 80,
      "hit": false,
      "t": 393234.759416679,
      "d": 122.44899999996414,
      "v": 65
    },
    {
      "midi": 75,
      "hit": false,
      "t": 393234.759416679,
      "d": 142.85716666665394,
      "v": 74
    },
    {
      "midi": 72,
      "hit": false,
      "t": 393244.9635000123,
      "d": 137.75512500002515,
      "v": 66
    },
    {
      "midi": 63,
      "hit": false,
      "t": 393244.9635000123,
      "d": 250.0000416667317,
      "v": 67
    },
    {
      "midi": 52,
      "hit": false,
      "t": 393255.1675833456,
      "d": 234.6939166667289,
      "v": 56
    },
    {
      "midi": 58,
      "hit": false,
      "t": 393255.1675833456,
      "d": 265.3061666667345,
      "v": 57
    },
    {
      "midi": 75,
      "hit": false,
      "t": 393668.4329583457,
      "d": 219.38779166672612,
      "v": 67
    },
    {
      "midi": 63,
      "hit": false,
      "t": 393673.5350000124,
      "d": 183.67350000003353,
      "v": 64
    },
    {
      "midi": 72,
      "hit": false,
      "t": 393673.5350000124,
      "d": 198.97962500003632,
      "v": 64
    },
    {
      "midi": 68,
      "hit": false,
      "t": 393673.5350000124,
      "d": 224.4898333333549,
      "v": 67
    },
    {
      "midi": 58,
      "hit": false,
      "t": 393678.63704167906,
      "d": 336.73475000000326,
      "v": 60
    },
    {
      "midi": 52,
      "hit": false,
      "t": 393979.65750001237,
      "d": 290.8163750000531,
      "v": 58
    },
    {
      "midi": 69,
      "hit": false,
      "t": 394301.0861250124,
      "d": 943.8777083333116,
      "v": 77
    },
    {
      "midi": 62,
      "hit": false,
      "t": 394306.1881666791,
      "d": 494.89804166666,
      "v": 80
    },
    {
      "midi": 65,
      "hit": false,
      "t": 394306.1881666791,
      "d": 867.3470833332976,
      "v": 65
    },
    {
      "midi": 57,
      "hit": false,
      "t": 394306.1881666791,
      "d": 872.4491249999846,
      "v": 80
    },
    {
      "midi": 59,
      "hit": false,
      "t": 394321.4942916791,
      "d": 25.510208333318587,
      "v": 68
    },
    {
      "midi": 59,
      "hit": false,
      "t": 394484.75962501246,
      "d": 244.8979999999865,
      "v": 3
    },
    {
      "midi": 62,
      "hit": false,
      "t": 394867.4127500124,
      "d": 270.4082083333051,
      "v": 9
    },
    {
      "midi": 65,
      "hit": false,
      "t": 395209.2495416791,
      "d": 158.16329166665673,
      "v": 19
    },
    {
      "midi": 62,
      "hit": false,
      "t": 395219.4536250124,
      "d": 142.85716666665394,
      "v": 34
    },
    {
      "midi": 53,
      "hit": false,
      "t": 395229.65770834574,
      "d": 168.36737500003073,
      "v": 37
    },
    {
      "midi": 57,
      "hit": false,
      "t": 395234.7597500124,
      "d": 91.83674999995856,
      "v": 36
    },
    {
      "midi": 65,
      "hit": false,
      "t": 395540.8822500124,
      "d": 1020.4083333333838,
      "v": 50
    },
    {
      "midi": 62,
      "hit": false,
      "t": 395545.9842916791,
      "d": 959.1838333333726,
      "v": 50
    },
    {
      "midi": 57,
      "hit": false,
      "t": 395551.0863333458,
      "d": 632.6531666666851,
      "v": 35
    },
    {
      "midi": 53,
      "hit": false,
      "t": 395581.6985833458,
      "d": 290.8163749999949,
      "v": 22
    },
    {
      "midi": 53,
      "hit": false,
      "t": 396025.5762083458,
      "d": 66.32654166663997,
      "v": 52
    },
    {
      "midi": 56,
      "hit": false,
      "t": 396433.73954167916,
      "d": 479.5919166666572,
      "v": 33
    },
    {
      "midi": 52,
      "hit": false,
      "t": 396464.35179167916,
      "d": 535.7143749999814,
      "v": 29
    },
    {
      "midi": 59,
      "hit": false,
      "t": 396474.5558750125,
      "d": 280.6122916666791,
      "v": 28
    },
    {
      "midi": 71,
      "hit": false,
      "t": 397045.98454167915,
      "d": 117.34695833333535,
      "v": 70
    },
    {
      "midi": 62,
      "hit": false,
      "t": 397056.18862501247,
      "d": 86.73470833332976,
      "v": 70
    },
    {
      "midi": 67,
      "hit": false,
      "t": 397056.18862501247,
      "d": 107.14287500001956,
      "v": 65
    },
    {
      "midi": 56,
      "hit": false,
      "t": 397071.49475001247,
      "d": 96.93879166670376,
      "v": 37
    },
    {
      "midi": 62,
      "hit": false,
      "t": 397224.5560000125,
      "d": 45.91837500000838,
      "v": 31
    },
    {
      "midi": 67,
      "hit": false,
      "t": 397234.7600833458,
      "d": 61.224500000011176,
      "v": 64
    },
    {
      "midi": 71,
      "hit": false,
      "t": 397239.8621250125,
      "d": 76.53062500001397,
      "v": 54
    },
    {
      "midi": 56,
      "hit": false,
      "t": 397244.9641666792,
      "d": 443.877625000081,
      "v": 44
    },
    {
      "midi": 74,
      "hit": false,
      "t": 397357.20908334584,
      "d": 107.14287500013597,
      "v": 71
    },
    {
      "midi": 65,
      "hit": false,
      "t": 397362.3111250125,
      "d": 66.32654166675638,
      "v": 63
    },
    {
      "midi": 70,
      "hit": false,
      "t": 397382.7192916792,
      "d": 40.81633333337959,
      "v": 38
    },
    {
      "midi": 59,
      "hit": false,
      "t": 397387.8213333459,
      "d": 239.7959583333577,
      "v": 64
    },
    {
      "midi": 74,
      "hit": false,
      "t": 397535.7805416793,
      "d": 35.71429166663438,
      "v": 53
    },
    {
      "midi": 70,
      "hit": false,
      "t": 397535.7805416793,
      "d": 51.020416666637175,
      "v": 75
    },
    {
      "midi": 73,
      "hit": false,
      "t": 397545.9846250126,
      "d": 35.71429166663438,
      "v": 35
    },
    {
      "midi": 70,
      "hit": false,
      "t": 397658.22954167926,
      "d": 76.53062500001397,
      "v": 59
    },
    {
      "midi": 77,
      "hit": false,
      "t": 397658.22954167926,
      "d": 107.14287500001956,
      "v": 74
    },
    {
      "midi": 62,
      "hit": false,
      "t": 397663.33158334595,
      "d": 219.3877916666679,
      "v": 64
    },
    {
      "midi": 65,
      "hit": false,
      "t": 397918.4336666793,
      "d": 275.5102500000503,
      "v": 35
    },
    {
      "midi": 70,
      "hit": false,
      "t": 397949.0459166793,
      "d": 30.612250000063796,
      "v": 28
    },
    {
      "midi": 80,
      "hit": false,
      "t": 397954.147958346,
      "d": 122.44900000002235,
      "v": 51
    },
    {
      "midi": 71,
      "hit": false,
      "t": 397959.2500000127,
      "d": 107.14287500001956,
      "v": 74
    },
    {
      "midi": 83,
      "hit": false,
      "t": 398433.7398750127,
      "d": 76.53062500007218,
      "v": 63
    },
    {
      "midi": 74,
      "hit": false,
      "t": 398438.8419166794,
      "d": 35.71429166669259,
      "v": 64
    },
    {
      "midi": 77,
      "hit": false,
      "t": 398443.9439583461,
      "d": 51.02041666669538,
      "v": 62
    },
    {
      "midi": 68,
      "hit": false,
      "t": 398443.9439583461,
      "d": 66.32654166669818,
      "v": 52
    },
    {
      "midi": 86,
      "hit": false,
      "t": 398586.8011250128,
      "d": 173.46941666671773,
      "v": 87
    },
    {
      "midi": 80,
      "hit": false,
      "t": 398591.9031666795,
      "d": 117.34695833333535,
      "v": 56
    },
    {
      "midi": 77,
      "hit": false,
      "t": 398591.9031666795,
      "d": 188.77554166672053,
      "v": 69
    },
    {
      "midi": 71,
      "hit": false,
      "t": 398597.0052083462,
      "d": 178.57145833334653,
      "v": 68
    },
    {
      "midi": 86,
      "hit": false,
      "t": 398872.5154583462,
      "d": 127.55104166670935,
      "v": 73
    },
    {
      "midi": 71,
      "hit": false,
      "t": 398872.5154583462,
      "d": 204.08166666678153,
      "v": 53
    },
    {
      "midi": 80,
      "hit": false,
      "t": 398877.6175000129,
      "d": 147.95920833339915,
      "v": 59
    },
    {
      "midi": 77,
      "hit": false,
      "t": 398882.7195416796,
      "d": 122.44900000002235,
      "v": 54
    },
    {
      "midi": 83,
      "hit": false,
      "t": 398887.8215833463,
      "d": 132.65308333333815,
      "v": 51
    },
    {
      "midi": 68,
      "hit": false,
      "t": 399081.6991666797,
      "d": 86.73470833332976,
      "v": 37
    },
    {
      "midi": 83,
      "hit": false,
      "t": 399204.1481666797,
      "d": 163.26533333340194,
      "v": 60
    },
    {
      "midi": 86,
      "hit": false,
      "t": 399204.1481666797,
      "d": 168.36737500008894,
      "v": 69
    },
    {
      "midi": 80,
      "hit": false,
      "t": 399209.2502083464,
      "d": 188.77554166672053,
      "v": 46
    },
    {
      "midi": 76,
      "hit": false,
      "t": 399214.3522500131,
      "d": 204.08166666672332,
      "v": 55
    },
    {
      "midi": 71,
      "hit": false,
      "t": 399214.3522500131,
      "d": 209.18370833341032,
      "v": 63
    },
    {
      "midi": 68,
      "hit": false,
      "t": 399535.78087501315,
      "d": 35.71429166669259,
      "v": 25
    },
    {
      "midi": 76,
      "hit": false,
      "t": 399551.08700001315,
      "d": 40.81633333337959,
      "v": 40
    },
    {
      "midi": 84,
      "hit": false,
      "t": 399852.1074583465,
      "d": 357.14291666663485,
      "v": 61
    },
    {
      "midi": 69,
      "hit": false,
      "t": 399852.1074583465,
      "d": 505.1021249999758,
      "v": 59
    },
    {
      "midi": 79,
      "hit": false,
      "t": 399862.31154167984,
      "d": 331.63270833331626,
      "v": 49
    },
    {
      "midi": 81,
      "hit": false,
      "t": 399862.31154167984,
      "d": 352.04087500000605,
      "v": 44
    },
    {
      "midi": 76,
      "hit": false,
      "t": 399862.31154167984,
      "d": 362.24495833332185,
      "v": 51
    },
    {
      "midi": 83,
      "hit": false,
      "t": 400408.2300000132,
      "d": 219.38779166672612,
      "v": 48
    },
    {
      "midi": 80,
      "hit": false,
      "t": 400408.2300000132,
      "d": 229.5918750000419,
      "v": 34
    },
    {
      "midi": 72,
      "hit": false,
      "t": 400418.4340833465,
      "d": 158.16329166671494,
      "v": 41
    },
    {
      "midi": 68,
      "hit": false,
      "t": 400423.5361250132,
      "d": 198.97962500003632,
      "v": 43
    },
    {
      "midi": 76,
      "hit": false,
      "t": 400438.8422500132,
      "d": 137.75512500002515,
      "v": 42
    },
    {
      "midi": 83,
      "hit": false,
      "t": 400724.55658334657,
      "d": 219.38779166672612,
      "v": 46
    },
    {
      "midi": 80,
      "hit": false,
      "t": 400729.65862501325,
      "d": 168.36737500003073,
      "v": 37
    },
    {
      "midi": 68,
      "hit": false,
      "t": 400729.65862501325,
      "d": 270.4082083333633,
      "v": 50
    },
    {
      "midi": 72,
      "hit": false,
      "t": 400744.96475001326,
      "d": 132.65308333333815,
      "v": 36
    },
    {
      "midi": 76,
      "hit": false,
      "t": 400750.06679167994,
      "d": 112.24491666664835,
      "v": 50
    },
    {
      "midi": 67,
      "hit": false,
      "t": 401035.7811250133,
      "d": 285.7143333333661,
      "v": 41
    },
    {
      "midi": 72,
      "hit": false,
      "t": 401040.88316668,
      "d": 719.3878750000149,
      "v": 31
    },
    {
      "midi": 81,
      "hit": false,
      "t": 401045.9852083467,
      "d": 637.7552083333139,
      "v": 51
    },
    {
      "midi": 76,
      "hit": false,
      "t": 401056.18929168,
      "d": 724.4899166667019,
      "v": 40
    },
    {
      "midi": 53,
      "hit": false,
      "t": 401622.51591668,
      "d": 219.38779166672612,
      "v": 26
    },
    {
      "midi": 64,
      "hit": false,
      "t": 401637.82204168,
      "d": 188.77554166672053,
      "v": 22
    },
    {
      "midi": 60,
      "hit": false,
      "t": 401642.9240833467,
      "d": 122.44900000002235,
      "v": 36
    },
    {
      "midi": 57,
      "hit": false,
      "t": 401642.9240833467,
      "d": 153.06125000002794,
      "v": 32
    },
    {
      "midi": 64,
      "hit": false,
      "t": 402112.31191668,
      "d": 168.36737500003073,
      "v": 22
    },
    {
      "midi": 53,
      "hit": false,
      "t": 402117.4139583467,
      "d": 173.46941666665953,
      "v": 17
    },
    {
      "midi": 60,
      "hit": false,
      "t": 402132.7200833467,
      "d": 117.34695833333535,
      "v": 30
    },
    {
      "midi": 57,
      "hit": false,
      "t": 402137.8221250134,
      "d": 132.65308333333815,
      "v": 20
    },
    {
      "midi": 64,
      "hit": false,
      "t": 402556.18954168004,
      "d": 127.55104166670935,
      "v": 27
    },
    {
      "midi": 53,
      "hit": false,
      "t": 402561.2915833467,
      "d": 183.67350000003353,
      "v": 24
    },
    {
      "midi": 60,
      "hit": false,
      "t": 402566.3936250134,
      "d": 107.14287500001956,
      "v": 35
    },
    {
      "midi": 57,
      "hit": false,
      "t": 402571.4956666801,
      "d": 127.55104166665114,
      "v": 38
    },
    {
      "midi": 74,
      "hit": false,
      "t": 402872.5161250134,
      "d": 76.53062500001397,
      "v": 38
    },
    {
      "midi": 75,
      "hit": false,
      "t": 402898.02633334673,
      "d": 71.42858333338518,
      "v": 56
    },
    {
      "midi": 76,
      "hit": false,
      "t": 402974.5569583468,
      "d": 112.24491666664835,
      "v": 64
    },
    {
      "midi": 81,
      "hit": false,
      "t": 403178.63862501347,
      "d": 117.34695833333535,
      "v": 87
    },
    {
      "midi": 74,
      "hit": false,
      "t": 403443.94479168014,
      "d": 51.02041666669538,
      "v": 64
    },
    {
      "midi": 81,
      "hit": false,
      "t": 403489.86316668015,
      "d": 51.02041666669538,
      "v": 24
    },
    {
      "midi": 75,
      "hit": false,
      "t": 403500.0672500135,
      "d": 102.04083333333256,
      "v": 53
    },
    {
      "midi": 74,
      "hit": false,
      "t": 403602.10808334686,
      "d": 86.73470833332976,
      "v": 54
    },
    {
      "midi": 72,
      "hit": false,
      "t": 403699.0468750135,
      "d": 66.32654166663997,
      "v": 46
    },
    {
      "midi": 53,
      "hit": false,
      "t": 403755.1693333468,
      "d": 122.44899999996414,
      "v": 17
    },
    {
      "midi": 69,
      "hit": false,
      "t": 403795.98566668015,
      "d": 260.2041249999893,
      "v": 39
    },
    {
      "midi": 60,
      "hit": false,
      "t": 404403.12862501346,
      "d": 102.04083333333256,
      "v": 32
    },
    {
      "midi": 57,
      "hit": false,
      "t": 404418.43475001346,
      "d": 71.42858333332697,
      "v": 33
    },
    {
      "midi": 50,
      "hit": false,
      "t": 404418.43475001346,
      "d": 91.83675000001676,
      "v": 15
    },
    {
      "midi": 53,
      "hit": false,
      "t": 404428.6388333468,
      "d": 86.73470833338797,
      "v": 22
    },
    {
      "midi": 50,
      "hit": false,
      "t": 404877.6185000135,
      "d": 86.73470833338797,
      "v": 24
    },
    {
      "midi": 60,
      "hit": false,
      "t": 404882.7205416802,
      "d": 66.32654166669818,
      "v": 41
    },
    {
      "midi": 57,
      "hit": false,
      "t": 404903.12870834686,
      "d": 66.32654166669818,
      "v": 33
    },
    {
      "midi": 48,
      "hit": false,
      "t": 405295.98591668025,
      "d": 76.53062499995576,
      "v": 36
    },
    {
      "midi": 57,
      "hit": false,
      "t": 405306.19000001356,
      "d": 91.83674999995856,
      "v": 29
    },
    {
      "midi": 48,
      "hit": false,
      "t": 405801.08804168017,
      "d": 45.91837500000838,
      "v": 35
    },
    {
      "midi": 57,
      "hit": false,
      "t": 405801.08804168017,
      "d": 45.91837500000838,
      "v": 36
    },
    {
      "midi": 68,
      "hit": false,
      "t": 405943.9452083468,
      "d": 45.91837500000838,
      "v": 65
    },
    {
      "midi": 69,
      "hit": false,
      "t": 405984.76154168014,
      "d": 107.14287500001956,
      "v": 66
    },
    {
      "midi": 57,
      "hit": false,
      "t": 406178.6391250135,
      "d": 40.81633333337959,
      "v": 37
    },
    {
      "midi": 74,
      "hit": false,
      "t": 406214.3534166802,
      "d": 102.04083333333256,
      "v": 101
    },
    {
      "midi": 67,
      "hit": false,
      "t": 406510.27183334687,
      "d": 35.71429166669259,
      "v": 64
    },
    {
      "midi": 47,
      "hit": false,
      "t": 406510.27183334687,
      "d": 647.9592916666879,
      "v": 37
    },
    {
      "midi": 68,
      "hit": false,
      "t": 406525.57795834687,
      "d": 163.26533333340194,
      "v": 55
    },
    {
      "midi": 57,
      "hit": false,
      "t": 406525.57795834687,
      "d": 173.46941666671773,
      "v": 24
    },
    {
      "midi": 67,
      "hit": false,
      "t": 406668.4351250136,
      "d": 71.42858333332697,
      "v": 52
    },
    {
      "midi": 65,
      "hit": false,
      "t": 406750.0677916802,
      "d": 76.53062500001397,
      "v": 57
    },
    {
      "midi": 62,
      "hit": false,
      "t": 406852.10862501356,
      "d": 193.87758333334932,
      "v": 55
    },
    {
      "midi": 57,
      "hit": false,
      "t": 407311.2923750136,
      "d": 40.81633333337959,
      "v": 54
    },
    {
      "midi": 47,
      "hit": false,
      "t": 407316.39441668027,
      "d": 86.73470833338797,
      "v": 43
    },
    {
      "midi": 56,
      "hit": false,
      "t": 407729.65979168034,
      "d": 76.53062500001397,
      "v": 69
    },
    {
      "midi": 47,
      "hit": false,
      "t": 407739.86387501366,
      "d": 51.02041666669538,
      "v": 49
    },
    {
      "midi": 59,
      "hit": false,
      "t": 408071.49658334703,
      "d": 86.73470833332976,
      "v": 66
    },
    {
      "midi": 62,
      "hit": false,
      "t": 408239.863958347,
      "d": 117.34695833333535,
      "v": 47
    },
    {
      "midi": 56,
      "hit": false,
      "t": 408336.80275001365,
      "d": 204.08166666666511,
      "v": 38
    },
    {
      "midi": 47,
      "hit": false,
      "t": 408367.41500001366,
      "d": 142.85716666665394,
      "v": 24
    },
    {
      "midi": 65,
      "hit": false,
      "t": 408382.72112501366,
      "d": 86.73470833332976,
      "v": 35
    },
    {
      "midi": 68,
      "hit": false,
      "t": 408566.39462501364,
      "d": 86.73470833332976,
      "v": 64
    },
    {
      "midi": 71,
      "hit": false,
      "t": 408719.4558750136,
      "d": 117.34695833333535,
      "v": 57
    },
    {
      "midi": 74,
      "hit": false,
      "t": 408872.51712501363,
      "d": 127.55104166665114,
      "v": 73
    },
    {
      "midi": 67,
      "hit": false,
      "t": 409010.2722500136,
      "d": 127.55104166665114,
      "v": 38
    },
    {
      "midi": 68,
      "hit": false,
      "t": 409163.33350001357,
      "d": 76.53062500001397,
      "v": 45
    },
    {
      "midi": 70,
      "hit": false,
      "t": 409285.7825000136,
      "d": 132.65308333333815,
      "v": 38
    },
    {
      "midi": 71,
      "hit": false,
      "t": 409459.25191668025,
      "d": 102.04083333333256,
      "v": 66
    },
    {
      "midi": 59,
      "hit": false,
      "t": 409500.0682500136,
      "d": 30.612250000005588,
      "v": 24
    },
    {
      "midi": 56,
      "hit": false,
      "t": 409505.17029168026,
      "d": 40.81633333332138,
      "v": 21
    },
    {
      "midi": 73,
      "hit": false,
      "t": 409602.1090833469,
      "d": 102.04083333333256,
      "v": 34
    },
    {
      "midi": 74,
      "hit": false,
      "t": 409755.17033334693,
      "d": 117.34695833333535,
      "v": 66
    },
    {
      "midi": 76,
      "hit": false,
      "t": 409882.7213750136,
      "d": 96.93879166664556,
      "v": 54
    },
    {
      "midi": 77,
      "hit": false,
      "t": 410045.98670834687,
      "d": 86.73470833338797,
      "v": 59
    },
    {
      "midi": 59,
      "hit": false,
      "t": 410076.5989583469,
      "d": 35.71429166669259,
      "v": 47
    },
    {
      "midi": 78,
      "hit": false,
      "t": 410188.8438750136,
      "d": 96.93879166664556,
      "v": 51
    },
    {
      "midi": 79,
      "hit": false,
      "t": 410362.31329168024,
      "d": 66.32654166663997,
      "v": 49
    },
    {
      "midi": 81,
      "hit": false,
      "t": 410494.9663750135,
      "d": 127.55104166665114,
      "v": 83
    },
    {
      "midi": 79,
      "hit": false,
      "t": 410806.19091668015,
      "d": 173.46941666665953,
      "v": 75
    },
    {
      "midi": 72,
      "hit": false,
      "t": 411127.61954168015,
      "d": 785.7144166666549,
      "v": 58
    },
    {
      "midi": 74,
      "hit": false,
      "t": 412051.08908334683,
      "d": 122.44900000008056,
      "v": 82
    },
    {
      "midi": 57,
      "hit": false,
      "t": 412056.1911250135,
      "d": 239.7959583334159,
      "v": 55
    },
    {
      "midi": 65,
      "hit": false,
      "t": 412061.2931666802,
      "d": 51.02041666669538,
      "v": 42
    },
    {
      "midi": 62,
      "hit": false,
      "t": 412066.3952083469,
      "d": 209.18370833335212,
      "v": 43
    },
    {
      "midi": 74,
      "hit": false,
      "t": 412347.0075000136,
      "d": 102.04083333333256,
      "v": 49
    },
    {
      "midi": 75,
      "hit": false,
      "t": 412530.6810000136,
      "d": 86.73470833338797,
      "v": 68
    },
    {
      "midi": 62,
      "hit": false,
      "t": 412581.7014166803,
      "d": 137.75512500002515,
      "v": 35
    },
    {
      "midi": 56,
      "hit": false,
      "t": 412586.803458347,
      "d": 397.95925000007264,
      "v": 35
    },
    {
      "midi": 76,
      "hit": false,
      "t": 412688.8442916803,
      "d": 81.63266666670097,
      "v": 61
    },
    {
      "midi": 77,
      "hit": false,
      "t": 412831.70145834703,
      "d": 147.95920833334094,
      "v": 74
    },
    {
      "midi": 62,
      "hit": false,
      "t": 412872.51779168035,
      "d": 142.85716666671215,
      "v": 20
    },
    {
      "midi": 76,
      "hit": false,
      "t": 412979.6606666804,
      "d": 112.24491666670656,
      "v": 49
    },
    {
      "midi": 71,
      "hit": false,
      "t": 413260.27295834705,
      "d": 122.44900000008056,
      "v": 49
    },
    {
      "midi": 56,
      "hit": false,
      "t": 413280.68112501374,
      "d": 265.3061666667927,
      "v": 27
    },
    {
      "midi": 62,
      "hit": false,
      "t": 413285.7831666804,
      "d": 137.75512500008335,
      "v": 36
    },
    {
      "midi": 65,
      "hit": false,
      "t": 413290.8852083471,
      "d": 96.93879166670376,
      "v": 24
    },
    {
      "midi": 64,
      "hit": false,
      "t": 413750.0689583472,
      "d": 66.32654166669818,
      "v": 46
    },
    {
      "midi": 59,
      "hit": false,
      "t": 413750.0689583472,
      "d": 76.53062500001397,
      "v": 42
    },
    {
      "midi": 60,
      "hit": false,
      "t": 413760.2730416805,
      "d": 35.71429166669259,
      "v": 50
    },
    {
      "midi": 57,
      "hit": false,
      "t": 413760.2730416805,
      "d": 96.93879166670376,
      "v": 34
    },
    {
      "midi": 88,
      "hit": false,
      "t": 414178.6404583472,
      "d": 153.06125000002794,
      "v": 91
    },
    {
      "midi": 64,
      "hit": false,
      "t": 414188.84454168053,
      "d": 112.24491666670656,
      "v": 48
    },
    {
      "midi": 60,
      "hit": false,
      "t": 414209.2527083472,
      "d": 86.73470833332976,
      "v": 40
    },
    {
      "midi": 57,
      "hit": false,
      "t": 414229.6608750139,
      "d": 153.06124999996973,
      "v": 24
    },
    {
      "midi": 59,
      "hit": false,
      "t": 414239.8649583472,
      "d": 45.91837500000838,
      "v": 18
    },
    {
      "midi": 83,
      "hit": false,
      "t": 414372.51804168057,
      "d": 81.63266666664276,
      "v": 49
    },
    {
      "midi": 86,
      "hit": false,
      "t": 414515.3752083472,
      "d": 117.34695833333535,
      "v": 87
    },
    {
      "midi": 84,
      "hit": false,
      "t": 414693.94666668057,
      "d": 76.53062500001397,
      "v": 62
    },
    {
      "midi": 60,
      "hit": false,
      "t": 414714.35483334726,
      "d": 56.122458333324175,
      "v": 39
    },
    {
      "midi": 80,
      "hit": false,
      "t": 414847.0079166806,
      "d": 122.44900000002235,
      "v": 35
    },
    {
      "midi": 83,
      "hit": false,
      "t": 414994.96712501394,
      "d": 132.65308333333815,
      "v": 70
    },
    {
      "midi": 60,
      "hit": false,
      "t": 415005.17120834725,
      "d": 45.91837500000838,
      "v": 24
    },
    {
      "midi": 81,
      "hit": false,
      "t": 415137.8242916806,
      "d": 122.44900000002235,
      "v": 57
    },
    {
      "midi": 76,
      "hit": false,
      "t": 415285.78350001393,
      "d": 96.93879166664556,
      "v": 61
    },
    {
      "midi": 74,
      "hit": false,
      "t": 415418.43658334727,
      "d": 137.75512500002515,
      "v": 39
    },
    {
      "midi": 71,
      "hit": false,
      "t": 415602.1100833473,
      "d": 40.81633333332138,
      "v": 43
    },
    {
      "midi": 57,
      "hit": false,
      "t": 415632.7223333473,
      "d": 112.24491666664835,
      "v": 25
    },
    {
      "midi": 74,
      "hit": false,
      "t": 415719.45704168064,
      "d": 137.75512499996694,
      "v": 66
    },
    {
      "midi": 76,
      "hit": false,
      "t": 415898.0285000139,
      "d": 86.73470833332976,
      "v": 46
    },
    {
      "midi": 74,
      "hit": false,
      "t": 415938.84483334725,
      "d": 127.55104166665114,
      "v": 36
    },
    {
      "midi": 72,
      "hit": false,
      "t": 416040.8856666806,
      "d": 112.24491666664835,
      "v": 31
    },
    {
      "midi": 71,
      "hit": false,
      "t": 416193.94691668055,
      "d": 81.63266666664276,
      "v": 62
    },
    {
      "midi": 74,
      "hit": false,
      "t": 416306.1918333472,
      "d": 168.36737499997253,
      "v": 71
    },
    {
      "midi": 71,
      "hit": false,
      "t": 416500.0694166805,
      "d": 86.73470833332976,
      "v": 55
    },
    {
      "midi": 72,
      "hit": false,
      "t": 416642.92658334714,
      "d": 142.85716666665394,
      "v": 46
    },
    {
      "midi": 64,
      "hit": false,
      "t": 416826.6000833471,
      "d": 76.53062500001397,
      "v": 42
    },
    {
      "midi": 54,
      "hit": false,
      "t": 417525.57979168044,
      "d": 127.55104166665114,
      "v": 39
    },
    {
      "midi": 60,
      "hit": false,
      "t": 417545.98795834713,
      "d": 35.71429166663438,
      "v": 19
    },
    {
      "midi": 93,
      "hit": false,
      "t": 417556.19204168045,
      "d": 71.42858333332697,
      "v": 71
    },
    {
      "midi": 94,
      "hit": false,
      "t": 417658.2328750138,
      "d": 142.85716666665394,
      "v": 67
    },
    {
      "midi": 91,
      "hit": false,
      "t": 417806.1920833471,
      "d": 66.32654166663997,
      "v": 66
    },
    {
      "midi": 90,
      "hit": false,
      "t": 418076.6002916804,
      "d": 71.42858333338518,
      "v": 80
    },
    {
      "midi": 60,
      "hit": false,
      "t": 418112.3145833471,
      "d": 40.81633333337959,
      "v": 42
    },
    {
      "midi": 85,
      "hit": false,
      "t": 418321.4982916805,
      "d": 61.224500000011176,
      "v": 74
    },
    {
      "midi": 86,
      "hit": false,
      "t": 418352.1105416805,
      "d": 30.612250000005588,
      "v": 57
    },
    {
      "midi": 60,
      "hit": false,
      "t": 418357.21258334717,
      "d": 40.81633333332138,
      "v": 35
    },
    {
      "midi": 54,
      "hit": false,
      "t": 418357.21258334717,
      "d": 127.55104166665114,
      "v": 32
    },
    {
      "midi": 86,
      "hit": false,
      "t": 418576.60037501383,
      "d": 66.32654166663997,
      "v": 82
    },
    {
      "midi": 84,
      "hit": false,
      "t": 418734.7636666805,
      "d": 91.83675000001676,
      "v": 76
    },
    {
      "midi": 58,
      "hit": false,
      "t": 418739.8657083472,
      "d": 117.34695833333535,
      "v": 29
    },
    {
      "midi": 55,
      "hit": false,
      "t": 418765.3759166805,
      "d": 86.73470833332976,
      "v": 31
    },
    {
      "midi": 62,
      "hit": false,
      "t": 418770.4779583472,
      "d": 66.32654166663997,
      "v": 9
    },
    {
      "midi": 82,
      "hit": false,
      "t": 418903.1310416805,
      "d": 76.53062500001397,
      "v": 54
    },
    {
      "midi": 81,
      "hit": false,
      "t": 419071.49841668055,
      "d": 81.63266666664276,
      "v": 64
    },
    {
      "midi": 82,
      "hit": false,
      "t": 419229.6617083472,
      "d": 81.63266666664276,
      "v": 62
    },
    {
      "midi": 84,
      "hit": false,
      "t": 419367.4168333472,
      "d": 81.63266666670097,
      "v": 69
    },
    {
      "midi": 58,
      "hit": false,
      "t": 419428.6413333472,
      "d": 239.7959583333577,
      "v": 13
    },
    {
      "midi": 81,
      "hit": false,
      "t": 419530.6821666805,
      "d": 86.73470833332976,
      "v": 59
    },
    {
      "midi": 78,
      "hit": false,
      "t": 419724.55975001387,
      "d": 943.8777083333698,
      "v": 47
    },
    {
      "midi": 63,
      "hit": false,
      "t": 420183.7435000139,
      "d": 71.42858333332697,
      "v": 59
    },
    {
      "midi": 63,
      "hit": false,
      "t": 420612.3150000139,
      "d": 438.7755833333358,
      "v": 54
    },
    {
      "midi": 55,
      "hit": false,
      "t": 420632.7231666806,
      "d": 352.04087500000605,
      "v": 54
    },
    {
      "midi": 58,
      "hit": false,
      "t": 420658.2333750139,
      "d": 418.367416666646,
      "v": 32
    },
    {
      "midi": 75,
      "hit": false,
      "t": 420923.5395416806,
      "d": 117.34695833333535,
      "v": 61
    },
    {
      "midi": 75,
      "hit": false,
      "t": 421107.2130416806,
      "d": 81.63266666664276,
      "v": 48
    },
    {
      "midi": 58,
      "hit": false,
      "t": 421219.4579583472,
      "d": 362.24495833338005,
      "v": 25
    },
    {
      "midi": 64,
      "hit": false,
      "t": 421244.96816668054,
      "d": 229.5918749999837,
      "v": 22
    },
    {
      "midi": 55,
      "hit": false,
      "t": 421255.17225001386,
      "d": 239.7959583333577,
      "v": 22
    },
    {
      "midi": 74,
      "hit": false,
      "t": 421260.27429168054,
      "d": 71.42858333332697,
      "v": 53
    },
    {
      "midi": 67,
      "hit": false,
      "t": 421545.9886250139,
      "d": 127.55104166670935,
      "v": 65
    },
    {
      "midi": 58,
      "hit": false,
      "t": 422045.98870834726,
      "d": 117.34695833333535,
      "v": 47
    },
    {
      "midi": 58,
      "hit": false,
      "t": 422443.9479583473,
      "d": 102.04083333339076,
      "v": 46
    },
    {
      "midi": 52,
      "hit": false,
      "t": 422449.05000001396,
      "d": 91.83675000001676,
      "v": 48
    },
    {
      "midi": 82,
      "hit": false,
      "t": 422770.478625014,
      "d": 102.04083333333256,
      "v": 76
    },
    {
      "midi": 79,
      "hit": false,
      "t": 422949.05008334736,
      "d": 76.53062500001397,
      "v": 54
    },
    {
      "midi": 76,
      "hit": false,
      "t": 423097.0092916807,
      "d": 107.14287500001956,
      "v": 36
    },
    {
      "midi": 52,
      "hit": false,
      "t": 423127.6215416807,
      "d": 86.73470833332976,
      "v": 15
    },
    {
      "midi": 58,
      "hit": false,
      "t": 423132.7235833474,
      "d": 188.77554166666232,
      "v": 18
    },
    {
      "midi": 75,
      "hit": false,
      "t": 423234.76441668073,
      "d": 86.73470833332976,
      "v": 60
    },
    {
      "midi": 74,
      "hit": false,
      "t": 423382.72362501407,
      "d": 86.73470833332976,
      "v": 44
    },
    {
      "midi": 73,
      "hit": false,
      "t": 423540.8869166807,
      "d": 96.93879166664556,
      "v": 49
    },
    {
      "midi": 63,
      "hit": false,
      "t": 423648.0297916807,
      "d": 183.67349999997532,
      "v": 36
    },
    {
      "midi": 55,
      "hit": false,
      "t": 423658.233875014,
      "d": 137.75512500002515,
      "v": 40
    },
    {
      "midi": 57,
      "hit": false,
      "t": 423663.3359166807,
      "d": 193.8775833332911,
      "v": 36
    },
    {
      "midi": 72,
      "hit": false,
      "t": 423673.540000014,
      "d": 147.95920833334094,
      "v": 36
    },
    {
      "midi": 72,
      "hit": false,
      "t": 423974.5604583473,
      "d": 112.24491666664835,
      "v": 50
    },
    {
      "midi": 63,
      "hit": false,
      "t": 424474.5605416806,
      "d": 290.8163749999949,
      "v": 43
    },
    {
      "midi": 54,
      "hit": false,
      "t": 424898.03000001394,
      "d": 102.04083333333256,
      "v": 39
    },
    {
      "midi": 60,
      "hit": false,
      "t": 424908.23408334726,
      "d": 51.02041666669538,
      "v": 40
    },
    {
      "midi": 75,
      "hit": false,
      "t": 425229.66270834726,
      "d": 56.12245833338238,
      "v": 78
    },
    {
      "midi": 87,
      "hit": false,
      "t": 425234.76475001394,
      "d": 61.224500000011176,
      "v": 67
    },
    {
      "midi": 82,
      "hit": false,
      "t": 425239.86679168063,
      "d": 91.83675000001676,
      "v": 63
    },
    {
      "midi": 87,
      "hit": false,
      "t": 425398.0300833473,
      "d": 91.83675000001676,
      "v": 69
    },
    {
      "midi": 82,
      "hit": false,
      "t": 425403.132125014,
      "d": 86.73470833332976,
      "v": 43
    },
    {
      "midi": 75,
      "hit": false,
      "t": 425403.132125014,
      "d": 91.83675000001676,
      "v": 56
    },
    {
      "midi": 63,
      "hit": false,
      "t": 425479.662750014,
      "d": 56.122458333324175,
      "v": 31
    },
    {
      "midi": 54,
      "hit": false,
      "t": 425489.8668333473,
      "d": 86.73470833332976,
      "v": 30
    },
    {
      "midi": 86,
      "hit": false,
      "t": 425545.9892916806,
      "d": 71.42858333332697,
      "v": 49
    },
    {
      "midi": 74,
      "hit": false,
      "t": 425545.9892916806,
      "d": 81.63266666664276,
      "v": 37
    },
    {
      "midi": 85,
      "hit": false,
      "t": 425561.29541668063,
      "d": 56.122458333324175,
      "v": 26
    },
    {
      "midi": 86,
      "hit": false,
      "t": 425709.2546250139,
      "d": 66.32654166669818,
      "v": 61
    },
    {
      "midi": 74,
      "hit": false,
      "t": 425719.4587083472,
      "d": 61.22450000006938,
      "v": 57
    },
    {
      "midi": 81,
      "hit": false,
      "t": 425739.8668750139,
      "d": 45.91837500006659,
      "v": 39
    },
    {
      "midi": 54,
      "hit": false,
      "t": 425739.8668750139,
      "d": 204.08166666672332,
      "v": 46
    },
    {
      "midi": 63,
      "hit": false,
      "t": 425755.1730000139,
      "d": 40.81633333337959,
      "v": 26
    },
    {
      "midi": 72,
      "hit": false,
      "t": 425877.62200001394,
      "d": 61.224500000011176,
      "v": 36
    },
    {
      "midi": 72,
      "hit": false,
      "t": 426025.5812083473,
      "d": 61.224500000011176,
      "v": 54
    },
    {
      "midi": 84,
      "hit": false,
      "t": 426025.5812083473,
      "d": 66.32654166669818,
      "v": 71
    },
    {
      "midi": 83,
      "hit": false,
      "t": 426061.295500014,
      "d": 30.612250000005588,
      "v": 30
    },
    {
      "midi": 62,
      "hit": false,
      "t": 426117.4179583473,
      "d": 35.71429166663438,
      "v": 28
    },
    {
      "midi": 55,
      "hit": false,
      "t": 426142.9281666806,
      "d": 71.42858333332697,
      "v": 26
    },
    {
      "midi": 82,
      "hit": false,
      "t": 426188.8465416806,
      "d": 112.24491666664835,
      "v": 33
    },
    {
      "midi": 70,
      "hit": false,
      "t": 426204.15266668063,
      "d": 51.020416666637175,
      "v": 34
    },
    {
      "midi": 82,
      "hit": false,
      "t": 426438.8465833473,
      "d": 102.04083333333256,
      "v": 55
    },
    {
      "midi": 70,
      "hit": false,
      "t": 426449.0506666806,
      "d": 76.53062500001397,
      "v": 51
    },
    {
      "midi": 75,
      "hit": false,
      "t": 426479.6629166806,
      "d": 30.612250000005588,
      "v": 28
    },
    {
      "midi": 82,
      "hit": false,
      "t": 426612.31600001396,
      "d": 306.1225000000559,
      "v": 53
    },
    {
      "midi": 70,
      "hit": false,
      "t": 426627.62212501396,
      "d": 71.42858333338518,
      "v": 61
    },
    {
      "midi": 75,
      "hit": false,
      "t": 426642.92825001397,
      "d": 40.81633333337959,
      "v": 38
    },
    {
      "midi": 61,
      "hit": false,
      "t": 426648.03029168065,
      "d": 56.12245833338238,
      "v": 43
    },
    {
      "midi": 70,
      "hit": false,
      "t": 426790.88745834737,
      "d": 96.93879166664556,
      "v": 30
    },
    {
      "midi": 75,
      "hit": false,
      "t": 426801.0915416807,
      "d": 86.73470833332976,
      "v": 38
    },
    {
      "midi": 55,
      "hit": false,
      "t": 426847.0099166807,
      "d": 137.75512499996694,
      "v": 8
    },
    {
      "midi": 82,
      "hit": false,
      "t": 427040.887500014,
      "d": 71.42858333332697,
      "v": 52
    },
    {
      "midi": 70,
      "hit": false,
      "t": 427045.98954168067,
      "d": 66.32654166663997,
      "v": 57
    },
    {
      "midi": 75,
      "hit": false,
      "t": 427056.193625014,
      "d": 45.91837500000838,
      "v": 40
    },
    {
      "midi": 75,
      "hit": false,
      "t": 427229.66304168064,
      "d": 56.12245833338238,
      "v": 54
    },
    {
      "midi": 82,
      "hit": false,
      "t": 427229.66304168064,
      "d": 76.53062500007218,
      "v": 58
    },
    {
      "midi": 70,
      "hit": false,
      "t": 427234.76508334733,
      "d": 40.81633333332138,
      "v": 49
    },
    {
      "midi": 63,
      "hit": false,
      "t": 427265.37733334734,
      "d": 51.02041666675359,
      "v": 71
    },
    {
      "midi": 52,
      "hit": false,
      "t": 427275.58141668065,
      "d": 35.714291666750796,
      "v": 55
    },
    {
      "midi": 58,
      "hit": false,
      "t": 427280.68345834734,
      "d": 96.93879166676197,
      "v": 45
    },
    {
      "midi": 85,
      "hit": false,
      "t": 427387.8263333474,
      "d": 66.32654166663997,
      "v": 65
    },
    {
      "midi": 73,
      "hit": false,
      "t": 427398.03041668073,
      "d": 40.81633333332138,
      "v": 32
    },
    {
      "midi": 73,
      "hit": false,
      "t": 427551.0916666807,
      "d": 61.224500000011176,
      "v": 46
    },
    {
      "midi": 85,
      "hit": false,
      "t": 427556.1937083474,
      "d": 45.91837500000838,
      "v": 64
    },
    {
      "midi": 82,
      "hit": false,
      "t": 427576.6018750141,
      "d": 40.81633333332138,
      "v": 28
    },
    {
      "midi": 85,
      "hit": false,
      "t": 427678.6427083474,
      "d": 76.53062499995576,
      "v": 51
    },
    {
      "midi": 73,
      "hit": false,
      "t": 427688.8467916807,
      "d": 76.53062499995576,
      "v": 25
    },
    {
      "midi": 85,
      "hit": false,
      "t": 427857.2141666807,
      "d": 66.32654166675638,
      "v": 75
    },
    {
      "midi": 73,
      "hit": false,
      "t": 427857.2141666807,
      "d": 117.34695833339356,
      "v": 55
    },
    {
      "midi": 80,
      "hit": false,
      "t": 427877.6223333474,
      "d": 96.93879166670376,
      "v": 48
    },
    {
      "midi": 63,
      "hit": false,
      "t": 427887.8264166807,
      "d": 35.714291666750796,
      "v": 59
    },
    {
      "midi": 82,
      "hit": false,
      "t": 427892.9284583474,
      "d": 56.12245833338238,
      "v": 27
    },
    {
      "midi": 52,
      "hit": false,
      "t": 427898.0305000141,
      "d": 35.71429166669259,
      "v": 52
    },
    {
      "midi": 58,
      "hit": false,
      "t": 427903.13254168077,
      "d": 127.55104166665114,
      "v": 31
    },
    {
      "midi": 84,
      "hit": false,
      "t": 428000.0713333474,
      "d": 102.04083333333256,
      "v": 66
    },
    {
      "midi": 72,
      "hit": false,
      "t": 428015.3774583474,
      "d": 107.14287500001956,
      "v": 46
    },
    {
      "midi": 52,
      "hit": false,
      "t": 428250.0713750141,
      "d": 45.91837500000838,
      "v": 24
    },
    {
      "midi": 82,
      "hit": false,
      "t": 428255.1734166808,
      "d": 147.95920833334094,
      "v": 49
    },
    {
      "midi": 58,
      "hit": false,
      "t": 428265.3775000141,
      "d": 122.44900000002235,
      "v": 25
    },
    {
      "midi": 70,
      "hit": false,
      "t": 428265.3775000141,
      "d": 153.06125000002794,
      "v": 57
    },
    {
      "midi": 60,
      "hit": false,
      "t": 428510.27550001413,
      "d": 40.81633333332138,
      "v": 40
    },
    {
      "midi": 57,
      "hit": false,
      "t": 428520.47958334745,
      "d": 51.02041666669538,
      "v": 43
    },
    {
      "midi": 80,
      "hit": false,
      "t": 428566.39795834746,
      "d": 122.44900000002235,
      "v": 33
    },
    {
      "midi": 68,
      "hit": false,
      "t": 428581.70408334746,
      "d": 102.04083333333256,
      "v": 56
    },
    {
      "midi": 76,
      "hit": false,
      "t": 428683.7449166808,
      "d": 66.32654166675638,
      "v": 14
    },
    {
      "midi": 81,
      "hit": false,
      "t": 428693.94900001417,
      "d": 76.53062500007218,
      "v": 42
    },
    {
      "midi": 69,
      "hit": false,
      "t": 428709.25512501417,
      "d": 35.71429166669259,
      "v": 36
    },
    {
      "midi": 60,
      "hit": false,
      "t": 428790.8877916809,
      "d": 40.81633333337959,
      "v": 40
    },
    {
      "midi": 57,
      "hit": false,
      "t": 428826.6020833476,
      "d": 35.71429166669259,
      "v": 22
    },
    {
      "midi": 69,
      "hit": false,
      "t": 428882.724541681,
      "d": 91.83674999995856,
      "v": 71
    },
    {
      "midi": 81,
      "hit": false,
      "t": 428882.724541681,
      "d": 102.04083333327435,
      "v": 68
    },
    {
      "midi": 76,
      "hit": false,
      "t": 428892.9286250143,
      "d": 96.93879166664556,
      "v": 49
    },
    {
      "midi": 81,
      "hit": false,
      "t": 429066.398041681,
      "d": 66.32654166675638,
      "v": 62
    },
    {
      "midi": 69,
      "hit": false,
      "t": 429071.50008334767,
      "d": 40.81633333337959,
      "v": 64
    },
    {
      "midi": 76,
      "hit": false,
      "t": 429076.60212501435,
      "d": 86.73470833338797,
      "v": 53
    },
    {
      "midi": 79,
      "hit": false,
      "t": 429112.31641668105,
      "d": 40.81633333337959,
      "v": 24
    },
    {
      "midi": 57,
      "hit": false,
      "t": 429183.74500001443,
      "d": 51.02041666669538,
      "v": 24
    },
    {
      "midi": 80,
      "hit": false,
      "t": 429214.35725001444,
      "d": 91.83675000001676,
      "v": 55
    },
    {
      "midi": 68,
      "hit": false,
      "t": 429234.7654166811,
      "d": 71.42858333332697,
      "v": 46
    },
    {
      "midi": 76,
      "hit": false,
      "t": 429234.7654166811,
      "d": 168.36737499997253,
      "v": 36
    },
    {
      "midi": 69,
      "hit": false,
      "t": 429326.60216668114,
      "d": 66.32654166663997,
      "v": 55
    },
    {
      "midi": 81,
      "hit": false,
      "t": 429489.8675000144,
      "d": 107.14287500001956,
      "v": 70
    },
    {
      "midi": 69,
      "hit": false,
      "t": 429500.07158334774,
      "d": 76.53062500001397,
      "v": 70
    },
    {
      "midi": 76,
      "hit": false,
      "t": 429500.07158334774,
      "d": 112.24491666670656,
      "v": 56
    },
    {
      "midi": 81,
      "hit": false,
      "t": 429683.7450833478,
      "d": 35.71429166669259,
      "v": 49
    },
    {
      "midi": 76,
      "hit": false,
      "t": 429688.84712501446,
      "d": 86.73470833332976,
      "v": 62
    },
    {
      "midi": 69,
      "hit": false,
      "t": 429699.0512083478,
      "d": 35.71429166669259,
      "v": 36
    },
    {
      "midi": 80,
      "hit": false,
      "t": 429816.3981666811,
      "d": 86.73470833338797,
      "v": 38
    },
    {
      "midi": 68,
      "hit": false,
      "t": 429821.5002083478,
      "d": 76.53062500001397,
      "v": 45
    },
    {
      "midi": 76,
      "hit": false,
      "t": 429836.8063333478,
      "d": 168.36737500003073,
      "v": 31
    },
    {
      "midi": 69,
      "hit": false,
      "t": 429928.6430833478,
      "d": 51.02041666669538,
      "v": 38
    },
    {
      "midi": 81,
      "hit": false,
      "t": 430091.90841668117,
      "d": 102.04083333333256,
      "v": 67
    },
    {
      "midi": 76,
      "hit": false,
      "t": 430102.1125000145,
      "d": 91.83675000001676,
      "v": 46
    },
    {
      "midi": 69,
      "hit": false,
      "t": 430107.21454168117,
      "d": 71.42858333332697,
      "v": 58
    },
    {
      "midi": 76,
      "hit": false,
      "t": 430290.88804168114,
      "d": 76.53062500007218,
      "v": 55
    },
    {
      "midi": 81,
      "hit": false,
      "t": 430295.99008334783,
      "d": 35.71429166669259,
      "v": 53
    },
    {
      "midi": 69,
      "hit": false,
      "t": 430301.0921250145,
      "d": 30.612250000005588,
      "v": 51
    },
    {
      "midi": 57,
      "hit": false,
      "t": 430326.60233334784,
      "d": 86.73470833338797,
      "v": 50
    },
    {
      "midi": 60,
      "hit": false,
      "t": 430336.8064166812,
      "d": 30.612250000005588,
      "v": 30
    },
    {
      "midi": 53,
      "hit": false,
      "t": 430336.8064166812,
      "d": 56.122458333324175,
      "v": 30
    },
    {
      "midi": 68,
      "hit": false,
      "t": 430423.54112501454,
      "d": 91.83675000001676,
      "v": 56
    },
    {
      "midi": 80,
      "hit": false,
      "t": 430428.6431666812,
      "d": 96.93879166670376,
      "v": 42
    },
    {
      "midi": 81,
      "hit": false,
      "t": 430515.37787501456,
      "d": 86.73470833338797,
      "v": 32
    },
    {
      "midi": 77,
      "hit": false,
      "t": 430520.47991668124,
      "d": 122.44900000002235,
      "v": 1
    },
    {
      "midi": 69,
      "hit": false,
      "t": 430535.78604168125,
      "d": 45.91837500000838,
      "v": 54
    },
    {
      "midi": 79,
      "hit": false,
      "t": 430561.29625001457,
      "d": 40.81633333337959,
      "v": 22
    },
    {
      "midi": 81,
      "hit": false,
      "t": 430704.1534166813,
      "d": 112.24491666664835,
      "v": 70
    },
    {
      "midi": 57,
      "hit": false,
      "t": 430714.3575000146,
      "d": 35.71429166663438,
      "v": 39
    },
    {
      "midi": 69,
      "hit": false,
      "t": 430714.3575000146,
      "d": 76.53062500001397,
      "v": 74
    },
    {
      "midi": 77,
      "hit": false,
      "t": 430714.3575000146,
      "d": 127.55104166665114,
      "v": 55
    },
    {
      "midi": 53,
      "hit": false,
      "t": 430739.8677083479,
      "d": 45.91837500000838,
      "v": 24
    },
    {
      "midi": 81,
      "hit": false,
      "t": 430898.03100001457,
      "d": 40.81633333332138,
      "v": 51
    },
    {
      "midi": 69,
      "hit": false,
      "t": 430908.2350833479,
      "d": 30.612250000005588,
      "v": 66
    },
    {
      "midi": 77,
      "hit": false,
      "t": 430908.2350833479,
      "d": 102.04083333339076,
      "v": 58
    },
    {
      "midi": 79,
      "hit": false,
      "t": 430923.5412083479,
      "d": 35.71429166669259,
      "v": 41
    },
    {
      "midi": 50,
      "hit": false,
      "t": 430994.9697916813,
      "d": 86.73470833338797,
      "v": 43
    },
    {
      "midi": 53,
      "hit": false,
      "t": 431015.37795834796,
      "d": 107.14287500007777,
      "v": 34
    },
    {
      "midi": 68,
      "hit": false,
      "t": 431030.68408334797,
      "d": 76.53062500007218,
      "v": 59
    },
    {
      "midi": 80,
      "hit": false,
      "t": 431030.68408334797,
      "d": 76.53062500007218,
      "v": 48
    },
    {
      "midi": 77,
      "hit": false,
      "t": 431051.09225001466,
      "d": 183.67350000009174,
      "v": 17
    },
    {
      "midi": 81,
      "hit": false,
      "t": 431102.11266668135,
      "d": 96.93879166670376,
      "v": 38
    },
    {
      "midi": 74,
      "hit": false,
      "t": 431127.6228750147,
      "d": 61.224500000011176,
      "v": 49
    },
    {
      "midi": 69,
      "hit": false,
      "t": 431132.7249166814,
      "d": 45.91837500000838,
      "v": 36
    },
    {
      "midi": 81,
      "hit": false,
      "t": 431316.3984166814,
      "d": 107.14287500001956,
      "v": 72
    },
    {
      "midi": 69,
      "hit": false,
      "t": 431326.6025000147,
      "d": 81.63266666670097,
      "v": 65
    },
    {
      "midi": 74,
      "hit": false,
      "t": 431331.7045416814,
      "d": 76.53062500001397,
      "v": 41
    },
    {
      "midi": 77,
      "hit": false,
      "t": 431336.8065833481,
      "d": 102.04083333333256,
      "v": 44
    },
    {
      "midi": 81,
      "hit": false,
      "t": 431510.27600001474,
      "d": 35.71429166669259,
      "v": 58
    },
    {
      "midi": 69,
      "hit": false,
      "t": 431515.3780416814,
      "d": 30.612250000005588,
      "v": 65
    },
    {
      "midi": 74,
      "hit": false,
      "t": 431525.58212501474,
      "d": 66.32654166675638,
      "v": 49
    },
    {
      "midi": 77,
      "hit": false,
      "t": 431525.58212501474,
      "d": 295.9184166669147,
      "v": 51
    },
    {
      "midi": 79,
      "hit": false,
      "t": 431545.99029168143,
      "d": 35.71429166669259,
      "v": 30
    },
    {
      "midi": 60,
      "hit": false,
      "t": 431566.3984583481,
      "d": 35.71429166669259,
      "v": 38
    },
    {
      "midi": 57,
      "hit": false,
      "t": 431576.60254168144,
      "d": 45.91837500006659,
      "v": 40
    },
    {
      "midi": 53,
      "hit": false,
      "t": 431586.8066250148,
      "d": 96.93879166676197,
      "v": 30
    },
    {
      "midi": 80,
      "hit": false,
      "t": 431642.9290833482,
      "d": 66.32654166669818,
      "v": 38
    },
    {
      "midi": 68,
      "hit": false,
      "t": 431663.3372500149,
      "d": 51.02041666669538,
      "v": 30
    },
    {
      "midi": 74,
      "hit": false,
      "t": 431668.43929168157,
      "d": 132.65308333339635,
      "v": 36
    },
    {
      "midi": 79,
      "hit": false,
      "t": 431765.3780833483,
      "d": 40.81633333337959,
      "v": 13
    },
    {
      "midi": 81,
      "hit": false,
      "t": 431852.11279168166,
      "d": 112.24491666676477,
      "v": 71
    },
    {
      "midi": 69,
      "hit": false,
      "t": 431857.21483334835,
      "d": 71.42858333338518,
      "v": 66
    },
    {
      "midi": 74,
      "hit": false,
      "t": 431857.21483334835,
      "d": 81.63266666670097,
      "v": 63
    },
    {
      "midi": 57,
      "hit": false,
      "t": 431867.41891668166,
      "d": 40.81633333337959,
      "v": 35
    },
    {
      "midi": 77,
      "hit": false,
      "t": 431872.52095834835,
      "d": 91.83675000007497,
      "v": 39
    },
    {
      "midi": 79,
      "hit": false,
      "t": 431877.62300001504,
      "d": 45.91837500000838,
      "v": 44
    },
    {
      "midi": 53,
      "hit": false,
      "t": 431892.92912501504,
      "d": 66.32654166669818,
      "v": 24
    },
    {
      "midi": 57,
      "hit": false,
      "t": 432494.9700416818,
      "d": 51.02041666669538,
      "v": 53
    },
    {
      "midi": 48,
      "hit": false,
      "t": 432494.9700416818,
      "d": 61.224500000011176,
      "v": 51
    },
    {
      "midi": 57,
      "hit": false,
      "t": 432719.45987501513,
      "d": 35.71429166669259,
      "v": 47
    },
    {
      "midi": 48,
      "hit": false,
      "t": 432739.8680416818,
      "d": 51.02041666669538,
      "v": 40
    },
    {
      "midi": 80,
      "hit": false,
      "t": 432852.11295834853,
      "d": 81.63266666670097,
      "v": 37
    },
    {
      "midi": 68,
      "hit": false,
      "t": 432857.2150000152,
      "d": 81.63266666670097,
      "v": 69
    },
    {
      "midi": 69,
      "hit": false,
      "t": 433030.68441668194,
      "d": 30.612250000005588,
      "v": 66
    },
    {
      "midi": 74,
      "hit": false,
      "t": 433030.68441668194,
      "d": 45.91837500000838,
      "v": 42
    },
    {
      "midi": 81,
      "hit": false,
      "t": 433040.88850001525,
      "d": 102.04083333333256,
      "v": 42
    },
    {
      "midi": 88,
      "hit": false,
      "t": 433469.4600000153,
      "d": 107.14287500007777,
      "v": 88
    },
    {
      "midi": 81,
      "hit": false,
      "t": 433474.56204168196,
      "d": 117.34695833339356,
      "v": 85
    },
    {
      "midi": 83,
      "hit": false,
      "t": 433474.56204168196,
      "d": 122.44900000008056,
      "v": 80
    },
    {
      "midi": 77,
      "hit": false,
      "t": 433474.56204168196,
      "d": 229.59187500010012,
      "v": 91
    },
    {
      "midi": 76,
      "hit": false,
      "t": 433479.66408334865,
      "d": 76.53062500001397,
      "v": 74
    },
    {
      "midi": 86,
      "hit": false,
      "t": 433489.86816668196,
      "d": 30.612250000005588,
      "v": 66
    },
    {
      "midi": 76,
      "hit": false,
      "t": 433709.25595834875,
      "d": 51.02041666669538,
      "v": 39
    },
    {
      "midi": 74,
      "hit": false,
      "t": 433760.27637501544,
      "d": 35.71429166669259,
      "v": 37
    },
    {
      "midi": 71,
      "hit": false,
      "t": 433877.6233333488,
      "d": 40.81633333332138,
      "v": 42
    },
    {
      "midi": 69,
      "hit": false,
      "t": 433964.3580416821,
      "d": 25.510208333318587,
      "v": 24
    },
    {
      "midi": 67,
      "hit": false,
      "t": 434030.68458334875,
      "d": 40.81633333332138,
      "v": 27
    },
    {
      "midi": 65,
      "hit": false,
      "t": 434097.0111250154,
      "d": 45.91837500000838,
      "v": 33
    },
    {
      "midi": 62,
      "hit": false,
      "t": 434239.86829168204,
      "d": 35.71429166669259,
      "v": 35
    },
    {
      "midi": 60,
      "hit": false,
      "t": 434306.19483334874,
      "d": 30.612250000005588,
      "v": 34
    },
    {
      "midi": 59,
      "hit": false,
      "t": 434372.52137501544,
      "d": 30.612250000005588,
      "v": 34
    },
    {
      "midi": 76,
      "hit": false,
      "t": 435000.07250001543,
      "d": 178.57145833340473,
      "v": 79
    },
    {
      "midi": 65,
      "hit": false,
      "t": 435005.1745416821,
      "d": 158.16329166671494,
      "v": 80
    },
    {
      "midi": 69,
      "hit": false,
      "t": 435010.2765833488,
      "d": 137.75512500002515,
      "v": 69
    },
    {
      "midi": 71,
      "hit": false,
      "t": 435010.2765833488,
      "d": 168.36737500003073,
      "v": 59
    },
    {
      "midi": 64,
      "hit": false,
      "t": 435010.2765833488,
      "d": 193.87758333334932,
      "v": 70
    },
    {
      "midi": 62,
      "hit": false,
      "t": 435219.46029168216,
      "d": 96.93879166664556,
      "v": 49
    },
    {
      "midi": 65,
      "hit": false,
      "t": 435336.8072500155,
      "d": 209.18370833335212,
      "v": 70
    },
    {
      "midi": 76,
      "hit": false,
      "t": 435336.8072500155,
      "d": 239.7959583333577,
      "v": 71
    },
    {
      "midi": 69,
      "hit": false,
      "t": 435347.0113333488,
      "d": 163.26533333334373,
      "v": 64
    },
    {
      "midi": 71,
      "hit": false,
      "t": 435347.0113333488,
      "d": 250.0000416667317,
      "v": 58
    },
    {
      "midi": 64,
      "hit": false,
      "t": 435352.1133750155,
      "d": 301.0204583334271,
      "v": 50
    },
    {
      "midi": 65,
      "hit": false,
      "t": 435632.72566668224,
      "d": 127.55104166670935,
      "v": 64
    },
    {
      "midi": 74,
      "hit": false,
      "t": 435653.1338333489,
      "d": 137.75512500002515,
      "v": 52
    },
    {
      "midi": 62,
      "hit": false,
      "t": 435658.2358750156,
      "d": 295.9184166667401,
      "v": 41
    },
    {
      "midi": 76,
      "hit": false,
      "t": 435841.90937501565,
      "d": 137.75512500002515,
      "v": 72
    },
    {
      "midi": 65,
      "hit": false,
      "t": 435847.01141668233,
      "d": 285.7143333333079,
      "v": 68
    },
    {
      "midi": 68,
      "hit": false,
      "t": 435857.21550001565,
      "d": 158.16329166665673,
      "v": 51
    },
    {
      "midi": 70,
      "hit": false,
      "t": 435872.52162501565,
      "d": 132.65308333333815,
      "v": 21
    },
    {
      "midi": 56,
      "hit": false,
      "t": 435872.52162501565,
      "d": 147.95920833334094,
      "v": 47
    },
    {
      "midi": 71,
      "hit": false,
      "t": 435887.82775001565,
      "d": 35.71429166669259,
      "v": 32
    },
    {
      "midi": 64,
      "hit": false,
      "t": 436132.72575001564,
      "d": 61.224500000011176,
      "v": 24
    },
    {
      "midi": 62,
      "hit": false,
      "t": 436204.15433334897,
      "d": 71.42858333332697,
      "v": 31
    },
    {
      "midi": 60,
      "hit": false,
      "t": 436285.7870000156,
      "d": 66.32654166663997,
      "v": 35
    },
    {
      "midi": 59,
      "hit": false,
      "t": 436387.82783334894,
      "d": 45.91837500000838,
      "v": 30
    },
    {
      "midi": 57,
      "hit": false,
      "t": 436469.46050001564,
      "d": 45.91837500000838,
      "v": 35
    },
    {
      "midi": 55,
      "hit": false,
      "t": 436556.195208349,
      "d": 56.122458333324175,
      "v": 32
    },
    {
      "midi": 53,
      "hit": false,
      "t": 436627.6237916823,
      "d": 61.224500000011176,
      "v": 35
    },
    {
      "midi": 52,
      "hit": false,
      "t": 436714.35850001563,
      "d": 40.81633333332138,
      "v": 34
    },
    {
      "midi": 50,
      "hit": false,
      "t": 436790.88912501564,
      "d": 30.612250000005588,
      "v": 47
    },
    {
      "midi": 48,
      "hit": false,
      "t": 436836.80750001565,
      "d": 30.612250000005588,
      "v": 60
    },
    {
      "midi": 34,
      "hit": false,
      "t": 436857.21566668234,
      "d": 326.53066666662926,
      "v": 50
    },
    {
      "midi": 47,
      "hit": false,
      "t": 436877.623833349,
      "d": 30.612250000005588,
      "v": 49
    },
    {
      "midi": 22,
      "hit": false,
      "t": 436877.623833349,
      "d": 280.6122916666791,
      "v": 55
    },
    {
      "midi": 64,
      "hit": false,
      "t": 437806.1954166823,
      "d": 71.42858333332697,
      "v": 51
    },
    {
      "midi": 68,
      "hit": false,
      "t": 437964.35870834894,
      "d": 81.63266666664276,
      "v": 54
    },
    {
      "midi": 71,
      "hit": false,
      "t": 438081.7056666823,
      "d": 137.75512500002515,
      "v": 78
    },
    {
      "midi": 74,
      "hit": false,
      "t": 438265.3791666823,
      "d": 96.93879166670376,
      "v": 89
    },
    {
      "midi": 64,
      "hit": false,
      "t": 438285.787333349,
      "d": 30.612250000063796,
      "v": 65
    },
    {
      "midi": 60,
      "hit": false,
      "t": 438290.8893750157,
      "d": 61.224500000011176,
      "v": 61
    },
    {
      "midi": 73,
      "hit": false,
      "t": 438295.9914166824,
      "d": 30.612250000005588,
      "v": 30
    },
    {
      "midi": 59,
      "hit": false,
      "t": 438301.09345834906,
      "d": 35.71429166663438,
      "v": 45
    },
    {
      "midi": 71,
      "hit": false,
      "t": 438408.236333349,
      "d": 107.14287500001956,
      "v": 69
    },
    {
      "midi": 72,
      "hit": false,
      "t": 438571.50166668236,
      "d": 117.34695833333535,
      "v": 54
    },
    {
      "midi": 76,
      "hit": false,
      "t": 438724.5629166824,
      "d": 117.34695833333535,
      "v": 33
    },
    {
      "midi": 79,
      "hit": false,
      "t": 438872.52212501573,
      "d": 61.224500000011176,
      "v": 54
    },
    {
      "midi": 64,
      "hit": false,
      "t": 438923.54254168243,
      "d": 30.612250000005588,
      "v": 24
    },
    {
      "midi": 60,
      "hit": false,
      "t": 438933.74662501574,
      "d": 51.02041666669538,
      "v": 33
    },
    {
      "midi": 83,
      "hit": false,
      "t": 439020.48133334913,
      "d": 112.24491666664835,
      "v": 35
    },
    {
      "midi": 86,
      "hit": false,
      "t": 439168.4405416825,
      "d": 61.224500000011176,
      "v": 78
    },
    {
      "midi": 74,
      "hit": false,
      "t": 439168.4405416825,
      "d": 280.6122916666791,
      "v": 66
    },
    {
      "midi": 86,
      "hit": false,
      "t": 439275.5834166825,
      "d": 173.46941666665953,
      "v": 60
    },
    {
      "midi": 55,
      "hit": false,
      "t": 439530.6855000158,
      "d": 91.83675000001676,
      "v": 39
    },
    {
      "midi": 60,
      "hit": false,
      "t": 439571.5018333491,
      "d": 107.14287500001956,
      "v": 20
    },
    {
      "midi": 86,
      "hit": false,
      "t": 439581.70591668243,
      "d": 117.34695833339356,
      "v": 57
    },
    {
      "midi": 74,
      "hit": false,
      "t": 439602.1140833491,
      "d": 91.83675000001676,
      "v": 30
    },
    {
      "midi": 84,
      "hit": false,
      "t": 439949.0529166825,
      "d": 45.91837500000838,
      "v": 27
    },
    {
      "midi": 86,
      "hit": false,
      "t": 439959.2570000158,
      "d": 30.612250000005588,
      "v": 22
    },
    {
      "midi": 55,
      "hit": false,
      "t": 440193.9509166825,
      "d": 91.83674999995856,
      "v": 35
    },
    {
      "midi": 60,
      "hit": false,
      "t": 440204.1550000158,
      "d": 81.63266666664276,
      "v": 45
    },
    {
      "midi": 64,
      "hit": false,
      "t": 440209.2570416825,
      "d": 66.32654166663997,
      "v": 20
    },
    {
      "midi": 64,
      "hit": false,
      "t": 440658.2367083491,
      "d": 86.73470833332976,
      "v": 41
    },
    {
      "midi": 60,
      "hit": false,
      "t": 440668.4407916824,
      "d": 56.122458333324175,
      "v": 42
    },
    {
      "midi": 57,
      "hit": false,
      "t": 440673.5428333491,
      "d": 86.73470833332976,
      "v": 40
    },
    {
      "midi": 53,
      "hit": false,
      "t": 440683.7469166824,
      "d": 81.63266666670097,
      "v": 20
    },
    {
      "midi": 64,
      "hit": false,
      "t": 441117.4204583491,
      "d": 71.42858333338518,
      "v": 46
    },
    {
      "midi": 53,
      "hit": false,
      "t": 441132.7265833491,
      "d": 81.63266666670097,
      "v": 20
    },
    {
      "midi": 60,
      "hit": false,
      "t": 441137.8286250158,
      "d": 45.91837500000838,
      "v": 41
    },
    {
      "midi": 57,
      "hit": false,
      "t": 441137.8286250158,
      "d": 122.44900000002235,
      "v": 42
    },
    {
      "midi": 72,
      "hit": false,
      "t": 441449.0531666825,
      "d": 56.12245833338238,
      "v": 91
    },
    {
      "midi": 84,
      "hit": false,
      "t": 441449.0531666825,
      "d": 102.04083333339076,
      "v": 89
    },
    {
      "midi": 79,
      "hit": false,
      "t": 441454.15520834917,
      "d": 71.42858333338518,
      "v": 78
    },
    {
      "midi": 81,
      "hit": false,
      "t": 441474.56337501586,
      "d": 45.91837500000838,
      "v": 36
    },
    {
      "midi": 84,
      "hit": false,
      "t": 441617.4205416825,
      "d": 112.24491666670656,
      "v": 70
    },
    {
      "midi": 72,
      "hit": false,
      "t": 441632.7266666825,
      "d": 86.73470833338797,
      "v": 52
    },
    {
      "midi": 79,
      "hit": false,
      "t": 441637.8287083492,
      "d": 81.63266666670097,
      "v": 41
    },
    {
      "midi": 64,
      "hit": false,
      "t": 441648.0327916825,
      "d": 35.71429166669259,
      "v": 36
    },
    {
      "midi": 81,
      "hit": false,
      "t": 441648.0327916825,
      "d": 81.63266666670097,
      "v": 40
    },
    {
      "midi": 57,
      "hit": false,
      "t": 441683.7470833492,
      "d": 66.32654166669818,
      "v": 28
    },
    {
      "midi": 84,
      "hit": false,
      "t": 441877.62466668256,
      "d": 76.53062500001397,
      "v": 74
    },
    {
      "midi": 72,
      "hit": false,
      "t": 441882.72670834925,
      "d": 76.53062500001397,
      "v": 60
    },
    {
      "midi": 79,
      "hit": false,
      "t": 441887.82875001593,
      "d": 71.42858333332697,
      "v": 51
    },
    {
      "midi": 81,
      "hit": false,
      "t": 441887.82875001593,
      "d": 86.73470833332976,
      "v": 50
    },
    {
      "midi": 62,
      "hit": false,
      "t": 441979.66550001595,
      "d": 35.71429166669259,
      "v": 48
    },
    {
      "midi": 84,
      "hit": false,
      "t": 442040.89000001596,
      "d": 102.04083333333256,
      "v": 71
    },
    {
      "midi": 79,
      "hit": false,
      "t": 442051.0940833493,
      "d": 96.93879166670376,
      "v": 49
    },
    {
      "midi": 72,
      "hit": false,
      "t": 442051.0940833493,
      "d": 132.65308333339635,
      "v": 57
    },
    {
      "midi": 57,
      "hit": false,
      "t": 442056.19612501597,
      "d": 56.122458333324175,
      "v": 28
    },
    {
      "midi": 81,
      "hit": false,
      "t": 442071.50225001597,
      "d": 56.122458333324175,
      "v": 29
    },
    {
      "midi": 83,
      "hit": false,
      "t": 442097.0124583493,
      "d": 56.12245833338238,
      "v": 29
    },
    {
      "midi": 57,
      "hit": false,
      "t": 442265.3798333493,
      "d": 40.81633333332138,
      "v": 24
    },
    {
      "midi": 81,
      "hit": false,
      "t": 442331.70637501596,
      "d": 102.04083333333256,
      "v": 38
    },
    {
      "midi": 79,
      "hit": false,
      "t": 442336.80841668264,
      "d": 81.63266666664276,
      "v": 33
    },
    {
      "midi": 81,
      "hit": false,
      "t": 442520.4819166826,
      "d": 142.85716666671215,
      "v": 59
    },
    {
      "midi": 77,
      "hit": false,
      "t": 442520.4819166826,
      "d": 153.06125000002794,
      "v": 48
    },
    {
      "midi": 69,
      "hit": false,
      "t": 442525.5839583493,
      "d": 122.44900000002235,
      "v": 64
    },
    {
      "midi": 74,
      "hit": false,
      "t": 442525.5839583493,
      "d": 127.55104166670935,
      "v": 58
    },
    {
      "midi": 69,
      "hit": false,
      "t": 442821.502375016,
      "d": 71.42858333338518,
      "v": 74
    },
    {
      "midi": 81,
      "hit": false,
      "t": 442821.502375016,
      "d": 86.73470833338797,
      "v": 63
    },
    {
      "midi": 74,
      "hit": false,
      "t": 442821.502375016,
      "d": 91.83675000007497,
      "v": 72
    },
    {
      "midi": 77,
      "hit": false,
      "t": 442821.502375016,
      "d": 122.44900000008056,
      "v": 68
    },
    {
      "midi": 62,
      "hit": false,
      "t": 442841.9105416827,
      "d": 30.612250000005588,
      "v": 51
    },
    {
      "midi": 53,
      "hit": false,
      "t": 442847.01258334937,
      "d": 102.04083333339076,
      "v": 41
    },
    {
      "midi": 60,
      "hit": false,
      "t": 442852.11462501605,
      "d": 40.81633333332138,
      "v": 45
    },
    {
      "midi": 57,
      "hit": false,
      "t": 442862.31870834937,
      "d": 45.91837500000838,
      "v": 49
    },
    {
      "midi": 81,
      "hit": false,
      "t": 442979.66566668276,
      "d": 127.55104166670935,
      "v": 68
    },
    {
      "midi": 74,
      "hit": false,
      "t": 442984.76770834945,
      "d": 137.75512500002515,
      "v": 62
    },
    {
      "midi": 77,
      "hit": false,
      "t": 442989.86975001614,
      "d": 153.06125000002794,
      "v": 49
    },
    {
      "midi": 69,
      "hit": false,
      "t": 443000.07383334945,
      "d": 163.26533333340194,
      "v": 70
    },
    {
      "midi": 79,
      "hit": false,
      "t": 443030.68608334946,
      "d": 91.83675000001676,
      "v": 26
    },
    {
      "midi": 53,
      "hit": false,
      "t": 443173.54325001617,
      "d": 96.93879166676197,
      "v": 48
    },
    {
      "midi": 57,
      "hit": false,
      "t": 443178.64529168286,
      "d": 40.81633333337959,
      "v": 38
    },
    {
      "midi": 50,
      "hit": false,
      "t": 443183.74733334954,
      "d": 40.81633333337959,
      "v": 19
    },
    {
      "midi": 77,
      "hit": false,
      "t": 443260.2779583496,
      "d": 127.55104166670935,
      "v": 66
    },
    {
      "midi": 65,
      "hit": false,
      "t": 443270.48204168293,
      "d": 102.04083333339076,
      "v": 68
    },
    {
      "midi": 74,
      "hit": false,
      "t": 443290.8902083496,
      "d": 51.02041666669538,
      "v": 29
    },
    {
      "midi": 77,
      "hit": false,
      "t": 443454.15554168297,
      "d": 142.85716666665394,
      "v": 73
    },
    {
      "midi": 65,
      "hit": false,
      "t": 443464.3596250163,
      "d": 107.14287500001956,
      "v": 62
    },
    {
      "midi": 76,
      "hit": false,
      "t": 443714.35966668295,
      "d": 137.75512500002515,
      "v": 73
    },
    {
      "midi": 60,
      "hit": false,
      "t": 443739.8698750163,
      "d": 71.42858333338518,
      "v": 64
    },
    {
      "midi": 65,
      "hit": false,
      "t": 443739.8698750163,
      "d": 91.83675000001676,
      "v": 60
    },
    {
      "midi": 69,
      "hit": false,
      "t": 443744.97191668296,
      "d": 76.53062500001397,
      "v": 56
    },
    {
      "midi": 57,
      "hit": false,
      "t": 443744.97191668296,
      "d": 102.04083333333256,
      "v": 49
    },
    {
      "midi": 72,
      "hit": false,
      "t": 443744.97191668296,
      "d": 102.04083333333256,
      "v": 42
    },
    {
      "midi": 50,
      "hit": false,
      "t": 443750.07395834965,
      "d": 86.73470833332976,
      "v": 22
    },
    {
      "midi": 53,
      "hit": false,
      "t": 443765.38008334965,
      "d": 142.85716666665394,
      "v": 33
    },
    {
      "midi": 76,
      "hit": false,
      "t": 443892.9311250163,
      "d": 214.28575000009732,
      "v": 37
    },
    {
      "midi": 65,
      "hit": false,
      "t": 443908.2372500163,
      "d": 163.26533333340194,
      "v": 42
    },
    {
      "midi": 72,
      "hit": false,
      "t": 443913.339291683,
      "d": 178.57145833340473,
      "v": 42
    },
    {
      "midi": 69,
      "hit": false,
      "t": 443918.4413333497,
      "d": 132.65308333333815,
      "v": 52
    },
    {
      "midi": 57,
      "hit": false,
      "t": 444066.400541683,
      "d": 66.32654166669818,
      "v": 34
    },
    {
      "midi": 53,
      "hit": false,
      "t": 444086.8087083497,
      "d": 96.93879166670376,
      "v": 20
    },
    {
      "midi": 65,
      "hit": false,
      "t": 444168.4413750164,
      "d": 96.93879166664556,
      "v": 51
    },
    {
      "midi": 74,
      "hit": false,
      "t": 444168.4413750164,
      "d": 122.44899999996414,
      "v": 62
    },
    {
      "midi": 69,
      "hit": false,
      "t": 444178.6454583497,
      "d": 96.93879166664556,
      "v": 58
    },
    {
      "midi": 74,
      "hit": false,
      "t": 444357.216916683,
      "d": 183.67349999997532,
      "v": 61
    },
    {
      "midi": 65,
      "hit": false,
      "t": 444367.42100001633,
      "d": 86.73470833332976,
      "v": 47
    },
    {
      "midi": 60,
      "hit": false,
      "t": 444372.523041683,
      "d": 30.61224999994738,
      "v": 49
    },
    {
      "midi": 69,
      "hit": false,
      "t": 444372.523041683,
      "d": 76.53062499995576,
      "v": 54
    },
    {
      "midi": 57,
      "hit": false,
      "t": 444382.72712501633,
      "d": 45.918374999950174,
      "v": 40
    },
    {
      "midi": 53,
      "hit": false,
      "t": 444392.93120834965,
      "d": 86.73470833332976,
      "v": 33
    },
    {
      "midi": 72,
      "hit": false,
      "t": 444642.9312500163,
      "d": 102.04083333339076,
      "v": 49
    },
    {
      "midi": 65,
      "hit": false,
      "t": 444653.13533334964,
      "d": 56.12245833338238,
      "v": 44
    },
    {
      "midi": 69,
      "hit": false,
      "t": 444653.13533334964,
      "d": 61.22450000006938,
      "v": 53
    },
    {
      "midi": 60,
      "hit": false,
      "t": 444673.5435000163,
      "d": 40.81633333337959,
      "v": 48
    },
    {
      "midi": 57,
      "hit": false,
      "t": 444693.951666683,
      "d": 71.42858333338518,
      "v": 37
    },
    {
      "midi": 53,
      "hit": false,
      "t": 444704.15575001633,
      "d": 112.24491666676477,
      "v": 26
    },
    {
      "midi": 65,
      "hit": false,
      "t": 444801.0945416831,
      "d": 147.95920833334094,
      "v": 35
    },
    {
      "midi": 72,
      "hit": false,
      "t": 444806.1965833498,
      "d": 153.06124999996973,
      "v": 52
    },
    {
      "midi": 69,
      "hit": false,
      "t": 444816.4006666831,
      "d": 122.44900000002235,
      "v": 48
    },
    {
      "midi": 72,
      "hit": false,
      "t": 445112.3190833498,
      "d": 183.67350000009174,
      "v": 51
    },
    {
      "midi": 69,
      "hit": false,
      "t": 445117.42112501647,
      "d": 127.55104166670935,
      "v": 58
    },
    {
      "midi": 65,
      "hit": false,
      "t": 445122.52316668315,
      "d": 91.83675000001676,
      "v": 56
    },
    {
      "midi": 60,
      "hit": false,
      "t": 445382.7272916832,
      "d": 40.81633333332138,
      "v": 44
    },
    {
      "midi": 57,
      "hit": false,
      "t": 445398.0334166832,
      "d": 45.91837500000838,
      "v": 33
    },
    {
      "midi": 53,
      "hit": false,
      "t": 445413.3395416832,
      "d": 45.91837500000838,
      "v": 24
    },
    {
      "midi": 59,
      "hit": false,
      "t": 445709.2579583499,
      "d": 260.2041250001057,
      "v": 75
    },
    {
      "midi": 74,
      "hit": false,
      "t": 445719.4620416832,
      "d": 112.24491666676477,
      "v": 73
    },
    {
      "midi": 71,
      "hit": false,
      "t": 445724.5640833499,
      "d": 71.42858333338518,
      "v": 71
    },
    {
      "midi": 68,
      "hit": false,
      "t": 445724.5640833499,
      "d": 107.14287500007777,
      "v": 71
    },
    {
      "midi": 65,
      "hit": false,
      "t": 445724.5640833499,
      "d": 127.55104166676756,
      "v": 81
    },
    {
      "midi": 72,
      "hit": false,
      "t": 445739.8702083499,
      "d": 35.71429166669259,
      "v": 55
    },
    {
      "midi": 71,
      "hit": false,
      "t": 446025.5845416833,
      "d": 86.73470833332976,
      "v": 49
    },
    {
      "midi": 65,
      "hit": false,
      "t": 446035.78862501663,
      "d": 45.91837500000838,
      "v": 54
    },
    {
      "midi": 68,
      "hit": false,
      "t": 446035.78862501663,
      "d": 61.224500000011176,
      "v": 38
    },
    {
      "midi": 56,
      "hit": false,
      "t": 446035.78862501663,
      "d": 219.38779166672612,
      "v": 42
    },
    {
      "midi": 62,
      "hit": false,
      "t": 446040.8906666833,
      "d": 107.14287500001956,
      "v": 53
    },
    {
      "midi": 53,
      "hit": false,
      "t": 446347.0131666834,
      "d": 275.5102499999921,
      "v": 47
    },
    {
      "midi": 68,
      "hit": false,
      "t": 446352.11520835006,
      "d": 137.75512500002515,
      "v": 43
    },
    {
      "midi": 65,
      "hit": false,
      "t": 446357.21725001675,
      "d": 91.83675000001676,
      "v": 39
    },
    {
      "midi": 62,
      "hit": false,
      "t": 446362.31929168344,
      "d": 86.73470833332976,
      "v": 47
    },
    {
      "midi": 59,
      "hit": false,
      "t": 446372.52337501675,
      "d": 183.67349999997532,
      "v": 44
    },
    {
      "midi": 50,
      "hit": false,
      "t": 446632.7275000167,
      "d": 316.32658333331347,
      "v": 46
    },
    {
      "midi": 56,
      "hit": false,
      "t": 446933.74795835,
      "d": 306.1224999999977,
      "v": 30
    },
    {
      "midi": 62,
      "hit": false,
      "t": 446933.74795835,
      "d": 316.32658333331347,
      "v": 50
    },
    {
      "midi": 47,
      "hit": false,
      "t": 446933.74795835,
      "d": 581.6327499999315,
      "v": 31
    },
    {
      "midi": 59,
      "hit": false,
      "t": 446938.8500000167,
      "d": 295.91841666662367,
      "v": 53
    },
    {
      "midi": 50,
      "hit": false,
      "t": 447433.7480416833,
      "d": 66.32654166663997,
      "v": 37
    },
    {
      "midi": 53,
      "hit": false,
      "t": 447530.68683334993,
      "d": 209.18370833335212,
      "v": 53
    },
    {
      "midi": 56,
      "hit": false,
      "t": 447709.2582916833,
      "d": 306.1224999999977,
      "v": 64
    },
    {
      "midi": 64,
      "hit": false,
      "t": 447719.4623750166,
      "d": 61.224500000011176,
      "v": 58
    },
    {
      "midi": 59,
      "hit": false,
      "t": 447923.54404168326,
      "d": 142.85716666671215,
      "v": 14
    },
    {
      "midi": 64,
      "hit": false,
      "t": 448148.0338750166,
      "d": 173.46941666671773,
      "v": 50
    },
    {
      "midi": 62,
      "hit": false,
      "t": 448153.1359166833,
      "d": 153.06125000002794,
      "v": 37
    },
    {
      "midi": 76,
      "hit": false,
      "t": 448168.4420416833,
      "d": 127.55104166665114,
      "v": 63
    },
    {
      "midi": 68,
      "hit": false,
      "t": 448168.4420416833,
      "d": 132.65308333333815,
      "v": 53
    },
    {
      "midi": 71,
      "hit": false,
      "t": 448173.54408335,
      "d": 209.18370833335212,
      "v": 29
    },
    {
      "midi": 65,
      "hit": false,
      "t": 448183.7481666833,
      "d": 112.24491666664835,
      "v": 71
    },
    {
      "midi": 63,
      "hit": false,
      "t": 448413.34004168335,
      "d": 265.3061666667927,
      "v": 25
    },
    {
      "midi": 75,
      "hit": false,
      "t": 448449.05433335004,
      "d": 153.06125000002794,
      "v": 49
    },
    {
      "midi": 71,
      "hit": false,
      "t": 448464.36045835004,
      "d": 163.26533333340194,
      "v": 58
    },
    {
      "midi": 68,
      "hit": false,
      "t": 448469.4625000167,
      "d": 137.75512500002515,
      "v": 45
    },
    {
      "midi": 65,
      "hit": false,
      "t": 448479.66658335004,
      "d": 91.83675000001676,
      "v": 51
    },
    {
      "midi": 62,
      "hit": false,
      "t": 448760.2788750168,
      "d": 178.57145833340473,
      "v": 42
    },
    {
      "midi": 68,
      "hit": false,
      "t": 448775.5850000168,
      "d": 168.36737500008894,
      "v": 49
    },
    {
      "midi": 74,
      "hit": false,
      "t": 448780.6870416835,
      "d": 81.63266666670097,
      "v": 39
    },
    {
      "midi": 65,
      "hit": false,
      "t": 448785.78908335016,
      "d": 81.63266666670097,
      "v": 53
    },
    {
      "midi": 71,
      "hit": false,
      "t": 448790.89112501685,
      "d": 158.16329166671494,
      "v": 37
    },
    {
      "midi": 59,
      "hit": false,
      "t": 448974.5646250169,
      "d": 290.8163749999949,
      "v": 47
    },
    {
      "midi": 74,
      "hit": false,
      "t": 449285.78916668356,
      "d": 107.14287500001956,
      "v": 66
    },
    {
      "midi": 64,
      "hit": false,
      "t": 449290.89120835025,
      "d": 56.122458333324175,
      "v": 53
    },
    {
      "midi": 67,
      "hit": false,
      "t": 449306.19733335025,
      "d": 40.81633333332138,
      "v": 40
    },
    {
      "midi": 60,
      "hit": false,
      "t": 449306.19733335025,
      "d": 66.32654166663997,
      "v": 61
    },
    {
      "midi": 72,
      "hit": false,
      "t": 449561.29941668356,
      "d": 102.04083333339076,
      "v": 62
    },
    {
      "midi": 64,
      "hit": false,
      "t": 449571.5035000169,
      "d": 71.42858333338518,
      "v": 58
    },
    {
      "midi": 67,
      "hit": false,
      "t": 449586.8096250169,
      "d": 40.81633333337959,
      "v": 36
    },
    {
      "midi": 60,
      "hit": false,
      "t": 449591.91166668356,
      "d": 45.91837500000838,
      "v": 60
    },
    {
      "midi": 59,
      "hit": false,
      "t": 449943.9525416836,
      "d": 51.020416666637175,
      "v": 36
    },
    {
      "midi": 64,
      "hit": false,
      "t": 449974.56479168363,
      "d": 76.53062499995576,
      "v": 57
    },
    {
      "midi": 67,
      "hit": false,
      "t": 449984.76887501695,
      "d": 86.73470833332976,
      "v": 58
    },
    {
      "midi": 60,
      "hit": false,
      "t": 450005.1770416836,
      "d": 81.63266666670097,
      "v": 62
    },
    {
      "midi": 84,
      "hit": false,
      "t": 450449.0546666836,
      "d": 127.55104166665114,
      "v": 80
    },
    {
      "midi": 76,
      "hit": false,
      "t": 450449.0546666836,
      "d": 142.85716666665394,
      "v": 79
    },
    {
      "midi": 73,
      "hit": false,
      "t": 450459.2587500169,
      "d": 86.73470833332976,
      "v": 52
    },
    {
      "midi": 72,
      "hit": false,
      "t": 450464.3607916836,
      "d": 81.63266666664276,
      "v": 71
    },
    {
      "midi": 79,
      "hit": false,
      "t": 450474.5648750169,
      "d": 107.14287500001956,
      "v": 41
    },
    {
      "midi": 76,
      "hit": false,
      "t": 450709.2587916836,
      "d": 102.04083333333256,
      "v": 73
    },
    {
      "midi": 84,
      "hit": false,
      "t": 450714.3608333503,
      "d": 56.122458333324175,
      "v": 69
    },
    {
      "midi": 72,
      "hit": false,
      "t": 450719.46287501696,
      "d": 91.83674999995856,
      "v": 73
    },
    {
      "midi": 73,
      "hit": false,
      "t": 450729.6669583503,
      "d": 102.04083333333256,
      "v": 47
    },
    {
      "midi": 82,
      "hit": false,
      "t": 450739.8710416836,
      "d": 76.53062500001397,
      "v": 26
    },
    {
      "midi": 71,
      "hit": false,
      "t": 450872.52412501693,
      "d": 45.91837500000838,
      "v": 26
    },
    {
      "midi": 70,
      "hit": false,
      "t": 450908.2384166836,
      "d": 91.83674999995856,
      "v": 56
    },
    {
      "midi": 69,
      "hit": false,
      "t": 451035.7894583503,
      "d": 117.34695833339356,
      "v": 58
    },
    {
      "midi": 73,
      "hit": false,
      "t": 451071.503750017,
      "d": 102.04083333339076,
      "v": 56
    },
    {
      "midi": 81,
      "hit": false,
      "t": 451071.503750017,
      "d": 102.04083333339076,
      "v": 64
    },
    {
      "midi": 76,
      "hit": false,
      "t": 451091.91191668366,
      "d": 66.32654166669818,
      "v": 46
    },
    {
      "midi": 81,
      "hit": false,
      "t": 451239.871125017,
      "d": 96.93879166670376,
      "v": 58
    },
    {
      "midi": 73,
      "hit": false,
      "t": 451239.871125017,
      "d": 117.34695833339356,
      "v": 45
    },
    {
      "midi": 69,
      "hit": false,
      "t": 451250.0752083503,
      "d": 71.42858333338518,
      "v": 70
    },
    {
      "midi": 76,
      "hit": false,
      "t": 451265.3813333503,
      "d": 56.12245833338238,
      "v": 34
    },
    {
      "midi": 68,
      "hit": false,
      "t": 451285.789500017,
      "d": 71.42858333338518,
      "v": 37
    },
    {
      "midi": 67,
      "hit": false,
      "t": 451372.5242083504,
      "d": 81.63266666664276,
      "v": 60
    },
    {
      "midi": 78,
      "hit": false,
      "t": 451464.36095835036,
      "d": 107.14287500007777,
      "v": 48
    },
    {
      "midi": 70,
      "hit": false,
      "t": 451469.46300001704,
      "d": 76.53062500001397,
      "v": 62
    },
    {
      "midi": 73,
      "hit": false,
      "t": 451479.66708335036,
      "d": 86.73470833338797,
      "v": 33
    },
    {
      "midi": 66,
      "hit": false,
      "t": 451484.76912501705,
      "d": 56.122458333324175,
      "v": 50
    },
    {
      "midi": 67,
      "hit": false,
      "t": 451489.87116668373,
      "d": 40.81633333332138,
      "v": 37
    },
    {
      "midi": 66,
      "hit": false,
      "t": 451607.2181250171,
      "d": 142.85716666665394,
      "v": 71
    },
    {
      "midi": 78,
      "hit": false,
      "t": 451612.3201666838,
      "d": 158.16329166659852,
      "v": 71
    },
    {
      "midi": 70,
      "hit": false,
      "t": 451617.4222083505,
      "d": 122.44899999996414,
      "v": 55
    },
    {
      "midi": 73,
      "hit": false,
      "t": 451617.4222083505,
      "d": 142.85716666659573,
      "v": 43
    },
    {
      "midi": 67,
      "hit": false,
      "t": 451627.6262916838,
      "d": 102.04083333333256,
      "v": 50
    },
    {
      "midi": 75,
      "hit": false,
      "t": 452311.2998750171,
      "d": 96.93879166670376,
      "v": 74
    },
    {
      "midi": 70,
      "hit": false,
      "t": 452316.40191668377,
      "d": 91.83675000001676,
      "v": 68
    },
    {
      "midi": 67,
      "hit": false,
      "t": 452321.50395835045,
      "d": 61.224500000011176,
      "v": 73
    },
    {
      "midi": 63,
      "hit": false,
      "t": 452321.50395835045,
      "d": 117.34695833333535,
      "v": 71
    },
    {
      "midi": 64,
      "hit": false,
      "t": 452326.60600001714,
      "d": 45.91837500000838,
      "v": 63
    },
    {
      "midi": 60,
      "hit": false,
      "t": 452494.9733750171,
      "d": 76.53062500001397,
      "v": 33
    },
    {
      "midi": 58,
      "hit": false,
      "t": 452642.93258335046,
      "d": 147.95920833339915,
      "v": 50
    },
    {
      "midi": 67,
      "hit": false,
      "t": 452663.34075001715,
      "d": 102.04083333339076,
      "v": 50
    },
    {
      "midi": 72,
      "hit": false,
      "t": 452668.44279168383,
      "d": 30.612250000005588,
      "v": 25
    },
    {
      "midi": 64,
      "hit": false,
      "t": 452673.5448333505,
      "d": 56.122458333324175,
      "v": 44
    },
    {
      "midi": 61,
      "hit": false,
      "t": 452719.4632083505,
      "d": 168.36737499997253,
      "v": 36
    },
    {
      "midi": 72,
      "hit": false,
      "t": 453056.1979583505,
      "d": 275.5102499999921,
      "v": 64
    },
    {
      "midi": 67,
      "hit": false,
      "t": 453066.4020416838,
      "d": 280.6122916666791,
      "v": 68
    },
    {
      "midi": 57,
      "hit": false,
      "t": 453066.4020416838,
      "d": 454.0817083333968,
      "v": 55
    },
    {
      "midi": 62,
      "hit": false,
      "t": 453076.6061250171,
      "d": 40.81633333337959,
      "v": 51
    },
    {
      "midi": 64,
      "hit": false,
      "t": 453081.7081666838,
      "d": 35.71429166669259,
      "v": 50
    },
    {
      "midi": 62,
      "hit": false,
      "t": 453229.66737501713,
      "d": 168.36737500003073,
      "v": 7
    },
    {
      "midi": 52,
      "hit": false,
      "t": 453653.1368333505,
      "d": 183.67350000003353,
      "v": 33
    },
    {
      "midi": 64,
      "hit": false,
      "t": 453663.34091668384,
      "d": 112.24491666670656,
      "v": 19
    },
    {
      "midi": 57,
      "hit": false,
      "t": 453683.7490833505,
      "d": 86.73470833332976,
      "v": 14
    },
    {
      "midi": 67,
      "hit": false,
      "t": 453831.70829168387,
      "d": 107.14287500001956,
      "v": 74
    },
    {
      "midi": 57,
      "hit": false,
      "t": 453847.0144166839,
      "d": 61.224500000011176,
      "v": 48
    },
    {
      "midi": 60,
      "hit": false,
      "t": 453852.11645835056,
      "d": 56.122458333324175,
      "v": 28
    },
    {
      "midi": 55,
      "hit": false,
      "t": 453862.3205416839,
      "d": 86.73470833332976,
      "v": 60
    },
    {
      "midi": 53,
      "hit": false,
      "t": 453994.9736250172,
      "d": 153.06125000002794,
      "v": 40
    },
    {
      "midi": 52,
      "hit": false,
      "t": 454280.6879583506,
      "d": 326.53066666668747,
      "v": 40
    },
    {
      "midi": 55,
      "hit": false,
      "t": 454285.79000001727,
      "d": 209.1837083332939,
      "v": 51
    },
    {
      "midi": 60,
      "hit": false,
      "t": 454295.9940833506,
      "d": 198.9796249999781,
      "v": 51
    },
    {
      "midi": 57,
      "hit": false,
      "t": 454295.9940833506,
      "d": 229.5918749999837,
      "v": 47
    },
    {
      "midi": 64,
      "hit": false,
      "t": 454295.9940833506,
      "d": 275.5102499999921,
      "v": 30
    },
    {
      "midi": 60,
      "hit": false,
      "t": 454586.8104583506,
      "d": 336.73475000006147,
      "v": 56
    },
    {
      "midi": 48,
      "hit": false,
      "t": 454602.1165833506,
      "d": 433.673541666707,
      "v": 45
    },
    {
      "midi": 55,
      "hit": false,
      "t": 454607.21862501727,
      "d": 209.18370833335212,
      "v": 53
    },
    {
      "midi": 57,
      "hit": false,
      "t": 454607.21862501727,
      "d": 280.6122916666791,
      "v": 48
    },
    {
      "midi": 41,
      "hit": false,
      "t": 455051.0962500173,
      "d": 76.53062500001397,
      "v": 62
    },
    {
      "midi": 72,
      "hit": false,
      "t": 455500.07591668394,
      "d": 357.14291666669305,
      "v": 99
    },
    {
      "midi": 76,
      "hit": false,
      "t": 455500.07591668394,
      "d": 867.347083333414,
      "v": 90
    },
    {
      "midi": 67,
      "hit": false,
      "t": 455505.1779583506,
      "d": 341.83679166669026,
      "v": 88
    },
    {
      "midi": 56,
      "hit": false,
      "t": 455510.2800000173,
      "d": 367.34700000000885,
      "v": 74
    },
    {
      "midi": 62,
      "hit": false,
      "t": 455515.382041684,
      "d": 387.75516666664043,
      "v": 76
    },
    {
      "midi": 72,
      "hit": false,
      "t": 455959.25966668397,
      "d": 392.85720833338564,
      "v": 58
    },
    {
      "midi": 67,
      "hit": false,
      "t": 455969.4637500173,
      "d": 265.3061666666763,
      "v": 61
    },
    {
      "midi": 56,
      "hit": false,
      "t": 455974.56579168397,
      "d": 306.1224999999977,
      "v": 57
    },
    {
      "midi": 62,
      "hit": false,
      "t": 455984.7698750173,
      "d": 346.93883333337726,
      "v": 48
    },
    {
      "midi": 72,
      "hit": false,
      "t": 456423.5454583507,
      "d": 438.7755833333358,
      "v": 51
    },
    {
      "midi": 76,
      "hit": false,
      "t": 456428.64750001737,
      "d": 500.000083333347,
      "v": 66
    },
    {
      "midi": 67,
      "hit": false,
      "t": 456438.8515833507,
      "d": 443.8776250000228,
      "v": 69
    },
    {
      "midi": 56,
      "hit": false,
      "t": 456438.8515833507,
      "d": 484.6939583333442,
      "v": 60
    },
    {
      "midi": 62,
      "hit": false,
      "t": 456443.95362501737,
      "d": 423.469458333333,
      "v": 55
    },
    {
      "midi": 67,
      "hit": false,
      "t": 457331.70887501736,
      "d": 76.53062500007218,
      "v": 75
    },
    {
      "midi": 74,
      "hit": false,
      "t": 457336.81091668404,
      "d": 76.53062500007218,
      "v": 80
    },
    {
      "midi": 86,
      "hit": false,
      "t": 457336.81091668404,
      "d": 91.83675000007497,
      "v": 84
    },
    {
      "midi": 56,
      "hit": false,
      "t": 457336.81091668404,
      "d": 102.04083333339076,
      "v": 57
    },
    {
      "midi": 62,
      "hit": false,
      "t": 457336.81091668404,
      "d": 107.14287500007777,
      "v": 64
    },
    {
      "midi": 81,
      "hit": false,
      "t": 457347.01500001736,
      "d": 91.83675000007497,
      "v": 68
    },
    {
      "midi": 60,
      "hit": false,
      "t": 457352.11704168405,
      "d": 35.71429166669259,
      "v": 55
    },
    {
      "midi": 67,
      "hit": false,
      "t": 457510.28033335076,
      "d": 30.612250000063796,
      "v": 57
    },
    {
      "midi": 76,
      "hit": false,
      "t": 457515.38237501745,
      "d": 45.91837500000838,
      "v": 67
    },
    {
      "midi": 88,
      "hit": false,
      "t": 457515.38237501745,
      "d": 56.122458333324175,
      "v": 71
    },
    {
      "midi": 56,
      "hit": false,
      "t": 457515.38237501745,
      "d": 76.53062500001397,
      "v": 44
    },
    {
      "midi": 62,
      "hit": false,
      "t": 457520.48441668414,
      "d": 56.122458333324175,
      "v": 55
    },
    {
      "midi": 60,
      "hit": false,
      "t": 457535.79054168414,
      "d": 35.71429166663438,
      "v": 40
    },
    {
      "midi": 56,
      "hit": false,
      "t": 457637.8313750175,
      "d": 96.93879166670376,
      "v": 28
    },
    {
      "midi": 89,
      "hit": false,
      "t": 457648.0354583508,
      "d": 30.612250000005588,
      "v": 58
    },
    {
      "midi": 62,
      "hit": false,
      "t": 457658.2395416841,
      "d": 35.71429166669259,
      "v": 24
    },
    {
      "midi": 77,
      "hit": false,
      "t": 457663.3415833508,
      "d": 35.71429166669259,
      "v": 29
    },
    {
      "midi": 90,
      "hit": false,
      "t": 457831.7089583508,
      "d": 66.32654166669818,
      "v": 64
    },
    {
      "midi": 78,
      "hit": false,
      "t": 457836.8110000175,
      "d": 35.71429166669259,
      "v": 60
    },
    {
      "midi": 62,
      "hit": false,
      "t": 457938.85183335084,
      "d": 198.97962500015274,
      "v": 52
    },
    {
      "midi": 52,
      "hit": false,
      "t": 457943.9538750175,
      "d": 188.77554166677874,
      "v": 39
    },
    {
      "midi": 78,
      "hit": false,
      "t": 457949.0559166842,
      "d": 66.32654166669818,
      "v": 40
    },
    {
      "midi": 55,
      "hit": false,
      "t": 457964.3620416842,
      "d": 163.26533333340194,
      "v": 48
    },
    {
      "midi": 59,
      "hit": false,
      "t": 457969.4640833509,
      "d": 147.95920833334094,
      "v": 49
    },
    {
      "midi": 91,
      "hit": false,
      "t": 457969.4640833509,
      "d": 153.06125000002794,
      "v": 55
    },
    {
      "midi": 86,
      "hit": false,
      "t": 458025.5865416842,
      "d": 96.93879166670376,
      "v": 31
    },
    {
      "midi": 79,
      "hit": false,
      "t": 458025.5865416842,
      "d": 107.14287500007777,
      "v": 40
    },
    {
      "midi": 62,
      "hit": false,
      "t": 458270.48454168433,
      "d": 71.42858333344338,
      "v": 49
    },
    {
      "midi": 52,
      "hit": false,
      "t": 458270.48454168433,
      "d": 81.63266666681739,
      "v": 40
    },
    {
      "midi": 79,
      "hit": false,
      "t": 458275.586583351,
      "d": 76.53062500013039,
      "v": 48
    },
    {
      "midi": 91,
      "hit": false,
      "t": 458280.6886250177,
      "d": 66.32654166675638,
      "v": 53
    },
    {
      "midi": 86,
      "hit": false,
      "t": 458290.892708351,
      "d": 30.612250000063796,
      "v": 58
    },
    {
      "midi": 59,
      "hit": false,
      "t": 458295.9947500177,
      "d": 40.81633333337959,
      "v": 32
    },
    {
      "midi": 55,
      "hit": false,
      "t": 458301.0967916844,
      "d": 40.81633333337959,
      "v": 34
    },
    {
      "midi": 62,
      "hit": false,
      "t": 458602.1172500178,
      "d": 40.81633333337959,
      "v": 36
    },
    {
      "midi": 52,
      "hit": false,
      "t": 458602.1172500178,
      "d": 61.22450000006938,
      "v": 36
    },
    {
      "midi": 55,
      "hit": false,
      "t": 458602.1172500178,
      "d": 61.22450000006938,
      "v": 44
    },
    {
      "midi": 59,
      "hit": false,
      "t": 458607.2192916845,
      "d": 51.02041666669538,
      "v": 31
    },
    {
      "midi": 84,
      "hit": false,
      "t": 458887.83158335125,
      "d": 76.53062500001397,
      "v": 59
    },
    {
      "midi": 62,
      "hit": false,
      "t": 458887.83158335125,
      "d": 81.63266666670097,
      "v": 36
    },
    {
      "midi": 52,
      "hit": false,
      "t": 458887.83158335125,
      "d": 91.83675000001676,
      "v": 38
    },
    {
      "midi": 72,
      "hit": false,
      "t": 458898.03566668456,
      "d": 51.02041666669538,
      "v": 43
    },
    {
      "midi": 55,
      "hit": false,
      "t": 458903.13770835125,
      "d": 76.53062500001397,
      "v": 51
    },
    {
      "midi": 79,
      "hit": false,
      "t": 458908.23975001794,
      "d": 40.81633333332138,
      "v": 42
    },
    {
      "midi": 59,
      "hit": false,
      "t": 458908.23975001794,
      "d": 56.122458333324175,
      "v": 32
    },
    {
      "midi": 84,
      "hit": false,
      "t": 459199.05612501793,
      "d": 71.42858333338518,
      "v": 65
    },
    {
      "midi": 52,
      "hit": false,
      "t": 459199.05612501793,
      "d": 86.73470833338797,
      "v": 46
    },
    {
      "midi": 79,
      "hit": false,
      "t": 459204.1581666846,
      "d": 51.02041666669538,
      "v": 53
    },
    {
      "midi": 72,
      "hit": false,
      "t": 459204.1581666846,
      "d": 56.12245833338238,
      "v": 50
    },
    {
      "midi": 62,
      "hit": false,
      "t": 459209.2602083513,
      "d": 71.42858333332697,
      "v": 30
    },
    {
      "midi": 59,
      "hit": false,
      "t": 459219.4642916846,
      "d": 40.81633333337959,
      "v": 36
    },
    {
      "midi": 55,
      "hit": false,
      "t": 459219.4642916846,
      "d": 61.224500000011176,
      "v": 52
    },
    {
      "midi": 84,
      "hit": false,
      "t": 459362.32145835133,
      "d": 76.53062500001397,
      "v": 53
    },
    {
      "midi": 62,
      "hit": false,
      "t": 459362.32145835133,
      "d": 81.63266666670097,
      "v": 55
    },
    {
      "midi": 72,
      "hit": false,
      "t": 459372.52554168465,
      "d": 56.12245833338238,
      "v": 37
    },
    {
      "midi": 79,
      "hit": false,
      "t": 459372.52554168465,
      "d": 66.32654166669818,
      "v": 43
    },
    {
      "midi": 52,
      "hit": false,
      "t": 459372.52554168465,
      "d": 81.63266666670097,
      "v": 34
    },
    {
      "midi": 55,
      "hit": false,
      "t": 459387.83166668465,
      "d": 56.12245833338238,
      "v": 41
    },
    {
      "midi": 59,
      "hit": false,
      "t": 459392.93370835134,
      "d": 35.71429166669259,
      "v": 42
    },
    {
      "midi": 84,
      "hit": false,
      "t": 459795.99500001804,
      "d": 71.42858333344338,
      "v": 68
    },
    {
      "midi": 72,
      "hit": false,
      "t": 459801.0970416847,
      "d": 51.02041666675359,
      "v": 54
    },
    {
      "midi": 79,
      "hit": false,
      "t": 459806.1990833514,
      "d": 40.81633333337959,
      "v": 51
    },
    {
      "midi": 52,
      "hit": false,
      "t": 459811.3011250181,
      "d": 96.93879166670376,
      "v": 31
    },
    {
      "midi": 59,
      "hit": false,
      "t": 459816.4031666848,
      "d": 86.73470833332976,
      "v": 34
    },
    {
      "midi": 62,
      "hit": false,
      "t": 459821.5052083515,
      "d": 71.42858333332697,
      "v": 29
    },
    {
      "midi": 55,
      "hit": false,
      "t": 459836.8113333515,
      "d": 66.32654166663997,
      "v": 33
    },
    {
      "midi": 53,
      "hit": false,
      "t": 460382.72979168483,
      "d": 489.7960000000894,
      "v": 62
    },
    {
      "midi": 64,
      "hit": false,
      "t": 460387.8318333515,
      "d": 479.5919166667154,
      "v": 65
    },
    {
      "midi": 60,
      "hit": false,
      "t": 460387.8318333515,
      "d": 515.306208333408,
      "v": 64
    },
    {
      "midi": 79,
      "hit": false,
      "t": 460392.9338750182,
      "d": 469.3878333333414,
      "v": 77
    },
    {
      "midi": 84,
      "hit": false,
      "t": 460392.9338750182,
      "d": 474.4898750000284,
      "v": 79
    },
    {
      "midi": 72,
      "hit": false,
      "t": 460398.0359166849,
      "d": 423.469458333333,
      "v": 85
    },
    {
      "midi": 57,
      "hit": false,
      "t": 460398.0359166849,
      "d": 515.3062083333498,
      "v": 54
    },
    {
      "midi": 86,
      "hit": false,
      "t": 461015.3829583516,
      "d": 224.4898333333549,
      "v": 94
    },
    {
      "midi": 53,
      "hit": false,
      "t": 461020.48500001826,
      "d": 250.0000416666735,
      "v": 71
    },
    {
      "midi": 64,
      "hit": false,
      "t": 461020.48500001826,
      "d": 250.0000416666735,
      "v": 78
    },
    {
      "midi": 81,
      "hit": false,
      "t": 461020.48500001826,
      "d": 250.0000416666735,
      "v": 81
    },
    {
      "midi": 60,
      "hit": false,
      "t": 461020.48500001826,
      "d": 260.2041249999893,
      "v": 75
    },
    {
      "midi": 74,
      "hit": false,
      "t": 461025.58704168495,
      "d": 229.5918749999837,
      "v": 90
    },
    {
      "midi": 57,
      "hit": false,
      "t": 461025.58704168495,
      "d": 260.2041249999893,
      "v": 71
    },
    {
      "midi": 84,
      "hit": false,
      "t": 461331.70954168495,
      "d": 163.26533333340194,
      "v": 77
    },
    {
      "midi": 53,
      "hit": false,
      "t": 461331.70954168495,
      "d": 219.38779166672612,
      "v": 71
    },
    {
      "midi": 64,
      "hit": false,
      "t": 461336.81158335163,
      "d": 214.28575000003912,
      "v": 71
    },
    {
      "midi": 79,
      "hit": false,
      "t": 461341.9136250183,
      "d": 178.57145833334653,
      "v": 74
    },
    {
      "midi": 57,
      "hit": false,
      "t": 461341.9136250183,
      "d": 229.5918750000419,
      "v": 74
    },
    {
      "midi": 60,
      "hit": false,
      "t": 461341.9136250183,
      "d": 229.5918750000419,
      "v": 68
    },
    {
      "midi": 72,
      "hit": false,
      "t": 461347.015666685,
      "d": 204.08166666666511,
      "v": 68
    },
    {
      "midi": 83,
      "hit": false,
      "t": 461627.6279583517,
      "d": 331.63270833337447,
      "v": 72
    },
    {
      "midi": 53,
      "hit": false,
      "t": 461632.7300000184,
      "d": 448.9796666667098,
      "v": 71
    },
    {
      "midi": 77,
      "hit": false,
      "t": 461637.83204168506,
      "d": 352.04087500000605,
      "v": 76
    },
    {
      "midi": 57,
      "hit": false,
      "t": 461637.83204168506,
      "d": 413.26537500001723,
      "v": 66
    },
    {
      "midi": 60,
      "hit": false,
      "t": 461637.83204168506,
      "d": 443.8776250000228,
      "v": 70
    },
    {
      "midi": 71,
      "hit": false,
      "t": 461642.93408335175,
      "d": 392.85720833332743,
      "v": 75
    },
    {
      "midi": 64,
      "hit": false,
      "t": 461642.93408335175,
      "d": 418.367416666646,
      "v": 69
    },
    {
      "midi": 53,
      "hit": false,
      "t": 462244.9750000184,
      "d": 336.7347500001197,
      "v": 62
    },
    {
      "midi": 81,
      "hit": false,
      "t": 462255.17908335174,
      "d": 260.2041250000475,
      "v": 71
    },
    {
      "midi": 76,
      "hit": false,
      "t": 462255.17908335174,
      "d": 301.0204583334271,
      "v": 78
    },
    {
      "midi": 60,
      "hit": false,
      "t": 462260.28112501843,
      "d": 260.2041250000475,
      "v": 62
    },
    {
      "midi": 64,
      "hit": false,
      "t": 462260.28112501843,
      "d": 270.4082083333633,
      "v": 63
    },
    {
      "midi": 57,
      "hit": false,
      "t": 462265.3831666851,
      "d": 270.4082083333633,
      "v": 60
    },
    {
      "midi": 69,
      "hit": false,
      "t": 462265.3831666851,
      "d": 311.2245416667429,
      "v": 67
    },
    {
      "midi": 67,
      "hit": false,
      "t": 462862.3220416852,
      "d": 96.93879166664556,
      "v": 94
    },
    {
      "midi": 74,
      "hit": false,
      "t": 462862.3220416852,
      "d": 117.34695833333535,
      "v": 87
    },
    {
      "midi": 79,
      "hit": false,
      "t": 462862.3220416852,
      "d": 117.34695833333535,
      "v": 78
    },
    {
      "midi": 59,
      "hit": false,
      "t": 462862.3220416852,
      "d": 132.65308333333815,
      "v": 80
    },
    {
      "midi": 55,
      "hit": false,
      "t": 462872.52612501854,
      "d": 137.75512500002515,
      "v": 72
    },
    {
      "midi": 52,
      "hit": false,
      "t": 462872.52612501854,
      "d": 408.16333333333023,
      "v": 73
    },
    {
      "midi": 62,
      "hit": false,
      "t": 462877.62816668523,
      "d": 25.510208333318587,
      "v": 75
    },
    {
      "midi": 74,
      "hit": false,
      "t": 463035.7914583519,
      "d": 96.93879166664556,
      "v": 70
    },
    {
      "midi": 67,
      "hit": false,
      "t": 463045.9955416852,
      "d": 71.42858333332697,
      "v": 58
    },
    {
      "midi": 79,
      "hit": false,
      "t": 463045.9955416852,
      "d": 86.73470833332976,
      "v": 64
    },
    {
      "midi": 59,
      "hit": false,
      "t": 463056.1996250185,
      "d": 224.4898333333549,
      "v": 62
    },
    {
      "midi": 62,
      "hit": false,
      "t": 463061.3016666852,
      "d": 219.3877916666679,
      "v": 71
    },
    {
      "midi": 55,
      "hit": false,
      "t": 463061.3016666852,
      "d": 229.5918749999837,
      "v": 51
    },
    {
      "midi": 79,
      "hit": false,
      "t": 463173.54658335185,
      "d": 96.93879166670376,
      "v": 30
    },
    {
      "midi": 67,
      "hit": false,
      "t": 463178.64862501854,
      "d": 76.53062500001397,
      "v": 41
    },
    {
      "midi": 74,
      "hit": false,
      "t": 463178.64862501854,
      "d": 91.83675000001676,
      "v": 60
    },
    {
      "midi": 79,
      "hit": false,
      "t": 463341.9139583519,
      "d": 91.83675000001676,
      "v": 53
    },
    {
      "midi": 62,
      "hit": false,
      "t": 463347.0160000186,
      "d": 71.42858333332697,
      "v": 54
    },
    {
      "midi": 74,
      "hit": false,
      "t": 463347.0160000186,
      "d": 81.63266666664276,
      "v": 60
    },
    {
      "midi": 67,
      "hit": false,
      "t": 463352.11804168526,
      "d": 66.32654166663997,
      "v": 68
    },
    {
      "midi": 52,
      "hit": false,
      "t": 463352.11804168526,
      "d": 239.7959583334159,
      "v": 40
    },
    {
      "midi": 59,
      "hit": false,
      "t": 463362.3221250186,
      "d": 45.91837500000838,
      "v": 67
    },
    {
      "midi": 55,
      "hit": false,
      "t": 463367.42416668526,
      "d": 219.38779166672612,
      "v": 66
    },
    {
      "midi": 79,
      "hit": false,
      "t": 463469.4650000186,
      "d": 107.14287500007777,
      "v": 31
    },
    {
      "midi": 62,
      "hit": false,
      "t": 463474.5670416853,
      "d": 91.83675000001676,
      "v": 60
    },
    {
      "midi": 67,
      "hit": false,
      "t": 463479.66908335197,
      "d": 76.53062500001397,
      "v": 58
    },
    {
      "midi": 74,
      "hit": false,
      "t": 463479.66908335197,
      "d": 91.83675000001676,
      "v": 71
    },
    {
      "midi": 59,
      "hit": false,
      "t": 463479.66908335197,
      "d": 96.93879166670376,
      "v": 53
    },
    {
      "midi": 74,
      "hit": false,
      "t": 463775.58750001865,
      "d": 71.42858333344338,
      "v": 74
    },
    {
      "midi": 62,
      "hit": false,
      "t": 463775.58750001865,
      "d": 81.63266666675918,
      "v": 64
    },
    {
      "midi": 67,
      "hit": false,
      "t": 463780.68954168534,
      "d": 35.71429166669259,
      "v": 73
    },
    {
      "midi": 52,
      "hit": false,
      "t": 463780.68954168534,
      "d": 40.81633333337959,
      "v": 32
    },
    {
      "midi": 79,
      "hit": false,
      "t": 463780.68954168534,
      "d": 91.83675000007497,
      "v": 65
    },
    {
      "midi": 59,
      "hit": false,
      "t": 463801.097708352,
      "d": 35.71429166669259,
      "v": 49
    },
    {
      "midi": 55,
      "hit": false,
      "t": 463801.097708352,
      "d": 40.81633333337959,
      "v": 28
    },
    {
      "midi": 55,
      "hit": false,
      "t": 464071.5059166854,
      "d": 96.93879166676197,
      "v": 87
    },
    {
      "midi": 72,
      "hit": false,
      "t": 464076.6079583521,
      "d": 40.81633333337959,
      "v": 80
    },
    {
      "midi": 65,
      "hit": false,
      "t": 464076.6079583521,
      "d": 56.12245833338238,
      "v": 81
    },
    {
      "midi": 77,
      "hit": false,
      "t": 464076.6079583521,
      "d": 61.22450000006938,
      "v": 79
    },
    {
      "midi": 81,
      "hit": false,
      "t": 464081.71000001876,
      "d": 71.42858333338518,
      "v": 75
    },
    {
      "midi": 84,
      "hit": false,
      "t": 464081.71000001876,
      "d": 71.42858333338518,
      "v": 77
    },
    {
      "midi": 61,
      "hit": false,
      "t": 464081.71000001876,
      "d": 96.93879166670376,
      "v": 69
    },
    {
      "midi": 84,
      "hit": false,
      "t": 464398.03658335214,
      "d": 443.8776250000228,
      "v": 84
    },
    {
      "midi": 81,
      "hit": false,
      "t": 464398.03658335214,
      "d": 500.000083333347,
      "v": 82
    },
    {
      "midi": 72,
      "hit": false,
      "t": 464398.03658335214,
      "d": 505.102125000034,
      "v": 90
    },
    {
      "midi": 77,
      "hit": false,
      "t": 464398.03658335214,
      "d": 510.204166666721,
      "v": 88
    },
    {
      "midi": 65,
      "hit": false,
      "t": 464408.24066668545,
      "d": 479.5919166667154,
      "v": 82
    },
    {
      "midi": 55,
      "hit": false,
      "t": 464408.24066668545,
      "d": 520.408250000095,
      "v": 91
    },
    {
      "midi": 61,
      "hit": false,
      "t": 464408.24066668545,
      "d": 530.6123333334108,
      "v": 80
    },
    {
      "midi": 50,
      "hit": false,
      "t": 465321.5061250189,
      "d": 408.16333333350485,
      "v": 67
    },
    {
      "midi": 67,
      "hit": false,
      "t": 465326.60816668556,
      "d": 76.53062500001397,
      "v": 91
    },
    {
      "midi": 72,
      "hit": false,
      "t": 465326.60816668556,
      "d": 86.73470833332976,
      "v": 83
    },
    {
      "midi": 76,
      "hit": false,
      "t": 465326.60816668556,
      "d": 107.14287499996135,
      "v": 71
    },
    {
      "midi": 79,
      "hit": false,
      "t": 465326.60816668556,
      "d": 107.14287499996135,
      "v": 76
    },
    {
      "midi": 57,
      "hit": false,
      "t": 465326.60816668556,
      "d": 117.34695833327714,
      "v": 73
    },
    {
      "midi": 60,
      "hit": false,
      "t": 465331.71020835225,
      "d": 91.83674999995856,
      "v": 78
    },
    {
      "midi": 53,
      "hit": false,
      "t": 465331.71020835225,
      "d": 397.95925000013085,
      "v": 58
    },
    {
      "midi": 60,
      "hit": false,
      "t": 465489.87350001885,
      "d": 76.53062500001397,
      "v": 67
    },
    {
      "midi": 67,
      "hit": false,
      "t": 465500.07758335216,
      "d": 61.224500000011176,
      "v": 59
    },
    {
      "midi": 57,
      "hit": false,
      "t": 465500.07758335216,
      "d": 76.53062500007218,
      "v": 59
    },
    {
      "midi": 79,
      "hit": false,
      "t": 465500.07758335216,
      "d": 81.63266666675918,
      "v": 62
    },
    {
      "midi": 76,
      "hit": false,
      "t": 465500.07758335216,
      "d": 96.93879166676197,
      "v": 62
    },
    {
      "midi": 72,
      "hit": false,
      "t": 465505.17962501885,
      "d": 66.32654166669818,
      "v": 50
    },
    {
      "midi": 79,
      "hit": false,
      "t": 465627.62862501893,
      "d": 86.73470833344618,
      "v": 33
    },
    {
      "midi": 60,
      "hit": false,
      "t": 465632.7306666856,
      "d": 66.32654166675638,
      "v": 68
    },
    {
      "midi": 67,
      "hit": false,
      "t": 465632.7306666856,
      "d": 66.32654166675638,
      "v": 50
    },
    {
      "midi": 72,
      "hit": false,
      "t": 465632.7306666856,
      "d": 71.42858333344338,
      "v": 46
    },
    {
      "midi": 76,
      "hit": false,
      "t": 465637.8327083523,
      "d": 91.83675000007497,
      "v": 44
    },
    {
      "midi": 57,
      "hit": false,
      "t": 465642.934750019,
      "d": 51.02041666669538,
      "v": 62
    },
    {
      "midi": 79,
      "hit": false,
      "t": 465795.996000019,
      "d": 81.63266666675918,
      "v": 49
    },
    {
      "midi": 76,
      "hit": false,
      "t": 465795.996000019,
      "d": 91.83675000007497,
      "v": 68
    },
    {
      "midi": 67,
      "hit": false,
      "t": 465801.0980416857,
      "d": 56.12245833338238,
      "v": 74
    },
    {
      "midi": 60,
      "hit": false,
      "t": 465801.0980416857,
      "d": 61.22450000006938,
      "v": 73
    },
    {
      "midi": 72,
      "hit": false,
      "t": 465801.0980416857,
      "d": 66.32654166675638,
      "v": 65
    },
    {
      "midi": 50,
      "hit": false,
      "t": 465806.2000833524,
      "d": 71.42858333338518,
      "v": 53
    },
    {
      "midi": 53,
      "hit": false,
      "t": 465816.4041666857,
      "d": 81.63266666670097,
      "v": 61
    },
    {
      "midi": 57,
      "hit": false,
      "t": 465821.5062083524,
      "d": 35.71429166669259,
      "v": 58
    },
    {
      "midi": 60,
      "hit": false,
      "t": 465928.6490833524,
      "d": 71.42858333338518,
      "v": 73
    },
    {
      "midi": 50,
      "hit": false,
      "t": 465933.7511250191,
      "d": 81.63266666670097,
      "v": 52
    },
    {
      "midi": 57,
      "hit": false,
      "t": 465933.7511250191,
      "d": 81.63266666670097,
      "v": 66
    },
    {
      "midi": 67,
      "hit": false,
      "t": 465938.8531666858,
      "d": 66.32654166669818,
      "v": 62
    },
    {
      "midi": 72,
      "hit": false,
      "t": 465938.8531666858,
      "d": 66.32654166669818,
      "v": 50
    },
    {
      "midi": 79,
      "hit": false,
      "t": 465938.8531666858,
      "d": 86.73470833332976,
      "v": 60
    },
    {
      "midi": 53,
      "hit": false,
      "t": 465938.8531666858,
      "d": 107.14287499996135,
      "v": 31
    },
    {
      "midi": 76,
      "hit": false,
      "t": 465943.9552083525,
      "d": 91.83674999995856,
      "v": 65
    },
    {
      "midi": 79,
      "hit": false,
      "t": 466193.9552500191,
      "d": 86.73470833344618,
      "v": 66
    },
    {
      "midi": 67,
      "hit": false,
      "t": 466199.0572916858,
      "d": 30.612250000063796,
      "v": 66
    },
    {
      "midi": 57,
      "hit": false,
      "t": 466199.0572916858,
      "d": 76.53062500007218,
      "v": 71
    },
    {
      "midi": 60,
      "hit": false,
      "t": 466204.15933335247,
      "d": 30.612250000063796,
      "v": 68
    },
    {
      "midi": 76,
      "hit": false,
      "t": 466204.15933335247,
      "d": 40.81633333337959,
      "v": 46
    },
    {
      "midi": 72,
      "hit": false,
      "t": 466209.26137501915,
      "d": 35.71429166669259,
      "v": 40
    },
    {
      "midi": 53,
      "hit": false,
      "t": 466219.46545835247,
      "d": 40.81633333337959,
      "v": 36
    },
    {
      "midi": 50,
      "hit": false,
      "t": 466224.56750001915,
      "d": 30.612250000005588,
      "v": 20
    },
    {
      "midi": 77,
      "hit": false,
      "t": 466229.66954168584,
      "d": 40.81633333332138,
      "v": 41
    },
    {
      "midi": 88,
      "hit": false,
      "t": 466520.4859166859,
      "d": 71.42858333338518,
      "v": 81
    },
    {
      "midi": 80,
      "hit": false,
      "t": 466525.5879583526,
      "d": 51.02041666669538,
      "v": 74
    },
    {
      "midi": 76,
      "hit": false,
      "t": 466525.5879583526,
      "d": 56.12245833338238,
      "v": 80
    },
    {
      "midi": 83,
      "hit": false,
      "t": 466525.5879583526,
      "d": 66.32654166669818,
      "v": 71
    },
    {
      "midi": 53,
      "hit": false,
      "t": 466525.5879583526,
      "d": 76.53062500001397,
      "v": 76
    },
    {
      "midi": 64,
      "hit": false,
      "t": 466535.7920416859,
      "d": 56.12245833338238,
      "v": 78
    },
    {
      "midi": 59,
      "hit": false,
      "t": 466535.7920416859,
      "d": 76.53062500001397,
      "v": 75
    },
    {
      "midi": 86,
      "hit": false,
      "t": 466540.8940833526,
      "d": 30.612250000005588,
      "v": 62
    },
    {
      "midi": 88,
      "hit": false,
      "t": 466831.7104583526,
      "d": 301.0204583333689,
      "v": 78
    },
    {
      "midi": 83,
      "hit": false,
      "t": 466836.81250001927,
      "d": 346.93883333331905,
      "v": 80
    },
    {
      "midi": 76,
      "hit": false,
      "t": 466836.81250001927,
      "d": 367.34700000000885,
      "v": 85
    },
    {
      "midi": 53,
      "hit": false,
      "t": 466841.91454168595,
      "d": 331.63270833331626,
      "v": 74
    },
    {
      "midi": 80,
      "hit": false,
      "t": 466841.91454168595,
      "d": 331.63270833331626,
      "v": 60
    },
    {
      "midi": 64,
      "hit": false,
      "t": 466847.01658335264,
      "d": 239.7959583332995,
      "v": 79
    },
    {
      "midi": 59,
      "hit": false,
      "t": 466847.01658335264,
      "d": 255.1020833333023,
      "v": 70
    },
    {
      "midi": 86,
      "hit": false,
      "t": 466857.22066668596,
      "d": 290.8163749999949,
      "v": 66
    },
    {
      "midi": 44,
      "hit": false,
      "t": 467760.28204168595,
      "d": 311.2245416667429,
      "v": 83
    },
    {
      "midi": 60,
      "hit": false,
      "t": 467765.38408335263,
      "d": 275.5102500000503,
      "v": 105
    },
    {
      "midi": 51,
      "hit": false,
      "t": 467765.38408335263,
      "d": 336.73475000006147,
      "v": 82
    },
    {
      "midi": 67,
      "hit": false,
      "t": 467765.38408335263,
      "d": 346.93883333337726,
      "v": 99
    },
    {
      "midi": 72,
      "hit": false,
      "t": 467765.38408335263,
      "d": 367.34700000006706,
      "v": 87
    },
    {
      "midi": 77,
      "hit": false,
      "t": 468382.7311250194,
      "d": 229.59187500010012,
      "v": 81
    },
    {
      "midi": 84,
      "hit": false,
      "t": 468387.83316668606,
      "d": 244.8980000001029,
      "v": 84
    },
    {
      "midi": 72,
      "hit": false,
      "t": 468392.93520835275,
      "d": 163.26533333340194,
      "v": 76
    },
    {
      "midi": 53,
      "hit": false,
      "t": 468392.93520835275,
      "d": 188.77554166672053,
      "v": 70
    },
    {
      "midi": 63,
      "hit": false,
      "t": 468398.03725001944,
      "d": 219.38779166672612,
      "v": 77
    },
    {
      "midi": 58,
      "hit": false,
      "t": 468403.1392916861,
      "d": 250.0000416667317,
      "v": 63
    },
    {
      "midi": 96,
      "hit": false,
      "t": 468984.77204168617,
      "d": 168.36737500003073,
      "v": 82
    },
    {
      "midi": 92,
      "hit": false,
      "t": 468984.77204168617,
      "d": 204.08166666672332,
      "v": 67
    },
    {
      "midi": 89,
      "hit": false,
      "t": 468984.77204168617,
      "d": 214.28575000003912,
      "v": 80
    },
    {
      "midi": 55,
      "hit": false,
      "t": 468984.77204168617,
      "d": 244.8980000000447,
      "v": 80
    },
    {
      "midi": 65,
      "hit": false,
      "t": 468989.87408335286,
      "d": 224.4898333333549,
      "v": 75
    },
    {
      "midi": 84,
      "hit": false,
      "t": 468989.87408335286,
      "d": 229.5918750000419,
      "v": 78
    },
    {
      "midi": 60,
      "hit": false,
      "t": 468994.97612501954,
      "d": 250.0000416666735,
      "v": 73
    },
    {
      "midi": 63,
      "hit": false,
      "t": 469597.0170416862,
      "d": 107.14287500001956,
      "v": 71
    },
    {
      "midi": 53,
      "hit": false,
      "t": 469597.0170416862,
      "d": 178.57145833334653,
      "v": 68
    },
    {
      "midi": 72,
      "hit": false,
      "t": 469597.0170416862,
      "d": 285.7143333333661,
      "v": 55
    },
    {
      "midi": 65,
      "hit": false,
      "t": 469607.22112501954,
      "d": 270.4082083333633,
      "v": 74
    },
    {
      "midi": 58,
      "hit": false,
      "t": 469612.3231666862,
      "d": 173.46941666665953,
      "v": 56
    },
    {
      "midi": 66,
      "hit": false,
      "t": 470010.28241668624,
      "d": 96.93879166664556,
      "v": 31
    },
    {
      "midi": 70,
      "hit": false,
      "t": 470188.85387501953,
      "d": 260.2041250001639,
      "v": 71
    },
    {
      "midi": 60,
      "hit": false,
      "t": 470193.9559166862,
      "d": 173.46941666671773,
      "v": 71
    },
    {
      "midi": 65,
      "hit": false,
      "t": 470193.9559166862,
      "d": 229.59187500010012,
      "v": 77
    },
    {
      "midi": 37,
      "hit": false,
      "t": 470193.9559166862,
      "d": 234.69391666678712,
      "v": 67
    },
    {
      "midi": 44,
      "hit": false,
      "t": 470193.9559166862,
      "d": 265.3061666667927,
      "v": 74
    },
    {
      "midi": 75,
      "hit": false,
      "t": 470790.8947916863,
      "d": 290.8163750000531,
      "v": 76
    },
    {
      "midi": 68,
      "hit": false,
      "t": 470795.996833353,
      "d": 234.6939166666707,
      "v": 76
    },
    {
      "midi": 63,
      "hit": false,
      "t": 470801.0988750197,
      "d": 239.7959583333577,
      "v": 81
    },
    {
      "midi": 65,
      "hit": false,
      "t": 470806.2009166864,
      "d": 158.16329166665673,
      "v": 74
    },
    {
      "midi": 72,
      "hit": false,
      "t": 470806.2009166864,
      "d": 229.5918749999837,
      "v": 59
    },
    {
      "midi": 63,
      "hit": false,
      "t": 471423.54795835307,
      "d": 275.5102499999921,
      "v": 74
    },
    {
      "midi": 77,
      "hit": false,
      "t": 471428.65000001976,
      "d": 244.8979999999865,
      "v": 74
    },
    {
      "midi": 80,
      "hit": false,
      "t": 471428.65000001976,
      "d": 244.8979999999865,
      "v": 74
    },
    {
      "midi": 72,
      "hit": false,
      "t": 471433.75204168644,
      "d": 270.4082083333051,
      "v": 68
    },
    {
      "midi": 58,
      "hit": false,
      "t": 471459.26225001976,
      "d": 464.2857916666544,
      "v": 45
    },
    {
      "midi": 75,
      "hit": false,
      "t": 472025.58887501975,
      "d": 204.08166666672332,
      "v": 56
    },
    {
      "midi": 53,
      "hit": false,
      "t": 472035.79295835306,
      "d": 132.65308333339635,
      "v": 50
    },
    {
      "midi": 72,
      "hit": false,
      "t": 472040.89500001975,
      "d": 173.46941666671773,
      "v": 50
    },
    {
      "midi": 68,
      "hit": false,
      "t": 472040.89500001975,
      "d": 214.28575000009732,
      "v": 53
    },
    {
      "midi": 65,
      "hit": false,
      "t": 472045.99704168644,
      "d": 204.08166666672332,
      "v": 55
    },
    {
      "midi": 63,
      "hit": false,
      "t": 472673.54816668655,
      "d": 275.5102500000503,
      "v": 69
    },
    {
      "midi": 58,
      "hit": false,
      "t": 472678.65020835324,
      "d": 260.2041250000475,
      "v": 73
    },
    {
      "midi": 52,
      "hit": false,
      "t": 472683.7522500199,
      "d": 183.67349999997532,
      "v": 72
    },
    {
      "midi": 30,
      "hit": false,
      "t": 472683.7522500199,
      "d": 219.3877916666679,
      "v": 64
    },
    {
      "midi": 42,
      "hit": false,
      "t": 472683.7522500199,
      "d": 265.3061666666763,
      "v": 71
    },
    {
      "midi": 75,
      "hit": false,
      "t": 473306.2013333533,
      "d": 265.3061666666181,
      "v": 58
    },
    {
      "midi": 68,
      "hit": false,
      "t": 473316.4054166866,
      "d": 204.0816666666069,
      "v": 53
    },
    {
      "midi": 64,
      "hit": false,
      "t": 473326.6095000199,
      "d": 102.04083333333256,
      "v": 46
    },
    {
      "midi": 63,
      "hit": false,
      "t": 473326.6095000199,
      "d": 168.36737499997253,
      "v": 62
    },
    {
      "midi": 72,
      "hit": false,
      "t": 473326.6095000199,
      "d": 198.9796249999781,
      "v": 41
    },
    {
      "midi": 87,
      "hit": false,
      "t": 473933.75245835324,
      "d": 454.0817083333386,
      "v": 64
    },
    {
      "midi": 75,
      "hit": false,
      "t": 473938.8545000199,
      "d": 122.44900000002235,
      "v": 52
    },
    {
      "midi": 80,
      "hit": false,
      "t": 473938.8545000199,
      "d": 362.24495833332185,
      "v": 55
    },
    {
      "midi": 84,
      "hit": false,
      "t": 473943.9565416866,
      "d": 229.5918749999837,
      "v": 63
    },
    {
      "midi": 76,
      "hit": false,
      "t": 473964.3647083533,
      "d": 352.04087499994785,
      "v": 44
    },
    {
      "midi": 85,
      "hit": false,
      "t": 474510.2831666866,
      "d": 107.14287499996135,
      "v": 67
    },
    {
      "midi": 80,
      "hit": false,
      "t": 474520.4872500199,
      "d": 117.34695833333535,
      "v": 53
    },
    {
      "midi": 76,
      "hit": false,
      "t": 474530.6913333532,
      "d": 127.55104166670935,
      "v": 42
    },
    {
      "midi": 70,
      "hit": false,
      "t": 475127.6302083533,
      "d": 545.9184583333554,
      "v": 57
    },
    {
      "midi": 63,
      "hit": false,
      "t": 475132.73225001997,
      "d": 500.000083333347,
      "v": 50
    },
    {
      "midi": 59,
      "hit": false,
      "t": 475137.83429168665,
      "d": 454.0817083333386,
      "v": 51
    },
    {
      "midi": 66,
      "hit": false,
      "t": 475137.83429168665,
      "d": 510.2041666666628,
      "v": 49
    },
    {
      "midi": 56,
      "hit": false,
      "t": 475142.93633335334,
      "d": 561.2245833333,
      "v": 49
    },
    {
      "midi": 54,
      "hit": false,
      "t": 475729.67112501996,
      "d": 933.6736250001122,
      "v": 50
    },
    {
      "midi": 59,
      "hit": false,
      "t": 475734.77316668665,
      "d": 387.75516666664043,
      "v": 50
    },
    {
      "midi": 63,
      "hit": false,
      "t": 475739.87520835333,
      "d": 387.75516666664043,
      "v": 42
    },
    {
      "midi": 68,
      "hit": false,
      "t": 475739.87520835333,
      "d": 551.0204999999842,
      "v": 52
    },
    {
      "midi": 66,
      "hit": false,
      "t": 475750.07929168665,
      "d": 357.14291666663485,
      "v": 42
    },
    {
      "midi": 47,
      "hit": false,
      "t": 476336.8140833533,
      "d": 678.5715416667517,
      "v": 48
    },
    {
      "midi": 63,
      "hit": false,
      "t": 476341.91612502,
      "d": 403.06129166670144,
      "v": 46
    },
    {
      "midi": 66,
      "hit": false,
      "t": 476347.0181666867,
      "d": 556.1225416666712,
      "v": 57
    },
    {
      "midi": 59,
      "hit": false,
      "t": 476352.1202083534,
      "d": 367.34700000000885,
      "v": 50
    },
    {
      "midi": 54,
      "hit": false,
      "t": 476923.54887502006,
      "d": 56.122458333324175,
      "v": 37
    },
    {
      "midi": 63,
      "hit": false,
      "t": 476938.85500002006,
      "d": 520.4082500000368,
      "v": 50
    },
    {
      "midi": 59,
      "hit": false,
      "t": 476954.16112502007,
      "d": 316.3265833333717,
      "v": 47
    },
    {
      "midi": 24,
      "hit": false,
      "t": 477556.20204168675,
      "d": 438.77558333345223,
      "v": 72
    },
    {
      "midi": 62,
      "hit": false,
      "t": 477576.61020835344,
      "d": 198.97962500003632,
      "v": 81
    },
    {
      "midi": 66,
      "hit": false,
      "t": 477581.7122500201,
      "d": 234.6939166667289,
      "v": 77
    },
    {
      "midi": 57,
      "hit": false,
      "t": 477586.8142916868,
      "d": 71.42858333332697,
      "v": 71
    },
    {
      "midi": 36,
      "hit": false,
      "t": 477586.8142916868,
      "d": 209.18370833335212,
      "v": 66
    },
    {
      "midi": 57,
      "hit": false,
      "t": 477775.5898333535,
      "d": 117.34695833339356,
      "v": 37
    },
    {
      "midi": 62,
      "hit": false,
      "t": 477892.93679168687,
      "d": 117.34695833333535,
      "v": 42
    },
    {
      "midi": 66,
      "hit": false,
      "t": 477933.7531250202,
      "d": 86.73470833332976,
      "v": 25
    },
    {
      "midi": 36,
      "hit": false,
      "t": 477938.8551666869,
      "d": 122.44900000002235,
      "v": 31
    },
    {
      "midi": 57,
      "hit": false,
      "t": 478025.5898750202,
      "d": 81.63266666670097,
      "v": 30
    },
    {
      "midi": 62,
      "hit": false,
      "t": 478117.4266250202,
      "d": 102.04083333333256,
      "v": 44
    },
    {
      "midi": 57,
      "hit": false,
      "t": 478219.46745835355,
      "d": 86.73470833332976,
      "v": 36
    },
    {
      "midi": 62,
      "hit": false,
      "t": 478311.30420835357,
      "d": 112.24491666664835,
      "v": 53
    },
    {
      "midi": 48,
      "hit": false,
      "t": 478392.9368750202,
      "d": 545.9184583333554,
      "v": 39
    },
    {
      "midi": 57,
      "hit": false,
      "t": 478423.5491250202,
      "d": 76.53062500001397,
      "v": 37
    },
    {
      "midi": 62,
      "hit": false,
      "t": 478520.4879166869,
      "d": 71.42858333332697,
      "v": 34
    },
    {
      "midi": 64,
      "hit": false,
      "t": 478545.99812502024,
      "d": 76.53062500001397,
      "v": 33
    },
    {
      "midi": 57,
      "hit": false,
      "t": 478612.32466668694,
      "d": 86.73470833332976,
      "v": 36
    },
    {
      "midi": 62,
      "hit": false,
      "t": 478709.2634583536,
      "d": 86.73470833332976,
      "v": 32
    },
    {
      "midi": 64,
      "hit": false,
      "t": 478714.36550002027,
      "d": 96.93879166664556,
      "v": 42
    },
    {
      "midi": 57,
      "hit": false,
      "t": 478806.20225002023,
      "d": 86.73470833332976,
      "v": 42
    },
    {
      "midi": 62,
      "hit": false,
      "t": 478892.93695835356,
      "d": 91.83675000001676,
      "v": 44
    },
    {
      "midi": 64,
      "hit": false,
      "t": 478908.24308335356,
      "d": 81.63266666670097,
      "v": 42
    },
    {
      "midi": 52,
      "hit": false,
      "t": 478913.34512502025,
      "d": 469.3878333333414,
      "v": 30
    },
    {
      "midi": 57,
      "hit": false,
      "t": 478994.97779168695,
      "d": 86.73470833332976,
      "v": 40
    },
    {
      "midi": 62,
      "hit": false,
      "t": 479091.9165833536,
      "d": 86.73470833332976,
      "v": 45
    },
    {
      "midi": 64,
      "hit": false,
      "t": 479102.1206666869,
      "d": 76.53062500001397,
      "v": 31
    },
    {
      "midi": 57,
      "hit": false,
      "t": 479183.7533333536,
      "d": 86.73470833332976,
      "v": 39
    },
    {
      "midi": 62,
      "hit": false,
      "t": 479275.5900833536,
      "d": 96.93879166664556,
      "v": 46
    },
    {
      "midi": 64,
      "hit": false,
      "t": 479290.89620835363,
      "d": 66.32654166663997,
      "v": 33
    },
    {
      "midi": 57,
      "hit": false,
      "t": 479372.5288750203,
      "d": 86.73470833332976,
      "v": 47
    },
    {
      "midi": 54,
      "hit": false,
      "t": 479382.7329583536,
      "d": 484.6939583332278,
      "v": 58
    },
    {
      "midi": 62,
      "hit": false,
      "t": 479459.2635833536,
      "d": 91.83675000001676,
      "v": 42
    },
    {
      "midi": 64,
      "hit": false,
      "t": 479474.5697083536,
      "d": 71.42858333332697,
      "v": 35
    },
    {
      "midi": 57,
      "hit": false,
      "t": 479561.30441668694,
      "d": 81.63266666664276,
      "v": 44
    },
    {
      "midi": 62,
      "hit": false,
      "t": 479648.03912502027,
      "d": 86.73470833327156,
      "v": 49
    },
    {
      "midi": 64,
      "hit": false,
      "t": 479658.2432083536,
      "d": 66.32654166663997,
      "v": 32
    },
    {
      "midi": 57,
      "hit": false,
      "t": 479744.97791668685,
      "d": 81.63266666664276,
      "v": 50
    },
    {
      "midi": 62,
      "hit": false,
      "t": 479826.6105833535,
      "d": 102.04083333333256,
      "v": 55
    },
    {
      "midi": 64,
      "hit": false,
      "t": 479841.9167083535,
      "d": 76.53062500001397,
      "v": 35
    },
    {
      "midi": 55,
      "hit": false,
      "t": 479913.3452916868,
      "d": 255.1020833334187,
      "v": 73
    },
    {
      "midi": 57,
      "hit": false,
      "t": 479918.4473333535,
      "d": 86.73470833332976,
      "v": 53
    },
    {
      "midi": 62,
      "hit": false,
      "t": 480000.08000002016,
      "d": 91.83675000007497,
      "v": 32
    },
    {
      "midi": 64,
      "hit": false,
      "t": 480020.48816668685,
      "d": 51.02041666669538,
      "v": 42
    },
    {
      "midi": 57,
      "hit": false,
      "t": 480086.81470835354,
      "d": 91.83675000007497,
      "v": 44
    },
    {
      "midi": 54,
      "hit": false,
      "t": 480153.14125002024,
      "d": 285.7143333333661,
      "v": 55
    },
    {
      "midi": 62,
      "hit": false,
      "t": 480173.54941668693,
      "d": 107.14287500001956,
      "v": 49
    },
    {
      "midi": 64,
      "hit": false,
      "t": 480188.85554168693,
      "d": 91.83675000001676,
      "v": 38
    },
    {
      "midi": 57,
      "hit": false,
      "t": 480280.69229168695,
      "d": 86.73470833332976,
      "v": 53
    },
    {
      "midi": 62,
      "hit": false,
      "t": 480362.3249583536,
      "d": 112.24491666670656,
      "v": 49
    },
    {
      "midi": 64,
      "hit": false,
      "t": 480372.52904168697,
      "d": 102.04083333333256,
      "v": 43
    },
    {
      "midi": 52,
      "hit": false,
      "t": 480464.3657916869,
      "d": 285.7143333333661,
      "v": 43
    },
    {
      "midi": 57,
      "hit": false,
      "t": 480469.4678333536,
      "d": 91.83675000007497,
      "v": 57
    },
    {
      "midi": 62,
      "hit": false,
      "t": 480556.202541687,
      "d": 107.14287500001956,
      "v": 43
    },
    {
      "midi": 64,
      "hit": false,
      "t": 480576.6107083537,
      "d": 96.93879166664556,
      "v": 44
    },
    {
      "midi": 57,
      "hit": false,
      "t": 480653.1413333537,
      "d": 102.04083333327435,
      "v": 48
    },
    {
      "midi": 47,
      "hit": false,
      "t": 480739.876041687,
      "d": 285.7143333333079,
      "v": 44
    },
    {
      "midi": 62,
      "hit": false,
      "t": 480750.0801250203,
      "d": 96.93879166670376,
      "v": 38
    },
    {
      "midi": 64,
      "hit": false,
      "t": 480765.3862500203,
      "d": 91.83675000001676,
      "v": 40
    },
    {
      "midi": 57,
      "hit": false,
      "t": 480841.9168750203,
      "d": 96.93879166664556,
      "v": 47
    },
    {
      "midi": 62,
      "hit": false,
      "t": 480938.85566668696,
      "d": 107.14287500001956,
      "v": 38
    },
    {
      "midi": 64,
      "hit": false,
      "t": 480959.26383335365,
      "d": 86.73470833332976,
      "v": 41
    },
    {
      "midi": 50,
      "hit": false,
      "t": 481030.692416687,
      "d": 219.38779166672612,
      "v": 45
    },
    {
      "midi": 57,
      "hit": false,
      "t": 481040.8965000203,
      "d": 107.14287500001956,
      "v": 50
    },
    {
      "midi": 62,
      "hit": false,
      "t": 481137.835291687,
      "d": 107.14287500001956,
      "v": 27
    },
    {
      "midi": 64,
      "hit": false,
      "t": 481148.0393750203,
      "d": 91.83675000001676,
      "v": 36
    },
    {
      "midi": 57,
      "hit": false,
      "t": 481244.978166687,
      "d": 102.04083333339076,
      "v": 49
    },
    {
      "midi": 62,
      "hit": false,
      "t": 481326.6108333537,
      "d": 117.34695833339356,
      "v": 22
    },
    {
      "midi": 48,
      "hit": false,
      "t": 481326.6108333537,
      "d": 367.34700000006706,
      "v": 57
    },
    {
      "midi": 64,
      "hit": false,
      "t": 481341.9169583537,
      "d": 96.93879166670376,
      "v": 40
    },
    {
      "midi": 57,
      "hit": false,
      "t": 481433.75370835373,
      "d": 102.04083333339076,
      "v": 44
    },
    {
      "midi": 62,
      "hit": false,
      "t": 481535.7945416871,
      "d": 81.63266666670097,
      "v": 28
    },
    {
      "midi": 64,
      "hit": false,
      "t": 481545.99862502044,
      "d": 71.42858333338518,
      "v": 35
    },
    {
      "midi": 43,
      "hit": false,
      "t": 481597.01904168713,
      "d": 244.8980000000447,
      "v": 41
    },
    {
      "midi": 57,
      "hit": false,
      "t": 481627.63129168714,
      "d": 81.63266666664276,
      "v": 39
    },
    {
      "midi": 62,
      "hit": false,
      "t": 481714.36600002047,
      "d": 91.83675000001676,
      "v": 32
    },
    {
      "midi": 64,
      "hit": false,
      "t": 481729.6721250205,
      "d": 81.63266666670097,
      "v": 29
    },
    {
      "midi": 57,
      "hit": false,
      "t": 481806.2027500205,
      "d": 91.83675000007497,
      "v": 36
    },
    {
      "midi": 36,
      "hit": false,
      "t": 481847.01908335387,
      "d": 76.53062500001397,
      "v": 32
    },
    {
      "midi": 62,
      "hit": false,
      "t": 481898.03950002056,
      "d": 91.83675000001676,
      "v": 27
    },
    {
      "midi": 64,
      "hit": false,
      "t": 481923.5497083539,
      "d": 61.224500000011176,
      "v": 25
    },
    {
      "midi": 57,
      "hit": false,
      "t": 481989.8762500206,
      "d": 107.14287500001956,
      "v": 40
    },
    {
      "midi": 62,
      "hit": false,
      "t": 482081.7130000206,
      "d": 540.8164166667266,
      "v": 24
    },
    {
      "midi": 64,
      "hit": false,
      "t": 482097.0191250206,
      "d": 525.5102916667238,
      "v": 29
    },
    {
      "midi": 57,
      "hit": false,
      "t": 482188.8558750206,
      "d": 392.85720833338564,
      "v": 46
    },
    {
      "midi": 24,
      "hit": false,
      "t": 482188.8558750206,
      "d": 571.4286666667322,
      "v": 39
    },
    {
      "midi": 36,
      "hit": false,
      "t": 482219.4681250206,
      "d": 545.9184583334136,
      "v": 1
    }
  ]
}