{
  "jsonPath": "Rock/Indie Rock/The Clientele/isnt-life-strange.json",
  "path": "Rock\\Indie Rock\\The Clientele\\Isnt Life Strange.mid",
  "name": "Isnt Life Strange",
  "difficulty": "Advanced",
  "bpm": 120,
  "notes": [
    {
      "midi": 79,
      "hit": false,
      "t": 3250,
      "d": 1630.208333333333,
      "v": 127
    },
    {
      "midi": 59,
      "hit": false,
      "t": 3250,
      "d": 1479.166666666667,
      "v": 102
    },
    {
      "midi": 67,
      "hit": false,
      "t": 3250,
      "d": 1479.166666666667,
      "v": 110
    },
    {
      "midi": 55,
      "hit": false,
      "t": 3255.2083333333335,
      "d": 1187.5000000000005,
      "v": 68
    },
    {
      "midi": 43,
      "hit": false,
      "t": 3255.2083333333335,
      "d": 1203.1250000000005,
      "v": 71
    },
    {
      "midi": 62,
      "hit": false,
      "t": 3255.2083333333335,
      "d": 1515.6250000000005,
      "v": 108
    },
    {
      "midi": 54,
      "hit": false,
      "t": 4848.958333333334,
      "d": 1208.333333333334,
      "v": 74
    },
    {
      "midi": 42,
      "hit": false,
      "t": 4848.958333333334,
      "d": 1302.083333333334,
      "v": 82
    },
    {
      "midi": 62,
      "hit": false,
      "t": 4848.958333333334,
      "d": 1578.125,
      "v": 96
    },
    {
      "midi": 66,
      "hit": false,
      "t": 4869.791666666667,
      "d": 468.75,
      "v": 103
    },
    {
      "midi": 57,
      "hit": false,
      "t": 4869.791666666667,
      "d": 1510.416666666667,
      "v": 96
    },
    {
      "midi": 55,
      "hit": false,
      "t": 4885.416666666667,
      "d": 46.875,
      "v": 56
    },
    {
      "midi": 67,
      "hit": false,
      "t": 5395.833333333334,
      "d": 432.29166666666697,
      "v": 114
    },
    {
      "midi": 78,
      "hit": false,
      "t": 5661.458333333333,
      "d": 395.83333333333303,
      "v": 123
    },
    {
      "midi": 66,
      "hit": false,
      "t": 5947.916666666668,
      "d": 453.1249999999991,
      "v": 101
    },
    {
      "midi": 79,
      "hit": false,
      "t": 6062.499999999999,
      "d": 187.5,
      "v": 107
    },
    {
      "midi": 78,
      "hit": false,
      "t": 6234.374999999999,
      "d": 229.16666666666697,
      "v": 101
    },
    {
      "midi": 67,
      "hit": false,
      "t": 6473.958333333334,
      "d": 442.70833333333303,
      "v": 103
    },
    {
      "midi": 40,
      "hit": false,
      "t": 6473.958333333334,
      "d": 1203.125,
      "v": 71
    },
    {
      "midi": 59,
      "hit": false,
      "t": 6473.958333333334,
      "d": 1484.375000000001,
      "v": 101
    },
    {
      "midi": 64,
      "hit": false,
      "t": 6473.958333333334,
      "d": 1567.708333333334,
      "v": 97
    },
    {
      "midi": 79,
      "hit": false,
      "t": 6489.583333333333,
      "d": 1604.166666666666,
      "v": 120
    },
    {
      "midi": 52,
      "hit": false,
      "t": 6494.791666666667,
      "d": 1208.333333333334,
      "v": 67
    },
    {
      "midi": 62,
      "hit": false,
      "t": 6494.791666666667,
      "d": 1546.875000000001,
      "v": 110
    },
    {
      "midi": 69,
      "hit": false,
      "t": 7026.041666666667,
      "d": 432.29166666666697,
      "v": 112
    },
    {
      "midi": 67,
      "hit": false,
      "t": 7567.708333333334,
      "d": 421.8750000000009,
      "v": 96
    },
    {
      "midi": 66,
      "hit": false,
      "t": 8083.333333333335,
      "d": 1239.5833333333312,
      "v": 101
    },
    {
      "midi": 38,
      "hit": false,
      "t": 8088.541666666668,
      "d": 1177.0833333333321,
      "v": 51
    },
    {
      "midi": 50,
      "hit": false,
      "t": 8114.583333333335,
      "d": 1124.999999999999,
      "v": 41
    },
    {
      "midi": 78,
      "hit": false,
      "t": 8921.875,
      "d": 354.16666666666606,
      "v": 121
    },
    {
      "midi": 79,
      "hit": false,
      "t": 9281.25,
      "d": 223.95833333333394,
      "v": 108
    },
    {
      "midi": 78,
      "hit": false,
      "t": 9484.375,
      "d": 203.125,
      "v": 94
    },
    {
      "midi": 64,
      "hit": false,
      "t": 9671.874999999998,
      "d": 598.9583333333339,
      "v": 127
    },
    {
      "midi": 48,
      "hit": false,
      "t": 9692.708333333332,
      "d": 1104.1666666666679,
      "v": 65
    },
    {
      "midi": 36,
      "hit": false,
      "t": 9692.708333333332,
      "d": 1109.3750000000018,
      "v": 68
    },
    {
      "midi": 79,
      "hit": false,
      "t": 9713.541666666666,
      "d": 1624.9999999999982,
      "v": 117
    },
    {
      "midi": 66,
      "hit": false,
      "t": 10213.541666666666,
      "d": 515.625,
      "v": 121
    },
    {
      "midi": 67,
      "hit": false,
      "t": 10729.166666666666,
      "d": 572.9166666666661,
      "v": 114
    },
    {
      "midi": 71,
      "hit": false,
      "t": 11244.791666666666,
      "d": 562.5,
      "v": 112
    },
    {
      "midi": 35,
      "hit": false,
      "t": 11260.416666666666,
      "d": 1072.916666666666,
      "v": 65
    },
    {
      "midi": 47,
      "hit": false,
      "t": 11260.416666666666,
      "d": 1130.2083333333321,
      "v": 63
    },
    {
      "midi": 72,
      "hit": false,
      "t": 11776.041666666666,
      "d": 541.6666666666661,
      "v": 110
    },
    {
      "midi": 84,
      "hit": false,
      "t": 12140.624999999998,
      "d": 369.79166666666606,
      "v": 119
    },
    {
      "midi": 71,
      "hit": false,
      "t": 12307.291666666666,
      "d": 572.9166666666642,
      "v": 96
    },
    {
      "midi": 83,
      "hit": false,
      "t": 12526.041666666664,
      "d": 458.3333333333321,
      "v": 111
    },
    {
      "midi": 67,
      "hit": false,
      "t": 12901.041666666664,
      "d": 473.95833333333394,
      "v": 109
    },
    {
      "midi": 45,
      "hit": false,
      "t": 12906.249999999998,
      "d": 1234.375,
      "v": 67
    },
    {
      "midi": 79,
      "hit": false,
      "t": 12916.666666666664,
      "d": 1708.3333333333321,
      "v": 114
    },
    {
      "midi": 57,
      "hit": false,
      "t": 12916.666666666664,
      "d": 1062.5,
      "v": 60
    },
    {
      "midi": 62,
      "hit": false,
      "t": 13354.166666666664,
      "d": 239.58333333333394,
      "v": 109
    },
    {
      "midi": 64,
      "hit": false,
      "t": 13557.291666666664,
      "d": 947.9166666666679,
      "v": 111
    },
    {
      "midi": 43,
      "hit": false,
      "t": 14536.458333333332,
      "d": 854.1666666666679,
      "v": 73
    },
    {
      "midi": 59,
      "hit": false,
      "t": 14541.666666666666,
      "d": 723.9583333333339,
      "v": 105
    },
    {
      "midi": 67,
      "hit": false,
      "t": 14541.666666666666,
      "d": 723.9583333333339,
      "v": 114
    },
    {
      "midi": 62,
      "hit": false,
      "t": 14541.666666666666,
      "d": 765.625,
      "v": 112
    },
    {
      "midi": 57,
      "hit": false,
      "t": 15359.375,
      "d": 718.7500000000018,
      "v": 96
    },
    {
      "midi": 62,
      "hit": false,
      "t": 15359.375,
      "d": 770.8333333333358,
      "v": 113
    },
    {
      "midi": 66,
      "hit": false,
      "t": 15364.583333333334,
      "d": 760.4166666666679,
      "v": 95
    },
    {
      "midi": 50,
      "hit": false,
      "t": 15375,
      "d": 364.58333333333394,
      "v": 76
    },
    {
      "midi": 43,
      "hit": false,
      "t": 16203.125000000002,
      "d": 1223.958333333334,
      "v": 64
    },
    {
      "midi": 59,
      "hit": false,
      "t": 16203.125000000002,
      "d": 1442.708333333334,
      "v": 98
    },
    {
      "midi": 67,
      "hit": false,
      "t": 16203.125000000002,
      "d": 1520.833333333334,
      "v": 108
    },
    {
      "midi": 62,
      "hit": false,
      "t": 16203.125000000002,
      "d": 1526.041666666666,
      "v": 92
    },
    {
      "midi": 66,
      "hit": false,
      "t": 17791.666666666668,
      "d": 515.625,
      "v": 99
    },
    {
      "midi": 62,
      "hit": false,
      "t": 17791.666666666668,
      "d": 1593.7500000000036,
      "v": 102
    },
    {
      "midi": 57,
      "hit": false,
      "t": 17796.875,
      "d": 1520.8333333333394,
      "v": 97
    },
    {
      "midi": 54,
      "hit": false,
      "t": 17802.083333333332,
      "d": 1223.9583333333394,
      "v": 66
    },
    {
      "midi": 42,
      "hit": false,
      "t": 17812.5,
      "d": 1203.1250000000036,
      "v": 67
    },
    {
      "midi": 67,
      "hit": false,
      "t": 18296.875,
      "d": 583.3333333333358,
      "v": 109
    },
    {
      "midi": 69,
      "hit": false,
      "t": 18848.958333333336,
      "d": 489.58333333333576,
      "v": 105
    },
    {
      "midi": 64,
      "hit": false,
      "t": 19416.66666666667,
      "d": 1619.7916666666715,
      "v": 88
    },
    {
      "midi": 59,
      "hit": false,
      "t": 19421.875000000004,
      "d": 1588.5416666666715,
      "v": 91
    },
    {
      "midi": 67,
      "hit": false,
      "t": 19421.875000000004,
      "d": 1588.5416666666715,
      "v": 96
    },
    {
      "midi": 52,
      "hit": false,
      "t": 19432.29166666667,
      "d": 1322.9166666666679,
      "v": 54
    },
    {
      "midi": 40,
      "hit": false,
      "t": 19432.29166666667,
      "d": 1333.3333333333358,
      "v": 54
    },
    {
      "midi": 67,
      "hit": false,
      "t": 21093.75000000001,
      "d": 458.3333333333321,
      "v": 99
    },
    {
      "midi": 59,
      "hit": false,
      "t": 21093.75000000001,
      "d": 1453.125,
      "v": 91
    },
    {
      "midi": 38,
      "hit": false,
      "t": 21104.16666666668,
      "d": 1166.6666666666642,
      "v": 57
    },
    {
      "midi": 62,
      "hit": false,
      "t": 21104.16666666668,
      "d": 1333.3333333333321,
      "v": 114
    },
    {
      "midi": 50,
      "hit": false,
      "t": 21109.37500000001,
      "d": 1234.375,
      "v": 46
    },
    {
      "midi": 67,
      "hit": false,
      "t": 21640.62500000001,
      "d": 390.625,
      "v": 101
    },
    {
      "midi": 66,
      "hit": false,
      "t": 22125.00000000001,
      "d": 463.5416666666679,
      "v": 104
    },
    {
      "midi": 64,
      "hit": false,
      "t": 22651.04166666668,
      "d": 1583.3333333333321,
      "v": 91
    },
    {
      "midi": 48,
      "hit": false,
      "t": 22656.25000000001,
      "d": 1223.9583333333358,
      "v": 57
    },
    {
      "midi": 60,
      "hit": false,
      "t": 22656.25000000001,
      "d": 1302.0833333333358,
      "v": 91
    },
    {
      "midi": 36,
      "hit": false,
      "t": 22666.66666666668,
      "d": 1223.9583333333358,
      "v": 53
    },
    {
      "midi": 55,
      "hit": false,
      "t": 22677.083333333347,
      "d": 1364.5833333333321,
      "v": 89
    },
    {
      "midi": 59,
      "hit": false,
      "t": 24281.25000000001,
      "d": 1526.0416666666679,
      "v": 103
    },
    {
      "midi": 67,
      "hit": false,
      "t": 24286.458333333343,
      "d": 390.625,
      "v": 110
    },
    {
      "midi": 62,
      "hit": false,
      "t": 24286.458333333343,
      "d": 1385.4166666666715,
      "v": 110
    },
    {
      "midi": 35,
      "hit": false,
      "t": 24296.87500000001,
      "d": 1333.3333333333358,
      "v": 51
    },
    {
      "midi": 47,
      "hit": false,
      "t": 24302.083333333343,
      "d": 1369.7916666666715,
      "v": 54
    },
    {
      "midi": 67,
      "hit": false,
      "t": 24812.50000000001,
      "d": 406.25,
      "v": 114
    },
    {
      "midi": 66,
      "hit": false,
      "t": 25307.29166666668,
      "d": 536.4583333333321,
      "v": 103
    },
    {
      "midi": 60,
      "hit": false,
      "t": 25901.04166666668,
      "d": 1265.625,
      "v": 87
    },
    {
      "midi": 57,
      "hit": false,
      "t": 25911.458333333347,
      "d": 1416.6666666666642,
      "v": 84
    },
    {
      "midi": 64,
      "hit": false,
      "t": 25911.458333333347,
      "d": 1552.0833333333321,
      "v": 87
    },
    {
      "midi": 45,
      "hit": false,
      "t": 25921.875000000015,
      "d": 1052.0833333333321,
      "v": 67
    },
    {
      "midi": 33,
      "hit": false,
      "t": 25927.083333333347,
      "d": 979.1666666666679,
      "v": 61
    },
    {
      "midi": 50,
      "hit": false,
      "t": 27541.66666666668,
      "d": 1645.8333333333285,
      "v": 66
    },
    {
      "midi": 38,
      "hit": false,
      "t": 27541.66666666668,
      "d": 1677.0833333333285,
      "v": 73
    },
    {
      "midi": 62,
      "hit": false,
      "t": 27546.87500000001,
      "d": 760.4166666666679,
      "v": 111
    },
    {
      "midi": 59,
      "hit": false,
      "t": 27552.083333333343,
      "d": 713.5416666666679,
      "v": 102
    },
    {
      "midi": 67,
      "hit": false,
      "t": 27552.083333333343,
      "d": 713.5416666666679,
      "v": 109
    },
    {
      "midi": 57,
      "hit": false,
      "t": 28359.37500000001,
      "d": 692.7083333333321,
      "v": 98
    },
    {
      "midi": 62,
      "hit": false,
      "t": 28359.37500000001,
      "d": 744.7916666666642,
      "v": 114
    },
    {
      "midi": 66,
      "hit": false,
      "t": 28359.37500000001,
      "d": 749.9999999999964,
      "v": 88
    },
    {
      "midi": 59,
      "hit": false,
      "t": 29166.666666666675,
      "d": 1177.0833333333321,
      "v": 97
    },
    {
      "midi": 62,
      "hit": false,
      "t": 29166.666666666675,
      "d": 1541.6666666666642,
      "v": 102
    },
    {
      "midi": 67,
      "hit": false,
      "t": 29171.875000000007,
      "d": 1520.8333333333321,
      "v": 110
    },
    {
      "midi": 43,
      "hit": false,
      "t": 29171.875000000007,
      "d": 1546.875,
      "v": 71
    },
    {
      "midi": 62,
      "hit": false,
      "t": 30765.625000000007,
      "d": 1557.2916666666679,
      "v": 105
    },
    {
      "midi": 42,
      "hit": false,
      "t": 30770.83333333334,
      "d": 1177.0833333333358,
      "v": 77
    },
    {
      "midi": 66,
      "hit": false,
      "t": 30776.04166666667,
      "d": 505.20833333333576,
      "v": 103
    },
    {
      "midi": 54,
      "hit": false,
      "t": 30776.04166666667,
      "d": 1140.6250000000036,
      "v": 70
    },
    {
      "midi": 57,
      "hit": false,
      "t": 30776.04166666667,
      "d": 1463.5416666666715,
      "v": 106
    },
    {
      "midi": 67,
      "hit": false,
      "t": 31291.666666666675,
      "d": 500,
      "v": 110
    },
    {
      "midi": 69,
      "hit": false,
      "t": 31822.916666666675,
      "d": 447.9166666666679,
      "v": 108
    },
    {
      "midi": 59,
      "hit": false,
      "t": 32348.958333333343,
      "d": 1588.541666666657,
      "v": 93
    },
    {
      "midi": 64,
      "hit": false,
      "t": 32348.958333333343,
      "d": 1619.791666666657,
      "v": 90
    },
    {
      "midi": 52,
      "hit": false,
      "t": 32354.166666666675,
      "d": 1453.1249999999964,
      "v": 60
    },
    {
      "midi": 67,
      "hit": false,
      "t": 32354.166666666675,
      "d": 1572.9166666666606,
      "v": 92
    },
    {
      "midi": 40,
      "hit": false,
      "t": 32359.375000000007,
      "d": 1458.3333333333285,
      "v": 62
    },
    {
      "midi": 67,
      "hit": false,
      "t": 34031.25,
      "d": 463.5416666666715,
      "v": 100
    },
    {
      "midi": 62,
      "hit": false,
      "t": 34031.25,
      "d": 1500,
      "v": 114
    },
    {
      "midi": 59,
      "hit": false,
      "t": 34031.25,
      "d": 1515.625,
      "v": 86
    },
    {
      "midi": 38,
      "hit": false,
      "t": 34036.458333333336,
      "d": 1479.1666666666642,
      "v": 68
    },
    {
      "midi": 50,
      "hit": false,
      "t": 34036.458333333336,
      "d": 1479.1666666666642,
      "v": 63
    },
    {
      "midi": 67,
      "hit": false,
      "t": 34567.708333333336,
      "d": 515.625,
      "v": 105
    },
    {
      "midi": 66,
      "hit": false,
      "t": 35125,
      "d": 473.95833333333576,
      "v": 96
    },
    {
      "midi": 64,
      "hit": false,
      "t": 35651.04166666667,
      "d": 1572.916666666657,
      "v": 93
    },
    {
      "midi": 55,
      "hit": false,
      "t": 35661.458333333336,
      "d": 1442.7083333333285,
      "v": 97
    },
    {
      "midi": 60,
      "hit": false,
      "t": 35661.458333333336,
      "d": 1453.1249999999927,
      "v": 93
    },
    {
      "midi": 48,
      "hit": false,
      "t": 35666.66666666667,
      "d": 1354.1666666666642,
      "v": 60
    },
    {
      "midi": 36,
      "hit": false,
      "t": 35666.66666666667,
      "d": 1624.9999999999927,
      "v": 59
    },
    {
      "midi": 67,
      "hit": false,
      "t": 37281.24999999999,
      "d": 432.2916666666715,
      "v": 113
    },
    {
      "midi": 35,
      "hit": false,
      "t": 37281.24999999999,
      "d": 1395.833333333343,
      "v": 61
    },
    {
      "midi": 62,
      "hit": false,
      "t": 37286.45833333333,
      "d": 1458.333333333343,
      "v": 110
    },
    {
      "midi": 59,
      "hit": false,
      "t": 37286.45833333333,
      "d": 1505.208333333343,
      "v": 101
    },
    {
      "midi": 47,
      "hit": false,
      "t": 37291.666666666664,
      "d": 1432.2916666666715,
      "v": 47
    },
    {
      "midi": 67,
      "hit": false,
      "t": 37812.5,
      "d": 390.625,
      "v": 100
    },
    {
      "midi": 66,
      "hit": false,
      "t": 38317.708333333336,
      "d": 510.4166666666715,
      "v": 101
    },
    {
      "midi": 64,
      "hit": false,
      "t": 38875.00000000001,
      "d": 1583.3333333333358,
      "v": 101
    },
    {
      "midi": 60,
      "hit": false,
      "t": 38880.20833333334,
      "d": 1416.6666666666642,
      "v": 99
    },
    {
      "midi": 57,
      "hit": false,
      "t": 38880.20833333334,
      "d": 1494.7916666666642,
      "v": 94
    },
    {
      "midi": 33,
      "hit": false,
      "t": 38885.41666666668,
      "d": 1666.6666666666642,
      "v": 62
    },
    {
      "midi": 45,
      "hit": false,
      "t": 38895.83333333334,
      "d": 1619.7916666666642,
      "v": 70
    },
    {
      "midi": 38,
      "hit": false,
      "t": 40520.83333333334,
      "d": 1567.7083333333285,
      "v": 80
    },
    {
      "midi": 59,
      "hit": false,
      "t": 40526.04166666668,
      "d": 692.7083333333285,
      "v": 100
    },
    {
      "midi": 67,
      "hit": false,
      "t": 40526.04166666668,
      "d": 708.3333333333285,
      "v": 109
    },
    {
      "midi": 62,
      "hit": false,
      "t": 40526.04166666668,
      "d": 749.9999999999927,
      "v": 106
    },
    {
      "midi": 62,
      "hit": false,
      "t": 41317.708333333336,
      "d": 692.7083333333285,
      "v": 120
    },
    {
      "midi": 57,
      "hit": false,
      "t": 41328.125,
      "d": 708.3333333333358,
      "v": 98
    },
    {
      "midi": 66,
      "hit": false,
      "t": 41338.541666666664,
      "d": 692.7083333333358,
      "v": 92
    },
    {
      "midi": 64,
      "hit": false,
      "t": 42145.833333333336,
      "d": 963.5416666666642,
      "v": 100
    },
    {
      "midi": 36,
      "hit": false,
      "t": 42145.833333333336,
      "d": 1203.1249999999927,
      "v": 60
    },
    {
      "midi": 60,
      "hit": false,
      "t": 42156.25,
      "d": 1088.5416666666642,
      "v": 91
    },
    {
      "midi": 48,
      "hit": false,
      "t": 42156.25,
      "d": 1145.8333333333285,
      "v": 56
    },
    {
      "midi": 55,
      "hit": false,
      "t": 42156.25,
      "d": 1156.2499999999927,
      "v": 91
    },
    {
      "midi": 64,
      "hit": false,
      "t": 43260.416666666664,
      "d": 473.9583333333285,
      "v": 109
    },
    {
      "midi": 55,
      "hit": false,
      "t": 43791.66666666666,
      "d": 364.58333333333576,
      "v": 99
    },
    {
      "midi": 64,
      "hit": false,
      "t": 43791.66666666666,
      "d": 401.0416666666715,
      "v": 110
    },
    {
      "midi": 36,
      "hit": false,
      "t": 43791.66666666666,
      "d": 1161.4583333333285,
      "v": 61
    },
    {
      "midi": 60,
      "hit": false,
      "t": 43796.87499999999,
      "d": 437.5,
      "v": 99
    },
    {
      "midi": 48,
      "hit": false,
      "t": 43796.87499999999,
      "d": 1145.8333333333285,
      "v": 55
    },
    {
      "midi": 60,
      "hit": false,
      "t": 44276.04166666666,
      "d": 484.375,
      "v": 105
    },
    {
      "midi": 66,
      "hit": false,
      "t": 44291.66666666666,
      "d": 447.9166666666715,
      "v": 104
    },
    {
      "midi": 57,
      "hit": false,
      "t": 44296.87499999999,
      "d": 453.125,
      "v": 100
    },
    {
      "midi": 67,
      "hit": false,
      "t": 44802.08333333332,
      "d": 447.91666666666424,
      "v": 104
    },
    {
      "midi": 64,
      "hit": false,
      "t": 44807.29166666666,
      "d": 296.8749999999927,
      "v": 97
    },
    {
      "midi": 60,
      "hit": false,
      "t": 44807.29166666666,
      "d": 380.2083333333285,
      "v": 106
    },
    {
      "midi": 55,
      "hit": false,
      "t": 45333.33333333332,
      "d": 1213.5416666666788,
      "v": 101
    },
    {
      "midi": 59,
      "hit": false,
      "t": 45333.33333333332,
      "d": 1239.5833333333503,
      "v": 97
    },
    {
      "midi": 62,
      "hit": false,
      "t": 45333.33333333332,
      "d": 1239.5833333333503,
      "v": 108
    },
    {
      "midi": 43,
      "hit": false,
      "t": 45338.54166666666,
      "d": 2848.958333333365,
      "v": 68
    },
    {
      "midi": 31,
      "hit": false,
      "t": 45343.74999999999,
      "d": 2776.0416666666933,
      "v": 69
    },
    {
      "midi": 59,
      "hit": false,
      "t": 46635.41666666667,
      "d": 354.1666666666715,
      "v": 92
    },
    {
      "midi": 55,
      "hit": false,
      "t": 46640.62500000001,
      "d": 328.125,
      "v": 80
    },
    {
      "midi": 62,
      "hit": false,
      "t": 46640.62500000001,
      "d": 354.1666666666715,
      "v": 96
    },
    {
      "midi": 59,
      "hit": false,
      "t": 47046.875000000015,
      "d": 348.95833333333576,
      "v": 88
    },
    {
      "midi": 55,
      "hit": false,
      "t": 47046.875000000015,
      "d": 432.2916666666715,
      "v": 87
    },
    {
      "midi": 62,
      "hit": false,
      "t": 47052.08333333335,
      "d": 390.625,
      "v": 107
    },
    {
      "midi": 66,
      "hit": false,
      "t": 47531.25000000002,
      "d": 546.875,
      "v": 110
    },
    {
      "midi": 67,
      "hit": false,
      "t": 48104.166666666686,
      "d": 385.4166666666715,
      "v": 105
    },
    {
      "midi": 60,
      "hit": false,
      "t": 48604.16666666669,
      "d": 1333.3333333333358,
      "v": 101
    },
    {
      "midi": 57,
      "hit": false,
      "t": 48604.16666666669,
      "d": 1473.9583333333358,
      "v": 99
    },
    {
      "midi": 45,
      "hit": false,
      "t": 48604.16666666669,
      "d": 1515.6250000000073,
      "v": 69
    },
    {
      "midi": 64,
      "hit": false,
      "t": 48604.16666666669,
      "d": 1619.7916666666715,
      "v": 101
    },
    {
      "midi": 33,
      "hit": false,
      "t": 48609.37500000003,
      "d": 1385.4166666666642,
      "v": 70
    },
    {
      "midi": 67,
      "hit": false,
      "t": 50223.958333333365,
      "d": 1552.0833333333285,
      "v": 102
    },
    {
      "midi": 59,
      "hit": false,
      "t": 50234.37500000003,
      "d": 1484.375,
      "v": 98
    },
    {
      "midi": 35,
      "hit": false,
      "t": 50239.583333333365,
      "d": 1265.625,
      "v": 76
    },
    {
      "midi": 62,
      "hit": false,
      "t": 50239.583333333365,
      "d": 1291.6666666666642,
      "v": 104
    },
    {
      "midi": 47,
      "hit": false,
      "t": 50244.7916666667,
      "d": 1473.9583333333285,
      "v": 70
    },
    {
      "midi": 60,
      "hit": false,
      "t": 51838.54166666669,
      "d": 1390.625,
      "v": 90
    },
    {
      "midi": 36,
      "hit": false,
      "t": 51838.54166666669,
      "d": 1437.5,
      "v": 76
    },
    {
      "midi": 64,
      "hit": false,
      "t": 51838.54166666669,
      "d": 1593.75,
      "v": 94
    },
    {
      "midi": 48,
      "hit": false,
      "t": 51843.75000000003,
      "d": 1531.25,
      "v": 72
    },
    {
      "midi": 55,
      "hit": false,
      "t": 51848.958333333365,
      "d": 1296.8749999999927,
      "v": 83
    },
    {
      "midi": 57,
      "hit": false,
      "t": 51906.25000000003,
      "d": 41.66666666666424,
      "v": 23
    },
    {
      "midi": 50,
      "hit": false,
      "t": 53526.04166666669,
      "d": 1156.25,
      "v": 78
    },
    {
      "midi": 67,
      "hit": false,
      "t": 53526.04166666669,
      "d": 1218.75,
      "v": 110
    },
    {
      "midi": 60,
      "hit": false,
      "t": 53526.04166666669,
      "d": 1223.9583333333358,
      "v": 98
    },
    {
      "midi": 62,
      "hit": false,
      "t": 53526.04166666669,
      "d": 1244.7916666666715,
      "v": 104
    },
    {
      "midi": 64,
      "hit": false,
      "t": 53526.04166666669,
      "d": 1244.7916666666715,
      "v": 92
    },
    {
      "midi": 38,
      "hit": false,
      "t": 53531.25000000003,
      "d": 1203.125,
      "v": 82
    },
    {
      "midi": 79,
      "hit": false,
      "t": 55151.04166666666,
      "d": 1635.4166666666642,
      "v": 127
    },
    {
      "midi": 43,
      "hit": false,
      "t": 55156.25000000004,
      "d": 1234.375,
      "v": 67
    },
    {
      "midi": 59,
      "hit": false,
      "t": 55156.25000000004,
      "d": 1421.875,
      "v": 96
    },
    {
      "midi": 62,
      "hit": false,
      "t": 55156.25000000004,
      "d": 1536.4583333333358,
      "v": 105
    },
    {
      "midi": 67,
      "hit": false,
      "t": 55156.25000000004,
      "d": 1557.2916666666715,
      "v": 109
    },
    {
      "midi": 31,
      "hit": false,
      "t": 55161.45833333337,
      "d": 1156.25,
      "v": 68
    },
    {
      "midi": 54,
      "hit": false,
      "t": 56770.83333333338,
      "d": 1437.5,
      "v": 74
    },
    {
      "midi": 42,
      "hit": false,
      "t": 56770.83333333338,
      "d": 1463.5416666666642,
      "v": 70
    },
    {
      "midi": 57,
      "hit": false,
      "t": 56770.83333333338,
      "d": 1515.625,
      "v": 98
    },
    {
      "midi": 66,
      "hit": false,
      "t": 56770.83333333338,
      "d": 1536.4583333333358,
      "v": 99
    },
    {
      "midi": 62,
      "hit": false,
      "t": 56770.83333333338,
      "d": 1572.9166666666715,
      "v": 101
    },
    {
      "midi": 78,
      "hit": false,
      "t": 57567.70833333332,
      "d": 395.83333333333576,
      "v": 123
    },
    {
      "midi": 79,
      "hit": false,
      "t": 57968.74999999999,
      "d": 187.5,
      "v": 107
    },
    {
      "midi": 78,
      "hit": false,
      "t": 58140.62499999999,
      "d": 229.16666666666424,
      "v": 101
    },
    {
      "midi": 79,
      "hit": false,
      "t": 58395.83333333332,
      "d": 1604.1666666666715,
      "v": 120
    },
    {
      "midi": 47,
      "hit": false,
      "t": 58395.83333333339,
      "d": 83.33333333333576,
      "v": 19
    },
    {
      "midi": 52,
      "hit": false,
      "t": 58395.83333333339,
      "d": 1468.75,
      "v": 64
    },
    {
      "midi": 40,
      "hit": false,
      "t": 58401.04166666672,
      "d": 1437.5,
      "v": 71
    },
    {
      "midi": 59,
      "hit": false,
      "t": 58401.04166666672,
      "d": 1479.1666666666642,
      "v": 96
    },
    {
      "midi": 67,
      "hit": false,
      "t": 58401.04166666672,
      "d": 1510.4166666666642,
      "v": 103
    },
    {
      "midi": 64,
      "hit": false,
      "t": 58401.04166666672,
      "d": 1572.9166666666642,
      "v": 97
    },
    {
      "midi": 62,
      "hit": false,
      "t": 60015.62500000005,
      "d": 1239.5833333333358,
      "v": 94
    },
    {
      "midi": 57,
      "hit": false,
      "t": 60015.62500000005,
      "d": 1463.5416666666715,
      "v": 93
    },
    {
      "midi": 66,
      "hit": false,
      "t": 60015.62500000005,
      "d": 1484.3750000000073,
      "v": 83
    },
    {
      "midi": 38,
      "hit": false,
      "t": 60020.83333333339,
      "d": 1364.5833333333358,
      "v": 57
    },
    {
      "midi": 50,
      "hit": false,
      "t": 60020.83333333339,
      "d": 1364.5833333333358,
      "v": 61
    },
    {
      "midi": 78,
      "hit": false,
      "t": 60822.91666666666,
      "d": 359.375,
      "v": 121
    },
    {
      "midi": 79,
      "hit": false,
      "t": 61187.49999999999,
      "d": 223.95833333333576,
      "v": 108
    },
    {
      "midi": 78,
      "hit": false,
      "t": 61390.62499999999,
      "d": 203.125,
      "v": 94
    },
    {
      "midi": 79,
      "hit": false,
      "t": 61619.79166666666,
      "d": 1625,
      "v": 117
    },
    {
      "midi": 48,
      "hit": false,
      "t": 61640.62500000006,
      "d": 1359.375,
      "v": 53
    },
    {
      "midi": 60,
      "hit": false,
      "t": 61640.62500000006,
      "d": 1421.875,
      "v": 82
    },
    {
      "midi": 55,
      "hit": false,
      "t": 61640.62500000006,
      "d": 1432.2916666666642,
      "v": 83
    },
    {
      "midi": 64,
      "hit": false,
      "t": 61640.62500000006,
      "d": 1583.3333333333285,
      "v": 85
    },
    {
      "midi": 36,
      "hit": false,
      "t": 61640.62500000006,
      "d": 1651.0416666666642,
      "v": 50
    },
    {
      "midi": 47,
      "hit": false,
      "t": 63260.41666666672,
      "d": 1291.6666666666642,
      "v": 51
    },
    {
      "midi": 62,
      "hit": false,
      "t": 63260.41666666672,
      "d": 1494.7916666666642,
      "v": 87
    },
    {
      "midi": 59,
      "hit": false,
      "t": 63260.41666666672,
      "d": 1505.2083333333285,
      "v": 85
    },
    {
      "midi": 67,
      "hit": false,
      "t": 63260.41666666672,
      "d": 1510.4166666666642,
      "v": 95
    },
    {
      "midi": 35,
      "hit": false,
      "t": 63260.41666666672,
      "d": 1604.1666666666642,
      "v": 59
    },
    {
      "midi": 84,
      "hit": false,
      "t": 64046.87499999999,
      "d": 369.79166666666424,
      "v": 119
    },
    {
      "midi": 83,
      "hit": false,
      "t": 64432.29166666666,
      "d": 463.54166666666424,
      "v": 111
    },
    {
      "midi": 79,
      "hit": false,
      "t": 64822.91666666666,
      "d": 1708.3333333333285,
      "v": 114
    },
    {
      "midi": 57,
      "hit": false,
      "t": 64885.41666666672,
      "d": 1416.6666666666788,
      "v": 86
    },
    {
      "midi": 45,
      "hit": false,
      "t": 64885.41666666672,
      "d": 1557.2916666666788,
      "v": 65
    },
    {
      "midi": 33,
      "hit": false,
      "t": 64885.41666666672,
      "d": 1630.2083333333358,
      "v": 69
    },
    {
      "midi": 60,
      "hit": false,
      "t": 64890.62500000006,
      "d": 1291.6666666666715,
      "v": 76
    },
    {
      "midi": 67,
      "hit": false,
      "t": 64890.62500000006,
      "d": 1427.083333333343,
      "v": 57
    },
    {
      "midi": 64,
      "hit": false,
      "t": 64890.62500000006,
      "d": 1505.208333333343,
      "v": 70
    },
    {
      "midi": 59,
      "hit": false,
      "t": 66505.2083333334,
      "d": 718.7499999999854,
      "v": 94
    },
    {
      "midi": 67,
      "hit": false,
      "t": 66505.2083333334,
      "d": 723.9583333333139,
      "v": 105
    },
    {
      "midi": 62,
      "hit": false,
      "t": 66505.2083333334,
      "d": 765.6249999999854,
      "v": 104
    },
    {
      "midi": 38,
      "hit": false,
      "t": 66505.2083333334,
      "d": 1114.583333333314,
      "v": 78
    },
    {
      "midi": 57,
      "hit": false,
      "t": 67312.50000000006,
      "d": 635.416666666657,
      "v": 93
    },
    {
      "midi": 62,
      "hit": false,
      "t": 67312.50000000006,
      "d": 713.541666666657,
      "v": 102
    },
    {
      "midi": 66,
      "hit": false,
      "t": 67317.70833333339,
      "d": 687.5,
      "v": 91
    },
    {
      "midi": 79,
      "hit": false,
      "t": 68130.20833333331,
      "d": 1567.708333333343,
      "v": 125
    },
    {
      "midi": 43,
      "hit": false,
      "t": 68130.20833333339,
      "d": 1442.7083333333285,
      "v": 69
    },
    {
      "midi": 59,
      "hit": false,
      "t": 68130.20833333339,
      "d": 1489.5833333333285,
      "v": 94
    },
    {
      "midi": 62,
      "hit": false,
      "t": 68130.20833333339,
      "d": 1552.0833333333285,
      "v": 87
    },
    {
      "midi": 55,
      "hit": false,
      "t": 68135.41666666672,
      "d": 1453.125,
      "v": 65
    },
    {
      "midi": 67,
      "hit": false,
      "t": 68135.41666666672,
      "d": 1526.0416666666715,
      "v": 103
    },
    {
      "midi": 62,
      "hit": false,
      "t": 69744.79166666672,
      "d": 1541.6666666666715,
      "v": 106
    },
    {
      "midi": 54,
      "hit": false,
      "t": 69750.00000000004,
      "d": 1208.3333333333285,
      "v": 73
    },
    {
      "midi": 42,
      "hit": false,
      "t": 69750.00000000004,
      "d": 1255.2083333333285,
      "v": 71
    },
    {
      "midi": 57,
      "hit": false,
      "t": 69750.00000000004,
      "d": 1453.125,
      "v": 83
    },
    {
      "midi": 66,
      "hit": false,
      "t": 69750.00000000004,
      "d": 1510.4166666666715,
      "v": 84
    },
    {
      "midi": 78,
      "hit": false,
      "t": 70515.625,
      "d": 395.8333333333285,
      "v": 118
    },
    {
      "midi": 79,
      "hit": false,
      "t": 70921.875,
      "d": 192.70833333332848,
      "v": 97
    },
    {
      "midi": 78,
      "hit": false,
      "t": 71093.75,
      "d": 223.95833333332848,
      "v": 99
    },
    {
      "midi": 79,
      "hit": false,
      "t": 71333.33333333333,
      "d": 1614.583333333343,
      "v": 108
    },
    {
      "midi": 52,
      "hit": false,
      "t": 71369.79166666672,
      "d": 1416.666666666657,
      "v": 59
    },
    {
      "midi": 59,
      "hit": false,
      "t": 71369.79166666672,
      "d": 1531.2499999999854,
      "v": 92
    },
    {
      "midi": 40,
      "hit": false,
      "t": 71375.00000000004,
      "d": 1348.9583333333285,
      "v": 66
    },
    {
      "midi": 67,
      "hit": false,
      "t": 71375.00000000004,
      "d": 1541.666666666657,
      "v": 98
    },
    {
      "midi": 64,
      "hit": false,
      "t": 71375.00000000004,
      "d": 1609.3749999999854,
      "v": 93
    },
    {
      "midi": 62,
      "hit": false,
      "t": 72994.79166666669,
      "d": 1197.916666666657,
      "v": 96
    },
    {
      "midi": 66,
      "hit": false,
      "t": 72994.79166666669,
      "d": 1291.666666666657,
      "v": 84
    },
    {
      "midi": 50,
      "hit": false,
      "t": 72994.79166666669,
      "d": 1322.916666666657,
      "v": 64
    },
    {
      "midi": 57,
      "hit": false,
      "t": 72994.79166666669,
      "d": 1416.666666666657,
      "v": 91
    },
    {
      "midi": 38,
      "hit": false,
      "t": 73000.00000000001,
      "d": 1265.625,
      "v": 69
    },
    {
      "midi": 78,
      "hit": false,
      "t": 73770.83333333334,
      "d": 395.83333333334303,
      "v": 110
    },
    {
      "midi": 79,
      "hit": false,
      "t": 74156.25000000001,
      "d": 218.75000000001455,
      "v": 105
    },
    {
      "midi": 78,
      "hit": false,
      "t": 74359.37500000003,
      "d": 203.125,
      "v": 102
    },
    {
      "midi": 79,
      "hit": false,
      "t": 74588.5416666667,
      "d": 1604.1666666666715,
      "v": 112
    },
    {
      "midi": 48,
      "hit": false,
      "t": 74614.58333333334,
      "d": 1437.5,
      "v": 58
    },
    {
      "midi": 55,
      "hit": false,
      "t": 74614.58333333334,
      "d": 1484.375,
      "v": 95
    },
    {
      "midi": 60,
      "hit": false,
      "t": 74619.79166666667,
      "d": 1463.5416666666715,
      "v": 94
    },
    {
      "midi": 64,
      "hit": false,
      "t": 74619.79166666667,
      "d": 1635.4166666666715,
      "v": 98
    },
    {
      "midi": 36,
      "hit": false,
      "t": 74619.79166666667,
      "d": 1703.125,
      "v": 62
    },
    {
      "midi": 62,
      "hit": false,
      "t": 76234.37500000001,
      "d": 1453.125,
      "v": 96
    },
    {
      "midi": 59,
      "hit": false,
      "t": 76234.37500000001,
      "d": 1463.5416666666715,
      "v": 96
    },
    {
      "midi": 67,
      "hit": false,
      "t": 76234.37500000001,
      "d": 1463.5416666666715,
      "v": 99
    },
    {
      "midi": 47,
      "hit": false,
      "t": 76239.58333333334,
      "d": 1296.875,
      "v": 66
    },
    {
      "midi": 35,
      "hit": false,
      "t": 76239.58333333334,
      "d": 1635.416666666657,
      "v": 65
    },
    {
      "midi": 79,
      "hit": false,
      "t": 77031.25000000004,
      "d": 385.4166666666715,
      "v": 126
    },
    {
      "midi": 78,
      "hit": false,
      "t": 77421.87500000004,
      "d": 427.0833333333285,
      "v": 107
    },
    {
      "midi": 76,
      "hit": false,
      "t": 77817.70833333337,
      "d": 1619.791666666657,
      "v": 113
    },
    {
      "midi": 64,
      "hit": false,
      "t": 77859.37500000001,
      "d": 1562.4999999999854,
      "v": 94
    },
    {
      "midi": 60,
      "hit": false,
      "t": 77864.58333333334,
      "d": 1286.4583333333285,
      "v": 95
    },
    {
      "midi": 57,
      "hit": false,
      "t": 77864.58333333334,
      "d": 1411.4583333333285,
      "v": 100
    },
    {
      "midi": 67,
      "hit": false,
      "t": 77864.58333333334,
      "d": 1463.541666666657,
      "v": 95
    },
    {
      "midi": 45,
      "hit": false,
      "t": 77864.58333333334,
      "d": 1598.9583333333285,
      "v": 71
    },
    {
      "midi": 33,
      "hit": false,
      "t": 77864.58333333334,
      "d": 1609.375,
      "v": 72
    },
    {
      "midi": 59,
      "hit": false,
      "t": 79479.16666666667,
      "d": 651.041666666657,
      "v": 94
    },
    {
      "midi": 38,
      "hit": false,
      "t": 79479.16666666667,
      "d": 1645.833333333314,
      "v": 78
    },
    {
      "midi": 67,
      "hit": false,
      "t": 79484.375,
      "d": 687.5,
      "v": 105
    },
    {
      "midi": 62,
      "hit": false,
      "t": 79484.375,
      "d": 703.125,
      "v": 101
    },
    {
      "midi": 57,
      "hit": false,
      "t": 80286.45833333333,
      "d": 552.0833333333285,
      "v": 90
    },
    {
      "midi": 62,
      "hit": false,
      "t": 80286.45833333333,
      "d": 723.9583333333285,
      "v": 101
    },
    {
      "midi": 66,
      "hit": false,
      "t": 80291.66666666666,
      "d": 708.3333333333285,
      "v": 90
    },
    {
      "midi": 67,
      "hit": false,
      "t": 81104.16666666666,
      "d": 869.791666666657,
      "v": 109
    },
    {
      "midi": 62,
      "hit": false,
      "t": 81104.16666666666,
      "d": 1249.9999999999854,
      "v": 107
    },
    {
      "midi": 59,
      "hit": false,
      "t": 81104.16666666666,
      "d": 1317.708333333314,
      "v": 98
    },
    {
      "midi": 55,
      "hit": false,
      "t": 81104.16666666666,
      "d": 1333.333333333314,
      "v": 83
    },
    {
      "midi": 43,
      "hit": false,
      "t": 81109.37499999999,
      "d": 1328.1249999999854,
      "v": 78
    },
    {
      "midi": 67,
      "hit": false,
      "t": 82276.04166666664,
      "d": 395.8333333333285,
      "v": 115
    },
    {
      "midi": 66,
      "hit": false,
      "t": 82682.29166666664,
      "d": 473.9583333333285,
      "v": 89
    },
    {
      "midi": 57,
      "hit": false,
      "t": 82682.29166666664,
      "d": 1437.4999999999854,
      "v": 101
    },
    {
      "midi": 62,
      "hit": false,
      "t": 82692.70833333331,
      "d": 1062.4999999999854,
      "v": 95
    },
    {
      "midi": 54,
      "hit": false,
      "t": 82697.91666666664,
      "d": 1286.4583333333285,
      "v": 65
    },
    {
      "midi": 42,
      "hit": false,
      "t": 82703.12499999997,
      "d": 1395.8333333333285,
      "v": 70
    },
    {
      "midi": 67,
      "hit": false,
      "t": 83161.4583333333,
      "d": 473.9583333333285,
      "v": 103
    },
    {
      "midi": 69,
      "hit": false,
      "t": 83697.91666666663,
      "d": 505.2083333333285,
      "v": 111
    },
    {
      "midi": 67,
      "hit": false,
      "t": 84218.74999999996,
      "d": 593.7499999999854,
      "v": 100
    },
    {
      "midi": 59,
      "hit": false,
      "t": 84218.74999999996,
      "d": 1520.8333333333285,
      "v": 95
    },
    {
      "midi": 40,
      "hit": false,
      "t": 84223.95833333328,
      "d": 1416.666666666657,
      "v": 45
    },
    {
      "midi": 52,
      "hit": false,
      "t": 84223.95833333328,
      "d": 1489.5833333333285,
      "v": 47
    },
    {
      "midi": 64,
      "hit": false,
      "t": 84229.16666666661,
      "d": 1645.833333333343,
      "v": 94
    },
    {
      "midi": 69,
      "hit": false,
      "t": 84734.37499999994,
      "d": 531.25,
      "v": 103
    },
    {
      "midi": 71,
      "hit": false,
      "t": 85307.29166666661,
      "d": 510.4166666666715,
      "v": 109
    },
    {
      "midi": 71,
      "hit": false,
      "t": 85901.04166666663,
      "d": 1072.916666666657,
      "v": 63
    },
    {
      "midi": 66,
      "hit": false,
      "t": 85901.04166666663,
      "d": 1088.541666666657,
      "v": 83
    },
    {
      "midi": 62,
      "hit": false,
      "t": 85906.24999999996,
      "d": 1119.791666666657,
      "v": 97
    },
    {
      "midi": 50,
      "hit": false,
      "t": 85906.24999999996,
      "d": 1187.4999999999854,
      "v": 51
    },
    {
      "midi": 38,
      "hit": false,
      "t": 85921.87499999996,
      "d": 1177.083333333314,
      "v": 46
    },
    {
      "midi": 64,
      "hit": false,
      "t": 87546.87499999993,
      "d": 515.6249999999854,
      "v": 96
    },
    {
      "midi": 60,
      "hit": false,
      "t": 87552.08333333326,
      "d": 468.74999999998545,
      "v": 91
    },
    {
      "midi": 48,
      "hit": false,
      "t": 87552.08333333326,
      "d": 1078.1249999999854,
      "v": 68
    },
    {
      "midi": 55,
      "hit": false,
      "t": 87552.08333333326,
      "d": 1499.9999999999854,
      "v": 99
    },
    {
      "midi": 36,
      "hit": false,
      "t": 87557.29166666658,
      "d": 1088.541666666657,
      "v": 63
    },
    {
      "midi": 66,
      "hit": false,
      "t": 88062.49999999991,
      "d": 500,
      "v": 110
    },
    {
      "midi": 67,
      "hit": false,
      "t": 88593.74999999991,
      "d": 442.7083333333285,
      "v": 98
    },
    {
      "midi": 55,
      "hit": false,
      "t": 89130.20833333324,
      "d": 385.4166666666715,
      "v": 90
    },
    {
      "midi": 62,
      "hit": false,
      "t": 89130.20833333324,
      "d": 453.12500000001455,
      "v": 101
    },
    {
      "midi": 59,
      "hit": false,
      "t": 89135.41666666657,
      "d": 406.25000000001455,
      "v": 101
    },
    {
      "midi": 35,
      "hit": false,
      "t": 89135.41666666657,
      "d": 1411.458333333343,
      "v": 66
    },
    {
      "midi": 47,
      "hit": false,
      "t": 89145.83333333324,
      "d": 1421.875,
      "v": 55
    },
    {
      "midi": 72,
      "hit": false,
      "t": 89713.54166666658,
      "d": 479.1666666666715,
      "v": 113
    },
    {
      "midi": 71,
      "hit": false,
      "t": 90244.79166666658,
      "d": 218.75,
      "v": 109
    },
    {
      "midi": 67,
      "hit": false,
      "t": 90791.66666666657,
      "d": 364.5833333333285,
      "v": 95
    },
    {
      "midi": 57,
      "hit": false,
      "t": 90791.66666666657,
      "d": 1494.791666666657,
      "v": 89
    },
    {
      "midi": 64,
      "hit": false,
      "t": 90796.8749999999,
      "d": 187.5,
      "v": 86
    },
    {
      "midi": 60,
      "hit": false,
      "t": 90802.08333333323,
      "d": 406.25,
      "v": 84
    },
    {
      "midi": 45,
      "hit": false,
      "t": 90807.29166666656,
      "d": 1177.083333333343,
      "v": 63
    },
    {
      "midi": 33,
      "hit": false,
      "t": 90817.70833333323,
      "d": 1088.5416666666715,
      "v": 59
    },
    {
      "midi": 62,
      "hit": false,
      "t": 91171.8749999999,
      "d": 218.75,
      "v": 100
    },
    {
      "midi": 64,
      "hit": false,
      "t": 91374.9999999999,
      "d": 989.5833333333285,
      "v": 111
    },
    {
      "midi": 67,
      "hit": false,
      "t": 92406.2499999999,
      "d": 708.3333333333285,
      "v": 103
    },
    {
      "midi": 62,
      "hit": false,
      "t": 92406.2499999999,
      "d": 723.9583333333285,
      "v": 101
    },
    {
      "midi": 38,
      "hit": false,
      "t": 92406.2499999999,
      "d": 1666.666666666657,
      "v": 67
    },
    {
      "midi": 59,
      "hit": false,
      "t": 92411.45833333323,
      "d": 677.0833333333285,
      "v": 91
    },
    {
      "midi": 50,
      "hit": false,
      "t": 92411.45833333323,
      "d": 1640.625,
      "v": 59
    },
    {
      "midi": 57,
      "hit": false,
      "t": 93208.33333333323,
      "d": 859.375,
      "v": 98
    },
    {
      "midi": 62,
      "hit": false,
      "t": 93208.33333333323,
      "d": 864.5833333333285,
      "v": 93
    },
    {
      "midi": 66,
      "hit": false,
      "t": 93208.33333333323,
      "d": 885.416666666657,
      "v": 96
    },
    {
      "midi": 66,
      "hit": false,
      "t": 95651.04166666656,
      "d": 515.625,
      "v": 99
    },
    {
      "midi": 62,
      "hit": false,
      "t": 95651.04166666656,
      "d": 1593.7500000000146,
      "v": 102
    },
    {
      "midi": 57,
      "hit": false,
      "t": 95656.24999999988,
      "d": 1520.8333333333576,
      "v": 97
    },
    {
      "midi": 54,
      "hit": false,
      "t": 95661.45833333321,
      "d": 1223.9583333333576,
      "v": 66
    },
    {
      "midi": 42,
      "hit": false,
      "t": 95671.87499999988,
      "d": 1203.1250000000146,
      "v": 67
    },
    {
      "midi": 67,
      "hit": false,
      "t": 96156.24999999988,
      "d": 583.333333333343,
      "v": 109
    },
    {
      "midi": 69,
      "hit": false,
      "t": 96708.33333333323,
      "d": 489.58333333334303,
      "v": 105
    },
    {
      "midi": 64,
      "hit": false,
      "t": 97270.83333333324,
      "d": 1625.000000000029,
      "v": 88
    },
    {
      "midi": 59,
      "hit": false,
      "t": 97281.24999999991,
      "d": 1588.541666666686,
      "v": 91
    },
    {
      "midi": 67,
      "hit": false,
      "t": 97281.24999999991,
      "d": 1588.541666666686,
      "v": 96
    },
    {
      "midi": 52,
      "hit": false,
      "t": 97291.66666666658,
      "d": 1322.9166666666715,
      "v": 54
    },
    {
      "midi": 40,
      "hit": false,
      "t": 97291.66666666658,
      "d": 1333.333333333343,
      "v": 54
    },
    {
      "midi": 67,
      "hit": false,
      "t": 98953.12499999994,
      "d": 458.3333333333285,
      "v": 99
    },
    {
      "midi": 59,
      "hit": false,
      "t": 98953.12499999994,
      "d": 1453.125,
      "v": 91
    },
    {
      "midi": 38,
      "hit": false,
      "t": 98963.54166666661,
      "d": 1166.666666666657,
      "v": 57
    },
    {
      "midi": 62,
      "hit": false,
      "t": 98963.54166666661,
      "d": 1333.3333333333285,
      "v": 114
    },
    {
      "midi": 50,
      "hit": false,
      "t": 98968.74999999994,
      "d": 1234.375,
      "v": 46
    },
    {
      "midi": 67,
      "hit": false,
      "t": 99499.99999999994,
      "d": 390.625,
      "v": 101
    },
    {
      "midi": 66,
      "hit": false,
      "t": 99984.37499999994,
      "d": 463.5416666666715,
      "v": 104
    },
    {
      "midi": 64,
      "hit": false,
      "t": 100505.20833333328,
      "d": 1588.5416666666715,
      "v": 91
    },
    {
      "midi": 48,
      "hit": false,
      "t": 100515.62499999996,
      "d": 1223.958333333343,
      "v": 57
    },
    {
      "midi": 60,
      "hit": false,
      "t": 100515.62499999996,
      "d": 1302.083333333343,
      "v": 91
    },
    {
      "midi": 36,
      "hit": false,
      "t": 100526.04166666663,
      "d": 1223.958333333343,
      "v": 53
    },
    {
      "midi": 55,
      "hit": false,
      "t": 100536.4583333333,
      "d": 1364.5833333333285,
      "v": 89
    },
    {
      "midi": 59,
      "hit": false,
      "t": 102140.62499999996,
      "d": 1526.0416666666715,
      "v": 103
    },
    {
      "midi": 67,
      "hit": false,
      "t": 102145.83333333328,
      "d": 390.625,
      "v": 110
    },
    {
      "midi": 62,
      "hit": false,
      "t": 102145.83333333328,
      "d": 1385.416666666686,
      "v": 110
    },
    {
      "midi": 35,
      "hit": false,
      "t": 102156.24999999996,
      "d": 1333.333333333343,
      "v": 51
    },
    {
      "midi": 47,
      "hit": false,
      "t": 102161.45833333328,
      "d": 1369.791666666686,
      "v": 54
    },
    {
      "midi": 67,
      "hit": false,
      "t": 102671.87499999996,
      "d": 406.25,
      "v": 114
    },
    {
      "midi": 66,
      "hit": false,
      "t": 103166.66666666663,
      "d": 536.4583333333285,
      "v": 103
    },
    {
      "midi": 60,
      "hit": false,
      "t": 103760.41666666663,
      "d": 1265.625,
      "v": 87
    },
    {
      "midi": 57,
      "hit": false,
      "t": 103770.8333333333,
      "d": 1416.666666666657,
      "v": 84
    },
    {
      "midi": 64,
      "hit": false,
      "t": 103770.8333333333,
      "d": 1552.0833333333285,
      "v": 87
    },
    {
      "midi": 45,
      "hit": false,
      "t": 103781.24999999997,
      "d": 1052.0833333333285,
      "v": 67
    },
    {
      "midi": 33,
      "hit": false,
      "t": 103786.4583333333,
      "d": 979.1666666666715,
      "v": 61
    },
    {
      "midi": 50,
      "hit": false,
      "t": 105401.04166666663,
      "d": 1645.8333333332994,
      "v": 66
    },
    {
      "midi": 38,
      "hit": false,
      "t": 105401.04166666663,
      "d": 1677.0833333332994,
      "v": 73
    },
    {
      "midi": 59,
      "hit": false,
      "t": 105406.24999999996,
      "d": 718.7499999999854,
      "v": 102
    },
    {
      "midi": 62,
      "hit": false,
      "t": 105406.24999999996,
      "d": 760.416666666657,
      "v": 111
    },
    {
      "midi": 67,
      "hit": false,
      "t": 105411.45833333328,
      "d": 713.541666666657,
      "v": 109
    },
    {
      "midi": 57,
      "hit": false,
      "t": 106218.74999999994,
      "d": 692.7083333333285,
      "v": 98
    },
    {
      "midi": 62,
      "hit": false,
      "t": 106218.74999999994,
      "d": 744.791666666657,
      "v": 114
    },
    {
      "midi": 66,
      "hit": false,
      "t": 106218.74999999994,
      "d": 749.9999999999854,
      "v": 88
    },
    {
      "midi": 59,
      "hit": false,
      "t": 107026.0416666666,
      "d": 1177.0833333333285,
      "v": 97
    },
    {
      "midi": 62,
      "hit": false,
      "t": 107026.0416666666,
      "d": 1541.666666666657,
      "v": 102
    },
    {
      "midi": 67,
      "hit": false,
      "t": 107031.24999999993,
      "d": 1520.8333333333285,
      "v": 110
    },
    {
      "midi": 43,
      "hit": false,
      "t": 107031.24999999993,
      "d": 1546.875,
      "v": 71
    },
    {
      "midi": 55,
      "hit": false,
      "t": 107057.29166666666,
      "d": 140.625,
      "v": 94
    },
    {
      "midi": 62,
      "hit": false,
      "t": 107249.99999999999,
      "d": 177.08333333332848,
      "v": 89
    },
    {
      "midi": 67,
      "hit": false,
      "t": 107458.33333333331,
      "d": 130.20833333332848,
      "v": 93
    },
    {
      "midi": 67,
      "hit": false,
      "t": 107656.24999999997,
      "d": 385.4166666666715,
      "v": 90
    },
    {
      "midi": 67,
      "hit": false,
      "t": 108062.49999999997,
      "d": 135.41666666667152,
      "v": 93
    },
    {
      "midi": 67,
      "hit": false,
      "t": 108270.83333333331,
      "d": 421.875,
      "v": 94
    },
    {
      "midi": 42,
      "hit": false,
      "t": 108624.99999999993,
      "d": 1182.291666666686,
      "v": 77
    },
    {
      "midi": 62,
      "hit": false,
      "t": 108624.99999999993,
      "d": 1557.291666666686,
      "v": 105
    },
    {
      "midi": 66,
      "hit": false,
      "t": 108635.4166666666,
      "d": 505.20833333334303,
      "v": 103
    },
    {
      "midi": 54,
      "hit": false,
      "t": 108635.4166666666,
      "d": 1140.6250000000146,
      "v": 70
    },
    {
      "midi": 57,
      "hit": false,
      "t": 108635.4166666666,
      "d": 1463.541666666686,
      "v": 106
    },
    {
      "midi": 59,
      "hit": false,
      "t": 108677.08333333331,
      "d": 161.45833333332848,
      "v": 90
    },
    {
      "midi": 60,
      "hit": false,
      "t": 108869.79166666664,
      "d": 161.45833333332848,
      "v": 87
    },
    {
      "midi": 59,
      "hit": false,
      "t": 109078.12499999997,
      "d": 562.5,
      "v": 91
    },
    {
      "midi": 67,
      "hit": false,
      "t": 109151.04166666661,
      "d": 500,
      "v": 110
    },
    {
      "midi": 69,
      "hit": false,
      "t": 109682.29166666661,
      "d": 447.9166666666715,
      "v": 108
    },
    {
      "midi": 59,
      "hit": false,
      "t": 109682.29166666664,
      "d": 244.79166666665697,
      "v": 93
    },
    {
      "midi": 57,
      "hit": false,
      "t": 109890.62499999997,
      "d": 140.625,
      "v": 93
    },
    {
      "midi": 55,
      "hit": false,
      "t": 110093.74999999997,
      "d": 130.20833333332848,
      "v": 92
    },
    {
      "midi": 59,
      "hit": false,
      "t": 110208.33333333328,
      "d": 1588.5416666666715,
      "v": 93
    },
    {
      "midi": 64,
      "hit": false,
      "t": 110208.33333333328,
      "d": 1619.7916666666715,
      "v": 90
    },
    {
      "midi": 52,
      "hit": false,
      "t": 110213.54166666661,
      "d": 1453.125,
      "v": 60
    },
    {
      "midi": 67,
      "hit": false,
      "t": 110213.54166666661,
      "d": 1572.9166666666715,
      "v": 92
    },
    {
      "midi": 40,
      "hit": false,
      "t": 110218.74999999994,
      "d": 1458.333333333343,
      "v": 62
    },
    {
      "midi": 55,
      "hit": false,
      "t": 110296.87499999997,
      "d": 161.45833333332848,
      "v": 92
    },
    {
      "midi": 62,
      "hit": false,
      "t": 110494.79166666663,
      "d": 177.08333333332848,
      "v": 94
    },
    {
      "midi": 67,
      "hit": false,
      "t": 110703.12499999996,
      "d": 156.25,
      "v": 98
    },
    {
      "midi": 67,
      "hit": false,
      "t": 110901.04166666663,
      "d": 380.2083333333285,
      "v": 95
    },
    {
      "midi": 67,
      "hit": false,
      "t": 111307.29166666663,
      "d": 130.20833333332848,
      "v": 95
    },
    {
      "midi": 67,
      "hit": false,
      "t": 111515.62499999996,
      "d": 609.375,
      "v": 97
    },
    {
      "midi": 67,
      "hit": false,
      "t": 111890.62499999996,
      "d": 463.54166666665697,
      "v": 100
    },
    {
      "midi": 62,
      "hit": false,
      "t": 111890.62499999996,
      "d": 1500,
      "v": 114
    },
    {
      "midi": 59,
      "hit": false,
      "t": 111890.62499999996,
      "d": 1515.625,
      "v": 86
    },
    {
      "midi": 38,
      "hit": false,
      "t": 111895.83333333328,
      "d": 1479.1666666666715,
      "v": 68
    },
    {
      "midi": 50,
      "hit": false,
      "t": 111895.83333333328,
      "d": 1479.1666666666715,
      "v": 63
    },
    {
      "midi": 59,
      "hit": false,
      "t": 112114.58333333328,
      "d": 171.875,
      "v": 91
    },
    {
      "midi": 60,
      "hit": false,
      "t": 112322.91666666661,
      "d": 166.66666666667152,
      "v": 94
    },
    {
      "midi": 67,
      "hit": false,
      "t": 112427.08333333328,
      "d": 515.625,
      "v": 105
    },
    {
      "midi": 59,
      "hit": false,
      "t": 112520.83333333328,
      "d": 369.7916666666715,
      "v": 90
    },
    {
      "midi": 59,
      "hit": false,
      "t": 112927.08333333328,
      "d": 218.75,
      "v": 94
    },
    {
      "midi": 66,
      "hit": false,
      "t": 112984.37499999996,
      "d": 473.9583333333285,
      "v": 96
    },
    {
      "midi": 57,
      "hit": false,
      "t": 113135.41666666661,
      "d": 156.25,
      "v": 91
    },
    {
      "midi": 55,
      "hit": false,
      "t": 113333.33333333328,
      "d": 114.58333333332848,
      "v": 90
    },
    {
      "midi": 64,
      "hit": false,
      "t": 113510.41666666661,
      "d": 1572.916666666686,
      "v": 93
    },
    {
      "midi": 55,
      "hit": false,
      "t": 113520.83333333328,
      "d": 1442.708333333343,
      "v": 97
    },
    {
      "midi": 60,
      "hit": false,
      "t": 113520.83333333328,
      "d": 1453.1250000000146,
      "v": 93
    },
    {
      "midi": 48,
      "hit": false,
      "t": 113526.04166666661,
      "d": 1354.1666666666715,
      "v": 60
    },
    {
      "midi": 36,
      "hit": false,
      "t": 113526.04166666661,
      "d": 1625.0000000000146,
      "v": 59
    },
    {
      "midi": 55,
      "hit": false,
      "t": 113541.66666666661,
      "d": 197.91666666667152,
      "v": 99
    },
    {
      "midi": 64,
      "hit": false,
      "t": 113739.58333333328,
      "d": 192.70833333332848,
      "v": 91
    },
    {
      "midi": 67,
      "hit": false,
      "t": 113947.91666666661,
      "d": 161.45833333332848,
      "v": 98
    },
    {
      "midi": 67,
      "hit": false,
      "t": 114145.83333333327,
      "d": 333.3333333333285,
      "v": 98
    },
    {
      "midi": 67,
      "hit": false,
      "t": 114546.87499999993,
      "d": 135.41666666667152,
      "v": 97
    },
    {
      "midi": 67,
      "hit": false,
      "t": 114760.4166666666,
      "d": 406.25,
      "v": 96
    },
    {
      "midi": 67,
      "hit": false,
      "t": 115140.62499999997,
      "d": 432.29166666665697,
      "v": 113
    },
    {
      "midi": 35,
      "hit": false,
      "t": 115140.62499999997,
      "d": 1395.833333333314,
      "v": 61
    },
    {
      "midi": 59,
      "hit": false,
      "t": 115140.62499999997,
      "d": 1510.4166666666424,
      "v": 101
    },
    {
      "midi": 62,
      "hit": false,
      "t": 115145.8333333333,
      "d": 1458.333333333314,
      "v": 110
    },
    {
      "midi": 47,
      "hit": false,
      "t": 115151.04166666663,
      "d": 1432.291666666657,
      "v": 47
    },
    {
      "midi": 59,
      "hit": false,
      "t": 115161.45833333327,
      "d": 348.9583333333285,
      "v": 96
    },
    {
      "midi": 62,
      "hit": false,
      "t": 115567.70833333327,
      "d": 213.54166666667152,
      "v": 98
    },
    {
      "midi": 67,
      "hit": false,
      "t": 115671.87499999996,
      "d": 390.625,
      "v": 100
    },
    {
      "midi": 59,
      "hit": false,
      "t": 115765.62499999994,
      "d": 421.875,
      "v": 90
    },
    {
      "midi": 55,
      "hit": false,
      "t": 116171.87499999994,
      "d": 244.79166666665697,
      "v": 89
    },
    {
      "midi": 66,
      "hit": false,
      "t": 116177.08333333328,
      "d": 510.41666666665697,
      "v": 101
    },
    {
      "midi": 62,
      "hit": false,
      "t": 116380.20833333327,
      "d": 156.25,
      "v": 92
    },
    {
      "midi": 67,
      "hit": false,
      "t": 116578.12499999994,
      "d": 203.125,
      "v": 94
    },
    {
      "midi": 64,
      "hit": false,
      "t": 116734.37499999994,
      "d": 1583.3333333333285,
      "v": 101
    },
    {
      "midi": 60,
      "hit": false,
      "t": 116739.58333333327,
      "d": 1416.6666666666715,
      "v": 99
    },
    {
      "midi": 57,
      "hit": false,
      "t": 116739.58333333327,
      "d": 1494.7916666666715,
      "v": 94
    },
    {
      "midi": 33,
      "hit": false,
      "t": 116744.7916666666,
      "d": 1666.6666666666715,
      "v": 62
    },
    {
      "midi": 45,
      "hit": false,
      "t": 116755.20833333327,
      "d": 1625,
      "v": 70
    },
    {
      "midi": 60,
      "hit": false,
      "t": 116786.45833333327,
      "d": 375,
      "v": 98
    },
    {
      "midi": 59,
      "hit": false,
      "t": 117187.49999999994,
      "d": 218.75,
      "v": 90
    },
    {
      "midi": 57,
      "hit": false,
      "t": 117385.41666666661,
      "d": 442.7083333333285,
      "v": 87
    },
    {
      "midi": 59,
      "hit": false,
      "t": 117791.66666666661,
      "d": 187.5,
      "v": 90
    },
    {
      "midi": 60,
      "hit": false,
      "t": 117999.99999999994,
      "d": 213.54166666667152,
      "v": 90
    },
    {
      "midi": 59,
      "hit": false,
      "t": 118197.91666666661,
      "d": 187.5,
      "v": 88
    },
    {
      "midi": 38,
      "hit": false,
      "t": 118380.20833333327,
      "d": 1567.708333333343,
      "v": 80
    },
    {
      "midi": 59,
      "hit": false,
      "t": 118385.4166666666,
      "d": 692.708333333343,
      "v": 100
    },
    {
      "midi": 67,
      "hit": false,
      "t": 118385.4166666666,
      "d": 708.333333333343,
      "v": 109
    },
    {
      "midi": 62,
      "hit": false,
      "t": 118385.4166666666,
      "d": 750.0000000000146,
      "v": 106
    },
    {
      "midi": 57,
      "hit": false,
      "t": 118406.24999999994,
      "d": 1322.9166666666715,
      "v": 95
    },
    {
      "midi": 62,
      "hit": false,
      "t": 119177.08333333328,
      "d": 692.708333333343,
      "v": 120
    },
    {
      "midi": 57,
      "hit": false,
      "t": 119187.49999999996,
      "d": 708.3333333333285,
      "v": 98
    },
    {
      "midi": 66,
      "hit": false,
      "t": 119197.91666666663,
      "d": 692.7083333333285,
      "v": 92
    },
    {
      "midi": 64,
      "hit": false,
      "t": 120005.20833333328,
      "d": 963.5416666666715,
      "v": 100
    },
    {
      "midi": 36,
      "hit": false,
      "t": 120005.20833333328,
      "d": 1203.1250000000146,
      "v": 60
    },
    {
      "midi": 60,
      "hit": false,
      "t": 120015.62499999996,
      "d": 1088.5416666666715,
      "v": 91
    },
    {
      "midi": 48,
      "hit": false,
      "t": 120015.62499999996,
      "d": 1145.833333333343,
      "v": 56
    },
    {
      "midi": 55,
      "hit": false,
      "t": 120015.62499999996,
      "d": 1156.2500000000146,
      "v": 91
    },
    {
      "midi": 55,
      "hit": false,
      "t": 120031.24999999994,
      "d": 161.45833333332848,
      "v": 91
    },
    {
      "midi": 60,
      "hit": false,
      "t": 120229.1666666666,
      "d": 197.91666666667152,
      "v": 83
    },
    {
      "midi": 55,
      "hit": false,
      "t": 120432.2916666666,
      "d": 281.25,
      "v": 87
    },
    {
      "midi": 64,
      "hit": false,
      "t": 120630.20833333327,
      "d": 401.04166666665697,
      "v": 93
    },
    {
      "midi": 55,
      "hit": false,
      "t": 121036.45833333326,
      "d": 229.16666666665697,
      "v": 90
    },
    {
      "midi": 64,
      "hit": false,
      "t": 121119.79166666663,
      "d": 473.9583333333285,
      "v": 109
    },
    {
      "midi": 60,
      "hit": false,
      "t": 121244.79166666658,
      "d": 171.875,
      "v": 89
    },
    {
      "midi": 67,
      "hit": false,
      "t": 121442.70833333326,
      "d": 432.2916666666715,
      "v": 99
    },
    {
      "midi": 55,
      "hit": false,
      "t": 121651.04166666663,
      "d": 364.5833333333285,
      "v": 99
    },
    {
      "midi": 64,
      "hit": false,
      "t": 121651.04166666663,
      "d": 401.04166666665697,
      "v": 110
    },
    {
      "midi": 36,
      "hit": false,
      "t": 121651.04166666663,
      "d": 1161.4583333333285,
      "v": 61
    },
    {
      "midi": 60,
      "hit": false,
      "t": 121656.24999999996,
      "d": 437.5,
      "v": 99
    },
    {
      "midi": 48,
      "hit": false,
      "t": 121656.24999999996,
      "d": 1145.8333333333285,
      "v": 55
    },
    {
      "midi": 55,
      "hit": false,
      "t": 121848.95833333326,
      "d": 234.37500000001455,
      "v": 91
    },
    {
      "midi": 60,
      "hit": false,
      "t": 122057.2916666666,
      "d": 171.875,
      "v": 90
    },
    {
      "midi": 60,
      "hit": false,
      "t": 122135.41666666663,
      "d": 479.16666666665697,
      "v": 105
    },
    {
      "midi": 66,
      "hit": false,
      "t": 122151.04166666663,
      "d": 447.91666666665697,
      "v": 104
    },
    {
      "midi": 57,
      "hit": false,
      "t": 122156.24999999996,
      "d": 453.125,
      "v": 100
    },
    {
      "midi": 64,
      "hit": false,
      "t": 122255.20833333327,
      "d": 437.5,
      "v": 96
    },
    {
      "midi": 55,
      "hit": false,
      "t": 122661.45833333327,
      "d": 208.33333333332848,
      "v": 93
    },
    {
      "midi": 67,
      "hit": false,
      "t": 122661.45833333328,
      "d": 447.9166666666715,
      "v": 104
    },
    {
      "midi": 64,
      "hit": false,
      "t": 122666.66666666661,
      "d": 296.87500000001455,
      "v": 97
    },
    {
      "midi": 60,
      "hit": false,
      "t": 122666.66666666661,
      "d": 380.20833333334303,
      "v": 106
    },
    {
      "midi": 57,
      "hit": false,
      "t": 122869.7916666666,
      "d": 177.08333333332848,
      "v": 90
    },
    {
      "midi": 59,
      "hit": false,
      "t": 123067.70833333326,
      "d": 197.91666666667152,
      "v": 89
    },
    {
      "midi": 55,
      "hit": false,
      "t": 123192.70833333328,
      "d": 1213.5416666666424,
      "v": 101
    },
    {
      "midi": 59,
      "hit": false,
      "t": 123192.70833333328,
      "d": 1239.5833333332994,
      "v": 97
    },
    {
      "midi": 62,
      "hit": false,
      "t": 123192.70833333328,
      "d": 1239.5833333332994,
      "v": 108
    },
    {
      "midi": 43,
      "hit": false,
      "t": 123197.91666666661,
      "d": 2848.9583333332703,
      "v": 68
    },
    {
      "midi": 31,
      "hit": false,
      "t": 123203.12499999994,
      "d": 2776.0416666666133,
      "v": 69
    },
    {
      "midi": 55,
      "hit": false,
      "t": 123276.0416666666,
      "d": 145.83333333332848,
      "v": 92
    },
    {
      "midi": 57,
      "hit": false,
      "t": 123468.74999999993,
      "d": 171.875,
      "v": 87
    },
    {
      "midi": 55,
      "hit": false,
      "t": 123677.08333333326,
      "d": 192.70833333332848,
      "v": 88
    },
    {
      "midi": 62,
      "hit": false,
      "t": 123874.99999999991,
      "d": 406.25,
      "v": 101
    },
    {
      "midi": 55,
      "hit": false,
      "t": 124281.24999999991,
      "d": 187.5,
      "v": 80
    },
    {
      "midi": 62,
      "hit": false,
      "t": 124489.58333333324,
      "d": 161.45833333332848,
      "v": 96
    },
    {
      "midi": 59,
      "hit": false,
      "t": 124494.79166666658,
      "d": 354.16666666665697,
      "v": 92
    },
    {
      "midi": 55,
      "hit": false,
      "t": 124499.99999999991,
      "d": 328.125,
      "v": 80
    },
    {
      "midi": 62,
      "hit": false,
      "t": 124499.99999999991,
      "d": 354.16666666665697,
      "v": 96
    },
    {
      "midi": 67,
      "hit": false,
      "t": 124687.4999999999,
      "d": 395.8333333333285,
      "v": 98
    },
    {
      "midi": 59,
      "hit": false,
      "t": 124906.2499999999,
      "d": 348.9583333333285,
      "v": 88
    },
    {
      "midi": 62,
      "hit": false,
      "t": 124906.2499999999,
      "d": 395.8333333333285,
      "v": 107
    },
    {
      "midi": 55,
      "hit": false,
      "t": 124906.2499999999,
      "d": 432.29166666665697,
      "v": 87
    },
    {
      "midi": 55,
      "hit": false,
      "t": 125093.7499999999,
      "d": 218.75,
      "v": 87
    },
    {
      "midi": 59,
      "hit": false,
      "t": 125302.08333333323,
      "d": 151.04166666667152,
      "v": 90
    },
    {
      "midi": 66,
      "hit": false,
      "t": 125385.41666666656,
      "d": 552.0833333333285,
      "v": 110
    },
    {
      "midi": 62,
      "hit": false,
      "t": 125499.9999999999,
      "d": 468.75,
      "v": 94
    },
    {
      "midi": 55,
      "hit": false,
      "t": 125906.2499999999,
      "d": 218.75,
      "v": 86
    },
    {
      "midi": 67,
      "hit": false,
      "t": 125963.54166666656,
      "d": 385.41666666665697,
      "v": 105
    },
    {
      "midi": 57,
      "hit": false,
      "t": 126114.58333333323,
      "d": 192.70833333334303,
      "v": 84
    },
    {
      "midi": 59,
      "hit": false,
      "t": 126312.4999999999,
      "d": 156.25,
      "v": 88
    },
    {
      "midi": 64,
      "hit": false,
      "t": 126458.33333333321,
      "d": 1624.9999999999854,
      "v": 101
    },
    {
      "midi": 60,
      "hit": false,
      "t": 126463.54166666654,
      "d": 1333.3333333333285,
      "v": 101
    },
    {
      "midi": 57,
      "hit": false,
      "t": 126463.54166666654,
      "d": 1473.9583333333285,
      "v": 99
    },
    {
      "midi": 45,
      "hit": false,
      "t": 126463.54166666654,
      "d": 1520.8333333333285,
      "v": 69
    },
    {
      "midi": 33,
      "hit": false,
      "t": 126468.74999999987,
      "d": 1385.4166666666715,
      "v": 70
    },
    {
      "midi": 57,
      "hit": false,
      "t": 126520.83333333323,
      "d": 161.45833333332848,
      "v": 90
    },
    {
      "midi": 60,
      "hit": false,
      "t": 126713.54166666656,
      "d": 187.5,
      "v": 82
    },
    {
      "midi": 57,
      "hit": false,
      "t": 126921.87499999988,
      "d": 187.5,
      "v": 82
    },
    {
      "midi": 62,
      "hit": false,
      "t": 127119.79166666656,
      "d": 390.625,
      "v": 99
    },
    {
      "midi": 57,
      "hit": false,
      "t": 127526.04166666656,
      "d": 213.54166666665697,
      "v": 88
    },
    {
      "midi": 64,
      "hit": false,
      "t": 127734.37499999988,
      "d": 145.83333333332848,
      "v": 94
    },
    {
      "midi": 69,
      "hit": false,
      "t": 127932.29166666654,
      "d": 203.125,
      "v": 95
    },
    {
      "midi": 67,
      "hit": false,
      "t": 128083.3333333332,
      "d": 1552.083333333343,
      "v": 102
    },
    {
      "midi": 59,
      "hit": false,
      "t": 128093.74999999987,
      "d": 1484.375,
      "v": 98
    },
    {
      "midi": 35,
      "hit": false,
      "t": 128098.9583333332,
      "d": 1265.625,
      "v": 76
    },
    {
      "midi": 62,
      "hit": false,
      "t": 128098.9583333332,
      "d": 1291.6666666666715,
      "v": 104
    },
    {
      "midi": 47,
      "hit": false,
      "t": 128104.16666666653,
      "d": 1473.958333333343,
      "v": 70
    },
    {
      "midi": 55,
      "hit": false,
      "t": 128140.62499999987,
      "d": 197.91666666667152,
      "v": 86
    },
    {
      "midi": 59,
      "hit": false,
      "t": 128338.54166666654,
      "d": 192.70833333332848,
      "v": 87
    },
    {
      "midi": 55,
      "hit": false,
      "t": 128546.87499999987,
      "d": 187.5,
      "v": 89
    },
    {
      "midi": 62,
      "hit": false,
      "t": 128739.5833333332,
      "d": 432.2916666666715,
      "v": 99
    },
    {
      "midi": 55,
      "hit": false,
      "t": 129145.8333333332,
      "d": 208.33333333334303,
      "v": 89
    },
    {
      "midi": 57,
      "hit": false,
      "t": 129359.37499999987,
      "d": 177.08333333332848,
      "v": 84
    },
    {
      "midi": 59,
      "hit": false,
      "t": 129557.29166666653,
      "d": 197.91666666667152,
      "v": 88
    },
    {
      "midi": 60,
      "hit": false,
      "t": 129697.91666666654,
      "d": 1390.625,
      "v": 90
    },
    {
      "midi": 36,
      "hit": false,
      "t": 129697.91666666654,
      "d": 1437.5,
      "v": 76
    },
    {
      "midi": 64,
      "hit": false,
      "t": 129697.91666666654,
      "d": 1593.75,
      "v": 94
    },
    {
      "midi": 48,
      "hit": false,
      "t": 129703.12499999987,
      "d": 1531.2500000000146,
      "v": 72
    },
    {
      "midi": 55,
      "hit": false,
      "t": 129708.3333333332,
      "d": 1296.8750000000146,
      "v": 83
    },
    {
      "midi": 57,
      "hit": false,
      "t": 129765.62499999987,
      "d": 41.66666666667152,
      "v": 23
    },
    {
      "midi": 57,
      "hit": false,
      "t": 129765.62499999987,
      "d": 177.08333333332848,
      "v": 89
    },
    {
      "midi": 60,
      "hit": false,
      "t": 129958.3333333332,
      "d": 187.5,
      "v": 90
    },
    {
      "midi": 57,
      "hit": false,
      "t": 130166.66666666653,
      "d": 187.5,
      "v": 86
    },
    {
      "midi": 62,
      "hit": false,
      "t": 130364.5833333332,
      "d": 437.5,
      "v": 98
    },
    {
      "midi": 57,
      "hit": false,
      "t": 130770.8333333332,
      "d": 208.33333333332848,
      "v": 88
    },
    {
      "midi": 60,
      "hit": false,
      "t": 130979.16666666653,
      "d": 223.95833333332848,
      "v": 90
    },
    {
      "midi": 62,
      "hit": false,
      "t": 131177.0833333332,
      "d": 213.54166666665697,
      "v": 97
    },
    {
      "midi": 50,
      "hit": false,
      "t": 131385.41666666654,
      "d": 1156.25,
      "v": 78
    },
    {
      "midi": 67,
      "hit": false,
      "t": 131385.41666666654,
      "d": 1218.75,
      "v": 110
    },
    {
      "midi": 60,
      "hit": false,
      "t": 131385.41666666654,
      "d": 1223.958333333343,
      "v": 98
    },
    {
      "midi": 62,
      "hit": false,
      "t": 131385.41666666654,
      "d": 1244.791666666686,
      "v": 104
    },
    {
      "midi": 64,
      "hit": false,
      "t": 131385.41666666654,
      "d": 1244.791666666686,
      "v": 92
    },
    {
      "midi": 38,
      "hit": false,
      "t": 131390.62499999988,
      "d": 1203.125,
      "v": 82
    },
    {
      "midi": 79,
      "hit": false,
      "t": 133010.4166666667,
      "d": 1635.416666666657,
      "v": 127
    },
    {
      "midi": 43,
      "hit": false,
      "t": 133015.6249999999,
      "d": 1234.375,
      "v": 67
    },
    {
      "midi": 59,
      "hit": false,
      "t": 133015.6249999999,
      "d": 1421.875,
      "v": 96
    },
    {
      "midi": 62,
      "hit": false,
      "t": 133015.6249999999,
      "d": 1536.458333333343,
      "v": 105
    },
    {
      "midi": 67,
      "hit": false,
      "t": 133015.6249999999,
      "d": 1557.291666666686,
      "v": 109
    },
    {
      "midi": 31,
      "hit": false,
      "t": 133020.83333333326,
      "d": 1151.041666666657,
      "v": 68
    },
    {
      "midi": 54,
      "hit": false,
      "t": 134630.20833333328,
      "d": 1437.5,
      "v": 74
    },
    {
      "midi": 42,
      "hit": false,
      "t": 134630.20833333328,
      "d": 1463.541666666657,
      "v": 70
    },
    {
      "midi": 57,
      "hit": false,
      "t": 134630.20833333328,
      "d": 1515.625,
      "v": 98
    },
    {
      "midi": 66,
      "hit": false,
      "t": 134630.20833333328,
      "d": 1536.458333333343,
      "v": 99
    },
    {
      "midi": 62,
      "hit": false,
      "t": 134630.20833333328,
      "d": 1572.916666666686,
      "v": 101
    },
    {
      "midi": 78,
      "hit": false,
      "t": 135421.875,
      "d": 401.04166666668607,
      "v": 123
    },
    {
      "midi": 79,
      "hit": false,
      "t": 135828.12500000003,
      "d": 187.5,
      "v": 107
    },
    {
      "midi": 78,
      "hit": false,
      "t": 136000.00000000003,
      "d": 229.16666666665697,
      "v": 101
    },
    {
      "midi": 47,
      "hit": false,
      "t": 136255.2083333333,
      "d": 83.33333333334303,
      "v": 19
    },
    {
      "midi": 52,
      "hit": false,
      "t": 136255.2083333333,
      "d": 1468.75,
      "v": 64
    },
    {
      "midi": 79,
      "hit": false,
      "t": 136255.20833333334,
      "d": 1604.166666666686,
      "v": 120
    },
    {
      "midi": 40,
      "hit": false,
      "t": 136260.41666666666,
      "d": 1437.5,
      "v": 71
    },
    {
      "midi": 59,
      "hit": false,
      "t": 136260.41666666666,
      "d": 1479.166666666657,
      "v": 96
    },
    {
      "midi": 67,
      "hit": false,
      "t": 136260.41666666666,
      "d": 1510.416666666657,
      "v": 103
    },
    {
      "midi": 64,
      "hit": false,
      "t": 136260.41666666666,
      "d": 1572.916666666657,
      "v": 97
    },
    {
      "midi": 62,
      "hit": false,
      "t": 137874.99999999997,
      "d": 1239.583333333343,
      "v": 94
    },
    {
      "midi": 57,
      "hit": false,
      "t": 137874.99999999997,
      "d": 1463.541666666686,
      "v": 93
    },
    {
      "midi": 66,
      "hit": false,
      "t": 137874.99999999997,
      "d": 1484.375000000029,
      "v": 83
    },
    {
      "midi": 38,
      "hit": false,
      "t": 137880.2083333333,
      "d": 1364.583333333343,
      "v": 57
    },
    {
      "midi": 50,
      "hit": false,
      "t": 137880.2083333333,
      "d": 1364.583333333343,
      "v": 61
    },
    {
      "midi": 78,
      "hit": false,
      "t": 138682.2916666667,
      "d": 359.375,
      "v": 121
    },
    {
      "midi": 79,
      "hit": false,
      "t": 139046.87500000003,
      "d": 223.95833333334303,
      "v": 108
    },
    {
      "midi": 78,
      "hit": false,
      "t": 139250.00000000003,
      "d": 203.125,
      "v": 94
    },
    {
      "midi": 79,
      "hit": false,
      "t": 139479.1666666667,
      "d": 1625,
      "v": 117
    },
    {
      "midi": 48,
      "hit": false,
      "t": 139500,
      "d": 1359.375,
      "v": 53
    },
    {
      "midi": 60,
      "hit": false,
      "t": 139500,
      "d": 1421.875,
      "v": 82
    },
    {
      "midi": 55,
      "hit": false,
      "t": 139500,
      "d": 1432.291666666657,
      "v": 83
    },
    {
      "midi": 64,
      "hit": false,
      "t": 139500,
      "d": 1583.333333333314,
      "v": 85
    },
    {
      "midi": 36,
      "hit": false,
      "t": 139500,
      "d": 1651.041666666657,
      "v": 50
    },
    {
      "midi": 47,
      "hit": false,
      "t": 141119.79166666666,
      "d": 1291.666666666657,
      "v": 51
    },
    {
      "midi": 62,
      "hit": false,
      "t": 141119.79166666666,
      "d": 1494.791666666657,
      "v": 87
    },
    {
      "midi": 59,
      "hit": false,
      "t": 141119.79166666666,
      "d": 1505.208333333314,
      "v": 85
    },
    {
      "midi": 67,
      "hit": false,
      "t": 141119.79166666666,
      "d": 1510.416666666657,
      "v": 95
    },
    {
      "midi": 35,
      "hit": false,
      "t": 141119.79166666666,
      "d": 1604.166666666657,
      "v": 59
    },
    {
      "midi": 84,
      "hit": false,
      "t": 141906.25000000003,
      "d": 369.79166666665697,
      "v": 119
    },
    {
      "midi": 83,
      "hit": false,
      "t": 142291.6666666667,
      "d": 463.54166666665697,
      "v": 111
    },
    {
      "midi": 79,
      "hit": false,
      "t": 142682.2916666667,
      "d": 1708.333333333314,
      "v": 114
    },
    {
      "midi": 57,
      "hit": false,
      "t": 142744.79166666666,
      "d": 1416.666666666657,
      "v": 86
    },
    {
      "midi": 45,
      "hit": false,
      "t": 142744.79166666666,
      "d": 1557.291666666657,
      "v": 65
    },
    {
      "midi": 33,
      "hit": false,
      "t": 142744.79166666666,
      "d": 1625,
      "v": 69
    },
    {
      "midi": 60,
      "hit": false,
      "t": 142750,
      "d": 1291.666666666657,
      "v": 76
    },
    {
      "midi": 67,
      "hit": false,
      "t": 142750,
      "d": 1427.083333333314,
      "v": 57
    },
    {
      "midi": 64,
      "hit": false,
      "t": 142750,
      "d": 1505.208333333314,
      "v": 70
    },
    {
      "midi": 38,
      "hit": false,
      "t": 144359.37499999997,
      "d": 1119.791666666686,
      "v": 78
    },
    {
      "midi": 59,
      "hit": false,
      "t": 144364.5833333333,
      "d": 718.75,
      "v": 94
    },
    {
      "midi": 67,
      "hit": false,
      "t": 144364.5833333333,
      "d": 723.958333333343,
      "v": 105
    },
    {
      "midi": 62,
      "hit": false,
      "t": 144364.5833333333,
      "d": 765.625,
      "v": 104
    },
    {
      "midi": 57,
      "hit": false,
      "t": 145171.87499999997,
      "d": 635.4166666666861,
      "v": 93
    },
    {
      "midi": 62,
      "hit": false,
      "t": 145171.87499999997,
      "d": 713.5416666666861,
      "v": 102
    },
    {
      "midi": 66,
      "hit": false,
      "t": 145177.0833333333,
      "d": 687.5,
      "v": 91
    },
    {
      "midi": 79,
      "hit": false,
      "t": 145984.375,
      "d": 1572.916666666657,
      "v": 125
    },
    {
      "midi": 43,
      "hit": false,
      "t": 145989.58333333334,
      "d": 1442.708333333343,
      "v": 69
    },
    {
      "midi": 55,
      "hit": false,
      "t": 145989.58333333334,
      "d": 1458.333333333343,
      "v": 65
    },
    {
      "midi": 59,
      "hit": false,
      "t": 145989.58333333334,
      "d": 1489.583333333343,
      "v": 94
    },
    {
      "midi": 67,
      "hit": false,
      "t": 145989.58333333334,
      "d": 1531.25,
      "v": 103
    },
    {
      "midi": 62,
      "hit": false,
      "t": 145989.58333333334,
      "d": 1552.083333333343,
      "v": 87
    },
    {
      "midi": 54,
      "hit": false,
      "t": 147604.1666666667,
      "d": 1213.541666666686,
      "v": 73
    },
    {
      "midi": 42,
      "hit": false,
      "t": 147604.1666666667,
      "d": 1260.416666666686,
      "v": 71
    },
    {
      "midi": 57,
      "hit": false,
      "t": 147604.1666666667,
      "d": 1458.333333333343,
      "v": 83
    },
    {
      "midi": 62,
      "hit": false,
      "t": 147604.1666666667,
      "d": 1541.666666666657,
      "v": 106
    },
    {
      "midi": 66,
      "hit": false,
      "t": 147609.37500000003,
      "d": 1510.416666666657,
      "v": 84
    },
    {
      "midi": 78,
      "hit": false,
      "t": 148374.99999999997,
      "d": 395.83333333334303,
      "v": 118
    },
    {
      "midi": 79,
      "hit": false,
      "t": 148781.24999999997,
      "d": 192.70833333334303,
      "v": 97
    },
    {
      "midi": 78,
      "hit": false,
      "t": 148953.12499999997,
      "d": 223.95833333334303,
      "v": 99
    },
    {
      "midi": 79,
      "hit": false,
      "t": 149197.91666666666,
      "d": 1609.375,
      "v": 108
    },
    {
      "midi": 40,
      "hit": false,
      "t": 149229.1666666667,
      "d": 1354.166666666686,
      "v": 66
    },
    {
      "midi": 52,
      "hit": false,
      "t": 149229.1666666667,
      "d": 1416.666666666686,
      "v": 59
    },
    {
      "midi": 59,
      "hit": false,
      "t": 149229.1666666667,
      "d": 1531.250000000029,
      "v": 92
    },
    {
      "midi": 67,
      "hit": false,
      "t": 149229.1666666667,
      "d": 1546.875000000029,
      "v": 98
    },
    {
      "midi": 64,
      "hit": false,
      "t": 149229.1666666667,
      "d": 1614.5833333333721,
      "v": 93
    },
    {
      "midi": 62,
      "hit": false,
      "t": 150848.9583333334,
      "d": 1203.125,
      "v": 96
    },
    {
      "midi": 66,
      "hit": false,
      "t": 150848.9583333334,
      "d": 1296.875,
      "v": 84
    },
    {
      "midi": 57,
      "hit": false,
      "t": 150848.9583333334,
      "d": 1421.875,
      "v": 91
    },
    {
      "midi": 38,
      "hit": false,
      "t": 150854.16666666674,
      "d": 1270.833333333314,
      "v": 69
    },
    {
      "midi": 50,
      "hit": false,
      "t": 150854.16666666674,
      "d": 1322.916666666657,
      "v": 64
    },
    {
      "midi": 78,
      "hit": false,
      "t": 151630.2083333333,
      "d": 395.83333333331393,
      "v": 110
    },
    {
      "midi": 79,
      "hit": false,
      "t": 152015.62499999997,
      "d": 218.7499999999709,
      "v": 105
    },
    {
      "midi": 78,
      "hit": false,
      "t": 152218.74999999994,
      "d": 203.125,
      "v": 102
    },
    {
      "midi": 79,
      "hit": false,
      "t": 152447.9166666666,
      "d": 1604.166666666657,
      "v": 112
    },
    {
      "midi": 55,
      "hit": false,
      "t": 152468.75000000006,
      "d": 1489.583333333343,
      "v": 95
    },
    {
      "midi": 48,
      "hit": false,
      "t": 152473.9583333334,
      "d": 1437.5,
      "v": 58
    },
    {
      "midi": 60,
      "hit": false,
      "t": 152473.9583333334,
      "d": 1468.75,
      "v": 94
    },
    {
      "midi": 64,
      "hit": false,
      "t": 152473.9583333334,
      "d": 1640.625000000029,
      "v": 98
    },
    {
      "midi": 36,
      "hit": false,
      "t": 152473.9583333334,
      "d": 1708.3333333333721,
      "v": 62
    },
    {
      "midi": 67,
      "hit": false,
      "t": 154088.54166666674,
      "d": 1468.75,
      "v": 99
    },
    {
      "midi": 47,
      "hit": false,
      "t": 154093.7500000001,
      "d": 1302.083333333343,
      "v": 66
    },
    {
      "midi": 62,
      "hit": false,
      "t": 154093.7500000001,
      "d": 1453.125,
      "v": 96
    },
    {
      "midi": 59,
      "hit": false,
      "t": 154093.7500000001,
      "d": 1463.541666666657,
      "v": 96
    },
    {
      "midi": 35,
      "hit": false,
      "t": 154093.7500000001,
      "d": 1640.625,
      "v": 65
    },
    {
      "midi": 79,
      "hit": false,
      "t": 154890.6249999999,
      "d": 385.41666666665697,
      "v": 126
    },
    {
      "midi": 78,
      "hit": false,
      "t": 155281.2499999999,
      "d": 427.08333333334303,
      "v": 107
    },
    {
      "midi": 76,
      "hit": false,
      "t": 155677.08333333326,
      "d": 1619.791666666686,
      "v": 113
    },
    {
      "midi": 57,
      "hit": false,
      "t": 155713.54166666674,
      "d": 1489.583333333343,
      "v": 104
    },
    {
      "midi": 60,
      "hit": false,
      "t": 155718.7500000001,
      "d": 1432.291666666657,
      "v": 93
    },
    {
      "midi": 67,
      "hit": false,
      "t": 155718.7500000001,
      "d": 1510.416666666657,
      "v": 105
    },
    {
      "midi": 64,
      "hit": false,
      "t": 155718.7500000001,
      "d": 1552.083333333314,
      "v": 92
    },
    {
      "midi": 45,
      "hit": false,
      "t": 155718.7500000001,
      "d": 1593.749999999971,
      "v": 86
    },
    {
      "midi": 33,
      "hit": false,
      "t": 155718.7500000001,
      "d": 1635.4166666666279,
      "v": 83
    },
    {
      "midi": 59,
      "hit": false,
      "t": 157338.54166666672,
      "d": 640.625,
      "v": 98
    },
    {
      "midi": 62,
      "hit": false,
      "t": 157338.54166666672,
      "d": 703.125,
      "v": 105
    },
    {
      "midi": 67,
      "hit": false,
      "t": 157338.54166666672,
      "d": 734.375,
      "v": 93
    },
    {
      "midi": 38,
      "hit": false,
      "t": 157338.54166666672,
      "d": 1546.875,
      "v": 76
    },
    {
      "midi": 62,
      "hit": false,
      "t": 158098.95833333337,
      "d": 531.25,
      "v": 97
    },
    {
      "midi": 57,
      "hit": false,
      "t": 158104.16666666672,
      "d": 687.5,
      "v": 92
    },
    {
      "midi": 66,
      "hit": false,
      "t": 158114.58333333337,
      "d": 718.75,
      "v": 93
    },
    {
      "midi": 64,
      "hit": false,
      "t": 158932.29166666672,
      "d": 1078.125,
      "v": 103
    },
    {
      "midi": 55,
      "hit": false,
      "t": 158932.29166666672,
      "d": 1192.708333333343,
      "v": 106
    },
    {
      "midi": 36,
      "hit": false,
      "t": 158932.29166666672,
      "d": 2807.291666666686,
      "v": 78
    },
    {
      "midi": 60,
      "hit": false,
      "t": 158937.50000000006,
      "d": 1156.25,
      "v": 100
    },
    {
      "midi": 48,
      "hit": false,
      "t": 158937.50000000006,
      "d": 2776.041666666686,
      "v": 71
    },
    {
      "midi": 64,
      "hit": false,
      "t": 160093.75000000006,
      "d": 411.45833333334303,
      "v": 92
    },
    {
      "midi": 64,
      "hit": false,
      "t": 160567.7083333334,
      "d": 572.916666666657,
      "v": 112
    },
    {
      "midi": 66,
      "hit": false,
      "t": 161114.5833333334,
      "d": 463.54166666665697,
      "v": 119
    },
    {
      "midi": 67,
      "hit": false,
      "t": 161614.5833333334,
      "d": 437.5,
      "v": 110
    },
    {
      "midi": 57,
      "hit": false,
      "t": 162145.8333333334,
      "d": 1223.958333333343,
      "v": 108
    },
    {
      "midi": 62,
      "hit": false,
      "t": 162145.8333333334,
      "d": 1250.000000000029,
      "v": 112
    },
    {
      "midi": 59,
      "hit": false,
      "t": 162151.04166666674,
      "d": 1239.583333333343,
      "v": 105
    },
    {
      "midi": 31,
      "hit": false,
      "t": 162166.66666666674,
      "d": 1145.833333333343,
      "v": 76
    },
    {
      "midi": 43,
      "hit": false,
      "t": 162166.66666666674,
      "d": 1177.083333333343,
      "v": 70
    },
    {
      "midi": 59,
      "hit": false,
      "t": 163458.33333333343,
      "d": 531.2500000000291,
      "v": 93
    },
    {
      "midi": 62,
      "hit": false,
      "t": 163458.33333333343,
      "d": 625.0000000000291,
      "v": 105
    },
    {
      "midi": 57,
      "hit": false,
      "t": 163458.33333333343,
      "d": 734.3750000000291,
      "v": 87
    },
    {
      "midi": 31,
      "hit": false,
      "t": 163463.54166666677,
      "d": 1359.375000000029,
      "v": 89
    },
    {
      "midi": 43,
      "hit": false,
      "t": 163463.54166666677,
      "d": 1817.7083333333721,
      "v": 71
    },
    {
      "midi": 66,
      "hit": false,
      "t": 164208.33333333346,
      "d": 557.291666666657,
      "v": 124
    },
    {
      "midi": 67,
      "hit": false,
      "t": 164802.08333333346,
      "d": 510.41666666668607,
      "v": 112
    },
    {
      "midi": 64,
      "hit": false,
      "t": 165390.62500000015,
      "d": 1640.625000000029,
      "v": 97
    },
    {
      "midi": 55,
      "hit": false,
      "t": 165395.8333333335,
      "d": 1567.708333333343,
      "v": 94
    },
    {
      "midi": 33,
      "hit": false,
      "t": 165401.04166666683,
      "d": 1317.708333333343,
      "v": 59
    },
    {
      "midi": 60,
      "hit": false,
      "t": 165401.04166666683,
      "d": 1520.833333333343,
      "v": 88
    },
    {
      "midi": 45,
      "hit": false,
      "t": 165406.25000000017,
      "d": 1427.083333333343,
      "v": 57
    },
    {
      "midi": 55,
      "hit": false,
      "t": 167046.87500000017,
      "d": 1494.791666666657,
      "v": 84
    },
    {
      "midi": 59,
      "hit": false,
      "t": 167057.29166666683,
      "d": 1390.625,
      "v": 100
    },
    {
      "midi": 62,
      "hit": false,
      "t": 167057.29166666683,
      "d": 1578.125,
      "v": 101
    },
    {
      "midi": 47,
      "hit": false,
      "t": 167067.7083333335,
      "d": 1307.291666666686,
      "v": 63
    },
    {
      "midi": 35,
      "hit": false,
      "t": 167072.91666666683,
      "d": 1125,
      "v": 65
    },
    {
      "midi": 55,
      "hit": false,
      "t": 168677.0833333335,
      "d": 1182.291666666686,
      "v": 101
    },
    {
      "midi": 64,
      "hit": false,
      "t": 168677.0833333335,
      "d": 1411.458333333343,
      "v": 104
    },
    {
      "midi": 36,
      "hit": false,
      "t": 168692.7083333335,
      "d": 1208.333333333343,
      "v": 60
    },
    {
      "midi": 48,
      "hit": false,
      "t": 168692.7083333335,
      "d": 1260.416666666686,
      "v": 60
    },
    {
      "midi": 60,
      "hit": false,
      "t": 168697.91666666683,
      "d": 1421.875,
      "v": 99
    },
    {
      "midi": 64,
      "hit": false,
      "t": 170312.50000000017,
      "d": 541.6666666666861,
      "v": 127
    },
    {
      "midi": 67,
      "hit": false,
      "t": 170312.50000000017,
      "d": 562.5000000000291,
      "v": 126
    },
    {
      "midi": 50,
      "hit": false,
      "t": 170317.70833333352,
      "d": 531.25,
      "v": 115
    },
    {
      "midi": 60,
      "hit": false,
      "t": 170317.70833333352,
      "d": 541.6666666666861,
      "v": 123
    },
    {
      "midi": 38,
      "hit": false,
      "t": 170317.70833333352,
      "d": 562.5000000000291,
      "v": 117
    },
    {
      "midi": 79,
      "hit": false,
      "t": 171942.70833333328,
      "d": 1635.416666666686,
      "v": 127
    },
    {
      "midi": 43,
      "hit": false,
      "t": 171942.70833333355,
      "d": 1239.583333333343,
      "v": 67
    },
    {
      "midi": 59,
      "hit": false,
      "t": 171942.70833333355,
      "d": 1421.875,
      "v": 96
    },
    {
      "midi": 67,
      "hit": false,
      "t": 171942.70833333355,
      "d": 1557.291666666657,
      "v": 109
    },
    {
      "midi": 31,
      "hit": false,
      "t": 171947.9166666669,
      "d": 1156.25,
      "v": 68
    },
    {
      "midi": 62,
      "hit": false,
      "t": 171947.9166666669,
      "d": 1536.458333333314,
      "v": 105
    },
    {
      "midi": 57,
      "hit": false,
      "t": 173557.29166666686,
      "d": 1515.625,
      "v": 98
    },
    {
      "midi": 62,
      "hit": false,
      "t": 173557.29166666686,
      "d": 1578.125,
      "v": 101
    },
    {
      "midi": 54,
      "hit": false,
      "t": 173562.5000000002,
      "d": 1432.291666666657,
      "v": 74
    },
    {
      "midi": 42,
      "hit": false,
      "t": 173562.5000000002,
      "d": 1458.333333333314,
      "v": 70
    },
    {
      "midi": 66,
      "hit": false,
      "t": 173562.5000000002,
      "d": 1536.458333333314,
      "v": 99
    },
    {
      "midi": 78,
      "hit": false,
      "t": 174354.16666666663,
      "d": 395.83333333334303,
      "v": 123
    },
    {
      "midi": 79,
      "hit": false,
      "t": 174760.41666666663,
      "d": 187.5,
      "v": 107
    },
    {
      "midi": 78,
      "hit": false,
      "t": 174927.08333333328,
      "d": 229.16666666665697,
      "v": 101
    },
    {
      "midi": 79,
      "hit": false,
      "t": 175182.2916666666,
      "d": 1604.166666666657,
      "v": 120
    },
    {
      "midi": 47,
      "hit": false,
      "t": 175187.5000000002,
      "d": 78.125,
      "v": 19
    },
    {
      "midi": 40,
      "hit": false,
      "t": 175187.5000000002,
      "d": 1437.5,
      "v": 71
    },
    {
      "midi": 52,
      "hit": false,
      "t": 175187.5000000002,
      "d": 1463.541666666657,
      "v": 64
    },
    {
      "midi": 67,
      "hit": false,
      "t": 175187.5000000002,
      "d": 1515.625,
      "v": 103
    },
    {
      "midi": 59,
      "hit": false,
      "t": 175192.70833333355,
      "d": 1473.958333333314,
      "v": 96
    },
    {
      "midi": 64,
      "hit": false,
      "t": 175192.70833333355,
      "d": 1567.708333333314,
      "v": 97
    },
    {
      "midi": 57,
      "hit": false,
      "t": 176802.08333333352,
      "d": 1463.541666666686,
      "v": 93
    },
    {
      "midi": 62,
      "hit": false,
      "t": 176807.29166666686,
      "d": 1239.583333333343,
      "v": 94
    },
    {
      "midi": 38,
      "hit": false,
      "t": 176807.29166666686,
      "d": 1364.583333333343,
      "v": 57
    },
    {
      "midi": 50,
      "hit": false,
      "t": 176807.29166666686,
      "d": 1364.583333333343,
      "v": 61
    },
    {
      "midi": 66,
      "hit": false,
      "t": 176807.29166666686,
      "d": 1484.375,
      "v": 83
    },
    {
      "midi": 78,
      "hit": false,
      "t": 177609.37499999994,
      "d": 359.375,
      "v": 121
    },
    {
      "midi": 79,
      "hit": false,
      "t": 177979.1666666666,
      "d": 218.75,
      "v": 108
    },
    {
      "midi": 78,
      "hit": false,
      "t": 178182.2916666666,
      "d": 203.125,
      "v": 94
    },
    {
      "midi": 79,
      "hit": false,
      "t": 178411.45833333326,
      "d": 1619.791666666657,
      "v": 117
    },
    {
      "midi": 48,
      "hit": false,
      "t": 178427.08333333352,
      "d": 1359.375,
      "v": 53
    },
    {
      "midi": 55,
      "hit": false,
      "t": 178427.08333333352,
      "d": 1437.5,
      "v": 83
    },
    {
      "midi": 64,
      "hit": false,
      "t": 178427.08333333352,
      "d": 1588.541666666657,
      "v": 85
    },
    {
      "midi": 60,
      "hit": false,
      "t": 178432.29166666686,
      "d": 1421.875,
      "v": 82
    },
    {
      "midi": 36,
      "hit": false,
      "t": 178432.29166666686,
      "d": 1651.041666666657,
      "v": 50
    },
    {
      "midi": 62,
      "hit": false,
      "t": 180046.87500000017,
      "d": 1494.791666666657,
      "v": 87
    },
    {
      "midi": 59,
      "hit": false,
      "t": 180046.87500000017,
      "d": 1505.208333333314,
      "v": 85
    },
    {
      "midi": 67,
      "hit": false,
      "t": 180046.87500000017,
      "d": 1515.624999999971,
      "v": 95
    },
    {
      "midi": 47,
      "hit": false,
      "t": 180052.08333333352,
      "d": 1291.666666666657,
      "v": 51
    },
    {
      "midi": 35,
      "hit": false,
      "t": 180052.08333333352,
      "d": 1604.1666666666279,
      "v": 59
    },
    {
      "midi": 84,
      "hit": false,
      "t": 180833.33333333326,
      "d": 375,
      "v": 119
    },
    {
      "midi": 83,
      "hit": false,
      "t": 181223.95833333326,
      "d": 458.33333333331393,
      "v": 111
    },
    {
      "midi": 79,
      "hit": false,
      "t": 181609.3749999999,
      "d": 1708.333333333343,
      "v": 114
    },
    {
      "midi": 33,
      "hit": false,
      "t": 181671.87500000015,
      "d": 1630.2083333333721,
      "v": 69
    },
    {
      "midi": 60,
      "hit": false,
      "t": 181677.0833333335,
      "d": 1296.875,
      "v": 76
    },
    {
      "midi": 57,
      "hit": false,
      "t": 181677.0833333335,
      "d": 1411.458333333343,
      "v": 86
    },
    {
      "midi": 67,
      "hit": false,
      "t": 181677.0833333335,
      "d": 1427.083333333343,
      "v": 57
    },
    {
      "midi": 64,
      "hit": false,
      "t": 181677.0833333335,
      "d": 1505.208333333343,
      "v": 70
    },
    {
      "midi": 45,
      "hit": false,
      "t": 181677.0833333335,
      "d": 1557.291666666686,
      "v": 65
    },
    {
      "midi": 59,
      "hit": false,
      "t": 183291.66666666683,
      "d": 718.7500000000291,
      "v": 94
    },
    {
      "midi": 62,
      "hit": false,
      "t": 183291.66666666683,
      "d": 770.833333333343,
      "v": 104
    },
    {
      "midi": 38,
      "hit": false,
      "t": 183291.66666666683,
      "d": 1114.583333333343,
      "v": 78
    },
    {
      "midi": 67,
      "hit": false,
      "t": 183296.87500000017,
      "d": 723.958333333343,
      "v": 105
    },
    {
      "midi": 57,
      "hit": false,
      "t": 184104.16666666683,
      "d": 635.4166666666861,
      "v": 93
    },
    {
      "midi": 66,
      "hit": false,
      "t": 184104.16666666683,
      "d": 692.708333333343,
      "v": 91
    },
    {
      "midi": 62,
      "hit": false,
      "t": 184104.16666666683,
      "d": 708.333333333343,
      "v": 102
    },
    {
      "midi": 79,
      "hit": false,
      "t": 184916.6666666666,
      "d": 1567.708333333314,
      "v": 125
    },
    {
      "midi": 43,
      "hit": false,
      "t": 184921.87500000017,
      "d": 1437.5,
      "v": 69
    },
    {
      "midi": 55,
      "hit": false,
      "t": 184921.87500000017,
      "d": 1453.125,
      "v": 65
    },
    {
      "midi": 59,
      "hit": false,
      "t": 184921.87500000017,
      "d": 1489.583333333343,
      "v": 94
    },
    {
      "midi": 67,
      "hit": false,
      "t": 184921.87500000017,
      "d": 1531.25,
      "v": 103
    },
    {
      "midi": 62,
      "hit": false,
      "t": 184921.87500000017,
      "d": 1546.875,
      "v": 87
    },
    {
      "midi": 54,
      "hit": false,
      "t": 186536.45833333352,
      "d": 1208.333333333343,
      "v": 73
    },
    {
      "midi": 42,
      "hit": false,
      "t": 186536.45833333352,
      "d": 1260.416666666686,
      "v": 71
    },
    {
      "midi": 57,
      "hit": false,
      "t": 186536.45833333352,
      "d": 1453.125000000029,
      "v": 83
    },
    {
      "midi": 66,
      "hit": false,
      "t": 186536.45833333352,
      "d": 1515.625000000029,
      "v": 84
    },
    {
      "midi": 62,
      "hit": false,
      "t": 186536.45833333352,
      "d": 1536.4583333333721,
      "v": 106
    },
    {
      "midi": 78,
      "hit": false,
      "t": 187307.29166666657,
      "d": 395.83333333334303,
      "v": 118
    },
    {
      "midi": 79,
      "hit": false,
      "t": 187713.54166666657,
      "d": 192.70833333331393,
      "v": 97
    },
    {
      "midi": 78,
      "hit": false,
      "t": 187880.20833333323,
      "d": 229.16666666665697,
      "v": 99
    },
    {
      "midi": 79,
      "hit": false,
      "t": 188124.99999999988,
      "d": 1614.583333333343,
      "v": 108
    },
    {
      "midi": 52,
      "hit": false,
      "t": 188161.45833333358,
      "d": 1416.666666666686,
      "v": 59
    },
    {
      "midi": 59,
      "hit": false,
      "t": 188161.45833333358,
      "d": 1526.041666666686,
      "v": 92
    },
    {
      "midi": 67,
      "hit": false,
      "t": 188161.45833333358,
      "d": 1541.666666666686,
      "v": 98
    },
    {
      "midi": 64,
      "hit": false,
      "t": 188161.45833333358,
      "d": 1609.375000000029,
      "v": 93
    },
    {
      "midi": 40,
      "hit": false,
      "t": 188166.66666666692,
      "d": 1343.75,
      "v": 66
    },
    {
      "midi": 62,
      "hit": false,
      "t": 189781.25000000026,
      "d": 1197.916666666686,
      "v": 96
    },
    {
      "midi": 57,
      "hit": false,
      "t": 189781.25000000026,
      "d": 1416.666666666686,
      "v": 91
    },
    {
      "midi": 38,
      "hit": false,
      "t": 189786.4583333336,
      "d": 1270.833333333343,
      "v": 69
    },
    {
      "midi": 66,
      "hit": false,
      "t": 189786.4583333336,
      "d": 1286.458333333343,
      "v": 84
    },
    {
      "midi": 50,
      "hit": false,
      "t": 189786.4583333336,
      "d": 1322.916666666686,
      "v": 64
    },
    {
      "midi": 78,
      "hit": false,
      "t": 190557.29166666657,
      "d": 395.83333333334303,
      "v": 110
    },
    {
      "midi": 79,
      "hit": false,
      "t": 190947.91666666657,
      "d": 218.75,
      "v": 105
    },
    {
      "midi": 78,
      "hit": false,
      "t": 191151.04166666657,
      "d": 203.125,
      "v": 102
    },
    {
      "midi": 79,
      "hit": false,
      "t": 191374.9999999999,
      "d": 1609.375,
      "v": 112
    },
    {
      "midi": 48,
      "hit": false,
      "t": 191406.2500000003,
      "d": 1432.291666666686,
      "v": 58
    },
    {
      "midi": 60,
      "hit": false,
      "t": 191406.2500000003,
      "d": 1468.750000000029,
      "v": 94
    },
    {
      "midi": 55,
      "hit": false,
      "t": 191406.2500000003,
      "d": 1484.375000000029,
      "v": 95
    },
    {
      "midi": 64,
      "hit": false,
      "t": 191406.2500000003,
      "d": 1635.4166666667152,
      "v": 98
    },
    {
      "midi": 36,
      "hit": false,
      "t": 191406.2500000003,
      "d": 1703.1250000000582,
      "v": 62
    },
    {
      "midi": 47,
      "hit": false,
      "t": 193026.041666667,
      "d": 1302.083333333343,
      "v": 66
    },
    {
      "midi": 62,
      "hit": false,
      "t": 193026.041666667,
      "d": 1453.125,
      "v": 96
    },
    {
      "midi": 59,
      "hit": false,
      "t": 193026.041666667,
      "d": 1458.333333333343,
      "v": 96
    },
    {
      "midi": 67,
      "hit": false,
      "t": 193026.041666667,
      "d": 1463.541666666686,
      "v": 99
    },
    {
      "midi": 35,
      "hit": false,
      "t": 193026.041666667,
      "d": 1640.625000000029,
      "v": 65
    },
    {
      "midi": 79,
      "hit": false,
      "t": 193817.70833333326,
      "d": 390.625,
      "v": 126
    },
    {
      "midi": 78,
      "hit": false,
      "t": 194208.33333333326,
      "d": 432.29166666665697,
      "v": 107
    },
    {
      "midi": 76,
      "hit": false,
      "t": 194604.1666666666,
      "d": 1625,
      "v": 113
    },
    {
      "midi": 45,
      "hit": false,
      "t": 194651.04166666704,
      "d": 1109.375,
      "v": 73
    },
    {
      "midi": 60,
      "hit": false,
      "t": 194651.04166666704,
      "d": 1307.291666666657,
      "v": 87
    },
    {
      "midi": 57,
      "hit": false,
      "t": 194651.04166666704,
      "d": 1401.041666666657,
      "v": 99
    },
    {
      "midi": 67,
      "hit": false,
      "t": 194651.04166666704,
      "d": 1416.666666666657,
      "v": 97
    },
    {
      "midi": 64,
      "hit": false,
      "t": 194651.04166666704,
      "d": 1458.333333333314,
      "v": 84
    },
    {
      "midi": 33,
      "hit": false,
      "t": 194656.25000000038,
      "d": 953.125,
      "v": 73
    },
    {
      "midi": 62,
      "hit": false,
      "t": 196244.791666667,
      "d": 776.0416666665988,
      "v": 82
    },
    {
      "midi": 59,
      "hit": false,
      "t": 196255.20833333366,
      "d": 713.5416666666279,
      "v": 74
    },
    {
      "midi": 67,
      "hit": false,
      "t": 196255.20833333366,
      "d": 828.1249999999418,
      "v": 89
    },
    {
      "midi": 38,
      "hit": false,
      "t": 196270.83333333366,
      "d": 656.2499999999709,
      "v": 50
    },
    {
      "midi": 50,
      "hit": false,
      "t": 196270.83333333366,
      "d": 708.3333333332848,
      "v": 43
    },
    {
      "midi": 62,
      "hit": false,
      "t": 197098.9583333336,
      "d": 614.5833333333721,
      "v": 61
    },
    {
      "midi": 57,
      "hit": false,
      "t": 197104.16666666695,
      "d": 625.0000000000291,
      "v": 69
    },
    {
      "midi": 66,
      "hit": false,
      "t": 197125.0000000003,
      "d": 604.1666666666861,
      "v": 61
    },
    {
      "midi": 38,
      "hit": false,
      "t": 197125.0000000003,
      "d": 614.583333333343,
      "v": 38
    },
    {
      "midi": 50,
      "hit": false,
      "t": 197130.20833333363,
      "d": 593.75,
      "v": 21
    }
  ]
}