{
  "jsonPath": "Unknown/Unknown/X Factor Finalists/hero.json",
  "path": "Unknown\\Unknown\\X Factor Finalists\\Hero.mid",
  "name": "Hero",
  "difficulty": "Advanced",
  "bpm": 62.99999685000016,
  "notes": [
    {
      "midi": 84,
      "hit": false,
      "t": 3507.936683333333,
      "d": 111.11111666666648,
      "v": 127
    },
    {
      "midi": 84,
      "hit": false,
      "t": 3833.3335249999996,
      "d": 222.2222333333334,
      "v": 127
    },
    {
      "midi": 55,
      "hit": false,
      "t": 4126.984333333333,
      "d": 238.0952499999994,
      "v": 107
    },
    {
      "midi": 58,
      "hit": false,
      "t": 4420.635141666666,
      "d": 190.47620000000006,
      "v": 67
    },
    {
      "midi": 67,
      "hit": false,
      "t": 4746.031983333332,
      "d": 269.8412833333332,
      "v": 95
    },
    {
      "midi": 63,
      "hit": false,
      "t": 5039.682791666665,
      "d": 103.17460833333371,
      "v": 48
    },
    {
      "midi": 70,
      "hit": false,
      "t": 5365.079633333332,
      "d": 55.555558333333465,
      "v": 102
    },
    {
      "midi": 84,
      "hit": false,
      "t": 6920.635266666666,
      "d": 126.98413333333338,
      "v": 112
    },
    {
      "midi": 84,
      "hit": false,
      "t": 7269.8416333333325,
      "d": 47.61905000000024,
      "v": 127
    },
    {
      "midi": 84,
      "hit": false,
      "t": 7571.4289499999995,
      "d": 111.11111666666693,
      "v": 127
    },
    {
      "midi": 58,
      "hit": false,
      "t": 7976.190874999998,
      "d": 261.90477499999906,
      "v": 100
    },
    {
      "midi": 63,
      "hit": false,
      "t": 8293.651208333331,
      "d": 206.34921666666742,
      "v": 88
    },
    {
      "midi": 67,
      "hit": false,
      "t": 8619.048049999998,
      "d": 198.41270833333328,
      "v": 98
    },
    {
      "midi": 63,
      "hit": false,
      "t": 8904.762349999997,
      "d": 79.36508333333404,
      "v": 73
    },
    {
      "midi": 70,
      "hit": false,
      "t": 9230.159191666664,
      "d": 55.555558333333465,
      "v": 82
    },
    {
      "midi": 84,
      "hit": false,
      "t": 10825.397366666666,
      "d": 71.42857499999991,
      "v": 102
    },
    {
      "midi": 84,
      "hit": false,
      "t": 11150.794208333333,
      "d": 55.555558333333465,
      "v": 119
    },
    {
      "midi": 84,
      "hit": false,
      "t": 11436.508508333332,
      "d": 79.36508333333404,
      "v": 124
    },
    {
      "midi": 55,
      "hit": false,
      "t": 11785.714874999996,
      "d": 365.0793833333337,
      "v": 102
    },
    {
      "midi": 58,
      "hit": false,
      "t": 12079.36568333333,
      "d": 261.90477499999906,
      "v": 88
    },
    {
      "midi": 62,
      "hit": false,
      "t": 12388.889508333328,
      "d": 206.34921666666742,
      "v": 98
    },
    {
      "midi": 58,
      "hit": false,
      "t": 12706.349841666663,
      "d": 134.9206416666675,
      "v": 50
    },
    {
      "midi": 67,
      "hit": false,
      "t": 13031.74668333333,
      "d": 103.1746083333328,
      "v": 94
    },
    {
      "midi": 84,
      "hit": false,
      "t": 14880.953125,
      "d": 87.30159166666635,
      "v": 94
    },
    {
      "midi": 84,
      "hit": false,
      "t": 15214.286474999999,
      "d": 55.555558333333465,
      "v": 105
    },
    {
      "midi": 84,
      "hit": false,
      "t": 15476.19125,
      "d": 55.555558333333465,
      "v": 119
    },
    {
      "midi": 54,
      "hit": false,
      "t": 15579.365858333327,
      "d": 309.52382500000203,
      "v": 108
    },
    {
      "midi": 60,
      "hit": false,
      "t": 15880.953174999995,
      "d": 150.79365833333395,
      "v": 94
    },
    {
      "midi": 63,
      "hit": false,
      "t": 16190.476999999995,
      "d": 277.7777916666673,
      "v": 98
    },
    {
      "midi": 60,
      "hit": false,
      "t": 16507.937333333328,
      "d": 79.36508333333404,
      "v": 95
    },
    {
      "midi": 68,
      "hit": false,
      "t": 16833.334174999996,
      "d": 79.36508333333404,
      "v": 98
    },
    {
      "midi": 84,
      "hit": false,
      "t": 18777.778716666668,
      "d": 87.30159166666635,
      "v": 102
    },
    {
      "midi": 83,
      "hit": false,
      "t": 18944.445391666668,
      "d": 63.49206666666578,
      "v": 102
    },
    {
      "midi": 84,
      "hit": false,
      "t": 18944.445391666668,
      "d": 63.49206666666578,
      "v": 99
    },
    {
      "midi": 51,
      "hit": false,
      "t": 19047.62,
      "d": 1404.7619749999976,
      "v": 114
    },
    {
      "midi": 84,
      "hit": false,
      "t": 19134.921591666665,
      "d": 150.79365833333213,
      "v": 127
    },
    {
      "midi": 55,
      "hit": false,
      "t": 19365.08033333333,
      "d": 420.63494166666715,
      "v": 107
    },
    {
      "midi": 58,
      "hit": false,
      "t": 19682.540666666664,
      "d": 404.7619250000025,
      "v": 100
    },
    {
      "midi": 63,
      "hit": false,
      "t": 20000.001,
      "d": 412.6984333333312,
      "v": 108
    },
    {
      "midi": 58,
      "hit": false,
      "t": 20317.461333333333,
      "d": 285.714299999996,
      "v": 113
    },
    {
      "midi": 55,
      "hit": false,
      "t": 20634.92166666666,
      "d": 174.6031833333327,
      "v": 103
    },
    {
      "midi": 51,
      "hit": false,
      "t": 20952.381999999994,
      "d": 1634.9207166666674,
      "v": 110
    },
    {
      "midi": 55,
      "hit": false,
      "t": 21269.842333333327,
      "d": 206.3492166666656,
      "v": 94
    },
    {
      "midi": 58,
      "hit": false,
      "t": 21587.30266666666,
      "d": 476.1905000000006,
      "v": 110
    },
    {
      "midi": 63,
      "hit": false,
      "t": 21904.76299999999,
      "d": 722.222258333335,
      "v": 110
    },
    {
      "midi": 58,
      "hit": false,
      "t": 22222.223333333328,
      "d": 404.7619249999989,
      "v": 113
    },
    {
      "midi": 84,
      "hit": false,
      "t": 22246.032858333332,
      "d": 126.98413333333156,
      "v": 99
    },
    {
      "midi": 55,
      "hit": false,
      "t": 22539.68366666666,
      "d": 246.03175833333444,
      "v": 110
    },
    {
      "midi": 84,
      "hit": false,
      "t": 22563.493191666665,
      "d": 95.23809999999867,
      "v": 108
    },
    {
      "midi": 48,
      "hit": false,
      "t": 22857.143999999997,
      "d": 1436.5080083333341,
      "v": 82
    },
    {
      "midi": 84,
      "hit": false,
      "t": 22880.953524999997,
      "d": 174.6031833333327,
      "v": 127
    },
    {
      "midi": 55,
      "hit": false,
      "t": 23174.60433333333,
      "d": 777.7778166666649,
      "v": 103
    },
    {
      "midi": 60,
      "hit": false,
      "t": 23492.06466666666,
      "d": 444.4444666666641,
      "v": 98
    },
    {
      "midi": 63,
      "hit": false,
      "t": 23809.524999999994,
      "d": 500.0000250000048,
      "v": 107
    },
    {
      "midi": 60,
      "hit": false,
      "t": 24126.98533333333,
      "d": 293.6508083333356,
      "v": 91
    },
    {
      "midi": 55,
      "hit": false,
      "t": 24444.445666666667,
      "d": 380.9523999999983,
      "v": 107
    },
    {
      "midi": 48,
      "hit": false,
      "t": 24761.906,
      "d": 1269.8413333333374,
      "v": 100
    },
    {
      "midi": 55,
      "hit": false,
      "t": 25079.36633333333,
      "d": 753.9682916666716,
      "v": 98
    },
    {
      "midi": 60,
      "hit": false,
      "t": 25396.826666666668,
      "d": 365.0793833333337,
      "v": 98
    },
    {
      "midi": 63,
      "hit": false,
      "t": 25714.287,
      "d": 365.0793833333373,
      "v": 102
    },
    {
      "midi": 60,
      "hit": false,
      "t": 26031.747333333336,
      "d": 293.6508083333356,
      "v": 71
    },
    {
      "midi": 84,
      "hit": false,
      "t": 26039.68384166666,
      "d": 95.23809999999867,
      "v": 127
    },
    {
      "midi": 55,
      "hit": false,
      "t": 26349.207666666673,
      "d": 174.6031833333327,
      "v": 103
    },
    {
      "midi": 84,
      "hit": false,
      "t": 26357.144174999994,
      "d": 55.555558333333465,
      "v": 112
    },
    {
      "midi": 84,
      "hit": false,
      "t": 26515.874341666662,
      "d": 119.04762499999924,
      "v": 127
    },
    {
      "midi": 43,
      "hit": false,
      "t": 26666.668000000005,
      "d": 1357.1429249999965,
      "v": 107
    },
    {
      "midi": 58,
      "hit": false,
      "t": 26984.128333333338,
      "d": 500.00002499999755,
      "v": 108
    },
    {
      "midi": 62,
      "hit": false,
      "t": 27301.58866666667,
      "d": 253.96826666666675,
      "v": 91
    },
    {
      "midi": 67,
      "hit": false,
      "t": 27619.049000000003,
      "d": 357.14287499999773,
      "v": 85
    },
    {
      "midi": 62,
      "hit": false,
      "t": 27936.509333333335,
      "d": 246.03175833333444,
      "v": 100
    },
    {
      "midi": 58,
      "hit": false,
      "t": 28253.96966666667,
      "d": 206.3492166666656,
      "v": 91
    },
    {
      "midi": 43,
      "hit": false,
      "t": 28571.430000000004,
      "d": 1444.4445166666665,
      "v": 82
    },
    {
      "midi": 58,
      "hit": false,
      "t": 28888.890333333336,
      "d": 285.71429999999964,
      "v": 44
    },
    {
      "midi": 62,
      "hit": false,
      "t": 29206.35066666667,
      "d": 103.17460833333462,
      "v": 95
    },
    {
      "midi": 70,
      "hit": false,
      "t": 29523.811000000005,
      "d": 182.53969166666502,
      "v": 102
    },
    {
      "midi": 67,
      "hit": false,
      "t": 29841.271333333338,
      "d": 246.03175833333444,
      "v": 95
    },
    {
      "midi": 62,
      "hit": false,
      "t": 30158.731666666674,
      "d": 158.73016666666808,
      "v": 94
    },
    {
      "midi": 84,
      "hit": false,
      "t": 30166.668174999995,
      "d": 126.98413333333156,
      "v": 102
    },
    {
      "midi": 44,
      "hit": false,
      "t": 30476.19200000001,
      "d": 1587.30166666667,
      "v": 107
    },
    {
      "midi": 84,
      "hit": false,
      "t": 30484.128508333328,
      "d": 103.17460833333462,
      "v": 119
    },
    {
      "midi": 84,
      "hit": false,
      "t": 30785.715824999996,
      "d": 95.23809999999867,
      "v": 108
    },
    {
      "midi": 56,
      "hit": false,
      "t": 30793.652333333343,
      "d": 317.4603333333325,
      "v": 43
    },
    {
      "midi": 60,
      "hit": false,
      "t": 31111.112666666675,
      "d": 301.5873166666679,
      "v": 48
    },
    {
      "midi": 63,
      "hit": false,
      "t": 31428.57300000001,
      "d": 373.015891666666,
      "v": 88
    },
    {
      "midi": 60,
      "hit": false,
      "t": 31746.033333333344,
      "d": 246.03175833333444,
      "v": 59
    },
    {
      "midi": 56,
      "hit": false,
      "t": 32063.49366666668,
      "d": 126.98413333333156,
      "v": 94
    },
    {
      "midi": 61,
      "hit": false,
      "t": 32380.954000000012,
      "d": 253.96826666666675,
      "v": 108
    },
    {
      "midi": 66,
      "hit": false,
      "t": 32698.414333333345,
      "d": 182.53969166666866,
      "v": 91
    },
    {
      "midi": 61,
      "hit": false,
      "t": 33015.87466666668,
      "d": 55.555558333333465,
      "v": 98
    },
    {
      "midi": 54,
      "hit": false,
      "t": 33333.33500000001,
      "d": 634.920666666665,
      "v": 82
    },
    {
      "midi": 56,
      "hit": false,
      "t": 33333.33500000001,
      "d": 674.6032083333339,
      "v": 88
    },
    {
      "midi": 63,
      "hit": false,
      "t": 33650.795333333335,
      "d": 317.46033333333617,
      "v": 91
    },
    {
      "midi": 84,
      "hit": false,
      "t": 33690.477875,
      "d": 95.2381000000023,
      "v": 108
    },
    {
      "midi": 60,
      "hit": false,
      "t": 33968.25566666667,
      "d": 119.04762499999924,
      "v": 77
    },
    {
      "midi": 84,
      "hit": false,
      "t": 33976.192175,
      "d": 63.49206666666578,
      "v": 105
    },
    {
      "midi": 84,
      "hit": false,
      "t": 34158.73186666666,
      "d": 134.92064166666387,
      "v": 127
    },
    {
      "midi": 51,
      "hit": false,
      "t": 34285.71600000001,
      "d": 1404.7619750000085,
      "v": 114
    },
    {
      "midi": 55,
      "hit": false,
      "t": 34603.176333333344,
      "d": 420.6349416666708,
      "v": 107
    },
    {
      "midi": 58,
      "hit": false,
      "t": 34920.63666666668,
      "d": 404.7619249999989,
      "v": 100
    },
    {
      "midi": 63,
      "hit": false,
      "t": 35238.09700000001,
      "d": 412.69843333333847,
      "v": 108
    },
    {
      "midi": 58,
      "hit": false,
      "t": 35555.557333333345,
      "d": 285.7143000000069,
      "v": 113
    },
    {
      "midi": 55,
      "hit": false,
      "t": 35873.01766666669,
      "d": 174.6031833333327,
      "v": 103
    },
    {
      "midi": 51,
      "hit": false,
      "t": 36190.478000000025,
      "d": 1634.9207166666674,
      "v": 110
    },
    {
      "midi": 55,
      "hit": false,
      "t": 36507.93833333336,
      "d": 206.34921666666924,
      "v": 94
    },
    {
      "midi": 58,
      "hit": false,
      "t": 36825.3986666667,
      "d": 476.190499999997,
      "v": 110
    },
    {
      "midi": 63,
      "hit": false,
      "t": 37142.859000000026,
      "d": 722.222258333335,
      "v": 110
    },
    {
      "midi": 58,
      "hit": false,
      "t": 37460.31933333336,
      "d": 404.7619249999989,
      "v": 113
    },
    {
      "midi": 84,
      "hit": false,
      "t": 37492.06536666666,
      "d": 95.2381000000023,
      "v": 124
    },
    {
      "midi": 55,
      "hit": false,
      "t": 37777.77966666669,
      "d": 246.03175833333808,
      "v": 110
    },
    {
      "midi": 84,
      "hit": false,
      "t": 37801.589191666666,
      "d": 95.2381000000023,
      "v": 127
    },
    {
      "midi": 84,
      "hit": false,
      "t": 38087.303491666666,
      "d": 103.17460833333462,
      "v": 127
    },
    {
      "midi": 48,
      "hit": false,
      "t": 38095.24000000003,
      "d": 1436.5080083333378,
      "v": 82
    },
    {
      "midi": 55,
      "hit": false,
      "t": 38412.70033333336,
      "d": 777.7778166666685,
      "v": 103
    },
    {
      "midi": 60,
      "hit": false,
      "t": 38730.1606666667,
      "d": 444.4444666666677,
      "v": 98
    },
    {
      "midi": 63,
      "hit": false,
      "t": 39047.621000000036,
      "d": 500.0000249999939,
      "v": 107
    },
    {
      "midi": 60,
      "hit": false,
      "t": 39365.081333333364,
      "d": 293.65080833333195,
      "v": 91
    },
    {
      "midi": 55,
      "hit": false,
      "t": 39682.54166666669,
      "d": 380.95240000000194,
      "v": 107
    },
    {
      "midi": 48,
      "hit": false,
      "t": 40000.00200000003,
      "d": 1269.84133333333,
      "v": 100
    },
    {
      "midi": 55,
      "hit": false,
      "t": 40317.46233333336,
      "d": 753.9682916666643,
      "v": 98
    },
    {
      "midi": 60,
      "hit": false,
      "t": 40634.92266666669,
      "d": 365.0793833333373,
      "v": 98
    },
    {
      "midi": 63,
      "hit": false,
      "t": 40952.38300000002,
      "d": 365.0793833333373,
      "v": 102
    },
    {
      "midi": 84,
      "hit": false,
      "t": 41230.16079166667,
      "d": 103.17460833333462,
      "v": 119
    },
    {
      "midi": 60,
      "hit": false,
      "t": 41269.84333333336,
      "d": 293.65080833333195,
      "v": 71
    },
    {
      "midi": 84,
      "hit": false,
      "t": 41531.74810833334,
      "d": 87.30159166666999,
      "v": 119
    },
    {
      "midi": 55,
      "hit": false,
      "t": 41587.30366666669,
      "d": 174.6031833333327,
      "v": 103
    },
    {
      "midi": 84,
      "hit": false,
      "t": 41849.20844166668,
      "d": 119.04762499999924,
      "v": 127
    },
    {
      "midi": 43,
      "hit": false,
      "t": 41904.764000000025,
      "d": 1357.1429250000074,
      "v": 107
    },
    {
      "midi": 58,
      "hit": false,
      "t": 42222.22433333336,
      "d": 500.0000250000012,
      "v": 108
    },
    {
      "midi": 62,
      "hit": false,
      "t": 42539.6846666667,
      "d": 253.9682666666631,
      "v": 91
    },
    {
      "midi": 67,
      "hit": false,
      "t": 42857.145000000026,
      "d": 357.142875000005,
      "v": 85
    },
    {
      "midi": 62,
      "hit": false,
      "t": 43174.60533333336,
      "d": 246.03175833333808,
      "v": 100
    },
    {
      "midi": 58,
      "hit": false,
      "t": 43492.0656666667,
      "d": 206.34921666666924,
      "v": 91
    },
    {
      "midi": 43,
      "hit": false,
      "t": 43809.526000000034,
      "d": 1444.44451666667,
      "v": 82
    },
    {
      "midi": 58,
      "hit": false,
      "t": 44126.98633333337,
      "d": 285.71429999999964,
      "v": 44
    },
    {
      "midi": 62,
      "hit": false,
      "t": 44444.44666666671,
      "d": 103.17460833333462,
      "v": 95
    },
    {
      "midi": 70,
      "hit": false,
      "t": 44761.90700000004,
      "d": 182.53969166666502,
      "v": 102
    },
    {
      "midi": 84,
      "hit": false,
      "t": 45071.43082500001,
      "d": 134.92064166666387,
      "v": 112
    },
    {
      "midi": 67,
      "hit": false,
      "t": 45079.36733333337,
      "d": 246.0317583333308,
      "v": 95
    },
    {
      "midi": 84,
      "hit": false,
      "t": 45373.018141666675,
      "d": 119.04762499999924,
      "v": 94
    },
    {
      "midi": 62,
      "hit": false,
      "t": 45396.8276666667,
      "d": 158.73016666666808,
      "v": 94
    },
    {
      "midi": 84,
      "hit": false,
      "t": 45714.28800000001,
      "d": 166.6666750000004,
      "v": 127
    },
    {
      "midi": 44,
      "hit": false,
      "t": 45714.28800000003,
      "d": 1587.3016666666663,
      "v": 107
    },
    {
      "midi": 56,
      "hit": false,
      "t": 46031.748333333366,
      "d": 317.46033333333617,
      "v": 43
    },
    {
      "midi": 84,
      "hit": false,
      "t": 46119.04992500001,
      "d": 95.2381000000023,
      "v": 119
    },
    {
      "midi": 60,
      "hit": false,
      "t": 46349.2086666667,
      "d": 301.58731666666426,
      "v": 48
    },
    {
      "midi": 63,
      "hit": false,
      "t": 46666.66900000003,
      "d": 373.01589166666963,
      "v": 88
    },
    {
      "midi": 60,
      "hit": false,
      "t": 46984.12933333337,
      "d": 246.0317583333308,
      "v": 59
    },
    {
      "midi": 56,
      "hit": false,
      "t": 47301.589666666696,
      "d": 126.98413333333156,
      "v": 94
    },
    {
      "midi": 61,
      "hit": false,
      "t": 47619.050000000025,
      "d": 253.9682666666704,
      "v": 108
    },
    {
      "midi": 66,
      "hit": false,
      "t": 47936.51033333336,
      "d": 182.53969166666502,
      "v": 91
    },
    {
      "midi": 61,
      "hit": false,
      "t": 48253.97066666669,
      "d": 55.555558333333465,
      "v": 98
    },
    {
      "midi": 54,
      "hit": false,
      "t": 48571.43100000002,
      "d": 634.920666666665,
      "v": 82
    },
    {
      "midi": 56,
      "hit": false,
      "t": 48571.43100000002,
      "d": 674.6032083333339,
      "v": 88
    },
    {
      "midi": 63,
      "hit": false,
      "t": 48888.89133333335,
      "d": 317.46033333333617,
      "v": 91
    },
    {
      "midi": 60,
      "hit": false,
      "t": 49206.351666666684,
      "d": 119.04762499999924,
      "v": 77
    },
    {
      "midi": 84,
      "hit": false,
      "t": 49261.90722500001,
      "d": 55.555558333333465,
      "v": 112
    },
    {
      "midi": 51,
      "hit": false,
      "t": 49523.81200000002,
      "d": 1404.7619750000085,
      "v": 114
    },
    {
      "midi": 84,
      "hit": false,
      "t": 49547.62152500001,
      "d": 79.3650833333304,
      "v": 127
    },
    {
      "midi": 55,
      "hit": false,
      "t": 49841.272333333356,
      "d": 420.6349416666708,
      "v": 107
    },
    {
      "midi": 58,
      "hit": false,
      "t": 50158.73266666669,
      "d": 404.7619249999989,
      "v": 100
    },
    {
      "midi": 63,
      "hit": false,
      "t": 50476.19300000002,
      "d": 412.69843333333847,
      "v": 108
    },
    {
      "midi": 58,
      "hit": false,
      "t": 50793.65333333336,
      "d": 285.7143000000069,
      "v": 113
    },
    {
      "midi": 55,
      "hit": false,
      "t": 51111.1136666667,
      "d": 174.6031833333327,
      "v": 103
    },
    {
      "midi": 51,
      "hit": false,
      "t": 51428.57400000004,
      "d": 1634.9207166666674,
      "v": 110
    },
    {
      "midi": 55,
      "hit": false,
      "t": 51746.03433333337,
      "d": 206.34921666666924,
      "v": 94
    },
    {
      "midi": 58,
      "hit": false,
      "t": 52063.49466666671,
      "d": 476.190499999997,
      "v": 110
    },
    {
      "midi": 63,
      "hit": false,
      "t": 52380.95500000004,
      "d": 722.222258333335,
      "v": 110
    },
    {
      "midi": 58,
      "hit": false,
      "t": 52698.415333333374,
      "d": 404.7619249999989,
      "v": 113
    },
    {
      "midi": 84,
      "hit": false,
      "t": 52706.35184166667,
      "d": 55.555558333333465,
      "v": 115
    },
    {
      "midi": 55,
      "hit": false,
      "t": 53015.8756666667,
      "d": 246.03175833333808,
      "v": 110
    },
    {
      "midi": 84,
      "hit": false,
      "t": 53023.81217500001,
      "d": 55.555558333333465,
      "v": 124
    },
    {
      "midi": 84,
      "hit": false,
      "t": 53325.39949166667,
      "d": 71.42857499999809,
      "v": 127
    },
    {
      "midi": 48,
      "hit": false,
      "t": 53333.33600000004,
      "d": 1436.5080083333378,
      "v": 82
    },
    {
      "midi": 55,
      "hit": false,
      "t": 53650.796333333376,
      "d": 777.7778166666685,
      "v": 103
    },
    {
      "midi": 60,
      "hit": false,
      "t": 53968.25666666671,
      "d": 444.4444666666677,
      "v": 98
    },
    {
      "midi": 63,
      "hit": false,
      "t": 54285.71700000005,
      "d": 500.0000249999939,
      "v": 107
    },
    {
      "midi": 60,
      "hit": false,
      "t": 54603.17733333338,
      "d": 293.65080833333195,
      "v": 91
    },
    {
      "midi": 55,
      "hit": false,
      "t": 54920.637666666706,
      "d": 380.95240000000194,
      "v": 107
    },
    {
      "midi": 48,
      "hit": false,
      "t": 55238.09800000004,
      "d": 1269.84133333333,
      "v": 100
    },
    {
      "midi": 55,
      "hit": false,
      "t": 55555.55833333337,
      "d": 753.9682916666643,
      "v": 98
    },
    {
      "midi": 60,
      "hit": false,
      "t": 55873.0186666667,
      "d": 365.0793833333373,
      "v": 98
    },
    {
      "midi": 63,
      "hit": false,
      "t": 56190.479000000036,
      "d": 365.0793833333373,
      "v": 102
    },
    {
      "midi": 60,
      "hit": false,
      "t": 56507.93933333337,
      "d": 293.65080833333195,
      "v": 71
    },
    {
      "midi": 84,
      "hit": false,
      "t": 56531.74885833333,
      "d": 134.92064166666387,
      "v": 127
    },
    {
      "midi": 55,
      "hit": false,
      "t": 56825.3996666667,
      "d": 174.6031833333327,
      "v": 103
    },
    {
      "midi": 84,
      "hit": false,
      "t": 56873.018716666666,
      "d": 71.42857499999809,
      "v": 124
    },
    {
      "midi": 44,
      "hit": false,
      "t": 57142.86000000004,
      "d": 1357.1429250000074,
      "v": 107
    },
    {
      "midi": 84,
      "hit": false,
      "t": 57174.60603333333,
      "d": 95.2381000000023,
      "v": 127
    },
    {
      "midi": 56,
      "hit": false,
      "t": 57460.32033333337,
      "d": 500.0000250000012,
      "v": 108
    },
    {
      "midi": 60,
      "hit": false,
      "t": 57777.78066666671,
      "d": 253.9682666666631,
      "v": 91
    },
    {
      "midi": 63,
      "hit": false,
      "t": 58095.24100000004,
      "d": 357.142875000005,
      "v": 85
    },
    {
      "midi": 60,
      "hit": false,
      "t": 58412.701333333374,
      "d": 246.03175833333808,
      "v": 100
    },
    {
      "midi": 56,
      "hit": false,
      "t": 58730.16166666671,
      "d": 206.34921666666924,
      "v": 91
    },
    {
      "midi": 44,
      "hit": false,
      "t": 59047.62200000005,
      "d": 1444.44451666667,
      "v": 82
    },
    {
      "midi": 56,
      "hit": false,
      "t": 59365.08233333338,
      "d": 285.71429999999964,
      "v": 94
    },
    {
      "midi": 60,
      "hit": false,
      "t": 59682.54266666672,
      "d": 103.17460833333462,
      "v": 95
    },
    {
      "midi": 63,
      "hit": false,
      "t": 60000.003000000055,
      "d": 182.53969166666502,
      "v": 102
    },
    {
      "midi": 60,
      "hit": false,
      "t": 60317.463333333384,
      "d": 246.0317583333308,
      "v": 95
    },
    {
      "midi": 84,
      "hit": false,
      "t": 60333.33635,
      "d": 126.98413333333156,
      "v": 119
    },
    {
      "midi": 56,
      "hit": false,
      "t": 60634.92366666671,
      "d": 158.73016666666808,
      "v": 94
    },
    {
      "midi": 84,
      "hit": false,
      "t": 60698.41573333333,
      "d": 79.3650833333304,
      "v": 127
    },
    {
      "midi": 57,
      "hit": false,
      "t": 60952.38400000004,
      "d": 944.4444916666689,
      "v": 103
    },
    {
      "midi": 60,
      "hit": false,
      "t": 60952.38400000004,
      "d": 1246.0318083333332,
      "v": 110
    },
    {
      "midi": 65,
      "hit": false,
      "t": 60952.38400000004,
      "d": 1714.2857999999978,
      "v": 107
    },
    {
      "midi": 41,
      "hit": false,
      "t": 60952.38400000004,
      "d": 1841.2699333333294,
      "v": 98
    },
    {
      "midi": 84,
      "hit": false,
      "t": 61007.939558333324,
      "d": 87.30159166666999,
      "v": 127
    },
    {
      "midi": 57,
      "hit": false,
      "t": 61904.76500000004,
      "d": 103.17460833333462,
      "v": 89
    },
    {
      "midi": 60,
      "hit": false,
      "t": 62539.68566666671,
      "d": 134.92064166666387,
      "v": 99
    },
    {
      "midi": 69,
      "hit": false,
      "t": 62857.14600000004,
      "d": 468.25399166666466,
      "v": 110
    },
    {
      "midi": 84,
      "hit": false,
      "t": 62873.01901666666,
      "d": 190.47619999999733,
      "v": 127
    },
    {
      "midi": 60,
      "hit": false,
      "t": 63492.0666666667,
      "d": 309.5238249999966,
      "v": 108
    },
    {
      "midi": 84,
      "hit": false,
      "t": 63753.971441666654,
      "d": 111.11111666666693,
      "v": 127
    },
    {
      "midi": 65,
      "hit": false,
      "t": 63809.52700000003,
      "d": 928.5714750000043,
      "v": 118
    },
    {
      "midi": 84,
      "hit": false,
      "t": 64095.24129999999,
      "d": 71.42857499999809,
      "v": 127
    },
    {
      "midi": 84,
      "hit": false,
      "t": 64396.82861666665,
      "d": 134.92064166666387,
      "v": 127
    },
    {
      "midi": 51,
      "hit": false,
      "t": 64761.90800000003,
      "d": 1404.761975000023,
      "v": 114
    },
    {
      "midi": 55,
      "hit": false,
      "t": 65079.36833333337,
      "d": 420.6349416666708,
      "v": 107
    },
    {
      "midi": 58,
      "hit": false,
      "t": 65396.828666666705,
      "d": 404.76192500000616,
      "v": 100
    },
    {
      "midi": 63,
      "hit": false,
      "t": 65714.28900000005,
      "d": 412.69843333333847,
      "v": 108
    },
    {
      "midi": 58,
      "hit": false,
      "t": 66031.74933333338,
      "d": 285.7143000000069,
      "v": 113
    },
    {
      "midi": 55,
      "hit": false,
      "t": 66349.20966666672,
      "d": 174.60318333333998,
      "v": 103
    },
    {
      "midi": 51,
      "hit": false,
      "t": 66666.67000000006,
      "d": 1634.9207166666602,
      "v": 110
    },
    {
      "midi": 84,
      "hit": false,
      "t": 66682.54301666665,
      "d": 277.7777916666673,
      "v": 127
    },
    {
      "midi": 55,
      "hit": false,
      "t": 66984.13033333339,
      "d": 206.34921666666924,
      "v": 94
    },
    {
      "midi": 58,
      "hit": false,
      "t": 67301.59066666673,
      "d": 476.190499999997,
      "v": 110
    },
    {
      "midi": 63,
      "hit": false,
      "t": 67619.05100000006,
      "d": 722.2222583333205,
      "v": 110
    },
    {
      "midi": 84,
      "hit": false,
      "t": 67634.92401666664,
      "d": 119.04762500000652,
      "v": 127
    },
    {
      "midi": 84,
      "hit": false,
      "t": 67928.57482499999,
      "d": 95.2381000000023,
      "v": 127
    },
    {
      "midi": 58,
      "hit": false,
      "t": 67936.51133333339,
      "d": 404.7619249999989,
      "v": 113
    },
    {
      "midi": 84,
      "hit": false,
      "t": 68246.03515833332,
      "d": 126.98413333333156,
      "v": 127
    },
    {
      "midi": 55,
      "hit": false,
      "t": 68253.97166666672,
      "d": 246.03175833332352,
      "v": 110
    },
    {
      "midi": 48,
      "hit": false,
      "t": 68571.43200000004,
      "d": 1436.5080083333305,
      "v": 82
    },
    {
      "midi": 55,
      "hit": false,
      "t": 68888.89233333338,
      "d": 777.7778166666685,
      "v": 103
    },
    {
      "midi": 60,
      "hit": false,
      "t": 69206.35266666672,
      "d": 444.4444666666677,
      "v": 98
    },
    {
      "midi": 63,
      "hit": false,
      "t": 69523.81300000005,
      "d": 500.00002499998664,
      "v": 107
    },
    {
      "midi": 60,
      "hit": false,
      "t": 69841.27333333337,
      "d": 293.65080833333195,
      "v": 91
    },
    {
      "midi": 55,
      "hit": false,
      "t": 70158.73366666671,
      "d": 380.9524000000092,
      "v": 107
    },
    {
      "midi": 48,
      "hit": false,
      "t": 70476.19400000005,
      "d": 1269.84133333333,
      "v": 100
    },
    {
      "midi": 84,
      "hit": false,
      "t": 70547.62257499999,
      "d": 341.2698583333404,
      "v": 127
    },
    {
      "midi": 55,
      "hit": false,
      "t": 70793.65433333338,
      "d": 753.9682916666643,
      "v": 98
    },
    {
      "midi": 60,
      "hit": false,
      "t": 71111.11466666672,
      "d": 365.07938333333004,
      "v": 98
    },
    {
      "midi": 84,
      "hit": false,
      "t": 71126.98768333333,
      "d": 79.36508333333768,
      "v": 127
    },
    {
      "midi": 84,
      "hit": false,
      "t": 71428.575,
      "d": 79.36508333333768,
      "v": 127
    },
    {
      "midi": 63,
      "hit": false,
      "t": 71428.57500000006,
      "d": 365.0793833333155,
      "v": 102
    },
    {
      "midi": 84,
      "hit": false,
      "t": 71714.2893,
      "d": 79.36508333333768,
      "v": 127
    },
    {
      "midi": 60,
      "hit": false,
      "t": 71746.03533333338,
      "d": 293.65080833333195,
      "v": 71
    },
    {
      "midi": 84,
      "hit": false,
      "t": 72015.87661666668,
      "d": 134.92064166667114,
      "v": 127
    },
    {
      "midi": 55,
      "hit": false,
      "t": 72063.49566666671,
      "d": 174.60318333333998,
      "v": 103
    },
    {
      "midi": 43,
      "hit": false,
      "t": 72380.95600000005,
      "d": 1357.1429250000074,
      "v": 107
    },
    {
      "midi": 58,
      "hit": false,
      "t": 72698.41633333339,
      "d": 500.0000250000012,
      "v": 108
    },
    {
      "midi": 62,
      "hit": false,
      "t": 73015.87666666672,
      "d": 253.9682666666631,
      "v": 91
    },
    {
      "midi": 67,
      "hit": false,
      "t": 73333.33700000006,
      "d": 357.142875000005,
      "v": 85
    },
    {
      "midi": 62,
      "hit": false,
      "t": 73650.7973333334,
      "d": 246.03175833332352,
      "v": 100
    },
    {
      "midi": 58,
      "hit": false,
      "t": 73968.25766666672,
      "d": 206.34921666666924,
      "v": 91
    },
    {
      "midi": 43,
      "hit": false,
      "t": 74285.71800000005,
      "d": 1444.44451666667,
      "v": 82
    },
    {
      "midi": 58,
      "hit": false,
      "t": 74603.17833333339,
      "d": 285.7143000000069,
      "v": 44
    },
    {
      "midi": 84,
      "hit": false,
      "t": 74912.70215833334,
      "d": 55.555558333333465,
      "v": 127
    },
    {
      "midi": 62,
      "hit": false,
      "t": 74920.63866666672,
      "d": 103.17460833332734,
      "v": 95
    },
    {
      "midi": 84,
      "hit": false,
      "t": 75103.17835833335,
      "d": 206.34921666666924,
      "v": 127
    },
    {
      "midi": 70,
      "hit": false,
      "t": 75238.09900000005,
      "d": 182.53969166666502,
      "v": 102
    },
    {
      "midi": 84,
      "hit": false,
      "t": 75460.32123333335,
      "d": 87.30159166666272,
      "v": 127
    },
    {
      "midi": 67,
      "hit": false,
      "t": 75555.55933333338,
      "d": 246.03175833333808,
      "v": 95
    },
    {
      "midi": 84,
      "hit": false,
      "t": 75682.54346666668,
      "d": 230.15874166667345,
      "v": 127
    },
    {
      "midi": 62,
      "hit": false,
      "t": 75873.01966666672,
      "d": 158.7301666666608,
      "v": 94
    },
    {
      "midi": 84,
      "hit": false,
      "t": 76182.54349166669,
      "d": 158.7301666666608,
      "v": 127
    },
    {
      "midi": 44,
      "hit": false,
      "t": 76190.48000000005,
      "d": 1595.2381750000204,
      "v": 113
    },
    {
      "midi": 56,
      "hit": false,
      "t": 76507.94033333339,
      "d": 396.82541666667385,
      "v": 62
    },
    {
      "midi": 58,
      "hit": false,
      "t": 76825.40066666673,
      "d": 261.9047750000027,
      "v": 98
    },
    {
      "midi": 60,
      "hit": false,
      "t": 77142.86100000006,
      "d": 253.9682666666631,
      "v": 95
    },
    {
      "midi": 58,
      "hit": false,
      "t": 77460.3213333334,
      "d": 285.7143000000069,
      "v": 67
    },
    {
      "midi": 56,
      "hit": false,
      "t": 77777.78166666673,
      "d": 142.85715000001073,
      "v": 98
    },
    {
      "midi": 44,
      "hit": false,
      "t": 78095.24200000009,
      "d": 912.6984583333397,
      "v": 108
    },
    {
      "midi": 54,
      "hit": false,
      "t": 78412.70233333342,
      "d": 325.39684166667575,
      "v": 113
    },
    {
      "midi": 60,
      "hit": false,
      "t": 78730.16266666676,
      "d": 277.7777916666673,
      "v": 59
    },
    {
      "midi": 44,
      "hit": false,
      "t": 79047.6230000001,
      "d": 555.5555833333347,
      "v": 91
    },
    {
      "midi": 56,
      "hit": false,
      "t": 79365.08333333343,
      "d": 365.07938333333004,
      "v": 73
    },
    {
      "midi": 60,
      "hit": false,
      "t": 79682.54366666677,
      "d": 95.23809999998775,
      "v": 91
    },
    {
      "midi": 51,
      "hit": false,
      "t": 80000.00400000009,
      "d": 1404.7619750000158,
      "v": 114
    },
    {
      "midi": 55,
      "hit": false,
      "t": 80317.46433333342,
      "d": 420.6349416666635,
      "v": 107
    },
    {
      "midi": 58,
      "hit": false,
      "t": 80634.92466666676,
      "d": 404.7619249999989,
      "v": 100
    },
    {
      "midi": 63,
      "hit": false,
      "t": 80952.3850000001,
      "d": 412.69843333333847,
      "v": 108
    },
    {
      "midi": 58,
      "hit": false,
      "t": 81269.84533333343,
      "d": 285.7143000000069,
      "v": 113
    },
    {
      "midi": 55,
      "hit": false,
      "t": 81587.30566666677,
      "d": 174.60318333333998,
      "v": 103
    },
    {
      "midi": 51,
      "hit": false,
      "t": 81904.7660000001,
      "d": 1634.9207166666602,
      "v": 110
    },
    {
      "midi": 84,
      "hit": false,
      "t": 81936.51203333335,
      "d": 436.50795833332813,
      "v": 127
    },
    {
      "midi": 55,
      "hit": false,
      "t": 82222.22633333344,
      "d": 206.34921666666924,
      "v": 94
    },
    {
      "midi": 58,
      "hit": false,
      "t": 82539.68666666678,
      "d": 476.190499999997,
      "v": 110
    },
    {
      "midi": 63,
      "hit": false,
      "t": 82857.14700000011,
      "d": 722.2222583333205,
      "v": 110
    },
    {
      "midi": 84,
      "hit": false,
      "t": 82873.02001666668,
      "d": 95.2381000000023,
      "v": 127
    },
    {
      "midi": 84,
      "hit": false,
      "t": 83142.86130000002,
      "d": 71.42857499999809,
      "v": 127
    },
    {
      "midi": 58,
      "hit": false,
      "t": 83174.60733333344,
      "d": 404.7619249999989,
      "v": 113
    },
    {
      "midi": 84,
      "hit": false,
      "t": 83436.51210833335,
      "d": 166.6666750000004,
      "v": 127
    },
    {
      "midi": 55,
      "hit": false,
      "t": 83492.06766666677,
      "d": 246.03175833332352,
      "v": 110
    },
    {
      "midi": 48,
      "hit": false,
      "t": 83809.5280000001,
      "d": 1436.5080083333305,
      "v": 82
    },
    {
      "midi": 55,
      "hit": false,
      "t": 84126.98833333343,
      "d": 777.7778166666685,
      "v": 103
    },
    {
      "midi": 60,
      "hit": false,
      "t": 84444.44866666677,
      "d": 444.4444666666677,
      "v": 98
    },
    {
      "midi": 63,
      "hit": false,
      "t": 84761.9090000001,
      "d": 500.00002499998664,
      "v": 107
    },
    {
      "midi": 60,
      "hit": false,
      "t": 85079.36933333342,
      "d": 293.65080833333195,
      "v": 91
    },
    {
      "midi": 55,
      "hit": false,
      "t": 85396.82966666676,
      "d": 380.9524000000092,
      "v": 107
    },
    {
      "midi": 48,
      "hit": false,
      "t": 85714.2900000001,
      "d": 1269.84133333333,
      "v": 100
    },
    {
      "midi": 84,
      "hit": false,
      "t": 85761.90905000002,
      "d": 55.555558333333465,
      "v": 127
    },
    {
      "midi": 84,
      "hit": false,
      "t": 85952.38525000002,
      "d": 134.92064166667114,
      "v": 127
    },
    {
      "midi": 55,
      "hit": false,
      "t": 86031.75033333343,
      "d": 753.9682916666643,
      "v": 98
    },
    {
      "midi": 60,
      "hit": false,
      "t": 86349.21066666677,
      "d": 365.07938333333004,
      "v": 98
    },
    {
      "midi": 63,
      "hit": false,
      "t": 86666.6710000001,
      "d": 365.0793833333155,
      "v": 102
    },
    {
      "midi": 84,
      "hit": false,
      "t": 86865.08370833336,
      "d": 134.92064166667114,
      "v": 119
    },
    {
      "midi": 60,
      "hit": false,
      "t": 86984.13133333343,
      "d": 293.65080833333195,
      "v": 71
    },
    {
      "midi": 84,
      "hit": false,
      "t": 87246.03610833337,
      "d": 166.6666750000004,
      "v": 127
    },
    {
      "midi": 55,
      "hit": false,
      "t": 87301.59166666676,
      "d": 174.60318333333998,
      "v": 103
    },
    {
      "midi": 43,
      "hit": false,
      "t": 87619.0520000001,
      "d": 1357.1429250000074,
      "v": 107
    },
    {
      "midi": 58,
      "hit": false,
      "t": 87936.51233333343,
      "d": 500.0000250000012,
      "v": 108
    },
    {
      "midi": 62,
      "hit": false,
      "t": 88253.97266666677,
      "d": 253.9682666666631,
      "v": 91
    },
    {
      "midi": 67,
      "hit": false,
      "t": 88571.4330000001,
      "d": 357.142875000005,
      "v": 85
    },
    {
      "midi": 62,
      "hit": false,
      "t": 88888.89333333344,
      "d": 246.03175833332352,
      "v": 100
    },
    {
      "midi": 58,
      "hit": false,
      "t": 89206.35366666676,
      "d": 206.34921666666924,
      "v": 91
    },
    {
      "midi": 43,
      "hit": false,
      "t": 89523.8140000001,
      "d": 1444.44451666667,
      "v": 82
    },
    {
      "midi": 58,
      "hit": false,
      "t": 89841.27433333344,
      "d": 285.7143000000069,
      "v": 44
    },
    {
      "midi": 62,
      "hit": false,
      "t": 90158.73466666677,
      "d": 103.17460833332734,
      "v": 95
    },
    {
      "midi": 70,
      "hit": false,
      "t": 90476.1950000001,
      "d": 182.53969166666502,
      "v": 102
    },
    {
      "midi": 67,
      "hit": false,
      "t": 90793.65533333343,
      "d": 246.03175833333808,
      "v": 95
    },
    {
      "midi": 62,
      "hit": false,
      "t": 91111.11566666677,
      "d": 158.7301666666608,
      "v": 94
    },
    {
      "midi": 84,
      "hit": false,
      "t": 91452.38552500003,
      "d": 55.555558333333465,
      "v": 127
    },
    {
      "midi": 60,
      "hit": false,
      "t": 91746.03633333344,
      "d": 809.5238500000123,
      "v": 71
    },
    {
      "midi": 68,
      "hit": false,
      "t": 92063.49666666678,
      "d": 722.2222583333496,
      "v": 82
    },
    {
      "midi": 63,
      "hit": false,
      "t": 92380.95700000011,
      "d": 476.1905000000115,
      "v": 94
    },
    {
      "midi": 84,
      "hit": false,
      "t": 92682.5443166667,
      "d": 174.60318333333998,
      "v": 127
    },
    {
      "midi": 60,
      "hit": false,
      "t": 92698.41733333346,
      "d": 238.0952499999985,
      "v": 56
    },
    {
      "midi": 84,
      "hit": false,
      "t": 93325.40149166671,
      "d": 39.68254166666884,
      "v": 127
    },
    {
      "midi": 59,
      "hit": false,
      "t": 93333.33800000013,
      "d": 23.809525000004214,
      "v": 91
    },
    {
      "midi": 68,
      "hit": false,
      "t": 93650.79833333347,
      "d": 317.46033333333617,
      "v": 79
    },
    {
      "midi": 59,
      "hit": false,
      "t": 93968.2586666668,
      "d": 380.9524000000092,
      "v": 59
    },
    {
      "midi": 65,
      "hit": false,
      "t": 94285.71900000014,
      "d": 571.4285999999993,
      "v": 77
    },
    {
      "midi": 84,
      "hit": false,
      "t": 94309.52852500005,
      "d": 39.68254166666884,
      "v": 127
    },
    {
      "midi": 84,
      "hit": false,
      "t": 94571.43330000005,
      "d": 47.61904999999388,
      "v": 127
    },
    {
      "midi": 59,
      "hit": false,
      "t": 94603.17933333348,
      "d": 317.46033333333617,
      "v": 53
    },
    {
      "midi": 63,
      "hit": false,
      "t": 94920.63966666682,
      "d": 126.98413333333156,
      "v": 98
    },
    {
      "midi": 84,
      "hit": false,
      "t": 95198.41745833338,
      "d": 55.555558333333465,
      "v": 127
    },
    {
      "midi": 84,
      "hit": false,
      "t": 99031.75098333338,
      "d": 158.7301666666608,
      "v": 127
    },
    {
      "midi": 51,
      "hit": false,
      "t": 99047.62400000014,
      "d": 1404.7619750000158,
      "v": 114
    },
    {
      "midi": 55,
      "hit": false,
      "t": 99365.08433333348,
      "d": 420.6349416666635,
      "v": 107
    },
    {
      "midi": 58,
      "hit": false,
      "t": 99682.54466666681,
      "d": 404.7619249999989,
      "v": 100
    },
    {
      "midi": 63,
      "hit": false,
      "t": 100000.00500000015,
      "d": 412.69843333333847,
      "v": 108
    },
    {
      "midi": 58,
      "hit": false,
      "t": 100317.46533333349,
      "d": 285.7143000000069,
      "v": 113
    },
    {
      "midi": 55,
      "hit": false,
      "t": 100634.92566666682,
      "d": 174.60318333333998,
      "v": 103
    },
    {
      "midi": 51,
      "hit": false,
      "t": 100952.38600000016,
      "d": 1634.9207166666602,
      "v": 110
    },
    {
      "midi": 55,
      "hit": false,
      "t": 101269.8463333335,
      "d": 206.34921666666924,
      "v": 94
    },
    {
      "midi": 58,
      "hit": false,
      "t": 101587.30666666683,
      "d": 476.190499999997,
      "v": 110
    },
    {
      "midi": 63,
      "hit": false,
      "t": 101904.76700000017,
      "d": 722.2222583333205,
      "v": 110
    },
    {
      "midi": 84,
      "hit": false,
      "t": 102222.22733333337,
      "d": 134.92064166667114,
      "v": 119
    },
    {
      "midi": 58,
      "hit": false,
      "t": 102222.22733333349,
      "d": 404.7619249999989,
      "v": 113
    },
    {
      "midi": 84,
      "hit": false,
      "t": 102539.68766666671,
      "d": 119.04762500000652,
      "v": 127
    },
    {
      "midi": 55,
      "hit": false,
      "t": 102539.68766666682,
      "d": 246.03175833332352,
      "v": 110
    },
    {
      "midi": 48,
      "hit": false,
      "t": 102857.14800000015,
      "d": 1436.5080083333305,
      "v": 82
    },
    {
      "midi": 84,
      "hit": false,
      "t": 102873.02101666671,
      "d": 119.04762500000652,
      "v": 127
    },
    {
      "midi": 55,
      "hit": false,
      "t": 103174.60833333348,
      "d": 777.7778166666685,
      "v": 103
    },
    {
      "midi": 60,
      "hit": false,
      "t": 103492.06866666682,
      "d": 444.4444666666677,
      "v": 98
    },
    {
      "midi": 63,
      "hit": false,
      "t": 103809.52900000016,
      "d": 500.00002499998664,
      "v": 107
    },
    {
      "midi": 60,
      "hit": false,
      "t": 104126.98933333348,
      "d": 293.65080833333195,
      "v": 91
    },
    {
      "midi": 55,
      "hit": false,
      "t": 104444.44966666681,
      "d": 380.9524000000092,
      "v": 107
    },
    {
      "midi": 48,
      "hit": false,
      "t": 104761.91000000015,
      "d": 1269.84133333333,
      "v": 100
    },
    {
      "midi": 55,
      "hit": false,
      "t": 105079.37033333349,
      "d": 753.9682916666643,
      "v": 98
    },
    {
      "midi": 60,
      "hit": false,
      "t": 105396.83066666682,
      "d": 365.07938333333004,
      "v": 98
    },
    {
      "midi": 63,
      "hit": false,
      "t": 105714.29100000016,
      "d": 365.0793833333155,
      "v": 102
    },
    {
      "midi": 84,
      "hit": false,
      "t": 106023.81482500005,
      "d": 150.79365833333577,
      "v": 115
    },
    {
      "midi": 60,
      "hit": false,
      "t": 106031.75133333348,
      "d": 293.65080833333195,
      "v": 71
    },
    {
      "midi": 55,
      "hit": false,
      "t": 106349.21166666682,
      "d": 174.60318333333998,
      "v": 103
    },
    {
      "midi": 84,
      "hit": false,
      "t": 106365.08468333339,
      "d": 142.85714999999618,
      "v": 127
    },
    {
      "midi": 43,
      "hit": false,
      "t": 106666.67200000015,
      "d": 1357.1429250000074,
      "v": 107
    },
    {
      "midi": 84,
      "hit": false,
      "t": 106698.4180333334,
      "d": 126.98413333333156,
      "v": 127
    },
    {
      "midi": 58,
      "hit": false,
      "t": 106984.13233333349,
      "d": 500.0000250000012,
      "v": 108
    },
    {
      "midi": 62,
      "hit": false,
      "t": 107301.59266666682,
      "d": 253.9682666666631,
      "v": 91
    },
    {
      "midi": 67,
      "hit": false,
      "t": 107619.05300000016,
      "d": 357.142875000005,
      "v": 85
    },
    {
      "midi": 62,
      "hit": false,
      "t": 107936.5133333335,
      "d": 246.03175833332352,
      "v": 100
    },
    {
      "midi": 58,
      "hit": false,
      "t": 108253.97366666682,
      "d": 206.34921666666924,
      "v": 91
    },
    {
      "midi": 43,
      "hit": false,
      "t": 108571.43400000015,
      "d": 1444.44451666667,
      "v": 82
    },
    {
      "midi": 58,
      "hit": false,
      "t": 108888.89433333349,
      "d": 285.7143000000069,
      "v": 44
    },
    {
      "midi": 62,
      "hit": false,
      "t": 109206.35466666683,
      "d": 103.17460833332734,
      "v": 95
    },
    {
      "midi": 70,
      "hit": false,
      "t": 109523.81500000015,
      "d": 182.53969166666502,
      "v": 102
    },
    {
      "midi": 67,
      "hit": false,
      "t": 109841.27533333348,
      "d": 246.03175833333808,
      "v": 95
    },
    {
      "midi": 62,
      "hit": false,
      "t": 110158.73566666682,
      "d": 158.7301666666608,
      "v": 94
    },
    {
      "midi": 84,
      "hit": false,
      "t": 110182.54519166672,
      "d": 119.04762500000652,
      "v": 115
    },
    {
      "midi": 44,
      "hit": false,
      "t": 110476.19600000016,
      "d": 1587.3016666666808,
      "v": 107
    },
    {
      "midi": 84,
      "hit": false,
      "t": 110515.87854166672,
      "d": 63.492066666673054,
      "v": 112
    },
    {
      "midi": 84,
      "hit": false,
      "t": 110706.35474166673,
      "d": 103.17460833332734,
      "v": 119
    },
    {
      "midi": 56,
      "hit": false,
      "t": 110793.65633333349,
      "d": 317.46033333333617,
      "v": 43
    },
    {
      "midi": 60,
      "hit": false,
      "t": 111111.11666666683,
      "d": 301.58731666667154,
      "v": 48
    },
    {
      "midi": 63,
      "hit": false,
      "t": 111428.57700000016,
      "d": 373.01589166666963,
      "v": 88
    },
    {
      "midi": 60,
      "hit": false,
      "t": 111746.0373333335,
      "d": 246.03175833333808,
      "v": 59
    },
    {
      "midi": 56,
      "hit": false,
      "t": 112063.49766666684,
      "d": 126.98413333333156,
      "v": 94
    },
    {
      "midi": 61,
      "hit": false,
      "t": 112380.95800000017,
      "d": 253.9682666666631,
      "v": 108
    },
    {
      "midi": 66,
      "hit": false,
      "t": 112698.41833333351,
      "d": 182.53969166666502,
      "v": 91
    },
    {
      "midi": 61,
      "hit": false,
      "t": 113015.87866666685,
      "d": 55.555558333333465,
      "v": 98
    },
    {
      "midi": 54,
      "hit": false,
      "t": 113333.33900000018,
      "d": 634.9206666666723,
      "v": 82
    },
    {
      "midi": 56,
      "hit": false,
      "t": 113333.33900000018,
      "d": 674.6032083333412,
      "v": 88
    },
    {
      "midi": 63,
      "hit": false,
      "t": 113650.79933333352,
      "d": 317.46033333333617,
      "v": 91
    },
    {
      "midi": 60,
      "hit": false,
      "t": 113968.25966666685,
      "d": 119.04762500000652,
      "v": 77
    },
    {
      "midi": 84,
      "hit": false,
      "t": 114023.81522500006,
      "d": 87.30159166666272,
      "v": 127
    },
    {
      "midi": 51,
      "hit": false,
      "t": 114285.72000000019,
      "d": 1404.7619750000158,
      "v": 114
    },
    {
      "midi": 84,
      "hit": false,
      "t": 114333.33905000005,
      "d": 126.98413333333156,
      "v": 127
    },
    {
      "midi": 55,
      "hit": false,
      "t": 114603.18033333353,
      "d": 420.6349416666635,
      "v": 107
    },
    {
      "midi": 58,
      "hit": false,
      "t": 114920.64066666686,
      "d": 404.7619249999989,
      "v": 100
    },
    {
      "midi": 63,
      "hit": false,
      "t": 115238.1010000002,
      "d": 412.69843333333847,
      "v": 108
    },
    {
      "midi": 58,
      "hit": false,
      "t": 115555.56133333354,
      "d": 285.7143000000069,
      "v": 113
    },
    {
      "midi": 55,
      "hit": false,
      "t": 115873.02166666687,
      "d": 174.60318333333998,
      "v": 103
    },
    {
      "midi": 51,
      "hit": false,
      "t": 116190.48200000021,
      "d": 1634.9207166666602,
      "v": 110
    },
    {
      "midi": 55,
      "hit": false,
      "t": 116507.94233333354,
      "d": 206.34921666666924,
      "v": 94
    },
    {
      "midi": 84,
      "hit": false,
      "t": 116698.41853333339,
      "d": 166.6666750000004,
      "v": 127
    },
    {
      "midi": 58,
      "hit": false,
      "t": 116825.40266666688,
      "d": 476.190499999997,
      "v": 110
    },
    {
      "midi": 63,
      "hit": false,
      "t": 117142.86300000022,
      "d": 722.2222583333205,
      "v": 110
    },
    {
      "midi": 58,
      "hit": false,
      "t": 117460.32333333354,
      "d": 404.7619249999989,
      "v": 113
    },
    {
      "midi": 55,
      "hit": false,
      "t": 117777.78366666687,
      "d": 246.03175833332352,
      "v": 110
    },
    {
      "midi": 84,
      "hit": false,
      "t": 117833.33922500006,
      "d": 71.42857499999809,
      "v": 127
    },
    {
      "midi": 48,
      "hit": false,
      "t": 118095.2440000002,
      "d": 1436.5080083333305,
      "v": 82
    },
    {
      "midi": 84,
      "hit": false,
      "t": 118111.11701666673,
      "d": 119.04762500000652,
      "v": 127
    },
    {
      "midi": 55,
      "hit": false,
      "t": 118412.70433333353,
      "d": 777.7778166666685,
      "v": 103
    },
    {
      "midi": 60,
      "hit": false,
      "t": 118730.16466666687,
      "d": 444.4444666666677,
      "v": 98
    },
    {
      "midi": 63,
      "hit": false,
      "t": 119047.6250000002,
      "d": 500.00002499998664,
      "v": 107
    },
    {
      "midi": 60,
      "hit": false,
      "t": 119365.08533333353,
      "d": 293.65080833333195,
      "v": 91
    },
    {
      "midi": 55,
      "hit": false,
      "t": 119682.54566666686,
      "d": 380.9524000000092,
      "v": 107
    },
    {
      "midi": 48,
      "hit": false,
      "t": 120000.0060000002,
      "d": 1269.84133333333,
      "v": 100
    },
    {
      "midi": 55,
      "hit": false,
      "t": 120317.46633333353,
      "d": 753.9682916666643,
      "v": 98
    },
    {
      "midi": 60,
      "hit": false,
      "t": 120634.92666666687,
      "d": 365.07938333333004,
      "v": 98
    },
    {
      "midi": 63,
      "hit": false,
      "t": 120952.3870000002,
      "d": 365.0793833333155,
      "v": 102
    },
    {
      "midi": 84,
      "hit": false,
      "t": 120968.26001666674,
      "d": 119.04762500000652,
      "v": 127
    },
    {
      "midi": 60,
      "hit": false,
      "t": 121269.84733333353,
      "d": 293.65080833333195,
      "v": 71
    },
    {
      "midi": 84,
      "hit": false,
      "t": 121277.78384166675,
      "d": 150.79365833333577,
      "v": 127
    },
    {
      "midi": 55,
      "hit": false,
      "t": 121587.30766666686,
      "d": 174.60318333333998,
      "v": 103
    },
    {
      "midi": 84,
      "hit": false,
      "t": 121849.21244166675,
      "d": 142.85714999999618,
      "v": 127
    },
    {
      "midi": 60,
      "hit": false,
      "t": 122539.68866666687,
      "d": 539.68256666667,
      "v": 91
    },
    {
      "midi": 68,
      "hit": false,
      "t": 122857.14900000021,
      "d": 373.01589166666963,
      "v": 110
    },
    {
      "midi": 63,
      "hit": false,
      "t": 123174.60933333354,
      "d": 277.7777916666673,
      "v": 65
    },
    {
      "midi": 60,
      "hit": false,
      "t": 123492.06966666688,
      "d": 63.492066666673054,
      "v": 98
    },
    {
      "midi": 56,
      "hit": false,
      "t": 124444.45066666689,
      "d": 79.36508333333768,
      "v": 62
    },
    {
      "midi": 54,
      "hit": false,
      "t": 124444.45066666689,
      "d": 198.4127083333442,
      "v": 102
    },
    {
      "midi": 54,
      "hit": false,
      "t": 124761.91100000024,
      "d": 158.7301666666608,
      "v": 94
    },
    {
      "midi": 63,
      "hit": false,
      "t": 124761.91100000024,
      "d": 301.587316666657,
      "v": 107
    },
    {
      "midi": 54,
      "hit": false,
      "t": 125079.37133333356,
      "d": 95.2381000000023,
      "v": 56
    },
    {
      "midi": 60,
      "hit": false,
      "t": 125079.37133333356,
      "d": 158.73016666667536,
      "v": 100
    },
    {
      "midi": 44,
      "hit": false,
      "t": 125396.8316666669,
      "d": 119.04762500000652,
      "v": 107
    },
    {
      "midi": 84,
      "hit": false,
      "t": 125428.57770000008,
      "d": 63.492066666673054,
      "v": 127
    },
    {
      "midi": 58,
      "hit": false,
      "t": 125714.29200000025,
      "d": 436.5079583333427,
      "v": 113
    },
    {
      "midi": 62,
      "hit": false,
      "t": 125714.29200000025,
      "d": 539.68256666667,
      "v": 107
    },
    {
      "midi": 46,
      "hit": false,
      "t": 125714.29200000025,
      "d": 1650.7937333333539,
      "v": 110
    },
    {
      "midi": 84,
      "hit": false,
      "t": 125738.1015250001,
      "d": 87.30159166666272,
      "v": 127
    },
    {
      "midi": 58,
      "hit": false,
      "t": 126349.21266666692,
      "d": 55.555558333333465,
      "v": 26
    },
    {
      "midi": 62,
      "hit": false,
      "t": 126666.67300000026,
      "d": 301.58731666667154,
      "v": 100
    },
    {
      "midi": 70,
      "hit": false,
      "t": 126666.67300000026,
      "d": 357.142875000005,
      "v": 107
    },
    {
      "midi": 65,
      "hit": false,
      "t": 126984.1333333336,
      "d": 261.9047750000027,
      "v": 91
    },
    {
      "midi": 62,
      "hit": false,
      "t": 127301.59366666693,
      "d": 63.492066666673054,
      "v": 103
    },
    {
      "midi": 84,
      "hit": false,
      "t": 127603.18098333343,
      "d": 134.92064166667114,
      "v": 127
    },
    {
      "midi": 46,
      "hit": false,
      "t": 127619.05400000027,
      "d": 1746.0318333333416,
      "v": 91
    },
    {
      "midi": 65,
      "hit": false,
      "t": 127936.5143333336,
      "d": 158.7301666666608,
      "v": 82
    },
    {
      "midi": 60,
      "hit": false,
      "t": 127936.5143333336,
      "d": 166.6666750000004,
      "v": 79
    },
    {
      "midi": 58,
      "hit": false,
      "t": 128253.97466666694,
      "d": 63.492066666673054,
      "v": 56
    },
    {
      "midi": 84,
      "hit": false,
      "t": 128555.56198333343,
      "d": 71.42857499999809,
      "v": 127
    },
    {
      "midi": 60,
      "hit": false,
      "t": 128571.43500000029,
      "d": 158.7301666666608,
      "v": 103
    },
    {
      "midi": 62,
      "hit": false,
      "t": 128571.43500000029,
      "d": 285.71429999999236,
      "v": 108
    },
    {
      "midi": 65,
      "hit": false,
      "t": 128571.43500000029,
      "d": 682.5397166666517,
      "v": 98
    },
    {
      "midi": 84,
      "hit": false,
      "t": 128865.08580833343,
      "d": 87.30159166666272,
      "v": 127
    },
    {
      "midi": 60,
      "hit": false,
      "t": 128888.89533333361,
      "d": 333.3333500000008,
      "v": 62
    },
    {
      "midi": 84,
      "hit": false,
      "t": 129190.48265000009,
      "d": 7.936508333339589,
      "v": 127
    },
    {
      "midi": 58,
      "hit": false,
      "t": 129206.35566666695,
      "d": 95.23809999998775,
      "v": 88
    },
    {
      "midi": 51,
      "hit": false,
      "t": 129523.81600000027,
      "d": 1404.7619750000158,
      "v": 114
    },
    {
      "midi": 55,
      "hit": false,
      "t": 129841.2763333336,
      "d": 420.6349416666635,
      "v": 107
    },
    {
      "midi": 58,
      "hit": false,
      "t": 130158.73666666694,
      "d": 404.7619249999989,
      "v": 100
    },
    {
      "midi": 63,
      "hit": false,
      "t": 130476.19700000028,
      "d": 412.69843333333847,
      "v": 108
    },
    {
      "midi": 58,
      "hit": false,
      "t": 130793.65733333361,
      "d": 285.7143000000069,
      "v": 113
    },
    {
      "midi": 55,
      "hit": false,
      "t": 131111.11766666695,
      "d": 174.60318333332543,
      "v": 103
    },
    {
      "midi": 51,
      "hit": false,
      "t": 131428.57800000027,
      "d": 1634.9207166667038,
      "v": 110
    },
    {
      "midi": 84,
      "hit": false,
      "t": 131452.3875250001,
      "d": 182.53969166666502,
      "v": 127
    },
    {
      "midi": 55,
      "hit": false,
      "t": 131746.0383333336,
      "d": 206.34921666665468,
      "v": 94
    },
    {
      "midi": 84,
      "hit": false,
      "t": 132039.68914166675,
      "d": 79.36508333333768,
      "v": 127
    },
    {
      "midi": 58,
      "hit": false,
      "t": 132063.4986666669,
      "d": 476.1905000000261,
      "v": 110
    },
    {
      "midi": 84,
      "hit": false,
      "t": 132365.0859833334,
      "d": 71.42857499999809,
      "v": 127
    },
    {
      "midi": 63,
      "hit": false,
      "t": 132380.95900000026,
      "d": 722.2222583333787,
      "v": 110
    },
    {
      "midi": 84,
      "hit": false,
      "t": 132666.67330000008,
      "d": 63.4920666666585,
      "v": 127
    },
    {
      "midi": 58,
      "hit": false,
      "t": 132698.41933333362,
      "d": 404.761925000028,
      "v": 113
    },
    {
      "midi": 84,
      "hit": false,
      "t": 132976.19712500006,
      "d": 87.30159166667727,
      "v": 127
    },
    {
      "midi": 55,
      "hit": false,
      "t": 133015.87966666697,
      "d": 246.03175833335263,
      "v": 110
    },
    {
      "midi": 48,
      "hit": false,
      "t": 133333.34000000032,
      "d": 1436.5080083333014,
      "v": 82
    },
    {
      "midi": 55,
      "hit": false,
      "t": 133650.80033333364,
      "d": 777.7778166666685,
      "v": 103
    },
    {
      "midi": 60,
      "hit": false,
      "t": 133968.26066666696,
      "d": 444.4444666666677,
      "v": 98
    },
    {
      "midi": 63,
      "hit": false,
      "t": 134285.72100000028,
      "d": 500.00002500001574,
      "v": 107
    },
    {
      "midi": 60,
      "hit": false,
      "t": 134603.18133333363,
      "d": 293.65080833333195,
      "v": 91
    },
    {
      "midi": 55,
      "hit": false,
      "t": 134920.64166666695,
      "d": 380.9523999999801,
      "v": 107
    },
    {
      "midi": 48,
      "hit": false,
      "t": 135238.10200000028,
      "d": 1269.8413333333156,
      "v": 100
    },
    {
      "midi": 84,
      "hit": false,
      "t": 135277.78454166674,
      "d": 428.57144999998854,
      "v": 127
    },
    {
      "midi": 55,
      "hit": false,
      "t": 135555.5623333336,
      "d": 753.9682916666497,
      "v": 98
    },
    {
      "midi": 60,
      "hit": false,
      "t": 135873.02266666692,
      "d": 365.07938333333004,
      "v": 98
    },
    {
      "midi": 84,
      "hit": false,
      "t": 136174.6099833334,
      "d": 103.17460833332734,
      "v": 127
    },
    {
      "midi": 63,
      "hit": false,
      "t": 136190.48300000024,
      "d": 365.07938333335915,
      "v": 102
    },
    {
      "midi": 84,
      "hit": false,
      "t": 136484.13380833337,
      "d": 79.36508333333768,
      "v": 127
    },
    {
      "midi": 60,
      "hit": false,
      "t": 136507.9433333336,
      "d": 293.65080833333195,
      "v": 71
    },
    {
      "midi": 84,
      "hit": false,
      "t": 136793.65763333338,
      "d": 150.79365833333577,
      "v": 127
    },
    {
      "midi": 55,
      "hit": false,
      "t": 136825.4036666669,
      "d": 174.60318333332543,
      "v": 103
    },
    {
      "midi": 43,
      "hit": false,
      "t": 137142.86400000023,
      "d": 1357.1429249999637,
      "v": 107
    },
    {
      "midi": 58,
      "hit": false,
      "t": 137460.32433333356,
      "d": 500.00002499998664,
      "v": 108
    },
    {
      "midi": 62,
      "hit": false,
      "t": 137777.78466666688,
      "d": 253.9682666666631,
      "v": 91
    },
    {
      "midi": 67,
      "hit": false,
      "t": 138095.2450000002,
      "d": 357.14287499999045,
      "v": 85
    },
    {
      "midi": 62,
      "hit": false,
      "t": 138412.70533333352,
      "d": 246.03175833335263,
      "v": 100
    },
    {
      "midi": 58,
      "hit": false,
      "t": 138730.16566666687,
      "d": 206.34921666665468,
      "v": 91
    },
    {
      "midi": 43,
      "hit": false,
      "t": 139047.6260000002,
      "d": 1444.444516666612,
      "v": 82
    },
    {
      "midi": 58,
      "hit": false,
      "t": 139365.08633333351,
      "d": 285.71429999999236,
      "v": 44
    },
    {
      "midi": 62,
      "hit": false,
      "t": 139682.54666666684,
      "d": 103.17460833332734,
      "v": 95
    },
    {
      "midi": 84,
      "hit": false,
      "t": 139738.10222500004,
      "d": 55.55555833331891,
      "v": 127
    },
    {
      "midi": 84,
      "hit": false,
      "t": 139920.6419166667,
      "d": 87.30159166667727,
      "v": 127
    },
    {
      "midi": 70,
      "hit": false,
      "t": 140000.00700000016,
      "d": 182.53969166666502,
      "v": 102
    },
    {
      "midi": 84,
      "hit": false,
      "t": 140222.22923333338,
      "d": 63.4920666666585,
      "v": 127
    },
    {
      "midi": 67,
      "hit": false,
      "t": 140317.46733333348,
      "d": 246.03175833332352,
      "v": 95
    },
    {
      "midi": 84,
      "hit": false,
      "t": 140412.70543333338,
      "d": 174.60318333332543,
      "v": 127
    },
    {
      "midi": 62,
      "hit": false,
      "t": 140634.9276666668,
      "d": 158.73016666667536,
      "v": 94
    },
    {
      "midi": 84,
      "hit": false,
      "t": 140896.83244166672,
      "d": 142.85714999999618,
      "v": 127
    },
    {
      "midi": 44,
      "hit": false,
      "t": 140952.38800000012,
      "d": 1595.2381749999768,
      "v": 113
    },
    {
      "midi": 56,
      "hit": false,
      "t": 141269.84833333344,
      "d": 396.8254166666884,
      "v": 62
    },
    {
      "midi": 58,
      "hit": false,
      "t": 141587.3086666668,
      "d": 261.9047750000027,
      "v": 98
    },
    {
      "midi": 60,
      "hit": false,
      "t": 141904.76900000012,
      "d": 253.9682666666631,
      "v": 95
    },
    {
      "midi": 58,
      "hit": false,
      "t": 142222.22933333344,
      "d": 285.71429999999236,
      "v": 67
    },
    {
      "midi": 56,
      "hit": false,
      "t": 142539.68966666676,
      "d": 142.85714999999618,
      "v": 98
    },
    {
      "midi": 44,
      "hit": false,
      "t": 142857.15000000008,
      "d": 912.6984583333542,
      "v": 108
    },
    {
      "midi": 54,
      "hit": false,
      "t": 143174.61033333343,
      "d": 325.3968416666612,
      "v": 113
    },
    {
      "midi": 60,
      "hit": false,
      "t": 143492.07066666675,
      "d": 277.7777916666819,
      "v": 59
    },
    {
      "midi": 44,
      "hit": false,
      "t": 143809.5310000001,
      "d": 555.5555833333347,
      "v": 91
    },
    {
      "midi": 56,
      "hit": false,
      "t": 144126.99133333343,
      "d": 365.07938333335915,
      "v": 73
    },
    {
      "midi": 60,
      "hit": false,
      "t": 144444.45166666678,
      "d": 95.23810000001686,
      "v": 91
    },
    {
      "midi": 51,
      "hit": false,
      "t": 144761.91200000013,
      "d": 1404.7619749999722,
      "v": 114
    },
    {
      "midi": 55,
      "hit": false,
      "t": 145079.37233333345,
      "d": 420.63494166664896,
      "v": 107
    },
    {
      "midi": 58,
      "hit": false,
      "t": 145396.83266666677,
      "d": 404.7619249999989,
      "v": 100
    },
    {
      "midi": 63,
      "hit": false,
      "t": 145714.2930000001,
      "d": 412.69843333333847,
      "v": 108
    },
    {
      "midi": 58,
      "hit": false,
      "t": 146031.75333333344,
      "d": 285.71429999999236,
      "v": 113
    },
    {
      "midi": 55,
      "hit": false,
      "t": 146349.21366666676,
      "d": 174.60318333332543,
      "v": 103
    },
    {
      "midi": 51,
      "hit": false,
      "t": 146666.6740000001,
      "d": 1634.9207166667038,
      "v": 110
    },
    {
      "midi": 84,
      "hit": false,
      "t": 146690.48352500005,
      "d": 142.85714999999618,
      "v": 127
    },
    {
      "midi": 55,
      "hit": false,
      "t": 146984.1343333334,
      "d": 206.34921666665468,
      "v": 94
    },
    {
      "midi": 58,
      "hit": false,
      "t": 147301.59466666673,
      "d": 476.1905000000261,
      "v": 110
    },
    {
      "midi": 63,
      "hit": false,
      "t": 147619.05500000008,
      "d": 722.2222583333787,
      "v": 110
    },
    {
      "midi": 84,
      "hit": false,
      "t": 147642.86452500004,
      "d": 111.11111666666693,
      "v": 127
    },
    {
      "midi": 58,
      "hit": false,
      "t": 147936.51533333343,
      "d": 404.761925000028,
      "v": 113
    },
    {
      "midi": 84,
      "hit": false,
      "t": 147944.4518416667,
      "d": 79.36508333333768,
      "v": 127
    },
    {
      "midi": 84,
      "hit": false,
      "t": 148214.29312500005,
      "d": 95.23809999998775,
      "v": 127
    },
    {
      "midi": 55,
      "hit": false,
      "t": 148253.97566666678,
      "d": 246.03175833335263,
      "v": 110
    },
    {
      "midi": 48,
      "hit": false,
      "t": 148571.43600000013,
      "d": 1436.5080083333014,
      "v": 82
    },
    {
      "midi": 55,
      "hit": false,
      "t": 148888.89633333345,
      "d": 777.7778166666685,
      "v": 103
    },
    {
      "midi": 60,
      "hit": false,
      "t": 149206.35666666678,
      "d": 444.4444666666677,
      "v": 98
    },
    {
      "midi": 63,
      "hit": false,
      "t": 149523.8170000001,
      "d": 500.00002500001574,
      "v": 107
    },
    {
      "midi": 60,
      "hit": false,
      "t": 149841.27733333345,
      "d": 293.65080833333195,
      "v": 91
    },
    {
      "midi": 55,
      "hit": false,
      "t": 150158.73766666677,
      "d": 380.9523999999801,
      "v": 107
    },
    {
      "midi": 48,
      "hit": false,
      "t": 150476.1980000001,
      "d": 1269.8413333333156,
      "v": 100
    },
    {
      "midi": 84,
      "hit": false,
      "t": 150523.81705000004,
      "d": 47.61905000000843,
      "v": 127
    },
    {
      "midi": 84,
      "hit": false,
      "t": 150674.61070833338,
      "d": 63.4920666666585,
      "v": 127
    },
    {
      "midi": 55,
      "hit": false,
      "t": 150793.6583333334,
      "d": 753.9682916666497,
      "v": 98
    },
    {
      "midi": 60,
      "hit": false,
      "t": 151111.11866666673,
      "d": 365.07938333333004,
      "v": 98
    },
    {
      "midi": 84,
      "hit": false,
      "t": 151404.76947500004,
      "d": 103.17460833332734,
      "v": 127
    },
    {
      "midi": 63,
      "hit": false,
      "t": 151428.57900000006,
      "d": 365.07938333335915,
      "v": 102
    },
    {
      "midi": 60,
      "hit": false,
      "t": 151746.0393333334,
      "d": 293.65080833333195,
      "v": 71
    },
    {
      "midi": 84,
      "hit": false,
      "t": 151960.32505833337,
      "d": 79.36508333333768,
      "v": 127
    },
    {
      "midi": 55,
      "hit": false,
      "t": 152063.49966666673,
      "d": 174.60318333332543,
      "v": 103
    },
    {
      "midi": 43,
      "hit": false,
      "t": 152380.96000000005,
      "d": 1357.1429249999637,
      "v": 107
    },
    {
      "midi": 84,
      "hit": false,
      "t": 152642.86477500005,
      "d": 119.04762500000652,
      "v": 112
    },
    {
      "midi": 58,
      "hit": false,
      "t": 152698.42033333337,
      "d": 500.00002499998664,
      "v": 108
    },
    {
      "midi": 62,
      "hit": false,
      "t": 153015.8806666667,
      "d": 253.9682666666631,
      "v": 91
    },
    {
      "midi": 67,
      "hit": false,
      "t": 153333.34100000001,
      "d": 357.14287499999045,
      "v": 85
    },
    {
      "midi": 62,
      "hit": false,
      "t": 153650.80133333334,
      "d": 246.03175833335263,
      "v": 100
    },
    {
      "midi": 58,
      "hit": false,
      "t": 153968.2616666667,
      "d": 206.34921666665468,
      "v": 91
    },
    {
      "midi": 43,
      "hit": false,
      "t": 154285.722,
      "d": 1444.444516666612,
      "v": 82
    },
    {
      "midi": 58,
      "hit": false,
      "t": 154603.18233333333,
      "d": 285.71429999999236,
      "v": 44
    },
    {
      "midi": 62,
      "hit": false,
      "t": 154920.64266666665,
      "d": 103.17460833332734,
      "v": 95
    },
    {
      "midi": 70,
      "hit": false,
      "t": 155238.10299999997,
      "d": 182.53969166666502,
      "v": 102
    },
    {
      "midi": 67,
      "hit": false,
      "t": 155555.5633333333,
      "d": 246.03175833332352,
      "v": 95
    },
    {
      "midi": 62,
      "hit": false,
      "t": 155873.02366666662,
      "d": 158.73016666667536,
      "v": 94
    },
    {
      "midi": 84,
      "hit": false,
      "t": 156214.29352500004,
      "d": 119.04762500000652,
      "v": 127
    },
    {
      "midi": 60,
      "hit": false,
      "t": 156507.9443333333,
      "d": 809.5238499999687,
      "v": 71
    },
    {
      "midi": 68,
      "hit": false,
      "t": 156825.4046666666,
      "d": 722.2222583333205,
      "v": 82
    },
    {
      "midi": 63,
      "hit": false,
      "t": 157142.86499999993,
      "d": 476.190499999997,
      "v": 94
    },
    {
      "midi": 60,
      "hit": false,
      "t": 157460.32533333325,
      "d": 238.09525000001304,
      "v": 56
    },
    {
      "midi": 84,
      "hit": false,
      "t": 157761.91265000004,
      "d": 79.36508333333768,
      "v": 127
    },
    {
      "midi": 84,
      "hit": false,
      "t": 158079.3729833334,
      "d": 111.11111666666693,
      "v": 127
    },
    {
      "midi": 59,
      "hit": false,
      "t": 158095.24599999993,
      "d": 23.809524999989662,
      "v": 91
    },
    {
      "midi": 68,
      "hit": false,
      "t": 158412.70633333325,
      "d": 317.4603333333216,
      "v": 79
    },
    {
      "midi": 59,
      "hit": false,
      "t": 158730.16666666657,
      "d": 380.9523999999801,
      "v": 59
    },
    {
      "midi": 65,
      "hit": false,
      "t": 159047.6269999999,
      "d": 571.4285999999847,
      "v": 77
    },
    {
      "midi": 84,
      "hit": false,
      "t": 159071.43652500006,
      "d": 47.61905000000843,
      "v": 127
    },
    {
      "midi": 84,
      "hit": false,
      "t": 159325.40479166672,
      "d": 119.04762500000652,
      "v": 127
    },
    {
      "midi": 59,
      "hit": false,
      "t": 159365.0873333332,
      "d": 317.4603333333216,
      "v": 53
    },
    {
      "midi": 63,
      "hit": false,
      "t": 159682.54766666653,
      "d": 126.98413333334611,
      "v": 98
    },
    {
      "midi": 51,
      "hit": false,
      "t": 160000.00799999989,
      "d": 1404.7619749999722,
      "v": 114
    },
    {
      "midi": 84,
      "hit": false,
      "t": 160261.91277500006,
      "d": 134.9206416666566,
      "v": 127
    },
    {
      "midi": 55,
      "hit": false,
      "t": 160317.4683333332,
      "d": 420.63494166664896,
      "v": 107
    },
    {
      "midi": 58,
      "hit": false,
      "t": 160634.92866666653,
      "d": 404.7619249999989,
      "v": 100
    },
    {
      "midi": 63,
      "hit": false,
      "t": 160952.38899999985,
      "d": 412.69843333333847,
      "v": 108
    },
    {
      "midi": 58,
      "hit": false,
      "t": 161269.8493333332,
      "d": 285.71429999999236,
      "v": 113
    },
    {
      "midi": 55,
      "hit": false,
      "t": 161587.30966666652,
      "d": 174.60318333332543,
      "v": 103
    },
    {
      "midi": 51,
      "hit": false,
      "t": 161904.76999999984,
      "d": 1634.9207166667038,
      "v": 110
    },
    {
      "midi": 55,
      "hit": false,
      "t": 162222.23033333317,
      "d": 206.34921666665468,
      "v": 94
    },
    {
      "midi": 58,
      "hit": false,
      "t": 162539.6906666665,
      "d": 476.1905000000261,
      "v": 110
    },
    {
      "midi": 63,
      "hit": false,
      "t": 162857.15099999984,
      "d": 722.2222583333787,
      "v": 110
    },
    {
      "midi": 58,
      "hit": false,
      "t": 163174.6113333332,
      "d": 404.761925000028,
      "v": 113
    },
    {
      "midi": 55,
      "hit": false,
      "t": 163492.07166666654,
      "d": 246.03175833335263,
      "v": 110
    },
    {
      "midi": 84,
      "hit": false,
      "t": 163888.89708333337,
      "d": 246.03175833332352,
      "v": 127
    },
    {
      "midi": 56,
      "hit": false,
      "t": 164444.45266666656,
      "d": 198.4127083333442,
      "v": 38
    },
    {
      "midi": 54,
      "hit": false,
      "t": 164444.45266666656,
      "d": 214.28572500002338,
      "v": 62
    },
    {
      "midi": 84,
      "hit": false,
      "t": 164460.32568333336,
      "d": 158.73016666667536,
      "v": 127
    },
    {
      "midi": 54,
      "hit": false,
      "t": 164761.9129999999,
      "d": 515.8730416666658,
      "v": 100
    },
    {
      "midi": 56,
      "hit": false,
      "t": 164761.9129999999,
      "d": 531.746058333345,
      "v": 94
    },
    {
      "midi": 63,
      "hit": false,
      "t": 164761.9129999999,
      "d": 611.1111416666827,
      "v": 94
    },
    {
      "midi": 60,
      "hit": false,
      "t": 164761.9129999999,
      "d": 634.9206666666723,
      "v": 94
    },
    {
      "midi": 54,
      "hit": false,
      "t": 165396.8336666666,
      "d": 119.04762500000652,
      "v": 38
    },
    {
      "midi": 56,
      "hit": false,
      "t": 165396.8336666666,
      "d": 126.98413333334611,
      "v": 19
    },
    {
      "midi": 54,
      "hit": false,
      "t": 165714.29399999994,
      "d": 79.36508333333768,
      "v": 44
    },
    {
      "midi": 54,
      "hit": false,
      "t": 166666.67499999993,
      "d": 47.61905000000843,
      "v": 59
    },
    {
      "midi": 56,
      "hit": false,
      "t": 166666.67499999993,
      "d": 63.492066666687606,
      "v": 59
    },
    {
      "midi": 84,
      "hit": false,
      "t": 166968.2623166667,
      "d": 182.53969166666502,
      "v": 127
    },
    {
      "midi": 63,
      "hit": false,
      "t": 166984.13533333328,
      "d": 87.30159166667727,
      "v": 94
    },
    {
      "midi": 66,
      "hit": false,
      "t": 166984.13533333328,
      "d": 119.04762500000652,
      "v": 82
    },
    {
      "midi": 84,
      "hit": false,
      "t": 167277.7861416667,
      "d": 150.79365833333577,
      "v": 127
    },
    {
      "midi": 61,
      "hit": false,
      "t": 167301.59566666663,
      "d": 15.873016666679177,
      "v": 37
    },
    {
      "midi": 62,
      "hit": false,
      "t": 167301.59566666663,
      "d": 47.61905000000843,
      "v": 95
    },
    {
      "midi": 65,
      "hit": false,
      "t": 167301.59566666663,
      "d": 103.17460833332734,
      "v": 98
    },
    {
      "midi": 84,
      "hit": false,
      "t": 167587.3099666667,
      "d": 158.73016666667536,
      "v": 127
    },
    {
      "midi": 54,
      "hit": false,
      "t": 167619.05599999995,
      "d": 857.1428999999771,
      "v": 108
    },
    {
      "midi": 63,
      "hit": false,
      "t": 167619.05599999995,
      "d": 1293.6508583332761,
      "v": 98
    },
    {
      "midi": 60,
      "hit": false,
      "t": 167619.05599999995,
      "d": 1309.5238749999553,
      "v": 56
    },
    {
      "midi": 56,
      "hit": false,
      "t": 168095.24649999995,
      "d": 357.14287499999045,
      "v": 1
    },
    {
      "midi": 54,
      "hit": false,
      "t": 168571.43699999992,
      "d": 317.4603333333216,
      "v": 65
    },
    {
      "midi": 56,
      "hit": false,
      "t": 168571.43699999992,
      "d": 341.2698583333113,
      "v": 44
    },
    {
      "midi": 60,
      "hit": false,
      "t": 169206.35766666656,
      "d": 39.68254166666884,
      "v": 38
    },
    {
      "midi": 60,
      "hit": false,
      "t": 169523.81799999988,
      "d": 55.55555833331891,
      "v": 59
    },
    {
      "midi": 63,
      "hit": false,
      "t": 169841.2783333332,
      "d": 23.809524999989662,
      "v": 108
    },
    {
      "midi": 60,
      "hit": false,
      "t": 169841.2783333332,
      "d": 47.619049999979325,
      "v": 91
    },
    {
      "midi": 66,
      "hit": false,
      "t": 169841.2783333332,
      "d": 47.619049999979325,
      "v": 108
    },
    {
      "midi": 68,
      "hit": false,
      "t": 169841.2783333332,
      "d": 55.55555833331891,
      "v": 100
    },
    {
      "midi": 84,
      "hit": false,
      "t": 169952.38945000005,
      "d": 293.65080833333195,
      "v": 127
    },
    {
      "midi": 63,
      "hit": false,
      "t": 170476.19899999985,
      "d": 619.0476499999932,
      "v": 113
    },
    {
      "midi": 68,
      "hit": false,
      "t": 170476.19899999985,
      "d": 619.0476499999932,
      "v": 98
    },
    {
      "midi": 66,
      "hit": false,
      "t": 170476.19899999985,
      "d": 634.9206666666723,
      "v": 108
    },
    {
      "midi": 60,
      "hit": false,
      "t": 170476.19899999985,
      "d": 642.8571750000119,
      "v": 100
    },
    {
      "midi": 84,
      "hit": false,
      "t": 170539.6910666667,
      "d": 222.22223333333386,
      "v": 127
    },
    {
      "midi": 55,
      "hit": false,
      "t": 171428.57999999987,
      "d": 476.190499999997,
      "v": 107
    },
    {
      "midi": 61,
      "hit": false,
      "t": 171428.57999999987,
      "d": 539.6825666666555,
      "v": 91
    },
    {
      "midi": 63,
      "hit": false,
      "t": 171428.57999999987,
      "d": 539.6825666666555,
      "v": 91
    },
    {
      "midi": 84,
      "hit": false,
      "t": 171484.13555833336,
      "d": 285.71429999999236,
      "v": 124
    },
    {
      "midi": 84,
      "hit": false,
      "t": 172047.62765,
      "d": 214.28572499999427,
      "v": 127
    },
    {
      "midi": 55,
      "hit": false,
      "t": 172063.5006666665,
      "d": 63.4920666666585,
      "v": 44
    },
    {
      "midi": 58,
      "hit": false,
      "t": 172380.96099999984,
      "d": 373.0158916666405,
      "v": 91
    },
    {
      "midi": 84,
      "hit": false,
      "t": 172611.11974166668,
      "d": 103.17460833332734,
      "v": 124
    },
    {
      "midi": 67,
      "hit": false,
      "t": 172698.42133333316,
      "d": 261.9047749999736,
      "v": 95
    },
    {
      "midi": 61,
      "hit": false,
      "t": 173015.88166666645,
      "d": 119.04762500000652,
      "v": 43
    },
    {
      "midi": 58,
      "hit": false,
      "t": 173333.3419999998,
      "d": 103.17460833332734,
      "v": 38
    },
    {
      "midi": 61,
      "hit": false,
      "t": 173650.80233333312,
      "d": 47.61905000000843,
      "v": 38
    },
    {
      "midi": 63,
      "hit": false,
      "t": 174285.7229999998,
      "d": 571.4285999999847,
      "v": 88
    },
    {
      "midi": 58,
      "hit": false,
      "t": 174603.18333333312,
      "d": 277.7777916666528,
      "v": 88
    },
    {
      "midi": 55,
      "hit": false,
      "t": 174920.64366666644,
      "d": 63.4920666666585,
      "v": 53
    },
    {
      "midi": 84,
      "hit": false,
      "t": 175230.16749166668,
      "d": 166.66667499998584,
      "v": 127
    },
    {
      "midi": 66,
      "hit": false,
      "t": 175555.5643333331,
      "d": 79.36508333333768,
      "v": 41
    },
    {
      "midi": 68,
      "hit": false,
      "t": 175555.5643333331,
      "d": 87.30159166667727,
      "v": 38
    },
    {
      "midi": 60,
      "hit": false,
      "t": 175555.5643333331,
      "d": 103.17460833335645,
      "v": 53
    },
    {
      "midi": 60,
      "hit": false,
      "t": 176190.4849999998,
      "d": 515.8730416666658,
      "v": 103
    },
    {
      "midi": 66,
      "hit": false,
      "t": 176190.4849999998,
      "d": 658.730191666662,
      "v": 102
    },
    {
      "midi": 68,
      "hit": false,
      "t": 176190.4849999998,
      "d": 682.5397166666517,
      "v": 98
    },
    {
      "midi": 84,
      "hit": false,
      "t": 176507.94533333334,
      "d": 55.55555833331891,
      "v": 127
    },
    {
      "midi": 60,
      "hit": false,
      "t": 176825.40566666648,
      "d": 95.23809999998775,
      "v": 38
    },
    {
      "midi": 84,
      "hit": false,
      "t": 176833.342175,
      "d": 47.61905000000843,
      "v": 124
    },
    {
      "midi": 66,
      "hit": false,
      "t": 177142.8659999998,
      "d": 365.07938333333004,
      "v": 113
    },
    {
      "midi": 60,
      "hit": false,
      "t": 177142.8659999998,
      "d": 563.4920916666742,
      "v": 73
    },
    {
      "midi": 84,
      "hit": false,
      "t": 177158.73901666666,
      "d": 47.61905000000843,
      "v": 127
    },
    {
      "midi": 68,
      "hit": false,
      "t": 177460.32633333313,
      "d": 531.746058333345,
      "v": 59
    },
    {
      "midi": 60,
      "hit": false,
      "t": 177777.78666666648,
      "d": 849.2063916666084,
      "v": 31
    },
    {
      "midi": 63,
      "hit": false,
      "t": 178095.2469999998,
      "d": 476.19049999996787,
      "v": 102
    },
    {
      "midi": 68,
      "hit": false,
      "t": 178412.70733333312,
      "d": 317.4603333332925,
      "v": 108
    },
    {
      "midi": 84,
      "hit": false,
      "t": 178452.389875,
      "d": 111.11111666666693,
      "v": 108
    },
    {
      "midi": 60,
      "hit": false,
      "t": 178730.1676666664,
      "d": 87.30159166667727,
      "v": 65
    },
    {
      "midi": 84,
      "hit": false,
      "t": 178769.85020833332,
      "d": 71.42857499999809,
      "v": 115
    },
    {
      "midi": 84,
      "hit": false,
      "t": 179071.437525,
      "d": 158.73016666667536,
      "v": 127
    },
    {
      "midi": 84,
      "hit": false,
      "t": 179531.75500833333,
      "d": 134.9206416666566,
      "v": 127
    },
    {
      "midi": 58,
      "hit": false,
      "t": 180000.00899999976,
      "d": 444.4444666666968,
      "v": 108
    },
    {
      "midi": 67,
      "hit": false,
      "t": 180000.00899999976,
      "d": 619.0476500000223,
      "v": 102
    },
    {
      "midi": 62,
      "hit": false,
      "t": 180317.4693333331,
      "d": 325.3968416666903,
      "v": 100
    },
    {
      "midi": 58,
      "hit": false,
      "t": 180634.92966666646,
      "d": 95.23810000001686,
      "v": 62
    },
    {
      "midi": 60,
      "hit": false,
      "t": 180952.3899999998,
      "d": 444.4444666666677,
      "v": 95
    },
    {
      "midi": 63,
      "hit": false,
      "t": 180952.3899999998,
      "d": 452.3809750000073,
      "v": 94
    },
    {
      "midi": 55,
      "hit": false,
      "t": 181904.7709999998,
      "d": 365.07938333333004,
      "v": 85
    },
    {
      "midi": 84,
      "hit": false,
      "t": 181928.580525,
      "d": 142.85714999999618,
      "v": 127
    },
    {
      "midi": 58,
      "hit": false,
      "t": 182222.23133333313,
      "d": 206.3492166666838,
      "v": 79
    },
    {
      "midi": 55,
      "hit": false,
      "t": 182539.69166666648,
      "d": 55.55555833331891,
      "v": 67
    },
    {
      "midi": 84,
      "hit": false,
      "t": 182555.56468333333,
      "d": 55.55555833331891,
      "v": 127
    },
    {
      "midi": 84,
      "hit": false,
      "t": 182880.961525,
      "d": 47.61905000000843,
      "v": 127
    },
    {
      "midi": 68,
      "hit": false,
      "t": 183174.61233333312,
      "d": 285.71429999999236,
      "v": 98
    },
    {
      "midi": 63,
      "hit": false,
      "t": 183174.61233333312,
      "d": 293.65080833333195,
      "v": 100
    },
    {
      "midi": 84,
      "hit": false,
      "t": 183476.19965,
      "d": 166.66667499998584,
      "v": 127
    },
    {
      "midi": 61,
      "hit": false,
      "t": 183492.07266666644,
      "d": 63.4920666666585,
      "v": 82
    },
    {
      "midi": 66,
      "hit": false,
      "t": 183492.07266666644,
      "d": 87.30159166664816,
      "v": 48
    },
    {
      "midi": 63,
      "hit": false,
      "t": 184126.99333333308,
      "d": 119.04762500000652,
      "v": 65
    },
    {
      "midi": 57,
      "hit": false,
      "t": 184444.45366666644,
      "d": 23.809524999989662,
      "v": 26
    },
    {
      "midi": 57,
      "hit": false,
      "t": 184761.91399999976,
      "d": 492.06351666667615,
      "v": 100
    },
    {
      "midi": 59,
      "hit": false,
      "t": 184761.91399999976,
      "d": 500.00002500001574,
      "v": 82
    },
    {
      "midi": 63,
      "hit": false,
      "t": 184761.91399999976,
      "d": 579.3651083333534,
      "v": 65
    },
    {
      "midi": 57,
      "hit": false,
      "t": 185396.83466666643,
      "d": 174.60318333332543,
      "v": 42
    },
    {
      "midi": 59,
      "hit": false,
      "t": 185396.83466666643,
      "d": 174.60318333332543,
      "v": 36
    },
    {
      "midi": 59,
      "hit": false,
      "t": 185714.29499999975,
      "d": 325.3968416666612,
      "v": 62
    },
    {
      "midi": 66,
      "hit": false,
      "t": 185714.29499999975,
      "d": 325.3968416666612,
      "v": 73
    },
    {
      "midi": 57,
      "hit": false,
      "t": 185714.29499999975,
      "d": 333.3333500000008,
      "v": 94
    },
    {
      "midi": 63,
      "hit": false,
      "t": 186031.75533333307,
      "d": 246.03175833335263,
      "v": 56
    },
    {
      "midi": 84,
      "hit": false,
      "t": 186047.62834999998,
      "d": 63.4920666666585,
      "v": 119
    },
    {
      "midi": 59,
      "hit": false,
      "t": 186349.21566666642,
      "d": 47.61905000000843,
      "v": 43
    },
    {
      "midi": 57,
      "hit": false,
      "t": 186349.21566666642,
      "d": 55.55555833334802,
      "v": 59
    },
    {
      "midi": 84,
      "hit": false,
      "t": 186373.02519166665,
      "d": 47.61905000000843,
      "v": 127
    },
    {
      "midi": 84,
      "hit": false,
      "t": 186690.485525,
      "d": 71.42857499999809,
      "v": 127
    },
    {
      "midi": 63,
      "hit": false,
      "t": 187301.59666666645,
      "d": 238.09525000001304,
      "v": 56
    },
    {
      "midi": 71,
      "hit": false,
      "t": 187619.0569999998,
      "d": 325.3968416666903,
      "v": 102
    },
    {
      "midi": 63,
      "hit": false,
      "t": 187619.0569999998,
      "d": 341.2698583333695,
      "v": 29
    },
    {
      "midi": 66,
      "hit": false,
      "t": 187936.51733333315,
      "d": 285.71430000002147,
      "v": 82
    },
    {
      "midi": 63,
      "hit": false,
      "t": 188253.9776666665,
      "d": 55.55555833331891,
      "v": 100
    },
    {
      "midi": 59,
      "hit": false,
      "t": 188571.43799999982,
      "d": 119.04762500000652,
      "v": 44
    },
    {
      "midi": 57,
      "hit": false,
      "t": 188571.43799999982,
      "d": 126.98413333334611,
      "v": 59
    },
    {
      "midi": 84,
      "hit": false,
      "t": 188595.24752499998,
      "d": 325.3968416666612,
      "v": 127
    },
    {
      "midi": 63,
      "hit": false,
      "t": 188888.89833333317,
      "d": 95.23809999998775,
      "v": 79
    },
    {
      "midi": 57,
      "hit": false,
      "t": 188888.89833333317,
      "d": 103.17460833332734,
      "v": 79
    },
    {
      "midi": 59,
      "hit": false,
      "t": 188888.89833333317,
      "d": 103.17460833332734,
      "v": 62
    },
    {
      "midi": 59,
      "hit": false,
      "t": 189206.3586666665,
      "d": 87.30159166667727,
      "v": 20
    },
    {
      "midi": 57,
      "hit": false,
      "t": 189206.3586666665,
      "d": 95.23810000001686,
      "v": 36
    },
    {
      "midi": 67,
      "hit": false,
      "t": 189523.81899999984,
      "d": 174.60318333332543,
      "v": 102
    },
    {
      "midi": 57,
      "hit": false,
      "t": 189523.81899999984,
      "d": 595.2381249999744,
      "v": 98
    },
    {
      "midi": 59,
      "hit": false,
      "t": 189523.81899999984,
      "d": 595.2381249999744,
      "v": 79
    },
    {
      "midi": 84,
      "hit": false,
      "t": 189563.50154166666,
      "d": 126.98413333334611,
      "v": 127
    },
    {
      "midi": 66,
      "hit": false,
      "t": 189841.27933333316,
      "d": 373.0158916666405,
      "v": 62
    },
    {
      "midi": 84,
      "hit": false,
      "t": 189857.15235,
      "d": 111.11111666666693,
      "v": 127
    },
    {
      "midi": 84,
      "hit": false,
      "t": 190134.93014166664,
      "d": 174.60318333332543,
      "v": 127
    },
    {
      "midi": 64,
      "hit": false,
      "t": 190317.46983333313,
      "d": 23.809524999989662,
      "v": 35
    },
    {
      "midi": 52,
      "hit": false,
      "t": 190476.19999999978,
      "d": 1404.7619749999722,
      "v": 114
    },
    {
      "midi": 56,
      "hit": false,
      "t": 190793.6603333331,
      "d": 420.63494166664896,
      "v": 107
    },
    {
      "midi": 59,
      "hit": false,
      "t": 191111.12066666642,
      "d": 404.7619249999989,
      "v": 100
    },
    {
      "midi": 64,
      "hit": false,
      "t": 191428.58099999974,
      "d": 412.69843333333847,
      "v": 108
    },
    {
      "midi": 59,
      "hit": false,
      "t": 191746.0413333331,
      "d": 285.71429999999236,
      "v": 113
    },
    {
      "midi": 56,
      "hit": false,
      "t": 192063.50166666642,
      "d": 174.60318333332543,
      "v": 103
    },
    {
      "midi": 52,
      "hit": false,
      "t": 192380.96199999974,
      "d": 1634.9207166667038,
      "v": 110
    },
    {
      "midi": 84,
      "hit": false,
      "t": 192396.83501666662,
      "d": 277.7777916666528,
      "v": 127
    },
    {
      "midi": 56,
      "hit": false,
      "t": 192698.42233333306,
      "d": 206.34921666665468,
      "v": 94
    },
    {
      "midi": 59,
      "hit": false,
      "t": 193015.88266666638,
      "d": 476.1905000000261,
      "v": 110
    },
    {
      "midi": 64,
      "hit": false,
      "t": 193333.34299999973,
      "d": 722.2222583333787,
      "v": 110
    },
    {
      "midi": 84,
      "hit": false,
      "t": 193349.2160166666,
      "d": 47.61905000000843,
      "v": 127
    },
    {
      "midi": 84,
      "hit": false,
      "t": 193634.93031666664,
      "d": 55.55555833331891,
      "v": 127
    },
    {
      "midi": 59,
      "hit": false,
      "t": 193650.80333333308,
      "d": 404.761925000028,
      "v": 113
    },
    {
      "midi": 84,
      "hit": false,
      "t": 193944.45414166662,
      "d": 71.42857499999809,
      "v": 127
    },
    {
      "midi": 56,
      "hit": false,
      "t": 193968.26366666643,
      "d": 246.03175833335263,
      "v": 110
    },
    {
      "midi": 49,
      "hit": false,
      "t": 194285.72399999978,
      "d": 1436.5080083333014,
      "v": 82
    },
    {
      "midi": 56,
      "hit": false,
      "t": 194603.1843333331,
      "d": 777.7778166666685,
      "v": 103
    },
    {
      "midi": 61,
      "hit": false,
      "t": 194920.64466666643,
      "d": 444.4444666666677,
      "v": 98
    },
    {
      "midi": 64,
      "hit": false,
      "t": 195238.10499999975,
      "d": 500.00002500001574,
      "v": 107
    },
    {
      "midi": 61,
      "hit": false,
      "t": 195555.5653333331,
      "d": 293.65080833333195,
      "v": 91
    },
    {
      "midi": 56,
      "hit": false,
      "t": 195873.02566666642,
      "d": 380.9523999999801,
      "v": 107
    },
    {
      "midi": 49,
      "hit": false,
      "t": 196190.48599999974,
      "d": 1269.8413333333156,
      "v": 100
    },
    {
      "midi": 84,
      "hit": false,
      "t": 196206.35901666663,
      "d": 214.28572499999427,
      "v": 127
    },
    {
      "midi": 56,
      "hit": false,
      "t": 196507.94633333306,
      "d": 753.9682916666497,
      "v": 98
    },
    {
      "midi": 61,
      "hit": false,
      "t": 196825.4066666664,
      "d": 365.07938333333004,
      "v": 98
    },
    {
      "midi": 64,
      "hit": false,
      "t": 197142.8669999997,
      "d": 365.07938333335915,
      "v": 102
    },
    {
      "midi": 84,
      "hit": false,
      "t": 197174.6130333333,
      "d": 87.30159166667727,
      "v": 127
    },
    {
      "midi": 84,
      "hit": false,
      "t": 197444.45431666664,
      "d": 79.36508333333768,
      "v": 108
    },
    {
      "midi": 61,
      "hit": false,
      "t": 197460.32733333306,
      "d": 293.65080833333195,
      "v": 71
    },
    {
      "midi": 56,
      "hit": false,
      "t": 197777.78766666638,
      "d": 174.60318333332543,
      "v": 103
    },
    {
      "midi": 84,
      "hit": false,
      "t": 197777.78766666664,
      "d": 119.04762500000652,
      "v": 127
    },
    {
      "midi": 44,
      "hit": false,
      "t": 198095.2479999997,
      "d": 1357.1429249999637,
      "v": 107
    },
    {
      "midi": 59,
      "hit": false,
      "t": 198412.70833333302,
      "d": 500.00002499998664,
      "v": 108
    },
    {
      "midi": 63,
      "hit": false,
      "t": 198730.16866666634,
      "d": 253.9682666666631,
      "v": 91
    },
    {
      "midi": 68,
      "hit": false,
      "t": 199047.62899999967,
      "d": 357.14287499999045,
      "v": 85
    },
    {
      "midi": 63,
      "hit": false,
      "t": 199365.089333333,
      "d": 246.03175833335263,
      "v": 100
    },
    {
      "midi": 59,
      "hit": false,
      "t": 199682.54966666634,
      "d": 206.34921666665468,
      "v": 91
    },
    {
      "midi": 44,
      "hit": false,
      "t": 200000.00999999966,
      "d": 1444.444516666612,
      "v": 82
    },
    {
      "midi": 59,
      "hit": false,
      "t": 200317.47033333298,
      "d": 285.71429999999236,
      "v": 44
    },
    {
      "midi": 63,
      "hit": false,
      "t": 200634.9306666663,
      "d": 103.17460833332734,
      "v": 95
    },
    {
      "midi": 84,
      "hit": false,
      "t": 200634.93066666665,
      "d": 31.74603333332925,
      "v": 99
    },
    {
      "midi": 84,
      "hit": false,
      "t": 200793.66083333333,
      "d": 214.28572499999427,
      "v": 119
    },
    {
      "midi": 71,
      "hit": false,
      "t": 200952.39099999962,
      "d": 182.53969166666502,
      "v": 102
    },
    {
      "midi": 84,
      "hit": false,
      "t": 201190.48625,
      "d": 103.17460833332734,
      "v": 99
    },
    {
      "midi": 68,
      "hit": false,
      "t": 201269.85133333295,
      "d": 246.03175833332352,
      "v": 95
    },
    {
      "midi": 84,
      "hit": false,
      "t": 201436.5180083333,
      "d": 198.4127083333442,
      "v": 102
    },
    {
      "midi": 63,
      "hit": false,
      "t": 201587.31166666627,
      "d": 158.73016666667536,
      "v": 94
    },
    {
      "midi": 45,
      "hit": false,
      "t": 201904.7719999996,
      "d": 1595.2381749999768,
      "v": 113
    },
    {
      "midi": 84,
      "hit": false,
      "t": 201944.45454166667,
      "d": 190.4762000000046,
      "v": 127
    },
    {
      "midi": 57,
      "hit": false,
      "t": 202222.2323333329,
      "d": 396.8254166666884,
      "v": 62
    },
    {
      "midi": 59,
      "hit": false,
      "t": 202539.69266666626,
      "d": 261.9047750000027,
      "v": 98
    },
    {
      "midi": 61,
      "hit": false,
      "t": 202857.15299999958,
      "d": 253.9682666666631,
      "v": 95
    },
    {
      "midi": 59,
      "hit": false,
      "t": 203174.6133333329,
      "d": 285.71429999999236,
      "v": 67
    },
    {
      "midi": 57,
      "hit": false,
      "t": 203492.07366666623,
      "d": 142.85714999999618,
      "v": 98
    },
    {
      "midi": 45,
      "hit": false,
      "t": 203809.53399999955,
      "d": 912.6984583333542,
      "v": 108
    },
    {
      "midi": 55,
      "hit": false,
      "t": 204126.9943333329,
      "d": 325.3968416666612,
      "v": 113
    },
    {
      "midi": 61,
      "hit": false,
      "t": 204444.45466666622,
      "d": 277.7777916666819,
      "v": 59
    },
    {
      "midi": 45,
      "hit": false,
      "t": 204761.91499999957,
      "d": 555.5555833333347,
      "v": 91
    },
    {
      "midi": 57,
      "hit": false,
      "t": 205079.3753333329,
      "d": 365.07938333335915,
      "v": 73
    },
    {
      "midi": 61,
      "hit": false,
      "t": 205396.83566666624,
      "d": 95.23810000001686,
      "v": 91
    },
    {
      "midi": 52,
      "hit": false,
      "t": 205714.2959999996,
      "d": 1404.7619749999722,
      "v": 114
    },
    {
      "midi": 56,
      "hit": false,
      "t": 206031.75633333292,
      "d": 420.63494166664896,
      "v": 107
    },
    {
      "midi": 59,
      "hit": false,
      "t": 206349.21666666624,
      "d": 404.7619249999989,
      "v": 100
    },
    {
      "midi": 64,
      "hit": false,
      "t": 206666.67699999956,
      "d": 412.69843333333847,
      "v": 108
    },
    {
      "midi": 59,
      "hit": false,
      "t": 206984.1373333329,
      "d": 285.71429999999236,
      "v": 113
    },
    {
      "midi": 56,
      "hit": false,
      "t": 207301.59766666623,
      "d": 174.60318333332543,
      "v": 103
    },
    {
      "midi": 52,
      "hit": false,
      "t": 207619.05799999955,
      "d": 1634.9207166667038,
      "v": 110
    },
    {
      "midi": 84,
      "hit": false,
      "t": 207658.74054166666,
      "d": 269.8412833333423,
      "v": 127
    },
    {
      "midi": 56,
      "hit": false,
      "t": 207936.51833333288,
      "d": 206.34921666665468,
      "v": 94
    },
    {
      "midi": 59,
      "hit": false,
      "t": 208253.9786666662,
      "d": 476.1905000000261,
      "v": 110
    },
    {
      "midi": 64,
      "hit": false,
      "t": 208571.43899999955,
      "d": 722.2222583333787,
      "v": 110
    },
    {
      "midi": 84,
      "hit": false,
      "t": 208626.99455833333,
      "d": 71.42857499999809,
      "v": 127
    },
    {
      "midi": 59,
      "hit": false,
      "t": 208888.8993333329,
      "d": 404.761925000028,
      "v": 113
    },
    {
      "midi": 84,
      "hit": false,
      "t": 208912.70885833332,
      "d": 63.4920666666585,
      "v": 127
    },
    {
      "midi": 84,
      "hit": false,
      "t": 209182.55014166664,
      "d": 63.4920666666585,
      "v": 127
    },
    {
      "midi": 56,
      "hit": false,
      "t": 209206.35966666625,
      "d": 246.03175833335263,
      "v": 110
    },
    {
      "midi": 49,
      "hit": false,
      "t": 209523.8199999996,
      "d": 1436.5080083333014,
      "v": 82
    },
    {
      "midi": 56,
      "hit": false,
      "t": 209841.28033333292,
      "d": 777.7778166666685,
      "v": 103
    },
    {
      "midi": 61,
      "hit": false,
      "t": 210158.74066666624,
      "d": 444.4444666666677,
      "v": 98
    },
    {
      "midi": 64,
      "hit": false,
      "t": 210476.20099999956,
      "d": 500.00002500001574,
      "v": 107
    },
    {
      "midi": 61,
      "hit": false,
      "t": 210793.66133333292,
      "d": 293.65080833333195,
      "v": 91
    },
    {
      "midi": 56,
      "hit": false,
      "t": 211111.12166666624,
      "d": 380.9523999999801,
      "v": 107
    },
    {
      "midi": 49,
      "hit": false,
      "t": 211428.58199999956,
      "d": 1269.8413333333156,
      "v": 100
    },
    {
      "midi": 84,
      "hit": false,
      "t": 211468.26454166663,
      "d": 47.61905000000843,
      "v": 127
    },
    {
      "midi": 84,
      "hit": false,
      "t": 211619.05819999997,
      "d": 119.04762500000652,
      "v": 127
    },
    {
      "midi": 56,
      "hit": false,
      "t": 211746.04233333288,
      "d": 753.9682916666497,
      "v": 98
    },
    {
      "midi": 61,
      "hit": false,
      "t": 212063.5026666662,
      "d": 365.07938333333004,
      "v": 98
    },
    {
      "midi": 84,
      "hit": false,
      "t": 212357.15347499997,
      "d": 134.9206416666566,
      "v": 127
    },
    {
      "midi": 64,
      "hit": false,
      "t": 212380.96299999952,
      "d": 365.07938333335915,
      "v": 102
    },
    {
      "midi": 61,
      "hit": false,
      "t": 212698.42333333287,
      "d": 293.65080833333195,
      "v": 71
    },
    {
      "midi": 84,
      "hit": false,
      "t": 212952.39159999997,
      "d": 87.30159166667727,
      "v": 127
    },
    {
      "midi": 56,
      "hit": false,
      "t": 213015.8836666662,
      "d": 174.60318333332543,
      "v": 103
    },
    {
      "midi": 44,
      "hit": false,
      "t": 213333.34399999952,
      "d": 1357.1429249999637,
      "v": 107
    },
    {
      "midi": 59,
      "hit": false,
      "t": 213650.80433333284,
      "d": 500.00002499998664,
      "v": 108
    },
    {
      "midi": 63,
      "hit": false,
      "t": 213968.26466666616,
      "d": 253.9682666666631,
      "v": 91
    },
    {
      "midi": 68,
      "hit": false,
      "t": 214285.72499999948,
      "d": 357.14287499999045,
      "v": 85
    },
    {
      "midi": 63,
      "hit": false,
      "t": 214603.1853333328,
      "d": 246.03175833335263,
      "v": 100
    },
    {
      "midi": 59,
      "hit": false,
      "t": 214920.64566666615,
      "d": 206.34921666665468,
      "v": 91
    },
    {
      "midi": 44,
      "hit": false,
      "t": 215238.10599999948,
      "d": 1444.444516666612,
      "v": 82
    },
    {
      "midi": 59,
      "hit": false,
      "t": 215555.5663333328,
      "d": 285.71429999999236,
      "v": 44
    },
    {
      "midi": 63,
      "hit": false,
      "t": 215873.02666666612,
      "d": 103.17460833332734,
      "v": 95
    },
    {
      "midi": 71,
      "hit": false,
      "t": 216190.48699999944,
      "d": 182.53969166666502,
      "v": 102
    },
    {
      "midi": 68,
      "hit": false,
      "t": 216507.94733333276,
      "d": 246.03175833332352,
      "v": 95
    },
    {
      "midi": 63,
      "hit": false,
      "t": 216825.40766666608,
      "d": 158.73016666667536,
      "v": 94
    },
    {
      "midi": 45,
      "hit": false,
      "t": 217142.8679999994,
      "d": 1595.2381749999768,
      "v": 113
    },
    {
      "midi": 84,
      "hit": false,
      "t": 217174.61403333332,
      "d": 63.4920666666585,
      "v": 127
    },
    {
      "midi": 57,
      "hit": false,
      "t": 217460.32833333273,
      "d": 396.8254166666884,
      "v": 62
    },
    {
      "midi": 59,
      "hit": false,
      "t": 217777.78866666608,
      "d": 261.9047750000027,
      "v": 98
    },
    {
      "midi": 61,
      "hit": false,
      "t": 218095.2489999994,
      "d": 253.9682666666631,
      "v": 95
    },
    {
      "midi": 59,
      "hit": false,
      "t": 218412.70933333272,
      "d": 285.71429999999236,
      "v": 67
    },
    {
      "midi": 84,
      "hit": false,
      "t": 218642.86807499998,
      "d": 134.9206416666566,
      "v": 127
    },
    {
      "midi": 57,
      "hit": false,
      "t": 218730.16966666604,
      "d": 142.85714999999618,
      "v": 98
    },
    {
      "midi": 84,
      "hit": false,
      "t": 218992.07444166663,
      "d": 111.11111666666693,
      "v": 127
    },
    {
      "midi": 45,
      "hit": false,
      "t": 219047.62999999936,
      "d": 912.6984583333542,
      "v": 108
    },
    {
      "midi": 55,
      "hit": false,
      "t": 219365.09033333272,
      "d": 325.3968416666612,
      "v": 113
    },
    {
      "midi": 61,
      "hit": false,
      "t": 219682.55066666604,
      "d": 277.7777916666819,
      "v": 59
    },
    {
      "midi": 84,
      "hit": false,
      "t": 219960.3284583333,
      "d": 55.55555833331891,
      "v": 127
    },
    {
      "midi": 45,
      "hit": false,
      "t": 220000.0109999994,
      "d": 555.5555833333347,
      "v": 91
    },
    {
      "midi": 84,
      "hit": false,
      "t": 220158.74116666662,
      "d": 79.36508333333768,
      "v": 127
    },
    {
      "midi": 57,
      "hit": false,
      "t": 220317.4713333327,
      "d": 365.07938333335915,
      "v": 73
    },
    {
      "midi": 61,
      "hit": false,
      "t": 220634.93166666606,
      "d": 95.23810000001686,
      "v": 91
    },
    {
      "midi": 84,
      "hit": false,
      "t": 220904.77294999996,
      "d": 103.17460833332734,
      "v": 127
    },
    {
      "midi": 52,
      "hit": false,
      "t": 220952.3919999994,
      "d": 1404.7619749999722,
      "v": 114
    },
    {
      "midi": 56,
      "hit": false,
      "t": 221269.85233333273,
      "d": 420.63494166664896,
      "v": 107
    },
    {
      "midi": 59,
      "hit": false,
      "t": 221587.31266666605,
      "d": 404.7619249999989,
      "v": 100
    },
    {
      "midi": 64,
      "hit": false,
      "t": 221904.77299999938,
      "d": 412.69843333333847,
      "v": 108
    },
    {
      "midi": 59,
      "hit": false,
      "t": 222222.23333333273,
      "d": 285.71429999999236,
      "v": 113
    },
    {
      "midi": 56,
      "hit": false,
      "t": 222539.69366666605,
      "d": 174.60318333332543,
      "v": 103
    },
    {
      "midi": 52,
      "hit": false,
      "t": 222857.15399999937,
      "d": 1634.9207166667038,
      "v": 110
    },
    {
      "midi": 56,
      "hit": false,
      "t": 223174.6143333327,
      "d": 206.34921666665468,
      "v": 94
    },
    {
      "midi": 59,
      "hit": false,
      "t": 223492.074666666,
      "d": 476.1905000000261,
      "v": 110
    },
    {
      "midi": 64,
      "hit": false,
      "t": 223809.53499999936,
      "d": 722.2222583333787,
      "v": 110
    },
    {
      "midi": 59,
      "hit": false,
      "t": 224126.9953333327,
      "d": 404.761925000028,
      "v": 113
    },
    {
      "midi": 56,
      "hit": false,
      "t": 224444.45566666606,
      "d": 246.03175833335263,
      "v": 110
    },
    {
      "midi": 49,
      "hit": false,
      "t": 224761.91599999942,
      "d": 1436.5080083333014,
      "v": 82
    },
    {
      "midi": 56,
      "hit": false,
      "t": 225079.37633333274,
      "d": 777.7778166666685,
      "v": 103
    },
    {
      "midi": 61,
      "hit": false,
      "t": 225396.83666666606,
      "d": 444.4444666666677,
      "v": 98
    },
    {
      "midi": 64,
      "hit": false,
      "t": 225714.29699999938,
      "d": 500.00002500001574,
      "v": 107
    },
    {
      "midi": 61,
      "hit": false,
      "t": 226031.75733333273,
      "d": 293.65080833333195,
      "v": 91
    },
    {
      "midi": 56,
      "hit": false,
      "t": 226349.21766666605,
      "d": 380.9523999999801,
      "v": 107
    },
    {
      "midi": 49,
      "hit": false,
      "t": 226666.67799999937,
      "d": 1269.8413333333156,
      "v": 100
    },
    {
      "midi": 56,
      "hit": false,
      "t": 226984.1383333327,
      "d": 753.9682916666497,
      "v": 98
    },
    {
      "midi": 61,
      "hit": false,
      "t": 227301.59866666602,
      "d": 365.07938333333004,
      "v": 98
    },
    {
      "midi": 64,
      "hit": false,
      "t": 227619.05899999934,
      "d": 365.07938333335915,
      "v": 102
    },
    {
      "midi": 61,
      "hit": false,
      "t": 227936.5193333327,
      "d": 293.65080833333195,
      "v": 71
    },
    {
      "midi": 56,
      "hit": false,
      "t": 228253.979666666,
      "d": 174.60318333332543,
      "v": 103
    },
    {
      "midi": 44,
      "hit": false,
      "t": 228571.43999999933,
      "d": 1357.1429249999637,
      "v": 107
    },
    {
      "midi": 59,
      "hit": false,
      "t": 228888.90033333265,
      "d": 500.00002499998664,
      "v": 108
    },
    {
      "midi": 63,
      "hit": false,
      "t": 229206.36066666598,
      "d": 253.9682666666631,
      "v": 91
    },
    {
      "midi": 68,
      "hit": false,
      "t": 229523.8209999993,
      "d": 357.14287499999045,
      "v": 85
    },
    {
      "midi": 63,
      "hit": false,
      "t": 229841.28133333262,
      "d": 246.03175833335263,
      "v": 100
    },
    {
      "midi": 59,
      "hit": false,
      "t": 230158.74166666597,
      "d": 206.34921666665468,
      "v": 91
    },
    {
      "midi": 44,
      "hit": false,
      "t": 230476.2019999993,
      "d": 1444.444516666612,
      "v": 82
    },
    {
      "midi": 59,
      "hit": false,
      "t": 230793.6623333326,
      "d": 285.71429999999236,
      "v": 44
    },
    {
      "midi": 63,
      "hit": false,
      "t": 231111.12266666593,
      "d": 103.17460833332734,
      "v": 95
    },
    {
      "midi": 71,
      "hit": false,
      "t": 231428.58299999926,
      "d": 182.53969166666502,
      "v": 102
    },
    {
      "midi": 68,
      "hit": false,
      "t": 231746.04333333258,
      "d": 246.03175833332352,
      "v": 95
    },
    {
      "midi": 63,
      "hit": false,
      "t": 232063.5036666659,
      "d": 158.73016666667536,
      "v": 94
    },
    {
      "midi": 45,
      "hit": false,
      "t": 232380.96399999922,
      "d": 1595.2381749999768,
      "v": 113
    },
    {
      "midi": 57,
      "hit": false,
      "t": 232698.42433333254,
      "d": 396.8254166666884,
      "v": 62
    },
    {
      "midi": 59,
      "hit": false,
      "t": 233015.8846666659,
      "d": 261.9047750000027,
      "v": 98
    },
    {
      "midi": 61,
      "hit": false,
      "t": 233333.34499999922,
      "d": 253.9682666666631,
      "v": 95
    },
    {
      "midi": 59,
      "hit": false,
      "t": 233650.80533333254,
      "d": 285.71429999999236,
      "v": 67
    },
    {
      "midi": 57,
      "hit": false,
      "t": 233968.26566666586,
      "d": 142.85714999999618,
      "v": 98
    },
    {
      "midi": 45,
      "hit": false,
      "t": 234285.72599999918,
      "d": 912.6984583333542,
      "v": 108
    },
    {
      "midi": 55,
      "hit": false,
      "t": 234603.18633333253,
      "d": 325.3968416666612,
      "v": 113
    },
    {
      "midi": 61,
      "hit": false,
      "t": 234920.64666666585,
      "d": 277.7777916666819,
      "v": 59
    },
    {
      "midi": 45,
      "hit": false,
      "t": 235238.1069999992,
      "d": 555.5555833333347,
      "v": 91
    },
    {
      "midi": 57,
      "hit": false,
      "t": 235555.56733333252,
      "d": 365.07938333335915,
      "v": 73
    },
    {
      "midi": 61,
      "hit": false,
      "t": 235873.02766666588,
      "d": 95.23810000001686,
      "v": 91
    },
    {
      "midi": 52,
      "hit": false,
      "t": 236190.48799999923,
      "d": 1404.7619749999722,
      "v": 114
    },
    {
      "midi": 56,
      "hit": false,
      "t": 236507.94833333255,
      "d": 420.63494166664896,
      "v": 107
    },
    {
      "midi": 59,
      "hit": false,
      "t": 236825.40866666587,
      "d": 404.7619249999989,
      "v": 100
    },
    {
      "midi": 64,
      "hit": false,
      "t": 237142.8689999992,
      "d": 412.69843333333847,
      "v": 108
    },
    {
      "midi": 59,
      "hit": false,
      "t": 237460.32933333254,
      "d": 285.71429999999236,
      "v": 113
    },
    {
      "midi": 56,
      "hit": false,
      "t": 237777.78966666586,
      "d": 174.60318333332543,
      "v": 103
    },
    {
      "midi": 52,
      "hit": false,
      "t": 238095.24999999919,
      "d": 1634.9207166667038,
      "v": 110
    },
    {
      "midi": 56,
      "hit": false,
      "t": 238412.7103333325,
      "d": 206.34921666665468,
      "v": 94
    },
    {
      "midi": 59,
      "hit": false,
      "t": 238730.17066666583,
      "d": 476.1905000000261,
      "v": 110
    },
    {
      "midi": 64,
      "hit": false,
      "t": 239047.63099999918,
      "d": 722.2222583333787,
      "v": 110
    },
    {
      "midi": 59,
      "hit": false,
      "t": 239365.09133333253,
      "d": 404.761925000028,
      "v": 113
    },
    {
      "midi": 56,
      "hit": false,
      "t": 239682.55166666588,
      "d": 246.03175833335263,
      "v": 110
    },
    {
      "midi": 49,
      "hit": false,
      "t": 240000.01199999923,
      "d": 1436.5080083333014,
      "v": 82
    },
    {
      "midi": 56,
      "hit": false,
      "t": 240317.47233333255,
      "d": 777.7778166666685,
      "v": 103
    },
    {
      "midi": 61,
      "hit": false,
      "t": 240634.93266666587,
      "d": 444.4444666666677,
      "v": 98
    },
    {
      "midi": 64,
      "hit": false,
      "t": 240952.3929999992,
      "d": 500.00002500001574,
      "v": 107
    },
    {
      "midi": 61,
      "hit": false,
      "t": 241269.85333333255,
      "d": 293.65080833333195,
      "v": 91
    },
    {
      "midi": 56,
      "hit": false,
      "t": 241587.31366666587,
      "d": 380.9523999999801,
      "v": 107
    },
    {
      "midi": 49,
      "hit": false,
      "t": 241904.7739999992,
      "d": 1269.8413333333156,
      "v": 100
    },
    {
      "midi": 56,
      "hit": false,
      "t": 242222.2343333325,
      "d": 753.9682916666497,
      "v": 98
    },
    {
      "midi": 61,
      "hit": false,
      "t": 242539.69466666583,
      "d": 365.07938333333004,
      "v": 98
    },
    {
      "midi": 64,
      "hit": false,
      "t": 242857.15499999915,
      "d": 365.07938333335915,
      "v": 102
    },
    {
      "midi": 61,
      "hit": false,
      "t": 243174.6153333325,
      "d": 293.65080833333195,
      "v": 71
    },
    {
      "midi": 56,
      "hit": false,
      "t": 243492.07566666583,
      "d": 174.60318333332543,
      "v": 103
    },
    {
      "midi": 44,
      "hit": false,
      "t": 243809.53599999915,
      "d": 1357.1429249999637,
      "v": 107
    },
    {
      "midi": 59,
      "hit": false,
      "t": 244126.99633333247,
      "d": 500.00002499998664,
      "v": 108
    },
    {
      "midi": 63,
      "hit": false,
      "t": 244444.4566666658,
      "d": 253.9682666666631,
      "v": 91
    },
    {
      "midi": 68,
      "hit": false,
      "t": 244761.9169999991,
      "d": 357.14287499999045,
      "v": 85
    },
    {
      "midi": 63,
      "hit": false,
      "t": 245079.37733333244,
      "d": 246.03175833335263,
      "v": 100
    },
    {
      "midi": 59,
      "hit": false,
      "t": 245396.8376666658,
      "d": 206.34921666665468,
      "v": 91
    },
    {
      "midi": 44,
      "hit": false,
      "t": 245714.2979999991,
      "d": 1444.444516666612,
      "v": 82
    },
    {
      "midi": 59,
      "hit": false,
      "t": 246031.75833333243,
      "d": 285.71429999999236,
      "v": 44
    },
    {
      "midi": 63,
      "hit": false,
      "t": 246349.21866666575,
      "d": 103.17460833332734,
      "v": 95
    },
    {
      "midi": 71,
      "hit": false,
      "t": 246666.67899999907,
      "d": 182.53969166666502,
      "v": 102
    },
    {
      "midi": 68,
      "hit": false,
      "t": 246984.1393333324,
      "d": 246.03175833332352,
      "v": 95
    },
    {
      "midi": 63,
      "hit": false,
      "t": 247301.59966666572,
      "d": 158.73016666667536,
      "v": 94
    },
    {
      "midi": 45,
      "hit": false,
      "t": 247619.05999999904,
      "d": 1595.2381749999768,
      "v": 113
    },
    {
      "midi": 57,
      "hit": false,
      "t": 247936.52033333236,
      "d": 396.8254166666884,
      "v": 62
    },
    {
      "midi": 59,
      "hit": false,
      "t": 248253.9806666657,
      "d": 261.9047750000027,
      "v": 98
    },
    {
      "midi": 61,
      "hit": false,
      "t": 248571.44099999903,
      "d": 253.9682666666631,
      "v": 95
    },
    {
      "midi": 59,
      "hit": false,
      "t": 248888.90133333235,
      "d": 285.71429999999236,
      "v": 67
    },
    {
      "midi": 57,
      "hit": false,
      "t": 249206.36166666567,
      "d": 142.85714999999618,
      "v": 98
    },
    {
      "midi": 60,
      "hit": false,
      "t": 249531.75850833234,
      "d": 1706.3492916666728,
      "v": 107
    },
    {
      "midi": 64,
      "hit": false,
      "t": 249563.50454166566,
      "d": 1650.7937333333539,
      "v": 95
    },
    {
      "midi": 69,
      "hit": false,
      "t": 249642.869624999,
      "d": 1555.555633333337,
      "v": 113
    },
    {
      "midi": 40,
      "hit": false,
      "t": 251595.25067499903,
      "d": 1039.682591666584,
      "v": 95
    },
    {
      "midi": 56,
      "hit": false,
      "t": 251730.17131666568,
      "d": 158.73016666664626,
      "v": 122
    },
    {
      "midi": 59,
      "hit": false,
      "t": 251793.66338333234,
      "d": 190.4761999999755,
      "v": 105
    },
    {
      "midi": 64,
      "hit": false,
      "t": 251960.33005833233,
      "d": 79.36508333330858,
      "v": 103
    },
    {
      "midi": 52,
      "hit": false,
      "t": 252230.17134166564,
      "d": 31.74603333332925,
      "v": 111
    },
    {
      "midi": 64,
      "hit": false,
      "t": 252468.26659166563,
      "d": 992.0635416666046,
      "v": 105
    },
    {
      "midi": 66,
      "hit": false,
      "t": 252507.9491333323,
      "d": 952.3809999999357,
      "v": 112
    },
    {
      "midi": 52,
      "hit": false,
      "t": 252603.18723333228,
      "d": 547.619074999966,
      "v": 114
    },
    {
      "midi": 68,
      "hit": false,
      "t": 252658.7427916656,
      "d": 777.7778166666394,
      "v": 112
    },
    {
      "midi": 71,
      "hit": false,
      "t": 252753.9808916656,
      "d": 674.6032083333121,
      "v": 118
    }
  ]
}