{
  "jsonPath": "Folk/Lilith/Terra Naomi/never-quite-discussed.json",
  "path": "Folk\\Lilith\\Terra Naomi\\Never Quite Discussed.mid",
  "name": "Never Quite Discussed",
  "difficulty": "Advanced",
  "bpm": 72.00002880001152,
  "notes": [
    {
      "midi": 62,
      "hit": false,
      "t": 173.61104166666667,
      "d": 222.22213333333337,
      "v": 125
    },
    {
      "midi": 74,
      "hit": false,
      "t": 173.61104166666667,
      "d": 222.22213333333337,
      "v": 125
    },
    {
      "midi": 67,
      "hit": false,
      "t": 381.9442916666667,
      "d": 499.99979999999994,
      "v": 125
    },
    {
      "midi": 79,
      "hit": false,
      "t": 381.9442916666667,
      "d": 499.99979999999994,
      "v": 125
    },
    {
      "midi": 69,
      "hit": false,
      "t": 590.2775416666667,
      "d": 236.11101666666661,
      "v": 77
    },
    {
      "midi": 81,
      "hit": false,
      "t": 590.2775416666667,
      "d": 236.11101666666661,
      "v": 77
    },
    {
      "midi": 71,
      "hit": false,
      "t": 763.8885833333334,
      "d": 2479.1656749999997,
      "v": 93
    },
    {
      "midi": 83,
      "hit": false,
      "t": 763.8885833333334,
      "d": 2479.1656749999997,
      "v": 93
    },
    {
      "midi": 55,
      "hit": false,
      "t": 798.6107916666666,
      "d": 1534.7216083333333,
      "v": 97
    },
    {
      "midi": 67,
      "hit": false,
      "t": 833.333,
      "d": 1145.832875,
      "v": 77
    },
    {
      "midi": 74,
      "hit": false,
      "t": 833.333,
      "d": 1187.4995249999997,
      "v": 113
    },
    {
      "midi": 71,
      "hit": false,
      "t": 833.333,
      "d": 1319.4439166666666,
      "v": 105
    },
    {
      "midi": 55,
      "hit": false,
      "t": 833.333,
      "d": 1805.5548333333336,
      "v": 49
    },
    {
      "midi": 43,
      "hit": false,
      "t": 833.333,
      "d": 1812.4992750000001,
      "v": 93
    },
    {
      "midi": 50,
      "hit": false,
      "t": 2256.9435416666665,
      "d": 111.11106666666637,
      "v": 117
    },
    {
      "midi": 67,
      "hit": false,
      "t": 2291.66575,
      "d": 277.77766666666685,
      "v": 77
    },
    {
      "midi": 55,
      "hit": false,
      "t": 2465.276791666666,
      "d": 243.05545833333326,
      "v": 109
    },
    {
      "midi": 74,
      "hit": false,
      "t": 2499.9990000000003,
      "d": 90.27774166666677,
      "v": 69
    },
    {
      "midi": 71,
      "hit": false,
      "t": 2499.9990000000003,
      "d": 111.11106666666683,
      "v": 77
    },
    {
      "midi": 55,
      "hit": false,
      "t": 2881.943291666666,
      "d": 777.7774666666669,
      "v": 109
    },
    {
      "midi": 71,
      "hit": false,
      "t": 2916.6655,
      "d": 118.05550833333336,
      "v": 97
    },
    {
      "midi": 67,
      "hit": false,
      "t": 2916.6655,
      "d": 145.83327499999996,
      "v": 81
    },
    {
      "midi": 74,
      "hit": false,
      "t": 2916.6655,
      "d": 215.27769166666667,
      "v": 73
    },
    {
      "midi": 55,
      "hit": false,
      "t": 2916.6655,
      "d": 937.4996249999999,
      "v": 45
    },
    {
      "midi": 43,
      "hit": false,
      "t": 2923.6099416666666,
      "d": 694.4441666666667,
      "v": 41
    },
    {
      "midi": 67,
      "hit": false,
      "t": 3333.332,
      "d": 111.11106666666683,
      "v": 5
    },
    {
      "midi": 74,
      "hit": false,
      "t": 3333.332,
      "d": 249.99990000000025,
      "v": 77
    },
    {
      "midi": 86,
      "hit": false,
      "t": 3333.332,
      "d": 249.99990000000025,
      "v": 77
    },
    {
      "midi": 71,
      "hit": false,
      "t": 3541.66525,
      "d": 97.2221833333333,
      "v": 61
    },
    {
      "midi": 72,
      "hit": false,
      "t": 3541.66525,
      "d": 263.8887833333338,
      "v": 65
    },
    {
      "midi": 84,
      "hit": false,
      "t": 3541.66525,
      "d": 263.8887833333338,
      "v": 65
    },
    {
      "midi": 57,
      "hit": false,
      "t": 3715.276291666666,
      "d": 361.1109666666666,
      "v": 85
    },
    {
      "midi": 71,
      "hit": false,
      "t": 3715.276291666667,
      "d": 243.05545833333326,
      "v": 89
    },
    {
      "midi": 83,
      "hit": false,
      "t": 3715.276291666667,
      "d": 243.05545833333326,
      "v": 89
    },
    {
      "midi": 67,
      "hit": false,
      "t": 3749.9985,
      "d": 104.16662499999984,
      "v": 57
    },
    {
      "midi": 74,
      "hit": false,
      "t": 3749.9985,
      "d": 138.88883333333297,
      "v": 69
    },
    {
      "midi": 55,
      "hit": false,
      "t": 3923.6095416666662,
      "d": 159.72215833333303,
      "v": 121
    },
    {
      "midi": 69,
      "hit": false,
      "t": 3923.609541666667,
      "d": 277.7776666666664,
      "v": 97
    },
    {
      "midi": 81,
      "hit": false,
      "t": 3923.609541666667,
      "d": 277.7776666666664,
      "v": 97
    },
    {
      "midi": 54,
      "hit": false,
      "t": 4131.942791666666,
      "d": 1506.9438416666662,
      "v": 125
    },
    {
      "midi": 71,
      "hit": false,
      "t": 4131.942791666667,
      "d": 868.0552083333332,
      "v": 125
    },
    {
      "midi": 83,
      "hit": false,
      "t": 4131.942791666667,
      "d": 868.0552083333332,
      "v": 125
    },
    {
      "midi": 54,
      "hit": false,
      "t": 4166.665,
      "d": 2930.554383333335,
      "v": 69
    },
    {
      "midi": 62,
      "hit": false,
      "t": 4583.3315,
      "d": 194.4443666666666,
      "v": 33
    },
    {
      "midi": 62,
      "hit": false,
      "t": 4999.9980000000005,
      "d": 159.72215833333303,
      "v": 41
    },
    {
      "midi": 66,
      "hit": false,
      "t": 4999.9980000000005,
      "d": 194.4443666666666,
      "v": 49
    },
    {
      "midi": 69,
      "hit": false,
      "t": 4999.9980000000005,
      "d": 243.05545833333326,
      "v": 49
    },
    {
      "midi": 69,
      "hit": false,
      "t": 4999.9980000000005,
      "d": 1708.3326500000003,
      "v": 93
    },
    {
      "midi": 81,
      "hit": false,
      "t": 4999.9980000000005,
      "d": 1708.3326500000003,
      "v": 93
    },
    {
      "midi": 62,
      "hit": false,
      "t": 5416.664500000001,
      "d": 222.22213333333275,
      "v": 25
    },
    {
      "midi": 50,
      "hit": false,
      "t": 5590.275541666666,
      "d": 124.99995000000035,
      "v": 97
    },
    {
      "midi": 69,
      "hit": false,
      "t": 5624.99775,
      "d": 55.55553333333319,
      "v": 45
    },
    {
      "midi": 54,
      "hit": false,
      "t": 5798.608791666667,
      "d": 222.22213333333366,
      "v": 125
    },
    {
      "midi": 62,
      "hit": false,
      "t": 5833.331,
      "d": 187.49992500000008,
      "v": 73
    },
    {
      "midi": 69,
      "hit": false,
      "t": 5833.331,
      "d": 263.8887833333338,
      "v": 97
    },
    {
      "midi": 54,
      "hit": false,
      "t": 6215.275291666667,
      "d": 763.8885833333334,
      "v": 125
    },
    {
      "midi": 62,
      "hit": false,
      "t": 6249.9975,
      "d": 187.49992500000008,
      "v": 65
    },
    {
      "midi": 67,
      "hit": false,
      "t": 6249.9975,
      "d": 222.22213333333366,
      "v": 65
    },
    {
      "midi": 62,
      "hit": false,
      "t": 6666.664000000001,
      "d": 124.99995000000035,
      "v": 57
    },
    {
      "midi": 66,
      "hit": false,
      "t": 6666.664000000001,
      "d": 256.94434166666724,
      "v": 81
    },
    {
      "midi": 71,
      "hit": false,
      "t": 6666.664000000001,
      "d": 347.2220833333331,
      "v": 125
    },
    {
      "midi": 83,
      "hit": false,
      "t": 6666.664000000001,
      "d": 347.2220833333331,
      "v": 125
    },
    {
      "midi": 69,
      "hit": false,
      "t": 6874.99725,
      "d": 187.49992500000008,
      "v": 121
    },
    {
      "midi": 81,
      "hit": false,
      "t": 6874.99725,
      "d": 187.49992500000008,
      "v": 121
    },
    {
      "midi": 55,
      "hit": false,
      "t": 7048.608291666666,
      "d": 263.88878333333287,
      "v": 85
    },
    {
      "midi": 67,
      "hit": false,
      "t": 7048.608291666667,
      "d": 243.05545833333326,
      "v": 93
    },
    {
      "midi": 79,
      "hit": false,
      "t": 7048.608291666667,
      "d": 243.05545833333326,
      "v": 93
    },
    {
      "midi": 54,
      "hit": false,
      "t": 7256.941541666666,
      "d": 187.49992500000008,
      "v": 113
    },
    {
      "midi": 66,
      "hit": false,
      "t": 7256.941541666667,
      "d": 215.27769166666712,
      "v": 125
    },
    {
      "midi": 78,
      "hit": false,
      "t": 7256.941541666667,
      "d": 215.27769166666712,
      "v": 125
    },
    {
      "midi": 52,
      "hit": false,
      "t": 7465.274791666666,
      "d": 1499.9993999999997,
      "v": 125
    },
    {
      "midi": 64,
      "hit": false,
      "t": 7499.997000000001,
      "d": 187.49992500000008,
      "v": 69
    },
    {
      "midi": 71,
      "hit": false,
      "t": 7499.997000000001,
      "d": 243.05545833333326,
      "v": 89
    },
    {
      "midi": 67,
      "hit": false,
      "t": 7499.997000000001,
      "d": 263.88878333333287,
      "v": 81
    },
    {
      "midi": 52,
      "hit": false,
      "t": 7499.997000000001,
      "d": 3166.665399999998,
      "v": 105
    },
    {
      "midi": 64,
      "hit": false,
      "t": 7499.997000000001,
      "d": 888.8885333333346,
      "v": 105
    },
    {
      "midi": 76,
      "hit": false,
      "t": 7499.997000000001,
      "d": 888.8885333333346,
      "v": 105
    },
    {
      "midi": 64,
      "hit": false,
      "t": 7916.663500000001,
      "d": 159.72215833333303,
      "v": 33
    },
    {
      "midi": 64,
      "hit": false,
      "t": 8333.33,
      "d": 69.44441666666717,
      "v": 37
    },
    {
      "midi": 71,
      "hit": false,
      "t": 8333.33,
      "d": 187.49992500000008,
      "v": 73
    },
    {
      "midi": 66,
      "hit": false,
      "t": 8333.330000000002,
      "d": 895.8329749999994,
      "v": 109
    },
    {
      "midi": 78,
      "hit": false,
      "t": 8333.330000000002,
      "d": 895.8329749999994,
      "v": 109
    },
    {
      "midi": 69,
      "hit": false,
      "t": 8749.9965,
      "d": 284.7221083333334,
      "v": 81
    },
    {
      "midi": 47,
      "hit": false,
      "t": 8923.607541666666,
      "d": 111.11106666666637,
      "v": 121
    },
    {
      "midi": 52,
      "hit": false,
      "t": 9131.940791666666,
      "d": 180.55548333333354,
      "v": 121
    },
    {
      "midi": 67,
      "hit": false,
      "t": 9166.662999999999,
      "d": 486.1109166666665,
      "v": 121
    },
    {
      "midi": 67,
      "hit": false,
      "t": 9201.385208333335,
      "d": 451.38870833333385,
      "v": 125
    },
    {
      "midi": 79,
      "hit": false,
      "t": 9201.385208333335,
      "d": 451.38870833333385,
      "v": 125
    },
    {
      "midi": 52,
      "hit": false,
      "t": 9548.607291666665,
      "d": 777.7774666666664,
      "v": 125
    },
    {
      "midi": 66,
      "hit": false,
      "t": 9583.329499999998,
      "d": 347.222083333334,
      "v": 113
    },
    {
      "midi": 66,
      "hit": false,
      "t": 9583.329500000002,
      "d": 451.38870833333385,
      "v": 125
    },
    {
      "midi": 78,
      "hit": false,
      "t": 9583.329500000002,
      "d": 451.38870833333385,
      "v": 125
    },
    {
      "midi": 64,
      "hit": false,
      "t": 9999.996,
      "d": 277.77766666666685,
      "v": 109
    },
    {
      "midi": 64,
      "hit": false,
      "t": 9999.996000000003,
      "d": 416.66649999999936,
      "v": 113
    },
    {
      "midi": 76,
      "hit": false,
      "t": 9999.996000000003,
      "d": 416.66649999999936,
      "v": 113
    },
    {
      "midi": 50,
      "hit": false,
      "t": 10381.940291666666,
      "d": 416.66649999999936,
      "v": 125
    },
    {
      "midi": 62,
      "hit": false,
      "t": 10416.662499999999,
      "d": 145.83327500000087,
      "v": 97
    },
    {
      "midi": 62,
      "hit": false,
      "t": 10416.662500000002,
      "d": 479.166475,
      "v": 121
    },
    {
      "midi": 74,
      "hit": false,
      "t": 10416.662500000002,
      "d": 479.166475,
      "v": 121
    },
    {
      "midi": 48,
      "hit": false,
      "t": 10798.606791666665,
      "d": 868.0552083333332,
      "v": 125
    },
    {
      "midi": 60,
      "hit": false,
      "t": 10833.329,
      "d": 256.94434166666724,
      "v": 97
    },
    {
      "midi": 67,
      "hit": false,
      "t": 10833.329,
      "d": 333.33320000000094,
      "v": 105
    },
    {
      "midi": 64,
      "hit": false,
      "t": 10833.329,
      "d": 381.9442916666685,
      "v": 109
    },
    {
      "midi": 48,
      "hit": false,
      "t": 10833.329,
      "d": 895.8329749999994,
      "v": 125
    },
    {
      "midi": 60,
      "hit": false,
      "t": 10833.329000000002,
      "d": 819.4441166666675,
      "v": 113
    },
    {
      "midi": 72,
      "hit": false,
      "t": 10833.329000000002,
      "d": 819.4441166666675,
      "v": 113
    },
    {
      "midi": 60,
      "hit": false,
      "t": 11249.9955,
      "d": 131.94439166666598,
      "v": 53
    },
    {
      "midi": 60,
      "hit": false,
      "t": 11631.939791666666,
      "d": 458.33314999999857,
      "v": 125
    },
    {
      "midi": 67,
      "hit": false,
      "t": 11666.662,
      "d": 41.66664999999921,
      "v": 93
    },
    {
      "midi": 64,
      "hit": false,
      "t": 11666.662,
      "d": 62.49997499999881,
      "v": 117
    },
    {
      "midi": 60,
      "hit": false,
      "t": 11666.662,
      "d": 69.44441666666535,
      "v": 93
    },
    {
      "midi": 70,
      "hit": false,
      "t": 11666.662000000002,
      "d": 2437.499024999999,
      "v": 125
    },
    {
      "midi": 82,
      "hit": false,
      "t": 11666.662000000002,
      "d": 2437.499024999999,
      "v": 125
    },
    {
      "midi": 58,
      "hit": false,
      "t": 12048.606291666665,
      "d": 1874.999249999999,
      "v": 125
    },
    {
      "midi": 58,
      "hit": false,
      "t": 12083.328499999998,
      "d": 840.2774416666671,
      "v": 69
    },
    {
      "midi": 62,
      "hit": false,
      "t": 12083.328499999998,
      "d": 1006.9440416666675,
      "v": 93
    },
    {
      "midi": 48,
      "hit": false,
      "t": 12083.328499999998,
      "d": 1312.4994750000005,
      "v": 105
    },
    {
      "midi": 65,
      "hit": false,
      "t": 12083.328499999998,
      "d": 1312.4994750000005,
      "v": 105
    },
    {
      "midi": 55,
      "hit": false,
      "t": 14131.938791666664,
      "d": 1499.9993999999988,
      "v": 125
    },
    {
      "midi": 67,
      "hit": false,
      "t": 14166.660999999998,
      "d": 340.2776416666675,
      "v": 85
    },
    {
      "midi": 74,
      "hit": false,
      "t": 14166.660999999998,
      "d": 493.0553583333349,
      "v": 81
    },
    {
      "midi": 71,
      "hit": false,
      "t": 14166.660999999998,
      "d": 555.5553333333355,
      "v": 77
    },
    {
      "midi": 43,
      "hit": false,
      "t": 14166.660999999998,
      "d": 1458.3327500000032,
      "v": 73
    },
    {
      "midi": 55,
      "hit": false,
      "t": 14166.660999999998,
      "d": 1458.3327500000032,
      "v": 69
    },
    {
      "midi": 79,
      "hit": false,
      "t": 14222.216533333334,
      "d": 1451.388308333333,
      "v": 113
    },
    {
      "midi": 91,
      "hit": false,
      "t": 14222.216533333334,
      "d": 1451.388308333333,
      "v": 113
    },
    {
      "midi": 67,
      "hit": false,
      "t": 14999.994,
      "d": 145.83327500000087,
      "v": 41
    },
    {
      "midi": 50,
      "hit": false,
      "t": 15590.271541666663,
      "d": 90.27774166666677,
      "v": 105
    },
    {
      "midi": 67,
      "hit": false,
      "t": 15624.993750000001,
      "d": 277.77766666666685,
      "v": 69
    },
    {
      "midi": 79,
      "hit": false,
      "t": 15763.882583333334,
      "d": 354.16652500000055,
      "v": 105
    },
    {
      "midi": 91,
      "hit": false,
      "t": 15763.882583333334,
      "d": 354.16652500000055,
      "v": 105
    },
    {
      "midi": 55,
      "hit": false,
      "t": 15798.604791666663,
      "d": 145.83327500000087,
      "v": 125
    },
    {
      "midi": 43,
      "hit": false,
      "t": 15833.327000000001,
      "d": 83.33330000000024,
      "v": 89
    },
    {
      "midi": 55,
      "hit": false,
      "t": 15833.327000000001,
      "d": 97.2221833333333,
      "v": 73
    },
    {
      "midi": 74,
      "hit": false,
      "t": 15833.327000000001,
      "d": 118.05550833333291,
      "v": 89
    },
    {
      "midi": 71,
      "hit": false,
      "t": 15833.327000000001,
      "d": 124.99994999999944,
      "v": 105
    },
    {
      "midi": 78,
      "hit": false,
      "t": 16111.104666666668,
      "d": 319.44431666666605,
      "v": 125
    },
    {
      "midi": 90,
      "hit": false,
      "t": 16111.104666666668,
      "d": 319.44431666666605,
      "v": 125
    },
    {
      "midi": 55,
      "hit": false,
      "t": 16215.271291666664,
      "d": 784.721908333333,
      "v": 89
    },
    {
      "midi": 67,
      "hit": false,
      "t": 16249.9935,
      "d": 180.55548333333354,
      "v": 65
    },
    {
      "midi": 71,
      "hit": false,
      "t": 16249.9935,
      "d": 243.05545833333235,
      "v": 85
    },
    {
      "midi": 74,
      "hit": false,
      "t": 16249.9935,
      "d": 249.9998999999989,
      "v": 85
    },
    {
      "midi": 55,
      "hit": false,
      "t": 16249.9935,
      "d": 1041.6662499999984,
      "v": 69
    },
    {
      "midi": 43,
      "hit": false,
      "t": 16249.9935,
      "d": 1055.5551333333315,
      "v": 93
    },
    {
      "midi": 76,
      "hit": false,
      "t": 16388.882333333335,
      "d": 277.777666666665,
      "v": 105
    },
    {
      "midi": 88,
      "hit": false,
      "t": 16388.882333333335,
      "d": 277.777666666665,
      "v": 105
    },
    {
      "midi": 67,
      "hit": false,
      "t": 16666.66,
      "d": 229.16657499999928,
      "v": 41
    },
    {
      "midi": 74,
      "hit": false,
      "t": 16666.66,
      "d": 451.38870833333203,
      "v": 85
    },
    {
      "midi": 86,
      "hit": false,
      "t": 16666.66,
      "d": 451.38870833333203,
      "v": 85
    },
    {
      "midi": 71,
      "hit": false,
      "t": 16874.99325,
      "d": 104.16662499999802,
      "v": 69
    },
    {
      "midi": 57,
      "hit": false,
      "t": 17048.604291666663,
      "d": 326.3887583333344,
      "v": 89
    },
    {
      "midi": 67,
      "hit": false,
      "t": 17083.3265,
      "d": 180.55548333333354,
      "v": 65
    },
    {
      "midi": 74,
      "hit": false,
      "t": 17083.3265,
      "d": 180.55548333333354,
      "v": 65
    },
    {
      "midi": 72,
      "hit": false,
      "t": 17118.048708333332,
      "d": 180.55548333333354,
      "v": 121
    },
    {
      "midi": 84,
      "hit": false,
      "t": 17118.048708333332,
      "d": 180.55548333333354,
      "v": 121
    },
    {
      "midi": 55,
      "hit": false,
      "t": 17256.937541666663,
      "d": 138.88883333333433,
      "v": 109
    },
    {
      "midi": 71,
      "hit": false,
      "t": 17326.38195833333,
      "d": 194.4443666666666,
      "v": 77
    },
    {
      "midi": 83,
      "hit": false,
      "t": 17326.38195833333,
      "d": 194.4443666666666,
      "v": 77
    },
    {
      "midi": 54,
      "hit": false,
      "t": 17465.270791666662,
      "d": 1472.2216333333345,
      "v": 125
    },
    {
      "midi": 69,
      "hit": false,
      "t": 17534.71520833333,
      "d": 1583.3327000000027,
      "v": 105
    },
    {
      "midi": 81,
      "hit": false,
      "t": 17534.71520833333,
      "d": 1583.3327000000027,
      "v": 105
    },
    {
      "midi": 62,
      "hit": false,
      "t": 17916.659499999998,
      "d": 201.38880833333315,
      "v": 45
    },
    {
      "midi": 62,
      "hit": false,
      "t": 18333.325999999997,
      "d": 166.66660000000047,
      "v": 49
    },
    {
      "midi": 66,
      "hit": false,
      "t": 18333.325999999997,
      "d": 166.66660000000047,
      "v": 29
    },
    {
      "midi": 69,
      "hit": false,
      "t": 18333.325999999997,
      "d": 208.33324999999968,
      "v": 57
    },
    {
      "midi": 54,
      "hit": false,
      "t": 18333.325999999997,
      "d": 590.2775416666664,
      "v": 37
    },
    {
      "midi": 62,
      "hit": false,
      "t": 18749.992499999997,
      "d": 131.9443916666678,
      "v": 41
    },
    {
      "midi": 71,
      "hit": false,
      "t": 18784.714708333333,
      "d": 298.61099166666827,
      "v": 117
    },
    {
      "midi": 83,
      "hit": false,
      "t": 18784.714708333333,
      "d": 298.61099166666827,
      "v": 117
    },
    {
      "midi": 50,
      "hit": false,
      "t": 18923.603541666664,
      "d": 118.05550833333473,
      "v": 125
    },
    {
      "midi": 62,
      "hit": false,
      "t": 18958.325749999996,
      "d": 41.66664999999921,
      "v": 49
    },
    {
      "midi": 66,
      "hit": false,
      "t": 18958.325749999996,
      "d": 90.27774166666495,
      "v": 57
    },
    {
      "midi": 54,
      "hit": false,
      "t": 19131.936791666663,
      "d": 187.49992500000008,
      "v": 125
    },
    {
      "midi": 62,
      "hit": false,
      "t": 19166.658999999996,
      "d": 69.44441666666535,
      "v": 81
    },
    {
      "midi": 66,
      "hit": false,
      "t": 19166.658999999996,
      "d": 76.38885833333188,
      "v": 93
    },
    {
      "midi": 69,
      "hit": false,
      "t": 19166.658999999996,
      "d": 76.38885833333188,
      "v": 113
    },
    {
      "midi": 54,
      "hit": false,
      "t": 19166.658999999996,
      "d": 83.33329999999842,
      "v": 105
    },
    {
      "midi": 69,
      "hit": false,
      "t": 19215.27009166667,
      "d": 763.8885833333334,
      "v": 117
    },
    {
      "midi": 81,
      "hit": false,
      "t": 19215.27009166667,
      "d": 763.8885833333334,
      "v": 117
    },
    {
      "midi": 54,
      "hit": false,
      "t": 19548.603291666663,
      "d": 736.1108166666672,
      "v": 125
    },
    {
      "midi": 62,
      "hit": false,
      "t": 19583.325499999995,
      "d": 208.33324999999968,
      "v": 77
    },
    {
      "midi": 69,
      "hit": false,
      "t": 19583.325499999995,
      "d": 256.9443416666654,
      "v": 105
    },
    {
      "midi": 66,
      "hit": false,
      "t": 19583.325499999995,
      "d": 284.72210833333156,
      "v": 89
    },
    {
      "midi": 54,
      "hit": false,
      "t": 19583.325499999995,
      "d": 937.4996249999931,
      "v": 125
    },
    {
      "midi": 62,
      "hit": false,
      "t": 19999.991999999995,
      "d": 243.05545833333235,
      "v": 73
    },
    {
      "midi": 71,
      "hit": false,
      "t": 19999.992000000002,
      "d": 319.4443166666679,
      "v": 125
    },
    {
      "midi": 83,
      "hit": false,
      "t": 19999.992000000002,
      "d": 319.4443166666679,
      "v": 125
    },
    {
      "midi": 66,
      "hit": false,
      "t": 20208.325249999994,
      "d": 118.05550833333109,
      "v": 69
    },
    {
      "midi": 69,
      "hit": false,
      "t": 20208.32525,
      "d": 173.611041666667,
      "v": 113
    },
    {
      "midi": 81,
      "hit": false,
      "t": 20208.32525,
      "d": 173.611041666667,
      "v": 113
    },
    {
      "midi": 55,
      "hit": false,
      "t": 20381.936291666665,
      "d": 249.9998999999989,
      "v": 121
    },
    {
      "midi": 67,
      "hit": false,
      "t": 20381.93629166667,
      "d": 222.22213333333275,
      "v": 93
    },
    {
      "midi": 79,
      "hit": false,
      "t": 20381.93629166667,
      "d": 222.22213333333275,
      "v": 93
    },
    {
      "midi": 62,
      "hit": false,
      "t": 20416.65849999999,
      "d": 55.55553333333228,
      "v": 45
    },
    {
      "midi": 69,
      "hit": false,
      "t": 20416.65849999999,
      "d": 83.33329999999842,
      "v": 53
    },
    {
      "midi": 66,
      "hit": false,
      "t": 20555.547333333336,
      "d": 194.4443666666666,
      "v": 113
    },
    {
      "midi": 78,
      "hit": false,
      "t": 20555.547333333336,
      "d": 194.4443666666666,
      "v": 113
    },
    {
      "midi": 54,
      "hit": false,
      "t": 20590.269541666665,
      "d": 173.611041666667,
      "v": 125
    },
    {
      "midi": 52,
      "hit": false,
      "t": 20798.602791666664,
      "d": 1479.166075000001,
      "v": 125
    },
    {
      "midi": 64,
      "hit": false,
      "t": 20798.602791666668,
      "d": 847.2218833333318,
      "v": 109
    },
    {
      "midi": 76,
      "hit": false,
      "t": 20798.602791666668,
      "d": 847.2218833333318,
      "v": 109
    },
    {
      "midi": 64,
      "hit": false,
      "t": 20833.32499999999,
      "d": 208.33324999999968,
      "v": 73
    },
    {
      "midi": 71,
      "hit": false,
      "t": 20833.32499999999,
      "d": 263.88878333333196,
      "v": 93
    },
    {
      "midi": 67,
      "hit": false,
      "t": 20833.32499999999,
      "d": 326.38875833333077,
      "v": 93
    },
    {
      "midi": 52,
      "hit": false,
      "t": 20833.32499999999,
      "d": 1374.9994499999957,
      "v": 97
    },
    {
      "midi": 64,
      "hit": false,
      "t": 21249.991499999986,
      "d": 208.33324999999968,
      "v": 45
    },
    {
      "midi": 66,
      "hit": false,
      "t": 21631.935791666667,
      "d": 909.7218583333306,
      "v": 125
    },
    {
      "midi": 78,
      "hit": false,
      "t": 21631.935791666667,
      "d": 909.7218583333306,
      "v": 125
    },
    {
      "midi": 67,
      "hit": false,
      "t": 21666.657999999985,
      "d": 55.55553333333228,
      "v": 17
    },
    {
      "midi": 47,
      "hit": false,
      "t": 22256.935541666666,
      "d": 124.99995000000126,
      "v": 125
    },
    {
      "midi": 52,
      "hit": false,
      "t": 22465.268791666665,
      "d": 159.72215833333394,
      "v": 121
    },
    {
      "midi": 67,
      "hit": false,
      "t": 22465.268791666665,
      "d": 493.05535833333124,
      "v": 117
    },
    {
      "midi": 79,
      "hit": false,
      "t": 22465.268791666665,
      "d": 493.05535833333124,
      "v": 117
    },
    {
      "midi": 64,
      "hit": false,
      "t": 22499.990999999987,
      "d": 48.61109166666574,
      "v": 49
    },
    {
      "midi": 71,
      "hit": false,
      "t": 22499.990999999987,
      "d": 249.9998999999989,
      "v": 105
    },
    {
      "midi": 52,
      "hit": false,
      "t": 22499.990999999987,
      "d": 1298.6105916666675,
      "v": 105
    },
    {
      "midi": 52,
      "hit": false,
      "t": 22881.935291666665,
      "d": 798.610791666666,
      "v": 117
    },
    {
      "midi": 66,
      "hit": false,
      "t": 22881.935291666665,
      "d": 416.66649999999936,
      "v": 125
    },
    {
      "midi": 78,
      "hit": false,
      "t": 22881.935291666665,
      "d": 416.66649999999936,
      "v": 125
    },
    {
      "midi": 69,
      "hit": false,
      "t": 22916.657499999987,
      "d": 291.66655000000173,
      "v": 121
    },
    {
      "midi": 64,
      "hit": false,
      "t": 23298.601791666664,
      "d": 416.66649999999936,
      "v": 97
    },
    {
      "midi": 76,
      "hit": false,
      "t": 23298.601791666664,
      "d": 416.66649999999936,
      "v": 97
    },
    {
      "midi": 67,
      "hit": false,
      "t": 23333.32399999999,
      "d": 437.49982499999896,
      "v": 125
    },
    {
      "midi": 50,
      "hit": false,
      "t": 23715.268291666664,
      "d": 402.7776166666663,
      "v": 125
    },
    {
      "midi": 62,
      "hit": false,
      "t": 23715.268291666664,
      "d": 416.66649999999936,
      "v": 105
    },
    {
      "midi": 74,
      "hit": false,
      "t": 23715.268291666664,
      "d": 416.66649999999936,
      "v": 105
    },
    {
      "midi": 66,
      "hit": false,
      "t": 23749.99049999999,
      "d": 62.49997499999881,
      "v": 125
    },
    {
      "midi": 48,
      "hit": false,
      "t": 24131.934791666663,
      "d": 798.610791666666,
      "v": 125
    },
    {
      "midi": 60,
      "hit": false,
      "t": 24131.934791666663,
      "d": 840.2774416666653,
      "v": 93
    },
    {
      "midi": 72,
      "hit": false,
      "t": 24131.934791666663,
      "d": 840.2774416666653,
      "v": 93
    },
    {
      "midi": 60,
      "hit": false,
      "t": 24166.656999999985,
      "d": 222.22213333333275,
      "v": 97
    },
    {
      "midi": 67,
      "hit": false,
      "t": 24166.656999999985,
      "d": 263.88878333333196,
      "v": 105
    },
    {
      "midi": 64,
      "hit": false,
      "t": 24166.656999999985,
      "d": 347.2220833333304,
      "v": 113
    },
    {
      "midi": 48,
      "hit": false,
      "t": 24166.656999999985,
      "d": 951.3885083333262,
      "v": 85
    },
    {
      "midi": 60,
      "hit": false,
      "t": 24583.32349999998,
      "d": 76.38885833333188,
      "v": 17
    },
    {
      "midi": 70,
      "hit": false,
      "t": 24895.823374999996,
      "d": 2124.9991499999996,
      "v": 117
    },
    {
      "midi": 82,
      "hit": false,
      "t": 24895.823374999996,
      "d": 2124.9991499999996,
      "v": 117
    },
    {
      "midi": 60,
      "hit": false,
      "t": 24965.26779166666,
      "d": 506.9442416666643,
      "v": 125
    },
    {
      "midi": 64,
      "hit": false,
      "t": 24999.98999999998,
      "d": 41.66664999999921,
      "v": 113
    },
    {
      "midi": 67,
      "hit": false,
      "t": 24999.98999999998,
      "d": 48.61109166666574,
      "v": 117
    },
    {
      "midi": 60,
      "hit": false,
      "t": 24999.98999999998,
      "d": 55.55553333333228,
      "v": 105
    },
    {
      "midi": 58,
      "hit": false,
      "t": 25381.93429166666,
      "d": 1909.7214583333298,
      "v": 125
    },
    {
      "midi": 65,
      "hit": false,
      "t": 25416.65649999998,
      "d": 1784.7215083333322,
      "v": 113
    },
    {
      "midi": 58,
      "hit": false,
      "t": 25416.65649999998,
      "d": 1791.6659499999987,
      "v": 81
    },
    {
      "midi": 62,
      "hit": false,
      "t": 25416.65649999998,
      "d": 1791.6659499999987,
      "v": 97
    },
    {
      "midi": 48,
      "hit": false,
      "t": 25416.65649999998,
      "d": 1805.5548333333318,
      "v": 97
    },
    {
      "midi": 55,
      "hit": false,
      "t": 27465.266791666658,
      "d": 1402.7772166666655,
      "v": 109
    },
    {
      "midi": 67,
      "hit": false,
      "t": 27499.988999999976,
      "d": 263.88878333333196,
      "v": 69
    },
    {
      "midi": 74,
      "hit": false,
      "t": 27499.988999999976,
      "d": 298.61099166666463,
      "v": 65
    },
    {
      "midi": 71,
      "hit": false,
      "t": 27499.988999999976,
      "d": 354.1665249999969,
      "v": 65
    },
    {
      "midi": 43,
      "hit": false,
      "t": 27499.988999999976,
      "d": 2694.4433666666628,
      "v": 81
    },
    {
      "midi": 55,
      "hit": false,
      "t": 27499.988999999976,
      "d": 2888.8877333333294,
      "v": 57
    },
    {
      "midi": 50,
      "hit": false,
      "t": 28923.599541666656,
      "d": 208.33324999999968,
      "v": 77
    },
    {
      "midi": 55,
      "hit": false,
      "t": 29131.932791666655,
      "d": 118.05550833333473,
      "v": 93
    },
    {
      "midi": 67,
      "hit": false,
      "t": 29166.654999999973,
      "d": 104.16662500000166,
      "v": 57
    },
    {
      "midi": 71,
      "hit": false,
      "t": 29166.654999999973,
      "d": 173.611041666667,
      "v": 57
    },
    {
      "midi": 74,
      "hit": false,
      "t": 29166.654999999973,
      "d": 180.55548333333354,
      "v": 33
    },
    {
      "midi": 55,
      "hit": false,
      "t": 29548.59929166666,
      "d": 701.3886083333346,
      "v": 121
    },
    {
      "midi": 67,
      "hit": false,
      "t": 29583.321499999973,
      "d": 173.611041666667,
      "v": 33
    },
    {
      "midi": 67,
      "hit": false,
      "t": 29999.987999999972,
      "d": 111.1110666666682,
      "v": 53
    },
    {
      "midi": 74,
      "hit": false,
      "t": 29999.987999999972,
      "d": 180.55548333333354,
      "v": 61
    },
    {
      "midi": 72,
      "hit": false,
      "t": 30208.32124999997,
      "d": 138.88883333333433,
      "v": 49
    },
    {
      "midi": 55,
      "hit": false,
      "t": 30381.93229166666,
      "d": 256.9443416666654,
      "v": 85
    },
    {
      "midi": 71,
      "hit": false,
      "t": 30416.65449999997,
      "d": 41.66664999999921,
      "v": 81
    },
    {
      "midi": 54,
      "hit": false,
      "t": 30798.59879166666,
      "d": 1479.166075000001,
      "v": 125
    },
    {
      "midi": 62,
      "hit": false,
      "t": 30833.32099999997,
      "d": 312.49987500000134,
      "v": 57
    },
    {
      "midi": 69,
      "hit": false,
      "t": 30833.32099999997,
      "d": 368.0554083333336,
      "v": 49
    },
    {
      "midi": 66,
      "hit": false,
      "t": 30833.32099999997,
      "d": 430.55538333333243,
      "v": 61
    },
    {
      "midi": 54,
      "hit": false,
      "t": 30833.32099999997,
      "d": 2881.943291666659,
      "v": 61
    },
    {
      "midi": 69,
      "hit": false,
      "t": 32083.32049999997,
      "d": 76.38885833333188,
      "v": 61
    },
    {
      "midi": 62,
      "hit": false,
      "t": 32083.32049999997,
      "d": 90.27774166666495,
      "v": 65
    },
    {
      "midi": 66,
      "hit": false,
      "t": 32083.32049999997,
      "d": 111.11106666666456,
      "v": 69
    },
    {
      "midi": 50,
      "hit": false,
      "t": 32256.93154166666,
      "d": 173.611041666667,
      "v": 113
    },
    {
      "midi": 54,
      "hit": false,
      "t": 32465.26479166666,
      "d": 104.16662500000166,
      "v": 125
    },
    {
      "midi": 62,
      "hit": false,
      "t": 32499.98699999997,
      "d": 145.83327500000087,
      "v": 69
    },
    {
      "midi": 67,
      "hit": false,
      "t": 32499.98699999997,
      "d": 249.99990000000253,
      "v": 77
    },
    {
      "midi": 54,
      "hit": false,
      "t": 32881.93129166666,
      "d": 701.3886083333346,
      "v": 125
    },
    {
      "midi": 62,
      "hit": false,
      "t": 33333.31999999997,
      "d": 138.8888333333307,
      "v": 53
    },
    {
      "midi": 66,
      "hit": false,
      "t": 33333.31999999997,
      "d": 208.33324999999604,
      "v": 105
    },
    {
      "midi": 54,
      "hit": false,
      "t": 33715.26429166666,
      "d": 159.7221583333303,
      "v": 121
    },
    {
      "midi": 52,
      "hit": false,
      "t": 34131.93079166666,
      "d": 1388.888333333336,
      "v": 125
    },
    {
      "midi": 64,
      "hit": false,
      "t": 34166.65299999996,
      "d": 159.7221583333303,
      "v": 73
    },
    {
      "midi": 71,
      "hit": false,
      "t": 34166.65299999996,
      "d": 229.16657499999565,
      "v": 93
    },
    {
      "midi": 67,
      "hit": false,
      "t": 34166.65299999996,
      "d": 277.7776666666614,
      "v": 69
    },
    {
      "midi": 52,
      "hit": false,
      "t": 34166.65299999996,
      "d": 3194.4431666666496,
      "v": 69
    },
    {
      "midi": 64,
      "hit": false,
      "t": 34583.319499999954,
      "d": 187.49992499999644,
      "v": 33
    },
    {
      "midi": 64,
      "hit": false,
      "t": 35416.65249999995,
      "d": 145.83327499999723,
      "v": 57
    },
    {
      "midi": 71,
      "hit": false,
      "t": 35416.65249999995,
      "d": 201.3888083333295,
      "v": 69
    },
    {
      "midi": 47,
      "hit": false,
      "t": 35590.26354166666,
      "d": 173.61104166666337,
      "v": 97
    },
    {
      "midi": 52,
      "hit": false,
      "t": 35798.596791666656,
      "d": 145.83327499999723,
      "v": 121
    },
    {
      "midi": 69,
      "hit": false,
      "t": 35833.31899999995,
      "d": 347.222083333334,
      "v": 105
    },
    {
      "midi": 52,
      "hit": false,
      "t": 36215.263291666655,
      "d": 659.7219583333354,
      "v": 125
    },
    {
      "midi": 69,
      "hit": false,
      "t": 36249.98549999995,
      "d": 13.88888333333307,
      "v": 5
    },
    {
      "midi": 67,
      "hit": false,
      "t": 36249.98549999995,
      "d": 499.9997999999978,
      "v": 105
    },
    {
      "midi": 66,
      "hit": false,
      "t": 36666.65199999995,
      "d": 451.38870833333203,
      "v": 125
    },
    {
      "midi": 52,
      "hit": false,
      "t": 37048.596291666654,
      "d": 374.99985000000015,
      "v": 121
    },
    {
      "midi": 64,
      "hit": false,
      "t": 37083.31849999995,
      "d": 111.11106666666456,
      "v": 57
    },
    {
      "midi": 48,
      "hit": false,
      "t": 37465.26279166665,
      "d": 736.1108166666672,
      "v": 117
    },
    {
      "midi": 60,
      "hit": false,
      "t": 37499.98499999994,
      "d": 256.94434166666906,
      "v": 73
    },
    {
      "midi": 67,
      "hit": false,
      "t": 37499.98499999994,
      "d": 326.3887583333344,
      "v": 81
    },
    {
      "midi": 64,
      "hit": false,
      "t": 37499.98499999994,
      "d": 368.0554083333336,
      "v": 85
    },
    {
      "midi": 48,
      "hit": false,
      "t": 37499.98499999994,
      "d": 979.166274999996,
      "v": 61
    },
    {
      "midi": 60,
      "hit": false,
      "t": 37916.65149999994,
      "d": 76.38885833333188,
      "v": 33
    },
    {
      "midi": 60,
      "hit": false,
      "t": 38298.59579166665,
      "d": 222.2221333333364,
      "v": 125
    },
    {
      "midi": 64,
      "hit": false,
      "t": 38333.31799999994,
      "d": 34.722208333332674,
      "v": 81
    },
    {
      "midi": 60,
      "hit": false,
      "t": 38333.31799999994,
      "d": 48.61109166666574,
      "v": 77
    },
    {
      "midi": 67,
      "hit": false,
      "t": 38333.31799999994,
      "d": 48.61109166666574,
      "v": 81
    },
    {
      "midi": 70,
      "hit": false,
      "t": 38361.095766666665,
      "d": 1972.2214333333322,
      "v": 117
    },
    {
      "midi": 58,
      "hit": false,
      "t": 38715.26229166666,
      "d": 1930.554783333333,
      "v": 125
    },
    {
      "midi": 58,
      "hit": false,
      "t": 38749.98449999993,
      "d": 208.33324999999604,
      "v": 45
    },
    {
      "midi": 62,
      "hit": false,
      "t": 38749.98449999993,
      "d": 555.55533333333,
      "v": 109
    },
    {
      "midi": 65,
      "hit": false,
      "t": 38749.98449999993,
      "d": 555.55533333333,
      "v": 121
    },
    {
      "midi": 48,
      "hit": false,
      "t": 38749.98449999993,
      "d": 1368.0550083333292,
      "v": 89
    },
    {
      "midi": 58,
      "hit": false,
      "t": 39583.31749999993,
      "d": 291.66655000000173,
      "v": 25
    },
    {
      "midi": 58,
      "hit": false,
      "t": 39999.98399999993,
      "d": 76.38885833333188,
      "v": 1
    },
    {
      "midi": 65,
      "hit": false,
      "t": 39999.98399999993,
      "d": 326.3887583333344,
      "v": 89
    },
    {
      "midi": 62,
      "hit": false,
      "t": 39999.98399999993,
      "d": 402.7776166666663,
      "v": 93
    },
    {
      "midi": 58,
      "hit": false,
      "t": 40416.65049999993,
      "d": 41.66664999999921,
      "v": 41
    },
    {
      "midi": 55,
      "hit": false,
      "t": 40798.594791666656,
      "d": 1409.7216583333357,
      "v": 113
    },
    {
      "midi": 67,
      "hit": false,
      "t": 40833.31699999993,
      "d": 347.222083333334,
      "v": 85
    },
    {
      "midi": 74,
      "hit": false,
      "t": 40833.31699999993,
      "d": 395.83317499999976,
      "v": 85
    },
    {
      "midi": 71,
      "hit": false,
      "t": 40833.31699999993,
      "d": 458.33314999999857,
      "v": 97
    },
    {
      "midi": 43,
      "hit": false,
      "t": 40833.31699999993,
      "d": 2715.2766916666587,
      "v": 93
    },
    {
      "midi": 55,
      "hit": false,
      "t": 40833.31699999993,
      "d": 2888.887733333322,
      "v": 69
    },
    {
      "midi": 67,
      "hit": false,
      "t": 41666.64999999993,
      "d": 173.61104166666337,
      "v": 41
    },
    {
      "midi": 84,
      "hit": false,
      "t": 42083.3165,
      "d": 222.2221333333364,
      "v": 117
    },
    {
      "midi": 50,
      "hit": false,
      "t": 42256.92754166666,
      "d": 138.8888333333307,
      "v": 97
    },
    {
      "midi": 83,
      "hit": false,
      "t": 42291.649750000004,
      "d": 277.77766666666867,
      "v": 125
    },
    {
      "midi": 55,
      "hit": false,
      "t": 42465.26079166665,
      "d": 104.16662499999802,
      "v": 105
    },
    {
      "midi": 67,
      "hit": false,
      "t": 42499.98299999993,
      "d": 90.27774166666495,
      "v": 61
    },
    {
      "midi": 71,
      "hit": false,
      "t": 42499.98299999993,
      "d": 187.49992499999644,
      "v": 69
    },
    {
      "midi": 74,
      "hit": false,
      "t": 42499.98299999993,
      "d": 194.44436666666297,
      "v": 69
    },
    {
      "midi": 84,
      "hit": false,
      "t": 42499.98300000001,
      "d": 243.05545833332872,
      "v": 125
    },
    {
      "midi": 86,
      "hit": false,
      "t": 42708.31625,
      "d": 1847.2214833333346,
      "v": 105
    },
    {
      "midi": 55,
      "hit": false,
      "t": 42881.92729166665,
      "d": 701.3886083333346,
      "v": 105
    },
    {
      "midi": 67,
      "hit": false,
      "t": 42916.64949999993,
      "d": 118.05550833333109,
      "v": 5
    },
    {
      "midi": 67,
      "hit": false,
      "t": 43333.315999999926,
      "d": 124.99994999999763,
      "v": 57
    },
    {
      "midi": 72,
      "hit": false,
      "t": 43333.315999999926,
      "d": 249.99989999999525,
      "v": 65
    },
    {
      "midi": 71,
      "hit": false,
      "t": 43541.64924999992,
      "d": 222.2221333333291,
      "v": 57
    },
    {
      "midi": 55,
      "hit": false,
      "t": 43715.26029166665,
      "d": 229.16657500000292,
      "v": 113
    },
    {
      "midi": 69,
      "hit": false,
      "t": 43749.98249999992,
      "d": 55.55553333333228,
      "v": 77
    },
    {
      "midi": 54,
      "hit": false,
      "t": 44131.92679166665,
      "d": 1437.4994250000018,
      "v": 125
    },
    {
      "midi": 62,
      "hit": false,
      "t": 44166.64899999992,
      "d": 256.94434166666906,
      "v": 81
    },
    {
      "midi": 69,
      "hit": false,
      "t": 44166.64899999992,
      "d": 291.66655000000173,
      "v": 93
    },
    {
      "midi": 66,
      "hit": false,
      "t": 44166.64899999992,
      "d": 381.9442916666667,
      "v": 69
    },
    {
      "midi": 54,
      "hit": false,
      "t": 44166.64899999992,
      "d": 3097.220983333318,
      "v": 85
    },
    {
      "midi": 62,
      "hit": false,
      "t": 44999.981999999916,
      "d": 222.2221333333364,
      "v": 41
    },
    {
      "midi": 69,
      "hit": false,
      "t": 45416.64849999992,
      "d": 76.38885833333188,
      "v": 49
    },
    {
      "midi": 62,
      "hit": false,
      "t": 45416.64849999992,
      "d": 118.05550833333109,
      "v": 49
    },
    {
      "midi": 66,
      "hit": false,
      "t": 45416.64849999992,
      "d": 124.99994999999763,
      "v": 69
    },
    {
      "midi": 81,
      "hit": false,
      "t": 45416.6485,
      "d": 187.49992499999644,
      "v": 121
    },
    {
      "midi": 50,
      "hit": false,
      "t": 45590.25954166665,
      "d": 180.5554833333299,
      "v": 121
    },
    {
      "midi": 83,
      "hit": false,
      "t": 45624.98175,
      "d": 173.61104166666337,
      "v": 121
    },
    {
      "midi": 54,
      "hit": false,
      "t": 45798.59279166665,
      "d": 131.94439166666416,
      "v": 125
    },
    {
      "midi": 66,
      "hit": false,
      "t": 45833.31499999992,
      "d": 55.55553333333228,
      "v": 57
    },
    {
      "midi": 69,
      "hit": false,
      "t": 45833.31499999992,
      "d": 180.5554833333299,
      "v": 69
    },
    {
      "midi": 62,
      "hit": false,
      "t": 45833.31499999992,
      "d": 243.05545833332872,
      "v": 69
    },
    {
      "midi": 90,
      "hit": false,
      "t": 45833.314999999995,
      "d": 1604.1660249999986,
      "v": 125
    },
    {
      "midi": 83,
      "hit": false,
      "t": 45833.314999999995,
      "d": 1611.1104666666652,
      "v": 125
    },
    {
      "midi": 54,
      "hit": false,
      "t": 46215.25929166665,
      "d": 680.555283333335,
      "v": 125
    },
    {
      "midi": 62,
      "hit": false,
      "t": 46249.981499999914,
      "d": 76.38885833333188,
      "v": 49
    },
    {
      "midi": 62,
      "hit": false,
      "t": 46666.647999999914,
      "d": 173.61104166666337,
      "v": 73
    },
    {
      "midi": 67,
      "hit": false,
      "t": 46666.647999999914,
      "d": 270.83322499999485,
      "v": 81
    },
    {
      "midi": 54,
      "hit": false,
      "t": 47048.592291666646,
      "d": 243.055458333336,
      "v": 125
    },
    {
      "midi": 62,
      "hit": false,
      "t": 47083.314499999906,
      "d": 55.55553333333228,
      "v": 65
    },
    {
      "midi": 66,
      "hit": false,
      "t": 47083.314499999906,
      "d": 69.44441666666535,
      "v": 117
    },
    {
      "midi": 52,
      "hit": false,
      "t": 47465.258791666645,
      "d": 1430.5549833333353,
      "v": 125
    },
    {
      "midi": 64,
      "hit": false,
      "t": 47499.9809999999,
      "d": 187.49992499999644,
      "v": 93
    },
    {
      "midi": 71,
      "hit": false,
      "t": 47499.9809999999,
      "d": 256.9443416666618,
      "v": 105
    },
    {
      "midi": 67,
      "hit": false,
      "t": 47499.9809999999,
      "d": 333.33319999999367,
      "v": 97
    },
    {
      "midi": 52,
      "hit": false,
      "t": 47499.9809999999,
      "d": 3256.9431416666484,
      "v": 77
    },
    {
      "midi": 64,
      "hit": false,
      "t": 47916.64749999989,
      "d": 159.7221583333303,
      "v": 29
    },
    {
      "midi": 64,
      "hit": false,
      "t": 48333.31399999989,
      "d": 83.33329999999842,
      "v": 33
    },
    {
      "midi": 66,
      "hit": false,
      "t": 48749.98049999989,
      "d": 215.27769166666985,
      "v": 125
    },
    {
      "midi": 78,
      "hit": false,
      "t": 48749.98049999999,
      "d": 222.2221333333364,
      "v": 125
    },
    {
      "midi": 47,
      "hit": false,
      "t": 48923.59154166665,
      "d": 159.7221583333303,
      "v": 113
    },
    {
      "midi": 79,
      "hit": false,
      "t": 48958.313749999994,
      "d": 145.83327499999723,
      "v": 109
    },
    {
      "midi": 53,
      "hit": false,
      "t": 49131.92479166664,
      "d": 27.77776666666614,
      "v": 105
    },
    {
      "midi": 52,
      "hit": false,
      "t": 49131.92479166664,
      "d": 104.16662499999802,
      "v": 105
    },
    {
      "midi": 64,
      "hit": false,
      "t": 49166.646999999895,
      "d": 173.61104166666337,
      "v": 93
    },
    {
      "midi": 67,
      "hit": false,
      "t": 49166.646999999895,
      "d": 319.4443166666606,
      "v": 101
    },
    {
      "midi": 88,
      "hit": false,
      "t": 49166.64699999999,
      "d": 1354.1661250000034,
      "v": 125
    },
    {
      "midi": 79,
      "hit": false,
      "t": 49166.64699999999,
      "d": 1423.6105416666687,
      "v": 105
    },
    {
      "midi": 52,
      "hit": false,
      "t": 49548.59129166664,
      "d": 638.8886333333357,
      "v": 121
    },
    {
      "midi": 64,
      "hit": false,
      "t": 49583.31349999989,
      "d": 166.66659999999683,
      "v": 45
    },
    {
      "midi": 64,
      "hit": false,
      "t": 49999.97999999989,
      "d": 131.94439166666416,
      "v": 73
    },
    {
      "midi": 69,
      "hit": false,
      "t": 49999.97999999989,
      "d": 291.66654999999446,
      "v": 93
    },
    {
      "midi": 52,
      "hit": false,
      "t": 50381.92429166665,
      "d": 416.66649999999936,
      "v": 125
    },
    {
      "midi": 64,
      "hit": false,
      "t": 50416.64649999988,
      "d": 76.38885833333188,
      "v": 81
    },
    {
      "midi": 48,
      "hit": false,
      "t": 50798.59079166665,
      "d": 798.610791666666,
      "v": 125
    },
    {
      "midi": 60,
      "hit": false,
      "t": 50833.31299999988,
      "d": 229.16657500000292,
      "v": 81
    },
    {
      "midi": 67,
      "hit": false,
      "t": 50833.31299999988,
      "d": 319.4443166666679,
      "v": 113
    },
    {
      "midi": 64,
      "hit": false,
      "t": 50833.31299999988,
      "d": 354.16652500000055,
      "v": 105
    },
    {
      "midi": 48,
      "hit": false,
      "t": 50833.31299999988,
      "d": 1048.6106916666613,
      "v": 65
    },
    {
      "midi": 60,
      "hit": false,
      "t": 51249.97949999988,
      "d": 90.27774166666495,
      "v": 37
    },
    {
      "midi": 60,
      "hit": false,
      "t": 51631.923791666646,
      "d": 243.055458333336,
      "v": 125
    },
    {
      "midi": 64,
      "hit": false,
      "t": 51666.64599999988,
      "d": 34.722208333332674,
      "v": 69
    },
    {
      "midi": 67,
      "hit": false,
      "t": 51666.64599999988,
      "d": 41.66664999999921,
      "v": 93
    },
    {
      "midi": 60,
      "hit": false,
      "t": 51666.64599999988,
      "d": 55.55553333333228,
      "v": 105
    },
    {
      "midi": 84,
      "hit": false,
      "t": 51666.64599999999,
      "d": 62.49997499999881,
      "v": 117
    },
    {
      "midi": 91,
      "hit": false,
      "t": 51666.64599999999,
      "d": 62.49997499999881,
      "v": 121
    },
    {
      "midi": 88,
      "hit": false,
      "t": 51666.64599999999,
      "d": 76.38885833333188,
      "v": 125
    },
    {
      "midi": 58,
      "hit": false,
      "t": 52048.590291666645,
      "d": 1833.3326000000015,
      "v": 125
    },
    {
      "midi": 62,
      "hit": false,
      "t": 52083.31249999987,
      "d": 1479.166075000001,
      "v": 93
    },
    {
      "midi": 65,
      "hit": false,
      "t": 52083.31249999987,
      "d": 1479.166075000001,
      "v": 93
    },
    {
      "midi": 48,
      "hit": false,
      "t": 52083.31249999987,
      "d": 1493.054958333334,
      "v": 105
    },
    {
      "midi": 58,
      "hit": false,
      "t": 52083.31249999987,
      "d": 1506.9438416666671,
      "v": 89
    },
    {
      "midi": 89,
      "hit": false,
      "t": 52083.31249999999,
      "d": 1680.5548833333305,
      "v": 117
    },
    {
      "midi": 82,
      "hit": false,
      "t": 52083.31249999999,
      "d": 1687.499324999997,
      "v": 69
    },
    {
      "midi": 86,
      "hit": false,
      "t": 52083.31249999999,
      "d": 1687.499324999997,
      "v": 89
    },
    {
      "midi": 50,
      "hit": false,
      "t": 54159.700558333316,
      "d": 1673.610441666664,
      "v": 125
    },
    {
      "midi": 62,
      "hit": false,
      "t": 54166.644999999866,
      "d": 284.7221083333352,
      "v": 61
    },
    {
      "midi": 69,
      "hit": false,
      "t": 54166.644999999866,
      "d": 354.16652500000055,
      "v": 77
    },
    {
      "midi": 66,
      "hit": false,
      "t": 54166.644999999866,
      "d": 361.1109666666671,
      "v": 73
    },
    {
      "midi": 74,
      "hit": false,
      "t": 54166.64499999999,
      "d": 1715.2770916666632,
      "v": 109
    },
    {
      "midi": 38,
      "hit": false,
      "t": 54201.3672083332,
      "d": 951.3885083333298,
      "v": 65
    },
    {
      "midi": 50,
      "hit": false,
      "t": 54201.3672083332,
      "d": 951.3885083333298,
      "v": 57
    },
    {
      "midi": 62,
      "hit": false,
      "t": 54597.2003833332,
      "d": 69.44441666666535,
      "v": 13
    },
    {
      "midi": 62,
      "hit": false,
      "t": 55006.92244166653,
      "d": 243.05545833332872,
      "v": 65
    },
    {
      "midi": 66,
      "hit": false,
      "t": 55006.92244166653,
      "d": 270.83322499999485,
      "v": 81
    },
    {
      "midi": 69,
      "hit": false,
      "t": 55013.8668833332,
      "d": 270.83322499999485,
      "v": 69
    },
    {
      "midi": 51,
      "hit": false,
      "t": 55791.64434999998,
      "d": 1555.5549333333329,
      "v": 125
    },
    {
      "midi": 75,
      "hit": false,
      "t": 55819.422116666654,
      "d": 1548.6104916666663,
      "v": 125
    },
    {
      "midi": 66,
      "hit": false,
      "t": 55840.25544166652,
      "d": 388.8887333333332,
      "v": 81
    },
    {
      "midi": 63,
      "hit": false,
      "t": 55840.25544166652,
      "d": 409.7220583333328,
      "v": 77
    },
    {
      "midi": 59,
      "hit": false,
      "t": 55847.19988333319,
      "d": 263.8887833333356,
      "v": 57
    },
    {
      "midi": 51,
      "hit": false,
      "t": 55861.08876666652,
      "d": 958.3329499999963,
      "v": 33
    },
    {
      "midi": 39,
      "hit": false,
      "t": 55861.08876666652,
      "d": 979.166274999996,
      "v": 69
    },
    {
      "midi": 59,
      "hit": false,
      "t": 56256.92194166652,
      "d": 76.38885833333188,
      "v": 45
    },
    {
      "midi": 59,
      "hit": false,
      "t": 56652.75511666652,
      "d": 229.16657499999565,
      "v": 93
    },
    {
      "midi": 66,
      "hit": false,
      "t": 56652.75511666652,
      "d": 395.8331749999925,
      "v": 89
    },
    {
      "midi": 63,
      "hit": false,
      "t": 56652.75511666652,
      "d": 402.777616666659,
      "v": 97
    },
    {
      "midi": 59,
      "hit": false,
      "t": 57069.421616666514,
      "d": 97.22218333333149,
      "v": 49
    },
    {
      "midi": 40,
      "hit": false,
      "t": 57479.14367499985,
      "d": 1520.832724999993,
      "v": 57
    },
    {
      "midi": 52,
      "hit": false,
      "t": 57479.14367499998,
      "d": 1583.332699999999,
      "v": 93
    },
    {
      "midi": 76,
      "hit": false,
      "t": 57486.08811666665,
      "d": 3229.165374999997,
      "v": 125
    },
    {
      "midi": 64,
      "hit": false,
      "t": 57493.03255833318,
      "d": 256.94434166666906,
      "v": 57
    },
    {
      "midi": 71,
      "hit": false,
      "t": 57493.03255833318,
      "d": 305.5554333333348,
      "v": 65
    },
    {
      "midi": 67,
      "hit": false,
      "t": 57493.03255833318,
      "d": 361.1109666666671,
      "v": 77
    },
    {
      "midi": 52,
      "hit": false,
      "t": 57493.03255833318,
      "d": 1409.7216583333284,
      "v": 37
    },
    {
      "midi": 64,
      "hit": false,
      "t": 57923.58794166651,
      "d": 270.83322500000213,
      "v": 49
    },
    {
      "midi": 67,
      "hit": false,
      "t": 58131.921191666515,
      "d": 97.22218333333149,
      "v": 61
    },
    {
      "midi": 71,
      "hit": false,
      "t": 58319.42111666651,
      "d": 374.99985000000015,
      "v": 85
    },
    {
      "midi": 64,
      "hit": false,
      "t": 58333.309999999845,
      "d": 194.44436666667025,
      "v": 77
    },
    {
      "midi": 67,
      "hit": false,
      "t": 58333.309999999845,
      "d": 249.99990000000253,
      "v": 65
    },
    {
      "midi": 64,
      "hit": false,
      "t": 58743.03205833318,
      "d": 48.61109166666574,
      "v": 57
    },
    {
      "midi": 45,
      "hit": false,
      "t": 59076.36525833331,
      "d": 888.888533333331,
      "v": 125
    },
    {
      "midi": 64,
      "hit": false,
      "t": 59152.7541166665,
      "d": 368.0554083333336,
      "v": 69
    },
    {
      "midi": 60,
      "hit": false,
      "t": 59152.7541166665,
      "d": 409.7220583333328,
      "v": 65
    },
    {
      "midi": 57,
      "hit": false,
      "t": 59166.642999999836,
      "d": 243.055458333336,
      "v": 65
    },
    {
      "midi": 45,
      "hit": false,
      "t": 59166.642999999836,
      "d": 763.8885833333334,
      "v": 61
    },
    {
      "midi": 57,
      "hit": false,
      "t": 59569.4206166665,
      "d": 62.49997499999881,
      "v": 41
    },
    {
      "midi": 47,
      "hit": false,
      "t": 59930.53158333331,
      "d": 763.8885833333334,
      "v": 125
    },
    {
      "midi": 62,
      "hit": false,
      "t": 60013.86488333317,
      "d": 312.49987500000134,
      "v": 77
    },
    {
      "midi": 55,
      "hit": false,
      "t": 60027.7537666665,
      "d": 208.33325000000332,
      "v": 81
    },
    {
      "midi": 59,
      "hit": false,
      "t": 60027.7537666665,
      "d": 354.16652500000055,
      "v": 69
    },
    {
      "midi": 47,
      "hit": false,
      "t": 60034.69820833317,
      "d": 361.1109666666671,
      "v": 73
    },
    {
      "midi": 55,
      "hit": false,
      "t": 60416.642499999834,
      "d": 55.55553333333228,
      "v": 41
    },
    {
      "midi": 50,
      "hit": false,
      "t": 60777.75346666664,
      "d": 1131.943991666667,
      "v": 121
    },
    {
      "midi": 74,
      "hit": false,
      "t": 60791.64234999998,
      "d": 1569.443816666666,
      "v": 93
    },
    {
      "midi": 62,
      "hit": false,
      "t": 60854.14232499983,
      "d": 236.11101666666946,
      "v": 61
    },
    {
      "midi": 69,
      "hit": false,
      "t": 60854.14232499983,
      "d": 305.5554333333348,
      "v": 69
    },
    {
      "midi": 66,
      "hit": false,
      "t": 60854.14232499983,
      "d": 333.33320000000094,
      "v": 57
    },
    {
      "midi": 38,
      "hit": false,
      "t": 60868.03120833317,
      "d": 1020.8329249999952,
      "v": 57
    },
    {
      "midi": 50,
      "hit": false,
      "t": 60874.97564999983,
      "d": 1034.7218083333282,
      "v": 41
    },
    {
      "midi": 62,
      "hit": false,
      "t": 61270.80882499983,
      "d": 263.8887833333283,
      "v": 53
    },
    {
      "midi": 66,
      "hit": false,
      "t": 61458.30874999983,
      "d": 104.16662499999802,
      "v": 37
    },
    {
      "midi": 69,
      "hit": false,
      "t": 61666.641999999825,
      "d": 291.66655000000173,
      "v": 73
    },
    {
      "midi": 62,
      "hit": false,
      "t": 61680.53088333316,
      "d": 194.44436666667025,
      "v": 61
    },
    {
      "midi": 66,
      "hit": false,
      "t": 61680.53088333316,
      "d": 277.77766666666867,
      "v": 93
    },
    {
      "midi": 50,
      "hit": false,
      "t": 62027.75296666664,
      "d": 388.8887333333332,
      "v": 125
    },
    {
      "midi": 62,
      "hit": false,
      "t": 62069.41961666649,
      "d": 62.49997499999881,
      "v": 57
    },
    {
      "midi": 51,
      "hit": false,
      "t": 62451.363908333304,
      "d": 1562.4993749999994,
      "v": 117
    },
    {
      "midi": 75,
      "hit": false,
      "t": 62472.19723333331,
      "d": 1597.221583333332,
      "v": 117
    },
    {
      "midi": 63,
      "hit": false,
      "t": 62493.03055833316,
      "d": 305.5554333333348,
      "v": 89
    },
    {
      "midi": 66,
      "hit": false,
      "t": 62493.03055833316,
      "d": 333.33320000000094,
      "v": 65
    },
    {
      "midi": 59,
      "hit": false,
      "t": 62506.91944166649,
      "d": 222.2221333333364,
      "v": 53
    },
    {
      "midi": 39,
      "hit": false,
      "t": 62506.91944166649,
      "d": 951.3885083333298,
      "v": 69
    },
    {
      "midi": 51,
      "hit": false,
      "t": 62506.91944166649,
      "d": 951.3885083333298,
      "v": 77
    },
    {
      "midi": 59,
      "hit": false,
      "t": 62888.86373333316,
      "d": 180.5554833333299,
      "v": 41
    },
    {
      "midi": 59,
      "hit": false,
      "t": 63312.47467499982,
      "d": 229.16657499999565,
      "v": 65
    },
    {
      "midi": 63,
      "hit": false,
      "t": 63312.47467499982,
      "d": 354.16652499999327,
      "v": 89
    },
    {
      "midi": 66,
      "hit": false,
      "t": 63312.47467499982,
      "d": 374.9998499999929,
      "v": 97
    },
    {
      "midi": 59,
      "hit": false,
      "t": 63722.19673333315,
      "d": 48.61109166666574,
      "v": 57
    },
    {
      "midi": 52,
      "hit": false,
      "t": 64069.418816666635,
      "d": 1173.6106416666662,
      "v": 125
    },
    {
      "midi": 64,
      "hit": false,
      "t": 64145.807674999814,
      "d": 208.33324999999604,
      "v": 77
    },
    {
      "midi": 71,
      "hit": false,
      "t": 64145.807674999814,
      "d": 284.7221083333279,
      "v": 81
    },
    {
      "midi": 40,
      "hit": false,
      "t": 64145.807674999814,
      "d": 1111.1106666666674,
      "v": 65
    },
    {
      "midi": 76,
      "hit": false,
      "t": 64152.75211666664,
      "d": 1527.7771666666667,
      "v": 125
    },
    {
      "midi": 67,
      "hit": false,
      "t": 64166.640999999814,
      "d": 298.610991666661,
      "v": 65
    },
    {
      "midi": 52,
      "hit": false,
      "t": 64166.640999999814,
      "d": 1111.1106666666674,
      "v": 57
    },
    {
      "midi": 64,
      "hit": false,
      "t": 64562.47417499981,
      "d": 208.33325000000332,
      "v": 49
    },
    {
      "midi": 64,
      "hit": false,
      "t": 64965.25179166648,
      "d": 201.38880833333678,
      "v": 73
    },
    {
      "midi": 71,
      "hit": false,
      "t": 64972.19623333315,
      "d": 277.77766666666867,
      "v": 69
    },
    {
      "midi": 67,
      "hit": false,
      "t": 64972.19623333315,
      "d": 312.49987500000134,
      "v": 69
    },
    {
      "midi": 52,
      "hit": false,
      "t": 65381.91829166663,
      "d": 326.38875833332713,
      "v": 97
    },
    {
      "midi": 64,
      "hit": false,
      "t": 65388.862733333146,
      "d": 34.722208333332674,
      "v": 17
    },
    {
      "midi": 77,
      "hit": false,
      "t": 65743.0292583333,
      "d": 1277.777266666657,
      "v": 125
    },
    {
      "midi": 53,
      "hit": false,
      "t": 65763.86258333329,
      "d": 1215.2772916666581,
      "v": 125
    },
    {
      "midi": 65,
      "hit": false,
      "t": 65812.47367499981,
      "d": 236.11101666666218,
      "v": 65
    },
    {
      "midi": 72,
      "hit": false,
      "t": 65819.41811666648,
      "d": 305.5554333333275,
      "v": 109
    },
    {
      "midi": 69,
      "hit": false,
      "t": 65819.41811666648,
      "d": 333.33319999999367,
      "v": 85
    },
    {
      "midi": 53,
      "hit": false,
      "t": 65819.41811666648,
      "d": 1277.777266666657,
      "v": 61
    },
    {
      "midi": 41,
      "hit": false,
      "t": 65819.41811666648,
      "d": 1284.7217083333235,
      "v": 81
    },
    {
      "midi": 65,
      "hit": false,
      "t": 66256.91794166647,
      "d": 236.11101666666218,
      "v": 57
    },
    {
      "midi": 55,
      "hit": false,
      "t": 67465.25079166662,
      "d": 1402.7772166666691,
      "v": 109
    },
    {
      "midi": 67,
      "hit": false,
      "t": 67499.9729999998,
      "d": 270.83322499999485,
      "v": 69
    },
    {
      "midi": 74,
      "hit": false,
      "t": 67499.9729999998,
      "d": 298.610991666661,
      "v": 65
    },
    {
      "midi": 71,
      "hit": false,
      "t": 67499.9729999998,
      "d": 354.16652499999327,
      "v": 65
    },
    {
      "midi": 43,
      "hit": false,
      "t": 67499.9729999998,
      "d": 2694.4433666666446,
      "v": 81
    },
    {
      "midi": 55,
      "hit": false,
      "t": 67499.9729999998,
      "d": 2888.8877333333076,
      "v": 57
    },
    {
      "midi": 74,
      "hit": false,
      "t": 68562.47257499999,
      "d": 312.49987499999406,
      "v": 65
    },
    {
      "midi": 79,
      "hit": false,
      "t": 68833.30579999999,
      "d": 444.4442666666582,
      "v": 93
    },
    {
      "midi": 50,
      "hit": false,
      "t": 68923.58354166662,
      "d": 208.33324999999604,
      "v": 77
    },
    {
      "midi": 81,
      "hit": false,
      "t": 69041.63904999998,
      "d": 243.05545833332872,
      "v": 61
    },
    {
      "midi": 55,
      "hit": false,
      "t": 69131.91679166662,
      "d": 118.05550833333109,
      "v": 93
    },
    {
      "midi": 67,
      "hit": false,
      "t": 69166.63899999979,
      "d": 104.16662499999802,
      "v": 57
    },
    {
      "midi": 71,
      "hit": false,
      "t": 69166.63899999979,
      "d": 173.61104166666337,
      "v": 57
    },
    {
      "midi": 74,
      "hit": false,
      "t": 69166.63899999979,
      "d": 180.5554833333299,
      "v": 33
    },
    {
      "midi": 83,
      "hit": false,
      "t": 69270.80562499998,
      "d": 2465.2767916666635,
      "v": 73
    },
    {
      "midi": 55,
      "hit": false,
      "t": 69548.58329166661,
      "d": 701.3886083333346,
      "v": 121
    },
    {
      "midi": 67,
      "hit": false,
      "t": 69583.30549999978,
      "d": 173.61104166666337,
      "v": 33
    },
    {
      "midi": 67,
      "hit": false,
      "t": 69999.97199999978,
      "d": 111.11106666666456,
      "v": 53
    },
    {
      "midi": 74,
      "hit": false,
      "t": 69999.97199999978,
      "d": 180.5554833333299,
      "v": 61
    },
    {
      "midi": 72,
      "hit": false,
      "t": 70208.30524999977,
      "d": 138.8888333333307,
      "v": 49
    },
    {
      "midi": 55,
      "hit": false,
      "t": 70381.91629166661,
      "d": 256.9443416666618,
      "v": 85
    },
    {
      "midi": 71,
      "hit": false,
      "t": 70416.63849999977,
      "d": 41.66664999999921,
      "v": 81
    },
    {
      "midi": 54,
      "hit": false,
      "t": 70798.5827916666,
      "d": 1479.166075000001,
      "v": 125
    },
    {
      "midi": 62,
      "hit": false,
      "t": 70833.30499999976,
      "d": 312.49987499999406,
      "v": 57
    },
    {
      "midi": 69,
      "hit": false,
      "t": 70833.30499999976,
      "d": 368.05540833332634,
      "v": 49
    },
    {
      "midi": 66,
      "hit": false,
      "t": 70833.30499999976,
      "d": 430.55538333332515,
      "v": 61
    },
    {
      "midi": 54,
      "hit": false,
      "t": 70833.30499999976,
      "d": 2881.943291666641,
      "v": 61
    },
    {
      "midi": 86,
      "hit": false,
      "t": 71715.24909166664,
      "d": 819.4441166666656,
      "v": 97
    },
    {
      "midi": 69,
      "hit": false,
      "t": 72083.30449999975,
      "d": 76.38885833333188,
      "v": 61
    },
    {
      "midi": 62,
      "hit": false,
      "t": 72083.30449999975,
      "d": 90.27774166666495,
      "v": 65
    },
    {
      "midi": 66,
      "hit": false,
      "t": 72083.30449999975,
      "d": 111.11106666666456,
      "v": 69
    },
    {
      "midi": 50,
      "hit": false,
      "t": 72256.9155416666,
      "d": 173.61104166666337,
      "v": 113
    },
    {
      "midi": 54,
      "hit": false,
      "t": 72465.2487916666,
      "d": 104.16662499999802,
      "v": 125
    },
    {
      "midi": 62,
      "hit": false,
      "t": 72499.97099999974,
      "d": 145.83327499999723,
      "v": 69
    },
    {
      "midi": 67,
      "hit": false,
      "t": 72499.97099999974,
      "d": 249.99989999999525,
      "v": 77
    },
    {
      "midi": 81,
      "hit": false,
      "t": 72534.69320833331,
      "d": 1465.277191666668,
      "v": 57
    },
    {
      "midi": 54,
      "hit": false,
      "t": 72881.91529166659,
      "d": 701.3886083333346,
      "v": 125
    },
    {
      "midi": 62,
      "hit": false,
      "t": 73333.30399999974,
      "d": 138.8888333333307,
      "v": 53
    },
    {
      "midi": 66,
      "hit": false,
      "t": 73333.30399999974,
      "d": 208.33324999999604,
      "v": 105
    },
    {
      "midi": 54,
      "hit": false,
      "t": 73715.24829166659,
      "d": 159.7221583333303,
      "v": 121
    },
    {
      "midi": 52,
      "hit": false,
      "t": 74131.91479166658,
      "d": 1388.888333333336,
      "v": 125
    },
    {
      "midi": 64,
      "hit": false,
      "t": 74166.63699999973,
      "d": 159.7221583333303,
      "v": 73
    },
    {
      "midi": 71,
      "hit": false,
      "t": 74166.63699999973,
      "d": 229.16657499999565,
      "v": 93
    },
    {
      "midi": 67,
      "hit": false,
      "t": 74166.63699999973,
      "d": 277.7776666666614,
      "v": 69
    },
    {
      "midi": 52,
      "hit": false,
      "t": 74166.63699999973,
      "d": 3194.443166666635,
      "v": 69
    },
    {
      "midi": 64,
      "hit": false,
      "t": 74583.30349999972,
      "d": 187.49992499999644,
      "v": 33
    },
    {
      "midi": 76,
      "hit": false,
      "t": 75041.63664999997,
      "d": 423.61094166667317,
      "v": 125
    },
    {
      "midi": 64,
      "hit": false,
      "t": 75416.63649999972,
      "d": 145.83327499999723,
      "v": 57
    },
    {
      "midi": 71,
      "hit": false,
      "t": 75416.63649999972,
      "d": 201.3888083333295,
      "v": 69
    },
    {
      "midi": 78,
      "hit": false,
      "t": 75430.52538333331,
      "d": 458.33315000000584,
      "v": 125
    },
    {
      "midi": 47,
      "hit": false,
      "t": 75590.24754166658,
      "d": 173.61104166666337,
      "v": 97
    },
    {
      "midi": 52,
      "hit": false,
      "t": 75798.58079166658,
      "d": 145.83327499999723,
      "v": 121
    },
    {
      "midi": 69,
      "hit": false,
      "t": 75833.30299999971,
      "d": 347.22208333332674,
      "v": 105
    },
    {
      "midi": 79,
      "hit": false,
      "t": 75868.02520833332,
      "d": 861.1107666666649,
      "v": 73
    },
    {
      "midi": 52,
      "hit": false,
      "t": 76215.24729166657,
      "d": 659.7219583333354,
      "v": 125
    },
    {
      "midi": 69,
      "hit": false,
      "t": 76249.9694999997,
      "d": 13.88888333333307,
      "v": 5
    },
    {
      "midi": 67,
      "hit": false,
      "t": 76249.9694999997,
      "d": 499.99980000000505,
      "v": 105
    },
    {
      "midi": 66,
      "hit": false,
      "t": 76666.63599999971,
      "d": 451.38870833332476,
      "v": 125
    },
    {
      "midi": 78,
      "hit": false,
      "t": 76680.52488333332,
      "d": 430.55538333332515,
      "v": 85
    },
    {
      "midi": 52,
      "hit": false,
      "t": 77048.58029166657,
      "d": 368.05540833332634,
      "v": 121
    },
    {
      "midi": 64,
      "hit": false,
      "t": 77083.3024999997,
      "d": 111.11106666666456,
      "v": 57
    },
    {
      "midi": 76,
      "hit": false,
      "t": 77104.13582499998,
      "d": 201.3888083333295,
      "v": 89
    },
    {
      "midi": 48,
      "hit": false,
      "t": 77465.24679166656,
      "d": 736.1108166666672,
      "v": 117
    },
    {
      "midi": 60,
      "hit": false,
      "t": 77499.96899999969,
      "d": 256.9443416666618,
      "v": 73
    },
    {
      "midi": 67,
      "hit": false,
      "t": 77499.96899999969,
      "d": 326.38875833332713,
      "v": 81
    },
    {
      "midi": 64,
      "hit": false,
      "t": 77499.96899999969,
      "d": 368.05540833332634,
      "v": 85
    },
    {
      "midi": 48,
      "hit": false,
      "t": 77499.96899999969,
      "d": 979.1662749999814,
      "v": 61
    },
    {
      "midi": 72,
      "hit": false,
      "t": 77499.96899999997,
      "d": 833.3329999999987,
      "v": 117
    },
    {
      "midi": 60,
      "hit": false,
      "t": 77916.63549999968,
      "d": 76.38885833333188,
      "v": 33
    },
    {
      "midi": 82,
      "hit": false,
      "t": 78284.6909083333,
      "d": 2236.110216666668,
      "v": 117
    },
    {
      "midi": 60,
      "hit": false,
      "t": 78298.57979166656,
      "d": 222.2221333333291,
      "v": 125
    },
    {
      "midi": 64,
      "hit": false,
      "t": 78333.30199999968,
      "d": 34.722208333332674,
      "v": 81
    },
    {
      "midi": 60,
      "hit": false,
      "t": 78333.30199999968,
      "d": 48.61109166666574,
      "v": 77
    },
    {
      "midi": 67,
      "hit": false,
      "t": 78333.30199999968,
      "d": 48.61109166666574,
      "v": 81
    },
    {
      "midi": 70,
      "hit": false,
      "t": 78361.07976666663,
      "d": 1965.276991666673,
      "v": 117
    },
    {
      "midi": 58,
      "hit": false,
      "t": 78715.24629166655,
      "d": 1930.5547833333403,
      "v": 125
    },
    {
      "midi": 58,
      "hit": false,
      "t": 78749.96849999967,
      "d": 208.33324999999604,
      "v": 45
    },
    {
      "midi": 62,
      "hit": false,
      "t": 78749.96849999967,
      "d": 555.5553333333228,
      "v": 109
    },
    {
      "midi": 65,
      "hit": false,
      "t": 78749.96849999967,
      "d": 555.5553333333228,
      "v": 121
    },
    {
      "midi": 48,
      "hit": false,
      "t": 78749.96849999967,
      "d": 1368.0550083333073,
      "v": 89
    },
    {
      "midi": 58,
      "hit": false,
      "t": 79583.30149999965,
      "d": 291.66654999999446,
      "v": 25
    },
    {
      "midi": 58,
      "hit": false,
      "t": 79999.96799999964,
      "d": 76.38885833333188,
      "v": 1
    },
    {
      "midi": 65,
      "hit": false,
      "t": 79999.96799999964,
      "d": 326.38875833332713,
      "v": 89
    },
    {
      "midi": 62,
      "hit": false,
      "t": 79999.96799999964,
      "d": 402.777616666659,
      "v": 93
    },
    {
      "midi": 58,
      "hit": false,
      "t": 80416.63449999964,
      "d": 41.66664999999921,
      "v": 41
    },
    {
      "midi": 55,
      "hit": false,
      "t": 80798.57879166656,
      "d": 1409.7216583333357,
      "v": 113
    },
    {
      "midi": 67,
      "hit": false,
      "t": 80833.30099999963,
      "d": 347.22208333332674,
      "v": 85
    },
    {
      "midi": 74,
      "hit": false,
      "t": 80833.30099999963,
      "d": 395.8331749999925,
      "v": 85
    },
    {
      "midi": 71,
      "hit": false,
      "t": 80833.30099999963,
      "d": 458.3331499999913,
      "v": 97
    },
    {
      "midi": 43,
      "hit": false,
      "t": 80833.30099999963,
      "d": 2715.2766916666296,
      "v": 93
    },
    {
      "midi": 55,
      "hit": false,
      "t": 80833.30099999963,
      "d": 2888.887733333293,
      "v": 69
    },
    {
      "midi": 67,
      "hit": false,
      "t": 81666.63399999961,
      "d": 173.61104166666337,
      "v": 41
    },
    {
      "midi": 84,
      "hit": false,
      "t": 82083.30049999997,
      "d": 222.2221333333291,
      "v": 117
    },
    {
      "midi": 50,
      "hit": false,
      "t": 82256.91154166656,
      "d": 138.8888333333307,
      "v": 97
    },
    {
      "midi": 83,
      "hit": false,
      "t": 82291.63374999996,
      "d": 277.7776666666614,
      "v": 125
    },
    {
      "midi": 55,
      "hit": false,
      "t": 82465.24479166656,
      "d": 104.16662499999802,
      "v": 105
    },
    {
      "midi": 79,
      "hit": false,
      "t": 82479.13367499998,
      "d": 374.9998499999929,
      "v": 125
    },
    {
      "midi": 67,
      "hit": false,
      "t": 82499.96699999961,
      "d": 90.27774166666495,
      "v": 61
    },
    {
      "midi": 71,
      "hit": false,
      "t": 82499.96699999961,
      "d": 187.49992499999644,
      "v": 69
    },
    {
      "midi": 74,
      "hit": false,
      "t": 82499.96699999961,
      "d": 194.44436666666297,
      "v": 69
    },
    {
      "midi": 84,
      "hit": false,
      "t": 82499.96699999996,
      "d": 243.05545833332872,
      "v": 125
    },
    {
      "midi": 86,
      "hit": false,
      "t": 82708.30024999996,
      "d": 1847.2214833333273,
      "v": 105
    },
    {
      "midi": 78,
      "hit": false,
      "t": 82798.57799166664,
      "d": 312.49987499999406,
      "v": 125
    },
    {
      "midi": 55,
      "hit": false,
      "t": 82881.91129166655,
      "d": 701.3886083333346,
      "v": 105
    },
    {
      "midi": 67,
      "hit": false,
      "t": 82916.6334999996,
      "d": 118.05550833333109,
      "v": 5
    },
    {
      "midi": 76,
      "hit": false,
      "t": 83062.46677499996,
      "d": 270.83322499999485,
      "v": 93
    },
    {
      "midi": 67,
      "hit": false,
      "t": 83333.2999999996,
      "d": 124.99994999999763,
      "v": 57
    },
    {
      "midi": 72,
      "hit": false,
      "t": 83333.2999999996,
      "d": 249.99989999999525,
      "v": 65
    },
    {
      "midi": 74,
      "hit": false,
      "t": 83361.07776666663,
      "d": 374.9998499999929,
      "v": 109
    },
    {
      "midi": 71,
      "hit": false,
      "t": 83541.63324999959,
      "d": 222.2221333333291,
      "v": 57
    },
    {
      "midi": 55,
      "hit": false,
      "t": 83715.24429166655,
      "d": 229.16657499999565,
      "v": 113
    },
    {
      "midi": 72,
      "hit": false,
      "t": 83729.13317499995,
      "d": 229.16657499999565,
      "v": 81
    },
    {
      "midi": 69,
      "hit": false,
      "t": 83749.96649999959,
      "d": 55.55553333333228,
      "v": 77
    },
    {
      "midi": 71,
      "hit": false,
      "t": 83958.29974999995,
      "d": 208.33324999999604,
      "v": 89
    },
    {
      "midi": 54,
      "hit": false,
      "t": 84131.91079166654,
      "d": 1437.4994250000018,
      "v": 125
    },
    {
      "midi": 62,
      "hit": false,
      "t": 84166.63299999958,
      "d": 256.9443416666618,
      "v": 81
    },
    {
      "midi": 69,
      "hit": false,
      "t": 84166.63299999958,
      "d": 291.66654999999446,
      "v": 93
    },
    {
      "midi": 66,
      "hit": false,
      "t": 84166.63299999958,
      "d": 381.9442916666594,
      "v": 69
    },
    {
      "midi": 54,
      "hit": false,
      "t": 84166.63299999958,
      "d": 3097.220983333289,
      "v": 85
    },
    {
      "midi": 69,
      "hit": false,
      "t": 84166.63299999994,
      "d": 3277.7764666666626,
      "v": 89
    },
    {
      "midi": 62,
      "hit": false,
      "t": 84999.96599999958,
      "d": 222.2221333333291,
      "v": 41
    },
    {
      "midi": 69,
      "hit": false,
      "t": 85416.63249999957,
      "d": 76.38885833333188,
      "v": 49
    },
    {
      "midi": 62,
      "hit": false,
      "t": 85416.63249999957,
      "d": 118.05550833333109,
      "v": 49
    },
    {
      "midi": 66,
      "hit": false,
      "t": 85416.63249999957,
      "d": 124.99994999999763,
      "v": 69
    },
    {
      "midi": 81,
      "hit": false,
      "t": 85416.63249999995,
      "d": 187.49992499999644,
      "v": 121
    },
    {
      "midi": 50,
      "hit": false,
      "t": 85590.24354166654,
      "d": 180.5554833333299,
      "v": 121
    },
    {
      "midi": 83,
      "hit": false,
      "t": 85624.96574999994,
      "d": 173.61104166666337,
      "v": 121
    },
    {
      "midi": 54,
      "hit": false,
      "t": 85798.57679166654,
      "d": 131.94439166666416,
      "v": 125
    },
    {
      "midi": 66,
      "hit": false,
      "t": 85833.29899999956,
      "d": 62.49997499999881,
      "v": 57
    },
    {
      "midi": 69,
      "hit": false,
      "t": 85833.29899999956,
      "d": 180.5554833333299,
      "v": 69
    },
    {
      "midi": 62,
      "hit": false,
      "t": 85833.29899999956,
      "d": 243.05545833332872,
      "v": 69
    },
    {
      "midi": 90,
      "hit": false,
      "t": 85833.29899999994,
      "d": 1604.1660249999986,
      "v": 125
    },
    {
      "midi": 83,
      "hit": false,
      "t": 85833.29899999994,
      "d": 1611.1104666666652,
      "v": 125
    },
    {
      "midi": 54,
      "hit": false,
      "t": 86215.24329166653,
      "d": 680.555283333335,
      "v": 125
    },
    {
      "midi": 62,
      "hit": false,
      "t": 86249.96549999955,
      "d": 76.38885833333188,
      "v": 49
    },
    {
      "midi": 62,
      "hit": false,
      "t": 86666.63199999955,
      "d": 173.61104166666337,
      "v": 73
    },
    {
      "midi": 67,
      "hit": false,
      "t": 86666.63199999955,
      "d": 263.8887833333283,
      "v": 81
    },
    {
      "midi": 54,
      "hit": false,
      "t": 87048.57629166653,
      "d": 243.05545833332872,
      "v": 125
    },
    {
      "midi": 62,
      "hit": false,
      "t": 87083.29849999954,
      "d": 55.55553333333228,
      "v": 65
    },
    {
      "midi": 66,
      "hit": false,
      "t": 87083.29849999954,
      "d": 69.44441666666535,
      "v": 117
    },
    {
      "midi": 52,
      "hit": false,
      "t": 87465.24279166652,
      "d": 1430.5549833333353,
      "v": 125
    },
    {
      "midi": 64,
      "hit": false,
      "t": 87486.0761166666,
      "d": 923.6107416666637,
      "v": 85
    },
    {
      "midi": 64,
      "hit": false,
      "t": 87499.96499999953,
      "d": 187.49992499999644,
      "v": 93
    },
    {
      "midi": 71,
      "hit": false,
      "t": 87499.96499999953,
      "d": 256.9443416666618,
      "v": 105
    },
    {
      "midi": 67,
      "hit": false,
      "t": 87499.96499999953,
      "d": 333.33319999999367,
      "v": 97
    },
    {
      "midi": 52,
      "hit": false,
      "t": 87499.96499999953,
      "d": 3256.943141666605,
      "v": 77
    },
    {
      "midi": 64,
      "hit": false,
      "t": 87916.63149999952,
      "d": 159.7221583333303,
      "v": 29
    },
    {
      "midi": 64,
      "hit": false,
      "t": 88333.29799999952,
      "d": 83.33329999999842,
      "v": 33
    },
    {
      "midi": 66,
      "hit": false,
      "t": 88368.02020833327,
      "d": 854.1663249999983,
      "v": 125
    },
    {
      "midi": 66,
      "hit": false,
      "t": 88749.9644999995,
      "d": 215.27769166666258,
      "v": 125
    },
    {
      "midi": 78,
      "hit": false,
      "t": 88749.96449999994,
      "d": 222.2221333333291,
      "v": 125
    },
    {
      "midi": 47,
      "hit": false,
      "t": 88923.57554166652,
      "d": 159.7221583333303,
      "v": 113
    },
    {
      "midi": 79,
      "hit": false,
      "t": 88958.29774999994,
      "d": 145.83327499999723,
      "v": 109
    },
    {
      "midi": 53,
      "hit": false,
      "t": 89131.90879166652,
      "d": 27.77776666666614,
      "v": 105
    },
    {
      "midi": 52,
      "hit": false,
      "t": 89131.90879166652,
      "d": 104.16662499999802,
      "v": 105
    },
    {
      "midi": 64,
      "hit": false,
      "t": 89166.6309999995,
      "d": 173.61104166666337,
      "v": 93
    },
    {
      "midi": 67,
      "hit": false,
      "t": 89166.6309999995,
      "d": 319.4443166666606,
      "v": 101
    },
    {
      "midi": 88,
      "hit": false,
      "t": 89166.63099999994,
      "d": 1354.1661250000034,
      "v": 125
    },
    {
      "midi": 79,
      "hit": false,
      "t": 89166.63099999994,
      "d": 1423.6105416666687,
      "v": 105
    },
    {
      "midi": 67,
      "hit": false,
      "t": 89208.29764999993,
      "d": 416.6664999999921,
      "v": 85
    },
    {
      "midi": 52,
      "hit": false,
      "t": 89548.57529166651,
      "d": 638.8886333333357,
      "v": 121
    },
    {
      "midi": 66,
      "hit": false,
      "t": 89576.35305833326,
      "d": 409.72205833332555,
      "v": 125
    },
    {
      "midi": 64,
      "hit": false,
      "t": 89583.29749999949,
      "d": 159.7221583333303,
      "v": 45
    },
    {
      "midi": 64,
      "hit": false,
      "t": 89999.96399999948,
      "d": 124.99994999999763,
      "v": 73
    },
    {
      "midi": 69,
      "hit": false,
      "t": 89999.96399999948,
      "d": 291.66654999999446,
      "v": 93
    },
    {
      "midi": 64,
      "hit": false,
      "t": 89999.96399999992,
      "d": 354.16652499999327,
      "v": 117
    },
    {
      "midi": 52,
      "hit": false,
      "t": 90381.9082916665,
      "d": 416.66650000000664,
      "v": 125
    },
    {
      "midi": 62,
      "hit": false,
      "t": 90395.79717499991,
      "d": 409.7220583333401,
      "v": 109
    },
    {
      "midi": 64,
      "hit": false,
      "t": 90416.63049999948,
      "d": 76.38885833333188,
      "v": 81
    },
    {
      "midi": 48,
      "hit": false,
      "t": 90798.57479166651,
      "d": 798.610791666666,
      "v": 125
    },
    {
      "midi": 60,
      "hit": false,
      "t": 90812.46367499992,
      "d": 701.3886083333346,
      "v": 113
    },
    {
      "midi": 60,
      "hit": false,
      "t": 90833.29699999947,
      "d": 229.16657499999565,
      "v": 81
    },
    {
      "midi": 67,
      "hit": false,
      "t": 90833.29699999947,
      "d": 319.4443166666606,
      "v": 113
    },
    {
      "midi": 64,
      "hit": false,
      "t": 90833.29699999947,
      "d": 354.16652499999327,
      "v": 105
    },
    {
      "midi": 48,
      "hit": false,
      "t": 90833.29699999947,
      "d": 1048.6106916666467,
      "v": 65
    },
    {
      "midi": 60,
      "hit": false,
      "t": 91249.96349999946,
      "d": 90.27774166666495,
      "v": 37
    },
    {
      "midi": 60,
      "hit": false,
      "t": 91631.90779166651,
      "d": 243.05545833332872,
      "v": 125
    },
    {
      "midi": 64,
      "hit": false,
      "t": 91666.62999999945,
      "d": 27.77776666666614,
      "v": 69
    },
    {
      "midi": 67,
      "hit": false,
      "t": 91666.62999999945,
      "d": 41.66664999999921,
      "v": 93
    },
    {
      "midi": 60,
      "hit": false,
      "t": 91666.62999999945,
      "d": 55.55553333333228,
      "v": 105
    },
    {
      "midi": 84,
      "hit": false,
      "t": 91666.62999999993,
      "d": 62.49997499999881,
      "v": 117
    },
    {
      "midi": 91,
      "hit": false,
      "t": 91666.62999999993,
      "d": 62.49997499999881,
      "v": 121
    },
    {
      "midi": 88,
      "hit": false,
      "t": 91666.62999999993,
      "d": 76.38885833333188,
      "v": 125
    },
    {
      "midi": 70,
      "hit": false,
      "t": 91715.24109166658,
      "d": 2083.332500000004,
      "v": 125
    },
    {
      "midi": 58,
      "hit": false,
      "t": 92048.5742916665,
      "d": 1833.3326000000088,
      "v": 125
    },
    {
      "midi": 62,
      "hit": false,
      "t": 92083.29649999944,
      "d": 1479.166075000001,
      "v": 93
    },
    {
      "midi": 65,
      "hit": false,
      "t": 92083.29649999944,
      "d": 1479.166075000001,
      "v": 93
    },
    {
      "midi": 48,
      "hit": false,
      "t": 92083.29649999944,
      "d": 1493.054958333334,
      "v": 105
    },
    {
      "midi": 58,
      "hit": false,
      "t": 92083.29649999944,
      "d": 1506.9438416666671,
      "v": 89
    },
    {
      "midi": 89,
      "hit": false,
      "t": 92083.29649999992,
      "d": 1680.554883333345,
      "v": 117
    },
    {
      "midi": 82,
      "hit": false,
      "t": 92083.29649999992,
      "d": 1687.4993250000116,
      "v": 69
    },
    {
      "midi": 86,
      "hit": false,
      "t": 92083.29649999992,
      "d": 1687.4993250000116,
      "v": 89
    },
    {
      "midi": 62,
      "hit": false,
      "t": 94166.62899999945,
      "d": 284.7221083333279,
      "v": 61
    },
    {
      "midi": 69,
      "hit": false,
      "t": 94166.62899999945,
      "d": 354.16652499999327,
      "v": 77
    },
    {
      "midi": 66,
      "hit": false,
      "t": 94166.62899999945,
      "d": 361.1109666666598,
      "v": 73
    },
    {
      "midi": 38,
      "hit": false,
      "t": 94166.62899999945,
      "d": 972.2218333333149,
      "v": 65
    },
    {
      "midi": 50,
      "hit": false,
      "t": 94166.62899999945,
      "d": 972.2218333333149,
      "v": 57
    },
    {
      "midi": 50,
      "hit": false,
      "t": 94166.62899999984,
      "d": 1666.6659999999974,
      "v": 125
    },
    {
      "midi": 74,
      "hit": false,
      "t": 94166.62899999994,
      "d": 1715.2770916666632,
      "v": 109
    },
    {
      "midi": 62,
      "hit": false,
      "t": 94583.29549999944,
      "d": 69.44441666666535,
      "v": 13
    },
    {
      "midi": 62,
      "hit": false,
      "t": 94999.96199999943,
      "d": 243.05545833332872,
      "v": 65
    },
    {
      "midi": 66,
      "hit": false,
      "t": 94999.96199999943,
      "d": 263.8887833333283,
      "v": 81
    },
    {
      "midi": 69,
      "hit": false,
      "t": 94999.96199999943,
      "d": 263.8887833333283,
      "v": 69
    },
    {
      "midi": 51,
      "hit": false,
      "t": 95791.62834999984,
      "d": 1555.5549333333329,
      "v": 125
    },
    {
      "midi": 75,
      "hit": false,
      "t": 95819.4061166666,
      "d": 1548.6104916666663,
      "v": 125
    },
    {
      "midi": 59,
      "hit": false,
      "t": 95840.2394416661,
      "d": 249.99989999999525,
      "v": 57
    },
    {
      "midi": 66,
      "hit": false,
      "t": 95840.2394416661,
      "d": 381.9442916666594,
      "v": 81
    },
    {
      "midi": 63,
      "hit": false,
      "t": 95840.2394416661,
      "d": 402.777616666659,
      "v": 77
    },
    {
      "midi": 51,
      "hit": false,
      "t": 95840.2394416661,
      "d": 951.3885083333153,
      "v": 33
    },
    {
      "midi": 39,
      "hit": false,
      "t": 95840.2394416661,
      "d": 972.2218333333149,
      "v": 69
    },
    {
      "midi": 59,
      "hit": false,
      "t": 96249.96149999942,
      "d": 76.38885833333188,
      "v": 45
    },
    {
      "midi": 59,
      "hit": false,
      "t": 96666.62799999941,
      "d": 222.2221333333291,
      "v": 93
    },
    {
      "midi": 66,
      "hit": false,
      "t": 96666.62799999941,
      "d": 388.88873333332594,
      "v": 89
    },
    {
      "midi": 63,
      "hit": false,
      "t": 96666.62799999941,
      "d": 395.8331749999925,
      "v": 97
    },
    {
      "midi": 59,
      "hit": false,
      "t": 97083.2944999994,
      "d": 90.27774166666495,
      "v": 49
    },
    {
      "midi": 76,
      "hit": false,
      "t": 97479.12767499994,
      "d": 3236.1098166666634,
      "v": 125
    },
    {
      "midi": 52,
      "hit": false,
      "t": 97493.01655833317,
      "d": 1569.443816666666,
      "v": 93
    },
    {
      "midi": 64,
      "hit": false,
      "t": 97499.9609999994,
      "d": 256.9443416666618,
      "v": 57
    },
    {
      "midi": 71,
      "hit": false,
      "t": 97499.9609999994,
      "d": 312.49987499999406,
      "v": 65
    },
    {
      "midi": 67,
      "hit": false,
      "t": 97499.9609999994,
      "d": 361.1109666666598,
      "v": 77
    },
    {
      "midi": 52,
      "hit": false,
      "t": 97499.9609999994,
      "d": 1409.7216583333066,
      "v": 37
    },
    {
      "midi": 40,
      "hit": false,
      "t": 97499.9609999994,
      "d": 1513.8882833333046,
      "v": 57
    },
    {
      "midi": 64,
      "hit": false,
      "t": 97916.62749999939,
      "d": 263.8887833333283,
      "v": 49
    },
    {
      "midi": 67,
      "hit": false,
      "t": 98124.96074999939,
      "d": 90.27774166666495,
      "v": 61
    },
    {
      "midi": 64,
      "hit": false,
      "t": 98333.29399999938,
      "d": 194.44436666666297,
      "v": 77
    },
    {
      "midi": 67,
      "hit": false,
      "t": 98333.29399999938,
      "d": 249.99989999999525,
      "v": 65
    },
    {
      "midi": 71,
      "hit": false,
      "t": 98333.29399999938,
      "d": 381.9442916666594,
      "v": 85
    },
    {
      "midi": 64,
      "hit": false,
      "t": 98749.96049999938,
      "d": 48.61109166666574,
      "v": 57
    },
    {
      "midi": 45,
      "hit": false,
      "t": 99076.34925833317,
      "d": 888.888533333331,
      "v": 125
    },
    {
      "midi": 57,
      "hit": false,
      "t": 99166.62699999937,
      "d": 243.05545833332872,
      "v": 65
    },
    {
      "midi": 64,
      "hit": false,
      "t": 99166.62699999937,
      "d": 361.1109666666598,
      "v": 69
    },
    {
      "midi": 60,
      "hit": false,
      "t": 99166.62699999937,
      "d": 402.777616666659,
      "v": 65
    },
    {
      "midi": 45,
      "hit": false,
      "t": 99166.62699999937,
      "d": 763.8885833333188,
      "v": 61
    },
    {
      "midi": 57,
      "hit": false,
      "t": 99583.29349999936,
      "d": 55.55553333333228,
      "v": 41
    },
    {
      "midi": 47,
      "hit": false,
      "t": 99930.51558333317,
      "d": 763.8885833333334,
      "v": 125
    },
    {
      "midi": 55,
      "hit": false,
      "t": 99999.95999999935,
      "d": 208.33324999999604,
      "v": 81
    },
    {
      "midi": 62,
      "hit": false,
      "t": 99999.95999999935,
      "d": 312.49987499999406,
      "v": 77
    },
    {
      "midi": 59,
      "hit": false,
      "t": 99999.95999999935,
      "d": 354.16652499999327,
      "v": 69
    },
    {
      "midi": 47,
      "hit": false,
      "t": 99999.95999999935,
      "d": 361.1109666666598,
      "v": 73
    },
    {
      "midi": 55,
      "hit": false,
      "t": 100416.62649999934,
      "d": 55.55553333333228,
      "v": 41
    },
    {
      "midi": 50,
      "hit": false,
      "t": 100777.7374666665,
      "d": 1131.9439916666597,
      "v": 121
    },
    {
      "midi": 74,
      "hit": false,
      "t": 100784.68190833327,
      "d": 1576.3882583333325,
      "v": 93
    },
    {
      "midi": 62,
      "hit": false,
      "t": 100833.29299999934,
      "d": 229.16657499999565,
      "v": 61
    },
    {
      "midi": 69,
      "hit": false,
      "t": 100833.29299999934,
      "d": 298.610991666661,
      "v": 69
    },
    {
      "midi": 66,
      "hit": false,
      "t": 100833.29299999934,
      "d": 326.38875833332713,
      "v": 57
    },
    {
      "midi": 38,
      "hit": false,
      "t": 100833.29299999934,
      "d": 1020.8329249999806,
      "v": 57
    },
    {
      "midi": 50,
      "hit": false,
      "t": 100833.29299999934,
      "d": 1034.7218083333137,
      "v": 41
    },
    {
      "midi": 62,
      "hit": false,
      "t": 101249.95949999933,
      "d": 256.9443416666618,
      "v": 53
    },
    {
      "midi": 66,
      "hit": false,
      "t": 101458.29274999932,
      "d": 104.16662499999802,
      "v": 37
    },
    {
      "midi": 62,
      "hit": false,
      "t": 101666.62599999932,
      "d": 201.3888083333295,
      "v": 61
    },
    {
      "midi": 66,
      "hit": false,
      "t": 101666.62599999932,
      "d": 284.7221083333279,
      "v": 93
    },
    {
      "midi": 69,
      "hit": false,
      "t": 101666.62599999932,
      "d": 291.66654999999446,
      "v": 73
    },
    {
      "midi": 50,
      "hit": false,
      "t": 102027.73696666649,
      "d": 388.8887333333405,
      "v": 125
    },
    {
      "midi": 62,
      "hit": false,
      "t": 102083.29249999931,
      "d": 62.49997499999881,
      "v": 57
    },
    {
      "midi": 51,
      "hit": false,
      "t": 102451.34790833316,
      "d": 1562.4993749999994,
      "v": 117
    },
    {
      "midi": 75,
      "hit": false,
      "t": 102472.18123333326,
      "d": 1597.221583333332,
      "v": 117
    },
    {
      "midi": 59,
      "hit": false,
      "t": 102499.9589999993,
      "d": 229.16657499999565,
      "v": 53
    },
    {
      "midi": 63,
      "hit": false,
      "t": 102499.9589999993,
      "d": 312.49987499999406,
      "v": 89
    },
    {
      "midi": 66,
      "hit": false,
      "t": 102499.9589999993,
      "d": 333.33319999999367,
      "v": 65
    },
    {
      "midi": 39,
      "hit": false,
      "t": 102499.9589999993,
      "d": 958.3329499999818,
      "v": 69
    },
    {
      "midi": 51,
      "hit": false,
      "t": 102499.9589999993,
      "d": 958.3329499999818,
      "v": 77
    },
    {
      "midi": 59,
      "hit": false,
      "t": 102916.6254999993,
      "d": 180.5554833333299,
      "v": 41
    },
    {
      "midi": 59,
      "hit": false,
      "t": 103333.29199999929,
      "d": 222.2221333333291,
      "v": 65
    },
    {
      "midi": 63,
      "hit": false,
      "t": 103333.29199999929,
      "d": 354.16652499999327,
      "v": 89
    },
    {
      "midi": 66,
      "hit": false,
      "t": 103333.29199999929,
      "d": 368.05540833332634,
      "v": 97
    },
    {
      "midi": 59,
      "hit": false,
      "t": 103749.95849999928,
      "d": 48.61109166666574,
      "v": 57
    },
    {
      "midi": 52,
      "hit": false,
      "t": 104069.4028166665,
      "d": 1173.6106416666735,
      "v": 125
    },
    {
      "midi": 76,
      "hit": false,
      "t": 104145.79167499993,
      "d": 1534.7216083333333,
      "v": 125
    },
    {
      "midi": 64,
      "hit": false,
      "t": 104166.62499999927,
      "d": 208.33324999999604,
      "v": 77
    },
    {
      "midi": 71,
      "hit": false,
      "t": 104166.62499999927,
      "d": 284.7221083333279,
      "v": 81
    },
    {
      "midi": 67,
      "hit": false,
      "t": 104166.62499999927,
      "d": 312.49987499999406,
      "v": 65
    },
    {
      "midi": 40,
      "hit": false,
      "t": 104166.62499999927,
      "d": 1111.1106666666456,
      "v": 65
    },
    {
      "midi": 52,
      "hit": false,
      "t": 104166.62499999927,
      "d": 1118.055108333312,
      "v": 57
    },
    {
      "midi": 64,
      "hit": false,
      "t": 104583.29149999926,
      "d": 208.33324999999604,
      "v": 49
    },
    {
      "midi": 64,
      "hit": false,
      "t": 104999.95799999926,
      "d": 194.44436666666297,
      "v": 73
    },
    {
      "midi": 71,
      "hit": false,
      "t": 104999.95799999926,
      "d": 277.7776666666614,
      "v": 69
    },
    {
      "midi": 67,
      "hit": false,
      "t": 104999.95799999926,
      "d": 312.49987499999406,
      "v": 69
    },
    {
      "midi": 52,
      "hit": false,
      "t": 105381.9022916665,
      "d": 326.38875833332713,
      "v": 97
    },
    {
      "midi": 64,
      "hit": false,
      "t": 105416.62449999925,
      "d": 34.722208333332674,
      "v": 17
    },
    {
      "midi": 77,
      "hit": false,
      "t": 105743.01325833326,
      "d": 1277.7772666666715,
      "v": 125
    },
    {
      "midi": 53,
      "hit": false,
      "t": 105763.84658333316,
      "d": 1215.2772916666727,
      "v": 125
    },
    {
      "midi": 65,
      "hit": false,
      "t": 105833.29099999924,
      "d": 229.16657499999565,
      "v": 65
    },
    {
      "midi": 72,
      "hit": false,
      "t": 105833.29099999924,
      "d": 298.610991666661,
      "v": 109
    },
    {
      "midi": 69,
      "hit": false,
      "t": 105833.29099999924,
      "d": 326.38875833332713,
      "v": 85
    },
    {
      "midi": 53,
      "hit": false,
      "t": 105833.29099999924,
      "d": 1270.8328249999904,
      "v": 61
    },
    {
      "midi": 41,
      "hit": false,
      "t": 105833.29099999924,
      "d": 1284.7217083333235,
      "v": 81
    },
    {
      "midi": 65,
      "hit": false,
      "t": 106249.95749999923,
      "d": 229.16657499999565,
      "v": 57
    },
    {
      "midi": 62,
      "hit": false,
      "t": 107499.95699999922,
      "d": 194.44436666666297,
      "v": 49
    },
    {
      "midi": 55,
      "hit": false,
      "t": 107499.95699999922,
      "d": 215.27769166666258,
      "v": 45
    },
    {
      "midi": 58,
      "hit": false,
      "t": 107499.95699999922,
      "d": 243.05545833332872,
      "v": 65
    },
    {
      "midi": 43,
      "hit": false,
      "t": 107499.95699999922,
      "d": 291.66654999999446,
      "v": 65
    },
    {
      "midi": 53,
      "hit": false,
      "t": 108333.28999999922,
      "d": 173.61104166666337,
      "v": 41
    },
    {
      "midi": 45,
      "hit": false,
      "t": 108333.28999999922,
      "d": 208.33324999999604,
      "v": 69
    },
    {
      "midi": 60,
      "hit": false,
      "t": 108333.28999999922,
      "d": 208.33324999999604,
      "v": 57
    },
    {
      "midi": 57,
      "hit": false,
      "t": 108333.28999999922,
      "d": 222.2221333333291,
      "v": 53
    },
    {
      "midi": 58,
      "hit": false,
      "t": 109166.62299999922,
      "d": 208.33324999999604,
      "v": 33
    },
    {
      "midi": 65,
      "hit": false,
      "t": 109166.62299999922,
      "d": 284.7221083333279,
      "v": 53
    },
    {
      "midi": 62,
      "hit": false,
      "t": 109166.62299999922,
      "d": 291.66654999999446,
      "v": 49
    },
    {
      "midi": 46,
      "hit": false,
      "t": 109166.62299999922,
      "d": 2194.443566666625,
      "v": 53
    },
    {
      "midi": 58,
      "hit": false,
      "t": 109583.28949999921,
      "d": 180.5554833333299,
      "v": 25
    },
    {
      "midi": 58,
      "hit": false,
      "t": 109999.9559999992,
      "d": 69.44441666666535,
      "v": 5
    },
    {
      "midi": 65,
      "hit": false,
      "t": 109999.9559999992,
      "d": 249.99989999999525,
      "v": 49
    },
    {
      "midi": 62,
      "hit": false,
      "t": 109999.9559999992,
      "d": 381.9442916666594,
      "v": 49
    },
    {
      "midi": 58,
      "hit": false,
      "t": 110416.6224999992,
      "d": 152.77771666666376,
      "v": 17
    },
    {
      "midi": 58,
      "hit": false,
      "t": 110833.28899999919,
      "d": 55.55553333333228,
      "v": 1
    },
    {
      "midi": 65,
      "hit": false,
      "t": 110833.28899999919,
      "d": 249.99989999999525,
      "v": 37
    },
    {
      "midi": 62,
      "hit": false,
      "t": 110833.28899999919,
      "d": 409.72205833332555,
      "v": 29
    },
    {
      "midi": 58,
      "hit": false,
      "t": 111249.95549999918,
      "d": 187.49992499999644,
      "v": 25
    },
    {
      "midi": 58,
      "hit": false,
      "t": 111666.62199999917,
      "d": 152.77771666666376,
      "v": 13
    },
    {
      "midi": 65,
      "hit": false,
      "t": 111666.62199999917,
      "d": 354.16652499999327,
      "v": 41
    },
    {
      "midi": 62,
      "hit": false,
      "t": 111666.62199999917,
      "d": 465.2775916666578,
      "v": 33
    },
    {
      "midi": 58,
      "hit": false,
      "t": 112083.28849999917,
      "d": 55.55553333333228,
      "v": 21
    },
    {
      "midi": 57,
      "hit": false,
      "t": 112499.95499999916,
      "d": 229.16657499999565,
      "v": 41
    },
    {
      "midi": 64,
      "hit": false,
      "t": 112499.95499999916,
      "d": 249.99989999999525,
      "v": 29
    },
    {
      "midi": 60,
      "hit": false,
      "t": 112499.95499999916,
      "d": 381.9442916666594,
      "v": 57
    },
    {
      "midi": 45,
      "hit": false,
      "t": 112499.95499999916,
      "d": 3263.8875833332713,
      "v": 61
    },
    {
      "midi": 57,
      "hit": false,
      "t": 112916.62149999915,
      "d": 229.16657499999565,
      "v": 33
    },
    {
      "midi": 60,
      "hit": false,
      "t": 113124.95474999915,
      "d": 118.05550833333109,
      "v": 45
    },
    {
      "midi": 57,
      "hit": false,
      "t": 113333.28799999914,
      "d": 152.77771666666376,
      "v": 33
    },
    {
      "midi": 64,
      "hit": false,
      "t": 113333.28799999914,
      "d": 222.2221333333291,
      "v": 29
    },
    {
      "midi": 60,
      "hit": false,
      "t": 113333.28799999914,
      "d": 249.99989999999525,
      "v": 41
    },
    {
      "midi": 57,
      "hit": false,
      "t": 113749.95449999913,
      "d": 159.7221583333303,
      "v": 29
    },
    {
      "midi": 57,
      "hit": false,
      "t": 114166.62099999913,
      "d": 173.61104166666337,
      "v": 33
    },
    {
      "midi": 64,
      "hit": false,
      "t": 114166.62099999913,
      "d": 222.2221333333291,
      "v": 33
    },
    {
      "midi": 60,
      "hit": false,
      "t": 114166.62099999913,
      "d": 333.33319999999367,
      "v": 41
    },
    {
      "midi": 57,
      "hit": false,
      "t": 114583.28749999912,
      "d": 208.33324999999604,
      "v": 33
    },
    {
      "midi": 57,
      "hit": false,
      "t": 114999.95399999911,
      "d": 152.77771666666376,
      "v": 41
    },
    {
      "midi": 64,
      "hit": false,
      "t": 114999.95399999911,
      "d": 243.05545833332872,
      "v": 33
    },
    {
      "midi": 60,
      "hit": false,
      "t": 114999.95399999911,
      "d": 395.8331749999925,
      "v": 33
    },
    {
      "midi": 57,
      "hit": false,
      "t": 115416.6204999991,
      "d": 48.61109166666574,
      "v": 25
    },
    {
      "midi": 56,
      "hit": false,
      "t": 115833.2869999991,
      "d": 173.61104166666337,
      "v": 21
    },
    {
      "midi": 63,
      "hit": false,
      "t": 115833.2869999991,
      "d": 243.05545833332872,
      "v": 57
    },
    {
      "midi": 60,
      "hit": false,
      "t": 115833.2869999991,
      "d": 312.49987499999406,
      "v": 49
    },
    {
      "midi": 44,
      "hit": false,
      "t": 115833.2869999991,
      "d": 2062.499174999961,
      "v": 33
    },
    {
      "midi": 56,
      "hit": false,
      "t": 116249.95349999909,
      "d": 187.49992499999644,
      "v": 17
    },
    {
      "midi": 56,
      "hit": false,
      "t": 116666.61999999908,
      "d": 124.99994999999763,
      "v": 1
    },
    {
      "midi": 63,
      "hit": false,
      "t": 116666.61999999908,
      "d": 201.3888083333295,
      "v": 33
    },
    {
      "midi": 60,
      "hit": false,
      "t": 116666.61999999908,
      "d": 249.99989999999525,
      "v": 29
    },
    {
      "midi": 56,
      "hit": false,
      "t": 117083.28649999907,
      "d": 180.5554833333299,
      "v": 13
    },
    {
      "midi": 56,
      "hit": false,
      "t": 117499.95299999906,
      "d": 152.77771666666376,
      "v": 17
    },
    {
      "midi": 63,
      "hit": false,
      "t": 117499.95299999906,
      "d": 243.05545833332872,
      "v": 41
    },
    {
      "midi": 60,
      "hit": false,
      "t": 117499.95299999906,
      "d": 354.16652499999327,
      "v": 45
    },
    {
      "midi": 56,
      "hit": false,
      "t": 117916.61949999905,
      "d": 180.5554833333299,
      "v": 29
    },
    {
      "midi": 56,
      "hit": false,
      "t": 118333.28599999905,
      "d": 145.83327499999723,
      "v": 21
    },
    {
      "midi": 63,
      "hit": false,
      "t": 118333.28599999905,
      "d": 180.5554833333299,
      "v": 53
    },
    {
      "midi": 60,
      "hit": false,
      "t": 118333.28599999905,
      "d": 229.16657499999565,
      "v": 41
    },
    {
      "midi": 56,
      "hit": false,
      "t": 118749.95249999904,
      "d": 48.61109166666574,
      "v": 29
    },
    {
      "midi": 54,
      "hit": false,
      "t": 118958.28574999904,
      "d": 34.722208333332674,
      "v": 1
    },
    {
      "midi": 51,
      "hit": false,
      "t": 119166.61899999903,
      "d": 180.5554833333299,
      "v": 33
    },
    {
      "midi": 58,
      "hit": false,
      "t": 119166.61899999903,
      "d": 256.9443416666618,
      "v": 65
    },
    {
      "midi": 55,
      "hit": false,
      "t": 119166.61899999903,
      "d": 354.16652499999327,
      "v": 33
    },
    {
      "midi": 39,
      "hit": false,
      "t": 119166.61899999903,
      "d": 1409.7216583333066,
      "v": 37
    },
    {
      "midi": 51,
      "hit": false,
      "t": 119583.28549999902,
      "d": 187.49992499999644,
      "v": 17
    },
    {
      "midi": 51,
      "hit": false,
      "t": 119999.95199999902,
      "d": 291.66654999999446,
      "v": 21
    },
    {
      "midi": 55,
      "hit": false,
      "t": 120416.61849999901,
      "d": 55.55553333333228,
      "v": 49
    },
    {
      "midi": 58,
      "hit": false,
      "t": 120416.61849999901,
      "d": 111.11106666666456,
      "v": 45
    },
    {
      "midi": 51,
      "hit": false,
      "t": 120416.61849999901,
      "d": 138.8888333333307,
      "v": 17
    },
    {
      "midi": 51,
      "hit": false,
      "t": 120833.284999999,
      "d": 76.38885833333188,
      "v": 17
    },
    {
      "midi": 53,
      "hit": false,
      "t": 120833.284999999,
      "d": 305.5554333333275,
      "v": 53
    },
    {
      "midi": 39,
      "hit": false,
      "t": 120833.284999999,
      "d": 680.5552833333204,
      "v": 49
    },
    {
      "midi": 51,
      "hit": false,
      "t": 121249.95149999899,
      "d": 222.2221333333291,
      "v": 21
    },
    {
      "midi": 51,
      "hit": false,
      "t": 121666.61799999898,
      "d": 124.99994999999763,
      "v": 13
    },
    {
      "midi": 39,
      "hit": false,
      "t": 121666.61799999898,
      "d": 243.05545833332872,
      "v": 45
    },
    {
      "midi": 55,
      "hit": false,
      "t": 121666.61799999898,
      "d": 263.8887833333283,
      "v": 37
    },
    {
      "midi": 58,
      "hit": false,
      "t": 121666.61799999898,
      "d": 361.1109666666598,
      "v": 37
    },
    {
      "midi": 58,
      "hit": false,
      "t": 122499.95099999897,
      "d": 208.33324999999604,
      "v": 45
    },
    {
      "midi": 62,
      "hit": false,
      "t": 122499.95099999897,
      "d": 381.9442916666594,
      "v": 85
    },
    {
      "midi": 46,
      "hit": false,
      "t": 122499.95099999897,
      "d": 2923.609941666611,
      "v": 65
    },
    {
      "midi": 58,
      "hit": false,
      "t": 122916.61749999896,
      "d": 159.7221583333303,
      "v": 25
    },
    {
      "midi": 58,
      "hit": false,
      "t": 123124.95074999896,
      "d": 138.8888333333307,
      "v": 17
    },
    {
      "midi": 65,
      "hit": false,
      "t": 123124.95074999896,
      "d": 215.27769166666258,
      "v": 45
    },
    {
      "midi": 62,
      "hit": false,
      "t": 123124.95074999896,
      "d": 354.16652499999327,
      "v": 41
    },
    {
      "midi": 58,
      "hit": false,
      "t": 123749.95049999894,
      "d": 138.8888333333307,
      "v": 1
    },
    {
      "midi": 58,
      "hit": false,
      "t": 124166.61699999894,
      "d": 152.77771666666376,
      "v": 1
    },
    {
      "midi": 65,
      "hit": false,
      "t": 124166.61699999894,
      "d": 381.9442916666594,
      "v": 45
    },
    {
      "midi": 62,
      "hit": false,
      "t": 124166.61699999894,
      "d": 437.4998249999917,
      "v": 29
    },
    {
      "midi": 58,
      "hit": false,
      "t": 124583.28349999893,
      "d": 152.77771666666376,
      "v": 25
    },
    {
      "midi": 58,
      "hit": false,
      "t": 124999.94999999892,
      "d": 173.61104166666337,
      "v": 13
    },
    {
      "midi": 65,
      "hit": false,
      "t": 124999.94999999892,
      "d": 291.66654999999446,
      "v": 29
    },
    {
      "midi": 62,
      "hit": false,
      "t": 124999.94999999892,
      "d": 472.22203333332436,
      "v": 41
    },
    {
      "midi": 58,
      "hit": false,
      "t": 125416.61649999891,
      "d": 69.44441666666535,
      "v": 29
    },
    {
      "midi": 57,
      "hit": false,
      "t": 125833.2829999989,
      "d": 208.33324999999604,
      "v": 21
    },
    {
      "midi": 64,
      "hit": false,
      "t": 125833.2829999989,
      "d": 249.99989999999525,
      "v": 37
    },
    {
      "midi": 60,
      "hit": false,
      "t": 125833.2829999989,
      "d": 381.9442916666594,
      "v": 41
    },
    {
      "midi": 45,
      "hit": false,
      "t": 125833.2829999989,
      "d": 2993.0543583332765,
      "v": 29
    },
    {
      "midi": 57,
      "hit": false,
      "t": 126249.9494999989,
      "d": 152.77771666666376,
      "v": 13
    },
    {
      "midi": 57,
      "hit": false,
      "t": 126666.61599999889,
      "d": 145.83327499999723,
      "v": 29
    },
    {
      "midi": 64,
      "hit": false,
      "t": 126666.61599999889,
      "d": 249.99989999999525,
      "v": 37
    },
    {
      "midi": 60,
      "hit": false,
      "t": 126666.61599999889,
      "d": 388.88873333332594,
      "v": 33
    },
    {
      "midi": 57,
      "hit": false,
      "t": 127083.28249999888,
      "d": 111.11106666666456,
      "v": 5
    },
    {
      "midi": 57,
      "hit": false,
      "t": 127499.94899999887,
      "d": 152.77771666666376,
      "v": 21
    },
    {
      "midi": 64,
      "hit": false,
      "t": 127499.94899999887,
      "d": 256.9443416666618,
      "v": 21
    },
    {
      "midi": 60,
      "hit": false,
      "t": 127499.94899999887,
      "d": 354.16652499999327,
      "v": 29
    },
    {
      "midi": 57,
      "hit": false,
      "t": 127916.61549999886,
      "d": 277.7776666666614,
      "v": 29
    },
    {
      "midi": 60,
      "hit": false,
      "t": 128124.94874999886,
      "d": 111.11106666666456,
      "v": 37
    },
    {
      "midi": 57,
      "hit": false,
      "t": 128333.28199999886,
      "d": 173.61104166666337,
      "v": 45
    },
    {
      "midi": 60,
      "hit": false,
      "t": 128333.28199999886,
      "d": 249.99989999999525,
      "v": 41
    },
    {
      "midi": 64,
      "hit": false,
      "t": 128333.28199999886,
      "d": 256.9443416666618,
      "v": 49
    },
    {
      "midi": 56,
      "hit": false,
      "t": 129166.61499999884,
      "d": 138.8888333333307,
      "v": 17
    },
    {
      "midi": 63,
      "hit": false,
      "t": 129166.61499999884,
      "d": 326.38875833332713,
      "v": 57
    },
    {
      "midi": 60,
      "hit": false,
      "t": 129166.61499999884,
      "d": 402.777616666659,
      "v": 53
    },
    {
      "midi": 44,
      "hit": false,
      "t": 129166.61499999884,
      "d": 3194.4431666666787,
      "v": 41
    },
    {
      "midi": 56,
      "hit": false,
      "t": 129583.28149999883,
      "d": 187.49992499999644,
      "v": 25
    },
    {
      "midi": 56,
      "hit": false,
      "t": 129999.94799999883,
      "d": 76.38885833333188,
      "v": 1
    },
    {
      "midi": 63,
      "hit": false,
      "t": 129999.94799999883,
      "d": 277.7776666666614,
      "v": 49
    },
    {
      "midi": 60,
      "hit": false,
      "t": 129999.94799999883,
      "d": 402.777616666659,
      "v": 29
    },
    {
      "midi": 56,
      "hit": false,
      "t": 130416.61449999882,
      "d": 159.7221583333303,
      "v": 17
    },
    {
      "midi": 56,
      "hit": false,
      "t": 130833.28099999881,
      "d": 173.61104166666337,
      "v": 21
    },
    {
      "midi": 63,
      "hit": false,
      "t": 130833.28099999881,
      "d": 243.05545833332872,
      "v": 41
    },
    {
      "midi": 60,
      "hit": false,
      "t": 130833.28099999881,
      "d": 319.44431666667515,
      "v": 45
    },
    {
      "midi": 56,
      "hit": false,
      "t": 131249.94749999882,
      "d": 173.61104166667792,
      "v": 17
    },
    {
      "midi": 56,
      "hit": false,
      "t": 131666.61399999884,
      "d": 173.61104166667792,
      "v": 29
    },
    {
      "midi": 63,
      "hit": false,
      "t": 131666.61399999884,
      "d": 402.7776166666881,
      "v": 41
    },
    {
      "midi": 60,
      "hit": false,
      "t": 131666.61399999884,
      "d": 458.3331500000204,
      "v": 61
    },
    {
      "midi": 56,
      "hit": false,
      "t": 132083.28049999886,
      "d": 83.33329999999842,
      "v": 37
    },
    {
      "midi": 64,
      "hit": false,
      "t": 132499.94699999885,
      "d": 215.27769166667713,
      "v": 57
    },
    {
      "midi": 57,
      "hit": false,
      "t": 132499.94699999885,
      "d": 229.1665750000102,
      "v": 49
    },
    {
      "midi": 60,
      "hit": false,
      "t": 132499.94699999885,
      "d": 319.4443166666897,
      "v": 41
    },
    {
      "midi": 45,
      "hit": false,
      "t": 132499.94699999885,
      "d": 1152.777316666732,
      "v": 57
    },
    {
      "midi": 57,
      "hit": false,
      "t": 132916.61349999887,
      "d": 277.7776666666614,
      "v": 41
    },
    {
      "midi": 60,
      "hit": false,
      "t": 133124.94674999887,
      "d": 131.9443916666787,
      "v": 45
    },
    {
      "midi": 57,
      "hit": false,
      "t": 133333.2799999989,
      "d": 173.61104166667792,
      "v": 45
    },
    {
      "midi": 64,
      "hit": false,
      "t": 133333.2799999989,
      "d": 249.99990000002435,
      "v": 45
    },
    {
      "midi": 60,
      "hit": false,
      "t": 133333.2799999989,
      "d": 395.83317500003614,
      "v": 45
    },
    {
      "midi": 57,
      "hit": false,
      "t": 133749.94649999894,
      "d": 41.66664999999921,
      "v": 25
    },
    {
      "midi": 62,
      "hit": false,
      "t": 134166.61299999896,
      "d": 187.499925000011,
      "v": 41
    },
    {
      "midi": 69,
      "hit": false,
      "t": 134166.61299999896,
      "d": 284.7221083333425,
      "v": 41
    },
    {
      "midi": 66,
      "hit": false,
      "t": 134166.61299999896,
      "d": 291.66655000002356,
      "v": 53
    },
    {
      "midi": 50,
      "hit": false,
      "t": 134166.61299999896,
      "d": 1534.7216083333478,
      "v": 37
    },
    {
      "midi": 38,
      "hit": false,
      "t": 134166.61299999896,
      "d": 1541.666050000029,
      "v": 45
    },
    {
      "midi": 62,
      "hit": false,
      "t": 134583.279499999,
      "d": 569.4442166666558,
      "v": 17
    },
    {
      "midi": 66,
      "hit": false,
      "t": 134999.94599999898,
      "d": 347.22208333332674,
      "v": 29
    },
    {
      "midi": 62,
      "hit": false,
      "t": 135416.61249999897,
      "d": 159.72215833334485,
      "v": 33
    },
    {
      "midi": 69,
      "hit": false,
      "t": 135416.61249999897,
      "d": 229.1665750000102,
      "v": 33
    },
    {
      "midi": 66,
      "hit": false,
      "t": 135416.61249999897,
      "d": 256.94434166667634,
      "v": 5
    },
    {
      "midi": 62,
      "hit": false,
      "t": 135833.278999999,
      "d": 194.44436666666297,
      "v": 41
    },
    {
      "midi": 67,
      "hit": false,
      "t": 135833.278999999,
      "d": 388.88873333332594,
      "v": 57
    },
    {
      "midi": 38,
      "hit": false,
      "t": 135833.278999999,
      "d": 2611.1100666667044,
      "v": 33
    },
    {
      "midi": 50,
      "hit": false,
      "t": 135833.278999999,
      "d": 2638.8878333333705,
      "v": 37
    },
    {
      "midi": 62,
      "hit": false,
      "t": 136249.94549999898,
      "d": 159.72215833334485,
      "v": 17
    },
    {
      "midi": 62,
      "hit": false,
      "t": 136666.611999999,
      "d": 215.27769166667713,
      "v": 37
    },
    {
      "midi": 66,
      "hit": false,
      "t": 136666.611999999,
      "d": 416.6665000000212,
      "v": 77
    },
    {
      "midi": 55,
      "hit": false,
      "t": 140798.55479166648,
      "d": 1402.7772166666691,
      "v": 109
    },
    {
      "midi": 67,
      "hit": false,
      "t": 140833.27699999904,
      "d": 263.8887833333283,
      "v": 69
    },
    {
      "midi": 74,
      "hit": false,
      "t": 140833.27699999904,
      "d": 298.61099166667555,
      "v": 65
    },
    {
      "midi": 71,
      "hit": false,
      "t": 140833.27699999904,
      "d": 354.1665250000078,
      "v": 65
    },
    {
      "midi": 43,
      "hit": false,
      "t": 140833.27699999904,
      "d": 2694.443366666703,
      "v": 81
    },
    {
      "midi": 55,
      "hit": false,
      "t": 140833.27699999904,
      "d": 2888.8877333333658,
      "v": 57
    },
    {
      "midi": 50,
      "hit": false,
      "t": 142256.88754166648,
      "d": 208.33324999999604,
      "v": 77
    },
    {
      "midi": 55,
      "hit": false,
      "t": 142465.22079166648,
      "d": 118.05550833334564,
      "v": 93
    },
    {
      "midi": 67,
      "hit": false,
      "t": 142499.94299999904,
      "d": 104.16662500001257,
      "v": 57
    },
    {
      "midi": 71,
      "hit": false,
      "t": 142499.94299999904,
      "d": 173.61104166667792,
      "v": 57
    },
    {
      "midi": 74,
      "hit": false,
      "t": 142499.94299999904,
      "d": 180.555483333359,
      "v": 33
    },
    {
      "midi": 55,
      "hit": false,
      "t": 142881.8872916665,
      "d": 701.3886083333346,
      "v": 121
    },
    {
      "midi": 67,
      "hit": false,
      "t": 142916.60949999906,
      "d": 173.61104166667792,
      "v": 33
    },
    {
      "midi": 67,
      "hit": false,
      "t": 143333.27599999908,
      "d": 111.11106666666456,
      "v": 53
    },
    {
      "midi": 74,
      "hit": false,
      "t": 143333.27599999908,
      "d": 180.5554833333299,
      "v": 61
    },
    {
      "midi": 72,
      "hit": false,
      "t": 143541.60924999908,
      "d": 138.8888333333307,
      "v": 49
    },
    {
      "midi": 55,
      "hit": false,
      "t": 143715.2202916665,
      "d": 256.94434166667634,
      "v": 85
    },
    {
      "midi": 71,
      "hit": false,
      "t": 143749.94249999907,
      "d": 41.66664999999921,
      "v": 81
    },
    {
      "midi": 54,
      "hit": false,
      "t": 144131.88679166653,
      "d": 1479.1660750000156,
      "v": 125
    },
    {
      "midi": 62,
      "hit": false,
      "t": 144166.60899999907,
      "d": 312.4998750000086,
      "v": 57
    },
    {
      "midi": 69,
      "hit": false,
      "t": 144166.60899999907,
      "d": 368.0554083333409,
      "v": 49
    },
    {
      "midi": 66,
      "hit": false,
      "t": 144166.60899999907,
      "d": 430.55538333335426,
      "v": 61
    },
    {
      "midi": 54,
      "hit": false,
      "t": 144166.60899999907,
      "d": 2881.943291666743,
      "v": 61
    },
    {
      "midi": 69,
      "hit": false,
      "t": 145416.6084999991,
      "d": 76.38885833334643,
      "v": 61
    },
    {
      "midi": 62,
      "hit": false,
      "t": 145416.6084999991,
      "d": 90.2777416666795,
      "v": 65
    },
    {
      "midi": 66,
      "hit": false,
      "t": 145416.6084999991,
      "d": 111.11106666669366,
      "v": 69
    },
    {
      "midi": 50,
      "hit": false,
      "t": 145590.21954166653,
      "d": 173.61104166667792,
      "v": 113
    },
    {
      "midi": 54,
      "hit": false,
      "t": 145798.55279166656,
      "d": 104.16662500001257,
      "v": 125
    },
    {
      "midi": 62,
      "hit": false,
      "t": 145833.27499999912,
      "d": 145.83327500001178,
      "v": 69
    },
    {
      "midi": 67,
      "hit": false,
      "t": 145833.27499999912,
      "d": 249.99990000002435,
      "v": 77
    },
    {
      "midi": 54,
      "hit": false,
      "t": 146215.21929166658,
      "d": 701.3886083333346,
      "v": 125
    },
    {
      "midi": 62,
      "hit": false,
      "t": 146666.60799999913,
      "d": 138.8888333333307,
      "v": 53
    },
    {
      "midi": 66,
      "hit": false,
      "t": 146666.60799999913,
      "d": 208.33324999999604,
      "v": 105
    },
    {
      "midi": 54,
      "hit": false,
      "t": 147048.5522916666,
      "d": 159.72215833334485,
      "v": 121
    },
    {
      "midi": 52,
      "hit": false,
      "t": 147465.21879166662,
      "d": 1388.888333333336,
      "v": 125
    },
    {
      "midi": 64,
      "hit": false,
      "t": 147499.94099999918,
      "d": 159.72215833334485,
      "v": 73
    },
    {
      "midi": 71,
      "hit": false,
      "t": 147499.94099999918,
      "d": 229.1665750000102,
      "v": 93
    },
    {
      "midi": 67,
      "hit": false,
      "t": 147499.94099999918,
      "d": 277.7776666666905,
      "v": 69
    },
    {
      "midi": 52,
      "hit": false,
      "t": 147499.94099999918,
      "d": 3194.4431666667224,
      "v": 69
    },
    {
      "midi": 64,
      "hit": false,
      "t": 147916.6074999992,
      "d": 187.499925000011,
      "v": 33
    },
    {
      "midi": 64,
      "hit": false,
      "t": 148749.9404999992,
      "d": 145.83327500001178,
      "v": 57
    },
    {
      "midi": 71,
      "hit": false,
      "t": 148749.9404999992,
      "d": 194.44436666669208,
      "v": 69
    },
    {
      "midi": 47,
      "hit": false,
      "t": 148923.55154166662,
      "d": 173.61104166667792,
      "v": 97
    },
    {
      "midi": 52,
      "hit": false,
      "t": 149131.88479166664,
      "d": 145.83327500001178,
      "v": 121
    },
    {
      "midi": 69,
      "hit": false,
      "t": 149166.60699999923,
      "d": 347.22208333332674,
      "v": 105
    },
    {
      "midi": 52,
      "hit": false,
      "t": 149548.55129166666,
      "d": 659.7219583333354,
      "v": 125
    },
    {
      "midi": 69,
      "hit": false,
      "t": 149583.27349999922,
      "d": 13.88888333333307,
      "v": 5
    },
    {
      "midi": 67,
      "hit": false,
      "t": 149583.27349999922,
      "d": 499.9997999999905,
      "v": 105
    },
    {
      "midi": 66,
      "hit": false,
      "t": 149999.93999999922,
      "d": 451.3887083333393,
      "v": 125
    },
    {
      "midi": 52,
      "hit": false,
      "t": 150381.88429166668,
      "d": 368.0554083333409,
      "v": 121
    },
    {
      "midi": 64,
      "hit": false,
      "t": 150416.6064999992,
      "d": 111.11106666669366,
      "v": 57
    },
    {
      "midi": 48,
      "hit": false,
      "t": 150798.5507916667,
      "d": 736.1108166666527,
      "v": 117
    },
    {
      "midi": 60,
      "hit": false,
      "t": 150833.27299999926,
      "d": 256.94434166667634,
      "v": 73
    },
    {
      "midi": 67,
      "hit": false,
      "t": 150833.27299999926,
      "d": 326.3887583333417,
      "v": 81
    },
    {
      "midi": 64,
      "hit": false,
      "t": 150833.27299999926,
      "d": 368.0554083333409,
      "v": 85
    },
    {
      "midi": 48,
      "hit": false,
      "t": 150833.27299999926,
      "d": 979.1662750000542,
      "v": 61
    },
    {
      "midi": 60,
      "hit": false,
      "t": 151249.93949999928,
      "d": 76.38885833334643,
      "v": 33
    },
    {
      "midi": 60,
      "hit": false,
      "t": 151631.88379166668,
      "d": 222.2221333333291,
      "v": 125
    },
    {
      "midi": 64,
      "hit": false,
      "t": 151666.6059999993,
      "d": 34.722208333347226,
      "v": 81
    },
    {
      "midi": 60,
      "hit": false,
      "t": 151666.6059999993,
      "d": 48.611091666680295,
      "v": 77
    },
    {
      "midi": 67,
      "hit": false,
      "t": 151666.6059999993,
      "d": 48.611091666680295,
      "v": 81
    },
    {
      "midi": 70,
      "hit": false,
      "t": 151694.3837666666,
      "d": 1965.276991666673,
      "v": 117
    },
    {
      "midi": 58,
      "hit": false,
      "t": 152048.55029166667,
      "d": 1930.5547833333258,
      "v": 125
    },
    {
      "midi": 58,
      "hit": false,
      "t": 152083.27249999932,
      "d": 208.33325000002515,
      "v": 45
    },
    {
      "midi": 62,
      "hit": false,
      "t": 152083.27249999932,
      "d": 555.5553333333519,
      "v": 109
    },
    {
      "midi": 65,
      "hit": false,
      "t": 152083.27249999932,
      "d": 555.5553333333519,
      "v": 121
    },
    {
      "midi": 48,
      "hit": false,
      "t": 152083.27249999932,
      "d": 1368.055008333351,
      "v": 89
    },
    {
      "midi": 58,
      "hit": false,
      "t": 152916.60549999934,
      "d": 291.66654999999446,
      "v": 25
    },
    {
      "midi": 58,
      "hit": false,
      "t": 153333.27199999933,
      "d": 76.38885833334643,
      "v": 1
    },
    {
      "midi": 65,
      "hit": false,
      "t": 153333.27199999933,
      "d": 326.3887583333417,
      "v": 89
    },
    {
      "midi": 62,
      "hit": false,
      "t": 153333.27199999933,
      "d": 409.7220583333401,
      "v": 93
    },
    {
      "midi": 58,
      "hit": false,
      "t": 153749.93849999935,
      "d": 41.66664999999921,
      "v": 41
    },
    {
      "midi": 55,
      "hit": false,
      "t": 154131.88279166666,
      "d": 1409.721658333321,
      "v": 113
    },
    {
      "midi": 67,
      "hit": false,
      "t": 154166.60499999937,
      "d": 347.22208333332674,
      "v": 85
    },
    {
      "midi": 74,
      "hit": false,
      "t": 154166.60499999937,
      "d": 395.83317500000703,
      "v": 85
    },
    {
      "midi": 71,
      "hit": false,
      "t": 154166.60499999937,
      "d": 458.3331500000204,
      "v": 97
    },
    {
      "midi": 43,
      "hit": false,
      "t": 154166.60499999937,
      "d": 2715.276691666746,
      "v": 93
    },
    {
      "midi": 55,
      "hit": false,
      "t": 154166.60499999937,
      "d": 2888.887733333424,
      "v": 69
    },
    {
      "midi": 67,
      "hit": false,
      "t": 154999.93799999938,
      "d": 173.61104166667792,
      "v": 41
    },
    {
      "midi": 84,
      "hit": false,
      "t": 155416.60449999993,
      "d": 222.2221333333291,
      "v": 117
    },
    {
      "midi": 50,
      "hit": false,
      "t": 155590.21554166666,
      "d": 138.8888333333307,
      "v": 97
    },
    {
      "midi": 83,
      "hit": false,
      "t": 155624.93774999992,
      "d": 277.7776666666614,
      "v": 125
    },
    {
      "midi": 55,
      "hit": false,
      "t": 155798.54879166666,
      "d": 104.16662500001257,
      "v": 105
    },
    {
      "midi": 67,
      "hit": false,
      "t": 155833.2709999994,
      "d": 90.2777416666795,
      "v": 61
    },
    {
      "midi": 71,
      "hit": false,
      "t": 155833.2709999994,
      "d": 187.499925000011,
      "v": 69
    },
    {
      "midi": 74,
      "hit": false,
      "t": 155833.2709999994,
      "d": 194.44436666669208,
      "v": 69
    },
    {
      "midi": 84,
      "hit": false,
      "t": 155833.27099999992,
      "d": 243.05545833334327,
      "v": 125
    },
    {
      "midi": 86,
      "hit": false,
      "t": 156041.60424999992,
      "d": 1847.2214833333564,
      "v": 105
    },
    {
      "midi": 55,
      "hit": false,
      "t": 156215.21529166668,
      "d": 701.3886083333346,
      "v": 105
    },
    {
      "midi": 67,
      "hit": false,
      "t": 156249.93749999942,
      "d": 118.05550833334564,
      "v": 5
    },
    {
      "midi": 67,
      "hit": false,
      "t": 156666.60399999944,
      "d": 124.99994999999763,
      "v": 57
    },
    {
      "midi": 72,
      "hit": false,
      "t": 156666.60399999944,
      "d": 249.99990000002435,
      "v": 65
    },
    {
      "midi": 71,
      "hit": false,
      "t": 156874.93724999944,
      "d": 222.22213333335822,
      "v": 57
    },
    {
      "midi": 55,
      "hit": false,
      "t": 157048.5482916667,
      "d": 229.1665750000102,
      "v": 113
    },
    {
      "midi": 69,
      "hit": false,
      "t": 157083.27049999946,
      "d": 62.499975000013364,
      "v": 77
    },
    {
      "midi": 54,
      "hit": false,
      "t": 157465.21479166672,
      "d": 1437.4994249999872,
      "v": 125
    },
    {
      "midi": 62,
      "hit": false,
      "t": 157499.93699999948,
      "d": 256.94434166667634,
      "v": 81
    },
    {
      "midi": 69,
      "hit": false,
      "t": 157499.93699999948,
      "d": 291.66655000002356,
      "v": 93
    },
    {
      "midi": 66,
      "hit": false,
      "t": 157499.93699999948,
      "d": 381.94429166670307,
      "v": 69
    },
    {
      "midi": 54,
      "hit": false,
      "t": 157499.93699999948,
      "d": 3097.220983333449,
      "v": 85
    },
    {
      "midi": 62,
      "hit": false,
      "t": 158333.26999999952,
      "d": 222.2221333333291,
      "v": 41
    },
    {
      "midi": 69,
      "hit": false,
      "t": 158749.93649999952,
      "d": 76.38885833334643,
      "v": 49
    },
    {
      "midi": 62,
      "hit": false,
      "t": 158749.93649999952,
      "d": 118.05550833334564,
      "v": 49
    },
    {
      "midi": 66,
      "hit": false,
      "t": 158749.93649999952,
      "d": 124.99995000002673,
      "v": 69
    },
    {
      "midi": 81,
      "hit": false,
      "t": 158749.93649999995,
      "d": 187.499925000011,
      "v": 121
    },
    {
      "midi": 50,
      "hit": false,
      "t": 158923.54754166672,
      "d": 180.5554833333299,
      "v": 121
    },
    {
      "midi": 83,
      "hit": false,
      "t": 158958.26974999998,
      "d": 173.61104166667792,
      "v": 121
    },
    {
      "midi": 54,
      "hit": false,
      "t": 159131.8807916667,
      "d": 124.99994999999763,
      "v": 125
    },
    {
      "midi": 66,
      "hit": false,
      "t": 159166.60299999954,
      "d": 55.55553333333228,
      "v": 57
    },
    {
      "midi": 69,
      "hit": false,
      "t": 159166.60299999954,
      "d": 180.5554833333299,
      "v": 69
    },
    {
      "midi": 62,
      "hit": false,
      "t": 159166.60299999954,
      "d": 243.05545833334327,
      "v": 69
    },
    {
      "midi": 90,
      "hit": false,
      "t": 159166.603,
      "d": 1604.1660250000132,
      "v": 125
    },
    {
      "midi": 83,
      "hit": false,
      "t": 159166.603,
      "d": 1611.1104666666943,
      "v": 125
    },
    {
      "midi": 54,
      "hit": false,
      "t": 159548.5472916667,
      "d": 680.5552833333204,
      "v": 125
    },
    {
      "midi": 62,
      "hit": false,
      "t": 159583.26949999956,
      "d": 76.38885833334643,
      "v": 49
    },
    {
      "midi": 62,
      "hit": false,
      "t": 159999.93599999958,
      "d": 173.61104166667792,
      "v": 73
    },
    {
      "midi": 67,
      "hit": false,
      "t": 159999.93599999958,
      "d": 270.8332250000094,
      "v": 81
    },
    {
      "midi": 54,
      "hit": false,
      "t": 160381.8802916667,
      "d": 243.05545833334327,
      "v": 125
    },
    {
      "midi": 62,
      "hit": false,
      "t": 160416.6024999996,
      "d": 55.55553333333228,
      "v": 65
    },
    {
      "midi": 66,
      "hit": false,
      "t": 160416.6024999996,
      "d": 69.44441666666535,
      "v": 117
    },
    {
      "midi": 52,
      "hit": false,
      "t": 160798.5467916667,
      "d": 1430.5549833333353,
      "v": 125
    },
    {
      "midi": 64,
      "hit": false,
      "t": 160833.26899999962,
      "d": 187.499925000011,
      "v": 93
    },
    {
      "midi": 71,
      "hit": false,
      "t": 160833.26899999962,
      "d": 256.94434166667634,
      "v": 105
    },
    {
      "midi": 67,
      "hit": false,
      "t": 160833.26899999962,
      "d": 333.33320000002277,
      "v": 97
    },
    {
      "midi": 52,
      "hit": false,
      "t": 160833.26899999962,
      "d": 3249.998700000113,
      "v": 77
    },
    {
      "midi": 64,
      "hit": false,
      "t": 161249.93549999964,
      "d": 159.72215833334485,
      "v": 29
    },
    {
      "midi": 64,
      "hit": false,
      "t": 161666.60199999966,
      "d": 83.33329999999842,
      "v": 33
    },
    {
      "midi": 66,
      "hit": false,
      "t": 162083.26849999966,
      "d": 215.27769166667713,
      "v": 125
    },
    {
      "midi": 78,
      "hit": false,
      "t": 162083.26850000003,
      "d": 222.2221333333291,
      "v": 125
    },
    {
      "midi": 47,
      "hit": false,
      "t": 162256.8795416667,
      "d": 166.66659999999683,
      "v": 113
    },
    {
      "midi": 79,
      "hit": false,
      "t": 162291.60175000003,
      "d": 145.83327500001178,
      "v": 109
    },
    {
      "midi": 53,
      "hit": false,
      "t": 162465.2127916667,
      "d": 27.77776666666614,
      "v": 105
    },
    {
      "midi": 52,
      "hit": false,
      "t": 162465.2127916667,
      "d": 104.16662500001257,
      "v": 105
    },
    {
      "midi": 64,
      "hit": false,
      "t": 162499.93499999968,
      "d": 173.61104166667792,
      "v": 93
    },
    {
      "midi": 67,
      "hit": false,
      "t": 162499.93499999968,
      "d": 319.4443166666897,
      "v": 101
    },
    {
      "midi": 88,
      "hit": false,
      "t": 162499.93500000006,
      "d": 1354.1661249999888,
      "v": 125
    },
    {
      "midi": 79,
      "hit": false,
      "t": 162499.93500000006,
      "d": 1423.6105416666542,
      "v": 105
    },
    {
      "midi": 52,
      "hit": false,
      "t": 162881.87929166673,
      "d": 638.8886333333212,
      "v": 121
    },
    {
      "midi": 64,
      "hit": false,
      "t": 162916.6014999997,
      "d": 159.72215833334485,
      "v": 45
    },
    {
      "midi": 64,
      "hit": false,
      "t": 163333.26799999972,
      "d": 124.99994999999763,
      "v": 73
    },
    {
      "midi": 69,
      "hit": false,
      "t": 163333.26799999972,
      "d": 291.66654999999446,
      "v": 93
    },
    {
      "midi": 52,
      "hit": false,
      "t": 163715.2122916667,
      "d": 416.6664999999921,
      "v": 125
    },
    {
      "midi": 64,
      "hit": false,
      "t": 163749.9344999997,
      "d": 76.38885833334643,
      "v": 81
    },
    {
      "midi": 48,
      "hit": false,
      "t": 164131.8787916667,
      "d": 798.610791666666,
      "v": 125
    },
    {
      "midi": 60,
      "hit": false,
      "t": 164166.60099999973,
      "d": 229.1665750000102,
      "v": 81
    },
    {
      "midi": 67,
      "hit": false,
      "t": 164166.60099999973,
      "d": 319.4443166666897,
      "v": 113
    },
    {
      "midi": 64,
      "hit": false,
      "t": 164166.60099999973,
      "d": 354.1665250000369,
      "v": 105
    },
    {
      "midi": 48,
      "hit": false,
      "t": 164166.60099999973,
      "d": 1048.6106916667777,
      "v": 65
    },
    {
      "midi": 60,
      "hit": false,
      "t": 164583.26749999978,
      "d": 90.2777416666795,
      "v": 37
    },
    {
      "midi": 60,
      "hit": false,
      "t": 164965.21179166672,
      "d": 243.05545833334327,
      "v": 125
    },
    {
      "midi": 64,
      "hit": false,
      "t": 164999.9339999998,
      "d": 34.722208333347226,
      "v": 69
    },
    {
      "midi": 67,
      "hit": false,
      "t": 164999.9339999998,
      "d": 41.66665000002831,
      "v": 93
    },
    {
      "midi": 60,
      "hit": false,
      "t": 164999.9339999998,
      "d": 55.55553333336138,
      "v": 105
    },
    {
      "midi": 84,
      "hit": false,
      "t": 164999.93400000004,
      "d": 62.499975000013364,
      "v": 117
    },
    {
      "midi": 91,
      "hit": false,
      "t": 164999.93400000004,
      "d": 62.499975000013364,
      "v": 121
    },
    {
      "midi": 88,
      "hit": false,
      "t": 164999.93400000004,
      "d": 76.38885833334643,
      "v": 125
    },
    {
      "midi": 58,
      "hit": false,
      "t": 165381.87829166674,
      "d": 1826.3881583333132,
      "v": 125
    },
    {
      "midi": 62,
      "hit": false,
      "t": 165416.60049999985,
      "d": 1479.1660750000156,
      "v": 93
    },
    {
      "midi": 65,
      "hit": false,
      "t": 165416.60049999985,
      "d": 1479.1660750000156,
      "v": 93
    },
    {
      "midi": 48,
      "hit": false,
      "t": 165416.60049999985,
      "d": 1493.0549583333486,
      "v": 105
    },
    {
      "midi": 58,
      "hit": false,
      "t": 165416.60049999985,
      "d": 1506.9438416666817,
      "v": 89
    },
    {
      "midi": 89,
      "hit": false,
      "t": 165416.60050000006,
      "d": 1680.5548833333305,
      "v": 117
    },
    {
      "midi": 82,
      "hit": false,
      "t": 165416.60050000006,
      "d": 1687.4993250000116,
      "v": 69
    },
    {
      "midi": 86,
      "hit": false,
      "t": 165416.60050000006,
      "d": 1687.4993250000116,
      "v": 89
    },
    {
      "midi": 50,
      "hit": false,
      "t": 167486.04411666672,
      "d": 1680.5548833333596,
      "v": 125
    },
    {
      "midi": 62,
      "hit": false,
      "t": 167499.93299999987,
      "d": 284.7221083333425,
      "v": 61
    },
    {
      "midi": 69,
      "hit": false,
      "t": 167499.93299999987,
      "d": 354.1665250000078,
      "v": 77
    },
    {
      "midi": 66,
      "hit": false,
      "t": 167499.93299999987,
      "d": 361.1109666666889,
      "v": 73
    },
    {
      "midi": 74,
      "hit": false,
      "t": 167499.93300000008,
      "d": 1715.2770916666777,
      "v": 109
    },
    {
      "midi": 38,
      "hit": false,
      "t": 167534.65520833322,
      "d": 951.3885083333589,
      "v": 65
    },
    {
      "midi": 50,
      "hit": false,
      "t": 167534.65520833322,
      "d": 951.3885083333589,
      "v": 57
    },
    {
      "midi": 62,
      "hit": false,
      "t": 167930.48838333323,
      "d": 69.44441666666535,
      "v": 13
    },
    {
      "midi": 62,
      "hit": false,
      "t": 168340.21044166657,
      "d": 243.05545833334327,
      "v": 65
    },
    {
      "midi": 66,
      "hit": false,
      "t": 168340.21044166657,
      "d": 270.8332250000094,
      "v": 81
    },
    {
      "midi": 69,
      "hit": false,
      "t": 168347.15488333325,
      "d": 270.8332250000094,
      "v": 69
    },
    {
      "midi": 51,
      "hit": false,
      "t": 169117.9879083334,
      "d": 1562.499375000014,
      "v": 125
    },
    {
      "midi": 75,
      "hit": false,
      "t": 169159.65455833342,
      "d": 1541.6660499999998,
      "v": 125
    },
    {
      "midi": 66,
      "hit": false,
      "t": 169173.54344166658,
      "d": 388.88873333335505,
      "v": 81
    },
    {
      "midi": 63,
      "hit": false,
      "t": 169173.54344166658,
      "d": 409.7220583333692,
      "v": 77
    },
    {
      "midi": 59,
      "hit": false,
      "t": 169180.48788333326,
      "d": 263.8887833333283,
      "v": 57
    },
    {
      "midi": 51,
      "hit": false,
      "t": 169194.3767666666,
      "d": 958.3329500000691,
      "v": 33
    },
    {
      "midi": 39,
      "hit": false,
      "t": 169194.3767666666,
      "d": 979.1662750000833,
      "v": 69
    },
    {
      "midi": 59,
      "hit": false,
      "t": 169590.20994166663,
      "d": 76.38885833334643,
      "v": 45
    },
    {
      "midi": 59,
      "hit": false,
      "t": 169992.98755833332,
      "d": 222.22213333335822,
      "v": 93
    },
    {
      "midi": 66,
      "hit": false,
      "t": 169992.98755833332,
      "d": 388.88873333335505,
      "v": 89
    },
    {
      "midi": 63,
      "hit": false,
      "t": 169992.98755833332,
      "d": 395.83317500003614,
      "v": 97
    },
    {
      "midi": 59,
      "hit": false,
      "t": 170402.7096166667,
      "d": 97.22218333333149,
      "v": 49
    },
    {
      "midi": 40,
      "hit": false,
      "t": 170812.43167500003,
      "d": 1520.832725000102,
      "v": 57
    },
    {
      "midi": 52,
      "hit": false,
      "t": 170819.37611666674,
      "d": 1576.388258333347,
      "v": 93
    },
    {
      "midi": 76,
      "hit": false,
      "t": 170819.37611666677,
      "d": 3236.1098166666634,
      "v": 125
    },
    {
      "midi": 64,
      "hit": false,
      "t": 170826.32055833336,
      "d": 256.94434166667634,
      "v": 57
    },
    {
      "midi": 71,
      "hit": false,
      "t": 170826.32055833336,
      "d": 305.55543333335663,
      "v": 65
    },
    {
      "midi": 67,
      "hit": false,
      "t": 170826.32055833336,
      "d": 361.1109666666889,
      "v": 77
    },
    {
      "midi": 52,
      "hit": false,
      "t": 170826.32055833336,
      "d": 1409.7216583334375,
      "v": 37
    },
    {
      "midi": 64,
      "hit": false,
      "t": 171256.87594166672,
      "d": 270.8332250000094,
      "v": 49
    },
    {
      "midi": 67,
      "hit": false,
      "t": 171465.2091916667,
      "d": 97.22218333336059,
      "v": 61
    },
    {
      "midi": 71,
      "hit": false,
      "t": 171652.70911666675,
      "d": 381.94429166670307,
      "v": 85
    },
    {
      "midi": 64,
      "hit": false,
      "t": 171666.5980000001,
      "d": 201.38880833334406,
      "v": 77
    },
    {
      "midi": 67,
      "hit": false,
      "t": 171666.5980000001,
      "d": 249.99990000002435,
      "v": 65
    },
    {
      "midi": 64,
      "hit": false,
      "t": 172069.3756166668,
      "d": 55.55553333333228,
      "v": 57
    },
    {
      "midi": 45,
      "hit": false,
      "t": 172409.65325833342,
      "d": 888.8885333333455,
      "v": 125
    },
    {
      "midi": 64,
      "hit": false,
      "t": 172492.9865583335,
      "d": 361.1109666666889,
      "v": 69
    },
    {
      "midi": 60,
      "hit": false,
      "t": 172492.9865583335,
      "d": 402.7776166666881,
      "v": 65
    },
    {
      "midi": 57,
      "hit": false,
      "t": 172499.9310000002,
      "d": 243.05545833334327,
      "v": 65
    },
    {
      "midi": 45,
      "hit": false,
      "t": 172499.9310000002,
      "d": 763.888583333377,
      "v": 61
    },
    {
      "midi": 57,
      "hit": false,
      "t": 172902.70861666687,
      "d": 62.499975000013364,
      "v": 41
    },
    {
      "midi": 47,
      "hit": false,
      "t": 173263.81958333342,
      "d": 763.8885833333479,
      "v": 125
    },
    {
      "midi": 62,
      "hit": false,
      "t": 173347.15288333356,
      "d": 312.4998750000086,
      "v": 77
    },
    {
      "midi": 55,
      "hit": false,
      "t": 173361.0417666669,
      "d": 201.38880833334406,
      "v": 81
    },
    {
      "midi": 59,
      "hit": false,
      "t": 173361.0417666669,
      "d": 354.1665250000078,
      "v": 69
    },
    {
      "midi": 47,
      "hit": false,
      "t": 173367.98620833358,
      "d": 361.1109666666598,
      "v": 73
    },
    {
      "midi": 55,
      "hit": false,
      "t": 173749.93050000025,
      "d": 55.55553333333228,
      "v": 41
    },
    {
      "midi": 50,
      "hit": false,
      "t": 174111.04146666676,
      "d": 1131.9439916666597,
      "v": 121
    },
    {
      "midi": 74,
      "hit": false,
      "t": 174117.98590833344,
      "d": 1576.388258333347,
      "v": 93
    },
    {
      "midi": 62,
      "hit": false,
      "t": 174187.43032500026,
      "d": 236.11101666669128,
      "v": 61
    },
    {
      "midi": 69,
      "hit": false,
      "t": 174187.43032500026,
      "d": 305.55543333335663,
      "v": 69
    },
    {
      "midi": 66,
      "hit": false,
      "t": 174187.43032500026,
      "d": 333.33320000002277,
      "v": 57
    },
    {
      "midi": 38,
      "hit": false,
      "t": 174201.3192083336,
      "d": 1020.8329250000534,
      "v": 57
    },
    {
      "midi": 50,
      "hit": false,
      "t": 174208.26365000027,
      "d": 1034.7218083333864,
      "v": 41
    },
    {
      "midi": 62,
      "hit": false,
      "t": 174604.09682500028,
      "d": 263.8887833333574,
      "v": 53
    },
    {
      "midi": 66,
      "hit": false,
      "t": 174791.5967500003,
      "d": 104.16662500001257,
      "v": 37
    },
    {
      "midi": 69,
      "hit": false,
      "t": 174999.9300000003,
      "d": 291.66655000002356,
      "v": 73
    },
    {
      "midi": 62,
      "hit": false,
      "t": 175013.81888333365,
      "d": 194.44436666666297,
      "v": 61
    },
    {
      "midi": 66,
      "hit": false,
      "t": 175013.81888333365,
      "d": 277.7776666666905,
      "v": 93
    },
    {
      "midi": 50,
      "hit": false,
      "t": 175361.04096666677,
      "d": 388.88873333332594,
      "v": 125
    },
    {
      "midi": 62,
      "hit": false,
      "t": 175402.707616667,
      "d": 62.499975000013364,
      "v": 57
    },
    {
      "midi": 51,
      "hit": false,
      "t": 175784.65190833344,
      "d": 1562.499375000014,
      "v": 117
    },
    {
      "midi": 75,
      "hit": false,
      "t": 175805.48523333346,
      "d": 1597.221583333332,
      "v": 117
    },
    {
      "midi": 63,
      "hit": false,
      "t": 175826.3185583337,
      "d": 312.4998750000086,
      "v": 89
    },
    {
      "midi": 66,
      "hit": false,
      "t": 175826.3185583337,
      "d": 333.33320000002277,
      "v": 65
    },
    {
      "midi": 59,
      "hit": false,
      "t": 175840.20744166704,
      "d": 222.2221333333291,
      "v": 53
    },
    {
      "midi": 39,
      "hit": false,
      "t": 175840.20744166704,
      "d": 951.388508333388,
      "v": 69
    },
    {
      "midi": 51,
      "hit": false,
      "t": 175840.20744166704,
      "d": 951.388508333388,
      "v": 77
    },
    {
      "midi": 59,
      "hit": false,
      "t": 176222.15173333374,
      "d": 180.5554833333299,
      "v": 41
    },
    {
      "midi": 59,
      "hit": false,
      "t": 176645.7626750004,
      "d": 229.1665750000102,
      "v": 65
    },
    {
      "midi": 63,
      "hit": false,
      "t": 176645.7626750004,
      "d": 361.1109666666889,
      "v": 89
    },
    {
      "midi": 66,
      "hit": false,
      "t": 176645.7626750004,
      "d": 374.999850000022,
      "v": 97
    },
    {
      "midi": 59,
      "hit": false,
      "t": 177055.48473333378,
      "d": 48.611091666680295,
      "v": 57
    },
    {
      "midi": 52,
      "hit": false,
      "t": 177402.7068166668,
      "d": 1173.610641666659,
      "v": 125
    },
    {
      "midi": 64,
      "hit": false,
      "t": 177479.09567500046,
      "d": 208.33325000002515,
      "v": 77
    },
    {
      "midi": 71,
      "hit": false,
      "t": 177479.09567500046,
      "d": 291.66655000002356,
      "v": 81
    },
    {
      "midi": 40,
      "hit": false,
      "t": 177479.09567500046,
      "d": 1111.1106666667038,
      "v": 65
    },
    {
      "midi": 76,
      "hit": false,
      "t": 177486.0401166668,
      "d": 1527.7771666666667,
      "v": 125
    },
    {
      "midi": 67,
      "hit": false,
      "t": 177499.92900000047,
      "d": 298.61099166667555,
      "v": 65
    },
    {
      "midi": 52,
      "hit": false,
      "t": 177499.92900000047,
      "d": 1111.1106666667038,
      "v": 57
    },
    {
      "midi": 64,
      "hit": false,
      "t": 177895.76217500048,
      "d": 208.33324999999604,
      "v": 49
    },
    {
      "midi": 64,
      "hit": false,
      "t": 178298.53979166714,
      "d": 201.38880833334406,
      "v": 73
    },
    {
      "midi": 71,
      "hit": false,
      "t": 178305.48423333382,
      "d": 277.7776666666614,
      "v": 69
    },
    {
      "midi": 67,
      "hit": false,
      "t": 178305.48423333382,
      "d": 312.4998750000377,
      "v": 69
    },
    {
      "midi": 52,
      "hit": false,
      "t": 178715.20629166678,
      "d": 326.3887583333417,
      "v": 97
    },
    {
      "midi": 64,
      "hit": false,
      "t": 178722.15073333387,
      "d": 34.722208333347226,
      "v": 17
    },
    {
      "midi": 77,
      "hit": false,
      "t": 179076.31725833347,
      "d": 1277.7772666666715,
      "v": 125
    },
    {
      "midi": 53,
      "hit": false,
      "t": 179097.15058333345,
      "d": 1215.2772916666581,
      "v": 125
    },
    {
      "midi": 65,
      "hit": false,
      "t": 179145.76167500057,
      "d": 236.11101666669128,
      "v": 65
    },
    {
      "midi": 72,
      "hit": false,
      "t": 179152.70611666725,
      "d": 305.55543333335663,
      "v": 109
    },
    {
      "midi": 69,
      "hit": false,
      "t": 179152.70611666725,
      "d": 333.33320000002277,
      "v": 85
    },
    {
      "midi": 53,
      "hit": false,
      "t": 179152.70611666725,
      "d": 1277.7772666667006,
      "v": 61
    },
    {
      "midi": 41,
      "hit": false,
      "t": 179152.70611666725,
      "d": 1284.7217083333817,
      "v": 81
    },
    {
      "midi": 65,
      "hit": false,
      "t": 179590.2059416673,
      "d": 236.11101666666218,
      "v": 57
    },
    {
      "midi": 55,
      "hit": false,
      "t": 184131.87079166676,
      "d": 1402.7772166666691,
      "v": 109
    },
    {
      "midi": 67,
      "hit": false,
      "t": 184166.59300000063,
      "d": 263.8887833333283,
      "v": 69
    },
    {
      "midi": 74,
      "hit": false,
      "t": 184166.59300000063,
      "d": 298.61099166667555,
      "v": 65
    },
    {
      "midi": 71,
      "hit": false,
      "t": 184166.59300000063,
      "d": 354.1665250000078,
      "v": 65
    },
    {
      "midi": 43,
      "hit": false,
      "t": 184166.59300000063,
      "d": 2701.387808333384,
      "v": 81
    },
    {
      "midi": 55,
      "hit": false,
      "t": 184166.59300000063,
      "d": 2888.887733333395,
      "v": 57
    },
    {
      "midi": 50,
      "hit": false,
      "t": 185590.20354166676,
      "d": 208.33324999999604,
      "v": 77
    },
    {
      "midi": 55,
      "hit": false,
      "t": 185798.53679166676,
      "d": 118.05550833334564,
      "v": 93
    },
    {
      "midi": 67,
      "hit": false,
      "t": 185833.25900000063,
      "d": 104.16662500001257,
      "v": 57
    },
    {
      "midi": 71,
      "hit": false,
      "t": 185833.25900000063,
      "d": 173.61104166667792,
      "v": 57
    },
    {
      "midi": 74,
      "hit": false,
      "t": 185833.25900000063,
      "d": 180.555483333359,
      "v": 33
    },
    {
      "midi": 55,
      "hit": false,
      "t": 186215.20329166678,
      "d": 701.3886083333346,
      "v": 121
    },
    {
      "midi": 67,
      "hit": false,
      "t": 186249.92550000065,
      "d": 173.61104166667792,
      "v": 33
    },
    {
      "midi": 67,
      "hit": false,
      "t": 186666.59200000067,
      "d": 111.11106666666456,
      "v": 53
    },
    {
      "midi": 74,
      "hit": false,
      "t": 186666.59200000067,
      "d": 180.5554833333299,
      "v": 61
    },
    {
      "midi": 72,
      "hit": false,
      "t": 186874.9252500007,
      "d": 138.8888333333307,
      "v": 49
    },
    {
      "midi": 55,
      "hit": false,
      "t": 187048.5362916668,
      "d": 256.94434166667634,
      "v": 85
    },
    {
      "midi": 71,
      "hit": false,
      "t": 187083.2585000007,
      "d": 41.66664999999921,
      "v": 81
    },
    {
      "midi": 54,
      "hit": false,
      "t": 187465.20279166682,
      "d": 1479.1660750000156,
      "v": 125
    },
    {
      "midi": 62,
      "hit": false,
      "t": 187499.9250000007,
      "d": 312.4998750000086,
      "v": 57
    },
    {
      "midi": 69,
      "hit": false,
      "t": 187499.9250000007,
      "d": 374.999850000022,
      "v": 49
    },
    {
      "midi": 66,
      "hit": false,
      "t": 187499.9250000007,
      "d": 430.55538333335426,
      "v": 61
    },
    {
      "midi": 54,
      "hit": false,
      "t": 187499.9250000007,
      "d": 2881.943291666743,
      "v": 61
    },
    {
      "midi": 69,
      "hit": false,
      "t": 188749.92450000072,
      "d": 76.38885833334643,
      "v": 61
    },
    {
      "midi": 62,
      "hit": false,
      "t": 188749.92450000072,
      "d": 90.2777416666795,
      "v": 65
    },
    {
      "midi": 66,
      "hit": false,
      "t": 188749.92450000072,
      "d": 111.11106666669366,
      "v": 69
    },
    {
      "midi": 50,
      "hit": false,
      "t": 188923.53554166682,
      "d": 173.61104166667792,
      "v": 113
    },
    {
      "midi": 54,
      "hit": false,
      "t": 189131.86879166684,
      "d": 104.16662500001257,
      "v": 125
    },
    {
      "midi": 62,
      "hit": false,
      "t": 189166.59100000074,
      "d": 145.83327500001178,
      "v": 69
    },
    {
      "midi": 67,
      "hit": false,
      "t": 189166.59100000074,
      "d": 249.99990000002435,
      "v": 77
    },
    {
      "midi": 54,
      "hit": false,
      "t": 189548.53529166686,
      "d": 701.3886083333346,
      "v": 125
    },
    {
      "midi": 62,
      "hit": false,
      "t": 189999.92400000076,
      "d": 138.8888333333307,
      "v": 53
    },
    {
      "midi": 66,
      "hit": false,
      "t": 189999.92400000076,
      "d": 208.33324999999604,
      "v": 105
    },
    {
      "midi": 54,
      "hit": false,
      "t": 190381.86829166688,
      "d": 166.66659999999683,
      "v": 121
    },
    {
      "midi": 52,
      "hit": false,
      "t": 190798.53479166687,
      "d": 1388.888333333336,
      "v": 125
    },
    {
      "midi": 64,
      "hit": false,
      "t": 190833.25700000077,
      "d": 159.72215833334485,
      "v": 73
    },
    {
      "midi": 71,
      "hit": false,
      "t": 190833.25700000077,
      "d": 229.1665750000102,
      "v": 93
    },
    {
      "midi": 67,
      "hit": false,
      "t": 190833.25700000077,
      "d": 277.7776666666905,
      "v": 69
    },
    {
      "midi": 52,
      "hit": false,
      "t": 190833.25700000077,
      "d": 3194.4431666667224,
      "v": 69
    },
    {
      "midi": 64,
      "hit": false,
      "t": 191249.9235000008,
      "d": 187.499925000011,
      "v": 33
    },
    {
      "midi": 64,
      "hit": false,
      "t": 192083.2565000008,
      "d": 145.83327500001178,
      "v": 57
    },
    {
      "midi": 71,
      "hit": false,
      "t": 192083.2565000008,
      "d": 194.44436666669208,
      "v": 69
    },
    {
      "midi": 47,
      "hit": false,
      "t": 192256.86754166687,
      "d": 173.61104166667792,
      "v": 97
    },
    {
      "midi": 52,
      "hit": false,
      "t": 192465.2007916669,
      "d": 145.83327500001178,
      "v": 121
    },
    {
      "midi": 69,
      "hit": false,
      "t": 192499.92300000082,
      "d": 347.22208333332674,
      "v": 105
    },
    {
      "midi": 52,
      "hit": false,
      "t": 192881.86729166692,
      "d": 659.7219583333354,
      "v": 125
    },
    {
      "midi": 69,
      "hit": false,
      "t": 192916.58950000082,
      "d": 13.88888333333307,
      "v": 5
    },
    {
      "midi": 67,
      "hit": false,
      "t": 192916.58950000082,
      "d": 499.9997999999905,
      "v": 105
    },
    {
      "midi": 66,
      "hit": false,
      "t": 193333.2560000008,
      "d": 451.3887083333393,
      "v": 125
    },
    {
      "midi": 52,
      "hit": false,
      "t": 193715.20029166693,
      "d": 368.0554083333409,
      "v": 121
    },
    {
      "midi": 64,
      "hit": false,
      "t": 193749.9225000008,
      "d": 111.11106666669366,
      "v": 57
    },
    {
      "midi": 48,
      "hit": false,
      "t": 194131.86679166695,
      "d": 736.1108166666527,
      "v": 117
    },
    {
      "midi": 60,
      "hit": false,
      "t": 194166.58900000085,
      "d": 256.94434166667634,
      "v": 73
    },
    {
      "midi": 67,
      "hit": false,
      "t": 194166.58900000085,
      "d": 326.3887583333417,
      "v": 81
    },
    {
      "midi": 64,
      "hit": false,
      "t": 194166.58900000085,
      "d": 368.0554083333409,
      "v": 85
    },
    {
      "midi": 48,
      "hit": false,
      "t": 194166.58900000085,
      "d": 979.1662750000542,
      "v": 61
    },
    {
      "midi": 60,
      "hit": false,
      "t": 194583.25550000087,
      "d": 76.38885833334643,
      "v": 33
    },
    {
      "midi": 60,
      "hit": false,
      "t": 194965.19979166694,
      "d": 222.2221333333291,
      "v": 125
    },
    {
      "midi": 64,
      "hit": false,
      "t": 194999.9220000009,
      "d": 34.722208333347226,
      "v": 81
    },
    {
      "midi": 60,
      "hit": false,
      "t": 194999.9220000009,
      "d": 48.611091666680295,
      "v": 77
    },
    {
      "midi": 67,
      "hit": false,
      "t": 194999.9220000009,
      "d": 48.611091666680295,
      "v": 81
    },
    {
      "midi": 70,
      "hit": false,
      "t": 195027.6997666666,
      "d": 1965.276991666673,
      "v": 117
    },
    {
      "midi": 58,
      "hit": false,
      "t": 195381.86629166693,
      "d": 1937.4992250000068,
      "v": 125
    },
    {
      "midi": 58,
      "hit": false,
      "t": 195416.58850000091,
      "d": 208.33325000002515,
      "v": 45
    },
    {
      "midi": 62,
      "hit": false,
      "t": 195416.58850000091,
      "d": 555.5553333333519,
      "v": 109
    },
    {
      "midi": 65,
      "hit": false,
      "t": 195416.58850000091,
      "d": 555.5553333333519,
      "v": 121
    },
    {
      "midi": 48,
      "hit": false,
      "t": 195416.58850000091,
      "d": 1368.055008333351,
      "v": 89
    },
    {
      "midi": 58,
      "hit": false,
      "t": 196249.92150000093,
      "d": 291.66654999999446,
      "v": 25
    },
    {
      "midi": 58,
      "hit": false,
      "t": 196666.58800000092,
      "d": 76.38885833334643,
      "v": 1
    },
    {
      "midi": 65,
      "hit": false,
      "t": 196666.58800000092,
      "d": 326.3887583333417,
      "v": 89
    },
    {
      "midi": 62,
      "hit": false,
      "t": 196666.58800000092,
      "d": 402.7776166666881,
      "v": 93
    },
    {
      "midi": 58,
      "hit": false,
      "t": 197083.25450000094,
      "d": 41.66664999999921,
      "v": 41
    },
    {
      "midi": 55,
      "hit": false,
      "t": 197465.19879166695,
      "d": 1409.721658333321,
      "v": 113
    },
    {
      "midi": 67,
      "hit": false,
      "t": 197499.92100000096,
      "d": 347.22208333332674,
      "v": 85
    },
    {
      "midi": 74,
      "hit": false,
      "t": 197499.92100000096,
      "d": 395.83317500000703,
      "v": 85
    },
    {
      "midi": 71,
      "hit": false,
      "t": 197499.92100000096,
      "d": 458.3331500000204,
      "v": 97
    },
    {
      "midi": 43,
      "hit": false,
      "t": 197499.92100000096,
      "d": 2715.276691666775,
      "v": 93
    },
    {
      "midi": 55,
      "hit": false,
      "t": 197499.92100000096,
      "d": 2888.887733333453,
      "v": 69
    },
    {
      "midi": 67,
      "hit": false,
      "t": 198333.25400000098,
      "d": 173.61104166667792,
      "v": 41
    },
    {
      "midi": 84,
      "hit": false,
      "t": 198749.92050000015,
      "d": 222.2221333333291,
      "v": 117
    },
    {
      "midi": 50,
      "hit": false,
      "t": 198923.53154166695,
      "d": 138.8888333333307,
      "v": 97
    },
    {
      "midi": 83,
      "hit": false,
      "t": 198958.25375000015,
      "d": 277.7776666666614,
      "v": 125
    },
    {
      "midi": 55,
      "hit": false,
      "t": 199131.86479166694,
      "d": 104.16662500001257,
      "v": 105
    },
    {
      "midi": 84,
      "hit": false,
      "t": 199166.58700000015,
      "d": 243.05545833334327,
      "v": 125
    },
    {
      "midi": 67,
      "hit": false,
      "t": 199166.587000001,
      "d": 97.22218333333149,
      "v": 61
    },
    {
      "midi": 71,
      "hit": false,
      "t": 199166.587000001,
      "d": 187.499925000011,
      "v": 69
    },
    {
      "midi": 74,
      "hit": false,
      "t": 199166.587000001,
      "d": 201.38880833334406,
      "v": 69
    },
    {
      "midi": 86,
      "hit": false,
      "t": 199374.92025000014,
      "d": 1847.2214833333564,
      "v": 105
    },
    {
      "midi": 55,
      "hit": false,
      "t": 199548.53129166696,
      "d": 701.3886083333346,
      "v": 105
    },
    {
      "midi": 67,
      "hit": false,
      "t": 199583.253500001,
      "d": 118.05550833334564,
      "v": 5
    },
    {
      "midi": 67,
      "hit": false,
      "t": 199999.92000000103,
      "d": 131.9443916666787,
      "v": 57
    },
    {
      "midi": 72,
      "hit": false,
      "t": 199999.92000000103,
      "d": 249.99990000005346,
      "v": 65
    },
    {
      "midi": 71,
      "hit": false,
      "t": 200208.25325000106,
      "d": 222.22213333335822,
      "v": 57
    },
    {
      "midi": 55,
      "hit": false,
      "t": 200381.86429166698,
      "d": 229.1665750000102,
      "v": 113
    },
    {
      "midi": 69,
      "hit": false,
      "t": 200416.58650000108,
      "d": 55.55553333333228,
      "v": 77
    },
    {
      "midi": 54,
      "hit": false,
      "t": 200798.530791667,
      "d": 1437.4994249999872,
      "v": 125
    },
    {
      "midi": 62,
      "hit": false,
      "t": 200833.25300000107,
      "d": 256.94434166667634,
      "v": 81
    },
    {
      "midi": 69,
      "hit": false,
      "t": 200833.25300000107,
      "d": 291.66655000002356,
      "v": 93
    },
    {
      "midi": 66,
      "hit": false,
      "t": 200833.25300000107,
      "d": 381.94429166670307,
      "v": 69
    },
    {
      "midi": 54,
      "hit": false,
      "t": 200833.25300000107,
      "d": 3097.220983333449,
      "v": 85
    },
    {
      "midi": 62,
      "hit": false,
      "t": 201666.58600000112,
      "d": 222.2221333333291,
      "v": 41
    },
    {
      "midi": 81,
      "hit": false,
      "t": 202083.25250000018,
      "d": 194.44436666666297,
      "v": 121
    },
    {
      "midi": 69,
      "hit": false,
      "t": 202083.2525000011,
      "d": 76.38885833334643,
      "v": 49
    },
    {
      "midi": 62,
      "hit": false,
      "t": 202083.2525000011,
      "d": 118.05550833334564,
      "v": 49
    },
    {
      "midi": 66,
      "hit": false,
      "t": 202083.2525000011,
      "d": 124.99995000002673,
      "v": 69
    },
    {
      "midi": 50,
      "hit": false,
      "t": 202256.863541667,
      "d": 180.5554833333299,
      "v": 121
    },
    {
      "midi": 83,
      "hit": false,
      "t": 202291.58575000017,
      "d": 173.61104166667792,
      "v": 121
    },
    {
      "midi": 54,
      "hit": false,
      "t": 202465.196791667,
      "d": 124.99994999999763,
      "v": 125
    },
    {
      "midi": 90,
      "hit": false,
      "t": 202499.9190000002,
      "d": 1604.1660250000132,
      "v": 125
    },
    {
      "midi": 83,
      "hit": false,
      "t": 202499.9190000002,
      "d": 1611.1104666666943,
      "v": 125
    },
    {
      "midi": 66,
      "hit": false,
      "t": 202499.91900000113,
      "d": 55.55553333333228,
      "v": 57
    },
    {
      "midi": 69,
      "hit": false,
      "t": 202499.91900000113,
      "d": 180.5554833333299,
      "v": 69
    },
    {
      "midi": 62,
      "hit": false,
      "t": 202499.91900000113,
      "d": 243.05545833334327,
      "v": 69
    },
    {
      "midi": 54,
      "hit": false,
      "t": 202881.863291667,
      "d": 680.5552833333204,
      "v": 125
    },
    {
      "midi": 62,
      "hit": false,
      "t": 202916.58550000115,
      "d": 76.38885833334643,
      "v": 49
    },
    {
      "midi": 62,
      "hit": false,
      "t": 203333.25200000117,
      "d": 173.61104166667792,
      "v": 73
    },
    {
      "midi": 67,
      "hit": false,
      "t": 203333.25200000117,
      "d": 270.8332250000094,
      "v": 81
    },
    {
      "midi": 54,
      "hit": false,
      "t": 203715.19629166697,
      "d": 243.05545833334327,
      "v": 125
    },
    {
      "midi": 62,
      "hit": false,
      "t": 203749.9185000012,
      "d": 55.55553333333228,
      "v": 65
    },
    {
      "midi": 66,
      "hit": false,
      "t": 203749.9185000012,
      "d": 69.44441666666535,
      "v": 117
    },
    {
      "midi": 52,
      "hit": false,
      "t": 204131.862791667,
      "d": 1430.5549833333353,
      "v": 125
    },
    {
      "midi": 64,
      "hit": false,
      "t": 204166.5850000012,
      "d": 187.499925000011,
      "v": 93
    },
    {
      "midi": 71,
      "hit": false,
      "t": 204166.5850000012,
      "d": 256.94434166667634,
      "v": 105
    },
    {
      "midi": 67,
      "hit": false,
      "t": 204166.5850000012,
      "d": 333.33320000002277,
      "v": 97
    },
    {
      "midi": 52,
      "hit": false,
      "t": 204166.5850000012,
      "d": 3249.9987000000838,
      "v": 77
    },
    {
      "midi": 64,
      "hit": false,
      "t": 204583.25150000124,
      "d": 166.66659999999683,
      "v": 29
    },
    {
      "midi": 64,
      "hit": false,
      "t": 204999.91800000123,
      "d": 83.33329999999842,
      "v": 33
    },
    {
      "midi": 78,
      "hit": false,
      "t": 205416.58450000023,
      "d": 222.2221333333291,
      "v": 125
    },
    {
      "midi": 66,
      "hit": false,
      "t": 205416.58450000122,
      "d": 215.27769166667713,
      "v": 125
    },
    {
      "midi": 47,
      "hit": false,
      "t": 205590.195541667,
      "d": 159.72215833334485,
      "v": 113
    },
    {
      "midi": 79,
      "hit": false,
      "t": 205624.91775000023,
      "d": 145.83327500001178,
      "v": 109
    },
    {
      "midi": 53,
      "hit": false,
      "t": 205798.52879166702,
      "d": 27.77776666666614,
      "v": 105
    },
    {
      "midi": 52,
      "hit": false,
      "t": 205798.52879166702,
      "d": 104.16662500001257,
      "v": 105
    },
    {
      "midi": 88,
      "hit": false,
      "t": 205833.25100000025,
      "d": 1354.1661249999888,
      "v": 125
    },
    {
      "midi": 79,
      "hit": false,
      "t": 205833.25100000025,
      "d": 1423.6105416666542,
      "v": 105
    },
    {
      "midi": 64,
      "hit": false,
      "t": 205833.25100000124,
      "d": 173.61104166667792,
      "v": 93
    },
    {
      "midi": 67,
      "hit": false,
      "t": 205833.25100000124,
      "d": 319.4443166666897,
      "v": 101
    },
    {
      "midi": 52,
      "hit": false,
      "t": 206215.19529166704,
      "d": 638.8886333333212,
      "v": 121
    },
    {
      "midi": 64,
      "hit": false,
      "t": 206249.91750000126,
      "d": 159.72215833334485,
      "v": 45
    },
    {
      "midi": 64,
      "hit": false,
      "t": 206666.58400000128,
      "d": 124.99994999999763,
      "v": 73
    },
    {
      "midi": 69,
      "hit": false,
      "t": 206666.58400000128,
      "d": 291.66654999999446,
      "v": 93
    },
    {
      "midi": 52,
      "hit": false,
      "t": 207048.52829166703,
      "d": 416.6664999999921,
      "v": 125
    },
    {
      "midi": 64,
      "hit": false,
      "t": 207083.25050000128,
      "d": 76.38885833334643,
      "v": 81
    },
    {
      "midi": 48,
      "hit": false,
      "t": 207465.19479166702,
      "d": 798.610791666666,
      "v": 125
    },
    {
      "midi": 60,
      "hit": false,
      "t": 207499.9170000013,
      "d": 229.1665750000102,
      "v": 81
    },
    {
      "midi": 67,
      "hit": false,
      "t": 207499.9170000013,
      "d": 319.4443166666897,
      "v": 113
    },
    {
      "midi": 64,
      "hit": false,
      "t": 207499.9170000013,
      "d": 354.1665250000369,
      "v": 105
    },
    {
      "midi": 48,
      "hit": false,
      "t": 207499.9170000013,
      "d": 1048.6106916667777,
      "v": 65
    },
    {
      "midi": 60,
      "hit": false,
      "t": 207916.58350000135,
      "d": 90.2777416666795,
      "v": 37
    },
    {
      "midi": 60,
      "hit": false,
      "t": 208298.52779166703,
      "d": 243.05545833334327,
      "v": 125
    },
    {
      "midi": 84,
      "hit": false,
      "t": 208333.25000000023,
      "d": 62.499975000013364,
      "v": 117
    },
    {
      "midi": 91,
      "hit": false,
      "t": 208333.25000000023,
      "d": 62.499975000013364,
      "v": 121
    },
    {
      "midi": 88,
      "hit": false,
      "t": 208333.25000000023,
      "d": 76.38885833334643,
      "v": 125
    },
    {
      "midi": 64,
      "hit": false,
      "t": 208333.25000000137,
      "d": 34.722208333347226,
      "v": 69
    },
    {
      "midi": 67,
      "hit": false,
      "t": 208333.25000000137,
      "d": 41.66665000002831,
      "v": 93
    },
    {
      "midi": 60,
      "hit": false,
      "t": 208333.25000000137,
      "d": 62.49997500004247,
      "v": 105
    },
    {
      "midi": 58,
      "hit": false,
      "t": 208715.19429166705,
      "d": 1826.3881583333423,
      "v": 125
    },
    {
      "midi": 89,
      "hit": false,
      "t": 208749.91650000025,
      "d": 1680.5548833333305,
      "v": 117
    },
    {
      "midi": 82,
      "hit": false,
      "t": 208749.91650000025,
      "d": 1687.4993250000116,
      "v": 69
    },
    {
      "midi": 86,
      "hit": false,
      "t": 208749.91650000025,
      "d": 1687.4993250000116,
      "v": 89
    },
    {
      "midi": 62,
      "hit": false,
      "t": 208749.91650000142,
      "d": 1479.1660750000156,
      "v": 93
    },
    {
      "midi": 65,
      "hit": false,
      "t": 208749.91650000142,
      "d": 1479.1660750000156,
      "v": 93
    },
    {
      "midi": 48,
      "hit": false,
      "t": 208749.91650000142,
      "d": 1493.0549583333486,
      "v": 105
    },
    {
      "midi": 58,
      "hit": false,
      "t": 208749.91650000142,
      "d": 1506.9438416666817,
      "v": 89
    },
    {
      "midi": 55,
      "hit": false,
      "t": 210798.52679166707,
      "d": 1402.7772166666691,
      "v": 109
    },
    {
      "midi": 67,
      "hit": false,
      "t": 210833.24900000144,
      "d": 263.8887833333283,
      "v": 69
    },
    {
      "midi": 74,
      "hit": false,
      "t": 210833.24900000144,
      "d": 298.61099166667555,
      "v": 65
    },
    {
      "midi": 71,
      "hit": false,
      "t": 210833.24900000144,
      "d": 354.1665250000078,
      "v": 65
    },
    {
      "midi": 43,
      "hit": false,
      "t": 210833.24900000144,
      "d": 2694.443366666703,
      "v": 81
    },
    {
      "midi": 55,
      "hit": false,
      "t": 210833.24900000144,
      "d": 2888.8877333333658,
      "v": 57
    },
    {
      "midi": 50,
      "hit": false,
      "t": 212256.85954166707,
      "d": 208.33324999999604,
      "v": 77
    },
    {
      "midi": 55,
      "hit": false,
      "t": 212465.19279166707,
      "d": 118.05550833334564,
      "v": 93
    },
    {
      "midi": 67,
      "hit": false,
      "t": 212499.91500000143,
      "d": 104.16662500001257,
      "v": 57
    },
    {
      "midi": 71,
      "hit": false,
      "t": 212499.91500000143,
      "d": 173.61104166667792,
      "v": 57
    },
    {
      "midi": 74,
      "hit": false,
      "t": 212499.91500000143,
      "d": 180.555483333359,
      "v": 33
    },
    {
      "midi": 55,
      "hit": false,
      "t": 212881.8592916671,
      "d": 701.3886083333346,
      "v": 121
    },
    {
      "midi": 67,
      "hit": false,
      "t": 212916.58150000146,
      "d": 173.61104166667792,
      "v": 33
    },
    {
      "midi": 67,
      "hit": false,
      "t": 213333.24800000148,
      "d": 111.11106666666456,
      "v": 53
    },
    {
      "midi": 74,
      "hit": false,
      "t": 213333.24800000148,
      "d": 180.5554833333299,
      "v": 61
    },
    {
      "midi": 72,
      "hit": false,
      "t": 213541.58125000147,
      "d": 138.8888333333307,
      "v": 49
    },
    {
      "midi": 55,
      "hit": false,
      "t": 213715.1922916671,
      "d": 256.94434166667634,
      "v": 85
    },
    {
      "midi": 71,
      "hit": false,
      "t": 213749.91450000147,
      "d": 41.66664999999921,
      "v": 81
    },
    {
      "midi": 54,
      "hit": false,
      "t": 214131.85879166712,
      "d": 1479.1660750000156,
      "v": 125
    },
    {
      "midi": 62,
      "hit": false,
      "t": 214166.58100000146,
      "d": 312.4998750000086,
      "v": 57
    },
    {
      "midi": 69,
      "hit": false,
      "t": 214166.58100000146,
      "d": 368.0554083333409,
      "v": 49
    },
    {
      "midi": 66,
      "hit": false,
      "t": 214166.58100000146,
      "d": 430.55538333335426,
      "v": 61
    },
    {
      "midi": 54,
      "hit": false,
      "t": 214166.58100000146,
      "d": 2881.943291666743,
      "v": 61
    },
    {
      "midi": 69,
      "hit": false,
      "t": 215416.5805000015,
      "d": 76.38885833334643,
      "v": 61
    },
    {
      "midi": 62,
      "hit": false,
      "t": 215416.5805000015,
      "d": 97.22218333336059,
      "v": 65
    },
    {
      "midi": 66,
      "hit": false,
      "t": 215416.5805000015,
      "d": 111.11106666669366,
      "v": 69
    },
    {
      "midi": 50,
      "hit": false,
      "t": 215590.19154166713,
      "d": 173.61104166667792,
      "v": 113
    },
    {
      "midi": 54,
      "hit": false,
      "t": 215798.52479166715,
      "d": 104.16662500001257,
      "v": 125
    },
    {
      "midi": 62,
      "hit": false,
      "t": 215833.24700000152,
      "d": 145.83327500001178,
      "v": 69
    },
    {
      "midi": 67,
      "hit": false,
      "t": 215833.24700000152,
      "d": 249.99990000002435,
      "v": 77
    },
    {
      "midi": 54,
      "hit": false,
      "t": 216215.19129166717,
      "d": 701.3886083333346,
      "v": 125
    },
    {
      "midi": 62,
      "hit": false,
      "t": 216666.58000000153,
      "d": 138.8888333333307,
      "v": 53
    },
    {
      "midi": 66,
      "hit": false,
      "t": 216666.58000000153,
      "d": 208.33324999999604,
      "v": 105
    },
    {
      "midi": 54,
      "hit": false,
      "t": 217048.52429166719,
      "d": 159.72215833334485,
      "v": 121
    },
    {
      "midi": 52,
      "hit": false,
      "t": 217465.1907916672,
      "d": 1388.888333333336,
      "v": 125
    },
    {
      "midi": 64,
      "hit": false,
      "t": 217499.91300000157,
      "d": 159.72215833334485,
      "v": 73
    },
    {
      "midi": 71,
      "hit": false,
      "t": 217499.91300000157,
      "d": 229.1665750000102,
      "v": 93
    },
    {
      "midi": 67,
      "hit": false,
      "t": 217499.91300000157,
      "d": 277.7776666666905,
      "v": 69
    },
    {
      "midi": 52,
      "hit": false,
      "t": 217499.91300000157,
      "d": 3194.4431666667224,
      "v": 69
    },
    {
      "midi": 64,
      "hit": false,
      "t": 217916.5795000016,
      "d": 187.499925000011,
      "v": 33
    },
    {
      "midi": 64,
      "hit": false,
      "t": 218749.9125000016,
      "d": 145.83327500001178,
      "v": 57
    },
    {
      "midi": 71,
      "hit": false,
      "t": 218749.9125000016,
      "d": 194.44436666669208,
      "v": 69
    },
    {
      "midi": 47,
      "hit": false,
      "t": 218923.5235416672,
      "d": 173.61104166667792,
      "v": 97
    },
    {
      "midi": 52,
      "hit": false,
      "t": 219131.85679166723,
      "d": 145.83327500001178,
      "v": 121
    },
    {
      "midi": 69,
      "hit": false,
      "t": 219166.57900000163,
      "d": 347.22208333332674,
      "v": 105
    },
    {
      "midi": 52,
      "hit": false,
      "t": 219548.52329166725,
      "d": 659.7219583333354,
      "v": 125
    },
    {
      "midi": 69,
      "hit": false,
      "t": 219583.24550000162,
      "d": 13.88888333333307,
      "v": 5
    },
    {
      "midi": 67,
      "hit": false,
      "t": 219583.24550000162,
      "d": 499.9997999999905,
      "v": 105
    },
    {
      "midi": 66,
      "hit": false,
      "t": 219999.9120000016,
      "d": 451.3887083333393,
      "v": 125
    },
    {
      "midi": 52,
      "hit": false,
      "t": 220381.85629166727,
      "d": 368.0554083333409,
      "v": 121
    },
    {
      "midi": 64,
      "hit": false,
      "t": 220416.5785000016,
      "d": 111.11106666669366,
      "v": 57
    },
    {
      "midi": 48,
      "hit": false,
      "t": 220798.5227916673,
      "d": 736.1108166666527,
      "v": 117
    },
    {
      "midi": 60,
      "hit": false,
      "t": 220833.24500000165,
      "d": 256.94434166667634,
      "v": 73
    },
    {
      "midi": 67,
      "hit": false,
      "t": 220833.24500000165,
      "d": 326.3887583333417,
      "v": 81
    },
    {
      "midi": 64,
      "hit": false,
      "t": 220833.24500000165,
      "d": 368.0554083333409,
      "v": 85
    },
    {
      "midi": 48,
      "hit": false,
      "t": 220833.24500000165,
      "d": 979.1662750000542,
      "v": 61
    },
    {
      "midi": 60,
      "hit": false,
      "t": 221249.91150000168,
      "d": 76.38885833334643,
      "v": 33
    },
    {
      "midi": 60,
      "hit": false,
      "t": 221631.85579166727,
      "d": 222.2221333333291,
      "v": 125
    },
    {
      "midi": 64,
      "hit": false,
      "t": 221666.5780000017,
      "d": 34.722208333347226,
      "v": 81
    },
    {
      "midi": 60,
      "hit": false,
      "t": 221666.5780000017,
      "d": 48.611091666680295,
      "v": 77
    },
    {
      "midi": 67,
      "hit": false,
      "t": 221666.5780000017,
      "d": 48.611091666680295,
      "v": 81
    },
    {
      "midi": 70,
      "hit": false,
      "t": 221694.3557666666,
      "d": 1965.276991666673,
      "v": 117
    },
    {
      "midi": 58,
      "hit": false,
      "t": 222048.52229166726,
      "d": 1930.5547833333258,
      "v": 125
    },
    {
      "midi": 58,
      "hit": false,
      "t": 222083.24450000172,
      "d": 208.33325000002515,
      "v": 45
    },
    {
      "midi": 62,
      "hit": false,
      "t": 222083.24450000172,
      "d": 555.5553333333519,
      "v": 109
    },
    {
      "midi": 65,
      "hit": false,
      "t": 222083.24450000172,
      "d": 555.5553333333519,
      "v": 121
    },
    {
      "midi": 48,
      "hit": false,
      "t": 222083.24450000172,
      "d": 1368.055008333351,
      "v": 89
    },
    {
      "midi": 58,
      "hit": false,
      "t": 222916.57750000173,
      "d": 291.66654999999446,
      "v": 25
    },
    {
      "midi": 58,
      "hit": false,
      "t": 223333.24400000172,
      "d": 76.38885833334643,
      "v": 1
    },
    {
      "midi": 65,
      "hit": false,
      "t": 223333.24400000172,
      "d": 326.3887583333417,
      "v": 89
    },
    {
      "midi": 62,
      "hit": false,
      "t": 223333.24400000172,
      "d": 409.7220583333401,
      "v": 93
    },
    {
      "midi": 58,
      "hit": false,
      "t": 223749.91050000174,
      "d": 41.66664999999921,
      "v": 41
    },
    {
      "midi": 55,
      "hit": false,
      "t": 224131.85479166725,
      "d": 1409.721658333321,
      "v": 113
    },
    {
      "midi": 67,
      "hit": false,
      "t": 224166.57700000177,
      "d": 347.22208333332674,
      "v": 85
    },
    {
      "midi": 74,
      "hit": false,
      "t": 224166.57700000177,
      "d": 395.83317500000703,
      "v": 85
    },
    {
      "midi": 71,
      "hit": false,
      "t": 224166.57700000177,
      "d": 458.3331500000204,
      "v": 97
    },
    {
      "midi": 43,
      "hit": false,
      "t": 224166.57700000177,
      "d": 2715.276691666746,
      "v": 93
    },
    {
      "midi": 55,
      "hit": false,
      "t": 224166.57700000177,
      "d": 2888.887733333424,
      "v": 69
    },
    {
      "midi": 67,
      "hit": false,
      "t": 224999.91000000178,
      "d": 173.61104166667792,
      "v": 41
    },
    {
      "midi": 84,
      "hit": false,
      "t": 225416.57650000026,
      "d": 222.2221333333291,
      "v": 117
    },
    {
      "midi": 50,
      "hit": false,
      "t": 225590.18754166726,
      "d": 138.8888333333307,
      "v": 97
    },
    {
      "midi": 83,
      "hit": false,
      "t": 225624.90975000025,
      "d": 277.7776666666614,
      "v": 125
    },
    {
      "midi": 55,
      "hit": false,
      "t": 225798.52079166725,
      "d": 104.16662500001257,
      "v": 105
    },
    {
      "midi": 84,
      "hit": false,
      "t": 225833.24300000025,
      "d": 243.05545833334327,
      "v": 125
    },
    {
      "midi": 67,
      "hit": false,
      "t": 225833.2430000018,
      "d": 90.2777416666795,
      "v": 61
    },
    {
      "midi": 71,
      "hit": false,
      "t": 225833.2430000018,
      "d": 187.499925000011,
      "v": 69
    },
    {
      "midi": 74,
      "hit": false,
      "t": 225833.2430000018,
      "d": 194.44436666669208,
      "v": 69
    },
    {
      "midi": 86,
      "hit": false,
      "t": 226041.57625000025,
      "d": 1847.2214833333564,
      "v": 105
    },
    {
      "midi": 55,
      "hit": false,
      "t": 226215.18729166727,
      "d": 701.3886083333346,
      "v": 105
    },
    {
      "midi": 67,
      "hit": false,
      "t": 226249.9095000018,
      "d": 118.05550833334564,
      "v": 5
    },
    {
      "midi": 67,
      "hit": false,
      "t": 226666.57600000183,
      "d": 124.99994999999763,
      "v": 57
    },
    {
      "midi": 72,
      "hit": false,
      "t": 226666.57600000183,
      "d": 249.99990000002435,
      "v": 65
    },
    {
      "midi": 71,
      "hit": false,
      "t": 226874.90925000183,
      "d": 222.22213333335822,
      "v": 57
    },
    {
      "midi": 55,
      "hit": false,
      "t": 227048.5202916673,
      "d": 229.1665750000102,
      "v": 113
    },
    {
      "midi": 69,
      "hit": false,
      "t": 227083.24250000186,
      "d": 55.55553333333228,
      "v": 77
    },
    {
      "midi": 54,
      "hit": false,
      "t": 227465.1867916673,
      "d": 1437.4994249999872,
      "v": 125
    },
    {
      "midi": 62,
      "hit": false,
      "t": 227499.90900000185,
      "d": 256.94434166667634,
      "v": 81
    },
    {
      "midi": 69,
      "hit": false,
      "t": 227499.90900000185,
      "d": 291.66655000002356,
      "v": 93
    },
    {
      "midi": 66,
      "hit": false,
      "t": 227499.90900000185,
      "d": 381.94429166670307,
      "v": 69
    },
    {
      "midi": 54,
      "hit": false,
      "t": 227499.90900000185,
      "d": 3097.220983333449,
      "v": 85
    },
    {
      "midi": 62,
      "hit": false,
      "t": 228333.2420000019,
      "d": 222.2221333333291,
      "v": 41
    },
    {
      "midi": 81,
      "hit": false,
      "t": 228749.90850000028,
      "d": 187.499925000011,
      "v": 121
    },
    {
      "midi": 69,
      "hit": false,
      "t": 228749.90850000188,
      "d": 76.38885833334643,
      "v": 49
    },
    {
      "midi": 62,
      "hit": false,
      "t": 228749.90850000188,
      "d": 118.05550833334564,
      "v": 49
    },
    {
      "midi": 66,
      "hit": false,
      "t": 228749.90850000188,
      "d": 124.99995000002673,
      "v": 69
    },
    {
      "midi": 50,
      "hit": false,
      "t": 228923.5195416673,
      "d": 180.5554833333299,
      "v": 121
    },
    {
      "midi": 83,
      "hit": false,
      "t": 228958.2417500003,
      "d": 173.61104166667792,
      "v": 121
    },
    {
      "midi": 54,
      "hit": false,
      "t": 229131.8527916673,
      "d": 124.99994999999763,
      "v": 125
    },
    {
      "midi": 90,
      "hit": false,
      "t": 229166.57500000033,
      "d": 1604.1660250000132,
      "v": 125
    },
    {
      "midi": 83,
      "hit": false,
      "t": 229166.57500000033,
      "d": 1611.1104666666943,
      "v": 125
    },
    {
      "midi": 66,
      "hit": false,
      "t": 229166.5750000019,
      "d": 55.55553333333228,
      "v": 57
    },
    {
      "midi": 69,
      "hit": false,
      "t": 229166.5750000019,
      "d": 180.5554833333299,
      "v": 69
    },
    {
      "midi": 62,
      "hit": false,
      "t": 229166.5750000019,
      "d": 243.05545833334327,
      "v": 69
    },
    {
      "midi": 54,
      "hit": false,
      "t": 229548.5192916673,
      "d": 680.5552833333204,
      "v": 125
    },
    {
      "midi": 62,
      "hit": false,
      "t": 229583.24150000192,
      "d": 76.38885833334643,
      "v": 49
    },
    {
      "midi": 62,
      "hit": false,
      "t": 229999.90800000195,
      "d": 173.61104166667792,
      "v": 73
    },
    {
      "midi": 67,
      "hit": false,
      "t": 229999.90800000195,
      "d": 270.8332250000094,
      "v": 81
    },
    {
      "midi": 54,
      "hit": false,
      "t": 230381.85229166728,
      "d": 243.05545833334327,
      "v": 125
    },
    {
      "midi": 62,
      "hit": false,
      "t": 230416.57450000197,
      "d": 55.55553333333228,
      "v": 65
    },
    {
      "midi": 66,
      "hit": false,
      "t": 230416.57450000197,
      "d": 69.44441666666535,
      "v": 117
    },
    {
      "midi": 52,
      "hit": false,
      "t": 230798.5187916673,
      "d": 1430.5549833333353,
      "v": 125
    },
    {
      "midi": 64,
      "hit": false,
      "t": 230833.241000002,
      "d": 187.499925000011,
      "v": 93
    },
    {
      "midi": 71,
      "hit": false,
      "t": 230833.241000002,
      "d": 256.94434166667634,
      "v": 105
    },
    {
      "midi": 67,
      "hit": false,
      "t": 230833.241000002,
      "d": 333.33320000002277,
      "v": 97
    },
    {
      "midi": 52,
      "hit": false,
      "t": 230833.241000002,
      "d": 3249.998700000113,
      "v": 77
    },
    {
      "midi": 64,
      "hit": false,
      "t": 231249.907500002,
      "d": 159.72215833334485,
      "v": 29
    },
    {
      "midi": 64,
      "hit": false,
      "t": 231666.57400000203,
      "d": 83.33329999999842,
      "v": 33
    },
    {
      "midi": 78,
      "hit": false,
      "t": 232083.24050000036,
      "d": 222.2221333333291,
      "v": 125
    },
    {
      "midi": 66,
      "hit": false,
      "t": 232083.24050000202,
      "d": 215.27769166667713,
      "v": 125
    },
    {
      "midi": 47,
      "hit": false,
      "t": 232256.8515416673,
      "d": 159.72215833334485,
      "v": 113
    },
    {
      "midi": 79,
      "hit": false,
      "t": 232291.57375000036,
      "d": 145.83327500001178,
      "v": 109
    },
    {
      "midi": 53,
      "hit": false,
      "t": 232465.18479166733,
      "d": 27.77776666666614,
      "v": 105
    },
    {
      "midi": 52,
      "hit": false,
      "t": 232465.18479166733,
      "d": 104.16662500001257,
      "v": 105
    },
    {
      "midi": 88,
      "hit": false,
      "t": 232499.90700000038,
      "d": 1354.1661249999888,
      "v": 125
    },
    {
      "midi": 79,
      "hit": false,
      "t": 232499.90700000038,
      "d": 1423.6105416666542,
      "v": 105
    },
    {
      "midi": 64,
      "hit": false,
      "t": 232499.90700000204,
      "d": 173.61104166667792,
      "v": 93
    },
    {
      "midi": 67,
      "hit": false,
      "t": 232499.90700000204,
      "d": 319.4443166666897,
      "v": 101
    },
    {
      "midi": 52,
      "hit": false,
      "t": 232881.85129166735,
      "d": 638.8886333333212,
      "v": 121
    },
    {
      "midi": 64,
      "hit": false,
      "t": 232916.57350000206,
      "d": 159.72215833334485,
      "v": 45
    },
    {
      "midi": 64,
      "hit": false,
      "t": 233333.2400000021,
      "d": 124.99994999999763,
      "v": 73
    },
    {
      "midi": 69,
      "hit": false,
      "t": 233333.2400000021,
      "d": 291.66654999999446,
      "v": 93
    },
    {
      "midi": 52,
      "hit": false,
      "t": 233715.18429166733,
      "d": 416.6664999999921,
      "v": 125
    },
    {
      "midi": 64,
      "hit": false,
      "t": 233749.90650000208,
      "d": 76.38885833334643,
      "v": 81
    },
    {
      "midi": 48,
      "hit": false,
      "t": 234131.85079166733,
      "d": 798.610791666666,
      "v": 125
    },
    {
      "midi": 60,
      "hit": false,
      "t": 234166.5730000021,
      "d": 229.1665750000102,
      "v": 81
    },
    {
      "midi": 67,
      "hit": false,
      "t": 234166.5730000021,
      "d": 319.4443166666897,
      "v": 113
    },
    {
      "midi": 64,
      "hit": false,
      "t": 234166.5730000021,
      "d": 354.1665250000369,
      "v": 105
    },
    {
      "midi": 48,
      "hit": false,
      "t": 234166.5730000021,
      "d": 1048.6106916667777,
      "v": 65
    },
    {
      "midi": 60,
      "hit": false,
      "t": 234583.23950000215,
      "d": 90.2777416666795,
      "v": 37
    },
    {
      "midi": 60,
      "hit": false,
      "t": 234965.18379166734,
      "d": 243.05545833334327,
      "v": 125
    },
    {
      "midi": 84,
      "hit": false,
      "t": 234999.90600000037,
      "d": 62.499975000013364,
      "v": 117
    },
    {
      "midi": 91,
      "hit": false,
      "t": 234999.90600000037,
      "d": 62.499975000013364,
      "v": 121
    },
    {
      "midi": 88,
      "hit": false,
      "t": 234999.90600000037,
      "d": 76.38885833334643,
      "v": 125
    },
    {
      "midi": 64,
      "hit": false,
      "t": 234999.90600000217,
      "d": 34.722208333347226,
      "v": 69
    },
    {
      "midi": 67,
      "hit": false,
      "t": 234999.90600000217,
      "d": 41.66665000002831,
      "v": 93
    },
    {
      "midi": 60,
      "hit": false,
      "t": 234999.90600000217,
      "d": 55.55553333336138,
      "v": 105
    },
    {
      "midi": 58,
      "hit": false,
      "t": 235381.85029166736,
      "d": 1249.9995000000054,
      "v": 125
    },
    {
      "midi": 82,
      "hit": false,
      "t": 235416.5725000004,
      "d": 1249.9995000000054,
      "v": 69
    },
    {
      "midi": 86,
      "hit": false,
      "t": 235416.5725000004,
      "d": 1249.9995000000054,
      "v": 89
    },
    {
      "midi": 89,
      "hit": false,
      "t": 235416.5725000004,
      "d": 1263.8883833333384,
      "v": 117
    },
    {
      "midi": 48,
      "hit": false,
      "t": 235416.57250000222,
      "d": 1249.9995000000345,
      "v": 105
    },
    {
      "midi": 58,
      "hit": false,
      "t": 235416.57250000222,
      "d": 1249.9995000000345,
      "v": 89
    },
    {
      "midi": 62,
      "hit": false,
      "t": 235416.57250000222,
      "d": 1249.9995000000345,
      "v": 93
    },
    {
      "midi": 65,
      "hit": false,
      "t": 235416.57250000222,
      "d": 1249.9995000000345,
      "v": 93
    }
  ]
}