{
  "jsonPath": "Rock/Australian Rock/Billy Thorpe/solar-anthem.json",
  "path": "Rock\\Australian Rock\\Billy Thorpe\\Solar Anthem.mid",
  "name": "Solar Anthem",
  "difficulty": "Advanced",
  "bpm": 120,
  "notes": [
    {
      "midi": 52,
      "hit": false,
      "t": 1833.3333333333335,
      "d": 453.125,
      "v": 68
    },
    {
      "midi": 59,
      "hit": false,
      "t": 2093.75,
      "d": 257.8125,
      "v": 50
    },
    {
      "midi": 64,
      "hit": false,
      "t": 2373.6979166666665,
      "d": 136.71875,
      "v": 54
    },
    {
      "midi": 67,
      "hit": false,
      "t": 2615.8854166666665,
      "d": 89.84375,
      "v": 57
    },
    {
      "midi": 67,
      "hit": false,
      "t": 2903.645833333333,
      "d": 1601.562499999999,
      "v": 73
    },
    {
      "midi": 64,
      "hit": false,
      "t": 2914.0624999999995,
      "d": 281.25,
      "v": 57
    },
    {
      "midi": 59,
      "hit": false,
      "t": 3167.9687499999995,
      "d": 259.1145833333335,
      "v": 42
    },
    {
      "midi": 64,
      "hit": false,
      "t": 3457.0312499999995,
      "d": 828.1249999999995,
      "v": 47
    },
    {
      "midi": 59,
      "hit": false,
      "t": 3736.979166666666,
      "d": 384.11458333333303,
      "v": 70
    },
    {
      "midi": 52,
      "hit": false,
      "t": 4018.229166666666,
      "d": 1833.333333333333,
      "v": 82
    },
    {
      "midi": 59,
      "hit": false,
      "t": 4279.947916666666,
      "d": 266.92708333333303,
      "v": 62
    },
    {
      "midi": 64,
      "hit": false,
      "t": 4565.104166666666,
      "d": 80.72916666666697,
      "v": 45
    },
    {
      "midi": 62,
      "hit": false,
      "t": 4834.635416666666,
      "d": 1117.1875,
      "v": 79
    },
    {
      "midi": 52,
      "hit": false,
      "t": 6208.333333333333,
      "d": 1914.0625000000018,
      "v": 94
    },
    {
      "midi": 59,
      "hit": false,
      "t": 6484.375,
      "d": 281.25,
      "v": 63
    },
    {
      "midi": 64,
      "hit": false,
      "t": 6776.041666666667,
      "d": 210.9375,
      "v": 52
    },
    {
      "midi": 67,
      "hit": false,
      "t": 7016.927083333334,
      "d": 108.07291666666697,
      "v": 86
    },
    {
      "midi": 59,
      "hit": false,
      "t": 7036.458333333334,
      "d": 276.04166666666697,
      "v": 54
    },
    {
      "midi": 64,
      "hit": false,
      "t": 7312.500000000001,
      "d": 326.82291666666697,
      "v": 61
    },
    {
      "midi": 67,
      "hit": false,
      "t": 7312.500000000001,
      "d": 1571.6145833333348,
      "v": 90
    },
    {
      "midi": 59,
      "hit": false,
      "t": 7589.843750000001,
      "d": 286.45833333333394,
      "v": 44
    },
    {
      "midi": 64,
      "hit": false,
      "t": 7880.208333333335,
      "d": 166.66666666666697,
      "v": 53
    },
    {
      "midi": 59,
      "hit": false,
      "t": 8152.343750000002,
      "d": 295.57291666666606,
      "v": 54
    },
    {
      "midi": 52,
      "hit": false,
      "t": 8427.083333333334,
      "d": 2410.1562500000036,
      "v": 71
    },
    {
      "midi": 59,
      "hit": false,
      "t": 8722.656250000002,
      "d": 319.0104166666679,
      "v": 46
    },
    {
      "midi": 64,
      "hit": false,
      "t": 9036.458333333336,
      "d": 104.16666666666788,
      "v": 48
    },
    {
      "midi": 62,
      "hit": false,
      "t": 9391.927083333338,
      "d": 1490.885416666666,
      "v": 34
    },
    {
      "midi": 83,
      "hit": false,
      "t": 11838.54166666667,
      "d": 583.3333333333339,
      "v": 92
    },
    {
      "midi": 52,
      "hit": false,
      "t": 11838.54166666667,
      "d": 1386.7187500000018,
      "v": 64
    },
    {
      "midi": 74,
      "hit": false,
      "t": 11843.750000000004,
      "d": 613.28125,
      "v": 97
    },
    {
      "midi": 59,
      "hit": false,
      "t": 12106.770833333338,
      "d": 320.3125,
      "v": 56
    },
    {
      "midi": 64,
      "hit": false,
      "t": 12430.989583333338,
      "d": 183.59375,
      "v": 54
    },
    {
      "midi": 79,
      "hit": false,
      "t": 12671.875000000004,
      "d": 395.83333333333394,
      "v": 89
    },
    {
      "midi": 71,
      "hit": false,
      "t": 12679.687500000004,
      "d": 544.2708333333339,
      "v": 80
    },
    {
      "midi": 59,
      "hit": false,
      "t": 12703.125000000004,
      "d": 253.90625,
      "v": 49
    },
    {
      "midi": 64,
      "hit": false,
      "t": 12958.333333333338,
      "d": 201.82291666666606,
      "v": 54
    },
    {
      "midi": 59,
      "hit": false,
      "t": 13225.260416666672,
      "d": 161.45833333333394,
      "v": 42
    },
    {
      "midi": 64,
      "hit": false,
      "t": 13515.625000000005,
      "d": 716.1458333333321,
      "v": 42
    },
    {
      "midi": 74,
      "hit": false,
      "t": 13515.625000000005,
      "d": 2255.208333333332,
      "v": 43
    },
    {
      "midi": 76,
      "hit": false,
      "t": 13519.531250000005,
      "d": 2225.260416666666,
      "v": 59
    },
    {
      "midi": 81,
      "hit": false,
      "t": 13520.83333333334,
      "d": 2249.999999999998,
      "v": 45
    },
    {
      "midi": 59,
      "hit": false,
      "t": 13782.552083333338,
      "d": 330.72916666666606,
      "v": 40
    },
    {
      "midi": 52,
      "hit": false,
      "t": 14093.750000000004,
      "d": 1739.583333333334,
      "v": 51
    },
    {
      "midi": 59,
      "hit": false,
      "t": 14916.666666666672,
      "d": 295.57291666666606,
      "v": 28
    },
    {
      "midi": 62,
      "hit": false,
      "t": 15216.145833333338,
      "d": 580.7291666666661,
      "v": 27
    },
    {
      "midi": 59,
      "hit": false,
      "t": 15781.250000000004,
      "d": 244.79166666666788,
      "v": 27
    },
    {
      "midi": 52,
      "hit": false,
      "t": 16330.729166666672,
      "d": 955.7291666666642,
      "v": 61
    },
    {
      "midi": 83,
      "hit": false,
      "t": 16333.333333333338,
      "d": 438.80208333333394,
      "v": 100
    },
    {
      "midi": 74,
      "hit": false,
      "t": 16334.635416666672,
      "d": 588.5416666666642,
      "v": 107
    },
    {
      "midi": 59,
      "hit": false,
      "t": 16597.656250000004,
      "d": 290.3645833333321,
      "v": 58
    },
    {
      "midi": 64,
      "hit": false,
      "t": 16886.718750000004,
      "d": 208.33333333333212,
      "v": 69
    },
    {
      "midi": 79,
      "hit": false,
      "t": 17144.531250000004,
      "d": 365.8854166666679,
      "v": 106
    },
    {
      "midi": 59,
      "hit": false,
      "t": 17148.437500000004,
      "d": 257.8125,
      "v": 56
    },
    {
      "midi": 71,
      "hit": false,
      "t": 17148.437500000004,
      "d": 457.03125,
      "v": 102
    },
    {
      "midi": 64,
      "hit": false,
      "t": 17424.47916666667,
      "d": 180.98958333333212,
      "v": 62
    },
    {
      "midi": 59,
      "hit": false,
      "t": 17688.802083333336,
      "d": 92.44791666666788,
      "v": 55
    },
    {
      "midi": 74,
      "hit": false,
      "t": 17955.72916666667,
      "d": 2499.9999999999964,
      "v": 82
    },
    {
      "midi": 76,
      "hit": false,
      "t": 17957.031250000004,
      "d": 2480.4687499999964,
      "v": 78
    },
    {
      "midi": 81,
      "hit": false,
      "t": 17957.031250000004,
      "d": 2494.7916666666642,
      "v": 75
    },
    {
      "midi": 62,
      "hit": false,
      "t": 17958.333333333336,
      "d": 343.75,
      "v": 54
    },
    {
      "midi": 59,
      "hit": false,
      "t": 18217.447916666668,
      "d": 316.40625000000364,
      "v": 63
    },
    {
      "midi": 52,
      "hit": false,
      "t": 18511.718750000004,
      "d": 1963.5416666666642,
      "v": 82
    },
    {
      "midi": 59,
      "hit": false,
      "t": 18765.625000000004,
      "d": 328.125,
      "v": 52
    },
    {
      "midi": 64,
      "hit": false,
      "t": 19085.937500000004,
      "d": 106.77083333333212,
      "v": 56
    },
    {
      "midi": 62,
      "hit": false,
      "t": 19375.000000000004,
      "d": 114.58333333333212,
      "v": 36
    },
    {
      "midi": 59,
      "hit": false,
      "t": 19705.729166666668,
      "d": 786.4583333333321,
      "v": 33
    },
    {
      "midi": 64,
      "hit": false,
      "t": 20440.104166666668,
      "d": 122.39583333333212,
      "v": 26
    },
    {
      "midi": 45,
      "hit": false,
      "t": 21395.833333333332,
      "d": 850.2604166666606,
      "v": 69
    },
    {
      "midi": 83,
      "hit": false,
      "t": 21415.364583333332,
      "d": 510.41666666666424,
      "v": 102
    },
    {
      "midi": 74,
      "hit": false,
      "t": 21419.270833333332,
      "d": 636.7187499999964,
      "v": 106
    },
    {
      "midi": 52,
      "hit": false,
      "t": 21678.385416666664,
      "d": 268.22916666666424,
      "v": 63
    },
    {
      "midi": 59,
      "hit": false,
      "t": 21964.843749999996,
      "d": 217.44791666666424,
      "v": 61
    },
    {
      "midi": 79,
      "hit": false,
      "t": 22229.16666666666,
      "d": 660.15625,
      "v": 99
    },
    {
      "midi": 52,
      "hit": false,
      "t": 22233.07291666666,
      "d": 279.9479166666679,
      "v": 63
    },
    {
      "midi": 71,
      "hit": false,
      "t": 22233.07291666666,
      "d": 679.6875,
      "v": 89
    },
    {
      "midi": 59,
      "hit": false,
      "t": 22494.79166666666,
      "d": 171.875,
      "v": 55
    },
    {
      "midi": 52,
      "hit": false,
      "t": 22795.57291666666,
      "d": 229.16666666666788,
      "v": 44
    },
    {
      "midi": 74,
      "hit": false,
      "t": 23058.593749999996,
      "d": 87.23958333333212,
      "v": 72
    },
    {
      "midi": 81,
      "hit": false,
      "t": 23062.499999999996,
      "d": 88.54166666666424,
      "v": 63
    },
    {
      "midi": 60,
      "hit": false,
      "t": 23063.80208333333,
      "d": 131.51041666666424,
      "v": 47
    },
    {
      "midi": 81,
      "hit": false,
      "t": 23329.427083333325,
      "d": 2667.96875,
      "v": 92
    },
    {
      "midi": 52,
      "hit": false,
      "t": 23332.031249999993,
      "d": 304.6875,
      "v": 65
    },
    {
      "midi": 74,
      "hit": false,
      "t": 23332.031249999993,
      "d": 2714.84375,
      "v": 102
    },
    {
      "midi": 45,
      "hit": false,
      "t": 23613.281249999993,
      "d": 897.1354166666679,
      "v": 61
    },
    {
      "midi": 52,
      "hit": false,
      "t": 23932.29166666666,
      "d": 260.4166666666679,
      "v": 37
    },
    {
      "midi": 59,
      "hit": false,
      "t": 24197.91666666666,
      "d": 278.6458333333321,
      "v": 43
    },
    {
      "midi": 52,
      "hit": false,
      "t": 24502.60416666666,
      "d": 334.6354166666679,
      "v": 35
    },
    {
      "midi": 60,
      "hit": false,
      "t": 24888.02083333333,
      "d": 846.3541666666642,
      "v": 35
    },
    {
      "midi": 52,
      "hit": false,
      "t": 25631.51041666666,
      "d": 248.69791666666424,
      "v": 35
    },
    {
      "midi": 83,
      "hit": false,
      "t": 27337.239583333325,
      "d": 488.28124999999636,
      "v": 93
    },
    {
      "midi": 74,
      "hit": false,
      "t": 27338.541666666657,
      "d": 647.1354166666642,
      "v": 102
    },
    {
      "midi": 52,
      "hit": false,
      "t": 27351.56249999999,
      "d": 1385.4166666666642,
      "v": 74
    },
    {
      "midi": 59,
      "hit": false,
      "t": 27617.18749999999,
      "d": 315.10416666666424,
      "v": 68
    },
    {
      "midi": 64,
      "hit": false,
      "t": 27907.55208333332,
      "d": 243.48958333333212,
      "v": 84
    },
    {
      "midi": 79,
      "hit": false,
      "t": 28175.781249999985,
      "d": 854.1666666666679,
      "v": 104
    },
    {
      "midi": 71,
      "hit": false,
      "t": 28179.687499999985,
      "d": 871.09375,
      "v": 100
    },
    {
      "midi": 59,
      "hit": false,
      "t": 28186.197916666653,
      "d": 276.0416666666679,
      "v": 68
    },
    {
      "midi": 64,
      "hit": false,
      "t": 28450.52083333332,
      "d": 220.05208333333212,
      "v": 72
    },
    {
      "midi": 59,
      "hit": false,
      "t": 28725.260416666653,
      "d": 250,
      "v": 57
    },
    {
      "midi": 64,
      "hit": false,
      "t": 29024.73958333332,
      "d": 171.87499999999636,
      "v": 41
    },
    {
      "midi": 74,
      "hit": false,
      "t": 29265.624999999985,
      "d": 2453.125,
      "v": 57
    },
    {
      "midi": 81,
      "hit": false,
      "t": 29281.249999999985,
      "d": 2417.96875,
      "v": 47
    },
    {
      "midi": 59,
      "hit": false,
      "t": 29286.458333333318,
      "d": 305.9895833333321,
      "v": 58
    },
    {
      "midi": 76,
      "hit": false,
      "t": 29286.458333333318,
      "d": 2403.6458333333358,
      "v": 58
    },
    {
      "midi": 52,
      "hit": false,
      "t": 29565.10416666665,
      "d": 2000.0000000000036,
      "v": 68
    },
    {
      "midi": 59,
      "hit": false,
      "t": 29845.052083333318,
      "d": 291.6666666666679,
      "v": 45
    },
    {
      "midi": 64,
      "hit": false,
      "t": 30164.062499999985,
      "d": 111.97916666666788,
      "v": 43
    },
    {
      "midi": 62,
      "hit": false,
      "t": 30453.124999999985,
      "d": 98.95833333333212,
      "v": 37
    },
    {
      "midi": 62,
      "hit": false,
      "t": 30796.874999999985,
      "d": 407.5520833333321,
      "v": 38
    },
    {
      "midi": 59,
      "hit": false,
      "t": 31515.624999999985,
      "d": 139.32291666666788,
      "v": 39
    },
    {
      "midi": 74,
      "hit": false,
      "t": 33187.499999999985,
      "d": 703.125,
      "v": 104
    },
    {
      "midi": 83,
      "hit": false,
      "t": 33201.82291666665,
      "d": 580.7291666666715,
      "v": 99
    },
    {
      "midi": 45,
      "hit": false,
      "t": 33203.124999999985,
      "d": 864.583333333343,
      "v": 70
    },
    {
      "midi": 52,
      "hit": false,
      "t": 33498.69791666666,
      "d": 283.85416666666424,
      "v": 60
    },
    {
      "midi": 57,
      "hit": false,
      "t": 33792.968749999985,
      "d": 149.73958333333576,
      "v": 64
    },
    {
      "midi": 79,
      "hit": false,
      "t": 34059.89583333332,
      "d": 335.9375000000073,
      "v": 97
    },
    {
      "midi": 52,
      "hit": false,
      "t": 34061.19791666666,
      "d": 273.4375000000073,
      "v": 65
    },
    {
      "midi": 71,
      "hit": false,
      "t": 34062.49999999999,
      "d": 488.28125,
      "v": 97
    },
    {
      "midi": 59,
      "hit": false,
      "t": 34321.61458333333,
      "d": 136.71875,
      "v": 55
    },
    {
      "midi": 52,
      "hit": false,
      "t": 34578.12499999999,
      "d": 109.375,
      "v": 56
    },
    {
      "midi": 57,
      "hit": false,
      "t": 34848.95833333333,
      "d": 282.55208333333576,
      "v": 65
    },
    {
      "midi": 76,
      "hit": false,
      "t": 34850.260416666664,
      "d": 601.5625,
      "v": 91
    },
    {
      "midi": 74,
      "hit": false,
      "t": 34851.5625,
      "d": 614.5833333333285,
      "v": 94
    },
    {
      "midi": 81,
      "hit": false,
      "t": 34851.5625,
      "d": 632.8124999999927,
      "v": 86
    },
    {
      "midi": 52,
      "hit": false,
      "t": 35117.1875,
      "d": 299.47916666666424,
      "v": 75
    },
    {
      "midi": 45,
      "hit": false,
      "t": 35377.604166666664,
      "d": 2037.760416666657,
      "v": 97
    },
    {
      "midi": 52,
      "hit": false,
      "t": 35661.45833333333,
      "d": 244.79166666666424,
      "v": 62
    },
    {
      "midi": 59,
      "hit": false,
      "t": 35927.08333333333,
      "d": 208.33333333333576,
      "v": 63
    },
    {
      "midi": 74,
      "hit": false,
      "t": 35994.791666666664,
      "d": 41.66666666666424,
      "v": 22
    },
    {
      "midi": 83,
      "hit": false,
      "t": 36213.541666666664,
      "d": 132.81249999999272,
      "v": 99
    },
    {
      "midi": 52,
      "hit": false,
      "t": 36213.541666666664,
      "d": 242.18749999999272,
      "v": 68
    },
    {
      "midi": 74,
      "hit": false,
      "t": 36220.05208333333,
      "d": 108.07291666666424,
      "v": 106
    },
    {
      "midi": 59,
      "hit": false,
      "t": 36475.26041666666,
      "d": 209.63541666667152,
      "v": 70
    },
    {
      "midi": 83,
      "hit": false,
      "t": 36492.18749999999,
      "d": 203.125,
      "v": 105
    },
    {
      "midi": 74,
      "hit": false,
      "t": 36492.18749999999,
      "d": 221.35416666666424,
      "v": 110
    },
    {
      "midi": 52,
      "hit": false,
      "t": 36757.81249999999,
      "d": 354.16666666666424,
      "v": 65
    },
    {
      "midi": 79,
      "hit": false,
      "t": 37084.63541666666,
      "d": 330.72916666666424,
      "v": 90
    },
    {
      "midi": 71,
      "hit": false,
      "t": 37087.23958333332,
      "d": 380.20833333333576,
      "v": 82
    },
    {
      "midi": 57,
      "hit": false,
      "t": 37088.54166666666,
      "d": 277.34375,
      "v": 65
    },
    {
      "midi": 52,
      "hit": false,
      "t": 37395.83333333332,
      "d": 71.61458333333576,
      "v": 44
    },
    {
      "midi": 41,
      "hit": false,
      "t": 37786.45833333332,
      "d": 996.0937500000146,
      "v": 62
    },
    {
      "midi": 81,
      "hit": false,
      "t": 37798.17708333332,
      "d": 652.3437500000146,
      "v": 96
    },
    {
      "midi": 74,
      "hit": false,
      "t": 37803.38541666666,
      "d": 684.895833333343,
      "v": 105
    },
    {
      "midi": 48,
      "hit": false,
      "t": 38119.791666666664,
      "d": 305.98958333333576,
      "v": 59
    },
    {
      "midi": 57,
      "hit": false,
      "t": 38406.25,
      "d": 304.6875,
      "v": 62
    },
    {
      "midi": 79,
      "hit": false,
      "t": 38695.3125,
      "d": 221.35416666667152,
      "v": 88
    },
    {
      "midi": 71,
      "hit": false,
      "t": 38700.520833333336,
      "d": 309.89583333333576,
      "v": 79
    },
    {
      "midi": 48,
      "hit": false,
      "t": 38710.9375,
      "d": 307.2916666666715,
      "v": 55
    },
    {
      "midi": 57,
      "hit": false,
      "t": 39002.60416666667,
      "d": 296.875,
      "v": 41
    },
    {
      "midi": 48,
      "hit": false,
      "t": 39299.47916666667,
      "d": 330.72916666666424,
      "v": 44
    },
    {
      "midi": 57,
      "hit": false,
      "t": 39614.583333333336,
      "d": 713.5416666666715,
      "v": 49
    },
    {
      "midi": 69,
      "hit": false,
      "t": 39617.1875,
      "d": 1263.0208333333358,
      "v": 49
    },
    {
      "midi": 76,
      "hit": false,
      "t": 39618.489583333336,
      "d": 1243.4895833333358,
      "v": 58
    },
    {
      "midi": 48,
      "hit": false,
      "t": 39925.78125000001,
      "d": 368.48958333333576,
      "v": 41
    },
    {
      "midi": 41,
      "hit": false,
      "t": 40239.58333333334,
      "d": 2988.28125,
      "v": 66
    },
    {
      "midi": 48,
      "hit": false,
      "t": 40527.34375000001,
      "d": 346.35416666666424,
      "v": 51
    },
    {
      "midi": 57,
      "hit": false,
      "t": 40861.97916666667,
      "d": 2588.5416666666715,
      "v": 36
    },
    {
      "midi": 76,
      "hit": false,
      "t": 41145.833333333336,
      "d": 114.58333333333576,
      "v": 55
    },
    {
      "midi": 69,
      "hit": false,
      "t": 41160.15625,
      "d": 67.70833333333576,
      "v": 58
    },
    {
      "midi": 69,
      "hit": false,
      "t": 41486.97916666667,
      "d": 319.01041666666424,
      "v": 58
    },
    {
      "midi": 76,
      "hit": false,
      "t": 41489.583333333336,
      "d": 316.40625,
      "v": 50
    },
    {
      "midi": 48,
      "hit": false,
      "t": 41822.91666666667,
      "d": 1397.1354166666715,
      "v": 42
    },
    {
      "midi": 74,
      "hit": false,
      "t": 42246.09375000001,
      "d": 839.84375,
      "v": 32
    },
    {
      "midi": 67,
      "hit": false,
      "t": 42248.69791666667,
      "d": 841.1458333333358,
      "v": 29
    },
    {
      "midi": 43,
      "hit": false,
      "t": 43875.000000000015,
      "d": 2095.052083333343,
      "v": 81
    },
    {
      "midi": 81,
      "hit": false,
      "t": 43878.906250000015,
      "d": 311.1979166666715,
      "v": 106
    },
    {
      "midi": 76,
      "hit": false,
      "t": 43882.812500000015,
      "d": 307.2916666666715,
      "v": 113
    },
    {
      "midi": 50,
      "hit": false,
      "t": 44169.27083333335,
      "d": 303.3854166666715,
      "v": 58
    },
    {
      "midi": 57,
      "hit": false,
      "t": 44464.84375000002,
      "d": 309.89583333333576,
      "v": 64
    },
    {
      "midi": 79,
      "hit": false,
      "t": 44744.791666666686,
      "d": 566.4062500000073,
      "v": 93
    },
    {
      "midi": 74,
      "hit": false,
      "t": 44750.00000000002,
      "d": 651.0416666666715,
      "v": 99
    },
    {
      "midi": 50,
      "hit": false,
      "t": 44755.20833333336,
      "d": 294.27083333333576,
      "v": 53
    },
    {
      "midi": 57,
      "hit": false,
      "t": 45048.17708333336,
      "d": 298.17708333333576,
      "v": 51
    },
    {
      "midi": 50,
      "hit": false,
      "t": 45346.35416666669,
      "d": 269.53125,
      "v": 42
    },
    {
      "midi": 76,
      "hit": false,
      "t": 45622.39583333336,
      "d": 671.875,
      "v": 60
    },
    {
      "midi": 71,
      "hit": false,
      "t": 45622.39583333336,
      "d": 704.4270833333358,
      "v": 69
    },
    {
      "midi": 57,
      "hit": false,
      "t": 45627.60416666669,
      "d": 342.44791666666424,
      "v": 58
    },
    {
      "midi": 50,
      "hit": false,
      "t": 45916.66666666669,
      "d": 333.3333333333285,
      "v": 48
    },
    {
      "midi": 43,
      "hit": false,
      "t": 46239.58333333336,
      "d": 2455.729166666657,
      "v": 60
    },
    {
      "midi": 50,
      "hit": false,
      "t": 46523.43750000003,
      "d": 316.40625,
      "v": 40
    },
    {
      "midi": 55,
      "hit": false,
      "t": 46881.51041666669,
      "d": 285.1562499999927,
      "v": 32
    },
    {
      "midi": 69,
      "hit": false,
      "t": 47145.83333333336,
      "d": 110.67708333332848,
      "v": 45
    },
    {
      "midi": 74,
      "hit": false,
      "t": 47160.15625000002,
      "d": 113.28125,
      "v": 48
    },
    {
      "midi": 50,
      "hit": false,
      "t": 47190.104166666686,
      "d": 247.39583333333576,
      "v": 32
    },
    {
      "midi": 69,
      "hit": false,
      "t": 47494.791666666686,
      "d": 401.04166666666424,
      "v": 37
    },
    {
      "midi": 57,
      "hit": false,
      "t": 47496.09375000002,
      "d": 329.4270833333285,
      "v": 38
    },
    {
      "midi": 74,
      "hit": false,
      "t": 47498.697916666686,
      "d": 371.09375,
      "v": 43
    },
    {
      "midi": 50,
      "hit": false,
      "t": 47858.072916666686,
      "d": 341.1458333333285,
      "v": 38
    },
    {
      "midi": 67,
      "hit": false,
      "t": 48222.656250000015,
      "d": 276.04166666666424,
      "v": 29
    },
    {
      "midi": 55,
      "hit": false,
      "t": 48222.656250000015,
      "d": 460.9375,
      "v": 23
    },
    {
      "midi": 71,
      "hit": false,
      "t": 48234.375000000015,
      "d": 252.60416666666424,
      "v": 36
    },
    {
      "midi": 50,
      "hit": false,
      "t": 48636.718750000015,
      "d": 109.375,
      "v": 44
    },
    {
      "midi": 81,
      "hit": false,
      "t": 49890.625000000015,
      "d": 639.3229166666642,
      "v": 88
    },
    {
      "midi": 41,
      "hit": false,
      "t": 49895.83333333335,
      "d": 520.8333333333285,
      "v": 53
    },
    {
      "midi": 74,
      "hit": false,
      "t": 49898.437500000015,
      "d": 731.7708333333285,
      "v": 93
    },
    {
      "midi": 48,
      "hit": false,
      "t": 50195.312500000015,
      "d": 325.5208333333285,
      "v": 42
    },
    {
      "midi": 57,
      "hit": false,
      "t": 50522.13541666668,
      "d": 274.7395833333285,
      "v": 37
    },
    {
      "midi": 76,
      "hit": false,
      "t": 50828.12500000001,
      "d": 229.16666666667152,
      "v": 54
    },
    {
      "midi": 69,
      "hit": false,
      "t": 50839.84375000001,
      "d": 298.17708333334303,
      "v": 46
    },
    {
      "midi": 48,
      "hit": false,
      "t": 50852.86458333334,
      "d": 283.8541666666715,
      "v": 42
    },
    {
      "midi": 57,
      "hit": false,
      "t": 51175.781250000015,
      "d": 221.35416666666424,
      "v": 27
    },
    {
      "midi": 48,
      "hit": false,
      "t": 51463.54166666668,
      "d": 281.25,
      "v": 38
    },
    {
      "midi": 74,
      "hit": false,
      "t": 51789.062500000015,
      "d": 382.8125000000073,
      "v": 37
    },
    {
      "midi": 67,
      "hit": false,
      "t": 51790.36458333335,
      "d": 464.8437500000073,
      "v": 31
    },
    {
      "midi": 55,
      "hit": false,
      "t": 51861.979166666686,
      "d": 653.6458333333358,
      "v": 2
    },
    {
      "midi": 48,
      "hit": false,
      "t": 52151.041666666686,
      "d": 330.7291666666715,
      "v": 31
    },
    {
      "midi": 41,
      "hit": false,
      "t": 52477.86458333336,
      "d": 3059.895833333343,
      "v": 65
    },
    {
      "midi": 48,
      "hit": false,
      "t": 52795.572916666686,
      "d": 2725.260416666679,
      "v": 57
    },
    {
      "midi": 60,
      "hit": false,
      "t": 53136.71875000002,
      "d": 102.86458333333576,
      "v": 56
    },
    {
      "midi": 55,
      "hit": false,
      "t": 53136.71875000002,
      "d": 2552.083333333343,
      "v": 41
    },
    {
      "midi": 67,
      "hit": false,
      "t": 53140.62500000002,
      "d": 105.46875,
      "v": 44
    },
    {
      "midi": 67,
      "hit": false,
      "t": 53467.44791666669,
      "d": 183.59375000000728,
      "v": 38
    },
    {
      "midi": 59,
      "hit": false,
      "t": 53468.75000000003,
      "d": 192.70833333333576,
      "v": 45
    },
    {
      "midi": 62,
      "hit": false,
      "t": 53470.052083333365,
      "d": 165.36458333333576,
      "v": 45
    },
    {
      "midi": 60,
      "hit": false,
      "t": 53859.37500000003,
      "d": 885.4166666666715,
      "v": 38
    },
    {
      "midi": 67,
      "hit": false,
      "t": 53872.395833333365,
      "d": 1423.1770833333358,
      "v": 44
    },
    {
      "midi": 59,
      "hit": false,
      "t": 54750.00000000004,
      "d": 492.1875,
      "v": 37
    },
    {
      "midi": 62,
      "hit": false,
      "t": 54751.30208333337,
      "d": 505.2083333333285,
      "v": 31
    },
    {
      "midi": 83,
      "hit": false,
      "t": 58078.12500000003,
      "d": 485.67708333333576,
      "v": 101
    },
    {
      "midi": 74,
      "hit": false,
      "t": 58083.333333333365,
      "d": 621.0937499999927,
      "v": 108
    },
    {
      "midi": 52,
      "hit": false,
      "t": 58083.333333333365,
      "d": 2015.6249999999854,
      "v": 80
    },
    {
      "midi": 59,
      "hit": false,
      "t": 58364.583333333365,
      "d": 333.3333333333285,
      "v": 68
    },
    {
      "midi": 64,
      "hit": false,
      "t": 58656.25000000003,
      "d": 200.52083333332848,
      "v": 68
    },
    {
      "midi": 79,
      "hit": false,
      "t": 58937.50000000002,
      "d": 460.9375,
      "v": 101
    },
    {
      "midi": 71,
      "hit": false,
      "t": 58941.40625000002,
      "d": 559.8958333333285,
      "v": 94
    },
    {
      "midi": 59,
      "hit": false,
      "t": 58942.70833333336,
      "d": 260.41666666666424,
      "v": 69
    },
    {
      "midi": 64,
      "hit": false,
      "t": 59213.541666666686,
      "d": 173.17708333333576,
      "v": 57
    },
    {
      "midi": 59,
      "hit": false,
      "t": 59486.979166666686,
      "d": 295.57291666666424,
      "v": 49
    },
    {
      "midi": 81,
      "hit": false,
      "t": 59766.92708333335,
      "d": 2328.125,
      "v": 79
    },
    {
      "midi": 74,
      "hit": false,
      "t": 59785.156250000015,
      "d": 2308.59375,
      "v": 81
    },
    {
      "midi": 76,
      "hit": false,
      "t": 59785.156250000015,
      "d": 2316.40625,
      "v": 80
    },
    {
      "midi": 62,
      "hit": false,
      "t": 59786.45833333335,
      "d": 328.125,
      "v": 51
    },
    {
      "midi": 59,
      "hit": false,
      "t": 60078.125000000015,
      "d": 330.72916666666424,
      "v": 54
    },
    {
      "midi": 52,
      "hit": false,
      "t": 60371.093750000015,
      "d": 1535.15625,
      "v": 87
    },
    {
      "midi": 59,
      "hit": false,
      "t": 60649.73958333334,
      "d": 305.98958333333576,
      "v": 51
    },
    {
      "midi": 64,
      "hit": false,
      "t": 60957.031250000015,
      "d": 109.375,
      "v": 52
    },
    {
      "midi": 64,
      "hit": false,
      "t": 61255.20833333335,
      "d": 109.375,
      "v": 72
    },
    {
      "midi": 62,
      "hit": false,
      "t": 61562.500000000015,
      "d": 270.83333333333576,
      "v": 46
    },
    {
      "midi": 59,
      "hit": false,
      "t": 61837.23958333335,
      "d": 303.38541666666424,
      "v": 43
    },
    {
      "midi": 62,
      "hit": false,
      "t": 62171.875000000015,
      "d": 363.28125,
      "v": 41
    },
    {
      "midi": 57,
      "hit": false,
      "t": 62536.45833333335,
      "d": 177.08333333333576,
      "v": 24
    },
    {
      "midi": 83,
      "hit": false,
      "t": 63446.61458333335,
      "d": 492.1875,
      "v": 102
    },
    {
      "midi": 74,
      "hit": false,
      "t": 63450.52083333335,
      "d": 595.0520833333285,
      "v": 112
    },
    {
      "midi": 52,
      "hit": false,
      "t": 63451.822916666686,
      "d": 1158.854166666657,
      "v": 84
    },
    {
      "midi": 59,
      "hit": false,
      "t": 63736.979166666686,
      "d": 325.5208333333285,
      "v": 67
    },
    {
      "midi": 64,
      "hit": false,
      "t": 64042.968750000015,
      "d": 190.10416666666424,
      "v": 74
    },
    {
      "midi": 79,
      "hit": false,
      "t": 64296.875000000015,
      "d": 385.41666666666424,
      "v": 99
    },
    {
      "midi": 71,
      "hit": false,
      "t": 64303.38541666668,
      "d": 527.34375,
      "v": 92
    },
    {
      "midi": 59,
      "hit": false,
      "t": 64313.80208333334,
      "d": 256.51041666666424,
      "v": 64
    },
    {
      "midi": 62,
      "hit": false,
      "t": 64575.52083333334,
      "d": 170.57291666667152,
      "v": 64
    },
    {
      "midi": 59,
      "hit": false,
      "t": 64858.07291666668,
      "d": 93.75,
      "v": 69
    },
    {
      "midi": 81,
      "hit": false,
      "t": 65136.718750000015,
      "d": 2536.4583333333576,
      "v": 74
    },
    {
      "midi": 74,
      "hit": false,
      "t": 65149.73958333335,
      "d": 2561.197916666679,
      "v": 80
    },
    {
      "midi": 76,
      "hit": false,
      "t": 65151.041666666686,
      "d": 2535.1562500000146,
      "v": 78
    },
    {
      "midi": 59,
      "hit": false,
      "t": 65156.25000000002,
      "d": 111.97916666666424,
      "v": 70
    },
    {
      "midi": 59,
      "hit": false,
      "t": 65415.36458333335,
      "d": 319.0104166666788,
      "v": 71
    },
    {
      "midi": 52,
      "hit": false,
      "t": 65708.33333333336,
      "d": 1515.6250000000146,
      "v": 80
    },
    {
      "midi": 59,
      "hit": false,
      "t": 65975.2604166667,
      "d": 307.2916666666715,
      "v": 58
    },
    {
      "midi": 64,
      "hit": false,
      "t": 66300.78125000004,
      "d": 85.9375,
      "v": 53
    },
    {
      "midi": 64,
      "hit": false,
      "t": 66584.63541666672,
      "d": 91.14583333332848,
      "v": 47
    },
    {
      "midi": 62,
      "hit": false,
      "t": 66868.48958333337,
      "d": 243.48958333332848,
      "v": 46
    },
    {
      "midi": 59,
      "hit": false,
      "t": 67177.08333333337,
      "d": 324.21875,
      "v": 35
    },
    {
      "midi": 62,
      "hit": false,
      "t": 67546.87500000004,
      "d": 190.10416666665697,
      "v": 31
    },
    {
      "midi": 83,
      "hit": false,
      "t": 68739.58333333337,
      "d": 609.375,
      "v": 99
    },
    {
      "midi": 45,
      "hit": false,
      "t": 68739.58333333337,
      "d": 1479.166666666657,
      "v": 81
    },
    {
      "midi": 74,
      "hit": false,
      "t": 68753.90625000004,
      "d": 665.3645833333285,
      "v": 105
    },
    {
      "midi": 52,
      "hit": false,
      "t": 69036.45833333337,
      "d": 309.8958333333285,
      "v": 63
    },
    {
      "midi": 59,
      "hit": false,
      "t": 69326.8229166667,
      "d": 139.32291666667152,
      "v": 69
    },
    {
      "midi": 79,
      "hit": false,
      "t": 69596.3541666667,
      "d": 692.7083333333285,
      "v": 99
    },
    {
      "midi": 71,
      "hit": false,
      "t": 69598.95833333337,
      "d": 666.666666666657,
      "v": 90
    },
    {
      "midi": 52,
      "hit": false,
      "t": 69611.9791666667,
      "d": 257.8125,
      "v": 54
    },
    {
      "midi": 57,
      "hit": false,
      "t": 69875.00000000003,
      "d": 182.29166666667152,
      "v": 56
    },
    {
      "midi": 52,
      "hit": false,
      "t": 70151.0416666667,
      "d": 276.04166666665697,
      "v": 56
    },
    {
      "midi": 59,
      "hit": false,
      "t": 70449.21875000003,
      "d": 263.0208333333285,
      "v": 55
    },
    {
      "midi": 81,
      "hit": false,
      "t": 70449.21875000003,
      "d": 2454.4270833333285,
      "v": 80
    },
    {
      "midi": 74,
      "hit": false,
      "t": 70458.33333333336,
      "d": 2437.5,
      "v": 91
    },
    {
      "midi": 52,
      "hit": false,
      "t": 70731.77083333336,
      "d": 324.21875,
      "v": 66
    },
    {
      "midi": 45,
      "hit": false,
      "t": 71015.62500000003,
      "d": 351.5625,
      "v": 89
    },
    {
      "midi": 52,
      "hit": false,
      "t": 71312.50000000003,
      "d": 278.6458333333285,
      "v": 63
    },
    {
      "midi": 59,
      "hit": false,
      "t": 71606.77083333336,
      "d": 70.3125,
      "v": 34
    },
    {
      "midi": 60,
      "hit": false,
      "t": 71886.71875000003,
      "d": 79.42708333332848,
      "v": 54
    },
    {
      "midi": 57,
      "hit": false,
      "t": 72177.08333333336,
      "d": 970.0520833333285,
      "v": 40
    },
    {
      "midi": 52,
      "hit": false,
      "t": 72528.64583333336,
      "d": 496.09375,
      "v": 40
    },
    {
      "midi": 45,
      "hit": false,
      "t": 72933.59375000003,
      "d": 141.92708333332848,
      "v": 44
    },
    {
      "midi": 83,
      "hit": false,
      "t": 74850.26041666669,
      "d": 496.09374999998545,
      "v": 85
    },
    {
      "midi": 74,
      "hit": false,
      "t": 74869.79166666669,
      "d": 645.8333333333139,
      "v": 86
    },
    {
      "midi": 52,
      "hit": false,
      "t": 74875.00000000001,
      "d": 1136.718749999971,
      "v": 74
    },
    {
      "midi": 59,
      "hit": false,
      "t": 75166.66666666667,
      "d": 304.6875,
      "v": 57
    },
    {
      "midi": 64,
      "hit": false,
      "t": 75453.125,
      "d": 205.72916666667152,
      "v": 73
    },
    {
      "midi": 79,
      "hit": false,
      "t": 75726.5625,
      "d": 682.291666666657,
      "v": 97
    },
    {
      "midi": 71,
      "hit": false,
      "t": 75735.67708333333,
      "d": 677.0833333333285,
      "v": 86
    },
    {
      "midi": 59,
      "hit": false,
      "t": 75744.79166666666,
      "d": 259.1145833333285,
      "v": 58
    },
    {
      "midi": 62,
      "hit": false,
      "t": 76022.13541666666,
      "d": 260.4166666666715,
      "v": 58
    },
    {
      "midi": 59,
      "hit": false,
      "t": 76317.70833333333,
      "d": 140.625,
      "v": 53
    },
    {
      "midi": 62,
      "hit": false,
      "t": 76613.28125,
      "d": 309.8958333333285,
      "v": 47
    },
    {
      "midi": 74,
      "hit": false,
      "t": 76619.79166666667,
      "d": 3072.916666666657,
      "v": 61
    },
    {
      "midi": 76,
      "hit": false,
      "t": 76628.90625,
      "d": 3065.104166666657,
      "v": 60
    },
    {
      "midi": 81,
      "hit": false,
      "t": 76630.20833333333,
      "d": 3167.96875,
      "v": 54
    },
    {
      "midi": 59,
      "hit": false,
      "t": 76873.69791666666,
      "d": 356.77083333334303,
      "v": 67
    },
    {
      "midi": 52,
      "hit": false,
      "t": 77171.875,
      "d": 2303.385416666657,
      "v": 83
    },
    {
      "midi": 59,
      "hit": false,
      "t": 77457.03125,
      "d": 308.59375,
      "v": 57
    },
    {
      "midi": 64,
      "hit": false,
      "t": 77779.94791666667,
      "d": 85.9375,
      "v": 53
    },
    {
      "midi": 64,
      "hit": false,
      "t": 78062.5,
      "d": 102.86458333332848,
      "v": 44
    },
    {
      "midi": 62,
      "hit": false,
      "t": 78391.92708333333,
      "d": 334.6354166666715,
      "v": 44
    },
    {
      "midi": 59,
      "hit": false,
      "t": 78710.9375,
      "d": 403.6458333333285,
      "v": 45
    },
    {
      "midi": 62,
      "hit": false,
      "t": 79121.09375,
      "d": 192.70833333332848,
      "v": 34
    },
    {
      "midi": 83,
      "hit": false,
      "t": 81006.51041666666,
      "d": 606.7708333333285,
      "v": 96
    },
    {
      "midi": 45,
      "hit": false,
      "t": 81018.22916666666,
      "d": 1457.0312499999854,
      "v": 70
    },
    {
      "midi": 74,
      "hit": false,
      "t": 81023.43749999999,
      "d": 644.5312499999854,
      "v": 103
    },
    {
      "midi": 52,
      "hit": false,
      "t": 81303.38541666666,
      "d": 312.49999999998545,
      "v": 49
    },
    {
      "midi": 59,
      "hit": false,
      "t": 81614.58333333331,
      "d": 229.16666666665697,
      "v": 59
    },
    {
      "midi": 79,
      "hit": false,
      "t": 81886.71874999997,
      "d": 674.4791666666715,
      "v": 91
    },
    {
      "midi": 71,
      "hit": false,
      "t": 81890.62499999997,
      "d": 654.9479166666715,
      "v": 88
    },
    {
      "midi": 52,
      "hit": false,
      "t": 81906.24999999997,
      "d": 260.4166666666715,
      "v": 58
    },
    {
      "midi": 57,
      "hit": false,
      "t": 82187.49999999997,
      "d": 264.3229166666715,
      "v": 55
    },
    {
      "midi": 52,
      "hit": false,
      "t": 82463.54166666664,
      "d": 588.5416666666715,
      "v": 54
    },
    {
      "midi": 83,
      "hit": false,
      "t": 82755.20833333331,
      "d": 315.10416666665697,
      "v": 96
    },
    {
      "midi": 74,
      "hit": false,
      "t": 82755.20833333331,
      "d": 401.04166666665697,
      "v": 101
    },
    {
      "midi": 45,
      "hit": false,
      "t": 83053.38541666664,
      "d": 54.6875,
      "v": 48
    },
    {
      "midi": 41,
      "hit": false,
      "t": 83369.79166666664,
      "d": 1364.5833333333285,
      "v": 66
    },
    {
      "midi": 81,
      "hit": false,
      "t": 83376.30208333331,
      "d": 670.572916666657,
      "v": 88
    },
    {
      "midi": 74,
      "hit": false,
      "t": 83385.41666666664,
      "d": 695.3125,
      "v": 97
    },
    {
      "midi": 48,
      "hit": false,
      "t": 83682.29166666664,
      "d": 348.9583333333285,
      "v": 62
    },
    {
      "midi": 57,
      "hit": false,
      "t": 84011.71874999997,
      "d": 1660.15625,
      "v": 49
    },
    {
      "midi": 79,
      "hit": false,
      "t": 84317.70833333331,
      "d": 298.1770833333285,
      "v": 83
    },
    {
      "midi": 74,
      "hit": false,
      "t": 84326.82291666664,
      "d": 274.7395833333285,
      "v": 86
    },
    {
      "midi": 48,
      "hit": false,
      "t": 84652.34374999997,
      "d": 680.989583333343,
      "v": 38
    },
    {
      "midi": 41,
      "hit": false,
      "t": 84963.54166666664,
      "d": 751.3020833333285,
      "v": 54
    },
    {
      "midi": 76,
      "hit": false,
      "t": 85298.17708333331,
      "d": 209.63541666665697,
      "v": 68
    },
    {
      "midi": 71,
      "hit": false,
      "t": 85305.98958333331,
      "d": 157.55208333332848,
      "v": 68
    },
    {
      "midi": 48,
      "hit": false,
      "t": 85627.60416666664,
      "d": 84.63541666665697,
      "v": 53
    },
    {
      "midi": 81,
      "hit": false,
      "t": 86005.2083333333,
      "d": 520.8333333333285,
      "v": 86
    },
    {
      "midi": 74,
      "hit": false,
      "t": 86026.04166666663,
      "d": 660.15625,
      "v": 91
    },
    {
      "midi": 43,
      "hit": false,
      "t": 86027.34374999996,
      "d": 787.7604166666715,
      "v": 65
    },
    {
      "midi": 50,
      "hit": false,
      "t": 86373.69791666663,
      "d": 358.0729166666715,
      "v": 48
    },
    {
      "midi": 55,
      "hit": false,
      "t": 86727.8645833333,
      "d": 183.59375,
      "v": 59
    },
    {
      "midi": 79,
      "hit": false,
      "t": 87055.9895833333,
      "d": 309.8958333333285,
      "v": 70
    },
    {
      "midi": 71,
      "hit": false,
      "t": 87059.8958333333,
      "d": 411.4583333333285,
      "v": 60
    },
    {
      "midi": 62,
      "hit": false,
      "t": 87437.49999999996,
      "d": 414.06250000001455,
      "v": 47
    },
    {
      "midi": 59,
      "hit": false,
      "t": 87802.0833333333,
      "d": 175.78125,
      "v": 46
    },
    {
      "midi": 74,
      "hit": false,
      "t": 88204.4270833333,
      "d": 848.9583333333285,
      "v": 42
    },
    {
      "midi": 69,
      "hit": false,
      "t": 88205.72916666663,
      "d": 1000.0000000000146,
      "v": 46
    },
    {
      "midi": 71,
      "hit": false,
      "t": 89145.8333333333,
      "d": 3854.1666666666715,
      "v": 50
    },
    {
      "midi": 76,
      "hit": false,
      "t": 89149.7395833333,
      "d": 3886.71875,
      "v": 59
    },
    {
      "midi": 40,
      "hit": false,
      "t": 89153.6458333333,
      "d": 553.3854166666861,
      "v": 58
    },
    {
      "midi": 47,
      "hit": false,
      "t": 89473.95833333331,
      "d": 296.875,
      "v": 33
    },
    {
      "midi": 52,
      "hit": false,
      "t": 89786.45833333331,
      "d": 74.21875,
      "v": 43
    },
    {
      "midi": 55,
      "hit": false,
      "t": 90098.95833333331,
      "d": 130.20833333332848,
      "v": 29
    },
    {
      "midi": 59,
      "hit": false,
      "t": 90468.74999999997,
      "d": 118.48958333332848,
      "v": 38
    },
    {
      "midi": 62,
      "hit": false,
      "t": 90878.90624999997,
      "d": 98.95833333332848,
      "v": 27
    },
    {
      "midi": 64,
      "hit": false,
      "t": 91374.99999999997,
      "d": 135.41666666667152,
      "v": 30
    },
    {
      "midi": 67,
      "hit": false,
      "t": 91963.54166666664,
      "d": 82.03125,
      "v": 15
    },
    {
      "midi": 81,
      "hit": false,
      "t": 94661.4583333333,
      "d": 342.4479166666715,
      "v": 99
    },
    {
      "midi": 74,
      "hit": false,
      "t": 94661.4583333333,
      "d": 367.1875,
      "v": 107
    },
    {
      "midi": 41,
      "hit": false,
      "t": 94661.4583333333,
      "d": 401.0416666666715,
      "v": 67
    },
    {
      "midi": 48,
      "hit": false,
      "t": 94966.1458333333,
      "d": 268.2291666666715,
      "v": 55
    },
    {
      "midi": 57,
      "hit": false,
      "t": 95279.94791666664,
      "d": 106.77083333332848,
      "v": 51
    },
    {
      "midi": 79,
      "hit": false,
      "t": 95544.2708333333,
      "d": 524.7395833333285,
      "v": 88
    },
    {
      "midi": 71,
      "hit": false,
      "t": 95544.2708333333,
      "d": 584.635416666657,
      "v": 81
    },
    {
      "midi": 60,
      "hit": false,
      "t": 95850.26041666663,
      "d": 332.03125,
      "v": 49
    },
    {
      "midi": 57,
      "hit": false,
      "t": 96167.96874999996,
      "d": 104.16666666667152,
      "v": 58
    },
    {
      "midi": 69,
      "hit": false,
      "t": 96472.65624999996,
      "d": 371.09374999998545,
      "v": 52
    },
    {
      "midi": 74,
      "hit": false,
      "t": 96473.95833333328,
      "d": 390.625,
      "v": 51
    },
    {
      "midi": 48,
      "hit": false,
      "t": 96744.79166666661,
      "d": 101.5625,
      "v": 64
    },
    {
      "midi": 71,
      "hit": false,
      "t": 97067.70833333328,
      "d": 337.23958333334303,
      "v": 88
    },
    {
      "midi": 41,
      "hit": false,
      "t": 97067.70833333328,
      "d": 2122.395833333343,
      "v": 63
    },
    {
      "midi": 76,
      "hit": false,
      "t": 97082.03124999996,
      "d": 283.8541666666715,
      "v": 82
    },
    {
      "midi": 48,
      "hit": false,
      "t": 97380.2083333333,
      "d": 1791.666666666657,
      "v": 52
    },
    {
      "midi": 57,
      "hit": false,
      "t": 97707.03124999996,
      "d": 1401.0416666666715,
      "v": 40
    },
    {
      "midi": 59,
      "hit": false,
      "t": 98014.32291666663,
      "d": 105.46875,
      "v": 42
    },
    {
      "midi": 67,
      "hit": false,
      "t": 98020.8333333333,
      "d": 98.95833333332848,
      "v": 37
    },
    {
      "midi": 60,
      "hit": false,
      "t": 98317.7083333333,
      "d": 403.6458333333285,
      "v": 39
    },
    {
      "midi": 67,
      "hit": false,
      "t": 98334.63541666663,
      "d": 358.0729166666715,
      "v": 39
    },
    {
      "midi": 67,
      "hit": false,
      "t": 99061.19791666663,
      "d": 136.71875,
      "v": 30
    },
    {
      "midi": 62,
      "hit": false,
      "t": 99062.49999999996,
      "d": 93.75,
      "v": 45
    },
    {
      "midi": 43,
      "hit": false,
      "t": 100552.0833333333,
      "d": 1194.0104166666715,
      "v": 74
    },
    {
      "midi": 81,
      "hit": false,
      "t": 100553.38541666663,
      "d": 394.53125,
      "v": 103
    },
    {
      "midi": 74,
      "hit": false,
      "t": 100557.29166666663,
      "d": 457.03125,
      "v": 111
    },
    {
      "midi": 50,
      "hit": false,
      "t": 100871.09374999996,
      "d": 263.02083333334303,
      "v": 57
    },
    {
      "midi": 55,
      "hit": false,
      "t": 101144.53124999997,
      "d": 402.34375,
      "v": 63
    },
    {
      "midi": 79,
      "hit": false,
      "t": 101427.0833333333,
      "d": 263.02083333334303,
      "v": 101
    },
    {
      "midi": 71,
      "hit": false,
      "t": 101430.9895833333,
      "d": 320.3125,
      "v": 97
    },
    {
      "midi": 50,
      "hit": false,
      "t": 101726.56249999997,
      "d": 316.40624999998545,
      "v": 55
    },
    {
      "midi": 57,
      "hit": false,
      "t": 102041.66666666663,
      "d": 420.5729166666715,
      "v": 61
    },
    {
      "midi": 74,
      "hit": false,
      "t": 102355.46874999996,
      "d": 345.05208333334303,
      "v": 75
    },
    {
      "midi": 67,
      "hit": false,
      "t": 102373.69791666663,
      "d": 286.45833333334303,
      "v": 65
    },
    {
      "midi": 57,
      "hit": false,
      "t": 102660.15624999997,
      "d": 122.39583333332848,
      "v": 40
    },
    {
      "midi": 64,
      "hit": false,
      "t": 102989.5833333333,
      "d": 656.2499999999854,
      "v": 67
    },
    {
      "midi": 71,
      "hit": false,
      "t": 102989.5833333333,
      "d": 697.916666666657,
      "v": 65
    },
    {
      "midi": 43,
      "hit": false,
      "t": 102997.3958333333,
      "d": 2967.4479166666424,
      "v": 61
    },
    {
      "midi": 50,
      "hit": false,
      "t": 103312.49999999996,
      "d": 322.9166666666715,
      "v": 36
    },
    {
      "midi": 55,
      "hit": false,
      "t": 103640.62499999996,
      "d": 95.05208333332848,
      "v": 41
    },
    {
      "midi": 69,
      "hit": false,
      "t": 103927.08333333328,
      "d": 140.625,
      "v": 43
    },
    {
      "midi": 62,
      "hit": false,
      "t": 103949.21874999996,
      "d": 106.77083333332848,
      "v": 43
    },
    {
      "midi": 57,
      "hit": false,
      "t": 103962.23958333328,
      "d": 109.375,
      "v": 36
    },
    {
      "midi": 62,
      "hit": false,
      "t": 104292.96874999996,
      "d": 1049.479166666657,
      "v": 33
    },
    {
      "midi": 67,
      "hit": false,
      "t": 104295.57291666663,
      "d": 1101.5624999999854,
      "v": 44
    },
    {
      "midi": 55,
      "hit": false,
      "t": 104307.29166666663,
      "d": 2048.177083333314,
      "v": 34
    },
    {
      "midi": 41,
      "hit": false,
      "t": 107734.37499999994,
      "d": 807.2916666666715,
      "v": 78
    },
    {
      "midi": 81,
      "hit": false,
      "t": 107739.58333333327,
      "d": 552.083333333343,
      "v": 101
    },
    {
      "midi": 74,
      "hit": false,
      "t": 107746.09374999994,
      "d": 639.3229166666715,
      "v": 108
    },
    {
      "midi": 48,
      "hit": false,
      "t": 108041.66666666661,
      "d": 291.6666666666715,
      "v": 62
    },
    {
      "midi": 55,
      "hit": false,
      "t": 108337.23958333328,
      "d": 152.34375,
      "v": 62
    },
    {
      "midi": 79,
      "hit": false,
      "t": 108611.97916666661,
      "d": 188.80208333334303,
      "v": 93
    },
    {
      "midi": 48,
      "hit": false,
      "t": 108614.58333333328,
      "d": 312.5,
      "v": 62
    },
    {
      "midi": 72,
      "hit": false,
      "t": 108617.18749999996,
      "d": 223.95833333332848,
      "v": 86
    },
    {
      "midi": 57,
      "hit": false,
      "t": 108925.78124999996,
      "d": 376.3020833333285,
      "v": 50
    },
    {
      "midi": 48,
      "hit": false,
      "t": 109208.33333333328,
      "d": 305.9895833333285,
      "v": 42
    },
    {
      "midi": 69,
      "hit": false,
      "t": 109513.02083333328,
      "d": 378.90625,
      "v": 90
    },
    {
      "midi": 76,
      "hit": false,
      "t": 109514.32291666661,
      "d": 358.0729166666715,
      "v": 86
    },
    {
      "midi": 48,
      "hit": false,
      "t": 109805.98958333328,
      "d": 85.9375,
      "v": 70
    },
    {
      "midi": 74,
      "hit": false,
      "t": 110111.97916666661,
      "d": 783.8541666666715,
      "v": 79
    },
    {
      "midi": 41,
      "hit": false,
      "t": 110115.88541666661,
      "d": 595.0520833333285,
      "v": 71
    },
    {
      "midi": 67,
      "hit": false,
      "t": 110121.09374999994,
      "d": 714.8437500000146,
      "v": 62
    },
    {
      "midi": 48,
      "hit": false,
      "t": 110432.29166666661,
      "d": 308.59375,
      "v": 59
    },
    {
      "midi": 55,
      "hit": false,
      "t": 110763.02083333328,
      "d": 119.79166666667152,
      "v": 45
    },
    {
      "midi": 69,
      "hit": false,
      "t": 111097.65624999996,
      "d": 2825.520833333343,
      "v": 57
    },
    {
      "midi": 76,
      "hit": false,
      "t": 111101.56249999996,
      "d": 2867.1875000000146,
      "v": 60
    },
    {
      "midi": 60,
      "hit": false,
      "t": 111494.79166666663,
      "d": 791.6666666666715,
      "v": 46
    },
    {
      "midi": 57,
      "hit": false,
      "t": 112341.1458333333,
      "d": 134.11458333332848,
      "v": 42
    },
    {
      "midi": 76,
      "hit": false,
      "t": 114464.84374999997,
      "d": 5820.312499999956,
      "v": 52
    },
    {
      "midi": 71,
      "hit": false,
      "t": 114545.57291666664,
      "d": 5704.427083333285,
      "v": 44
    },
    {
      "midi": 40,
      "hit": false,
      "t": 114555.9895833333,
      "d": 459.63541666665697,
      "v": 57
    },
    {
      "midi": 47,
      "hit": false,
      "t": 114846.35416666663,
      "d": 255.20833333332848,
      "v": 51
    },
    {
      "midi": 52,
      "hit": false,
      "t": 115141.92708333328,
      "d": 54.6875,
      "v": 50
    },
    {
      "midi": 55,
      "hit": false,
      "t": 115446.61458333328,
      "d": 89.84375,
      "v": 29
    },
    {
      "midi": 59,
      "hit": false,
      "t": 115764.32291666661,
      "d": 98.95833333332848,
      "v": 45
    },
    {
      "midi": 62,
      "hit": false,
      "t": 116075.52083333327,
      "d": 91.14583333332848,
      "v": 35
    },
    {
      "midi": 64,
      "hit": false,
      "t": 116421.87499999993,
      "d": 399.73958333334303,
      "v": 39
    },
    {
      "midi": 59,
      "hit": false,
      "t": 116709.6354166666,
      "d": 572.9166666666715,
      "v": 45
    },
    {
      "midi": 67,
      "hit": false,
      "t": 116744.7916666666,
      "d": 3417.96875,
      "v": 34
    },
    {
      "midi": 52,
      "hit": false,
      "t": 117057.2916666666,
      "d": 3399.7395833333285,
      "v": 55
    },
    {
      "midi": 55,
      "hit": false,
      "t": 117386.71874999994,
      "d": 339.84375,
      "v": 17
    },
    {
      "midi": 59,
      "hit": false,
      "t": 117697.91666666661,
      "d": 395.8333333333285,
      "v": 31
    },
    {
      "midi": 55,
      "hit": false,
      "t": 118074.21874999994,
      "d": 2423.177083333314,
      "v": 26
    },
    {
      "midi": 64,
      "hit": false,
      "t": 118524.73958333327,
      "d": 972.65625,
      "v": 28
    },
    {
      "midi": 59,
      "hit": false,
      "t": 119410.15624999994,
      "d": 1022.135416666657,
      "v": 21
    },
    {
      "midi": 71,
      "hit": false,
      "t": 122011.71874999993,
      "d": 477.8645833333285,
      "v": 36
    },
    {
      "midi": 62,
      "hit": false,
      "t": 122016.92708333326,
      "d": 575.5208333333285,
      "v": 32
    },
    {
      "midi": 40,
      "hit": false,
      "t": 122026.04166666658,
      "d": 1061.197916666686,
      "v": 39
    },
    {
      "midi": 47,
      "hit": false,
      "t": 122304.68749999993,
      "d": 240.88541666665697,
      "v": 29
    },
    {
      "midi": 52,
      "hit": false,
      "t": 122574.21874999991,
      "d": 290.3645833333576,
      "v": 38
    },
    {
      "midi": 67,
      "hit": false,
      "t": 122837.23958333326,
      "d": 924.4791666666715,
      "v": 50
    },
    {
      "midi": 59,
      "hit": false,
      "t": 122843.74999999993,
      "d": 902.34375,
      "v": 47
    },
    {
      "midi": 47,
      "hit": false,
      "t": 122861.9791666666,
      "d": 244.79166666667152,
      "v": 36
    },
    {
      "midi": 52,
      "hit": false,
      "t": 123130.20833333327,
      "d": 279.94791666665697,
      "v": 36
    },
    {
      "midi": 47,
      "hit": false,
      "t": 123389.3229166666,
      "d": 298.1770833333285,
      "v": 49
    },
    {
      "midi": 52,
      "hit": false,
      "t": 123677.08333333326,
      "d": 114.58333333334303,
      "v": 47
    },
    {
      "midi": 69,
      "hit": false,
      "t": 123954.42708333327,
      "d": 2477.8645833333285,
      "v": 80
    },
    {
      "midi": 62,
      "hit": false,
      "t": 123957.03124999994,
      "d": 2531.25,
      "v": 85
    },
    {
      "midi": 48,
      "hit": false,
      "t": 123963.54166666661,
      "d": 286.4583333333285,
      "v": 54
    },
    {
      "midi": 41,
      "hit": false,
      "t": 124229.16666666661,
      "d": 845.0520833333285,
      "v": 63
    },
    {
      "midi": 48,
      "hit": false,
      "t": 124502.60416666661,
      "d": 273.4375,
      "v": 48
    },
    {
      "midi": 53,
      "hit": false,
      "t": 124796.87499999994,
      "d": 260.4166666666715,
      "v": 46
    },
    {
      "midi": 48,
      "hit": false,
      "t": 125057.29166666661,
      "d": 278.6458333333285,
      "v": 49
    },
    {
      "midi": 55,
      "hit": false,
      "t": 125335.93749999994,
      "d": 127.60416666667152,
      "v": 51
    },
    {
      "midi": 57,
      "hit": false,
      "t": 125647.13541666661,
      "d": 354.16666666665697,
      "v": 37
    },
    {
      "midi": 55,
      "hit": false,
      "t": 125999.99999999994,
      "d": 326.82291666665697,
      "v": 28
    },
    {
      "midi": 53,
      "hit": false,
      "t": 126381.5104166666,
      "d": 72.91666666667152,
      "v": 34
    },
    {
      "midi": 71,
      "hit": false,
      "t": 126895.83333333327,
      "d": 614.5833333333285,
      "v": 97
    },
    {
      "midi": 62,
      "hit": false,
      "t": 126912.7604166666,
      "d": 645.8333333333285,
      "v": 100
    },
    {
      "midi": 40,
      "hit": false,
      "t": 126924.4791666666,
      "d": 673.1770833333285,
      "v": 63
    },
    {
      "midi": 47,
      "hit": false,
      "t": 127186.1979166666,
      "d": 299.4791666666715,
      "v": 64
    },
    {
      "midi": 52,
      "hit": false,
      "t": 127485.67708333327,
      "d": 178.38541666665697,
      "v": 72
    },
    {
      "midi": 67,
      "hit": false,
      "t": 127727.86458333326,
      "d": 1006.510416666657,
      "v": 96
    },
    {
      "midi": 59,
      "hit": false,
      "t": 127739.58333333326,
      "d": 984.3749999999854,
      "v": 96
    },
    {
      "midi": 47,
      "hit": false,
      "t": 127760.41666666658,
      "d": 229.16666666667152,
      "v": 61
    },
    {
      "midi": 52,
      "hit": false,
      "t": 127994.79166666658,
      "d": 302.0833333333285,
      "v": 70
    },
    {
      "midi": 47,
      "hit": false,
      "t": 128277.34374999991,
      "d": 305.9895833333285,
      "v": 63
    },
    {
      "midi": 52,
      "hit": false,
      "t": 128583.33333333324,
      "d": 92.44791666667152,
      "v": 61
    },
    {
      "midi": 69,
      "hit": false,
      "t": 128826.82291666658,
      "d": 2670.5729166666424,
      "v": 82
    },
    {
      "midi": 62,
      "hit": false,
      "t": 128843.74999999991,
      "d": 1583.3333333333285,
      "v": 90
    },
    {
      "midi": 52,
      "hit": false,
      "t": 128848.95833333324,
      "d": 326.8229166666715,
      "v": 57
    },
    {
      "midi": 45,
      "hit": false,
      "t": 129138.02083333324,
      "d": 2705.7291666666715,
      "v": 75
    },
    {
      "midi": 52,
      "hit": false,
      "t": 129419.27083333324,
      "d": 278.6458333333285,
      "v": 49
    },
    {
      "midi": 57,
      "hit": false,
      "t": 129709.63541666657,
      "d": 292.96875,
      "v": 64
    },
    {
      "midi": 52,
      "hit": false,
      "t": 130005.20833333324,
      "d": 1731.7708333333285,
      "v": 46
    },
    {
      "midi": 61,
      "hit": false,
      "t": 130388.02083333324,
      "d": 1106.7708333333285,
      "v": 64
    },
    {
      "midi": 57,
      "hit": false,
      "t": 130406.24999999991,
      "d": 1290.364583333314,
      "v": 26
    },
    {
      "midi": 41,
      "hit": false,
      "t": 134016.92708333326,
      "d": 947.916666666657,
      "v": 73
    },
    {
      "midi": 71,
      "hit": false,
      "t": 134031.2499999999,
      "d": 630.208333333343,
      "v": 102
    },
    {
      "midi": 62,
      "hit": false,
      "t": 134031.2499999999,
      "d": 675.78125,
      "v": 108
    },
    {
      "midi": 48,
      "hit": false,
      "t": 134326.82291666657,
      "d": 303.38541666668607,
      "v": 58
    },
    {
      "midi": 53,
      "hit": false,
      "t": 134624.9999999999,
      "d": 290.36458333334303,
      "v": 68
    },
    {
      "midi": 60,
      "hit": false,
      "t": 134898.4374999999,
      "d": 992.1875,
      "v": 93
    },
    {
      "midi": 67,
      "hit": false,
      "t": 134898.4374999999,
      "d": 1009.114583333343,
      "v": 94
    },
    {
      "midi": 48,
      "hit": false,
      "t": 134902.3437499999,
      "d": 283.85416666665697,
      "v": 70
    },
    {
      "midi": 53,
      "hit": false,
      "t": 135179.6874999999,
      "d": 742.1875,
      "v": 61
    },
    {
      "midi": 48,
      "hit": false,
      "t": 135464.8437499999,
      "d": 351.5625,
      "v": 56
    },
    {
      "midi": 41,
      "hit": false,
      "t": 135776.04166666657,
      "d": 92.44791666668607,
      "v": 66
    },
    {
      "midi": 69,
      "hit": false,
      "t": 136062.4999999999,
      "d": 3805.9895833332557,
      "v": 87
    },
    {
      "midi": 62,
      "hit": false,
      "t": 136065.10416666657,
      "d": 2328.124999999942,
      "v": 93
    },
    {
      "midi": 50,
      "hit": false,
      "t": 136067.70833333323,
      "d": 355.46875,
      "v": 78
    },
    {
      "midi": 43,
      "hit": false,
      "t": 136354.16666666657,
      "d": 2729.1666666665988,
      "v": 81
    },
    {
      "midi": 50,
      "hit": false,
      "t": 136628.90624999988,
      "d": 332.03125,
      "v": 62
    },
    {
      "midi": 55,
      "hit": false,
      "t": 136937.49999999988,
      "d": 317.70833333331393,
      "v": 53
    },
    {
      "midi": 50,
      "hit": false,
      "t": 137236.97916666654,
      "d": 425.78125,
      "v": 58
    },
    {
      "midi": 57,
      "hit": false,
      "t": 137600.26041666654,
      "d": 346.35416666665697,
      "v": 55
    },
    {
      "midi": 50,
      "hit": false,
      "t": 137960.93749999985,
      "d": 1111.979166666657,
      "v": 45
    },
    {
      "midi": 55,
      "hit": false,
      "t": 138361.9791666665,
      "d": 614.583333333343,
      "v": 40
    },
    {
      "midi": 64,
      "hit": false,
      "t": 138367.18749999985,
      "d": 1662.760416666657,
      "v": 65
    },
    {
      "midi": 62,
      "hit": false,
      "t": 140001.30208333317,
      "d": 184.89583333334303,
      "v": 51
    },
    {
      "midi": 59,
      "hit": false,
      "t": 140600.2604166665,
      "d": 684.8958333333139,
      "v": 52
    },
    {
      "midi": 64,
      "hit": false,
      "t": 140602.86458333317,
      "d": 692.7083333333139,
      "v": 54
    },
    {
      "midi": 40,
      "hit": false,
      "t": 140611.9791666665,
      "d": 1424.4791666666279,
      "v": 61
    },
    {
      "midi": 47,
      "hit": false,
      "t": 140877.6041666665,
      "d": 325.52083333331393,
      "v": 59
    },
    {
      "midi": 52,
      "hit": false,
      "t": 141188.80208333317,
      "d": 332.0312499999709,
      "v": 74
    },
    {
      "midi": 64,
      "hit": false,
      "t": 141473.95833333314,
      "d": 712.239583333343,
      "v": 85
    },
    {
      "midi": 57,
      "hit": false,
      "t": 141475.26041666648,
      "d": 718.75,
      "v": 74
    },
    {
      "midi": 47,
      "hit": false,
      "t": 141479.16666666648,
      "d": 278.64583333331393,
      "v": 58
    },
    {
      "midi": 52,
      "hit": false,
      "t": 141755.20833333314,
      "d": 281.25,
      "v": 57
    },
    {
      "midi": 47,
      "hit": false,
      "t": 142011.7187499998,
      "d": 300.7812500000291,
      "v": 61
    },
    {
      "midi": 52,
      "hit": false,
      "t": 142326.82291666648,
      "d": 919.270833333343,
      "v": 50
    },
    {
      "midi": 59,
      "hit": false,
      "t": 142330.72916666648,
      "d": 1046.875,
      "v": 70
    },
    {
      "midi": 64,
      "hit": false,
      "t": 142333.33333333314,
      "d": 1067.708333333343,
      "v": 75
    },
    {
      "midi": 47,
      "hit": false,
      "t": 142630.20833333314,
      "d": 377.60416666668607,
      "v": 51
    },
    {
      "midi": 40,
      "hit": false,
      "t": 142963.54166666648,
      "d": 398.4375,
      "v": 81
    },
    {
      "midi": 47,
      "hit": false,
      "t": 143273.43749999983,
      "d": 299.47916666665697,
      "v": 60
    },
    {
      "midi": 57,
      "hit": false,
      "t": 143598.95833333314,
      "d": 350.26041666665697,
      "v": 50
    },
    {
      "midi": 52,
      "hit": false,
      "t": 143610.67708333314,
      "d": 96.35416666665697,
      "v": 52
    },
    {
      "midi": 59,
      "hit": false,
      "t": 143970.05208333314,
      "d": 148.4375,
      "v": 56
    },
    {
      "midi": 59,
      "hit": false,
      "t": 144328.1249999998,
      "d": 98.95833333331393,
      "v": 43
    },
    {
      "midi": 64,
      "hit": false,
      "t": 144334.63541666645,
      "d": 92.44791666665697,
      "v": 55
    },
    {
      "midi": 59,
      "hit": false,
      "t": 144721.35416666645,
      "d": 80.72916666665697,
      "v": 55
    },
    {
      "midi": 71,
      "hit": false,
      "t": 145145.8333333331,
      "d": 113.28125,
      "v": 45
    },
    {
      "midi": 69,
      "hit": false,
      "t": 145145.8333333331,
      "d": 125,
      "v": 35
    },
    {
      "midi": 76,
      "hit": false,
      "t": 145149.7395833331,
      "d": 141.92708333334303,
      "v": 52
    },
    {
      "midi": 83,
      "hit": false,
      "t": 147322.91666666645,
      "d": 595.0520833333139,
      "v": 103
    },
    {
      "midi": 74,
      "hit": false,
      "t": 147330.72916666645,
      "d": 643.229166666657,
      "v": 105
    },
    {
      "midi": 41,
      "hit": false,
      "t": 147338.54166666645,
      "d": 1407.552083333343,
      "v": 68
    },
    {
      "midi": 48,
      "hit": false,
      "t": 147632.81249999977,
      "d": 289.0625,
      "v": 54
    },
    {
      "midi": 57,
      "hit": false,
      "t": 147923.1770833331,
      "d": 266.92708333334303,
      "v": 57
    },
    {
      "midi": 79,
      "hit": false,
      "t": 148177.0833333331,
      "d": 1072.916666666686,
      "v": 99
    },
    {
      "midi": 71,
      "hit": false,
      "t": 148188.8020833331,
      "d": 1035.156250000029,
      "v": 95
    },
    {
      "midi": 48,
      "hit": false,
      "t": 148197.91666666645,
      "d": 273.4375,
      "v": 63
    },
    {
      "midi": 55,
      "hit": false,
      "t": 148467.44791666645,
      "d": 747.395833333343,
      "v": 60
    },
    {
      "midi": 48,
      "hit": false,
      "t": 148770.83333333314,
      "d": 356.77083333334303,
      "v": 54
    },
    {
      "midi": 41,
      "hit": false,
      "t": 149079.42708333314,
      "d": 66.40625,
      "v": 54
    },
    {
      "midi": 81,
      "hit": false,
      "t": 149374.9999999998,
      "d": 2462.239583333314,
      "v": 85
    },
    {
      "midi": 50,
      "hit": false,
      "t": 149385.41666666645,
      "d": 343.75,
      "v": 67
    },
    {
      "midi": 74,
      "hit": false,
      "t": 149385.41666666645,
      "d": 2567.708333333314,
      "v": 96
    },
    {
      "midi": 43,
      "hit": false,
      "t": 149671.8749999998,
      "d": 984.375,
      "v": 80
    },
    {
      "midi": 50,
      "hit": false,
      "t": 149963.54166666645,
      "d": 296.875,
      "v": 60
    },
    {
      "midi": 55,
      "hit": false,
      "t": 150273.4374999998,
      "d": 276.04166666665697,
      "v": 48
    },
    {
      "midi": 50,
      "hit": false,
      "t": 150584.63541666645,
      "d": 332.03125,
      "v": 41
    },
    {
      "midi": 57,
      "hit": false,
      "t": 150930.9895833331,
      "d": 363.28125,
      "v": 49
    },
    {
      "midi": 50,
      "hit": false,
      "t": 151276.04166666645,
      "d": 378.90625,
      "v": 47
    },
    {
      "midi": 59,
      "hit": false,
      "t": 151661.4583333331,
      "d": 281.25,
      "v": 36
    },
    {
      "midi": 50,
      "hit": false,
      "t": 152087.2395833331,
      "d": 54.6875,
      "v": 48
    },
    {
      "midi": 41,
      "hit": false,
      "t": 152515.62499999977,
      "d": 925.78125,
      "v": 68
    },
    {
      "midi": 83,
      "hit": false,
      "t": 152531.24999999977,
      "d": 485.67708333334303,
      "v": 98
    },
    {
      "midi": 74,
      "hit": false,
      "t": 152532.5520833331,
      "d": 632.8125,
      "v": 102
    },
    {
      "midi": 48,
      "hit": false,
      "t": 152843.74999999977,
      "d": 309.89583333334303,
      "v": 70
    },
    {
      "midi": 55,
      "hit": false,
      "t": 153131.51041666645,
      "d": 322.91666666665697,
      "v": 64
    },
    {
      "midi": 79,
      "hit": false,
      "t": 153382.81249999977,
      "d": 873.6979166666861,
      "v": 101
    },
    {
      "midi": 71,
      "hit": false,
      "t": 153386.71874999977,
      "d": 819.0104166666861,
      "v": 93
    },
    {
      "midi": 48,
      "hit": false,
      "t": 153402.34374999977,
      "d": 302.08333333334303,
      "v": 58
    },
    {
      "midi": 55,
      "hit": false,
      "t": 153688.8020833331,
      "d": 191.40625,
      "v": 53
    },
    {
      "midi": 48,
      "hit": false,
      "t": 153975.26041666645,
      "d": 320.3125,
      "v": 52
    },
    {
      "midi": 57,
      "hit": false,
      "t": 154312.4999999998,
      "d": 184.89583333334303,
      "v": 40
    },
    {
      "midi": 48,
      "hit": false,
      "t": 154597.6562499998,
      "d": 339.84375,
      "v": 62
    },
    {
      "midi": 88,
      "hit": false,
      "t": 154609.3749999998,
      "d": 864.583333333343,
      "v": 92
    },
    {
      "midi": 83,
      "hit": false,
      "t": 154610.67708333314,
      "d": 910.15625,
      "v": 85
    },
    {
      "midi": 76,
      "hit": false,
      "t": 154614.58333333314,
      "d": 958.3333333333139,
      "v": 82
    },
    {
      "midi": 41,
      "hit": false,
      "t": 154921.8749999998,
      "d": 669.2708333333139,
      "v": 70
    },
    {
      "midi": 48,
      "hit": false,
      "t": 155239.58333333314,
      "d": 299.47916666665697,
      "v": 48
    },
    {
      "midi": 55,
      "hit": false,
      "t": 155562.4999999998,
      "d": 183.5937499999709,
      "v": 40
    },
    {
      "midi": 86,
      "hit": false,
      "t": 155848.9583333331,
      "d": 162.76041666665697,
      "v": 69
    },
    {
      "midi": 48,
      "hit": false,
      "t": 155888.0208333331,
      "d": 565.104166666657,
      "v": 47
    },
    {
      "midi": 84,
      "hit": false,
      "t": 156013.0208333331,
      "d": 143.22916666665697,
      "v": 66
    },
    {
      "midi": 83,
      "hit": false,
      "t": 156192.7083333331,
      "d": 842.447916666657,
      "v": 93
    },
    {
      "midi": 57,
      "hit": false,
      "t": 156212.2395833331,
      "d": 372.39583333334303,
      "v": 42
    },
    {
      "midi": 48,
      "hit": false,
      "t": 156575.5208333331,
      "d": 1028.645833333343,
      "v": 44
    },
    {
      "midi": 55,
      "hit": false,
      "t": 156980.46874999977,
      "d": 753.9062500000291,
      "v": 28
    },
    {
      "midi": 81,
      "hit": false,
      "t": 156986.97916666642,
      "d": 510.41666666668607,
      "v": 58
    },
    {
      "midi": 81,
      "hit": false,
      "t": 160812.4999999998,
      "d": 660.15625,
      "v": 102
    },
    {
      "midi": 43,
      "hit": false,
      "t": 160816.4062499998,
      "d": 2149.7395833334012,
      "v": 81
    },
    {
      "midi": 74,
      "hit": false,
      "t": 160821.61458333314,
      "d": 683.59375,
      "v": 105
    },
    {
      "midi": 50,
      "hit": false,
      "t": 161109.3749999998,
      "d": 302.08333333334303,
      "v": 71
    },
    {
      "midi": 55,
      "hit": false,
      "t": 161395.83333333314,
      "d": 265.625,
      "v": 71
    },
    {
      "midi": 79,
      "hit": false,
      "t": 161678.38541666648,
      "d": 1005.2083333333721,
      "v": 101
    },
    {
      "midi": 50,
      "hit": false,
      "t": 161682.29166666648,
      "d": 322.91666666668607,
      "v": 61
    },
    {
      "midi": 71,
      "hit": false,
      "t": 161682.29166666648,
      "d": 1389.3229166667152,
      "v": 94
    },
    {
      "midi": 57,
      "hit": false,
      "t": 161984.37499999983,
      "d": 305.98958333334303,
      "v": 52
    },
    {
      "midi": 50,
      "hit": false,
      "t": 162291.6666666665,
      "d": 330.72916666668607,
      "v": 58
    },
    {
      "midi": 55,
      "hit": false,
      "t": 162597.65624999985,
      "d": 368.48958333334303,
      "v": 47
    },
    {
      "midi": 74,
      "hit": false,
      "t": 162621.09374999985,
      "d": 475.26041666668607,
      "v": 78
    },
    {
      "midi": 50,
      "hit": false,
      "t": 162937.49999999985,
      "d": 78.125,
      "v": 55
    },
    {
      "midi": 81,
      "hit": false,
      "t": 163278.6458333332,
      "d": 833.3333333333139,
      "v": 90
    },
    {
      "midi": 41,
      "hit": false,
      "t": 163282.5520833332,
      "d": 1092.447916666657,
      "v": 70
    },
    {
      "midi": 74,
      "hit": false,
      "t": 163286.4583333332,
      "d": 850.260416666657,
      "v": 99
    },
    {
      "midi": 48,
      "hit": false,
      "t": 163621.09374999985,
      "d": 335.9375,
      "v": 59
    },
    {
      "midi": 55,
      "hit": false,
      "t": 163963.5416666665,
      "d": 364.58333333334303,
      "v": 50
    },
    {
      "midi": 79,
      "hit": false,
      "t": 164295.5729166665,
      "d": 667.96875,
      "v": 71
    },
    {
      "midi": 71,
      "hit": false,
      "t": 164302.08333333317,
      "d": 643.2291666666861,
      "v": 57
    },
    {
      "midi": 48,
      "hit": false,
      "t": 164307.2916666665,
      "d": 345.05208333334303,
      "v": 41
    },
    {
      "midi": 57,
      "hit": false,
      "t": 164658.8541666665,
      "d": 330.72916666665697,
      "v": 40
    },
    {
      "midi": 48,
      "hit": false,
      "t": 165022.1354166665,
      "d": 352.86458333334303,
      "v": 40
    },
    {
      "midi": 74,
      "hit": false,
      "t": 165407.5520833332,
      "d": 286.45833333334303,
      "v": 44
    },
    {
      "midi": 55,
      "hit": false,
      "t": 165408.85416666654,
      "d": 397.13541666668607,
      "v": 24
    },
    {
      "midi": 69,
      "hit": false,
      "t": 165410.15624999988,
      "d": 394.53125,
      "v": 42
    },
    {
      "midi": 48,
      "hit": false,
      "t": 165805.98958333323,
      "d": 108.07291666665697,
      "v": 51
    },
    {
      "midi": 74,
      "hit": false,
      "t": 166192.70833333323,
      "d": 283.85416666665697,
      "v": 60
    },
    {
      "midi": 69,
      "hit": false,
      "t": 166192.70833333323,
      "d": 333.33333333334303,
      "v": 51
    },
    {
      "midi": 40,
      "hit": false,
      "t": 166194.01041666657,
      "d": 613.28125,
      "v": 66
    },
    {
      "midi": 71,
      "hit": false,
      "t": 166519.53124999988,
      "d": 1785.156250000029,
      "v": 49
    },
    {
      "midi": 76,
      "hit": false,
      "t": 166519.53124999988,
      "d": 2440.104166666686,
      "v": 53
    },
    {
      "midi": 47,
      "hit": false,
      "t": 166520.83333333323,
      "d": 290.36458333334303,
      "v": 53
    },
    {
      "midi": 52,
      "hit": false,
      "t": 166813.80208333323,
      "d": 79.42708333334303,
      "v": 52
    },
    {
      "midi": 55,
      "hit": false,
      "t": 167088.54166666657,
      "d": 141.92708333334303,
      "v": 42
    },
    {
      "midi": 59,
      "hit": false,
      "t": 167404.94791666657,
      "d": 89.84375,
      "v": 44
    },
    {
      "midi": 62,
      "hit": false,
      "t": 167686.19791666657,
      "d": 152.34375,
      "v": 32
    },
    {
      "midi": 64,
      "hit": false,
      "t": 168010.41666666657,
      "d": 105.46875,
      "v": 43
    },
    {
      "midi": 67,
      "hit": false,
      "t": 168304.6874999999,
      "d": 169.27083333334303,
      "v": 38
    },
    {
      "midi": 69,
      "hit": false,
      "t": 168630.20833333326,
      "d": 744.7916666666279,
      "v": 36
    },
    {
      "midi": 71,
      "hit": false,
      "t": 168937.4999999999,
      "d": 348.95833333331393,
      "v": 37
    },
    {
      "midi": 74,
      "hit": false,
      "t": 169244.79166666657,
      "d": 302.08333333331393,
      "v": 37
    },
    {
      "midi": 76,
      "hit": false,
      "t": 169546.87499999988,
      "d": 89.84375,
      "v": 48
    },
    {
      "midi": 81,
      "hit": false,
      "t": 169876.30208333323,
      "d": 1311.197916666686,
      "v": 28
    },
    {
      "midi": 83,
      "hit": false,
      "t": 170208.33333333323,
      "d": 958.333333333343,
      "v": 42
    },
    {
      "midi": 86,
      "hit": false,
      "t": 170598.95833333323,
      "d": 507.8125,
      "v": 41
    },
    {
      "midi": 88,
      "hit": false,
      "t": 171085.93749999988,
      "d": 174.47916666668607,
      "v": 19
    },
    {
      "midi": 45,
      "hit": false,
      "t": 173201.82291666657,
      "d": 399.73958333334303,
      "v": 58
    },
    {
      "midi": 86,
      "hit": false,
      "t": 173203.1249999999,
      "d": 682.291666666657,
      "v": 90
    },
    {
      "midi": 95,
      "hit": false,
      "t": 173205.72916666657,
      "d": 460.9375,
      "v": 86
    },
    {
      "midi": 52,
      "hit": false,
      "t": 173510.41666666657,
      "d": 265.625,
      "v": 44
    },
    {
      "midi": 59,
      "hit": false,
      "t": 173817.70833333323,
      "d": 195.3125,
      "v": 55
    },
    {
      "midi": 83,
      "hit": false,
      "t": 174124.99999999988,
      "d": 1145.833333333343,
      "v": 64
    },
    {
      "midi": 52,
      "hit": false,
      "t": 174126.30208333323,
      "d": 317.70833333334303,
      "v": 50
    },
    {
      "midi": 91,
      "hit": false,
      "t": 174126.30208333323,
      "d": 1055.989583333343,
      "v": 79
    },
    {
      "midi": 57,
      "hit": false,
      "t": 174460.9374999999,
      "d": 311.19791666665697,
      "v": 43
    },
    {
      "midi": 52,
      "hit": false,
      "t": 174786.45833333323,
      "d": 380.20833333334303,
      "v": 38
    },
    {
      "midi": 45,
      "hit": false,
      "t": 175135.41666666657,
      "d": 101.5625,
      "v": 47
    },
    {
      "midi": 93,
      "hit": false,
      "t": 175480.46874999988,
      "d": 2567.708333333314,
      "v": 80
    },
    {
      "midi": 88,
      "hit": false,
      "t": 175815.10416666654,
      "d": 2250,
      "v": 59
    },
    {
      "midi": 81,
      "hit": false,
      "t": 175833.3333333332,
      "d": 2286.458333333343,
      "v": 41
    },
    {
      "midi": 41,
      "hit": false,
      "t": 175834.63541666654,
      "d": 571.614583333343,
      "v": 51
    },
    {
      "midi": 48,
      "hit": false,
      "t": 176145.83333333323,
      "d": 302.08333333331393,
      "v": 43
    },
    {
      "midi": 55,
      "hit": false,
      "t": 176497.3958333332,
      "d": 80.72916666665697,
      "v": 29
    },
    {
      "midi": 57,
      "hit": false,
      "t": 176816.40624999985,
      "d": 110.67708333334303,
      "v": 32
    },
    {
      "midi": 60,
      "hit": false,
      "t": 177175.78124999985,
      "d": 102.86458333334303,
      "v": 35
    },
    {
      "midi": 64,
      "hit": false,
      "t": 177533.85416666654,
      "d": 97.65625,
      "v": 26
    },
    {
      "midi": 67,
      "hit": false,
      "t": 177916.66666666654,
      "d": 96.35416666665697,
      "v": 33
    },
    {
      "midi": 95,
      "hit": false,
      "t": 179445.31249999988,
      "d": 416.66666666665697,
      "v": 105
    },
    {
      "midi": 86,
      "hit": false,
      "t": 179447.91666666654,
      "d": 661.458333333343,
      "v": 109
    },
    {
      "midi": 45,
      "hit": false,
      "t": 179450.5208333332,
      "d": 451.82291666668607,
      "v": 63
    },
    {
      "midi": 52,
      "hit": false,
      "t": 179744.79166666654,
      "d": 291.66666666668607,
      "v": 58
    },
    {
      "midi": 57,
      "hit": false,
      "t": 180048.17708333323,
      "d": 85.9375,
      "v": 58
    },
    {
      "midi": 91,
      "hit": false,
      "t": 180325.52083333323,
      "d": 721.354166666657,
      "v": 103
    },
    {
      "midi": 83,
      "hit": false,
      "t": 180328.12499999988,
      "d": 833.333333333343,
      "v": 90
    },
    {
      "midi": 59,
      "hit": false,
      "t": 180330.72916666654,
      "d": 256.51041666665697,
      "v": 64
    },
    {
      "midi": 60,
      "hit": false,
      "t": 180611.97916666654,
      "d": 143.22916666665697,
      "v": 56
    },
    {
      "midi": 64,
      "hit": false,
      "t": 180932.29166666654,
      "d": 174.47916666668607,
      "v": 52
    },
    {
      "midi": 62,
      "hit": false,
      "t": 181225.26041666657,
      "d": 58.59375,
      "v": 60
    },
    {
      "midi": 93,
      "hit": false,
      "t": 181514.32291666657,
      "d": 2871.093749999971,
      "v": 92
    },
    {
      "midi": 86,
      "hit": false,
      "t": 181518.22916666657,
      "d": 2841.145833333314,
      "v": 99
    },
    {
      "midi": 41,
      "hit": false,
      "t": 181833.33333333323,
      "d": 441.40625,
      "v": 73
    },
    {
      "midi": 48,
      "hit": false,
      "t": 182149.73958333323,
      "d": 278.64583333334303,
      "v": 39
    },
    {
      "midi": 55,
      "hit": false,
      "t": 182462.23958333323,
      "d": 118.48958333334303,
      "v": 50
    },
    {
      "midi": 57,
      "hit": false,
      "t": 182774.73958333323,
      "d": 128.90625,
      "v": 46
    },
    {
      "midi": 60,
      "hit": false,
      "t": 183134.11458333323,
      "d": 83.33333333334303,
      "v": 33
    },
    {
      "midi": 64,
      "hit": false,
      "t": 183458.33333333323,
      "d": 93.75,
      "v": 26
    },
    {
      "midi": 69,
      "hit": false,
      "t": 183886.71874999988,
      "d": 122.39583333334303,
      "v": 34
    },
    {
      "midi": 45,
      "hit": false,
      "t": 186819.01041666654,
      "d": 954.427083333343,
      "v": 74
    },
    {
      "midi": 95,
      "hit": false,
      "t": 186830.72916666654,
      "d": 781.25,
      "v": 100
    },
    {
      "midi": 86,
      "hit": false,
      "t": 186833.3333333332,
      "d": 815.1041666666861,
      "v": 103
    },
    {
      "midi": 52,
      "hit": false,
      "t": 187135.41666666654,
      "d": 317.70833333334303,
      "v": 55
    },
    {
      "midi": 57,
      "hit": false,
      "t": 187464.84374999988,
      "d": 243.48958333334303,
      "v": 54
    },
    {
      "midi": 83,
      "hit": false,
      "t": 187763.02083333323,
      "d": 695.3124999999709,
      "v": 64
    },
    {
      "midi": 91,
      "hit": false,
      "t": 187765.62499999988,
      "d": 774.7395833333139,
      "v": 82
    },
    {
      "midi": 52,
      "hit": false,
      "t": 187776.04166666654,
      "d": 307.29166666665697,
      "v": 52
    },
    {
      "midi": 59,
      "hit": false,
      "t": 188083.3333333332,
      "d": 287.76041666665697,
      "v": 53
    },
    {
      "midi": 52,
      "hit": false,
      "t": 188402.34374999985,
      "d": 757.8125,
      "v": 49
    },
    {
      "midi": 95,
      "hit": false,
      "t": 188714.84374999985,
      "d": 407.55208333334303,
      "v": 87
    },
    {
      "midi": 86,
      "hit": false,
      "t": 188734.37499999985,
      "d": 444.01041666665697,
      "v": 93
    },
    {
      "midi": 45,
      "hit": false,
      "t": 189098.9583333332,
      "d": 92.44791666665697,
      "v": 44
    },
    {
      "midi": 93,
      "hit": false,
      "t": 189464.84374999985,
      "d": 796.8749999999709,
      "v": 84
    },
    {
      "midi": 86,
      "hit": false,
      "t": 189471.3541666665,
      "d": 865.885416666657,
      "v": 85
    },
    {
      "midi": 43,
      "hit": false,
      "t": 189473.95833333317,
      "d": 1000,
      "v": 60
    },
    {
      "midi": 50,
      "hit": false,
      "t": 189822.9166666665,
      "d": 367.1875,
      "v": 51
    },
    {
      "midi": 55,
      "hit": false,
      "t": 190192.70833333317,
      "d": 152.34375,
      "v": 40
    },
    {
      "midi": 88,
      "hit": false,
      "t": 190523.43749999983,
      "d": 1174.479166666686,
      "v": 63
    },
    {
      "midi": 81,
      "hit": false,
      "t": 190531.24999999983,
      "d": 1789.062500000029,
      "v": 53
    },
    {
      "midi": 50,
      "hit": false,
      "t": 190539.06249999983,
      "d": 364.58333333334303,
      "v": 44
    },
    {
      "midi": 57,
      "hit": false,
      "t": 190910.15624999983,
      "d": 266.92708333334303,
      "v": 39
    },
    {
      "midi": 50,
      "hit": false,
      "t": 191292.96874999983,
      "d": 417.9687500000291,
      "v": 40
    },
    {
      "midi": 86,
      "hit": false,
      "t": 191696.61458333317,
      "d": 401.04166666668607,
      "v": 59
    },
    {
      "midi": 93,
      "hit": false,
      "t": 191697.9166666665,
      "d": 365.88541666668607,
      "v": 48
    },
    {
      "midi": 55,
      "hit": false,
      "t": 191710.93749999985,
      "d": 442.70833333334303,
      "v": 39
    },
    {
      "midi": 50,
      "hit": false,
      "t": 192136.71874999985,
      "d": 70.3125,
      "v": 45
    },
    {
      "midi": 41,
      "hit": false,
      "t": 192585.93749999985,
      "d": 455.72916666662786,
      "v": 62
    },
    {
      "midi": 84,
      "hit": false,
      "t": 192588.5416666665,
      "d": 628.9062499999709,
      "v": 89
    },
    {
      "midi": 91,
      "hit": false,
      "t": 192592.4479166665,
      "d": 501.30208333331393,
      "v": 90
    },
    {
      "midi": 48,
      "hit": false,
      "t": 192968.74999999983,
      "d": 308.59375,
      "v": 53
    },
    {
      "midi": 88,
      "hit": false,
      "t": 193346.35416666648,
      "d": 178.38541666665697,
      "v": 70
    },
    {
      "midi": 55,
      "hit": false,
      "t": 193361.97916666648,
      "d": 158.85416666665697,
      "v": 44
    },
    {
      "midi": 79,
      "hit": false,
      "t": 193364.58333333314,
      "d": 119.79166666665697,
      "v": 51
    },
    {
      "midi": 91,
      "hit": false,
      "t": 193742.1874999998,
      "d": 200.52083333334303,
      "v": 92
    },
    {
      "midi": 84,
      "hit": false,
      "t": 193743.48958333314,
      "d": 199.21875,
      "v": 95
    },
    {
      "midi": 57,
      "hit": false,
      "t": 193753.9062499998,
      "d": 277.34375,
      "v": 50
    },
    {
      "midi": 60,
      "hit": false,
      "t": 194153.64583333314,
      "d": 169.27083333334303,
      "v": 42
    },
    {
      "midi": 88,
      "hit": false,
      "t": 194156.2499999998,
      "d": 118.48958333334303,
      "v": 87
    },
    {
      "midi": 79,
      "hit": false,
      "t": 194161.45833333314,
      "d": 125,
      "v": 72
    },
    {
      "midi": 64,
      "hit": false,
      "t": 194569.01041666648,
      "d": 250,
      "v": 42
    },
    {
      "midi": 76,
      "hit": false,
      "t": 194954.42708333314,
      "d": 239.58333333334303,
      "v": 70
    },
    {
      "midi": 84,
      "hit": false,
      "t": 194957.0312499998,
      "d": 197.91666666668607,
      "v": 66
    },
    {
      "midi": 67,
      "hit": false,
      "t": 194966.14583333314,
      "d": 1341.145833333343,
      "v": 54
    },
    {
      "midi": 79,
      "hit": false,
      "t": 195367.18749999983,
      "d": 169.27083333334303,
      "v": 49
    },
    {
      "midi": 64,
      "hit": false,
      "t": 195367.18749999983,
      "d": 479.16666666665697,
      "v": 33
    },
    {
      "midi": 72,
      "hit": false,
      "t": 195390.62499999983,
      "d": 144.53125,
      "v": 41
    },
    {
      "midi": 74,
      "hit": false,
      "t": 195817.70833333317,
      "d": 358.07291666665697,
      "v": 68
    },
    {
      "midi": 79,
      "hit": false,
      "t": 195817.70833333317,
      "d": 371.09375,
      "v": 71
    },
    {
      "midi": 62,
      "hit": false,
      "t": 195832.03124999983,
      "d": 480.46875,
      "v": 44
    },
    {
      "midi": 76,
      "hit": false,
      "t": 196253.90624999983,
      "d": 183.59375,
      "v": 51
    },
    {
      "midi": 84,
      "hit": false,
      "t": 196255.20833333317,
      "d": 197.91666666665697,
      "v": 44
    },
    {
      "midi": 60,
      "hit": false,
      "t": 196261.71874999983,
      "d": 123.69791666665697,
      "v": 59
    },
    {
      "midi": 72,
      "hit": false,
      "t": 196718.74999999983,
      "d": 177.08333333334303,
      "v": 45
    },
    {
      "midi": 79,
      "hit": false,
      "t": 196718.74999999983,
      "d": 225.26041666668607,
      "v": 47
    },
    {
      "midi": 57,
      "hit": false,
      "t": 196739.58333333317,
      "d": 247.39583333334303,
      "v": 48
    },
    {
      "midi": 79,
      "hit": false,
      "t": 197234.37499999985,
      "d": 312.5,
      "v": 44
    },
    {
      "midi": 74,
      "hit": false,
      "t": 197240.8854166665,
      "d": 285.15625,
      "v": 45
    },
    {
      "midi": 55,
      "hit": false,
      "t": 197255.20833333317,
      "d": 656.25,
      "v": 43
    },
    {
      "midi": 81,
      "hit": false,
      "t": 197804.68749999985,
      "d": 329.42708333331393,
      "v": 44
    },
    {
      "midi": 76,
      "hit": false,
      "t": 197804.68749999985,
      "d": 363.2812499999709,
      "v": 52
    },
    {
      "midi": 52,
      "hit": false,
      "t": 197819.0104166665,
      "d": 3743.489583333343,
      "v": 43
    },
    {
      "midi": 45,
      "hit": false,
      "t": 198411.45833333317,
      "d": 3190.104166666686,
      "v": 34
    },
    {
      "midi": 79,
      "hit": false,
      "t": 198421.87499999983,
      "d": 130.20833333334303,
      "v": 52
    },
    {
      "midi": 84,
      "hit": false,
      "t": 198421.87499999983,
      "d": 161.45833333334303,
      "v": 48
    },
    {
      "midi": 86,
      "hit": false,
      "t": 199108.0729166665,
      "d": 872.395833333343,
      "v": 58
    },
    {
      "midi": 81,
      "hit": false,
      "t": 199124.99999999985,
      "d": 2371.09375,
      "v": 36
    },
    {
      "midi": 57,
      "hit": false,
      "t": 199136.71874999985,
      "d": 2359.375,
      "v": 21
    },
    {
      "midi": 84,
      "hit": false,
      "t": 200005.2083333332,
      "d": 1457.03125,
      "v": 29
    },
    {
      "midi": 88,
      "hit": false,
      "t": 200009.1145833332,
      "d": 1412.760416666657,
      "v": 45
    },
    {
      "midi": 40,
      "hit": false,
      "t": 202985.6770833332,
      "d": 904.947916666657,
      "v": 45
    },
    {
      "midi": 47,
      "hit": false,
      "t": 203294.2708333332,
      "d": 299.47916666665697,
      "v": 51
    },
    {
      "midi": 52,
      "hit": false,
      "t": 203602.8645833332,
      "d": 268.22916666665697,
      "v": 53
    },
    {
      "midi": 47,
      "hit": false,
      "t": 203921.87499999985,
      "d": 104.16666666665697,
      "v": 34
    },
    {
      "midi": 55,
      "hit": false,
      "t": 204244.7916666665,
      "d": 109.375,
      "v": 34
    },
    {
      "midi": 57,
      "hit": false,
      "t": 204572.9166666665,
      "d": 101.5625,
      "v": 32
    },
    {
      "midi": 59,
      "hit": false,
      "t": 204924.4791666665,
      "d": 80.72916666665697,
      "v": 44
    },
    {
      "midi": 64,
      "hit": false,
      "t": 205255.20833333317,
      "d": 70.3125,
      "v": 40
    },
    {
      "midi": 52,
      "hit": false,
      "t": 205636.71874999983,
      "d": 658.854166666657,
      "v": 54
    },
    {
      "midi": 59,
      "hit": false,
      "t": 205967.44791666648,
      "d": 345.05208333334303,
      "v": 51
    },
    {
      "midi": 64,
      "hit": false,
      "t": 206320.31249999983,
      "d": 131.51041666665697,
      "v": 55
    },
    {
      "midi": 66,
      "hit": false,
      "t": 206687.49999999983,
      "d": 148.4375,
      "v": 31
    },
    {
      "midi": 67,
      "hit": false,
      "t": 207045.57291666648,
      "d": 147.13541666665697,
      "v": 46
    },
    {
      "midi": 71,
      "hit": false,
      "t": 207411.45833333314,
      "d": 115.88541666665697,
      "v": 42
    },
    {
      "midi": 76,
      "hit": false,
      "t": 207785.1562499998,
      "d": 1059.895833333343,
      "v": 55
    },
    {
      "midi": 78,
      "hit": false,
      "t": 208171.8749999998,
      "d": 406.25,
      "v": 71
    },
    {
      "midi": 79,
      "hit": false,
      "t": 208562.4999999998,
      "d": 324.21875,
      "v": 77
    },
    {
      "midi": 52,
      "hit": false,
      "t": 208565.10416666645,
      "d": 726.5625000000291,
      "v": 58
    },
    {
      "midi": 59,
      "hit": false,
      "t": 208906.2499999998,
      "d": 380.20833333334303,
      "v": 46
    },
    {
      "midi": 64,
      "hit": false,
      "t": 209299.47916666648,
      "d": 106.77083333334303,
      "v": 41
    },
    {
      "midi": 83,
      "hit": false,
      "t": 209307.29166666648,
      "d": 1458.333333333343,
      "v": 55
    },
    {
      "midi": 88,
      "hit": false,
      "t": 209697.91666666648,
      "d": 554.6875,
      "v": 62
    },
    {
      "midi": 71,
      "hit": false,
      "t": 209717.44791666648,
      "d": 3308.59375,
      "v": 44
    },
    {
      "midi": 90,
      "hit": false,
      "t": 210192.70833333314,
      "d": 552.083333333343,
      "v": 83
    },
    {
      "midi": 76,
      "hit": false,
      "t": 210213.54166666648,
      "d": 2415.364583333343,
      "v": 34
    },
    {
      "midi": 91,
      "hit": false,
      "t": 210692.70833333314,
      "d": 161.45833333334303,
      "v": 79
    },
    {
      "midi": 95,
      "hit": false,
      "t": 211264.32291666648,
      "d": 1807.291666666657,
      "v": 70
    },
    {
      "midi": 98,
      "hit": false,
      "t": 212195.31249999983,
      "d": 834.635416666657,
      "v": 62
    },
    {
      "midi": 67,
      "hit": false,
      "t": 213977.86458333314,
      "d": 897.1354166666861,
      "v": 35
    },
    {
      "midi": 64,
      "hit": false,
      "t": 213990.88541666648,
      "d": 878.90625,
      "v": 6
    },
    {
      "midi": 71,
      "hit": false,
      "t": 214072.91666666648,
      "d": 765.625,
      "v": 37
    },
    {
      "midi": 76,
      "hit": false,
      "t": 214135.41666666648,
      "d": 656.25,
      "v": 40
    },
    {
      "midi": 90,
      "hit": false,
      "t": 214233.07291666648,
      "d": 2569.010416666657,
      "v": 56
    },
    {
      "midi": 95,
      "hit": false,
      "t": 214322.91666666648,
      "d": 2494.791666666657,
      "v": 28
    },
    {
      "midi": 98,
      "hit": false,
      "t": 214385.41666666648,
      "d": 2453.125,
      "v": 38
    },
    {
      "midi": 102,
      "hit": false,
      "t": 214468.74999999983,
      "d": 2348.958333333314,
      "v": 40
    },
    {
      "midi": 28,
      "hit": false,
      "t": 215822.91666666648,
      "d": 4743.489583333343,
      "v": 23
    }
  ]
}