{
  "jsonPath": "Rock/Country Rock/Pam Tillis/tennessee-nights.json",
  "path": "Rock\\Country Rock\\Pam Tillis\\Tennessee Nights.mid",
  "name": "Tennessee Nights",
  "difficulty": "Advanced",
  "bpm": 79.00006978339498,
  "notes": [
    {
      "midi": 51,
      "hit": false,
      "t": 2278.4790000000003,
      "d": 943.0371416666667,
      "v": 60
    },
    {
      "midi": 70,
      "hit": false,
      "t": 2278.4790000000003,
      "d": 946.2016958333334,
      "v": 60
    },
    {
      "midi": 58,
      "hit": false,
      "t": 2278.4790000000003,
      "d": 957.2776354166667,
      "v": 60
    },
    {
      "midi": 63,
      "hit": false,
      "t": 2278.4790000000003,
      "d": 958.8599125000001,
      "v": 60
    },
    {
      "midi": 67,
      "hit": false,
      "t": 2278.4790000000003,
      "d": 982.5940687500001,
      "v": 60
    },
    {
      "midi": 58,
      "hit": false,
      "t": 3409.8071145833337,
      "d": 110.7593958333332,
      "v": 60
    },
    {
      "midi": 51,
      "hit": false,
      "t": 3409.8071145833337,
      "d": 121.83533541666657,
      "v": 60
    },
    {
      "midi": 63,
      "hit": false,
      "t": 3409.8071145833337,
      "d": 121.83533541666657,
      "v": 60
    },
    {
      "midi": 70,
      "hit": false,
      "t": 3409.8071145833337,
      "d": 126.58216666666658,
      "v": 60
    },
    {
      "midi": 67,
      "hit": false,
      "t": 3409.8071145833337,
      "d": 143.9872145833333,
      "v": 60
    },
    {
      "midi": 70,
      "hit": false,
      "t": 3789.553614583334,
      "d": 1151.8977166666664,
      "v": 60
    },
    {
      "midi": 51,
      "hit": false,
      "t": 3789.553614583334,
      "d": 1162.9736562499993,
      "v": 60
    },
    {
      "midi": 58,
      "hit": false,
      "t": 3789.553614583334,
      "d": 1162.9736562499993,
      "v": 60
    },
    {
      "midi": 63,
      "hit": false,
      "t": 3789.553614583334,
      "d": 1166.138210416666,
      "v": 60
    },
    {
      "midi": 67,
      "hit": false,
      "t": 3789.553614583334,
      "d": 1186.707812499999,
      "v": 60
    },
    {
      "midi": 51,
      "hit": false,
      "t": 5308.539614583333,
      "d": 882.9106124999998,
      "v": 60
    },
    {
      "midi": 58,
      "hit": false,
      "t": 5308.539614583333,
      "d": 905.0624916666666,
      "v": 60
    },
    {
      "midi": 70,
      "hit": false,
      "t": 5308.539614583333,
      "d": 909.8093229166661,
      "v": 60
    },
    {
      "midi": 63,
      "hit": false,
      "t": 5308.539614583333,
      "d": 922.4675395833328,
      "v": 60
    },
    {
      "midi": 67,
      "hit": false,
      "t": 5308.539614583333,
      "d": 943.0371416666658,
      "v": 60
    },
    {
      "midi": 51,
      "hit": false,
      "t": 6447.779114583332,
      "d": 110.75939583333366,
      "v": 60
    },
    {
      "midi": 63,
      "hit": false,
      "t": 6447.779114583332,
      "d": 118.67078124999989,
      "v": 60
    },
    {
      "midi": 58,
      "hit": false,
      "t": 6447.779114583332,
      "d": 121.83533541666657,
      "v": 60
    },
    {
      "midi": 67,
      "hit": false,
      "t": 6447.779114583332,
      "d": 142.4049374999995,
      "v": 60
    },
    {
      "midi": 70,
      "hit": false,
      "t": 6447.779114583332,
      "d": 147.15176874999906,
      "v": 60
    },
    {
      "midi": 58,
      "hit": false,
      "t": 6827.525614583331,
      "d": 996.8345625000002,
      "v": 60
    },
    {
      "midi": 63,
      "hit": false,
      "t": 6827.525614583331,
      "d": 1102.8471270833334,
      "v": 60
    },
    {
      "midi": 70,
      "hit": false,
      "t": 6827.525614583331,
      "d": 1118.6698979166667,
      "v": 60
    },
    {
      "midi": 67,
      "hit": false,
      "t": 6827.525614583331,
      "d": 1142.4040541666664,
      "v": 60
    },
    {
      "midi": 51,
      "hit": false,
      "t": 6827.525614583331,
      "d": 1518.9859999999999,
      "v": 60
    },
    {
      "midi": 46,
      "hit": false,
      "t": 8346.51161458333,
      "d": 912.9738770833337,
      "v": 60
    },
    {
      "midi": 62,
      "hit": false,
      "t": 8346.51161458333,
      "d": 935.1257562499995,
      "v": 60
    },
    {
      "midi": 70,
      "hit": false,
      "t": 8346.51161458333,
      "d": 935.1257562499995,
      "v": 60
    },
    {
      "midi": 58,
      "hit": false,
      "t": 8346.51161458333,
      "d": 941.4548645833329,
      "v": 60
    },
    {
      "midi": 65,
      "hit": false,
      "t": 8346.51161458333,
      "d": 941.4548645833329,
      "v": 60
    },
    {
      "midi": 46,
      "hit": false,
      "t": 9485.75111458333,
      "d": 118.6707812500008,
      "v": 60
    },
    {
      "midi": 58,
      "hit": false,
      "t": 9485.75111458333,
      "d": 118.6707812500008,
      "v": 60
    },
    {
      "midi": 62,
      "hit": false,
      "t": 9485.75111458333,
      "d": 118.6707812500008,
      "v": 60
    },
    {
      "midi": 65,
      "hit": false,
      "t": 9485.75111458333,
      "d": 121.83533541666657,
      "v": 60
    },
    {
      "midi": 70,
      "hit": false,
      "t": 9485.75111458333,
      "d": 136.07582916666615,
      "v": 60
    },
    {
      "midi": 46,
      "hit": false,
      "t": 9865.49761458333,
      "d": 1167.7204875000007,
      "v": 60
    },
    {
      "midi": 62,
      "hit": false,
      "t": 9865.49761458333,
      "d": 1170.8850416666664,
      "v": 60
    },
    {
      "midi": 70,
      "hit": false,
      "t": 9865.49761458333,
      "d": 1170.8850416666664,
      "v": 60
    },
    {
      "midi": 58,
      "hit": false,
      "t": 9865.49761458333,
      "d": 1178.7964270833327,
      "v": 60
    },
    {
      "midi": 65,
      "hit": false,
      "t": 9865.49761458333,
      "d": 1178.7964270833327,
      "v": 60
    },
    {
      "midi": 46,
      "hit": false,
      "t": 11384.483614583329,
      "d": 887.6574437500003,
      "v": 60
    },
    {
      "midi": 62,
      "hit": false,
      "t": 11384.483614583329,
      "d": 889.2397208333332,
      "v": 60
    },
    {
      "midi": 58,
      "hit": false,
      "t": 11384.483614583329,
      "d": 893.9865520833337,
      "v": 60
    },
    {
      "midi": 65,
      "hit": false,
      "t": 11384.483614583329,
      "d": 893.9865520833337,
      "v": 60
    },
    {
      "midi": 70,
      "hit": false,
      "t": 11384.483614583329,
      "d": 893.9865520833337,
      "v": 60
    },
    {
      "midi": 58,
      "hit": false,
      "t": 12523.723114583328,
      "d": 106.0125645833341,
      "v": 60
    },
    {
      "midi": 62,
      "hit": false,
      "t": 12523.723114583328,
      "d": 134.49355208333327,
      "v": 60
    },
    {
      "midi": 65,
      "hit": false,
      "t": 12523.723114583328,
      "d": 134.49355208333327,
      "v": 60
    },
    {
      "midi": 46,
      "hit": false,
      "t": 12523.723114583328,
      "d": 145.5694916666671,
      "v": 60
    },
    {
      "midi": 70,
      "hit": false,
      "t": 12523.723114583328,
      "d": 150.31632291666756,
      "v": 60
    },
    {
      "midi": 65,
      "hit": false,
      "t": 12903.46961458333,
      "d": 1102.8471270833325,
      "v": 60
    },
    {
      "midi": 62,
      "hit": false,
      "t": 12903.46961458333,
      "d": 1110.7585124999987,
      "v": 60
    },
    {
      "midi": 70,
      "hit": false,
      "t": 12903.46961458333,
      "d": 1128.1635604166659,
      "v": 60
    },
    {
      "midi": 58,
      "hit": false,
      "t": 12903.46961458333,
      "d": 1136.074945833332,
      "v": 60
    },
    {
      "midi": 46,
      "hit": false,
      "t": 12903.46961458333,
      "d": 1226.264739583332,
      "v": 60
    },
    {
      "midi": 63,
      "hit": false,
      "t": 14422.455614583328,
      "d": 925.6320937500004,
      "v": 60
    },
    {
      "midi": 41,
      "hit": false,
      "t": 14422.455614583328,
      "d": 933.5434791666667,
      "v": 60
    },
    {
      "midi": 60,
      "hit": false,
      "t": 14422.455614583328,
      "d": 938.2903104166671,
      "v": 60
    },
    {
      "midi": 57,
      "hit": false,
      "t": 14422.455614583328,
      "d": 962.0244666666676,
      "v": 60
    },
    {
      "midi": 65,
      "hit": false,
      "t": 14422.455614583328,
      "d": 984.1763458333335,
      "v": 60
    },
    {
      "midi": 53,
      "hit": false,
      "t": 14422.455614583328,
      "d": 988.9231770833339,
      "v": 60
    },
    {
      "midi": 60,
      "hit": false,
      "t": 15561.69511458333,
      "d": 121.83533541666657,
      "v": 60
    },
    {
      "midi": 57,
      "hit": false,
      "t": 15561.69511458333,
      "d": 126.58216666666704,
      "v": 60
    },
    {
      "midi": 63,
      "hit": false,
      "t": 15561.69511458333,
      "d": 129.7467208333328,
      "v": 60
    },
    {
      "midi": 65,
      "hit": false,
      "t": 15561.69511458333,
      "d": 174.05047916666626,
      "v": 60
    },
    {
      "midi": 53,
      "hit": false,
      "t": 15561.69511458333,
      "d": 224.68334583333308,
      "v": 60
    },
    {
      "midi": 41,
      "hit": false,
      "t": 15561.69511458333,
      "d": 238.92383958333266,
      "v": 60
    },
    {
      "midi": 58,
      "hit": false,
      "t": 15941.44161458333,
      "d": 958.8599124999982,
      "v": 60
    },
    {
      "midi": 63,
      "hit": false,
      "t": 15941.44161458333,
      "d": 1219.9356312499967,
      "v": 60
    },
    {
      "midi": 67,
      "hit": false,
      "t": 15941.44161458333,
      "d": 1234.1761249999963,
      "v": 60
    },
    {
      "midi": 51,
      "hit": false,
      "t": 15941.44161458333,
      "d": 1444.6189770833316,
      "v": 60
    },
    {
      "midi": 58,
      "hit": false,
      "t": 17080.681114583327,
      "d": 102.84801041666651,
      "v": 60
    },
    {
      "midi": 41,
      "hit": false,
      "t": 17460.42761458333,
      "d": 898.7333833333323,
      "v": 60
    },
    {
      "midi": 60,
      "hit": false,
      "t": 17460.42761458333,
      "d": 906.6447687500004,
      "v": 60
    },
    {
      "midi": 57,
      "hit": false,
      "t": 17460.42761458333,
      "d": 909.8093229166661,
      "v": 60
    },
    {
      "midi": 63,
      "hit": false,
      "t": 17460.42761458333,
      "d": 919.3029854166671,
      "v": 60
    },
    {
      "midi": 53,
      "hit": false,
      "t": 17460.42761458333,
      "d": 943.0371416666676,
      "v": 60
    },
    {
      "midi": 65,
      "hit": false,
      "t": 17460.42761458333,
      "d": 981.0117916666677,
      "v": 60
    },
    {
      "midi": 60,
      "hit": false,
      "t": 18599.667114583328,
      "d": 90.18979374999981,
      "v": 60
    },
    {
      "midi": 57,
      "hit": false,
      "t": 18599.667114583328,
      "d": 99.68345625000075,
      "v": 60
    },
    {
      "midi": 63,
      "hit": false,
      "t": 18599.667114583328,
      "d": 110.75939583333457,
      "v": 60
    },
    {
      "midi": 53,
      "hit": false,
      "t": 18599.667114583328,
      "d": 174.05047916666808,
      "v": 60
    },
    {
      "midi": 65,
      "hit": false,
      "t": 18599.667114583328,
      "d": 197.7846354166686,
      "v": 60
    },
    {
      "midi": 41,
      "hit": false,
      "t": 18599.667114583328,
      "d": 199.3669125000015,
      "v": 60
    },
    {
      "midi": 51,
      "hit": false,
      "t": 18979.41361458333,
      "d": 700.9487479166673,
      "v": 60
    },
    {
      "midi": 58,
      "hit": false,
      "t": 18979.41361458333,
      "d": 1006.3282250000011,
      "v": 60
    },
    {
      "midi": 67,
      "hit": false,
      "t": 18979.41361458333,
      "d": 1344.9355208333327,
      "v": 60
    },
    {
      "midi": 63,
      "hit": false,
      "t": 18979.41361458333,
      "d": 1507.910060416667,
      "v": 60
    },
    {
      "midi": 51,
      "hit": false,
      "t": 19738.90661458333,
      "d": 799.0499270833316,
      "v": 60
    },
    {
      "midi": 58,
      "hit": false,
      "t": 20118.65311458333,
      "d": 264.2402729166679,
      "v": 60
    },
    {
      "midi": 65,
      "hit": false,
      "t": 20498.39961458333,
      "d": 862.3410104166651,
      "v": 60
    },
    {
      "midi": 58,
      "hit": false,
      "t": 20498.39961458333,
      "d": 933.5434791666667,
      "v": 60
    },
    {
      "midi": 62,
      "hit": false,
      "t": 20498.39961458333,
      "d": 938.2903104166653,
      "v": 60
    },
    {
      "midi": 46,
      "hit": false,
      "t": 20498.39961458333,
      "d": 966.7712979166645,
      "v": 60
    },
    {
      "midi": 58,
      "hit": false,
      "t": 21637.639114583326,
      "d": 98.10117916666786,
      "v": 60
    },
    {
      "midi": 70,
      "hit": false,
      "t": 21637.639114583326,
      "d": 104.4302874999994,
      "v": 60
    },
    {
      "midi": 46,
      "hit": false,
      "t": 21637.639114583326,
      "d": 112.34167291666745,
      "v": 60
    },
    {
      "midi": 62,
      "hit": false,
      "t": 21637.639114583326,
      "d": 120.2530583333355,
      "v": 60
    },
    {
      "midi": 65,
      "hit": false,
      "t": 21637.639114583326,
      "d": 150.31632291666756,
      "v": 60
    },
    {
      "midi": 58,
      "hit": false,
      "t": 22017.385614583327,
      "d": 1128.1635604166659,
      "v": 60
    },
    {
      "midi": 62,
      "hit": false,
      "t": 22017.385614583327,
      "d": 1131.3281145833316,
      "v": 60
    },
    {
      "midi": 70,
      "hit": false,
      "t": 22017.385614583327,
      "d": 1132.9103916666645,
      "v": 60
    },
    {
      "midi": 46,
      "hit": false,
      "t": 22017.385614583327,
      "d": 1136.0749458333303,
      "v": 60
    },
    {
      "midi": 65,
      "hit": false,
      "t": 22017.385614583327,
      "d": 1143.9863312499983,
      "v": 60
    },
    {
      "midi": 46,
      "hit": false,
      "t": 23536.371614583324,
      "d": 917.7207083333342,
      "v": 60
    },
    {
      "midi": 58,
      "hit": false,
      "t": 23536.371614583324,
      "d": 925.6320937500022,
      "v": 60
    },
    {
      "midi": 62,
      "hit": false,
      "t": 23536.371614583324,
      "d": 925.6320937500022,
      "v": 60
    },
    {
      "midi": 65,
      "hit": false,
      "t": 23536.371614583324,
      "d": 928.796647916668,
      "v": 60
    },
    {
      "midi": 70,
      "hit": false,
      "t": 23536.371614583324,
      "d": 935.1257562499995,
      "v": 60
    },
    {
      "midi": 65,
      "hit": false,
      "t": 24675.611114583324,
      "d": 110.75939583333457,
      "v": 60
    },
    {
      "midi": 58,
      "hit": false,
      "t": 24675.611114583324,
      "d": 118.67078125000262,
      "v": 60
    },
    {
      "midi": 62,
      "hit": false,
      "t": 24675.611114583324,
      "d": 118.67078125000262,
      "v": 60
    },
    {
      "midi": 70,
      "hit": false,
      "t": 24675.611114583324,
      "d": 150.31632291666756,
      "v": 60
    },
    {
      "midi": 46,
      "hit": false,
      "t": 24675.611114583324,
      "d": 253.16433333333407,
      "v": 60
    },
    {
      "midi": 67,
      "hit": false,
      "t": 25055.357614583325,
      "d": 436.70847499999945,
      "v": 60
    },
    {
      "midi": 63,
      "hit": false,
      "t": 25055.357614583325,
      "d": 438.29075208333234,
      "v": 60
    },
    {
      "midi": 60,
      "hit": false,
      "t": 25055.357614583325,
      "d": 474.68312499999956,
      "v": 60
    },
    {
      "midi": 72,
      "hit": false,
      "t": 25055.357614583325,
      "d": 474.68312499999956,
      "v": 60
    },
    {
      "midi": 48,
      "hit": false,
      "t": 25055.357614583325,
      "d": 800.6322041666645,
      "v": 60
    },
    {
      "midi": 62,
      "hit": false,
      "t": 25814.850614583323,
      "d": 523.7337145833335,
      "v": 60
    },
    {
      "midi": 65,
      "hit": false,
      "t": 25814.850614583323,
      "d": 533.2273770833344,
      "v": 60
    },
    {
      "midi": 74,
      "hit": false,
      "t": 25814.850614583323,
      "d": 539.556485416666,
      "v": 60
    },
    {
      "midi": 69,
      "hit": false,
      "t": 25814.850614583323,
      "d": 556.9615333333313,
      "v": 60
    },
    {
      "midi": 50,
      "hit": false,
      "t": 25814.850614583323,
      "d": 606.0121229166652,
      "v": 60
    },
    {
      "midi": 51,
      "hit": false,
      "t": 26574.343614583322,
      "d": 941.4548645833347,
      "v": 60
    },
    {
      "midi": 70,
      "hit": false,
      "t": 26574.343614583322,
      "d": 944.6194187500005,
      "v": 60
    },
    {
      "midi": 58,
      "hit": false,
      "t": 26574.343614583322,
      "d": 954.1130812500014,
      "v": 60
    },
    {
      "midi": 63,
      "hit": false,
      "t": 26574.343614583322,
      "d": 957.2776354166672,
      "v": 60
    },
    {
      "midi": 67,
      "hit": false,
      "t": 26574.343614583322,
      "d": 981.0117916666677,
      "v": 60
    },
    {
      "midi": 58,
      "hit": false,
      "t": 27713.58311458332,
      "d": 110.75939583333457,
      "v": 60
    },
    {
      "midi": 51,
      "hit": false,
      "t": 27713.58311458332,
      "d": 121.83533541666839,
      "v": 60
    },
    {
      "midi": 63,
      "hit": false,
      "t": 27713.58311458332,
      "d": 121.83533541666839,
      "v": 60
    },
    {
      "midi": 70,
      "hit": false,
      "t": 27713.58311458332,
      "d": 126.58216666666704,
      "v": 60
    },
    {
      "midi": 67,
      "hit": false,
      "t": 27713.58311458332,
      "d": 143.9872145833324,
      "v": 60
    },
    {
      "midi": 70,
      "hit": false,
      "t": 28093.32961458332,
      "d": 1151.8977166666664,
      "v": 60
    },
    {
      "midi": 51,
      "hit": false,
      "t": 28093.32961458332,
      "d": 1162.9736562500002,
      "v": 60
    },
    {
      "midi": 58,
      "hit": false,
      "t": 28093.32961458332,
      "d": 1162.9736562500002,
      "v": 60
    },
    {
      "midi": 63,
      "hit": false,
      "t": 28093.32961458332,
      "d": 1166.138210416666,
      "v": 60
    },
    {
      "midi": 67,
      "hit": false,
      "t": 28093.32961458332,
      "d": 1186.7078125000007,
      "v": 60
    },
    {
      "midi": 51,
      "hit": false,
      "t": 29612.31561458332,
      "d": 882.9106124999998,
      "v": 60
    },
    {
      "midi": 58,
      "hit": false,
      "t": 29612.31561458332,
      "d": 905.0624916666675,
      "v": 60
    },
    {
      "midi": 70,
      "hit": false,
      "t": 29612.31561458332,
      "d": 909.8093229166661,
      "v": 60
    },
    {
      "midi": 63,
      "hit": false,
      "t": 29612.31561458332,
      "d": 922.4675395833328,
      "v": 60
    },
    {
      "midi": 67,
      "hit": false,
      "t": 29612.31561458332,
      "d": 943.0371416666676,
      "v": 60
    },
    {
      "midi": 51,
      "hit": false,
      "t": 30751.55511458332,
      "d": 110.75939583333457,
      "v": 60
    },
    {
      "midi": 63,
      "hit": false,
      "t": 30751.55511458332,
      "d": 118.67078125000262,
      "v": 60
    },
    {
      "midi": 58,
      "hit": false,
      "t": 30751.55511458332,
      "d": 121.83533541666839,
      "v": 60
    },
    {
      "midi": 67,
      "hit": false,
      "t": 30751.55511458332,
      "d": 142.40493750000314,
      "v": 60
    },
    {
      "midi": 70,
      "hit": false,
      "t": 30751.55511458332,
      "d": 147.1517687500018,
      "v": 60
    },
    {
      "midi": 58,
      "hit": false,
      "t": 31131.30161458332,
      "d": 996.8345625000002,
      "v": 60
    },
    {
      "midi": 63,
      "hit": false,
      "t": 31131.30161458332,
      "d": 1102.8471270833325,
      "v": 60
    },
    {
      "midi": 70,
      "hit": false,
      "t": 31131.30161458332,
      "d": 1118.669897916665,
      "v": 60
    },
    {
      "midi": 67,
      "hit": false,
      "t": 31131.30161458332,
      "d": 1142.4040541666654,
      "v": 60
    },
    {
      "midi": 51,
      "hit": false,
      "t": 31131.30161458332,
      "d": 1518.9859999999971,
      "v": 60
    },
    {
      "midi": 82,
      "hit": false,
      "t": 33813.26127083332,
      "d": 327.5313562500014,
      "v": 100
    },
    {
      "midi": 81,
      "hit": false,
      "t": 34161.362229166654,
      "d": 216.7719604166632,
      "v": 100
    },
    {
      "midi": 82,
      "hit": false,
      "t": 34374.96963541665,
      "d": 180.37958749999962,
      "v": 100
    },
    {
      "midi": 79,
      "hit": false,
      "t": 34564.84288541665,
      "d": 300.6326458333351,
      "v": 100
    },
    {
      "midi": 77,
      "hit": false,
      "t": 34912.943843749985,
      "d": 365.5060062499979,
      "v": 100
    },
    {
      "midi": 72,
      "hit": false,
      "t": 35292.690343749986,
      "d": 246.83522500000254,
      "v": 100
    },
    {
      "midi": 72,
      "hit": false,
      "t": 35640.79130208332,
      "d": 197.7846354166686,
      "v": 100
    },
    {
      "midi": 74,
      "hit": false,
      "t": 35841.74049166666,
      "d": 1335.4418583333318,
      "v": 100
    },
    {
      "midi": 77,
      "hit": false,
      "t": 39485.72461458332,
      "d": 759.4930000000022,
      "v": 100
    },
    {
      "midi": 89,
      "hit": false,
      "t": 39485.72461458332,
      "d": 759.4930000000022,
      "v": 100
    },
    {
      "midi": 75,
      "hit": false,
      "t": 40245.21761458332,
      "d": 759.4930000000022,
      "v": 100
    },
    {
      "midi": 87,
      "hit": false,
      "t": 40245.21761458332,
      "d": 759.4930000000022,
      "v": 100
    },
    {
      "midi": 74,
      "hit": false,
      "t": 41004.710614583324,
      "d": 759.4930000000022,
      "v": 100
    },
    {
      "midi": 86,
      "hit": false,
      "t": 41004.710614583324,
      "d": 759.4930000000022,
      "v": 100
    },
    {
      "midi": 72,
      "hit": false,
      "t": 41764.203614583326,
      "d": 3037.9720000000016,
      "v": 100
    },
    {
      "midi": 84,
      "hit": false,
      "t": 41764.203614583326,
      "d": 3037.9720000000016,
      "v": 100
    }
  ]
}