{
  "jsonPath": "Rock/Celtic Rock/The Corrs/lough-erin-shore-mtv-unplugged-version.json",
  "path": "Rock\\Celtic Rock\\The Corrs\\Lough Erin Shore ( MTV Unplugged Version ).mid",
  "name": "Lough Erin Shore ( MTV Unplugged Version )",
  "difficulty": "Advanced",
  "bpm": 160,
  "notes": [
    {
      "midi": 62,
      "hit": false,
      "t": 1875,
      "d": 371.875,
      "v": 56
    },
    {
      "midi": 50,
      "hit": false,
      "t": 2250,
      "d": 371.875,
      "v": 56
    },
    {
      "midi": 69,
      "hit": false,
      "t": 2250,
      "d": 559.375,
      "v": 66
    },
    {
      "midi": 57,
      "hit": false,
      "t": 2625,
      "d": 1121.875,
      "v": 56
    },
    {
      "midi": 71,
      "hit": false,
      "t": 2812.5,
      "d": 184.375,
      "v": 66
    },
    {
      "midi": 72,
      "hit": false,
      "t": 3000,
      "d": 371.875,
      "v": 97
    },
    {
      "midi": 69,
      "hit": false,
      "t": 3375,
      "d": 746.875,
      "v": 76
    },
    {
      "midi": 57,
      "hit": false,
      "t": 3750,
      "d": 1121.875,
      "v": 56
    },
    {
      "midi": 62,
      "hit": false,
      "t": 4125,
      "d": 371.875,
      "v": 97
    },
    {
      "midi": 69,
      "hit": false,
      "t": 4500,
      "d": 559.375,
      "v": 97
    },
    {
      "midi": 57,
      "hit": false,
      "t": 4875,
      "d": 1121.875,
      "v": 56
    },
    {
      "midi": 71,
      "hit": false,
      "t": 5062.5,
      "d": 90.625,
      "v": 56
    },
    {
      "midi": 69,
      "hit": false,
      "t": 5156.25,
      "d": 90.625,
      "v": 56
    },
    {
      "midi": 66,
      "hit": false,
      "t": 5250,
      "d": 371.875,
      "v": 97
    },
    {
      "midi": 67,
      "hit": false,
      "t": 5625,
      "d": 325,
      "v": 97
    },
    {
      "midi": 69,
      "hit": false,
      "t": 5906.25,
      "d": 43.75,
      "v": 56
    },
    {
      "midi": 67,
      "hit": false,
      "t": 5953.125,
      "d": 43.75,
      "v": 56
    },
    {
      "midi": 66,
      "hit": false,
      "t": 6000,
      "d": 371.875,
      "v": 97
    },
    {
      "midi": 57,
      "hit": false,
      "t": 6000,
      "d": 746.875,
      "v": 56
    },
    {
      "midi": 62,
      "hit": false,
      "t": 6375,
      "d": 371.875,
      "v": 97
    },
    {
      "midi": 60,
      "hit": false,
      "t": 6750,
      "d": 700,
      "v": 97
    },
    {
      "midi": 52,
      "hit": false,
      "t": 6750,
      "d": 1121.875,
      "v": 56
    },
    {
      "midi": 55,
      "hit": false,
      "t": 7125,
      "d": 746.875,
      "v": 56
    },
    {
      "midi": 62,
      "hit": false,
      "t": 7406.25,
      "d": 43.75,
      "v": 56
    },
    {
      "midi": 60,
      "hit": false,
      "t": 7453.125,
      "d": 43.75,
      "v": 56
    },
    {
      "midi": 59,
      "hit": false,
      "t": 7500,
      "d": 184.375,
      "v": 76
    },
    {
      "midi": 60,
      "hit": false,
      "t": 7687.5,
      "d": 184.375,
      "v": 97
    },
    {
      "midi": 47,
      "hit": false,
      "t": 7875,
      "d": 371.875,
      "v": 56
    },
    {
      "midi": 62,
      "hit": false,
      "t": 7875,
      "d": 746.875,
      "v": 97
    },
    {
      "midi": 47,
      "hit": false,
      "t": 8250,
      "d": 746.875,
      "v": 56
    },
    {
      "midi": 50,
      "hit": false,
      "t": 8437.5,
      "d": 184.375,
      "v": 56
    },
    {
      "midi": 52,
      "hit": false,
      "t": 8625,
      "d": 371.875,
      "v": 56
    },
    {
      "midi": 55,
      "hit": false,
      "t": 8625,
      "d": 371.875,
      "v": 56
    },
    {
      "midi": 64,
      "hit": false,
      "t": 8625,
      "d": 371.875,
      "v": 97
    },
    {
      "midi": 62,
      "hit": false,
      "t": 9000,
      "d": 1121.875,
      "v": 97
    },
    {
      "midi": 50,
      "hit": false,
      "t": 9000,
      "d": 1496.875,
      "v": 56
    },
    {
      "midi": 57,
      "hit": false,
      "t": 9000,
      "d": 1496.875,
      "v": 56
    },
    {
      "midi": 62,
      "hit": false,
      "t": 10125,
      "d": 371.875,
      "v": 66
    },
    {
      "midi": 62,
      "hit": false,
      "t": 10500,
      "d": 371.875,
      "v": 97
    },
    {
      "midi": 73,
      "hit": false,
      "t": 10828.125,
      "d": 43.75,
      "v": 56
    },
    {
      "midi": 74,
      "hit": false,
      "t": 10875,
      "d": 371.875,
      "v": 97
    },
    {
      "midi": 71,
      "hit": false,
      "t": 11250,
      "d": 559.375,
      "v": 97
    },
    {
      "midi": 55,
      "hit": false,
      "t": 11250,
      "d": 1121.875,
      "v": 56
    },
    {
      "midi": 69,
      "hit": false,
      "t": 11812.5,
      "d": 184.375,
      "v": 76
    },
    {
      "midi": 67,
      "hit": false,
      "t": 12000,
      "d": 371.875,
      "v": 97
    },
    {
      "midi": 69,
      "hit": false,
      "t": 12375,
      "d": 559.375,
      "v": 97
    },
    {
      "midi": 54,
      "hit": false,
      "t": 12375,
      "d": 1121.875,
      "v": 56
    },
    {
      "midi": 71,
      "hit": false,
      "t": 12937.5,
      "d": 137.5,
      "v": 97
    },
    {
      "midi": 71,
      "hit": false,
      "t": 13078.125,
      "d": 43.75,
      "v": 85
    },
    {
      "midi": 72,
      "hit": false,
      "t": 13125,
      "d": 371.875,
      "v": 97
    },
    {
      "midi": 74,
      "hit": false,
      "t": 13500,
      "d": 559.375,
      "v": 97
    },
    {
      "midi": 45,
      "hit": false,
      "t": 13500,
      "d": 1121.875,
      "v": 56
    },
    {
      "midi": 55,
      "hit": false,
      "t": 13500,
      "d": 1121.875,
      "v": 56
    },
    {
      "midi": 60,
      "hit": false,
      "t": 13500,
      "d": 1121.875,
      "v": 56
    },
    {
      "midi": 62,
      "hit": false,
      "t": 13500,
      "d": 1121.875,
      "v": 56
    },
    {
      "midi": 72,
      "hit": false,
      "t": 14062.5,
      "d": 184.375,
      "v": 76
    },
    {
      "midi": 71,
      "hit": false,
      "t": 14250,
      "d": 371.875,
      "v": 97
    },
    {
      "midi": 69,
      "hit": false,
      "t": 14625,
      "d": 746.875,
      "v": 97
    },
    {
      "midi": 50,
      "hit": false,
      "t": 14625,
      "d": 1121.875,
      "v": 56
    },
    {
      "midi": 57,
      "hit": false,
      "t": 14625,
      "d": 1121.875,
      "v": 56
    },
    {
      "midi": 62,
      "hit": false,
      "t": 14625,
      "d": 1121.875,
      "v": 56
    },
    {
      "midi": 73,
      "hit": false,
      "t": 15328.125,
      "d": 43.75,
      "v": 56
    },
    {
      "midi": 74,
      "hit": false,
      "t": 15375,
      "d": 371.875,
      "v": 97
    },
    {
      "midi": 72,
      "hit": false,
      "t": 15750,
      "d": 559.375,
      "v": 97
    },
    {
      "midi": 45,
      "hit": false,
      "t": 15750,
      "d": 1121.875,
      "v": 56
    },
    {
      "midi": 55,
      "hit": false,
      "t": 16125,
      "d": 1871.875,
      "v": 56
    },
    {
      "midi": 71,
      "hit": false,
      "t": 16312.5,
      "d": 184.375,
      "v": 76
    },
    {
      "midi": 69,
      "hit": false,
      "t": 16500,
      "d": 184.375,
      "v": 97
    },
    {
      "midi": 71,
      "hit": false,
      "t": 16781.25,
      "d": 43.75,
      "v": 56
    },
    {
      "midi": 69,
      "hit": false,
      "t": 16828.125,
      "d": 43.75,
      "v": 56
    },
    {
      "midi": 67,
      "hit": false,
      "t": 16875,
      "d": 371.875,
      "v": 97
    },
    {
      "midi": 47,
      "hit": false,
      "t": 16875,
      "d": 1121.875,
      "v": 56
    },
    {
      "midi": 62,
      "hit": false,
      "t": 17250,
      "d": 371.875,
      "v": 97
    },
    {
      "midi": 64,
      "hit": false,
      "t": 17625,
      "d": 371.875,
      "v": 97
    },
    {
      "midi": 48,
      "hit": false,
      "t": 18000,
      "d": 1121.875,
      "v": 56
    },
    {
      "midi": 60,
      "hit": false,
      "t": 18000,
      "d": 1871.875,
      "v": 97
    },
    {
      "midi": 48,
      "hit": false,
      "t": 19500,
      "d": 746.875,
      "v": 56
    },
    {
      "midi": 73,
      "hit": false,
      "t": 19828.125,
      "d": 43.75,
      "v": 56
    },
    {
      "midi": 74,
      "hit": false,
      "t": 19875,
      "d": 371.875,
      "v": 97
    },
    {
      "midi": 55,
      "hit": false,
      "t": 20250,
      "d": 559.375,
      "v": 56
    },
    {
      "midi": 71,
      "hit": false,
      "t": 20250,
      "d": 559.375,
      "v": 97
    },
    {
      "midi": 62,
      "hit": false,
      "t": 20250,
      "d": 746.875,
      "v": 56
    },
    {
      "midi": 54,
      "hit": false,
      "t": 20812.5,
      "d": 184.375,
      "v": 56
    },
    {
      "midi": 69,
      "hit": false,
      "t": 20812.5,
      "d": 184.375,
      "v": 76
    },
    {
      "midi": 52,
      "hit": false,
      "t": 21000,
      "d": 371.875,
      "v": 56
    },
    {
      "midi": 67,
      "hit": false,
      "t": 21000,
      "d": 371.875,
      "v": 97
    },
    {
      "midi": 69,
      "hit": false,
      "t": 21375,
      "d": 559.375,
      "v": 97
    },
    {
      "midi": 50,
      "hit": false,
      "t": 21375,
      "d": 1121.875,
      "v": 56
    },
    {
      "midi": 71,
      "hit": false,
      "t": 21937.5,
      "d": 137.5,
      "v": 97
    },
    {
      "midi": 71,
      "hit": false,
      "t": 22078.125,
      "d": 43.75,
      "v": 85
    },
    {
      "midi": 72,
      "hit": false,
      "t": 22125,
      "d": 371.875,
      "v": 97
    },
    {
      "midi": 74,
      "hit": false,
      "t": 22500,
      "d": 559.375,
      "v": 97
    },
    {
      "midi": 45,
      "hit": false,
      "t": 22500,
      "d": 1121.875,
      "v": 56
    },
    {
      "midi": 55,
      "hit": false,
      "t": 22500,
      "d": 1121.875,
      "v": 56
    },
    {
      "midi": 60,
      "hit": false,
      "t": 22500,
      "d": 1121.875,
      "v": 56
    },
    {
      "midi": 62,
      "hit": false,
      "t": 22500,
      "d": 1121.875,
      "v": 56
    },
    {
      "midi": 72,
      "hit": false,
      "t": 23062.5,
      "d": 184.375,
      "v": 76
    },
    {
      "midi": 71,
      "hit": false,
      "t": 23250,
      "d": 371.875,
      "v": 97
    },
    {
      "midi": 69,
      "hit": false,
      "t": 23625,
      "d": 746.875,
      "v": 97
    },
    {
      "midi": 50,
      "hit": false,
      "t": 23625,
      "d": 1121.875,
      "v": 56
    },
    {
      "midi": 57,
      "hit": false,
      "t": 23625,
      "d": 1121.875,
      "v": 56
    },
    {
      "midi": 62,
      "hit": false,
      "t": 23625,
      "d": 1121.875,
      "v": 56
    },
    {
      "midi": 73,
      "hit": false,
      "t": 24328.125,
      "d": 43.75,
      "v": 56
    },
    {
      "midi": 74,
      "hit": false,
      "t": 24375,
      "d": 371.875,
      "v": 97
    },
    {
      "midi": 72,
      "hit": false,
      "t": 24750,
      "d": 559.375,
      "v": 97
    },
    {
      "midi": 45,
      "hit": false,
      "t": 24750,
      "d": 1121.875,
      "v": 56
    },
    {
      "midi": 55,
      "hit": false,
      "t": 25125,
      "d": 1871.875,
      "v": 56
    },
    {
      "midi": 71,
      "hit": false,
      "t": 25312.5,
      "d": 184.375,
      "v": 76
    },
    {
      "midi": 69,
      "hit": false,
      "t": 25500,
      "d": 325,
      "v": 97
    },
    {
      "midi": 71,
      "hit": false,
      "t": 25781.25,
      "d": 43.75,
      "v": 56
    },
    {
      "midi": 69,
      "hit": false,
      "t": 25828.125,
      "d": 43.75,
      "v": 56
    },
    {
      "midi": 67,
      "hit": false,
      "t": 25875,
      "d": 371.875,
      "v": 97
    },
    {
      "midi": 47,
      "hit": false,
      "t": 25875,
      "d": 1121.875,
      "v": 56
    },
    {
      "midi": 62,
      "hit": false,
      "t": 26250,
      "d": 371.875,
      "v": 97
    },
    {
      "midi": 64,
      "hit": false,
      "t": 26625,
      "d": 371.875,
      "v": 97
    },
    {
      "midi": 48,
      "hit": false,
      "t": 27000,
      "d": 1121.875,
      "v": 56
    },
    {
      "midi": 60,
      "hit": false,
      "t": 27000,
      "d": 1871.875,
      "v": 97
    },
    {
      "midi": 62,
      "hit": false,
      "t": 28875,
      "d": 371.875,
      "v": 56
    },
    {
      "midi": 50,
      "hit": false,
      "t": 29250,
      "d": 371.875,
      "v": 56
    },
    {
      "midi": 69,
      "hit": false,
      "t": 29250,
      "d": 559.375,
      "v": 66
    },
    {
      "midi": 57,
      "hit": false,
      "t": 29625,
      "d": 1121.875,
      "v": 56
    },
    {
      "midi": 71,
      "hit": false,
      "t": 29812.5,
      "d": 184.375,
      "v": 66
    },
    {
      "midi": 72,
      "hit": false,
      "t": 30000,
      "d": 371.875,
      "v": 97
    },
    {
      "midi": 69,
      "hit": false,
      "t": 30375,
      "d": 746.875,
      "v": 76
    },
    {
      "midi": 57,
      "hit": false,
      "t": 30750,
      "d": 1121.875,
      "v": 56
    },
    {
      "midi": 62,
      "hit": false,
      "t": 31125,
      "d": 371.875,
      "v": 97
    },
    {
      "midi": 69,
      "hit": false,
      "t": 31500,
      "d": 559.375,
      "v": 97
    },
    {
      "midi": 57,
      "hit": false,
      "t": 31875,
      "d": 1121.875,
      "v": 56
    },
    {
      "midi": 71,
      "hit": false,
      "t": 32062.5,
      "d": 90.625,
      "v": 56
    },
    {
      "midi": 69,
      "hit": false,
      "t": 32156.25,
      "d": 90.625,
      "v": 56
    },
    {
      "midi": 66,
      "hit": false,
      "t": 32250,
      "d": 371.875,
      "v": 97
    },
    {
      "midi": 67,
      "hit": false,
      "t": 32625,
      "d": 325,
      "v": 97
    },
    {
      "midi": 69,
      "hit": false,
      "t": 32906.25,
      "d": 43.75,
      "v": 56
    },
    {
      "midi": 67,
      "hit": false,
      "t": 32953.125,
      "d": 43.75,
      "v": 56
    },
    {
      "midi": 66,
      "hit": false,
      "t": 33000,
      "d": 371.875,
      "v": 97
    },
    {
      "midi": 57,
      "hit": false,
      "t": 33000,
      "d": 746.875,
      "v": 56
    },
    {
      "midi": 62,
      "hit": false,
      "t": 33375,
      "d": 371.875,
      "v": 97
    },
    {
      "midi": 60,
      "hit": false,
      "t": 33750,
      "d": 700,
      "v": 97
    },
    {
      "midi": 52,
      "hit": false,
      "t": 33750,
      "d": 1121.875,
      "v": 56
    },
    {
      "midi": 55,
      "hit": false,
      "t": 34125,
      "d": 746.875,
      "v": 56
    },
    {
      "midi": 62,
      "hit": false,
      "t": 34406.25,
      "d": 43.75,
      "v": 56
    },
    {
      "midi": 60,
      "hit": false,
      "t": 34453.125,
      "d": 43.75,
      "v": 56
    },
    {
      "midi": 59,
      "hit": false,
      "t": 34500,
      "d": 184.375,
      "v": 76
    },
    {
      "midi": 60,
      "hit": false,
      "t": 34687.5,
      "d": 184.375,
      "v": 97
    },
    {
      "midi": 47,
      "hit": false,
      "t": 34875,
      "d": 371.875,
      "v": 56
    },
    {
      "midi": 62,
      "hit": false,
      "t": 34875,
      "d": 746.875,
      "v": 97
    },
    {
      "midi": 47,
      "hit": false,
      "t": 35250,
      "d": 371.875,
      "v": 56
    },
    {
      "midi": 50,
      "hit": false,
      "t": 35437.5,
      "d": 184.375,
      "v": 56
    },
    {
      "midi": 47,
      "hit": false,
      "t": 35625,
      "d": 371.875,
      "v": 56
    },
    {
      "midi": 52,
      "hit": false,
      "t": 35625,
      "d": 371.875,
      "v": 56
    },
    {
      "midi": 55,
      "hit": false,
      "t": 35625,
      "d": 371.875,
      "v": 56
    },
    {
      "midi": 64,
      "hit": false,
      "t": 35625,
      "d": 371.875,
      "v": 97
    },
    {
      "midi": 62,
      "hit": false,
      "t": 36000,
      "d": 746.875,
      "v": 97
    },
    {
      "midi": 50,
      "hit": false,
      "t": 36000,
      "d": 1121.875,
      "v": 56
    },
    {
      "midi": 54,
      "hit": false,
      "t": 36000,
      "d": 1121.875,
      "v": 56
    },
    {
      "midi": 57,
      "hit": false,
      "t": 36000,
      "d": 1121.875,
      "v": 56
    },
    {
      "midi": 38,
      "hit": false,
      "t": 36000,
      "d": 2246.875,
      "v": 81
    },
    {
      "midi": 62,
      "hit": false,
      "t": 36750,
      "d": 371.875,
      "v": 69
    },
    {
      "midi": 57,
      "hit": false,
      "t": 37125,
      "d": 371.875,
      "v": 80
    },
    {
      "midi": 62,
      "hit": false,
      "t": 37125,
      "d": 371.875,
      "v": 80
    },
    {
      "midi": 54,
      "hit": false,
      "t": 37500,
      "d": 371.875,
      "v": 90
    },
    {
      "midi": 57,
      "hit": false,
      "t": 37500,
      "d": 371.875,
      "v": 90
    },
    {
      "midi": 62,
      "hit": false,
      "t": 37500,
      "d": 371.875,
      "v": 90
    },
    {
      "midi": 55,
      "hit": false,
      "t": 37875,
      "d": 371.875,
      "v": 100
    },
    {
      "midi": 57,
      "hit": false,
      "t": 37875,
      "d": 371.875,
      "v": 100
    },
    {
      "midi": 62,
      "hit": false,
      "t": 37875,
      "d": 371.875,
      "v": 100
    },
    {
      "midi": 50,
      "hit": false,
      "t": 38250,
      "d": 1121.875,
      "v": 100
    },
    {
      "midi": 57,
      "hit": false,
      "t": 38250,
      "d": 1121.875,
      "v": 100
    },
    {
      "midi": 62,
      "hit": false,
      "t": 38250,
      "d": 1121.875,
      "v": 100
    },
    {
      "midi": 66,
      "hit": false,
      "t": 38250,
      "d": 1121.875,
      "v": 100
    },
    {
      "midi": 50,
      "hit": false,
      "t": 39375,
      "d": 1121.875,
      "v": 90
    },
    {
      "midi": 57,
      "hit": false,
      "t": 39375,
      "d": 1121.875,
      "v": 85
    },
    {
      "midi": 62,
      "hit": false,
      "t": 39375,
      "d": 1121.875,
      "v": 85
    },
    {
      "midi": 66,
      "hit": false,
      "t": 39375,
      "d": 1121.875,
      "v": 85
    },
    {
      "midi": 50,
      "hit": false,
      "t": 40500,
      "d": 1121.875,
      "v": 76
    },
    {
      "midi": 57,
      "hit": false,
      "t": 40500,
      "d": 1121.875,
      "v": 76
    },
    {
      "midi": 62,
      "hit": false,
      "t": 40500,
      "d": 1121.875,
      "v": 76
    },
    {
      "midi": 66,
      "hit": false,
      "t": 40500,
      "d": 1121.875,
      "v": 76
    },
    {
      "midi": 55,
      "hit": false,
      "t": 41625,
      "d": 371.875,
      "v": 95
    },
    {
      "midi": 57,
      "hit": false,
      "t": 41625,
      "d": 371.875,
      "v": 95
    },
    {
      "midi": 62,
      "hit": false,
      "t": 41625,
      "d": 371.875,
      "v": 95
    },
    {
      "midi": 67,
      "hit": false,
      "t": 41625,
      "d": 371.875,
      "v": 95
    },
    {
      "midi": 54,
      "hit": false,
      "t": 42000,
      "d": 371.875,
      "v": 95
    },
    {
      "midi": 57,
      "hit": false,
      "t": 42000,
      "d": 371.875,
      "v": 95
    },
    {
      "midi": 62,
      "hit": false,
      "t": 42000,
      "d": 371.875,
      "v": 95
    },
    {
      "midi": 66,
      "hit": false,
      "t": 42000,
      "d": 371.875,
      "v": 95
    },
    {
      "midi": 50,
      "hit": false,
      "t": 42375,
      "d": 371.875,
      "v": 76
    },
    {
      "midi": 57,
      "hit": false,
      "t": 42375,
      "d": 371.875,
      "v": 76
    },
    {
      "midi": 62,
      "hit": false,
      "t": 42375,
      "d": 371.875,
      "v": 76
    },
    {
      "midi": 36,
      "hit": false,
      "t": 42750,
      "d": 1121.875,
      "v": 85
    },
    {
      "midi": 55,
      "hit": false,
      "t": 42750,
      "d": 1121.875,
      "v": 85
    },
    {
      "midi": 60,
      "hit": false,
      "t": 42750,
      "d": 1121.875,
      "v": 85
    },
    {
      "midi": 38,
      "hit": false,
      "t": 43875,
      "d": 746.875,
      "v": 95
    },
    {
      "midi": 55,
      "hit": false,
      "t": 43875,
      "d": 746.875,
      "v": 95
    },
    {
      "midi": 62,
      "hit": false,
      "t": 43875,
      "d": 746.875,
      "v": 95
    },
    {
      "midi": 36,
      "hit": false,
      "t": 44625,
      "d": 371.875,
      "v": 95
    },
    {
      "midi": 60,
      "hit": false,
      "t": 44625,
      "d": 371.875,
      "v": 95
    },
    {
      "midi": 64,
      "hit": false,
      "t": 44625,
      "d": 371.875,
      "v": 95
    },
    {
      "midi": 67,
      "hit": false,
      "t": 44625,
      "d": 371.875,
      "v": 95
    },
    {
      "midi": 38,
      "hit": false,
      "t": 45000,
      "d": 1121.875,
      "v": 95
    },
    {
      "midi": 57,
      "hit": false,
      "t": 45000,
      "d": 1496.875,
      "v": 95
    },
    {
      "midi": 62,
      "hit": false,
      "t": 45000,
      "d": 1496.875,
      "v": 95
    },
    {
      "midi": 66,
      "hit": false,
      "t": 45000,
      "d": 1496.875,
      "v": 95
    },
    {
      "midi": 38,
      "hit": false,
      "t": 46125,
      "d": 371.875,
      "v": 95
    },
    {
      "midi": 62,
      "hit": false,
      "t": 46500,
      "d": 184.375,
      "v": 95
    },
    {
      "midi": 38,
      "hit": false,
      "t": 46500,
      "d": 746.875,
      "v": 95
    },
    {
      "midi": 66,
      "hit": false,
      "t": 46687.5,
      "d": 184.375,
      "v": 95
    },
    {
      "midi": 69,
      "hit": false,
      "t": 46875,
      "d": 184.375,
      "v": 95
    },
    {
      "midi": 74,
      "hit": false,
      "t": 47062.5,
      "d": 184.375,
      "v": 95
    },
    {
      "midi": 62,
      "hit": false,
      "t": 47250,
      "d": 1121.875,
      "v": 85
    },
    {
      "midi": 69,
      "hit": false,
      "t": 47250,
      "d": 1121.875,
      "v": 85
    },
    {
      "midi": 71,
      "hit": false,
      "t": 47250,
      "d": 1121.875,
      "v": 85
    },
    {
      "midi": 69,
      "hit": false,
      "t": 48375,
      "d": 559.375,
      "v": 95
    },
    {
      "midi": 62,
      "hit": false,
      "t": 48375,
      "d": 1121.875,
      "v": 95
    },
    {
      "midi": 66,
      "hit": false,
      "t": 48375,
      "d": 1121.875,
      "v": 95
    },
    {
      "midi": 71,
      "hit": false,
      "t": 48937.5,
      "d": 184.375,
      "v": 95
    },
    {
      "midi": 72,
      "hit": false,
      "t": 49125,
      "d": 371.875,
      "v": 95
    },
    {
      "midi": 64,
      "hit": false,
      "t": 49500,
      "d": 1121.875,
      "v": 85
    },
    {
      "midi": 69,
      "hit": false,
      "t": 49500,
      "d": 1121.875,
      "v": 85
    },
    {
      "midi": 72,
      "hit": false,
      "t": 49500,
      "d": 1121.875,
      "v": 85
    },
    {
      "midi": 62,
      "hit": false,
      "t": 50625,
      "d": 1121.875,
      "v": 95
    },
    {
      "midi": 66,
      "hit": false,
      "t": 50625,
      "d": 1121.875,
      "v": 95
    },
    {
      "midi": 69,
      "hit": false,
      "t": 50625,
      "d": 1121.875,
      "v": 95
    },
    {
      "midi": 45,
      "hit": false,
      "t": 51750,
      "d": 1121.875,
      "v": 95
    },
    {
      "midi": 72,
      "hit": false,
      "t": 51750,
      "d": 1121.875,
      "v": 95
    },
    {
      "midi": 64,
      "hit": false,
      "t": 52125,
      "d": 371.875,
      "v": 70
    },
    {
      "midi": 69,
      "hit": false,
      "t": 52500,
      "d": 371.875,
      "v": 70
    },
    {
      "midi": 47,
      "hit": false,
      "t": 52875,
      "d": 1121.875,
      "v": 95
    },
    {
      "midi": 71,
      "hit": false,
      "t": 52875,
      "d": 1121.875,
      "v": 95
    },
    {
      "midi": 62,
      "hit": false,
      "t": 53250,
      "d": 371.875,
      "v": 70
    },
    {
      "midi": 66,
      "hit": false,
      "t": 53625,
      "d": 371.875,
      "v": 70
    },
    {
      "midi": 48,
      "hit": false,
      "t": 54000,
      "d": 1121.875,
      "v": 95
    },
    {
      "midi": 60,
      "hit": false,
      "t": 54000,
      "d": 1121.875,
      "v": 95
    },
    {
      "midi": 64,
      "hit": false,
      "t": 54000,
      "d": 1121.875,
      "v": 95
    },
    {
      "midi": 67,
      "hit": false,
      "t": 54000,
      "d": 1121.875,
      "v": 95
    },
    {
      "midi": 48,
      "hit": false,
      "t": 55125,
      "d": 371.875,
      "v": 76
    },
    {
      "midi": 60,
      "hit": false,
      "t": 55125,
      "d": 371.875,
      "v": 76
    },
    {
      "midi": 64,
      "hit": false,
      "t": 55125,
      "d": 371.875,
      "v": 76
    },
    {
      "midi": 67,
      "hit": false,
      "t": 55125,
      "d": 371.875,
      "v": 76
    },
    {
      "midi": 48,
      "hit": false,
      "t": 55500,
      "d": 371.875,
      "v": 85
    },
    {
      "midi": 60,
      "hit": false,
      "t": 55500,
      "d": 371.875,
      "v": 85
    },
    {
      "midi": 64,
      "hit": false,
      "t": 55500,
      "d": 371.875,
      "v": 85
    },
    {
      "midi": 67,
      "hit": false,
      "t": 55500,
      "d": 371.875,
      "v": 85
    },
    {
      "midi": 48,
      "hit": false,
      "t": 55875,
      "d": 371.875,
      "v": 95
    },
    {
      "midi": 60,
      "hit": false,
      "t": 55875,
      "d": 371.875,
      "v": 95
    },
    {
      "midi": 64,
      "hit": false,
      "t": 55875,
      "d": 371.875,
      "v": 95
    },
    {
      "midi": 67,
      "hit": false,
      "t": 55875,
      "d": 371.875,
      "v": 95
    },
    {
      "midi": 43,
      "hit": false,
      "t": 56250,
      "d": 1121.875,
      "v": 95
    },
    {
      "midi": 69,
      "hit": false,
      "t": 56250,
      "d": 1121.875,
      "v": 95
    },
    {
      "midi": 71,
      "hit": false,
      "t": 56250,
      "d": 1121.875,
      "v": 95
    },
    {
      "midi": 62,
      "hit": false,
      "t": 56625,
      "d": 371.875,
      "v": 70
    },
    {
      "midi": 67,
      "hit": false,
      "t": 57000,
      "d": 371.875,
      "v": 70
    },
    {
      "midi": 69,
      "hit": false,
      "t": 57375,
      "d": 559.375,
      "v": 95
    },
    {
      "midi": 42,
      "hit": false,
      "t": 57375,
      "d": 1121.875,
      "v": 95
    },
    {
      "midi": 62,
      "hit": false,
      "t": 57375,
      "d": 1121.875,
      "v": 95
    },
    {
      "midi": 66,
      "hit": false,
      "t": 57375,
      "d": 1121.875,
      "v": 95
    },
    {
      "midi": 71,
      "hit": false,
      "t": 57937.5,
      "d": 184.375,
      "v": 95
    },
    {
      "midi": 72,
      "hit": false,
      "t": 58125,
      "d": 371.875,
      "v": 95
    },
    {
      "midi": 45,
      "hit": false,
      "t": 58500,
      "d": 1121.875,
      "v": 95
    },
    {
      "midi": 72,
      "hit": false,
      "t": 58500,
      "d": 1121.875,
      "v": 95
    },
    {
      "midi": 64,
      "hit": false,
      "t": 58875,
      "d": 371.875,
      "v": 80
    },
    {
      "midi": 69,
      "hit": false,
      "t": 59250,
      "d": 371.875,
      "v": 80
    },
    {
      "midi": 38,
      "hit": false,
      "t": 59625,
      "d": 1121.875,
      "v": 95
    },
    {
      "midi": 62,
      "hit": false,
      "t": 59625,
      "d": 1121.875,
      "v": 95
    },
    {
      "midi": 66,
      "hit": false,
      "t": 59625,
      "d": 1121.875,
      "v": 95
    },
    {
      "midi": 69,
      "hit": false,
      "t": 59625,
      "d": 1121.875,
      "v": 95
    },
    {
      "midi": 45,
      "hit": false,
      "t": 60750,
      "d": 1121.875,
      "v": 95
    },
    {
      "midi": 72,
      "hit": false,
      "t": 60750,
      "d": 1121.875,
      "v": 95
    },
    {
      "midi": 64,
      "hit": false,
      "t": 61125,
      "d": 371.875,
      "v": 70
    },
    {
      "midi": 69,
      "hit": false,
      "t": 61500,
      "d": 371.875,
      "v": 70
    },
    {
      "midi": 47,
      "hit": false,
      "t": 61875,
      "d": 1121.875,
      "v": 95
    },
    {
      "midi": 71,
      "hit": false,
      "t": 61875,
      "d": 1121.875,
      "v": 95
    },
    {
      "midi": 62,
      "hit": false,
      "t": 62250,
      "d": 371.875,
      "v": 70
    },
    {
      "midi": 66,
      "hit": false,
      "t": 62625,
      "d": 371.875,
      "v": 70
    },
    {
      "midi": 48,
      "hit": false,
      "t": 63000,
      "d": 1121.875,
      "v": 95
    },
    {
      "midi": 67,
      "hit": false,
      "t": 63000,
      "d": 1121.875,
      "v": 95
    },
    {
      "midi": 60,
      "hit": false,
      "t": 63375,
      "d": 371.875,
      "v": 70
    },
    {
      "midi": 64,
      "hit": false,
      "t": 63750,
      "d": 371.875,
      "v": 70
    },
    {
      "midi": 48,
      "hit": false,
      "t": 64125,
      "d": 371.875,
      "v": 76
    },
    {
      "midi": 60,
      "hit": false,
      "t": 64125,
      "d": 371.875,
      "v": 76
    },
    {
      "midi": 64,
      "hit": false,
      "t": 64125,
      "d": 371.875,
      "v": 76
    },
    {
      "midi": 67,
      "hit": false,
      "t": 64125,
      "d": 371.875,
      "v": 76
    },
    {
      "midi": 48,
      "hit": false,
      "t": 64500,
      "d": 371.875,
      "v": 85
    },
    {
      "midi": 60,
      "hit": false,
      "t": 64500,
      "d": 371.875,
      "v": 85
    },
    {
      "midi": 64,
      "hit": false,
      "t": 64500,
      "d": 371.875,
      "v": 85
    },
    {
      "midi": 67,
      "hit": false,
      "t": 64500,
      "d": 371.875,
      "v": 85
    },
    {
      "midi": 48,
      "hit": false,
      "t": 64875,
      "d": 371.875,
      "v": 95
    },
    {
      "midi": 60,
      "hit": false,
      "t": 64875,
      "d": 371.875,
      "v": 95
    },
    {
      "midi": 64,
      "hit": false,
      "t": 64875,
      "d": 371.875,
      "v": 95
    },
    {
      "midi": 67,
      "hit": false,
      "t": 64875,
      "d": 371.875,
      "v": 95
    },
    {
      "midi": 38,
      "hit": false,
      "t": 65250,
      "d": 1121.875,
      "v": 100
    },
    {
      "midi": 50,
      "hit": false,
      "t": 65250,
      "d": 1121.875,
      "v": 100
    },
    {
      "midi": 57,
      "hit": false,
      "t": 65250,
      "d": 1121.875,
      "v": 100
    },
    {
      "midi": 62,
      "hit": false,
      "t": 65250,
      "d": 1121.875,
      "v": 100
    },
    {
      "midi": 66,
      "hit": false,
      "t": 65250,
      "d": 1121.875,
      "v": 100
    },
    {
      "midi": 38,
      "hit": false,
      "t": 66375,
      "d": 1121.875,
      "v": 95
    },
    {
      "midi": 50,
      "hit": false,
      "t": 66375,
      "d": 1121.875,
      "v": 100
    },
    {
      "midi": 57,
      "hit": false,
      "t": 66375,
      "d": 1121.875,
      "v": 95
    },
    {
      "midi": 62,
      "hit": false,
      "t": 66375,
      "d": 1121.875,
      "v": 95
    },
    {
      "midi": 66,
      "hit": false,
      "t": 66375,
      "d": 1121.875,
      "v": 95
    },
    {
      "midi": 38,
      "hit": false,
      "t": 67500,
      "d": 1121.875,
      "v": 95
    },
    {
      "midi": 50,
      "hit": false,
      "t": 67500,
      "d": 1121.875,
      "v": 95
    },
    {
      "midi": 57,
      "hit": false,
      "t": 67500,
      "d": 1121.875,
      "v": 95
    },
    {
      "midi": 62,
      "hit": false,
      "t": 67500,
      "d": 1121.875,
      "v": 95
    },
    {
      "midi": 66,
      "hit": false,
      "t": 67500,
      "d": 1121.875,
      "v": 95
    },
    {
      "midi": 55,
      "hit": false,
      "t": 68625,
      "d": 371.875,
      "v": 95
    },
    {
      "midi": 57,
      "hit": false,
      "t": 68625,
      "d": 371.875,
      "v": 95
    },
    {
      "midi": 62,
      "hit": false,
      "t": 68625,
      "d": 371.875,
      "v": 95
    },
    {
      "midi": 67,
      "hit": false,
      "t": 68625,
      "d": 371.875,
      "v": 95
    },
    {
      "midi": 38,
      "hit": false,
      "t": 68625,
      "d": 1121.875,
      "v": 95
    },
    {
      "midi": 54,
      "hit": false,
      "t": 69000,
      "d": 371.875,
      "v": 95
    },
    {
      "midi": 57,
      "hit": false,
      "t": 69000,
      "d": 371.875,
      "v": 95
    },
    {
      "midi": 62,
      "hit": false,
      "t": 69000,
      "d": 371.875,
      "v": 95
    },
    {
      "midi": 66,
      "hit": false,
      "t": 69000,
      "d": 371.875,
      "v": 95
    },
    {
      "midi": 50,
      "hit": false,
      "t": 69375,
      "d": 371.875,
      "v": 95
    },
    {
      "midi": 57,
      "hit": false,
      "t": 69375,
      "d": 371.875,
      "v": 95
    },
    {
      "midi": 62,
      "hit": false,
      "t": 69375,
      "d": 371.875,
      "v": 95
    },
    {
      "midi": 55,
      "hit": false,
      "t": 69750,
      "d": 1121.875,
      "v": 95
    },
    {
      "midi": 60,
      "hit": false,
      "t": 69750,
      "d": 1121.875,
      "v": 95
    },
    {
      "midi": 28,
      "hit": false,
      "t": 70125,
      "d": 746.875,
      "v": 95
    },
    {
      "midi": 40,
      "hit": false,
      "t": 70125,
      "d": 746.875,
      "v": 95
    },
    {
      "midi": 31,
      "hit": false,
      "t": 70875,
      "d": 746.875,
      "v": 95
    },
    {
      "midi": 43,
      "hit": false,
      "t": 70875,
      "d": 746.875,
      "v": 95
    },
    {
      "midi": 55,
      "hit": false,
      "t": 70875,
      "d": 746.875,
      "v": 95
    },
    {
      "midi": 62,
      "hit": false,
      "t": 70875,
      "d": 746.875,
      "v": 95
    },
    {
      "midi": 36,
      "hit": false,
      "t": 71625,
      "d": 371.875,
      "v": 95
    },
    {
      "midi": 60,
      "hit": false,
      "t": 71625,
      "d": 371.875,
      "v": 95
    },
    {
      "midi": 64,
      "hit": false,
      "t": 71625,
      "d": 371.875,
      "v": 95
    },
    {
      "midi": 67,
      "hit": false,
      "t": 71625,
      "d": 371.875,
      "v": 95
    },
    {
      "midi": 38,
      "hit": false,
      "t": 72000,
      "d": 2246.875,
      "v": 95
    },
    {
      "midi": 66,
      "hit": false,
      "t": 72000,
      "d": 2246.875,
      "v": 95
    },
    {
      "midi": 57,
      "hit": false,
      "t": 73125,
      "d": 371.875,
      "v": 80
    },
    {
      "midi": 62,
      "hit": false,
      "t": 73125,
      "d": 371.875,
      "v": 80
    },
    {
      "midi": 54,
      "hit": false,
      "t": 73500,
      "d": 371.875,
      "v": 90
    },
    {
      "midi": 57,
      "hit": false,
      "t": 73500,
      "d": 371.875,
      "v": 90
    },
    {
      "midi": 62,
      "hit": false,
      "t": 73500,
      "d": 371.875,
      "v": 90
    },
    {
      "midi": 55,
      "hit": false,
      "t": 73875,
      "d": 371.875,
      "v": 100
    },
    {
      "midi": 57,
      "hit": false,
      "t": 73875,
      "d": 371.875,
      "v": 100
    },
    {
      "midi": 62,
      "hit": false,
      "t": 73875,
      "d": 371.875,
      "v": 100
    },
    {
      "midi": 50,
      "hit": false,
      "t": 74250,
      "d": 1121.875,
      "v": 100
    },
    {
      "midi": 57,
      "hit": false,
      "t": 74250,
      "d": 1121.875,
      "v": 100
    },
    {
      "midi": 62,
      "hit": false,
      "t": 74250,
      "d": 1121.875,
      "v": 100
    },
    {
      "midi": 66,
      "hit": false,
      "t": 74250,
      "d": 1121.875,
      "v": 100
    },
    {
      "midi": 50,
      "hit": false,
      "t": 75375,
      "d": 1121.875,
      "v": 90
    },
    {
      "midi": 57,
      "hit": false,
      "t": 75375,
      "d": 1121.875,
      "v": 85
    },
    {
      "midi": 62,
      "hit": false,
      "t": 75375,
      "d": 1121.875,
      "v": 85
    },
    {
      "midi": 66,
      "hit": false,
      "t": 75375,
      "d": 1121.875,
      "v": 85
    },
    {
      "midi": 50,
      "hit": false,
      "t": 76500,
      "d": 1121.875,
      "v": 76
    },
    {
      "midi": 57,
      "hit": false,
      "t": 76500,
      "d": 1121.875,
      "v": 76
    },
    {
      "midi": 62,
      "hit": false,
      "t": 76500,
      "d": 1121.875,
      "v": 76
    },
    {
      "midi": 66,
      "hit": false,
      "t": 76500,
      "d": 1121.875,
      "v": 76
    },
    {
      "midi": 55,
      "hit": false,
      "t": 77625,
      "d": 371.875,
      "v": 95
    },
    {
      "midi": 57,
      "hit": false,
      "t": 77625,
      "d": 371.875,
      "v": 95
    },
    {
      "midi": 62,
      "hit": false,
      "t": 77625,
      "d": 371.875,
      "v": 95
    },
    {
      "midi": 67,
      "hit": false,
      "t": 77625,
      "d": 371.875,
      "v": 95
    },
    {
      "midi": 54,
      "hit": false,
      "t": 78000,
      "d": 371.875,
      "v": 95
    },
    {
      "midi": 57,
      "hit": false,
      "t": 78000,
      "d": 371.875,
      "v": 95
    },
    {
      "midi": 62,
      "hit": false,
      "t": 78000,
      "d": 371.875,
      "v": 95
    },
    {
      "midi": 66,
      "hit": false,
      "t": 78000,
      "d": 371.875,
      "v": 95
    },
    {
      "midi": 50,
      "hit": false,
      "t": 78375,
      "d": 371.875,
      "v": 76
    },
    {
      "midi": 57,
      "hit": false,
      "t": 78375,
      "d": 371.875,
      "v": 76
    },
    {
      "midi": 62,
      "hit": false,
      "t": 78375,
      "d": 371.875,
      "v": 76
    },
    {
      "midi": 36,
      "hit": false,
      "t": 78750,
      "d": 1121.875,
      "v": 85
    },
    {
      "midi": 55,
      "hit": false,
      "t": 78750,
      "d": 1121.875,
      "v": 85
    },
    {
      "midi": 60,
      "hit": false,
      "t": 78750,
      "d": 1121.875,
      "v": 85
    },
    {
      "midi": 38,
      "hit": false,
      "t": 79875,
      "d": 746.875,
      "v": 95
    },
    {
      "midi": 55,
      "hit": false,
      "t": 79875,
      "d": 746.875,
      "v": 95
    },
    {
      "midi": 62,
      "hit": false,
      "t": 79875,
      "d": 746.875,
      "v": 95
    },
    {
      "midi": 36,
      "hit": false,
      "t": 80625,
      "d": 371.875,
      "v": 95
    },
    {
      "midi": 60,
      "hit": false,
      "t": 80625,
      "d": 371.875,
      "v": 95
    },
    {
      "midi": 64,
      "hit": false,
      "t": 80625,
      "d": 371.875,
      "v": 95
    },
    {
      "midi": 67,
      "hit": false,
      "t": 80625,
      "d": 371.875,
      "v": 95
    },
    {
      "midi": 38,
      "hit": false,
      "t": 81000,
      "d": 1121.875,
      "v": 95
    },
    {
      "midi": 57,
      "hit": false,
      "t": 81000,
      "d": 1496.875,
      "v": 95
    },
    {
      "midi": 62,
      "hit": false,
      "t": 81000,
      "d": 1496.875,
      "v": 95
    },
    {
      "midi": 66,
      "hit": false,
      "t": 81000,
      "d": 1496.875,
      "v": 95
    },
    {
      "midi": 38,
      "hit": false,
      "t": 82125,
      "d": 371.875,
      "v": 95
    },
    {
      "midi": 62,
      "hit": false,
      "t": 82500,
      "d": 184.375,
      "v": 95
    },
    {
      "midi": 38,
      "hit": false,
      "t": 82500,
      "d": 746.875,
      "v": 95
    },
    {
      "midi": 66,
      "hit": false,
      "t": 82687.5,
      "d": 184.375,
      "v": 95
    },
    {
      "midi": 69,
      "hit": false,
      "t": 82875,
      "d": 184.375,
      "v": 95
    },
    {
      "midi": 74,
      "hit": false,
      "t": 83062.5,
      "d": 184.375,
      "v": 95
    },
    {
      "midi": 62,
      "hit": false,
      "t": 83250,
      "d": 1121.875,
      "v": 85
    },
    {
      "midi": 69,
      "hit": false,
      "t": 83250,
      "d": 1121.875,
      "v": 85
    },
    {
      "midi": 71,
      "hit": false,
      "t": 83250,
      "d": 1121.875,
      "v": 85
    },
    {
      "midi": 69,
      "hit": false,
      "t": 84375,
      "d": 559.375,
      "v": 95
    },
    {
      "midi": 62,
      "hit": false,
      "t": 84375,
      "d": 1121.875,
      "v": 95
    },
    {
      "midi": 66,
      "hit": false,
      "t": 84375,
      "d": 1121.875,
      "v": 95
    },
    {
      "midi": 71,
      "hit": false,
      "t": 84937.5,
      "d": 184.375,
      "v": 95
    },
    {
      "midi": 72,
      "hit": false,
      "t": 85125,
      "d": 371.875,
      "v": 95
    },
    {
      "midi": 64,
      "hit": false,
      "t": 85500,
      "d": 1121.875,
      "v": 85
    },
    {
      "midi": 69,
      "hit": false,
      "t": 85500,
      "d": 1121.875,
      "v": 85
    },
    {
      "midi": 72,
      "hit": false,
      "t": 85500,
      "d": 1121.875,
      "v": 85
    },
    {
      "midi": 62,
      "hit": false,
      "t": 86625,
      "d": 1121.875,
      "v": 95
    },
    {
      "midi": 66,
      "hit": false,
      "t": 86625,
      "d": 1121.875,
      "v": 95
    },
    {
      "midi": 69,
      "hit": false,
      "t": 86625,
      "d": 1121.875,
      "v": 95
    },
    {
      "midi": 45,
      "hit": false,
      "t": 87750,
      "d": 1121.875,
      "v": 95
    },
    {
      "midi": 72,
      "hit": false,
      "t": 87750,
      "d": 1121.875,
      "v": 95
    },
    {
      "midi": 64,
      "hit": false,
      "t": 88125,
      "d": 371.875,
      "v": 70
    },
    {
      "midi": 69,
      "hit": false,
      "t": 88500,
      "d": 371.875,
      "v": 70
    },
    {
      "midi": 47,
      "hit": false,
      "t": 88875,
      "d": 1121.875,
      "v": 95
    },
    {
      "midi": 71,
      "hit": false,
      "t": 88875,
      "d": 1121.875,
      "v": 95
    },
    {
      "midi": 62,
      "hit": false,
      "t": 89250,
      "d": 371.875,
      "v": 70
    },
    {
      "midi": 66,
      "hit": false,
      "t": 89625,
      "d": 371.875,
      "v": 70
    },
    {
      "midi": 48,
      "hit": false,
      "t": 90000,
      "d": 1121.875,
      "v": 95
    },
    {
      "midi": 60,
      "hit": false,
      "t": 90000,
      "d": 1121.875,
      "v": 95
    },
    {
      "midi": 64,
      "hit": false,
      "t": 90000,
      "d": 1121.875,
      "v": 95
    },
    {
      "midi": 67,
      "hit": false,
      "t": 90000,
      "d": 1121.875,
      "v": 95
    },
    {
      "midi": 48,
      "hit": false,
      "t": 91125,
      "d": 371.875,
      "v": 76
    },
    {
      "midi": 60,
      "hit": false,
      "t": 91125,
      "d": 371.875,
      "v": 76
    },
    {
      "midi": 64,
      "hit": false,
      "t": 91125,
      "d": 371.875,
      "v": 76
    },
    {
      "midi": 67,
      "hit": false,
      "t": 91125,
      "d": 371.875,
      "v": 76
    },
    {
      "midi": 48,
      "hit": false,
      "t": 91500,
      "d": 371.875,
      "v": 85
    },
    {
      "midi": 60,
      "hit": false,
      "t": 91500,
      "d": 371.875,
      "v": 85
    },
    {
      "midi": 64,
      "hit": false,
      "t": 91500,
      "d": 371.875,
      "v": 85
    },
    {
      "midi": 67,
      "hit": false,
      "t": 91500,
      "d": 371.875,
      "v": 85
    },
    {
      "midi": 48,
      "hit": false,
      "t": 91875,
      "d": 371.875,
      "v": 95
    },
    {
      "midi": 60,
      "hit": false,
      "t": 91875,
      "d": 371.875,
      "v": 95
    },
    {
      "midi": 64,
      "hit": false,
      "t": 91875,
      "d": 371.875,
      "v": 95
    },
    {
      "midi": 67,
      "hit": false,
      "t": 91875,
      "d": 371.875,
      "v": 95
    },
    {
      "midi": 43,
      "hit": false,
      "t": 92250,
      "d": 1121.875,
      "v": 95
    },
    {
      "midi": 69,
      "hit": false,
      "t": 92250,
      "d": 1121.875,
      "v": 95
    },
    {
      "midi": 71,
      "hit": false,
      "t": 92250,
      "d": 1121.875,
      "v": 95
    },
    {
      "midi": 62,
      "hit": false,
      "t": 92625,
      "d": 371.875,
      "v": 70
    },
    {
      "midi": 67,
      "hit": false,
      "t": 93000,
      "d": 371.875,
      "v": 70
    },
    {
      "midi": 69,
      "hit": false,
      "t": 93375,
      "d": 559.375,
      "v": 95
    },
    {
      "midi": 42,
      "hit": false,
      "t": 93375,
      "d": 1121.875,
      "v": 95
    },
    {
      "midi": 62,
      "hit": false,
      "t": 93375,
      "d": 1121.875,
      "v": 95
    },
    {
      "midi": 66,
      "hit": false,
      "t": 93375,
      "d": 1121.875,
      "v": 95
    },
    {
      "midi": 71,
      "hit": false,
      "t": 93937.5,
      "d": 184.375,
      "v": 95
    },
    {
      "midi": 72,
      "hit": false,
      "t": 94125,
      "d": 371.875,
      "v": 95
    },
    {
      "midi": 45,
      "hit": false,
      "t": 94500,
      "d": 1121.875,
      "v": 95
    },
    {
      "midi": 72,
      "hit": false,
      "t": 94500,
      "d": 1121.875,
      "v": 95
    },
    {
      "midi": 64,
      "hit": false,
      "t": 94875,
      "d": 371.875,
      "v": 80
    },
    {
      "midi": 69,
      "hit": false,
      "t": 95250,
      "d": 371.875,
      "v": 80
    },
    {
      "midi": 38,
      "hit": false,
      "t": 95625,
      "d": 1121.875,
      "v": 95
    },
    {
      "midi": 62,
      "hit": false,
      "t": 95625,
      "d": 1121.875,
      "v": 95
    },
    {
      "midi": 66,
      "hit": false,
      "t": 95625,
      "d": 1121.875,
      "v": 95
    },
    {
      "midi": 69,
      "hit": false,
      "t": 95625,
      "d": 1121.875,
      "v": 95
    },
    {
      "midi": 45,
      "hit": false,
      "t": 96750,
      "d": 1121.875,
      "v": 95
    },
    {
      "midi": 72,
      "hit": false,
      "t": 96750,
      "d": 1121.875,
      "v": 95
    },
    {
      "midi": 64,
      "hit": false,
      "t": 97125,
      "d": 371.875,
      "v": 70
    },
    {
      "midi": 69,
      "hit": false,
      "t": 97500,
      "d": 371.875,
      "v": 70
    },
    {
      "midi": 47,
      "hit": false,
      "t": 97875,
      "d": 1121.875,
      "v": 95
    },
    {
      "midi": 71,
      "hit": false,
      "t": 97875,
      "d": 1121.875,
      "v": 95
    },
    {
      "midi": 62,
      "hit": false,
      "t": 98250,
      "d": 371.875,
      "v": 70
    },
    {
      "midi": 66,
      "hit": false,
      "t": 98625,
      "d": 371.875,
      "v": 70
    },
    {
      "midi": 48,
      "hit": false,
      "t": 99000,
      "d": 1121.875,
      "v": 95
    },
    {
      "midi": 67,
      "hit": false,
      "t": 99000,
      "d": 1121.875,
      "v": 95
    },
    {
      "midi": 60,
      "hit": false,
      "t": 99375,
      "d": 371.875,
      "v": 70
    },
    {
      "midi": 64,
      "hit": false,
      "t": 99750,
      "d": 371.875,
      "v": 70
    },
    {
      "midi": 48,
      "hit": false,
      "t": 100125,
      "d": 371.875,
      "v": 76
    },
    {
      "midi": 60,
      "hit": false,
      "t": 100125,
      "d": 371.875,
      "v": 76
    },
    {
      "midi": 64,
      "hit": false,
      "t": 100125,
      "d": 371.875,
      "v": 76
    },
    {
      "midi": 67,
      "hit": false,
      "t": 100125,
      "d": 371.875,
      "v": 76
    },
    {
      "midi": 48,
      "hit": false,
      "t": 100500,
      "d": 371.875,
      "v": 85
    },
    {
      "midi": 60,
      "hit": false,
      "t": 100500,
      "d": 371.875,
      "v": 85
    },
    {
      "midi": 64,
      "hit": false,
      "t": 100500,
      "d": 371.875,
      "v": 85
    },
    {
      "midi": 67,
      "hit": false,
      "t": 100500,
      "d": 371.875,
      "v": 85
    },
    {
      "midi": 48,
      "hit": false,
      "t": 100875,
      "d": 371.875,
      "v": 95
    },
    {
      "midi": 60,
      "hit": false,
      "t": 100875,
      "d": 371.875,
      "v": 95
    },
    {
      "midi": 64,
      "hit": false,
      "t": 100875,
      "d": 371.875,
      "v": 95
    },
    {
      "midi": 67,
      "hit": false,
      "t": 100875,
      "d": 371.875,
      "v": 95
    },
    {
      "midi": 38,
      "hit": false,
      "t": 101250,
      "d": 1121.875,
      "v": 100
    },
    {
      "midi": 50,
      "hit": false,
      "t": 101250,
      "d": 1121.875,
      "v": 100
    },
    {
      "midi": 57,
      "hit": false,
      "t": 101250,
      "d": 1121.875,
      "v": 100
    },
    {
      "midi": 62,
      "hit": false,
      "t": 101250,
      "d": 1121.875,
      "v": 100
    },
    {
      "midi": 66,
      "hit": false,
      "t": 101250,
      "d": 1121.875,
      "v": 100
    },
    {
      "midi": 38,
      "hit": false,
      "t": 102375,
      "d": 1121.875,
      "v": 95
    },
    {
      "midi": 50,
      "hit": false,
      "t": 102375,
      "d": 1121.875,
      "v": 100
    },
    {
      "midi": 57,
      "hit": false,
      "t": 102375,
      "d": 1121.875,
      "v": 95
    },
    {
      "midi": 62,
      "hit": false,
      "t": 102375,
      "d": 1121.875,
      "v": 95
    },
    {
      "midi": 66,
      "hit": false,
      "t": 102375,
      "d": 1121.875,
      "v": 95
    },
    {
      "midi": 38,
      "hit": false,
      "t": 103500,
      "d": 1121.875,
      "v": 95
    },
    {
      "midi": 50,
      "hit": false,
      "t": 103500,
      "d": 1121.875,
      "v": 95
    },
    {
      "midi": 57,
      "hit": false,
      "t": 103500,
      "d": 1121.875,
      "v": 95
    },
    {
      "midi": 62,
      "hit": false,
      "t": 103500,
      "d": 1121.875,
      "v": 95
    },
    {
      "midi": 66,
      "hit": false,
      "t": 103500,
      "d": 1121.875,
      "v": 95
    },
    {
      "midi": 55,
      "hit": false,
      "t": 104625,
      "d": 371.875,
      "v": 95
    },
    {
      "midi": 57,
      "hit": false,
      "t": 104625,
      "d": 371.875,
      "v": 95
    },
    {
      "midi": 62,
      "hit": false,
      "t": 104625,
      "d": 371.875,
      "v": 95
    },
    {
      "midi": 67,
      "hit": false,
      "t": 104625,
      "d": 371.875,
      "v": 95
    },
    {
      "midi": 38,
      "hit": false,
      "t": 104625,
      "d": 1121.875,
      "v": 95
    },
    {
      "midi": 54,
      "hit": false,
      "t": 105000,
      "d": 371.875,
      "v": 95
    },
    {
      "midi": 57,
      "hit": false,
      "t": 105000,
      "d": 371.875,
      "v": 95
    },
    {
      "midi": 62,
      "hit": false,
      "t": 105000,
      "d": 371.875,
      "v": 95
    },
    {
      "midi": 66,
      "hit": false,
      "t": 105000,
      "d": 371.875,
      "v": 95
    },
    {
      "midi": 50,
      "hit": false,
      "t": 105375,
      "d": 371.875,
      "v": 95
    },
    {
      "midi": 57,
      "hit": false,
      "t": 105375,
      "d": 371.875,
      "v": 95
    },
    {
      "midi": 62,
      "hit": false,
      "t": 105375,
      "d": 371.875,
      "v": 95
    },
    {
      "midi": 55,
      "hit": false,
      "t": 105750,
      "d": 1121.875,
      "v": 95
    },
    {
      "midi": 60,
      "hit": false,
      "t": 105750,
      "d": 1121.875,
      "v": 95
    },
    {
      "midi": 28,
      "hit": false,
      "t": 106125,
      "d": 746.875,
      "v": 95
    },
    {
      "midi": 40,
      "hit": false,
      "t": 106125,
      "d": 746.875,
      "v": 95
    },
    {
      "midi": 31,
      "hit": false,
      "t": 106875,
      "d": 746.875,
      "v": 95
    },
    {
      "midi": 43,
      "hit": false,
      "t": 106875,
      "d": 746.875,
      "v": 95
    },
    {
      "midi": 55,
      "hit": false,
      "t": 106875,
      "d": 746.875,
      "v": 95
    },
    {
      "midi": 62,
      "hit": false,
      "t": 106875,
      "d": 746.875,
      "v": 95
    },
    {
      "midi": 36,
      "hit": false,
      "t": 107625,
      "d": 371.875,
      "v": 95
    },
    {
      "midi": 60,
      "hit": false,
      "t": 107625,
      "d": 371.875,
      "v": 95
    },
    {
      "midi": 64,
      "hit": false,
      "t": 107625,
      "d": 371.875,
      "v": 95
    },
    {
      "midi": 67,
      "hit": false,
      "t": 107625,
      "d": 371.875,
      "v": 95
    },
    {
      "midi": 38,
      "hit": false,
      "t": 108000,
      "d": 2246.875,
      "v": 95
    },
    {
      "midi": 57,
      "hit": false,
      "t": 108000,
      "d": 2246.875,
      "v": 95
    },
    {
      "midi": 66,
      "hit": false,
      "t": 108000,
      "d": 2246.875,
      "v": 95
    },
    {
      "midi": 62,
      "hit": false,
      "t": 109875,
      "d": 371.875,
      "v": 56
    },
    {
      "midi": 50,
      "hit": false,
      "t": 110250,
      "d": 371.875,
      "v": 56
    },
    {
      "midi": 69,
      "hit": false,
      "t": 110250,
      "d": 559.375,
      "v": 66
    },
    {
      "midi": 57,
      "hit": false,
      "t": 110625,
      "d": 1121.875,
      "v": 56
    },
    {
      "midi": 71,
      "hit": false,
      "t": 110812.5,
      "d": 184.375,
      "v": 66
    },
    {
      "midi": 72,
      "hit": false,
      "t": 111000,
      "d": 371.875,
      "v": 97
    },
    {
      "midi": 69,
      "hit": false,
      "t": 111375,
      "d": 746.875,
      "v": 76
    },
    {
      "midi": 57,
      "hit": false,
      "t": 111750,
      "d": 1121.875,
      "v": 56
    },
    {
      "midi": 62,
      "hit": false,
      "t": 112125,
      "d": 371.875,
      "v": 97
    },
    {
      "midi": 69,
      "hit": false,
      "t": 112500,
      "d": 559.375,
      "v": 97
    },
    {
      "midi": 57,
      "hit": false,
      "t": 112875,
      "d": 1121.875,
      "v": 56
    },
    {
      "midi": 71,
      "hit": false,
      "t": 113062.5,
      "d": 90.625,
      "v": 56
    },
    {
      "midi": 69,
      "hit": false,
      "t": 113156.25,
      "d": 90.625,
      "v": 56
    },
    {
      "midi": 66,
      "hit": false,
      "t": 113250,
      "d": 371.875,
      "v": 97
    },
    {
      "midi": 67,
      "hit": false,
      "t": 113625,
      "d": 325,
      "v": 97
    },
    {
      "midi": 69,
      "hit": false,
      "t": 113906.25,
      "d": 43.75,
      "v": 56
    },
    {
      "midi": 67,
      "hit": false,
      "t": 113953.125,
      "d": 43.75,
      "v": 56
    },
    {
      "midi": 66,
      "hit": false,
      "t": 114000,
      "d": 371.875,
      "v": 97
    },
    {
      "midi": 57,
      "hit": false,
      "t": 114000,
      "d": 746.875,
      "v": 56
    },
    {
      "midi": 62,
      "hit": false,
      "t": 114375,
      "d": 371.875,
      "v": 97
    },
    {
      "midi": 60,
      "hit": false,
      "t": 114750,
      "d": 700,
      "v": 97
    },
    {
      "midi": 52,
      "hit": false,
      "t": 114750,
      "d": 1121.875,
      "v": 56
    },
    {
      "midi": 55,
      "hit": false,
      "t": 115125,
      "d": 746.875,
      "v": 56
    },
    {
      "midi": 62,
      "hit": false,
      "t": 115406.25,
      "d": 43.75,
      "v": 56
    },
    {
      "midi": 60,
      "hit": false,
      "t": 115453.125,
      "d": 43.75,
      "v": 56
    },
    {
      "midi": 59,
      "hit": false,
      "t": 115500,
      "d": 184.375,
      "v": 76
    },
    {
      "midi": 60,
      "hit": false,
      "t": 115687.5,
      "d": 184.375,
      "v": 97
    },
    {
      "midi": 47,
      "hit": false,
      "t": 115875,
      "d": 371.875,
      "v": 56
    },
    {
      "midi": 62,
      "hit": false,
      "t": 115875,
      "d": 746.875,
      "v": 97
    },
    {
      "midi": 47,
      "hit": false,
      "t": 116250,
      "d": 746.875,
      "v": 56
    },
    {
      "midi": 50,
      "hit": false,
      "t": 116437.5,
      "d": 184.375,
      "v": 56
    },
    {
      "midi": 52,
      "hit": false,
      "t": 116625,
      "d": 371.875,
      "v": 56
    },
    {
      "midi": 55,
      "hit": false,
      "t": 116625,
      "d": 371.875,
      "v": 56
    },
    {
      "midi": 64,
      "hit": false,
      "t": 116625,
      "d": 371.875,
      "v": 97
    },
    {
      "midi": 62,
      "hit": false,
      "t": 117000,
      "d": 1121.875,
      "v": 97
    },
    {
      "midi": 50,
      "hit": false,
      "t": 117000,
      "d": 1496.875,
      "v": 56
    },
    {
      "midi": 57,
      "hit": false,
      "t": 117000,
      "d": 1496.875,
      "v": 56
    },
    {
      "midi": 62,
      "hit": false,
      "t": 118125,
      "d": 371.875,
      "v": 66
    },
    {
      "midi": 62,
      "hit": false,
      "t": 118500,
      "d": 371.875,
      "v": 97
    },
    {
      "midi": 73,
      "hit": false,
      "t": 118828.125,
      "d": 43.75,
      "v": 56
    },
    {
      "midi": 74,
      "hit": false,
      "t": 118875,
      "d": 371.875,
      "v": 97
    },
    {
      "midi": 71,
      "hit": false,
      "t": 119250,
      "d": 559.375,
      "v": 97
    },
    {
      "midi": 55,
      "hit": false,
      "t": 119250,
      "d": 1121.875,
      "v": 56
    },
    {
      "midi": 69,
      "hit": false,
      "t": 119812.5,
      "d": 184.375,
      "v": 76
    },
    {
      "midi": 67,
      "hit": false,
      "t": 120000,
      "d": 371.875,
      "v": 97
    },
    {
      "midi": 69,
      "hit": false,
      "t": 120375,
      "d": 559.375,
      "v": 97
    },
    {
      "midi": 54,
      "hit": false,
      "t": 120375,
      "d": 1121.875,
      "v": 56
    },
    {
      "midi": 71,
      "hit": false,
      "t": 120937.5,
      "d": 137.5,
      "v": 97
    },
    {
      "midi": 71,
      "hit": false,
      "t": 121078.125,
      "d": 43.75,
      "v": 85
    },
    {
      "midi": 72,
      "hit": false,
      "t": 121125,
      "d": 371.875,
      "v": 97
    },
    {
      "midi": 74,
      "hit": false,
      "t": 121500,
      "d": 559.375,
      "v": 97
    },
    {
      "midi": 45,
      "hit": false,
      "t": 121500,
      "d": 1121.875,
      "v": 56
    },
    {
      "midi": 55,
      "hit": false,
      "t": 121500,
      "d": 1121.875,
      "v": 56
    },
    {
      "midi": 60,
      "hit": false,
      "t": 121500,
      "d": 1121.875,
      "v": 56
    },
    {
      "midi": 62,
      "hit": false,
      "t": 121500,
      "d": 1121.875,
      "v": 56
    },
    {
      "midi": 72,
      "hit": false,
      "t": 122062.5,
      "d": 184.375,
      "v": 76
    },
    {
      "midi": 71,
      "hit": false,
      "t": 122250,
      "d": 371.875,
      "v": 97
    },
    {
      "midi": 69,
      "hit": false,
      "t": 122625,
      "d": 746.875,
      "v": 97
    },
    {
      "midi": 50,
      "hit": false,
      "t": 122625,
      "d": 1121.875,
      "v": 56
    },
    {
      "midi": 57,
      "hit": false,
      "t": 122625,
      "d": 1121.875,
      "v": 56
    },
    {
      "midi": 62,
      "hit": false,
      "t": 122625,
      "d": 1121.875,
      "v": 56
    },
    {
      "midi": 73,
      "hit": false,
      "t": 123328.125,
      "d": 43.75,
      "v": 56
    },
    {
      "midi": 74,
      "hit": false,
      "t": 123375,
      "d": 371.875,
      "v": 97
    },
    {
      "midi": 72,
      "hit": false,
      "t": 123750,
      "d": 559.375,
      "v": 97
    },
    {
      "midi": 45,
      "hit": false,
      "t": 123750,
      "d": 1121.875,
      "v": 56
    },
    {
      "midi": 55,
      "hit": false,
      "t": 124125,
      "d": 1871.875,
      "v": 56
    },
    {
      "midi": 71,
      "hit": false,
      "t": 124312.5,
      "d": 184.375,
      "v": 76
    },
    {
      "midi": 69,
      "hit": false,
      "t": 124500,
      "d": 184.375,
      "v": 97
    },
    {
      "midi": 71,
      "hit": false,
      "t": 124781.25,
      "d": 43.75,
      "v": 56
    },
    {
      "midi": 69,
      "hit": false,
      "t": 124828.125,
      "d": 43.75,
      "v": 56
    },
    {
      "midi": 67,
      "hit": false,
      "t": 124875,
      "d": 371.875,
      "v": 97
    },
    {
      "midi": 47,
      "hit": false,
      "t": 124875,
      "d": 1121.875,
      "v": 56
    },
    {
      "midi": 62,
      "hit": false,
      "t": 125250,
      "d": 371.875,
      "v": 97
    },
    {
      "midi": 64,
      "hit": false,
      "t": 125625,
      "d": 371.875,
      "v": 97
    },
    {
      "midi": 48,
      "hit": false,
      "t": 126000,
      "d": 1121.875,
      "v": 56
    },
    {
      "midi": 60,
      "hit": false,
      "t": 126000,
      "d": 1871.875,
      "v": 97
    },
    {
      "midi": 48,
      "hit": false,
      "t": 127500,
      "d": 746.875,
      "v": 56
    },
    {
      "midi": 73,
      "hit": false,
      "t": 127828.125,
      "d": 43.75,
      "v": 56
    },
    {
      "midi": 74,
      "hit": false,
      "t": 127875,
      "d": 371.875,
      "v": 97
    },
    {
      "midi": 55,
      "hit": false,
      "t": 128250,
      "d": 559.375,
      "v": 56
    },
    {
      "midi": 71,
      "hit": false,
      "t": 128250,
      "d": 559.375,
      "v": 97
    },
    {
      "midi": 62,
      "hit": false,
      "t": 128250,
      "d": 746.875,
      "v": 56
    },
    {
      "midi": 54,
      "hit": false,
      "t": 128812.5,
      "d": 184.375,
      "v": 56
    },
    {
      "midi": 69,
      "hit": false,
      "t": 128812.5,
      "d": 184.375,
      "v": 76
    },
    {
      "midi": 52,
      "hit": false,
      "t": 129000,
      "d": 371.875,
      "v": 56
    },
    {
      "midi": 67,
      "hit": false,
      "t": 129000,
      "d": 371.875,
      "v": 97
    },
    {
      "midi": 69,
      "hit": false,
      "t": 129375,
      "d": 559.375,
      "v": 97
    },
    {
      "midi": 50,
      "hit": false,
      "t": 129375,
      "d": 1121.875,
      "v": 56
    },
    {
      "midi": 71,
      "hit": false,
      "t": 129937.5,
      "d": 137.5,
      "v": 97
    },
    {
      "midi": 71,
      "hit": false,
      "t": 130078.125,
      "d": 43.75,
      "v": 85
    },
    {
      "midi": 72,
      "hit": false,
      "t": 130125,
      "d": 371.875,
      "v": 97
    },
    {
      "midi": 74,
      "hit": false,
      "t": 130500,
      "d": 559.375,
      "v": 97
    },
    {
      "midi": 45,
      "hit": false,
      "t": 130500,
      "d": 1121.875,
      "v": 56
    },
    {
      "midi": 55,
      "hit": false,
      "t": 130500,
      "d": 1121.875,
      "v": 56
    },
    {
      "midi": 60,
      "hit": false,
      "t": 130500,
      "d": 1121.875,
      "v": 56
    },
    {
      "midi": 62,
      "hit": false,
      "t": 130500,
      "d": 1121.875,
      "v": 56
    },
    {
      "midi": 72,
      "hit": false,
      "t": 131062.5,
      "d": 184.375,
      "v": 76
    },
    {
      "midi": 71,
      "hit": false,
      "t": 131250,
      "d": 371.875,
      "v": 97
    },
    {
      "midi": 69,
      "hit": false,
      "t": 131625,
      "d": 746.875,
      "v": 97
    },
    {
      "midi": 50,
      "hit": false,
      "t": 131625,
      "d": 1121.875,
      "v": 56
    },
    {
      "midi": 57,
      "hit": false,
      "t": 131625,
      "d": 1121.875,
      "v": 56
    },
    {
      "midi": 62,
      "hit": false,
      "t": 131625,
      "d": 1121.875,
      "v": 56
    },
    {
      "midi": 73,
      "hit": false,
      "t": 132328.125,
      "d": 43.75,
      "v": 56
    },
    {
      "midi": 74,
      "hit": false,
      "t": 132375,
      "d": 371.875,
      "v": 97
    },
    {
      "midi": 72,
      "hit": false,
      "t": 132750,
      "d": 559.375,
      "v": 97
    },
    {
      "midi": 45,
      "hit": false,
      "t": 132750,
      "d": 1121.875,
      "v": 56
    },
    {
      "midi": 55,
      "hit": false,
      "t": 133125,
      "d": 1871.875,
      "v": 56
    },
    {
      "midi": 71,
      "hit": false,
      "t": 133312.5,
      "d": 184.375,
      "v": 76
    },
    {
      "midi": 69,
      "hit": false,
      "t": 133500,
      "d": 325,
      "v": 97
    },
    {
      "midi": 71,
      "hit": false,
      "t": 133781.25,
      "d": 43.75,
      "v": 56
    },
    {
      "midi": 69,
      "hit": false,
      "t": 133828.125,
      "d": 43.75,
      "v": 56
    },
    {
      "midi": 67,
      "hit": false,
      "t": 133875,
      "d": 371.875,
      "v": 97
    },
    {
      "midi": 47,
      "hit": false,
      "t": 133875,
      "d": 1121.875,
      "v": 56
    },
    {
      "midi": 62,
      "hit": false,
      "t": 134250,
      "d": 371.875,
      "v": 97
    },
    {
      "midi": 64,
      "hit": false,
      "t": 134625,
      "d": 371.875,
      "v": 97
    },
    {
      "midi": 48,
      "hit": false,
      "t": 135000,
      "d": 1121.875,
      "v": 56
    },
    {
      "midi": 60,
      "hit": false,
      "t": 135000,
      "d": 1871.875,
      "v": 97
    },
    {
      "midi": 62,
      "hit": false,
      "t": 136875,
      "d": 371.875,
      "v": 56
    },
    {
      "midi": 50,
      "hit": false,
      "t": 137250,
      "d": 371.875,
      "v": 56
    },
    {
      "midi": 69,
      "hit": false,
      "t": 137250,
      "d": 559.375,
      "v": 66
    },
    {
      "midi": 57,
      "hit": false,
      "t": 137625,
      "d": 1121.875,
      "v": 56
    },
    {
      "midi": 71,
      "hit": false,
      "t": 137812.5,
      "d": 184.375,
      "v": 66
    },
    {
      "midi": 72,
      "hit": false,
      "t": 138000,
      "d": 371.875,
      "v": 97
    },
    {
      "midi": 69,
      "hit": false,
      "t": 138375,
      "d": 746.875,
      "v": 76
    },
    {
      "midi": 57,
      "hit": false,
      "t": 138750,
      "d": 1121.875,
      "v": 56
    },
    {
      "midi": 62,
      "hit": false,
      "t": 139125,
      "d": 371.875,
      "v": 97
    },
    {
      "midi": 69,
      "hit": false,
      "t": 139500,
      "d": 559.375,
      "v": 97
    },
    {
      "midi": 57,
      "hit": false,
      "t": 139875,
      "d": 1121.875,
      "v": 56
    },
    {
      "midi": 71,
      "hit": false,
      "t": 140062.5,
      "d": 90.625,
      "v": 56
    },
    {
      "midi": 69,
      "hit": false,
      "t": 140156.25,
      "d": 90.625,
      "v": 56
    },
    {
      "midi": 66,
      "hit": false,
      "t": 140250,
      "d": 371.875,
      "v": 97
    },
    {
      "midi": 67,
      "hit": false,
      "t": 140625,
      "d": 325,
      "v": 97
    },
    {
      "midi": 69,
      "hit": false,
      "t": 140906.25,
      "d": 43.75,
      "v": 56
    },
    {
      "midi": 67,
      "hit": false,
      "t": 140953.125,
      "d": 43.75,
      "v": 56
    },
    {
      "midi": 66,
      "hit": false,
      "t": 141000,
      "d": 371.875,
      "v": 97
    },
    {
      "midi": 57,
      "hit": false,
      "t": 141000,
      "d": 746.875,
      "v": 56
    },
    {
      "midi": 62,
      "hit": false,
      "t": 141375,
      "d": 371.875,
      "v": 97
    },
    {
      "midi": 60,
      "hit": false,
      "t": 141750,
      "d": 700,
      "v": 97
    },
    {
      "midi": 52,
      "hit": false,
      "t": 141750,
      "d": 1121.875,
      "v": 56
    },
    {
      "midi": 55,
      "hit": false,
      "t": 142125,
      "d": 746.875,
      "v": 56
    },
    {
      "midi": 62,
      "hit": false,
      "t": 142406.25,
      "d": 43.75,
      "v": 56
    },
    {
      "midi": 60,
      "hit": false,
      "t": 142453.125,
      "d": 43.75,
      "v": 56
    },
    {
      "midi": 59,
      "hit": false,
      "t": 142500,
      "d": 184.375,
      "v": 76
    },
    {
      "midi": 60,
      "hit": false,
      "t": 142687.5,
      "d": 184.375,
      "v": 97
    },
    {
      "midi": 47,
      "hit": false,
      "t": 142875,
      "d": 371.875,
      "v": 56
    },
    {
      "midi": 62,
      "hit": false,
      "t": 142875,
      "d": 746.875,
      "v": 97
    },
    {
      "midi": 47,
      "hit": false,
      "t": 143250,
      "d": 371.875,
      "v": 56
    },
    {
      "midi": 50,
      "hit": false,
      "t": 143437.5,
      "d": 184.375,
      "v": 56
    },
    {
      "midi": 47,
      "hit": false,
      "t": 143625,
      "d": 371.875,
      "v": 56
    },
    {
      "midi": 52,
      "hit": false,
      "t": 143625,
      "d": 371.875,
      "v": 56
    },
    {
      "midi": 55,
      "hit": false,
      "t": 143625,
      "d": 371.875,
      "v": 56
    },
    {
      "midi": 64,
      "hit": false,
      "t": 143625,
      "d": 371.875,
      "v": 97
    },
    {
      "midi": 62,
      "hit": false,
      "t": 144000,
      "d": 746.875,
      "v": 97
    },
    {
      "midi": 50,
      "hit": false,
      "t": 144000,
      "d": 1121.875,
      "v": 56
    },
    {
      "midi": 54,
      "hit": false,
      "t": 144000,
      "d": 1121.875,
      "v": 56
    },
    {
      "midi": 57,
      "hit": false,
      "t": 144000,
      "d": 1121.875,
      "v": 56
    },
    {
      "midi": 38,
      "hit": false,
      "t": 144000,
      "d": 2246.875,
      "v": 81
    },
    {
      "midi": 62,
      "hit": false,
      "t": 144750,
      "d": 371.875,
      "v": 69
    },
    {
      "midi": 57,
      "hit": false,
      "t": 203625,
      "d": 371.875,
      "v": 80
    },
    {
      "midi": 62,
      "hit": false,
      "t": 203625,
      "d": 371.875,
      "v": 80
    },
    {
      "midi": 54,
      "hit": false,
      "t": 204000,
      "d": 371.875,
      "v": 90
    },
    {
      "midi": 57,
      "hit": false,
      "t": 204000,
      "d": 371.875,
      "v": 90
    },
    {
      "midi": 62,
      "hit": false,
      "t": 204000,
      "d": 371.875,
      "v": 90
    },
    {
      "midi": 55,
      "hit": false,
      "t": 204375,
      "d": 371.875,
      "v": 100
    },
    {
      "midi": 57,
      "hit": false,
      "t": 204375,
      "d": 371.875,
      "v": 100
    },
    {
      "midi": 62,
      "hit": false,
      "t": 204375,
      "d": 371.875,
      "v": 100
    },
    {
      "midi": 50,
      "hit": false,
      "t": 204750,
      "d": 1121.875,
      "v": 100
    },
    {
      "midi": 57,
      "hit": false,
      "t": 204750,
      "d": 1121.875,
      "v": 100
    },
    {
      "midi": 62,
      "hit": false,
      "t": 204750,
      "d": 1121.875,
      "v": 100
    },
    {
      "midi": 66,
      "hit": false,
      "t": 204750,
      "d": 1121.875,
      "v": 100
    },
    {
      "midi": 50,
      "hit": false,
      "t": 205875,
      "d": 1121.875,
      "v": 90
    },
    {
      "midi": 57,
      "hit": false,
      "t": 205875,
      "d": 1121.875,
      "v": 85
    },
    {
      "midi": 62,
      "hit": false,
      "t": 205875,
      "d": 1121.875,
      "v": 85
    },
    {
      "midi": 66,
      "hit": false,
      "t": 205875,
      "d": 1121.875,
      "v": 85
    },
    {
      "midi": 50,
      "hit": false,
      "t": 207000,
      "d": 1121.875,
      "v": 76
    },
    {
      "midi": 57,
      "hit": false,
      "t": 207000,
      "d": 1121.875,
      "v": 76
    },
    {
      "midi": 62,
      "hit": false,
      "t": 207000,
      "d": 1121.875,
      "v": 76
    },
    {
      "midi": 66,
      "hit": false,
      "t": 207000,
      "d": 1121.875,
      "v": 76
    },
    {
      "midi": 55,
      "hit": false,
      "t": 208125,
      "d": 371.875,
      "v": 95
    },
    {
      "midi": 57,
      "hit": false,
      "t": 208125,
      "d": 371.875,
      "v": 95
    },
    {
      "midi": 62,
      "hit": false,
      "t": 208125,
      "d": 371.875,
      "v": 95
    },
    {
      "midi": 67,
      "hit": false,
      "t": 208125,
      "d": 371.875,
      "v": 95
    },
    {
      "midi": 54,
      "hit": false,
      "t": 208500,
      "d": 371.875,
      "v": 95
    },
    {
      "midi": 57,
      "hit": false,
      "t": 208500,
      "d": 371.875,
      "v": 95
    },
    {
      "midi": 62,
      "hit": false,
      "t": 208500,
      "d": 371.875,
      "v": 95
    },
    {
      "midi": 66,
      "hit": false,
      "t": 208500,
      "d": 371.875,
      "v": 95
    },
    {
      "midi": 50,
      "hit": false,
      "t": 208875,
      "d": 371.875,
      "v": 76
    },
    {
      "midi": 57,
      "hit": false,
      "t": 208875,
      "d": 371.875,
      "v": 76
    },
    {
      "midi": 62,
      "hit": false,
      "t": 208875,
      "d": 371.875,
      "v": 76
    },
    {
      "midi": 36,
      "hit": false,
      "t": 209250,
      "d": 1121.875,
      "v": 85
    },
    {
      "midi": 55,
      "hit": false,
      "t": 209250,
      "d": 1121.875,
      "v": 85
    },
    {
      "midi": 60,
      "hit": false,
      "t": 209250,
      "d": 1121.875,
      "v": 85
    },
    {
      "midi": 38,
      "hit": false,
      "t": 210375,
      "d": 746.875,
      "v": 95
    },
    {
      "midi": 55,
      "hit": false,
      "t": 210375,
      "d": 746.875,
      "v": 95
    },
    {
      "midi": 62,
      "hit": false,
      "t": 210375,
      "d": 746.875,
      "v": 95
    },
    {
      "midi": 36,
      "hit": false,
      "t": 211125,
      "d": 371.875,
      "v": 95
    },
    {
      "midi": 60,
      "hit": false,
      "t": 211125,
      "d": 371.875,
      "v": 95
    },
    {
      "midi": 64,
      "hit": false,
      "t": 211125,
      "d": 371.875,
      "v": 95
    },
    {
      "midi": 67,
      "hit": false,
      "t": 211125,
      "d": 371.875,
      "v": 95
    },
    {
      "midi": 38,
      "hit": false,
      "t": 211500,
      "d": 1121.875,
      "v": 95
    },
    {
      "midi": 57,
      "hit": false,
      "t": 211500,
      "d": 1496.875,
      "v": 95
    },
    {
      "midi": 62,
      "hit": false,
      "t": 211500,
      "d": 1496.875,
      "v": 95
    },
    {
      "midi": 66,
      "hit": false,
      "t": 211500,
      "d": 1496.875,
      "v": 95
    },
    {
      "midi": 38,
      "hit": false,
      "t": 212625,
      "d": 371.875,
      "v": 95
    },
    {
      "midi": 62,
      "hit": false,
      "t": 213000,
      "d": 184.375,
      "v": 95
    },
    {
      "midi": 38,
      "hit": false,
      "t": 213000,
      "d": 746.875,
      "v": 95
    },
    {
      "midi": 66,
      "hit": false,
      "t": 213187.5,
      "d": 184.375,
      "v": 95
    },
    {
      "midi": 69,
      "hit": false,
      "t": 213375,
      "d": 184.375,
      "v": 95
    },
    {
      "midi": 74,
      "hit": false,
      "t": 213562.5,
      "d": 184.375,
      "v": 95
    },
    {
      "midi": 62,
      "hit": false,
      "t": 213750,
      "d": 1121.875,
      "v": 85
    },
    {
      "midi": 69,
      "hit": false,
      "t": 213750,
      "d": 1121.875,
      "v": 85
    },
    {
      "midi": 71,
      "hit": false,
      "t": 213750,
      "d": 1121.875,
      "v": 85
    },
    {
      "midi": 69,
      "hit": false,
      "t": 214875,
      "d": 559.375,
      "v": 95
    },
    {
      "midi": 62,
      "hit": false,
      "t": 214875,
      "d": 1121.875,
      "v": 95
    },
    {
      "midi": 66,
      "hit": false,
      "t": 214875,
      "d": 1121.875,
      "v": 95
    },
    {
      "midi": 71,
      "hit": false,
      "t": 215437.5,
      "d": 184.375,
      "v": 95
    },
    {
      "midi": 72,
      "hit": false,
      "t": 215625,
      "d": 371.875,
      "v": 95
    },
    {
      "midi": 64,
      "hit": false,
      "t": 216000,
      "d": 1121.875,
      "v": 85
    },
    {
      "midi": 69,
      "hit": false,
      "t": 216000,
      "d": 1121.875,
      "v": 85
    },
    {
      "midi": 72,
      "hit": false,
      "t": 216000,
      "d": 1121.875,
      "v": 85
    },
    {
      "midi": 62,
      "hit": false,
      "t": 217125,
      "d": 1121.875,
      "v": 95
    },
    {
      "midi": 66,
      "hit": false,
      "t": 217125,
      "d": 1121.875,
      "v": 95
    },
    {
      "midi": 69,
      "hit": false,
      "t": 217125,
      "d": 1121.875,
      "v": 95
    },
    {
      "midi": 45,
      "hit": false,
      "t": 218250,
      "d": 1121.875,
      "v": 95
    },
    {
      "midi": 72,
      "hit": false,
      "t": 218250,
      "d": 1121.875,
      "v": 95
    },
    {
      "midi": 64,
      "hit": false,
      "t": 218625,
      "d": 371.875,
      "v": 70
    },
    {
      "midi": 69,
      "hit": false,
      "t": 219000,
      "d": 371.875,
      "v": 70
    },
    {
      "midi": 47,
      "hit": false,
      "t": 219375,
      "d": 1121.875,
      "v": 95
    },
    {
      "midi": 71,
      "hit": false,
      "t": 219375,
      "d": 1121.875,
      "v": 95
    },
    {
      "midi": 62,
      "hit": false,
      "t": 219750,
      "d": 371.875,
      "v": 70
    },
    {
      "midi": 66,
      "hit": false,
      "t": 220125,
      "d": 371.875,
      "v": 70
    },
    {
      "midi": 48,
      "hit": false,
      "t": 220500,
      "d": 1121.875,
      "v": 95
    },
    {
      "midi": 60,
      "hit": false,
      "t": 220500,
      "d": 1121.875,
      "v": 95
    },
    {
      "midi": 64,
      "hit": false,
      "t": 220500,
      "d": 1121.875,
      "v": 95
    },
    {
      "midi": 67,
      "hit": false,
      "t": 220500,
      "d": 1121.875,
      "v": 95
    },
    {
      "midi": 48,
      "hit": false,
      "t": 221625,
      "d": 371.875,
      "v": 76
    },
    {
      "midi": 60,
      "hit": false,
      "t": 221625,
      "d": 371.875,
      "v": 76
    },
    {
      "midi": 64,
      "hit": false,
      "t": 221625,
      "d": 371.875,
      "v": 76
    },
    {
      "midi": 67,
      "hit": false,
      "t": 221625,
      "d": 371.875,
      "v": 76
    },
    {
      "midi": 48,
      "hit": false,
      "t": 222000,
      "d": 371.875,
      "v": 85
    },
    {
      "midi": 60,
      "hit": false,
      "t": 222000,
      "d": 371.875,
      "v": 85
    },
    {
      "midi": 64,
      "hit": false,
      "t": 222000,
      "d": 371.875,
      "v": 85
    },
    {
      "midi": 67,
      "hit": false,
      "t": 222000,
      "d": 371.875,
      "v": 85
    },
    {
      "midi": 48,
      "hit": false,
      "t": 222375,
      "d": 371.875,
      "v": 95
    },
    {
      "midi": 60,
      "hit": false,
      "t": 222375,
      "d": 371.875,
      "v": 95
    },
    {
      "midi": 64,
      "hit": false,
      "t": 222375,
      "d": 371.875,
      "v": 95
    },
    {
      "midi": 67,
      "hit": false,
      "t": 222375,
      "d": 371.875,
      "v": 95
    },
    {
      "midi": 43,
      "hit": false,
      "t": 222750,
      "d": 1121.875,
      "v": 95
    },
    {
      "midi": 69,
      "hit": false,
      "t": 222750,
      "d": 1121.875,
      "v": 95
    },
    {
      "midi": 71,
      "hit": false,
      "t": 222750,
      "d": 1121.875,
      "v": 95
    },
    {
      "midi": 62,
      "hit": false,
      "t": 223125,
      "d": 371.875,
      "v": 70
    },
    {
      "midi": 67,
      "hit": false,
      "t": 223500,
      "d": 371.875,
      "v": 70
    },
    {
      "midi": 69,
      "hit": false,
      "t": 223875,
      "d": 559.375,
      "v": 95
    },
    {
      "midi": 42,
      "hit": false,
      "t": 223875,
      "d": 1121.875,
      "v": 95
    },
    {
      "midi": 62,
      "hit": false,
      "t": 223875,
      "d": 1121.875,
      "v": 95
    },
    {
      "midi": 66,
      "hit": false,
      "t": 223875,
      "d": 1121.875,
      "v": 95
    },
    {
      "midi": 71,
      "hit": false,
      "t": 224437.5,
      "d": 184.375,
      "v": 95
    },
    {
      "midi": 72,
      "hit": false,
      "t": 224625,
      "d": 371.875,
      "v": 95
    },
    {
      "midi": 45,
      "hit": false,
      "t": 225000,
      "d": 1121.875,
      "v": 95
    },
    {
      "midi": 72,
      "hit": false,
      "t": 225000,
      "d": 1121.875,
      "v": 95
    },
    {
      "midi": 64,
      "hit": false,
      "t": 225375,
      "d": 371.875,
      "v": 80
    },
    {
      "midi": 69,
      "hit": false,
      "t": 225750,
      "d": 371.875,
      "v": 80
    },
    {
      "midi": 38,
      "hit": false,
      "t": 226125,
      "d": 1121.875,
      "v": 95
    },
    {
      "midi": 62,
      "hit": false,
      "t": 226125,
      "d": 1121.875,
      "v": 95
    },
    {
      "midi": 66,
      "hit": false,
      "t": 226125,
      "d": 1121.875,
      "v": 95
    },
    {
      "midi": 69,
      "hit": false,
      "t": 226125,
      "d": 1121.875,
      "v": 95
    },
    {
      "midi": 45,
      "hit": false,
      "t": 227250,
      "d": 1121.875,
      "v": 95
    },
    {
      "midi": 72,
      "hit": false,
      "t": 227250,
      "d": 1121.875,
      "v": 95
    },
    {
      "midi": 64,
      "hit": false,
      "t": 227625,
      "d": 371.875,
      "v": 70
    },
    {
      "midi": 69,
      "hit": false,
      "t": 228000,
      "d": 371.875,
      "v": 70
    },
    {
      "midi": 47,
      "hit": false,
      "t": 228375,
      "d": 1121.875,
      "v": 95
    },
    {
      "midi": 71,
      "hit": false,
      "t": 228375,
      "d": 1121.875,
      "v": 95
    },
    {
      "midi": 62,
      "hit": false,
      "t": 228750,
      "d": 371.875,
      "v": 70
    },
    {
      "midi": 66,
      "hit": false,
      "t": 229125,
      "d": 371.875,
      "v": 70
    },
    {
      "midi": 48,
      "hit": false,
      "t": 229500,
      "d": 1121.875,
      "v": 95
    },
    {
      "midi": 67,
      "hit": false,
      "t": 229500,
      "d": 1121.875,
      "v": 95
    },
    {
      "midi": 60,
      "hit": false,
      "t": 229875,
      "d": 371.875,
      "v": 70
    },
    {
      "midi": 64,
      "hit": false,
      "t": 230250,
      "d": 371.875,
      "v": 70
    },
    {
      "midi": 48,
      "hit": false,
      "t": 230625,
      "d": 371.875,
      "v": 76
    },
    {
      "midi": 60,
      "hit": false,
      "t": 230625,
      "d": 371.875,
      "v": 76
    },
    {
      "midi": 64,
      "hit": false,
      "t": 230625,
      "d": 371.875,
      "v": 76
    },
    {
      "midi": 67,
      "hit": false,
      "t": 230625,
      "d": 371.875,
      "v": 76
    },
    {
      "midi": 48,
      "hit": false,
      "t": 231000,
      "d": 371.875,
      "v": 85
    },
    {
      "midi": 60,
      "hit": false,
      "t": 231000,
      "d": 371.875,
      "v": 85
    },
    {
      "midi": 64,
      "hit": false,
      "t": 231000,
      "d": 371.875,
      "v": 85
    },
    {
      "midi": 67,
      "hit": false,
      "t": 231000,
      "d": 371.875,
      "v": 85
    },
    {
      "midi": 48,
      "hit": false,
      "t": 231375,
      "d": 371.875,
      "v": 95
    },
    {
      "midi": 60,
      "hit": false,
      "t": 231375,
      "d": 371.875,
      "v": 95
    },
    {
      "midi": 64,
      "hit": false,
      "t": 231375,
      "d": 371.875,
      "v": 95
    },
    {
      "midi": 67,
      "hit": false,
      "t": 231375,
      "d": 371.875,
      "v": 95
    },
    {
      "midi": 38,
      "hit": false,
      "t": 231750,
      "d": 1121.875,
      "v": 100
    },
    {
      "midi": 50,
      "hit": false,
      "t": 231750,
      "d": 1121.875,
      "v": 100
    },
    {
      "midi": 57,
      "hit": false,
      "t": 231750,
      "d": 1121.875,
      "v": 100
    },
    {
      "midi": 62,
      "hit": false,
      "t": 231750,
      "d": 1121.875,
      "v": 100
    },
    {
      "midi": 66,
      "hit": false,
      "t": 231750,
      "d": 1121.875,
      "v": 100
    },
    {
      "midi": 38,
      "hit": false,
      "t": 232875,
      "d": 1121.875,
      "v": 95
    },
    {
      "midi": 50,
      "hit": false,
      "t": 232875,
      "d": 1121.875,
      "v": 100
    },
    {
      "midi": 57,
      "hit": false,
      "t": 232875,
      "d": 1121.875,
      "v": 95
    },
    {
      "midi": 62,
      "hit": false,
      "t": 232875,
      "d": 1121.875,
      "v": 95
    },
    {
      "midi": 66,
      "hit": false,
      "t": 232875,
      "d": 1121.875,
      "v": 95
    },
    {
      "midi": 38,
      "hit": false,
      "t": 234000,
      "d": 1121.875,
      "v": 95
    },
    {
      "midi": 50,
      "hit": false,
      "t": 234000,
      "d": 1121.875,
      "v": 95
    },
    {
      "midi": 57,
      "hit": false,
      "t": 234000,
      "d": 1121.875,
      "v": 95
    },
    {
      "midi": 62,
      "hit": false,
      "t": 234000,
      "d": 1121.875,
      "v": 95
    },
    {
      "midi": 66,
      "hit": false,
      "t": 234000,
      "d": 1121.875,
      "v": 95
    },
    {
      "midi": 55,
      "hit": false,
      "t": 235125,
      "d": 371.875,
      "v": 95
    },
    {
      "midi": 57,
      "hit": false,
      "t": 235125,
      "d": 371.875,
      "v": 95
    },
    {
      "midi": 62,
      "hit": false,
      "t": 235125,
      "d": 371.875,
      "v": 95
    },
    {
      "midi": 67,
      "hit": false,
      "t": 235125,
      "d": 371.875,
      "v": 95
    },
    {
      "midi": 38,
      "hit": false,
      "t": 235125,
      "d": 1121.875,
      "v": 95
    },
    {
      "midi": 54,
      "hit": false,
      "t": 235500,
      "d": 371.875,
      "v": 95
    },
    {
      "midi": 57,
      "hit": false,
      "t": 235500,
      "d": 371.875,
      "v": 95
    },
    {
      "midi": 62,
      "hit": false,
      "t": 235500,
      "d": 371.875,
      "v": 95
    },
    {
      "midi": 66,
      "hit": false,
      "t": 235500,
      "d": 371.875,
      "v": 95
    },
    {
      "midi": 50,
      "hit": false,
      "t": 235875,
      "d": 371.875,
      "v": 95
    },
    {
      "midi": 57,
      "hit": false,
      "t": 235875,
      "d": 371.875,
      "v": 95
    },
    {
      "midi": 62,
      "hit": false,
      "t": 235875,
      "d": 371.875,
      "v": 95
    },
    {
      "midi": 55,
      "hit": false,
      "t": 236250,
      "d": 1121.875,
      "v": 95
    },
    {
      "midi": 60,
      "hit": false,
      "t": 236250,
      "d": 1121.875,
      "v": 95
    },
    {
      "midi": 28,
      "hit": false,
      "t": 236625,
      "d": 746.875,
      "v": 95
    },
    {
      "midi": 40,
      "hit": false,
      "t": 236625,
      "d": 746.875,
      "v": 95
    },
    {
      "midi": 31,
      "hit": false,
      "t": 237375,
      "d": 746.875,
      "v": 95
    },
    {
      "midi": 43,
      "hit": false,
      "t": 237375,
      "d": 746.875,
      "v": 95
    },
    {
      "midi": 55,
      "hit": false,
      "t": 237375,
      "d": 746.875,
      "v": 95
    },
    {
      "midi": 62,
      "hit": false,
      "t": 237375,
      "d": 746.875,
      "v": 95
    },
    {
      "midi": 36,
      "hit": false,
      "t": 238125,
      "d": 371.875,
      "v": 95
    },
    {
      "midi": 60,
      "hit": false,
      "t": 238125,
      "d": 371.875,
      "v": 95
    },
    {
      "midi": 64,
      "hit": false,
      "t": 238125,
      "d": 371.875,
      "v": 95
    },
    {
      "midi": 67,
      "hit": false,
      "t": 238125,
      "d": 371.875,
      "v": 95
    },
    {
      "midi": 38,
      "hit": false,
      "t": 238500,
      "d": 2246.875,
      "v": 95
    },
    {
      "midi": 57,
      "hit": false,
      "t": 238500,
      "d": 3371.875,
      "v": 95
    },
    {
      "midi": 62,
      "hit": false,
      "t": 238500,
      "d": 3371.875,
      "v": 95
    },
    {
      "midi": 66,
      "hit": false,
      "t": 238500,
      "d": 3371.875,
      "v": 95
    }
  ]
}