{
  "jsonPath": "Rock/Celtic Rock/The Corrs/no-good-for-me.json",
  "path": "Rock\\Celtic Rock\\The Corrs\\No Good For Me.mid",
  "name": "No Good For Me",
  "difficulty": "Advanced",
  "bpm": 90.00009000009,
  "notes": [
    {
      "midi": 46,
      "hit": false,
      "t": 0,
      "d": 1333.332,
      "v": 100
    },
    {
      "midi": 53,
      "hit": false,
      "t": 0,
      "d": 1333.332,
      "v": 100
    },
    {
      "midi": 62,
      "hit": false,
      "t": 333.333,
      "d": 333.333,
      "v": 100
    },
    {
      "midi": 62,
      "hit": false,
      "t": 666.666,
      "d": 333.33299999999997,
      "v": 100
    },
    {
      "midi": 63,
      "hit": false,
      "t": 999.999,
      "d": 333.3330000000001,
      "v": 100
    },
    {
      "midi": 63,
      "hit": false,
      "t": 1333.332,
      "d": 1333.332,
      "v": 100
    },
    {
      "midi": 51,
      "hit": false,
      "t": 1333.332,
      "d": 666.6659999999999,
      "v": 100
    },
    {
      "midi": 55,
      "hit": false,
      "t": 1333.332,
      "d": 666.6659999999999,
      "v": 100
    },
    {
      "midi": 51,
      "hit": false,
      "t": 1999.998,
      "d": 333.3330000000001,
      "v": 100
    },
    {
      "midi": 50,
      "hit": false,
      "t": 2333.331,
      "d": 333.3330000000001,
      "v": 100
    },
    {
      "midi": 48,
      "hit": false,
      "t": 2666.664,
      "d": 1999.998,
      "v": 100
    },
    {
      "midi": 51,
      "hit": false,
      "t": 2666.664,
      "d": 1999.998,
      "v": 100
    },
    {
      "midi": 55,
      "hit": false,
      "t": 2666.664,
      "d": 1999.998,
      "v": 100
    },
    {
      "midi": 62,
      "hit": false,
      "t": 2999.9970000000003,
      "d": 333.3330000000001,
      "v": 100
    },
    {
      "midi": 62,
      "hit": false,
      "t": 3333.3300000000004,
      "d": 333.3330000000001,
      "v": 100
    },
    {
      "midi": 63,
      "hit": false,
      "t": 3666.6630000000005,
      "d": 666.6660000000002,
      "v": 100
    },
    {
      "midi": 63,
      "hit": false,
      "t": 4333.329000000001,
      "d": 666.6660000000002,
      "v": 100
    },
    {
      "midi": 48,
      "hit": false,
      "t": 4666.662,
      "d": 666.6660000000002,
      "v": 100
    },
    {
      "midi": 62,
      "hit": false,
      "t": 4999.995000000001,
      "d": 333.33299999999963,
      "v": 100
    },
    {
      "midi": 46,
      "hit": false,
      "t": 5333.328,
      "d": 1333.3320000000003,
      "v": 100
    },
    {
      "midi": 53,
      "hit": false,
      "t": 5333.328,
      "d": 1333.3320000000003,
      "v": 100
    },
    {
      "midi": 62,
      "hit": false,
      "t": 5666.661,
      "d": 333.33299999999963,
      "v": 100
    },
    {
      "midi": 62,
      "hit": false,
      "t": 5999.994,
      "d": 333.33299999999963,
      "v": 100
    },
    {
      "midi": 63,
      "hit": false,
      "t": 6333.326999999999,
      "d": 333.33299999999963,
      "v": 100
    },
    {
      "midi": 63,
      "hit": false,
      "t": 6666.659999999999,
      "d": 1333.3320000000003,
      "v": 100
    },
    {
      "midi": 51,
      "hit": false,
      "t": 6666.660000000001,
      "d": 666.6660000000002,
      "v": 100
    },
    {
      "midi": 55,
      "hit": false,
      "t": 6666.660000000001,
      "d": 666.6660000000002,
      "v": 100
    },
    {
      "midi": 51,
      "hit": false,
      "t": 7333.326000000001,
      "d": 333.33299999999963,
      "v": 100
    },
    {
      "midi": 50,
      "hit": false,
      "t": 7666.659000000001,
      "d": 333.33299999999963,
      "v": 100
    },
    {
      "midi": 48,
      "hit": false,
      "t": 7999.992,
      "d": 1999.9979999999996,
      "v": 100
    },
    {
      "midi": 51,
      "hit": false,
      "t": 7999.992,
      "d": 1999.9979999999996,
      "v": 100
    },
    {
      "midi": 55,
      "hit": false,
      "t": 7999.992,
      "d": 1999.9979999999996,
      "v": 100
    },
    {
      "midi": 67,
      "hit": false,
      "t": 8333.324999999999,
      "d": 333.33300000000054,
      "v": 100
    },
    {
      "midi": 65,
      "hit": false,
      "t": 8666.658,
      "d": 333.33300000000054,
      "v": 100
    },
    {
      "midi": 65,
      "hit": false,
      "t": 8999.991,
      "d": 666.6659999999993,
      "v": 100
    },
    {
      "midi": 62,
      "hit": false,
      "t": 9666.657,
      "d": 333.33300000000054,
      "v": 100
    },
    {
      "midi": 60,
      "hit": false,
      "t": 9999.99,
      "d": 333.33300000000054,
      "v": 100
    },
    {
      "midi": 48,
      "hit": false,
      "t": 9999.99,
      "d": 666.6659999999993,
      "v": 100
    },
    {
      "midi": 62,
      "hit": false,
      "t": 10333.323,
      "d": 333.33300000000054,
      "v": 100
    },
    {
      "midi": 46,
      "hit": false,
      "t": 10666.655999999999,
      "d": 1333.3320000000003,
      "v": 100
    },
    {
      "midi": 53,
      "hit": false,
      "t": 10666.655999999999,
      "d": 1333.3320000000003,
      "v": 100
    },
    {
      "midi": 62,
      "hit": false,
      "t": 10833.3225,
      "d": 166.66649999999936,
      "v": 100
    },
    {
      "midi": 62,
      "hit": false,
      "t": 10999.989,
      "d": 333.33300000000054,
      "v": 100
    },
    {
      "midi": 62,
      "hit": false,
      "t": 11333.322,
      "d": 333.33300000000054,
      "v": 100
    },
    {
      "midi": 63,
      "hit": false,
      "t": 11666.655,
      "d": 333.33300000000054,
      "v": 100
    },
    {
      "midi": 51,
      "hit": false,
      "t": 11999.988,
      "d": 666.6659999999993,
      "v": 100
    },
    {
      "midi": 55,
      "hit": false,
      "t": 11999.988,
      "d": 666.6659999999993,
      "v": 100
    },
    {
      "midi": 63,
      "hit": false,
      "t": 11999.988000000001,
      "d": 333.33300000000054,
      "v": 100
    },
    {
      "midi": 63,
      "hit": false,
      "t": 12333.321000000002,
      "d": 333.33300000000054,
      "v": 100
    },
    {
      "midi": 51,
      "hit": false,
      "t": 12666.653999999999,
      "d": 333.33300000000054,
      "v": 100
    },
    {
      "midi": 50,
      "hit": false,
      "t": 12999.987,
      "d": 333.33300000000054,
      "v": 100
    },
    {
      "midi": 48,
      "hit": false,
      "t": 13333.32,
      "d": 1999.9979999999996,
      "v": 100
    },
    {
      "midi": 51,
      "hit": false,
      "t": 13333.32,
      "d": 1999.9979999999996,
      "v": 100
    },
    {
      "midi": 55,
      "hit": false,
      "t": 13333.32,
      "d": 1999.9979999999996,
      "v": 100
    },
    {
      "midi": 62,
      "hit": false,
      "t": 13666.653000000002,
      "d": 333.33300000000054,
      "v": 100
    },
    {
      "midi": 62,
      "hit": false,
      "t": 13999.986000000003,
      "d": 333.33300000000054,
      "v": 100
    },
    {
      "midi": 63,
      "hit": false,
      "t": 14333.319000000003,
      "d": 666.6659999999993,
      "v": 100
    },
    {
      "midi": 57,
      "hit": false,
      "t": 14999.985000000002,
      "d": 999.9989999999998,
      "v": 100
    },
    {
      "midi": 48,
      "hit": false,
      "t": 15333.318,
      "d": 666.6659999999993,
      "v": 100
    },
    {
      "midi": 46,
      "hit": false,
      "t": 15999.983999999999,
      "d": 1333.3320000000003,
      "v": 100
    },
    {
      "midi": 53,
      "hit": false,
      "t": 15999.983999999999,
      "d": 1333.3320000000003,
      "v": 100
    },
    {
      "midi": 58,
      "hit": false,
      "t": 15999.984000000002,
      "d": 333.33300000000054,
      "v": 100
    },
    {
      "midi": 62,
      "hit": false,
      "t": 16333.317000000003,
      "d": 333.3329999999987,
      "v": 100
    },
    {
      "midi": 62,
      "hit": false,
      "t": 16666.65,
      "d": 333.3329999999987,
      "v": 100
    },
    {
      "midi": 63,
      "hit": false,
      "t": 16999.983,
      "d": 333.3329999999987,
      "v": 100
    },
    {
      "midi": 63,
      "hit": false,
      "t": 17333.316,
      "d": 333.3329999999987,
      "v": 100
    },
    {
      "midi": 51,
      "hit": false,
      "t": 17333.316,
      "d": 666.6660000000011,
      "v": 100
    },
    {
      "midi": 55,
      "hit": false,
      "t": 17333.316,
      "d": 666.6660000000011,
      "v": 100
    },
    {
      "midi": 63,
      "hit": false,
      "t": 17666.648999999998,
      "d": 333.3329999999987,
      "v": 100
    },
    {
      "midi": 51,
      "hit": false,
      "t": 17999.982,
      "d": 333.3329999999987,
      "v": 100
    },
    {
      "midi": 50,
      "hit": false,
      "t": 18333.315,
      "d": 333.3329999999987,
      "v": 100
    },
    {
      "midi": 48,
      "hit": false,
      "t": 18666.647999999997,
      "d": 1999.9979999999996,
      "v": 100
    },
    {
      "midi": 51,
      "hit": false,
      "t": 18666.647999999997,
      "d": 1999.9979999999996,
      "v": 100
    },
    {
      "midi": 55,
      "hit": false,
      "t": 18666.647999999997,
      "d": 1999.9979999999996,
      "v": 100
    },
    {
      "midi": 62,
      "hit": false,
      "t": 19666.646999999997,
      "d": 333.3329999999987,
      "v": 100
    },
    {
      "midi": 70,
      "hit": false,
      "t": 19999.979999999996,
      "d": 333.3329999999987,
      "v": 100
    },
    {
      "midi": 69,
      "hit": false,
      "t": 20333.312999999995,
      "d": 333.3329999999987,
      "v": 100
    },
    {
      "midi": 67,
      "hit": false,
      "t": 20666.645999999993,
      "d": 333.3329999999987,
      "v": 100
    },
    {
      "midi": 48,
      "hit": false,
      "t": 20666.645999999997,
      "d": 666.6660000000011,
      "v": 100
    },
    {
      "midi": 62,
      "hit": false,
      "t": 20999.978999999992,
      "d": 333.3329999999987,
      "v": 100
    },
    {
      "midi": 67,
      "hit": false,
      "t": 20999.978999999992,
      "d": 333.3329999999987,
      "v": 100
    },
    {
      "midi": 51,
      "hit": false,
      "t": 21333.311999999998,
      "d": 666.6660000000011,
      "v": 100
    },
    {
      "midi": 58,
      "hit": false,
      "t": 21333.311999999998,
      "d": 666.6660000000011,
      "v": 100
    },
    {
      "midi": 51,
      "hit": false,
      "t": 21999.978,
      "d": 666.6660000000011,
      "v": 100
    },
    {
      "midi": 65,
      "hit": false,
      "t": 22333.31099999999,
      "d": 1333.3319999999985,
      "v": 100
    },
    {
      "midi": 53,
      "hit": false,
      "t": 22666.644,
      "d": 666.6660000000011,
      "v": 100
    },
    {
      "midi": 57,
      "hit": false,
      "t": 22666.644,
      "d": 666.6660000000011,
      "v": 100
    },
    {
      "midi": 53,
      "hit": false,
      "t": 23333.31,
      "d": 666.6660000000011,
      "v": 100
    },
    {
      "midi": 62,
      "hit": false,
      "t": 23666.64299999999,
      "d": 333.3329999999987,
      "v": 100
    },
    {
      "midi": 43,
      "hit": false,
      "t": 23999.976000000002,
      "d": 333.3329999999987,
      "v": 100
    },
    {
      "midi": 43,
      "hit": false,
      "t": 24333.309,
      "d": 666.6660000000011,
      "v": 100
    },
    {
      "midi": 62,
      "hit": false,
      "t": 24999.974999999988,
      "d": 333.3329999999987,
      "v": 100
    },
    {
      "midi": 43,
      "hit": false,
      "t": 24999.975000000002,
      "d": 333.3329999999987,
      "v": 100
    },
    {
      "midi": 70,
      "hit": false,
      "t": 25333.307999999986,
      "d": 333.3329999999987,
      "v": 100
    },
    {
      "midi": 45,
      "hit": false,
      "t": 25333.308,
      "d": 666.6660000000011,
      "v": 100
    },
    {
      "midi": 69,
      "hit": false,
      "t": 25666.640999999985,
      "d": 333.3329999999987,
      "v": 100
    },
    {
      "midi": 67,
      "hit": false,
      "t": 25999.973999999984,
      "d": 333.3329999999987,
      "v": 100
    },
    {
      "midi": 45,
      "hit": false,
      "t": 25999.974000000002,
      "d": 666.6660000000011,
      "v": 100
    },
    {
      "midi": 62,
      "hit": false,
      "t": 26333.306999999983,
      "d": 333.3329999999987,
      "v": 100
    },
    {
      "midi": 67,
      "hit": false,
      "t": 26333.306999999983,
      "d": 333.3329999999987,
      "v": 100
    },
    {
      "midi": 51,
      "hit": false,
      "t": 26666.640000000003,
      "d": 666.6660000000011,
      "v": 100
    },
    {
      "midi": 58,
      "hit": false,
      "t": 26666.640000000003,
      "d": 666.6660000000011,
      "v": 100
    },
    {
      "midi": 51,
      "hit": false,
      "t": 27333.306000000004,
      "d": 666.6660000000011,
      "v": 100
    },
    {
      "midi": 65,
      "hit": false,
      "t": 27666.63899999998,
      "d": 1333.3319999999985,
      "v": 100
    },
    {
      "midi": 53,
      "hit": false,
      "t": 27999.972000000005,
      "d": 666.6660000000011,
      "v": 100
    },
    {
      "midi": 57,
      "hit": false,
      "t": 27999.972000000005,
      "d": 666.6660000000011,
      "v": 100
    },
    {
      "midi": 53,
      "hit": false,
      "t": 28666.638000000006,
      "d": 666.6660000000011,
      "v": 100
    },
    {
      "midi": 62,
      "hit": false,
      "t": 28999.97099999998,
      "d": 333.3329999999987,
      "v": 100
    },
    {
      "midi": 43,
      "hit": false,
      "t": 29333.304000000007,
      "d": 666.6660000000011,
      "v": 100
    },
    {
      "midi": 43,
      "hit": false,
      "t": 29999.97000000001,
      "d": 666.6660000000011,
      "v": 100
    },
    {
      "midi": 62,
      "hit": false,
      "t": 30333.302999999978,
      "d": 333.3329999999987,
      "v": 100
    },
    {
      "midi": 72,
      "hit": false,
      "t": 30666.635999999977,
      "d": 333.3329999999987,
      "v": 100
    },
    {
      "midi": 41,
      "hit": false,
      "t": 30666.63600000001,
      "d": 666.6660000000011,
      "v": 100
    },
    {
      "midi": 69,
      "hit": false,
      "t": 30999.968999999975,
      "d": 333.3329999999987,
      "v": 100
    },
    {
      "midi": 67,
      "hit": false,
      "t": 31333.301999999974,
      "d": 333.3329999999987,
      "v": 100
    },
    {
      "midi": 53,
      "hit": false,
      "t": 31333.30200000001,
      "d": 666.6660000000011,
      "v": 100
    },
    {
      "midi": 62,
      "hit": false,
      "t": 31666.634999999973,
      "d": 333.3329999999987,
      "v": 100
    },
    {
      "midi": 67,
      "hit": false,
      "t": 31666.634999999973,
      "d": 333.3329999999987,
      "v": 100
    },
    {
      "midi": 51,
      "hit": false,
      "t": 31999.96800000001,
      "d": 666.6660000000011,
      "v": 100
    },
    {
      "midi": 58,
      "hit": false,
      "t": 31999.96800000001,
      "d": 666.6660000000011,
      "v": 100
    },
    {
      "midi": 62,
      "hit": false,
      "t": 32666.633999999973,
      "d": 666.6660000000011,
      "v": 100
    },
    {
      "midi": 67,
      "hit": false,
      "t": 32666.633999999973,
      "d": 666.6660000000011,
      "v": 100
    },
    {
      "midi": 51,
      "hit": false,
      "t": 32666.634000000013,
      "d": 666.6659999999974,
      "v": 100
    },
    {
      "midi": 67,
      "hit": false,
      "t": 33333.299999999974,
      "d": 333.3329999999987,
      "v": 100
    },
    {
      "midi": 53,
      "hit": false,
      "t": 33333.30000000001,
      "d": 666.6659999999974,
      "v": 100
    },
    {
      "midi": 57,
      "hit": false,
      "t": 33333.30000000001,
      "d": 666.6659999999974,
      "v": 100
    },
    {
      "midi": 65,
      "hit": false,
      "t": 33666.63299999997,
      "d": 333.3329999999987,
      "v": 100
    },
    {
      "midi": 62,
      "hit": false,
      "t": 33999.96599999997,
      "d": 333.3329999999987,
      "v": 100
    },
    {
      "midi": 53,
      "hit": false,
      "t": 33999.96600000001,
      "d": 666.6659999999974,
      "v": 100
    },
    {
      "midi": 62,
      "hit": false,
      "t": 34333.29899999997,
      "d": 333.3329999999987,
      "v": 100
    },
    {
      "midi": 43,
      "hit": false,
      "t": 34666.632000000005,
      "d": 333.3329999999987,
      "v": 100
    },
    {
      "midi": 43,
      "hit": false,
      "t": 34999.965000000004,
      "d": 666.6659999999974,
      "v": 100
    },
    {
      "midi": 43,
      "hit": false,
      "t": 35666.631,
      "d": 333.3329999999987,
      "v": 100
    },
    {
      "midi": 70,
      "hit": false,
      "t": 35999.96399999997,
      "d": 333.3329999999987,
      "v": 100
    },
    {
      "midi": 45,
      "hit": false,
      "t": 35999.964,
      "d": 666.6659999999974,
      "v": 100
    },
    {
      "midi": 69,
      "hit": false,
      "t": 36333.29699999997,
      "d": 333.3329999999987,
      "v": 100
    },
    {
      "midi": 67,
      "hit": false,
      "t": 36666.62999999997,
      "d": 333.3329999999987,
      "v": 100
    },
    {
      "midi": 45,
      "hit": false,
      "t": 36666.63,
      "d": 666.6659999999974,
      "v": 100
    },
    {
      "midi": 62,
      "hit": false,
      "t": 36999.96299999997,
      "d": 333.3329999999987,
      "v": 100
    },
    {
      "midi": 67,
      "hit": false,
      "t": 36999.96299999997,
      "d": 333.3329999999987,
      "v": 100
    },
    {
      "midi": 51,
      "hit": false,
      "t": 37333.295999999995,
      "d": 666.6659999999974,
      "v": 100
    },
    {
      "midi": 58,
      "hit": false,
      "t": 37333.295999999995,
      "d": 666.6659999999974,
      "v": 100
    },
    {
      "midi": 65,
      "hit": false,
      "t": 37999.96199999996,
      "d": 333.3329999999987,
      "v": 100
    },
    {
      "midi": 51,
      "hit": false,
      "t": 37999.96199999999,
      "d": 666.6659999999974,
      "v": 100
    },
    {
      "midi": 65,
      "hit": false,
      "t": 38333.29499999996,
      "d": 999.9990000000034,
      "v": 100
    },
    {
      "midi": 53,
      "hit": false,
      "t": 38666.62799999999,
      "d": 666.6659999999974,
      "v": 100
    },
    {
      "midi": 57,
      "hit": false,
      "t": 38666.62799999999,
      "d": 666.6659999999974,
      "v": 100
    },
    {
      "midi": 67,
      "hit": false,
      "t": 39333.293999999965,
      "d": 333.3329999999987,
      "v": 100
    },
    {
      "midi": 53,
      "hit": false,
      "t": 39333.29399999999,
      "d": 666.6659999999974,
      "v": 100
    },
    {
      "midi": 67,
      "hit": false,
      "t": 39666.626999999964,
      "d": 333.3329999999987,
      "v": 100
    },
    {
      "midi": 48,
      "hit": false,
      "t": 39999.959999999985,
      "d": 1999.9979999999996,
      "v": 100
    },
    {
      "midi": 51,
      "hit": false,
      "t": 39999.959999999985,
      "d": 1999.9979999999996,
      "v": 100
    },
    {
      "midi": 55,
      "hit": false,
      "t": 39999.959999999985,
      "d": 1999.9979999999996,
      "v": 100
    },
    {
      "midi": 67,
      "hit": false,
      "t": 40666.62599999996,
      "d": 333.3329999999987,
      "v": 100
    },
    {
      "midi": 67,
      "hit": false,
      "t": 40999.95899999996,
      "d": 333.3329999999987,
      "v": 100
    },
    {
      "midi": 74,
      "hit": false,
      "t": 41333.29199999996,
      "d": 333.3329999999987,
      "v": 100
    },
    {
      "midi": 72,
      "hit": false,
      "t": 41666.624999999956,
      "d": 333.3329999999987,
      "v": 100
    },
    {
      "midi": 70,
      "hit": false,
      "t": 41999.957999999955,
      "d": 333.3329999999987,
      "v": 100
    },
    {
      "midi": 69,
      "hit": false,
      "t": 42333.290999999954,
      "d": 333.3329999999987,
      "v": 100
    },
    {
      "midi": 67,
      "hit": false,
      "t": 42666.62399999995,
      "d": 666.6659999999974,
      "v": 100
    },
    {
      "midi": 43,
      "hit": false,
      "t": 42666.62399999998,
      "d": 666.6659999999974,
      "v": 100
    },
    {
      "midi": 50,
      "hit": false,
      "t": 42666.62399999998,
      "d": 666.6659999999974,
      "v": 100
    },
    {
      "midi": 67,
      "hit": false,
      "t": 43333.28999999995,
      "d": 333.3329999999987,
      "v": 100
    },
    {
      "midi": 43,
      "hit": false,
      "t": 43333.28999999998,
      "d": 666.6659999999974,
      "v": 100
    },
    {
      "midi": 62,
      "hit": false,
      "t": 43666.62299999995,
      "d": 333.3329999999987,
      "v": 100
    },
    {
      "midi": 65,
      "hit": false,
      "t": 43999.95599999995,
      "d": 333.3329999999987,
      "v": 100
    },
    {
      "midi": 43,
      "hit": false,
      "t": 43999.95599999998,
      "d": 666.6659999999974,
      "v": 100
    },
    {
      "midi": 50,
      "hit": false,
      "t": 43999.95599999998,
      "d": 666.6659999999974,
      "v": 100
    },
    {
      "midi": 67,
      "hit": false,
      "t": 44333.288999999946,
      "d": 333.3329999999987,
      "v": 100
    },
    {
      "midi": 65,
      "hit": false,
      "t": 44666.621999999945,
      "d": 333.3329999999987,
      "v": 100
    },
    {
      "midi": 43,
      "hit": false,
      "t": 44666.621999999974,
      "d": 666.6659999999974,
      "v": 100
    },
    {
      "midi": 62,
      "hit": false,
      "t": 44999.95499999994,
      "d": 333.3329999999987,
      "v": 100
    },
    {
      "midi": 67,
      "hit": false,
      "t": 44999.95499999994,
      "d": 333.3329999999987,
      "v": 100
    },
    {
      "midi": 51,
      "hit": false,
      "t": 45333.28799999997,
      "d": 666.6659999999974,
      "v": 100
    },
    {
      "midi": 58,
      "hit": false,
      "t": 45333.28799999997,
      "d": 666.6659999999974,
      "v": 100
    },
    {
      "midi": 51,
      "hit": false,
      "t": 45999.95399999997,
      "d": 666.6659999999974,
      "v": 100
    },
    {
      "midi": 67,
      "hit": false,
      "t": 46333.286999999946,
      "d": 333.3329999999987,
      "v": 100
    },
    {
      "midi": 74,
      "hit": false,
      "t": 46666.619999999944,
      "d": 333.3329999999987,
      "v": 100
    },
    {
      "midi": 46,
      "hit": false,
      "t": 46666.619999999966,
      "d": 666.6659999999974,
      "v": 100
    },
    {
      "midi": 53,
      "hit": false,
      "t": 46666.619999999966,
      "d": 666.6659999999974,
      "v": 100
    },
    {
      "midi": 72,
      "hit": false,
      "t": 46999.95299999994,
      "d": 333.3329999999987,
      "v": 100
    },
    {
      "midi": 70,
      "hit": false,
      "t": 47333.28599999994,
      "d": 333.3329999999987,
      "v": 100
    },
    {
      "midi": 46,
      "hit": false,
      "t": 47333.285999999964,
      "d": 666.6659999999974,
      "v": 100
    },
    {
      "midi": 69,
      "hit": false,
      "t": 47666.61899999994,
      "d": 333.3329999999987,
      "v": 100
    },
    {
      "midi": 67,
      "hit": false,
      "t": 47999.95199999994,
      "d": 666.6659999999974,
      "v": 100
    },
    {
      "midi": 43,
      "hit": false,
      "t": 47999.95199999996,
      "d": 666.6659999999974,
      "v": 100
    },
    {
      "midi": 50,
      "hit": false,
      "t": 47999.95199999996,
      "d": 666.6659999999974,
      "v": 100
    },
    {
      "midi": 67,
      "hit": false,
      "t": 48666.61799999994,
      "d": 333.3329999999987,
      "v": 100
    },
    {
      "midi": 43,
      "hit": false,
      "t": 48666.61799999996,
      "d": 666.6659999999974,
      "v": 100
    },
    {
      "midi": 62,
      "hit": false,
      "t": 48999.950999999935,
      "d": 333.3329999999987,
      "v": 100
    },
    {
      "midi": 65,
      "hit": false,
      "t": 49333.283999999934,
      "d": 333.3329999999987,
      "v": 100
    },
    {
      "midi": 43,
      "hit": false,
      "t": 49333.283999999956,
      "d": 666.6659999999974,
      "v": 100
    },
    {
      "midi": 50,
      "hit": false,
      "t": 49333.283999999956,
      "d": 666.6659999999974,
      "v": 100
    },
    {
      "midi": 67,
      "hit": false,
      "t": 49666.61699999993,
      "d": 666.6659999999974,
      "v": 100
    },
    {
      "midi": 43,
      "hit": false,
      "t": 49999.94999999995,
      "d": 666.6659999999974,
      "v": 100
    },
    {
      "midi": 62,
      "hit": false,
      "t": 50333.28299999993,
      "d": 333.3329999999987,
      "v": 100
    },
    {
      "midi": 67,
      "hit": false,
      "t": 50333.28299999993,
      "d": 333.3329999999987,
      "v": 100
    },
    {
      "midi": 51,
      "hit": false,
      "t": 50666.61599999995,
      "d": 666.6659999999974,
      "v": 100
    },
    {
      "midi": 58,
      "hit": false,
      "t": 50666.61599999995,
      "d": 666.6659999999974,
      "v": 100
    },
    {
      "midi": 70,
      "hit": false,
      "t": 50999.94899999993,
      "d": 333.3329999999987,
      "v": 100
    },
    {
      "midi": 69,
      "hit": false,
      "t": 51333.28199999993,
      "d": 333.3329999999987,
      "v": 100
    },
    {
      "midi": 51,
      "hit": false,
      "t": 51333.28199999995,
      "d": 666.6659999999974,
      "v": 100
    },
    {
      "midi": 67,
      "hit": false,
      "t": 51666.614999999925,
      "d": 333.3329999999987,
      "v": 100
    },
    {
      "midi": 74,
      "hit": false,
      "t": 51999.947999999924,
      "d": 333.3329999999987,
      "v": 100
    },
    {
      "midi": 46,
      "hit": false,
      "t": 51999.947999999946,
      "d": 666.6659999999974,
      "v": 100
    },
    {
      "midi": 53,
      "hit": false,
      "t": 51999.947999999946,
      "d": 666.6659999999974,
      "v": 100
    },
    {
      "midi": 77,
      "hit": false,
      "t": 52333.28099999992,
      "d": 333.3329999999987,
      "v": 100
    },
    {
      "midi": 69,
      "hit": false,
      "t": 52666.61399999992,
      "d": 333.3329999999987,
      "v": 100
    },
    {
      "midi": 46,
      "hit": false,
      "t": 52666.61399999994,
      "d": 666.6659999999974,
      "v": 100
    },
    {
      "midi": 69,
      "hit": false,
      "t": 52999.94699999992,
      "d": 333.3329999999987,
      "v": 100
    },
    {
      "midi": 70,
      "hit": false,
      "t": 53333.27999999992,
      "d": 666.6659999999974,
      "v": 100
    },
    {
      "midi": 43,
      "hit": false,
      "t": 53333.27999999994,
      "d": 666.6659999999974,
      "v": 100
    },
    {
      "midi": 50,
      "hit": false,
      "t": 53333.27999999994,
      "d": 666.6659999999974,
      "v": 100
    },
    {
      "midi": 65,
      "hit": false,
      "t": 53999.945999999916,
      "d": 333.3329999999987,
      "v": 100
    },
    {
      "midi": 43,
      "hit": false,
      "t": 53999.94599999994,
      "d": 666.6659999999974,
      "v": 100
    },
    {
      "midi": 65,
      "hit": false,
      "t": 54333.278999999915,
      "d": 333.3329999999987,
      "v": 100
    },
    {
      "midi": 69,
      "hit": false,
      "t": 54666.611999999914,
      "d": 333.3329999999987,
      "v": 100
    },
    {
      "midi": 43,
      "hit": false,
      "t": 54666.611999999936,
      "d": 666.6659999999974,
      "v": 100
    },
    {
      "midi": 50,
      "hit": false,
      "t": 54666.611999999936,
      "d": 666.6659999999974,
      "v": 100
    },
    {
      "midi": 70,
      "hit": false,
      "t": 54999.94499999991,
      "d": 333.3329999999987,
      "v": 100
    },
    {
      "midi": 67,
      "hit": false,
      "t": 55333.27799999991,
      "d": 333.3329999999987,
      "v": 100
    },
    {
      "midi": 43,
      "hit": false,
      "t": 55333.27799999993,
      "d": 666.6659999999974,
      "v": 100
    },
    {
      "midi": 62,
      "hit": false,
      "t": 55666.61099999991,
      "d": 333.3329999999987,
      "v": 100
    },
    {
      "midi": 67,
      "hit": false,
      "t": 55666.61099999991,
      "d": 333.3329999999987,
      "v": 100
    },
    {
      "midi": 51,
      "hit": false,
      "t": 55999.94399999993,
      "d": 666.6659999999974,
      "v": 100
    },
    {
      "midi": 58,
      "hit": false,
      "t": 55999.94399999993,
      "d": 666.6659999999974,
      "v": 100
    },
    {
      "midi": 67,
      "hit": false,
      "t": 56666.609999999906,
      "d": 333.3329999999987,
      "v": 100
    },
    {
      "midi": 51,
      "hit": false,
      "t": 56666.60999999993,
      "d": 666.6659999999974,
      "v": 100
    },
    {
      "midi": 67,
      "hit": false,
      "t": 56999.942999999905,
      "d": 333.3329999999987,
      "v": 100
    },
    {
      "midi": 69,
      "hit": false,
      "t": 57333.2759999999,
      "d": 333.3329999999987,
      "v": 100
    },
    {
      "midi": 46,
      "hit": false,
      "t": 57333.275999999925,
      "d": 666.6659999999974,
      "v": 100
    },
    {
      "midi": 53,
      "hit": false,
      "t": 57333.275999999925,
      "d": 666.6659999999974,
      "v": 100
    },
    {
      "midi": 70,
      "hit": false,
      "t": 57666.6089999999,
      "d": 333.3329999999987,
      "v": 100
    },
    {
      "midi": 69,
      "hit": false,
      "t": 57999.9419999999,
      "d": 333.3329999999987,
      "v": 100
    },
    {
      "midi": 46,
      "hit": false,
      "t": 57999.94199999992,
      "d": 666.6659999999974,
      "v": 100
    },
    {
      "midi": 67,
      "hit": false,
      "t": 58333.2749999999,
      "d": 333.3329999999987,
      "v": 100
    },
    {
      "midi": 43,
      "hit": false,
      "t": 58666.60799999992,
      "d": 666.6659999999974,
      "v": 100
    },
    {
      "midi": 50,
      "hit": false,
      "t": 58666.60799999992,
      "d": 666.6659999999974,
      "v": 100
    },
    {
      "midi": 67,
      "hit": false,
      "t": 59333.273999999896,
      "d": 333.3329999999987,
      "v": 100
    },
    {
      "midi": 43,
      "hit": false,
      "t": 59333.27399999992,
      "d": 666.6659999999974,
      "v": 100
    },
    {
      "midi": 67,
      "hit": false,
      "t": 59666.606999999894,
      "d": 333.3329999999987,
      "v": 100
    },
    {
      "midi": 69,
      "hit": false,
      "t": 59999.93999999989,
      "d": 333.3329999999987,
      "v": 100
    },
    {
      "midi": 43,
      "hit": false,
      "t": 59999.939999999915,
      "d": 666.6659999999974,
      "v": 100
    },
    {
      "midi": 50,
      "hit": false,
      "t": 59999.939999999915,
      "d": 666.6659999999974,
      "v": 100
    },
    {
      "midi": 70,
      "hit": false,
      "t": 60333.27299999989,
      "d": 333.3329999999987,
      "v": 100
    },
    {
      "midi": 69,
      "hit": false,
      "t": 60666.60599999989,
      "d": 333.3329999999987,
      "v": 100
    },
    {
      "midi": 43,
      "hit": false,
      "t": 60666.60599999991,
      "d": 666.6659999999974,
      "v": 100
    },
    {
      "midi": 67,
      "hit": false,
      "t": 60999.93899999989,
      "d": 333.3329999999987,
      "v": 100
    },
    {
      "midi": 53,
      "hit": false,
      "t": 61333.27199999991,
      "d": 666.6659999999974,
      "v": 100
    },
    {
      "midi": 57,
      "hit": false,
      "t": 61333.27199999991,
      "d": 666.6659999999974,
      "v": 100
    },
    {
      "midi": 60,
      "hit": false,
      "t": 61333.27199999991,
      "d": 666.6659999999974,
      "v": 100
    },
    {
      "midi": 53,
      "hit": false,
      "t": 61999.93799999991,
      "d": 666.6659999999974,
      "v": 100
    },
    {
      "midi": 57,
      "hit": false,
      "t": 61999.93799999991,
      "d": 666.6659999999974,
      "v": 100
    },
    {
      "midi": 60,
      "hit": false,
      "t": 61999.93799999991,
      "d": 666.6659999999974,
      "v": 100
    },
    {
      "midi": 53,
      "hit": false,
      "t": 62999.9369999999,
      "d": 333.3329999999987,
      "v": 100
    },
    {
      "midi": 57,
      "hit": false,
      "t": 62999.9369999999,
      "d": 333.3329999999987,
      "v": 100
    },
    {
      "midi": 60,
      "hit": false,
      "t": 62999.9369999999,
      "d": 333.3329999999987,
      "v": 100
    },
    {
      "midi": 53,
      "hit": false,
      "t": 63333.2699999999,
      "d": 666.6659999999974,
      "v": 100
    },
    {
      "midi": 57,
      "hit": false,
      "t": 63333.2699999999,
      "d": 666.6659999999974,
      "v": 100
    },
    {
      "midi": 60,
      "hit": false,
      "t": 63333.2699999999,
      "d": 666.6659999999974,
      "v": 100
    },
    {
      "midi": 67,
      "hit": false,
      "t": 63999.935999999885,
      "d": 666.6659999999974,
      "v": 100
    },
    {
      "midi": 53,
      "hit": false,
      "t": 63999.9359999999,
      "d": 1333.3320000000022,
      "v": 100
    },
    {
      "midi": 58,
      "hit": false,
      "t": 63999.9359999999,
      "d": 1333.3320000000022,
      "v": 100
    },
    {
      "midi": 60,
      "hit": false,
      "t": 63999.9359999999,
      "d": 1333.3320000000022,
      "v": 100
    },
    {
      "midi": 67,
      "hit": false,
      "t": 64666.60199999988,
      "d": 333.3329999999987,
      "v": 100
    },
    {
      "midi": 67,
      "hit": false,
      "t": 64999.93499999988,
      "d": 333.3329999999987,
      "v": 100
    },
    {
      "midi": 72,
      "hit": false,
      "t": 65333.26799999988,
      "d": 333.3329999999987,
      "v": 100
    },
    {
      "midi": 55,
      "hit": false,
      "t": 65333.2679999999,
      "d": 666.6660000000047,
      "v": 100
    },
    {
      "midi": 62,
      "hit": false,
      "t": 65333.2679999999,
      "d": 666.6660000000047,
      "v": 100
    },
    {
      "midi": 69,
      "hit": false,
      "t": 65666.60099999988,
      "d": 333.3329999999987,
      "v": 100
    },
    {
      "midi": 69,
      "hit": false,
      "t": 65999.93399999988,
      "d": 333.3329999999987,
      "v": 100
    },
    {
      "midi": 55,
      "hit": false,
      "t": 65999.9339999999,
      "d": 333.3329999999987,
      "v": 100
    },
    {
      "midi": 62,
      "hit": false,
      "t": 65999.9339999999,
      "d": 333.3329999999987,
      "v": 100
    },
    {
      "midi": 69,
      "hit": false,
      "t": 66333.26699999988,
      "d": 333.3329999999987,
      "v": 100
    },
    {
      "midi": 43,
      "hit": false,
      "t": 66666.5999999999,
      "d": 666.6659999999974,
      "v": 100
    },
    {
      "midi": 50,
      "hit": false,
      "t": 66666.5999999999,
      "d": 666.6659999999974,
      "v": 100
    },
    {
      "midi": 43,
      "hit": false,
      "t": 67333.2659999999,
      "d": 666.6659999999974,
      "v": 100
    },
    {
      "midi": 43,
      "hit": false,
      "t": 67999.9319999999,
      "d": 666.6659999999974,
      "v": 100
    },
    {
      "midi": 50,
      "hit": false,
      "t": 67999.9319999999,
      "d": 666.6659999999974,
      "v": 100
    },
    {
      "midi": 50,
      "hit": false,
      "t": 68666.5979999999,
      "d": 333.3329999999987,
      "v": 100
    },
    {
      "midi": 53,
      "hit": false,
      "t": 68999.9309999999,
      "d": 333.3329999999987,
      "v": 100
    },
    {
      "midi": 55,
      "hit": false,
      "t": 69333.2639999999,
      "d": 333.3329999999987,
      "v": 100
    },
    {
      "midi": 55,
      "hit": false,
      "t": 69666.59699999989,
      "d": 333.3329999999987,
      "v": 100
    },
    {
      "midi": 55,
      "hit": false,
      "t": 69999.92999999989,
      "d": 166.66650000000664,
      "v": 100
    },
    {
      "midi": 57,
      "hit": false,
      "t": 70166.5964999999,
      "d": 499.99950000000536,
      "v": 100
    },
    {
      "midi": 72,
      "hit": false,
      "t": 70666.59599999987,
      "d": 333.3329999999987,
      "v": 100
    },
    {
      "midi": 58,
      "hit": false,
      "t": 70666.5959999999,
      "d": 1333.3319999999949,
      "v": 100
    },
    {
      "midi": 62,
      "hit": false,
      "t": 70666.5959999999,
      "d": 1333.3319999999949,
      "v": 100
    },
    {
      "midi": 67,
      "hit": false,
      "t": 70999.92899999987,
      "d": 333.3329999999987,
      "v": 100
    },
    {
      "midi": 67,
      "hit": false,
      "t": 71333.26199999987,
      "d": 333.3329999999987,
      "v": 100
    },
    {
      "midi": 67,
      "hit": false,
      "t": 71666.59499999987,
      "d": 333.3329999999987,
      "v": 100
    },
    {
      "midi": 43,
      "hit": false,
      "t": 71999.9279999999,
      "d": 666.6659999999974,
      "v": 100
    },
    {
      "midi": 50,
      "hit": false,
      "t": 71999.9279999999,
      "d": 666.6659999999974,
      "v": 100
    },
    {
      "midi": 43,
      "hit": false,
      "t": 72666.5939999999,
      "d": 666.6659999999974,
      "v": 100
    },
    {
      "midi": 43,
      "hit": false,
      "t": 73333.2599999999,
      "d": 666.6659999999974,
      "v": 100
    },
    {
      "midi": 50,
      "hit": false,
      "t": 73333.2599999999,
      "d": 666.6659999999974,
      "v": 100
    },
    {
      "midi": 69,
      "hit": false,
      "t": 73999.92599999988,
      "d": 333.3329999999987,
      "v": 100
    },
    {
      "midi": 43,
      "hit": false,
      "t": 73999.92599999989,
      "d": 666.6659999999974,
      "v": 100
    },
    {
      "midi": 67,
      "hit": false,
      "t": 74333.25899999987,
      "d": 166.66650000000664,
      "v": 100
    },
    {
      "midi": 69,
      "hit": false,
      "t": 74499.92549999988,
      "d": 166.66650000000664,
      "v": 100
    },
    {
      "midi": 70,
      "hit": false,
      "t": 74666.59199999989,
      "d": 333.3329999999987,
      "v": 100
    },
    {
      "midi": 51,
      "hit": false,
      "t": 74666.59199999989,
      "d": 666.6659999999974,
      "v": 100
    },
    {
      "midi": 58,
      "hit": false,
      "t": 74666.59199999989,
      "d": 666.6659999999974,
      "v": 100
    },
    {
      "midi": 69,
      "hit": false,
      "t": 74999.92499999989,
      "d": 333.3329999999987,
      "v": 100
    },
    {
      "midi": 72,
      "hit": false,
      "t": 75333.25799999989,
      "d": 333.3329999999987,
      "v": 100
    },
    {
      "midi": 51,
      "hit": false,
      "t": 75333.25799999989,
      "d": 666.6659999999974,
      "v": 100
    },
    {
      "midi": 70,
      "hit": false,
      "t": 75666.59099999988,
      "d": 333.3329999999987,
      "v": 100
    },
    {
      "midi": 69,
      "hit": false,
      "t": 75999.92399999988,
      "d": 666.6659999999974,
      "v": 100
    },
    {
      "midi": 46,
      "hit": false,
      "t": 75999.92399999988,
      "d": 666.6659999999974,
      "v": 100
    },
    {
      "midi": 53,
      "hit": false,
      "t": 75999.92399999988,
      "d": 666.6659999999974,
      "v": 100
    },
    {
      "midi": 60,
      "hit": false,
      "t": 76666.58999999988,
      "d": 333.3329999999987,
      "v": 100
    },
    {
      "midi": 46,
      "hit": false,
      "t": 76666.58999999988,
      "d": 666.6659999999974,
      "v": 100
    },
    {
      "midi": 65,
      "hit": false,
      "t": 76999.92299999988,
      "d": 333.3329999999987,
      "v": 100
    },
    {
      "midi": 74,
      "hit": false,
      "t": 77333.25599999988,
      "d": 166.66650000000664,
      "v": 100
    },
    {
      "midi": 43,
      "hit": false,
      "t": 77333.25599999988,
      "d": 666.6659999999974,
      "v": 100
    },
    {
      "midi": 50,
      "hit": false,
      "t": 77333.25599999988,
      "d": 666.6659999999974,
      "v": 100
    },
    {
      "midi": 72,
      "hit": false,
      "t": 77499.92249999988,
      "d": 166.66650000000664,
      "v": 100
    },
    {
      "midi": 74,
      "hit": false,
      "t": 77666.58899999989,
      "d": 333.3329999999987,
      "v": 100
    },
    {
      "midi": 43,
      "hit": false,
      "t": 77999.92199999987,
      "d": 666.6659999999974,
      "v": 100
    },
    {
      "midi": 67,
      "hit": false,
      "t": 77999.92199999989,
      "d": 333.3329999999987,
      "v": 100
    },
    {
      "midi": 74,
      "hit": false,
      "t": 78333.25499999989,
      "d": 166.66650000000664,
      "v": 100
    },
    {
      "midi": 72,
      "hit": false,
      "t": 78499.9214999999,
      "d": 166.66650000000664,
      "v": 100
    },
    {
      "midi": 43,
      "hit": false,
      "t": 78666.58799999987,
      "d": 666.6659999999974,
      "v": 100
    },
    {
      "midi": 50,
      "hit": false,
      "t": 78666.58799999987,
      "d": 666.6659999999974,
      "v": 100
    },
    {
      "midi": 74,
      "hit": false,
      "t": 78666.5879999999,
      "d": 333.3329999999987,
      "v": 100
    },
    {
      "midi": 67,
      "hit": false,
      "t": 78999.9209999999,
      "d": 333.3329999999987,
      "v": 100
    },
    {
      "midi": 43,
      "hit": false,
      "t": 79333.25399999987,
      "d": 666.6659999999974,
      "v": 100
    },
    {
      "midi": 70,
      "hit": false,
      "t": 79333.2539999999,
      "d": 333.3329999999987,
      "v": 100
    },
    {
      "midi": 65,
      "hit": false,
      "t": 79666.5869999999,
      "d": 166.66650000000664,
      "v": 100
    },
    {
      "midi": 67,
      "hit": false,
      "t": 79833.2534999999,
      "d": 166.66650000000664,
      "v": 100
    },
    {
      "midi": 51,
      "hit": false,
      "t": 79999.91999999987,
      "d": 666.6659999999974,
      "v": 100
    },
    {
      "midi": 58,
      "hit": false,
      "t": 79999.91999999987,
      "d": 666.6659999999974,
      "v": 100
    },
    {
      "midi": 74,
      "hit": false,
      "t": 79999.91999999991,
      "d": 166.66650000000664,
      "v": 100
    },
    {
      "midi": 72,
      "hit": false,
      "t": 80166.58649999992,
      "d": 166.66650000000664,
      "v": 100
    },
    {
      "midi": 74,
      "hit": false,
      "t": 80333.25299999992,
      "d": 333.3329999999987,
      "v": 100
    },
    {
      "midi": 51,
      "hit": false,
      "t": 80666.58599999986,
      "d": 666.6659999999974,
      "v": 100
    },
    {
      "midi": 67,
      "hit": false,
      "t": 80666.58599999992,
      "d": 166.66650000000664,
      "v": 100
    },
    {
      "midi": 65,
      "hit": false,
      "t": 80833.25249999993,
      "d": 166.66650000000664,
      "v": 100
    },
    {
      "midi": 67,
      "hit": false,
      "t": 80999.91899999994,
      "d": 333.3329999999987,
      "v": 100
    },
    {
      "midi": 46,
      "hit": false,
      "t": 81333.25199999986,
      "d": 666.6659999999974,
      "v": 100
    },
    {
      "midi": 53,
      "hit": false,
      "t": 81333.25199999986,
      "d": 666.6659999999974,
      "v": 100
    },
    {
      "midi": 77,
      "hit": false,
      "t": 81333.25199999993,
      "d": 333.3329999999987,
      "v": 100
    },
    {
      "midi": 75,
      "hit": false,
      "t": 81666.58499999993,
      "d": 333.3329999999987,
      "v": 100
    },
    {
      "midi": 46,
      "hit": false,
      "t": 81999.91799999986,
      "d": 666.6659999999974,
      "v": 100
    },
    {
      "midi": 74,
      "hit": false,
      "t": 81999.91799999993,
      "d": 333.3329999999987,
      "v": 100
    },
    {
      "midi": 72,
      "hit": false,
      "t": 82333.25099999993,
      "d": 333.3329999999987,
      "v": 100
    },
    {
      "midi": 43,
      "hit": false,
      "t": 82666.58399999986,
      "d": 666.6659999999974,
      "v": 100
    },
    {
      "midi": 50,
      "hit": false,
      "t": 82666.58399999986,
      "d": 666.6659999999974,
      "v": 100
    },
    {
      "midi": 74,
      "hit": false,
      "t": 82666.58399999993,
      "d": 333.3329999999987,
      "v": 100
    },
    {
      "midi": 72,
      "hit": false,
      "t": 82999.91699999993,
      "d": 166.66650000000664,
      "v": 100
    },
    {
      "midi": 74,
      "hit": false,
      "t": 83166.58349999994,
      "d": 166.66650000000664,
      "v": 100
    },
    {
      "midi": 43,
      "hit": false,
      "t": 83333.24999999985,
      "d": 666.6659999999974,
      "v": 100
    },
    {
      "midi": 77,
      "hit": false,
      "t": 83333.24999999994,
      "d": 166.66650000000664,
      "v": 100
    },
    {
      "midi": 74,
      "hit": false,
      "t": 83499.91649999995,
      "d": 166.66650000000664,
      "v": 100
    },
    {
      "midi": 77,
      "hit": false,
      "t": 83666.58299999996,
      "d": 333.3329999999987,
      "v": 100
    },
    {
      "midi": 43,
      "hit": false,
      "t": 83999.91599999985,
      "d": 666.6659999999974,
      "v": 100
    },
    {
      "midi": 50,
      "hit": false,
      "t": 83999.91599999985,
      "d": 666.6659999999974,
      "v": 100
    },
    {
      "midi": 79,
      "hit": false,
      "t": 83999.91599999995,
      "d": 166.66650000000664,
      "v": 100
    },
    {
      "midi": 77,
      "hit": false,
      "t": 84166.58249999996,
      "d": 166.66650000000664,
      "v": 100
    },
    {
      "midi": 79,
      "hit": false,
      "t": 84333.24899999997,
      "d": 333.3329999999987,
      "v": 100
    },
    {
      "midi": 43,
      "hit": false,
      "t": 84666.58199999985,
      "d": 666.6659999999974,
      "v": 100
    },
    {
      "midi": 81,
      "hit": false,
      "t": 84666.58199999997,
      "d": 166.66650000000664,
      "v": 100
    },
    {
      "midi": 79,
      "hit": false,
      "t": 84833.24849999997,
      "d": 166.66650000000664,
      "v": 100
    },
    {
      "midi": 81,
      "hit": false,
      "t": 84999.91499999998,
      "d": 333.3329999999987,
      "v": 100
    },
    {
      "midi": 41,
      "hit": false,
      "t": 85333.24799999985,
      "d": 666.6659999999974,
      "v": 100
    },
    {
      "midi": 48,
      "hit": false,
      "t": 85333.24799999985,
      "d": 666.6659999999974,
      "v": 100
    },
    {
      "midi": 82,
      "hit": false,
      "t": 85333.24799999998,
      "d": 333.3329999999987,
      "v": 100
    },
    {
      "midi": 81,
      "hit": false,
      "t": 85666.58099999998,
      "d": 333.3329999999987,
      "v": 100
    },
    {
      "midi": 41,
      "hit": false,
      "t": 85999.91399999984,
      "d": 666.6659999999974,
      "v": 100
    },
    {
      "midi": 77,
      "hit": false,
      "t": 85999.91399999998,
      "d": 333.3329999999987,
      "v": 100
    },
    {
      "midi": 72,
      "hit": false,
      "t": 86333.24699999997,
      "d": 333.3329999999987,
      "v": 100
    },
    {
      "midi": 43,
      "hit": false,
      "t": 86666.57999999984,
      "d": 666.6659999999974,
      "v": 100
    },
    {
      "midi": 50,
      "hit": false,
      "t": 86666.57999999984,
      "d": 666.6659999999974,
      "v": 100
    },
    {
      "midi": 70,
      "hit": false,
      "t": 86666.57999999997,
      "d": 333.3329999999987,
      "v": 100
    },
    {
      "midi": 69,
      "hit": false,
      "t": 86999.91299999997,
      "d": 333.3329999999987,
      "v": 100
    },
    {
      "midi": 43,
      "hit": false,
      "t": 87333.24599999984,
      "d": 666.6659999999974,
      "v": 100
    },
    {
      "midi": 67,
      "hit": false,
      "t": 87333.24599999997,
      "d": 333.3329999999987,
      "v": 100
    },
    {
      "midi": 62,
      "hit": false,
      "t": 87666.57899999997,
      "d": 333.3329999999987,
      "v": 100
    },
    {
      "midi": 67,
      "hit": false,
      "t": 87666.57899999997,
      "d": 333.3329999999987,
      "v": 100
    },
    {
      "midi": 39,
      "hit": false,
      "t": 87999.91199999984,
      "d": 666.6659999999974,
      "v": 100
    },
    {
      "midi": 39,
      "hit": false,
      "t": 88666.57799999983,
      "d": 666.6659999999974,
      "v": 100
    },
    {
      "midi": 60,
      "hit": false,
      "t": 88999.91099999996,
      "d": 1333.3319999999949,
      "v": 100
    },
    {
      "midi": 65,
      "hit": false,
      "t": 88999.91099999996,
      "d": 1333.3319999999949,
      "v": 100
    },
    {
      "midi": 69,
      "hit": false,
      "t": 88999.91099999996,
      "d": 1333.3319999999949,
      "v": 100
    },
    {
      "midi": 41,
      "hit": false,
      "t": 89333.24399999983,
      "d": 666.6659999999974,
      "v": 100
    },
    {
      "midi": 41,
      "hit": false,
      "t": 89999.90999999983,
      "d": 666.6659999999974,
      "v": 100
    },
    {
      "midi": 58,
      "hit": false,
      "t": 90333.24299999996,
      "d": 333.3329999999987,
      "v": 100
    },
    {
      "midi": 62,
      "hit": false,
      "t": 90333.24299999996,
      "d": 333.3329999999987,
      "v": 100
    },
    {
      "midi": 69,
      "hit": false,
      "t": 90333.24299999996,
      "d": 333.3329999999987,
      "v": 100
    },
    {
      "midi": 43,
      "hit": false,
      "t": 90666.57599999983,
      "d": 666.6659999999974,
      "v": 100
    },
    {
      "midi": 43,
      "hit": false,
      "t": 91333.24199999982,
      "d": 666.6659999999974,
      "v": 100
    },
    {
      "midi": 45,
      "hit": false,
      "t": 91999.90799999982,
      "d": 666.6659999999974,
      "v": 100
    },
    {
      "midi": 70,
      "hit": false,
      "t": 91999.90799999995,
      "d": 333.3329999999987,
      "v": 100
    },
    {
      "midi": 69,
      "hit": false,
      "t": 92333.24099999995,
      "d": 333.3329999999987,
      "v": 100
    },
    {
      "midi": 45,
      "hit": false,
      "t": 92666.57399999982,
      "d": 666.6659999999974,
      "v": 100
    },
    {
      "midi": 67,
      "hit": false,
      "t": 92666.57399999995,
      "d": 333.3329999999987,
      "v": 100
    },
    {
      "midi": 62,
      "hit": false,
      "t": 92999.90699999995,
      "d": 333.3329999999987,
      "v": 100
    },
    {
      "midi": 67,
      "hit": false,
      "t": 92999.90699999995,
      "d": 333.3329999999987,
      "v": 100
    },
    {
      "midi": 39,
      "hit": false,
      "t": 93333.23999999982,
      "d": 666.6659999999974,
      "v": 100
    },
    {
      "midi": 39,
      "hit": false,
      "t": 93999.90599999981,
      "d": 666.6659999999974,
      "v": 100
    },
    {
      "midi": 65,
      "hit": false,
      "t": 93999.90599999994,
      "d": 333.3329999999987,
      "v": 100
    },
    {
      "midi": 60,
      "hit": false,
      "t": 94333.23899999994,
      "d": 999.9989999999962,
      "v": 100
    },
    {
      "midi": 65,
      "hit": false,
      "t": 94333.23899999994,
      "d": 999.9989999999962,
      "v": 100
    },
    {
      "midi": 41,
      "hit": false,
      "t": 94666.57199999981,
      "d": 666.6659999999974,
      "v": 100
    },
    {
      "midi": 41,
      "hit": false,
      "t": 95333.23799999981,
      "d": 666.6659999999974,
      "v": 100
    },
    {
      "midi": 62,
      "hit": false,
      "t": 95333.23799999994,
      "d": 333.3329999999987,
      "v": 100
    },
    {
      "midi": 67,
      "hit": false,
      "t": 95333.23799999994,
      "d": 333.3329999999987,
      "v": 100
    },
    {
      "midi": 63,
      "hit": false,
      "t": 95666.57099999994,
      "d": 333.3329999999987,
      "v": 100
    },
    {
      "midi": 67,
      "hit": false,
      "t": 95666.57099999994,
      "d": 333.3329999999987,
      "v": 100
    },
    {
      "midi": 48,
      "hit": false,
      "t": 95999.9039999998,
      "d": 2666.6640000000043,
      "v": 100
    },
    {
      "midi": 58,
      "hit": false,
      "t": 95999.9039999998,
      "d": 2666.6640000000043,
      "v": 100
    },
    {
      "midi": 57,
      "hit": false,
      "t": 98666.56799999981,
      "d": 333.3329999999987,
      "v": 100
    },
    {
      "midi": 55,
      "hit": false,
      "t": 98999.90099999981,
      "d": 333.3329999999987,
      "v": 100
    },
    {
      "midi": 53,
      "hit": false,
      "t": 99333.23399999981,
      "d": 333.3329999999987,
      "v": 100
    },
    {
      "midi": 67,
      "hit": false,
      "t": 99333.23399999994,
      "d": 333.3329999999987,
      "v": 100
    },
    {
      "midi": 51,
      "hit": false,
      "t": 99666.5669999998,
      "d": 333.3329999999987,
      "v": 100
    },
    {
      "midi": 67,
      "hit": false,
      "t": 99666.56699999994,
      "d": 333.3329999999987,
      "v": 100
    },
    {
      "midi": 50,
      "hit": false,
      "t": 99999.8999999998,
      "d": 666.6659999999974,
      "v": 100
    },
    {
      "midi": 74,
      "hit": false,
      "t": 99999.89999999994,
      "d": 333.3329999999987,
      "v": 100
    },
    {
      "midi": 72,
      "hit": false,
      "t": 100333.23299999993,
      "d": 333.3329999999987,
      "v": 100
    },
    {
      "midi": 46,
      "hit": false,
      "t": 100666.5659999998,
      "d": 666.6659999999974,
      "v": 100
    },
    {
      "midi": 70,
      "hit": false,
      "t": 100666.56599999993,
      "d": 333.3329999999987,
      "v": 100
    },
    {
      "midi": 69,
      "hit": false,
      "t": 100999.89899999993,
      "d": 333.3329999999987,
      "v": 100
    },
    {
      "midi": 43,
      "hit": false,
      "t": 101333.2319999998,
      "d": 666.6659999999974,
      "v": 100
    },
    {
      "midi": 50,
      "hit": false,
      "t": 101333.2319999998,
      "d": 666.6659999999974,
      "v": 100
    },
    {
      "midi": 67,
      "hit": false,
      "t": 101333.23199999993,
      "d": 666.6659999999974,
      "v": 100
    },
    {
      "midi": 74,
      "hit": false,
      "t": 101333.23199999993,
      "d": 666.6659999999974,
      "v": 100
    },
    {
      "midi": 43,
      "hit": false,
      "t": 101999.8979999998,
      "d": 666.6659999999974,
      "v": 100
    },
    {
      "midi": 67,
      "hit": false,
      "t": 101999.89799999993,
      "d": 333.3329999999987,
      "v": 100
    },
    {
      "midi": 62,
      "hit": false,
      "t": 102333.23099999993,
      "d": 333.3329999999987,
      "v": 100
    },
    {
      "midi": 43,
      "hit": false,
      "t": 102666.5639999998,
      "d": 666.6659999999974,
      "v": 100
    },
    {
      "midi": 50,
      "hit": false,
      "t": 102666.5639999998,
      "d": 666.6659999999974,
      "v": 100
    },
    {
      "midi": 65,
      "hit": false,
      "t": 102666.56399999993,
      "d": 333.3329999999987,
      "v": 100
    },
    {
      "midi": 67,
      "hit": false,
      "t": 102999.89699999992,
      "d": 333.3329999999987,
      "v": 100
    },
    {
      "midi": 43,
      "hit": false,
      "t": 103333.22999999979,
      "d": 666.6659999999974,
      "v": 100
    },
    {
      "midi": 65,
      "hit": false,
      "t": 103333.22999999992,
      "d": 333.3329999999987,
      "v": 100
    },
    {
      "midi": 67,
      "hit": false,
      "t": 103666.56299999992,
      "d": 333.3329999999987,
      "v": 100
    },
    {
      "midi": 51,
      "hit": false,
      "t": 103999.89599999979,
      "d": 666.6659999999974,
      "v": 100
    },
    {
      "midi": 58,
      "hit": false,
      "t": 103999.89599999979,
      "d": 666.6659999999974,
      "v": 100
    },
    {
      "midi": 51,
      "hit": false,
      "t": 104666.56199999979,
      "d": 666.6659999999974,
      "v": 100
    },
    {
      "midi": 67,
      "hit": false,
      "t": 104999.89499999992,
      "d": 333.3329999999987,
      "v": 100
    },
    {
      "midi": 46,
      "hit": false,
      "t": 105333.22799999978,
      "d": 666.6659999999974,
      "v": 100
    },
    {
      "midi": 53,
      "hit": false,
      "t": 105333.22799999978,
      "d": 666.6659999999974,
      "v": 100
    },
    {
      "midi": 74,
      "hit": false,
      "t": 105333.22799999992,
      "d": 333.3329999999987,
      "v": 100
    },
    {
      "midi": 72,
      "hit": false,
      "t": 105666.56099999991,
      "d": 333.3329999999987,
      "v": 100
    },
    {
      "midi": 46,
      "hit": false,
      "t": 105999.89399999978,
      "d": 666.6659999999974,
      "v": 100
    },
    {
      "midi": 70,
      "hit": false,
      "t": 105999.89399999991,
      "d": 333.3329999999987,
      "v": 100
    },
    {
      "midi": 69,
      "hit": false,
      "t": 106333.22699999991,
      "d": 333.3329999999987,
      "v": 100
    },
    {
      "midi": 43,
      "hit": false,
      "t": 106666.55999999978,
      "d": 666.6659999999974,
      "v": 100
    },
    {
      "midi": 50,
      "hit": false,
      "t": 106666.55999999978,
      "d": 666.6659999999974,
      "v": 100
    },
    {
      "midi": 67,
      "hit": false,
      "t": 106666.55999999991,
      "d": 666.6659999999974,
      "v": 100
    },
    {
      "midi": 43,
      "hit": false,
      "t": 107333.22599999978,
      "d": 666.6659999999974,
      "v": 100
    },
    {
      "midi": 67,
      "hit": false,
      "t": 107333.22599999991,
      "d": 333.3329999999987,
      "v": 100
    },
    {
      "midi": 62,
      "hit": false,
      "t": 107666.5589999999,
      "d": 333.3329999999987,
      "v": 100
    },
    {
      "midi": 43,
      "hit": false,
      "t": 107999.89199999977,
      "d": 666.6659999999974,
      "v": 100
    },
    {
      "midi": 50,
      "hit": false,
      "t": 107999.89199999977,
      "d": 666.6659999999974,
      "v": 100
    },
    {
      "midi": 65,
      "hit": false,
      "t": 107999.8919999999,
      "d": 333.3329999999987,
      "v": 100
    },
    {
      "midi": 67,
      "hit": false,
      "t": 108333.2249999999,
      "d": 666.6659999999974,
      "v": 100
    },
    {
      "midi": 43,
      "hit": false,
      "t": 108666.55799999977,
      "d": 666.6659999999974,
      "v": 100
    },
    {
      "midi": 67,
      "hit": false,
      "t": 108999.8909999999,
      "d": 333.3329999999987,
      "v": 100
    },
    {
      "midi": 51,
      "hit": false,
      "t": 109333.22399999977,
      "d": 666.6659999999974,
      "v": 100
    },
    {
      "midi": 58,
      "hit": false,
      "t": 109333.22399999977,
      "d": 666.6659999999974,
      "v": 100
    },
    {
      "midi": 70,
      "hit": false,
      "t": 109666.5569999999,
      "d": 333.3329999999987,
      "v": 100
    },
    {
      "midi": 51,
      "hit": false,
      "t": 109999.88999999977,
      "d": 666.6659999999974,
      "v": 100
    },
    {
      "midi": 69,
      "hit": false,
      "t": 109999.8899999999,
      "d": 333.3329999999987,
      "v": 100
    },
    {
      "midi": 67,
      "hit": false,
      "t": 110333.2229999999,
      "d": 333.3329999999987,
      "v": 100
    },
    {
      "midi": 46,
      "hit": false,
      "t": 110666.55599999976,
      "d": 666.6659999999974,
      "v": 100
    },
    {
      "midi": 53,
      "hit": false,
      "t": 110666.55599999976,
      "d": 666.6659999999974,
      "v": 100
    },
    {
      "midi": 74,
      "hit": false,
      "t": 110666.5559999999,
      "d": 333.3329999999987,
      "v": 100
    },
    {
      "midi": 77,
      "hit": false,
      "t": 110999.8889999999,
      "d": 333.3329999999987,
      "v": 100
    },
    {
      "midi": 46,
      "hit": false,
      "t": 111333.22199999976,
      "d": 666.6659999999974,
      "v": 100
    },
    {
      "midi": 69,
      "hit": false,
      "t": 111333.22199999989,
      "d": 333.3329999999987,
      "v": 100
    },
    {
      "midi": 69,
      "hit": false,
      "t": 111666.55499999989,
      "d": 333.3329999999987,
      "v": 100
    },
    {
      "midi": 43,
      "hit": false,
      "t": 111999.88799999976,
      "d": 666.6659999999974,
      "v": 100
    },
    {
      "midi": 50,
      "hit": false,
      "t": 111999.88799999976,
      "d": 666.6659999999974,
      "v": 100
    },
    {
      "midi": 70,
      "hit": false,
      "t": 111999.88799999989,
      "d": 666.6659999999974,
      "v": 100
    },
    {
      "midi": 43,
      "hit": false,
      "t": 112666.55399999976,
      "d": 666.6659999999974,
      "v": 100
    },
    {
      "midi": 65,
      "hit": false,
      "t": 112666.55399999989,
      "d": 333.3329999999987,
      "v": 100
    },
    {
      "midi": 65,
      "hit": false,
      "t": 112999.88699999989,
      "d": 333.3329999999987,
      "v": 100
    },
    {
      "midi": 43,
      "hit": false,
      "t": 113333.21999999975,
      "d": 666.6659999999974,
      "v": 100
    },
    {
      "midi": 50,
      "hit": false,
      "t": 113333.21999999975,
      "d": 666.6659999999974,
      "v": 100
    },
    {
      "midi": 69,
      "hit": false,
      "t": 113333.21999999988,
      "d": 333.3329999999987,
      "v": 100
    },
    {
      "midi": 70,
      "hit": false,
      "t": 113666.55299999988,
      "d": 333.3329999999987,
      "v": 100
    },
    {
      "midi": 43,
      "hit": false,
      "t": 113999.88599999975,
      "d": 666.6659999999974,
      "v": 100
    },
    {
      "midi": 67,
      "hit": false,
      "t": 113999.88599999988,
      "d": 333.3329999999987,
      "v": 100
    },
    {
      "midi": 67,
      "hit": false,
      "t": 114333.21899999988,
      "d": 333.3329999999987,
      "v": 100
    },
    {
      "midi": 51,
      "hit": false,
      "t": 114666.55199999975,
      "d": 666.6659999999974,
      "v": 100
    },
    {
      "midi": 58,
      "hit": false,
      "t": 114666.55199999975,
      "d": 666.6659999999974,
      "v": 100
    },
    {
      "midi": 51,
      "hit": false,
      "t": 115333.21799999975,
      "d": 666.6659999999974,
      "v": 100
    },
    {
      "midi": 67,
      "hit": false,
      "t": 115333.21799999988,
      "d": 333.3329999999987,
      "v": 100
    },
    {
      "midi": 67,
      "hit": false,
      "t": 115666.55099999988,
      "d": 333.3329999999987,
      "v": 100
    },
    {
      "midi": 46,
      "hit": false,
      "t": 115999.88399999974,
      "d": 666.6659999999974,
      "v": 100
    },
    {
      "midi": 53,
      "hit": false,
      "t": 115999.88399999974,
      "d": 666.6659999999974,
      "v": 100
    },
    {
      "midi": 69,
      "hit": false,
      "t": 115999.88399999987,
      "d": 333.3329999999987,
      "v": 100
    },
    {
      "midi": 70,
      "hit": false,
      "t": 116333.21699999987,
      "d": 333.3329999999987,
      "v": 100
    },
    {
      "midi": 46,
      "hit": false,
      "t": 116666.54999999974,
      "d": 666.6659999999974,
      "v": 100
    },
    {
      "midi": 69,
      "hit": false,
      "t": 116666.54999999987,
      "d": 333.3329999999987,
      "v": 100
    },
    {
      "midi": 67,
      "hit": false,
      "t": 116999.88299999987,
      "d": 333.3329999999987,
      "v": 100
    },
    {
      "midi": 43,
      "hit": false,
      "t": 117333.21599999974,
      "d": 666.6659999999974,
      "v": 100
    },
    {
      "midi": 50,
      "hit": false,
      "t": 117333.21599999974,
      "d": 666.6659999999974,
      "v": 100
    },
    {
      "midi": 43,
      "hit": false,
      "t": 117999.88199999974,
      "d": 666.6659999999974,
      "v": 100
    },
    {
      "midi": 67,
      "hit": false,
      "t": 117999.88199999987,
      "d": 333.3329999999987,
      "v": 100
    },
    {
      "midi": 67,
      "hit": false,
      "t": 118333.21499999987,
      "d": 333.3329999999987,
      "v": 100
    },
    {
      "midi": 43,
      "hit": false,
      "t": 118666.54799999973,
      "d": 666.6659999999974,
      "v": 100
    },
    {
      "midi": 50,
      "hit": false,
      "t": 118666.54799999973,
      "d": 666.6659999999974,
      "v": 100
    },
    {
      "midi": 65,
      "hit": false,
      "t": 118666.54799999986,
      "d": 333.3329999999987,
      "v": 100
    },
    {
      "midi": 67,
      "hit": false,
      "t": 118999.88099999986,
      "d": 333.3329999999987,
      "v": 100
    },
    {
      "midi": 43,
      "hit": false,
      "t": 119333.21399999973,
      "d": 666.6659999999974,
      "v": 100
    },
    {
      "midi": 70,
      "hit": false,
      "t": 119666.54699999986,
      "d": 333.3329999999987,
      "v": 100
    },
    {
      "midi": 51,
      "hit": false,
      "t": 119999.87999999973,
      "d": 666.6659999999974,
      "v": 100
    },
    {
      "midi": 58,
      "hit": false,
      "t": 119999.87999999973,
      "d": 666.6659999999974,
      "v": 100
    },
    {
      "midi": 69,
      "hit": false,
      "t": 119999.87999999986,
      "d": 333.3329999999987,
      "v": 100
    },
    {
      "midi": 67,
      "hit": false,
      "t": 120333.21299999986,
      "d": 333.3329999999987,
      "v": 100
    },
    {
      "midi": 51,
      "hit": false,
      "t": 120666.54599999973,
      "d": 666.6659999999974,
      "v": 100
    },
    {
      "midi": 70,
      "hit": false,
      "t": 120999.87899999986,
      "d": 333.3329999999987,
      "v": 100
    },
    {
      "midi": 46,
      "hit": false,
      "t": 121333.21199999972,
      "d": 666.6659999999974,
      "v": 100
    },
    {
      "midi": 53,
      "hit": false,
      "t": 121333.21199999972,
      "d": 666.6659999999974,
      "v": 100
    },
    {
      "midi": 69,
      "hit": false,
      "t": 121333.21199999985,
      "d": 333.3329999999987,
      "v": 100
    },
    {
      "midi": 67,
      "hit": false,
      "t": 121666.54499999985,
      "d": 333.3329999999987,
      "v": 100
    },
    {
      "midi": 46,
      "hit": false,
      "t": 121999.87799999972,
      "d": 666.6659999999974,
      "v": 100
    },
    {
      "midi": 70,
      "hit": false,
      "t": 121999.87799999985,
      "d": 333.3329999999987,
      "v": 100
    },
    {
      "midi": 72,
      "hit": false,
      "t": 122333.21099999985,
      "d": 333.3329999999987,
      "v": 100
    },
    {
      "midi": 41,
      "hit": false,
      "t": 122666.54399999972,
      "d": 999.9989999999962,
      "v": 100
    },
    {
      "midi": 48,
      "hit": false,
      "t": 122666.54399999972,
      "d": 999.9989999999962,
      "v": 100
    },
    {
      "midi": 69,
      "hit": false,
      "t": 122666.54399999985,
      "d": 333.3329999999987,
      "v": 100
    },
    {
      "midi": 70,
      "hit": false,
      "t": 122999.87699999985,
      "d": 333.3329999999987,
      "v": 100
    },
    {
      "midi": 69,
      "hit": false,
      "t": 123333.20999999985,
      "d": 333.3329999999987,
      "v": 100
    },
    {
      "midi": 43,
      "hit": false,
      "t": 123666.54299999971,
      "d": 1333.3319999999949,
      "v": 100
    },
    {
      "midi": 50,
      "hit": false,
      "t": 123666.54299999971,
      "d": 1333.3319999999949,
      "v": 100
    },
    {
      "midi": 67,
      "hit": false,
      "t": 123666.54299999985,
      "d": 1666.6649999999936,
      "v": 100
    },
    {
      "midi": 43,
      "hit": false,
      "t": 125333.20799999971,
      "d": 2666.6640000000043,
      "v": 100
    },
    {
      "midi": 50,
      "hit": false,
      "t": 125333.20799999971,
      "d": 2666.6640000000043,
      "v": 100
    },
    {
      "midi": 58,
      "hit": false,
      "t": 125333.20799999984,
      "d": 2666.6640000000043,
      "v": 100
    },
    {
      "midi": 62,
      "hit": false,
      "t": 125333.20799999984,
      "d": 2666.6640000000043,
      "v": 100
    }
  ]
}